<?xml version="1.0" encoding="utf-8" standalone="no"?>
<!DOCTYPE svg PUBLIC "-//W3C//DTD SVG 1.1//EN"
  "http://www.w3.org/Graphics/SVG/1.1/DTD/svg11.dtd">
<svg xmlns:xlink="http://www.w3.org/1999/xlink" width="442.842533pt" height="362.0232pt" viewBox="0 0 442.842533 362.0232" xmlns="http://www.w3.org/2000/svg" version="1.1">
 <metadata>
  <rdf:RDF xmlns:dc="http://purl.org/dc/elements/1.1/" xmlns:cc="http://creativecommons.org/ns#" xmlns:rdf="http://www.w3.org/1999/02/22-rdf-syntax-ns#">
   <cc:Work>
    <dc:type rdf:resource="http://purl.org/dc/dcmitype/StillImage"/>
    <dc:date>2024-11-06T08:54:19.520971</dc:date>
    <dc:format>image/svg+xml</dc:format>
    <dc:creator>
     <cc:Agent>
      <dc:title>Matplotlib v3.8.3, https://matplotlib.org/</dc:title>
     </cc:Agent>
    </dc:creator>
   </cc:Work>
  </rdf:RDF>
 </metadata>
 <defs>
  <style type="text/css">*{stroke-linejoin: round; stroke-linecap: butt}</style>
 </defs>
 <g id="figure_1">
  <g id="patch_1">
   <path d="M 0 362.0232 
L 442.842533 362.0232 
L 442.842533 0 
L 0 0 
z
" style="fill: #ffffff"/>
  </g>
  <g id="axes_1">
   <g id="line2d_1">
    <path d="M 125.112122 77.325782 
" clip-path="url(#p20b466221e)" style="fill: none; stroke: #1e3791; stroke-width: 1.5; stroke-linecap: square"/>
    <defs>
     <path id="m1b0111d9b5" d="M 0 6.5 
C 1.72382 6.5 3.377269 5.815119 4.596194 4.596194 
C 5.815119 3.377269 6.5 1.72382 6.5 0 
C 6.5 -1.72382 5.815119 -3.377269 4.596194 -4.596194 
C 3.377269 -5.815119 1.72382 -6.5 0 -6.5 
C -1.72382 -6.5 -3.377269 -5.815119 -4.596194 -4.596194 
C -5.815119 -3.377269 -6.5 -1.72382 -6.5 0 
C -6.5 1.72382 -5.815119 3.377269 -4.596194 4.596194 
C -3.377269 5.815119 -1.72382 6.5 0 6.5 
z
" style="stroke: #1e3791"/>
    </defs>
    <g clip-path="url(#p20b466221e)">
     <use xlink:href="#m1b0111d9b5" x="125.112122" y="77.325782" style="fill: #1e3791; stroke: #1e3791"/>
    </g>
   </g>
  </g>
 </g>
 <defs>
  <clipPath id="p20b466221e">
   <rect x="0" y="0" width="442.842533" height="362.0232"/>
  </clipPath>
 </defs>
</svg>
