<?xml version="1.0" encoding="utf-8" standalone="no"?>
<!DOCTYPE svg PUBLIC "-//W3C//DTD SVG 1.1//EN"
  "http://www.w3.org/Graphics/SVG/1.1/DTD/svg11.dtd">
<svg xmlns:xlink="http://www.w3.org/1999/xlink" width="720pt" height="720pt" viewBox="0 0 720 720" xmlns="http://www.w3.org/2000/svg" version="1.1">
 <metadata>
  <rdf:RDF xmlns:dc="http://purl.org/dc/elements/1.1/" xmlns:cc="http://creativecommons.org/ns#" xmlns:rdf="http://www.w3.org/1999/02/22-rdf-syntax-ns#">
   <cc:Work>
    <dc:type rdf:resource="http://purl.org/dc/dcmitype/StillImage"/>
    <dc:date>2024-10-15T13:01:14.029505</dc:date>
    <dc:format>image/svg+xml</dc:format>
    <dc:creator>
     <cc:Agent>
      <dc:title>Matplotlib v3.9.2, https://matplotlib.org/</dc:title>
     </cc:Agent>
    </dc:creator>
   </cc:Work>
  </rdf:RDF>
 </metadata>
 <defs>
  <style type="text/css">*{stroke-linejoin: round; stroke-linecap: butt}</style>
 </defs>
 <g id="figure_1">
  <g id="patch_1">
   <path d="M 0 720 
L 720 720 
L 720 0 
L 0 0 
z
" style="fill: #ffffff"/>
  </g>
  <g id="axes_1">
   <g id="patch_2">
    <path d="M 90 524.046582 
L 648 524.046582 
L 648 203.153418 
L 90 203.153418 
z
" style="fill: #ffffff"/>
   </g>
   <g id="PatchCollection_1">
    <path d="M 607.926797 344.186143 
L 607.92681 344.185999 
L 607.965764 343.748213 
L 607.975948 343.63428 
L 608.074988 342.524093 
L 607.800019 342.353129 
L 603.899664 339.928185 
L 599.884103 336.893472 
L 598.786901 336.023502 
L 598.856407 335.845409 
L 599.077528 335.530086 
L 598.746801 335.185229 
L 595.499243 331.860908 
L 593.905697 329.77993 
L 593.526469 329.252779 
L 593.412026 329.093781 
L 592.916192 328.404323 
L 592.568534 327.920963 
L 589.555718 323.732018 
L 589.058864 323.041032 
L 588.12919 321.748679 
L 586.06858 318.992118 
L 585.484271 318.210494 
L 583.65853 315.76811 
L 583.517863 315.57996 
L 576.774 306.558949 
L 576.38879 306.043383 
L 575.583233 304.965913 
L 572.468449 300.279606 
L 570.592169 297.742637 
L 568.109049 294.982766 
L 564.919666 290.935252 
L 564.767542 290.732972 
L 551.723586 273.397976 
L 551.14106 272.705972 
L 548.978864 270.140616 
L 548.081651 268.855646 
L 546.293209 266.245225 
L 545.852622 265.585173 
L 545.571416 264.976423 
L 542.2266 259.609823 
L 540.944685 257.870773 
L 536.945546 253.637401 
L 536.561735 253.203688 
L 535.259707 251.726495 
L 535.170088 251.605687 
L 535.054372 251.449872 
L 534.111713 250.179669 
L 529.913348 244.973722 
L 529.682043 244.754256 
L 529.259915 244.261222 
L 519.144249 243.444972 
L 505.537626 242.617011 
L 505.019768 242.585568 
L 502.521372 242.432298 
L 501.928279 242.396399 
L 501.599463 242.37654 
L 486.243096 241.437701 
L 470.053919 239.865675 
L 464.070561 239.28467 
L 454.1876 238.32508 
L 447.719215 237.696853 
L 435.046595 236.466368 
L 431.306002 236.103689 
L 418.471582 234.879187 
L 412.70946 234.452604 
L 388.809968 232.952497 
L 387.853561 232.892538 
L 387.551477 232.873443 
L 387.170722 232.848874 
L 385.078541 232.718137 
L 383.337454 232.609168 
L 382.935567 232.591346 
L 382.632593 232.576961 
L 381.55856 232.527823 
L 381.095314 232.506691 
L 380.78241 232.49307 
L 378.915296 232.409179 
L 375.975294 232.252727 
L 347.532072 230.834347 
L 343.606257 230.643142 
L 343.087381 230.617809 
L 342.121681 230.570835 
L 341.670274 230.548939 
L 340.379321 230.486053 
L 339.870374 230.461229 
L 333.332993 230.142724 
L 324.933081 229.734599 
L 293.498428 228.181662 
L 269.584169 226.965308 
L 256.914604 226.30411 
L 244.144216 225.655005 
L 231.596095 225.031743 
L 231.486744 225.025887 
L 218.745509 224.251265 
L 194.842707 222.965149 
L 193.81272 222.908628 
L 184.160682 222.384278 
L 183.207457 222.332594 
L 167.466135 221.476754 
L 166.02153 221.397064 
L 165.721484 221.381151 
L 164.613843 221.320556 
L 133.915623 219.66196 
L 132.841335 218.590092 
L 129.88835 218.377373 
L 126.350673 218.121626 
L 121.051033 217.739471 
L 121.098516 218.187059 
L 121.130978 219.025331 
L 120.408167 218.976193 
L 118.809529 218.87168 
L 118.797436 219.101202 
L 118.717491 220.618113 
L 118.374544 227.125197 
L 118.343355 227.717525 
L 118.296254 228.611174 
L 118.291544 228.700284 
L 115.446763 228.553125 
L 115.363636 229.983344 
L 115.76947 230.464794 
L 116.65077 231.510057 
L 117.041455 232.21912 
L 117.711946 233.436111 
L 121.105009 239.594519 
L 123.762403 248.23783 
L 128.830357 264.668611 
L 130.858633 271.335456 
L 133.711815 280.613487 
L 136.023207 288.130953 
L 138.655905 296.666058 
L 138.80281 297.142034 
L 139.22812 298.521333 
L 139.293935 298.734689 
L 142.810988 310.136979 
L 142.259523 310.256769 
L 141.696347 310.379232 
L 140.823321 310.57031 
L 142.364291 315.577796 
L 143.233116 318.401444 
L 143.336993 318.765778 
L 143.42534 319.134312 
L 143.497901 319.506157 
L 143.554549 319.880801 
L 143.595286 320.257483 
L 143.619982 320.635565 
L 143.628511 321.014411 
L 143.620873 321.393129 
L 143.597322 321.771339 
L 143.557605 322.148148 
L 143.501847 322.52292 
L 143.430304 322.895019 
L 143.342976 323.263681 
L 143.31828 323.35992 
L 142.815698 325.301122 
L 142.719459 325.671566 
L 142.62513 326.036154 
L 142.528005 326.411895 
L 142.429342 326.793591 
L 142.33463 327.159962 
L 142.239282 327.528369 
L 141.670886 329.721754 
L 141.45473 330.555444 
L 141.393372 330.792095 
L 141.131388 331.802859 
L 140.877296 332.782817 
L 140.815428 333.021506 
L 140.567447 333.97804 
L 140.303808 334.995043 
L 140.246268 335.217054 
L 140.004907 336.148511 
L 139.740632 337.167295 
L 139.686529 337.376068 
L 139.44364 338.313126 
L 139.18191 339.322745 
L 139.128953 339.527316 
L 138.886319 340.463101 
L 138.596329 341.581816 
L 138.530642 341.835017 
L 138.28508 342.782768 
L 138.029079 343.770109 
L 137.963264 344.024201 
L 137.717957 344.970678 
L 137.46692 345.938925 
L 137.401997 346.189452 
L 137.165982 347.100158 
L 136.909599 348.089155 
L 136.844549 348.339554 
L 136.589439 349.323713 
L 136.344259 350.269937 
L 136.278699 350.522501 
L 136.039884 351.444028 
L 135.776117 352.461794 
L 135.71514 352.696918 
L 135.482563 353.59413 
L 135.225798 354.584781 
L 135.156547 354.851985 
L 134.912257 355.794262 
L 134.665549 356.746214 
L 134.601899 356.991394 
L 134.583822 357.061409 
L 134.04967 359.122147 
L 133.868394 359.820899 
L 133.829822 360.606469 
L 133.810091 361.005556 
L 133.790487 361.411898 
L 133.771774 361.797618 
L 133.626269 362.358249 
L 132.52614 366.599769 
L 132.27714 367.559613 
L 132.257918 367.633065 
L 132.868323 367.785571 
L 133.613412 367.97143 
L 134.255388 368.131701 
L 134.1454 368.561212 
L 134.725253 368.725048 
L 135.752058 369.015547 
L 137.321289 369.506163 
L 138.852966 370.090344 
L 140.334488 370.768982 
L 141.862855 371.535075 
L 143.295111 372.324846 
L 144.681285 373.205383 
L 146.113032 374.15428 
L 147.135762 374.897841 
L 147.40373 375.092738 
L 148.70423 376.063275 
L 150.007785 377.125469 
L 151.219684 378.267481 
L 152.390338 379.42515 
L 153.534768 380.628265 
L 154.582959 381.876572 
L 155.64528 383.176054 
L 155.695055 383.239322 
L 157.076645 384.891171 
L 157.852795 386.115291 
L 159.555183 389.574423 
L 160.084625 390.980965 
L 159.7166 390.990512 
L 159.720673 391.18019 
L 159.032106 391.309654 
L 160.057892 393.401581 
L 160.425153 394.298284 
L 160.681409 394.924474 
L 160.742004 395.072652 
L 161.145673 396.05923 
L 161.181826 396.147321 
L 161.360683 396.584598 
L 161.464306 396.690894 
L 161.821383 397.059174 
L 161.837932 397.793951 
L 162.184062 398.470171 
L 162.992801 400.857052 
L 163.576982 402.671845 
L 164.100059 404.614194 
L 164.536063 406.461831 
L 164.973212 408.575653 
L 165.33169 411.081305 
L 164.969139 411.138081 
L 165.149905 412.942691 
L 165.875008 413.302696 
L 165.428438 414.15599 
L 167.110203 415.02176 
L 170.834247 416.925409 
L 177.712029 420.478107 
L 179.142248 421.21403 
L 179.484686 421.390341 
L 195.304298 429.530815 
L 195.601036 429.683066 
L 195.898282 429.834426 
L 196.19591 429.985023 
L 196.311881 430.043453 
L 196.427978 430.101757 
L 196.544204 430.159933 
L 197.555732 430.660351 
L 198.571843 431.151603 
L 199.592283 431.633689 
L 200.61705 432.106483 
L 201.697321 432.591115 
L 202.782175 433.065436 
L 203.871483 433.529446 
L 204.965121 433.983017 
L 206.063086 434.426277 
L 207.23845 434.891559 
L 208.418397 435.344876 
L 209.602926 435.786226 
L 210.791911 436.215483 
L 211.985097 436.632646 
L 212.760484 436.893484 
L 213.538543 437.146557 
L 214.319149 437.391483 
L 215.102173 437.628644 
L 215.887616 437.857657 
L 215.690937 438.500778 
L 215.238894 439.979244 
L 215.049598 440.597797 
L 215.04953 440.598019 
L 214.5945 442.086319 
L 214.408387 442.724094 
L 214.535178 442.768395 
L 214.656622 442.825807 
L 214.77132 442.895822 
L 214.877997 442.977422 
L 214.97551 443.069842 
L 215.06271 443.172064 
L 215.138581 443.282815 
L 215.195357 443.38631 
L 215.242204 443.494516 
L 215.278866 443.606667 
L 215.304963 443.721747 
L 215.320239 443.838736 
L 215.325713 443.926064 
L 215.325076 444.013519 
L 215.318457 444.10072 
L 215.305981 444.187284 
L 214.799835 446.860591 
L 214.395911 448.994272 
L 212.487934 456.548401 
L 212.468075 456.626818 
L 212.31175 457.24397 
L 211.924884 458.778066 
L 208.957004 470.529287 
L 208.444748 472.557436 
L 208.198167 475.344931 
L 208.191675 475.419148 
L 208.085124 476.626337 
L 208.031022 477.237633 
L 207.979338 477.409997 
L 207.855857 477.81965 
L 207.540279 480.098071 
L 207.102493 483.258175 
L 206.886337 484.817858 
L 206.820778 485.292689 
L 206.599911 486.893618 
L 206.332199 487.44852 
L 206.104204 487.922841 
L 206.019422 488.09686 
L 205.662599 488.780336 
L 204.609825 490.796518 
L 202.945246 493.984246 
L 204.494364 494.791457 
L 205.29521 495.249611 
L 206.729503 496.069935 
L 208.941983 497.332754 
L 211.126457 498.596337 
L 211.130625 498.598743 
L 212.074335 498.958252 
L 214.130235 499.913004 
L 217.350934 501.746129 
L 219.145868 502.777262 
L 221.488194 504.101185 
L 221.908286 504.336691 
L 222.334742 504.572197 
L 222.773928 504.801337 
L 223.206749 505.030478 
L 223.919631 505.418744 
L 224.384277 505.666979 
L 224.848923 505.90885 
L 225.319934 506.144356 
L 225.790946 506.373496 
L 227.070314 506.869968 
L 228.260572 507.283694 
L 228.273302 507.290059 
L 228.286032 507.302789 
L 228.298762 507.309154 
L 228.305127 507.321884 
L 228.317857 507.328249 
L 228.324222 507.340979 
L 228.336952 507.347344 
L 228.343317 507.360074 
L 228.349682 507.372804 
L 228.356047 507.385534 
L 228.362412 507.398264 
L 228.368777 507.410994 
L 228.368777 507.423724 
L 228.375142 507.442819 
L 228.375142 507.455549 
L 228.375142 507.468279 
L 228.375142 507.481009 
L 228.375142 507.493739 
L 228.368777 507.506469 
L 228.362412 507.525564 
L 229.48902 507.882005 
L 229.629051 507.831085 
L 232.741544 508.435762 
L 232.824289 508.607617 
L 234.237323 508.779472 
L 234.358258 508.709457 
L 234.631954 508.703092 
L 235.790387 508.779472 
L 235.904957 508.868583 
L 235.904957 508.906773 
L 236.929725 508.944963 
L 237.298896 509.282309 
L 237.508941 509.460529 
L 238.8265 509.352324 
L 238.692834 509.129548 
L 238.508249 508.811298 
L 238.78831 508.792203 
L 239.380256 508.709457 
L 239.399351 508.664902 
L 239.507556 508.594887 
L 239.685777 508.550332 
L 242.308164 508.162066 
L 242.59459 508.066591 
L 242.893745 508.041131 
L 243.148346 508.060226 
L 243.549342 508.047496 
L 244.300414 507.894735 
L 245.108771 507.68469 
L 247.724793 506.984538 
L 247.782078 506.850872 
L 247.953933 506.768127 
L 249.487902 506.418051 
L 249.780693 506.392591 
L 249.818883 506.405321 
L 253.135057 505.495124 
L 253.739734 505.297808 
L 256.985892 504.08209 
L 257.756059 503.789299 
L 260.085655 503.025497 
L 260.741252 502.599041 
L 260.715792 502.509931 
L 260.747617 502.350806 
L 260.919472 502.134395 
L 261.524149 501.892525 
L 261.99516 501.790684 
L 262.491631 501.637924 
L 263.96195 501.026882 
L 264.541167 500.657711 
L 264.827592 500.536776 
L 265.66141 500.320365 
L 266.106961 500.11032 
L 267.812785 499.251043 
L 267.959181 499.193757 
L 268.169226 499.200123 
L 268.232876 499.111012 
L 268.404732 498.996442 
L 270.836168 497.939849 
L 271.377195 497.736169 
L 271.58724 497.774359 
L 271.682715 497.678884 
L 271.962776 497.526123 
L 273.165764 497.118762 
L 273.37581 497.016922 
L 273.509475 496.895987 
L 273.674966 496.603196 
L 273.795901 496.552276 
L 274.706098 496.4568 
L 275.107094 496.450435 
L 275.425345 496.424975 
L 275.813611 496.335865 
L 276.100037 496.195835 
L 276.150957 496.074899 
L 276.322812 495.845759 
L 277.022964 495.584793 
L 277.455785 495.368383 
L 277.634006 495.311097 
L 277.697656 495.298367 
L 277.754941 495.285637 
L 277.812226 495.279272 
L 277.869511 495.279272 
L 277.926797 495.279272 
L 277.984082 495.285637 
L 278.041367 495.292002 
L 278.098652 495.304732 
L 278.149572 495.317462 
L 278.206857 495.336557 
L 278.168667 495.151972 
L 278.162302 495.024672 
L 279.938142 494.381805 
L 280.039982 494.655501 
L 280.230933 494.59185 
L 280.135457 494.31179 
L 281.924027 493.694383 
L 281.930392 493.579813 
L 282.006772 493.477973 
L 282.146803 493.407957 
L 282.547799 493.414322 
L 282.90424 493.376132 
L 283.763517 493.140627 
L 283.954467 493.045151 
L 284.037213 492.981501 
L 284.406383 492.975136 
L 284.482764 493.019691 
L 284.520954 493.127897 
L 286.462284 492.54868 
L 287.334291 492.300445 
L 288.002618 492.42138 
L 288.359059 492.580505 
L 288.409979 492.58687 
L 288.467264 492.593235 
L 288.518184 492.593235 
L 288.575469 492.58687 
L 288.626389 492.580505 
L 288.683675 492.580505 
L 289.428382 492.440475 
L 290.516799 492.287714 
L 290.612275 492.33227 
L 291.134206 492.243159 
L 291.630677 492.179509 
L 292.209894 491.644848 
L 295.965254 491.250217 
L 297.454668 491.122916 
L 298.950446 491.021076 
L 298.950446 490.951061 
L 299.077747 490.944696 
L 299.325982 490.925601 
L 299.593313 490.906506 
L 299.618773 491.142012 
L 299.975214 491.116551 
L 301.019077 490.976521 
L 302.311175 490.887411 
L 303.876969 490.830126 
L 304.398901 490.791936 
L 305.219988 490.811031 
L 305.219988 490.798301 
L 305.219988 490.791936 
L 305.213623 490.779206 
L 305.213623 490.766476 
L 305.213623 490.753745 
L 305.213623 490.74738 
L 305.219988 490.73465 
L 305.219988 490.72192 
L 305.219988 490.70919 
L 305.226353 490.702825 
L 305.232718 490.690095 
L 305.239083 490.68373 
L 305.245448 490.671 
L 305.251813 490.664635 
L 305.258178 490.651905 
L 305.264543 490.64554 
L 305.270908 490.639175 
L 305.283638 490.63281 
L 305.290003 490.626445 
L 305.302733 490.62008 
L 305.309098 490.613715 
L 305.321828 490.613715 
L 305.334558 490.60735 
L 305.340923 490.60735 
L 305.353653 490.60735 
L 305.366383 490.60735 
L 306.302041 490.626445 
L 306.302041 491.142012 
L 306.333866 491.142012 
L 306.372056 491.142012 
L 306.403881 491.142012 
L 306.435706 491.129281 
L 306.467531 491.122916 
L 306.499356 491.110186 
L 306.531181 491.097456 
L 306.563006 491.084726 
L 306.582101 491.065631 
L 306.601196 491.046536 
L 306.620291 491.033806 
L 306.645751 491.014711 
L 306.671212 491.001981 
L 306.690307 491.001981 
L 306.715767 490.989251 
L 306.741227 490.982886 
L 306.766687 490.976521 
L 306.792147 490.976521 
L 306.906717 490.951061 
L 307.014922 490.938331 
L 307.129493 490.938331 
L 307.244063 490.931966 
L 307.517759 490.931966 
L 307.797819 490.944696 
L 308.071515 490.970156 
L 308.345211 491.001981 
L 308.389766 491.021076 
L 308.440686 491.040171 
L 308.478876 491.065631 
L 308.523431 491.091091 
L 308.733477 491.173837 
L 308.943522 491.224757 
L 309.503644 491.377517 
L 310.464761 491.651213 
L 310.763917 491.778513 
L 311.158548 491.924909 
L 311.68048 492.166779 
L 311.88416 492.039479 
L 311.986 491.912179 
L 312.654327 492.198604 
L 313.469049 492.62506 
L 314.290136 493.032421 
L 314.869353 493.350672 
L 315.187604 493.586178 
L 315.51222 493.828049 
L 315.83047 494.069919 
L 316.142356 494.32452 
L 316.600637 494.731881 
L 316.721573 494.859181 
L 316.556082 494.897371 
L 316.441512 494.992847 
L 316.346037 495.145607 
L 317.007998 495.826664 
L 317.186219 495.692998 
L 317.268964 495.782109 
L 317.313519 495.960329 
L 317.867276 496.565006 
L 318.401937 497.398823 
L 318.764743 497.411553 
L 319.375785 498.888237 
L 319.52218 499.352883 
L 319.643115 499.569293 
L 319.744956 499.792069 
L 319.840431 500.027575 
L 319.910446 500.26308 
L 319.967731 500.504951 
L 319.886626 500.597165 
L 320.23404 501.891116 
L 321.531234 501.659565 
L 322.93141 501.38205 
L 324.339606 501.103008 
L 326.103862 500.753314 
L 327.789318 500.415331 
L 328.2905 500.302416 
L 330.83396 499.729692 
L 331.084916 499.673235 
L 330.95375 498.990077 
L 329.757127 493.745303 
L 329.27975 491.657578 
L 329.095165 491.046536 
L 328.904214 490.448225 
L 328.700534 489.843548 
L 328.503218 489.245237 
L 328.407743 488.955628 
L 328.299538 488.64056 
L 328.083127 488.042248 
L 327.853987 487.539412 
L 327.612116 487.036576 
L 327.35115 486.54647 
L 327.08382 486.062728 
L 325.944482 484.025923 
L 325.658056 483.618562 
L 325.3589 483.211201 
L 325.059744 482.810205 
L 324.760589 482.409209 
L 324.448703 482.008213 
L 324.136817 481.613582 
L 323.735821 481.161665 
L 323.32846 480.709749 
L 322.908369 480.270563 
L 322.475548 479.844107 
L 322.042727 479.424016 
L 321.59081 479.01029 
L 321.132529 478.609294 
L 320.667883 478.208298 
L 320.196872 477.826397 
L 319.719496 477.457226 
L 319.235754 477.088055 
L 318.739283 476.737979 
L 318.427397 476.451553 
L 318.140971 476.139667 
L 317.867276 475.815052 
L 317.625405 475.471341 
L 317.396264 475.1149 
L 317.186219 474.732999 
L 317.001633 474.344733 
L 316.842508 473.943737 
L 316.702478 473.536376 
L 316.600637 473.10992 
L 316.447877 472.352483 
L 316.428782 472.231547 
L 316.416052 472.110612 
L 316.422417 471.989677 
L 316.428782 471.862376 
L 316.466972 471.19405 
L 316.511527 470.519358 
L 316.517892 470.411152 
L 316.524257 470.302947 
L 316.536987 470.201107 
L 316.568812 470.092902 
L 316.594272 469.991061 
L 316.626097 469.889221 
L 316.804318 469.36729 
L 317.027094 468.858088 
L 317.268964 468.355252 
L 317.55539 467.877876 
L 317.75907 467.572355 
L 318.000941 467.285929 
L 318.249177 467.005869 
L 318.516507 466.757633 
L 318.440127 466.623968 
L 318.860218 466.292987 
L 319.312134 466.006561 
L 319.770416 465.732865 
L 320.247792 465.49736 
L 321.2471 465.128189 
L 321.714801 464.875243 
L 319.961706 460.159704 
L 319.585539 459.147876 
L 319.592195 459.145073 
L 323.131144 457.79569 
L 323.1757 457.78296 
L 324.448703 457.292853 
L 326.822854 456.433576 
L 328.725994 455.746154 
L 331.297461 454.778672 
L 333.888022 453.836649 
L 335.116471 453.391098 
L 336.62498 452.837342 
L 339.285557 451.901684 
L 339.291922 451.857129 
L 339.540157 451.768019 
L 340.972286 451.246088 
L 341.010476 451.277913 
L 341.182331 451.233357 
L 342.003419 450.940567 
L 343.779258 450.25951 
L 347.114527 449.139267 
L 347.560078 448.992872 
L 351.907384 447.573473 
L 354.1606 446.886051 
L 354.555231 446.771481 
L 356.585672 446.204994 
L 358.641572 445.638508 
L 359.60269 445.390272 
L 361.270324 444.963816 
L 362.619707 444.645565 
L 362.861578 444.52463 
L 362.950688 444.44825 
L 362.995243 444.3846 
L 365.038414 444.142729 
L 365.369395 444.072714 
L 369.188404 443.270722 
L 369.933111 443.162516 
L 370.136792 443.213437 
L 370.353203 443.162516 
L 370.964244 443.035216 
L 371.543461 442.914281 
L 372.192692 442.780615 
L 373.287475 442.551475 
L 374.496828 442.296874 
L 374.745064 442.245954 
L 374.929649 442.105924 
L 375.731642 441.883148 
L 377.679337 441.494882 
L 380.117138 441.011141 
L 380.505404 440.877475 
L 384.528094 439.591742 
L 385.234611 439.368967 
L 385.552862 439.419887 
L 385.871113 439.445347 
L 386.023873 439.375332 
L 386.176634 439.356237 
L 386.354854 439.330776 
L 386.507615 439.318046 
L 386.83223 439.228936 
L 387.487827 439.114366 
L 388.690815 438.8534 
L 389.925629 438.566974 
L 390.167499 438.516054 
L 390.199324 438.503324 
L 391.892419 438.146883 
L 393.693718 437.777712 
L 393.763734 437.758617 
L 395.685969 437.351256 
L 396.997162 437.058466 
L 397.302683 436.98845 
L 399.861419 436.447424 
L 402.241936 435.957318 
L 402.381966 435.887302 
L 402.490171 435.823652 
L 402.929357 435.861842 
L 404.851592 435.448116 
L 405.95274 435.333546 
L 408.887013 435.02166 
L 409.55534 434.951645 
L 410.128191 434.887995 
L 411.58578 434.576109 
L 411.71308 434.544284 
L 411.776731 434.531554 
L 411.834016 434.518824 
L 412.024966 434.480634 
L 412.413232 434.397889 
L 414.392752 433.971432 
L 414.500958 433.945972 
L 414.781018 433.888687 
L 414.903863 433.860768 
L 414.921049 433.856862 
L 415.162919 433.805942 
L 419.38929 431.730947 
L 419.580241 431.692757 
L 419.853937 431.635471 
L 421.776172 431.234475 
L 423.100095 430.954415 
L 426.740885 430.196978 
L 430.343484 429.445906 
L 434.009733 428.682104 
L 434.238874 428.631184 
L 437.656888 427.918302 
L 438.038789 427.835556 
L 438.745306 427.689161 
L 441.291312 427.160865 
L 444.957562 426.397063 
L 446.695212 426.034257 
L 448.604717 425.633261 
L 452.181856 424.888554 
L 455.84174 424.124752 
L 459.151549 423.430965 
L 459.60983 423.33549 
L 461.137434 423.017239 
L 462.194027 422.539863 
L 463.155144 422.336182 
L 466.834124 421.57238 
L 468.676242 421.186443 
L 468.777873 421.673329 
L 533.613459 408.13112 
L 544.522079 405.852444 
L 559.973412 402.62449 
L 593.955472 395.52686 
L 594.11256 395.494143 
L 594.141712 395.634683 
L 594.162717 395.735632 
L 594.187922 395.817486 
L 594.225348 395.894503 
L 594.273977 395.9649 
L 594.33279 396.027023 
L 594.400514 396.079598 
L 594.475366 396.121098 
L 594.555565 396.150758 
L 594.639456 396.167817 
L 594.725002 396.172018 
L 594.810166 396.162979 
L 594.987877 396.12568 
L 596.00768 395.91207 
L 596.558509 395.796609 
L 598.716631 395.346348 
L 600.802702 394.911235 
L 601.356076 394.794373 
L 602.556137 394.544865 
L 602.637482 394.521951 
L 602.714116 394.486434 
L 602.784259 394.439333 
L 602.845999 394.381666 
L 602.897811 394.31496 
L 602.938419 394.240872 
L 602.966807 394.161309 
L 602.982211 394.078182 
L 602.984375 393.993782 
L 602.973045 393.910018 
L 602.947331 393.786028 
L 611.877449 391.918277 
L 613.429494 391.593661 
L 613.911708 391.493221 
L 614.392394 391.385271 
L 614.871298 391.269809 
L 615.348292 391.146964 
L 615.823377 391.016736 
L 616.295789 390.87887 
L 616.766036 390.73362 
L 617.233865 390.581114 
L 617.699402 390.421225 
L 618.162266 390.254207 
L 618.623475 390.079806 
L 619.082011 389.898275 
L 619.537619 389.709616 
L 619.990172 389.513828 
L 620.439669 389.311039 
L 620.885857 389.101248 
L 621.328735 388.884583 
L 621.768175 388.660916 
L 622.204179 388.430503 
L 622.636364 388.193215 
L 621.815404 387.165646 
L 621.575825 386.865854 
L 621.081008 386.244119 
L 620.541382 385.569428 
L 618.105872 382.51893 
L 617.5637 381.839146 
L 617.536076 381.804393 
L 617.393881 381.626427 
L 617.324121 381.538972 
L 616.4306 380.419747 
L 616.121896 380.033136 
L 615.720519 379.5303 
L 614.907451 378.511897 
L 614.865442 378.459449 
L 614.651323 378.191228 
L 614.565013 378.082895 
L 614.034171 377.418515 
L 613.542919 376.803272 
L 612.762186 375.828661 
L 612.027918 374.908661 
L 611.873502 374.715165 
L 610.231837 372.65761 
L 610.122741 372.521016 
L 606.324481 367.76062 
L 606.107179 367.067088 
L 606.06046 366.917892 
L 605.93927 366.531408 
L 606.60085 358.991792 
L 607.048565 354.033316 
L 607.071479 353.779861 
L 607.084719 353.633084 
L 607.227422 352.030628 
L 607.261157 351.652928 
L 607.306348 351.144999 
L 607.628546 347.528397 
L 607.926797 344.186143 
" clip-path="url(#p3cadc4002a)" style="fill: #d3d3d3"/>
   </g>
   <g id="PatchCollection_2">
    <path d="M 174.047384 393.070872 
L 174.047384 392.943572 
L 173.920084 392.943572 
L 173.920084 393.070872 
L 174.047384 393.070872 
" clip-path="url(#p3cadc4002a)" style="fill: #ff0000; fill-opacity: 0.7; stroke: #000000; stroke-opacity: 0.7; stroke-width: 0.5"/>
    <path d="M 362.509021 246.209034 
L 362.509021 246.081733 
L 362.38172 246.081733 
L 362.38172 246.209034 
L 362.509021 246.209034 
" clip-path="url(#p3cadc4002a)" style="fill: #ff0000; fill-opacity: 0.7; stroke: #000000; stroke-opacity: 0.7; stroke-width: 0.5"/>
    <path d="M 369.755922 415.464277 
L 369.755922 415.336977 
L 369.628622 415.336977 
L 369.628622 415.464277 
L 369.755922 415.464277 
" clip-path="url(#p3cadc4002a)" style="fill: #ff0000; fill-opacity: 0.7; stroke: #000000; stroke-opacity: 0.7; stroke-width: 0.5"/>
    <path d="M 475.996309 294.742345 
L 475.996309 294.615044 
L 475.869009 294.615044 
L 475.869009 294.742345 
L 475.996309 294.742345 
" clip-path="url(#p3cadc4002a)" style="fill: #ff0000; fill-opacity: 0.7; stroke: #000000; stroke-opacity: 0.7; stroke-width: 0.5"/>
    <path d="M 369.755931 415.464263 
L 369.755931 415.336963 
L 369.628631 415.336963 
L 369.628631 415.464263 
L 369.755931 415.464263 
" clip-path="url(#p3cadc4002a)" style="fill: #ff0000; fill-opacity: 0.7; stroke: #000000; stroke-opacity: 0.7; stroke-width: 0.5"/>
    <path d="M 509.722159 284.198163 
L 509.722159 284.070863 
L 509.594859 284.070863 
L 509.594859 284.198163 
L 509.722159 284.198163 
" clip-path="url(#p3cadc4002a)" style="fill: #ff0000; fill-opacity: 0.7; stroke: #000000; stroke-opacity: 0.7; stroke-width: 0.5"/>
   </g>
   <g id="matplotlib.axis_1">
    <g id="xtick_1">
     <g id="line2d_1">
      <defs>
       <path id="m4c3dc7d715" d="M 0 0 
L 0 3.5 
" style="stroke: #000000; stroke-width: 0.8"/>
      </defs>
      <g>
       <use xlink:href="#m4c3dc7d715" x="90.636183" y="524.046582" style="stroke: #000000; stroke-width: 0.8"/>
      </g>
     </g>
     <g id="text_1">
      <!-- 382500 -->
      <g transform="translate(71.548683 538.64502) scale(0.1 -0.1)">
       <defs>
        <path id="DejaVuSans-33" d="M 2597 2516 
Q 3050 2419 3304 2112 
Q 3559 1806 3559 1356 
Q 3559 666 3084 287 
Q 2609 -91 1734 -91 
Q 1441 -91 1130 -33 
Q 819 25 488 141 
L 488 750 
Q 750 597 1062 519 
Q 1375 441 1716 441 
Q 2309 441 2620 675 
Q 2931 909 2931 1356 
Q 2931 1769 2642 2001 
Q 2353 2234 1838 2234 
L 1294 2234 
L 1294 2753 
L 1863 2753 
Q 2328 2753 2575 2939 
Q 2822 3125 2822 3475 
Q 2822 3834 2567 4026 
Q 2313 4219 1838 4219 
Q 1578 4219 1281 4162 
Q 984 4106 628 3988 
L 628 4550 
Q 988 4650 1302 4700 
Q 1616 4750 1894 4750 
Q 2613 4750 3031 4423 
Q 3450 4097 3450 3541 
Q 3450 3153 3228 2886 
Q 3006 2619 2597 2516 
z
" transform="scale(0.015625)"/>
        <path id="DejaVuSans-38" d="M 2034 2216 
Q 1584 2216 1326 1975 
Q 1069 1734 1069 1313 
Q 1069 891 1326 650 
Q 1584 409 2034 409 
Q 2484 409 2743 651 
Q 3003 894 3003 1313 
Q 3003 1734 2745 1975 
Q 2488 2216 2034 2216 
z
M 1403 2484 
Q 997 2584 770 2862 
Q 544 3141 544 3541 
Q 544 4100 942 4425 
Q 1341 4750 2034 4750 
Q 2731 4750 3128 4425 
Q 3525 4100 3525 3541 
Q 3525 3141 3298 2862 
Q 3072 2584 2669 2484 
Q 3125 2378 3379 2068 
Q 3634 1759 3634 1313 
Q 3634 634 3220 271 
Q 2806 -91 2034 -91 
Q 1263 -91 848 271 
Q 434 634 434 1313 
Q 434 1759 690 2068 
Q 947 2378 1403 2484 
z
M 1172 3481 
Q 1172 3119 1398 2916 
Q 1625 2713 2034 2713 
Q 2441 2713 2670 2916 
Q 2900 3119 2900 3481 
Q 2900 3844 2670 4047 
Q 2441 4250 2034 4250 
Q 1625 4250 1398 4047 
Q 1172 3844 1172 3481 
z
" transform="scale(0.015625)"/>
        <path id="DejaVuSans-32" d="M 1228 531 
L 3431 531 
L 3431 0 
L 469 0 
L 469 531 
Q 828 903 1448 1529 
Q 2069 2156 2228 2338 
Q 2531 2678 2651 2914 
Q 2772 3150 2772 3378 
Q 2772 3750 2511 3984 
Q 2250 4219 1831 4219 
Q 1534 4219 1204 4116 
Q 875 4013 500 3803 
L 500 4441 
Q 881 4594 1212 4672 
Q 1544 4750 1819 4750 
Q 2544 4750 2975 4387 
Q 3406 4025 3406 3419 
Q 3406 3131 3298 2873 
Q 3191 2616 2906 2266 
Q 2828 2175 2409 1742 
Q 1991 1309 1228 531 
z
" transform="scale(0.015625)"/>
        <path id="DejaVuSans-35" d="M 691 4666 
L 3169 4666 
L 3169 4134 
L 1269 4134 
L 1269 2991 
Q 1406 3038 1543 3061 
Q 1681 3084 1819 3084 
Q 2600 3084 3056 2656 
Q 3513 2228 3513 1497 
Q 3513 744 3044 326 
Q 2575 -91 1722 -91 
Q 1428 -91 1123 -41 
Q 819 9 494 109 
L 494 744 
Q 775 591 1075 516 
Q 1375 441 1709 441 
Q 2250 441 2565 725 
Q 2881 1009 2881 1497 
Q 2881 1984 2565 2268 
Q 2250 2553 1709 2553 
Q 1456 2553 1204 2497 
Q 953 2441 691 2322 
L 691 4666 
z
" transform="scale(0.015625)"/>
        <path id="DejaVuSans-30" d="M 2034 4250 
Q 1547 4250 1301 3770 
Q 1056 3291 1056 2328 
Q 1056 1369 1301 889 
Q 1547 409 2034 409 
Q 2525 409 2770 889 
Q 3016 1369 3016 2328 
Q 3016 3291 2770 3770 
Q 2525 4250 2034 4250 
z
M 2034 4750 
Q 2819 4750 3233 4129 
Q 3647 3509 3647 2328 
Q 3647 1150 3233 529 
Q 2819 -91 2034 -91 
Q 1250 -91 836 529 
Q 422 1150 422 2328 
Q 422 3509 836 4129 
Q 1250 4750 2034 4750 
z
" transform="scale(0.015625)"/>
       </defs>
       <use xlink:href="#DejaVuSans-33"/>
       <use xlink:href="#DejaVuSans-38" x="63.623047"/>
       <use xlink:href="#DejaVuSans-32" x="127.246094"/>
       <use xlink:href="#DejaVuSans-35" x="190.869141"/>
       <use xlink:href="#DejaVuSans-30" x="254.492188"/>
       <use xlink:href="#DejaVuSans-30" x="318.115234"/>
      </g>
     </g>
    </g>
    <g id="xtick_2">
     <g id="line2d_2">
      <g>
       <use xlink:href="#m4c3dc7d715" x="154.286349" y="524.046582" style="stroke: #000000; stroke-width: 0.8"/>
      </g>
     </g>
     <g id="text_2">
      <!-- 383000 -->
      <g transform="translate(135.198849 538.64502) scale(0.1 -0.1)">
       <use xlink:href="#DejaVuSans-33"/>
       <use xlink:href="#DejaVuSans-38" x="63.623047"/>
       <use xlink:href="#DejaVuSans-33" x="127.246094"/>
       <use xlink:href="#DejaVuSans-30" x="190.869141"/>
       <use xlink:href="#DejaVuSans-30" x="254.492188"/>
       <use xlink:href="#DejaVuSans-30" x="318.115234"/>
      </g>
     </g>
    </g>
    <g id="xtick_3">
     <g id="line2d_3">
      <g>
       <use xlink:href="#m4c3dc7d715" x="217.936515" y="524.046582" style="stroke: #000000; stroke-width: 0.8"/>
      </g>
     </g>
     <g id="text_3">
      <!-- 383500 -->
      <g transform="translate(198.849015 538.64502) scale(0.1 -0.1)">
       <use xlink:href="#DejaVuSans-33"/>
       <use xlink:href="#DejaVuSans-38" x="63.623047"/>
       <use xlink:href="#DejaVuSans-33" x="127.246094"/>
       <use xlink:href="#DejaVuSans-35" x="190.869141"/>
       <use xlink:href="#DejaVuSans-30" x="254.492188"/>
       <use xlink:href="#DejaVuSans-30" x="318.115234"/>
      </g>
     </g>
    </g>
    <g id="xtick_4">
     <g id="line2d_4">
      <g>
       <use xlink:href="#m4c3dc7d715" x="281.586681" y="524.046582" style="stroke: #000000; stroke-width: 0.8"/>
      </g>
     </g>
     <g id="text_4">
      <!-- 384000 -->
      <g transform="translate(262.499181 538.64502) scale(0.1 -0.1)">
       <defs>
        <path id="DejaVuSans-34" d="M 2419 4116 
L 825 1625 
L 2419 1625 
L 2419 4116 
z
M 2253 4666 
L 3047 4666 
L 3047 1625 
L 3713 1625 
L 3713 1100 
L 3047 1100 
L 3047 0 
L 2419 0 
L 2419 1100 
L 313 1100 
L 313 1709 
L 2253 4666 
z
" transform="scale(0.015625)"/>
       </defs>
       <use xlink:href="#DejaVuSans-33"/>
       <use xlink:href="#DejaVuSans-38" x="63.623047"/>
       <use xlink:href="#DejaVuSans-34" x="127.246094"/>
       <use xlink:href="#DejaVuSans-30" x="190.869141"/>
       <use xlink:href="#DejaVuSans-30" x="254.492188"/>
       <use xlink:href="#DejaVuSans-30" x="318.115234"/>
      </g>
     </g>
    </g>
    <g id="xtick_5">
     <g id="line2d_5">
      <g>
       <use xlink:href="#m4c3dc7d715" x="345.236847" y="524.046582" style="stroke: #000000; stroke-width: 0.8"/>
      </g>
     </g>
     <g id="text_5">
      <!-- 384500 -->
      <g transform="translate(326.149347 538.64502) scale(0.1 -0.1)">
       <use xlink:href="#DejaVuSans-33"/>
       <use xlink:href="#DejaVuSans-38" x="63.623047"/>
       <use xlink:href="#DejaVuSans-34" x="127.246094"/>
       <use xlink:href="#DejaVuSans-35" x="190.869141"/>
       <use xlink:href="#DejaVuSans-30" x="254.492188"/>
       <use xlink:href="#DejaVuSans-30" x="318.115234"/>
      </g>
     </g>
    </g>
    <g id="xtick_6">
     <g id="line2d_6">
      <g>
       <use xlink:href="#m4c3dc7d715" x="408.887013" y="524.046582" style="stroke: #000000; stroke-width: 0.8"/>
      </g>
     </g>
     <g id="text_6">
      <!-- 385000 -->
      <g transform="translate(389.799513 538.64502) scale(0.1 -0.1)">
       <use xlink:href="#DejaVuSans-33"/>
       <use xlink:href="#DejaVuSans-38" x="63.623047"/>
       <use xlink:href="#DejaVuSans-35" x="127.246094"/>
       <use xlink:href="#DejaVuSans-30" x="190.869141"/>
       <use xlink:href="#DejaVuSans-30" x="254.492188"/>
       <use xlink:href="#DejaVuSans-30" x="318.115234"/>
      </g>
     </g>
    </g>
    <g id="xtick_7">
     <g id="line2d_7">
      <g>
       <use xlink:href="#m4c3dc7d715" x="472.537179" y="524.046582" style="stroke: #000000; stroke-width: 0.8"/>
      </g>
     </g>
     <g id="text_7">
      <!-- 385500 -->
      <g transform="translate(453.449679 538.64502) scale(0.1 -0.1)">
       <use xlink:href="#DejaVuSans-33"/>
       <use xlink:href="#DejaVuSans-38" x="63.623047"/>
       <use xlink:href="#DejaVuSans-35" x="127.246094"/>
       <use xlink:href="#DejaVuSans-35" x="190.869141"/>
       <use xlink:href="#DejaVuSans-30" x="254.492188"/>
       <use xlink:href="#DejaVuSans-30" x="318.115234"/>
      </g>
     </g>
    </g>
    <g id="xtick_8">
     <g id="line2d_8">
      <g>
       <use xlink:href="#m4c3dc7d715" x="536.187345" y="524.046582" style="stroke: #000000; stroke-width: 0.8"/>
      </g>
     </g>
     <g id="text_8">
      <!-- 386000 -->
      <g transform="translate(517.099845 538.64502) scale(0.1 -0.1)">
       <defs>
        <path id="DejaVuSans-36" d="M 2113 2584 
Q 1688 2584 1439 2293 
Q 1191 2003 1191 1497 
Q 1191 994 1439 701 
Q 1688 409 2113 409 
Q 2538 409 2786 701 
Q 3034 994 3034 1497 
Q 3034 2003 2786 2293 
Q 2538 2584 2113 2584 
z
M 3366 4563 
L 3366 3988 
Q 3128 4100 2886 4159 
Q 2644 4219 2406 4219 
Q 1781 4219 1451 3797 
Q 1122 3375 1075 2522 
Q 1259 2794 1537 2939 
Q 1816 3084 2150 3084 
Q 2853 3084 3261 2657 
Q 3669 2231 3669 1497 
Q 3669 778 3244 343 
Q 2819 -91 2113 -91 
Q 1303 -91 875 529 
Q 447 1150 447 2328 
Q 447 3434 972 4092 
Q 1497 4750 2381 4750 
Q 2619 4750 2861 4703 
Q 3103 4656 3366 4563 
z
" transform="scale(0.015625)"/>
       </defs>
       <use xlink:href="#DejaVuSans-33"/>
       <use xlink:href="#DejaVuSans-38" x="63.623047"/>
       <use xlink:href="#DejaVuSans-36" x="127.246094"/>
       <use xlink:href="#DejaVuSans-30" x="190.869141"/>
       <use xlink:href="#DejaVuSans-30" x="254.492188"/>
       <use xlink:href="#DejaVuSans-30" x="318.115234"/>
      </g>
     </g>
    </g>
    <g id="xtick_9">
     <g id="line2d_9">
      <g>
       <use xlink:href="#m4c3dc7d715" x="599.837511" y="524.046582" style="stroke: #000000; stroke-width: 0.8"/>
      </g>
     </g>
     <g id="text_9">
      <!-- 386500 -->
      <g transform="translate(580.750011 538.64502) scale(0.1 -0.1)">
       <use xlink:href="#DejaVuSans-33"/>
       <use xlink:href="#DejaVuSans-38" x="63.623047"/>
       <use xlink:href="#DejaVuSans-36" x="127.246094"/>
       <use xlink:href="#DejaVuSans-35" x="190.869141"/>
       <use xlink:href="#DejaVuSans-30" x="254.492188"/>
       <use xlink:href="#DejaVuSans-30" x="318.115234"/>
      </g>
     </g>
    </g>
   </g>
   <g id="matplotlib.axis_2">
    <g id="ytick_1">
     <g id="line2d_10">
      <defs>
       <path id="mea92ed88fb" d="M 0 0 
L -3.5 0 
" style="stroke: #000000; stroke-width: 0.8"/>
      </defs>
      <g>
       <use xlink:href="#mea92ed88fb" x="90" y="479.366747" style="stroke: #000000; stroke-width: 0.8"/>
      </g>
     </g>
     <g id="text_10">
      <!-- 5.8215 -->
      <g transform="translate(48.009375 483.165965) scale(0.1 -0.1)">
       <defs>
        <path id="DejaVuSans-2e" d="M 684 794 
L 1344 794 
L 1344 0 
L 684 0 
L 684 794 
z
" transform="scale(0.015625)"/>
        <path id="DejaVuSans-31" d="M 794 531 
L 1825 531 
L 1825 4091 
L 703 3866 
L 703 4441 
L 1819 4666 
L 2450 4666 
L 2450 531 
L 3481 531 
L 3481 0 
L 794 0 
L 794 531 
z
" transform="scale(0.015625)"/>
       </defs>
       <use xlink:href="#DejaVuSans-35"/>
       <use xlink:href="#DejaVuSans-2e" x="63.623047"/>
       <use xlink:href="#DejaVuSans-38" x="95.410156"/>
       <use xlink:href="#DejaVuSans-32" x="159.033203"/>
       <use xlink:href="#DejaVuSans-31" x="222.65625"/>
       <use xlink:href="#DejaVuSans-35" x="286.279297"/>
      </g>
     </g>
    </g>
    <g id="ytick_2">
     <g id="line2d_11">
      <g>
       <use xlink:href="#mea92ed88fb" x="90" y="415.716581" style="stroke: #000000; stroke-width: 0.8"/>
      </g>
     </g>
     <g id="text_11">
      <!-- 5.8220 -->
      <g transform="translate(48.009375 419.515799) scale(0.1 -0.1)">
       <use xlink:href="#DejaVuSans-35"/>
       <use xlink:href="#DejaVuSans-2e" x="63.623047"/>
       <use xlink:href="#DejaVuSans-38" x="95.410156"/>
       <use xlink:href="#DejaVuSans-32" x="159.033203"/>
       <use xlink:href="#DejaVuSans-32" x="222.65625"/>
       <use xlink:href="#DejaVuSans-30" x="286.279297"/>
      </g>
     </g>
    </g>
    <g id="ytick_3">
     <g id="line2d_12">
      <g>
       <use xlink:href="#mea92ed88fb" x="90" y="352.066415" style="stroke: #000000; stroke-width: 0.8"/>
      </g>
     </g>
     <g id="text_12">
      <!-- 5.8225 -->
      <g transform="translate(48.009375 355.865634) scale(0.1 -0.1)">
       <use xlink:href="#DejaVuSans-35"/>
       <use xlink:href="#DejaVuSans-2e" x="63.623047"/>
       <use xlink:href="#DejaVuSans-38" x="95.410156"/>
       <use xlink:href="#DejaVuSans-32" x="159.033203"/>
       <use xlink:href="#DejaVuSans-32" x="222.65625"/>
       <use xlink:href="#DejaVuSans-35" x="286.279297"/>
      </g>
     </g>
    </g>
    <g id="ytick_4">
     <g id="line2d_13">
      <g>
       <use xlink:href="#mea92ed88fb" x="90" y="288.416249" style="stroke: #000000; stroke-width: 0.8"/>
      </g>
     </g>
     <g id="text_13">
      <!-- 5.8230 -->
      <g transform="translate(48.009375 292.215468) scale(0.1 -0.1)">
       <use xlink:href="#DejaVuSans-35"/>
       <use xlink:href="#DejaVuSans-2e" x="63.623047"/>
       <use xlink:href="#DejaVuSans-38" x="95.410156"/>
       <use xlink:href="#DejaVuSans-32" x="159.033203"/>
       <use xlink:href="#DejaVuSans-33" x="222.65625"/>
       <use xlink:href="#DejaVuSans-30" x="286.279297"/>
      </g>
     </g>
    </g>
    <g id="ytick_5">
     <g id="line2d_14">
      <g>
       <use xlink:href="#mea92ed88fb" x="90" y="224.766083" style="stroke: #000000; stroke-width: 0.8"/>
      </g>
     </g>
     <g id="text_14">
      <!-- 5.8235 -->
      <g transform="translate(48.009375 228.565302) scale(0.1 -0.1)">
       <use xlink:href="#DejaVuSans-35"/>
       <use xlink:href="#DejaVuSans-2e" x="63.623047"/>
       <use xlink:href="#DejaVuSans-38" x="95.410156"/>
       <use xlink:href="#DejaVuSans-32" x="159.033203"/>
       <use xlink:href="#DejaVuSans-33" x="222.65625"/>
       <use xlink:href="#DejaVuSans-35" x="286.279297"/>
      </g>
     </g>
    </g>
    <g id="text_15">
     <!-- 1e6 -->
     <g transform="translate(90 200.153418) scale(0.1 -0.1)">
      <defs>
       <path id="DejaVuSans-65" d="M 3597 1894 
L 3597 1613 
L 953 1613 
Q 991 1019 1311 708 
Q 1631 397 2203 397 
Q 2534 397 2845 478 
Q 3156 559 3463 722 
L 3463 178 
Q 3153 47 2828 -22 
Q 2503 -91 2169 -91 
Q 1331 -91 842 396 
Q 353 884 353 1716 
Q 353 2575 817 3079 
Q 1281 3584 2069 3584 
Q 2775 3584 3186 3129 
Q 3597 2675 3597 1894 
z
M 3022 2063 
Q 3016 2534 2758 2815 
Q 2500 3097 2075 3097 
Q 1594 3097 1305 2825 
Q 1016 2553 972 2059 
L 3022 2063 
z
" transform="scale(0.015625)"/>
      </defs>
      <use xlink:href="#DejaVuSans-31"/>
      <use xlink:href="#DejaVuSans-65" x="63.623047"/>
      <use xlink:href="#DejaVuSans-36" x="125.146484"/>
     </g>
    </g>
   </g>
   <g id="patch_3">
    <path d="M 90 524.046582 
L 90 203.153418 
" style="fill: none; stroke: #000000; stroke-width: 0.8; stroke-linejoin: miter; stroke-linecap: square"/>
   </g>
   <g id="patch_4">
    <path d="M 648 524.046582 
L 648 203.153418 
" style="fill: none; stroke: #000000; stroke-width: 0.8; stroke-linejoin: miter; stroke-linecap: square"/>
   </g>
   <g id="patch_5">
    <path d="M 90 524.046582 
L 648 524.046582 
" style="fill: none; stroke: #000000; stroke-width: 0.8; stroke-linejoin: miter; stroke-linecap: square"/>
   </g>
   <g id="patch_6">
    <path d="M 90 203.153418 
L 648 203.153418 
" style="fill: none; stroke: #000000; stroke-width: 0.8; stroke-linejoin: miter; stroke-linecap: square"/>
   </g>
   <g id="text_16">
    <!-- Charlottenburg_Nord -->
    <g transform="translate(282.094665 344.613113) scale(0.12 -0.12)">
     <defs>
      <path id="DejaVuSans-43" d="M 4122 4306 
L 4122 3641 
Q 3803 3938 3442 4084 
Q 3081 4231 2675 4231 
Q 1875 4231 1450 3742 
Q 1025 3253 1025 2328 
Q 1025 1406 1450 917 
Q 1875 428 2675 428 
Q 3081 428 3442 575 
Q 3803 722 4122 1019 
L 4122 359 
Q 3791 134 3420 21 
Q 3050 -91 2638 -91 
Q 1578 -91 968 557 
Q 359 1206 359 2328 
Q 359 3453 968 4101 
Q 1578 4750 2638 4750 
Q 3056 4750 3426 4639 
Q 3797 4528 4122 4306 
z
" transform="scale(0.015625)"/>
      <path id="DejaVuSans-68" d="M 3513 2113 
L 3513 0 
L 2938 0 
L 2938 2094 
Q 2938 2591 2744 2837 
Q 2550 3084 2163 3084 
Q 1697 3084 1428 2787 
Q 1159 2491 1159 1978 
L 1159 0 
L 581 0 
L 581 4863 
L 1159 4863 
L 1159 2956 
Q 1366 3272 1645 3428 
Q 1925 3584 2291 3584 
Q 2894 3584 3203 3211 
Q 3513 2838 3513 2113 
z
" transform="scale(0.015625)"/>
      <path id="DejaVuSans-61" d="M 2194 1759 
Q 1497 1759 1228 1600 
Q 959 1441 959 1056 
Q 959 750 1161 570 
Q 1363 391 1709 391 
Q 2188 391 2477 730 
Q 2766 1069 2766 1631 
L 2766 1759 
L 2194 1759 
z
M 3341 1997 
L 3341 0 
L 2766 0 
L 2766 531 
Q 2569 213 2275 61 
Q 1981 -91 1556 -91 
Q 1019 -91 701 211 
Q 384 513 384 1019 
Q 384 1609 779 1909 
Q 1175 2209 1959 2209 
L 2766 2209 
L 2766 2266 
Q 2766 2663 2505 2880 
Q 2244 3097 1772 3097 
Q 1472 3097 1187 3025 
Q 903 2953 641 2809 
L 641 3341 
Q 956 3463 1253 3523 
Q 1550 3584 1831 3584 
Q 2591 3584 2966 3190 
Q 3341 2797 3341 1997 
z
" transform="scale(0.015625)"/>
      <path id="DejaVuSans-72" d="M 2631 2963 
Q 2534 3019 2420 3045 
Q 2306 3072 2169 3072 
Q 1681 3072 1420 2755 
Q 1159 2438 1159 1844 
L 1159 0 
L 581 0 
L 581 3500 
L 1159 3500 
L 1159 2956 
Q 1341 3275 1631 3429 
Q 1922 3584 2338 3584 
Q 2397 3584 2469 3576 
Q 2541 3569 2628 3553 
L 2631 2963 
z
" transform="scale(0.015625)"/>
      <path id="DejaVuSans-6c" d="M 603 4863 
L 1178 4863 
L 1178 0 
L 603 0 
L 603 4863 
z
" transform="scale(0.015625)"/>
      <path id="DejaVuSans-6f" d="M 1959 3097 
Q 1497 3097 1228 2736 
Q 959 2375 959 1747 
Q 959 1119 1226 758 
Q 1494 397 1959 397 
Q 2419 397 2687 759 
Q 2956 1122 2956 1747 
Q 2956 2369 2687 2733 
Q 2419 3097 1959 3097 
z
M 1959 3584 
Q 2709 3584 3137 3096 
Q 3566 2609 3566 1747 
Q 3566 888 3137 398 
Q 2709 -91 1959 -91 
Q 1206 -91 779 398 
Q 353 888 353 1747 
Q 353 2609 779 3096 
Q 1206 3584 1959 3584 
z
" transform="scale(0.015625)"/>
      <path id="DejaVuSans-74" d="M 1172 4494 
L 1172 3500 
L 2356 3500 
L 2356 3053 
L 1172 3053 
L 1172 1153 
Q 1172 725 1289 603 
Q 1406 481 1766 481 
L 2356 481 
L 2356 0 
L 1766 0 
Q 1100 0 847 248 
Q 594 497 594 1153 
L 594 3053 
L 172 3053 
L 172 3500 
L 594 3500 
L 594 4494 
L 1172 4494 
z
" transform="scale(0.015625)"/>
      <path id="DejaVuSans-6e" d="M 3513 2113 
L 3513 0 
L 2938 0 
L 2938 2094 
Q 2938 2591 2744 2837 
Q 2550 3084 2163 3084 
Q 1697 3084 1428 2787 
Q 1159 2491 1159 1978 
L 1159 0 
L 581 0 
L 581 3500 
L 1159 3500 
L 1159 2956 
Q 1366 3272 1645 3428 
Q 1925 3584 2291 3584 
Q 2894 3584 3203 3211 
Q 3513 2838 3513 2113 
z
" transform="scale(0.015625)"/>
      <path id="DejaVuSans-62" d="M 3116 1747 
Q 3116 2381 2855 2742 
Q 2594 3103 2138 3103 
Q 1681 3103 1420 2742 
Q 1159 2381 1159 1747 
Q 1159 1113 1420 752 
Q 1681 391 2138 391 
Q 2594 391 2855 752 
Q 3116 1113 3116 1747 
z
M 1159 2969 
Q 1341 3281 1617 3432 
Q 1894 3584 2278 3584 
Q 2916 3584 3314 3078 
Q 3713 2572 3713 1747 
Q 3713 922 3314 415 
Q 2916 -91 2278 -91 
Q 1894 -91 1617 61 
Q 1341 213 1159 525 
L 1159 0 
L 581 0 
L 581 4863 
L 1159 4863 
L 1159 2969 
z
" transform="scale(0.015625)"/>
      <path id="DejaVuSans-75" d="M 544 1381 
L 544 3500 
L 1119 3500 
L 1119 1403 
Q 1119 906 1312 657 
Q 1506 409 1894 409 
Q 2359 409 2629 706 
Q 2900 1003 2900 1516 
L 2900 3500 
L 3475 3500 
L 3475 0 
L 2900 0 
L 2900 538 
Q 2691 219 2414 64 
Q 2138 -91 1772 -91 
Q 1169 -91 856 284 
Q 544 659 544 1381 
z
M 1991 3584 
L 1991 3584 
z
" transform="scale(0.015625)"/>
      <path id="DejaVuSans-67" d="M 2906 1791 
Q 2906 2416 2648 2759 
Q 2391 3103 1925 3103 
Q 1463 3103 1205 2759 
Q 947 2416 947 1791 
Q 947 1169 1205 825 
Q 1463 481 1925 481 
Q 2391 481 2648 825 
Q 2906 1169 2906 1791 
z
M 3481 434 
Q 3481 -459 3084 -895 
Q 2688 -1331 1869 -1331 
Q 1566 -1331 1297 -1286 
Q 1028 -1241 775 -1147 
L 775 -588 
Q 1028 -725 1275 -790 
Q 1522 -856 1778 -856 
Q 2344 -856 2625 -561 
Q 2906 -266 2906 331 
L 2906 616 
Q 2728 306 2450 153 
Q 2172 0 1784 0 
Q 1141 0 747 490 
Q 353 981 353 1791 
Q 353 2603 747 3093 
Q 1141 3584 1784 3584 
Q 2172 3584 2450 3431 
Q 2728 3278 2906 2969 
L 2906 3500 
L 3481 3500 
L 3481 434 
z
" transform="scale(0.015625)"/>
      <path id="DejaVuSans-5f" d="M 3263 -1063 
L 3263 -1509 
L -63 -1509 
L -63 -1063 
L 3263 -1063 
z
" transform="scale(0.015625)"/>
      <path id="DejaVuSans-4e" d="M 628 4666 
L 1478 4666 
L 3547 763 
L 3547 4666 
L 4159 4666 
L 4159 0 
L 3309 0 
L 1241 3903 
L 1241 0 
L 628 0 
L 628 4666 
z
" transform="scale(0.015625)"/>
      <path id="DejaVuSans-64" d="M 2906 2969 
L 2906 4863 
L 3481 4863 
L 3481 0 
L 2906 0 
L 2906 525 
Q 2725 213 2448 61 
Q 2172 -91 1784 -91 
Q 1150 -91 751 415 
Q 353 922 353 1747 
Q 353 2572 751 3078 
Q 1150 3584 1784 3584 
Q 2172 3584 2448 3432 
Q 2725 3281 2906 2969 
z
M 947 1747 
Q 947 1113 1208 752 
Q 1469 391 1925 391 
Q 2381 391 2643 752 
Q 2906 1113 2906 1747 
Q 2906 2381 2643 2742 
Q 2381 3103 1925 3103 
Q 1469 3103 1208 2742 
Q 947 2381 947 1747 
z
" transform="scale(0.015625)"/>
     </defs>
     <use xlink:href="#DejaVuSans-43"/>
     <use xlink:href="#DejaVuSans-68" x="69.824219"/>
     <use xlink:href="#DejaVuSans-61" x="133.203125"/>
     <use xlink:href="#DejaVuSans-72" x="194.482422"/>
     <use xlink:href="#DejaVuSans-6c" x="235.595703"/>
     <use xlink:href="#DejaVuSans-6f" x="263.378906"/>
     <use xlink:href="#DejaVuSans-74" x="324.560547"/>
     <use xlink:href="#DejaVuSans-74" x="363.769531"/>
     <use xlink:href="#DejaVuSans-65" x="402.978516"/>
     <use xlink:href="#DejaVuSans-6e" x="464.501953"/>
     <use xlink:href="#DejaVuSans-62" x="527.880859"/>
     <use xlink:href="#DejaVuSans-75" x="591.357422"/>
     <use xlink:href="#DejaVuSans-72" x="654.736328"/>
     <use xlink:href="#DejaVuSans-67" x="694.099609"/>
     <use xlink:href="#DejaVuSans-5f" x="757.576172"/>
     <use xlink:href="#DejaVuSans-4e" x="807.576172"/>
     <use xlink:href="#DejaVuSans-6f" x="882.380859"/>
     <use xlink:href="#DejaVuSans-72" x="943.5625"/>
     <use xlink:href="#DejaVuSans-64" x="982.925781"/>
    </g>
   </g>
  </g>
 </g>
 <defs>
  <clipPath id="p3cadc4002a">
   <rect x="90" y="203.153418" width="558" height="320.893164"/>
  </clipPath>
 </defs>
</svg>
