<?xml version="1.0" encoding="utf-8" standalone="no"?>
<!DOCTYPE svg PUBLIC "-//W3C//DTD SVG 1.1//EN"
  "http://www.w3.org/Graphics/SVG/1.1/DTD/svg11.dtd">
<svg xmlns:xlink="http://www.w3.org/1999/xlink" width="720pt" height="720pt" viewBox="0 0 720 720" xmlns="http://www.w3.org/2000/svg" version="1.1">
 <metadata>
  <rdf:RDF xmlns:dc="http://purl.org/dc/elements/1.1/" xmlns:cc="http://creativecommons.org/ns#" xmlns:rdf="http://www.w3.org/1999/02/22-rdf-syntax-ns#">
   <cc:Work>
    <dc:type rdf:resource="http://purl.org/dc/dcmitype/StillImage"/>
    <dc:date>2024-10-15T13:01:13.776002</dc:date>
    <dc:format>image/svg+xml</dc:format>
    <dc:creator>
     <cc:Agent>
      <dc:title>Matplotlib v3.9.2, https://matplotlib.org/</dc:title>
     </cc:Agent>
    </dc:creator>
   </cc:Work>
  </rdf:RDF>
 </metadata>
 <defs>
  <style type="text/css">*{stroke-linejoin: round; stroke-linecap: butt}</style>
 </defs>
 <g id="figure_1">
  <g id="patch_1">
   <path d="M 0 720 
L 720 720 
L 720 0 
L 0 0 
z
" style="fill: #ffffff"/>
  </g>
  <g id="axes_1">
   <g id="patch_2">
    <path d="M 184.947077 640.8 
L 553.052923 640.8 
L 553.052923 86.4 
L 184.947077 86.4 
z
" style="fill: #ffffff"/>
   </g>
   <g id="PatchCollection_1">
    <path d="M 473.734577 615.6 
L 476.229637 613.798938 
L 479.250007 611.64448 
L 482.25554 609.480668 
L 485.159043 607.390933 
L 486.383941 606.55921 
L 488.171887 605.308293 
L 489.360123 604.446897 
L 491.040341 603.26866 
L 492.739265 602.068597 
L 493.658826 601.420614 
L 495.902628 599.840062 
L 501.47848 597.114386 
L 501.751564 597.012248 
L 507.738332 595.460079 
L 514.681753 595.048303 
L 519.400617 596.03807 
L 521.444659 596.66455 
L 524.607592 597.645286 
L 530.681338 600.076376 
L 536.320839 590.361048 
L 527.031908 584.264079 
L 517.290992 578.204632 
L 514.890651 570.501629 
L 497.78583 559.251012 
L 495.592344 554.409045 
L 489.582568 549.448061 
L 483.826201 548.678051 
L 483.420553 548.218217 
L 480.866469 545.325357 
L 473.100033 536.527978 
L 415.18447 470.924679 
L 404.916524 459.294324 
L 399.138116 457.77613 
L 381.083114 453.030761 
L 381.069008 453.027054 
L 380.939562 452.992327 
L 380.116441 452.776226 
L 379.56178 452.630653 
L 379.344926 452.574101 
L 379.335034 452.571521 
L 378.721026 452.410466 
L 378.295274 452.298007 
L 376.903515 451.932139 
L 374.489304 451.297918 
L 374.260409 451.237711 
L 372.187338 450.692941 
L 372.500954 449.411061 
L 373.003041 447.539255 
L 373.772621 444.664243 
L 373.794016 444.668974 
L 374.538653 444.688433 
L 375.75366 439.477266 
L 375.929337 438.722738 
L 376.756006 435.162866 
L 377.08962 433.786697 
L 377.152945 433.28375 
L 378.338386 428.719167 
L 379.718427 423.424999 
L 379.80906 423.465424 
L 380.508542 420.826726 
L 380.705398 420.085422 
L 380.898922 419.347344 
L 381.147385 419.170377 
L 381.489492 418.93073 
L 381.51078 417.983968 
L 381.523789 417.41017 
L 381.620229 417.002265 
L 381.774725 416.347939 
L 382.054152 415.164971 
L 382.118983 414.887694 
L 385.150104 402.025561 
L 385.999996 400.073335 
L 386.786886 398.268295 
L 389.345271 393.811548 
L 392.143196 389.199121 
L 393.073616 387.64405 
L 393.083615 387.627063 
L 393.377878 387.133792 
L 392.68431 385.9004 
L 392.478422 385.535285 
L 392.827948 384.965249 
L 393.618708 383.673693 
L 393.965116 383.10785 
L 394.016722 383.043127 
L 394.066716 382.959375 
L 394.883709 381.589978 
L 395.163136 381.030587 
L 396.907754 378.434034 
L 397.6654 377.561564 
L 400.531058 374.26166 
L 400.730602 374.048138 
L 401.536522 373.347259 
L 404.090714 371.125713 
L 404.138235 370.752964 
L 404.236717 369.979944 
L 404.796109 369.563115 
L 404.561515 368.557114 
L 404.720957 367.708297 
L 405.015221 366.986668 
L 405.974992 366.425448 
L 409.037937 364.634493 
L 409.316504 364.482039 
L 407.294717 362.436814 
L 406.871652 362.008911 
L 412.586842 352.500224 
L 412.492015 351.586899 
L 413.435874 352.056194 
L 413.596499 351.784616 
L 414.124604 350.891933 
L 413.198162 350.472094 
L 413.371259 350.441237 
L 413.643697 350.392641 
L 417.281946 344.404691 
L 418.764446 341.989083 
L 424.672192 332.385676 
L 427.813407 324.995752 
L 429.391486 324.518824 
L 430.266429 323.955562 
L 431.057297 322.866237 
L 431.048051 322.789688 
L 430.172463 315.536629 
L 429.683277 311.484239 
L 429.485883 309.849392 
L 429.343106 308.666747 
L 428.721249 303.515141 
L 429.09303 303.455364 
L 429.007879 302.808564 
L 428.77135 302.767924 
L 428.361187 302.697611 
L 427.994244 298.976899 
L 427.934037 298.47621 
L 427.330887 293.468888 
L 427.088983 291.459465 
L 426.367246 291.318622 
L 425.766462 286.955734 
L 425.954288 285.389804 
L 426.212642 283.234701 
L 426.32166 282.325676 
L 426.327466 282.302131 
L 427.16908 278.917828 
L 428.110896 275.126911 
L 428.531058 273.440673 
L 429.404173 269.928 
L 430.19203 270.332142 
L 434.20894 272.391989 
L 438.184351 274.431623 
L 440.939593 275.8451 
L 441.792066 274.130371 
L 442.945575 271.814643 
L 441.791098 271.232673 
L 439.732327 270.19474 
L 435.481252 267.870626 
L 434.47138 266.549718 
L 434.298499 266.323618 
L 433.647291 264.836065 
L 433.209712 263.109617 
L 432.358637 259.751548 
L 430.898392 254.846148 
L 430.620578 254.021091 
L 430.33169 253.212376 
L 428.926277 249.312763 
L 428.896173 249.229548 
L 428.468915 248.044322 
L 427.800183 246.109083 
L 426.395952 242.355258 
L 425.461769 239.710647 
L 423.733924 234.819008 
L 423.675759 234.653115 
L 421.929529 229.668586 
L 418.381591 219.513529 
L 418.148503 218.804156 
L 414.956327 219.074875 
L 412.587164 214.39407 
L 411.840162 212.853727 
L 410.212949 209.500712 
L 411.166484 209.562424 
L 408.913114 205.708074 
L 406.525675 201.683315 
L 405.645248 201.777604 
L 405.055646 201.845983 
L 404.501737 199.832474 
L 403.515841 199.946331 
L 403.30705 199.614545 
L 402.686699 199.697115 
L 400.011876 200.0017 
L 399.847381 200.020408 
L 398.305749 200.195977 
L 398.173077 200.211029 
L 396.999355 200.344668 
L 396.140324 200.442505 
L 392.382306 200.869977 
L 392.382061 200.870005 
L 391.534456 200.964589 
L 387.658281 201.396147 
L 385.685735 201.615582 
L 382.998871 201.915974 
L 376.725688 202.614702 
L 367.366981 203.657904 
L 365.200482 203.899378 
L 355.539125 204.975586 
L 354.368091 205.105892 
L 344.997558 206.151028 
L 343.536668 206.313481 
L 343.16607 206.354874 
L 342.175012 206.464967 
L 338.823394 206.838791 
L 335.176226 207.245564 
L 334.928941 207.273144 
L 334.457066 207.325503 
L 333.926058 207.155202 
L 333.228297 206.931252 
L 331.722789 206.448948 
L 330.085792 205.923208 
L 328.503304 205.415853 
L 327.263139 205.018269 
L 324.339316 204.080968 
L 324.327489 204.077528 
L 324.018711 203.978078 
L 319.770647 202.61395 
L 319.424992 202.503211 
L 318.563166 202.227547 
L 318.218801 202.117669 
L 317.999796 202.047893 
L 317.475669 201.880494 
L 315.940488 201.388836 
L 315.296053 201.182088 
L 314.638072 200.970825 
L 312.564249 200.304028 
L 312.103769 200.156519 
L 311.101423 199.835377 
L 310.277657 199.571432 
L 309.453783 199.306305 
L 308.630016 199.042252 
L 307.316742 198.62166 
L 305.624268 198.078826 
L 302.884508 197.200012 
L 302.193413 196.978427 
L 299.082839 195.980704 
L 294.325807 194.454984 
L 293.705993 194.256192 
L 280.786986 190.092956 
L 281.791804 187.965161 
L 284.688534 181.829165 
L 285.266633 180.603943 
L 285.494023 180.121209 
L 287.403889 176.0757 
L 286.087835 175.45662 
L 284.831742 174.865746 
L 284.480173 173.96457 
L 283.90444 172.48809 
L 283.539217 171.551542 
L 281.892007 167.327561 
L 278.729719 159.219664 
L 278.158394 157.754904 
L 277.268077 155.471214 
L 276.877588 154.468223 
L 276.820821 154.322543 
L 276.499894 153.499314 
L 273.465225 145.719225 
L 271.141111 139.760302 
L 270.085331 137.053011 
L 267.731221 131.015497 
L 266.872297 128.81255 
L 264.605918 123.000706 
L 264.252307 122.093186 
L 261.765525 115.718188 
L 261.746065 115.668409 
L 261.430406 114.859264 
L 259.7947 111.6 
L 257.809252 112.24766 
L 254.150899 113.492233 
L 252.022136 114.216443 
L 249.532129 115.06354 
L 249.415155 115.103319 
L 248.595404 115.484275 
L 247.583559 115.954502 
L 247.325742 116.074272 
L 245.619184 116.866752 
L 244.193128 117.528496 
L 243.376135 117.907373 
L 243.124232 118.024025 
L 242.33831 118.387634 
L 241.351876 118.843491 
L 241.08449 118.967023 
L 240.104077 119.420192 
L 238.848107 120.001516 
L 233.818852 122.331113 
L 233.474057 122.490878 
L 228.422976 124.831119 
L 222.866584 127.404449 
L 224.320055 130.750799 
L 224.816552 131.989352 
L 227.079383 137.633583 
L 227.222268 137.990204 
L 227.768543 139.378415 
L 227.916911 139.755464 
L 228.9585 142.474474 
L 229.619276 144.149423 
L 229.807747 144.631298 
L 229.910315 144.893523 
L 230.2564 145.82706 
L 232.356456 151.167996 
L 232.928642 152.622651 
L 233.662312 154.500047 
L 234.200416 155.881915 
L 234.793889 157.394304 
L 235.499284 159.192141 
L 236.203388 160.994278 
L 236.905235 162.790609 
L 237.610199 164.592317 
L 238.315056 166.394131 
L 239.020451 168.196914 
L 239.725307 169.998621 
L 240.433605 171.799038 
L 241.14244 173.619452 
L 242.284983 176.504678 
L 243.884888 178.925446 
L 247.518406 188.202873 
L 247.959855 189.330257 
L 251.362757 198.019371 
L 251.872478 199.321356 
L 252.03235 201.427219 
L 252.933849 203.719186 
L 253.566027 205.326294 
L 254.183583 206.89631 
L 254.805869 208.478153 
L 255.363218 209.895178 
L 255.446218 210.113107 
L 256.061302 211.729569 
L 256.686599 213.330334 
L 257.332754 214.944215 
L 257.968372 216.531863 
L 259.553225 220.490072 
L 258.327036 223.054048 
L 258.478737 225.535991 
L 258.731286 226.330944 
L 260.106811 227.427794 
L 261.640702 228.288008 
L 261.917764 229.605368 
L 262.365342 231.808422 
L 263.250498 236.18862 
L 263.632385 238.217825 
L 264.055773 240.223055 
L 264.474429 242.178398 
L 264.544313 242.190977 
L 266.486491 252.827026 
L 266.711475 257.288328 
L 265.141119 262.583662 
L 264.912546 263.354424 
L 262.06925 272.952025 
L 261.828743 272.878594 
L 261.476994 274.062963 
L 260.77436 276.428789 
L 261.429546 276.630484 
L 260.685017 279.149089 
L 259.953712 281.618561 
L 259.8777 281.875303 
L 259.581178 282.877112 
L 259.270357 283.926333 
L 259.200689 284.161895 
L 259.032968 284.728705 
L 258.47906 286.599113 
L 257.936978 288.430171 
L 256.858083 292.075516 
L 256.530705 293.180967 
L 255.834449 295.500136 
L 255.084759 298.027772 
L 254.835866 298.8653 
L 254.770605 299.084735 
L 254.532571 299.885494 
L 253.377986 303.777151 
L 253.307027 304.016153 
L 253.196719 304.388149 
L 252.932989 305.278036 
L 252.8616 305.519188 
L 252.695814 306.07858 
L 252.189857 307.774494 
L 252.022136 308.344422 
L 251.938061 308.630515 
L 251.688845 309.477396 
L 251.423502 310.370939 
L 251.343405 310.641012 
L 251.184715 311.176966 
L 250.385139 313.872968 
L 250.25236 314.281089 
L 249.94197 315.356436 
L 249.808761 315.772835 
L 249.747156 315.980336 
L 248.829315 319.067256 
L 248.34056 320.714575 
L 247.858685 322.349206 
L 247.392615 323.930941 
L 246.693242 326.26957 
L 246.1503 328.112454 
L 244.793375 332.664458 
L 244.245487 334.533791 
L 243.524073 336.926069 
L 243.147454 338.177845 
L 242.139195 341.614829 
L 240.140846 348.390422 
L 239.255582 351.367464 
L 237.840385 354.823693 
L 237.45839 355.751747 
L 239.900554 356.897946 
L 238.780857 359.625654 
L 238.757903 359.681572 
L 238.694255 359.835101 
L 234.242669 370.615132 
L 234.241105 370.619406 
L 233.684998 372.138703 
L 233.218283 373.279096 
L 233.421805 373.770969 
L 233.656399 373.869021 
L 233.576087 374.031474 
L 233.387078 374.340574 
L 233.279028 374.486147 
L 233.162591 374.625054 
L 233.037983 374.756651 
L 232.905742 374.880613 
L 232.766297 374.996513 
L 232.458594 375.210572 
L 232.328336 375.28075 
L 231.475868 377.184464 
L 232.704378 377.795558 
L 232.319353 378.61315 
L 232.194649 378.877956 
L 228.911947 385.532919 
L 227.571579 388.250317 
L 226.079832 391.271439 
L 225.878245 391.679882 
L 220.310241 402.716333 
L 218.303506 406.696904 
L 218.008705 407.281454 
L 217.737449 407.817192 
L 217.078177 409.115952 
L 217.497479 409.318722 
L 216.93927 410.449654 
L 215.227874 412.713131 
L 214.263265 413.886315 
L 211.712836 416.988395 
L 211.802717 417.06645 
L 211.700923 417.187494 
L 211.686173 417.205035 
L 211.56737 417.348995 
L 206.138596 423.697975 
L 201.784524 429.206632 
L 201.679161 429.329197 
L 202.250379 429.779785 
L 205.399227 432.377951 
L 206.641436 433.399219 
L 207.543364 434.140845 
L 210.222595 436.079847 
L 211.41825 436.945114 
L 213.432403 438.214953 
L 220.85071 442.397326 
L 221.441926 442.723629 
L 222.011208 443.037782 
L 225.354763 444.883032 
L 224.990723 445.278359 
L 226.36614 445.773672 
L 227.344941 446.610448 
L 228.692942 447.762775 
L 229.228251 447.169409 
L 229.295661 447.09458 
L 233.960662 449.779724 
L 234.510592 450.264286 
L 236.683112 452.178129 
L 237.396678 452.806867 
L 237.911774 453.260573 
L 237.771147 453.423456 
L 238.503097 454.049075 
L 238.924549 455.010674 
L 238.757258 456.455544 
L 237.950156 457.405639 
L 240.726686 459.567623 
L 242.285521 457.727104 
L 242.54022 457.426282 
L 242.60462 457.483371 
L 244.057339 456.958491 
L 244.561899 456.829368 
L 245.782927 456.779482 
L 245.820557 456.736692 
L 245.865712 456.70175 
L 245.916673 456.676054 
L 245.971613 456.660572 
L 246.02838 456.655842 
L 246.085147 456.66197 
L 246.139656 456.678742 
L 246.498428 456.86517 
L 247.114156 456.754324 
L 248.450223 457.727856 
L 248.48452 458.24134 
L 248.661487 458.542484 
L 248.964029 458.870722 
L 250.525444 460.627166 
L 250.596188 460.706726 
L 251.756148 462.001616 
L 252.302638 462.625838 
L 252.329839 462.605948 
L 252.316938 462.550363 
L 252.315755 462.493381 
L 252.326399 462.437367 
L 252.348331 462.384686 
L 252.3808 462.33781 
L 252.422193 462.298567 
L 252.470789 462.268786 
L 252.521213 462.250509 
L 252.574217 462.242445 
L 252.627758 462.244811 
L 252.679795 462.257605 
L 252.728391 462.28029 
L 252.871813 462.371139 
L 253.508937 463.015466 
L 253.771377 463.065567 
L 254.886504 464.231656 
L 256.077536 465.314314 
L 256.396313 466.920025 
L 256.325462 467.141179 
L 256.005825 467.387815 
L 255.929168 467.799161 
L 256.005825 467.89732 
L 260.56901 473.756578 
L 262.458771 473.650462 
L 265.796735 473.463067 
L 272.851109 475.892329 
L 273.082371 475.266816 
L 275.550445 476.125417 
L 282.130149 478.41459 
L 296.716042 483.513513 
L 303.590332 485.915789 
L 304.814156 486.344337 
L 305.061759 486.44368 
L 305.269474 486.544312 
L 312.495978 491.399073 
L 320.528831 496.816236 
L 322.645229 498.243259 
L 325.218774 499.153359 
L 325.323062 499.190989 
L 328.951957 500.55845 
L 328.953202 500.558903 
L 330.68034 501.187725 
L 330.839567 501.247825 
L 331.260912 500.762618 
L 331.803854 500.137643 
L 332.168969 500.35224 
L 332.676324 500.651449 
L 333.230877 500.976462 
L 335.025918 502.398324 
L 335.304543 502.613654 
L 335.767545 502.971478 
L 335.732388 503.01158 
L 336.285759 503.475822 
L 336.264686 503.507646 
L 336.488908 503.706113 
L 337.178226 504.316253 
L 337.312618 504.484404 
L 337.4111 504.67438 
L 337.479263 504.87887 
L 337.516033 505.090241 
L 337.519473 505.3043 
L 337.438193 505.509113 
L 337.337883 505.697476 
L 337.216286 505.873583 
L 335.568215 508.021375 
L 333.293772 510.948424 
L 331.464864 513.276623 
L 331.441426 513.267485 
L 331.592913 514.865239 
L 332.492368 515.551066 
L 332.920594 515.894141 
L 338.89188 520.677298 
L 348.735471 526.929732 
L 359.374983 533.749513 
L 360.913068 534.394485 
L 362.353638 534.987528 
L 369.425752 537.963602 
L 369.770763 538.104875 
L 373.111199 540.080216 
L 373.327194 540.205576 
L 387.971574 548.700736 
L 397.356836 551.434906 
L 408.063652 554.55193 
L 419.956231 563.26717 
L 424.891949 567.801541 
L 426.232209 569.416283 
L 431.454128 575.708174 
L 435.584358 581.546574 
L 435.950763 582.064572 
L 436.155898 582.694923 
L 437.032024 589.123678 
L 437.165233 589.916373 
L 437.366712 590.976884 
L 437.605392 592.034277 
L 437.908687 593.086079 
L 438.281005 594.131645 
L 438.52205 594.789734 
L 438.993603 595.834763 
L 441.108819 600.421386 
L 442.089232 602.547246 
L 442.41317 603.134698 
L 445.96616 595.412666 
L 447.066343 593.204774 
L 448.41456 592.611408 
L 449.989736 592.499487 
L 451.602113 592.427775 
L 453.050316 592.540772 
L 453.682924 592.67054 
L 456.042948 593.203053 
L 456.640076 593.380235 
L 458.957525 594.204539 
L 459.454666 594.378281 
L 461.806518 595.254191 
L 463.532644 595.907872 
L 464.848391 596.406303 
L 467.513967 598.75493 
L 468.077767 600.158086 
L 468.363967 600.9396 
L 473.734577 615.6 
" clip-path="url(#p67136ba61c)" style="fill: #d3d3d3"/>
   </g>
   <g id="PatchCollection_2">
    <path d="M 270.687283 165.647314 
L 270.687283 165.5398 
L 270.57977 165.5398 
L 270.57977 165.647314 
L 270.687283 165.647314 
" clip-path="url(#p67136ba61c)" style="fill: #ff0000; fill-opacity: 0.7; stroke: #000000; stroke-opacity: 0.7; stroke-width: 0.5"/>
    <path d="M 301.083417 313.431776 
L 301.083417 313.324263 
L 300.975903 313.324263 
L 300.975903 313.431776 
L 301.083417 313.431776 
" clip-path="url(#p67136ba61c)" style="fill: #ff0000; fill-opacity: 0.7; stroke: #000000; stroke-opacity: 0.7; stroke-width: 0.5"/>
    <path d="M 280.466252 303.294926 
L 280.466252 303.187413 
L 280.358738 303.187413 
L 280.358738 303.294926 
L 280.466252 303.294926 
" clip-path="url(#p67136ba61c)" style="fill: #ff0000; fill-opacity: 0.7; stroke: #000000; stroke-opacity: 0.7; stroke-width: 0.5"/>
    <path d="M 286.388606 301.784521 
L 286.388606 301.677008 
L 286.281092 301.677008 
L 286.281092 301.784521 
L 286.388606 301.784521 
" clip-path="url(#p67136ba61c)" style="fill: #ff0000; fill-opacity: 0.7; stroke: #000000; stroke-opacity: 0.7; stroke-width: 0.5"/>
    <path d="M 302.706701 306.465475 
L 302.706701 306.357962 
L 302.599188 306.357962 
L 302.599188 306.465475 
L 302.706701 306.465475 
" clip-path="url(#p67136ba61c)" style="fill: #ff0000; fill-opacity: 0.7; stroke: #000000; stroke-opacity: 0.7; stroke-width: 0.5"/>
    <path d="M 301.000849 282.712424 
L 301.000849 282.604911 
L 300.893335 282.604911 
L 300.893335 282.712424 
L 301.000849 282.712424 
" clip-path="url(#p67136ba61c)" style="fill: #ff0000; fill-opacity: 0.7; stroke: #000000; stroke-opacity: 0.7; stroke-width: 0.5"/>
    <path d="M 254.647812 319.846731 
L 254.647812 319.739218 
L 254.540299 319.739218 
L 254.540299 319.846731 
L 254.647812 319.846731 
" clip-path="url(#p67136ba61c)" style="fill: #ff0000; fill-opacity: 0.7; stroke: #000000; stroke-opacity: 0.7; stroke-width: 0.5"/>
    <path d="M 304.318925 277.611727 
L 304.318925 277.504214 
L 304.211412 277.504214 
L 304.211412 277.611727 
L 304.318925 277.611727 
" clip-path="url(#p67136ba61c)" style="fill: #ff0000; fill-opacity: 0.7; stroke: #000000; stroke-opacity: 0.7; stroke-width: 0.5"/>
    <path d="M 412.564629 284.921051 
L 412.564629 284.813538 
L 412.457116 284.813538 
L 412.457116 284.921051 
L 412.564629 284.921051 
" clip-path="url(#p67136ba61c)" style="fill: #ff0000; fill-opacity: 0.7; stroke: #000000; stroke-opacity: 0.7; stroke-width: 0.5"/>
    <path d="M 377.621601 390.851423 
L 377.621601 390.74391 
L 377.514088 390.74391 
L 377.514088 390.851423 
L 377.621601 390.851423 
" clip-path="url(#p67136ba61c)" style="fill: #ff0000; fill-opacity: 0.7; stroke: #000000; stroke-opacity: 0.7; stroke-width: 0.5"/>
    <path d="M 303.869445 296.110685 
L 303.869445 296.003171 
L 303.761931 296.003171 
L 303.761931 296.110685 
L 303.869445 296.110685 
" clip-path="url(#p67136ba61c)" style="fill: #ff0000; fill-opacity: 0.7; stroke: #000000; stroke-opacity: 0.7; stroke-width: 0.5"/>
    <path d="M 396.401868 273.906076 
L 396.401868 273.798563 
L 396.294355 273.798563 
L 396.294355 273.906076 
L 396.401868 273.906076 
" clip-path="url(#p67136ba61c)" style="fill: #ff0000; fill-opacity: 0.7; stroke: #000000; stroke-opacity: 0.7; stroke-width: 0.5"/>
    <path d="M 257.352326 310.760799 
L 257.352326 310.653286 
L 257.244813 310.653286 
L 257.244813 310.760799 
L 257.352326 310.760799 
" clip-path="url(#p67136ba61c)" style="fill: #ff0000; fill-opacity: 0.7; stroke: #000000; stroke-opacity: 0.7; stroke-width: 0.5"/>
    <path d="M 304.318925 277.611727 
L 304.318925 277.504214 
L 304.211412 277.504214 
L 304.211412 277.611727 
L 304.318925 277.611727 
" clip-path="url(#p67136ba61c)" style="fill: #ff0000; fill-opacity: 0.7; stroke: #000000; stroke-opacity: 0.7; stroke-width: 0.5"/>
    <path d="M 358.015948 234.633859 
L 358.015948 234.526346 
L 357.908434 234.526346 
L 357.908434 234.633859 
L 358.015948 234.633859 
" clip-path="url(#p67136ba61c)" style="fill: #ff0000; fill-opacity: 0.7; stroke: #000000; stroke-opacity: 0.7; stroke-width: 0.5"/>
    <path d="M 326.887369 243.961597 
L 326.887369 243.854083 
L 326.779856 243.854083 
L 326.779856 243.961597 
L 326.887369 243.961597 
" clip-path="url(#p67136ba61c)" style="fill: #ff0000; fill-opacity: 0.7; stroke: #000000; stroke-opacity: 0.7; stroke-width: 0.5"/>
    <path d="M 307.437254 322.293448 
L 307.437254 322.185935 
L 307.32974 322.185935 
L 307.32974 322.293448 
L 307.437254 322.293448 
" clip-path="url(#p67136ba61c)" style="fill: #ff0000; fill-opacity: 0.7; stroke: #000000; stroke-opacity: 0.7; stroke-width: 0.5"/>
    <path d="M 320.81358 306.106241 
L 320.81358 305.998727 
L 320.706067 305.998727 
L 320.706067 306.106241 
L 320.81358 306.106241 
" clip-path="url(#p67136ba61c)" style="fill: #ff0000; fill-opacity: 0.7; stroke: #000000; stroke-opacity: 0.7; stroke-width: 0.5"/>
    <path d="M 373.052582 232.577785 
L 373.052582 232.470271 
L 372.945069 232.470271 
L 372.945069 232.577785 
L 373.052582 232.577785 
" clip-path="url(#p67136ba61c)" style="fill: #ff0000; fill-opacity: 0.7; stroke: #000000; stroke-opacity: 0.7; stroke-width: 0.5"/>
    <path d="M 377.100766 323.580452 
L 377.100766 323.472939 
L 376.993252 323.472939 
L 376.993252 323.580452 
L 377.100766 323.580452 
" clip-path="url(#p67136ba61c)" style="fill: #ff0000; fill-opacity: 0.7; stroke: #000000; stroke-opacity: 0.7; stroke-width: 0.5"/>
    <path d="M 295.04336 318.75004 
L 295.04336 318.642527 
L 294.935846 318.642527 
L 294.935846 318.75004 
L 295.04336 318.75004 
" clip-path="url(#p67136ba61c)" style="fill: #ff0000; fill-opacity: 0.7; stroke: #000000; stroke-opacity: 0.7; stroke-width: 0.5"/>
    <path d="M 385.284872 370.012648 
L 385.284872 369.905135 
L 385.177359 369.905135 
L 385.177359 370.012648 
L 385.284872 370.012648 
" clip-path="url(#p67136ba61c)" style="fill: #ff0000; fill-opacity: 0.7; stroke: #000000; stroke-opacity: 0.7; stroke-width: 0.5"/>
    <path d="M 254.647812 319.846731 
L 254.647812 319.739218 
L 254.540299 319.739218 
L 254.540299 319.846731 
L 254.647812 319.846731 
" clip-path="url(#p67136ba61c)" style="fill: #ff0000; fill-opacity: 0.7; stroke: #000000; stroke-opacity: 0.7; stroke-width: 0.5"/>
    <path d="M 252.176191 346.657815 
L 252.176191 346.550302 
L 252.068678 346.550302 
L 252.068678 346.657815 
L 252.176191 346.657815 
" clip-path="url(#p67136ba61c)" style="fill: #ff0000; fill-opacity: 0.7; stroke: #000000; stroke-opacity: 0.7; stroke-width: 0.5"/>
    <path d="M 268.425215 299.747377 
L 268.425215 299.639863 
L 268.317702 299.639863 
L 268.317702 299.747377 
L 268.425215 299.747377 
" clip-path="url(#p67136ba61c)" style="fill: #ff0000; fill-opacity: 0.7; stroke: #000000; stroke-opacity: 0.7; stroke-width: 0.5"/>
    <path d="M 326.856697 316.579178 
L 326.856697 316.471665 
L 326.749183 316.471665 
L 326.749183 316.579178 
L 326.856697 316.579178 
" clip-path="url(#p67136ba61c)" style="fill: #ff0000; fill-opacity: 0.7; stroke: #000000; stroke-opacity: 0.7; stroke-width: 0.5"/>
    <path d="M 252.176191 346.657815 
L 252.176191 346.550302 
L 252.068678 346.550302 
L 252.068678 346.657815 
L 252.176191 346.657815 
" clip-path="url(#p67136ba61c)" style="fill: #ff0000; fill-opacity: 0.7; stroke: #000000; stroke-opacity: 0.7; stroke-width: 0.5"/>
    <path d="M 315.588277 263.53198 
L 315.588277 263.424467 
L 315.480763 263.424467 
L 315.480763 263.53198 
L 315.588277 263.53198 
" clip-path="url(#p67136ba61c)" style="fill: #ff0000; fill-opacity: 0.7; stroke: #000000; stroke-opacity: 0.7; stroke-width: 0.5"/>
    <path d="M 305.141813 333.441948 
L 305.141813 333.334435 
L 305.0343 333.334435 
L 305.0343 333.441948 
L 305.141813 333.441948 
" clip-path="url(#p67136ba61c)" style="fill: #ff0000; fill-opacity: 0.7; stroke: #000000; stroke-opacity: 0.7; stroke-width: 0.5"/>
    <path d="M 358.937636 242.088573 
L 358.937636 241.98106 
L 358.830123 241.98106 
L 358.830123 242.088573 
L 358.937636 242.088573 
" clip-path="url(#p67136ba61c)" style="fill: #ff0000; fill-opacity: 0.7; stroke: #000000; stroke-opacity: 0.7; stroke-width: 0.5"/>
    <path d="M 321.754221 235.822526 
L 321.754221 235.715012 
L 321.646708 235.715012 
L 321.646708 235.822526 
L 321.754221 235.822526 
" clip-path="url(#p67136ba61c)" style="fill: #ff0000; fill-opacity: 0.7; stroke: #000000; stroke-opacity: 0.7; stroke-width: 0.5"/>
    <path d="M 272.006829 328.050311 
L 272.006829 327.942798 
L 271.899315 327.942798 
L 271.899315 328.050311 
L 272.006829 328.050311 
" clip-path="url(#p67136ba61c)" style="fill: #ff0000; fill-opacity: 0.7; stroke: #000000; stroke-opacity: 0.7; stroke-width: 0.5"/>
    <path d="M 384.537369 379.522697 
L 384.537369 379.415184 
L 384.429856 379.415184 
L 384.429856 379.522697 
L 384.537369 379.522697 
" clip-path="url(#p67136ba61c)" style="fill: #ff0000; fill-opacity: 0.7; stroke: #000000; stroke-opacity: 0.7; stroke-width: 0.5"/>
    <path d="M 262.421371 147.968176 
L 262.421371 147.860663 
L 262.313858 147.860663 
L 262.313858 147.968176 
L 262.421371 147.968176 
" clip-path="url(#p67136ba61c)" style="fill: #ff0000; fill-opacity: 0.7; stroke: #000000; stroke-opacity: 0.7; stroke-width: 0.5"/>
    <path d="M 282.285779 339.241845 
L 282.285779 339.134332 
L 282.178266 339.134332 
L 282.178266 339.241845 
L 282.285779 339.241845 
" clip-path="url(#p67136ba61c)" style="fill: #ff0000; fill-opacity: 0.7; stroke: #000000; stroke-opacity: 0.7; stroke-width: 0.5"/>
    <path d="M 302.138369 310.114183 
L 302.138369 310.00667 
L 302.030856 310.00667 
L 302.030856 310.114183 
L 302.138369 310.114183 
" clip-path="url(#p67136ba61c)" style="fill: #ff0000; fill-opacity: 0.7; stroke: #000000; stroke-opacity: 0.7; stroke-width: 0.5"/>
    <path d="M 379.472475 221.589881 
L 379.472475 221.482368 
L 379.364962 221.482368 
L 379.364962 221.589881 
L 379.472475 221.589881 
" clip-path="url(#p67136ba61c)" style="fill: #ff0000; fill-opacity: 0.7; stroke: #000000; stroke-opacity: 0.7; stroke-width: 0.5"/>
    <path d="M 304.023283 292.893686 
L 304.023283 292.786173 
L 303.91577 292.786173 
L 303.91577 292.893686 
L 304.023283 292.893686 
" clip-path="url(#p67136ba61c)" style="fill: #ff0000; fill-opacity: 0.7; stroke: #000000; stroke-opacity: 0.7; stroke-width: 0.5"/>
    <path d="M 252.176191 346.657815 
L 252.176191 346.550302 
L 252.068678 346.550302 
L 252.068678 346.657815 
L 252.176191 346.657815 
" clip-path="url(#p67136ba61c)" style="fill: #ff0000; fill-opacity: 0.7; stroke: #000000; stroke-opacity: 0.7; stroke-width: 0.5"/>
    <path d="M 368.780808 257.240986 
L 368.780808 257.133473 
L 368.673295 257.133473 
L 368.673295 257.240986 
L 368.780808 257.240986 
" clip-path="url(#p67136ba61c)" style="fill: #ff0000; fill-opacity: 0.7; stroke: #000000; stroke-opacity: 0.7; stroke-width: 0.5"/>
    <path d="M 253.520891 323.66189 
L 253.520891 323.554377 
L 253.413378 323.554377 
L 253.413378 323.66189 
L 253.520891 323.66189 
" clip-path="url(#p67136ba61c)" style="fill: #ff0000; fill-opacity: 0.7; stroke: #000000; stroke-opacity: 0.7; stroke-width: 0.5"/>
    <path d="M 348.098568 275.464972 
L 348.098568 275.357459 
L 347.991055 275.357459 
L 347.991055 275.464972 
L 348.098568 275.464972 
" clip-path="url(#p67136ba61c)" style="fill: #ff0000; fill-opacity: 0.7; stroke: #000000; stroke-opacity: 0.7; stroke-width: 0.5"/>
    <path d="M 286.850392 313.135632 
L 286.850392 313.028119 
L 286.742878 313.028119 
L 286.742878 313.135632 
L 286.850392 313.135632 
" clip-path="url(#p67136ba61c)" style="fill: #ff0000; fill-opacity: 0.7; stroke: #000000; stroke-opacity: 0.7; stroke-width: 0.5"/>
    <path d="M 296.261881 307.891279 
L 296.261881 307.783766 
L 296.154368 307.783766 
L 296.154368 307.891279 
L 296.261881 307.891279 
" clip-path="url(#p67136ba61c)" style="fill: #ff0000; fill-opacity: 0.7; stroke: #000000; stroke-opacity: 0.7; stroke-width: 0.5"/>
    <path d="M 367.515927 389.857284 
L 367.515927 389.749771 
L 367.408414 389.749771 
L 367.408414 389.857284 
L 367.515927 389.857284 
" clip-path="url(#p67136ba61c)" style="fill: #ff0000; fill-opacity: 0.7; stroke: #000000; stroke-opacity: 0.7; stroke-width: 0.5"/>
    <path d="M 259.346497 304.038779 
L 259.346497 303.931265 
L 259.238984 303.931265 
L 259.238984 304.038779 
L 259.346497 304.038779 
" clip-path="url(#p67136ba61c)" style="fill: #ff0000; fill-opacity: 0.7; stroke: #000000; stroke-opacity: 0.7; stroke-width: 0.5"/>
    <path d="M 267.772434 346.590682 
L 267.772434 346.483169 
L 267.66492 346.483169 
L 267.66492 346.590682 
L 267.772434 346.590682 
" clip-path="url(#p67136ba61c)" style="fill: #ff0000; fill-opacity: 0.7; stroke: #000000; stroke-opacity: 0.7; stroke-width: 0.5"/>
    <path d="M 300.289165 315.926966 
L 300.289165 315.819452 
L 300.181652 315.819452 
L 300.181652 315.926966 
L 300.289165 315.926966 
" clip-path="url(#p67136ba61c)" style="fill: #ff0000; fill-opacity: 0.7; stroke: #000000; stroke-opacity: 0.7; stroke-width: 0.5"/>
    <path d="M 263.22272 405.013942 
L 263.22272 404.906429 
L 263.115207 404.906429 
L 263.115207 405.013942 
L 263.22272 405.013942 
" clip-path="url(#p67136ba61c)" style="fill: #ff0000; fill-opacity: 0.7; stroke: #000000; stroke-opacity: 0.7; stroke-width: 0.5"/>
    <path d="M 307.922452 337.94506 
L 307.922452 337.837547 
L 307.814939 337.837547 
L 307.814939 337.94506 
L 307.922452 337.94506 
" clip-path="url(#p67136ba61c)" style="fill: #ff0000; fill-opacity: 0.7; stroke: #000000; stroke-opacity: 0.7; stroke-width: 0.5"/>
    <path d="M 355.475962 378.270714 
L 355.475962 378.163201 
L 355.368448 378.163201 
L 355.368448 378.270714 
L 355.475962 378.270714 
" clip-path="url(#p67136ba61c)" style="fill: #ff0000; fill-opacity: 0.7; stroke: #000000; stroke-opacity: 0.7; stroke-width: 0.5"/>
    <path d="M 374.935551 366.379493 
L 374.935551 366.27198 
L 374.828038 366.27198 
L 374.828038 366.379493 
L 374.935551 366.379493 
" clip-path="url(#p67136ba61c)" style="fill: #ff0000; fill-opacity: 0.7; stroke: #000000; stroke-opacity: 0.7; stroke-width: 0.5"/>
    <path d="M 388.270687 366.693344 
L 388.270687 366.58583 
L 388.163173 366.58583 
L 388.163173 366.693344 
L 388.270687 366.693344 
" clip-path="url(#p67136ba61c)" style="fill: #ff0000; fill-opacity: 0.7; stroke: #000000; stroke-opacity: 0.7; stroke-width: 0.5"/>
    <path d="M 380.169003 370.155647 
L 380.169003 370.048134 
L 380.061489 370.048134 
L 380.061489 370.155647 
L 380.169003 370.155647 
" clip-path="url(#p67136ba61c)" style="fill: #ff0000; fill-opacity: 0.7; stroke: #000000; stroke-opacity: 0.7; stroke-width: 0.5"/>
    <path d="M 340.917149 473.636057 
L 340.917149 473.528544 
L 340.809635 473.528544 
L 340.809635 473.636057 
L 340.917149 473.636057 
" clip-path="url(#p67136ba61c)" style="fill: #ff0000; fill-opacity: 0.7; stroke: #000000; stroke-opacity: 0.7; stroke-width: 0.5"/>
    <path d="M 313.67146 269.693012 
L 313.67146 269.585499 
L 313.563947 269.585499 
L 313.563947 269.693012 
L 313.67146 269.693012 
" clip-path="url(#p67136ba61c)" style="fill: #ff0000; fill-opacity: 0.7; stroke: #000000; stroke-opacity: 0.7; stroke-width: 0.5"/>
    <path d="M 255.197715 146.702502 
L 255.197715 146.594989 
L 255.090202 146.594989 
L 255.090202 146.702502 
L 255.197715 146.702502 
" clip-path="url(#p67136ba61c)" style="fill: #ff0000; fill-opacity: 0.7; stroke: #000000; stroke-opacity: 0.7; stroke-width: 0.5"/>
    <path d="M 266.461532 280.043921 
L 266.461532 279.936407 
L 266.354019 279.936407 
L 266.354019 280.043921 
L 266.461532 280.043921 
" clip-path="url(#p67136ba61c)" style="fill: #ff0000; fill-opacity: 0.7; stroke: #000000; stroke-opacity: 0.7; stroke-width: 0.5"/>
    <path d="M 322.570449 262.708053 
L 322.570449 262.60054 
L 322.462936 262.60054 
L 322.462936 262.708053 
L 322.570449 262.708053 
" clip-path="url(#p67136ba61c)" style="fill: #ff0000; fill-opacity: 0.7; stroke: #000000; stroke-opacity: 0.7; stroke-width: 0.5"/>
    <path d="M 258.717706 413.248969 
L 258.717706 413.141456 
L 258.610193 413.141456 
L 258.610193 413.248969 
L 258.717706 413.248969 
" clip-path="url(#p67136ba61c)" style="fill: #ff0000; fill-opacity: 0.7; stroke: #000000; stroke-opacity: 0.7; stroke-width: 0.5"/>
    <path d="M 351.595197 372.835408 
L 351.595197 372.727895 
L 351.487683 372.727895 
L 351.487683 372.835408 
L 351.595197 372.835408 
" clip-path="url(#p67136ba61c)" style="fill: #ff0000; fill-opacity: 0.7; stroke: #000000; stroke-opacity: 0.7; stroke-width: 0.5"/>
    <path d="M 284.715723 418.260028 
L 284.715723 418.152515 
L 284.60821 418.152515 
L 284.60821 418.260028 
L 284.715723 418.260028 
" clip-path="url(#p67136ba61c)" style="fill: #ff0000; fill-opacity: 0.7; stroke: #000000; stroke-opacity: 0.7; stroke-width: 0.5"/>
    <path d="M 268.541864 273.072031 
L 268.541864 272.964518 
L 268.434351 272.964518 
L 268.434351 273.072031 
L 268.541864 273.072031 
" clip-path="url(#p67136ba61c)" style="fill: #ff0000; fill-opacity: 0.7; stroke: #000000; stroke-opacity: 0.7; stroke-width: 0.5"/>
    <path d="M 279.035794 228.822911 
L 279.035794 228.715398 
L 278.928281 228.715398 
L 278.928281 228.822911 
L 279.035794 228.822911 
" clip-path="url(#p67136ba61c)" style="fill: #ff0000; fill-opacity: 0.7; stroke: #000000; stroke-opacity: 0.7; stroke-width: 0.5"/>
    <path d="M 416.379943 280.278509 
L 416.379943 280.170996 
L 416.27243 280.170996 
L 416.27243 280.278509 
L 416.379943 280.278509 
" clip-path="url(#p67136ba61c)" style="fill: #ff0000; fill-opacity: 0.7; stroke: #000000; stroke-opacity: 0.7; stroke-width: 0.5"/>
    <path d="M 383.419312 372.501434 
L 383.419312 372.393921 
L 383.311798 372.393921 
L 383.311798 372.501434 
L 383.419312 372.501434 
" clip-path="url(#p67136ba61c)" style="fill: #ff0000; fill-opacity: 0.7; stroke: #000000; stroke-opacity: 0.7; stroke-width: 0.5"/>
    <path d="M 281.975075 328.49341 
L 281.975075 328.385897 
L 281.867562 328.385897 
L 281.867562 328.49341 
L 281.975075 328.49341 
" clip-path="url(#p67136ba61c)" style="fill: #ff0000; fill-opacity: 0.7; stroke: #000000; stroke-opacity: 0.7; stroke-width: 0.5"/>
    <path d="M 267.791277 296.301638 
L 267.791277 296.194125 
L 267.683764 296.194125 
L 267.683764 296.301638 
L 267.791277 296.301638 
" clip-path="url(#p67136ba61c)" style="fill: #ff0000; fill-opacity: 0.7; stroke: #000000; stroke-opacity: 0.7; stroke-width: 0.5"/>
    <path d="M 269.535117 182.303402 
L 269.535117 182.195889 
L 269.427604 182.195889 
L 269.427604 182.303402 
L 269.535117 182.303402 
" clip-path="url(#p67136ba61c)" style="fill: #ff0000; fill-opacity: 0.7; stroke: #000000; stroke-opacity: 0.7; stroke-width: 0.5"/>
    <path d="M 355.674077 265.319704 
L 355.674077 265.212191 
L 355.566564 265.212191 
L 355.566564 265.319704 
L 355.674077 265.319704 
" clip-path="url(#p67136ba61c)" style="fill: #ff0000; fill-opacity: 0.7; stroke: #000000; stroke-opacity: 0.7; stroke-width: 0.5"/>
    <path d="M 383.036621 321.051154 
L 383.036621 320.943641 
L 382.929108 320.943641 
L 382.929108 321.051154 
L 383.036621 321.051154 
" clip-path="url(#p67136ba61c)" style="fill: #ff0000; fill-opacity: 0.7; stroke: #000000; stroke-opacity: 0.7; stroke-width: 0.5"/>
    <path d="M 370.39016 363.897976 
L 370.39016 363.790463 
L 370.282647 363.790463 
L 370.282647 363.897976 
L 370.39016 363.897976 
" clip-path="url(#p67136ba61c)" style="fill: #ff0000; fill-opacity: 0.7; stroke: #000000; stroke-opacity: 0.7; stroke-width: 0.5"/>
    <path d="M 301.00096 282.712331 
L 301.00096 282.604817 
L 300.893447 282.604817 
L 300.893447 282.712331 
L 301.00096 282.712331 
" clip-path="url(#p67136ba61c)" style="fill: #ff0000; fill-opacity: 0.7; stroke: #000000; stroke-opacity: 0.7; stroke-width: 0.5"/>
    <path d="M 416.479544 280.050777 
L 416.479544 279.943264 
L 416.37203 279.943264 
L 416.37203 280.050777 
L 416.479544 280.050777 
" clip-path="url(#p67136ba61c)" style="fill: #ff0000; fill-opacity: 0.7; stroke: #000000; stroke-opacity: 0.7; stroke-width: 0.5"/>
    <path d="M 358.015948 234.633859 
L 358.015948 234.526346 
L 357.908434 234.526346 
L 357.908434 234.633859 
L 358.015948 234.633859 
" clip-path="url(#p67136ba61c)" style="fill: #ff0000; fill-opacity: 0.7; stroke: #000000; stroke-opacity: 0.7; stroke-width: 0.5"/>
    <path d="M 365.386974 276.009012 
L 365.386974 275.901499 
L 365.27946 275.901499 
L 365.27946 276.009012 
L 365.386974 276.009012 
" clip-path="url(#p67136ba61c)" style="fill: #ff0000; fill-opacity: 0.7; stroke: #000000; stroke-opacity: 0.7; stroke-width: 0.5"/>
    <path d="M 383.138027 368.455381 
L 383.138027 368.347868 
L 383.030514 368.347868 
L 383.030514 368.455381 
L 383.138027 368.455381 
" clip-path="url(#p67136ba61c)" style="fill: #ff0000; fill-opacity: 0.7; stroke: #000000; stroke-opacity: 0.7; stroke-width: 0.5"/>
    <path d="M 274.917651 321.615505 
L 274.917651 321.507991 
L 274.810138 321.507991 
L 274.810138 321.615505 
L 274.917651 321.615505 
" clip-path="url(#p67136ba61c)" style="fill: #ff0000; fill-opacity: 0.7; stroke: #000000; stroke-opacity: 0.7; stroke-width: 0.5"/>
    <path d="M 249.27615 338.038647 
L 249.27615 337.931133 
L 249.168637 337.931133 
L 249.168637 338.038647 
L 249.27615 338.038647 
" clip-path="url(#p67136ba61c)" style="fill: #ff0000; fill-opacity: 0.7; stroke: #000000; stroke-opacity: 0.7; stroke-width: 0.5"/>
    <path d="M 286.266507 314.979161 
L 286.266507 314.871647 
L 286.158994 314.871647 
L 286.158994 314.979161 
L 286.266507 314.979161 
" clip-path="url(#p67136ba61c)" style="fill: #ff0000; fill-opacity: 0.7; stroke: #000000; stroke-opacity: 0.7; stroke-width: 0.5"/>
    <path d="M 327.20725 233.084131 
L 327.20725 232.976618 
L 327.099737 232.976618 
L 327.099737 233.084131 
L 327.20725 233.084131 
" clip-path="url(#p67136ba61c)" style="fill: #ff0000; fill-opacity: 0.7; stroke: #000000; stroke-opacity: 0.7; stroke-width: 0.5"/>
    <path d="M 416.479544 280.050777 
L 416.479544 279.943264 
L 416.37203 279.943264 
L 416.37203 280.050777 
L 416.479544 280.050777 
" clip-path="url(#p67136ba61c)" style="fill: #ff0000; fill-opacity: 0.7; stroke: #000000; stroke-opacity: 0.7; stroke-width: 0.5"/>
    <path d="M 330.671214 282.133684 
L 330.671214 282.026171 
L 330.563701 282.026171 
L 330.563701 282.133684 
L 330.671214 282.133684 
" clip-path="url(#p67136ba61c)" style="fill: #ff0000; fill-opacity: 0.7; stroke: #000000; stroke-opacity: 0.7; stroke-width: 0.5"/>
    <path d="M 313.96246 327.586822 
L 313.96246 327.479308 
L 313.854947 327.479308 
L 313.854947 327.586822 
L 313.96246 327.586822 
" clip-path="url(#p67136ba61c)" style="fill: #ff0000; fill-opacity: 0.7; stroke: #000000; stroke-opacity: 0.7; stroke-width: 0.5"/>
    <path d="M 285.859687 287.681149 
L 285.859687 287.573636 
L 285.752174 287.573636 
L 285.752174 287.681149 
L 285.859687 287.681149 
" clip-path="url(#p67136ba61c)" style="fill: #ff0000; fill-opacity: 0.7; stroke: #000000; stroke-opacity: 0.7; stroke-width: 0.5"/>
    <path d="M 344.321007 469.698396 
L 344.321007 469.590883 
L 344.213494 469.590883 
L 344.213494 469.698396 
L 344.321007 469.698396 
" clip-path="url(#p67136ba61c)" style="fill: #ff0000; fill-opacity: 0.7; stroke: #000000; stroke-opacity: 0.7; stroke-width: 0.5"/>
    <path d="M 252.17632 346.657603 
L 252.17632 346.550089 
L 252.068807 346.550089 
L 252.068807 346.657603 
L 252.17632 346.657603 
" clip-path="url(#p67136ba61c)" style="fill: #ff0000; fill-opacity: 0.7; stroke: #000000; stroke-opacity: 0.7; stroke-width: 0.5"/>
    <path d="M 318.463093 300.607412 
L 318.463093 300.499899 
L 318.35558 300.499899 
L 318.35558 300.607412 
L 318.463093 300.607412 
" clip-path="url(#p67136ba61c)" style="fill: #ff0000; fill-opacity: 0.7; stroke: #000000; stroke-opacity: 0.7; stroke-width: 0.5"/>
    <path d="M 266.461651 280.043827 
L 266.461651 279.936314 
L 266.354137 279.936314 
L 266.354137 280.043827 
L 266.461651 280.043827 
" clip-path="url(#p67136ba61c)" style="fill: #ff0000; fill-opacity: 0.7; stroke: #000000; stroke-opacity: 0.7; stroke-width: 0.5"/>
    <path d="M 287.905798 309.804819 
L 287.905798 309.697306 
L 287.798285 309.697306 
L 287.798285 309.804819 
L 287.905798 309.804819 
" clip-path="url(#p67136ba61c)" style="fill: #ff0000; fill-opacity: 0.7; stroke: #000000; stroke-opacity: 0.7; stroke-width: 0.5"/>
    <path d="M 303.869563 296.110592 
L 303.869563 296.003078 
L 303.76205 296.003078 
L 303.76205 296.110592 
L 303.869563 296.110592 
" clip-path="url(#p67136ba61c)" style="fill: #ff0000; fill-opacity: 0.7; stroke: #000000; stroke-opacity: 0.7; stroke-width: 0.5"/>
    <path d="M 252.17632 346.657603 
L 252.17632 346.550089 
L 252.068807 346.550089 
L 252.068807 346.657603 
L 252.17632 346.657603 
" clip-path="url(#p67136ba61c)" style="fill: #ff0000; fill-opacity: 0.7; stroke: #000000; stroke-opacity: 0.7; stroke-width: 0.5"/>
    <path d="M 411.781898 267.336799 
L 411.781898 267.229286 
L 411.674385 267.229286 
L 411.674385 267.336799 
L 411.781898 267.336799 
" clip-path="url(#p67136ba61c)" style="fill: #ff0000; fill-opacity: 0.7; stroke: #000000; stroke-opacity: 0.7; stroke-width: 0.5"/>
    <path d="M 297.231485 294.958909 
L 297.231485 294.851396 
L 297.123972 294.851396 
L 297.123972 294.958909 
L 297.231485 294.958909 
" clip-path="url(#p67136ba61c)" style="fill: #ff0000; fill-opacity: 0.7; stroke: #000000; stroke-opacity: 0.7; stroke-width: 0.5"/>
    <path d="M 259.951715 301.998722 
L 259.951715 301.891209 
L 259.844202 301.891209 
L 259.844202 301.998722 
L 259.951715 301.998722 
" clip-path="url(#p67136ba61c)" style="fill: #ff0000; fill-opacity: 0.7; stroke: #000000; stroke-opacity: 0.7; stroke-width: 0.5"/>
    <path d="M 321.935288 311.606239 
L 321.935288 311.498726 
L 321.827775 311.498726 
L 321.827775 311.606239 
L 321.935288 311.606239 
" clip-path="url(#p67136ba61c)" style="fill: #ff0000; fill-opacity: 0.7; stroke: #000000; stroke-opacity: 0.7; stroke-width: 0.5"/>
    <path d="M 300.072831 294.950284 
L 300.072831 294.842771 
L 299.965318 294.842771 
L 299.965318 294.950284 
L 300.072831 294.950284 
" clip-path="url(#p67136ba61c)" style="fill: #ff0000; fill-opacity: 0.7; stroke: #000000; stroke-opacity: 0.7; stroke-width: 0.5"/>
    <path d="M 297.231485 294.958909 
L 297.231485 294.851396 
L 297.123972 294.851396 
L 297.123972 294.958909 
L 297.231485 294.958909 
" clip-path="url(#p67136ba61c)" style="fill: #ff0000; fill-opacity: 0.7; stroke: #000000; stroke-opacity: 0.7; stroke-width: 0.5"/>
    <path d="M 411.781898 267.336799 
L 411.781898 267.229286 
L 411.674385 267.229286 
L 411.674385 267.336799 
L 411.781898 267.336799 
" clip-path="url(#p67136ba61c)" style="fill: #ff0000; fill-opacity: 0.7; stroke: #000000; stroke-opacity: 0.7; stroke-width: 0.5"/>
    <path d="M 359.837686 348.561772 
L 359.837686 348.454259 
L 359.730172 348.454259 
L 359.730172 348.561772 
L 359.837686 348.561772 
" clip-path="url(#p67136ba61c)" style="fill: #ff0000; fill-opacity: 0.7; stroke: #000000; stroke-opacity: 0.7; stroke-width: 0.5"/>
    <path d="M 355.674077 265.319704 
L 355.674077 265.212191 
L 355.566564 265.212191 
L 355.566564 265.319704 
L 355.674077 265.319704 
" clip-path="url(#p67136ba61c)" style="fill: #ff0000; fill-opacity: 0.7; stroke: #000000; stroke-opacity: 0.7; stroke-width: 0.5"/>
    <path d="M 416.372956 273.40836 
L 416.372956 273.300847 
L 416.265443 273.300847 
L 416.265443 273.40836 
L 416.372956 273.40836 
" clip-path="url(#p67136ba61c)" style="fill: #ff0000; fill-opacity: 0.7; stroke: #000000; stroke-opacity: 0.7; stroke-width: 0.5"/>
    <path d="M 287.905798 309.804819 
L 287.905798 309.697306 
L 287.798285 309.697306 
L 287.798285 309.804819 
L 287.905798 309.804819 
" clip-path="url(#p67136ba61c)" style="fill: #ff0000; fill-opacity: 0.7; stroke: #000000; stroke-opacity: 0.7; stroke-width: 0.5"/>
    <path d="M 299.037213 328.798514 
L 299.037213 328.691001 
L 298.9297 328.691001 
L 298.9297 328.798514 
L 299.037213 328.798514 
" clip-path="url(#p67136ba61c)" style="fill: #ff0000; fill-opacity: 0.7; stroke: #000000; stroke-opacity: 0.7; stroke-width: 0.5"/>
    <path d="M 357.587688 386.055835 
L 357.587688 385.948322 
L 357.480174 385.948322 
L 357.480174 386.055835 
L 357.587688 386.055835 
" clip-path="url(#p67136ba61c)" style="fill: #ff0000; fill-opacity: 0.7; stroke: #000000; stroke-opacity: 0.7; stroke-width: 0.5"/>
    <path d="M 372.663617 243.292192 
L 372.663617 243.184679 
L 372.556104 243.184679 
L 372.556104 243.292192 
L 372.663617 243.292192 
" clip-path="url(#p67136ba61c)" style="fill: #ff0000; fill-opacity: 0.7; stroke: #000000; stroke-opacity: 0.7; stroke-width: 0.5"/>
    <path d="M 373.442581 390.980981 
L 373.442581 390.873468 
L 373.335068 390.873468 
L 373.335068 390.980981 
L 373.442581 390.980981 
" clip-path="url(#p67136ba61c)" style="fill: #ff0000; fill-opacity: 0.7; stroke: #000000; stroke-opacity: 0.7; stroke-width: 0.5"/>
    <path d="M 316.641424 467.531004 
L 316.641424 467.423491 
L 316.533911 467.423491 
L 316.533911 467.531004 
L 316.641424 467.531004 
" clip-path="url(#p67136ba61c)" style="fill: #ff0000; fill-opacity: 0.7; stroke: #000000; stroke-opacity: 0.7; stroke-width: 0.5"/>
    <path d="M 377.067517 233.871409 
L 377.067517 233.763896 
L 376.960004 233.763896 
L 376.960004 233.871409 
L 377.067517 233.871409 
" clip-path="url(#p67136ba61c)" style="fill: #ff0000; fill-opacity: 0.7; stroke: #000000; stroke-opacity: 0.7; stroke-width: 0.5"/>
    <path d="M 414.254339 269.554625 
L 414.254339 269.447112 
L 414.146826 269.447112 
L 414.146826 269.554625 
L 414.254339 269.554625 
" clip-path="url(#p67136ba61c)" style="fill: #ff0000; fill-opacity: 0.7; stroke: #000000; stroke-opacity: 0.7; stroke-width: 0.5"/>
    <path d="M 252.17632 346.657603 
L 252.17632 346.550089 
L 252.068807 346.550089 
L 252.068807 346.657603 
L 252.17632 346.657603 
" clip-path="url(#p67136ba61c)" style="fill: #ff0000; fill-opacity: 0.7; stroke: #000000; stroke-opacity: 0.7; stroke-width: 0.5"/>
    <path d="M 339.889202 347.885763 
L 339.889202 347.77825 
L 339.781688 347.77825 
L 339.781688 347.885763 
L 339.889202 347.885763 
" clip-path="url(#p67136ba61c)" style="fill: #ff0000; fill-opacity: 0.7; stroke: #000000; stroke-opacity: 0.7; stroke-width: 0.5"/>
    <path d="M 252.339479 129.523623 
L 252.339479 129.41611 
L 252.231966 129.41611 
L 252.231966 129.523623 
L 252.339479 129.523623 
" clip-path="url(#p67136ba61c)" style="fill: #ff0000; fill-opacity: 0.7; stroke: #000000; stroke-opacity: 0.7; stroke-width: 0.5"/>
    <path d="M 292.982541 318.152141 
L 292.982541 318.044628 
L 292.875028 318.044628 
L 292.875028 318.152141 
L 292.982541 318.152141 
" clip-path="url(#p67136ba61c)" style="fill: #ff0000; fill-opacity: 0.7; stroke: #000000; stroke-opacity: 0.7; stroke-width: 0.5"/>
    <path d="M 266.461651 280.043827 
L 266.461651 279.936314 
L 266.354137 279.936314 
L 266.354137 280.043827 
L 266.461651 280.043827 
" clip-path="url(#p67136ba61c)" style="fill: #ff0000; fill-opacity: 0.7; stroke: #000000; stroke-opacity: 0.7; stroke-width: 0.5"/>
    <path d="M 252.17632 346.657603 
L 252.17632 346.550089 
L 252.068807 346.550089 
L 252.068807 346.657603 
L 252.17632 346.657603 
" clip-path="url(#p67136ba61c)" style="fill: #ff0000; fill-opacity: 0.7; stroke: #000000; stroke-opacity: 0.7; stroke-width: 0.5"/>
    <path d="M 316.031246 337.911033 
L 316.031246 337.80352 
L 315.923733 337.80352 
L 315.923733 337.911033 
L 316.031246 337.911033 
" clip-path="url(#p67136ba61c)" style="fill: #ff0000; fill-opacity: 0.7; stroke: #000000; stroke-opacity: 0.7; stroke-width: 0.5"/>
    <path d="M 381.767365 288.433998 
L 381.767365 288.326485 
L 381.659851 288.326485 
L 381.659851 288.433998 
L 381.767365 288.433998 
" clip-path="url(#p67136ba61c)" style="fill: #ff0000; fill-opacity: 0.7; stroke: #000000; stroke-opacity: 0.7; stroke-width: 0.5"/>
    <path d="M 292.982541 318.152141 
L 292.982541 318.044628 
L 292.875028 318.044628 
L 292.875028 318.152141 
L 292.982541 318.152141 
" clip-path="url(#p67136ba61c)" style="fill: #ff0000; fill-opacity: 0.7; stroke: #000000; stroke-opacity: 0.7; stroke-width: 0.5"/>
    <path d="M 308.905094 322.710014 
L 308.905094 322.6025 
L 308.797581 322.6025 
L 308.797581 322.710014 
L 308.905094 322.710014 
" clip-path="url(#p67136ba61c)" style="fill: #ff0000; fill-opacity: 0.7; stroke: #000000; stroke-opacity: 0.7; stroke-width: 0.5"/>
    <path d="M 296.751601 289.242935 
L 296.751601 289.135422 
L 296.644087 289.135422 
L 296.644087 289.242935 
L 296.751601 289.242935 
" clip-path="url(#p67136ba61c)" style="fill: #ff0000; fill-opacity: 0.7; stroke: #000000; stroke-opacity: 0.7; stroke-width: 0.5"/>
    <path d="M 355.579736 242.299975 
L 355.579736 242.192462 
L 355.472223 242.192462 
L 355.472223 242.299975 
L 355.579736 242.299975 
" clip-path="url(#p67136ba61c)" style="fill: #ff0000; fill-opacity: 0.7; stroke: #000000; stroke-opacity: 0.7; stroke-width: 0.5"/>
    <path d="M 326.887488 243.961491 
L 326.887488 243.853978 
L 326.779975 243.853978 
L 326.779975 243.961491 
L 326.887488 243.961491 
" clip-path="url(#p67136ba61c)" style="fill: #ff0000; fill-opacity: 0.7; stroke: #000000; stroke-opacity: 0.7; stroke-width: 0.5"/>
    <path d="M 379.55333 387.437805 
L 379.55333 387.330291 
L 379.445816 387.330291 
L 379.445816 387.437805 
L 379.55333 387.437805 
" clip-path="url(#p67136ba61c)" style="fill: #ff0000; fill-opacity: 0.7; stroke: #000000; stroke-opacity: 0.7; stroke-width: 0.5"/>
    <path d="M 328.500438 408.43323 
L 328.500438 408.325717 
L 328.392925 408.325717 
L 328.392925 408.43323 
L 328.500438 408.43323 
" clip-path="url(#p67136ba61c)" style="fill: #ff0000; fill-opacity: 0.7; stroke: #000000; stroke-opacity: 0.7; stroke-width: 0.5"/>
    <path d="M 368.83708 266.16833 
L 368.83708 266.060817 
L 368.729567 266.060817 
L 368.729567 266.16833 
L 368.83708 266.16833 
" clip-path="url(#p67136ba61c)" style="fill: #ff0000; fill-opacity: 0.7; stroke: #000000; stroke-opacity: 0.7; stroke-width: 0.5"/>
    <path d="M 360.02067 480.756104 
L 360.02067 480.648591 
L 359.913157 480.648591 
L 359.913157 480.756104 
L 360.02067 480.756104 
" clip-path="url(#p67136ba61c)" style="fill: #ff0000; fill-opacity: 0.7; stroke: #000000; stroke-opacity: 0.7; stroke-width: 0.5"/>
    <path d="M 426.090397 281.970555 
L 426.090397 281.863042 
L 425.982884 281.863042 
L 425.982884 281.970555 
L 426.090397 281.970555 
" clip-path="url(#p67136ba61c)" style="fill: #ff0000; fill-opacity: 0.7; stroke: #000000; stroke-opacity: 0.7; stroke-width: 0.5"/>
    <path d="M 239.908142 153.200609 
L 239.908142 153.093096 
L 239.800628 153.093096 
L 239.800628 153.200609 
L 239.908142 153.200609 
" clip-path="url(#p67136ba61c)" style="fill: #ff0000; fill-opacity: 0.7; stroke: #000000; stroke-opacity: 0.7; stroke-width: 0.5"/>
    <path d="M 396.564848 282.572204 
L 396.564848 282.464691 
L 396.457335 282.464691 
L 396.457335 282.572204 
L 396.564848 282.572204 
" clip-path="url(#p67136ba61c)" style="fill: #ff0000; fill-opacity: 0.7; stroke: #000000; stroke-opacity: 0.7; stroke-width: 0.5"/>
    <path d="M 368.78092 257.240869 
L 368.78092 257.133356 
L 368.673407 257.133356 
L 368.673407 257.240869 
L 368.78092 257.240869 
" clip-path="url(#p67136ba61c)" style="fill: #ff0000; fill-opacity: 0.7; stroke: #000000; stroke-opacity: 0.7; stroke-width: 0.5"/>
    <path d="M 271.138674 275.890565 
L 271.138674 275.783051 
L 271.031161 275.783051 
L 271.031161 275.890565 
L 271.138674 275.890565 
" clip-path="url(#p67136ba61c)" style="fill: #ff0000; fill-opacity: 0.7; stroke: #000000; stroke-opacity: 0.7; stroke-width: 0.5"/>
    <path d="M 255.89981 342.789909 
L 255.89981 342.682395 
L 255.792297 342.682395 
L 255.792297 342.789909 
L 255.89981 342.789909 
" clip-path="url(#p67136ba61c)" style="fill: #ff0000; fill-opacity: 0.7; stroke: #000000; stroke-opacity: 0.7; stroke-width: 0.5"/>
    <path d="M 325.208499 268.448449 
L 325.208499 268.340936 
L 325.100986 268.340936 
L 325.100986 268.448449 
L 325.208499 268.448449 
" clip-path="url(#p67136ba61c)" style="fill: #ff0000; fill-opacity: 0.7; stroke: #000000; stroke-opacity: 0.7; stroke-width: 0.5"/>
    <path d="M 339.443271 271.665284 
L 339.443271 271.557771 
L 339.335758 271.557771 
L 339.335758 271.665284 
L 339.443271 271.665284 
" clip-path="url(#p67136ba61c)" style="fill: #ff0000; fill-opacity: 0.7; stroke: #000000; stroke-opacity: 0.7; stroke-width: 0.5"/>
    <path d="M 271.387325 320.47223 
L 271.387325 320.364717 
L 271.279812 320.364717 
L 271.279812 320.47223 
L 271.387325 320.47223 
" clip-path="url(#p67136ba61c)" style="fill: #ff0000; fill-opacity: 0.7; stroke: #000000; stroke-opacity: 0.7; stroke-width: 0.5"/>
    <path d="M 318.356324 356.628454 
L 318.356324 356.520941 
L 318.248811 356.520941 
L 318.248811 356.628454 
L 318.356324 356.628454 
" clip-path="url(#p67136ba61c)" style="fill: #ff0000; fill-opacity: 0.7; stroke: #000000; stroke-opacity: 0.7; stroke-width: 0.5"/>
    <path d="M 272.89824 276.721385 
L 272.89824 276.613872 
L 272.790727 276.613872 
L 272.790727 276.721385 
L 272.89824 276.721385 
" clip-path="url(#p67136ba61c)" style="fill: #ff0000; fill-opacity: 0.7; stroke: #000000; stroke-opacity: 0.7; stroke-width: 0.5"/>
    <path d="M 348.099208 275.463729 
L 348.099208 275.356216 
L 347.991695 275.356216 
L 347.991695 275.463729 
L 348.099208 275.463729 
" clip-path="url(#p67136ba61c)" style="fill: #ff0000; fill-opacity: 0.7; stroke: #000000; stroke-opacity: 0.7; stroke-width: 0.5"/>
    <path d="M 336.687353 264.231565 
L 336.687353 264.124052 
L 336.57984 264.124052 
L 336.57984 264.231565 
L 336.687353 264.231565 
" clip-path="url(#p67136ba61c)" style="fill: #ff0000; fill-opacity: 0.7; stroke: #000000; stroke-opacity: 0.7; stroke-width: 0.5"/>
    <path d="M 379.115681 248.590594 
L 379.115681 248.48308 
L 379.008168 248.48308 
L 379.008168 248.590594 
L 379.115681 248.590594 
" clip-path="url(#p67136ba61c)" style="fill: #ff0000; fill-opacity: 0.7; stroke: #000000; stroke-opacity: 0.7; stroke-width: 0.5"/>
    <path d="M 292.479689 287.968661 
L 292.479689 287.861148 
L 292.372176 287.861148 
L 292.372176 287.968661 
L 292.479689 287.968661 
" clip-path="url(#p67136ba61c)" style="fill: #ff0000; fill-opacity: 0.7; stroke: #000000; stroke-opacity: 0.7; stroke-width: 0.5"/>
    <path d="M 355.935634 274.223006 
L 355.935634 274.115493 
L 355.828121 274.115493 
L 355.828121 274.223006 
L 355.935634 274.223006 
" clip-path="url(#p67136ba61c)" style="fill: #ff0000; fill-opacity: 0.7; stroke: #000000; stroke-opacity: 0.7; stroke-width: 0.5"/>
    <path d="M 255.89981 342.789909 
L 255.89981 342.682395 
L 255.792297 342.682395 
L 255.792297 342.789909 
L 255.89981 342.789909 
" clip-path="url(#p67136ba61c)" style="fill: #ff0000; fill-opacity: 0.7; stroke: #000000; stroke-opacity: 0.7; stroke-width: 0.5"/>
    <path d="M 368.78092 257.240881 
L 368.78092 257.133368 
L 368.673407 257.133368 
L 368.673407 257.240881 
L 368.78092 257.240881 
" clip-path="url(#p67136ba61c)" style="fill: #ff0000; fill-opacity: 0.7; stroke: #000000; stroke-opacity: 0.7; stroke-width: 0.5"/>
    <path d="M 336.345279 247.729251 
L 336.345279 247.621738 
L 336.237766 247.621738 
L 336.237766 247.729251 
L 336.345279 247.729251 
" clip-path="url(#p67136ba61c)" style="fill: #ff0000; fill-opacity: 0.7; stroke: #000000; stroke-opacity: 0.7; stroke-width: 0.5"/>
    <path d="M 322.278914 247.998309 
L 322.278914 247.890796 
L 322.171401 247.890796 
L 322.171401 247.998309 
L 322.278914 247.998309 
" clip-path="url(#p67136ba61c)" style="fill: #ff0000; fill-opacity: 0.7; stroke: #000000; stroke-opacity: 0.7; stroke-width: 0.5"/>
    <path d="M 253.432587 342.004029 
L 253.432587 341.896516 
L 253.325074 341.896516 
L 253.325074 342.004029 
L 253.432587 342.004029 
" clip-path="url(#p67136ba61c)" style="fill: #ff0000; fill-opacity: 0.7; stroke: #000000; stroke-opacity: 0.7; stroke-width: 0.5"/>
    <path d="M 391.841273 284.202753 
L 391.841273 284.09524 
L 391.73376 284.09524 
L 391.73376 284.202753 
L 391.841273 284.202753 
" clip-path="url(#p67136ba61c)" style="fill: #ff0000; fill-opacity: 0.7; stroke: #000000; stroke-opacity: 0.7; stroke-width: 0.5"/>
    <path d="M 255.89981 342.789909 
L 255.89981 342.682395 
L 255.792297 342.682395 
L 255.792297 342.789909 
L 255.89981 342.789909 
" clip-path="url(#p67136ba61c)" style="fill: #ff0000; fill-opacity: 0.7; stroke: #000000; stroke-opacity: 0.7; stroke-width: 0.5"/>
    <path d="M 354.309654 249.782949 
L 354.309654 249.675436 
L 354.202141 249.675436 
L 354.202141 249.782949 
L 354.309654 249.782949 
" clip-path="url(#p67136ba61c)" style="fill: #ff0000; fill-opacity: 0.7; stroke: #000000; stroke-opacity: 0.7; stroke-width: 0.5"/>
    <path d="M 258.048797 308.413304 
L 258.048797 308.305791 
L 257.941283 308.305791 
L 257.941283 308.413304 
L 258.048797 308.413304 
" clip-path="url(#p67136ba61c)" style="fill: #ff0000; fill-opacity: 0.7; stroke: #000000; stroke-opacity: 0.7; stroke-width: 0.5"/>
    <path d="M 322.882181 312.191495 
L 322.882181 312.083982 
L 322.774668 312.083982 
L 322.774668 312.191495 
L 322.882181 312.191495 
" clip-path="url(#p67136ba61c)" style="fill: #ff0000; fill-opacity: 0.7; stroke: #000000; stroke-opacity: 0.7; stroke-width: 0.5"/>
    <path d="M 279.063457 280.028281 
L 279.063457 279.920767 
L 278.955944 279.920767 
L 278.955944 280.028281 
L 279.063457 280.028281 
" clip-path="url(#p67136ba61c)" style="fill: #ff0000; fill-opacity: 0.7; stroke: #000000; stroke-opacity: 0.7; stroke-width: 0.5"/>
    <path d="M 377.698989 384.016746 
L 377.698989 383.909233 
L 377.591476 383.909233 
L 377.591476 384.016746 
L 377.698989 384.016746 
" clip-path="url(#p67136ba61c)" style="fill: #ff0000; fill-opacity: 0.7; stroke: #000000; stroke-opacity: 0.7; stroke-width: 0.5"/>
    <path d="M 397.965681 263.59278 
L 397.965681 263.485267 
L 397.858167 263.485267 
L 397.858167 263.59278 
L 397.965681 263.59278 
" clip-path="url(#p67136ba61c)" style="fill: #ff0000; fill-opacity: 0.7; stroke: #000000; stroke-opacity: 0.7; stroke-width: 0.5"/>
    <path d="M 306.220223 337.194476 
L 306.220223 337.086963 
L 306.11271 337.086963 
L 306.11271 337.194476 
L 306.220223 337.194476 
" clip-path="url(#p67136ba61c)" style="fill: #ff0000; fill-opacity: 0.7; stroke: #000000; stroke-opacity: 0.7; stroke-width: 0.5"/>
    <path d="M 383.622585 381.047202 
L 383.622585 380.939689 
L 383.515072 380.939689 
L 383.515072 381.047202 
L 383.622585 381.047202 
" clip-path="url(#p67136ba61c)" style="fill: #ff0000; fill-opacity: 0.7; stroke: #000000; stroke-opacity: 0.7; stroke-width: 0.5"/>
    <path d="M 416.372956 273.40836 
L 416.372956 273.300847 
L 416.265443 273.300847 
L 416.265443 273.40836 
L 416.372956 273.40836 
" clip-path="url(#p67136ba61c)" style="fill: #ff0000; fill-opacity: 0.7; stroke: #000000; stroke-opacity: 0.7; stroke-width: 0.5"/>
    <path d="M 374.570468 361.565757 
L 374.570468 361.458244 
L 374.462954 361.458244 
L 374.462954 361.565757 
L 374.570468 361.565757 
" clip-path="url(#p67136ba61c)" style="fill: #ff0000; fill-opacity: 0.7; stroke: #000000; stroke-opacity: 0.7; stroke-width: 0.5"/>
    <path d="M 281.334312 326.540606 
L 281.334312 326.433092 
L 281.226798 326.433092 
L 281.226798 326.540606 
L 281.334312 326.540606 
" clip-path="url(#p67136ba61c)" style="fill: #ff0000; fill-opacity: 0.7; stroke: #000000; stroke-opacity: 0.7; stroke-width: 0.5"/>
    <path d="M 301.00096 282.712331 
L 301.00096 282.604817 
L 300.893447 282.604817 
L 300.893447 282.712331 
L 301.00096 282.712331 
" clip-path="url(#p67136ba61c)" style="fill: #ff0000; fill-opacity: 0.7; stroke: #000000; stroke-opacity: 0.7; stroke-width: 0.5"/>
    <path d="M 260.701625 206.302223 
L 260.701625 206.19471 
L 260.594112 206.19471 
L 260.594112 206.302223 
L 260.701625 206.302223 
" clip-path="url(#p67136ba61c)" style="fill: #ff0000; fill-opacity: 0.7; stroke: #000000; stroke-opacity: 0.7; stroke-width: 0.5"/>
    <path d="M 393.050695 262.03792 
L 393.050695 261.930407 
L 392.943182 261.930407 
L 392.943182 262.03792 
L 393.050695 262.03792 
" clip-path="url(#p67136ba61c)" style="fill: #ff0000; fill-opacity: 0.7; stroke: #000000; stroke-opacity: 0.7; stroke-width: 0.5"/>
    <path d="M 356.159815 373.949414 
L 356.159815 373.841901 
L 356.052302 373.841901 
L 356.052302 373.949414 
L 356.159815 373.949414 
" clip-path="url(#p67136ba61c)" style="fill: #ff0000; fill-opacity: 0.7; stroke: #000000; stroke-opacity: 0.7; stroke-width: 0.5"/>
    <path d="M 282.688996 285.812724 
L 282.688996 285.705211 
L 282.581482 285.705211 
L 282.581482 285.812724 
L 282.688996 285.812724 
" clip-path="url(#p67136ba61c)" style="fill: #ff0000; fill-opacity: 0.7; stroke: #000000; stroke-opacity: 0.7; stroke-width: 0.5"/>
    <path d="M 409.246748 261.083681 
L 409.246748 260.976168 
L 409.139234 260.976168 
L 409.139234 261.083681 
L 409.246748 261.083681 
" clip-path="url(#p67136ba61c)" style="fill: #ff0000; fill-opacity: 0.7; stroke: #000000; stroke-opacity: 0.7; stroke-width: 0.5"/>
    <path d="M 236.978495 397.036705 
L 236.978495 396.929192 
L 236.870982 396.929192 
L 236.870982 397.036705 
L 236.978495 397.036705 
" clip-path="url(#p67136ba61c)" style="fill: #ff0000; fill-opacity: 0.7; stroke: #000000; stroke-opacity: 0.7; stroke-width: 0.5"/>
    <path d="M 252.17632 346.657603 
L 252.17632 346.550089 
L 252.068807 346.550089 
L 252.068807 346.657603 
L 252.17632 346.657603 
" clip-path="url(#p67136ba61c)" style="fill: #ff0000; fill-opacity: 0.7; stroke: #000000; stroke-opacity: 0.7; stroke-width: 0.5"/>
    <path d="M 342.535701 326.246153 
L 342.535701 326.13864 
L 342.428188 326.13864 
L 342.428188 326.246153 
L 342.535701 326.246153 
" clip-path="url(#p67136ba61c)" style="fill: #ff0000; fill-opacity: 0.7; stroke: #000000; stroke-opacity: 0.7; stroke-width: 0.5"/>
    <path d="M 277.608574 282.818914 
L 277.608574 282.711401 
L 277.50106 282.711401 
L 277.50106 282.818914 
L 277.608574 282.818914 
" clip-path="url(#p67136ba61c)" style="fill: #ff0000; fill-opacity: 0.7; stroke: #000000; stroke-opacity: 0.7; stroke-width: 0.5"/>
    <path d="M 285.699915 316.76786 
L 285.699915 316.660346 
L 285.592402 316.660346 
L 285.592402 316.76786 
L 285.699915 316.76786 
" clip-path="url(#p67136ba61c)" style="fill: #ff0000; fill-opacity: 0.7; stroke: #000000; stroke-opacity: 0.7; stroke-width: 0.5"/>
    <path d="M 292.479689 287.968661 
L 292.479689 287.861148 
L 292.372176 287.861148 
L 292.372176 287.968661 
L 292.479689 287.968661 
" clip-path="url(#p67136ba61c)" style="fill: #ff0000; fill-opacity: 0.7; stroke: #000000; stroke-opacity: 0.7; stroke-width: 0.5"/>
    <path d="M 366.271019 388.11446 
L 366.271019 388.006947 
L 366.163506 388.006947 
L 366.163506 388.11446 
L 366.271019 388.11446 
" clip-path="url(#p67136ba61c)" style="fill: #ff0000; fill-opacity: 0.7; stroke: #000000; stroke-opacity: 0.7; stroke-width: 0.5"/>
    <path d="M 343.93181 470.892487 
L 343.93181 470.784974 
L 343.824296 470.784974 
L 343.824296 470.892487 
L 343.93181 470.892487 
" clip-path="url(#p67136ba61c)" style="fill: #ff0000; fill-opacity: 0.7; stroke: #000000; stroke-opacity: 0.7; stroke-width: 0.5"/>
    <path d="M 380.601605 299.237359 
L 380.601605 299.129846 
L 380.494092 299.129846 
L 380.494092 299.237359 
L 380.601605 299.237359 
" clip-path="url(#p67136ba61c)" style="fill: #ff0000; fill-opacity: 0.7; stroke: #000000; stroke-opacity: 0.7; stroke-width: 0.5"/>
    <path d="M 349.144171 235.714555 
L 349.144171 235.607042 
L 349.036658 235.607042 
L 349.036658 235.714555 
L 349.144171 235.714555 
" clip-path="url(#p67136ba61c)" style="fill: #ff0000; fill-opacity: 0.7; stroke: #000000; stroke-opacity: 0.7; stroke-width: 0.5"/>
    <path d="M 271.026587 242.767973 
L 271.026587 242.660459 
L 270.919073 242.660459 
L 270.919073 242.767973 
L 271.026587 242.767973 
" clip-path="url(#p67136ba61c)" style="fill: #ff0000; fill-opacity: 0.7; stroke: #000000; stroke-opacity: 0.7; stroke-width: 0.5"/>
    <path d="M 380.601605 299.237359 
L 380.601605 299.129846 
L 380.494092 299.129846 
L 380.494092 299.237359 
L 380.601605 299.237359 
" clip-path="url(#p67136ba61c)" style="fill: #ff0000; fill-opacity: 0.7; stroke: #000000; stroke-opacity: 0.7; stroke-width: 0.5"/>
    <path d="M 345.936204 262.37038 
L 345.936204 262.262867 
L 345.82869 262.262867 
L 345.82869 262.37038 
L 345.936204 262.37038 
" clip-path="url(#p67136ba61c)" style="fill: #ff0000; fill-opacity: 0.7; stroke: #000000; stroke-opacity: 0.7; stroke-width: 0.5"/>
    <path d="M 314.801128 299.46351 
L 314.801128 299.355996 
L 314.693615 299.355996 
L 314.693615 299.46351 
L 314.801128 299.46351 
" clip-path="url(#p67136ba61c)" style="fill: #ff0000; fill-opacity: 0.7; stroke: #000000; stroke-opacity: 0.7; stroke-width: 0.5"/>
    <path d="M 282.285898 339.24174 
L 282.285898 339.134227 
L 282.178385 339.134227 
L 282.178385 339.24174 
L 282.285898 339.24174 
" clip-path="url(#p67136ba61c)" style="fill: #ff0000; fill-opacity: 0.7; stroke: #000000; stroke-opacity: 0.7; stroke-width: 0.5"/>
    <path d="M 252.17632 346.657603 
L 252.17632 346.550089 
L 252.068807 346.550089 
L 252.068807 346.657603 
L 252.17632 346.657603 
" clip-path="url(#p67136ba61c)" style="fill: #ff0000; fill-opacity: 0.7; stroke: #000000; stroke-opacity: 0.7; stroke-width: 0.5"/>
    <path d="M 273.099282 321.025947 
L 273.099282 320.918434 
L 272.991769 320.918434 
L 272.991769 321.025947 
L 273.099282 321.025947 
" clip-path="url(#p67136ba61c)" style="fill: #ff0000; fill-opacity: 0.7; stroke: #000000; stroke-opacity: 0.7; stroke-width: 0.5"/>
    <path d="M 322.370544 315.304732 
L 322.370544 315.197218 
L 322.263031 315.197218 
L 322.263031 315.304732 
L 322.370544 315.304732 
" clip-path="url(#p67136ba61c)" style="fill: #ff0000; fill-opacity: 0.7; stroke: #000000; stroke-opacity: 0.7; stroke-width: 0.5"/>
    <path d="M 270.285512 239.107864 
L 270.285512 239.000351 
L 270.177999 239.000351 
L 270.177999 239.107864 
L 270.285512 239.107864 
" clip-path="url(#p67136ba61c)" style="fill: #ff0000; fill-opacity: 0.7; stroke: #000000; stroke-opacity: 0.7; stroke-width: 0.5"/>
    <path d="M 307.957163 278.492058 
L 307.957163 278.384544 
L 307.849649 278.384544 
L 307.849649 278.492058 
L 307.957163 278.492058 
" clip-path="url(#p67136ba61c)" style="fill: #ff0000; fill-opacity: 0.7; stroke: #000000; stroke-opacity: 0.7; stroke-width: 0.5"/>
    <path d="M 284.428183 320.78173 
L 284.428183 320.674217 
L 284.320669 320.674217 
L 284.320669 320.78173 
L 284.428183 320.78173 
" clip-path="url(#p67136ba61c)" style="fill: #ff0000; fill-opacity: 0.7; stroke: #000000; stroke-opacity: 0.7; stroke-width: 0.5"/>
    <path d="M 259.877898 319.594922 
L 259.877898 319.487409 
L 259.770385 319.487409 
L 259.770385 319.594922 
L 259.877898 319.594922 
" clip-path="url(#p67136ba61c)" style="fill: #ff0000; fill-opacity: 0.7; stroke: #000000; stroke-opacity: 0.7; stroke-width: 0.5"/>
    <path d="M 416.479544 280.050777 
L 416.479544 279.943264 
L 416.37203 279.943264 
L 416.37203 280.050777 
L 416.479544 280.050777 
" clip-path="url(#p67136ba61c)" style="fill: #ff0000; fill-opacity: 0.7; stroke: #000000; stroke-opacity: 0.7; stroke-width: 0.5"/>
    <path d="M 273.34058 227.035937 
L 273.34058 226.928424 
L 273.233067 226.928424 
L 273.233067 227.035937 
L 273.34058 227.035937 
" clip-path="url(#p67136ba61c)" style="fill: #ff0000; fill-opacity: 0.7; stroke: #000000; stroke-opacity: 0.7; stroke-width: 0.5"/>
    <path d="M 288.29741 320.448662 
L 288.29741 320.341149 
L 288.189896 320.341149 
L 288.189896 320.448662 
L 288.29741 320.448662 
" clip-path="url(#p67136ba61c)" style="fill: #ff0000; fill-opacity: 0.7; stroke: #000000; stroke-opacity: 0.7; stroke-width: 0.5"/>
    <path d="M 252.17632 346.657603 
L 252.17632 346.550089 
L 252.068807 346.550089 
L 252.068807 346.657603 
L 252.17632 346.657603 
" clip-path="url(#p67136ba61c)" style="fill: #ff0000; fill-opacity: 0.7; stroke: #000000; stroke-opacity: 0.7; stroke-width: 0.5"/>
    <path d="M 305.448414 299.800582 
L 305.448414 299.693069 
L 305.3409 299.693069 
L 305.3409 299.800582 
L 305.448414 299.800582 
" clip-path="url(#p67136ba61c)" style="fill: #ff0000; fill-opacity: 0.7; stroke: #000000; stroke-opacity: 0.7; stroke-width: 0.5"/>
    <path d="M 299.325567 317.129121 
L 299.325567 317.021607 
L 299.218053 317.021607 
L 299.218053 317.129121 
L 299.325567 317.129121 
" clip-path="url(#p67136ba61c)" style="fill: #ff0000; fill-opacity: 0.7; stroke: #000000; stroke-opacity: 0.7; stroke-width: 0.5"/>
    <path d="M 255.899817 342.789897 
L 255.899817 342.682384 
L 255.792304 342.682384 
L 255.792304 342.789897 
L 255.899817 342.789897 
" clip-path="url(#p67136ba61c)" style="fill: #ff0000; fill-opacity: 0.7; stroke: #000000; stroke-opacity: 0.7; stroke-width: 0.5"/>
    <path d="M 335.436956 271.316855 
L 335.436956 271.209341 
L 335.329443 271.209341 
L 335.329443 271.316855 
L 335.436956 271.316855 
" clip-path="url(#p67136ba61c)" style="fill: #ff0000; fill-opacity: 0.7; stroke: #000000; stroke-opacity: 0.7; stroke-width: 0.5"/>
    <path d="M 314.020241 295.21778 
L 314.020241 295.110266 
L 313.912728 295.110266 
L 313.912728 295.21778 
L 314.020241 295.21778 
" clip-path="url(#p67136ba61c)" style="fill: #ff0000; fill-opacity: 0.7; stroke: #000000; stroke-opacity: 0.7; stroke-width: 0.5"/>
    <path d="M 263.390309 341.029256 
L 263.390309 340.921743 
L 263.282795 340.921743 
L 263.282795 341.029256 
L 263.390309 341.029256 
" clip-path="url(#p67136ba61c)" style="fill: #ff0000; fill-opacity: 0.7; stroke: #000000; stroke-opacity: 0.7; stroke-width: 0.5"/>
    <path d="M 361.026804 297.670445 
L 361.026804 297.562932 
L 360.91929 297.562932 
L 360.91929 297.670445 
L 361.026804 297.670445 
" clip-path="url(#p67136ba61c)" style="fill: #ff0000; fill-opacity: 0.7; stroke: #000000; stroke-opacity: 0.7; stroke-width: 0.5"/>
    <path d="M 405.084905 250.825315 
L 405.084905 250.717801 
L 404.977392 250.717801 
L 404.977392 250.825315 
L 405.084905 250.825315 
" clip-path="url(#p67136ba61c)" style="fill: #ff0000; fill-opacity: 0.7; stroke: #000000; stroke-opacity: 0.7; stroke-width: 0.5"/>
    <path d="M 323.016507 308.232092 
L 323.016507 308.124579 
L 322.908993 308.124579 
L 322.908993 308.232092 
L 323.016507 308.232092 
" clip-path="url(#p67136ba61c)" style="fill: #ff0000; fill-opacity: 0.7; stroke: #000000; stroke-opacity: 0.7; stroke-width: 0.5"/>
    <path d="M 279.12489 325.81953 
L 279.12489 325.712017 
L 279.017377 325.712017 
L 279.017377 325.81953 
L 279.12489 325.81953 
" clip-path="url(#p67136ba61c)" style="fill: #ff0000; fill-opacity: 0.7; stroke: #000000; stroke-opacity: 0.7; stroke-width: 0.5"/>
    <path d="M 346.971661 259.123918 
L 346.971661 259.016404 
L 346.864148 259.016404 
L 346.864148 259.123918 
L 346.971661 259.123918 
" clip-path="url(#p67136ba61c)" style="fill: #ff0000; fill-opacity: 0.7; stroke: #000000; stroke-opacity: 0.7; stroke-width: 0.5"/>
    <path d="M 264.84214 196.973728 
L 264.84214 196.866214 
L 264.734627 196.866214 
L 264.734627 196.973728 
L 264.84214 196.973728 
" clip-path="url(#p67136ba61c)" style="fill: #ff0000; fill-opacity: 0.7; stroke: #000000; stroke-opacity: 0.7; stroke-width: 0.5"/>
    <path d="M 298.882249 285.968738 
L 298.882249 285.861225 
L 298.774736 285.861225 
L 298.774736 285.968738 
L 298.882249 285.968738 
" clip-path="url(#p67136ba61c)" style="fill: #ff0000; fill-opacity: 0.7; stroke: #000000; stroke-opacity: 0.7; stroke-width: 0.5"/>
    <path d="M 341.688749 411.093185 
L 341.688749 410.985672 
L 341.581236 410.985672 
L 341.581236 411.093185 
L 341.688749 411.093185 
" clip-path="url(#p67136ba61c)" style="fill: #ff0000; fill-opacity: 0.7; stroke: #000000; stroke-opacity: 0.7; stroke-width: 0.5"/>
    <path d="M 328.58994 232.308332 
L 328.58994 232.200819 
L 328.482427 232.200819 
L 328.482427 232.308332 
L 328.58994 232.308332 
" clip-path="url(#p67136ba61c)" style="fill: #ff0000; fill-opacity: 0.7; stroke: #000000; stroke-opacity: 0.7; stroke-width: 0.5"/>
    <path d="M 347.584186 257.203261 
L 347.584186 257.095748 
L 347.476673 257.095748 
L 347.476673 257.203261 
L 347.584186 257.203261 
" clip-path="url(#p67136ba61c)" style="fill: #ff0000; fill-opacity: 0.7; stroke: #000000; stroke-opacity: 0.7; stroke-width: 0.5"/>
    <path d="M 341.688749 411.093185 
L 341.688749 410.985672 
L 341.581236 410.985672 
L 341.581236 411.093185 
L 341.688749 411.093185 
" clip-path="url(#p67136ba61c)" style="fill: #ff0000; fill-opacity: 0.7; stroke: #000000; stroke-opacity: 0.7; stroke-width: 0.5"/>
    <path d="M 341.688749 411.093185 
L 341.688749 410.985672 
L 341.581236 410.985672 
L 341.581236 411.093185 
L 341.688749 411.093185 
" clip-path="url(#p67136ba61c)" style="fill: #ff0000; fill-opacity: 0.7; stroke: #000000; stroke-opacity: 0.7; stroke-width: 0.5"/>
    <path d="M 367.515947 389.857058 
L 367.515947 389.749544 
L 367.408434 389.749544 
L 367.408434 389.857058 
L 367.515947 389.857058 
" clip-path="url(#p67136ba61c)" style="fill: #ff0000; fill-opacity: 0.7; stroke: #000000; stroke-opacity: 0.7; stroke-width: 0.5"/>
    <path d="M 363.160687 383.760112 
L 363.160687 383.652599 
L 363.053173 383.652599 
L 363.053173 383.760112 
L 363.160687 383.760112 
" clip-path="url(#p67136ba61c)" style="fill: #ff0000; fill-opacity: 0.7; stroke: #000000; stroke-opacity: 0.7; stroke-width: 0.5"/>
    <path d="M 365.336905 386.806753 
L 365.336905 386.69924 
L 365.229391 386.69924 
L 365.229391 386.806753 
L 365.336905 386.806753 
" clip-path="url(#p67136ba61c)" style="fill: #ff0000; fill-opacity: 0.7; stroke: #000000; stroke-opacity: 0.7; stroke-width: 0.5"/>
    <path d="M 291.37662 310.540786 
L 291.37662 310.433273 
L 291.269107 310.433273 
L 291.269107 310.540786 
L 291.37662 310.540786 
" clip-path="url(#p67136ba61c)" style="fill: #ff0000; fill-opacity: 0.7; stroke: #000000; stroke-opacity: 0.7; stroke-width: 0.5"/>
    <path d="M 374.472869 248.355622 
L 374.472869 248.248109 
L 374.365356 248.248109 
L 374.365356 248.355622 
L 374.472869 248.355622 
" clip-path="url(#p67136ba61c)" style="fill: #ff0000; fill-opacity: 0.7; stroke: #000000; stroke-opacity: 0.7; stroke-width: 0.5"/>
    <path d="M 305.448406 299.800606 
L 305.448406 299.693093 
L 305.340893 299.693093 
L 305.340893 299.800606 
L 305.448406 299.800606 
" clip-path="url(#p67136ba61c)" style="fill: #ff0000; fill-opacity: 0.7; stroke: #000000; stroke-opacity: 0.7; stroke-width: 0.5"/>
    <path d="M 266.368426 298.843721 
L 266.368426 298.736208 
L 266.260912 298.736208 
L 266.260912 298.843721 
L 266.368426 298.843721 
" clip-path="url(#p67136ba61c)" style="fill: #ff0000; fill-opacity: 0.7; stroke: #000000; stroke-opacity: 0.7; stroke-width: 0.5"/>
    <path d="M 381.829194 377.25818 
L 381.829194 377.150667 
L 381.721681 377.150667 
L 381.721681 377.25818 
L 381.829194 377.25818 
" clip-path="url(#p67136ba61c)" style="fill: #ff0000; fill-opacity: 0.7; stroke: #000000; stroke-opacity: 0.7; stroke-width: 0.5"/>
    <path d="M 299.037213 328.79849 
L 299.037213 328.690977 
L 298.9297 328.690977 
L 298.9297 328.79849 
L 299.037213 328.79849 
" clip-path="url(#p67136ba61c)" style="fill: #ff0000; fill-opacity: 0.7; stroke: #000000; stroke-opacity: 0.7; stroke-width: 0.5"/>
    <path d="M 407.76626 490.450875 
L 407.76626 490.343361 
L 407.658747 490.343361 
L 407.658747 490.450875 
L 407.76626 490.450875 
" clip-path="url(#p67136ba61c)" style="fill: #ff0000; fill-opacity: 0.7; stroke: #000000; stroke-opacity: 0.7; stroke-width: 0.5"/>
    <path d="M 345.068378 265.091343 
L 345.068378 264.98383 
L 344.960865 264.98383 
L 344.960865 265.091343 
L 345.068378 265.091343 
" clip-path="url(#p67136ba61c)" style="fill: #ff0000; fill-opacity: 0.7; stroke: #000000; stroke-opacity: 0.7; stroke-width: 0.5"/>
   </g>
   <g id="matplotlib.axis_1">
    <g id="xtick_1">
     <g id="line2d_1">
      <defs>
       <path id="m321e63569c" d="M 0 0 
L 0 3.5 
" style="stroke: #000000; stroke-width: 0.8"/>
      </defs>
      <g>
       <use xlink:href="#m321e63569c" x="206.145369" y="640.8" style="stroke: #000000; stroke-width: 0.8"/>
      </g>
     </g>
     <g id="text_1">
      <!-- 394500 -->
      <g transform="translate(187.057869 655.398438) scale(0.1 -0.1)">
       <defs>
        <path id="DejaVuSans-33" d="M 2597 2516 
Q 3050 2419 3304 2112 
Q 3559 1806 3559 1356 
Q 3559 666 3084 287 
Q 2609 -91 1734 -91 
Q 1441 -91 1130 -33 
Q 819 25 488 141 
L 488 750 
Q 750 597 1062 519 
Q 1375 441 1716 441 
Q 2309 441 2620 675 
Q 2931 909 2931 1356 
Q 2931 1769 2642 2001 
Q 2353 2234 1838 2234 
L 1294 2234 
L 1294 2753 
L 1863 2753 
Q 2328 2753 2575 2939 
Q 2822 3125 2822 3475 
Q 2822 3834 2567 4026 
Q 2313 4219 1838 4219 
Q 1578 4219 1281 4162 
Q 984 4106 628 3988 
L 628 4550 
Q 988 4650 1302 4700 
Q 1616 4750 1894 4750 
Q 2613 4750 3031 4423 
Q 3450 4097 3450 3541 
Q 3450 3153 3228 2886 
Q 3006 2619 2597 2516 
z
" transform="scale(0.015625)"/>
        <path id="DejaVuSans-39" d="M 703 97 
L 703 672 
Q 941 559 1184 500 
Q 1428 441 1663 441 
Q 2288 441 2617 861 
Q 2947 1281 2994 2138 
Q 2813 1869 2534 1725 
Q 2256 1581 1919 1581 
Q 1219 1581 811 2004 
Q 403 2428 403 3163 
Q 403 3881 828 4315 
Q 1253 4750 1959 4750 
Q 2769 4750 3195 4129 
Q 3622 3509 3622 2328 
Q 3622 1225 3098 567 
Q 2575 -91 1691 -91 
Q 1453 -91 1209 -44 
Q 966 3 703 97 
z
M 1959 2075 
Q 2384 2075 2632 2365 
Q 2881 2656 2881 3163 
Q 2881 3666 2632 3958 
Q 2384 4250 1959 4250 
Q 1534 4250 1286 3958 
Q 1038 3666 1038 3163 
Q 1038 2656 1286 2365 
Q 1534 2075 1959 2075 
z
" transform="scale(0.015625)"/>
        <path id="DejaVuSans-34" d="M 2419 4116 
L 825 1625 
L 2419 1625 
L 2419 4116 
z
M 2253 4666 
L 3047 4666 
L 3047 1625 
L 3713 1625 
L 3713 1100 
L 3047 1100 
L 3047 0 
L 2419 0 
L 2419 1100 
L 313 1100 
L 313 1709 
L 2253 4666 
z
" transform="scale(0.015625)"/>
        <path id="DejaVuSans-35" d="M 691 4666 
L 3169 4666 
L 3169 4134 
L 1269 4134 
L 1269 2991 
Q 1406 3038 1543 3061 
Q 1681 3084 1819 3084 
Q 2600 3084 3056 2656 
Q 3513 2228 3513 1497 
Q 3513 744 3044 326 
Q 2575 -91 1722 -91 
Q 1428 -91 1123 -41 
Q 819 9 494 109 
L 494 744 
Q 775 591 1075 516 
Q 1375 441 1709 441 
Q 2250 441 2565 725 
Q 2881 1009 2881 1497 
Q 2881 1984 2565 2268 
Q 2250 2553 1709 2553 
Q 1456 2553 1204 2497 
Q 953 2441 691 2322 
L 691 4666 
z
" transform="scale(0.015625)"/>
        <path id="DejaVuSans-30" d="M 2034 4250 
Q 1547 4250 1301 3770 
Q 1056 3291 1056 2328 
Q 1056 1369 1301 889 
Q 1547 409 2034 409 
Q 2525 409 2770 889 
Q 3016 1369 3016 2328 
Q 3016 3291 2770 3770 
Q 2525 4250 2034 4250 
z
M 2034 4750 
Q 2819 4750 3233 4129 
Q 3647 3509 3647 2328 
Q 3647 1150 3233 529 
Q 2819 -91 2034 -91 
Q 1250 -91 836 529 
Q 422 1150 422 2328 
Q 422 3509 836 4129 
Q 1250 4750 2034 4750 
z
" transform="scale(0.015625)"/>
       </defs>
       <use xlink:href="#DejaVuSans-33"/>
       <use xlink:href="#DejaVuSans-39" x="63.623047"/>
       <use xlink:href="#DejaVuSans-34" x="127.246094"/>
       <use xlink:href="#DejaVuSans-35" x="190.869141"/>
       <use xlink:href="#DejaVuSans-30" x="254.492188"/>
       <use xlink:href="#DejaVuSans-30" x="318.115234"/>
      </g>
     </g>
    </g>
    <g id="xtick_2">
     <g id="line2d_2">
      <g>
       <use xlink:href="#m321e63569c" x="259.901998" y="640.8" style="stroke: #000000; stroke-width: 0.8"/>
      </g>
     </g>
     <g id="text_2">
      <!-- 395000 -->
      <g transform="translate(240.814498 655.398438) scale(0.1 -0.1)">
       <use xlink:href="#DejaVuSans-33"/>
       <use xlink:href="#DejaVuSans-39" x="63.623047"/>
       <use xlink:href="#DejaVuSans-35" x="127.246094"/>
       <use xlink:href="#DejaVuSans-30" x="190.869141"/>
       <use xlink:href="#DejaVuSans-30" x="254.492188"/>
       <use xlink:href="#DejaVuSans-30" x="318.115234"/>
      </g>
     </g>
    </g>
    <g id="xtick_3">
     <g id="line2d_3">
      <g>
       <use xlink:href="#m321e63569c" x="313.658626" y="640.8" style="stroke: #000000; stroke-width: 0.8"/>
      </g>
     </g>
     <g id="text_3">
      <!-- 395500 -->
      <g transform="translate(294.571126 655.398438) scale(0.1 -0.1)">
       <use xlink:href="#DejaVuSans-33"/>
       <use xlink:href="#DejaVuSans-39" x="63.623047"/>
       <use xlink:href="#DejaVuSans-35" x="127.246094"/>
       <use xlink:href="#DejaVuSans-35" x="190.869141"/>
       <use xlink:href="#DejaVuSans-30" x="254.492188"/>
       <use xlink:href="#DejaVuSans-30" x="318.115234"/>
      </g>
     </g>
    </g>
    <g id="xtick_4">
     <g id="line2d_4">
      <g>
       <use xlink:href="#m321e63569c" x="367.415254" y="640.8" style="stroke: #000000; stroke-width: 0.8"/>
      </g>
     </g>
     <g id="text_4">
      <!-- 396000 -->
      <g transform="translate(348.327754 655.398438) scale(0.1 -0.1)">
       <defs>
        <path id="DejaVuSans-36" d="M 2113 2584 
Q 1688 2584 1439 2293 
Q 1191 2003 1191 1497 
Q 1191 994 1439 701 
Q 1688 409 2113 409 
Q 2538 409 2786 701 
Q 3034 994 3034 1497 
Q 3034 2003 2786 2293 
Q 2538 2584 2113 2584 
z
M 3366 4563 
L 3366 3988 
Q 3128 4100 2886 4159 
Q 2644 4219 2406 4219 
Q 1781 4219 1451 3797 
Q 1122 3375 1075 2522 
Q 1259 2794 1537 2939 
Q 1816 3084 2150 3084 
Q 2853 3084 3261 2657 
Q 3669 2231 3669 1497 
Q 3669 778 3244 343 
Q 2819 -91 2113 -91 
Q 1303 -91 875 529 
Q 447 1150 447 2328 
Q 447 3434 972 4092 
Q 1497 4750 2381 4750 
Q 2619 4750 2861 4703 
Q 3103 4656 3366 4563 
z
" transform="scale(0.015625)"/>
       </defs>
       <use xlink:href="#DejaVuSans-33"/>
       <use xlink:href="#DejaVuSans-39" x="63.623047"/>
       <use xlink:href="#DejaVuSans-36" x="127.246094"/>
       <use xlink:href="#DejaVuSans-30" x="190.869141"/>
       <use xlink:href="#DejaVuSans-30" x="254.492188"/>
       <use xlink:href="#DejaVuSans-30" x="318.115234"/>
      </g>
     </g>
    </g>
    <g id="xtick_5">
     <g id="line2d_5">
      <g>
       <use xlink:href="#m321e63569c" x="421.171883" y="640.8" style="stroke: #000000; stroke-width: 0.8"/>
      </g>
     </g>
     <g id="text_5">
      <!-- 396500 -->
      <g transform="translate(402.084383 655.398438) scale(0.1 -0.1)">
       <use xlink:href="#DejaVuSans-33"/>
       <use xlink:href="#DejaVuSans-39" x="63.623047"/>
       <use xlink:href="#DejaVuSans-36" x="127.246094"/>
       <use xlink:href="#DejaVuSans-35" x="190.869141"/>
       <use xlink:href="#DejaVuSans-30" x="254.492188"/>
       <use xlink:href="#DejaVuSans-30" x="318.115234"/>
      </g>
     </g>
    </g>
    <g id="xtick_6">
     <g id="line2d_6">
      <g>
       <use xlink:href="#m321e63569c" x="474.928511" y="640.8" style="stroke: #000000; stroke-width: 0.8"/>
      </g>
     </g>
     <g id="text_6">
      <!-- 397000 -->
      <g transform="translate(455.841011 655.398438) scale(0.1 -0.1)">
       <defs>
        <path id="DejaVuSans-37" d="M 525 4666 
L 3525 4666 
L 3525 4397 
L 1831 0 
L 1172 0 
L 2766 4134 
L 525 4134 
L 525 4666 
z
" transform="scale(0.015625)"/>
       </defs>
       <use xlink:href="#DejaVuSans-33"/>
       <use xlink:href="#DejaVuSans-39" x="63.623047"/>
       <use xlink:href="#DejaVuSans-37" x="127.246094"/>
       <use xlink:href="#DejaVuSans-30" x="190.869141"/>
       <use xlink:href="#DejaVuSans-30" x="254.492188"/>
       <use xlink:href="#DejaVuSans-30" x="318.115234"/>
      </g>
     </g>
    </g>
    <g id="xtick_7">
     <g id="line2d_7">
      <g>
       <use xlink:href="#m321e63569c" x="528.68514" y="640.8" style="stroke: #000000; stroke-width: 0.8"/>
      </g>
     </g>
     <g id="text_7">
      <!-- 397500 -->
      <g transform="translate(509.59764 655.398438) scale(0.1 -0.1)">
       <use xlink:href="#DejaVuSans-33"/>
       <use xlink:href="#DejaVuSans-39" x="63.623047"/>
       <use xlink:href="#DejaVuSans-37" x="127.246094"/>
       <use xlink:href="#DejaVuSans-35" x="190.869141"/>
       <use xlink:href="#DejaVuSans-30" x="254.492188"/>
       <use xlink:href="#DejaVuSans-30" x="318.115234"/>
      </g>
     </g>
    </g>
   </g>
   <g id="matplotlib.axis_2">
    <g id="ytick_1">
     <g id="line2d_8">
      <defs>
       <path id="mfb475fbd58" d="M 0 0 
L -3.5 0 
" style="stroke: #000000; stroke-width: 0.8"/>
      </defs>
      <g>
       <use xlink:href="#mfb475fbd58" x="184.947077" y="635.139365" style="stroke: #000000; stroke-width: 0.8"/>
      </g>
     </g>
     <g id="text_8">
      <!-- 5.816 -->
      <g transform="translate(149.318952 638.938584) scale(0.1 -0.1)">
       <defs>
        <path id="DejaVuSans-2e" d="M 684 794 
L 1344 794 
L 1344 0 
L 684 0 
L 684 794 
z
" transform="scale(0.015625)"/>
        <path id="DejaVuSans-38" d="M 2034 2216 
Q 1584 2216 1326 1975 
Q 1069 1734 1069 1313 
Q 1069 891 1326 650 
Q 1584 409 2034 409 
Q 2484 409 2743 651 
Q 3003 894 3003 1313 
Q 3003 1734 2745 1975 
Q 2488 2216 2034 2216 
z
M 1403 2484 
Q 997 2584 770 2862 
Q 544 3141 544 3541 
Q 544 4100 942 4425 
Q 1341 4750 2034 4750 
Q 2731 4750 3128 4425 
Q 3525 4100 3525 3541 
Q 3525 3141 3298 2862 
Q 3072 2584 2669 2484 
Q 3125 2378 3379 2068 
Q 3634 1759 3634 1313 
Q 3634 634 3220 271 
Q 2806 -91 2034 -91 
Q 1263 -91 848 271 
Q 434 634 434 1313 
Q 434 1759 690 2068 
Q 947 2378 1403 2484 
z
M 1172 3481 
Q 1172 3119 1398 2916 
Q 1625 2713 2034 2713 
Q 2441 2713 2670 2916 
Q 2900 3119 2900 3481 
Q 2900 3844 2670 4047 
Q 2441 4250 2034 4250 
Q 1625 4250 1398 4047 
Q 1172 3844 1172 3481 
z
" transform="scale(0.015625)"/>
        <path id="DejaVuSans-31" d="M 794 531 
L 1825 531 
L 1825 4091 
L 703 3866 
L 703 4441 
L 1819 4666 
L 2450 4666 
L 2450 531 
L 3481 531 
L 3481 0 
L 794 0 
L 794 531 
z
" transform="scale(0.015625)"/>
       </defs>
       <use xlink:href="#DejaVuSans-35"/>
       <use xlink:href="#DejaVuSans-2e" x="63.623047"/>
       <use xlink:href="#DejaVuSans-38" x="95.410156"/>
       <use xlink:href="#DejaVuSans-31" x="159.033203"/>
       <use xlink:href="#DejaVuSans-36" x="222.65625"/>
      </g>
     </g>
    </g>
    <g id="ytick_2">
     <g id="line2d_9">
      <g>
       <use xlink:href="#mfb475fbd58" x="184.947077" y="527.626108" style="stroke: #000000; stroke-width: 0.8"/>
      </g>
     </g>
     <g id="text_9">
      <!-- 5.817 -->
      <g transform="translate(149.318952 531.425327) scale(0.1 -0.1)">
       <use xlink:href="#DejaVuSans-35"/>
       <use xlink:href="#DejaVuSans-2e" x="63.623047"/>
       <use xlink:href="#DejaVuSans-38" x="95.410156"/>
       <use xlink:href="#DejaVuSans-31" x="159.033203"/>
       <use xlink:href="#DejaVuSans-37" x="222.65625"/>
      </g>
     </g>
    </g>
    <g id="ytick_3">
     <g id="line2d_10">
      <g>
       <use xlink:href="#mfb475fbd58" x="184.947077" y="420.112852" style="stroke: #000000; stroke-width: 0.8"/>
      </g>
     </g>
     <g id="text_10">
      <!-- 5.818 -->
      <g transform="translate(149.318952 423.91207) scale(0.1 -0.1)">
       <use xlink:href="#DejaVuSans-35"/>
       <use xlink:href="#DejaVuSans-2e" x="63.623047"/>
       <use xlink:href="#DejaVuSans-38" x="95.410156"/>
       <use xlink:href="#DejaVuSans-31" x="159.033203"/>
       <use xlink:href="#DejaVuSans-38" x="222.65625"/>
      </g>
     </g>
    </g>
    <g id="ytick_4">
     <g id="line2d_11">
      <g>
       <use xlink:href="#mfb475fbd58" x="184.947077" y="312.599595" style="stroke: #000000; stroke-width: 0.8"/>
      </g>
     </g>
     <g id="text_11">
      <!-- 5.819 -->
      <g transform="translate(149.318952 316.398814) scale(0.1 -0.1)">
       <use xlink:href="#DejaVuSans-35"/>
       <use xlink:href="#DejaVuSans-2e" x="63.623047"/>
       <use xlink:href="#DejaVuSans-38" x="95.410156"/>
       <use xlink:href="#DejaVuSans-31" x="159.033203"/>
       <use xlink:href="#DejaVuSans-39" x="222.65625"/>
      </g>
     </g>
    </g>
    <g id="ytick_5">
     <g id="line2d_12">
      <g>
       <use xlink:href="#mfb475fbd58" x="184.947077" y="205.086338" style="stroke: #000000; stroke-width: 0.8"/>
      </g>
     </g>
     <g id="text_12">
      <!-- 5.820 -->
      <g transform="translate(149.318952 208.885557) scale(0.1 -0.1)">
       <defs>
        <path id="DejaVuSans-32" d="M 1228 531 
L 3431 531 
L 3431 0 
L 469 0 
L 469 531 
Q 828 903 1448 1529 
Q 2069 2156 2228 2338 
Q 2531 2678 2651 2914 
Q 2772 3150 2772 3378 
Q 2772 3750 2511 3984 
Q 2250 4219 1831 4219 
Q 1534 4219 1204 4116 
Q 875 4013 500 3803 
L 500 4441 
Q 881 4594 1212 4672 
Q 1544 4750 1819 4750 
Q 2544 4750 2975 4387 
Q 3406 4025 3406 3419 
Q 3406 3131 3298 2873 
Q 3191 2616 2906 2266 
Q 2828 2175 2409 1742 
Q 1991 1309 1228 531 
z
" transform="scale(0.015625)"/>
       </defs>
       <use xlink:href="#DejaVuSans-35"/>
       <use xlink:href="#DejaVuSans-2e" x="63.623047"/>
       <use xlink:href="#DejaVuSans-38" x="95.410156"/>
       <use xlink:href="#DejaVuSans-32" x="159.033203"/>
       <use xlink:href="#DejaVuSans-30" x="222.65625"/>
      </g>
     </g>
    </g>
    <g id="ytick_6">
     <g id="line2d_13">
      <g>
       <use xlink:href="#mfb475fbd58" x="184.947077" y="97.573081" style="stroke: #000000; stroke-width: 0.8"/>
      </g>
     </g>
     <g id="text_13">
      <!-- 5.821 -->
      <g transform="translate(149.318952 101.3723) scale(0.1 -0.1)">
       <use xlink:href="#DejaVuSans-35"/>
       <use xlink:href="#DejaVuSans-2e" x="63.623047"/>
       <use xlink:href="#DejaVuSans-38" x="95.410156"/>
       <use xlink:href="#DejaVuSans-32" x="159.033203"/>
       <use xlink:href="#DejaVuSans-31" x="222.65625"/>
      </g>
     </g>
    </g>
    <g id="text_14">
     <!-- 1e6 -->
     <g transform="translate(184.947077 83.4) scale(0.1 -0.1)">
      <defs>
       <path id="DejaVuSans-65" d="M 3597 1894 
L 3597 1613 
L 953 1613 
Q 991 1019 1311 708 
Q 1631 397 2203 397 
Q 2534 397 2845 478 
Q 3156 559 3463 722 
L 3463 178 
Q 3153 47 2828 -22 
Q 2503 -91 2169 -91 
Q 1331 -91 842 396 
Q 353 884 353 1716 
Q 353 2575 817 3079 
Q 1281 3584 2069 3584 
Q 2775 3584 3186 3129 
Q 3597 2675 3597 1894 
z
M 3022 2063 
Q 3016 2534 2758 2815 
Q 2500 3097 2075 3097 
Q 1594 3097 1305 2825 
Q 1016 2553 972 2059 
L 3022 2063 
z
" transform="scale(0.015625)"/>
      </defs>
      <use xlink:href="#DejaVuSans-31"/>
      <use xlink:href="#DejaVuSans-65" x="63.623047"/>
      <use xlink:href="#DejaVuSans-36" x="125.146484"/>
     </g>
    </g>
   </g>
   <g id="patch_3">
    <path d="M 184.947077 640.8 
L 184.947077 86.4 
" style="fill: none; stroke: #000000; stroke-width: 0.8; stroke-linejoin: miter; stroke-linecap: square"/>
   </g>
   <g id="patch_4">
    <path d="M 553.052923 640.8 
L 553.052923 86.4 
" style="fill: none; stroke: #000000; stroke-width: 0.8; stroke-linejoin: miter; stroke-linecap: square"/>
   </g>
   <g id="patch_5">
    <path d="M 184.947077 640.8 
L 553.052923 640.8 
" style="fill: none; stroke: #000000; stroke-width: 0.8; stroke-linejoin: miter; stroke-linecap: square"/>
   </g>
   <g id="patch_6">
    <path d="M 184.947077 86.4 
L 553.052923 86.4 
" style="fill: none; stroke: #000000; stroke-width: 0.8; stroke-linejoin: miter; stroke-linecap: square"/>
   </g>
   <g id="text_15">
    <!-- Friedrichshain_Ost -->
    <g transform="translate(287.298966 372.44995) scale(0.12 -0.12)">
     <defs>
      <path id="DejaVuSans-46" d="M 628 4666 
L 3309 4666 
L 3309 4134 
L 1259 4134 
L 1259 2759 
L 3109 2759 
L 3109 2228 
L 1259 2228 
L 1259 0 
L 628 0 
L 628 4666 
z
" transform="scale(0.015625)"/>
      <path id="DejaVuSans-72" d="M 2631 2963 
Q 2534 3019 2420 3045 
Q 2306 3072 2169 3072 
Q 1681 3072 1420 2755 
Q 1159 2438 1159 1844 
L 1159 0 
L 581 0 
L 581 3500 
L 1159 3500 
L 1159 2956 
Q 1341 3275 1631 3429 
Q 1922 3584 2338 3584 
Q 2397 3584 2469 3576 
Q 2541 3569 2628 3553 
L 2631 2963 
z
" transform="scale(0.015625)"/>
      <path id="DejaVuSans-69" d="M 603 3500 
L 1178 3500 
L 1178 0 
L 603 0 
L 603 3500 
z
M 603 4863 
L 1178 4863 
L 1178 4134 
L 603 4134 
L 603 4863 
z
" transform="scale(0.015625)"/>
      <path id="DejaVuSans-64" d="M 2906 2969 
L 2906 4863 
L 3481 4863 
L 3481 0 
L 2906 0 
L 2906 525 
Q 2725 213 2448 61 
Q 2172 -91 1784 -91 
Q 1150 -91 751 415 
Q 353 922 353 1747 
Q 353 2572 751 3078 
Q 1150 3584 1784 3584 
Q 2172 3584 2448 3432 
Q 2725 3281 2906 2969 
z
M 947 1747 
Q 947 1113 1208 752 
Q 1469 391 1925 391 
Q 2381 391 2643 752 
Q 2906 1113 2906 1747 
Q 2906 2381 2643 2742 
Q 2381 3103 1925 3103 
Q 1469 3103 1208 2742 
Q 947 2381 947 1747 
z
" transform="scale(0.015625)"/>
      <path id="DejaVuSans-63" d="M 3122 3366 
L 3122 2828 
Q 2878 2963 2633 3030 
Q 2388 3097 2138 3097 
Q 1578 3097 1268 2742 
Q 959 2388 959 1747 
Q 959 1106 1268 751 
Q 1578 397 2138 397 
Q 2388 397 2633 464 
Q 2878 531 3122 666 
L 3122 134 
Q 2881 22 2623 -34 
Q 2366 -91 2075 -91 
Q 1284 -91 818 406 
Q 353 903 353 1747 
Q 353 2603 823 3093 
Q 1294 3584 2113 3584 
Q 2378 3584 2631 3529 
Q 2884 3475 3122 3366 
z
" transform="scale(0.015625)"/>
      <path id="DejaVuSans-68" d="M 3513 2113 
L 3513 0 
L 2938 0 
L 2938 2094 
Q 2938 2591 2744 2837 
Q 2550 3084 2163 3084 
Q 1697 3084 1428 2787 
Q 1159 2491 1159 1978 
L 1159 0 
L 581 0 
L 581 4863 
L 1159 4863 
L 1159 2956 
Q 1366 3272 1645 3428 
Q 1925 3584 2291 3584 
Q 2894 3584 3203 3211 
Q 3513 2838 3513 2113 
z
" transform="scale(0.015625)"/>
      <path id="DejaVuSans-73" d="M 2834 3397 
L 2834 2853 
Q 2591 2978 2328 3040 
Q 2066 3103 1784 3103 
Q 1356 3103 1142 2972 
Q 928 2841 928 2578 
Q 928 2378 1081 2264 
Q 1234 2150 1697 2047 
L 1894 2003 
Q 2506 1872 2764 1633 
Q 3022 1394 3022 966 
Q 3022 478 2636 193 
Q 2250 -91 1575 -91 
Q 1294 -91 989 -36 
Q 684 19 347 128 
L 347 722 
Q 666 556 975 473 
Q 1284 391 1588 391 
Q 1994 391 2212 530 
Q 2431 669 2431 922 
Q 2431 1156 2273 1281 
Q 2116 1406 1581 1522 
L 1381 1569 
Q 847 1681 609 1914 
Q 372 2147 372 2553 
Q 372 3047 722 3315 
Q 1072 3584 1716 3584 
Q 2034 3584 2315 3537 
Q 2597 3491 2834 3397 
z
" transform="scale(0.015625)"/>
      <path id="DejaVuSans-61" d="M 2194 1759 
Q 1497 1759 1228 1600 
Q 959 1441 959 1056 
Q 959 750 1161 570 
Q 1363 391 1709 391 
Q 2188 391 2477 730 
Q 2766 1069 2766 1631 
L 2766 1759 
L 2194 1759 
z
M 3341 1997 
L 3341 0 
L 2766 0 
L 2766 531 
Q 2569 213 2275 61 
Q 1981 -91 1556 -91 
Q 1019 -91 701 211 
Q 384 513 384 1019 
Q 384 1609 779 1909 
Q 1175 2209 1959 2209 
L 2766 2209 
L 2766 2266 
Q 2766 2663 2505 2880 
Q 2244 3097 1772 3097 
Q 1472 3097 1187 3025 
Q 903 2953 641 2809 
L 641 3341 
Q 956 3463 1253 3523 
Q 1550 3584 1831 3584 
Q 2591 3584 2966 3190 
Q 3341 2797 3341 1997 
z
" transform="scale(0.015625)"/>
      <path id="DejaVuSans-6e" d="M 3513 2113 
L 3513 0 
L 2938 0 
L 2938 2094 
Q 2938 2591 2744 2837 
Q 2550 3084 2163 3084 
Q 1697 3084 1428 2787 
Q 1159 2491 1159 1978 
L 1159 0 
L 581 0 
L 581 3500 
L 1159 3500 
L 1159 2956 
Q 1366 3272 1645 3428 
Q 1925 3584 2291 3584 
Q 2894 3584 3203 3211 
Q 3513 2838 3513 2113 
z
" transform="scale(0.015625)"/>
      <path id="DejaVuSans-5f" d="M 3263 -1063 
L 3263 -1509 
L -63 -1509 
L -63 -1063 
L 3263 -1063 
z
" transform="scale(0.015625)"/>
      <path id="DejaVuSans-4f" d="M 2522 4238 
Q 1834 4238 1429 3725 
Q 1025 3213 1025 2328 
Q 1025 1447 1429 934 
Q 1834 422 2522 422 
Q 3209 422 3611 934 
Q 4013 1447 4013 2328 
Q 4013 3213 3611 3725 
Q 3209 4238 2522 4238 
z
M 2522 4750 
Q 3503 4750 4090 4092 
Q 4678 3434 4678 2328 
Q 4678 1225 4090 567 
Q 3503 -91 2522 -91 
Q 1538 -91 948 565 
Q 359 1222 359 2328 
Q 359 3434 948 4092 
Q 1538 4750 2522 4750 
z
" transform="scale(0.015625)"/>
      <path id="DejaVuSans-74" d="M 1172 4494 
L 1172 3500 
L 2356 3500 
L 2356 3053 
L 1172 3053 
L 1172 1153 
Q 1172 725 1289 603 
Q 1406 481 1766 481 
L 2356 481 
L 2356 0 
L 1766 0 
Q 1100 0 847 248 
Q 594 497 594 1153 
L 594 3053 
L 172 3053 
L 172 3500 
L 594 3500 
L 594 4494 
L 1172 4494 
z
" transform="scale(0.015625)"/>
     </defs>
     <use xlink:href="#DejaVuSans-46"/>
     <use xlink:href="#DejaVuSans-72" x="50.269531"/>
     <use xlink:href="#DejaVuSans-69" x="91.382812"/>
     <use xlink:href="#DejaVuSans-65" x="119.166016"/>
     <use xlink:href="#DejaVuSans-64" x="180.689453"/>
     <use xlink:href="#DejaVuSans-72" x="244.166016"/>
     <use xlink:href="#DejaVuSans-69" x="285.279297"/>
     <use xlink:href="#DejaVuSans-63" x="313.0625"/>
     <use xlink:href="#DejaVuSans-68" x="368.042969"/>
     <use xlink:href="#DejaVuSans-73" x="431.421875"/>
     <use xlink:href="#DejaVuSans-68" x="483.521484"/>
     <use xlink:href="#DejaVuSans-61" x="546.900391"/>
     <use xlink:href="#DejaVuSans-69" x="608.179688"/>
     <use xlink:href="#DejaVuSans-6e" x="635.962891"/>
     <use xlink:href="#DejaVuSans-5f" x="699.341797"/>
     <use xlink:href="#DejaVuSans-4f" x="749.341797"/>
     <use xlink:href="#DejaVuSans-73" x="828.052734"/>
     <use xlink:href="#DejaVuSans-74" x="880.152344"/>
    </g>
   </g>
  </g>
 </g>
 <defs>
  <clipPath id="p67136ba61c">
   <rect x="184.947077" y="86.4" width="368.105845" height="554.4"/>
  </clipPath>
 </defs>
</svg>
