<?xml version="1.0" encoding="utf-8" standalone="no"?>
<!DOCTYPE svg PUBLIC "-//W3C//DTD SVG 1.1//EN"
  "http://www.w3.org/Graphics/SVG/1.1/DTD/svg11.dtd">
<svg xmlns:xlink="http://www.w3.org/1999/xlink" width="720pt" height="720pt" viewBox="0 0 720 720" xmlns="http://www.w3.org/2000/svg" version="1.1">
 <metadata>
  <rdf:RDF xmlns:dc="http://purl.org/dc/elements/1.1/" xmlns:cc="http://creativecommons.org/ns#" xmlns:rdf="http://www.w3.org/1999/02/22-rdf-syntax-ns#">
   <cc:Work>
    <dc:type rdf:resource="http://purl.org/dc/dcmitype/StillImage"/>
    <dc:date>2024-10-15T13:01:15.526984</dc:date>
    <dc:format>image/svg+xml</dc:format>
    <dc:creator>
     <cc:Agent>
      <dc:title>Matplotlib v3.9.2, https://matplotlib.org/</dc:title>
     </cc:Agent>
    </dc:creator>
   </cc:Work>
  </rdf:RDF>
 </metadata>
 <defs>
  <style type="text/css">*{stroke-linejoin: round; stroke-linecap: butt}</style>
 </defs>
 <g id="figure_1">
  <g id="patch_1">
   <path d="M 0 720 
L 720 720 
L 720 0 
L 0 0 
z
" style="fill: #ffffff"/>
  </g>
  <g id="axes_1">
   <g id="patch_2">
    <path d="M 136.550827 640.8 
L 601.449173 640.8 
L 601.449173 86.4 
L 136.550827 86.4 
z
" style="fill: #ffffff"/>
   </g>
   <g id="PatchCollection_1">
    <path d="M 205.107247 588.666147 
L 206.211187 591.946194 
L 208.233812 597.955978 
L 209.006901 599.556415 
L 210.340999 600.93082 
L 210.363476 600.953977 
L 224.585984 615.6 
L 225.812224 613.590202 
L 228.582211 609.050078 
L 229.814422 607.03055 
L 232.272356 606.414629 
L 243.755324 603.537307 
L 249.547489 605.196203 
L 256.822952 602.53392 
L 261.53403 602.049292 
L 263.470846 601.85003 
L 264.969919 602.736573 
L 266.543817 603.667274 
L 268.004262 604.53089 
L 269.189145 603.357802 
L 274.641688 597.959516 
L 275.968185 596.646141 
L 277.947094 596.362618 
L 290.14801 594.614154 
L 348.734387 588.470644 
L 352.639718 588.061136 
L 355.137903 585.973934 
L 381.631581 563.838589 
L 383.352548 562.400777 
L 384.72711 560.675755 
L 396.662638 545.697628 
L 401.175412 540.034029 
L 418.426513 520.429453 
L 420.629085 517.926255 
L 421.32536 517.461015 
L 423.342456 516.113287 
L 442.730814 503.15867 
L 444.822144 501.727713 
L 464.813375 488.046965 
L 467.15476 486.444685 
L 470.353275 486.684787 
L 497.831026 488.747662 
L 499.985681 488.909402 
L 501.067727 487.274981 
L 519.795121 458.987354 
L 537.968519 438.561771 
L 540.88668 435.281724 
L 541.787156 431.492132 
L 546.815373 410.330024 
L 547.719461 405.980463 
L 548.356834 402.913684 
L 548.975336 399.87197 
L 556.037751 365.141314 
L 557.136383 359.738458 
L 557.459714 354.264832 
L 558.019904 344.778688 
L 558.223589 341.330635 
L 557.936233 338.817927 
L 557.066645 331.2153 
L 556.246228 324.041127 
L 554.213209 306.264632 
L 553.922978 303.727228 
L 555.049771 301.380019 
L 563.636397 283.492504 
L 567.903098 274.602745 
L 569.351232 271.585505 
L 569.043898 268.548509 
L 567.923592 257.478957 
L 555.169785 234.238051 
L 553.531309 221.640602 
L 552.853538 216.429193 
L 554.592566 211.171563 
L 558.014817 200.825341 
L 565.887551 190.200977 
L 568.303318 186.940834 
L 568.309142 182.804837 
L 568.327203 170.134037 
L 570.129334 154.752668 
L 570.783737 149.167505 
L 576.065547 144.163026 
L 580.31743 140.134437 
L 576.701003 138.800421 
L 553.417856 130.211877 
L 549.500656 128.766914 
L 549.320488 128.742881 
L 549.281036 128.737661 
L 544.24686 128.071597 
L 543.320066 127.965589 
L 541.632936 127.758882 
L 540.868103 127.66548 
L 532.792717 126.683692 
L 528.550343 126.450814 
L 527.391925 126.387268 
L 522.929279 126.014988 
L 521.754643 125.935372 
L 521.625118 125.924019 
L 521.393346 125.886128 
L 520.713953 125.774959 
L 520.687414 125.770684 
L 520.650629 125.766998 
L 520.404113 125.742449 
L 520.400938 125.742145 
L 520.317346 125.734119 
L 517.349866 125.431503 
L 515.496058 125.242341 
L 514.580175 125.187273 
L 514.098495 125.158375 
L 512.622201 125.070649 
L 510.298877 124.514957 
L 509.083695 124.22362 
L 505.388758 123.615439 
L 505.008737 123.552852 
L 502.682907 123.254438 
L 494.32879 122.182491 
L 481.585303 120.471476 
L 473.913675 119.454598 
L 470.613355 118.987958 
L 463.224807 118.353902 
L 460.40167 117.957073 
L 459.443545 117.822757 
L 458.969017 117.761939 
L 455.864052 117.363857 
L 455.651447 117.336655 
L 442.969147 115.710785 
L 431.125104 114.249899 
L 419.299197 112.879981 
L 412.084626 112.037153 
L 411.825725 112.007149 
L 411.559674 111.976335 
L 411.097678 111.921783 
L 410.445634 111.84482 
L 410.269225 111.823737 
L 409.93373 111.78356 
L 409.796982 111.766973 
L 409.479769 111.73122 
L 408.90373 111.666273 
L 408.599345 111.632068 
L 408.511914 111.617914 
L 408.384676 111.6 
L 408.001559 112.0359 
L 403.567221 117.080261 
L 400.142021 120.976819 
L 398.530232 122.81006 
L 398.237347 123.143269 
L 395.761867 125.92107 
L 393.146248 128.855966 
L 388.470112 134.102907 
L 384.13758 138.964224 
L 383.945985 139.179336 
L 383.308833 139.613097 
L 379.458865 144.039031 
L 377.511876 146.201427 
L 375.767171 147.769648 
L 375.590983 147.928365 
L 375.193933 148.285975 
L 371.530179 151.587843 
L 370.171393 153.032144 
L 369.11854 154.151343 
L 367.629714 155.953917 
L 367.323412 156.324797 
L 363.039977 161.511509 
L 360.116581 165.059083 
L 359.771134 165.478248 
L 356.244055 169.758513 
L 353.993492 172.535724 
L 353.675763 172.927909 
L 351.612298 175.47438 
L 346.949211 181.06861 
L 342.455677 186.462251 
L 334.975202 195.521342 
L 328.922367 202.781545 
L 328.848501 202.870008 
L 328.775519 202.957438 
L 328.367854 203.446342 
L 328.029337 203.852459 
L 323.226405 209.645509 
L 320.903007 212.447858 
L 318.623472 215.220056 
L 314.054229 220.718968 
L 304.569485 232.159547 
L 304.096874 232.728657 
L 302.779812 234.308231 
L 299.918267 237.752672 
L 296.567744 241.775584 
L 295.193551 243.427772 
L 291.702299 247.674568 
L 290.539826 249.087907 
L 285.773385 254.856629 
L 281.025963 260.587977 
L 276.279647 266.319988 
L 271.55987 271.993982 
L 266.802275 277.588433 
L 266.583036 277.849545 
L 265.581491 279.051237 
L 260.650509 284.959731 
L 259.243732 286.642585 
L 257.13928 288.633879 
L 251.720942 293.510014 
L 250.180439 294.836659 
L 248.699869 295.915829 
L 237.061355 298.961524 
L 233.983813 299.5369 
L 227.997546 300.812605 
L 226.922135 301.113083 
L 224.315289 301.834349 
L 223.106299 302.146032 
L 220.494808 302.943375 
L 220.116184 302.807666 
L 219.597871 302.621887 
L 219.104912 302.997264 
L 216.007762 303.672603 
L 213.712746 304.188487 
L 212.638514 304.429769 
L 208.757363 305.435884 
L 207.285418 305.578899 
L 205.445764 305.757004 
L 205.405071 306.377938 
L 205.364083 307.003074 
L 205.327445 307.562231 
L 204.609055 318.474762 
L 204.275256 324.497225 
L 204.197925 325.868028 
L 204.195713 325.906288 
L 204.156421 326.578604 
L 204.151777 328.217964 
L 204.058891 328.723381 
L 203.935338 329.753012 
L 203.737182 330.2874 
L 203.734012 330.300596 
L 203.069952 332.852522 
L 203.053292 332.915626 
L 202.966893 333.581086 
L 202.616286 336.281261 
L 202.285583 338.823382 
L 196.794486 351.806529 
L 186.050624 364.775226 
L 184.284393 366.906734 
L 184.86434 376.607695 
L 174.103227 385.945664 
L 167.216632 400.444397 
L 169.261225 408.684176 
L 171.170101 416.380353 
L 170.330591 431.65306 
L 165.732966 446.846298 
L 172.905075 453.350957 
L 174.746351 455.020394 
L 174.904478 455.163851 
L 175.067544 455.311657 
L 175.153721 455.621719 
L 175.286268 456.09868 
L 175.327772 456.363921 
L 175.452725 457.15227 
L 175.58424 457.991412 
L 175.704254 459.222517 
L 175.846163 462.012482 
L 175.861865 462.232459 
L 175.946347 463.509122 
L 176.030165 464.75357 
L 176.114794 466.009814 
L 175.997213 466.803987 
L 175.913321 467.370664 
L 175.754014 468.447107 
L 175.652651 469.131882 
L 175.44668 470.522588 
L 175.43142 470.626163 
L 175.42051 470.699808 
L 175.369865 471.041864 
L 175.166327 472.335114 
L 175.117894 472.670609 
L 174.933965 473.797696 
L 174.755713 474.945426 
L 174.731607 475.100678 
L 174.645798 475.726477 
L 174.566845 476.090206 
L 174.537358 476.226144 
L 174.134853 478.080837 
L 173.886494 479.604753 
L 173.82715 480.069403 
L 173.287454 482.940679 
L 173.152918 483.69792 
L 172.943187 485.675428 
L 172.907286 486.013577 
L 172.366558 491.112048 
L 172.183588 492.837585 
L 172.093135 493.118159 
L 171.265493 495.686083 
L 171.064314 496.310187 
L 170.159931 499.116148 
L 168.542023 502.978353 
L 167.082979 506.023532 
L 163.455126 512.081012 
L 163.297884 512.330403 
L 160.960996 516.035661 
L 159.103575 519.837933 
L 157.780911 522.926385 
L 157.68257 523.440132 
L 161.352001 528.647117 
L 164.799758 533.532983 
L 168.471327 538.735987 
L 172.173783 543.969732 
L 175.696366 548.94922 
L 176.857365 550.609664 
L 178.674903 553.208992 
L 182.874446 559.193195 
L 187.014277 565.092326 
L 193.232906 569.179743 
L 196.761386 572.150613 
L 200.867527 575.611935 
L 204.931059 579.037357 
L 205.504887 580.976753 
L 204.845324 585.037557 
L 204.798955 586.231213 
L 204.745287 587.590441 
L 204.87975 587.990071 
L 204.988854 588.31436 
L 205.107247 588.666147 
" clip-path="url(#p7e2571b548)" style="fill: #d3d3d3"/>
   </g>
   <g id="PatchCollection_2">
    <path d="M 283.874817 363.008295 
L 283.874817 362.934576 
L 283.801098 362.934576 
L 283.801098 363.008295 
L 283.874817 363.008295 
" clip-path="url(#p7e2571b548)" style="fill: #ff0000; fill-opacity: 0.7; stroke: #000000; stroke-opacity: 0.7; stroke-width: 0.5"/>
    <path d="M 331.55338 490.953993 
L 331.55338 490.880274 
L 331.479662 490.880274 
L 331.479662 490.953993 
L 331.55338 490.953993 
" clip-path="url(#p7e2571b548)" style="fill: #ff0000; fill-opacity: 0.7; stroke: #000000; stroke-opacity: 0.7; stroke-width: 0.5"/>
    <path d="M 336.439545 492.055783 
L 336.439545 491.982064 
L 336.365826 491.982064 
L 336.365826 492.055783 
L 336.439545 492.055783 
" clip-path="url(#p7e2571b548)" style="fill: #ff0000; fill-opacity: 0.7; stroke: #000000; stroke-opacity: 0.7; stroke-width: 0.5"/>
    <path d="M 315.793662 509.659012 
L 315.793662 509.585293 
L 315.719943 509.585293 
L 315.719943 509.659012 
L 315.793662 509.659012 
" clip-path="url(#p7e2571b548)" style="fill: #ff0000; fill-opacity: 0.7; stroke: #000000; stroke-opacity: 0.7; stroke-width: 0.5"/>
    <path d="M 336.389506 514.321075 
L 336.389506 514.247356 
L 336.315787 514.247356 
L 336.315787 514.321075 
L 336.389506 514.321075 
" clip-path="url(#p7e2571b548)" style="fill: #ff0000; fill-opacity: 0.7; stroke: #000000; stroke-opacity: 0.7; stroke-width: 0.5"/>
    <path d="M 423.28876 430.961071 
L 423.28876 430.887352 
L 423.215041 430.887352 
L 423.215041 430.961071 
L 423.28876 430.961071 
" clip-path="url(#p7e2571b548)" style="fill: #ff0000; fill-opacity: 0.7; stroke: #000000; stroke-opacity: 0.7; stroke-width: 0.5"/>
   </g>
   <g id="matplotlib.axis_1">
    <g id="xtick_1">
     <g id="line2d_1">
      <defs>
       <path id="m58996476d5" d="M 0 0 
L 0 3.5 
" style="stroke: #000000; stroke-width: 0.8"/>
      </defs>
      <g>
       <use xlink:href="#m58996476d5" x="193.398773" y="640.8" style="stroke: #000000; stroke-width: 0.8"/>
      </g>
     </g>
     <g id="text_1">
      <!-- 372000 -->
      <g transform="translate(174.311273 655.398438) scale(0.1 -0.1)">
       <defs>
        <path id="DejaVuSans-33" d="M 2597 2516 
Q 3050 2419 3304 2112 
Q 3559 1806 3559 1356 
Q 3559 666 3084 287 
Q 2609 -91 1734 -91 
Q 1441 -91 1130 -33 
Q 819 25 488 141 
L 488 750 
Q 750 597 1062 519 
Q 1375 441 1716 441 
Q 2309 441 2620 675 
Q 2931 909 2931 1356 
Q 2931 1769 2642 2001 
Q 2353 2234 1838 2234 
L 1294 2234 
L 1294 2753 
L 1863 2753 
Q 2328 2753 2575 2939 
Q 2822 3125 2822 3475 
Q 2822 3834 2567 4026 
Q 2313 4219 1838 4219 
Q 1578 4219 1281 4162 
Q 984 4106 628 3988 
L 628 4550 
Q 988 4650 1302 4700 
Q 1616 4750 1894 4750 
Q 2613 4750 3031 4423 
Q 3450 4097 3450 3541 
Q 3450 3153 3228 2886 
Q 3006 2619 2597 2516 
z
" transform="scale(0.015625)"/>
        <path id="DejaVuSans-37" d="M 525 4666 
L 3525 4666 
L 3525 4397 
L 1831 0 
L 1172 0 
L 2766 4134 
L 525 4134 
L 525 4666 
z
" transform="scale(0.015625)"/>
        <path id="DejaVuSans-32" d="M 1228 531 
L 3431 531 
L 3431 0 
L 469 0 
L 469 531 
Q 828 903 1448 1529 
Q 2069 2156 2228 2338 
Q 2531 2678 2651 2914 
Q 2772 3150 2772 3378 
Q 2772 3750 2511 3984 
Q 2250 4219 1831 4219 
Q 1534 4219 1204 4116 
Q 875 4013 500 3803 
L 500 4441 
Q 881 4594 1212 4672 
Q 1544 4750 1819 4750 
Q 2544 4750 2975 4387 
Q 3406 4025 3406 3419 
Q 3406 3131 3298 2873 
Q 3191 2616 2906 2266 
Q 2828 2175 2409 1742 
Q 1991 1309 1228 531 
z
" transform="scale(0.015625)"/>
        <path id="DejaVuSans-30" d="M 2034 4250 
Q 1547 4250 1301 3770 
Q 1056 3291 1056 2328 
Q 1056 1369 1301 889 
Q 1547 409 2034 409 
Q 2525 409 2770 889 
Q 3016 1369 3016 2328 
Q 3016 3291 2770 3770 
Q 2525 4250 2034 4250 
z
M 2034 4750 
Q 2819 4750 3233 4129 
Q 3647 3509 3647 2328 
Q 3647 1150 3233 529 
Q 2819 -91 2034 -91 
Q 1250 -91 836 529 
Q 422 1150 422 2328 
Q 422 3509 836 4129 
Q 1250 4750 2034 4750 
z
" transform="scale(0.015625)"/>
       </defs>
       <use xlink:href="#DejaVuSans-33"/>
       <use xlink:href="#DejaVuSans-37" x="63.623047"/>
       <use xlink:href="#DejaVuSans-32" x="127.246094"/>
       <use xlink:href="#DejaVuSans-30" x="190.869141"/>
       <use xlink:href="#DejaVuSans-30" x="254.492188"/>
       <use xlink:href="#DejaVuSans-30" x="318.115234"/>
      </g>
     </g>
    </g>
    <g id="xtick_2">
     <g id="line2d_2">
      <g>
       <use xlink:href="#m58996476d5" x="267.117645" y="640.8" style="stroke: #000000; stroke-width: 0.8"/>
      </g>
     </g>
     <g id="text_2">
      <!-- 373000 -->
      <g transform="translate(248.030145 655.398438) scale(0.1 -0.1)">
       <use xlink:href="#DejaVuSans-33"/>
       <use xlink:href="#DejaVuSans-37" x="63.623047"/>
       <use xlink:href="#DejaVuSans-33" x="127.246094"/>
       <use xlink:href="#DejaVuSans-30" x="190.869141"/>
       <use xlink:href="#DejaVuSans-30" x="254.492188"/>
       <use xlink:href="#DejaVuSans-30" x="318.115234"/>
      </g>
     </g>
    </g>
    <g id="xtick_3">
     <g id="line2d_3">
      <g>
       <use xlink:href="#m58996476d5" x="340.836516" y="640.8" style="stroke: #000000; stroke-width: 0.8"/>
      </g>
     </g>
     <g id="text_3">
      <!-- 374000 -->
      <g transform="translate(321.749016 655.398438) scale(0.1 -0.1)">
       <defs>
        <path id="DejaVuSans-34" d="M 2419 4116 
L 825 1625 
L 2419 1625 
L 2419 4116 
z
M 2253 4666 
L 3047 4666 
L 3047 1625 
L 3713 1625 
L 3713 1100 
L 3047 1100 
L 3047 0 
L 2419 0 
L 2419 1100 
L 313 1100 
L 313 1709 
L 2253 4666 
z
" transform="scale(0.015625)"/>
       </defs>
       <use xlink:href="#DejaVuSans-33"/>
       <use xlink:href="#DejaVuSans-37" x="63.623047"/>
       <use xlink:href="#DejaVuSans-34" x="127.246094"/>
       <use xlink:href="#DejaVuSans-30" x="190.869141"/>
       <use xlink:href="#DejaVuSans-30" x="254.492188"/>
       <use xlink:href="#DejaVuSans-30" x="318.115234"/>
      </g>
     </g>
    </g>
    <g id="xtick_4">
     <g id="line2d_4">
      <g>
       <use xlink:href="#m58996476d5" x="414.555387" y="640.8" style="stroke: #000000; stroke-width: 0.8"/>
      </g>
     </g>
     <g id="text_4">
      <!-- 375000 -->
      <g transform="translate(395.467887 655.398438) scale(0.1 -0.1)">
       <defs>
        <path id="DejaVuSans-35" d="M 691 4666 
L 3169 4666 
L 3169 4134 
L 1269 4134 
L 1269 2991 
Q 1406 3038 1543 3061 
Q 1681 3084 1819 3084 
Q 2600 3084 3056 2656 
Q 3513 2228 3513 1497 
Q 3513 744 3044 326 
Q 2575 -91 1722 -91 
Q 1428 -91 1123 -41 
Q 819 9 494 109 
L 494 744 
Q 775 591 1075 516 
Q 1375 441 1709 441 
Q 2250 441 2565 725 
Q 2881 1009 2881 1497 
Q 2881 1984 2565 2268 
Q 2250 2553 1709 2553 
Q 1456 2553 1204 2497 
Q 953 2441 691 2322 
L 691 4666 
z
" transform="scale(0.015625)"/>
       </defs>
       <use xlink:href="#DejaVuSans-33"/>
       <use xlink:href="#DejaVuSans-37" x="63.623047"/>
       <use xlink:href="#DejaVuSans-35" x="127.246094"/>
       <use xlink:href="#DejaVuSans-30" x="190.869141"/>
       <use xlink:href="#DejaVuSans-30" x="254.492188"/>
       <use xlink:href="#DejaVuSans-30" x="318.115234"/>
      </g>
     </g>
    </g>
    <g id="xtick_5">
     <g id="line2d_5">
      <g>
       <use xlink:href="#m58996476d5" x="488.274259" y="640.8" style="stroke: #000000; stroke-width: 0.8"/>
      </g>
     </g>
     <g id="text_5">
      <!-- 376000 -->
      <g transform="translate(469.186759 655.398438) scale(0.1 -0.1)">
       <defs>
        <path id="DejaVuSans-36" d="M 2113 2584 
Q 1688 2584 1439 2293 
Q 1191 2003 1191 1497 
Q 1191 994 1439 701 
Q 1688 409 2113 409 
Q 2538 409 2786 701 
Q 3034 994 3034 1497 
Q 3034 2003 2786 2293 
Q 2538 2584 2113 2584 
z
M 3366 4563 
L 3366 3988 
Q 3128 4100 2886 4159 
Q 2644 4219 2406 4219 
Q 1781 4219 1451 3797 
Q 1122 3375 1075 2522 
Q 1259 2794 1537 2939 
Q 1816 3084 2150 3084 
Q 2853 3084 3261 2657 
Q 3669 2231 3669 1497 
Q 3669 778 3244 343 
Q 2819 -91 2113 -91 
Q 1303 -91 875 529 
Q 447 1150 447 2328 
Q 447 3434 972 4092 
Q 1497 4750 2381 4750 
Q 2619 4750 2861 4703 
Q 3103 4656 3366 4563 
z
" transform="scale(0.015625)"/>
       </defs>
       <use xlink:href="#DejaVuSans-33"/>
       <use xlink:href="#DejaVuSans-37" x="63.623047"/>
       <use xlink:href="#DejaVuSans-36" x="127.246094"/>
       <use xlink:href="#DejaVuSans-30" x="190.869141"/>
       <use xlink:href="#DejaVuSans-30" x="254.492188"/>
       <use xlink:href="#DejaVuSans-30" x="318.115234"/>
      </g>
     </g>
    </g>
    <g id="xtick_6">
     <g id="line2d_6">
      <g>
       <use xlink:href="#m58996476d5" x="561.99313" y="640.8" style="stroke: #000000; stroke-width: 0.8"/>
      </g>
     </g>
     <g id="text_6">
      <!-- 377000 -->
      <g transform="translate(542.90563 655.398438) scale(0.1 -0.1)">
       <use xlink:href="#DejaVuSans-33"/>
       <use xlink:href="#DejaVuSans-37" x="63.623047"/>
       <use xlink:href="#DejaVuSans-37" x="127.246094"/>
       <use xlink:href="#DejaVuSans-30" x="190.869141"/>
       <use xlink:href="#DejaVuSans-30" x="254.492188"/>
       <use xlink:href="#DejaVuSans-30" x="318.115234"/>
      </g>
     </g>
    </g>
   </g>
   <g id="matplotlib.axis_2">
    <g id="ytick_1">
     <g id="line2d_7">
      <defs>
       <path id="m794626ce71" d="M 0 0 
L -3.5 0 
" style="stroke: #000000; stroke-width: 0.8"/>
      </defs>
      <g>
       <use xlink:href="#m794626ce71" x="136.550827" y="585.519466" style="stroke: #000000; stroke-width: 0.8"/>
      </g>
     </g>
     <g id="text_7">
      <!-- 5.812 -->
      <g transform="translate(100.922702 589.318685) scale(0.1 -0.1)">
       <defs>
        <path id="DejaVuSans-2e" d="M 684 794 
L 1344 794 
L 1344 0 
L 684 0 
L 684 794 
z
" transform="scale(0.015625)"/>
        <path id="DejaVuSans-38" d="M 2034 2216 
Q 1584 2216 1326 1975 
Q 1069 1734 1069 1313 
Q 1069 891 1326 650 
Q 1584 409 2034 409 
Q 2484 409 2743 651 
Q 3003 894 3003 1313 
Q 3003 1734 2745 1975 
Q 2488 2216 2034 2216 
z
M 1403 2484 
Q 997 2584 770 2862 
Q 544 3141 544 3541 
Q 544 4100 942 4425 
Q 1341 4750 2034 4750 
Q 2731 4750 3128 4425 
Q 3525 4100 3525 3541 
Q 3525 3141 3298 2862 
Q 3072 2584 2669 2484 
Q 3125 2378 3379 2068 
Q 3634 1759 3634 1313 
Q 3634 634 3220 271 
Q 2806 -91 2034 -91 
Q 1263 -91 848 271 
Q 434 634 434 1313 
Q 434 1759 690 2068 
Q 947 2378 1403 2484 
z
M 1172 3481 
Q 1172 3119 1398 2916 
Q 1625 2713 2034 2713 
Q 2441 2713 2670 2916 
Q 2900 3119 2900 3481 
Q 2900 3844 2670 4047 
Q 2441 4250 2034 4250 
Q 1625 4250 1398 4047 
Q 1172 3844 1172 3481 
z
" transform="scale(0.015625)"/>
        <path id="DejaVuSans-31" d="M 794 531 
L 1825 531 
L 1825 4091 
L 703 3866 
L 703 4441 
L 1819 4666 
L 2450 4666 
L 2450 531 
L 3481 531 
L 3481 0 
L 794 0 
L 794 531 
z
" transform="scale(0.015625)"/>
       </defs>
       <use xlink:href="#DejaVuSans-35"/>
       <use xlink:href="#DejaVuSans-2e" x="63.623047"/>
       <use xlink:href="#DejaVuSans-38" x="95.410156"/>
       <use xlink:href="#DejaVuSans-31" x="159.033203"/>
       <use xlink:href="#DejaVuSans-32" x="222.65625"/>
      </g>
     </g>
    </g>
    <g id="ytick_2">
     <g id="line2d_8">
      <g>
       <use xlink:href="#m794626ce71" x="136.550827" y="511.800595" style="stroke: #000000; stroke-width: 0.8"/>
      </g>
     </g>
     <g id="text_8">
      <!-- 5.813 -->
      <g transform="translate(100.922702 515.599813) scale(0.1 -0.1)">
       <use xlink:href="#DejaVuSans-35"/>
       <use xlink:href="#DejaVuSans-2e" x="63.623047"/>
       <use xlink:href="#DejaVuSans-38" x="95.410156"/>
       <use xlink:href="#DejaVuSans-31" x="159.033203"/>
       <use xlink:href="#DejaVuSans-33" x="222.65625"/>
      </g>
     </g>
    </g>
    <g id="ytick_3">
     <g id="line2d_9">
      <g>
       <use xlink:href="#m794626ce71" x="136.550827" y="438.081723" style="stroke: #000000; stroke-width: 0.8"/>
      </g>
     </g>
     <g id="text_9">
      <!-- 5.814 -->
      <g transform="translate(100.922702 441.880942) scale(0.1 -0.1)">
       <use xlink:href="#DejaVuSans-35"/>
       <use xlink:href="#DejaVuSans-2e" x="63.623047"/>
       <use xlink:href="#DejaVuSans-38" x="95.410156"/>
       <use xlink:href="#DejaVuSans-31" x="159.033203"/>
       <use xlink:href="#DejaVuSans-34" x="222.65625"/>
      </g>
     </g>
    </g>
    <g id="ytick_4">
     <g id="line2d_10">
      <g>
       <use xlink:href="#m794626ce71" x="136.550827" y="364.362852" style="stroke: #000000; stroke-width: 0.8"/>
      </g>
     </g>
     <g id="text_10">
      <!-- 5.815 -->
      <g transform="translate(100.922702 368.162071) scale(0.1 -0.1)">
       <use xlink:href="#DejaVuSans-35"/>
       <use xlink:href="#DejaVuSans-2e" x="63.623047"/>
       <use xlink:href="#DejaVuSans-38" x="95.410156"/>
       <use xlink:href="#DejaVuSans-31" x="159.033203"/>
       <use xlink:href="#DejaVuSans-35" x="222.65625"/>
      </g>
     </g>
    </g>
    <g id="ytick_5">
     <g id="line2d_11">
      <g>
       <use xlink:href="#m794626ce71" x="136.550827" y="290.643981" style="stroke: #000000; stroke-width: 0.8"/>
      </g>
     </g>
     <g id="text_11">
      <!-- 5.816 -->
      <g transform="translate(100.922702 294.443199) scale(0.1 -0.1)">
       <use xlink:href="#DejaVuSans-35"/>
       <use xlink:href="#DejaVuSans-2e" x="63.623047"/>
       <use xlink:href="#DejaVuSans-38" x="95.410156"/>
       <use xlink:href="#DejaVuSans-31" x="159.033203"/>
       <use xlink:href="#DejaVuSans-36" x="222.65625"/>
      </g>
     </g>
    </g>
    <g id="ytick_6">
     <g id="line2d_12">
      <g>
       <use xlink:href="#m794626ce71" x="136.550827" y="216.925109" style="stroke: #000000; stroke-width: 0.8"/>
      </g>
     </g>
     <g id="text_12">
      <!-- 5.817 -->
      <g transform="translate(100.922702 220.724328) scale(0.1 -0.1)">
       <use xlink:href="#DejaVuSans-35"/>
       <use xlink:href="#DejaVuSans-2e" x="63.623047"/>
       <use xlink:href="#DejaVuSans-38" x="95.410156"/>
       <use xlink:href="#DejaVuSans-31" x="159.033203"/>
       <use xlink:href="#DejaVuSans-37" x="222.65625"/>
      </g>
     </g>
    </g>
    <g id="ytick_7">
     <g id="line2d_13">
      <g>
       <use xlink:href="#m794626ce71" x="136.550827" y="143.206238" style="stroke: #000000; stroke-width: 0.8"/>
      </g>
     </g>
     <g id="text_13">
      <!-- 5.818 -->
      <g transform="translate(100.922702 147.005457) scale(0.1 -0.1)">
       <use xlink:href="#DejaVuSans-35"/>
       <use xlink:href="#DejaVuSans-2e" x="63.623047"/>
       <use xlink:href="#DejaVuSans-38" x="95.410156"/>
       <use xlink:href="#DejaVuSans-31" x="159.033203"/>
       <use xlink:href="#DejaVuSans-38" x="222.65625"/>
      </g>
     </g>
    </g>
    <g id="text_14">
     <!-- 1e6 -->
     <g transform="translate(136.550827 83.4) scale(0.1 -0.1)">
      <defs>
       <path id="DejaVuSans-65" d="M 3597 1894 
L 3597 1613 
L 953 1613 
Q 991 1019 1311 708 
Q 1631 397 2203 397 
Q 2534 397 2845 478 
Q 3156 559 3463 722 
L 3463 178 
Q 3153 47 2828 -22 
Q 2503 -91 2169 -91 
Q 1331 -91 842 396 
Q 353 884 353 1716 
Q 353 2575 817 3079 
Q 1281 3584 2069 3584 
Q 2775 3584 3186 3129 
Q 3597 2675 3597 1894 
z
M 3022 2063 
Q 3016 2534 2758 2815 
Q 2500 3097 2075 3097 
Q 1594 3097 1305 2825 
Q 1016 2553 972 2059 
L 3022 2063 
z
" transform="scale(0.015625)"/>
      </defs>
      <use xlink:href="#DejaVuSans-31"/>
      <use xlink:href="#DejaVuSans-65" x="63.623047"/>
      <use xlink:href="#DejaVuSans-36" x="125.146484"/>
     </g>
    </g>
   </g>
   <g id="patch_3">
    <path d="M 136.550827 640.8 
L 136.550827 86.4 
" style="fill: none; stroke: #000000; stroke-width: 0.8; stroke-linejoin: miter; stroke-linecap: square"/>
   </g>
   <g id="patch_4">
    <path d="M 601.449173 640.8 
L 601.449173 86.4 
" style="fill: none; stroke: #000000; stroke-width: 0.8; stroke-linejoin: miter; stroke-linecap: square"/>
   </g>
   <g id="patch_5">
    <path d="M 136.550827 640.8 
L 601.449173 640.8 
" style="fill: none; stroke: #000000; stroke-width: 0.8; stroke-linejoin: miter; stroke-linecap: square"/>
   </g>
   <g id="patch_6">
    <path d="M 136.550827 86.4 
L 601.449173 86.4 
" style="fill: none; stroke: #000000; stroke-width: 0.8; stroke-linejoin: miter; stroke-linecap: square"/>
   </g>
   <g id="text_15">
    <!-- Gatow___Kladow -->
    <g transform="translate(324.100549 366.882153) scale(0.12 -0.12)">
     <defs>
      <path id="DejaVuSans-47" d="M 3809 666 
L 3809 1919 
L 2778 1919 
L 2778 2438 
L 4434 2438 
L 4434 434 
Q 4069 175 3628 42 
Q 3188 -91 2688 -91 
Q 1594 -91 976 548 
Q 359 1188 359 2328 
Q 359 3472 976 4111 
Q 1594 4750 2688 4750 
Q 3144 4750 3555 4637 
Q 3966 4525 4313 4306 
L 4313 3634 
Q 3963 3931 3569 4081 
Q 3175 4231 2741 4231 
Q 1884 4231 1454 3753 
Q 1025 3275 1025 2328 
Q 1025 1384 1454 906 
Q 1884 428 2741 428 
Q 3075 428 3337 486 
Q 3600 544 3809 666 
z
" transform="scale(0.015625)"/>
      <path id="DejaVuSans-61" d="M 2194 1759 
Q 1497 1759 1228 1600 
Q 959 1441 959 1056 
Q 959 750 1161 570 
Q 1363 391 1709 391 
Q 2188 391 2477 730 
Q 2766 1069 2766 1631 
L 2766 1759 
L 2194 1759 
z
M 3341 1997 
L 3341 0 
L 2766 0 
L 2766 531 
Q 2569 213 2275 61 
Q 1981 -91 1556 -91 
Q 1019 -91 701 211 
Q 384 513 384 1019 
Q 384 1609 779 1909 
Q 1175 2209 1959 2209 
L 2766 2209 
L 2766 2266 
Q 2766 2663 2505 2880 
Q 2244 3097 1772 3097 
Q 1472 3097 1187 3025 
Q 903 2953 641 2809 
L 641 3341 
Q 956 3463 1253 3523 
Q 1550 3584 1831 3584 
Q 2591 3584 2966 3190 
Q 3341 2797 3341 1997 
z
" transform="scale(0.015625)"/>
      <path id="DejaVuSans-74" d="M 1172 4494 
L 1172 3500 
L 2356 3500 
L 2356 3053 
L 1172 3053 
L 1172 1153 
Q 1172 725 1289 603 
Q 1406 481 1766 481 
L 2356 481 
L 2356 0 
L 1766 0 
Q 1100 0 847 248 
Q 594 497 594 1153 
L 594 3053 
L 172 3053 
L 172 3500 
L 594 3500 
L 594 4494 
L 1172 4494 
z
" transform="scale(0.015625)"/>
      <path id="DejaVuSans-6f" d="M 1959 3097 
Q 1497 3097 1228 2736 
Q 959 2375 959 1747 
Q 959 1119 1226 758 
Q 1494 397 1959 397 
Q 2419 397 2687 759 
Q 2956 1122 2956 1747 
Q 2956 2369 2687 2733 
Q 2419 3097 1959 3097 
z
M 1959 3584 
Q 2709 3584 3137 3096 
Q 3566 2609 3566 1747 
Q 3566 888 3137 398 
Q 2709 -91 1959 -91 
Q 1206 -91 779 398 
Q 353 888 353 1747 
Q 353 2609 779 3096 
Q 1206 3584 1959 3584 
z
" transform="scale(0.015625)"/>
      <path id="DejaVuSans-77" d="M 269 3500 
L 844 3500 
L 1563 769 
L 2278 3500 
L 2956 3500 
L 3675 769 
L 4391 3500 
L 4966 3500 
L 4050 0 
L 3372 0 
L 2619 2869 
L 1863 0 
L 1184 0 
L 269 3500 
z
" transform="scale(0.015625)"/>
      <path id="DejaVuSans-5f" d="M 3263 -1063 
L 3263 -1509 
L -63 -1509 
L -63 -1063 
L 3263 -1063 
z
" transform="scale(0.015625)"/>
      <path id="DejaVuSans-4b" d="M 628 4666 
L 1259 4666 
L 1259 2694 
L 3353 4666 
L 4166 4666 
L 1850 2491 
L 4331 0 
L 3500 0 
L 1259 2247 
L 1259 0 
L 628 0 
L 628 4666 
z
" transform="scale(0.015625)"/>
      <path id="DejaVuSans-6c" d="M 603 4863 
L 1178 4863 
L 1178 0 
L 603 0 
L 603 4863 
z
" transform="scale(0.015625)"/>
      <path id="DejaVuSans-64" d="M 2906 2969 
L 2906 4863 
L 3481 4863 
L 3481 0 
L 2906 0 
L 2906 525 
Q 2725 213 2448 61 
Q 2172 -91 1784 -91 
Q 1150 -91 751 415 
Q 353 922 353 1747 
Q 353 2572 751 3078 
Q 1150 3584 1784 3584 
Q 2172 3584 2448 3432 
Q 2725 3281 2906 2969 
z
M 947 1747 
Q 947 1113 1208 752 
Q 1469 391 1925 391 
Q 2381 391 2643 752 
Q 2906 1113 2906 1747 
Q 2906 2381 2643 2742 
Q 2381 3103 1925 3103 
Q 1469 3103 1208 2742 
Q 947 2381 947 1747 
z
" transform="scale(0.015625)"/>
     </defs>
     <use xlink:href="#DejaVuSans-47"/>
     <use xlink:href="#DejaVuSans-61" x="77.490234"/>
     <use xlink:href="#DejaVuSans-74" x="138.769531"/>
     <use xlink:href="#DejaVuSans-6f" x="177.978516"/>
     <use xlink:href="#DejaVuSans-77" x="239.160156"/>
     <use xlink:href="#DejaVuSans-5f" x="320.947266"/>
     <use xlink:href="#DejaVuSans-5f" x="370.947266"/>
     <use xlink:href="#DejaVuSans-5f" x="420.947266"/>
     <use xlink:href="#DejaVuSans-4b" x="470.947266"/>
     <use xlink:href="#DejaVuSans-6c" x="536.523438"/>
     <use xlink:href="#DejaVuSans-61" x="564.306641"/>
     <use xlink:href="#DejaVuSans-64" x="625.585938"/>
     <use xlink:href="#DejaVuSans-6f" x="689.0625"/>
     <use xlink:href="#DejaVuSans-77" x="750.244141"/>
    </g>
   </g>
  </g>
 </g>
 <defs>
  <clipPath id="p7e2571b548">
   <rect x="136.550827" y="86.4" width="464.898346" height="554.4"/>
  </clipPath>
 </defs>
</svg>
