<?xml version="1.0" encoding="utf-8" standalone="no"?>
<!DOCTYPE svg PUBLIC "-//W3C//DTD SVG 1.1//EN"
  "http://www.w3.org/Graphics/SVG/1.1/DTD/svg11.dtd">
<svg xmlns:xlink="http://www.w3.org/1999/xlink" width="720pt" height="720pt" viewBox="0 0 720 720" xmlns="http://www.w3.org/2000/svg" version="1.1">
 <metadata>
  <rdf:RDF xmlns:dc="http://purl.org/dc/elements/1.1/" xmlns:cc="http://creativecommons.org/ns#" xmlns:rdf="http://www.w3.org/1999/02/22-rdf-syntax-ns#">
   <cc:Work>
    <dc:type rdf:resource="http://purl.org/dc/dcmitype/StillImage"/>
    <dc:date>2024-10-15T13:01:16.188256</dc:date>
    <dc:format>image/svg+xml</dc:format>
    <dc:creator>
     <cc:Agent>
      <dc:title>Matplotlib v3.9.2, https://matplotlib.org/</dc:title>
     </cc:Agent>
    </dc:creator>
   </cc:Work>
  </rdf:RDF>
 </metadata>
 <defs>
  <style type="text/css">*{stroke-linejoin: round; stroke-linecap: butt}</style>
 </defs>
 <g id="figure_1">
  <g id="patch_1">
   <path d="M 0 720 
L 720 720 
L 720 0 
L 0 0 
z
" style="fill: #ffffff"/>
  </g>
  <g id="axes_1">
   <g id="patch_2">
    <path d="M 90 564.756439 
L 648 564.756439 
L 648 162.443561 
L 90 162.443561 
z
" style="fill: #ffffff"/>
   </g>
   <g id="PatchCollection_1">
    <path d="M 471.319142 276.405075 
L 470.507498 275.748632 
L 465.125268 280.848748 
L 461.542269 284.246563 
L 459.050198 281.617773 
L 460.414001 280.306584 
L 458.381309 278.280869 
L 457.636422 277.538622 
L 456.200017 278.944667 
L 456.114025 279.028584 
L 455.610896 279.521153 
L 453.086013 276.950445 
L 452.93251 276.794679 
L 455.480588 274.282431 
L 455.023662 273.821355 
L 456.997894 271.820722 
L 456.321085 271.136557 
L 457.526858 269.916075 
L 459.196159 268.226596 
L 460.104732 267.307085 
L 458.210268 265.77375 
L 450.047064 274.034449 
L 447.85012 271.869186 
L 445.74954 269.79859 
L 445.553041 269.604165 
L 440.95379 265.055453 
L 440.230212 265.814672 
L 437.74512 263.527398 
L 440.791235 260.319483 
L 438.264654 257.91265 
L 436.678517 259.651913 
L 436.009817 259.19461 
L 434.149108 257.919628 
L 434.037281 258.046353 
L 433.169252 257.248475 
L 428.259789 253.886302 
L 426.219931 256.197902 
L 424.843682 257.750472 
L 419.29456 264.049951 
L 416.744784 261.810576 
L 414.876344 263.927751 
L 412.37824 266.753795 
L 411.140973 268.160971 
L 409.888998 269.578707 
L 407.391836 272.409653 
L 406.455165 273.470976 
L 402.078437 278.432487 
L 400.782146 279.874738 
L 400.214523 280.519678 
L 398.329677 282.660426 
L 397.9842 283.052481 
L 393.017598 288.693442 
L 395.842698 290.625244 
L 396.78993 291.271881 
L 398.560875 292.481426 
L 400.271474 293.653067 
L 402.071082 294.882224 
L 397.569327 299.791688 
L 397.188397 300.209013 
L 395.913604 301.596953 
L 394.638622 302.98678 
L 392.403208 305.425859 
L 392.345503 305.488845 
L 389.411403 308.682051 
L 387.374374 310.894836 
L 384.950569 313.526455 
L 384.567189 313.943403 
L 383.292772 315.329269 
L 382.526388 316.159394 
L 381.761889 316.991592 
L 379.721088 319.208149 
L 377.297283 321.837882 
L 375.641183 323.637113 
L 374.62248 324.745391 
L 372.704633 326.841446 
L 369.900841 330.322046 
L 369.186316 330.402758 
L 368.574 330.472155 
L 367.707292 329.812695 
L 366.844355 329.148143 
L 365.985189 328.478688 
L 365.172603 327.881458 
L 364.363222 327.279703 
L 363.557236 326.67361 
L 362.736163 326.088639 
L 361.918108 325.499141 
L 361.103447 324.905306 
L 360.17545 324.270361 
L 358.330771 322.984064 
L 357.391648 322.365337 
L 356.456108 321.740952 
L 355.52434 321.111098 
L 353.620636 319.89533 
L 352.674347 319.278866 
L 349.119069 317.04628 
L 347.94856 316.311577 
L 346.063148 315.125415 
L 340.273587 311.478111 
L 329.881758 304.943097 
L 328.074229 303.807475 
L 327.673122 303.55346 
L 327.273146 303.297558 
L 326.87449 303.039959 
L 326.350995 302.696368 
L 325.829574 302.349572 
L 325.310417 301.999569 
L 324.851416 301.683511 
L 324.3943 301.365001 
L 323.938882 301.043851 
L 323.22266 300.511493 
L 322.516432 299.965934 
L 321.820575 299.406987 
L 321.135468 298.835215 
L 320.458093 298.249866 
L 319.792032 297.651883 
L 319.137475 297.041453 
L 318.494421 296.418577 
L 317.956971 295.877921 
L 317.428384 295.328591 
L 316.908849 294.770963 
L 316.398178 294.204849 
L 316.269567 294.059832 
L 316.14171 293.91406 
L 316.014608 293.767912 
L 315.534675 293.205758 
L 315.063605 292.636061 
L 314.601398 292.059198 
L 314.148243 291.474981 
L 313.704328 290.883974 
L 313.446352 290.531898 
L 313.191582 290.177558 
L 312.940206 289.820955 
L 312.692413 289.460958 
L 312.447827 289.098698 
L 312.206634 288.734175 
L 311.906228 288.272534 
L 311.608273 287.809195 
L 311.31277 287.344348 
L 311.019341 286.877804 
L 310.728364 286.409751 
L 310.440027 285.940001 
L 310.281055 285.678631 
L 310.595982 284.383471 
L 308.732603 281.552237 
L 306.69485 278.456059 
L 308.005851 277.59331 
L 308.850873 277.09037 
L 309.699289 276.593654 
L 310.551477 276.102971 
L 311.474382 275.583248 
L 312.401436 275.07069 
L 313.33245 274.565299 
L 314.267236 274.067262 
L 314.313438 274.043501 
L 314.359828 274.019929 
L 314.406219 273.996545 
L 314.76565 273.808155 
L 315.125459 273.620707 
L 315.486021 273.434391 
L 316.335946 272.999528 
L 317.188889 272.5707 
L 318.044849 272.147906 
L 318.869705 271.749323 
L 319.958547 271.232355 
L 320.920677 270.785801 
L 321.886201 270.346789 
L 330.72018 266.37362 
L 331.357388 266.086414 
L 332.640856 265.516529 
L 333.929415 264.958147 
L 335.222878 264.411456 
L 336.606293 263.840251 
L 335.692817 261.199769 
L 338.810026 257.018409 
L 340.263969 255.057 
L 340.611709 254.588004 
L 341.064298 253.996998 
L 339.22226 251.197921 
L 337.386255 248.402239 
L 335.572503 245.599768 
L 334.119503 243.375291 
L 333.602042 242.920439 
L 331.222365 240.83683 
L 328.842688 238.753411 
L 326.440193 236.682626 
L 323.937939 235.001822 
L 321.435686 233.321395 
L 318.933244 231.641346 
L 316.430802 229.960731 
L 315.257841 229.172848 
L 313.928548 228.280115 
L 313.629273 228.749488 
L 304.291223 222.828299 
L 303.062632 224.773868 
L 298.550316 231.921197 
L 295.933029 236.065407 
L 294.52359 238.295541 
L 288.479448 247.86328 
L 287.321196 249.696644 
L 286.364535 251.21131 
L 285.364193 252.794391 
L 284.941142 253.463885 
L 283.290888 256.074572 
L 280.52255 260.456957 
L 278.504567 263.65054 
L 276.494316 266.832998 
L 274.083711 270.647006 
L 273.103667 272.202782 
L 262.307713 289.315187 
L 262.636783 290.550755 
L 261.30074 292.933724 
L 260.949002 292.745625 
L 257.86008 291.170992 
L 257.023544 290.742163 
L 236.389429 280.207203 
L 235.123876 280.622642 
L 232.934286 279.523793 
L 245.42877 254.627228 
L 246.346018 252.796693 
L 249.80512 245.902625 
L 250.72614 244.074164 
L 251.423693 242.688298 
L 254.647638 236.261152 
L 253.732088 234.727628 
L 255.114962 232.373613 
L 256.499294 230.017116 
L 241.805226 222.434924 
L 239.124388 221.049057 
L 236.431293 219.660928 
L 234.317701 218.570376 
L 233.347274 218.064608 
L 232.384956 217.543564 
L 231.430935 217.007623 
L 230.4854 216.456784 
L 229.54854 215.891236 
L 228.620732 215.311167 
L 228.013319 214.917037 
L 227.409867 214.516496 
L 226.810752 214.109731 
L 226.093586 213.61094 
L 225.382644 213.103285 
L 224.678113 212.586579 
L 223.979994 212.061387 
L 223.288663 211.527331 
L 222.349729 210.780182 
L 221.423807 210.017191 
L 220.511085 209.238172 
L 219.611941 208.443878 
L 218.726563 207.63412 
L 217.855139 206.809276 
L 216.998048 205.969534 
L 216.376681 205.343452 
L 215.763422 204.709638 
L 215.158084 204.068093 
L 214.527665 203.380911 
L 213.906486 202.685432 
L 213.294547 201.981656 
L 212.692038 201.269959 
L 212.199092 200.673484 
L 211.712747 200.07154 
L 211.233003 199.464316 
L 210.615218 198.661347 
L 210.009126 197.849515 
L 209.414913 197.029008 
L 208.832582 196.199827 
L 208.46787 195.658982 
L 208.116925 195.109463 
L 207.779557 194.55127 
L 207.456333 193.984779 
L 207.418994 193.915759 
L 207.382033 193.84655 
L 207.34526 193.777153 
L 207.173653 193.455061 
L 207.006572 193.130516 
L 206.843829 192.803709 
L 206.616968 192.350742 
L 206.382188 191.901925 
L 206.139486 191.457256 
L 205.856241 190.960162 
L 205.563001 190.468725 
L 205.259954 189.983323 
L 204.947291 189.504144 
L 203.417916 187.215927 
L 201.417848 184.224877 
L 201.189856 183.866389 
L 200.972047 183.501866 
L 200.764233 183.131308 
L 200.566791 182.755282 
L 200.88681 182.193506 
L 198.212195 180.73051 
L 195.142885 185.583966 
L 194.857188 186.035046 
L 193.683661 190.528505 
L 189.238291 207.53719 
L 187.871848 213.963582 
L 187.083965 220.086551 
L 185.791823 230.136863 
L 185.298689 233.47999 
L 184.40011 239.474348 
L 183.743479 244.066621 
L 183.676156 244.700812 
L 183.626937 245.3367 
L 183.59601 245.97372 
L 183.583564 246.611305 
L 183.589221 247.249079 
L 183.613359 247.886476 
L 183.622977 248.057705 
L 183.633914 248.228746 
L 183.645983 248.399787 
L 183.653715 248.477859 
L 183.661635 248.555742 
L 183.669933 248.633814 
L 183.710854 249.067545 
L 183.760451 249.500334 
L 183.818533 249.93218 
L 182.576364 250.70837 
L 181.214258 251.55905 
L 180.942705 251.731222 
L 171.975966 257.32881 
L 170.019272 257.293546 
L 168.862152 257.262242 
L 167.090453 257.2134 
L 166.324634 261.709686 
L 165.103774 266.717211 
L 164.923681 267.4472 
L 163.850101 271.848443 
L 162.778973 276.234599 
L 161.709354 280.611704 
L 161.476082 281.567234 
L 161.04895 283.318377 
L 159.493552 288.470353 
L 157.326026 295.652946 
L 156.344284 298.900275 
L 155.472861 301.787418 
L 154.601815 304.67475 
L 153.730392 307.560573 
L 152.85878 310.449413 
L 151.987545 313.336556 
L 151.035599 316.490161 
L 150.162479 319.377304 
L 149.291056 322.264636 
L 148.419633 325.151967 
L 146.238529 332.379631 
L 145.916248 333.461697 
L 144.881704 336.886855 
L 143.477545 340.535291 
L 142.254611 343.564811 
L 140.943799 346.560576 
L 139.522291 349.529939 
L 138.028935 352.411048 
L 136.433746 355.290271 
L 134.739742 358.094062 
L 132.965968 360.850897 
L 131.108278 363.540409 
L 131.060001 363.607543 
L 131.011537 363.674489 
L 130.963072 363.741246 
L 130.544804 364.308868 
L 130.115975 364.86857 
L 129.676775 365.420164 
L 129.227392 365.963459 
L 128.727846 366.543905 
L 128.21642 367.114168 
L 127.693491 367.67387 
L 127.159435 368.222823 
L 124.904409 370.299643 
L 123.635273 370.194227 
L 123.301865 370.369228 
L 122.285236 370.896495 
L 121.977287 371.126373 
L 123.819326 373.51265 
L 124.031666 373.356507 
L 128.505512 378.953152 
L 129.748812 380.507796 
L 129.531192 381.727524 
L 129.232106 381.906674 
L 116.793589 389.44806 
L 115.363636 390.315031 
L 118.475565 396.036703 
L 121.788708 401.98863 
L 125.566321 407.49834 
L 126.738716 409.211957 
L 129.218717 411.96502 
L 134.047468 416.546356 
L 136.854465 418.864179 
L 139.926793 420.629089 
L 142.837171 422.76178 
L 139.030289 423.653706 
L 136.732832 424.194739 
L 137.29178 426.424496 
L 140.026174 427.903898 
L 153.164089 435.007477 
L 160.42268 438.933878 
L 171.803982 445.110591 
L 173.771049 446.175496 
L 176.192968 446.753302 
L 176.479985 446.81723 
L 184.648092 448.761479 
L 195.256786 451.28655 
L 203.032272 455.494123 
L 209.638757 458.121781 
L 214.915383 460.163902 
L 227.06835 465.131825 
L 239.931129 470.114457 
L 250.828928 474.608013 
L 253.248948 475.605875 
L 260.353281 478.509047 
L 263.205537 479.645612 
L 265.106671 480.408443 
L 266.70311 481.049016 
L 267.651662 481.429003 
L 282.101332 487.371878 
L 283.852099 488.622911 
L 283.999002 488.63894 
L 298.924268 494.760588 
L 310.124535 499.33457 
L 315.614632 501.577338 
L 315.496393 500.943336 
L 316.652948 501.406486 
L 320.938215 503.124817 
L 319.824845 505.860343 
L 319.562909 506.485859 
L 319.288526 507.106095 
L 319.001886 507.720673 
L 318.702989 508.329406 
L 318.392022 508.932104 
L 318.069175 509.528579 
L 317.73407 510.118643 
L 317.387462 510.701917 
L 317.029163 511.278026 
L 316.659359 511.846968 
L 316.27843 512.408556 
L 315.886374 512.962224 
L 315.374571 513.556436 
L 314.84919 514.138956 
L 314.31042 514.709031 
L 313.758827 515.26647 
L 313.194411 515.811086 
L 312.617736 516.34269 
L 312.028804 516.860716 
L 311.428181 517.365164 
L 311.281655 517.466243 
L 311.134563 517.566378 
L 310.986906 517.665948 
L 318.353364 516.314403 
L 326.172976 515.020563 
L 334.361261 513.484588 
L 342.708518 511.917874 
L 344.033096 511.669704 
L 345.164758 511.457364 
L 346.785782 512.120596 
L 356.733508 516.191261 
L 368.062763 520.839542 
L 380.419396 525.884594 
L 390.973591 530.233412 
L 402.022429 534.646347 
L 401.85912 534.002161 
L 404.152994 534.483414 
L 407.808973 535.250553 
L 422.227339 536.802746 
L 439.106471 538.522586 
L 440.435386 538.649877 
L 440.243224 540.033857 
L 449.644826 541.026914 
L 457.944749 541.942464 
L 460.159608 542.186674 
L 461.225079 542.304725 
L 461.57659 542.343383 
L 464.512764 542.642469 
L 467.886817 542.983609 
L 471.263134 543.323428 
L 473.966036 543.593473 
L 474.121802 542.031097 
L 476.93521 542.33716 
L 483.276937 543.044232 
L 489.047068 543.687574 
L 489.106281 543.145598 
L 496.920744 543.968243 
L 502.862924 544.578043 
L 506.711631 544.973493 
L 515.558244 545.895833 
L 518.004679 546.149848 
L 519.904422 546.304672 
L 521.808692 546.410653 
L 523.715791 546.46949 
L 525.622701 546.447237 
L 527.528668 546.36464 
L 529.430486 546.206611 
L 531.314389 545.999174 
L 533.184715 545.712157 
L 535.067486 545.365172 
L 536.938001 544.968967 
L 537.949538 544.724192 
L 538.783057 544.523167 
L 540.606992 543.994014 
L 542.415463 543.396596 
L 544.204134 542.74053 
L 545.986016 542.048446 
L 547.748098 541.297525 
L 549.455302 540.47004 
L 551.131392 539.583719 
L 552.795412 538.646105 
L 554.433786 537.664552 
L 555.260515 537.129742 
L 555.803623 536.356003 
L 556.349936 535.584527 
L 556.899643 534.815502 
L 557.910426 533.409835 
L 558.932524 532.012465 
L 559.965936 530.623581 
L 561.010663 529.242807 
L 562.066328 527.870707 
L 563.133119 526.507093 
L 564.096946 525.297925 
L 565.069636 524.095734 
L 566.050812 522.900521 
L 566.205447 522.713451 
L 566.360458 522.52638 
L 566.515659 522.339687 
L 571.899775 515.852007 
L 572.501719 515.126356 
L 573.405201 514.040141 
L 574.248337 513.023135 
L 575.211786 511.851494 
L 581.876542 503.832365 
L 584.945852 500.285196 
L 585.722797 499.198981 
L 594.391204 488.755104 
L 597.022634 485.733316 
L 605.360084 475.539683 
L 606.029728 474.732189 
L 607.641135 472.788317 
L 609.814318 470.169145 
L 610.46831 469.382016 
L 611.830792 467.76797 
L 612.436319 467.038358 
L 614.886336 464.086721 
L 620.339661 457.490419 
L 622.620334 454.743202 
L 622.636364 452.409161 
L 619.442026 448.444855 
L 612.942654 440.386878 
L 599.339892 423.516421 
L 593.169967 415.975716 
L 592.937449 417.098704 
L 592.353986 417.352154 
L 591.76298 417.587689 
L 591.164996 417.80512 
L 590.560789 418.003882 
L 589.950548 418.184164 
L 589.335215 418.345587 
L 588.715167 418.488153 
L 588.09116 418.611484 
L 587.790565 418.663531 
L 587.489216 418.711053 
L 587.187113 418.754427 
L 586.594975 418.826841 
L 586.000951 418.882094 
L 585.405608 418.920376 
L 584.80951 418.941308 
L 584.212846 418.945268 
L 583.616371 418.932068 
L 583.02065 418.901518 
L 578.881343 418.63053 
L 574.742036 418.359542 
L 570.602729 418.088554 
L 566.470588 417.836047 
L 562.271125 417.562985 
L 561.618642 417.520555 
L 561.046871 417.462284 
L 557.287927 417.217131 
L 554.246527 417.017992 
L 552.23703 416.885421 
L 546.637934 416.518824 
L 543.720618 416.327793 
L 539.581311 416.056805 
L 535.444078 415.785817 
L 531.679289 415.540853 
L 527.916574 415.294004 
L 525.340398 415.126168 
L 524.153671 415.04904 
L 520.390956 414.80219 
L 519.825974 414.76504 
L 516.62843 414.55534 
L 512.865526 414.310187 
L 509.665719 414.100676 
L 509.102623 414.063338 
L 505.90489 413.853827 
L 505.341794 413.816488 
L 501.580965 413.571712 
L 497.818061 413.324863 
L 494.057043 413.079899 
L 490.292631 412.83286 
L 486.343223 412.575073 
L 482.394004 412.317097 
L 480.700943 412.205647 
L 478.631478 412.070247 
L 479.634152 411.191847 
L 480.492186 397.950779 
L 481.581795 381.136329 
L 481.600464 380.808579 
L 481.616116 380.480829 
L 481.628751 380.152891 
L 481.651192 379.334081 
L 481.655152 378.514894 
L 481.640631 377.695896 
L 481.60763 376.877464 
L 481.556148 376.059974 
L 481.486185 375.243804 
L 481.396799 374.428578 
L 481.28912 373.615426 
L 481.162961 372.805102 
L 481.018509 371.997796 
L 480.855954 371.193884 
L 480.675107 370.393932 
L 480.478608 369.608312 
L 480.26476 368.827407 
L 480.033562 368.051216 
L 479.785203 367.280683 
L 479.519684 366.515618 
L 481.726057 365.21499 
L 482.540153 364.734491 
L 480.040351 360.540684 
L 477.572418 356.351027 
L 479.97944 354.91085 
L 481.785648 353.832933 
L 482.152246 353.613238 
L 483.435337 352.862694 
L 485.086345 351.896605 
L 486.743388 350.926932 
L 488.397036 349.958768 
L 490.234738 348.883302 
L 492.073382 347.807648 
L 493.909386 346.733503 
L 495.745579 345.658037 
L 497.583658 344.58408 
L 499.421736 343.508426 
L 501.260003 342.430886 
L 503.100345 341.355232 
L 504.677242 340.432704 
L 504.936349 340.281276 
L 505.056474 340.210181 
L 506.760096 339.182615 
L 508.581579 338.082257 
L 509.676657 337.420534 
L 510.390617 336.954932 
L 512.179665 335.791778 
L 515.106598 333.888262 
L 516.150571 333.208624 
L 514.314944 330.675443 
L 512.325059 327.927472 
L 510.062489 325.352238 
L 507.849139 322.83471 
L 505.909605 320.627205 
L 503.931035 318.373876 
L 502.003947 316.182212 
L 499.763253 313.632059 
L 497.640608 311.217495 
L 495.699 309.006407 
L 493.835275 306.883952 
L 492.013037 308.584179 
L 489.404236 311.025144 
L 486.155964 307.516634 
L 482.915047 304.013781 
L 485.529694 301.572438 
L 488.291998 299.006256 
L 493.400035 294.255199 
L 491.18857 292.459551 
L 484.176075 286.794075 
L 478.669571 282.344744 
L 472.489274 277.351175 
L 471.319142 276.405075 
" clip-path="url(#p1c700c3b7b)" style="fill: #d3d3d3"/>
   </g>
   <g id="PatchCollection_2">
    <path d="M 252.080054 317.14008 
L 252.080054 316.951501 
L 251.891475 316.951501 
L 251.891475 317.14008 
L 252.080054 317.14008 
" clip-path="url(#p1c700c3b7b)" style="fill: #ff0000; fill-opacity: 0.7; stroke: #000000; stroke-opacity: 0.7; stroke-width: 0.5"/>
    <path d="M 500.819995 476.457245 
L 500.819995 476.268667 
L 500.631417 476.268667 
L 500.631417 476.457245 
L 500.819995 476.457245 
" clip-path="url(#p1c700c3b7b)" style="fill: #ff0000; fill-opacity: 0.7; stroke: #000000; stroke-opacity: 0.7; stroke-width: 0.5"/>
    <path d="M 442.0001 351.637696 
L 442.0001 351.449117 
L 441.811521 351.449117 
L 441.811521 351.637696 
L 442.0001 351.637696 
" clip-path="url(#p1c700c3b7b)" style="fill: #ff0000; fill-opacity: 0.7; stroke: #000000; stroke-opacity: 0.7; stroke-width: 0.5"/>
    <path d="M 620.492009 451.077643 
L 620.492009 450.889064 
L 620.30343 450.889064 
L 620.30343 451.077643 
L 620.492009 451.077643 
" clip-path="url(#p1c700c3b7b)" style="fill: #ff0000; fill-opacity: 0.7; stroke: #000000; stroke-opacity: 0.7; stroke-width: 0.5"/>
    <path d="M 219.92665 317.595074 
L 219.92665 317.406495 
L 219.738071 317.406495 
L 219.738071 317.595074 
L 219.92665 317.595074 
" clip-path="url(#p1c700c3b7b)" style="fill: #ff0000; fill-opacity: 0.7; stroke: #000000; stroke-opacity: 0.7; stroke-width: 0.5"/>
    <path d="M 242.635972 336.430585 
L 242.635972 336.242006 
L 242.447393 336.242006 
L 242.447393 336.430585 
L 242.635972 336.430585 
" clip-path="url(#p1c700c3b7b)" style="fill: #ff0000; fill-opacity: 0.7; stroke: #000000; stroke-opacity: 0.7; stroke-width: 0.5"/>
    <path d="M 431.520047 338.726385 
L 431.520047 338.537806 
L 431.331468 338.537806 
L 431.331468 338.726385 
L 431.520047 338.726385 
" clip-path="url(#p1c700c3b7b)" style="fill: #ff0000; fill-opacity: 0.7; stroke: #000000; stroke-opacity: 0.7; stroke-width: 0.5"/>
    <path d="M 242.636169 336.430401 
L 242.636169 336.241822 
L 242.44759 336.241822 
L 242.44759 336.430401 
L 242.636169 336.430401 
" clip-path="url(#p1c700c3b7b)" style="fill: #ff0000; fill-opacity: 0.7; stroke: #000000; stroke-opacity: 0.7; stroke-width: 0.5"/>
    <path d="M 242.636169 336.430401 
L 242.636169 336.241822 
L 242.44759 336.241822 
L 242.44759 336.430401 
L 242.636169 336.430401 
" clip-path="url(#p1c700c3b7b)" style="fill: #ff0000; fill-opacity: 0.7; stroke: #000000; stroke-opacity: 0.7; stroke-width: 0.5"/>
    <path d="M 242.636169 336.430401 
L 242.636169 336.241822 
L 242.44759 336.241822 
L 242.44759 336.430401 
L 242.636169 336.430401 
" clip-path="url(#p1c700c3b7b)" style="fill: #ff0000; fill-opacity: 0.7; stroke: #000000; stroke-opacity: 0.7; stroke-width: 0.5"/>
    <path d="M 242.636169 336.430401 
L 242.636169 336.241822 
L 242.44759 336.241822 
L 242.44759 336.430401 
L 242.636169 336.430401 
" clip-path="url(#p1c700c3b7b)" style="fill: #ff0000; fill-opacity: 0.7; stroke: #000000; stroke-opacity: 0.7; stroke-width: 0.5"/>
    <path d="M 620.685777 450.882218 
L 620.685777 450.693639 
L 620.497198 450.693639 
L 620.497198 450.882218 
L 620.685777 450.882218 
" clip-path="url(#p1c700c3b7b)" style="fill: #ff0000; fill-opacity: 0.7; stroke: #000000; stroke-opacity: 0.7; stroke-width: 0.5"/>
    <path d="M 153.776107 387.745949 
L 153.776107 387.55737 
L 153.587528 387.55737 
L 153.587528 387.745949 
L 153.776107 387.745949 
" clip-path="url(#p1c700c3b7b)" style="fill: #ff0000; fill-opacity: 0.7; stroke: #000000; stroke-opacity: 0.7; stroke-width: 0.5"/>
    <path d="M 412.625135 277.017159 
L 412.625135 276.82858 
L 412.436556 276.82858 
L 412.436556 277.017159 
L 412.625135 277.017159 
" clip-path="url(#p1c700c3b7b)" style="fill: #ff0000; fill-opacity: 0.7; stroke: #000000; stroke-opacity: 0.7; stroke-width: 0.5"/>
    <path d="M 363.888037 422.305185 
L 363.888037 422.116607 
L 363.699458 422.116607 
L 363.699458 422.305185 
L 363.888037 422.305185 
" clip-path="url(#p1c700c3b7b)" style="fill: #ff0000; fill-opacity: 0.7; stroke: #000000; stroke-opacity: 0.7; stroke-width: 0.5"/>
    <path d="M 357.895617 415.750245 
L 357.895617 415.561666 
L 357.707038 415.561666 
L 357.707038 415.750245 
L 357.895617 415.750245 
" clip-path="url(#p1c700c3b7b)" style="fill: #ff0000; fill-opacity: 0.7; stroke: #000000; stroke-opacity: 0.7; stroke-width: 0.5"/>
    <path d="M 621.294697 453.125784 
L 621.294697 452.937205 
L 621.106118 452.937205 
L 621.106118 453.125784 
L 621.294697 453.125784 
" clip-path="url(#p1c700c3b7b)" style="fill: #ff0000; fill-opacity: 0.7; stroke: #000000; stroke-opacity: 0.7; stroke-width: 0.5"/>
    <path d="M 242.636169 336.43038 
L 242.636169 336.241801 
L 242.44759 336.241801 
L 242.44759 336.43038 
L 242.636169 336.43038 
" clip-path="url(#p1c700c3b7b)" style="fill: #ff0000; fill-opacity: 0.7; stroke: #000000; stroke-opacity: 0.7; stroke-width: 0.5"/>
    <path d="M 345.104048 405.891243 
L 345.104048 405.702664 
L 344.915469 405.702664 
L 344.915469 405.891243 
L 345.104048 405.891243 
" clip-path="url(#p1c700c3b7b)" style="fill: #ff0000; fill-opacity: 0.7; stroke: #000000; stroke-opacity: 0.7; stroke-width: 0.5"/>
    <path d="M 242.636169 336.43038 
L 242.636169 336.241801 
L 242.44759 336.241801 
L 242.44759 336.43038 
L 242.636169 336.43038 
" clip-path="url(#p1c700c3b7b)" style="fill: #ff0000; fill-opacity: 0.7; stroke: #000000; stroke-opacity: 0.7; stroke-width: 0.5"/>
   </g>
   <g id="matplotlib.axis_1">
    <g id="xtick_1">
     <g id="line2d_1">
      <defs>
       <path id="m6ab1d3eb49" d="M 0 0 
L 0 3.5 
" style="stroke: #000000; stroke-width: 0.8"/>
      </defs>
      <g>
       <use xlink:href="#m6ab1d3eb49" x="153.297037" y="564.756439" style="stroke: #000000; stroke-width: 0.8"/>
      </g>
     </g>
     <g id="text_1">
      <!-- 394500 -->
      <g transform="translate(134.209537 579.354876) scale(0.1 -0.1)">
       <defs>
        <path id="DejaVuSans-33" d="M 2597 2516 
Q 3050 2419 3304 2112 
Q 3559 1806 3559 1356 
Q 3559 666 3084 287 
Q 2609 -91 1734 -91 
Q 1441 -91 1130 -33 
Q 819 25 488 141 
L 488 750 
Q 750 597 1062 519 
Q 1375 441 1716 441 
Q 2309 441 2620 675 
Q 2931 909 2931 1356 
Q 2931 1769 2642 2001 
Q 2353 2234 1838 2234 
L 1294 2234 
L 1294 2753 
L 1863 2753 
Q 2328 2753 2575 2939 
Q 2822 3125 2822 3475 
Q 2822 3834 2567 4026 
Q 2313 4219 1838 4219 
Q 1578 4219 1281 4162 
Q 984 4106 628 3988 
L 628 4550 
Q 988 4650 1302 4700 
Q 1616 4750 1894 4750 
Q 2613 4750 3031 4423 
Q 3450 4097 3450 3541 
Q 3450 3153 3228 2886 
Q 3006 2619 2597 2516 
z
" transform="scale(0.015625)"/>
        <path id="DejaVuSans-39" d="M 703 97 
L 703 672 
Q 941 559 1184 500 
Q 1428 441 1663 441 
Q 2288 441 2617 861 
Q 2947 1281 2994 2138 
Q 2813 1869 2534 1725 
Q 2256 1581 1919 1581 
Q 1219 1581 811 2004 
Q 403 2428 403 3163 
Q 403 3881 828 4315 
Q 1253 4750 1959 4750 
Q 2769 4750 3195 4129 
Q 3622 3509 3622 2328 
Q 3622 1225 3098 567 
Q 2575 -91 1691 -91 
Q 1453 -91 1209 -44 
Q 966 3 703 97 
z
M 1959 2075 
Q 2384 2075 2632 2365 
Q 2881 2656 2881 3163 
Q 2881 3666 2632 3958 
Q 2384 4250 1959 4250 
Q 1534 4250 1286 3958 
Q 1038 3666 1038 3163 
Q 1038 2656 1286 2365 
Q 1534 2075 1959 2075 
z
" transform="scale(0.015625)"/>
        <path id="DejaVuSans-34" d="M 2419 4116 
L 825 1625 
L 2419 1625 
L 2419 4116 
z
M 2253 4666 
L 3047 4666 
L 3047 1625 
L 3713 1625 
L 3713 1100 
L 3047 1100 
L 3047 0 
L 2419 0 
L 2419 1100 
L 313 1100 
L 313 1709 
L 2253 4666 
z
" transform="scale(0.015625)"/>
        <path id="DejaVuSans-35" d="M 691 4666 
L 3169 4666 
L 3169 4134 
L 1269 4134 
L 1269 2991 
Q 1406 3038 1543 3061 
Q 1681 3084 1819 3084 
Q 2600 3084 3056 2656 
Q 3513 2228 3513 1497 
Q 3513 744 3044 326 
Q 2575 -91 1722 -91 
Q 1428 -91 1123 -41 
Q 819 9 494 109 
L 494 744 
Q 775 591 1075 516 
Q 1375 441 1709 441 
Q 2250 441 2565 725 
Q 2881 1009 2881 1497 
Q 2881 1984 2565 2268 
Q 2250 2553 1709 2553 
Q 1456 2553 1204 2497 
Q 953 2441 691 2322 
L 691 4666 
z
" transform="scale(0.015625)"/>
        <path id="DejaVuSans-30" d="M 2034 4250 
Q 1547 4250 1301 3770 
Q 1056 3291 1056 2328 
Q 1056 1369 1301 889 
Q 1547 409 2034 409 
Q 2525 409 2770 889 
Q 3016 1369 3016 2328 
Q 3016 3291 2770 3770 
Q 2525 4250 2034 4250 
z
M 2034 4750 
Q 2819 4750 3233 4129 
Q 3647 3509 3647 2328 
Q 3647 1150 3233 529 
Q 2819 -91 2034 -91 
Q 1250 -91 836 529 
Q 422 1150 422 2328 
Q 422 3509 836 4129 
Q 1250 4750 2034 4750 
z
" transform="scale(0.015625)"/>
       </defs>
       <use xlink:href="#DejaVuSans-33"/>
       <use xlink:href="#DejaVuSans-39" x="63.623047"/>
       <use xlink:href="#DejaVuSans-34" x="127.246094"/>
       <use xlink:href="#DejaVuSans-35" x="190.869141"/>
       <use xlink:href="#DejaVuSans-30" x="254.492188"/>
       <use xlink:href="#DejaVuSans-30" x="318.115234"/>
      </g>
     </g>
    </g>
    <g id="xtick_2">
     <g id="line2d_2">
      <g>
       <use xlink:href="#m6ab1d3eb49" x="247.586489" y="564.756439" style="stroke: #000000; stroke-width: 0.8"/>
      </g>
     </g>
     <g id="text_2">
      <!-- 395000 -->
      <g transform="translate(228.498989 579.354876) scale(0.1 -0.1)">
       <use xlink:href="#DejaVuSans-33"/>
       <use xlink:href="#DejaVuSans-39" x="63.623047"/>
       <use xlink:href="#DejaVuSans-35" x="127.246094"/>
       <use xlink:href="#DejaVuSans-30" x="190.869141"/>
       <use xlink:href="#DejaVuSans-30" x="254.492188"/>
       <use xlink:href="#DejaVuSans-30" x="318.115234"/>
      </g>
     </g>
    </g>
    <g id="xtick_3">
     <g id="line2d_3">
      <g>
       <use xlink:href="#m6ab1d3eb49" x="341.875942" y="564.756439" style="stroke: #000000; stroke-width: 0.8"/>
      </g>
     </g>
     <g id="text_3">
      <!-- 395500 -->
      <g transform="translate(322.788442 579.354876) scale(0.1 -0.1)">
       <use xlink:href="#DejaVuSans-33"/>
       <use xlink:href="#DejaVuSans-39" x="63.623047"/>
       <use xlink:href="#DejaVuSans-35" x="127.246094"/>
       <use xlink:href="#DejaVuSans-35" x="190.869141"/>
       <use xlink:href="#DejaVuSans-30" x="254.492188"/>
       <use xlink:href="#DejaVuSans-30" x="318.115234"/>
      </g>
     </g>
    </g>
    <g id="xtick_4">
     <g id="line2d_4">
      <g>
       <use xlink:href="#m6ab1d3eb49" x="436.165394" y="564.756439" style="stroke: #000000; stroke-width: 0.8"/>
      </g>
     </g>
     <g id="text_4">
      <!-- 396000 -->
      <g transform="translate(417.077894 579.354876) scale(0.1 -0.1)">
       <defs>
        <path id="DejaVuSans-36" d="M 2113 2584 
Q 1688 2584 1439 2293 
Q 1191 2003 1191 1497 
Q 1191 994 1439 701 
Q 1688 409 2113 409 
Q 2538 409 2786 701 
Q 3034 994 3034 1497 
Q 3034 2003 2786 2293 
Q 2538 2584 2113 2584 
z
M 3366 4563 
L 3366 3988 
Q 3128 4100 2886 4159 
Q 2644 4219 2406 4219 
Q 1781 4219 1451 3797 
Q 1122 3375 1075 2522 
Q 1259 2794 1537 2939 
Q 1816 3084 2150 3084 
Q 2853 3084 3261 2657 
Q 3669 2231 3669 1497 
Q 3669 778 3244 343 
Q 2819 -91 2113 -91 
Q 1303 -91 875 529 
Q 447 1150 447 2328 
Q 447 3434 972 4092 
Q 1497 4750 2381 4750 
Q 2619 4750 2861 4703 
Q 3103 4656 3366 4563 
z
" transform="scale(0.015625)"/>
       </defs>
       <use xlink:href="#DejaVuSans-33"/>
       <use xlink:href="#DejaVuSans-39" x="63.623047"/>
       <use xlink:href="#DejaVuSans-36" x="127.246094"/>
       <use xlink:href="#DejaVuSans-30" x="190.869141"/>
       <use xlink:href="#DejaVuSans-30" x="254.492188"/>
       <use xlink:href="#DejaVuSans-30" x="318.115234"/>
      </g>
     </g>
    </g>
    <g id="xtick_5">
     <g id="line2d_5">
      <g>
       <use xlink:href="#m6ab1d3eb49" x="530.454846" y="564.756439" style="stroke: #000000; stroke-width: 0.8"/>
      </g>
     </g>
     <g id="text_5">
      <!-- 396500 -->
      <g transform="translate(511.367346 579.354876) scale(0.1 -0.1)">
       <use xlink:href="#DejaVuSans-33"/>
       <use xlink:href="#DejaVuSans-39" x="63.623047"/>
       <use xlink:href="#DejaVuSans-36" x="127.246094"/>
       <use xlink:href="#DejaVuSans-35" x="190.869141"/>
       <use xlink:href="#DejaVuSans-30" x="254.492188"/>
       <use xlink:href="#DejaVuSans-30" x="318.115234"/>
      </g>
     </g>
    </g>
    <g id="xtick_6">
     <g id="line2d_6">
      <g>
       <use xlink:href="#m6ab1d3eb49" x="624.744298" y="564.756439" style="stroke: #000000; stroke-width: 0.8"/>
      </g>
     </g>
     <g id="text_6">
      <!-- 397000 -->
      <g transform="translate(605.656798 579.354876) scale(0.1 -0.1)">
       <defs>
        <path id="DejaVuSans-37" d="M 525 4666 
L 3525 4666 
L 3525 4397 
L 1831 0 
L 1172 0 
L 2766 4134 
L 525 4134 
L 525 4666 
z
" transform="scale(0.015625)"/>
       </defs>
       <use xlink:href="#DejaVuSans-33"/>
       <use xlink:href="#DejaVuSans-39" x="63.623047"/>
       <use xlink:href="#DejaVuSans-37" x="127.246094"/>
       <use xlink:href="#DejaVuSans-30" x="190.869141"/>
       <use xlink:href="#DejaVuSans-30" x="254.492188"/>
       <use xlink:href="#DejaVuSans-30" x="318.115234"/>
      </g>
     </g>
    </g>
   </g>
   <g id="matplotlib.axis_2">
    <g id="ytick_1">
     <g id="line2d_7">
      <defs>
       <path id="mf0c320be3e" d="M 0 0 
L -3.5 0 
" style="stroke: #000000; stroke-width: 0.8"/>
      </defs>
      <g>
       <use xlink:href="#mf0c320be3e" x="90" y="555.587303" style="stroke: #000000; stroke-width: 0.8"/>
      </g>
     </g>
     <g id="text_7">
      <!-- 5.80875 -->
      <g transform="translate(41.646875 559.386522) scale(0.1 -0.1)">
       <defs>
        <path id="DejaVuSans-2e" d="M 684 794 
L 1344 794 
L 1344 0 
L 684 0 
L 684 794 
z
" transform="scale(0.015625)"/>
        <path id="DejaVuSans-38" d="M 2034 2216 
Q 1584 2216 1326 1975 
Q 1069 1734 1069 1313 
Q 1069 891 1326 650 
Q 1584 409 2034 409 
Q 2484 409 2743 651 
Q 3003 894 3003 1313 
Q 3003 1734 2745 1975 
Q 2488 2216 2034 2216 
z
M 1403 2484 
Q 997 2584 770 2862 
Q 544 3141 544 3541 
Q 544 4100 942 4425 
Q 1341 4750 2034 4750 
Q 2731 4750 3128 4425 
Q 3525 4100 3525 3541 
Q 3525 3141 3298 2862 
Q 3072 2584 2669 2484 
Q 3125 2378 3379 2068 
Q 3634 1759 3634 1313 
Q 3634 634 3220 271 
Q 2806 -91 2034 -91 
Q 1263 -91 848 271 
Q 434 634 434 1313 
Q 434 1759 690 2068 
Q 947 2378 1403 2484 
z
M 1172 3481 
Q 1172 3119 1398 2916 
Q 1625 2713 2034 2713 
Q 2441 2713 2670 2916 
Q 2900 3119 2900 3481 
Q 2900 3844 2670 4047 
Q 2441 4250 2034 4250 
Q 1625 4250 1398 4047 
Q 1172 3844 1172 3481 
z
" transform="scale(0.015625)"/>
       </defs>
       <use xlink:href="#DejaVuSans-35"/>
       <use xlink:href="#DejaVuSans-2e" x="63.623047"/>
       <use xlink:href="#DejaVuSans-38" x="95.410156"/>
       <use xlink:href="#DejaVuSans-30" x="159.033203"/>
       <use xlink:href="#DejaVuSans-38" x="222.65625"/>
       <use xlink:href="#DejaVuSans-37" x="286.279297"/>
       <use xlink:href="#DejaVuSans-35" x="349.902344"/>
      </g>
     </g>
    </g>
    <g id="ytick_2">
     <g id="line2d_8">
      <g>
       <use xlink:href="#mf0c320be3e" x="90" y="508.442577" style="stroke: #000000; stroke-width: 0.8"/>
      </g>
     </g>
     <g id="text_8">
      <!-- 5.80900 -->
      <g transform="translate(41.646875 512.241796) scale(0.1 -0.1)">
       <use xlink:href="#DejaVuSans-35"/>
       <use xlink:href="#DejaVuSans-2e" x="63.623047"/>
       <use xlink:href="#DejaVuSans-38" x="95.410156"/>
       <use xlink:href="#DejaVuSans-30" x="159.033203"/>
       <use xlink:href="#DejaVuSans-39" x="222.65625"/>
       <use xlink:href="#DejaVuSans-30" x="286.279297"/>
       <use xlink:href="#DejaVuSans-30" x="349.902344"/>
      </g>
     </g>
    </g>
    <g id="ytick_3">
     <g id="line2d_9">
      <g>
       <use xlink:href="#mf0c320be3e" x="90" y="461.297851" style="stroke: #000000; stroke-width: 0.8"/>
      </g>
     </g>
     <g id="text_9">
      <!-- 5.80925 -->
      <g transform="translate(41.646875 465.09707) scale(0.1 -0.1)">
       <defs>
        <path id="DejaVuSans-32" d="M 1228 531 
L 3431 531 
L 3431 0 
L 469 0 
L 469 531 
Q 828 903 1448 1529 
Q 2069 2156 2228 2338 
Q 2531 2678 2651 2914 
Q 2772 3150 2772 3378 
Q 2772 3750 2511 3984 
Q 2250 4219 1831 4219 
Q 1534 4219 1204 4116 
Q 875 4013 500 3803 
L 500 4441 
Q 881 4594 1212 4672 
Q 1544 4750 1819 4750 
Q 2544 4750 2975 4387 
Q 3406 4025 3406 3419 
Q 3406 3131 3298 2873 
Q 3191 2616 2906 2266 
Q 2828 2175 2409 1742 
Q 1991 1309 1228 531 
z
" transform="scale(0.015625)"/>
       </defs>
       <use xlink:href="#DejaVuSans-35"/>
       <use xlink:href="#DejaVuSans-2e" x="63.623047"/>
       <use xlink:href="#DejaVuSans-38" x="95.410156"/>
       <use xlink:href="#DejaVuSans-30" x="159.033203"/>
       <use xlink:href="#DejaVuSans-39" x="222.65625"/>
       <use xlink:href="#DejaVuSans-32" x="286.279297"/>
       <use xlink:href="#DejaVuSans-35" x="349.902344"/>
      </g>
     </g>
    </g>
    <g id="ytick_4">
     <g id="line2d_10">
      <g>
       <use xlink:href="#mf0c320be3e" x="90" y="414.153125" style="stroke: #000000; stroke-width: 0.8"/>
      </g>
     </g>
     <g id="text_10">
      <!-- 5.80950 -->
      <g transform="translate(41.646875 417.952343) scale(0.1 -0.1)">
       <use xlink:href="#DejaVuSans-35"/>
       <use xlink:href="#DejaVuSans-2e" x="63.623047"/>
       <use xlink:href="#DejaVuSans-38" x="95.410156"/>
       <use xlink:href="#DejaVuSans-30" x="159.033203"/>
       <use xlink:href="#DejaVuSans-39" x="222.65625"/>
       <use xlink:href="#DejaVuSans-35" x="286.279297"/>
       <use xlink:href="#DejaVuSans-30" x="349.902344"/>
      </g>
     </g>
    </g>
    <g id="ytick_5">
     <g id="line2d_11">
      <g>
       <use xlink:href="#mf0c320be3e" x="90" y="367.008398" style="stroke: #000000; stroke-width: 0.8"/>
      </g>
     </g>
     <g id="text_11">
      <!-- 5.80975 -->
      <g transform="translate(41.646875 370.807617) scale(0.1 -0.1)">
       <use xlink:href="#DejaVuSans-35"/>
       <use xlink:href="#DejaVuSans-2e" x="63.623047"/>
       <use xlink:href="#DejaVuSans-38" x="95.410156"/>
       <use xlink:href="#DejaVuSans-30" x="159.033203"/>
       <use xlink:href="#DejaVuSans-39" x="222.65625"/>
       <use xlink:href="#DejaVuSans-37" x="286.279297"/>
       <use xlink:href="#DejaVuSans-35" x="349.902344"/>
      </g>
     </g>
    </g>
    <g id="ytick_6">
     <g id="line2d_12">
      <g>
       <use xlink:href="#mf0c320be3e" x="90" y="319.863672" style="stroke: #000000; stroke-width: 0.8"/>
      </g>
     </g>
     <g id="text_12">
      <!-- 5.81000 -->
      <g transform="translate(41.646875 323.662891) scale(0.1 -0.1)">
       <defs>
        <path id="DejaVuSans-31" d="M 794 531 
L 1825 531 
L 1825 4091 
L 703 3866 
L 703 4441 
L 1819 4666 
L 2450 4666 
L 2450 531 
L 3481 531 
L 3481 0 
L 794 0 
L 794 531 
z
" transform="scale(0.015625)"/>
       </defs>
       <use xlink:href="#DejaVuSans-35"/>
       <use xlink:href="#DejaVuSans-2e" x="63.623047"/>
       <use xlink:href="#DejaVuSans-38" x="95.410156"/>
       <use xlink:href="#DejaVuSans-31" x="159.033203"/>
       <use xlink:href="#DejaVuSans-30" x="222.65625"/>
       <use xlink:href="#DejaVuSans-30" x="286.279297"/>
       <use xlink:href="#DejaVuSans-30" x="349.902344"/>
      </g>
     </g>
    </g>
    <g id="ytick_7">
     <g id="line2d_13">
      <g>
       <use xlink:href="#mf0c320be3e" x="90" y="272.718946" style="stroke: #000000; stroke-width: 0.8"/>
      </g>
     </g>
     <g id="text_13">
      <!-- 5.81025 -->
      <g transform="translate(41.646875 276.518165) scale(0.1 -0.1)">
       <use xlink:href="#DejaVuSans-35"/>
       <use xlink:href="#DejaVuSans-2e" x="63.623047"/>
       <use xlink:href="#DejaVuSans-38" x="95.410156"/>
       <use xlink:href="#DejaVuSans-31" x="159.033203"/>
       <use xlink:href="#DejaVuSans-30" x="222.65625"/>
       <use xlink:href="#DejaVuSans-32" x="286.279297"/>
       <use xlink:href="#DejaVuSans-35" x="349.902344"/>
      </g>
     </g>
    </g>
    <g id="ytick_8">
     <g id="line2d_14">
      <g>
       <use xlink:href="#mf0c320be3e" x="90" y="225.57422" style="stroke: #000000; stroke-width: 0.8"/>
      </g>
     </g>
     <g id="text_14">
      <!-- 5.81050 -->
      <g transform="translate(41.646875 229.373439) scale(0.1 -0.1)">
       <use xlink:href="#DejaVuSans-35"/>
       <use xlink:href="#DejaVuSans-2e" x="63.623047"/>
       <use xlink:href="#DejaVuSans-38" x="95.410156"/>
       <use xlink:href="#DejaVuSans-31" x="159.033203"/>
       <use xlink:href="#DejaVuSans-30" x="222.65625"/>
       <use xlink:href="#DejaVuSans-35" x="286.279297"/>
       <use xlink:href="#DejaVuSans-30" x="349.902344"/>
      </g>
     </g>
    </g>
    <g id="ytick_9">
     <g id="line2d_15">
      <g>
       <use xlink:href="#mf0c320be3e" x="90" y="178.429494" style="stroke: #000000; stroke-width: 0.8"/>
      </g>
     </g>
     <g id="text_15">
      <!-- 5.81075 -->
      <g transform="translate(41.646875 182.228713) scale(0.1 -0.1)">
       <use xlink:href="#DejaVuSans-35"/>
       <use xlink:href="#DejaVuSans-2e" x="63.623047"/>
       <use xlink:href="#DejaVuSans-38" x="95.410156"/>
       <use xlink:href="#DejaVuSans-31" x="159.033203"/>
       <use xlink:href="#DejaVuSans-30" x="222.65625"/>
       <use xlink:href="#DejaVuSans-37" x="286.279297"/>
       <use xlink:href="#DejaVuSans-35" x="349.902344"/>
      </g>
     </g>
    </g>
    <g id="text_16">
     <!-- 1e6 -->
     <g transform="translate(90 159.443561) scale(0.1 -0.1)">
      <defs>
       <path id="DejaVuSans-65" d="M 3597 1894 
L 3597 1613 
L 953 1613 
Q 991 1019 1311 708 
Q 1631 397 2203 397 
Q 2534 397 2845 478 
Q 3156 559 3463 722 
L 3463 178 
Q 3153 47 2828 -22 
Q 2503 -91 2169 -91 
Q 1331 -91 842 396 
Q 353 884 353 1716 
Q 353 2575 817 3079 
Q 1281 3584 2069 3584 
Q 2775 3584 3186 3129 
Q 3597 2675 3597 1894 
z
M 3022 2063 
Q 3016 2534 2758 2815 
Q 2500 3097 2075 3097 
Q 1594 3097 1305 2825 
Q 1016 2553 972 2059 
L 3022 2063 
z
" transform="scale(0.015625)"/>
      </defs>
      <use xlink:href="#DejaVuSans-31"/>
      <use xlink:href="#DejaVuSans-65" x="63.623047"/>
      <use xlink:href="#DejaVuSans-36" x="125.146484"/>
     </g>
    </g>
   </g>
   <g id="patch_3">
    <path d="M 90 564.756439 
L 90 162.443561 
" style="fill: none; stroke: #000000; stroke-width: 0.8; stroke-linejoin: miter; stroke-linecap: square"/>
   </g>
   <g id="patch_4">
    <path d="M 648 564.756439 
L 648 162.443561 
" style="fill: none; stroke: #000000; stroke-width: 0.8; stroke-linejoin: miter; stroke-linecap: square"/>
   </g>
   <g id="patch_5">
    <path d="M 90 564.756439 
L 648 564.756439 
" style="fill: none; stroke: #000000; stroke-width: 0.8; stroke-linejoin: miter; stroke-linecap: square"/>
   </g>
   <g id="patch_6">
    <path d="M 90 162.443561 
L 648 162.443561 
" style="fill: none; stroke: #000000; stroke-width: 0.8; stroke-linejoin: miter; stroke-linecap: square"/>
   </g>
   <g id="text_17">
    <!-- Gropiusstadt -->
    <g transform="translate(315.385433 397.848096) scale(0.12 -0.12)">
     <defs>
      <path id="DejaVuSans-47" d="M 3809 666 
L 3809 1919 
L 2778 1919 
L 2778 2438 
L 4434 2438 
L 4434 434 
Q 4069 175 3628 42 
Q 3188 -91 2688 -91 
Q 1594 -91 976 548 
Q 359 1188 359 2328 
Q 359 3472 976 4111 
Q 1594 4750 2688 4750 
Q 3144 4750 3555 4637 
Q 3966 4525 4313 4306 
L 4313 3634 
Q 3963 3931 3569 4081 
Q 3175 4231 2741 4231 
Q 1884 4231 1454 3753 
Q 1025 3275 1025 2328 
Q 1025 1384 1454 906 
Q 1884 428 2741 428 
Q 3075 428 3337 486 
Q 3600 544 3809 666 
z
" transform="scale(0.015625)"/>
      <path id="DejaVuSans-72" d="M 2631 2963 
Q 2534 3019 2420 3045 
Q 2306 3072 2169 3072 
Q 1681 3072 1420 2755 
Q 1159 2438 1159 1844 
L 1159 0 
L 581 0 
L 581 3500 
L 1159 3500 
L 1159 2956 
Q 1341 3275 1631 3429 
Q 1922 3584 2338 3584 
Q 2397 3584 2469 3576 
Q 2541 3569 2628 3553 
L 2631 2963 
z
" transform="scale(0.015625)"/>
      <path id="DejaVuSans-6f" d="M 1959 3097 
Q 1497 3097 1228 2736 
Q 959 2375 959 1747 
Q 959 1119 1226 758 
Q 1494 397 1959 397 
Q 2419 397 2687 759 
Q 2956 1122 2956 1747 
Q 2956 2369 2687 2733 
Q 2419 3097 1959 3097 
z
M 1959 3584 
Q 2709 3584 3137 3096 
Q 3566 2609 3566 1747 
Q 3566 888 3137 398 
Q 2709 -91 1959 -91 
Q 1206 -91 779 398 
Q 353 888 353 1747 
Q 353 2609 779 3096 
Q 1206 3584 1959 3584 
z
" transform="scale(0.015625)"/>
      <path id="DejaVuSans-70" d="M 1159 525 
L 1159 -1331 
L 581 -1331 
L 581 3500 
L 1159 3500 
L 1159 2969 
Q 1341 3281 1617 3432 
Q 1894 3584 2278 3584 
Q 2916 3584 3314 3078 
Q 3713 2572 3713 1747 
Q 3713 922 3314 415 
Q 2916 -91 2278 -91 
Q 1894 -91 1617 61 
Q 1341 213 1159 525 
z
M 3116 1747 
Q 3116 2381 2855 2742 
Q 2594 3103 2138 3103 
Q 1681 3103 1420 2742 
Q 1159 2381 1159 1747 
Q 1159 1113 1420 752 
Q 1681 391 2138 391 
Q 2594 391 2855 752 
Q 3116 1113 3116 1747 
z
" transform="scale(0.015625)"/>
      <path id="DejaVuSans-69" d="M 603 3500 
L 1178 3500 
L 1178 0 
L 603 0 
L 603 3500 
z
M 603 4863 
L 1178 4863 
L 1178 4134 
L 603 4134 
L 603 4863 
z
" transform="scale(0.015625)"/>
      <path id="DejaVuSans-75" d="M 544 1381 
L 544 3500 
L 1119 3500 
L 1119 1403 
Q 1119 906 1312 657 
Q 1506 409 1894 409 
Q 2359 409 2629 706 
Q 2900 1003 2900 1516 
L 2900 3500 
L 3475 3500 
L 3475 0 
L 2900 0 
L 2900 538 
Q 2691 219 2414 64 
Q 2138 -91 1772 -91 
Q 1169 -91 856 284 
Q 544 659 544 1381 
z
M 1991 3584 
L 1991 3584 
z
" transform="scale(0.015625)"/>
      <path id="DejaVuSans-73" d="M 2834 3397 
L 2834 2853 
Q 2591 2978 2328 3040 
Q 2066 3103 1784 3103 
Q 1356 3103 1142 2972 
Q 928 2841 928 2578 
Q 928 2378 1081 2264 
Q 1234 2150 1697 2047 
L 1894 2003 
Q 2506 1872 2764 1633 
Q 3022 1394 3022 966 
Q 3022 478 2636 193 
Q 2250 -91 1575 -91 
Q 1294 -91 989 -36 
Q 684 19 347 128 
L 347 722 
Q 666 556 975 473 
Q 1284 391 1588 391 
Q 1994 391 2212 530 
Q 2431 669 2431 922 
Q 2431 1156 2273 1281 
Q 2116 1406 1581 1522 
L 1381 1569 
Q 847 1681 609 1914 
Q 372 2147 372 2553 
Q 372 3047 722 3315 
Q 1072 3584 1716 3584 
Q 2034 3584 2315 3537 
Q 2597 3491 2834 3397 
z
" transform="scale(0.015625)"/>
      <path id="DejaVuSans-74" d="M 1172 4494 
L 1172 3500 
L 2356 3500 
L 2356 3053 
L 1172 3053 
L 1172 1153 
Q 1172 725 1289 603 
Q 1406 481 1766 481 
L 2356 481 
L 2356 0 
L 1766 0 
Q 1100 0 847 248 
Q 594 497 594 1153 
L 594 3053 
L 172 3053 
L 172 3500 
L 594 3500 
L 594 4494 
L 1172 4494 
z
" transform="scale(0.015625)"/>
      <path id="DejaVuSans-61" d="M 2194 1759 
Q 1497 1759 1228 1600 
Q 959 1441 959 1056 
Q 959 750 1161 570 
Q 1363 391 1709 391 
Q 2188 391 2477 730 
Q 2766 1069 2766 1631 
L 2766 1759 
L 2194 1759 
z
M 3341 1997 
L 3341 0 
L 2766 0 
L 2766 531 
Q 2569 213 2275 61 
Q 1981 -91 1556 -91 
Q 1019 -91 701 211 
Q 384 513 384 1019 
Q 384 1609 779 1909 
Q 1175 2209 1959 2209 
L 2766 2209 
L 2766 2266 
Q 2766 2663 2505 2880 
Q 2244 3097 1772 3097 
Q 1472 3097 1187 3025 
Q 903 2953 641 2809 
L 641 3341 
Q 956 3463 1253 3523 
Q 1550 3584 1831 3584 
Q 2591 3584 2966 3190 
Q 3341 2797 3341 1997 
z
" transform="scale(0.015625)"/>
      <path id="DejaVuSans-64" d="M 2906 2969 
L 2906 4863 
L 3481 4863 
L 3481 0 
L 2906 0 
L 2906 525 
Q 2725 213 2448 61 
Q 2172 -91 1784 -91 
Q 1150 -91 751 415 
Q 353 922 353 1747 
Q 353 2572 751 3078 
Q 1150 3584 1784 3584 
Q 2172 3584 2448 3432 
Q 2725 3281 2906 2969 
z
M 947 1747 
Q 947 1113 1208 752 
Q 1469 391 1925 391 
Q 2381 391 2643 752 
Q 2906 1113 2906 1747 
Q 2906 2381 2643 2742 
Q 2381 3103 1925 3103 
Q 1469 3103 1208 2742 
Q 947 2381 947 1747 
z
" transform="scale(0.015625)"/>
     </defs>
     <use xlink:href="#DejaVuSans-47"/>
     <use xlink:href="#DejaVuSans-72" x="77.490234"/>
     <use xlink:href="#DejaVuSans-6f" x="116.353516"/>
     <use xlink:href="#DejaVuSans-70" x="177.535156"/>
     <use xlink:href="#DejaVuSans-69" x="241.011719"/>
     <use xlink:href="#DejaVuSans-75" x="268.794922"/>
     <use xlink:href="#DejaVuSans-73" x="332.173828"/>
     <use xlink:href="#DejaVuSans-73" x="384.273438"/>
     <use xlink:href="#DejaVuSans-74" x="436.373047"/>
     <use xlink:href="#DejaVuSans-61" x="475.582031"/>
     <use xlink:href="#DejaVuSans-64" x="536.861328"/>
     <use xlink:href="#DejaVuSans-74" x="600.337891"/>
    </g>
   </g>
  </g>
 </g>
 <defs>
  <clipPath id="p1c700c3b7b">
   <rect x="90" y="162.443561" width="558" height="402.312877"/>
  </clipPath>
 </defs>
</svg>
