<?xml version="1.0" encoding="utf-8" standalone="no"?>
<!DOCTYPE svg PUBLIC "-//W3C//DTD SVG 1.1//EN"
  "http://www.w3.org/Graphics/SVG/1.1/DTD/svg11.dtd">
<svg xmlns:xlink="http://www.w3.org/1999/xlink" width="720pt" height="720pt" viewBox="0 0 720 720" xmlns="http://www.w3.org/2000/svg" version="1.1">
 <metadata>
  <rdf:RDF xmlns:dc="http://purl.org/dc/elements/1.1/" xmlns:cc="http://creativecommons.org/ns#" xmlns:rdf="http://www.w3.org/1999/02/22-rdf-syntax-ns#">
   <cc:Work>
    <dc:type rdf:resource="http://purl.org/dc/dcmitype/StillImage"/>
    <dc:date>2024-10-15T13:01:17.743499</dc:date>
    <dc:format>image/svg+xml</dc:format>
    <dc:creator>
     <cc:Agent>
      <dc:title>Matplotlib v3.9.2, https://matplotlib.org/</dc:title>
     </cc:Agent>
    </dc:creator>
   </cc:Work>
  </rdf:RDF>
 </metadata>
 <defs>
  <style type="text/css">*{stroke-linejoin: round; stroke-linecap: butt}</style>
 </defs>
 <g id="figure_1">
  <g id="patch_1">
   <path d="M 0 720 
L 720 720 
L 720 0 
L 0 0 
z
" style="fill: #ffffff"/>
  </g>
  <g id="axes_1">
   <g id="patch_2">
    <path d="M 90 590.993115 
L 648 590.993115 
L 648 136.206885 
L 90 136.206885 
z
" style="fill: #ffffff"/>
   </g>
   <g id="PatchCollection_1">
    <path d="M 528.52355 551.494401 
L 529.141171 551.533176 
L 529.712257 551.569031 
L 530.235981 551.601738 
L 531.007491 551.650141 
L 531.303782 551.646799 
L 533.01277 551.62756 
L 534.928939 551.606396 
L 536.925003 551.595764 
L 538.933522 551.67252 
L 540.939509 551.826133 
L 542.927574 552.015998 
L 544.942877 552.215382 
L 546.938637 552.430562 
L 548.93784 552.67126 
L 549.828535 552.773028 
L 550.936334 552.899605 
L 552.334956 553.052914 
L 554.346108 553.252197 
L 556.355235 553.456542 
L 558.367399 553.658862 
L 560.383614 553.865436 
L 562.397399 553.980671 
L 563.966444 553.949888 
L 564.70069 554.103602 
L 565.111001 554.033428 
L 565.610726 553.854601 
L 567.600612 553.578562 
L 569.33846 553.29179 
L 569.645181 553.190326 
L 569.758897 553.281563 
L 569.772162 553.277411 
L 571.94675 552.609288 
L 571.964977 552.662349 
L 572.03586 552.71936 
L 573.554477 552.021466 
L 573.85097 551.88527 
L 575.634081 550.989613 
L 577.080903 550.19299 
L 578.773791 549.089241 
L 580.389213 547.894762 
L 582.168882 546.433054 
L 583.731446 545.153617 
L 585.291883 543.871041 
L 585.592629 543.620216 
L 586.822955 542.594034 
L 588.449921 541.43125 
L 588.621661 541.335861 
L 590.188984 540.465419 
L 592.418961 539.493208 
L 594.364901 538.922601 
L 596.353067 538.526061 
L 597.854671 538.267642 
L 597.987324 538.244858 
L 598.319765 538.187747 
L 600.327676 537.980769 
L 600.845425 537.991502 
L 601.459272 538.004363 
L 601.839204 537.763361 
L 602.025019 537.645492 
L 602.319993 538.052563 
L 603.31924 538.114636 
L 604.194847 538.189975 
L 606.182102 538.471785 
L 606.594742 538.581147 
L 608.111536 538.983357 
L 609.974542 539.689048 
L 611.778918 540.522935 
L 612.341324 540.816188 
L 613.665417 538.280502 
L 614.502849 536.676725 
L 614.786684 536.133053 
L 614.854124 535.994628 
L 615.035484 535.617329 
L 615.248436 535.17593 
L 615.424125 533.902468 
L 615.476274 533.524763 
L 615.648216 532.284108 
L 615.996454 529.770396 
L 616.247481 527.958021 
L 616.345704 527.632162 
L 616.386816 527.495054 
L 616.429852 527.008797 
L 616.514608 526.048535 
L 616.519773 525.9895 
L 616.715916 523.77218 
L 617.123391 522.158884 
L 619.484199 512.811347 
L 619.791932 511.591046 
L 619.916281 511.100131 
L 619.932078 511.037754 
L 621.449783 505.028804 
L 621.771085 503.331562 
L 622.1737 501.205073 
L 622.183624 501.136216 
L 622.18889 501.066852 
L 622.189396 500.997285 
L 622.185042 500.92782 
L 622.17289 500.834761 
L 622.152132 500.74322 
L 622.122969 500.654009 
L 622.085704 500.567937 
L 622.040542 500.485611 
L 621.98019 500.397514 
L 621.910826 500.316201 
L 621.83326 500.242685 
L 621.748403 500.177777 
L 621.657166 500.122083 
L 621.560563 500.076414 
L 621.459707 500.041175 
L 621.607751 499.533856 
L 621.969706 498.349984 
L 621.96976 498.349807 
L 622.120336 497.857778 
L 622.479915 496.681728 
L 622.636364 496.170156 
L 622.011581 495.987987 
L 621.388722 495.799337 
L 620.767788 495.60451 
L 620.148878 495.403203 
L 619.532095 495.195718 
L 618.582973 494.863885 
L 617.637192 494.522431 
L 616.694955 494.171358 
L 615.756363 493.810766 
L 614.821417 493.440656 
L 613.948038 493.088064 
L 613.078101 492.72727 
L 612.211608 492.358172 
L 611.348659 491.980872 
L 610.489355 491.59537 
L 609.674201 491.219286 
L 608.86249 490.835809 
L 608.054222 490.445041 
L 607.249599 490.046983 
L 607.157147 490.000707 
L 607.064797 489.954329 
L 606.972548 489.90785 
L 606.735799 489.788058 
L 606.499353 489.667658 
L 606.263313 489.546549 
L 593.679564 483.071189 
L 593.407171 482.930942 
L 592.2695 482.34555 
L 586.798551 479.519548 
L 583.836251 478.005286 
L 582.498487 477.316607 
L 582.853712 476.637853 
L 582.276928 476.351485 
L 582.133136 474.916004 
L 582.421529 474.870842 
L 582.136377 472.877715 
L 581.788645 471.19627 
L 581.441825 469.726562 
L 581.025742 468.181516 
L 580.561054 466.737935 
L 579.91774 464.839284 
L 579.642411 464.301384 
L 579.629247 463.716903 
L 579.345209 463.423954 
L 579.262782 463.339401 
L 579.12051 462.991568 
L 579.091752 462.921495 
L 578.770652 462.13672 
L 578.722451 462.018851 
L 578.518612 461.520747 
L 578.226473 460.807462 
L 577.410509 459.143434 
L 577.958232 459.040451 
L 577.954991 458.889572 
L 578.247738 458.881977 
L 577.826592 457.76314 
L 576.472424 455.011565 
L 575.855033 454.037836 
L 574.756044 452.723869 
L 574.716451 452.673542 
L 573.871425 451.639866 
L 573.037639 450.646897 
L 572.127299 449.689876 
L 571.1961 448.769005 
L 570.232091 447.860589 
L 569.195175 447.015665 
L 568.160689 446.243648 
L 567.947534 446.088617 
L 567.134 445.497149 
L 565.995114 444.742347 
L 564.892479 444.041922 
L 563.753187 443.413697 
L 562.537443 442.804306 
L 561.358964 442.264482 
L 560.140587 441.799793 
L 558.892338 441.409532 
L 558.075564 441.178454 
L 557.614319 441.04813 
L 557.701808 440.706474 
L 557.191147 440.578986 
L 556.598465 440.431145 
L 556.112916 440.309834 
L 556.128207 440.251406 
L 556.326274 439.487895 
L 557.201375 436.113968 
L 557.317116 435.668013 
L 557.332002 435.361191 
L 557.347596 435.037965 
L 557.363292 434.72051 
L 557.393974 434.095627 
L 557.53817 433.539803 
L 557.963063 431.900584 
L 557.977442 431.84489 
L 558.028072 431.649861 
L 558.224317 430.892629 
L 558.418637 430.143092 
L 558.473724 429.930544 
L 558.677968 429.142529 
L 558.862972 428.428838 
L 558.911477 428.241809 
L 559.12129 427.432224 
L 559.311256 426.699193 
L 559.363406 426.498291 
L 559.558435 425.745615 
L 559.761363 424.962763 
L 559.813108 424.763582 
L 560.017048 423.976883 
L 560.204787 423.252459 
L 560.25643 423.053177 
L 560.456117 422.282983 
L 560.651248 421.530105 
L 560.7036 421.327987 
L 560.907237 420.542604 
L 561.10257 419.788713 
L 561.154821 419.587304 
L 561.385494 418.697419 
L 561.578498 417.953047 
L 561.620623 417.79032 
L 561.828816 416.987216 
L 562.022023 416.241831 
L 562.065059 416.075763 
L 562.275278 415.265368 
L 562.467269 414.524439 
L 562.513039 414.347839 
L 562.722752 413.538862 
L 562.920009 412.777984 
L 562.969222 412.588119 
L 563.171339 411.808609 
L 563.379735 411.004594 
L 563.428543 410.816349 
L 563.600485 410.153188 
L 564.052617 408.408455 
L 564.128462 408.115405 
L 564.2038 407.823975 
L 564.282282 407.520353 
L 564.35954 407.22147 
L 564.434575 406.931457 
L 564.511128 406.636786 
L 564.910908 405.092652 
L 564.930553 405.016098 
L 565.000018 404.722845 
L 565.056927 404.426859 
L 565.10128 404.128745 
L 565.132873 403.829011 
L 565.151607 403.528164 
L 565.157682 403.226911 
L 565.150898 402.925558 
L 565.131253 402.624811 
L 565.098849 402.325179 
L 565.053788 402.027167 
L 564.996069 401.731382 
L 564.925794 401.438231 
L 564.843164 401.148421 
L 564.152056 398.902343 
L 562.926287 394.919126 
L 563.620737 394.767132 
L 564.068718 394.669719 
L 564.507382 394.574432 
L 561.709733 385.504452 
L 561.657381 385.334738 
L 561.319067 384.237571 
L 561.202211 383.858955 
L 559.108025 377.069685 
L 557.269422 371.089898 
L 554.999851 363.709666 
L 553.386454 358.406507 
L 549.355138 345.336603 
L 547.241307 338.46126 
L 544.542287 333.562539 
L 544.008944 332.594481 
L 543.698172 332.030455 
L 542.99714 331.198998 
L 542.674319 330.816027 
L 542.740443 329.678356 
L 545.00333 329.795414 
L 545.007077 329.724531 
L 545.044543 329.013677 
L 545.069353 328.542507 
L 545.342151 323.366432 
L 545.405743 322.159801 
L 545.415363 321.977227 
L 544.761113 321.932368 
L 542.974052 321.821386 
L 537.764966 321.571372 
L 516.060505 320.529494 
L 511.631029 320.302567 
L 503.516045 319.885775 
L 493.501094 319.391316 
L 483.385894 318.79276 
L 478.328801 318.494039 
L 475.634945 318.308123 
L 468.216538 317.795336 
L 463.362777 317.399201 
L 453.567665 315.99663 
L 444.497381 313.697693 
L 435.141743 310.481936 
L 426.608245 306.63279 
L 418.398076 301.758068 
L 410.400251 296.309194 
L 402.704388 289.944614 
L 401.502314 288.888964 
L 401.148912 288.590648 
L 400.954794 288.426909 
L 400.018025 287.636766 
L 399.929826 287.56244 
L 399.720519 287.385841 
L 395.927572 284.13525 
L 393.125974 281.733735 
L 391.291726 280.162868 
L 389.443605 278.578431 
L 387.591434 276.990957 
L 385.786146 275.443785 
L 359.23157 252.683472 
L 357.486938 251.188145 
L 355.695624 249.652415 
L 353.915247 248.126002 
L 352.158768 246.620347 
L 350.34143 245.062846 
L 348.790207 243.734195 
L 346.638201 241.88891 
L 346.711818 242.913978 
L 345.540123 241.911592 
L 343.533528 240.196528 
L 334.472763 232.446187 
L 333.245272 231.39398 
L 332.02487 230.348152 
L 332.116006 227.794138 
L 331.987809 227.556782 
L 331.852321 227.388182 
L 331.628128 227.197608 
L 330.065058 226.070468 
L 328.012288 224.59033 
L 326.591287 224.984439 
L 326.135003 224.592052 
L 319.391706 218.827749 
L 311.205839 211.817931 
L 305.909161 207.282131 
L 302.538879 204.39598 
L 302.616243 204.373196 
L 297.767646 200.141585 
L 293.080562 196.042627 
L 285.434114 188.411267 
L 280.983475 182.847968 
L 279.945951 181.551012 
L 278.120917 178.701416 
L 277.318928 179.183218 
L 276.818089 179.641527 
L 275.878485 178.468313 
L 260.805023 160.086034 
L 260.574248 159.792984 
L 260.352486 159.492947 
L 260.140039 159.186327 
L 259.93701 158.873328 
L 259.743601 158.554355 
L 259.560115 158.22961 
L 259.386655 157.899295 
L 259.22332 157.563918 
L 259.070314 157.22368 
L 258.927738 156.878986 
L 260.4901 161.754822 
L 260.710242 163.293286 
L 260.694141 165.173709 
L 260.428938 167.024564 
L 259.934782 168.891925 
L 259.326708 170.266244 
L 258.306196 172.098771 
L 257.110806 173.608983 
L 255.517762 175.132055 
L 253.802901 176.42739 
L 252.252083 177.407296 
L 250.112228 178.782223 
L 248.089026 180.255778 
L 245.844163 182.01965 
L 243.763343 183.828077 
L 241.235759 186.308777 
L 239.13499 188.703305 
L 237.040703 191.330328 
L 235.50791 193.428565 
L 233.825149 196.156647 
L 232.697401 198.460647 
L 231.430317 201.655139 
L 228.228737 209.879688 
L 224.831925 218.594544 
L 223.296904 222.633961 
L 222.366616 225.099472 
L 221.470756 227.624121 
L 220.427967 230.562928 
L 220.04449 231.667689 
L 219.671848 232.776096 
L 219.310042 233.888148 
L 218.959272 235.003745 
L 218.61954 236.122683 
L 218.290745 237.244962 
L 217.972987 238.370381 
L 217.666367 239.498838 
L 217.370785 240.630332 
L 217.191654 241.341187 
L 217.017991 242.053459 
L 216.849796 242.766947 
L 216.59887 243.879404 
L 216.36121 244.994798 
L 216.136814 246.112926 
L 215.925583 247.233585 
L 215.727718 248.356675 
L 215.543119 249.481993 
L 215.371886 250.609538 
L 215.21402 251.738906 
L 215.06952 252.870198 
L 214.938487 254.003008 
L 214.820822 255.137338 
L 214.716725 256.272984 
L 214.625995 257.409744 
L 214.548732 258.547618 
L 214.484938 259.686201 
L 214.434712 260.825492 
L 215.291839 272.079249 
L 216.751673 291.246329 
L 216.989459 294.057428 
L 217.546036 300.637278 
L 218.632907 313.48626 
L 218.779128 315.214487 
L 219.164833 319.773983 
L 219.19835 320.171028 
L 219.19349 320.251329 
L 219.188325 320.331528 
L 219.182959 320.411727 
L 219.177389 320.491926 
L 219.172222 320.563727 
L 219.171617 320.572125 
L 219.165542 320.652324 
L 219.124328 321.133214 
L 219.07471 321.613294 
L 219.01689 322.092463 
L 218.950766 322.570518 
L 218.87644 323.047357 
L 218.793912 323.522881 
L 218.746522 323.776135 
L 218.696803 324.028884 
L 218.644653 324.281227 
L 218.545012 324.734371 
L 218.437776 325.185795 
L 218.323047 325.635395 
L 218.200926 326.08297 
L 218.071413 326.52852 
L 217.915571 327.031182 
L 217.750212 327.530805 
L 217.575435 328.027188 
L 217.391443 328.52023 
L 217.198135 329.009727 
L 216.995713 329.495478 
L 216.784077 329.97728 
L 215.509703 333.049043 
L 214.558656 335.3416 
L 213.597078 337.659574 
L 212.988599 339.12594 
L 211.549979 342.593635 
L 211.053292 343.790848 
L 210.766621 344.49026 
L 210.468102 345.184711 
L 210.157736 345.873895 
L 209.835725 346.557815 
L 209.502069 347.236063 
L 209.15697 347.90854 
L 208.800429 348.575042 
L 208.432546 349.235469 
L 208.053525 349.889415 
L 207.663466 350.53688 
L 207.26237 351.17756 
L 206.850439 351.811355 
L 206.528327 352.263993 
L 206.199632 352.711872 
L 205.864457 353.154891 
L 205.522801 353.592947 
L 205.084745 354.135911 
L 204.636764 354.670773 
L 204.179063 355.197231 
L 203.711742 355.715284 
L 203.235003 356.224629 
L 202.748949 356.725063 
L 202.253781 357.216585 
L 201.7496 357.698792 
L 201.236712 358.171784 
L 200.715216 358.635156 
L 200.185315 359.088908 
L 199.647111 359.532838 
L 199.100907 359.966844 
L 196.839437 361.746411 
L 196.147215 362.288564 
L 195.4476 362.820996 
L 194.740593 363.343708 
L 194.026397 363.856596 
L 193.305213 364.359561 
L 192.577144 364.852502 
L 191.842392 365.335215 
L 191.100855 365.807801 
L 190.352938 366.27006 
L 189.598744 366.721888 
L 188.838271 367.163185 
L 187.688853 367.814802 
L 186.535183 368.458925 
L 185.377259 369.095353 
L 185.288756 369.143249 
L 184.215184 369.724287 
L 183.049058 370.345525 
L 181.878881 370.959068 
L 180.704655 371.564915 
L 180.184475 371.827992 
L 179.661764 372.086309 
L 179.336854 372.243093 
L 179.136724 372.339665 
L 178.609355 372.588161 
L 177.58702 373.047685 
L 176.559724 373.496171 
L 175.527769 373.933519 
L 174.491157 374.359829 
L 173.449987 374.775001 
L 172.404464 375.178933 
L 171.354586 375.571523 
L 170.300556 375.952873 
L 169.242578 376.322882 
L 168.18065 376.68155 
L 167.114874 377.028674 
L 166.565531 377.202337 
L 166.4506 377.23869 
L 165.784806 377.44425 
L 165.117798 377.645356 
L 164.449371 377.842005 
L 161.059546 377.456098 
L 160.238013 377.362533 
L 149.43778 376.132916 
L 148.314488 376.017883 
L 142.403558 375.322622 
L 141.457777 375.205868 
L 137.144145 374.676575 
L 136.959241 374.995245 
L 136.63237 375.574561 
L 136.185908 376.271138 
L 135.978011 376.523257 
L 135.161447 377.513513 
L 134.280676 378.358742 
L 133.135815 379.257335 
L 131.589655 380.068742 
L 129.652424 380.800862 
L 127.967942 381.270816 
L 126.592205 381.734796 
L 125.362892 382.293454 
L 124.182083 383.026283 
L 123.441052 383.597701 
L 122.452033 384.532242 
L 121.619968 385.581917 
L 121.310817 385.971773 
L 120.693325 386.951274 
L 120.115326 388.153551 
L 119.697724 389.432583 
L 119.628562 389.644523 
L 119.182303 391.564134 
L 118.662225 395.260478 
L 118.623341 396.428629 
L 118.61524 396.672567 
L 118.683895 398.585091 
L 118.885 400.407694 
L 118.924188 400.763121 
L 119.329132 402.858826 
L 119.421078 403.238658 
L 119.959991 405.466205 
L 121.482151 411.614592 
L 122.098529 414.141164 
L 123.203797 418.672104 
L 123.666967 420.570754 
L 124.000521 422.468089 
L 124.176514 423.470373 
L 124.582167 425.526485 
L 124.831877 427.929924 
L 124.899115 430.079297 
L 124.722616 432.594022 
L 124.290737 436.032453 
L 123.995053 437.709645 
L 123.53239 439.879777 
L 123.401054 440.408057 
L 122.898393 441.923231 
L 122.239789 443.629991 
L 121.402054 445.49958 
L 119.717267 449.151165 
L 118.976034 450.643555 
L 117.813756 452.79779 
L 116.582924 454.874255 
L 115.363636 456.577674 
L 118.056986 460.089215 
L 123.580287 458.759856 
L 124.289623 458.606445 
L 125.001085 458.463261 
L 125.714572 458.330305 
L 126.429883 458.207576 
L 127.146813 458.095176 
L 127.865364 457.993004 
L 129.119992 457.853567 
L 131.466542 457.940996 
L 133.993397 458.181471 
L 136.002494 458.493093 
L 138.48366 459.006083 
L 140.889539 459.750526 
L 144.817994 461.364379 
L 146.464331 462.114624 
L 147.86755 462.870368 
L 150.129709 464.250004 
L 153.787968 466.759888 
L 157.643849 469.526672 
L 159.57391 470.798718 
L 161.134844 471.780234 
L 162.787065 472.753355 
L 164.631034 473.760501 
L 166.034831 474.485877 
L 167.910515 475.422747 
L 172.345752 477.54239 
L 177.198106 479.558595 
L 183.281108 481.820966 
L 189.59123 483.85478 
L 194.878734 485.352729 
L 198.274452 486.227384 
L 204.687031 487.665741 
L 210.753042 488.692471 
L 217.424342 489.305436 
L 227.485266 489.517133 
L 234.482487 489.498389 
L 239.6881 489.445561 
L 244.368907 489.30174 
L 248.96035 489.065082 
L 254.444078 488.764407 
L 255.984931 488.672218 
L 270.004111 487.865672 
L 275.653077 487.528816 
L 276.777615 484.703745 
L 288.727842 488.64269 
L 290.020039 489.083177 
L 291.47962 489.590294 
L 292.936264 490.10612 
L 294.38977 490.630451 
L 296.059026 491.245297 
L 297.287364 491.704935 
L 298.443465 492.117271 
L 299.594705 492.54267 
L 300.741085 492.981031 
L 301.882503 493.432454 
L 303.018655 493.896839 
L 304.149441 494.374083 
L 305.274758 494.864087 
L 306.394507 495.36685 
L 307.508382 495.88227 
L 308.01641 496.124386 
L 308.616383 496.410247 
L 309.718309 496.950881 
L 310.813957 497.503869 
L 311.903327 498.069414 
L 312.986216 498.64711 
L 314.062523 499.23716 
L 315.132045 499.839361 
L 316.194581 500.453714 
L 317.589355 501.382281 
L 318.976737 502.321784 
L 319.869356 502.936541 
L 320.356625 503.272223 
L 321.72902 504.233497 
L 323.093821 505.205606 
L 324.450825 506.188347 
L 325.800132 507.181823 
L 327.141541 508.18593 
L 328.474951 509.200468 
L 329.800361 510.225638 
L 331.11767 511.261136 
L 332.426777 512.306964 
L 333.72758 513.36312 
L 335.019979 514.429503 
L 338.210623 517.023718 
L 344.58138 522.203641 
L 345.275527 522.767971 
L 346.472639 523.741295 
L 347.264907 524.392507 
L 349.047614 525.861607 
L 349.888184 526.554336 
L 357.173838 532.558425 
L 362.3914 536.858218 
L 362.655419 537.075796 
L 366.521173 540.259554 
L 378.855211 550.417993 
L 377.538206 554.104007 
L 377.24789 554.916529 
L 378.908171 556.53185 
L 381.025748 558.591303 
L 383.317495 560.545647 
L 387.616243 563.434026 
L 388.210849 563.833401 
L 389.973607 564.848243 
L 391.822234 565.718787 
L 394.724588 566.973921 
L 398.406147 568.203436 
L 402.182487 568.825282 
L 408.047545 569.502012 
L 415.83829 569.822606 
L 426.316005 570.321014 
L 427.454284 570.309673 
L 431.02638 570.274029 
L 438.958384 570.195247 
L 446.769787 569.857034 
L 459.205391 569.055146 
L 460.620518 568.907203 
L 462.437755 568.717237 
L 466.271813 568.316545 
L 467.038969 568.236346 
L 468.537941 567.80153 
L 474.915787 565.951181 
L 474.903635 565.888399 
L 474.897357 565.856603 
L 478.496895 564.327455 
L 481.924085 562.409363 
L 482.200833 562.254433 
L 486.88336 559.63389 
L 491.235169 557.519553 
L 493.254624 556.637263 
L 495.116314 555.82383 
L 495.771779 555.537362 
L 500.292187 554.353718 
L 500.251581 554.042744 
L 500.226772 553.852272 
L 501.022585 553.659267 
L 501.821031 553.477402 
L 502.622008 553.306878 
L 503.425315 553.147594 
L 504.230748 552.999651 
L 505.038206 552.862948 
L 505.847385 552.737688 
L 506.658388 552.62387 
L 507.495313 552.518558 
L 508.333757 552.425297 
L 509.173416 552.344287 
L 509.597093 552.309555 
L 510.014088 552.27543 
L 510.855772 552.218723 
L 511.698165 552.174168 
L 511.857449 552.168093 
L 512.541065 552.141967 
L 513.384471 552.121816 
L 514.227978 552.114019 
L 515.071485 552.118373 
L 515.914891 552.13498 
L 516.215131 552.145005 
L 516.518712 552.15503 
L 516.65177 552.159485 
L 516.822294 552.167384 
L 517.125774 552.181358 
L 517.388244 552.193408 
L 517.429153 552.195838 
L 517.732431 552.213559 
L 518.035709 552.231381 
L 518.124312 552.236545 
L 518.338784 552.251836 
L 518.641859 552.273506 
L 518.859672 552.2891 
L 518.944732 552.29629 
L 519.247503 552.321706 
L 519.550174 552.347123 
L 519.594324 552.350869 
L 519.85254 552.375881 
L 520.154906 552.405247 
L 520.328165 552.422056 
L 520.457172 552.436233 
L 520.759133 552.469345 
L 521.061094 552.502458 
L 521.19881 552.51866 
L 521.336525 552.535165 
L 521.474139 552.551975 
L 521.469988 552.485142 
L 521.427559 551.806893 
L 521.503201 551.800514 
L 522.117352 551.749073 
L 522.462045 551.720214 
L 522.731401 551.697734 
L 523.58392 551.626749 
L 524.213563 551.574296 
L 524.485045 551.569132 
L 524.931709 551.560626 
L 527.749407 551.50878 
L 528.022104 551.503717 
L 528.129441 551.501692 
L 528.22169 551.500072 
L 528.52355 551.494401 
" clip-path="url(#p6e823beec0)" style="fill: #d3d3d3"/>
   </g>
   <g id="PatchCollection_2">
    <path d="M 568.065172 461.296236 
L 568.065172 461.194974 
L 567.96391 461.194974 
L 567.96391 461.296236 
L 568.065172 461.296236 
" clip-path="url(#p6e823beec0)" style="fill: #ff0000; fill-opacity: 0.7; stroke: #000000; stroke-opacity: 0.7; stroke-width: 0.5"/>
    <path d="M 313.568158 437.085292 
L 313.568158 436.98403 
L 313.466897 436.98403 
L 313.466897 437.085292 
L 313.568158 437.085292 
" clip-path="url(#p6e823beec0)" style="fill: #ff0000; fill-opacity: 0.7; stroke: #000000; stroke-opacity: 0.7; stroke-width: 0.5"/>
    <path d="M 355.495764 433.063729 
L 355.495764 432.962467 
L 355.394503 432.962467 
L 355.394503 433.063729 
L 355.495764 433.063729 
" clip-path="url(#p6e823beec0)" style="fill: #ff0000; fill-opacity: 0.7; stroke: #000000; stroke-opacity: 0.7; stroke-width: 0.5"/>
    <path d="M 336.571159 386.741501 
L 336.571159 386.64024 
L 336.469898 386.64024 
L 336.469898 386.741501 
L 336.571159 386.741501 
" clip-path="url(#p6e823beec0)" style="fill: #ff0000; fill-opacity: 0.7; stroke: #000000; stroke-opacity: 0.7; stroke-width: 0.5"/>
    <path d="M 588.045636 528.610526 
L 588.045636 528.509265 
L 587.944374 528.509265 
L 587.944374 528.610526 
L 588.045636 528.610526 
" clip-path="url(#p6e823beec0)" style="fill: #ff0000; fill-opacity: 0.7; stroke: #000000; stroke-opacity: 0.7; stroke-width: 0.5"/>
    <path d="M 160.138386 440.769696 
L 160.138386 440.668434 
L 160.037124 440.668434 
L 160.037124 440.769696 
L 160.138386 440.769696 
" clip-path="url(#p6e823beec0)" style="fill: #ff0000; fill-opacity: 0.7; stroke: #000000; stroke-opacity: 0.7; stroke-width: 0.5"/>
    <path d="M 403.940379 425.959748 
L 403.940379 425.858487 
L 403.839117 425.858487 
L 403.839117 425.959748 
L 403.940379 425.959748 
" clip-path="url(#p6e823beec0)" style="fill: #ff0000; fill-opacity: 0.7; stroke: #000000; stroke-opacity: 0.7; stroke-width: 0.5"/>
    <path d="M 340.460645 388.519917 
L 340.460645 388.418655 
L 340.359384 388.418655 
L 340.359384 388.519917 
L 340.460645 388.519917 
" clip-path="url(#p6e823beec0)" style="fill: #ff0000; fill-opacity: 0.7; stroke: #000000; stroke-opacity: 0.7; stroke-width: 0.5"/>
    <path d="M 278.259669 422.061862 
L 278.259669 421.960601 
L 278.158407 421.960601 
L 278.158407 422.061862 
L 278.259669 422.061862 
" clip-path="url(#p6e823beec0)" style="fill: #ff0000; fill-opacity: 0.7; stroke: #000000; stroke-opacity: 0.7; stroke-width: 0.5"/>
    <path d="M 573.896984 461.213201 
L 573.896984 461.11194 
L 573.795723 461.11194 
L 573.795723 461.213201 
L 573.896984 461.213201 
" clip-path="url(#p6e823beec0)" style="fill: #ff0000; fill-opacity: 0.7; stroke: #000000; stroke-opacity: 0.7; stroke-width: 0.5"/>
    <path d="M 393.55997 441.940774 
L 393.55997 441.839513 
L 393.458708 441.839513 
L 393.458708 441.940774 
L 393.55997 441.940774 
" clip-path="url(#p6e823beec0)" style="fill: #ff0000; fill-opacity: 0.7; stroke: #000000; stroke-opacity: 0.7; stroke-width: 0.5"/>
    <path d="M 554.152732 469.186985 
L 554.152732 469.085723 
L 554.051471 469.085723 
L 554.051471 469.186985 
L 554.152732 469.186985 
" clip-path="url(#p6e823beec0)" style="fill: #ff0000; fill-opacity: 0.7; stroke: #000000; stroke-opacity: 0.7; stroke-width: 0.5"/>
    <path d="M 303.949697 375.07739 
L 303.949697 374.976129 
L 303.848435 374.976129 
L 303.848435 375.07739 
L 303.949697 375.07739 
" clip-path="url(#p6e823beec0)" style="fill: #ff0000; fill-opacity: 0.7; stroke: #000000; stroke-opacity: 0.7; stroke-width: 0.5"/>
    <path d="M 308.620878 396.044826 
L 308.620878 395.943564 
L 308.519617 395.943564 
L 308.519617 396.044826 
L 308.620878 396.044826 
" clip-path="url(#p6e823beec0)" style="fill: #ff0000; fill-opacity: 0.7; stroke: #000000; stroke-opacity: 0.7; stroke-width: 0.5"/>
    <path d="M 509.484151 337.531309 
L 509.484151 337.430047 
L 509.382889 337.430047 
L 509.382889 337.531309 
L 509.484151 337.531309 
" clip-path="url(#p6e823beec0)" style="fill: #ff0000; fill-opacity: 0.7; stroke: #000000; stroke-opacity: 0.7; stroke-width: 0.5"/>
    <path d="M 543.270528 468.317753 
L 543.270528 468.216491 
L 543.169267 468.216491 
L 543.169267 468.317753 
L 543.270528 468.317753 
" clip-path="url(#p6e823beec0)" style="fill: #ff0000; fill-opacity: 0.7; stroke: #000000; stroke-opacity: 0.7; stroke-width: 0.5"/>
    <path d="M 325.579619 394.772215 
L 325.579619 394.670953 
L 325.478357 394.670953 
L 325.478357 394.772215 
L 325.579619 394.772215 
" clip-path="url(#p6e823beec0)" style="fill: #ff0000; fill-opacity: 0.7; stroke: #000000; stroke-opacity: 0.7; stroke-width: 0.5"/>
    <path d="M 321.16006 364.962749 
L 321.16006 364.861488 
L 321.058799 364.861488 
L 321.058799 364.962749 
L 321.16006 364.962749 
" clip-path="url(#p6e823beec0)" style="fill: #ff0000; fill-opacity: 0.7; stroke: #000000; stroke-opacity: 0.7; stroke-width: 0.5"/>
    <path d="M 530.424106 467.554447 
L 530.424106 467.453186 
L 530.322845 467.453186 
L 530.322845 467.554447 
L 530.424106 467.554447 
" clip-path="url(#p6e823beec0)" style="fill: #ff0000; fill-opacity: 0.7; stroke: #000000; stroke-opacity: 0.7; stroke-width: 0.5"/>
    <path d="M 530.424106 467.554447 
L 530.424106 467.453186 
L 530.322845 467.453186 
L 530.322845 467.554447 
L 530.424106 467.554447 
" clip-path="url(#p6e823beec0)" style="fill: #ff0000; fill-opacity: 0.7; stroke: #000000; stroke-opacity: 0.7; stroke-width: 0.5"/>
    <path d="M 524.085072 461.516983 
L 524.085072 461.415721 
L 523.983811 461.415721 
L 523.983811 461.516983 
L 524.085072 461.516983 
" clip-path="url(#p6e823beec0)" style="fill: #ff0000; fill-opacity: 0.7; stroke: #000000; stroke-opacity: 0.7; stroke-width: 0.5"/>
    <path d="M 543.270528 468.317753 
L 543.270528 468.216491 
L 543.169267 468.216491 
L 543.169267 468.317753 
L 543.270528 468.317753 
" clip-path="url(#p6e823beec0)" style="fill: #ff0000; fill-opacity: 0.7; stroke: #000000; stroke-opacity: 0.7; stroke-width: 0.5"/>
    <path d="M 543.270528 468.317753 
L 543.270528 468.216491 
L 543.169267 468.216491 
L 543.169267 468.317753 
L 543.270528 468.317753 
" clip-path="url(#p6e823beec0)" style="fill: #ff0000; fill-opacity: 0.7; stroke: #000000; stroke-opacity: 0.7; stroke-width: 0.5"/>
    <path d="M 527.841166 461.7452 
L 527.841166 461.643939 
L 527.739904 461.643939 
L 527.739904 461.7452 
L 527.841166 461.7452 
" clip-path="url(#p6e823beec0)" style="fill: #ff0000; fill-opacity: 0.7; stroke: #000000; stroke-opacity: 0.7; stroke-width: 0.5"/>
    <path d="M 174.00618 419.305543 
L 174.00618 419.204282 
L 173.904919 419.204282 
L 173.904919 419.305543 
L 174.00618 419.305543 
" clip-path="url(#p6e823beec0)" style="fill: #ff0000; fill-opacity: 0.7; stroke: #000000; stroke-opacity: 0.7; stroke-width: 0.5"/>
    <path d="M 343.43105 387.910752 
L 343.43105 387.809491 
L 343.329789 387.809491 
L 343.329789 387.910752 
L 343.43105 387.910752 
" clip-path="url(#p6e823beec0)" style="fill: #ff0000; fill-opacity: 0.7; stroke: #000000; stroke-opacity: 0.7; stroke-width: 0.5"/>
    <path d="M 346.187412 441.946877 
L 346.187412 441.845616 
L 346.08615 441.845616 
L 346.08615 441.946877 
L 346.187412 441.946877 
" clip-path="url(#p6e823beec0)" style="fill: #ff0000; fill-opacity: 0.7; stroke: #000000; stroke-opacity: 0.7; stroke-width: 0.5"/>
    <path d="M 238.138067 223.723859 
L 238.138067 223.622598 
L 238.036806 223.622598 
L 238.036806 223.723859 
L 238.138067 223.723859 
" clip-path="url(#p6e823beec0)" style="fill: #ff0000; fill-opacity: 0.7; stroke: #000000; stroke-opacity: 0.7; stroke-width: 0.5"/>
    <path d="M 546.790807 462.917353 
L 546.790807 462.816091 
L 546.689545 462.816091 
L 546.689545 462.917353 
L 546.790807 462.917353 
" clip-path="url(#p6e823beec0)" style="fill: #ff0000; fill-opacity: 0.7; stroke: #000000; stroke-opacity: 0.7; stroke-width: 0.5"/>
   </g>
   <g id="matplotlib.axis_1">
    <g id="xtick_1">
     <g id="line2d_1">
      <defs>
       <path id="mcc6ff5f162" d="M 0 0 
L 0 3.5 
" style="stroke: #000000; stroke-width: 0.8"/>
      </defs>
      <g>
       <use xlink:href="#mcc6ff5f162" x="168.590049" y="590.993115" style="stroke: #000000; stroke-width: 0.8"/>
      </g>
     </g>
     <g id="text_1">
      <!-- 379000 -->
      <g transform="translate(149.502549 605.591553) scale(0.1 -0.1)">
       <defs>
        <path id="DejaVuSans-33" d="M 2597 2516 
Q 3050 2419 3304 2112 
Q 3559 1806 3559 1356 
Q 3559 666 3084 287 
Q 2609 -91 1734 -91 
Q 1441 -91 1130 -33 
Q 819 25 488 141 
L 488 750 
Q 750 597 1062 519 
Q 1375 441 1716 441 
Q 2309 441 2620 675 
Q 2931 909 2931 1356 
Q 2931 1769 2642 2001 
Q 2353 2234 1838 2234 
L 1294 2234 
L 1294 2753 
L 1863 2753 
Q 2328 2753 2575 2939 
Q 2822 3125 2822 3475 
Q 2822 3834 2567 4026 
Q 2313 4219 1838 4219 
Q 1578 4219 1281 4162 
Q 984 4106 628 3988 
L 628 4550 
Q 988 4650 1302 4700 
Q 1616 4750 1894 4750 
Q 2613 4750 3031 4423 
Q 3450 4097 3450 3541 
Q 3450 3153 3228 2886 
Q 3006 2619 2597 2516 
z
" transform="scale(0.015625)"/>
        <path id="DejaVuSans-37" d="M 525 4666 
L 3525 4666 
L 3525 4397 
L 1831 0 
L 1172 0 
L 2766 4134 
L 525 4134 
L 525 4666 
z
" transform="scale(0.015625)"/>
        <path id="DejaVuSans-39" d="M 703 97 
L 703 672 
Q 941 559 1184 500 
Q 1428 441 1663 441 
Q 2288 441 2617 861 
Q 2947 1281 2994 2138 
Q 2813 1869 2534 1725 
Q 2256 1581 1919 1581 
Q 1219 1581 811 2004 
Q 403 2428 403 3163 
Q 403 3881 828 4315 
Q 1253 4750 1959 4750 
Q 2769 4750 3195 4129 
Q 3622 3509 3622 2328 
Q 3622 1225 3098 567 
Q 2575 -91 1691 -91 
Q 1453 -91 1209 -44 
Q 966 3 703 97 
z
M 1959 2075 
Q 2384 2075 2632 2365 
Q 2881 2656 2881 3163 
Q 2881 3666 2632 3958 
Q 2384 4250 1959 4250 
Q 1534 4250 1286 3958 
Q 1038 3666 1038 3163 
Q 1038 2656 1286 2365 
Q 1534 2075 1959 2075 
z
" transform="scale(0.015625)"/>
        <path id="DejaVuSans-30" d="M 2034 4250 
Q 1547 4250 1301 3770 
Q 1056 3291 1056 2328 
Q 1056 1369 1301 889 
Q 1547 409 2034 409 
Q 2525 409 2770 889 
Q 3016 1369 3016 2328 
Q 3016 3291 2770 3770 
Q 2525 4250 2034 4250 
z
M 2034 4750 
Q 2819 4750 3233 4129 
Q 3647 3509 3647 2328 
Q 3647 1150 3233 529 
Q 2819 -91 2034 -91 
Q 1250 -91 836 529 
Q 422 1150 422 2328 
Q 422 3509 836 4129 
Q 1250 4750 2034 4750 
z
" transform="scale(0.015625)"/>
       </defs>
       <use xlink:href="#DejaVuSans-33"/>
       <use xlink:href="#DejaVuSans-37" x="63.623047"/>
       <use xlink:href="#DejaVuSans-39" x="127.246094"/>
       <use xlink:href="#DejaVuSans-30" x="190.869141"/>
       <use xlink:href="#DejaVuSans-30" x="254.492188"/>
       <use xlink:href="#DejaVuSans-30" x="318.115234"/>
      </g>
     </g>
    </g>
    <g id="xtick_2">
     <g id="line2d_2">
      <g>
       <use xlink:href="#mcc6ff5f162" x="269.851408" y="590.993115" style="stroke: #000000; stroke-width: 0.8"/>
      </g>
     </g>
     <g id="text_2">
      <!-- 380000 -->
      <g transform="translate(250.763908 605.591553) scale(0.1 -0.1)">
       <defs>
        <path id="DejaVuSans-38" d="M 2034 2216 
Q 1584 2216 1326 1975 
Q 1069 1734 1069 1313 
Q 1069 891 1326 650 
Q 1584 409 2034 409 
Q 2484 409 2743 651 
Q 3003 894 3003 1313 
Q 3003 1734 2745 1975 
Q 2488 2216 2034 2216 
z
M 1403 2484 
Q 997 2584 770 2862 
Q 544 3141 544 3541 
Q 544 4100 942 4425 
Q 1341 4750 2034 4750 
Q 2731 4750 3128 4425 
Q 3525 4100 3525 3541 
Q 3525 3141 3298 2862 
Q 3072 2584 2669 2484 
Q 3125 2378 3379 2068 
Q 3634 1759 3634 1313 
Q 3634 634 3220 271 
Q 2806 -91 2034 -91 
Q 1263 -91 848 271 
Q 434 634 434 1313 
Q 434 1759 690 2068 
Q 947 2378 1403 2484 
z
M 1172 3481 
Q 1172 3119 1398 2916 
Q 1625 2713 2034 2713 
Q 2441 2713 2670 2916 
Q 2900 3119 2900 3481 
Q 2900 3844 2670 4047 
Q 2441 4250 2034 4250 
Q 1625 4250 1398 4047 
Q 1172 3844 1172 3481 
z
" transform="scale(0.015625)"/>
       </defs>
       <use xlink:href="#DejaVuSans-33"/>
       <use xlink:href="#DejaVuSans-38" x="63.623047"/>
       <use xlink:href="#DejaVuSans-30" x="127.246094"/>
       <use xlink:href="#DejaVuSans-30" x="190.869141"/>
       <use xlink:href="#DejaVuSans-30" x="254.492188"/>
       <use xlink:href="#DejaVuSans-30" x="318.115234"/>
      </g>
     </g>
    </g>
    <g id="xtick_3">
     <g id="line2d_3">
      <g>
       <use xlink:href="#mcc6ff5f162" x="371.112768" y="590.993115" style="stroke: #000000; stroke-width: 0.8"/>
      </g>
     </g>
     <g id="text_3">
      <!-- 381000 -->
      <g transform="translate(352.025268 605.591553) scale(0.1 -0.1)">
       <defs>
        <path id="DejaVuSans-31" d="M 794 531 
L 1825 531 
L 1825 4091 
L 703 3866 
L 703 4441 
L 1819 4666 
L 2450 4666 
L 2450 531 
L 3481 531 
L 3481 0 
L 794 0 
L 794 531 
z
" transform="scale(0.015625)"/>
       </defs>
       <use xlink:href="#DejaVuSans-33"/>
       <use xlink:href="#DejaVuSans-38" x="63.623047"/>
       <use xlink:href="#DejaVuSans-31" x="127.246094"/>
       <use xlink:href="#DejaVuSans-30" x="190.869141"/>
       <use xlink:href="#DejaVuSans-30" x="254.492188"/>
       <use xlink:href="#DejaVuSans-30" x="318.115234"/>
      </g>
     </g>
    </g>
    <g id="xtick_4">
     <g id="line2d_4">
      <g>
       <use xlink:href="#mcc6ff5f162" x="472.374127" y="590.993115" style="stroke: #000000; stroke-width: 0.8"/>
      </g>
     </g>
     <g id="text_4">
      <!-- 382000 -->
      <g transform="translate(453.286627 605.591553) scale(0.1 -0.1)">
       <defs>
        <path id="DejaVuSans-32" d="M 1228 531 
L 3431 531 
L 3431 0 
L 469 0 
L 469 531 
Q 828 903 1448 1529 
Q 2069 2156 2228 2338 
Q 2531 2678 2651 2914 
Q 2772 3150 2772 3378 
Q 2772 3750 2511 3984 
Q 2250 4219 1831 4219 
Q 1534 4219 1204 4116 
Q 875 4013 500 3803 
L 500 4441 
Q 881 4594 1212 4672 
Q 1544 4750 1819 4750 
Q 2544 4750 2975 4387 
Q 3406 4025 3406 3419 
Q 3406 3131 3298 2873 
Q 3191 2616 2906 2266 
Q 2828 2175 2409 1742 
Q 1991 1309 1228 531 
z
" transform="scale(0.015625)"/>
       </defs>
       <use xlink:href="#DejaVuSans-33"/>
       <use xlink:href="#DejaVuSans-38" x="63.623047"/>
       <use xlink:href="#DejaVuSans-32" x="127.246094"/>
       <use xlink:href="#DejaVuSans-30" x="190.869141"/>
       <use xlink:href="#DejaVuSans-30" x="254.492188"/>
       <use xlink:href="#DejaVuSans-30" x="318.115234"/>
      </g>
     </g>
    </g>
    <g id="xtick_5">
     <g id="line2d_5">
      <g>
       <use xlink:href="#mcc6ff5f162" x="573.635486" y="590.993115" style="stroke: #000000; stroke-width: 0.8"/>
      </g>
     </g>
     <g id="text_5">
      <!-- 383000 -->
      <g transform="translate(554.547986 605.591553) scale(0.1 -0.1)">
       <use xlink:href="#DejaVuSans-33"/>
       <use xlink:href="#DejaVuSans-38" x="63.623047"/>
       <use xlink:href="#DejaVuSans-33" x="127.246094"/>
       <use xlink:href="#DejaVuSans-30" x="190.869141"/>
       <use xlink:href="#DejaVuSans-30" x="254.492188"/>
       <use xlink:href="#DejaVuSans-30" x="318.115234"/>
      </g>
     </g>
    </g>
   </g>
   <g id="matplotlib.axis_2">
    <g id="ytick_1">
     <g id="line2d_6">
      <defs>
       <path id="m503f55ae6b" d="M 0 0 
L -3.5 0 
" style="stroke: #000000; stroke-width: 0.8"/>
      </defs>
      <g>
       <use xlink:href="#m503f55ae6b" x="90" y="579.819342" style="stroke: #000000; stroke-width: 0.8"/>
      </g>
     </g>
     <g id="text_6">
      <!-- 5.8210 -->
      <g transform="translate(48.009375 583.618561) scale(0.1 -0.1)">
       <defs>
        <path id="DejaVuSans-35" d="M 691 4666 
L 3169 4666 
L 3169 4134 
L 1269 4134 
L 1269 2991 
Q 1406 3038 1543 3061 
Q 1681 3084 1819 3084 
Q 2600 3084 3056 2656 
Q 3513 2228 3513 1497 
Q 3513 744 3044 326 
Q 2575 -91 1722 -91 
Q 1428 -91 1123 -41 
Q 819 9 494 109 
L 494 744 
Q 775 591 1075 516 
Q 1375 441 1709 441 
Q 2250 441 2565 725 
Q 2881 1009 2881 1497 
Q 2881 1984 2565 2268 
Q 2250 2553 1709 2553 
Q 1456 2553 1204 2497 
Q 953 2441 691 2322 
L 691 4666 
z
" transform="scale(0.015625)"/>
        <path id="DejaVuSans-2e" d="M 684 794 
L 1344 794 
L 1344 0 
L 684 0 
L 684 794 
z
" transform="scale(0.015625)"/>
       </defs>
       <use xlink:href="#DejaVuSans-35"/>
       <use xlink:href="#DejaVuSans-2e" x="63.623047"/>
       <use xlink:href="#DejaVuSans-38" x="95.410156"/>
       <use xlink:href="#DejaVuSans-32" x="159.033203"/>
       <use xlink:href="#DejaVuSans-31" x="222.65625"/>
       <use xlink:href="#DejaVuSans-30" x="286.279297"/>
      </g>
     </g>
    </g>
    <g id="ytick_2">
     <g id="line2d_7">
      <g>
       <use xlink:href="#m503f55ae6b" x="90" y="529.188663" style="stroke: #000000; stroke-width: 0.8"/>
      </g>
     </g>
     <g id="text_7">
      <!-- 5.8215 -->
      <g transform="translate(48.009375 532.987881) scale(0.1 -0.1)">
       <use xlink:href="#DejaVuSans-35"/>
       <use xlink:href="#DejaVuSans-2e" x="63.623047"/>
       <use xlink:href="#DejaVuSans-38" x="95.410156"/>
       <use xlink:href="#DejaVuSans-32" x="159.033203"/>
       <use xlink:href="#DejaVuSans-31" x="222.65625"/>
       <use xlink:href="#DejaVuSans-35" x="286.279297"/>
      </g>
     </g>
    </g>
    <g id="ytick_3">
     <g id="line2d_8">
      <g>
       <use xlink:href="#m503f55ae6b" x="90" y="478.557983" style="stroke: #000000; stroke-width: 0.8"/>
      </g>
     </g>
     <g id="text_8">
      <!-- 5.8220 -->
      <g transform="translate(48.009375 482.357202) scale(0.1 -0.1)">
       <use xlink:href="#DejaVuSans-35"/>
       <use xlink:href="#DejaVuSans-2e" x="63.623047"/>
       <use xlink:href="#DejaVuSans-38" x="95.410156"/>
       <use xlink:href="#DejaVuSans-32" x="159.033203"/>
       <use xlink:href="#DejaVuSans-32" x="222.65625"/>
       <use xlink:href="#DejaVuSans-30" x="286.279297"/>
      </g>
     </g>
    </g>
    <g id="ytick_4">
     <g id="line2d_9">
      <g>
       <use xlink:href="#m503f55ae6b" x="90" y="427.927303" style="stroke: #000000; stroke-width: 0.8"/>
      </g>
     </g>
     <g id="text_9">
      <!-- 5.8225 -->
      <g transform="translate(48.009375 431.726522) scale(0.1 -0.1)">
       <use xlink:href="#DejaVuSans-35"/>
       <use xlink:href="#DejaVuSans-2e" x="63.623047"/>
       <use xlink:href="#DejaVuSans-38" x="95.410156"/>
       <use xlink:href="#DejaVuSans-32" x="159.033203"/>
       <use xlink:href="#DejaVuSans-32" x="222.65625"/>
       <use xlink:href="#DejaVuSans-35" x="286.279297"/>
      </g>
     </g>
    </g>
    <g id="ytick_5">
     <g id="line2d_10">
      <g>
       <use xlink:href="#m503f55ae6b" x="90" y="377.296624" style="stroke: #000000; stroke-width: 0.8"/>
      </g>
     </g>
     <g id="text_10">
      <!-- 5.8230 -->
      <g transform="translate(48.009375 381.095843) scale(0.1 -0.1)">
       <use xlink:href="#DejaVuSans-35"/>
       <use xlink:href="#DejaVuSans-2e" x="63.623047"/>
       <use xlink:href="#DejaVuSans-38" x="95.410156"/>
       <use xlink:href="#DejaVuSans-32" x="159.033203"/>
       <use xlink:href="#DejaVuSans-33" x="222.65625"/>
       <use xlink:href="#DejaVuSans-30" x="286.279297"/>
      </g>
     </g>
    </g>
    <g id="ytick_6">
     <g id="line2d_11">
      <g>
       <use xlink:href="#m503f55ae6b" x="90" y="326.665944" style="stroke: #000000; stroke-width: 0.8"/>
      </g>
     </g>
     <g id="text_11">
      <!-- 5.8235 -->
      <g transform="translate(48.009375 330.465163) scale(0.1 -0.1)">
       <use xlink:href="#DejaVuSans-35"/>
       <use xlink:href="#DejaVuSans-2e" x="63.623047"/>
       <use xlink:href="#DejaVuSans-38" x="95.410156"/>
       <use xlink:href="#DejaVuSans-32" x="159.033203"/>
       <use xlink:href="#DejaVuSans-33" x="222.65625"/>
       <use xlink:href="#DejaVuSans-35" x="286.279297"/>
      </g>
     </g>
    </g>
    <g id="ytick_7">
     <g id="line2d_12">
      <g>
       <use xlink:href="#m503f55ae6b" x="90" y="276.035265" style="stroke: #000000; stroke-width: 0.8"/>
      </g>
     </g>
     <g id="text_12">
      <!-- 5.8240 -->
      <g transform="translate(48.009375 279.834484) scale(0.1 -0.1)">
       <defs>
        <path id="DejaVuSans-34" d="M 2419 4116 
L 825 1625 
L 2419 1625 
L 2419 4116 
z
M 2253 4666 
L 3047 4666 
L 3047 1625 
L 3713 1625 
L 3713 1100 
L 3047 1100 
L 3047 0 
L 2419 0 
L 2419 1100 
L 313 1100 
L 313 1709 
L 2253 4666 
z
" transform="scale(0.015625)"/>
       </defs>
       <use xlink:href="#DejaVuSans-35"/>
       <use xlink:href="#DejaVuSans-2e" x="63.623047"/>
       <use xlink:href="#DejaVuSans-38" x="95.410156"/>
       <use xlink:href="#DejaVuSans-32" x="159.033203"/>
       <use xlink:href="#DejaVuSans-34" x="222.65625"/>
       <use xlink:href="#DejaVuSans-30" x="286.279297"/>
      </g>
     </g>
    </g>
    <g id="ytick_8">
     <g id="line2d_13">
      <g>
       <use xlink:href="#m503f55ae6b" x="90" y="225.404585" style="stroke: #000000; stroke-width: 0.8"/>
      </g>
     </g>
     <g id="text_13">
      <!-- 5.8245 -->
      <g transform="translate(48.009375 229.203804) scale(0.1 -0.1)">
       <use xlink:href="#DejaVuSans-35"/>
       <use xlink:href="#DejaVuSans-2e" x="63.623047"/>
       <use xlink:href="#DejaVuSans-38" x="95.410156"/>
       <use xlink:href="#DejaVuSans-32" x="159.033203"/>
       <use xlink:href="#DejaVuSans-34" x="222.65625"/>
       <use xlink:href="#DejaVuSans-35" x="286.279297"/>
      </g>
     </g>
    </g>
    <g id="ytick_9">
     <g id="line2d_14">
      <g>
       <use xlink:href="#m503f55ae6b" x="90" y="174.773906" style="stroke: #000000; stroke-width: 0.8"/>
      </g>
     </g>
     <g id="text_14">
      <!-- 5.8250 -->
      <g transform="translate(48.009375 178.573125) scale(0.1 -0.1)">
       <use xlink:href="#DejaVuSans-35"/>
       <use xlink:href="#DejaVuSans-2e" x="63.623047"/>
       <use xlink:href="#DejaVuSans-38" x="95.410156"/>
       <use xlink:href="#DejaVuSans-32" x="159.033203"/>
       <use xlink:href="#DejaVuSans-35" x="222.65625"/>
       <use xlink:href="#DejaVuSans-30" x="286.279297"/>
      </g>
     </g>
    </g>
    <g id="text_15">
     <!-- 1e6 -->
     <g transform="translate(90 133.206885) scale(0.1 -0.1)">
      <defs>
       <path id="DejaVuSans-65" d="M 3597 1894 
L 3597 1613 
L 953 1613 
Q 991 1019 1311 708 
Q 1631 397 2203 397 
Q 2534 397 2845 478 
Q 3156 559 3463 722 
L 3463 178 
Q 3153 47 2828 -22 
Q 2503 -91 2169 -91 
Q 1331 -91 842 396 
Q 353 884 353 1716 
Q 353 2575 817 3079 
Q 1281 3584 2069 3584 
Q 2775 3584 3186 3129 
Q 3597 2675 3597 1894 
z
M 3022 2063 
Q 3016 2534 2758 2815 
Q 2500 3097 2075 3097 
Q 1594 3097 1305 2825 
Q 1016 2553 972 2059 
L 3022 2063 
z
" transform="scale(0.015625)"/>
       <path id="DejaVuSans-36" d="M 2113 2584 
Q 1688 2584 1439 2293 
Q 1191 2003 1191 1497 
Q 1191 994 1439 701 
Q 1688 409 2113 409 
Q 2538 409 2786 701 
Q 3034 994 3034 1497 
Q 3034 2003 2786 2293 
Q 2538 2584 2113 2584 
z
M 3366 4563 
L 3366 3988 
Q 3128 4100 2886 4159 
Q 2644 4219 2406 4219 
Q 1781 4219 1451 3797 
Q 1122 3375 1075 2522 
Q 1259 2794 1537 2939 
Q 1816 3084 2150 3084 
Q 2853 3084 3261 2657 
Q 3669 2231 3669 1497 
Q 3669 778 3244 343 
Q 2819 -91 2113 -91 
Q 1303 -91 875 529 
Q 447 1150 447 2328 
Q 447 3434 972 4092 
Q 1497 4750 2381 4750 
Q 2619 4750 2861 4703 
Q 3103 4656 3366 4563 
z
" transform="scale(0.015625)"/>
      </defs>
      <use xlink:href="#DejaVuSans-31"/>
      <use xlink:href="#DejaVuSans-65" x="63.623047"/>
      <use xlink:href="#DejaVuSans-36" x="125.146484"/>
     </g>
    </g>
   </g>
   <g id="patch_3">
    <path d="M 90 590.993115 
L 90 136.206885 
" style="fill: none; stroke: #000000; stroke-width: 0.8; stroke-linejoin: miter; stroke-linecap: square"/>
   </g>
   <g id="patch_4">
    <path d="M 648 590.993115 
L 648 136.206885 
" style="fill: none; stroke: #000000; stroke-width: 0.8; stroke-linejoin: miter; stroke-linecap: square"/>
   </g>
   <g id="patch_5">
    <path d="M 90 590.993115 
L 648 590.993115 
" style="fill: none; stroke: #000000; stroke-width: 0.8; stroke-linejoin: miter; stroke-linecap: square"/>
   </g>
   <g id="patch_6">
    <path d="M 90 136.206885 
L 648 136.206885 
" style="fill: none; stroke: #000000; stroke-width: 0.8; stroke-linejoin: miter; stroke-linecap: square"/>
   </g>
   <g id="text_16">
    <!-- Haselhorst___Siemensstadt -->
    <g transform="translate(285.734682 405.764187) scale(0.12 -0.12)">
     <defs>
      <path id="DejaVuSans-48" d="M 628 4666 
L 1259 4666 
L 1259 2753 
L 3553 2753 
L 3553 4666 
L 4184 4666 
L 4184 0 
L 3553 0 
L 3553 2222 
L 1259 2222 
L 1259 0 
L 628 0 
L 628 4666 
z
" transform="scale(0.015625)"/>
      <path id="DejaVuSans-61" d="M 2194 1759 
Q 1497 1759 1228 1600 
Q 959 1441 959 1056 
Q 959 750 1161 570 
Q 1363 391 1709 391 
Q 2188 391 2477 730 
Q 2766 1069 2766 1631 
L 2766 1759 
L 2194 1759 
z
M 3341 1997 
L 3341 0 
L 2766 0 
L 2766 531 
Q 2569 213 2275 61 
Q 1981 -91 1556 -91 
Q 1019 -91 701 211 
Q 384 513 384 1019 
Q 384 1609 779 1909 
Q 1175 2209 1959 2209 
L 2766 2209 
L 2766 2266 
Q 2766 2663 2505 2880 
Q 2244 3097 1772 3097 
Q 1472 3097 1187 3025 
Q 903 2953 641 2809 
L 641 3341 
Q 956 3463 1253 3523 
Q 1550 3584 1831 3584 
Q 2591 3584 2966 3190 
Q 3341 2797 3341 1997 
z
" transform="scale(0.015625)"/>
      <path id="DejaVuSans-73" d="M 2834 3397 
L 2834 2853 
Q 2591 2978 2328 3040 
Q 2066 3103 1784 3103 
Q 1356 3103 1142 2972 
Q 928 2841 928 2578 
Q 928 2378 1081 2264 
Q 1234 2150 1697 2047 
L 1894 2003 
Q 2506 1872 2764 1633 
Q 3022 1394 3022 966 
Q 3022 478 2636 193 
Q 2250 -91 1575 -91 
Q 1294 -91 989 -36 
Q 684 19 347 128 
L 347 722 
Q 666 556 975 473 
Q 1284 391 1588 391 
Q 1994 391 2212 530 
Q 2431 669 2431 922 
Q 2431 1156 2273 1281 
Q 2116 1406 1581 1522 
L 1381 1569 
Q 847 1681 609 1914 
Q 372 2147 372 2553 
Q 372 3047 722 3315 
Q 1072 3584 1716 3584 
Q 2034 3584 2315 3537 
Q 2597 3491 2834 3397 
z
" transform="scale(0.015625)"/>
      <path id="DejaVuSans-6c" d="M 603 4863 
L 1178 4863 
L 1178 0 
L 603 0 
L 603 4863 
z
" transform="scale(0.015625)"/>
      <path id="DejaVuSans-68" d="M 3513 2113 
L 3513 0 
L 2938 0 
L 2938 2094 
Q 2938 2591 2744 2837 
Q 2550 3084 2163 3084 
Q 1697 3084 1428 2787 
Q 1159 2491 1159 1978 
L 1159 0 
L 581 0 
L 581 4863 
L 1159 4863 
L 1159 2956 
Q 1366 3272 1645 3428 
Q 1925 3584 2291 3584 
Q 2894 3584 3203 3211 
Q 3513 2838 3513 2113 
z
" transform="scale(0.015625)"/>
      <path id="DejaVuSans-6f" d="M 1959 3097 
Q 1497 3097 1228 2736 
Q 959 2375 959 1747 
Q 959 1119 1226 758 
Q 1494 397 1959 397 
Q 2419 397 2687 759 
Q 2956 1122 2956 1747 
Q 2956 2369 2687 2733 
Q 2419 3097 1959 3097 
z
M 1959 3584 
Q 2709 3584 3137 3096 
Q 3566 2609 3566 1747 
Q 3566 888 3137 398 
Q 2709 -91 1959 -91 
Q 1206 -91 779 398 
Q 353 888 353 1747 
Q 353 2609 779 3096 
Q 1206 3584 1959 3584 
z
" transform="scale(0.015625)"/>
      <path id="DejaVuSans-72" d="M 2631 2963 
Q 2534 3019 2420 3045 
Q 2306 3072 2169 3072 
Q 1681 3072 1420 2755 
Q 1159 2438 1159 1844 
L 1159 0 
L 581 0 
L 581 3500 
L 1159 3500 
L 1159 2956 
Q 1341 3275 1631 3429 
Q 1922 3584 2338 3584 
Q 2397 3584 2469 3576 
Q 2541 3569 2628 3553 
L 2631 2963 
z
" transform="scale(0.015625)"/>
      <path id="DejaVuSans-74" d="M 1172 4494 
L 1172 3500 
L 2356 3500 
L 2356 3053 
L 1172 3053 
L 1172 1153 
Q 1172 725 1289 603 
Q 1406 481 1766 481 
L 2356 481 
L 2356 0 
L 1766 0 
Q 1100 0 847 248 
Q 594 497 594 1153 
L 594 3053 
L 172 3053 
L 172 3500 
L 594 3500 
L 594 4494 
L 1172 4494 
z
" transform="scale(0.015625)"/>
      <path id="DejaVuSans-5f" d="M 3263 -1063 
L 3263 -1509 
L -63 -1509 
L -63 -1063 
L 3263 -1063 
z
" transform="scale(0.015625)"/>
      <path id="DejaVuSans-53" d="M 3425 4513 
L 3425 3897 
Q 3066 4069 2747 4153 
Q 2428 4238 2131 4238 
Q 1616 4238 1336 4038 
Q 1056 3838 1056 3469 
Q 1056 3159 1242 3001 
Q 1428 2844 1947 2747 
L 2328 2669 
Q 3034 2534 3370 2195 
Q 3706 1856 3706 1288 
Q 3706 609 3251 259 
Q 2797 -91 1919 -91 
Q 1588 -91 1214 -16 
Q 841 59 441 206 
L 441 856 
Q 825 641 1194 531 
Q 1563 422 1919 422 
Q 2459 422 2753 634 
Q 3047 847 3047 1241 
Q 3047 1584 2836 1778 
Q 2625 1972 2144 2069 
L 1759 2144 
Q 1053 2284 737 2584 
Q 422 2884 422 3419 
Q 422 4038 858 4394 
Q 1294 4750 2059 4750 
Q 2388 4750 2728 4690 
Q 3069 4631 3425 4513 
z
" transform="scale(0.015625)"/>
      <path id="DejaVuSans-69" d="M 603 3500 
L 1178 3500 
L 1178 0 
L 603 0 
L 603 3500 
z
M 603 4863 
L 1178 4863 
L 1178 4134 
L 603 4134 
L 603 4863 
z
" transform="scale(0.015625)"/>
      <path id="DejaVuSans-6d" d="M 3328 2828 
Q 3544 3216 3844 3400 
Q 4144 3584 4550 3584 
Q 5097 3584 5394 3201 
Q 5691 2819 5691 2113 
L 5691 0 
L 5113 0 
L 5113 2094 
Q 5113 2597 4934 2840 
Q 4756 3084 4391 3084 
Q 3944 3084 3684 2787 
Q 3425 2491 3425 1978 
L 3425 0 
L 2847 0 
L 2847 2094 
Q 2847 2600 2669 2842 
Q 2491 3084 2119 3084 
Q 1678 3084 1418 2786 
Q 1159 2488 1159 1978 
L 1159 0 
L 581 0 
L 581 3500 
L 1159 3500 
L 1159 2956 
Q 1356 3278 1631 3431 
Q 1906 3584 2284 3584 
Q 2666 3584 2933 3390 
Q 3200 3197 3328 2828 
z
" transform="scale(0.015625)"/>
      <path id="DejaVuSans-6e" d="M 3513 2113 
L 3513 0 
L 2938 0 
L 2938 2094 
Q 2938 2591 2744 2837 
Q 2550 3084 2163 3084 
Q 1697 3084 1428 2787 
Q 1159 2491 1159 1978 
L 1159 0 
L 581 0 
L 581 3500 
L 1159 3500 
L 1159 2956 
Q 1366 3272 1645 3428 
Q 1925 3584 2291 3584 
Q 2894 3584 3203 3211 
Q 3513 2838 3513 2113 
z
" transform="scale(0.015625)"/>
      <path id="DejaVuSans-64" d="M 2906 2969 
L 2906 4863 
L 3481 4863 
L 3481 0 
L 2906 0 
L 2906 525 
Q 2725 213 2448 61 
Q 2172 -91 1784 -91 
Q 1150 -91 751 415 
Q 353 922 353 1747 
Q 353 2572 751 3078 
Q 1150 3584 1784 3584 
Q 2172 3584 2448 3432 
Q 2725 3281 2906 2969 
z
M 947 1747 
Q 947 1113 1208 752 
Q 1469 391 1925 391 
Q 2381 391 2643 752 
Q 2906 1113 2906 1747 
Q 2906 2381 2643 2742 
Q 2381 3103 1925 3103 
Q 1469 3103 1208 2742 
Q 947 2381 947 1747 
z
" transform="scale(0.015625)"/>
     </defs>
     <use xlink:href="#DejaVuSans-48"/>
     <use xlink:href="#DejaVuSans-61" x="75.195312"/>
     <use xlink:href="#DejaVuSans-73" x="136.474609"/>
     <use xlink:href="#DejaVuSans-65" x="188.574219"/>
     <use xlink:href="#DejaVuSans-6c" x="250.097656"/>
     <use xlink:href="#DejaVuSans-68" x="277.880859"/>
     <use xlink:href="#DejaVuSans-6f" x="341.259766"/>
     <use xlink:href="#DejaVuSans-72" x="402.441406"/>
     <use xlink:href="#DejaVuSans-73" x="443.554688"/>
     <use xlink:href="#DejaVuSans-74" x="495.654297"/>
     <use xlink:href="#DejaVuSans-5f" x="534.863281"/>
     <use xlink:href="#DejaVuSans-5f" x="584.863281"/>
     <use xlink:href="#DejaVuSans-5f" x="634.863281"/>
     <use xlink:href="#DejaVuSans-53" x="684.863281"/>
     <use xlink:href="#DejaVuSans-69" x="748.339844"/>
     <use xlink:href="#DejaVuSans-65" x="776.123047"/>
     <use xlink:href="#DejaVuSans-6d" x="837.646484"/>
     <use xlink:href="#DejaVuSans-65" x="935.058594"/>
     <use xlink:href="#DejaVuSans-6e" x="996.582031"/>
     <use xlink:href="#DejaVuSans-73" x="1059.960938"/>
     <use xlink:href="#DejaVuSans-73" x="1112.060547"/>
     <use xlink:href="#DejaVuSans-74" x="1164.160156"/>
     <use xlink:href="#DejaVuSans-61" x="1203.369141"/>
     <use xlink:href="#DejaVuSans-64" x="1264.648438"/>
     <use xlink:href="#DejaVuSans-74" x="1328.125"/>
    </g>
   </g>
  </g>
 </g>
 <defs>
  <clipPath id="p6e823beec0">
   <rect x="90" y="136.206885" width="558" height="454.786231"/>
  </clipPath>
 </defs>
</svg>
