<?xml version="1.0" encoding="utf-8" standalone="no"?>
<!DOCTYPE svg PUBLIC "-//W3C//DTD SVG 1.1//EN"
  "http://www.w3.org/Graphics/SVG/1.1/DTD/svg11.dtd">
<svg xmlns:xlink="http://www.w3.org/1999/xlink" width="720pt" height="720pt" viewBox="0 0 720 720" xmlns="http://www.w3.org/2000/svg" version="1.1">
 <metadata>
  <rdf:RDF xmlns:dc="http://purl.org/dc/elements/1.1/" xmlns:cc="http://creativecommons.org/ns#" xmlns:rdf="http://www.w3.org/1999/02/22-rdf-syntax-ns#">
   <cc:Work>
    <dc:type rdf:resource="http://purl.org/dc/dcmitype/StillImage"/>
    <dc:date>2024-10-15T13:01:12.834410</dc:date>
    <dc:format>image/svg+xml</dc:format>
    <dc:creator>
     <cc:Agent>
      <dc:title>Matplotlib v3.9.2, https://matplotlib.org/</dc:title>
     </cc:Agent>
    </dc:creator>
   </cc:Work>
  </rdf:RDF>
 </metadata>
 <defs>
  <style type="text/css">*{stroke-linejoin: round; stroke-linecap: butt}</style>
 </defs>
 <g id="figure_1">
  <g id="patch_1">
   <path d="M 0 720 
L 720 720 
L 720 0 
L 0 0 
z
" style="fill: #ffffff"/>
  </g>
  <g id="axes_1">
   <g id="patch_2">
    <path d="M 90 625.612594 
L 648 625.612594 
L 648 101.587406 
L 90 101.587406 
z
" style="fill: #ffffff"/>
   </g>
   <g id="PatchCollection_1">
    <path d="M 320.952883 396.795392 
L 320.728776 397.804622 
L 323.054131 398.164987 
L 325.588646 398.558123 
L 328.768575 399.050837 
L 331.493506 399.474099 
L 331.94862 399.543666 
L 332.178361 398.646892 
L 332.455362 397.565452 
L 333.144011 397.735286 
L 333.802764 397.89707 
L 336.593237 398.58112 
L 339.273783 399.239068 
L 339.608852 399.321168 
L 342.402889 400.006598 
L 343.510316 400.300731 
L 344.624758 400.59475 
L 346.845706 401.186696 
L 349.067115 401.776688 
L 351.288524 402.366794 
L 353.515107 402.957706 
L 355.712943 403.541603 
L 355.738355 403.548962 
L 356.532906 403.760076 
L 357.961028 404.139644 
L 360.184507 404.72952 
L 362.40787 405.319627 
L 364.631464 405.909504 
L 366.854137 406.500185 
L 368.703797 406.991174 
L 369.071521 407.089142 
L 371.292815 407.679018 
L 375.638239 408.852102 
L 376.204199 409.004803 
L 376.909905 409.190139 
L 377.064982 409.230865 
L 377.645659 409.383336 
L 382.326037 410.612418 
L 384.540547 411.189072 
L 386.76483 411.775729 
L 388.988538 412.361811 
L 391.209027 412.950193 
L 393.438714 413.533055 
L 395.666102 414.119252 
L 397.888891 414.704184 
L 400.10846 415.293026 
L 402.331018 415.876463 
L 404.554266 416.461741 
L 406.77763 417.046903 
L 408.761593 417.567788 
L 414.53537 419.086519 
L 414.903784 419.183452 
L 416.534741 419.639485 
L 416.966167 419.76229 
L 419.605779 420.513032 
L 420.892239 420.878916 
L 421.281005 420.989417 
L 422.410395 421.310687 
L 425.281243 419.096408 
L 427.409858 417.454527 
L 429.315286 415.984895 
L 431.255209 414.488701 
L 431.382269 414.390733 
L 431.609825 414.21515 
L 431.795527 414.071763 
L 433.346799 412.875337 
L 433.686007 412.613859 
L 435.595115 411.141238 
L 437.513651 409.661372 
L 439.417584 408.192889 
L 440.961842 407.001753 
L 441.324737 406.721992 
L 443.461861 405.073443 
L 445.953026 408.705151 
L 446.254173 409.164174 
L 447.69 411.287959 
L 448.726481 411.690294 
L 461.685828 417.080594 
L 463.017478 417.644713 
L 469.683888 423.522667 
L 474.010225 427.376068 
L 474.85077 428.124625 
L 476.855776 426.612793 
L 478.702101 425.220661 
L 480.657548 423.746314 
L 482.73511 422.179864 
L 485.183615 420.333654 
L 487.959715 418.240339 
L 490.116846 421.09095 
L 492.276967 423.945355 
L 492.452321 423.719868 
L 492.557532 423.594763 
L 494.398913 421.912293 
L 496.458077 420.029977 
L 498.903708 417.79569 
L 500.49557 416.341236 
L 501.998088 414.967962 
L 503.502101 413.593767 
L 505.003584 412.221068 
L 506.505067 410.848369 
L 508.00655 409.473255 
L 509.509988 408.101476 
L 511.102425 406.647482 
L 512.690148 405.196822 
L 514.284999 403.740643 
L 515.879736 402.2832 
L 517.652355 400.664776 
L 519.423825 399.046352 
L 521.287743 397.344564 
L 521.67513 396.986269 
L 523.311951 395.495249 
L 526.823269 397.727007 
L 526.93722 397.562347 
L 529.46702 393.59833 
L 529.968013 392.813323 
L 527.771786 391.413142 
L 527.293216 387.904699 
L 526.904334 385.053858 
L 526.78084 384.149841 
L 525.544398 375.128638 
L 525.511512 374.891423 
L 525.322131 373.524933 
L 524.643485 368.628267 
L 524.328885 366.347526 
L 524.017043 364.067244 
L 523.705202 361.787078 
L 522.952851 356.397469 
L 522.857988 355.718363 
L 521.729978 347.518043 
L 521.652133 346.949094 
L 521.427566 345.308708 
L 521.149185 343.296344 
L 520.767203 340.523119 
L 521.223006 340.172757 
L 521.679729 339.822396 
L 523.501103 338.42233 
L 525.323281 337.022034 
L 527.840433 335.08717 
L 528.152504 334.848 
L 527.90494 332.766874 
L 527.864235 332.323834 
L 527.237448 327.09187 
L 527.035878 325.455393 
L 526.85719 323.951725 
L 526.516602 321.044657 
L 526.180384 318.230727 
L 525.908328 315.945271 
L 525.636272 313.659701 
L 525.366401 311.378845 
L 525.09285 309.092124 
L 524.819414 306.805519 
L 524.547587 304.524202 
L 524.184578 301.476622 
L 523.822948 298.43801 
L 523.261817 293.721756 
L 521.997205 283.060858 
L 521.95512 282.705552 
L 522.405634 283.40478 
L 523.328739 284.262228 
L 524.301058 285.025848 
L 525.556472 285.580309 
L 525.799667 285.6938 
L 526.321127 285.870763 
L 527.292986 286.205487 
L 528.738241 286.894596 
L 529.022831 287.031314 
L 529.864871 287.198618 
L 530.831441 287.390069 
L 532.556916 288.087227 
L 533.515552 288.474499 
L 534.098644 288.608573 
L 535.058085 288.793585 
L 535.644742 288.850388 
L 536.561408 288.939271 
L 538.293897 289.589631 
L 539.03521 289.766134 
L 539.410868 289.855592 
L 542.139594 290.748916 
L 542.990028 291.040635 
L 546.007482 290.655318 
L 546.14949 290.591386 
L 546.382451 290.596445 
L 546.763973 290.547691 
L 547.167803 290.488244 
L 547.550246 290.370153 
L 548.332033 290.060842 
L 549.670582 289.235705 
L 550.304958 288.732757 
L 550.598401 288.464266 
L 551.284061 287.744685 
L 551.29073 287.735831 
L 553.397038 284.942484 
L 554.46675 285.550298 
L 558.845175 287.045687 
L 566.76309 289.750036 
L 567.001111 289.709791 
L 567.318816 289.347356 
L 569.191243 287.632689 
L 574.864407 285.040567 
L 584.055214 287.894166 
L 586.352053 287.810342 
L 586.564317 287.178036 
L 586.633883 286.970256 
L 587.198923 287.158143 
L 588.685803 287.652467 
L 591.269876 289.186261 
L 592.992937 289.847313 
L 594.783149 285.084376 
L 596.640283 285.794183 
L 596.487812 286.182374 
L 597.436789 286.542395 
L 597.521073 286.319437 
L 597.806123 286.41936 
L 599.392236 282.228131 
L 600.608669 282.686004 
L 600.781148 282.430736 
L 601.163475 281.851438 
L 602.753497 279.42823 
L 605.476934 275.272877 
L 607.391675 272.27313 
L 609.52075 268.806196 
L 611.204831 266.063788 
L 611.531045 265.64225 
L 612.391713 264.481929 
L 613.957243 261.922233 
L 615.51047 259.755672 
L 618.351997 255.305036 
L 620.432203 251.979535 
L 622.636364 248.597461 
L 620.831663 231.503112 
L 618.030037 231.51921 
L 613.729112 231.543932 
L 607.217932 230.934163 
L 606.859292 230.900587 
L 606.51054 230.787901 
L 605.850637 230.574373 
L 600.368809 226.13765 
L 597.781056 223.76791 
L 594.546508 223.156186 
L 533.28903 212.770678 
L 527.447757 211.830095 
L 524.023598 211.296446 
L 519.116238 210.531677 
L 512.942311 209.569476 
L 511.58893 209.434943 
L 485.580159 205.243512 
L 475.813431 203.66956 
L 412.857613 185.181816 
L 403.377848 182.423769 
L 402.838565 182.264284 
L 400.328657 181.485025 
L 389.316362 178.232655 
L 373.583905 173.582519 
L 367.262796 171.712736 
L 362.079471 170.196305 
L 356.598885 168.547988 
L 356.174496 168.420351 
L 344.923261 165.101979 
L 276.652573 144.872745 
L 276.015094 144.683854 
L 253.46088 138.000886 
L 245.961858 135.746936 
L 234.857114 132.482952 
L 234.300814 132.319672 
L 233.059658 131.952983 
L 228.34628 129.075926 
L 228.104005 128.928054 
L 227.909679 128.809389 
L 227.442722 128.52434 
L 226.41153 127.894908 
L 225.339864 127.604454 
L 225.114607 127.542592 
L 225.166235 125.618536 
L 225.197741 125.406732 
L 224.48506 126.984221 
L 224.255204 128.064857 
L 224.115151 129.336714 
L 224.008789 130.042036 
L 223.330949 131.97966 
L 222.865486 132.749949 
L 222.803854 132.851941 
L 216.819999 142.755314 
L 216.33039 143.702106 
L 215.653124 144.95568 
L 212.02866 151.565978 
L 208.266213 162.768804 
L 205.949711 167.224845 
L 204.118104 169.839389 
L 202.996993 171.543937 
L 202.815316 171.820248 
L 202.394238 172.460373 
L 199.442671 178.807929 
L 199.381498 178.939587 
L 197.528734 182.924071 
L 197.230461 183.846832 
L 197.082819 184.780515 
L 196.865956 186.150915 
L 196.478799 187.360679 
L 196.426596 187.482104 
L 195.913185 188.679105 
L 193.453756 194.411717 
L 193.078097 195.287563 
L 192.511563 196.170883 
L 191.345033 197.738483 
L 190.586472 198.695164 
L 189.992111 199.449355 
L 187.296962 202.727943 
L 187.069175 203.113835 
L 184.260994 207.871828 
L 182.556217 210.632404 
L 182.473197 210.766477 
L 181.737403 211.957844 
L 181.053124 213.03526 
L 180.703797 213.900757 
L 178.942676 224.034332 
L 179.039609 228.071939 
L 179.132518 231.947762 
L 179.488053 235.705035 
L 179.564864 236.568807 
L 179.641789 237.43258 
L 179.861757 239.904427 
L 180.081494 242.376275 
L 180.661597 246.211048 
L 181.142467 250.350648 
L 181.335298 251.541324 
L 181.436371 252.015295 
L 181.600225 252.651626 
L 181.757871 252.853886 
L 182.102483 253.296006 
L 182.429732 253.715589 
L 182.601406 253.90405 
L 182.643031 253.9497 
L 182.338434 253.961773 
L 183.034211 255.059783 
L 183.056864 255.095532 
L 182.931415 255.086448 
L 183.360197 255.423356 
L 183.667783 256.394411 
L 184.161417 257.183097 
L 185.408092 259.17465 
L 187.401024 262.895702 
L 187.564533 263.138896 
L 187.736897 263.375882 
L 187.917884 263.606313 
L 188.107266 263.829845 
L 188.304811 264.046249 
L 188.510291 264.255293 
L 188.723244 264.456518 
L 188.943557 264.649693 
L 189.416953 265.004884 
L 190.748832 266.003995 
L 195.58858 269.279362 
L 197.296463 270.318373 
L 197.487109 270.455091 
L 197.670396 270.601353 
L 197.845979 270.757044 
L 198.013168 270.921588 
L 198.171619 271.094527 
L 198.320985 271.275399 
L 198.460693 271.463861 
L 198.590512 271.659221 
L 198.710097 271.861021 
L 199.963096 274.157516 
L 201.793553 276.618324 
L 202.009611 276.964431 
L 203.565138 279.457666 
L 203.62355 279.550805 
L 206.021232 283.393511 
L 207.727965 286.129021 
L 209.403421 288.814282 
L 212.286228 294.033828 
L 212.58588 294.716498 
L 213.101016 295.889582 
L 214.823732 299.814158 
L 214.866277 299.911091 
L 217.279481 305.407868 
L 218.072883 307.147601 
L 218.20038 307.427178 
L 220.580606 312.646562 
L 221.096087 313.527237 
L 221.566263 314.327538 
L 221.777262 314.829565 
L 222.084044 315.752096 
L 222.367049 316.803022 
L 222.596075 317.653499 
L 222.71566 318.314092 
L 222.899177 319.356437 
L 223.087064 320.486746 
L 223.227691 321.873244 
L 223.254023 322.759899 
L 223.24195 322.897077 
L 223.124549 327.362546 
L 223.180087 328.153533 
L 229.06931 329.789204 
L 229.283873 329.848882 
L 229.853167 330.006987 
L 229.833619 330.187515 
L 229.245008 330.038148 
L 229.02205 329.981575 
L 223.655438 328.619915 
L 223.334513 328.538505 
L 223.203889 328.505274 
L 223.171348 328.749848 
L 222.659662 330.197633 
L 219.790999 338.315738 
L 219.483757 339.18503 
L 219.257925 339.824121 
L 218.747504 341.268456 
L 218.487636 342.004019 
L 218.351378 342.389566 
L 218.297105 342.543187 
L 217.921217 343.437431 
L 217.737814 343.836891 
L 217.664684 343.985108 
L 217.496459 344.56935 
L 217.454145 344.808865 
L 217.355257 345.282951 
L 217.295464 345.705869 
L 217.260854 345.950673 
L 217.207845 346.584704 
L 217.151732 347.62567 
L 217.152882 349.238344 
L 217.704928 351.425832 
L 218.250421 353.09278 
L 220.277043 359.286139 
L 220.294406 359.48403 
L 220.311654 359.682035 
L 220.334996 359.874291 
L 220.358338 360.066432 
L 220.477464 360.541783 
L 220.596589 361.017249 
L 220.658566 361.633227 
L 220.628555 362.17113 
L 220.529322 362.924287 
L 220.42779 363.016505 
L 220.070414 364.013201 
L 219.978541 364.297101 
L 219.874364 364.576746 
L 219.758228 364.851677 
L 219.630134 365.121203 
L 219.490426 365.384865 
L 219.339335 365.642318 
L 219.17732 365.892872 
L 219.004382 366.136067 
L 218.821095 366.371558 
L 215.031511 370.664089 
L 214.615378 371.034688 
L 214.205224 371.411726 
L 213.801049 371.795318 
L 213.402969 372.185349 
L 213.011212 372.581475 
L 212.100296 373.505385 
L 211.354959 374.177017 
L 210.308819 374.985596 
L 210.159107 375.025956 
L 209.775975 375.123924 
L 209.587398 375.231205 
L 209.237727 375.401959 
L 208.788018 375.565354 
L 208.579204 375.624226 
L 208.367745 375.672865 
L 208.150192 375.891798 
L 206.875001 376.371404 
L 205.025341 377.068332 
L 204.620936 377.462043 
L 202.751729 378.223018 
L 201.748939 379.169235 
L 201.595433 379.272608 
L 201.367186 379.61515 
L 201.285661 379.712658 
L 200.85297 380.155353 
L 200.120281 380.423499 
L 196.080604 385.387662 
L 196.004828 385.491034 
L 188.298372 394.848225 
L 181.579528 403.006 
L 180.823727 404.131595 
L 180.472101 404.65501 
L 180.244889 405.070798 
L 179.944891 405.389538 
L 179.376862 405.993673 
L 175.227028 410.405214 
L 175.077777 410.518475 
L 157.066993 429.182723 
L 155.92139 430.266463 
L 155.85363 430.329394 
L 155.811139 430.368857 
L 154.527419 431.561087 
L 154.437015 431.660018 
L 154.365289 431.73851 
L 154.182807 431.910644 
L 154.005614 432.088181 
L 153.833825 432.271009 
L 153.667786 432.45901 
L 153.507496 432.651956 
L 153.356749 432.844902 
L 153.214742 433.075794 
L 152.913825 433.564943 
L 152.393284 434.356159 
L 152.179296 434.778617 
L 151.994399 435.113225 
L 151.626215 436.190871 
L 150.118407 442.088602 
L 149.713658 442.081243 
L 148.158016 448.798592 
L 144.988896 461.88132 
L 144.820212 462.556286 
L 144.824121 462.738883 
L 144.833435 463.748227 
L 145.160224 470.017248 
L 145.483334 476.518424 
L 144.175487 488.007679 
L 143.780281 491.93766 
L 142.453207 498.8938 
L 140.256199 510.409882 
L 140.158806 510.883278 
L 140.999812 510.90777 
L 140.881377 512.099137 
L 140.657614 514.150252 
L 140.537914 516.067983 
L 140.553207 517.214735 
L 140.456044 518.486247 
L 139.611705 521.802895 
L 138.468747 523.457539 
L 137.746982 524.320736 
L 137.374543 524.877037 
L 136.263781 526.633444 
L 135.746 527.657506 
L 135.640789 527.890697 
L 135.540636 528.126073 
L 135.445773 528.363633 
L 135.356084 528.603263 
L 132.730846 541.60941 
L 132.761547 542.695105 
L 132.843417 543.667194 
L 132.9346 544.30571 
L 133.037512 545.02667 
L 133.038547 545.092672 
L 133.040847 545.23146 
L 132.836058 546.688903 
L 132.821224 547.186101 
L 132.775345 547.589241 
L 132.711298 548.050679 
L 132.191563 549.686005 
L 131.419779 552.079088 
L 131.183828 552.968617 
L 130.456255 555.418429 
L 129.388096 559.018589 
L 129.071311 560.068294 
L 126.944765 567.398057 
L 125.021745 574.026522 
L 124.320217 574.978259 
L 124.286296 575.115322 
L 123.722406 577.067434 
L 123.005356 579.549285 
L 121.789727 583.68555 
L 120.47544 587.812962 
L 120.327109 588.278654 
L 120.149456 588.805058 
L 120.045854 589.069526 
L 119.888208 589.43242 
L 119.796795 589.71908 
L 119.594535 590.094393 
L 119.217842 590.778443 
L 119.304081 590.841915 
L 119.382248 590.899859 
L 119.19036 591.181353 
L 118.842529 592.120556 
L 118.70857 592.096869 
L 118.607843 592.362716 
L 118.461351 592.748953 
L 118.415012 592.7332 
L 117.193634 595.070629 
L 115.986514 596.496681 
L 115.427223 597.157504 
L 115.363636 597.454972 
L 116.680223 597.492573 
L 117.243652 597.508556 
L 117.765113 597.523504 
L 117.755799 597.752325 
L 120.866277 597.95332 
L 122.592327 598.089003 
L 123.794617 598.150291 
L 124.375295 598.116485 
L 125.246542 598.162364 
L 127.847863 598.311846 
L 127.972738 598.331393 
L 128.390941 598.349791 
L 132.120847 598.640245 
L 132.554803 598.67497 
L 133.004512 598.701762 
L 133.033603 598.7151 
L 137.662122 599.060862 
L 137.67592 598.92357 
L 137.619002 598.920925 
L 138.269017 596.521748 
L 138.389871 596.179188 
L 138.531184 596.164028 
L 138.721715 596.182541 
L 141.426639 596.279474 
L 141.33534 598.939553 
L 145.144241 599.291064 
L 149.983759 599.762275 
L 153.71125 600.28454 
L 154.989201 600.491859 
L 156.257953 600.731145 
L 159.157663 601.261804 
L 159.710054 601.354597 
L 160.82461 601.626078 
L 161.534417 601.793268 
L 164.274181 599.189416 
L 164.420903 599.050859 
L 166.045766 597.881339 
L 166.436947 597.583871 
L 168.251191 596.221521 
L 168.362842 596.139996 
L 170.076244 594.889296 
L 170.993025 594.216285 
L 169.966203 594.148099 
L 174.345893 590.909642 
L 176.764962 589.102066 
L 177.080138 588.866461 
L 177.908955 588.240364 
L 180.0332 586.69875 
L 181.719351 585.443567 
L 183.388943 584.216899 
L 185.054051 582.995751 
L 186.724563 581.716535 
L 187.99228 580.785496 
L 195.506135 575.234332 
L 196.43637 574.544418 
L 196.65334 574.384218 
L 196.922414 574.185547 
L 203.75015 569.142965 
L 207.374499 566.465178 
L 208.917377 565.325325 
L 210.460255 564.185472 
L 212.003133 563.045618 
L 213.546011 561.905765 
L 215.088889 560.765797 
L 216.631767 559.626059 
L 224.265897 553.988655 
L 237.290672 544.372517 
L 237.776486 544.012956 
L 238.975212 543.117678 
L 239.317065 542.884832 
L 239.940747 542.460074 
L 242.497914 540.573504 
L 245.253891 538.540097 
L 246.164693 537.868236 
L 246.26851 537.791336 
L 246.652692 537.498557 
L 246.840119 538.027721 
L 247.734937 540.554762 
L 248.224316 541.936545 
L 248.816493 543.17701 
L 248.942977 543.673634 
L 249.165244 543.607402 
L 277.038007 535.993739 
L 278.957233 535.525287 
L 279.449027 535.405242 
L 279.549409 535.155723 
L 279.893561 534.29954 
L 280.403178 533.670108 
L 280.70973 533.348148 
L 281.145066 532.89131 
L 281.9134 532.084685 
L 282.118994 531.321985 
L 284.173904 522.195571 
L 284.874627 518.967232 
L 285.211075 517.400897 
L 285.73449 515.151317 
L 286.230768 512.949226 
L 286.733025 510.741501 
L 287.239652 508.514918 
L 287.745359 506.292014 
L 288.256816 504.044619 
L 288.763903 501.815736 
L 289.274669 499.570641 
L 289.783366 497.334629 
L 290.304596 495.044919 
L 291.001294 492.078633 
L 291.381552 490.408351 
L 292.625467 484.843043 
L 293.133244 482.611171 
L 293.632397 480.417474 
L 294.150752 478.138687 
L 294.656689 475.915669 
L 295.171595 473.652405 
L 295.681212 471.412484 
L 296.193818 469.158994 
L 296.70125 466.929077 
L 297.099238 465.179846 
L 297.719793 462.452684 
L 298.223086 460.240129 
L 298.740061 457.968242 
L 300.015598 452.361999 
L 300.390106 450.672744 
L 301.348742 446.448975 
L 301.682085 444.980952 
L 301.857324 444.208134 
L 302.36602 441.967522 
L 302.874602 439.726681 
L 303.383184 437.485955 
L 303.891536 435.244769 
L 304.400462 433.003123 
L 304.908354 430.761936 
L 305.416476 428.52098 
L 305.543535 427.96077 
L 305.670594 427.40056 
L 305.924713 426.280139 
L 306.432949 424.039413 
L 306.941301 421.798687 
L 307.448388 419.556236 
L 307.95444 417.316199 
L 308.462217 415.073403 
L 308.974938 412.828538 
L 309.483175 410.587007 
L 309.991182 408.346165 
L 311.061928 403.622208 
L 311.100564 403.453639 
L 311.261673 402.742065 
L 311.444371 401.935138 
L 311.995497 399.50526 
L 312.665174 396.552888 
L 312.795453 395.711077 
L 313.137075 395.505138 
L 319.135419 396.49574 
L 320.952883 396.795392 
" clip-path="url(#p7ec750096b)" style="fill: #d3d3d3"/>
   </g>
   <g id="PatchCollection_2">
    <path d="M 338.206694 242.367496 
L 338.206694 242.25251 
L 338.091708 242.25251 
L 338.091708 242.367496 
L 338.206694 242.367496 
" clip-path="url(#p7ec750096b)" style="fill: #ff0000; fill-opacity: 0.7; stroke: #000000; stroke-opacity: 0.7; stroke-width: 0.5"/>
    <path d="M 350.245156 342.380589 
L 350.245156 342.265604 
L 350.13017 342.265604 
L 350.13017 342.380589 
L 350.245156 342.380589 
" clip-path="url(#p7ec750096b)" style="fill: #ff0000; fill-opacity: 0.7; stroke: #000000; stroke-opacity: 0.7; stroke-width: 0.5"/>
    <path d="M 187.314571 570.113834 
L 187.314571 569.998848 
L 187.199586 569.998848 
L 187.199586 570.113834 
L 187.314571 570.113834 
" clip-path="url(#p7ec750096b)" style="fill: #ff0000; fill-opacity: 0.7; stroke: #000000; stroke-opacity: 0.7; stroke-width: 0.5"/>
    <path d="M 383.68322 280.588396 
L 383.68322 280.47341 
L 383.568234 280.47341 
L 383.568234 280.588396 
L 383.68322 280.588396 
" clip-path="url(#p7ec750096b)" style="fill: #ff0000; fill-opacity: 0.7; stroke: #000000; stroke-opacity: 0.7; stroke-width: 0.5"/>
    <path d="M 276.812473 453.102422 
L 276.812473 452.987436 
L 276.697487 452.987436 
L 276.697487 453.102422 
L 276.812473 453.102422 
" clip-path="url(#p7ec750096b)" style="fill: #ff0000; fill-opacity: 0.7; stroke: #000000; stroke-opacity: 0.7; stroke-width: 0.5"/>
    <path d="M 490.438719 381.177593 
L 490.438719 381.062607 
L 490.323733 381.062607 
L 490.323733 381.177593 
L 490.438719 381.177593 
" clip-path="url(#p7ec750096b)" style="fill: #ff0000; fill-opacity: 0.7; stroke: #000000; stroke-opacity: 0.7; stroke-width: 0.5"/>
    <path d="M 293.24499 321.409005 
L 293.24499 321.294019 
L 293.130004 321.294019 
L 293.130004 321.409005 
L 293.24499 321.409005 
" clip-path="url(#p7ec750096b)" style="fill: #ff0000; fill-opacity: 0.7; stroke: #000000; stroke-opacity: 0.7; stroke-width: 0.5"/>
    <path d="M 345.78312 228.118669 
L 345.78312 228.003684 
L 345.668134 228.003684 
L 345.668134 228.118669 
L 345.78312 228.118669 
" clip-path="url(#p7ec750096b)" style="fill: #ff0000; fill-opacity: 0.7; stroke: #000000; stroke-opacity: 0.7; stroke-width: 0.5"/>
    <path d="M 361.148893 285.890537 
L 361.148893 285.775552 
L 361.033908 285.775552 
L 361.033908 285.890537 
L 361.148893 285.890537 
" clip-path="url(#p7ec750096b)" style="fill: #ff0000; fill-opacity: 0.7; stroke: #000000; stroke-opacity: 0.7; stroke-width: 0.5"/>
    <path d="M 410.696948 307.684938 
L 410.696948 307.569952 
L 410.581963 307.569952 
L 410.581963 307.684938 
L 410.696948 307.684938 
" clip-path="url(#p7ec750096b)" style="fill: #ff0000; fill-opacity: 0.7; stroke: #000000; stroke-opacity: 0.7; stroke-width: 0.5"/>
    <path d="M 299.866119 225.282319 
L 299.866119 225.167333 
L 299.751134 225.167333 
L 299.751134 225.282319 
L 299.866119 225.282319 
" clip-path="url(#p7ec750096b)" style="fill: #ff0000; fill-opacity: 0.7; stroke: #000000; stroke-opacity: 0.7; stroke-width: 0.5"/>
    <path d="M 367.812334 324.622898 
L 367.812334 324.507912 
L 367.697348 324.507912 
L 367.697348 324.622898 
L 367.812334 324.622898 
" clip-path="url(#p7ec750096b)" style="fill: #ff0000; fill-opacity: 0.7; stroke: #000000; stroke-opacity: 0.7; stroke-width: 0.5"/>
    <path d="M 224.80035 490.837154 
L 224.80035 490.722168 
L 224.685364 490.722168 
L 224.685364 490.837154 
L 224.80035 490.837154 
" clip-path="url(#p7ec750096b)" style="fill: #ff0000; fill-opacity: 0.7; stroke: #000000; stroke-opacity: 0.7; stroke-width: 0.5"/>
    <path d="M 289.603049 401.725784 
L 289.603049 401.610798 
L 289.488063 401.610798 
L 289.488063 401.725784 
L 289.603049 401.725784 
" clip-path="url(#p7ec750096b)" style="fill: #ff0000; fill-opacity: 0.7; stroke: #000000; stroke-opacity: 0.7; stroke-width: 0.5"/>
    <path d="M 265.327229 396.197533 
L 265.327229 396.082547 
L 265.212244 396.082547 
L 265.212244 396.197533 
L 265.327229 396.197533 
" clip-path="url(#p7ec750096b)" style="fill: #ff0000; fill-opacity: 0.7; stroke: #000000; stroke-opacity: 0.7; stroke-width: 0.5"/>
    <path d="M 266.539019 389.904039 
L 266.539019 389.789053 
L 266.424033 389.789053 
L 266.424033 389.904039 
L 266.539019 389.904039 
" clip-path="url(#p7ec750096b)" style="fill: #ff0000; fill-opacity: 0.7; stroke: #000000; stroke-opacity: 0.7; stroke-width: 0.5"/>
    <path d="M 232.737668 493.677161 
L 232.737668 493.562175 
L 232.622682 493.562175 
L 232.622682 493.677161 
L 232.737668 493.677161 
" clip-path="url(#p7ec750096b)" style="fill: #ff0000; fill-opacity: 0.7; stroke: #000000; stroke-opacity: 0.7; stroke-width: 0.5"/>
    <path d="M 210.880529 502.413961 
L 210.880529 502.298975 
L 210.765543 502.298975 
L 210.765543 502.413961 
L 210.880529 502.413961 
" clip-path="url(#p7ec750096b)" style="fill: #ff0000; fill-opacity: 0.7; stroke: #000000; stroke-opacity: 0.7; stroke-width: 0.5"/>
    <path d="M 163.91189 500.122618 
L 163.91189 500.007633 
L 163.796904 500.007633 
L 163.796904 500.122618 
L 163.91189 500.122618 
" clip-path="url(#p7ec750096b)" style="fill: #ff0000; fill-opacity: 0.7; stroke: #000000; stroke-opacity: 0.7; stroke-width: 0.5"/>
    <path d="M 349.183866 231.808353 
L 349.183866 231.693367 
L 349.06888 231.693367 
L 349.06888 231.808353 
L 349.183866 231.808353 
" clip-path="url(#p7ec750096b)" style="fill: #ff0000; fill-opacity: 0.7; stroke: #000000; stroke-opacity: 0.7; stroke-width: 0.5"/>
    <path d="M 286.764421 385.969663 
L 286.764421 385.854677 
L 286.649436 385.854677 
L 286.649436 385.969663 
L 286.764421 385.969663 
" clip-path="url(#p7ec750096b)" style="fill: #ff0000; fill-opacity: 0.7; stroke: #000000; stroke-opacity: 0.7; stroke-width: 0.5"/>
    <path d="M 223.697567 490.278117 
L 223.697567 490.163131 
L 223.582581 490.163131 
L 223.582581 490.278117 
L 223.697567 490.278117 
" clip-path="url(#p7ec750096b)" style="fill: #ff0000; fill-opacity: 0.7; stroke: #000000; stroke-opacity: 0.7; stroke-width: 0.5"/>
    <path d="M 381.410752 230.456 
L 381.410752 230.341014 
L 381.295766 230.341014 
L 381.295766 230.456 
L 381.410752 230.456 
" clip-path="url(#p7ec750096b)" style="fill: #ff0000; fill-opacity: 0.7; stroke: #000000; stroke-opacity: 0.7; stroke-width: 0.5"/>
    <path d="M 258.890335 335.910087 
L 258.890335 335.795101 
L 258.77535 335.795101 
L 258.77535 335.910087 
L 258.890335 335.910087 
" clip-path="url(#p7ec750096b)" style="fill: #ff0000; fill-opacity: 0.7; stroke: #000000; stroke-opacity: 0.7; stroke-width: 0.5"/>
    <path d="M 398.277494 322.571004 
L 398.277494 322.456018 
L 398.162508 322.456018 
L 398.162508 322.571004 
L 398.277494 322.571004 
" clip-path="url(#p7ec750096b)" style="fill: #ff0000; fill-opacity: 0.7; stroke: #000000; stroke-opacity: 0.7; stroke-width: 0.5"/>
    <path d="M 270.464167 333.812903 
L 270.464167 333.697918 
L 270.349182 333.697918 
L 270.349182 333.812903 
L 270.464167 333.812903 
" clip-path="url(#p7ec750096b)" style="fill: #ff0000; fill-opacity: 0.7; stroke: #000000; stroke-opacity: 0.7; stroke-width: 0.5"/>
    <path d="M 381.839094 228.701154 
L 381.839094 228.586168 
L 381.724108 228.586168 
L 381.724108 228.701154 
L 381.839094 228.701154 
" clip-path="url(#p7ec750096b)" style="fill: #ff0000; fill-opacity: 0.7; stroke: #000000; stroke-opacity: 0.7; stroke-width: 0.5"/>
    <path d="M 487.846567 295.295561 
L 487.846567 295.180575 
L 487.731581 295.180575 
L 487.731581 295.295561 
L 487.846567 295.295561 
" clip-path="url(#p7ec750096b)" style="fill: #ff0000; fill-opacity: 0.7; stroke: #000000; stroke-opacity: 0.7; stroke-width: 0.5"/>
    <path d="M 249.661912 498.268238 
L 249.661912 498.153253 
L 249.546926 498.153253 
L 249.546926 498.268238 
L 249.661912 498.268238 
" clip-path="url(#p7ec750096b)" style="fill: #ff0000; fill-opacity: 0.7; stroke: #000000; stroke-opacity: 0.7; stroke-width: 0.5"/>
    <path d="M 225.111823 512.943675 
L 225.111823 512.82869 
L 224.996837 512.82869 
L 224.996837 512.943675 
L 225.111823 512.943675 
" clip-path="url(#p7ec750096b)" style="fill: #ff0000; fill-opacity: 0.7; stroke: #000000; stroke-opacity: 0.7; stroke-width: 0.5"/>
    <path d="M 422.602708 300.621456 
L 422.602708 300.50647 
L 422.487722 300.50647 
L 422.487722 300.621456 
L 422.602708 300.621456 
" clip-path="url(#p7ec750096b)" style="fill: #ff0000; fill-opacity: 0.7; stroke: #000000; stroke-opacity: 0.7; stroke-width: 0.5"/>
    <path d="M 223.697567 490.278117 
L 223.697567 490.163131 
L 223.582581 490.163131 
L 223.582581 490.278117 
L 223.697567 490.278117 
" clip-path="url(#p7ec750096b)" style="fill: #ff0000; fill-opacity: 0.7; stroke: #000000; stroke-opacity: 0.7; stroke-width: 0.5"/>
    <path d="M 195.614827 432.376615 
L 195.614827 432.26163 
L 195.499842 432.26163 
L 195.499842 432.376615 
L 195.614827 432.376615 
" clip-path="url(#p7ec750096b)" style="fill: #ff0000; fill-opacity: 0.7; stroke: #000000; stroke-opacity: 0.7; stroke-width: 0.5"/>
    <path d="M 475.234346 263.58855 
L 475.234346 263.473564 
L 475.119361 263.473564 
L 475.119361 263.58855 
L 475.234346 263.58855 
" clip-path="url(#p7ec750096b)" style="fill: #ff0000; fill-opacity: 0.7; stroke: #000000; stroke-opacity: 0.7; stroke-width: 0.5"/>
    <path d="M 354.279478 284.573845 
L 354.279478 284.45886 
L 354.164492 284.45886 
L 354.164492 284.573845 
L 354.279478 284.573845 
" clip-path="url(#p7ec750096b)" style="fill: #ff0000; fill-opacity: 0.7; stroke: #000000; stroke-opacity: 0.7; stroke-width: 0.5"/>
    <path d="M 382.974401 245.084911 
L 382.974401 244.969925 
L 382.859415 244.969925 
L 382.859415 245.084911 
L 382.974401 245.084911 
" clip-path="url(#p7ec750096b)" style="fill: #ff0000; fill-opacity: 0.7; stroke: #000000; stroke-opacity: 0.7; stroke-width: 0.5"/>
    <path d="M 252.418654 287.055763 
L 252.418654 286.940778 
L 252.303669 286.940778 
L 252.303669 287.055763 
L 252.418654 287.055763 
" clip-path="url(#p7ec750096b)" style="fill: #ff0000; fill-opacity: 0.7; stroke: #000000; stroke-opacity: 0.7; stroke-width: 0.5"/>
    <path d="M 381.386288 282.780321 
L 381.386288 282.665335 
L 381.271302 282.665335 
L 381.271302 282.780321 
L 381.386288 282.780321 
" clip-path="url(#p7ec750096b)" style="fill: #ff0000; fill-opacity: 0.7; stroke: #000000; stroke-opacity: 0.7; stroke-width: 0.5"/>
   </g>
   <g id="matplotlib.axis_1">
    <g id="xtick_1">
     <g id="line2d_1">
      <defs>
       <path id="m0253f7f53d" d="M 0 0 
L 0 3.5 
" style="stroke: #000000; stroke-width: 0.8"/>
      </defs>
      <g>
       <use xlink:href="#m0253f7f53d" x="92.855877" y="625.612594" style="stroke: #000000; stroke-width: 0.8"/>
      </g>
     </g>
     <g id="text_1">
      <!-- 403000 -->
      <g transform="translate(73.768377 640.211032) scale(0.1 -0.1)">
       <defs>
        <path id="DejaVuSans-34" d="M 2419 4116 
L 825 1625 
L 2419 1625 
L 2419 4116 
z
M 2253 4666 
L 3047 4666 
L 3047 1625 
L 3713 1625 
L 3713 1100 
L 3047 1100 
L 3047 0 
L 2419 0 
L 2419 1100 
L 313 1100 
L 313 1709 
L 2253 4666 
z
" transform="scale(0.015625)"/>
        <path id="DejaVuSans-30" d="M 2034 4250 
Q 1547 4250 1301 3770 
Q 1056 3291 1056 2328 
Q 1056 1369 1301 889 
Q 1547 409 2034 409 
Q 2525 409 2770 889 
Q 3016 1369 3016 2328 
Q 3016 3291 2770 3770 
Q 2525 4250 2034 4250 
z
M 2034 4750 
Q 2819 4750 3233 4129 
Q 3647 3509 3647 2328 
Q 3647 1150 3233 529 
Q 2819 -91 2034 -91 
Q 1250 -91 836 529 
Q 422 1150 422 2328 
Q 422 3509 836 4129 
Q 1250 4750 2034 4750 
z
" transform="scale(0.015625)"/>
        <path id="DejaVuSans-33" d="M 2597 2516 
Q 3050 2419 3304 2112 
Q 3559 1806 3559 1356 
Q 3559 666 3084 287 
Q 2609 -91 1734 -91 
Q 1441 -91 1130 -33 
Q 819 25 488 141 
L 488 750 
Q 750 597 1062 519 
Q 1375 441 1716 441 
Q 2309 441 2620 675 
Q 2931 909 2931 1356 
Q 2931 1769 2642 2001 
Q 2353 2234 1838 2234 
L 1294 2234 
L 1294 2753 
L 1863 2753 
Q 2328 2753 2575 2939 
Q 2822 3125 2822 3475 
Q 2822 3834 2567 4026 
Q 2313 4219 1838 4219 
Q 1578 4219 1281 4162 
Q 984 4106 628 3988 
L 628 4550 
Q 988 4650 1302 4700 
Q 1616 4750 1894 4750 
Q 2613 4750 3031 4423 
Q 3450 4097 3450 3541 
Q 3450 3153 3228 2886 
Q 3006 2619 2597 2516 
z
" transform="scale(0.015625)"/>
       </defs>
       <use xlink:href="#DejaVuSans-34"/>
       <use xlink:href="#DejaVuSans-30" x="63.623047"/>
       <use xlink:href="#DejaVuSans-33" x="127.246094"/>
       <use xlink:href="#DejaVuSans-30" x="190.869141"/>
       <use xlink:href="#DejaVuSans-30" x="254.492188"/>
       <use xlink:href="#DejaVuSans-30" x="318.115234"/>
      </g>
     </g>
    </g>
    <g id="xtick_2">
     <g id="line2d_2">
      <g>
       <use xlink:href="#m0253f7f53d" x="207.841571" y="625.612594" style="stroke: #000000; stroke-width: 0.8"/>
      </g>
     </g>
     <g id="text_2">
      <!-- 404000 -->
      <g transform="translate(188.754071 640.211032) scale(0.1 -0.1)">
       <use xlink:href="#DejaVuSans-34"/>
       <use xlink:href="#DejaVuSans-30" x="63.623047"/>
       <use xlink:href="#DejaVuSans-34" x="127.246094"/>
       <use xlink:href="#DejaVuSans-30" x="190.869141"/>
       <use xlink:href="#DejaVuSans-30" x="254.492188"/>
       <use xlink:href="#DejaVuSans-30" x="318.115234"/>
      </g>
     </g>
    </g>
    <g id="xtick_3">
     <g id="line2d_3">
      <g>
       <use xlink:href="#m0253f7f53d" x="322.827265" y="625.612594" style="stroke: #000000; stroke-width: 0.8"/>
      </g>
     </g>
     <g id="text_3">
      <!-- 405000 -->
      <g transform="translate(303.739765 640.211032) scale(0.1 -0.1)">
       <defs>
        <path id="DejaVuSans-35" d="M 691 4666 
L 3169 4666 
L 3169 4134 
L 1269 4134 
L 1269 2991 
Q 1406 3038 1543 3061 
Q 1681 3084 1819 3084 
Q 2600 3084 3056 2656 
Q 3513 2228 3513 1497 
Q 3513 744 3044 326 
Q 2575 -91 1722 -91 
Q 1428 -91 1123 -41 
Q 819 9 494 109 
L 494 744 
Q 775 591 1075 516 
Q 1375 441 1709 441 
Q 2250 441 2565 725 
Q 2881 1009 2881 1497 
Q 2881 1984 2565 2268 
Q 2250 2553 1709 2553 
Q 1456 2553 1204 2497 
Q 953 2441 691 2322 
L 691 4666 
z
" transform="scale(0.015625)"/>
       </defs>
       <use xlink:href="#DejaVuSans-34"/>
       <use xlink:href="#DejaVuSans-30" x="63.623047"/>
       <use xlink:href="#DejaVuSans-35" x="127.246094"/>
       <use xlink:href="#DejaVuSans-30" x="190.869141"/>
       <use xlink:href="#DejaVuSans-30" x="254.492188"/>
       <use xlink:href="#DejaVuSans-30" x="318.115234"/>
      </g>
     </g>
    </g>
    <g id="xtick_4">
     <g id="line2d_4">
      <g>
       <use xlink:href="#m0253f7f53d" x="437.812958" y="625.612594" style="stroke: #000000; stroke-width: 0.8"/>
      </g>
     </g>
     <g id="text_4">
      <!-- 406000 -->
      <g transform="translate(418.725458 640.211032) scale(0.1 -0.1)">
       <defs>
        <path id="DejaVuSans-36" d="M 2113 2584 
Q 1688 2584 1439 2293 
Q 1191 2003 1191 1497 
Q 1191 994 1439 701 
Q 1688 409 2113 409 
Q 2538 409 2786 701 
Q 3034 994 3034 1497 
Q 3034 2003 2786 2293 
Q 2538 2584 2113 2584 
z
M 3366 4563 
L 3366 3988 
Q 3128 4100 2886 4159 
Q 2644 4219 2406 4219 
Q 1781 4219 1451 3797 
Q 1122 3375 1075 2522 
Q 1259 2794 1537 2939 
Q 1816 3084 2150 3084 
Q 2853 3084 3261 2657 
Q 3669 2231 3669 1497 
Q 3669 778 3244 343 
Q 2819 -91 2113 -91 
Q 1303 -91 875 529 
Q 447 1150 447 2328 
Q 447 3434 972 4092 
Q 1497 4750 2381 4750 
Q 2619 4750 2861 4703 
Q 3103 4656 3366 4563 
z
" transform="scale(0.015625)"/>
       </defs>
       <use xlink:href="#DejaVuSans-34"/>
       <use xlink:href="#DejaVuSans-30" x="63.623047"/>
       <use xlink:href="#DejaVuSans-36" x="127.246094"/>
       <use xlink:href="#DejaVuSans-30" x="190.869141"/>
       <use xlink:href="#DejaVuSans-30" x="254.492188"/>
       <use xlink:href="#DejaVuSans-30" x="318.115234"/>
      </g>
     </g>
    </g>
    <g id="xtick_5">
     <g id="line2d_5">
      <g>
       <use xlink:href="#m0253f7f53d" x="552.798652" y="625.612594" style="stroke: #000000; stroke-width: 0.8"/>
      </g>
     </g>
     <g id="text_5">
      <!-- 407000 -->
      <g transform="translate(533.711152 640.211032) scale(0.1 -0.1)">
       <defs>
        <path id="DejaVuSans-37" d="M 525 4666 
L 3525 4666 
L 3525 4397 
L 1831 0 
L 1172 0 
L 2766 4134 
L 525 4134 
L 525 4666 
z
" transform="scale(0.015625)"/>
       </defs>
       <use xlink:href="#DejaVuSans-34"/>
       <use xlink:href="#DejaVuSans-30" x="63.623047"/>
       <use xlink:href="#DejaVuSans-37" x="127.246094"/>
       <use xlink:href="#DejaVuSans-30" x="190.869141"/>
       <use xlink:href="#DejaVuSans-30" x="254.492188"/>
       <use xlink:href="#DejaVuSans-30" x="318.115234"/>
      </g>
     </g>
    </g>
   </g>
   <g id="matplotlib.axis_2">
    <g id="ytick_1">
     <g id="line2d_6">
      <defs>
       <path id="mf4cee845ef" d="M 0 0 
L -3.5 0 
" style="stroke: #000000; stroke-width: 0.8"/>
      </defs>
      <g>
       <use xlink:href="#mf4cee845ef" x="90" y="602.261733" style="stroke: #000000; stroke-width: 0.8"/>
      </g>
     </g>
     <g id="text_6">
      <!-- 5.819 -->
      <g transform="translate(54.371875 606.060952) scale(0.1 -0.1)">
       <defs>
        <path id="DejaVuSans-2e" d="M 684 794 
L 1344 794 
L 1344 0 
L 684 0 
L 684 794 
z
" transform="scale(0.015625)"/>
        <path id="DejaVuSans-38" d="M 2034 2216 
Q 1584 2216 1326 1975 
Q 1069 1734 1069 1313 
Q 1069 891 1326 650 
Q 1584 409 2034 409 
Q 2484 409 2743 651 
Q 3003 894 3003 1313 
Q 3003 1734 2745 1975 
Q 2488 2216 2034 2216 
z
M 1403 2484 
Q 997 2584 770 2862 
Q 544 3141 544 3541 
Q 544 4100 942 4425 
Q 1341 4750 2034 4750 
Q 2731 4750 3128 4425 
Q 3525 4100 3525 3541 
Q 3525 3141 3298 2862 
Q 3072 2584 2669 2484 
Q 3125 2378 3379 2068 
Q 3634 1759 3634 1313 
Q 3634 634 3220 271 
Q 2806 -91 2034 -91 
Q 1263 -91 848 271 
Q 434 634 434 1313 
Q 434 1759 690 2068 
Q 947 2378 1403 2484 
z
M 1172 3481 
Q 1172 3119 1398 2916 
Q 1625 2713 2034 2713 
Q 2441 2713 2670 2916 
Q 2900 3119 2900 3481 
Q 2900 3844 2670 4047 
Q 2441 4250 2034 4250 
Q 1625 4250 1398 4047 
Q 1172 3844 1172 3481 
z
" transform="scale(0.015625)"/>
        <path id="DejaVuSans-31" d="M 794 531 
L 1825 531 
L 1825 4091 
L 703 3866 
L 703 4441 
L 1819 4666 
L 2450 4666 
L 2450 531 
L 3481 531 
L 3481 0 
L 794 0 
L 794 531 
z
" transform="scale(0.015625)"/>
        <path id="DejaVuSans-39" d="M 703 97 
L 703 672 
Q 941 559 1184 500 
Q 1428 441 1663 441 
Q 2288 441 2617 861 
Q 2947 1281 2994 2138 
Q 2813 1869 2534 1725 
Q 2256 1581 1919 1581 
Q 1219 1581 811 2004 
Q 403 2428 403 3163 
Q 403 3881 828 4315 
Q 1253 4750 1959 4750 
Q 2769 4750 3195 4129 
Q 3622 3509 3622 2328 
Q 3622 1225 3098 567 
Q 2575 -91 1691 -91 
Q 1453 -91 1209 -44 
Q 966 3 703 97 
z
M 1959 2075 
Q 2384 2075 2632 2365 
Q 2881 2656 2881 3163 
Q 2881 3666 2632 3958 
Q 2384 4250 1959 4250 
Q 1534 4250 1286 3958 
Q 1038 3666 1038 3163 
Q 1038 2656 1286 2365 
Q 1534 2075 1959 2075 
z
" transform="scale(0.015625)"/>
       </defs>
       <use xlink:href="#DejaVuSans-35"/>
       <use xlink:href="#DejaVuSans-2e" x="63.623047"/>
       <use xlink:href="#DejaVuSans-38" x="95.410156"/>
       <use xlink:href="#DejaVuSans-31" x="159.033203"/>
       <use xlink:href="#DejaVuSans-39" x="222.65625"/>
      </g>
     </g>
    </g>
    <g id="ytick_2">
     <g id="line2d_7">
      <g>
       <use xlink:href="#mf4cee845ef" x="90" y="487.27604" style="stroke: #000000; stroke-width: 0.8"/>
      </g>
     </g>
     <g id="text_7">
      <!-- 5.820 -->
      <g transform="translate(54.371875 491.075258) scale(0.1 -0.1)">
       <defs>
        <path id="DejaVuSans-32" d="M 1228 531 
L 3431 531 
L 3431 0 
L 469 0 
L 469 531 
Q 828 903 1448 1529 
Q 2069 2156 2228 2338 
Q 2531 2678 2651 2914 
Q 2772 3150 2772 3378 
Q 2772 3750 2511 3984 
Q 2250 4219 1831 4219 
Q 1534 4219 1204 4116 
Q 875 4013 500 3803 
L 500 4441 
Q 881 4594 1212 4672 
Q 1544 4750 1819 4750 
Q 2544 4750 2975 4387 
Q 3406 4025 3406 3419 
Q 3406 3131 3298 2873 
Q 3191 2616 2906 2266 
Q 2828 2175 2409 1742 
Q 1991 1309 1228 531 
z
" transform="scale(0.015625)"/>
       </defs>
       <use xlink:href="#DejaVuSans-35"/>
       <use xlink:href="#DejaVuSans-2e" x="63.623047"/>
       <use xlink:href="#DejaVuSans-38" x="95.410156"/>
       <use xlink:href="#DejaVuSans-32" x="159.033203"/>
       <use xlink:href="#DejaVuSans-30" x="222.65625"/>
      </g>
     </g>
    </g>
    <g id="ytick_3">
     <g id="line2d_8">
      <g>
       <use xlink:href="#mf4cee845ef" x="90" y="372.290346" style="stroke: #000000; stroke-width: 0.8"/>
      </g>
     </g>
     <g id="text_8">
      <!-- 5.821 -->
      <g transform="translate(54.371875 376.089564) scale(0.1 -0.1)">
       <use xlink:href="#DejaVuSans-35"/>
       <use xlink:href="#DejaVuSans-2e" x="63.623047"/>
       <use xlink:href="#DejaVuSans-38" x="95.410156"/>
       <use xlink:href="#DejaVuSans-32" x="159.033203"/>
       <use xlink:href="#DejaVuSans-31" x="222.65625"/>
      </g>
     </g>
    </g>
    <g id="ytick_4">
     <g id="line2d_9">
      <g>
       <use xlink:href="#mf4cee845ef" x="90" y="257.304652" style="stroke: #000000; stroke-width: 0.8"/>
      </g>
     </g>
     <g id="text_9">
      <!-- 5.822 -->
      <g transform="translate(54.371875 261.10387) scale(0.1 -0.1)">
       <use xlink:href="#DejaVuSans-35"/>
       <use xlink:href="#DejaVuSans-2e" x="63.623047"/>
       <use xlink:href="#DejaVuSans-38" x="95.410156"/>
       <use xlink:href="#DejaVuSans-32" x="159.033203"/>
       <use xlink:href="#DejaVuSans-32" x="222.65625"/>
      </g>
     </g>
    </g>
    <g id="ytick_5">
     <g id="line2d_10">
      <g>
       <use xlink:href="#mf4cee845ef" x="90" y="142.318958" style="stroke: #000000; stroke-width: 0.8"/>
      </g>
     </g>
     <g id="text_10">
      <!-- 5.823 -->
      <g transform="translate(54.371875 146.118176) scale(0.1 -0.1)">
       <use xlink:href="#DejaVuSans-35"/>
       <use xlink:href="#DejaVuSans-2e" x="63.623047"/>
       <use xlink:href="#DejaVuSans-38" x="95.410156"/>
       <use xlink:href="#DejaVuSans-32" x="159.033203"/>
       <use xlink:href="#DejaVuSans-33" x="222.65625"/>
      </g>
     </g>
    </g>
    <g id="text_11">
     <!-- 1e6 -->
     <g transform="translate(90 98.587406) scale(0.1 -0.1)">
      <defs>
       <path id="DejaVuSans-65" d="M 3597 1894 
L 3597 1613 
L 953 1613 
Q 991 1019 1311 708 
Q 1631 397 2203 397 
Q 2534 397 2845 478 
Q 3156 559 3463 722 
L 3463 178 
Q 3153 47 2828 -22 
Q 2503 -91 2169 -91 
Q 1331 -91 842 396 
Q 353 884 353 1716 
Q 353 2575 817 3079 
Q 1281 3584 2069 3584 
Q 2775 3584 3186 3129 
Q 3597 2675 3597 1894 
z
M 3022 2063 
Q 3016 2534 2758 2815 
Q 2500 3097 2075 3097 
Q 1594 3097 1305 2825 
Q 1016 2553 972 2059 
L 3022 2063 
z
" transform="scale(0.015625)"/>
      </defs>
      <use xlink:href="#DejaVuSans-31"/>
      <use xlink:href="#DejaVuSans-65" x="63.623047"/>
      <use xlink:href="#DejaVuSans-36" x="125.146484"/>
     </g>
    </g>
   </g>
   <g id="patch_3">
    <path d="M 90 625.612594 
L 90 101.587406 
" style="fill: none; stroke: #000000; stroke-width: 0.8; stroke-linejoin: miter; stroke-linecap: square"/>
   </g>
   <g id="patch_4">
    <path d="M 648 625.612594 
L 648 101.587406 
" style="fill: none; stroke: #000000; stroke-width: 0.8; stroke-linejoin: miter; stroke-linecap: square"/>
   </g>
   <g id="patch_5">
    <path d="M 90 625.612594 
L 648 625.612594 
" style="fill: none; stroke: #000000; stroke-width: 0.8; stroke-linejoin: miter; stroke-linecap: square"/>
   </g>
   <g id="patch_6">
    <path d="M 90 101.587406 
L 648 101.587406 
" style="fill: none; stroke: #000000; stroke-width: 0.8; stroke-linejoin: miter; stroke-linecap: square"/>
   </g>
   <g id="text_12">
    <!-- Hellersdorf -->
    <g transform="translate(301.200367 334.936144) scale(0.12 -0.12)">
     <defs>
      <path id="DejaVuSans-48" d="M 628 4666 
L 1259 4666 
L 1259 2753 
L 3553 2753 
L 3553 4666 
L 4184 4666 
L 4184 0 
L 3553 0 
L 3553 2222 
L 1259 2222 
L 1259 0 
L 628 0 
L 628 4666 
z
" transform="scale(0.015625)"/>
      <path id="DejaVuSans-6c" d="M 603 4863 
L 1178 4863 
L 1178 0 
L 603 0 
L 603 4863 
z
" transform="scale(0.015625)"/>
      <path id="DejaVuSans-72" d="M 2631 2963 
Q 2534 3019 2420 3045 
Q 2306 3072 2169 3072 
Q 1681 3072 1420 2755 
Q 1159 2438 1159 1844 
L 1159 0 
L 581 0 
L 581 3500 
L 1159 3500 
L 1159 2956 
Q 1341 3275 1631 3429 
Q 1922 3584 2338 3584 
Q 2397 3584 2469 3576 
Q 2541 3569 2628 3553 
L 2631 2963 
z
" transform="scale(0.015625)"/>
      <path id="DejaVuSans-73" d="M 2834 3397 
L 2834 2853 
Q 2591 2978 2328 3040 
Q 2066 3103 1784 3103 
Q 1356 3103 1142 2972 
Q 928 2841 928 2578 
Q 928 2378 1081 2264 
Q 1234 2150 1697 2047 
L 1894 2003 
Q 2506 1872 2764 1633 
Q 3022 1394 3022 966 
Q 3022 478 2636 193 
Q 2250 -91 1575 -91 
Q 1294 -91 989 -36 
Q 684 19 347 128 
L 347 722 
Q 666 556 975 473 
Q 1284 391 1588 391 
Q 1994 391 2212 530 
Q 2431 669 2431 922 
Q 2431 1156 2273 1281 
Q 2116 1406 1581 1522 
L 1381 1569 
Q 847 1681 609 1914 
Q 372 2147 372 2553 
Q 372 3047 722 3315 
Q 1072 3584 1716 3584 
Q 2034 3584 2315 3537 
Q 2597 3491 2834 3397 
z
" transform="scale(0.015625)"/>
      <path id="DejaVuSans-64" d="M 2906 2969 
L 2906 4863 
L 3481 4863 
L 3481 0 
L 2906 0 
L 2906 525 
Q 2725 213 2448 61 
Q 2172 -91 1784 -91 
Q 1150 -91 751 415 
Q 353 922 353 1747 
Q 353 2572 751 3078 
Q 1150 3584 1784 3584 
Q 2172 3584 2448 3432 
Q 2725 3281 2906 2969 
z
M 947 1747 
Q 947 1113 1208 752 
Q 1469 391 1925 391 
Q 2381 391 2643 752 
Q 2906 1113 2906 1747 
Q 2906 2381 2643 2742 
Q 2381 3103 1925 3103 
Q 1469 3103 1208 2742 
Q 947 2381 947 1747 
z
" transform="scale(0.015625)"/>
      <path id="DejaVuSans-6f" d="M 1959 3097 
Q 1497 3097 1228 2736 
Q 959 2375 959 1747 
Q 959 1119 1226 758 
Q 1494 397 1959 397 
Q 2419 397 2687 759 
Q 2956 1122 2956 1747 
Q 2956 2369 2687 2733 
Q 2419 3097 1959 3097 
z
M 1959 3584 
Q 2709 3584 3137 3096 
Q 3566 2609 3566 1747 
Q 3566 888 3137 398 
Q 2709 -91 1959 -91 
Q 1206 -91 779 398 
Q 353 888 353 1747 
Q 353 2609 779 3096 
Q 1206 3584 1959 3584 
z
" transform="scale(0.015625)"/>
      <path id="DejaVuSans-66" d="M 2375 4863 
L 2375 4384 
L 1825 4384 
Q 1516 4384 1395 4259 
Q 1275 4134 1275 3809 
L 1275 3500 
L 2222 3500 
L 2222 3053 
L 1275 3053 
L 1275 0 
L 697 0 
L 697 3053 
L 147 3053 
L 147 3500 
L 697 3500 
L 697 3744 
Q 697 4328 969 4595 
Q 1241 4863 1831 4863 
L 2375 4863 
z
" transform="scale(0.015625)"/>
     </defs>
     <use xlink:href="#DejaVuSans-48"/>
     <use xlink:href="#DejaVuSans-65" x="75.195312"/>
     <use xlink:href="#DejaVuSans-6c" x="136.71875"/>
     <use xlink:href="#DejaVuSans-6c" x="164.501953"/>
     <use xlink:href="#DejaVuSans-65" x="192.285156"/>
     <use xlink:href="#DejaVuSans-72" x="253.808594"/>
     <use xlink:href="#DejaVuSans-73" x="294.921875"/>
     <use xlink:href="#DejaVuSans-64" x="347.021484"/>
     <use xlink:href="#DejaVuSans-6f" x="410.498047"/>
     <use xlink:href="#DejaVuSans-72" x="471.679688"/>
     <use xlink:href="#DejaVuSans-66" x="512.792969"/>
    </g>
   </g>
  </g>
 </g>
 <defs>
  <clipPath id="p7ec750096b">
   <rect x="90" y="101.587406" width="558" height="524.025189"/>
  </clipPath>
 </defs>
</svg>
