<?xml version="1.0" encoding="utf-8" standalone="no"?>
<!DOCTYPE svg PUBLIC "-//W3C//DTD SVG 1.1//EN"
  "http://www.w3.org/Graphics/SVG/1.1/DTD/svg11.dtd">
<svg xmlns:xlink="http://www.w3.org/1999/xlink" width="720pt" height="720pt" viewBox="0 0 720 720" xmlns="http://www.w3.org/2000/svg" version="1.1">
 <metadata>
  <rdf:RDF xmlns:dc="http://purl.org/dc/elements/1.1/" xmlns:cc="http://creativecommons.org/ns#" xmlns:rdf="http://www.w3.org/1999/02/22-rdf-syntax-ns#">
   <cc:Work>
    <dc:type rdf:resource="http://purl.org/dc/dcmitype/StillImage"/>
    <dc:date>2024-10-15T13:01:16.618733</dc:date>
    <dc:format>image/svg+xml</dc:format>
    <dc:creator>
     <cc:Agent>
      <dc:title>Matplotlib v3.9.2, https://matplotlib.org/</dc:title>
     </cc:Agent>
    </dc:creator>
   </cc:Work>
  </rdf:RDF>
 </metadata>
 <defs>
  <style type="text/css">*{stroke-linejoin: round; stroke-linecap: butt}</style>
 </defs>
 <g id="figure_1">
  <g id="patch_1">
   <path d="M 0 720 
L 720 720 
L 720 0 
L 0 0 
z
" style="fill: #ffffff"/>
  </g>
  <g id="axes_1">
   <g id="patch_2">
    <path d="M 90 585.743332 
L 648 585.743332 
L 648 141.456668 
L 90 141.456668 
z
" style="fill: #ffffff"/>
   </g>
   <g id="PatchCollection_1">
    <path d="M 622.636364 402.031185 
L 614.563457 391.665347 
L 614.42784 391.491689 
L 614.563457 390.763962 
L 615.128939 390.32763 
L 615.254285 389.936376 
L 614.690324 387.095652 
L 612.583224 385.180279 
L 610.610409 383.117307 
L 610.146117 383.028671 
L 609.018957 381.888767 
L 608.765222 381.728043 
L 608.679249 381.68791 
L 608.58719 381.665275 
L 608.492467 381.661091 
L 608.398696 381.675356 
L 608.309489 381.707691 
L 608.223516 381.760378 
L 608.150287 381.829803 
L 608.092845 381.912733 
L 608.054043 382.005934 
L 608.035212 382.105031 
L 608.037305 382.20584 
L 608.060129 382.304177 
L 608.012007 382.339365 
L 607.045191 381.23503 
L 604.99306 378.94419 
L 604.867905 378.803438 
L 602.105545 375.696045 
L 601.570306 375.115347 
L 601.257227 374.58258 
L 601.196551 373.674157 
L 598.832863 371.951843 
L 597.743555 372.147946 
L 597.108838 371.818129 
L 597.012403 371.788457 
L 596.911975 371.777615 
L 596.811546 371.785984 
L 596.714351 371.813374 
L 596.624193 371.858833 
L 596.544307 371.92065 
L 596.477735 371.996352 
L 594.317567 372.084607 
L 593.424931 372.313044 
L 590.85487 373.241629 
L 590.740936 373.14063 
L 590.290339 373.672826 
L 587.532544 376.92896 
L 582.620478 373.10411 
L 584.048354 371.423261 
L 584.344314 368.867085 
L 583.598707 367.165884 
L 582.303786 366.059076 
L 582.552575 365.770914 
L 581.641299 364.968246 
L 580.378903 363.855922 
L 576.535413 360.470068 
L 575.56251 359.61281 
L 567.309479 354.862419 
L 567.19022 354.994802 
L 566.243185 356.044548 
L 563.858384 354.005922 
L 562.12675 352.52555 
L 559.693447 351.649272 
L 560.337484 350.949885 
L 554.422272 347.685382 
L 553.415132 347.129601 
L 552.369191 346.552326 
L 539.245178 339.153129 
L 535.681861 336.906607 
L 533.566582 335.375831 
L 528.826653 331.945468 
L 527.231016 330.633429 
L 525.033378 328.826663 
L 519.462629 324.230149 
L 518.452065 323.432996 
L 514.035296 319.862833 
L 504.031039 311.53448 
L 498.256009 306.727027 
L 498.215305 306.773818 
L 497.436222 306.131302 
L 497.473312 306.084512 
L 497.431467 306.049894 
L 494.694785 303.78169 
L 494.623838 303.803183 
L 493.893638 303.201562 
L 493.926924 303.148875 
L 493.667103 302.915873 
L 493.622215 302.970081 
L 492.541845 302.078396 
L 492.575131 302.0259 
L 492.346884 301.827515 
L 492.309794 301.874305 
L 491.532803 301.230078 
L 491.573698 301.179484 
L 488.839489 298.926495 
L 488.769113 298.946657 
L 488.016088 298.333243 
L 488.032635 298.272568 
L 487.195159 297.583832 
L 485.408556 296.114492 
L 472.683785 285.648796 
L 472.157676 285.183363 
L 471.631756 284.717739 
L 469.697553 283.515257 
L 467.103716 281.916577 
L 463.168167 279.491263 
L 461.769774 278.629059 
L 460.74076 277.985403 
L 457.453623 275.929468 
L 455.244572 274.521945 
L 449.02408 270.559196 
L 441.549752 265.741473 
L 438.982924 264.086872 
L 438.155909 263.562855 
L 434.620173 261.32242 
L 433.899102 260.865546 
L 433.485404 261.426463 
L 426.445506 255.970979 
L 422.403632 253.161068 
L 421.886082 252.801389 
L 416.403018 248.697317 
L 415.421175 247.626839 
L 413.764673 245.821785 
L 411.420386 243.26656 
L 403.618713 234.763979 
L 403.732646 233.128589 
L 401.186931 230.654962 
L 400.728725 230.704035 
L 395.596781 225.273468 
L 394.035762 224.156009 
L 389.211762 220.647662 
L 384.542398 217.251537 
L 381.905955 215.334452 
L 376.782951 209.597844 
L 376.509245 209.286477 
L 366.843935 200.934348 
L 365.549965 199.815748 
L 359.560763 194.518325 
L 355.479431 190.983077 
L 352.261043 188.195312 
L 349.925316 186.322355 
L 340.815978 179.508611 
L 333.338986 173.949085 
L 324.548243 166.745229 
L 318.494942 161.651516 
L 313.414163 172.902002 
L 310.660173 174.019081 
L 310.227074 174.980381 
L 305.411633 185.667476 
L 304.291797 188.125284 
L 303.198017 190.525904 
L 300.432425 196.642924 
L 298.965177 199.886314 
L 297.497929 203.131606 
L 296.862832 204.535135 
L 296.663876 204.974701 
L 296.046088 206.340379 
L 295.379416 207.813903 
L 295.176467 208.262218 
L 294.54175 209.665367 
L 294.398905 209.980348 
L 293.310737 212.388354 
L 291.986524 215.316763 
L 290.848903 217.830333 
L 288.732483 222.51244 
L 285.913252 221.140866 
L 282.449413 219.570526 
L 270.814332 227.232588 
L 266.588529 229.32219 
L 264.224841 230.300418 
L 261.8952 231.214547 
L 259.466842 232.167098 
L 258.577629 232.447462 
L 257.684993 232.716983 
L 256.789124 232.975473 
L 255.890211 233.223121 
L 254.852448 233.494355 
L 253.810881 233.750942 
L 252.76589 233.992884 
L 251.717665 234.22018 
L 251.37073 234.292078 
L 251.023604 234.362454 
L 250.676098 234.430928 
L 249.284552 234.689038 
L 247.888441 234.921089 
L 246.488146 235.127272 
L 245.084427 235.307587 
L 243.677665 235.461844 
L 242.268049 235.589852 
L 240.856532 235.691613 
L 239.443302 235.767314 
L 238.028741 235.816768 
L 236.61361 235.839973 
L 235.198478 235.83693 
L 233.783347 235.807638 
L 232.369167 235.752098 
L 230.956318 235.67031 
L 229.54518 235.562273 
L 228.136136 235.428177 
L 226.729944 235.268024 
L 225.326985 235.081622 
L 223.927831 234.869353 
L 222.532671 234.631215 
L 220.431118 234.374011 
L 218.874252 234.18347 
L 215.420304 233.392785 
L 213.46651 232.528299 
L 211.474865 231.741037 
L 210.174618 231.181261 
L 207.244116 229.681679 
L 202.569617 227.478905 
L 200.340976 226.409948 
L 199.911491 226.203765 
L 199.819812 226.159827 
L 195.817881 224.188154 
L 193.803791 223.217723 
L 191.484992 222.100835 
L 189.757162 221.268304 
L 188.430856 220.680758 
L 186.631319 224.513786 
L 185.407915 227.06787 
L 184.42398 229.254286 
L 184.324312 229.472262 
L 184.216846 229.686814 
L 184.101962 229.897182 
L 183.97985 230.103555 
L 183.746657 230.413781 
L 183.505476 230.71811 
L 183.256877 231.016163 
L 183.075611 231.229003 
L 182.888258 231.436518 
L 182.695009 231.638326 
L 182.495864 231.834619 
L 182.287588 232.029389 
L 182.073797 232.217693 
L 181.854299 232.39972 
L 181.629666 232.57509 
L 181.857343 233.003624 
L 180.565465 233.441477 
L 180.105357 233.597636 
L 179.187994 233.908623 
L 177.667679 234.409625 
L 176.710182 234.724986 
L 176.517123 234.788705 
L 176.348981 234.427885 
L 175.995389 234.396311 
L 175.642367 234.360362 
L 175.289725 234.320228 
L 175.142316 234.301778 
L 174.994906 234.281997 
L 174.847877 234.260504 
L 174.611261 234.21048 
L 174.375025 234.157793 
L 174.13955 234.102443 
L 173.933177 234.05356 
L 173.727374 234.002014 
L 173.522332 233.948186 
L 173.153143 233.870582 
L 172.785665 233.784419 
L 172.42047 233.689506 
L 170.830349 237.155056 
L 169.598766 239.78256 
L 168.111737 242.954432 
L 166.938357 245.457731 
L 165.965074 247.534399 
L 164.128827 251.451308 
L 160.39851 249.620196 
L 157.520315 248.238351 
L 153.805215 246.4546 
L 152.514288 245.834719 
L 148.954015 244.127622 
L 148.290386 243.809217 
L 147.782537 243.565564 
L 147.743354 243.546733 
L 147.058804 243.218438 
L 147.027229 243.203222 
L 146.349336 242.87797 
L 146.295888 242.852292 
L 141.764424 240.67881 
L 141.056478 240.339102 
L 137.901534 238.825634 
L 137.189593 238.484025 
L 132.613621 236.289049 
L 131.423313 235.718622 
L 130.104426 235.086568 
L 129.72059 234.902829 
L 127.526566 236.219244 
L 126.093745 237.078784 
L 125.572771 237.391482 
L 125.753467 239.795113 
L 126.242486 246.419983 
L 128.317252 254.71486 
L 129.487778 259.624262 
L 130.105757 261.955045 
L 130.993067 265.61936 
L 131.417036 267.195786 
L 131.534774 267.657606 
L 131.944667 269.264846 
L 132.937351 273.163495 
L 132.212667 274.695793 
L 131.998686 275.147912 
L 131.258785 276.712736 
L 130.585266 278.136617 
L 130.412369 278.502192 
L 129.71146 279.984276 
L 129.092531 281.292512 
L 128.918682 281.66018 
L 128.282063 283.006266 
L 127.946921 283.714403 
L 127.800843 284.023868 
L 126.200641 287.102349 
L 125.891176 287.809535 
L 123.735763 292.732823 
L 123.481839 293.31276 
L 123.383122 293.538725 
L 120.861753 299.297967 
L 122.646264 300.189652 
L 125.404439 301.567694 
L 126.219662 301.974924 
L 125.471011 303.628954 
L 124.99835 304.673755 
L 123.868527 307.170016 
L 123.847985 307.213383 
L 122.249875 310.516498 
L 123.254733 311.771666 
L 118.075618 322.948922 
L 115.363636 328.708706 
L 119.783667 331.054544 
L 125.646191 333.790655 
L 126.888235 334.43241 
L 130.72754 336.415686 
L 132.972159 337.589256 
L 135.826388 339.063922 
L 139.017091 340.699502 
L 142.20399 342.33299 
L 145.662122 344.104757 
L 148.084394 345.346992 
L 150.783414 346.733592 
L 152.7102 347.724945 
L 155.503372 349.162711 
L 157.029204 349.946739 
L 159.251569 351.090257 
L 163.527016 353.288276 
L 164.996926 350.100236 
L 166.518283 346.799325 
L 168.210791 347.706393 
L 170.012845 348.67217 
L 170.218267 348.846589 
L 172.456609 350.745794 
L 174.895999 352.815995 
L 176.389115 354.082575 
L 176.86501 354.486002 
L 178.375625 355.767419 
L 178.712479 356.053298 
L 176.643801 365.926693 
L 176.220593 366.278193 
L 176.503238 367.194605 
L 178.31571 372.915616 
L 178.716854 374.186382 
L 178.922657 374.838407 
L 179.086044 375.355577 
L 179.139111 375.523529 
L 179.528462 376.757204 
L 179.965936 378.143043 
L 180.841263 381.042922 
L 181.004079 381.582155 
L 181.172411 382.140219 
L 181.474458 383.140131 
L 181.61483 383.604804 
L 181.972417 384.711802 
L 182.114271 385.150902 
L 182.320684 385.790269 
L 182.495673 386.331976 
L 182.675989 386.889849 
L 182.841468 387.402454 
L 183.209516 388.541787 
L 183.386978 389.091101 
L 183.724023 390.134 
L 183.901865 390.684646 
L 184.246899 391.752271 
L 184.422268 392.295499 
L 184.601633 392.85071 
L 184.71956 393.215335 
L 184.774339 393.385189 
L 184.967208 393.982054 
L 185.433973 395.461095 
L 185.561031 395.863 
L 186.024943 397.33234 
L 186.405164 398.537294 
L 186.538118 398.9586 
L 186.897227 400.096031 
L 187.263183 401.255526 
L 187.400511 401.690146 
L 187.771032 402.863906 
L 187.974172 403.506992 
L 188.00917 403.618643 
L 188.111311 403.941422 
L 188.150683 404.066007 
L 188.318064 404.596111 
L 188.487348 405.131731 
L 188.854064 406.292557 
L 189.024299 406.83122 
L 189.203092 407.397653 
L 189.371044 407.929088 
L 189.57038 408.560001 
L 190.287265 410.861682 
L 190.982848 413.088802 
L 194.31069 421.71806 
L 194.287865 421.917396 
L 194.27417 422.037036 
L 194.26466 422.162381 
L 194.270556 422.288107 
L 194.291479 422.411931 
L 194.327428 422.532522 
L 194.399706 422.737373 
L 195.887306 426.915625 
L 195.949123 427.063225 
L 196.426539 427.962328 
L 197.470579 428.174217 
L 197.506528 428.182586 
L 197.525168 428.099276 
L 200.228754 428.751682 
L 202.762296 429.43376 
L 203.733107 429.695103 
L 205.558322 430.22806 
L 207.369272 430.802672 
L 209.172233 431.413232 
L 210.964923 432.052134 
L 212.74563 432.725082 
L 214.516256 433.422567 
L 216.265389 434.15562 
L 218.012049 434.919297 
L 219.669503 435.669659 
L 219.743113 435.703325 
L 221.460291 436.515885 
L 223.163584 437.362301 
L 224.854895 438.231161 
L 226.53232 439.132356 
L 227.608695 439.735689 
L 227.874032 439.88424 
L 254.411551 454.769178 
L 258.065976 456.820548 
L 264.855754 460.627899 
L 295.788929 477.987035 
L 295.982749 478.095262 
L 299.371837 480.000744 
L 299.829361 480.257877 
L 307.480502 484.557886 
L 312.858762 487.568273 
L 324.173157 493.96832 
L 339.070839 502.159724 
L 365.793999 516.809378 
L 384.373305 526.994521 
L 385.128042 527.410311 
L 388.432108 529.231722 
L 389.033539 529.56325 
L 408.168627 540.066037 
L 410.734123 541.472799 
L 411.131273 541.689634 
L 424.646349 549.080652 
L 436.675727 564.478766 
L 436.751809 564.887328 
L 436.990328 564.840537 
L 437.119477 565.548484 
L 437.2608 565.520714 
L 441.706862 564.650522 
L 441.844381 564.622752 
L 441.705721 563.910621 
L 441.930924 563.865542 
L 442.118087 560.92496 
L 442.332639 559.348534 
L 442.807773 555.719597 
L 442.937874 554.922254 
L 443.71962 550.767207 
L 443.880344 549.979945 
L 444.751677 547.158242 
L 445.692625 544.736541 
L 447.616747 542.020211 
L 450.143822 539.363416 
L 450.900271 538.835024 
L 451.550775 538.35057 
L 452.310647 537.763975 
L 453.16296 537.061545 
L 454.01356 536.323356 
L 454.723408 535.671711 
L 455.415187 535.003518 
L 456.117046 534.287773 
L 456.730841 533.635177 
L 457.380964 532.901934 
L 457.891857 532.300312 
L 458.517254 531.534354 
L 459.563386 530.259784 
L 471.928668 515.104753 
L 475.883618 510.256026 
L 479.975706 505.301544 
L 481.675005 503.251316 
L 494.265491 488.037321 
L 494.294402 488.002323 
L 496.39009 485.466309 
L 496.587524 485.2276 
L 507.50667 472.025413 
L 509.647829 469.453814 
L 513.076658 465.335683 
L 514.702728 463.938051 
L 516.327656 462.772279 
L 517.991577 461.779215 
L 519.699055 460.820387 
L 523.426138 459.507586 
L 524.094141 459.350857 
L 528.015044 459.019518 
L 529.699698 459.120898 
L 530.719772 459.256895 
L 531.711885 459.524705 
L 533.412896 460.13051 
L 538.079596 461.153818 
L 539.150265 461.388532 
L 539.422259 461.437605 
L 540.517465 461.448637 
L 541.611529 461.426953 
L 542.695892 461.309977 
L 543.748681 461.151345 
L 544.794053 460.910354 
L 545.874422 460.59233 
L 546.846944 460.242351 
L 547.854274 459.766647 
L 548.765551 459.192035 
L 549.594277 458.498544 
L 550.358144 457.698348 
L 550.79752 457.181939 
L 562.149765 443.845657 
L 563.39257 442.377458 
L 577.049349 426.325226 
L 578.320115 424.892976 
L 578.647459 424.544709 
L 579.578897 423.35364 
L 580.427389 422.511923 
L 582.032552 420.919576 
L 582.576351 420.408493 
L 582.744112 420.212391 
L 588.099738 413.941114 
L 587.453038 413.614911 
L 590.473127 410.61974 
L 590.886634 410.175039 
L 591.888638 409.490297 
L 592.926782 408.709312 
L 594.74534 407.391756 
L 595.020378 407.223805 
L 595.816009 406.792037 
L 597.60052 405.760932 
L 598.130814 405.48209 
L 598.532338 405.270961 
L 598.793301 405.144665 
L 599.059779 405.039291 
L 599.326067 404.936009 
L 601.114383 404.306237 
L 602.907453 403.729914 
L 604.705849 403.174513 
L 606.504055 402.621014 
L 608.318429 402.124957 
L 610.13984 401.659333 
L 611.964865 401.201507 
L 613.802253 400.789521 
L 614.089845 400.762512 
L 614.385044 400.749198 
L 614.679483 400.768028 
L 622.636364 402.031185 
" clip-path="url(#p15fa89dd95)" style="fill: #d3d3d3"/>
   </g>
   <g id="PatchCollection_2">
    <path d="M 185.745233 355.037633 
L 185.745233 354.847427 
L 185.555027 354.847427 
L 185.555027 355.037633 
L 185.745233 355.037633 
" clip-path="url(#p15fa89dd95)" style="fill: #ff0000; fill-opacity: 0.7; stroke: #000000; stroke-opacity: 0.7; stroke-width: 0.5"/>
    <path d="M 512.278493 446.949198 
L 512.278493 446.758992 
L 512.088288 446.758992 
L 512.088288 446.949198 
L 512.278493 446.949198 
" clip-path="url(#p15fa89dd95)" style="fill: #ff0000; fill-opacity: 0.7; stroke: #000000; stroke-opacity: 0.7; stroke-width: 0.5"/>
    <path d="M 318.153432 300.703447 
L 318.153432 300.513241 
L 317.963226 300.513241 
L 317.963226 300.703447 
L 318.153432 300.703447 
" clip-path="url(#p15fa89dd95)" style="fill: #ff0000; fill-opacity: 0.7; stroke: #000000; stroke-opacity: 0.7; stroke-width: 0.5"/>
    <path d="M 493.6035 345.066293 
L 493.6035 344.876088 
L 493.413294 344.876088 
L 493.413294 345.066293 
L 493.6035 345.066293 
" clip-path="url(#p15fa89dd95)" style="fill: #ff0000; fill-opacity: 0.7; stroke: #000000; stroke-opacity: 0.7; stroke-width: 0.5"/>
    <path d="M 465.602955 317.982095 
L 465.602955 317.791889 
L 465.412749 317.791889 
L 465.412749 317.982095 
L 465.602955 317.982095 
" clip-path="url(#p15fa89dd95)" style="fill: #ff0000; fill-opacity: 0.7; stroke: #000000; stroke-opacity: 0.7; stroke-width: 0.5"/>
    <path d="M 373.687041 434.789842 
L 373.687041 434.599636 
L 373.496835 434.599636 
L 373.496835 434.789842 
L 373.687041 434.789842 
" clip-path="url(#p15fa89dd95)" style="fill: #ff0000; fill-opacity: 0.7; stroke: #000000; stroke-opacity: 0.7; stroke-width: 0.5"/>
    <path d="M 340.002793 308.681968 
L 340.002793 308.491762 
L 339.812587 308.491762 
L 339.812587 308.681968 
L 340.002793 308.681968 
" clip-path="url(#p15fa89dd95)" style="fill: #ff0000; fill-opacity: 0.7; stroke: #000000; stroke-opacity: 0.7; stroke-width: 0.5"/>
    <path d="M 369.628861 377.772875 
L 369.628861 377.582669 
L 369.438655 377.582669 
L 369.438655 377.772875 
L 369.628861 377.772875 
" clip-path="url(#p15fa89dd95)" style="fill: #ff0000; fill-opacity: 0.7; stroke: #000000; stroke-opacity: 0.7; stroke-width: 0.5"/>
    <path d="M 336.605746 412.180931 
L 336.605746 411.990725 
L 336.41554 411.990725 
L 336.41554 412.180931 
L 336.605746 412.180931 
" clip-path="url(#p15fa89dd95)" style="fill: #ff0000; fill-opacity: 0.7; stroke: #000000; stroke-opacity: 0.7; stroke-width: 0.5"/>
    <path d="M 210.955915 298.508708 
L 210.955915 298.318502 
L 210.76571 298.318502 
L 210.76571 298.508708 
L 210.955915 298.508708 
" clip-path="url(#p15fa89dd95)" style="fill: #ff0000; fill-opacity: 0.7; stroke: #000000; stroke-opacity: 0.7; stroke-width: 0.5"/>
    <path d="M 281.59913 250.757547 
L 281.59913 250.567341 
L 281.408924 250.567341 
L 281.408924 250.757547 
L 281.59913 250.757547 
" clip-path="url(#p15fa89dd95)" style="fill: #ff0000; fill-opacity: 0.7; stroke: #000000; stroke-opacity: 0.7; stroke-width: 0.5"/>
    <path d="M 157.042139 302.906856 
L 157.042139 302.71665 
L 156.851933 302.71665 
L 156.851933 302.906856 
L 157.042139 302.906856 
" clip-path="url(#p15fa89dd95)" style="fill: #ff0000; fill-opacity: 0.7; stroke: #000000; stroke-opacity: 0.7; stroke-width: 0.5"/>
    <path d="M 493.938927 362.701267 
L 493.938927 362.511062 
L 493.748722 362.511062 
L 493.748722 362.701267 
L 493.938927 362.701267 
" clip-path="url(#p15fa89dd95)" style="fill: #ff0000; fill-opacity: 0.7; stroke: #000000; stroke-opacity: 0.7; stroke-width: 0.5"/>
    <path d="M 318.908817 349.832129 
L 318.908817 349.641923 
L 318.718612 349.641923 
L 318.718612 349.832129 
L 318.908817 349.832129 
" clip-path="url(#p15fa89dd95)" style="fill: #ff0000; fill-opacity: 0.7; stroke: #000000; stroke-opacity: 0.7; stroke-width: 0.5"/>
    <path d="M 209.034732 390.605989 
L 209.034732 390.415783 
L 208.844526 390.415783 
L 208.844526 390.605989 
L 209.034732 390.605989 
" clip-path="url(#p15fa89dd95)" style="fill: #ff0000; fill-opacity: 0.7; stroke: #000000; stroke-opacity: 0.7; stroke-width: 0.5"/>
    <path d="M 500.576318 352.502713 
L 500.576318 352.312508 
L 500.386113 352.312508 
L 500.386113 352.502713 
L 500.576318 352.502713 
" clip-path="url(#p15fa89dd95)" style="fill: #ff0000; fill-opacity: 0.7; stroke: #000000; stroke-opacity: 0.7; stroke-width: 0.5"/>
    <path d="M 234.16674 343.892522 
L 234.16674 343.702316 
L 233.976534 343.702316 
L 233.976534 343.892522 
L 234.16674 343.892522 
" clip-path="url(#p15fa89dd95)" style="fill: #ff0000; fill-opacity: 0.7; stroke: #000000; stroke-opacity: 0.7; stroke-width: 0.5"/>
    <path d="M 493.938927 362.701267 
L 493.938927 362.511062 
L 493.748722 362.511062 
L 493.748722 362.701267 
L 493.938927 362.701267 
" clip-path="url(#p15fa89dd95)" style="fill: #ff0000; fill-opacity: 0.7; stroke: #000000; stroke-opacity: 0.7; stroke-width: 0.5"/>
    <path d="M 478.742572 331.855211 
L 478.742572 331.665005 
L 478.552366 331.665005 
L 478.552366 331.855211 
L 478.742572 331.855211 
" clip-path="url(#p15fa89dd95)" style="fill: #ff0000; fill-opacity: 0.7; stroke: #000000; stroke-opacity: 0.7; stroke-width: 0.5"/>
    <path d="M 488.458595 388.784572 
L 488.458595 388.594366 
L 488.26839 388.594366 
L 488.26839 388.784572 
L 488.458595 388.784572 
" clip-path="url(#p15fa89dd95)" style="fill: #ff0000; fill-opacity: 0.7; stroke: #000000; stroke-opacity: 0.7; stroke-width: 0.5"/>
    <path d="M 471.122522 370.597299 
L 471.122522 370.407093 
L 470.932316 370.407093 
L 470.932316 370.597299 
L 471.122522 370.597299 
" clip-path="url(#p15fa89dd95)" style="fill: #ff0000; fill-opacity: 0.7; stroke: #000000; stroke-opacity: 0.7; stroke-width: 0.5"/>
    <path d="M 279.949088 365.059926 
L 279.949088 364.86972 
L 279.758882 364.86972 
L 279.758882 365.059926 
L 279.949088 365.059926 
" clip-path="url(#p15fa89dd95)" style="fill: #ff0000; fill-opacity: 0.7; stroke: #000000; stroke-opacity: 0.7; stroke-width: 0.5"/>
    <path d="M 498.186416 356.175135 
L 498.186416 355.984929 
L 497.99621 355.984929 
L 497.99621 356.175135 
L 498.186416 356.175135 
" clip-path="url(#p15fa89dd95)" style="fill: #ff0000; fill-opacity: 0.7; stroke: #000000; stroke-opacity: 0.7; stroke-width: 0.5"/>
    <path d="M 223.704944 284.79033 
L 223.704944 284.600124 
L 223.514738 284.600124 
L 223.514738 284.79033 
L 223.704944 284.79033 
" clip-path="url(#p15fa89dd95)" style="fill: #ff0000; fill-opacity: 0.7; stroke: #000000; stroke-opacity: 0.7; stroke-width: 0.5"/>
    <path d="M 296.807537 354.163578 
L 296.807537 353.973372 
L 296.617332 353.973372 
L 296.617332 354.163578 
L 296.807537 354.163578 
" clip-path="url(#p15fa89dd95)" style="fill: #ff0000; fill-opacity: 0.7; stroke: #000000; stroke-opacity: 0.7; stroke-width: 0.5"/>
    <path d="M 353.560924 303.772636 
L 353.560924 303.582431 
L 353.370718 303.582431 
L 353.370718 303.772636 
L 353.560924 303.772636 
" clip-path="url(#p15fa89dd95)" style="fill: #ff0000; fill-opacity: 0.7; stroke: #000000; stroke-opacity: 0.7; stroke-width: 0.5"/>
    <path d="M 298.8313 364.591717 
L 298.8313 364.401511 
L 298.641094 364.401511 
L 298.641094 364.591717 
L 298.8313 364.591717 
" clip-path="url(#p15fa89dd95)" style="fill: #ff0000; fill-opacity: 0.7; stroke: #000000; stroke-opacity: 0.7; stroke-width: 0.5"/>
    <path d="M 186.853102 303.060019 
L 186.853102 302.869814 
L 186.662896 302.869814 
L 186.662896 303.060019 
L 186.853102 303.060019 
" clip-path="url(#p15fa89dd95)" style="fill: #ff0000; fill-opacity: 0.7; stroke: #000000; stroke-opacity: 0.7; stroke-width: 0.5"/>
    <path d="M 312.485122 216.30387 
L 312.485122 216.113664 
L 312.294916 216.113664 
L 312.294916 216.30387 
L 312.485122 216.30387 
" clip-path="url(#p15fa89dd95)" style="fill: #ff0000; fill-opacity: 0.7; stroke: #000000; stroke-opacity: 0.7; stroke-width: 0.5"/>
    <path d="M 165.973522 341.305656 
L 165.973522 341.11545 
L 165.783316 341.11545 
L 165.783316 341.305656 
L 165.973522 341.305656 
" clip-path="url(#p15fa89dd95)" style="fill: #ff0000; fill-opacity: 0.7; stroke: #000000; stroke-opacity: 0.7; stroke-width: 0.5"/>
    <path d="M 305.801738 380.065556 
L 305.801738 379.87535 
L 305.611532 379.87535 
L 305.611532 380.065556 
L 305.801738 380.065556 
" clip-path="url(#p15fa89dd95)" style="fill: #ff0000; fill-opacity: 0.7; stroke: #000000; stroke-opacity: 0.7; stroke-width: 0.5"/>
    <path d="M 349.072048 301.865174 
L 349.072048 301.674968 
L 348.881842 301.674968 
L 348.881842 301.865174 
L 349.072048 301.865174 
" clip-path="url(#p15fa89dd95)" style="fill: #ff0000; fill-opacity: 0.7; stroke: #000000; stroke-opacity: 0.7; stroke-width: 0.5"/>
    <path d="M 415.674208 356.778123 
L 415.674208 356.587918 
L 415.484003 356.587918 
L 415.484003 356.778123 
L 415.674208 356.778123 
" clip-path="url(#p15fa89dd95)" style="fill: #ff0000; fill-opacity: 0.7; stroke: #000000; stroke-opacity: 0.7; stroke-width: 0.5"/>
    <path d="M 344.991808 308.051778 
L 344.991808 307.861572 
L 344.801602 307.861572 
L 344.801602 308.051778 
L 344.991808 308.051778 
" clip-path="url(#p15fa89dd95)" style="fill: #ff0000; fill-opacity: 0.7; stroke: #000000; stroke-opacity: 0.7; stroke-width: 0.5"/>
    <path d="M 412.720929 478.361928 
L 412.720929 478.171722 
L 412.530723 478.171722 
L 412.530723 478.361928 
L 412.720929 478.361928 
" clip-path="url(#p15fa89dd95)" style="fill: #ff0000; fill-opacity: 0.7; stroke: #000000; stroke-opacity: 0.7; stroke-width: 0.5"/>
    <path d="M 438.589461 347.589124 
L 438.589461 347.398918 
L 438.399255 347.398918 
L 438.399255 347.589124 
L 438.589461 347.589124 
" clip-path="url(#p15fa89dd95)" style="fill: #ff0000; fill-opacity: 0.7; stroke: #000000; stroke-opacity: 0.7; stroke-width: 0.5"/>
    <path d="M 158.268117 347.55089 
L 158.268117 347.360684 
L 158.077911 347.360684 
L 158.077911 347.55089 
L 158.268117 347.55089 
" clip-path="url(#p15fa89dd95)" style="fill: #ff0000; fill-opacity: 0.7; stroke: #000000; stroke-opacity: 0.7; stroke-width: 0.5"/>
    <path d="M 289.239057 370.350773 
L 289.239057 370.160567 
L 289.048851 370.160567 
L 289.048851 370.350773 
L 289.239057 370.350773 
" clip-path="url(#p15fa89dd95)" style="fill: #ff0000; fill-opacity: 0.7; stroke: #000000; stroke-opacity: 0.7; stroke-width: 0.5"/>
    <path d="M 178.319983 321.500145 
L 178.319983 321.30994 
L 178.129778 321.30994 
L 178.129778 321.500145 
L 178.319983 321.500145 
" clip-path="url(#p15fa89dd95)" style="fill: #ff0000; fill-opacity: 0.7; stroke: #000000; stroke-opacity: 0.7; stroke-width: 0.5"/>
    <path d="M 437.258018 352.325445 
L 437.258018 352.135239 
L 437.067812 352.135239 
L 437.067812 352.325445 
L 437.258018 352.325445 
" clip-path="url(#p15fa89dd95)" style="fill: #ff0000; fill-opacity: 0.7; stroke: #000000; stroke-opacity: 0.7; stroke-width: 0.5"/>
    <path d="M 185.311904 306.48726 
L 185.311904 306.297055 
L 185.121698 306.297055 
L 185.121698 306.48726 
L 185.311904 306.48726 
" clip-path="url(#p15fa89dd95)" style="fill: #ff0000; fill-opacity: 0.7; stroke: #000000; stroke-opacity: 0.7; stroke-width: 0.5"/>
    <path d="M 158.2681 347.551059 
L 158.2681 347.360853 
L 158.077894 347.360853 
L 158.077894 347.551059 
L 158.2681 347.551059 
" clip-path="url(#p15fa89dd95)" style="fill: #ff0000; fill-opacity: 0.7; stroke: #000000; stroke-opacity: 0.7; stroke-width: 0.5"/>
    <path d="M 309.29943 325.714007 
L 309.29943 325.523801 
L 309.109224 325.523801 
L 309.109224 325.714007 
L 309.29943 325.714007 
" clip-path="url(#p15fa89dd95)" style="fill: #ff0000; fill-opacity: 0.7; stroke: #000000; stroke-opacity: 0.7; stroke-width: 0.5"/>
    <path d="M 283.253013 348.270841 
L 283.253013 348.080635 
L 283.062807 348.080635 
L 283.062807 348.270841 
L 283.253013 348.270841 
" clip-path="url(#p15fa89dd95)" style="fill: #ff0000; fill-opacity: 0.7; stroke: #000000; stroke-opacity: 0.7; stroke-width: 0.5"/>
    <path d="M 190.185268 318.694959 
L 190.185268 318.504753 
L 189.995063 318.504753 
L 189.995063 318.694959 
L 190.185268 318.694959 
" clip-path="url(#p15fa89dd95)" style="fill: #ff0000; fill-opacity: 0.7; stroke: #000000; stroke-opacity: 0.7; stroke-width: 0.5"/>
    <path d="M 221.897146 424.669798 
L 221.897146 424.479592 
L 221.70694 424.479592 
L 221.70694 424.669798 
L 221.897146 424.669798 
" clip-path="url(#p15fa89dd95)" style="fill: #ff0000; fill-opacity: 0.7; stroke: #000000; stroke-opacity: 0.7; stroke-width: 0.5"/>
    <path d="M 165.973522 341.305656 
L 165.973522 341.11545 
L 165.783316 341.11545 
L 165.783316 341.305656 
L 165.973522 341.305656 
" clip-path="url(#p15fa89dd95)" style="fill: #ff0000; fill-opacity: 0.7; stroke: #000000; stroke-opacity: 0.7; stroke-width: 0.5"/>
    <path d="M 395.880448 478.468496 
L 395.880448 478.27829 
L 395.690242 478.27829 
L 395.690242 478.468496 
L 395.880448 478.468496 
" clip-path="url(#p15fa89dd95)" style="fill: #ff0000; fill-opacity: 0.7; stroke: #000000; stroke-opacity: 0.7; stroke-width: 0.5"/>
    <path d="M 182.052786 309.645296 
L 182.052786 309.45509 
L 181.86258 309.45509 
L 181.86258 309.645296 
L 182.052786 309.645296 
" clip-path="url(#p15fa89dd95)" style="fill: #ff0000; fill-opacity: 0.7; stroke: #000000; stroke-opacity: 0.7; stroke-width: 0.5"/>
    <path d="M 182.304668 324.484142 
L 182.304668 324.293936 
L 182.114462 324.293936 
L 182.114462 324.484142 
L 182.304668 324.484142 
" clip-path="url(#p15fa89dd95)" style="fill: #ff0000; fill-opacity: 0.7; stroke: #000000; stroke-opacity: 0.7; stroke-width: 0.5"/>
    <path d="M 501.804136 339.54471 
L 501.804136 339.354504 
L 501.61393 339.354504 
L 501.61393 339.54471 
L 501.804136 339.54471 
" clip-path="url(#p15fa89dd95)" style="fill: #ff0000; fill-opacity: 0.7; stroke: #000000; stroke-opacity: 0.7; stroke-width: 0.5"/>
    <path d="M 344.991808 308.051778 
L 344.991808 307.861572 
L 344.801602 307.861572 
L 344.801602 308.051778 
L 344.991808 308.051778 
" clip-path="url(#p15fa89dd95)" style="fill: #ff0000; fill-opacity: 0.7; stroke: #000000; stroke-opacity: 0.7; stroke-width: 0.5"/>
    <path d="M 363.769529 462.08342 
L 363.769529 461.893215 
L 363.579323 461.893215 
L 363.579323 462.08342 
L 363.769529 462.08342 
" clip-path="url(#p15fa89dd95)" style="fill: #ff0000; fill-opacity: 0.7; stroke: #000000; stroke-opacity: 0.7; stroke-width: 0.5"/>
    <path d="M 492.800295 355.301337 
L 492.800295 355.111132 
L 492.61009 355.111132 
L 492.61009 355.301337 
L 492.800295 355.301337 
" clip-path="url(#p15fa89dd95)" style="fill: #ff0000; fill-opacity: 0.7; stroke: #000000; stroke-opacity: 0.7; stroke-width: 0.5"/>
    <path d="M 207.85181 327.119943 
L 207.85181 326.929737 
L 207.661604 326.929737 
L 207.661604 327.119943 
L 207.85181 327.119943 
" clip-path="url(#p15fa89dd95)" style="fill: #ff0000; fill-opacity: 0.7; stroke: #000000; stroke-opacity: 0.7; stroke-width: 0.5"/>
    <path d="M 474.036097 316.039085 
L 474.036097 315.84888 
L 473.845891 315.84888 
L 473.845891 316.039085 
L 474.036097 316.039085 
" clip-path="url(#p15fa89dd95)" style="fill: #ff0000; fill-opacity: 0.7; stroke: #000000; stroke-opacity: 0.7; stroke-width: 0.5"/>
    <path d="M 448.980442 329.048204 
L 448.980442 328.857998 
L 448.790236 328.857998 
L 448.790236 329.048204 
L 448.980442 329.048204 
" clip-path="url(#p15fa89dd95)" style="fill: #ff0000; fill-opacity: 0.7; stroke: #000000; stroke-opacity: 0.7; stroke-width: 0.5"/>
    <path d="M 302.671091 353.745437 
L 302.671091 353.555231 
L 302.480885 353.555231 
L 302.480885 353.745437 
L 302.671091 353.745437 
" clip-path="url(#p15fa89dd95)" style="fill: #ff0000; fill-opacity: 0.7; stroke: #000000; stroke-opacity: 0.7; stroke-width: 0.5"/>
    <path d="M 160.829546 299.342644 
L 160.829546 299.152438 
L 160.63934 299.152438 
L 160.63934 299.342644 
L 160.829546 299.342644 
" clip-path="url(#p15fa89dd95)" style="fill: #ff0000; fill-opacity: 0.7; stroke: #000000; stroke-opacity: 0.7; stroke-width: 0.5"/>
    <path d="M 341.213859 400.765797 
L 341.213859 400.575591 
L 341.023653 400.575591 
L 341.023653 400.765797 
L 341.213859 400.765797 
" clip-path="url(#p15fa89dd95)" style="fill: #ff0000; fill-opacity: 0.7; stroke: #000000; stroke-opacity: 0.7; stroke-width: 0.5"/>
    <path d="M 535.304872 372.346389 
L 535.304872 372.156183 
L 535.114666 372.156183 
L 535.114666 372.346389 
L 535.304872 372.346389 
" clip-path="url(#p15fa89dd95)" style="fill: #ff0000; fill-opacity: 0.7; stroke: #000000; stroke-opacity: 0.7; stroke-width: 0.5"/>
    <path d="M 445.480115 358.314212 
L 445.480115 358.124007 
L 445.289909 358.124007 
L 445.289909 358.314212 
L 445.480115 358.314212 
" clip-path="url(#p15fa89dd95)" style="fill: #ff0000; fill-opacity: 0.7; stroke: #000000; stroke-opacity: 0.7; stroke-width: 0.5"/>
    <path d="M 238.607779 317.905132 
L 238.607779 317.714927 
L 238.417573 317.714927 
L 238.417573 317.905132 
L 238.607779 317.905132 
" clip-path="url(#p15fa89dd95)" style="fill: #ff0000; fill-opacity: 0.7; stroke: #000000; stroke-opacity: 0.7; stroke-width: 0.5"/>
    <path d="M 306.176478 460.469893 
L 306.176478 460.279687 
L 305.986272 460.279687 
L 305.986272 460.469893 
L 306.176478 460.469893 
" clip-path="url(#p15fa89dd95)" style="fill: #ff0000; fill-opacity: 0.7; stroke: #000000; stroke-opacity: 0.7; stroke-width: 0.5"/>
    <path d="M 535.305082 372.346224 
L 535.305082 372.156018 
L 535.114877 372.156018 
L 535.114877 372.346224 
L 535.305082 372.346224 
" clip-path="url(#p15fa89dd95)" style="fill: #ff0000; fill-opacity: 0.7; stroke: #000000; stroke-opacity: 0.7; stroke-width: 0.5"/>
    <path d="M 483.712824 379.48812 
L 483.712824 379.297914 
L 483.522618 379.297914 
L 483.522618 379.48812 
L 483.712824 379.48812 
" clip-path="url(#p15fa89dd95)" style="fill: #ff0000; fill-opacity: 0.7; stroke: #000000; stroke-opacity: 0.7; stroke-width: 0.5"/>
    <path d="M 198.135421 289.966345 
L 198.135421 289.776139 
L 197.945216 289.776139 
L 197.945216 289.966345 
L 198.135421 289.966345 
" clip-path="url(#p15fa89dd95)" style="fill: #ff0000; fill-opacity: 0.7; stroke: #000000; stroke-opacity: 0.7; stroke-width: 0.5"/>
    <path d="M 207.052491 382.539983 
L 207.052491 382.349777 
L 206.862285 382.349777 
L 206.862285 382.539983 
L 207.052491 382.539983 
" clip-path="url(#p15fa89dd95)" style="fill: #ff0000; fill-opacity: 0.7; stroke: #000000; stroke-opacity: 0.7; stroke-width: 0.5"/>
    <path d="M 360.115648 460.223639 
L 360.115648 460.033433 
L 359.925443 460.033433 
L 359.925443 460.223639 
L 360.115648 460.223639 
" clip-path="url(#p15fa89dd95)" style="fill: #ff0000; fill-opacity: 0.7; stroke: #000000; stroke-opacity: 0.7; stroke-width: 0.5"/>
    <path d="M 493.811732 322.165284 
L 493.811732 321.975078 
L 493.621526 321.975078 
L 493.621526 322.165284 
L 493.811732 322.165284 
" clip-path="url(#p15fa89dd95)" style="fill: #ff0000; fill-opacity: 0.7; stroke: #000000; stroke-opacity: 0.7; stroke-width: 0.5"/>
    <path d="M 302.218837 430.756773 
L 302.218837 430.566567 
L 302.028631 430.566567 
L 302.028631 430.756773 
L 302.218837 430.756773 
" clip-path="url(#p15fa89dd95)" style="fill: #ff0000; fill-opacity: 0.7; stroke: #000000; stroke-opacity: 0.7; stroke-width: 0.5"/>
    <path d="M 153.989205 312.327866 
L 153.989205 312.137661 
L 153.798999 312.137661 
L 153.798999 312.327866 
L 153.989205 312.327866 
" clip-path="url(#p15fa89dd95)" style="fill: #ff0000; fill-opacity: 0.7; stroke: #000000; stroke-opacity: 0.7; stroke-width: 0.5"/>
    <path d="M 464.268984 399.735094 
L 464.268984 399.544889 
L 464.078779 399.544889 
L 464.078779 399.735094 
L 464.268984 399.735094 
" clip-path="url(#p15fa89dd95)" style="fill: #ff0000; fill-opacity: 0.7; stroke: #000000; stroke-opacity: 0.7; stroke-width: 0.5"/>
    <path d="M 363.160109 453.267489 
L 363.160109 453.077284 
L 362.969903 453.077284 
L 362.969903 453.267489 
L 363.160109 453.267489 
" clip-path="url(#p15fa89dd95)" style="fill: #ff0000; fill-opacity: 0.7; stroke: #000000; stroke-opacity: 0.7; stroke-width: 0.5"/>
    <path d="M 305.053443 309.128394 
L 305.053443 308.938188 
L 304.863238 308.938188 
L 304.863238 309.128394 
L 305.053443 309.128394 
" clip-path="url(#p15fa89dd95)" style="fill: #ff0000; fill-opacity: 0.7; stroke: #000000; stroke-opacity: 0.7; stroke-width: 0.5"/>
    <path d="M 492.800493 355.301172 
L 492.800493 355.110967 
L 492.610287 355.110967 
L 492.610287 355.301172 
L 492.800493 355.301172 
" clip-path="url(#p15fa89dd95)" style="fill: #ff0000; fill-opacity: 0.7; stroke: #000000; stroke-opacity: 0.7; stroke-width: 0.5"/>
    <path d="M 468.628334 346.884899 
L 468.628334 346.694693 
L 468.438128 346.694693 
L 468.438128 346.884899 
L 468.628334 346.884899 
" clip-path="url(#p15fa89dd95)" style="fill: #ff0000; fill-opacity: 0.7; stroke: #000000; stroke-opacity: 0.7; stroke-width: 0.5"/>
    <path d="M 435.078732 332.056424 
L 435.078732 331.866218 
L 434.888526 331.866218 
L 434.888526 332.056424 
L 435.078732 332.056424 
" clip-path="url(#p15fa89dd95)" style="fill: #ff0000; fill-opacity: 0.7; stroke: #000000; stroke-opacity: 0.7; stroke-width: 0.5"/>
    <path d="M 154.883955 344.8543 
L 154.883955 344.664095 
L 154.693749 344.664095 
L 154.693749 344.8543 
L 154.883955 344.8543 
" clip-path="url(#p15fa89dd95)" style="fill: #ff0000; fill-opacity: 0.7; stroke: #000000; stroke-opacity: 0.7; stroke-width: 0.5"/>
    <path d="M 262.297766 401.884159 
L 262.297766 401.693953 
L 262.107561 401.693953 
L 262.107561 401.884159 
L 262.297766 401.884159 
" clip-path="url(#p15fa89dd95)" style="fill: #ff0000; fill-opacity: 0.7; stroke: #000000; stroke-opacity: 0.7; stroke-width: 0.5"/>
    <path d="M 450.198752 361.644968 
L 450.198752 361.454762 
L 450.008546 361.454762 
L 450.008546 361.644968 
L 450.198752 361.644968 
" clip-path="url(#p15fa89dd95)" style="fill: #ff0000; fill-opacity: 0.7; stroke: #000000; stroke-opacity: 0.7; stroke-width: 0.5"/>
    <path d="M 158.268117 347.55089 
L 158.268117 347.360684 
L 158.077911 347.360684 
L 158.077911 347.55089 
L 158.268117 347.55089 
" clip-path="url(#p15fa89dd95)" style="fill: #ff0000; fill-opacity: 0.7; stroke: #000000; stroke-opacity: 0.7; stroke-width: 0.5"/>
    <path d="M 169.646203 336.669397 
L 169.646203 336.479191 
L 169.455997 336.479191 
L 169.455997 336.669397 
L 169.646203 336.669397 
" clip-path="url(#p15fa89dd95)" style="fill: #ff0000; fill-opacity: 0.7; stroke: #000000; stroke-opacity: 0.7; stroke-width: 0.5"/>
    <path d="M 159.676996 344.617746 
L 159.676996 344.42754 
L 159.48679 344.42754 
L 159.48679 344.617746 
L 159.676996 344.617746 
" clip-path="url(#p15fa89dd95)" style="fill: #ff0000; fill-opacity: 0.7; stroke: #000000; stroke-opacity: 0.7; stroke-width: 0.5"/>
    <path d="M 455.423863 308.740082 
L 455.423863 308.549877 
L 455.233657 308.549877 
L 455.233657 308.740082 
L 455.423863 308.740082 
" clip-path="url(#p15fa89dd95)" style="fill: #ff0000; fill-opacity: 0.7; stroke: #000000; stroke-opacity: 0.7; stroke-width: 0.5"/>
    <path d="M 206.838162 321.352577 
L 206.838162 321.162371 
L 206.647956 321.162371 
L 206.647956 321.352577 
L 206.838162 321.352577 
" clip-path="url(#p15fa89dd95)" style="fill: #ff0000; fill-opacity: 0.7; stroke: #000000; stroke-opacity: 0.7; stroke-width: 0.5"/>
    <path d="M 322.919712 378.673337 
L 322.919712 378.483131 
L 322.729506 378.483131 
L 322.729506 378.673337 
L 322.919712 378.673337 
" clip-path="url(#p15fa89dd95)" style="fill: #ff0000; fill-opacity: 0.7; stroke: #000000; stroke-opacity: 0.7; stroke-width: 0.5"/>
    <path d="M 349.072065 301.864984 
L 349.072065 301.674778 
L 348.881859 301.674778 
L 348.881859 301.864984 
L 349.072065 301.864984 
" clip-path="url(#p15fa89dd95)" style="fill: #ff0000; fill-opacity: 0.7; stroke: #000000; stroke-opacity: 0.7; stroke-width: 0.5"/>
    <path d="M 179.712756 375.871683 
L 179.712756 375.681477 
L 179.52255 375.681477 
L 179.52255 375.871683 
L 179.712756 375.871683 
" clip-path="url(#p15fa89dd95)" style="fill: #ff0000; fill-opacity: 0.7; stroke: #000000; stroke-opacity: 0.7; stroke-width: 0.5"/>
    <path d="M 178.29047 321.559079 
L 178.29047 321.368873 
L 178.100265 321.368873 
L 178.100265 321.559079 
L 178.29047 321.559079 
" clip-path="url(#p15fa89dd95)" style="fill: #ff0000; fill-opacity: 0.7; stroke: #000000; stroke-opacity: 0.7; stroke-width: 0.5"/>
    <path d="M 185.953953 395.638455 
L 185.953953 395.448249 
L 185.763748 395.448249 
L 185.763748 395.638455 
L 185.953953 395.638455 
" clip-path="url(#p15fa89dd95)" style="fill: #ff0000; fill-opacity: 0.7; stroke: #000000; stroke-opacity: 0.7; stroke-width: 0.5"/>
    <path d="M 182.052984 309.645131 
L 182.052984 309.454925 
L 181.862778 309.454925 
L 181.862778 309.645131 
L 182.052984 309.645131 
" clip-path="url(#p15fa89dd95)" style="fill: #ff0000; fill-opacity: 0.7; stroke: #000000; stroke-opacity: 0.7; stroke-width: 0.5"/>
    <path d="M 492.800493 355.301172 
L 492.800493 355.110967 
L 492.610287 355.110967 
L 492.610287 355.301172 
L 492.800493 355.301172 
" clip-path="url(#p15fa89dd95)" style="fill: #ff0000; fill-opacity: 0.7; stroke: #000000; stroke-opacity: 0.7; stroke-width: 0.5"/>
    <path d="M 215.286373 364.271168 
L 215.286373 364.080962 
L 215.096167 364.080962 
L 215.096167 364.271168 
L 215.286373 364.271168 
" clip-path="url(#p15fa89dd95)" style="fill: #ff0000; fill-opacity: 0.7; stroke: #000000; stroke-opacity: 0.7; stroke-width: 0.5"/>
    <path d="M 185.74525 355.037443 
L 185.74525 354.847237 
L 185.555044 354.847237 
L 185.555044 355.037443 
L 185.74525 355.037443 
" clip-path="url(#p15fa89dd95)" style="fill: #ff0000; fill-opacity: 0.7; stroke: #000000; stroke-opacity: 0.7; stroke-width: 0.5"/>
    <path d="M 290.146108 354.612478 
L 290.146108 354.422272 
L 289.955903 354.422272 
L 289.955903 354.612478 
L 290.146108 354.612478 
" clip-path="url(#p15fa89dd95)" style="fill: #ff0000; fill-opacity: 0.7; stroke: #000000; stroke-opacity: 0.7; stroke-width: 0.5"/>
    <path d="M 322.919712 378.673337 
L 322.919712 378.483131 
L 322.729506 378.483131 
L 322.729506 378.673337 
L 322.919712 378.673337 
" clip-path="url(#p15fa89dd95)" style="fill: #ff0000; fill-opacity: 0.7; stroke: #000000; stroke-opacity: 0.7; stroke-width: 0.5"/>
    <path d="M 483.074032 370.480651 
L 483.074032 370.290445 
L 482.883826 370.290445 
L 482.883826 370.480651 
L 483.074032 370.480651 
" clip-path="url(#p15fa89dd95)" style="fill: #ff0000; fill-opacity: 0.7; stroke: #000000; stroke-opacity: 0.7; stroke-width: 0.5"/>
    <path d="M 308.313665 457.082034 
L 308.313665 456.891828 
L 308.12346 456.891828 
L 308.12346 457.082034 
L 308.313665 457.082034 
" clip-path="url(#p15fa89dd95)" style="fill: #ff0000; fill-opacity: 0.7; stroke: #000000; stroke-opacity: 0.7; stroke-width: 0.5"/>
    <path d="M 492.800493 355.301172 
L 492.800493 355.110967 
L 492.610287 355.110967 
L 492.610287 355.301172 
L 492.800493 355.301172 
" clip-path="url(#p15fa89dd95)" style="fill: #ff0000; fill-opacity: 0.7; stroke: #000000; stroke-opacity: 0.7; stroke-width: 0.5"/>
    <path d="M 154.883954 344.854322 
L 154.883954 344.664116 
L 154.693748 344.664116 
L 154.693748 344.854322 
L 154.883954 344.854322 
" clip-path="url(#p15fa89dd95)" style="fill: #ff0000; fill-opacity: 0.7; stroke: #000000; stroke-opacity: 0.7; stroke-width: 0.5"/>
    <path d="M 289.239267 370.350587 
L 289.239267 370.160381 
L 289.049061 370.160381 
L 289.049061 370.350587 
L 289.239267 370.350587 
" clip-path="url(#p15fa89dd95)" style="fill: #ff0000; fill-opacity: 0.7; stroke: #000000; stroke-opacity: 0.7; stroke-width: 0.5"/>
    <path d="M 530.379242 376.738602 
L 530.379242 376.548396 
L 530.189036 376.548396 
L 530.189036 376.738602 
L 530.379242 376.738602 
" clip-path="url(#p15fa89dd95)" style="fill: #ff0000; fill-opacity: 0.7; stroke: #000000; stroke-opacity: 0.7; stroke-width: 0.5"/>
    <path d="M 288.190426 339.456157 
L 288.190426 339.265951 
L 288.00022 339.265951 
L 288.00022 339.456157 
L 288.190426 339.456157 
" clip-path="url(#p15fa89dd95)" style="fill: #ff0000; fill-opacity: 0.7; stroke: #000000; stroke-opacity: 0.7; stroke-width: 0.5"/>
    <path d="M 368.981058 417.066736 
L 368.981058 416.87653 
L 368.790852 416.87653 
L 368.790852 417.066736 
L 368.981058 417.066736 
" clip-path="url(#p15fa89dd95)" style="fill: #ff0000; fill-opacity: 0.7; stroke: #000000; stroke-opacity: 0.7; stroke-width: 0.5"/>
    <path d="M 154.883954 344.854322 
L 154.883954 344.664116 
L 154.693748 344.664116 
L 154.693748 344.854322 
L 154.883954 344.854322 
" clip-path="url(#p15fa89dd95)" style="fill: #ff0000; fill-opacity: 0.7; stroke: #000000; stroke-opacity: 0.7; stroke-width: 0.5"/>
    <path d="M 235.584064 324.796842 
L 235.584064 324.606637 
L 235.393858 324.606637 
L 235.393858 324.796842 
L 235.584064 324.796842 
" clip-path="url(#p15fa89dd95)" style="fill: #ff0000; fill-opacity: 0.7; stroke: #000000; stroke-opacity: 0.7; stroke-width: 0.5"/>
    <path d="M 527.930968 374.387961 
L 527.930968 374.197756 
L 527.740762 374.197756 
L 527.740762 374.387961 
L 527.930968 374.387961 
" clip-path="url(#p15fa89dd95)" style="fill: #ff0000; fill-opacity: 0.7; stroke: #000000; stroke-opacity: 0.7; stroke-width: 0.5"/>
    <path d="M 204.111634 276.992103 
L 204.111634 276.801897 
L 203.921428 276.801897 
L 203.921428 276.992103 
L 204.111634 276.992103 
" clip-path="url(#p15fa89dd95)" style="fill: #ff0000; fill-opacity: 0.7; stroke: #000000; stroke-opacity: 0.7; stroke-width: 0.5"/>
    <path d="M 154.883954 344.854322 
L 154.883954 344.664116 
L 154.693748 344.664116 
L 154.693748 344.854322 
L 154.883954 344.854322 
" clip-path="url(#p15fa89dd95)" style="fill: #ff0000; fill-opacity: 0.7; stroke: #000000; stroke-opacity: 0.7; stroke-width: 0.5"/>
    <path d="M 462.229427 345.394198 
L 462.229427 345.203992 
L 462.039221 345.203992 
L 462.039221 345.394198 
L 462.229427 345.394198 
" clip-path="url(#p15fa89dd95)" style="fill: #ff0000; fill-opacity: 0.7; stroke: #000000; stroke-opacity: 0.7; stroke-width: 0.5"/>
    <path d="M 316.803791 267.434026 
L 316.803791 267.24382 
L 316.613585 267.24382 
L 316.613585 267.434026 
L 316.803791 267.434026 
" clip-path="url(#p15fa89dd95)" style="fill: #ff0000; fill-opacity: 0.7; stroke: #000000; stroke-opacity: 0.7; stroke-width: 0.5"/>
    <path d="M 520.201461 358.301909 
L 520.201461 358.111703 
L 520.011256 358.111703 
L 520.011256 358.301909 
L 520.201461 358.301909 
" clip-path="url(#p15fa89dd95)" style="fill: #ff0000; fill-opacity: 0.7; stroke: #000000; stroke-opacity: 0.7; stroke-width: 0.5"/>
    <path d="M 297.279405 375.068241 
L 297.279405 374.878035 
L 297.089199 374.878035 
L 297.089199 375.068241 
L 297.279405 375.068241 
" clip-path="url(#p15fa89dd95)" style="fill: #ff0000; fill-opacity: 0.7; stroke: #000000; stroke-opacity: 0.7; stroke-width: 0.5"/>
    <path d="M 310.213789 454.070089 
L 310.213789 453.879883 
L 310.023583 453.879883 
L 310.023583 454.070089 
L 310.213789 454.070089 
" clip-path="url(#p15fa89dd95)" style="fill: #ff0000; fill-opacity: 0.7; stroke: #000000; stroke-opacity: 0.7; stroke-width: 0.5"/>
    <path d="M 178.29047 321.559079 
L 178.29047 321.368873 
L 178.100265 321.368873 
L 178.100265 321.559079 
L 178.29047 321.559079 
" clip-path="url(#p15fa89dd95)" style="fill: #ff0000; fill-opacity: 0.7; stroke: #000000; stroke-opacity: 0.7; stroke-width: 0.5"/>
    <path d="M 256.531672 398.951409 
L 256.531672 398.761204 
L 256.341466 398.761204 
L 256.341466 398.951409 
L 256.531672 398.951409 
" clip-path="url(#p15fa89dd95)" style="fill: #ff0000; fill-opacity: 0.7; stroke: #000000; stroke-opacity: 0.7; stroke-width: 0.5"/>
    <path d="M 298.83151 364.591553 
L 298.83151 364.401347 
L 298.641304 364.401347 
L 298.641304 364.591553 
L 298.83151 364.591553 
" clip-path="url(#p15fa89dd95)" style="fill: #ff0000; fill-opacity: 0.7; stroke: #000000; stroke-opacity: 0.7; stroke-width: 0.5"/>
    <path d="M 154.883954 344.854322 
L 154.883954 344.664116 
L 154.693748 344.664116 
L 154.693748 344.854322 
L 154.883954 344.854322 
" clip-path="url(#p15fa89dd95)" style="fill: #ff0000; fill-opacity: 0.7; stroke: #000000; stroke-opacity: 0.7; stroke-width: 0.5"/>
    <path d="M 456.294316 354.832689 
L 456.294316 354.642483 
L 456.10411 354.642483 
L 456.10411 354.832689 
L 456.294316 354.832689 
" clip-path="url(#p15fa89dd95)" style="fill: #ff0000; fill-opacity: 0.7; stroke: #000000; stroke-opacity: 0.7; stroke-width: 0.5"/>
    <path d="M 356.372434 299.493885 
L 356.372434 299.303679 
L 356.182228 299.303679 
L 356.182228 299.493885 
L 356.372434 299.493885 
" clip-path="url(#p15fa89dd95)" style="fill: #ff0000; fill-opacity: 0.7; stroke: #000000; stroke-opacity: 0.7; stroke-width: 0.5"/>
    <path d="M 495.939669 350.465125 
L 495.939669 350.274919 
L 495.749464 350.274919 
L 495.749464 350.465125 
L 495.939669 350.465125 
" clip-path="url(#p15fa89dd95)" style="fill: #ff0000; fill-opacity: 0.7; stroke: #000000; stroke-opacity: 0.7; stroke-width: 0.5"/>
    <path d="M 180.956008 315.796644 
L 180.956008 315.606438 
L 180.765802 315.606438 
L 180.765802 315.796644 
L 180.956008 315.796644 
" clip-path="url(#p15fa89dd95)" style="fill: #ff0000; fill-opacity: 0.7; stroke: #000000; stroke-opacity: 0.7; stroke-width: 0.5"/>
    <path d="M 224.287505 329.527994 
L 224.287505 329.337788 
L 224.097299 329.337788 
L 224.097299 329.527994 
L 224.287505 329.527994 
" clip-path="url(#p15fa89dd95)" style="fill: #ff0000; fill-opacity: 0.7; stroke: #000000; stroke-opacity: 0.7; stroke-width: 0.5"/>
    <path d="M 460.119501 417.77325 
L 460.119501 417.583044 
L 459.929295 417.583044 
L 459.929295 417.77325 
L 460.119501 417.77325 
" clip-path="url(#p15fa89dd95)" style="fill: #ff0000; fill-opacity: 0.7; stroke: #000000; stroke-opacity: 0.7; stroke-width: 0.5"/>
    <path d="M 386.452319 427.19063 
L 386.452319 427.000424 
L 386.262113 427.000424 
L 386.262113 427.19063 
L 386.452319 427.19063 
" clip-path="url(#p15fa89dd95)" style="fill: #ff0000; fill-opacity: 0.7; stroke: #000000; stroke-opacity: 0.7; stroke-width: 0.5"/>
    <path d="M 281.355299 355.029837 
L 281.355299 354.839631 
L 281.165093 354.839631 
L 281.165093 355.029837 
L 281.355299 355.029837 
" clip-path="url(#p15fa89dd95)" style="fill: #ff0000; fill-opacity: 0.7; stroke: #000000; stroke-opacity: 0.7; stroke-width: 0.5"/>
    <path d="M 284.422456 346.183647 
L 284.422456 345.993441 
L 284.23225 345.993441 
L 284.23225 346.183647 
L 284.422456 346.183647 
" clip-path="url(#p15fa89dd95)" style="fill: #ff0000; fill-opacity: 0.7; stroke: #000000; stroke-opacity: 0.7; stroke-width: 0.5"/>
    <path d="M 459.821557 415.643726 
L 459.821557 415.45352 
L 459.631352 415.45352 
L 459.631352 415.643726 
L 459.821557 415.643726 
" clip-path="url(#p15fa89dd95)" style="fill: #ff0000; fill-opacity: 0.7; stroke: #000000; stroke-opacity: 0.7; stroke-width: 0.5"/>
    <path d="M 349.072065 301.864984 
L 349.072065 301.674778 
L 348.881859 301.674778 
L 348.881859 301.864984 
L 349.072065 301.864984 
" clip-path="url(#p15fa89dd95)" style="fill: #ff0000; fill-opacity: 0.7; stroke: #000000; stroke-opacity: 0.7; stroke-width: 0.5"/>
    <path d="M 154.883954 344.854322 
L 154.883954 344.664116 
L 154.693748 344.664116 
L 154.693748 344.854322 
L 154.883954 344.854322 
" clip-path="url(#p15fa89dd95)" style="fill: #ff0000; fill-opacity: 0.7; stroke: #000000; stroke-opacity: 0.7; stroke-width: 0.5"/>
    <path d="M 477.125398 374.870588 
L 477.125398 374.680382 
L 476.935192 374.680382 
L 476.935192 374.870588 
L 477.125398 374.870588 
" clip-path="url(#p15fa89dd95)" style="fill: #ff0000; fill-opacity: 0.7; stroke: #000000; stroke-opacity: 0.7; stroke-width: 0.5"/>
    <path d="M 158.268117 347.55089 
L 158.268117 347.360684 
L 158.077911 347.360684 
L 158.077911 347.55089 
L 158.268117 347.55089 
" clip-path="url(#p15fa89dd95)" style="fill: #ff0000; fill-opacity: 0.7; stroke: #000000; stroke-opacity: 0.7; stroke-width: 0.5"/>
    <path d="M 154.883954 344.854322 
L 154.883954 344.664116 
L 154.693748 344.664116 
L 154.693748 344.854322 
L 154.883954 344.854322 
" clip-path="url(#p15fa89dd95)" style="fill: #ff0000; fill-opacity: 0.7; stroke: #000000; stroke-opacity: 0.7; stroke-width: 0.5"/>
    <path d="M 344.305743 331.344108 
L 344.305743 331.153902 
L 344.115537 331.153902 
L 344.115537 331.344108 
L 344.305743 331.344108 
" clip-path="url(#p15fa89dd95)" style="fill: #ff0000; fill-opacity: 0.7; stroke: #000000; stroke-opacity: 0.7; stroke-width: 0.5"/>
    <path d="M 296.807748 354.163392 
L 296.807748 353.973186 
L 296.617542 353.973186 
L 296.617542 354.163392 
L 296.807748 354.163392 
" clip-path="url(#p15fa89dd95)" style="fill: #ff0000; fill-opacity: 0.7; stroke: #000000; stroke-opacity: 0.7; stroke-width: 0.5"/>
    <path d="M 235.584064 324.796842 
L 235.584064 324.606637 
L 235.393858 324.606637 
L 235.393858 324.796842 
L 235.584064 324.796842 
" clip-path="url(#p15fa89dd95)" style="fill: #ff0000; fill-opacity: 0.7; stroke: #000000; stroke-opacity: 0.7; stroke-width: 0.5"/>
    <path d="M 479.468912 385.044601 
L 479.468912 384.854395 
L 479.278706 384.854395 
L 479.278706 385.044601 
L 479.468912 385.044601 
" clip-path="url(#p15fa89dd95)" style="fill: #ff0000; fill-opacity: 0.7; stroke: #000000; stroke-opacity: 0.7; stroke-width: 0.5"/>
    <path d="M 206.838161 321.352619 
L 206.838161 321.162413 
L 206.647956 321.162413 
L 206.647956 321.352619 
L 206.838161 321.352619 
" clip-path="url(#p15fa89dd95)" style="fill: #ff0000; fill-opacity: 0.7; stroke: #000000; stroke-opacity: 0.7; stroke-width: 0.5"/>
    <path d="M 296.807749 354.163371 
L 296.807749 353.973165 
L 296.617543 353.973165 
L 296.617543 354.163371 
L 296.807749 354.163371 
" clip-path="url(#p15fa89dd95)" style="fill: #ff0000; fill-opacity: 0.7; stroke: #000000; stroke-opacity: 0.7; stroke-width: 0.5"/>
    <path d="M 442.806392 356.426444 
L 442.806392 356.236238 
L 442.616186 356.236238 
L 442.616186 356.426444 
L 442.806392 356.426444 
" clip-path="url(#p15fa89dd95)" style="fill: #ff0000; fill-opacity: 0.7; stroke: #000000; stroke-opacity: 0.7; stroke-width: 0.5"/>
    <path d="M 154.883954 344.854322 
L 154.883954 344.664116 
L 154.693748 344.664116 
L 154.693748 344.854322 
L 154.883954 344.854322 
" clip-path="url(#p15fa89dd95)" style="fill: #ff0000; fill-opacity: 0.7; stroke: #000000; stroke-opacity: 0.7; stroke-width: 0.5"/>
    <path d="M 154.883954 344.854322 
L 154.883954 344.664116 
L 154.693748 344.664116 
L 154.693748 344.854322 
L 154.883954 344.854322 
" clip-path="url(#p15fa89dd95)" style="fill: #ff0000; fill-opacity: 0.7; stroke: #000000; stroke-opacity: 0.7; stroke-width: 0.5"/>
    <path d="M 213.996446 330.049925 
L 213.996446 329.85972 
L 213.806241 329.85972 
L 213.806241 330.049925 
L 213.996446 330.049925 
" clip-path="url(#p15fa89dd95)" style="fill: #ff0000; fill-opacity: 0.7; stroke: #000000; stroke-opacity: 0.7; stroke-width: 0.5"/>
    <path d="M 475.896294 426.622372 
L 475.896294 426.432166 
L 475.706088 426.432166 
L 475.706088 426.622372 
L 475.896294 426.622372 
" clip-path="url(#p15fa89dd95)" style="fill: #ff0000; fill-opacity: 0.7; stroke: #000000; stroke-opacity: 0.7; stroke-width: 0.5"/>
    <path d="M 179.529647 330.43251 
L 179.529647 330.242305 
L 179.339441 330.242305 
L 179.339441 330.43251 
L 179.529647 330.43251 
" clip-path="url(#p15fa89dd95)" style="fill: #ff0000; fill-opacity: 0.7; stroke: #000000; stroke-opacity: 0.7; stroke-width: 0.5"/>
    <path d="M 242.962823 343.862855 
L 242.962823 343.672649 
L 242.772617 343.672649 
L 242.772617 343.862855 
L 242.962823 343.862855 
" clip-path="url(#p15fa89dd95)" style="fill: #ff0000; fill-opacity: 0.7; stroke: #000000; stroke-opacity: 0.7; stroke-width: 0.5"/>
    <path d="M 500.498583 352.595772 
L 500.498583 352.405566 
L 500.308377 352.405566 
L 500.308377 352.595772 
L 500.498583 352.595772 
" clip-path="url(#p15fa89dd95)" style="fill: #ff0000; fill-opacity: 0.7; stroke: #000000; stroke-opacity: 0.7; stroke-width: 0.5"/>
    <path d="M 322.922178 277.006079 
L 322.922178 276.815873 
L 322.731972 276.815873 
L 322.731972 277.006079 
L 322.922178 277.006079 
" clip-path="url(#p15fa89dd95)" style="fill: #ff0000; fill-opacity: 0.7; stroke: #000000; stroke-opacity: 0.7; stroke-width: 0.5"/>
    <path d="M 498.186416 356.175135 
L 498.186416 355.984929 
L 497.99621 355.984929 
L 497.99621 356.175135 
L 498.186416 356.175135 
" clip-path="url(#p15fa89dd95)" style="fill: #ff0000; fill-opacity: 0.7; stroke: #000000; stroke-opacity: 0.7; stroke-width: 0.5"/>
    <path d="M 336.32359 283.655677 
L 336.32359 283.465471 
L 336.133384 283.465471 
L 336.133384 283.655677 
L 336.32359 283.655677 
" clip-path="url(#p15fa89dd95)" style="fill: #ff0000; fill-opacity: 0.7; stroke: #000000; stroke-opacity: 0.7; stroke-width: 0.5"/>
    <path d="M 359.158603 297.382207 
L 359.158603 297.192001 
L 358.968397 297.192001 
L 358.968397 297.382207 
L 359.158603 297.382207 
" clip-path="url(#p15fa89dd95)" style="fill: #ff0000; fill-opacity: 0.7; stroke: #000000; stroke-opacity: 0.7; stroke-width: 0.5"/>
    <path d="M 493.810307 322.170883 
L 493.810307 321.980678 
L 493.620101 321.980678 
L 493.620101 322.170883 
L 493.810307 322.170883 
" clip-path="url(#p15fa89dd95)" style="fill: #ff0000; fill-opacity: 0.7; stroke: #000000; stroke-opacity: 0.7; stroke-width: 0.5"/>
    <path d="M 403.070457 482.136313 
L 403.070457 481.946107 
L 402.880251 481.946107 
L 402.880251 482.136313 
L 403.070457 482.136313 
" clip-path="url(#p15fa89dd95)" style="fill: #ff0000; fill-opacity: 0.7; stroke: #000000; stroke-opacity: 0.7; stroke-width: 0.5"/>
    <path d="M 325.40631 380.131759 
L 325.40631 379.941554 
L 325.216104 379.941554 
L 325.216104 380.131759 
L 325.40631 380.131759 
" clip-path="url(#p15fa89dd95)" style="fill: #ff0000; fill-opacity: 0.7; stroke: #000000; stroke-opacity: 0.7; stroke-width: 0.5"/>
    <path d="M 492.821818 355.310754 
L 492.821818 355.120548 
L 492.631612 355.120548 
L 492.631612 355.310754 
L 492.821818 355.310754 
" clip-path="url(#p15fa89dd95)" style="fill: #ff0000; fill-opacity: 0.7; stroke: #000000; stroke-opacity: 0.7; stroke-width: 0.5"/>
    <path d="M 520.68716 370.430588 
L 520.68716 370.240382 
L 520.496954 370.240382 
L 520.496954 370.430588 
L 520.68716 370.430588 
" clip-path="url(#p15fa89dd95)" style="fill: #ff0000; fill-opacity: 0.7; stroke: #000000; stroke-opacity: 0.7; stroke-width: 0.5"/>
    <path d="M 240.049021 335.22384 
L 240.049021 335.033634 
L 239.858815 335.033634 
L 239.858815 335.22384 
L 240.049021 335.22384 
" clip-path="url(#p15fa89dd95)" style="fill: #ff0000; fill-opacity: 0.7; stroke: #000000; stroke-opacity: 0.7; stroke-width: 0.5"/>
    <path d="M 423.614439 492.583619 
L 423.614439 492.393413 
L 423.424234 492.393413 
L 423.424234 492.583619 
L 423.614439 492.583619 
" clip-path="url(#p15fa89dd95)" style="fill: #ff0000; fill-opacity: 0.7; stroke: #000000; stroke-opacity: 0.7; stroke-width: 0.5"/>
    <path d="M 383.460299 326.361508 
L 383.460299 326.171302 
L 383.270093 326.171302 
L 383.270093 326.361508 
L 383.460299 326.361508 
" clip-path="url(#p15fa89dd95)" style="fill: #ff0000; fill-opacity: 0.7; stroke: #000000; stroke-opacity: 0.7; stroke-width: 0.5"/>
    <path d="M 154.883954 344.854322 
L 154.883954 344.664116 
L 154.693748 344.664116 
L 154.693748 344.854322 
L 154.883954 344.854322 
" clip-path="url(#p15fa89dd95)" style="fill: #ff0000; fill-opacity: 0.7; stroke: #000000; stroke-opacity: 0.7; stroke-width: 0.5"/>
    <path d="M 158.268117 347.55089 
L 158.268117 347.360684 
L 158.077911 347.360684 
L 158.077911 347.55089 
L 158.268117 347.55089 
" clip-path="url(#p15fa89dd95)" style="fill: #ff0000; fill-opacity: 0.7; stroke: #000000; stroke-opacity: 0.7; stroke-width: 0.5"/>
    <path d="M 451.035808 363.073292 
L 451.035808 362.883086 
L 450.845602 362.883086 
L 450.845602 363.073292 
L 451.035808 363.073292 
" clip-path="url(#p15fa89dd95)" style="fill: #ff0000; fill-opacity: 0.7; stroke: #000000; stroke-opacity: 0.7; stroke-width: 0.5"/>
    <path d="M 283.25303 348.270651 
L 283.25303 348.080445 
L 283.062824 348.080445 
L 283.062824 348.270651 
L 283.25303 348.270651 
" clip-path="url(#p15fa89dd95)" style="fill: #ff0000; fill-opacity: 0.7; stroke: #000000; stroke-opacity: 0.7; stroke-width: 0.5"/>
    <path d="M 159.676996 344.617746 
L 159.676996 344.42754 
L 159.48679 344.42754 
L 159.48679 344.617746 
L 159.676996 344.617746 
" clip-path="url(#p15fa89dd95)" style="fill: #ff0000; fill-opacity: 0.7; stroke: #000000; stroke-opacity: 0.7; stroke-width: 0.5"/>
    <path d="M 401.071952 472.523771 
L 401.071952 472.333565 
L 400.881746 472.333565 
L 400.881746 472.523771 
L 401.071952 472.523771 
" clip-path="url(#p15fa89dd95)" style="fill: #ff0000; fill-opacity: 0.7; stroke: #000000; stroke-opacity: 0.7; stroke-width: 0.5"/>
    <path d="M 515.695528 354.214903 
L 515.695528 354.024697 
L 515.505323 354.024697 
L 515.505323 354.214903 
L 515.695528 354.214903 
" clip-path="url(#p15fa89dd95)" style="fill: #ff0000; fill-opacity: 0.7; stroke: #000000; stroke-opacity: 0.7; stroke-width: 0.5"/>
    <path d="M 360.11586 460.223432 
L 360.11586 460.033226 
L 359.925654 460.033226 
L 359.925654 460.223432 
L 360.11586 460.223432 
" clip-path="url(#p15fa89dd95)" style="fill: #ff0000; fill-opacity: 0.7; stroke: #000000; stroke-opacity: 0.7; stroke-width: 0.5"/>
    <path d="M 315.590825 388.300479 
L 315.590825 388.110274 
L 315.400619 388.110274 
L 315.400619 388.300479 
L 315.590825 388.300479 
" clip-path="url(#p15fa89dd95)" style="fill: #ff0000; fill-opacity: 0.7; stroke: #000000; stroke-opacity: 0.7; stroke-width: 0.5"/>
    <path d="M 383.4603 326.361466 
L 383.4603 326.17126 
L 383.270094 326.17126 
L 383.270094 326.361466 
L 383.4603 326.361466 
" clip-path="url(#p15fa89dd95)" style="fill: #ff0000; fill-opacity: 0.7; stroke: #000000; stroke-opacity: 0.7; stroke-width: 0.5"/>
    <path d="M 213.070759 385.059746 
L 213.070759 384.86954 
L 212.880553 384.86954 
L 212.880553 385.059746 
L 213.070759 385.059746 
" clip-path="url(#p15fa89dd95)" style="fill: #ff0000; fill-opacity: 0.7; stroke: #000000; stroke-opacity: 0.7; stroke-width: 0.5"/>
    <path d="M 178.213385 333.254181 
L 178.213385 333.063975 
L 178.02318 333.063975 
L 178.02318 333.254181 
L 178.213385 333.254181 
" clip-path="url(#p15fa89dd95)" style="fill: #ff0000; fill-opacity: 0.7; stroke: #000000; stroke-opacity: 0.7; stroke-width: 0.5"/>
    <path d="M 459.821558 415.643705 
L 459.821558 415.453499 
L 459.631352 415.453499 
L 459.631352 415.643705 
L 459.821558 415.643705 
" clip-path="url(#p15fa89dd95)" style="fill: #ff0000; fill-opacity: 0.7; stroke: #000000; stroke-opacity: 0.7; stroke-width: 0.5"/>
    <path d="M 297.279405 375.06822 
L 297.279405 374.878014 
L 297.089199 374.878014 
L 297.089199 375.06822 
L 297.279405 375.06822 
" clip-path="url(#p15fa89dd95)" style="fill: #ff0000; fill-opacity: 0.7; stroke: #000000; stroke-opacity: 0.7; stroke-width: 0.5"/>
    <path d="M 377.109822 356.037856 
L 377.109822 355.84765 
L 376.919616 355.84765 
L 376.919616 356.037856 
L 377.109822 356.037856 
" clip-path="url(#p15fa89dd95)" style="fill: #ff0000; fill-opacity: 0.7; stroke: #000000; stroke-opacity: 0.7; stroke-width: 0.5"/>
    <path d="M 377.109822 356.037856 
L 377.109822 355.84765 
L 376.919616 355.84765 
L 376.919616 356.037856 
L 377.109822 356.037856 
" clip-path="url(#p15fa89dd95)" style="fill: #ff0000; fill-opacity: 0.7; stroke: #000000; stroke-opacity: 0.7; stroke-width: 0.5"/>
    <path d="M 474.036295 316.03892 
L 474.036295 315.848715 
L 473.846089 315.848715 
L 473.846089 316.03892 
L 474.036295 316.03892 
" clip-path="url(#p15fa89dd95)" style="fill: #ff0000; fill-opacity: 0.7; stroke: #000000; stroke-opacity: 0.7; stroke-width: 0.5"/>
    <path d="M 213.070759 385.059746 
L 213.070759 384.86954 
L 212.880553 384.86954 
L 212.880553 385.059746 
L 213.070759 385.059746 
" clip-path="url(#p15fa89dd95)" style="fill: #ff0000; fill-opacity: 0.7; stroke: #000000; stroke-opacity: 0.7; stroke-width: 0.5"/>
    <path d="M 576.955051 397.937826 
L 576.955051 397.747621 
L 576.764845 397.747621 
L 576.764845 397.937826 
L 576.955051 397.937826 
" clip-path="url(#p15fa89dd95)" style="fill: #ff0000; fill-opacity: 0.7; stroke: #000000; stroke-opacity: 0.7; stroke-width: 0.5"/>
    <path d="M 508.592599 340.181636 
L 508.592599 339.99143 
L 508.402393 339.99143 
L 508.402393 340.181636 
L 508.592599 340.181636 
" clip-path="url(#p15fa89dd95)" style="fill: #ff0000; fill-opacity: 0.7; stroke: #000000; stroke-opacity: 0.7; stroke-width: 0.5"/>
    <path d="M 178.213385 333.254202 
L 178.213385 333.063996 
L 178.023179 333.063996 
L 178.023179 333.254202 
L 178.213385 333.254202 
" clip-path="url(#p15fa89dd95)" style="fill: #ff0000; fill-opacity: 0.7; stroke: #000000; stroke-opacity: 0.7; stroke-width: 0.5"/>
    <path d="M 351.823228 406.872223 
L 351.823228 406.682017 
L 351.633022 406.682017 
L 351.633022 406.872223 
L 351.823228 406.872223 
" clip-path="url(#p15fa89dd95)" style="fill: #ff0000; fill-opacity: 0.7; stroke: #000000; stroke-opacity: 0.7; stroke-width: 0.5"/>
    <path d="M 169.404615 303.503851 
L 169.404615 303.313645 
L 169.214409 303.313645 
L 169.214409 303.503851 
L 169.404615 303.503851 
" clip-path="url(#p15fa89dd95)" style="fill: #ff0000; fill-opacity: 0.7; stroke: #000000; stroke-opacity: 0.7; stroke-width: 0.5"/>
    <path d="M 314.947904 351.490312 
L 314.947904 351.300106 
L 314.757698 351.300106 
L 314.757698 351.490312 
L 314.947904 351.490312 
" clip-path="url(#p15fa89dd95)" style="fill: #ff0000; fill-opacity: 0.7; stroke: #000000; stroke-opacity: 0.7; stroke-width: 0.5"/>
    <path d="M 459.531764 362.39949 
L 459.531764 362.209284 
L 459.341558 362.209284 
L 459.341558 362.39949 
L 459.531764 362.39949 
" clip-path="url(#p15fa89dd95)" style="fill: #ff0000; fill-opacity: 0.7; stroke: #000000; stroke-opacity: 0.7; stroke-width: 0.5"/>
    <path d="M 154.883955 344.8543 
L 154.883955 344.664095 
L 154.693749 344.664095 
L 154.693749 344.8543 
L 154.883955 344.8543 
" clip-path="url(#p15fa89dd95)" style="fill: #ff0000; fill-opacity: 0.7; stroke: #000000; stroke-opacity: 0.7; stroke-width: 0.5"/>
    <path d="M 153.943988 278.945823 
L 153.943988 278.755617 
L 153.753782 278.755617 
L 153.753782 278.945823 
L 153.943988 278.945823 
" clip-path="url(#p15fa89dd95)" style="fill: #ff0000; fill-opacity: 0.7; stroke: #000000; stroke-opacity: 0.7; stroke-width: 0.5"/>
    <path d="M 487.562055 363.486591 
L 487.562055 363.296385 
L 487.371849 363.296385 
L 487.371849 363.486591 
L 487.562055 363.486591 
" clip-path="url(#p15fa89dd95)" style="fill: #ff0000; fill-opacity: 0.7; stroke: #000000; stroke-opacity: 0.7; stroke-width: 0.5"/>
    <path d="M 302.671302 353.74523 
L 302.671302 353.555024 
L 302.481096 353.555024 
L 302.481096 353.74523 
L 302.671302 353.74523 
" clip-path="url(#p15fa89dd95)" style="fill: #ff0000; fill-opacity: 0.7; stroke: #000000; stroke-opacity: 0.7; stroke-width: 0.5"/>
    <path d="M 581.582579 392.557689 
L 581.582579 392.367484 
L 581.392373 392.367484 
L 581.392373 392.557689 
L 581.582579 392.557689 
" clip-path="url(#p15fa89dd95)" style="fill: #ff0000; fill-opacity: 0.7; stroke: #000000; stroke-opacity: 0.7; stroke-width: 0.5"/>
    <path d="M 312.322341 435.913798 
L 312.322341 435.723593 
L 312.132135 435.723593 
L 312.132135 435.913798 
L 312.322341 435.913798 
" clip-path="url(#p15fa89dd95)" style="fill: #ff0000; fill-opacity: 0.7; stroke: #000000; stroke-opacity: 0.7; stroke-width: 0.5"/>
    <path d="M 154.883954 344.854322 
L 154.883954 344.664116 
L 154.693748 344.664116 
L 154.693748 344.854322 
L 154.883954 344.854322 
" clip-path="url(#p15fa89dd95)" style="fill: #ff0000; fill-opacity: 0.7; stroke: #000000; stroke-opacity: 0.7; stroke-width: 0.5"/>
    <path d="M 500.498583 352.595772 
L 500.498583 352.405566 
L 500.308377 352.405566 
L 500.308377 352.595772 
L 500.498583 352.595772 
" clip-path="url(#p15fa89dd95)" style="fill: #ff0000; fill-opacity: 0.7; stroke: #000000; stroke-opacity: 0.7; stroke-width: 0.5"/>
    <path d="M 161.618491 299.773884 
L 161.618491 299.583678 
L 161.428286 299.583678 
L 161.428286 299.773884 
L 161.618491 299.773884 
" clip-path="url(#p15fa89dd95)" style="fill: #ff0000; fill-opacity: 0.7; stroke: #000000; stroke-opacity: 0.7; stroke-width: 0.5"/>
    <path d="M 337.487666 372.722684 
L 337.487666 372.532478 
L 337.29746 372.532478 
L 337.29746 372.722684 
L 337.487666 372.722684 
" clip-path="url(#p15fa89dd95)" style="fill: #ff0000; fill-opacity: 0.7; stroke: #000000; stroke-opacity: 0.7; stroke-width: 0.5"/>
    <path d="M 162.376263 342.020347 
L 162.376263 341.830141 
L 162.186057 341.830141 
L 162.186057 342.020347 
L 162.376263 342.020347 
" clip-path="url(#p15fa89dd95)" style="fill: #ff0000; fill-opacity: 0.7; stroke: #000000; stroke-opacity: 0.7; stroke-width: 0.5"/>
    <path d="M 445.480132 358.314001 
L 445.480132 358.123795 
L 445.289926 358.123795 
L 445.289926 358.314001 
L 445.480132 358.314001 
" clip-path="url(#p15fa89dd95)" style="fill: #ff0000; fill-opacity: 0.7; stroke: #000000; stroke-opacity: 0.7; stroke-width: 0.5"/>
    <path d="M 372.492982 330.384751 
L 372.492982 330.194545 
L 372.302777 330.194545 
L 372.302777 330.384751 
L 372.492982 330.384751 
" clip-path="url(#p15fa89dd95)" style="fill: #ff0000; fill-opacity: 0.7; stroke: #000000; stroke-opacity: 0.7; stroke-width: 0.5"/>
   </g>
   <g id="matplotlib.axis_1">
    <g id="xtick_1">
     <g id="line2d_1">
      <defs>
       <path id="m6158a0db21" d="M 0 0 
L 0 3.5 
" style="stroke: #000000; stroke-width: 0.8"/>
      </defs>
      <g>
       <use xlink:href="#m6158a0db21" x="145.941725" y="585.743332" style="stroke: #000000; stroke-width: 0.8"/>
      </g>
     </g>
     <g id="text_1">
      <!-- 392500 -->
      <g transform="translate(126.854225 600.341769) scale(0.1 -0.1)">
       <defs>
        <path id="DejaVuSans-33" d="M 2597 2516 
Q 3050 2419 3304 2112 
Q 3559 1806 3559 1356 
Q 3559 666 3084 287 
Q 2609 -91 1734 -91 
Q 1441 -91 1130 -33 
Q 819 25 488 141 
L 488 750 
Q 750 597 1062 519 
Q 1375 441 1716 441 
Q 2309 441 2620 675 
Q 2931 909 2931 1356 
Q 2931 1769 2642 2001 
Q 2353 2234 1838 2234 
L 1294 2234 
L 1294 2753 
L 1863 2753 
Q 2328 2753 2575 2939 
Q 2822 3125 2822 3475 
Q 2822 3834 2567 4026 
Q 2313 4219 1838 4219 
Q 1578 4219 1281 4162 
Q 984 4106 628 3988 
L 628 4550 
Q 988 4650 1302 4700 
Q 1616 4750 1894 4750 
Q 2613 4750 3031 4423 
Q 3450 4097 3450 3541 
Q 3450 3153 3228 2886 
Q 3006 2619 2597 2516 
z
" transform="scale(0.015625)"/>
        <path id="DejaVuSans-39" d="M 703 97 
L 703 672 
Q 941 559 1184 500 
Q 1428 441 1663 441 
Q 2288 441 2617 861 
Q 2947 1281 2994 2138 
Q 2813 1869 2534 1725 
Q 2256 1581 1919 1581 
Q 1219 1581 811 2004 
Q 403 2428 403 3163 
Q 403 3881 828 4315 
Q 1253 4750 1959 4750 
Q 2769 4750 3195 4129 
Q 3622 3509 3622 2328 
Q 3622 1225 3098 567 
Q 2575 -91 1691 -91 
Q 1453 -91 1209 -44 
Q 966 3 703 97 
z
M 1959 2075 
Q 2384 2075 2632 2365 
Q 2881 2656 2881 3163 
Q 2881 3666 2632 3958 
Q 2384 4250 1959 4250 
Q 1534 4250 1286 3958 
Q 1038 3666 1038 3163 
Q 1038 2656 1286 2365 
Q 1534 2075 1959 2075 
z
" transform="scale(0.015625)"/>
        <path id="DejaVuSans-32" d="M 1228 531 
L 3431 531 
L 3431 0 
L 469 0 
L 469 531 
Q 828 903 1448 1529 
Q 2069 2156 2228 2338 
Q 2531 2678 2651 2914 
Q 2772 3150 2772 3378 
Q 2772 3750 2511 3984 
Q 2250 4219 1831 4219 
Q 1534 4219 1204 4116 
Q 875 4013 500 3803 
L 500 4441 
Q 881 4594 1212 4672 
Q 1544 4750 1819 4750 
Q 2544 4750 2975 4387 
Q 3406 4025 3406 3419 
Q 3406 3131 3298 2873 
Q 3191 2616 2906 2266 
Q 2828 2175 2409 1742 
Q 1991 1309 1228 531 
z
" transform="scale(0.015625)"/>
        <path id="DejaVuSans-35" d="M 691 4666 
L 3169 4666 
L 3169 4134 
L 1269 4134 
L 1269 2991 
Q 1406 3038 1543 3061 
Q 1681 3084 1819 3084 
Q 2600 3084 3056 2656 
Q 3513 2228 3513 1497 
Q 3513 744 3044 326 
Q 2575 -91 1722 -91 
Q 1428 -91 1123 -41 
Q 819 9 494 109 
L 494 744 
Q 775 591 1075 516 
Q 1375 441 1709 441 
Q 2250 441 2565 725 
Q 2881 1009 2881 1497 
Q 2881 1984 2565 2268 
Q 2250 2553 1709 2553 
Q 1456 2553 1204 2497 
Q 953 2441 691 2322 
L 691 4666 
z
" transform="scale(0.015625)"/>
        <path id="DejaVuSans-30" d="M 2034 4250 
Q 1547 4250 1301 3770 
Q 1056 3291 1056 2328 
Q 1056 1369 1301 889 
Q 1547 409 2034 409 
Q 2525 409 2770 889 
Q 3016 1369 3016 2328 
Q 3016 3291 2770 3770 
Q 2525 4250 2034 4250 
z
M 2034 4750 
Q 2819 4750 3233 4129 
Q 3647 3509 3647 2328 
Q 3647 1150 3233 529 
Q 2819 -91 2034 -91 
Q 1250 -91 836 529 
Q 422 1150 422 2328 
Q 422 3509 836 4129 
Q 1250 4750 2034 4750 
z
" transform="scale(0.015625)"/>
       </defs>
       <use xlink:href="#DejaVuSans-33"/>
       <use xlink:href="#DejaVuSans-39" x="63.623047"/>
       <use xlink:href="#DejaVuSans-32" x="127.246094"/>
       <use xlink:href="#DejaVuSans-35" x="190.869141"/>
       <use xlink:href="#DejaVuSans-30" x="254.492188"/>
       <use xlink:href="#DejaVuSans-30" x="318.115234"/>
      </g>
     </g>
    </g>
    <g id="xtick_2">
     <g id="line2d_2">
      <g>
       <use xlink:href="#m6158a0db21" x="241.044645" y="585.743332" style="stroke: #000000; stroke-width: 0.8"/>
      </g>
     </g>
     <g id="text_2">
      <!-- 393000 -->
      <g transform="translate(221.957145 600.341769) scale(0.1 -0.1)">
       <use xlink:href="#DejaVuSans-33"/>
       <use xlink:href="#DejaVuSans-39" x="63.623047"/>
       <use xlink:href="#DejaVuSans-33" x="127.246094"/>
       <use xlink:href="#DejaVuSans-30" x="190.869141"/>
       <use xlink:href="#DejaVuSans-30" x="254.492188"/>
       <use xlink:href="#DejaVuSans-30" x="318.115234"/>
      </g>
     </g>
    </g>
    <g id="xtick_3">
     <g id="line2d_3">
      <g>
       <use xlink:href="#m6158a0db21" x="336.147565" y="585.743332" style="stroke: #000000; stroke-width: 0.8"/>
      </g>
     </g>
     <g id="text_3">
      <!-- 393500 -->
      <g transform="translate(317.060065 600.341769) scale(0.1 -0.1)">
       <use xlink:href="#DejaVuSans-33"/>
       <use xlink:href="#DejaVuSans-39" x="63.623047"/>
       <use xlink:href="#DejaVuSans-33" x="127.246094"/>
       <use xlink:href="#DejaVuSans-35" x="190.869141"/>
       <use xlink:href="#DejaVuSans-30" x="254.492188"/>
       <use xlink:href="#DejaVuSans-30" x="318.115234"/>
      </g>
     </g>
    </g>
    <g id="xtick_4">
     <g id="line2d_4">
      <g>
       <use xlink:href="#m6158a0db21" x="431.250486" y="585.743332" style="stroke: #000000; stroke-width: 0.8"/>
      </g>
     </g>
     <g id="text_4">
      <!-- 394000 -->
      <g transform="translate(412.162986 600.341769) scale(0.1 -0.1)">
       <defs>
        <path id="DejaVuSans-34" d="M 2419 4116 
L 825 1625 
L 2419 1625 
L 2419 4116 
z
M 2253 4666 
L 3047 4666 
L 3047 1625 
L 3713 1625 
L 3713 1100 
L 3047 1100 
L 3047 0 
L 2419 0 
L 2419 1100 
L 313 1100 
L 313 1709 
L 2253 4666 
z
" transform="scale(0.015625)"/>
       </defs>
       <use xlink:href="#DejaVuSans-33"/>
       <use xlink:href="#DejaVuSans-39" x="63.623047"/>
       <use xlink:href="#DejaVuSans-34" x="127.246094"/>
       <use xlink:href="#DejaVuSans-30" x="190.869141"/>
       <use xlink:href="#DejaVuSans-30" x="254.492188"/>
       <use xlink:href="#DejaVuSans-30" x="318.115234"/>
      </g>
     </g>
    </g>
    <g id="xtick_5">
     <g id="line2d_5">
      <g>
       <use xlink:href="#m6158a0db21" x="526.353406" y="585.743332" style="stroke: #000000; stroke-width: 0.8"/>
      </g>
     </g>
     <g id="text_5">
      <!-- 394500 -->
      <g transform="translate(507.265906 600.341769) scale(0.1 -0.1)">
       <use xlink:href="#DejaVuSans-33"/>
       <use xlink:href="#DejaVuSans-39" x="63.623047"/>
       <use xlink:href="#DejaVuSans-34" x="127.246094"/>
       <use xlink:href="#DejaVuSans-35" x="190.869141"/>
       <use xlink:href="#DejaVuSans-30" x="254.492188"/>
       <use xlink:href="#DejaVuSans-30" x="318.115234"/>
      </g>
     </g>
    </g>
    <g id="xtick_6">
     <g id="line2d_6">
      <g>
       <use xlink:href="#m6158a0db21" x="621.456326" y="585.743332" style="stroke: #000000; stroke-width: 0.8"/>
      </g>
     </g>
     <g id="text_6">
      <!-- 395000 -->
      <g transform="translate(602.368826 600.341769) scale(0.1 -0.1)">
       <use xlink:href="#DejaVuSans-33"/>
       <use xlink:href="#DejaVuSans-39" x="63.623047"/>
       <use xlink:href="#DejaVuSans-35" x="127.246094"/>
       <use xlink:href="#DejaVuSans-30" x="190.869141"/>
       <use xlink:href="#DejaVuSans-30" x="254.492188"/>
       <use xlink:href="#DejaVuSans-30" x="318.115234"/>
      </g>
     </g>
    </g>
   </g>
   <g id="matplotlib.axis_2">
    <g id="ytick_1">
     <g id="line2d_7">
      <defs>
       <path id="m40c5b65824" d="M 0 0 
L -3.5 0 
" style="stroke: #000000; stroke-width: 0.8"/>
      </defs>
      <g>
       <use xlink:href="#m40c5b65824" x="90" y="497.333845" style="stroke: #000000; stroke-width: 0.8"/>
      </g>
     </g>
     <g id="text_7">
      <!-- 5.8170 -->
      <g transform="translate(48.009375 501.133064) scale(0.1 -0.1)">
       <defs>
        <path id="DejaVuSans-2e" d="M 684 794 
L 1344 794 
L 1344 0 
L 684 0 
L 684 794 
z
" transform="scale(0.015625)"/>
        <path id="DejaVuSans-38" d="M 2034 2216 
Q 1584 2216 1326 1975 
Q 1069 1734 1069 1313 
Q 1069 891 1326 650 
Q 1584 409 2034 409 
Q 2484 409 2743 651 
Q 3003 894 3003 1313 
Q 3003 1734 2745 1975 
Q 2488 2216 2034 2216 
z
M 1403 2484 
Q 997 2584 770 2862 
Q 544 3141 544 3541 
Q 544 4100 942 4425 
Q 1341 4750 2034 4750 
Q 2731 4750 3128 4425 
Q 3525 4100 3525 3541 
Q 3525 3141 3298 2862 
Q 3072 2584 2669 2484 
Q 3125 2378 3379 2068 
Q 3634 1759 3634 1313 
Q 3634 634 3220 271 
Q 2806 -91 2034 -91 
Q 1263 -91 848 271 
Q 434 634 434 1313 
Q 434 1759 690 2068 
Q 947 2378 1403 2484 
z
M 1172 3481 
Q 1172 3119 1398 2916 
Q 1625 2713 2034 2713 
Q 2441 2713 2670 2916 
Q 2900 3119 2900 3481 
Q 2900 3844 2670 4047 
Q 2441 4250 2034 4250 
Q 1625 4250 1398 4047 
Q 1172 3844 1172 3481 
z
" transform="scale(0.015625)"/>
        <path id="DejaVuSans-31" d="M 794 531 
L 1825 531 
L 1825 4091 
L 703 3866 
L 703 4441 
L 1819 4666 
L 2450 4666 
L 2450 531 
L 3481 531 
L 3481 0 
L 794 0 
L 794 531 
z
" transform="scale(0.015625)"/>
        <path id="DejaVuSans-37" d="M 525 4666 
L 3525 4666 
L 3525 4397 
L 1831 0 
L 1172 0 
L 2766 4134 
L 525 4134 
L 525 4666 
z
" transform="scale(0.015625)"/>
       </defs>
       <use xlink:href="#DejaVuSans-35"/>
       <use xlink:href="#DejaVuSans-2e" x="63.623047"/>
       <use xlink:href="#DejaVuSans-38" x="95.410156"/>
       <use xlink:href="#DejaVuSans-31" x="159.033203"/>
       <use xlink:href="#DejaVuSans-37" x="222.65625"/>
       <use xlink:href="#DejaVuSans-30" x="286.279297"/>
      </g>
     </g>
    </g>
    <g id="ytick_2">
     <g id="line2d_8">
      <g>
       <use xlink:href="#m40c5b65824" x="90" y="402.230925" style="stroke: #000000; stroke-width: 0.8"/>
      </g>
     </g>
     <g id="text_8">
      <!-- 5.8175 -->
      <g transform="translate(48.009375 406.030144) scale(0.1 -0.1)">
       <use xlink:href="#DejaVuSans-35"/>
       <use xlink:href="#DejaVuSans-2e" x="63.623047"/>
       <use xlink:href="#DejaVuSans-38" x="95.410156"/>
       <use xlink:href="#DejaVuSans-31" x="159.033203"/>
       <use xlink:href="#DejaVuSans-37" x="222.65625"/>
       <use xlink:href="#DejaVuSans-35" x="286.279297"/>
      </g>
     </g>
    </g>
    <g id="ytick_3">
     <g id="line2d_9">
      <g>
       <use xlink:href="#m40c5b65824" x="90" y="307.128005" style="stroke: #000000; stroke-width: 0.8"/>
      </g>
     </g>
     <g id="text_9">
      <!-- 5.8180 -->
      <g transform="translate(48.009375 310.927223) scale(0.1 -0.1)">
       <use xlink:href="#DejaVuSans-35"/>
       <use xlink:href="#DejaVuSans-2e" x="63.623047"/>
       <use xlink:href="#DejaVuSans-38" x="95.410156"/>
       <use xlink:href="#DejaVuSans-31" x="159.033203"/>
       <use xlink:href="#DejaVuSans-38" x="222.65625"/>
       <use xlink:href="#DejaVuSans-30" x="286.279297"/>
      </g>
     </g>
    </g>
    <g id="ytick_4">
     <g id="line2d_10">
      <g>
       <use xlink:href="#m40c5b65824" x="90" y="212.025084" style="stroke: #000000; stroke-width: 0.8"/>
      </g>
     </g>
     <g id="text_10">
      <!-- 5.8185 -->
      <g transform="translate(48.009375 215.824303) scale(0.1 -0.1)">
       <use xlink:href="#DejaVuSans-35"/>
       <use xlink:href="#DejaVuSans-2e" x="63.623047"/>
       <use xlink:href="#DejaVuSans-38" x="95.410156"/>
       <use xlink:href="#DejaVuSans-31" x="159.033203"/>
       <use xlink:href="#DejaVuSans-38" x="222.65625"/>
       <use xlink:href="#DejaVuSans-35" x="286.279297"/>
      </g>
     </g>
    </g>
    <g id="text_11">
     <!-- 1e6 -->
     <g transform="translate(90 138.456668) scale(0.1 -0.1)">
      <defs>
       <path id="DejaVuSans-65" d="M 3597 1894 
L 3597 1613 
L 953 1613 
Q 991 1019 1311 708 
Q 1631 397 2203 397 
Q 2534 397 2845 478 
Q 3156 559 3463 722 
L 3463 178 
Q 3153 47 2828 -22 
Q 2503 -91 2169 -91 
Q 1331 -91 842 396 
Q 353 884 353 1716 
Q 353 2575 817 3079 
Q 1281 3584 2069 3584 
Q 2775 3584 3186 3129 
Q 3597 2675 3597 1894 
z
M 3022 2063 
Q 3016 2534 2758 2815 
Q 2500 3097 2075 3097 
Q 1594 3097 1305 2825 
Q 1016 2553 972 2059 
L 3022 2063 
z
" transform="scale(0.015625)"/>
       <path id="DejaVuSans-36" d="M 2113 2584 
Q 1688 2584 1439 2293 
Q 1191 2003 1191 1497 
Q 1191 994 1439 701 
Q 1688 409 2113 409 
Q 2538 409 2786 701 
Q 3034 994 3034 1497 
Q 3034 2003 2786 2293 
Q 2538 2584 2113 2584 
z
M 3366 4563 
L 3366 3988 
Q 3128 4100 2886 4159 
Q 2644 4219 2406 4219 
Q 1781 4219 1451 3797 
Q 1122 3375 1075 2522 
Q 1259 2794 1537 2939 
Q 1816 3084 2150 3084 
Q 2853 3084 3261 2657 
Q 3669 2231 3669 1497 
Q 3669 778 3244 343 
Q 2819 -91 2113 -91 
Q 1303 -91 875 529 
Q 447 1150 447 2328 
Q 447 3434 972 4092 
Q 1497 4750 2381 4750 
Q 2619 4750 2861 4703 
Q 3103 4656 3366 4563 
z
" transform="scale(0.015625)"/>
      </defs>
      <use xlink:href="#DejaVuSans-31"/>
      <use xlink:href="#DejaVuSans-65" x="63.623047"/>
      <use xlink:href="#DejaVuSans-36" x="125.146484"/>
     </g>
    </g>
   </g>
   <g id="patch_3">
    <path d="M 90 585.743332 
L 90 141.456668 
" style="fill: none; stroke: #000000; stroke-width: 0.8; stroke-linejoin: miter; stroke-linecap: square"/>
   </g>
   <g id="patch_4">
    <path d="M 648 585.743332 
L 648 141.456668 
" style="fill: none; stroke: #000000; stroke-width: 0.8; stroke-linejoin: miter; stroke-linecap: square"/>
   </g>
   <g id="patch_5">
    <path d="M 90 585.743332 
L 648 585.743332 
" style="fill: none; stroke: #000000; stroke-width: 0.8; stroke-linejoin: miter; stroke-linecap: square"/>
   </g>
   <g id="patch_6">
    <path d="M 90 141.456668 
L 648 141.456668 
" style="fill: none; stroke: #000000; stroke-width: 0.8; stroke-linejoin: miter; stroke-linecap: square"/>
   </g>
   <g id="text_12">
    <!-- Kreuzberg_Ost -->
    <g transform="translate(312.195053 364.783375) scale(0.12 -0.12)">
     <defs>
      <path id="DejaVuSans-4b" d="M 628 4666 
L 1259 4666 
L 1259 2694 
L 3353 4666 
L 4166 4666 
L 1850 2491 
L 4331 0 
L 3500 0 
L 1259 2247 
L 1259 0 
L 628 0 
L 628 4666 
z
" transform="scale(0.015625)"/>
      <path id="DejaVuSans-72" d="M 2631 2963 
Q 2534 3019 2420 3045 
Q 2306 3072 2169 3072 
Q 1681 3072 1420 2755 
Q 1159 2438 1159 1844 
L 1159 0 
L 581 0 
L 581 3500 
L 1159 3500 
L 1159 2956 
Q 1341 3275 1631 3429 
Q 1922 3584 2338 3584 
Q 2397 3584 2469 3576 
Q 2541 3569 2628 3553 
L 2631 2963 
z
" transform="scale(0.015625)"/>
      <path id="DejaVuSans-75" d="M 544 1381 
L 544 3500 
L 1119 3500 
L 1119 1403 
Q 1119 906 1312 657 
Q 1506 409 1894 409 
Q 2359 409 2629 706 
Q 2900 1003 2900 1516 
L 2900 3500 
L 3475 3500 
L 3475 0 
L 2900 0 
L 2900 538 
Q 2691 219 2414 64 
Q 2138 -91 1772 -91 
Q 1169 -91 856 284 
Q 544 659 544 1381 
z
M 1991 3584 
L 1991 3584 
z
" transform="scale(0.015625)"/>
      <path id="DejaVuSans-7a" d="M 353 3500 
L 3084 3500 
L 3084 2975 
L 922 459 
L 3084 459 
L 3084 0 
L 275 0 
L 275 525 
L 2438 3041 
L 353 3041 
L 353 3500 
z
" transform="scale(0.015625)"/>
      <path id="DejaVuSans-62" d="M 3116 1747 
Q 3116 2381 2855 2742 
Q 2594 3103 2138 3103 
Q 1681 3103 1420 2742 
Q 1159 2381 1159 1747 
Q 1159 1113 1420 752 
Q 1681 391 2138 391 
Q 2594 391 2855 752 
Q 3116 1113 3116 1747 
z
M 1159 2969 
Q 1341 3281 1617 3432 
Q 1894 3584 2278 3584 
Q 2916 3584 3314 3078 
Q 3713 2572 3713 1747 
Q 3713 922 3314 415 
Q 2916 -91 2278 -91 
Q 1894 -91 1617 61 
Q 1341 213 1159 525 
L 1159 0 
L 581 0 
L 581 4863 
L 1159 4863 
L 1159 2969 
z
" transform="scale(0.015625)"/>
      <path id="DejaVuSans-67" d="M 2906 1791 
Q 2906 2416 2648 2759 
Q 2391 3103 1925 3103 
Q 1463 3103 1205 2759 
Q 947 2416 947 1791 
Q 947 1169 1205 825 
Q 1463 481 1925 481 
Q 2391 481 2648 825 
Q 2906 1169 2906 1791 
z
M 3481 434 
Q 3481 -459 3084 -895 
Q 2688 -1331 1869 -1331 
Q 1566 -1331 1297 -1286 
Q 1028 -1241 775 -1147 
L 775 -588 
Q 1028 -725 1275 -790 
Q 1522 -856 1778 -856 
Q 2344 -856 2625 -561 
Q 2906 -266 2906 331 
L 2906 616 
Q 2728 306 2450 153 
Q 2172 0 1784 0 
Q 1141 0 747 490 
Q 353 981 353 1791 
Q 353 2603 747 3093 
Q 1141 3584 1784 3584 
Q 2172 3584 2450 3431 
Q 2728 3278 2906 2969 
L 2906 3500 
L 3481 3500 
L 3481 434 
z
" transform="scale(0.015625)"/>
      <path id="DejaVuSans-5f" d="M 3263 -1063 
L 3263 -1509 
L -63 -1509 
L -63 -1063 
L 3263 -1063 
z
" transform="scale(0.015625)"/>
      <path id="DejaVuSans-4f" d="M 2522 4238 
Q 1834 4238 1429 3725 
Q 1025 3213 1025 2328 
Q 1025 1447 1429 934 
Q 1834 422 2522 422 
Q 3209 422 3611 934 
Q 4013 1447 4013 2328 
Q 4013 3213 3611 3725 
Q 3209 4238 2522 4238 
z
M 2522 4750 
Q 3503 4750 4090 4092 
Q 4678 3434 4678 2328 
Q 4678 1225 4090 567 
Q 3503 -91 2522 -91 
Q 1538 -91 948 565 
Q 359 1222 359 2328 
Q 359 3434 948 4092 
Q 1538 4750 2522 4750 
z
" transform="scale(0.015625)"/>
      <path id="DejaVuSans-73" d="M 2834 3397 
L 2834 2853 
Q 2591 2978 2328 3040 
Q 2066 3103 1784 3103 
Q 1356 3103 1142 2972 
Q 928 2841 928 2578 
Q 928 2378 1081 2264 
Q 1234 2150 1697 2047 
L 1894 2003 
Q 2506 1872 2764 1633 
Q 3022 1394 3022 966 
Q 3022 478 2636 193 
Q 2250 -91 1575 -91 
Q 1294 -91 989 -36 
Q 684 19 347 128 
L 347 722 
Q 666 556 975 473 
Q 1284 391 1588 391 
Q 1994 391 2212 530 
Q 2431 669 2431 922 
Q 2431 1156 2273 1281 
Q 2116 1406 1581 1522 
L 1381 1569 
Q 847 1681 609 1914 
Q 372 2147 372 2553 
Q 372 3047 722 3315 
Q 1072 3584 1716 3584 
Q 2034 3584 2315 3537 
Q 2597 3491 2834 3397 
z
" transform="scale(0.015625)"/>
      <path id="DejaVuSans-74" d="M 1172 4494 
L 1172 3500 
L 2356 3500 
L 2356 3053 
L 1172 3053 
L 1172 1153 
Q 1172 725 1289 603 
Q 1406 481 1766 481 
L 2356 481 
L 2356 0 
L 1766 0 
Q 1100 0 847 248 
Q 594 497 594 1153 
L 594 3053 
L 172 3053 
L 172 3500 
L 594 3500 
L 594 4494 
L 1172 4494 
z
" transform="scale(0.015625)"/>
     </defs>
     <use xlink:href="#DejaVuSans-4b"/>
     <use xlink:href="#DejaVuSans-72" x="65.576172"/>
     <use xlink:href="#DejaVuSans-65" x="104.439453"/>
     <use xlink:href="#DejaVuSans-75" x="165.962891"/>
     <use xlink:href="#DejaVuSans-7a" x="229.341797"/>
     <use xlink:href="#DejaVuSans-62" x="281.832031"/>
     <use xlink:href="#DejaVuSans-65" x="345.308594"/>
     <use xlink:href="#DejaVuSans-72" x="406.832031"/>
     <use xlink:href="#DejaVuSans-67" x="446.195312"/>
     <use xlink:href="#DejaVuSans-5f" x="509.671875"/>
     <use xlink:href="#DejaVuSans-4f" x="559.671875"/>
     <use xlink:href="#DejaVuSans-73" x="638.382812"/>
     <use xlink:href="#DejaVuSans-74" x="690.482422"/>
    </g>
   </g>
  </g>
 </g>
 <defs>
  <clipPath id="p15fa89dd95">
   <rect x="90" y="141.456668" width="558" height="444.286664"/>
  </clipPath>
 </defs>
</svg>
