<?xml version="1.0" encoding="utf-8" standalone="no"?>
<!DOCTYPE svg PUBLIC "-//W3C//DTD SVG 1.1//EN"
  "http://www.w3.org/Graphics/SVG/1.1/DTD/svg11.dtd">
<svg xmlns:xlink="http://www.w3.org/1999/xlink" width="720pt" height="720pt" viewBox="0 0 720 720" xmlns="http://www.w3.org/2000/svg" version="1.1">
 <metadata>
  <rdf:RDF xmlns:dc="http://purl.org/dc/elements/1.1/" xmlns:cc="http://creativecommons.org/ns#" xmlns:rdf="http://www.w3.org/1999/02/22-rdf-syntax-ns#">
   <cc:Work>
    <dc:type rdf:resource="http://purl.org/dc/dcmitype/StillImage"/>
    <dc:date>2024-10-15T13:01:11.965964</dc:date>
    <dc:format>image/svg+xml</dc:format>
    <dc:creator>
     <cc:Agent>
      <dc:title>Matplotlib v3.9.2, https://matplotlib.org/</dc:title>
     </cc:Agent>
    </dc:creator>
   </cc:Work>
  </rdf:RDF>
 </metadata>
 <defs>
  <style type="text/css">*{stroke-linejoin: round; stroke-linecap: butt}</style>
 </defs>
 <g id="figure_1">
  <g id="patch_1">
   <path d="M 0 720 
L 720 720 
L 720 0 
L 0 0 
z
" style="fill: #ffffff"/>
  </g>
  <g id="axes_1">
   <g id="patch_2">
    <path d="M 90 538.707511 
L 648 538.707511 
L 648 188.492489 
L 90 188.492489 
z
" style="fill: #ffffff"/>
   </g>
   <g id="PatchCollection_1">
    <path d="M 465.411812 435.853758 
L 466.925205 434.294096 
L 473.373312 435.822956 
L 475.858889 436.411614 
L 478.344465 437.000141 
L 480.831353 437.589979 
L 482.806654 438.058834 
L 485.994269 438.814089 
L 489.181753 439.569344 
L 491.16636 440.03951 
L 493.140482 440.506924 
L 496.327966 441.262178 
L 499.51558 442.017433 
L 502.703064 442.773998 
L 505.890548 443.529253 
L 509.083274 444.285949 
L 512.276132 445.042645 
L 515.463616 445.7979 
L 517.465132 446.272392 
L 518.806423 446.588807 
L 534.341048 450.263103 
L 536.624376 450.803264 
L 539.113885 451.394543 
L 541.604704 451.985823 
L 544.792188 452.741078 
L 547.148524 453.300899 
L 549.507483 453.860852 
L 552.695097 454.617417 
L 555.887824 455.375425 
L 560.416468 456.454959 
L 561.059653 456.60871 
L 573.397094 459.53483 
L 577.41874 460.488663 
L 581.691787 461.501874 
L 583.790824 462.429099 
L 583.796668 462.431624 
L 585.700456 463.254347 
L 598.3028 469.635606 
L 598.315121 469.612275 
L 600.911325 470.927744 
L 601.121701 471.033915 
L 603.568086 472.302066 
L 603.921202 472.477838 
L 606.6958 473.860811 
L 607.131362 473.219068 
L 607.530355 472.632113 
L 609.446803 469.812295 
L 609.846975 469.223506 
L 609.944888 469.039739 
L 615.014217 459.539155 
L 618.196195 453.575371 
L 618.334349 453.316497 
L 622.636364 449.020774 
L 621.595234 446.07958 
L 620.720439 443.631622 
L 619.846824 441.187727 
L 619.596733 440.487393 
L 619.496198 440.206237 
L 619.010565 438.846727 
L 618.996933 438.807142 
L 618.945683 438.812778 
L 618.943323 438.79836 
L 618.922482 438.796525 
L 618.904001 438.786563 
L 618.890893 438.770179 
L 618.885257 438.749993 
L 618.870839 438.751042 
L 618.840954 438.392683 
L 618.840954 438.391372 
L 618.845017 438.390192 
L 618.837939 438.371055 
L 618.359646 437.032254 
L 618.223066 437.046673 
L 618.220838 437.025701 
L 618.18938 437.026356 
L 618.190035 436.993718 
L 618.124366 436.998961 
L 618.123318 436.985854 
L 618.102346 436.982184 
L 618.084126 436.971042 
L 618.07115 436.954003 
L 618.065251 436.933555 
L 618.052144 436.934735 
L 618.023701 436.571132 
L 618.03943 436.570084 
L 618.041789 436.548456 
L 618.050964 436.528664 
L 618.066038 436.512935 
L 618.085306 436.502842 
L 618.084257 436.491045 
L 618.149926 436.484361 
L 618.151761 436.452903 
L 617.51028 434.624143 
L 617.375928 434.242846 
L 617.347353 434.162366 
L 617.111156 433.489426 
L 617.00918 433.200537 
L 616.608745 432.060446 
L 616.43979 431.577565 
L 616.156274 430.771453 
L 616.057968 430.49056 
L 615.653994 429.338541 
L 615.616245 429.233025 
L 615.486087 428.862214 
L 614.377979 425.727029 
L 613.307357 422.683073 
L 612.459171 420.285448 
L 612.08364 419.234094 
L 611.202292 416.764771 
L 611.031894 416.288837 
L 610.636178 415.179942 
L 610.015669 413.443329 
L 609.886691 413.081824 
L 609.370649 411.636852 
L 608.445259 409.047595 
L 608.269225 408.555408 
L 608.243141 408.484234 
L 607.467307 406.311534 
L 607.328499 405.922896 
L 606.472579 403.517406 
L 605.571306 400.940602 
L 605.076367 399.567066 
L 604.929694 399.160078 
L 604.434623 397.786542 
L 603.330054 394.671019 
L 601.979194 390.862895 
L 601.758857 390.245269 
L 600.770944 387.474211 
L 600.550738 386.856585 
L 599.29517 383.336039 
L 598.880448 382.172355 
L 598.767855 381.856595 
L 598.368207 380.735117 
L 597.53955 378.409976 
L 597.376624 377.953442 
L 596.520573 375.553064 
L 596.465783 375.399968 
L 595.386118 372.348016 
L 594.699809 370.461977 
L 594.055968 368.693512 
L 593.907722 368.281805 
L 593.896581 368.252706 
L 593.071594 366.006342 
L 592.381877 364.094087 
L 591.562789 361.744305 
L 591.469595 361.479009 
L 590.604106 359.162388 
L 590.544336 358.998806 
L 589.770993 356.860841 
L 589.736127 356.76319 
L 589.648962 356.52306 
L 589.189544 355.253467 
L 589.178271 355.221747 
L 589.103427 355.023692 
L 588.986246 354.707015 
L 588.976285 354.679227 
L 588.784391 354.157941 
L 588.658559 353.814787 
L 588.538887 353.491425 
L 587.757155 351.315316 
L 587.529478 350.676588 
L 587.42121 350.373018 
L 586.81407 348.668124 
L 586.297765 347.21791 
L 586.194478 346.930331 
L 586.02277 346.44863 
L 585.449054 344.838766 
L 583.90132 340.494676 
L 583.860293 340.379854 
L 581.054762 335.727475 
L 580.53269 334.648072 
L 580.203692 334.02848 
L 580.161093 333.926766 
L 579.135954 331.04744 
L 579.086146 330.906272 
L 579.061373 330.82317 
L 579.046954 330.73784 
L 579.042891 330.6512 
L 579.049445 330.564821 
L 579.058882 330.482375 
L 579.074611 330.345008 
L 574.808511 329.721353 
L 574.164015 329.706411 
L 573.188292 329.732495 
L 572.018054 329.792789 
L 571.48969 329.843122 
L 571.280363 329.854788 
L 568.841973 330.024661 
L 567.194491 330.159799 
L 566.306982 330.239886 
L 565.421832 330.335702 
L 564.653338 330.427324 
L 564.045019 330.508721 
L 563.268268 330.617251 
L 562.438694 330.750817 
L 561.56521 330.921608 
L 560.92268 331.077194 
L 560.130724 331.300677 
L 559.463552 331.513412 
L 558.754829 331.772547 
L 558.176133 332.010579 
L 557.535044 332.299862 
L 556.917288 332.597403 
L 556.143945 333.01776 
L 555.648741 333.302786 
L 549.817606 336.659026 
L 549.258309 336.983961 
L 548.696783 337.289104 
L 548.121364 337.56908 
L 547.507932 337.848401 
L 546.85662 338.120382 
L 546.11893 338.386857 
L 545.487279 338.591072 
L 544.838982 338.767499 
L 544.195141 338.925707 
L 543.41472 339.091648 
L 543.134743 339.137524 
L 541.889399 339.28944 
L 537.226403 339.892779 
L 536.383984 340.010353 
L 535.752202 340.084935 
L 532.138749 340.454815 
L 531.995197 340.469509 
L 530.453099 340.647247 
L 528.432708 340.886721 
L 527.877212 340.944263 
L 527.140832 341.00233 
L 526.320695 341.057512 
L 525.708181 341.082679 
L 524.928022 341.093951 
L 524.447108 341.092771 
L 523.493406 341.07193 
L 522.770396 341.046371 
L 522.092082 341.013864 
L 520.89209 340.917655 
L 520.260177 340.853166 
L 519.100556 340.704003 
L 518.035178 340.552611 
L 516.885387 340.364387 
L 515.793663 340.15873 
L 514.892784 339.977847 
L 514.279352 339.844281 
L 513.863058 339.747286 
L 511.10904 339.074871 
L 510.421813 338.894118 
L 509.936835 338.753868 
L 509.458804 338.597888 
L 502.237878 336.151241 
L 499.687944 335.290209 
L 497.165535 334.438221 
L 492.354949 332.813676 
L 491.543856 332.539336 
L 488.610921 331.54736 
L 486.080647 330.689212 
L 484.4485 330.136075 
L 482.065818 329.32839 
L 480.935951 328.947486 
L 479.933488 328.563043 
L 478.828263 328.236666 
L 476.56984 327.491242 
L 474.847907 326.92775 
L 473.54502 326.516306 
L 472.526043 326.20592 
L 470.969788 325.746502 
L 470.371562 325.572565 
L 469.39112 325.302288 
L 468.65828 325.104889 
L 466.912097 324.64167 
L 465.999159 324.406783 
L 464.334375 324.008184 
L 463.462595 323.811965 
L 462.653468 323.628853 
L 452.744455 321.52169 
L 448.132709 320.532204 
L 447.545624 320.802874 
L 444.263897 320.314488 
L 444.124696 320.056271 
L 443.899902 320.023633 
L 439.933046 319.448344 
L 436.270808 318.908184 
L 436.276838 318.870303 
L 435.531807 318.763084 
L 434.565915 318.624144 
L 429.207959 317.861681 
L 423.100647 317.025946 
L 421.78426 316.839688 
L 420.536163 316.657363 
L 419.756004 316.533759 
L 419.156467 316.424049 
L 415.851016 315.806817 
L 414.901508 315.628817 
L 414.161327 315.475852 
L 412.499557 315.121818 
L 411.342164 314.853377 
L 407.849669 314.005845 
L 407.404931 313.888533 
L 406.072291 313.532926 
L 404.927612 313.214938 
L 404.223608 313.015442 
L 403.909421 312.928277 
L 402.840635 312.614352 
L 402.43404 312.493894 
L 401.489251 312.208544 
L 400.302366 311.832096 
L 398.543994 311.257332 
L 396.782083 310.655042 
L 396.631084 310.60235 
L 395.789845 310.318965 
L 395.09069 310.071102 
L 394.190204 309.731487 
L 392.487801 309.033381 
L 391.403679 308.565836 
L 390.733755 308.228056 
L 388.450427 306.998441 
L 386.293849 305.787045 
L 385.328612 305.269298 
L 384.202677 304.721011 
L 384.197958 304.762824 
L 383.668022 304.511684 
L 383.65806 304.548123 
L 382.791129 304.166039 
L 381.912009 303.808466 
L 381.085843 303.488774 
L 378.837643 302.753967 
L 377.545112 302.350649 
L 376.400957 302.005136 
L 375.140408 301.644286 
L 373.850761 301.301262 
L 372.592047 300.978556 
L 371.356926 300.664106 
L 370.117612 300.353459 
L 369.376382 300.187386 
L 368.633449 299.967442 
L 367.641079 299.776859 
L 366.846895 299.632021 
L 366.607945 299.588111 
L 366.127293 299.500422 
L 365.275567 299.350472 
L 364.874261 299.28591 
L 364.38832 299.207731 
L 363.889055 299.135378 
L 363.177842 299.0393 
L 362.609238 298.962883 
L 362.102943 298.90017 
L 359.935176 298.631656 
L 359.703173 298.605966 
L 359.119102 298.541346 
L 358.244045 298.447365 
L 357.371478 298.360069 
L 356.518573 298.278278 
L 355.855202 298.218508 
L 354.88695 298.131867 
L 354.693352 298.11509 
L 354.225676 298.102244 
L 353.346687 298.075112 
L 352.4753 298.068951 
L 351.590281 298.08101 
L 350.41611 298.135537 
L 349.780003 298.30895 
L 349.465947 298.395721 
L 349.149532 298.473318 
L 348.830888 298.54187 
L 348.510541 298.601116 
L 348.188621 298.651187 
L 346.895589 298.838304 
L 344.664315 299.161196 
L 341.697914 299.590471 
L 335.300529 300.631019 
L 332.610217 301.068604 
L 331.783264 301.157473 
L 331.460033 301.184475 
L 331.316637 301.196402 
L 330.542114 301.261022 
L 330.40986 301.271902 
L 330.421525 301.420279 
L 330.29412 301.43024 
L 328.180928 301.594608 
L 326.098014 301.756486 
L 325.940331 301.768938 
L 325.927616 301.611386 
L 325.575418 301.638388 
L 325.591016 301.67522 
L 325.59639 301.714804 
L 325.591147 301.75452 
L 325.57568 301.791483 
L 325.551038 301.822941 
L 325.519055 301.846928 
L 323.665785 301.992552 
L 323.636162 301.97276 
L 323.612175 301.946414 
L 323.595529 301.914825 
L 323.587271 301.880221 
L 323.587664 301.844569 
L 322.724273 301.912465 
L 322.738727 302.189273 
L 321.185845 302.262436 
L 321.176669 302.525504 
L 320.485773 302.539004 
L 319.794876 302.53848 
L 319.10411 302.524062 
L 318.413607 302.49575 
L 317.724021 302.453412 
L 317.035352 302.397181 
L 316.347864 302.327056 
L 315.662079 302.243168 
L 314.977998 302.145386 
L 314.296145 302.033841 
L 314.323147 301.724504 
L 310.49523 300.913673 
L 310.575973 300.585724 
L 309.151842 300.277566 
L 304.660533 299.024063 
L 303.399118 298.590411 
L 302.132903 298.140256 
L 301.742561 298.009836 
L 301.092437 297.792621 
L 300.456059 297.563263 
L 299.962824 297.382249 
L 299.387535 297.170694 
L 298.926938 296.994267 
L 298.424789 296.795426 
L 298.286898 296.740898 
L 297.827611 296.560408 
L 296.494709 296.012121 
L 293.146396 294.614205 
L 289.331063 293.030556 
L 285.733052 291.529485 
L 281.529605 289.813843 
L 281.051837 289.576728 
L 280.117271 289.163186 
L 278.081675 288.275153 
L 276.333527 287.506659 
L 275.907271 287.317649 
L 274.387298 286.673938 
L 272.896787 286.050999 
L 270.880673 285.208389 
L 269.930361 284.841315 
L 268.515216 284.29469 
L 267.230756 283.798546 
L 266.266306 283.461158 
L 265.29635 283.140287 
L 264.321021 282.83593 
L 263.340579 282.54822 
L 262.35555 282.277288 
L 261.365933 282.023134 
L 260.372122 281.785888 
L 259.37451 281.565551 
L 258.373227 281.362253 
L 257.368537 281.175996 
L 256.360963 281.006909 
L 255.350636 280.854993 
L 254.337819 280.720247 
L 253.567097 280.88147 
L 252.286435 280.936078 
L 251.329253 280.976892 
L 250.45472 280.964571 
L 249.580187 280.964309 
L 248.705654 280.975844 
L 247.831383 280.999437 
L 246.957637 281.034828 
L 246.084284 281.082277 
L 245.718584 281.09119 
L 245.355637 281.137722 
L 244.615325 281.237077 
L 243.873309 281.323455 
L 243.129983 281.396988 
L 242.385345 281.457414 
L 241.639921 281.504863 
L 240.893711 281.539205 
L 240.147107 281.56057 
L 239.40011 281.568959 
L 238.699121 281.414945 
L 235.752422 281.579576 
L 235.081973 281.565682 
L 234.412048 281.534486 
L 233.743172 281.485988 
L 233.075738 281.420451 
L 232.41027 281.337742 
L 231.747161 281.237863 
L 231.086805 281.120944 
L 230.429594 280.987116 
L 229.776185 280.83638 
L 229.126839 280.668997 
L 228.48195 280.484837 
L 227.117572 280.013131 
L 226.597877 280.087417 
L 224.128684 279.256663 
L 223.285741 278.92347 
L 222.82842 278.782434 
L 220.883134 278.175294 
L 219.701493 277.80291 
L 218.994212 277.566581 
L 218.320355 277.302203 
L 217.755667 277.054189 
L 217.032673 276.714069 
L 216.893733 276.64591 
L 216.658847 276.526107 
L 216.150538 276.238529 
L 213.997892 274.909296 
L 213.598637 274.656583 
L 213.167531 274.375821 
L 212.951388 274.227444 
L 212.481222 273.865939 
L 212.120504 273.607459 
L 212.331403 273.201257 
L 211.791898 272.830577 
L 211.294075 272.475101 
L 210.619563 271.965481 
L 209.96327 271.46543 
L 209.499657 271.104056 
L 209.28417 270.924352 
L 209.077989 270.739536 
L 208.712814 270.36571 
L 208.399544 270.025439 
L 208.04053 269.607178 
L 207.76501 269.275558 
L 207.567742 269.03189 
L 207.287635 268.668812 
L 207.015654 268.295379 
L 206.755339 267.918145 
L 206.508 267.558213 
L 206.302999 267.241142 
L 206.063787 266.86168 
L 205.833619 266.490344 
L 205.570944 266.038397 
L 205.349296 265.633113 
L 205.137872 265.238577 
L 204.947158 264.864096 
L 204.66089 264.268753 
L 204.329794 263.557408 
L 203.914549 262.650369 
L 203.665637 262.089892 
L 203.308064 261.248259 
L 203.046438 260.606253 
L 202.757287 259.889141 
L 202.506278 259.235601 
L 202.214374 258.458064 
L 201.927975 257.66755 
L 201.697807 257.019646 
L 201.446667 256.307122 
L 201.206013 255.590796 
L 201.020149 255.023766 
L 200.790112 254.30246 
L 200.587863 253.635418 
L 200.454822 253.187273 
L 200.184807 252.224002 
L 200.07536 251.840607 
L 199.895131 251.257848 
L 199.709398 250.690686 
L 199.577799 250.302835 
L 199.391148 249.778928 
L 199.225469 249.327636 
L 199.051663 248.882636 
L 198.870255 248.430952 
L 198.652146 247.836919 
L 198.509275 247.358495 
L 198.368762 247.026875 
L 198.034259 246.285253 
L 197.783643 245.750991 
L 197.584278 245.339546 
L 197.37115 244.904246 
L 197.247415 244.654154 
L 197.089338 244.348487 
L 196.822338 243.850533 
L 196.322811 242.965514 
L 196.010591 242.428762 
L 195.746212 241.991233 
L 195.545274 241.67023 
L 195.100667 240.99598 
L 194.804831 240.564481 
L 194.290492 239.832427 
L 193.495043 238.937694 
L 192.520979 237.842052 
L 191.551941 236.629607 
L 191.482995 236.532612 
L 191.223598 236.45554 
L 190.88621 236.01185 
L 190.563242 235.600275 
L 190.233981 235.193549 
L 189.898822 234.791804 
L 189.557634 234.395039 
L 189.20609 233.998406 
L 188.848648 233.607147 
L 188.485177 233.221393 
L 188.115939 232.841144 
L 187.741064 232.466532 
L 186.693512 231.449258 
L 185.893994 230.682531 
L 181.816602 226.772368 
L 180.947017 225.938403 
L 179.190382 224.339091 
L 178.708943 223.888717 
L 177.462419 222.72228 
L 176.362437 221.692947 
L 177.095956 217.8002 
L 176.721976 218.158377 
L 176.150488 218.163226 
L 175.681633 217.725698 
L 175.637854 217.684278 
L 175.627237 217.697124 
L 175.455922 217.539309 
L 175.46785 217.526333 
L 174.968191 217.063376 
L 174.952069 217.080153 
L 174.778395 216.913032 
L 174.795697 216.894944 
L 173.878171 216.008614 
L 173.862049 216.025261 
L 173.684442 215.852766 
L 173.700564 215.83612 
L 173.4721 215.578819 
L 172.995118 215.027124 
L 172.981749 215.037348 
L 172.402135 214.298871 
L 172.260574 214.08653 
L 171.393512 212.680749 
L 171.237664 212.397365 
L 170.383972 210.8398 
L 169.688749 209.559065 
L 169.222122 208.662905 
L 169.204427 208.696722 
L 169.167988 208.688072 
L 168.456119 207.320696 
L 168.462149 207.27364 
L 168.483907 207.237333 
L 167.85029 206.022136 
L 167.835741 206.031049 
L 166.890166 204.411354 
L 166.67363 204.879423 
L 166.073699 206.172479 
L 165.664483 207.054221 
L 165.615329 207.160129 
L 165.538782 207.325284 
L 165.462496 207.489521 
L 165.367204 207.694654 
L 164.809742 208.89635 
L 164.145454 210.328083 
L 164.002188 210.636896 
L 163.912402 210.830363 
L 163.667161 211.347454 
L 163.627052 211.432259 
L 161.49079 215.93613 
L 160.434456 217.696206 
L 159.63883 219.021506 
L 157.336497 222.894643 
L 153.687498 229.033807 
L 148.299919 238.099614 
L 147.797639 238.945573 
L 147.029932 240.237711 
L 146.759656 240.691362 
L 146.689137 240.830563 
L 146.619143 240.970027 
L 146.549804 241.109884 
L 146.45045 241.313444 
L 146.352536 241.51779 
L 146.256196 241.722922 
L 146.141899 242.089408 
L 146.033238 242.457598 
L 145.930082 242.827492 
L 145.661247 244.11478 
L 144.928275 247.643453 
L 144.365701 250.35107 
L 143.464035 254.68782 
L 141.632654 263.501308 
L 141.40537 264.592639 
L 141.38833 264.676658 
L 141.353595 264.838143 
L 141.314142 264.998448 
L 141.2701 265.157573 
L 141.212952 265.343175 
L 141.14938 265.52668 
L 141.079648 265.707826 
L 141.003232 265.886481 
L 140.981342 265.934324 
L 140.959321 265.982035 
L 140.936383 266.029353 
L 140.833358 266.22767 
L 140.720634 266.420481 
L 140.598341 266.607394 
L 140.466741 266.787754 
L 140.326229 266.961428 
L 139.288901 268.208476 
L 138.555667 269.090349 
L 138.277263 269.115123 
L 137.853891 269.626709 
L 136.766492 270.942571 
L 136.486385 271.281662 
L 136.458728 271.497412 
L 136.495167 271.580645 
L 134.80574 273.615585 
L 134.693933 273.749806 
L 134.164652 274.387749 
L 132.057489 276.924969 
L 130.273557 279.073682 
L 128.86935 280.764813 
L 130.613173 282.180686 
L 130.505167 282.963728 
L 129.809289 287.991113 
L 129.263755 291.865561 
L 126.237756 295.603691 
L 123.876438 298.474235 
L 123.254749 299.238796 
L 120.819898 302.233206 
L 120.380404 307.729708 
L 120.370573 307.85305 
L 120.288782 308.876222 
L 120.28 308.984883 
L 119.801576 314.966756 
L 119.742986 315.726992 
L 119.311093 321.330582 
L 119.289728 321.609248 
L 119.068735 324.475204 
L 118.948277 326.037619 
L 118.337205 333.835669 
L 117.922746 339.124548 
L 117.692316 342.0643 
L 117.50134 344.500854 
L 117.520346 344.61122 
L 117.730197 345.832184 
L 118.500001 350.310888 
L 118.815367 352.145022 
L 118.827426 352.214754 
L 117.568057 355.727434 
L 117.007187 357.291684 
L 116.695883 358.159926 
L 116.250228 359.213769 
L 115.363636 361.247399 
L 115.7372 361.379916 
L 116.317076 361.585573 
L 116.416956 361.621094 
L 116.878995 361.785069 
L 116.914517 361.797652 
L 117.206552 361.901202 
L 117.926678 362.156667 
L 118.968594 362.526167 
L 119.703401 362.787007 
L 119.718606 362.792381 
L 120.85306 363.194781 
L 121.168296 363.307113 
L 123.743397 364.221099 
L 124.445435 362.175411 
L 127.176909 363.138288 
L 129.896585 364.098282 
L 132.605907 365.054212 
L 135.325584 366.012896 
L 140.336322 367.791453 
L 140.691928 367.917023 
L 140.566096 370.188685 
L 142.732374 370.958096 
L 143.436509 371.208187 
L 143.984927 371.402965 
L 145.851174 372.06568 
L 146.948404 372.459692 
L 148.266626 372.923567 
L 148.94992 373.166318 
L 149.575541 373.388752 
L 149.735191 373.445508 
L 150.920765 373.866652 
L 151.265623 373.989207 
L 153.439504 374.76137 
L 156.087875 375.702096 
L 156.673257 375.910112 
L 156.890186 375.986791 
L 157.88308 376.339514 
L 158.299243 376.487367 
L 159.806869 377.02294 
L 163.165012 378.215985 
L 164.625188 378.73478 
L 165.203229 378.940175 
L 165.833963 379.164313 
L 166.339519 379.343886 
L 166.686344 379.467096 
L 167.182332 379.643392 
L 168.788133 380.213831 
L 168.977274 380.280942 
L 170.093509 380.677575 
L 172.451157 381.515013 
L 173.980934 382.058451 
L 175.240434 382.506334 
L 175.29601 382.526127 
L 175.353028 382.546443 
L 175.916388 382.745677 
L 175.987038 382.770844 
L 179.045544 383.857718 
L 179.682437 384.083954 
L 179.872496 384.151589 
L 182.187806 384.974216 
L 183.250039 385.351712 
L 183.763984 385.5343 
L 184.501281 385.796319 
L 184.69252 385.864347 
L 185.038165 385.987033 
L 185.370702 386.105 
L 185.982954 386.322585 
L 186.949895 386.66574 
L 187.532393 386.872445 
L 187.953799 387.022002 
L 187.607236 390.563388 
L 186.615129 392.185573 
L 184.908532 394.976161 
L 183.994152 396.472514 
L 183.00152 398.09601 
L 182.780659 398.457253 
L 180.785434 401.720892 
L 179.212271 404.292716 
L 179.021426 404.610179 
L 178.70855 409.068305 
L 178.65612 409.851741 
L 178.53186 411.70737 
L 178.512068 412.003076 
L 178.42202 413.349348 
L 178.370245 414.124264 
L 178.309426 415.031959 
L 178.009002 419.528358 
L 177.101569 419.62247 
L 172.09673 420.14192 
L 172.04679 420.147557 
L 167.075506 429.179022 
L 166.71636 429.83099 
L 165.668153 431.733807 
L 165.149226 432.675974 
L 165.012122 432.925148 
L 162.793807 436.955051 
L 160.95312 440.294844 
L 160.872902 441.021393 
L 160.684285 442.733365 
L 160.574444 443.729404 
L 161.575071 443.838983 
L 162.18457 443.905569 
L 166.448443 444.369313 
L 166.40178 446.032918 
L 166.350398 447.8681 
L 166.304915 449.485828 
L 166.293905 449.877743 
L 166.261005 451.05401 
L 166.221814 452.428202 
L 166.196647 452.820378 
L 166.154834 453.470117 
L 166.149329 453.551253 
L 166.136353 453.754157 
L 166.116036 454.06179 
L 166.017468 455.594713 
L 165.999117 455.866956 
L 165.945114 456.712652 
L 165.8434 458.266416 
L 165.757677 459.60561 
L 165.688994 460.668498 
L 165.637481 461.447346 
L 165.576531 462.394364 
L 165.574172 462.433162 
L 165.531704 463.077134 
L 165.455287 464.273587 
L 165.379525 465.430718 
L 165.270864 467.110838 
L 165.227216 467.785744 
L 165.203229 468.15354 
L 165.18016 468.510982 
L 165.075169 470.135395 
L 165.015792 471.046498 
L 164.956808 471.964548 
L 164.919059 472.553206 
L 164.896907 472.890987 
L 164.761506 474.977571 
L 164.674473 476.318076 
L 164.673555 476.331707 
L 164.570399 477.918764 
L 164.452693 479.727994 
L 164.344688 481.389239 
L 157.754888 481.176111 
L 157.313427 481.162479 
L 147.160745 480.835709 
L 143.688436 480.723771 
L 143.185369 480.71027 
L 142.834088 481.609314 
L 143.334402 481.625305 
L 142.503255 483.977841 
L 142.453971 484.092269 
L 143.250252 484.119271 
L 145.705419 484.198178 
L 153.319177 484.443026 
L 154.827982 484.491655 
L 157.42838 484.575543 
L 160.022094 484.6593 
L 162.543192 484.740436 
L 164.412191 484.80073 
L 166.725797 484.875181 
L 167.297809 484.893662 
L 167.448152 484.898512 
L 169.672234 484.969555 
L 171.325353 485.022378 
L 172.994594 485.075726 
L 174.683758 485.129729 
L 176.177228 485.17744 
L 176.507406 485.188057 
L 176.881887 485.200116 
L 178.387678 485.248483 
L 180.031097 485.301306 
L 181.686444 485.354522 
L 183.36604 485.408525 
L 183.414669 485.410098 
L 184.993993 485.460824 
L 188.72452 485.581806 
L 189.603379 485.61025 
L 191.154128 485.660583 
L 191.812649 485.681817 
L 192.029447 485.688895 
L 194.587902 485.771734 
L 194.774946 485.777764 
L 195.47528 485.80044 
L 197.794129 485.875546 
L 197.987596 485.881837 
L 201.199853 485.985911 
L 201.593864 485.998625 
L 204.287981 486.085921 
L 204.76942 486.101388 
L 205.169068 486.114233 
L 208.285902 486.214113 
L 208.746369 486.228924 
L 209.003407 486.237182 
L 228.212459 486.85022 
L 229.718643 486.901077 
L 235.260759 487.077242 
L 236.049438 487.102408 
L 237.662972 487.153528 
L 237.841496 487.159164 
L 238.866766 487.191671 
L 241.969837 487.291288 
L 246.948199 487.449757 
L 247.092644 487.454345 
L 248.232997 487.49026 
L 249.14895 487.519227 
L 251.690233 487.599445 
L 253.089198 487.644404 
L 256.367779 487.748609 
L 257.328035 487.779411 
L 257.563708 487.787145 
L 261.975039 487.927526 
L 267.2921 488.096744 
L 267.687553 488.109327 
L 268.035951 488.121255 
L 268.179347 488.125843 
L 268.732746 488.143276 
L 270.696381 488.205405 
L 272.299561 488.256 
L 273.246316 488.296371 
L 273.321684 486.266281 
L 273.444239 482.910234 
L 273.532191 480.503434 
L 273.759606 474.263867 
L 273.866039 474.267406 
L 274.918834 474.302927 
L 275.276407 474.313676 
L 278.089278 474.407263 
L 278.675314 474.426793 
L 295.184351 474.97626 
L 295.717171 474.993955 
L 315.752127 475.660865 
L 316.674241 475.691406 
L 317.537763 475.720242 
L 322.175724 475.873862 
L 322.243883 475.876484 
L 324.798011 475.964435 
L 327.679566 476.062479 
L 330.56112 476.161834 
L 338.713204 476.442597 
L 341.200484 476.529238 
L 344.605946 476.645108 
L 344.494663 480.706076 
L 344.431485 483.065296 
L 344.417722 483.578848 
L 344.325314 486.993878 
L 344.273015 488.912948 
L 344.273015 488.916881 
L 344.197254 491.730669 
L 344.12005 494.547211 
L 344.040881 497.46835 
L 343.945983 500.941053 
L 346.419238 500.990206 
L 347.46915 502.140783 
L 350.969509 502.344211 
L 353.132117 502.470043 
L 372.166577 503.577366 
L 397.182779 505.030857 
L 399.21405 506.416714 
L 399.353907 506.441749 
L 400.818016 506.705472 
L 402.207018 506.967885 
L 403.593923 507.240914 
L 404.978601 507.524691 
L 406.36118 507.819086 
L 407.741401 508.124098 
L 409.131321 508.44261 
L 410.518751 508.771871 
L 411.903559 509.112011 
L 413.285745 509.462899 
L 414.665049 509.824535 
L 416.041599 510.196788 
L 417.415266 510.580183 
L 418.785787 510.974194 
L 420.153293 511.378954 
L 421.517653 511.794331 
L 422.878606 512.220325 
L 424.236281 512.656805 
L 425.59068 513.103771 
L 426.94154 513.561223 
L 428.288861 514.029161 
L 429.632511 514.507585 
L 430.97223 514.996495 
L 432.308278 515.49576 
L 449.564573 522.023168 
L 450.362559 522.308387 
L 451.699524 522.788646 
L 451.970194 520.40439 
L 454.539659 497.836933 
L 455.051245 493.331489 
L 455.244712 491.636557 
L 455.600318 488.514873 
L 455.779629 487.219327 
L 456.034701 485.930597 
L 456.354131 484.645668 
L 456.749192 483.37542 
L 457.002691 482.656735 
L 457.278079 481.955483 
L 457.817716 480.735043 
L 458.41817 479.556416 
L 459.078133 478.41567 
L 459.79223 477.320407 
L 462.261554 473.731702 
L 466.753628 467.231165 
L 467.258267 466.499111 
L 472.099 459.478074 
L 471.887576 458.674584 
L 469.834023 450.808376 
L 467.615446 442.309992 
L 467.536015 442.006947 
L 466.981567 439.870554 
L 466.420566 439.736726 
L 465.411812 435.853758 
" clip-path="url(#pf58d1793cc)" style="fill: #d3d3d3"/>
   </g>
   <g id="PatchCollection_2">
    <path d="M 318.200474 315.663893 
L 318.200474 315.532818 
L 318.069399 315.532818 
L 318.069399 315.663893 
L 318.200474 315.663893 
" clip-path="url(#pf58d1793cc)" style="fill: #ff0000; fill-opacity: 0.7; stroke: #000000; stroke-opacity: 0.7; stroke-width: 0.5"/>
    <path d="M 206.828993 388.023732 
L 206.828993 387.892657 
L 206.697918 387.892657 
L 206.697918 388.023732 
L 206.828993 388.023732 
" clip-path="url(#pf58d1793cc)" style="fill: #ff0000; fill-opacity: 0.7; stroke: #000000; stroke-opacity: 0.7; stroke-width: 0.5"/>
    <path d="M 329.671075 390.543015 
L 329.671075 390.41194 
L 329.54 390.41194 
L 329.54 390.543015 
L 329.671075 390.543015 
" clip-path="url(#pf58d1793cc)" style="fill: #ff0000; fill-opacity: 0.7; stroke: #000000; stroke-opacity: 0.7; stroke-width: 0.5"/>
    <path d="M 344.624448 469.18891 
L 344.624448 469.057835 
L 344.493373 469.057835 
L 344.493373 469.18891 
L 344.624448 469.18891 
" clip-path="url(#pf58d1793cc)" style="fill: #ff0000; fill-opacity: 0.7; stroke: #000000; stroke-opacity: 0.7; stroke-width: 0.5"/>
    <path d="M 516.426942 404.457466 
L 516.426942 404.326391 
L 516.295867 404.326391 
L 516.295867 404.457466 
L 516.426942 404.457466 
" clip-path="url(#pf58d1793cc)" style="fill: #ff0000; fill-opacity: 0.7; stroke: #000000; stroke-opacity: 0.7; stroke-width: 0.5"/>
    <path d="M 348.67944 424.015754 
L 348.67944 423.884679 
L 348.548365 423.884679 
L 348.548365 424.015754 
L 348.67944 424.015754 
" clip-path="url(#pf58d1793cc)" style="fill: #ff0000; fill-opacity: 0.7; stroke: #000000; stroke-opacity: 0.7; stroke-width: 0.5"/>
    <path d="M 541.77717 400.58712 
L 541.77717 400.456044 
L 541.646095 400.456044 
L 541.646095 400.58712 
L 541.77717 400.58712 
" clip-path="url(#pf58d1793cc)" style="fill: #ff0000; fill-opacity: 0.7; stroke: #000000; stroke-opacity: 0.7; stroke-width: 0.5"/>
    <path d="M 356.091905 366.772507 
L 356.091905 366.641432 
L 355.96083 366.641432 
L 355.96083 366.772507 
L 356.091905 366.772507 
" clip-path="url(#pf58d1793cc)" style="fill: #ff0000; fill-opacity: 0.7; stroke: #000000; stroke-opacity: 0.7; stroke-width: 0.5"/>
    <path d="M 290.887671 357.842128 
L 290.887671 357.711052 
L 290.756596 357.711052 
L 290.756596 357.842128 
L 290.887671 357.842128 
" clip-path="url(#pf58d1793cc)" style="fill: #ff0000; fill-opacity: 0.7; stroke: #000000; stroke-opacity: 0.7; stroke-width: 0.5"/>
    <path d="M 319.419265 420.073852 
L 319.419265 419.942777 
L 319.28819 419.942777 
L 319.28819 420.073852 
L 319.419265 420.073852 
" clip-path="url(#pf58d1793cc)" style="fill: #ff0000; fill-opacity: 0.7; stroke: #000000; stroke-opacity: 0.7; stroke-width: 0.5"/>
    <path d="M 345.246586 445.694062 
L 345.246586 445.562987 
L 345.115511 445.562987 
L 345.115511 445.694062 
L 345.246586 445.694062 
" clip-path="url(#pf58d1793cc)" style="fill: #ff0000; fill-opacity: 0.7; stroke: #000000; stroke-opacity: 0.7; stroke-width: 0.5"/>
    <path d="M 472.515108 426.043264 
L 472.515108 425.912189 
L 472.384033 425.912189 
L 472.384033 426.043264 
L 472.515108 426.043264 
" clip-path="url(#pf58d1793cc)" style="fill: #ff0000; fill-opacity: 0.7; stroke: #000000; stroke-opacity: 0.7; stroke-width: 0.5"/>
    <path d="M 587.500497 377.660518 
L 587.500497 377.529443 
L 587.369421 377.529443 
L 587.369421 377.660518 
L 587.500497 377.660518 
" clip-path="url(#pf58d1793cc)" style="fill: #ff0000; fill-opacity: 0.7; stroke: #000000; stroke-opacity: 0.7; stroke-width: 0.5"/>
    <path d="M 348.67944 424.015754 
L 348.67944 423.884679 
L 348.548365 423.884679 
L 348.548365 424.015754 
L 348.67944 424.015754 
" clip-path="url(#pf58d1793cc)" style="fill: #ff0000; fill-opacity: 0.7; stroke: #000000; stroke-opacity: 0.7; stroke-width: 0.5"/>
    <path d="M 253.380243 411.514682 
L 253.380243 411.383607 
L 253.249168 411.383607 
L 253.249168 411.514682 
L 253.380243 411.514682 
" clip-path="url(#pf58d1793cc)" style="fill: #ff0000; fill-opacity: 0.7; stroke: #000000; stroke-opacity: 0.7; stroke-width: 0.5"/>
    <path d="M 586.431758 382.996829 
L 586.431758 382.865754 
L 586.300683 382.865754 
L 586.300683 382.996829 
L 586.431758 382.996829 
" clip-path="url(#pf58d1793cc)" style="fill: #ff0000; fill-opacity: 0.7; stroke: #000000; stroke-opacity: 0.7; stroke-width: 0.5"/>
    <path d="M 312.027948 435.663633 
L 312.027948 435.532558 
L 311.896873 435.532558 
L 311.896873 435.663633 
L 312.027948 435.663633 
" clip-path="url(#pf58d1793cc)" style="fill: #ff0000; fill-opacity: 0.7; stroke: #000000; stroke-opacity: 0.7; stroke-width: 0.5"/>
    <path d="M 422.674683 389.863335 
L 422.674683 389.73226 
L 422.543608 389.73226 
L 422.543608 389.863335 
L 422.674683 389.863335 
" clip-path="url(#pf58d1793cc)" style="fill: #ff0000; fill-opacity: 0.7; stroke: #000000; stroke-opacity: 0.7; stroke-width: 0.5"/>
    <path d="M 348.67944 424.015754 
L 348.67944 423.884679 
L 348.548365 423.884679 
L 348.548365 424.015754 
L 348.67944 424.015754 
" clip-path="url(#pf58d1793cc)" style="fill: #ff0000; fill-opacity: 0.7; stroke: #000000; stroke-opacity: 0.7; stroke-width: 0.5"/>
    <path d="M 348.67944 424.015754 
L 348.67944 423.884679 
L 348.548365 423.884679 
L 348.548365 424.015754 
L 348.67944 424.015754 
" clip-path="url(#pf58d1793cc)" style="fill: #ff0000; fill-opacity: 0.7; stroke: #000000; stroke-opacity: 0.7; stroke-width: 0.5"/>
    <path d="M 565.163587 353.570607 
L 565.163587 353.439532 
L 565.032512 353.439532 
L 565.032512 353.570607 
L 565.163587 353.570607 
" clip-path="url(#pf58d1793cc)" style="fill: #ff0000; fill-opacity: 0.7; stroke: #000000; stroke-opacity: 0.7; stroke-width: 0.5"/>
    <path d="M 267.742432 314.358796 
L 267.742432 314.227721 
L 267.611357 314.227721 
L 267.611357 314.358796 
L 267.742432 314.358796 
" clip-path="url(#pf58d1793cc)" style="fill: #ff0000; fill-opacity: 0.7; stroke: #000000; stroke-opacity: 0.7; stroke-width: 0.5"/>
    <path d="M 342.647272 395.109828 
L 342.647272 394.978753 
L 342.516197 394.978753 
L 342.516197 395.109828 
L 342.647272 395.109828 
" clip-path="url(#pf58d1793cc)" style="fill: #ff0000; fill-opacity: 0.7; stroke: #000000; stroke-opacity: 0.7; stroke-width: 0.5"/>
    <path d="M 275.65014 404.114375 
L 275.65014 403.9833 
L 275.519064 403.9833 
L 275.519064 404.114375 
L 275.65014 404.114375 
" clip-path="url(#pf58d1793cc)" style="fill: #ff0000; fill-opacity: 0.7; stroke: #000000; stroke-opacity: 0.7; stroke-width: 0.5"/>
    <path d="M 528.893596 370.714215 
L 528.893596 370.58314 
L 528.762521 370.58314 
L 528.762521 370.714215 
L 528.893596 370.714215 
" clip-path="url(#pf58d1793cc)" style="fill: #ff0000; fill-opacity: 0.7; stroke: #000000; stroke-opacity: 0.7; stroke-width: 0.5"/>
    <path d="M 558.291904 385.050509 
L 558.291904 384.919434 
L 558.160828 384.919434 
L 558.160828 385.050509 
L 558.291904 385.050509 
" clip-path="url(#pf58d1793cc)" style="fill: #ff0000; fill-opacity: 0.7; stroke: #000000; stroke-opacity: 0.7; stroke-width: 0.5"/>
    <path d="M 288.480148 363.397756 
L 288.480148 363.266681 
L 288.349073 363.266681 
L 288.349073 363.397756 
L 288.480148 363.397756 
" clip-path="url(#pf58d1793cc)" style="fill: #ff0000; fill-opacity: 0.7; stroke: #000000; stroke-opacity: 0.7; stroke-width: 0.5"/>
    <path d="M 290.887671 357.842128 
L 290.887671 357.711052 
L 290.756596 357.711052 
L 290.756596 357.842128 
L 290.887671 357.842128 
" clip-path="url(#pf58d1793cc)" style="fill: #ff0000; fill-opacity: 0.7; stroke: #000000; stroke-opacity: 0.7; stroke-width: 0.5"/>
    <path d="M 283.303665 403.357898 
L 283.303665 403.226823 
L 283.17259 403.226823 
L 283.17259 403.357898 
L 283.303665 403.357898 
" clip-path="url(#pf58d1793cc)" style="fill: #ff0000; fill-opacity: 0.7; stroke: #000000; stroke-opacity: 0.7; stroke-width: 0.5"/>
    <path d="M 312.58775 439.434944 
L 312.58775 439.303868 
L 312.456675 439.303868 
L 312.456675 439.434944 
L 312.58775 439.434944 
" clip-path="url(#pf58d1793cc)" style="fill: #ff0000; fill-opacity: 0.7; stroke: #000000; stroke-opacity: 0.7; stroke-width: 0.5"/>
    <path d="M 238.447148 360.880963 
L 238.447148 360.749888 
L 238.316073 360.749888 
L 238.316073 360.880963 
L 238.447148 360.880963 
" clip-path="url(#pf58d1793cc)" style="fill: #ff0000; fill-opacity: 0.7; stroke: #000000; stroke-opacity: 0.7; stroke-width: 0.5"/>
    <path d="M 314.689755 423.307299 
L 314.689755 423.176224 
L 314.55868 423.176224 
L 314.55868 423.307299 
L 314.689755 423.307299 
" clip-path="url(#pf58d1793cc)" style="fill: #ff0000; fill-opacity: 0.7; stroke: #000000; stroke-opacity: 0.7; stroke-width: 0.5"/>
    <path d="M 585.637193 359.702363 
L 585.637193 359.571288 
L 585.506118 359.571288 
L 585.506118 359.702363 
L 585.637193 359.702363 
" clip-path="url(#pf58d1793cc)" style="fill: #ff0000; fill-opacity: 0.7; stroke: #000000; stroke-opacity: 0.7; stroke-width: 0.5"/>
    <path d="M 353.826451 421.272416 
L 353.826451 421.14134 
L 353.695376 421.14134 
L 353.695376 421.272416 
L 353.826451 421.272416 
" clip-path="url(#pf58d1793cc)" style="fill: #ff0000; fill-opacity: 0.7; stroke: #000000; stroke-opacity: 0.7; stroke-width: 0.5"/>
    <path d="M 498.226368 398.849296 
L 498.226368 398.718221 
L 498.095293 398.718221 
L 498.095293 398.849296 
L 498.226368 398.849296 
" clip-path="url(#pf58d1793cc)" style="fill: #ff0000; fill-opacity: 0.7; stroke: #000000; stroke-opacity: 0.7; stroke-width: 0.5"/>
    <path d="M 290.37881 378.303433 
L 290.37881 378.172358 
L 290.247735 378.172358 
L 290.247735 378.303433 
L 290.37881 378.303433 
" clip-path="url(#pf58d1793cc)" style="fill: #ff0000; fill-opacity: 0.7; stroke: #000000; stroke-opacity: 0.7; stroke-width: 0.5"/>
    <path d="M 550.189604 344.944689 
L 550.189604 344.813614 
L 550.058529 344.813614 
L 550.058529 344.944689 
L 550.189604 344.944689 
" clip-path="url(#pf58d1793cc)" style="fill: #ff0000; fill-opacity: 0.7; stroke: #000000; stroke-opacity: 0.7; stroke-width: 0.5"/>
    <path d="M 361.950501 392.663204 
L 361.950501 392.532129 
L 361.819426 392.532129 
L 361.819426 392.663204 
L 361.950501 392.663204 
" clip-path="url(#pf58d1793cc)" style="fill: #ff0000; fill-opacity: 0.7; stroke: #000000; stroke-opacity: 0.7; stroke-width: 0.5"/>
    <path d="M 543.495905 397.133026 
L 543.495905 397.001951 
L 543.36483 397.001951 
L 543.36483 397.133026 
L 543.495905 397.133026 
" clip-path="url(#pf58d1793cc)" style="fill: #ff0000; fill-opacity: 0.7; stroke: #000000; stroke-opacity: 0.7; stroke-width: 0.5"/>
    <path d="M 257.894009 324.138778 
L 257.894009 324.007703 
L 257.762933 324.007703 
L 257.762933 324.138778 
L 257.894009 324.138778 
" clip-path="url(#pf58d1793cc)" style="fill: #ff0000; fill-opacity: 0.7; stroke: #000000; stroke-opacity: 0.7; stroke-width: 0.5"/>
    <path d="M 290.890676 357.835937 
L 290.890676 357.704862 
L 290.759601 357.704862 
L 290.759601 357.835937 
L 290.890676 357.835937 
" clip-path="url(#pf58d1793cc)" style="fill: #ff0000; fill-opacity: 0.7; stroke: #000000; stroke-opacity: 0.7; stroke-width: 0.5"/>
    <path d="M 545.146843 402.374373 
L 545.146843 402.243298 
L 545.015768 402.243298 
L 545.015768 402.374373 
L 545.146843 402.374373 
" clip-path="url(#pf58d1793cc)" style="fill: #ff0000; fill-opacity: 0.7; stroke: #000000; stroke-opacity: 0.7; stroke-width: 0.5"/>
    <path d="M 613.518525 438.247243 
L 613.518525 438.116168 
L 613.38745 438.116168 
L 613.38745 438.247243 
L 613.518525 438.247243 
" clip-path="url(#pf58d1793cc)" style="fill: #ff0000; fill-opacity: 0.7; stroke: #000000; stroke-opacity: 0.7; stroke-width: 0.5"/>
    <path d="M 599.690516 463.837054 
L 599.690516 463.705979 
L 599.559441 463.705979 
L 599.559441 463.837054 
L 599.690516 463.837054 
" clip-path="url(#pf58d1793cc)" style="fill: #ff0000; fill-opacity: 0.7; stroke: #000000; stroke-opacity: 0.7; stroke-width: 0.5"/>
    <path d="M 500.362078 435.69371 
L 500.362078 435.562635 
L 500.231003 435.562635 
L 500.231003 435.69371 
L 500.362078 435.69371 
" clip-path="url(#pf58d1793cc)" style="fill: #ff0000; fill-opacity: 0.7; stroke: #000000; stroke-opacity: 0.7; stroke-width: 0.5"/>
    <path d="M 283.303665 403.357898 
L 283.303665 403.226823 
L 283.17259 403.226823 
L 283.17259 403.357898 
L 283.303665 403.357898 
" clip-path="url(#pf58d1793cc)" style="fill: #ff0000; fill-opacity: 0.7; stroke: #000000; stroke-opacity: 0.7; stroke-width: 0.5"/>
    <path d="M 348.574568 460.756435 
L 348.574568 460.62536 
L 348.443493 460.62536 
L 348.443493 460.756435 
L 348.574568 460.756435 
" clip-path="url(#pf58d1793cc)" style="fill: #ff0000; fill-opacity: 0.7; stroke: #000000; stroke-opacity: 0.7; stroke-width: 0.5"/>
    <path d="M 322.068623 425.211734 
L 322.068623 425.080659 
L 321.937548 425.080659 
L 321.937548 425.211734 
L 322.068623 425.211734 
" clip-path="url(#pf58d1793cc)" style="fill: #ff0000; fill-opacity: 0.7; stroke: #000000; stroke-opacity: 0.7; stroke-width: 0.5"/>
    <path d="M 476.837061 422.062544 
L 476.837061 421.931469 
L 476.705986 421.931469 
L 476.705986 422.062544 
L 476.837061 422.062544 
" clip-path="url(#pf58d1793cc)" style="fill: #ff0000; fill-opacity: 0.7; stroke: #000000; stroke-opacity: 0.7; stroke-width: 0.5"/>
    <path d="M 344.64415 395.811129 
L 344.64415 395.680054 
L 344.513075 395.680054 
L 344.513075 395.811129 
L 344.64415 395.811129 
" clip-path="url(#pf58d1793cc)" style="fill: #ff0000; fill-opacity: 0.7; stroke: #000000; stroke-opacity: 0.7; stroke-width: 0.5"/>
    <path d="M 302.375832 415.683216 
L 302.375832 415.552141 
L 302.244757 415.552141 
L 302.244757 415.683216 
L 302.375832 415.683216 
" clip-path="url(#pf58d1793cc)" style="fill: #ff0000; fill-opacity: 0.7; stroke: #000000; stroke-opacity: 0.7; stroke-width: 0.5"/>
    <path d="M 345.40848 397.204488 
L 345.40848 397.073413 
L 345.277405 397.073413 
L 345.277405 397.204488 
L 345.40848 397.204488 
" clip-path="url(#pf58d1793cc)" style="fill: #ff0000; fill-opacity: 0.7; stroke: #000000; stroke-opacity: 0.7; stroke-width: 0.5"/>
    <path d="M 336.371392 424.467131 
L 336.371392 424.336056 
L 336.240317 424.336056 
L 336.240317 424.467131 
L 336.371392 424.467131 
" clip-path="url(#pf58d1793cc)" style="fill: #ff0000; fill-opacity: 0.7; stroke: #000000; stroke-opacity: 0.7; stroke-width: 0.5"/>
    <path d="M 282.382569 407.28639 
L 282.382569 407.155315 
L 282.251494 407.155315 
L 282.251494 407.28639 
L 282.382569 407.28639 
" clip-path="url(#pf58d1793cc)" style="fill: #ff0000; fill-opacity: 0.7; stroke: #000000; stroke-opacity: 0.7; stroke-width: 0.5"/>
    <path d="M 302.375832 415.683216 
L 302.375832 415.552141 
L 302.244757 415.552141 
L 302.244757 415.683216 
L 302.375832 415.683216 
" clip-path="url(#pf58d1793cc)" style="fill: #ff0000; fill-opacity: 0.7; stroke: #000000; stroke-opacity: 0.7; stroke-width: 0.5"/>
    <path d="M 579.521356 342.481982 
L 579.521356 342.350907 
L 579.39028 342.350907 
L 579.39028 342.481982 
L 579.521356 342.481982 
" clip-path="url(#pf58d1793cc)" style="fill: #ff0000; fill-opacity: 0.7; stroke: #000000; stroke-opacity: 0.7; stroke-width: 0.5"/>
    <path d="M 296.008592 378.75313 
L 296.008592 378.622054 
L 295.877517 378.622054 
L 295.877517 378.75313 
L 296.008592 378.75313 
" clip-path="url(#pf58d1793cc)" style="fill: #ff0000; fill-opacity: 0.7; stroke: #000000; stroke-opacity: 0.7; stroke-width: 0.5"/>
    <path d="M 298.005297 379.447195 
L 298.005297 379.31612 
L 297.874222 379.31612 
L 297.874222 379.447195 
L 298.005297 379.447195 
" clip-path="url(#pf58d1793cc)" style="fill: #ff0000; fill-opacity: 0.7; stroke: #000000; stroke-opacity: 0.7; stroke-width: 0.5"/>
    <path d="M 297.073333 418.825824 
L 297.073333 418.694749 
L 296.942258 418.694749 
L 296.942258 418.825824 
L 297.073333 418.825824 
" clip-path="url(#pf58d1793cc)" style="fill: #ff0000; fill-opacity: 0.7; stroke: #000000; stroke-opacity: 0.7; stroke-width: 0.5"/>
    <path d="M 298.788035 357.703079 
L 298.788035 357.572004 
L 298.65696 357.572004 
L 298.65696 357.703079 
L 298.788035 357.703079 
" clip-path="url(#pf58d1793cc)" style="fill: #ff0000; fill-opacity: 0.7; stroke: #000000; stroke-opacity: 0.7; stroke-width: 0.5"/>
    <path d="M 497.58877 434.828262 
L 497.58877 434.697187 
L 497.457695 434.697187 
L 497.457695 434.828262 
L 497.58877 434.828262 
" clip-path="url(#pf58d1793cc)" style="fill: #ff0000; fill-opacity: 0.7; stroke: #000000; stroke-opacity: 0.7; stroke-width: 0.5"/>
    <path d="M 323.726215 441.500671 
L 323.726215 441.369596 
L 323.59514 441.369596 
L 323.59514 441.500671 
L 323.726215 441.500671 
" clip-path="url(#pf58d1793cc)" style="fill: #ff0000; fill-opacity: 0.7; stroke: #000000; stroke-opacity: 0.7; stroke-width: 0.5"/>
    <path d="M 543.495905 397.133026 
L 543.495905 397.001951 
L 543.36483 397.001951 
L 543.36483 397.133026 
L 543.495905 397.133026 
" clip-path="url(#pf58d1793cc)" style="fill: #ff0000; fill-opacity: 0.7; stroke: #000000; stroke-opacity: 0.7; stroke-width: 0.5"/>
    <path d="M 412.203646 410.574643 
L 412.203646 410.443568 
L 412.072571 410.443568 
L 412.072571 410.574643 
L 412.203646 410.574643 
" clip-path="url(#pf58d1793cc)" style="fill: #ff0000; fill-opacity: 0.7; stroke: #000000; stroke-opacity: 0.7; stroke-width: 0.5"/>
    <path d="M 615.401908 443.553386 
L 615.401908 443.422311 
L 615.270833 443.422311 
L 615.270833 443.553386 
L 615.401908 443.553386 
" clip-path="url(#pf58d1793cc)" style="fill: #ff0000; fill-opacity: 0.7; stroke: #000000; stroke-opacity: 0.7; stroke-width: 0.5"/>
    <path d="M 348.508161 365.199833 
L 348.508161 365.068758 
L 348.377086 365.068758 
L 348.377086 365.199833 
L 348.508161 365.199833 
" clip-path="url(#pf58d1793cc)" style="fill: #ff0000; fill-opacity: 0.7; stroke: #000000; stroke-opacity: 0.7; stroke-width: 0.5"/>
    <path d="M 260.615611 484.275495 
L 260.615611 484.14442 
L 260.484536 484.14442 
L 260.484536 484.275495 
L 260.615611 484.275495 
" clip-path="url(#pf58d1793cc)" style="fill: #ff0000; fill-opacity: 0.7; stroke: #000000; stroke-opacity: 0.7; stroke-width: 0.5"/>
    <path d="M 591.497015 436.213497 
L 591.497015 436.082421 
L 591.36594 436.082421 
L 591.36594 436.213497 
L 591.497015 436.213497 
" clip-path="url(#pf58d1793cc)" style="fill: #ff0000; fill-opacity: 0.7; stroke: #000000; stroke-opacity: 0.7; stroke-width: 0.5"/>
    <path d="M 598.093071 394.781957 
L 598.093071 394.650882 
L 597.961996 394.650882 
L 597.961996 394.781957 
L 598.093071 394.781957 
" clip-path="url(#pf58d1793cc)" style="fill: #ff0000; fill-opacity: 0.7; stroke: #000000; stroke-opacity: 0.7; stroke-width: 0.5"/>
    <path d="M 603.468771 414.636334 
L 603.468771 414.505259 
L 603.337696 414.505259 
L 603.337696 414.636334 
L 603.468771 414.636334 
" clip-path="url(#pf58d1793cc)" style="fill: #ff0000; fill-opacity: 0.7; stroke: #000000; stroke-opacity: 0.7; stroke-width: 0.5"/>
    <path d="M 581.099018 346.911855 
L 581.099018 346.78078 
L 580.967943 346.78078 
L 580.967943 346.911855 
L 581.099018 346.911855 
" clip-path="url(#pf58d1793cc)" style="fill: #ff0000; fill-opacity: 0.7; stroke: #000000; stroke-opacity: 0.7; stroke-width: 0.5"/>
    <path d="M 404.604459 334.814361 
L 404.604459 334.683286 
L 404.473384 334.683286 
L 404.473384 334.814361 
L 404.604459 334.814361 
" clip-path="url(#pf58d1793cc)" style="fill: #ff0000; fill-opacity: 0.7; stroke: #000000; stroke-opacity: 0.7; stroke-width: 0.5"/>
    <path d="M 323.616038 421.165917 
L 323.616038 421.034842 
L 323.484963 421.034842 
L 323.484963 421.165917 
L 323.616038 421.165917 
" clip-path="url(#pf58d1793cc)" style="fill: #ff0000; fill-opacity: 0.7; stroke: #000000; stroke-opacity: 0.7; stroke-width: 0.5"/>
    <path d="M 605.143884 438.928518 
L 605.143884 438.797443 
L 605.012809 438.797443 
L 605.012809 438.928518 
L 605.143884 438.928518 
" clip-path="url(#pf58d1793cc)" style="fill: #ff0000; fill-opacity: 0.7; stroke: #000000; stroke-opacity: 0.7; stroke-width: 0.5"/>
    <path d="M 348.967146 446.22924 
L 348.967146 446.098165 
L 348.83607 446.098165 
L 348.83607 446.22924 
L 348.967146 446.22924 
" clip-path="url(#pf58d1793cc)" style="fill: #ff0000; fill-opacity: 0.7; stroke: #000000; stroke-opacity: 0.7; stroke-width: 0.5"/>
    <path d="M 579.5215 342.481869 
L 579.5215 342.350794 
L 579.390425 342.350794 
L 579.390425 342.481869 
L 579.5215 342.481869 
" clip-path="url(#pf58d1793cc)" style="fill: #ff0000; fill-opacity: 0.7; stroke: #000000; stroke-opacity: 0.7; stroke-width: 0.5"/>
    <path d="M 532.563795 378.488659 
L 532.563795 378.357584 
L 532.43272 378.357584 
L 532.43272 378.488659 
L 532.563795 378.488659 
" clip-path="url(#pf58d1793cc)" style="fill: #ff0000; fill-opacity: 0.7; stroke: #000000; stroke-opacity: 0.7; stroke-width: 0.5"/>
    <path d="M 340.852463 385.260394 
L 340.852463 385.129319 
L 340.721388 385.129319 
L 340.721388 385.260394 
L 340.852463 385.260394 
" clip-path="url(#pf58d1793cc)" style="fill: #ff0000; fill-opacity: 0.7; stroke: #000000; stroke-opacity: 0.7; stroke-width: 0.5"/>
    <path d="M 579.5215 342.481869 
L 579.5215 342.350794 
L 579.390425 342.350794 
L 579.390425 342.481869 
L 579.5215 342.481869 
" clip-path="url(#pf58d1793cc)" style="fill: #ff0000; fill-opacity: 0.7; stroke: #000000; stroke-opacity: 0.7; stroke-width: 0.5"/>
    <path d="M 275.899411 392.027312 
L 275.899411 391.896237 
L 275.768335 391.896237 
L 275.768335 392.027312 
L 275.899411 392.027312 
" clip-path="url(#pf58d1793cc)" style="fill: #ff0000; fill-opacity: 0.7; stroke: #000000; stroke-opacity: 0.7; stroke-width: 0.5"/>
    <path d="M 572.01529 391.065038 
L 572.01529 390.933963 
L 571.884215 390.933963 
L 571.884215 391.065038 
L 572.01529 391.065038 
" clip-path="url(#pf58d1793cc)" style="fill: #ff0000; fill-opacity: 0.7; stroke: #000000; stroke-opacity: 0.7; stroke-width: 0.5"/>
    <path d="M 490.237189 356.020076 
L 490.237189 355.889001 
L 490.106114 355.889001 
L 490.106114 356.020076 
L 490.237189 356.020076 
" clip-path="url(#pf58d1793cc)" style="fill: #ff0000; fill-opacity: 0.7; stroke: #000000; stroke-opacity: 0.7; stroke-width: 0.5"/>
    <path d="M 408.709876 399.997138 
L 408.709876 399.866063 
L 408.578801 399.866063 
L 408.578801 399.997138 
L 408.709876 399.997138 
" clip-path="url(#pf58d1793cc)" style="fill: #ff0000; fill-opacity: 0.7; stroke: #000000; stroke-opacity: 0.7; stroke-width: 0.5"/>
    <path d="M 529.225843 425.849132 
L 529.225843 425.718057 
L 529.094768 425.718057 
L 529.094768 425.849132 
L 529.225843 425.849132 
" clip-path="url(#pf58d1793cc)" style="fill: #ff0000; fill-opacity: 0.7; stroke: #000000; stroke-opacity: 0.7; stroke-width: 0.5"/>
    <path d="M 280.668129 415.16364 
L 280.668129 415.032565 
L 280.537054 415.032565 
L 280.537054 415.16364 
L 280.668129 415.16364 
" clip-path="url(#pf58d1793cc)" style="fill: #ff0000; fill-opacity: 0.7; stroke: #000000; stroke-opacity: 0.7; stroke-width: 0.5"/>
    <path d="M 524.894619 394.354083 
L 524.894619 394.223008 
L 524.763544 394.223008 
L 524.763544 394.354083 
L 524.894619 394.354083 
" clip-path="url(#pf58d1793cc)" style="fill: #ff0000; fill-opacity: 0.7; stroke: #000000; stroke-opacity: 0.7; stroke-width: 0.5"/>
    <path d="M 235.315269 450.510716 
L 235.315269 450.379641 
L 235.184194 450.379641 
L 235.184194 450.510716 
L 235.315269 450.510716 
" clip-path="url(#pf58d1793cc)" style="fill: #ff0000; fill-opacity: 0.7; stroke: #000000; stroke-opacity: 0.7; stroke-width: 0.5"/>
    <path d="M 246.675205 412.190531 
L 246.675205 412.059456 
L 246.54413 412.059456 
L 246.54413 412.190531 
L 246.675205 412.190531 
" clip-path="url(#pf58d1793cc)" style="fill: #ff0000; fill-opacity: 0.7; stroke: #000000; stroke-opacity: 0.7; stroke-width: 0.5"/>
    <path d="M 344.860364 399.991911 
L 344.860364 399.860836 
L 344.729289 399.860836 
L 344.729289 399.991911 
L 344.860364 399.991911 
" clip-path="url(#pf58d1793cc)" style="fill: #ff0000; fill-opacity: 0.7; stroke: #000000; stroke-opacity: 0.7; stroke-width: 0.5"/>
    <path d="M 482.959641 410.162066 
L 482.959641 410.030991 
L 482.828566 410.030991 
L 482.828566 410.162066 
L 482.959641 410.162066 
" clip-path="url(#pf58d1793cc)" style="fill: #ff0000; fill-opacity: 0.7; stroke: #000000; stroke-opacity: 0.7; stroke-width: 0.5"/>
    <path d="M 312.820835 384.595505 
L 312.820835 384.46443 
L 312.68976 384.46443 
L 312.68976 384.595505 
L 312.820835 384.595505 
" clip-path="url(#pf58d1793cc)" style="fill: #ff0000; fill-opacity: 0.7; stroke: #000000; stroke-opacity: 0.7; stroke-width: 0.5"/>
    <path d="M 296.008592 378.75313 
L 296.008592 378.622054 
L 295.877517 378.622054 
L 295.877517 378.75313 
L 296.008592 378.75313 
" clip-path="url(#pf58d1793cc)" style="fill: #ff0000; fill-opacity: 0.7; stroke: #000000; stroke-opacity: 0.7; stroke-width: 0.5"/>
    <path d="M 348.315181 382.262296 
L 348.315181 382.131221 
L 348.184105 382.131221 
L 348.184105 382.262296 
L 348.315181 382.262296 
" clip-path="url(#pf58d1793cc)" style="fill: #ff0000; fill-opacity: 0.7; stroke: #000000; stroke-opacity: 0.7; stroke-width: 0.5"/>
    <path d="M 371.482918 439.224071 
L 371.482918 439.092996 
L 371.351843 439.092996 
L 371.351843 439.224071 
L 371.482918 439.224071 
" clip-path="url(#pf58d1793cc)" style="fill: #ff0000; fill-opacity: 0.7; stroke: #000000; stroke-opacity: 0.7; stroke-width: 0.5"/>
    <path d="M 257.825475 356.575963 
L 257.825475 356.444888 
L 257.694399 356.444888 
L 257.694399 356.575963 
L 257.825475 356.575963 
" clip-path="url(#pf58d1793cc)" style="fill: #ff0000; fill-opacity: 0.7; stroke: #000000; stroke-opacity: 0.7; stroke-width: 0.5"/>
    <path d="M 579.5215 342.481869 
L 579.5215 342.350794 
L 579.390425 342.350794 
L 579.390425 342.481869 
L 579.5215 342.481869 
" clip-path="url(#pf58d1793cc)" style="fill: #ff0000; fill-opacity: 0.7; stroke: #000000; stroke-opacity: 0.7; stroke-width: 0.5"/>
    <path d="M 576.401964 400.534183 
L 576.401964 400.403108 
L 576.270889 400.403108 
L 576.270889 400.534183 
L 576.401964 400.534183 
" clip-path="url(#pf58d1793cc)" style="fill: #ff0000; fill-opacity: 0.7; stroke: #000000; stroke-opacity: 0.7; stroke-width: 0.5"/>
    <path d="M 405.62775 347.606801 
L 405.62775 347.475726 
L 405.496675 347.475726 
L 405.496675 347.606801 
L 405.62775 347.606801 
" clip-path="url(#pf58d1793cc)" style="fill: #ff0000; fill-opacity: 0.7; stroke: #000000; stroke-opacity: 0.7; stroke-width: 0.5"/>
    <path d="M 382.547903 376.7908 
L 382.547903 376.659725 
L 382.416828 376.659725 
L 382.416828 376.7908 
L 382.547903 376.7908 
" clip-path="url(#pf58d1793cc)" style="fill: #ff0000; fill-opacity: 0.7; stroke: #000000; stroke-opacity: 0.7; stroke-width: 0.5"/>
    <path d="M 594.398243 384.366406 
L 594.398243 384.235331 
L 594.267168 384.235331 
L 594.267168 384.366406 
L 594.398243 384.366406 
" clip-path="url(#pf58d1793cc)" style="fill: #ff0000; fill-opacity: 0.7; stroke: #000000; stroke-opacity: 0.7; stroke-width: 0.5"/>
    <path d="M 589.416513 370.382638 
L 589.416513 370.251563 
L 589.285438 370.251563 
L 589.285438 370.382638 
L 589.416513 370.382638 
" clip-path="url(#pf58d1793cc)" style="fill: #ff0000; fill-opacity: 0.7; stroke: #000000; stroke-opacity: 0.7; stroke-width: 0.5"/>
    <path d="M 242.880782 368.437845 
L 242.880782 368.30677 
L 242.749707 368.30677 
L 242.749707 368.437845 
L 242.880782 368.437845 
" clip-path="url(#pf58d1793cc)" style="fill: #ff0000; fill-opacity: 0.7; stroke: #000000; stroke-opacity: 0.7; stroke-width: 0.5"/>
    <path d="M 348.679586 424.015626 
L 348.679586 423.884551 
L 348.548511 423.884551 
L 348.548511 424.015626 
L 348.679586 424.015626 
" clip-path="url(#pf58d1793cc)" style="fill: #ff0000; fill-opacity: 0.7; stroke: #000000; stroke-opacity: 0.7; stroke-width: 0.5"/>
    <path d="M 285.687389 415.946417 
L 285.687389 415.815342 
L 285.556314 415.815342 
L 285.556314 415.946417 
L 285.687389 415.946417 
" clip-path="url(#pf58d1793cc)" style="fill: #ff0000; fill-opacity: 0.7; stroke: #000000; stroke-opacity: 0.7; stroke-width: 0.5"/>
    <path d="M 589.416513 370.382638 
L 589.416513 370.251563 
L 589.285438 370.251563 
L 589.285438 370.382638 
L 589.416513 370.382638 
" clip-path="url(#pf58d1793cc)" style="fill: #ff0000; fill-opacity: 0.7; stroke: #000000; stroke-opacity: 0.7; stroke-width: 0.5"/>
    <path d="M 587.648627 407.710129 
L 587.648627 407.579054 
L 587.517551 407.579054 
L 587.517551 407.710129 
L 587.648627 407.710129 
" clip-path="url(#pf58d1793cc)" style="fill: #ff0000; fill-opacity: 0.7; stroke: #000000; stroke-opacity: 0.7; stroke-width: 0.5"/>
    <path d="M 545.147 402.374128 
L 545.147 402.243053 
L 545.015925 402.243053 
L 545.015925 402.374128 
L 545.147 402.374128 
" clip-path="url(#pf58d1793cc)" style="fill: #ff0000; fill-opacity: 0.7; stroke: #000000; stroke-opacity: 0.7; stroke-width: 0.5"/>
    <path d="M 583.552393 389.491319 
L 583.552393 389.360244 
L 583.421318 389.360244 
L 583.421318 389.491319 
L 583.552393 389.491319 
" clip-path="url(#pf58d1793cc)" style="fill: #ff0000; fill-opacity: 0.7; stroke: #000000; stroke-opacity: 0.7; stroke-width: 0.5"/>
    <path d="M 279.653822 388.648388 
L 279.653822 388.517313 
L 279.522746 388.517313 
L 279.522746 388.648388 
L 279.653822 388.648388 
" clip-path="url(#pf58d1793cc)" style="fill: #ff0000; fill-opacity: 0.7; stroke: #000000; stroke-opacity: 0.7; stroke-width: 0.5"/>
    <path d="M 498.22638 398.849165 
L 498.22638 398.71809 
L 498.095305 398.71809 
L 498.095305 398.849165 
L 498.22638 398.849165 
" clip-path="url(#pf58d1793cc)" style="fill: #ff0000; fill-opacity: 0.7; stroke: #000000; stroke-opacity: 0.7; stroke-width: 0.5"/>
    <path d="M 283.737441 375.336614 
L 283.737441 375.205539 
L 283.606366 375.205539 
L 283.606366 375.336614 
L 283.737441 375.336614 
" clip-path="url(#pf58d1793cc)" style="fill: #ff0000; fill-opacity: 0.7; stroke: #000000; stroke-opacity: 0.7; stroke-width: 0.5"/>
    <path d="M 579.842231 392.103422 
L 579.842231 391.972347 
L 579.711156 391.972347 
L 579.711156 392.103422 
L 579.842231 392.103422 
" clip-path="url(#pf58d1793cc)" style="fill: #ff0000; fill-opacity: 0.7; stroke: #000000; stroke-opacity: 0.7; stroke-width: 0.5"/>
    <path d="M 331.099981 423.105523 
L 331.099981 422.974448 
L 330.968906 422.974448 
L 330.968906 423.105523 
L 331.099981 423.105523 
" clip-path="url(#pf58d1793cc)" style="fill: #ff0000; fill-opacity: 0.7; stroke: #000000; stroke-opacity: 0.7; stroke-width: 0.5"/>
    <path d="M 349.284163 434.699256 
L 349.284163 434.568181 
L 349.153088 434.568181 
L 349.153088 434.699256 
L 349.284163 434.699256 
" clip-path="url(#pf58d1793cc)" style="fill: #ff0000; fill-opacity: 0.7; stroke: #000000; stroke-opacity: 0.7; stroke-width: 0.5"/>
    <path d="M 579.5215 342.481869 
L 579.5215 342.350794 
L 579.390425 342.350794 
L 579.390425 342.481869 
L 579.5215 342.481869 
" clip-path="url(#pf58d1793cc)" style="fill: #ff0000; fill-opacity: 0.7; stroke: #000000; stroke-opacity: 0.7; stroke-width: 0.5"/>
    <path d="M 276.622507 372.131403 
L 276.622507 372.000328 
L 276.491431 372.000328 
L 276.491431 372.131403 
L 276.622507 372.131403 
" clip-path="url(#pf58d1793cc)" style="fill: #ff0000; fill-opacity: 0.7; stroke: #000000; stroke-opacity: 0.7; stroke-width: 0.5"/>
    <path d="M 601.107164 413.602164 
L 601.107164 413.471089 
L 600.976089 413.471089 
L 600.976089 413.602164 
L 601.107164 413.602164 
" clip-path="url(#pf58d1793cc)" style="fill: #ff0000; fill-opacity: 0.7; stroke: #000000; stroke-opacity: 0.7; stroke-width: 0.5"/>
    <path d="M 504.123777 394.478163 
L 504.123777 394.347088 
L 503.992701 394.347088 
L 503.992701 394.478163 
L 504.123777 394.478163 
" clip-path="url(#pf58d1793cc)" style="fill: #ff0000; fill-opacity: 0.7; stroke: #000000; stroke-opacity: 0.7; stroke-width: 0.5"/>
    <path d="M 242.880782 368.437845 
L 242.880782 368.30677 
L 242.749707 368.30677 
L 242.749707 368.437845 
L 242.880782 368.437845 
" clip-path="url(#pf58d1793cc)" style="fill: #ff0000; fill-opacity: 0.7; stroke: #000000; stroke-opacity: 0.7; stroke-width: 0.5"/>
    <path d="M 300.195223 380.208356 
L 300.195223 380.077281 
L 300.064148 380.077281 
L 300.064148 380.208356 
L 300.195223 380.208356 
" clip-path="url(#pf58d1793cc)" style="fill: #ff0000; fill-opacity: 0.7; stroke: #000000; stroke-opacity: 0.7; stroke-width: 0.5"/>
    <path d="M 167.687059 445.15269 
L 167.687059 445.021615 
L 167.555984 445.021615 
L 167.555984 445.15269 
L 167.687059 445.15269 
" clip-path="url(#pf58d1793cc)" style="fill: #ff0000; fill-opacity: 0.7; stroke: #000000; stroke-opacity: 0.7; stroke-width: 0.5"/>
    <path d="M 405.532722 408.212619 
L 405.532722 408.081544 
L 405.401647 408.081544 
L 405.401647 408.212619 
L 405.532722 408.212619 
" clip-path="url(#pf58d1793cc)" style="fill: #ff0000; fill-opacity: 0.7; stroke: #000000; stroke-opacity: 0.7; stroke-width: 0.5"/>
    <path d="M 588.248735 378.884059 
L 588.248735 378.752984 
L 588.11766 378.752984 
L 588.11766 378.884059 
L 588.248735 378.884059 
" clip-path="url(#pf58d1793cc)" style="fill: #ff0000; fill-opacity: 0.7; stroke: #000000; stroke-opacity: 0.7; stroke-width: 0.5"/>
    <path d="M 370.921836 327.205697 
L 370.921836 327.074622 
L 370.790761 327.074622 
L 370.790761 327.205697 
L 370.921836 327.205697 
" clip-path="url(#pf58d1793cc)" style="fill: #ff0000; fill-opacity: 0.7; stroke: #000000; stroke-opacity: 0.7; stroke-width: 0.5"/>
    <path d="M 569.207897 421.407076 
L 569.207897 421.276001 
L 569.076822 421.276001 
L 569.076822 421.407076 
L 569.207897 421.407076 
" clip-path="url(#pf58d1793cc)" style="fill: #ff0000; fill-opacity: 0.7; stroke: #000000; stroke-opacity: 0.7; stroke-width: 0.5"/>
    <path d="M 290.890676 357.835937 
L 290.890676 357.704862 
L 290.759601 357.704862 
L 290.759601 357.835937 
L 290.890676 357.835937 
" clip-path="url(#pf58d1793cc)" style="fill: #ff0000; fill-opacity: 0.7; stroke: #000000; stroke-opacity: 0.7; stroke-width: 0.5"/>
    <path d="M 237.061345 483.528762 
L 237.061345 483.397687 
L 236.93027 483.397687 
L 236.93027 483.528762 
L 237.061345 483.528762 
" clip-path="url(#pf58d1793cc)" style="fill: #ff0000; fill-opacity: 0.7; stroke: #000000; stroke-opacity: 0.7; stroke-width: 0.5"/>
    <path d="M 348.679586 424.015626 
L 348.679586 423.884551 
L 348.548511 423.884551 
L 348.548511 424.015626 
L 348.679586 424.015626 
" clip-path="url(#pf58d1793cc)" style="fill: #ff0000; fill-opacity: 0.7; stroke: #000000; stroke-opacity: 0.7; stroke-width: 0.5"/>
    <path d="M 530.514219 377.584286 
L 530.514219 377.453211 
L 530.383144 377.453211 
L 530.383144 377.584286 
L 530.514219 377.584286 
" clip-path="url(#pf58d1793cc)" style="fill: #ff0000; fill-opacity: 0.7; stroke: #000000; stroke-opacity: 0.7; stroke-width: 0.5"/>
    <path d="M 144.85878 352.215035 
L 144.85878 352.08396 
L 144.727705 352.08396 
L 144.727705 352.215035 
L 144.85878 352.215035 
" clip-path="url(#pf58d1793cc)" style="fill: #ff0000; fill-opacity: 0.7; stroke: #000000; stroke-opacity: 0.7; stroke-width: 0.5"/>
    <path d="M 584.898527 357.60684 
L 584.898527 357.475765 
L 584.767452 357.475765 
L 584.767452 357.60684 
L 584.898527 357.60684 
" clip-path="url(#pf58d1793cc)" style="fill: #ff0000; fill-opacity: 0.7; stroke: #000000; stroke-opacity: 0.7; stroke-width: 0.5"/>
    <path d="M 260.615611 484.275495 
L 260.615611 484.14442 
L 260.484536 484.14442 
L 260.484536 484.275495 
L 260.615611 484.275495 
" clip-path="url(#pf58d1793cc)" style="fill: #ff0000; fill-opacity: 0.7; stroke: #000000; stroke-opacity: 0.7; stroke-width: 0.5"/>
    <path d="M 495.029762 434.245441 
L 495.029762 434.114366 
L 494.898687 434.114366 
L 494.898687 434.245441 
L 495.029762 434.245441 
" clip-path="url(#pf58d1793cc)" style="fill: #ff0000; fill-opacity: 0.7; stroke: #000000; stroke-opacity: 0.7; stroke-width: 0.5"/>
    <path d="M 368.591674 334.895833 
L 368.591674 334.764758 
L 368.460599 334.764758 
L 368.460599 334.895833 
L 368.591674 334.895833 
" clip-path="url(#pf58d1793cc)" style="fill: #ff0000; fill-opacity: 0.7; stroke: #000000; stroke-opacity: 0.7; stroke-width: 0.5"/>
    <path d="M 176.090253 479.514159 
L 176.090253 479.383084 
L 175.959178 479.383084 
L 175.959178 479.514159 
L 176.090253 479.514159 
" clip-path="url(#pf58d1793cc)" style="fill: #ff0000; fill-opacity: 0.7; stroke: #000000; stroke-opacity: 0.7; stroke-width: 0.5"/>
    <path d="M 594.398243 384.366406 
L 594.398243 384.235331 
L 594.267168 384.235331 
L 594.267168 384.366406 
L 594.398243 384.366406 
" clip-path="url(#pf58d1793cc)" style="fill: #ff0000; fill-opacity: 0.7; stroke: #000000; stroke-opacity: 0.7; stroke-width: 0.5"/>
    <path d="M 279.653822 388.648374 
L 279.653822 388.517299 
L 279.522747 388.517299 
L 279.522747 388.648374 
L 279.653822 388.648374 
" clip-path="url(#pf58d1793cc)" style="fill: #ff0000; fill-opacity: 0.7; stroke: #000000; stroke-opacity: 0.7; stroke-width: 0.5"/>
    <path d="M 561.068562 386.271437 
L 561.068562 386.140362 
L 560.937487 386.140362 
L 560.937487 386.271437 
L 561.068562 386.271437 
" clip-path="url(#pf58d1793cc)" style="fill: #ff0000; fill-opacity: 0.7; stroke: #000000; stroke-opacity: 0.7; stroke-width: 0.5"/>
    <path d="M 381.981675 336.547138 
L 381.981675 336.416062 
L 381.8506 336.416062 
L 381.8506 336.547138 
L 381.981675 336.547138 
" clip-path="url(#pf58d1793cc)" style="fill: #ff0000; fill-opacity: 0.7; stroke: #000000; stroke-opacity: 0.7; stroke-width: 0.5"/>
    <path d="M 408.700657 400.000565 
L 408.700657 399.86949 
L 408.569582 399.86949 
L 408.569582 400.000565 
L 408.700657 400.000565 
" clip-path="url(#pf58d1793cc)" style="fill: #ff0000; fill-opacity: 0.7; stroke: #000000; stroke-opacity: 0.7; stroke-width: 0.5"/>
    <path d="M 246.675205 412.190531 
L 246.675205 412.059456 
L 246.54413 412.059456 
L 246.54413 412.190531 
L 246.675205 412.190531 
" clip-path="url(#pf58d1793cc)" style="fill: #ff0000; fill-opacity: 0.7; stroke: #000000; stroke-opacity: 0.7; stroke-width: 0.5"/>
    <path d="M 471.773927 418.442903 
L 471.773927 418.311828 
L 471.642852 418.311828 
L 471.642852 418.442903 
L 471.773927 418.442903 
" clip-path="url(#pf58d1793cc)" style="fill: #ff0000; fill-opacity: 0.7; stroke: #000000; stroke-opacity: 0.7; stroke-width: 0.5"/>
    <path d="M 597.948909 440.495417 
L 597.948909 440.364342 
L 597.817834 440.364342 
L 597.817834 440.495417 
L 597.948909 440.495417 
" clip-path="url(#pf58d1793cc)" style="fill: #ff0000; fill-opacity: 0.7; stroke: #000000; stroke-opacity: 0.7; stroke-width: 0.5"/>
    <path d="M 247.311203 369.747675 
L 247.311203 369.6166 
L 247.180128 369.6166 
L 247.180128 369.747675 
L 247.311203 369.747675 
" clip-path="url(#pf58d1793cc)" style="fill: #ff0000; fill-opacity: 0.7; stroke: #000000; stroke-opacity: 0.7; stroke-width: 0.5"/>
    <path d="M 344.966769 456.163953 
L 344.966769 456.032878 
L 344.835694 456.032878 
L 344.835694 456.163953 
L 344.966769 456.163953 
" clip-path="url(#pf58d1793cc)" style="fill: #ff0000; fill-opacity: 0.7; stroke: #000000; stroke-opacity: 0.7; stroke-width: 0.5"/>
    <path d="M 297.073333 418.825824 
L 297.073333 418.694749 
L 296.942258 418.694749 
L 296.942258 418.825824 
L 297.073333 418.825824 
" clip-path="url(#pf58d1793cc)" style="fill: #ff0000; fill-opacity: 0.7; stroke: #000000; stroke-opacity: 0.7; stroke-width: 0.5"/>
    <path d="M 352.096278 398.433778 
L 352.096278 398.302703 
L 351.965203 398.302703 
L 351.965203 398.433778 
L 352.096278 398.433778 
" clip-path="url(#pf58d1793cc)" style="fill: #ff0000; fill-opacity: 0.7; stroke: #000000; stroke-opacity: 0.7; stroke-width: 0.5"/>
    <path d="M 285.753949 452.935339 
L 285.753949 452.804264 
L 285.622874 452.804264 
L 285.622874 452.935339 
L 285.753949 452.935339 
" clip-path="url(#pf58d1793cc)" style="fill: #ff0000; fill-opacity: 0.7; stroke: #000000; stroke-opacity: 0.7; stroke-width: 0.5"/>
    <path d="M 183.678945 481.812811 
L 183.678945 481.681736 
L 183.54787 481.681736 
L 183.54787 481.812811 
L 183.678945 481.812811 
" clip-path="url(#pf58d1793cc)" style="fill: #ff0000; fill-opacity: 0.7; stroke: #000000; stroke-opacity: 0.7; stroke-width: 0.5"/>
    <path d="M 188.624363 383.847074 
L 188.624363 383.715999 
L 188.493288 383.715999 
L 188.493288 383.847074 
L 188.624363 383.847074 
" clip-path="url(#pf58d1793cc)" style="fill: #ff0000; fill-opacity: 0.7; stroke: #000000; stroke-opacity: 0.7; stroke-width: 0.5"/>
    <path d="M 234.297267 483.433593 
L 234.297267 483.302518 
L 234.166192 483.302518 
L 234.166192 483.433593 
L 234.297267 483.433593 
" clip-path="url(#pf58d1793cc)" style="fill: #ff0000; fill-opacity: 0.7; stroke: #000000; stroke-opacity: 0.7; stroke-width: 0.5"/>
    <path d="M 343.431806 407.292546 
L 343.431806 407.161471 
L 343.300731 407.161471 
L 343.300731 407.292546 
L 343.431806 407.292546 
" clip-path="url(#pf58d1793cc)" style="fill: #ff0000; fill-opacity: 0.7; stroke: #000000; stroke-opacity: 0.7; stroke-width: 0.5"/>
    <path d="M 256.642587 348.577293 
L 256.642587 348.446218 
L 256.511512 348.446218 
L 256.511512 348.577293 
L 256.642587 348.577293 
" clip-path="url(#pf58d1793cc)" style="fill: #ff0000; fill-opacity: 0.7; stroke: #000000; stroke-opacity: 0.7; stroke-width: 0.5"/>
    <path d="M 370.921845 327.205683 
L 370.921845 327.074608 
L 370.79077 327.074608 
L 370.79077 327.205683 
L 370.921845 327.205683 
" clip-path="url(#pf58d1793cc)" style="fill: #ff0000; fill-opacity: 0.7; stroke: #000000; stroke-opacity: 0.7; stroke-width: 0.5"/>
    <path d="M 425.309365 392.706812 
L 425.309365 392.575737 
L 425.17829 392.575737 
L 425.17829 392.706812 
L 425.309365 392.706812 
" clip-path="url(#pf58d1793cc)" style="fill: #ff0000; fill-opacity: 0.7; stroke: #000000; stroke-opacity: 0.7; stroke-width: 0.5"/>
    <path d="M 280.238863 321.829854 
L 280.238863 321.698779 
L 280.107788 321.698779 
L 280.107788 321.829854 
L 280.238863 321.829854 
" clip-path="url(#pf58d1793cc)" style="fill: #ff0000; fill-opacity: 0.7; stroke: #000000; stroke-opacity: 0.7; stroke-width: 0.5"/>
    <path d="M 329.671087 390.542869 
L 329.671087 390.411794 
L 329.540012 390.411794 
L 329.540012 390.542869 
L 329.671087 390.542869 
" clip-path="url(#pf58d1793cc)" style="fill: #ff0000; fill-opacity: 0.7; stroke: #000000; stroke-opacity: 0.7; stroke-width: 0.5"/>
    <path d="M 593.475168 381.773138 
L 593.475168 381.642063 
L 593.344093 381.642063 
L 593.344093 381.773138 
L 593.475168 381.773138 
" clip-path="url(#pf58d1793cc)" style="fill: #ff0000; fill-opacity: 0.7; stroke: #000000; stroke-opacity: 0.7; stroke-width: 0.5"/>
    <path d="M 610.969497 431.068329 
L 610.969497 430.937253 
L 610.838422 430.937253 
L 610.838422 431.068329 
L 610.969497 431.068329 
" clip-path="url(#pf58d1793cc)" style="fill: #ff0000; fill-opacity: 0.7; stroke: #000000; stroke-opacity: 0.7; stroke-width: 0.5"/>
    <path d="M 300.188613 319.671748 
L 300.188613 319.540673 
L 300.057538 319.540673 
L 300.057538 319.671748 
L 300.188613 319.671748 
" clip-path="url(#pf58d1793cc)" style="fill: #ff0000; fill-opacity: 0.7; stroke: #000000; stroke-opacity: 0.7; stroke-width: 0.5"/>
    <path d="M 260.321371 366.637863 
L 260.321371 366.506788 
L 260.190296 366.506788 
L 260.190296 366.637863 
L 260.321371 366.637863 
" clip-path="url(#pf58d1793cc)" style="fill: #ff0000; fill-opacity: 0.7; stroke: #000000; stroke-opacity: 0.7; stroke-width: 0.5"/>
    <path d="M 236.880699 358.708532 
L 236.880699 358.577457 
L 236.749624 358.577457 
L 236.749624 358.708532 
L 236.880699 358.708532 
" clip-path="url(#pf58d1793cc)" style="fill: #ff0000; fill-opacity: 0.7; stroke: #000000; stroke-opacity: 0.7; stroke-width: 0.5"/>
    <path d="M 371.852418 374.714494 
L 371.852418 374.583418 
L 371.721343 374.583418 
L 371.721343 374.714494 
L 371.852418 374.714494 
" clip-path="url(#pf58d1793cc)" style="fill: #ff0000; fill-opacity: 0.7; stroke: #000000; stroke-opacity: 0.7; stroke-width: 0.5"/>
    <path d="M 210.931957 412.64859 
L 210.931957 412.517515 
L 210.800882 412.517515 
L 210.800882 412.64859 
L 210.931957 412.64859 
" clip-path="url(#pf58d1793cc)" style="fill: #ff0000; fill-opacity: 0.7; stroke: #000000; stroke-opacity: 0.7; stroke-width: 0.5"/>
    <path d="M 614.929946 442.223297 
L 614.929946 442.092221 
L 614.798871 442.092221 
L 614.798871 442.223297 
L 614.929946 442.223297 
" clip-path="url(#pf58d1793cc)" style="fill: #ff0000; fill-opacity: 0.7; stroke: #000000; stroke-opacity: 0.7; stroke-width: 0.5"/>
    <path d="M 176.090262 479.514144 
L 176.090262 479.383069 
L 175.959187 479.383069 
L 175.959187 479.514144 
L 176.090262 479.514144 
" clip-path="url(#pf58d1793cc)" style="fill: #ff0000; fill-opacity: 0.7; stroke: #000000; stroke-opacity: 0.7; stroke-width: 0.5"/>
    <path d="M 408.016234 409.093074 
L 408.016234 408.961999 
L 407.885159 408.961999 
L 407.885159 409.093074 
L 408.016234 409.093074 
" clip-path="url(#pf58d1793cc)" style="fill: #ff0000; fill-opacity: 0.7; stroke: #000000; stroke-opacity: 0.7; stroke-width: 0.5"/>
    <path d="M 412.198478 410.575244 
L 412.198478 410.444169 
L 412.067403 410.444169 
L 412.067403 410.575244 
L 412.198478 410.575244 
" clip-path="url(#pf58d1793cc)" style="fill: #ff0000; fill-opacity: 0.7; stroke: #000000; stroke-opacity: 0.7; stroke-width: 0.5"/>
    <path d="M 349.242185 436.239498 
L 349.242185 436.108423 
L 349.11111 436.108423 
L 349.11111 436.239498 
L 349.242185 436.239498 
" clip-path="url(#pf58d1793cc)" style="fill: #ff0000; fill-opacity: 0.7; stroke: #000000; stroke-opacity: 0.7; stroke-width: 0.5"/>
    <path d="M 344.584683 401.398882 
L 344.584683 401.267806 
L 344.453608 401.267806 
L 344.453608 401.398882 
L 344.584683 401.398882 
" clip-path="url(#pf58d1793cc)" style="fill: #ff0000; fill-opacity: 0.7; stroke: #000000; stroke-opacity: 0.7; stroke-width: 0.5"/>
    <path d="M 352.084482 389.018421 
L 352.084482 388.887345 
L 351.953407 388.887345 
L 351.953407 389.018421 
L 352.084482 389.018421 
" clip-path="url(#pf58d1793cc)" style="fill: #ff0000; fill-opacity: 0.7; stroke: #000000; stroke-opacity: 0.7; stroke-width: 0.5"/>
    <path d="M 279.653822 388.648374 
L 279.653822 388.517299 
L 279.522747 388.517299 
L 279.522747 388.648374 
L 279.653822 388.648374 
" clip-path="url(#pf58d1793cc)" style="fill: #ff0000; fill-opacity: 0.7; stroke: #000000; stroke-opacity: 0.7; stroke-width: 0.5"/>
    <path d="M 242.134451 411.197121 
L 242.134451 411.066046 
L 242.003376 411.066046 
L 242.003376 411.197121 
L 242.134451 411.197121 
" clip-path="url(#pf58d1793cc)" style="fill: #ff0000; fill-opacity: 0.7; stroke: #000000; stroke-opacity: 0.7; stroke-width: 0.5"/>
    <path d="M 279.653822 388.648374 
L 279.653822 388.517299 
L 279.522747 388.517299 
L 279.522747 388.648374 
L 279.653822 388.648374 
" clip-path="url(#pf58d1793cc)" style="fill: #ff0000; fill-opacity: 0.7; stroke: #000000; stroke-opacity: 0.7; stroke-width: 0.5"/>
    <path d="M 437.738772 419.627937 
L 437.738772 419.496862 
L 437.607697 419.496862 
L 437.607697 419.627937 
L 437.738772 419.627937 
" clip-path="url(#pf58d1793cc)" style="fill: #ff0000; fill-opacity: 0.7; stroke: #000000; stroke-opacity: 0.7; stroke-width: 0.5"/>
    <path d="M 607.276038 440.344725 
L 607.276038 440.21365 
L 607.144963 440.21365 
L 607.144963 440.344725 
L 607.276038 440.344725 
" clip-path="url(#pf58d1793cc)" style="fill: #ff0000; fill-opacity: 0.7; stroke: #000000; stroke-opacity: 0.7; stroke-width: 0.5"/>
    <path d="M 584.898527 357.606826 
L 584.898527 357.475751 
L 584.767452 357.475751 
L 584.767452 357.606826 
L 584.898527 357.606826 
" clip-path="url(#pf58d1793cc)" style="fill: #ff0000; fill-opacity: 0.7; stroke: #000000; stroke-opacity: 0.7; stroke-width: 0.5"/>
    <path d="M 297.073333 418.825809 
L 297.073333 418.694734 
L 296.942258 418.694734 
L 296.942258 418.825809 
L 297.073333 418.825809 
" clip-path="url(#pf58d1793cc)" style="fill: #ff0000; fill-opacity: 0.7; stroke: #000000; stroke-opacity: 0.7; stroke-width: 0.5"/>
    <path d="M 338.471677 424.999764 
L 338.471677 424.868688 
L 338.340602 424.868688 
L 338.340602 424.999764 
L 338.471677 424.999764 
" clip-path="url(#pf58d1793cc)" style="fill: #ff0000; fill-opacity: 0.7; stroke: #000000; stroke-opacity: 0.7; stroke-width: 0.5"/>
    <path d="M 511.306366 406.204261 
L 511.306366 406.073186 
L 511.175291 406.073186 
L 511.175291 406.204261 
L 511.306366 406.204261 
" clip-path="url(#pf58d1793cc)" style="fill: #ff0000; fill-opacity: 0.7; stroke: #000000; stroke-opacity: 0.7; stroke-width: 0.5"/>
   </g>
   <g id="matplotlib.axis_1">
    <g id="xtick_1">
     <g id="line2d_1">
      <defs>
       <path id="md38f53a045" d="M 0 0 
L 0 3.5 
" style="stroke: #000000; stroke-width: 0.8"/>
      </defs>
      <g>
       <use xlink:href="#md38f53a045" x="152.517259" y="538.707511" style="stroke: #000000; stroke-width: 0.8"/>
      </g>
     </g>
     <g id="text_1">
      <!-- 389500 -->
      <g transform="translate(133.429759 553.305948) scale(0.1 -0.1)">
       <defs>
        <path id="DejaVuSans-33" d="M 2597 2516 
Q 3050 2419 3304 2112 
Q 3559 1806 3559 1356 
Q 3559 666 3084 287 
Q 2609 -91 1734 -91 
Q 1441 -91 1130 -33 
Q 819 25 488 141 
L 488 750 
Q 750 597 1062 519 
Q 1375 441 1716 441 
Q 2309 441 2620 675 
Q 2931 909 2931 1356 
Q 2931 1769 2642 2001 
Q 2353 2234 1838 2234 
L 1294 2234 
L 1294 2753 
L 1863 2753 
Q 2328 2753 2575 2939 
Q 2822 3125 2822 3475 
Q 2822 3834 2567 4026 
Q 2313 4219 1838 4219 
Q 1578 4219 1281 4162 
Q 984 4106 628 3988 
L 628 4550 
Q 988 4650 1302 4700 
Q 1616 4750 1894 4750 
Q 2613 4750 3031 4423 
Q 3450 4097 3450 3541 
Q 3450 3153 3228 2886 
Q 3006 2619 2597 2516 
z
" transform="scale(0.015625)"/>
        <path id="DejaVuSans-38" d="M 2034 2216 
Q 1584 2216 1326 1975 
Q 1069 1734 1069 1313 
Q 1069 891 1326 650 
Q 1584 409 2034 409 
Q 2484 409 2743 651 
Q 3003 894 3003 1313 
Q 3003 1734 2745 1975 
Q 2488 2216 2034 2216 
z
M 1403 2484 
Q 997 2584 770 2862 
Q 544 3141 544 3541 
Q 544 4100 942 4425 
Q 1341 4750 2034 4750 
Q 2731 4750 3128 4425 
Q 3525 4100 3525 3541 
Q 3525 3141 3298 2862 
Q 3072 2584 2669 2484 
Q 3125 2378 3379 2068 
Q 3634 1759 3634 1313 
Q 3634 634 3220 271 
Q 2806 -91 2034 -91 
Q 1263 -91 848 271 
Q 434 634 434 1313 
Q 434 1759 690 2068 
Q 947 2378 1403 2484 
z
M 1172 3481 
Q 1172 3119 1398 2916 
Q 1625 2713 2034 2713 
Q 2441 2713 2670 2916 
Q 2900 3119 2900 3481 
Q 2900 3844 2670 4047 
Q 2441 4250 2034 4250 
Q 1625 4250 1398 4047 
Q 1172 3844 1172 3481 
z
" transform="scale(0.015625)"/>
        <path id="DejaVuSans-39" d="M 703 97 
L 703 672 
Q 941 559 1184 500 
Q 1428 441 1663 441 
Q 2288 441 2617 861 
Q 2947 1281 2994 2138 
Q 2813 1869 2534 1725 
Q 2256 1581 1919 1581 
Q 1219 1581 811 2004 
Q 403 2428 403 3163 
Q 403 3881 828 4315 
Q 1253 4750 1959 4750 
Q 2769 4750 3195 4129 
Q 3622 3509 3622 2328 
Q 3622 1225 3098 567 
Q 2575 -91 1691 -91 
Q 1453 -91 1209 -44 
Q 966 3 703 97 
z
M 1959 2075 
Q 2384 2075 2632 2365 
Q 2881 2656 2881 3163 
Q 2881 3666 2632 3958 
Q 2384 4250 1959 4250 
Q 1534 4250 1286 3958 
Q 1038 3666 1038 3163 
Q 1038 2656 1286 2365 
Q 1534 2075 1959 2075 
z
" transform="scale(0.015625)"/>
        <path id="DejaVuSans-35" d="M 691 4666 
L 3169 4666 
L 3169 4134 
L 1269 4134 
L 1269 2991 
Q 1406 3038 1543 3061 
Q 1681 3084 1819 3084 
Q 2600 3084 3056 2656 
Q 3513 2228 3513 1497 
Q 3513 744 3044 326 
Q 2575 -91 1722 -91 
Q 1428 -91 1123 -41 
Q 819 9 494 109 
L 494 744 
Q 775 591 1075 516 
Q 1375 441 1709 441 
Q 2250 441 2565 725 
Q 2881 1009 2881 1497 
Q 2881 1984 2565 2268 
Q 2250 2553 1709 2553 
Q 1456 2553 1204 2497 
Q 953 2441 691 2322 
L 691 4666 
z
" transform="scale(0.015625)"/>
        <path id="DejaVuSans-30" d="M 2034 4250 
Q 1547 4250 1301 3770 
Q 1056 3291 1056 2328 
Q 1056 1369 1301 889 
Q 1547 409 2034 409 
Q 2525 409 2770 889 
Q 3016 1369 3016 2328 
Q 3016 3291 2770 3770 
Q 2525 4250 2034 4250 
z
M 2034 4750 
Q 2819 4750 3233 4129 
Q 3647 3509 3647 2328 
Q 3647 1150 3233 529 
Q 2819 -91 2034 -91 
Q 1250 -91 836 529 
Q 422 1150 422 2328 
Q 422 3509 836 4129 
Q 1250 4750 2034 4750 
z
" transform="scale(0.015625)"/>
       </defs>
       <use xlink:href="#DejaVuSans-33"/>
       <use xlink:href="#DejaVuSans-38" x="63.623047"/>
       <use xlink:href="#DejaVuSans-39" x="127.246094"/>
       <use xlink:href="#DejaVuSans-35" x="190.869141"/>
       <use xlink:href="#DejaVuSans-30" x="254.492188"/>
       <use xlink:href="#DejaVuSans-30" x="318.115234"/>
      </g>
     </g>
    </g>
    <g id="xtick_2">
     <g id="line2d_2">
      <g>
       <use xlink:href="#md38f53a045" x="218.054796" y="538.707511" style="stroke: #000000; stroke-width: 0.8"/>
      </g>
     </g>
     <g id="text_2">
      <!-- 390000 -->
      <g transform="translate(198.967296 553.305948) scale(0.1 -0.1)">
       <use xlink:href="#DejaVuSans-33"/>
       <use xlink:href="#DejaVuSans-39" x="63.623047"/>
       <use xlink:href="#DejaVuSans-30" x="127.246094"/>
       <use xlink:href="#DejaVuSans-30" x="190.869141"/>
       <use xlink:href="#DejaVuSans-30" x="254.492188"/>
       <use xlink:href="#DejaVuSans-30" x="318.115234"/>
      </g>
     </g>
    </g>
    <g id="xtick_3">
     <g id="line2d_3">
      <g>
       <use xlink:href="#md38f53a045" x="283.592333" y="538.707511" style="stroke: #000000; stroke-width: 0.8"/>
      </g>
     </g>
     <g id="text_3">
      <!-- 390500 -->
      <g transform="translate(264.504833 553.305948) scale(0.1 -0.1)">
       <use xlink:href="#DejaVuSans-33"/>
       <use xlink:href="#DejaVuSans-39" x="63.623047"/>
       <use xlink:href="#DejaVuSans-30" x="127.246094"/>
       <use xlink:href="#DejaVuSans-35" x="190.869141"/>
       <use xlink:href="#DejaVuSans-30" x="254.492188"/>
       <use xlink:href="#DejaVuSans-30" x="318.115234"/>
      </g>
     </g>
    </g>
    <g id="xtick_4">
     <g id="line2d_4">
      <g>
       <use xlink:href="#md38f53a045" x="349.129871" y="538.707511" style="stroke: #000000; stroke-width: 0.8"/>
      </g>
     </g>
     <g id="text_4">
      <!-- 391000 -->
      <g transform="translate(330.042371 553.305948) scale(0.1 -0.1)">
       <defs>
        <path id="DejaVuSans-31" d="M 794 531 
L 1825 531 
L 1825 4091 
L 703 3866 
L 703 4441 
L 1819 4666 
L 2450 4666 
L 2450 531 
L 3481 531 
L 3481 0 
L 794 0 
L 794 531 
z
" transform="scale(0.015625)"/>
       </defs>
       <use xlink:href="#DejaVuSans-33"/>
       <use xlink:href="#DejaVuSans-39" x="63.623047"/>
       <use xlink:href="#DejaVuSans-31" x="127.246094"/>
       <use xlink:href="#DejaVuSans-30" x="190.869141"/>
       <use xlink:href="#DejaVuSans-30" x="254.492188"/>
       <use xlink:href="#DejaVuSans-30" x="318.115234"/>
      </g>
     </g>
    </g>
    <g id="xtick_5">
     <g id="line2d_5">
      <g>
       <use xlink:href="#md38f53a045" x="414.667408" y="538.707511" style="stroke: #000000; stroke-width: 0.8"/>
      </g>
     </g>
     <g id="text_5">
      <!-- 391500 -->
      <g transform="translate(395.579908 553.305948) scale(0.1 -0.1)">
       <use xlink:href="#DejaVuSans-33"/>
       <use xlink:href="#DejaVuSans-39" x="63.623047"/>
       <use xlink:href="#DejaVuSans-31" x="127.246094"/>
       <use xlink:href="#DejaVuSans-35" x="190.869141"/>
       <use xlink:href="#DejaVuSans-30" x="254.492188"/>
       <use xlink:href="#DejaVuSans-30" x="318.115234"/>
      </g>
     </g>
    </g>
    <g id="xtick_6">
     <g id="line2d_6">
      <g>
       <use xlink:href="#md38f53a045" x="480.204945" y="538.707511" style="stroke: #000000; stroke-width: 0.8"/>
      </g>
     </g>
     <g id="text_6">
      <!-- 392000 -->
      <g transform="translate(461.117445 553.305948) scale(0.1 -0.1)">
       <defs>
        <path id="DejaVuSans-32" d="M 1228 531 
L 3431 531 
L 3431 0 
L 469 0 
L 469 531 
Q 828 903 1448 1529 
Q 2069 2156 2228 2338 
Q 2531 2678 2651 2914 
Q 2772 3150 2772 3378 
Q 2772 3750 2511 3984 
Q 2250 4219 1831 4219 
Q 1534 4219 1204 4116 
Q 875 4013 500 3803 
L 500 4441 
Q 881 4594 1212 4672 
Q 1544 4750 1819 4750 
Q 2544 4750 2975 4387 
Q 3406 4025 3406 3419 
Q 3406 3131 3298 2873 
Q 3191 2616 2906 2266 
Q 2828 2175 2409 1742 
Q 1991 1309 1228 531 
z
" transform="scale(0.015625)"/>
       </defs>
       <use xlink:href="#DejaVuSans-33"/>
       <use xlink:href="#DejaVuSans-39" x="63.623047"/>
       <use xlink:href="#DejaVuSans-32" x="127.246094"/>
       <use xlink:href="#DejaVuSans-30" x="190.869141"/>
       <use xlink:href="#DejaVuSans-30" x="254.492188"/>
       <use xlink:href="#DejaVuSans-30" x="318.115234"/>
      </g>
     </g>
    </g>
    <g id="xtick_7">
     <g id="line2d_7">
      <g>
       <use xlink:href="#md38f53a045" x="545.742482" y="538.707511" style="stroke: #000000; stroke-width: 0.8"/>
      </g>
     </g>
     <g id="text_7">
      <!-- 392500 -->
      <g transform="translate(526.654982 553.305948) scale(0.1 -0.1)">
       <use xlink:href="#DejaVuSans-33"/>
       <use xlink:href="#DejaVuSans-39" x="63.623047"/>
       <use xlink:href="#DejaVuSans-32" x="127.246094"/>
       <use xlink:href="#DejaVuSans-35" x="190.869141"/>
       <use xlink:href="#DejaVuSans-30" x="254.492188"/>
       <use xlink:href="#DejaVuSans-30" x="318.115234"/>
      </g>
     </g>
    </g>
    <g id="xtick_8">
     <g id="line2d_8">
      <g>
       <use xlink:href="#md38f53a045" x="611.280019" y="538.707511" style="stroke: #000000; stroke-width: 0.8"/>
      </g>
     </g>
     <g id="text_8">
      <!-- 393000 -->
      <g transform="translate(592.192519 553.305948) scale(0.1 -0.1)">
       <use xlink:href="#DejaVuSans-33"/>
       <use xlink:href="#DejaVuSans-39" x="63.623047"/>
       <use xlink:href="#DejaVuSans-33" x="127.246094"/>
       <use xlink:href="#DejaVuSans-30" x="190.869141"/>
       <use xlink:href="#DejaVuSans-30" x="254.492188"/>
       <use xlink:href="#DejaVuSans-30" x="318.115234"/>
      </g>
     </g>
    </g>
   </g>
   <g id="matplotlib.axis_2">
    <g id="ytick_1">
     <g id="line2d_9">
      <defs>
       <path id="m5e80e4cfe2" d="M 0 0 
L -3.5 0 
" style="stroke: #000000; stroke-width: 0.8"/>
      </defs>
      <g>
       <use xlink:href="#m5e80e4cfe2" x="90" y="513.528601" style="stroke: #000000; stroke-width: 0.8"/>
      </g>
     </g>
     <g id="text_9">
      <!-- 5.8160 -->
      <g transform="translate(48.009375 517.32782) scale(0.1 -0.1)">
       <defs>
        <path id="DejaVuSans-2e" d="M 684 794 
L 1344 794 
L 1344 0 
L 684 0 
L 684 794 
z
" transform="scale(0.015625)"/>
        <path id="DejaVuSans-36" d="M 2113 2584 
Q 1688 2584 1439 2293 
Q 1191 2003 1191 1497 
Q 1191 994 1439 701 
Q 1688 409 2113 409 
Q 2538 409 2786 701 
Q 3034 994 3034 1497 
Q 3034 2003 2786 2293 
Q 2538 2584 2113 2584 
z
M 3366 4563 
L 3366 3988 
Q 3128 4100 2886 4159 
Q 2644 4219 2406 4219 
Q 1781 4219 1451 3797 
Q 1122 3375 1075 2522 
Q 1259 2794 1537 2939 
Q 1816 3084 2150 3084 
Q 2853 3084 3261 2657 
Q 3669 2231 3669 1497 
Q 3669 778 3244 343 
Q 2819 -91 2113 -91 
Q 1303 -91 875 529 
Q 447 1150 447 2328 
Q 447 3434 972 4092 
Q 1497 4750 2381 4750 
Q 2619 4750 2861 4703 
Q 3103 4656 3366 4563 
z
" transform="scale(0.015625)"/>
       </defs>
       <use xlink:href="#DejaVuSans-35"/>
       <use xlink:href="#DejaVuSans-2e" x="63.623047"/>
       <use xlink:href="#DejaVuSans-38" x="95.410156"/>
       <use xlink:href="#DejaVuSans-31" x="159.033203"/>
       <use xlink:href="#DejaVuSans-36" x="222.65625"/>
       <use xlink:href="#DejaVuSans-30" x="286.279297"/>
      </g>
     </g>
    </g>
    <g id="ytick_2">
     <g id="line2d_10">
      <g>
       <use xlink:href="#m5e80e4cfe2" x="90" y="447.991064" style="stroke: #000000; stroke-width: 0.8"/>
      </g>
     </g>
     <g id="text_10">
      <!-- 5.8165 -->
      <g transform="translate(48.009375 451.790283) scale(0.1 -0.1)">
       <use xlink:href="#DejaVuSans-35"/>
       <use xlink:href="#DejaVuSans-2e" x="63.623047"/>
       <use xlink:href="#DejaVuSans-38" x="95.410156"/>
       <use xlink:href="#DejaVuSans-31" x="159.033203"/>
       <use xlink:href="#DejaVuSans-36" x="222.65625"/>
       <use xlink:href="#DejaVuSans-35" x="286.279297"/>
      </g>
     </g>
    </g>
    <g id="ytick_3">
     <g id="line2d_11">
      <g>
       <use xlink:href="#m5e80e4cfe2" x="90" y="382.453527" style="stroke: #000000; stroke-width: 0.8"/>
      </g>
     </g>
     <g id="text_11">
      <!-- 5.8170 -->
      <g transform="translate(48.009375 386.252746) scale(0.1 -0.1)">
       <defs>
        <path id="DejaVuSans-37" d="M 525 4666 
L 3525 4666 
L 3525 4397 
L 1831 0 
L 1172 0 
L 2766 4134 
L 525 4134 
L 525 4666 
z
" transform="scale(0.015625)"/>
       </defs>
       <use xlink:href="#DejaVuSans-35"/>
       <use xlink:href="#DejaVuSans-2e" x="63.623047"/>
       <use xlink:href="#DejaVuSans-38" x="95.410156"/>
       <use xlink:href="#DejaVuSans-31" x="159.033203"/>
       <use xlink:href="#DejaVuSans-37" x="222.65625"/>
       <use xlink:href="#DejaVuSans-30" x="286.279297"/>
      </g>
     </g>
    </g>
    <g id="ytick_4">
     <g id="line2d_12">
      <g>
       <use xlink:href="#m5e80e4cfe2" x="90" y="316.91599" style="stroke: #000000; stroke-width: 0.8"/>
      </g>
     </g>
     <g id="text_12">
      <!-- 5.8175 -->
      <g transform="translate(48.009375 320.715209) scale(0.1 -0.1)">
       <use xlink:href="#DejaVuSans-35"/>
       <use xlink:href="#DejaVuSans-2e" x="63.623047"/>
       <use xlink:href="#DejaVuSans-38" x="95.410156"/>
       <use xlink:href="#DejaVuSans-31" x="159.033203"/>
       <use xlink:href="#DejaVuSans-37" x="222.65625"/>
       <use xlink:href="#DejaVuSans-35" x="286.279297"/>
      </g>
     </g>
    </g>
    <g id="ytick_5">
     <g id="line2d_13">
      <g>
       <use xlink:href="#m5e80e4cfe2" x="90" y="251.378453" style="stroke: #000000; stroke-width: 0.8"/>
      </g>
     </g>
     <g id="text_13">
      <!-- 5.8180 -->
      <g transform="translate(48.009375 255.177672) scale(0.1 -0.1)">
       <use xlink:href="#DejaVuSans-35"/>
       <use xlink:href="#DejaVuSans-2e" x="63.623047"/>
       <use xlink:href="#DejaVuSans-38" x="95.410156"/>
       <use xlink:href="#DejaVuSans-31" x="159.033203"/>
       <use xlink:href="#DejaVuSans-38" x="222.65625"/>
       <use xlink:href="#DejaVuSans-30" x="286.279297"/>
      </g>
     </g>
    </g>
    <g id="text_14">
     <!-- 1e6 -->
     <g transform="translate(90 185.492489) scale(0.1 -0.1)">
      <defs>
       <path id="DejaVuSans-65" d="M 3597 1894 
L 3597 1613 
L 953 1613 
Q 991 1019 1311 708 
Q 1631 397 2203 397 
Q 2534 397 2845 478 
Q 3156 559 3463 722 
L 3463 178 
Q 3153 47 2828 -22 
Q 2503 -91 2169 -91 
Q 1331 -91 842 396 
Q 353 884 353 1716 
Q 353 2575 817 3079 
Q 1281 3584 2069 3584 
Q 2775 3584 3186 3129 
Q 3597 2675 3597 1894 
z
M 3022 2063 
Q 3016 2534 2758 2815 
Q 2500 3097 2075 3097 
Q 1594 3097 1305 2825 
Q 1016 2553 972 2059 
L 3022 2063 
z
" transform="scale(0.015625)"/>
      </defs>
      <use xlink:href="#DejaVuSans-31"/>
      <use xlink:href="#DejaVuSans-65" x="63.623047"/>
      <use xlink:href="#DejaVuSans-36" x="125.146484"/>
     </g>
    </g>
   </g>
   <g id="patch_3">
    <path d="M 90 538.707511 
L 90 188.492489 
" style="fill: none; stroke: #000000; stroke-width: 0.8; stroke-linejoin: miter; stroke-linecap: square"/>
   </g>
   <g id="patch_4">
    <path d="M 648 538.707511 
L 648 188.492489 
" style="fill: none; stroke: #000000; stroke-width: 0.8; stroke-linejoin: miter; stroke-linecap: square"/>
   </g>
   <g id="patch_5">
    <path d="M 90 538.707511 
L 648 538.707511 
" style="fill: none; stroke: #000000; stroke-width: 0.8; stroke-linejoin: miter; stroke-linecap: square"/>
   </g>
   <g id="patch_6">
    <path d="M 90 188.492489 
L 648 188.492489 
" style="fill: none; stroke: #000000; stroke-width: 0.8; stroke-linejoin: miter; stroke-linecap: square"/>
   </g>
   <g id="text_15">
    <!-- Kreuzberg_Sd -->
    <g transform="translate(299.840746 389.059183) scale(0.12 -0.12)">
     <defs>
      <path id="DejaVuSans-4b" d="M 628 4666 
L 1259 4666 
L 1259 2694 
L 3353 4666 
L 4166 4666 
L 1850 2491 
L 4331 0 
L 3500 0 
L 1259 2247 
L 1259 0 
L 628 0 
L 628 4666 
z
" transform="scale(0.015625)"/>
      <path id="DejaVuSans-72" d="M 2631 2963 
Q 2534 3019 2420 3045 
Q 2306 3072 2169 3072 
Q 1681 3072 1420 2755 
Q 1159 2438 1159 1844 
L 1159 0 
L 581 0 
L 581 3500 
L 1159 3500 
L 1159 2956 
Q 1341 3275 1631 3429 
Q 1922 3584 2338 3584 
Q 2397 3584 2469 3576 
Q 2541 3569 2628 3553 
L 2631 2963 
z
" transform="scale(0.015625)"/>
      <path id="DejaVuSans-75" d="M 544 1381 
L 544 3500 
L 1119 3500 
L 1119 1403 
Q 1119 906 1312 657 
Q 1506 409 1894 409 
Q 2359 409 2629 706 
Q 2900 1003 2900 1516 
L 2900 3500 
L 3475 3500 
L 3475 0 
L 2900 0 
L 2900 538 
Q 2691 219 2414 64 
Q 2138 -91 1772 -91 
Q 1169 -91 856 284 
Q 544 659 544 1381 
z
M 1991 3584 
L 1991 3584 
z
" transform="scale(0.015625)"/>
      <path id="DejaVuSans-7a" d="M 353 3500 
L 3084 3500 
L 3084 2975 
L 922 459 
L 3084 459 
L 3084 0 
L 275 0 
L 275 525 
L 2438 3041 
L 353 3041 
L 353 3500 
z
" transform="scale(0.015625)"/>
      <path id="DejaVuSans-62" d="M 3116 1747 
Q 3116 2381 2855 2742 
Q 2594 3103 2138 3103 
Q 1681 3103 1420 2742 
Q 1159 2381 1159 1747 
Q 1159 1113 1420 752 
Q 1681 391 2138 391 
Q 2594 391 2855 752 
Q 3116 1113 3116 1747 
z
M 1159 2969 
Q 1341 3281 1617 3432 
Q 1894 3584 2278 3584 
Q 2916 3584 3314 3078 
Q 3713 2572 3713 1747 
Q 3713 922 3314 415 
Q 2916 -91 2278 -91 
Q 1894 -91 1617 61 
Q 1341 213 1159 525 
L 1159 0 
L 581 0 
L 581 4863 
L 1159 4863 
L 1159 2969 
z
" transform="scale(0.015625)"/>
      <path id="DejaVuSans-67" d="M 2906 1791 
Q 2906 2416 2648 2759 
Q 2391 3103 1925 3103 
Q 1463 3103 1205 2759 
Q 947 2416 947 1791 
Q 947 1169 1205 825 
Q 1463 481 1925 481 
Q 2391 481 2648 825 
Q 2906 1169 2906 1791 
z
M 3481 434 
Q 3481 -459 3084 -895 
Q 2688 -1331 1869 -1331 
Q 1566 -1331 1297 -1286 
Q 1028 -1241 775 -1147 
L 775 -588 
Q 1028 -725 1275 -790 
Q 1522 -856 1778 -856 
Q 2344 -856 2625 -561 
Q 2906 -266 2906 331 
L 2906 616 
Q 2728 306 2450 153 
Q 2172 0 1784 0 
Q 1141 0 747 490 
Q 353 981 353 1791 
Q 353 2603 747 3093 
Q 1141 3584 1784 3584 
Q 2172 3584 2450 3431 
Q 2728 3278 2906 2969 
L 2906 3500 
L 3481 3500 
L 3481 434 
z
" transform="scale(0.015625)"/>
      <path id="DejaVuSans-5f" d="M 3263 -1063 
L 3263 -1509 
L -63 -1509 
L -63 -1063 
L 3263 -1063 
z
" transform="scale(0.015625)"/>
      <path id="DejaVuSans-53" d="M 3425 4513 
L 3425 3897 
Q 3066 4069 2747 4153 
Q 2428 4238 2131 4238 
Q 1616 4238 1336 4038 
Q 1056 3838 1056 3469 
Q 1056 3159 1242 3001 
Q 1428 2844 1947 2747 
L 2328 2669 
Q 3034 2534 3370 2195 
Q 3706 1856 3706 1288 
Q 3706 609 3251 259 
Q 2797 -91 1919 -91 
Q 1588 -91 1214 -16 
Q 841 59 441 206 
L 441 856 
Q 825 641 1194 531 
Q 1563 422 1919 422 
Q 2459 422 2753 634 
Q 3047 847 3047 1241 
Q 3047 1584 2836 1778 
Q 2625 1972 2144 2069 
L 1759 2144 
Q 1053 2284 737 2584 
Q 422 2884 422 3419 
Q 422 4038 858 4394 
Q 1294 4750 2059 4750 
Q 2388 4750 2728 4690 
Q 3069 4631 3425 4513 
z
" transform="scale(0.015625)"/>
      <path id="DejaVuSans-fc" d="M 544 1381 
L 544 3500 
L 1119 3500 
L 1119 1403 
Q 1119 906 1312 657 
Q 1506 409 1894 409 
Q 2359 409 2629 706 
Q 2900 1003 2900 1516 
L 2900 3500 
L 3475 3500 
L 3475 0 
L 2900 0 
L 2900 538 
Q 2691 219 2414 64 
Q 2138 -91 1772 -91 
Q 1169 -91 856 284 
Q 544 659 544 1381 
z
M 1991 3584 
L 1991 3584 
z
M 2278 4850 
L 2913 4850 
L 2913 4219 
L 2278 4219 
L 2278 4850 
z
M 1056 4850 
L 1691 4850 
L 1691 4219 
L 1056 4219 
L 1056 4850 
z
" transform="scale(0.015625)"/>
      <path id="DejaVuSans-64" d="M 2906 2969 
L 2906 4863 
L 3481 4863 
L 3481 0 
L 2906 0 
L 2906 525 
Q 2725 213 2448 61 
Q 2172 -91 1784 -91 
Q 1150 -91 751 415 
Q 353 922 353 1747 
Q 353 2572 751 3078 
Q 1150 3584 1784 3584 
Q 2172 3584 2448 3432 
Q 2725 3281 2906 2969 
z
M 947 1747 
Q 947 1113 1208 752 
Q 1469 391 1925 391 
Q 2381 391 2643 752 
Q 2906 1113 2906 1747 
Q 2906 2381 2643 2742 
Q 2381 3103 1925 3103 
Q 1469 3103 1208 2742 
Q 947 2381 947 1747 
z
" transform="scale(0.015625)"/>
     </defs>
     <use xlink:href="#DejaVuSans-4b"/>
     <use xlink:href="#DejaVuSans-72" x="65.576172"/>
     <use xlink:href="#DejaVuSans-65" x="104.439453"/>
     <use xlink:href="#DejaVuSans-75" x="165.962891"/>
     <use xlink:href="#DejaVuSans-7a" x="229.341797"/>
     <use xlink:href="#DejaVuSans-62" x="281.832031"/>
     <use xlink:href="#DejaVuSans-65" x="345.308594"/>
     <use xlink:href="#DejaVuSans-72" x="406.832031"/>
     <use xlink:href="#DejaVuSans-67" x="446.195312"/>
     <use xlink:href="#DejaVuSans-5f" x="509.671875"/>
     <use xlink:href="#DejaVuSans-53" x="559.671875"/>
     <use xlink:href="#DejaVuSans-fc" x="623.148438"/>
     <use xlink:href="#DejaVuSans-64" x="686.527344"/>
    </g>
   </g>
  </g>
 </g>
 <defs>
  <clipPath id="pf58d1793cc">
   <rect x="90" y="188.492489" width="558" height="350.215021"/>
  </clipPath>
 </defs>
</svg>
