<?xml version="1.0" encoding="utf-8" standalone="no"?>
<!DOCTYPE svg PUBLIC "-//W3C//DTD SVG 1.1//EN"
  "http://www.w3.org/Graphics/SVG/1.1/DTD/svg11.dtd">
<svg xmlns:xlink="http://www.w3.org/1999/xlink" width="720pt" height="720pt" viewBox="0 0 720 720" xmlns="http://www.w3.org/2000/svg" version="1.1">
 <metadata>
  <rdf:RDF xmlns:dc="http://purl.org/dc/elements/1.1/" xmlns:cc="http://creativecommons.org/ns#" xmlns:rdf="http://www.w3.org/1999/02/22-rdf-syntax-ns#">
   <cc:Work>
    <dc:type rdf:resource="http://purl.org/dc/dcmitype/StillImage"/>
    <dc:date>2024-10-15T13:01:12.713669</dc:date>
    <dc:format>image/svg+xml</dc:format>
    <dc:creator>
     <cc:Agent>
      <dc:title>Matplotlib v3.9.2, https://matplotlib.org/</dc:title>
     </cc:Agent>
    </dc:creator>
   </cc:Work>
  </rdf:RDF>
 </metadata>
 <defs>
  <style type="text/css">*{stroke-linejoin: round; stroke-linecap: butt}</style>
 </defs>
 <g id="figure_1">
  <g id="patch_1">
   <path d="M 0 720 
L 720 720 
L 720 0 
L 0 0 
z
" style="fill: #ffffff"/>
  </g>
  <g id="axes_1">
   <g id="patch_2">
    <path d="M 90 515.09596 
L 648 515.09596 
L 648 212.10404 
L 90 212.10404 
z
" style="fill: #ffffff"/>
   </g>
   <g id="PatchCollection_1">
    <path d="M 467.749001 236.282668 
L 467.774413 235.556041 
L 467.799929 234.772343 
L 465.26866 234.687776 
L 463.949443 234.664864 
L 463.888622 235.628319 
L 463.874354 236.092393 
L 463.605136 236.068127 
L 462.451615 235.996579 
L 462.497752 235.543648 
L 462.605335 233.887831 
L 462.872782 229.786874 
L 462.926209 228.775304 
L 457.922931 228.53254 
L 451.994628 228.218956 
L 445.097977 227.857361 
L 438.19768 227.619284 
L 434.989983 227.416199 
L 430.268108 227.115217 
L 428.771009 227.078349 
L 425.591744 226.970975 
L 421.030983 226.839438 
L 420.451306 226.876306 
L 419.092097 226.945251 
L 405.352949 227.681563 
L 402.135984 227.768004 
L 400.838533 227.802893 
L 397.42546 227.995146 
L 392.760136 229.036294 
L 390.658574 229.099406 
L 389.996727 228.350284 
L 388.73833 226.925671 
L 388.450679 226.600007 
L 388.108976 226.213208 
L 387.811327 225.8764 
L 386.22685 226.80757 
L 385.069996 227.487331 
L 384.282236 227.951301 
L 381.09391 229.360084 
L 377.956929 230.531206 
L 374.274639 231.62755 
L 369.114622 233.223692 
L 359.015689 237.098027 
L 349.28387 241.659413 
L 344.469409 244.193077 
L 339.847619 247.053238 
L 328.498621 254.076844 
L 325.858937 255.734432 
L 325.080133 256.193507 
L 323.360201 257.230316 
L 322.856304 257.534075 
L 322.084061 258.00471 
L 319.349812 259.682398 
L 319.284721 260.037953 
L 319.280742 260.070373 
L 319.279097 260.083777 
L 319.192968 260.53952 
L 313.228423 263.709203 
L 327.301151 266.159654 
L 328.117343 266.314415 
L 328.870943 266.474696 
L 328.389372 266.916067 
L 326.940076 268.155196 
L 326.852177 268.071983 
L 324.154275 270.486399 
L 324.190831 270.513165 
L 323.15614 271.360497 
L 322.810479 270.999735 
L 313.625219 278.862653 
L 314.265717 279.601257 
L 314.583258 279.330373 
L 315.002119 279.738766 
L 314.34591 280.21249 
L 314.758432 280.699685 
L 313.721971 281.61117 
L 313.790707 281.700111 
L 313.284766 282.915078 
L 311.804123 286.462499 
L 311.566149 287.03249 
L 311.111656 288.14352 
L 311.483874 288.601762 
L 310.973767 289.029177 
L 311.912851 290.096674 
L 311.398891 290.545126 
L 310.477094 289.447636 
L 310.417627 289.484608 
L 310.167468 289.199352 
L 310.021976 289.02699 
L 309.777233 289.23976 
L 309.050607 288.365767 
L 308.958437 288.25506 
L 309.18683 288.061244 
L 308.393758 287.14403 
L 305.546615 289.578443 
L 305.797398 289.886403 
L 305.351862 290.260183 
L 305.052963 290.510966 
L 304.823633 290.238208 
L 303.609187 291.231865 
L 302.567414 292.093152 
L 302.123232 292.509216 
L 301.576778 293.038902 
L 301.2186 292.458957 
L 300.534068 291.350591 
L 300.473038 291.251757 
L 299.79786 290.47816 
L 298.815347 291.340802 
L 295.893531 293.905605 
L 295.652641 294.036829 
L 294.89977 294.678577 
L 294.668239 294.856521 
L 294.925374 295.171832 
L 293.649043 296.047153 
L 291.559482 297.446805 
L 290.434069 298.270383 
L 287.306724 300.593933 
L 286.668019 300.941582 
L 284.396172 302.652879 
L 279.495119 306.517893 
L 279.08343 306.87501 
L 272.402256 311.904428 
L 270.37495 313.227811 
L 269.521294 313.949144 
L 267.065295 316.024444 
L 262.449753 319.979596 
L 262.176994 319.701839 
L 260.299554 321.27965 
L 255.293569 325.486732 
L 252.278542 328.295237 
L 249.344333 330.80276 
L 247.38743 332.593759 
L 246.894507 332.982848 
L 245.993332 333.592415 
L 240.747498 337.916765 
L 236.133101 341.603533 
L 231.72179 344.908918 
L 226.143626 348.620369 
L 221.245744 351.495111 
L 220.995794 351.630709 
L 218.291955 353.072715 
L 216.041152 354.262687 
L 215.236728 354.682603 
L 213.462393 355.408293 
L 211.020378 356.429548 
L 209.913202 356.583789 
L 209.702723 355.646891 
L 209.661064 355.461199 
L 209.482246 354.665003 
L 209.437359 354.465459 
L 209.262706 353.688113 
L 209.224901 353.519397 
L 209.122109 353.061675 
L 209.025594 352.528975 
L 208.941624 352.065519 
L 208.85612 352.085411 
L 207.882563 351.667369 
L 206.886823 351.239641 
L 205.632906 345.98131 
L 204.838272 342.908066 
L 204.338579 341.26058 
L 203.773171 339.530403 
L 203.018737 337.610471 
L 202.16599 335.692415 
L 201.043192 333.729783 
L 200.035163 331.996065 
L 198.618881 329.951575 
L 197.315702 328.289509 
L 195.719457 326.511216 
L 194.187365 324.958816 
L 192.357728 323.472757 
L 189.377486 321.357239 
L 187.193753 319.809421 
L 185.286424 318.483747 
L 184.188829 317.720774 
L 183.029372 316.905519 
L 181.951148 316.199617 
L 180.843764 315.482884 
L 179.76804 314.787606 
L 177.321025 313.258222 
L 176.151049 312.741137 
L 171.774835 311.056784 
L 170.514418 310.626448 
L 170.51321 310.626036 
L 168.986534 310.246632 
L 167.196889 309.81703 
L 165.910999 309.594678 
L 164.837358 309.40909 
L 162.428148 309.16091 
L 160.535607 309.073636 
L 159.39323 309.109566 
L 158.23221 309.146226 
L 158.239396 308.729746 
L 156.607533 308.928144 
L 155.546285 309.118002 
L 154.765711 309.309631 
L 152.332132 310.027613 
L 152.170393 309.489074 
L 150.255252 309.958044 
L 147.91103 310.68769 
L 143.301008 312.522222 
L 141.117587 313.62794 
L 140.04103 314.251046 
L 138.296272 315.411753 
L 138.00685 315.183777 
L 137.585163 315.492153 
L 137.330526 315.213771 
L 136.788654 315.617545 
L 136.693257 316.366355 
L 136.647224 316.727429 
L 134.173028 318.879398 
L 133.392349 319.558325 
L 133.199054 319.765159 
L 130.423147 322.961712 
L 129.68923 323.806857 
L 127.999253 326.322087 
L 127.728578 326.863959 
L 126.937172 328.190466 
L 126.888744 328.271596 
L 126.838754 328.334292 
L 126.503196 328.882412 
L 125.737202 330.133518 
L 125.398624 330.6857 
L 125.598063 331.03938 
L 126.269909 332.234143 
L 125.984861 332.711965 
L 125.975176 332.72842 
L 125.073896 334.234787 
L 122.363601 338.702755 
L 119.885343 343.019918 
L 119.123098 344.768426 
L 118.299824 346.659508 
L 115.363636 359.118806 
L 116.504972 359.47384 
L 132.538248 364.460662 
L 133.887147 364.880996 
L 143.48243 367.883421 
L 143.792993 367.981005 
L 145.49401 369.054751 
L 146.800625 370.073923 
L 147.023914 370.248055 
L 148.630783 370.647039 
L 148.938638 370.723482 
L 151.256824 371.299097 
L 151.987408 371.326591 
L 152.228298 371.034358 
L 152.64384 370.483009 
L 154.512532 371.060082 
L 155.231452 368.995387 
L 158.359164 369.994876 
L 160.93834 370.804716 
L 162.058742 371.140587 
L 166.612214 372.614981 
L 167.097638 372.577176 
L 170.308147 373.227985 
L 170.423124 372.739228 
L 171.18214 372.846602 
L 175.598763 374.462323 
L 179.248768 376.153342 
L 180.394999 376.807899 
L 182.656945 378.099622 
L 184.63072 379.522048 
L 186.329446 380.339386 
L 187.460471 381.029249 
L 190.665148 383.245996 
L 192.27337 383.992202 
L 193.633204 384.829328 
L 197.58242 387.275509 
L 198.284781 387.697613 
L 201.208784 389.455805 
L 201.524138 389.645351 
L 202.787533 390.404992 
L 202.898865 390.471958 
L 205.140608 392.077889 
L 205.456691 392.183076 
L 208.568573 394.340148 
L 214.013534 398.037539 
L 215.192362 398.899243 
L 216.561361 399.884464 
L 219.192089 401.896565 
L 221.66264 403.942825 
L 224.065913 405.634573 
L 226.66571 407.086993 
L 232.079635 411.057976 
L 237.554486 415.02573 
L 237.676441 415.117795 
L 241.549735 417.954107 
L 242.333121 418.55857 
L 247.12946 421.690552 
L 253.260847 425.637269 
L 260.647923 430.321339 
L 263.325308 432.06266 
L 270.774454 437.000847 
L 275.067352 440.033266 
L 275.440195 440.27426 
L 275.800228 440.506818 
L 279.874835 443.14067 
L 280.700505 443.644216 
L 286.99186 447.481787 
L 294.839677 452.214598 
L 297.459782 453.750751 
L 302.335794 456.662569 
L 304.805303 458.302973 
L 305.141383 458.526262 
L 307.672859 460.330278 
L 309.991774 462.339984 
L 310.485069 462.81831 
L 316.458095 468.610093 
L 317.707638 469.76476 
L 318.173796 470.195508 
L 319.058412 471.013054 
L 320.026449 470.912345 
L 321.616966 471.003785 
L 322.002515 471.682921 
L 323.545438 471.086164 
L 324.780922 470.749356 
L 325.57139 470.723424 
L 325.724172 472.188862 
L 325.780203 472.727922 
L 325.955272 474.411962 
L 327.332811 475.188996 
L 327.570368 475.322927 
L 328.890627 476.067259 
L 329.66339 476.503735 
L 330.774003 477.12986 
L 331.88472 477.758069 
L 333.104999 478.421791 
L 334.853089 479.372436 
L 334.995352 479.450129 
L 337.0237 480.553972 
L 339.10287 481.56096 
L 341.194434 482.573363 
L 343.2157 483.451106 
L 345.302786 484.370819 
L 347.307492 485.243042 
L 349.208885 486.069544 
L 351.097469 486.807314 
L 353.044895 487.571225 
L 354.767678 488.254319 
L 356.654282 489.002295 
L 356.770926 489.048536 
L 358.47413 489.723923 
L 361.558413 490.941598 
L 362.662361 491.375991 
L 363.760059 491.808197 
L 365.440976 492.397351 
L 367.075443 492.969841 
L 366.988169 493.251556 
L 366.853091 493.683554 
L 366.517012 494.758028 
L 366.008676 496.383539 
L 365.782575 497.10652 
L 366.511284 497.395317 
L 367.095127 497.633499 
L 368.12086 498.028525 
L 372.137563 499.575613 
L 372.766397 499.817753 
L 374.890871 500.635403 
L 375.888381 501.019285 
L 376.159369 501.123639 
L 376.650834 499.506669 
L 379.885296 500.083325 
L 380.119208 500.125088 
L 383.175997 500.580622 
L 385.051354 500.847444 
L 385.382434 500.895976 
L 386.774137 500.984917 
L 387.28716 501.017723 
L 388.682196 501.106768 
L 390.793235 501.241741 
L 392.748905 501.274671 
L 395.654666 501.3236 
L 400.821765 501.091979 
L 401.753247 501.221849 
L 401.651288 500.779958 
L 404.478123 500.393055 
L 405.587069 500.24121 
L 406.757045 500.04979 
L 409.632933 499.579467 
L 413.198996 498.792435 
L 415.387416 498.289306 
L 417.662902 497.78274 
L 418.033557 497.673074 
L 418.400672 497.547058 
L 419.097096 497.308043 
L 419.520449 497.162863 
L 422.208249 496.286683 
L 422.601296 496.138379 
L 424.617042 495.378321 
L 425.964275 494.870297 
L 428.593544 493.856436 
L 430.124907 493.288736 
L 430.501186 493.143453 
L 433.818445 491.893701 
L 437.538644 490.492 
L 441.247468 489.094762 
L 441.301334 489.074469 
L 448.006878 486.547991 
L 449.859427 485.853129 
L 450.217273 485.718885 
L 452.747292 484.769802 
L 453.223239 484.571508 
L 454.173154 484.215433 
L 456.587467 483.313529 
L 456.728168 483.260935 
L 456.76087 483.24875 
L 457.042897 483.143354 
L 459.659461 482.165736 
L 460.409312 481.835176 
L 461.169161 481.523155 
L 463.211881 480.749559 
L 463.563999 480.616148 
L 465.398114 479.916911 
L 465.546834 479.852237 
L 465.811469 479.73726 
L 466.022886 479.657588 
L 470.242673 478.06832 
L 470.748198 477.894188 
L 471.945981 477.420011 
L 473.852685 476.672972 
L 474.241358 476.515399 
L 474.533904 476.405525 
L 475.912902 475.886878 
L 476.806058 475.54455 
L 477.10881 475.428636 
L 479.400126 474.550372 
L 479.530725 474.496946 
L 485.244695 472.325293 
L 485.567756 472.202505 
L 487.90448 471.317056 
L 489.033422 470.889328 
L 497.040374 467.833685 
L 504.68844 464.899267 
L 505.627941 464.730447 
L 505.930068 464.676187 
L 509.040597 463.647745 
L 509.337829 463.51298 
L 509.432498 463.470176 
L 509.543413 463.424873 
L 511.799216 462.505263 
L 513.031888 462.002655 
L 514.890477 461.244784 
L 518.60172 459.765599 
L 519.346884 459.468574 
L 521.151734 458.777878 
L 521.286083 458.726638 
L 525.691979 457.040827 
L 528.230225 456.06977 
L 530.035908 455.331791 
L 534.402125 453.547562 
L 535.234564 453.207421 
L 536.936414 452.512039 
L 537.664915 452.23449 
L 537.973291 452.116909 
L 541.388134 450.815188 
L 546.635009 448.815168 
L 547.486507 448.490545 
L 551.17994 447.0827 
L 552.468643 446.591443 
L 552.95188 446.407209 
L 556.961605 444.878762 
L 560.586719 443.496849 
L 562.169113 442.89374 
L 565.918369 441.464544 
L 567.420363 440.892054 
L 572.862095 438.817674 
L 576.766945 437.329323 
L 578.307993 436.741732 
L 580.396224 435.959283 
L 581.218561 435.652677 
L 583.948957 434.61028 
L 585.266195 434.129854 
L 590.707198 432.020585 
L 592.112545 431.486316 
L 594.593823 430.543066 
L 597.088744 429.58836 
L 599.662088 428.603555 
L 602.181796 427.63833 
L 607.479182 425.60915 
L 608.181751 425.340141 
L 610.128552 424.594351 
L 610.457236 424.468439 
L 612.871132 423.543935 
L 614.878026 422.783669 
L 614.987587 422.742219 
L 617.0201 421.981536 
L 618.890562 421.281571 
L 619.181338 421.342809 
L 622.636364 420.197399 
L 622.579205 420.185747 
L 621.858827 420.038901 
L 621.045968 419.873309 
L 620.420467 419.745834 
L 617.388361 419.127936 
L 617.121747 419.073884 
L 615.296068 418.700729 
L 610.264358 417.707593 
L 609.4842 417.550124 
L 608.186021 417.287989 
L 606.919397 417.032102 
L 606.83608 417.015335 
L 605.505928 413.255039 
L 603.460188 407.420468 
L 601.660753 402.297839 
L 601.395806 401.544031 
L 599.138442 395.034281 
L 597.217573 389.535998 
L 595.265044 384.049482 
L 593.908855 380.277523 
L 592.237416 375.49441 
L 589.414538 367.524221 
L 586.965545 360.558729 
L 586.512719 359.271172 
L 584.88752 354.53857 
L 583.16682 349.691719 
L 581.440809 344.839557 
L 579.720525 339.926782 
L 578.117822 335.24719 
L 584.012694 330.10342 
L 584.63757 328.640585 
L 584.825553 328.226605 
L 586.067911 325.489544 
L 585.736414 318.444797 
L 585.159341 308.159859 
L 586.416384 307.716197 
L 586.376391 296.787533 
L 586.3741 296.25014 
L 586.363373 292.70928 
L 586.339107 284.342191 
L 586.337857 283.923941 
L 600.437663 285.187752 
L 599.464419 285.002581 
L 597.871297 284.848861 
L 598.107605 282.150543 
L 598.059281 277.955021 
L 597.9643 271.397989 
L 597.41972 267.783499 
L 596.370033 263.347192 
L 594.675786 259.62543 
L 594.199005 259.06752 
L 593.76607 258.563662 
L 591.844577 255.341593 
L 589.152299 252.026835 
L 587.599794 250.483078 
L 583.611003 247.164466 
L 583.546224 247.120517 
L 581.648788 245.810881 
L 579.522544 244.598934 
L 576.740908 243.348453 
L 574.58092 242.540905 
L 571.439981 241.565786 
L 566.294336 241.30865 
L 563.94324 241.391966 
L 563.370333 241.412379 
L 558.965374 240.70377 
L 557.238738 240.434448 
L 555.703001 240.363212 
L 553.064462 240.242611 
L 551.445513 240.166897 
L 551.275963 240.159607 
L 547.367885 239.807489 
L 545.014393 239.651895 
L 544.67444 239.620516 
L 544.668004 239.619922 
L 543.808487 239.568058 
L 542.377938 239.420795 
L 537.982977 238.990047 
L 532.208914 238.77509 
L 525.090536 238.616996 
L 520.582576 238.727183 
L 516.210007 238.60804 
L 509.725773 238.388917 
L 507.883118 238.332261 
L 507.311877 238.314661 
L 506.135132 238.261754 
L 504.945055 237.9288 
L 504.549613 237.818092 
L 503.865166 237.510237 
L 502.390875 237.277366 
L 500.096851 236.915251 
L 498.828353 236.714874 
L 498.024346 236.687588 
L 496.72877 236.71175 
L 496.663366 236.714249 
L 493.613034 236.83183 
L 490.43606 237.064075 
L 486.952631 237.318623 
L 486.949982 237.318817 
L 486.675244 237.306423 
L 485.531513 237.23175 
L 483.832684 237.148017 
L 483.147195 237.111462 
L 482.757689 237.079801 
L 479.191105 236.892235 
L 475.545266 236.695399 
L 475.471843 238.027322 
L 473.588051 237.932445 
L 473.549412 238.331324 
L 472.574293 238.296539 
L 472.597726 237.815489 
L 472.660526 236.530952 
L 469.806822 236.401603 
L 467.749001 236.282668 
" clip-path="url(#pd0f361b3ac)" style="fill: #d3d3d3"/>
   </g>
   <g id="PatchCollection_2">
    <path d="M 386.842216 270.122016 
L 386.842216 270.01787 
L 386.73807 270.01787 
L 386.73807 270.122016 
L 386.842216 270.122016 
" clip-path="url(#pd0f361b3ac)" style="fill: #ff0000; fill-opacity: 0.7; stroke: #000000; stroke-opacity: 0.7; stroke-width: 0.5"/>
    <path d="M 436.523113 341.021404 
L 436.523113 340.917258 
L 436.418967 340.917258 
L 436.418967 341.021404 
L 436.523113 341.021404 
" clip-path="url(#pd0f361b3ac)" style="fill: #ff0000; fill-opacity: 0.7; stroke: #000000; stroke-opacity: 0.7; stroke-width: 0.5"/>
    <path d="M 436.523113 341.021404 
L 436.523113 340.917258 
L 436.418967 340.917258 
L 436.418967 341.021404 
L 436.523113 341.021404 
" clip-path="url(#pd0f361b3ac)" style="fill: #ff0000; fill-opacity: 0.7; stroke: #000000; stroke-opacity: 0.7; stroke-width: 0.5"/>
    <path d="M 307.521867 309.773368 
L 307.521867 309.669222 
L 307.417721 309.669222 
L 307.417721 309.773368 
L 307.521867 309.773368 
" clip-path="url(#pd0f361b3ac)" style="fill: #ff0000; fill-opacity: 0.7; stroke: #000000; stroke-opacity: 0.7; stroke-width: 0.5"/>
    <path d="M 271.882649 381.171707 
L 271.882649 381.067561 
L 271.778503 381.067561 
L 271.778503 381.171707 
L 271.882649 381.171707 
" clip-path="url(#pd0f361b3ac)" style="fill: #ff0000; fill-opacity: 0.7; stroke: #000000; stroke-opacity: 0.7; stroke-width: 0.5"/>
    <path d="M 281.975468 377.295713 
L 281.975468 377.191567 
L 281.871322 377.191567 
L 281.871322 377.295713 
L 281.975468 377.295713 
" clip-path="url(#pd0f361b3ac)" style="fill: #ff0000; fill-opacity: 0.7; stroke: #000000; stroke-opacity: 0.7; stroke-width: 0.5"/>
    <path d="M 421.422603 308.264459 
L 421.422603 308.160313 
L 421.318457 308.160313 
L 421.318457 308.264459 
L 421.422603 308.264459 
" clip-path="url(#pd0f361b3ac)" style="fill: #ff0000; fill-opacity: 0.7; stroke: #000000; stroke-opacity: 0.7; stroke-width: 0.5"/>
    <path d="M 483.2189 415.79221 
L 483.2189 415.688064 
L 483.114754 415.688064 
L 483.114754 415.79221 
L 483.2189 415.79221 
" clip-path="url(#pd0f361b3ac)" style="fill: #ff0000; fill-opacity: 0.7; stroke: #000000; stroke-opacity: 0.7; stroke-width: 0.5"/>
    <path d="M 360.109023 273.258128 
L 360.109023 273.153982 
L 360.004877 273.153982 
L 360.004877 273.258128 
L 360.109023 273.258128 
" clip-path="url(#pd0f361b3ac)" style="fill: #ff0000; fill-opacity: 0.7; stroke: #000000; stroke-opacity: 0.7; stroke-width: 0.5"/>
    <path d="M 152.443869 357.223584 
L 152.443869 357.119438 
L 152.339723 357.119438 
L 152.339723 357.223584 
L 152.443869 357.223584 
" clip-path="url(#pd0f361b3ac)" style="fill: #ff0000; fill-opacity: 0.7; stroke: #000000; stroke-opacity: 0.7; stroke-width: 0.5"/>
    <path d="M 282.923638 382.702312 
L 282.923638 382.598166 
L 282.819492 382.598166 
L 282.819492 382.702312 
L 282.923638 382.702312 
" clip-path="url(#pd0f361b3ac)" style="fill: #ff0000; fill-opacity: 0.7; stroke: #000000; stroke-opacity: 0.7; stroke-width: 0.5"/>
    <path d="M 155.279754 317.134456 
L 155.279754 317.03031 
L 155.175608 317.03031 
L 155.175608 317.134456 
L 155.279754 317.134456 
" clip-path="url(#pd0f361b3ac)" style="fill: #ff0000; fill-opacity: 0.7; stroke: #000000; stroke-opacity: 0.7; stroke-width: 0.5"/>
    <path d="M 335.41352 286.677885 
L 335.41352 286.573739 
L 335.309374 286.573739 
L 335.309374 286.677885 
L 335.41352 286.677885 
" clip-path="url(#pd0f361b3ac)" style="fill: #ff0000; fill-opacity: 0.7; stroke: #000000; stroke-opacity: 0.7; stroke-width: 0.5"/>
    <path d="M 436.523113 341.021404 
L 436.523113 340.917258 
L 436.418967 340.917258 
L 436.418967 341.021404 
L 436.523113 341.021404 
" clip-path="url(#pd0f361b3ac)" style="fill: #ff0000; fill-opacity: 0.7; stroke: #000000; stroke-opacity: 0.7; stroke-width: 0.5"/>
    <path d="M 433.351472 425.649114 
L 433.351472 425.544968 
L 433.247326 425.544968 
L 433.247326 425.649114 
L 433.351472 425.649114 
" clip-path="url(#pd0f361b3ac)" style="fill: #ff0000; fill-opacity: 0.7; stroke: #000000; stroke-opacity: 0.7; stroke-width: 0.5"/>
    <path d="M 277.947854 380.046322 
L 277.947854 379.942176 
L 277.843708 379.942176 
L 277.843708 380.046322 
L 277.947854 380.046322 
" clip-path="url(#pd0f361b3ac)" style="fill: #ff0000; fill-opacity: 0.7; stroke: #000000; stroke-opacity: 0.7; stroke-width: 0.5"/>
    <path d="M 487.076964 435.24749 
L 487.076964 435.143344 
L 486.972818 435.143344 
L 486.972818 435.24749 
L 487.076964 435.24749 
" clip-path="url(#pd0f361b3ac)" style="fill: #ff0000; fill-opacity: 0.7; stroke: #000000; stroke-opacity: 0.7; stroke-width: 0.5"/>
    <path d="M 443.838875 440.445304 
L 443.838875 440.341158 
L 443.734729 440.341158 
L 443.734729 440.445304 
L 443.838875 440.445304 
" clip-path="url(#pd0f361b3ac)" style="fill: #ff0000; fill-opacity: 0.7; stroke: #000000; stroke-opacity: 0.7; stroke-width: 0.5"/>
    <path d="M 350.328212 265.865923 
L 350.328212 265.761777 
L 350.224066 265.761777 
L 350.224066 265.865923 
L 350.328212 265.865923 
" clip-path="url(#pd0f361b3ac)" style="fill: #ff0000; fill-opacity: 0.7; stroke: #000000; stroke-opacity: 0.7; stroke-width: 0.5"/>
    <path d="M 317.005639 285.440523 
L 317.005639 285.336377 
L 316.901493 285.336377 
L 316.901493 285.440523 
L 317.005639 285.440523 
" clip-path="url(#pd0f361b3ac)" style="fill: #ff0000; fill-opacity: 0.7; stroke: #000000; stroke-opacity: 0.7; stroke-width: 0.5"/>
    <path d="M 384.322912 467.466254 
L 384.322912 467.362108 
L 384.218766 467.362108 
L 384.218766 467.466254 
L 384.322912 467.466254 
" clip-path="url(#pd0f361b3ac)" style="fill: #ff0000; fill-opacity: 0.7; stroke: #000000; stroke-opacity: 0.7; stroke-width: 0.5"/>
    <path d="M 353.481127 319.304127 
L 353.481127 319.199981 
L 353.376981 319.199981 
L 353.376981 319.304127 
L 353.481127 319.304127 
" clip-path="url(#pd0f361b3ac)" style="fill: #ff0000; fill-opacity: 0.7; stroke: #000000; stroke-opacity: 0.7; stroke-width: 0.5"/>
    <path d="M 585.5944 278.288827 
L 585.5944 278.184681 
L 585.490254 278.184681 
L 585.490254 278.288827 
L 585.5944 278.288827 
" clip-path="url(#pd0f361b3ac)" style="fill: #ff0000; fill-opacity: 0.7; stroke: #000000; stroke-opacity: 0.7; stroke-width: 0.5"/>
    <path d="M 471.668571 331.950434 
L 471.668571 331.846288 
L 471.564425 331.846288 
L 471.564425 331.950434 
L 471.668571 331.950434 
" clip-path="url(#pd0f361b3ac)" style="fill: #ff0000; fill-opacity: 0.7; stroke: #000000; stroke-opacity: 0.7; stroke-width: 0.5"/>
    <path d="M 483.597153 427.951026 
L 483.597153 427.84688 
L 483.493007 427.84688 
L 483.493007 427.951026 
L 483.597153 427.951026 
" clip-path="url(#pd0f361b3ac)" style="fill: #ff0000; fill-opacity: 0.7; stroke: #000000; stroke-opacity: 0.7; stroke-width: 0.5"/>
    <path d="M 471.668571 331.950434 
L 471.668571 331.846288 
L 471.564425 331.846288 
L 471.564425 331.950434 
L 471.668571 331.950434 
" clip-path="url(#pd0f361b3ac)" style="fill: #ff0000; fill-opacity: 0.7; stroke: #000000; stroke-opacity: 0.7; stroke-width: 0.5"/>
    <path d="M 319.409002 279.591706 
L 319.409002 279.48756 
L 319.304856 279.48756 
L 319.304856 279.591706 
L 319.409002 279.591706 
" clip-path="url(#pd0f361b3ac)" style="fill: #ff0000; fill-opacity: 0.7; stroke: #000000; stroke-opacity: 0.7; stroke-width: 0.5"/>
    <path d="M 351.731531 266.442634 
L 351.731531 266.338488 
L 351.627385 266.338488 
L 351.627385 266.442634 
L 351.731531 266.442634 
" clip-path="url(#pd0f361b3ac)" style="fill: #ff0000; fill-opacity: 0.7; stroke: #000000; stroke-opacity: 0.7; stroke-width: 0.5"/>
    <path d="M 231.37668 351.099385 
L 231.37668 350.995239 
L 231.272534 350.995239 
L 231.272534 351.099385 
L 231.37668 351.099385 
" clip-path="url(#pd0f361b3ac)" style="fill: #ff0000; fill-opacity: 0.7; stroke: #000000; stroke-opacity: 0.7; stroke-width: 0.5"/>
    <path d="M 322.233826 277.072913 
L 322.233826 276.968767 
L 322.12968 276.968767 
L 322.12968 277.072913 
L 322.233826 277.072913 
" clip-path="url(#pd0f361b3ac)" style="fill: #ff0000; fill-opacity: 0.7; stroke: #000000; stroke-opacity: 0.7; stroke-width: 0.5"/>
    <path d="M 488.718617 242.624716 
L 488.718617 242.52057 
L 488.614471 242.52057 
L 488.614471 242.624716 
L 488.718617 242.624716 
" clip-path="url(#pd0f361b3ac)" style="fill: #ff0000; fill-opacity: 0.7; stroke: #000000; stroke-opacity: 0.7; stroke-width: 0.5"/>
    <path d="M 307.025894 397.703761 
L 307.025894 397.599615 
L 306.921748 397.599615 
L 306.921748 397.703761 
L 307.025894 397.703761 
" clip-path="url(#pd0f361b3ac)" style="fill: #ff0000; fill-opacity: 0.7; stroke: #000000; stroke-opacity: 0.7; stroke-width: 0.5"/>
    <path d="M 284.39053 383.225329 
L 284.39053 383.121183 
L 284.286384 383.121183 
L 284.286384 383.225329 
L 284.39053 383.225329 
" clip-path="url(#pd0f361b3ac)" style="fill: #ff0000; fill-opacity: 0.7; stroke: #000000; stroke-opacity: 0.7; stroke-width: 0.5"/>
    <path d="M 138.550471 350.391635 
L 138.550471 350.287489 
L 138.446325 350.287489 
L 138.446325 350.391635 
L 138.550471 350.391635 
" clip-path="url(#pd0f361b3ac)" style="fill: #ff0000; fill-opacity: 0.7; stroke: #000000; stroke-opacity: 0.7; stroke-width: 0.5"/>
    <path d="M 347.058039 257.556535 
L 347.058039 257.452389 
L 346.953893 257.452389 
L 346.953893 257.556535 
L 347.058039 257.556535 
" clip-path="url(#pd0f361b3ac)" style="fill: #ff0000; fill-opacity: 0.7; stroke: #000000; stroke-opacity: 0.7; stroke-width: 0.5"/>
    <path d="M 483.597153 427.951003 
L 483.597153 427.846857 
L 483.493007 427.846857 
L 483.493007 427.951003 
L 483.597153 427.951003 
" clip-path="url(#pd0f361b3ac)" style="fill: #ff0000; fill-opacity: 0.7; stroke: #000000; stroke-opacity: 0.7; stroke-width: 0.5"/>
    <path d="M 308.991741 298.489953 
L 308.991741 298.385807 
L 308.887595 298.385807 
L 308.887595 298.489953 
L 308.991741 298.489953 
" clip-path="url(#pd0f361b3ac)" style="fill: #ff0000; fill-opacity: 0.7; stroke: #000000; stroke-opacity: 0.7; stroke-width: 0.5"/>
   </g>
   <g id="matplotlib.axis_1">
    <g id="xtick_1">
     <g id="line2d_1">
      <defs>
       <path id="m660beb8f3a" d="M 0 0 
L 0 3.5 
" style="stroke: #000000; stroke-width: 0.8"/>
      </defs>
      <g>
       <use xlink:href="#m660beb8f3a" x="101.120422" y="515.09596" style="stroke: #000000; stroke-width: 0.8"/>
      </g>
     </g>
     <g id="text_1">
      <!-- 396000 -->
      <g transform="translate(82.032922 529.694397) scale(0.1 -0.1)">
       <defs>
        <path id="DejaVuSans-33" d="M 2597 2516 
Q 3050 2419 3304 2112 
Q 3559 1806 3559 1356 
Q 3559 666 3084 287 
Q 2609 -91 1734 -91 
Q 1441 -91 1130 -33 
Q 819 25 488 141 
L 488 750 
Q 750 597 1062 519 
Q 1375 441 1716 441 
Q 2309 441 2620 675 
Q 2931 909 2931 1356 
Q 2931 1769 2642 2001 
Q 2353 2234 1838 2234 
L 1294 2234 
L 1294 2753 
L 1863 2753 
Q 2328 2753 2575 2939 
Q 2822 3125 2822 3475 
Q 2822 3834 2567 4026 
Q 2313 4219 1838 4219 
Q 1578 4219 1281 4162 
Q 984 4106 628 3988 
L 628 4550 
Q 988 4650 1302 4700 
Q 1616 4750 1894 4750 
Q 2613 4750 3031 4423 
Q 3450 4097 3450 3541 
Q 3450 3153 3228 2886 
Q 3006 2619 2597 2516 
z
" transform="scale(0.015625)"/>
        <path id="DejaVuSans-39" d="M 703 97 
L 703 672 
Q 941 559 1184 500 
Q 1428 441 1663 441 
Q 2288 441 2617 861 
Q 2947 1281 2994 2138 
Q 2813 1869 2534 1725 
Q 2256 1581 1919 1581 
Q 1219 1581 811 2004 
Q 403 2428 403 3163 
Q 403 3881 828 4315 
Q 1253 4750 1959 4750 
Q 2769 4750 3195 4129 
Q 3622 3509 3622 2328 
Q 3622 1225 3098 567 
Q 2575 -91 1691 -91 
Q 1453 -91 1209 -44 
Q 966 3 703 97 
z
M 1959 2075 
Q 2384 2075 2632 2365 
Q 2881 2656 2881 3163 
Q 2881 3666 2632 3958 
Q 2384 4250 1959 4250 
Q 1534 4250 1286 3958 
Q 1038 3666 1038 3163 
Q 1038 2656 1286 2365 
Q 1534 2075 1959 2075 
z
" transform="scale(0.015625)"/>
        <path id="DejaVuSans-36" d="M 2113 2584 
Q 1688 2584 1439 2293 
Q 1191 2003 1191 1497 
Q 1191 994 1439 701 
Q 1688 409 2113 409 
Q 2538 409 2786 701 
Q 3034 994 3034 1497 
Q 3034 2003 2786 2293 
Q 2538 2584 2113 2584 
z
M 3366 4563 
L 3366 3988 
Q 3128 4100 2886 4159 
Q 2644 4219 2406 4219 
Q 1781 4219 1451 3797 
Q 1122 3375 1075 2522 
Q 1259 2794 1537 2939 
Q 1816 3084 2150 3084 
Q 2853 3084 3261 2657 
Q 3669 2231 3669 1497 
Q 3669 778 3244 343 
Q 2819 -91 2113 -91 
Q 1303 -91 875 529 
Q 447 1150 447 2328 
Q 447 3434 972 4092 
Q 1497 4750 2381 4750 
Q 2619 4750 2861 4703 
Q 3103 4656 3366 4563 
z
" transform="scale(0.015625)"/>
        <path id="DejaVuSans-30" d="M 2034 4250 
Q 1547 4250 1301 3770 
Q 1056 3291 1056 2328 
Q 1056 1369 1301 889 
Q 1547 409 2034 409 
Q 2525 409 2770 889 
Q 3016 1369 3016 2328 
Q 3016 3291 2770 3770 
Q 2525 4250 2034 4250 
z
M 2034 4750 
Q 2819 4750 3233 4129 
Q 3647 3509 3647 2328 
Q 3647 1150 3233 529 
Q 2819 -91 2034 -91 
Q 1250 -91 836 529 
Q 422 1150 422 2328 
Q 422 3509 836 4129 
Q 1250 4750 2034 4750 
z
" transform="scale(0.015625)"/>
       </defs>
       <use xlink:href="#DejaVuSans-33"/>
       <use xlink:href="#DejaVuSans-39" x="63.623047"/>
       <use xlink:href="#DejaVuSans-36" x="127.246094"/>
       <use xlink:href="#DejaVuSans-30" x="190.869141"/>
       <use xlink:href="#DejaVuSans-30" x="254.492188"/>
       <use xlink:href="#DejaVuSans-30" x="318.115234"/>
      </g>
     </g>
    </g>
    <g id="xtick_2">
     <g id="line2d_2">
      <g>
       <use xlink:href="#m660beb8f3a" x="205.266416" y="515.09596" style="stroke: #000000; stroke-width: 0.8"/>
      </g>
     </g>
     <g id="text_2">
      <!-- 397000 -->
      <g transform="translate(186.178916 529.694397) scale(0.1 -0.1)">
       <defs>
        <path id="DejaVuSans-37" d="M 525 4666 
L 3525 4666 
L 3525 4397 
L 1831 0 
L 1172 0 
L 2766 4134 
L 525 4134 
L 525 4666 
z
" transform="scale(0.015625)"/>
       </defs>
       <use xlink:href="#DejaVuSans-33"/>
       <use xlink:href="#DejaVuSans-39" x="63.623047"/>
       <use xlink:href="#DejaVuSans-37" x="127.246094"/>
       <use xlink:href="#DejaVuSans-30" x="190.869141"/>
       <use xlink:href="#DejaVuSans-30" x="254.492188"/>
       <use xlink:href="#DejaVuSans-30" x="318.115234"/>
      </g>
     </g>
    </g>
    <g id="xtick_3">
     <g id="line2d_3">
      <g>
       <use xlink:href="#m660beb8f3a" x="309.41241" y="515.09596" style="stroke: #000000; stroke-width: 0.8"/>
      </g>
     </g>
     <g id="text_3">
      <!-- 398000 -->
      <g transform="translate(290.32491 529.694397) scale(0.1 -0.1)">
       <defs>
        <path id="DejaVuSans-38" d="M 2034 2216 
Q 1584 2216 1326 1975 
Q 1069 1734 1069 1313 
Q 1069 891 1326 650 
Q 1584 409 2034 409 
Q 2484 409 2743 651 
Q 3003 894 3003 1313 
Q 3003 1734 2745 1975 
Q 2488 2216 2034 2216 
z
M 1403 2484 
Q 997 2584 770 2862 
Q 544 3141 544 3541 
Q 544 4100 942 4425 
Q 1341 4750 2034 4750 
Q 2731 4750 3128 4425 
Q 3525 4100 3525 3541 
Q 3525 3141 3298 2862 
Q 3072 2584 2669 2484 
Q 3125 2378 3379 2068 
Q 3634 1759 3634 1313 
Q 3634 634 3220 271 
Q 2806 -91 2034 -91 
Q 1263 -91 848 271 
Q 434 634 434 1313 
Q 434 1759 690 2068 
Q 947 2378 1403 2484 
z
M 1172 3481 
Q 1172 3119 1398 2916 
Q 1625 2713 2034 2713 
Q 2441 2713 2670 2916 
Q 2900 3119 2900 3481 
Q 2900 3844 2670 4047 
Q 2441 4250 2034 4250 
Q 1625 4250 1398 4047 
Q 1172 3844 1172 3481 
z
" transform="scale(0.015625)"/>
       </defs>
       <use xlink:href="#DejaVuSans-33"/>
       <use xlink:href="#DejaVuSans-39" x="63.623047"/>
       <use xlink:href="#DejaVuSans-38" x="127.246094"/>
       <use xlink:href="#DejaVuSans-30" x="190.869141"/>
       <use xlink:href="#DejaVuSans-30" x="254.492188"/>
       <use xlink:href="#DejaVuSans-30" x="318.115234"/>
      </g>
     </g>
    </g>
    <g id="xtick_4">
     <g id="line2d_4">
      <g>
       <use xlink:href="#m660beb8f3a" x="413.558404" y="515.09596" style="stroke: #000000; stroke-width: 0.8"/>
      </g>
     </g>
     <g id="text_4">
      <!-- 399000 -->
      <g transform="translate(394.470904 529.694397) scale(0.1 -0.1)">
       <use xlink:href="#DejaVuSans-33"/>
       <use xlink:href="#DejaVuSans-39" x="63.623047"/>
       <use xlink:href="#DejaVuSans-39" x="127.246094"/>
       <use xlink:href="#DejaVuSans-30" x="190.869141"/>
       <use xlink:href="#DejaVuSans-30" x="254.492188"/>
       <use xlink:href="#DejaVuSans-30" x="318.115234"/>
      </g>
     </g>
    </g>
    <g id="xtick_5">
     <g id="line2d_5">
      <g>
       <use xlink:href="#m660beb8f3a" x="517.704398" y="515.09596" style="stroke: #000000; stroke-width: 0.8"/>
      </g>
     </g>
     <g id="text_5">
      <!-- 400000 -->
      <g transform="translate(498.616898 529.694397) scale(0.1 -0.1)">
       <defs>
        <path id="DejaVuSans-34" d="M 2419 4116 
L 825 1625 
L 2419 1625 
L 2419 4116 
z
M 2253 4666 
L 3047 4666 
L 3047 1625 
L 3713 1625 
L 3713 1100 
L 3047 1100 
L 3047 0 
L 2419 0 
L 2419 1100 
L 313 1100 
L 313 1709 
L 2253 4666 
z
" transform="scale(0.015625)"/>
       </defs>
       <use xlink:href="#DejaVuSans-34"/>
       <use xlink:href="#DejaVuSans-30" x="63.623047"/>
       <use xlink:href="#DejaVuSans-30" x="127.246094"/>
       <use xlink:href="#DejaVuSans-30" x="190.869141"/>
       <use xlink:href="#DejaVuSans-30" x="254.492188"/>
       <use xlink:href="#DejaVuSans-30" x="318.115234"/>
      </g>
     </g>
    </g>
    <g id="xtick_6">
     <g id="line2d_6">
      <g>
       <use xlink:href="#m660beb8f3a" x="621.850392" y="515.09596" style="stroke: #000000; stroke-width: 0.8"/>
      </g>
     </g>
     <g id="text_6">
      <!-- 401000 -->
      <g transform="translate(602.762892 529.694397) scale(0.1 -0.1)">
       <defs>
        <path id="DejaVuSans-31" d="M 794 531 
L 1825 531 
L 1825 4091 
L 703 3866 
L 703 4441 
L 1819 4666 
L 2450 4666 
L 2450 531 
L 3481 531 
L 3481 0 
L 794 0 
L 794 531 
z
" transform="scale(0.015625)"/>
       </defs>
       <use xlink:href="#DejaVuSans-34"/>
       <use xlink:href="#DejaVuSans-30" x="63.623047"/>
       <use xlink:href="#DejaVuSans-31" x="127.246094"/>
       <use xlink:href="#DejaVuSans-30" x="190.869141"/>
       <use xlink:href="#DejaVuSans-30" x="254.492188"/>
       <use xlink:href="#DejaVuSans-30" x="318.115234"/>
      </g>
     </g>
    </g>
   </g>
   <g id="matplotlib.axis_2">
    <g id="ytick_1">
     <g id="line2d_7">
      <defs>
       <path id="m5b43e7c369" d="M 0 0 
L -3.5 0 
" style="stroke: #000000; stroke-width: 0.8"/>
      </defs>
      <g>
       <use xlink:href="#m5b43e7c369" x="90" y="468.326308" style="stroke: #000000; stroke-width: 0.8"/>
      </g>
     </g>
     <g id="text_7">
      <!-- 5.8170 -->
      <g transform="translate(48.009375 472.125527) scale(0.1 -0.1)">
       <defs>
        <path id="DejaVuSans-35" d="M 691 4666 
L 3169 4666 
L 3169 4134 
L 1269 4134 
L 1269 2991 
Q 1406 3038 1543 3061 
Q 1681 3084 1819 3084 
Q 2600 3084 3056 2656 
Q 3513 2228 3513 1497 
Q 3513 744 3044 326 
Q 2575 -91 1722 -91 
Q 1428 -91 1123 -41 
Q 819 9 494 109 
L 494 744 
Q 775 591 1075 516 
Q 1375 441 1709 441 
Q 2250 441 2565 725 
Q 2881 1009 2881 1497 
Q 2881 1984 2565 2268 
Q 2250 2553 1709 2553 
Q 1456 2553 1204 2497 
Q 953 2441 691 2322 
L 691 4666 
z
" transform="scale(0.015625)"/>
        <path id="DejaVuSans-2e" d="M 684 794 
L 1344 794 
L 1344 0 
L 684 0 
L 684 794 
z
" transform="scale(0.015625)"/>
       </defs>
       <use xlink:href="#DejaVuSans-35"/>
       <use xlink:href="#DejaVuSans-2e" x="63.623047"/>
       <use xlink:href="#DejaVuSans-38" x="95.410156"/>
       <use xlink:href="#DejaVuSans-31" x="159.033203"/>
       <use xlink:href="#DejaVuSans-37" x="222.65625"/>
       <use xlink:href="#DejaVuSans-30" x="286.279297"/>
      </g>
     </g>
    </g>
    <g id="ytick_2">
     <g id="line2d_8">
      <g>
       <use xlink:href="#m5b43e7c369" x="90" y="416.253311" style="stroke: #000000; stroke-width: 0.8"/>
      </g>
     </g>
     <g id="text_8">
      <!-- 5.8175 -->
      <g transform="translate(48.009375 420.05253) scale(0.1 -0.1)">
       <use xlink:href="#DejaVuSans-35"/>
       <use xlink:href="#DejaVuSans-2e" x="63.623047"/>
       <use xlink:href="#DejaVuSans-38" x="95.410156"/>
       <use xlink:href="#DejaVuSans-31" x="159.033203"/>
       <use xlink:href="#DejaVuSans-37" x="222.65625"/>
       <use xlink:href="#DejaVuSans-35" x="286.279297"/>
      </g>
     </g>
    </g>
    <g id="ytick_3">
     <g id="line2d_9">
      <g>
       <use xlink:href="#m5b43e7c369" x="90" y="364.180314" style="stroke: #000000; stroke-width: 0.8"/>
      </g>
     </g>
     <g id="text_9">
      <!-- 5.8180 -->
      <g transform="translate(48.009375 367.979533) scale(0.1 -0.1)">
       <use xlink:href="#DejaVuSans-35"/>
       <use xlink:href="#DejaVuSans-2e" x="63.623047"/>
       <use xlink:href="#DejaVuSans-38" x="95.410156"/>
       <use xlink:href="#DejaVuSans-31" x="159.033203"/>
       <use xlink:href="#DejaVuSans-38" x="222.65625"/>
       <use xlink:href="#DejaVuSans-30" x="286.279297"/>
      </g>
     </g>
    </g>
    <g id="ytick_4">
     <g id="line2d_10">
      <g>
       <use xlink:href="#m5b43e7c369" x="90" y="312.107317" style="stroke: #000000; stroke-width: 0.8"/>
      </g>
     </g>
     <g id="text_10">
      <!-- 5.8185 -->
      <g transform="translate(48.009375 315.906536) scale(0.1 -0.1)">
       <use xlink:href="#DejaVuSans-35"/>
       <use xlink:href="#DejaVuSans-2e" x="63.623047"/>
       <use xlink:href="#DejaVuSans-38" x="95.410156"/>
       <use xlink:href="#DejaVuSans-31" x="159.033203"/>
       <use xlink:href="#DejaVuSans-38" x="222.65625"/>
       <use xlink:href="#DejaVuSans-35" x="286.279297"/>
      </g>
     </g>
    </g>
    <g id="ytick_5">
     <g id="line2d_11">
      <g>
       <use xlink:href="#m5b43e7c369" x="90" y="260.03432" style="stroke: #000000; stroke-width: 0.8"/>
      </g>
     </g>
     <g id="text_11">
      <!-- 5.8190 -->
      <g transform="translate(48.009375 263.833539) scale(0.1 -0.1)">
       <use xlink:href="#DejaVuSans-35"/>
       <use xlink:href="#DejaVuSans-2e" x="63.623047"/>
       <use xlink:href="#DejaVuSans-38" x="95.410156"/>
       <use xlink:href="#DejaVuSans-31" x="159.033203"/>
       <use xlink:href="#DejaVuSans-39" x="222.65625"/>
       <use xlink:href="#DejaVuSans-30" x="286.279297"/>
      </g>
     </g>
    </g>
    <g id="text_12">
     <!-- 1e6 -->
     <g transform="translate(90 209.10404) scale(0.1 -0.1)">
      <defs>
       <path id="DejaVuSans-65" d="M 3597 1894 
L 3597 1613 
L 953 1613 
Q 991 1019 1311 708 
Q 1631 397 2203 397 
Q 2534 397 2845 478 
Q 3156 559 3463 722 
L 3463 178 
Q 3153 47 2828 -22 
Q 2503 -91 2169 -91 
Q 1331 -91 842 396 
Q 353 884 353 1716 
Q 353 2575 817 3079 
Q 1281 3584 2069 3584 
Q 2775 3584 3186 3129 
Q 3597 2675 3597 1894 
z
M 3022 2063 
Q 3016 2534 2758 2815 
Q 2500 3097 2075 3097 
Q 1594 3097 1305 2825 
Q 1016 2553 972 2059 
L 3022 2063 
z
" transform="scale(0.015625)"/>
      </defs>
      <use xlink:href="#DejaVuSans-31"/>
      <use xlink:href="#DejaVuSans-65" x="63.623047"/>
      <use xlink:href="#DejaVuSans-36" x="125.146484"/>
     </g>
    </g>
   </g>
   <g id="patch_3">
    <path d="M 90 515.09596 
L 90 212.10404 
" style="fill: none; stroke: #000000; stroke-width: 0.8; stroke-linejoin: miter; stroke-linecap: square"/>
   </g>
   <g id="patch_4">
    <path d="M 648 515.09596 
L 648 212.10404 
" style="fill: none; stroke: #000000; stroke-width: 0.8; stroke-linejoin: miter; stroke-linecap: square"/>
   </g>
   <g id="patch_5">
    <path d="M 90 515.09596 
L 648 515.09596 
" style="fill: none; stroke: #000000; stroke-width: 0.8; stroke-linejoin: miter; stroke-linecap: square"/>
   </g>
   <g id="patch_6">
    <path d="M 90 212.10404 
L 648 212.10404 
" style="fill: none; stroke: #000000; stroke-width: 0.8; stroke-linejoin: miter; stroke-linecap: square"/>
   </g>
   <g id="text_13">
    <!-- Lichtenberg_Mitte -->
    <g transform="translate(352.948491 362.321106) scale(0.12 -0.12)">
     <defs>
      <path id="DejaVuSans-4c" d="M 628 4666 
L 1259 4666 
L 1259 531 
L 3531 531 
L 3531 0 
L 628 0 
L 628 4666 
z
" transform="scale(0.015625)"/>
      <path id="DejaVuSans-69" d="M 603 3500 
L 1178 3500 
L 1178 0 
L 603 0 
L 603 3500 
z
M 603 4863 
L 1178 4863 
L 1178 4134 
L 603 4134 
L 603 4863 
z
" transform="scale(0.015625)"/>
      <path id="DejaVuSans-63" d="M 3122 3366 
L 3122 2828 
Q 2878 2963 2633 3030 
Q 2388 3097 2138 3097 
Q 1578 3097 1268 2742 
Q 959 2388 959 1747 
Q 959 1106 1268 751 
Q 1578 397 2138 397 
Q 2388 397 2633 464 
Q 2878 531 3122 666 
L 3122 134 
Q 2881 22 2623 -34 
Q 2366 -91 2075 -91 
Q 1284 -91 818 406 
Q 353 903 353 1747 
Q 353 2603 823 3093 
Q 1294 3584 2113 3584 
Q 2378 3584 2631 3529 
Q 2884 3475 3122 3366 
z
" transform="scale(0.015625)"/>
      <path id="DejaVuSans-68" d="M 3513 2113 
L 3513 0 
L 2938 0 
L 2938 2094 
Q 2938 2591 2744 2837 
Q 2550 3084 2163 3084 
Q 1697 3084 1428 2787 
Q 1159 2491 1159 1978 
L 1159 0 
L 581 0 
L 581 4863 
L 1159 4863 
L 1159 2956 
Q 1366 3272 1645 3428 
Q 1925 3584 2291 3584 
Q 2894 3584 3203 3211 
Q 3513 2838 3513 2113 
z
" transform="scale(0.015625)"/>
      <path id="DejaVuSans-74" d="M 1172 4494 
L 1172 3500 
L 2356 3500 
L 2356 3053 
L 1172 3053 
L 1172 1153 
Q 1172 725 1289 603 
Q 1406 481 1766 481 
L 2356 481 
L 2356 0 
L 1766 0 
Q 1100 0 847 248 
Q 594 497 594 1153 
L 594 3053 
L 172 3053 
L 172 3500 
L 594 3500 
L 594 4494 
L 1172 4494 
z
" transform="scale(0.015625)"/>
      <path id="DejaVuSans-6e" d="M 3513 2113 
L 3513 0 
L 2938 0 
L 2938 2094 
Q 2938 2591 2744 2837 
Q 2550 3084 2163 3084 
Q 1697 3084 1428 2787 
Q 1159 2491 1159 1978 
L 1159 0 
L 581 0 
L 581 3500 
L 1159 3500 
L 1159 2956 
Q 1366 3272 1645 3428 
Q 1925 3584 2291 3584 
Q 2894 3584 3203 3211 
Q 3513 2838 3513 2113 
z
" transform="scale(0.015625)"/>
      <path id="DejaVuSans-62" d="M 3116 1747 
Q 3116 2381 2855 2742 
Q 2594 3103 2138 3103 
Q 1681 3103 1420 2742 
Q 1159 2381 1159 1747 
Q 1159 1113 1420 752 
Q 1681 391 2138 391 
Q 2594 391 2855 752 
Q 3116 1113 3116 1747 
z
M 1159 2969 
Q 1341 3281 1617 3432 
Q 1894 3584 2278 3584 
Q 2916 3584 3314 3078 
Q 3713 2572 3713 1747 
Q 3713 922 3314 415 
Q 2916 -91 2278 -91 
Q 1894 -91 1617 61 
Q 1341 213 1159 525 
L 1159 0 
L 581 0 
L 581 4863 
L 1159 4863 
L 1159 2969 
z
" transform="scale(0.015625)"/>
      <path id="DejaVuSans-72" d="M 2631 2963 
Q 2534 3019 2420 3045 
Q 2306 3072 2169 3072 
Q 1681 3072 1420 2755 
Q 1159 2438 1159 1844 
L 1159 0 
L 581 0 
L 581 3500 
L 1159 3500 
L 1159 2956 
Q 1341 3275 1631 3429 
Q 1922 3584 2338 3584 
Q 2397 3584 2469 3576 
Q 2541 3569 2628 3553 
L 2631 2963 
z
" transform="scale(0.015625)"/>
      <path id="DejaVuSans-67" d="M 2906 1791 
Q 2906 2416 2648 2759 
Q 2391 3103 1925 3103 
Q 1463 3103 1205 2759 
Q 947 2416 947 1791 
Q 947 1169 1205 825 
Q 1463 481 1925 481 
Q 2391 481 2648 825 
Q 2906 1169 2906 1791 
z
M 3481 434 
Q 3481 -459 3084 -895 
Q 2688 -1331 1869 -1331 
Q 1566 -1331 1297 -1286 
Q 1028 -1241 775 -1147 
L 775 -588 
Q 1028 -725 1275 -790 
Q 1522 -856 1778 -856 
Q 2344 -856 2625 -561 
Q 2906 -266 2906 331 
L 2906 616 
Q 2728 306 2450 153 
Q 2172 0 1784 0 
Q 1141 0 747 490 
Q 353 981 353 1791 
Q 353 2603 747 3093 
Q 1141 3584 1784 3584 
Q 2172 3584 2450 3431 
Q 2728 3278 2906 2969 
L 2906 3500 
L 3481 3500 
L 3481 434 
z
" transform="scale(0.015625)"/>
      <path id="DejaVuSans-5f" d="M 3263 -1063 
L 3263 -1509 
L -63 -1509 
L -63 -1063 
L 3263 -1063 
z
" transform="scale(0.015625)"/>
      <path id="DejaVuSans-4d" d="M 628 4666 
L 1569 4666 
L 2759 1491 
L 3956 4666 
L 4897 4666 
L 4897 0 
L 4281 0 
L 4281 4097 
L 3078 897 
L 2444 897 
L 1241 4097 
L 1241 0 
L 628 0 
L 628 4666 
z
" transform="scale(0.015625)"/>
     </defs>
     <use xlink:href="#DejaVuSans-4c"/>
     <use xlink:href="#DejaVuSans-69" x="55.712891"/>
     <use xlink:href="#DejaVuSans-63" x="83.496094"/>
     <use xlink:href="#DejaVuSans-68" x="138.476562"/>
     <use xlink:href="#DejaVuSans-74" x="201.855469"/>
     <use xlink:href="#DejaVuSans-65" x="241.064453"/>
     <use xlink:href="#DejaVuSans-6e" x="302.587891"/>
     <use xlink:href="#DejaVuSans-62" x="365.966797"/>
     <use xlink:href="#DejaVuSans-65" x="429.443359"/>
     <use xlink:href="#DejaVuSans-72" x="490.966797"/>
     <use xlink:href="#DejaVuSans-67" x="530.330078"/>
     <use xlink:href="#DejaVuSans-5f" x="593.806641"/>
     <use xlink:href="#DejaVuSans-4d" x="643.806641"/>
     <use xlink:href="#DejaVuSans-69" x="730.085938"/>
     <use xlink:href="#DejaVuSans-74" x="757.869141"/>
     <use xlink:href="#DejaVuSans-74" x="797.078125"/>
     <use xlink:href="#DejaVuSans-65" x="836.287109"/>
    </g>
   </g>
  </g>
 </g>
 <defs>
  <clipPath id="pd0f361b3ac">
   <rect x="90" y="212.10404" width="558" height="302.991919"/>
  </clipPath>
 </defs>
</svg>
