<?xml version="1.0" encoding="utf-8" standalone="no"?>
<!DOCTYPE svg PUBLIC "-//W3C//DTD SVG 1.1//EN"
  "http://www.w3.org/Graphics/SVG/1.1/DTD/svg11.dtd">
<svg xmlns:xlink="http://www.w3.org/1999/xlink" width="720pt" height="720pt" viewBox="0 0 720 720" xmlns="http://www.w3.org/2000/svg" version="1.1">
 <metadata>
  <rdf:RDF xmlns:dc="http://purl.org/dc/elements/1.1/" xmlns:cc="http://creativecommons.org/ns#" xmlns:rdf="http://www.w3.org/1999/02/22-rdf-syntax-ns#">
   <cc:Work>
    <dc:type rdf:resource="http://purl.org/dc/dcmitype/StillImage"/>
    <dc:date>2024-10-15T13:01:12.085734</dc:date>
    <dc:format>image/svg+xml</dc:format>
    <dc:creator>
     <cc:Agent>
      <dc:title>Matplotlib v3.9.2, https://matplotlib.org/</dc:title>
     </cc:Agent>
    </dc:creator>
   </cc:Work>
  </rdf:RDF>
 </metadata>
 <defs>
  <style type="text/css">*{stroke-linejoin: round; stroke-linecap: butt}</style>
 </defs>
 <g id="figure_1">
  <g id="patch_1">
   <path d="M 0 720 
L 720 720 
L 720 0 
L 0 0 
z
" style="fill: #ffffff"/>
  </g>
  <g id="axes_1">
   <g id="patch_2">
    <path d="M 104.885656 640.8 
L 633.114344 640.8 
L 633.114344 86.4 
L 104.885656 86.4 
z
" style="fill: #ffffff"/>
   </g>
   <g id="PatchCollection_1">
    <path d="M 224.070064 197.131262 
L 223.476603 197.332428 
L 223.325527 197.383546 
L 223.114982 197.454655 
L 223.025483 197.504339 
L 222.415105 197.841161 
L 215.815916 201.563237 
L 213.445175 202.900401 
L 207.907232 206.02374 
L 204.453398 207.966474 
L 201.387757 209.723294 
L 201.167174 209.837255 
L 199.750634 210.565221 
L 199.186734 210.853961 
L 198.610603 211.124734 
L 192.639675 213.785397 
L 191.87569 214.088899 
L 191.325287 214.42513 
L 187.09878 216.680392 
L 186.924844 216.778241 
L 186.363306 217.078876 
L 186.352975 217.084468 
L 185.797382 217.385246 
L 185.622602 217.485626 
L 185.028757 217.796551 
L 183.74541 218.619077 
L 183.469154 218.776564 
L 181.533928 219.993187 
L 181.292341 220.145529 
L 179.356018 221.36966 
L 178.760991 221.745537 
L 178.700426 221.782315 
L 178.0434 222.178942 
L 177.384688 222.577173 
L 176.72859 222.972957 
L 176.074095 223.368742 
L 175.804503 223.531458 
L 175.393367 223.726145 
L 174.70648 224.051326 
L 173.84861 224.45757 
L 173.285048 224.728596 
L 172.708242 224.989247 
L 170.451968 226.010003 
L 169.314467 226.523966 
L 167.26722 227.464333 
L 165.9654 228.058684 
L 165.841992 228.118744 
L 164.581842 228.713348 
L 164.138904 228.92229 
L 161.924385 229.967424 
L 161.352387 230.237438 
L 160.785113 230.526937 
L 158.529092 231.669161 
L 158.49417 231.685357 
L 156.044812 232.925937 
L 154.816717 233.547872 
L 153.576728 234.175458 
L 152.336654 234.803129 
L 151.765247 235.092544 
L 150.209103 235.93 
L 149.94668 236.071798 
L 147.817864 237.217312 
L 147.710482 237.275093 
L 146.850335 239.576665 
L 146.424183 239.454691 
L 146.15012 239.375905 
L 145.876395 239.296191 
L 145.602922 239.21555 
L 145.330462 239.133896 
L 145.058255 239.051315 
L 144.786385 238.967805 
L 144.226872 239.272235 
L 143.32168 239.864731 
L 142.317963 240.483291 
L 142.231755 240.536433 
L 139.291293 242.36411 
L 137.276944 243.615487 
L 136.325695 244.206464 
L 135.762048 244.556613 
L 135.335137 244.821819 
L 134.341628 245.436415 
L 131.475481 247.216517 
L 128.896051 248.818127 
L 129.630934 251.780858 
L 130.520943 255.369066 
L 130.538067 255.490787 
L 130.749118 256.991174 
L 130.73056 257.300328 
L 130.636507 258.879247 
L 130.600572 259.479925 
L 130.601163 260.695367 
L 130.601416 261.566649 
L 130.60091 262.438775 
L 130.6015 263.561514 
L 130.558227 264.153587 
L 130.497661 264.986658 
L 130.470922 265.328625 
L 130.433553 265.83314 
L 130.35308 266.961024 
L 130.285176 267.335889 
L 130.028996 268.744668 
L 129.676654 270.685546 
L 129.637598 270.921819 
L 129.566614 271.296915 
L 129.484751 271.729499 
L 130.283658 271.768302 
L 131.631281 271.825915 
L 131.841995 271.835025 
L 131.621834 275.540231 
L 131.370209 279.801154 
L 130.403692 294.041459 
L 129.31343 309.654441 
L 132.830275 313.406378 
L 136.991999 317.84613 
L 145.492251 326.742925 
L 146.170281 327.453852 
L 146.724396 328.034538 
L 151.022519 332.530891 
L 151.054741 332.564379 
L 154.152521 335.795774 
L 156.503692 338.27415 
L 157.21327 339.077443 
L 157.744947 339.66395 
L 159.079158 341.13591 
L 160.057569 342.197576 
L 161.051163 343.277801 
L 162.072931 344.388561 
L 163.101953 345.507167 
L 163.311148 345.769167 
L 164.203941 346.711137 
L 165.310652 347.878751 
L 166.719432 349.297316 
L 168.048329 350.665859 
L 170.174277 352.854904 
L 170.466982 353.156212 
L 170.53438 353.222008 
L 172.893228 355.550572 
L 173.469106 356.031047 
L 176.278145 358.376482 
L 176.553979 358.601621 
L 176.844913 358.844473 
L 179.387481 360.909941 
L 180.967076 362.201132 
L 181.514611 362.645757 
L 182.467547 363.422901 
L 183.16405 364.094098 
L 183.34502 364.268547 
L 183.618206 364.53189 
L 184.530653 365.456989 
L 185.57393 366.515029 
L 186.080386 367.027389 
L 188.401865 369.378392 
L 188.475168 369.460467 
L 189.413679 370.408595 
L 190.294999 371.319439 
L 191.150929 372.200843 
L 192.116181 373.190473 
L 193.041449 374.140962 
L 193.097797 374.200262 
L 193.989998 374.915238 
L 195.686422 376.274671 
L 196.701947 377.088425 
L 196.806967 377.171766 
L 197.981329 378.103276 
L 198.994662 378.906991 
L 200.028914 379.727324 
L 201.06983 380.552971 
L 202.059628 381.338129 
L 203.175028 382.222908 
L 204.117842 382.970697 
L 204.140111 382.98917 
L 205.138176 383.81912 
L 206.152352 384.662481 
L 207.205921 385.538571 
L 208.234184 386.393658 
L 209.240937 387.230777 
L 209.438745 387.395265 
L 210.209309 388.088056 
L 211.153388 388.959845 
L 211.864315 389.615774 
L 212.169673 389.905695 
L 213.13484 390.837796 
L 214.106924 391.77656 
L 215.078502 392.714903 
L 216.031354 393.635194 
L 216.97636 394.547894 
L 217.927356 395.466329 
L 218.203106 395.724956 
L 218.807495 396.259669 
L 219.63019 397.033777 
L 220.601515 397.947742 
L 220.920876 398.250991 
L 221.70519 398.789163 
L 222.018224 399.004263 
L 223.999845 400.363612 
L 224.251301 400.536282 
L 226.047429 401.625533 
L 227.990332 402.803607 
L 228.82897 403.416769 
L 231.299922 405.213825 
L 231.854675 405.622063 
L 232.464668 406.060054 
L 238.291436 410.364419 
L 243.085977 412.923436 
L 248.400975 415.704977 
L 256.636106 420.973581 
L 263.443562 425.336234 
L 271.721797 430.637736 
L 281.981821 437.206726 
L 292.154288 443.722489 
L 292.026914 444.346786 
L 289.49565 456.738073 
L 287.861394 464.619596 
L 286.050504 473.370714 
L 284.104565 482.966965 
L 282.907764 488.778465 
L 281.860775 493.897849 
L 285.145228 494.079123 
L 298.252166 495.437207 
L 309.338091 496.712202 
L 318.636829 497.226165 
L 324.824374 497.501409 
L 329.712968 497.505627 
L 330.139373 497.483358 
L 338.899095 497.023043 
L 340.748956 496.926628 
L 342.534709 496.830634 
L 344.161457 496.756909 
L 345.551004 496.693898 
L 350.911553 496.451552 
L 353.103128 496.348978 
L 356.875901 496.174368 
L 366.521076 495.636364 
L 370.799629 495.339695 
L 372.692342 495.208694 
L 375.465109 495.016707 
L 379.156228 494.698021 
L 379.417975 497.589052 
L 379.548217 499.259326 
L 379.684362 501.154063 
L 379.80389 503.072756 
L 379.967282 505.218022 
L 380.110598 507.44047 
L 380.263361 509.423272 
L 380.416378 511.622186 
L 380.481814 512.43048 
L 380.545438 513.216374 
L 380.702925 515.361808 
L 380.888248 517.906654 
L 381.015537 519.596835 
L 381.140379 521.287016 
L 381.265138 522.977956 
L 381.389896 524.668137 
L 381.515582 526.359078 
L 381.64034 528.050102 
L 381.76417 529.74273 
L 381.88994 531.518107 
L 382.100232 534.478392 
L 382.15405 535.241027 
L 382.18855 535.999108 
L 382.367041 539.927174 
L 382.49551 542.755193 
L 382.510947 543.096232 
L 382.646081 546.065289 
L 382.681171 546.836022 
L 382.716347 547.606756 
L 382.751437 548.376645 
L 382.791336 549.252904 
L 382.832922 550.173111 
L 382.854432 550.639077 
L 382.89121 551.455446 
L 382.999435 553.83943 
L 383.014534 554.157694 
L 383.117361 555.268792 
L 383.113818 555.280517 
L 382.578429 557.530886 
L 382.230136 558.98994 
L 382.583997 562.162625 
L 382.978684 565.599504 
L 382.873749 568.372441 
L 382.241355 572.39009 
L 381.931273 575.344891 
L 381.872732 578.927616 
L 381.763664 581.245552 
L 381.912716 583.506803 
L 382.497957 586.673162 
L 382.859662 589.719739 
L 383.413102 595.341783 
L 383.667258 595.362281 
L 389.642909 595.843936 
L 390.246455 595.874135 
L 390.79787 595.918926 
L 393.43154 596.11859 
L 396.327547 596.339932 
L 399.258139 596.560768 
L 402.120574 596.777724 
L 402.229896 596.786497 
L 405.076472 597.031795 
L 410.771818 597.516825 
L 414.318946 597.821255 
L 418.01597 598.159679 
L 421.584355 598.537496 
L 421.799877 598.560272 
L 422.040705 598.134458 
L 422.684993 598.188022 
L 423.486009 598.254576 
L 433.229118 599.063606 
L 439.722528 600.008107 
L 440.988245 600.192755 
L 447.157064 601.077196 
L 452.570081 601.697866 
L 453.854608 601.863704 
L 461.016418 603.154645 
L 463.377303 603.580203 
L 472.723026 605.449634 
L 473.38798 605.560137 
L 476.753581 606.045504 
L 484.748727 606.538632 
L 490.871743 607.233869 
L 496.809098 608.428898 
L 501.850877 609.475635 
L 506.341156 610.046283 
L 510.935358 609.482551 
L 513.066368 609.091913 
L 515.887891 608.734593 
L 517.40886 608.470315 
L 523.317029 607.674023 
L 523.291639 607.76639 
L 522.118289 612.036592 
L 536.968719 613.166922 
L 542.854197 613.615343 
L 545.583185 613.821417 
L 547.929717 613.999233 
L 550.789959 614.21543 
L 551.164739 614.244532 
L 551.269252 614.251533 
L 551.467988 614.267138 
L 552.970231 614.381268 
L 553.063188 614.393499 
L 553.387441 614.417961 
L 553.767282 614.441496 
L 554.033838 614.461825 
L 558.536938 614.804551 
L 559.272497 614.861236 
L 559.632347 614.888651 
L 560.367314 614.944577 
L 560.733069 614.972414 
L 561.513419 615.031883 
L 563.698752 615.198311 
L 564.537221 615.262166 
L 568.973514 615.6 
L 570.11152 612.746 
L 570.277021 612.327103 
L 570.758845 611.10719 
L 572.425154 607.174316 
L 573.25038 605.293075 
L 574.057891 603.451987 
L 574.838662 601.645736 
L 575.606022 599.878962 
L 576.351618 598.149641 
L 577.886505 594.783872 
L 583.841912 581.674572 
L 584.879032 579.400415 
L 585.890256 577.181931 
L 586.880982 574.980824 
L 587.845221 572.838173 
L 588.787528 570.744869 
L 590.86354 566.243118 
L 591.198674 565.511271 
L 591.564007 564.710339 
L 591.794713 564.204221 
L 592.106481 563.52054 
L 592.258992 563.186249 
L 592.331535 563.027075 
L 592.72268 562.169289 
L 592.968738 561.629936 
L 593.684304 560.057681 
L 594.381398 558.523974 
L 595.044243 557.065595 
L 595.697051 555.632016 
L 596.352812 554.189074 
L 596.627128 553.585359 
L 597.016585 552.728333 
L 597.722198 551.17396 
L 598.364209 549.757926 
L 599.001074 548.351087 
L 599.630432 546.96542 
L 600.32162 545.442932 
L 601.028752 543.882402 
L 601.730147 542.334693 
L 602.411213 540.831185 
L 602.770726 540.049739 
L 603.114886 539.277065 
L 603.812485 537.73931 
L 604.509325 536.201133 
L 605.414011 534.171684 
L 605.49634 533.993109 
L 605.562388 533.849877 
L 605.614771 533.736507 
L 605.754038 533.458226 
L 606.000855 532.885048 
L 606.1273 532.591415 
L 607.246412 530.080563 
L 608.345616 527.669923 
L 609.086572 525.975525 
L 609.103949 522.273862 
L 609.060507 521.200132 
L 609.017825 520.064066 
L 608.995893 519.843483 
L 608.6104 517.598934 
L 608.315923 515.911536 
L 608.039836 514.2637 
L 607.76552 512.604814 
L 607.513051 510.942217 
L 607.379268 510.107965 
L 607.244978 509.267472 
L 606.967119 507.599813 
L 606.795207 506.572562 
L 606.608618 505.868974 
L 606.181708 504.232947 
L 605.849863 502.963182 
L 605.2421 500.637148 
L 605.089674 500.000029 
L 605.027928 499.726726 
L 604.917003 499.236044 
L 604.892204 499.126301 
L 604.766433 498.569487 
L 604.201859 496.071035 
L 603.866555 494.587772 
L 603.527878 493.088903 
L 603.191225 491.599229 
L 602.853813 490.106266 
L 602.518932 488.624436 
L 602.14567 486.972805 
L 601.773167 485.324125 
L 601.702985 485.013706 
L 601.395434 483.652839 
L 600.734022 480.726127 
L 597.954169 469.660279 
L 597.536959 467.999199 
L 597.192714 466.627957 
L 596.634382 464.405846 
L 595.183679 458.630955 
L 591.950513 445.905629 
L 590.30875 439.452962 
L 589.994029 438.214744 
L 589.876694 437.753249 
L 589.814863 437.509891 
L 589.341137 435.664837 
L 589.156741 434.939317 
L 588.966778 434.191781 
L 588.5591 432.600377 
L 588.101063 430.801802 
L 587.641508 429.002806 
L 587.181953 427.203894 
L 586.722482 425.404982 
L 586.263011 423.605985 
L 585.803456 421.807073 
L 585.343986 420.008161 
L 585.159168 419.283062 
L 584.886455 418.218021 
L 584.761865 417.731136 
L 584.424791 416.409156 
L 583.885944 414.300583 
L 583.764222 413.748746 
L 583.573838 413.062956 
L 582.79062 410.001617 
L 582.331571 408.207597 
L 581.873197 406.416024 
L 581.412883 404.617365 
L 580.956027 402.831612 
L 580.483312 400.984112 
L 580.021648 399.179802 
L 579.566817 397.40299 
L 579.152897 395.790076 
L 579.002158 395.200955 
L 578.842815 394.578008 
L 578.683388 393.955061 
L 577.98368 391.226663 
L 577.526065 389.429016 
L 577.296119 388.527198 
L 577.066088 387.624537 
L 576.606955 385.820985 
L 576.150183 384.025869 
L 575.654947 382.079002 
L 575.23648 380.447568 
L 575.233181 380.434708 
L 574.071725 375.729751 
L 572.604826 369.784214 
L 572.165516 368.001244 
L 571.967455 367.197023 
L 571.861676 366.768257 
L 571.755982 366.340249 
L 571.727724 366.228397 
L 571.650203 365.911483 
L 571.48968 365.260615 
L 571.329156 364.608988 
L 571.290775 364.454707 
L 571.223377 364.180981 
L 571.186768 364.033785 
L 571.117683 363.752215 
L 571.011989 363.324292 
L 570.852899 362.681944 
L 570.812241 362.515853 
L 570.20996 360.067507 
L 569.333617 356.524512 
L 569.197049 355.972 
L 568.235425 352.091425 
L 568.13437 351.682059 
L 567.893711 350.714362 
L 567.41661 348.786474 
L 567.061737 347.352557 
L 566.706949 345.918725 
L 566.298511 344.286494 
L 566.248659 344.081769 
L 566.140743 343.638858 
L 566.049586 343.264726 
L 565.995684 343.043384 
L 565.339586 340.374877 
L 564.897239 338.572422 
L 564.454133 336.76828 
L 564.010942 334.964981 
L 563.567836 333.161683 
L 563.480868 332.807906 
L 563.124645 331.358384 
L 562.681539 329.555086 
L 562.239192 327.751787 
L 561.796085 325.948489 
L 561.57449 325.046839 
L 561.50802 324.108497 
L 561.404266 322.64067 
L 561.27335 320.787603 
L 561.142265 318.938754 
L 561.006541 317.028327 
L 561.059852 316.438869 
L 561.875799 309.184679 
L 562.18276 306.375049 
L 562.274704 305.636201 
L 562.38023 304.654754 
L 562.45058 304.37099 
L 562.861717 302.710417 
L 563.271926 301.049 
L 563.683062 299.387668 
L 564.057674 297.872266 
L 566.425294 296.982764 
L 568.89574 296.053784 
L 569.494984 293.189831 
L 568.098942 292.707838 
L 566.321624 292.095435 
L 562.195413 290.673412 
L 561.729531 290.512804 
L 560.862466 290.112549 
L 560.621723 289.955315 
L 560.515101 289.880747 
L 560.115942 289.619 
L 559.614548 289.290276 
L 558.459081 288.532618 
L 558.301594 288.433503 
L 556.98206 287.564076 
L 556.561222 287.292122 
L 555.136669 286.358335 
L 555.06674 286.30806 
L 553.703764 285.41763 
L 552.872381 284.873047 
L 552.267739 284.466803 
L 552.041335 284.308978 
L 550.851958 283.51547 
L 549.430273 282.559834 
L 548.754268 282.09235 
L 548.534191 281.957385 
L 547.530559 281.283827 
L 546.308115 280.455143 
L 543.65167 278.655303 
L 542.604175 277.943785 
L 542.368324 277.790009 
L 538.834017 275.405856 
L 536.197058 274.134488 
L 535.297011 273.694756 
L 532.24706 272.229122 
L 531.717154 271.973617 
L 531.191972 271.691203 
L 531.093532 271.636205 
L 527.776266 269.85332 
L 525.099492 268.415017 
L 523.048871 267.313282 
L 519.589217 266.059122 
L 519.545691 266.043095 
L 519.002795 265.846383 
L 518.457874 265.673291 
L 517.90958 265.499186 
L 515.911595 265.087628 
L 514.394253 264.775353 
L 514.283329 264.753 
L 513.327609 264.669912 
L 512.817864 264.640895 
L 511.817268 264.566158 
L 511.236161 264.519679 
L 510.133667 264.436339 
L 509.65606 264.399476 
L 508.452512 264.306604 
L 508.077731 264.277502 
L 506.769922 264.169193 
L 506.497715 264.158986 
L 505.805346 264.107024 
L 505.251737 264.121786 
L 504.908757 264.149032 
L 503.558182 264.204283 
L 503.323343 264.225119 
L 501.857878 264.28754 
L 501.738687 264.300446 
L 500.58381 264.355275 
L 500.15167 264.416263 
L 499.24749 264.547516 
L 498.746011 264.618119 
L 498.054148 264.71715 
L 497.46722 264.801334 
L 497.006146 264.87354 
L 496.871603 264.894628 
L 495.698169 265.080627 
L 495.449496 265.119767 
L 494.533338 265.262661 
L 493.894617 265.36186 
L 493.3238 265.438705 
L 492.327001 265.607833 
L 492.016751 265.643261 
L 491.622316 265.718504 
L 490.765121 265.907961 
L 490.606115 265.931917 
L 489.121081 266.271523 
L 486.858649 266.771736 
L 486.110775 266.934622 
L 484.173608 267.365075 
L 483.800093 267.448247 
L 483.419746 267.532937 
L 482.413499 267.755882 
L 481.28941 268.006158 
L 480.960771 268.079207 
L 479.553004 268.39241 
L 478.635665 268.595954 
L 478.149454 268.703926 
L 476.656997 269.036614 
L 475.1696 269.366772 
L 472.979965 269.854079 
L 471.434955 270.19748 
L 470.346127 266.821504 
L 469.674002 264.729634 
L 469.285219 263.526254 
L 468.766617 261.919667 
L 468.197993 260.150278 
L 467.603895 258.302779 
L 467.037464 256.553635 
L 466.649525 255.349411 
L 466.310257 254.29289 
L 466.245812 254.092552 
L 465.748635 252.556483 
L 465.653182 252.261412 
L 465.159851 250.737748 
L 465.028513 250.325346 
L 464.224967 247.826051 
L 463.656933 246.070159 
L 463.087466 244.299927 
L 462.52306 242.533913 
L 461.955196 240.766211 
L 461.38497 238.994292 
L 460.894373 237.46843 
L 460.817105 237.22735 
L 459.988084 234.649184 
L 459.794578 234.044964 
L 459.676568 233.685114 
L 459.561089 233.326107 
L 459.319839 232.575113 
L 459.000563 231.575445 
L 458.522704 230.092857 
L 458.03295 228.566152 
L 455.283042 220.010142 
L 455.121506 219.534729 
L 455.022813 219.244133 
L 454.939894 218.938353 
L 454.399697 220.127646 
L 454.211422 220.449368 
L 453.48084 221.697962 
L 453.331957 221.952455 
L 453.266584 222.067512 
L 452.73575 223.140567 
L 453.032504 224.066003 
L 453.359288 225.084482 
L 452.787121 225.267949 
L 452.319974 225.417845 
L 451.913477 225.548254 
L 450.97505 225.847961 
L 449.092038 226.447879 
L 450.621948 227.563363 
L 450.440252 227.935191 
L 449.937761 228.946246 
L 449.234847 230.327696 
L 448.648341 231.485694 
L 448.441761 231.893878 
L 448.217213 231.961445 
L 447.77166 231.880803 
L 447.506033 231.832722 
L 446.978911 231.429683 
L 445.790967 230.516393 
L 445.051107 229.949879 
L 444.315296 229.385979 
L 442.976867 228.360246 
L 441.775511 227.440798 
L 440.570023 226.515362 
L 439.359388 225.598613 
L 438.153731 224.670983 
L 436.949086 223.744281 
L 435.013353 222.257475 
L 434.664975 221.989654 
L 433.590993 221.16367 
L 432.385419 220.366449 
L 432.286979 220.390659 
L 431.773776 220.09711 
L 431.260319 219.803815 
L 430.746778 219.510857 
L 430.474824 219.337512 
L 430.20675 219.158093 
L 429.942725 218.972769 
L 429.683002 218.781541 
L 429.427497 218.584661 
L 429.405734 218.618655 
L 429.137913 218.412581 
L 428.737911 218.104692 
L 428.346598 217.803468 
L 427.931412 217.483686 
L 427.52618 217.171833 
L 427.135626 216.871198 
L 426.725839 216.555634 
L 426.323053 216.245552 
L 425.662232 215.736904 
L 424.861891 215.120705 
L 424.119753 214.549382 
L 422.647709 213.416099 
L 422.434127 212.753507 
L 422.885584 211.340256 
L 422.677907 211.25565 
L 422.295704 211.099935 
L 421.716536 210.836163 
L 419.28641 209.729114 
L 416.678131 208.540833 
L 415.346113 207.933998 
L 415.041092 207.722019 
L 414.089169 207.042302 
L 413.138426 206.363429 
L 409.405299 203.697621 
L 409.230436 203.517949 
L 409.06038 203.333807 
L 408.895217 203.145193 
L 408.73503 202.952362 
L 408.326678 202.520053 
L 408.155357 202.329922 
L 407.988253 202.141983 
L 407.791205 201.962311 
L 407.483316 201.652145 
L 407.170114 201.347209 
L 406.85185 201.047672 
L 406.528525 200.753617 
L 406.200223 200.465045 
L 404.567064 199.141041 
L 404.24686 198.868159 
L 403.866934 198.590384 
L 403.484815 198.316996 
L 403.085825 198.026231 
L 402.449213 197.625133 
L 401.339212 196.925846 
L 400.621537 196.47363 
L 398.309421 195.143889 
L 397.741725 194.837266 
L 397.171752 194.534945 
L 396.599501 194.236926 
L 396.024889 193.943377 
L 395.448167 193.654131 
L 394.135719 193.063913 
L 392.815426 192.466019 
L 391.589861 191.910976 
L 389.839367 191.118395 
L 389.656743 191.035645 
L 387.730036 190.227796 
L 387.443067 190.115522 
L 387.158713 189.996753 
L 386.877227 189.871573 
L 386.598609 189.739983 
L 386.323028 189.601981 
L 385.618427 189.253435 
L 385.18848 189.043986 
L 384.760979 188.829561 
L 384.336093 188.610159 
L 383.842881 188.342085 
L 383.3495 188.07418 
L 382.85612 187.806443 
L 382.568054 187.650812 
L 382.282013 187.491469 
L 381.997996 187.328499 
L 381.716089 187.161986 
L 381.317605 186.929341 
L 380.922833 186.690284 
L 380.532026 186.444901 
L 380.145183 186.193276 
L 379.762473 185.935494 
L 379.467153 185.761052 
L 379.175629 185.580283 
L 378.88807 185.393273 
L 378.604644 185.200104 
L 378.32552 185.000778 
L 378.050698 184.795463 
L 377.780431 184.584243 
L 376.808094 183.871291 
L 376.000835 183.28082 
L 375.621072 183.13805 
L 374.001163 181.795786 
L 373.0374 180.947879 
L 370.012869 177.968774 
L 369.069633 177.097155 
L 366.450135 174.706253 
L 366.01791 174.312831 
L 363.51541 171.955502 
L 363.477198 171.922773 
L 363.177154 171.644661 
L 362.744592 171.374056 
L 362.517008 171.232259 
L 359.084768 168.931025 
L 362.842695 167.095419 
L 364.516343 166.287064 
L 364.752194 166.168464 
L 364.761472 166.167789 
L 365.483956 165.812241 
L 365.88438 165.615193 
L 368.278402 164.437034 
L 372.439958 162.420238 
L 372.586985 162.347863 
L 373.013558 162.137824 
L 375.557392 160.885688 
L 381.546792 157.982089 
L 382.123176 157.70035 
L 382.509513 157.515111 
L 382.898127 157.334596 
L 383.195441 157.20108 
L 383.570505 157.036239 
L 383.853088 156.915952 
L 384.136767 156.798111 
L 384.248788 156.752644 
L 384.360977 156.707515 
L 384.473335 156.662808 
L 384.872409 156.507093 
L 385.273424 156.356438 
L 385.676294 156.210845 
L 386.080344 156.07065 
L 386.486082 155.935432 
L 386.893507 155.805444 
L 392.801676 153.960054 
L 392.75815 153.720491 
L 392.913444 153.490714 
L 389.906006 130.924092 
L 389.431942 130.569219 
L 389.402334 130.573774 
L 389.342697 130.160191 
L 381.868936 131.285713 
L 380.54974 131.484365 
L 380.199084 131.959272 
L 379.603046 132.049192 
L 378.290935 132.246916 
L 377.823872 132.317351 
L 366.336512 134.047515 
L 365.763755 134.133808 
L 365.376954 134.197917 
L 364.71162 134.008797 
L 364.081594 133.824001 
L 353.717862 130.784501 
L 353.595581 130.748638 
L 353.915701 129.350402 
L 352.291737 128.876676 
L 342.731252 126.069324 
L 339.788175 125.207826 
L 336.612707 124.271002 
L 336.183518 124.144388 
L 335.731808 124.87421 
L 335.402831 125.405803 
L 334.714764 125.203524 
L 331.964013 124.395001 
L 327.666311 123.13173 
L 319.497229 120.739142 
L 319.173482 120.64357 
L 317.043316 120.014465 
L 317.341673 119.304719 
L 318.210087 116.551184 
L 299.932141 112.216283 
L 297.335924 111.6 
L 297.578523 112.32493 
L 297.109773 112.671114 
L 295.988047 113.46631 
L 294.698711 114.380612 
L 294.829627 114.789303 
L 294.981378 115.263114 
L 286.808922 121.082965 
L 285.743544 121.841214 
L 284.368674 122.819709 
L 283.166475 123.676566 
L 281.379457 124.949116 
L 279.883372 126.003697 
L 279.763928 126.083579 
L 279.640857 126.15781 
L 279.514412 126.226052 
L 279.384846 126.288304 
L 279.252496 126.344314 
L 279.117615 126.393998 
L 278.952621 126.44596 
L 278.784927 126.488474 
L 278.615124 126.521371 
L 278.443719 126.544569 
L 278.271217 126.557896 
L 278.098294 126.561439 
L 277.925454 126.555113 
L 277.753205 126.538917 
L 277.582137 126.513021 
L 277.412925 126.477339 
L 277.245906 126.432126 
L 277.08184 126.377465 
L 276.921063 126.313526 
L 276.172683 125.970293 
L 276.067158 126.20024 
L 275.201443 128.079878 
L 274.75454 129.050696 
L 274.670947 129.231296 
L 274.581195 129.426151 
L 274.407006 129.80574 
L 274.231974 130.185329 
L 274.0577 130.564158 
L 273.883511 130.942903 
L 273.709322 131.322491 
L 273.534206 131.702164 
L 273.32307 132.162057 
L 273.058202 132.738103 
L 272.779181 133.343801 
L 272.52779 133.889522 
L 272.263765 134.464809 
L 272.045628 134.938873 
L 271.870511 135.318462 
L 271.695479 135.698978 
L 271.521205 136.07941 
L 270.996024 137.219947 
L 270.82175 137.600379 
L 270.471601 138.359556 
L 270.297412 138.739229 
L 269.76776 139.889804 
L 269.070919 141.405712 
L 268.895887 141.7853 
L 268.547509 142.543718 
L 268.023086 143.682568 
L 267.848897 144.063 
L 267.673865 144.44183 
L 267.323716 145.202694 
L 267.149442 145.583969 
L 266.624261 146.723663 
L 266.449987 147.104095 
L 266.274027 147.487057 
L 265.962511 148.164075 
L 265.796758 148.524262 
L 265.618773 148.911105 
L 265.449729 149.278293 
L 265.272672 149.663027 
L 265.09823 150.042025 
L 264.923114 150.422626 
L 264.747828 150.803564 
L 264.572036 151.185515 
L 264.306493 151.762574 
L 264.044746 152.33145 
L 263.865496 152.720824 
L 263.691644 153.098641 
L 263.517624 153.476795 
L 263.344616 153.852757 
L 263.164353 154.244408 
L 262.992779 154.617332 
L 262.818253 154.996415 
L 262.639256 155.385451 
L 262.464814 155.764618 
L 262.291722 156.140579 
L 262.110869 156.533748 
L 261.941994 156.900684 
L 261.765865 157.283393 
L 261.593785 157.657415 
L 261.412848 158.050584 
L 261.238996 158.428317 
L 260.853756 159.265352 
L 260.499895 160.034398 
L 259.796391 161.563043 
L 259.33886 162.557228 
L 258.882005 163.550147 
L 258.422871 164.547874 
L 257.962557 165.548132 
L 257.505026 166.542232 
L 257.051544 167.527897 
L 256.59317 168.523768 
L 256.136061 169.517025 
L 255.441246 171.026944 
L 254.93673 172.12328 
L 254.42631 173.232522 
L 253.971985 174.219789 
L 253.505597 175.233206 
L 252.603695 176.757043 
L 250.25109 181.249347 
L 250.170026 181.398314 
L 250.083986 181.544414 
L 249.993054 181.687561 
L 249.897482 181.827671 
L 249.797186 181.964407 
L 249.692167 182.097601 
L 249.582761 182.227251 
L 249.469137 182.353106 
L 249.351296 182.47508 
L 249.229406 182.593006 
L 249.103551 182.706882 
L 248.973901 182.816541 
L 248.840707 182.92173 
L 248.704056 183.022447 
L 248.56403 183.118441 
L 248.420882 183.209711 
L 248.274699 183.296088 
L 248.125731 183.377489 
L 247.974065 183.453913 
L 247.819952 183.525191 
L 239.68208 187.125715 
L 238.373006 187.704714 
L 237.811215 187.969666 
L 233.958223 189.662884 
L 232.764796 190.189331 
L 232.142187 190.463394 
L 230.93518 190.995493 
L 229.718388 191.865594 
L 228.480254 192.751301 
L 224.781038 195.399563 
L 224.477536 195.616435 
L 224.941308 196.776626 
L 224.075087 197.129559 
L 224.070064 197.131262 
" clip-path="url(#pb61b1c6f6c)" style="fill: #d3d3d3"/>
   </g>
   <g id="PatchCollection_2">
    <path d="M 291.151649 171.689043 
L 291.151649 171.60469 
L 291.067296 171.60469 
L 291.067296 171.689043 
L 291.151649 171.689043 
" clip-path="url(#pb61b1c6f6c)" style="fill: #ff0000; fill-opacity: 0.7; stroke: #000000; stroke-opacity: 0.7; stroke-width: 0.5"/>
    <path d="M 401.407025 431.233891 
L 401.407025 431.149538 
L 401.322672 431.149538 
L 401.322672 431.233891 
L 401.407025 431.233891 
" clip-path="url(#pb61b1c6f6c)" style="fill: #ff0000; fill-opacity: 0.7; stroke: #000000; stroke-opacity: 0.7; stroke-width: 0.5"/>
    <path d="M 320.82069 284.074877 
L 320.82069 283.990524 
L 320.736337 283.990524 
L 320.736337 284.074877 
L 320.82069 284.074877 
" clip-path="url(#pb61b1c6f6c)" style="fill: #ff0000; fill-opacity: 0.7; stroke: #000000; stroke-opacity: 0.7; stroke-width: 0.5"/>
    <path d="M 498.962515 516.320478 
L 498.962515 516.236125 
L 498.878162 516.236125 
L 498.878162 516.320478 
L 498.962515 516.320478 
" clip-path="url(#pb61b1c6f6c)" style="fill: #ff0000; fill-opacity: 0.7; stroke: #000000; stroke-opacity: 0.7; stroke-width: 0.5"/>
    <path d="M 454.06727 512.320023 
L 454.06727 512.23567 
L 453.982917 512.23567 
L 453.982917 512.320023 
L 454.06727 512.320023 
" clip-path="url(#pb61b1c6f6c)" style="fill: #ff0000; fill-opacity: 0.7; stroke: #000000; stroke-opacity: 0.7; stroke-width: 0.5"/>
    <path d="M 166.530706 271.046016 
L 166.530706 270.961663 
L 166.446353 270.961663 
L 166.446353 271.046016 
L 166.530706 271.046016 
" clip-path="url(#pb61b1c6f6c)" style="fill: #ff0000; fill-opacity: 0.7; stroke: #000000; stroke-opacity: 0.7; stroke-width: 0.5"/>
    <path d="M 479.242597 513.549751 
L 479.242597 513.465398 
L 479.158244 513.465398 
L 479.158244 513.549751 
L 479.242597 513.549751 
" clip-path="url(#pb61b1c6f6c)" style="fill: #ff0000; fill-opacity: 0.7; stroke: #000000; stroke-opacity: 0.7; stroke-width: 0.5"/>
    <path d="M 352.30531 288.376205 
L 352.30531 288.291852 
L 352.220957 288.291852 
L 352.220957 288.376205 
L 352.30531 288.376205 
" clip-path="url(#pb61b1c6f6c)" style="fill: #ff0000; fill-opacity: 0.7; stroke: #000000; stroke-opacity: 0.7; stroke-width: 0.5"/>
    <path d="M 291.672312 177.40843 
L 291.672312 177.324077 
L 291.587959 177.324077 
L 291.587959 177.40843 
L 291.672312 177.40843 
" clip-path="url(#pb61b1c6f6c)" style="fill: #ff0000; fill-opacity: 0.7; stroke: #000000; stroke-opacity: 0.7; stroke-width: 0.5"/>
    <path d="M 293.534275 167.311159 
L 293.534275 167.226806 
L 293.449922 167.226806 
L 293.449922 167.311159 
L 293.534275 167.311159 
" clip-path="url(#pb61b1c6f6c)" style="fill: #ff0000; fill-opacity: 0.7; stroke: #000000; stroke-opacity: 0.7; stroke-width: 0.5"/>
    <path d="M 501.771517 510.92319 
L 501.771517 510.838837 
L 501.687164 510.838837 
L 501.687164 510.92319 
L 501.771517 510.92319 
" clip-path="url(#pb61b1c6f6c)" style="fill: #ff0000; fill-opacity: 0.7; stroke: #000000; stroke-opacity: 0.7; stroke-width: 0.5"/>
    <path d="M 501.771517 510.92319 
L 501.771517 510.838837 
L 501.687164 510.838837 
L 501.687164 510.92319 
L 501.771517 510.92319 
" clip-path="url(#pb61b1c6f6c)" style="fill: #ff0000; fill-opacity: 0.7; stroke: #000000; stroke-opacity: 0.7; stroke-width: 0.5"/>
    <path d="M 419.51014 499.470239 
L 419.51014 499.385886 
L 419.425787 499.385886 
L 419.425787 499.470239 
L 419.51014 499.470239 
" clip-path="url(#pb61b1c6f6c)" style="fill: #ff0000; fill-opacity: 0.7; stroke: #000000; stroke-opacity: 0.7; stroke-width: 0.5"/>
    <path d="M 191.563395 259.752966 
L 191.563395 259.668613 
L 191.479042 259.668613 
L 191.479042 259.752966 
L 191.563395 259.752966 
" clip-path="url(#pb61b1c6f6c)" style="fill: #ff0000; fill-opacity: 0.7; stroke: #000000; stroke-opacity: 0.7; stroke-width: 0.5"/>
    <path d="M 291.672312 177.40843 
L 291.672312 177.324077 
L 291.587959 177.324077 
L 291.587959 177.40843 
L 291.672312 177.40843 
" clip-path="url(#pb61b1c6f6c)" style="fill: #ff0000; fill-opacity: 0.7; stroke: #000000; stroke-opacity: 0.7; stroke-width: 0.5"/>
    <path d="M 462.600355 457.533207 
L 462.600355 457.448854 
L 462.516002 457.448854 
L 462.516002 457.533207 
L 462.600355 457.533207 
" clip-path="url(#pb61b1c6f6c)" style="fill: #ff0000; fill-opacity: 0.7; stroke: #000000; stroke-opacity: 0.7; stroke-width: 0.5"/>
    <path d="M 347.793087 392.428405 
L 347.793087 392.344052 
L 347.708734 392.344052 
L 347.708734 392.428405 
L 347.793087 392.428405 
" clip-path="url(#pb61b1c6f6c)" style="fill: #ff0000; fill-opacity: 0.7; stroke: #000000; stroke-opacity: 0.7; stroke-width: 0.5"/>
    <path d="M 494.529388 342.404807 
L 494.529388 342.320454 
L 494.445035 342.320454 
L 494.445035 342.404807 
L 494.529388 342.404807 
" clip-path="url(#pb61b1c6f6c)" style="fill: #ff0000; fill-opacity: 0.7; stroke: #000000; stroke-opacity: 0.7; stroke-width: 0.5"/>
    <path d="M 474.61126 522.21198 
L 474.61126 522.127627 
L 474.526907 522.127627 
L 474.526907 522.21198 
L 474.61126 522.21198 
" clip-path="url(#pb61b1c6f6c)" style="fill: #ff0000; fill-opacity: 0.7; stroke: #000000; stroke-opacity: 0.7; stroke-width: 0.5"/>
    <path d="M 389.42722 407.233359 
L 389.42722 407.149006 
L 389.342867 407.149006 
L 389.342867 407.233359 
L 389.42722 407.233359 
" clip-path="url(#pb61b1c6f6c)" style="fill: #ff0000; fill-opacity: 0.7; stroke: #000000; stroke-opacity: 0.7; stroke-width: 0.5"/>
    <path d="M 456.219417 240.493378 
L 456.219417 240.409025 
L 456.135064 240.409025 
L 456.135064 240.493378 
L 456.219417 240.493378 
" clip-path="url(#pb61b1c6f6c)" style="fill: #ff0000; fill-opacity: 0.7; stroke: #000000; stroke-opacity: 0.7; stroke-width: 0.5"/>
    <path d="M 225.486672 300.40152 
L 225.486672 300.317167 
L 225.402319 300.317167 
L 225.402319 300.40152 
L 225.486672 300.40152 
" clip-path="url(#pb61b1c6f6c)" style="fill: #ff0000; fill-opacity: 0.7; stroke: #000000; stroke-opacity: 0.7; stroke-width: 0.5"/>
    <path d="M 416.776417 264.166747 
L 416.776417 264.082394 
L 416.692064 264.082394 
L 416.692064 264.166747 
L 416.776417 264.166747 
" clip-path="url(#pb61b1c6f6c)" style="fill: #ff0000; fill-opacity: 0.7; stroke: #000000; stroke-opacity: 0.7; stroke-width: 0.5"/>
    <path d="M 426.592785 512.304493 
L 426.592785 512.22014 
L 426.508432 512.22014 
L 426.508432 512.304493 
L 426.592785 512.304493 
" clip-path="url(#pb61b1c6f6c)" style="fill: #ff0000; fill-opacity: 0.7; stroke: #000000; stroke-opacity: 0.7; stroke-width: 0.5"/>
    <path d="M 589.278462 437.248794 
L 589.278462 437.164441 
L 589.194109 437.164441 
L 589.194109 437.248794 
L 589.278462 437.248794 
" clip-path="url(#pb61b1c6f6c)" style="fill: #ff0000; fill-opacity: 0.7; stroke: #000000; stroke-opacity: 0.7; stroke-width: 0.5"/>
    <path d="M 464.430271 467.799432 
L 464.430271 467.715079 
L 464.345918 467.715079 
L 464.345918 467.799432 
L 464.430271 467.799432 
" clip-path="url(#pb61b1c6f6c)" style="fill: #ff0000; fill-opacity: 0.7; stroke: #000000; stroke-opacity: 0.7; stroke-width: 0.5"/>
    <path d="M 352.305404 288.376122 
L 352.305404 288.291769 
L 352.221051 288.291769 
L 352.221051 288.376122 
L 352.305404 288.376122 
" clip-path="url(#pb61b1c6f6c)" style="fill: #ff0000; fill-opacity: 0.7; stroke: #000000; stroke-opacity: 0.7; stroke-width: 0.5"/>
    <path d="M 343.443471 229.137202 
L 343.443471 229.052849 
L 343.359118 229.052849 
L 343.359118 229.137202 
L 343.443471 229.137202 
" clip-path="url(#pb61b1c6f6c)" style="fill: #ff0000; fill-opacity: 0.7; stroke: #000000; stroke-opacity: 0.7; stroke-width: 0.5"/>
    <path d="M 297.803301 138.843959 
L 297.803301 138.759606 
L 297.718948 138.759606 
L 297.718948 138.843959 
L 297.803301 138.843959 
" clip-path="url(#pb61b1c6f6c)" style="fill: #ff0000; fill-opacity: 0.7; stroke: #000000; stroke-opacity: 0.7; stroke-width: 0.5"/>
    <path d="M 485.934262 446.040226 
L 485.934262 445.955873 
L 485.849909 445.955873 
L 485.849909 446.040226 
L 485.934262 446.040226 
" clip-path="url(#pb61b1c6f6c)" style="fill: #ff0000; fill-opacity: 0.7; stroke: #000000; stroke-opacity: 0.7; stroke-width: 0.5"/>
    <path d="M 154.038531 239.909716 
L 154.038531 239.825363 
L 153.954178 239.825363 
L 153.954178 239.909716 
L 154.038531 239.909716 
" clip-path="url(#pb61b1c6f6c)" style="fill: #ff0000; fill-opacity: 0.7; stroke: #000000; stroke-opacity: 0.7; stroke-width: 0.5"/>
    <path d="M 458.013268 256.994043 
L 458.013268 256.90969 
L 457.928915 256.90969 
L 457.928915 256.994043 
L 458.013268 256.994043 
" clip-path="url(#pb61b1c6f6c)" style="fill: #ff0000; fill-opacity: 0.7; stroke: #000000; stroke-opacity: 0.7; stroke-width: 0.5"/>
    <path d="M 520.901012 442.660422 
L 520.901012 442.576069 
L 520.816659 442.576069 
L 520.816659 442.660422 
L 520.901012 442.660422 
" clip-path="url(#pb61b1c6f6c)" style="fill: #ff0000; fill-opacity: 0.7; stroke: #000000; stroke-opacity: 0.7; stroke-width: 0.5"/>
    <path d="M 204.684726 300.971444 
L 204.684726 300.887091 
L 204.600373 300.887091 
L 204.600373 300.971444 
L 204.684726 300.971444 
" clip-path="url(#pb61b1c6f6c)" style="fill: #ff0000; fill-opacity: 0.7; stroke: #000000; stroke-opacity: 0.7; stroke-width: 0.5"/>
    <path d="M 252.779944 249.994493 
L 252.779944 249.91014 
L 252.695591 249.91014 
L 252.695591 249.994493 
L 252.779944 249.994493 
" clip-path="url(#pb61b1c6f6c)" style="fill: #ff0000; fill-opacity: 0.7; stroke: #000000; stroke-opacity: 0.7; stroke-width: 0.5"/>
    <path d="M 258.233227 253.579972 
L 258.233227 253.495619 
L 258.148874 253.495619 
L 258.148874 253.579972 
L 258.233227 253.579972 
" clip-path="url(#pb61b1c6f6c)" style="fill: #ff0000; fill-opacity: 0.7; stroke: #000000; stroke-opacity: 0.7; stroke-width: 0.5"/>
    <path d="M 321.509836 344.924467 
L 321.509836 344.840114 
L 321.425483 344.840114 
L 321.425483 344.924467 
L 321.509836 344.924467 
" clip-path="url(#pb61b1c6f6c)" style="fill: #ff0000; fill-opacity: 0.7; stroke: #000000; stroke-opacity: 0.7; stroke-width: 0.5"/>
    <path d="M 444.827199 511.998416 
L 444.827199 511.914063 
L 444.742846 511.914063 
L 444.742846 511.998416 
L 444.827199 511.998416 
" clip-path="url(#pb61b1c6f6c)" style="fill: #ff0000; fill-opacity: 0.7; stroke: #000000; stroke-opacity: 0.7; stroke-width: 0.5"/>
    <path d="M 362.543276 283.85383 
L 362.543276 283.769477 
L 362.458923 283.769477 
L 362.458923 283.85383 
L 362.543276 283.85383 
" clip-path="url(#pb61b1c6f6c)" style="fill: #ff0000; fill-opacity: 0.7; stroke: #000000; stroke-opacity: 0.7; stroke-width: 0.5"/>
    <path d="M 460.455267 256.609388 
L 460.455267 256.525035 
L 460.370914 256.525035 
L 460.370914 256.609388 
L 460.455267 256.609388 
" clip-path="url(#pb61b1c6f6c)" style="fill: #ff0000; fill-opacity: 0.7; stroke: #000000; stroke-opacity: 0.7; stroke-width: 0.5"/>
    <path d="M 352.305404 288.376122 
L 352.305404 288.291769 
L 352.221051 288.291769 
L 352.221051 288.376122 
L 352.305404 288.376122 
" clip-path="url(#pb61b1c6f6c)" style="fill: #ff0000; fill-opacity: 0.7; stroke: #000000; stroke-opacity: 0.7; stroke-width: 0.5"/>
    <path d="M 448.367375 515.678096 
L 448.367375 515.593743 
L 448.283022 515.593743 
L 448.283022 515.678096 
L 448.367375 515.678096 
" clip-path="url(#pb61b1c6f6c)" style="fill: #ff0000; fill-opacity: 0.7; stroke: #000000; stroke-opacity: 0.7; stroke-width: 0.5"/>
    <path d="M 479.242193 513.549545 
L 479.242193 513.465192 
L 479.15784 513.465192 
L 479.15784 513.549545 
L 479.242193 513.549545 
" clip-path="url(#pb61b1c6f6c)" style="fill: #ff0000; fill-opacity: 0.7; stroke: #000000; stroke-opacity: 0.7; stroke-width: 0.5"/>
    <path d="M 501.771605 510.923108 
L 501.771605 510.838755 
L 501.687252 510.838755 
L 501.687252 510.923108 
L 501.771605 510.923108 
" clip-path="url(#pb61b1c6f6c)" style="fill: #ff0000; fill-opacity: 0.7; stroke: #000000; stroke-opacity: 0.7; stroke-width: 0.5"/>
    <path d="M 503.693573 500.451299 
L 503.693573 500.366946 
L 503.60922 500.366946 
L 503.60922 500.451299 
L 503.693573 500.451299 
" clip-path="url(#pb61b1c6f6c)" style="fill: #ff0000; fill-opacity: 0.7; stroke: #000000; stroke-opacity: 0.7; stroke-width: 0.5"/>
    <path d="M 484.486981 459.231779 
L 484.486981 459.147426 
L 484.402628 459.147426 
L 484.402628 459.231779 
L 484.486981 459.231779 
" clip-path="url(#pb61b1c6f6c)" style="fill: #ff0000; fill-opacity: 0.7; stroke: #000000; stroke-opacity: 0.7; stroke-width: 0.5"/>
    <path d="M 426.592785 512.304493 
L 426.592785 512.22014 
L 426.508432 512.22014 
L 426.508432 512.304493 
L 426.592785 512.304493 
" clip-path="url(#pb61b1c6f6c)" style="fill: #ff0000; fill-opacity: 0.7; stroke: #000000; stroke-opacity: 0.7; stroke-width: 0.5"/>
    <path d="M 501.771611 510.923099 
L 501.771611 510.838746 
L 501.687258 510.838746 
L 501.687258 510.923099 
L 501.771611 510.923099 
" clip-path="url(#pb61b1c6f6c)" style="fill: #ff0000; fill-opacity: 0.7; stroke: #000000; stroke-opacity: 0.7; stroke-width: 0.5"/>
    <path d="M 176.6107 300.53301 
L 176.6107 300.448657 
L 176.526347 300.448657 
L 176.526347 300.53301 
L 176.6107 300.53301 
" clip-path="url(#pb61b1c6f6c)" style="fill: #ff0000; fill-opacity: 0.7; stroke: #000000; stroke-opacity: 0.7; stroke-width: 0.5"/>
    <path d="M 352.305404 288.376113 
L 352.305404 288.29176 
L 352.221051 288.29176 
L 352.221051 288.376113 
L 352.305404 288.376113 
" clip-path="url(#pb61b1c6f6c)" style="fill: #ff0000; fill-opacity: 0.7; stroke: #000000; stroke-opacity: 0.7; stroke-width: 0.5"/>
    <path d="M 501.771611 510.923099 
L 501.771611 510.838746 
L 501.687258 510.838746 
L 501.687258 510.923099 
L 501.771611 510.923099 
" clip-path="url(#pb61b1c6f6c)" style="fill: #ff0000; fill-opacity: 0.7; stroke: #000000; stroke-opacity: 0.7; stroke-width: 0.5"/>
    <path d="M 153.485147 244.679323 
L 153.485147 244.59497 
L 153.400794 244.59497 
L 153.400794 244.679323 
L 153.485147 244.679323 
" clip-path="url(#pb61b1c6f6c)" style="fill: #ff0000; fill-opacity: 0.7; stroke: #000000; stroke-opacity: 0.7; stroke-width: 0.5"/>
    <path d="M 243.923808 259.156688 
L 243.923808 259.072335 
L 243.839455 259.072335 
L 243.839455 259.156688 
L 243.923808 259.156688 
" clip-path="url(#pb61b1c6f6c)" style="fill: #ff0000; fill-opacity: 0.7; stroke: #000000; stroke-opacity: 0.7; stroke-width: 0.5"/>
   </g>
   <g id="matplotlib.axis_1">
    <g id="xtick_1">
     <g id="line2d_1">
      <defs>
       <path id="md533795959" d="M 0 0 
L 0 3.5 
" style="stroke: #000000; stroke-width: 0.8"/>
      </defs>
      <g>
       <use xlink:href="#md533795959" x="189.183733" y="640.8" style="stroke: #000000; stroke-width: 0.8"/>
      </g>
     </g>
     <g id="text_1">
      <!-- 388000 -->
      <g transform="translate(170.096233 655.398438) scale(0.1 -0.1)">
       <defs>
        <path id="DejaVuSans-33" d="M 2597 2516 
Q 3050 2419 3304 2112 
Q 3559 1806 3559 1356 
Q 3559 666 3084 287 
Q 2609 -91 1734 -91 
Q 1441 -91 1130 -33 
Q 819 25 488 141 
L 488 750 
Q 750 597 1062 519 
Q 1375 441 1716 441 
Q 2309 441 2620 675 
Q 2931 909 2931 1356 
Q 2931 1769 2642 2001 
Q 2353 2234 1838 2234 
L 1294 2234 
L 1294 2753 
L 1863 2753 
Q 2328 2753 2575 2939 
Q 2822 3125 2822 3475 
Q 2822 3834 2567 4026 
Q 2313 4219 1838 4219 
Q 1578 4219 1281 4162 
Q 984 4106 628 3988 
L 628 4550 
Q 988 4650 1302 4700 
Q 1616 4750 1894 4750 
Q 2613 4750 3031 4423 
Q 3450 4097 3450 3541 
Q 3450 3153 3228 2886 
Q 3006 2619 2597 2516 
z
" transform="scale(0.015625)"/>
        <path id="DejaVuSans-38" d="M 2034 2216 
Q 1584 2216 1326 1975 
Q 1069 1734 1069 1313 
Q 1069 891 1326 650 
Q 1584 409 2034 409 
Q 2484 409 2743 651 
Q 3003 894 3003 1313 
Q 3003 1734 2745 1975 
Q 2488 2216 2034 2216 
z
M 1403 2484 
Q 997 2584 770 2862 
Q 544 3141 544 3541 
Q 544 4100 942 4425 
Q 1341 4750 2034 4750 
Q 2731 4750 3128 4425 
Q 3525 4100 3525 3541 
Q 3525 3141 3298 2862 
Q 3072 2584 2669 2484 
Q 3125 2378 3379 2068 
Q 3634 1759 3634 1313 
Q 3634 634 3220 271 
Q 2806 -91 2034 -91 
Q 1263 -91 848 271 
Q 434 634 434 1313 
Q 434 1759 690 2068 
Q 947 2378 1403 2484 
z
M 1172 3481 
Q 1172 3119 1398 2916 
Q 1625 2713 2034 2713 
Q 2441 2713 2670 2916 
Q 2900 3119 2900 3481 
Q 2900 3844 2670 4047 
Q 2441 4250 2034 4250 
Q 1625 4250 1398 4047 
Q 1172 3844 1172 3481 
z
" transform="scale(0.015625)"/>
        <path id="DejaVuSans-30" d="M 2034 4250 
Q 1547 4250 1301 3770 
Q 1056 3291 1056 2328 
Q 1056 1369 1301 889 
Q 1547 409 2034 409 
Q 2525 409 2770 889 
Q 3016 1369 3016 2328 
Q 3016 3291 2770 3770 
Q 2525 4250 2034 4250 
z
M 2034 4750 
Q 2819 4750 3233 4129 
Q 3647 3509 3647 2328 
Q 3647 1150 3233 529 
Q 2819 -91 2034 -91 
Q 1250 -91 836 529 
Q 422 1150 422 2328 
Q 422 3509 836 4129 
Q 1250 4750 2034 4750 
z
" transform="scale(0.015625)"/>
       </defs>
       <use xlink:href="#DejaVuSans-33"/>
       <use xlink:href="#DejaVuSans-38" x="63.623047"/>
       <use xlink:href="#DejaVuSans-38" x="127.246094"/>
       <use xlink:href="#DejaVuSans-30" x="190.869141"/>
       <use xlink:href="#DejaVuSans-30" x="254.492188"/>
       <use xlink:href="#DejaVuSans-30" x="318.115234"/>
      </g>
     </g>
    </g>
    <g id="xtick_2">
     <g id="line2d_2">
      <g>
       <use xlink:href="#md533795959" x="273.536736" y="640.8" style="stroke: #000000; stroke-width: 0.8"/>
      </g>
     </g>
     <g id="text_2">
      <!-- 389000 -->
      <g transform="translate(254.449236 655.398438) scale(0.1 -0.1)">
       <defs>
        <path id="DejaVuSans-39" d="M 703 97 
L 703 672 
Q 941 559 1184 500 
Q 1428 441 1663 441 
Q 2288 441 2617 861 
Q 2947 1281 2994 2138 
Q 2813 1869 2534 1725 
Q 2256 1581 1919 1581 
Q 1219 1581 811 2004 
Q 403 2428 403 3163 
Q 403 3881 828 4315 
Q 1253 4750 1959 4750 
Q 2769 4750 3195 4129 
Q 3622 3509 3622 2328 
Q 3622 1225 3098 567 
Q 2575 -91 1691 -91 
Q 1453 -91 1209 -44 
Q 966 3 703 97 
z
M 1959 2075 
Q 2384 2075 2632 2365 
Q 2881 2656 2881 3163 
Q 2881 3666 2632 3958 
Q 2384 4250 1959 4250 
Q 1534 4250 1286 3958 
Q 1038 3666 1038 3163 
Q 1038 2656 1286 2365 
Q 1534 2075 1959 2075 
z
" transform="scale(0.015625)"/>
       </defs>
       <use xlink:href="#DejaVuSans-33"/>
       <use xlink:href="#DejaVuSans-38" x="63.623047"/>
       <use xlink:href="#DejaVuSans-39" x="127.246094"/>
       <use xlink:href="#DejaVuSans-30" x="190.869141"/>
       <use xlink:href="#DejaVuSans-30" x="254.492188"/>
       <use xlink:href="#DejaVuSans-30" x="318.115234"/>
      </g>
     </g>
    </g>
    <g id="xtick_3">
     <g id="line2d_3">
      <g>
       <use xlink:href="#md533795959" x="357.889739" y="640.8" style="stroke: #000000; stroke-width: 0.8"/>
      </g>
     </g>
     <g id="text_3">
      <!-- 390000 -->
      <g transform="translate(338.802239 655.398438) scale(0.1 -0.1)">
       <use xlink:href="#DejaVuSans-33"/>
       <use xlink:href="#DejaVuSans-39" x="63.623047"/>
       <use xlink:href="#DejaVuSans-30" x="127.246094"/>
       <use xlink:href="#DejaVuSans-30" x="190.869141"/>
       <use xlink:href="#DejaVuSans-30" x="254.492188"/>
       <use xlink:href="#DejaVuSans-30" x="318.115234"/>
      </g>
     </g>
    </g>
    <g id="xtick_4">
     <g id="line2d_4">
      <g>
       <use xlink:href="#md533795959" x="442.242743" y="640.8" style="stroke: #000000; stroke-width: 0.8"/>
      </g>
     </g>
     <g id="text_4">
      <!-- 391000 -->
      <g transform="translate(423.155243 655.398438) scale(0.1 -0.1)">
       <defs>
        <path id="DejaVuSans-31" d="M 794 531 
L 1825 531 
L 1825 4091 
L 703 3866 
L 703 4441 
L 1819 4666 
L 2450 4666 
L 2450 531 
L 3481 531 
L 3481 0 
L 794 0 
L 794 531 
z
" transform="scale(0.015625)"/>
       </defs>
       <use xlink:href="#DejaVuSans-33"/>
       <use xlink:href="#DejaVuSans-39" x="63.623047"/>
       <use xlink:href="#DejaVuSans-31" x="127.246094"/>
       <use xlink:href="#DejaVuSans-30" x="190.869141"/>
       <use xlink:href="#DejaVuSans-30" x="254.492188"/>
       <use xlink:href="#DejaVuSans-30" x="318.115234"/>
      </g>
     </g>
    </g>
    <g id="xtick_5">
     <g id="line2d_5">
      <g>
       <use xlink:href="#md533795959" x="526.595746" y="640.8" style="stroke: #000000; stroke-width: 0.8"/>
      </g>
     </g>
     <g id="text_5">
      <!-- 392000 -->
      <g transform="translate(507.508246 655.398438) scale(0.1 -0.1)">
       <defs>
        <path id="DejaVuSans-32" d="M 1228 531 
L 3431 531 
L 3431 0 
L 469 0 
L 469 531 
Q 828 903 1448 1529 
Q 2069 2156 2228 2338 
Q 2531 2678 2651 2914 
Q 2772 3150 2772 3378 
Q 2772 3750 2511 3984 
Q 2250 4219 1831 4219 
Q 1534 4219 1204 4116 
Q 875 4013 500 3803 
L 500 4441 
Q 881 4594 1212 4672 
Q 1544 4750 1819 4750 
Q 2544 4750 2975 4387 
Q 3406 4025 3406 3419 
Q 3406 3131 3298 2873 
Q 3191 2616 2906 2266 
Q 2828 2175 2409 1742 
Q 1991 1309 1228 531 
z
" transform="scale(0.015625)"/>
       </defs>
       <use xlink:href="#DejaVuSans-33"/>
       <use xlink:href="#DejaVuSans-39" x="63.623047"/>
       <use xlink:href="#DejaVuSans-32" x="127.246094"/>
       <use xlink:href="#DejaVuSans-30" x="190.869141"/>
       <use xlink:href="#DejaVuSans-30" x="254.492188"/>
       <use xlink:href="#DejaVuSans-30" x="318.115234"/>
      </g>
     </g>
    </g>
    <g id="xtick_6">
     <g id="line2d_6">
      <g>
       <use xlink:href="#md533795959" x="610.948749" y="640.8" style="stroke: #000000; stroke-width: 0.8"/>
      </g>
     </g>
     <g id="text_6">
      <!-- 393000 -->
      <g transform="translate(591.861249 655.398438) scale(0.1 -0.1)">
       <use xlink:href="#DejaVuSans-33"/>
       <use xlink:href="#DejaVuSans-39" x="63.623047"/>
       <use xlink:href="#DejaVuSans-33" x="127.246094"/>
       <use xlink:href="#DejaVuSans-30" x="190.869141"/>
       <use xlink:href="#DejaVuSans-30" x="254.492188"/>
       <use xlink:href="#DejaVuSans-30" x="318.115234"/>
      </g>
     </g>
    </g>
   </g>
   <g id="matplotlib.axis_2">
    <g id="ytick_1">
     <g id="line2d_7">
      <defs>
       <path id="m628628caed" d="M 0 0 
L -3.5 0 
" style="stroke: #000000; stroke-width: 0.8"/>
      </defs>
      <g>
       <use xlink:href="#m628628caed" x="104.885656" y="619.680671" style="stroke: #000000; stroke-width: 0.8"/>
      </g>
     </g>
     <g id="text_7">
      <!-- 5.804 -->
      <g transform="translate(69.257531 623.47989) scale(0.1 -0.1)">
       <defs>
        <path id="DejaVuSans-35" d="M 691 4666 
L 3169 4666 
L 3169 4134 
L 1269 4134 
L 1269 2991 
Q 1406 3038 1543 3061 
Q 1681 3084 1819 3084 
Q 2600 3084 3056 2656 
Q 3513 2228 3513 1497 
Q 3513 744 3044 326 
Q 2575 -91 1722 -91 
Q 1428 -91 1123 -41 
Q 819 9 494 109 
L 494 744 
Q 775 591 1075 516 
Q 1375 441 1709 441 
Q 2250 441 2565 725 
Q 2881 1009 2881 1497 
Q 2881 1984 2565 2268 
Q 2250 2553 1709 2553 
Q 1456 2553 1204 2497 
Q 953 2441 691 2322 
L 691 4666 
z
" transform="scale(0.015625)"/>
        <path id="DejaVuSans-2e" d="M 684 794 
L 1344 794 
L 1344 0 
L 684 0 
L 684 794 
z
" transform="scale(0.015625)"/>
        <path id="DejaVuSans-34" d="M 2419 4116 
L 825 1625 
L 2419 1625 
L 2419 4116 
z
M 2253 4666 
L 3047 4666 
L 3047 1625 
L 3713 1625 
L 3713 1100 
L 3047 1100 
L 3047 0 
L 2419 0 
L 2419 1100 
L 313 1100 
L 313 1709 
L 2253 4666 
z
" transform="scale(0.015625)"/>
       </defs>
       <use xlink:href="#DejaVuSans-35"/>
       <use xlink:href="#DejaVuSans-2e" x="63.623047"/>
       <use xlink:href="#DejaVuSans-38" x="95.410156"/>
       <use xlink:href="#DejaVuSans-30" x="159.033203"/>
       <use xlink:href="#DejaVuSans-34" x="222.65625"/>
      </g>
     </g>
    </g>
    <g id="ytick_2">
     <g id="line2d_8">
      <g>
       <use xlink:href="#m628628caed" x="104.885656" y="535.327668" style="stroke: #000000; stroke-width: 0.8"/>
      </g>
     </g>
     <g id="text_8">
      <!-- 5.805 -->
      <g transform="translate(69.257531 539.126887) scale(0.1 -0.1)">
       <use xlink:href="#DejaVuSans-35"/>
       <use xlink:href="#DejaVuSans-2e" x="63.623047"/>
       <use xlink:href="#DejaVuSans-38" x="95.410156"/>
       <use xlink:href="#DejaVuSans-30" x="159.033203"/>
       <use xlink:href="#DejaVuSans-35" x="222.65625"/>
      </g>
     </g>
    </g>
    <g id="ytick_3">
     <g id="line2d_9">
      <g>
       <use xlink:href="#m628628caed" x="104.885656" y="450.974665" style="stroke: #000000; stroke-width: 0.8"/>
      </g>
     </g>
     <g id="text_9">
      <!-- 5.806 -->
      <g transform="translate(69.257531 454.773884) scale(0.1 -0.1)">
       <defs>
        <path id="DejaVuSans-36" d="M 2113 2584 
Q 1688 2584 1439 2293 
Q 1191 2003 1191 1497 
Q 1191 994 1439 701 
Q 1688 409 2113 409 
Q 2538 409 2786 701 
Q 3034 994 3034 1497 
Q 3034 2003 2786 2293 
Q 2538 2584 2113 2584 
z
M 3366 4563 
L 3366 3988 
Q 3128 4100 2886 4159 
Q 2644 4219 2406 4219 
Q 1781 4219 1451 3797 
Q 1122 3375 1075 2522 
Q 1259 2794 1537 2939 
Q 1816 3084 2150 3084 
Q 2853 3084 3261 2657 
Q 3669 2231 3669 1497 
Q 3669 778 3244 343 
Q 2819 -91 2113 -91 
Q 1303 -91 875 529 
Q 447 1150 447 2328 
Q 447 3434 972 4092 
Q 1497 4750 2381 4750 
Q 2619 4750 2861 4703 
Q 3103 4656 3366 4563 
z
" transform="scale(0.015625)"/>
       </defs>
       <use xlink:href="#DejaVuSans-35"/>
       <use xlink:href="#DejaVuSans-2e" x="63.623047"/>
       <use xlink:href="#DejaVuSans-38" x="95.410156"/>
       <use xlink:href="#DejaVuSans-30" x="159.033203"/>
       <use xlink:href="#DejaVuSans-36" x="222.65625"/>
      </g>
     </g>
    </g>
    <g id="ytick_4">
     <g id="line2d_10">
      <g>
       <use xlink:href="#m628628caed" x="104.885656" y="366.621662" style="stroke: #000000; stroke-width: 0.8"/>
      </g>
     </g>
     <g id="text_10">
      <!-- 5.807 -->
      <g transform="translate(69.257531 370.42088) scale(0.1 -0.1)">
       <defs>
        <path id="DejaVuSans-37" d="M 525 4666 
L 3525 4666 
L 3525 4397 
L 1831 0 
L 1172 0 
L 2766 4134 
L 525 4134 
L 525 4666 
z
" transform="scale(0.015625)"/>
       </defs>
       <use xlink:href="#DejaVuSans-35"/>
       <use xlink:href="#DejaVuSans-2e" x="63.623047"/>
       <use xlink:href="#DejaVuSans-38" x="95.410156"/>
       <use xlink:href="#DejaVuSans-30" x="159.033203"/>
       <use xlink:href="#DejaVuSans-37" x="222.65625"/>
      </g>
     </g>
    </g>
    <g id="ytick_5">
     <g id="line2d_11">
      <g>
       <use xlink:href="#m628628caed" x="104.885656" y="282.268658" style="stroke: #000000; stroke-width: 0.8"/>
      </g>
     </g>
     <g id="text_11">
      <!-- 5.808 -->
      <g transform="translate(69.257531 286.067877) scale(0.1 -0.1)">
       <use xlink:href="#DejaVuSans-35"/>
       <use xlink:href="#DejaVuSans-2e" x="63.623047"/>
       <use xlink:href="#DejaVuSans-38" x="95.410156"/>
       <use xlink:href="#DejaVuSans-30" x="159.033203"/>
       <use xlink:href="#DejaVuSans-38" x="222.65625"/>
      </g>
     </g>
    </g>
    <g id="ytick_6">
     <g id="line2d_12">
      <g>
       <use xlink:href="#m628628caed" x="104.885656" y="197.915655" style="stroke: #000000; stroke-width: 0.8"/>
      </g>
     </g>
     <g id="text_12">
      <!-- 5.809 -->
      <g transform="translate(69.257531 201.714874) scale(0.1 -0.1)">
       <use xlink:href="#DejaVuSans-35"/>
       <use xlink:href="#DejaVuSans-2e" x="63.623047"/>
       <use xlink:href="#DejaVuSans-38" x="95.410156"/>
       <use xlink:href="#DejaVuSans-30" x="159.033203"/>
       <use xlink:href="#DejaVuSans-39" x="222.65625"/>
      </g>
     </g>
    </g>
    <g id="ytick_7">
     <g id="line2d_13">
      <g>
       <use xlink:href="#m628628caed" x="104.885656" y="113.562652" style="stroke: #000000; stroke-width: 0.8"/>
      </g>
     </g>
     <g id="text_13">
      <!-- 5.810 -->
      <g transform="translate(69.257531 117.361871) scale(0.1 -0.1)">
       <use xlink:href="#DejaVuSans-35"/>
       <use xlink:href="#DejaVuSans-2e" x="63.623047"/>
       <use xlink:href="#DejaVuSans-38" x="95.410156"/>
       <use xlink:href="#DejaVuSans-31" x="159.033203"/>
       <use xlink:href="#DejaVuSans-30" x="222.65625"/>
      </g>
     </g>
    </g>
    <g id="text_14">
     <!-- 1e6 -->
     <g transform="translate(104.885656 83.4) scale(0.1 -0.1)">
      <defs>
       <path id="DejaVuSans-65" d="M 3597 1894 
L 3597 1613 
L 953 1613 
Q 991 1019 1311 708 
Q 1631 397 2203 397 
Q 2534 397 2845 478 
Q 3156 559 3463 722 
L 3463 178 
Q 3153 47 2828 -22 
Q 2503 -91 2169 -91 
Q 1331 -91 842 396 
Q 353 884 353 1716 
Q 353 2575 817 3079 
Q 1281 3584 2069 3584 
Q 2775 3584 3186 3129 
Q 3597 2675 3597 1894 
z
M 3022 2063 
Q 3016 2534 2758 2815 
Q 2500 3097 2075 3097 
Q 1594 3097 1305 2825 
Q 1016 2553 972 2059 
L 3022 2063 
z
" transform="scale(0.015625)"/>
      </defs>
      <use xlink:href="#DejaVuSans-31"/>
      <use xlink:href="#DejaVuSans-65" x="63.623047"/>
      <use xlink:href="#DejaVuSans-36" x="125.146484"/>
     </g>
    </g>
   </g>
   <g id="patch_3">
    <path d="M 104.885656 640.8 
L 104.885656 86.4 
" style="fill: none; stroke: #000000; stroke-width: 0.8; stroke-linejoin: miter; stroke-linecap: square"/>
   </g>
   <g id="patch_4">
    <path d="M 633.114344 640.8 
L 633.114344 86.4 
" style="fill: none; stroke: #000000; stroke-width: 0.8; stroke-linejoin: miter; stroke-linecap: square"/>
   </g>
   <g id="patch_5">
    <path d="M 104.885656 640.8 
L 633.114344 640.8 
" style="fill: none; stroke: #000000; stroke-width: 0.8; stroke-linejoin: miter; stroke-linecap: square"/>
   </g>
   <g id="patch_6">
    <path d="M 104.885656 86.4 
L 633.114344 86.4 
" style="fill: none; stroke: #000000; stroke-width: 0.8; stroke-linejoin: miter; stroke-linecap: square"/>
   </g>
   <g id="text_15">
    <!-- Marienfelde___Lichtenrade -->
    <g transform="translate(308.34675 372.865329) scale(0.12 -0.12)">
     <defs>
      <path id="DejaVuSans-4d" d="M 628 4666 
L 1569 4666 
L 2759 1491 
L 3956 4666 
L 4897 4666 
L 4897 0 
L 4281 0 
L 4281 4097 
L 3078 897 
L 2444 897 
L 1241 4097 
L 1241 0 
L 628 0 
L 628 4666 
z
" transform="scale(0.015625)"/>
      <path id="DejaVuSans-61" d="M 2194 1759 
Q 1497 1759 1228 1600 
Q 959 1441 959 1056 
Q 959 750 1161 570 
Q 1363 391 1709 391 
Q 2188 391 2477 730 
Q 2766 1069 2766 1631 
L 2766 1759 
L 2194 1759 
z
M 3341 1997 
L 3341 0 
L 2766 0 
L 2766 531 
Q 2569 213 2275 61 
Q 1981 -91 1556 -91 
Q 1019 -91 701 211 
Q 384 513 384 1019 
Q 384 1609 779 1909 
Q 1175 2209 1959 2209 
L 2766 2209 
L 2766 2266 
Q 2766 2663 2505 2880 
Q 2244 3097 1772 3097 
Q 1472 3097 1187 3025 
Q 903 2953 641 2809 
L 641 3341 
Q 956 3463 1253 3523 
Q 1550 3584 1831 3584 
Q 2591 3584 2966 3190 
Q 3341 2797 3341 1997 
z
" transform="scale(0.015625)"/>
      <path id="DejaVuSans-72" d="M 2631 2963 
Q 2534 3019 2420 3045 
Q 2306 3072 2169 3072 
Q 1681 3072 1420 2755 
Q 1159 2438 1159 1844 
L 1159 0 
L 581 0 
L 581 3500 
L 1159 3500 
L 1159 2956 
Q 1341 3275 1631 3429 
Q 1922 3584 2338 3584 
Q 2397 3584 2469 3576 
Q 2541 3569 2628 3553 
L 2631 2963 
z
" transform="scale(0.015625)"/>
      <path id="DejaVuSans-69" d="M 603 3500 
L 1178 3500 
L 1178 0 
L 603 0 
L 603 3500 
z
M 603 4863 
L 1178 4863 
L 1178 4134 
L 603 4134 
L 603 4863 
z
" transform="scale(0.015625)"/>
      <path id="DejaVuSans-6e" d="M 3513 2113 
L 3513 0 
L 2938 0 
L 2938 2094 
Q 2938 2591 2744 2837 
Q 2550 3084 2163 3084 
Q 1697 3084 1428 2787 
Q 1159 2491 1159 1978 
L 1159 0 
L 581 0 
L 581 3500 
L 1159 3500 
L 1159 2956 
Q 1366 3272 1645 3428 
Q 1925 3584 2291 3584 
Q 2894 3584 3203 3211 
Q 3513 2838 3513 2113 
z
" transform="scale(0.015625)"/>
      <path id="DejaVuSans-66" d="M 2375 4863 
L 2375 4384 
L 1825 4384 
Q 1516 4384 1395 4259 
Q 1275 4134 1275 3809 
L 1275 3500 
L 2222 3500 
L 2222 3053 
L 1275 3053 
L 1275 0 
L 697 0 
L 697 3053 
L 147 3053 
L 147 3500 
L 697 3500 
L 697 3744 
Q 697 4328 969 4595 
Q 1241 4863 1831 4863 
L 2375 4863 
z
" transform="scale(0.015625)"/>
      <path id="DejaVuSans-6c" d="M 603 4863 
L 1178 4863 
L 1178 0 
L 603 0 
L 603 4863 
z
" transform="scale(0.015625)"/>
      <path id="DejaVuSans-64" d="M 2906 2969 
L 2906 4863 
L 3481 4863 
L 3481 0 
L 2906 0 
L 2906 525 
Q 2725 213 2448 61 
Q 2172 -91 1784 -91 
Q 1150 -91 751 415 
Q 353 922 353 1747 
Q 353 2572 751 3078 
Q 1150 3584 1784 3584 
Q 2172 3584 2448 3432 
Q 2725 3281 2906 2969 
z
M 947 1747 
Q 947 1113 1208 752 
Q 1469 391 1925 391 
Q 2381 391 2643 752 
Q 2906 1113 2906 1747 
Q 2906 2381 2643 2742 
Q 2381 3103 1925 3103 
Q 1469 3103 1208 2742 
Q 947 2381 947 1747 
z
" transform="scale(0.015625)"/>
      <path id="DejaVuSans-5f" d="M 3263 -1063 
L 3263 -1509 
L -63 -1509 
L -63 -1063 
L 3263 -1063 
z
" transform="scale(0.015625)"/>
      <path id="DejaVuSans-4c" d="M 628 4666 
L 1259 4666 
L 1259 531 
L 3531 531 
L 3531 0 
L 628 0 
L 628 4666 
z
" transform="scale(0.015625)"/>
      <path id="DejaVuSans-63" d="M 3122 3366 
L 3122 2828 
Q 2878 2963 2633 3030 
Q 2388 3097 2138 3097 
Q 1578 3097 1268 2742 
Q 959 2388 959 1747 
Q 959 1106 1268 751 
Q 1578 397 2138 397 
Q 2388 397 2633 464 
Q 2878 531 3122 666 
L 3122 134 
Q 2881 22 2623 -34 
Q 2366 -91 2075 -91 
Q 1284 -91 818 406 
Q 353 903 353 1747 
Q 353 2603 823 3093 
Q 1294 3584 2113 3584 
Q 2378 3584 2631 3529 
Q 2884 3475 3122 3366 
z
" transform="scale(0.015625)"/>
      <path id="DejaVuSans-68" d="M 3513 2113 
L 3513 0 
L 2938 0 
L 2938 2094 
Q 2938 2591 2744 2837 
Q 2550 3084 2163 3084 
Q 1697 3084 1428 2787 
Q 1159 2491 1159 1978 
L 1159 0 
L 581 0 
L 581 4863 
L 1159 4863 
L 1159 2956 
Q 1366 3272 1645 3428 
Q 1925 3584 2291 3584 
Q 2894 3584 3203 3211 
Q 3513 2838 3513 2113 
z
" transform="scale(0.015625)"/>
      <path id="DejaVuSans-74" d="M 1172 4494 
L 1172 3500 
L 2356 3500 
L 2356 3053 
L 1172 3053 
L 1172 1153 
Q 1172 725 1289 603 
Q 1406 481 1766 481 
L 2356 481 
L 2356 0 
L 1766 0 
Q 1100 0 847 248 
Q 594 497 594 1153 
L 594 3053 
L 172 3053 
L 172 3500 
L 594 3500 
L 594 4494 
L 1172 4494 
z
" transform="scale(0.015625)"/>
     </defs>
     <use xlink:href="#DejaVuSans-4d"/>
     <use xlink:href="#DejaVuSans-61" x="86.279297"/>
     <use xlink:href="#DejaVuSans-72" x="147.558594"/>
     <use xlink:href="#DejaVuSans-69" x="188.671875"/>
     <use xlink:href="#DejaVuSans-65" x="216.455078"/>
     <use xlink:href="#DejaVuSans-6e" x="277.978516"/>
     <use xlink:href="#DejaVuSans-66" x="341.357422"/>
     <use xlink:href="#DejaVuSans-65" x="376.5625"/>
     <use xlink:href="#DejaVuSans-6c" x="438.085938"/>
     <use xlink:href="#DejaVuSans-64" x="465.869141"/>
     <use xlink:href="#DejaVuSans-65" x="529.345703"/>
     <use xlink:href="#DejaVuSans-5f" x="590.869141"/>
     <use xlink:href="#DejaVuSans-5f" x="640.869141"/>
     <use xlink:href="#DejaVuSans-5f" x="690.869141"/>
     <use xlink:href="#DejaVuSans-4c" x="740.869141"/>
     <use xlink:href="#DejaVuSans-69" x="796.582031"/>
     <use xlink:href="#DejaVuSans-63" x="824.365234"/>
     <use xlink:href="#DejaVuSans-68" x="879.345703"/>
     <use xlink:href="#DejaVuSans-74" x="942.724609"/>
     <use xlink:href="#DejaVuSans-65" x="981.933594"/>
     <use xlink:href="#DejaVuSans-6e" x="1043.457031"/>
     <use xlink:href="#DejaVuSans-72" x="1106.835938"/>
     <use xlink:href="#DejaVuSans-61" x="1147.949219"/>
     <use xlink:href="#DejaVuSans-64" x="1209.228516"/>
     <use xlink:href="#DejaVuSans-65" x="1272.705078"/>
    </g>
   </g>
  </g>
 </g>
 <defs>
  <clipPath id="pb61b1c6f6c">
   <rect x="104.885656" y="86.4" width="528.228688" height="554.4"/>
  </clipPath>
 </defs>
</svg>
