<?xml version="1.0" encoding="utf-8" standalone="no"?>
<!DOCTYPE svg PUBLIC "-//W3C//DTD SVG 1.1//EN"
  "http://www.w3.org/Graphics/SVG/1.1/DTD/svg11.dtd">
<svg xmlns:xlink="http://www.w3.org/1999/xlink" width="720pt" height="720pt" viewBox="0 0 720 720" xmlns="http://www.w3.org/2000/svg" version="1.1">
 <metadata>
  <rdf:RDF xmlns:dc="http://purl.org/dc/elements/1.1/" xmlns:cc="http://creativecommons.org/ns#" xmlns:rdf="http://www.w3.org/1999/02/22-rdf-syntax-ns#">
   <cc:Work>
    <dc:type rdf:resource="http://purl.org/dc/dcmitype/StillImage"/>
    <dc:date>2024-10-15T13:01:13.625642</dc:date>
    <dc:format>image/svg+xml</dc:format>
    <dc:creator>
     <cc:Agent>
      <dc:title>Matplotlib v3.9.2, https://matplotlib.org/</dc:title>
     </cc:Agent>
    </dc:creator>
   </cc:Work>
  </rdf:RDF>
 </metadata>
 <defs>
  <style type="text/css">*{stroke-linejoin: round; stroke-linecap: butt}</style>
 </defs>
 <g id="figure_1">
  <g id="patch_1">
   <path d="M 0 720 
L 720 720 
L 720 0 
L 0 0 
z
" style="fill: #ffffff"/>
  </g>
  <g id="axes_1">
   <g id="patch_2">
    <path d="M 119.351398 640.8 
L 618.648602 640.8 
L 618.648602 86.4 
L 119.351398 86.4 
z
" style="fill: #ffffff"/>
   </g>
   <g id="PatchCollection_1">
    <path d="M 501.995092 470.284227 
L 502.297075 469.004927 
L 503.202028 465.170837 
L 503.262934 464.821925 
L 503.70678 462.288304 
L 504.080597 460.129363 
L 505.179979 453.787789 
L 505.361709 452.40188 
L 505.393518 452.155915 
L 505.475383 451.541065 
L 506.42472 444.40513 
L 506.800017 441.581776 
L 507.450251 436.687634 
L 508.354094 433.303431 
L 508.816804 432.249544 
L 509.410251 430.897211 
L 509.413407 430.890019 
L 509.680701 430.2801 
L 512.232939 424.456594 
L 512.865666 423.016436 
L 515.490152 417.05879 
L 517.798398 411.52329 
L 520.539641 404.949437 
L 520.90865 404.064457 
L 521.437073 403.115366 
L 523.70756 398.110962 
L 523.710674 398.104098 
L 525.667789 392.940073 
L 526.044195 391.948693 
L 526.192267 391.289458 
L 526.448095 390.155309 
L 526.966655 387.8462 
L 526.986628 387.703552 
L 527.039643 387.312598 
L 527.514558 383.859846 
L 527.959884 381.768838 
L 528.070968 381.243373 
L 528.347016 379.950425 
L 528.782971 377.898747 
L 529.446521 376.392506 
L 529.831681 375.518376 
L 530.292911 374.46942 
L 531.139424 372.5451 
L 531.98606 370.620781 
L 532.831217 368.698805 
L 533.526946 367.119329 
L 533.653935 366.79865 
L 534.433132 364.84844 
L 534.681069 364.226563 
L 535.208506 362.904271 
L 535.982524 360.966144 
L 536.770844 358.9877 
L 536.858873 358.767503 
L 537.398763 357.414266 
L 537.573466 356.977447 
L 537.846554 356.293554 
L 538.281523 355.136842 
L 538.346497 354.964236 
L 538.986622 353.261593 
L 539.299533 352.428025 
L 539.6085 351.606664 
L 539.624281 351.360329 
L 539.68383 350.502227 
L 539.769887 349.211868 
L 539.817724 348.515029 
L 539.913644 347.096695 
L 539.977385 346.082013 
L 540.053825 344.90989 
L 540.116087 343.969183 
L 540.19413 342.850074 
L 540.254542 341.874846 
L 540.341462 340.477224 
L 540.389792 339.753262 
L 540.39497 339.673246 
L 540.790363 337.683706 
L 541.159742 335.826704 
L 541.199071 335.633878 
L 541.521106 334.012607 
L 541.528997 333.972537 
L 541.583614 333.698339 
L 541.612711 333.589103 
L 542.161601 331.565412 
L 542.166902 331.543343 
L 542.234589 331.293187 
L 542.710614 329.534323 
L 542.848452 329.02538 
L 543.260736 327.503235 
L 543.462316 326.761272 
L 543.866709 325.266127 
L 543.99 324.811185 
L 544.071002 324.508137 
L 544.240526 323.926082 
L 544.514108 322.986731 
L 544.677591 322.425143 
L 544.921707 321.585287 
L 545.284304 320.340916 
L 547.078182 314.171579 
L 547.100621 314.09181 
L 547.490589 312.384482 
L 547.658757 311.708357 
L 547.865885 310.92953 
L 548.549778 308.285811 
L 548.868977 307.046247 
L 549.023707 306.445576 
L 549.260425 305.531623 
L 549.782067 303.511137 
L 550.418863 301.046805 
L 550.479399 300.812183 
L 550.679869 300.035452 
L 551.116071 298.345139 
L 551.343049 297.465584 
L 551.65855 296.243898 
L 551.719579 296.007796 
L 551.840773 295.538306 
L 552.508761 292.953519 
L 554.045578 287.01227 
L 554.109566 286.755826 
L 554.975806 283.410459 
L 555.522599 281.294177 
L 555.615807 280.933552 
L 556.046954 279.263951 
L 556.225232 278.575743 
L 556.499554 277.443073 
L 556.76019 276.442077 
L 557.034018 275.39312 
L 557.411781 273.938292 
L 557.83738 272.305431 
L 558.116633 271.232064 
L 558.360378 270.341659 
L 558.927268 268.275186 
L 559.539283 266.043134 
L 560.765777 261.571631 
L 561.353873 259.427855 
L 561.883776 257.493796 
L 561.934079 257.316011 
L 562.385939 255.656643 
L 562.821894 254.057318 
L 563.211616 252.623695 
L 563.242561 252.487336 
L 563.561514 251.339501 
L 563.896741 250.114362 
L 564.181666 249.067009 
L 564.453398 248.067369 
L 564.70639 247.140224 
L 564.934355 246.307396 
L 565.151593 245.510323 
L 565.345159 244.79647 
L 565.529725 244.100988 
L 565.594329 243.882764 
L 566.087615 242.057694 
L 567.425687 237.165524 
L 567.458852 237.04285 
L 567.494483 236.899833 
L 567.583006 236.543523 
L 567.584051 236.540234 
L 567.740325 236.048388 
L 567.956823 235.232698 
L 569.008985 231.440896 
L 569.889033 228.268384 
L 570.392798 226.479314 
L 570.888919 224.696163 
L 571.493536 222.526865 
L 571.880299 221.122709 
L 572.235129 219.836172 
L 572.47086 218.980165 
L 572.706469 218.124159 
L 572.775388 217.875235 
L 573.200001 217.001845 
L 574.388029 214.555144 
L 576.801442 209.583452 
L 577.988237 207.140449 
L 579.65081 203.404622 
L 581.903452 188.925008 
L 582.917147 183.394193 
L 588.407522 172.653612 
L 590.473872 160.322952 
L 591.779889 151.343454 
L 594.557872 143.4065 
L 594.965841 142.241898 
L 595.953275 139.453558 
L 595.523854 139.476244 
L 594.579695 139.207963 
L 593.070495 132.217635 
L 593.014274 131.96156 
L 592.957067 131.705732 
L 592.898998 131.450028 
L 592.840188 131.194323 
L 592.780515 130.938865 
L 592.71998 130.68353 
L 584.623118 128.728512 
L 582.11169 127.957206 
L 571.665526 124.749309 
L 569.677219 124.163925 
L 566.700739 123.146901 
L 563.509732 122.022121 
L 559.6246 121.40197 
L 556.041776 120.794887 
L 554.651921 120.607732 
L 552.660655 120.360411 
L 550.274736 120.092747 
L 548.105932 119.735081 
L 544.116619 119.016667 
L 539.590746 118.180387 
L 536.315162 117.597839 
L 534.912485 117.135377 
L 533.080511 116.484772 
L 531.668341 115.999377 
L 531.341251 115.88706 
L 529.398068 120.281135 
L 529.048539 121.071428 
L 527.355637 124.8996 
L 526.900694 125.558711 
L 521.797944 125.172319 
L 511.534868 123.093516 
L 510.801782 122.948034 
L 510.06771 122.807852 
L 509.332528 122.673219 
L 509.046741 122.622423 
L 508.76083 122.572367 
L 508.474796 122.523298 
L 507.485882 122.359938 
L 506.495489 122.206564 
L 505.503617 122.063054 
L 504.510264 121.929407 
L 503.500638 121.80402 
L 502.489779 121.688744 
L 501.477686 121.583823 
L 500.464731 121.48926 
L 499.450789 121.404929 
L 498.436108 121.330831 
L 497.420687 121.26709 
L 473.134048 119.86355 
L 454.422116 118.744688 
L 452.658074 118.679344 
L 451.350085 118.630891 
L 450.707371 118.581452 
L 438.761625 117.661211 
L 437.183012 117.539646 
L 431.021443 117.064608 
L 427.284136 116.799903 
L 417.90382 116.648625 
L 414.901694 116.600172 
L 404.972365 116.184436 
L 399.119639 115.919115 
L 394.68685 115.440994 
L 390.874582 115.208838 
L 390.360707 113.066048 
L 388.174889 111.75251 
L 387.921033 111.6 
L 386.364983 112.172068 
L 385.193723 112.488185 
L 383.979927 112.757205 
L 382.788201 113.001814 
L 382.42548 113.051007 
L 381.192327 113.180462 
L 379.941668 113.260107 
L 378.713694 113.269108 
L 377.508529 113.216586 
L 375.422699 113.08972 
L 374.639064 113.044226 
L 371.26756 112.848564 
L 369.402174 112.740191 
L 366.289703 112.389676 
L 365.797034 112.334195 
L 355.700277 114.472424 
L 348.918926 115.421391 
L 340.116226 116.747751 
L 335.011503 117.328573 
L 330.358887 117.978191 
L 329.022787 118.15499 
L 325.403099 118.361131 
L 322.913246 118.985598 
L 318.462334 120.135899 
L 313.982571 121.264131 
L 313.778155 120.683063 
L 313.719592 120.516497 
L 313.253307 119.191 
L 313.23469 119.138232 
L 312.605785 117.350519 
L 312.167364 116.104544 
L 312.088335 115.879539 
L 311.662982 114.670675 
L 311.34403 113.764243 
L 275.67126 127.010951 
L 275.387692 127.116364 
L 275.678731 127.939101 
L 273.712666 128.73517 
L 273.329479 128.908146 
L 272.804234 129.145198 
L 270.506988 130.181984 
L 268.238319 131.298997 
L 262.981456 134.029513 
L 259.752845 135.771732 
L 256.631128 137.604816 
L 253.715183 139.502135 
L 252.932165 140.069764 
L 252.586705 140.320168 
L 251.487816 141.064596 
L 250.24702 141.905191 
L 249.47781 142.364325 
L 248.355866 143.056972 
L 245.113077 145.33797 
L 241.343715 148.667432 
L 239.469575 150.340115 
L 237.11004 152.491412 
L 235.647937 153.794594 
L 228.070375 160.13777 
L 219.799058 167.236964 
L 218.442862 168.519802 
L 215.037576 171.4572 
L 206.417963 178.888539 
L 205.697206 179.457155 
L 205.623602 179.515225 
L 205.519051 179.59783 
L 205.043874 179.977494 
L 204.3886 180.501056 
L 204.155458 180.697458 
L 198.752125 185.035437 
L 197.818569 186.157011 
L 196.338836 187.796652 
L 195.338703 188.671646 
L 186.681239 196.244399 
L 180.458394 201.528139 
L 174.516282 206.153385 
L 174.505802 206.161522 
L 174.367224 206.269401 
L 173.929173 206.610053 
L 174.140616 206.706466 
L 173.12014 208.122089 
L 173.190415 208.120979 
L 172.923245 208.621292 
L 172.241448 208.30012 
L 171.797232 208.579003 
L 171.469402 208.898203 
L 171.013474 209.341925 
L 169.690936 212.375367 
L 169.242898 213.376609 
L 168.705474 214.152847 
L 167.780795 215.062361 
L 167.44865 215.351971 
L 167.394403 215.31523 
L 167.186042 215.154706 
L 163.911321 217.317592 
L 158.767515 220.716097 
L 155.713731 222.732884 
L 155.483917 223.150099 
L 153.296989 224.827097 
L 148.698744 228.455415 
L 148.502589 228.589802 
L 148.459191 228.620255 
L 148.1448 228.841561 
L 148.040249 228.915043 
L 147.751996 229.034141 
L 146.140465 230.411297 
L 145.811526 229.563304 
L 145.681701 229.706075 
L 144.664924 230.724825 
L 144.182241 230.888185 
L 143.907057 231.087546 
L 143.497362 231.436088 
L 142.916417 231.981032 
L 142.95587 232.108761 
L 142.046725 232.91878 
L 142.375911 233.886611 
L 145.304309 242.493033 
L 145.92557 244.312185 
L 145.726332 244.48097 
L 148.084757 251.354296 
L 148.635743 251.488066 
L 149.122741 252.977909 
L 149.767057 254.946613 
L 150.593844 257.499467 
L 151.962492 261.703429 
L 152.63307 263.725024 
L 152.965338 264.726884 
L 153.502391 266.368128 
L 155.621756 272.525628 
L 156.568505 275.248377 
L 157.200615 277.084914 
L 157.452868 277.822068 
L 159.607124 284.088681 
L 159.759388 284.510704 
L 160.204343 285.744596 
L 161.726242 290.05878 
L 162.485465 292.21205 
L 162.79924 293.023055 
L 163.744755 295.555936 
L 164.654886 297.808332 
L 165.537154 299.967766 
L 165.530373 300.067508 
L 166.298103 302.228422 
L 167.080875 304.4352 
L 167.835536 306.562578 
L 168.105543 307.322541 
L 168.343493 307.991886 
L 168.605609 308.729657 
L 169.259789 310.571618 
L 169.521905 311.308895 
L 169.87131 312.446004 
L 170.458173 314.326062 
L 171.39925 317.414861 
L 172.169939 319.938372 
L 174.420116 327.123993 
L 176.820336 334.586154 
L 176.752896 334.630539 
L 177.386487 336.975032 
L 177.413487 337.107446 
L 178.187012 340.779902 
L 180.195046 347.276699 
L 180.317103 347.66864 
L 180.44212 348.029758 
L 181.493789 351.075035 
L 181.63286 351.477085 
L 181.753932 351.787654 
L 183.770102 357.659614 
L 184.805003 360.679986 
L 186.19942 364.699505 
L 187.931405 369.696965 
L 190.710005 377.619987 
L 190.757718 377.256033 
L 192.542226 382.409702 
L 193.499454 386.012992 
L 195.449171 391.818252 
L 197.957394 398.790703 
L 200.926354 406.684012 
L 201.663385 408.641003 
L 202.126958 409.873909 
L 202.433582 410.668763 
L 204.091593 414.955946 
L 204.877694 416.991473 
L 205.18555 417.78756 
L 205.577121 418.918011 
L 206.215273 420.75837 
L 206.819397 422.504411 
L 207.492563 424.449073 
L 208.393694 427.050134 
L 209.267824 429.575495 
L 209.390622 429.927982 
L 209.536474 430.487968 
L 209.97095 432.146966 
L 210.719201 435.0078 
L 211.306557 437.250332 
L 211.591482 438.341824 
L 211.92301 439.324449 
L 212.046917 439.679403 
L 215.841554 440.580164 
L 242.556647 446.916066 
L 241.287371 450.94064 
L 240.851292 451.978007 
L 243.964749 452.897508 
L 244.437938 453.037196 
L 256.37789 456.53421 
L 262.659421 458.380609 
L 266.679926 459.562349 
L 267.685607 459.858 
L 268.16644 459.081023 
L 268.826661 458.014313 
L 269.453964 458.199372 
L 274.095237 459.568637 
L 278.396845 460.827804 
L 292.370474 464.931037 
L 294.744064 465.623437 
L 294.276177 467.667101 
L 294.454903 467.719518 
L 309.60256 472.16206 
L 310.523408 472.432158 
L 311.495862 472.708576 
L 312.061211 472.614875 
L 312.898354 472.488749 
L 329.68831 469.959936 
L 330.37097 469.856988 
L 332.288754 469.567995 
L 333.159925 469.436568 
L 333.672444 468.742442 
L 335.600586 468.452092 
L 346.524253 466.807026 
L 346.611419 467.41152 
L 346.654694 467.404862 
L 347.347587 467.923546 
L 351.743266 500.906978 
L 351.516288 501.242821 
L 351.579906 501.592967 
L 342.944511 504.290194 
L 342.349018 504.480185 
L 341.75599 504.67782 
L 341.165429 504.882729 
L 340.576593 505.095528 
L 339.990469 505.315725 
L 339.407182 505.54332 
L 339.242959 505.608664 
L 339.078982 505.674624 
L 338.915252 505.741078 
L 338.500626 505.913315 
L 338.087603 506.089127 
L 337.539408 506.330059 
L 337.104854 506.525206 
L 336.536854 506.789047 
L 335.972183 507.059794 
L 335.129739 507.471584 
L 326.375615 511.715492 
L 322.657542 513.545617 
L 322.034061 513.852611 
L 321.819166 513.958394 
L 315.736626 516.906148 
L 312.237516 518.628147 
L 311.652256 518.916154 
L 310.596272 519.435824 
L 310.58271 519.43681 
L 310.23799 519.610157 
L 307.791782 520.79165 
L 302.299187 523.474576 
L 307.315757 526.838066 
L 307.648395 527.045318 
L 308.280629 527.440834 
L 308.719173 527.847323 
L 308.775024 527.89516 
L 312.432685 531.340638 
L 313.064426 531.915665 
L 316.893091 535.410213 
L 318.271727 536.684174 
L 322.69239 541.038442 
L 324.101028 542.277744 
L 326.468691 544.239601 
L 327.023754 544.448274 
L 328.203645 545.311308 
L 329.624815 546.35336 
L 330.019838 546.66208 
L 330.421519 546.962169 
L 330.829487 547.253505 
L 331.243743 547.53584 
L 331.664041 547.809175 
L 332.090133 548.073387 
L 332.521774 548.328352 
L 333.081143 548.705128 
L 333.646553 549.072903 
L 334.217759 549.431556 
L 334.794758 549.780961 
L 335.377183 550.120997 
L 335.78922 550.364372 
L 336.204339 550.60257 
L 336.622418 550.835465 
L 337.043455 551.062937 
L 337.764582 551.454261 
L 338.485708 551.845832 
L 339.206588 552.237649 
L 339.827603 552.558328 
L 340.452439 552.871732 
L 341.080851 553.177863 
L 342.110697 553.6873 
L 342.513488 553.889003 
L 342.920716 554.081336 
L 343.332137 554.264299 
L 343.747749 554.437892 
L 344.167184 554.601992 
L 346.983264 555.782746 
L 347.250188 555.903694 
L 349.808714 557.062132 
L 351.600002 557.873384 
L 353.529746 558.747268 
L 355.448024 559.609932 
L 356.290962 560.032695 
L 357.130817 560.461746 
L 357.96722 560.897332 
L 358.800295 561.339205 
L 359.63004 561.787366 
L 363.009435 563.730919 
L 364.058391 564.39188 
L 365.680771 565.413958 
L 366.611245 566.000205 
L 367.19441 566.425188 
L 367.752916 566.824772 
L 368.308217 567.230768 
L 368.776228 567.629613 
L 371.163256 569.564782 
L 371.643103 569.986559 
L 372.115676 570.41635 
L 372.580851 570.854155 
L 373.038629 571.29985 
L 373.48864 571.75319 
L 373.776646 572.015798 
L 374.020885 572.29049 
L 374.271288 572.568387 
L 374.868138 573.200251 
L 375.102267 573.482093 
L 375.34367 573.757771 
L 375.592223 574.026914 
L 375.847805 574.289523 
L 381.304152 578.185875 
L 382.69376 579.178117 
L 384.085094 580.171593 
L 384.530913 580.481422 
L 386.477794 581.368374 
L 390.290062 583.105168 
L 393.84194 584.723234 
L 394.688453 585.108763 
L 395.247082 585.336358 
L 395.550623 585.460018 
L 394.890772 587.525628 
L 395.202944 588.494076 
L 397.354488 590.150485 
L 398.439198 590.985532 
L 399.608979 591.886169 
L 400.574837 592.629611 
L 401.16355 593.082827 
L 401.762495 593.544057 
L 402.333331 593.983465 
L 402.925619 594.43927 
L 403.532455 594.906665 
L 404.1044 595.346935 
L 404.689044 595.796946 
L 405.080491 596.098145 
L 405.1123 596.048459 
L 405.485747 596.336219 
L 405.865359 596.615719 
L 406.251258 596.886588 
L 406.643076 597.148827 
L 407.040565 597.402189 
L 407.791158 597.830377 
L 408.541627 598.259059 
L 409.291727 598.68811 
L 409.435607 598.652725 
L 411.197676 599.817944 
L 412.767411 601.025206 
L 413.276601 601.416653 
L 416.105873 603.589773 
L 417.866586 604.944243 
L 419.628778 606.300069 
L 421.398244 607.639991 
L 423.16019 608.992612 
L 424.916094 610.336479 
L 426.872345 611.835692 
L 427.947809 612.65989 
L 429.029191 613.487909 
L 430.765492 614.822776 
L 431.535934 615.411859 
L 431.924176 615.482134 
L 432.575397 615.6 
L 432.903597 615.501244 
L 433.205535 614.904641 
L 434.062774 613.212108 
L 435.090155 611.192979 
L 435.824597 609.715218 
L 436.090165 609.171753 
L 433.854044 607.541359 
L 436.606259 606.664516 
L 437.977866 606.226465 
L 438.572004 606.035858 
L 439.254787 605.81677 
L 440.091067 605.548613 
L 439.613439 604.060003 
L 439.179703 602.707382 
L 439.95557 601.139003 
L 440.051121 600.970835 
L 440.268728 600.598867 
L 441.336548 598.77392 
L 441.611733 598.30369 
L 442.401285 596.565416 
L 442.52248 597.012344 
L 442.66673 597.43708 
L 442.902831 598.131946 
L 446.632741 591.153577 
L 448.366083 587.906103 
L 464.362048 581.467746 
L 472.350043 578.251465 
L 483.21897 573.87687 
L 483.8623 573.617836 
L 488.090057 571.915563 
L 489.198686 567.486226 
L 489.693081 565.508276 
L 494.09665 547.892766 
L 481.832937 544.828009 
L 474.575561 543.014282 
L 470.182719 541.916626 
L 470.775623 540.69383 
L 471.582683 539.025215 
L 471.984364 538.195717 
L 472.497622 537.132952 
L 472.530787 537.076855 
L 473.98278 534.166704 
L 474.651632 532.835659 
L 476.099679 529.942646 
L 476.933987 528.274525 
L 477.201897 527.734635 
L 477.883571 526.373014 
L 478.128302 525.882071 
L 479.05742 524.028398 
L 479.353194 523.447206 
L 479.877179 522.274836 
L 480.092075 521.799427 
L 480.72924 520.387627 
L 481.116496 519.535689 
L 481.493518 518.703355 
L 481.502519 518.683751 
L 482.173959 517.275157 
L 482.432253 516.726514 
L 482.790535 515.971482 
L 482.953525 515.63305 
L 483.750969 513.954325 
L 483.883259 513.675812 
L 485.305786 510.893267 
L 486.316029 508.915317 
L 486.820534 507.927513 
L 487.149596 507.282826 
L 487.471015 506.654044 
L 488.115825 505.350986 
L 488.227403 505.124995 
L 488.496669 504.58153 
L 488.779868 504.011188 
L 489.073546 503.417667 
L 490.115721 501.312111 
L 490.515799 500.498639 
L 490.873588 499.773198 
L 491.268364 498.983029 
L 492.465762 496.563574 
L 492.474639 496.54656 
L 492.736262 496.016411 
L 492.817017 495.854037 
L 492.997145 495.456795 
L 493.611008 494.096284 
L 494.531126 492.064948 
L 494.692513 491.677199 
L 494.851435 491.296725 
L 495.87561 488.846941 
L 496.358662 487.689859 
L 496.71115 486.787989 
L 496.922347 486.248346 
L 496.964512 486.165371 
L 497.155489 485.654825 
L 497.955891 483.624846 
L 497.98955 483.539159 
L 498.780582 481.161377 
L 498.933586 480.704462 
L 499.599971 478.718744 
L 499.935938 477.715406 
L 500.133203 477.127433 
L 500.382743 476.385101 
L 500.469046 476.126684 
L 500.969606 474.635854 
L 501.184008 473.728805 
L 501.695048 471.555316 
L 501.995092 470.284227 
" clip-path="url(#p81fdbcd5f2)" style="fill: #d3d3d3"/>
   </g>
   <g id="PatchCollection_2">
    <path d="M 273.43836 362.551141 
L 273.43836 362.42785 
L 273.31507 362.42785 
L 273.31507 362.551141 
L 273.43836 362.551141 
" clip-path="url(#p81fdbcd5f2)" style="fill: #ff0000; fill-opacity: 0.7; stroke: #000000; stroke-opacity: 0.7; stroke-width: 0.5"/>
    <path d="M 341.424477 245.419317 
L 341.424477 245.296026 
L 341.301187 245.296026 
L 341.301187 245.419317 
L 341.424477 245.419317 
" clip-path="url(#p81fdbcd5f2)" style="fill: #ff0000; fill-opacity: 0.7; stroke: #000000; stroke-opacity: 0.7; stroke-width: 0.5"/>
    <path d="M 313.532171 170.034816 
L 313.532171 169.911525 
L 313.408881 169.911525 
L 313.408881 170.034816 
L 313.532171 170.034816 
" clip-path="url(#p81fdbcd5f2)" style="fill: #ff0000; fill-opacity: 0.7; stroke: #000000; stroke-opacity: 0.7; stroke-width: 0.5"/>
    <path d="M 261.879713 414.534338 
L 261.879713 414.411047 
L 261.756423 414.411047 
L 261.756423 414.534338 
L 261.879713 414.534338 
" clip-path="url(#p81fdbcd5f2)" style="fill: #ff0000; fill-opacity: 0.7; stroke: #000000; stroke-opacity: 0.7; stroke-width: 0.5"/>
    <path d="M 439.634266 246.756264 
L 439.634266 246.632974 
L 439.510975 246.632974 
L 439.510975 246.756264 
L 439.634266 246.756264 
" clip-path="url(#p81fdbcd5f2)" style="fill: #ff0000; fill-opacity: 0.7; stroke: #000000; stroke-opacity: 0.7; stroke-width: 0.5"/>
    <path d="M 357.908079 293.304558 
L 357.908079 293.181267 
L 357.784788 293.181267 
L 357.784788 293.304558 
L 357.908079 293.304558 
" clip-path="url(#p81fdbcd5f2)" style="fill: #ff0000; fill-opacity: 0.7; stroke: #000000; stroke-opacity: 0.7; stroke-width: 0.5"/>
    <path d="M 336.729449 186.989294 
L 336.729449 186.866004 
L 336.606159 186.866004 
L 336.606159 186.989294 
L 336.729449 186.989294 
" clip-path="url(#p81fdbcd5f2)" style="fill: #ff0000; fill-opacity: 0.7; stroke: #000000; stroke-opacity: 0.7; stroke-width: 0.5"/>
    <path d="M 250.624483 395.903804 
L 250.624483 395.780513 
L 250.501192 395.780513 
L 250.501192 395.903804 
L 250.624483 395.903804 
" clip-path="url(#p81fdbcd5f2)" style="fill: #ff0000; fill-opacity: 0.7; stroke: #000000; stroke-opacity: 0.7; stroke-width: 0.5"/>
    <path d="M 353.604452 297.650017 
L 353.604452 297.526727 
L 353.481161 297.526727 
L 353.481161 297.650017 
L 353.604452 297.650017 
" clip-path="url(#p81fdbcd5f2)" style="fill: #ff0000; fill-opacity: 0.7; stroke: #000000; stroke-opacity: 0.7; stroke-width: 0.5"/>
    <path d="M 329.871417 237.832845 
L 329.871417 237.709554 
L 329.748127 237.709554 
L 329.748127 237.832845 
L 329.871417 237.832845 
" clip-path="url(#p81fdbcd5f2)" style="fill: #ff0000; fill-opacity: 0.7; stroke: #000000; stroke-opacity: 0.7; stroke-width: 0.5"/>
    <path d="M 249.969762 327.367651 
L 249.969762 327.244361 
L 249.846471 327.244361 
L 249.846471 327.367651 
L 249.969762 327.367651 
" clip-path="url(#p81fdbcd5f2)" style="fill: #ff0000; fill-opacity: 0.7; stroke: #000000; stroke-opacity: 0.7; stroke-width: 0.5"/>
    <path d="M 333.834565 123.417102 
L 333.834565 123.293811 
L 333.711274 123.293811 
L 333.711274 123.417102 
L 333.834565 123.417102 
" clip-path="url(#p81fdbcd5f2)" style="fill: #ff0000; fill-opacity: 0.7; stroke: #000000; stroke-opacity: 0.7; stroke-width: 0.5"/>
    <path d="M 335.70274 235.095698 
L 335.70274 234.972407 
L 335.57945 234.972407 
L 335.57945 235.095698 
L 335.70274 235.095698 
" clip-path="url(#p81fdbcd5f2)" style="fill: #ff0000; fill-opacity: 0.7; stroke: #000000; stroke-opacity: 0.7; stroke-width: 0.5"/>
    <path d="M 334.672463 178.884097 
L 334.672463 178.760806 
L 334.549173 178.760806 
L 334.549173 178.884097 
L 334.672463 178.884097 
" clip-path="url(#p81fdbcd5f2)" style="fill: #ff0000; fill-opacity: 0.7; stroke: #000000; stroke-opacity: 0.7; stroke-width: 0.5"/>
    <path d="M 334.672463 178.884097 
L 334.672463 178.760806 
L 334.549173 178.760806 
L 334.549173 178.884097 
L 334.672463 178.884097 
" clip-path="url(#p81fdbcd5f2)" style="fill: #ff0000; fill-opacity: 0.7; stroke: #000000; stroke-opacity: 0.7; stroke-width: 0.5"/>
    <path d="M 328.172842 152.364647 
L 328.172842 152.241356 
L 328.049552 152.241356 
L 328.049552 152.364647 
L 328.172842 152.364647 
" clip-path="url(#p81fdbcd5f2)" style="fill: #ff0000; fill-opacity: 0.7; stroke: #000000; stroke-opacity: 0.7; stroke-width: 0.5"/>
    <path d="M 336.8608 247.277643 
L 336.8608 247.154353 
L 336.73751 247.154353 
L 336.73751 247.277643 
L 336.8608 247.277643 
" clip-path="url(#p81fdbcd5f2)" style="fill: #ff0000; fill-opacity: 0.7; stroke: #000000; stroke-opacity: 0.7; stroke-width: 0.5"/>
    <path d="M 336.204984 194.853097 
L 336.204984 194.729806 
L 336.081693 194.729806 
L 336.081693 194.853097 
L 336.204984 194.853097 
" clip-path="url(#p81fdbcd5f2)" style="fill: #ff0000; fill-opacity: 0.7; stroke: #000000; stroke-opacity: 0.7; stroke-width: 0.5"/>
    <path d="M 348.815953 313.902558 
L 348.815953 313.779268 
L 348.692662 313.779268 
L 348.692662 313.902558 
L 348.815953 313.902558 
" clip-path="url(#p81fdbcd5f2)" style="fill: #ff0000; fill-opacity: 0.7; stroke: #000000; stroke-opacity: 0.7; stroke-width: 0.5"/>
    <path d="M 330.876773 215.573255 
L 330.876773 215.449964 
L 330.753483 215.449964 
L 330.753483 215.573255 
L 330.876773 215.573255 
" clip-path="url(#p81fdbcd5f2)" style="fill: #ff0000; fill-opacity: 0.7; stroke: #000000; stroke-opacity: 0.7; stroke-width: 0.5"/>
    <path d="M 195.01978 348.377656 
L 195.01978 348.254366 
L 194.89649 348.254366 
L 194.89649 348.377656 
L 195.01978 348.377656 
" clip-path="url(#p81fdbcd5f2)" style="fill: #ff0000; fill-opacity: 0.7; stroke: #000000; stroke-opacity: 0.7; stroke-width: 0.5"/>
    <path d="M 396.129897 476.180364 
L 396.129897 476.057074 
L 396.006606 476.057074 
L 396.006606 476.180364 
L 396.129897 476.180364 
" clip-path="url(#p81fdbcd5f2)" style="fill: #ff0000; fill-opacity: 0.7; stroke: #000000; stroke-opacity: 0.7; stroke-width: 0.5"/>
    <path d="M 322.618861 263.929858 
L 322.618861 263.806567 
L 322.49557 263.806567 
L 322.49557 263.929858 
L 322.618861 263.929858 
" clip-path="url(#p81fdbcd5f2)" style="fill: #ff0000; fill-opacity: 0.7; stroke: #000000; stroke-opacity: 0.7; stroke-width: 0.5"/>
    <path d="M 322.618861 263.929858 
L 322.618861 263.806567 
L 322.49557 263.806567 
L 322.49557 263.929858 
L 322.618861 263.929858 
" clip-path="url(#p81fdbcd5f2)" style="fill: #ff0000; fill-opacity: 0.7; stroke: #000000; stroke-opacity: 0.7; stroke-width: 0.5"/>
    <path d="M 335.702869 235.095577 
L 335.702869 234.972287 
L 335.579578 234.972287 
L 335.579578 235.095577 
L 335.702869 235.095577 
" clip-path="url(#p81fdbcd5f2)" style="fill: #ff0000; fill-opacity: 0.7; stroke: #000000; stroke-opacity: 0.7; stroke-width: 0.5"/>
    <path d="M 325.608489 176.272454 
L 325.608489 176.149163 
L 325.485198 176.149163 
L 325.485198 176.272454 
L 325.608489 176.272454 
" clip-path="url(#p81fdbcd5f2)" style="fill: #ff0000; fill-opacity: 0.7; stroke: #000000; stroke-opacity: 0.7; stroke-width: 0.5"/>
    <path d="M 279.168537 184.634314 
L 279.168537 184.511024 
L 279.045246 184.511024 
L 279.045246 184.634314 
L 279.168537 184.634314 
" clip-path="url(#p81fdbcd5f2)" style="fill: #ff0000; fill-opacity: 0.7; stroke: #000000; stroke-opacity: 0.7; stroke-width: 0.5"/>
    <path d="M 328.172979 152.36454 
L 328.172979 152.241249 
L 328.049688 152.241249 
L 328.049688 152.36454 
L 328.172979 152.36454 
" clip-path="url(#p81fdbcd5f2)" style="fill: #ff0000; fill-opacity: 0.7; stroke: #000000; stroke-opacity: 0.7; stroke-width: 0.5"/>
    <path d="M 334.595339 221.033041 
L 334.595339 220.90975 
L 334.472049 220.90975 
L 334.472049 221.033041 
L 334.595339 221.033041 
" clip-path="url(#p81fdbcd5f2)" style="fill: #ff0000; fill-opacity: 0.7; stroke: #000000; stroke-opacity: 0.7; stroke-width: 0.5"/>
    <path d="M 396.129953 476.18123 
L 396.129953 476.057939 
L 396.006663 476.057939 
L 396.006663 476.18123 
L 396.129953 476.18123 
" clip-path="url(#p81fdbcd5f2)" style="fill: #ff0000; fill-opacity: 0.7; stroke: #000000; stroke-opacity: 0.7; stroke-width: 0.5"/>
    <path d="M 214.980721 339.797195 
L 214.980721 339.673905 
L 214.857431 339.673905 
L 214.857431 339.797195 
L 214.980721 339.797195 
" clip-path="url(#p81fdbcd5f2)" style="fill: #ff0000; fill-opacity: 0.7; stroke: #000000; stroke-opacity: 0.7; stroke-width: 0.5"/>
    <path d="M 419.096158 517.929803 
L 419.096158 517.806513 
L 418.972867 517.806513 
L 418.972867 517.929803 
L 419.096158 517.929803 
" clip-path="url(#p81fdbcd5f2)" style="fill: #ff0000; fill-opacity: 0.7; stroke: #000000; stroke-opacity: 0.7; stroke-width: 0.5"/>
    <path d="M 336.084921 244.974031 
L 336.084921 244.850741 
L 335.96163 244.850741 
L 335.96163 244.974031 
L 336.084921 244.974031 
" clip-path="url(#p81fdbcd5f2)" style="fill: #ff0000; fill-opacity: 0.7; stroke: #000000; stroke-opacity: 0.7; stroke-width: 0.5"/>
    <path d="M 356.279648 311.203758 
L 356.279648 311.080467 
L 356.156357 311.080467 
L 356.156357 311.203758 
L 356.279648 311.203758 
" clip-path="url(#p81fdbcd5f2)" style="fill: #ff0000; fill-opacity: 0.7; stroke: #000000; stroke-opacity: 0.7; stroke-width: 0.5"/>
    <path d="M 419.096158 517.929803 
L 419.096158 517.806513 
L 418.972867 517.806513 
L 418.972867 517.929803 
L 419.096158 517.929803 
" clip-path="url(#p81fdbcd5f2)" style="fill: #ff0000; fill-opacity: 0.7; stroke: #000000; stroke-opacity: 0.7; stroke-width: 0.5"/>
    <path d="M 376.396761 215.945337 
L 376.396761 215.822047 
L 376.27347 215.822047 
L 376.27347 215.945337 
L 376.396761 215.945337 
" clip-path="url(#p81fdbcd5f2)" style="fill: #ff0000; fill-opacity: 0.7; stroke: #000000; stroke-opacity: 0.7; stroke-width: 0.5"/>
    <path d="M 338.991421 224.608084 
L 338.991421 224.484793 
L 338.86813 224.484793 
L 338.86813 224.608084 
L 338.991421 224.608084 
" clip-path="url(#p81fdbcd5f2)" style="fill: #ff0000; fill-opacity: 0.7; stroke: #000000; stroke-opacity: 0.7; stroke-width: 0.5"/>
    <path d="M 335.702869 235.095577 
L 335.702869 234.972287 
L 335.579578 234.972287 
L 335.579578 235.095577 
L 335.702869 235.095577 
" clip-path="url(#p81fdbcd5f2)" style="fill: #ff0000; fill-opacity: 0.7; stroke: #000000; stroke-opacity: 0.7; stroke-width: 0.5"/>
    <path d="M 180.700458 206.435364 
L 180.700458 206.312074 
L 180.577168 206.312074 
L 180.577168 206.435364 
L 180.700458 206.435364 
" clip-path="url(#p81fdbcd5f2)" style="fill: #ff0000; fill-opacity: 0.7; stroke: #000000; stroke-opacity: 0.7; stroke-width: 0.5"/>
    <path d="M 426.431148 520.512356 
L 426.431148 520.389066 
L 426.307857 520.389066 
L 426.307857 520.512356 
L 426.431148 520.512356 
" clip-path="url(#p81fdbcd5f2)" style="fill: #ff0000; fill-opacity: 0.7; stroke: #000000; stroke-opacity: 0.7; stroke-width: 0.5"/>
    <path d="M 325.608489 176.272454 
L 325.608489 176.149163 
L 325.485198 176.149163 
L 325.485198 176.272454 
L 325.608489 176.272454 
" clip-path="url(#p81fdbcd5f2)" style="fill: #ff0000; fill-opacity: 0.7; stroke: #000000; stroke-opacity: 0.7; stroke-width: 0.5"/>
    <path d="M 222.564148 227.583897 
L 222.564148 227.460607 
L 222.440857 227.460607 
L 222.440857 227.583897 
L 222.564148 227.583897 
" clip-path="url(#p81fdbcd5f2)" style="fill: #ff0000; fill-opacity: 0.7; stroke: #000000; stroke-opacity: 0.7; stroke-width: 0.5"/>
    <path d="M 336.204984 194.853097 
L 336.204984 194.729806 
L 336.081693 194.729806 
L 336.081693 194.853097 
L 336.204984 194.853097 
" clip-path="url(#p81fdbcd5f2)" style="fill: #ff0000; fill-opacity: 0.7; stroke: #000000; stroke-opacity: 0.7; stroke-width: 0.5"/>
    <path d="M 261.87985 414.534231 
L 261.87985 414.41094 
L 261.756559 414.41094 
L 261.756559 414.534231 
L 261.87985 414.534231 
" clip-path="url(#p81fdbcd5f2)" style="fill: #ff0000; fill-opacity: 0.7; stroke: #000000; stroke-opacity: 0.7; stroke-width: 0.5"/>
    <path d="M 331.766754 198.721477 
L 331.766754 198.598186 
L 331.643463 198.598186 
L 331.643463 198.721477 
L 331.766754 198.721477 
" clip-path="url(#p81fdbcd5f2)" style="fill: #ff0000; fill-opacity: 0.7; stroke: #000000; stroke-opacity: 0.7; stroke-width: 0.5"/>
    <path d="M 333.626411 140.293902 
L 333.626411 140.170611 
L 333.50312 140.170611 
L 333.50312 140.293902 
L 333.626411 140.293902 
" clip-path="url(#p81fdbcd5f2)" style="fill: #ff0000; fill-opacity: 0.7; stroke: #000000; stroke-opacity: 0.7; stroke-width: 0.5"/>
    <path d="M 335.702869 235.095577 
L 335.702869 234.972287 
L 335.579578 234.972287 
L 335.579578 235.095577 
L 335.702869 235.095577 
" clip-path="url(#p81fdbcd5f2)" style="fill: #ff0000; fill-opacity: 0.7; stroke: #000000; stroke-opacity: 0.7; stroke-width: 0.5"/>
    <path d="M 336.204984 194.853097 
L 336.204984 194.729806 
L 336.081693 194.729806 
L 336.081693 194.853097 
L 336.204984 194.853097 
" clip-path="url(#p81fdbcd5f2)" style="fill: #ff0000; fill-opacity: 0.7; stroke: #000000; stroke-opacity: 0.7; stroke-width: 0.5"/>
    <path d="M 339.307897 260.368323 
L 339.307897 260.245033 
L 339.184606 260.245033 
L 339.184606 260.368323 
L 339.307897 260.368323 
" clip-path="url(#p81fdbcd5f2)" style="fill: #ff0000; fill-opacity: 0.7; stroke: #000000; stroke-opacity: 0.7; stroke-width: 0.5"/>
    <path d="M 356.279648 311.203758 
L 356.279648 311.080467 
L 356.156357 311.080467 
L 356.156357 311.203758 
L 356.279648 311.203758 
" clip-path="url(#p81fdbcd5f2)" style="fill: #ff0000; fill-opacity: 0.7; stroke: #000000; stroke-opacity: 0.7; stroke-width: 0.5"/>
    <path d="M 340.396975 239.256818 
L 340.396975 239.133528 
L 340.273684 239.133528 
L 340.273684 239.256818 
L 340.396975 239.256818 
" clip-path="url(#p81fdbcd5f2)" style="fill: #ff0000; fill-opacity: 0.7; stroke: #000000; stroke-opacity: 0.7; stroke-width: 0.5"/>
    <path d="M 340.751079 243.491053 
L 340.751079 243.367762 
L 340.627789 243.367762 
L 340.627789 243.491053 
L 340.751079 243.491053 
" clip-path="url(#p81fdbcd5f2)" style="fill: #ff0000; fill-opacity: 0.7; stroke: #000000; stroke-opacity: 0.7; stroke-width: 0.5"/>
    <path d="M 312.740371 319.150118 
L 312.740371 319.026827 
L 312.61708 319.026827 
L 312.61708 319.150118 
L 312.740371 319.150118 
" clip-path="url(#p81fdbcd5f2)" style="fill: #ff0000; fill-opacity: 0.7; stroke: #000000; stroke-opacity: 0.7; stroke-width: 0.5"/>
    <path d="M 396.129897 476.180364 
L 396.129897 476.057074 
L 396.006606 476.057074 
L 396.006606 476.180364 
L 396.129897 476.180364 
" clip-path="url(#p81fdbcd5f2)" style="fill: #ff0000; fill-opacity: 0.7; stroke: #000000; stroke-opacity: 0.7; stroke-width: 0.5"/>
    <path d="M 214.980722 339.797182 
L 214.980722 339.673891 
L 214.857431 339.673891 
L 214.857431 339.797182 
L 214.980722 339.797182 
" clip-path="url(#p81fdbcd5f2)" style="fill: #ff0000; fill-opacity: 0.7; stroke: #000000; stroke-opacity: 0.7; stroke-width: 0.5"/>
    <path d="M 279.97724 347.437454 
L 279.97724 347.314164 
L 279.853949 347.314164 
L 279.853949 347.437454 
L 279.97724 347.437454 
" clip-path="url(#p81fdbcd5f2)" style="fill: #ff0000; fill-opacity: 0.7; stroke: #000000; stroke-opacity: 0.7; stroke-width: 0.5"/>
    <path d="M 312.740371 319.150118 
L 312.740371 319.026827 
L 312.61708 319.026827 
L 312.61708 319.150118 
L 312.740371 319.150118 
" clip-path="url(#p81fdbcd5f2)" style="fill: #ff0000; fill-opacity: 0.7; stroke: #000000; stroke-opacity: 0.7; stroke-width: 0.5"/>
    <path d="M 222.564148 227.583897 
L 222.564148 227.460607 
L 222.440857 227.460607 
L 222.440857 227.583897 
L 222.564148 227.583897 
" clip-path="url(#p81fdbcd5f2)" style="fill: #ff0000; fill-opacity: 0.7; stroke: #000000; stroke-opacity: 0.7; stroke-width: 0.5"/>
   </g>
   <g id="matplotlib.axis_1">
    <g id="xtick_1">
     <g id="line2d_1">
      <defs>
       <path id="m7c2758f430" d="M 0 0 
L 0 3.5 
" style="stroke: #000000; stroke-width: 0.8"/>
      </defs>
      <g>
       <use xlink:href="#m7c2758f430" x="177.261963" y="640.8" style="stroke: #000000; stroke-width: 0.8"/>
      </g>
     </g>
     <g id="text_1">
      <!-- 389000 -->
      <g transform="translate(158.174463 655.398438) scale(0.1 -0.1)">
       <defs>
        <path id="DejaVuSans-33" d="M 2597 2516 
Q 3050 2419 3304 2112 
Q 3559 1806 3559 1356 
Q 3559 666 3084 287 
Q 2609 -91 1734 -91 
Q 1441 -91 1130 -33 
Q 819 25 488 141 
L 488 750 
Q 750 597 1062 519 
Q 1375 441 1716 441 
Q 2309 441 2620 675 
Q 2931 909 2931 1356 
Q 2931 1769 2642 2001 
Q 2353 2234 1838 2234 
L 1294 2234 
L 1294 2753 
L 1863 2753 
Q 2328 2753 2575 2939 
Q 2822 3125 2822 3475 
Q 2822 3834 2567 4026 
Q 2313 4219 1838 4219 
Q 1578 4219 1281 4162 
Q 984 4106 628 3988 
L 628 4550 
Q 988 4650 1302 4700 
Q 1616 4750 1894 4750 
Q 2613 4750 3031 4423 
Q 3450 4097 3450 3541 
Q 3450 3153 3228 2886 
Q 3006 2619 2597 2516 
z
" transform="scale(0.015625)"/>
        <path id="DejaVuSans-38" d="M 2034 2216 
Q 1584 2216 1326 1975 
Q 1069 1734 1069 1313 
Q 1069 891 1326 650 
Q 1584 409 2034 409 
Q 2484 409 2743 651 
Q 3003 894 3003 1313 
Q 3003 1734 2745 1975 
Q 2488 2216 2034 2216 
z
M 1403 2484 
Q 997 2584 770 2862 
Q 544 3141 544 3541 
Q 544 4100 942 4425 
Q 1341 4750 2034 4750 
Q 2731 4750 3128 4425 
Q 3525 4100 3525 3541 
Q 3525 3141 3298 2862 
Q 3072 2584 2669 2484 
Q 3125 2378 3379 2068 
Q 3634 1759 3634 1313 
Q 3634 634 3220 271 
Q 2806 -91 2034 -91 
Q 1263 -91 848 271 
Q 434 634 434 1313 
Q 434 1759 690 2068 
Q 947 2378 1403 2484 
z
M 1172 3481 
Q 1172 3119 1398 2916 
Q 1625 2713 2034 2713 
Q 2441 2713 2670 2916 
Q 2900 3119 2900 3481 
Q 2900 3844 2670 4047 
Q 2441 4250 2034 4250 
Q 1625 4250 1398 4047 
Q 1172 3844 1172 3481 
z
" transform="scale(0.015625)"/>
        <path id="DejaVuSans-39" d="M 703 97 
L 703 672 
Q 941 559 1184 500 
Q 1428 441 1663 441 
Q 2288 441 2617 861 
Q 2947 1281 2994 2138 
Q 2813 1869 2534 1725 
Q 2256 1581 1919 1581 
Q 1219 1581 811 2004 
Q 403 2428 403 3163 
Q 403 3881 828 4315 
Q 1253 4750 1959 4750 
Q 2769 4750 3195 4129 
Q 3622 3509 3622 2328 
Q 3622 1225 3098 567 
Q 2575 -91 1691 -91 
Q 1453 -91 1209 -44 
Q 966 3 703 97 
z
M 1959 2075 
Q 2384 2075 2632 2365 
Q 2881 2656 2881 3163 
Q 2881 3666 2632 3958 
Q 2384 4250 1959 4250 
Q 1534 4250 1286 3958 
Q 1038 3666 1038 3163 
Q 1038 2656 1286 2365 
Q 1534 2075 1959 2075 
z
" transform="scale(0.015625)"/>
        <path id="DejaVuSans-30" d="M 2034 4250 
Q 1547 4250 1301 3770 
Q 1056 3291 1056 2328 
Q 1056 1369 1301 889 
Q 1547 409 2034 409 
Q 2525 409 2770 889 
Q 3016 1369 3016 2328 
Q 3016 3291 2770 3770 
Q 2525 4250 2034 4250 
z
M 2034 4750 
Q 2819 4750 3233 4129 
Q 3647 3509 3647 2328 
Q 3647 1150 3233 529 
Q 2819 -91 2034 -91 
Q 1250 -91 836 529 
Q 422 1150 422 2328 
Q 422 3509 836 4129 
Q 1250 4750 2034 4750 
z
" transform="scale(0.015625)"/>
       </defs>
       <use xlink:href="#DejaVuSans-33"/>
       <use xlink:href="#DejaVuSans-38" x="63.623047"/>
       <use xlink:href="#DejaVuSans-39" x="127.246094"/>
       <use xlink:href="#DejaVuSans-30" x="190.869141"/>
       <use xlink:href="#DejaVuSans-30" x="254.492188"/>
       <use xlink:href="#DejaVuSans-30" x="318.115234"/>
      </g>
     </g>
    </g>
    <g id="xtick_2">
     <g id="line2d_2">
      <g>
       <use xlink:href="#m7c2758f430" x="238.907246" y="640.8" style="stroke: #000000; stroke-width: 0.8"/>
      </g>
     </g>
     <g id="text_2">
      <!-- 389500 -->
      <g transform="translate(219.819746 655.398438) scale(0.1 -0.1)">
       <defs>
        <path id="DejaVuSans-35" d="M 691 4666 
L 3169 4666 
L 3169 4134 
L 1269 4134 
L 1269 2991 
Q 1406 3038 1543 3061 
Q 1681 3084 1819 3084 
Q 2600 3084 3056 2656 
Q 3513 2228 3513 1497 
Q 3513 744 3044 326 
Q 2575 -91 1722 -91 
Q 1428 -91 1123 -41 
Q 819 9 494 109 
L 494 744 
Q 775 591 1075 516 
Q 1375 441 1709 441 
Q 2250 441 2565 725 
Q 2881 1009 2881 1497 
Q 2881 1984 2565 2268 
Q 2250 2553 1709 2553 
Q 1456 2553 1204 2497 
Q 953 2441 691 2322 
L 691 4666 
z
" transform="scale(0.015625)"/>
       </defs>
       <use xlink:href="#DejaVuSans-33"/>
       <use xlink:href="#DejaVuSans-38" x="63.623047"/>
       <use xlink:href="#DejaVuSans-39" x="127.246094"/>
       <use xlink:href="#DejaVuSans-35" x="190.869141"/>
       <use xlink:href="#DejaVuSans-30" x="254.492188"/>
       <use xlink:href="#DejaVuSans-30" x="318.115234"/>
      </g>
     </g>
    </g>
    <g id="xtick_3">
     <g id="line2d_3">
      <g>
       <use xlink:href="#m7c2758f430" x="300.552529" y="640.8" style="stroke: #000000; stroke-width: 0.8"/>
      </g>
     </g>
     <g id="text_3">
      <!-- 390000 -->
      <g transform="translate(281.465029 655.398438) scale(0.1 -0.1)">
       <use xlink:href="#DejaVuSans-33"/>
       <use xlink:href="#DejaVuSans-39" x="63.623047"/>
       <use xlink:href="#DejaVuSans-30" x="127.246094"/>
       <use xlink:href="#DejaVuSans-30" x="190.869141"/>
       <use xlink:href="#DejaVuSans-30" x="254.492188"/>
       <use xlink:href="#DejaVuSans-30" x="318.115234"/>
      </g>
     </g>
    </g>
    <g id="xtick_4">
     <g id="line2d_4">
      <g>
       <use xlink:href="#m7c2758f430" x="362.197813" y="640.8" style="stroke: #000000; stroke-width: 0.8"/>
      </g>
     </g>
     <g id="text_4">
      <!-- 390500 -->
      <g transform="translate(343.110313 655.398438) scale(0.1 -0.1)">
       <use xlink:href="#DejaVuSans-33"/>
       <use xlink:href="#DejaVuSans-39" x="63.623047"/>
       <use xlink:href="#DejaVuSans-30" x="127.246094"/>
       <use xlink:href="#DejaVuSans-35" x="190.869141"/>
       <use xlink:href="#DejaVuSans-30" x="254.492188"/>
       <use xlink:href="#DejaVuSans-30" x="318.115234"/>
      </g>
     </g>
    </g>
    <g id="xtick_5">
     <g id="line2d_5">
      <g>
       <use xlink:href="#m7c2758f430" x="423.843096" y="640.8" style="stroke: #000000; stroke-width: 0.8"/>
      </g>
     </g>
     <g id="text_5">
      <!-- 391000 -->
      <g transform="translate(404.755596 655.398438) scale(0.1 -0.1)">
       <defs>
        <path id="DejaVuSans-31" d="M 794 531 
L 1825 531 
L 1825 4091 
L 703 3866 
L 703 4441 
L 1819 4666 
L 2450 4666 
L 2450 531 
L 3481 531 
L 3481 0 
L 794 0 
L 794 531 
z
" transform="scale(0.015625)"/>
       </defs>
       <use xlink:href="#DejaVuSans-33"/>
       <use xlink:href="#DejaVuSans-39" x="63.623047"/>
       <use xlink:href="#DejaVuSans-31" x="127.246094"/>
       <use xlink:href="#DejaVuSans-30" x="190.869141"/>
       <use xlink:href="#DejaVuSans-30" x="254.492188"/>
       <use xlink:href="#DejaVuSans-30" x="318.115234"/>
      </g>
     </g>
    </g>
    <g id="xtick_6">
     <g id="line2d_6">
      <g>
       <use xlink:href="#m7c2758f430" x="485.488379" y="640.8" style="stroke: #000000; stroke-width: 0.8"/>
      </g>
     </g>
     <g id="text_6">
      <!-- 391500 -->
      <g transform="translate(466.400879 655.398438) scale(0.1 -0.1)">
       <use xlink:href="#DejaVuSans-33"/>
       <use xlink:href="#DejaVuSans-39" x="63.623047"/>
       <use xlink:href="#DejaVuSans-31" x="127.246094"/>
       <use xlink:href="#DejaVuSans-35" x="190.869141"/>
       <use xlink:href="#DejaVuSans-30" x="254.492188"/>
       <use xlink:href="#DejaVuSans-30" x="318.115234"/>
      </g>
     </g>
    </g>
    <g id="xtick_7">
     <g id="line2d_7">
      <g>
       <use xlink:href="#m7c2758f430" x="547.133662" y="640.8" style="stroke: #000000; stroke-width: 0.8"/>
      </g>
     </g>
     <g id="text_7">
      <!-- 392000 -->
      <g transform="translate(528.046162 655.398438) scale(0.1 -0.1)">
       <defs>
        <path id="DejaVuSans-32" d="M 1228 531 
L 3431 531 
L 3431 0 
L 469 0 
L 469 531 
Q 828 903 1448 1529 
Q 2069 2156 2228 2338 
Q 2531 2678 2651 2914 
Q 2772 3150 2772 3378 
Q 2772 3750 2511 3984 
Q 2250 4219 1831 4219 
Q 1534 4219 1204 4116 
Q 875 4013 500 3803 
L 500 4441 
Q 881 4594 1212 4672 
Q 1544 4750 1819 4750 
Q 2544 4750 2975 4387 
Q 3406 4025 3406 3419 
Q 3406 3131 3298 2873 
Q 3191 2616 2906 2266 
Q 2828 2175 2409 1742 
Q 1991 1309 1228 531 
z
" transform="scale(0.015625)"/>
       </defs>
       <use xlink:href="#DejaVuSans-33"/>
       <use xlink:href="#DejaVuSans-39" x="63.623047"/>
       <use xlink:href="#DejaVuSans-32" x="127.246094"/>
       <use xlink:href="#DejaVuSans-30" x="190.869141"/>
       <use xlink:href="#DejaVuSans-30" x="254.492188"/>
       <use xlink:href="#DejaVuSans-30" x="318.115234"/>
      </g>
     </g>
    </g>
    <g id="xtick_8">
     <g id="line2d_8">
      <g>
       <use xlink:href="#m7c2758f430" x="608.778946" y="640.8" style="stroke: #000000; stroke-width: 0.8"/>
      </g>
     </g>
     <g id="text_8">
      <!-- 392500 -->
      <g transform="translate(589.691446 655.398438) scale(0.1 -0.1)">
       <use xlink:href="#DejaVuSans-33"/>
       <use xlink:href="#DejaVuSans-39" x="63.623047"/>
       <use xlink:href="#DejaVuSans-32" x="127.246094"/>
       <use xlink:href="#DejaVuSans-35" x="190.869141"/>
       <use xlink:href="#DejaVuSans-30" x="254.492188"/>
       <use xlink:href="#DejaVuSans-30" x="318.115234"/>
      </g>
     </g>
    </g>
   </g>
   <g id="matplotlib.axis_2">
    <g id="ytick_1">
     <g id="line2d_9">
      <defs>
       <path id="mdd892558f9" d="M 0 0 
L -3.5 0 
" style="stroke: #000000; stroke-width: 0.8"/>
      </defs>
      <g>
       <use xlink:href="#mdd892558f9" x="119.351398" y="627.48387" style="stroke: #000000; stroke-width: 0.8"/>
      </g>
     </g>
     <g id="text_9">
      <!-- 5.8085 -->
      <g transform="translate(77.360773 631.283088) scale(0.1 -0.1)">
       <defs>
        <path id="DejaVuSans-2e" d="M 684 794 
L 1344 794 
L 1344 0 
L 684 0 
L 684 794 
z
" transform="scale(0.015625)"/>
       </defs>
       <use xlink:href="#DejaVuSans-35"/>
       <use xlink:href="#DejaVuSans-2e" x="63.623047"/>
       <use xlink:href="#DejaVuSans-38" x="95.410156"/>
       <use xlink:href="#DejaVuSans-30" x="159.033203"/>
       <use xlink:href="#DejaVuSans-38" x="222.65625"/>
       <use xlink:href="#DejaVuSans-35" x="286.279297"/>
      </g>
     </g>
    </g>
    <g id="ytick_2">
     <g id="line2d_10">
      <g>
       <use xlink:href="#mdd892558f9" x="119.351398" y="565.838586" style="stroke: #000000; stroke-width: 0.8"/>
      </g>
     </g>
     <g id="text_10">
      <!-- 5.8090 -->
      <g transform="translate(77.360773 569.637805) scale(0.1 -0.1)">
       <use xlink:href="#DejaVuSans-35"/>
       <use xlink:href="#DejaVuSans-2e" x="63.623047"/>
       <use xlink:href="#DejaVuSans-38" x="95.410156"/>
       <use xlink:href="#DejaVuSans-30" x="159.033203"/>
       <use xlink:href="#DejaVuSans-39" x="222.65625"/>
       <use xlink:href="#DejaVuSans-30" x="286.279297"/>
      </g>
     </g>
    </g>
    <g id="ytick_3">
     <g id="line2d_11">
      <g>
       <use xlink:href="#mdd892558f9" x="119.351398" y="504.193303" style="stroke: #000000; stroke-width: 0.8"/>
      </g>
     </g>
     <g id="text_11">
      <!-- 5.8095 -->
      <g transform="translate(77.360773 507.992522) scale(0.1 -0.1)">
       <use xlink:href="#DejaVuSans-35"/>
       <use xlink:href="#DejaVuSans-2e" x="63.623047"/>
       <use xlink:href="#DejaVuSans-38" x="95.410156"/>
       <use xlink:href="#DejaVuSans-30" x="159.033203"/>
       <use xlink:href="#DejaVuSans-39" x="222.65625"/>
       <use xlink:href="#DejaVuSans-35" x="286.279297"/>
      </g>
     </g>
    </g>
    <g id="ytick_4">
     <g id="line2d_12">
      <g>
       <use xlink:href="#mdd892558f9" x="119.351398" y="442.54802" style="stroke: #000000; stroke-width: 0.8"/>
      </g>
     </g>
     <g id="text_12">
      <!-- 5.8100 -->
      <g transform="translate(77.360773 446.347239) scale(0.1 -0.1)">
       <use xlink:href="#DejaVuSans-35"/>
       <use xlink:href="#DejaVuSans-2e" x="63.623047"/>
       <use xlink:href="#DejaVuSans-38" x="95.410156"/>
       <use xlink:href="#DejaVuSans-31" x="159.033203"/>
       <use xlink:href="#DejaVuSans-30" x="222.65625"/>
       <use xlink:href="#DejaVuSans-30" x="286.279297"/>
      </g>
     </g>
    </g>
    <g id="ytick_5">
     <g id="line2d_13">
      <g>
       <use xlink:href="#mdd892558f9" x="119.351398" y="380.902737" style="stroke: #000000; stroke-width: 0.8"/>
      </g>
     </g>
     <g id="text_13">
      <!-- 5.8105 -->
      <g transform="translate(77.360773 384.701955) scale(0.1 -0.1)">
       <use xlink:href="#DejaVuSans-35"/>
       <use xlink:href="#DejaVuSans-2e" x="63.623047"/>
       <use xlink:href="#DejaVuSans-38" x="95.410156"/>
       <use xlink:href="#DejaVuSans-31" x="159.033203"/>
       <use xlink:href="#DejaVuSans-30" x="222.65625"/>
       <use xlink:href="#DejaVuSans-35" x="286.279297"/>
      </g>
     </g>
    </g>
    <g id="ytick_6">
     <g id="line2d_14">
      <g>
       <use xlink:href="#mdd892558f9" x="119.351398" y="319.257453" style="stroke: #000000; stroke-width: 0.8"/>
      </g>
     </g>
     <g id="text_14">
      <!-- 5.8110 -->
      <g transform="translate(77.360773 323.056672) scale(0.1 -0.1)">
       <use xlink:href="#DejaVuSans-35"/>
       <use xlink:href="#DejaVuSans-2e" x="63.623047"/>
       <use xlink:href="#DejaVuSans-38" x="95.410156"/>
       <use xlink:href="#DejaVuSans-31" x="159.033203"/>
       <use xlink:href="#DejaVuSans-31" x="222.65625"/>
       <use xlink:href="#DejaVuSans-30" x="286.279297"/>
      </g>
     </g>
    </g>
    <g id="ytick_7">
     <g id="line2d_15">
      <g>
       <use xlink:href="#mdd892558f9" x="119.351398" y="257.61217" style="stroke: #000000; stroke-width: 0.8"/>
      </g>
     </g>
     <g id="text_15">
      <!-- 5.8115 -->
      <g transform="translate(77.360773 261.411389) scale(0.1 -0.1)">
       <use xlink:href="#DejaVuSans-35"/>
       <use xlink:href="#DejaVuSans-2e" x="63.623047"/>
       <use xlink:href="#DejaVuSans-38" x="95.410156"/>
       <use xlink:href="#DejaVuSans-31" x="159.033203"/>
       <use xlink:href="#DejaVuSans-31" x="222.65625"/>
       <use xlink:href="#DejaVuSans-35" x="286.279297"/>
      </g>
     </g>
    </g>
    <g id="ytick_8">
     <g id="line2d_16">
      <g>
       <use xlink:href="#mdd892558f9" x="119.351398" y="195.966887" style="stroke: #000000; stroke-width: 0.8"/>
      </g>
     </g>
     <g id="text_16">
      <!-- 5.8120 -->
      <g transform="translate(77.360773 199.766106) scale(0.1 -0.1)">
       <use xlink:href="#DejaVuSans-35"/>
       <use xlink:href="#DejaVuSans-2e" x="63.623047"/>
       <use xlink:href="#DejaVuSans-38" x="95.410156"/>
       <use xlink:href="#DejaVuSans-31" x="159.033203"/>
       <use xlink:href="#DejaVuSans-32" x="222.65625"/>
       <use xlink:href="#DejaVuSans-30" x="286.279297"/>
      </g>
     </g>
    </g>
    <g id="ytick_9">
     <g id="line2d_17">
      <g>
       <use xlink:href="#mdd892558f9" x="119.351398" y="134.321604" style="stroke: #000000; stroke-width: 0.8"/>
      </g>
     </g>
     <g id="text_17">
      <!-- 5.8125 -->
      <g transform="translate(77.360773 138.120822) scale(0.1 -0.1)">
       <use xlink:href="#DejaVuSans-35"/>
       <use xlink:href="#DejaVuSans-2e" x="63.623047"/>
       <use xlink:href="#DejaVuSans-38" x="95.410156"/>
       <use xlink:href="#DejaVuSans-31" x="159.033203"/>
       <use xlink:href="#DejaVuSans-32" x="222.65625"/>
       <use xlink:href="#DejaVuSans-35" x="286.279297"/>
      </g>
     </g>
    </g>
    <g id="text_18">
     <!-- 1e6 -->
     <g transform="translate(119.351398 83.4) scale(0.1 -0.1)">
      <defs>
       <path id="DejaVuSans-65" d="M 3597 1894 
L 3597 1613 
L 953 1613 
Q 991 1019 1311 708 
Q 1631 397 2203 397 
Q 2534 397 2845 478 
Q 3156 559 3463 722 
L 3463 178 
Q 3153 47 2828 -22 
Q 2503 -91 2169 -91 
Q 1331 -91 842 396 
Q 353 884 353 1716 
Q 353 2575 817 3079 
Q 1281 3584 2069 3584 
Q 2775 3584 3186 3129 
Q 3597 2675 3597 1894 
z
M 3022 2063 
Q 3016 2534 2758 2815 
Q 2500 3097 2075 3097 
Q 1594 3097 1305 2825 
Q 1016 2553 972 2059 
L 3022 2063 
z
" transform="scale(0.015625)"/>
       <path id="DejaVuSans-36" d="M 2113 2584 
Q 1688 2584 1439 2293 
Q 1191 2003 1191 1497 
Q 1191 994 1439 701 
Q 1688 409 2113 409 
Q 2538 409 2786 701 
Q 3034 994 3034 1497 
Q 3034 2003 2786 2293 
Q 2538 2584 2113 2584 
z
M 3366 4563 
L 3366 3988 
Q 3128 4100 2886 4159 
Q 2644 4219 2406 4219 
Q 1781 4219 1451 3797 
Q 1122 3375 1075 2522 
Q 1259 2794 1537 2939 
Q 1816 3084 2150 3084 
Q 2853 3084 3261 2657 
Q 3669 2231 3669 1497 
Q 3669 778 3244 343 
Q 2819 -91 2113 -91 
Q 1303 -91 875 529 
Q 447 1150 447 2328 
Q 447 3434 972 4092 
Q 1497 4750 2381 4750 
Q 2619 4750 2861 4703 
Q 3103 4656 3366 4563 
z
" transform="scale(0.015625)"/>
      </defs>
      <use xlink:href="#DejaVuSans-31"/>
      <use xlink:href="#DejaVuSans-65" x="63.623047"/>
      <use xlink:href="#DejaVuSans-36" x="125.146484"/>
     </g>
    </g>
   </g>
   <g id="patch_3">
    <path d="M 119.351398 640.8 
L 119.351398 86.4 
" style="fill: none; stroke: #000000; stroke-width: 0.8; stroke-linejoin: miter; stroke-linecap: square"/>
   </g>
   <g id="patch_4">
    <path d="M 618.648602 640.8 
L 618.648602 86.4 
" style="fill: none; stroke: #000000; stroke-width: 0.8; stroke-linejoin: miter; stroke-linecap: square"/>
   </g>
   <g id="patch_5">
    <path d="M 119.351398 640.8 
L 618.648602 640.8 
" style="fill: none; stroke: #000000; stroke-width: 0.8; stroke-linejoin: miter; stroke-linecap: square"/>
   </g>
   <g id="patch_6">
    <path d="M 119.351398 86.4 
L 618.648602 86.4 
" style="fill: none; stroke: #000000; stroke-width: 0.8; stroke-linejoin: miter; stroke-linecap: square"/>
   </g>
   <g id="text_19">
    <!-- Mariendorf -->
    <g transform="translate(344.557818 318.936176) scale(0.12 -0.12)">
     <defs>
      <path id="DejaVuSans-4d" d="M 628 4666 
L 1569 4666 
L 2759 1491 
L 3956 4666 
L 4897 4666 
L 4897 0 
L 4281 0 
L 4281 4097 
L 3078 897 
L 2444 897 
L 1241 4097 
L 1241 0 
L 628 0 
L 628 4666 
z
" transform="scale(0.015625)"/>
      <path id="DejaVuSans-61" d="M 2194 1759 
Q 1497 1759 1228 1600 
Q 959 1441 959 1056 
Q 959 750 1161 570 
Q 1363 391 1709 391 
Q 2188 391 2477 730 
Q 2766 1069 2766 1631 
L 2766 1759 
L 2194 1759 
z
M 3341 1997 
L 3341 0 
L 2766 0 
L 2766 531 
Q 2569 213 2275 61 
Q 1981 -91 1556 -91 
Q 1019 -91 701 211 
Q 384 513 384 1019 
Q 384 1609 779 1909 
Q 1175 2209 1959 2209 
L 2766 2209 
L 2766 2266 
Q 2766 2663 2505 2880 
Q 2244 3097 1772 3097 
Q 1472 3097 1187 3025 
Q 903 2953 641 2809 
L 641 3341 
Q 956 3463 1253 3523 
Q 1550 3584 1831 3584 
Q 2591 3584 2966 3190 
Q 3341 2797 3341 1997 
z
" transform="scale(0.015625)"/>
      <path id="DejaVuSans-72" d="M 2631 2963 
Q 2534 3019 2420 3045 
Q 2306 3072 2169 3072 
Q 1681 3072 1420 2755 
Q 1159 2438 1159 1844 
L 1159 0 
L 581 0 
L 581 3500 
L 1159 3500 
L 1159 2956 
Q 1341 3275 1631 3429 
Q 1922 3584 2338 3584 
Q 2397 3584 2469 3576 
Q 2541 3569 2628 3553 
L 2631 2963 
z
" transform="scale(0.015625)"/>
      <path id="DejaVuSans-69" d="M 603 3500 
L 1178 3500 
L 1178 0 
L 603 0 
L 603 3500 
z
M 603 4863 
L 1178 4863 
L 1178 4134 
L 603 4134 
L 603 4863 
z
" transform="scale(0.015625)"/>
      <path id="DejaVuSans-6e" d="M 3513 2113 
L 3513 0 
L 2938 0 
L 2938 2094 
Q 2938 2591 2744 2837 
Q 2550 3084 2163 3084 
Q 1697 3084 1428 2787 
Q 1159 2491 1159 1978 
L 1159 0 
L 581 0 
L 581 3500 
L 1159 3500 
L 1159 2956 
Q 1366 3272 1645 3428 
Q 1925 3584 2291 3584 
Q 2894 3584 3203 3211 
Q 3513 2838 3513 2113 
z
" transform="scale(0.015625)"/>
      <path id="DejaVuSans-64" d="M 2906 2969 
L 2906 4863 
L 3481 4863 
L 3481 0 
L 2906 0 
L 2906 525 
Q 2725 213 2448 61 
Q 2172 -91 1784 -91 
Q 1150 -91 751 415 
Q 353 922 353 1747 
Q 353 2572 751 3078 
Q 1150 3584 1784 3584 
Q 2172 3584 2448 3432 
Q 2725 3281 2906 2969 
z
M 947 1747 
Q 947 1113 1208 752 
Q 1469 391 1925 391 
Q 2381 391 2643 752 
Q 2906 1113 2906 1747 
Q 2906 2381 2643 2742 
Q 2381 3103 1925 3103 
Q 1469 3103 1208 2742 
Q 947 2381 947 1747 
z
" transform="scale(0.015625)"/>
      <path id="DejaVuSans-6f" d="M 1959 3097 
Q 1497 3097 1228 2736 
Q 959 2375 959 1747 
Q 959 1119 1226 758 
Q 1494 397 1959 397 
Q 2419 397 2687 759 
Q 2956 1122 2956 1747 
Q 2956 2369 2687 2733 
Q 2419 3097 1959 3097 
z
M 1959 3584 
Q 2709 3584 3137 3096 
Q 3566 2609 3566 1747 
Q 3566 888 3137 398 
Q 2709 -91 1959 -91 
Q 1206 -91 779 398 
Q 353 888 353 1747 
Q 353 2609 779 3096 
Q 1206 3584 1959 3584 
z
" transform="scale(0.015625)"/>
      <path id="DejaVuSans-66" d="M 2375 4863 
L 2375 4384 
L 1825 4384 
Q 1516 4384 1395 4259 
Q 1275 4134 1275 3809 
L 1275 3500 
L 2222 3500 
L 2222 3053 
L 1275 3053 
L 1275 0 
L 697 0 
L 697 3053 
L 147 3053 
L 147 3500 
L 697 3500 
L 697 3744 
Q 697 4328 969 4595 
Q 1241 4863 1831 4863 
L 2375 4863 
z
" transform="scale(0.015625)"/>
     </defs>
     <use xlink:href="#DejaVuSans-4d"/>
     <use xlink:href="#DejaVuSans-61" x="86.279297"/>
     <use xlink:href="#DejaVuSans-72" x="147.558594"/>
     <use xlink:href="#DejaVuSans-69" x="188.671875"/>
     <use xlink:href="#DejaVuSans-65" x="216.455078"/>
     <use xlink:href="#DejaVuSans-6e" x="277.978516"/>
     <use xlink:href="#DejaVuSans-64" x="341.357422"/>
     <use xlink:href="#DejaVuSans-6f" x="404.833984"/>
     <use xlink:href="#DejaVuSans-72" x="466.015625"/>
     <use xlink:href="#DejaVuSans-66" x="507.128906"/>
    </g>
   </g>
  </g>
 </g>
 <defs>
  <clipPath id="p81fdbcd5f2">
   <rect x="119.351398" y="86.4" width="499.297205" height="554.4"/>
  </clipPath>
 </defs>
</svg>
