<?xml version="1.0" encoding="utf-8" standalone="no"?>
<!DOCTYPE svg PUBLIC "-//W3C//DTD SVG 1.1//EN"
  "http://www.w3.org/Graphics/SVG/1.1/DTD/svg11.dtd">
<svg xmlns:xlink="http://www.w3.org/1999/xlink" width="720pt" height="720pt" viewBox="0 0 720 720" xmlns="http://www.w3.org/2000/svg" version="1.1">
 <metadata>
  <rdf:RDF xmlns:dc="http://purl.org/dc/elements/1.1/" xmlns:cc="http://creativecommons.org/ns#" xmlns:rdf="http://www.w3.org/1999/02/22-rdf-syntax-ns#">
   <cc:Work>
    <dc:type rdf:resource="http://purl.org/dc/dcmitype/StillImage"/>
    <dc:date>2024-10-15T13:01:19.105741</dc:date>
    <dc:format>image/svg+xml</dc:format>
    <dc:creator>
     <cc:Agent>
      <dc:title>Matplotlib v3.9.2, https://matplotlib.org/</dc:title>
     </cc:Agent>
    </dc:creator>
   </cc:Work>
  </rdf:RDF>
 </metadata>
 <defs>
  <style type="text/css">*{stroke-linejoin: round; stroke-linecap: butt}</style>
 </defs>
 <g id="figure_1">
  <g id="patch_1">
   <path d="M 0 720 
L 720 720 
L 720 0 
L 0 0 
z
" style="fill: #ffffff"/>
  </g>
  <g id="axes_1">
   <g id="patch_2">
    <path d="M 90 605.635891 
L 648 605.635891 
L 648 121.564109 
L 90 121.564109 
z
" style="fill: #ffffff"/>
   </g>
   <g id="PatchCollection_1">
    <path d="M 512.152855 551.100228 
L 512.599321 551.094463 
L 513.207324 551.086368 
L 515.132524 551.060978 
L 516.860249 551.036447 
L 517.6201 551.081461 
L 518.347371 551.124438 
L 518.956799 551.160452 
L 519.446317 551.189521 
L 520.053339 547.868501 
L 521.433213 540.267787 
L 522.076541 536.724761 
L 522.379868 535.053703 
L 522.979898 531.748016 
L 523.283348 530.077203 
L 523.743183 527.543754 
L 523.862282 526.887179 
L 524.406381 523.890461 
L 524.536519 523.173417 
L 525.096932 520.086547 
L 525.224861 519.381891 
L 525.285208 519.050108 
L 525.38922 518.477062 
L 525.966191 515.298568 
L 526.463559 512.558935 
L 526.544389 512.111488 
L 526.818033 510.598778 
L 526.878134 510.266382 
L 527.237883 508.309782 
L 527.532011 506.71244 
L 527.900836 504.661395 
L 528.271133 502.607038 
L 528.59617 500.804126 
L 528.99112 498.628586 
L 529.106048 497.995438 
L 529.199144 497.479672 
L 529.431331 496.192648 
L 529.51566 495.725178 
L 529.545768 495.558274 
L 529.997999 493.065792 
L 530.395648 490.873203 
L 531.191927 486.484345 
L 531.683776 483.770961 
L 532.230819 480.763449 
L 532.469752 479.451035 
L 532.564687 478.924966 
L 532.927748 476.913539 
L 533.092474 476.000982 
L 533.836011 476.757276 
L 534.466706 476.647008 
L 535.676702 476.449165 
L 539.610631 475.80596 
L 542.024368 475.411377 
L 542.752205 475.292401 
L 544.090499 475.073584 
L 544.443624 475.013973 
L 549.767117 474.139195 
L 554.567975 473.35101 
L 554.909325 473.130599 
L 555.595705 472.689407 
L 558.751875 470.659827 
L 563.113627 467.855064 
L 567.904181 464.774695 
L 568.619508 464.314737 
L 568.768166 464.219188 
L 571.325288 462.574869 
L 577.06679 458.883062 
L 577.243046 458.769606 
L 578.983405 457.650865 
L 580.370761 456.758914 
L 581.046224 456.324223 
L 583.130754 456.068364 
L 583.677061 456.195067 
L 586.066267 456.749102 
L 587.745421 457.138533 
L 589.761018 457.605973 
L 593.500047 458.473025 
L 595.507182 458.93838 
L 595.973027 459.046439 
L 597.635745 459.432068 
L 600.378076 460.068036 
L 602.105187 460.468507 
L 602.841611 460.639366 
L 604.076383 460.924417 
L 605.068911 461.15366 
L 610.604353 462.432343 
L 610.884866 462.497105 
L 611.655142 461.557442 
L 611.698071 461.505681 
L 611.716676 461.483246 
L 611.723093 461.475508 
L 612.175569 460.928097 
L 612.607807 460.403376 
L 612.845636 460.121024 
L 613.074143 459.870193 
L 613.279959 459.653461 
L 613.504787 459.416859 
L 613.601071 459.315668 
L 614.77795 458.077093 
L 614.880981 457.968665 
L 615.137331 457.698946 
L 614.976284 457.547712 
L 615.574107 456.609152 
L 615.697621 456.486129 
L 620.643703 451.561389 
L 622.616003 450.048679 
L 622.636364 450.033102 
L 622.465505 449.856969 
L 621.796787 449.167154 
L 619.840555 447.152415 
L 613.425306 440.545211 
L 610.386271 437.415166 
L 613.327181 434.283404 
L 614.553 432.977981 
L 612.466999 430.990963 
L 610.719894 429.339897 
L 608.919557 427.648969 
L 607.155158 425.950068 
L 605.418847 424.318137 
L 604.683037 423.626974 
L 603.570797 422.582194 
L 601.895814 420.993683 
L 601.822712 420.92426 
L 601.430214 420.579599 
L 599.633189 418.845495 
L 597.893076 417.196761 
L 596.082313 415.527174 
L 594.321962 413.833793 
L 592.445824 412.092576 
L 590.696511 410.427405 
L 588.964493 408.799767 
L 587.227937 407.102461 
L 585.457528 405.44281 
L 581.917691 402.097382 
L 579.995803 400.307348 
L 578.243669 398.665236 
L 576.510302 397.007548 
L 574.72726 395.356728 
L 572.354612 393.079384 
L 569.691639 395.068119 
L 567.787413 396.49031 
L 565.250162 397.174359 
L 564.967687 397.086538 
L 564.512512 396.919972 
L 562.018313 396.056845 
L 559.29757 395.115955 
L 556.37702 394.106133 
L 554.857564 393.580554 
L 554.07907 393.311816 
L 549.031797 391.542633 
L 548.900924 391.501421 
L 548.288996 391.309097 
L 546.739367 390.750034 
L 544.174028 389.835146 
L 543.656421 386.932505 
L 542.846037 387.081531 
L 541.527123 385.687429 
L 540.908816 381.975384 
L 538.947555 382.321886 
L 538.762223 381.188917 
L 538.077069 377.00011 
L 537.600798 377.087195 
L 535.341975 377.500054 
L 534.552319 373.349147 
L 532.60406 373.706197 
L 531.810479 374.677383 
L 531.173038 373.95666 
L 527.466881 369.753134 
L 524.988259 366.923841 
L 517.931031 358.940196 
L 518.268456 358.500721 
L 518.317028 358.437309 
L 518.54529 358.110554 
L 518.092936 358.127358 
L 517.383739 357.325472 
L 516.496575 356.32236 
L 516.381157 356.191855 
L 516.361654 356.169777 
L 514.758302 354.35558 
L 512.885844 352.383893 
L 507.389897 346.59664 
L 503.957016 343.57073 
L 500.279805 340.752352 
L 495.031746 337.080048 
L 489.781233 333.418904 
L 484.266888 329.318164 
L 483.879297 329.953152 
L 474.965188 323.237519 
L 466.661903 315.530708 
L 458.375423 307.828067 
L 453.336858 303.066827 
L 450.133098 300.039445 
L 450.453719 299.324977 
L 444.049141 293.287261 
L 439.600672 289.09318 
L 438.755331 288.295184 
L 438.404536 287.963769 
L 437.592312 287.196068 
L 437.129778 286.758801 
L 435.166064 284.903024 
L 430.489824 280.489635 
L 426.969122 276.868723 
L 426.55013 276.35774 
L 422.292146 271.165366 
L 419.07428 267.369179 
L 417.182932 265.412947 
L 416.963747 265.187261 
L 416.671336 264.884057 
L 415.411297 267.7997 
L 414.075333 266.823117 
L 413.543376 266.419213 
L 412.004296 265.253004 
L 407.930539 261.297366 
L 401.573429 255.257442 
L 389.634759 243.93806 
L 383.759071 238.379436 
L 377.538599 232.510127 
L 377.857749 231.401321 
L 374.315827 227.019209 
L 371.358603 225.715014 
L 368.167644 224.598972 
L 368.156069 224.594924 
L 366.11128 223.897382 
L 359.050004 217.097118 
L 356.113755 214.269419 
L 352.190865 210.564487 
L 349.206658 207.744393 
L 348.783741 207.343923 
L 347.187381 205.838082 
L 344.392062 203.076739 
L 339.346875 198.094474 
L 338.457255 197.215402 
L 334.577049 193.523472 
L 334.044602 193.016537 
L 331.540222 190.632483 
L 329.556147 188.743957 
L 328.111389 187.458037 
L 324.01212 183.807319 
L 320.099901 180.322064 
L 319.611733 179.872532 
L 320.702017 179.165914 
L 317.745162 176.214455 
L 313.79958 173.060615 
L 308.60782 168.037996 
L 308.334666 167.783977 
L 306.946819 166.494009 
L 305.486361 165.072187 
L 303.908153 163.631721 
L 300.825575 160.672658 
L 301.993623 156.20064 
L 296.522944 156.520525 
L 295.450322 156.583325 
L 291.53982 152.81081 
L 286.506408 147.955003 
L 284.883063 146.399854 
L 283.45474 145.031387 
L 282.727884 144.334949 
L 282.629514 144.238665 
L 282.424311 144.043397 
L 281.964844 143.567371 
L 281.769208 144.303795 
L 276.268233 146.525085 
L 275.848016 146.10499 
L 271.464432 147.91514 
L 271.439778 147.925688 
L 271.436082 147.927215 
L 267.082197 149.725289 
L 265.413101 150.414981 
L 256.222404 153.817321 
L 244.717812 158.079721 
L 233.206719 162.303976 
L 229.285178 163.748857 
L 221.990612 166.432068 
L 221.276389 166.641686 
L 219.495677 167.086067 
L 218.894297 167.236565 
L 219.112379 167.732584 
L 219.683095 169.031138 
L 220.856294 171.702696 
L 223.306092 177.278246 
L 223.610523 177.972108 
L 225.08987 181.340105 
L 226.337645 184.180805 
L 227.698998 187.279082 
L 227.983436 187.927194 
L 228.891577 189.93212 
L 229.758506 191.9617 
L 231.065768 194.934992 
L 232.424668 198.030693 
L 233.659072 200.835824 
L 234.986204 203.856092 
L 235.589179 205.230201 
L 235.597887 205.249949 
L 236.824687 208.040238 
L 243.61796 223.506479 
L 243.809671 223.938227 
L 244.120357 224.645581 
L 247.829949 233.089306 
L 249.178669 236.15741 
L 249.578526 237.067023 
L 249.744969 237.445415 
L 251.364021 241.128023 
L 251.463127 241.122871 
L 251.561987 241.131948 
L 251.658517 241.154762 
L 251.750877 241.191068 
L 251.837103 241.24013 
L 251.915603 241.300967 
L 251.984658 241.37223 
L 252.042919 241.452446 
L 252.089283 241.540268 
L 252.122645 241.633731 
L 252.142516 241.730997 
L 252.148403 241.830225 
L 252.140062 241.929086 
L 252.117984 242.025861 
L 252.082292 242.118588 
L 252.033843 242.205183 
L 251.973496 242.284173 
L 251.902724 242.353719 
L 260.170929 261.160114 
L 260.663391 262.283148 
L 261.552153 264.302915 
L 262.045964 265.425949 
L 262.552531 266.579891 
L 262.773433 267.089402 
L 262.980476 267.554389 
L 263.762159 269.336696 
L 263.598904 269.404647 
L 261.036632 270.447464 
L 260.754524 270.573308 
L 260.473766 270.697926 
L 255.535902 272.896157 
L 248.984873 275.811678 
L 248.194727 276.163331 
L 247.425064 276.505785 
L 246.01379 277.133904 
L 241.632046 279.084003 
L 240.21329 279.715556 
L 238.981706 280.263581 
L 237.60772 280.874896 
L 234.499017 282.258327 
L 231.14071 283.753252 
L 228.655465 284.857396 
L 225.523826 286.2488 
L 221.566224 287.978855 
L 220.267057 288.445927 
L 218.577478 288.998735 
L 216.487429 289.651876 
L 215.529367 289.915708 
L 214.446687 290.162491 
L 213.658381 290.335189 
L 213.682544 290.422643 
L 213.944536 291.347465 
L 213.982436 291.483122 
L 214.105426 291.913512 
L 214.152192 292.098362 
L 210.338588 293.476641 
L 206.382304 294.848389 
L 194.836776 298.851527 
L 194.235151 299.206737 
L 190.478459 300.043983 
L 190.057383 300.128002 
L 187.310637 300.677867 
L 179.235246 300.88957 
L 168.233786 301.021057 
L 160.433021 301.235581 
L 160.055119 301.245639 
L 160.030711 301.364124 
L 159.373032 302.091103 
L 159.230139 302.249083 
L 158.80759 303.0591 
L 158.74381 303.057873 
L 158.334508 305.034466 
L 158.731053 305.918935 
L 158.72434 305.950715 
L 158.5115 306.958317 
L 158.449559 307.251219 
L 158.322805 307.851206 
L 158.256745 308.163898 
L 157.999904 309.373526 
L 157.936123 309.673541 
L 157.747234 310.563407 
L 158.119125 310.644114 
L 157.766614 312.281565 
L 157.648128 312.831184 
L 157.116172 315.302569 
L 156.899071 316.299267 
L 156.807325 316.720957 
L 156.679395 317.308109 
L 156.567411 317.830866 
L 156.257338 319.278078 
L 155.776896 321.521569 
L 155.74243 321.682248 
L 155.686009 321.94608 
L 155.582365 322.424927 
L 155.469399 322.947684 
L 155.341102 323.543422 
L 155.220531 324.103222 
L 154.394324 327.932771 
L 154.281481 328.455283 
L 153.930318 330.091998 
L 153.324032 332.905223 
L 152.559153 336.438682 
L 152.150342 338.357627 
L 152.06019 338.775269 
L 151.613419 340.761189 
L 151.178543 342.694234 
L 151.034791 343.288745 
L 150.773903 344.362471 
L 149.170305 351.050383 
L 148.795715 352.605286 
L 148.769712 352.714082 
L 148.653067 353.202373 
L 148.305461 354.646641 
L 148.18992 355.128432 
L 147.789082 355.09507 
L 147.387998 356.756683 
L 147.069953 358.075107 
L 146.759266 359.362499 
L 146.624591 359.920336 
L 146.426134 360.742863 
L 146.291213 361.301927 
L 145.979913 362.591649 
L 145.661868 363.910073 
L 145.196268 365.839812 
L 145.062205 368.150763 
L 145.027248 368.29611 
L 144.967393 368.541544 
L 144.629599 369.947543 
L 144.439361 370.739162 
L 143.938068 372.826022 
L 143.489394 374.693083 
L 142.755301 377.74794 
L 142.568865 378.523982 
L 142.228741 379.939426 
L 142.163611 380.210617 
L 142.049051 380.686766 
L 141.700096 382.133487 
L 141.586763 382.609635 
L 140.229702 388.243078 
L 139.964521 389.356299 
L 139.051842 393.165488 
L 138.629049 394.925471 
L 138.296407 396.38777 
L 138.090723 397.166452 
L 137.503685 399.599258 
L 137.080891 401.350165 
L 137.002637 401.69176 
L 136.645832 403.162522 
L 136.150549 405.229634 
L 135.795217 406.698434 
L 135.674401 407.207944 
L 135.467358 408.06641 
L 135.095222 409.615671 
L 134.807595 410.806656 
L 134.5196 412.004019 
L 134.087484 413.797978 
L 133.974887 414.265786 
L 133.820831 414.919049 
L 133.663955 415.583228 
L 132.447703 420.628783 
L 132.381715 420.90255 
L 130.846559 427.747952 
L 130.766097 427.936228 
L 130.692626 428.127325 
L 130.626515 428.320631 
L 130.567518 428.516266 
L 130.51588 428.713987 
L 128.403507 437.454906 
L 127.939747 439.374464 
L 127.560006 439.281369 
L 127.047674 441.458381 
L 127.214976 441.752263 
L 126.660328 444.666802 
L 126.544418 445.149084 
L 126.31309 446.106778 
L 126.254216 446.350371 
L 126.182339 446.649405 
L 125.896062 447.833644 
L 125.871776 447.934099 
L 125.692331 448.679721 
L 125.681292 448.724368 
L 125.593225 449.082645 
L 125.193123 450.710651 
L 124.82761 450.615838 
L 124.467984 452.042689 
L 124.37113 452.444452 
L 124.12185 453.478494 
L 123.501336 456.114605 
L 122.531377 460.098087 
L 122.917251 460.190079 
L 122.61883 461.425342 
L 122.483173 461.987104 
L 122.474465 462.022919 
L 122.353526 462.521023 
L 121.804398 464.78279 
L 121.690328 465.252806 
L 121.379765 466.533329 
L 121.189526 467.31722 
L 121.045774 467.91308 
L 120.467821 470.308296 
L 120.324069 470.904157 
L 120.014854 472.183944 
L 119.776903 473.168867 
L 119.316454 475.076282 
L 119.229614 475.435908 
L 119.096533 475.985282 
L 118.67975 477.712884 
L 118.049668 480.338938 
L 117.460922 482.724219 
L 117.423635 482.879378 
L 117.331643 483.26194 
L 117.091484 484.259743 
L 116.798164 485.478414 
L 116.381922 487.200285 
L 116.289808 487.581743 
L 116.281099 487.617436 
L 116.272513 487.653252 
L 116.19475 487.9751 
L 115.823104 489.512218 
L 115.363636 491.421718 
L 115.525542 491.424785 
L 115.470101 491.887318 
L 115.435512 492.481461 
L 115.445202 493.065424 
L 115.476234 493.495332 
L 115.496595 493.653925 
L 115.590917 494.237029 
L 115.728414 494.809953 
L 115.906509 495.373923 
L 116.103249 495.868224 
L 116.125449 495.925014 
L 116.315075 496.31285 
L 116.385111 496.456112 
L 116.447911 496.562945 
L 116.684513 496.965991 
L 116.907501 497.292377 
L 117.019853 497.456735 
L 117.038987 497.480285 
L 117.39616 497.918901 
L 118.009928 498.518932 
L 118.782044 499.273631 
L 122.2581 502.658554 
L 122.258959 502.657818 
L 122.351441 502.747847 
L 124.010479 504.362361 
L 125.752923 506.059913 
L 127.13525 507.405811 
L 128.51034 508.74803 
L 129.892667 510.094051 
L 129.580019 510.410625 
L 131.015456 511.801783 
L 131.327 511.483983 
L 132.592928 512.716057 
L 132.948996 513.062559 
L 133.193326 513.303945 
L 133.90019 513.990815 
L 135.479869 515.859349 
L 135.47067 516.084789 
L 138.075382 518.611983 
L 138.490693 519.014047 
L 138.73441 519.25065 
L 139.636909 520.126165 
L 140.560995 521.022653 
L 141.517094 521.952014 
L 141.790984 521.67518 
L 142.228128 522.100672 
L 142.268482 522.140045 
L 142.653742 522.515248 
L 145.611579 525.395566 
L 145.990094 525.764146 
L 146.03241 525.805358 
L 146.461949 526.223491 
L 147.687278 525.201771 
L 151.344741 522.152556 
L 153.498816 520.357002 
L 155.45603 518.725562 
L 158.074479 516.542662 
L 170.238835 506.401508 
L 172.606699 504.427736 
L 180.988851 497.439686 
L 183.939083 494.980076 
L 187.703993 491.841323 
L 191.04709 493.05414 
L 191.274248 493.136564 
L 195.582889 494.699563 
L 196.023345 494.859383 
L 198.92427 495.911767 
L 199.342402 496.063369 
L 199.465794 496.108261 
L 199.628925 496.167381 
L 200.383747 496.441271 
L 201.926385 497.00107 
L 203.176244 497.45465 
L 203.534889 497.58491 
L 203.707833 497.647587 
L 206.147573 498.533037 
L 206.928766 498.816616 
L 207.815933 499.138587 
L 208.625213 499.432347 
L 210.930646 500.269103 
L 213.784348 501.304805 
L 214.360829 501.513933 
L 214.418354 501.534784 
L 214.591176 501.597584 
L 216.946283 502.45237 
L 217.259791 502.565949 
L 217.544229 502.669347 
L 219.195539 503.268519 
L 219.508924 503.382344 
L 219.794466 503.485988 
L 221.439889 504.083074 
L 221.753274 504.196899 
L 222.043599 504.30226 
L 223.686692 504.898611 
L 224.002407 505.013171 
L 224.285864 505.115956 
L 225.934599 505.714392 
L 226.247983 505.828216 
L 226.537205 505.933087 
L 233.29822 508.38681 
L 236.802487 509.658992 
L 236.973346 509.721056 
L 237.665858 509.972254 
L 239.221498 510.536715 
L 240.6378 511.051009 
L 240.981481 511.17575 
L 242.687864 511.795528 
L 243.113233 511.949828 
L 247.024348 513.370056 
L 247.199623 513.433714 
L 247.548946 513.560417 
L 248.971381 514.076674 
L 249.173149 514.150022 
L 250.681812 514.697679 
L 251.359238 514.943603 
L 255.014371 516.270245 
L 255.441825 516.425281 
L 259.09291 517.750573 
L 259.265732 517.813373 
L 259.438676 517.876173 
L 267.841925 520.926369 
L 268.193456 521.053931 
L 268.308506 521.095756 
L 270.923889 522.045355 
L 283.481969 526.604458 
L 283.656508 527.451885 
L 283.689502 527.611705 
L 284.861598 528.019903 
L 286.045714 528.432516 
L 286.564915 528.61331 
L 286.996171 528.614904 
L 288.307726 528.619565 
L 288.554018 528.620424 
L 289.341466 528.623122 
L 290.064888 528.625943 
L 290.51994 528.62766 
L 292.701981 528.635878 
L 292.934168 528.63686 
L 293.516168 528.638945 
L 294.494959 528.642992 
L 306.24707 528.691319 
L 308.207718 528.699291 
L 319.586343 528.746023 
L 320.389613 528.749335 
L 321.566615 528.752156 
L 323.397126 528.756326 
L 323.648692 528.756939 
L 326.235471 528.76777 
L 329.976242 528.783433 
L 331.796082 528.792019 
L 333.666455 528.800973 
L 335.481265 528.810172 
L 337.32539 528.819739 
L 339.154429 528.829061 
L 340.992298 528.838505 
L 342.809071 528.847827 
L 344.611861 528.857026 
L 344.927944 528.858621 
L 345.792052 528.8623 
L 346.55546 528.865489 
L 347.424842 528.869169 
L 349.157227 528.878246 
L 349.403274 528.879472 
L 351.118611 528.888426 
L 351.50608 528.890388 
L 353.133104 529.081608 
L 353.656966 529.143059 
L 356.579846 529.486371 
L 356.811174 529.513478 
L 358.595198 529.723096 
L 358.657629 529.730456 
L 359.124456 529.78516 
L 362.596833 530.19299 
L 362.843493 530.221936 
L 365.45863 530.528943 
L 366.425646 530.642522 
L 368.423213 530.877039 
L 369.092912 530.955661 
L 370.888465 531.166383 
L 371.5654 531.245864 
L 372.715663 531.380908 
L 373.385362 531.45953 
L 374.880533 531.63505 
L 374.886051 531.640195 
L 375.619164 532.323638 
L 375.890232 534.782021 
L 375.950701 535.330537 
L 376.108314 536.760331 
L 376.168906 537.308724 
L 376.312535 538.612429 
L 376.342463 538.884234 
L 376.394592 539.356089 
L 376.577103 541.011938 
L 376.61623 541.366535 
L 376.931823 544.229436 
L 377.211354 546.736637 
L 377.364183 548.124238 
L 377.479847 549.172206 
L 377.603607 550.293277 
L 377.635006 550.57747 
L 377.990953 550.492592 
L 379.204506 550.203248 
L 380.184278 549.96959 
L 383.470954 549.185821 
L 383.840392 549.097632 
L 384.943923 548.834536 
L 385.661948 548.663186 
L 386.625775 548.433452 
L 387.536982 548.215984 
L 389.714976 547.696661 
L 391.727629 547.221248 
L 395.334436 546.36266 
L 397.668079 545.806908 
L 400.031405 545.244165 
L 401.203868 544.965737 
L 401.534425 544.887238 
L 401.95317 544.787764 
L 402.947416 544.554228 
L 404.336857 544.227842 
L 406.001782 543.836693 
L 406.630146 543.689139 
L 407.661065 543.446894 
L 408.873269 543.162211 
L 410.071859 542.880594 
L 411.020353 542.657974 
L 414.355724 541.874942 
L 414.656107 541.804292 
L 414.676345 542.022987 
L 414.965689 545.151437 
L 415.163042 547.284539 
L 415.413259 549.98946 
L 415.927676 555.552253 
L 415.984098 556.160502 
L 416.021017 556.55717 
L 416.116566 557.586494 
L 416.158146 558.034555 
L 416.33526 559.941847 
L 416.421242 560.866547 
L 416.503666 561.754572 
L 416.745788 564.362105 
L 416.857773 565.568054 
L 417.038935 567.521587 
L 418.14173 579.436462 
L 418.53018 583.632629 
L 419.199511 583.57032 
L 420.112681 583.485319 
L 421.079329 583.39529 
L 421.97778 583.311639 
L 422.700343 583.244424 
L 424.146696 583.109748 
L 426.094097 582.928586 
L 431.47855 582.427171 
L 433.401174 580.870059 
L 434.506791 579.974429 
L 437.203494 577.790181 
L 438.348605 576.862783 
L 441.160359 574.585316 
L 441.530166 574.285914 
L 449.852585 567.545014 
L 450.617587 566.925236 
L 451.554307 566.166612 
L 451.99096 565.812874 
L 452.218241 565.62472 
L 452.76418 565.17298 
L 453.03206 564.951219 
L 454.035749 564.13507 
L 456.060301 562.488911 
L 456.894112 561.722805 
L 457.043752 561.585431 
L 457.656617 561.022416 
L 457.904793 560.794425 
L 458.054311 560.657051 
L 458.580625 560.173421 
L 459.136009 559.66391 
L 459.261731 559.832071 
L 461.77347 557.320209 
L 461.709689 557.321313 
L 462.642974 556.36043 
L 462.639785 556.132414 
L 462.639049 556.043979 
L 464.763933 553.850654 
L 466.895071 551.650828 
L 468.224166 551.63292 
L 468.883025 551.62405 
L 470.109994 551.607531 
L 471.120062 551.593916 
L 473.07936 551.571102 
L 474.376932 551.55577 
L 474.651926 551.552581 
L 474.7514 551.551354 
L 476.401361 551.531239 
L 477.381624 551.519464 
L 478.062361 551.511369 
L 478.106395 551.510878 
L 478.340544 551.508057 
L 478.428856 551.507076 
L 478.820004 551.502538 
L 479.05538 551.499839 
L 479.103216 551.499349 
L 479.311607 551.496773 
L 479.533368 551.494197 
L 479.722503 551.492112 
L 480.046559 551.488187 
L 480.132295 551.487206 
L 480.398212 551.484139 
L 480.531661 551.482545 
L 480.752441 551.479969 
L 481.146043 551.475431 
L 481.233128 551.474327 
L 481.486902 551.471383 
L 481.752942 551.468194 
L 481.836838 551.467213 
L 482.227496 551.462675 
L 482.460419 551.459976 
L 482.582951 551.458504 
L 482.785456 551.456051 
L 482.828262 551.455683 
L 482.856473 551.455315 
L 482.942332 551.454334 
L 483.175255 551.451636 
L 483.209721 551.451145 
L 484.065488 551.440719 
L 484.333858 551.43753 
L 485.058384 551.428699 
L 486.894904 551.407234 
L 490.575059 551.363201 
L 490.632952 551.362588 
L 490.92659 551.359153 
L 493.333949 551.331065 
L 494.691131 551.314752 
L 494.997034 551.311195 
L 496.099094 551.297948 
L 496.841159 551.288994 
L 497.2209 551.284456 
L 497.904091 551.276361 
L 498.669216 551.267162 
L 499.045401 551.262624 
L 499.776795 551.253792 
L 501.246453 551.236989 
L 501.553092 551.233186 
L 501.614542 551.23245 
L 503.482462 551.208164 
L 505.333456 551.184124 
L 505.714301 551.179218 
L 506.52763 551.168915 
L 506.899644 551.164131 
L 507.657164 551.154319 
L 508.021941 551.149535 
L 509.859933 551.12942 
L 510.411392 551.122551 
L 510.921516 551.11605 
L 511.558098 551.108078 
L 512.152855 551.100228 
" clip-path="url(#p3b456a6c65)" style="fill: #d3d3d3"/>
   </g>
   <g id="PatchCollection_2">
    <path d="M 405.083666 485.429243 
L 405.083666 485.306588 
L 404.961011 485.306588 
L 404.961011 485.429243 
L 405.083666 485.429243 
" clip-path="url(#p3b456a6c65)" style="fill: #ff0000; fill-opacity: 0.7; stroke: #000000; stroke-opacity: 0.7; stroke-width: 0.5"/>
    <path d="M 390.089388 445.31729 
L 390.089388 445.194635 
L 389.966733 445.194635 
L 389.966733 445.31729 
L 390.089388 445.31729 
" clip-path="url(#p3b456a6c65)" style="fill: #ff0000; fill-opacity: 0.7; stroke: #000000; stroke-opacity: 0.7; stroke-width: 0.5"/>
    <path d="M 407.74827 494.449171 
L 407.74827 494.326516 
L 407.625615 494.326516 
L 407.625615 494.449171 
L 407.74827 494.449171 
" clip-path="url(#p3b456a6c65)" style="fill: #ff0000; fill-opacity: 0.7; stroke: #000000; stroke-opacity: 0.7; stroke-width: 0.5"/>
    <path d="M 398.952737 464.674401 
L 398.952737 464.551745 
L 398.830082 464.551745 
L 398.830082 464.674401 
L 398.952737 464.674401 
" clip-path="url(#p3b456a6c65)" style="fill: #ff0000; fill-opacity: 0.7; stroke: #000000; stroke-opacity: 0.7; stroke-width: 0.5"/>
    <path d="M 398.879906 464.304703 
L 398.879906 464.182047 
L 398.757251 464.182047 
L 398.757251 464.304703 
L 398.879906 464.304703 
" clip-path="url(#p3b456a6c65)" style="fill: #ff0000; fill-opacity: 0.7; stroke: #000000; stroke-opacity: 0.7; stroke-width: 0.5"/>
    <path d="M 230.348371 168.740043 
L 230.348371 168.617388 
L 230.225715 168.617388 
L 230.225715 168.740043 
L 230.348371 168.740043 
" clip-path="url(#p3b456a6c65)" style="fill: #ff0000; fill-opacity: 0.7; stroke: #000000; stroke-opacity: 0.7; stroke-width: 0.5"/>
    <path d="M 312.790012 462.821735 
L 312.790012 462.69908 
L 312.667356 462.69908 
L 312.667356 462.821735 
L 312.790012 462.821735 
" clip-path="url(#p3b456a6c65)" style="fill: #ff0000; fill-opacity: 0.7; stroke: #000000; stroke-opacity: 0.7; stroke-width: 0.5"/>
    <path d="M 410.590942 505.856491 
L 410.590942 505.733836 
L 410.468287 505.733836 
L 410.468287 505.856491 
L 410.590942 505.856491 
" clip-path="url(#p3b456a6c65)" style="fill: #ff0000; fill-opacity: 0.7; stroke: #000000; stroke-opacity: 0.7; stroke-width: 0.5"/>
    <path d="M 415.049791 501.999931 
L 415.049791 501.877276 
L 414.927135 501.877276 
L 414.927135 501.999931 
L 415.049791 501.999931 
" clip-path="url(#p3b456a6c65)" style="fill: #ff0000; fill-opacity: 0.7; stroke: #000000; stroke-opacity: 0.7; stroke-width: 0.5"/>
    <path d="M 479.620918 511.298882 
L 479.620918 511.176227 
L 479.498262 511.176227 
L 479.498262 511.298882 
L 479.620918 511.298882 
" clip-path="url(#p3b456a6c65)" style="fill: #ff0000; fill-opacity: 0.7; stroke: #000000; stroke-opacity: 0.7; stroke-width: 0.5"/>
    <path d="M 396.564289 460.879396 
L 396.564289 460.756741 
L 396.441633 460.756741 
L 396.441633 460.879396 
L 396.564289 460.879396 
" clip-path="url(#p3b456a6c65)" style="fill: #ff0000; fill-opacity: 0.7; stroke: #000000; stroke-opacity: 0.7; stroke-width: 0.5"/>
    <path d="M 398.952737 464.674401 
L 398.952737 464.551745 
L 398.830082 464.551745 
L 398.830082 464.674401 
L 398.952737 464.674401 
" clip-path="url(#p3b456a6c65)" style="fill: #ff0000; fill-opacity: 0.7; stroke: #000000; stroke-opacity: 0.7; stroke-width: 0.5"/>
    <path d="M 543.681312 422.986512 
L 543.681312 422.863856 
L 543.558657 422.863856 
L 543.558657 422.986512 
L 543.681312 422.986512 
" clip-path="url(#p3b456a6c65)" style="fill: #ff0000; fill-opacity: 0.7; stroke: #000000; stroke-opacity: 0.7; stroke-width: 0.5"/>
    <path d="M 495.037897 401.893973 
L 495.037897 401.771318 
L 494.915242 401.771318 
L 494.915242 401.893973 
L 495.037897 401.893973 
" clip-path="url(#p3b456a6c65)" style="fill: #ff0000; fill-opacity: 0.7; stroke: #000000; stroke-opacity: 0.7; stroke-width: 0.5"/>
    <path d="M 304.324329 361.508041 
L 304.324329 361.385386 
L 304.201673 361.385386 
L 304.201673 361.508041 
L 304.324329 361.508041 
" clip-path="url(#p3b456a6c65)" style="fill: #ff0000; fill-opacity: 0.7; stroke: #000000; stroke-opacity: 0.7; stroke-width: 0.5"/>
    <path d="M 405.083794 485.429123 
L 405.083794 485.306468 
L 404.961138 485.306468 
L 404.961138 485.429123 
L 405.083794 485.429123 
" clip-path="url(#p3b456a6c65)" style="fill: #ff0000; fill-opacity: 0.7; stroke: #000000; stroke-opacity: 0.7; stroke-width: 0.5"/>
    <path d="M 404.279704 482.721838 
L 404.279704 482.599182 
L 404.157049 482.599182 
L 404.157049 482.721838 
L 404.279704 482.721838 
" clip-path="url(#p3b456a6c65)" style="fill: #ff0000; fill-opacity: 0.7; stroke: #000000; stroke-opacity: 0.7; stroke-width: 0.5"/>
    <path d="M 467.451814 497.753529 
L 467.451814 497.630874 
L 467.329158 497.630874 
L 467.329158 497.753529 
L 467.451814 497.753529 
" clip-path="url(#p3b456a6c65)" style="fill: #ff0000; fill-opacity: 0.7; stroke: #000000; stroke-opacity: 0.7; stroke-width: 0.5"/>
    <path d="M 426.624517 524.291524 
L 426.624517 524.168868 
L 426.501862 524.168868 
L 426.501862 524.291524 
L 426.624517 524.291524 
" clip-path="url(#p3b456a6c65)" style="fill: #ff0000; fill-opacity: 0.7; stroke: #000000; stroke-opacity: 0.7; stroke-width: 0.5"/>
    <path d="M 378.753864 360.653271 
L 378.753864 360.530616 
L 378.631208 360.530616 
L 378.631208 360.653271 
L 378.753864 360.653271 
" clip-path="url(#p3b456a6c65)" style="fill: #ff0000; fill-opacity: 0.7; stroke: #000000; stroke-opacity: 0.7; stroke-width: 0.5"/>
    <path d="M 429.080209 527.980714 
L 429.080209 527.858058 
L 428.957554 527.858058 
L 428.957554 527.980714 
L 429.080209 527.980714 
" clip-path="url(#p3b456a6c65)" style="fill: #ff0000; fill-opacity: 0.7; stroke: #000000; stroke-opacity: 0.7; stroke-width: 0.5"/>
    <path d="M 130.645114 506.128601 
L 130.645114 506.005945 
L 130.522459 506.005945 
L 130.522459 506.128601 
L 130.645114 506.128601 
" clip-path="url(#p3b456a6c65)" style="fill: #ff0000; fill-opacity: 0.7; stroke: #000000; stroke-opacity: 0.7; stroke-width: 0.5"/>
    <path d="M 525.123547 505.505111 
L 525.123547 505.382455 
L 525.000892 505.382455 
L 525.000892 505.505111 
L 525.123547 505.505111 
" clip-path="url(#p3b456a6c65)" style="fill: #ff0000; fill-opacity: 0.7; stroke: #000000; stroke-opacity: 0.7; stroke-width: 0.5"/>
    <path d="M 546.694253 406.960342 
L 546.694253 406.837686 
L 546.571597 406.837686 
L 546.571597 406.960342 
L 546.694253 406.960342 
" clip-path="url(#p3b456a6c65)" style="fill: #ff0000; fill-opacity: 0.7; stroke: #000000; stroke-opacity: 0.7; stroke-width: 0.5"/>
    <path d="M 269.581818 296.192481 
L 269.581818 296.069825 
L 269.459162 296.069825 
L 269.459162 296.192481 
L 269.581818 296.192481 
" clip-path="url(#p3b456a6c65)" style="fill: #ff0000; fill-opacity: 0.7; stroke: #000000; stroke-opacity: 0.7; stroke-width: 0.5"/>
    <path d="M 372.31887 378.398914 
L 372.31887 378.276259 
L 372.196214 378.276259 
L 372.196214 378.398914 
L 372.31887 378.398914 
" clip-path="url(#p3b456a6c65)" style="fill: #ff0000; fill-opacity: 0.7; stroke: #000000; stroke-opacity: 0.7; stroke-width: 0.5"/>
    <path d="M 421.819791 507.50446 
L 421.819791 507.381805 
L 421.697136 507.381805 
L 421.697136 507.50446 
L 421.819791 507.50446 
" clip-path="url(#p3b456a6c65)" style="fill: #ff0000; fill-opacity: 0.7; stroke: #000000; stroke-opacity: 0.7; stroke-width: 0.5"/>
    <path d="M 457.521229 349.673979 
L 457.521229 349.551323 
L 457.398573 349.551323 
L 457.398573 349.673979 
L 457.521229 349.673979 
" clip-path="url(#p3b456a6c65)" style="fill: #ff0000; fill-opacity: 0.7; stroke: #000000; stroke-opacity: 0.7; stroke-width: 0.5"/>
    <path d="M 417.423612 268.658183 
L 417.423612 268.535528 
L 417.300956 268.535528 
L 417.300956 268.658183 
L 417.423612 268.658183 
" clip-path="url(#p3b456a6c65)" style="fill: #ff0000; fill-opacity: 0.7; stroke: #000000; stroke-opacity: 0.7; stroke-width: 0.5"/>
    <path d="M 467.451814 497.753529 
L 467.451814 497.630874 
L 467.329158 497.630874 
L 467.329158 497.753529 
L 467.451814 497.753529 
" clip-path="url(#p3b456a6c65)" style="fill: #ff0000; fill-opacity: 0.7; stroke: #000000; stroke-opacity: 0.7; stroke-width: 0.5"/>
    <path d="M 321.040656 449.585177 
L 321.040656 449.462521 
L 320.918 449.462521 
L 320.918 449.585177 
L 321.040656 449.585177 
" clip-path="url(#p3b456a6c65)" style="fill: #ff0000; fill-opacity: 0.7; stroke: #000000; stroke-opacity: 0.7; stroke-width: 0.5"/>
    <path d="M 423.238267 512.069381 
L 423.238267 511.946725 
L 423.115611 511.946725 
L 423.115611 512.069381 
L 423.238267 512.069381 
" clip-path="url(#p3b456a6c65)" style="fill: #ff0000; fill-opacity: 0.7; stroke: #000000; stroke-opacity: 0.7; stroke-width: 0.5"/>
    <path d="M 429.080209 527.980714 
L 429.080209 527.858058 
L 428.957554 527.858058 
L 428.957554 527.980714 
L 429.080209 527.980714 
" clip-path="url(#p3b456a6c65)" style="fill: #ff0000; fill-opacity: 0.7; stroke: #000000; stroke-opacity: 0.7; stroke-width: 0.5"/>
    <path d="M 263.898174 464.540949 
L 263.898174 464.418293 
L 263.775519 464.418293 
L 263.775519 464.540949 
L 263.898174 464.540949 
" clip-path="url(#p3b456a6c65)" style="fill: #ff0000; fill-opacity: 0.7; stroke: #000000; stroke-opacity: 0.7; stroke-width: 0.5"/>
    <path d="M 517.904449 545.430447 
L 517.904449 545.307791 
L 517.781793 545.307791 
L 517.781793 545.430447 
L 517.904449 545.430447 
" clip-path="url(#p3b456a6c65)" style="fill: #ff0000; fill-opacity: 0.7; stroke: #000000; stroke-opacity: 0.7; stroke-width: 0.5"/>
    <path d="M 405.083794 485.429123 
L 405.083794 485.306468 
L 404.961138 485.306468 
L 404.961138 485.429123 
L 405.083794 485.429123 
" clip-path="url(#p3b456a6c65)" style="fill: #ff0000; fill-opacity: 0.7; stroke: #000000; stroke-opacity: 0.7; stroke-width: 0.5"/>
    <path d="M 411.561349 513.510497 
L 411.561349 513.387842 
L 411.438694 513.387842 
L 411.438694 513.510497 
L 411.561349 513.510497 
" clip-path="url(#p3b456a6c65)" style="fill: #ff0000; fill-opacity: 0.7; stroke: #000000; stroke-opacity: 0.7; stroke-width: 0.5"/>
    <path d="M 304.324329 361.508041 
L 304.324329 361.385386 
L 304.201673 361.385386 
L 304.201673 361.508041 
L 304.324329 361.508041 
" clip-path="url(#p3b456a6c65)" style="fill: #ff0000; fill-opacity: 0.7; stroke: #000000; stroke-opacity: 0.7; stroke-width: 0.5"/>
    <path d="M 393.050509 450.835852 
L 393.050509 450.713196 
L 392.927853 450.713196 
L 392.927853 450.835852 
L 393.050509 450.835852 
" clip-path="url(#p3b456a6c65)" style="fill: #ff0000; fill-opacity: 0.7; stroke: #000000; stroke-opacity: 0.7; stroke-width: 0.5"/>
    <path d="M 415.049918 501.999812 
L 415.049918 501.877156 
L 414.927263 501.877156 
L 414.927263 501.999812 
L 415.049918 501.999812 
" clip-path="url(#p3b456a6c65)" style="fill: #ff0000; fill-opacity: 0.7; stroke: #000000; stroke-opacity: 0.7; stroke-width: 0.5"/>
    <path d="M 369.639956 359.795044 
L 369.639956 359.672389 
L 369.517301 359.672389 
L 369.517301 359.795044 
L 369.639956 359.795044 
" clip-path="url(#p3b456a6c65)" style="fill: #ff0000; fill-opacity: 0.7; stroke: #000000; stroke-opacity: 0.7; stroke-width: 0.5"/>
   </g>
   <g id="matplotlib.axis_1">
    <g id="xtick_1">
     <g id="line2d_1">
      <defs>
       <path id="mcaca79a53a" d="M 0 0 
L 0 3.5 
" style="stroke: #000000; stroke-width: 0.8"/>
      </defs>
      <g>
       <use xlink:href="#mcaca79a53a" x="152.545293" y="605.635891" style="stroke: #000000; stroke-width: 0.8"/>
      </g>
     </g>
     <g id="text_1">
      <!-- 387000 -->
      <g transform="translate(133.457793 620.234329) scale(0.1 -0.1)">
       <defs>
        <path id="DejaVuSans-33" d="M 2597 2516 
Q 3050 2419 3304 2112 
Q 3559 1806 3559 1356 
Q 3559 666 3084 287 
Q 2609 -91 1734 -91 
Q 1441 -91 1130 -33 
Q 819 25 488 141 
L 488 750 
Q 750 597 1062 519 
Q 1375 441 1716 441 
Q 2309 441 2620 675 
Q 2931 909 2931 1356 
Q 2931 1769 2642 2001 
Q 2353 2234 1838 2234 
L 1294 2234 
L 1294 2753 
L 1863 2753 
Q 2328 2753 2575 2939 
Q 2822 3125 2822 3475 
Q 2822 3834 2567 4026 
Q 2313 4219 1838 4219 
Q 1578 4219 1281 4162 
Q 984 4106 628 3988 
L 628 4550 
Q 988 4650 1302 4700 
Q 1616 4750 1894 4750 
Q 2613 4750 3031 4423 
Q 3450 4097 3450 3541 
Q 3450 3153 3228 2886 
Q 3006 2619 2597 2516 
z
" transform="scale(0.015625)"/>
        <path id="DejaVuSans-38" d="M 2034 2216 
Q 1584 2216 1326 1975 
Q 1069 1734 1069 1313 
Q 1069 891 1326 650 
Q 1584 409 2034 409 
Q 2484 409 2743 651 
Q 3003 894 3003 1313 
Q 3003 1734 2745 1975 
Q 2488 2216 2034 2216 
z
M 1403 2484 
Q 997 2584 770 2862 
Q 544 3141 544 3541 
Q 544 4100 942 4425 
Q 1341 4750 2034 4750 
Q 2731 4750 3128 4425 
Q 3525 4100 3525 3541 
Q 3525 3141 3298 2862 
Q 3072 2584 2669 2484 
Q 3125 2378 3379 2068 
Q 3634 1759 3634 1313 
Q 3634 634 3220 271 
Q 2806 -91 2034 -91 
Q 1263 -91 848 271 
Q 434 634 434 1313 
Q 434 1759 690 2068 
Q 947 2378 1403 2484 
z
M 1172 3481 
Q 1172 3119 1398 2916 
Q 1625 2713 2034 2713 
Q 2441 2713 2670 2916 
Q 2900 3119 2900 3481 
Q 2900 3844 2670 4047 
Q 2441 4250 2034 4250 
Q 1625 4250 1398 4047 
Q 1172 3844 1172 3481 
z
" transform="scale(0.015625)"/>
        <path id="DejaVuSans-37" d="M 525 4666 
L 3525 4666 
L 3525 4397 
L 1831 0 
L 1172 0 
L 2766 4134 
L 525 4134 
L 525 4666 
z
" transform="scale(0.015625)"/>
        <path id="DejaVuSans-30" d="M 2034 4250 
Q 1547 4250 1301 3770 
Q 1056 3291 1056 2328 
Q 1056 1369 1301 889 
Q 1547 409 2034 409 
Q 2525 409 2770 889 
Q 3016 1369 3016 2328 
Q 3016 3291 2770 3770 
Q 2525 4250 2034 4250 
z
M 2034 4750 
Q 2819 4750 3233 4129 
Q 3647 3509 3647 2328 
Q 3647 1150 3233 529 
Q 2819 -91 2034 -91 
Q 1250 -91 836 529 
Q 422 1150 422 2328 
Q 422 3509 836 4129 
Q 1250 4750 2034 4750 
z
" transform="scale(0.015625)"/>
       </defs>
       <use xlink:href="#DejaVuSans-33"/>
       <use xlink:href="#DejaVuSans-38" x="63.623047"/>
       <use xlink:href="#DejaVuSans-37" x="127.246094"/>
       <use xlink:href="#DejaVuSans-30" x="190.869141"/>
       <use xlink:href="#DejaVuSans-30" x="254.492188"/>
       <use xlink:href="#DejaVuSans-30" x="318.115234"/>
      </g>
     </g>
    </g>
    <g id="xtick_2">
     <g id="line2d_2">
      <g>
       <use xlink:href="#mcaca79a53a" x="275.200763" y="605.635891" style="stroke: #000000; stroke-width: 0.8"/>
      </g>
     </g>
     <g id="text_2">
      <!-- 388000 -->
      <g transform="translate(256.113263 620.234329) scale(0.1 -0.1)">
       <use xlink:href="#DejaVuSans-33"/>
       <use xlink:href="#DejaVuSans-38" x="63.623047"/>
       <use xlink:href="#DejaVuSans-38" x="127.246094"/>
       <use xlink:href="#DejaVuSans-30" x="190.869141"/>
       <use xlink:href="#DejaVuSans-30" x="254.492188"/>
       <use xlink:href="#DejaVuSans-30" x="318.115234"/>
      </g>
     </g>
    </g>
    <g id="xtick_3">
     <g id="line2d_3">
      <g>
       <use xlink:href="#mcaca79a53a" x="397.856232" y="605.635891" style="stroke: #000000; stroke-width: 0.8"/>
      </g>
     </g>
     <g id="text_3">
      <!-- 389000 -->
      <g transform="translate(378.768732 620.234329) scale(0.1 -0.1)">
       <defs>
        <path id="DejaVuSans-39" d="M 703 97 
L 703 672 
Q 941 559 1184 500 
Q 1428 441 1663 441 
Q 2288 441 2617 861 
Q 2947 1281 2994 2138 
Q 2813 1869 2534 1725 
Q 2256 1581 1919 1581 
Q 1219 1581 811 2004 
Q 403 2428 403 3163 
Q 403 3881 828 4315 
Q 1253 4750 1959 4750 
Q 2769 4750 3195 4129 
Q 3622 3509 3622 2328 
Q 3622 1225 3098 567 
Q 2575 -91 1691 -91 
Q 1453 -91 1209 -44 
Q 966 3 703 97 
z
M 1959 2075 
Q 2384 2075 2632 2365 
Q 2881 2656 2881 3163 
Q 2881 3666 2632 3958 
Q 2384 4250 1959 4250 
Q 1534 4250 1286 3958 
Q 1038 3666 1038 3163 
Q 1038 2656 1286 2365 
Q 1534 2075 1959 2075 
z
" transform="scale(0.015625)"/>
       </defs>
       <use xlink:href="#DejaVuSans-33"/>
       <use xlink:href="#DejaVuSans-38" x="63.623047"/>
       <use xlink:href="#DejaVuSans-39" x="127.246094"/>
       <use xlink:href="#DejaVuSans-30" x="190.869141"/>
       <use xlink:href="#DejaVuSans-30" x="254.492188"/>
       <use xlink:href="#DejaVuSans-30" x="318.115234"/>
      </g>
     </g>
    </g>
    <g id="xtick_4">
     <g id="line2d_4">
      <g>
       <use xlink:href="#mcaca79a53a" x="520.511702" y="605.635891" style="stroke: #000000; stroke-width: 0.8"/>
      </g>
     </g>
     <g id="text_4">
      <!-- 390000 -->
      <g transform="translate(501.424202 620.234329) scale(0.1 -0.1)">
       <use xlink:href="#DejaVuSans-33"/>
       <use xlink:href="#DejaVuSans-39" x="63.623047"/>
       <use xlink:href="#DejaVuSans-30" x="127.246094"/>
       <use xlink:href="#DejaVuSans-30" x="190.869141"/>
       <use xlink:href="#DejaVuSans-30" x="254.492188"/>
       <use xlink:href="#DejaVuSans-30" x="318.115234"/>
      </g>
     </g>
    </g>
    <g id="xtick_5">
     <g id="line2d_5">
      <g>
       <use xlink:href="#mcaca79a53a" x="643.167172" y="605.635891" style="stroke: #000000; stroke-width: 0.8"/>
      </g>
     </g>
     <g id="text_5">
      <!-- 391000 -->
      <g transform="translate(624.079672 620.234329) scale(0.1 -0.1)">
       <defs>
        <path id="DejaVuSans-31" d="M 794 531 
L 1825 531 
L 1825 4091 
L 703 3866 
L 703 4441 
L 1819 4666 
L 2450 4666 
L 2450 531 
L 3481 531 
L 3481 0 
L 794 0 
L 794 531 
z
" transform="scale(0.015625)"/>
       </defs>
       <use xlink:href="#DejaVuSans-33"/>
       <use xlink:href="#DejaVuSans-39" x="63.623047"/>
       <use xlink:href="#DejaVuSans-31" x="127.246094"/>
       <use xlink:href="#DejaVuSans-30" x="190.869141"/>
       <use xlink:href="#DejaVuSans-30" x="254.492188"/>
       <use xlink:href="#DejaVuSans-30" x="318.115234"/>
      </g>
     </g>
    </g>
   </g>
   <g id="matplotlib.axis_2">
    <g id="ytick_1">
     <g id="line2d_6">
      <defs>
       <path id="mf77b5a4734" d="M 0 0 
L -3.5 0 
" style="stroke: #000000; stroke-width: 0.8"/>
      </defs>
      <g>
       <use xlink:href="#mf77b5a4734" x="90" y="567.961077" style="stroke: #000000; stroke-width: 0.8"/>
      </g>
     </g>
     <g id="text_6">
      <!-- 5.8245 -->
      <g transform="translate(48.009375 571.760296) scale(0.1 -0.1)">
       <defs>
        <path id="DejaVuSans-35" d="M 691 4666 
L 3169 4666 
L 3169 4134 
L 1269 4134 
L 1269 2991 
Q 1406 3038 1543 3061 
Q 1681 3084 1819 3084 
Q 2600 3084 3056 2656 
Q 3513 2228 3513 1497 
Q 3513 744 3044 326 
Q 2575 -91 1722 -91 
Q 1428 -91 1123 -41 
Q 819 9 494 109 
L 494 744 
Q 775 591 1075 516 
Q 1375 441 1709 441 
Q 2250 441 2565 725 
Q 2881 1009 2881 1497 
Q 2881 1984 2565 2268 
Q 2250 2553 1709 2553 
Q 1456 2553 1204 2497 
Q 953 2441 691 2322 
L 691 4666 
z
" transform="scale(0.015625)"/>
        <path id="DejaVuSans-2e" d="M 684 794 
L 1344 794 
L 1344 0 
L 684 0 
L 684 794 
z
" transform="scale(0.015625)"/>
        <path id="DejaVuSans-32" d="M 1228 531 
L 3431 531 
L 3431 0 
L 469 0 
L 469 531 
Q 828 903 1448 1529 
Q 2069 2156 2228 2338 
Q 2531 2678 2651 2914 
Q 2772 3150 2772 3378 
Q 2772 3750 2511 3984 
Q 2250 4219 1831 4219 
Q 1534 4219 1204 4116 
Q 875 4013 500 3803 
L 500 4441 
Q 881 4594 1212 4672 
Q 1544 4750 1819 4750 
Q 2544 4750 2975 4387 
Q 3406 4025 3406 3419 
Q 3406 3131 3298 2873 
Q 3191 2616 2906 2266 
Q 2828 2175 2409 1742 
Q 1991 1309 1228 531 
z
" transform="scale(0.015625)"/>
        <path id="DejaVuSans-34" d="M 2419 4116 
L 825 1625 
L 2419 1625 
L 2419 4116 
z
M 2253 4666 
L 3047 4666 
L 3047 1625 
L 3713 1625 
L 3713 1100 
L 3047 1100 
L 3047 0 
L 2419 0 
L 2419 1100 
L 313 1100 
L 313 1709 
L 2253 4666 
z
" transform="scale(0.015625)"/>
       </defs>
       <use xlink:href="#DejaVuSans-35"/>
       <use xlink:href="#DejaVuSans-2e" x="63.623047"/>
       <use xlink:href="#DejaVuSans-38" x="95.410156"/>
       <use xlink:href="#DejaVuSans-32" x="159.033203"/>
       <use xlink:href="#DejaVuSans-34" x="222.65625"/>
       <use xlink:href="#DejaVuSans-35" x="286.279297"/>
      </g>
     </g>
    </g>
    <g id="ytick_2">
     <g id="line2d_7">
      <g>
       <use xlink:href="#mf77b5a4734" x="90" y="506.633342" style="stroke: #000000; stroke-width: 0.8"/>
      </g>
     </g>
     <g id="text_7">
      <!-- 5.8250 -->
      <g transform="translate(48.009375 510.432561) scale(0.1 -0.1)">
       <use xlink:href="#DejaVuSans-35"/>
       <use xlink:href="#DejaVuSans-2e" x="63.623047"/>
       <use xlink:href="#DejaVuSans-38" x="95.410156"/>
       <use xlink:href="#DejaVuSans-32" x="159.033203"/>
       <use xlink:href="#DejaVuSans-35" x="222.65625"/>
       <use xlink:href="#DejaVuSans-30" x="286.279297"/>
      </g>
     </g>
    </g>
    <g id="ytick_3">
     <g id="line2d_8">
      <g>
       <use xlink:href="#mf77b5a4734" x="90" y="445.305607" style="stroke: #000000; stroke-width: 0.8"/>
      </g>
     </g>
     <g id="text_8">
      <!-- 5.8255 -->
      <g transform="translate(48.009375 449.104826) scale(0.1 -0.1)">
       <use xlink:href="#DejaVuSans-35"/>
       <use xlink:href="#DejaVuSans-2e" x="63.623047"/>
       <use xlink:href="#DejaVuSans-38" x="95.410156"/>
       <use xlink:href="#DejaVuSans-32" x="159.033203"/>
       <use xlink:href="#DejaVuSans-35" x="222.65625"/>
       <use xlink:href="#DejaVuSans-35" x="286.279297"/>
      </g>
     </g>
    </g>
    <g id="ytick_4">
     <g id="line2d_9">
      <g>
       <use xlink:href="#mf77b5a4734" x="90" y="383.977872" style="stroke: #000000; stroke-width: 0.8"/>
      </g>
     </g>
     <g id="text_9">
      <!-- 5.8260 -->
      <g transform="translate(48.009375 387.777091) scale(0.1 -0.1)">
       <defs>
        <path id="DejaVuSans-36" d="M 2113 2584 
Q 1688 2584 1439 2293 
Q 1191 2003 1191 1497 
Q 1191 994 1439 701 
Q 1688 409 2113 409 
Q 2538 409 2786 701 
Q 3034 994 3034 1497 
Q 3034 2003 2786 2293 
Q 2538 2584 2113 2584 
z
M 3366 4563 
L 3366 3988 
Q 3128 4100 2886 4159 
Q 2644 4219 2406 4219 
Q 1781 4219 1451 3797 
Q 1122 3375 1075 2522 
Q 1259 2794 1537 2939 
Q 1816 3084 2150 3084 
Q 2853 3084 3261 2657 
Q 3669 2231 3669 1497 
Q 3669 778 3244 343 
Q 2819 -91 2113 -91 
Q 1303 -91 875 529 
Q 447 1150 447 2328 
Q 447 3434 972 4092 
Q 1497 4750 2381 4750 
Q 2619 4750 2861 4703 
Q 3103 4656 3366 4563 
z
" transform="scale(0.015625)"/>
       </defs>
       <use xlink:href="#DejaVuSans-35"/>
       <use xlink:href="#DejaVuSans-2e" x="63.623047"/>
       <use xlink:href="#DejaVuSans-38" x="95.410156"/>
       <use xlink:href="#DejaVuSans-32" x="159.033203"/>
       <use xlink:href="#DejaVuSans-36" x="222.65625"/>
       <use xlink:href="#DejaVuSans-30" x="286.279297"/>
      </g>
     </g>
    </g>
    <g id="ytick_5">
     <g id="line2d_10">
      <g>
       <use xlink:href="#mf77b5a4734" x="90" y="322.650137" style="stroke: #000000; stroke-width: 0.8"/>
      </g>
     </g>
     <g id="text_10">
      <!-- 5.8265 -->
      <g transform="translate(48.009375 326.449356) scale(0.1 -0.1)">
       <use xlink:href="#DejaVuSans-35"/>
       <use xlink:href="#DejaVuSans-2e" x="63.623047"/>
       <use xlink:href="#DejaVuSans-38" x="95.410156"/>
       <use xlink:href="#DejaVuSans-32" x="159.033203"/>
       <use xlink:href="#DejaVuSans-36" x="222.65625"/>
       <use xlink:href="#DejaVuSans-35" x="286.279297"/>
      </g>
     </g>
    </g>
    <g id="ytick_6">
     <g id="line2d_11">
      <g>
       <use xlink:href="#mf77b5a4734" x="90" y="261.322402" style="stroke: #000000; stroke-width: 0.8"/>
      </g>
     </g>
     <g id="text_11">
      <!-- 5.8270 -->
      <g transform="translate(48.009375 265.121621) scale(0.1 -0.1)">
       <use xlink:href="#DejaVuSans-35"/>
       <use xlink:href="#DejaVuSans-2e" x="63.623047"/>
       <use xlink:href="#DejaVuSans-38" x="95.410156"/>
       <use xlink:href="#DejaVuSans-32" x="159.033203"/>
       <use xlink:href="#DejaVuSans-37" x="222.65625"/>
       <use xlink:href="#DejaVuSans-30" x="286.279297"/>
      </g>
     </g>
    </g>
    <g id="ytick_7">
     <g id="line2d_12">
      <g>
       <use xlink:href="#mf77b5a4734" x="90" y="199.994668" style="stroke: #000000; stroke-width: 0.8"/>
      </g>
     </g>
     <g id="text_12">
      <!-- 5.8275 -->
      <g transform="translate(48.009375 203.793886) scale(0.1 -0.1)">
       <use xlink:href="#DejaVuSans-35"/>
       <use xlink:href="#DejaVuSans-2e" x="63.623047"/>
       <use xlink:href="#DejaVuSans-38" x="95.410156"/>
       <use xlink:href="#DejaVuSans-32" x="159.033203"/>
       <use xlink:href="#DejaVuSans-37" x="222.65625"/>
       <use xlink:href="#DejaVuSans-35" x="286.279297"/>
      </g>
     </g>
    </g>
    <g id="ytick_8">
     <g id="line2d_13">
      <g>
       <use xlink:href="#mf77b5a4734" x="90" y="138.666933" style="stroke: #000000; stroke-width: 0.8"/>
      </g>
     </g>
     <g id="text_13">
      <!-- 5.8280 -->
      <g transform="translate(48.009375 142.466151) scale(0.1 -0.1)">
       <use xlink:href="#DejaVuSans-35"/>
       <use xlink:href="#DejaVuSans-2e" x="63.623047"/>
       <use xlink:href="#DejaVuSans-38" x="95.410156"/>
       <use xlink:href="#DejaVuSans-32" x="159.033203"/>
       <use xlink:href="#DejaVuSans-38" x="222.65625"/>
       <use xlink:href="#DejaVuSans-30" x="286.279297"/>
      </g>
     </g>
    </g>
    <g id="text_14">
     <!-- 1e6 -->
     <g transform="translate(90 118.564109) scale(0.1 -0.1)">
      <defs>
       <path id="DejaVuSans-65" d="M 3597 1894 
L 3597 1613 
L 953 1613 
Q 991 1019 1311 708 
Q 1631 397 2203 397 
Q 2534 397 2845 478 
Q 3156 559 3463 722 
L 3463 178 
Q 3153 47 2828 -22 
Q 2503 -91 2169 -91 
Q 1331 -91 842 396 
Q 353 884 353 1716 
Q 353 2575 817 3079 
Q 1281 3584 2069 3584 
Q 2775 3584 3186 3129 
Q 3597 2675 3597 1894 
z
M 3022 2063 
Q 3016 2534 2758 2815 
Q 2500 3097 2075 3097 
Q 1594 3097 1305 2825 
Q 1016 2553 972 2059 
L 3022 2063 
z
" transform="scale(0.015625)"/>
      </defs>
      <use xlink:href="#DejaVuSans-31"/>
      <use xlink:href="#DejaVuSans-65" x="63.623047"/>
      <use xlink:href="#DejaVuSans-36" x="125.146484"/>
     </g>
    </g>
   </g>
   <g id="patch_3">
    <path d="M 90 605.635891 
L 90 121.564109 
" style="fill: none; stroke: #000000; stroke-width: 0.8; stroke-linejoin: miter; stroke-linecap: square"/>
   </g>
   <g id="patch_4">
    <path d="M 648 605.635891 
L 648 121.564109 
" style="fill: none; stroke: #000000; stroke-width: 0.8; stroke-linejoin: miter; stroke-linecap: square"/>
   </g>
   <g id="patch_5">
    <path d="M 90 605.635891 
L 648 605.635891 
" style="fill: none; stroke: #000000; stroke-width: 0.8; stroke-linejoin: miter; stroke-linecap: square"/>
   </g>
   <g id="patch_6">
    <path d="M 90 121.564109 
L 648 121.564109 
" style="fill: none; stroke: #000000; stroke-width: 0.8; stroke-linejoin: miter; stroke-linecap: square"/>
   </g>
   <g id="text_15">
    <!-- Reinickendorf_Ost -->
    <g transform="translate(289.607227 394.193892) scale(0.12 -0.12)">
     <defs>
      <path id="DejaVuSans-52" d="M 2841 2188 
Q 3044 2119 3236 1894 
Q 3428 1669 3622 1275 
L 4263 0 
L 3584 0 
L 2988 1197 
Q 2756 1666 2539 1819 
Q 2322 1972 1947 1972 
L 1259 1972 
L 1259 0 
L 628 0 
L 628 4666 
L 2053 4666 
Q 2853 4666 3247 4331 
Q 3641 3997 3641 3322 
Q 3641 2881 3436 2590 
Q 3231 2300 2841 2188 
z
M 1259 4147 
L 1259 2491 
L 2053 2491 
Q 2509 2491 2742 2702 
Q 2975 2913 2975 3322 
Q 2975 3731 2742 3939 
Q 2509 4147 2053 4147 
L 1259 4147 
z
" transform="scale(0.015625)"/>
      <path id="DejaVuSans-69" d="M 603 3500 
L 1178 3500 
L 1178 0 
L 603 0 
L 603 3500 
z
M 603 4863 
L 1178 4863 
L 1178 4134 
L 603 4134 
L 603 4863 
z
" transform="scale(0.015625)"/>
      <path id="DejaVuSans-6e" d="M 3513 2113 
L 3513 0 
L 2938 0 
L 2938 2094 
Q 2938 2591 2744 2837 
Q 2550 3084 2163 3084 
Q 1697 3084 1428 2787 
Q 1159 2491 1159 1978 
L 1159 0 
L 581 0 
L 581 3500 
L 1159 3500 
L 1159 2956 
Q 1366 3272 1645 3428 
Q 1925 3584 2291 3584 
Q 2894 3584 3203 3211 
Q 3513 2838 3513 2113 
z
" transform="scale(0.015625)"/>
      <path id="DejaVuSans-63" d="M 3122 3366 
L 3122 2828 
Q 2878 2963 2633 3030 
Q 2388 3097 2138 3097 
Q 1578 3097 1268 2742 
Q 959 2388 959 1747 
Q 959 1106 1268 751 
Q 1578 397 2138 397 
Q 2388 397 2633 464 
Q 2878 531 3122 666 
L 3122 134 
Q 2881 22 2623 -34 
Q 2366 -91 2075 -91 
Q 1284 -91 818 406 
Q 353 903 353 1747 
Q 353 2603 823 3093 
Q 1294 3584 2113 3584 
Q 2378 3584 2631 3529 
Q 2884 3475 3122 3366 
z
" transform="scale(0.015625)"/>
      <path id="DejaVuSans-6b" d="M 581 4863 
L 1159 4863 
L 1159 1991 
L 2875 3500 
L 3609 3500 
L 1753 1863 
L 3688 0 
L 2938 0 
L 1159 1709 
L 1159 0 
L 581 0 
L 581 4863 
z
" transform="scale(0.015625)"/>
      <path id="DejaVuSans-64" d="M 2906 2969 
L 2906 4863 
L 3481 4863 
L 3481 0 
L 2906 0 
L 2906 525 
Q 2725 213 2448 61 
Q 2172 -91 1784 -91 
Q 1150 -91 751 415 
Q 353 922 353 1747 
Q 353 2572 751 3078 
Q 1150 3584 1784 3584 
Q 2172 3584 2448 3432 
Q 2725 3281 2906 2969 
z
M 947 1747 
Q 947 1113 1208 752 
Q 1469 391 1925 391 
Q 2381 391 2643 752 
Q 2906 1113 2906 1747 
Q 2906 2381 2643 2742 
Q 2381 3103 1925 3103 
Q 1469 3103 1208 2742 
Q 947 2381 947 1747 
z
" transform="scale(0.015625)"/>
      <path id="DejaVuSans-6f" d="M 1959 3097 
Q 1497 3097 1228 2736 
Q 959 2375 959 1747 
Q 959 1119 1226 758 
Q 1494 397 1959 397 
Q 2419 397 2687 759 
Q 2956 1122 2956 1747 
Q 2956 2369 2687 2733 
Q 2419 3097 1959 3097 
z
M 1959 3584 
Q 2709 3584 3137 3096 
Q 3566 2609 3566 1747 
Q 3566 888 3137 398 
Q 2709 -91 1959 -91 
Q 1206 -91 779 398 
Q 353 888 353 1747 
Q 353 2609 779 3096 
Q 1206 3584 1959 3584 
z
" transform="scale(0.015625)"/>
      <path id="DejaVuSans-72" d="M 2631 2963 
Q 2534 3019 2420 3045 
Q 2306 3072 2169 3072 
Q 1681 3072 1420 2755 
Q 1159 2438 1159 1844 
L 1159 0 
L 581 0 
L 581 3500 
L 1159 3500 
L 1159 2956 
Q 1341 3275 1631 3429 
Q 1922 3584 2338 3584 
Q 2397 3584 2469 3576 
Q 2541 3569 2628 3553 
L 2631 2963 
z
" transform="scale(0.015625)"/>
      <path id="DejaVuSans-66" d="M 2375 4863 
L 2375 4384 
L 1825 4384 
Q 1516 4384 1395 4259 
Q 1275 4134 1275 3809 
L 1275 3500 
L 2222 3500 
L 2222 3053 
L 1275 3053 
L 1275 0 
L 697 0 
L 697 3053 
L 147 3053 
L 147 3500 
L 697 3500 
L 697 3744 
Q 697 4328 969 4595 
Q 1241 4863 1831 4863 
L 2375 4863 
z
" transform="scale(0.015625)"/>
      <path id="DejaVuSans-5f" d="M 3263 -1063 
L 3263 -1509 
L -63 -1509 
L -63 -1063 
L 3263 -1063 
z
" transform="scale(0.015625)"/>
      <path id="DejaVuSans-4f" d="M 2522 4238 
Q 1834 4238 1429 3725 
Q 1025 3213 1025 2328 
Q 1025 1447 1429 934 
Q 1834 422 2522 422 
Q 3209 422 3611 934 
Q 4013 1447 4013 2328 
Q 4013 3213 3611 3725 
Q 3209 4238 2522 4238 
z
M 2522 4750 
Q 3503 4750 4090 4092 
Q 4678 3434 4678 2328 
Q 4678 1225 4090 567 
Q 3503 -91 2522 -91 
Q 1538 -91 948 565 
Q 359 1222 359 2328 
Q 359 3434 948 4092 
Q 1538 4750 2522 4750 
z
" transform="scale(0.015625)"/>
      <path id="DejaVuSans-73" d="M 2834 3397 
L 2834 2853 
Q 2591 2978 2328 3040 
Q 2066 3103 1784 3103 
Q 1356 3103 1142 2972 
Q 928 2841 928 2578 
Q 928 2378 1081 2264 
Q 1234 2150 1697 2047 
L 1894 2003 
Q 2506 1872 2764 1633 
Q 3022 1394 3022 966 
Q 3022 478 2636 193 
Q 2250 -91 1575 -91 
Q 1294 -91 989 -36 
Q 684 19 347 128 
L 347 722 
Q 666 556 975 473 
Q 1284 391 1588 391 
Q 1994 391 2212 530 
Q 2431 669 2431 922 
Q 2431 1156 2273 1281 
Q 2116 1406 1581 1522 
L 1381 1569 
Q 847 1681 609 1914 
Q 372 2147 372 2553 
Q 372 3047 722 3315 
Q 1072 3584 1716 3584 
Q 2034 3584 2315 3537 
Q 2597 3491 2834 3397 
z
" transform="scale(0.015625)"/>
      <path id="DejaVuSans-74" d="M 1172 4494 
L 1172 3500 
L 2356 3500 
L 2356 3053 
L 1172 3053 
L 1172 1153 
Q 1172 725 1289 603 
Q 1406 481 1766 481 
L 2356 481 
L 2356 0 
L 1766 0 
Q 1100 0 847 248 
Q 594 497 594 1153 
L 594 3053 
L 172 3053 
L 172 3500 
L 594 3500 
L 594 4494 
L 1172 4494 
z
" transform="scale(0.015625)"/>
     </defs>
     <use xlink:href="#DejaVuSans-52"/>
     <use xlink:href="#DejaVuSans-65" x="64.982422"/>
     <use xlink:href="#DejaVuSans-69" x="126.505859"/>
     <use xlink:href="#DejaVuSans-6e" x="154.289062"/>
     <use xlink:href="#DejaVuSans-69" x="217.667969"/>
     <use xlink:href="#DejaVuSans-63" x="245.451172"/>
     <use xlink:href="#DejaVuSans-6b" x="300.431641"/>
     <use xlink:href="#DejaVuSans-65" x="354.716797"/>
     <use xlink:href="#DejaVuSans-6e" x="416.240234"/>
     <use xlink:href="#DejaVuSans-64" x="479.619141"/>
     <use xlink:href="#DejaVuSans-6f" x="543.095703"/>
     <use xlink:href="#DejaVuSans-72" x="604.277344"/>
     <use xlink:href="#DejaVuSans-66" x="645.390625"/>
     <use xlink:href="#DejaVuSans-5f" x="680.595703"/>
     <use xlink:href="#DejaVuSans-4f" x="730.595703"/>
     <use xlink:href="#DejaVuSans-73" x="809.306641"/>
     <use xlink:href="#DejaVuSans-74" x="861.40625"/>
    </g>
   </g>
  </g>
 </g>
 <defs>
  <clipPath id="p3b456a6c65">
   <rect x="90" y="121.564109" width="558" height="484.071783"/>
  </clipPath>
 </defs>
</svg>
