<?xml version="1.0" encoding="utf-8" standalone="no"?>
<!DOCTYPE svg PUBLIC "-//W3C//DTD SVG 1.1//EN"
  "http://www.w3.org/Graphics/SVG/1.1/DTD/svg11.dtd">
<svg xmlns:xlink="http://www.w3.org/1999/xlink" width="720pt" height="720pt" viewBox="0 0 720 720" xmlns="http://www.w3.org/2000/svg" version="1.1">
 <metadata>
  <rdf:RDF xmlns:dc="http://purl.org/dc/elements/1.1/" xmlns:cc="http://creativecommons.org/ns#" xmlns:rdf="http://www.w3.org/1999/02/22-rdf-syntax-ns#">
   <cc:Work>
    <dc:type rdf:resource="http://purl.org/dc/dcmitype/StillImage"/>
    <dc:date>2024-10-15T13:01:14.272633</dc:date>
    <dc:format>image/svg+xml</dc:format>
    <dc:creator>
     <cc:Agent>
      <dc:title>Matplotlib v3.9.2, https://matplotlib.org/</dc:title>
     </cc:Agent>
    </dc:creator>
   </cc:Work>
  </rdf:RDF>
 </metadata>
 <defs>
  <style type="text/css">*{stroke-linejoin: round; stroke-linecap: butt}</style>
 </defs>
 <g id="figure_1">
  <g id="patch_1">
   <path d="M 0 720 
L 720 720 
L 720 0 
L 0 0 
z
" style="fill: #ffffff"/>
  </g>
  <g id="axes_1">
   <g id="patch_2">
    <path d="M 90 569.725012 
L 648 569.725012 
L 648 157.474988 
L 90 157.474988 
z
" style="fill: #ffffff"/>
   </g>
   <g id="PatchCollection_1">
    <path d="M 175.006115 177.751962 
L 174.071613 179.101755 
L 173.987753 179.222865 
L 173.764825 179.544936 
L 173.295091 180.224226 
L 172.786005 180.960251 
L 172.485138 181.395028 
L 172.317417 181.637631 
L 169.090407 186.296385 
L 168.642068 186.943583 
L 168.070325 187.769581 
L 168.010152 187.856498 
L 167.438028 188.682879 
L 166.973069 189.354337 
L 166.564655 189.944036 
L 165.812584 191.030212 
L 161.404074 197.395979 
L 160.73892 198.357033 
L 159.251588 200.504552 
L 158.546509 201.522724 
L 157.840475 202.542423 
L 157.382394 203.203757 
L 157.349919 203.250749 
L 156.913233 203.88171 
L 156.528697 204.437215 
L 155.325994 206.1746 
L 155.294666 206.220256 
L 155.174701 206.393708 
L 154.809267 206.921132 
L 151.502217 211.696985 
L 149.892819 214.021204 
L 148.775116 215.635282 
L 147.840621 216.984789 
L 147.650432 217.259424 
L 146.175634 219.389048 
L 145.403887 220.501586 
L 142.363892 224.885262 
L 140.695276 227.29105 
L 137.437892 232.004819 
L 137.352885 232.127649 
L 137.069784 232.536446 
L 127.928021 245.734847 
L 127.479682 246.382427 
L 125.057657 249.879167 
L 123.107277 252.695279 
L 122.684153 253.3058 
L 120.500147 256.459074 
L 119.914078 257.306658 
L 118.263227 259.693916 
L 117.625963 260.615428 
L 115.363636 265.16587 
L 119.105845 267.742435 
L 122.285099 269.931598 
L 125.751656 272.3307 
L 126.568868 272.895947 
L 127.057513 273.232536 
L 128.341593 274.116797 
L 132.1392 276.731377 
L 132.277694 276.826508 
L 133.132728 277.416207 
L 133.253075 277.499112 
L 133.900273 277.944968 
L 134.034947 278.037807 
L 134.827706 278.584143 
L 135.022936 278.718052 
L 137.854521 280.668433 
L 140.199562 282.283944 
L 139.818655 283.269449 
L 138.824745 285.840093 
L 139.779744 289.171202 
L 140.827084 292.824403 
L 139.664115 295.858094 
L 129.501506 322.365884 
L 128.338155 325.400339 
L 126.786829 330.237512 
L 126.675078 330.690054 
L 125.440092 335.707937 
L 124.669491 335.50927 
L 124.025923 338.115826 
L 122.800297 343.112315 
L 121.560726 348.125804 
L 120.320391 353.143879 
L 119.084832 358.136356 
L 117.720521 363.657212 
L 117.321467 365.234518 
L 118.328367 365.324301 
L 118.184524 368.068396 
L 116.962337 367.958747 
L 116.991373 370.237311 
L 117.049254 374.771515 
L 117.001497 374.771897 
L 117.053839 378.875528 
L 117.10618 382.97935 
L 117.157757 387.022043 
L 117.205132 390.745913 
L 118.399238 390.73044 
L 118.400766 390.850596 
L 118.417768 392.25082 
L 118.423881 392.753602 
L 118.392361 403.447837 
L 118.799821 403.275531 
L 120.218956 402.674562 
L 124.187723 402.807134 
L 128.686903 402.999534 
L 129.132634 403.418801 
L 129.38135 403.652809 
L 136.019821 405.477026 
L 138.522159 405.625921 
L 141.279435 405.974544 
L 142.66304 406.145895 
L 142.802298 406.15048 
L 144.641119 406.209316 
L 144.858316 406.216384 
L 145.739903 406.263758 
L 149.012378 406.442559 
L 151.080048 406.508654 
L 151.207654 406.512857 
L 155.812156 406.651924 
L 156.309016 406.660329 
L 158.268184 406.726616 
L 158.450423 406.732728 
L 161.461573 406.700254 
L 163.170878 406.688792 
L 165.190028 406.750494 
L 165.301779 406.753932 
L 167.008027 406.624034 
L 169.781732 406.413141 
L 169.883167 406.416389 
L 172.072521 406.48363 
L 175.834597 404.824565 
L 177.025838 404.761144 
L 180.148166 404.597052 
L 180.339765 404.602783 
L 181.751833 404.646719 
L 181.754889 404.583681 
L 191.198665 404.877861 
L 191.913296 404.900402 
L 195.014801 404.997635 
L 196.116451 405.032402 
L 196.690868 405.050931 
L 199.023492 405.126196 
L 201.131087 405.194392 
L 204.380639 405.29258 
L 204.974349 405.310345 
L 206.295106 405.350079 
L 207.57613 405.389048 
L 208.017783 405.40242 
L 210.355565 405.473291 
L 210.828929 405.487618 
L 211.442124 405.506338 
L 212.025901 405.524104 
L 216.163534 405.652474 
L 217.949823 405.707871 
L 218.925586 405.738054 
L 219.582335 405.758302 
L 221.572831 405.820195 
L 231.206869 405.552567 
L 230.840099 406.273883 
L 230.786229 406.379138 
L 230.084207 407.759114 
L 229.700435 408.513286 
L 229.323157 409.255042 
L 227.885492 412.081279 
L 227.463514 412.911289 
L 226.732265 414.34819 
L 224.231346 419.265212 
L 222.843348 421.99307 
L 222.663019 422.347424 
L 220.627441 427.625868 
L 220.305561 434.585344 
L 220.151594 437.877113 
L 220.914745 437.910924 
L 220.71665 442.145026 
L 220.644442 443.32194 
L 220.589809 444.857602 
L 220.354464 449.823527 
L 220.263153 451.758816 
L 220.058755 456.126063 
L 219.949297 458.493072 
L 219.725987 463.353741 
L 219.638115 465.289413 
L 219.411939 470.249606 
L 219.031415 478.421528 
L 218.698264 485.589605 
L 218.466358 490.555339 
L 218.194146 496.427684 
L 217.600435 509.284912 
L 217.547521 510.355616 
L 221.798433 510.205278 
L 228.073271 509.984833 
L 228.638327 509.964775 
L 228.710153 509.962101 
L 228.804138 510.641964 
L 232.205556 510.168028 
L 235.606973 509.694091 
L 236.823048 509.52465 
L 239.01756 509.218817 
L 248.463819 507.901498 
L 252.369165 507.356882 
L 255.909459 506.862887 
L 256.538509 506.774824 
L 259.733045 506.327822 
L 263.227492 505.839367 
L 263.733903 505.768688 
L 269.678647 504.938105 
L 274.784594 504.221373 
L 276.357888 503.999974 
L 277.939205 503.777237 
L 281.349983 503.310941 
L 285.56078 502.718377 
L 286.154681 502.634134 
L 289.938725 502.097159 
L 294.764436 501.438117 
L 301.347208 500.512785 
L 308.238679 499.501491 
L 309.229916 499.363379 
L 312.183185 498.945604 
L 313.019499 498.827358 
L 314.853735 498.567945 
L 317.64788 498.17252 
L 318.048653 498.115785 
L 320.341715 497.791337 
L 322.404057 497.499533 
L 322.960135 497.419111 
L 328.330271 496.638004 
L 331.906096 496.114591 
L 334.379316 495.752214 
L 334.411599 495.057642 
L 339.112952 494.400702 
L 339.584788 494.334607 
L 345.570411 494.163638 
L 345.978635 494.107476 
L 349.713967 493.593615 
L 352.698946 493.182908 
L 359.842764 492.200077 
L 360.651188 492.083169 
L 363.511045 491.639987 
L 368.808974 490.669191 
L 378.988584 488.801334 
L 379.96683 488.621769 
L 385.062653 487.677143 
L 387.752687 487.183721 
L 401.233808 484.711075 
L 403.977713 484.20772 
L 405.824557 483.86903 
L 410.907198 482.936821 
L 412.462154 481.899929 
L 419.205961 485.321595 
L 419.986496 485.769934 
L 418.143472 488.959886 
L 417.438584 490.179781 
L 418.959479 491.818484 
L 419.609027 492.453951 
L 419.662897 492.525586 
L 419.811324 492.624156 
L 415.993469 496.457484 
L 418.496871 499.086581 
L 418.915219 499.526324 
L 421.33094 502.062965 
L 424.628439 505.526084 
L 426.301067 507.283337 
L 426.604608 507.602351 
L 427.773308 508.828741 
L 431.390968 512.62864 
L 431.816192 513.074686 
L 434.603201 515.973673 
L 437.602767 519.153913 
L 440.593615 522.332352 
L 442.3287 523.726011 
L 447.122 527.576097 
L 457.485567 537.355107 
L 457.962369 537.807458 
L 458.023115 537.882531 
L 458.073355 537.965246 
L 458.515964 538.074704 
L 461.809071 538.744091 
L 461.84638 538.745028 
L 464.775328 538.818561 
L 468.322881 538.916749 
L 468.510517 538.94795 
L 472.192695 539.024105 
L 473.787766 539.068233 
L 476.791658 539.15152 
L 479.713599 539.243786 
L 482.806509 539.319814 
L 485.922342 539.396225 
L 489.212009 539.475883 
L 492.516194 539.551148 
L 496.835493 539.662898 
L 500.524215 539.752107 
L 503.269838 539.817821 
L 506.137337 539.891366 
L 510.328076 539.997767 
L 513.2525 540.070549 
L 513.613731 540.079336 
L 517.42853 540.169118 
L 517.652775 540.22638 
L 521.666452 541.10744 
L 524.985346 541.842319 
L 529.791573 542.906719 
L 541.869604 545.571347 
L 542.180213 545.619677 
L 542.985008 545.78033 
L 543.818265 545.91997 
L 544.285908 545.986709 
L 544.389816 546.001539 
L 545.941906 546.172125 
L 546.133888 546.193329 
L 546.797323 546.259424 
L 551.619213 546.776915 
L 557.985171 547.461172 
L 570.493585 548.805425 
L 577.979339 549.608501 
L 577.667775 550.423993 
L 582.191091 550.926392 
L 582.734179 550.986375 
L 582.89426 549.534764 
L 583.169147 547.039768 
L 583.286055 545.980908 
L 585.96864 541.113553 
L 589.201572 535.240444 
L 589.401386 534.877303 
L 590.157659 533.504204 
L 591.685298 530.731073 
L 592.208711 529.780907 
L 599.453772 516.61861 
L 599.526553 516.610396 
L 606.820517 515.853358 
L 608.142994 515.716201 
L 608.580826 509.163228 
L 608.669463 507.84037 
L 608.744918 506.711021 
L 608.876153 504.748988 
L 608.904998 504.318033 
L 609.086091 501.613671 
L 609.162502 500.471905 
L 609.618482 493.974713 
L 609.896617 493.512047 
L 612.189316 489.763916 
L 615.097122 485.007548 
L 615.419001 484.481079 
L 616.865645 482.115025 
L 618.198245 479.934267 
L 620.68541 475.867313 
L 622.13129 473.503169 
L 622.636364 468.342016 
L 622.022214 468.124054 
L 621.173292 467.822806 
L 619.764089 467.322698 
L 618.871805 467.005594 
L 618.387171 466.833671 
L 617.883434 466.65487 
L 617.604726 466.555727 
L 616.530202 466.173865 
L 615.781187 465.907765 
L 614.233109 465.357609 
L 610.858817 464.158727 
L 610.581829 464.060157 
L 609.653631 463.730445 
L 605.196219 462.146454 
L 605.093256 462.109777 
L 604.272224 461.819417 
L 604.189128 461.789807 
L 604.108132 461.760962 
L 602.272559 461.108225 
L 600.043089 460.316229 
L 596.607096 459.095761 
L 594.980314 458.517715 
L 594.704663 458.419909 
L 592.364397 457.588562 
L 591.641553 457.331631 
L 591.136097 457.152067 
L 590.399308 456.89036 
L 589.480089 456.563705 
L 588.637662 456.264366 
L 586.509627 455.508284 
L 581.615528 453.769561 
L 579.418342 452.989026 
L 578.811833 452.773549 
L 577.364807 452.259496 
L 577.048658 452.147746 
L 576.195534 451.844587 
L 572.335844 450.47359 
L 569.16767 449.348253 
L 568.665079 449.169643 
L 566.937245 448.555875 
L 566.704574 448.47316 
L 565.792805 448.148989 
L 564.796984 447.795207 
L 562.875831 447.119165 
L 561.276748 446.544939 
L 558.556913 445.579109 
L 557.757658 445.295244 
L 556.731464 444.930765 
L 553.574369 443.80944 
L 553.757755 440.49876 
L 553.2395 440.315757 
L 545.93694 437.723718 
L 541.973331 436.326551 
L 538.024814 434.933395 
L 534.061206 433.534317 
L 530.080405 432.131036 
L 529.057267 435.112386 
L 525.304361 433.780359 
L 524.844942 433.616649 
L 523.191608 433.030198 
L 523.169449 433.022366 
L 522.098554 432.642223 
L 520.580085 432.103719 
L 519.530585 431.731409 
L 519.104978 431.580498 
L 519.05321 431.562159 
L 518.379842 431.323185 
L 518.23428 431.271417 
L 517.389178 430.971696 
L 516.844753 430.778569 
L 518.136856 427.814793 
L 518.786346 426.27894 
L 519.240034 425.013581 
L 520.057436 422.733871 
L 521.892819 417.614552 
L 521.875244 417.512926 
L 521.415635 414.839892 
L 520.293736 408.312708 
L 519.987903 406.533297 
L 519.960204 406.372453 
L 520.238529 402.821461 
L 520.574354 398.537119 
L 521.17838 390.829201 
L 522.068945 379.464463 
L 522.244498 377.187427 
L 522.566569 373.010633 
L 522.597706 372.604511 
L 523.227139 364.437938 
L 523.312528 363.329984 
L 524.009774 354.612109 
L 524.022573 354.453748 
L 524.141773 352.962595 
L 524.1561 352.782839 
L 524.796612 344.772335 
L 528.34512 340.408335 
L 529.251159 339.294077 
L 532.692501 335.110597 
L 537.102538 329.662713 
L 537.89759 324.016161 
L 538.91175 316.689341 
L 539.069156 315.548149 
L 536.527739 313.484681 
L 534.721202 315.671743 
L 534.231219 316.264307 
L 528.502526 315.390552 
L 526.963426 315.15578 
L 526.566473 315.057784 
L 524.762419 314.612501 
L 523.930498 314.407147 
L 518.303431 313.018003 
L 517.724812 312.875306 
L 516.550572 312.585328 
L 514.2296 312.012248 
L 513.83131 311.914061 
L 513.751843 311.894385 
L 512.766911 311.651017 
L 511.858389 311.426561 
L 510.953305 311.20306 
L 508.67455 310.64106 
L 508.25945 310.538479 
L 508.150947 310.511927 
L 508.071098 310.492251 
L 507.670897 310.393299 
L 507.205748 310.278492 
L 506.173823 310.023472 
L 505.329868 309.815062 
L 504.269671 309.553165 
L 503.266782 309.305403 
L 498.369245 308.096779 
L 494.872887 307.233721 
L 490.785112 306.23981 
L 490.36428 306.135892 
L 489.622716 305.953271 
L 486.955795 305.295375 
L 486.013843 305.063278 
L 485.593394 304.959551 
L 484.161268 304.606152 
L 482.161412 304.11273 
L 481.724153 304.004992 
L 481.600367 303.974427 
L 481.512686 303.952841 
L 481.125285 303.857328 
L 479.048827 303.345568 
L 477.679549 303.007833 
L 475.811119 302.546886 
L 474.41376 302.202275 
L 470.339356 301.203015 
L 470.103821 301.145134 
L 466.244131 300.193822 
L 466.10812 300.160584 
L 465.633992 300.043484 
L 465.45118 299.998402 
L 464.50579 299.765541 
L 463.458583 299.507464 
L 462.329998 299.229521 
L 461.39244 298.998188 
L 461.257958 298.96514 
L 460.773514 298.845748 
L 460.6461 298.81442 
L 459.25046 298.470381 
L 458.752836 298.347742 
L 457.405336 298.015738 
L 456.473699 297.786124 
L 454.961725 297.413623 
L 454.384443 297.271308 
L 452.790518 296.878558 
L 446.266008 294.586431 
L 444.046663 293.483635 
L 443.912944 293.417158 
L 442.073168 292.502905 
L 441.880423 292.40701 
L 440.360043 291.651691 
L 437.492353 290.227016 
L 437.282606 290.122715 
L 432.193661 287.593907 
L 431.424206 287.211472 
L 426.742911 284.885151 
L 424.280389 283.661627 
L 418.407853 280.743888 
L 413.789215 278.440491 
L 411.126688 277.105216 
L 407.897385 275.485502 
L 405.024538 274.071142 
L 404.617269 273.870564 
L 401.77575 272.471677 
L 401.002857 272.089051 
L 400.631311 271.905093 
L 396.558435 269.888999 
L 395.341978 269.286693 
L 389.320442 266.311647 
L 388.776589 266.042872 
L 387.157831 265.243235 
L 386.852953 265.092516 
L 386.454089 264.895376 
L 385.990468 264.666527 
L 385.694377 264.5202 
L 385.215474 264.283518 
L 383.416386 263.385694 
L 382.895648 263.125898 
L 382.555048 262.95512 
L 382.204323 262.79313 
L 382.164781 262.70946 
L 382.112249 262.633432 
L 382.048064 262.566572 
L 381.974136 262.511175 
L 381.892186 262.468194 
L 377.221016 260.490879 
L 376.989874 260.392882 
L 369.711765 257.307231 
L 363.068246 254.491119 
L 355.780968 251.401839 
L 353.791809 250.558648 
L 353.437837 250.408692 
L 351.298913 249.502271 
L 346.443784 247.444725 
L 341.885892 245.505233 
L 339.270549 244.401291 
L 332.60105 241.572953 
L 324.026636 237.937146 
L 319.780308 236.148756 
L 314.575601 233.955963 
L 303.128721 229.1186 
L 303.135407 229.914798 
L 302.313038 229.568658 
L 297.435368 227.512258 
L 287.883089 223.483701 
L 275.40543 218.209651 
L 269.97875 215.914659 
L 268.768024 215.402517 
L 267.416894 214.831156 
L 261.553718 212.351442 
L 248.651407 206.883691 
L 190.14439 182.160089 
L 176.072616 176.213625 
L 175.006115 177.751962 
" clip-path="url(#p9ab4c0862d)" style="fill: #d3d3d3"/>
   </g>
   <g id="PatchCollection_2">
    <path d="M 335.14572 402.575325 
L 335.14572 402.384299 
L 334.954694 402.384299 
L 334.954694 402.575325 
L 335.14572 402.575325 
" clip-path="url(#p9ab4c0862d)" style="fill: #ff0000; fill-opacity: 0.7; stroke: #000000; stroke-opacity: 0.7; stroke-width: 0.5"/>
    <path d="M 337.019147 400.397618 
L 337.019147 400.206592 
L 336.82812 400.206592 
L 336.82812 400.397618 
L 337.019147 400.397618 
" clip-path="url(#p9ab4c0862d)" style="fill: #ff0000; fill-opacity: 0.7; stroke: #000000; stroke-opacity: 0.7; stroke-width: 0.5"/>
    <path d="M 158.694739 216.165491 
L 158.694739 215.974464 
L 158.503713 215.974464 
L 158.503713 216.165491 
L 158.694739 216.165491 
" clip-path="url(#p9ab4c0862d)" style="fill: #ff0000; fill-opacity: 0.7; stroke: #000000; stroke-opacity: 0.7; stroke-width: 0.5"/>
    <path d="M 523.615009 439.911823 
L 523.615009 439.720797 
L 523.423982 439.720797 
L 523.423982 439.911823 
L 523.615009 439.911823 
" clip-path="url(#p9ab4c0862d)" style="fill: #ff0000; fill-opacity: 0.7; stroke: #000000; stroke-opacity: 0.7; stroke-width: 0.5"/>
    <path d="M 202.198216 269.580356 
L 202.198216 269.389329 
L 202.00719 269.389329 
L 202.00719 269.580356 
L 202.198216 269.580356 
" clip-path="url(#p9ab4c0862d)" style="fill: #ff0000; fill-opacity: 0.7; stroke: #000000; stroke-opacity: 0.7; stroke-width: 0.5"/>
    <path d="M 255.52462 328.753265 
L 255.52462 328.562239 
L 255.333594 328.562239 
L 255.333594 328.753265 
L 255.52462 328.753265 
" clip-path="url(#p9ab4c0862d)" style="fill: #ff0000; fill-opacity: 0.7; stroke: #000000; stroke-opacity: 0.7; stroke-width: 0.5"/>
    <path d="M 235.917716 335.963801 
L 235.917716 335.772774 
L 235.72669 335.772774 
L 235.72669 335.963801 
L 235.917716 335.963801 
" clip-path="url(#p9ab4c0862d)" style="fill: #ff0000; fill-opacity: 0.7; stroke: #000000; stroke-opacity: 0.7; stroke-width: 0.5"/>
    <path d="M 559.122609 452.096525 
L 559.122609 451.905499 
L 558.931582 451.905499 
L 558.931582 452.096525 
L 559.122609 452.096525 
" clip-path="url(#p9ab4c0862d)" style="fill: #ff0000; fill-opacity: 0.7; stroke: #000000; stroke-opacity: 0.7; stroke-width: 0.5"/>
    <path d="M 219.470053 343.451929 
L 219.470053 343.260903 
L 219.279027 343.260903 
L 219.279027 343.451929 
L 219.470053 343.451929 
" clip-path="url(#p9ab4c0862d)" style="fill: #ff0000; fill-opacity: 0.7; stroke: #000000; stroke-opacity: 0.7; stroke-width: 0.5"/>
    <path d="M 188.824041 196.220105 
L 188.824041 196.029078 
L 188.633015 196.029078 
L 188.633015 196.220105 
L 188.824041 196.220105 
" clip-path="url(#p9ab4c0862d)" style="fill: #ff0000; fill-opacity: 0.7; stroke: #000000; stroke-opacity: 0.7; stroke-width: 0.5"/>
    <path d="M 413.852802 309.902735 
L 413.852802 309.711708 
L 413.661775 309.711708 
L 413.661775 309.902735 
L 413.852802 309.902735 
" clip-path="url(#p9ab4c0862d)" style="fill: #ff0000; fill-opacity: 0.7; stroke: #000000; stroke-opacity: 0.7; stroke-width: 0.5"/>
    <path d="M 492.374477 432.236256 
L 492.374477 432.045229 
L 492.18345 432.045229 
L 492.18345 432.236256 
L 492.374477 432.236256 
" clip-path="url(#p9ab4c0862d)" style="fill: #ff0000; fill-opacity: 0.7; stroke: #000000; stroke-opacity: 0.7; stroke-width: 0.5"/>
    <path d="M 193.024286 262.751713 
L 193.024286 262.560686 
L 192.833259 262.560686 
L 192.833259 262.751713 
L 193.024286 262.751713 
" clip-path="url(#p9ab4c0862d)" style="fill: #ff0000; fill-opacity: 0.7; stroke: #000000; stroke-opacity: 0.7; stroke-width: 0.5"/>
    <path d="M 497.360353 439.14538 
L 497.360353 438.954354 
L 497.169327 438.954354 
L 497.169327 439.14538 
L 497.360353 439.14538 
" clip-path="url(#p9ab4c0862d)" style="fill: #ff0000; fill-opacity: 0.7; stroke: #000000; stroke-opacity: 0.7; stroke-width: 0.5"/>
    <path d="M 332.465667 312.021047 
L 332.465667 311.830021 
L 332.274641 311.830021 
L 332.274641 312.021047 
L 332.465667 312.021047 
" clip-path="url(#p9ab4c0862d)" style="fill: #ff0000; fill-opacity: 0.7; stroke: #000000; stroke-opacity: 0.7; stroke-width: 0.5"/>
    <path d="M 296.184775 337.660051 
L 296.184775 337.469024 
L 295.993748 337.469024 
L 295.993748 337.660051 
L 296.184775 337.660051 
" clip-path="url(#p9ab4c0862d)" style="fill: #ff0000; fill-opacity: 0.7; stroke: #000000; stroke-opacity: 0.7; stroke-width: 0.5"/>
    <path d="M 504.171083 359.802326 
L 504.171083 359.611299 
L 503.980056 359.611299 
L 503.980056 359.802326 
L 504.171083 359.802326 
" clip-path="url(#p9ab4c0862d)" style="fill: #ff0000; fill-opacity: 0.7; stroke: #000000; stroke-opacity: 0.7; stroke-width: 0.5"/>
    <path d="M 349.981666 306.877832 
L 349.981666 306.686805 
L 349.790639 306.686805 
L 349.790639 306.877832 
L 349.981666 306.877832 
" clip-path="url(#p9ab4c0862d)" style="fill: #ff0000; fill-opacity: 0.7; stroke: #000000; stroke-opacity: 0.7; stroke-width: 0.5"/>
    <path d="M 445.074511 297.02166 
L 445.074511 296.830633 
L 444.883485 296.830633 
L 444.883485 297.02166 
L 445.074511 297.02166 
" clip-path="url(#p9ab4c0862d)" style="fill: #ff0000; fill-opacity: 0.7; stroke: #000000; stroke-opacity: 0.7; stroke-width: 0.5"/>
    <path d="M 527.811937 316.41768 
L 527.811937 316.226654 
L 527.62091 316.226654 
L 527.62091 316.41768 
L 527.811937 316.41768 
" clip-path="url(#p9ab4c0862d)" style="fill: #ff0000; fill-opacity: 0.7; stroke: #000000; stroke-opacity: 0.7; stroke-width: 0.5"/>
    <path d="M 342.364622 327.729166 
L 342.364622 327.538139 
L 342.173595 327.538139 
L 342.173595 327.729166 
L 342.364622 327.729166 
" clip-path="url(#p9ab4c0862d)" style="fill: #ff0000; fill-opacity: 0.7; stroke: #000000; stroke-opacity: 0.7; stroke-width: 0.5"/>
    <path d="M 475.823884 427.354306 
L 475.823884 427.16328 
L 475.632858 427.16328 
L 475.632858 427.354306 
L 475.823884 427.354306 
" clip-path="url(#p9ab4c0862d)" style="fill: #ff0000; fill-opacity: 0.7; stroke: #000000; stroke-opacity: 0.7; stroke-width: 0.5"/>
    <path d="M 430.568363 348.571959 
L 430.568363 348.380932 
L 430.377336 348.380932 
L 430.377336 348.571959 
L 430.568363 348.571959 
" clip-path="url(#p9ab4c0862d)" style="fill: #ff0000; fill-opacity: 0.7; stroke: #000000; stroke-opacity: 0.7; stroke-width: 0.5"/>
    <path d="M 430.81573 378.977365 
L 430.81573 378.786339 
L 430.624704 378.786339 
L 430.624704 378.977365 
L 430.81573 378.977365 
" clip-path="url(#p9ab4c0862d)" style="fill: #ff0000; fill-opacity: 0.7; stroke: #000000; stroke-opacity: 0.7; stroke-width: 0.5"/>
    <path d="M 506.922812 479.754167 
L 506.922812 479.56314 
L 506.731786 479.56314 
L 506.731786 479.754167 
L 506.922812 479.754167 
" clip-path="url(#p9ab4c0862d)" style="fill: #ff0000; fill-opacity: 0.7; stroke: #000000; stroke-opacity: 0.7; stroke-width: 0.5"/>
    <path d="M 178.04829 180.871162 
L 178.04829 180.680135 
L 177.857264 180.680135 
L 177.857264 180.871162 
L 178.04829 180.871162 
" clip-path="url(#p9ab4c0862d)" style="fill: #ff0000; fill-opacity: 0.7; stroke: #000000; stroke-opacity: 0.7; stroke-width: 0.5"/>
    <path d="M 341.174418 318.61436 
L 341.174418 318.423334 
L 340.983392 318.423334 
L 340.983392 318.61436 
L 341.174418 318.61436 
" clip-path="url(#p9ab4c0862d)" style="fill: #ff0000; fill-opacity: 0.7; stroke: #000000; stroke-opacity: 0.7; stroke-width: 0.5"/>
    <path d="M 187.955906 207.96093 
L 187.955906 207.769904 
L 187.764879 207.769904 
L 187.764879 207.96093 
L 187.955906 207.96093 
" clip-path="url(#p9ab4c0862d)" style="fill: #ff0000; fill-opacity: 0.7; stroke: #000000; stroke-opacity: 0.7; stroke-width: 0.5"/>
    <path d="M 422.653306 380.860324 
L 422.653306 380.669297 
L 422.46228 380.669297 
L 422.46228 380.860324 
L 422.653306 380.860324 
" clip-path="url(#p9ab4c0862d)" style="fill: #ff0000; fill-opacity: 0.7; stroke: #000000; stroke-opacity: 0.7; stroke-width: 0.5"/>
    <path d="M 208.861647 203.47075 
L 208.861647 203.279724 
L 208.670621 203.279724 
L 208.670621 203.47075 
L 208.861647 203.47075 
" clip-path="url(#p9ab4c0862d)" style="fill: #ff0000; fill-opacity: 0.7; stroke: #000000; stroke-opacity: 0.7; stroke-width: 0.5"/>
    <path d="M 350.566283 351.752831 
L 350.566283 351.561805 
L 350.375257 351.561805 
L 350.375257 351.752831 
L 350.566283 351.752831 
" clip-path="url(#p9ab4c0862d)" style="fill: #ff0000; fill-opacity: 0.7; stroke: #000000; stroke-opacity: 0.7; stroke-width: 0.5"/>
    <path d="M 430.563563 382.351273 
L 430.563563 382.160246 
L 430.372536 382.160246 
L 430.372536 382.351273 
L 430.563563 382.351273 
" clip-path="url(#p9ab4c0862d)" style="fill: #ff0000; fill-opacity: 0.7; stroke: #000000; stroke-opacity: 0.7; stroke-width: 0.5"/>
    <path d="M 349.981666 306.877832 
L 349.981666 306.686805 
L 349.790639 306.686805 
L 349.790639 306.877832 
L 349.981666 306.877832 
" clip-path="url(#p9ab4c0862d)" style="fill: #ff0000; fill-opacity: 0.7; stroke: #000000; stroke-opacity: 0.7; stroke-width: 0.5"/>
    <path d="M 154.389566 398.489642 
L 154.389566 398.298615 
L 154.19854 398.298615 
L 154.19854 398.489642 
L 154.389566 398.489642 
" clip-path="url(#p9ab4c0862d)" style="fill: #ff0000; fill-opacity: 0.7; stroke: #000000; stroke-opacity: 0.7; stroke-width: 0.5"/>
    <path d="M 216.675014 196.821454 
L 216.675014 196.630428 
L 216.483987 196.630428 
L 216.483987 196.821454 
L 216.675014 196.821454 
" clip-path="url(#p9ab4c0862d)" style="fill: #ff0000; fill-opacity: 0.7; stroke: #000000; stroke-opacity: 0.7; stroke-width: 0.5"/>
    <path d="M 230.368177 409.379239 
L 230.368177 409.188213 
L 230.177151 409.188213 
L 230.177151 409.379239 
L 230.368177 409.379239 
" clip-path="url(#p9ab4c0862d)" style="fill: #ff0000; fill-opacity: 0.7; stroke: #000000; stroke-opacity: 0.7; stroke-width: 0.5"/>
    <path d="M 434.798864 363.621175 
L 434.798864 363.430149 
L 434.607837 363.430149 
L 434.607837 363.621175 
L 434.798864 363.621175 
" clip-path="url(#p9ab4c0862d)" style="fill: #ff0000; fill-opacity: 0.7; stroke: #000000; stroke-opacity: 0.7; stroke-width: 0.5"/>
    <path d="M 314.080589 306.314292 
L 314.080589 306.123265 
L 313.889563 306.123265 
L 313.889563 306.314292 
L 314.080589 306.314292 
" clip-path="url(#p9ab4c0862d)" style="fill: #ff0000; fill-opacity: 0.7; stroke: #000000; stroke-opacity: 0.7; stroke-width: 0.5"/>
    <path d="M 341.174418 318.61436 
L 341.174418 318.423334 
L 340.983392 318.423334 
L 340.983392 318.61436 
L 341.174418 318.61436 
" clip-path="url(#p9ab4c0862d)" style="fill: #ff0000; fill-opacity: 0.7; stroke: #000000; stroke-opacity: 0.7; stroke-width: 0.5"/>
    <path d="M 181.51145 258.457654 
L 181.51145 258.266628 
L 181.320423 258.266628 
L 181.320423 258.457654 
L 181.51145 258.457654 
" clip-path="url(#p9ab4c0862d)" style="fill: #ff0000; fill-opacity: 0.7; stroke: #000000; stroke-opacity: 0.7; stroke-width: 0.5"/>
    <path d="M 228.965422 237.769216 
L 228.965422 237.578189 
L 228.774396 237.578189 
L 228.774396 237.769216 
L 228.965422 237.769216 
" clip-path="url(#p9ab4c0862d)" style="fill: #ff0000; fill-opacity: 0.7; stroke: #000000; stroke-opacity: 0.7; stroke-width: 0.5"/>
    <path d="M 422.46036 383.532499 
L 422.46036 383.341472 
L 422.269334 383.341472 
L 422.269334 383.532499 
L 422.46036 383.532499 
" clip-path="url(#p9ab4c0862d)" style="fill: #ff0000; fill-opacity: 0.7; stroke: #000000; stroke-opacity: 0.7; stroke-width: 0.5"/>
    <path d="M 163.21357 398.758634 
L 163.21357 398.567607 
L 163.022543 398.567607 
L 163.022543 398.758634 
L 163.21357 398.758634 
" clip-path="url(#p9ab4c0862d)" style="fill: #ff0000; fill-opacity: 0.7; stroke: #000000; stroke-opacity: 0.7; stroke-width: 0.5"/>
    <path d="M 432.663776 341.580741 
L 432.663776 341.389715 
L 432.472749 341.389715 
L 432.472749 341.580741 
L 432.663776 341.580741 
" clip-path="url(#p9ab4c0862d)" style="fill: #ff0000; fill-opacity: 0.7; stroke: #000000; stroke-opacity: 0.7; stroke-width: 0.5"/>
    <path d="M 330.521756 354.204386 
L 330.521756 354.013359 
L 330.330729 354.013359 
L 330.330729 354.204386 
L 330.521756 354.204386 
" clip-path="url(#p9ab4c0862d)" style="fill: #ff0000; fill-opacity: 0.7; stroke: #000000; stroke-opacity: 0.7; stroke-width: 0.5"/>
    <path d="M 422.223778 386.813483 
L 422.223778 386.622456 
L 422.032751 386.622456 
L 422.032751 386.813483 
L 422.223778 386.813483 
" clip-path="url(#p9ab4c0862d)" style="fill: #ff0000; fill-opacity: 0.7; stroke: #000000; stroke-opacity: 0.7; stroke-width: 0.5"/>
    <path d="M 230.757159 509.400092 
L 230.757159 509.209066 
L 230.566132 509.209066 
L 230.566132 509.400092 
L 230.757159 509.400092 
" clip-path="url(#p9ab4c0862d)" style="fill: #ff0000; fill-opacity: 0.7; stroke: #000000; stroke-opacity: 0.7; stroke-width: 0.5"/>
    <path d="M 328.105103 410.559508 
L 328.105103 410.368482 
L 327.914076 410.368482 
L 327.914076 410.559508 
L 328.105103 410.559508 
" clip-path="url(#p9ab4c0862d)" style="fill: #ff0000; fill-opacity: 0.7; stroke: #000000; stroke-opacity: 0.7; stroke-width: 0.5"/>
    <path d="M 430.3079 385.780815 
L 430.3079 385.589789 
L 430.116873 385.589789 
L 430.116873 385.780815 
L 430.3079 385.780815 
" clip-path="url(#p9ab4c0862d)" style="fill: #ff0000; fill-opacity: 0.7; stroke: #000000; stroke-opacity: 0.7; stroke-width: 0.5"/>
    <path d="M 359.410315 310.351849 
L 359.410315 310.160822 
L 359.219288 310.160822 
L 359.219288 310.351849 
L 359.410315 310.351849 
" clip-path="url(#p9ab4c0862d)" style="fill: #ff0000; fill-opacity: 0.7; stroke: #000000; stroke-opacity: 0.7; stroke-width: 0.5"/>
    <path d="M 279.015741 306.79487 
L 279.015741 306.603843 
L 278.824715 306.603843 
L 278.824715 306.79487 
L 279.015741 306.79487 
" clip-path="url(#p9ab4c0862d)" style="fill: #ff0000; fill-opacity: 0.7; stroke: #000000; stroke-opacity: 0.7; stroke-width: 0.5"/>
    <path d="M 539.205413 438.356201 
L 539.205413 438.165174 
L 539.014387 438.165174 
L 539.014387 438.356201 
L 539.205413 438.356201 
" clip-path="url(#p9ab4c0862d)" style="fill: #ff0000; fill-opacity: 0.7; stroke: #000000; stroke-opacity: 0.7; stroke-width: 0.5"/>
    <path d="M 305.965722 310.409343 
L 305.965722 310.218317 
L 305.774696 310.218317 
L 305.774696 310.409343 
L 305.965722 310.409343 
" clip-path="url(#p9ab4c0862d)" style="fill: #ff0000; fill-opacity: 0.7; stroke: #000000; stroke-opacity: 0.7; stroke-width: 0.5"/>
    <path d="M 551.862066 480.23634 
L 551.862066 480.045313 
L 551.67104 480.045313 
L 551.67104 480.23634 
L 551.862066 480.23634 
" clip-path="url(#p9ab4c0862d)" style="fill: #ff0000; fill-opacity: 0.7; stroke: #000000; stroke-opacity: 0.7; stroke-width: 0.5"/>
    <path d="M 449.241554 312.843537 
L 449.241554 312.652511 
L 449.050527 312.652511 
L 449.050527 312.843537 
L 449.241554 312.843537 
" clip-path="url(#p9ab4c0862d)" style="fill: #ff0000; fill-opacity: 0.7; stroke: #000000; stroke-opacity: 0.7; stroke-width: 0.5"/>
    <path d="M 341.544189 278.246793 
L 341.544189 278.055766 
L 341.353163 278.055766 
L 341.353163 278.246793 
L 341.544189 278.246793 
" clip-path="url(#p9ab4c0862d)" style="fill: #ff0000; fill-opacity: 0.7; stroke: #000000; stroke-opacity: 0.7; stroke-width: 0.5"/>
    <path d="M 332.465866 312.02086 
L 332.465866 311.829834 
L 332.27484 311.829834 
L 332.27484 312.02086 
L 332.465866 312.02086 
" clip-path="url(#p9ab4c0862d)" style="fill: #ff0000; fill-opacity: 0.7; stroke: #000000; stroke-opacity: 0.7; stroke-width: 0.5"/>
    <path d="M 449.241554 312.843537 
L 449.241554 312.652511 
L 449.050527 312.652511 
L 449.050527 312.843537 
L 449.241554 312.843537 
" clip-path="url(#p9ab4c0862d)" style="fill: #ff0000; fill-opacity: 0.7; stroke: #000000; stroke-opacity: 0.7; stroke-width: 0.5"/>
    <path d="M 427.799937 358.12446 
L 427.799937 357.933433 
L 427.608911 357.933433 
L 427.608911 358.12446 
L 427.799937 358.12446 
" clip-path="url(#p9ab4c0862d)" style="fill: #ff0000; fill-opacity: 0.7; stroke: #000000; stroke-opacity: 0.7; stroke-width: 0.5"/>
    <path d="M 441.051643 342.409816 
L 441.051643 342.218789 
L 440.860617 342.218789 
L 440.860617 342.409816 
L 441.051643 342.409816 
" clip-path="url(#p9ab4c0862d)" style="fill: #ff0000; fill-opacity: 0.7; stroke: #000000; stroke-opacity: 0.7; stroke-width: 0.5"/>
    <path d="M 430.568574 348.571772 
L 430.568574 348.380746 
L 430.377548 348.380746 
L 430.377548 348.571772 
L 430.568574 348.571772 
" clip-path="url(#p9ab4c0862d)" style="fill: #ff0000; fill-opacity: 0.7; stroke: #000000; stroke-opacity: 0.7; stroke-width: 0.5"/>
    <path d="M 263.445714 503.441555 
L 263.445714 503.250528 
L 263.254688 503.250528 
L 263.254688 503.441555 
L 263.445714 503.441555 
" clip-path="url(#p9ab4c0862d)" style="fill: #ff0000; fill-opacity: 0.7; stroke: #000000; stroke-opacity: 0.7; stroke-width: 0.5"/>
    <path d="M 332.033654 316.362631 
L 332.033654 316.171604 
L 331.842628 316.171604 
L 331.842628 316.362631 
L 332.033654 316.362631 
" clip-path="url(#p9ab4c0862d)" style="fill: #ff0000; fill-opacity: 0.7; stroke: #000000; stroke-opacity: 0.7; stroke-width: 0.5"/>
    <path d="M 261.313089 402.627327 
L 261.313089 402.4363 
L 261.122063 402.4363 
L 261.122063 402.627327 
L 261.313089 402.627327 
" clip-path="url(#p9ab4c0862d)" style="fill: #ff0000; fill-opacity: 0.7; stroke: #000000; stroke-opacity: 0.7; stroke-width: 0.5"/>
    <path d="M 449.241554 312.843537 
L 449.241554 312.652511 
L 449.050527 312.652511 
L 449.050527 312.843537 
L 449.241554 312.843537 
" clip-path="url(#p9ab4c0862d)" style="fill: #ff0000; fill-opacity: 0.7; stroke: #000000; stroke-opacity: 0.7; stroke-width: 0.5"/>
    <path d="M 332.465866 312.02086 
L 332.465866 311.829834 
L 332.27484 311.829834 
L 332.27484 312.02086 
L 332.465866 312.02086 
" clip-path="url(#p9ab4c0862d)" style="fill: #ff0000; fill-opacity: 0.7; stroke: #000000; stroke-opacity: 0.7; stroke-width: 0.5"/>
    <path d="M 216.675013 196.821475 
L 216.675013 196.630449 
L 216.483987 196.630449 
L 216.483987 196.821475 
L 216.675013 196.821475 
" clip-path="url(#p9ab4c0862d)" style="fill: #ff0000; fill-opacity: 0.7; stroke: #000000; stroke-opacity: 0.7; stroke-width: 0.5"/>
    <path d="M 272.67925 327.178226 
L 272.67925 326.9872 
L 272.488223 326.9872 
L 272.488223 327.178226 
L 272.67925 327.178226 
" clip-path="url(#p9ab4c0862d)" style="fill: #ff0000; fill-opacity: 0.7; stroke: #000000; stroke-opacity: 0.7; stroke-width: 0.5"/>
    <path d="M 498.290858 435.679375 
L 498.290858 435.488349 
L 498.099831 435.488349 
L 498.099831 435.679375 
L 498.290858 435.679375 
" clip-path="url(#p9ab4c0862d)" style="fill: #ff0000; fill-opacity: 0.7; stroke: #000000; stroke-opacity: 0.7; stroke-width: 0.5"/>
    <path d="M 453.202394 299.040365 
L 453.202394 298.849338 
L 453.011368 298.849338 
L 453.011368 299.040365 
L 453.202394 299.040365 
" clip-path="url(#p9ab4c0862d)" style="fill: #ff0000; fill-opacity: 0.7; stroke: #000000; stroke-opacity: 0.7; stroke-width: 0.5"/>
    <path d="M 332.465866 312.02086 
L 332.465866 311.829834 
L 332.27484 311.829834 
L 332.27484 312.02086 
L 332.465866 312.02086 
" clip-path="url(#p9ab4c0862d)" style="fill: #ff0000; fill-opacity: 0.7; stroke: #000000; stroke-opacity: 0.7; stroke-width: 0.5"/>
    <path d="M 248.533584 207.678304 
L 248.533584 207.487278 
L 248.342557 207.487278 
L 248.342557 207.678304 
L 248.533584 207.678304 
" clip-path="url(#p9ab4c0862d)" style="fill: #ff0000; fill-opacity: 0.7; stroke: #000000; stroke-opacity: 0.7; stroke-width: 0.5"/>
    <path d="M 256.447495 326.080208 
L 256.447495 325.889181 
L 256.256468 325.889181 
L 256.256468 326.080208 
L 256.447495 326.080208 
" clip-path="url(#p9ab4c0862d)" style="fill: #ff0000; fill-opacity: 0.7; stroke: #000000; stroke-opacity: 0.7; stroke-width: 0.5"/>
    <path d="M 425.259176 476.942418 
L 425.259176 476.751391 
L 425.06815 476.751391 
L 425.06815 476.942418 
L 425.259176 476.942418 
" clip-path="url(#p9ab4c0862d)" style="fill: #ff0000; fill-opacity: 0.7; stroke: #000000; stroke-opacity: 0.7; stroke-width: 0.5"/>
    <path d="M 221.184024 436.336611 
L 221.184024 436.145584 
L 220.992998 436.145584 
L 220.992998 436.336611 
L 221.184024 436.336611 
" clip-path="url(#p9ab4c0862d)" style="fill: #ff0000; fill-opacity: 0.7; stroke: #000000; stroke-opacity: 0.7; stroke-width: 0.5"/>
    <path d="M 302.894903 451.125141 
L 302.894903 450.934114 
L 302.703877 450.934114 
L 302.703877 451.125141 
L 302.894903 451.125141 
" clip-path="url(#p9ab4c0862d)" style="fill: #ff0000; fill-opacity: 0.7; stroke: #000000; stroke-opacity: 0.7; stroke-width: 0.5"/>
    <path d="M 432.663776 341.580741 
L 432.663776 341.389715 
L 432.472749 341.389715 
L 432.472749 341.580741 
L 432.663776 341.580741 
" clip-path="url(#p9ab4c0862d)" style="fill: #ff0000; fill-opacity: 0.7; stroke: #000000; stroke-opacity: 0.7; stroke-width: 0.5"/>
    <path d="M 469.520773 425.521168 
L 469.520773 425.330142 
L 469.329747 425.330142 
L 469.329747 425.521168 
L 469.520773 425.521168 
" clip-path="url(#p9ab4c0862d)" style="fill: #ff0000; fill-opacity: 0.7; stroke: #000000; stroke-opacity: 0.7; stroke-width: 0.5"/>
    <path d="M 263.445714 503.441555 
L 263.445714 503.250528 
L 263.254688 503.250528 
L 263.254688 503.441555 
L 263.445714 503.441555 
" clip-path="url(#p9ab4c0862d)" style="fill: #ff0000; fill-opacity: 0.7; stroke: #000000; stroke-opacity: 0.7; stroke-width: 0.5"/>
    <path d="M 349.981877 306.877666 
L 349.981877 306.68664 
L 349.790851 306.68664 
L 349.790851 306.877666 
L 349.981877 306.877666 
" clip-path="url(#p9ab4c0862d)" style="fill: #ff0000; fill-opacity: 0.7; stroke: #000000; stroke-opacity: 0.7; stroke-width: 0.5"/>
    <path d="M 453.84223 298.098008 
L 453.84223 297.906982 
L 453.651203 297.906982 
L 453.651203 298.098008 
L 453.84223 298.098008 
" clip-path="url(#p9ab4c0862d)" style="fill: #ff0000; fill-opacity: 0.7; stroke: #000000; stroke-opacity: 0.7; stroke-width: 0.5"/>
    <path d="M 299.870553 336.693183 
L 299.870553 336.502156 
L 299.679526 336.502156 
L 299.679526 336.693183 
L 299.870553 336.693183 
" clip-path="url(#p9ab4c0862d)" style="fill: #ff0000; fill-opacity: 0.7; stroke: #000000; stroke-opacity: 0.7; stroke-width: 0.5"/>
    <path d="M 433.554461 338.457296 
L 433.554461 338.266269 
L 433.363435 338.266269 
L 433.363435 338.457296 
L 433.554461 338.457296 
" clip-path="url(#p9ab4c0862d)" style="fill: #ff0000; fill-opacity: 0.7; stroke: #000000; stroke-opacity: 0.7; stroke-width: 0.5"/>
    <path d="M 339.509325 266.120173 
L 339.509325 265.929147 
L 339.318298 265.929147 
L 339.318298 266.120173 
L 339.509325 266.120173 
" clip-path="url(#p9ab4c0862d)" style="fill: #ff0000; fill-opacity: 0.7; stroke: #000000; stroke-opacity: 0.7; stroke-width: 0.5"/>
    <path d="M 326.414208 346.333601 
L 326.414208 346.142574 
L 326.223181 346.142574 
L 326.223181 346.333601 
L 326.414208 346.333601 
" clip-path="url(#p9ab4c0862d)" style="fill: #ff0000; fill-opacity: 0.7; stroke: #000000; stroke-opacity: 0.7; stroke-width: 0.5"/>
    <path d="M 337.019358 400.397453 
L 337.019358 400.206427 
L 336.828332 400.206427 
L 336.828332 400.397453 
L 337.019358 400.397453 
" clip-path="url(#p9ab4c0862d)" style="fill: #ff0000; fill-opacity: 0.7; stroke: #000000; stroke-opacity: 0.7; stroke-width: 0.5"/>
    <path d="M 280.176181 264.143724 
L 280.176181 263.952698 
L 279.985154 263.952698 
L 279.985154 264.143724 
L 280.176181 264.143724 
" clip-path="url(#p9ab4c0862d)" style="fill: #ff0000; fill-opacity: 0.7; stroke: #000000; stroke-opacity: 0.7; stroke-width: 0.5"/>
    <path d="M 208.861859 203.470564 
L 208.861859 203.279537 
L 208.670832 203.279537 
L 208.670832 203.470564 
L 208.861859 203.470564 
" clip-path="url(#p9ab4c0862d)" style="fill: #ff0000; fill-opacity: 0.7; stroke: #000000; stroke-opacity: 0.7; stroke-width: 0.5"/>
    <path d="M 235.917929 335.963593 
L 235.917929 335.772567 
L 235.726902 335.772567 
L 235.726902 335.963593 
L 235.917929 335.963593 
" clip-path="url(#p9ab4c0862d)" style="fill: #ff0000; fill-opacity: 0.7; stroke: #000000; stroke-opacity: 0.7; stroke-width: 0.5"/>
    <path d="M 425.110978 455.572143 
L 425.110978 455.381117 
L 424.919952 455.381117 
L 424.919952 455.572143 
L 425.110978 455.572143 
" clip-path="url(#p9ab4c0862d)" style="fill: #ff0000; fill-opacity: 0.7; stroke: #000000; stroke-opacity: 0.7; stroke-width: 0.5"/>
    <path d="M 228.249154 247.218547 
L 228.249154 247.02752 
L 228.058128 247.02752 
L 228.058128 247.218547 
L 228.249154 247.218547 
" clip-path="url(#p9ab4c0862d)" style="fill: #ff0000; fill-opacity: 0.7; stroke: #000000; stroke-opacity: 0.7; stroke-width: 0.5"/>
    <path d="M 214.371372 256.403032 
L 214.371372 256.212006 
L 214.180345 256.212006 
L 214.180345 256.403032 
L 214.371372 256.403032 
" clip-path="url(#p9ab4c0862d)" style="fill: #ff0000; fill-opacity: 0.7; stroke: #000000; stroke-opacity: 0.7; stroke-width: 0.5"/>
    <path d="M 261.463308 294.35338 
L 261.463308 294.162354 
L 261.272282 294.162354 
L 261.272282 294.35338 
L 261.463308 294.35338 
" clip-path="url(#p9ab4c0862d)" style="fill: #ff0000; fill-opacity: 0.7; stroke: #000000; stroke-opacity: 0.7; stroke-width: 0.5"/>
    <path d="M 336.397142 341.610119 
L 336.397142 341.419093 
L 336.206115 341.419093 
L 336.206115 341.610119 
L 336.397142 341.610119 
" clip-path="url(#p9ab4c0862d)" style="fill: #ff0000; fill-opacity: 0.7; stroke: #000000; stroke-opacity: 0.7; stroke-width: 0.5"/>
    <path d="M 279.951252 364.675771 
L 279.951252 364.484744 
L 279.760226 364.484744 
L 279.760226 364.675771 
L 279.951252 364.675771 
" clip-path="url(#p9ab4c0862d)" style="fill: #ff0000; fill-opacity: 0.7; stroke: #000000; stroke-opacity: 0.7; stroke-width: 0.5"/>
    <path d="M 230.757159 509.400071 
L 230.757159 509.209045 
L 230.566133 509.209045 
L 230.566133 509.400071 
L 230.757159 509.400071 
" clip-path="url(#p9ab4c0862d)" style="fill: #ff0000; fill-opacity: 0.7; stroke: #000000; stroke-opacity: 0.7; stroke-width: 0.5"/>
    <path d="M 305.965723 310.409322 
L 305.965723 310.218295 
L 305.774696 310.218295 
L 305.774696 310.409322 
L 305.965723 310.409322 
" clip-path="url(#p9ab4c0862d)" style="fill: #ff0000; fill-opacity: 0.7; stroke: #000000; stroke-opacity: 0.7; stroke-width: 0.5"/>
   </g>
   <g id="matplotlib.axis_1">
    <g id="xtick_1">
     <g id="line2d_1">
      <defs>
       <path id="m6e6a7deb0a" d="M 0 0 
L 0 3.5 
" style="stroke: #000000; stroke-width: 0.8"/>
      </defs>
      <g>
       <use xlink:href="#m6e6a7deb0a" x="93.425582" y="569.725012" style="stroke: #000000; stroke-width: 0.8"/>
      </g>
     </g>
     <g id="text_1">
      <!-- 387000 -->
      <g transform="translate(74.338082 584.32345) scale(0.1 -0.1)">
       <defs>
        <path id="DejaVuSans-33" d="M 2597 2516 
Q 3050 2419 3304 2112 
Q 3559 1806 3559 1356 
Q 3559 666 3084 287 
Q 2609 -91 1734 -91 
Q 1441 -91 1130 -33 
Q 819 25 488 141 
L 488 750 
Q 750 597 1062 519 
Q 1375 441 1716 441 
Q 2309 441 2620 675 
Q 2931 909 2931 1356 
Q 2931 1769 2642 2001 
Q 2353 2234 1838 2234 
L 1294 2234 
L 1294 2753 
L 1863 2753 
Q 2328 2753 2575 2939 
Q 2822 3125 2822 3475 
Q 2822 3834 2567 4026 
Q 2313 4219 1838 4219 
Q 1578 4219 1281 4162 
Q 984 4106 628 3988 
L 628 4550 
Q 988 4650 1302 4700 
Q 1616 4750 1894 4750 
Q 2613 4750 3031 4423 
Q 3450 4097 3450 3541 
Q 3450 3153 3228 2886 
Q 3006 2619 2597 2516 
z
" transform="scale(0.015625)"/>
        <path id="DejaVuSans-38" d="M 2034 2216 
Q 1584 2216 1326 1975 
Q 1069 1734 1069 1313 
Q 1069 891 1326 650 
Q 1584 409 2034 409 
Q 2484 409 2743 651 
Q 3003 894 3003 1313 
Q 3003 1734 2745 1975 
Q 2488 2216 2034 2216 
z
M 1403 2484 
Q 997 2584 770 2862 
Q 544 3141 544 3541 
Q 544 4100 942 4425 
Q 1341 4750 2034 4750 
Q 2731 4750 3128 4425 
Q 3525 4100 3525 3541 
Q 3525 3141 3298 2862 
Q 3072 2584 2669 2484 
Q 3125 2378 3379 2068 
Q 3634 1759 3634 1313 
Q 3634 634 3220 271 
Q 2806 -91 2034 -91 
Q 1263 -91 848 271 
Q 434 634 434 1313 
Q 434 1759 690 2068 
Q 947 2378 1403 2484 
z
M 1172 3481 
Q 1172 3119 1398 2916 
Q 1625 2713 2034 2713 
Q 2441 2713 2670 2916 
Q 2900 3119 2900 3481 
Q 2900 3844 2670 4047 
Q 2441 4250 2034 4250 
Q 1625 4250 1398 4047 
Q 1172 3844 1172 3481 
z
" transform="scale(0.015625)"/>
        <path id="DejaVuSans-37" d="M 525 4666 
L 3525 4666 
L 3525 4397 
L 1831 0 
L 1172 0 
L 2766 4134 
L 525 4134 
L 525 4666 
z
" transform="scale(0.015625)"/>
        <path id="DejaVuSans-30" d="M 2034 4250 
Q 1547 4250 1301 3770 
Q 1056 3291 1056 2328 
Q 1056 1369 1301 889 
Q 1547 409 2034 409 
Q 2525 409 2770 889 
Q 3016 1369 3016 2328 
Q 3016 3291 2770 3770 
Q 2525 4250 2034 4250 
z
M 2034 4750 
Q 2819 4750 3233 4129 
Q 3647 3509 3647 2328 
Q 3647 1150 3233 529 
Q 2819 -91 2034 -91 
Q 1250 -91 836 529 
Q 422 1150 422 2328 
Q 422 3509 836 4129 
Q 1250 4750 2034 4750 
z
" transform="scale(0.015625)"/>
       </defs>
       <use xlink:href="#DejaVuSans-33"/>
       <use xlink:href="#DejaVuSans-38" x="63.623047"/>
       <use xlink:href="#DejaVuSans-37" x="127.246094"/>
       <use xlink:href="#DejaVuSans-30" x="190.869141"/>
       <use xlink:href="#DejaVuSans-30" x="254.492188"/>
       <use xlink:href="#DejaVuSans-30" x="318.115234"/>
      </g>
     </g>
    </g>
    <g id="xtick_2">
     <g id="line2d_2">
      <g>
       <use xlink:href="#m6e6a7deb0a" x="188.938822" y="569.725012" style="stroke: #000000; stroke-width: 0.8"/>
      </g>
     </g>
     <g id="text_2">
      <!-- 387500 -->
      <g transform="translate(169.851322 584.32345) scale(0.1 -0.1)">
       <defs>
        <path id="DejaVuSans-35" d="M 691 4666 
L 3169 4666 
L 3169 4134 
L 1269 4134 
L 1269 2991 
Q 1406 3038 1543 3061 
Q 1681 3084 1819 3084 
Q 2600 3084 3056 2656 
Q 3513 2228 3513 1497 
Q 3513 744 3044 326 
Q 2575 -91 1722 -91 
Q 1428 -91 1123 -41 
Q 819 9 494 109 
L 494 744 
Q 775 591 1075 516 
Q 1375 441 1709 441 
Q 2250 441 2565 725 
Q 2881 1009 2881 1497 
Q 2881 1984 2565 2268 
Q 2250 2553 1709 2553 
Q 1456 2553 1204 2497 
Q 953 2441 691 2322 
L 691 4666 
z
" transform="scale(0.015625)"/>
       </defs>
       <use xlink:href="#DejaVuSans-33"/>
       <use xlink:href="#DejaVuSans-38" x="63.623047"/>
       <use xlink:href="#DejaVuSans-37" x="127.246094"/>
       <use xlink:href="#DejaVuSans-35" x="190.869141"/>
       <use xlink:href="#DejaVuSans-30" x="254.492188"/>
       <use xlink:href="#DejaVuSans-30" x="318.115234"/>
      </g>
     </g>
    </g>
    <g id="xtick_3">
     <g id="line2d_3">
      <g>
       <use xlink:href="#m6e6a7deb0a" x="284.452062" y="569.725012" style="stroke: #000000; stroke-width: 0.8"/>
      </g>
     </g>
     <g id="text_3">
      <!-- 388000 -->
      <g transform="translate(265.364562 584.32345) scale(0.1 -0.1)">
       <use xlink:href="#DejaVuSans-33"/>
       <use xlink:href="#DejaVuSans-38" x="63.623047"/>
       <use xlink:href="#DejaVuSans-38" x="127.246094"/>
       <use xlink:href="#DejaVuSans-30" x="190.869141"/>
       <use xlink:href="#DejaVuSans-30" x="254.492188"/>
       <use xlink:href="#DejaVuSans-30" x="318.115234"/>
      </g>
     </g>
    </g>
    <g id="xtick_4">
     <g id="line2d_4">
      <g>
       <use xlink:href="#m6e6a7deb0a" x="379.965302" y="569.725012" style="stroke: #000000; stroke-width: 0.8"/>
      </g>
     </g>
     <g id="text_4">
      <!-- 388500 -->
      <g transform="translate(360.877802 584.32345) scale(0.1 -0.1)">
       <use xlink:href="#DejaVuSans-33"/>
       <use xlink:href="#DejaVuSans-38" x="63.623047"/>
       <use xlink:href="#DejaVuSans-38" x="127.246094"/>
       <use xlink:href="#DejaVuSans-35" x="190.869141"/>
       <use xlink:href="#DejaVuSans-30" x="254.492188"/>
       <use xlink:href="#DejaVuSans-30" x="318.115234"/>
      </g>
     </g>
    </g>
    <g id="xtick_5">
     <g id="line2d_5">
      <g>
       <use xlink:href="#m6e6a7deb0a" x="475.478542" y="569.725012" style="stroke: #000000; stroke-width: 0.8"/>
      </g>
     </g>
     <g id="text_5">
      <!-- 389000 -->
      <g transform="translate(456.391042 584.32345) scale(0.1 -0.1)">
       <defs>
        <path id="DejaVuSans-39" d="M 703 97 
L 703 672 
Q 941 559 1184 500 
Q 1428 441 1663 441 
Q 2288 441 2617 861 
Q 2947 1281 2994 2138 
Q 2813 1869 2534 1725 
Q 2256 1581 1919 1581 
Q 1219 1581 811 2004 
Q 403 2428 403 3163 
Q 403 3881 828 4315 
Q 1253 4750 1959 4750 
Q 2769 4750 3195 4129 
Q 3622 3509 3622 2328 
Q 3622 1225 3098 567 
Q 2575 -91 1691 -91 
Q 1453 -91 1209 -44 
Q 966 3 703 97 
z
M 1959 2075 
Q 2384 2075 2632 2365 
Q 2881 2656 2881 3163 
Q 2881 3666 2632 3958 
Q 2384 4250 1959 4250 
Q 1534 4250 1286 3958 
Q 1038 3666 1038 3163 
Q 1038 2656 1286 2365 
Q 1534 2075 1959 2075 
z
" transform="scale(0.015625)"/>
       </defs>
       <use xlink:href="#DejaVuSans-33"/>
       <use xlink:href="#DejaVuSans-38" x="63.623047"/>
       <use xlink:href="#DejaVuSans-39" x="127.246094"/>
       <use xlink:href="#DejaVuSans-30" x="190.869141"/>
       <use xlink:href="#DejaVuSans-30" x="254.492188"/>
       <use xlink:href="#DejaVuSans-30" x="318.115234"/>
      </g>
     </g>
    </g>
    <g id="xtick_6">
     <g id="line2d_6">
      <g>
       <use xlink:href="#m6e6a7deb0a" x="570.991782" y="569.725012" style="stroke: #000000; stroke-width: 0.8"/>
      </g>
     </g>
     <g id="text_6">
      <!-- 389500 -->
      <g transform="translate(551.904282 584.32345) scale(0.1 -0.1)">
       <use xlink:href="#DejaVuSans-33"/>
       <use xlink:href="#DejaVuSans-38" x="63.623047"/>
       <use xlink:href="#DejaVuSans-39" x="127.246094"/>
       <use xlink:href="#DejaVuSans-35" x="190.869141"/>
       <use xlink:href="#DejaVuSans-30" x="254.492188"/>
       <use xlink:href="#DejaVuSans-30" x="318.115234"/>
      </g>
     </g>
    </g>
   </g>
   <g id="matplotlib.axis_2">
    <g id="ytick_1">
     <g id="line2d_7">
      <defs>
       <path id="md867b0eb1a" d="M 0 0 
L -3.5 0 
" style="stroke: #000000; stroke-width: 0.8"/>
      </defs>
      <g>
       <use xlink:href="#md867b0eb1a" x="90" y="557.197242" style="stroke: #000000; stroke-width: 0.8"/>
      </g>
     </g>
     <g id="text_7">
      <!-- 5.81650 -->
      <g transform="translate(41.646875 560.996461) scale(0.1 -0.1)">
       <defs>
        <path id="DejaVuSans-2e" d="M 684 794 
L 1344 794 
L 1344 0 
L 684 0 
L 684 794 
z
" transform="scale(0.015625)"/>
        <path id="DejaVuSans-31" d="M 794 531 
L 1825 531 
L 1825 4091 
L 703 3866 
L 703 4441 
L 1819 4666 
L 2450 4666 
L 2450 531 
L 3481 531 
L 3481 0 
L 794 0 
L 794 531 
z
" transform="scale(0.015625)"/>
        <path id="DejaVuSans-36" d="M 2113 2584 
Q 1688 2584 1439 2293 
Q 1191 2003 1191 1497 
Q 1191 994 1439 701 
Q 1688 409 2113 409 
Q 2538 409 2786 701 
Q 3034 994 3034 1497 
Q 3034 2003 2786 2293 
Q 2538 2584 2113 2584 
z
M 3366 4563 
L 3366 3988 
Q 3128 4100 2886 4159 
Q 2644 4219 2406 4219 
Q 1781 4219 1451 3797 
Q 1122 3375 1075 2522 
Q 1259 2794 1537 2939 
Q 1816 3084 2150 3084 
Q 2853 3084 3261 2657 
Q 3669 2231 3669 1497 
Q 3669 778 3244 343 
Q 2819 -91 2113 -91 
Q 1303 -91 875 529 
Q 447 1150 447 2328 
Q 447 3434 972 4092 
Q 1497 4750 2381 4750 
Q 2619 4750 2861 4703 
Q 3103 4656 3366 4563 
z
" transform="scale(0.015625)"/>
       </defs>
       <use xlink:href="#DejaVuSans-35"/>
       <use xlink:href="#DejaVuSans-2e" x="63.623047"/>
       <use xlink:href="#DejaVuSans-38" x="95.410156"/>
       <use xlink:href="#DejaVuSans-31" x="159.033203"/>
       <use xlink:href="#DejaVuSans-36" x="222.65625"/>
       <use xlink:href="#DejaVuSans-35" x="286.279297"/>
       <use xlink:href="#DejaVuSans-30" x="349.902344"/>
      </g>
     </g>
    </g>
    <g id="ytick_2">
     <g id="line2d_8">
      <g>
       <use xlink:href="#md867b0eb1a" x="90" y="509.440622" style="stroke: #000000; stroke-width: 0.8"/>
      </g>
     </g>
     <g id="text_8">
      <!-- 5.81675 -->
      <g transform="translate(41.646875 513.239841) scale(0.1 -0.1)">
       <use xlink:href="#DejaVuSans-35"/>
       <use xlink:href="#DejaVuSans-2e" x="63.623047"/>
       <use xlink:href="#DejaVuSans-38" x="95.410156"/>
       <use xlink:href="#DejaVuSans-31" x="159.033203"/>
       <use xlink:href="#DejaVuSans-36" x="222.65625"/>
       <use xlink:href="#DejaVuSans-37" x="286.279297"/>
       <use xlink:href="#DejaVuSans-35" x="349.902344"/>
      </g>
     </g>
    </g>
    <g id="ytick_3">
     <g id="line2d_9">
      <g>
       <use xlink:href="#md867b0eb1a" x="90" y="461.684002" style="stroke: #000000; stroke-width: 0.8"/>
      </g>
     </g>
     <g id="text_9">
      <!-- 5.81700 -->
      <g transform="translate(41.646875 465.483221) scale(0.1 -0.1)">
       <use xlink:href="#DejaVuSans-35"/>
       <use xlink:href="#DejaVuSans-2e" x="63.623047"/>
       <use xlink:href="#DejaVuSans-38" x="95.410156"/>
       <use xlink:href="#DejaVuSans-31" x="159.033203"/>
       <use xlink:href="#DejaVuSans-37" x="222.65625"/>
       <use xlink:href="#DejaVuSans-30" x="286.279297"/>
       <use xlink:href="#DejaVuSans-30" x="349.902344"/>
      </g>
     </g>
    </g>
    <g id="ytick_4">
     <g id="line2d_10">
      <g>
       <use xlink:href="#md867b0eb1a" x="90" y="413.927382" style="stroke: #000000; stroke-width: 0.8"/>
      </g>
     </g>
     <g id="text_10">
      <!-- 5.81725 -->
      <g transform="translate(41.646875 417.726601) scale(0.1 -0.1)">
       <defs>
        <path id="DejaVuSans-32" d="M 1228 531 
L 3431 531 
L 3431 0 
L 469 0 
L 469 531 
Q 828 903 1448 1529 
Q 2069 2156 2228 2338 
Q 2531 2678 2651 2914 
Q 2772 3150 2772 3378 
Q 2772 3750 2511 3984 
Q 2250 4219 1831 4219 
Q 1534 4219 1204 4116 
Q 875 4013 500 3803 
L 500 4441 
Q 881 4594 1212 4672 
Q 1544 4750 1819 4750 
Q 2544 4750 2975 4387 
Q 3406 4025 3406 3419 
Q 3406 3131 3298 2873 
Q 3191 2616 2906 2266 
Q 2828 2175 2409 1742 
Q 1991 1309 1228 531 
z
" transform="scale(0.015625)"/>
       </defs>
       <use xlink:href="#DejaVuSans-35"/>
       <use xlink:href="#DejaVuSans-2e" x="63.623047"/>
       <use xlink:href="#DejaVuSans-38" x="95.410156"/>
       <use xlink:href="#DejaVuSans-31" x="159.033203"/>
       <use xlink:href="#DejaVuSans-37" x="222.65625"/>
       <use xlink:href="#DejaVuSans-32" x="286.279297"/>
       <use xlink:href="#DejaVuSans-35" x="349.902344"/>
      </g>
     </g>
    </g>
    <g id="ytick_5">
     <g id="line2d_11">
      <g>
       <use xlink:href="#md867b0eb1a" x="90" y="366.170763" style="stroke: #000000; stroke-width: 0.8"/>
      </g>
     </g>
     <g id="text_11">
      <!-- 5.81750 -->
      <g transform="translate(41.646875 369.969981) scale(0.1 -0.1)">
       <use xlink:href="#DejaVuSans-35"/>
       <use xlink:href="#DejaVuSans-2e" x="63.623047"/>
       <use xlink:href="#DejaVuSans-38" x="95.410156"/>
       <use xlink:href="#DejaVuSans-31" x="159.033203"/>
       <use xlink:href="#DejaVuSans-37" x="222.65625"/>
       <use xlink:href="#DejaVuSans-35" x="286.279297"/>
       <use xlink:href="#DejaVuSans-30" x="349.902344"/>
      </g>
     </g>
    </g>
    <g id="ytick_6">
     <g id="line2d_12">
      <g>
       <use xlink:href="#md867b0eb1a" x="90" y="318.414143" style="stroke: #000000; stroke-width: 0.8"/>
      </g>
     </g>
     <g id="text_12">
      <!-- 5.81775 -->
      <g transform="translate(41.646875 322.213361) scale(0.1 -0.1)">
       <use xlink:href="#DejaVuSans-35"/>
       <use xlink:href="#DejaVuSans-2e" x="63.623047"/>
       <use xlink:href="#DejaVuSans-38" x="95.410156"/>
       <use xlink:href="#DejaVuSans-31" x="159.033203"/>
       <use xlink:href="#DejaVuSans-37" x="222.65625"/>
       <use xlink:href="#DejaVuSans-37" x="286.279297"/>
       <use xlink:href="#DejaVuSans-35" x="349.902344"/>
      </g>
     </g>
    </g>
    <g id="ytick_7">
     <g id="line2d_13">
      <g>
       <use xlink:href="#md867b0eb1a" x="90" y="270.657523" style="stroke: #000000; stroke-width: 0.8"/>
      </g>
     </g>
     <g id="text_13">
      <!-- 5.81800 -->
      <g transform="translate(41.646875 274.456741) scale(0.1 -0.1)">
       <use xlink:href="#DejaVuSans-35"/>
       <use xlink:href="#DejaVuSans-2e" x="63.623047"/>
       <use xlink:href="#DejaVuSans-38" x="95.410156"/>
       <use xlink:href="#DejaVuSans-31" x="159.033203"/>
       <use xlink:href="#DejaVuSans-38" x="222.65625"/>
       <use xlink:href="#DejaVuSans-30" x="286.279297"/>
       <use xlink:href="#DejaVuSans-30" x="349.902344"/>
      </g>
     </g>
    </g>
    <g id="ytick_8">
     <g id="line2d_14">
      <g>
       <use xlink:href="#md867b0eb1a" x="90" y="222.900903" style="stroke: #000000; stroke-width: 0.8"/>
      </g>
     </g>
     <g id="text_14">
      <!-- 5.81825 -->
      <g transform="translate(41.646875 226.700121) scale(0.1 -0.1)">
       <use xlink:href="#DejaVuSans-35"/>
       <use xlink:href="#DejaVuSans-2e" x="63.623047"/>
       <use xlink:href="#DejaVuSans-38" x="95.410156"/>
       <use xlink:href="#DejaVuSans-31" x="159.033203"/>
       <use xlink:href="#DejaVuSans-38" x="222.65625"/>
       <use xlink:href="#DejaVuSans-32" x="286.279297"/>
       <use xlink:href="#DejaVuSans-35" x="349.902344"/>
      </g>
     </g>
    </g>
    <g id="ytick_9">
     <g id="line2d_15">
      <g>
       <use xlink:href="#md867b0eb1a" x="90" y="175.144283" style="stroke: #000000; stroke-width: 0.8"/>
      </g>
     </g>
     <g id="text_15">
      <!-- 5.81850 -->
      <g transform="translate(41.646875 178.943502) scale(0.1 -0.1)">
       <use xlink:href="#DejaVuSans-35"/>
       <use xlink:href="#DejaVuSans-2e" x="63.623047"/>
       <use xlink:href="#DejaVuSans-38" x="95.410156"/>
       <use xlink:href="#DejaVuSans-31" x="159.033203"/>
       <use xlink:href="#DejaVuSans-38" x="222.65625"/>
       <use xlink:href="#DejaVuSans-35" x="286.279297"/>
       <use xlink:href="#DejaVuSans-30" x="349.902344"/>
      </g>
     </g>
    </g>
    <g id="text_16">
     <!-- 1e6 -->
     <g transform="translate(90 154.474988) scale(0.1 -0.1)">
      <defs>
       <path id="DejaVuSans-65" d="M 3597 1894 
L 3597 1613 
L 953 1613 
Q 991 1019 1311 708 
Q 1631 397 2203 397 
Q 2534 397 2845 478 
Q 3156 559 3463 722 
L 3463 178 
Q 3153 47 2828 -22 
Q 2503 -91 2169 -91 
Q 1331 -91 842 396 
Q 353 884 353 1716 
Q 353 2575 817 3079 
Q 1281 3584 2069 3584 
Q 2775 3584 3186 3129 
Q 3597 2675 3597 1894 
z
M 3022 2063 
Q 3016 2534 2758 2815 
Q 2500 3097 2075 3097 
Q 1594 3097 1305 2825 
Q 1016 2553 972 2059 
L 3022 2063 
z
" transform="scale(0.015625)"/>
      </defs>
      <use xlink:href="#DejaVuSans-31"/>
      <use xlink:href="#DejaVuSans-65" x="63.623047"/>
      <use xlink:href="#DejaVuSans-36" x="125.146484"/>
     </g>
    </g>
   </g>
   <g id="patch_3">
    <path d="M 90 569.725012 
L 90 157.474988 
" style="fill: none; stroke: #000000; stroke-width: 0.8; stroke-linejoin: miter; stroke-linecap: square"/>
   </g>
   <g id="patch_4">
    <path d="M 648 569.725012 
L 648 157.474988 
" style="fill: none; stroke: #000000; stroke-width: 0.8; stroke-linejoin: miter; stroke-linecap: square"/>
   </g>
   <g id="patch_5">
    <path d="M 90 569.725012 
L 648 569.725012 
" style="fill: none; stroke: #000000; stroke-width: 0.8; stroke-linejoin: miter; stroke-linecap: square"/>
   </g>
   <g id="patch_6">
    <path d="M 90 157.474988 
L 648 157.474988 
" style="fill: none; stroke: #000000; stroke-width: 0.8; stroke-linejoin: miter; stroke-linecap: square"/>
   </g>
   <g id="text_17">
    <!-- Schneberg_Nord -->
    <g transform="translate(290.757784 379.055155) scale(0.12 -0.12)">
     <defs>
      <path id="DejaVuSans-53" d="M 3425 4513 
L 3425 3897 
Q 3066 4069 2747 4153 
Q 2428 4238 2131 4238 
Q 1616 4238 1336 4038 
Q 1056 3838 1056 3469 
Q 1056 3159 1242 3001 
Q 1428 2844 1947 2747 
L 2328 2669 
Q 3034 2534 3370 2195 
Q 3706 1856 3706 1288 
Q 3706 609 3251 259 
Q 2797 -91 1919 -91 
Q 1588 -91 1214 -16 
Q 841 59 441 206 
L 441 856 
Q 825 641 1194 531 
Q 1563 422 1919 422 
Q 2459 422 2753 634 
Q 3047 847 3047 1241 
Q 3047 1584 2836 1778 
Q 2625 1972 2144 2069 
L 1759 2144 
Q 1053 2284 737 2584 
Q 422 2884 422 3419 
Q 422 4038 858 4394 
Q 1294 4750 2059 4750 
Q 2388 4750 2728 4690 
Q 3069 4631 3425 4513 
z
" transform="scale(0.015625)"/>
      <path id="DejaVuSans-63" d="M 3122 3366 
L 3122 2828 
Q 2878 2963 2633 3030 
Q 2388 3097 2138 3097 
Q 1578 3097 1268 2742 
Q 959 2388 959 1747 
Q 959 1106 1268 751 
Q 1578 397 2138 397 
Q 2388 397 2633 464 
Q 2878 531 3122 666 
L 3122 134 
Q 2881 22 2623 -34 
Q 2366 -91 2075 -91 
Q 1284 -91 818 406 
Q 353 903 353 1747 
Q 353 2603 823 3093 
Q 1294 3584 2113 3584 
Q 2378 3584 2631 3529 
Q 2884 3475 3122 3366 
z
" transform="scale(0.015625)"/>
      <path id="DejaVuSans-68" d="M 3513 2113 
L 3513 0 
L 2938 0 
L 2938 2094 
Q 2938 2591 2744 2837 
Q 2550 3084 2163 3084 
Q 1697 3084 1428 2787 
Q 1159 2491 1159 1978 
L 1159 0 
L 581 0 
L 581 4863 
L 1159 4863 
L 1159 2956 
Q 1366 3272 1645 3428 
Q 1925 3584 2291 3584 
Q 2894 3584 3203 3211 
Q 3513 2838 3513 2113 
z
" transform="scale(0.015625)"/>
      <path id="DejaVuSans-f6" d="M 1959 3097 
Q 1497 3097 1228 2736 
Q 959 2375 959 1747 
Q 959 1119 1226 758 
Q 1494 397 1959 397 
Q 2419 397 2687 759 
Q 2956 1122 2956 1747 
Q 2956 2369 2687 2733 
Q 2419 3097 1959 3097 
z
M 1959 3584 
Q 2709 3584 3137 3096 
Q 3566 2609 3566 1747 
Q 3566 888 3137 398 
Q 2709 -91 1959 -91 
Q 1206 -91 779 398 
Q 353 888 353 1747 
Q 353 2609 779 3096 
Q 1206 3584 1959 3584 
z
M 2253 4850 
L 2888 4850 
L 2888 4219 
L 2253 4219 
L 2253 4850 
z
M 1031 4850 
L 1666 4850 
L 1666 4219 
L 1031 4219 
L 1031 4850 
z
" transform="scale(0.015625)"/>
      <path id="DejaVuSans-6e" d="M 3513 2113 
L 3513 0 
L 2938 0 
L 2938 2094 
Q 2938 2591 2744 2837 
Q 2550 3084 2163 3084 
Q 1697 3084 1428 2787 
Q 1159 2491 1159 1978 
L 1159 0 
L 581 0 
L 581 3500 
L 1159 3500 
L 1159 2956 
Q 1366 3272 1645 3428 
Q 1925 3584 2291 3584 
Q 2894 3584 3203 3211 
Q 3513 2838 3513 2113 
z
" transform="scale(0.015625)"/>
      <path id="DejaVuSans-62" d="M 3116 1747 
Q 3116 2381 2855 2742 
Q 2594 3103 2138 3103 
Q 1681 3103 1420 2742 
Q 1159 2381 1159 1747 
Q 1159 1113 1420 752 
Q 1681 391 2138 391 
Q 2594 391 2855 752 
Q 3116 1113 3116 1747 
z
M 1159 2969 
Q 1341 3281 1617 3432 
Q 1894 3584 2278 3584 
Q 2916 3584 3314 3078 
Q 3713 2572 3713 1747 
Q 3713 922 3314 415 
Q 2916 -91 2278 -91 
Q 1894 -91 1617 61 
Q 1341 213 1159 525 
L 1159 0 
L 581 0 
L 581 4863 
L 1159 4863 
L 1159 2969 
z
" transform="scale(0.015625)"/>
      <path id="DejaVuSans-72" d="M 2631 2963 
Q 2534 3019 2420 3045 
Q 2306 3072 2169 3072 
Q 1681 3072 1420 2755 
Q 1159 2438 1159 1844 
L 1159 0 
L 581 0 
L 581 3500 
L 1159 3500 
L 1159 2956 
Q 1341 3275 1631 3429 
Q 1922 3584 2338 3584 
Q 2397 3584 2469 3576 
Q 2541 3569 2628 3553 
L 2631 2963 
z
" transform="scale(0.015625)"/>
      <path id="DejaVuSans-67" d="M 2906 1791 
Q 2906 2416 2648 2759 
Q 2391 3103 1925 3103 
Q 1463 3103 1205 2759 
Q 947 2416 947 1791 
Q 947 1169 1205 825 
Q 1463 481 1925 481 
Q 2391 481 2648 825 
Q 2906 1169 2906 1791 
z
M 3481 434 
Q 3481 -459 3084 -895 
Q 2688 -1331 1869 -1331 
Q 1566 -1331 1297 -1286 
Q 1028 -1241 775 -1147 
L 775 -588 
Q 1028 -725 1275 -790 
Q 1522 -856 1778 -856 
Q 2344 -856 2625 -561 
Q 2906 -266 2906 331 
L 2906 616 
Q 2728 306 2450 153 
Q 2172 0 1784 0 
Q 1141 0 747 490 
Q 353 981 353 1791 
Q 353 2603 747 3093 
Q 1141 3584 1784 3584 
Q 2172 3584 2450 3431 
Q 2728 3278 2906 2969 
L 2906 3500 
L 3481 3500 
L 3481 434 
z
" transform="scale(0.015625)"/>
      <path id="DejaVuSans-5f" d="M 3263 -1063 
L 3263 -1509 
L -63 -1509 
L -63 -1063 
L 3263 -1063 
z
" transform="scale(0.015625)"/>
      <path id="DejaVuSans-4e" d="M 628 4666 
L 1478 4666 
L 3547 763 
L 3547 4666 
L 4159 4666 
L 4159 0 
L 3309 0 
L 1241 3903 
L 1241 0 
L 628 0 
L 628 4666 
z
" transform="scale(0.015625)"/>
      <path id="DejaVuSans-6f" d="M 1959 3097 
Q 1497 3097 1228 2736 
Q 959 2375 959 1747 
Q 959 1119 1226 758 
Q 1494 397 1959 397 
Q 2419 397 2687 759 
Q 2956 1122 2956 1747 
Q 2956 2369 2687 2733 
Q 2419 3097 1959 3097 
z
M 1959 3584 
Q 2709 3584 3137 3096 
Q 3566 2609 3566 1747 
Q 3566 888 3137 398 
Q 2709 -91 1959 -91 
Q 1206 -91 779 398 
Q 353 888 353 1747 
Q 353 2609 779 3096 
Q 1206 3584 1959 3584 
z
" transform="scale(0.015625)"/>
      <path id="DejaVuSans-64" d="M 2906 2969 
L 2906 4863 
L 3481 4863 
L 3481 0 
L 2906 0 
L 2906 525 
Q 2725 213 2448 61 
Q 2172 -91 1784 -91 
Q 1150 -91 751 415 
Q 353 922 353 1747 
Q 353 2572 751 3078 
Q 1150 3584 1784 3584 
Q 2172 3584 2448 3432 
Q 2725 3281 2906 2969 
z
M 947 1747 
Q 947 1113 1208 752 
Q 1469 391 1925 391 
Q 2381 391 2643 752 
Q 2906 1113 2906 1747 
Q 2906 2381 2643 2742 
Q 2381 3103 1925 3103 
Q 1469 3103 1208 2742 
Q 947 2381 947 1747 
z
" transform="scale(0.015625)"/>
     </defs>
     <use xlink:href="#DejaVuSans-53"/>
     <use xlink:href="#DejaVuSans-63" x="63.476562"/>
     <use xlink:href="#DejaVuSans-68" x="118.457031"/>
     <use xlink:href="#DejaVuSans-f6" x="181.835938"/>
     <use xlink:href="#DejaVuSans-6e" x="243.017578"/>
     <use xlink:href="#DejaVuSans-65" x="306.396484"/>
     <use xlink:href="#DejaVuSans-62" x="367.919922"/>
     <use xlink:href="#DejaVuSans-65" x="431.396484"/>
     <use xlink:href="#DejaVuSans-72" x="492.919922"/>
     <use xlink:href="#DejaVuSans-67" x="532.283203"/>
     <use xlink:href="#DejaVuSans-5f" x="595.759766"/>
     <use xlink:href="#DejaVuSans-4e" x="645.759766"/>
     <use xlink:href="#DejaVuSans-6f" x="720.564453"/>
     <use xlink:href="#DejaVuSans-72" x="781.746094"/>
     <use xlink:href="#DejaVuSans-64" x="821.109375"/>
    </g>
   </g>
  </g>
 </g>
 <defs>
  <clipPath id="p9ab4c0862d">
   <rect x="90" y="157.474988" width="558" height="412.250024"/>
  </clipPath>
 </defs>
</svg>
