<?xml version="1.0" encoding="utf-8" standalone="no"?>
<!DOCTYPE svg PUBLIC "-//W3C//DTD SVG 1.1//EN"
  "http://www.w3.org/Graphics/SVG/1.1/DTD/svg11.dtd">
<svg xmlns:xlink="http://www.w3.org/1999/xlink" width="720pt" height="720pt" viewBox="0 0 720 720" xmlns="http://www.w3.org/2000/svg" version="1.1">
 <metadata>
  <rdf:RDF xmlns:dc="http://purl.org/dc/elements/1.1/" xmlns:cc="http://creativecommons.org/ns#" xmlns:rdf="http://www.w3.org/1999/02/22-rdf-syntax-ns#">
   <cc:Work>
    <dc:type rdf:resource="http://purl.org/dc/dcmitype/StillImage"/>
    <dc:date>2024-10-15T13:01:18.320069</dc:date>
    <dc:format>image/svg+xml</dc:format>
    <dc:creator>
     <cc:Agent>
      <dc:title>Matplotlib v3.9.2, https://matplotlib.org/</dc:title>
     </cc:Agent>
    </dc:creator>
   </cc:Work>
  </rdf:RDF>
 </metadata>
 <defs>
  <style type="text/css">*{stroke-linejoin: round; stroke-linecap: butt}</style>
 </defs>
 <g id="figure_1">
  <g id="patch_1">
   <path d="M 0 720 
L 720 720 
L 720 0 
L 0 0 
z
" style="fill: #ffffff"/>
  </g>
  <g id="axes_1">
   <g id="patch_2">
    <path d="M 90 560.748364 
L 648 560.748364 
L 648 166.451636 
L 90 166.451636 
z
" style="fill: #ffffff"/>
   </g>
   <g id="PatchCollection_1">
    <path d="M 339.314607 212.157729 
L 337.465254 215.124975 
L 336.306351 216.985196 
L 336.130148 217.268129 
L 335.46777 218.331427 
L 333.619711 221.296214 
L 333.391113 221.662075 
L 331.632965 224.48339 
L 331.624664 224.496716 
L 329.778178 227.460985 
L 328.916181 228.843569 
L 328.752398 229.106451 
L 328.34915 229.753175 
L 325.819436 227.273139 
L 323.379764 225.766229 
L 323.269799 225.698181 
L 313.402698 219.611808 
L 305.484308 214.717587 
L 296.350092 209.070557 
L 294.692983 208.056679 
L 291.35936 206.001755 
L 289.047894 204.563283 
L 286.739016 203.122223 
L 284.433631 201.700698 
L 281.097549 199.651079 
L 279.44678 198.632673 
L 276.302814 196.684739 
L 273.993677 195.259204 
L 271.680658 193.831081 
L 269.647728 192.573857 
L 267.610657 191.326853 
L 266.204398 190.448944 
L 264.176642 190.346999 
L 259.967438 190.129915 
L 257.336169 189.993171 
L 256.064714 189.919817 
L 253.310671 189.77958 
L 249.604201 189.590052 
L 246.307061 189.436877 
L 244.19405 189.32937 
L 233.150711 188.765055 
L 230.381144 188.624429 
L 225.14189 188.356632 
L 222.036348 188.199188 
L 204.332231 187.294757 
L 198.709005 187.011953 
L 196.809327 186.911173 
L 183.836424 186.249313 
L 182.175823 186.164575 
L 181.863651 186.153967 
L 181.551221 186.153449 
L 181.23892 186.162893 
L 180.927137 186.182299 
L 180.697504 186.202222 
L 180.468389 186.227579 
L 180.240049 186.258498 
L 179.88842 186.317362 
L 179.539119 186.389033 
L 179.192664 186.473383 
L 178.849573 186.570282 
L 178.510234 186.679729 
L 178.174905 186.80095 
L 177.844234 186.934331 
L 177.518737 187.079614 
L 177.198674 187.236799 
L 176.884562 187.405499 
L 176.648332 187.542761 
L 176.415982 187.686621 
L 176.187901 187.83682 
L 175.963961 187.993488 
L 175.77702 188.133467 
L 175.593702 188.277845 
L 175.413747 188.426751 
L 175.332761 189.210349 
L 174.725883 188.812922 
L 174.124827 188.406957 
L 173.529464 187.992453 
L 172.940051 187.569541 
L 172.356719 187.138348 
L 172.166544 186.995523 
L 171.976886 186.851792 
L 171.788005 186.707156 
L 171.59796 186.558897 
L 171.408561 186.409862 
L 171.21955 186.260309 
L 171.012687 186.091998 
L 170.811127 185.917348 
L 170.615001 185.736617 
L 169.506165 184.684575 
L 169.179116 184.374215 
L 168.148032 185.843218 
L 166.477339 188.223121 
L 166.414465 188.316915 
L 165.26837 190.026807 
L 164.400164 190.776769 
L 162.905933 192.067371 
L 161.55789 193.231836 
L 160.019414 194.560731 
L 159.726131 194.81391 
L 157.236005 196.960816 
L 154.571874 199.257792 
L 154.502532 199.313033 
L 154.432025 199.366463 
L 154.360095 199.418341 
L 154.224902 199.52132 
L 154.087381 199.620936 
L 153.947532 199.717317 
L 153.756969 199.840736 
L 153.562525 199.957946 
L 153.364329 200.068817 
L 153.162769 200.173348 
L 152.950601 200.259897 
L 152.735846 200.339719 
L 152.518633 200.412555 
L 152.299091 200.478404 
L 152.015769 200.548782 
L 151.729342 200.605317 
L 151.440587 200.64788 
L 151.15015 200.676471 
L 150.858548 200.69109 
L 150.566559 200.691607 
L 150.275087 200.677894 
L 149.984391 200.650209 
L 149.695506 200.608422 
L 149.40895 200.552792 
L 149.239733 200.514628 
L 149.069481 200.482027 
L 148.898195 200.454988 
L 148.726132 200.433383 
L 148.418876 200.415401 
L 148.110974 200.41346 
L 147.803589 200.427562 
L 147.49724 200.457446 
L 147.19283 200.503243 
L 146.891267 200.564824 
L 146.593197 200.641929 
L 146.458268 200.684447 
L 146.011159 200.841936 
L 145.728743 200.964321 
L 145.453054 201.101195 
L 144.747984 201.506901 
L 143.589211 202.175618 
L 141.43079 203.292346 
L 141.05872 203.474241 
L 137.845929 204.801196 
L 135.310394 205.760738 
L 132.974218 212.758785 
L 132.261645 214.892754 
L 131.437941 217.359336 
L 130.049794 221.513945 
L 129.137343 224.263719 
L 128.185434 227.110908 
L 128.041315 227.542877 
L 127.07194 230.780895 
L 126.332975 233.175158 
L 125.980828 234.4144 
L 125.63295 235.654806 
L 125.289213 236.896376 
L 125.09037 237.607915 
L 124.902394 238.322429 
L 124.725415 239.03966 
L 124.559562 239.759607 
L 124.491513 240.06117 
L 124.424499 240.363122 
L 124.358649 240.665202 
L 124.312335 240.868961 
L 124.267055 241.072849 
L 124.22281 241.276996 
L 124.127464 241.786716 
L 124.036258 242.297342 
L 123.949191 242.808615 
L 123.860314 243.367108 
L 123.77467 243.926119 
L 123.692132 244.485518 
L 123.625376 244.868455 
L 123.588506 245.107015 
L 123.276334 247.304117 
L 122.877485 250.120516 
L 122.588082 252.208041 
L 122.125841 255.496773 
L 121.460229 260.230316 
L 121.200582 262.114082 
L 121.085442 262.943607 
L 119.777375 272.368001 
L 119.720064 272.780435 
L 119.669092 273.132452 
L 119.627047 273.439578 
L 119.30362 275.754149 
L 118.981616 278.06238 
L 118.491302 281.646983 
L 118.444081 281.991238 
L 118.011207 285.028861 
L 117.538875 288.21332 
L 116.977665 292.337786 
L 116.352416 296.734836 
L 115.808218 300.641058 
L 115.363636 303.832241 
L 115.583049 304.135356 
L 116.316451 306.861972 
L 121.068106 305.591423 
L 128.614556 303.573629 
L 138.074268 301.044303 
L 141.974147 300.001575 
L 141.372056 303.155891 
L 139.314416 314.701705 
L 139.062919 316.427251 
L 138.576485 319.764885 
L 138.519692 320.011724 
L 138.68645 320.2182 
L 140.743962 322.765896 
L 143.856102 326.619589 
L 145.078138 328.132838 
L 145.130274 328.197394 
L 145.178012 328.256516 
L 145.48475 328.63609 
L 145.658624 328.851622 
L 146.982603 330.491007 
L 147.581719 331.232947 
L 155.899476 345.478598 
L 158.151819 347.648144 
L 158.314438 347.805071 
L 157.696564 348.287235 
L 156.954494 348.866428 
L 152.904416 352.026824 
L 153.371703 352.771611 
L 154.207825 354.104517 
L 154.394766 354.402199 
L 154.508742 354.583964 
L 156.677641 358.041137 
L 157.546882 359.426438 
L 158.734117 361.319001 
L 162.110432 366.700691 
L 164.711559 370.189818 
L 165.016615 370.571203 
L 165.579636 371.27485 
L 165.620647 371.42699 
L 165.668384 371.602158 
L 165.757392 371.928948 
L 166.060507 372.718627 
L 166.26142 373.104281 
L 166.398811 373.368067 
L 166.446161 373.459532 
L 166.903227 374.121393 
L 167.345546 374.605886 
L 167.450336 374.735903 
L 168.09305 375.29155 
L 171.83639 377.973146 
L 172.22683 378.253492 
L 175.283471 380.442185 
L 175.832261 380.835601 
L 177.025576 381.419709 
L 179.210388 382.512892 
L 179.821535 382.8195 
L 181.574637 384.173623 
L 183.411701 385.59269 
L 185.20025 386.982389 
L 186.208824 387.75318 
L 187.837471 390.100222 
L 189.617353 392.665125 
L 191.141986 392.149454 
L 192.965693 393.523019 
L 195.587679 395.497825 
L 205.916116 390.636334 
L 207.494697 389.875764 
L 207.203871 389.27639 
L 212.861509 386.546798 
L 212.921279 386.500872 
L 212.988681 386.467235 
L 213.061387 386.447312 
L 213.136422 386.441491 
L 213.211328 386.450288 
L 213.282999 386.473316 
L 213.348978 386.509669 
L 213.406807 386.558054 
L 213.454286 386.616529 
L 213.489604 386.683026 
L 213.511597 386.755214 
L 213.51923 386.83012 
L 213.310943 387.915022 
L 211.602086 396.812878 
L 211.397939 397.962595 
L 211.397551 398.015508 
L 211.232603 398.787333 
L 210.888219 400.638369 
L 210.77903 403.112324 
L 210.695586 404.396328 
L 210.503082 409.123144 
L 210.466988 410.008945 
L 210.459743 410.190322 
L 210.393764 411.810172 
L 210.325068 413.321998 
L 210.225065 415.516642 
L 210.12726 417.666006 
L 210.096549 418.405106 
L 210.069432 419.010297 
L 210.074995 419.27072 
L 209.928159 423.039287 
L 209.834106 424.309578 
L 209.448323 425.82619 
L 210.432058 425.522816 
L 212.463306 422.922336 
L 212.700831 422.744452 
L 212.716356 422.200189 
L 212.776901 422.278976 
L 213.216632 422.899179 
L 213.612377 422.902801 
L 213.82545 422.710427 
L 214.039559 422.519217 
L 214.254573 422.329042 
L 214.498436 422.131752 
L 214.743982 421.936791 
L 214.991468 421.744158 
L 225.19739 414.190851 
L 227.649482 412.376298 
L 229.909717 410.703406 
L 230.522934 410.22991 
L 233.145924 408.21121 
L 233.187323 408.277965 
L 235.895827 412.615505 
L 234.529931 413.598334 
L 235.951068 415.871635 
L 237.237918 417.93031 
L 237.897838 420.720189 
L 238.727492 424.227557 
L 239.614975 426.402148 
L 239.972063 427.10963 
L 241.036758 429.217513 
L 244.852158 436.771983 
L 246.067854 439.178925 
L 246.313529 439.051624 
L 248.916855 441.401254 
L 247.932344 442.427681 
L 249.756471 444.190615 
L 250.657925 446.311259 
L 251.197013 447.348553 
L 251.921877 451.50161 
L 252.165741 453.420177 
L 252.219947 453.846971 
L 252.513101 455.998017 
L 254.435549 461.971966 
L 253.450909 462.745861 
L 253.208986 462.93927 
L 252.958265 463.121036 
L 252.699265 463.291029 
L 252.432632 463.448603 
L 252.159013 463.593498 
L 251.878796 463.725456 
L 251.592758 463.844218 
L 251.301415 463.949397 
L 251.005544 464.040862 
L 250.705663 464.118355 
L 251.12353 466.007813 
L 252.985562 470.114038 
L 254.49286 473.436147 
L 255.38293 475.398183 
L 255.945563 476.63833 
L 257.805525 479.779709 
L 259.009837 481.826999 
L 259.186298 482.204244 
L 260.519851 485.177441 
L 261.59104 487.550487 
L 262.343201 489.210313 
L 264.467597 493.865199 
L 266.243727 497.822906 
L 267.319961 500.205525 
L 268.38507 502.563306 
L 270.779333 507.936458 
L 271.790365 510.163444 
L 273.65335 510.304704 
L 275.114027 510.415458 
L 277.401559 508.485765 
L 278.152426 507.8578 
L 278.699793 508.513839 
L 283.062172 513.743648 
L 283.988466 514.692582 
L 284.439064 515.152624 
L 286.95804 517.732275 
L 290.478863 521.337706 
L 298.177711 529.221813 
L 299.303236 530.375153 
L 300.104317 531.19603 
L 300.702285 530.675649 
L 302.051328 529.559859 
L 302.635307 529.076789 
L 303.900143 528.044932 
L 304.596378 527.476942 
L 305.289475 526.911512 
L 305.848179 526.494244 
L 306.542042 525.976033 
L 307.143463 525.545997 
L 307.803665 525.073931 
L 307.996915 524.949043 
L 308.373913 524.705473 
L 308.77498 524.446354 
L 309.467461 523.950554 
L 310.152353 523.460188 
L 310.821633 522.981 
L 311.552568 522.457668 
L 312.173926 522.056857 
L 312.904535 521.585571 
L 314.248653 520.718538 
L 315.230317 520.108814 
L 315.364475 520.030027 
L 317.689266 518.686642 
L 316.938916 517.72503 
L 320.19207 515.766229 
L 322.820365 514.219861 
L 323.878358 513.681033 
L 328.35109 511.264259 
L 332.158469 509.547511 
L 335.020019 508.393654 
L 336.908442 507.712776 
L 339.242806 506.87109 
L 340.113212 506.471464 
L 340.275831 506.396688 
L 340.355782 506.360076 
L 340.987629 506.069898 
L 341.308339 505.734569 
L 341.947559 506.288405 
L 341.829185 505.895506 
L 343.041905 505.503254 
L 343.531185 505.344904 
L 343.49936 505.199751 
L 343.583839 505.1753 
L 343.961213 505.064946 
L 344.339105 504.955887 
L 344.717256 504.84825 
L 345.384808 504.668425 
L 346.053008 504.491576 
L 346.722113 504.317701 
L 347.360557 504.166208 
L 348.000036 504.019761 
L 348.640809 503.878488 
L 349.282617 503.742261 
L 349.493232 503.696075 
L 349.704107 503.650925 
L 349.915239 503.60681 
L 350.591719 503.457386 
L 351.269104 503.312362 
L 351.947523 503.171736 
L 352.156845 503.128267 
L 352.366296 503.085575 
L 352.576006 503.043788 
L 353.02337 502.815579 
L 353.156104 502.943138 
L 357.071766 502.234057 
L 359.271585 501.954487 
L 363.940443 501.422774 
L 365.857457 501.148379 
L 365.886436 501.191589 
L 365.9823 501.18719 
L 367.902549 501.099994 
L 368.00915 500.871914 
L 373.326155 500.631155 
L 373.764463 500.627403 
L 375.128418 500.61563 
L 377.968621 500.540207 
L 379.439436 501.447096 
L 379.628188 501.150449 
L 379.767779 501.261578 
L 380.131828 500.681092 
L 382.520399 500.629732 
L 384.731861 500.729477 
L 386.328424 500.855613 
L 387.97376 501.001931 
L 396.525032 501.931589 
L 399.377914 502.314397 
L 399.725274 502.349456 
L 401.608523 502.499138 
L 401.917072 502.55632 
L 401.967656 502.589956 
L 402.003233 502.419963 
L 403.586471 502.975222 
L 407.108458 503.418058 
L 415.910579 504.549663 
L 415.98859 504.456645 
L 421.340266 504.866233 
L 423.36634 505.058737 
L 424.366764 505.033768 
L 425.355544 504.943855 
L 425.844047 504.805946 
L 426.343289 504.700121 
L 426.880047 504.70245 
L 427.946592 505.088673 
L 429.021779 505.478027 
L 429.103929 505.379705 
L 429.397601 505.518261 
L 429.737845 505.678681 
L 440.747677 507.323499 
L 443.674042 507.857542 
L 448.914459 508.528199 
L 449.797155 508.535185 
L 451.269523 508.754598 
L 457.075808 509.127703 
L 458.204178 509.20028 
L 459.222972 509.265741 
L 465.108173 509.972623 
L 465.829156 510.097983 
L 466.671747 510.24456 
L 467.099059 510.318818 
L 468.30945 510.580665 
L 470.08765 511.092972 
L 471.00463 511.357147 
L 474.323246 512.313197 
L 479.189523 513.781683 
L 479.533261 513.869784 
L 480.028622 513.913382 
L 481.128272 514.010022 
L 481.544975 514.144956 
L 482.842822 514.565281 
L 482.854077 514.569033 
L 482.865461 514.572655 
L 482.876717 514.576278 
L 483.670535 514.905138 
L 484.467329 515.226365 
L 485.267228 515.540089 
L 485.67384 515.696628 
L 486.080969 515.851872 
L 486.488487 516.005823 
L 487.034043 516.212428 
L 487.58141 516.414635 
L 488.130201 516.612572 
L 490.002324 517.420492 
L 490.825509 517.940691 
L 491.68246 518.383786 
L 493.345908 518.824293 
L 494.413863 519.107097 
L 498.643378 520.619052 
L 499.401749 520.890084 
L 502.698114 522.30708 
L 503.734761 522.760137 
L 506.465517 523.781 
L 507.372405 523.984501 
L 508.251678 524.317577 
L 508.289385 524.331861 
L 509.012567 524.604315 
L 508.366748 525.375623 
L 508.98915 525.800606 
L 509.679729 526.054412 
L 510.875892 526.494033 
L 512.833788 527.213722 
L 513.000288 526.993274 
L 513.323068 526.565833 
L 513.986714 526.815425 
L 513.989715 526.816554 
L 516.013331 527.544522 
L 516.942341 527.834442 
L 518.882901 528.440285 
L 527.319292 531.074013 
L 529.255065 531.678303 
L 532.637979 532.967741 
L 541.534799 535.976644 
L 543.836821 536.699567 
L 546.225909 537.449917 
L 546.470808 537.526763 
L 546.586465 537.563116 
L 547.195801 537.736085 
L 547.738249 537.846557 
L 549.20635 538.145543 
L 549.247232 537.581616 
L 549.771312 537.890683 
L 550.698253 538.447623 
L 550.720634 538.467288 
L 553.004544 539.226694 
L 555.711237 540.100722 
L 558.773958 540.953533 
L 559.250689 541.086267 
L 563.099984 542.116964 
L 565.438746 542.585673 
L 567.558355 542.75295 
L 569.620912 542.825785 
L 571.226143 542.749715 
L 572.871479 542.764852 
L 574.646574 542.765499 
L 579.073897 542.524869 
L 584.27421 541.947488 
L 589.229106 540.889753 
L 589.184085 541.421208 
L 591.607845 540.758183 
L 594.521013 539.825421 
L 597.086563 538.85333 
L 602.544711 536.39464 
L 602.862316 536.251556 
L 607.888884 533.24757 
L 607.956027 533.200867 
L 611.750469 530.559894 
L 617.359464 525.651571 
L 619.289674 523.962508 
L 620.278454 523.076448 
L 621.227258 522.226353 
L 622.636364 520.963178 
L 622.425231 520.208171 
L 622.053808 518.879793 
L 620.487258 513.231858 
L 617.968023 505.155894 
L 615.307386 496.837878 
L 613.932952 493.604905 
L 612.340141 488.815215 
L 612.209994 488.42361 
L 613.010281 487.974435 
L 612.940809 487.858389 
L 612.630319 487.339742 
L 612.369782 486.902176 
L 611.883203 486.084976 
L 611.722525 485.554168 
L 611.399875 484.489836 
L 610.855742 484.126304 
L 610.154423 481.145475 
L 609.528657 479.286289 
L 608.092513 475.010847 
L 606.73244 470.273682 
L 604.689289 463.286889 
L 604.583593 462.929179 
L 602.213134 455.337191 
L 601.914288 454.387093 
L 600.760431 450.979858 
L 598.645091 446.771689 
L 597.990993 444.571741 
L 596.615266 440.04118 
L 594.861517 434.375521 
L 594.520237 433.272119 
L 593.008541 429.841209 
L 592.847733 429.457754 
L 591.727383 427.621596 
L 591.111579 425.585302 
L 590.651795 424.047602 
L 590.50289 423.03049 
L 590.193694 421.605602 
L 588.372672 415.868789 
L 586.001049 409.016672 
L 585.832997 409.147983 
L 583.548311 402.890065 
L 581.979303 398.396116 
L 580.434618 393.976167 
L 580.781978 392.238978 
L 577.540725 383.772832 
L 577.600365 382.880046 
L 575.791375 377.800694 
L 574.135819 372.546822 
L 573.908126 371.798672 
L 573.906933 371.794769 
L 573.562319 370.667972 
L 573.427126 370.223067 
L 572.201469 365.762625 
L 571.170255 360.877847 
L 569.9173 360.709148 
L 565.820261 360.314955 
L 563.660029 360.109515 
L 561.689973 360.090627 
L 561.58363 360.089592 
L 560.982574 360.083899 
L 556.019268 360.066564 
L 554.311834 360.0632 
L 554.256593 356.705255 
L 553.324736 354.891996 
L 552.505432 352.872649 
L 551.48819 349.973711 
L 550.111945 344.722685 
L 546.861766 339.992247 
L 543.783003 338.491289 
L 539.62697 339.084971 
L 535.300039 341.593856 
L 530.567142 343.340877 
L 525.911351 343.818902 
L 525.563085 345.333574 
L 514.584432 342.934783 
L 509.662266 342.73387 
L 509.706123 341.376384 
L 509.740535 340.152537 
L 509.770291 338.928432 
L 509.795388 337.704327 
L 509.816088 336.476211 
L 509.832 335.247966 
L 509.843385 334.019721 
L 509.9082 326.322684 
L 510.011308 314.09224 
L 504.325855 313.955754 
L 503.82752 313.428827 
L 503.516383 313.405799 
L 503.206023 313.374103 
L 502.896698 313.333481 
L 502.76875 313.314463 
L 502.641061 313.293893 
L 502.513631 313.2719 
L 502.332124 313.233995 
L 502.151393 313.193114 
L 501.971309 313.148998 
L 501.606225 313.059474 
L 501.244376 312.95753 
L 500.886278 312.843166 
L 500.53219 312.716771 
L 500.18276 312.578215 
L 500.064127 312.528149 
L 499.946141 312.476788 
L 499.828672 312.424005 
L 499.679767 312.352722 
L 499.532025 312.279239 
L 499.385319 312.203428 
L 499.165518 312.084795 
L 498.948434 311.961117 
L 498.734197 311.832652 
L 498.522934 311.699271 
L 498.210375 311.491889 
L 497.90506 311.274029 
L 497.607378 311.045819 
L 497.317717 310.807648 
L 497.036207 310.559774 
L 498.497707 308.332787 
L 499.423613 306.919671 
L 499.336417 306.796122 
L 498.69862 305.846024 
L 475.056907 270.769497 
L 474.009056 269.79518 
L 471.981896 267.910276 
L 470.515091 266.102321 
L 467.671394 262.597411 
L 465.55088 259.983735 
L 462.752851 256.535231 
L 460.460662 253.709905 
L 459.250787 252.218908 
L 457.150196 249.91197 
L 453.942062 246.488176 
L 452.780572 245.270798 
L 450.942991 243.344857 
L 450.03455 242.392947 
L 448.693494 240.987594 
L 448.635536 240.92679 
L 448.330609 240.607632 
L 445.801672 237.961096 
L 443.163416 235.195669 
L 441.200345 233.135053 
L 438.296103 230.086433 
L 437.988848 229.763783 
L 436.083337 227.761089 
L 435.086934 226.71387 
L 434.116654 225.698051 
L 432.862535 224.382222 
L 432.49357 223.995145 
L 429.718052 221.089739 
L 427.893537 219.179322 
L 427.835967 219.119165 
L 427.603618 218.876077 
L 427.402342 218.665508 
L 426.104729 217.307975 
L 424.259127 215.378153 
L 423.922117 215.025877 
L 423.848117 214.942692 
L 423.154043 214.218604 
L 423.129592 213.731265 
L 422.985473 211.280855 
L 422.843553 208.823977 
L 422.704092 206.386374 
L 422.564113 203.936094 
L 422.420641 201.480121 
L 422.318179 199.727149 
L 419.699846 202.369415 
L 414.723086 198.506537 
L 413.682558 197.437547 
L 413.555128 197.339484 
L 413.039974 196.94154 
L 412.656648 196.623805 
L 412.397907 196.296886 
L 412.132697 195.97527 
L 411.860889 195.659088 
L 411.582613 195.348599 
L 411.262421 195.006025 
L 410.934466 194.670696 
L 410.599008 194.34313 
L 410.256046 194.023326 
L 409.507766 193.372591 
L 409.475941 193.347364 
L 409.341654 193.241539 
L 409.208273 193.136619 
L 408.698553 192.730654 
L 408.229067 192.364276 
L 408.184822 192.329734 
L 407.667081 191.933989 
L 407.511577 191.817556 
L 407.164605 191.557779 
L 407.137955 191.538245 
L 406.658507 191.186356 
L 406.269877 190.906916 
L 406.148786 190.819849 
L 405.757052 190.543772 
L 405.635702 190.458258 
L 405.676842 190.407286 
L 405.422629 190.240786 
L 404.86336 189.865223 
L 403.045572 188.644481 
L 400.644194 187.032264 
L 400.445869 187.330076 
L 400.376526 187.433443 
L 398.094298 190.85051 
L 396.841473 192.732206 
L 395.204028 194.755305 
L 393.724287 196.583571 
L 392.237947 198.420635 
L 389.265268 202.094891 
L 387.952026 203.739968 
L 387.564949 204.225496 
L 386.133722 203.097384 
L 381.17572 204.026524 
L 378.809013 204.470524 
L 378.20537 204.583206 
L 376.425488 204.915559 
L 373.289931 205.504972 
L 370.869924 205.961004 
L 368.833371 206.337731 
L 366.796429 206.719375 
L 364.763369 207.099854 
L 362.653722 207.495857 
L 357.391958 208.481144 
L 353.76337 213.581453 
L 352.212345 215.761478 
L 350.286016 218.473476 
L 350.064016 217.427773 
L 346.556518 215.340506 
L 344.379986 214.045506 
L 342.215098 212.757492 
L 341.951828 213.201362 
L 341.222825 212.765771 
L 341.225412 212.76189 
L 339.954086 211.997827 
L 339.314607 212.157729 
" clip-path="url(#p409137f3ed)" style="fill: #d3d3d3"/>
   </g>
   <g id="PatchCollection_2">
    <path d="M 290.585466 282.207317 
L 290.585466 282.077946 
L 290.456095 282.077946 
L 290.456095 282.207317 
L 290.585466 282.207317 
" clip-path="url(#p409137f3ed)" style="fill: #ff0000; fill-opacity: 0.7; stroke: #000000; stroke-opacity: 0.7; stroke-width: 0.5"/>
    <path d="M 164.044912 267.374437 
L 164.044912 267.245067 
L 163.915541 267.245067 
L 163.915541 267.374437 
L 164.044912 267.374437 
" clip-path="url(#p409137f3ed)" style="fill: #ff0000; fill-opacity: 0.7; stroke: #000000; stroke-opacity: 0.7; stroke-width: 0.5"/>
    <path d="M 573.333937 449.158263 
L 573.333937 449.028892 
L 573.204566 449.028892 
L 573.204566 449.158263 
L 573.333937 449.158263 
" clip-path="url(#p409137f3ed)" style="fill: #ff0000; fill-opacity: 0.7; stroke: #000000; stroke-opacity: 0.7; stroke-width: 0.5"/>
    <path d="M 293.573147 286.999827 
L 293.573147 286.870456 
L 293.443776 286.870456 
L 293.443776 286.999827 
L 293.573147 286.999827 
" clip-path="url(#p409137f3ed)" style="fill: #ff0000; fill-opacity: 0.7; stroke: #000000; stroke-opacity: 0.7; stroke-width: 0.5"/>
    <path d="M 420.58546 264.470388 
L 420.58546 264.341017 
L 420.45609 264.341017 
L 420.45609 264.470388 
L 420.58546 264.470388 
" clip-path="url(#p409137f3ed)" style="fill: #ff0000; fill-opacity: 0.7; stroke: #000000; stroke-opacity: 0.7; stroke-width: 0.5"/>
    <path d="M 289.143065 313.612631 
L 289.143065 313.483261 
L 289.013694 313.483261 
L 289.013694 313.612631 
L 289.143065 313.612631 
" clip-path="url(#p409137f3ed)" style="fill: #ff0000; fill-opacity: 0.7; stroke: #000000; stroke-opacity: 0.7; stroke-width: 0.5"/>
    <path d="M 307.742544 358.588957 
L 307.742544 358.459586 
L 307.613174 358.459586 
L 307.613174 358.588957 
L 307.742544 358.588957 
" clip-path="url(#p409137f3ed)" style="fill: #ff0000; fill-opacity: 0.7; stroke: #000000; stroke-opacity: 0.7; stroke-width: 0.5"/>
    <path d="M 268.602832 312.427403 
L 268.602832 312.298032 
L 268.473461 312.298032 
L 268.473461 312.427403 
L 268.602832 312.427403 
" clip-path="url(#p409137f3ed)" style="fill: #ff0000; fill-opacity: 0.7; stroke: #000000; stroke-opacity: 0.7; stroke-width: 0.5"/>
    <path d="M 255.534686 329.366883 
L 255.534686 329.237512 
L 255.405315 329.237512 
L 255.405315 329.366883 
L 255.534686 329.366883 
" clip-path="url(#p409137f3ed)" style="fill: #ff0000; fill-opacity: 0.7; stroke: #000000; stroke-opacity: 0.7; stroke-width: 0.5"/>
    <path d="M 283.134466 284.547039 
L 283.134466 284.417669 
L 283.005095 284.417669 
L 283.005095 284.547039 
L 283.134466 284.547039 
" clip-path="url(#p409137f3ed)" style="fill: #ff0000; fill-opacity: 0.7; stroke: #000000; stroke-opacity: 0.7; stroke-width: 0.5"/>
    <path d="M 424.081567 428.434434 
L 424.081567 428.305063 
L 423.952196 428.305063 
L 423.952196 428.434434 
L 424.081567 428.434434 
" clip-path="url(#p409137f3ed)" style="fill: #ff0000; fill-opacity: 0.7; stroke: #000000; stroke-opacity: 0.7; stroke-width: 0.5"/>
    <path d="M 291.876556 296.081626 
L 291.876556 295.952256 
L 291.747185 295.952256 
L 291.747185 296.081626 
L 291.876556 296.081626 
" clip-path="url(#p409137f3ed)" style="fill: #ff0000; fill-opacity: 0.7; stroke: #000000; stroke-opacity: 0.7; stroke-width: 0.5"/>
    <path d="M 311.083356 249.113121 
L 311.083356 248.98375 
L 310.953985 248.98375 
L 310.953985 249.113121 
L 311.083356 249.113121 
" clip-path="url(#p409137f3ed)" style="fill: #ff0000; fill-opacity: 0.7; stroke: #000000; stroke-opacity: 0.7; stroke-width: 0.5"/>
    <path d="M 418.498165 353.146124 
L 418.498165 353.016754 
L 418.368795 353.016754 
L 418.368795 353.146124 
L 418.498165 353.146124 
" clip-path="url(#p409137f3ed)" style="fill: #ff0000; fill-opacity: 0.7; stroke: #000000; stroke-opacity: 0.7; stroke-width: 0.5"/>
    <path d="M 287.336911 352.988548 
L 287.336911 352.859177 
L 287.20754 352.859177 
L 287.20754 352.988548 
L 287.336911 352.988548 
" clip-path="url(#p409137f3ed)" style="fill: #ff0000; fill-opacity: 0.7; stroke: #000000; stroke-opacity: 0.7; stroke-width: 0.5"/>
    <path d="M 264.491933 323.944378 
L 264.491933 323.815008 
L 264.362562 323.815008 
L 264.362562 323.944378 
L 264.491933 323.944378 
" clip-path="url(#p409137f3ed)" style="fill: #ff0000; fill-opacity: 0.7; stroke: #000000; stroke-opacity: 0.7; stroke-width: 0.5"/>
    <path d="M 308.402716 237.41285 
L 308.402716 237.283479 
L 308.273346 237.283479 
L 308.273346 237.41285 
L 308.402716 237.41285 
" clip-path="url(#p409137f3ed)" style="fill: #ff0000; fill-opacity: 0.7; stroke: #000000; stroke-opacity: 0.7; stroke-width: 0.5"/>
    <path d="M 420.58546 264.470388 
L 420.58546 264.341017 
L 420.45609 264.341017 
L 420.45609 264.470388 
L 420.58546 264.470388 
" clip-path="url(#p409137f3ed)" style="fill: #ff0000; fill-opacity: 0.7; stroke: #000000; stroke-opacity: 0.7; stroke-width: 0.5"/>
    <path d="M 512.004026 351.206237 
L 512.004026 351.076867 
L 511.874655 351.076867 
L 511.874655 351.206237 
L 512.004026 351.206237 
" clip-path="url(#p409137f3ed)" style="fill: #ff0000; fill-opacity: 0.7; stroke: #000000; stroke-opacity: 0.7; stroke-width: 0.5"/>
    <path d="M 268.797525 355.548859 
L 268.797525 355.419489 
L 268.668154 355.419489 
L 268.668154 355.548859 
L 268.797525 355.548859 
" clip-path="url(#p409137f3ed)" style="fill: #ff0000; fill-opacity: 0.7; stroke: #000000; stroke-opacity: 0.7; stroke-width: 0.5"/>
    <path d="M 421.266792 246.267768 
L 421.266792 246.138397 
L 421.137422 246.138397 
L 421.137422 246.267768 
L 421.266792 246.267768 
" clip-path="url(#p409137f3ed)" style="fill: #ff0000; fill-opacity: 0.7; stroke: #000000; stroke-opacity: 0.7; stroke-width: 0.5"/>
    <path d="M 311.083499 249.112995 
L 311.083499 248.983624 
L 310.954129 248.983624 
L 310.954129 249.112995 
L 311.083499 249.112995 
" clip-path="url(#p409137f3ed)" style="fill: #ff0000; fill-opacity: 0.7; stroke: #000000; stroke-opacity: 0.7; stroke-width: 0.5"/>
    <path d="M 477.396409 440.177957 
L 477.396409 440.048586 
L 477.267038 440.048586 
L 477.267038 440.177957 
L 477.396409 440.177957 
" clip-path="url(#p409137f3ed)" style="fill: #ff0000; fill-opacity: 0.7; stroke: #000000; stroke-opacity: 0.7; stroke-width: 0.5"/>
    <path d="M 307.587618 478.216968 
L 307.587618 478.087597 
L 307.458247 478.087597 
L 307.458247 478.216968 
L 307.587618 478.216968 
" clip-path="url(#p409137f3ed)" style="fill: #ff0000; fill-opacity: 0.7; stroke: #000000; stroke-opacity: 0.7; stroke-width: 0.5"/>
    <path d="M 446.561673 433.355539 
L 446.561673 433.226169 
L 446.432302 433.226169 
L 446.432302 433.355539 
L 446.561673 433.355539 
" clip-path="url(#p409137f3ed)" style="fill: #ff0000; fill-opacity: 0.7; stroke: #000000; stroke-opacity: 0.7; stroke-width: 0.5"/>
    <path d="M 290.585466 282.207317 
L 290.585466 282.077946 
L 290.456095 282.077946 
L 290.456095 282.207317 
L 290.585466 282.207317 
" clip-path="url(#p409137f3ed)" style="fill: #ff0000; fill-opacity: 0.7; stroke: #000000; stroke-opacity: 0.7; stroke-width: 0.5"/>
    <path d="M 271.121657 331.955071 
L 271.121657 331.8257 
L 270.992286 331.8257 
L 270.992286 331.955071 
L 271.121657 331.955071 
" clip-path="url(#p409137f3ed)" style="fill: #ff0000; fill-opacity: 0.7; stroke: #000000; stroke-opacity: 0.7; stroke-width: 0.5"/>
    <path d="M 171.05444 216.431069 
L 171.05444 216.301699 
L 170.925069 216.301699 
L 170.925069 216.431069 
L 171.05444 216.431069 
" clip-path="url(#p409137f3ed)" style="fill: #ff0000; fill-opacity: 0.7; stroke: #000000; stroke-opacity: 0.7; stroke-width: 0.5"/>
    <path d="M 268.79766 355.548733 
L 268.79766 355.419362 
L 268.668289 355.419362 
L 268.668289 355.548733 
L 268.79766 355.548733 
" clip-path="url(#p409137f3ed)" style="fill: #ff0000; fill-opacity: 0.7; stroke: #000000; stroke-opacity: 0.7; stroke-width: 0.5"/>
    <path d="M 350.868637 232.136063 
L 350.868637 232.006692 
L 350.739266 232.006692 
L 350.739266 232.136063 
L 350.868637 232.136063 
" clip-path="url(#p409137f3ed)" style="fill: #ff0000; fill-opacity: 0.7; stroke: #000000; stroke-opacity: 0.7; stroke-width: 0.5"/>
    <path d="M 363.096932 403.884508 
L 363.096932 403.755138 
L 362.967562 403.755138 
L 362.967562 403.884508 
L 363.096932 403.884508 
" clip-path="url(#p409137f3ed)" style="fill: #ff0000; fill-opacity: 0.7; stroke: #000000; stroke-opacity: 0.7; stroke-width: 0.5"/>
    <path d="M 276.827973 261.2072 
L 276.827973 261.077829 
L 276.698602 261.077829 
L 276.698602 261.2072 
L 276.827973 261.2072 
" clip-path="url(#p409137f3ed)" style="fill: #ff0000; fill-opacity: 0.7; stroke: #000000; stroke-opacity: 0.7; stroke-width: 0.5"/>
    <path d="M 313.715457 240.680054 
L 313.715457 240.550684 
L 313.586086 240.550684 
L 313.586086 240.680054 
L 313.715457 240.680054 
" clip-path="url(#p409137f3ed)" style="fill: #ff0000; fill-opacity: 0.7; stroke: #000000; stroke-opacity: 0.7; stroke-width: 0.5"/>
    <path d="M 298.969139 278.095075 
L 298.969139 277.965704 
L 298.839769 277.965704 
L 298.839769 278.095075 
L 298.969139 278.095075 
" clip-path="url(#p409137f3ed)" style="fill: #ff0000; fill-opacity: 0.7; stroke: #000000; stroke-opacity: 0.7; stroke-width: 0.5"/>
    <path d="M 294.706836 361.706616 
L 294.706836 361.577245 
L 294.577465 361.577245 
L 294.577465 361.706616 
L 294.706836 361.706616 
" clip-path="url(#p409137f3ed)" style="fill: #ff0000; fill-opacity: 0.7; stroke: #000000; stroke-opacity: 0.7; stroke-width: 0.5"/>
    <path d="M 288.962746 350.055184 
L 288.962746 349.925814 
L 288.833376 349.925814 
L 288.833376 350.055184 
L 288.962746 350.055184 
" clip-path="url(#p409137f3ed)" style="fill: #ff0000; fill-opacity: 0.7; stroke: #000000; stroke-opacity: 0.7; stroke-width: 0.5"/>
    <path d="M 271.121657 331.955071 
L 271.121657 331.8257 
L 270.992286 331.8257 
L 270.992286 331.955071 
L 271.121657 331.955071 
" clip-path="url(#p409137f3ed)" style="fill: #ff0000; fill-opacity: 0.7; stroke: #000000; stroke-opacity: 0.7; stroke-width: 0.5"/>
    <path d="M 425.36626 422.659756 
L 425.36626 422.530385 
L 425.236889 422.530385 
L 425.236889 422.659756 
L 425.36626 422.659756 
" clip-path="url(#p409137f3ed)" style="fill: #ff0000; fill-opacity: 0.7; stroke: #000000; stroke-opacity: 0.7; stroke-width: 0.5"/>
    <path d="M 388.153458 296.41826 
L 388.153458 296.288889 
L 388.024087 296.288889 
L 388.024087 296.41826 
L 388.153458 296.41826 
" clip-path="url(#p409137f3ed)" style="fill: #ff0000; fill-opacity: 0.7; stroke: #000000; stroke-opacity: 0.7; stroke-width: 0.5"/>
    <path d="M 283.974544 341.626865 
L 283.974544 341.497494 
L 283.845174 341.497494 
L 283.845174 341.626865 
L 283.974544 341.626865 
" clip-path="url(#p409137f3ed)" style="fill: #ff0000; fill-opacity: 0.7; stroke: #000000; stroke-opacity: 0.7; stroke-width: 0.5"/>
    <path d="M 268.79766 355.548733 
L 268.79766 355.419362 
L 268.668289 355.419362 
L 268.668289 355.548733 
L 268.79766 355.548733 
" clip-path="url(#p409137f3ed)" style="fill: #ff0000; fill-opacity: 0.7; stroke: #000000; stroke-opacity: 0.7; stroke-width: 0.5"/>
    <path d="M 268.79766 355.548733 
L 268.79766 355.419362 
L 268.668289 355.419362 
L 268.668289 355.548733 
L 268.79766 355.548733 
" clip-path="url(#p409137f3ed)" style="fill: #ff0000; fill-opacity: 0.7; stroke: #000000; stroke-opacity: 0.7; stroke-width: 0.5"/>
    <path d="M 224.000025 381.953072 
L 224.000025 381.823702 
L 223.870655 381.823702 
L 223.870655 381.953072 
L 224.000025 381.953072 
" clip-path="url(#p409137f3ed)" style="fill: #ff0000; fill-opacity: 0.7; stroke: #000000; stroke-opacity: 0.7; stroke-width: 0.5"/>
    <path d="M 267.466151 348.760418 
L 267.466151 348.631048 
L 267.33678 348.631048 
L 267.33678 348.760418 
L 267.466151 348.760418 
" clip-path="url(#p409137f3ed)" style="fill: #ff0000; fill-opacity: 0.7; stroke: #000000; stroke-opacity: 0.7; stroke-width: 0.5"/>
    <path d="M 293.602103 343.116713 
L 293.602103 342.987342 
L 293.472732 342.987342 
L 293.472732 343.116713 
L 293.602103 343.116713 
" clip-path="url(#p409137f3ed)" style="fill: #ff0000; fill-opacity: 0.7; stroke: #000000; stroke-opacity: 0.7; stroke-width: 0.5"/>
    <path d="M 445.637188 427.144659 
L 445.637188 427.015288 
L 445.507817 427.015288 
L 445.507817 427.144659 
L 445.637188 427.144659 
" clip-path="url(#p409137f3ed)" style="fill: #ff0000; fill-opacity: 0.7; stroke: #000000; stroke-opacity: 0.7; stroke-width: 0.5"/>
    <path d="M 271.121657 331.955056 
L 271.121657 331.825685 
L 270.992286 331.825685 
L 270.992286 331.955056 
L 271.121657 331.955056 
" clip-path="url(#p409137f3ed)" style="fill: #ff0000; fill-opacity: 0.7; stroke: #000000; stroke-opacity: 0.7; stroke-width: 0.5"/>
    <path d="M 302.082954 354.85452 
L 302.082954 354.72515 
L 301.953583 354.72515 
L 301.953583 354.85452 
L 302.082954 354.85452 
" clip-path="url(#p409137f3ed)" style="fill: #ff0000; fill-opacity: 0.7; stroke: #000000; stroke-opacity: 0.7; stroke-width: 0.5"/>
   </g>
   <g id="matplotlib.axis_1">
    <g id="xtick_1">
     <g id="line2d_1">
      <defs>
       <path id="m4c6699b2db" d="M 0 0 
L 0 3.5 
" style="stroke: #000000; stroke-width: 0.8"/>
      </defs>
      <g>
       <use xlink:href="#m4c6699b2db" x="144.257669" y="560.748364" style="stroke: #000000; stroke-width: 0.8"/>
      </g>
     </g>
     <g id="text_1">
      <!-- 385000 -->
      <g transform="translate(125.170169 575.346801) scale(0.1 -0.1)">
       <defs>
        <path id="DejaVuSans-33" d="M 2597 2516 
Q 3050 2419 3304 2112 
Q 3559 1806 3559 1356 
Q 3559 666 3084 287 
Q 2609 -91 1734 -91 
Q 1441 -91 1130 -33 
Q 819 25 488 141 
L 488 750 
Q 750 597 1062 519 
Q 1375 441 1716 441 
Q 2309 441 2620 675 
Q 2931 909 2931 1356 
Q 2931 1769 2642 2001 
Q 2353 2234 1838 2234 
L 1294 2234 
L 1294 2753 
L 1863 2753 
Q 2328 2753 2575 2939 
Q 2822 3125 2822 3475 
Q 2822 3834 2567 4026 
Q 2313 4219 1838 4219 
Q 1578 4219 1281 4162 
Q 984 4106 628 3988 
L 628 4550 
Q 988 4650 1302 4700 
Q 1616 4750 1894 4750 
Q 2613 4750 3031 4423 
Q 3450 4097 3450 3541 
Q 3450 3153 3228 2886 
Q 3006 2619 2597 2516 
z
" transform="scale(0.015625)"/>
        <path id="DejaVuSans-38" d="M 2034 2216 
Q 1584 2216 1326 1975 
Q 1069 1734 1069 1313 
Q 1069 891 1326 650 
Q 1584 409 2034 409 
Q 2484 409 2743 651 
Q 3003 894 3003 1313 
Q 3003 1734 2745 1975 
Q 2488 2216 2034 2216 
z
M 1403 2484 
Q 997 2584 770 2862 
Q 544 3141 544 3541 
Q 544 4100 942 4425 
Q 1341 4750 2034 4750 
Q 2731 4750 3128 4425 
Q 3525 4100 3525 3541 
Q 3525 3141 3298 2862 
Q 3072 2584 2669 2484 
Q 3125 2378 3379 2068 
Q 3634 1759 3634 1313 
Q 3634 634 3220 271 
Q 2806 -91 2034 -91 
Q 1263 -91 848 271 
Q 434 634 434 1313 
Q 434 1759 690 2068 
Q 947 2378 1403 2484 
z
M 1172 3481 
Q 1172 3119 1398 2916 
Q 1625 2713 2034 2713 
Q 2441 2713 2670 2916 
Q 2900 3119 2900 3481 
Q 2900 3844 2670 4047 
Q 2441 4250 2034 4250 
Q 1625 4250 1398 4047 
Q 1172 3844 1172 3481 
z
" transform="scale(0.015625)"/>
        <path id="DejaVuSans-35" d="M 691 4666 
L 3169 4666 
L 3169 4134 
L 1269 4134 
L 1269 2991 
Q 1406 3038 1543 3061 
Q 1681 3084 1819 3084 
Q 2600 3084 3056 2656 
Q 3513 2228 3513 1497 
Q 3513 744 3044 326 
Q 2575 -91 1722 -91 
Q 1428 -91 1123 -41 
Q 819 9 494 109 
L 494 744 
Q 775 591 1075 516 
Q 1375 441 1709 441 
Q 2250 441 2565 725 
Q 2881 1009 2881 1497 
Q 2881 1984 2565 2268 
Q 2250 2553 1709 2553 
Q 1456 2553 1204 2497 
Q 953 2441 691 2322 
L 691 4666 
z
" transform="scale(0.015625)"/>
        <path id="DejaVuSans-30" d="M 2034 4250 
Q 1547 4250 1301 3770 
Q 1056 3291 1056 2328 
Q 1056 1369 1301 889 
Q 1547 409 2034 409 
Q 2525 409 2770 889 
Q 3016 1369 3016 2328 
Q 3016 3291 2770 3770 
Q 2525 4250 2034 4250 
z
M 2034 4750 
Q 2819 4750 3233 4129 
Q 3647 3509 3647 2328 
Q 3647 1150 3233 529 
Q 2819 -91 2034 -91 
Q 1250 -91 836 529 
Q 422 1150 422 2328 
Q 422 3509 836 4129 
Q 1250 4750 2034 4750 
z
" transform="scale(0.015625)"/>
       </defs>
       <use xlink:href="#DejaVuSans-33"/>
       <use xlink:href="#DejaVuSans-38" x="63.623047"/>
       <use xlink:href="#DejaVuSans-35" x="127.246094"/>
       <use xlink:href="#DejaVuSans-30" x="190.869141"/>
       <use xlink:href="#DejaVuSans-30" x="254.492188"/>
       <use xlink:href="#DejaVuSans-30" x="318.115234"/>
      </g>
     </g>
    </g>
    <g id="xtick_2">
     <g id="line2d_2">
      <g>
       <use xlink:href="#m4c6699b2db" x="208.943001" y="560.748364" style="stroke: #000000; stroke-width: 0.8"/>
      </g>
     </g>
     <g id="text_2">
      <!-- 385500 -->
      <g transform="translate(189.855501 575.346801) scale(0.1 -0.1)">
       <use xlink:href="#DejaVuSans-33"/>
       <use xlink:href="#DejaVuSans-38" x="63.623047"/>
       <use xlink:href="#DejaVuSans-35" x="127.246094"/>
       <use xlink:href="#DejaVuSans-35" x="190.869141"/>
       <use xlink:href="#DejaVuSans-30" x="254.492188"/>
       <use xlink:href="#DejaVuSans-30" x="318.115234"/>
      </g>
     </g>
    </g>
    <g id="xtick_3">
     <g id="line2d_3">
      <g>
       <use xlink:href="#m4c6699b2db" x="273.628334" y="560.748364" style="stroke: #000000; stroke-width: 0.8"/>
      </g>
     </g>
     <g id="text_3">
      <!-- 386000 -->
      <g transform="translate(254.540834 575.346801) scale(0.1 -0.1)">
       <defs>
        <path id="DejaVuSans-36" d="M 2113 2584 
Q 1688 2584 1439 2293 
Q 1191 2003 1191 1497 
Q 1191 994 1439 701 
Q 1688 409 2113 409 
Q 2538 409 2786 701 
Q 3034 994 3034 1497 
Q 3034 2003 2786 2293 
Q 2538 2584 2113 2584 
z
M 3366 4563 
L 3366 3988 
Q 3128 4100 2886 4159 
Q 2644 4219 2406 4219 
Q 1781 4219 1451 3797 
Q 1122 3375 1075 2522 
Q 1259 2794 1537 2939 
Q 1816 3084 2150 3084 
Q 2853 3084 3261 2657 
Q 3669 2231 3669 1497 
Q 3669 778 3244 343 
Q 2819 -91 2113 -91 
Q 1303 -91 875 529 
Q 447 1150 447 2328 
Q 447 3434 972 4092 
Q 1497 4750 2381 4750 
Q 2619 4750 2861 4703 
Q 3103 4656 3366 4563 
z
" transform="scale(0.015625)"/>
       </defs>
       <use xlink:href="#DejaVuSans-33"/>
       <use xlink:href="#DejaVuSans-38" x="63.623047"/>
       <use xlink:href="#DejaVuSans-36" x="127.246094"/>
       <use xlink:href="#DejaVuSans-30" x="190.869141"/>
       <use xlink:href="#DejaVuSans-30" x="254.492188"/>
       <use xlink:href="#DejaVuSans-30" x="318.115234"/>
      </g>
     </g>
    </g>
    <g id="xtick_4">
     <g id="line2d_4">
      <g>
       <use xlink:href="#m4c6699b2db" x="338.313666" y="560.748364" style="stroke: #000000; stroke-width: 0.8"/>
      </g>
     </g>
     <g id="text_4">
      <!-- 386500 -->
      <g transform="translate(319.226166 575.346801) scale(0.1 -0.1)">
       <use xlink:href="#DejaVuSans-33"/>
       <use xlink:href="#DejaVuSans-38" x="63.623047"/>
       <use xlink:href="#DejaVuSans-36" x="127.246094"/>
       <use xlink:href="#DejaVuSans-35" x="190.869141"/>
       <use xlink:href="#DejaVuSans-30" x="254.492188"/>
       <use xlink:href="#DejaVuSans-30" x="318.115234"/>
      </g>
     </g>
    </g>
    <g id="xtick_5">
     <g id="line2d_5">
      <g>
       <use xlink:href="#m4c6699b2db" x="402.998999" y="560.748364" style="stroke: #000000; stroke-width: 0.8"/>
      </g>
     </g>
     <g id="text_5">
      <!-- 387000 -->
      <g transform="translate(383.911499 575.346801) scale(0.1 -0.1)">
       <defs>
        <path id="DejaVuSans-37" d="M 525 4666 
L 3525 4666 
L 3525 4397 
L 1831 0 
L 1172 0 
L 2766 4134 
L 525 4134 
L 525 4666 
z
" transform="scale(0.015625)"/>
       </defs>
       <use xlink:href="#DejaVuSans-33"/>
       <use xlink:href="#DejaVuSans-38" x="63.623047"/>
       <use xlink:href="#DejaVuSans-37" x="127.246094"/>
       <use xlink:href="#DejaVuSans-30" x="190.869141"/>
       <use xlink:href="#DejaVuSans-30" x="254.492188"/>
       <use xlink:href="#DejaVuSans-30" x="318.115234"/>
      </g>
     </g>
    </g>
    <g id="xtick_6">
     <g id="line2d_6">
      <g>
       <use xlink:href="#m4c6699b2db" x="467.684331" y="560.748364" style="stroke: #000000; stroke-width: 0.8"/>
      </g>
     </g>
     <g id="text_6">
      <!-- 387500 -->
      <g transform="translate(448.596831 575.346801) scale(0.1 -0.1)">
       <use xlink:href="#DejaVuSans-33"/>
       <use xlink:href="#DejaVuSans-38" x="63.623047"/>
       <use xlink:href="#DejaVuSans-37" x="127.246094"/>
       <use xlink:href="#DejaVuSans-35" x="190.869141"/>
       <use xlink:href="#DejaVuSans-30" x="254.492188"/>
       <use xlink:href="#DejaVuSans-30" x="318.115234"/>
      </g>
     </g>
    </g>
    <g id="xtick_7">
     <g id="line2d_7">
      <g>
       <use xlink:href="#m4c6699b2db" x="532.369664" y="560.748364" style="stroke: #000000; stroke-width: 0.8"/>
      </g>
     </g>
     <g id="text_7">
      <!-- 388000 -->
      <g transform="translate(513.282164 575.346801) scale(0.1 -0.1)">
       <use xlink:href="#DejaVuSans-33"/>
       <use xlink:href="#DejaVuSans-38" x="63.623047"/>
       <use xlink:href="#DejaVuSans-38" x="127.246094"/>
       <use xlink:href="#DejaVuSans-30" x="190.869141"/>
       <use xlink:href="#DejaVuSans-30" x="254.492188"/>
       <use xlink:href="#DejaVuSans-30" x="318.115234"/>
      </g>
     </g>
    </g>
    <g id="xtick_8">
     <g id="line2d_8">
      <g>
       <use xlink:href="#m4c6699b2db" x="597.054996" y="560.748364" style="stroke: #000000; stroke-width: 0.8"/>
      </g>
     </g>
     <g id="text_8">
      <!-- 388500 -->
      <g transform="translate(577.967496 575.346801) scale(0.1 -0.1)">
       <use xlink:href="#DejaVuSans-33"/>
       <use xlink:href="#DejaVuSans-38" x="63.623047"/>
       <use xlink:href="#DejaVuSans-38" x="127.246094"/>
       <use xlink:href="#DejaVuSans-35" x="190.869141"/>
       <use xlink:href="#DejaVuSans-30" x="254.492188"/>
       <use xlink:href="#DejaVuSans-30" x="318.115234"/>
      </g>
     </g>
    </g>
   </g>
   <g id="matplotlib.axis_2">
    <g id="ytick_1">
     <g id="line2d_9">
      <defs>
       <path id="mf17a1d0b96" d="M 0 0 
L -3.5 0 
" style="stroke: #000000; stroke-width: 0.8"/>
      </defs>
      <g>
       <use xlink:href="#mf17a1d0b96" x="90" y="553.031465" style="stroke: #000000; stroke-width: 0.8"/>
      </g>
     </g>
     <g id="text_9">
      <!-- 5.8115 -->
      <g transform="translate(48.009375 556.830684) scale(0.1 -0.1)">
       <defs>
        <path id="DejaVuSans-2e" d="M 684 794 
L 1344 794 
L 1344 0 
L 684 0 
L 684 794 
z
" transform="scale(0.015625)"/>
        <path id="DejaVuSans-31" d="M 794 531 
L 1825 531 
L 1825 4091 
L 703 3866 
L 703 4441 
L 1819 4666 
L 2450 4666 
L 2450 531 
L 3481 531 
L 3481 0 
L 794 0 
L 794 531 
z
" transform="scale(0.015625)"/>
       </defs>
       <use xlink:href="#DejaVuSans-35"/>
       <use xlink:href="#DejaVuSans-2e" x="63.623047"/>
       <use xlink:href="#DejaVuSans-38" x="95.410156"/>
       <use xlink:href="#DejaVuSans-31" x="159.033203"/>
       <use xlink:href="#DejaVuSans-31" x="222.65625"/>
       <use xlink:href="#DejaVuSans-35" x="286.279297"/>
      </g>
     </g>
    </g>
    <g id="ytick_2">
     <g id="line2d_10">
      <g>
       <use xlink:href="#mf17a1d0b96" x="90" y="488.346133" style="stroke: #000000; stroke-width: 0.8"/>
      </g>
     </g>
     <g id="text_10">
      <!-- 5.8120 -->
      <g transform="translate(48.009375 492.145351) scale(0.1 -0.1)">
       <defs>
        <path id="DejaVuSans-32" d="M 1228 531 
L 3431 531 
L 3431 0 
L 469 0 
L 469 531 
Q 828 903 1448 1529 
Q 2069 2156 2228 2338 
Q 2531 2678 2651 2914 
Q 2772 3150 2772 3378 
Q 2772 3750 2511 3984 
Q 2250 4219 1831 4219 
Q 1534 4219 1204 4116 
Q 875 4013 500 3803 
L 500 4441 
Q 881 4594 1212 4672 
Q 1544 4750 1819 4750 
Q 2544 4750 2975 4387 
Q 3406 4025 3406 3419 
Q 3406 3131 3298 2873 
Q 3191 2616 2906 2266 
Q 2828 2175 2409 1742 
Q 1991 1309 1228 531 
z
" transform="scale(0.015625)"/>
       </defs>
       <use xlink:href="#DejaVuSans-35"/>
       <use xlink:href="#DejaVuSans-2e" x="63.623047"/>
       <use xlink:href="#DejaVuSans-38" x="95.410156"/>
       <use xlink:href="#DejaVuSans-31" x="159.033203"/>
       <use xlink:href="#DejaVuSans-32" x="222.65625"/>
       <use xlink:href="#DejaVuSans-30" x="286.279297"/>
      </g>
     </g>
    </g>
    <g id="ytick_3">
     <g id="line2d_11">
      <g>
       <use xlink:href="#mf17a1d0b96" x="90" y="423.6608" style="stroke: #000000; stroke-width: 0.8"/>
      </g>
     </g>
     <g id="text_11">
      <!-- 5.8125 -->
      <g transform="translate(48.009375 427.460019) scale(0.1 -0.1)">
       <use xlink:href="#DejaVuSans-35"/>
       <use xlink:href="#DejaVuSans-2e" x="63.623047"/>
       <use xlink:href="#DejaVuSans-38" x="95.410156"/>
       <use xlink:href="#DejaVuSans-31" x="159.033203"/>
       <use xlink:href="#DejaVuSans-32" x="222.65625"/>
       <use xlink:href="#DejaVuSans-35" x="286.279297"/>
      </g>
     </g>
    </g>
    <g id="ytick_4">
     <g id="line2d_12">
      <g>
       <use xlink:href="#mf17a1d0b96" x="90" y="358.975468" style="stroke: #000000; stroke-width: 0.8"/>
      </g>
     </g>
     <g id="text_12">
      <!-- 5.8130 -->
      <g transform="translate(48.009375 362.774686) scale(0.1 -0.1)">
       <use xlink:href="#DejaVuSans-35"/>
       <use xlink:href="#DejaVuSans-2e" x="63.623047"/>
       <use xlink:href="#DejaVuSans-38" x="95.410156"/>
       <use xlink:href="#DejaVuSans-31" x="159.033203"/>
       <use xlink:href="#DejaVuSans-33" x="222.65625"/>
       <use xlink:href="#DejaVuSans-30" x="286.279297"/>
      </g>
     </g>
    </g>
    <g id="ytick_5">
     <g id="line2d_13">
      <g>
       <use xlink:href="#mf17a1d0b96" x="90" y="294.290135" style="stroke: #000000; stroke-width: 0.8"/>
      </g>
     </g>
     <g id="text_13">
      <!-- 5.8135 -->
      <g transform="translate(48.009375 298.089354) scale(0.1 -0.1)">
       <use xlink:href="#DejaVuSans-35"/>
       <use xlink:href="#DejaVuSans-2e" x="63.623047"/>
       <use xlink:href="#DejaVuSans-38" x="95.410156"/>
       <use xlink:href="#DejaVuSans-31" x="159.033203"/>
       <use xlink:href="#DejaVuSans-33" x="222.65625"/>
       <use xlink:href="#DejaVuSans-35" x="286.279297"/>
      </g>
     </g>
    </g>
    <g id="ytick_6">
     <g id="line2d_14">
      <g>
       <use xlink:href="#mf17a1d0b96" x="90" y="229.604803" style="stroke: #000000; stroke-width: 0.8"/>
      </g>
     </g>
     <g id="text_14">
      <!-- 5.8140 -->
      <g transform="translate(48.009375 233.404021) scale(0.1 -0.1)">
       <defs>
        <path id="DejaVuSans-34" d="M 2419 4116 
L 825 1625 
L 2419 1625 
L 2419 4116 
z
M 2253 4666 
L 3047 4666 
L 3047 1625 
L 3713 1625 
L 3713 1100 
L 3047 1100 
L 3047 0 
L 2419 0 
L 2419 1100 
L 313 1100 
L 313 1709 
L 2253 4666 
z
" transform="scale(0.015625)"/>
       </defs>
       <use xlink:href="#DejaVuSans-35"/>
       <use xlink:href="#DejaVuSans-2e" x="63.623047"/>
       <use xlink:href="#DejaVuSans-38" x="95.410156"/>
       <use xlink:href="#DejaVuSans-31" x="159.033203"/>
       <use xlink:href="#DejaVuSans-34" x="222.65625"/>
       <use xlink:href="#DejaVuSans-30" x="286.279297"/>
      </g>
     </g>
    </g>
    <g id="text_15">
     <!-- 1e6 -->
     <g transform="translate(90 163.451636) scale(0.1 -0.1)">
      <defs>
       <path id="DejaVuSans-65" d="M 3597 1894 
L 3597 1613 
L 953 1613 
Q 991 1019 1311 708 
Q 1631 397 2203 397 
Q 2534 397 2845 478 
Q 3156 559 3463 722 
L 3463 178 
Q 3153 47 2828 -22 
Q 2503 -91 2169 -91 
Q 1331 -91 842 396 
Q 353 884 353 1716 
Q 353 2575 817 3079 
Q 1281 3584 2069 3584 
Q 2775 3584 3186 3129 
Q 3597 2675 3597 1894 
z
M 3022 2063 
Q 3016 2534 2758 2815 
Q 2500 3097 2075 3097 
Q 1594 3097 1305 2825 
Q 1016 2553 972 2059 
L 3022 2063 
z
" transform="scale(0.015625)"/>
      </defs>
      <use xlink:href="#DejaVuSans-31"/>
      <use xlink:href="#DejaVuSans-65" x="63.623047"/>
      <use xlink:href="#DejaVuSans-36" x="125.146484"/>
     </g>
    </g>
   </g>
   <g id="patch_3">
    <path d="M 90 560.748364 
L 90 166.451636 
" style="fill: none; stroke: #000000; stroke-width: 0.8; stroke-linejoin: miter; stroke-linecap: square"/>
   </g>
   <g id="patch_4">
    <path d="M 648 560.748364 
L 648 166.451636 
" style="fill: none; stroke: #000000; stroke-width: 0.8; stroke-linejoin: miter; stroke-linecap: square"/>
   </g>
   <g id="patch_5">
    <path d="M 90 560.748364 
L 648 560.748364 
" style="fill: none; stroke: #000000; stroke-width: 0.8; stroke-linejoin: miter; stroke-linecap: square"/>
   </g>
   <g id="patch_6">
    <path d="M 90 166.451636 
L 648 166.451636 
" style="fill: none; stroke: #000000; stroke-width: 0.8; stroke-linejoin: miter; stroke-linecap: square"/>
   </g>
   <g id="text_16">
    <!-- Steglitz -->
    <g transform="translate(340.444598 365.243657) scale(0.12 -0.12)">
     <defs>
      <path id="DejaVuSans-53" d="M 3425 4513 
L 3425 3897 
Q 3066 4069 2747 4153 
Q 2428 4238 2131 4238 
Q 1616 4238 1336 4038 
Q 1056 3838 1056 3469 
Q 1056 3159 1242 3001 
Q 1428 2844 1947 2747 
L 2328 2669 
Q 3034 2534 3370 2195 
Q 3706 1856 3706 1288 
Q 3706 609 3251 259 
Q 2797 -91 1919 -91 
Q 1588 -91 1214 -16 
Q 841 59 441 206 
L 441 856 
Q 825 641 1194 531 
Q 1563 422 1919 422 
Q 2459 422 2753 634 
Q 3047 847 3047 1241 
Q 3047 1584 2836 1778 
Q 2625 1972 2144 2069 
L 1759 2144 
Q 1053 2284 737 2584 
Q 422 2884 422 3419 
Q 422 4038 858 4394 
Q 1294 4750 2059 4750 
Q 2388 4750 2728 4690 
Q 3069 4631 3425 4513 
z
" transform="scale(0.015625)"/>
      <path id="DejaVuSans-74" d="M 1172 4494 
L 1172 3500 
L 2356 3500 
L 2356 3053 
L 1172 3053 
L 1172 1153 
Q 1172 725 1289 603 
Q 1406 481 1766 481 
L 2356 481 
L 2356 0 
L 1766 0 
Q 1100 0 847 248 
Q 594 497 594 1153 
L 594 3053 
L 172 3053 
L 172 3500 
L 594 3500 
L 594 4494 
L 1172 4494 
z
" transform="scale(0.015625)"/>
      <path id="DejaVuSans-67" d="M 2906 1791 
Q 2906 2416 2648 2759 
Q 2391 3103 1925 3103 
Q 1463 3103 1205 2759 
Q 947 2416 947 1791 
Q 947 1169 1205 825 
Q 1463 481 1925 481 
Q 2391 481 2648 825 
Q 2906 1169 2906 1791 
z
M 3481 434 
Q 3481 -459 3084 -895 
Q 2688 -1331 1869 -1331 
Q 1566 -1331 1297 -1286 
Q 1028 -1241 775 -1147 
L 775 -588 
Q 1028 -725 1275 -790 
Q 1522 -856 1778 -856 
Q 2344 -856 2625 -561 
Q 2906 -266 2906 331 
L 2906 616 
Q 2728 306 2450 153 
Q 2172 0 1784 0 
Q 1141 0 747 490 
Q 353 981 353 1791 
Q 353 2603 747 3093 
Q 1141 3584 1784 3584 
Q 2172 3584 2450 3431 
Q 2728 3278 2906 2969 
L 2906 3500 
L 3481 3500 
L 3481 434 
z
" transform="scale(0.015625)"/>
      <path id="DejaVuSans-6c" d="M 603 4863 
L 1178 4863 
L 1178 0 
L 603 0 
L 603 4863 
z
" transform="scale(0.015625)"/>
      <path id="DejaVuSans-69" d="M 603 3500 
L 1178 3500 
L 1178 0 
L 603 0 
L 603 3500 
z
M 603 4863 
L 1178 4863 
L 1178 4134 
L 603 4134 
L 603 4863 
z
" transform="scale(0.015625)"/>
      <path id="DejaVuSans-7a" d="M 353 3500 
L 3084 3500 
L 3084 2975 
L 922 459 
L 3084 459 
L 3084 0 
L 275 0 
L 275 525 
L 2438 3041 
L 353 3041 
L 353 3500 
z
" transform="scale(0.015625)"/>
     </defs>
     <use xlink:href="#DejaVuSans-53"/>
     <use xlink:href="#DejaVuSans-74" x="63.476562"/>
     <use xlink:href="#DejaVuSans-65" x="102.685547"/>
     <use xlink:href="#DejaVuSans-67" x="164.208984"/>
     <use xlink:href="#DejaVuSans-6c" x="227.685547"/>
     <use xlink:href="#DejaVuSans-69" x="255.46875"/>
     <use xlink:href="#DejaVuSans-74" x="283.251953"/>
     <use xlink:href="#DejaVuSans-7a" x="322.460938"/>
    </g>
   </g>
  </g>
 </g>
 <defs>
  <clipPath id="p409137f3ed">
   <rect x="90" y="166.451636" width="558" height="394.296728"/>
  </clipPath>
 </defs>
</svg>
