<?xml version="1.0" encoding="utf-8" standalone="no"?>
<!DOCTYPE svg PUBLIC "-//W3C//DTD SVG 1.1//EN"
  "http://www.w3.org/Graphics/SVG/1.1/DTD/svg11.dtd">
<svg xmlns:xlink="http://www.w3.org/1999/xlink" width="720pt" height="720pt" viewBox="0 0 720 720" xmlns="http://www.w3.org/2000/svg" version="1.1">
 <metadata>
  <rdf:RDF xmlns:dc="http://purl.org/dc/elements/1.1/" xmlns:cc="http://creativecommons.org/ns#" xmlns:rdf="http://www.w3.org/1999/02/22-rdf-syntax-ns#">
   <cc:Work>
    <dc:type rdf:resource="http://purl.org/dc/dcmitype/StillImage"/>
    <dc:date>2024-10-15T13:01:11.793124</dc:date>
    <dc:format>image/svg+xml</dc:format>
    <dc:creator>
     <cc:Agent>
      <dc:title>Matplotlib v3.9.2, https://matplotlib.org/</dc:title>
     </cc:Agent>
    </dc:creator>
   </cc:Work>
  </rdf:RDF>
 </metadata>
 <defs>
  <style type="text/css">*{stroke-linejoin: round; stroke-linecap: butt}</style>
 </defs>
 <g id="figure_1">
  <g id="patch_1">
   <path d="M 0 720 
L 720 720 
L 720 0 
L 0 0 
z
" style="fill: #ffffff"/>
  </g>
  <g id="axes_1">
   <g id="patch_2">
    <path d="M 90 588.406804 
L 648 588.406804 
L 648 138.793196 
L 90 138.793196 
z
" style="fill: #ffffff"/>
   </g>
   <g id="PatchCollection_1">
    <path d="M 317.292302 567.969822 
L 322.895015 562.612592 
L 323.699223 561.843453 
L 341.063312 545.239984 
L 347.994088 538.613337 
L 355.814467 531.135525 
L 358.479708 528.586982 
L 369.472539 518.075804 
L 370.701538 516.900498 
L 372.941395 517.287644 
L 373.186283 517.330043 
L 375.562255 517.741163 
L 381.617693 517.489934 
L 381.816021 517.192343 
L 382.42428 517.453676 
L 384.431136 517.359565 
L 386.977697 518.074417 
L 388.334886 515.518147 
L 389.399635 513.33555 
L 392.908908 512.74235 
L 393.398685 512.65973 
L 472.514262 499.285379 
L 536.963485 488.418756 
L 548.469076 486.478669 
L 552.410273 485.813746 
L 557.481007 484.958222 
L 561.633806 491.394466 
L 568.003478 501.265883 
L 568.266 501.672842 
L 574.136584 502.298932 
L 578.92855 497.503004 
L 579.411194 497.020161 
L 584.779915 491.64728 
L 594.972699 481.447958 
L 595.569664 480.851587 
L 596.21101 480.210439 
L 605.655259 470.768765 
L 606.417662 470.006758 
L 607.850338 468.574082 
L 622.636364 453.791227 
L 619.806477 451.40951 
L 610.46684 436.605257 
L 606.423012 431.148368 
L 603.903991 429.071572 
L 586.038831 414.343599 
L 584.65014 413.198409 
L 575.917969 405.999563 
L 575.111184 405.344348 
L 573.417373 403.968932 
L 572.503797 403.226738 
L 571.263703 402.207162 
L 566.961514 398.669952 
L 566.081818 397.946581 
L 562.684884 395.153348 
L 561.823218 394.444836 
L 557.586808 390.961517 
L 556.282124 389.888843 
L 555.369935 389.130798 
L 554.649589 388.532275 
L 553.712183 387.753401 
L 552.844573 387.032406 
L 550.195777 384.852781 
L 549.801301 384.528245 
L 547.584625 382.704263 
L 544.643389 380.28391 
L 543.868306 379.645932 
L 543.549515 379.383608 
L 541.627261 377.801741 
L 539.802089 376.299719 
L 539.44823 376.008865 
L 538.677307 375.374453 
L 538.628963 375.334431 
L 538.381499 375.130754 
L 538.258263 375.029311 
L 538.204173 374.984534 
L 537.84437 374.688132 
L 537.521418 374.421846 
L 536.915538 373.922559 
L 536.596945 373.660037 
L 536.221687 373.350756 
L 536.14303 373.285968 
L 535.765593 372.974706 
L 533.894059 371.432464 
L 533.569721 371.165187 
L 532.807714 370.537116 
L 532.022922 369.890421 
L 531.696206 369.621361 
L 529.855779 368.104677 
L 528.037543 366.606222 
L 527.67021 366.30348 
L 526.904042 365.672041 
L 526.133318 365.036837 
L 525.798677 364.761238 
L 523.951513 363.23881 
L 522.133079 361.740156 
L 521.764954 361.437018 
L 521.000173 360.806767 
L 520.206465 360.152741 
L 519.845077 359.854754 
L 518.049031 358.374527 
L 516.191763 356.843974 
L 515.823241 356.540242 
L 515.025571 355.882847 
L 514.275452 355.264682 
L 513.964388 355.008303 
L 512.082948 353.457937 
L 510.26491 351.95968 
L 509.894407 351.654363 
L 509.155582 351.04551 
L 508.455787 350.468754 
L 508.096974 350.173145 
L 506.192948 348.603957 
L 501.875305 345.045944 
L 501.639927 344.851777 
L 498.764866 343.049192 
L 495.935376 341.274941 
L 493.373954 339.668901 
L 495.94449 336.228378 
L 496.382554 335.641716 
L 497.116031 334.660182 
L 497.62562 333.977625 
L 498.935852 332.224177 
L 500.075891 330.697983 
L 500.445204 330.200876 
L 507.133073 321.192511 
L 509.244542 318.348557 
L 516.726515 308.271283 
L 519.06747 305.118118 
L 526.305889 295.368283 
L 530.682178 289.473924 
L 531.888788 287.848864 
L 543.898223 271.673355 
L 544.380867 271.023291 
L 544.921563 270.294966 
L 546.615969 268.01271 
L 547.271778 267.129447 
L 548.781788 265.095502 
L 551.817667 261.006248 
L 551.518293 260.605828 
L 553.675529 257.711747 
L 559.298253 250.119218 
L 553.039929 246.265595 
L 550.876154 244.932776 
L 543.519201 240.406701 
L 543.077966 240.134668 
L 542.955126 240.058983 
L 542.448112 239.748316 
L 541.884037 239.398815 
L 538.884749 237.554029 
L 538.186936 237.125474 
L 532.33775 233.533382 
L 531.358593 232.930275 
L 526.995578 230.251958 
L 525.560129 229.273593 
L 514.922543 222.038292 
L 510.070941 217.238797 
L 510.076687 216.523747 
L 504.556198 210.948773 
L 501.669646 209.182248 
L 495.934781 205.724885 
L 495.262923 205.317926 
L 482.577469 197.423447 
L 477.96782 193.956791 
L 470.626086 188.43549 
L 463.952681 185.043509 
L 458.778919 181.458352 
L 457.795403 180.775993 
L 444.792347 173.434098 
L 431.771262 166.095769 
L 428.970104 164.421969 
L 427.152263 163.337407 
L 422.428058 160.382698 
L 420.571979 159.230178 
L 418.305375 165.169909 
L 416.861604 168.966471 
L 414.697433 174.614951 
L 412.445886 180.491677 
L 412.281241 180.921618 
L 411.880622 181.966951 
L 411.224459 183.67983 
L 410.75049 184.917103 
L 410.316388 186.04981 
L 408.469225 190.871099 
L 406.598484 195.753808 
L 406.044315 197.200551 
L 405.650433 198.22825 
L 405.152335 199.527981 
L 402.963596 205.241646 
L 400.832909 210.802157 
L 400.763167 210.984238 
L 400.247634 212.329935 
L 399.871385 213.312064 
L 399.351691 214.668658 
L 399.269467 214.883035 
L 397.169094 220.365086 
L 394.899716 226.288571 
L 393.3759 230.358948 
L 393.261778 230.660303 
L 391.050848 236.503347 
L 390.481027 238.008538 
L 390.306078 238.471369 
L 389.311467 241.099758 
L 388.73808 242.615055 
L 388.580963 243.030731 
L 387.580606 245.673781 
L 387.149277 246.814018 
L 386.979678 247.261989 
L 386.172894 249.394261 
L 386.08116 249.636376 
L 385.901654 250.111095 
L 384.872172 252.831812 
L 383.867853 255.486156 
L 383.691319 255.952355 
L 383.31408 256.948948 
L 382.325413 259.562081 
L 381.332585 262.185516 
L 381.097999 262.805662 
L 379.439455 267.066046 
L 379.194567 267.695306 
L 377.955266 270.878854 
L 377.547911 271.924583 
L 377.221789 271.833443 
L 373.199756 270.708463 
L 370.804764 270.038586 
L 367.223965 269.037239 
L 366.895466 268.945306 
L 365.907987 268.687143 
L 361.038157 267.34105 
L 359.661552 266.957867 
L 357.421497 266.334155 
L 354.794495 265.60266 
L 354.544059 265.53272 
L 354.160282 265.426126 
L 350.657942 264.450734 
L 350.411271 264.382181 
L 341.406671 261.86732 
L 333.466622 259.664117 
L 331.404884 259.092117 
L 330.947205 258.965116 
L 329.931394 258.683177 
L 326.221613 257.653893 
L 325.717769 257.514014 
L 325.513893 257.457547 
L 325.336765 257.408411 
L 324.941496 257.298647 
L 322.270906 256.557641 
L 319.693238 255.842393 
L 319.273005 255.725893 
L 319.093698 255.676162 
L 318.974027 255.642877 
L 318.501092 255.511715 
L 316.005846 254.819251 
L 313.400242 254.096276 
L 312.965941 253.975813 
L 312.784455 253.92529 
L 309.510955 253.017063 
L 306.81441 252.268925 
L 305.607814 251.934134 
L 303.760681 251.421615 
L 303.159114 251.254699 
L 302.741061 251.138793 
L 301.276486 250.755214 
L 299.125193 250.192328 
L 297.768401 249.837279 
L 297.417909 249.739799 
L 294.005521 248.790956 
L 291.265981 248.029147 
L 289.62725 247.573449 
L 289.158872 247.44308 
L 287.979405 247.115175 
L 285.178445 246.336327 
L 279.999136 244.896122 
L 279.647654 244.798246 
L 278.943699 244.603286 
L 276.730194 243.990273 
L 275.974329 243.78085 
L 275.761141 243.721609 
L 271.605965 242.563739 
L 270.687832 242.307953 
L 270.276316 242.193038 
L 267.98455 241.554664 
L 265.840588 240.957303 
L 265.35834 240.822971 
L 264.3138 240.53172 
L 262.035308 239.897111 
L 261.588328 239.772487 
L 257.546679 238.646318 
L 252.434536 235.870124 
L 248.467385 233.71586 
L 248.186239 233.634428 
L 244.5143 232.570868 
L 241.991118 231.839967 
L 239.784548 231.200801 
L 239.392053 231.087273 
L 236.326589 230.199255 
L 234.073458 229.546418 
L 233.607853 229.41169 
L 233.488777 229.377215 
L 228.104008 227.817538 
L 221.448316 227.194352 
L 217.824245 226.855024 
L 217.250858 226.760318 
L 212.823253 226.028426 
L 209.235123 225.435226 
L 205.758145 224.86065 
L 203.493522 224.486185 
L 203.03505 224.410301 
L 200.832838 224.046337 
L 198.768128 223.705157 
L 198.325506 223.631849 
L 197.376267 223.47493 
L 195.705439 223.198936 
L 195.211303 223.117108 
L 193.813498 222.886089 
L 180.917432 220.754411 
L 179.045502 220.445131 
L 178.510354 220.356567 
L 175.920798 219.928606 
L 174.737766 219.732854 
L 173.038407 219.452104 
L 171.610883 219.216132 
L 170.946554 219.405544 
L 170.200793 219.618335 
L 169.633548 219.780207 
L 168.837264 220.007462 
L 161.178758 222.192635 
L 158.277148 223.020619 
L 157.145233 223.343372 
L 153.09348 224.499459 
L 152.556747 224.652415 
L 144.324457 227.001243 
L 143.718576 227.174012 
L 143.575724 227.215025 
L 140.930494 227.969503 
L 140.567124 228.073323 
L 140.376524 228.127809 
L 140.163732 228.188238 
L 139.751226 228.306126 
L 137.145028 229.049508 
L 136.159531 229.330654 
L 135.717899 229.456863 
L 133.627036 230.053432 
L 127.04695 231.930711 
L 126.621566 232.051966 
L 115.363636 236.003267 
L 122.162854 240.861805 
L 123.296949 245.108715 
L 123.706483 246.643032 
L 123.831701 247.112203 
L 124.217658 248.557758 
L 124.335941 249.00137 
L 124.659685 250.21333 
L 124.769053 250.622864 
L 125.165114 252.106261 
L 125.591687 253.704573 
L 125.71532 254.167404 
L 126.112174 255.653377 
L 126.686948 257.807048 
L 126.852981 258.427788 
L 127.081425 259.284105 
L 127.356032 260.312992 
L 127.496308 260.838036 
L 128.040373 262.875404 
L 128.067714 262.972686 
L 128.932551 266.050829 
L 130.252689 270.749476 
L 130.273889 270.825756 
L 129.533676 271.054397 
L 130.291522 273.585901 
L 130.998053 273.402433 
L 131.098703 273.760849 
L 132.287679 277.9929 
L 131.513785 278.220353 
L 135.899783 294.153153 
L 136.8619 293.895783 
L 137.106591 294.761213 
L 137.534353 296.274132 
L 137.665713 296.738944 
L 138.547984 299.858695 
L 138.692421 300.369672 
L 139.150695 301.990373 
L 139.391225 302.839953 
L 139.742509 304.082226 
L 140.080914 305.27893 
L 140.241003 305.834882 
L 140.488665 306.695161 
L 141.248294 309.334645 
L 141.483871 310.153714 
L 142.342367 313.135566 
L 142.510975 313.721634 
L 143.304683 316.479203 
L 143.340941 316.604818 
L 143.530749 317.263995 
L 144.115033 319.294825 
L 144.325844 320.027112 
L 144.529125 320.732851 
L 144.931328 322.130061 
L 145.110833 322.753972 
L 145.308171 323.439699 
L 145.500158 324.107 
L 145.677881 324.72457 
L 146.930655 329.076688 
L 147.184063 329.957176 
L 147.632827 331.516061 
L 148.053456 333.26832 
L 148.751853 336.171066 
L 148.79248 336.339925 
L 148.994572 337.179203 
L 149.718538 340.188595 
L 150.458157 342.533262 
L 151.405415 345.536711 
L 152.196943 348.046816 
L 152.258165 348.240587 
L 152.381798 348.632884 
L 152.980744 350.531958 
L 153.02671 350.677979 
L 153.146381 351.056605 
L 154.048267 353.916608 
L 154.360124 354.905077 
L 154.498814 355.345519 
L 154.815029 356.347659 
L 155.098157 357.245187 
L 155.2949 357.8689 
L 156.361432 361.25137 
L 156.863096 362.841361 
L 157.511575 363.283587 
L 157.917146 363.560176 
L 158.484392 363.946925 
L 159.366664 364.548645 
L 161.067013 365.7081 
L 165.204556 368.529269 
L 168.303107 370.631228 
L 167.186651 372.409192 
L 165.949326 374.379644 
L 160.716918 382.827697 
L 160.377918 383.374932 
L 159.011615 385.580512 
L 158.928202 385.715636 
L 158.695202 386.091687 
L 157.571212 387.906159 
L 156.451581 389.713894 
L 156.21541 390.095096 
L 156.133385 390.227248 
L 154.373002 393.069816 
L 154.169919 393.39772 
L 152.270647 396.504989 
L 151.924911 397.070649 
L 151.670909 397.485929 
L 149.796602 400.551392 
L 149.472659 401.081191 
L 148.549771 402.590345 
L 148.229594 403.114002 
L 146.662387 405.675621 
L 145.131835 408.177603 
L 143.546599 410.768348 
L 143.055039 411.571764 
L 142.824218 411.949201 
L 141.688737 413.805082 
L 141.475747 414.153196 
L 140.564153 419.903713 
L 140.484504 420.307105 
L 140.266562 421.411084 
L 139.502375 425.28353 
L 139.202407 426.803779 
L 139.107305 427.286027 
L 138.800798 428.83976 
L 138.212155 431.822801 
L 138.129733 432.240855 
L 138.104372 432.369243 
L 138.075445 432.515265 
L 137.971427 433.04328 
L 137.422409 435.825814 
L 137.1268 437.323279 
L 137.050718 437.708641 
L 137.029716 437.815235 
L 136.553611 440.228455 
L 136.480501 440.599156 
L 136.355877 441.265664 
L 135.778923 444.349157 
L 135.69135 444.753143 
L 134.869508 448.540591 
L 135.219801 449.681224 
L 135.542158 450.731906 
L 136.065815 452.437803 
L 135.739892 453.152655 
L 133.832497 457.337749 
L 133.656954 457.892909 
L 133.360354 458.831449 
L 132.017629 463.078756 
L 129.010812 472.59037 
L 128.879452 473.006046 
L 129.31613 473.136217 
L 133.082774 474.260009 
L 134.978281 474.834585 
L 136.201336 475.205682 
L 136.351716 475.251054 
L 136.879732 475.411341 
L 139.310982 476.148582 
L 140.800918 476.58843 
L 141.258003 476.723356 
L 142.768544 477.169346 
L 142.763392 477.186385 
L 144.191512 477.612364 
L 144.637502 477.745507 
L 146.033325 478.162174 
L 146.042241 478.135823 
L 149.27136 479.089025 
L 150.538597 479.463292 
L 150.87304 479.563546 
L 153.310234 480.294446 
L 153.632591 480.393709 
L 154.517637 480.666138 
L 157.000598 481.430126 
L 161.201939 482.67973 
L 163.233561 483.291555 
L 163.655181 483.418358 
L 166.390759 484.53046 
L 168.78159 485.486832 
L 171.046213 486.392681 
L 174.494661 487.771862 
L 174.640682 487.83031 
L 175.210107 488.05816 
L 175.503141 488.175254 
L 177.487608 488.968962 
L 178.063373 489.199189 
L 178.529969 489.385827 
L 179.753222 489.875009 
L 183.986858 491.379012 
L 184.933522 491.715436 
L 185.282626 491.839267 
L 186.32994 492.211553 
L 187.377452 492.583443 
L 187.726556 492.70767 
L 189.022523 493.167925 
L 191.69767 493.911308 
L 198.509767 495.804041 
L 198.611804 495.832572 
L 198.810924 495.887652 
L 199.334581 496.033277 
L 202.08799 496.798256 
L 204.275144 497.406118 
L 204.875477 497.572943 
L 205.352969 497.70569 
L 206.839933 498.395974 
L 206.94831 498.449667 
L 207.6168 498.781337 
L 208.402582 499.171256 
L 208.83609 499.386029 
L 209.519241 499.725029 
L 210.206355 500.06601 
L 210.393786 500.158933 
L 211.446053 500.680608 
L 212.631859 501.268855 
L 213.64034 501.769133 
L 216.939596 503.3829 
L 217.553005 503.679698 
L 225.153064 507.356589 
L 226.300433 507.911551 
L 228.469557 508.961044 
L 228.919311 509.17859 
L 229.065531 509.249521 
L 229.18322 509.306384 
L 229.605237 509.510458 
L 231.036922 510.203317 
L 231.998049 510.66813 
L 232.186074 510.760062 
L 232.789578 511.055671 
L 232.927278 511.123035 
L 234.565811 511.925065 
L 235.54259 512.40335 
L 243.53653 516.31661 
L 244.230182 516.656204 
L 245.313952 517.186796 
L 246.334518 517.686479 
L 247.099101 518.060548 
L 252.556188 520.732129 
L 256.311539 522.570377 
L 257.220756 523.015574 
L 260.136037 524.442504 
L 267.028574 530.719254 
L 267.030791 530.721273 
L 269.54918 533.014389 
L 270.581634 533.548349 
L 271.989544 534.276475 
L 272.330129 534.452613 
L 274.123995 535.807027 
L 276.699286 537.751076 
L 277.003217 537.545418 
L 279.611 539.574266 
L 279.407323 539.850063 
L 284.683716 543.869917 
L 293.603912 550.666162 
L 297.38819 553.54578 
L 313.791944 565.432771 
L 317.292302 567.969822 
" clip-path="url(#pb0b626048d)" style="fill: #d3d3d3"/>
   </g>
   <g id="PatchCollection_2">
    <path d="M 348.89519 306.001691 
L 348.89519 305.803561 
L 348.69706 305.803561 
L 348.69706 306.001691 
L 348.89519 306.001691 
" clip-path="url(#pb0b626048d)" style="fill: #ff0000; fill-opacity: 0.7; stroke: #000000; stroke-opacity: 0.7; stroke-width: 0.5"/>
    <path d="M 232.415901 395.546412 
L 232.415901 395.348282 
L 232.217771 395.348282 
L 232.217771 395.546412 
L 232.415901 395.546412 
" clip-path="url(#pb0b626048d)" style="fill: #ff0000; fill-opacity: 0.7; stroke: #000000; stroke-opacity: 0.7; stroke-width: 0.5"/>
    <path d="M 343.604933 346.735386 
L 343.604933 346.537256 
L 343.406804 346.537256 
L 343.406804 346.735386 
L 343.604933 346.735386 
" clip-path="url(#pb0b626048d)" style="fill: #ff0000; fill-opacity: 0.7; stroke: #000000; stroke-opacity: 0.7; stroke-width: 0.5"/>
    <path d="M 331.072871 324.291986 
L 331.072871 324.093857 
L 330.874741 324.093857 
L 330.874741 324.291986 
L 331.072871 324.291986 
" clip-path="url(#pb0b626048d)" style="fill: #ff0000; fill-opacity: 0.7; stroke: #000000; stroke-opacity: 0.7; stroke-width: 0.5"/>
    <path d="M 586.541161 484.301625 
L 586.541161 484.103496 
L 586.343031 484.103496 
L 586.343031 484.301625 
L 586.541161 484.301625 
" clip-path="url(#pb0b626048d)" style="fill: #ff0000; fill-opacity: 0.7; stroke: #000000; stroke-opacity: 0.7; stroke-width: 0.5"/>
    <path d="M 347.28989 507.146024 
L 347.28989 506.947894 
L 347.091761 506.947894 
L 347.091761 507.146024 
L 347.28989 507.146024 
" clip-path="url(#pb0b626048d)" style="fill: #ff0000; fill-opacity: 0.7; stroke: #000000; stroke-opacity: 0.7; stroke-width: 0.5"/>
    <path d="M 189.73001 283.807384 
L 189.73001 283.609254 
L 189.53188 283.609254 
L 189.53188 283.807384 
L 189.73001 283.807384 
" clip-path="url(#pb0b626048d)" style="fill: #ff0000; fill-opacity: 0.7; stroke: #000000; stroke-opacity: 0.7; stroke-width: 0.5"/>
    <path d="M 450.548086 365.837709 
L 450.548086 365.63958 
L 450.349956 365.63958 
L 450.349956 365.837709 
L 450.548086 365.837709 
" clip-path="url(#pb0b626048d)" style="fill: #ff0000; fill-opacity: 0.7; stroke: #000000; stroke-opacity: 0.7; stroke-width: 0.5"/>
    <path d="M 367.773848 412.10124 
L 367.773848 411.90311 
L 367.575719 411.90311 
L 367.575719 412.10124 
L 367.773848 412.10124 
" clip-path="url(#pb0b626048d)" style="fill: #ff0000; fill-opacity: 0.7; stroke: #000000; stroke-opacity: 0.7; stroke-width: 0.5"/>
    <path d="M 227.906209 238.347476 
L 227.906209 238.149346 
L 227.708079 238.149346 
L 227.708079 238.347476 
L 227.906209 238.347476 
" clip-path="url(#pb0b626048d)" style="fill: #ff0000; fill-opacity: 0.7; stroke: #000000; stroke-opacity: 0.7; stroke-width: 0.5"/>
    <path d="M 317.661508 334.234497 
L 317.661508 334.036368 
L 317.463378 334.036368 
L 317.463378 334.234497 
L 317.661508 334.234497 
" clip-path="url(#pb0b626048d)" style="fill: #ff0000; fill-opacity: 0.7; stroke: #000000; stroke-opacity: 0.7; stroke-width: 0.5"/>
    <path d="M 467.926887 415.121881 
L 467.926887 414.923751 
L 467.728757 414.923751 
L 467.728757 415.121881 
L 467.926887 415.121881 
" clip-path="url(#pb0b626048d)" style="fill: #ff0000; fill-opacity: 0.7; stroke: #000000; stroke-opacity: 0.7; stroke-width: 0.5"/>
    <path d="M 349.954479 266.794502 
L 349.954479 266.596372 
L 349.756349 266.596372 
L 349.756349 266.794502 
L 349.954479 266.794502 
" clip-path="url(#pb0b626048d)" style="fill: #ff0000; fill-opacity: 0.7; stroke: #000000; stroke-opacity: 0.7; stroke-width: 0.5"/>
    <path d="M 507.432464 477.40758 
L 507.432464 477.20945 
L 507.234334 477.20945 
L 507.234334 477.40758 
L 507.432464 477.40758 
" clip-path="url(#pb0b626048d)" style="fill: #ff0000; fill-opacity: 0.7; stroke: #000000; stroke-opacity: 0.7; stroke-width: 0.5"/>
    <path d="M 401.456599 481.359051 
L 401.456599 481.160921 
L 401.258469 481.160921 
L 401.258469 481.359051 
L 401.456599 481.359051 
" clip-path="url(#pb0b626048d)" style="fill: #ff0000; fill-opacity: 0.7; stroke: #000000; stroke-opacity: 0.7; stroke-width: 0.5"/>
    <path d="M 128.855609 234.993522 
L 128.855609 234.795392 
L 128.657479 234.795392 
L 128.657479 234.993522 
L 128.855609 234.993522 
" clip-path="url(#pb0b626048d)" style="fill: #ff0000; fill-opacity: 0.7; stroke: #000000; stroke-opacity: 0.7; stroke-width: 0.5"/>
    <path d="M 227.906414 238.347304 
L 227.906414 238.149174 
L 227.708284 238.149174 
L 227.708284 238.347304 
L 227.906414 238.347304 
" clip-path="url(#pb0b626048d)" style="fill: #ff0000; fill-opacity: 0.7; stroke: #000000; stroke-opacity: 0.7; stroke-width: 0.5"/>
    <path d="M 338.214195 373.06573 
L 338.214195 372.8676 
L 338.016065 372.8676 
L 338.016065 373.06573 
L 338.214195 373.06573 
" clip-path="url(#pb0b626048d)" style="fill: #ff0000; fill-opacity: 0.7; stroke: #000000; stroke-opacity: 0.7; stroke-width: 0.5"/>
    <path d="M 475.203152 363.693009 
L 475.203152 363.494879 
L 475.005023 363.494879 
L 475.005023 363.693009 
L 475.203152 363.693009 
" clip-path="url(#pb0b626048d)" style="fill: #ff0000; fill-opacity: 0.7; stroke: #000000; stroke-opacity: 0.7; stroke-width: 0.5"/>
    <path d="M 303.531043 362.172784 
L 303.531043 361.974654 
L 303.332913 361.974654 
L 303.332913 362.172784 
L 303.531043 362.172784 
" clip-path="url(#pb0b626048d)" style="fill: #ff0000; fill-opacity: 0.7; stroke: #000000; stroke-opacity: 0.7; stroke-width: 0.5"/>
    <path d="M 437.767018 401.334143 
L 437.767018 401.136014 
L 437.568888 401.136014 
L 437.568888 401.334143 
L 437.767018 401.334143 
" clip-path="url(#pb0b626048d)" style="fill: #ff0000; fill-opacity: 0.7; stroke: #000000; stroke-opacity: 0.7; stroke-width: 0.5"/>
    <path d="M 266.058005 384.767031 
L 266.058005 384.568901 
L 265.859875 384.568901 
L 265.859875 384.767031 
L 266.058005 384.767031 
" clip-path="url(#pb0b626048d)" style="fill: #ff0000; fill-opacity: 0.7; stroke: #000000; stroke-opacity: 0.7; stroke-width: 0.5"/>
    <path d="M 443.583096 406.42683 
L 443.583096 406.2287 
L 443.384966 406.2287 
L 443.384966 406.42683 
L 443.583096 406.42683 
" clip-path="url(#pb0b626048d)" style="fill: #ff0000; fill-opacity: 0.7; stroke: #000000; stroke-opacity: 0.7; stroke-width: 0.5"/>
    <path d="M 387.340823 482.110934 
L 387.340823 481.912804 
L 387.142694 481.912804 
L 387.142694 482.110934 
L 387.340823 482.110934 
" clip-path="url(#pb0b626048d)" style="fill: #ff0000; fill-opacity: 0.7; stroke: #000000; stroke-opacity: 0.7; stroke-width: 0.5"/>
    <path d="M 204.026926 496.96732 
L 204.026926 496.76919 
L 203.828797 496.76919 
L 203.828797 496.96732 
L 204.026926 496.96732 
" clip-path="url(#pb0b626048d)" style="fill: #ff0000; fill-opacity: 0.7; stroke: #000000; stroke-opacity: 0.7; stroke-width: 0.5"/>
    <path d="M 327.123967 298.787581 
L 327.123967 298.589452 
L 326.925837 298.589452 
L 326.925837 298.787581 
L 327.123967 298.787581 
" clip-path="url(#pb0b626048d)" style="fill: #ff0000; fill-opacity: 0.7; stroke: #000000; stroke-opacity: 0.7; stroke-width: 0.5"/>
    <path d="M 421.124071 350.139476 
L 421.124071 349.941346 
L 420.925941 349.941346 
L 420.925941 350.139476 
L 421.124071 350.139476 
" clip-path="url(#pb0b626048d)" style="fill: #ff0000; fill-opacity: 0.7; stroke: #000000; stroke-opacity: 0.7; stroke-width: 0.5"/>
    <path d="M 271.228258 377.422975 
L 271.228258 377.224845 
L 271.030129 377.224845 
L 271.030129 377.422975 
L 271.228258 377.422975 
" clip-path="url(#pb0b626048d)" style="fill: #ff0000; fill-opacity: 0.7; stroke: #000000; stroke-opacity: 0.7; stroke-width: 0.5"/>
    <path d="M 539.845635 377.509321 
L 539.845635 377.311192 
L 539.647505 377.311192 
L 539.647505 377.509321 
L 539.845635 377.509321 
" clip-path="url(#pb0b626048d)" style="fill: #ff0000; fill-opacity: 0.7; stroke: #000000; stroke-opacity: 0.7; stroke-width: 0.5"/>
    <path d="M 370.253241 353.565476 
L 370.253241 353.367346 
L 370.055111 353.367346 
L 370.055111 353.565476 
L 370.253241 353.565476 
" clip-path="url(#pb0b626048d)" style="fill: #ff0000; fill-opacity: 0.7; stroke: #000000; stroke-opacity: 0.7; stroke-width: 0.5"/>
    <path d="M 177.960427 221.251753 
L 177.960427 221.053624 
L 177.762297 221.053624 
L 177.762297 221.251753 
L 177.960427 221.251753 
" clip-path="url(#pb0b626048d)" style="fill: #ff0000; fill-opacity: 0.7; stroke: #000000; stroke-opacity: 0.7; stroke-width: 0.5"/>
    <path d="M 259.150984 380.585026 
L 259.150984 380.386897 
L 258.952854 380.386897 
L 258.952854 380.585026 
L 259.150984 380.585026 
" clip-path="url(#pb0b626048d)" style="fill: #ff0000; fill-opacity: 0.7; stroke: #000000; stroke-opacity: 0.7; stroke-width: 0.5"/>
    <path d="M 435.730206 435.133934 
L 435.730206 434.935804 
L 435.532076 434.935804 
L 435.532076 435.133934 
L 435.730206 435.133934 
" clip-path="url(#pb0b626048d)" style="fill: #ff0000; fill-opacity: 0.7; stroke: #000000; stroke-opacity: 0.7; stroke-width: 0.5"/>
    <path d="M 473.764878 427.624483 
L 473.764878 427.426353 
L 473.566748 427.426353 
L 473.566748 427.624483 
L 473.764878 427.624483 
" clip-path="url(#pb0b626048d)" style="fill: #ff0000; fill-opacity: 0.7; stroke: #000000; stroke-opacity: 0.7; stroke-width: 0.5"/>
    <path d="M 184.087161 412.350924 
L 184.087161 412.152794 
L 183.889031 412.152794 
L 183.889031 412.350924 
L 184.087161 412.350924 
" clip-path="url(#pb0b626048d)" style="fill: #ff0000; fill-opacity: 0.7; stroke: #000000; stroke-opacity: 0.7; stroke-width: 0.5"/>
    <path d="M 280.745544 350.081311 
L 280.745544 349.883181 
L 280.547415 349.883181 
L 280.547415 350.081311 
L 280.745544 350.081311 
" clip-path="url(#pb0b626048d)" style="fill: #ff0000; fill-opacity: 0.7; stroke: #000000; stroke-opacity: 0.7; stroke-width: 0.5"/>
    <path d="M 208.053061 286.28426 
L 208.053061 286.08613 
L 207.854931 286.08613 
L 207.854931 286.28426 
L 208.053061 286.28426 
" clip-path="url(#pb0b626048d)" style="fill: #ff0000; fill-opacity: 0.7; stroke: #000000; stroke-opacity: 0.7; stroke-width: 0.5"/>
    <path d="M 207.614404 226.153849 
L 207.614404 225.955719 
L 207.416274 225.955719 
L 207.416274 226.153849 
L 207.614404 226.153849 
" clip-path="url(#pb0b626048d)" style="fill: #ff0000; fill-opacity: 0.7; stroke: #000000; stroke-opacity: 0.7; stroke-width: 0.5"/>
    <path d="M 391.824128 330.831807 
L 391.824128 330.633678 
L 391.625998 330.633678 
L 391.625998 330.831807 
L 391.824128 330.831807 
" clip-path="url(#pb0b626048d)" style="fill: #ff0000; fill-opacity: 0.7; stroke: #000000; stroke-opacity: 0.7; stroke-width: 0.5"/>
    <path d="M 128.611767 232.538432 
L 128.611767 232.340302 
L 128.413637 232.340302 
L 128.413637 232.538432 
L 128.611767 232.538432 
" clip-path="url(#pb0b626048d)" style="fill: #ff0000; fill-opacity: 0.7; stroke: #000000; stroke-opacity: 0.7; stroke-width: 0.5"/>
    <path d="M 148.534577 257.117524 
L 148.534577 256.919394 
L 148.336447 256.919394 
L 148.336447 257.117524 
L 148.534577 257.117524 
" clip-path="url(#pb0b626048d)" style="fill: #ff0000; fill-opacity: 0.7; stroke: #000000; stroke-opacity: 0.7; stroke-width: 0.5"/>
    <path d="M 507.014027 488.542311 
L 507.014027 488.344181 
L 506.815897 488.344181 
L 506.815897 488.542311 
L 507.014027 488.542311 
" clip-path="url(#pb0b626048d)" style="fill: #ff0000; fill-opacity: 0.7; stroke: #000000; stroke-opacity: 0.7; stroke-width: 0.5"/>
    <path d="M 212.929637 436.889465 
L 212.929637 436.691335 
L 212.731507 436.691335 
L 212.731507 436.889465 
L 212.929637 436.889465 
" clip-path="url(#pb0b626048d)" style="fill: #ff0000; fill-opacity: 0.7; stroke: #000000; stroke-opacity: 0.7; stroke-width: 0.5"/>
    <path d="M 424.48239 432.278048 
L 424.48239 432.079919 
L 424.28426 432.079919 
L 424.28426 432.278048 
L 424.48239 432.278048 
" clip-path="url(#pb0b626048d)" style="fill: #ff0000; fill-opacity: 0.7; stroke: #000000; stroke-opacity: 0.7; stroke-width: 0.5"/>
    <path d="M 456.989593 415.046192 
L 456.989593 414.848063 
L 456.791463 414.848063 
L 456.791463 415.046192 
L 456.989593 415.046192 
" clip-path="url(#pb0b626048d)" style="fill: #ff0000; fill-opacity: 0.7; stroke: #000000; stroke-opacity: 0.7; stroke-width: 0.5"/>
    <path d="M 371.798965 271.313845 
L 371.798965 271.115715 
L 371.600835 271.115715 
L 371.600835 271.313845 
L 371.798965 271.313845 
" clip-path="url(#pb0b626048d)" style="fill: #ff0000; fill-opacity: 0.7; stroke: #000000; stroke-opacity: 0.7; stroke-width: 0.5"/>
    <path d="M 139.06732 229.555665 
L 139.06732 229.357536 
L 138.86919 229.357536 
L 138.86919 229.555665 
L 139.06732 229.555665 
" clip-path="url(#pb0b626048d)" style="fill: #ff0000; fill-opacity: 0.7; stroke: #000000; stroke-opacity: 0.7; stroke-width: 0.5"/>
    <path d="M 334.605438 333.210395 
L 334.605438 333.012265 
L 334.407309 333.012265 
L 334.407309 333.210395 
L 334.605438 333.210395 
" clip-path="url(#pb0b626048d)" style="fill: #ff0000; fill-opacity: 0.7; stroke: #000000; stroke-opacity: 0.7; stroke-width: 0.5"/>
    <path d="M 361.611698 343.009187 
L 361.611698 342.811057 
L 361.413569 342.811057 
L 361.413569 343.009187 
L 361.611698 343.009187 
" clip-path="url(#pb0b626048d)" style="fill: #ff0000; fill-opacity: 0.7; stroke: #000000; stroke-opacity: 0.7; stroke-width: 0.5"/>
    <path d="M 172.040367 297.187494 
L 172.040367 296.989364 
L 171.842237 296.989364 
L 171.842237 297.187494 
L 172.040367 297.187494 
" clip-path="url(#pb0b626048d)" style="fill: #ff0000; fill-opacity: 0.7; stroke: #000000; stroke-opacity: 0.7; stroke-width: 0.5"/>
    <path d="M 128.611767 232.538432 
L 128.611767 232.340302 
L 128.413637 232.340302 
L 128.413637 232.538432 
L 128.611767 232.538432 
" clip-path="url(#pb0b626048d)" style="fill: #ff0000; fill-opacity: 0.7; stroke: #000000; stroke-opacity: 0.7; stroke-width: 0.5"/>
    <path d="M 503.391555 347.368138 
L 503.391555 347.170008 
L 503.193425 347.170008 
L 503.193425 347.368138 
L 503.391555 347.368138 
" clip-path="url(#pb0b626048d)" style="fill: #ff0000; fill-opacity: 0.7; stroke: #000000; stroke-opacity: 0.7; stroke-width: 0.5"/>
    <path d="M 498.074828 452.252073 
L 498.074828 452.053943 
L 497.876698 452.053943 
L 497.876698 452.252073 
L 498.074828 452.252073 
" clip-path="url(#pb0b626048d)" style="fill: #ff0000; fill-opacity: 0.7; stroke: #000000; stroke-opacity: 0.7; stroke-width: 0.5"/>
    <path d="M 301.032464 457.433668 
L 301.032464 457.235538 
L 300.834334 457.235538 
L 300.834334 457.433668 
L 301.032464 457.433668 
" clip-path="url(#pb0b626048d)" style="fill: #ff0000; fill-opacity: 0.7; stroke: #000000; stroke-opacity: 0.7; stroke-width: 0.5"/>
    <path d="M 215.836612 429.615941 
L 215.836612 429.417811 
L 215.638482 429.417811 
L 215.638482 429.615941 
L 215.836612 429.615941 
" clip-path="url(#pb0b626048d)" style="fill: #ff0000; fill-opacity: 0.7; stroke: #000000; stroke-opacity: 0.7; stroke-width: 0.5"/>
    <path d="M 345.598563 353.92875 
L 345.598563 353.73062 
L 345.400433 353.73062 
L 345.400433 353.92875 
L 345.598563 353.92875 
" clip-path="url(#pb0b626048d)" style="fill: #ff0000; fill-opacity: 0.7; stroke: #000000; stroke-opacity: 0.7; stroke-width: 0.5"/>
    <path d="M 395.900792 507.312869 
L 395.900792 507.114739 
L 395.702662 507.114739 
L 395.702662 507.312869 
L 395.900792 507.312869 
" clip-path="url(#pb0b626048d)" style="fill: #ff0000; fill-opacity: 0.7; stroke: #000000; stroke-opacity: 0.7; stroke-width: 0.5"/>
    <path d="M 465.279779 394.927953 
L 465.279779 394.729823 
L 465.081649 394.729823 
L 465.081649 394.927953 
L 465.279779 394.927953 
" clip-path="url(#pb0b626048d)" style="fill: #ff0000; fill-opacity: 0.7; stroke: #000000; stroke-opacity: 0.7; stroke-width: 0.5"/>
    <path d="M 213.676447 235.661196 
L 213.676447 235.463066 
L 213.478318 235.463066 
L 213.478318 235.661196 
L 213.676447 235.661196 
" clip-path="url(#pb0b626048d)" style="fill: #ff0000; fill-opacity: 0.7; stroke: #000000; stroke-opacity: 0.7; stroke-width: 0.5"/>
    <path d="M 255.342457 243.599583 
L 255.342457 243.401453 
L 255.144327 243.401453 
L 255.144327 243.599583 
L 255.342457 243.599583 
" clip-path="url(#pb0b626048d)" style="fill: #ff0000; fill-opacity: 0.7; stroke: #000000; stroke-opacity: 0.7; stroke-width: 0.5"/>
    <path d="M 515.280877 450.552373 
L 515.280877 450.354244 
L 515.082748 450.354244 
L 515.082748 450.552373 
L 515.280877 450.552373 
" clip-path="url(#pb0b626048d)" style="fill: #ff0000; fill-opacity: 0.7; stroke: #000000; stroke-opacity: 0.7; stroke-width: 0.5"/>
    <path d="M 202.070248 320.159334 
L 202.070248 319.961204 
L 201.872118 319.961204 
L 201.872118 320.159334 
L 202.070248 320.159334 
" clip-path="url(#pb0b626048d)" style="fill: #ff0000; fill-opacity: 0.7; stroke: #000000; stroke-opacity: 0.7; stroke-width: 0.5"/>
    <path d="M 341.71792 363.918519 
L 341.71792 363.720389 
L 341.51979 363.720389 
L 341.51979 363.918519 
L 341.71792 363.918519 
" clip-path="url(#pb0b626048d)" style="fill: #ff0000; fill-opacity: 0.7; stroke: #000000; stroke-opacity: 0.7; stroke-width: 0.5"/>
    <path d="M 259.160448 380.590592 
L 259.160448 380.392462 
L 258.962318 380.392462 
L 258.962318 380.590592 
L 259.160448 380.590592 
" clip-path="url(#pb0b626048d)" style="fill: #ff0000; fill-opacity: 0.7; stroke: #000000; stroke-opacity: 0.7; stroke-width: 0.5"/>
    <path d="M 305.498631 553.477607 
L 305.498631 553.279478 
L 305.300502 553.279478 
L 305.300502 553.477607 
L 305.498631 553.477607 
" clip-path="url(#pb0b626048d)" style="fill: #ff0000; fill-opacity: 0.7; stroke: #000000; stroke-opacity: 0.7; stroke-width: 0.5"/>
    <path d="M 231.951923 398.079157 
L 231.951923 397.881027 
L 231.753793 397.881027 
L 231.753793 398.079157 
L 231.951923 398.079157 
" clip-path="url(#pb0b626048d)" style="fill: #ff0000; fill-opacity: 0.7; stroke: #000000; stroke-opacity: 0.7; stroke-width: 0.5"/>
    <path d="M 291.385125 361.121185 
L 291.385125 360.923055 
L 291.186995 360.923055 
L 291.186995 361.121185 
L 291.385125 361.121185 
" clip-path="url(#pb0b626048d)" style="fill: #ff0000; fill-opacity: 0.7; stroke: #000000; stroke-opacity: 0.7; stroke-width: 0.5"/>
    <path d="M 188.874711 489.51993 
L 188.874711 489.3218 
L 188.676581 489.3218 
L 188.676581 489.51993 
L 188.874711 489.51993 
" clip-path="url(#pb0b626048d)" style="fill: #ff0000; fill-opacity: 0.7; stroke: #000000; stroke-opacity: 0.7; stroke-width: 0.5"/>
    <path d="M 153.197862 469.655744 
L 153.197862 469.457614 
L 152.999732 469.457614 
L 152.999732 469.655744 
L 153.197862 469.655744 
" clip-path="url(#pb0b626048d)" style="fill: #ff0000; fill-opacity: 0.7; stroke: #000000; stroke-opacity: 0.7; stroke-width: 0.5"/>
    <path d="M 405.637955 475.71984 
L 405.637955 475.521711 
L 405.439826 475.521711 
L 405.439826 475.71984 
L 405.637955 475.71984 
" clip-path="url(#pb0b626048d)" style="fill: #ff0000; fill-opacity: 0.7; stroke: #000000; stroke-opacity: 0.7; stroke-width: 0.5"/>
    <path d="M 381.74726 319.077932 
L 381.74726 318.879802 
L 381.54913 318.879802 
L 381.54913 319.077932 
L 381.74726 319.077932 
" clip-path="url(#pb0b626048d)" style="fill: #ff0000; fill-opacity: 0.7; stroke: #000000; stroke-opacity: 0.7; stroke-width: 0.5"/>
    <path d="M 360.300092 315.46809 
L 360.300092 315.26996 
L 360.101962 315.26996 
L 360.101962 315.46809 
L 360.300092 315.46809 
" clip-path="url(#pb0b626048d)" style="fill: #ff0000; fill-opacity: 0.7; stroke: #000000; stroke-opacity: 0.7; stroke-width: 0.5"/>
    <path d="M 372.070035 414.651779 
L 372.070035 414.45365 
L 371.871906 414.45365 
L 371.871906 414.651779 
L 372.070035 414.651779 
" clip-path="url(#pb0b626048d)" style="fill: #ff0000; fill-opacity: 0.7; stroke: #000000; stroke-opacity: 0.7; stroke-width: 0.5"/>
    <path d="M 180.790935 268.592001 
L 180.790935 268.393871 
L 180.592806 268.393871 
L 180.592806 268.592001 
L 180.790935 268.592001 
" clip-path="url(#pb0b626048d)" style="fill: #ff0000; fill-opacity: 0.7; stroke: #000000; stroke-opacity: 0.7; stroke-width: 0.5"/>
    <path d="M 289.945061 248.635522 
L 289.945061 248.437392 
L 289.746932 248.437392 
L 289.746932 248.635522 
L 289.945061 248.635522 
" clip-path="url(#pb0b626048d)" style="fill: #ff0000; fill-opacity: 0.7; stroke: #000000; stroke-opacity: 0.7; stroke-width: 0.5"/>
    <path d="M 396.908632 260.979689 
L 396.908632 260.781559 
L 396.710503 260.781559 
L 396.710503 260.979689 
L 396.908632 260.979689 
" clip-path="url(#pb0b626048d)" style="fill: #ff0000; fill-opacity: 0.7; stroke: #000000; stroke-opacity: 0.7; stroke-width: 0.5"/>
    <path d="M 452.346878 412.826298 
L 452.346878 412.628168 
L 452.148748 412.628168 
L 452.148748 412.826298 
L 452.346878 412.826298 
" clip-path="url(#pb0b626048d)" style="fill: #ff0000; fill-opacity: 0.7; stroke: #000000; stroke-opacity: 0.7; stroke-width: 0.5"/>
    <path d="M 394.960911 394.431856 
L 394.960911 394.233726 
L 394.762781 394.233726 
L 394.762781 394.431856 
L 394.960911 394.431856 
" clip-path="url(#pb0b626048d)" style="fill: #ff0000; fill-opacity: 0.7; stroke: #000000; stroke-opacity: 0.7; stroke-width: 0.5"/>
    <path d="M 379.598792 296.591617 
L 379.598792 296.393487 
L 379.400662 296.393487 
L 379.400662 296.591617 
L 379.598792 296.591617 
" clip-path="url(#pb0b626048d)" style="fill: #ff0000; fill-opacity: 0.7; stroke: #000000; stroke-opacity: 0.7; stroke-width: 0.5"/>
    <path d="M 227.906414 238.347304 
L 227.906414 238.149174 
L 227.708284 238.149174 
L 227.708284 238.347304 
L 227.906414 238.347304 
" clip-path="url(#pb0b626048d)" style="fill: #ff0000; fill-opacity: 0.7; stroke: #000000; stroke-opacity: 0.7; stroke-width: 0.5"/>
    <path d="M 255.342457 243.599583 
L 255.342457 243.401453 
L 255.144327 243.401453 
L 255.144327 243.599583 
L 255.342457 243.599583 
" clip-path="url(#pb0b626048d)" style="fill: #ff0000; fill-opacity: 0.7; stroke: #000000; stroke-opacity: 0.7; stroke-width: 0.5"/>
    <path d="M 284.076913 358.883259 
L 284.076913 358.685129 
L 283.878783 358.685129 
L 283.878783 358.883259 
L 284.076913 358.883259 
" clip-path="url(#pb0b626048d)" style="fill: #ff0000; fill-opacity: 0.7; stroke: #000000; stroke-opacity: 0.7; stroke-width: 0.5"/>
    <path d="M 463.819276 396.896344 
L 463.819276 396.698215 
L 463.621146 396.698215 
L 463.621146 396.896344 
L 463.819276 396.896344 
" clip-path="url(#pb0b626048d)" style="fill: #ff0000; fill-opacity: 0.7; stroke: #000000; stroke-opacity: 0.7; stroke-width: 0.5"/>
    <path d="M 493.531418 434.302868 
L 493.531418 434.104738 
L 493.333288 434.104738 
L 493.333288 434.302868 
L 493.531418 434.302868 
" clip-path="url(#pb0b626048d)" style="fill: #ff0000; fill-opacity: 0.7; stroke: #000000; stroke-opacity: 0.7; stroke-width: 0.5"/>
    <path d="M 267.647928 368.652931 
L 267.647928 368.454801 
L 267.449799 368.454801 
L 267.449799 368.652931 
L 267.647928 368.652931 
" clip-path="url(#pb0b626048d)" style="fill: #ff0000; fill-opacity: 0.7; stroke: #000000; stroke-opacity: 0.7; stroke-width: 0.5"/>
    <path d="M 354.296968 362.049271 
L 354.296968 361.851141 
L 354.098838 361.851141 
L 354.098838 362.049271 
L 354.296968 362.049271 
" clip-path="url(#pb0b626048d)" style="fill: #ff0000; fill-opacity: 0.7; stroke: #000000; stroke-opacity: 0.7; stroke-width: 0.5"/>
    <path d="M 210.806939 251.51951 
L 210.806939 251.32138 
L 210.608809 251.32138 
L 210.608809 251.51951 
L 210.806939 251.51951 
" clip-path="url(#pb0b626048d)" style="fill: #ff0000; fill-opacity: 0.7; stroke: #000000; stroke-opacity: 0.7; stroke-width: 0.5"/>
    <path d="M 159.31391 316.158949 
L 159.31391 315.960819 
L 159.115781 315.960819 
L 159.115781 316.158949 
L 159.31391 316.158949 
" clip-path="url(#pb0b626048d)" style="fill: #ff0000; fill-opacity: 0.7; stroke: #000000; stroke-opacity: 0.7; stroke-width: 0.5"/>
    <path d="M 301.032464 457.433668 
L 301.032464 457.235538 
L 300.834334 457.235538 
L 300.834334 457.433668 
L 301.032464 457.433668 
" clip-path="url(#pb0b626048d)" style="fill: #ff0000; fill-opacity: 0.7; stroke: #000000; stroke-opacity: 0.7; stroke-width: 0.5"/>
    <path d="M 217.573096 306.093817 
L 217.573096 305.895687 
L 217.374967 305.895687 
L 217.374967 306.093817 
L 217.573096 306.093817 
" clip-path="url(#pb0b626048d)" style="fill: #ff0000; fill-opacity: 0.7; stroke: #000000; stroke-opacity: 0.7; stroke-width: 0.5"/>
    <path d="M 442.132688 426.569619 
L 442.132688 426.371489 
L 441.934558 426.371489 
L 441.934558 426.569619 
L 442.132688 426.569619 
" clip-path="url(#pb0b626048d)" style="fill: #ff0000; fill-opacity: 0.7; stroke: #000000; stroke-opacity: 0.7; stroke-width: 0.5"/>
    <path d="M 306.220969 364.182249 
L 306.220969 363.98412 
L 306.022839 363.98412 
L 306.022839 364.182249 
L 306.220969 364.182249 
" clip-path="url(#pb0b626048d)" style="fill: #ff0000; fill-opacity: 0.7; stroke: #000000; stroke-opacity: 0.7; stroke-width: 0.5"/>
    <path d="M 362.668283 340.28693 
L 362.668283 340.0888 
L 362.470154 340.0888 
L 362.470154 340.28693 
L 362.668283 340.28693 
" clip-path="url(#pb0b626048d)" style="fill: #ff0000; fill-opacity: 0.7; stroke: #000000; stroke-opacity: 0.7; stroke-width: 0.5"/>
    <path d="M 366.785834 271.371241 
L 366.785834 271.173111 
L 366.587705 271.173111 
L 366.587705 271.371241 
L 366.785834 271.371241 
" clip-path="url(#pb0b626048d)" style="fill: #ff0000; fill-opacity: 0.7; stroke: #000000; stroke-opacity: 0.7; stroke-width: 0.5"/>
    <path d="M 177.960427 221.251753 
L 177.960427 221.053624 
L 177.762297 221.053624 
L 177.762297 221.251753 
L 177.960427 221.251753 
" clip-path="url(#pb0b626048d)" style="fill: #ff0000; fill-opacity: 0.7; stroke: #000000; stroke-opacity: 0.7; stroke-width: 0.5"/>
    <path d="M 207.187372 256.875675 
L 207.187372 256.677545 
L 206.989242 256.677545 
L 206.989242 256.875675 
L 207.187372 256.875675 
" clip-path="url(#pb0b626048d)" style="fill: #ff0000; fill-opacity: 0.7; stroke: #000000; stroke-opacity: 0.7; stroke-width: 0.5"/>
    <path d="M 355.451076 359.064987 
L 355.451076 358.866858 
L 355.252946 358.866858 
L 355.252946 359.064987 
L 355.451076 359.064987 
" clip-path="url(#pb0b626048d)" style="fill: #ff0000; fill-opacity: 0.7; stroke: #000000; stroke-opacity: 0.7; stroke-width: 0.5"/>
    <path d="M 184.689692 290.013826 
L 184.689692 289.815696 
L 184.491563 289.815696 
L 184.491563 290.013826 
L 184.689692 290.013826 
" clip-path="url(#pb0b626048d)" style="fill: #ff0000; fill-opacity: 0.7; stroke: #000000; stroke-opacity: 0.7; stroke-width: 0.5"/>
    <path d="M 386.254916 475.00518 
L 386.254916 474.80705 
L 386.056786 474.80705 
L 386.056786 475.00518 
L 386.254916 475.00518 
" clip-path="url(#pb0b626048d)" style="fill: #ff0000; fill-opacity: 0.7; stroke: #000000; stroke-opacity: 0.7; stroke-width: 0.5"/>
    <path d="M 366.613788 299.489621 
L 366.613788 299.291492 
L 366.415658 299.291492 
L 366.415658 299.489621 
L 366.613788 299.489621 
" clip-path="url(#pb0b626048d)" style="fill: #ff0000; fill-opacity: 0.7; stroke: #000000; stroke-opacity: 0.7; stroke-width: 0.5"/>
    <path d="M 242.935074 480.930089 
L 242.935074 480.731959 
L 242.736944 480.731959 
L 242.736944 480.930089 
L 242.935074 480.930089 
" clip-path="url(#pb0b626048d)" style="fill: #ff0000; fill-opacity: 0.7; stroke: #000000; stroke-opacity: 0.7; stroke-width: 0.5"/>
    <path d="M 215.836612 429.615941 
L 215.836612 429.417811 
L 215.638482 429.417811 
L 215.638482 429.615941 
L 215.836612 429.615941 
" clip-path="url(#pb0b626048d)" style="fill: #ff0000; fill-opacity: 0.7; stroke: #000000; stroke-opacity: 0.7; stroke-width: 0.5"/>
    <path d="M 362.534175 449.066211 
L 362.534175 448.868081 
L 362.336045 448.868081 
L 362.336045 449.066211 
L 362.534175 449.066211 
" clip-path="url(#pb0b626048d)" style="fill: #ff0000; fill-opacity: 0.7; stroke: #000000; stroke-opacity: 0.7; stroke-width: 0.5"/>
    <path d="M 180.907455 486.99311 
L 180.907455 486.794981 
L 180.709325 486.794981 
L 180.709325 486.99311 
L 180.907455 486.99311 
" clip-path="url(#pb0b626048d)" style="fill: #ff0000; fill-opacity: 0.7; stroke: #000000; stroke-opacity: 0.7; stroke-width: 0.5"/>
    <path d="M 341.051175 345.489645 
L 341.051175 345.291516 
L 340.853045 345.291516 
L 340.853045 345.489645 
L 341.051175 345.489645 
" clip-path="url(#pb0b626048d)" style="fill: #ff0000; fill-opacity: 0.7; stroke: #000000; stroke-opacity: 0.7; stroke-width: 0.5"/>
    <path d="M 227.906414 238.347304 
L 227.906414 238.149174 
L 227.708284 238.149174 
L 227.708284 238.347304 
L 227.906414 238.347304 
" clip-path="url(#pb0b626048d)" style="fill: #ff0000; fill-opacity: 0.7; stroke: #000000; stroke-opacity: 0.7; stroke-width: 0.5"/>
    <path d="M 421.838462 435.85753 
L 421.838462 435.6594 
L 421.640332 435.6594 
L 421.640332 435.85753 
L 421.838462 435.85753 
" clip-path="url(#pb0b626048d)" style="fill: #ff0000; fill-opacity: 0.7; stroke: #000000; stroke-opacity: 0.7; stroke-width: 0.5"/>
    <path d="M 366.613802 299.4896 
L 366.613802 299.29147 
L 366.415672 299.29147 
L 366.415672 299.4896 
L 366.613802 299.4896 
" clip-path="url(#pb0b626048d)" style="fill: #ff0000; fill-opacity: 0.7; stroke: #000000; stroke-opacity: 0.7; stroke-width: 0.5"/>
    <path d="M 258.645434 239.949282 
L 258.645434 239.751152 
L 258.447305 239.751152 
L 258.447305 239.949282 
L 258.645434 239.949282 
" clip-path="url(#pb0b626048d)" style="fill: #ff0000; fill-opacity: 0.7; stroke: #000000; stroke-opacity: 0.7; stroke-width: 0.5"/>
    <path d="M 189.516476 443.704868 
L 189.516476 443.506738 
L 189.318346 443.506738 
L 189.318346 443.704868 
L 189.516476 443.704868 
" clip-path="url(#pb0b626048d)" style="fill: #ff0000; fill-opacity: 0.7; stroke: #000000; stroke-opacity: 0.7; stroke-width: 0.5"/>
    <path d="M 374.454709 279.189442 
L 374.454709 278.991312 
L 374.256579 278.991312 
L 374.256579 279.189442 
L 374.454709 279.189442 
" clip-path="url(#pb0b626048d)" style="fill: #ff0000; fill-opacity: 0.7; stroke: #000000; stroke-opacity: 0.7; stroke-width: 0.5"/>
    <path d="M 347.780869 341.66933 
L 347.780869 341.4712 
L 347.582739 341.4712 
L 347.582739 341.66933 
L 347.780869 341.66933 
" clip-path="url(#pb0b626048d)" style="fill: #ff0000; fill-opacity: 0.7; stroke: #000000; stroke-opacity: 0.7; stroke-width: 0.5"/>
    <path d="M 217.573096 306.093817 
L 217.573096 305.895687 
L 217.374967 305.895687 
L 217.374967 306.093817 
L 217.573096 306.093817 
" clip-path="url(#pb0b626048d)" style="fill: #ff0000; fill-opacity: 0.7; stroke: #000000; stroke-opacity: 0.7; stroke-width: 0.5"/>
    <path d="M 255.342457 243.599561 
L 255.342457 243.401431 
L 255.144328 243.401431 
L 255.144328 243.599561 
L 255.342457 243.599561 
" clip-path="url(#pb0b626048d)" style="fill: #ff0000; fill-opacity: 0.7; stroke: #000000; stroke-opacity: 0.7; stroke-width: 0.5"/>
    <path d="M 168.081451 303.049892 
L 168.081451 302.851762 
L 167.883321 302.851762 
L 167.883321 303.049892 
L 168.081451 303.049892 
" clip-path="url(#pb0b626048d)" style="fill: #ff0000; fill-opacity: 0.7; stroke: #000000; stroke-opacity: 0.7; stroke-width: 0.5"/>
    <path d="M 368.607975 270.421153 
L 368.607975 270.223023 
L 368.409846 270.223023 
L 368.409846 270.421153 
L 368.607975 270.421153 
" clip-path="url(#pb0b626048d)" style="fill: #ff0000; fill-opacity: 0.7; stroke: #000000; stroke-opacity: 0.7; stroke-width: 0.5"/>
    <path d="M 269.58008 242.996045 
L 269.58008 242.797916 
L 269.38195 242.797916 
L 269.38195 242.996045 
L 269.58008 242.996045 
" clip-path="url(#pb0b626048d)" style="fill: #ff0000; fill-opacity: 0.7; stroke: #000000; stroke-opacity: 0.7; stroke-width: 0.5"/>
    <path d="M 188.874725 489.519908 
L 188.874725 489.321778 
L 188.676595 489.321778 
L 188.676595 489.519908 
L 188.874725 489.519908 
" clip-path="url(#pb0b626048d)" style="fill: #ff0000; fill-opacity: 0.7; stroke: #000000; stroke-opacity: 0.7; stroke-width: 0.5"/>
    <path d="M 317.661525 334.234299 
L 317.661525 334.03617 
L 317.463396 334.03617 
L 317.463396 334.234299 
L 317.661525 334.234299 
" clip-path="url(#pb0b626048d)" style="fill: #ff0000; fill-opacity: 0.7; stroke: #000000; stroke-opacity: 0.7; stroke-width: 0.5"/>
    <path d="M 139.06732 229.555665 
L 139.06732 229.357536 
L 138.86919 229.357536 
L 138.86919 229.555665 
L 139.06732 229.555665 
" clip-path="url(#pb0b626048d)" style="fill: #ff0000; fill-opacity: 0.7; stroke: #000000; stroke-opacity: 0.7; stroke-width: 0.5"/>
   </g>
   <g id="matplotlib.axis_1">
    <g id="xtick_1">
     <g id="line2d_1">
      <defs>
       <path id="mac5d0fdebf" d="M 0 0 
L 0 3.5 
" style="stroke: #000000; stroke-width: 0.8"/>
      </defs>
      <g>
       <use xlink:href="#mac5d0fdebf" x="160.036342" y="588.406804" style="stroke: #000000; stroke-width: 0.8"/>
      </g>
     </g>
     <g id="text_1">
      <!-- 392000 -->
      <g transform="translate(140.948842 603.005242) scale(0.1 -0.1)">
       <defs>
        <path id="DejaVuSans-33" d="M 2597 2516 
Q 3050 2419 3304 2112 
Q 3559 1806 3559 1356 
Q 3559 666 3084 287 
Q 2609 -91 1734 -91 
Q 1441 -91 1130 -33 
Q 819 25 488 141 
L 488 750 
Q 750 597 1062 519 
Q 1375 441 1716 441 
Q 2309 441 2620 675 
Q 2931 909 2931 1356 
Q 2931 1769 2642 2001 
Q 2353 2234 1838 2234 
L 1294 2234 
L 1294 2753 
L 1863 2753 
Q 2328 2753 2575 2939 
Q 2822 3125 2822 3475 
Q 2822 3834 2567 4026 
Q 2313 4219 1838 4219 
Q 1578 4219 1281 4162 
Q 984 4106 628 3988 
L 628 4550 
Q 988 4650 1302 4700 
Q 1616 4750 1894 4750 
Q 2613 4750 3031 4423 
Q 3450 4097 3450 3541 
Q 3450 3153 3228 2886 
Q 3006 2619 2597 2516 
z
" transform="scale(0.015625)"/>
        <path id="DejaVuSans-39" d="M 703 97 
L 703 672 
Q 941 559 1184 500 
Q 1428 441 1663 441 
Q 2288 441 2617 861 
Q 2947 1281 2994 2138 
Q 2813 1869 2534 1725 
Q 2256 1581 1919 1581 
Q 1219 1581 811 2004 
Q 403 2428 403 3163 
Q 403 3881 828 4315 
Q 1253 4750 1959 4750 
Q 2769 4750 3195 4129 
Q 3622 3509 3622 2328 
Q 3622 1225 3098 567 
Q 2575 -91 1691 -91 
Q 1453 -91 1209 -44 
Q 966 3 703 97 
z
M 1959 2075 
Q 2384 2075 2632 2365 
Q 2881 2656 2881 3163 
Q 2881 3666 2632 3958 
Q 2384 4250 1959 4250 
Q 1534 4250 1286 3958 
Q 1038 3666 1038 3163 
Q 1038 2656 1286 2365 
Q 1534 2075 1959 2075 
z
" transform="scale(0.015625)"/>
        <path id="DejaVuSans-32" d="M 1228 531 
L 3431 531 
L 3431 0 
L 469 0 
L 469 531 
Q 828 903 1448 1529 
Q 2069 2156 2228 2338 
Q 2531 2678 2651 2914 
Q 2772 3150 2772 3378 
Q 2772 3750 2511 3984 
Q 2250 4219 1831 4219 
Q 1534 4219 1204 4116 
Q 875 4013 500 3803 
L 500 4441 
Q 881 4594 1212 4672 
Q 1544 4750 1819 4750 
Q 2544 4750 2975 4387 
Q 3406 4025 3406 3419 
Q 3406 3131 3298 2873 
Q 3191 2616 2906 2266 
Q 2828 2175 2409 1742 
Q 1991 1309 1228 531 
z
" transform="scale(0.015625)"/>
        <path id="DejaVuSans-30" d="M 2034 4250 
Q 1547 4250 1301 3770 
Q 1056 3291 1056 2328 
Q 1056 1369 1301 889 
Q 1547 409 2034 409 
Q 2525 409 2770 889 
Q 3016 1369 3016 2328 
Q 3016 3291 2770 3770 
Q 2525 4250 2034 4250 
z
M 2034 4750 
Q 2819 4750 3233 4129 
Q 3647 3509 3647 2328 
Q 3647 1150 3233 529 
Q 2819 -91 2034 -91 
Q 1250 -91 836 529 
Q 422 1150 422 2328 
Q 422 3509 836 4129 
Q 1250 4750 2034 4750 
z
" transform="scale(0.015625)"/>
       </defs>
       <use xlink:href="#DejaVuSans-33"/>
       <use xlink:href="#DejaVuSans-39" x="63.623047"/>
       <use xlink:href="#DejaVuSans-32" x="127.246094"/>
       <use xlink:href="#DejaVuSans-30" x="190.869141"/>
       <use xlink:href="#DejaVuSans-30" x="254.492188"/>
       <use xlink:href="#DejaVuSans-30" x="318.115234"/>
      </g>
     </g>
    </g>
    <g id="xtick_2">
     <g id="line2d_2">
      <g>
       <use xlink:href="#mac5d0fdebf" x="259.101205" y="588.406804" style="stroke: #000000; stroke-width: 0.8"/>
      </g>
     </g>
     <g id="text_2">
      <!-- 392500 -->
      <g transform="translate(240.013705 603.005242) scale(0.1 -0.1)">
       <defs>
        <path id="DejaVuSans-35" d="M 691 4666 
L 3169 4666 
L 3169 4134 
L 1269 4134 
L 1269 2991 
Q 1406 3038 1543 3061 
Q 1681 3084 1819 3084 
Q 2600 3084 3056 2656 
Q 3513 2228 3513 1497 
Q 3513 744 3044 326 
Q 2575 -91 1722 -91 
Q 1428 -91 1123 -41 
Q 819 9 494 109 
L 494 744 
Q 775 591 1075 516 
Q 1375 441 1709 441 
Q 2250 441 2565 725 
Q 2881 1009 2881 1497 
Q 2881 1984 2565 2268 
Q 2250 2553 1709 2553 
Q 1456 2553 1204 2497 
Q 953 2441 691 2322 
L 691 4666 
z
" transform="scale(0.015625)"/>
       </defs>
       <use xlink:href="#DejaVuSans-33"/>
       <use xlink:href="#DejaVuSans-39" x="63.623047"/>
       <use xlink:href="#DejaVuSans-32" x="127.246094"/>
       <use xlink:href="#DejaVuSans-35" x="190.869141"/>
       <use xlink:href="#DejaVuSans-30" x="254.492188"/>
       <use xlink:href="#DejaVuSans-30" x="318.115234"/>
      </g>
     </g>
    </g>
    <g id="xtick_3">
     <g id="line2d_3">
      <g>
       <use xlink:href="#mac5d0fdebf" x="358.166068" y="588.406804" style="stroke: #000000; stroke-width: 0.8"/>
      </g>
     </g>
     <g id="text_3">
      <!-- 393000 -->
      <g transform="translate(339.078568 603.005242) scale(0.1 -0.1)">
       <use xlink:href="#DejaVuSans-33"/>
       <use xlink:href="#DejaVuSans-39" x="63.623047"/>
       <use xlink:href="#DejaVuSans-33" x="127.246094"/>
       <use xlink:href="#DejaVuSans-30" x="190.869141"/>
       <use xlink:href="#DejaVuSans-30" x="254.492188"/>
       <use xlink:href="#DejaVuSans-30" x="318.115234"/>
      </g>
     </g>
    </g>
    <g id="xtick_4">
     <g id="line2d_4">
      <g>
       <use xlink:href="#mac5d0fdebf" x="457.230931" y="588.406804" style="stroke: #000000; stroke-width: 0.8"/>
      </g>
     </g>
     <g id="text_4">
      <!-- 393500 -->
      <g transform="translate(438.143431 603.005242) scale(0.1 -0.1)">
       <use xlink:href="#DejaVuSans-33"/>
       <use xlink:href="#DejaVuSans-39" x="63.623047"/>
       <use xlink:href="#DejaVuSans-33" x="127.246094"/>
       <use xlink:href="#DejaVuSans-35" x="190.869141"/>
       <use xlink:href="#DejaVuSans-30" x="254.492188"/>
       <use xlink:href="#DejaVuSans-30" x="318.115234"/>
      </g>
     </g>
    </g>
    <g id="xtick_5">
     <g id="line2d_5">
      <g>
       <use xlink:href="#mac5d0fdebf" x="556.295795" y="588.406804" style="stroke: #000000; stroke-width: 0.8"/>
      </g>
     </g>
     <g id="text_5">
      <!-- 394000 -->
      <g transform="translate(537.208295 603.005242) scale(0.1 -0.1)">
       <defs>
        <path id="DejaVuSans-34" d="M 2419 4116 
L 825 1625 
L 2419 1625 
L 2419 4116 
z
M 2253 4666 
L 3047 4666 
L 3047 1625 
L 3713 1625 
L 3713 1100 
L 3047 1100 
L 3047 0 
L 2419 0 
L 2419 1100 
L 313 1100 
L 313 1709 
L 2253 4666 
z
" transform="scale(0.015625)"/>
       </defs>
       <use xlink:href="#DejaVuSans-33"/>
       <use xlink:href="#DejaVuSans-39" x="63.623047"/>
       <use xlink:href="#DejaVuSans-34" x="127.246094"/>
       <use xlink:href="#DejaVuSans-30" x="190.869141"/>
       <use xlink:href="#DejaVuSans-30" x="254.492188"/>
       <use xlink:href="#DejaVuSans-30" x="318.115234"/>
      </g>
     </g>
    </g>
   </g>
   <g id="matplotlib.axis_2">
    <g id="ytick_1">
     <g id="line2d_6">
      <defs>
       <path id="m5821db49ac" d="M 0 0 
L -3.5 0 
" style="stroke: #000000; stroke-width: 0.8"/>
      </defs>
      <g>
       <use xlink:href="#m5821db49ac" x="90" y="501.979769" style="stroke: #000000; stroke-width: 0.8"/>
      </g>
     </g>
     <g id="text_6">
      <!-- 5.8210 -->
      <g transform="translate(48.009375 505.778988) scale(0.1 -0.1)">
       <defs>
        <path id="DejaVuSans-2e" d="M 684 794 
L 1344 794 
L 1344 0 
L 684 0 
L 684 794 
z
" transform="scale(0.015625)"/>
        <path id="DejaVuSans-38" d="M 2034 2216 
Q 1584 2216 1326 1975 
Q 1069 1734 1069 1313 
Q 1069 891 1326 650 
Q 1584 409 2034 409 
Q 2484 409 2743 651 
Q 3003 894 3003 1313 
Q 3003 1734 2745 1975 
Q 2488 2216 2034 2216 
z
M 1403 2484 
Q 997 2584 770 2862 
Q 544 3141 544 3541 
Q 544 4100 942 4425 
Q 1341 4750 2034 4750 
Q 2731 4750 3128 4425 
Q 3525 4100 3525 3541 
Q 3525 3141 3298 2862 
Q 3072 2584 2669 2484 
Q 3125 2378 3379 2068 
Q 3634 1759 3634 1313 
Q 3634 634 3220 271 
Q 2806 -91 2034 -91 
Q 1263 -91 848 271 
Q 434 634 434 1313 
Q 434 1759 690 2068 
Q 947 2378 1403 2484 
z
M 1172 3481 
Q 1172 3119 1398 2916 
Q 1625 2713 2034 2713 
Q 2441 2713 2670 2916 
Q 2900 3119 2900 3481 
Q 2900 3844 2670 4047 
Q 2441 4250 2034 4250 
Q 1625 4250 1398 4047 
Q 1172 3844 1172 3481 
z
" transform="scale(0.015625)"/>
        <path id="DejaVuSans-31" d="M 794 531 
L 1825 531 
L 1825 4091 
L 703 3866 
L 703 4441 
L 1819 4666 
L 2450 4666 
L 2450 531 
L 3481 531 
L 3481 0 
L 794 0 
L 794 531 
z
" transform="scale(0.015625)"/>
       </defs>
       <use xlink:href="#DejaVuSans-35"/>
       <use xlink:href="#DejaVuSans-2e" x="63.623047"/>
       <use xlink:href="#DejaVuSans-38" x="95.410156"/>
       <use xlink:href="#DejaVuSans-32" x="159.033203"/>
       <use xlink:href="#DejaVuSans-31" x="222.65625"/>
       <use xlink:href="#DejaVuSans-30" x="286.279297"/>
      </g>
     </g>
    </g>
    <g id="ytick_2">
     <g id="line2d_7">
      <g>
       <use xlink:href="#m5821db49ac" x="90" y="402.914906" style="stroke: #000000; stroke-width: 0.8"/>
      </g>
     </g>
     <g id="text_7">
      <!-- 5.8215 -->
      <g transform="translate(48.009375 406.714125) scale(0.1 -0.1)">
       <use xlink:href="#DejaVuSans-35"/>
       <use xlink:href="#DejaVuSans-2e" x="63.623047"/>
       <use xlink:href="#DejaVuSans-38" x="95.410156"/>
       <use xlink:href="#DejaVuSans-32" x="159.033203"/>
       <use xlink:href="#DejaVuSans-31" x="222.65625"/>
       <use xlink:href="#DejaVuSans-35" x="286.279297"/>
      </g>
     </g>
    </g>
    <g id="ytick_3">
     <g id="line2d_8">
      <g>
       <use xlink:href="#m5821db49ac" x="90" y="303.850043" style="stroke: #000000; stroke-width: 0.8"/>
      </g>
     </g>
     <g id="text_8">
      <!-- 5.8220 -->
      <g transform="translate(48.009375 307.649262) scale(0.1 -0.1)">
       <use xlink:href="#DejaVuSans-35"/>
       <use xlink:href="#DejaVuSans-2e" x="63.623047"/>
       <use xlink:href="#DejaVuSans-38" x="95.410156"/>
       <use xlink:href="#DejaVuSans-32" x="159.033203"/>
       <use xlink:href="#DejaVuSans-32" x="222.65625"/>
       <use xlink:href="#DejaVuSans-30" x="286.279297"/>
      </g>
     </g>
    </g>
    <g id="ytick_4">
     <g id="line2d_9">
      <g>
       <use xlink:href="#m5821db49ac" x="90" y="204.78518" style="stroke: #000000; stroke-width: 0.8"/>
      </g>
     </g>
     <g id="text_9">
      <!-- 5.8225 -->
      <g transform="translate(48.009375 208.584399) scale(0.1 -0.1)">
       <use xlink:href="#DejaVuSans-35"/>
       <use xlink:href="#DejaVuSans-2e" x="63.623047"/>
       <use xlink:href="#DejaVuSans-38" x="95.410156"/>
       <use xlink:href="#DejaVuSans-32" x="159.033203"/>
       <use xlink:href="#DejaVuSans-32" x="222.65625"/>
       <use xlink:href="#DejaVuSans-35" x="286.279297"/>
      </g>
     </g>
    </g>
    <g id="text_10">
     <!-- 1e6 -->
     <g transform="translate(90 135.793196) scale(0.1 -0.1)">
      <defs>
       <path id="DejaVuSans-65" d="M 3597 1894 
L 3597 1613 
L 953 1613 
Q 991 1019 1311 708 
Q 1631 397 2203 397 
Q 2534 397 2845 478 
Q 3156 559 3463 722 
L 3463 178 
Q 3153 47 2828 -22 
Q 2503 -91 2169 -91 
Q 1331 -91 842 396 
Q 353 884 353 1716 
Q 353 2575 817 3079 
Q 1281 3584 2069 3584 
Q 2775 3584 3186 3129 
Q 3597 2675 3597 1894 
z
M 3022 2063 
Q 3016 2534 2758 2815 
Q 2500 3097 2075 3097 
Q 1594 3097 1305 2825 
Q 1016 2553 972 2059 
L 3022 2063 
z
" transform="scale(0.015625)"/>
       <path id="DejaVuSans-36" d="M 2113 2584 
Q 1688 2584 1439 2293 
Q 1191 2003 1191 1497 
Q 1191 994 1439 701 
Q 1688 409 2113 409 
Q 2538 409 2786 701 
Q 3034 994 3034 1497 
Q 3034 2003 2786 2293 
Q 2538 2584 2113 2584 
z
M 3366 4563 
L 3366 3988 
Q 3128 4100 2886 4159 
Q 2644 4219 2406 4219 
Q 1781 4219 1451 3797 
Q 1122 3375 1075 2522 
Q 1259 2794 1537 2939 
Q 1816 3084 2150 3084 
Q 2853 3084 3261 2657 
Q 3669 2231 3669 1497 
Q 3669 778 3244 343 
Q 2819 -91 2113 -91 
Q 1303 -91 875 529 
Q 447 1150 447 2328 
Q 447 3434 972 4092 
Q 1497 4750 2381 4750 
Q 2619 4750 2861 4703 
Q 3103 4656 3366 4563 
z
" transform="scale(0.015625)"/>
      </defs>
      <use xlink:href="#DejaVuSans-31"/>
      <use xlink:href="#DejaVuSans-65" x="63.623047"/>
      <use xlink:href="#DejaVuSans-36" x="125.146484"/>
     </g>
    </g>
   </g>
   <g id="patch_3">
    <path d="M 90 588.406804 
L 90 138.793196 
" style="fill: none; stroke: #000000; stroke-width: 0.8; stroke-linejoin: miter; stroke-linecap: square"/>
   </g>
   <g id="patch_4">
    <path d="M 648 588.406804 
L 648 138.793196 
" style="fill: none; stroke: #000000; stroke-width: 0.8; stroke-linejoin: miter; stroke-linecap: square"/>
   </g>
   <g id="patch_5">
    <path d="M 90 588.406804 
L 648 588.406804 
" style="fill: none; stroke: #000000; stroke-width: 0.8; stroke-linejoin: miter; stroke-linecap: square"/>
   </g>
   <g id="patch_6">
    <path d="M 90 138.793196 
L 648 138.793196 
" style="fill: none; stroke: #000000; stroke-width: 0.8; stroke-linejoin: miter; stroke-linecap: square"/>
   </g>
   <g id="text_11">
    <!-- Sdlicher_Prenzlauer_Berg -->
    <g transform="translate(272.494267 375.194997) scale(0.12 -0.12)">
     <defs>
      <path id="DejaVuSans-53" d="M 3425 4513 
L 3425 3897 
Q 3066 4069 2747 4153 
Q 2428 4238 2131 4238 
Q 1616 4238 1336 4038 
Q 1056 3838 1056 3469 
Q 1056 3159 1242 3001 
Q 1428 2844 1947 2747 
L 2328 2669 
Q 3034 2534 3370 2195 
Q 3706 1856 3706 1288 
Q 3706 609 3251 259 
Q 2797 -91 1919 -91 
Q 1588 -91 1214 -16 
Q 841 59 441 206 
L 441 856 
Q 825 641 1194 531 
Q 1563 422 1919 422 
Q 2459 422 2753 634 
Q 3047 847 3047 1241 
Q 3047 1584 2836 1778 
Q 2625 1972 2144 2069 
L 1759 2144 
Q 1053 2284 737 2584 
Q 422 2884 422 3419 
Q 422 4038 858 4394 
Q 1294 4750 2059 4750 
Q 2388 4750 2728 4690 
Q 3069 4631 3425 4513 
z
" transform="scale(0.015625)"/>
      <path id="DejaVuSans-fc" d="M 544 1381 
L 544 3500 
L 1119 3500 
L 1119 1403 
Q 1119 906 1312 657 
Q 1506 409 1894 409 
Q 2359 409 2629 706 
Q 2900 1003 2900 1516 
L 2900 3500 
L 3475 3500 
L 3475 0 
L 2900 0 
L 2900 538 
Q 2691 219 2414 64 
Q 2138 -91 1772 -91 
Q 1169 -91 856 284 
Q 544 659 544 1381 
z
M 1991 3584 
L 1991 3584 
z
M 2278 4850 
L 2913 4850 
L 2913 4219 
L 2278 4219 
L 2278 4850 
z
M 1056 4850 
L 1691 4850 
L 1691 4219 
L 1056 4219 
L 1056 4850 
z
" transform="scale(0.015625)"/>
      <path id="DejaVuSans-64" d="M 2906 2969 
L 2906 4863 
L 3481 4863 
L 3481 0 
L 2906 0 
L 2906 525 
Q 2725 213 2448 61 
Q 2172 -91 1784 -91 
Q 1150 -91 751 415 
Q 353 922 353 1747 
Q 353 2572 751 3078 
Q 1150 3584 1784 3584 
Q 2172 3584 2448 3432 
Q 2725 3281 2906 2969 
z
M 947 1747 
Q 947 1113 1208 752 
Q 1469 391 1925 391 
Q 2381 391 2643 752 
Q 2906 1113 2906 1747 
Q 2906 2381 2643 2742 
Q 2381 3103 1925 3103 
Q 1469 3103 1208 2742 
Q 947 2381 947 1747 
z
" transform="scale(0.015625)"/>
      <path id="DejaVuSans-6c" d="M 603 4863 
L 1178 4863 
L 1178 0 
L 603 0 
L 603 4863 
z
" transform="scale(0.015625)"/>
      <path id="DejaVuSans-69" d="M 603 3500 
L 1178 3500 
L 1178 0 
L 603 0 
L 603 3500 
z
M 603 4863 
L 1178 4863 
L 1178 4134 
L 603 4134 
L 603 4863 
z
" transform="scale(0.015625)"/>
      <path id="DejaVuSans-63" d="M 3122 3366 
L 3122 2828 
Q 2878 2963 2633 3030 
Q 2388 3097 2138 3097 
Q 1578 3097 1268 2742 
Q 959 2388 959 1747 
Q 959 1106 1268 751 
Q 1578 397 2138 397 
Q 2388 397 2633 464 
Q 2878 531 3122 666 
L 3122 134 
Q 2881 22 2623 -34 
Q 2366 -91 2075 -91 
Q 1284 -91 818 406 
Q 353 903 353 1747 
Q 353 2603 823 3093 
Q 1294 3584 2113 3584 
Q 2378 3584 2631 3529 
Q 2884 3475 3122 3366 
z
" transform="scale(0.015625)"/>
      <path id="DejaVuSans-68" d="M 3513 2113 
L 3513 0 
L 2938 0 
L 2938 2094 
Q 2938 2591 2744 2837 
Q 2550 3084 2163 3084 
Q 1697 3084 1428 2787 
Q 1159 2491 1159 1978 
L 1159 0 
L 581 0 
L 581 4863 
L 1159 4863 
L 1159 2956 
Q 1366 3272 1645 3428 
Q 1925 3584 2291 3584 
Q 2894 3584 3203 3211 
Q 3513 2838 3513 2113 
z
" transform="scale(0.015625)"/>
      <path id="DejaVuSans-72" d="M 2631 2963 
Q 2534 3019 2420 3045 
Q 2306 3072 2169 3072 
Q 1681 3072 1420 2755 
Q 1159 2438 1159 1844 
L 1159 0 
L 581 0 
L 581 3500 
L 1159 3500 
L 1159 2956 
Q 1341 3275 1631 3429 
Q 1922 3584 2338 3584 
Q 2397 3584 2469 3576 
Q 2541 3569 2628 3553 
L 2631 2963 
z
" transform="scale(0.015625)"/>
      <path id="DejaVuSans-5f" d="M 3263 -1063 
L 3263 -1509 
L -63 -1509 
L -63 -1063 
L 3263 -1063 
z
" transform="scale(0.015625)"/>
      <path id="DejaVuSans-50" d="M 1259 4147 
L 1259 2394 
L 2053 2394 
Q 2494 2394 2734 2622 
Q 2975 2850 2975 3272 
Q 2975 3691 2734 3919 
Q 2494 4147 2053 4147 
L 1259 4147 
z
M 628 4666 
L 2053 4666 
Q 2838 4666 3239 4311 
Q 3641 3956 3641 3272 
Q 3641 2581 3239 2228 
Q 2838 1875 2053 1875 
L 1259 1875 
L 1259 0 
L 628 0 
L 628 4666 
z
" transform="scale(0.015625)"/>
      <path id="DejaVuSans-6e" d="M 3513 2113 
L 3513 0 
L 2938 0 
L 2938 2094 
Q 2938 2591 2744 2837 
Q 2550 3084 2163 3084 
Q 1697 3084 1428 2787 
Q 1159 2491 1159 1978 
L 1159 0 
L 581 0 
L 581 3500 
L 1159 3500 
L 1159 2956 
Q 1366 3272 1645 3428 
Q 1925 3584 2291 3584 
Q 2894 3584 3203 3211 
Q 3513 2838 3513 2113 
z
" transform="scale(0.015625)"/>
      <path id="DejaVuSans-7a" d="M 353 3500 
L 3084 3500 
L 3084 2975 
L 922 459 
L 3084 459 
L 3084 0 
L 275 0 
L 275 525 
L 2438 3041 
L 353 3041 
L 353 3500 
z
" transform="scale(0.015625)"/>
      <path id="DejaVuSans-61" d="M 2194 1759 
Q 1497 1759 1228 1600 
Q 959 1441 959 1056 
Q 959 750 1161 570 
Q 1363 391 1709 391 
Q 2188 391 2477 730 
Q 2766 1069 2766 1631 
L 2766 1759 
L 2194 1759 
z
M 3341 1997 
L 3341 0 
L 2766 0 
L 2766 531 
Q 2569 213 2275 61 
Q 1981 -91 1556 -91 
Q 1019 -91 701 211 
Q 384 513 384 1019 
Q 384 1609 779 1909 
Q 1175 2209 1959 2209 
L 2766 2209 
L 2766 2266 
Q 2766 2663 2505 2880 
Q 2244 3097 1772 3097 
Q 1472 3097 1187 3025 
Q 903 2953 641 2809 
L 641 3341 
Q 956 3463 1253 3523 
Q 1550 3584 1831 3584 
Q 2591 3584 2966 3190 
Q 3341 2797 3341 1997 
z
" transform="scale(0.015625)"/>
      <path id="DejaVuSans-75" d="M 544 1381 
L 544 3500 
L 1119 3500 
L 1119 1403 
Q 1119 906 1312 657 
Q 1506 409 1894 409 
Q 2359 409 2629 706 
Q 2900 1003 2900 1516 
L 2900 3500 
L 3475 3500 
L 3475 0 
L 2900 0 
L 2900 538 
Q 2691 219 2414 64 
Q 2138 -91 1772 -91 
Q 1169 -91 856 284 
Q 544 659 544 1381 
z
M 1991 3584 
L 1991 3584 
z
" transform="scale(0.015625)"/>
      <path id="DejaVuSans-42" d="M 1259 2228 
L 1259 519 
L 2272 519 
Q 2781 519 3026 730 
Q 3272 941 3272 1375 
Q 3272 1813 3026 2020 
Q 2781 2228 2272 2228 
L 1259 2228 
z
M 1259 4147 
L 1259 2741 
L 2194 2741 
Q 2656 2741 2882 2914 
Q 3109 3088 3109 3444 
Q 3109 3797 2882 3972 
Q 2656 4147 2194 4147 
L 1259 4147 
z
M 628 4666 
L 2241 4666 
Q 2963 4666 3353 4366 
Q 3744 4066 3744 3513 
Q 3744 3084 3544 2831 
Q 3344 2578 2956 2516 
Q 3422 2416 3680 2098 
Q 3938 1781 3938 1306 
Q 3938 681 3513 340 
Q 3088 0 2303 0 
L 628 0 
L 628 4666 
z
" transform="scale(0.015625)"/>
      <path id="DejaVuSans-67" d="M 2906 1791 
Q 2906 2416 2648 2759 
Q 2391 3103 1925 3103 
Q 1463 3103 1205 2759 
Q 947 2416 947 1791 
Q 947 1169 1205 825 
Q 1463 481 1925 481 
Q 2391 481 2648 825 
Q 2906 1169 2906 1791 
z
M 3481 434 
Q 3481 -459 3084 -895 
Q 2688 -1331 1869 -1331 
Q 1566 -1331 1297 -1286 
Q 1028 -1241 775 -1147 
L 775 -588 
Q 1028 -725 1275 -790 
Q 1522 -856 1778 -856 
Q 2344 -856 2625 -561 
Q 2906 -266 2906 331 
L 2906 616 
Q 2728 306 2450 153 
Q 2172 0 1784 0 
Q 1141 0 747 490 
Q 353 981 353 1791 
Q 353 2603 747 3093 
Q 1141 3584 1784 3584 
Q 2172 3584 2450 3431 
Q 2728 3278 2906 2969 
L 2906 3500 
L 3481 3500 
L 3481 434 
z
" transform="scale(0.015625)"/>
     </defs>
     <use xlink:href="#DejaVuSans-53"/>
     <use xlink:href="#DejaVuSans-fc" x="63.476562"/>
     <use xlink:href="#DejaVuSans-64" x="126.855469"/>
     <use xlink:href="#DejaVuSans-6c" x="190.332031"/>
     <use xlink:href="#DejaVuSans-69" x="218.115234"/>
     <use xlink:href="#DejaVuSans-63" x="245.898438"/>
     <use xlink:href="#DejaVuSans-68" x="300.878906"/>
     <use xlink:href="#DejaVuSans-65" x="364.257812"/>
     <use xlink:href="#DejaVuSans-72" x="425.78125"/>
     <use xlink:href="#DejaVuSans-5f" x="466.894531"/>
     <use xlink:href="#DejaVuSans-50" x="516.894531"/>
     <use xlink:href="#DejaVuSans-72" x="575.447266"/>
     <use xlink:href="#DejaVuSans-65" x="614.310547"/>
     <use xlink:href="#DejaVuSans-6e" x="675.833984"/>
     <use xlink:href="#DejaVuSans-7a" x="739.212891"/>
     <use xlink:href="#DejaVuSans-6c" x="791.703125"/>
     <use xlink:href="#DejaVuSans-61" x="819.486328"/>
     <use xlink:href="#DejaVuSans-75" x="880.765625"/>
     <use xlink:href="#DejaVuSans-65" x="944.144531"/>
     <use xlink:href="#DejaVuSans-72" x="1005.667969"/>
     <use xlink:href="#DejaVuSans-5f" x="1046.78125"/>
     <use xlink:href="#DejaVuSans-42" x="1096.78125"/>
     <use xlink:href="#DejaVuSans-65" x="1165.384766"/>
     <use xlink:href="#DejaVuSans-72" x="1226.908203"/>
     <use xlink:href="#DejaVuSans-67" x="1266.271484"/>
    </g>
   </g>
  </g>
 </g>
 <defs>
  <clipPath id="pb0b626048d">
   <rect x="90" y="138.793196" width="558" height="449.613609"/>
  </clipPath>
 </defs>
</svg>
