<?xml version="1.0" encoding="utf-8" standalone="no"?>
<!DOCTYPE svg PUBLIC "-//W3C//DTD SVG 1.1//EN"
  "http://www.w3.org/Graphics/SVG/1.1/DTD/svg11.dtd">
<svg xmlns:xlink="http://www.w3.org/1999/xlink" width="720pt" height="720pt" viewBox="0 0 720 720" xmlns="http://www.w3.org/2000/svg" version="1.1">
 <metadata>
  <rdf:RDF xmlns:dc="http://purl.org/dc/elements/1.1/" xmlns:cc="http://creativecommons.org/ns#" xmlns:rdf="http://www.w3.org/1999/02/22-rdf-syntax-ns#">
   <cc:Work>
    <dc:type rdf:resource="http://purl.org/dc/dcmitype/StillImage"/>
    <dc:date>2024-10-15T13:01:12.475234</dc:date>
    <dc:format>image/svg+xml</dc:format>
    <dc:creator>
     <cc:Agent>
      <dc:title>Matplotlib v3.9.2, https://matplotlib.org/</dc:title>
     </cc:Agent>
    </dc:creator>
   </cc:Work>
  </rdf:RDF>
 </metadata>
 <defs>
  <style type="text/css">*{stroke-linejoin: round; stroke-linecap: butt}</style>
 </defs>
 <g id="figure_1">
  <g id="patch_1">
   <path d="M 0 720 
L 720 720 
L 720 0 
L 0 0 
z
" style="fill: #ffffff"/>
  </g>
  <g id="axes_1">
   <g id="patch_2">
    <path d="M 90 630.171515 
L 648 630.171515 
L 648 97.028485 
L 90 97.028485 
z
" style="fill: #ffffff"/>
   </g>
   <g id="PatchCollection_1">
    <path d="M 159.853235 600.922348 
L 160.159788 600.651098 
L 160.464971 601.780149 
L 160.537895 602.049186 
L 161.481237 605.5351 
L 161.522468 605.687461 
L 161.606246 605.937741 
L 162.383325 605.245388 
L 162.349603 605.136214 
L 162.846158 604.67043 
L 163.196338 604.372518 
L 163.431549 604.202118 
L 163.844115 604.062488 
L 164.713191 603.191726 
L 164.824157 603.069694 
L 165.105313 603.794504 
L 166.482747 602.6174 
L 166.729127 602.515602 
L 166.81849 602.452795 
L 167.087212 602.263636 
L 167.124306 602.237607 
L 167.291967 602.122742 
L 171.222252 599.021488 
L 173.091499 597.588097 
L 173.287929 597.231488 
L 175.898108 595.507667 
L 180.294704 592.602843 
L 183.093726 590.754146 
L 183.271819 590.891352 
L 183.318187 590.922755 
L 183.602083 590.675216 
L 184.39244 589.897821 
L 184.851795 589.234343 
L 185.234749 588.378545 
L 186.36517 585.785753 
L 186.754869 585.406487 
L 187.035076 585.133656 
L 187.414764 584.895285 
L 187.99752 585.169802 
L 188.22588 584.742166 
L 188.165813 584.743115 
L 189.038051 583.533131 
L 188.857323 583.450723 
L 189.231741 583.159556 
L 189.350189 583.067348 
L 189.359147 583.060393 
L 194.438084 579.107029 
L 199.756974 574.590825 
L 207.15682 568.11812 
L 208.011669 567.370232 
L 209.276451 565.968771 
L 210.074395 565.010122 
L 214.692818 561.302295 
L 214.892093 561.134423 
L 215.45218 560.686916 
L 215.858331 560.362403 
L 215.947694 560.291798 
L 216.010606 560.242163 
L 216.626663 559.756146 
L 223.994157 553.404313 
L 226.904777 550.893614 
L 228.063967 549.797125 
L 235.13376 543.729188 
L 241.610575 538.307447 
L 242.860287 537.193571 
L 244.877066 535.35478 
L 246.478961 533.925077 
L 249.700771 531.079266 
L 252.472499 529.129615 
L 253.431465 528.537585 
L 254.088937 528.145146 
L 255.14949 527.426659 
L 256.08875 526.79037 
L 256.384027 526.576341 
L 257.053301 526.091167 
L 259.545665 524.469461 
L 262.213909 522.902658 
L 264.973518 521.41352 
L 269.466748 519.07965 
L 271.405862 518.124899 
L 273.369401 517.238721 
L 273.818347 517.036104 
L 274.145871 516.888254 
L 275.826337 516.207826 
L 275.577575 515.504603 
L 275.819951 515.414503 
L 306.310753 504.092064 
L 306.583373 504.866824 
L 306.946937 505.900084 
L 307.014486 506.092404 
L 307.389221 507.157383 
L 307.926769 508.685406 
L 307.942681 508.730509 
L 308.341232 509.863459 
L 308.391288 510.005828 
L 308.566009 510.502489 
L 312.395024 509.538148 
L 316.199379 508.554944 
L 318.327546 508.02119 
L 321.421424 507.844993 
L 322.563437 507.693877 
L 326.540195 507.138625 
L 330.903386 506.642176 
L 338.42737 505.508488 
L 344.223636 504.697371 
L 352.853698 502.869751 
L 353.2748 502.917172 
L 355.935141 503.21677 
L 357.529554 503.3094 
L 360.411299 503.476639 
L 361.0811 503.515525 
L 362.863934 503.623962 
L 363.894032 503.668854 
L 364.943626 503.661161 
L 366.01261 503.593085 
L 367.06663 503.482435 
L 367.37666 503.440388 
L 368.395272 503.231312 
L 369.432747 503.001371 
L 370.433865 502.731175 
L 371.763877 502.242207 
L 371.980857 502.372564 
L 373.849154 503.495292 
L 374.288382 505.326811 
L 377.546864 505.525244 
L 381.335729 505.933911 
L 386.338265 506.16069 
L 394.82522 506.516035 
L 397.391245 506.55745 
L 405.408939 506.686752 
L 408.60335 506.913005 
L 413.869866 507.319037 
L 415.219163 507.422943 
L 425.429622 508.209506 
L 425.978973 508.251763 
L 427.096959 508.293178 
L 428.604749 508.34903 
L 444.598512 509.305362 
L 465.357177 510.505018 
L 466.225094 510.5595 
L 467.092379 510.622833 
L 467.959031 510.694914 
L 468.824841 510.775741 
L 469.689912 510.86542 
L 470.55393 510.963951 
L 471.416894 511.071124 
L 472.265948 511.185357 
L 473.113737 511.30802 
L 473.960262 511.439114 
L 474.805522 511.578744 
L 475.050006 511.620685 
L 475.294384 511.66347 
L 475.538657 511.706887 
L 476.167043 511.821963 
L 476.794481 511.941781 
L 477.421076 512.06613 
L 486.193297 513.842957 
L 490.554802 514.173221 
L 490.943657 513.609855 
L 492.390642 510.337778 
L 492.689397 509.662287 
L 494.350305 505.906512 
L 494.629881 506.002514 
L 495.836913 506.417398 
L 497.402768 506.973493 
L 498.601686 507.368777 
L 501.401446 507.866702 
L 505.269873 508.5815 
L 508.679682 509.195555 
L 510.533438 509.501265 
L 512.572769 509.730047 
L 514.274775 509.941441 
L 515.462734 510.101409 
L 518.525103 510.620304 
L 521.845865 511.15037 
L 524.573334 512.11176 
L 527.117439 512.981047 
L 528.816917 513.481396 
L 537.745629 516.223301 
L 539.892237 516.882564 
L 546.812917 518.553589 
L 546.864659 518.771832 
L 546.915663 518.990182 
L 546.96593 519.208741 
L 547.015564 519.427301 
L 547.064461 519.645967 
L 547.112514 519.864843 
L 548.402482 525.839729 
L 549.209489 526.069037 
L 549.57653 526.049647 
L 551.804704 519.758092 
L 557.851565 520.333472 
L 562.326459 511.420883 
L 562.940829 510.199624 
L 565.91099 504.282592 
L 566.092666 503.924613 
L 566.358964 503.389173 
L 566.570253 502.973762 
L 566.616409 502.926129 
L 567.468098 501.359643 
L 570.094822 496.655229 
L 572.003059 492.834855 
L 572.631656 491.583457 
L 573.019142 490.714065 
L 573.380071 489.906426 
L 574.258421 487.934749 
L 576.743618 482.363578 
L 577.745158 480.119281 
L 578.451843 478.533088 
L 579.030805 477.234374 
L 580.588124 473.74458 
L 580.717637 473.454151 
L 580.962332 472.905538 
L 581.035044 472.740406 
L 581.601783 471.80494 
L 581.836617 471.41735 
L 583.616455 468.479751 
L 584.178978 467.549449 
L 585.571797 468.055382 
L 590.731772 468.727818 
L 595.822828 469.033211 
L 600.846862 469.535457 
L 606.08914 469.754122 
L 610.989562 469.946337 
L 613.944337 469.825465 
L 616.092421 469.737788 
L 622.636364 469.002335 
L 611.513832 456.99766 
L 610.772794 456.238602 
L 609.998139 455.523171 
L 609.874713 455.421167 
L 609.577985 455.175941 
L 608.951496 454.655043 
L 608.101388 454.030872 
L 607.229467 453.449485 
L 605.621671 452.442887 
L 603.775397 451.286964 
L 596.65871 446.841998 
L 595.762129 446.280213 
L 595.003071 445.805261 
L 590.968142 443.27612 
L 587.128589 440.869536 
L 581.774291 437.50757 
L 580.633965 436.79783 
L 581.77387 434.036639 
L 582.019091 433.443872 
L 584.6886 426.987923 
L 586.123361 423.519943 
L 586.814975 421.837748 
L 596.653019 424.304925 
L 599.69115 425.066618 
L 599.279743 421.82173 
L 598.929457 419.071183 
L 598.39623 414.864167 
L 598.325519 414.313763 
L 590.950227 411.834361 
L 591.39504 410.773281 
L 591.556694 408.257945 
L 591.605801 407.502364 
L 592.049033 403.475022 
L 592.246623 401.673747 
L 592.344521 400.791498 
L 592.410701 400.194304 
L 592.326683 399.396036 
L 592.151042 397.727232 
L 590.778983 395.988658 
L 589.578905 388.580698 
L 589.525793 383.230721 
L 589.43896 374.840716 
L 589.385005 369.343943 
L 589.393825 368.435716 
L 589.403657 367.423377 
L 589.038828 362.001425 
L 588.980026 361.106741 
L 588.738071 361.138987 
L 587.812827 361.255223 
L 587.058827 361.357969 
L 586.998233 361.366189 
L 586.587563 361.422567 
L 585.302654 361.59887 
L 584.754779 361.674112 
L 583.23877 361.882239 
L 580.740189 362.225148 
L 578.222007 362.570692 
L 575.741446 362.911178 
L 574.994612 363.013608 
L 573.238439 363.25335 
L 570.719098 363.597207 
L 567.864435 363.991859 
L 564.534083 364.410116 
L 563.318093 364.564077 
L 562.812792 364.628149 
L 559.478856 365.05041 
L 558.697141 365.149468 
L 555.490295 365.558451 
L 555.422114 364.989184 
L 555.380277 364.637528 
L 555.217464 363.204137 
L 554.822074 359.722244 
L 554.821548 359.71761 
L 554.801631 359.546577 
L 554.685923 358.540189 
L 554.441439 356.432361 
L 553.556345 348.670637 
L 550.440232 321.413869 
L 548.884705 307.792441 
L 547.737739 299.83924 
L 547.538991 298.460647 
L 546.753271 293.011612 
L 546.645045 292.260984 
L 542.916037 266.399038 
L 541.996378 260.02086 
L 538.596579 236.442307 
L 538.073469 232.814465 
L 535.259693 213.298978 
L 534.640054 209.001018 
L 532.459302 210.069791 
L 518.197684 217.060127 
L 516.185963 218.046071 
L 515.755377 220.133772 
L 514.933511 219.968534 
L 491.213116 215.035971 
L 487.283568 214.218426 
L 487.021275 214.15446 
L 486.752975 214.080799 
L 486.493211 213.996915 
L 486.235871 213.900281 
L 485.976529 213.795216 
L 485.73331 213.674766 
L 485.387028 213.485818 
L 485.661124 212.092788 
L 486.420498 208.234794 
L 486.832222 206.145723 
L 483.141572 190.876664 
L 482.369552 183.706232 
L 482.093875 181.138311 
L 482.794658 178.307675 
L 483.132299 175.016946 
L 483.234623 174.010558 
L 483.693768 169.535664 
L 483.879765 169.562431 
L 484.533864 163.762478 
L 484.931045 160.274897 
L 483.85616 159.888781 
L 483.214601 159.659473 
L 469.340996 154.41161 
L 468.266849 154.010214 
L 467.189751 153.617143 
L 466.109491 153.232503 
L 465.026281 152.856293 
L 463.940226 152.488514 
L 462.851325 152.129165 
L 461.75979 151.778247 
L 460.66562 151.435759 
L 459.56871 151.101807 
L 458.469271 150.77639 
L 457.367409 150.459615 
L 456.263017 150.151376 
L 455.156307 149.852095 
L 454.047384 149.561349 
L 452.936142 149.279244 
L 451.822793 149.005781 
L 450.707336 148.741064 
L 449.589877 148.484988 
L 448.480217 148.239767 
L 447.368659 148.003082 
L 446.255415 147.774932 
L 445.14038 147.555424 
L 444.023659 147.344451 
L 442.846554 147.132425 
L 442.734113 147.112297 
L 441.101025 145.998105 
L 420.988661 144.829536 
L 405.685459 143.939278 
L 403.94678 143.838113 
L 401.132583 143.674562 
L 400.288482 142.749528 
L 398.30005 142.71001 
L 398.376346 139.918049 
L 398.439996 137.56953 
L 398.502065 135.305106 
L 398.562975 133.042894 
L 398.562975 133.039733 
L 398.605022 131.496851 
L 398.679316 128.751258 
L 398.690381 128.338375 
L 398.741174 126.441625 
L 398.830643 123.176714 
L 396.092742 123.083557 
L 394.093034 123.0139 
L 387.538975 122.788175 
L 385.222281 122.708296 
L 382.905588 122.629471 
L 380.852136 122.55876 
L 380.797338 122.556653 
L 377.068541 122.433146 
L 376.374291 122.409963 
L 375.632937 122.385409 
L 359.525362 121.849231 
L 359.096989 121.835004 
L 345.82416 121.393248 
L 345.353003 121.377546 
L 343.091529 121.302304 
L 342.80405 121.293663 
L 341.95763 121.265105 
L 341.872061 121.262259 
L 341.689225 126.278706 
L 341.618515 128.21371 
L 341.519983 130.911882 
L 341.459389 132.544021 
L 340.698223 132.511564 
L 339.40931 132.470887 
L 337.830598 132.420936 
L 337.38568 132.406921 
L 337.270394 132.403232 
L 336.990291 132.393643 
L 336.672357 132.383526 
L 332.397581 132.247479 
L 328.850987 132.134616 
L 328.661513 132.128399 
L 327.889492 132.103634 
L 325.2536 132.019857 
L 324.12887 131.983711 
L 322.085745 131.919218 
L 321.349343 131.895929 
L 320.43253 131.867054 
L 320.3164 131.863366 
L 316.313928 131.73596 
L 313.819141 131.655871 
L 312.994852 131.629737 
L 312.851323 131.625205 
L 311.554084 131.584107 
L 310.920008 131.563874 
L 306.464293 131.422242 
L 305.253361 131.381354 
L 289.809792 130.888487 
L 289.60314 130.881848 
L 289.232937 130.86994 
L 286.727084 130.78964 
L 286.405778 130.779313 
L 286.018714 130.766878 
L 283.852715 130.696694 
L 283.53594 130.686472 
L 280.953371 130.6028 
L 280.797829 130.597742 
L 278.933535 130.537358 
L 278.370485 130.519127 
L 278.220107 130.51428 
L 276.163177 130.447679 
L 275.988877 130.441989 
L 275.459443 130.424917 
L 274.212682 130.384451 
L 273.506103 130.361583 
L 270.506858 130.264316 
L 269.237123 130.223534 
L 269.198027 130.222269 
L 267.847676 130.178852 
L 266.516821 130.136068 
L 265.195556 130.093599 
L 263.98494 130.054714 
L 263.683867 130.045019 
L 263.418412 130.036483 
L 262.217702 129.998124 
L 260.859659 129.954707 
L 259.517633 129.911817 
L 258.188569 129.869349 
L 256.400466 129.812232 
L 256.279595 129.808333 
L 255.819712 129.793475 
L 253.959634 129.733618 
L 252.457008 129.685143 
L 250.430112 129.619912 
L 248.344835 129.552574 
L 246.254184 129.48513 
L 245.041144 129.446034 
L 238.919884 129.249182 
L 236.945995 129.185743 
L 236.305806 129.164034 
L 236.262178 129.268045 
L 236.220869 129.366471 
L 235.991455 129.903071 
L 235.571301 129.88347 
L 235.71072 130.087382 
L 234.706756 132.680489 
L 233.1585 136.694026 
L 232.86796 137.44723 
L 231.861578 140.056203 
L 230.911674 142.519692 
L 229.016399 147.431917 
L 226.139185 154.887088 
L 222.344314 164.716807 
L 218.523308 174.53546 
L 217.131332 178.074994 
L 216.691156 179.19435 
L 215.341859 182.632823 
L 214.613466 184.488896 
L 211.254556 193.126652 
L 207.881524 201.773154 
L 204.858568 209.501683 
L 204.916106 209.523918 
L 203.8702 212.212079 
L 203.952819 212.246328 
L 203.407262 214.064148 
L 199.416383 224.333727 
L 198.945962 228.184661 
L 198.787469 229.4819 
L 198.692416 230.268252 
L 197.830189 237.48463 
L 197.760427 238.10859 
L 197.695618 238.733077 
L 197.635551 239.358091 
L 197.580437 239.983527 
L 197.52174 240.718664 
L 197.469892 241.454222 
L 197.424684 242.190308 
L 197.384534 242.960326 
L 197.351655 243.730766 
L 197.326153 244.501416 
L 197.272303 247.651883 
L 197.301283 247.849578 
L 197.44576 248.667439 
L 197.494718 248.941224 
L 197.749678 250.367022 
L 197.865492 251.047888 
L 198.183426 251.885244 
L 198.937426 253.900549 
L 199.317746 254.782692 
L 201.021544 258.733632 
L 202.510787 261.433175 
L 202.746103 261.859124 
L 202.801111 261.959236 
L 203.346036 262.946444 
L 203.728042 263.379033 
L 203.920678 263.593799 
L 204.439679 264.342319 
L 206.793045 267.259579 
L 207.275268 267.944133 
L 207.651161 268.459129 
L 207.90808 268.799193 
L 209.214382 270.313938 
L 210.094101 271.149398 
L 211.003222 271.887486 
L 212.105085 272.73243 
L 213.196409 273.530795 
L 214.90242 274.747628 
L 216.515907 275.842536 
L 218.003042 276.768623 
L 219.634865 277.734334 
L 219.869549 277.856786 
L 220.104337 277.979239 
L 220.345554 278.096633 
L 220.598995 278.176196 
L 223.285259 279.105023 
L 225.242077 279.598522 
L 225.933165 279.772927 
L 228.236159 280.353049 
L 229.042955 280.373598 
L 229.415266 280.473921 
L 228.562418 290.760149 
L 227.301747 290.802829 
L 224.218407 290.881232 
L 224.094901 290.882813 
L 223.556299 290.692073 
L 223.019594 290.49617 
L 222.484786 290.294998 
L 222.154312 290.175812 
L 221.82447 290.05473 
L 221.495365 289.931645 
L 221.167314 289.806979 
L 220.840001 289.680311 
L 220.513531 289.551641 
L 220.187483 289.421074 
L 219.862488 289.288084 
L 219.538442 289.152775 
L 219.21566 289.015358 
L 218.893932 288.875517 
L 218.573153 288.733359 
L 218.251847 288.591516 
L 217.932016 288.446512 
L 217.61366 288.298241 
L 217.296569 288.147019 
L 216.981059 287.992636 
L 216.667023 287.835092 
L 216.366425 287.666844 
L 215.209711 286.700667 
L 214.598186 285.909888 
L 213.227286 284.184593 
L 213.066264 283.999122 
L 212.90187 283.816813 
L 212.733998 283.637455 
L 212.562965 283.461258 
L 212.3776 283.277474 
L 212.188652 283.097378 
L 211.996121 282.921076 
L 211.800218 282.748567 
L 206.996008 278.671275 
L 206.658895 278.374733 
L 206.325681 278.073766 
L 205.996365 277.768582 
L 205.930502 277.706618 
L 206.022184 277.59776 
L 204.904092 276.050663 
L 204.540739 275.595945 
L 201.96091 272.95257 
L 200.71183 271.589574 
L 199.479611 270.44714 
L 199.484986 270.440922 
L 199.366854 270.335331 
L 199.312372 270.266728 
L 197.501612 267.904826 
L 197.28948 267.594901 
L 196.369926 266.020299 
L 196.100362 265.568005 
L 195.383456 264.423779 
L 194.853706 263.412649 
L 194.494041 262.547051 
L 193.412096 259.9629 
L 192.877182 258.684946 
L 191.074853 259.569514 
L 190.489673 259.860365 
L 190.476079 259.862789 
L 189.577285 259.769 
L 189.015078 259.709881 
L 188.819913 261.59093 
L 188.695247 262.429972 
L 188.00711 261.883467 
L 187.85567 261.779128 
L 185.310518 259.78291 
L 184.148379 258.857126 
L 180.817791 256.203913 
L 179.355444 255.038978 
L 179.096523 254.729053 
L 178.729271 254.300574 
L 178.693189 254.39607 
L 178.578229 254.700328 
L 178.47468 254.974385 
L 178.354496 255.292465 
L 178.083707 256.00922 
L 178.03871 256.047157 
L 177.862983 256.195576 
L 177.757027 256.285002 
L 176.438185 257.398562 
L 176.480232 258.395465 
L 176.530604 260.022335 
L 175.576802 261.700631 
L 175.615898 261.725501 
L 175.632759 261.693676 
L 175.82803 261.806855 
L 175.993267 261.902646 
L 176.477808 262.183592 
L 176.643467 262.279594 
L 177.251725 262.632198 
L 174.154581 270.557263 
L 171.195169 277.873753 
L 168.242924 285.196144 
L 165.279086 292.567853 
L 163.282013 297.820142 
L 162.230944 300.584494 
L 158.75348 310.695685 
L 155.293299 320.884225 
L 152.927919 327.591508 
L 149.679342 336.358566 
L 145.540613 347.31449 
L 145.28928 347.980286 
L 142.503747 355.358529 
L 141.619321 357.636041 
L 140.59688 360.268963 
L 138.724367 365.190356 
L 136.865659 370.113329 
L 134.968486 375.024184 
L 132.984586 379.899736 
L 130.978239 384.767069 
L 130.024858 387.073962 
L 128.932374 389.623969 
L 126.73708 394.410369 
L 125.588955 396.948573 
L 124.547054 399.309105 
L 123.270365 402.259664 
L 122.749783 403.483031 
L 121.685014 406.171825 
L 121.126285 407.734518 
L 120.272594 407.69089 
L 120.275756 407.677507 
L 119.478339 407.617018 
L 119.438505 407.741789 
L 119.398038 407.868246 
L 119.318476 408.116734 
L 118.708742 410.022548 
L 118.654365 410.192211 
L 118.339171 411.177206 
L 119.357888 411.503149 
L 118.603256 414.404812 
L 118.452245 414.985145 
L 118.262981 415.834198 
L 117.415192 419.638554 
L 117.370405 419.955329 
L 116.987872 422.665515 
L 116.710931 427.264547 
L 116.64296 429.224316 
L 116.61514 430.078428 
L 116.506492 433.540085 
L 116.488472 434.100395 
L 116.487734 434.123473 
L 116.446741 435.398161 
L 116.263905 441.077769 
L 116.225441 448.046713 
L 116.221542 448.763303 
L 116.75361 448.985867 
L 117.402967 449.166279 
L 117.418353 450.908963 
L 116.780588 450.732239 
L 116.116958 450.85474 
L 115.571026 451.314047 
L 115.363636 452.152352 
L 115.390825 452.384506 
L 115.558802 453.819372 
L 115.730151 455.70706 
L 115.765981 456.264314 
L 115.851971 457.599701 
L 115.925317 459.495925 
L 115.921628 460.418324 
L 115.880951 461.337456 
L 115.802337 462.252267 
L 116.484573 468.599148 
L 116.910101 470.384932 
L 117.930715 470.522349 
L 118.770706 474.50132 
L 119.769084 478.134643 
L 119.879207 478.497048 
L 120.159918 479.414898 
L 120.160891 479.418077 
L 120.346361 480.027494 
L 121.69492 484.307118 
L 123.168461 488.444582 
L 123.119881 489.171816 
L 125.760093 496.068047 
L 125.477146 497.483101 
L 126.735394 501.083439 
L 128.013453 504.744055 
L 129.87448 509.84154 
L 130.011369 509.734578 
L 131.943212 515.316077 
L 133.426553 519.989087 
L 133.678414 521.149752 
L 133.799707 521.978257 
L 134.174231 523.230814 
L 134.675844 524.889509 
L 135.588442 526.38518 
L 135.719431 526.697529 
L 136.950806 529.49223 
L 137.228801 530.391024 
L 138.657344 535.006075 
L 139.777965 538.696513 
L 140.310771 540.488515 
L 142.033853 543.916345 
L 142.973746 546.691761 
L 143.217176 547.465679 
L 145.14807 553.649851 
L 145.234166 553.941229 
L 146.898446 559.632429 
L 148.006315 563.491161 
L 149.176149 566.973789 
L 149.685876 568.488218 
L 150.257146 570.916299 
L 150.700378 571.212419 
L 150.963198 572.079388 
L 151.094081 572.511766 
L 151.490431 573.177429 
L 151.702656 573.533855 
L 151.95557 573.956327 
L 152.012159 574.050853 
L 151.360273 574.416736 
L 151.466286 574.735724 
L 152.763736 578.637241 
L 153.883302 581.270709 
L 156.050566 588.046279 
L 158.102648 594.624681 
L 159.378705 599.225294 
L 159.681253 600.307345 
L 159.853235 600.922348 
" clip-path="url(#pf3a6e3d59d)" style="fill: #d3d3d3"/>
   </g>
   <g id="PatchCollection_2">
    <path d="M 203.877552 312.492628 
L 203.877552 312.387247 
L 203.772172 312.387247 
L 203.772172 312.492628 
L 203.877552 312.492628 
" clip-path="url(#pf3a6e3d59d)" style="fill: #ff0000; fill-opacity: 0.7; stroke: #000000; stroke-opacity: 0.7; stroke-width: 0.5"/>
    <path d="M 498.550424 483.069925 
L 498.550424 482.964544 
L 498.445043 482.964544 
L 498.445043 483.069925 
L 498.550424 483.069925 
" clip-path="url(#pf3a6e3d59d)" style="fill: #ff0000; fill-opacity: 0.7; stroke: #000000; stroke-opacity: 0.7; stroke-width: 0.5"/>
    <path d="M 561.744918 426.175273 
L 561.744918 426.069892 
L 561.639537 426.069892 
L 561.639537 426.175273 
L 561.744918 426.175273 
" clip-path="url(#pf3a6e3d59d)" style="fill: #ff0000; fill-opacity: 0.7; stroke: #000000; stroke-opacity: 0.7; stroke-width: 0.5"/>
    <path d="M 329.023484 349.544065 
L 329.023484 349.438684 
L 328.918103 349.438684 
L 328.918103 349.544065 
L 329.023484 349.544065 
" clip-path="url(#pf3a6e3d59d)" style="fill: #ff0000; fill-opacity: 0.7; stroke: #000000; stroke-opacity: 0.7; stroke-width: 0.5"/>
    <path d="M 203.877436 312.492719 
L 203.877436 312.387339 
L 203.772055 312.387339 
L 203.772055 312.492719 
L 203.877436 312.492719 
" clip-path="url(#pf3a6e3d59d)" style="fill: #ff0000; fill-opacity: 0.7; stroke: #000000; stroke-opacity: 0.7; stroke-width: 0.5"/>
    <path d="M 319.717793 149.070213 
L 319.717793 148.964833 
L 319.612412 148.964833 
L 319.612412 149.070213 
L 319.717793 149.070213 
" clip-path="url(#pf3a6e3d59d)" style="fill: #ff0000; fill-opacity: 0.7; stroke: #000000; stroke-opacity: 0.7; stroke-width: 0.5"/>
    <path d="M 296.458778 353.517791 
L 296.458778 353.41241 
L 296.353397 353.41241 
L 296.353397 353.517791 
L 296.458778 353.517791 
" clip-path="url(#pf3a6e3d59d)" style="fill: #ff0000; fill-opacity: 0.7; stroke: #000000; stroke-opacity: 0.7; stroke-width: 0.5"/>
    <path d="M 308.443923 362.46032 
L 308.443923 362.354939 
L 308.338542 362.354939 
L 308.338542 362.46032 
L 308.443923 362.46032 
" clip-path="url(#pf3a6e3d59d)" style="fill: #ff0000; fill-opacity: 0.7; stroke: #000000; stroke-opacity: 0.7; stroke-width: 0.5"/>
    <path d="M 376.785751 344.201872 
L 376.785751 344.096491 
L 376.680371 344.096491 
L 376.680371 344.201872 
L 376.785751 344.201872 
" clip-path="url(#pf3a6e3d59d)" style="fill: #ff0000; fill-opacity: 0.7; stroke: #000000; stroke-opacity: 0.7; stroke-width: 0.5"/>
    <path d="M 550.808404 399.649378 
L 550.808404 399.543997 
L 550.703023 399.543997 
L 550.703023 399.649378 
L 550.808404 399.649378 
" clip-path="url(#pf3a6e3d59d)" style="fill: #ff0000; fill-opacity: 0.7; stroke: #000000; stroke-opacity: 0.7; stroke-width: 0.5"/>
    <path d="M 314.929746 468.234705 
L 314.929746 468.129324 
L 314.824365 468.129324 
L 314.824365 468.234705 
L 314.929746 468.234705 
" clip-path="url(#pf3a6e3d59d)" style="fill: #ff0000; fill-opacity: 0.7; stroke: #000000; stroke-opacity: 0.7; stroke-width: 0.5"/>
    <path d="M 329.837813 362.922256 
L 329.837813 362.816875 
L 329.732432 362.816875 
L 329.732432 362.922256 
L 329.837813 362.922256 
" clip-path="url(#pf3a6e3d59d)" style="fill: #ff0000; fill-opacity: 0.7; stroke: #000000; stroke-opacity: 0.7; stroke-width: 0.5"/>
    <path d="M 321.280525 486.263917 
L 321.280525 486.158536 
L 321.175144 486.158536 
L 321.175144 486.263917 
L 321.280525 486.263917 
" clip-path="url(#pf3a6e3d59d)" style="fill: #ff0000; fill-opacity: 0.7; stroke: #000000; stroke-opacity: 0.7; stroke-width: 0.5"/>
    <path d="M 322.3066 442.505154 
L 322.3066 442.399774 
L 322.201219 442.399774 
L 322.201219 442.505154 
L 322.3066 442.505154 
" clip-path="url(#pf3a6e3d59d)" style="fill: #ff0000; fill-opacity: 0.7; stroke: #000000; stroke-opacity: 0.7; stroke-width: 0.5"/>
    <path d="M 266.812684 471.442969 
L 266.812684 471.337588 
L 266.707303 471.337588 
L 266.707303 471.442969 
L 266.812684 471.442969 
" clip-path="url(#pf3a6e3d59d)" style="fill: #ff0000; fill-opacity: 0.7; stroke: #000000; stroke-opacity: 0.7; stroke-width: 0.5"/>
    <path d="M 276.055151 279.238055 
L 276.055151 279.132674 
L 275.94977 279.132674 
L 275.94977 279.238055 
L 276.055151 279.238055 
" clip-path="url(#pf3a6e3d59d)" style="fill: #ff0000; fill-opacity: 0.7; stroke: #000000; stroke-opacity: 0.7; stroke-width: 0.5"/>
    <path d="M 300.630467 457.920606 
L 300.630467 457.815225 
L 300.525086 457.815225 
L 300.525086 457.920606 
L 300.630467 457.920606 
" clip-path="url(#pf3a6e3d59d)" style="fill: #ff0000; fill-opacity: 0.7; stroke: #000000; stroke-opacity: 0.7; stroke-width: 0.5"/>
    <path d="M 345.131487 322.506154 
L 345.131487 322.400773 
L 345.026107 322.400773 
L 345.026107 322.506154 
L 345.131487 322.506154 
" clip-path="url(#pf3a6e3d59d)" style="fill: #ff0000; fill-opacity: 0.7; stroke: #000000; stroke-opacity: 0.7; stroke-width: 0.5"/>
    <path d="M 329.023367 349.544156 
L 329.023367 349.438775 
L 328.917986 349.438775 
L 328.917986 349.544156 
L 329.023367 349.544156 
" clip-path="url(#pf3a6e3d59d)" style="fill: #ff0000; fill-opacity: 0.7; stroke: #000000; stroke-opacity: 0.7; stroke-width: 0.5"/>
    <path d="M 324.134676 404.085225 
L 324.134676 403.979844 
L 324.029295 403.979844 
L 324.029295 404.085225 
L 324.134676 404.085225 
" clip-path="url(#pf3a6e3d59d)" style="fill: #ff0000; fill-opacity: 0.7; stroke: #000000; stroke-opacity: 0.7; stroke-width: 0.5"/>
    <path d="M 346.41866 128.009815 
L 346.41866 127.904434 
L 346.313279 127.904434 
L 346.313279 128.009815 
L 346.41866 128.009815 
" clip-path="url(#pf3a6e3d59d)" style="fill: #ff0000; fill-opacity: 0.7; stroke: #000000; stroke-opacity: 0.7; stroke-width: 0.5"/>
    <path d="M 329.545943 325.653208 
L 329.545943 325.547827 
L 329.440562 325.547827 
L 329.440562 325.653208 
L 329.545943 325.653208 
" clip-path="url(#pf3a6e3d59d)" style="fill: #ff0000; fill-opacity: 0.7; stroke: #000000; stroke-opacity: 0.7; stroke-width: 0.5"/>
    <path d="M 321.280642 486.263826 
L 321.280642 486.158445 
L 321.175261 486.158445 
L 321.175261 486.263826 
L 321.280642 486.263826 
" clip-path="url(#pf3a6e3d59d)" style="fill: #ff0000; fill-opacity: 0.7; stroke: #000000; stroke-opacity: 0.7; stroke-width: 0.5"/>
    <path d="M 376.246575 337.13311 
L 376.246575 337.027729 
L 376.141194 337.027729 
L 376.141194 337.13311 
L 376.246575 337.13311 
" clip-path="url(#pf3a6e3d59d)" style="fill: #ff0000; fill-opacity: 0.7; stroke: #000000; stroke-opacity: 0.7; stroke-width: 0.5"/>
    <path d="M 314.998537 132.21914 
L 314.998537 132.113759 
L 314.893156 132.113759 
L 314.893156 132.21914 
L 314.998537 132.21914 
" clip-path="url(#pf3a6e3d59d)" style="fill: #ff0000; fill-opacity: 0.7; stroke: #000000; stroke-opacity: 0.7; stroke-width: 0.5"/>
    <path d="M 389.013254 444.6013 
L 389.013254 444.495919 
L 388.907873 444.495919 
L 388.907873 444.6013 
L 389.013254 444.6013 
" clip-path="url(#pf3a6e3d59d)" style="fill: #ff0000; fill-opacity: 0.7; stroke: #000000; stroke-opacity: 0.7; stroke-width: 0.5"/>
    <path d="M 333.508348 361.980146 
L 333.508348 361.874765 
L 333.402968 361.874765 
L 333.402968 361.980146 
L 333.508348 361.980146 
" clip-path="url(#pf3a6e3d59d)" style="fill: #ff0000; fill-opacity: 0.7; stroke: #000000; stroke-opacity: 0.7; stroke-width: 0.5"/>
    <path d="M 211.601839 320.27157 
L 211.601839 320.166189 
L 211.496459 320.166189 
L 211.496459 320.27157 
L 211.601839 320.27157 
" clip-path="url(#pf3a6e3d59d)" style="fill: #ff0000; fill-opacity: 0.7; stroke: #000000; stroke-opacity: 0.7; stroke-width: 0.5"/>
    <path d="M 319.118831 437.981003 
L 319.118831 437.875622 
L 319.01345 437.875622 
L 319.01345 437.981003 
L 319.118831 437.981003 
" clip-path="url(#pf3a6e3d59d)" style="fill: #ff0000; fill-opacity: 0.7; stroke: #000000; stroke-opacity: 0.7; stroke-width: 0.5"/>
    <path d="M 253.670077 173.817272 
L 253.670077 173.711891 
L 253.564696 173.711891 
L 253.564696 173.817272 
L 253.670077 173.817272 
" clip-path="url(#pf3a6e3d59d)" style="fill: #ff0000; fill-opacity: 0.7; stroke: #000000; stroke-opacity: 0.7; stroke-width: 0.5"/>
    <path d="M 199.851335 399.517971 
L 199.851335 399.412591 
L 199.745954 399.412591 
L 199.745954 399.517971 
L 199.851335 399.517971 
" clip-path="url(#pf3a6e3d59d)" style="fill: #ff0000; fill-opacity: 0.7; stroke: #000000; stroke-opacity: 0.7; stroke-width: 0.5"/>
    <path d="M 454.976112 417.204575 
L 454.976112 417.099194 
L 454.870731 417.099194 
L 454.870731 417.204575 
L 454.976112 417.204575 
" clip-path="url(#pf3a6e3d59d)" style="fill: #ff0000; fill-opacity: 0.7; stroke: #000000; stroke-opacity: 0.7; stroke-width: 0.5"/>
    <path d="M 323.587264 434.523632 
L 323.587264 434.418251 
L 323.481883 434.418251 
L 323.481883 434.523632 
L 323.587264 434.523632 
" clip-path="url(#pf3a6e3d59d)" style="fill: #ff0000; fill-opacity: 0.7; stroke: #000000; stroke-opacity: 0.7; stroke-width: 0.5"/>
    <path d="M 329.282777 325.648075 
L 329.282777 325.542694 
L 329.177396 325.542694 
L 329.177396 325.648075 
L 329.282777 325.648075 
" clip-path="url(#pf3a6e3d59d)" style="fill: #ff0000; fill-opacity: 0.7; stroke: #000000; stroke-opacity: 0.7; stroke-width: 0.5"/>
    <path d="M 311.67587 149.92755 
L 311.67587 149.822169 
L 311.570489 149.822169 
L 311.570489 149.92755 
L 311.67587 149.92755 
" clip-path="url(#pf3a6e3d59d)" style="fill: #ff0000; fill-opacity: 0.7; stroke: #000000; stroke-opacity: 0.7; stroke-width: 0.5"/>
    <path d="M 276.256483 136.537188 
L 276.256483 136.431807 
L 276.151102 136.431807 
L 276.151102 136.537188 
L 276.256483 136.537188 
" clip-path="url(#pf3a6e3d59d)" style="fill: #ff0000; fill-opacity: 0.7; stroke: #000000; stroke-opacity: 0.7; stroke-width: 0.5"/>
    <path d="M 199.851335 399.517971 
L 199.851335 399.412591 
L 199.745954 399.412591 
L 199.745954 399.517971 
L 199.851335 399.517971 
" clip-path="url(#pf3a6e3d59d)" style="fill: #ff0000; fill-opacity: 0.7; stroke: #000000; stroke-opacity: 0.7; stroke-width: 0.5"/>
    <path d="M 221.779084 375.921267 
L 221.779084 375.815886 
L 221.673704 375.815886 
L 221.673704 375.921267 
L 221.779084 375.921267 
" clip-path="url(#pf3a6e3d59d)" style="fill: #ff0000; fill-opacity: 0.7; stroke: #000000; stroke-opacity: 0.7; stroke-width: 0.5"/>
    <path d="M 329.282777 325.648086 
L 329.282777 325.542705 
L 329.177396 325.542705 
L 329.177396 325.648086 
L 329.282777 325.648086 
" clip-path="url(#pf3a6e3d59d)" style="fill: #ff0000; fill-opacity: 0.7; stroke: #000000; stroke-opacity: 0.7; stroke-width: 0.5"/>
    <path d="M 327.870001 324.678602 
L 327.870001 324.573221 
L 327.76462 324.573221 
L 327.76462 324.678602 
L 327.870001 324.678602 
" clip-path="url(#pf3a6e3d59d)" style="fill: #ff0000; fill-opacity: 0.7; stroke: #000000; stroke-opacity: 0.7; stroke-width: 0.5"/>
    <path d="M 266.144639 427.464714 
L 266.144639 427.359333 
L 266.039258 427.359333 
L 266.039258 427.464714 
L 266.144639 427.464714 
" clip-path="url(#pf3a6e3d59d)" style="fill: #ff0000; fill-opacity: 0.7; stroke: #000000; stroke-opacity: 0.7; stroke-width: 0.5"/>
    <path d="M 212.944757 234.631036 
L 212.944757 234.525655 
L 212.839377 234.525655 
L 212.839377 234.631036 
L 212.944757 234.631036 
" clip-path="url(#pf3a6e3d59d)" style="fill: #ff0000; fill-opacity: 0.7; stroke: #000000; stroke-opacity: 0.7; stroke-width: 0.5"/>
    <path d="M 271.149281 333.400191 
L 271.149281 333.29481 
L 271.0439 333.29481 
L 271.0439 333.400191 
L 271.149281 333.400191 
" clip-path="url(#pf3a6e3d59d)" style="fill: #ff0000; fill-opacity: 0.7; stroke: #000000; stroke-opacity: 0.7; stroke-width: 0.5"/>
    <path d="M 319.918546 456.569057 
L 319.918546 456.463676 
L 319.813165 456.463676 
L 319.813165 456.569057 
L 319.918546 456.569057 
" clip-path="url(#pf3a6e3d59d)" style="fill: #ff0000; fill-opacity: 0.7; stroke: #000000; stroke-opacity: 0.7; stroke-width: 0.5"/>
    <path d="M 515.068379 377.034293 
L 515.068379 376.928912 
L 514.962998 376.928912 
L 514.962998 377.034293 
L 515.068379 377.034293 
" clip-path="url(#pf3a6e3d59d)" style="fill: #ff0000; fill-opacity: 0.7; stroke: #000000; stroke-opacity: 0.7; stroke-width: 0.5"/>
    <path d="M 329.292129 329.062284 
L 329.292129 328.956903 
L 329.186748 328.956903 
L 329.186748 329.062284 
L 329.292129 329.062284 
" clip-path="url(#pf3a6e3d59d)" style="fill: #ff0000; fill-opacity: 0.7; stroke: #000000; stroke-opacity: 0.7; stroke-width: 0.5"/>
    <path d="M 319.118831 437.981003 
L 319.118831 437.875622 
L 319.01345 437.875622 
L 319.01345 437.981003 
L 319.118831 437.981003 
" clip-path="url(#pf3a6e3d59d)" style="fill: #ff0000; fill-opacity: 0.7; stroke: #000000; stroke-opacity: 0.7; stroke-width: 0.5"/>
    <path d="M 318.449921 132.329264 
L 318.449921 132.223884 
L 318.34454 132.223884 
L 318.34454 132.329264 
L 318.449921 132.329264 
" clip-path="url(#pf3a6e3d59d)" style="fill: #ff0000; fill-opacity: 0.7; stroke: #000000; stroke-opacity: 0.7; stroke-width: 0.5"/>
    <path d="M 329.134969 337.28698 
L 329.134969 337.181599 
L 329.029589 337.181599 
L 329.029589 337.28698 
L 329.134969 337.28698 
" clip-path="url(#pf3a6e3d59d)" style="fill: #ff0000; fill-opacity: 0.7; stroke: #000000; stroke-opacity: 0.7; stroke-width: 0.5"/>
    <path d="M 274.377608 425.32415 
L 274.377608 425.218769 
L 274.272227 425.218769 
L 274.272227 425.32415 
L 274.377608 425.32415 
" clip-path="url(#pf3a6e3d59d)" style="fill: #ff0000; fill-opacity: 0.7; stroke: #000000; stroke-opacity: 0.7; stroke-width: 0.5"/>
    <path d="M 349.891523 435.60097 
L 349.891523 435.495589 
L 349.786142 435.495589 
L 349.786142 435.60097 
L 349.891523 435.60097 
" clip-path="url(#pf3a6e3d59d)" style="fill: #ff0000; fill-opacity: 0.7; stroke: #000000; stroke-opacity: 0.7; stroke-width: 0.5"/>
    <path d="M 321.660841 424.547623 
L 321.660841 424.442242 
L 321.555461 424.442242 
L 321.555461 424.547623 
L 321.660841 424.547623 
" clip-path="url(#pf3a6e3d59d)" style="fill: #ff0000; fill-opacity: 0.7; stroke: #000000; stroke-opacity: 0.7; stroke-width: 0.5"/>
    <path d="M 329.134969 337.28698 
L 329.134969 337.181599 
L 329.029589 337.181599 
L 329.029589 337.28698 
L 329.134969 337.28698 
" clip-path="url(#pf3a6e3d59d)" style="fill: #ff0000; fill-opacity: 0.7; stroke: #000000; stroke-opacity: 0.7; stroke-width: 0.5"/>
    <path d="M 321.280642 486.263826 
L 321.280642 486.158445 
L 321.175261 486.158445 
L 321.175261 486.263826 
L 321.280642 486.263826 
" clip-path="url(#pf3a6e3d59d)" style="fill: #ff0000; fill-opacity: 0.7; stroke: #000000; stroke-opacity: 0.7; stroke-width: 0.5"/>
    <path d="M 436.952703 377.28236 
L 436.952703 377.176979 
L 436.847322 377.176979 
L 436.847322 377.28236 
L 436.952703 377.28236 
" clip-path="url(#pf3a6e3d59d)" style="fill: #ff0000; fill-opacity: 0.7; stroke: #000000; stroke-opacity: 0.7; stroke-width: 0.5"/>
    <path d="M 335.237063 328.075301 
L 335.237063 327.96992 
L 335.131683 327.96992 
L 335.131683 328.075301 
L 335.237063 328.075301 
" clip-path="url(#pf3a6e3d59d)" style="fill: #ff0000; fill-opacity: 0.7; stroke: #000000; stroke-opacity: 0.7; stroke-width: 0.5"/>
    <path d="M 274.392232 348.04162 
L 274.392232 347.936239 
L 274.286851 347.936239 
L 274.286851 348.04162 
L 274.392232 348.04162 
" clip-path="url(#pf3a6e3d59d)" style="fill: #ff0000; fill-opacity: 0.7; stroke: #000000; stroke-opacity: 0.7; stroke-width: 0.5"/>
    <path d="M 199.851335 399.517971 
L 199.851335 399.412591 
L 199.745954 399.412591 
L 199.745954 399.517971 
L 199.851335 399.517971 
" clip-path="url(#pf3a6e3d59d)" style="fill: #ff0000; fill-opacity: 0.7; stroke: #000000; stroke-opacity: 0.7; stroke-width: 0.5"/>
    <path d="M 399.545606 367.599269 
L 399.545606 367.493888 
L 399.440225 367.493888 
L 399.440225 367.599269 
L 399.545606 367.599269 
" clip-path="url(#pf3a6e3d59d)" style="fill: #ff0000; fill-opacity: 0.7; stroke: #000000; stroke-opacity: 0.7; stroke-width: 0.5"/>
    <path d="M 329.390405 290.939779 
L 329.390405 290.834398 
L 329.285025 290.834398 
L 329.285025 290.939779 
L 329.390405 290.939779 
" clip-path="url(#pf3a6e3d59d)" style="fill: #ff0000; fill-opacity: 0.7; stroke: #000000; stroke-opacity: 0.7; stroke-width: 0.5"/>
    <path d="M 325.770847 139.924351 
L 325.770847 139.818971 
L 325.665466 139.818971 
L 325.665466 139.924351 
L 325.770847 139.924351 
" clip-path="url(#pf3a6e3d59d)" style="fill: #ff0000; fill-opacity: 0.7; stroke: #000000; stroke-opacity: 0.7; stroke-width: 0.5"/>
    <path d="M 333.508348 361.980146 
L 333.508348 361.874765 
L 333.402968 361.874765 
L 333.402968 361.980146 
L 333.508348 361.980146 
" clip-path="url(#pf3a6e3d59d)" style="fill: #ff0000; fill-opacity: 0.7; stroke: #000000; stroke-opacity: 0.7; stroke-width: 0.5"/>
    <path d="M 320.883976 461.912532 
L 320.883976 461.807151 
L 320.778595 461.807151 
L 320.778595 461.912532 
L 320.883976 461.912532 
" clip-path="url(#pf3a6e3d59d)" style="fill: #ff0000; fill-opacity: 0.7; stroke: #000000; stroke-opacity: 0.7; stroke-width: 0.5"/>
    <path d="M 431.690407 442.742152 
L 431.690407 442.636771 
L 431.585026 442.636771 
L 431.585026 442.742152 
L 431.690407 442.742152 
" clip-path="url(#pf3a6e3d59d)" style="fill: #ff0000; fill-opacity: 0.7; stroke: #000000; stroke-opacity: 0.7; stroke-width: 0.5"/>
    <path d="M 365.022169 359.351235 
L 365.022169 359.245854 
L 364.916788 359.245854 
L 364.916788 359.351235 
L 365.022169 359.351235 
" clip-path="url(#pf3a6e3d59d)" style="fill: #ff0000; fill-opacity: 0.7; stroke: #000000; stroke-opacity: 0.7; stroke-width: 0.5"/>
    <path d="M 321.280642 486.263814 
L 321.280642 486.158433 
L 321.175261 486.158433 
L 321.175261 486.263814 
L 321.280642 486.263814 
" clip-path="url(#pf3a6e3d59d)" style="fill: #ff0000; fill-opacity: 0.7; stroke: #000000; stroke-opacity: 0.7; stroke-width: 0.5"/>
    <path d="M 452.395592 416.639246 
L 452.395592 416.533865 
L 452.290212 416.533865 
L 452.290212 416.639246 
L 452.395592 416.639246 
" clip-path="url(#pf3a6e3d59d)" style="fill: #ff0000; fill-opacity: 0.7; stroke: #000000; stroke-opacity: 0.7; stroke-width: 0.5"/>
    <path d="M 329.550044 320.340813 
L 329.550044 320.235432 
L 329.444663 320.235432 
L 329.444663 320.340813 
L 329.550044 320.340813 
" clip-path="url(#pf3a6e3d59d)" style="fill: #ff0000; fill-opacity: 0.7; stroke: #000000; stroke-opacity: 0.7; stroke-width: 0.5"/>
    <path d="M 274.407256 506.81426 
L 274.407256 506.70888 
L 274.301875 506.70888 
L 274.301875 506.81426 
L 274.407256 506.81426 
" clip-path="url(#pf3a6e3d59d)" style="fill: #ff0000; fill-opacity: 0.7; stroke: #000000; stroke-opacity: 0.7; stroke-width: 0.5"/>
    <path d="M 329.13497 337.286969 
L 329.13497 337.181588 
L 329.029589 337.181588 
L 329.029589 337.286969 
L 329.13497 337.286969 
" clip-path="url(#pf3a6e3d59d)" style="fill: #ff0000; fill-opacity: 0.7; stroke: #000000; stroke-opacity: 0.7; stroke-width: 0.5"/>
    <path d="M 329.390406 290.939767 
L 329.390406 290.834386 
L 329.285025 290.834386 
L 329.285025 290.939767 
L 329.390406 290.939767 
" clip-path="url(#pf3a6e3d59d)" style="fill: #ff0000; fill-opacity: 0.7; stroke: #000000; stroke-opacity: 0.7; stroke-width: 0.5"/>
    <path d="M 407.85317 453.304986 
L 407.85317 453.199605 
L 407.747789 453.199605 
L 407.747789 453.304986 
L 407.85317 453.304986 
" clip-path="url(#pf3a6e3d59d)" style="fill: #ff0000; fill-opacity: 0.7; stroke: #000000; stroke-opacity: 0.7; stroke-width: 0.5"/>
    <path d="M 321.280642 486.263826 
L 321.280642 486.158445 
L 321.175261 486.158445 
L 321.175261 486.263826 
L 321.280642 486.263826 
" clip-path="url(#pf3a6e3d59d)" style="fill: #ff0000; fill-opacity: 0.7; stroke: #000000; stroke-opacity: 0.7; stroke-width: 0.5"/>
    <path d="M 313.275027 163.368963 
L 313.275027 163.263582 
L 313.169646 163.263582 
L 313.169646 163.368963 
L 313.275027 163.368963 
" clip-path="url(#pf3a6e3d59d)" style="fill: #ff0000; fill-opacity: 0.7; stroke: #000000; stroke-opacity: 0.7; stroke-width: 0.5"/>
    <path d="M 335.684363 314.813055 
L 335.684363 314.707675 
L 335.578983 314.707675 
L 335.578983 314.813055 
L 335.684363 314.813055 
" clip-path="url(#pf3a6e3d59d)" style="fill: #ff0000; fill-opacity: 0.7; stroke: #000000; stroke-opacity: 0.7; stroke-width: 0.5"/>
    <path d="M 319.71791 149.07011 
L 319.71791 148.96473 
L 319.612529 148.96473 
L 319.612529 149.07011 
L 319.71791 149.07011 
" clip-path="url(#pf3a6e3d59d)" style="fill: #ff0000; fill-opacity: 0.7; stroke: #000000; stroke-opacity: 0.7; stroke-width: 0.5"/>
    <path d="M 327.799257 358.837542 
L 327.799257 358.732161 
L 327.693876 358.732161 
L 327.693876 358.837542 
L 327.799257 358.837542 
" clip-path="url(#pf3a6e3d59d)" style="fill: #ff0000; fill-opacity: 0.7; stroke: #000000; stroke-opacity: 0.7; stroke-width: 0.5"/>
   </g>
   <g id="matplotlib.axis_1">
    <g id="xtick_1">
     <g id="line2d_1">
      <defs>
       <path id="m8f4db8e00c" d="M 0 0 
L 0 3.5 
" style="stroke: #000000; stroke-width: 0.8"/>
      </defs>
      <g>
       <use xlink:href="#m8f4db8e00c" x="191.705979" y="630.171515" style="stroke: #000000; stroke-width: 0.8"/>
      </g>
     </g>
     <g id="text_1">
      <!-- 389000 -->
      <g transform="translate(172.618479 644.769952) scale(0.1 -0.1)">
       <defs>
        <path id="DejaVuSans-33" d="M 2597 2516 
Q 3050 2419 3304 2112 
Q 3559 1806 3559 1356 
Q 3559 666 3084 287 
Q 2609 -91 1734 -91 
Q 1441 -91 1130 -33 
Q 819 25 488 141 
L 488 750 
Q 750 597 1062 519 
Q 1375 441 1716 441 
Q 2309 441 2620 675 
Q 2931 909 2931 1356 
Q 2931 1769 2642 2001 
Q 2353 2234 1838 2234 
L 1294 2234 
L 1294 2753 
L 1863 2753 
Q 2328 2753 2575 2939 
Q 2822 3125 2822 3475 
Q 2822 3834 2567 4026 
Q 2313 4219 1838 4219 
Q 1578 4219 1281 4162 
Q 984 4106 628 3988 
L 628 4550 
Q 988 4650 1302 4700 
Q 1616 4750 1894 4750 
Q 2613 4750 3031 4423 
Q 3450 4097 3450 3541 
Q 3450 3153 3228 2886 
Q 3006 2619 2597 2516 
z
" transform="scale(0.015625)"/>
        <path id="DejaVuSans-38" d="M 2034 2216 
Q 1584 2216 1326 1975 
Q 1069 1734 1069 1313 
Q 1069 891 1326 650 
Q 1584 409 2034 409 
Q 2484 409 2743 651 
Q 3003 894 3003 1313 
Q 3003 1734 2745 1975 
Q 2488 2216 2034 2216 
z
M 1403 2484 
Q 997 2584 770 2862 
Q 544 3141 544 3541 
Q 544 4100 942 4425 
Q 1341 4750 2034 4750 
Q 2731 4750 3128 4425 
Q 3525 4100 3525 3541 
Q 3525 3141 3298 2862 
Q 3072 2584 2669 2484 
Q 3125 2378 3379 2068 
Q 3634 1759 3634 1313 
Q 3634 634 3220 271 
Q 2806 -91 2034 -91 
Q 1263 -91 848 271 
Q 434 634 434 1313 
Q 434 1759 690 2068 
Q 947 2378 1403 2484 
z
M 1172 3481 
Q 1172 3119 1398 2916 
Q 1625 2713 2034 2713 
Q 2441 2713 2670 2916 
Q 2900 3119 2900 3481 
Q 2900 3844 2670 4047 
Q 2441 4250 2034 4250 
Q 1625 4250 1398 4047 
Q 1172 3844 1172 3481 
z
" transform="scale(0.015625)"/>
        <path id="DejaVuSans-39" d="M 703 97 
L 703 672 
Q 941 559 1184 500 
Q 1428 441 1663 441 
Q 2288 441 2617 861 
Q 2947 1281 2994 2138 
Q 2813 1869 2534 1725 
Q 2256 1581 1919 1581 
Q 1219 1581 811 2004 
Q 403 2428 403 3163 
Q 403 3881 828 4315 
Q 1253 4750 1959 4750 
Q 2769 4750 3195 4129 
Q 3622 3509 3622 2328 
Q 3622 1225 3098 567 
Q 2575 -91 1691 -91 
Q 1453 -91 1209 -44 
Q 966 3 703 97 
z
M 1959 2075 
Q 2384 2075 2632 2365 
Q 2881 2656 2881 3163 
Q 2881 3666 2632 3958 
Q 2384 4250 1959 4250 
Q 1534 4250 1286 3958 
Q 1038 3666 1038 3163 
Q 1038 2656 1286 2365 
Q 1534 2075 1959 2075 
z
" transform="scale(0.015625)"/>
        <path id="DejaVuSans-30" d="M 2034 4250 
Q 1547 4250 1301 3770 
Q 1056 3291 1056 2328 
Q 1056 1369 1301 889 
Q 1547 409 2034 409 
Q 2525 409 2770 889 
Q 3016 1369 3016 2328 
Q 3016 3291 2770 3770 
Q 2525 4250 2034 4250 
z
M 2034 4750 
Q 2819 4750 3233 4129 
Q 3647 3509 3647 2328 
Q 3647 1150 3233 529 
Q 2819 -91 2034 -91 
Q 1250 -91 836 529 
Q 422 1150 422 2328 
Q 422 3509 836 4129 
Q 1250 4750 2034 4750 
z
" transform="scale(0.015625)"/>
       </defs>
       <use xlink:href="#DejaVuSans-33"/>
       <use xlink:href="#DejaVuSans-38" x="63.623047"/>
       <use xlink:href="#DejaVuSans-39" x="127.246094"/>
       <use xlink:href="#DejaVuSans-30" x="190.869141"/>
       <use xlink:href="#DejaVuSans-30" x="254.492188"/>
       <use xlink:href="#DejaVuSans-30" x="318.115234"/>
      </g>
     </g>
    </g>
    <g id="xtick_2">
     <g id="line2d_2">
      <g>
       <use xlink:href="#m8f4db8e00c" x="297.086869" y="630.171515" style="stroke: #000000; stroke-width: 0.8"/>
      </g>
     </g>
     <g id="text_2">
      <!-- 390000 -->
      <g transform="translate(277.999369 644.769952) scale(0.1 -0.1)">
       <use xlink:href="#DejaVuSans-33"/>
       <use xlink:href="#DejaVuSans-39" x="63.623047"/>
       <use xlink:href="#DejaVuSans-30" x="127.246094"/>
       <use xlink:href="#DejaVuSans-30" x="190.869141"/>
       <use xlink:href="#DejaVuSans-30" x="254.492188"/>
       <use xlink:href="#DejaVuSans-30" x="318.115234"/>
      </g>
     </g>
    </g>
    <g id="xtick_3">
     <g id="line2d_3">
      <g>
       <use xlink:href="#m8f4db8e00c" x="402.467759" y="630.171515" style="stroke: #000000; stroke-width: 0.8"/>
      </g>
     </g>
     <g id="text_3">
      <!-- 391000 -->
      <g transform="translate(383.380259 644.769952) scale(0.1 -0.1)">
       <defs>
        <path id="DejaVuSans-31" d="M 794 531 
L 1825 531 
L 1825 4091 
L 703 3866 
L 703 4441 
L 1819 4666 
L 2450 4666 
L 2450 531 
L 3481 531 
L 3481 0 
L 794 0 
L 794 531 
z
" transform="scale(0.015625)"/>
       </defs>
       <use xlink:href="#DejaVuSans-33"/>
       <use xlink:href="#DejaVuSans-39" x="63.623047"/>
       <use xlink:href="#DejaVuSans-31" x="127.246094"/>
       <use xlink:href="#DejaVuSans-30" x="190.869141"/>
       <use xlink:href="#DejaVuSans-30" x="254.492188"/>
       <use xlink:href="#DejaVuSans-30" x="318.115234"/>
      </g>
     </g>
    </g>
    <g id="xtick_4">
     <g id="line2d_4">
      <g>
       <use xlink:href="#m8f4db8e00c" x="507.848649" y="630.171515" style="stroke: #000000; stroke-width: 0.8"/>
      </g>
     </g>
     <g id="text_4">
      <!-- 392000 -->
      <g transform="translate(488.761149 644.769952) scale(0.1 -0.1)">
       <defs>
        <path id="DejaVuSans-32" d="M 1228 531 
L 3431 531 
L 3431 0 
L 469 0 
L 469 531 
Q 828 903 1448 1529 
Q 2069 2156 2228 2338 
Q 2531 2678 2651 2914 
Q 2772 3150 2772 3378 
Q 2772 3750 2511 3984 
Q 2250 4219 1831 4219 
Q 1534 4219 1204 4116 
Q 875 4013 500 3803 
L 500 4441 
Q 881 4594 1212 4672 
Q 1544 4750 1819 4750 
Q 2544 4750 2975 4387 
Q 3406 4025 3406 3419 
Q 3406 3131 3298 2873 
Q 3191 2616 2906 2266 
Q 2828 2175 2409 1742 
Q 1991 1309 1228 531 
z
" transform="scale(0.015625)"/>
       </defs>
       <use xlink:href="#DejaVuSans-33"/>
       <use xlink:href="#DejaVuSans-39" x="63.623047"/>
       <use xlink:href="#DejaVuSans-32" x="127.246094"/>
       <use xlink:href="#DejaVuSans-30" x="190.869141"/>
       <use xlink:href="#DejaVuSans-30" x="254.492188"/>
       <use xlink:href="#DejaVuSans-30" x="318.115234"/>
      </g>
     </g>
    </g>
    <g id="xtick_5">
     <g id="line2d_5">
      <g>
       <use xlink:href="#m8f4db8e00c" x="613.229538" y="630.171515" style="stroke: #000000; stroke-width: 0.8"/>
      </g>
     </g>
     <g id="text_5">
      <!-- 393000 -->
      <g transform="translate(594.142038 644.769952) scale(0.1 -0.1)">
       <use xlink:href="#DejaVuSans-33"/>
       <use xlink:href="#DejaVuSans-39" x="63.623047"/>
       <use xlink:href="#DejaVuSans-33" x="127.246094"/>
       <use xlink:href="#DejaVuSans-30" x="190.869141"/>
       <use xlink:href="#DejaVuSans-30" x="254.492188"/>
       <use xlink:href="#DejaVuSans-30" x="318.115234"/>
      </g>
     </g>
    </g>
   </g>
   <g id="matplotlib.axis_2">
    <g id="ytick_1">
     <g id="line2d_6">
      <defs>
       <path id="m0ad1935450" d="M 0 0 
L -3.5 0 
" style="stroke: #000000; stroke-width: 0.8"/>
      </defs>
      <g>
       <use xlink:href="#m0ad1935450" x="90" y="574.353626" style="stroke: #000000; stroke-width: 0.8"/>
      </g>
     </g>
     <g id="text_6">
      <!-- 5.812 -->
      <g transform="translate(54.371875 578.152845) scale(0.1 -0.1)">
       <defs>
        <path id="DejaVuSans-35" d="M 691 4666 
L 3169 4666 
L 3169 4134 
L 1269 4134 
L 1269 2991 
Q 1406 3038 1543 3061 
Q 1681 3084 1819 3084 
Q 2600 3084 3056 2656 
Q 3513 2228 3513 1497 
Q 3513 744 3044 326 
Q 2575 -91 1722 -91 
Q 1428 -91 1123 -41 
Q 819 9 494 109 
L 494 744 
Q 775 591 1075 516 
Q 1375 441 1709 441 
Q 2250 441 2565 725 
Q 2881 1009 2881 1497 
Q 2881 1984 2565 2268 
Q 2250 2553 1709 2553 
Q 1456 2553 1204 2497 
Q 953 2441 691 2322 
L 691 4666 
z
" transform="scale(0.015625)"/>
        <path id="DejaVuSans-2e" d="M 684 794 
L 1344 794 
L 1344 0 
L 684 0 
L 684 794 
z
" transform="scale(0.015625)"/>
       </defs>
       <use xlink:href="#DejaVuSans-35"/>
       <use xlink:href="#DejaVuSans-2e" x="63.623047"/>
       <use xlink:href="#DejaVuSans-38" x="95.410156"/>
       <use xlink:href="#DejaVuSans-31" x="159.033203"/>
       <use xlink:href="#DejaVuSans-32" x="222.65625"/>
      </g>
     </g>
    </g>
    <g id="ytick_2">
     <g id="line2d_7">
      <g>
       <use xlink:href="#m0ad1935450" x="90" y="468.972736" style="stroke: #000000; stroke-width: 0.8"/>
      </g>
     </g>
     <g id="text_7">
      <!-- 5.813 -->
      <g transform="translate(54.371875 472.771955) scale(0.1 -0.1)">
       <use xlink:href="#DejaVuSans-35"/>
       <use xlink:href="#DejaVuSans-2e" x="63.623047"/>
       <use xlink:href="#DejaVuSans-38" x="95.410156"/>
       <use xlink:href="#DejaVuSans-31" x="159.033203"/>
       <use xlink:href="#DejaVuSans-33" x="222.65625"/>
      </g>
     </g>
    </g>
    <g id="ytick_3">
     <g id="line2d_8">
      <g>
       <use xlink:href="#m0ad1935450" x="90" y="363.591846" style="stroke: #000000; stroke-width: 0.8"/>
      </g>
     </g>
     <g id="text_8">
      <!-- 5.814 -->
      <g transform="translate(54.371875 367.391065) scale(0.1 -0.1)">
       <defs>
        <path id="DejaVuSans-34" d="M 2419 4116 
L 825 1625 
L 2419 1625 
L 2419 4116 
z
M 2253 4666 
L 3047 4666 
L 3047 1625 
L 3713 1625 
L 3713 1100 
L 3047 1100 
L 3047 0 
L 2419 0 
L 2419 1100 
L 313 1100 
L 313 1709 
L 2253 4666 
z
" transform="scale(0.015625)"/>
       </defs>
       <use xlink:href="#DejaVuSans-35"/>
       <use xlink:href="#DejaVuSans-2e" x="63.623047"/>
       <use xlink:href="#DejaVuSans-38" x="95.410156"/>
       <use xlink:href="#DejaVuSans-31" x="159.033203"/>
       <use xlink:href="#DejaVuSans-34" x="222.65625"/>
      </g>
     </g>
    </g>
    <g id="ytick_4">
     <g id="line2d_9">
      <g>
       <use xlink:href="#m0ad1935450" x="90" y="258.210956" style="stroke: #000000; stroke-width: 0.8"/>
      </g>
     </g>
     <g id="text_9">
      <!-- 5.815 -->
      <g transform="translate(54.371875 262.010175) scale(0.1 -0.1)">
       <use xlink:href="#DejaVuSans-35"/>
       <use xlink:href="#DejaVuSans-2e" x="63.623047"/>
       <use xlink:href="#DejaVuSans-38" x="95.410156"/>
       <use xlink:href="#DejaVuSans-31" x="159.033203"/>
       <use xlink:href="#DejaVuSans-35" x="222.65625"/>
      </g>
     </g>
    </g>
    <g id="ytick_5">
     <g id="line2d_10">
      <g>
       <use xlink:href="#m0ad1935450" x="90" y="152.830066" style="stroke: #000000; stroke-width: 0.8"/>
      </g>
     </g>
     <g id="text_10">
      <!-- 5.816 -->
      <g transform="translate(54.371875 156.629285) scale(0.1 -0.1)">
       <defs>
        <path id="DejaVuSans-36" d="M 2113 2584 
Q 1688 2584 1439 2293 
Q 1191 2003 1191 1497 
Q 1191 994 1439 701 
Q 1688 409 2113 409 
Q 2538 409 2786 701 
Q 3034 994 3034 1497 
Q 3034 2003 2786 2293 
Q 2538 2584 2113 2584 
z
M 3366 4563 
L 3366 3988 
Q 3128 4100 2886 4159 
Q 2644 4219 2406 4219 
Q 1781 4219 1451 3797 
Q 1122 3375 1075 2522 
Q 1259 2794 1537 2939 
Q 1816 3084 2150 3084 
Q 2853 3084 3261 2657 
Q 3669 2231 3669 1497 
Q 3669 778 3244 343 
Q 2819 -91 2113 -91 
Q 1303 -91 875 529 
Q 447 1150 447 2328 
Q 447 3434 972 4092 
Q 1497 4750 2381 4750 
Q 2619 4750 2861 4703 
Q 3103 4656 3366 4563 
z
" transform="scale(0.015625)"/>
       </defs>
       <use xlink:href="#DejaVuSans-35"/>
       <use xlink:href="#DejaVuSans-2e" x="63.623047"/>
       <use xlink:href="#DejaVuSans-38" x="95.410156"/>
       <use xlink:href="#DejaVuSans-31" x="159.033203"/>
       <use xlink:href="#DejaVuSans-36" x="222.65625"/>
      </g>
     </g>
    </g>
    <g id="text_11">
     <!-- 1e6 -->
     <g transform="translate(90 94.028485) scale(0.1 -0.1)">
      <defs>
       <path id="DejaVuSans-65" d="M 3597 1894 
L 3597 1613 
L 953 1613 
Q 991 1019 1311 708 
Q 1631 397 2203 397 
Q 2534 397 2845 478 
Q 3156 559 3463 722 
L 3463 178 
Q 3153 47 2828 -22 
Q 2503 -91 2169 -91 
Q 1331 -91 842 396 
Q 353 884 353 1716 
Q 353 2575 817 3079 
Q 1281 3584 2069 3584 
Q 2775 3584 3186 3129 
Q 3597 2675 3597 1894 
z
M 3022 2063 
Q 3016 2534 2758 2815 
Q 2500 3097 2075 3097 
Q 1594 3097 1305 2825 
Q 1016 2553 972 2059 
L 3022 2063 
z
" transform="scale(0.015625)"/>
      </defs>
      <use xlink:href="#DejaVuSans-31"/>
      <use xlink:href="#DejaVuSans-65" x="63.623047"/>
      <use xlink:href="#DejaVuSans-36" x="125.146484"/>
     </g>
    </g>
   </g>
   <g id="patch_3">
    <path d="M 90 630.171515 
L 90 97.028485 
" style="fill: none; stroke: #000000; stroke-width: 0.8; stroke-linejoin: miter; stroke-linecap: square"/>
   </g>
   <g id="patch_4">
    <path d="M 648 630.171515 
L 648 97.028485 
" style="fill: none; stroke: #000000; stroke-width: 0.8; stroke-linejoin: miter; stroke-linecap: square"/>
   </g>
   <g id="patch_5">
    <path d="M 90 630.171515 
L 648 630.171515 
" style="fill: none; stroke: #000000; stroke-width: 0.8; stroke-linejoin: miter; stroke-linecap: square"/>
   </g>
   <g id="patch_6">
    <path d="M 90 97.028485 
L 648 97.028485 
" style="fill: none; stroke: #000000; stroke-width: 0.8; stroke-linejoin: miter; stroke-linecap: square"/>
   </g>
   <g id="text_12">
    <!-- Tempelhof -->
    <g transform="translate(317.003185 355.464343) scale(0.12 -0.12)">
     <defs>
      <path id="DejaVuSans-54" d="M -19 4666 
L 3928 4666 
L 3928 4134 
L 2272 4134 
L 2272 0 
L 1638 0 
L 1638 4134 
L -19 4134 
L -19 4666 
z
" transform="scale(0.015625)"/>
      <path id="DejaVuSans-6d" d="M 3328 2828 
Q 3544 3216 3844 3400 
Q 4144 3584 4550 3584 
Q 5097 3584 5394 3201 
Q 5691 2819 5691 2113 
L 5691 0 
L 5113 0 
L 5113 2094 
Q 5113 2597 4934 2840 
Q 4756 3084 4391 3084 
Q 3944 3084 3684 2787 
Q 3425 2491 3425 1978 
L 3425 0 
L 2847 0 
L 2847 2094 
Q 2847 2600 2669 2842 
Q 2491 3084 2119 3084 
Q 1678 3084 1418 2786 
Q 1159 2488 1159 1978 
L 1159 0 
L 581 0 
L 581 3500 
L 1159 3500 
L 1159 2956 
Q 1356 3278 1631 3431 
Q 1906 3584 2284 3584 
Q 2666 3584 2933 3390 
Q 3200 3197 3328 2828 
z
" transform="scale(0.015625)"/>
      <path id="DejaVuSans-70" d="M 1159 525 
L 1159 -1331 
L 581 -1331 
L 581 3500 
L 1159 3500 
L 1159 2969 
Q 1341 3281 1617 3432 
Q 1894 3584 2278 3584 
Q 2916 3584 3314 3078 
Q 3713 2572 3713 1747 
Q 3713 922 3314 415 
Q 2916 -91 2278 -91 
Q 1894 -91 1617 61 
Q 1341 213 1159 525 
z
M 3116 1747 
Q 3116 2381 2855 2742 
Q 2594 3103 2138 3103 
Q 1681 3103 1420 2742 
Q 1159 2381 1159 1747 
Q 1159 1113 1420 752 
Q 1681 391 2138 391 
Q 2594 391 2855 752 
Q 3116 1113 3116 1747 
z
" transform="scale(0.015625)"/>
      <path id="DejaVuSans-6c" d="M 603 4863 
L 1178 4863 
L 1178 0 
L 603 0 
L 603 4863 
z
" transform="scale(0.015625)"/>
      <path id="DejaVuSans-68" d="M 3513 2113 
L 3513 0 
L 2938 0 
L 2938 2094 
Q 2938 2591 2744 2837 
Q 2550 3084 2163 3084 
Q 1697 3084 1428 2787 
Q 1159 2491 1159 1978 
L 1159 0 
L 581 0 
L 581 4863 
L 1159 4863 
L 1159 2956 
Q 1366 3272 1645 3428 
Q 1925 3584 2291 3584 
Q 2894 3584 3203 3211 
Q 3513 2838 3513 2113 
z
" transform="scale(0.015625)"/>
      <path id="DejaVuSans-6f" d="M 1959 3097 
Q 1497 3097 1228 2736 
Q 959 2375 959 1747 
Q 959 1119 1226 758 
Q 1494 397 1959 397 
Q 2419 397 2687 759 
Q 2956 1122 2956 1747 
Q 2956 2369 2687 2733 
Q 2419 3097 1959 3097 
z
M 1959 3584 
Q 2709 3584 3137 3096 
Q 3566 2609 3566 1747 
Q 3566 888 3137 398 
Q 2709 -91 1959 -91 
Q 1206 -91 779 398 
Q 353 888 353 1747 
Q 353 2609 779 3096 
Q 1206 3584 1959 3584 
z
" transform="scale(0.015625)"/>
      <path id="DejaVuSans-66" d="M 2375 4863 
L 2375 4384 
L 1825 4384 
Q 1516 4384 1395 4259 
Q 1275 4134 1275 3809 
L 1275 3500 
L 2222 3500 
L 2222 3053 
L 1275 3053 
L 1275 0 
L 697 0 
L 697 3053 
L 147 3053 
L 147 3500 
L 697 3500 
L 697 3744 
Q 697 4328 969 4595 
Q 1241 4863 1831 4863 
L 2375 4863 
z
" transform="scale(0.015625)"/>
     </defs>
     <use xlink:href="#DejaVuSans-54"/>
     <use xlink:href="#DejaVuSans-65" x="44.083984"/>
     <use xlink:href="#DejaVuSans-6d" x="105.607422"/>
     <use xlink:href="#DejaVuSans-70" x="203.019531"/>
     <use xlink:href="#DejaVuSans-65" x="266.496094"/>
     <use xlink:href="#DejaVuSans-6c" x="328.019531"/>
     <use xlink:href="#DejaVuSans-68" x="355.802734"/>
     <use xlink:href="#DejaVuSans-6f" x="419.181641"/>
     <use xlink:href="#DejaVuSans-66" x="480.363281"/>
    </g>
   </g>
  </g>
 </g>
 <defs>
  <clipPath id="pf3a6e3d59d">
   <rect x="90" y="97.028485" width="558" height="533.14303"/>
  </clipPath>
 </defs>
</svg>
