<?xml version="1.0" encoding="utf-8" standalone="no"?>
<!DOCTYPE svg PUBLIC "-//W3C//DTD SVG 1.1//EN"
  "http://www.w3.org/Graphics/SVG/1.1/DTD/svg11.dtd">
<svg xmlns:xlink="http://www.w3.org/1999/xlink" width="720pt" height="720pt" viewBox="0 0 720 720" xmlns="http://www.w3.org/2000/svg" version="1.1">
 <metadata>
  <rdf:RDF xmlns:dc="http://purl.org/dc/elements/1.1/" xmlns:cc="http://creativecommons.org/ns#" xmlns:rdf="http://www.w3.org/1999/02/22-rdf-syntax-ns#">
   <cc:Work>
    <dc:type rdf:resource="http://purl.org/dc/dcmitype/StillImage"/>
    <dc:date>2024-10-15T13:01:13.356320</dc:date>
    <dc:format>image/svg+xml</dc:format>
    <dc:creator>
     <cc:Agent>
      <dc:title>Matplotlib v3.9.2, https://matplotlib.org/</dc:title>
     </cc:Agent>
    </dc:creator>
   </cc:Work>
  </rdf:RDF>
 </metadata>
 <defs>
  <style type="text/css">*{stroke-linejoin: round; stroke-linecap: butt}</style>
 </defs>
 <g id="figure_1">
  <g id="patch_1">
   <path d="M 0 720 
L 720 720 
L 720 0 
L 0 0 
z
" style="fill: #ffffff"/>
  </g>
  <g id="axes_1">
   <g id="patch_2">
    <path d="M 156.206571 640.8 
L 581.793429 640.8 
L 581.793429 86.4 
L 156.206571 86.4 
z
" style="fill: #ffffff"/>
   </g>
   <g id="PatchCollection_1">
    <path d="M 542.315516 538.013618 
L 543.260674 537.281467 
L 544.329926 536.307886 
L 557.069705 524.708639 
L 557.291252 524.511105 
L 558.060158 523.825168 
L 557.920948 523.669655 
L 556.922786 522.996673 
L 556.223516 522.206472 
L 556.225222 522.181448 
L 556.230341 522.080469 
L 556.32835 521.991686 
L 554.432056 519.855899 
L 553.216706 518.486743 
L 551.384994 516.423878 
L 557.936051 510.763875 
L 558.213395 510.524761 
L 559.370609 509.524955 
L 560.823556 508.269733 
L 562.448572 506.88143 
L 560.345202 504.465139 
L 560.401252 504.416608 
L 560.523021 504.311332 
L 559.616106 503.26742 
L 559.004355 502.55033 
L 558.774467 502.286066 
L 557.77068 501.132201 
L 557.365817 500.666864 
L 554.740174 497.658222 
L 554.405137 497.274274 
L 554.176702 497.012601 
L 553.551555 496.292099 
L 553.084322 495.75365 
L 551.779936 494.252425 
L 551.765023 494.265822 
L 550.935517 493.312525 
L 548.182419 490.141861 
L 545.033493 486.487219 
L 542.486839 483.562432 
L 540.692978 481.5129 
L 539.679902 480.35537 
L 537.450087 477.785968 
L 537.173375 477.472983 
L 536.873534 477.126129 
L 536.431641 476.618011 
L 534.410103 474.293473 
L 532.162201 471.704946 
L 527.300754 466.107416 
L 526.145752 464.776933 
L 525.803953 464.371691 
L 522.889149 460.994646 
L 521.751651 459.689123 
L 519.183259 456.74146 
L 517.784151 455.389935 
L 517.06763 454.566748 
L 515.480592 454.384442 
L 513.858872 454.200248 
L 513.6576 454.178503 
L 510.85654 450.871347 
L 508.588937 448.408295 
L 507.627046 447.418221 
L 507.567646 447.357052 
L 505.87944 445.689762 
L 505.54693 445.365656 
L 505.241465 445.067206 
L 504.222892 444.072203 
L 502.754211 442.637455 
L 499.927116 439.891308 
L 497.803082 437.716595 
L 496.150452 435.941249 
L 495.557659 435.282358 
L 494.430461 434.004955 
L 492.935853 432.30036 
L 492.828384 432.177792 
L 492.024659 431.248444 
L 492.314705 430.797388 
L 491.145991 429.407 
L 489.789916 427.850294 
L 488.079656 425.905785 
L 487.428727 425.363545 
L 484.956385 422.488046 
L 484.529405 422.194398 
L 484.383118 422.093861 
L 484.168775 421.844321 
L 483.875316 422.117621 
L 482.742368 420.811403 
L 481.595707 419.496339 
L 482.133461 419.533685 
L 482.027806 419.410147 
L 481.505723 419.153908 
L 481.174919 418.794668 
L 480.838428 418.811919 
L 480.43407 418.899628 
L 480.016126 419.109232 
L 479.646311 419.394778 
L 478.60982 418.178255 
L 478.586812 418.19941 
L 478.104729 418.64282 
L 477.800086 418.923072 
L 477.056141 419.648313 
L 476.214755 420.411974 
L 475.965656 420.638071 
L 475.567364 420.999523 
L 475.121679 421.404133 
L 474.727558 421.761794 
L 474.275744 422.171902 
L 473.824814 422.581126 
L 473.435432 422.934616 
L 473.349113 423.01234 
L 472.696036 423.422512 
L 472.595942 423.511485 
L 471.216107 424.72576 
L 471.125112 424.630784 
L 471.09775 424.57031 
L 468.394509 421.489504 
L 467.959693 421.004831 
L 467.284752 420.252417 
L 468.195269 419.149358 
L 468.315837 419.003134 
L 468.173215 418.878333 
L 467.135558 417.970343 
L 466.563429 417.469619 
L 465.481728 416.523084 
L 465.213672 416.288583 
L 464.942015 416.058252 
L 463.315799 414.676711 
L 463.199528 414.575921 
L 462.620952 413.935609 
L 462.350875 413.636842 
L 462.272012 413.549702 
L 461.463549 412.655362 
L 460.725796 411.839316 
L 460.164788 411.218719 
L 459.585896 410.578722 
L 459.096673 410.037745 
L 459.086183 410.024917 
L 458.917843 409.839073 
L 458.51715 409.396042 
L 457.503822 408.275605 
L 456.725879 407.41602 
L 456.460857 407.122499 
L 455.284686 405.819757 
L 454.722161 405.196821 
L 454.665479 405.122446 
L 453.315091 403.348679 
L 451.183285 400.548503 
L 450.8188 400.069707 
L 450.208566 399.400768 
L 449.60661 398.740993 
L 449.044907 398.125261 
L 448.473788 397.499166 
L 447.73515 396.689502 
L 447.173194 396.072254 
L 446.294905 395.109668 
L 443.607462 391.900648 
L 443.009984 391.187209 
L 442.292018 390.330798 
L 441.725891 389.658574 
L 441.234203 389.074691 
L 440.754079 388.504646 
L 440.290006 387.953622 
L 439.670862 387.21966 
L 438.621705 385.96766 
L 437.948469 385.174426 
L 437.310368 384.416768 
L 437.088632 384.153515 
L 436.902029 383.931715 
L 436.303043 383.21987 
L 435.70115 382.50455 
L 435.106841 381.798139 
L 434.550382 381.136847 
L 434.210668 380.733184 
L 433.495095 379.883015 
L 433.330041 379.686934 
L 433.080311 379.424692 
L 432.782366 379.071265 
L 432.510456 378.728013 
L 432.481767 378.694079 
L 432.447138 378.653195 
L 432.295354 378.473733 
L 431.674314 377.74034 
L 431.324616 377.344323 
L 427.414115 372.732213 
L 425.537789 370.41905 
L 423.110124 367.056665 
L 421.599799 365.464888 
L 421.207763 365.040246 
L 417.223897 360.724501 
L 413.150995 357.237251 
L 412.13457 356.403385 
L 411.960796 356.064556 
L 411.26993 355.526802 
L 411.45331 355.345381 
L 411.099568 355.027784 
L 408.258192 352.476707 
L 406.183384 350.613904 
L 405.663134 350.146861 
L 405.151793 349.726452 
L 403.365262 347.985544 
L 403.230223 347.854044 
L 403.18282 347.807845 
L 403.149551 347.775421 
L 403.448927 347.352499 
L 404.189966 346.212536 
L 404.478874 345.736646 
L 404.602493 345.512783 
L 404.366055 345.252271 
L 404.395652 345.222083 
L 404.468195 345.165464 
L 404.543013 345.111941 
L 404.630343 345.056017 
L 404.718747 345.00161 
L 404.808035 344.948846 
L 405.211888 344.409322 
L 407.230266 341.095847 
L 408.885866 338.403918 
L 409.492498 337.383386 
L 410.250788 336.160643 
L 410.320298 336.078495 
L 410.38033 335.7657 
L 411.061984 334.640517 
L 411.741523 333.518824 
L 412.23081 333.145998 
L 412.437191 332.814688 
L 412.835294 332.122749 
L 413.287108 331.35814 
L 413.764199 330.539818 
L 414.33121 329.622224 
L 414.610956 329.067472 
L 414.895315 328.577743 
L 414.942708 328.603019 
L 414.984919 328.525484 
L 415.12217 328.29648 
L 417.897385 323.626109 
L 420.633422 319.058865 
L 422.13749 316.546839 
L 422.215405 316.433096 
L 422.299069 316.32346 
L 422.388295 316.218121 
L 422.482512 316.117395 
L 422.581659 316.021724 
L 422.685292 315.931108 
L 422.793601 315.845927 
L 422.906144 315.766243 
L 423.021909 315.715311 
L 423.139886 315.669814 
L 423.259823 315.62994 
L 423.381465 315.595754 
L 423.504624 315.567255 
L 423.62892 315.544443 
L 423.754101 315.527571 
L 424.064305 315.512848 
L 424.212488 315.487508 
L 424.361744 315.469436 
L 424.511633 315.458756 
L 424.661964 315.455534 
L 424.812295 315.459641 
L 424.962184 315.471268 
L 425.111188 315.490352 
L 425.259181 315.516702 
L 425.423224 315.556892 
L 425.585309 315.604159 
L 425.745118 315.658882 
L 425.902211 315.720809 
L 426.05646 315.78975 
L 426.207549 315.865516 
L 426.355099 315.947854 
L 426.498795 316.036573 
L 426.638447 316.131676 
L 426.892095 316.369273 
L 427.038582 316.518577 
L 427.210703 316.6621 
L 426.347453 314.859455 
L 425.723444 313.868622 
L 425.15738 312.629387 
L 424.807177 311.992676 
L 423.827024 310.630345 
L 423.387721 310.18169 
L 421.825889 308.967596 
L 420.926754 308.26865 
L 420.279743 307.922807 
L 419.574217 307.648432 
L 418.809355 307.349666 
L 418.617255 307.143411 
L 418.427683 306.896967 
L 418.222312 307.004391 
L 417.87015 307.184296 
L 417.789455 307.023349 
L 417.846327 306.969636 
L 417.47982 306.239782 
L 417.258652 306.350366 
L 416.911103 305.658426 
L 416.471926 305.882754 
L 416.250758 305.446737 
L 415.811013 304.528132 
L 415.637997 304.200803 
L 415.059801 302.996828 
L 414.059111 300.936365 
L 414.883435 300.553049 
L 413.833898 298.345983 
L 412.506259 298.966896 
L 412.108473 298.065605 
L 412.067904 298.063899 
L 411.909927 297.627945 
L 411.784367 297.28128 
L 411.286739 295.852346 
L 411.327244 295.83718 
L 411.282505 295.673579 
L 410.923897 294.361611 
L 410.517391 292.873214 
L 409.768326 289.659202 
L 409.732111 289.324743 
L 409.523725 287.400213 
L 409.321137 285.529236 
L 408.980463 282.382986 
L 408.583877 278.720362 
L 408.594999 272.733979 
L 409.152089 270.293422 
L 409.977425 266.67739 
L 410.677832 263.608843 
L 410.851291 262.847204 
L 412.051958 258.691269 
L 413.383411 254.082635 
L 413.786505 251.782551 
L 413.972729 249.311916 
L 413.965588 247.658085 
L 413.405998 243.727033 
L 412.405027 236.696245 
L 412.217578 235.472084 
L 412.062912 234.293666 
L 412.042249 234.110602 
L 412.021332 234.002103 
L 411.915045 233.276609 
L 411.719975 231.911561 
L 411.590434 230.976337 
L 411.394037 229.641809 
L 410.8578 226.939895 
L 409.569528 221.531013 
L 409.551013 221.454552 
L 409.307476 220.44729 
L 408.605236 217.543671 
L 408.464826 216.9632 
L 407.548685 213.242523 
L 407.169224 211.629198 
L 406.52354 208.801471 
L 406.417 208.820492 
L 406.22073 208.237746 
L 406.260477 207.580372 
L 405.886261 206.410077 
L 405.743765 205.900696 
L 404.635714 202.906967 
L 403.21828 199.07735 
L 402.691711 197.883927 
L 402.19541 197.043742 
L 400.777471 194.865996 
L 398.320864 191.257168 
L 396.994867 189.36713 
L 396.346024 188.477782 
L 395.520941 187.499082 
L 395.059332 186.96651 
L 394.689097 186.617317 
L 394.374217 186.382121 
L 394.210869 186.270273 
L 390.641029 184.841402 
L 388.782018 184.264975 
L 387.580634 183.896762 
L 384.807125 183.315027 
L 380.726134 183.557048 
L 377.207415 184.469334 
L 377.046911 184.529366 
L 373.769708 186.13138 
L 372.450915 187.060348 
L 371.910444 187.441199 
L 370.911902 188.146536 
L 369.924356 188.839044 
L 369.22597 189.345329 
L 368.175107 190.080554 
L 367.455174 190.569399 
L 365.748642 191.797639 
L 363.982142 193.069418 
L 362.206922 194.335699 
L 360.740452 195.394272 
L 357.58388 186.777632 
L 357.415666 186.318298 
L 357.084294 185.493595 
L 355.517603 184.113191 
L 354.744274 183.820238 
L 353.729745 183.436038 
L 352.347445 182.921222 
L 352.055251 182.819106 
L 350.693172 182.334622 
L 350.34221 182.230483 
L 348.955108 181.917499 
L 348.583294 181.841228 
L 347.732113 181.774814 
L 346.78444 181.816962 
L 345.858631 181.882744 
L 345.066218 182.231494 
L 344.419586 183.529181 
L 342.331319 188.0678 
L 342.140925 187.722525 
L 341.564687 186.473053 
L 340.321471 183.777268 
L 340.044316 183.163053 
L 339.902642 182.776262 
L 339.683812 182.161731 
L 339.505551 181.543535 
L 339.365267 180.922054 
L 339.246847 180.298739 
L 339.168554 179.832833 
L 338.653612 176.054337 
L 338.533044 175.683849 
L 338.317689 175.379396 
L 335.89015 171.947881 
L 332.820971 168.249826 
L 332.033234 167.300763 
L 329.132269 164.63569 
L 322.142415 159.513314 
L 315.849492 157.681285 
L 310.333312 156.074279 
L 301.726088 151.081255 
L 301.599137 151.007575 
L 299.635798 149.84657 
L 299.433019 149.763537 
L 295.276389 148.014351 
L 294.429695 147.665791 
L 293.525687 147.286709 
L 287.272321 143.278388 
L 281.486758 139.603525 
L 277.977139 136.792228 
L 277.72545 136.590586 
L 277.196795 136.187491 
L 277.107759 135.248412 
L 277.121535 135.253783 
L 278.196474 133.885386 
L 279.533276 132.165015 
L 280.501929 130.902652 
L 280.573398 130.799145 
L 280.632355 130.688435 
L 280.680127 130.568057 
L 280.678105 130.442244 
L 280.656494 130.31801 
L 280.616431 130.197821 
L 280.558548 130.086163 
L 280.479559 129.987333 
L 280.074413 129.628723 
L 279.942627 129.512074 
L 279.955012 129.49337 
L 279.629769 129.220512 
L 279.650432 129.196942 
L 279.378303 128.986632 
L 279.214542 128.860071 
L 278.159508 128.024373 
L 277.833569 127.833347 
L 277.535372 127.657487 
L 277.320776 127.531358 
L 277.001662 127.898686 
L 276.754017 128.183866 
L 276.660432 128.148543 
L 275.645308 127.778953 
L 275.644576 127.778687 
L 273.511695 126.974962 
L 273.4504 126.952846 
L 271.937801 126.417935 
L 270.69389 125.579203 
L 265.972586 122.39527 
L 261.725214 119.541888 
L 261.603129 119.482741 
L 261.457601 119.424353 
L 260.7383 119.172474 
L 256.697941 117.760538 
L 248.125093 114.763649 
L 244.257877 113.41819 
L 242.807268 112.913548 
L 242.671344 113.281192 
L 238.525141 111.853395 
L 236.563255 111.963537 
L 235.45255 112.025906 
L 232.809087 111.606256 
L 232.711268 111.6 
L 232.613196 111.604423 
L 232.517651 111.613396 
L 231.907228 111.750268 
L 231.300912 111.902368 
L 230.695796 112.057059 
L 230.093019 112.221861 
L 229.495613 112.405746 
L 228.898143 112.590264 
L 228.302443 112.781732 
L 227.708323 112.990957 
L 227.619856 113.025269 
L 227.531326 113.060277 
L 227.444628 113.102236 
L 227.311232 113.172378 
L 227.135056 113.265015 
L 226.542199 113.607573 
L 226.277872 113.751016 
L 226.186498 113.806814 
L 225.582331 114.244537 
L 225.237435 114.503998 
L 224.904546 114.731485 
L 224.767169 114.879225 
L 223.763825 115.874291 
L 223.978674 115.982664 
L 222.199409 118.066129 
L 222.143675 118.131278 
L 221.963012 118.301072 
L 221.42974 118.830087 
L 221.147851 119.109725 
L 220.838405 119.505426 
L 220.729654 119.621129 
L 220.307476 120.096956 
L 215.770374 125.429883 
L 215.357485 125.917653 
L 211.586003 130.348279 
L 211.440032 130.519842 
L 211.186257 130.785686 
L 210.910935 131.01608 
L 210.608188 131.206979 
L 210.273529 131.365019 
L 209.950434 131.48129 
L 209.59151 131.586946 
L 209.244214 131.667008 
L 208.894452 131.71971 
L 208.534201 131.758572 
L 208.170728 131.765776 
L 207.806875 131.762111 
L 207.716512 131.745807 
L 207.360811 131.66783 
L 205.810423 131.327863 
L 205.245308 131.1266 
L 204.915704 131.037628 
L 204.576812 130.992446 
L 204.017131 130.958765 
L 202.714515 131.068844 
L 202.492589 131.120913 
L 201.254364 131.557056 
L 200.6871 131.875601 
L 200.134307 132.205521 
L 199.594467 132.592817 
L 199.054249 133.057144 
L 197.915112 134.425283 
L 197.203768 135.279628 
L 193.576172 139.665704 
L 193.51058 139.745009 
L 192.814343 140.587532 
L 192.804738 140.599159 
L 188.621884 145.653605 
L 188.057337 146.334739 
L 186.69785 147.980734 
L 185.383922 149.591595 
L 181.275886 154.626451 
L 180.928337 155.049893 
L 180.720565 155.304362 
L 180.550835 155.504235 
L 180.334848 155.747835 
L 180.130931 155.964643 
L 179.897757 156.20243 
L 179.667932 156.42442 
L 179.432104 156.640912 
L 179.149515 156.886155 
L 178.866356 157.119519 
L 178.613909 157.314399 
L 178.397796 157.475347 
L 178.146486 157.650891 
L 177.306933 158.53354 
L 176.667694 159.435969 
L 176.355089 160.240514 
L 176.065612 161.17795 
L 176.012216 161.439497 
L 175.752502 162.819901 
L 175.709279 163.084797 
L 175.551428 164.290415 
L 175.80476 164.523336 
L 176.885576 165.468292 
L 176.899921 165.480551 
L 177.088861 165.644658 
L 177.643361 166.125287 
L 177.972648 166.41843 
L 178.723419 167.074666 
L 179.056434 167.365913 
L 179.266038 167.549166 
L 179.582372 167.825816 
L 179.641455 167.876874 
L 180.485495 168.613869 
L 181.386597 169.407546 
L 182.212438 170.135378 
L 183.577296 171.326525 
L 185.325471 172.85865 
L 185.632768 173.127969 
L 185.783289 173.259912 
L 185.818739 173.291002 
L 185.926669 173.385535 
L 186.82777 174.175358 
L 186.855131 174.199244 
L 187.004072 174.32967 
L 187.179364 174.483223 
L 187.314087 174.601327 
L 187.450705 174.72101 
L 187.559836 174.816618 
L 187.695127 174.935164 
L 187.836106 175.058639 
L 188.149849 175.333519 
L 188.290322 175.456615 
L 188.424981 175.574655 
L 188.536829 175.672664 
L 188.68419 175.801763 
L 188.963936 176.046881 
L 188.977901 176.05914 
L 189.16008 176.218696 
L 190.10927 177.050793 
L 194.822801 181.177913 
L 195.717773 181.960785 
L 196.99922 180.662023 
L 199.182589 178.449712 
L 204.734284 172.823769 
L 205.894594 171.647851 
L 206.947479 172.572459 
L 208.676949 174.091061 
L 209.38772 174.715071 
L 213.362234 178.204405 
L 213.885644 178.659822 
L 214.178976 178.351387 
L 214.668768 178.844023 
L 217.071852 181.262336 
L 220.900901 185.11426 
L 221.415211 184.682351 
L 223.894567 186.879686 
L 224.33985 187.265399 
L 224.801481 187.665274 
L 225.936768 188.66944 
L 226.369309 189.051049 
L 226.791235 189.424317 
L 227.661815 190.194614 
L 227.861561 190.371295 
L 227.956979 190.455529 
L 227.971197 190.46823 
L 228.533659 190.965036 
L 229.787618 192.073783 
L 231.037848 193.179875 
L 231.583501 193.662148 
L 231.607071 193.682937 
L 231.69914 193.76439 
L 231.937054 193.974816 
L 232.182993 194.192635 
L 232.1974 194.205336 
L 232.29048 194.287674 
L 232.83746 194.770957 
L 234.183235 195.960714 
L 234.281624 196.047602 
L 234.85963 196.553318 
L 235.184052 196.838182 
L 236.134252 197.671922 
L 236.903032 198.347495 
L 237.671812 199.022374 
L 238.770574 199.986603 
L 241.173216 202.095913 
L 242.605057 203.352778 
L 245.10217 205.545374 
L 245.875309 204.626832 
L 247.097041 203.17616 
L 248.326229 201.716578 
L 250.041039 199.680317 
L 250.449947 199.194948 
L 251.671742 197.744213 
L 252.039449 197.30769 
L 252.914705 196.26858 
L 254.209991 194.730705 
L 254.598425 195.201856 
L 254.986291 195.672375 
L 255.991151 196.891389 
L 256.070203 196.987629 
L 256.112857 197.002984 
L 256.11608 197.00052 
L 256.157027 197.049745 
L 256.734212 197.74396 
L 258.320681 199.652639 
L 259.485225 201.047766 
L 259.495525 201.039109 
L 259.767878 201.367196 
L 260.124274 201.797273 
L 260.182726 201.748489 
L 261.901833 203.816346 
L 264.367665 206.788085 
L 266.962913 209.899349 
L 266.844936 211.055299 
L 267.079626 211.339658 
L 269.260153 213.962267 
L 270.029185 214.889909 
L 271.908733 217.159218 
L 273.421396 218.976649 
L 275.715855 221.733539 
L 276.88558 223.154069 
L 277.585356 224.003291 
L 277.743459 224.193369 
L 278.353188 224.925877 
L 278.575556 225.192985 
L 279.200703 225.944134 
L 281.402967 228.59044 
L 282.629754 230.065125 
L 283.587221 231.21564 
L 286.255265 234.421185 
L 286.954535 235.26156 
L 287.022465 235.343771 
L 291.109143 240.267728 
L 293.626918 243.301077 
L 295.643887 245.722266 
L 296.033668 246.190162 
L 304.048541 255.855074 
L 306.251436 258.511554 
L 306.155702 259.15926 
L 306.022686 260.040646 
L 305.88632 260.932142 
L 305.777947 261.61435 
L 305.304522 264.713419 
L 305.039815 265.954107 
L 304.863386 266.781339 
L 303.39104 273.001655 
L 301.67168 278.890662 
L 301.556989 280.235616 
L 301.671238 281.172293 
L 301.974238 282.318512 
L 302.384157 283.554019 
L 303.000141 284.888167 
L 303.420626 285.763778 
L 303.638306 286.217071 
L 303.717105 286.35944 
L 303.751607 286.427749 
L 305.649544 289.869501 
L 307.263817 292.799723 
L 308.832972 295.393833 
L 310.764842 298.587688 
L 311.397003 299.632169 
L 312.315292 301.150898 
L 312.906442 302.128207 
L 313.206599 302.624887 
L 314.215757 304.257991 
L 315.310411 306.02942 
L 315.445829 306.251283 
L 316.010187 307.175638 
L 316.50832 307.992001 
L 318.464077 311.240895 
L 323.614635 319.799209 
L 323.836941 320.169317 
L 324.077508 320.570832 
L 324.079151 320.573549 
L 324.113085 320.630105 
L 324.156254 320.692628 
L 324.223163 320.789535 
L 324.227713 320.796107 
L 326.371588 323.900989 
L 326.447354 324.010625 
L 328.884245 326.775224 
L 329.596975 327.741602 
L 334.96946 336.556281 
L 335.232902 336.987748 
L 335.541716 337.495929 
L 335.857733 338.00809 
L 337.849445 341.27215 
L 338.156616 341.966048 
L 338.414308 343.001494 
L 338.433265 343.667209 
L 338.437183 343.861268 
L 338.566725 350.074128 
L 336.281238 355.276629 
L 334.250664 359.898913 
L 333.414081 361.803169 
L 333.193545 362.298585 
L 332.780483 363.226578 
L 332.468935 363.926507 
L 332.265145 364.175984 
L 329.455617 367.573629 
L 326.30113 371.388271 
L 325.92268 372.342768 
L 324.466764 376.015167 
L 324.465339 376.018792 
L 324.410271 376.158926 
L 324.240288 376.592162 
L 324.189166 376.722019 
L 323.956182 377.314054 
L 323.744682 377.824004 
L 323.68661 377.964162 
L 323.470181 378.414965 
L 322.575525 381.437762 
L 322.413125 383.400343 
L 322.408322 383.452728 
L 322.40946 383.660626 
L 322.41066 383.864227 
L 322.410679 383.867258 
L 322.42393 385.990978 
L 322.424136 386.021373 
L 322.424752 386.112494 
L 322.426584 386.414546 
L 315.604438 385.95439 
L 310.612552 385.569495 
L 310.159663 385.59376 
L 309.24327 385.537141 
L 308.795942 385.469906 
L 308.49054 385.450191 
L 296.339827 384.664476 
L 278.65505 383.529252 
L 270.439294 383.001862 
L 264.715089 382.634407 
L 261.028978 382.39782 
L 256.41453 382.101582 
L 252.287347 381.866449 
L 252.061376 381.853305 
L 251.388078 381.806986 
L 251.0265 381.781836 
L 246.804278 381.491158 
L 246.502163 381.695202 
L 246.339257 381.323703 
L 245.881755 381.32762 
L 245.522199 381.495834 
L 245.320431 381.74032 
L 245.229373 382.041235 
L 245.246687 382.3594 
L 245.397524 382.735702 
L 246.09989 384.178285 
L 246.272653 384.66239 
L 246.491926 385.459543 
L 247.102602 387.070783 
L 247.129711 387.142252 
L 247.331858 387.67495 
L 247.546707 388.240761 
L 252.678056 399.269963 
L 253.130186 400.314761 
L 253.582696 401.075894 
L 257.721316 411.711544 
L 259.059888 415.153359 
L 259.393662 416.110005 
L 259.579569 416.643336 
L 259.910752 417.593347 
L 260.269487 418.511763 
L 260.339123 418.69015 
L 260.584936 419.319721 
L 263.069726 425.684807 
L 263.320404 426.32651 
L 263.480024 426.671342 
L 263.574936 426.831089 
L 263.68552 426.995638 
L 264.573667 428.206058 
L 264.886146 428.852058 
L 265.934672 431.49729 
L 266.630656 433.141958 
L 267.000891 433.940753 
L 268.082275 436.284564 
L 268.162781 436.702509 
L 268.289289 437.493468 
L 268.363348 437.852519 
L 268.382874 437.922408 
L 268.436144 438.11356 
L 268.434501 438.298646 
L 268.471594 438.439625 
L 268.836584 438.221679 
L 269.064275 438.622414 
L 269.290232 439.020096 
L 269.640246 438.853588 
L 269.935915 439.022244 
L 270.153924 439.35368 
L 271.075878 441.31228 
L 271.946206 442.958338 
L 273.046611 444.800857 
L 273.683638 445.660315 
L 274.396114 446.569821 
L 274.966159 447.263024 
L 275.4993 447.901189 
L 276.361097 448.867882 
L 277.098597 449.693218 
L 277.954706 450.62503 
L 277.970251 450.640511 
L 278.727652 451.4278 
L 278.926265 451.63425 
L 279.860858 452.559996 
L 280.822875 453.474873 
L 281.722586 454.273542 
L 282.362393 454.85376 
L 283.043148 455.437265 
L 285.641492 457.590682 
L 289.021128 460.388898 
L 291.340168 462.313502 
L 297.278401 467.241629 
L 300.102146 469.585061 
L 307.261226 475.52462 
L 309.767438 477.60303 
L 310.807496 478.46508 
L 313.599204 480.782035 
L 318.360759 484.708461 
L 319.216869 485.409057 
L 319.573897 485.707129 
L 320.679421 486.614612 
L 324.09419 489.428058 
L 325.171657 490.316015 
L 325.372983 490.460786 
L 325.562809 490.580659 
L 325.811717 490.715508 
L 326.067577 490.818319 
L 326.314906 490.901984 
L 326.665236 491.02053 
L 326.959895 491.142362 
L 327.222137 491.274999 
L 327.540808 491.494588 
L 328.474706 492.275247 
L 333.228679 496.218355 
L 333.504507 496.465621 
L 333.808391 496.767737 
L 334.133129 497.234527 
L 334.258436 497.423278 
L 334.600994 498.050258 
L 334.713347 498.255818 
L 334.737739 498.299925 
L 334.814642 498.444189 
L 334.912525 498.58125 
L 335.049839 498.729243 
L 335.074104 498.755531 
L 335.21028 498.902829 
L 335.424434 498.906873 
L 336.007243 499.391862 
L 336.269485 499.588955 
L 336.516814 499.774988 
L 337.633143 500.615679 
L 337.924958 500.885947 
L 348.395427 509.623154 
L 348.534131 509.738856 
L 350.443632 511.332024 
L 350.480788 511.371897 
L 351.75402 512.434198 
L 352.960017 513.441587 
L 354.274892 514.538769 
L 355.538772 515.593361 
L 356.794564 516.642076 
L 358.051556 517.690854 
L 358.179707 517.797521 
L 359.008834 518.487438 
L 359.310001 518.731355 
L 359.530474 518.900453 
L 359.612685 518.96396 
L 359.849209 519.084718 
L 360.12807 519.206297 
L 360.602254 519.390309 
L 361.12579 519.603072 
L 361.151509 519.613688 
L 361.590116 519.843197 
L 361.88844 520.070621 
L 366.215369 523.658344 
L 371.74659 528.244482 
L 379.481148 534.657531 
L 379.852331 534.97418 
L 379.967781 535.083816 
L 380.209107 535.317117 
L 380.244241 535.365142 
L 380.433308 535.624035 
L 380.836149 536.337459 
L 380.912294 536.484188 
L 381.084363 536.739606 
L 381.189449 536.862259 
L 381.480253 537.119888 
L 382.336047 537.836914 
L 382.409475 537.898968 
L 382.480943 537.959694 
L 383.383182 538.726199 
L 385.328828 540.34597 
L 387.177034 541.874746 
L 389.055571 543.434485 
L 389.146376 543.509745 
L 390.122359 544.318462 
L 390.906746 544.969011 
L 391.19477 545.20762 
L 391.836094 545.739245 
L 392.263454 546.092987 
L 392.761081 546.50556 
L 393.54806 547.154846 
L 393.645627 547.238826 
L 394.517155 547.961161 
L 394.824515 548.213419 
L 396.092818 549.26681 
L 396.329784 549.463396 
L 397.369273 550.324814 
L 398.117579 550.944969 
L 398.645096 551.382123 
L 399.920919 552.439432 
L 399.962562 552.474313 
L 401.24521 553.537436 
L 401.761542 553.964922 
L 402.55465 554.622549 
L 402.870162 554.844033 
L 403.150919 555.000367 
L 403.503713 555.153036 
L 404.06093 555.357585 
L 404.237675 555.43234 
L 404.601212 555.586462 
L 404.933343 555.79752 
L 405.255932 556.046302 
L 409.308613 559.404452 
L 410.120362 560.076993 
L 413.749918 563.091006 
L 414.168178 563.523547 
L 414.290389 563.676911 
L 415.423401 565.266034 
L 415.432879 565.279304 
L 415.603115 565.517787 
L 415.8864 565.673552 
L 416.448103 566.139142 
L 416.761846 566.386471 
L 416.600899 566.544511 
L 417.100422 566.92492 
L 417.134166 566.949186 
L 417.473817 567.193608 
L 417.864084 567.369721 
L 418.522848 567.582547 
L 419.112545 567.773826 
L 419.609604 567.982293 
L 419.868939 568.167315 
L 420.442396 568.646365 
L 421.260401 569.325351 
L 422.075247 570.001745 
L 422.952336 570.728629 
L 423.790815 571.424424 
L 424.21135 571.772984 
L 424.652359 572.138354 
L 425.072262 572.486914 
L 425.511439 572.851589 
L 426.022147 573.274525 
L 426.356174 573.550669 
L 427.14865 574.208928 
L 427.314084 574.346052 
L 428.093542 574.992052 
L 429.110599 575.835334 
L 429.234959 575.939409 
L 429.783581 576.394636 
L 431.357981 577.699653 
L 433.503436 579.478601 
L 436.863799 582.261273 
L 438.848117 583.905815 
L 441.117995 585.787574 
L 442.973594 587.325387 
L 444.590901 588.666549 
L 445.474814 589.398615 
L 448.03518 591.519678 
L 450.389671 593.469432 
L 451.278766 594.198464 
L 452.217276 594.952394 
L 453.191805 595.705123 
L 454.264975 596.52098 
L 454.317929 596.559906 
L 455.26516 597.253994 
L 456.257319 597.97734 
L 456.600382 598.20944 
L 457.30338 598.687794 
L 458.346092 599.379291 
L 459.525107 600.142194 
L 460.970471 601.055492 
L 462.346199 601.879058 
L 462.800793 602.1619 
L 463.787455 602.741739 
L 463.818103 602.758737 
L 464.536646 603.150205 
L 465.521664 603.684546 
L 466.498026 604.20606 
L 466.57 604.244038 
L 467.187438 604.571051 
L 467.338717 604.653578 
L 468.354699 605.154934 
L 468.992737 605.460904 
L 469.749131 605.824062 
L 470.7787 606.304881 
L 471.904381 606.852556 
L 473.163079 607.412932 
L 474.320609 607.91511 
L 474.713909 608.065377 
L 476.042812 608.557571 
L 477.385618 609.047489 
L 478.743841 609.527613 
L 479.871798 609.920534 
L 481.602595 610.474718 
L 482.9557 610.890261 
L 484.414271 611.308458 
L 485.824943 611.689119 
L 487.167875 612.038122 
L 488.432197 612.337647 
L 489.137154 612.514012 
L 490.740179 612.845259 
L 492.198434 613.146553 
L 493.515458 613.399063 
L 494.930174 613.631289 
L 496.264828 613.820293 
L 497.667664 614.01372 
L 498.785763 614.159439 
L 499.303422 614.216689 
L 499.901144 614.282977 
L 502.132413 614.538331 
L 505.122224 614.875643 
L 508.417753 615.247901 
L 510.142546 615.38869 
L 510.70861 615.52455 
L 510.921374 615.6 
L 510.861911 615.274378 
L 510.765166 614.744712 
L 510.610664 613.898839 
L 510.610032 613.89568 
L 510.508105 613.33682 
L 510.29016 612.141945 
L 510.300524 612.127979 
L 510.310697 612.113825 
L 510.320681 612.099544 
L 510.092942 610.850514 
L 509.181919 605.85869 
L 509.170482 605.795879 
L 508.934278 604.433156 
L 508.696677 603.062369 
L 508.665777 602.893713 
L 508.362018 601.224337 
L 507.986602 599.166844 
L 507.690742 597.546252 
L 507.448152 596.214758 
L 505.758872 586.955215 
L 505.243235 584.130521 
L 505.121845 583.46588 
L 505.083488 583.255518 
L 503.771457 576.070467 
L 503.335314 573.681411 
L 503.278568 573.370828 
L 503.538662 573.134368 
L 506.678804 570.279785 
L 506.823195 570.148664 
L 507.472544 569.558398 
L 507.630458 569.414829 
L 511.474736 565.920186 
L 511.673155 565.739776 
L 512.733181 564.776179 
L 512.933938 564.593621 
L 514.150994 563.487212 
L 514.309603 563.343011 
L 514.955666 562.755778 
L 515.114149 562.611767 
L 521.68113 556.641875 
L 521.840308 556.497864 
L 522.487445 555.909241 
L 522.644411 555.767377 
L 524.878902 553.735223 
L 525.770588 552.924611 
L 525.929134 552.780473 
L 526.576461 552.192103 
L 526.734122 552.048723 
L 529.903964 549.167158 
L 530.04747 549.036732 
L 530.695935 548.447351 
L 530.839567 548.316736 
L 532.436147 546.865368 
L 532.577758 546.736649 
L 533.426537 545.965025 
L 533.568274 545.836179 
L 535.974581 543.648765 
L 536.117898 543.518466 
L 536.767689 542.927821 
L 536.911765 542.796826 
L 541.040401 539.043733 
L 541.093608 538.995392 
L 541.253607 538.849927 
L 541.264539 538.840006 
L 541.289751 538.817103 
L 541.357935 538.755393 
L 542.315516 538.013618 
" clip-path="url(#p7e3a3e225f)" style="fill: #d3d3d3"/>
   </g>
   <g id="PatchCollection_2">
    <path d="M 288.034472 152.160638 
L 288.034472 152.097447 
L 287.971281 152.097447 
L 287.971281 152.160638 
L 288.034472 152.160638 
" clip-path="url(#p7e3a3e225f)" style="fill: #ff0000; fill-opacity: 0.7; stroke: #000000; stroke-opacity: 0.7; stroke-width: 0.5"/>
    <path d="M 326.690489 446.049646 
L 326.690489 445.986455 
L 326.627298 445.986455 
L 326.627298 446.049646 
L 326.690489 446.049646 
" clip-path="url(#p7e3a3e225f)" style="fill: #ff0000; fill-opacity: 0.7; stroke: #000000; stroke-opacity: 0.7; stroke-width: 0.5"/>
    <path d="M 344.127981 304.989994 
L 344.127981 304.926804 
L 344.06479 304.926804 
L 344.06479 304.989994 
L 344.127981 304.989994 
" clip-path="url(#p7e3a3e225f)" style="fill: #ff0000; fill-opacity: 0.7; stroke: #000000; stroke-opacity: 0.7; stroke-width: 0.5"/>
    <path d="M 453.289422 492.487835 
L 453.289422 492.424645 
L 453.226231 492.424645 
L 453.226231 492.487835 
L 453.289422 492.487835 
" clip-path="url(#p7e3a3e225f)" style="fill: #ff0000; fill-opacity: 0.7; stroke: #000000; stroke-opacity: 0.7; stroke-width: 0.5"/>
    <path d="M 264.740416 145.031858 
L 264.740416 144.968668 
L 264.677225 144.968668 
L 264.677225 145.031858 
L 264.740416 145.031858 
" clip-path="url(#p7e3a3e225f)" style="fill: #ff0000; fill-opacity: 0.7; stroke: #000000; stroke-opacity: 0.7; stroke-width: 0.5"/>
    <path d="M 288.034472 152.160638 
L 288.034472 152.097447 
L 287.971281 152.097447 
L 287.971281 152.160638 
L 288.034472 152.160638 
" clip-path="url(#p7e3a3e225f)" style="fill: #ff0000; fill-opacity: 0.7; stroke: #000000; stroke-opacity: 0.7; stroke-width: 0.5"/>
    <path d="M 338.886164 462.930445 
L 338.886164 462.867254 
L 338.822973 462.867254 
L 338.822973 462.930445 
L 338.886164 462.930445 
" clip-path="url(#p7e3a3e225f)" style="fill: #ff0000; fill-opacity: 0.7; stroke: #000000; stroke-opacity: 0.7; stroke-width: 0.5"/>
    <path d="M 248.503394 165.826207 
L 248.503394 165.763016 
L 248.440203 165.763016 
L 248.440203 165.826207 
L 248.503394 165.826207 
" clip-path="url(#p7e3a3e225f)" style="fill: #ff0000; fill-opacity: 0.7; stroke: #000000; stroke-opacity: 0.7; stroke-width: 0.5"/>
    <path d="M 216.767259 158.495167 
L 216.767259 158.431977 
L 216.704068 158.431977 
L 216.704068 158.495167 
L 216.767259 158.495167 
" clip-path="url(#p7e3a3e225f)" style="fill: #ff0000; fill-opacity: 0.7; stroke: #000000; stroke-opacity: 0.7; stroke-width: 0.5"/>
    <path d="M 437.863833 537.003943 
L 437.863833 536.940753 
L 437.800642 536.940753 
L 437.800642 537.003943 
L 437.863833 537.003943 
" clip-path="url(#p7e3a3e225f)" style="fill: #ff0000; fill-opacity: 0.7; stroke: #000000; stroke-opacity: 0.7; stroke-width: 0.5"/>
    <path d="M 266.386728 183.26629 
L 266.386728 183.203099 
L 266.323537 183.203099 
L 266.323537 183.26629 
L 266.386728 183.26629 
" clip-path="url(#p7e3a3e225f)" style="fill: #ff0000; fill-opacity: 0.7; stroke: #000000; stroke-opacity: 0.7; stroke-width: 0.5"/>
    <path d="M 350.215173 370.552258 
L 350.215173 370.489067 
L 350.151982 370.489067 
L 350.151982 370.552258 
L 350.215173 370.552258 
" clip-path="url(#p7e3a3e225f)" style="fill: #ff0000; fill-opacity: 0.7; stroke: #000000; stroke-opacity: 0.7; stroke-width: 0.5"/>
    <path d="M 302.341998 428.653095 
L 302.341998 428.589904 
L 302.278808 428.589904 
L 302.278808 428.653095 
L 302.341998 428.653095 
" clip-path="url(#p7e3a3e225f)" style="fill: #ff0000; fill-opacity: 0.7; stroke: #000000; stroke-opacity: 0.7; stroke-width: 0.5"/>
    <path d="M 346.731198 396.547967 
L 346.731198 396.484776 
L 346.668007 396.484776 
L 346.668007 396.547967 
L 346.731198 396.547967 
" clip-path="url(#p7e3a3e225f)" style="fill: #ff0000; fill-opacity: 0.7; stroke: #000000; stroke-opacity: 0.7; stroke-width: 0.5"/>
    <path d="M 374.935962 337.078897 
L 374.935962 337.015706 
L 374.872772 337.015706 
L 374.872772 337.078897 
L 374.935962 337.078897 
" clip-path="url(#p7e3a3e225f)" style="fill: #ff0000; fill-opacity: 0.7; stroke: #000000; stroke-opacity: 0.7; stroke-width: 0.5"/>
    <path d="M 383.094429 283.878668 
L 383.094429 283.815477 
L 383.031238 283.815477 
L 383.031238 283.878668 
L 383.094429 283.878668 
" clip-path="url(#p7e3a3e225f)" style="fill: #ff0000; fill-opacity: 0.7; stroke: #000000; stroke-opacity: 0.7; stroke-width: 0.5"/>
    <path d="M 464.897169 446.292722 
L 464.897169 446.229531 
L 464.833978 446.229531 
L 464.833978 446.292722 
L 464.897169 446.292722 
" clip-path="url(#p7e3a3e225f)" style="fill: #ff0000; fill-opacity: 0.7; stroke: #000000; stroke-opacity: 0.7; stroke-width: 0.5"/>
    <path d="M 406.226341 335.162697 
L 406.226341 335.099506 
L 406.16315 335.099506 
L 406.16315 335.162697 
L 406.226341 335.162697 
" clip-path="url(#p7e3a3e225f)" style="fill: #ff0000; fill-opacity: 0.7; stroke: #000000; stroke-opacity: 0.7; stroke-width: 0.5"/>
    <path d="M 433.709181 560.616165 
L 433.709181 560.552975 
L 433.645991 560.552975 
L 433.645991 560.616165 
L 433.709181 560.616165 
" clip-path="url(#p7e3a3e225f)" style="fill: #ff0000; fill-opacity: 0.7; stroke: #000000; stroke-opacity: 0.7; stroke-width: 0.5"/>
    <path d="M 281.678099 149.275465 
L 281.678099 149.212274 
L 281.614908 149.212274 
L 281.614908 149.275465 
L 281.678099 149.275465 
" clip-path="url(#p7e3a3e225f)" style="fill: #ff0000; fill-opacity: 0.7; stroke: #000000; stroke-opacity: 0.7; stroke-width: 0.5"/>
    <path d="M 281.678099 149.275465 
L 281.678099 149.212274 
L 281.614908 149.212274 
L 281.614908 149.275465 
L 281.678099 149.275465 
" clip-path="url(#p7e3a3e225f)" style="fill: #ff0000; fill-opacity: 0.7; stroke: #000000; stroke-opacity: 0.7; stroke-width: 0.5"/>
    <path d="M 281.678099 149.275465 
L 281.678099 149.212274 
L 281.614908 149.212274 
L 281.614908 149.275465 
L 281.678099 149.275465 
" clip-path="url(#p7e3a3e225f)" style="fill: #ff0000; fill-opacity: 0.7; stroke: #000000; stroke-opacity: 0.7; stroke-width: 0.5"/>
    <path d="M 281.678099 149.275465 
L 281.678099 149.212274 
L 281.614908 149.212274 
L 281.614908 149.275465 
L 281.678099 149.275465 
" clip-path="url(#p7e3a3e225f)" style="fill: #ff0000; fill-opacity: 0.7; stroke: #000000; stroke-opacity: 0.7; stroke-width: 0.5"/>
    <path d="M 283.694757 150.801314 
L 283.694757 150.738124 
L 283.631566 150.738124 
L 283.631566 150.801314 
L 283.694757 150.801314 
" clip-path="url(#p7e3a3e225f)" style="fill: #ff0000; fill-opacity: 0.7; stroke: #000000; stroke-opacity: 0.7; stroke-width: 0.5"/>
    <path d="M 220.629265 167.342706 
L 220.629265 167.279516 
L 220.566074 167.279516 
L 220.566074 167.342706 
L 220.629265 167.342706 
" clip-path="url(#p7e3a3e225f)" style="fill: #ff0000; fill-opacity: 0.7; stroke: #000000; stroke-opacity: 0.7; stroke-width: 0.5"/>
    <path d="M 350.215243 370.552189 
L 350.215243 370.488998 
L 350.152052 370.488998 
L 350.152052 370.552189 
L 350.215243 370.552189 
" clip-path="url(#p7e3a3e225f)" style="fill: #ff0000; fill-opacity: 0.7; stroke: #000000; stroke-opacity: 0.7; stroke-width: 0.5"/>
    <path d="M 281.678169 149.275403 
L 281.678169 149.212212 
L 281.614978 149.212212 
L 281.614978 149.275403 
L 281.678169 149.275403 
" clip-path="url(#p7e3a3e225f)" style="fill: #ff0000; fill-opacity: 0.7; stroke: #000000; stroke-opacity: 0.7; stroke-width: 0.5"/>
    <path d="M 345.234654 225.502764 
L 345.234654 225.439573 
L 345.171463 225.439573 
L 345.171463 225.502764 
L 345.234654 225.502764 
" clip-path="url(#p7e3a3e225f)" style="fill: #ff0000; fill-opacity: 0.7; stroke: #000000; stroke-opacity: 0.7; stroke-width: 0.5"/>
    <path d="M 346.731204 396.547904 
L 346.731204 396.484713 
L 346.668013 396.484713 
L 346.668013 396.547904 
L 346.731204 396.547904 
" clip-path="url(#p7e3a3e225f)" style="fill: #ff0000; fill-opacity: 0.7; stroke: #000000; stroke-opacity: 0.7; stroke-width: 0.5"/>
    <path d="M 281.678169 149.275403 
L 281.678169 149.212212 
L 281.614978 149.212212 
L 281.614978 149.275403 
L 281.678169 149.275403 
" clip-path="url(#p7e3a3e225f)" style="fill: #ff0000; fill-opacity: 0.7; stroke: #000000; stroke-opacity: 0.7; stroke-width: 0.5"/>
    <path d="M 288.21076 204.890461 
L 288.21076 204.82727 
L 288.14757 204.82727 
L 288.14757 204.890461 
L 288.21076 204.890461 
" clip-path="url(#p7e3a3e225f)" style="fill: #ff0000; fill-opacity: 0.7; stroke: #000000; stroke-opacity: 0.7; stroke-width: 0.5"/>
    <path d="M 428.645017 514.291366 
L 428.645017 514.228176 
L 428.581826 514.228176 
L 428.581826 514.291366 
L 428.645017 514.291366 
" clip-path="url(#p7e3a3e225f)" style="fill: #ff0000; fill-opacity: 0.7; stroke: #000000; stroke-opacity: 0.7; stroke-width: 0.5"/>
    <path d="M 389.078344 312.365275 
L 389.078344 312.302085 
L 389.015153 312.302085 
L 389.015153 312.365275 
L 389.078344 312.365275 
" clip-path="url(#p7e3a3e225f)" style="fill: #ff0000; fill-opacity: 0.7; stroke: #000000; stroke-opacity: 0.7; stroke-width: 0.5"/>
    <path d="M 273.783127 204.089453 
L 273.783127 204.026262 
L 273.719936 204.026262 
L 273.719936 204.089453 
L 273.783127 204.089453 
" clip-path="url(#p7e3a3e225f)" style="fill: #ff0000; fill-opacity: 0.7; stroke: #000000; stroke-opacity: 0.7; stroke-width: 0.5"/>
    <path d="M 264.765888 145.133689 
L 264.765888 145.070498 
L 264.702697 145.070498 
L 264.702697 145.133689 
L 264.765888 145.133689 
" clip-path="url(#p7e3a3e225f)" style="fill: #ff0000; fill-opacity: 0.7; stroke: #000000; stroke-opacity: 0.7; stroke-width: 0.5"/>
    <path d="M 198.768838 142.486206 
L 198.768838 142.423015 
L 198.705647 142.423015 
L 198.705647 142.486206 
L 198.768838 142.486206 
" clip-path="url(#p7e3a3e225f)" style="fill: #ff0000; fill-opacity: 0.7; stroke: #000000; stroke-opacity: 0.7; stroke-width: 0.5"/>
    <path d="M 283.694757 150.801314 
L 283.694757 150.738124 
L 283.631566 150.738124 
L 283.631566 150.801314 
L 283.694757 150.801314 
" clip-path="url(#p7e3a3e225f)" style="fill: #ff0000; fill-opacity: 0.7; stroke: #000000; stroke-opacity: 0.7; stroke-width: 0.5"/>
    <path d="M 283.694757 150.801314 
L 283.694757 150.738124 
L 283.631566 150.738124 
L 283.631566 150.801314 
L 283.694757 150.801314 
" clip-path="url(#p7e3a3e225f)" style="fill: #ff0000; fill-opacity: 0.7; stroke: #000000; stroke-opacity: 0.7; stroke-width: 0.5"/>
    <path d="M 239.642175 124.380126 
L 239.642175 124.316935 
L 239.578984 124.316935 
L 239.578984 124.380126 
L 239.642175 124.380126 
" clip-path="url(#p7e3a3e225f)" style="fill: #ff0000; fill-opacity: 0.7; stroke: #000000; stroke-opacity: 0.7; stroke-width: 0.5"/>
    <path d="M 210.239513 158.875139 
L 210.239513 158.811948 
L 210.176323 158.811948 
L 210.176323 158.875139 
L 210.239513 158.875139 
" clip-path="url(#p7e3a3e225f)" style="fill: #ff0000; fill-opacity: 0.7; stroke: #000000; stroke-opacity: 0.7; stroke-width: 0.5"/>
    <path d="M 362.477505 389.207022 
L 362.477505 389.143831 
L 362.414314 389.143831 
L 362.414314 389.207022 
L 362.477505 389.207022 
" clip-path="url(#p7e3a3e225f)" style="fill: #ff0000; fill-opacity: 0.7; stroke: #000000; stroke-opacity: 0.7; stroke-width: 0.5"/>
    <path d="M 239.642175 124.380126 
L 239.642175 124.316935 
L 239.578984 124.316935 
L 239.578984 124.380126 
L 239.642175 124.380126 
" clip-path="url(#p7e3a3e225f)" style="fill: #ff0000; fill-opacity: 0.7; stroke: #000000; stroke-opacity: 0.7; stroke-width: 0.5"/>
    <path d="M 342.693573 370.815193 
L 342.693573 370.752003 
L 342.630382 370.752003 
L 342.630382 370.815193 
L 342.693573 370.815193 
" clip-path="url(#p7e3a3e225f)" style="fill: #ff0000; fill-opacity: 0.7; stroke: #000000; stroke-opacity: 0.7; stroke-width: 0.5"/>
    <path d="M 268.098211 131.186429 
L 268.098211 131.123238 
L 268.03502 131.123238 
L 268.03502 131.186429 
L 268.098211 131.186429 
" clip-path="url(#p7e3a3e225f)" style="fill: #ff0000; fill-opacity: 0.7; stroke: #000000; stroke-opacity: 0.7; stroke-width: 0.5"/>
    <path d="M 360.772241 356.904735 
L 360.772241 356.841545 
L 360.709051 356.841545 
L 360.709051 356.904735 
L 360.772241 356.904735 
" clip-path="url(#p7e3a3e225f)" style="fill: #ff0000; fill-opacity: 0.7; stroke: #000000; stroke-opacity: 0.7; stroke-width: 0.5"/>
    <path d="M 235.06085 176.352705 
L 235.06085 176.289514 
L 234.997659 176.289514 
L 234.997659 176.352705 
L 235.06085 176.352705 
" clip-path="url(#p7e3a3e225f)" style="fill: #ff0000; fill-opacity: 0.7; stroke: #000000; stroke-opacity: 0.7; stroke-width: 0.5"/>
    <path d="M 372.344942 337.701797 
L 372.344942 337.638606 
L 372.281751 337.638606 
L 372.281751 337.701797 
L 372.344942 337.701797 
" clip-path="url(#p7e3a3e225f)" style="fill: #ff0000; fill-opacity: 0.7; stroke: #000000; stroke-opacity: 0.7; stroke-width: 0.5"/>
    <path d="M 373.394003 340.608113 
L 373.394003 340.544922 
L 373.330813 340.544922 
L 373.330813 340.608113 
L 373.394003 340.608113 
" clip-path="url(#p7e3a3e225f)" style="fill: #ff0000; fill-opacity: 0.7; stroke: #000000; stroke-opacity: 0.7; stroke-width: 0.5"/>
    <path d="M 235.818021 169.657583 
L 235.818021 169.594392 
L 235.75483 169.594392 
L 235.75483 169.657583 
L 235.818021 169.657583 
" clip-path="url(#p7e3a3e225f)" style="fill: #ff0000; fill-opacity: 0.7; stroke: #000000; stroke-opacity: 0.7; stroke-width: 0.5"/>
    <path d="M 455.471253 478.501332 
L 455.471253 478.438141 
L 455.408063 478.438141 
L 455.408063 478.501332 
L 455.471253 478.501332 
" clip-path="url(#p7e3a3e225f)" style="fill: #ff0000; fill-opacity: 0.7; stroke: #000000; stroke-opacity: 0.7; stroke-width: 0.5"/>
   </g>
   <g id="matplotlib.axis_1">
    <g id="xtick_1">
     <g id="line2d_1">
      <defs>
       <path id="mf15fc64c38" d="M 0 0 
L 0 3.5 
" style="stroke: #000000; stroke-width: 0.8"/>
      </defs>
      <g>
       <use xlink:href="#mf15fc64c38" x="171.869677" y="640.8" style="stroke: #000000; stroke-width: 0.8"/>
      </g>
     </g>
     <g id="text_1">
      <!-- 394000 -->
      <g transform="translate(152.782177 655.398438) scale(0.1 -0.1)">
       <defs>
        <path id="DejaVuSans-33" d="M 2597 2516 
Q 3050 2419 3304 2112 
Q 3559 1806 3559 1356 
Q 3559 666 3084 287 
Q 2609 -91 1734 -91 
Q 1441 -91 1130 -33 
Q 819 25 488 141 
L 488 750 
Q 750 597 1062 519 
Q 1375 441 1716 441 
Q 2309 441 2620 675 
Q 2931 909 2931 1356 
Q 2931 1769 2642 2001 
Q 2353 2234 1838 2234 
L 1294 2234 
L 1294 2753 
L 1863 2753 
Q 2328 2753 2575 2939 
Q 2822 3125 2822 3475 
Q 2822 3834 2567 4026 
Q 2313 4219 1838 4219 
Q 1578 4219 1281 4162 
Q 984 4106 628 3988 
L 628 4550 
Q 988 4650 1302 4700 
Q 1616 4750 1894 4750 
Q 2613 4750 3031 4423 
Q 3450 4097 3450 3541 
Q 3450 3153 3228 2886 
Q 3006 2619 2597 2516 
z
" transform="scale(0.015625)"/>
        <path id="DejaVuSans-39" d="M 703 97 
L 703 672 
Q 941 559 1184 500 
Q 1428 441 1663 441 
Q 2288 441 2617 861 
Q 2947 1281 2994 2138 
Q 2813 1869 2534 1725 
Q 2256 1581 1919 1581 
Q 1219 1581 811 2004 
Q 403 2428 403 3163 
Q 403 3881 828 4315 
Q 1253 4750 1959 4750 
Q 2769 4750 3195 4129 
Q 3622 3509 3622 2328 
Q 3622 1225 3098 567 
Q 2575 -91 1691 -91 
Q 1453 -91 1209 -44 
Q 966 3 703 97 
z
M 1959 2075 
Q 2384 2075 2632 2365 
Q 2881 2656 2881 3163 
Q 2881 3666 2632 3958 
Q 2384 4250 1959 4250 
Q 1534 4250 1286 3958 
Q 1038 3666 1038 3163 
Q 1038 2656 1286 2365 
Q 1534 2075 1959 2075 
z
" transform="scale(0.015625)"/>
        <path id="DejaVuSans-34" d="M 2419 4116 
L 825 1625 
L 2419 1625 
L 2419 4116 
z
M 2253 4666 
L 3047 4666 
L 3047 1625 
L 3713 1625 
L 3713 1100 
L 3047 1100 
L 3047 0 
L 2419 0 
L 2419 1100 
L 313 1100 
L 313 1709 
L 2253 4666 
z
" transform="scale(0.015625)"/>
        <path id="DejaVuSans-30" d="M 2034 4250 
Q 1547 4250 1301 3770 
Q 1056 3291 1056 2328 
Q 1056 1369 1301 889 
Q 1547 409 2034 409 
Q 2525 409 2770 889 
Q 3016 1369 3016 2328 
Q 3016 3291 2770 3770 
Q 2525 4250 2034 4250 
z
M 2034 4750 
Q 2819 4750 3233 4129 
Q 3647 3509 3647 2328 
Q 3647 1150 3233 529 
Q 2819 -91 2034 -91 
Q 1250 -91 836 529 
Q 422 1150 422 2328 
Q 422 3509 836 4129 
Q 1250 4750 2034 4750 
z
" transform="scale(0.015625)"/>
       </defs>
       <use xlink:href="#DejaVuSans-33"/>
       <use xlink:href="#DejaVuSans-39" x="63.623047"/>
       <use xlink:href="#DejaVuSans-34" x="127.246094"/>
       <use xlink:href="#DejaVuSans-30" x="190.869141"/>
       <use xlink:href="#DejaVuSans-30" x="254.492188"/>
       <use xlink:href="#DejaVuSans-30" x="318.115234"/>
      </g>
     </g>
    </g>
    <g id="xtick_2">
     <g id="line2d_2">
      <g>
       <use xlink:href="#mf15fc64c38" x="235.060514" y="640.8" style="stroke: #000000; stroke-width: 0.8"/>
      </g>
     </g>
     <g id="text_2">
      <!-- 395000 -->
      <g transform="translate(215.973014 655.398438) scale(0.1 -0.1)">
       <defs>
        <path id="DejaVuSans-35" d="M 691 4666 
L 3169 4666 
L 3169 4134 
L 1269 4134 
L 1269 2991 
Q 1406 3038 1543 3061 
Q 1681 3084 1819 3084 
Q 2600 3084 3056 2656 
Q 3513 2228 3513 1497 
Q 3513 744 3044 326 
Q 2575 -91 1722 -91 
Q 1428 -91 1123 -41 
Q 819 9 494 109 
L 494 744 
Q 775 591 1075 516 
Q 1375 441 1709 441 
Q 2250 441 2565 725 
Q 2881 1009 2881 1497 
Q 2881 1984 2565 2268 
Q 2250 2553 1709 2553 
Q 1456 2553 1204 2497 
Q 953 2441 691 2322 
L 691 4666 
z
" transform="scale(0.015625)"/>
       </defs>
       <use xlink:href="#DejaVuSans-33"/>
       <use xlink:href="#DejaVuSans-39" x="63.623047"/>
       <use xlink:href="#DejaVuSans-35" x="127.246094"/>
       <use xlink:href="#DejaVuSans-30" x="190.869141"/>
       <use xlink:href="#DejaVuSans-30" x="254.492188"/>
       <use xlink:href="#DejaVuSans-30" x="318.115234"/>
      </g>
     </g>
    </g>
    <g id="xtick_3">
     <g id="line2d_3">
      <g>
       <use xlink:href="#mf15fc64c38" x="298.25135" y="640.8" style="stroke: #000000; stroke-width: 0.8"/>
      </g>
     </g>
     <g id="text_3">
      <!-- 396000 -->
      <g transform="translate(279.16385 655.398438) scale(0.1 -0.1)">
       <defs>
        <path id="DejaVuSans-36" d="M 2113 2584 
Q 1688 2584 1439 2293 
Q 1191 2003 1191 1497 
Q 1191 994 1439 701 
Q 1688 409 2113 409 
Q 2538 409 2786 701 
Q 3034 994 3034 1497 
Q 3034 2003 2786 2293 
Q 2538 2584 2113 2584 
z
M 3366 4563 
L 3366 3988 
Q 3128 4100 2886 4159 
Q 2644 4219 2406 4219 
Q 1781 4219 1451 3797 
Q 1122 3375 1075 2522 
Q 1259 2794 1537 2939 
Q 1816 3084 2150 3084 
Q 2853 3084 3261 2657 
Q 3669 2231 3669 1497 
Q 3669 778 3244 343 
Q 2819 -91 2113 -91 
Q 1303 -91 875 529 
Q 447 1150 447 2328 
Q 447 3434 972 4092 
Q 1497 4750 2381 4750 
Q 2619 4750 2861 4703 
Q 3103 4656 3366 4563 
z
" transform="scale(0.015625)"/>
       </defs>
       <use xlink:href="#DejaVuSans-33"/>
       <use xlink:href="#DejaVuSans-39" x="63.623047"/>
       <use xlink:href="#DejaVuSans-36" x="127.246094"/>
       <use xlink:href="#DejaVuSans-30" x="190.869141"/>
       <use xlink:href="#DejaVuSans-30" x="254.492188"/>
       <use xlink:href="#DejaVuSans-30" x="318.115234"/>
      </g>
     </g>
    </g>
    <g id="xtick_4">
     <g id="line2d_4">
      <g>
       <use xlink:href="#mf15fc64c38" x="361.442186" y="640.8" style="stroke: #000000; stroke-width: 0.8"/>
      </g>
     </g>
     <g id="text_4">
      <!-- 397000 -->
      <g transform="translate(342.354686 655.398438) scale(0.1 -0.1)">
       <defs>
        <path id="DejaVuSans-37" d="M 525 4666 
L 3525 4666 
L 3525 4397 
L 1831 0 
L 1172 0 
L 2766 4134 
L 525 4134 
L 525 4666 
z
" transform="scale(0.015625)"/>
       </defs>
       <use xlink:href="#DejaVuSans-33"/>
       <use xlink:href="#DejaVuSans-39" x="63.623047"/>
       <use xlink:href="#DejaVuSans-37" x="127.246094"/>
       <use xlink:href="#DejaVuSans-30" x="190.869141"/>
       <use xlink:href="#DejaVuSans-30" x="254.492188"/>
       <use xlink:href="#DejaVuSans-30" x="318.115234"/>
      </g>
     </g>
    </g>
    <g id="xtick_5">
     <g id="line2d_5">
      <g>
       <use xlink:href="#mf15fc64c38" x="424.633023" y="640.8" style="stroke: #000000; stroke-width: 0.8"/>
      </g>
     </g>
     <g id="text_5">
      <!-- 398000 -->
      <g transform="translate(405.545523 655.398438) scale(0.1 -0.1)">
       <defs>
        <path id="DejaVuSans-38" d="M 2034 2216 
Q 1584 2216 1326 1975 
Q 1069 1734 1069 1313 
Q 1069 891 1326 650 
Q 1584 409 2034 409 
Q 2484 409 2743 651 
Q 3003 894 3003 1313 
Q 3003 1734 2745 1975 
Q 2488 2216 2034 2216 
z
M 1403 2484 
Q 997 2584 770 2862 
Q 544 3141 544 3541 
Q 544 4100 942 4425 
Q 1341 4750 2034 4750 
Q 2731 4750 3128 4425 
Q 3525 4100 3525 3541 
Q 3525 3141 3298 2862 
Q 3072 2584 2669 2484 
Q 3125 2378 3379 2068 
Q 3634 1759 3634 1313 
Q 3634 634 3220 271 
Q 2806 -91 2034 -91 
Q 1263 -91 848 271 
Q 434 634 434 1313 
Q 434 1759 690 2068 
Q 947 2378 1403 2484 
z
M 1172 3481 
Q 1172 3119 1398 2916 
Q 1625 2713 2034 2713 
Q 2441 2713 2670 2916 
Q 2900 3119 2900 3481 
Q 2900 3844 2670 4047 
Q 2441 4250 2034 4250 
Q 1625 4250 1398 4047 
Q 1172 3844 1172 3481 
z
" transform="scale(0.015625)"/>
       </defs>
       <use xlink:href="#DejaVuSans-33"/>
       <use xlink:href="#DejaVuSans-39" x="63.623047"/>
       <use xlink:href="#DejaVuSans-38" x="127.246094"/>
       <use xlink:href="#DejaVuSans-30" x="190.869141"/>
       <use xlink:href="#DejaVuSans-30" x="254.492188"/>
       <use xlink:href="#DejaVuSans-30" x="318.115234"/>
      </g>
     </g>
    </g>
    <g id="xtick_6">
     <g id="line2d_6">
      <g>
       <use xlink:href="#mf15fc64c38" x="487.823859" y="640.8" style="stroke: #000000; stroke-width: 0.8"/>
      </g>
     </g>
     <g id="text_6">
      <!-- 399000 -->
      <g transform="translate(468.736359 655.398438) scale(0.1 -0.1)">
       <use xlink:href="#DejaVuSans-33"/>
       <use xlink:href="#DejaVuSans-39" x="63.623047"/>
       <use xlink:href="#DejaVuSans-39" x="127.246094"/>
       <use xlink:href="#DejaVuSans-30" x="190.869141"/>
       <use xlink:href="#DejaVuSans-30" x="254.492188"/>
       <use xlink:href="#DejaVuSans-30" x="318.115234"/>
      </g>
     </g>
    </g>
    <g id="xtick_7">
     <g id="line2d_7">
      <g>
       <use xlink:href="#mf15fc64c38" x="551.014695" y="640.8" style="stroke: #000000; stroke-width: 0.8"/>
      </g>
     </g>
     <g id="text_7">
      <!-- 400000 -->
      <g transform="translate(531.927195 655.398438) scale(0.1 -0.1)">
       <use xlink:href="#DejaVuSans-34"/>
       <use xlink:href="#DejaVuSans-30" x="63.623047"/>
       <use xlink:href="#DejaVuSans-30" x="127.246094"/>
       <use xlink:href="#DejaVuSans-30" x="190.869141"/>
       <use xlink:href="#DejaVuSans-30" x="254.492188"/>
       <use xlink:href="#DejaVuSans-30" x="318.115234"/>
      </g>
     </g>
    </g>
   </g>
   <g id="matplotlib.axis_2">
    <g id="ytick_1">
     <g id="line2d_8">
      <defs>
       <path id="me82cec931d" d="M 0 0 
L -3.5 0 
" style="stroke: #000000; stroke-width: 0.8"/>
      </defs>
      <g>
       <use xlink:href="#me82cec931d" x="156.206571" y="586.023537" style="stroke: #000000; stroke-width: 0.8"/>
      </g>
     </g>
     <g id="text_8">
      <!-- 5.810 -->
      <g transform="translate(120.578446 589.822756) scale(0.1 -0.1)">
       <defs>
        <path id="DejaVuSans-2e" d="M 684 794 
L 1344 794 
L 1344 0 
L 684 0 
L 684 794 
z
" transform="scale(0.015625)"/>
        <path id="DejaVuSans-31" d="M 794 531 
L 1825 531 
L 1825 4091 
L 703 3866 
L 703 4441 
L 1819 4666 
L 2450 4666 
L 2450 531 
L 3481 531 
L 3481 0 
L 794 0 
L 794 531 
z
" transform="scale(0.015625)"/>
       </defs>
       <use xlink:href="#DejaVuSans-35"/>
       <use xlink:href="#DejaVuSans-2e" x="63.623047"/>
       <use xlink:href="#DejaVuSans-38" x="95.410156"/>
       <use xlink:href="#DejaVuSans-31" x="159.033203"/>
       <use xlink:href="#DejaVuSans-30" x="222.65625"/>
      </g>
     </g>
    </g>
    <g id="ytick_2">
     <g id="line2d_9">
      <g>
       <use xlink:href="#me82cec931d" x="156.206571" y="522.832701" style="stroke: #000000; stroke-width: 0.8"/>
      </g>
     </g>
     <g id="text_9">
      <!-- 5.811 -->
      <g transform="translate(120.578446 526.631919) scale(0.1 -0.1)">
       <use xlink:href="#DejaVuSans-35"/>
       <use xlink:href="#DejaVuSans-2e" x="63.623047"/>
       <use xlink:href="#DejaVuSans-38" x="95.410156"/>
       <use xlink:href="#DejaVuSans-31" x="159.033203"/>
       <use xlink:href="#DejaVuSans-31" x="222.65625"/>
      </g>
     </g>
    </g>
    <g id="ytick_3">
     <g id="line2d_10">
      <g>
       <use xlink:href="#me82cec931d" x="156.206571" y="459.641864" style="stroke: #000000; stroke-width: 0.8"/>
      </g>
     </g>
     <g id="text_10">
      <!-- 5.812 -->
      <g transform="translate(120.578446 463.441083) scale(0.1 -0.1)">
       <defs>
        <path id="DejaVuSans-32" d="M 1228 531 
L 3431 531 
L 3431 0 
L 469 0 
L 469 531 
Q 828 903 1448 1529 
Q 2069 2156 2228 2338 
Q 2531 2678 2651 2914 
Q 2772 3150 2772 3378 
Q 2772 3750 2511 3984 
Q 2250 4219 1831 4219 
Q 1534 4219 1204 4116 
Q 875 4013 500 3803 
L 500 4441 
Q 881 4594 1212 4672 
Q 1544 4750 1819 4750 
Q 2544 4750 2975 4387 
Q 3406 4025 3406 3419 
Q 3406 3131 3298 2873 
Q 3191 2616 2906 2266 
Q 2828 2175 2409 1742 
Q 1991 1309 1228 531 
z
" transform="scale(0.015625)"/>
       </defs>
       <use xlink:href="#DejaVuSans-35"/>
       <use xlink:href="#DejaVuSans-2e" x="63.623047"/>
       <use xlink:href="#DejaVuSans-38" x="95.410156"/>
       <use xlink:href="#DejaVuSans-31" x="159.033203"/>
       <use xlink:href="#DejaVuSans-32" x="222.65625"/>
      </g>
     </g>
    </g>
    <g id="ytick_4">
     <g id="line2d_11">
      <g>
       <use xlink:href="#me82cec931d" x="156.206571" y="396.451028" style="stroke: #000000; stroke-width: 0.8"/>
      </g>
     </g>
     <g id="text_11">
      <!-- 5.813 -->
      <g transform="translate(120.578446 400.250247) scale(0.1 -0.1)">
       <use xlink:href="#DejaVuSans-35"/>
       <use xlink:href="#DejaVuSans-2e" x="63.623047"/>
       <use xlink:href="#DejaVuSans-38" x="95.410156"/>
       <use xlink:href="#DejaVuSans-31" x="159.033203"/>
       <use xlink:href="#DejaVuSans-33" x="222.65625"/>
      </g>
     </g>
    </g>
    <g id="ytick_5">
     <g id="line2d_12">
      <g>
       <use xlink:href="#me82cec931d" x="156.206571" y="333.260192" style="stroke: #000000; stroke-width: 0.8"/>
      </g>
     </g>
     <g id="text_12">
      <!-- 5.814 -->
      <g transform="translate(120.578446 337.05941) scale(0.1 -0.1)">
       <use xlink:href="#DejaVuSans-35"/>
       <use xlink:href="#DejaVuSans-2e" x="63.623047"/>
       <use xlink:href="#DejaVuSans-38" x="95.410156"/>
       <use xlink:href="#DejaVuSans-31" x="159.033203"/>
       <use xlink:href="#DejaVuSans-34" x="222.65625"/>
      </g>
     </g>
    </g>
    <g id="ytick_6">
     <g id="line2d_13">
      <g>
       <use xlink:href="#me82cec931d" x="156.206571" y="270.069355" style="stroke: #000000; stroke-width: 0.8"/>
      </g>
     </g>
     <g id="text_13">
      <!-- 5.815 -->
      <g transform="translate(120.578446 273.868574) scale(0.1 -0.1)">
       <use xlink:href="#DejaVuSans-35"/>
       <use xlink:href="#DejaVuSans-2e" x="63.623047"/>
       <use xlink:href="#DejaVuSans-38" x="95.410156"/>
       <use xlink:href="#DejaVuSans-31" x="159.033203"/>
       <use xlink:href="#DejaVuSans-35" x="222.65625"/>
      </g>
     </g>
    </g>
    <g id="ytick_7">
     <g id="line2d_14">
      <g>
       <use xlink:href="#me82cec931d" x="156.206571" y="206.878519" style="stroke: #000000; stroke-width: 0.8"/>
      </g>
     </g>
     <g id="text_14">
      <!-- 5.816 -->
      <g transform="translate(120.578446 210.677738) scale(0.1 -0.1)">
       <use xlink:href="#DejaVuSans-35"/>
       <use xlink:href="#DejaVuSans-2e" x="63.623047"/>
       <use xlink:href="#DejaVuSans-38" x="95.410156"/>
       <use xlink:href="#DejaVuSans-31" x="159.033203"/>
       <use xlink:href="#DejaVuSans-36" x="222.65625"/>
      </g>
     </g>
    </g>
    <g id="ytick_8">
     <g id="line2d_15">
      <g>
       <use xlink:href="#me82cec931d" x="156.206571" y="143.687683" style="stroke: #000000; stroke-width: 0.8"/>
      </g>
     </g>
     <g id="text_15">
      <!-- 5.817 -->
      <g transform="translate(120.578446 147.486901) scale(0.1 -0.1)">
       <use xlink:href="#DejaVuSans-35"/>
       <use xlink:href="#DejaVuSans-2e" x="63.623047"/>
       <use xlink:href="#DejaVuSans-38" x="95.410156"/>
       <use xlink:href="#DejaVuSans-31" x="159.033203"/>
       <use xlink:href="#DejaVuSans-37" x="222.65625"/>
      </g>
     </g>
    </g>
    <g id="text_16">
     <!-- 1e6 -->
     <g transform="translate(156.206571 83.4) scale(0.1 -0.1)">
      <defs>
       <path id="DejaVuSans-65" d="M 3597 1894 
L 3597 1613 
L 953 1613 
Q 991 1019 1311 708 
Q 1631 397 2203 397 
Q 2534 397 2845 478 
Q 3156 559 3463 722 
L 3463 178 
Q 3153 47 2828 -22 
Q 2503 -91 2169 -91 
Q 1331 -91 842 396 
Q 353 884 353 1716 
Q 353 2575 817 3079 
Q 1281 3584 2069 3584 
Q 2775 3584 3186 3129 
Q 3597 2675 3597 1894 
z
M 3022 2063 
Q 3016 2534 2758 2815 
Q 2500 3097 2075 3097 
Q 1594 3097 1305 2825 
Q 1016 2553 972 2059 
L 3022 2063 
z
" transform="scale(0.015625)"/>
      </defs>
      <use xlink:href="#DejaVuSans-31"/>
      <use xlink:href="#DejaVuSans-65" x="63.623047"/>
      <use xlink:href="#DejaVuSans-36" x="125.146484"/>
     </g>
    </g>
   </g>
   <g id="patch_3">
    <path d="M 156.206571 640.8 
L 156.206571 86.4 
" style="fill: none; stroke: #000000; stroke-width: 0.8; stroke-linejoin: miter; stroke-linecap: square"/>
   </g>
   <g id="patch_4">
    <path d="M 581.793429 640.8 
L 581.793429 86.4 
" style="fill: none; stroke: #000000; stroke-width: 0.8; stroke-linejoin: miter; stroke-linecap: square"/>
   </g>
   <g id="patch_5">
    <path d="M 156.206571 640.8 
L 581.793429 640.8 
" style="fill: none; stroke: #000000; stroke-width: 0.8; stroke-linejoin: miter; stroke-linecap: square"/>
   </g>
   <g id="patch_6">
    <path d="M 156.206571 86.4 
L 581.793429 86.4 
" style="fill: none; stroke: #000000; stroke-width: 0.8; stroke-linejoin: miter; stroke-linecap: square"/>
   </g>
   <g id="text_17">
    <!-- Treptow-Kpenick_1 -->
    <g transform="translate(318.720656 380.681002) scale(0.12 -0.12)">
     <defs>
      <path id="DejaVuSans-54" d="M -19 4666 
L 3928 4666 
L 3928 4134 
L 2272 4134 
L 2272 0 
L 1638 0 
L 1638 4134 
L -19 4134 
L -19 4666 
z
" transform="scale(0.015625)"/>
      <path id="DejaVuSans-72" d="M 2631 2963 
Q 2534 3019 2420 3045 
Q 2306 3072 2169 3072 
Q 1681 3072 1420 2755 
Q 1159 2438 1159 1844 
L 1159 0 
L 581 0 
L 581 3500 
L 1159 3500 
L 1159 2956 
Q 1341 3275 1631 3429 
Q 1922 3584 2338 3584 
Q 2397 3584 2469 3576 
Q 2541 3569 2628 3553 
L 2631 2963 
z
" transform="scale(0.015625)"/>
      <path id="DejaVuSans-70" d="M 1159 525 
L 1159 -1331 
L 581 -1331 
L 581 3500 
L 1159 3500 
L 1159 2969 
Q 1341 3281 1617 3432 
Q 1894 3584 2278 3584 
Q 2916 3584 3314 3078 
Q 3713 2572 3713 1747 
Q 3713 922 3314 415 
Q 2916 -91 2278 -91 
Q 1894 -91 1617 61 
Q 1341 213 1159 525 
z
M 3116 1747 
Q 3116 2381 2855 2742 
Q 2594 3103 2138 3103 
Q 1681 3103 1420 2742 
Q 1159 2381 1159 1747 
Q 1159 1113 1420 752 
Q 1681 391 2138 391 
Q 2594 391 2855 752 
Q 3116 1113 3116 1747 
z
" transform="scale(0.015625)"/>
      <path id="DejaVuSans-74" d="M 1172 4494 
L 1172 3500 
L 2356 3500 
L 2356 3053 
L 1172 3053 
L 1172 1153 
Q 1172 725 1289 603 
Q 1406 481 1766 481 
L 2356 481 
L 2356 0 
L 1766 0 
Q 1100 0 847 248 
Q 594 497 594 1153 
L 594 3053 
L 172 3053 
L 172 3500 
L 594 3500 
L 594 4494 
L 1172 4494 
z
" transform="scale(0.015625)"/>
      <path id="DejaVuSans-6f" d="M 1959 3097 
Q 1497 3097 1228 2736 
Q 959 2375 959 1747 
Q 959 1119 1226 758 
Q 1494 397 1959 397 
Q 2419 397 2687 759 
Q 2956 1122 2956 1747 
Q 2956 2369 2687 2733 
Q 2419 3097 1959 3097 
z
M 1959 3584 
Q 2709 3584 3137 3096 
Q 3566 2609 3566 1747 
Q 3566 888 3137 398 
Q 2709 -91 1959 -91 
Q 1206 -91 779 398 
Q 353 888 353 1747 
Q 353 2609 779 3096 
Q 1206 3584 1959 3584 
z
" transform="scale(0.015625)"/>
      <path id="DejaVuSans-77" d="M 269 3500 
L 844 3500 
L 1563 769 
L 2278 3500 
L 2956 3500 
L 3675 769 
L 4391 3500 
L 4966 3500 
L 4050 0 
L 3372 0 
L 2619 2869 
L 1863 0 
L 1184 0 
L 269 3500 
z
" transform="scale(0.015625)"/>
      <path id="DejaVuSans-2d" d="M 313 2009 
L 1997 2009 
L 1997 1497 
L 313 1497 
L 313 2009 
z
" transform="scale(0.015625)"/>
      <path id="DejaVuSans-4b" d="M 628 4666 
L 1259 4666 
L 1259 2694 
L 3353 4666 
L 4166 4666 
L 1850 2491 
L 4331 0 
L 3500 0 
L 1259 2247 
L 1259 0 
L 628 0 
L 628 4666 
z
" transform="scale(0.015625)"/>
      <path id="DejaVuSans-f6" d="M 1959 3097 
Q 1497 3097 1228 2736 
Q 959 2375 959 1747 
Q 959 1119 1226 758 
Q 1494 397 1959 397 
Q 2419 397 2687 759 
Q 2956 1122 2956 1747 
Q 2956 2369 2687 2733 
Q 2419 3097 1959 3097 
z
M 1959 3584 
Q 2709 3584 3137 3096 
Q 3566 2609 3566 1747 
Q 3566 888 3137 398 
Q 2709 -91 1959 -91 
Q 1206 -91 779 398 
Q 353 888 353 1747 
Q 353 2609 779 3096 
Q 1206 3584 1959 3584 
z
M 2253 4850 
L 2888 4850 
L 2888 4219 
L 2253 4219 
L 2253 4850 
z
M 1031 4850 
L 1666 4850 
L 1666 4219 
L 1031 4219 
L 1031 4850 
z
" transform="scale(0.015625)"/>
      <path id="DejaVuSans-6e" d="M 3513 2113 
L 3513 0 
L 2938 0 
L 2938 2094 
Q 2938 2591 2744 2837 
Q 2550 3084 2163 3084 
Q 1697 3084 1428 2787 
Q 1159 2491 1159 1978 
L 1159 0 
L 581 0 
L 581 3500 
L 1159 3500 
L 1159 2956 
Q 1366 3272 1645 3428 
Q 1925 3584 2291 3584 
Q 2894 3584 3203 3211 
Q 3513 2838 3513 2113 
z
" transform="scale(0.015625)"/>
      <path id="DejaVuSans-69" d="M 603 3500 
L 1178 3500 
L 1178 0 
L 603 0 
L 603 3500 
z
M 603 4863 
L 1178 4863 
L 1178 4134 
L 603 4134 
L 603 4863 
z
" transform="scale(0.015625)"/>
      <path id="DejaVuSans-63" d="M 3122 3366 
L 3122 2828 
Q 2878 2963 2633 3030 
Q 2388 3097 2138 3097 
Q 1578 3097 1268 2742 
Q 959 2388 959 1747 
Q 959 1106 1268 751 
Q 1578 397 2138 397 
Q 2388 397 2633 464 
Q 2878 531 3122 666 
L 3122 134 
Q 2881 22 2623 -34 
Q 2366 -91 2075 -91 
Q 1284 -91 818 406 
Q 353 903 353 1747 
Q 353 2603 823 3093 
Q 1294 3584 2113 3584 
Q 2378 3584 2631 3529 
Q 2884 3475 3122 3366 
z
" transform="scale(0.015625)"/>
      <path id="DejaVuSans-6b" d="M 581 4863 
L 1159 4863 
L 1159 1991 
L 2875 3500 
L 3609 3500 
L 1753 1863 
L 3688 0 
L 2938 0 
L 1159 1709 
L 1159 0 
L 581 0 
L 581 4863 
z
" transform="scale(0.015625)"/>
      <path id="DejaVuSans-5f" d="M 3263 -1063 
L 3263 -1509 
L -63 -1509 
L -63 -1063 
L 3263 -1063 
z
" transform="scale(0.015625)"/>
     </defs>
     <use xlink:href="#DejaVuSans-54"/>
     <use xlink:href="#DejaVuSans-72" x="46.333984"/>
     <use xlink:href="#DejaVuSans-65" x="85.197266"/>
     <use xlink:href="#DejaVuSans-70" x="146.720703"/>
     <use xlink:href="#DejaVuSans-74" x="210.197266"/>
     <use xlink:href="#DejaVuSans-6f" x="249.40625"/>
     <use xlink:href="#DejaVuSans-77" x="310.587891"/>
     <use xlink:href="#DejaVuSans-2d" x="392.375"/>
     <use xlink:href="#DejaVuSans-4b" x="428.458984"/>
     <use xlink:href="#DejaVuSans-f6" x="489.035156"/>
     <use xlink:href="#DejaVuSans-70" x="550.216797"/>
     <use xlink:href="#DejaVuSans-65" x="613.693359"/>
     <use xlink:href="#DejaVuSans-6e" x="675.216797"/>
     <use xlink:href="#DejaVuSans-69" x="738.595703"/>
     <use xlink:href="#DejaVuSans-63" x="766.378906"/>
     <use xlink:href="#DejaVuSans-6b" x="821.359375"/>
     <use xlink:href="#DejaVuSans-5f" x="879.269531"/>
     <use xlink:href="#DejaVuSans-31" x="929.269531"/>
    </g>
   </g>
  </g>
 </g>
 <defs>
  <clipPath id="p7e3a3e225f">
   <rect x="156.206571" y="86.4" width="425.586858" height="554.4"/>
  </clipPath>
 </defs>
</svg>
