<?xml version="1.0" encoding="utf-8" standalone="no"?>
<!DOCTYPE svg PUBLIC "-//W3C//DTD SVG 1.1//EN"
  "http://www.w3.org/Graphics/SVG/1.1/DTD/svg11.dtd">
<svg xmlns:xlink="http://www.w3.org/1999/xlink" width="720pt" height="720pt" viewBox="0 0 720 720" xmlns="http://www.w3.org/2000/svg" version="1.1">
 <metadata>
  <rdf:RDF xmlns:dc="http://purl.org/dc/elements/1.1/" xmlns:cc="http://creativecommons.org/ns#" xmlns:rdf="http://www.w3.org/1999/02/22-rdf-syntax-ns#">
   <cc:Work>
    <dc:type rdf:resource="http://purl.org/dc/dcmitype/StillImage"/>
    <dc:date>2024-10-15T13:01:16.750691</dc:date>
    <dc:format>image/svg+xml</dc:format>
    <dc:creator>
     <cc:Agent>
      <dc:title>Matplotlib v3.9.2, https://matplotlib.org/</dc:title>
     </cc:Agent>
    </dc:creator>
   </cc:Work>
  </rdf:RDF>
 </metadata>
 <defs>
  <style type="text/css">*{stroke-linejoin: round; stroke-linecap: butt}</style>
 </defs>
 <g id="figure_1">
  <g id="patch_1">
   <path d="M 0 720 
L 720 720 
L 720 0 
L 0 0 
z
" style="fill: #ffffff"/>
  </g>
  <g id="axes_1">
   <g id="patch_2">
    <path d="M 139.202053 640.8 
L 598.797947 640.8 
L 598.797947 86.4 
L 139.202053 86.4 
z
" style="fill: #ffffff"/>
   </g>
   <g id="PatchCollection_1">
    <path d="M 328.957461 502.559473 
L 327.795527 503.459546 
L 327.712792 503.534425 
L 327.682199 503.562216 
L 327.668934 503.574254 
L 327.474791 503.750762 
L 327.410229 503.809419 
L 322.400521 508.363442 
L 322.225699 508.522391 
L 321.437239 509.239083 
L 321.263338 509.397189 
L 318.343513 512.051408 
L 318.171528 512.20775 
L 317.141615 513.144042 
L 316.969784 513.300231 
L 315.032486 515.061327 
L 314.858202 515.219817 
L 314.071352 515.934975 
L 313.89722 516.093234 
L 310.050918 519.58974 
L 309.859611 519.763718 
L 309.074142 520.477649 
L 308.881761 520.652547 
L 307.799785 521.636148 
L 305.088442 524.101974 
L 304.897979 524.274112 
L 304.112739 524.988349 
L 303.919592 525.163094 
L 295.951184 532.40699 
L 295.75888 532.581735 
L 294.974944 533.294286 
L 294.782487 533.469261 
L 293.305706 534.811782 
L 293.062106 535.033299 
L 291.775865 536.202533 
L 291.535102 536.421443 
L 286.870436 540.66186 
L 286.678822 540.836068 
L 285.890899 541.5523 
L 285.715694 541.711402 
L 281.90543 545.175168 
L 281.589831 545.46209 
L 281.658686 545.838952 
L 282.187904 548.737845 
L 283.77993 557.456222 
L 283.826472 557.711477 
L 283.973767 558.517956 
L 284.599444 561.945453 
L 286.649225 573.181029 
L 286.943585 574.796671 
L 287.302582 576.763106 
L 287.758115 579.259679 
L 288.126697 581.285307 
L 288.164191 581.489956 
L 288.452498 583.153276 
L 288.739109 584.80681 
L 288.752987 584.883026 
L 289.858426 590.940129 
L 290.134767 592.455709 
L 290.122652 592.473037 
L 290.110307 592.490213 
L 290.097732 592.507158 
L 290.362188 593.957026 
L 290.485866 594.63515 
L 290.486633 594.638983 
L 290.674106 595.665369 
L 290.791497 596.308068 
L 290.863649 596.70318 
L 291.104336 596.789057 
L 291.750332 597.166994 
L 291.845103 597.224041 
L 292.321875 597.512113 
L 292.570689 597.651817 
L 292.660553 597.685707 
L 292.855387 597.759163 
L 293.36628 597.906918 
L 293.47654 598.115247 
L 293.72359 598.188166 
L 293.741149 598.190006 
L 293.726121 598.334617 
L 293.715079 598.433376 
L 293.443723 600.889234 
L 294.303108 600.980939 
L 294.452703 601.030395 
L 294.576765 601.13153 
L 294.69845 601.279362 
L 295.126609 601.420446 
L 295.301661 601.514604 
L 295.493351 601.537607 
L 295.941906 601.59128 
L 297.207061 601.729297 
L 297.429422 601.775303 
L 298.085003 601.936323 
L 298.276693 601.982328 
L 298.648572 602.078173 
L 298.660073 602.112678 
L 298.725248 602.154849 
L 298.76742 602.170185 
L 298.859431 602.223858 
L 298.943775 602.258362 
L 299.139299 602.277531 
L 299.549516 602.327371 
L 299.898392 602.369542 
L 300.281772 602.415548 
L 300.419789 602.430883 
L 300.711158 602.465388 
L 301.205719 602.480723 
L 302.290685 602.614906 
L 303.674689 602.814264 
L 304.23059 602.89094 
L 304.863168 602.910109 
L 305.231213 602.948447 
L 305.311723 602.956114 
L 305.457408 603.005954 
L 305.507247 603.036624 
L 305.541751 603.05196 
L 305.580089 603.05196 
L 305.618427 603.05196 
L 305.787115 603.055793 
L 305.871458 603.063461 
L 306.135991 603.08263 
L 306.933422 603.197644 
L 307.209456 603.216813 
L 307.366642 603.224481 
L 307.995386 603.347162 
L 308.256084 603.3855 
L 308.486113 603.389334 
L 308.946169 603.400836 
L 309.264375 603.3855 
L 309.44073 603.393168 
L 309.701429 603.362498 
L 310.038803 603.27432 
L 310.372344 603.166974 
L 310.755725 603.048126 
L 311.031759 602.986785 
L 311.158274 602.959948 
L 311.257953 602.948447 
L 311.434308 602.944613 
L 311.629832 602.959948 
L 311.913534 602.986785 
L 312.189567 602.994452 
L 312.91799 603.078796 
L 313.573571 603.140137 
L 314.846394 603.262819 
L 316.997158 603.477512 
L 318.588186 603.653867 
L 319.358781 603.757379 
L 319.872511 603.807219 
L 320.554928 603.853225 
L 320.761953 603.849391 
L 320.880801 603.864726 
L 321.161363 603.900362 
L 321.187505 603.906898 
L 321.202841 603.906898 
L 322.272472 604.06025 
L 323.315267 604.179098 
L 324.898628 604.370788 
L 325.036645 604.386123 
L 325.044312 604.267275 
L 325.385521 604.305613 
L 325.428806 604.310744 
L 325.903084 604.366954 
L 325.891583 604.481968 
L 326.0296 604.497304 
L 326.244293 604.520306 
L 326.892206 604.581647 
L 327.325426 604.60465 
L 328.510071 604.727332 
L 328.820609 604.76567 
L 330.369466 604.953526 
L 332.512562 605.175887 
L 332.738757 605.252563 
L 332.838436 605.31007 
L 332.922779 605.459588 
L 332.957284 605.524763 
L 333.11447 606.065329 
L 333.217982 606.076831 
L 333.589861 607.518341 
L 333.919568 607.53751 
L 334.552146 606.203346 
L 334.571315 606.203346 
L 334.843515 605.731789 
L 334.920191 605.628276 
L 334.9892 605.563101 
L 335.031372 605.536265 
L 335.088879 605.517096 
L 335.18089 605.509428 
L 335.349577 605.517096 
L 335.847972 605.570769 
L 336.438378 605.635943 
L 337.343155 605.74329 
L 338.999359 605.923479 
L 341.069613 606.145839 
L 343.212709 606.375868 
L 344.05998 606.471713 
L 345.045268 606.582893 
L 347.219034 606.828256 
L 349.707173 607.092789 
L 351.482224 607.322817 
L 351.677748 607.34582 
L 352.950571 607.491505 
L 353.061752 607.50684 
L 354.648947 607.679361 
L 356.044451 607.817378 
L 357.259767 607.955395 
L 358.869965 608.108747 
L 359.299351 608.16242 
L 361.246923 608.40395 
L 363.367017 608.641646 
L 365.37593 608.856339 
L 366.917119 609.032694 
L 367.292832 609.074866 
L 369.984163 609.358567 
L 371.981574 609.584762 
L 373.51893 609.749615 
L 374.538722 609.856962 
L 376.923348 610.102325 
L 379.710523 610.416697 
L 382.160324 610.700399 
L 382.313676 610.719568 
L 385.419057 611.056942 
L 387.374297 611.267801 
L 389.720585 611.516999 
L 389.781926 611.524666 
L 391.71033 611.743193 
L 394.064285 612.019227 
L 396.636768 612.333599 
L 397.395861 612.429444 
L 399.588797 612.693977 
L 401.866076 612.935506 
L 404.687756 613.238377 
L 405.01363 613.272881 
L 406.071759 613.380227 
L 408.053836 613.575751 
L 411.23206 613.920794 
L 412.642899 614.062645 
L 413.823711 614.185326 
L 415.261388 614.254335 
L 416.185334 614.292673 
L 416.185334 614.323343 
L 417.059442 614.323343 
L 417.542501 614.346346 
L 418.1937 614.378026 
L 418.251755 614.38085 
L 418.892 614.415355 
L 419.386561 614.507366 
L 419.800612 614.668386 
L 420.586541 614.955921 
L 420.613378 614.967422 
L 421.058099 615.178282 
L 421.28046 615.274127 
L 421.510488 615.35847 
L 421.832528 615.454315 
L 422.296418 615.530992 
L 423.34688 615.6 
L 424.520024 615.580831 
L 425.359627 615.584665 
L 425.97687 615.56933 
L 426.452261 615.550161 
L 426.697625 615.530992 
L 426.862478 615.523324 
L 427.008163 615.523324 
L 427.518059 615.565496 
L 428.131468 615.584665 
L 428.361496 615.592332 
L 431.635564 615.458149 
L 435.31985 615.212786 
L 435.925591 615.159113 
L 437.286592 615.040265 
L 438.337054 614.890746 
L 439.843739 614.70289 
L 441.400263 614.530369 
L 443.194483 614.30034 
L 443.677543 614.227498 
L 444.103095 614.162324 
L 444.267949 614.135487 
L 444.307947 614.12263 
L 444.375295 614.100983 
L 444.547816 614.039642 
L 444.766343 613.939963 
L 444.885191 613.882456 
L 445.092216 613.759774 
L 445.483264 613.529746 
L 445.924152 613.299718 
L 446.15418 613.192371 
L 446.384208 613.10036 
L 446.637239 613.012182 
L 446.798259 612.954675 
L 446.932442 612.90867 
L 447.066626 612.862664 
L 447.239147 612.816658 
L 447.91773 612.701644 
L 449.573933 612.402607 
L 449.650609 612.387272 
L 449.911308 612.341267 
L 451.107455 612.111238 
L 451.440996 612.046064 
L 453.453743 611.701021 
L 455.029436 611.394317 
L 457.705432 610.899756 
L 458.648547 610.723401 
L 459.530322 610.554714 
L 462.562861 610.021815 
L 466.10913 609.324063 
L 466.181972 609.308728 
L 468.919308 608.844837 
L 469.1225 608.78733 
L 469.237514 608.764327 
L 469.375531 608.725989 
L 469.528883 608.64548 
L 469.627412 608.589353 
L 469.702018 608.301741 
L 469.715129 608.251365 
L 469.866948 608.222228 
L 470.64061 608.073629 
L 470.578962 607.954628 
L 473.782726 607.382168 
L 474.04127 607.675527 
L 477.048502 607.142071 
L 477.591373 607.26531 
L 477.59904 607.307482 
L 479.264752 606.960216 
L 495.969019 603.979127 
L 503.226487 602.664899 
L 504.931993 602.357888 
L 505.849575 602.256829 
L 507.97795 602.478422 
L 508.359567 602.406347 
L 509.381352 602.213353 
L 513.443498 601.446132 
L 517.499432 600.69256 
L 521.888294 599.895435 
L 522.933696 599.682889 
L 523.50846 599.438063 
L 524.479869 598.860002 
L 524.954801 598.639021 
L 525.560082 598.433606 
L 534.124723 596.912736 
L 541.804906 595.502356 
L 558.594514 592.419058 
L 560.283458 591.862236 
L 565.51729 590.962519 
L 566.59659 590.797731 
L 567.524917 590.655994 
L 567.146504 589.503066 
L 566.816761 588.552208 
L 567.864345 588.297718 
L 569.239991 587.752781 
L 570.116552 587.309057 
L 570.340676 587.166363 
L 570.567177 587.001202 
L 571.078913 586.573733 
L 571.89237 585.67854 
L 572.0859 585.468294 
L 572.660587 584.752523 
L 572.967905 584.192481 
L 573.665044 582.922418 
L 573.526567 581.506595 
L 573.320768 579.634088 
L 573.040594 576.892918 
L 572.981477 576.921058 
L 572.914615 576.323675 
L 572.832035 574.70604 
L 572.785186 573.471095 
L 572.60147 570.398224 
L 572.54519 569.663054 
L 572.426265 569.645878 
L 572.342918 567.782573 
L 572.260568 566.147226 
L 571.697919 566.459451 
L 571.582675 566.876799 
L 570.578372 567.363308 
L 570.219528 566.727587 
L 571.495494 566.04425 
L 572.11289 565.713622 
L 572.08889 565.642927 
L 571.998949 565.485051 
L 571.94589 565.385679 
L 571.48522 565.384759 
L 569.509277 563.291962 
L 569.179723 562.942932 
L 567.724565 561.401743 
L 567.203781 561.517447 
L 567.154171 561.257285 
L 567.523597 561.188814 
L 566.559012 560.167181 
L 565.67716 558.093554 
L 563.951105 553.575262 
L 563.729281 551.16909 
L 563.757651 548.777947 
L 565.414621 548.735391 
L 565.37751 548.079274 
L 563.795069 548.118916 
L 563.799593 547.975761 
L 563.61718 547.940951 
L 563.531917 547.577046 
L 563.522255 547.086089 
L 563.514588 546.71421 
L 563.512531 546.681297 
L 563.158274 546.66368 
L 563.12354 546.150641 
L 562.885844 545.598573 
L 562.809168 545.207525 
L 562.651982 544.732133 
L 562.648148 544.291246 
L 562.587267 543.387235 
L 562.519486 542.410535 
L 562.674985 542.40118 
L 562.747827 540.430605 
L 562.483295 539.978216 
L 562.41812 539.974383 
L 562.503537 539.051049 
L 562.66172 539.00075 
L 562.822893 538.046132 
L 562.977702 537.07204 
L 563.250899 536.645491 
L 564.283112 534.536898 
L 564.37382 534.546253 
L 565.260962 532.101589 
L 566.268486 530.683542 
L 567.325619 529.467306 
L 567.717971 529.149024 
L 567.978286 528.601173 
L 568.001825 528.162279 
L 568.22802 527.818234 
L 568.546379 527.801595 
L 568.771423 527.518047 
L 572.551324 523.106182 
L 573.430875 522.284828 
L 576.088238 519.423046 
L 576.495695 518.761715 
L 577.118458 518.030762 
L 577.546387 516.640318 
L 577.787073 516.651589 
L 577.907225 516.312604 
L 577.537723 516.037951 
L 577.641235 514.634088 
L 577.678883 513.188514 
L 577.606118 512.728841 
L 577.209779 511.611134 
L 576.72971 510.614115 
L 576.117528 509.609045 
L 575.942477 509.398799 
L 573.752301 507.631569 
L 572.642262 506.735839 
L 572.483849 506.60802 
L 570.912219 505.572969 
L 570.362452 504.786043 
L 570.134264 504.270166 
L 570.041793 503.312942 
L 566.723789 503.248227 
L 566.149255 503.236649 
L 564.962922 503.207282 
L 564.952648 503.116804 
L 564.944673 503.046262 
L 566.110993 503.115271 
L 566.465313 503.134593 
L 566.725399 503.138044 
L 570.031135 503.176612 
L 570.014189 502.967286 
L 569.970484 502.816694 
L 569.526299 501.928248 
L 569.440422 501.514811 
L 569.29029 501.087649 
L 569.36804 501.070857 
L 569.251569 500.42348 
L 568.74267 499.279857 
L 568.659169 499.292508 
L 568.627732 499.193289 
L 568.488182 498.8221 
L 568.136469 498.859135 
L 567.82501 497.907201 
L 567.507495 498.00297 
L 567.123501 497.008251 
L 566.62411 495.714956 
L 566.73207 494.861474 
L 566.203388 494.496496 
L 566.027033 494.129754 
L 564.649394 491.454603 
L 564.523492 491.210006 
L 564.067116 490.324014 
L 563.587967 489.393396 
L 563.3939 489.016687 
L 562.709949 487.688427 
L 562.603523 487.468827 
L 561.751881 485.711641 
L 561.349945 484.69645 
L 560.873327 483.492789 
L 559.030877 479.172245 
L 558.140208 475.996782 
L 557.714426 473.446382 
L 557.31686 473.255228 
L 557.196556 471.892004 
L 557.12678 469.781572 
L 556.920445 467.147442 
L 557.043127 464.946838 
L 557.050794 463.535999 
L 557.234817 462.612052 
L 556.832268 458.678569 
L 556.782428 458.168673 
L 556.03867 457.865802 
L 555.873817 456.899684 
L 555.804808 455.243481 
L 555.747301 453.72146 
L 556.025635 453.5803 
L 556.217709 453.561437 
L 559.8954 453.794763 
L 559.904371 453.14708 
L 559.722726 453.11848 
L 559.765818 453.029305 
L 559.898621 452.735483 
L 559.837433 452.571473 
L 559.795185 452.214775 
L 559.75769 451.934831 
L 560.016088 451.943495 
L 560.268046 451.95193 
L 561.11432 451.95492 
L 561.718911 451.95699 
L 561.890128 451.84811 
L 561.927086 451.804405 
L 561.958984 451.756866 
L 561.985207 451.705953 
L 562.005603 451.65251 
L 562.019788 451.596996 
L 562.027685 451.540333 
L 562.044784 450.221197 
L 562.046011 450.112241 
L 562.048541 450.074209 
L 562.045474 450.036178 
L 562.036733 449.999067 
L 562.022625 449.963642 
L 562.003379 449.930672 
L 561.974932 449.896244 
L 561.940965 449.867337 
L 561.902473 449.844718 
L 561.860685 449.829076 
L 561.816749 449.821025 
L 561.675665 449.513554 
L 561.551143 449.242274 
L 561.602056 447.841632 
L 561.434749 447.82737 
L 560.213069 447.838488 
L 559.97384 447.898219 
L 559.736757 447.965694 
L 559.501975 448.040913 
L 559.269723 448.123723 
L 559.040385 448.214048 
L 558.814037 448.311886 
L 558.591063 448.417009 
L 558.371616 448.529416 
L 556.212111 448.443462 
L 556.191255 449.013012 
L 555.778892 449.006112 
L 555.620172 449.003505 
L 555.84675 448.107851 
L 556.022951 446.432326 
L 556.468056 445.091568 
L 556.98631 443.699207 
L 557.115969 443.791908 
L 557.886564 442.177877 
L 558.166431 441.192589 
L 558.434798 440.375989 
L 558.67303 439.676473 
L 558.791648 439.193414 
L 558.968156 438.233812 
L 559.232382 436.773056 
L 559.690828 435.41727 
L 560.230551 433.820721 
L 560.315738 433.875391 
L 560.853008 432.440935 
L 560.972392 432.122269 
L 561.275646 431.312646 
L 561.8248 429.936617 
L 562.389903 428.52064 
L 562.928783 427.170221 
L 562.954316 427.099449 
L 563.474563 425.653031 
L 563.821292 425.28997 
L 563.98998 424.799243 
L 564.104994 424.446533 
L 564.18167 424.093823 
L 564.227675 423.840792 
L 564.273681 423.465079 
L 564.273681 423.281057 
L 564.281349 423.150707 
L 564.18167 422.575637 
L 563.85963 421.824211 
L 563.414909 421.034448 
L 563.276892 420.827422 
L 563.066033 420.612729 
L 562.813002 420.382701 
L 562.09608 419.918811 
L 561.662861 419.746289 
L 561.505675 419.753957 
L 561.474774 419.818135 
L 559.738904 419.117852 
L 559.318413 418.997011 
L 558.281445 418.724427 
L 557.732521 418.420867 
L 554.546247 416.658927 
L 554.409073 416.540769 
L 553.291213 415.528415 
L 552.424083 414.743099 
L 551.185074 413.734885 
L 551.123733 413.688879 
L 550.901373 413.481854 
L 550.832364 413.451183 
L 550.778691 413.443516 
L 550.725018 413.466519 
L 550.694347 413.512524 
L 550.625339 413.451183 
L 550.648342 413.420513 
L 550.663677 413.359172 
L 550.656009 413.251825 
L 550.617671 413.159814 
L 550.533328 413.083138 
L 550.249626 412.791769 
L 549.024879 411.189622 
L 546.975327 408.494075 
L 546.864837 408.359815 
L 545.640704 406.755215 
L 545.587592 406.664979 
L 545.623145 406.638054 
L 541.563376 399.402669 
L 539.655292 395.520712 
L 538.922652 393.902463 
L 538.767613 393.55213 
L 538.261858 392.409503 
L 538.164249 392.186683 
L 537.978923 391.745565 
L 537.769827 391.245024 
L 537.406689 390.228146 
L 536.575367 388.025702 
L 535.851085 386.303557 
L 535.295797 384.903835 
L 535.269957 384.851926 
L 534.801083 383.818025 
L 533.401591 380.882635 
L 532.429185 379.111341 
L 531.541429 377.999691 
L 530.629674 376.864195 
L 530.142168 376.505658 
L 530.041616 376.455059 
L 530.010975 376.43964 
L 529.682686 376.269757 
L 529.493411 376.163606 
L 529.328558 376.071594 
L 529.15987 375.960414 
L 528.979682 375.837732 
L 528.833997 375.738053 
L 528.715149 375.65371 
L 528.603969 375.561698 
L 528.477453 375.442851 
L 528.331769 375.350839 
L 528.205253 375.285665 
L 528.059569 375.212822 
L 527.894715 375.13998 
L 527.626349 375.051803 
L 527.39632 374.986628 
L 527.235301 374.936788 
L 527.074281 374.86778 
L 526.93243 374.78727 
L 526.782912 374.679924 
L 526.633393 374.603247 
L 526.506878 374.561076 
L 526.38803 374.526571 
L 526.123498 374.426892 
L 525.920306 374.342549 
L 525.774621 374.281208 
L 525.586765 374.204532 
L 525.364404 374.120188 
L 525.011694 374.020509 
L 524.390618 373.855656 
L 523.332488 373.583456 
L 522.435378 373.387932 
L 522.067333 373.338092 
L 521.595775 373.29592 
L 521.078212 373.261416 
L 520.648825 373.223078 
L 520.188769 373.192408 
L 519.724879 373.192408 
L 519.299326 373.230746 
L 518.892943 373.288253 
L 518.390715 373.414768 
L 518.05334 373.583456 
L 517.535777 373.897828 
L 517.294247 374.012842 
L 516.071264 374.465231 
L 515.622708 374.614749 
L 514.990131 374.802605 
L 514.549243 374.982794 
L 514.173531 374.998129 
L 513.475778 375.044135 
L 512.517327 375.097808 
L 511.838744 375.151481 
L 510.914797 375.247327 
L 510.34356 375.293332 
L 509.086073 375.454352 
L 508.51867 375.350839 
L 508.11612 375.258828 
L 507.468207 375.182152 
L 506.686111 375.120811 
L 505.88868 375.113143 
L 504.826716 375.10931 
L 503.891268 375.124645 
L 502.836972 375.086307 
L 501.338645 374.994065 
L 500.806896 374.977963 
L 499.067346 374.919076 
L 498.846442 374.913479 
L 497.912068 374.899294 
L 497.484215 374.912482 
L 496.71362 374.948367 
L 496.294739 374.985938 
L 495.198182 375.13032 
L 495.008344 375.155315 
L 494.896394 375.186505 
L 494.23775 375.370008 
L 493.48249 375.49269 
L 492.212578 375.56922 
L 492.136518 372.910086 
L 492.126781 372.567651 
L 492.090951 371.31455 
L 492.011153 368.523678 
L 492.001952 368.204245 
L 491.933591 365.813206 
L 491.917658 365.255953 
L 491.912063 365.060261 
L 490.730969 364.911774 
L 490.759033 361.656415 
L 490.488673 357.748542 
L 490.251514 355.048777 
L 491.148164 354.854863 
L 490.944896 353.409672 
L 490.9245 353.272115 
L 490.705666 351.797558 
L 491.212955 351.712907 
L 491.555774 351.654173 
L 492.708292 351.456733 
L 493.012619 351.298933 
L 493.281599 351.248864 
L 493.488088 351.157082 
L 493.736902 351.098655 
L 516.390543 346.094698 
L 518.901071 345.290672 
L 519.467017 345.285228 
L 519.885132 345.227951 
L 520.30432 345.179032 
L 520.724428 345.138317 
L 521.145226 345.106036 
L 521.566638 345.082037 
L 521.988357 345.066395 
L 522.410382 345.059111 
L 522.832407 345.060261 
L 523.254355 345.069692 
L 523.675997 345.087481 
L 517.351754 335.203244 
L 517.031861 334.703469 
L 515.122244 331.761638 
L 513.715161 329.57959 
L 512.944873 328.364888 
L 512.483436 327.140907 
L 506.726673 316.047029 
L 506.665409 315.928794 
L 506.430473 315.476175 
L 505.661412 313.994027 
L 504.705952 312.157175 
L 496.359377 296.110328 
L 495.068612 293.62886 
L 484.977503 274.227972 
L 484.889862 274.059514 
L 484.216263 272.764532 
L 483.657064 271.689457 
L 483.557539 271.497996 
L 483.606305 271.292198 
L 483.499648 271.073978 
L 483.186273 270.432736 
L 482.902112 270.214976 
L 482.798215 270.015234 
L 481.711639 267.924508 
L 481.508754 267.534227 
L 481.271058 267.068036 
L 480.546546 265.647535 
L 480.279943 265.124681 
L 479.280547 263.1653 
L 478.089001 260.886334 
L 477.585622 259.923666 
L 477.014999 258.832258 
L 476.70293 258.227215 
L 476.817809 258.167966 
L 476.375273 257.245138 
L 473.082743 250.980281 
L 471.198108 247.26404 
L 470.037679 245.003828 
L 469.788029 244.830395 
L 469.200644 243.462076 
L 468.537791 242.03865 
L 468.304324 241.413142 
L 468.223106 240.828868 
L 468.262678 240.377238 
L 468.41594 239.966108 
L 468.652743 239.617907 
L 468.929951 239.140126 
L 470.194493 237.554002 
L 470.060478 237.456961 
L 469.407812 236.968611 
L 469.660306 236.481104 
L 469.905899 236.611684 
L 470.368946 236.857967 
L 470.736915 236.031016 
L 470.197805 235.785499 
L 470.051737 235.719021 
L 469.955432 235.056386 
L 469.914104 234.772225 
L 469.847856 234.141487 
L 469.483261 233.984071 
L 468.927513 233.744075 
L 468.770097 233.676063 
L 468.261888 234.119251 
L 466.394058 233.505382 
L 465.40716 233.207266 
L 463.374094 232.355931 
L 462.949232 232.13058 
L 461.514853 231.369877 
L 459.365545 230.005886 
L 457.614877 228.545053 
L 457.098464 228.026953 
L 454.467401 226.073553 
L 453.060271 224.935908 
L 452.978428 224.869739 
L 452.474436 224.511432 
L 452.208753 224.277723 
L 451.022114 222.937118 
L 450.591732 222.282688 
L 449.757803 221.662992 
L 448.899337 220.899298 
L 448.11126 220.327448 
L 447.955071 220.227002 
L 446.506737 219.17861 
L 446.378074 219.063136 
L 444.903517 217.95578 
L 444.76412 217.789546 
L 443.439157 216.823274 
L 443.257818 216.704886 
L 441.786251 215.646297 
L 441.642176 215.520854 
L 440.373724 214.55949 
L 440.251042 214.442252 
L 438.05652 212.766944 
L 436.767494 211.782896 
L 436.594283 211.649019 
L 432.357163 208.476623 
L 432.187632 208.356472 
L 430.684704 207.290751 
L 430.499838 207.151814 
L 429.907056 206.706402 
L 425.319909 203.23497 
L 421.217202 200.14523 
L 420.743574 199.795281 
L 419.175625 198.602738 
L 416.739396 196.74986 
L 416.215698 196.351604 
L 415.215842 196.178623 
L 414.3047 195.997438 
L 405.229396 189.089843 
L 402.918762 187.316095 
L 402.825064 187.432566 
L 401.447272 189.14643 
L 401.2164 189.465709 
L 401.055304 189.684236 
L 398.573606 192.731957 
L 397.970242 193.46038 
L 396.279457 195.535924 
L 396.020548 195.853774 
L 396.001583 195.877056 
L 395.75599 196.175096 
L 395.491457 196.496062 
L 392.04157 200.68296 
L 389.782923 203.424053 
L 384.414141 209.942286 
L 380.736756 214.438035 
L 380.589998 214.61738 
L 380.409426 214.838054 
L 376.56412 219.538298 
L 373.726415 223.138393 
L 372.164063 225.065263 
L 366.469561 232.10474 
L 362.676395 236.800614 
L 357.949545 242.622628 
L 357.735696 242.49895 
L 356.989791 243.380265 
L 354.431417 246.402989 
L 354.217184 246.099122 
L 345.853357 234.248987 
L 341.586486 228.173941 
L 338.009547 223.150891 
L 337.481862 222.35438 
L 335.093939 218.749914 
L 330.707914 212.128245 
L 327.974028 208.170762 
L 321.907264 199.823574 
L 319.568643 196.611996 
L 318.462437 195.110449 
L 315.896626 191.831626 
L 314.535089 190.092996 
L 312.174309 187.397679 
L 308.698582 184.15221 
L 308.492937 183.96121 
L 308.156942 183.646608 
L 308.145671 183.635643 
L 307.933968 183.439199 
L 307.831529 183.342971 
L 307.099656 183.996634 
L 305.048111 187.223777 
L 302.843137 190.403918 
L 301.041479 192.994419 
L 299.889727 192.171608 
L 299.843108 192.144005 
L 299.115146 191.711935 
L 296.665192 190.257696 
L 295.872131 189.790586 
L 295.172615 189.378682 
L 289.988545 186.325517 
L 283.368179 182.485732 
L 282.906512 182.22235 
L 282.440705 181.966252 
L 281.970911 181.717515 
L 281.497283 181.476215 
L 281.019821 181.24243 
L 280.538832 181.016235 
L 279.996732 180.782526 
L 279.450568 180.558632 
L 278.900494 180.344476 
L 278.346663 180.140288 
L 277.789228 179.94599 
L 277.228419 179.761738 
L 276.664389 179.587606 
L 276.097293 179.423596 
L 275.527437 179.269707 
L 274.954896 179.126093 
L 274.379826 178.992753 
L 273.802455 178.869765 
L 273.223014 178.757128 
L 272.641656 178.654842 
L 272.146712 178.579393 
L 271.650541 178.512378 
L 271.153373 178.453721 
L 270.655208 178.403574 
L 270.156277 178.361863 
L 269.656733 178.328585 
L 269.156651 178.303819 
L 268.656263 178.287564 
L 268.094994 178.287103 
L 267.533725 178.294541 
L 266.97261 178.309876 
L 266.411801 178.333109 
L 265.851375 178.36424 
L 265.29141 178.403268 
L 264.732058 178.450117 
L 264.173396 178.504864 
L 263.615654 178.567431 
L 263.058756 178.637897 
L 261.29904 179.008625 
L 254.740245 180.42721 
L 254.204649 180.543049 
L 251.899473 181.041615 
L 239.423354 183.813302 
L 238.723455 183.973632 
L 237.141551 184.327415 
L 236.731794 184.421803 
L 236.255865 184.547475 
L 235.632949 183.559121 
L 227.442793 170.744478 
L 227.430832 170.713654 
L 218.481047 156.701714 
L 216.348915 149.83031 
L 213.316299 140.168894 
L 213.27152 140.027197 
L 213.076687 139.410031 
L 210.562325 131.443003 
L 208.345082 124.338044 
L 208.303294 124.203784 
L 207.778063 122.426509 
L 207.396599 121.135821 
L 206.650311 118.643925 
L 206.596868 118.493486 
L 205.377871 118.426778 
L 204.705576 118.38453 
L 204.4688 118.337067 
L 203.489416 118.150514 
L 201.955588 117.892116 
L 201.621817 117.827555 
L 199.866625 117.397018 
L 199.426044 117.262912 
L 197.916292 116.705937 
L 197.176598 116.453442 
L 196.062494 116.137844 
L 195.395183 115.909732 
L 194.810374 115.701557 
L 193.457501 115.158307 
L 190.330497 113.813868 
L 188.572392 113.010687 
L 187.903546 112.622322 
L 186.509345 112.20022 
L 185.701102 112.005463 
L 184.26795 111.936761 
L 182.45134 111.753506 
L 181.601309 111.778732 
L 180.560891 111.985144 
L 180.534438 111.84199 
L 180.315068 111.84705 
L 179.742451 111.6 
L 179.400476 111.682427 
L 175.481024 112.083749 
L 166.542357 112.995275 
L 166.712731 113.699621 
L 167.564833 117.222887 
L 167.860342 118.445104 
L 167.882808 118.537882 
L 169.446004 125.101047 
L 170.096677 128.379563 
L 170.334986 129.998885 
L 170.492172 131.133691 
L 170.728871 132.790048 
L 170.85784 133.670366 
L 170.88322 133.802019 
L 170.908293 134.02415 
L 171.095966 135.454047 
L 171.323417 136.939451 
L 172.538001 145.470645 
L 173.21701 150.240604 
L 173.225674 152.24737 
L 172.99971 155.245251 
L 172.510593 158.036184 
L 170.895001 163.628324 
L 169.438106 168.671156 
L 169.22763 169.595333 
L 168.377752 173.318724 
L 167.376286 177.706436 
L 166.70031 180.667819 
L 166.686815 187.931727 
L 167.168034 192.375973 
L 167.581409 196.193648 
L 167.827231 198.463902 
L 168.080088 200.799137 
L 168.124031 201.20497 
L 169.03295 205.104869 
L 169.526207 206.910897 
L 169.961343 208.502846 
L 170.01563 208.701361 
L 169.966481 208.719763 
L 170.570305 210.453639 
L 170.72266 210.874284 
L 170.91435 211.403272 
L 170.963577 211.405343 
L 171.446252 212.498973 
L 173.057217 211.745554 
L 174.33073 214.42362 
L 173.33049 214.888737 
L 174.544733 217.388914 
L 175.246319 218.849823 
L 175.456258 219.247005 
L 175.989847 220.361645 
L 176.258213 220.89071 
L 176.791112 220.61851 
L 177.21283 221.458113 
L 177.481197 221.32393 
L 177.925918 222.209539 
L 177.856909 222.274714 
L 177.954825 222.470008 
L 178.382141 222.251711 
L 178.631338 222.121361 
L 178.861366 222.420398 
L 179.094461 222.670669 
L 180.022549 223.033193 
L 180.878637 223.366121 
L 181.663723 223.785769 
L 182.754739 224.633873 
L 184.649873 226.107061 
L 185.182925 226.651461 
L 186.372248 228.304521 
L 186.797187 229.077109 
L 187.484051 230.580803 
L 188.241228 231.783084 
L 189.2887 233.970423 
L 189.079846 233.796272 
L 188.902099 233.615106 
L 188.594321 233.326804 
L 188.424867 233.211406 
L 188.250505 233.103753 
L 188.071467 233.003844 
L 187.888134 232.911909 
L 187.700968 232.828256 
L 187.510351 232.753113 
L 187.316437 232.686712 
L 187.119763 232.629358 
L 186.920712 232.580592 
L 186.741137 232.548618 
L 186.560335 232.525462 
L 186.378459 232.511354 
L 186.196047 232.50637 
L 186.013634 232.51028 
L 185.831758 232.523238 
L 185.65065 232.545168 
L 185.470844 232.575915 
L 185.094441 232.59378 
L 184.942546 232.614253 
L 184.791724 232.641933 
L 184.642282 232.676514 
L 184.494681 232.717996 
L 184.34915 232.766378 
L 184.205996 232.821585 
L 184.065525 232.883386 
L 183.928965 232.980075 
L 183.797542 233.083434 
L 183.671793 233.193387 
L 183.551489 233.309475 
L 183.437164 233.431697 
L 183.328898 233.559516 
L 183.227379 233.692549 
L 183.132837 233.830566 
L 181.307793 236.87867 
L 177.987872 242.420587 
L 174.620412 248.087639 
L 174.453872 248.365513 
L 174.402652 248.459595 
L 174.345145 248.428924 
L 174.000103 249.023164 
L 173.660658 249.696303 
L 172.972643 250.809717 
L 172.393739 251.802672 
L 171.845505 252.730452 
L 171.362445 253.570056 
L 171.112021 253.972068 
L 170.518319 254.424457 
L 169.693762 255.785525 
L 168.866639 257.150828 
L 168.793797 257.530375 
L 168.709453 257.630054 
L 167.78934 259.113736 
L 167.05325 260.352055 
L 165.044337 263.618456 
L 162.595226 267.639043 
L 162.105189 268.293703 
L 161.996846 268.357728 
L 161.889576 268.423746 
L 161.78361 268.491604 
L 161.692825 268.556549 
L 161.604801 268.62525 
L 161.568888 268.661882 
L 161.855783 268.977988 
L 161.705783 269.249624 
L 161.35522 269.827071 
L 160.45604 271.210308 
L 160.092775 271.723485 
L 160.133144 271.762828 
L 160.190664 271.818886 
L 160.354521 271.978449 
L 162.522307 274.090875 
L 163.14277 274.601001 
L 163.774044 275.167714 
L 166.291626 277.428048 
L 169.739366 280.523538 
L 170.168599 280.908912 
L 169.946085 281.129049 
L 170.784385 281.781562 
L 170.995244 282.192699 
L 172.228578 283.204517 
L 177.170659 287.435963 
L 182.004702 292.672709 
L 182.4804 293.187973 
L 184.313035 295.119443 
L 187.258777 299.199377 
L 189.53552 302.006182 
L 194.280542 307.602539 
L 194.704868 308.083068 
L 195.45844 308.97297 
L 195.642616 309.19073 
L 195.684635 309.24034 
L 195.719446 309.281515 
L 196.049383 309.698019 
L 196.410911 310.126869 
L 196.713934 310.445074 
L 196.914212 310.683 
L 197.782492 311.7146 
L 198.194703 312.204407 
L 198.869912 313.006822 
L 199.591051 313.863984 
L 200.321391 314.731957 
L 201.048203 315.595713 
L 201.274628 315.864846 
L 201.543684 316.184279 
L 202.317959 317.103625 
L 203.134866 318.06614 
L 204.407919 319.585323 
L 205.159191 320.475916 
L 205.7223 321.144531 
L 206.304885 321.836226 
L 206.901502 322.544713 
L 207.588443 323.360393 
L 208.459627 324.399567 
L 209.184609 325.265257 
L 212.445566 329.159099 
L 213.511287 330.327105 
L 214.193167 331.076077 
L 215.089434 332.058528 
L 215.782432 332.818234 
L 216.464006 333.565366 
L 217.194422 334.365941 
L 217.934883 335.177634 
L 218.377151 335.758609 
L 220.963895 339.156356 
L 222.602463 341.308653 
L 222.671241 341.398901 
L 223.353812 342.154774 
L 224.780983 343.735528 
L 225.102563 344.091688 
L 226.046522 345.134713 
L 227.2761 346.494257 
L 227.762303 347.031833 
L 227.966568 347.257337 
L 227.979296 347.272902 
L 228.572922 347.929326 
L 229.275352 348.705902 
L 229.956082 349.458937 
L 230.851275 350.449132 
L 231.832269 351.534329 
L 231.927961 351.640065 
L 232.255674 352.00259 
L 232.957721 352.779548 
L 233.098805 352.901847 
L 235.072063 354.578216 
L 235.401694 354.8577 
L 235.726954 355.142245 
L 237.039495 356.290776 
L 237.73372 356.898357 
L 238.992818 358.000116 
L 239.165876 358.151551 
L 239.019578 358.32898 
L 237.914752 359.667437 
L 238.73373 360.580419 
L 239.261338 361.168525 
L 242.541464 364.90679 
L 242.574664 364.980169 
L 242.685078 365.095414 
L 244.359377 363.622006 
L 244.480832 363.514046 
L 245.273279 363.016342 
L 245.378019 362.92203 
L 245.850497 362.493104 
L 246.397657 361.99655 
L 246.945891 361.498922 
L 247.42412 361.064935 
L 247.964916 360.573979 
L 248.448206 360.135391 
L 248.750463 359.861044 
L 249.771405 358.934414 
L 250.674112 358.054403 
L 251.043768 357.714344 
L 251.628729 357.176308 
L 251.656648 357.150639 
L 252.914331 358.626774 
L 253.363066 358.28029 
L 253.870201 358.025956 
L 254.360851 357.919529 
L 254.769152 357.898597 
L 255.170551 358.3345 
L 255.804049 358.645422 
L 255.932251 358.795323 
L 255.279738 358.750008 
L 256.671102 360.345714 
L 258.045827 361.930685 
L 258.401911 361.599061 
L 258.661996 361.901855 
L 258.839501 362.023847 
L 259.357601 362.38016 
L 262.357553 365.869305 
L 263.147393 366.527263 
L 265.222632 368.886739 
L 266.8681 370.775654 
L 268.286224 372.462758 
L 267.934281 373.010072 
L 268.909524 374.137747 
L 269.039927 374.286471 
L 270.853493 376.354836 
L 272.221241 377.904843 
L 272.940539 378.704344 
L 274.945849 380.858559 
L 277.523162 383.497366 
L 280.953573 386.829555 
L 282.735678 388.570485 
L 283.97162 389.777827 
L 284.342272 390.139968 
L 284.745742 390.53324 
L 286.79422 392.556338 
L 286.866295 392.630561 
L 288.033459 393.831921 
L 290.78498 396.820602 
L 294.1838 400.833521 
L 294.428024 400.859907 
L 296.395828 401.083408 
L 298.321548 401.304619 
L 299.190978 402.303478 
L 300.888663 403.943426 
L 304.005163 407.520135 
L 305.385409 409.104263 
L 308.922246 413.201986 
L 309.336987 413.69371 
L 310.738473 415.308125 
L 316.637376 422.100195 
L 319.364992 425.241127 
L 321.817936 428.061734 
L 322.354132 428.678286 
L 322.71796 429.099161 
L 323.053724 429.478938 
L 325.759393 432.596664 
L 326.988664 434.001216 
L 329.165345 436.488128 
L 332.255467 440.03708 
L 336.07639 444.471642 
L 339.417013 448.31894 
L 340.42354 449.475676 
L 340.441636 449.45942 
L 342.024383 451.281014 
L 342.591326 451.934371 
L 343.349883 452.808632 
L 343.627067 453.126147 
L 344.033603 453.592031 
L 347.219571 457.242733 
L 347.710835 457.807375 
L 348.928834 459.207481 
L 349.207782 459.52814 
L 349.950083 460.39826 
L 351.050538 461.664949 
L 350.902783 461.792691 
L 350.834772 461.851578 
L 353.387012 464.783518 
L 351.41521 466.468092 
L 349.652196 467.991186 
L 348.248027 469.204354 
L 347.911496 469.494497 
L 339.96241 476.362373 
L 342.18502 478.865464 
L 343.659731 480.526804 
L 345.960703 483.118379 
L 345.841779 483.226109 
L 345.835568 483.348638 
L 345.833498 483.379001 
L 346.681995 484.337836 
L 347.893171 485.154436 
L 348.062088 485.343136 
L 347.129093 486.175455 
L 346.860267 486.415144 
L 331.401756 500.489729 
L 330.10432 501.671077 
L 328.957461 502.559473 
" clip-path="url(#p46dff6e79a)" style="fill: #d3d3d3"/>
   </g>
   <g id="PatchCollection_2">
    <path d="M 547.552811 465.551516 
L 547.552811 465.47484 
L 547.476135 465.47484 
L 547.476135 465.551516 
L 547.552811 465.551516 
" clip-path="url(#p46dff6e79a)" style="fill: #ff0000; fill-opacity: 0.7; stroke: #000000; stroke-opacity: 0.7; stroke-width: 0.5"/>
    <path d="M 288.368319 299.221741 
L 288.368319 299.145065 
L 288.291643 299.145065 
L 288.291643 299.221741 
L 288.368319 299.221741 
" clip-path="url(#p46dff6e79a)" style="fill: #ff0000; fill-opacity: 0.7; stroke: #000000; stroke-opacity: 0.7; stroke-width: 0.5"/>
    <path d="M 514.828283 434.5207 
L 514.828283 434.444024 
L 514.751607 434.444024 
L 514.751607 434.5207 
L 514.828283 434.5207 
" clip-path="url(#p46dff6e79a)" style="fill: #ff0000; fill-opacity: 0.7; stroke: #000000; stroke-opacity: 0.7; stroke-width: 0.5"/>
    <path d="M 317.662993 303.501208 
L 317.662993 303.424532 
L 317.586317 303.424532 
L 317.586317 303.501208 
L 317.662993 303.501208 
" clip-path="url(#p46dff6e79a)" style="fill: #ff0000; fill-opacity: 0.7; stroke: #000000; stroke-opacity: 0.7; stroke-width: 0.5"/>
    <path d="M 463.058362 460.544978 
L 463.058362 460.468302 
L 462.981686 460.468302 
L 462.981686 460.544978 
L 463.058362 460.544978 
" clip-path="url(#p46dff6e79a)" style="fill: #ff0000; fill-opacity: 0.7; stroke: #000000; stroke-opacity: 0.7; stroke-width: 0.5"/>
    <path d="M 444.036139 502.830095 
L 444.036139 502.753418 
L 443.959463 502.753418 
L 443.959463 502.830095 
L 444.036139 502.830095 
" clip-path="url(#p46dff6e79a)" style="fill: #ff0000; fill-opacity: 0.7; stroke: #000000; stroke-opacity: 0.7; stroke-width: 0.5"/>
    <path d="M 551.668651 460.347573 
L 551.668651 460.270897 
L 551.591975 460.270897 
L 551.591975 460.347573 
L 551.668651 460.347573 
" clip-path="url(#p46dff6e79a)" style="fill: #ff0000; fill-opacity: 0.7; stroke: #000000; stroke-opacity: 0.7; stroke-width: 0.5"/>
    <path d="M 445.676163 499.915813 
L 445.676163 499.839137 
L 445.599486 499.839137 
L 445.599486 499.915813 
L 445.676163 499.915813 
" clip-path="url(#p46dff6e79a)" style="fill: #ff0000; fill-opacity: 0.7; stroke: #000000; stroke-opacity: 0.7; stroke-width: 0.5"/>
    <path d="M 458.500331 492.587037 
L 458.500331 492.510361 
L 458.423655 492.510361 
L 458.423655 492.587037 
L 458.500331 492.587037 
" clip-path="url(#p46dff6e79a)" style="fill: #ff0000; fill-opacity: 0.7; stroke: #000000; stroke-opacity: 0.7; stroke-width: 0.5"/>
    <path d="M 449.116781 574.361156 
L 449.116781 574.28448 
L 449.040105 574.28448 
L 449.040105 574.361156 
L 449.116781 574.361156 
" clip-path="url(#p46dff6e79a)" style="fill: #ff0000; fill-opacity: 0.7; stroke: #000000; stroke-opacity: 0.7; stroke-width: 0.5"/>
    <path d="M 303.280382 543.29245 
L 303.280382 543.215774 
L 303.203706 543.215774 
L 303.203706 543.29245 
L 303.280382 543.29245 
" clip-path="url(#p46dff6e79a)" style="fill: #ff0000; fill-opacity: 0.7; stroke: #000000; stroke-opacity: 0.7; stroke-width: 0.5"/>
    <path d="M 262.34276 246.061644 
L 262.34276 245.984968 
L 262.266084 245.984968 
L 262.266084 246.061644 
L 262.34276 246.061644 
" clip-path="url(#p46dff6e79a)" style="fill: #ff0000; fill-opacity: 0.7; stroke: #000000; stroke-opacity: 0.7; stroke-width: 0.5"/>
    <path d="M 399.807464 523.042049 
L 399.807464 522.965373 
L 399.730788 522.965373 
L 399.730788 523.042049 
L 399.807464 523.042049 
" clip-path="url(#p46dff6e79a)" style="fill: #ff0000; fill-opacity: 0.7; stroke: #000000; stroke-opacity: 0.7; stroke-width: 0.5"/>
    <path d="M 374.0686 545.525539 
L 374.0686 545.448863 
L 373.991924 545.448863 
L 373.991924 545.525539 
L 374.0686 545.525539 
" clip-path="url(#p46dff6e79a)" style="fill: #ff0000; fill-opacity: 0.7; stroke: #000000; stroke-opacity: 0.7; stroke-width: 0.5"/>
    <path d="M 374.0686 545.525539 
L 374.0686 545.448863 
L 373.991924 545.448863 
L 373.991924 545.525539 
L 374.0686 545.525539 
" clip-path="url(#p46dff6e79a)" style="fill: #ff0000; fill-opacity: 0.7; stroke: #000000; stroke-opacity: 0.7; stroke-width: 0.5"/>
    <path d="M 281.107994 291.211502 
L 281.107994 291.134826 
L 281.031318 291.134826 
L 281.031318 291.211502 
L 281.107994 291.211502 
" clip-path="url(#p46dff6e79a)" style="fill: #ff0000; fill-opacity: 0.7; stroke: #000000; stroke-opacity: 0.7; stroke-width: 0.5"/>
    <path d="M 198.629421 144.614098 
L 198.629421 144.537421 
L 198.552745 144.537421 
L 198.552745 144.614098 
L 198.629421 144.614098 
" clip-path="url(#p46dff6e79a)" style="fill: #ff0000; fill-opacity: 0.7; stroke: #000000; stroke-opacity: 0.7; stroke-width: 0.5"/>
    <path d="M 240.14629 342.408576 
L 240.14629 342.3319 
L 240.069614 342.3319 
L 240.069614 342.408576 
L 240.14629 342.408576 
" clip-path="url(#p46dff6e79a)" style="fill: #ff0000; fill-opacity: 0.7; stroke: #000000; stroke-opacity: 0.7; stroke-width: 0.5"/>
    <path d="M 234.992096 329.086049 
L 234.992096 329.009373 
L 234.91542 329.009373 
L 234.91542 329.086049 
L 234.992096 329.086049 
" clip-path="url(#p46dff6e79a)" style="fill: #ff0000; fill-opacity: 0.7; stroke: #000000; stroke-opacity: 0.7; stroke-width: 0.5"/>
    <path d="M 278.453037 295.313749 
L 278.453037 295.237073 
L 278.376361 295.237073 
L 278.376361 295.313749 
L 278.453037 295.313749 
" clip-path="url(#p46dff6e79a)" style="fill: #ff0000; fill-opacity: 0.7; stroke: #000000; stroke-opacity: 0.7; stroke-width: 0.5"/>
    <path d="M 407.248695 523.890978 
L 407.248695 523.814302 
L 407.172019 523.814302 
L 407.172019 523.890978 
L 407.248695 523.890978 
" clip-path="url(#p46dff6e79a)" style="fill: #ff0000; fill-opacity: 0.7; stroke: #000000; stroke-opacity: 0.7; stroke-width: 0.5"/>
    <path d="M 435.743846 297.419032 
L 435.743846 297.342355 
L 435.66717 297.342355 
L 435.66717 297.419032 
L 435.743846 297.419032 
" clip-path="url(#p46dff6e79a)" style="fill: #ff0000; fill-opacity: 0.7; stroke: #000000; stroke-opacity: 0.7; stroke-width: 0.5"/>
    <path d="M 353.479359 581.475807 
L 353.479359 581.399131 
L 353.402683 581.399131 
L 353.402683 581.475807 
L 353.479359 581.475807 
" clip-path="url(#p46dff6e79a)" style="fill: #ff0000; fill-opacity: 0.7; stroke: #000000; stroke-opacity: 0.7; stroke-width: 0.5"/>
    <path d="M 383.175614 559.463627 
L 383.175614 559.386951 
L 383.098938 559.386951 
L 383.098938 559.463627 
L 383.175614 559.463627 
" clip-path="url(#p46dff6e79a)" style="fill: #ff0000; fill-opacity: 0.7; stroke: #000000; stroke-opacity: 0.7; stroke-width: 0.5"/>
    <path d="M 267.103293 288.665134 
L 267.103293 288.588458 
L 267.026617 288.588458 
L 267.026617 288.665134 
L 267.103293 288.665134 
" clip-path="url(#p46dff6e79a)" style="fill: #ff0000; fill-opacity: 0.7; stroke: #000000; stroke-opacity: 0.7; stroke-width: 0.5"/>
    <path d="M 265.036358 289.058627 
L 265.036358 288.981951 
L 264.959682 288.981951 
L 264.959682 289.058627 
L 265.036358 289.058627 
" clip-path="url(#p46dff6e79a)" style="fill: #ff0000; fill-opacity: 0.7; stroke: #000000; stroke-opacity: 0.7; stroke-width: 0.5"/>
    <path d="M 266.632038 270.685731 
L 266.632038 270.609055 
L 266.555362 270.609055 
L 266.555362 270.685731 
L 266.632038 270.685731 
" clip-path="url(#p46dff6e79a)" style="fill: #ff0000; fill-opacity: 0.7; stroke: #000000; stroke-opacity: 0.7; stroke-width: 0.5"/>
    <path d="M 374.068607 545.525471 
L 374.068607 545.448795 
L 373.991931 545.448795 
L 373.991931 545.525471 
L 374.068607 545.525471 
" clip-path="url(#p46dff6e79a)" style="fill: #ff0000; fill-opacity: 0.7; stroke: #000000; stroke-opacity: 0.7; stroke-width: 0.5"/>
    <path d="M 240.146375 342.40851 
L 240.146375 342.331834 
L 240.069699 342.331834 
L 240.069699 342.40851 
L 240.146375 342.40851 
" clip-path="url(#p46dff6e79a)" style="fill: #ff0000; fill-opacity: 0.7; stroke: #000000; stroke-opacity: 0.7; stroke-width: 0.5"/>
    <path d="M 314.08789 308.306422 
L 314.08789 308.229746 
L 314.011214 308.229746 
L 314.011214 308.306422 
L 314.08789 308.306422 
" clip-path="url(#p46dff6e79a)" style="fill: #ff0000; fill-opacity: 0.7; stroke: #000000; stroke-opacity: 0.7; stroke-width: 0.5"/>
    <path d="M 418.132037 515.64416 
L 418.132037 515.567484 
L 418.055361 515.567484 
L 418.055361 515.64416 
L 418.132037 515.64416 
" clip-path="url(#p46dff6e79a)" style="fill: #ff0000; fill-opacity: 0.7; stroke: #000000; stroke-opacity: 0.7; stroke-width: 0.5"/>
    <path d="M 398.048851 543.555515 
L 398.048851 543.478839 
L 397.972175 543.478839 
L 397.972175 543.555515 
L 398.048851 543.555515 
" clip-path="url(#p46dff6e79a)" style="fill: #ff0000; fill-opacity: 0.7; stroke: #000000; stroke-opacity: 0.7; stroke-width: 0.5"/>
    <path d="M 255.578852 292.833948 
L 255.578852 292.757272 
L 255.502176 292.757272 
L 255.502176 292.833948 
L 255.578852 292.833948 
" clip-path="url(#p46dff6e79a)" style="fill: #ff0000; fill-opacity: 0.7; stroke: #000000; stroke-opacity: 0.7; stroke-width: 0.5"/>
    <path d="M 252.007753 342.961042 
L 252.007753 342.884366 
L 251.931077 342.884366 
L 251.931077 342.961042 
L 252.007753 342.961042 
" clip-path="url(#p46dff6e79a)" style="fill: #ff0000; fill-opacity: 0.7; stroke: #000000; stroke-opacity: 0.7; stroke-width: 0.5"/>
    <path d="M 262.611111 266.522804 
L 262.611111 266.446128 
L 262.534435 266.446128 
L 262.534435 266.522804 
L 262.611111 266.522804 
" clip-path="url(#p46dff6e79a)" style="fill: #ff0000; fill-opacity: 0.7; stroke: #000000; stroke-opacity: 0.7; stroke-width: 0.5"/>
    <path d="M 290.868433 303.808628 
L 290.868433 303.731952 
L 290.791757 303.731952 
L 290.791757 303.808628 
L 290.868433 303.808628 
" clip-path="url(#p46dff6e79a)" style="fill: #ff0000; fill-opacity: 0.7; stroke: #000000; stroke-opacity: 0.7; stroke-width: 0.5"/>
    <path d="M 327.584674 323.114489 
L 327.584674 323.037813 
L 327.507998 323.037813 
L 327.507998 323.114489 
L 327.584674 323.114489 
" clip-path="url(#p46dff6e79a)" style="fill: #ff0000; fill-opacity: 0.7; stroke: #000000; stroke-opacity: 0.7; stroke-width: 0.5"/>
    <path d="M 264.121762 280.348119 
L 264.121762 280.271443 
L 264.045086 280.271443 
L 264.045086 280.348119 
L 264.121762 280.348119 
" clip-path="url(#p46dff6e79a)" style="fill: #ff0000; fill-opacity: 0.7; stroke: #000000; stroke-opacity: 0.7; stroke-width: 0.5"/>
    <path d="M 276.524185 359.802184 
L 276.524185 359.725508 
L 276.447509 359.725508 
L 276.447509 359.802184 
L 276.524185 359.802184 
" clip-path="url(#p46dff6e79a)" style="fill: #ff0000; fill-opacity: 0.7; stroke: #000000; stroke-opacity: 0.7; stroke-width: 0.5"/>
    <path d="M 266.613386 283.866628 
L 266.613386 283.789952 
L 266.53671 283.789952 
L 266.53671 283.866628 
L 266.613386 283.866628 
" clip-path="url(#p46dff6e79a)" style="fill: #ff0000; fill-opacity: 0.7; stroke: #000000; stroke-opacity: 0.7; stroke-width: 0.5"/>
    <path d="M 421.507929 513.690335 
L 421.507929 513.613659 
L 421.431253 513.613659 
L 421.431253 513.690335 
L 421.507929 513.690335 
" clip-path="url(#p46dff6e79a)" style="fill: #ff0000; fill-opacity: 0.7; stroke: #000000; stroke-opacity: 0.7; stroke-width: 0.5"/>
    <path d="M 288.368319 299.221741 
L 288.368319 299.145065 
L 288.291643 299.145065 
L 288.291643 299.221741 
L 288.368319 299.221741 
" clip-path="url(#p46dff6e79a)" style="fill: #ff0000; fill-opacity: 0.7; stroke: #000000; stroke-opacity: 0.7; stroke-width: 0.5"/>
    <path d="M 295.324318 301.900442 
L 295.324318 301.823766 
L 295.247642 301.823766 
L 295.247642 301.900442 
L 295.324318 301.900442 
" clip-path="url(#p46dff6e79a)" style="fill: #ff0000; fill-opacity: 0.7; stroke: #000000; stroke-opacity: 0.7; stroke-width: 0.5"/>
    <path d="M 334.686649 329.981055 
L 334.686649 329.904379 
L 334.609973 329.904379 
L 334.609973 329.981055 
L 334.686649 329.981055 
" clip-path="url(#p46dff6e79a)" style="fill: #ff0000; fill-opacity: 0.7; stroke: #000000; stroke-opacity: 0.7; stroke-width: 0.5"/>
    <path d="M 380.248603 315.03701 
L 380.248603 314.960334 
L 380.171927 314.960334 
L 380.171927 315.03701 
L 380.248603 315.03701 
" clip-path="url(#p46dff6e79a)" style="fill: #ff0000; fill-opacity: 0.7; stroke: #000000; stroke-opacity: 0.7; stroke-width: 0.5"/>
    <path d="M 245.249357 338.733984 
L 245.249357 338.657308 
L 245.172681 338.657308 
L 245.172681 338.733984 
L 245.249357 338.733984 
" clip-path="url(#p46dff6e79a)" style="fill: #ff0000; fill-opacity: 0.7; stroke: #000000; stroke-opacity: 0.7; stroke-width: 0.5"/>
    <path d="M 300.76228 306.47772 
L 300.76228 306.401044 
L 300.685604 306.401044 
L 300.685604 306.47772 
L 300.76228 306.47772 
" clip-path="url(#p46dff6e79a)" style="fill: #ff0000; fill-opacity: 0.7; stroke: #000000; stroke-opacity: 0.7; stroke-width: 0.5"/>
    <path d="M 417.78847 515.689417 
L 417.78847 515.612741 
L 417.711793 515.612741 
L 417.711793 515.689417 
L 417.78847 515.689417 
" clip-path="url(#p46dff6e79a)" style="fill: #ff0000; fill-opacity: 0.7; stroke: #000000; stroke-opacity: 0.7; stroke-width: 0.5"/>
    <path d="M 321.570037 272.21684 
L 321.570037 272.140163 
L 321.49336 272.140163 
L 321.49336 272.21684 
L 321.570037 272.21684 
" clip-path="url(#p46dff6e79a)" style="fill: #ff0000; fill-opacity: 0.7; stroke: #000000; stroke-opacity: 0.7; stroke-width: 0.5"/>
    <path d="M 262.028754 261.253577 
L 262.028754 261.1769 
L 261.952078 261.1769 
L 261.952078 261.253577 
L 262.028754 261.253577 
" clip-path="url(#p46dff6e79a)" style="fill: #ff0000; fill-opacity: 0.7; stroke: #000000; stroke-opacity: 0.7; stroke-width: 0.5"/>
    <path d="M 290.868433 303.808628 
L 290.868433 303.731952 
L 290.791757 303.731952 
L 290.791757 303.808628 
L 290.868433 303.808628 
" clip-path="url(#p46dff6e79a)" style="fill: #ff0000; fill-opacity: 0.7; stroke: #000000; stroke-opacity: 0.7; stroke-width: 0.5"/>
    <path d="M 264.676928 285.795399 
L 264.676928 285.718723 
L 264.600252 285.718723 
L 264.600252 285.795399 
L 264.676928 285.795399 
" clip-path="url(#p46dff6e79a)" style="fill: #ff0000; fill-opacity: 0.7; stroke: #000000; stroke-opacity: 0.7; stroke-width: 0.5"/>
    <path d="M 254.604799 335.020122 
L 254.604799 334.943446 
L 254.528123 334.943446 
L 254.528123 335.020122 
L 254.604799 335.020122 
" clip-path="url(#p46dff6e79a)" style="fill: #ff0000; fill-opacity: 0.7; stroke: #000000; stroke-opacity: 0.7; stroke-width: 0.5"/>
    <path d="M 321.089698 582.562731 
L 321.089698 582.486055 
L 321.013022 582.486055 
L 321.013022 582.562731 
L 321.089698 582.562731 
" clip-path="url(#p46dff6e79a)" style="fill: #ff0000; fill-opacity: 0.7; stroke: #000000; stroke-opacity: 0.7; stroke-width: 0.5"/>
    <path d="M 264.422556 283.161726 
L 264.422556 283.085049 
L 264.34588 283.085049 
L 264.34588 283.161726 
L 264.422556 283.161726 
" clip-path="url(#p46dff6e79a)" style="fill: #ff0000; fill-opacity: 0.7; stroke: #000000; stroke-opacity: 0.7; stroke-width: 0.5"/>
    <path d="M 240.146375 342.408493 
L 240.146375 342.331817 
L 240.069699 342.331817 
L 240.069699 342.408493 
L 240.146375 342.408493 
" clip-path="url(#p46dff6e79a)" style="fill: #ff0000; fill-opacity: 0.7; stroke: #000000; stroke-opacity: 0.7; stroke-width: 0.5"/>
    <path d="M 404.148021 540.714132 
L 404.148021 540.637456 
L 404.071345 540.637456 
L 404.071345 540.714132 
L 404.148021 540.714132 
" clip-path="url(#p46dff6e79a)" style="fill: #ff0000; fill-opacity: 0.7; stroke: #000000; stroke-opacity: 0.7; stroke-width: 0.5"/>
    <path d="M 374.068607 545.525454 
L 374.068607 545.448777 
L 373.991931 545.448777 
L 373.991931 545.525454 
L 374.068607 545.525454 
" clip-path="url(#p46dff6e79a)" style="fill: #ff0000; fill-opacity: 0.7; stroke: #000000; stroke-opacity: 0.7; stroke-width: 0.5"/>
    <path d="M 393.287106 580.495909 
L 393.287106 580.419233 
L 393.21043 580.419233 
L 393.21043 580.495909 
L 393.287106 580.495909 
" clip-path="url(#p46dff6e79a)" style="fill: #ff0000; fill-opacity: 0.7; stroke: #000000; stroke-opacity: 0.7; stroke-width: 0.5"/>
    <path d="M 384.738434 534.607787 
L 384.738434 534.531111 
L 384.661758 534.531111 
L 384.661758 534.607787 
L 384.738434 534.607787 
" clip-path="url(#p46dff6e79a)" style="fill: #ff0000; fill-opacity: 0.7; stroke: #000000; stroke-opacity: 0.7; stroke-width: 0.5"/>
    <path d="M 245.249357 338.733984 
L 245.249357 338.657308 
L 245.172681 338.657308 
L 245.172681 338.733984 
L 245.249357 338.733984 
" clip-path="url(#p46dff6e79a)" style="fill: #ff0000; fill-opacity: 0.7; stroke: #000000; stroke-opacity: 0.7; stroke-width: 0.5"/>
    <path d="M 278.453122 295.313683 
L 278.453122 295.237007 
L 278.376446 295.237007 
L 278.376446 295.313683 
L 278.453122 295.313683 
" clip-path="url(#p46dff6e79a)" style="fill: #ff0000; fill-opacity: 0.7; stroke: #000000; stroke-opacity: 0.7; stroke-width: 0.5"/>
    <path d="M 444.936363 502.300686 
L 444.936363 502.22401 
L 444.859687 502.22401 
L 444.859687 502.300686 
L 444.936363 502.300686 
" clip-path="url(#p46dff6e79a)" style="fill: #ff0000; fill-opacity: 0.7; stroke: #000000; stroke-opacity: 0.7; stroke-width: 0.5"/>
    <path d="M 255.578852 292.833939 
L 255.578852 292.757263 
L 255.502176 292.757263 
L 255.502176 292.833939 
L 255.578852 292.833939 
" clip-path="url(#p46dff6e79a)" style="fill: #ff0000; fill-opacity: 0.7; stroke: #000000; stroke-opacity: 0.7; stroke-width: 0.5"/>
    <path d="M 431.656887 509.872897 
L 431.656887 509.796221 
L 431.580211 509.796221 
L 431.580211 509.872897 
L 431.656887 509.872897 
" clip-path="url(#p46dff6e79a)" style="fill: #ff0000; fill-opacity: 0.7; stroke: #000000; stroke-opacity: 0.7; stroke-width: 0.5"/>
   </g>
   <g id="matplotlib.axis_1">
    <g id="xtick_1">
     <g id="line2d_1">
      <defs>
       <path id="mfb9071ab1f" d="M 0 0 
L 0 3.5 
" style="stroke: #000000; stroke-width: 0.8"/>
      </defs>
      <g>
       <use xlink:href="#mfb9071ab1f" x="186.160929" y="640.8" style="stroke: #000000; stroke-width: 0.8"/>
      </g>
     </g>
     <g id="text_1">
      <!-- 398000 -->
      <g transform="translate(167.073429 655.398438) scale(0.1 -0.1)">
       <defs>
        <path id="DejaVuSans-33" d="M 2597 2516 
Q 3050 2419 3304 2112 
Q 3559 1806 3559 1356 
Q 3559 666 3084 287 
Q 2609 -91 1734 -91 
Q 1441 -91 1130 -33 
Q 819 25 488 141 
L 488 750 
Q 750 597 1062 519 
Q 1375 441 1716 441 
Q 2309 441 2620 675 
Q 2931 909 2931 1356 
Q 2931 1769 2642 2001 
Q 2353 2234 1838 2234 
L 1294 2234 
L 1294 2753 
L 1863 2753 
Q 2328 2753 2575 2939 
Q 2822 3125 2822 3475 
Q 2822 3834 2567 4026 
Q 2313 4219 1838 4219 
Q 1578 4219 1281 4162 
Q 984 4106 628 3988 
L 628 4550 
Q 988 4650 1302 4700 
Q 1616 4750 1894 4750 
Q 2613 4750 3031 4423 
Q 3450 4097 3450 3541 
Q 3450 3153 3228 2886 
Q 3006 2619 2597 2516 
z
" transform="scale(0.015625)"/>
        <path id="DejaVuSans-39" d="M 703 97 
L 703 672 
Q 941 559 1184 500 
Q 1428 441 1663 441 
Q 2288 441 2617 861 
Q 2947 1281 2994 2138 
Q 2813 1869 2534 1725 
Q 2256 1581 1919 1581 
Q 1219 1581 811 2004 
Q 403 2428 403 3163 
Q 403 3881 828 4315 
Q 1253 4750 1959 4750 
Q 2769 4750 3195 4129 
Q 3622 3509 3622 2328 
Q 3622 1225 3098 567 
Q 2575 -91 1691 -91 
Q 1453 -91 1209 -44 
Q 966 3 703 97 
z
M 1959 2075 
Q 2384 2075 2632 2365 
Q 2881 2656 2881 3163 
Q 2881 3666 2632 3958 
Q 2384 4250 1959 4250 
Q 1534 4250 1286 3958 
Q 1038 3666 1038 3163 
Q 1038 2656 1286 2365 
Q 1534 2075 1959 2075 
z
" transform="scale(0.015625)"/>
        <path id="DejaVuSans-38" d="M 2034 2216 
Q 1584 2216 1326 1975 
Q 1069 1734 1069 1313 
Q 1069 891 1326 650 
Q 1584 409 2034 409 
Q 2484 409 2743 651 
Q 3003 894 3003 1313 
Q 3003 1734 2745 1975 
Q 2488 2216 2034 2216 
z
M 1403 2484 
Q 997 2584 770 2862 
Q 544 3141 544 3541 
Q 544 4100 942 4425 
Q 1341 4750 2034 4750 
Q 2731 4750 3128 4425 
Q 3525 4100 3525 3541 
Q 3525 3141 3298 2862 
Q 3072 2584 2669 2484 
Q 3125 2378 3379 2068 
Q 3634 1759 3634 1313 
Q 3634 634 3220 271 
Q 2806 -91 2034 -91 
Q 1263 -91 848 271 
Q 434 634 434 1313 
Q 434 1759 690 2068 
Q 947 2378 1403 2484 
z
M 1172 3481 
Q 1172 3119 1398 2916 
Q 1625 2713 2034 2713 
Q 2441 2713 2670 2916 
Q 2900 3119 2900 3481 
Q 2900 3844 2670 4047 
Q 2441 4250 2034 4250 
Q 1625 4250 1398 4047 
Q 1172 3844 1172 3481 
z
" transform="scale(0.015625)"/>
        <path id="DejaVuSans-30" d="M 2034 4250 
Q 1547 4250 1301 3770 
Q 1056 3291 1056 2328 
Q 1056 1369 1301 889 
Q 1547 409 2034 409 
Q 2525 409 2770 889 
Q 3016 1369 3016 2328 
Q 3016 3291 2770 3770 
Q 2525 4250 2034 4250 
z
M 2034 4750 
Q 2819 4750 3233 4129 
Q 3647 3509 3647 2328 
Q 3647 1150 3233 529 
Q 2819 -91 2034 -91 
Q 1250 -91 836 529 
Q 422 1150 422 2328 
Q 422 3509 836 4129 
Q 1250 4750 2034 4750 
z
" transform="scale(0.015625)"/>
       </defs>
       <use xlink:href="#DejaVuSans-33"/>
       <use xlink:href="#DejaVuSans-39" x="63.623047"/>
       <use xlink:href="#DejaVuSans-38" x="127.246094"/>
       <use xlink:href="#DejaVuSans-30" x="190.869141"/>
       <use xlink:href="#DejaVuSans-30" x="254.492188"/>
       <use xlink:href="#DejaVuSans-30" x="318.115234"/>
      </g>
     </g>
    </g>
    <g id="xtick_2">
     <g id="line2d_2">
      <g>
       <use xlink:href="#mfb9071ab1f" x="262.837009" y="640.8" style="stroke: #000000; stroke-width: 0.8"/>
      </g>
     </g>
     <g id="text_2">
      <!-- 399000 -->
      <g transform="translate(243.749509 655.398438) scale(0.1 -0.1)">
       <use xlink:href="#DejaVuSans-33"/>
       <use xlink:href="#DejaVuSans-39" x="63.623047"/>
       <use xlink:href="#DejaVuSans-39" x="127.246094"/>
       <use xlink:href="#DejaVuSans-30" x="190.869141"/>
       <use xlink:href="#DejaVuSans-30" x="254.492188"/>
       <use xlink:href="#DejaVuSans-30" x="318.115234"/>
      </g>
     </g>
    </g>
    <g id="xtick_3">
     <g id="line2d_3">
      <g>
       <use xlink:href="#mfb9071ab1f" x="339.513088" y="640.8" style="stroke: #000000; stroke-width: 0.8"/>
      </g>
     </g>
     <g id="text_3">
      <!-- 400000 -->
      <g transform="translate(320.425588 655.398438) scale(0.1 -0.1)">
       <defs>
        <path id="DejaVuSans-34" d="M 2419 4116 
L 825 1625 
L 2419 1625 
L 2419 4116 
z
M 2253 4666 
L 3047 4666 
L 3047 1625 
L 3713 1625 
L 3713 1100 
L 3047 1100 
L 3047 0 
L 2419 0 
L 2419 1100 
L 313 1100 
L 313 1709 
L 2253 4666 
z
" transform="scale(0.015625)"/>
       </defs>
       <use xlink:href="#DejaVuSans-34"/>
       <use xlink:href="#DejaVuSans-30" x="63.623047"/>
       <use xlink:href="#DejaVuSans-30" x="127.246094"/>
       <use xlink:href="#DejaVuSans-30" x="190.869141"/>
       <use xlink:href="#DejaVuSans-30" x="254.492188"/>
       <use xlink:href="#DejaVuSans-30" x="318.115234"/>
      </g>
     </g>
    </g>
    <g id="xtick_4">
     <g id="line2d_4">
      <g>
       <use xlink:href="#mfb9071ab1f" x="416.189168" y="640.8" style="stroke: #000000; stroke-width: 0.8"/>
      </g>
     </g>
     <g id="text_4">
      <!-- 401000 -->
      <g transform="translate(397.101668 655.398438) scale(0.1 -0.1)">
       <defs>
        <path id="DejaVuSans-31" d="M 794 531 
L 1825 531 
L 1825 4091 
L 703 3866 
L 703 4441 
L 1819 4666 
L 2450 4666 
L 2450 531 
L 3481 531 
L 3481 0 
L 794 0 
L 794 531 
z
" transform="scale(0.015625)"/>
       </defs>
       <use xlink:href="#DejaVuSans-34"/>
       <use xlink:href="#DejaVuSans-30" x="63.623047"/>
       <use xlink:href="#DejaVuSans-31" x="127.246094"/>
       <use xlink:href="#DejaVuSans-30" x="190.869141"/>
       <use xlink:href="#DejaVuSans-30" x="254.492188"/>
       <use xlink:href="#DejaVuSans-30" x="318.115234"/>
      </g>
     </g>
    </g>
    <g id="xtick_5">
     <g id="line2d_5">
      <g>
       <use xlink:href="#mfb9071ab1f" x="492.865248" y="640.8" style="stroke: #000000; stroke-width: 0.8"/>
      </g>
     </g>
     <g id="text_5">
      <!-- 402000 -->
      <g transform="translate(473.777748 655.398438) scale(0.1 -0.1)">
       <defs>
        <path id="DejaVuSans-32" d="M 1228 531 
L 3431 531 
L 3431 0 
L 469 0 
L 469 531 
Q 828 903 1448 1529 
Q 2069 2156 2228 2338 
Q 2531 2678 2651 2914 
Q 2772 3150 2772 3378 
Q 2772 3750 2511 3984 
Q 2250 4219 1831 4219 
Q 1534 4219 1204 4116 
Q 875 4013 500 3803 
L 500 4441 
Q 881 4594 1212 4672 
Q 1544 4750 1819 4750 
Q 2544 4750 2975 4387 
Q 3406 4025 3406 3419 
Q 3406 3131 3298 2873 
Q 3191 2616 2906 2266 
Q 2828 2175 2409 1742 
Q 1991 1309 1228 531 
z
" transform="scale(0.015625)"/>
       </defs>
       <use xlink:href="#DejaVuSans-34"/>
       <use xlink:href="#DejaVuSans-30" x="63.623047"/>
       <use xlink:href="#DejaVuSans-32" x="127.246094"/>
       <use xlink:href="#DejaVuSans-30" x="190.869141"/>
       <use xlink:href="#DejaVuSans-30" x="254.492188"/>
       <use xlink:href="#DejaVuSans-30" x="318.115234"/>
      </g>
     </g>
    </g>
    <g id="xtick_6">
     <g id="line2d_6">
      <g>
       <use xlink:href="#mfb9071ab1f" x="569.541328" y="640.8" style="stroke: #000000; stroke-width: 0.8"/>
      </g>
     </g>
     <g id="text_6">
      <!-- 403000 -->
      <g transform="translate(550.453828 655.398438) scale(0.1 -0.1)">
       <use xlink:href="#DejaVuSans-34"/>
       <use xlink:href="#DejaVuSans-30" x="63.623047"/>
       <use xlink:href="#DejaVuSans-33" x="127.246094"/>
       <use xlink:href="#DejaVuSans-30" x="190.869141"/>
       <use xlink:href="#DejaVuSans-30" x="254.492188"/>
       <use xlink:href="#DejaVuSans-30" x="318.115234"/>
      </g>
     </g>
    </g>
   </g>
   <g id="matplotlib.axis_2">
    <g id="ytick_1">
     <g id="line2d_7">
      <defs>
       <path id="m7662119b4b" d="M 0 0 
L -3.5 0 
" style="stroke: #000000; stroke-width: 0.8"/>
      </defs>
      <g>
       <use xlink:href="#m7662119b4b" x="139.202053" y="637.49103" style="stroke: #000000; stroke-width: 0.8"/>
      </g>
     </g>
     <g id="text_7">
      <!-- 5.809 -->
      <g transform="translate(103.573928 641.290249) scale(0.1 -0.1)">
       <defs>
        <path id="DejaVuSans-35" d="M 691 4666 
L 3169 4666 
L 3169 4134 
L 1269 4134 
L 1269 2991 
Q 1406 3038 1543 3061 
Q 1681 3084 1819 3084 
Q 2600 3084 3056 2656 
Q 3513 2228 3513 1497 
Q 3513 744 3044 326 
Q 2575 -91 1722 -91 
Q 1428 -91 1123 -41 
Q 819 9 494 109 
L 494 744 
Q 775 591 1075 516 
Q 1375 441 1709 441 
Q 2250 441 2565 725 
Q 2881 1009 2881 1497 
Q 2881 1984 2565 2268 
Q 2250 2553 1709 2553 
Q 1456 2553 1204 2497 
Q 953 2441 691 2322 
L 691 4666 
z
" transform="scale(0.015625)"/>
        <path id="DejaVuSans-2e" d="M 684 794 
L 1344 794 
L 1344 0 
L 684 0 
L 684 794 
z
" transform="scale(0.015625)"/>
       </defs>
       <use xlink:href="#DejaVuSans-35"/>
       <use xlink:href="#DejaVuSans-2e" x="63.623047"/>
       <use xlink:href="#DejaVuSans-38" x="95.410156"/>
       <use xlink:href="#DejaVuSans-30" x="159.033203"/>
       <use xlink:href="#DejaVuSans-39" x="222.65625"/>
      </g>
     </g>
    </g>
    <g id="ytick_2">
     <g id="line2d_8">
      <g>
       <use xlink:href="#m7662119b4b" x="139.202053" y="560.814951" style="stroke: #000000; stroke-width: 0.8"/>
      </g>
     </g>
     <g id="text_8">
      <!-- 5.810 -->
      <g transform="translate(103.573928 564.614169) scale(0.1 -0.1)">
       <use xlink:href="#DejaVuSans-35"/>
       <use xlink:href="#DejaVuSans-2e" x="63.623047"/>
       <use xlink:href="#DejaVuSans-38" x="95.410156"/>
       <use xlink:href="#DejaVuSans-31" x="159.033203"/>
       <use xlink:href="#DejaVuSans-30" x="222.65625"/>
      </g>
     </g>
    </g>
    <g id="ytick_3">
     <g id="line2d_9">
      <g>
       <use xlink:href="#m7662119b4b" x="139.202053" y="484.138871" style="stroke: #000000; stroke-width: 0.8"/>
      </g>
     </g>
     <g id="text_9">
      <!-- 5.811 -->
      <g transform="translate(103.573928 487.938089) scale(0.1 -0.1)">
       <use xlink:href="#DejaVuSans-35"/>
       <use xlink:href="#DejaVuSans-2e" x="63.623047"/>
       <use xlink:href="#DejaVuSans-38" x="95.410156"/>
       <use xlink:href="#DejaVuSans-31" x="159.033203"/>
       <use xlink:href="#DejaVuSans-31" x="222.65625"/>
      </g>
     </g>
    </g>
    <g id="ytick_4">
     <g id="line2d_10">
      <g>
       <use xlink:href="#m7662119b4b" x="139.202053" y="407.462791" style="stroke: #000000; stroke-width: 0.8"/>
      </g>
     </g>
     <g id="text_10">
      <!-- 5.812 -->
      <g transform="translate(103.573928 411.26201) scale(0.1 -0.1)">
       <use xlink:href="#DejaVuSans-35"/>
       <use xlink:href="#DejaVuSans-2e" x="63.623047"/>
       <use xlink:href="#DejaVuSans-38" x="95.410156"/>
       <use xlink:href="#DejaVuSans-31" x="159.033203"/>
       <use xlink:href="#DejaVuSans-32" x="222.65625"/>
      </g>
     </g>
    </g>
    <g id="ytick_5">
     <g id="line2d_11">
      <g>
       <use xlink:href="#m7662119b4b" x="139.202053" y="330.786711" style="stroke: #000000; stroke-width: 0.8"/>
      </g>
     </g>
     <g id="text_11">
      <!-- 5.813 -->
      <g transform="translate(103.573928 334.58593) scale(0.1 -0.1)">
       <use xlink:href="#DejaVuSans-35"/>
       <use xlink:href="#DejaVuSans-2e" x="63.623047"/>
       <use xlink:href="#DejaVuSans-38" x="95.410156"/>
       <use xlink:href="#DejaVuSans-31" x="159.033203"/>
       <use xlink:href="#DejaVuSans-33" x="222.65625"/>
      </g>
     </g>
    </g>
    <g id="ytick_6">
     <g id="line2d_12">
      <g>
       <use xlink:href="#m7662119b4b" x="139.202053" y="254.110631" style="stroke: #000000; stroke-width: 0.8"/>
      </g>
     </g>
     <g id="text_12">
      <!-- 5.814 -->
      <g transform="translate(103.573928 257.90985) scale(0.1 -0.1)">
       <use xlink:href="#DejaVuSans-35"/>
       <use xlink:href="#DejaVuSans-2e" x="63.623047"/>
       <use xlink:href="#DejaVuSans-38" x="95.410156"/>
       <use xlink:href="#DejaVuSans-31" x="159.033203"/>
       <use xlink:href="#DejaVuSans-34" x="222.65625"/>
      </g>
     </g>
    </g>
    <g id="ytick_7">
     <g id="line2d_13">
      <g>
       <use xlink:href="#m7662119b4b" x="139.202053" y="177.434552" style="stroke: #000000; stroke-width: 0.8"/>
      </g>
     </g>
     <g id="text_13">
      <!-- 5.815 -->
      <g transform="translate(103.573928 181.23377) scale(0.1 -0.1)">
       <use xlink:href="#DejaVuSans-35"/>
       <use xlink:href="#DejaVuSans-2e" x="63.623047"/>
       <use xlink:href="#DejaVuSans-38" x="95.410156"/>
       <use xlink:href="#DejaVuSans-31" x="159.033203"/>
       <use xlink:href="#DejaVuSans-35" x="222.65625"/>
      </g>
     </g>
    </g>
    <g id="ytick_8">
     <g id="line2d_14">
      <g>
       <use xlink:href="#m7662119b4b" x="139.202053" y="100.758472" style="stroke: #000000; stroke-width: 0.8"/>
      </g>
     </g>
     <g id="text_14">
      <!-- 5.816 -->
      <g transform="translate(103.573928 104.557691) scale(0.1 -0.1)">
       <defs>
        <path id="DejaVuSans-36" d="M 2113 2584 
Q 1688 2584 1439 2293 
Q 1191 2003 1191 1497 
Q 1191 994 1439 701 
Q 1688 409 2113 409 
Q 2538 409 2786 701 
Q 3034 994 3034 1497 
Q 3034 2003 2786 2293 
Q 2538 2584 2113 2584 
z
M 3366 4563 
L 3366 3988 
Q 3128 4100 2886 4159 
Q 2644 4219 2406 4219 
Q 1781 4219 1451 3797 
Q 1122 3375 1075 2522 
Q 1259 2794 1537 2939 
Q 1816 3084 2150 3084 
Q 2853 3084 3261 2657 
Q 3669 2231 3669 1497 
Q 3669 778 3244 343 
Q 2819 -91 2113 -91 
Q 1303 -91 875 529 
Q 447 1150 447 2328 
Q 447 3434 972 4092 
Q 1497 4750 2381 4750 
Q 2619 4750 2861 4703 
Q 3103 4656 3366 4563 
z
" transform="scale(0.015625)"/>
       </defs>
       <use xlink:href="#DejaVuSans-35"/>
       <use xlink:href="#DejaVuSans-2e" x="63.623047"/>
       <use xlink:href="#DejaVuSans-38" x="95.410156"/>
       <use xlink:href="#DejaVuSans-31" x="159.033203"/>
       <use xlink:href="#DejaVuSans-36" x="222.65625"/>
      </g>
     </g>
    </g>
    <g id="text_15">
     <!-- 1e6 -->
     <g transform="translate(139.202053 83.4) scale(0.1 -0.1)">
      <defs>
       <path id="DejaVuSans-65" d="M 3597 1894 
L 3597 1613 
L 953 1613 
Q 991 1019 1311 708 
Q 1631 397 2203 397 
Q 2534 397 2845 478 
Q 3156 559 3463 722 
L 3463 178 
Q 3153 47 2828 -22 
Q 2503 -91 2169 -91 
Q 1331 -91 842 396 
Q 353 884 353 1716 
Q 353 2575 817 3079 
Q 1281 3584 2069 3584 
Q 2775 3584 3186 3129 
Q 3597 2675 3597 1894 
z
M 3022 2063 
Q 3016 2534 2758 2815 
Q 2500 3097 2075 3097 
Q 1594 3097 1305 2825 
Q 1016 2553 972 2059 
L 3022 2063 
z
" transform="scale(0.015625)"/>
      </defs>
      <use xlink:href="#DejaVuSans-31"/>
      <use xlink:href="#DejaVuSans-65" x="63.623047"/>
      <use xlink:href="#DejaVuSans-36" x="125.146484"/>
     </g>
    </g>
   </g>
   <g id="patch_3">
    <path d="M 139.202053 640.8 
L 139.202053 86.4 
" style="fill: none; stroke: #000000; stroke-width: 0.8; stroke-linejoin: miter; stroke-linecap: square"/>
   </g>
   <g id="patch_4">
    <path d="M 598.797947 640.8 
L 598.797947 86.4 
" style="fill: none; stroke: #000000; stroke-width: 0.8; stroke-linejoin: miter; stroke-linecap: square"/>
   </g>
   <g id="patch_5">
    <path d="M 139.202053 640.8 
L 598.797947 640.8 
" style="fill: none; stroke: #000000; stroke-width: 0.8; stroke-linejoin: miter; stroke-linecap: square"/>
   </g>
   <g id="patch_6">
    <path d="M 139.202053 86.4 
L 598.797947 86.4 
" style="fill: none; stroke: #000000; stroke-width: 0.8; stroke-linejoin: miter; stroke-linecap: square"/>
   </g>
   <g id="text_16">
    <!-- Treptow-Kpenick_2 -->
    <g transform="translate(321.373311 391.714619) scale(0.12 -0.12)">
     <defs>
      <path id="DejaVuSans-54" d="M -19 4666 
L 3928 4666 
L 3928 4134 
L 2272 4134 
L 2272 0 
L 1638 0 
L 1638 4134 
L -19 4134 
L -19 4666 
z
" transform="scale(0.015625)"/>
      <path id="DejaVuSans-72" d="M 2631 2963 
Q 2534 3019 2420 3045 
Q 2306 3072 2169 3072 
Q 1681 3072 1420 2755 
Q 1159 2438 1159 1844 
L 1159 0 
L 581 0 
L 581 3500 
L 1159 3500 
L 1159 2956 
Q 1341 3275 1631 3429 
Q 1922 3584 2338 3584 
Q 2397 3584 2469 3576 
Q 2541 3569 2628 3553 
L 2631 2963 
z
" transform="scale(0.015625)"/>
      <path id="DejaVuSans-70" d="M 1159 525 
L 1159 -1331 
L 581 -1331 
L 581 3500 
L 1159 3500 
L 1159 2969 
Q 1341 3281 1617 3432 
Q 1894 3584 2278 3584 
Q 2916 3584 3314 3078 
Q 3713 2572 3713 1747 
Q 3713 922 3314 415 
Q 2916 -91 2278 -91 
Q 1894 -91 1617 61 
Q 1341 213 1159 525 
z
M 3116 1747 
Q 3116 2381 2855 2742 
Q 2594 3103 2138 3103 
Q 1681 3103 1420 2742 
Q 1159 2381 1159 1747 
Q 1159 1113 1420 752 
Q 1681 391 2138 391 
Q 2594 391 2855 752 
Q 3116 1113 3116 1747 
z
" transform="scale(0.015625)"/>
      <path id="DejaVuSans-74" d="M 1172 4494 
L 1172 3500 
L 2356 3500 
L 2356 3053 
L 1172 3053 
L 1172 1153 
Q 1172 725 1289 603 
Q 1406 481 1766 481 
L 2356 481 
L 2356 0 
L 1766 0 
Q 1100 0 847 248 
Q 594 497 594 1153 
L 594 3053 
L 172 3053 
L 172 3500 
L 594 3500 
L 594 4494 
L 1172 4494 
z
" transform="scale(0.015625)"/>
      <path id="DejaVuSans-6f" d="M 1959 3097 
Q 1497 3097 1228 2736 
Q 959 2375 959 1747 
Q 959 1119 1226 758 
Q 1494 397 1959 397 
Q 2419 397 2687 759 
Q 2956 1122 2956 1747 
Q 2956 2369 2687 2733 
Q 2419 3097 1959 3097 
z
M 1959 3584 
Q 2709 3584 3137 3096 
Q 3566 2609 3566 1747 
Q 3566 888 3137 398 
Q 2709 -91 1959 -91 
Q 1206 -91 779 398 
Q 353 888 353 1747 
Q 353 2609 779 3096 
Q 1206 3584 1959 3584 
z
" transform="scale(0.015625)"/>
      <path id="DejaVuSans-77" d="M 269 3500 
L 844 3500 
L 1563 769 
L 2278 3500 
L 2956 3500 
L 3675 769 
L 4391 3500 
L 4966 3500 
L 4050 0 
L 3372 0 
L 2619 2869 
L 1863 0 
L 1184 0 
L 269 3500 
z
" transform="scale(0.015625)"/>
      <path id="DejaVuSans-2d" d="M 313 2009 
L 1997 2009 
L 1997 1497 
L 313 1497 
L 313 2009 
z
" transform="scale(0.015625)"/>
      <path id="DejaVuSans-4b" d="M 628 4666 
L 1259 4666 
L 1259 2694 
L 3353 4666 
L 4166 4666 
L 1850 2491 
L 4331 0 
L 3500 0 
L 1259 2247 
L 1259 0 
L 628 0 
L 628 4666 
z
" transform="scale(0.015625)"/>
      <path id="DejaVuSans-f6" d="M 1959 3097 
Q 1497 3097 1228 2736 
Q 959 2375 959 1747 
Q 959 1119 1226 758 
Q 1494 397 1959 397 
Q 2419 397 2687 759 
Q 2956 1122 2956 1747 
Q 2956 2369 2687 2733 
Q 2419 3097 1959 3097 
z
M 1959 3584 
Q 2709 3584 3137 3096 
Q 3566 2609 3566 1747 
Q 3566 888 3137 398 
Q 2709 -91 1959 -91 
Q 1206 -91 779 398 
Q 353 888 353 1747 
Q 353 2609 779 3096 
Q 1206 3584 1959 3584 
z
M 2253 4850 
L 2888 4850 
L 2888 4219 
L 2253 4219 
L 2253 4850 
z
M 1031 4850 
L 1666 4850 
L 1666 4219 
L 1031 4219 
L 1031 4850 
z
" transform="scale(0.015625)"/>
      <path id="DejaVuSans-6e" d="M 3513 2113 
L 3513 0 
L 2938 0 
L 2938 2094 
Q 2938 2591 2744 2837 
Q 2550 3084 2163 3084 
Q 1697 3084 1428 2787 
Q 1159 2491 1159 1978 
L 1159 0 
L 581 0 
L 581 3500 
L 1159 3500 
L 1159 2956 
Q 1366 3272 1645 3428 
Q 1925 3584 2291 3584 
Q 2894 3584 3203 3211 
Q 3513 2838 3513 2113 
z
" transform="scale(0.015625)"/>
      <path id="DejaVuSans-69" d="M 603 3500 
L 1178 3500 
L 1178 0 
L 603 0 
L 603 3500 
z
M 603 4863 
L 1178 4863 
L 1178 4134 
L 603 4134 
L 603 4863 
z
" transform="scale(0.015625)"/>
      <path id="DejaVuSans-63" d="M 3122 3366 
L 3122 2828 
Q 2878 2963 2633 3030 
Q 2388 3097 2138 3097 
Q 1578 3097 1268 2742 
Q 959 2388 959 1747 
Q 959 1106 1268 751 
Q 1578 397 2138 397 
Q 2388 397 2633 464 
Q 2878 531 3122 666 
L 3122 134 
Q 2881 22 2623 -34 
Q 2366 -91 2075 -91 
Q 1284 -91 818 406 
Q 353 903 353 1747 
Q 353 2603 823 3093 
Q 1294 3584 2113 3584 
Q 2378 3584 2631 3529 
Q 2884 3475 3122 3366 
z
" transform="scale(0.015625)"/>
      <path id="DejaVuSans-6b" d="M 581 4863 
L 1159 4863 
L 1159 1991 
L 2875 3500 
L 3609 3500 
L 1753 1863 
L 3688 0 
L 2938 0 
L 1159 1709 
L 1159 0 
L 581 0 
L 581 4863 
z
" transform="scale(0.015625)"/>
      <path id="DejaVuSans-5f" d="M 3263 -1063 
L 3263 -1509 
L -63 -1509 
L -63 -1063 
L 3263 -1063 
z
" transform="scale(0.015625)"/>
     </defs>
     <use xlink:href="#DejaVuSans-54"/>
     <use xlink:href="#DejaVuSans-72" x="46.333984"/>
     <use xlink:href="#DejaVuSans-65" x="85.197266"/>
     <use xlink:href="#DejaVuSans-70" x="146.720703"/>
     <use xlink:href="#DejaVuSans-74" x="210.197266"/>
     <use xlink:href="#DejaVuSans-6f" x="249.40625"/>
     <use xlink:href="#DejaVuSans-77" x="310.587891"/>
     <use xlink:href="#DejaVuSans-2d" x="392.375"/>
     <use xlink:href="#DejaVuSans-4b" x="428.458984"/>
     <use xlink:href="#DejaVuSans-f6" x="489.035156"/>
     <use xlink:href="#DejaVuSans-70" x="550.216797"/>
     <use xlink:href="#DejaVuSans-65" x="613.693359"/>
     <use xlink:href="#DejaVuSans-6e" x="675.216797"/>
     <use xlink:href="#DejaVuSans-69" x="738.595703"/>
     <use xlink:href="#DejaVuSans-63" x="766.378906"/>
     <use xlink:href="#DejaVuSans-6b" x="821.359375"/>
     <use xlink:href="#DejaVuSans-5f" x="879.269531"/>
     <use xlink:href="#DejaVuSans-32" x="929.269531"/>
    </g>
   </g>
  </g>
 </g>
 <defs>
  <clipPath id="p46dff6e79a">
   <rect x="139.202053" y="86.4" width="459.595894" height="554.4"/>
  </clipPath>
 </defs>
</svg>
