<?xml version="1.0" encoding="utf-8" standalone="no"?>
<!DOCTYPE svg PUBLIC "-//W3C//DTD SVG 1.1//EN"
  "http://www.w3.org/Graphics/SVG/1.1/DTD/svg11.dtd">
<svg xmlns:xlink="http://www.w3.org/1999/xlink" width="720pt" height="720pt" viewBox="0 0 720 720" xmlns="http://www.w3.org/2000/svg" version="1.1">
 <metadata>
  <rdf:RDF xmlns:dc="http://purl.org/dc/elements/1.1/" xmlns:cc="http://creativecommons.org/ns#" xmlns:rdf="http://www.w3.org/1999/02/22-rdf-syntax-ns#">
   <cc:Work>
    <dc:type rdf:resource="http://purl.org/dc/dcmitype/StillImage"/>
    <dc:date>2024-10-15T13:01:12.214314</dc:date>
    <dc:format>image/svg+xml</dc:format>
    <dc:creator>
     <cc:Agent>
      <dc:title>Matplotlib v3.9.2, https://matplotlib.org/</dc:title>
     </cc:Agent>
    </dc:creator>
   </cc:Work>
  </rdf:RDF>
 </metadata>
 <defs>
  <style type="text/css">*{stroke-linejoin: round; stroke-linecap: butt}</style>
 </defs>
 <g id="figure_1">
  <g id="patch_1">
   <path d="M 0 720 
L 720 720 
L 720 0 
L 0 0 
z
" style="fill: #ffffff"/>
  </g>
  <g id="axes_1">
   <g id="patch_2">
    <path d="M 90 589.366074 
L 648 589.366074 
L 648 137.833926 
L 90 137.833926 
z
" style="fill: #ffffff"/>
   </g>
   <g id="PatchCollection_1">
    <path d="M 303.470509 541.491422 
L 303.554364 541.504997 
L 303.846303 541.537804 
L 304.398788 541.600095 
L 304.703029 541.634386 
L 304.834186 541.650295 
L 305.155962 541.688829 
L 305.325158 541.70905 
L 305.950538 541.782866 
L 306.393643 541.835187 
L 306.648816 541.864742 
L 306.89713 541.893518 
L 313.816692 542.701882 
L 325.15903 544.015783 
L 336.518762 545.416933 
L 348.682474 546.97632 
L 348.886385 547.00241 
L 351.864386 547.384214 
L 352.319511 547.442545 
L 353.238457 547.571369 
L 355.946154 547.951971 
L 363.032579 548.5601 
L 366.197947 549.007659 
L 373.555877 549.982957 
L 385.778274 551.624007 
L 393.790785 552.65212 
L 396.021511 552.938332 
L 396.385992 552.99836 
L 399.929841 553.581672 
L 401.095333 553.861096 
L 403.323655 554.394066 
L 404.739582 554.478204 
L 405.201565 554.505921 
L 406.079998 554.558737 
L 407.858003 554.740164 
L 410.70414 555.030406 
L 410.784314 555.038104 
L 410.787359 555.038396 
L 411.023795 555.06194 
L 411.059076 555.065476 
L 411.08453 555.069577 
L 411.736142 555.176199 
L 411.958437 555.212541 
L 412.082664 555.223429 
L 413.209269 555.29979 
L 417.489434 555.656848 
L 418.600484 555.717795 
L 422.669384 555.94115 
L 430.414562 556.882792 
L 431.148121 556.972375 
L 432.766263 557.17063 
L 433.65516 557.272303 
L 438.483485 557.911132 
L 438.521323 557.916138 
L 438.694125 557.939188 
L 442.451148 559.325066 
L 464.782231 567.562418 
L 468.250779 568.841885 
L 473.644893 566.327352 
L 485.299674 560.894139 
L 497.778869 560.46765 
L 503.906259 560.258223 
L 510.343688 557.882695 
L 533.241043 549.433159 
L 551.987693 539.590462 
L 555.593762 537.697138 
L 555.459918 536.75083 
L 554.39716 529.237986 
L 554.040385 526.715958 
L 553.420873 525.330858 
L 552.054297 522.275648 
L 551.389887 520.790289 
L 552.048358 519.315676 
L 553.657874 515.710951 
L 554.269821 514.340487 
L 555.082993 512.91162 
L 559.420287 505.290246 
L 560.121251 504.058503 
L 560.481137 502.70126 
L 561.536896 498.719185 
L 562.168781 496.33595 
L 562.35127 495.647642 
L 562.862887 493.717694 
L 563.812024 492.285928 
L 566.436078 488.327964 
L 567.067186 487.375928 
L 567.09271 487.336829 
L 567.791341 487.664685 
L 568.957328 488.106164 
L 569.284336 488.199352 
L 569.818155 488.268855 
L 569.829468 488.271895 
L 570.261048 488.384881 
L 570.429819 488.429142 
L 570.918387 488.557046 
L 570.998 488.577904 
L 571.509406 488.711818 
L 571.573676 488.53131 
L 572.567993 488.926406 
L 572.656939 488.969748 
L 573.614772 489.463831 
L 575.397797 489.538777 
L 576.513867 489.591806 
L 577.201609 489.565999 
L 577.711388 489.532626 
L 578.072688 489.385349 
L 578.473583 489.162488 
L 579.562573 488.220988 
L 579.838532 487.801993 
L 579.97683 487.485237 
L 580.068534 487.518115 
L 581.485451 488.024995 
L 581.513096 488.034894 
L 582.358792 488.337297 
L 582.40673 488.354407 
L 582.723981 488.467746 
L 582.865673 488.518371 
L 583.297535 488.672577 
L 583.517214 488.751059 
L 584.416363 489.071987 
L 584.528924 489.112147 
L 584.909244 489.247829 
L 585.004482 488.979364 
L 585.357651 487.982785 
L 585.477142 487.649696 
L 585.044218 487.49358 
L 585.042097 487.492732 
L 584.941414 487.456602 
L 584.809055 487.409089 
L 584.779784 487.398695 
L 584.354072 487.245903 
L 584.217966 487.197117 
L 583.886999 487.078333 
L 582.207202 486.474658 
L 582.087499 486.431599 
L 582.704325 485.357245 
L 583.794234 482.882519 
L 584.082921 482.248229 
L 584.098405 482.21422 
L 584.228572 481.928221 
L 584.317235 481.733571 
L 584.801773 480.669186 
L 585.295219 479.585358 
L 585.316996 479.537632 
L 585.328733 479.512461 
L 585.803655 478.677159 
L 586.569384 477.330451 
L 586.576737 477.317442 
L 586.508508 477.283574 
L 587.507349 474.446346 
L 588.190072 472.507488 
L 588.29931 472.18246 
L 588.58029 471.613925 
L 589.475107 469.803401 
L 589.510124 469.73255 
L 589.667017 469.415087 
L 590.155938 468.777404 
L 591.099207 467.51639 
L 592.729369 466.065605 
L 592.981218 465.841472 
L 594.425639 464.016236 
L 596.681535 460.574697 
L 597.618511 459.039986 
L 597.976983 458.593629 
L 598.377099 458.186159 
L 598.614949 457.905887 
L 598.905049 457.50478 
L 599.168706 456.973153 
L 599.594206 456.229767 
L 599.803279 456.268583 
L 600.847159 456.462596 
L 601.298042 456.546381 
L 601.320738 456.550624 
L 601.418946 456.397831 
L 602.520522 454.683177 
L 604.44241 451.691955 
L 604.582405 451.680571 
L 605.25834 451.62528 
L 605.503967 451.605271 
L 605.668143 453.713466 
L 605.748534 454.74462 
L 605.769038 455.008135 
L 607.012376 454.963026 
L 610.037537 454.853222 
L 611.515543 454.799628 
L 610.681442 453.304228 
L 608.57551 449.475299 
L 608.319065 448.822485 
L 607.624747 447.015067 
L 607.065475 441.849399 
L 606.609148 437.640929 
L 606.276272 433.088764 
L 605.958738 428.851446 
L 605.679243 423.193887 
L 605.403354 418.962862 
L 605.364113 414.047135 
L 605.323317 412.316219 
L 605.256855 409.49504 
L 605.215846 407.755004 
L 604.934089 407.751256 
L 604.939604 407.39929 
L 605.222634 407.402188 
L 605.226805 405.846266 
L 605.237058 401.985874 
L 605.246461 397.683578 
L 605.546955 393.286892 
L 606.485415 388.989829 
L 607.274406 386.650784 
L 606.876058 386.517648 
L 607.213176 385.512654 
L 607.61103 385.642397 
L 608.20714 383.887088 
L 609.880361 380.313473 
L 610.738076 378.578739 
L 611.683112 376.351973 
L 612.799748 373.721131 
L 614.107426 370.493048 
L 614.265027 370.065993 
L 614.689607 368.915632 
L 614.929295 368.436468 
L 615.006929 368.184265 
L 615.195568 367.571823 
L 615.263162 367.352356 
L 615.335775 367.167252 
L 617.601075 361.429515 
L 618.01611 360.37517 
L 617.334661 360.176632 
L 618.295464 358.011378 
L 618.960227 356.513222 
L 619.090394 356.220788 
L 619.34698 355.641719 
L 619.73536 355.237077 
L 620.018319 354.94231 
L 620.402032 354.54184 
L 622.152674 349.317983 
L 622.304406 348.218033 
L 622.636364 345.817052 
L 622.478056 342.277657 
L 621.909663 339.410733 
L 621.248435 337.56068 
L 621.54999 337.503339 
L 621.851968 337.448401 
L 622.154371 337.395868 
L 622.005114 336.917906 
L 621.875442 336.503295 
L 621.784516 336.252648 
L 621.710489 336.048595 
L 621.418762 335.244402 
L 621.34325 335.068136 
L 621.019918 335.11367 
L 620.734979 335.16691 
L 620.450394 335.22213 
L 620.166233 335.279259 
L 619.760248 335.364175 
L 619.355111 335.453122 
L 618.950823 335.545957 
L 618.547596 335.642751 
L 618.145287 335.743505 
L 617.743969 335.848218 
L 617.343428 335.956962 
L 616.943948 336.069523 
L 616.545528 336.185973 
L 616.148381 336.3061 
L 615.752436 336.430116 
L 615.357764 336.557949 
L 614.887226 336.716045 
L 614.418526 336.879513 
L 613.951806 337.048426 
L 613.486995 337.222713 
L 613.024234 337.402302 
L 612.563665 337.587336 
L 612.105218 337.777601 
L 611.648962 337.97317 
L 611.194969 338.1739 
L 610.743308 338.379791 
L 610.29483 338.591197 
L 609.848685 338.807624 
L 609.405085 339.029141 
L 608.964031 339.255678 
L 608.525592 339.487235 
L 608.090053 339.724449 
L 607.657271 339.966541 
L 607.227176 340.213441 
L 606.799909 340.465219 
L 606.375541 340.721806 
L 605.56251 341.236817 
L 604.75153 341.754939 
L 603.9426 342.276243 
L 603.13565 342.800658 
L 602.286278 343.357597 
L 601.439238 343.918001 
L 600.594462 344.481939 
L 600.228425 344.71689 
L 599.858499 344.94576 
L 599.484826 345.168409 
L 599.107547 345.384835 
L 598.726662 345.594898 
L 598.342383 345.798668 
L 597.954499 345.996217 
L 597.563432 346.187189 
L 597.169184 346.371728 
L 596.771966 346.54962 
L 596.37185 346.720867 
L 595.968905 346.885467 
L 595.563274 347.04342 
L 595.155097 347.194586 
L 594.744446 347.338965 
L 594.331461 347.476485 
L 593.916284 347.607076 
L 593.498916 347.730738 
L 593.185412 347.818483 
L 592.870777 347.902409 
L 592.555153 347.982375 
L 592.238609 348.058453 
L 592.109149 348.088361 
L 590.847004 348.207993 
L 590.64585 348.242709 
L 588.721911 348.631442 
L 588.604824 348.641977 
L 588.487737 348.652017 
L 588.37058 348.661562 
L 588.044986 348.685531 
L 587.719039 348.70547 
L 587.39295 348.721308 
L 587.066649 348.733045 
L 587.034973 348.734035 
L 586.778599 348.740115 
L 586.531416 348.74358 
L 586.284162 348.744711 
L 586.03698 348.743509 
L 585.867784 348.741317 
L 585.844451 348.737853 
L 585.596562 348.686026 
L 582.68177 348.075988 
L 580.572798 347.631469 
L 580.282132 347.560906 
L 577.685581 346.915587 
L 577.425955 346.850539 
L 576.382428 346.591053 
L 575.131736 346.202886 
L 574.015525 345.856151 
L 573.786372 345.778093 
L 572.446098 345.321767 
L 572.113717 345.20864 
L 570.921286 344.750545 
L 569.944273 344.357774 
L 568.869867 343.925849 
L 568.868253 343.925051 
L 568.826667 343.904496 
L 567.471191 343.234713 
L 566.740107 342.86811 
L 566.332991 342.65232 
L 564.087771 341.461657 
L 563.377898 341.073348 
L 563.224187 340.989139 
L 562.86416 340.792227 
L 561.710263 340.131211 
L 561.652851 340.098263 
L 560.771803 339.581767 
L 560.45639 339.38938 
L 560.046304 339.139228 
L 559.887785 339.042504 
L 557.45039 337.464593 
L 556.695974 336.964995 
L 556.549686 336.867988 
L 556.50394 336.837727 
L 555.429445 336.095754 
L 554.556528 335.492999 
L 554.139866 335.205302 
L 553.862917 335.014047 
L 553.481961 334.750956 
L 552.914487 334.344405 
L 552.765866 334.237924 
L 552.506876 334.052325 
L 552.240037 333.861069 
L 552.11482 333.771275 
L 551.525498 333.348674 
L 551.011406 332.979738 
L 550.150014 332.362418 
L 549.89139 332.176744 
L 549.345892 331.785116 
L 549.082235 331.596335 
L 548.407149 331.043921 
L 548.071444 330.765487 
L 547.58627 330.358724 
L 547.344673 330.154176 
L 547.070835 329.92071 
L 546.739867 329.636195 
L 546.410172 329.350196 
L 546.08175 329.062711 
L 545.428794 328.483854 
L 545.104261 328.192269 
L 545.021678 328.117746 
L 544.939237 328.043082 
L 544.856866 327.968348 
L 543.626309 326.850115 
L 540.27048 323.800603 
L 540.054973 323.60454 
L 539.839254 323.408617 
L 539.623464 323.212837 
L 539.407249 323.01741 
L 539.190894 322.822195 
L 538.974326 322.627121 
L 536.973319 320.836177 
L 535.702548 319.71233 
L 534.427181 318.592937 
L 533.146794 317.479837 
L 531.86273 316.371686 
L 530.208458 314.959506 
L 528.547398 313.556376 
L 526.87849 312.163003 
L 525.306942 310.864304 
L 525.202441 310.777973 
L 524.048686 309.956458 
L 522.843104 308.995443 
L 522.774309 308.940506 
L 522.628516 308.824268 
L 522.125708 308.434251 
L 521.851428 308.221499 
L 522.538014 307.369665 
L 522.399504 307.135068 
L 523.211482 306.073141 
L 524.192995 304.789492 
L 525.526642 303.045312 
L 526.843458 301.322938 
L 527.675774 300.234115 
L 527.937431 299.89182 
L 528.43611 299.925617 
L 528.627577 299.739877 
L 529.454607 298.929603 
L 530.250881 298.174056 
L 530.720571 297.7359 
L 531.163982 297.338362 
L 530.516023 296.985867 
L 528.138534 295.69052 
L 526.877501 295.004304 
L 526.399468 294.737748 
L 526.153063 294.599875 
L 525.271449 294.127569 
L 524.642674 293.784794 
L 524.44753 293.628749 
L 524.363886 293.781966 
L 523.888752 293.54157 
L 523.559199 293.351093 
L 523.519251 293.434241 
L 522.278529 292.751448 
L 520.929347 292.033374 
L 520.851006 291.991729 
L 520.664983 291.940821 
L 520.307218 291.755647 
L 519.321103 291.253574 
L 519.040917 291.110921 
L 518.111208 290.656122 
L 517.660355 290.443108 
L 515.871761 289.598056 
L 514.206555 288.811301 
L 513.822135 288.655327 
L 513.720815 288.614177 
L 512.605283 288.161459 
L 511.380498 287.664404 
L 511.10567 287.559125 
L 511.121719 287.511753 
L 510.771379 287.391202 
L 508.662053 286.665208 
L 506.656238 285.974567 
L 504.683372 285.296087 
L 504.698008 285.257907 
L 503.893037 284.980958 
L 503.800273 284.951615 
L 502.617882 284.628637 
L 498.836891 283.618059 
L 498.403402 283.515678 
L 497.752567 283.310141 
L 497.740689 283.335948 
L 497.650046 283.309292 
L 497.041139 283.129774 
L 496.949648 283.102694 
L 496.9529 283.074129 
L 492.962553 281.919384 
L 492.947634 281.951484 
L 492.859253 281.925677 
L 492.561234 281.837932 
L 492.098814 281.70181 
L 491.734982 281.594709 
L 491.441558 281.50852 
L 491.352895 281.481865 
L 491.356996 281.449058 
L 490.322802 281.150049 
L 488.691508 280.678521 
L 488.088329 280.506285 
L 487.483381 280.340341 
L 486.876737 280.180691 
L 486.268396 280.027333 
L 485.65857 279.880338 
L 485.047259 279.739778 
L 484.434464 279.60551 
L 483.820325 279.477676 
L 482.496596 279.224625 
L 481.450877 279.037965 
L 481.416798 278.944706 
L 481.071972 278.73634 
L 480.354393 278.538014 
L 480.242962 278.5226 
L 479.463587 278.414988 
L 479.374994 278.44624 
L 479.289796 278.485693 
L 479.232459 278.519135 
L 479.132337 278.58779 
L 479.061562 278.649444 
L 478.996796 278.717533 
L 478.938819 278.791419 
L 478.888053 278.870396 
L 478.844923 278.953827 
L 478.573135 278.878527 
L 476.931731 278.415413 
L 475.281206 277.964106 
L 473.362782 277.439479 
L 471.6202 276.963002 
L 469.543823 276.398073 
L 467.630984 275.855841 
L 465.539688 275.262984 
L 459.728983 273.752524 
L 459.647178 273.768928 
L 459.642088 273.763271 
L 459.486467 273.792119 
L 459.148288 273.703809 
L 457.449401 273.282198 
L 457.23354 273.240836 
L 454.378707 272.560447 
L 454.381747 272.552528 
L 454.286154 272.523681 
L 453.969045 272.077819 
L 453.773123 272.027901 
L 450.214214 270.974546 
L 446.15196 269.772429 
L 442.89397 268.776628 
L 434.859257 266.413048 
L 434.854166 266.456531 
L 433.555042 266.069849 
L 432.317644 265.701266 
L 431.071195 265.330351 
L 429.891915 264.980859 
L 429.714305 264.926982 
L 427.594444 264.269431 
L 421.127391 262.262838 
L 418.650614 261.527653 
L 416.111899 260.773802 
L 412.730671 259.770647 
L 411.688063 259.461669 
L 410.573761 259.130065 
L 408.075419 258.387315 
L 406.829889 258.017601 
L 406.082189 257.790074 
L 405.949548 257.749664 
L 405.729303 257.682674 
L 405.51019 257.615929 
L 405.318864 257.557739 
L 405.127467 257.499479 
L 404.93607 257.441218 
L 404.74538 257.38317 
L 404.553983 257.32498 
L 404.342648 257.260639 
L 404.259863 257.785455 
L 404.048871 257.708269 
L 403.701146 257.61105 
L 402.819815 257.333253 
L 402.46 257.223449 
L 402.356065 256.973791 
L 402.231271 256.822201 
L 401.699149 256.398186 
L 401.137827 255.968798 
L 400.536485 255.597741 
L 399.915064 255.264157 
L 399.286148 254.942099 
L 399.042924 254.797862 
L 399.022279 254.777004 
L 398.969745 254.751338 
L 398.940544 254.747944 
L 398.911343 254.751055 
L 398.884829 254.760035 
L 398.86086 254.774388 
L 398.840427 254.793478 
L 398.824448 254.816457 
L 398.813771 254.842335 
L 398.770924 254.976744 
L 398.702907 255.251289 
L 398.397746 255.215866 
L 396.358765 254.697879 
L 396.320661 254.688199 
L 393.575985 253.797464 
L 391.812545 253.434397 
L 390.656103 253.087167 
L 389.21755 252.665274 
L 387.824319 252.240694 
L 386.357626 251.811942 
L 385.47177 251.552598 
L 384.982778 251.388422 
L 384.221777 251.147734 
L 382.561221 250.609188 
L 381.320994 250.207304 
L 379.838604 249.78534 
L 378.169484 249.293308 
L 376.651389 248.856425 
L 375.80244 248.436582 
L 375.634871 248.400169 
L 374.414583 248.140825 
L 374.456415 248.010574 
L 372.841512 247.507376 
L 372.143838 247.291806 
L 371.588313 247.137104 
L 371.031092 246.988413 
L 370.408822 246.806208 
L 368.213098 246.181842 
L 365.174279 245.45968 
L 362.203145 244.454224 
L 361.501686 244.214889 
L 358.486341 242.992183 
L 356.578464 242.199529 
L 355.26725 241.55223 
L 354.838711 241.320532 
L 354.406287 241.093911 
L 354.29973 241.038067 
L 350.815986 239.102366 
L 348.212688 237.890252 
L 346.064429 236.985571 
L 345.934121 236.923704 
L 345.930567 236.922179 
L 345.80155 236.866787 
L 342.477026 235.40066 
L 339.596951 234.130525 
L 339.395514 234.040377 
L 338.73167 233.743135 
L 336.871365 232.910024 
L 335.396611 232.197889 
L 334.712616 231.867487 
L 333.983795 231.51644 
L 333.818841 231.483491 
L 333.65509 231.445028 
L 333.492682 231.401191 
L 333.331758 231.351981 
L 333.172673 231.297397 
L 333.015427 231.237581 
L 328.359185 229.041218 
L 322.280935 226.183697 
L 321.485934 225.692019 
L 319.282147 224.68844 
L 318.307203 224.244911 
L 317.31232 223.792331 
L 316.175251 223.275058 
L 315.005446 222.742865 
L 313.801491 222.195188 
L 313.053296 221.853049 
L 312.506887 221.23209 
L 312.044838 220.707001 
L 311.869845 220.626751 
L 310.863579 220.193616 
L 310.85064 220.18803 
L 309.324909 219.531257 
L 308.171931 219.034911 
L 307.800167 218.86713 
L 306.284617 218.183347 
L 306.263618 218.173307 
L 306.089685 218.094683 
L 304.767724 217.497019 
L 304.54352 217.39577 
L 304.039751 217.531027 
L 303.198862 217.111821 
L 303.149369 217.089195 
L 301.66804 216.411847 
L 300.186853 215.734498 
L 299.949427 215.625967 
L 299.601773 215.467023 
L 299.647943 215.373269 
L 299.054238 215.098936 
L 296.910832 214.118548 
L 295.033346 213.260125 
L 294.338534 212.942167 
L 293.562764 212.58716 
L 293.423264 212.526 
L 293.04641 212.360764 
L 291.748417 211.791735 
L 291.682096 211.762604 
L 291.402955 212.479336 
L 290.291128 212.003777 
L 289.818044 212.037857 
L 282.242839 208.56344 
L 281.258351 207.689533 
L 280.161017 207.182794 
L 276.694802 205.581974 
L 274.931433 204.767883 
L 274.320971 204.486126 
L 273.013928 203.882381 
L 271.879192 203.358319 
L 270.594422 202.764473 
L 269.285965 202.160444 
L 267.976094 201.555709 
L 267.484769 201.329313 
L 266.212725 200.741618 
L 265.519114 200.408176 
L 264.143842 199.746382 
L 263.012288 199.202382 
L 261.711962 198.576648 
L 261.520707 198.484661 
L 260.591721 198.038021 
L 259.521962 197.499324 
L 259.076595 197.300149 
L 257.77931 196.720019 
L 256.490367 196.143566 
L 255.846108 195.856576 
L 255.199304 195.567678 
L 254.663435 195.329758 
L 253.912483 194.983235 
L 252.631954 194.392287 
L 251.345628 193.797168 
L 249.873703 193.119324 
L 249.553482 192.969077 
L 248.411747 192.466722 
L 247.607892 191.921647 
L 247.374866 191.763637 
L 247.311232 191.73486 
L 246.750546 191.4869 
L 245.065234 190.739483 
L 241.376724 189.074322 
L 240.21809 188.551533 
L 239.90091 188.406589 
L 238.473458 187.784319 
L 237.05046 187.161625 
L 235.626543 186.53978 
L 235.339907 186.422198 
L 234.203828 185.910156 
L 233.486673 185.588239 
L 232.78281 185.274382 
L 231.362004 184.640516 
L 230.561134 184.281833 
L 229.222275 183.673774 
L 227.882708 183.065716 
L 226.792021 182.570573 
L 226.195629 182.299775 
L 225.63268 182.044107 
L 225.596267 182.027704 
L 224.456653 181.523228 
L 223.317392 181.020307 
L 222.792199 180.788608 
L 222.181666 180.519154 
L 221.062698 180.025283 
L 220.765385 179.894338 
L 220.082592 179.586491 
L 219.451697 179.301623 
L 218.836921 179.024744 
L 216.620549 178.026397 
L 215.917181 177.708298 
L 215.522721 177.533446 
L 214.736487 177.184873 
L 214.241627 176.958265 
L 212.659968 176.234252 
L 211.695913 175.792985 
L 210.387385 175.193977 
L 209.131886 174.62219 
L 208.512162 174.338877 
L 207.894346 174.056413 
L 206.644433 173.46391 
L 204.778825 172.614113 
L 203.846587 172.187977 
L 202.914419 171.761841 
L 200.898611 170.844838 
L 199.332885 170.142214 
L 198.622234 169.816408 
L 197.91215 169.490814 
L 196.88545 169.020559 
L 196.492121 168.839626 
L 195.860731 168.54995 
L 194.81989 168.072695 
L 193.126518 167.301875 
L 191.357634 166.495773 
L 189.681444 165.721701 
L 186.854255 164.423638 
L 186.115111 163.816286 
L 185.096967 163.350203 
L 180.808388 161.388508 
L 180.295144 161.154193 
L 180.080344 161.219029 
L 179.994933 161.240099 
L 179.932688 161.211733 
L 178.937124 160.758036 
L 174.578265 158.771594 
L 173.670985 158.358115 
L 173.368229 158.449677 
L 172.863823 158.602186 
L 172.532219 159.339351 
L 172.402618 159.637158 
L 171.470823 159.213934 
L 171.397342 159.453821 
L 171.315042 159.722923 
L 170.984923 160.800883 
L 170.019242 163.954584 
L 169.384881 166.027003 
L 169.063671 167.076186 
L 168.749672 168.102108 
L 168.258559 169.699251 
L 167.826201 171.116804 
L 167.773597 171.291656 
L 167.771547 171.298373 
L 167.421843 172.180199 
L 167.205699 172.875366 
L 166.719253 174.46261 
L 166.449869 175.306114 
L 166.202969 176.115256 
L 165.698987 177.771296 
L 165.259418 179.207869 
L 165.205753 179.356772 
L 164.642168 180.920331 
L 163.547239 183.958289 
L 163.329822 184.608912 
L 163.039227 185.722365 
L 161.640551 190.011227 
L 161.574655 190.213371 
L 161.053917 191.809948 
L 160.815218 192.540184 
L 160.61265 193.370466 
L 160.227523 194.949438 
L 159.840699 196.535198 
L 158.836059 200.653803 
L 158.856563 200.825544 
L 158.161256 202.923063 
L 157.343771 205.44608 
L 157.214452 205.845348 
L 157.19812 205.895761 
L 160.1028 207.868627 
L 160.219463 207.947887 
L 160.202211 207.998016 
L 160.131577 208.203554 
L 159.808882 209.142014 
L 159.334031 211.186505 
L 158.708296 214.381497 
L 158.635895 214.751494 
L 158.244334 216.75045 
L 157.81544 218.940521 
L 156.521054 224.654784 
L 156.042243 226.741838 
L 155.553393 228.873224 
L 154.665769 232.742243 
L 154.31762 234.259773 
L 153.810033 236.472469 
L 153.186278 239.191479 
L 152.726346 242.189065 
L 152.642349 242.506316 
L 152.584725 242.723732 
L 152.585007 242.729742 
L 152.515576 242.98442 
L 152.48793 243.088992 
L 152.317462 243.077962 
L 152.176548 243.068841 
L 151.96196 243.054912 
L 151.901366 243.206927 
L 151.702899 243.704686 
L 151.655597 243.823399 
L 151.611831 243.992029 
L 151.475089 244.518282 
L 151.594579 244.535817 
L 151.557601 244.685781 
L 151.388476 245.375362 
L 151.306317 245.710571 
L 151.190857 246.182382 
L 151.058003 246.722494 
L 150.274032 249.342023 
L 149.28919 252.85059 
L 149.068026 253.848159 
L 148.783724 255.129465 
L 148.034681 258.502987 
L 147.807649 259.180265 
L 146.811282 261.972101 
L 145.534147 264.370467 
L 144.595121 265.954106 
L 144.550507 266.029052 
L 143.676458 267.731686 
L 142.572974 270.008723 
L 142.023247 271.607634 
L 141.260345 272.967988 
L 140.691882 273.343428 
L 140.241989 274.200649 
L 140.199213 274.281747 
L 139.755825 275.635455 
L 139.709019 276.349004 
L 139.693464 276.586995 
L 139.007631 278.427574 
L 138.97744 279.725637 
L 138.243033 282.278916 
L 137.6004 284.844427 
L 137.570846 284.960171 
L 137.239524 285.788473 
L 137.0815 286.86608 
L 137.000473 288.056743 
L 136.84563 288.380357 
L 136.406767 289.296758 
L 135.166611 291.790857 
L 133.957353 293.947697 
L 132.700652 296.273237 
L 131.807655 298.61412 
L 130.832711 301.336878 
L 130.720291 301.650735 
L 130.102546 303.793363 
L 129.7918 304.871111 
L 129.569859 305.760927 
L 129.253739 307.02689 
L 128.276957 310.946391 
L 128.255887 311.04962 
L 127.991594 312.55612 
L 127.697605 314.334125 
L 127.043871 317.515189 
L 126.969702 318.547686 
L 126.839465 318.502223 
L 126.813304 318.69765 
L 126.705621 319.501136 
L 126.552334 320.507048 
L 126.505562 321.429369 
L 126.476468 322.003084 
L 126.463953 322.105322 
L 126.433267 322.342324 
L 126.37635 322.880667 
L 126.112693 325.368616 
L 126.083422 325.641676 
L 125.895631 327.410631 
L 125.685568 330.203528 
L 125.663932 330.485921 
L 125.656508 330.58413 
L 125.532351 332.234018 
L 125.341237 334.772096 
L 125.26926 335.730142 
L 125.188515 336.557242 
L 124.959362 338.90159 
L 124.622244 342.350341 
L 124.612911 342.433631 
L 124.406948 344.190142 
L 123.996863 347.685629 
L 123.353876 353.161972 
L 122.99993 357.458116 
L 122.781029 360.116604 
L 122.034036 366.90105 
L 121.525954 372.72144 
L 121.081011 379.186868 
L 121.062486 379.456535 
L 121.02169 380.04925 
L 121.011226 380.192568 
L 121.067223 380.889361 
L 120.935572 382.865762 
L 120.653602 386.278879 
L 120.154641 388.461101 
L 119.500908 391.343934 
L 119.450707 391.643438 
L 119.183232 393.2164 
L 118.920707 394.761151 
L 118.875456 395.027353 
L 117.543101 402.868477 
L 116.560451 408.407535 
L 116.299975 409.876067 
L 115.363636 415.153871 
L 115.923121 415.195941 
L 116.743575 415.257453 
L 121.682423 415.628369 
L 122.80118 415.712366 
L 123.059463 415.731739 
L 124.049184 415.806049 
L 124.418332 415.833766 
L 126.307626 415.642086 
L 130.505066 414.863205 
L 131.116377 414.749725 
L 133.405717 414.324862 
L 141.325323 413.201509 
L 145.886326 412.905116 
L 152.736598 412.536958 
L 155.688792 412.444689 
L 158.508415 412.554846 
L 160.770533 412.612753 
L 160.863722 412.603208 
L 161.464851 412.541695 
L 161.589503 412.527201 
L 163.628973 412.104812 
L 164.153388 411.996281 
L 164.962954 411.82857 
L 167.516516 411.299489 
L 167.551444 411.291853 
L 167.766598 411.245117 
L 167.803364 411.237127 
L 167.957924 411.204179 
L 170.51191 410.659755 
L 170.715468 410.61613 
L 170.994256 410.556597 
L 171.40116 410.471398 
L 172.003774 410.344837 
L 173.97954 409.92358 
L 175.922427 409.509464 
L 176.2027 409.457496 
L 176.499305 409.402347 
L 179.260385 409.019553 
L 181.163537 408.754765 
L 182.642674 408.550499 
L 183.45422 408.541874 
L 185.0491 408.525046 
L 185.262627 408.522713 
L 185.478064 408.498532 
L 188.651492 408.146706 
L 190.329521 407.760094 
L 191.404724 407.512558 
L 191.807456 407.340676 
L 193.303633 406.701719 
L 193.395549 406.662478 
L 194.366816 406.470021 
L 194.478034 406.447961 
L 194.587202 406.426325 
L 194.696299 406.404902 
L 194.804618 406.382489 
L 195.4913 406.240585 
L 197.211539 405.911385 
L 198.69407 405.620719 
L 200.510114 405.265005 
L 204.246491 404.532224 
L 205.423579 404.389896 
L 205.459572 404.385471 
L 205.530555 404.376745 
L 205.748183 404.350089 
L 205.965034 404.323787 
L 206.104958 404.307384 
L 206.310991 404.283132 
L 207.887559 404.097533 
L 208.08744 404.073918 
L 210.132001 403.824401 
L 211.909935 403.604086 
L 212.071919 403.552048 
L 212.346889 403.453274 
L 217.228607 401.766478 
L 220.464043 400.901267 
L 224.7715 399.74935 
L 224.936029 399.705301 
L 226.466851 399.295922 
L 226.800011 399.215107 
L 228.95282 398.690551 
L 229.778224 398.489397 
L 231.408386 398.092179 
L 233.020447 397.797129 
L 234.336469 397.55631 
L 235.373987 397.366751 
L 235.525577 397.339035 
L 237.236908 397.02638 
L 239.661576 397.621853 
L 239.772794 397.736606 
L 240.223252 398.201276 
L 240.561643 398.550344 
L 241.236234 399.246288 
L 241.493599 399.511712 
L 242.145211 399.920243 
L 242.848084 400.35359 
L 243.610985 400.805251 
L 245.182604 401.735863 
L 245.656111 402.586437 
L 246.089671 403.353156 
L 247.302677 406.258544 
L 247.765367 408.458866 
L 247.984126 409.498505 
L 248.248985 410.75768 
L 248.816035 411.769178 
L 250.188196 414.21633 
L 250.955905 415.474728 
L 253.820355 415.894783 
L 255.172224 416.185308 
L 258.263352 417.277551 
L 259.873222 417.835409 
L 261.389691 418.912662 
L 267.919672 423.076306 
L 271.73241 425.80776 
L 272.335943 426.240118 
L 277.058718 429.404779 
L 280.278811 431.301072 
L 285.714428 435.835349 
L 290.892115 440.046719 
L 291.247759 440.326638 
L 292.324164 441.201393 
L 293.938134 442.273556 
L 295.96014 443.602022 
L 296.261836 443.795681 
L 298.666283 445.379885 
L 298.843892 445.496689 
L 299.02228 445.613917 
L 300.461539 446.571043 
L 301.481098 447.145022 
L 303.594242 448.592413 
L 304.791692 449.485339 
L 305.166638 449.751188 
L 305.541513 450.017037 
L 305.916388 450.282886 
L 306.291263 450.548734 
L 306.45855 450.671689 
L 306.681835 450.791463 
L 307.086547 451.017081 
L 307.488997 451.241285 
L 307.891376 451.465418 
L 308.074642 451.559101 
L 308.728799 451.737135 
L 309.172682 451.856343 
L 309.616635 451.975621 
L 310.060589 452.094758 
L 310.504471 452.213966 
L 310.948424 452.333173 
L 311.392448 452.452381 
L 311.836402 452.57166 
L 312.210004 452.661808 
L 320.13258 457.510083 
L 325.692566 461.504602 
L 329.625077 464.455806 
L 330.006952 464.711968 
L 330.20853 464.847014 
L 330.390665 464.96509 
L 330.776358 465.21503 
L 331.162121 465.464971 
L 331.547814 465.714982 
L 331.933366 465.964851 
L 332.319058 466.214791 
L 332.70461 466.464661 
L 333.090303 466.714531 
L 333.475925 466.964471 
L 333.861476 467.21434 
L 334.247169 467.464281 
L 334.63272 467.714079 
L 334.855934 467.846792 
L 335.089047 467.986857 
L 335.482517 468.203637 
L 335.875422 468.419993 
L 336.278579 468.642146 
L 336.681735 468.864158 
L 337.084822 469.086241 
L 337.487978 469.308324 
L 337.735373 469.433753 
L 338.716751 470.010984 
L 342.481198 472.225307 
L 343.305612 472.709066 
L 346.29535 474.463456 
L 348.145386 475.549141 
L 348.147524 475.550396 
L 357.990857 481.543376 
L 360.573549 483.104672 
L 359.929573 483.490648 
L 359.451823 483.821544 
L 357.61485 485.093588 
L 356.438328 485.916164 
L 355.63958 486.873432 
L 353.468812 489.520324 
L 351.953615 491.309005 
L 350.85508 492.581827 
L 349.85143 493.677534 
L 347.515991 496.185138 
L 347.370764 496.340193 
L 344.957126 498.872897 
L 343.200474 500.729242 
L 342.465006 501.454882 
L 340.059217 503.982496 
L 337.627337 506.565188 
L 335.617775 508.654434 
L 335.321382 508.964968 
L 334.927346 509.377741 
L 334.664608 509.652993 
L 334.646861 509.650094 
L 327.774035 516.712621 
L 323.590735 521.043693 
L 322.962101 521.694528 
L 312.532133 531.808517 
L 310.121182 534.034647 
L 307.637052 536.779253 
L 305.361005 539.355935 
L 303.470509 541.491422 
" clip-path="url(#p566b80d74a)" style="fill: #d3d3d3"/>
   </g>
   <g id="PatchCollection_2">
    <path d="M 491.731447 363.255272 
L 491.731447 363.184568 
L 491.660743 363.184568 
L 491.660743 363.255272 
L 491.731447 363.255272 
" clip-path="url(#p566b80d74a)" style="fill: #ff0000; fill-opacity: 0.7; stroke: #000000; stroke-opacity: 0.7; stroke-width: 0.5"/>
    <path d="M 504.47235 302.150181 
L 504.47235 302.079477 
L 504.401645 302.079477 
L 504.401645 302.150181 
L 504.47235 302.150181 
" clip-path="url(#p566b80d74a)" style="fill: #ff0000; fill-opacity: 0.7; stroke: #000000; stroke-opacity: 0.7; stroke-width: 0.5"/>
    <path d="M 500.251075 370.163689 
L 500.251075 370.092984 
L 500.18037 370.092984 
L 500.18037 370.163689 
L 500.251075 370.163689 
" clip-path="url(#p566b80d74a)" style="fill: #ff0000; fill-opacity: 0.7; stroke: #000000; stroke-opacity: 0.7; stroke-width: 0.5"/>
    <path d="M 232.372863 307.230358 
L 232.372863 307.159653 
L 232.302159 307.159653 
L 232.302159 307.230358 
L 232.372863 307.230358 
" clip-path="url(#p566b80d74a)" style="fill: #ff0000; fill-opacity: 0.7; stroke: #000000; stroke-opacity: 0.7; stroke-width: 0.5"/>
    <path d="M 501.915887 368.110447 
L 501.915887 368.039742 
L 501.845182 368.039742 
L 501.845182 368.110447 
L 501.915887 368.110447 
" clip-path="url(#p566b80d74a)" style="fill: #ff0000; fill-opacity: 0.7; stroke: #000000; stroke-opacity: 0.7; stroke-width: 0.5"/>
    <path d="M 506.502666 296.702982 
L 506.502666 296.632278 
L 506.431961 296.632278 
L 506.431961 296.702982 
L 506.502666 296.702982 
" clip-path="url(#p566b80d74a)" style="fill: #ff0000; fill-opacity: 0.7; stroke: #000000; stroke-opacity: 0.7; stroke-width: 0.5"/>
    <path d="M 497.542925 434.873936 
L 497.542925 434.803231 
L 497.47222 434.803231 
L 497.47222 434.873936 
L 497.542925 434.873936 
" clip-path="url(#p566b80d74a)" style="fill: #ff0000; fill-opacity: 0.7; stroke: #000000; stroke-opacity: 0.7; stroke-width: 0.5"/>
    <path d="M 501.915887 368.110447 
L 501.915887 368.039742 
L 501.845182 368.039742 
L 501.845182 368.110447 
L 501.915887 368.110447 
" clip-path="url(#p566b80d74a)" style="fill: #ff0000; fill-opacity: 0.7; stroke: #000000; stroke-opacity: 0.7; stroke-width: 0.5"/>
    <path d="M 501.51319 312.86764 
L 501.51319 312.796936 
L 501.442486 312.796936 
L 501.442486 312.86764 
L 501.51319 312.86764 
" clip-path="url(#p566b80d74a)" style="fill: #ff0000; fill-opacity: 0.7; stroke: #000000; stroke-opacity: 0.7; stroke-width: 0.5"/>
    <path d="M 400.720748 434.186902 
L 400.720748 434.116198 
L 400.650044 434.116198 
L 400.650044 434.186902 
L 400.720748 434.186902 
" clip-path="url(#p566b80d74a)" style="fill: #ff0000; fill-opacity: 0.7; stroke: #000000; stroke-opacity: 0.7; stroke-width: 0.5"/>
    <path d="M 499.696031 358.988582 
L 499.696031 358.917878 
L 499.625326 358.917878 
L 499.625326 358.988582 
L 499.696031 358.988582 
" clip-path="url(#p566b80d74a)" style="fill: #ff0000; fill-opacity: 0.7; stroke: #000000; stroke-opacity: 0.7; stroke-width: 0.5"/>
    <path d="M 134.541242 324.501972 
L 134.541242 324.431268 
L 134.470537 324.431268 
L 134.470537 324.501972 
L 134.541242 324.501972 
" clip-path="url(#p566b80d74a)" style="fill: #ff0000; fill-opacity: 0.7; stroke: #000000; stroke-opacity: 0.7; stroke-width: 0.5"/>
    <path d="M 345.114948 385.217839 
L 345.114948 385.147135 
L 345.044243 385.147135 
L 345.044243 385.217839 
L 345.114948 385.217839 
" clip-path="url(#p566b80d74a)" style="fill: #ff0000; fill-opacity: 0.7; stroke: #000000; stroke-opacity: 0.7; stroke-width: 0.5"/>
    <path d="M 484.7485 344.552831 
L 484.7485 344.482126 
L 484.677795 344.482126 
L 484.677795 344.552831 
L 484.7485 344.552831 
" clip-path="url(#p566b80d74a)" style="fill: #ff0000; fill-opacity: 0.7; stroke: #000000; stroke-opacity: 0.7; stroke-width: 0.5"/>
    <path d="M 495.814959 317.306588 
L 495.814959 317.235884 
L 495.744255 317.235884 
L 495.744255 317.306588 
L 495.814959 317.306588 
" clip-path="url(#p566b80d74a)" style="fill: #ff0000; fill-opacity: 0.7; stroke: #000000; stroke-opacity: 0.7; stroke-width: 0.5"/>
    <path d="M 489.870918 332.988693 
L 489.870918 332.917989 
L 489.800213 332.917989 
L 489.800213 332.988693 
L 489.870918 332.988693 
" clip-path="url(#p566b80d74a)" style="fill: #ff0000; fill-opacity: 0.7; stroke: #000000; stroke-opacity: 0.7; stroke-width: 0.5"/>
    <path d="M 295.355818 300.34726 
L 295.355818 300.276555 
L 295.285113 300.276555 
L 295.285113 300.34726 
L 295.355818 300.34726 
" clip-path="url(#p566b80d74a)" style="fill: #ff0000; fill-opacity: 0.7; stroke: #000000; stroke-opacity: 0.7; stroke-width: 0.5"/>
    <path d="M 298.998476 271.421987 
L 298.998476 271.351283 
L 298.927772 271.351283 
L 298.927772 271.421987 
L 298.998476 271.421987 
" clip-path="url(#p566b80d74a)" style="fill: #ff0000; fill-opacity: 0.7; stroke: #000000; stroke-opacity: 0.7; stroke-width: 0.5"/>
    <path d="M 500.653666 377.673156 
L 500.653666 377.602452 
L 500.582961 377.602452 
L 500.582961 377.673156 
L 500.653666 377.673156 
" clip-path="url(#p566b80d74a)" style="fill: #ff0000; fill-opacity: 0.7; stroke: #000000; stroke-opacity: 0.7; stroke-width: 0.5"/>
    <path d="M 202.170215 235.46416 
L 202.170215 235.393455 
L 202.099511 235.393455 
L 202.099511 235.46416 
L 202.170215 235.46416 
" clip-path="url(#p566b80d74a)" style="fill: #ff0000; fill-opacity: 0.7; stroke: #000000; stroke-opacity: 0.7; stroke-width: 0.5"/>
    <path d="M 506.260009 297.829862 
L 506.260009 297.759158 
L 506.189304 297.759158 
L 506.189304 297.829862 
L 506.260009 297.829862 
" clip-path="url(#p566b80d74a)" style="fill: #ff0000; fill-opacity: 0.7; stroke: #000000; stroke-opacity: 0.7; stroke-width: 0.5"/>
    <path d="M 499.890126 367.124801 
L 499.890126 367.054096 
L 499.819422 367.054096 
L 499.819422 367.124801 
L 499.890126 367.124801 
" clip-path="url(#p566b80d74a)" style="fill: #ff0000; fill-opacity: 0.7; stroke: #000000; stroke-opacity: 0.7; stroke-width: 0.5"/>
    <path d="M 495.041741 342.365323 
L 495.041741 342.294619 
L 494.971036 342.294619 
L 494.971036 342.365323 
L 495.041741 342.365323 
" clip-path="url(#p566b80d74a)" style="fill: #ff0000; fill-opacity: 0.7; stroke: #000000; stroke-opacity: 0.7; stroke-width: 0.5"/>
    <path d="M 498.195085 313.707987 
L 498.195085 313.637283 
L 498.12438 313.637283 
L 498.12438 313.707987 
L 498.195085 313.707987 
" clip-path="url(#p566b80d74a)" style="fill: #ff0000; fill-opacity: 0.7; stroke: #000000; stroke-opacity: 0.7; stroke-width: 0.5"/>
    <path d="M 399.470962 439.757813 
L 399.470962 439.687108 
L 399.400257 439.687108 
L 399.400257 439.757813 
L 399.470962 439.757813 
" clip-path="url(#p566b80d74a)" style="fill: #ff0000; fill-opacity: 0.7; stroke: #000000; stroke-opacity: 0.7; stroke-width: 0.5"/>
    <path d="M 460.384903 295.233852 
L 460.384903 295.163147 
L 460.314199 295.163147 
L 460.314199 295.233852 
L 460.384903 295.233852 
" clip-path="url(#p566b80d74a)" style="fill: #ff0000; fill-opacity: 0.7; stroke: #000000; stroke-opacity: 0.7; stroke-width: 0.5"/>
    <path d="M 192.582414 254.795517 
L 192.582414 254.724813 
L 192.511709 254.724813 
L 192.511709 254.795517 
L 192.582414 254.795517 
" clip-path="url(#p566b80d74a)" style="fill: #ff0000; fill-opacity: 0.7; stroke: #000000; stroke-opacity: 0.7; stroke-width: 0.5"/>
    <path d="M 421.299458 467.459276 
L 421.299458 467.388572 
L 421.228754 467.388572 
L 421.228754 467.459276 
L 421.299458 467.459276 
" clip-path="url(#p566b80d74a)" style="fill: #ff0000; fill-opacity: 0.7; stroke: #000000; stroke-opacity: 0.7; stroke-width: 0.5"/>
    <path d="M 399.470962 439.757813 
L 399.470962 439.687108 
L 399.400257 439.687108 
L 399.400257 439.757813 
L 399.470962 439.757813 
" clip-path="url(#p566b80d74a)" style="fill: #ff0000; fill-opacity: 0.7; stroke: #000000; stroke-opacity: 0.7; stroke-width: 0.5"/>
    <path d="M 484.755985 344.558274 
L 484.755985 344.48757 
L 484.68528 344.48757 
L 484.68528 344.558274 
L 484.755985 344.558274 
" clip-path="url(#p566b80d74a)" style="fill: #ff0000; fill-opacity: 0.7; stroke: #000000; stroke-opacity: 0.7; stroke-width: 0.5"/>
    <path d="M 550.969006 477.767998 
L 550.969006 477.697294 
L 550.898302 477.697294 
L 550.898302 477.767998 
L 550.969006 477.767998 
" clip-path="url(#p566b80d74a)" style="fill: #ff0000; fill-opacity: 0.7; stroke: #000000; stroke-opacity: 0.7; stroke-width: 0.5"/>
    <path d="M 595.94597 350.276606 
L 595.94597 350.205901 
L 595.875266 350.205901 
L 595.875266 350.276606 
L 595.94597 350.276606 
" clip-path="url(#p566b80d74a)" style="fill: #ff0000; fill-opacity: 0.7; stroke: #000000; stroke-opacity: 0.7; stroke-width: 0.5"/>
    <path d="M 413.985032 422.877121 
L 413.985032 422.806417 
L 413.914327 422.806417 
L 413.914327 422.877121 
L 413.985032 422.877121 
" clip-path="url(#p566b80d74a)" style="fill: #ff0000; fill-opacity: 0.7; stroke: #000000; stroke-opacity: 0.7; stroke-width: 0.5"/>
    <path d="M 499.575527 365.704065 
L 499.575527 365.633361 
L 499.504823 365.633361 
L 499.504823 365.704065 
L 499.575527 365.704065 
" clip-path="url(#p566b80d74a)" style="fill: #ff0000; fill-opacity: 0.7; stroke: #000000; stroke-opacity: 0.7; stroke-width: 0.5"/>
    <path d="M 494.319713 341.197387 
L 494.319713 341.126683 
L 494.249009 341.126683 
L 494.249009 341.197387 
L 494.319713 341.197387 
" clip-path="url(#p566b80d74a)" style="fill: #ff0000; fill-opacity: 0.7; stroke: #000000; stroke-opacity: 0.7; stroke-width: 0.5"/>
    <path d="M 497.601323 359.020726 
L 497.601323 358.950022 
L 497.530619 358.950022 
L 497.530619 359.020726 
L 497.601323 359.020726 
" clip-path="url(#p566b80d74a)" style="fill: #ff0000; fill-opacity: 0.7; stroke: #000000; stroke-opacity: 0.7; stroke-width: 0.5"/>
    <path d="M 507.248163 294.5954 
L 507.248163 294.524696 
L 507.177459 294.524696 
L 507.177459 294.5954 
L 507.248163 294.5954 
" clip-path="url(#p566b80d74a)" style="fill: #ff0000; fill-opacity: 0.7; stroke: #000000; stroke-opacity: 0.7; stroke-width: 0.5"/>
    <path d="M 507.248163 294.5954 
L 507.248163 294.524696 
L 507.177459 294.524696 
L 507.177459 294.5954 
L 507.248163 294.5954 
" clip-path="url(#p566b80d74a)" style="fill: #ff0000; fill-opacity: 0.7; stroke: #000000; stroke-opacity: 0.7; stroke-width: 0.5"/>
    <path d="M 453.855803 391.129437 
L 453.855803 391.058733 
L 453.785099 391.058733 
L 453.785099 391.129437 
L 453.855803 391.129437 
" clip-path="url(#p566b80d74a)" style="fill: #ff0000; fill-opacity: 0.7; stroke: #000000; stroke-opacity: 0.7; stroke-width: 0.5"/>
    <path d="M 454.044535 499.120651 
L 454.044535 499.049947 
L 453.973831 499.049947 
L 453.973831 499.120651 
L 454.044535 499.120651 
" clip-path="url(#p566b80d74a)" style="fill: #ff0000; fill-opacity: 0.7; stroke: #000000; stroke-opacity: 0.7; stroke-width: 0.5"/>
    <path d="M 494.081437 458.858625 
L 494.081437 458.787921 
L 494.010733 458.787921 
L 494.010733 458.858625 
L 494.081437 458.858625 
" clip-path="url(#p566b80d74a)" style="fill: #ff0000; fill-opacity: 0.7; stroke: #000000; stroke-opacity: 0.7; stroke-width: 0.5"/>
    <path d="M 583.832469 450.236942 
L 583.832469 450.166237 
L 583.761765 450.166237 
L 583.761765 450.236942 
L 583.832469 450.236942 
" clip-path="url(#p566b80d74a)" style="fill: #ff0000; fill-opacity: 0.7; stroke: #000000; stroke-opacity: 0.7; stroke-width: 0.5"/>
    <path d="M 499.813828 422.408183 
L 499.813828 422.337479 
L 499.743123 422.337479 
L 499.743123 422.408183 
L 499.813828 422.408183 
" clip-path="url(#p566b80d74a)" style="fill: #ff0000; fill-opacity: 0.7; stroke: #000000; stroke-opacity: 0.7; stroke-width: 0.5"/>
    <path d="M 507.713415 331.150387 
L 507.713415 331.079683 
L 507.64271 331.079683 
L 507.64271 331.150387 
L 507.713415 331.150387 
" clip-path="url(#p566b80d74a)" style="fill: #ff0000; fill-opacity: 0.7; stroke: #000000; stroke-opacity: 0.7; stroke-width: 0.5"/>
    <path d="M 507.248163 294.5954 
L 507.248163 294.524696 
L 507.177459 294.524696 
L 507.177459 294.5954 
L 507.248163 294.5954 
" clip-path="url(#p566b80d74a)" style="fill: #ff0000; fill-opacity: 0.7; stroke: #000000; stroke-opacity: 0.7; stroke-width: 0.5"/>
    <path d="M 504.472356 302.15011 
L 504.472356 302.079406 
L 504.401652 302.079406 
L 504.401652 302.15011 
L 504.472356 302.15011 
" clip-path="url(#p566b80d74a)" style="fill: #ff0000; fill-opacity: 0.7; stroke: #000000; stroke-opacity: 0.7; stroke-width: 0.5"/>
    <path d="M 495.189766 333.757394 
L 495.189766 333.68669 
L 495.119061 333.68669 
L 495.119061 333.757394 
L 495.189766 333.757394 
" clip-path="url(#p566b80d74a)" style="fill: #ff0000; fill-opacity: 0.7; stroke: #000000; stroke-opacity: 0.7; stroke-width: 0.5"/>
    <path d="M 499.890126 367.124801 
L 499.890126 367.054096 
L 499.819422 367.054096 
L 499.819422 367.124801 
L 499.890126 367.124801 
" clip-path="url(#p566b80d74a)" style="fill: #ff0000; fill-opacity: 0.7; stroke: #000000; stroke-opacity: 0.7; stroke-width: 0.5"/>
    <path d="M 345.114948 385.217839 
L 345.114948 385.147135 
L 345.044243 385.147135 
L 345.044243 385.217839 
L 345.114948 385.217839 
" clip-path="url(#p566b80d74a)" style="fill: #ff0000; fill-opacity: 0.7; stroke: #000000; stroke-opacity: 0.7; stroke-width: 0.5"/>
    <path d="M 310.219065 298.019059 
L 310.219065 297.948355 
L 310.148361 297.948355 
L 310.148361 298.019059 
L 310.219065 298.019059 
" clip-path="url(#p566b80d74a)" style="fill: #ff0000; fill-opacity: 0.7; stroke: #000000; stroke-opacity: 0.7; stroke-width: 0.5"/>
    <path d="M 507.580424 286.653405 
L 507.580424 286.5827 
L 507.509719 286.5827 
L 507.509719 286.653405 
L 507.580424 286.653405 
" clip-path="url(#p566b80d74a)" style="fill: #ff0000; fill-opacity: 0.7; stroke: #000000; stroke-opacity: 0.7; stroke-width: 0.5"/>
    <path d="M 504.472356 302.15011 
L 504.472356 302.079406 
L 504.401652 302.079406 
L 504.401652 302.15011 
L 504.472356 302.15011 
" clip-path="url(#p566b80d74a)" style="fill: #ff0000; fill-opacity: 0.7; stroke: #000000; stroke-opacity: 0.7; stroke-width: 0.5"/>
    <path d="M 249.416256 299.748284 
L 249.416256 299.677579 
L 249.345552 299.677579 
L 249.345552 299.748284 
L 249.416256 299.748284 
" clip-path="url(#p566b80d74a)" style="fill: #ff0000; fill-opacity: 0.7; stroke: #000000; stroke-opacity: 0.7; stroke-width: 0.5"/>
    <path d="M 453.651119 289.516346 
L 453.651119 289.445642 
L 453.580415 289.445642 
L 453.580415 289.516346 
L 453.651119 289.516346 
" clip-path="url(#p566b80d74a)" style="fill: #ff0000; fill-opacity: 0.7; stroke: #000000; stroke-opacity: 0.7; stroke-width: 0.5"/>
    <path d="M 451.492432 287.499026 
L 451.492432 287.428322 
L 451.421727 287.428322 
L 451.421727 287.499026 
L 451.492432 287.499026 
" clip-path="url(#p566b80d74a)" style="fill: #ff0000; fill-opacity: 0.7; stroke: #000000; stroke-opacity: 0.7; stroke-width: 0.5"/>
    <path d="M 311.57965 297.084433 
L 311.57965 297.013729 
L 311.508945 297.013729 
L 311.508945 297.084433 
L 311.57965 297.084433 
" clip-path="url(#p566b80d74a)" style="fill: #ff0000; fill-opacity: 0.7; stroke: #000000; stroke-opacity: 0.7; stroke-width: 0.5"/>
    <path d="M 346.458623 291.364659 
L 346.458623 291.293954 
L 346.387918 291.293954 
L 346.387918 291.364659 
L 346.458623 291.364659 
" clip-path="url(#p566b80d74a)" style="fill: #ff0000; fill-opacity: 0.7; stroke: #000000; stroke-opacity: 0.7; stroke-width: 0.5"/>
    <path d="M 453.855803 391.129437 
L 453.855803 391.058733 
L 453.785099 391.058733 
L 453.785099 391.129437 
L 453.855803 391.129437 
" clip-path="url(#p566b80d74a)" style="fill: #ff0000; fill-opacity: 0.7; stroke: #000000; stroke-opacity: 0.7; stroke-width: 0.5"/>
    <path d="M 498.195085 313.707979 
L 498.195085 313.637275 
L 498.12438 313.637275 
L 498.12438 313.707979 
L 498.195085 313.707979 
" clip-path="url(#p566b80d74a)" style="fill: #ff0000; fill-opacity: 0.7; stroke: #000000; stroke-opacity: 0.7; stroke-width: 0.5"/>
    <path d="M 345.114948 385.217839 
L 345.114948 385.147135 
L 345.044243 385.147135 
L 345.044243 385.217839 
L 345.114948 385.217839 
" clip-path="url(#p566b80d74a)" style="fill: #ff0000; fill-opacity: 0.7; stroke: #000000; stroke-opacity: 0.7; stroke-width: 0.5"/>
    <path d="M 310.219065 298.019051 
L 310.219065 297.948347 
L 310.148361 297.948347 
L 310.148361 298.019051 
L 310.219065 298.019051 
" clip-path="url(#p566b80d74a)" style="fill: #ff0000; fill-opacity: 0.7; stroke: #000000; stroke-opacity: 0.7; stroke-width: 0.5"/>
    <path d="M 507.580424 286.653405 
L 507.580424 286.5827 
L 507.509719 286.5827 
L 507.509719 286.653405 
L 507.580424 286.653405 
" clip-path="url(#p566b80d74a)" style="fill: #ff0000; fill-opacity: 0.7; stroke: #000000; stroke-opacity: 0.7; stroke-width: 0.5"/>
    <path d="M 504.937299 469.134483 
L 504.937299 469.063778 
L 504.866595 469.063778 
L 504.866595 469.134483 
L 504.937299 469.134483 
" clip-path="url(#p566b80d74a)" style="fill: #ff0000; fill-opacity: 0.7; stroke: #000000; stroke-opacity: 0.7; stroke-width: 0.5"/>
    <path d="M 460.677221 295.848456 
L 460.677221 295.777752 
L 460.606517 295.777752 
L 460.606517 295.848456 
L 460.677221 295.848456 
" clip-path="url(#p566b80d74a)" style="fill: #ff0000; fill-opacity: 0.7; stroke: #000000; stroke-opacity: 0.7; stroke-width: 0.5"/>
    <path d="M 475.224375 413.483863 
L 475.224375 413.413159 
L 475.153671 413.413159 
L 475.153671 413.483863 
L 475.224375 413.483863 
" clip-path="url(#p566b80d74a)" style="fill: #ff0000; fill-opacity: 0.7; stroke: #000000; stroke-opacity: 0.7; stroke-width: 0.5"/>
    <path d="M 501.265428 389.393812 
L 501.265428 389.323107 
L 501.194724 389.323107 
L 501.194724 389.393812 
L 501.265428 389.393812 
" clip-path="url(#p566b80d74a)" style="fill: #ff0000; fill-opacity: 0.7; stroke: #000000; stroke-opacity: 0.7; stroke-width: 0.5"/>
    <path d="M 487.528705 394.573169 
L 487.528705 394.502464 
L 487.458001 394.502464 
L 487.458001 394.573169 
L 487.528705 394.573169 
" clip-path="url(#p566b80d74a)" style="fill: #ff0000; fill-opacity: 0.7; stroke: #000000; stroke-opacity: 0.7; stroke-width: 0.5"/>
    <path d="M 499.772331 310.716153 
L 499.772331 310.645448 
L 499.701627 310.645448 
L 499.701627 310.716153 
L 499.772331 310.716153 
" clip-path="url(#p566b80d74a)" style="fill: #ff0000; fill-opacity: 0.7; stroke: #000000; stroke-opacity: 0.7; stroke-width: 0.5"/>
    <path d="M 413.569582 423.136773 
L 413.569582 423.066069 
L 413.498878 423.066069 
L 413.498878 423.136773 
L 413.569582 423.136773 
" clip-path="url(#p566b80d74a)" style="fill: #ff0000; fill-opacity: 0.7; stroke: #000000; stroke-opacity: 0.7; stroke-width: 0.5"/>
   </g>
   <g id="matplotlib.axis_1">
    <g id="xtick_1">
     <g id="line2d_1">
      <defs>
       <path id="md7fdc8b70b" d="M 0 0 
L 0 3.5 
" style="stroke: #000000; stroke-width: 0.8"/>
      </defs>
      <g>
       <use xlink:href="#md7fdc8b70b" x="97.153491" y="589.366074" style="stroke: #000000; stroke-width: 0.8"/>
      </g>
     </g>
     <g id="text_1">
      <!-- 372000 -->
      <g transform="translate(78.065991 603.964512) scale(0.1 -0.1)">
       <defs>
        <path id="DejaVuSans-33" d="M 2597 2516 
Q 3050 2419 3304 2112 
Q 3559 1806 3559 1356 
Q 3559 666 3084 287 
Q 2609 -91 1734 -91 
Q 1441 -91 1130 -33 
Q 819 25 488 141 
L 488 750 
Q 750 597 1062 519 
Q 1375 441 1716 441 
Q 2309 441 2620 675 
Q 2931 909 2931 1356 
Q 2931 1769 2642 2001 
Q 2353 2234 1838 2234 
L 1294 2234 
L 1294 2753 
L 1863 2753 
Q 2328 2753 2575 2939 
Q 2822 3125 2822 3475 
Q 2822 3834 2567 4026 
Q 2313 4219 1838 4219 
Q 1578 4219 1281 4162 
Q 984 4106 628 3988 
L 628 4550 
Q 988 4650 1302 4700 
Q 1616 4750 1894 4750 
Q 2613 4750 3031 4423 
Q 3450 4097 3450 3541 
Q 3450 3153 3228 2886 
Q 3006 2619 2597 2516 
z
" transform="scale(0.015625)"/>
        <path id="DejaVuSans-37" d="M 525 4666 
L 3525 4666 
L 3525 4397 
L 1831 0 
L 1172 0 
L 2766 4134 
L 525 4134 
L 525 4666 
z
" transform="scale(0.015625)"/>
        <path id="DejaVuSans-32" d="M 1228 531 
L 3431 531 
L 3431 0 
L 469 0 
L 469 531 
Q 828 903 1448 1529 
Q 2069 2156 2228 2338 
Q 2531 2678 2651 2914 
Q 2772 3150 2772 3378 
Q 2772 3750 2511 3984 
Q 2250 4219 1831 4219 
Q 1534 4219 1204 4116 
Q 875 4013 500 3803 
L 500 4441 
Q 881 4594 1212 4672 
Q 1544 4750 1819 4750 
Q 2544 4750 2975 4387 
Q 3406 4025 3406 3419 
Q 3406 3131 3298 2873 
Q 3191 2616 2906 2266 
Q 2828 2175 2409 1742 
Q 1991 1309 1228 531 
z
" transform="scale(0.015625)"/>
        <path id="DejaVuSans-30" d="M 2034 4250 
Q 1547 4250 1301 3770 
Q 1056 3291 1056 2328 
Q 1056 1369 1301 889 
Q 1547 409 2034 409 
Q 2525 409 2770 889 
Q 3016 1369 3016 2328 
Q 3016 3291 2770 3770 
Q 2525 4250 2034 4250 
z
M 2034 4750 
Q 2819 4750 3233 4129 
Q 3647 3509 3647 2328 
Q 3647 1150 3233 529 
Q 2819 -91 2034 -91 
Q 1250 -91 836 529 
Q 422 1150 422 2328 
Q 422 3509 836 4129 
Q 1250 4750 2034 4750 
z
" transform="scale(0.015625)"/>
       </defs>
       <use xlink:href="#DejaVuSans-33"/>
       <use xlink:href="#DejaVuSans-37" x="63.623047"/>
       <use xlink:href="#DejaVuSans-32" x="127.246094"/>
       <use xlink:href="#DejaVuSans-30" x="190.869141"/>
       <use xlink:href="#DejaVuSans-30" x="254.492188"/>
       <use xlink:href="#DejaVuSans-30" x="318.115234"/>
      </g>
     </g>
    </g>
    <g id="xtick_2">
     <g id="line2d_2">
      <g>
       <use xlink:href="#md7fdc8b70b" x="167.857948" y="589.366074" style="stroke: #000000; stroke-width: 0.8"/>
      </g>
     </g>
     <g id="text_2">
      <!-- 373000 -->
      <g transform="translate(148.770448 603.964512) scale(0.1 -0.1)">
       <use xlink:href="#DejaVuSans-33"/>
       <use xlink:href="#DejaVuSans-37" x="63.623047"/>
       <use xlink:href="#DejaVuSans-33" x="127.246094"/>
       <use xlink:href="#DejaVuSans-30" x="190.869141"/>
       <use xlink:href="#DejaVuSans-30" x="254.492188"/>
       <use xlink:href="#DejaVuSans-30" x="318.115234"/>
      </g>
     </g>
    </g>
    <g id="xtick_3">
     <g id="line2d_3">
      <g>
       <use xlink:href="#md7fdc8b70b" x="238.562404" y="589.366074" style="stroke: #000000; stroke-width: 0.8"/>
      </g>
     </g>
     <g id="text_3">
      <!-- 374000 -->
      <g transform="translate(219.474904 603.964512) scale(0.1 -0.1)">
       <defs>
        <path id="DejaVuSans-34" d="M 2419 4116 
L 825 1625 
L 2419 1625 
L 2419 4116 
z
M 2253 4666 
L 3047 4666 
L 3047 1625 
L 3713 1625 
L 3713 1100 
L 3047 1100 
L 3047 0 
L 2419 0 
L 2419 1100 
L 313 1100 
L 313 1709 
L 2253 4666 
z
" transform="scale(0.015625)"/>
       </defs>
       <use xlink:href="#DejaVuSans-33"/>
       <use xlink:href="#DejaVuSans-37" x="63.623047"/>
       <use xlink:href="#DejaVuSans-34" x="127.246094"/>
       <use xlink:href="#DejaVuSans-30" x="190.869141"/>
       <use xlink:href="#DejaVuSans-30" x="254.492188"/>
       <use xlink:href="#DejaVuSans-30" x="318.115234"/>
      </g>
     </g>
    </g>
    <g id="xtick_4">
     <g id="line2d_4">
      <g>
       <use xlink:href="#md7fdc8b70b" x="309.26686" y="589.366074" style="stroke: #000000; stroke-width: 0.8"/>
      </g>
     </g>
     <g id="text_4">
      <!-- 375000 -->
      <g transform="translate(290.17936 603.964512) scale(0.1 -0.1)">
       <defs>
        <path id="DejaVuSans-35" d="M 691 4666 
L 3169 4666 
L 3169 4134 
L 1269 4134 
L 1269 2991 
Q 1406 3038 1543 3061 
Q 1681 3084 1819 3084 
Q 2600 3084 3056 2656 
Q 3513 2228 3513 1497 
Q 3513 744 3044 326 
Q 2575 -91 1722 -91 
Q 1428 -91 1123 -41 
Q 819 9 494 109 
L 494 744 
Q 775 591 1075 516 
Q 1375 441 1709 441 
Q 2250 441 2565 725 
Q 2881 1009 2881 1497 
Q 2881 1984 2565 2268 
Q 2250 2553 1709 2553 
Q 1456 2553 1204 2497 
Q 953 2441 691 2322 
L 691 4666 
z
" transform="scale(0.015625)"/>
       </defs>
       <use xlink:href="#DejaVuSans-33"/>
       <use xlink:href="#DejaVuSans-37" x="63.623047"/>
       <use xlink:href="#DejaVuSans-35" x="127.246094"/>
       <use xlink:href="#DejaVuSans-30" x="190.869141"/>
       <use xlink:href="#DejaVuSans-30" x="254.492188"/>
       <use xlink:href="#DejaVuSans-30" x="318.115234"/>
      </g>
     </g>
    </g>
    <g id="xtick_5">
     <g id="line2d_5">
      <g>
       <use xlink:href="#md7fdc8b70b" x="379.971316" y="589.366074" style="stroke: #000000; stroke-width: 0.8"/>
      </g>
     </g>
     <g id="text_5">
      <!-- 376000 -->
      <g transform="translate(360.883816 603.964512) scale(0.1 -0.1)">
       <defs>
        <path id="DejaVuSans-36" d="M 2113 2584 
Q 1688 2584 1439 2293 
Q 1191 2003 1191 1497 
Q 1191 994 1439 701 
Q 1688 409 2113 409 
Q 2538 409 2786 701 
Q 3034 994 3034 1497 
Q 3034 2003 2786 2293 
Q 2538 2584 2113 2584 
z
M 3366 4563 
L 3366 3988 
Q 3128 4100 2886 4159 
Q 2644 4219 2406 4219 
Q 1781 4219 1451 3797 
Q 1122 3375 1075 2522 
Q 1259 2794 1537 2939 
Q 1816 3084 2150 3084 
Q 2853 3084 3261 2657 
Q 3669 2231 3669 1497 
Q 3669 778 3244 343 
Q 2819 -91 2113 -91 
Q 1303 -91 875 529 
Q 447 1150 447 2328 
Q 447 3434 972 4092 
Q 1497 4750 2381 4750 
Q 2619 4750 2861 4703 
Q 3103 4656 3366 4563 
z
" transform="scale(0.015625)"/>
       </defs>
       <use xlink:href="#DejaVuSans-33"/>
       <use xlink:href="#DejaVuSans-37" x="63.623047"/>
       <use xlink:href="#DejaVuSans-36" x="127.246094"/>
       <use xlink:href="#DejaVuSans-30" x="190.869141"/>
       <use xlink:href="#DejaVuSans-30" x="254.492188"/>
       <use xlink:href="#DejaVuSans-30" x="318.115234"/>
      </g>
     </g>
    </g>
    <g id="xtick_6">
     <g id="line2d_6">
      <g>
       <use xlink:href="#md7fdc8b70b" x="450.675773" y="589.366074" style="stroke: #000000; stroke-width: 0.8"/>
      </g>
     </g>
     <g id="text_6">
      <!-- 377000 -->
      <g transform="translate(431.588273 603.964512) scale(0.1 -0.1)">
       <use xlink:href="#DejaVuSans-33"/>
       <use xlink:href="#DejaVuSans-37" x="63.623047"/>
       <use xlink:href="#DejaVuSans-37" x="127.246094"/>
       <use xlink:href="#DejaVuSans-30" x="190.869141"/>
       <use xlink:href="#DejaVuSans-30" x="254.492188"/>
       <use xlink:href="#DejaVuSans-30" x="318.115234"/>
      </g>
     </g>
    </g>
    <g id="xtick_7">
     <g id="line2d_7">
      <g>
       <use xlink:href="#md7fdc8b70b" x="521.380229" y="589.366074" style="stroke: #000000; stroke-width: 0.8"/>
      </g>
     </g>
     <g id="text_7">
      <!-- 378000 -->
      <g transform="translate(502.292729 603.964512) scale(0.1 -0.1)">
       <defs>
        <path id="DejaVuSans-38" d="M 2034 2216 
Q 1584 2216 1326 1975 
Q 1069 1734 1069 1313 
Q 1069 891 1326 650 
Q 1584 409 2034 409 
Q 2484 409 2743 651 
Q 3003 894 3003 1313 
Q 3003 1734 2745 1975 
Q 2488 2216 2034 2216 
z
M 1403 2484 
Q 997 2584 770 2862 
Q 544 3141 544 3541 
Q 544 4100 942 4425 
Q 1341 4750 2034 4750 
Q 2731 4750 3128 4425 
Q 3525 4100 3525 3541 
Q 3525 3141 3298 2862 
Q 3072 2584 2669 2484 
Q 3125 2378 3379 2068 
Q 3634 1759 3634 1313 
Q 3634 634 3220 271 
Q 2806 -91 2034 -91 
Q 1263 -91 848 271 
Q 434 634 434 1313 
Q 434 1759 690 2068 
Q 947 2378 1403 2484 
z
M 1172 3481 
Q 1172 3119 1398 2916 
Q 1625 2713 2034 2713 
Q 2441 2713 2670 2916 
Q 2900 3119 2900 3481 
Q 2900 3844 2670 4047 
Q 2441 4250 2034 4250 
Q 1625 4250 1398 4047 
Q 1172 3844 1172 3481 
z
" transform="scale(0.015625)"/>
       </defs>
       <use xlink:href="#DejaVuSans-33"/>
       <use xlink:href="#DejaVuSans-37" x="63.623047"/>
       <use xlink:href="#DejaVuSans-38" x="127.246094"/>
       <use xlink:href="#DejaVuSans-30" x="190.869141"/>
       <use xlink:href="#DejaVuSans-30" x="254.492188"/>
       <use xlink:href="#DejaVuSans-30" x="318.115234"/>
      </g>
     </g>
    </g>
    <g id="xtick_8">
     <g id="line2d_8">
      <g>
       <use xlink:href="#md7fdc8b70b" x="592.084685" y="589.366074" style="stroke: #000000; stroke-width: 0.8"/>
      </g>
     </g>
     <g id="text_8">
      <!-- 379000 -->
      <g transform="translate(572.997185 603.964512) scale(0.1 -0.1)">
       <defs>
        <path id="DejaVuSans-39" d="M 703 97 
L 703 672 
Q 941 559 1184 500 
Q 1428 441 1663 441 
Q 2288 441 2617 861 
Q 2947 1281 2994 2138 
Q 2813 1869 2534 1725 
Q 2256 1581 1919 1581 
Q 1219 1581 811 2004 
Q 403 2428 403 3163 
Q 403 3881 828 4315 
Q 1253 4750 1959 4750 
Q 2769 4750 3195 4129 
Q 3622 3509 3622 2328 
Q 3622 1225 3098 567 
Q 2575 -91 1691 -91 
Q 1453 -91 1209 -44 
Q 966 3 703 97 
z
M 1959 2075 
Q 2384 2075 2632 2365 
Q 2881 2656 2881 3163 
Q 2881 3666 2632 3958 
Q 2384 4250 1959 4250 
Q 1534 4250 1286 3958 
Q 1038 3666 1038 3163 
Q 1038 2656 1286 2365 
Q 1534 2075 1959 2075 
z
" transform="scale(0.015625)"/>
       </defs>
       <use xlink:href="#DejaVuSans-33"/>
       <use xlink:href="#DejaVuSans-37" x="63.623047"/>
       <use xlink:href="#DejaVuSans-39" x="127.246094"/>
       <use xlink:href="#DejaVuSans-30" x="190.869141"/>
       <use xlink:href="#DejaVuSans-30" x="254.492188"/>
       <use xlink:href="#DejaVuSans-30" x="318.115234"/>
      </g>
     </g>
    </g>
   </g>
   <g id="matplotlib.axis_2">
    <g id="ytick_1">
     <g id="line2d_9">
      <defs>
       <path id="med6c5c06d5" d="M 0 0 
L -3.5 0 
" style="stroke: #000000; stroke-width: 0.8"/>
      </defs>
      <g>
       <use xlink:href="#med6c5c06d5" x="90" y="571.788078" style="stroke: #000000; stroke-width: 0.8"/>
      </g>
     </g>
     <g id="text_9">
      <!-- 5.818 -->
      <g transform="translate(54.371875 575.587297) scale(0.1 -0.1)">
       <defs>
        <path id="DejaVuSans-2e" d="M 684 794 
L 1344 794 
L 1344 0 
L 684 0 
L 684 794 
z
" transform="scale(0.015625)"/>
        <path id="DejaVuSans-31" d="M 794 531 
L 1825 531 
L 1825 4091 
L 703 3866 
L 703 4441 
L 1819 4666 
L 2450 4666 
L 2450 531 
L 3481 531 
L 3481 0 
L 794 0 
L 794 531 
z
" transform="scale(0.015625)"/>
       </defs>
       <use xlink:href="#DejaVuSans-35"/>
       <use xlink:href="#DejaVuSans-2e" x="63.623047"/>
       <use xlink:href="#DejaVuSans-38" x="95.410156"/>
       <use xlink:href="#DejaVuSans-31" x="159.033203"/>
       <use xlink:href="#DejaVuSans-38" x="222.65625"/>
      </g>
     </g>
    </g>
    <g id="ytick_2">
     <g id="line2d_10">
      <g>
       <use xlink:href="#med6c5c06d5" x="90" y="501.083622" style="stroke: #000000; stroke-width: 0.8"/>
      </g>
     </g>
     <g id="text_10">
      <!-- 5.819 -->
      <g transform="translate(54.371875 504.882841) scale(0.1 -0.1)">
       <use xlink:href="#DejaVuSans-35"/>
       <use xlink:href="#DejaVuSans-2e" x="63.623047"/>
       <use xlink:href="#DejaVuSans-38" x="95.410156"/>
       <use xlink:href="#DejaVuSans-31" x="159.033203"/>
       <use xlink:href="#DejaVuSans-39" x="222.65625"/>
      </g>
     </g>
    </g>
    <g id="ytick_3">
     <g id="line2d_11">
      <g>
       <use xlink:href="#med6c5c06d5" x="90" y="430.379166" style="stroke: #000000; stroke-width: 0.8"/>
      </g>
     </g>
     <g id="text_11">
      <!-- 5.820 -->
      <g transform="translate(54.371875 434.178384) scale(0.1 -0.1)">
       <use xlink:href="#DejaVuSans-35"/>
       <use xlink:href="#DejaVuSans-2e" x="63.623047"/>
       <use xlink:href="#DejaVuSans-38" x="95.410156"/>
       <use xlink:href="#DejaVuSans-32" x="159.033203"/>
       <use xlink:href="#DejaVuSans-30" x="222.65625"/>
      </g>
     </g>
    </g>
    <g id="ytick_4">
     <g id="line2d_12">
      <g>
       <use xlink:href="#med6c5c06d5" x="90" y="359.674709" style="stroke: #000000; stroke-width: 0.8"/>
      </g>
     </g>
     <g id="text_12">
      <!-- 5.821 -->
      <g transform="translate(54.371875 363.473928) scale(0.1 -0.1)">
       <use xlink:href="#DejaVuSans-35"/>
       <use xlink:href="#DejaVuSans-2e" x="63.623047"/>
       <use xlink:href="#DejaVuSans-38" x="95.410156"/>
       <use xlink:href="#DejaVuSans-32" x="159.033203"/>
       <use xlink:href="#DejaVuSans-31" x="222.65625"/>
      </g>
     </g>
    </g>
    <g id="ytick_5">
     <g id="line2d_13">
      <g>
       <use xlink:href="#med6c5c06d5" x="90" y="288.970253" style="stroke: #000000; stroke-width: 0.8"/>
      </g>
     </g>
     <g id="text_13">
      <!-- 5.822 -->
      <g transform="translate(54.371875 292.769472) scale(0.1 -0.1)">
       <use xlink:href="#DejaVuSans-35"/>
       <use xlink:href="#DejaVuSans-2e" x="63.623047"/>
       <use xlink:href="#DejaVuSans-38" x="95.410156"/>
       <use xlink:href="#DejaVuSans-32" x="159.033203"/>
       <use xlink:href="#DejaVuSans-32" x="222.65625"/>
      </g>
     </g>
    </g>
    <g id="ytick_6">
     <g id="line2d_14">
      <g>
       <use xlink:href="#med6c5c06d5" x="90" y="218.265797" style="stroke: #000000; stroke-width: 0.8"/>
      </g>
     </g>
     <g id="text_14">
      <!-- 5.823 -->
      <g transform="translate(54.371875 222.065016) scale(0.1 -0.1)">
       <use xlink:href="#DejaVuSans-35"/>
       <use xlink:href="#DejaVuSans-2e" x="63.623047"/>
       <use xlink:href="#DejaVuSans-38" x="95.410156"/>
       <use xlink:href="#DejaVuSans-32" x="159.033203"/>
       <use xlink:href="#DejaVuSans-33" x="222.65625"/>
      </g>
     </g>
    </g>
    <g id="ytick_7">
     <g id="line2d_15">
      <g>
       <use xlink:href="#med6c5c06d5" x="90" y="147.561341" style="stroke: #000000; stroke-width: 0.8"/>
      </g>
     </g>
     <g id="text_15">
      <!-- 5.824 -->
      <g transform="translate(54.371875 151.360559) scale(0.1 -0.1)">
       <use xlink:href="#DejaVuSans-35"/>
       <use xlink:href="#DejaVuSans-2e" x="63.623047"/>
       <use xlink:href="#DejaVuSans-38" x="95.410156"/>
       <use xlink:href="#DejaVuSans-32" x="159.033203"/>
       <use xlink:href="#DejaVuSans-34" x="222.65625"/>
      </g>
     </g>
    </g>
    <g id="text_16">
     <!-- 1e6 -->
     <g transform="translate(90 134.833926) scale(0.1 -0.1)">
      <defs>
       <path id="DejaVuSans-65" d="M 3597 1894 
L 3597 1613 
L 953 1613 
Q 991 1019 1311 708 
Q 1631 397 2203 397 
Q 2534 397 2845 478 
Q 3156 559 3463 722 
L 3463 178 
Q 3153 47 2828 -22 
Q 2503 -91 2169 -91 
Q 1331 -91 842 396 
Q 353 884 353 1716 
Q 353 2575 817 3079 
Q 1281 3584 2069 3584 
Q 2775 3584 3186 3129 
Q 3597 2675 3597 1894 
z
M 3022 2063 
Q 3016 2534 2758 2815 
Q 2500 3097 2075 3097 
Q 1594 3097 1305 2825 
Q 1016 2553 972 2059 
L 3022 2063 
z
" transform="scale(0.015625)"/>
      </defs>
      <use xlink:href="#DejaVuSans-31"/>
      <use xlink:href="#DejaVuSans-65" x="63.623047"/>
      <use xlink:href="#DejaVuSans-36" x="125.146484"/>
     </g>
    </g>
   </g>
   <g id="patch_3">
    <path d="M 90 589.366074 
L 90 137.833926 
" style="fill: none; stroke: #000000; stroke-width: 0.8; stroke-linejoin: miter; stroke-linecap: square"/>
   </g>
   <g id="patch_4">
    <path d="M 648 589.366074 
L 648 137.833926 
" style="fill: none; stroke: #000000; stroke-width: 0.8; stroke-linejoin: miter; stroke-linecap: square"/>
   </g>
   <g id="patch_5">
    <path d="M 90 589.366074 
L 648 589.366074 
" style="fill: none; stroke: #000000; stroke-width: 0.8; stroke-linejoin: miter; stroke-linecap: square"/>
   </g>
   <g id="patch_6">
    <path d="M 90 137.833926 
L 648 137.833926 
" style="fill: none; stroke: #000000; stroke-width: 0.8; stroke-linejoin: miter; stroke-linecap: square"/>
   </g>
   <g id="text_17">
    <!-- Wilhelmstadt___Staaken -->
    <g transform="translate(295.2079 375.882217) scale(0.12 -0.12)">
     <defs>
      <path id="DejaVuSans-57" d="M 213 4666 
L 850 4666 
L 1831 722 
L 2809 4666 
L 3519 4666 
L 4500 722 
L 5478 4666 
L 6119 4666 
L 4947 0 
L 4153 0 
L 3169 4050 
L 2175 0 
L 1381 0 
L 213 4666 
z
" transform="scale(0.015625)"/>
      <path id="DejaVuSans-69" d="M 603 3500 
L 1178 3500 
L 1178 0 
L 603 0 
L 603 3500 
z
M 603 4863 
L 1178 4863 
L 1178 4134 
L 603 4134 
L 603 4863 
z
" transform="scale(0.015625)"/>
      <path id="DejaVuSans-6c" d="M 603 4863 
L 1178 4863 
L 1178 0 
L 603 0 
L 603 4863 
z
" transform="scale(0.015625)"/>
      <path id="DejaVuSans-68" d="M 3513 2113 
L 3513 0 
L 2938 0 
L 2938 2094 
Q 2938 2591 2744 2837 
Q 2550 3084 2163 3084 
Q 1697 3084 1428 2787 
Q 1159 2491 1159 1978 
L 1159 0 
L 581 0 
L 581 4863 
L 1159 4863 
L 1159 2956 
Q 1366 3272 1645 3428 
Q 1925 3584 2291 3584 
Q 2894 3584 3203 3211 
Q 3513 2838 3513 2113 
z
" transform="scale(0.015625)"/>
      <path id="DejaVuSans-6d" d="M 3328 2828 
Q 3544 3216 3844 3400 
Q 4144 3584 4550 3584 
Q 5097 3584 5394 3201 
Q 5691 2819 5691 2113 
L 5691 0 
L 5113 0 
L 5113 2094 
Q 5113 2597 4934 2840 
Q 4756 3084 4391 3084 
Q 3944 3084 3684 2787 
Q 3425 2491 3425 1978 
L 3425 0 
L 2847 0 
L 2847 2094 
Q 2847 2600 2669 2842 
Q 2491 3084 2119 3084 
Q 1678 3084 1418 2786 
Q 1159 2488 1159 1978 
L 1159 0 
L 581 0 
L 581 3500 
L 1159 3500 
L 1159 2956 
Q 1356 3278 1631 3431 
Q 1906 3584 2284 3584 
Q 2666 3584 2933 3390 
Q 3200 3197 3328 2828 
z
" transform="scale(0.015625)"/>
      <path id="DejaVuSans-73" d="M 2834 3397 
L 2834 2853 
Q 2591 2978 2328 3040 
Q 2066 3103 1784 3103 
Q 1356 3103 1142 2972 
Q 928 2841 928 2578 
Q 928 2378 1081 2264 
Q 1234 2150 1697 2047 
L 1894 2003 
Q 2506 1872 2764 1633 
Q 3022 1394 3022 966 
Q 3022 478 2636 193 
Q 2250 -91 1575 -91 
Q 1294 -91 989 -36 
Q 684 19 347 128 
L 347 722 
Q 666 556 975 473 
Q 1284 391 1588 391 
Q 1994 391 2212 530 
Q 2431 669 2431 922 
Q 2431 1156 2273 1281 
Q 2116 1406 1581 1522 
L 1381 1569 
Q 847 1681 609 1914 
Q 372 2147 372 2553 
Q 372 3047 722 3315 
Q 1072 3584 1716 3584 
Q 2034 3584 2315 3537 
Q 2597 3491 2834 3397 
z
" transform="scale(0.015625)"/>
      <path id="DejaVuSans-74" d="M 1172 4494 
L 1172 3500 
L 2356 3500 
L 2356 3053 
L 1172 3053 
L 1172 1153 
Q 1172 725 1289 603 
Q 1406 481 1766 481 
L 2356 481 
L 2356 0 
L 1766 0 
Q 1100 0 847 248 
Q 594 497 594 1153 
L 594 3053 
L 172 3053 
L 172 3500 
L 594 3500 
L 594 4494 
L 1172 4494 
z
" transform="scale(0.015625)"/>
      <path id="DejaVuSans-61" d="M 2194 1759 
Q 1497 1759 1228 1600 
Q 959 1441 959 1056 
Q 959 750 1161 570 
Q 1363 391 1709 391 
Q 2188 391 2477 730 
Q 2766 1069 2766 1631 
L 2766 1759 
L 2194 1759 
z
M 3341 1997 
L 3341 0 
L 2766 0 
L 2766 531 
Q 2569 213 2275 61 
Q 1981 -91 1556 -91 
Q 1019 -91 701 211 
Q 384 513 384 1019 
Q 384 1609 779 1909 
Q 1175 2209 1959 2209 
L 2766 2209 
L 2766 2266 
Q 2766 2663 2505 2880 
Q 2244 3097 1772 3097 
Q 1472 3097 1187 3025 
Q 903 2953 641 2809 
L 641 3341 
Q 956 3463 1253 3523 
Q 1550 3584 1831 3584 
Q 2591 3584 2966 3190 
Q 3341 2797 3341 1997 
z
" transform="scale(0.015625)"/>
      <path id="DejaVuSans-64" d="M 2906 2969 
L 2906 4863 
L 3481 4863 
L 3481 0 
L 2906 0 
L 2906 525 
Q 2725 213 2448 61 
Q 2172 -91 1784 -91 
Q 1150 -91 751 415 
Q 353 922 353 1747 
Q 353 2572 751 3078 
Q 1150 3584 1784 3584 
Q 2172 3584 2448 3432 
Q 2725 3281 2906 2969 
z
M 947 1747 
Q 947 1113 1208 752 
Q 1469 391 1925 391 
Q 2381 391 2643 752 
Q 2906 1113 2906 1747 
Q 2906 2381 2643 2742 
Q 2381 3103 1925 3103 
Q 1469 3103 1208 2742 
Q 947 2381 947 1747 
z
" transform="scale(0.015625)"/>
      <path id="DejaVuSans-5f" d="M 3263 -1063 
L 3263 -1509 
L -63 -1509 
L -63 -1063 
L 3263 -1063 
z
" transform="scale(0.015625)"/>
      <path id="DejaVuSans-53" d="M 3425 4513 
L 3425 3897 
Q 3066 4069 2747 4153 
Q 2428 4238 2131 4238 
Q 1616 4238 1336 4038 
Q 1056 3838 1056 3469 
Q 1056 3159 1242 3001 
Q 1428 2844 1947 2747 
L 2328 2669 
Q 3034 2534 3370 2195 
Q 3706 1856 3706 1288 
Q 3706 609 3251 259 
Q 2797 -91 1919 -91 
Q 1588 -91 1214 -16 
Q 841 59 441 206 
L 441 856 
Q 825 641 1194 531 
Q 1563 422 1919 422 
Q 2459 422 2753 634 
Q 3047 847 3047 1241 
Q 3047 1584 2836 1778 
Q 2625 1972 2144 2069 
L 1759 2144 
Q 1053 2284 737 2584 
Q 422 2884 422 3419 
Q 422 4038 858 4394 
Q 1294 4750 2059 4750 
Q 2388 4750 2728 4690 
Q 3069 4631 3425 4513 
z
" transform="scale(0.015625)"/>
      <path id="DejaVuSans-6b" d="M 581 4863 
L 1159 4863 
L 1159 1991 
L 2875 3500 
L 3609 3500 
L 1753 1863 
L 3688 0 
L 2938 0 
L 1159 1709 
L 1159 0 
L 581 0 
L 581 4863 
z
" transform="scale(0.015625)"/>
      <path id="DejaVuSans-6e" d="M 3513 2113 
L 3513 0 
L 2938 0 
L 2938 2094 
Q 2938 2591 2744 2837 
Q 2550 3084 2163 3084 
Q 1697 3084 1428 2787 
Q 1159 2491 1159 1978 
L 1159 0 
L 581 0 
L 581 3500 
L 1159 3500 
L 1159 2956 
Q 1366 3272 1645 3428 
Q 1925 3584 2291 3584 
Q 2894 3584 3203 3211 
Q 3513 2838 3513 2113 
z
" transform="scale(0.015625)"/>
     </defs>
     <use xlink:href="#DejaVuSans-57"/>
     <use xlink:href="#DejaVuSans-69" x="96.626953"/>
     <use xlink:href="#DejaVuSans-6c" x="124.410156"/>
     <use xlink:href="#DejaVuSans-68" x="152.193359"/>
     <use xlink:href="#DejaVuSans-65" x="215.572266"/>
     <use xlink:href="#DejaVuSans-6c" x="277.095703"/>
     <use xlink:href="#DejaVuSans-6d" x="304.878906"/>
     <use xlink:href="#DejaVuSans-73" x="402.291016"/>
     <use xlink:href="#DejaVuSans-74" x="454.390625"/>
     <use xlink:href="#DejaVuSans-61" x="493.599609"/>
     <use xlink:href="#DejaVuSans-64" x="554.878906"/>
     <use xlink:href="#DejaVuSans-74" x="618.355469"/>
     <use xlink:href="#DejaVuSans-5f" x="657.564453"/>
     <use xlink:href="#DejaVuSans-5f" x="707.564453"/>
     <use xlink:href="#DejaVuSans-5f" x="757.564453"/>
     <use xlink:href="#DejaVuSans-53" x="807.564453"/>
     <use xlink:href="#DejaVuSans-74" x="871.041016"/>
     <use xlink:href="#DejaVuSans-61" x="910.25"/>
     <use xlink:href="#DejaVuSans-61" x="971.529297"/>
     <use xlink:href="#DejaVuSans-6b" x="1032.808594"/>
     <use xlink:href="#DejaVuSans-65" x="1087.09375"/>
     <use xlink:href="#DejaVuSans-6e" x="1148.617188"/>
    </g>
   </g>
  </g>
 </g>
 <defs>
  <clipPath id="p566b80d74a">
   <rect x="90" y="137.833926" width="558" height="451.532148"/>
  </clipPath>
 </defs>
</svg>
