<?xml version="1.0" encoding="utf-8" standalone="no"?>
<!DOCTYPE svg PUBLIC "-//W3C//DTD SVG 1.1//EN"
  "http://www.w3.org/Graphics/SVG/1.1/DTD/svg11.dtd">
<svg xmlns:xlink="http://www.w3.org/1999/xlink" width="720pt" height="720pt" viewBox="0 0 720 720" xmlns="http://www.w3.org/2000/svg" version="1.1">
 <metadata>
  <rdf:RDF xmlns:dc="http://purl.org/dc/elements/1.1/" xmlns:cc="http://creativecommons.org/ns#" xmlns:rdf="http://www.w3.org/1999/02/22-rdf-syntax-ns#">
   <cc:Work>
    <dc:type rdf:resource="http://purl.org/dc/dcmitype/StillImage"/>
    <dc:date>2024-10-15T13:01:14.736770</dc:date>
    <dc:format>image/svg+xml</dc:format>
    <dc:creator>
     <cc:Agent>
      <dc:title>Matplotlib v3.9.2, https://matplotlib.org/</dc:title>
     </cc:Agent>
    </dc:creator>
   </cc:Work>
  </rdf:RDF>
 </metadata>
 <defs>
  <style type="text/css">*{stroke-linejoin: round; stroke-linecap: butt}</style>
 </defs>
 <g id="figure_1">
  <g id="patch_1">
   <path d="M 0 720 
L 720 720 
L 720 0 
L 0 0 
z
" style="fill: #ffffff"/>
  </g>
  <g id="axes_1">
   <g id="patch_2">
    <path d="M 90 551.546831 
L 648 551.546831 
L 648 175.653169 
L 90 175.653169 
z
" style="fill: #ffffff"/>
   </g>
   <g id="PatchCollection_1">
    <path d="M 619.350969 488.224551 
L 619.425886 486.705934 
L 619.488022 485.434605 
L 619.585578 483.459641 
L 619.932661 476.433222 
L 619.970974 475.60789 
L 620.004941 474.917518 
L 620.049323 474.013566 
L 620.173594 471.480871 
L 620.296325 468.972632 
L 620.351395 467.884992 
L 620.524396 464.363294 
L 620.685984 461.055176 
L 620.740239 459.964818 
L 620.863876 457.462013 
L 620.938692 455.955457 
L 621.055082 453.594676 
L 621.108432 452.504319 
L 621.264767 449.330072 
L 621.885033 436.757989 
L 621.951788 435.39083 
L 622.042002 433.55032 
L 622.116003 432.041047 
L 622.206217 430.200536 
L 622.27279 428.844156 
L 622.621056 428.846692 
L 622.632288 428.453228 
L 622.636364 428.309393 
L 620.286089 428.226969 
L 620.281651 428.362199 
L 620.269423 428.740808 
L 620.233918 428.947413 
L 620.220875 429.18436 
L 620.172869 430.094381 
L 619.741545 429.99529 
L 619.135227 429.857705 
L 618.927173 429.808975 
L 618.866759 430.073639 
L 618.539688 429.998551 
L 618.07168 429.891218 
L 617.798955 429.82872 
L 617.54842 429.771295 
L 616.909405 429.624742 
L 616.766747 429.592135 
L 615.906453 429.394769 
L 615.522319 429.318594 
L 615.153854 429.222221 
L 614.64545 429.10737 
L 613.216518 428.742529 
L 611.438233 428.29155 
L 610.714166 428.10777 
L 609.355612 427.763127 
L 609.161416 427.713854 
L 608.91061 427.649998 
L 607.448709 427.277367 
L 606.035628 426.917326 
L 604.622637 426.557104 
L 603.902827 426.373596 
L 603.394875 426.217805 
L 602.005706 425.791553 
L 600.716715 425.395915 
L 600.586919 425.356062 
L 600.031505 425.17817 
L 599.252639 424.877457 
L 598.110744 424.436622 
L 597.898071 424.354469 
L 596.760794 423.911551 
L 595.578592 423.451151 
L 594.671652 423.097813 
L 594.242592 422.891209 
L 592.93313 422.260707 
L 592.387136 421.997673 
L 591.969579 421.796685 
L 591.788789 421.709007 
L 591.640606 421.635096 
L 591.137545 421.384109 
L 590.815909 421.223699 
L 590.611116 421.121529 
L 590.440017 421.036296 
L 589.948369 420.791197 
L 589.35138 420.493382 
L 589.04958 420.342572 
L 588.662548 420.149645 
L 588.481576 420.05934 
L 588.265008 419.951283 
L 587.999167 419.818951 
L 587.324464 419.482279 
L 587.100287 419.370417 
L 586.65909 419.150316 
L 586.397415 419.019977 
L 585.886384 418.765005 
L 585.251081 418.448078 
L 582.834596 416.897955 
L 582.588772 416.740262 
L 580.954775 415.692022 
L 579.720401 414.900566 
L 577.508346 413.170468 
L 573.991178 410.419485 
L 573.698163 410.164875 
L 571.239379 408.027998 
L 569.842601 405.820019 
L 568.8353 404.569199 
L 567.780451 403.259336 
L 567.686795 403.142312 
L 567.442239 402.836798 
L 567.156923 402.658272 
L 566.883202 402.285732 
L 566.609299 401.913372 
L 566.335305 401.541013 
L 564.93092 399.63719 
L 563.523002 397.735902 
L 562.111551 395.837332 
L 560.696568 393.941298 
L 560.229466 393.305906 
L 559.756204 392.675132 
L 559.276965 392.048978 
L 558.791567 391.427443 
L 558.300281 390.810619 
L 557.161374 389.35705 
L 555.833163 387.810188 
L 554.709655 386.596012 
L 553.64647 385.339266 
L 553.350829 384.989732 
L 553.235706 384.853505 
L 552.95492 384.521181 
L 552.387006 383.803997 
L 552.378764 383.811062 
L 550.63517 381.580711 
L 550.313986 381.177918 
L 550.209642 381.046402 
L 549.682579 380.362098 
L 548.776363 379.35661 
L 547.979472 378.486896 
L 547.920145 378.408185 
L 547.559379 377.929399 
L 546.21251 376.141876 
L 545.932176 375.769879 
L 544.480962 373.843954 
L 544.098187 373.336003 
L 543.593405 372.666191 
L 542.382037 371.058642 
L 542.419898 370.696428 
L 542.354502 370.614547 
L 540.921947 371.050219 
L 540.756645 371.100489 
L 540.431205 370.393359 
L 540.261736 370.025076 
L 539.702337 369.00727 
L 538.752463 367.518105 
L 537.473707 365.513289 
L 537.116565 365.338929 
L 536.785961 365.435846 
L 531.872295 358.851864 
L 530.79153 357.455892 
L 529.917378 356.419427 
L 529.012883 355.402346 
L 528.117355 354.389068 
L 527.449355 353.603772 
L 527.930315 353.223442 
L 527.08877 352.147758 
L 520.076715 343.184779 
L 514.33318 335.86105 
L 513.557032 334.871413 
L 513.298527 335.034994 
L 512.624458 333.980323 
L 511.793692 332.680734 
L 511.763711 332.633725 
L 511.767425 332.630193 
L 511.740886 332.594415 
L 511.737263 332.597042 
L 511.103953 331.656678 
L 510.316211 330.550289 
L 509.497945 329.47234 
L 509.239242 329.146382 
L 508.650603 328.404717 
L 506.509832 325.717227 
L 505.585501 324.556945 
L 505.983675 324.19319 
L 504.431559 322.180222 
L 504.210462 321.893639 
L 504.145157 321.808859 
L 503.884025 321.993454 
L 503.269374 322.427949 
L 501.473971 320.134919 
L 501.433211 320.082837 
L 501.350696 319.977316 
L 501.139019 319.707036 
L 501.442088 319.458495 
L 500.759052 318.599831 
L 500.510057 318.286709 
L 500.289051 318.008911 
L 500.159889 317.846508 
L 495.674641 312.20768 
L 495.577906 312.19038 
L 493.025103 308.956262 
L 493.026461 308.868765 
L 486.37816 300.488192 
L 483.565584 296.942854 
L 481.707683 294.601003 
L 480.640875 293.350869 
L 480.445412 293.126149 
L 480.339347 293.004415 
L 480.050137 292.679155 
L 479.663104 292.24765 
L 479.264749 291.825655 
L 478.863406 291.409547 
L 478.455178 290.995975 
L 478.046407 290.586389 
L 477.630753 290.182419 
L 477.198432 289.773376 
L 476.760495 289.370493 
L 476.327178 288.983823 
L 475.890329 288.601953 
L 475.454204 288.220627 
L 474.805587 287.644924 
L 474.373991 287.25771 
L 473.949913 286.864337 
L 473.532718 286.475946 
L 473.135179 286.096069 
L 472.864084 285.83693 
L 472.244813 285.224 
L 471.62817 284.610617 
L 471.011073 283.995151 
L 470.396694 283.37887 
L 470.08475 283.075439 
L 469.768729 282.776085 
L 469.446458 282.48307 
L 469.118481 282.19549 
L 468.793312 281.908273 
L 468.729637 281.852116 
L 468.514519 281.660003 
L 468.528014 281.649587 
L 468.410899 281.533106 
L 468.199041 281.322244 
L 468.068974 281.192811 
L 467.847515 280.972438 
L 467.728135 280.853693 
L 467.501875 280.628339 
L 467.378239 280.505427 
L 467.364833 280.515753 
L 467.301249 280.452983 
L 467.165203 280.318478 
L 463.596315 276.788719 
L 461.210264 274.428843 
L 460.897141 274.121065 
L 460.507754 273.72425 
L 459.535779 272.735429 
L 459.21686 272.411709 
L 457.773164 270.943739 
L 455.509843 268.64301 
L 451.965773 265.038707 
L 446.43455 259.537282 
L 446.438354 259.532572 
L 445.482683 258.585959 
L 445.161409 258.253363 
L 444.565145 257.583642 
L 443.621702 256.462851 
L 441.054849 253.413315 
L 440.344108 253.903979 
L 440.290577 253.940934 
L 439.224675 254.675599 
L 438.820614 254.954121 
L 438.653863 254.703859 
L 438.623792 254.721883 
L 438.593449 254.739455 
L 438.562834 254.756574 
L 438.531676 254.77315 
L 438.500155 254.789272 
L 438.468454 254.804851 
L 438.416825 254.824506 
L 438.363657 254.839451 
L 438.309402 254.849415 
L 438.253516 254.854487 
L 438.197359 254.854487 
L 438.153141 254.85033 
L 438.113576 254.846607 
L 438.085678 254.843346 
L 438.057871 254.839542 
L 438.030427 254.835104 
L 438.003163 254.830032 
L 437.97599 254.824416 
L 433.895799 254.158227 
L 433.901958 254.136036 
L 433.356055 254.085766 
L 432.776548 253.994103 
L 431.595523 255.074769 
L 430.382797 253.795559 
L 429.739705 253.770379 
L 428.673169 253.728533 
L 428.198459 253.697103 
L 427.25882 253.607342 
L 426.324435 253.508614 
L 425.857333 253.450735 
L 425.503946 253.402959 
L 424.924125 253.31469 
L 424.461823 253.221668 
L 424.003054 253.105006 
L 423.490755 252.951479 
L 422.159645 252.535009 
L 421.715912 252.371428 
L 421.287124 252.175059 
L 420.237706 251.727612 
L 417.964694 250.773571 
L 417.484277 251.832046 
L 417.190538 251.699442 
L 416.916001 251.575534 
L 415.958881 251.143666 
L 415.769927 251.022626 
L 415.752911 251.04684 
L 415.679997 251.159155 
L 415.06906 252.096076 
L 415.019243 252.172523 
L 414.766354 252.560189 
L 414.235395 253.374561 
L 414.162029 253.486966 
L 413.806879 253.243406 
L 415.381548 250.773934 
L 415.42421 250.719769 
L 415.463157 250.636892 
L 415.499388 250.552837 
L 415.528372 250.465612 
L 415.550111 250.376394 
L 415.568679 250.287267 
L 415.584801 250.197506 
L 415.59567 250.107654 
L 415.607898 250.016987 
L 415.615235 249.926955 
L 415.62393 249.837012 
L 415.649563 249.631132 
L 415.844302 247.443896 
L 416.12518 246.511322 
L 416.238309 246.135611 
L 415.116159 245.953643 
L 414.413991 245.862801 
L 411.14303 245.439623 
L 409.83556 245.605378 
L 409.624155 245.33383 
L 408.874636 244.372362 
L 408.8548 244.347001 
L 408.865488 244.338849 
L 408.710331 244.139762 
L 408.864039 244.018481 
L 408.222849 243.191066 
L 407.259661 241.947906 
L 407.244625 241.930787 
L 407.249607 241.92345 
L 407.097801 241.723186 
L 407.269986 241.590492 
L 406.734499 240.763893 
L 405.850384 239.39927 
L 405.838066 239.380158 
L 405.845493 239.375448 
L 405.792324 239.293386 
L 405.706186 239.160511 
L 405.867593 239.059337 
L 405.144794 237.952404 
L 404.87533 236.986226 
L 404.679051 236.276742 
L 404.575522 235.857736 
L 404.408409 234.683233 
L 404.37236 234.454075 
L 404.298087 234.025015 
L 404.225445 233.662528 
L 404.143564 233.302035 
L 404.052625 232.943715 
L 403.952538 232.587841 
L 403.843575 232.234593 
L 403.725554 231.884244 
L 403.598747 231.536974 
L 403.43725 231.118421 
L 403.271676 230.701589 
L 403.102027 230.286296 
L 402.928392 229.872634 
L 402.666627 229.264324 
L 402.400513 228.657916 
L 402.129962 228.053409 
L 401.856512 227.452164 
L 401.578714 226.852911 
L 401.296569 226.255651 
L 401.20862 226.073683 
L 401.120308 225.891806 
L 401.031543 225.7102 
L 400.954825 225.553956 
L 400.877835 225.397802 
L 400.800573 225.24183 
L 400.632464 224.904886 
L 400.462905 224.568667 
L 400.292078 224.233082 
L 400.256481 224.163428 
L 400.220885 224.093775 
L 400.185288 224.024213 
L 400.178223 224.010264 
L 400.171068 223.996315 
L 400.163822 223.982457 
L 400.085202 223.829655 
L 400.00631 223.677034 
L 399.927146 223.524594 
L 399.889466 223.173339 
L 399.861388 222.911664 
L 399.394829 221.807176 
L 398.519952 220.330329 
L 398.398399 220.152981 
L 398.270415 219.980161 
L 398.136271 219.812142 
L 397.996059 219.649105 
L 397.977129 219.62791 
L 397.958107 219.606896 
L 397.938905 219.585883 
L 397.89253 219.530631 
L 397.845431 219.476014 
L 397.797697 219.42194 
L 397.433489 218.999129 
L 396.875177 218.068277 
L 395.404399 215.682768 
L 393.880815 213.212933 
L 393.462171 212.511239 
L 393.049958 211.804109 
L 392.963005 211.643789 
L 391.098763 208.20977 
L 390.828665 207.712415 
L 390.552498 207.203648 
L 390.539726 207.210713 
L 390.455762 207.052385 
L 387.62172 201.725502 
L 387.502974 201.496072 
L 387.388939 201.264287 
L 387.279523 201.030238 
L 387.174816 200.794106 
L 387.069657 200.545655 
L 386.969752 200.29503 
L 386.875009 200.042413 
L 386.78561 199.787893 
L 386.701555 199.531563 
L 386.781353 199.514262 
L 386.571536 198.719815 
L 386.504683 198.416442 
L 386.45598 198.165566 
L 386.40626 197.886099 
L 386.363071 197.61687 
L 386.322536 197.306435 
L 386.299896 197.104758 
L 386.268956 196.781391 
L 386.252067 196.547292 
L 386.232419 196.15125 
L 386.226293 195.885711 
L 386.2292 195.290055 
L 386.246319 194.901483 
L 386.27476 194.513635 
L 386.290973 194.381303 
L 386.321936 194.069163 
L 386.352929 193.834402 
L 386.394438 193.560192 
L 386.427199 193.357156 
L 386.308907 193.340309 
L 386.349394 193.139139 
L 386.393505 192.938784 
L 386.441329 192.739245 
L 384.719564 193.546099 
L 383.311918 194.203683 
L 382.505245 194.58048 
L 382.360957 194.647869 
L 382.226904 194.710457 
L 381.027855 195.269856 
L 379.31284 196.069838 
L 379.27149 196.089119 
L 378.269353 196.55604 
L 378.100791 196.63457 
L 372.455169 199.270974 
L 347.528296 210.90686 
L 344.827401 212.174929 
L 341.89454 213.538374 
L 338.748282 215.008699 
L 335.646224 216.457286 
L 335.567604 216.493789 
L 332.290009 218.010127 
L 332.089836 218.105051 
L 331.907959 217.715754 
L 331.464678 218.022445 
L 331.73695 218.613637 
L 332.183129 219.580358 
L 332.633203 220.539017 
L 328.386533 223.097436 
L 328.008739 223.388276 
L 327.414921 223.939433 
L 326.728533 224.556711 
L 326.07258 225.374796 
L 325.638447 225.77143 
L 323.053762 228.716518 
L 323.68055 229.234705 
L 319.769012 232.318467 
L 318.6513 233.609632 
L 316.737875 235.969688 
L 313.159386 240.498142 
L 309.315509 245.211642 
L 306.531918 248.756165 
L 303.697151 252.366809 
L 300.885753 256.084695 
L 299.40637 258.388684 
L 295.59048 265.017512 
L 292.264246 270.803255 
L 289.94812 274.766965 
L 285.984047 281.852116 
L 284.427674 284.633805 
L 283.347099 286.634817 
L 282.139807 288.585378 
L 281.519631 289.479275 
L 280.900814 290.298085 
L 279.398062 292.259334 
L 278.794734 292.980593 
L 277.889876 293.983182 
L 275.51415 296.131652 
L 274.421619 295.096456 
L 272.679746 297.059697 
L 271.574715 298.30014 
L 269.658482 300.095 
L 267.084847 302.128891 
L 264.244645 304.353083 
L 263.471395 304.963296 
L 262.448879 304.150464 
L 262.346347 304.256257 
L 262.028605 303.866235 
L 262.090378 303.806727 
L 261.392216 303.086102 
L 261.081087 302.015943 
L 260.409825 302.830948 
L 259.70641 302.244285 
L 260.204489 301.627914 
L 259.248909 301.488426 
L 258.440968 300.832744 
L 258.304651 300.722241 
L 257.478323 300.051795 
L 256.932148 299.604258 
L 256.267952 300.396076 
L 255.439269 301.380187 
L 246.769757 312.058863 
L 241.821483 318.245678 
L 235.976382 325.354316 
L 231.464535 330.841492 
L 231.368071 330.959241 
L 231.323054 331.136861 
L 230.599424 332.022491 
L 231.144257 332.464981 
L 232.039694 333.192219 
L 232.922089 333.908858 
L 233.20369 334.093453 
L 234.196135 334.771235 
L 234.743035 335.204824 
L 235.667157 336.040165 
L 237.103816 337.338802 
L 237.388383 337.59603 
L 236.955452 338.177177 
L 236.468695 338.912384 
L 235.397539 340.512506 
L 231.067448 349.219063 
L 230.477977 351.533922 
L 230.429972 352.282173 
L 230.332421 353.800141 
L 228.442637 356.991779 
L 225.94418 361.211186 
L 223.839549 365.962819 
L 222.124486 369.837764 
L 219.675484 375.039381 
L 218.99752 376.479363 
L 216.181684 382.464736 
L 215.439139 384.038409 
L 213.139407 388.912411 
L 213.086057 389.02536 
L 210.998998 392.543615 
L 208.143308 396.680417 
L 207.829008 397.058573 
L 204.028064 401.631318 
L 198.194587 408.635584 
L 192.880203 415.036431 
L 191.119037 417.002118 
L 185.065913 422.794745 
L 184.833041 422.988669 
L 184.446099 423.38811 
L 182.493908 424.954265 
L 179.804878 427.105725 
L 178.572769 428.111122 
L 177.328069 429.108186 
L 176.172044 430.001812 
L 172.110964 433.382935 
L 170.445719 434.768662 
L 159.281192 445.801309 
L 159.067885 446.01208 
L 158.650509 445.669974 
L 157.883327 446.498566 
L 154.684353 450.048161 
L 152.484436 453.089532 
L 151.376869 454.441384 
L 150.019492 456.098296 
L 147.553643 459.107875 
L 143.338583 464.254965 
L 142.430103 465.362713 
L 141.182595 467.668605 
L 140.3079 468.748003 
L 139.341632 470.81106 
L 137.671314 472.311818 
L 137.050051 472.869678 
L 134.469804 475.184718 
L 129.522525 481.277062 
L 128.729258 482.253837 
L 128.30364 482.777368 
L 125.006209 486.833194 
L 123.014255 489.283464 
L 122.172258 490.316578 
L 120.373231 492.524013 
L 119.777148 493.256504 
L 118.240068 495.145473 
L 118.50754 495.352077 
L 118.903993 495.658135 
L 120.168347 496.635906 
L 118.208185 499.125758 
L 116.894104 498.041922 
L 116.040785 499.2407 
L 115.849216 499.509892 
L 115.363636 500.192023 
L 119.621629 501.677927 
L 119.569638 501.844497 
L 124.622347 503.399964 
L 133.210702 506.059647 
L 135.040706 506.573667 
L 137.724663 507.101184 
L 141.961461 508.477944 
L 144.033122 509.342585 
L 148.794629 510.549062 
L 150.589398 511.251753 
L 159.208459 513.96723 
L 165.317378 515.688543 
L 166.699663 516.124305 
L 169.461063 516.560883 
L 170.39101 516.453279 
L 171.82266 517.373534 
L 172.90713 518.0707 
L 173.196974 518.257377 
L 173.36269 518.28808 
L 173.807096 518.370417 
L 174.22583 518.548671 
L 180.453314 520.415086 
L 189.136775 523.016529 
L 191.823449 523.811155 
L 197.770146 525.728383 
L 201.450715 526.695014 
L 202.635362 526.98196 
L 204.217187 527.196807 
L 205.56922 527.304049 
L 207.93462 527.319175 
L 210.582619 527.099528 
L 213.086691 526.92073 
L 215.896912 526.977793 
L 219.036106 527.267547 
L 220.955961 527.37651 
L 221.747961 527.496614 
L 230.680597 528.854715 
L 231.117718 528.917394 
L 231.896402 529.028169 
L 232.627987 529.131788 
L 237.03226 529.670174 
L 238.089467 529.894984 
L 240.802681 530.242707 
L 241.648482 530.347504 
L 242.332333 530.438442 
L 244.730613 528.871834 
L 245.58203 528.535706 
L 246.600017 528.203653 
L 248.147423 527.131773 
L 249.754247 526.269305 
L 250.634196 525.530655 
L 251.153289 524.901059 
L 251.695388 524.307241 
L 252.144556 523.593047 
L 252.948783 522.217193 
L 253.083651 521.980607 
L 253.146239 521.883147 
L 253.394509 521.639678 
L 258.101398 518.072783 
L 258.222589 517.98275 
L 258.821842 518.718683 
L 260.573678 520.900304 
L 261.324737 521.79402 
L 261.379626 521.858511 
L 260.740157 522.338112 
L 260.827835 522.454503 
L 260.984713 522.662285 
L 261.010437 522.696523 
L 261.156446 522.591454 
L 261.659416 522.671705 
L 262.384117 523.620129 
L 262.319265 524.123371 
L 264.034871 524.780049 
L 264.513476 525.234743 
L 264.920164 525.475313 
L 265.862067 525.856368 
L 267.181673 526.190323 
L 269.850504 526.539041 
L 272.644964 526.381076 
L 274.348524 526.147208 
L 277.964511 525.317529 
L 285.725542 523.986963 
L 286.325429 523.729364 
L 287.424029 522.968614 
L 288.792275 523.415789 
L 302.394482 521.353095 
L 304.918391 520.94378 
L 316.851368 518.979633 
L 324.939651 517.722343 
L 324.931318 517.781942 
L 328.206829 517.248176 
L 330.560545 516.864586 
L 331.196663 516.750822 
L 331.666391 516.673651 
L 334.653779 516.182546 
L 336.886938 515.814716 
L 340.149588 515.277145 
L 341.626887 515.034401 
L 343.694835 514.693381 
L 347.540705 514.060886 
L 349.773049 513.693056 
L 350.883334 513.50674 
L 354.114644 512.978771 
L 357.942761 512.348541 
L 357.946565 512.240846 
L 361.227148 511.715413 
L 361.195809 512.410405 
L 363.392375 512.0654 
L 363.344551 513.056304 
L 363.611026 512.805046 
L 365.600807 512.427161 
L 368.270544 511.922651 
L 369.905808 511.612337 
L 372.357256 511.149039 
L 372.736318 511.077393 
L 376.13773 510.432943 
L 378.2468 510.007596 
L 379.159175 509.735052 
L 380.429417 509.373109 
L 381.635441 509.031184 
L 383.141997 508.603392 
L 384.884866 508.109479 
L 389.556339 506.785344 
L 390.506032 506.486805 
L 390.87667 506.370323 
L 393.231745 505.592726 
L 395.122073 504.968383 
L 398.742045 503.785547 
L 401.460784 502.892555 
L 402.291912 502.620374 
L 407.087385 501.01509 
L 408.312157 500.622713 
L 410.208825 500.00308 
L 412.81063 499.153112 
L 415.603279 498.240103 
L 417.434098 497.641575 
L 418.664396 497.238329 
L 420.300295 496.705197 
L 423.852788 495.54736 
L 426.483396 494.687881 
L 427.808165 494.254926 
L 429.937705 497.193675 
L 431.250105 498.970759 
L 432.590232 500.785388 
L 433.406553 499.661004 
L 434.279209 498.459026 
L 434.486447 496.418795 
L 440.47336 498.412017 
L 441.961076 498.90765 
L 443.506399 499.422486 
L 445.147098 499.968118 
L 446.781548 500.512663 
L 448.918967 501.227129 
L 450.727414 501.829733 
L 461.1186 505.292012 
L 464.000467 506.252574 
L 465.983092 506.913328 
L 467.358312 507.370648 
L 470.209564 508.320522 
L 471.84664 508.866154 
L 473.52049 509.433252 
L 475.177312 510.039842 
L 476.899168 510.701139 
L 478.632617 511.32367 
L 480.45148 511.929807 
L 481.095025 512.143114 
L 481.70721 512.3177 
L 482.316537 512.491471 
L 506.935722 519.719641 
L 514.10049 521.784147 
L 514.827597 521.994442 
L 515.491289 522.186397 
L 532.376887 527.065833 
L 533.42087 527.367362 
L 533.194339 528.133819 
L 535.037929 526.963391 
L 538.707719 524.635761 
L 540.342349 523.598119 
L 540.783456 523.905535 
L 542.519804 525.115816 
L 543.562971 525.842962 
L 545.529383 527.213563 
L 545.742509 527.010219 
L 546.340766 527.698147 
L 546.937392 528.377922 
L 547.785639 527.647243 
L 549.338932 526.30934 
L 550.278933 525.499678 
L 550.609265 525.846495 
L 553.351463 528.624833 
L 555.353109 530.526754 
L 555.582086 530.744047 
L 556.358415 531.480613 
L 556.495729 531.607148 
L 556.636847 531.729426 
L 556.781678 531.847266 
L 556.91401 531.951972 
L 557.046614 532.056316 
L 557.179671 532.160117 
L 557.311912 532.261381 
L 557.444697 532.362011 
L 557.577844 532.462008 
L 557.986253 532.763899 
L 558.398918 533.059992 
L 558.815751 533.350199 
L 559.236568 533.634427 
L 559.661462 533.912678 
L 559.718162 533.364057 
L 559.844154 533.259804 
L 559.972501 533.158721 
L 560.103383 533.060717 
L 560.260171 532.951029 
L 560.419857 532.84587 
L 560.582532 532.745149 
L 560.747924 532.649048 
L 560.967844 532.530936 
L 561.19193 532.420886 
L 561.41982 532.319169 
L 561.651333 532.225785 
L 561.886106 532.140915 
L 562.123688 532.064287 
L 562.363896 531.996445 
L 562.60646 531.93739 
L 562.851016 531.88721 
L 563.097202 531.845998 
L 563.257069 531.82435 
L 563.41748 531.806597 
L 563.578253 531.792649 
L 563.796542 531.779062 
L 564.015193 531.77245 
L 564.233935 531.772812 
L 564.452496 531.78024 
L 565.615133 531.839567 
L 574.697854 532.302956 
L 576.027877 532.373515 
L 579.964867 532.571514 
L 592.360054 533.204733 
L 594.534338 533.314965 
L 598.202498 533.502458 
L 600.141555 533.600914 
L 607.873331 533.996008 
L 609.352713 534.071277 
L 611.661141 534.178519 
L 614.256153 534.311214 
L 616.184341 534.409398 
L 617.074525 534.460755 
L 617.163018 532.667978 
L 617.247164 530.949655 
L 617.387104 528.114798 
L 617.520251 525.400225 
L 617.613364 523.502742 
L 617.707472 521.602542 
L 617.803302 519.656238 
L 617.954202 516.581535 
L 618.007371 515.495706 
L 618.159177 512.416473 
L 618.25238 510.515367 
L 618.371759 508.095802 
L 618.380454 507.924794 
L 618.391052 507.792009 
L 618.409167 507.66004 
L 618.434619 507.529338 
L 618.467408 507.400267 
L 618.506718 507.273369 
L 618.553093 507.148827 
L 618.606442 507.027092 
L 618.666494 506.908528 
L 618.691675 506.47349 
L 618.858063 506.478472 
L 618.878534 506.069429 
L 618.966936 506.073867 
L 618.995377 505.494722 
L 619.435125 505.090118 
L 619.381866 505.032058 
L 619.425162 504.992114 
L 619.26466 504.814222 
L 619.485848 504.612871 
L 619.456592 504.581532 
L 619.435397 504.553272 
L 619.420089 504.52148 
L 619.411213 504.487242 
L 619.40922 504.452008 
L 619.414202 504.416864 
L 619.425977 504.383351 
L 619.444092 504.352736 
L 619.467733 504.326288 
L 619.823607 503.99976 
L 621.124192 502.80533 
L 621.188954 501.447139 
L 619.991082 500.136499 
L 619.661022 499.776096 
L 619.559486 499.640141 
L 619.493818 499.472213 
L 619.487297 499.433174 
L 619.527785 499.257366 
L 619.546534 499.224215 
L 619.689916 499.09297 
L 619.733665 499.052844 
L 619.337937 498.620614 
L 619.360218 498.162751 
L 619.287848 498.159581 
L 619.306507 497.79492 
L 619.378968 497.798181 
L 619.404329 497.273201 
L 619.331959 497.270031 
L 619.349712 496.906276 
L 619.422082 496.909446 
L 619.440922 496.585636 
L 618.940578 496.560818 
L 619.063038 494.074136 
L 619.175533 491.777664 
L 619.263845 489.990594 
L 619.350969 488.224551 
" clip-path="url(#p7bd55b736b)" style="fill: #d3d3d3"/>
   </g>
   <g id="PatchCollection_2">
    <path d="M 618.209973 432.603836 
L 618.209973 432.51326 
L 618.119397 432.51326 
L 618.119397 432.603836 
L 618.209973 432.603836 
" clip-path="url(#p7bd55b736b)" style="fill: #ff0000; fill-opacity: 0.7; stroke: #000000; stroke-opacity: 0.7; stroke-width: 0.5"/>
    <path d="M 441.157691 466.789605 
L 441.157691 466.699029 
L 441.067115 466.699029 
L 441.067115 466.789605 
L 441.157691 466.789605 
" clip-path="url(#p7bd55b736b)" style="fill: #ff0000; fill-opacity: 0.7; stroke: #000000; stroke-opacity: 0.7; stroke-width: 0.5"/>
    <path d="M 577.452017 501.343818 
L 577.452017 501.253242 
L 577.361441 501.253242 
L 577.361441 501.343818 
L 577.452017 501.343818 
" clip-path="url(#p7bd55b736b)" style="fill: #ff0000; fill-opacity: 0.7; stroke: #000000; stroke-opacity: 0.7; stroke-width: 0.5"/>
    <path d="M 257.939563 308.998328 
L 257.939563 308.907752 
L 257.848986 308.907752 
L 257.848986 308.998328 
L 257.939563 308.998328 
" clip-path="url(#p7bd55b736b)" style="fill: #ff0000; fill-opacity: 0.7; stroke: #000000; stroke-opacity: 0.7; stroke-width: 0.5"/>
    <path d="M 488.880817 466.031627 
L 488.880817 465.941051 
L 488.790241 465.941051 
L 488.790241 466.031627 
L 488.880817 466.031627 
" clip-path="url(#p7bd55b736b)" style="fill: #ff0000; fill-opacity: 0.7; stroke: #000000; stroke-opacity: 0.7; stroke-width: 0.5"/>
    <path d="M 428.759678 426.925957 
L 428.759678 426.835381 
L 428.669102 426.835381 
L 428.669102 426.925957 
L 428.759678 426.925957 
" clip-path="url(#p7bd55b736b)" style="fill: #ff0000; fill-opacity: 0.7; stroke: #000000; stroke-opacity: 0.7; stroke-width: 0.5"/>
    <path d="M 439.365434 444.41425 
L 439.365434 444.323674 
L 439.274857 444.323674 
L 439.274857 444.41425 
L 439.365434 444.41425 
" clip-path="url(#p7bd55b736b)" style="fill: #ff0000; fill-opacity: 0.7; stroke: #000000; stroke-opacity: 0.7; stroke-width: 0.5"/>
    <path d="M 598.628653 469.663656 
L 598.628653 469.57308 
L 598.538077 469.57308 
L 598.538077 469.663656 
L 598.628653 469.663656 
" clip-path="url(#p7bd55b736b)" style="fill: #ff0000; fill-opacity: 0.7; stroke: #000000; stroke-opacity: 0.7; stroke-width: 0.5"/>
    <path d="M 418.44021 439.31225 
L 418.44021 439.221673 
L 418.349634 439.221673 
L 418.349634 439.31225 
L 418.44021 439.31225 
" clip-path="url(#p7bd55b736b)" style="fill: #ff0000; fill-opacity: 0.7; stroke: #000000; stroke-opacity: 0.7; stroke-width: 0.5"/>
    <path d="M 381.25491 423.637448 
L 381.25491 423.546872 
L 381.164333 423.546872 
L 381.164333 423.637448 
L 381.25491 423.637448 
" clip-path="url(#p7bd55b736b)" style="fill: #ff0000; fill-opacity: 0.7; stroke: #000000; stroke-opacity: 0.7; stroke-width: 0.5"/>
    <path d="M 578.996995 480.061859 
L 578.996995 479.971283 
L 578.906418 479.971283 
L 578.906418 480.061859 
L 578.996995 480.061859 
" clip-path="url(#p7bd55b736b)" style="fill: #ff0000; fill-opacity: 0.7; stroke: #000000; stroke-opacity: 0.7; stroke-width: 0.5"/>
    <path d="M 328.008851 452.291432 
L 328.008851 452.200856 
L 327.918274 452.200856 
L 327.918274 452.291432 
L 328.008851 452.291432 
" clip-path="url(#p7bd55b736b)" style="fill: #ff0000; fill-opacity: 0.7; stroke: #000000; stroke-opacity: 0.7; stroke-width: 0.5"/>
    <path d="M 399.456509 425.978032 
L 399.456509 425.887455 
L 399.365932 425.887455 
L 399.365932 425.978032 
L 399.456509 425.978032 
" clip-path="url(#p7bd55b736b)" style="fill: #ff0000; fill-opacity: 0.7; stroke: #000000; stroke-opacity: 0.7; stroke-width: 0.5"/>
    <path d="M 487.859675 477.473523 
L 487.859675 477.382947 
L 487.769098 477.382947 
L 487.769098 477.473523 
L 487.859675 477.473523 
" clip-path="url(#p7bd55b736b)" style="fill: #ff0000; fill-opacity: 0.7; stroke: #000000; stroke-opacity: 0.7; stroke-width: 0.5"/>
    <path d="M 487.859675 477.473523 
L 487.859675 477.382947 
L 487.769098 477.382947 
L 487.769098 477.473523 
L 487.859675 477.473523 
" clip-path="url(#p7bd55b736b)" style="fill: #ff0000; fill-opacity: 0.7; stroke: #000000; stroke-opacity: 0.7; stroke-width: 0.5"/>
    <path d="M 554.194275 441.949749 
L 554.194275 441.859172 
L 554.103698 441.859172 
L 554.103698 441.949749 
L 554.194275 441.949749 
" clip-path="url(#p7bd55b736b)" style="fill: #ff0000; fill-opacity: 0.7; stroke: #000000; stroke-opacity: 0.7; stroke-width: 0.5"/>
    <path d="M 587.043041 476.138599 
L 587.043041 476.048023 
L 586.952465 476.048023 
L 586.952465 476.138599 
L 587.043041 476.138599 
" clip-path="url(#p7bd55b736b)" style="fill: #ff0000; fill-opacity: 0.7; stroke: #000000; stroke-opacity: 0.7; stroke-width: 0.5"/>
    <path d="M 508.187973 357.323622 
L 508.187973 357.233046 
L 508.097397 357.233046 
L 508.097397 357.323622 
L 508.187973 357.323622 
" clip-path="url(#p7bd55b736b)" style="fill: #ff0000; fill-opacity: 0.7; stroke: #000000; stroke-opacity: 0.7; stroke-width: 0.5"/>
    <path d="M 445.058454 467.758784 
L 445.058454 467.668208 
L 444.967878 467.668208 
L 444.967878 467.758784 
L 445.058454 467.758784 
" clip-path="url(#p7bd55b736b)" style="fill: #ff0000; fill-opacity: 0.7; stroke: #000000; stroke-opacity: 0.7; stroke-width: 0.5"/>
    <path d="M 460.613762 310.444568 
L 460.613762 310.353992 
L 460.523185 310.353992 
L 460.523185 310.444568 
L 460.613762 310.444568 
" clip-path="url(#p7bd55b736b)" style="fill: #ff0000; fill-opacity: 0.7; stroke: #000000; stroke-opacity: 0.7; stroke-width: 0.5"/>
    <path d="M 509.019218 470.130217 
L 509.019218 470.039641 
L 508.928641 470.039641 
L 508.928641 470.130217 
L 509.019218 470.130217 
" clip-path="url(#p7bd55b736b)" style="fill: #ff0000; fill-opacity: 0.7; stroke: #000000; stroke-opacity: 0.7; stroke-width: 0.5"/>
    <path d="M 488.816109 394.316895 
L 488.816109 394.226319 
L 488.725532 394.226319 
L 488.725532 394.316895 
L 488.816109 394.316895 
" clip-path="url(#p7bd55b736b)" style="fill: #ff0000; fill-opacity: 0.7; stroke: #000000; stroke-opacity: 0.7; stroke-width: 0.5"/>
   </g>
   <g id="matplotlib.axis_1">
    <g id="xtick_1">
     <g id="line2d_1">
      <defs>
       <path id="m9755d185fe" d="M 0 0 
L 0 3.5 
" style="stroke: #000000; stroke-width: 0.8"/>
      </defs>
      <g>
       <use xlink:href="#m9755d185fe" x="175.599601" y="551.546831" style="stroke: #000000; stroke-width: 0.8"/>
      </g>
     </g>
     <g id="text_1">
      <!-- 381000 -->
      <g transform="translate(156.512101 566.145268) scale(0.1 -0.1)">
       <defs>
        <path id="DejaVuSans-33" d="M 2597 2516 
Q 3050 2419 3304 2112 
Q 3559 1806 3559 1356 
Q 3559 666 3084 287 
Q 2609 -91 1734 -91 
Q 1441 -91 1130 -33 
Q 819 25 488 141 
L 488 750 
Q 750 597 1062 519 
Q 1375 441 1716 441 
Q 2309 441 2620 675 
Q 2931 909 2931 1356 
Q 2931 1769 2642 2001 
Q 2353 2234 1838 2234 
L 1294 2234 
L 1294 2753 
L 1863 2753 
Q 2328 2753 2575 2939 
Q 2822 3125 2822 3475 
Q 2822 3834 2567 4026 
Q 2313 4219 1838 4219 
Q 1578 4219 1281 4162 
Q 984 4106 628 3988 
L 628 4550 
Q 988 4650 1302 4700 
Q 1616 4750 1894 4750 
Q 2613 4750 3031 4423 
Q 3450 4097 3450 3541 
Q 3450 3153 3228 2886 
Q 3006 2619 2597 2516 
z
" transform="scale(0.015625)"/>
        <path id="DejaVuSans-38" d="M 2034 2216 
Q 1584 2216 1326 1975 
Q 1069 1734 1069 1313 
Q 1069 891 1326 650 
Q 1584 409 2034 409 
Q 2484 409 2743 651 
Q 3003 894 3003 1313 
Q 3003 1734 2745 1975 
Q 2488 2216 2034 2216 
z
M 1403 2484 
Q 997 2584 770 2862 
Q 544 3141 544 3541 
Q 544 4100 942 4425 
Q 1341 4750 2034 4750 
Q 2731 4750 3128 4425 
Q 3525 4100 3525 3541 
Q 3525 3141 3298 2862 
Q 3072 2584 2669 2484 
Q 3125 2378 3379 2068 
Q 3634 1759 3634 1313 
Q 3634 634 3220 271 
Q 2806 -91 2034 -91 
Q 1263 -91 848 271 
Q 434 634 434 1313 
Q 434 1759 690 2068 
Q 947 2378 1403 2484 
z
M 1172 3481 
Q 1172 3119 1398 2916 
Q 1625 2713 2034 2713 
Q 2441 2713 2670 2916 
Q 2900 3119 2900 3481 
Q 2900 3844 2670 4047 
Q 2441 4250 2034 4250 
Q 1625 4250 1398 4047 
Q 1172 3844 1172 3481 
z
" transform="scale(0.015625)"/>
        <path id="DejaVuSans-31" d="M 794 531 
L 1825 531 
L 1825 4091 
L 703 3866 
L 703 4441 
L 1819 4666 
L 2450 4666 
L 2450 531 
L 3481 531 
L 3481 0 
L 794 0 
L 794 531 
z
" transform="scale(0.015625)"/>
        <path id="DejaVuSans-30" d="M 2034 4250 
Q 1547 4250 1301 3770 
Q 1056 3291 1056 2328 
Q 1056 1369 1301 889 
Q 1547 409 2034 409 
Q 2525 409 2770 889 
Q 3016 1369 3016 2328 
Q 3016 3291 2770 3770 
Q 2525 4250 2034 4250 
z
M 2034 4750 
Q 2819 4750 3233 4129 
Q 3647 3509 3647 2328 
Q 3647 1150 3233 529 
Q 2819 -91 2034 -91 
Q 1250 -91 836 529 
Q 422 1150 422 2328 
Q 422 3509 836 4129 
Q 1250 4750 2034 4750 
z
" transform="scale(0.015625)"/>
       </defs>
       <use xlink:href="#DejaVuSans-33"/>
       <use xlink:href="#DejaVuSans-38" x="63.623047"/>
       <use xlink:href="#DejaVuSans-31" x="127.246094"/>
       <use xlink:href="#DejaVuSans-30" x="190.869141"/>
       <use xlink:href="#DejaVuSans-30" x="254.492188"/>
       <use xlink:href="#DejaVuSans-30" x="318.115234"/>
      </g>
     </g>
    </g>
    <g id="xtick_2">
     <g id="line2d_2">
      <g>
       <use xlink:href="#m9755d185fe" x="266.175913" y="551.546831" style="stroke: #000000; stroke-width: 0.8"/>
      </g>
     </g>
     <g id="text_2">
      <!-- 382000 -->
      <g transform="translate(247.088413 566.145268) scale(0.1 -0.1)">
       <defs>
        <path id="DejaVuSans-32" d="M 1228 531 
L 3431 531 
L 3431 0 
L 469 0 
L 469 531 
Q 828 903 1448 1529 
Q 2069 2156 2228 2338 
Q 2531 2678 2651 2914 
Q 2772 3150 2772 3378 
Q 2772 3750 2511 3984 
Q 2250 4219 1831 4219 
Q 1534 4219 1204 4116 
Q 875 4013 500 3803 
L 500 4441 
Q 881 4594 1212 4672 
Q 1544 4750 1819 4750 
Q 2544 4750 2975 4387 
Q 3406 4025 3406 3419 
Q 3406 3131 3298 2873 
Q 3191 2616 2906 2266 
Q 2828 2175 2409 1742 
Q 1991 1309 1228 531 
z
" transform="scale(0.015625)"/>
       </defs>
       <use xlink:href="#DejaVuSans-33"/>
       <use xlink:href="#DejaVuSans-38" x="63.623047"/>
       <use xlink:href="#DejaVuSans-32" x="127.246094"/>
       <use xlink:href="#DejaVuSans-30" x="190.869141"/>
       <use xlink:href="#DejaVuSans-30" x="254.492188"/>
       <use xlink:href="#DejaVuSans-30" x="318.115234"/>
      </g>
     </g>
    </g>
    <g id="xtick_3">
     <g id="line2d_3">
      <g>
       <use xlink:href="#m9755d185fe" x="356.752226" y="551.546831" style="stroke: #000000; stroke-width: 0.8"/>
      </g>
     </g>
     <g id="text_3">
      <!-- 383000 -->
      <g transform="translate(337.664726 566.145268) scale(0.1 -0.1)">
       <use xlink:href="#DejaVuSans-33"/>
       <use xlink:href="#DejaVuSans-38" x="63.623047"/>
       <use xlink:href="#DejaVuSans-33" x="127.246094"/>
       <use xlink:href="#DejaVuSans-30" x="190.869141"/>
       <use xlink:href="#DejaVuSans-30" x="254.492188"/>
       <use xlink:href="#DejaVuSans-30" x="318.115234"/>
      </g>
     </g>
    </g>
    <g id="xtick_4">
     <g id="line2d_4">
      <g>
       <use xlink:href="#m9755d185fe" x="447.328538" y="551.546831" style="stroke: #000000; stroke-width: 0.8"/>
      </g>
     </g>
     <g id="text_4">
      <!-- 384000 -->
      <g transform="translate(428.241038 566.145268) scale(0.1 -0.1)">
       <defs>
        <path id="DejaVuSans-34" d="M 2419 4116 
L 825 1625 
L 2419 1625 
L 2419 4116 
z
M 2253 4666 
L 3047 4666 
L 3047 1625 
L 3713 1625 
L 3713 1100 
L 3047 1100 
L 3047 0 
L 2419 0 
L 2419 1100 
L 313 1100 
L 313 1709 
L 2253 4666 
z
" transform="scale(0.015625)"/>
       </defs>
       <use xlink:href="#DejaVuSans-33"/>
       <use xlink:href="#DejaVuSans-38" x="63.623047"/>
       <use xlink:href="#DejaVuSans-34" x="127.246094"/>
       <use xlink:href="#DejaVuSans-30" x="190.869141"/>
       <use xlink:href="#DejaVuSans-30" x="254.492188"/>
       <use xlink:href="#DejaVuSans-30" x="318.115234"/>
      </g>
     </g>
    </g>
    <g id="xtick_5">
     <g id="line2d_5">
      <g>
       <use xlink:href="#m9755d185fe" x="537.90485" y="551.546831" style="stroke: #000000; stroke-width: 0.8"/>
      </g>
     </g>
     <g id="text_5">
      <!-- 385000 -->
      <g transform="translate(518.81735 566.145268) scale(0.1 -0.1)">
       <defs>
        <path id="DejaVuSans-35" d="M 691 4666 
L 3169 4666 
L 3169 4134 
L 1269 4134 
L 1269 2991 
Q 1406 3038 1543 3061 
Q 1681 3084 1819 3084 
Q 2600 3084 3056 2656 
Q 3513 2228 3513 1497 
Q 3513 744 3044 326 
Q 2575 -91 1722 -91 
Q 1428 -91 1123 -41 
Q 819 9 494 109 
L 494 744 
Q 775 591 1075 516 
Q 1375 441 1709 441 
Q 2250 441 2565 725 
Q 2881 1009 2881 1497 
Q 2881 1984 2565 2268 
Q 2250 2553 1709 2553 
Q 1456 2553 1204 2497 
Q 953 2441 691 2322 
L 691 4666 
z
" transform="scale(0.015625)"/>
       </defs>
       <use xlink:href="#DejaVuSans-33"/>
       <use xlink:href="#DejaVuSans-38" x="63.623047"/>
       <use xlink:href="#DejaVuSans-35" x="127.246094"/>
       <use xlink:href="#DejaVuSans-30" x="190.869141"/>
       <use xlink:href="#DejaVuSans-30" x="254.492188"/>
       <use xlink:href="#DejaVuSans-30" x="318.115234"/>
      </g>
     </g>
    </g>
    <g id="xtick_6">
     <g id="line2d_6">
      <g>
       <use xlink:href="#m9755d185fe" x="628.481162" y="551.546831" style="stroke: #000000; stroke-width: 0.8"/>
      </g>
     </g>
     <g id="text_6">
      <!-- 386000 -->
      <g transform="translate(609.393662 566.145268) scale(0.1 -0.1)">
       <defs>
        <path id="DejaVuSans-36" d="M 2113 2584 
Q 1688 2584 1439 2293 
Q 1191 2003 1191 1497 
Q 1191 994 1439 701 
Q 1688 409 2113 409 
Q 2538 409 2786 701 
Q 3034 994 3034 1497 
Q 3034 2003 2786 2293 
Q 2538 2584 2113 2584 
z
M 3366 4563 
L 3366 3988 
Q 3128 4100 2886 4159 
Q 2644 4219 2406 4219 
Q 1781 4219 1451 3797 
Q 1122 3375 1075 2522 
Q 1259 2794 1537 2939 
Q 1816 3084 2150 3084 
Q 2853 3084 3261 2657 
Q 3669 2231 3669 1497 
Q 3669 778 3244 343 
Q 2819 -91 2113 -91 
Q 1303 -91 875 529 
Q 447 1150 447 2328 
Q 447 3434 972 4092 
Q 1497 4750 2381 4750 
Q 2619 4750 2861 4703 
Q 3103 4656 3366 4563 
z
" transform="scale(0.015625)"/>
       </defs>
       <use xlink:href="#DejaVuSans-33"/>
       <use xlink:href="#DejaVuSans-38" x="63.623047"/>
       <use xlink:href="#DejaVuSans-36" x="127.246094"/>
       <use xlink:href="#DejaVuSans-30" x="190.869141"/>
       <use xlink:href="#DejaVuSans-30" x="254.492188"/>
       <use xlink:href="#DejaVuSans-30" x="318.115234"/>
      </g>
     </g>
    </g>
   </g>
   <g id="matplotlib.axis_2">
    <g id="ytick_1">
     <g id="line2d_7">
      <defs>
       <path id="m2482caebd3" d="M 0 0 
L -3.5 0 
" style="stroke: #000000; stroke-width: 0.8"/>
      </defs>
      <g>
       <use xlink:href="#m2482caebd3" x="90" y="516.9059" style="stroke: #000000; stroke-width: 0.8"/>
      </g>
     </g>
     <g id="text_7">
      <!-- 5.8145 -->
      <g transform="translate(48.009375 520.705118) scale(0.1 -0.1)">
       <defs>
        <path id="DejaVuSans-2e" d="M 684 794 
L 1344 794 
L 1344 0 
L 684 0 
L 684 794 
z
" transform="scale(0.015625)"/>
       </defs>
       <use xlink:href="#DejaVuSans-35"/>
       <use xlink:href="#DejaVuSans-2e" x="63.623047"/>
       <use xlink:href="#DejaVuSans-38" x="95.410156"/>
       <use xlink:href="#DejaVuSans-31" x="159.033203"/>
       <use xlink:href="#DejaVuSans-34" x="222.65625"/>
       <use xlink:href="#DejaVuSans-35" x="286.279297"/>
      </g>
     </g>
    </g>
    <g id="ytick_2">
     <g id="line2d_8">
      <g>
       <use xlink:href="#m2482caebd3" x="90" y="471.617743" style="stroke: #000000; stroke-width: 0.8"/>
      </g>
     </g>
     <g id="text_8">
      <!-- 5.8150 -->
      <g transform="translate(48.009375 475.416962) scale(0.1 -0.1)">
       <use xlink:href="#DejaVuSans-35"/>
       <use xlink:href="#DejaVuSans-2e" x="63.623047"/>
       <use xlink:href="#DejaVuSans-38" x="95.410156"/>
       <use xlink:href="#DejaVuSans-31" x="159.033203"/>
       <use xlink:href="#DejaVuSans-35" x="222.65625"/>
       <use xlink:href="#DejaVuSans-30" x="286.279297"/>
      </g>
     </g>
    </g>
    <g id="ytick_3">
     <g id="line2d_9">
      <g>
       <use xlink:href="#m2482caebd3" x="90" y="426.329587" style="stroke: #000000; stroke-width: 0.8"/>
      </g>
     </g>
     <g id="text_9">
      <!-- 5.8155 -->
      <g transform="translate(48.009375 430.128806) scale(0.1 -0.1)">
       <use xlink:href="#DejaVuSans-35"/>
       <use xlink:href="#DejaVuSans-2e" x="63.623047"/>
       <use xlink:href="#DejaVuSans-38" x="95.410156"/>
       <use xlink:href="#DejaVuSans-31" x="159.033203"/>
       <use xlink:href="#DejaVuSans-35" x="222.65625"/>
       <use xlink:href="#DejaVuSans-35" x="286.279297"/>
      </g>
     </g>
    </g>
    <g id="ytick_4">
     <g id="line2d_10">
      <g>
       <use xlink:href="#m2482caebd3" x="90" y="381.041431" style="stroke: #000000; stroke-width: 0.8"/>
      </g>
     </g>
     <g id="text_10">
      <!-- 5.8160 -->
      <g transform="translate(48.009375 384.84065) scale(0.1 -0.1)">
       <use xlink:href="#DejaVuSans-35"/>
       <use xlink:href="#DejaVuSans-2e" x="63.623047"/>
       <use xlink:href="#DejaVuSans-38" x="95.410156"/>
       <use xlink:href="#DejaVuSans-31" x="159.033203"/>
       <use xlink:href="#DejaVuSans-36" x="222.65625"/>
       <use xlink:href="#DejaVuSans-30" x="286.279297"/>
      </g>
     </g>
    </g>
    <g id="ytick_5">
     <g id="line2d_11">
      <g>
       <use xlink:href="#m2482caebd3" x="90" y="335.753275" style="stroke: #000000; stroke-width: 0.8"/>
      </g>
     </g>
     <g id="text_11">
      <!-- 5.8165 -->
      <g transform="translate(48.009375 339.552494) scale(0.1 -0.1)">
       <use xlink:href="#DejaVuSans-35"/>
       <use xlink:href="#DejaVuSans-2e" x="63.623047"/>
       <use xlink:href="#DejaVuSans-38" x="95.410156"/>
       <use xlink:href="#DejaVuSans-31" x="159.033203"/>
       <use xlink:href="#DejaVuSans-36" x="222.65625"/>
       <use xlink:href="#DejaVuSans-35" x="286.279297"/>
      </g>
     </g>
    </g>
    <g id="ytick_6">
     <g id="line2d_12">
      <g>
       <use xlink:href="#m2482caebd3" x="90" y="290.465119" style="stroke: #000000; stroke-width: 0.8"/>
      </g>
     </g>
     <g id="text_12">
      <!-- 5.8170 -->
      <g transform="translate(48.009375 294.264338) scale(0.1 -0.1)">
       <defs>
        <path id="DejaVuSans-37" d="M 525 4666 
L 3525 4666 
L 3525 4397 
L 1831 0 
L 1172 0 
L 2766 4134 
L 525 4134 
L 525 4666 
z
" transform="scale(0.015625)"/>
       </defs>
       <use xlink:href="#DejaVuSans-35"/>
       <use xlink:href="#DejaVuSans-2e" x="63.623047"/>
       <use xlink:href="#DejaVuSans-38" x="95.410156"/>
       <use xlink:href="#DejaVuSans-31" x="159.033203"/>
       <use xlink:href="#DejaVuSans-37" x="222.65625"/>
       <use xlink:href="#DejaVuSans-30" x="286.279297"/>
      </g>
     </g>
    </g>
    <g id="ytick_7">
     <g id="line2d_13">
      <g>
       <use xlink:href="#m2482caebd3" x="90" y="245.176963" style="stroke: #000000; stroke-width: 0.8"/>
      </g>
     </g>
     <g id="text_13">
      <!-- 5.8175 -->
      <g transform="translate(48.009375 248.976182) scale(0.1 -0.1)">
       <use xlink:href="#DejaVuSans-35"/>
       <use xlink:href="#DejaVuSans-2e" x="63.623047"/>
       <use xlink:href="#DejaVuSans-38" x="95.410156"/>
       <use xlink:href="#DejaVuSans-31" x="159.033203"/>
       <use xlink:href="#DejaVuSans-37" x="222.65625"/>
       <use xlink:href="#DejaVuSans-35" x="286.279297"/>
      </g>
     </g>
    </g>
    <g id="ytick_8">
     <g id="line2d_14">
      <g>
       <use xlink:href="#m2482caebd3" x="90" y="199.888807" style="stroke: #000000; stroke-width: 0.8"/>
      </g>
     </g>
     <g id="text_14">
      <!-- 5.8180 -->
      <g transform="translate(48.009375 203.688025) scale(0.1 -0.1)">
       <use xlink:href="#DejaVuSans-35"/>
       <use xlink:href="#DejaVuSans-2e" x="63.623047"/>
       <use xlink:href="#DejaVuSans-38" x="95.410156"/>
       <use xlink:href="#DejaVuSans-31" x="159.033203"/>
       <use xlink:href="#DejaVuSans-38" x="222.65625"/>
       <use xlink:href="#DejaVuSans-30" x="286.279297"/>
      </g>
     </g>
    </g>
    <g id="text_15">
     <!-- 1e6 -->
     <g transform="translate(90 172.653169) scale(0.1 -0.1)">
      <defs>
       <path id="DejaVuSans-65" d="M 3597 1894 
L 3597 1613 
L 953 1613 
Q 991 1019 1311 708 
Q 1631 397 2203 397 
Q 2534 397 2845 478 
Q 3156 559 3463 722 
L 3463 178 
Q 3153 47 2828 -22 
Q 2503 -91 2169 -91 
Q 1331 -91 842 396 
Q 353 884 353 1716 
Q 353 2575 817 3079 
Q 1281 3584 2069 3584 
Q 2775 3584 3186 3129 
Q 3597 2675 3597 1894 
z
M 3022 2063 
Q 3016 2534 2758 2815 
Q 2500 3097 2075 3097 
Q 1594 3097 1305 2825 
Q 1016 2553 972 2059 
L 3022 2063 
z
" transform="scale(0.015625)"/>
      </defs>
      <use xlink:href="#DejaVuSans-31"/>
      <use xlink:href="#DejaVuSans-65" x="63.623047"/>
      <use xlink:href="#DejaVuSans-36" x="125.146484"/>
     </g>
    </g>
   </g>
   <g id="patch_3">
    <path d="M 90 551.546831 
L 90 175.653169 
" style="fill: none; stroke: #000000; stroke-width: 0.8; stroke-linejoin: miter; stroke-linecap: square"/>
   </g>
   <g id="patch_4">
    <path d="M 648 551.546831 
L 648 175.653169 
" style="fill: none; stroke: #000000; stroke-width: 0.8; stroke-linejoin: miter; stroke-linecap: square"/>
   </g>
   <g id="patch_5">
    <path d="M 90 551.546831 
L 648 551.546831 
" style="fill: none; stroke: #000000; stroke-width: 0.8; stroke-linejoin: miter; stroke-linecap: square"/>
   </g>
   <g id="patch_6">
    <path d="M 90 175.653169 
L 648 175.653169 
" style="fill: none; stroke: #000000; stroke-width: 0.8; stroke-linejoin: miter; stroke-linecap: square"/>
   </g>
   <g id="text_16">
    <!-- Wilmersdorf_Süd -->
    <g transform="translate(329.81887 406.823222) scale(0.12 -0.12)">
     <defs>
      <path id="DejaVuSans-57" d="M 213 4666 
L 850 4666 
L 1831 722 
L 2809 4666 
L 3519 4666 
L 4500 722 
L 5478 4666 
L 6119 4666 
L 4947 0 
L 4153 0 
L 3169 4050 
L 2175 0 
L 1381 0 
L 213 4666 
z
" transform="scale(0.015625)"/>
      <path id="DejaVuSans-69" d="M 603 3500 
L 1178 3500 
L 1178 0 
L 603 0 
L 603 3500 
z
M 603 4863 
L 1178 4863 
L 1178 4134 
L 603 4134 
L 603 4863 
z
" transform="scale(0.015625)"/>
      <path id="DejaVuSans-6c" d="M 603 4863 
L 1178 4863 
L 1178 0 
L 603 0 
L 603 4863 
z
" transform="scale(0.015625)"/>
      <path id="DejaVuSans-6d" d="M 3328 2828 
Q 3544 3216 3844 3400 
Q 4144 3584 4550 3584 
Q 5097 3584 5394 3201 
Q 5691 2819 5691 2113 
L 5691 0 
L 5113 0 
L 5113 2094 
Q 5113 2597 4934 2840 
Q 4756 3084 4391 3084 
Q 3944 3084 3684 2787 
Q 3425 2491 3425 1978 
L 3425 0 
L 2847 0 
L 2847 2094 
Q 2847 2600 2669 2842 
Q 2491 3084 2119 3084 
Q 1678 3084 1418 2786 
Q 1159 2488 1159 1978 
L 1159 0 
L 581 0 
L 581 3500 
L 1159 3500 
L 1159 2956 
Q 1356 3278 1631 3431 
Q 1906 3584 2284 3584 
Q 2666 3584 2933 3390 
Q 3200 3197 3328 2828 
z
" transform="scale(0.015625)"/>
      <path id="DejaVuSans-72" d="M 2631 2963 
Q 2534 3019 2420 3045 
Q 2306 3072 2169 3072 
Q 1681 3072 1420 2755 
Q 1159 2438 1159 1844 
L 1159 0 
L 581 0 
L 581 3500 
L 1159 3500 
L 1159 2956 
Q 1341 3275 1631 3429 
Q 1922 3584 2338 3584 
Q 2397 3584 2469 3576 
Q 2541 3569 2628 3553 
L 2631 2963 
z
" transform="scale(0.015625)"/>
      <path id="DejaVuSans-73" d="M 2834 3397 
L 2834 2853 
Q 2591 2978 2328 3040 
Q 2066 3103 1784 3103 
Q 1356 3103 1142 2972 
Q 928 2841 928 2578 
Q 928 2378 1081 2264 
Q 1234 2150 1697 2047 
L 1894 2003 
Q 2506 1872 2764 1633 
Q 3022 1394 3022 966 
Q 3022 478 2636 193 
Q 2250 -91 1575 -91 
Q 1294 -91 989 -36 
Q 684 19 347 128 
L 347 722 
Q 666 556 975 473 
Q 1284 391 1588 391 
Q 1994 391 2212 530 
Q 2431 669 2431 922 
Q 2431 1156 2273 1281 
Q 2116 1406 1581 1522 
L 1381 1569 
Q 847 1681 609 1914 
Q 372 2147 372 2553 
Q 372 3047 722 3315 
Q 1072 3584 1716 3584 
Q 2034 3584 2315 3537 
Q 2597 3491 2834 3397 
z
" transform="scale(0.015625)"/>
      <path id="DejaVuSans-64" d="M 2906 2969 
L 2906 4863 
L 3481 4863 
L 3481 0 
L 2906 0 
L 2906 525 
Q 2725 213 2448 61 
Q 2172 -91 1784 -91 
Q 1150 -91 751 415 
Q 353 922 353 1747 
Q 353 2572 751 3078 
Q 1150 3584 1784 3584 
Q 2172 3584 2448 3432 
Q 2725 3281 2906 2969 
z
M 947 1747 
Q 947 1113 1208 752 
Q 1469 391 1925 391 
Q 2381 391 2643 752 
Q 2906 1113 2906 1747 
Q 2906 2381 2643 2742 
Q 2381 3103 1925 3103 
Q 1469 3103 1208 2742 
Q 947 2381 947 1747 
z
" transform="scale(0.015625)"/>
      <path id="DejaVuSans-6f" d="M 1959 3097 
Q 1497 3097 1228 2736 
Q 959 2375 959 1747 
Q 959 1119 1226 758 
Q 1494 397 1959 397 
Q 2419 397 2687 759 
Q 2956 1122 2956 1747 
Q 2956 2369 2687 2733 
Q 2419 3097 1959 3097 
z
M 1959 3584 
Q 2709 3584 3137 3096 
Q 3566 2609 3566 1747 
Q 3566 888 3137 398 
Q 2709 -91 1959 -91 
Q 1206 -91 779 398 
Q 353 888 353 1747 
Q 353 2609 779 3096 
Q 1206 3584 1959 3584 
z
" transform="scale(0.015625)"/>
      <path id="DejaVuSans-66" d="M 2375 4863 
L 2375 4384 
L 1825 4384 
Q 1516 4384 1395 4259 
Q 1275 4134 1275 3809 
L 1275 3500 
L 2222 3500 
L 2222 3053 
L 1275 3053 
L 1275 0 
L 697 0 
L 697 3053 
L 147 3053 
L 147 3500 
L 697 3500 
L 697 3744 
Q 697 4328 969 4595 
Q 1241 4863 1831 4863 
L 2375 4863 
z
" transform="scale(0.015625)"/>
      <path id="DejaVuSans-5f" d="M 3263 -1063 
L 3263 -1509 
L -63 -1509 
L -63 -1063 
L 3263 -1063 
z
" transform="scale(0.015625)"/>
      <path id="DejaVuSans-53" d="M 3425 4513 
L 3425 3897 
Q 3066 4069 2747 4153 
Q 2428 4238 2131 4238 
Q 1616 4238 1336 4038 
Q 1056 3838 1056 3469 
Q 1056 3159 1242 3001 
Q 1428 2844 1947 2747 
L 2328 2669 
Q 3034 2534 3370 2195 
Q 3706 1856 3706 1288 
Q 3706 609 3251 259 
Q 2797 -91 1919 -91 
Q 1588 -91 1214 -16 
Q 841 59 441 206 
L 441 856 
Q 825 641 1194 531 
Q 1563 422 1919 422 
Q 2459 422 2753 634 
Q 3047 847 3047 1241 
Q 3047 1584 2836 1778 
Q 2625 1972 2144 2069 
L 1759 2144 
Q 1053 2284 737 2584 
Q 422 2884 422 3419 
Q 422 4038 858 4394 
Q 1294 4750 2059 4750 
Q 2388 4750 2728 4690 
Q 3069 4631 3425 4513 
z
" transform="scale(0.015625)"/>
      <path id="DejaVuSans-fc" d="M 544 1381 
L 544 3500 
L 1119 3500 
L 1119 1403 
Q 1119 906 1312 657 
Q 1506 409 1894 409 
Q 2359 409 2629 706 
Q 2900 1003 2900 1516 
L 2900 3500 
L 3475 3500 
L 3475 0 
L 2900 0 
L 2900 538 
Q 2691 219 2414 64 
Q 2138 -91 1772 -91 
Q 1169 -91 856 284 
Q 544 659 544 1381 
z
M 1991 3584 
L 1991 3584 
z
M 2278 4850 
L 2913 4850 
L 2913 4219 
L 2278 4219 
L 2278 4850 
z
M 1056 4850 
L 1691 4850 
L 1691 4219 
L 1056 4219 
L 1056 4850 
z
" transform="scale(0.015625)"/>
     </defs>
     <use xlink:href="#DejaVuSans-57"/>
     <use xlink:href="#DejaVuSans-69" x="96.626953"/>
     <use xlink:href="#DejaVuSans-6c" x="124.410156"/>
     <use xlink:href="#DejaVuSans-6d" x="152.193359"/>
     <use xlink:href="#DejaVuSans-65" x="249.605469"/>
     <use xlink:href="#DejaVuSans-72" x="311.128906"/>
     <use xlink:href="#DejaVuSans-73" x="352.242188"/>
     <use xlink:href="#DejaVuSans-64" x="404.341797"/>
     <use xlink:href="#DejaVuSans-6f" x="467.818359"/>
     <use xlink:href="#DejaVuSans-72" x="529"/>
     <use xlink:href="#DejaVuSans-66" x="570.113281"/>
     <use xlink:href="#DejaVuSans-5f" x="605.318359"/>
     <use xlink:href="#DejaVuSans-53" x="655.318359"/>
     <use xlink:href="#DejaVuSans-fc" x="718.794922"/>
     <use xlink:href="#DejaVuSans-64" x="782.173828"/>
    </g>
   </g>
  </g>
 </g>
 <defs>
  <clipPath id="p7bd55b736b">
   <rect x="90" y="175.653169" width="558" height="375.893661"/>
  </clipPath>
 </defs>
</svg>
