<?xml version="1.0" encoding="utf-8" standalone="no"?>
<!DOCTYPE svg PUBLIC "-//W3C//DTD SVG 1.1//EN"
  "http://www.w3.org/Graphics/SVG/1.1/DTD/svg11.dtd">
<svg xmlns:xlink="http://www.w3.org/1999/xlink" width="720pt" height="720pt" viewBox="0 0 720 720" xmlns="http://www.w3.org/2000/svg" version="1.1">
 <metadata>
  <rdf:RDF xmlns:dc="http://purl.org/dc/elements/1.1/" xmlns:cc="http://creativecommons.org/ns#" xmlns:rdf="http://www.w3.org/1999/02/22-rdf-syntax-ns#">
   <cc:Work>
    <dc:type rdf:resource="http://purl.org/dc/dcmitype/StillImage"/>
    <dc:date>2024-10-15T09:51:18.354617</dc:date>
    <dc:format>image/svg+xml</dc:format>
    <dc:creator>
     <cc:Agent>
      <dc:title>Matplotlib v3.8.4, https://matplotlib.org/</dc:title>
     </cc:Agent>
    </dc:creator>
   </cc:Work>
  </rdf:RDF>
 </metadata>
 <defs>
  <style type="text/css">*{stroke-linejoin: round; stroke-linecap: butt}</style>
 </defs>
 <g id="figure_1">
  <g id="patch_1">
   <path d="M 0 720 
L 720 720 
L 720 0 
L 0 0 
z
" style="fill: #ffffff"/>
  </g>
  <g id="axes_1">
   <g id="patch_2">
    <path d="M 126.491101 640.8 
L 611.508899 640.8 
L 611.508899 86.4 
L 126.491101 86.4 
z
" style="fill: #ffffff"/>
   </g>
   <g id="PatchCollection_1">
    <path d="M 566.588988 443.978409 
L 566.645759 443.767992 
L 566.655802 443.730653 
L 566.720572 443.51821 
L 566.774626 443.322483 
L 566.868514 443.033071 
L 567.361944 441.418993 
L 567.751579 440.132206 
L 567.866292 439.758814 
L 568.14883 438.842925 
L 568.540824 437.55196 
L 568.931875 436.267734 
L 569.327576 434.974207 
L 569.351637 434.89535 
L 569.717279 433.694295 
L 570.115608 432.396927 
L 570.508074 431.107916 
L 570.901484 429.818905 
L 571.293613 428.529759 
L 571.686483 427.241489 
L 572.079286 425.953894 
L 572.471954 424.664007 
L 572.842987 423.464906 
L 572.865768 423.375265 
L 572.940783 423.14139 
L 573.014923 422.920927 
L 573.299482 422.093061 
L 573.733803 420.815845 
L 573.966128 420.135382 
L 574.657914 418.109563 
L 574.669305 418.079772 
L 574.79952 417.694855 
L 574.941059 417.280417 
L 575.935333 414.364927 
L 576.12149 413.823306 
L 576.320048 413.074972 
L 576.463945 412.521422 
L 576.660953 411.769246 
L 576.973282 410.56873 
L 577.001387 410.464059 
L 577.007857 410.435414 
L 577.339934 409.165275 
L 577.682389 407.855438 
L 578.022621 406.554025 
L 578.3642 405.247356 
L 578.447236 404.929838 
L 578.651321 403.923432 
L 578.919301 402.602002 
L 579.188089 401.276595 
L 579.343579 400.509861 
L 579.538835 399.980036 
L 579.707737 399.521653 
L 580.008068 398.706661 
L 580.295863 397.92328 
L 580.401276 397.636361 
L 580.474134 397.438342 
L 580.941548 396.170292 
L 581.011778 395.980361 
L 581.406468 394.907904 
L 582.540394 391.832677 
L 582.605906 391.530931 
L 582.649378 391.341943 
L 582.661279 391.290081 
L 582.762811 390.847637 
L 583.33402 388.378397 
L 583.630712 387.06492 
L 583.939805 385.754139 
L 584.243978 384.432912 
L 584.546466 383.119098 
L 584.849493 381.805621 
L 585.156968 380.492616 
L 585.460197 379.177454 
L 585.729862 377.993046 
L 586.151242 376.148733 
L 586.502864 372.698227 
L 586.555772 372.151552 
L 586.608748 371.601169 
L 586.816742 369.519543 
L 586.883063 368.85721 
L 586.983623 368.146485 
L 587.171734 366.810699 
L 587.360183 365.476193 
L 587.392939 365.245553 
L 587.522548 364.13852 
L 587.679453 362.799836 
L 587.699605 362.649333 
L 587.888863 361.053319 
L 588.044353 359.742268 
L 588.104136 359.314148 
L 588.220332 358.451707 
L 588.312737 357.572281 
L 588.496467 355.841872 
L 588.677097 354.104926 
L 588.855638 352.42965 
L 588.944605 351.617017 
L 588.98983 351.093527 
L 589.002838 350.82339 
L 589.018891 350.490275 
L 589.032089 350.216393 
L 589.049343 349.858907 
L 589.112227 348.9935 
L 589.462636 344.168791 
L 586.752983 344.402127 
L 584.087611 344.746335 
L 583.88939 344.772284 
L 583.28219 344.803557 
L 577.44238 345.104899 
L 577.122975 344.337896 
L 576.806671 343.571431 
L 576.741361 343.415335 
L 576.725859 343.377995 
L 575.483421 340.402655 
L 575.456326 340.235033 
L 575.294231 339.227818 
L 575.274887 339.111487 
L 575.241727 338.904639 
L 575.218272 338.757978 
L 575.161791 338.397661 
L 575.114005 338.11236 
L 574.28304 334.942573 
L 574.123169 334.418678 
L 574.071204 334.248293 
L 574.011488 334.052565 
L 574.01041 334.048926 
L 573.937203 333.794194 
L 573.935934 333.789775 
L 572.667884 329.614121 
L 572.630881 329.488961 
L 569.029536 330.366567 
L 566.170257 331.17219 
L 562.98025 332.163431 
L 561.367116 332.769418 
L 560.15494 333.223419 
L 557.698911 334.042051 
L 556.980906 334.279431 
L 555.895306 334.644735 
L 554.808493 335.00923 
L 554.58311 335.076832 
L 553.903119 335.306798 
L 553.737923 335.388891 
L 552.697009 335.882321 
L 551.656027 336.375751 
L 551.073563 336.653705 
L 550.674491 336.843839 
L 549.944153 337.190743 
L 549.71048 337.303367 
L 549.209973 337.54223 
L 548.472894 337.885494 
L 547.743095 338.237049 
L 546.765199 338.703452 
L 545.851602 339.139255 
L 545.125308 339.48434 
L 543.713158 340.155636 
L 543.035998 340.478142 
L 541.369686 339.107713 
L 539.026213 337.180296 
L 536.579754 334.943381 
L 534.545847 333.083633 
L 532.834444 331.51869 
L 532.665744 331.364345 
L 532.636291 331.337521 
L 532.321334 331.049591 
L 532.306371 331.035909 
L 532.1128 330.867411 
L 531.692296 330.504061 
L 531.346269 330.174614 
L 530.765826 329.649708 
L 530.551496 329.455868 
L 530.440557 329.355578 
L 530.382796 329.303343 
L 530.333527 329.258792 
L 530.164894 329.106335 
L 527.515833 326.700181 
L 525.88194 325.228249 
L 523.189609 322.802684 
L 522.715388 322.370183 
L 521.972648 321.684597 
L 521.081427 320.861922 
L 520.190207 320.039246 
L 519.883945 319.771806 
L 518.210016 318.206795 
L 518.142819 318.143979 
L 518.045967 318.06775 
L 517.8174 317.887894 
L 517.639886 317.74821 
L 517.554693 317.681148 
L 517.488844 317.622309 
L 516.006465 316.297037 
L 511.479593 312.48608 
L 508.661562 310.113761 
L 506.726799 308.496178 
L 499.587329 305.294578 
L 497.635379 303.832553 
L 497.202743 303.565652 
L 493.589064 301.274414 
L 487.473254 297.226683 
L 487.248478 297.077866 
L 485.572932 295.946704 
L 485.3952 295.826733 
L 484.332718 295.109403 
L 482.696533 294.004796 
L 476.580387 289.875647 
L 473.871071 288.046566 
L 464.692571 281.849945 
L 463.310684 280.917072 
L 460.235592 278.840972 
L 456.134751 276.072412 
L 448.262449 270.845734 
L 444.952269 268.648046 
L 444.727695 268.498959 
L 443.885406 267.939747 
L 438.771891 260.401408 
L 438.631903 260.195032 
L 438.59517 260.140843 
L 438.232966 259.606973 
L 437.796219 258.963041 
L 436.226625 256.649156 
L 433.030821 251.937947 
L 432.853426 251.676438 
L 432.645769 251.370311 
L 432.470059 251.111363 
L 432.086278 250.545588 
L 432.072808 250.525731 
L 431.978247 250.386281 
L 431.933898 250.320904 
L 426.830426 242.797461 
L 426.576128 242.422519 
L 419.996477 232.722888 
L 420.336439 230.891717 
L 420.428439 230.39613 
L 420.524011 229.88147 
L 421.292834 225.740189 
L 422.362932 219.976338 
L 422.45473 219.482032 
L 423.284078 215.015011 
L 424.311513 209.480857 
L 424.392122 209.046536 
L 424.948638 206.049021 
L 425.567498 202.715655 
L 427.970821 189.770615 
L 428.004656 189.588435 
L 428.239744 188.322272 
L 429.907202 179.340511 
L 429.953775 179.089651 
L 431.016392 173.366105 
L 431.987346 168.136191 
L 432.070112 167.69048 
L 433.189412 161.661548 
L 433.33614 160.871224 
L 435.754021 147.847866 
L 426.30242 153.100897 
L 420.965543 156.134943 
L 419.892884 156.525926 
L 419.299973 156.742075 
L 414.389801 158.531795 
L 413.117236 159.137378 
L 400.713344 165.040408 
L 396.643372 167.102219 
L 387.64166 170.148733 
L 382.976216 174.235892 
L 377.827046 178.317592 
L 377.701212 178.417343 
L 377.253276 177.823421 
L 377.189651 177.739037 
L 377.100213 177.620481 
L 376.936432 177.318398 
L 376.525432 175.980253 
L 376.620397 174.571204 
L 376.50164 173.615078 
L 376.522466 172.936906 
L 376.635966 172.506292 
L 376.874695 171.926456 
L 377.148673 171.501639 
L 377.238718 171.268572 
L 377.167949 170.997357 
L 376.926659 170.491661 
L 376.021959 169.222196 
L 375.492605 168.212959 
L 374.733555 167.533642 
L 373.655975 167.120956 
L 372.803914 167.097434 
L 372.257508 166.931227 
L 372.038393 165.73981 
L 373.028623 163.011218 
L 375.756676 156.079743 
L 378.872139 148.441788 
L 378.954838 148.217753 
L 379.682279 146.246998 
L 380.549774 144.256428 
L 380.70176 143.907704 
L 380.749883 143.797237 
L 380.791873 143.700856 
L 380.832851 143.606767 
L 381.351691 142.416226 
L 383.442416 139.208358 
L 385.09235 137.149849 
L 389.693361 129.741524 
L 397.292494 117.505659 
L 398.39272 116.524595 
L 397.937977 115.792504 
L 395.777022 111.6 
L 385.431503 123.432818 
L 382.508532 120.460577 
L 381.000002 118.927581 
L 379.174897 116.724501 
L 377.621209 114.850465 
L 377.493555 114.963156 
L 376.527184 116.191508 
L 371.190443 122.97484 
L 368.417502 126.499484 
L 360.387418 137.263956 
L 359.59979 138.319833 
L 355.086938 144.369389 
L 354.961305 144.312774 
L 354.474548 144.093389 
L 354.221127 143.979215 
L 351.4771 147.693926 
L 342.55984 159.765876 
L 342.29523 160.124036 
L 332.854278 172.904892 
L 332.651204 173.179813 
L 331.917496 172.808848 
L 323.106187 168.353419 
L 319.287749 166.422632 
L 319.153624 166.354828 
L 318.669428 166.109967 
L 309.780678 161.615447 
L 305.28454 159.342002 
L 304.035699 158.710471 
L 303.898204 158.640982 
L 286.043599 181.039983 
L 284.933466 182.432722 
L 284.668587 182.59603 
L 283.593703 183.258835 
L 280.252991 186.772089 
L 267.615898 200.061742 
L 267.103057 200.601138 
L 266.883133 200.832385 
L 266.488038 201.255181 
L 263.685914 204.253707 
L 263.278148 204.690117 
L 262.923089 205.070047 
L 272.279051 209.29133 
L 277.191918 211.507957 
L 281.543619 215.179263 
L 287.086603 220.062138 
L 289.738427 222.384447 
L 289.865744 222.495992 
L 293.060402 225.293669 
L 293.721319 225.872494 
L 295.520071 227.498905 
L 297.405094 229.203298 
L 298.792508 230.429965 
L 299.196027 230.786776 
L 302.558914 233.760095 
L 303.844555 234.88755 
L 306.51761 237.231697 
L 307.530149 238.119682 
L 308.527186 238.994053 
L 309.563045 239.90246 
L 310.627482 240.83594 
L 311.691312 241.768881 
L 314.96294 244.638 
L 315.940364 244.805015 
L 316.4435 244.891017 
L 324.629545 246.289889 
L 354.929493 251.467905 
L 355.307535 251.532473 
L 357.434858 251.896025 
L 365.537598 253.280676 
L 365.563008 253.79992 
L 365.569007 253.922317 
L 365.595764 254.466768 
L 366.258434 254.85883 
L 368.23822 257.736711 
L 368.831536 259.192805 
L 368.859641 259.673698 
L 368.617408 260.375729 
L 368.43024 262.094545 
L 367.671257 265.863445 
L 367.767773 266.218774 
L 367.843732 266.522947 
L 367.74607 267.086337 
L 367.6813 267.531577 
L 367.593748 267.532116 
L 367.577033 268.118557 
L 367.976711 268.453127 
L 367.813335 269.312603 
L 367.761168 269.586783 
L 367.695184 269.816345 
L 366.948872 271.405417 
L 365.582689 272.909162 
L 365.093707 273.189408 
L 364.023137 273.512655 
L 362.582275 274.490147 
L 361.400901 274.976904 
L 361.176124 275.130777 
L 360.980532 275.425514 
L 360.028652 276.055765 
L 358.94932 276.541309 
L 358.848491 276.805312 
L 358.38229 277.285262 
L 357.997845 277.883565 
L 357.162026 278.506537 
L 356.922894 278.760834 
L 356.417332 279.298478 
L 356.105071 279.630487 
L 355.767064 280.102888 
L 355.536019 280.425798 
L 354.931987 280.982516 
L 354.722779 281.175346 
L 354.19693 281.737118 
L 353.875638 282.080316 
L 353.311708 282.523533 
L 352.525024 283.141854 
L 351.48694 283.957857 
L 351.120356 284.245989 
L 350.695201 284.892617 
L 350.085575 285.819627 
L 349.53836 286.613793 
L 348.628807 287.933672 
L 348.283116 288.162021 
L 347.165502 288.590546 
L 345.409077 289.347844 
L 344.253449 289.252878 
L 343.949141 289.127785 
L 343.115345 288.784993 
L 342.652379 288.873083 
L 342.183482 289.178267 
L 341.851676 289.491067 
L 341.050703 289.307876 
L 340.264019 289.449145 
L 339.65574 289.679583 
L 338.06377 289.761069 
L 337.5851 289.671428 
L 336.581727 289.158654 
L 335.411608 289.223829 
L 334.766328 289.501514 
L 334.110937 290.212981 
L 333.127245 290.511829 
L 332.535075 290.933816 
L 332.217422 291.160143 
L 329.173739 292.727513 
L 329.126829 292.775164 
L 328.208177 293.708037 
L 327.188224 294.579577 
L 325.926442 295.883618 
L 324.580209 296.231938 
L 324.243145 296.457253 
L 323.788537 297.048278 
L 323.577308 297.188468 
L 323.336019 297.225807 
L 323.1442 297.220415 
L 322.879725 297.243668 
L 322.471623 297.438991 
L 322.394653 297.543325 
L 322.392159 297.733459 
L 322.438867 298.08899 
L 322.349091 298.211993 
L 322.064127 298.073218 
L 321.830791 298.013705 
L 321.662562 298.029881 
L 321.458881 298.06567 
L 321.254257 298.11359 
L 320.591049 298.481119 
L 320.102134 299.010203 
L 319.32037 299.648744 
L 316.816892 301.797567 
L 315.426445 304.017362 
L 315.356687 304.207158 
L 315.036742 305.077283 
L 314.359043 307.005845 
L 313.726433 308.213977 
L 313.508329 308.546256 
L 313.400018 308.711317 
L 312.784326 309.444351 
L 312.377302 309.75587 
L 311.014421 309.927604 
L 309.800493 310.236225 
L 308.59007 310.54397 
L 306.289665 311.496659 
L 304.533982 312.390912 
L 302.949964 313.579027 
L 302.331711 314.270476 
L 301.967081 314.654045 
L 301.365003 315.287396 
L 301.182149 315.252753 
L 295.240634 314.127522 
L 295.028663 314.087352 
L 286.472798 312.467006 
L 285.640551 312.723595 
L 275.29564 311.195991 
L 270.193178 310.440714 
L 266.593451 309.907519 
L 266.672982 307.820837 
L 266.810611 302.620377 
L 266.589744 302.549878 
L 266.296961 302.456462 
L 264.931722 302.935738 
L 264.549164 302.048562 
L 264.145914 301.929737 
L 263.51472 301.743782 
L 263.122119 301.616533 
L 262.685641 301.475062 
L 261.732279 301.166103 
L 260.292832 300.975903 
L 258.755994 300.772829 
L 257.219156 300.569755 
L 257.059353 300.548659 
L 255.802626 300.382587 
L 254.2823 300.18167 
L 252.879115 299.996254 
L 251.542722 299.819668 
L 250.052996 299.672738 
L 248.697867 299.539018 
L 248.51326 299.524392 
L 247.673735 299.458004 
L 246.895476 299.44021 
L 245.861234 299.519337 
L 245.316445 299.674221 
L 243.949319 300.071876 
L 242.517489 300.404155 
L 241.635771 300.752407 
L 241.059305 301.208902 
L 239.469289 301.693503 
L 238.673169 301.999832 
L 236.173735 302.784697 
L 235.202242 303.011293 
L 234.026866 303.188553 
L 232.571513 303.1039 
L 231.165026 303.020796 
L 229.821286 302.942748 
L 228.553169 302.869215 
L 226.919748 302.773778 
L 226.721055 302.762792 
L 226.185702 304.162405 
L 224.796671 304.052612 
L 224.206523 305.807958 
L 221.483121 306.137878 
L 218.887979 306.452295 
L 219.125225 304.158226 
L 218.656126 303.742845 
L 217.898288 303.932506 
L 215.857641 304.443325 
L 215.331724 304.574956 
L 215.286836 304.841857 
L 214.92962 306.834786 
L 209.98312 334.430136 
L 208.254801 334.476574 
L 206.722344 334.756079 
L 205.544339 335.192152 
L 204.224931 335.511153 
L 202.626019 335.897755 
L 201.707501 336.119836 
L 200.801318 336.338951 
L 199.71592 336.630452 
L 197.713758 337.156167 
L 196.759923 337.348794 
L 195.907592 337.481705 
L 195.719009 337.511496 
L 194.849087 337.698326 
L 194.211287 337.834406 
L 194.108369 337.85631 
L 194.052764 337.868173 
L 193.603548 337.974798 
L 192.789567 338.176052 
L 191.239451 338.559285 
L 189.733887 339.24642 
L 189.641954 339.28841 
L 189.345532 339.437228 
L 189.213901 339.503346 
L 187.213019 340.102526 
L 185.581822 340.556527 
L 184.27495 340.975077 
L 183.558226 341.204639 
L 183.461508 341.235777 
L 182.953183 342.765269 
L 182.797356 343.267932 
L 182.535106 344.657099 
L 182.389793 346.061362 
L 182.333177 346.649556 
L 182.243671 347.579059 
L 182.173576 348.237213 
L 182.081239 349.104574 
L 181.516905 352.168815 
L 181.235041 353.596803 
L 181.059196 354.616689 
L 181.002042 354.948832 
L 180.982766 355.063815 
L 180.696319 357.370016 
L 180.819929 357.38572 
L 180.18004 362.226875 
L 180.582751 365.426318 
L 180.796407 367.121949 
L 181.093705 369.480721 
L 181.14021 369.849395 
L 181.222235 370.50027 
L 182.176609 378.086866 
L 182.286267 378.875438 
L 182.398015 379.68497 
L 182.751727 382.246547 
L 182.852185 383.028353 
L 182.852691 383.032287 
L 182.855859 383.057023 
L 183.3749 387.10536 
L 183.579592 388.705149 
L 176.469037 392.870693 
L 170.671015 392.492651 
L 169.918637 392.443517 
L 169.889385 392.44163 
L 164.872251 392.11326 
L 159.06877 391.737846 
L 153.268658 391.361085 
L 151.46256 393.054693 
L 151.296017 393.210723 
L 151.065039 393.427142 
L 151.020488 393.468997 
L 150.04266 394.385222 
L 149.829611 394.584792 
L 149.079457 395.287833 
L 149.010979 395.351997 
L 148.594384 395.742307 
L 148.537364 395.795754 
L 148.753244 397.97666 
L 148.967776 405.073263 
L 149.044948 414.073762 
L 149.112685 418.90447 
L 149.142408 421.021144 
L 149.133915 421.184789 
L 149.032614 423.211418 
L 149.14079 428.040171 
L 149.204887 430.934565 
L 149.182173 436.972596 
L 149.177658 438.272525 
L 150.255641 439.632103 
L 150.374264 443.203591 
L 150.344608 443.204534 
L 149.430337 443.226035 
L 149.487964 444.437267 
L 149.670683 449.751767 
L 150.02554 456.533953 
L 150.351214 459.402466 
L 150.443685 460.21766 
L 151.824022 467.376203 
L 152.097259 468.79334 
L 152.97446 473.085461 
L 153.682422 477.137168 
L 154.806912 477.295421 
L 155.057233 477.24622 
L 156.138047 480.438384 
L 156.669086 481.698143 
L 157.545614 483.777546 
L 159.005819 486.868409 
L 159.900814 489.660019 
L 161.352796 492.226448 
L 161.394449 492.290208 
L 161.698554 492.756072 
L 162.584787 494.113628 
L 163.314384 495.23131 
L 164.102754 496.438835 
L 164.236002 496.643055 
L 166.189637 499.548503 
L 167.873136 501.565358 
L 172.191272 506.646185 
L 173.652219 508.228046 
L 175.455823 510.181142 
L 179.81049 514.864312 
L 184.848788 519.966033 
L 190.468134 526.011073 
L 190.602933 526.166428 
L 195.093274 530.897318 
L 195.860884 531.708805 
L 196.058836 531.91808 
L 196.186625 532.05335 
L 198.652899 534.660556 
L 199.389236 535.439152 
L 200.132246 536.224623 
L 200.639358 536.760784 
L 201.112029 537.265066 
L 202.255188 538.484858 
L 203.131648 539.420023 
L 203.611328 539.931785 
L 204.838467 541.241083 
L 205.241852 541.671495 
L 205.594013 542.066185 
L 208.217394 544.884957 
L 208.605479 545.301822 
L 209.114681 545.848632 
L 209.362373 546.114118 
L 209.750526 546.505034 
L 210.593623 547.354062 
L 211.679493 548.525664 
L 212.493474 549.403944 
L 213.886145 550.907082 
L 218.274444 555.525549 
L 219.891959 557.290804 
L 220.107165 557.525623 
L 223.324401 561.036788 
L 223.901137 561.62242 
L 224.103974 561.853407 
L 224.394567 562.184328 
L 224.915024 562.81141 
L 226.966792 565.220665 
L 227.779425 566.179958 
L 228.255197 566.714098 
L 231.400923 570.821409 
L 231.675979 571.222232 
L 234.111924 574.772624 
L 236.353286 578.513216 
L 238.740568 583.127504 
L 240.658347 587.514321 
L 241.275859 589.107976 
L 241.474013 589.619402 
L 241.528876 589.760873 
L 241.566148 589.856984 
L 241.940551 590.88725 
L 242.001345 591.054535 
L 242.25699 591.822549 
L 242.311382 591.98606 
L 242.430139 592.342332 
L 243.377166 595.196085 
L 243.670353 596.069377 
L 244.883944 601.696542 
L 245.584897 605.60233 
L 245.954717 609.052094 
L 245.982148 609.307807 
L 246.300407 614.374412 
L 246.341386 615.6 
L 246.760003 615.114388 
L 248.28754 614.549717 
L 249.317738 614.168979 
L 250.110758 613.67474 
L 250.232346 613.598781 
L 251.061492 612.823555 
L 251.673949 611.847344 
L 251.897933 611.344072 
L 252.321723 610.391856 
L 252.713852 609.123604 
L 252.946986 608.806558 
L 252.950019 608.622626 
L 252.955613 608.280776 
L 253.288094 607.216272 
L 253.364457 606.971748 
L 253.507276 606.514579 
L 253.740343 605.768469 
L 254.075317 604.695809 
L 254.201489 604.291886 
L 254.694649 602.713125 
L 254.606289 602.647411 
L 255.866655 598.571912 
L 256.274555 597.25028 
L 257.091165 594.604184 
L 257.13147 594.473565 
L 257.684818 592.881526 
L 258.171845 591.773415 
L 258.433219 591.178684 
L 258.48296 591.065655 
L 259.457553 589.255176 
L 259.655775 588.938804 
L 259.75256 588.784392 
L 259.813624 588.686933 
L 260.436056 587.693603 
L 260.53001 587.543572 
L 261.294992 586.488773 
L 261.591077 586.080469 
L 262.162488 585.415575 
L 262.175959 585.399899 
L 262.449137 585.082016 
L 262.478726 585.047507 
L 263.048721 584.384299 
L 263.172803 584.275988 
L 263.297627 584.167205 
L 263.311915 584.154804 
L 263.359297 584.10904 
L 264.152923 583.343249 
L 264.188443 583.246868 
L 264.672639 582.807223 
L 265.123338 582.398581 
L 267.086072 580.619173 
L 268.109732 579.691085 
L 268.281061 579.754306 
L 270.23254 577.78746 
L 270.429008 577.589441 
L 271.100035 576.95117 
L 272.357908 575.754698 
L 272.762101 575.370253 
L 273.459279 574.707112 
L 273.779898 574.40213 
L 274.188203 574.013775 
L 275.583502 572.633843 
L 276.903112 571.328791 
L 278.802222 569.450508 
L 279.781263 568.48225 
L 279.953806 568.311595 
L 281.238301 567.088231 
L 283.407681 565.022174 
L 283.707001 564.737142 
L 285.241278 563.276398 
L 286.160402 562.401353 
L 288.638606 560.042109 
L 289.617243 559.186678 
L 290.615494 558.365283 
L 291.643063 557.562018 
L 292.620959 556.853719 
L 294.179702 555.724647 
L 297.703672 553.212002 
L 298.178445 552.861496 
L 298.750181 552.439404 
L 301.332651 550.390601 
L 306.211145 546.857127 
L 306.270454 546.811313 
L 309.72413 544.143431 
L 313.941302 541.047513 
L 318.014038 538.063477 
L 319.424772 536.957455 
L 320.700505 535.792257 
L 321.858761 534.636292 
L 322.979746 533.456738 
L 325.501961 530.408066 
L 325.71555 530.149927 
L 325.955087 529.863952 
L 326.007254 529.801675 
L 329.547468 525.516902 
L 333.14551 521.169177 
L 336.749956 516.805411 
L 336.704529 516.74792 
L 336.954917 516.446106 
L 337.898439 515.31609 
L 338.864608 514.103307 
L 339.122477 513.799606 
L 339.958835 512.81497 
L 340.100778 512.536005 
L 340.61436 511.944441 
L 342.119723 510.136254 
L 343.042284 509.018706 
L 343.569751 508.379761 
L 343.910252 507.966267 
L 343.956488 507.910123 
L 344.575415 507.248667 
L 345.342082 506.496221 
L 345.546706 506.326106 
L 346.126811 505.801268 
L 347.020458 505.183081 
L 348.214099 504.435624 
L 352.446571 501.785484 
L 352.676066 501.640239 
L 358.053314 498.227814 
L 359.352031 497.441939 
L 360.665912 496.7699 
L 361.117083 496.645279 
L 361.593798 496.428254 
L 362.404274 495.929769 
L 366.984593 494.052227 
L 373.523199 491.303955 
L 379.999999 488.602862 
L 379.98389 488.544157 
L 381.265218 487.935744 
L 381.653033 487.7539 
L 381.77078 487.82258 
L 381.853479 487.870838 
L 384.181314 486.920778 
L 385.210232 486.599553 
L 386.296977 486.310208 
L 386.643073 486.25029 
L 387.388846 486.121153 
L 388.563547 486.001924 
L 389.450994 486.023963 
L 389.574537 486.027064 
L 392.315597 486.317083 
L 392.38603 486.211805 
L 392.950296 486.156268 
L 392.976717 486.15364 
L 394.21902 486.228992 
L 394.470891 486.273543 
L 395.685763 486.489423 
L 395.778707 486.490501 
L 397.562024 486.546847 
L 398.970871 486.564371 
L 399.18574 486.561001 
L 399.400541 486.552711 
L 399.615005 486.539568 
L 399.8292 486.521572 
L 400.042856 486.498656 
L 400.519706 486.417238 
L 400.792336 486.379629 
L 402.156564 486.057798 
L 402.48244 485.950431 
L 402.760125 485.85897 
L 402.989619 485.761982 
L 404.601338 485.080576 
L 405.373464 484.661285 
L 405.800708 484.408605 
L 405.851864 484.429431 
L 405.742408 484.77492 
L 406.079471 485.01931 
L 406.895744 485.611008 
L 412.754021 489.849411 
L 418.868146 494.55725 
L 419.98731 495.41895 
L 425.03747 498.808661 
L 429.830367 501.735272 
L 434.981895 504.323741 
L 442.216196 507.819606 
L 443.2623 508.001854 
L 443.339809 508.036834 
L 443.87719 508.290027 
L 444.363469 508.519143 
L 444.839645 508.743583 
L 445.333951 508.976515 
L 446.541679 509.816579 
L 447.850303 510.435102 
L 449.634092 511.278334 
L 451.456972 512.144348 
L 451.958019 512.374449 
L 452.088167 512.434232 
L 452.278637 512.521716 
L 453.182663 512.849816 
L 459.829916 515.261968 
L 459.982912 515.310159 
L 461.327865 515.816597 
L 462.38691 516.239527 
L 463.41886 516.651606 
L 464.465773 517.069616 
L 465.528726 517.494097 
L 467.42305 518.264538 
L 471.162766 519.785335 
L 472.737011 520.309971 
L 473.786687 520.659841 
L 475.24305 521.270815 
L 478.444785 522.613948 
L 483.195423 524.606944 
L 486.253934 525.889956 
L 486.740557 526.109139 
L 489.168211 527.202355 
L 493.406007 529.110765 
L 494.271549 529.500468 
L 495.276404 529.953054 
L 495.989354 530.274144 
L 496.323924 530.377265 
L 496.696979 530.495551 
L 498.520331 531.073567 
L 502.082315 532.783823 
L 504.517316 531.044989 
L 504.90567 530.776808 
L 505.480249 530.378613 
L 505.507411 529.942472 
L 505.534506 529.512061 
L 505.547177 529.310806 
L 505.580337 528.784148 
L 505.719584 526.567791 
L 505.829243 524.828755 
L 505.904865 523.61914 
L 505.984598 522.404943 
L 505.99518 522.238669 
L 506.059479 521.196676 
L 506.073969 520.880438 
L 506.131259 519.978569 
L 506.206207 518.765449 
L 506.28257 517.55415 
L 506.358866 516.340491 
L 506.439206 515.129596 
L 506.468794 514.568295 
L 506.501618 514.043928 
L 506.507347 513.915465 
L 506.580138 512.703627 
L 506.664454 511.35463 
L 506.751332 510.006982 
L 506.835851 508.65866 
L 506.903452 507.618284 
L 506.920302 507.312292 
L 507.00509 505.964643 
L 507.09035 504.617669 
L 507.175813 503.270627 
L 507.260466 501.922979 
L 507.3433 500.577353 
L 507.445949 498.945212 
L 507.451206 498.880643 
L 507.560191 497.118692 
L 507.578186 496.861766 
L 507.711974 494.705798 
L 507.76468 493.849086 
L 507.785035 493.551114 
L 507.860657 492.343993 
L 508.010283 489.916338 
L 508.186599 487.107811 
L 509.06124 486.535793 
L 509.626854 486.165771 
L 510.321808 485.713051 
L 511.046418 485.240312 
L 511.063537 485.228989 
L 512.28279 484.434554 
L 512.33307 484.400315 
L 513.558388 483.601297 
L 513.670878 483.527292 
L 514.463763 483.009666 
L 516.637457 481.589698 
L 516.947628 481.389724 
L 517.015162 481.346589 
L 517.189928 481.242996 
L 517.606793 480.995911 
L 517.657679 480.968075 
L 517.684639 480.952977 
L 517.905169 480.829771 
L 519.331473 480.036078 
L 520.169987 479.56954 
L 520.931531 479.143981 
L 522.294816 478.384661 
L 522.520604 478.266105 
L 524.079077 477.417212 
L 524.714181 477.071319 
L 525.459077 476.666047 
L 525.621038 476.577349 
L 526.80221 475.934091 
L 527.623537 475.486762 
L 528.573732 474.969338 
L 529.37329 474.569121 
L 530.556754 473.976816 
L 531.4657 473.521332 
L 531.761852 473.372918 
L 532.966884 472.769965 
L 533.761319 472.371365 
L 534.449937 472.091995 
L 535.6977 471.587444 
L 536.951192 471.084916 
L 538.203672 470.58825 
L 539.452244 470.063008 
L 540.59419 469.614264 
L 540.696771 469.572678 
L 541.94723 469.069812 
L 542.487502 468.851776 
L 543.197082 468.567216 
L 544.446799 468.06408 
L 544.884423 467.888303 
L 547.035605 467.021818 
L 548.162116 466.568221 
L 548.763453 466.326392 
L 549.281483 466.093191 
L 550.388247 465.595178 
L 551.495145 465.097097 
L 552.602515 464.599151 
L 553.70975 464.101408 
L 554.324701 463.824599 
L 554.816783 463.603125 
L 555.988789 463.078556 
L 556.789627 462.718173 
L 557.15419 462.547046 
L 558.314401 462.002258 
L 559.47414 461.457132 
L 560.634081 460.914501 
L 561.797797 460.371937 
L 562.570328 460.009598 
L 563.341645 459.647462 
L 563.502864 458.867989 
L 563.766462 457.584303 
L 564.038553 456.274129 
L 564.309296 454.957416 
L 564.57923 453.635717 
L 564.852399 452.319544 
L 565.133185 450.970143 
L 565.37562 449.766527 
L 565.626413 448.566416 
L 566.421387 444.694058 
L 566.501794 444.303008 
L 566.50321 444.296335 
L 566.588988 443.978409 
" clip-path="url(#pcd23878092)" style="fill: #d3d3d3"/>
    <path d="M 502.62493 533.02369 
L 503.604266 533.437308 
L 505.347772 532.545818 
L 505.418448 531.433063 
L 505.443364 531.029819 
L 505.063374 531.280716 
L 502.62493 533.02369 
" clip-path="url(#pcd23878092)" style="fill: #d3d3d3"/>
   </g>
   <g id="PatchCollection_2">
    <path d="M 588.104136 359.314148 
L 588.044353 359.742268 
L 587.888863 361.053319 
L 587.699605 362.649333 
L 587.679453 362.799836 
L 587.522548 364.13852 
L 587.392939 365.245553 
L 587.360183 365.476193 
L 587.171734 366.810699 
L 586.983623 368.146485 
L 586.883063 368.85721 
L 586.816742 369.519543 
L 586.608748 371.601169 
L 586.555772 372.151552 
L 586.502864 372.698227 
L 586.151242 376.148733 
L 585.729862 377.993046 
L 585.500341 379.001139 
L 585.186586 379.20634 
L 584.624855 379.502329 
L 584.037765 379.744144 
L 582.868117 380.162626 
L 582.235586 380.35451 
L 581.587302 380.483514 
L 580.929499 380.548395 
L 580.268504 380.54853 
L 579.610675 380.483917 
L 578.962338 380.355179 
L 578.42277 380.191736 
L 578.222755 380.266016 
L 577.595884 380.4646 
L 577.24659 380.53875 
L 574.616264 381.622492 
L 574.494559 381.671257 
L 574.331756 381.734659 
L 573.73737 381.934821 
L 573.126951 382.078866 
L 572.505786 382.165546 
L 571.879253 382.19411 
L 571.252777 382.164312 
L 570.631783 382.07641 
L 570.021649 381.931164 
L 569.76631 381.857671 
L 569.152826 381.648669 
L 568.562253 381.381709 
L 568.000052 381.05926 
L 567.47142 380.684304 
L 566.981246 380.260306 
L 566.534063 379.791189 
L 566.399927 379.63619 
L 565.931573 379.02822 
L 565.535371 378.370948 
L 565.216457 377.672897 
L 564.559478 375.986972 
L 564.350109 375.36057 
L 564.203055 374.716684 
L 564.119728 374.061497 
L 564.100927 373.401299 
L 564.105071 373.199643 
L 564.146727 372.577294 
L 564.245739 371.961461 
L 564.401257 371.357418 
L 564.61195 370.770338 
L 564.876014 370.20525 
L 565.191187 369.666994 
L 565.554769 369.160178 
L 565.963647 368.689144 
L 566.084877 368.561891 
L 566.502236 368.159911 
L 566.952581 367.795265 
L 567.432583 367.47065 
L 567.938694 367.188464 
L 570.082238 366.111384 
L 570.613912 365.803972 
L 571.255159 365.477573 
L 571.55051 365.365044 
L 572.091945 365.036868 
L 572.277373 364.93793 
L 572.827517 364.675628 
L 573.206687 364.535306 
L 573.375843 364.441546 
L 573.491488 364.386173 
L 573.75828 364.269266 
L 573.854072 364.17664 
L 574.365892 363.76985 
L 574.914718 363.414563 
L 575.495385 363.114123 
L 580.111348 361.00298 
L 584.161274 359.034816 
L 584.771767 358.774463 
L 585.404907 358.575415 
L 586.054554 358.439603 
L 586.714409 358.368344 
L 587.378073 358.362329 
L 588.039111 358.421616 
L 588.219757 358.455975 
L 588.104136 359.314148 
" clip-path="url(#pcd23878092)" style="fill: #ff0000; fill-opacity: 0.7; stroke: #000000; stroke-opacity: 0.7; stroke-width: 0.5"/>
    <path d="M 285.241278 563.276398 
L 283.707001 564.737142 
L 283.407681 565.022174 
L 281.238301 567.088231 
L 279.953806 568.311595 
L 279.781263 568.48225 
L 279.412223 568.847226 
L 279.126739 568.917043 
L 278.472898 569.010396 
L 277.81306 569.039305 
L 277.153561 569.003492 
L 276.500733 568.903303 
L 275.860846 568.739698 
L 275.240044 568.51425 
L 274.644289 568.229122 
L 274.079302 567.887053 
L 273.550508 567.491327 
L 273.062985 567.045745 
L 270.994991 564.960731 
L 270.552214 564.468089 
L 270.159931 563.934364 
L 269.821933 563.36471 
L 269.541484 562.76463 
L 269.321291 562.139919 
L 269.163483 561.496612 
L 269.069582 560.840921 
L 269.040497 560.179179 
L 269.076508 559.517778 
L 269.177267 558.863106 
L 269.3418 558.221486 
L 269.56852 557.599114 
L 269.855236 557.002003 
L 270.199178 556.435918 
L 270.597026 555.906329 
L 271.044936 555.418349 
L 272.505106 553.976662 
L 272.997058 553.536378 
L 273.529725 553.146336 
L 274.097997 552.81028 
L 274.696422 552.531434 
L 275.319256 552.312473 
L 275.960525 552.155498 
L 276.614076 552.062016 
L 277.273637 552.032924 
L 277.93288 552.0685 
L 278.585479 552.168403 
L 279.225174 552.331675 
L 279.845826 552.55675 
L 280.441479 552.841466 
L 281.00642 553.183094 
L 281.535226 553.578354 
L 282.022825 554.023454 
L 282.350816 554.353724 
L 284.094391 556.112061 
L 284.537079 556.604715 
L 284.929275 557.138441 
L 285.267191 557.708084 
L 285.547564 558.308144 
L 285.767688 558.932825 
L 285.925436 559.576095 
L 286.019284 560.231742 
L 286.048327 560.893435 
L 286.012284 561.554783 
L 285.911503 562.209401 
L 285.765958 562.77688 
L 285.241278 563.276398 
" clip-path="url(#pcd23878092)" style="fill: #ff0000; fill-opacity: 0.7; stroke: #000000; stroke-opacity: 0.7; stroke-width: 0.5"/>
    <path d="M 400.792336 486.379629 
L 400.519706 486.417238 
L 400.042856 486.498656 
L 399.8292 486.521572 
L 399.615005 486.539568 
L 399.400541 486.552711 
L 399.18574 486.561001 
L 398.970871 486.564371 
L 398.957155 486.5642 
L 399.26055 486.470739 
L 399.907472 486.33904 
L 400.564176 486.271264 
L 401.224359 486.268061 
L 401.253665 486.270798 
L 400.792336 486.379629 
" clip-path="url(#pcd23878092)" style="fill: #ff0000; fill-opacity: 0.7; stroke: #000000; stroke-opacity: 0.7; stroke-width: 0.5"/>
    <path d="M 433.005539 480.061353 
L 432.630633 480.177654 
L 432.290007 480.666289 
L 431.87326 481.156767 
L 431.41163 481.605256 
L 430.909325 482.007669 
L 430.370927 482.360334 
L 429.801345 482.660037 
L 429.205773 482.904044 
L 427.539948 483.495326 
L 426.902736 483.686658 
L 426.249765 483.814234 
L 425.587397 483.876811 
L 424.922087 483.873778 
L 424.260317 483.805165 
L 423.608536 483.671641 
L 422.973095 483.474507 
L 422.360186 483.215683 
L 421.775782 482.897692 
L 421.225576 482.523633 
L 420.312691 481.83475 
L 419.813828 481.419112 
L 419.357275 480.957398 
L 418.94727 480.453894 
L 418.58762 479.913273 
L 418.281661 479.340551 
L 418.032234 478.741047 
L 417.841654 478.120322 
L 417.711689 477.484138 
L 417.643546 476.838401 
L 417.637857 476.189103 
L 417.694675 475.542271 
L 417.813472 474.903908 
L 418.618272 471.500158 
L 418.800403 470.868995 
L 419.043114 470.258562 
L 419.344097 469.674655 
L 419.700494 469.122823 
L 420.10892 468.608308 
L 424.492643 463.607177 
L 424.974179 463.111563 
L 425.50393 462.667858 
L 426.07633 462.280727 
L 426.179017 462.225679 
L 426.028479 461.952554 
L 425.87714 461.678989 
L 425.875141 461.674349 
L 425.872699 461.669919 
L 425.738012 461.35609 
L 425.614624 461.069722 
L 425.613224 461.065327 
L 425.611403 461.061082 
L 425.507591 460.733693 
L 425.413278 460.437598 
L 425.412409 460.433516 
L 425.411145 460.429533 
L 425.339507 460.091303 
L 425.275053 459.788742 
L 425.274637 459.785031 
L 425.273862 459.781373 
L 425.235476 459.435021 
L 425.201286 459.12944 
L 425.201244 459.126145 
L 425.20088 459.122866 
L 425.196644 458.771023 
L 425.192695 458.46608 
L 425.192938 458.463235 
L 425.192904 458.460375 
L 425.223611 458.10545 
L 425.24936 457.805089 
L 425.249802 457.802713 
L 425.250011 457.800302 
L 425.31651 457.44425 
L 425.370734 457.15287 
L 425.371286 457.150971 
L 425.371649 457.149025 
L 425.475219 456.792852 
L 425.555641 456.515744 
L 425.556213 456.514316 
L 425.556643 456.512837 
L 425.699978 456.155345 
L 425.802289 455.899883 
L 425.802796 455.898907 
L 425.803205 455.897886 
L 425.94407 455.627087 
L 425.936912 455.092226 
L 425.992824 454.433753 
L 426.112951 453.783921 
L 426.29614 453.148976 
L 426.540629 452.535024 
L 426.844068 451.947965 
L 427.203539 451.393445 
L 433.977213 441.98893 
L 434.395012 441.46576 
L 434.862656 440.986622 
L 435.375531 440.556246 
L 435.928574 440.178878 
L 436.100769 440.084941 
L 432.515988 437.609959 
L 431.996489 437.212736 
L 431.517932 436.767037 
L 431.084821 436.277057 
L 430.701235 435.747409 
L 430.370785 435.183079 
L 430.096582 434.589381 
L 429.881207 433.971903 
L 429.726687 433.336459 
L 429.634479 432.689032 
L 429.605448 432.035715 
L 429.63987 431.382661 
L 429.73742 430.736016 
L 429.897179 430.101869 
L 430.117644 429.48619 
L 430.396738 428.894776 
L 430.731836 428.333193 
L 436.61314 419.482899 
L 438.034096 417.3422 
L 438.426481 416.809747 
L 438.869165 416.318318 
L 439.357886 415.872646 
L 439.887936 415.477022 
L 440.454211 415.135256 
L 441.051258 414.85064 
L 441.673327 414.625914 
L 442.314427 414.463243 
L 442.968385 414.364193 
L 443.628902 414.329719 
L 444.167962 414.354548 
L 443.300808 413.396696 
L 442.87325 412.874015 
L 442.500141 412.311174 
L 442.185225 411.713822 
L 441.931663 411.087956 
L 441.927286 411.072998 
L 441.663373 411.27445 
L 441.084489 411.63026 
L 440.472721 411.925974 
L 439.834287 412.158589 
L 439.175676 412.325739 
L 438.503582 412.425725 
L 437.824836 412.457532 
L 437.146337 412.420836 
L 436.474981 412.31601 
L 435.817591 412.144119 
L 435.180849 411.906912 
L 434.571227 411.606797 
L 433.994921 411.246827 
L 433.457788 410.830658 
L 432.965288 410.362523 
L 432.522426 409.847177 
L 432.133704 409.28986 
L 431.803072 408.696236 
L 430.520311 406.092442 
L 430.332525 405.676273 
L 430.024612 404.927185 
L 428.473731 401.687551 
L 428.215724 401.072084 
L 428.019848 400.434118 
L 427.888024 399.779909 
L 427.821543 399.11587 
L 427.821057 398.448512 
L 427.886572 397.784377 
L 428.017445 397.129977 
L 428.212393 396.491728 
L 428.469504 395.875886 
L 428.786258 395.28849 
L 429.15955 394.735299 
L 429.585719 394.221736 
L 430.060587 393.752836 
L 430.579499 393.333196 
L 432.368477 392.027483 
L 432.402755 392.002629 
L 435.836795 389.529157 
L 436.388872 389.171093 
L 436.973235 388.868571 
L 437.584313 388.624476 
L 438.216282 388.441132 
L 438.863117 388.320289 
L 439.518654 388.263098 
L 440.176643 388.270103 
L 440.830814 388.341239 
L 441.47493 388.475828 
L 442.102851 388.672585 
L 442.428692 388.792447 
L 442.681186 388.885274 
L 443.465945 389.231957 
L 444.953101 390.005576 
L 445.711428 390.465863 
L 446.944383 391.330151 
L 447.415126 391.692079 
L 447.852186 392.094036 
L 448.252172 392.5329 
L 449.174116 393.638602 
L 450.283454 394.968715 
L 450.401733 395.110704 
L 450.794122 395.63097 
L 451.134433 396.186699 
L 451.419486 396.772695 
L 451.646616 397.38348 
L 451.8137 398.013345 
L 451.919175 398.656401 
L 451.946106 399.06477 
L 452.463291 399.181559 
L 453.073759 399.382148 
L 453.662349 399.63996 
L 454.223714 399.952653 
L 454.752749 400.317383 
L 455.244646 400.730836 
L 455.694934 401.189254 
L 456.099521 401.688469 
L 456.189379 401.810838 
L 456.478072 402.163354 
L 457.190199 403.023856 
L 457.554074 403.463885 
L 457.958038 404.005546 
L 458.305737 404.584933 
L 458.593675 405.196223 
L 458.818958 405.833272 
L 458.979322 406.489677 
L 459.073155 407.15884 
L 459.099515 407.834036 
L 459.058135 408.508477 
L 458.949432 409.175386 
L 458.774499 409.82806 
L 458.535093 410.459937 
L 458.233622 411.064667 
L 457.873114 411.636173 
L 457.457195 412.168709 
L 456.990043 412.656923 
L 456.112166 413.48679 
L 455.541913 413.968931 
L 454.620214 414.664446 
L 453.752827 415.377574 
L 453.238572 415.760865 
L 452.690212 416.093539 
L 452.112712 416.372583 
L 451.511304 416.59547 
L 450.891432 416.760182 
L 450.25871 416.865226 
L 449.618869 416.909653 
L 449.568562 416.908351 
L 452.256862 418.70235 
L 452.788027 419.095784 
L 453.278099 419.539356 
L 453.340113 419.607677 
L 453.842906 419.76502 
L 454.44658 420.02067 
L 456.586488 421.052368 
L 456.598554 421.058199 
L 456.748977 421.131091 
L 456.856079 421.184168 
L 457.382547 421.450911 
L 457.973202 421.788678 
L 460.017418 423.098848 
L 460.531982 423.4637 
L 461.010184 423.875059 
L 461.447834 424.329322 
L 461.8411 424.82251 
L 462.186537 425.350304 
L 462.481119 425.90808 
L 462.722266 426.490954 
L 462.907866 427.093818 
L 462.952382 427.307887 
L 463.221193 426.882323 
L 463.678018 426.308384 
L 464.19451 425.787489 
L 464.746549 425.288269 
L 465.240838 424.882203 
L 465.771398 424.524827 
L 466.333448 424.219359 
L 466.921927 423.968553 
L 467.531533 423.774666 
L 468.085235 423.654918 
L 468.098768 423.429495 
L 468.20473 422.769466 
L 468.375554 422.12318 
L 468.60956 421.496995 
L 468.904444 420.89707 
L 469.257306 420.329307 
L 469.664676 419.799292 
L 470.659571 418.629814 
L 471.104432 418.155322 
L 471.592958 417.72592 
L 472.1206 417.345607 
L 472.682443 417.017923 
L 473.273255 416.745922 
L 473.887534 416.532135 
L 474.51956 416.378554 
L 475.163447 416.286609 
L 475.813198 416.257156 
L 476.462762 416.29047 
L 477.106091 416.38624 
L 477.737193 416.543575 
L 478.12055 416.679553 
L 478.604474 416.774887 
L 479.246354 416.934415 
L 479.869507 417.156088 
L 480.467933 417.437772 
L 481.035868 417.776754 
L 481.567843 418.169769 
L 482.058736 418.613034 
L 482.503819 419.102278 
L 482.898805 419.632792 
L 483.239892 420.199466 
L 483.523794 420.796842 
L 483.747778 421.419169 
L 483.909686 422.060452 
L 484.00796 422.714518 
L 484.041653 423.375066 
L 484.01044 424.035736 
L 483.914622 424.690165 
L 483.755122 425.332052 
L 483.533475 425.955215 
L 483.251817 426.553653 
L 482.91286 427.121603 
L 482.519867 427.653595 
L 481.041692 429.461736 
L 480.597355 429.953745 
L 480.106832 430.399721 
L 479.574867 430.795349 
L 479.006608 431.136801 
L 478.407553 431.420774 
L 477.83436 431.626284 
L 477.805653 431.975658 
L 477.68034 432.649867 
L 477.487167 433.307853 
L 477.228134 433.942803 
L 476.905922 434.548146 
L 476.523866 435.117615 
L 475.274334 436.789502 
L 474.864494 437.286455 
L 474.409084 437.742014 
L 473.912266 438.152017 
L 473.378576 438.512719 
L 472.812889 438.820827 
L 472.220373 439.073525 
L 471.60644 439.268505 
L 470.976697 439.403987 
L 470.72899 439.432926 
L 470.781316 439.994713 
L 470.77792 440.655077 
L 470.709916 441.31194 
L 470.577957 441.958994 
L 470.383309 442.590029 
L 470.127841 443.198986 
L 468.791402 445.992495 
L 468.473303 446.580564 
L 468.098506 447.134224 
L 467.670699 447.648026 
L 467.663172 447.65543 
L 467.742823 447.779182 
L 468.044877 448.368571 
L 468.287628 448.984759 
L 468.468733 449.621797 
L 468.586441 450.273534 
L 468.639618 450.933676 
L 468.627749 451.595851 
L 468.550949 452.253664 
L 468.409959 452.900764 
L 468.206142 453.530902 
L 467.941464 454.137995 
L 467.761867 454.500233 
L 467.439793 455.076965 
L 467.062809 455.6194 
L 466.634537 456.122325 
L 466.15909 456.580912 
L 465.641034 456.990754 
L 465.085348 457.347915 
L 464.497367 457.648964 
L 463.882741 457.89101 
L 463.247372 458.071727 
L 463.034994 458.110168 
L 463.482516 458.490609 
L 463.943909 458.968704 
L 464.355986 459.489905 
L 464.714743 460.049147 
L 465.016694 460.640995 
L 465.258904 461.259697 
L 465.439019 461.899241 
L 465.55529 462.553412 
L 465.606585 463.215852 
L 465.592408 463.880124 
L 465.512895 464.539773 
L 465.368819 465.188387 
L 465.16158 465.819664 
L 464.893192 466.427468 
L 464.566264 467.005894 
L 463.736128 468.319011 
L 463.343273 468.875946 
L 462.89618 469.390359 
L 462.399421 469.856988 
L 461.858077 470.271063 
L 461.442029 470.527179 
L 463.387547 471.920931 
L 463.902168 472.328962 
L 464.374634 472.785142 
L 464.800458 473.28514 
L 465.175597 473.824208 
L 465.49649 474.397227 
L 465.76009 474.998758 
L 465.963893 475.623088 
L 465.984155 475.714533 
L 466.546402 474.920826 
L 466.657223 474.764278 
L 467.068564 474.240199 
L 467.509802 473.779977 
L 467.594323 473.383538 
L 467.791834 472.760626 
L 468.04874 472.159769 
L 468.362626 471.586616 
L 468.730543 471.046554 
L 470.449167 468.769441 
L 470.865673 468.269703 
L 471.018786 468.118406 
L 470.998474 468.034104 
L 470.907834 467.391314 
L 470.879452 466.742785 
L 470.913592 466.094534 
L 471.009937 465.452574 
L 471.167592 464.82286 
L 471.385097 464.211234 
L 472.702236 461.005531 
L 472.804789 460.768916 
L 473.162453 459.985142 
L 473.467787 459.394945 
L 473.829755 458.837683 
L 474.244839 458.318773 
L 474.699238 457.853263 
L 474.665874 457.68521 
L 474.601283 457.025975 
L 474.601714 456.363583 
L 474.667164 455.704433 
L 474.797 455.054891 
L 474.989967 454.42123 
L 475.244204 453.809571 
L 475.715743 452.815923 
L 476.027815 452.233799 
L 476.395367 451.685015 
L 476.814869 451.174843 
L 477.282293 450.708181 
L 477.793149 450.289512 
L 478.342531 449.922855 
L 478.925164 449.611733 
L 479.535451 449.359133 
L 480.167533 449.167481 
L 480.815339 449.038617 
L 481.472647 448.97378 
L 482.133145 448.973591 
L 482.79049 449.038052 
L 483.43837 449.166546 
L 484.070561 449.357837 
L 484.680993 449.610088 
L 485.807758 450.14176 
L 485.811385 450.092239 
L 485.922419 449.446713 
L 486.095589 448.815013 
L 486.329259 448.203106 
L 486.621222 447.61677 
L 486.96872 447.061543 
L 487.368473 446.542669 
L 487.816704 446.065048 
L 489.829078 444.119484 
L 488.049969 443.976029 
L 487.405341 443.892606 
L 486.771748 443.747474 
L 486.155081 443.541985 
L 485.561077 443.278048 
L 484.995259 442.95812 
L 484.462891 442.585175 
L 483.968924 442.162682 
L 483.517953 441.69457 
L 483.11417 441.185195 
L 482.761333 440.639292 
L 482.462723 440.06194 
L 482.221117 439.458507 
L 482.038762 438.834608 
L 481.917355 438.196044 
L 481.858023 437.548755 
L 481.861321 436.89876 
L 481.981688 434.643099 
L 482.051926 433.968072 
L 482.189694 433.30353 
L 482.393594 432.656212 
L 482.661559 432.032682 
L 482.990872 431.439261 
L 483.378193 430.881966 
L 483.819596 430.366448 
L 484.310606 429.897934 
L 484.846243 429.481174 
L 485.421076 429.120394 
L 486.029278 428.819252 
L 486.664681 428.580802 
L 487.320842 428.407461 
L 487.99111 428.300986 
L 488.668687 428.262458 
L 489.346704 428.292267 
L 491.826409 428.526811 
L 491.869933 428.533054 
L 491.947772 428.535519 
L 493.35309 428.650221 
L 493.999477 428.734608 
L 494.634689 428.881045 
L 495.252783 429.088161 
L 495.847978 429.35402 
L 496.414706 429.676133 
L 496.947665 430.051489 
L 497.44187 430.476576 
L 497.892699 430.947417 
L 498.295933 431.459608 
L 498.647801 432.008357 
L 498.945012 432.588533 
L 499.184785 433.194707 
L 499.364876 433.821208 
L 499.483603 434.462178 
L 499.539853 435.111619 
L 499.533101 435.763456 
L 499.509661 436.162082 
L 499.755091 436.162719 
L 500.413144 436.229257 
L 501.061506 436.359973 
L 501.693934 436.553609 
L 502.304338 436.8083 
L 502.886839 437.121592 
L 503.435829 437.49047 
L 503.946019 437.911381 
L 504.412498 438.380271 
L 506.367528 440.548516 
L 506.782128 441.055893 
L 507.145501 441.60113 
L 507.454215 442.179075 
L 507.70535 442.784265 
L 507.896534 443.410981 
L 508.02596 444.0533 
L 508.092405 444.70515 
L 508.09524 445.360373 
L 508.034439 446.012774 
L 507.910577 446.656188 
L 507.724823 447.284535 
L 507.478935 447.891876 
L 507.175234 448.472471 
L 506.816593 449.020833 
L 506.457939 449.467581 
L 506.607413 449.810139 
L 506.811639 450.44119 
L 506.952851 451.089259 
L 507.029679 451.74807 
L 507.041381 452.411242 
L 507.020924 452.663841 
L 507.625749 453.293424 
L 507.834307 453.533109 
L 507.912775 453.467352 
L 508.457058 453.056268 
L 509.040102 452.7023 
L 509.655936 452.409073 
L 510.298253 452.17959 
L 510.960475 452.016201 
L 511.63582 451.92058 
L 512.317371 451.893706 
L 512.998148 451.935854 
L 513.671179 452.046592 
L 514.329571 452.224787 
L 514.966582 452.468614 
L 515.575687 452.775575 
L 516.150648 453.142526 
L 516.685577 453.56571 
L 517.174996 454.040792 
L 517.986554 454.912571 
L 517.995901 454.922632 
L 518.872626 455.868268 
L 518.872626 455.868268 
L 519.094324 456.106752 
L 520.172632 457.264674 
L 520.597994 457.768802 
L 520.972042 458.312094 
L 521.291192 458.889347 
L 521.552389 459.495031 
L 521.593148 459.622605 
L 522.012477 459.193014 
L 522.519219 458.766875 
L 523.065327 458.392513 
L 523.645531 458.073541 
L 524.960727 457.432508 
L 525.568146 457.172478 
L 526.198106 456.973174 
L 526.844555 456.83651 
L 527.501279 456.7638 
L 528.161966 456.755743 
L 528.820268 456.812416 
L 529.469857 456.933274 
L 530.104491 457.117157 
L 530.71807 457.362296 
L 531.304698 457.666336 
L 531.858737 458.026355 
L 532.374863 458.438893 
L 532.848114 458.899986 
L 533.273943 459.405201 
L 533.648258 459.949683 
L 533.967461 460.528201 
L 535.263067 463.175367 
L 535.52466 463.783887 
L 535.725259 464.415145 
L 535.862929 465.063045 
L 535.936338 465.721329 
L 535.944778 466.38364 
L 535.888167 467.043582 
L 535.767052 467.694779 
L 535.582604 468.330944 
L 535.336602 468.945933 
L 535.031424 469.533804 
L 534.670016 470.088882 
L 534.255869 470.605806 
L 533.792983 471.079581 
L 533.285828 471.505634 
L 532.739303 471.87985 
L 532.158685 472.198613 
L 530.843041 472.838892 
L 530.235693 473.098475 
L 529.605854 473.297364 
L 528.959572 473.43365 
L 528.303054 473.506024 
L 527.642604 473.51379 
L 526.984565 473.456874 
L 526.335257 473.335823 
L 525.700916 473.151799 
L 525.087632 472.90657 
L 524.501296 472.60249 
L 523.947539 472.24248 
L 523.431679 471.829997 
L 522.958669 471.369002 
L 522.533053 470.863923 
L 522.158917 470.319609 
L 521.839855 469.74129 
L 520.544697 467.094877 
L 520.28321 466.486597 
L 520.244949 466.366208 
L 519.854803 466.77041 
L 517.386336 469.089183 
L 516.898244 469.505765 
L 516.372746 469.874041 
L 515.814607 470.190674 
L 515.228885 470.452792 
L 514.620891 470.658019 
L 513.996135 470.804496 
L 513.360281 470.890895 
L 512.719092 470.916431 
L 512.07838 470.880875 
L 511.443954 470.784548 
L 510.821564 470.628324 
L 510.216852 470.413618 
L 509.635299 470.142377 
L 509.082178 469.817059 
L 508.562501 469.440613 
L 508.080979 469.016453 
L 508.01298 468.950547 
L 507.616576 468.532012 
L 507.257387 468.081135 
L 506.938039 467.601214 
L 506.936296 467.598335 
L 506.437954 467.15349 
L 506.008235 466.727602 
L 505.757666 466.465536 
L 505.3616 466.028335 
L 505.237765 465.893639 
L 504.81481 465.385702 
L 504.720755 465.247111 
L 504.600386 465.33136 
L 504.018612 465.658037 
L 503.40739 465.92559 
L 502.772708 466.1314 
L 502.200113 466.256163 
L 502.179591 466.296295 
L 501.81115 466.866703 
L 501.780283 466.905322 
L 501.968826 466.893924 
L 502.741163 466.885199 
L 503.402262 466.910201 
L 504.057724 466.999897 
L 504.701235 467.153421 
L 505.326595 467.369294 
L 505.927778 467.645437 
L 506.498993 467.979189 
L 507.034735 468.367334 
L 507.529843 468.806132 
L 507.979546 469.291357 
L 508.379513 469.818332 
L 508.725888 470.381981 
L 509.015336 470.976873 
L 509.245066 471.597276 
L 509.412867 472.237213 
L 509.51712 472.890518 
L 509.556822 473.550896 
L 509.586936 476.30091 
L 509.56173 476.9617 
L 509.471892 477.61684 
L 509.318286 478.260024 
L 509.102391 478.885059 
L 508.826286 479.485929 
L 508.492627 480.056851 
L 508.104627 480.592328 
L 507.666021 481.087206 
L 507.181031 481.536721 
L 506.654325 481.936546 
L 506.090973 482.282833 
L 505.496399 482.572248 
L 504.876325 482.802004 
L 504.236721 482.969892 
L 503.583743 483.074293 
L 502.923678 483.114204 
L 502.151789 483.122939 
L 501.490751 483.097954 
L 500.835346 483.008289 
L 500.191888 482.854805 
L 499.566574 482.638984 
L 498.96543 482.362902 
L 498.394245 482.02922 
L 497.858522 481.641152 
L 497.363422 481.202437 
L 496.913713 480.7173 
L 496.513728 480.190415 
L 496.16732 479.626857 
L 495.877826 479.032056 
L 495.648035 478.41174 
L 495.48016 477.771885 
L 495.375818 477.118656 
L 495.336014 476.458345 
L 495.305451 473.708322 
L 495.330556 473.04745 
L 495.420308 472.392221 
L 495.573845 471.748942 
L 495.789688 471.123808 
L 496.065758 470.522837 
L 496.363805 470.012732 
L 495.771491 470.076058 
L 495.072999 470.078033 
L 494.595693 470.05462 
L 493.980978 469.996146 
L 493.374195 469.881659 
L 492.780435 469.712118 
L 492.204685 469.488949 
L 491.651775 469.214023 
L 491.126347 468.889648 
L 490.761426 468.640577 
L 490.245356 468.250774 
L 489.769023 467.813303 
L 489.566678 467.588064 
L 488.31712 470.482328 
L 487.963806 471.299497 
L 487.669607 471.897021 
L 487.317871 472.46259 
L 486.912032 472.990683 
L 486.456053 473.476142 
L 485.954387 473.914227 
L 485.452663 474.271646 
L 485.47411 474.452327 
L 485.48748 475.111595 
L 485.436363 475.769014 
L 485.321249 476.418292 
L 485.143239 477.053214 
L 484.904038 477.667703 
L 484.605935 478.255876 
L 484.275547 478.774781 
L 484.499484 478.951164 
L 484.976478 479.409393 
L 485.406259 479.91217 
L 485.784689 480.454653 
L 486.108123 481.031616 
L 486.373447 481.637503 
L 486.578105 482.26648 
L 486.720126 482.912488 
L 486.798142 483.569306 
L 486.807893 484.055574 
L 487.422215 484.293551 
L 488.011785 484.591265 
L 488.569384 484.945254 
L 489.571043 485.65231 
L 490.092766 486.060427 
L 490.571909 486.517786 
L 491.003845 487.019968 
L 491.3844 487.562124 
L 491.7099 488.139016 
L 491.977201 488.745073 
L 492.183722 489.374442 
L 492.327466 490.021043 
L 492.407046 490.678631 
L 492.421694 491.340855 
L 492.371268 492.001318 
L 492.256254 492.653643 
L 492.077765 493.291527 
L 491.837523 493.908811 
L 491.537849 494.499531 
L 491.181638 495.057983 
L 489.508299 497.417086 
L 489.100202 497.936481 
L 488.643223 498.413435 
L 488.141752 498.843366 
L 487.600605 499.222145 
L 487.024979 499.546134 
L 486.420404 499.812221 
L 485.792685 500.017851 
L 485.147853 500.161047 
L 484.4921 500.240436 
L 483.831726 500.255255 
L 483.173072 500.205361 
L 482.522466 500.091233 
L 481.886155 499.913967 
L 481.270252 499.675267 
L 480.680673 499.377424 
L 480.12308 499.023301 
L 479.119623 498.314703 
L 478.597995 497.906508 
L 478.118952 497.449084 
L 477.687121 496.946848 
L 477.328898 496.436327 
L 476.858496 497.110489 
L 476.550281 497.510931 
L 476.331272 497.849059 
L 475.354306 499.198894 
L 475.010517 499.627437 
L 474.856175 499.86885 
L 473.057562 502.406755 
L 472.735996 502.824807 
L 472.382726 503.216434 
L 472.306709 503.294346 
L 471.804783 503.75908 
L 471.258337 504.170546 
L 470.672999 504.524505 
L 470.054798 504.817311 
L 469.410102 505.045949 
L 469.327896 505.070484 
L 468.80196 505.204644 
L 468.266934 505.29605 
L 468.177238 505.307679 
L 467.24446 505.363297 
L 467.176471 505.362629 
L 466.363098 505.305316 
L 466.308936 505.298187 
L 465.658952 505.179975 
L 465.023664 504.998696 
L 464.409176 504.756092 
L 463.82139 504.454494 
L 463.265956 504.0968 
L 459.936069 501.713685 
L 459.407676 501.293988 
L 458.923898 500.823559 
L 458.489584 500.307114 
L 458.109088 499.749828 
L 457.786224 499.157289 
L 457.524227 498.535435 
L 457.325725 497.8905 
L 457.192707 497.228949 
L 457.126506 496.557412 
L 457.113763 496.293156 
L 457.113375 495.652056 
L 457.173901 495.013819 
L 457.294793 494.384221 
L 457.474957 493.768956 
L 457.712764 493.173593 
L 458.006062 492.603518 
L 458.352197 492.063889 
L 459.926391 489.849061 
L 460.021752 489.727516 
L 460.057019 489.658517 
L 460.409005 489.108654 
L 462.135819 486.678866 
L 462.009598 486.380957 
L 461.81431 485.758248 
L 461.811123 485.743075 
L 459.286989 489.292126 
L 458.876047 489.813517 
L 458.415805 490.291952 
L 457.910728 490.722788 
L 457.365716 491.101846 
L 456.786057 491.425447 
L 456.177375 491.690452 
L 455.545574 491.894291 
L 454.896784 492.034985 
L 454.840839 492.041448 
L 454.858832 492.663243 
L 454.812917 493.32398 
L 454.702371 493.977021 
L 454.528263 494.616058 
L 454.292273 495.23492 
L 453.996681 495.827632 
L 453.644341 496.388469 
L 452.976755 497.343474 
L 452.572249 497.865644 
L 452.118573 498.345711 
L 451.620086 498.779066 
L 451.081574 499.161547 
L 450.50821 499.489479 
L 449.9055 499.759714 
L 449.279233 499.969655 
L 448.635423 500.117288 
L 447.980254 500.201194 
L 447.320019 500.220566 
L 446.661058 500.175219 
L 446.0097 500.065589 
L 445.3722 499.892729 
L 444.754683 499.658297 
L 444.163077 499.364547 
L 443.603066 499.0143 
L 441.421786 497.496478 
L 440.897366 497.091919 
L 440.415187 496.637841 
L 439.979904 496.138628 
L 439.595721 495.599103 
L 439.266348 495.024474 
L 438.994966 494.420292 
L 438.784196 493.792391 
L 438.636073 493.146834 
L 438.552027 492.489855 
L 438.53287 491.8278 
L 438.578788 491.167061 
L 438.689336 490.514019 
L 438.863447 489.874981 
L 439.09944 489.256118 
L 439.395036 488.663406 
L 439.74738 488.102569 
L 440.414969 487.147568 
L 440.72028 486.753452 
L 440.689523 486.738821 
L 440.118391 486.394101 
L 439.098621 485.707535 
L 438.572522 485.314788 
L 438.087132 484.87272 
L 437.647054 484.385523 
L 437.256465 483.857821 
L 436.919071 483.294621 
L 436.638073 482.701267 
L 436.416138 482.083389 
L 436.25537 481.446849 
L 436.157297 480.797688 
L 436.122847 480.142064 
L 436.152349 479.4862 
L 436.245522 478.836317 
L 436.401482 478.198582 
L 436.61875 477.579047 
L 436.869161 477.039799 
L 436.41109 477.653898 
L 435.959659 478.197189 
L 435.453847 478.690249 
L 434.89921 479.127664 
L 434.301839 479.504628 
L 433.668296 479.817001 
L 433.005539 480.061353 
M 439.859933 473.304635 
L 440.409027 472.962175 
L 440.698071 472.818393 
L 440.741168 472.518027 
L 440.897259 471.880135 
L 441.114689 471.260462 
L 441.210082 471.055141 
L 440.854566 470.915146 
L 440.750001 470.861614 
L 440.70882 471.05905 
L 440.514778 471.681151 
L 440.261564 472.281604 
L 439.951546 472.854798 
L 439.587622 473.395373 
L 439.382471 473.670401 
L 439.859933 473.304635 
" clip-path="url(#pcd23878092)" style="fill: #ff0000; fill-opacity: 0.7; stroke: #000000; stroke-opacity: 0.7; stroke-width: 0.5"/>
    <path d="M 391.430345 384.994201 
L 392.074288 384.840929 
L 395.016369 384.291724 
L 395.671309 384.202437 
L 396.331845 384.177734 
L 396.991624 384.217851 
L 397.644301 384.322404 
L 398.283598 384.490386 
L 398.903366 384.720183 
L 399.497644 385.009582 
L 400.060716 385.355802 
L 400.587166 385.755513 
L 401.071932 386.204868 
L 401.51035 386.699548 
L 401.898204 387.234793 
L 402.231763 387.805457 
L 402.50782 388.406049 
L 402.723718 389.030794 
L 402.877382 389.673683 
L 403.019719 390.431912 
L 403.109754 391.087716 
L 403.135023 391.749188 
L 403.095283 392.40995 
L 402.990917 393.063626 
L 402.822932 393.703912 
L 402.592947 394.324631 
L 402.303182 394.919795 
L 401.956432 395.483665 
L 401.556041 396.0108 
L 401.105871 396.496117 
L 400.610265 396.934933 
L 400.074004 397.323016 
L 399.50226 397.656622 
L 398.900548 397.932534 
L 398.274672 398.14809 
L 397.63067 398.301211 
L 394.688598 398.849668 
L 394.03382 398.938778 
L 393.373462 398.96334 
L 392.713873 398.923117 
L 392.061393 398.818495 
L 391.422294 398.650481 
L 390.80272 398.42069 
L 390.208627 398.13133 
L 389.645726 397.785183 
L 389.119427 397.385577 
L 388.634789 396.936353 
L 388.196473 396.441828 
L 387.80869 395.906758 
L 387.475169 395.336285 
L 387.199115 394.735893 
L 386.983183 394.111354 
L 386.829448 393.468672 
L 386.687101 392.711191 
L 386.596943 392.055427 
L 386.571545 391.393982 
L 386.611151 390.733235 
L 386.715381 390.079561 
L 386.883229 389.439262 
L 387.113075 388.818517 
L 387.402703 388.223311 
L 387.74932 387.659385 
L 388.149581 387.13218 
L 388.599627 386.64678 
L 389.095116 386.207866 
L 389.63127 385.819673 
L 390.202917 385.485945 
L 390.804543 385.2099 
L 391.430345 384.994201 
" clip-path="url(#pcd23878092)" style="fill: #ff0000; fill-opacity: 0.7; stroke: #000000; stroke-opacity: 0.7; stroke-width: 0.5"/>
    <path d="M 407.443998 372.677886 
L 407.911471 372.208678 
L 408.422739 371.787619 
L 408.867684 371.456487 
L 409.416041 371.088708 
L 409.997753 370.776348 
L 410.607237 370.522406 
L 411.238643 370.329318 
L 411.885913 370.198938 
L 412.542834 370.132516 
L 413.203102 370.130691 
L 413.86038 370.193479 
L 414.508361 370.320278 
L 415.140825 370.509871 
L 415.751704 370.760439 
L 416.335134 371.069577 
L 416.885517 371.434318 
L 417.39757 371.851161 
L 417.866379 372.316108 
L 418.287445 372.824694 
L 418.761384 373.457892 
L 419.131631 374.006831 
L 419.446229 374.589451 
L 419.702141 375.200128 
L 419.896898 375.832968 
L 420.02862 376.481864 
L 420.096035 377.140554 
L 420.098494 377.802681 
L 420.035971 378.461853 
L 419.909072 379.11171 
L 419.71902 379.745979 
L 419.46765 380.358539 
L 419.157387 380.943479 
L 418.791226 381.495152 
L 418.372702 382.008235 
L 417.905852 382.477776 
L 417.395183 382.899244 
L 416.950223 383.231127 
L 416.401663 383.59985 
L 415.819624 383.913069 
L 415.209705 384.167772 
L 414.577771 384.361509 
L 413.929899 384.492417 
L 413.27232 384.559237 
L 412.611358 384.561326 
L 411.95337 384.498665 
L 411.304683 384.371856 
L 410.671537 384.182118 
L 410.060019 383.931276 
L 409.476012 383.621743 
L 408.925132 383.256495 
L 408.412677 382.839046 
L 407.943574 382.373409 
L 407.522336 381.864063 
L 407.048413 381.230114 
L 406.678382 380.680785 
L 406.364054 380.097789 
L 406.108467 379.486756 
L 405.914087 378.853587 
L 405.782792 378.204397 
L 405.71585 377.545454 
L 405.713908 376.883123 
L 405.776984 376.2238 
L 405.904469 375.573851 
L 406.095131 374.939553 
L 406.347131 374.327031 
L 406.658033 373.742201 
L 407.024837 373.190711 
L 407.443998 372.677886 
" clip-path="url(#pcd23878092)" style="fill: #ff0000; fill-opacity: 0.7; stroke: #000000; stroke-opacity: 0.7; stroke-width: 0.5"/>
    <path d="M 435.452899 378.833111 
L 434.90534 379.205036 
L 434.323938 379.521456 
L 433.714303 379.77932 
L 433.082313 379.97614 
L 432.434065 380.110018 
L 431.775811 380.179663 
L 431.113899 380.184402 
L 430.454715 380.124191 
L 429.804616 379.99961 
L 429.169873 379.811861 
L 428.556607 379.562754 
L 427.970734 379.254692 
L 427.417905 378.890646 
L 426.903452 378.474129 
L 426.432336 378.009156 
L 422.827063 374.083139 
L 422.403487 373.57374 
L 422.031967 373.025218 
L 421.716094 372.442871 
L 421.45892 371.832326 
L 421.262928 371.199482 
L 421.130013 370.550454 
L 421.061459 369.891513 
L 421.057928 369.229024 
L 421.078077 369.013004 
L 420.810851 368.719751 
L 420.389316 368.20884 
L 420.019966 367.65902 
L 419.706367 367.075601 
L 419.451548 366.464218 
L 419.25797 365.830776 
L 419.127503 365.181391 
L 419.061406 364.522337 
L 419.060319 363.859977 
L 419.124251 363.200709 
L 419.252585 362.5509 
L 419.444081 361.916825 
L 419.696891 361.304609 
L 420.008572 360.720163 
L 420.376115 360.169133 
L 420.654744 359.829159 
L 420.364175 359.741174 
L 419.756059 359.490007 
L 419.175329 359.180745 
L 418.627521 358.816333 
L 418.117853 358.400245 
L 417.651184 357.936446 
L 415.058553 355.095066 
L 414.640814 354.589224 
L 414.194899 355.065846 
L 413.692008 355.506412 
L 413.147943 355.894987 
L 412.568057 356.227747 
L 411.958056 356.501417 
L 411.323943 356.713306 
L 409.539295 357.212733 
L 408.8811 357.361841 
L 408.211293 357.444378 
L 407.53659 357.459517 
L 406.863755 357.407107 
L 406.199535 357.287673 
L 405.550588 357.102412 
L 404.923421 356.853182 
L 404.324323 356.542481 
L 403.7593 356.173425 
L 403.234016 355.749714 
L 402.75374 355.275596 
L 402.323285 354.755825 
L 401.946967 354.195612 
L 401.628561 353.600573 
L 398.618226 347.226873 
L 398.360756 346.602505 
L 398.167064 345.955505 
L 398.039096 345.292368 
L 397.978135 344.619754 
L 397.984795 343.944416 
L 398.059009 343.273134 
L 398.200031 342.612651 
L 398.406445 341.969596 
L 398.676179 341.350427 
L 399.006525 340.761362 
L 399.394165 340.208314 
L 399.835207 339.696838 
L 400.325222 339.232068 
L 400.859292 338.818672 
L 401.432051 338.4608 
L 402.037751 338.162046 
L 406.075236 336.416342 
L 406.683457 336.187494 
L 407.310891 336.018285 
L 407.951704 335.910289 
L 408.599938 335.864508 
L 409.249569 335.881369 
L 409.894556 335.960714 
L 410.528904 336.101807 
L 411.146715 336.303335 
L 411.742246 336.563426 
L 412.309961 336.87966 
L 412.844581 337.249099 
L 413.341138 337.668307 
L 413.795014 338.133388 
L 414.201991 338.640019 
L 414.558284 339.183488 
L 414.860583 339.758745 
L 415.106075 340.36044 
L 415.29248 340.982982 
L 415.418063 341.620581 
L 415.941239 345.172392 
L 418.218977 343.130235 
L 418.733002 342.713041 
L 419.285477 342.348289 
L 419.87107 342.039497 
L 420.484133 341.789644 
L 421.11875 341.601141 
L 421.7688 341.475807 
L 422.428009 341.414851 
L 423.090018 341.418861 
L 423.748441 341.487798 
L 424.396924 341.620997 
L 425.029211 341.817173 
L 425.639202 342.074434 
L 426.221012 342.390297 
L 426.769028 342.761715 
L 427.277962 343.185105 
L 427.742904 343.656381 
L 428.019159 343.965384 
L 427.967356 343.371578 
L 427.974828 342.709336 
L 428.04726 342.051024 
L 428.183952 341.402999 
L 428.383584 340.771518 
L 428.644228 340.162679 
L 428.963368 339.582359 
L 429.385569 338.896732 
L 429.75926 338.351672 
L 430.184534 337.845828 
L 430.657303 337.384065 
L 431.173021 336.970821 
L 431.726731 336.61007 
L 432.313108 336.30528 
L 432.926516 336.059381 
L 433.561058 335.874738 
L 434.210631 335.753125 
L 434.868992 335.695711 
L 435.529812 335.70305 
L 436.186735 335.775069 
L 436.833448 335.911077 
L 437.463733 336.109766 
L 438.071529 336.369226 
L 438.650993 336.686963 
L 439.109914 336.968711 
L 439.585061 337.259801 
L 440.132355 337.633285 
L 440.640333 338.058703 
L 441.104084 338.531942 
L 441.519128 339.048431 
L 441.881453 339.603176 
L 442.187557 340.190816 
L 442.434482 340.805673 
L 442.619842 341.441805 
L 442.741845 342.093062 
L 442.799312 342.753152 
L 442.791688 343.415695 
L 442.719047 344.074288 
L 442.58209 344.722566 
L 442.382141 345.354264 
L 442.121133 345.963276 
L 441.801588 346.543717 
L 441.379404 347.228596 
L 441.005903 347.772895 
L 440.580947 348.278046 
L 440.108613 348.739203 
L 439.593433 349.151941 
L 439.040346 349.512303 
L 438.454661 349.816831 
L 437.841994 350.062603 
L 437.208223 350.247263 
L 436.559428 350.369038 
L 435.901831 350.426761 
L 435.241743 350.419877 
L 434.585493 350.348454 
L 433.939378 350.213175 
L 433.309596 350.01534 
L 432.702187 349.756844 
L 432.12298 349.440169 
L 431.771547 349.225029 
L 431.828702 349.417797 
L 431.953589 350.06652 
L 432.014366 350.724353 
L 432.010449 351.384976 
L 431.941876 352.042042 
L 431.809305 352.689238 
L 431.61401 353.320346 
L 431.357868 353.929304 
L 431.043339 354.51026 
L 430.673445 355.057632 
L 430.25174 355.566162 
L 429.782276 356.030965 
L 429.270386 356.490337 
L 429.464136 356.54874 
L 430.074921 356.800393 
L 430.658136 357.110631 
L 431.206232 357.475176 
L 431.440993 357.348217 
L 432.179276 356.681281 
L 432.588409 356.3465 
L 432.669933 356.222875 
L 433.086107 355.709378 
L 433.550578 355.239114 
L 438.906702 350.323464 
L 439.415956 349.900239 
L 439.964282 349.529027 
L 440.546388 349.213412 
L 441.156654 348.95644 
L 441.789191 348.760591 
L 442.437893 348.627756 
L 443.096499 348.559217 
L 443.758652 348.555635 
L 444.417961 348.617044 
L 445.068062 348.742853 
L 445.702681 348.931847 
L 446.315691 349.182201 
L 446.901178 349.491499 
L 447.453488 349.856757 
L 447.967291 350.274447 
L 448.437629 350.74054 
L 451.970332 354.603368 
L 452.392318 355.112902 
L 452.762315 355.661352 
L 453.07676 356.243436 
L 453.332622 356.853543 
L 453.527435 357.485796 
L 453.659324 358.134103 
L 453.727016 358.792217 
L 453.72986 359.453797 
L 453.667828 360.112469 
L 453.583032 360.54845 
L 454.107821 360.269301 
L 454.718388 360.017723 
L 455.350644 359.827103 
L 455.998519 359.699271 
L 456.655795 359.635453 
L 457.316161 359.636264 
L 457.973277 359.701694 
L 458.620837 359.831117 
L 459.252623 360.023288 
L 459.862571 360.276364 
L 460.444824 360.587916 
L 460.993795 360.954951 
L 461.504212 361.373948 
L 461.971176 361.840883 
L 464.849256 365.015657 
L 465.269546 365.527749 
L 465.637532 366.078629 
L 465.949659 366.662974 
L 466.104883 367.038186 
L 466.21453 367.011755 
L 466.869008 366.920549 
L 467.529272 366.893872 
L 468.188974 366.931979 
L 468.841774 367.034504 
L 469.481397 367.200463 
L 470.101695 367.428258 
L 470.696704 367.715702 
L 471.260705 368.06003 
L 471.788278 368.457933 
L 472.27435 368.905587 
L 472.714249 369.398687 
L 473.103747 369.932495 
L 473.4391 370.501879 
L 473.717085 371.101366 
L 473.935028 371.725193 
L 474.086297 372.237581 
L 474.238473 372.860914 
L 474.330687 373.495893 
L 474.362101 374.136763 
L 474.332431 374.777717 
L 474.241946 375.412945 
L 474.091466 376.036689 
L 473.882355 376.643298 
L 473.616508 377.227273 
L 473.296334 377.783322 
L 472.924736 378.306405 
L 472.50508 378.791782 
L 472.279784 379.028574 
L 471.796516 379.488591 
L 471.270132 379.898572 
L 470.705792 380.254501 
L 470.109027 380.552887 
L 469.485683 380.790809 
L 468.841869 380.965934 
L 468.183896 381.076546 
L 467.51821 381.12156 
L 466.851335 381.100537 
L 466.607852 381.068569 
L 466.675703 381.189068 
L 466.939587 381.786571 
L 467.144395 382.406812 
L 467.288202 383.043966 
L 467.369659 383.692048 
L 467.388 384.344971 
L 467.343053 384.996604 
L 467.23524 385.640826 
L 467.065574 386.271586 
L 466.835648 386.882961 
L 466.503913 387.650007 
L 466.20553 388.254913 
L 465.848181 388.826967 
L 465.435445 389.36044 
L 464.971456 389.849988 
L 464.46086 390.29071 
L 463.908771 390.678192 
L 463.320719 391.008552 
L 462.702591 391.278482 
L 462.06058 391.48528 
L 461.401114 391.626873 
L 460.730799 391.701845 
L 460.056346 391.709443 
L 459.135948 391.673721 
L 458.513956 391.620649 
L 457.899542 391.510258 
L 457.297976 391.343494 
L 456.71442 391.121788 
L 456.15388 390.847043 
L 455.621163 390.521614 
L 455.12084 390.148293 
L 454.657203 389.730284 
L 454.402413 389.478221 
L 453.943563 388.975989 
L 453.537677 388.430062 
L 453.188891 387.846001 
L 452.900757 387.229756 
L 452.676211 386.587604 
L 452.517539 385.926089 
L 452.42636 385.251948 
L 452.403601 384.57205 
L 452.449495 383.893321 
L 452.563573 383.222675 
L 452.744675 382.566945 
L 452.990953 381.932811 
L 453.299901 381.326733 
L 453.919149 380.249954 
L 454.286341 379.679886 
L 454.708955 379.149598 
L 455.182715 378.664459 
L 455.702823 378.229379 
L 456.264017 377.848761 
L 456.860615 377.526459 
L 457.486579 377.265735 
L 458.135572 377.069227 
L 458.257419 377.045369 
L 457.964694 377.016222 
L 457.317132 376.8868 
L 456.685343 376.694628 
L 456.075393 376.441551 
L 455.493138 376.129998 
L 454.944165 375.762961 
L 454.433747 375.343963 
L 453.966782 374.877025 
L 451.088702 371.702244 
L 450.668412 371.19015 
L 450.300427 370.639268 
L 449.988301 370.054921 
L 449.73505 369.442754 
L 449.543121 368.808682 
L 449.414368 368.158831 
L 449.350036 367.499479 
L 449.350746 366.836996 
L 449.41649 366.177783 
L 449.442694 366.046993 
L 446.029086 369.166466 
L 445.520909 369.587121 
L 444.974042 369.956081 
L 444.393725 370.269811 
L 443.785518 370.525306 
L 443.270245 370.684573 
L 443.069691 371.176125 
L 442.762993 371.758075 
L 442.401026 372.307355 
L 441.987236 372.818733 
L 441.525566 373.287337 
L 435.961335 378.409269 
L 435.452899 378.833111 
M 460.923727 376.789388 
L 460.587337 376.890808 
L 460.463497 376.915243 
L 460.828373 376.955022 
L 461.023242 376.996402 
L 460.923727 376.789388 
" clip-path="url(#pcd23878092)" style="fill: #ff0000; fill-opacity: 0.7; stroke: #000000; stroke-opacity: 0.7; stroke-width: 0.5"/>
    <path d="M 505.131353 413.426526 
L 504.949382 414.037598 
L 504.710482 414.628739 
L 504.416793 415.194662 
L 504.070942 415.730301 
L 503.676025 416.230862 
L 503.235574 416.691867 
L 502.753533 417.109189 
L 502.234215 417.479094 
L 501.682266 417.798273 
L 501.235804 418.028992 
L 500.581518 418.32409 
L 499.899561 418.547936 
L 499.197666 418.697992 
L 498.483795 418.772557 
L 497.766041 418.770784 
L 496.931118 418.724195 
L 496.258132 418.652611 
L 495.595717 418.513896 
L 494.950554 418.309448 
L 494.329146 418.041329 
L 493.73776 417.712242 
L 493.182359 417.325506 
L 492.668543 416.88502 
L 492.201492 416.395226 
L 491.785917 415.861061 
L 491.426006 415.287913 
L 491.125389 414.681559 
L 490.887097 414.048115 
L 490.713533 413.393966 
L 490.488278 412.332578 
L 490.378798 411.642031 
L 490.341445 410.943858 
L 490.376621 410.245572 
L 490.483947 409.554686 
L 490.662269 408.878637 
L 490.909668 408.224699 
L 491.197029 407.569943 
L 491.500664 406.963103 
L 491.863778 406.389869 
L 492.28269 405.856052 
L 492.753156 405.367062 
L 493.270405 404.927856 
L 493.829195 404.542885 
L 494.423862 404.216052 
L 495.048378 403.95067 
L 495.696414 403.749428 
L 496.361401 403.614367 
L 497.036598 403.546854 
L 497.715161 403.547575 
L 498.390213 403.616523 
L 499.054911 403.752998 
L 499.537791 403.877772 
L 500.116964 404.055552 
L 500.677834 404.284622 
L 501.215867 404.563131 
L 501.726717 404.88883 
L 501.864786 404.985852 
L 502.233632 405.226697 
L 502.752618 405.601917 
L 503.233648 406.024701 
L 503.67238 406.491232 
L 504.064853 406.997298 
L 504.407522 407.538329 
L 504.697294 408.109441 
L 504.931554 408.705477 
L 505.108185 409.321057 
L 505.225593 409.950622 
L 505.282718 410.588488 
L 505.322047 411.529019 
L 505.318523 412.166599 
L 505.254769 412.800994 
L 505.131353 413.426526 
" clip-path="url(#pcd23878092)" style="fill: #ff0000; fill-opacity: 0.7; stroke: #000000; stroke-opacity: 0.7; stroke-width: 0.5"/>
    <path d="M 506.840204 321.524421 
L 506.438633 322.060604 
L 505.985819 322.554276 
L 505.421062 323.111655 
L 505.273093 323.257706 
L 504.789007 323.691477 
L 504.265388 324.0766 
L 503.707106 324.409493 
L 503.119353 324.687059 
L 502.507596 324.906719 
L 501.877525 325.066427 
L 501.235 325.1647 
L 500.585996 325.200623 
L 499.93655 325.173862 
L 499.292702 325.084666 
L 498.66044 324.933864 
L 498.045644 324.722859 
L 497.454034 324.453613 
L 496.89111 324.128631 
L 496.362108 323.750936 
L 495.87195 323.324039 
L 493.973022 321.50191 
L 493.5123 321.013468 
L 493.102463 320.481609 
L 492.747579 319.911611 
L 492.45117 319.309131 
L 492.216178 318.680149 
L 492.044935 318.030906 
L 491.93914 317.367847 
L 491.899844 316.697551 
L 491.927436 316.026672 
L 492.021642 315.361867 
L 492.181529 314.709734 
L 492.405508 314.076747 
L 492.691357 313.469185 
L 493.036239 312.893081 
L 493.436732 312.35415 
L 493.888859 311.857742 
L 494.61264 311.138554 
L 495.098677 310.700386 
L 495.624914 310.311417 
L 496.186393 309.975314 
L 496.777819 309.695246 
L 497.393617 309.473852 
L 498.027983 309.31322 
L 498.674937 309.214864 
L 499.328379 309.179711 
L 499.982151 309.208092 
L 500.630089 309.29974 
L 501.266085 309.453791 
L 501.884144 309.668793 
L 502.47844 309.942718 
L 503.04337 310.272986 
L 503.57361 310.656482 
L 504.06416 311.089591 
L 505.952273 312.92724 
L 506.408516 313.417744 
L 506.813815 313.951116 
L 507.164164 314.522087 
L 507.456103 315.125016 
L 507.686749 315.753947 
L 507.853822 316.402668 
L 507.955672 317.06477 
L 507.991294 317.733712 
L 507.960335 318.402885 
L 507.863101 319.065681 
L 507.700553 319.71555 
L 507.474296 320.346074 
L 507.186565 320.951023 
L 506.840204 321.524421 
" clip-path="url(#pcd23878092)" style="fill: #ff0000; fill-opacity: 0.7; stroke: #000000; stroke-opacity: 0.7; stroke-width: 0.5"/>
    <path d="M 531.50462 388.326829 
L 532.05319 387.957039 
L 532.653811 387.59371 
L 533.235589 387.279675 
L 533.845335 387.024149 
L 534.477182 386.829591 
L 535.125051 386.697873 
L 535.782708 386.630262 
L 536.443824 386.627408 
L 537.10204 386.689339 
L 537.751022 386.815459 
L 538.384525 387.004555 
L 538.996454 387.254807 
L 539.580922 387.563807 
L 540.132304 387.928582 
L 540.645296 388.345623 
L 541.114961 388.810916 
L 541.536781 389.319985 
L 541.906697 389.867932 
L 542.463499 390.786893 
L 542.778048 391.368649 
L 543.034068 391.978431 
L 543.229094 392.610369 
L 543.361246 393.258379 
L 543.429254 393.91622 
L 543.432463 394.57756 
L 543.370841 395.23603 
L 543.244982 395.885292 
L 543.056097 396.519092 
L 542.806006 397.13133 
L 542.497115 397.71611 
L 542.132401 398.267801 
L 541.715373 398.781093 
L 541.250047 399.251042 
L 540.740903 399.673125 
L 540.192844 400.043276 
L 539.592207 400.407356 
L 539.010227 400.722148 
L 538.400186 400.978359 
L 537.767962 401.17352 
L 537.119649 401.305749 
L 536.461495 401.373773 
L 535.799842 401.376936 
L 535.141068 401.315207 
L 534.49152 401.189181 
L 533.85746 401.000074 
L 533.244997 400.749707 
L 532.660034 400.440493 
L 532.10821 400.075412 
L 531.594841 399.657984 
L 531.124875 399.19223 
L 530.702843 398.682639 
L 530.33281 398.134123 
L 529.776024 397.214411 
L 529.461597 396.632337 
L 529.20575 396.022242 
L 529.010949 395.390002 
L 528.879069 394.741711 
L 528.811383 394.083613 
L 528.808541 393.42205 
L 528.870572 392.763395 
L 528.996877 392.113994 
L 529.186241 391.480105 
L 529.436837 390.867834 
L 529.746253 390.283081 
L 530.111506 389.731479 
L 530.529078 389.218344 
L 530.994945 388.748618 
L 531.50462 388.326829 
" clip-path="url(#pcd23878092)" style="fill: #ff0000; fill-opacity: 0.7; stroke: #000000; stroke-opacity: 0.7; stroke-width: 0.5"/>
    <path d="M 524.85384 352.585019 
L 528.893693 350.211638 
L 529.132363 350.077862 
L 532.305061 348.383242 
L 532.917506 348.09467 
L 533.555811 347.868996 
L 534.213537 347.708497 
L 534.884046 347.614792 
L 535.560573 347.588829 
L 536.236292 347.630867 
L 536.904384 347.740484 
L 537.558109 347.916573 
L 538.190869 348.157357 
L 538.796282 348.460407 
L 539.368236 348.822664 
L 539.900963 349.240475 
L 540.389086 349.709622 
L 540.827679 350.225373 
L 541.212319 350.782522 
L 541.539122 351.375449 
L 543.079189 354.535383 
L 543.342163 355.150798 
L 543.542808 355.789258 
L 543.679145 356.44447 
L 543.74983 357.109973 
L 543.754168 357.779205 
L 543.692113 358.445568 
L 543.564279 359.102492 
L 543.371927 359.743499 
L 543.116951 360.362271 
L 542.801867 360.952705 
L 542.429781 361.50898 
L 542.004362 362.025612 
L 541.529803 362.497507 
L 541.010785 362.920012 
L 540.452424 363.288961 
L 534.495058 366.81352 
L 534.086002 367.162479 
L 533.545646 367.538963 
L 532.971126 367.860912 
L 532.367928 368.125254 
L 531.74181 368.329464 
L 531.098752 368.471592 
L 530.444892 368.550281 
L 529.786474 368.564781 
L 529.129784 368.514953 
L 528.481092 368.401271 
L 527.846591 368.224823 
L 527.232341 367.987292 
L 526.644204 367.690947 
L 526.087798 367.338616 
L 525.568434 366.933664 
L 525.091072 366.479958 
L 524.660268 365.981829 
L 524.280136 365.444032 
L 523.954306 364.871704 
L 522.453573 361.907542 
L 522.265778 361.504096 
L 522.066951 361.037253 
L 521.842053 360.429748 
L 521.676515 359.803459 
L 521.571868 359.164171 
L 521.529077 358.517789 
L 521.548537 357.870284 
L 521.63007 357.227639 
L 521.772922 356.595789 
L 521.975772 355.980572 
L 522.236749 355.38767 
L 522.553439 354.822562 
L 522.922919 354.290466 
L 523.341774 353.796299 
L 523.806136 353.344626 
L 524.311715 352.939619 
L 524.85384 352.585019 
" clip-path="url(#pcd23878092)" style="fill: #ff0000; fill-opacity: 0.7; stroke: #000000; stroke-opacity: 0.7; stroke-width: 0.5"/>
   </g>
   <g id="matplotlib.axis_1">
    <g id="xtick_1">
     <g id="line2d_1">
      <defs>
       <path id="m66517ff1de" d="M 0 0 
L 0 3.5 
" style="stroke: #000000; stroke-width: 0.8"/>
      </defs>
      <g>
       <use xlink:href="#m66517ff1de" x="180.25728" y="640.8" style="stroke: #000000; stroke-width: 0.8"/>
      </g>
     </g>
     <g id="text_1">
      <!-- 394000 -->
      <g transform="translate(161.16978 655.398438) scale(0.1 -0.1)">
       <defs>
        <path id="DejaVuSans-33" d="M 2597 2516 
Q 3050 2419 3304 2112 
Q 3559 1806 3559 1356 
Q 3559 666 3084 287 
Q 2609 -91 1734 -91 
Q 1441 -91 1130 -33 
Q 819 25 488 141 
L 488 750 
Q 750 597 1062 519 
Q 1375 441 1716 441 
Q 2309 441 2620 675 
Q 2931 909 2931 1356 
Q 2931 1769 2642 2001 
Q 2353 2234 1838 2234 
L 1294 2234 
L 1294 2753 
L 1863 2753 
Q 2328 2753 2575 2939 
Q 2822 3125 2822 3475 
Q 2822 3834 2567 4026 
Q 2313 4219 1838 4219 
Q 1578 4219 1281 4162 
Q 984 4106 628 3988 
L 628 4550 
Q 988 4650 1302 4700 
Q 1616 4750 1894 4750 
Q 2613 4750 3031 4423 
Q 3450 4097 3450 3541 
Q 3450 3153 3228 2886 
Q 3006 2619 2597 2516 
z
" transform="scale(0.015625)"/>
        <path id="DejaVuSans-39" d="M 703 97 
L 703 672 
Q 941 559 1184 500 
Q 1428 441 1663 441 
Q 2288 441 2617 861 
Q 2947 1281 2994 2138 
Q 2813 1869 2534 1725 
Q 2256 1581 1919 1581 
Q 1219 1581 811 2004 
Q 403 2428 403 3163 
Q 403 3881 828 4315 
Q 1253 4750 1959 4750 
Q 2769 4750 3195 4129 
Q 3622 3509 3622 2328 
Q 3622 1225 3098 567 
Q 2575 -91 1691 -91 
Q 1453 -91 1209 -44 
Q 966 3 703 97 
z
M 1959 2075 
Q 2384 2075 2632 2365 
Q 2881 2656 2881 3163 
Q 2881 3666 2632 3958 
Q 2384 4250 1959 4250 
Q 1534 4250 1286 3958 
Q 1038 3666 1038 3163 
Q 1038 2656 1286 2365 
Q 1534 2075 1959 2075 
z
" transform="scale(0.015625)"/>
        <path id="DejaVuSans-34" d="M 2419 4116 
L 825 1625 
L 2419 1625 
L 2419 4116 
z
M 2253 4666 
L 3047 4666 
L 3047 1625 
L 3713 1625 
L 3713 1100 
L 3047 1100 
L 3047 0 
L 2419 0 
L 2419 1100 
L 313 1100 
L 313 1709 
L 2253 4666 
z
" transform="scale(0.015625)"/>
        <path id="DejaVuSans-30" d="M 2034 4250 
Q 1547 4250 1301 3770 
Q 1056 3291 1056 2328 
Q 1056 1369 1301 889 
Q 1547 409 2034 409 
Q 2525 409 2770 889 
Q 3016 1369 3016 2328 
Q 3016 3291 2770 3770 
Q 2525 4250 2034 4250 
z
M 2034 4750 
Q 2819 4750 3233 4129 
Q 3647 3509 3647 2328 
Q 3647 1150 3233 529 
Q 2819 -91 2034 -91 
Q 1250 -91 836 529 
Q 422 1150 422 2328 
Q 422 3509 836 4129 
Q 1250 4750 2034 4750 
z
" transform="scale(0.015625)"/>
       </defs>
       <use xlink:href="#DejaVuSans-33"/>
       <use xlink:href="#DejaVuSans-39" x="63.623047"/>
       <use xlink:href="#DejaVuSans-34" x="127.246094"/>
       <use xlink:href="#DejaVuSans-30" x="190.869141"/>
       <use xlink:href="#DejaVuSans-30" x="254.492188"/>
       <use xlink:href="#DejaVuSans-30" x="318.115234"/>
      </g>
     </g>
    </g>
    <g id="xtick_2">
     <g id="line2d_2">
      <g>
       <use xlink:href="#m66517ff1de" x="247.656548" y="640.8" style="stroke: #000000; stroke-width: 0.8"/>
      </g>
     </g>
     <g id="text_2">
      <!-- 395000 -->
      <g transform="translate(228.569048 655.398438) scale(0.1 -0.1)">
       <defs>
        <path id="DejaVuSans-35" d="M 691 4666 
L 3169 4666 
L 3169 4134 
L 1269 4134 
L 1269 2991 
Q 1406 3038 1543 3061 
Q 1681 3084 1819 3084 
Q 2600 3084 3056 2656 
Q 3513 2228 3513 1497 
Q 3513 744 3044 326 
Q 2575 -91 1722 -91 
Q 1428 -91 1123 -41 
Q 819 9 494 109 
L 494 744 
Q 775 591 1075 516 
Q 1375 441 1709 441 
Q 2250 441 2565 725 
Q 2881 1009 2881 1497 
Q 2881 1984 2565 2268 
Q 2250 2553 1709 2553 
Q 1456 2553 1204 2497 
Q 953 2441 691 2322 
L 691 4666 
z
" transform="scale(0.015625)"/>
       </defs>
       <use xlink:href="#DejaVuSans-33"/>
       <use xlink:href="#DejaVuSans-39" x="63.623047"/>
       <use xlink:href="#DejaVuSans-35" x="127.246094"/>
       <use xlink:href="#DejaVuSans-30" x="190.869141"/>
       <use xlink:href="#DejaVuSans-30" x="254.492188"/>
       <use xlink:href="#DejaVuSans-30" x="318.115234"/>
      </g>
     </g>
    </g>
    <g id="xtick_3">
     <g id="line2d_3">
      <g>
       <use xlink:href="#m66517ff1de" x="315.055816" y="640.8" style="stroke: #000000; stroke-width: 0.8"/>
      </g>
     </g>
     <g id="text_3">
      <!-- 396000 -->
      <g transform="translate(295.968316 655.398438) scale(0.1 -0.1)">
       <defs>
        <path id="DejaVuSans-36" d="M 2113 2584 
Q 1688 2584 1439 2293 
Q 1191 2003 1191 1497 
Q 1191 994 1439 701 
Q 1688 409 2113 409 
Q 2538 409 2786 701 
Q 3034 994 3034 1497 
Q 3034 2003 2786 2293 
Q 2538 2584 2113 2584 
z
M 3366 4563 
L 3366 3988 
Q 3128 4100 2886 4159 
Q 2644 4219 2406 4219 
Q 1781 4219 1451 3797 
Q 1122 3375 1075 2522 
Q 1259 2794 1537 2939 
Q 1816 3084 2150 3084 
Q 2853 3084 3261 2657 
Q 3669 2231 3669 1497 
Q 3669 778 3244 343 
Q 2819 -91 2113 -91 
Q 1303 -91 875 529 
Q 447 1150 447 2328 
Q 447 3434 972 4092 
Q 1497 4750 2381 4750 
Q 2619 4750 2861 4703 
Q 3103 4656 3366 4563 
z
" transform="scale(0.015625)"/>
       </defs>
       <use xlink:href="#DejaVuSans-33"/>
       <use xlink:href="#DejaVuSans-39" x="63.623047"/>
       <use xlink:href="#DejaVuSans-36" x="127.246094"/>
       <use xlink:href="#DejaVuSans-30" x="190.869141"/>
       <use xlink:href="#DejaVuSans-30" x="254.492188"/>
       <use xlink:href="#DejaVuSans-30" x="318.115234"/>
      </g>
     </g>
    </g>
    <g id="xtick_4">
     <g id="line2d_4">
      <g>
       <use xlink:href="#m66517ff1de" x="382.455084" y="640.8" style="stroke: #000000; stroke-width: 0.8"/>
      </g>
     </g>
     <g id="text_4">
      <!-- 397000 -->
      <g transform="translate(363.367584 655.398438) scale(0.1 -0.1)">
       <defs>
        <path id="DejaVuSans-37" d="M 525 4666 
L 3525 4666 
L 3525 4397 
L 1831 0 
L 1172 0 
L 2766 4134 
L 525 4134 
L 525 4666 
z
" transform="scale(0.015625)"/>
       </defs>
       <use xlink:href="#DejaVuSans-33"/>
       <use xlink:href="#DejaVuSans-39" x="63.623047"/>
       <use xlink:href="#DejaVuSans-37" x="127.246094"/>
       <use xlink:href="#DejaVuSans-30" x="190.869141"/>
       <use xlink:href="#DejaVuSans-30" x="254.492188"/>
       <use xlink:href="#DejaVuSans-30" x="318.115234"/>
      </g>
     </g>
    </g>
    <g id="xtick_5">
     <g id="line2d_5">
      <g>
       <use xlink:href="#m66517ff1de" x="449.854353" y="640.8" style="stroke: #000000; stroke-width: 0.8"/>
      </g>
     </g>
     <g id="text_5">
      <!-- 398000 -->
      <g transform="translate(430.766853 655.398438) scale(0.1 -0.1)">
       <defs>
        <path id="DejaVuSans-38" d="M 2034 2216 
Q 1584 2216 1326 1975 
Q 1069 1734 1069 1313 
Q 1069 891 1326 650 
Q 1584 409 2034 409 
Q 2484 409 2743 651 
Q 3003 894 3003 1313 
Q 3003 1734 2745 1975 
Q 2488 2216 2034 2216 
z
M 1403 2484 
Q 997 2584 770 2862 
Q 544 3141 544 3541 
Q 544 4100 942 4425 
Q 1341 4750 2034 4750 
Q 2731 4750 3128 4425 
Q 3525 4100 3525 3541 
Q 3525 3141 3298 2862 
Q 3072 2584 2669 2484 
Q 3125 2378 3379 2068 
Q 3634 1759 3634 1313 
Q 3634 634 3220 271 
Q 2806 -91 2034 -91 
Q 1263 -91 848 271 
Q 434 634 434 1313 
Q 434 1759 690 2068 
Q 947 2378 1403 2484 
z
M 1172 3481 
Q 1172 3119 1398 2916 
Q 1625 2713 2034 2713 
Q 2441 2713 2670 2916 
Q 2900 3119 2900 3481 
Q 2900 3844 2670 4047 
Q 2441 4250 2034 4250 
Q 1625 4250 1398 4047 
Q 1172 3844 1172 3481 
z
" transform="scale(0.015625)"/>
       </defs>
       <use xlink:href="#DejaVuSans-33"/>
       <use xlink:href="#DejaVuSans-39" x="63.623047"/>
       <use xlink:href="#DejaVuSans-38" x="127.246094"/>
       <use xlink:href="#DejaVuSans-30" x="190.869141"/>
       <use xlink:href="#DejaVuSans-30" x="254.492188"/>
       <use xlink:href="#DejaVuSans-30" x="318.115234"/>
      </g>
     </g>
    </g>
    <g id="xtick_6">
     <g id="line2d_6">
      <g>
       <use xlink:href="#m66517ff1de" x="517.253621" y="640.8" style="stroke: #000000; stroke-width: 0.8"/>
      </g>
     </g>
     <g id="text_6">
      <!-- 399000 -->
      <g transform="translate(498.166121 655.398438) scale(0.1 -0.1)">
       <use xlink:href="#DejaVuSans-33"/>
       <use xlink:href="#DejaVuSans-39" x="63.623047"/>
       <use xlink:href="#DejaVuSans-39" x="127.246094"/>
       <use xlink:href="#DejaVuSans-30" x="190.869141"/>
       <use xlink:href="#DejaVuSans-30" x="254.492188"/>
       <use xlink:href="#DejaVuSans-30" x="318.115234"/>
      </g>
     </g>
    </g>
    <g id="xtick_7">
     <g id="line2d_7">
      <g>
       <use xlink:href="#m66517ff1de" x="584.652889" y="640.8" style="stroke: #000000; stroke-width: 0.8"/>
      </g>
     </g>
     <g id="text_7">
      <!-- 400000 -->
      <g transform="translate(565.565389 655.398438) scale(0.1 -0.1)">
       <use xlink:href="#DejaVuSans-34"/>
       <use xlink:href="#DejaVuSans-30" x="63.623047"/>
       <use xlink:href="#DejaVuSans-30" x="127.246094"/>
       <use xlink:href="#DejaVuSans-30" x="190.869141"/>
       <use xlink:href="#DejaVuSans-30" x="254.492188"/>
       <use xlink:href="#DejaVuSans-30" x="318.115234"/>
      </g>
     </g>
    </g>
   </g>
   <g id="matplotlib.axis_2">
    <g id="ytick_1">
     <g id="line2d_8">
      <defs>
       <path id="m757c2dab0e" d="M 0 0 
L -3.5 0 
" style="stroke: #000000; stroke-width: 0.8"/>
      </defs>
      <g>
       <use xlink:href="#m757c2dab0e" x="126.491101" y="600.869486" style="stroke: #000000; stroke-width: 0.8"/>
      </g>
     </g>
     <g id="text_8">
      <!-- 5.830 -->
      <g transform="translate(90.862976 604.668704) scale(0.1 -0.1)">
       <defs>
        <path id="DejaVuSans-2e" d="M 684 794 
L 1344 794 
L 1344 0 
L 684 0 
L 684 794 
z
" transform="scale(0.015625)"/>
       </defs>
       <use xlink:href="#DejaVuSans-35"/>
       <use xlink:href="#DejaVuSans-2e" x="63.623047"/>
       <use xlink:href="#DejaVuSans-38" x="95.410156"/>
       <use xlink:href="#DejaVuSans-33" x="159.033203"/>
       <use xlink:href="#DejaVuSans-30" x="222.65625"/>
      </g>
     </g>
    </g>
    <g id="ytick_2">
     <g id="line2d_9">
      <g>
       <use xlink:href="#m757c2dab0e" x="126.491101" y="533.470217" style="stroke: #000000; stroke-width: 0.8"/>
      </g>
     </g>
     <g id="text_9">
      <!-- 5.831 -->
      <g transform="translate(90.862976 537.269436) scale(0.1 -0.1)">
       <defs>
        <path id="DejaVuSans-31" d="M 794 531 
L 1825 531 
L 1825 4091 
L 703 3866 
L 703 4441 
L 1819 4666 
L 2450 4666 
L 2450 531 
L 3481 531 
L 3481 0 
L 794 0 
L 794 531 
z
" transform="scale(0.015625)"/>
       </defs>
       <use xlink:href="#DejaVuSans-35"/>
       <use xlink:href="#DejaVuSans-2e" x="63.623047"/>
       <use xlink:href="#DejaVuSans-38" x="95.410156"/>
       <use xlink:href="#DejaVuSans-33" x="159.033203"/>
       <use xlink:href="#DejaVuSans-31" x="222.65625"/>
      </g>
     </g>
    </g>
    <g id="ytick_3">
     <g id="line2d_10">
      <g>
       <use xlink:href="#m757c2dab0e" x="126.491101" y="466.070949" style="stroke: #000000; stroke-width: 0.8"/>
      </g>
     </g>
     <g id="text_10">
      <!-- 5.832 -->
      <g transform="translate(90.862976 469.870168) scale(0.1 -0.1)">
       <defs>
        <path id="DejaVuSans-32" d="M 1228 531 
L 3431 531 
L 3431 0 
L 469 0 
L 469 531 
Q 828 903 1448 1529 
Q 2069 2156 2228 2338 
Q 2531 2678 2651 2914 
Q 2772 3150 2772 3378 
Q 2772 3750 2511 3984 
Q 2250 4219 1831 4219 
Q 1534 4219 1204 4116 
Q 875 4013 500 3803 
L 500 4441 
Q 881 4594 1212 4672 
Q 1544 4750 1819 4750 
Q 2544 4750 2975 4387 
Q 3406 4025 3406 3419 
Q 3406 3131 3298 2873 
Q 3191 2616 2906 2266 
Q 2828 2175 2409 1742 
Q 1991 1309 1228 531 
z
" transform="scale(0.015625)"/>
       </defs>
       <use xlink:href="#DejaVuSans-35"/>
       <use xlink:href="#DejaVuSans-2e" x="63.623047"/>
       <use xlink:href="#DejaVuSans-38" x="95.410156"/>
       <use xlink:href="#DejaVuSans-33" x="159.033203"/>
       <use xlink:href="#DejaVuSans-32" x="222.65625"/>
      </g>
     </g>
    </g>
    <g id="ytick_4">
     <g id="line2d_11">
      <g>
       <use xlink:href="#m757c2dab0e" x="126.491101" y="398.671681" style="stroke: #000000; stroke-width: 0.8"/>
      </g>
     </g>
     <g id="text_11">
      <!-- 5.833 -->
      <g transform="translate(90.862976 402.4709) scale(0.1 -0.1)">
       <use xlink:href="#DejaVuSans-35"/>
       <use xlink:href="#DejaVuSans-2e" x="63.623047"/>
       <use xlink:href="#DejaVuSans-38" x="95.410156"/>
       <use xlink:href="#DejaVuSans-33" x="159.033203"/>
       <use xlink:href="#DejaVuSans-33" x="222.65625"/>
      </g>
     </g>
    </g>
    <g id="ytick_5">
     <g id="line2d_12">
      <g>
       <use xlink:href="#m757c2dab0e" x="126.491101" y="331.272413" style="stroke: #000000; stroke-width: 0.8"/>
      </g>
     </g>
     <g id="text_12">
      <!-- 5.834 -->
      <g transform="translate(90.862976 335.071632) scale(0.1 -0.1)">
       <use xlink:href="#DejaVuSans-35"/>
       <use xlink:href="#DejaVuSans-2e" x="63.623047"/>
       <use xlink:href="#DejaVuSans-38" x="95.410156"/>
       <use xlink:href="#DejaVuSans-33" x="159.033203"/>
       <use xlink:href="#DejaVuSans-34" x="222.65625"/>
      </g>
     </g>
    </g>
    <g id="ytick_6">
     <g id="line2d_13">
      <g>
       <use xlink:href="#m757c2dab0e" x="126.491101" y="263.873145" style="stroke: #000000; stroke-width: 0.8"/>
      </g>
     </g>
     <g id="text_13">
      <!-- 5.835 -->
      <g transform="translate(90.862976 267.672363) scale(0.1 -0.1)">
       <use xlink:href="#DejaVuSans-35"/>
       <use xlink:href="#DejaVuSans-2e" x="63.623047"/>
       <use xlink:href="#DejaVuSans-38" x="95.410156"/>
       <use xlink:href="#DejaVuSans-33" x="159.033203"/>
       <use xlink:href="#DejaVuSans-35" x="222.65625"/>
      </g>
     </g>
    </g>
    <g id="ytick_7">
     <g id="line2d_14">
      <g>
       <use xlink:href="#m757c2dab0e" x="126.491101" y="196.473876" style="stroke: #000000; stroke-width: 0.8"/>
      </g>
     </g>
     <g id="text_14">
      <!-- 5.836 -->
      <g transform="translate(90.862976 200.273095) scale(0.1 -0.1)">
       <use xlink:href="#DejaVuSans-35"/>
       <use xlink:href="#DejaVuSans-2e" x="63.623047"/>
       <use xlink:href="#DejaVuSans-38" x="95.410156"/>
       <use xlink:href="#DejaVuSans-33" x="159.033203"/>
       <use xlink:href="#DejaVuSans-36" x="222.65625"/>
      </g>
     </g>
    </g>
    <g id="ytick_8">
     <g id="line2d_15">
      <g>
       <use xlink:href="#m757c2dab0e" x="126.491101" y="129.074608" style="stroke: #000000; stroke-width: 0.8"/>
      </g>
     </g>
     <g id="text_15">
      <!-- 5.837 -->
      <g transform="translate(90.862976 132.873827) scale(0.1 -0.1)">
       <use xlink:href="#DejaVuSans-35"/>
       <use xlink:href="#DejaVuSans-2e" x="63.623047"/>
       <use xlink:href="#DejaVuSans-38" x="95.410156"/>
       <use xlink:href="#DejaVuSans-33" x="159.033203"/>
       <use xlink:href="#DejaVuSans-37" x="222.65625"/>
      </g>
     </g>
    </g>
    <g id="text_16">
     <!-- 1e6 -->
     <g transform="translate(126.491101 83.4) scale(0.1 -0.1)">
      <defs>
       <path id="DejaVuSans-65" d="M 3597 1894 
L 3597 1613 
L 953 1613 
Q 991 1019 1311 708 
Q 1631 397 2203 397 
Q 2534 397 2845 478 
Q 3156 559 3463 722 
L 3463 178 
Q 3153 47 2828 -22 
Q 2503 -91 2169 -91 
Q 1331 -91 842 396 
Q 353 884 353 1716 
Q 353 2575 817 3079 
Q 1281 3584 2069 3584 
Q 2775 3584 3186 3129 
Q 3597 2675 3597 1894 
z
M 3022 2063 
Q 3016 2534 2758 2815 
Q 2500 3097 2075 3097 
Q 1594 3097 1305 2825 
Q 1016 2553 972 2059 
L 3022 2063 
z
" transform="scale(0.015625)"/>
      </defs>
      <use xlink:href="#DejaVuSans-31"/>
      <use xlink:href="#DejaVuSans-65" x="63.623047"/>
      <use xlink:href="#DejaVuSans-36" x="125.146484"/>
     </g>
    </g>
   </g>
   <g id="patch_3">
    <path d="M 126.491101 640.8 
L 126.491101 86.4 
" style="fill: none; stroke: #000000; stroke-width: 0.8; stroke-linejoin: miter; stroke-linecap: square"/>
   </g>
   <g id="patch_4">
    <path d="M 611.508899 640.8 
L 611.508899 86.4 
" style="fill: none; stroke: #000000; stroke-width: 0.8; stroke-linejoin: miter; stroke-linecap: square"/>
   </g>
   <g id="patch_5">
    <path d="M 126.491101 640.8 
L 611.508899 640.8 
" style="fill: none; stroke: #000000; stroke-width: 0.8; stroke-linejoin: miter; stroke-linecap: square"/>
   </g>
   <g id="patch_6">
    <path d="M 126.491101 86.4 
L 611.508899 86.4 
" style="fill: none; stroke: #000000; stroke-width: 0.8; stroke-linejoin: miter; stroke-linecap: square"/>
   </g>
   <g id="text_17">
    <!-- Buch -->
    <g transform="translate(343.439058 387.685644) scale(0.12 -0.12)">
     <defs>
      <path id="DejaVuSans-42" d="M 1259 2228 
L 1259 519 
L 2272 519 
Q 2781 519 3026 730 
Q 3272 941 3272 1375 
Q 3272 1813 3026 2020 
Q 2781 2228 2272 2228 
L 1259 2228 
z
M 1259 4147 
L 1259 2741 
L 2194 2741 
Q 2656 2741 2882 2914 
Q 3109 3088 3109 3444 
Q 3109 3797 2882 3972 
Q 2656 4147 2194 4147 
L 1259 4147 
z
M 628 4666 
L 2241 4666 
Q 2963 4666 3353 4366 
Q 3744 4066 3744 3513 
Q 3744 3084 3544 2831 
Q 3344 2578 2956 2516 
Q 3422 2416 3680 2098 
Q 3938 1781 3938 1306 
Q 3938 681 3513 340 
Q 3088 0 2303 0 
L 628 0 
L 628 4666 
z
" transform="scale(0.015625)"/>
      <path id="DejaVuSans-75" d="M 544 1381 
L 544 3500 
L 1119 3500 
L 1119 1403 
Q 1119 906 1312 657 
Q 1506 409 1894 409 
Q 2359 409 2629 706 
Q 2900 1003 2900 1516 
L 2900 3500 
L 3475 3500 
L 3475 0 
L 2900 0 
L 2900 538 
Q 2691 219 2414 64 
Q 2138 -91 1772 -91 
Q 1169 -91 856 284 
Q 544 659 544 1381 
z
M 1991 3584 
L 1991 3584 
z
" transform="scale(0.015625)"/>
      <path id="DejaVuSans-63" d="M 3122 3366 
L 3122 2828 
Q 2878 2963 2633 3030 
Q 2388 3097 2138 3097 
Q 1578 3097 1268 2742 
Q 959 2388 959 1747 
Q 959 1106 1268 751 
Q 1578 397 2138 397 
Q 2388 397 2633 464 
Q 2878 531 3122 666 
L 3122 134 
Q 2881 22 2623 -34 
Q 2366 -91 2075 -91 
Q 1284 -91 818 406 
Q 353 903 353 1747 
Q 353 2603 823 3093 
Q 1294 3584 2113 3584 
Q 2378 3584 2631 3529 
Q 2884 3475 3122 3366 
z
" transform="scale(0.015625)"/>
      <path id="DejaVuSans-68" d="M 3513 2113 
L 3513 0 
L 2938 0 
L 2938 2094 
Q 2938 2591 2744 2837 
Q 2550 3084 2163 3084 
Q 1697 3084 1428 2787 
Q 1159 2491 1159 1978 
L 1159 0 
L 581 0 
L 581 4863 
L 1159 4863 
L 1159 2956 
Q 1366 3272 1645 3428 
Q 1925 3584 2291 3584 
Q 2894 3584 3203 3211 
Q 3513 2838 3513 2113 
z
" transform="scale(0.015625)"/>
     </defs>
     <use xlink:href="#DejaVuSans-42"/>
     <use xlink:href="#DejaVuSans-75" x="68.603516"/>
     <use xlink:href="#DejaVuSans-63" x="131.982422"/>
     <use xlink:href="#DejaVuSans-68" x="186.962891"/>
    </g>
   </g>
  </g>
 </g>
 <defs>
  <clipPath id="pcd23878092">
   <rect x="126.491101" y="86.4" width="485.017798" height="554.4"/>
  </clipPath>
 </defs>
</svg>
