<?xml version="1.0" encoding="utf-8" standalone="no"?>
<!DOCTYPE svg PUBLIC "-//W3C//DTD SVG 1.1//EN"
  "http://www.w3.org/Graphics/SVG/1.1/DTD/svg11.dtd">
<svg xmlns:xlink="http://www.w3.org/1999/xlink" width="720pt" height="720pt" viewBox="0 0 720 720" xmlns="http://www.w3.org/2000/svg" version="1.1">
 <metadata>
  <rdf:RDF xmlns:dc="http://purl.org/dc/elements/1.1/" xmlns:cc="http://creativecommons.org/ns#" xmlns:rdf="http://www.w3.org/1999/02/22-rdf-syntax-ns#">
   <cc:Work>
    <dc:type rdf:resource="http://purl.org/dc/dcmitype/StillImage"/>
    <dc:date>2024-10-15T09:51:30.918017</dc:date>
    <dc:format>image/svg+xml</dc:format>
    <dc:creator>
     <cc:Agent>
      <dc:title>Matplotlib v3.8.4, https://matplotlib.org/</dc:title>
     </cc:Agent>
    </dc:creator>
   </cc:Work>
  </rdf:RDF>
 </metadata>
 <defs>
  <style type="text/css">*{stroke-linejoin: round; stroke-linecap: butt}</style>
 </defs>
 <g id="figure_1">
  <g id="patch_1">
   <path d="M 0 720 
L 720 720 
L 720 0 
L 0 0 
z
" style="fill: #ffffff"/>
  </g>
  <g id="axes_1">
   <g id="patch_2">
    <path d="M 90 524.046582 
L 648 524.046582 
L 648 203.153418 
L 90 203.153418 
z
" style="fill: #ffffff"/>
   </g>
   <g id="PatchCollection_1">
    <path d="M 607.926797 344.186143 
L 607.92681 344.185999 
L 607.965764 343.748213 
L 607.975948 343.63428 
L 608.074988 342.524093 
L 607.800019 342.353129 
L 603.899664 339.928185 
L 599.884103 336.893472 
L 598.786901 336.023502 
L 598.856407 335.845409 
L 599.077528 335.530086 
L 598.746801 335.185229 
L 595.499243 331.860908 
L 593.905697 329.77993 
L 593.526469 329.252779 
L 593.412026 329.093781 
L 592.916192 328.404323 
L 592.568534 327.920963 
L 589.555718 323.732018 
L 589.058864 323.041032 
L 588.12919 321.748679 
L 586.06858 318.992118 
L 585.484271 318.210494 
L 583.65853 315.76811 
L 583.517863 315.57996 
L 576.774 306.558949 
L 576.38879 306.043383 
L 575.583233 304.965913 
L 572.468449 300.279606 
L 570.592169 297.742637 
L 568.109049 294.982766 
L 564.919666 290.935252 
L 564.767542 290.732972 
L 551.723586 273.397976 
L 551.14106 272.705972 
L 548.978864 270.140616 
L 548.081651 268.855646 
L 546.293209 266.245225 
L 545.852622 265.585173 
L 545.571416 264.976423 
L 542.2266 259.609823 
L 540.944685 257.870773 
L 536.945546 253.637401 
L 536.561735 253.203688 
L 535.259707 251.726495 
L 535.170088 251.605687 
L 535.054372 251.449872 
L 534.111713 250.179669 
L 529.913348 244.973722 
L 529.682043 244.754256 
L 529.259915 244.261222 
L 519.144249 243.444972 
L 505.537626 242.617011 
L 505.019768 242.585568 
L 502.521372 242.432298 
L 501.928279 242.396399 
L 501.599463 242.37654 
L 486.243096 241.437701 
L 470.053919 239.865675 
L 464.070561 239.28467 
L 454.1876 238.32508 
L 447.719215 237.696853 
L 435.046595 236.466368 
L 431.306002 236.103689 
L 418.471582 234.879187 
L 412.70946 234.452604 
L 388.809968 232.952497 
L 387.853561 232.892538 
L 387.551477 232.873443 
L 387.170722 232.848874 
L 385.078541 232.718137 
L 383.337454 232.609168 
L 382.935567 232.591346 
L 382.632593 232.576961 
L 381.55856 232.527823 
L 381.095314 232.506691 
L 380.78241 232.49307 
L 378.915296 232.409179 
L 375.975294 232.252727 
L 347.532072 230.834347 
L 343.606257 230.643142 
L 343.087381 230.617809 
L 342.121681 230.570835 
L 341.670274 230.548939 
L 340.379321 230.486053 
L 339.870374 230.461229 
L 333.332993 230.142724 
L 324.933081 229.734599 
L 293.498428 228.181662 
L 269.584169 226.965308 
L 256.914604 226.30411 
L 244.144216 225.655005 
L 231.596095 225.031743 
L 231.486744 225.025887 
L 218.745509 224.251265 
L 194.842707 222.965149 
L 193.81272 222.908628 
L 184.160682 222.384278 
L 183.207457 222.332594 
L 167.466135 221.476754 
L 166.02153 221.397064 
L 165.721484 221.381151 
L 164.613843 221.320556 
L 133.915623 219.66196 
L 132.841335 218.590092 
L 129.88835 218.377373 
L 126.350673 218.121626 
L 121.051033 217.739471 
L 121.098516 218.187059 
L 121.130978 219.025331 
L 120.408167 218.976193 
L 118.809529 218.87168 
L 118.797436 219.101202 
L 118.717491 220.618113 
L 118.374544 227.125197 
L 118.343355 227.717525 
L 118.296254 228.611174 
L 118.291544 228.700284 
L 115.446763 228.553125 
L 115.363636 229.983344 
L 115.76947 230.464794 
L 116.65077 231.510057 
L 117.041455 232.21912 
L 117.711946 233.436111 
L 121.105009 239.594519 
L 123.762403 248.23783 
L 128.830357 264.668611 
L 130.858633 271.335456 
L 133.711815 280.613487 
L 136.023207 288.130953 
L 138.655905 296.666058 
L 138.80281 297.142034 
L 139.22812 298.521333 
L 139.293935 298.734689 
L 142.810988 310.136979 
L 142.259523 310.256769 
L 141.696347 310.379232 
L 140.823321 310.57031 
L 142.364291 315.577796 
L 143.233116 318.401444 
L 143.336993 318.765778 
L 143.42534 319.134312 
L 143.497901 319.506157 
L 143.554549 319.880801 
L 143.595286 320.257483 
L 143.619982 320.635565 
L 143.628511 321.014411 
L 143.620873 321.393129 
L 143.597322 321.771339 
L 143.557605 322.148148 
L 143.501847 322.52292 
L 143.430304 322.895019 
L 143.342976 323.263681 
L 143.31828 323.35992 
L 142.815698 325.301122 
L 142.719459 325.671566 
L 142.62513 326.036154 
L 142.528005 326.411895 
L 142.429342 326.793591 
L 142.33463 327.159962 
L 142.239282 327.528369 
L 141.670886 329.721754 
L 141.45473 330.555444 
L 141.393372 330.792095 
L 141.131388 331.802859 
L 140.877296 332.782817 
L 140.815428 333.021506 
L 140.567447 333.97804 
L 140.303808 334.995043 
L 140.246268 335.217054 
L 140.004907 336.148511 
L 139.740632 337.167295 
L 139.686529 337.376068 
L 139.44364 338.313126 
L 139.18191 339.322745 
L 139.128953 339.527316 
L 138.886319 340.463101 
L 138.596329 341.581816 
L 138.530642 341.835017 
L 138.28508 342.782768 
L 138.029079 343.770109 
L 137.963264 344.024201 
L 137.717957 344.970678 
L 137.46692 345.938925 
L 137.401997 346.189452 
L 137.165982 347.100158 
L 136.909599 348.089155 
L 136.844549 348.339554 
L 136.589439 349.323713 
L 136.344259 350.269937 
L 136.278699 350.522501 
L 136.039884 351.444028 
L 135.776117 352.461794 
L 135.71514 352.696918 
L 135.482563 353.59413 
L 135.225798 354.584781 
L 135.156547 354.851985 
L 134.912257 355.794262 
L 134.665549 356.746214 
L 134.601899 356.991394 
L 134.583822 357.061409 
L 134.04967 359.122147 
L 133.868394 359.820899 
L 133.829822 360.606469 
L 133.810091 361.005556 
L 133.790487 361.411898 
L 133.771774 361.797618 
L 133.626269 362.358249 
L 132.52614 366.599769 
L 132.27714 367.559613 
L 132.257918 367.633065 
L 132.868323 367.785571 
L 133.613412 367.97143 
L 134.255388 368.131701 
L 134.1454 368.561212 
L 134.725253 368.725048 
L 135.752058 369.015547 
L 137.321289 369.506163 
L 138.852966 370.090344 
L 140.334488 370.768982 
L 141.862855 371.535075 
L 143.295111 372.324846 
L 144.681285 373.205383 
L 146.113032 374.15428 
L 147.135762 374.897841 
L 147.40373 375.092738 
L 148.70423 376.063275 
L 150.007785 377.125469 
L 151.219684 378.267481 
L 152.390338 379.42515 
L 153.534768 380.628265 
L 154.582959 381.876572 
L 155.64528 383.176054 
L 155.695055 383.239322 
L 157.076645 384.891171 
L 157.852795 386.115291 
L 159.555183 389.574423 
L 160.084625 390.980965 
L 159.7166 390.990512 
L 159.720673 391.18019 
L 159.032106 391.309654 
L 160.057892 393.401581 
L 160.425153 394.298284 
L 160.681409 394.924474 
L 160.742004 395.072652 
L 161.145673 396.05923 
L 161.181826 396.147321 
L 161.360683 396.584598 
L 161.464306 396.690894 
L 161.821383 397.059174 
L 161.837932 397.793951 
L 162.184062 398.470171 
L 162.992801 400.857052 
L 163.576982 402.671845 
L 164.100059 404.614194 
L 164.536063 406.461831 
L 164.973212 408.575653 
L 165.33169 411.081305 
L 164.969139 411.138081 
L 165.149905 412.942691 
L 165.875008 413.302696 
L 165.428438 414.15599 
L 167.110203 415.02176 
L 170.834247 416.925409 
L 177.712029 420.478107 
L 179.142248 421.21403 
L 179.484686 421.390341 
L 195.304298 429.530815 
L 195.601036 429.683066 
L 195.898282 429.834426 
L 196.19591 429.985023 
L 196.311881 430.043453 
L 196.427978 430.101757 
L 196.544204 430.159933 
L 197.555732 430.660351 
L 198.571843 431.151603 
L 199.592283 431.633689 
L 200.61705 432.106483 
L 201.697321 432.591115 
L 202.782175 433.065436 
L 203.871483 433.529446 
L 204.965121 433.983017 
L 206.063086 434.426277 
L 207.23845 434.891559 
L 208.418397 435.344876 
L 209.602926 435.786226 
L 210.791911 436.215483 
L 211.985097 436.632646 
L 212.760484 436.893484 
L 213.538543 437.146557 
L 214.319149 437.391483 
L 215.102173 437.628644 
L 215.887616 437.857657 
L 215.690937 438.500778 
L 215.238894 439.979244 
L 215.049598 440.597797 
L 215.04953 440.598019 
L 214.5945 442.086319 
L 214.408387 442.724094 
L 214.535178 442.768395 
L 214.656622 442.825807 
L 214.77132 442.895822 
L 214.877997 442.977422 
L 214.97551 443.069842 
L 215.06271 443.172064 
L 215.138581 443.282815 
L 215.195357 443.38631 
L 215.242204 443.494516 
L 215.278866 443.606667 
L 215.304963 443.721747 
L 215.320239 443.838736 
L 215.325713 443.926064 
L 215.325076 444.013519 
L 215.318457 444.10072 
L 215.305981 444.187284 
L 214.799835 446.860591 
L 214.395911 448.994272 
L 212.487934 456.548401 
L 212.468075 456.626818 
L 212.31175 457.24397 
L 211.924884 458.778066 
L 208.957004 470.529287 
L 208.444748 472.557436 
L 208.198167 475.344931 
L 208.191675 475.419148 
L 208.085124 476.626337 
L 208.031022 477.237633 
L 207.979338 477.409997 
L 207.855857 477.81965 
L 207.540279 480.098071 
L 207.102493 483.258175 
L 206.886337 484.817858 
L 206.820778 485.292689 
L 206.599911 486.893618 
L 206.332199 487.44852 
L 206.104204 487.922841 
L 206.019422 488.09686 
L 205.662599 488.780336 
L 204.609825 490.796518 
L 202.945246 493.984246 
L 204.494364 494.791457 
L 205.29521 495.249611 
L 206.729503 496.069935 
L 208.941983 497.332754 
L 211.126457 498.596337 
L 211.130625 498.598743 
L 212.074335 498.958252 
L 214.130235 499.913004 
L 217.350934 501.746129 
L 219.145868 502.777262 
L 221.488194 504.101185 
L 221.908286 504.336691 
L 222.334742 504.572197 
L 222.773928 504.801337 
L 223.206749 505.030478 
L 223.919631 505.418744 
L 224.384277 505.666979 
L 224.848923 505.90885 
L 225.319934 506.144356 
L 225.790946 506.373496 
L 227.070314 506.869968 
L 228.260572 507.283694 
L 228.273302 507.290059 
L 228.286032 507.302789 
L 228.298762 507.309154 
L 228.305127 507.321884 
L 228.317857 507.328249 
L 228.324222 507.340979 
L 228.336952 507.347344 
L 228.343317 507.360074 
L 228.349682 507.372804 
L 228.356047 507.385534 
L 228.362412 507.398264 
L 228.368777 507.410994 
L 228.368777 507.423724 
L 228.375142 507.442819 
L 228.375142 507.455549 
L 228.375142 507.468279 
L 228.375142 507.481009 
L 228.375142 507.493739 
L 228.368777 507.506469 
L 228.362412 507.525564 
L 229.48902 507.882005 
L 229.629051 507.831085 
L 232.741544 508.435762 
L 232.824289 508.607617 
L 234.237323 508.779472 
L 234.358258 508.709457 
L 234.631954 508.703092 
L 235.790387 508.779472 
L 235.904957 508.868583 
L 235.904957 508.906773 
L 236.929725 508.944963 
L 237.298896 509.282309 
L 237.508941 509.460529 
L 238.8265 509.352324 
L 238.692834 509.129548 
L 238.508249 508.811298 
L 238.78831 508.792203 
L 239.380256 508.709457 
L 239.399351 508.664902 
L 239.507556 508.594887 
L 239.685777 508.550332 
L 242.308164 508.162066 
L 242.59459 508.066591 
L 242.893745 508.041131 
L 243.148346 508.060226 
L 243.549342 508.047496 
L 244.300414 507.894735 
L 245.108771 507.68469 
L 247.724793 506.984538 
L 247.782078 506.850872 
L 247.953933 506.768127 
L 249.487902 506.418051 
L 249.780693 506.392591 
L 249.818883 506.405321 
L 253.135057 505.495124 
L 253.739734 505.297808 
L 256.985892 504.08209 
L 257.756059 503.789299 
L 260.085655 503.025497 
L 260.741252 502.599041 
L 260.715792 502.509931 
L 260.747617 502.350806 
L 260.919472 502.134395 
L 261.524149 501.892525 
L 261.99516 501.790684 
L 262.491631 501.637924 
L 263.96195 501.026882 
L 264.541167 500.657711 
L 264.827592 500.536776 
L 265.66141 500.320365 
L 266.106961 500.11032 
L 267.812785 499.251043 
L 267.959181 499.193757 
L 268.169226 499.200123 
L 268.232876 499.111012 
L 268.404732 498.996442 
L 270.836168 497.939849 
L 271.377195 497.736169 
L 271.58724 497.774359 
L 271.682715 497.678884 
L 271.962776 497.526123 
L 273.165764 497.118762 
L 273.37581 497.016922 
L 273.509475 496.895987 
L 273.674966 496.603196 
L 273.795901 496.552276 
L 274.706098 496.4568 
L 275.107094 496.450435 
L 275.425345 496.424975 
L 275.813611 496.335865 
L 276.100037 496.195835 
L 276.150957 496.074899 
L 276.322812 495.845759 
L 277.022964 495.584793 
L 277.455785 495.368383 
L 277.634006 495.311097 
L 277.697656 495.298367 
L 277.754941 495.285637 
L 277.812226 495.279272 
L 277.869511 495.279272 
L 277.926797 495.279272 
L 277.984082 495.285637 
L 278.041367 495.292002 
L 278.098652 495.304732 
L 278.149572 495.317462 
L 278.206857 495.336557 
L 278.168667 495.151972 
L 278.162302 495.024672 
L 279.938142 494.381805 
L 280.039982 494.655501 
L 280.230933 494.59185 
L 280.135457 494.31179 
L 281.924027 493.694383 
L 281.930392 493.579813 
L 282.006772 493.477973 
L 282.146803 493.407957 
L 282.547799 493.414322 
L 282.90424 493.376132 
L 283.763517 493.140627 
L 283.954467 493.045151 
L 284.037213 492.981501 
L 284.406383 492.975136 
L 284.482764 493.019691 
L 284.520954 493.127897 
L 286.462284 492.54868 
L 287.334291 492.300445 
L 288.002618 492.42138 
L 288.359059 492.580505 
L 288.409979 492.58687 
L 288.467264 492.593235 
L 288.518184 492.593235 
L 288.575469 492.58687 
L 288.626389 492.580505 
L 288.683675 492.580505 
L 289.428382 492.440475 
L 290.516799 492.287714 
L 290.612275 492.33227 
L 291.134206 492.243159 
L 291.630677 492.179509 
L 292.209894 491.644848 
L 295.965254 491.250217 
L 297.454668 491.122916 
L 298.950446 491.021076 
L 298.950446 490.951061 
L 299.077747 490.944696 
L 299.325982 490.925601 
L 299.593313 490.906506 
L 299.618773 491.142012 
L 299.975214 491.116551 
L 301.019077 490.976521 
L 302.311175 490.887411 
L 303.876969 490.830126 
L 304.398901 490.791936 
L 305.219988 490.811031 
L 305.219988 490.798301 
L 305.219988 490.791936 
L 305.213623 490.779206 
L 305.213623 490.766476 
L 305.213623 490.753745 
L 305.213623 490.74738 
L 305.219988 490.73465 
L 305.219988 490.72192 
L 305.219988 490.70919 
L 305.226353 490.702825 
L 305.232718 490.690095 
L 305.239083 490.68373 
L 305.245448 490.671 
L 305.251813 490.664635 
L 305.258178 490.651905 
L 305.264543 490.64554 
L 305.270908 490.639175 
L 305.283638 490.63281 
L 305.290003 490.626445 
L 305.302733 490.62008 
L 305.309098 490.613715 
L 305.321828 490.613715 
L 305.334558 490.60735 
L 305.340923 490.60735 
L 305.353653 490.60735 
L 305.366383 490.60735 
L 306.302041 490.626445 
L 306.302041 491.142012 
L 306.333866 491.142012 
L 306.372056 491.142012 
L 306.403881 491.142012 
L 306.435706 491.129281 
L 306.467531 491.122916 
L 306.499356 491.110186 
L 306.531181 491.097456 
L 306.563006 491.084726 
L 306.582101 491.065631 
L 306.601196 491.046536 
L 306.620291 491.033806 
L 306.645751 491.014711 
L 306.671212 491.001981 
L 306.690307 491.001981 
L 306.715767 490.989251 
L 306.741227 490.982886 
L 306.766687 490.976521 
L 306.792147 490.976521 
L 306.906717 490.951061 
L 307.014922 490.938331 
L 307.129493 490.938331 
L 307.244063 490.931966 
L 307.517759 490.931966 
L 307.797819 490.944696 
L 308.071515 490.970156 
L 308.345211 491.001981 
L 308.389766 491.021076 
L 308.440686 491.040171 
L 308.478876 491.065631 
L 308.523431 491.091091 
L 308.733477 491.173837 
L 308.943522 491.224757 
L 309.503644 491.377517 
L 310.464761 491.651213 
L 310.763917 491.778513 
L 311.158548 491.924909 
L 311.68048 492.166779 
L 311.88416 492.039479 
L 311.986 491.912179 
L 312.654327 492.198604 
L 313.469049 492.62506 
L 314.290136 493.032421 
L 314.869353 493.350672 
L 315.187604 493.586178 
L 315.51222 493.828049 
L 315.83047 494.069919 
L 316.142356 494.32452 
L 316.600637 494.731881 
L 316.721573 494.859181 
L 316.556082 494.897371 
L 316.441512 494.992847 
L 316.346037 495.145607 
L 317.007998 495.826664 
L 317.186219 495.692998 
L 317.268964 495.782109 
L 317.313519 495.960329 
L 317.867276 496.565006 
L 318.401937 497.398823 
L 318.764743 497.411553 
L 319.375785 498.888237 
L 319.52218 499.352883 
L 319.643115 499.569293 
L 319.744956 499.792069 
L 319.840431 500.027575 
L 319.910446 500.26308 
L 319.967731 500.504951 
L 319.886626 500.597165 
L 320.23404 501.891116 
L 321.531234 501.659565 
L 322.93141 501.38205 
L 324.339606 501.103008 
L 326.103862 500.753314 
L 327.789318 500.415331 
L 328.2905 500.302416 
L 330.83396 499.729692 
L 331.084916 499.673235 
L 330.95375 498.990077 
L 329.757127 493.745303 
L 329.27975 491.657578 
L 329.095165 491.046536 
L 328.904214 490.448225 
L 328.700534 489.843548 
L 328.503218 489.245237 
L 328.407743 488.955628 
L 328.299538 488.64056 
L 328.083127 488.042248 
L 327.853987 487.539412 
L 327.612116 487.036576 
L 327.35115 486.54647 
L 327.08382 486.062728 
L 325.944482 484.025923 
L 325.658056 483.618562 
L 325.3589 483.211201 
L 325.059744 482.810205 
L 324.760589 482.409209 
L 324.448703 482.008213 
L 324.136817 481.613582 
L 323.735821 481.161665 
L 323.32846 480.709749 
L 322.908369 480.270563 
L 322.475548 479.844107 
L 322.042727 479.424016 
L 321.59081 479.01029 
L 321.132529 478.609294 
L 320.667883 478.208298 
L 320.196872 477.826397 
L 319.719496 477.457226 
L 319.235754 477.088055 
L 318.739283 476.737979 
L 318.427397 476.451553 
L 318.140971 476.139667 
L 317.867276 475.815052 
L 317.625405 475.471341 
L 317.396264 475.1149 
L 317.186219 474.732999 
L 317.001633 474.344733 
L 316.842508 473.943737 
L 316.702478 473.536376 
L 316.600637 473.10992 
L 316.447877 472.352483 
L 316.428782 472.231547 
L 316.416052 472.110612 
L 316.422417 471.989677 
L 316.428782 471.862376 
L 316.466972 471.19405 
L 316.511527 470.519358 
L 316.517892 470.411152 
L 316.524257 470.302947 
L 316.536987 470.201107 
L 316.568812 470.092902 
L 316.594272 469.991061 
L 316.626097 469.889221 
L 316.804318 469.36729 
L 317.027094 468.858088 
L 317.268964 468.355252 
L 317.55539 467.877876 
L 317.75907 467.572355 
L 318.000941 467.285929 
L 318.249177 467.005869 
L 318.516507 466.757633 
L 318.440127 466.623968 
L 318.860218 466.292987 
L 319.312134 466.006561 
L 319.770416 465.732865 
L 320.247792 465.49736 
L 321.2471 465.128189 
L 321.714801 464.875243 
L 319.961706 460.159704 
L 319.585539 459.147876 
L 319.592195 459.145073 
L 323.131144 457.79569 
L 323.1757 457.78296 
L 324.448703 457.292853 
L 326.822854 456.433576 
L 328.725994 455.746154 
L 331.297461 454.778672 
L 333.888022 453.836649 
L 335.116471 453.391098 
L 336.62498 452.837342 
L 339.285557 451.901684 
L 339.291922 451.857129 
L 339.540157 451.768019 
L 340.972286 451.246088 
L 341.010476 451.277913 
L 341.182331 451.233357 
L 342.003419 450.940567 
L 343.779258 450.25951 
L 347.114527 449.139267 
L 347.560078 448.992872 
L 351.907384 447.573473 
L 354.1606 446.886051 
L 354.555231 446.771481 
L 356.585672 446.204994 
L 358.641572 445.638508 
L 359.60269 445.390272 
L 361.270324 444.963816 
L 362.619707 444.645565 
L 362.861578 444.52463 
L 362.950688 444.44825 
L 362.995243 444.3846 
L 365.038414 444.142729 
L 365.369395 444.072714 
L 369.188404 443.270722 
L 369.933111 443.162516 
L 370.136792 443.213437 
L 370.353203 443.162516 
L 370.964244 443.035216 
L 371.543461 442.914281 
L 372.192692 442.780615 
L 373.287475 442.551475 
L 374.496828 442.296874 
L 374.745064 442.245954 
L 374.929649 442.105924 
L 375.731642 441.883148 
L 377.679337 441.494882 
L 380.117138 441.011141 
L 380.505404 440.877475 
L 384.528094 439.591742 
L 385.234611 439.368967 
L 385.552862 439.419887 
L 385.871113 439.445347 
L 386.023873 439.375332 
L 386.176634 439.356237 
L 386.354854 439.330776 
L 386.507615 439.318046 
L 386.83223 439.228936 
L 387.487827 439.114366 
L 388.690815 438.8534 
L 389.925629 438.566974 
L 390.167499 438.516054 
L 390.199324 438.503324 
L 391.892419 438.146883 
L 393.693718 437.777712 
L 393.763734 437.758617 
L 395.685969 437.351256 
L 396.997162 437.058466 
L 397.302683 436.98845 
L 399.861419 436.447424 
L 402.241936 435.957318 
L 402.381966 435.887302 
L 402.490171 435.823652 
L 402.929357 435.861842 
L 404.851592 435.448116 
L 405.95274 435.333546 
L 408.887013 435.02166 
L 409.55534 434.951645 
L 410.128191 434.887995 
L 411.58578 434.576109 
L 411.71308 434.544284 
L 411.776731 434.531554 
L 411.834016 434.518824 
L 412.024966 434.480634 
L 412.413232 434.397889 
L 414.392752 433.971432 
L 414.500958 433.945972 
L 414.781018 433.888687 
L 414.903863 433.860768 
L 414.921049 433.856862 
L 415.162919 433.805942 
L 419.38929 431.730947 
L 419.580241 431.692757 
L 419.853937 431.635471 
L 421.776172 431.234475 
L 423.100095 430.954415 
L 426.740885 430.196978 
L 430.343484 429.445906 
L 434.009733 428.682104 
L 434.238874 428.631184 
L 437.656888 427.918302 
L 438.038789 427.835556 
L 438.745306 427.689161 
L 441.291312 427.160865 
L 444.957562 426.397063 
L 446.695212 426.034257 
L 448.604717 425.633261 
L 452.181856 424.888554 
L 455.84174 424.124752 
L 459.151549 423.430965 
L 459.60983 423.33549 
L 461.137434 423.017239 
L 462.194027 422.539863 
L 463.155144 422.336182 
L 466.834124 421.57238 
L 468.676242 421.186443 
L 468.777873 421.673329 
L 533.613459 408.13112 
L 544.522079 405.852444 
L 559.973412 402.62449 
L 593.955472 395.52686 
L 594.11256 395.494143 
L 594.141712 395.634683 
L 594.162717 395.735632 
L 594.187922 395.817486 
L 594.225348 395.894503 
L 594.273977 395.9649 
L 594.33279 396.027023 
L 594.400514 396.079598 
L 594.475366 396.121098 
L 594.555565 396.150758 
L 594.639456 396.167817 
L 594.725002 396.172018 
L 594.810166 396.162979 
L 594.987877 396.12568 
L 596.00768 395.91207 
L 596.558509 395.796609 
L 598.716631 395.346348 
L 600.802702 394.911235 
L 601.356076 394.794373 
L 602.556137 394.544865 
L 602.637482 394.521951 
L 602.714116 394.486434 
L 602.784259 394.439333 
L 602.845999 394.381666 
L 602.897811 394.31496 
L 602.938419 394.240872 
L 602.966807 394.161309 
L 602.982211 394.078182 
L 602.984375 393.993782 
L 602.973045 393.910018 
L 602.947331 393.786028 
L 611.877449 391.918277 
L 613.429494 391.593661 
L 613.911708 391.493221 
L 614.392394 391.385271 
L 614.871298 391.269809 
L 615.348292 391.146964 
L 615.823377 391.016736 
L 616.295789 390.87887 
L 616.766036 390.73362 
L 617.233865 390.581114 
L 617.699402 390.421225 
L 618.162266 390.254207 
L 618.623475 390.079806 
L 619.082011 389.898275 
L 619.537619 389.709616 
L 619.990172 389.513828 
L 620.439669 389.311039 
L 620.885857 389.101248 
L 621.328735 388.884583 
L 621.768175 388.660916 
L 622.204179 388.430503 
L 622.636364 388.193215 
L 621.815404 387.165646 
L 621.575825 386.865854 
L 621.081008 386.244119 
L 620.541382 385.569428 
L 618.105872 382.51893 
L 617.5637 381.839146 
L 617.536076 381.804393 
L 617.393881 381.626427 
L 617.324121 381.538972 
L 616.4306 380.419747 
L 616.121896 380.033136 
L 615.720519 379.5303 
L 614.907451 378.511897 
L 614.865442 378.459449 
L 614.651323 378.191228 
L 614.565013 378.082895 
L 614.034171 377.418515 
L 613.542919 376.803272 
L 612.762186 375.828661 
L 612.027918 374.908661 
L 611.873502 374.715165 
L 610.231837 372.65761 
L 610.122741 372.521016 
L 606.324481 367.76062 
L 606.107179 367.067088 
L 606.06046 366.917892 
L 605.93927 366.531408 
L 606.60085 358.991792 
L 607.048565 354.033316 
L 607.071479 353.779861 
L 607.084719 353.633084 
L 607.227422 352.030628 
L 607.261157 351.652928 
L 607.306348 351.144999 
L 607.628546 347.528397 
L 607.926797 344.186143 
" clip-path="url(#pc756bf7e6d)" style="fill: #d3d3d3"/>
   </g>
   <g id="PatchCollection_2">
    <path d="M 583.517863 315.57996 
L 583.65853 315.76811 
L 585.484271 318.210494 
L 586.06858 318.992118 
L 588.12919 321.748679 
L 589.058864 323.041032 
L 589.555718 323.732018 
L 592.568534 327.920963 
L 592.916192 328.404323 
L 593.412026 329.093781 
L 593.526469 329.252779 
L 593.905697 329.77993 
L 595.499243 331.860908 
L 598.746801 335.185229 
L 599.077528 335.530086 
L 598.856407 335.845409 
L 598.786901 336.023502 
L 599.884103 336.893472 
L 603.899664 339.928185 
L 607.800019 342.353129 
L 608.074988 342.524093 
L 607.975948 343.63428 
L 607.965764 343.748213 
L 607.92681 344.185999 
L 607.926797 344.186143 
L 607.628546 347.528397 
L 607.584451 348.023349 
L 606.791663 347.962667 
L 605.566535 347.747127 
L 604.368292 347.413043 
L 603.208378 346.963605 
L 602.599861 346.656473 
L 601.866661 346.815307 
L 600.62104 346.958933 
L 599.367332 346.979321 
L 598.117699 346.876273 
L 596.884267 346.650789 
L 595.679 346.305056 
L 594.513592 345.842429 
L 593.399349 345.267395 
L 592.347082 344.585535 
L 591.366999 343.803462 
L 590.46861 342.928764 
L 589.660629 341.969929 
L 586.866165 338.30126 
L 586.158929 337.271638 
L 585.556007 336.177659 
L 585.063203 335.029857 
L 584.685264 333.839283 
L 584.425827 332.6174 
L 584.28739 331.375973 
L 584.271287 330.126955 
L 584.377673 328.882372 
L 584.510617 328.165773 
L 582.415136 325.498232 
L 581.695894 324.484392 
L 581.07896 323.405236 
L 580.57022 322.271056 
L 580.174522 321.092665 
L 579.89564 319.881299 
L 579.736233 318.648509 
L 579.697821 317.406049 
L 579.78077 316.165766 
L 579.98429 314.939487 
L 580.30644 313.738903 
L 580.744148 312.575462 
L 580.953667 312.149931 
L 583.517863 315.57996 
" clip-path="url(#pc756bf7e6d)" style="fill: #ff0000; fill-opacity: 0.7; stroke: #000000; stroke-opacity: 0.7; stroke-width: 0.5"/>
    <path d="M 133.915623 219.66196 
L 164.613843 221.320556 
L 165.721484 221.381151 
L 166.02153 221.397064 
L 167.466135 221.476754 
L 174.583897 221.86374 
L 175.514744 222.498918 
L 176.467175 223.295221 
L 177.337512 224.180511 
L 178.117477 225.146366 
L 178.799654 226.183602 
L 179.377553 227.282353 
L 179.845679 228.432171 
L 180.19958 229.62212 
L 190.633357 272.203468 
L 190.854797 273.321617 
L 190.975328 274.455092 
L 190.993986 275.594805 
L 190.910619 276.731618 
L 190.725896 277.856416 
L 190.594395 278.480849 
L 190.293108 279.638694 
L 189.884454 280.763141 
L 189.372043 281.844258 
L 188.760401 282.872496 
L 188.05493 283.838773 
L 187.261862 284.734553 
L 186.388202 285.551925 
L 185.441666 286.283669 
L 184.430616 286.923322 
L 183.463864 287.414486 
L 180.706749 288.876359 
L 179.380349 289.48496 
L 178.341612 289.823979 
L 178.261585 290.837405 
L 178.049436 292.039294 
L 177.723166 293.215343 
L 177.285773 294.354742 
L 176.741278 295.447019 
L 176.094686 296.482134 
L 175.35194 297.450572 
L 174.978592 297.851194 
L 175.150983 298.052482 
L 175.876798 299.094451 
L 176.495194 300.203547 
L 177.000015 301.368734 
L 177.38624 302.578418 
L 177.650026 303.820563 
L 177.788747 305.082808 
L 177.801023 306.352594 
L 177.686732 307.617285 
L 177.194809 311.107474 
L 176.951789 312.367949 
L 176.58306 313.597541 
L 176.092373 314.783747 
L 175.484716 315.914503 
L 174.766269 316.978313 
L 173.944337 317.964358 
L 173.027279 318.862613 
L 172.024418 319.663942 
L 170.945954 320.360198 
L 169.802853 320.944301 
L 168.606737 321.41031 
L 167.77421 321.641283 
L 168.965709 321.933399 
L 170.199332 322.302907 
L 171.38931 322.795157 
L 172.523467 323.405114 
L 173.590197 324.126534 
L 174.578583 324.952036 
L 175.478511 325.873171 
L 176.280771 326.880513 
L 176.977153 327.963754 
L 177.560532 329.111808 
L 178.024937 330.312927 
L 178.365616 331.55482 
L 178.579082 332.824777 
L 178.663152 334.109803 
L 178.616964 335.396748 
L 178.440991 336.672441 
L 176.657726 346.062279 
L 176.703527 346.078326 
L 177.809266 346.589051 
L 178.861135 347.203112 
L 179.849504 347.914889 
L 180.765325 348.717866 
L 181.600214 349.604691 
L 182.34653 350.567246 
L 182.997439 351.59672 
L 183.546983 352.683689 
L 183.990131 353.818202 
L 184.322826 354.989873 
L 184.542024 356.187976 
L 184.645716 357.401544 
L 184.632955 358.619467 
L 184.503857 359.830596 
L 184.208862 361.730352 
L 183.941345 363.013426 
L 183.543318 364.262193 
L 183.019 365.463415 
L 182.373948 366.604359 
L 181.615002 367.67293 
L 180.750205 368.657801 
L 179.788726 369.548532 
L 178.740755 370.335681 
L 178.041955 370.806318 
L 177.038466 371.407248 
L 177.164193 371.416513 
L 178.388974 371.628316 
L 179.587261 371.958554 
L 180.74763 372.40408 
L 181.859018 372.960645 
L 182.910831 373.622943 
L 183.89304 374.384661 
L 184.796282 375.238536 
L 185.611945 376.176428 
L 186.332253 377.189396 
L 186.95034 378.267783 
L 187.460313 379.401307 
L 187.857309 380.579162 
L 188.137545 381.790119 
L 188.298347 383.022633 
L 188.338185 384.264954 
L 188.311587 385.84954 
L 188.300884 386.010422 
L 188.562097 385.156001 
L 189.016301 384.052508 
L 189.605201 382.792984 
L 190.196428 381.676494 
L 190.895411 380.624106 
L 191.695265 379.646183 
L 192.588113 378.752359 
L 193.565161 377.951437 
L 194.616785 377.251304 
L 195.732628 376.658857 
L 196.324907 376.381144 
L 197.52069 375.892827 
L 198.759802 375.528198 
L 200.029484 375.291009 
L 201.316666 375.183703 
L 202.608095 375.207385 
L 203.890478 375.36181 
L 204.606227 375.485114 
L 205.797409 375.749663 
L 206.957791 376.127043 
L 208.07671 376.613787 
L 209.143888 377.205423 
L 210.149518 377.896515 
L 211.084362 378.680714 
L 211.939831 379.550815 
L 212.708064 380.498823 
L 213.382003 381.516028 
L 213.955457 382.593085 
L 214.360864 383.451312 
L 214.86005 384.66685 
L 215.231271 385.927371 
L 215.454444 387.132366 
L 215.646649 387.222788 
L 216.796331 387.920431 
L 217.866003 388.735463 
L 218.429058 389.21353 
L 219.363751 390.091908 
L 220.205308 391.059886 
L 220.945186 392.107636 
L 221.575873 393.224522 
L 222.090966 394.399204 
L 222.40501 395.3714 
L 222.793133 394.674215 
L 223.445579 393.625423 
L 224.196597 392.6448 
L 225.01497 391.767461 
L 225.039213 386.245409 
L 225.10599 384.997917 
L 225.294722 383.762978 
L 225.603592 382.552484 
L 226.029624 381.378094 
L 226.568717 380.251118 
L 227.215678 379.18241 
L 227.964276 378.182261 
L 228.807301 377.260305 
L 229.736636 376.42542 
L 230.74333 375.685647 
L 231.817687 375.048111 
L 232.94936 374.518951 
L 234.127452 374.103263 
L 235.340615 373.805052 
L 236.577167 373.627188 
L 237.825198 373.571385 
L 238.572076 373.574675 
L 238.781253 373.568889 
L 239.435741 373.567617 
L 239.481603 373.568707 
L 239.481603 373.568707 
L 240.068142 373.573027 
L 240.638709 373.590029 
L 240.893682 373.603353 
L 241.411416 373.606604 
L 242.647397 373.674551 
L 243.870936 373.862219 
L 245.070464 374.167834 
L 246.234638 374.588507 
L 246.362004 374.649096 
L 246.391807 372.938601 
L 246.389174 372.56315 
L 246.166697 371.895502 
L 245.893416 370.705221 
L 245.855431 370.414021 
L 245.52817 370.315353 
L 244.396327 369.851485 
L 243.314231 369.281126 
L 242.291872 368.609544 
L 241.338689 367.842938 
L 240.463483 366.988388 
L 239.674336 366.053782 
L 239.039246 365.135534 
L 238.345564 365.625441 
L 237.25842 366.243063 
L 236.11593 366.751056 
L 234.929117 367.144519 
L 233.70943 367.419657 
L 232.468634 367.573816 
L 231.218701 367.605508 
L 230.73268 367.593949 
L 229.410495 367.493422 
L 228.105941 367.255904 
L 226.83317 366.883973 
L 225.605994 366.381663 
L 224.437725 365.754426 
L 223.341041 365.009066 
L 222.327841 364.15367 
L 221.88596 363.693789 
L 221.496981 363.869912 
L 220.324963 364.26858 
L 219.119763 364.551522 
L 217.892778 364.716061 
L 216.655614 364.760642 
L 215.419969 364.684843 
L 214.197529 364.489381 
L 213.376751 364.316842 
L 212.200992 364.010431 
L 211.059801 363.593321 
L 209.963574 363.069313 
L 209.399699 362.730248 
L 208.472424 363.459975 
L 207.446456 364.118915 
L 206.362151 364.676673 
L 205.229456 365.128131 
L 204.058763 365.469146 
L 202.860815 365.696591 
L 201.646601 365.808379 
L 200.427262 365.803483 
L 199.722444 365.766852 
L 198.476584 365.640426 
L 197.249174 365.392204 
L 196.05209 365.024589 
L 194.896918 364.541137 
L 193.794834 363.946527 
L 192.756503 363.246513 
L 191.791974 362.447868 
L 190.910579 361.558321 
L 190.120848 360.58648 
L 189.430423 359.541749 
L 188.845984 358.434238 
L 188.373187 357.274663 
L 188.016608 356.074246 
L 187.779697 354.844603 
L 187.664746 353.597632 
L 187.672867 352.3454 
L 187.70757 351.722906 
L 187.841014 350.462604 
L 188.09911 349.221815 
L 188.479303 348.012839 
L 188.977822 346.847658 
L 189.589728 345.737819 
L 190.308955 344.694324 
L 191.128375 343.727515 
L 192.039866 342.846973 
L 193.034394 342.061427 
L 194.102103 341.378662 
L 195.232409 340.805445 
L 196.41411 340.347458 
L 197.635494 340.009239 
L 198.884454 339.794142 
L 200.148613 339.704298 
L 201.415441 339.740597 
L 202.13964 339.797523 
L 203.387476 339.957971 
L 204.613381 340.240808 
L 205.80538 340.643272 
L 206.95183 341.161432 
L 207.725313 341.607757 
L 208.546732 340.926654 
L 209.548771 340.245432 
L 210.611038 339.662564 
L 211.723909 339.183331 
L 212.877302 338.812074 
L 214.060767 338.552156 
L 215.263582 338.405933 
L 216.474851 338.374729 
L 217.6836 338.458827 
L 218.878878 338.657464 
L 219.669475 338.827867 
L 220.883223 339.152911 
L 222.059013 339.596028 
L 223.185391 340.152902 
L 224.251383 340.818106 
L 225.246603 341.585161 
L 225.905716 342.205854 
L 226.619415 341.906645 
L 227.797972 341.542034 
L 229.006289 341.293215 
L 230.233016 341.162524 
L 230.789175 341.13042 
L 231.978991 341.11744 
L 233.164822 341.215608 
L 234.336306 341.424067 
L 235.483209 341.740995 
L 236.595511 342.163624 
L 237.663494 342.68826 
L 238.677827 343.310321 
L 239.629647 344.024371 
L 240.51064 344.824173 
L 241.313108 345.702738 
L 241.606173 346.055367 
L 241.826023 346.346893 
L 242.4651 345.809171 
L 243.514529 345.091857 
L 244.630264 344.482778 
L 245.80118 343.98801 
L 247.015602 343.612483 
L 248.261421 343.359944 
L 249.526215 343.23291 
L 250.797372 343.232648 
L 252.062218 343.35916 
L 253.308141 343.611185 
L 253.79205 343.760602 
L 253.88467 343.69339 
L 254.084654 343.564973 
L 255.200598 342.925599 
L 256.375361 342.40209 
L 257.596952 341.999788 
L 257.829955 341.935904 
L 259.337752 341.619174 
L 260.872769 341.486916 
L 261.276386 341.476664 
L 262.710064 341.521081 
L 264.129643 341.7265 
L 279.074151 344.757058 
L 280.279111 345.063357 
L 281.448445 345.485738 
L 282.570999 346.020171 
L 283.636067 346.661559 
L 284.633488 347.403783 
L 285.55375 348.239765 
L 286.388073 349.161531 
L 287.128501 350.160287 
L 287.76797 351.226508 
L 288.292673 352.333758 
L 288.564668 352.31479 
L 289.758962 352.343764 
L 290.945281 352.484565 
L 292.113177 352.735953 
L 293.252365 353.095714 
L 293.790976 353.294053 
L 294.837676 353.733427 
L 295.841072 354.264299 
L 296.793187 354.882448 
L 297.527832 355.458569 
L 297.942812 355.115959 
L 298.945823 354.43712 
L 300.008807 353.856672 
L 301.122141 353.379869 
L 302.275748 353.011027 
L 303.459186 352.753485 
L 304.661743 352.609573 
L 305.872534 352.580594 
L 307.282275 352.613953 
L 307.605491 352.637994 
L 307.899867 352.556772 
L 309.112777 352.345492 
L 310.340423 352.252368 
L 311.571324 352.278271 
L 312.713934 352.357715 
L 313.940142 352.503002 
L 315.146506 352.766405 
L 316.321674 353.145445 
L 317.454592 353.636557 
L 318.5346 354.23512 
L 319.551535 354.935502 
L 320.495832 355.731114 
L 321.358604 356.61447 
L 322.131735 357.577259 
L 322.80795 358.610422 
L 323.380888 359.704239 
L 323.845157 360.848419 
L 324.19639 362.032197 
L 324.431283 363.244434 
L 324.547624 364.473726 
L 324.544319 365.708506 
L 324.446446 367.618641 
L 324.322037 368.857248 
L 324.174537 369.592687 
L 324.575717 369.456087 
L 325.768754 369.174415 
L 326.983352 369.008799 
L 328.208248 368.960775 
L 330.142721 368.978145 
L 330.445159 368.995866 
L 330.907904 368.784032 
L 332.088191 368.37815 
L 333.302551 368.089801 
L 334.539312 367.921758 
L 335.786585 367.875636 
L 337.260646 367.893445 
L 338.48612 367.969239 
L 338.484282 367.858367 
L 338.588181 366.601921 
L 338.802664 365.43374 
L 338.818181 365.151251 
L 339.012295 363.90238 
L 339.32929 362.678912 
L 339.766041 361.492907 
L 339.887146 361.243583 
L 340.30722 360.211696 
L 340.920603 359.059472 
L 341.053142 358.862279 
L 341.047289 358.857272 
L 340.749005 358.576825 
L 339.840978 357.63035 
L 339.035159 356.595466 
L 338.340102 355.48316 
L 337.763187 354.30524 
L 337.310538 353.074209 
L 337.22465 352.797357 
L 336.916678 351.602952 
L 336.826628 351.028217 
L 336.791698 350.925245 
L 336.51725 349.774095 
L 336.444616 349.262547 
L 335.846659 348.979752 
L 334.775632 348.337911 
L 333.772635 347.594233 
L 332.847319 346.755872 
L 332.008586 345.830893 
L 331.264504 344.828196 
L 330.622233 343.757426 
L 330.087951 342.628886 
L 329.666799 341.453433 
L 329.362828 340.242376 
L 329.178962 339.007364 
L 329.116971 337.760281 
L 329.177451 336.513124 
L 329.35982 335.277891 
L 329.853025 332.789186 
L 330.155648 331.577368 
L 330.575571 330.401039 
L 331.108751 329.271524 
L 331.750057 328.199697 
L 332.493313 327.195877 
L 333.331365 326.269727 
L 334.256145 325.430163 
L 335.25875 324.685268 
L 336.329527 324.042213 
L 336.883658 323.779531 
L 337.267366 323.496875 
L 338.418954 322.822135 
L 339.634859 322.271679 
L 340.901715 321.851556 
L 341.122705 321.803224 
L 341.121313 321.790486 
L 341.076829 321.040041 
L 341.069166 319.676378 
L 341.207417 318.319719 
L 341.489996 316.985633 
L 341.765541 315.959411 
L 342.136497 314.801694 
L 342.616196 313.684641 
L 343.200263 312.61844 
L 343.88337 311.612814 
L 344.659289 310.676936 
L 345.520942 309.819339 
L 346.460472 309.047846 
L 347.46931 308.369491 
L 347.879374 308.121338 
L 348.960796 307.536311 
L 350.093613 307.05834 
L 351.267257 306.691883 
L 352.470779 306.440359 
L 353.692953 306.306114 
L 354.922377 306.2904 
L 356.147582 306.393365 
L 357.35714 306.614047 
L 357.560411 306.671858 
L 357.699301 306.693267 
L 358.895179 306.998538 
L 360.055874 307.418183 
L 361.170476 307.948257 
L 362.228506 308.583778 
L 363.22002 309.318772 
L 364.135697 310.146329 
L 364.428521 310.437978 
L 365.253672 311.342962 
L 365.988041 312.32305 
L 366.624831 313.369171 
L 367.158149 314.471642 
L 367.583059 315.620259 
L 367.71024 316.102073 
L 367.908417 316.110969 
L 369.129702 316.285329 
L 370.328375 316.577085 
L 371.493178 316.983499 
L 372.613172 317.500752 
L 373.677838 318.123988 
L 374.677179 318.847353 
L 375.601807 319.664054 
L 376.443041 320.56642 
L 377.192978 321.545977 
L 377.844576 322.593526 
L 378.391716 323.699228 
L 378.829259 324.852698 
L 379.153095 326.043105 
L 379.360184 327.259268 
L 379.44858 328.489766 
L 379.417454 329.723041 
L 379.298203 331.338018 
L 379.144127 332.583959 
L 378.868076 333.808666 
L 378.472734 335.000226 
L 377.961946 336.14705 
L 377.340681 337.237985 
L 376.614979 338.26242 
L 375.7919 339.210392 
L 374.879449 340.072681 
L 373.886499 340.840901 
L 372.822709 341.507579 
L 371.698424 342.066233 
L 370.52458 342.511428 
L 369.412164 342.811936 
L 369.892324 342.899455 
L 371.096349 343.243997 
L 372.260694 343.705177 
L 373.37409 344.278532 
L 374.425761 344.958513 
L 375.405529 345.73854 
L 375.690946 346.015742 
L 376.696707 345.652476 
L 377.891195 345.347816 
L 379.109551 345.160119 
L 380.34035 345.091144 
L 381.572048 345.141539 
L 383.975116 345.356776 
L 384.734547 345.462809 
L 385.561394 345.077651 
L 386.721021 344.668374 
L 387.914729 344.372897 
L 389.131377 344.193978 
L 390.359611 344.133285 
L 391.166372 344.132434 
L 392.382589 344.189377 
L 392.818057 344.251839 
L 393.153954 344.060249 
L 394.298752 343.549238 
L 395.488263 343.15331 
L 396.71095 342.876305 
L 397.954955 342.720909 
L 399.208212 342.688629 
L 400.630877 342.722082 
L 401.907237 342.816448 
L 403.167671 343.038497 
L 404.399439 343.385984 
L 405.59009 343.855397 
L 406.72759 344.441992 
L 407.800441 345.139838 
L 408.482408 345.688255 
L 408.745702 344.571561 
L 409.082089 343.399391 
L 409.529093 342.264786 
L 410.082611 341.178159 
L 410.737564 340.149482 
L 411.487942 339.188195 
L 412.326858 338.303119 
L 413.246615 337.502376 
L 414.23877 336.793315 
L 415.294221 336.182443 
L 416.40328 335.675366 
L 417.555771 335.276736 
L 418.741117 334.990213 
L 419.94844 334.818425 
L 421.166661 334.762949 
L 422.3846 334.824295 
L 423.591082 335.001898 
L 433.83864 337.016035 
L 435.068379 337.322019 
L 436.261603 337.748752 
L 437.406487 338.292005 
L 438.491686 338.946394 
L 439.506447 339.705436 
L 440.440714 340.561608 
L 441.285227 341.506425 
L 442.03162 342.530526 
L 442.672494 343.623761 
L 443.2015 344.775297 
L 443.613395 345.973724 
L 443.904098 347.207165 
L 444.070727 348.463396 
L 444.111632 349.729971 
L 444.026406 350.994336 
L 443.815896 352.243964 
L 440.361519 367.935551 
L 440.028497 369.155957 
L 439.575992 370.337285 
L 439.008473 371.467869 
L 438.331546 372.536544 
L 437.551894 373.532756 
L 436.677217 374.446669 
L 435.716152 375.269256 
L 434.67819 375.992396 
L 433.57358 376.608947 
L 432.413232 377.11282 
L 431.208603 377.499039 
L 429.97159 377.763791 
L 428.714407 377.904462 
L 427.44947 377.919662 
L 416.757667 377.516478 
L 415.273893 377.473984 
L 415.209584 377.741233 
L 414.79255 378.936705 
L 414.258824 380.084837 
L 413.687888 381.048971 
L 413.704206 381.065066 
L 414.487533 382.002059 
L 415.177465 383.009804 
L 415.767652 384.079025 
L 416.252663 385.199882 
L 416.628032 386.362059 
L 416.890306 387.554857 
L 417.03707 388.7673 
L 417.04793 389.210714 
L 417.163605 390.140594 
L 417.195567 391.389451 
L 417.182788 391.933133 
L 417.096105 393.146725 
L 416.89396 394.346499 
L 416.5782 395.521495 
L 416.151709 396.66098 
L 415.618383 397.754544 
L 414.983094 398.792199 
L 414.251645 399.764466 
L 413.430718 400.662463 
L 412.527812 401.477987 
L 412.192178 401.727349 
L 411.98516 402.370304 
L 411.506484 403.481937 
L 410.924402 404.543088 
L 410.244176 405.544163 
L 409.661939 406.246832 
L 410.111269 406.65831 
L 410.936865 407.576584 
L 411.669606 408.570528 
L 412.302599 409.630791 
L 412.829887 410.747394 
L 413.246508 411.909832 
L 413.548543 413.107167 
L 413.73315 414.328132 
L 413.798591 415.561239 
L 413.804004 416.764078 
L 413.801041 416.82961 
L 413.804502 416.903528 
L 413.799757 419.273424 
L 413.735775 420.522897 
L 413.549452 421.760056 
L 413.242587 422.97295 
L 412.818145 424.149864 
L 412.280225 425.279431 
L 411.634023 426.350739 
L 410.885781 427.353441 
L 410.042726 428.277852 
L 409.113 429.115042 
L 408.105585 429.856927 
L 407.030211 430.496339 
L 405.897264 431.027103 
L 404.717689 431.444091 
L 403.502878 431.743277 
L 402.544039 431.881486 
L 402.075783 432.64763 
L 401.345708 433.619766 
L 400.526226 434.517823 
L 399.624812 435.333612 
L 398.649687 436.05969 
L 397.609747 436.689437 
L 396.711238 437.122313 
L 395.685969 437.351256 
L 393.763734 437.758617 
L 393.693718 437.777712 
L 391.892419 438.146883 
L 391.140313 438.305221 
L 391.007958 438.314019 
L 389.781805 438.277187 
L 388.564889 438.122508 
L 387.368512 437.851417 
L 386.203783 437.466433 
L 385.081516 436.971129 
L 384.012134 436.370105 
L 383.753335 436.189829 
L 383.3493 436.366139 
L 382.179645 436.747008 
L 380.97869 437.013207 
L 379.75765 437.16225 
L 378.527925 437.192746 
L 377.630027 437.171606 
L 376.393721 437.082134 
L 375.171978 436.872848 
L 373.97638 436.545733 
L 372.818265 436.10389 
L 371.708611 435.551508 
L 370.65794 434.893824 
L 369.676214 434.137074 
L 368.772739 433.288433 
L 367.956083 432.355947 
L 367.233988 431.348457 
L 366.613301 430.275515 
L 366.099905 429.147294 
L 365.698669 427.974491 
L 365.413398 426.768225 
L 365.246795 425.539934 
L 365.20044 424.301261 
L 365.213195 423.172513 
L 365.292199 421.893056 
L 365.499478 420.628032 
L 365.832931 419.390267 
L 365.878928 419.269495 
L 364.993104 418.549754 
L 364.123184 417.692053 
L 363.585171 417.048705 
L 362.709327 417.348316 
L 361.501114 417.633814 
L 360.270837 417.800265 
L 359.030198 417.846085 
L 357.336726 417.82599 
L 356.087066 417.749591 
L 354.850955 417.550806 
L 353.640348 417.231559 
L 352.466956 416.794937 
L 352.246418 416.687146 
L 352.327766 416.826702 
L 352.854617 417.981568 
L 353.315314 419.141326 
L 353.714595 420.308333 
L 353.999063 421.508504 
L 354.166046 422.730571 
L 354.213978 423.963062 
L 354.142408 425.194406 
L 353.952008 426.413044 
L 353.644566 427.607536 
L 353.222967 428.766668 
L 352.69117 429.879557 
L 352.054167 430.935758 
L 351.251952 432.130871 
L 350.541394 433.089141 
L 349.744252 433.976687 
L 348.867527 434.785716 
L 347.918919 435.509123 
L 346.906758 436.140553 
L 345.839933 436.674463 
L 344.727813 437.106162 
L 343.580166 437.431861 
L 342.407069 437.648698 
L 341.218825 437.754769 
L 340.98041 437.753645 
L 340.770284 437.80864 
L 339.463986 438.008907 
L 338.143964 438.072664 
L 336.824446 437.999226 
L 335.519652 437.789383 
L 334.243644 437.445396 
L 333.010175 436.970975 
L 332.737318 436.832014 
L 331.618918 436.964234 
L 330.468898 436.995606 
L 329.320741 436.923026 
L 328.183826 436.747086 
L 327.067437 436.469223 
L 326.726026 436.367661 
L 325.466806 435.91988 
L 324.261472 435.34255 
L 323.123308 434.642034 
L 322.064859 433.826052 
L 321.09779 432.903599 
L 320.807883 432.596427 
L 320.00725 431.661398 
L 319.300669 430.653413 
L 318.694749 429.581894 
L 318.195154 428.456862 
L 317.806556 427.288837 
L 317.532589 426.08874 
L 317.43882 425.358478 
L 317.269096 425.298342 
L 316.605317 424.986998 
L 316.085213 424.868955 
L 314.899674 424.474271 
L 313.758538 423.965262 
L 312.672802 423.346833 
L 311.652924 422.624941 
L 310.70873 421.806541 
L 310.446411 421.529689 
L 310.195937 421.621897 
L 308.987158 421.936453 
L 308.189977 422.062178 
L 308.179921 422.065787 
L 306.971111 422.370097 
L 305.738334 422.554723 
L 304.555025 422.614768 
L 304.640552 422.916143 
L 304.864515 424.175552 
L 304.960956 425.451079 
L 304.928903 426.729845 
L 304.768677 427.998938 
L 304.481897 429.245545 
L 304.07146 430.457077 
L 303.541508 431.621303 
L 302.897393 432.726466 
L 302.145618 433.761408 
L 301.293775 434.715679 
L 300.350465 435.579644 
L 299.325211 436.344579 
L 298.228367 437.002761 
L 296.271193 438.047213 
L 295.167325 438.569885 
L 294.018449 438.984364 
L 292.835139 439.286837 
L 291.628289 439.474518 
L 290.409008 439.54568 
L 289.188519 439.499667 
L 287.978057 439.336904 
L 286.912065 439.087713 
L 286.588913 439.528462 
L 285.755133 440.45861 
L 284.834206 441.302564 
L 283.834999 442.052196 
L 282.767132 442.700289 
L 281.640888 443.240603 
L 280.467112 443.667935 
L 279.257105 443.978171 
L 278.022517 444.168323 
L 276.775237 444.236561 
L 275.71082 444.242492 
L 274.463383 444.188207 
L 273.769519 444.089285 
L 272.848822 444.285208 
L 271.585283 444.424469 
L 270.314154 444.437019 
L 267.460079 444.322576 
L 266.220822 444.212035 
L 264.998276 443.981047 
L 263.804117 443.631819 
L 262.649752 443.167687 
L 261.54621 442.593084 
L 260.504029 441.913498 
L 259.533167 441.135422 
L 258.642897 440.266288 
L 257.841722 439.314398 
L 257.137296 438.288845 
L 256.873535 437.81069 
L 256.628337 438.10384 
L 255.733094 438.981872 
L 254.75581 439.767567 
L 253.705968 440.4533 
L 252.593754 441.032419 
L 251.429959 441.499304 
L 249.997164 441.993672 
L 248.785653 442.34556 
L 247.545261 442.575803 
L 246.28817 442.68214 
L 245.026727 442.663527 
L 243.773321 442.520147 
L 242.540262 442.253407 
L 241.33966 441.865928 
L 240.183307 441.361515 
L 239.082559 440.745122 
L 238.607381 440.413284 
L 237.630319 440.895481 
L 236.496139 441.326412 
L 234.865473 441.858541 
L 233.675716 442.183931 
L 232.460053 442.392651 
L 231.229896 442.48274 
L 229.996796 442.453352 
L 228.772327 442.304764 
L 227.567987 442.038371 
L 226.395082 441.656672 
L 225.264622 441.163253 
L 224.187222 440.562745 
L 223.172996 439.860785 
L 222.231466 439.063965 
L 221.371472 438.179765 
L 220.601086 437.216486 
L 219.927542 436.183171 
L 219.357164 435.089521 
L 218.895305 433.945805 
L 218.546302 432.762759 
L 218.459395 432.405148 
L 218.351411 432.620173 
L 217.692501 433.665347 
L 216.935373 434.641721 
L 216.087158 435.540099 
L 215.155848 436.352018 
L 214.150215 437.069829 
L 213.848392 437.243777 
L 213.538543 437.146557 
L 212.760484 436.893484 
L 211.985097 436.632646 
L 210.791911 436.215483 
L 209.602926 435.786226 
L 208.418397 435.344876 
L 207.23845 434.891559 
L 206.063086 434.426277 
L 204.965121 433.983017 
L 203.871483 433.529446 
L 202.782175 433.065436 
L 201.697321 432.591115 
L 200.61705 432.106483 
L 199.592283 431.633689 
L 198.571843 431.151603 
L 197.555732 430.660351 
L 196.544204 430.159933 
L 196.427978 430.101757 
L 196.311881 430.043453 
L 196.19591 429.985023 
L 195.898282 429.834426 
L 195.601036 429.683066 
L 195.304298 429.530815 
L 179.484686 421.390341 
L 179.142248 421.21403 
L 177.712029 420.478107 
L 170.834247 416.925409 
L 167.110203 415.02176 
L 165.428438 414.15599 
L 165.875008 413.302696 
L 165.149905 412.942691 
L 164.969139 411.138081 
L 165.33169 411.081305 
L 164.973212 408.575653 
L 164.626744 406.900316 
L 164.669281 406.827345 
L 165.401142 405.814976 
L 166.228705 404.879213 
L 167.144 404.029067 
L 168.138212 403.272724 
L 169.201768 402.617468 
L 169.498188 402.472814 
L 169.879376 398.386735 
L 170.019744 397.398169 
L 170.002607 397.394095 
L 168.791289 397.04193 
L 167.620773 396.571607 
L 166.502553 395.987744 
L 165.44761 395.296074 
L 164.466302 394.503391 
L 163.568267 393.617476 
L 162.762321 392.647031 
L 162.056381 391.601584 
L 161.457376 390.491402 
L 160.97119 389.327385 
L 160.602597 388.120964 
L 160.355216 386.883986 
L 160.242806 386.129066 
L 160.120546 384.903321 
L 160.117328 383.671499 
L 160.233184 382.445133 
L 160.467028 381.235706 
L 160.816671 380.054542 
L 161.278838 378.912703 
L 161.849204 377.820878 
L 162.522426 376.789293 
L 163.292201 375.827605 
L 164.151321 374.94482 
L 165.091742 374.149204 
L 166.104658 373.448206 
L 167.180585 372.84839 
L 167.205692 372.837425 
L 166.857424 372.769529 
L 166.039115 372.565822 
L 164.925516 372.233953 
L 163.846817 371.801924 
L 162.812007 371.273334 
L 161.829707 370.652587 
L 160.908102 369.944854 
L 160.054871 369.156034 
L 159.277123 368.292698 
L 159.266275 368.279491 
L 158.979661 368.075919 
L 158.052207 367.272237 
L 157.206451 366.382984 
L 156.450253 365.416425 
L 156.214352 365.046313 
L 148.42307 362.746007 
L 143.158141 361.192235 
L 142.112902 360.895353 
L 138.560518 359.956298 
L 137.389364 359.585397 
L 136.259413 359.103335 
L 135.181191 358.514601 
L 134.352879 357.952381 
L 134.583822 357.061409 
L 134.601899 356.991394 
L 134.665549 356.746214 
L 134.912257 355.794262 
L 135.156547 354.851985 
L 135.225798 354.584781 
L 135.482563 353.59413 
L 135.71514 352.696918 
L 135.776117 352.461794 
L 136.039884 351.444028 
L 136.278699 350.522501 
L 136.344259 350.269937 
L 136.589439 349.323713 
L 136.844549 348.339554 
L 136.909599 348.089155 
L 137.165982 347.100158 
L 137.401997 346.189452 
L 137.46692 345.938925 
L 137.717957 344.970678 
L 137.963264 344.024201 
L 138.029079 343.770109 
L 138.28508 342.782768 
L 138.530642 341.835017 
L 138.596329 341.581816 
L 138.886319 340.463101 
L 139.128953 339.527316 
L 139.18191 339.322745 
L 139.44364 338.313126 
L 139.686529 337.376068 
L 139.740632 337.167295 
L 140.004907 336.148511 
L 140.246268 335.217054 
L 140.303808 334.995043 
L 140.567447 333.97804 
L 140.815428 333.021506 
L 140.877296 332.782817 
L 141.131388 331.802859 
L 141.393372 330.792095 
L 141.45473 330.555444 
L 141.670886 329.721754 
L 142.239282 327.528369 
L 142.33463 327.159962 
L 142.429342 326.793591 
L 142.528005 326.411895 
L 142.62513 326.036154 
L 142.719459 325.671566 
L 142.815698 325.301122 
L 143.31828 323.35992 
L 143.342976 323.263681 
L 143.430304 322.895019 
L 143.501847 322.52292 
L 143.557605 322.148148 
L 143.597322 321.771339 
L 143.620873 321.393129 
L 143.628511 321.014411 
L 143.619982 320.635565 
L 143.595286 320.257483 
L 143.554549 319.880801 
L 143.497901 319.506157 
L 143.42534 319.134312 
L 143.336993 318.765778 
L 143.233116 318.401444 
L 142.364291 315.577796 
L 140.823321 310.57031 
L 141.696347 310.379232 
L 142.259523 310.256769 
L 142.810988 310.136979 
L 139.293935 298.734689 
L 139.22812 298.521333 
L 138.80281 297.142034 
L 138.655905 296.666058 
L 137.479407 292.851897 
L 137.492455 292.745328 
L 137.450936 292.759594 
L 136.023207 288.130953 
L 133.711815 280.613487 
L 130.858633 271.335456 
L 128.830357 264.668611 
L 123.762403 248.23783 
L 121.105009 239.594519 
L 117.711946 233.436111 
L 117.041455 232.21912 
L 116.65077 231.510057 
L 115.76947 230.464794 
L 115.363636 229.983344 
L 115.446763 228.553125 
L 118.291544 228.700284 
L 118.296254 228.611174 
L 118.343355 227.717525 
L 118.374544 227.125197 
L 118.574844 223.324696 
L 118.840558 223.210435 
L 120.058911 222.825924 
L 121.309669 222.56547 
L 122.580234 222.431695 
L 123.85781 222.425948 
L 128.325096 222.630256 
L 128.894267 222.045971 
L 129.825814 221.257223 
L 130.82862 220.56132 
L 131.893466 219.964659 
L 133.010561 219.472726 
L 133.54809 219.295254 
L 133.915623 219.66196 
M 280.265475 414.997255 
L 279.254756 415.741123 
L 278.175706 416.38186 
L 277.284477 416.798415 
L 277.293834 416.916903 
L 277.324333 417.917432 
L 277.877036 417.941514 
L 278.880539 418.084696 
L 278.903582 418.042509 
L 279.608089 417.008801 
L 280.410653 416.049231 
L 281.303522 415.173065 
L 282.278075 414.388763 
L 282.317221 414.363153 
L 281.899888 413.743736 
L 281.236282 414.115526 
L 281.19804 414.157484 
L 280.265475 414.997255 
M 343.352399 410.172284 
L 343.491988 410.192702 
L 344.723447 410.500592 
L 345.918121 410.929593 
L 346.269128 411.096778 
L 346.176662 410.937448 
L 345.657641 409.798104 
L 345.253049 408.613287 
L 345.034051 407.680812 
L 344.443632 408.719777 
L 343.740434 409.719838 
L 343.352399 410.172284 
M 344.697084 392.873222 
L 345.203578 393.684215 
L 345.744096 394.766457 
L 346.179446 395.895119 
L 346.265737 396.154983 
L 346.604581 397.375332 
L 346.647707 397.624609 
L 347.310559 396.563802 
L 348.080244 395.566883 
L 348.732252 394.87599 
L 348.218239 393.753268 
L 347.804815 392.541124 
L 347.515277 391.293573 
L 347.362049 390.097358 
L 347.078065 390.508174 
L 346.285179 391.446851 
L 345.405489 392.304712 
L 344.697084 392.873222 
" clip-path="url(#pc756bf7e6d)" style="fill: #ff0000; fill-opacity: 0.7; stroke: #000000; stroke-opacity: 0.7; stroke-width: 0.5"/>
    <path d="M 218.381583 299.668131 
L 218.713862 298.463867 
L 219.16258 297.29797 
L 219.723415 296.18167 
L 220.390965 295.125716 
L 221.158803 294.140278 
L 222.019533 293.234847 
L 222.964867 292.418141 
L 223.985699 291.698027 
L 225.072199 291.08144 
L 226.213903 290.574317 
L 227.399816 290.181542 
L 228.618518 289.906899 
L 229.858271 289.753031 
L 231.107136 289.721421 
L 233.42741 289.776612 
L 234.67336 289.867564 
L 234.974835 289.919639 
L 234.957414 289.75868 
L 234.692921 285.297072 
L 234.680749 284.035777 
L 234.793459 282.779469 
L 235.029943 281.540482 
L 235.387881 280.330981 
L 235.863758 279.162839 
L 236.452902 278.047527 
L 237.149529 276.995992 
L 237.946799 276.01856 
L 238.836886 275.124827 
L 239.811049 274.323566 
L 240.859726 273.622646 
L 241.972621 273.028946 
L 243.138807 272.548297 
L 244.346834 272.185416 
L 245.584844 271.943867 
L 246.840681 271.826021 
L 252.441324 271.579424 
L 253.673743 271.584876 
L 254.899859 271.709476 
L 256.10818 271.952057 
L 257.287382 272.310345 
L 258.426411 272.780983 
L 259.514591 273.359558 
L 260.541724 274.040648 
L 261.498183 274.817869 
L 262.375003 275.683937 
L 263.163965 276.630734 
L 263.857675 277.649386 
L 264.315818 278.485991 
L 265.200027 278.71409 
L 266.415983 279.093586 
L 267.587925 279.592702 
L 268.70412 280.206439 
L 269.753392 280.928653 
L 270.725235 281.752113 
L 271.609919 282.668574 
L 272.398584 283.668859 
L 273.083336 284.742954 
L 273.657318 285.880104 
L 274.114783 287.068924 
L 274.45115 288.297509 
L 274.663051 289.55356 
L 274.818275 290.873299 
L 274.905387 292.390796 
L 274.811009 293.907859 
L 274.432833 296.995647 
L 274.217192 298.240575 
L 273.879205 299.457995 
L 273.422202 300.635915 
L 272.850684 301.762732 
L 272.535487 302.255914 
L 272.685407 302.853662 
L 272.868054 304.069234 
L 272.932611 305.296755 
L 272.948983 309.154642 
L 272.895465 310.37598 
L 272.725039 311.586552 
L 272.439278 312.775194 
L 272.040817 313.930944 
L 271.53333 315.043144 
L 270.921499 316.101535 
L 270.228801 317.071383 
L 270.085848 320.919624 
L 269.979764 322.153258 
L 269.754334 323.370749 
L 269.411691 324.560582 
L 268.955078 325.711498 
L 268.388812 326.81261 
L 267.718253 327.853502 
L 266.949742 328.824324 
L 266.090552 329.715894 
L 265.14881 330.519777 
L 264.133426 331.228366 
L 263.054005 331.83496 
L 261.920759 332.333818 
L 260.744411 332.720222 
L 259.536087 332.990517 
L 258.30722 333.142144 
L 257.069435 333.17367 
L 227.574475 332.489626 
L 226.339611 332.400768 
L 225.119218 332.192375 
L 223.924841 331.866419 
L 222.767775 331.425984 
L 221.658964 330.875233 
L 220.608898 330.219378 
L 219.627507 329.464622 
L 218.724074 328.618103 
L 217.907145 327.687828 
L 217.184445 326.682596 
L 216.562812 325.611915 
L 216.048124 324.485913 
L 215.645249 323.315239 
L 215.357999 322.110966 
L 215.189091 320.884485 
L 215.140121 319.647397 
L 215.149056 318.663629 
L 213.836311 314.050001 
L 213.558269 312.857713 
L 213.396046 311.64423 
L 213.351142 310.420776 
L 213.423971 309.198666 
L 213.613862 307.989203 
L 213.919056 306.803575 
L 214.336732 305.652748 
L 214.863026 304.547365 
L 215.493071 303.49765 
L 216.221039 302.513313 
L 217.040196 301.603457 
L 217.942968 300.776498 
L 218.227082 300.562574 
L 218.381583 299.668131 
" clip-path="url(#pc756bf7e6d)" style="fill: #ff0000; fill-opacity: 0.7; stroke: #000000; stroke-opacity: 0.7; stroke-width: 0.5"/>
    <path d="M 529.769894 395.269472 
L 528.734854 394.56653 
L 527.773818 393.765377 
L 526.89607 392.873752 
L 526.110089 391.900269 
L 525.423468 390.85433 
L 524.842839 389.746039 
L 524.373812 388.586104 
L 524.020917 387.385728 
L 523.787563 386.156508 
L 523.676005 384.910317 
L 523.687319 383.659194 
L 523.821397 382.415225 
L 524.076944 381.190426 
L 524.45149 379.996629 
L 524.679579 379.460651 
L 524.672829 379.425039 
L 524.561618 378.179186 
L 524.573209 376.928433 
L 524.70749 375.684855 
L 524.963164 374.460458 
L 525.337764 373.267063 
L 525.827673 372.116191 
L 526.428161 371.018953 
L 527.66095 369.007747 
L 528.364229 367.977365 
L 529.164984 367.020767 
L 530.055527 366.147141 
L 531.027303 365.364876 
L 532.070981 364.681485 
L 533.176538 364.10353 
L 534.333357 363.636563 
L 535.530327 363.285066 
L 536.755954 363.052417 
L 537.998468 362.94085 
L 539.245936 362.951435 
L 540.486378 363.084071 
L 541.707881 363.337485 
L 542.898714 363.709242 
L 544.047442 364.195773 
L 545.143032 364.792405 
L 546.521876 365.633402 
L 546.706854 365.759099 
L 547.244794 365.977651 
L 548.338039 366.550856 
L 552.935141 369.253109 
L 553.991944 369.947144 
L 554.974689 370.742586 
L 555.873682 371.631589 
L 556.680056 372.605383 
L 557.385858 373.654364 
L 557.984123 374.768183 
L 558.468952 375.935855 
L 558.835562 377.14586 
L 559.080336 378.386264 
L 559.200861 379.64483 
L 559.195946 380.909145 
L 559.065642 382.166736 
L 558.811232 383.405199 
L 558.435227 384.612318 
L 557.941336 385.776185 
L 557.33443 386.88532 
L 555.845829 389.31132 
L 555.150218 390.330604 
L 554.359185 391.277748 
L 553.480162 392.14385 
L 552.521409 392.920773 
L 551.491936 393.601215 
L 550.401418 394.178782 
L 549.2601 394.648047 
L 548.078709 395.0046 
L 546.868346 395.245091 
L 545.640384 395.367259 
L 545.523098 395.367516 
L 545.290783 395.554494 
L 544.247357 396.237638 
L 543.142092 396.815401 
L 541.985595 397.282238 
L 540.788968 397.633669 
L 539.563694 397.86632 
L 538.321535 397.977957 
L 537.074413 397.967511 
L 535.834299 397.83508 
L 534.613095 397.581936 
L 533.422522 397.21051 
L 532.274008 396.724364 
L 531.178576 396.128167 
L 529.769894 395.269472 
" clip-path="url(#pc756bf7e6d)" style="fill: #ff0000; fill-opacity: 0.7; stroke: #000000; stroke-opacity: 0.7; stroke-width: 0.5"/>
    <path d="M 571.809055 343.843038 
L 571.462186 345.045033 
L 570.999009 346.207176 
L 570.423997 347.318243 
L 567.099594 353.034847 
L 566.420365 354.081246 
L 565.641975 355.056137 
L 564.771901 355.950159 
L 563.818497 356.754724 
L 562.79092 357.462106 
L 561.699038 358.065511 
L 560.553338 358.559146 
L 559.364822 358.938268 
L 558.144904 359.199238 
L 556.905301 359.339548 
L 555.657916 359.357852 
L 554.414729 359.253973 
L 553.187679 359.02891 
L 551.988551 358.684823 
L 550.828861 358.225018 
L 549.719744 357.653909 
L 542.124318 353.259223 
L 541.627331 353.162263 
L 540.432065 352.804642 
L 539.277546 352.331736 
L 538.174864 351.748087 
L 534.390583 349.501054 
L 533.347605 348.810267 
L 532.377467 348.020444 
L 531.489536 347.139214 
L 530.692387 346.175085 
L 529.993719 345.137371 
L 529.400279 344.036091 
L 528.917797 342.881881 
L 528.550934 341.685887 
L 528.303232 340.45966 
L 528.177084 339.215042 
L 528.173706 337.964051 
L 528.293133 336.71877 
L 528.534211 335.491223 
L 528.894611 334.293266 
L 529.370854 333.136468 
L 529.958339 332.032 
L 531.636729 329.219343 
L 531.155973 329.455366 
L 529.96485 329.898938 
L 528.735431 330.22152 
L 527.479972 330.419895 
L 526.210989 330.492086 
L 524.941131 330.437373 
L 523.68306 330.256301 
L 522.449316 329.950676 
L 521.252199 329.523544 
L 520.103643 328.979164 
L 519.015099 328.322962 
L 517.997417 327.561481 
L 517.060743 326.70231 
L 516.214416 325.754017 
L 515.466872 324.726054 
L 514.994034 324.002474 
L 514.370909 322.939976 
L 513.853386 321.822229 
L 513.446311 320.659698 
L 513.153494 319.463267 
L 512.977679 318.244138 
L 512.920509 317.013724 
L 512.982521 315.783544 
L 513.163134 314.565116 
L 513.460656 313.369847 
L 513.872304 312.208927 
L 514.394222 311.093226 
L 515.021524 310.033189 
L 515.748337 309.038739 
L 516.567858 308.119188 
L 517.472412 307.283144 
L 518.453532 306.538435 
L 519.476936 305.836988 
L 520.524619 305.191037 
L 521.629786 304.649282 
L 522.782106 304.216787 
L 523.970806 303.897597 
L 525.184776 303.694694 
L 526.412667 303.609976 
L 527.642999 303.644234 
L 528.864273 303.797149 
L 530.065071 304.067289 
L 531.234169 304.452132 
L 532.360636 304.948078 
L 533.433944 305.550492 
L 534.444059 306.253742 
L 535.381538 307.051254 
L 536.237617 307.935573 
L 537.004294 308.898433 
L 537.505415 309.594339 
L 538.191947 310.655022 
L 538.769952 311.778537 
L 539.233737 312.953815 
L 539.578733 314.169278 
L 539.801541 315.412955 
L 539.899967 316.672592 
L 539.873042 317.935783 
L 539.721029 319.190082 
L 539.445428 320.423134 
L 539.435054 320.454522 
L 540.484869 320.01623 
L 541.677695 319.650575 
L 542.900585 319.403438 
L 544.141794 319.277194 
L 545.3894 319.273055 
L 546.631419 319.391062 
L 547.855922 319.63008 
L 549.051148 319.987814 
L 550.205615 320.460828 
L 551.308236 321.044579 
L 555.091627 323.291569 
L 556.134411 323.982362 
L 557.104368 324.772159 
L 557.346338 325.012335 
L 565.794354 329.8999 
L 566.845135 330.578846 
L 567.8242 331.357653 
L 568.722092 332.228801 
L 569.53014 333.183876 
L 570.240539 334.213654 
L 570.846429 335.308189 
L 571.341957 336.456911 
L 571.722338 337.648724 
L 571.983898 338.87212 
L 572.124112 340.115281 
L 572.141624 341.366201 
L 572.036266 342.6128 
L 571.809055 343.843038 
" clip-path="url(#pc756bf7e6d)" style="fill: #ff0000; fill-opacity: 0.7; stroke: #000000; stroke-opacity: 0.7; stroke-width: 0.5"/>
   </g>
   <g id="matplotlib.axis_1">
    <g id="xtick_1">
     <g id="line2d_1">
      <defs>
       <path id="m8a1df86e07" d="M 0 0 
L 0 3.5 
" style="stroke: #000000; stroke-width: 0.8"/>
      </defs>
      <g>
       <use xlink:href="#m8a1df86e07" x="90.636183" y="524.046582" style="stroke: #000000; stroke-width: 0.8"/>
      </g>
     </g>
     <g id="text_1">
      <!-- 382500 -->
      <g transform="translate(71.548683 538.64502) scale(0.1 -0.1)">
       <defs>
        <path id="DejaVuSans-33" d="M 2597 2516 
Q 3050 2419 3304 2112 
Q 3559 1806 3559 1356 
Q 3559 666 3084 287 
Q 2609 -91 1734 -91 
Q 1441 -91 1130 -33 
Q 819 25 488 141 
L 488 750 
Q 750 597 1062 519 
Q 1375 441 1716 441 
Q 2309 441 2620 675 
Q 2931 909 2931 1356 
Q 2931 1769 2642 2001 
Q 2353 2234 1838 2234 
L 1294 2234 
L 1294 2753 
L 1863 2753 
Q 2328 2753 2575 2939 
Q 2822 3125 2822 3475 
Q 2822 3834 2567 4026 
Q 2313 4219 1838 4219 
Q 1578 4219 1281 4162 
Q 984 4106 628 3988 
L 628 4550 
Q 988 4650 1302 4700 
Q 1616 4750 1894 4750 
Q 2613 4750 3031 4423 
Q 3450 4097 3450 3541 
Q 3450 3153 3228 2886 
Q 3006 2619 2597 2516 
z
" transform="scale(0.015625)"/>
        <path id="DejaVuSans-38" d="M 2034 2216 
Q 1584 2216 1326 1975 
Q 1069 1734 1069 1313 
Q 1069 891 1326 650 
Q 1584 409 2034 409 
Q 2484 409 2743 651 
Q 3003 894 3003 1313 
Q 3003 1734 2745 1975 
Q 2488 2216 2034 2216 
z
M 1403 2484 
Q 997 2584 770 2862 
Q 544 3141 544 3541 
Q 544 4100 942 4425 
Q 1341 4750 2034 4750 
Q 2731 4750 3128 4425 
Q 3525 4100 3525 3541 
Q 3525 3141 3298 2862 
Q 3072 2584 2669 2484 
Q 3125 2378 3379 2068 
Q 3634 1759 3634 1313 
Q 3634 634 3220 271 
Q 2806 -91 2034 -91 
Q 1263 -91 848 271 
Q 434 634 434 1313 
Q 434 1759 690 2068 
Q 947 2378 1403 2484 
z
M 1172 3481 
Q 1172 3119 1398 2916 
Q 1625 2713 2034 2713 
Q 2441 2713 2670 2916 
Q 2900 3119 2900 3481 
Q 2900 3844 2670 4047 
Q 2441 4250 2034 4250 
Q 1625 4250 1398 4047 
Q 1172 3844 1172 3481 
z
" transform="scale(0.015625)"/>
        <path id="DejaVuSans-32" d="M 1228 531 
L 3431 531 
L 3431 0 
L 469 0 
L 469 531 
Q 828 903 1448 1529 
Q 2069 2156 2228 2338 
Q 2531 2678 2651 2914 
Q 2772 3150 2772 3378 
Q 2772 3750 2511 3984 
Q 2250 4219 1831 4219 
Q 1534 4219 1204 4116 
Q 875 4013 500 3803 
L 500 4441 
Q 881 4594 1212 4672 
Q 1544 4750 1819 4750 
Q 2544 4750 2975 4387 
Q 3406 4025 3406 3419 
Q 3406 3131 3298 2873 
Q 3191 2616 2906 2266 
Q 2828 2175 2409 1742 
Q 1991 1309 1228 531 
z
" transform="scale(0.015625)"/>
        <path id="DejaVuSans-35" d="M 691 4666 
L 3169 4666 
L 3169 4134 
L 1269 4134 
L 1269 2991 
Q 1406 3038 1543 3061 
Q 1681 3084 1819 3084 
Q 2600 3084 3056 2656 
Q 3513 2228 3513 1497 
Q 3513 744 3044 326 
Q 2575 -91 1722 -91 
Q 1428 -91 1123 -41 
Q 819 9 494 109 
L 494 744 
Q 775 591 1075 516 
Q 1375 441 1709 441 
Q 2250 441 2565 725 
Q 2881 1009 2881 1497 
Q 2881 1984 2565 2268 
Q 2250 2553 1709 2553 
Q 1456 2553 1204 2497 
Q 953 2441 691 2322 
L 691 4666 
z
" transform="scale(0.015625)"/>
        <path id="DejaVuSans-30" d="M 2034 4250 
Q 1547 4250 1301 3770 
Q 1056 3291 1056 2328 
Q 1056 1369 1301 889 
Q 1547 409 2034 409 
Q 2525 409 2770 889 
Q 3016 1369 3016 2328 
Q 3016 3291 2770 3770 
Q 2525 4250 2034 4250 
z
M 2034 4750 
Q 2819 4750 3233 4129 
Q 3647 3509 3647 2328 
Q 3647 1150 3233 529 
Q 2819 -91 2034 -91 
Q 1250 -91 836 529 
Q 422 1150 422 2328 
Q 422 3509 836 4129 
Q 1250 4750 2034 4750 
z
" transform="scale(0.015625)"/>
       </defs>
       <use xlink:href="#DejaVuSans-33"/>
       <use xlink:href="#DejaVuSans-38" x="63.623047"/>
       <use xlink:href="#DejaVuSans-32" x="127.246094"/>
       <use xlink:href="#DejaVuSans-35" x="190.869141"/>
       <use xlink:href="#DejaVuSans-30" x="254.492188"/>
       <use xlink:href="#DejaVuSans-30" x="318.115234"/>
      </g>
     </g>
    </g>
    <g id="xtick_2">
     <g id="line2d_2">
      <g>
       <use xlink:href="#m8a1df86e07" x="154.286349" y="524.046582" style="stroke: #000000; stroke-width: 0.8"/>
      </g>
     </g>
     <g id="text_2">
      <!-- 383000 -->
      <g transform="translate(135.198849 538.64502) scale(0.1 -0.1)">
       <use xlink:href="#DejaVuSans-33"/>
       <use xlink:href="#DejaVuSans-38" x="63.623047"/>
       <use xlink:href="#DejaVuSans-33" x="127.246094"/>
       <use xlink:href="#DejaVuSans-30" x="190.869141"/>
       <use xlink:href="#DejaVuSans-30" x="254.492188"/>
       <use xlink:href="#DejaVuSans-30" x="318.115234"/>
      </g>
     </g>
    </g>
    <g id="xtick_3">
     <g id="line2d_3">
      <g>
       <use xlink:href="#m8a1df86e07" x="217.936515" y="524.046582" style="stroke: #000000; stroke-width: 0.8"/>
      </g>
     </g>
     <g id="text_3">
      <!-- 383500 -->
      <g transform="translate(198.849015 538.64502) scale(0.1 -0.1)">
       <use xlink:href="#DejaVuSans-33"/>
       <use xlink:href="#DejaVuSans-38" x="63.623047"/>
       <use xlink:href="#DejaVuSans-33" x="127.246094"/>
       <use xlink:href="#DejaVuSans-35" x="190.869141"/>
       <use xlink:href="#DejaVuSans-30" x="254.492188"/>
       <use xlink:href="#DejaVuSans-30" x="318.115234"/>
      </g>
     </g>
    </g>
    <g id="xtick_4">
     <g id="line2d_4">
      <g>
       <use xlink:href="#m8a1df86e07" x="281.586681" y="524.046582" style="stroke: #000000; stroke-width: 0.8"/>
      </g>
     </g>
     <g id="text_4">
      <!-- 384000 -->
      <g transform="translate(262.499181 538.64502) scale(0.1 -0.1)">
       <defs>
        <path id="DejaVuSans-34" d="M 2419 4116 
L 825 1625 
L 2419 1625 
L 2419 4116 
z
M 2253 4666 
L 3047 4666 
L 3047 1625 
L 3713 1625 
L 3713 1100 
L 3047 1100 
L 3047 0 
L 2419 0 
L 2419 1100 
L 313 1100 
L 313 1709 
L 2253 4666 
z
" transform="scale(0.015625)"/>
       </defs>
       <use xlink:href="#DejaVuSans-33"/>
       <use xlink:href="#DejaVuSans-38" x="63.623047"/>
       <use xlink:href="#DejaVuSans-34" x="127.246094"/>
       <use xlink:href="#DejaVuSans-30" x="190.869141"/>
       <use xlink:href="#DejaVuSans-30" x="254.492188"/>
       <use xlink:href="#DejaVuSans-30" x="318.115234"/>
      </g>
     </g>
    </g>
    <g id="xtick_5">
     <g id="line2d_5">
      <g>
       <use xlink:href="#m8a1df86e07" x="345.236847" y="524.046582" style="stroke: #000000; stroke-width: 0.8"/>
      </g>
     </g>
     <g id="text_5">
      <!-- 384500 -->
      <g transform="translate(326.149347 538.64502) scale(0.1 -0.1)">
       <use xlink:href="#DejaVuSans-33"/>
       <use xlink:href="#DejaVuSans-38" x="63.623047"/>
       <use xlink:href="#DejaVuSans-34" x="127.246094"/>
       <use xlink:href="#DejaVuSans-35" x="190.869141"/>
       <use xlink:href="#DejaVuSans-30" x="254.492188"/>
       <use xlink:href="#DejaVuSans-30" x="318.115234"/>
      </g>
     </g>
    </g>
    <g id="xtick_6">
     <g id="line2d_6">
      <g>
       <use xlink:href="#m8a1df86e07" x="408.887013" y="524.046582" style="stroke: #000000; stroke-width: 0.8"/>
      </g>
     </g>
     <g id="text_6">
      <!-- 385000 -->
      <g transform="translate(389.799513 538.64502) scale(0.1 -0.1)">
       <use xlink:href="#DejaVuSans-33"/>
       <use xlink:href="#DejaVuSans-38" x="63.623047"/>
       <use xlink:href="#DejaVuSans-35" x="127.246094"/>
       <use xlink:href="#DejaVuSans-30" x="190.869141"/>
       <use xlink:href="#DejaVuSans-30" x="254.492188"/>
       <use xlink:href="#DejaVuSans-30" x="318.115234"/>
      </g>
     </g>
    </g>
    <g id="xtick_7">
     <g id="line2d_7">
      <g>
       <use xlink:href="#m8a1df86e07" x="472.537179" y="524.046582" style="stroke: #000000; stroke-width: 0.8"/>
      </g>
     </g>
     <g id="text_7">
      <!-- 385500 -->
      <g transform="translate(453.449679 538.64502) scale(0.1 -0.1)">
       <use xlink:href="#DejaVuSans-33"/>
       <use xlink:href="#DejaVuSans-38" x="63.623047"/>
       <use xlink:href="#DejaVuSans-35" x="127.246094"/>
       <use xlink:href="#DejaVuSans-35" x="190.869141"/>
       <use xlink:href="#DejaVuSans-30" x="254.492188"/>
       <use xlink:href="#DejaVuSans-30" x="318.115234"/>
      </g>
     </g>
    </g>
    <g id="xtick_8">
     <g id="line2d_8">
      <g>
       <use xlink:href="#m8a1df86e07" x="536.187345" y="524.046582" style="stroke: #000000; stroke-width: 0.8"/>
      </g>
     </g>
     <g id="text_8">
      <!-- 386000 -->
      <g transform="translate(517.099845 538.64502) scale(0.1 -0.1)">
       <defs>
        <path id="DejaVuSans-36" d="M 2113 2584 
Q 1688 2584 1439 2293 
Q 1191 2003 1191 1497 
Q 1191 994 1439 701 
Q 1688 409 2113 409 
Q 2538 409 2786 701 
Q 3034 994 3034 1497 
Q 3034 2003 2786 2293 
Q 2538 2584 2113 2584 
z
M 3366 4563 
L 3366 3988 
Q 3128 4100 2886 4159 
Q 2644 4219 2406 4219 
Q 1781 4219 1451 3797 
Q 1122 3375 1075 2522 
Q 1259 2794 1537 2939 
Q 1816 3084 2150 3084 
Q 2853 3084 3261 2657 
Q 3669 2231 3669 1497 
Q 3669 778 3244 343 
Q 2819 -91 2113 -91 
Q 1303 -91 875 529 
Q 447 1150 447 2328 
Q 447 3434 972 4092 
Q 1497 4750 2381 4750 
Q 2619 4750 2861 4703 
Q 3103 4656 3366 4563 
z
" transform="scale(0.015625)"/>
       </defs>
       <use xlink:href="#DejaVuSans-33"/>
       <use xlink:href="#DejaVuSans-38" x="63.623047"/>
       <use xlink:href="#DejaVuSans-36" x="127.246094"/>
       <use xlink:href="#DejaVuSans-30" x="190.869141"/>
       <use xlink:href="#DejaVuSans-30" x="254.492188"/>
       <use xlink:href="#DejaVuSans-30" x="318.115234"/>
      </g>
     </g>
    </g>
    <g id="xtick_9">
     <g id="line2d_9">
      <g>
       <use xlink:href="#m8a1df86e07" x="599.837511" y="524.046582" style="stroke: #000000; stroke-width: 0.8"/>
      </g>
     </g>
     <g id="text_9">
      <!-- 386500 -->
      <g transform="translate(580.750011 538.64502) scale(0.1 -0.1)">
       <use xlink:href="#DejaVuSans-33"/>
       <use xlink:href="#DejaVuSans-38" x="63.623047"/>
       <use xlink:href="#DejaVuSans-36" x="127.246094"/>
       <use xlink:href="#DejaVuSans-35" x="190.869141"/>
       <use xlink:href="#DejaVuSans-30" x="254.492188"/>
       <use xlink:href="#DejaVuSans-30" x="318.115234"/>
      </g>
     </g>
    </g>
   </g>
   <g id="matplotlib.axis_2">
    <g id="ytick_1">
     <g id="line2d_10">
      <defs>
       <path id="m76caf20214" d="M 0 0 
L -3.5 0 
" style="stroke: #000000; stroke-width: 0.8"/>
      </defs>
      <g>
       <use xlink:href="#m76caf20214" x="90" y="479.366731" style="stroke: #000000; stroke-width: 0.8"/>
      </g>
     </g>
     <g id="text_10">
      <!-- 5.8215 -->
      <g transform="translate(48.009375 483.16595) scale(0.1 -0.1)">
       <defs>
        <path id="DejaVuSans-2e" d="M 684 794 
L 1344 794 
L 1344 0 
L 684 0 
L 684 794 
z
" transform="scale(0.015625)"/>
        <path id="DejaVuSans-31" d="M 794 531 
L 1825 531 
L 1825 4091 
L 703 3866 
L 703 4441 
L 1819 4666 
L 2450 4666 
L 2450 531 
L 3481 531 
L 3481 0 
L 794 0 
L 794 531 
z
" transform="scale(0.015625)"/>
       </defs>
       <use xlink:href="#DejaVuSans-35"/>
       <use xlink:href="#DejaVuSans-2e" x="63.623047"/>
       <use xlink:href="#DejaVuSans-38" x="95.410156"/>
       <use xlink:href="#DejaVuSans-32" x="159.033203"/>
       <use xlink:href="#DejaVuSans-31" x="222.65625"/>
       <use xlink:href="#DejaVuSans-35" x="286.279297"/>
      </g>
     </g>
    </g>
    <g id="ytick_2">
     <g id="line2d_11">
      <g>
       <use xlink:href="#m76caf20214" x="90" y="415.716565" style="stroke: #000000; stroke-width: 0.8"/>
      </g>
     </g>
     <g id="text_11">
      <!-- 5.8220 -->
      <g transform="translate(48.009375 419.515784) scale(0.1 -0.1)">
       <use xlink:href="#DejaVuSans-35"/>
       <use xlink:href="#DejaVuSans-2e" x="63.623047"/>
       <use xlink:href="#DejaVuSans-38" x="95.410156"/>
       <use xlink:href="#DejaVuSans-32" x="159.033203"/>
       <use xlink:href="#DejaVuSans-32" x="222.65625"/>
       <use xlink:href="#DejaVuSans-30" x="286.279297"/>
      </g>
     </g>
    </g>
    <g id="ytick_3">
     <g id="line2d_12">
      <g>
       <use xlink:href="#m76caf20214" x="90" y="352.066399" style="stroke: #000000; stroke-width: 0.8"/>
      </g>
     </g>
     <g id="text_12">
      <!-- 5.8225 -->
      <g transform="translate(48.009375 355.865618) scale(0.1 -0.1)">
       <use xlink:href="#DejaVuSans-35"/>
       <use xlink:href="#DejaVuSans-2e" x="63.623047"/>
       <use xlink:href="#DejaVuSans-38" x="95.410156"/>
       <use xlink:href="#DejaVuSans-32" x="159.033203"/>
       <use xlink:href="#DejaVuSans-32" x="222.65625"/>
       <use xlink:href="#DejaVuSans-35" x="286.279297"/>
      </g>
     </g>
    </g>
    <g id="ytick_4">
     <g id="line2d_13">
      <g>
       <use xlink:href="#m76caf20214" x="90" y="288.416233" style="stroke: #000000; stroke-width: 0.8"/>
      </g>
     </g>
     <g id="text_13">
      <!-- 5.8230 -->
      <g transform="translate(48.009375 292.215452) scale(0.1 -0.1)">
       <use xlink:href="#DejaVuSans-35"/>
       <use xlink:href="#DejaVuSans-2e" x="63.623047"/>
       <use xlink:href="#DejaVuSans-38" x="95.410156"/>
       <use xlink:href="#DejaVuSans-32" x="159.033203"/>
       <use xlink:href="#DejaVuSans-33" x="222.65625"/>
       <use xlink:href="#DejaVuSans-30" x="286.279297"/>
      </g>
     </g>
    </g>
    <g id="ytick_5">
     <g id="line2d_14">
      <g>
       <use xlink:href="#m76caf20214" x="90" y="224.766067" style="stroke: #000000; stroke-width: 0.8"/>
      </g>
     </g>
     <g id="text_14">
      <!-- 5.8235 -->
      <g transform="translate(48.009375 228.565286) scale(0.1 -0.1)">
       <use xlink:href="#DejaVuSans-35"/>
       <use xlink:href="#DejaVuSans-2e" x="63.623047"/>
       <use xlink:href="#DejaVuSans-38" x="95.410156"/>
       <use xlink:href="#DejaVuSans-32" x="159.033203"/>
       <use xlink:href="#DejaVuSans-33" x="222.65625"/>
       <use xlink:href="#DejaVuSans-35" x="286.279297"/>
      </g>
     </g>
    </g>
    <g id="text_15">
     <!-- 1e6 -->
     <g transform="translate(90 200.153418) scale(0.1 -0.1)">
      <defs>
       <path id="DejaVuSans-65" d="M 3597 1894 
L 3597 1613 
L 953 1613 
Q 991 1019 1311 708 
Q 1631 397 2203 397 
Q 2534 397 2845 478 
Q 3156 559 3463 722 
L 3463 178 
Q 3153 47 2828 -22 
Q 2503 -91 2169 -91 
Q 1331 -91 842 396 
Q 353 884 353 1716 
Q 353 2575 817 3079 
Q 1281 3584 2069 3584 
Q 2775 3584 3186 3129 
Q 3597 2675 3597 1894 
z
M 3022 2063 
Q 3016 2534 2758 2815 
Q 2500 3097 2075 3097 
Q 1594 3097 1305 2825 
Q 1016 2553 972 2059 
L 3022 2063 
z
" transform="scale(0.015625)"/>
      </defs>
      <use xlink:href="#DejaVuSans-31"/>
      <use xlink:href="#DejaVuSans-65" x="63.623047"/>
      <use xlink:href="#DejaVuSans-36" x="125.146484"/>
     </g>
    </g>
   </g>
   <g id="patch_3">
    <path d="M 90 524.046582 
L 90 203.153418 
" style="fill: none; stroke: #000000; stroke-width: 0.8; stroke-linejoin: miter; stroke-linecap: square"/>
   </g>
   <g id="patch_4">
    <path d="M 648 524.046582 
L 648 203.153418 
" style="fill: none; stroke: #000000; stroke-width: 0.8; stroke-linejoin: miter; stroke-linecap: square"/>
   </g>
   <g id="patch_5">
    <path d="M 90 524.046582 
L 648 524.046582 
" style="fill: none; stroke: #000000; stroke-width: 0.8; stroke-linejoin: miter; stroke-linecap: square"/>
   </g>
   <g id="patch_6">
    <path d="M 90 203.153418 
L 648 203.153418 
" style="fill: none; stroke: #000000; stroke-width: 0.8; stroke-linejoin: miter; stroke-linecap: square"/>
   </g>
   <g id="text_16">
    <!-- Charlottenburg_Nord -->
    <g transform="translate(282.094665 344.613113) scale(0.12 -0.12)">
     <defs>
      <path id="DejaVuSans-43" d="M 4122 4306 
L 4122 3641 
Q 3803 3938 3442 4084 
Q 3081 4231 2675 4231 
Q 1875 4231 1450 3742 
Q 1025 3253 1025 2328 
Q 1025 1406 1450 917 
Q 1875 428 2675 428 
Q 3081 428 3442 575 
Q 3803 722 4122 1019 
L 4122 359 
Q 3791 134 3420 21 
Q 3050 -91 2638 -91 
Q 1578 -91 968 557 
Q 359 1206 359 2328 
Q 359 3453 968 4101 
Q 1578 4750 2638 4750 
Q 3056 4750 3426 4639 
Q 3797 4528 4122 4306 
z
" transform="scale(0.015625)"/>
      <path id="DejaVuSans-68" d="M 3513 2113 
L 3513 0 
L 2938 0 
L 2938 2094 
Q 2938 2591 2744 2837 
Q 2550 3084 2163 3084 
Q 1697 3084 1428 2787 
Q 1159 2491 1159 1978 
L 1159 0 
L 581 0 
L 581 4863 
L 1159 4863 
L 1159 2956 
Q 1366 3272 1645 3428 
Q 1925 3584 2291 3584 
Q 2894 3584 3203 3211 
Q 3513 2838 3513 2113 
z
" transform="scale(0.015625)"/>
      <path id="DejaVuSans-61" d="M 2194 1759 
Q 1497 1759 1228 1600 
Q 959 1441 959 1056 
Q 959 750 1161 570 
Q 1363 391 1709 391 
Q 2188 391 2477 730 
Q 2766 1069 2766 1631 
L 2766 1759 
L 2194 1759 
z
M 3341 1997 
L 3341 0 
L 2766 0 
L 2766 531 
Q 2569 213 2275 61 
Q 1981 -91 1556 -91 
Q 1019 -91 701 211 
Q 384 513 384 1019 
Q 384 1609 779 1909 
Q 1175 2209 1959 2209 
L 2766 2209 
L 2766 2266 
Q 2766 2663 2505 2880 
Q 2244 3097 1772 3097 
Q 1472 3097 1187 3025 
Q 903 2953 641 2809 
L 641 3341 
Q 956 3463 1253 3523 
Q 1550 3584 1831 3584 
Q 2591 3584 2966 3190 
Q 3341 2797 3341 1997 
z
" transform="scale(0.015625)"/>
      <path id="DejaVuSans-72" d="M 2631 2963 
Q 2534 3019 2420 3045 
Q 2306 3072 2169 3072 
Q 1681 3072 1420 2755 
Q 1159 2438 1159 1844 
L 1159 0 
L 581 0 
L 581 3500 
L 1159 3500 
L 1159 2956 
Q 1341 3275 1631 3429 
Q 1922 3584 2338 3584 
Q 2397 3584 2469 3576 
Q 2541 3569 2628 3553 
L 2631 2963 
z
" transform="scale(0.015625)"/>
      <path id="DejaVuSans-6c" d="M 603 4863 
L 1178 4863 
L 1178 0 
L 603 0 
L 603 4863 
z
" transform="scale(0.015625)"/>
      <path id="DejaVuSans-6f" d="M 1959 3097 
Q 1497 3097 1228 2736 
Q 959 2375 959 1747 
Q 959 1119 1226 758 
Q 1494 397 1959 397 
Q 2419 397 2687 759 
Q 2956 1122 2956 1747 
Q 2956 2369 2687 2733 
Q 2419 3097 1959 3097 
z
M 1959 3584 
Q 2709 3584 3137 3096 
Q 3566 2609 3566 1747 
Q 3566 888 3137 398 
Q 2709 -91 1959 -91 
Q 1206 -91 779 398 
Q 353 888 353 1747 
Q 353 2609 779 3096 
Q 1206 3584 1959 3584 
z
" transform="scale(0.015625)"/>
      <path id="DejaVuSans-74" d="M 1172 4494 
L 1172 3500 
L 2356 3500 
L 2356 3053 
L 1172 3053 
L 1172 1153 
Q 1172 725 1289 603 
Q 1406 481 1766 481 
L 2356 481 
L 2356 0 
L 1766 0 
Q 1100 0 847 248 
Q 594 497 594 1153 
L 594 3053 
L 172 3053 
L 172 3500 
L 594 3500 
L 594 4494 
L 1172 4494 
z
" transform="scale(0.015625)"/>
      <path id="DejaVuSans-6e" d="M 3513 2113 
L 3513 0 
L 2938 0 
L 2938 2094 
Q 2938 2591 2744 2837 
Q 2550 3084 2163 3084 
Q 1697 3084 1428 2787 
Q 1159 2491 1159 1978 
L 1159 0 
L 581 0 
L 581 3500 
L 1159 3500 
L 1159 2956 
Q 1366 3272 1645 3428 
Q 1925 3584 2291 3584 
Q 2894 3584 3203 3211 
Q 3513 2838 3513 2113 
z
" transform="scale(0.015625)"/>
      <path id="DejaVuSans-62" d="M 3116 1747 
Q 3116 2381 2855 2742 
Q 2594 3103 2138 3103 
Q 1681 3103 1420 2742 
Q 1159 2381 1159 1747 
Q 1159 1113 1420 752 
Q 1681 391 2138 391 
Q 2594 391 2855 752 
Q 3116 1113 3116 1747 
z
M 1159 2969 
Q 1341 3281 1617 3432 
Q 1894 3584 2278 3584 
Q 2916 3584 3314 3078 
Q 3713 2572 3713 1747 
Q 3713 922 3314 415 
Q 2916 -91 2278 -91 
Q 1894 -91 1617 61 
Q 1341 213 1159 525 
L 1159 0 
L 581 0 
L 581 4863 
L 1159 4863 
L 1159 2969 
z
" transform="scale(0.015625)"/>
      <path id="DejaVuSans-75" d="M 544 1381 
L 544 3500 
L 1119 3500 
L 1119 1403 
Q 1119 906 1312 657 
Q 1506 409 1894 409 
Q 2359 409 2629 706 
Q 2900 1003 2900 1516 
L 2900 3500 
L 3475 3500 
L 3475 0 
L 2900 0 
L 2900 538 
Q 2691 219 2414 64 
Q 2138 -91 1772 -91 
Q 1169 -91 856 284 
Q 544 659 544 1381 
z
M 1991 3584 
L 1991 3584 
z
" transform="scale(0.015625)"/>
      <path id="DejaVuSans-67" d="M 2906 1791 
Q 2906 2416 2648 2759 
Q 2391 3103 1925 3103 
Q 1463 3103 1205 2759 
Q 947 2416 947 1791 
Q 947 1169 1205 825 
Q 1463 481 1925 481 
Q 2391 481 2648 825 
Q 2906 1169 2906 1791 
z
M 3481 434 
Q 3481 -459 3084 -895 
Q 2688 -1331 1869 -1331 
Q 1566 -1331 1297 -1286 
Q 1028 -1241 775 -1147 
L 775 -588 
Q 1028 -725 1275 -790 
Q 1522 -856 1778 -856 
Q 2344 -856 2625 -561 
Q 2906 -266 2906 331 
L 2906 616 
Q 2728 306 2450 153 
Q 2172 0 1784 0 
Q 1141 0 747 490 
Q 353 981 353 1791 
Q 353 2603 747 3093 
Q 1141 3584 1784 3584 
Q 2172 3584 2450 3431 
Q 2728 3278 2906 2969 
L 2906 3500 
L 3481 3500 
L 3481 434 
z
" transform="scale(0.015625)"/>
      <path id="DejaVuSans-5f" d="M 3263 -1063 
L 3263 -1509 
L -63 -1509 
L -63 -1063 
L 3263 -1063 
z
" transform="scale(0.015625)"/>
      <path id="DejaVuSans-4e" d="M 628 4666 
L 1478 4666 
L 3547 763 
L 3547 4666 
L 4159 4666 
L 4159 0 
L 3309 0 
L 1241 3903 
L 1241 0 
L 628 0 
L 628 4666 
z
" transform="scale(0.015625)"/>
      <path id="DejaVuSans-64" d="M 2906 2969 
L 2906 4863 
L 3481 4863 
L 3481 0 
L 2906 0 
L 2906 525 
Q 2725 213 2448 61 
Q 2172 -91 1784 -91 
Q 1150 -91 751 415 
Q 353 922 353 1747 
Q 353 2572 751 3078 
Q 1150 3584 1784 3584 
Q 2172 3584 2448 3432 
Q 2725 3281 2906 2969 
z
M 947 1747 
Q 947 1113 1208 752 
Q 1469 391 1925 391 
Q 2381 391 2643 752 
Q 2906 1113 2906 1747 
Q 2906 2381 2643 2742 
Q 2381 3103 1925 3103 
Q 1469 3103 1208 2742 
Q 947 2381 947 1747 
z
" transform="scale(0.015625)"/>
     </defs>
     <use xlink:href="#DejaVuSans-43"/>
     <use xlink:href="#DejaVuSans-68" x="69.824219"/>
     <use xlink:href="#DejaVuSans-61" x="133.203125"/>
     <use xlink:href="#DejaVuSans-72" x="194.482422"/>
     <use xlink:href="#DejaVuSans-6c" x="235.595703"/>
     <use xlink:href="#DejaVuSans-6f" x="263.378906"/>
     <use xlink:href="#DejaVuSans-74" x="324.560547"/>
     <use xlink:href="#DejaVuSans-74" x="363.769531"/>
     <use xlink:href="#DejaVuSans-65" x="402.978516"/>
     <use xlink:href="#DejaVuSans-6e" x="464.501953"/>
     <use xlink:href="#DejaVuSans-62" x="527.880859"/>
     <use xlink:href="#DejaVuSans-75" x="591.357422"/>
     <use xlink:href="#DejaVuSans-72" x="654.736328"/>
     <use xlink:href="#DejaVuSans-67" x="694.099609"/>
     <use xlink:href="#DejaVuSans-5f" x="757.576172"/>
     <use xlink:href="#DejaVuSans-4e" x="807.576172"/>
     <use xlink:href="#DejaVuSans-6f" x="882.380859"/>
     <use xlink:href="#DejaVuSans-72" x="943.5625"/>
     <use xlink:href="#DejaVuSans-64" x="982.925781"/>
    </g>
   </g>
  </g>
 </g>
 <defs>
  <clipPath id="pc756bf7e6d">
   <rect x="90" y="203.153418" width="558" height="320.893164"/>
  </clipPath>
 </defs>
</svg>
