<?xml version="1.0" encoding="utf-8" standalone="no"?>
<!DOCTYPE svg PUBLIC "-//W3C//DTD SVG 1.1//EN"
  "http://www.w3.org/Graphics/SVG/1.1/DTD/svg11.dtd">
<svg xmlns:xlink="http://www.w3.org/1999/xlink" width="720pt" height="720pt" viewBox="0 0 720 720" xmlns="http://www.w3.org/2000/svg" version="1.1">
 <metadata>
  <rdf:RDF xmlns:dc="http://purl.org/dc/elements/1.1/" xmlns:cc="http://creativecommons.org/ns#" xmlns:rdf="http://www.w3.org/1999/02/22-rdf-syntax-ns#">
   <cc:Work>
    <dc:type rdf:resource="http://purl.org/dc/dcmitype/StillImage"/>
    <dc:date>2024-10-15T09:52:16.327132</dc:date>
    <dc:format>image/svg+xml</dc:format>
    <dc:creator>
     <cc:Agent>
      <dc:title>Matplotlib v3.8.4, https://matplotlib.org/</dc:title>
     </cc:Agent>
    </dc:creator>
   </cc:Work>
  </rdf:RDF>
 </metadata>
 <defs>
  <style type="text/css">*{stroke-linejoin: round; stroke-linecap: butt}</style>
 </defs>
 <g id="figure_1">
  <g id="patch_1">
   <path d="M 0 720 
L 720 720 
L 720 0 
L 0 0 
z
" style="fill: #ffffff"/>
  </g>
  <g id="axes_1">
   <g id="patch_2">
    <path d="M 180.008132 640.8 
L 557.991868 640.8 
L 557.991868 86.4 
L 180.008132 86.4 
z
" style="fill: #ffffff"/>
   </g>
   <g id="PatchCollection_1">
    <path d="M 197.189211 198.848832 
L 197.621154 199.142396 
L 204.212484 203.6214 
L 204.761913 203.994751 
L 204.89787 204.086651 
L 213.364133 209.811219 
L 214.639977 210.674197 
L 216.21544 211.739141 
L 233.875894 223.680931 
L 236.714333 225.592502 
L 237.18352 225.916194 
L 237.854826 226.361915 
L 238.767462 226.93042 
L 239.74732 227.550098 
L 240.475703 228.01656 
L 241.196668 228.470759 
L 241.955937 228.904519 
L 242.689922 229.319656 
L 243.57682 229.805951 
L 248.101244 232.22032 
L 250.885936 233.6191 
L 254.759191 235.567007 
L 255.284698 235.475562 
L 258.188996 236.787287 
L 258.566889 236.914463 
L 258.946902 237.035128 
L 259.328883 237.149435 
L 259.658177 237.255263 
L 259.990499 237.351099 
L 260.325698 237.436943 
L 260.663167 237.512491 
L 261.485872 237.691597 
L 262.311151 237.857833 
L 263.139004 238.011201 
L 263.969128 238.1517 
L 264.393652 238.21014 
L 264.819539 238.258437 
L 265.246486 238.296438 
L 265.674189 238.324295 
L 265.698867 240.403768 
L 265.704015 240.844946 
L 265.706437 241.04222 
L 265.712645 241.57333 
L 265.714916 241.770452 
L 265.719306 242.142138 
L 265.744287 244.258552 
L 265.052089 244.271875 
L 264.047098 244.291103 
L 261.970351 244.330921 
L 261.672397 244.336523 
L 260.426227 244.372859 
L 259.408822 245.93939 
L 257.780823 246.196163 
L 255.691509 246.534844 
L 259.566278 249.436114 
L 267.538826 255.403981 
L 276.673366 262.093418 
L 278.343303 263.39606 
L 280.459415 264.948057 
L 280.610057 265.05873 
L 280.994763 265.340787 
L 286.227132 269.178009 
L 286.644389 269.483987 
L 289.034836 271.237194 
L 289.554137 271.617964 
L 292.438298 273.733167 
L 292.516269 274.07533 
L 289.683583 282.897078 
L 289.49176 283.494804 
L 289.393653 283.800328 
L 284.436529 299.237934 
L 284.073927 300.367526 
L 283.825178 301.143449 
L 274.549685 300.594474 
L 274.373607 300.577063 
L 274.199044 300.552839 
L 274.025691 300.521197 
L 273.853853 300.482892 
L 273.657942 300.428389 
L 273.464756 300.364952 
L 273.275052 300.292129 
L 273.088528 300.209465 
L 268.631477 298.147554 
L 268.249798 298.953151 
L 266.612564 302.416113 
L 264.885398 306.069536 
L 264.46269 306.963701 
L 264.0094 307.92312 
L 263.896002 308.162786 
L 263.682377 308.614713 
L 263.56913 308.85453 
L 262.879163 310.313692 
L 260.809571 314.690529 
L 257.968861 320.698062 
L 261.819103 322.512132 
L 261.117517 324.047626 
L 260.570511 325.264273 
L 260.154768 326.189475 
L 261.993969 326.839131 
L 262.070577 326.625657 
L 263.775639 327.245487 
L 263.831203 327.266229 
L 266.307342 328.167056 
L 266.066617 328.810504 
L 265.74459 329.661218 
L 263.845434 334.71009 
L 263.271479 336.23423 
L 263.061639 336.727186 
L 262.561566 337.90568 
L 262.490106 338.073885 
L 262.320689 338.471915 
L 262.276329 338.575472 
L 262.12932 338.97986 
L 260.819412 342.577719 
L 260.139022 344.363174 
L 258.596715 348.407661 
L 258.088467 349.737706 
L 257.639264 350.990235 
L 256.681813 353.654564 
L 256.239121 354.884534 
L 256.154337 355.12208 
L 256.112703 355.236386 
L 256.109523 355.246833 
L 255.144048 357.933721 
L 254.534968 359.628336 
L 254.498329 359.73053 
L 254.480615 359.780189 
L 253.695155 361.922493 
L 253.304392 362.984864 
L 252.990238 363.819529 
L 252.442323 365.274328 
L 251.491383 367.798915 
L 248.689886 375.238234 
L 248.291553 376.252611 
L 248.214945 376.447463 
L 247.222673 378.543438 
L 245.975443 381.100273 
L 245.663863 381.738877 
L 240.84209 391.543511 
L 240.61484 391.993319 
L 239.972603 393.26553 
L 239.640281 393.923361 
L 238.99653 395.198296 
L 237.536887 397.835525 
L 237.124172 398.608874 
L 236.556272 399.587218 
L 234.694663 404.813681 
L 234.605943 404.960236 
L 234.549017 405.054255 
L 234.516163 405.108759 
L 233.571733 406.66984 
L 233.152356 407.36325 
L 230.562818 411.643769 
L 230.227468 412.198043 
L 230.18008 412.274499 
L 229.858659 412.7938 
L 229.553135 413.28706 
L 229.445641 413.460715 
L 229.445381 413.461135 
L 229.312258 413.676156 
L 229.03126 414.130052 
L 228.670021 414.713546 
L 228.348903 415.232241 
L 228.247616 415.395601 
L 228.298941 415.427849 
L 228.159805 415.662973 
L 225.910916 419.4413 
L 223.492914 423.383138 
L 223.398289 423.584197 
L 223.36377 423.65808 
L 225.876245 425.651558 
L 226.425977 425.57177 
L 227.472299 426.361167 
L 229.061086 427.967516 
L 232.031394 430.800202 
L 232.005202 430.830179 
L 239.765185 437.583507 
L 240.945799 438.662077 
L 244.472349 442.200588 
L 246.872031 444.608295 
L 247.219645 444.957119 
L 247.332437 444.926688 
L 252.676538 450.288805 
L 252.636872 450.328321 
L 256.002635 453.705288 
L 256.042302 453.665772 
L 272.829937 470.587094 
L 276.791458 474.579803 
L 279.263055 477.556923 
L 279.192352 477.615818 
L 279.675922 478.198554 
L 279.723462 478.166155 
L 282.661824 479.60112 
L 284.60973 479.866826 
L 284.7092 479.925872 
L 284.92555 480.05441 
L 284.93206 480.058347 
L 284.98611 480.034425 
L 285.043793 480.021254 
L 285.10299 480.019134 
L 285.16143 480.028218 
L 285.217145 480.048051 
L 285.241218 480.064251 
L 285.268016 480.07818 
L 286.282544 480.626095 
L 287.303431 481.177341 
L 287.33356 481.199596 
L 287.356118 481.212919 
L 287.399873 481.258945 
L 287.432878 481.313297 
L 287.453468 481.373403 
L 287.460584 481.436537 
L 287.454074 481.499822 
L 287.304642 481.80792 
L 287.551272 481.975065 
L 287.617349 482.034114 
L 287.646654 482.060303 
L 287.73174 482.155836 
L 287.805321 482.260453 
L 287.866637 482.37264 
L 287.914631 482.491186 
L 287.948999 482.614425 
L 288.008953 483.199433 
L 288.063305 483.727666 
L 288.111753 484.199881 
L 288.44135 485.121753 
L 290.071318 486.825603 
L 294.889608 490.880083 
L 301.886841 496.61419 
L 307.838357 501.039447 
L 315.089184 506.463033 
L 316.94837 507.953864 
L 319.510134 510.172862 
L 322.758782 512.986839 
L 327.526051 517.203468 
L 328.556022 518.093848 
L 336.24939 524.741954 
L 336.467254 524.989795 
L 340.545049 529.556005 
L 342.643598 531.081961 
L 346.360306 533.7852 
L 350.200101 536.577765 
L 351.442637 537.467237 
L 355.527548 541.789845 
L 355.89227 541.750784 
L 357.918601 543.719735 
L 357.827913 545.021469 
L 364.037868 551.789331 
L 365.903867 553.823233 
L 367.222406 555.260014 
L 368.00393 556.112091 
L 372.368325 559.378839 
L 372.780283 559.665135 
L 375.997524 561.901761 
L 381.601123 566.244203 
L 381.930417 565.797725 
L 382.504373 566.161387 
L 385.318739 567.944722 
L 385.977024 568.361828 
L 388.020161 569.678853 
L 393.969558 573.513652 
L 398.920929 576.66791 
L 400.679283 577.788267 
L 403.29577 579.424744 
L 404.114841 579.93708 
L 405.227931 580.623374 
L 408.360539 582.55387 
L 410.425174 583.826383 
L 411.964756 584.783531 
L 412.383376 585.154157 
L 412.802147 585.524632 
L 422.930777 593.855089 
L 424.352873 595.02465 
L 425.019485 595.572868 
L 425.006313 595.621165 
L 425.605704 596.109428 
L 425.661722 596.09338 
L 427.83809 597.886707 
L 427.805539 597.92698 
L 428.424006 598.43977 
L 428.453529 598.402526 
L 428.635209 598.560435 
L 428.608714 598.602222 
L 429.468663 599.311983 
L 429.504394 599.268834 
L 429.711205 599.454298 
L 429.68471 599.496236 
L 430.265933 599.975113 
L 430.322405 599.958005 
L 432.500742 601.763444 
L 432.53405 601.790999 
L 432.504527 601.828243 
L 433.124659 602.339671 
L 433.157059 602.302427 
L 437.753852 606.12905 
L 445.717014 612.758231 
L 449.232663 615.6 
L 449.381034 615.427405 
L 455.512413 607.670146 
L 463.157182 598.729549 
L 463.324478 598.526825 
L 463.34525 598.502125 
L 463.488595 598.331671 
L 463.362025 598.221755 
L 466.953525 593.853424 
L 468.311882 592.201352 
L 470.72186 589.013937 
L 471.507926 587.421365 
L 470.917468 587.135826 
L 471.84585 585.306919 
L 472.227831 584.552495 
L 472.642969 583.729336 
L 475.468841 578.123919 
L 483.309672 562.582453 
L 483.593546 562.007286 
L 485.694215 557.752959 
L 487.581713 553.926336 
L 492.204395 544.554855 
L 492.380003 544.181956 
L 492.922193 543.030628 
L 491.192212 542.170089 
L 492.392653 539.489291 
L 492.576081 539.390465 
L 493.009387 539.089029 
L 493.205752 538.92582 
L 493.391973 538.751257 
L 493.567445 538.565944 
L 493.731411 538.370335 
L 493.883568 538.16534 
L 494.149728 537.730067 
L 494.262824 537.501302 
L 493.93247 537.363226 
L 493.64587 536.670573 
L 494.303096 535.064678 
L 495.086202 532.925213 
L 495.088405 532.919195 
L 501.357103 517.738817 
L 501.446732 517.522618 
L 501.479055 517.443875 
L 503.055806 513.602732 
L 499.616766 511.988662 
L 500.154688 510.681781 
L 502.14756 505.81474 
L 503.394184 501.622486 
L 506.208248 492.081136 
L 507.628073 487.241195 
L 508.158425 485.47845 
L 509.174316 482.109659 
L 509.945848 479.477275 
L 511.856662 473.06717 
L 512.62123 470.47203 
L 513.606084 467.178787 
L 514.262401 464.951397 
L 514.940973 462.649518 
L 515.629236 460.329775 
L 516.921734 455.982791 
L 517.008486 455.69059 
L 517.19607 455.104219 
L 517.63316 453.589921 
L 517.820139 453.015208 
L 518.946097 449.218713 
L 519.169563 448.463987 
L 519.282355 448.083671 
L 519.656009 446.825389 
L 520.006954 445.632815 
L 520.125348 445.229941 
L 520.361531 444.427372 
L 521.074018 442.039196 
L 521.307476 441.251464 
L 521.408005 440.911875 
L 521.779388 439.658741 
L 521.934724 439.134898 
L 522.034648 438.798337 
L 523.660527 433.318128 
L 523.995726 432.190504 
L 524.087625 431.881497 
L 524.438115 430.702095 
L 525.493824 427.142692 
L 526.474288 423.876852 
L 526.9353 422.320162 
L 528.454594 417.186809 
L 529.21795 414.608323 
L 529.997961 411.974425 
L 530.234144 411.176247 
L 530.332251 410.844531 
L 530.769947 409.367023 
L 531.187507 407.956282 
L 531.294547 407.594739 
L 532.324366 404.117243 
L 533.372808 400.570558 
L 532.450179 400.286532 
L 533.439623 396.95499 
L 533.934955 395.287168 
L 534.273635 395.390574 
L 538.277548 381.875288 
L 538.599423 380.789904 
L 540.810789 373.333045 
L 540.493969 367.050666 
L 537.759004 352.073044 
L 537.660595 352.055331 
L 537.071045 349.301827 
L 536.474833 346.478074 
L 535.937062 343.620559 
L 534.69059 337.45239 
L 534.060313 334.350062 
L 533.670157 332.494964 
L 531.51014 331.283616 
L 529.573134 329.739038 
L 529.217496 328.619589 
L 529.003871 325.124531 
L 530.730583 321.513955 
L 528.498803 315.940029 
L 527.603728 313.704312 
L 526.693817 311.431653 
L 525.813277 309.177465 
L 524.947121 306.901173 
L 524.83024 306.594286 
L 524.045385 304.59884 
L 523.169084 302.371299 
L 522.299445 300.160411 
L 521.409216 297.897291 
L 520.139731 294.669756 
L 519.9146 291.704293 
L 519.196815 289.870844 
L 514.404868 277.634884 
L 513.783221 276.047309 
L 508.666522 262.982891 
L 506.413545 259.573979 
L 504.804622 255.51102 
L 503.806445 252.947523 
L 502.809025 250.412186 
L 501.81645 247.875033 
L 500.823117 245.336365 
L 499.830542 242.79906 
L 498.837815 240.261907 
L 497.849479 237.732323 
L 496.857963 235.194564 
L 495.864631 232.662861 
L 495.028905 230.533123 
L 494.271151 228.587185 
L 493.238 225.943446 
L 492.432252 223.89501 
L 489.474964 216.373935 
L 488.987609 215.059333 
L 488.843174 214.69007 
L 488.577771 214.011497 
L 487.647269 211.652843 
L 486.18051 207.823949 
L 485.971579 207.292991 
L 485.202318 205.33812 
L 485.001108 204.835927 
L 481.814602 196.887754 
L 481.115439 195.143631 
L 479.068668 190.43132 
L 476.711831 186.683576 
L 472.978016 180.746292 
L 472.838577 180.203221 
L 472.264621 177.980525 
L 468.059347 171.294418 
L 439.864362 126.464256 
L 437.843178 123.250498 
L 430.933605 112.26419 
L 430.515894 111.6 
L 419.217249 122.896223 
L 418.122479 123.990993 
L 417.539893 124.573276 
L 410.323131 131.788069 
L 409.833051 132.277998 
L 409.376884 132.733711 
L 401.588134 140.527457 
L 397.485661 144.63311 
L 397.116852 145.00207 
L 393.455102 148.666848 
L 388.969134 148.188425 
L 388.768529 147.87745 
L 383.901185 140.334271 
L 380.727851 135.416057 
L 376.853082 136.0698 
L 373.841443 136.577897 
L 365.04952 138.060401 
L 315.801065 146.364061 
L 255.34541 156.583984 
L 254.97115 156.647118 
L 252.289561 157.100408 
L 251.47594 158.768225 
L 250.438853 160.721582 
L 248.492915 160.175333 
L 246.959389 160.247247 
L 246.494592 160.047551 
L 246.343041 160.274954 
L 241.715817 160.466928 
L 239.900234 160.152774 
L 239.713104 160.120375 
L 238.001532 159.82454 
L 237.062401 160.722642 
L 228.6623 168.754691 
L 226.625673 170.702143 
L 220.649782 176.416265 
L 215.353674 181.479974 
L 202.085018 194.167407 
L 201.470487 194.75514 
L 197.189211 198.848832 
" clip-path="url(#peac421dace)" style="fill: #d3d3d3"/>
   </g>
   <g id="PatchCollection_2">
    <path d="M 197.621154 199.142396 
L 197.189211 198.848832 
L 201.470487 194.75514 
L 202.085018 194.167407 
L 215.353674 181.479974 
L 220.649782 176.416265 
L 226.625673 170.702143 
L 228.6623 168.754691 
L 237.062401 160.722642 
L 238.001532 159.82454 
L 239.713104 160.120375 
L 239.900234 160.152774 
L 241.715817 160.466928 
L 246.343041 160.274954 
L 246.494592 160.047551 
L 246.959389 160.247247 
L 248.492915 160.175333 
L 250.438853 160.721582 
L 251.47594 158.768225 
L 252.289561 157.100408 
L 254.97115 156.647118 
L 255.34541 156.583984 
L 265.2754 154.905336 
L 265.901079 155.766881 
L 266.650571 157.04553 
L 267.271448 158.391335 
L 267.75776 159.791399 
L 268.104848 161.232305 
L 268.309386 162.700243 
L 268.369412 164.181147 
L 268.315139 165.125262 
L 269.360008 165.422922 
L 270.760089 165.977315 
L 272.098173 166.668048 
L 272.248128 166.765446 
L 272.825913 165.95471 
L 273.684422 164.948894 
L 274.627425 164.021828 
L 275.647727 163.180587 
L 276.110505 162.831825 
L 277.198971 162.083669 
L 278.348501 161.433226 
L 279.550347 160.885447 
L 280.795361 160.4445 
L 281.350829 160.274649 
L 282.613133 159.947388 
L 283.898916 159.729964 
L 285.19864 159.623992 
L 286.502662 159.630257 
L 287.082595 159.658047 
L 288.406925 159.779989 
L 289.715445 160.01768 
L 290.206364 160.152258 
L 290.343846 159.425053 
L 290.700125 157.949943 
L 291.202283 156.517908 
L 291.845276 155.143337 
L 292.622644 153.840039 
L 293.526576 152.621108 
L 294.547991 151.498791 
L 295.536528 150.610285 
L 294.634264 149.942272 
L 315.801065 146.364061 
L 365.04952 138.060401 
L 373.841443 136.577897 
L 376.853082 136.0698 
L 380.727851 135.416057 
L 383.901185 140.334271 
L 388.768529 147.87745 
L 388.969134 148.188425 
L 393.455102 148.666848 
L 397.116852 145.00207 
L 397.485661 144.63311 
L 401.588134 140.527457 
L 409.376884 132.733711 
L 409.833051 132.277998 
L 410.323131 131.788069 
L 417.539893 124.573276 
L 418.122479 123.990993 
L 419.217249 122.896223 
L 421.015263 121.098594 
L 421.255216 121.482274 
L 422.811692 121.886098 
L 424.356365 122.376472 
L 425.839772 123.029147 
L 427.4273 123.831648 
L 428.331535 124.328121 
L 429.508264 125.027406 
L 430.588389 125.733241 
L 431.558701 126.428067 
L 432.875921 127.487366 
L 434.06685 128.686897 
L 434.638584 129.330999 
L 435.952225 131.042486 
L 437.226683 132.973696 
L 437.372087 133.198322 
L 440.163272 137.594955 
L 440.25103 137.734872 
L 442.974468 142.130031 
L 443.678476 143.39807 
L 444.257919 144.727654 
L 444.707479 146.106583 
L 445.02303 147.522201 
L 445.201678 148.961518 
L 445.241781 150.411325 
L 445.142973 151.858317 
L 444.906161 153.289215 
L 444.533516 154.690887 
L 444.028459 156.05047 
L 443.395626 157.355487 
L 442.640823 158.593963 
L 441.770978 159.75453 
L 440.794072 160.82654 
L 439.719072 161.800153 
L 438.555842 162.666436 
L 435.248724 164.891277 
L 434.979468 165.0535 
L 434.716148 165.23361 
L 433.880688 165.746269 
L 434.294222 165.951329 
L 435.542753 166.729867 
L 436.709815 167.625923 
L 437.784385 168.631035 
L 438.756314 169.735709 
L 439.616423 170.929511 
L 447.865334 183.638189 
L 448.594685 184.889038 
L 449.201208 186.203841 
L 449.679356 187.570571 
L 450.024756 188.976728 
L 450.234248 190.409449 
L 450.305915 191.855631 
L 450.239104 193.302044 
L 450.034423 194.735461 
L 449.693747 196.142769 
L 449.22019 197.511097 
L 448.618084 198.827929 
L 447.892937 200.08122 
L 447.051381 201.259507 
L 446.101113 202.352013 
L 445.050826 203.348744 
L 444.162775 204.043054 
L 444.186992 204.214916 
L 444.248414 205.711318 
L 444.161692 207.206467 
L 443.927673 208.685732 
L 443.548647 210.134639 
L 443.028324 211.539009 
L 442.371794 212.885099 
L 441.585483 214.159739 
L 440.677085 215.350454 
L 439.655489 216.445594 
L 438.53069 217.434442 
L 437.313697 218.307321 
L 435.450537 219.508721 
L 434.16079 220.253227 
L 432.804138 220.867421 
L 431.393709 221.345362 
L 429.943148 221.682425 
L 428.46649 221.875349 
L 426.978022 221.922267 
L 425.492145 221.822726 
L 424.023236 221.577688 
L 422.585506 221.189524 
L 421.192866 220.661991 
L 419.85879 220.000191 
L 418.596185 219.210528 
L 417.417267 218.300643 
L 416.333444 217.279337 
L 415.3552 216.156494 
L 414.492001 214.942976 
L 413.175424 212.884776 
L 413.016845 212.637331 
L 412.285935 211.365051 
L 411.681615 210.027994 
L 411.209561 208.638717 
L 410.874207 207.210269 
L 410.678703 205.756067 
L 410.643931 204.808669 
L 410.195554 204.275991 
L 409.338271 203.02087 
L 407.871276 200.622906 
L 406.145957 197.818379 
L 406.082485 197.714267 
L 404.046806 194.344737 
L 403.341401 193.035949 
L 402.76777 191.664284 
L 402.622813 191.192095 
L 402.582101 191.392998 
L 402.207643 192.660484 
L 401.95543 193.394604 
L 401.416178 194.748379 
L 400.749275 196.04404 
L 399.960897 197.269584 
L 399.058349 198.413658 
L 398.049991 199.465662 
L 396.945167 200.415852 
L 396.591909 200.691236 
L 395.422548 201.517001 
L 395.289034 201.593493 
L 394.919791 202.66156 
L 394.298971 204.011545 
L 393.548807 205.294172 
L 392.676527 206.497086 
L 391.69053 207.608702 
L 390.600316 208.618311 
L 389.416385 209.516188 
L 388.150141 210.293686 
L 386.813781 210.943316 
L 385.420176 211.458818 
L 383.982751 211.83523 
L 382.51535 212.068924 
L 381.032109 212.15765 
L 379.547313 212.100553 
L 377.508467 211.921641 
L 377.105835 211.866295 
L 377.158234 212.000462 
L 377.236939 212.209384 
L 377.712853 213.702873 
L 378.031798 215.237565 
L 378.190356 216.797008 
L 378.186828 218.364488 
L 378.176542 218.554634 
L 378.028154 220.002547 
L 377.741416 221.429519 
L 377.440079 222.423075 
L 377.39843 222.863562 
L 377.260455 223.6827 
L 377.257135 223.682141 
L 377.172666 224.269774 
L 377.088635 224.61148 
L 377.184456 224.731763 
L 377.973021 225.942765 
L 378.642534 227.223433 
L 379.186897 228.5621 
L 379.601149 229.94657 
L 379.881516 231.364228 
L 380.34158 234.460542 
L 380.485891 235.905856 
L 380.491036 237.358347 
L 380.356969 238.804646 
L 380.084923 240.231442 
L 379.677402 241.625603 
L 379.138158 242.974296 
L 378.53946 244.134657 
L 379.02068 244.13083 
L 379.539124 244.177716 
L 379.677292 243.716326 
L 380.241957 242.339793 
L 380.939008 241.025331 
L 381.761713 239.785634 
L 382.702126 238.632676 
L 383.751166 237.57759 
L 384.453499 236.937437 
L 385.599052 235.991893 
L 386.831746 235.163155 
L 388.139717 234.459199 
L 389.510375 233.886801 
L 390.930527 233.451471 
L 392.386502 233.157399 
L 393.864287 233.007415 
L 395.349656 233.002964 
L 396.828314 233.144088 
L 398.286025 233.429428 
L 399.70876 233.856239 
L 401.082824 234.420412 
L 402.394991 235.116516 
L 403.632631 235.937851 
L 404.783829 236.876512 
L 405.837507 237.923463 
L 406.116563 238.229371 
L 407.06262 239.374593 
L 407.891896 240.607012 
L 408.596408 241.914765 
L 409.169374 243.285263 
L 409.605279 244.705314 
L 409.899926 246.161246 
L 410.050478 247.639045 
L 410.055488 249.124484 
L 409.914905 250.603265 
L 409.78934 251.245981 
L 410.643244 252.076324 
L 415.128175 256.88914 
L 415.386449 257.15175 
L 416.359123 258.241218 
L 417.222298 259.419338 
L 417.96794 260.675147 
L 418.589111 261.996958 
L 418.656939 262.187007 
L 418.928807 262.680551 
L 419.509422 264.029486 
L 419.956611 265.428329 
L 420.055175 265.885422 
L 420.233976 266.075857 
L 421.197988 267.209426 
L 422.046064 268.432154 
L 422.770011 269.732229 
L 423.362836 271.097094 
L 423.818813 272.513562 
L 424.133535 273.967951 
L 424.303963 275.44621 
L 424.328452 276.93406 
L 424.206763 278.417127 
L 423.940072 279.881085 
L 423.530957 281.311792 
L 422.983369 282.695426 
L 422.302597 284.018621 
L 421.495219 285.268596 
L 420.569033 286.433275 
L 419.532987 287.501407 
L 417.328393 289.561313 
L 416.213837 290.506219 
L 415.013383 291.339281 
L 413.738212 292.05274 
L 412.400203 292.639949 
L 411.011819 293.09544 
L 409.585991 293.41497 
L 408.136002 293.595561 
L 406.675356 293.635533 
L 405.21766 293.534512 
L 403.776491 293.293441 
L 402.365274 292.914563 
L 402.359785 292.912504 
L 401.536682 293.613151 
L 400.291665 294.474402 
L 398.96686 295.20701 
L 397.575516 295.803651 
L 396.131542 296.258361 
L 394.649376 296.566591 
L 393.143838 296.725261 
L 391.62998 296.732785 
L 390.12294 296.589086 
L 388.637784 296.295601 
L 387.189362 295.855266 
L 385.838564 295.29184 
L 385.818344 296.118501 
L 385.625227 297.64305 
L 385.278559 299.140169 
L 384.781913 300.594434 
L 384.140405 301.990862 
L 383.360645 303.315066 
L 382.450665 304.553404 
L 381.419842 305.693118 
L 380.278794 306.722465 
L 379.039279 307.63084 
L 377.714066 308.408886 
L 376.316809 309.048585 
L 375.513451 309.368124 
L 374.099284 309.851242 
L 372.644377 310.192588 
L 371.326405 310.367179 
L 371.60201 311.633882 
L 371.77253 313.041669 
L 371.810586 314.459234 
L 371.715846 315.874142 
L 371.495141 317.806747 
L 371.223041 319.415008 
L 370.779503 320.984662 
L 370.169678 322.497492 
L 370.140322 322.560323 
L 369.962259 323.05259 
L 369.336879 324.531244 
L 368.558436 325.935361 
L 368.329556 326.301031 
L 367.546379 327.43417 
L 366.663455 328.491438 
L 365.688094 329.464084 
L 364.628368 330.344056 
L 364.15193 330.70436 
L 363.111703 331.424735 
L 362.014956 332.055734 
L 360.869351 332.592949 
L 360.368426 332.802785 
L 358.908438 333.328163 
L 357.402346 333.70135 
L 356.60374 333.814185 
L 357.296193 334.236309 
L 358.474701 335.122759 
L 359.561378 336.119659 
L 360.545915 337.217549 
L 361.41897 338.406014 
L 362.172261 339.67378 
L 362.431573 340.226467 
L 363.592709 340.928476 
L 364.789193 341.824046 
L 365.89155 342.833218 
L 366.889037 343.946159 
L 367.771935 345.152023 
L 367.983665 345.510721 
L 368.284227 345.335556 
L 369.670654 344.704705 
L 371.113452 344.216356 
L 372.598019 343.875452 
L 374.109326 343.685445 
L 375.632077 343.648256 
L 377.150857 343.764263 
L 378.650295 344.032291 
L 379.131825 344.143622 
L 380.75223 344.44253 
L 381.077636 343.905812 
L 381.967056 342.71878 
L 382.968363 341.624478 
L 384.071945 340.633409 
L 385.26721 339.755085 
L 386.542686 338.997938 
L 387.886131 338.369234 
L 389.284649 337.875008 
L 390.724816 337.520003 
L 392.192811 337.307628 
L 393.674542 337.23992 
L 395.155788 337.31753 
L 396.62233 337.539712 
L 396.995823 337.615175 
L 397.023731 337.620841 
L 400.071923 338.242687 
L 401.511778 338.61087 
L 402.908597 339.11845 
L 404.248921 339.760536 
L 405.519834 340.530939 
L 406.70909 341.422237 
L 407.805229 342.425841 
L 408.797689 343.53208 
L 409.676906 344.730295 
L 410.434409 346.008939 
L 411.062897 347.355692 
L 411.556316 348.757577 
L 411.90991 350.201084 
L 412.120272 351.672304 
L 412.185375 353.157061 
L 412.104592 354.641048 
L 411.878701 356.109964 
L 411.548113 357.726801 
L 412.444446 357.312735 
L 412.730776 357.042283 
L 413.894964 356.139594 
L 415.141372 355.354323 
L 416.458197 354.693903 
L 417.348508 354.300371 
L 418.716182 353.773403 
L 420.128403 353.381153 
L 421.571935 353.127296 
L 423.033249 353.014211 
L 424.498651 353.042959 
L 425.954405 353.21327 
L 427.38687 353.523548 
L 428.78262 353.970885 
L 430.128574 354.551088 
L 431.412118 355.25872 
L 432.621222 356.087149 
L 433.744555 357.028611 
L 434.771589 358.074283 
L 435.692699 359.214364 
L 436.499252 360.43817 
L 437.183688 361.734231 
L 440.590537 369.019114 
L 440.812349 368.700597 
L 441.79459 367.55341 
L 442.886236 366.509789 
L 444.076425 365.580119 
L 445.353314 364.773651 
L 446.704197 364.098408 
L 448.965082 363.105976 
L 450.399639 362.561195 
L 451.881972 362.164426 
L 453.396855 361.919744 
L 454.928724 361.829663 
L 456.461844 361.895108 
L 457.980464 362.115407 
L 459.468984 362.488298 
L 460.912112 363.009948 
L 462.295024 363.675001 
L 462.566959 363.841597 
L 463.40045 363.753533 
L 464.864251 363.741033 
L 466.322416 363.869958 
L 468.575819 364.179585 
L 470.085217 364.465659 
L 471.557854 364.903223 
L 472.978566 365.487772 
L 474.332725 366.213287 
L 475.606389 367.072298 
L 476.786444 368.055961 
L 477.860738 369.154147 
L 478.818211 370.355548 
L 479.042568 370.704521 
L 479.212005 369.973709 
L 479.690706 368.559826 
L 480.306311 367.199955 
L 481.052838 365.907315 
L 481.92303 364.694473 
L 482.908426 363.573217 
L 483.999448 362.554449 
L 485.185491 361.64807 
L 485.751721 361.29787 
L 485.4476 361.312197 
L 484.001312 361.241849 
L 482.568359 361.033657 
L 477.14017 359.97778 
L 475.825027 359.737184 
L 474.379216 359.398655 
L 472.973521 358.92012 
L 471.621465 358.306184 
L 470.336055 357.562752 
L 469.129654 356.696975 
L 468.013869 355.717182 
L 466.999431 354.632797 
L 466.096101 353.454253 
L 465.312567 352.192886 
L 464.656367 350.86083 
L 464.133813 349.470899 
L 463.749931 348.036462 
L 463.508415 346.57132 
L 463.411588 345.089565 
L 463.439251 344.248139 
L 462.569305 344.211701 
L 460.929059 343.961269 
L 459.326069 343.53285 
L 457.434029 342.91427 
L 456.002604 342.364593 
L 454.634118 341.672949 
L 453.342609 340.846433 
L 452.141324 339.893524 
L 451.042584 338.823994 
L 450.875905 338.625118 
L 450.385054 338.431942 
L 449.061907 337.754563 
L 447.811563 336.950698 
L 446.646074 336.028094 
L 445.576676 334.995647 
L 444.613677 333.863307 
L 443.76636 332.641991 
L 443.042892 331.343471 
L 442.506316 330.109232 
L 441.527201 330.201607 
L 440.01982 330.193258 
L 438.52074 330.035055 
L 437.044822 329.728565 
L 435.606698 329.276828 
L 434.220623 328.68432 
L 432.900337 327.956917 
L 431.65893 327.101828 
L 430.244036 326.019559 
L 429.453914 325.417396 
L 428.345601 324.485686 
L 427.331359 323.452364 
L 426.420464 322.326882 
L 425.621246 321.119532 
L 424.941016 319.841358 
L 424.385996 318.50405 
L 423.96126 317.119839 
L 423.670694 315.701384 
L 423.516956 314.26166 
L 423.501451 312.813834 
L 423.624322 311.371148 
L 423.884444 309.946796 
L 424.279439 308.553806 
L 424.805693 307.204919 
L 425.458395 305.91247 
L 425.491682 305.859765 
L 425.618677 305.429039 
L 426.171711 304.061158 
L 426.855266 302.753603 
L 427.662849 301.518794 
L 432.639676 294.663305 
L 433.577098 293.497787 
L 434.62495 292.430455 
L 434.793956 292.28932 
L 435.93556 290.624779 
L 436.846063 289.429086 
L 437.870626 288.329556 
L 438.999154 287.337022 
L 440.220526 286.461267 
L 441.522707 285.710918 
L 442.892864 285.093371 
L 444.317498 284.614709 
L 445.782569 284.279651 
L 447.273641 284.091498 
L 448.776021 284.052103 
L 450.274904 284.161855 
L 451.755522 284.419672 
L 453.203283 284.823014 
L 454.603922 285.367907 
L 455.943637 286.048981 
L 457.209226 286.859524 
L 459.748624 288.669681 
L 460.910175 289.586477 
L 461.976678 290.612287 
L 462.937945 291.737312 
L 463.784792 292.950804 
L 464.509131 294.241172 
L 465.10404 295.596088 
L 465.563838 297.002609 
L 465.884132 298.447298 
L 466.061861 299.916355 
L 466.095328 301.395745 
L 465.984214 302.871336 
L 465.72958 304.329031 
L 465.333858 305.754906 
L 465.013842 306.583681 
L 465.843723 306.669608 
L 467.262282 306.955377 
L 468.64708 307.37527 
L 469.985466 307.92545 
L 471.265213 308.600893 
L 472.47463 309.395427 
L 473.221368 309.938808 
L 474.385816 310.877515 
L 475.451959 311.926539 
L 476.409391 313.07564 
L 477.248768 314.313605 
L 477.350633 314.501407 
L 477.990697 315.022202 
L 479.037996 315.958364 
L 479.994021 316.987562 
L 480.850542 318.100936 
L 481.600187 319.288903 
L 482.236502 320.541235 
L 482.754008 321.847152 
L 483.148252 323.195411 
L 483.580595 324.976997 
L 483.861897 326.451885 
L 483.884446 326.703864 
L 484.032054 326.732355 
L 484.228287 326.695181 
L 484.305787 326.673782 
L 485.729675 326.353605 
L 486.569361 326.248308 
L 486.127253 325.18489 
L 485.660887 324.092024 
L 485.068689 322.700923 
L 485.022817 322.591989 
L 484.389007 321.070266 
L 484.370945 321.030074 
L 484.271142 320.803029 
L 482.981141 317.801863 
L 482.451861 316.377378 
L 482.068046 314.90701 
L 481.833564 313.405573 
L 481.750776 311.888194 
L 481.820516 310.370159 
L 482.042082 308.866761 
L 482.413242 307.393149 
L 482.930256 305.964166 
L 483.587915 304.59421 
L 484.379595 303.297084 
L 485.297318 302.085853 
L 486.33184 300.972723 
L 487.472737 299.968906 
L 488.673763 299.109388 
L 489.23117 298.207157 
L 490.134271 297.023579 
L 490.728037 296.386419 
L 489.893391 295.973146 
L 488.624665 295.180157 
L 487.440403 294.265814 
L 486.352171 293.239047 
L 485.370596 292.109885 
L 484.505263 290.889353 
L 483.764624 289.589371 
L 483.155911 288.222635 
L 482.585364 286.749762 
L 482.117976 285.342042 
L 481.790581 283.895342 
L 481.606323 282.423549 
L 481.56697 280.940788 
L 481.672899 279.461293 
L 481.923094 277.999263 
L 482.315154 276.568733 
L 482.845314 275.183433 
L 483.508488 273.856659 
L 484.298308 272.601147 
L 485.207195 271.428947 
L 486.226424 270.351311 
L 487.346212 269.378582 
L 488.555811 268.520096 
L 489.843611 267.784095 
L 491.011314 267.260945 
L 491.122224 266.152844 
L 491.40931 264.712821 
L 491.834544 263.307381 
L 492.393925 261.949744 
L 493.082192 260.652681 
L 493.89287 259.428391 
L 494.818335 258.288392 
L 495.849881 257.243405 
L 496.977805 256.30326 
L 498.191498 255.476802 
L 499.479543 254.771802 
L 500.829825 254.194894 
L 502.800042 253.463934 
L 503.875007 253.123602 
L 504.804622 255.51102 
L 506.413545 259.573979 
L 508.666522 262.982891 
L 513.783221 276.047309 
L 514.404868 277.634884 
L 518.702657 288.609041 
L 518.068618 288.993391 
L 516.513996 289.709831 
L 516.420721 289.746576 
L 516.117548 289.846214 
L 515.844729 289.984943 
L 514.433565 290.532925 
L 512.97473 290.937243 
L 512.052431 291.09588 
L 511.87159 291.139674 
L 511.888041 291.145769 
L 513.235886 291.803394 
L 514.512057 292.591141 
L 515.70403 293.501283 
L 516.80011 294.524887 
L 517.789541 295.651911 
L 518.662616 296.871295 
L 519.410766 298.171075 
L 520.026652 299.538497 
L 521.364336 302.950488 
L 521.904892 302.879616 
L 523.350666 302.832877 
L 524.045385 304.59884 
L 524.83024 306.594286 
L 524.947121 306.901173 
L 525.813277 309.177465 
L 526.693817 311.431653 
L 527.603728 313.704312 
L 528.498803 315.940029 
L 530.730583 321.513955 
L 529.003871 325.124531 
L 529.217496 328.619589 
L 529.573134 329.739038 
L 531.51014 331.283616 
L 531.698651 331.389334 
L 531.626073 331.441285 
L 531.575069 331.470687 
L 531.984247 331.549497 
L 533.670157 332.494964 
L 534.060313 334.350062 
L 534.69059 337.45239 
L 535.937062 343.620559 
L 536.474833 346.478074 
L 537.071045 349.301827 
L 537.660595 352.055331 
L 537.759004 352.073044 
L 539.943805 364.037777 
L 538.942359 364.813311 
L 537.672717 365.609188 
L 536.330618 366.275658 
L 534.929209 366.806193 
L 533.576279 367.170284 
L 533.781342 367.322247 
L 534.889853 368.327602 
L 535.893695 369.437482 
L 535.937188 369.49634 
L 536.593294 370.204211 
L 537.492745 371.389475 
L 538.27151 372.657303 
L 538.922066 373.99545 
L 539.43813 375.390992 
L 539.795454 376.756815 
L 538.599423 380.789904 
L 538.277548 381.875288 
L 534.599376 394.291031 
L 533.976164 394.854631 
L 532.75991 395.751443 
L 532.343915 396.027231 
L 530.995402 396.824032 
L 529.571781 397.477243 
L 528.088291 397.979872 
L 527.499929 398.14583 
L 525.974416 398.492157 
L 524.421309 398.679223 
L 522.85719 398.70503 
L 522.367313 398.687785 
L 522.111859 398.666097 
L 519.988554 405.563681 
L 518.970319 408.90126 
L 518.465694 410.303857 
L 517.825588 411.650033 
L 517.056207 412.926739 
L 516.165008 414.1216 
L 515.160631 415.223032 
L 514.052811 416.220359 
L 512.852287 417.103913 
L 511.570697 417.86513 
L 510.220462 418.496631 
L 508.814673 418.992294 
L 507.366956 419.347315 
L 507.260705 419.362504 
L 506.373176 420.06315 
L 505.089884 420.881529 
L 503.730907 421.566925 
L 502.309982 422.112412 
L 500.841467 422.512475 
L 499.340206 422.763072 
L 497.82137 422.861671 
L 496.300309 422.807275 
L 494.850932 422.608462 
L 495.201337 422.981995 
L 496.105845 424.158581 
L 496.890813 425.41807 
L 497.060206 425.760596 
L 497.130633 425.835226 
L 498.04824 427.024455 
L 498.843489 428.298758 
L 499.508552 429.645591 
L 500.310593 431.495755 
L 500.829287 432.871867 
L 501.212023 434.291812 
L 501.45519 435.74219 
L 501.531583 436.848559 
L 501.700435 437.290778 
L 502.090024 438.71355 
L 502.339301 440.167482 
L 502.445901 441.638773 
L 502.408812 443.113454 
L 502.228384 444.577526 
L 501.906333 446.017089 
L 501.446082 447.417356 
L 501.452262 447.425387 
L 502.237876 448.684638 
L 502.896415 450.01476 
L 503.764286 452.007846 
L 504.282972 453.382824 
L 504.609054 453.970666 
L 504.733153 454.222664 
L 504.978844 454.746604 
L 505.751576 456.479888 
L 506.295137 457.882698 
L 506.696791 459.332528 
L 506.952573 460.815062 
L 507.059956 462.315663 
L 507.01788 463.819513 
L 506.826761 465.311762 
L 506.488486 466.777676 
L 506.006395 468.20278 
L 505.385248 469.573002 
L 504.631179 470.874814 
L 503.751633 472.09536 
L 502.755295 473.222588 
L 501.652003 474.245369 
L 500.452651 475.153603 
L 499.169082 475.938322 
L 497.813969 476.591778 
L 495.229023 477.683499 
L 495.198521 477.696342 
L 495.019078 477.771666 
L 493.579912 478.2919 
L 492.095581 478.664195 
L 490.581249 478.884748 
L 489.052389 478.951304 
L 487.52462 478.863185 
L 486.013551 478.621291 
L 484.53462 478.228092 
L 483.225266 477.733788 
L 481.90724 478.799714 
L 481.715756 478.95203 
L 478.306462 481.619263 
L 478.03661 481.850715 
L 477.501137 482.28915 
L 476.917764 482.744938 
L 475.709273 483.59746 
L 474.423371 484.328005 
L 473.072325 484.929602 
L 471.66903 485.396511 
L 470.226874 485.724276 
L 468.75962 485.909769 
L 467.281268 485.951222 
L 465.805925 485.848237 
L 464.347669 485.601798 
L 462.920415 485.214257 
L 461.924182 484.836016 
L 461.920127 484.844422 
L 461.14516 486.114817 
L 460.24922 487.302996 
L 459.240962 488.397479 
L 446.26386 501.163949 
L 445.156759 502.15115 
L 444.375208 502.721227 
L 444.523982 502.766227 
L 445.523918 503.107195 
L 446.223366 503.373285 
L 447.230475 503.79865 
L 447.955114 504.13604 
L 448.052583 504.185305 
L 448.878916 504.252498 
L 450.382972 504.5296 
L 451.851398 504.957028 
L 453.13091 505.400705 
L 454.55895 505.978852 
L 455.920841 506.699134 
L 457.20248 507.554092 
L 458.390596 508.534873 
L 459.472886 509.631323 
L 460.438143 510.832085 
L 460.530979 510.960436 
L 460.960604 511.620487 
L 461.683544 512.484568 
L 462.527318 513.724262 
L 463.244312 515.041347 
L 463.827494 516.422901 
L 464.271141 517.855372 
L 464.570902 519.324704 
L 464.723834 520.816484 
L 464.728438 522.316075 
L 464.584669 523.808766 
L 464.293937 525.279911 
L 463.859095 526.715079 
L 463.526895 527.515744 
L 463.402309 528.807487 
L 463.11521 530.265917 
L 462.686481 531.689166 
L 462.120254 533.063514 
L 461.421987 534.375714 
L 459.107754 538.252839 
L 458.733892 538.814495 
L 458.408893 539.422696 
L 458.301197 539.60232 
L 457.92729 540.161712 
L 457.621357 540.732088 
L 457.508342 540.920021 
L 457.139856 541.469907 
L 456.828725 542.050046 
L 454.596129 545.762135 
L 454.369295 546.104764 
L 454.260211 546.309598 
L 453.584017 547.443975 
L 452.780853 548.655136 
L 451.865265 549.783711 
L 450.845688 550.819302 
L 449.731519 551.752367 
L 448.533021 552.574309 
L 447.261239 553.277555 
L 445.92789 553.855624 
L 444.545259 554.303191 
L 443.126086 554.616132 
L 441.683446 554.791564 
L 440.230633 554.827869 
L 439.937372 554.807001 
L 438.741053 555.013013 
L 438.001371 555.086357 
L 437.707295 555.112624 
L 437.090469 555.16166 
L 435.849812 555.209222 
L 434.956536 555.206812 
L 433.833838 555.162091 
L 433.135961 555.108298 
L 432.297857 555.020174 
L 431.650027 554.933766 
L 430.014834 554.623367 
L 429.02297 554.37792 
L 427.87824 554.046323 
L 427.126006 553.795934 
L 426.464989 553.55874 
L 425.297632 553.10903 
L 423.960949 552.518515 
L 422.687423 551.801884 
L 421.905506 551.310756 
L 421.28484 550.937028 
L 420.084926 550.134158 
L 418.966942 549.220645 
L 417.77398 548.147048 
L 416.991404 547.390108 
L 416.425334 546.80174 
L 415.070272 545.180658 
L 414.509263 544.405399 
L 414.333243 544.156934 
L 413.788892 543.371926 
L 412.760871 541.657899 
L 412.499441 541.148542 
L 412.147866 540.415776 
L 411.86641 539.786375 
L 411.707123 539.417087 
L 411.418828 538.72352 
L 410.979386 537.526418 
L 410.909182 537.307019 
L 410.315544 536.191252 
L 409.748826 534.814914 
L 409.319995 533.389579 
L 409.033195 531.929024 
L 408.891198 530.447365 
L 408.895377 528.958924 
L 409.045691 527.478086 
L 409.340688 526.019164 
L 409.777516 524.596259 
L 410.351953 523.223125 
L 411.058447 521.913033 
L 411.747097 520.773885 
L 411.807569 520.682683 
L 411.90575 520.489009 
L 412.113003 520.12622 
L 412.291039 519.822816 
L 414.307118 516.476733 
L 414.719738 515.844678 
L 415.004043 515.31839 
L 415.111706 515.140452 
L 415.480211 514.593873 
L 415.789356 514.021551 
L 415.898083 513.84195 
L 416.320586 513.188374 
L 416.560855 512.741478 
L 418.861548 508.923073 
L 419.690847 507.688284 
L 420.637309 506.54083 
L 421.691799 505.491787 
L 422.844139 504.55128 
L 424.083207 503.728388 
L 425.267153 503.099992 
L 425.467651 502.935722 
L 426.380936 502.324256 
L 425.974343 502.019011 
L 424.880947 501.016651 
L 417.2073 493.256649 
L 416.21419 492.148347 
L 415.334684 490.947901 
L 414.57728 489.666909 
L 413.949295 488.317748 
L 413.456797 486.913452 
L 413.104544 485.46759 
L 412.895939 483.994129 
L 412.832998 482.507308 
L 412.916329 481.021489 
L 413.145126 479.551029 
L 413.51718 478.110135 
L 414.028895 476.712727 
L 414.675328 475.372307 
L 415.450232 474.101826 
L 416.346123 472.913557 
L 417.354342 471.818983 
L 430.331489 459.050962 
L 431.438651 458.0636 
L 432.637128 457.189331 
L 433.915413 456.436549 
L 435.261233 455.812483 
L 436.661668 455.323122 
L 438.103273 454.973167 
L 439.572206 454.765975 
L 440.675109 454.719514 
L 441.583128 452.073758 
L 442.29946 449.953712 
L 442.345031 449.820874 
L 443.684965 445.973286 
L 444.254189 444.56926 
L 444.960886 443.229153 
L 445.797978 441.966385 
L 446.757084 440.793601 
L 447.828599 439.722544 
L 449.001794 438.76394 
L 450.26492 437.927389 
L 451.60533 437.221266 
L 453.0096 436.652642 
L 454.463669 436.227213 
L 455.952976 435.949237 
L 457.462608 435.821498 
L 457.629975 435.824125 
L 458.160149 435.496496 
L 458.520083 435.297027 
L 459.955551 434.59778 
L 461.456679 434.053602 
L 463.00677 433.670545 
L 464.588582 433.452869 
L 466.153397 433.403968 
L 466.179317 432.595499 
L 466.372638 431.120666 
L 466.709748 429.671922 
L 467.187393 428.263249 
L 467.800964 426.908245 
L 468.544537 425.619989 
L 469.410935 424.410916 
L 470.391795 423.292696 
L 471.477651 422.276123 
L 472.65802 421.371008 
L 473.92151 420.586089 
L 475.255924 419.928942 
L 477.651506 418.892144 
L 479.040752 418.370142 
L 480.474429 417.986664 
L 481.938764 417.745394 
L 481.990667 417.742003 
L 481.490436 417.383907 
L 480.457087 416.564569 
L 479.86185 416.136842 
L 478.826718 415.469084 
L 477.613086 414.598976 
L 476.450059 413.675532 
L 475.383096 412.642588 
L 474.422465 411.510082 
L 473.577406 410.288911 
L 473.521591 410.188471 
L 473.490714 410.143782 
L 472.770916 408.846612 
L 472.181526 407.485223 
L 471.728201 406.072688 
L 471.593787 405.449765 
L 471.166603 405.770343 
L 469.915311 406.532328 
L 468.596229 407.169804 
L 463.399715 409.37773 
L 462.154161 409.908537 
L 462.0668 409.945445 
L 461.139094 410.333949 
L 461.139094 410.333949 
L 461.091248 410.497695 
L 460.526863 411.89504 
L 459.826357 413.229355 
L 458.996669 414.487417 
L 458.27651 415.373248 
L 458.263454 415.431702 
L 456.767781 422.420549 
L 456.393224 423.833531 
L 455.884147 425.203805 
L 455.245296 426.518597 
L 454.482625 427.765651 
L 453.603244 428.933341 
L 452.615352 430.010782 
L 451.528157 430.98793 
L 450.351795 431.855676 
L 449.097231 432.60593 
L 447.776162 433.231698 
L 446.400902 433.727147 
L 444.984271 434.087659 
L 443.539476 434.309872 
L 442.079986 434.391715 
L 440.619406 434.332425 
L 439.171351 434.132555 
L 437.749321 433.793967 
L 436.366572 433.319819 
L 435.035995 432.714531 
L 429.072914 429.646216 
L 428.888489 429.539157 
L 428.685684 429.439815 
L 428.183747 429.130051 
L 427.744745 428.875209 
L 427.595929 428.767287 
L 427.430777 428.665366 
L 426.929131 428.283724 
L 426.501517 427.973618 
L 426.386435 427.870852 
L 426.257165 427.772506 
L 425.762222 427.313446 
L 425.409315 426.998309 
L 425.337852 427.01122 
L 423.832244 427.130324 
L 422.32226 427.098828 
L 420.822928 426.917046 
L 419.349167 426.586785 
L 417.915645 426.111334 
L 416.536625 425.495422 
L 415.225832 424.74518 
L 413.996309 423.868073 
L 412.860292 422.87283 
L 405.762554 415.999445 
L 404.743954 414.910866 
L 404.520621 414.619325 
L 403.784889 414.129875 
L 403.522848 413.937217 
L 402.508824 413.122318 
L 401.568498 412.223379 
L 400.708812 411.247036 
L 399.094174 409.246145 
L 398.155582 407.948087 
L 397.990559 407.692388 
L 397.427856 406.903189 
L 396.517506 405.460943 
L 396.081224 404.674882 
L 395.942798 404.419741 
L 395.592211 403.758513 
L 395.222197 403.011668 
L 394.872657 402.254435 
L 394.334487 400.926861 
L 393.943311 399.813261 
L 393.48697 398.249824 
L 393.481589 398.226861 
L 392.943131 398.586988 
L 391.648764 399.281427 
L 391.466285 399.357584 
L 390.693672 399.778692 
L 389.347149 400.351705 
L 387.951595 400.792043 
L 386.520048 401.095593 
L 385.717435 401.186069 
L 386.033343 401.658543 
L 386.752054 403.012235 
L 387.33022 404.431653 
L 387.761917 405.902252 
L 388.042721 407.408962 
L 388.169753 408.936341 
L 388.141713 410.468737 
L 387.958887 411.990447 
L 387.623149 413.485875 
L 387.13794 414.939696 
L 386.508233 416.337012 
L 386.3609 416.624179 
L 381.753133 425.63072 
L 381.021202 426.90483 
L 380.169207 428.101987 
L 379.205173 429.210914 
L 378.138182 430.221166 
L 376.978283 431.123228 
L 375.736402 431.908602 
L 374.424236 432.56989 
L 373.054146 433.100864 
L 371.639037 433.496523 
L 370.192237 433.753139 
L 368.727376 433.868295 
L 367.25825 433.840907 
L 365.798698 433.671232 
L 364.362469 433.36087 
L 362.963089 432.912742 
L 361.613742 432.331071 
L 360.327136 431.621335 
L 359.929285 431.348456 
L 359.268793 431.510618 
L 357.846575 431.719421 
L 356.410964 431.792403 
L 354.974903 431.728905 
L 353.551336 431.5295 
L 352.153097 431.195986 
L 350.79279 430.731368 
L 349.482678 430.139836 
L 342.209981 426.43089 
L 340.844158 425.642124 
L 339.567806 424.715545 
L 338.394776 423.66121 
L 337.337799 422.49056 
L 336.408345 421.2163 
L 335.616502 419.852259 
L 334.970863 418.413241 
L 334.879367 418.177086 
L 334.412497 416.771564 
L 334.085188 415.32715 
L 333.900573 413.857667 
L 333.860418 412.377178 
L 333.965108 410.899849 
L 334.167959 409.708181 
L 331.847408 409.223013 
L 331.74073 409.200308 
L 322.820247 407.268089 
L 322.440861 407.166058 
L 322.437931 407.165477 
L 321.296907 407.115286 
L 319.84028 406.908269 
L 318.410625 406.560845 
L 317.66511 406.340808 
L 316.203468 405.826744 
L 314.802021 405.165986 
L 313.475444 404.365453 
L 312.237633 403.43353 
L 311.101551 402.379977 
L 310.079096 401.215828 
L 309.180977 399.953275 
L 308.4166 398.605542 
L 307.793971 397.186743 
L 307.31961 395.711738 
L 306.998485 394.195976 
L 306.741688 392.579838 
L 306.578665 391.065938 
L 306.568529 389.543321 
L 306.711383 388.027385 
L 306.781171 387.673249 
L 301.681214 386.507601 
L 300.979811 387.106548 
L 299.76142 387.955641 
L 298.465704 388.681282 
L 297.105129 389.276489 
L 295.970918 389.645135 
L 296.190245 389.904673 
L 297.011361 391.088498 
L 297.716235 392.345011 
L 298.298483 393.662835 
L 298.752832 395.030036 
L 299.075168 396.434234 
L 299.262573 397.862713 
L 299.313348 399.302538 
L 299.227036 400.74067 
L 299.004416 402.164086 
L 298.172145 406.212811 
L 297.7935 407.678795 
L 297.270323 409.099628 
L 296.607848 410.461101 
L 295.8127 411.749596 
L 294.892831 412.952228 
L 293.857442 414.056967 
L 292.716887 415.052767 
L 291.482574 415.929666 
L 290.166848 416.678895 
L 288.782867 417.292961 
L 287.344473 417.765723 
L 285.866051 418.092451 
L 284.362389 418.269879 
L 282.848524 418.296231 
L 281.339598 418.171245 
L 279.850701 417.89617 
L 279.300389 417.765742 
L 279.449538 418.195588 
L 279.796781 419.641118 
L 280.000578 421.113735 
L 280.058965 422.599241 
L 279.971378 424.083311 
L 279.738663 425.551636 
L 279.286618 427.711667 
L 278.911551 429.148394 
L 278.397548 430.54147 
L 277.749553 431.877495 
L 276.973799 433.143617 
L 276.077749 434.327658 
L 275.070021 435.418229 
L 273.960308 436.404838 
L 272.759286 437.277997 
L 271.478507 438.029305 
L 270.130291 438.651537 
L 268.727605 439.138706 
L 267.283944 439.486127 
L 265.813193 439.690458 
L 264.329499 439.749733 
L 262.847135 439.663383 
L 261.380359 439.432237 
L 257.80324 438.687135 
L 256.364461 438.312884 
L 254.969323 437.799329 
L 253.631279 437.15142 
L 252.363229 436.375405 
L 251.177402 435.478766 
L 250.08523 434.470149 
L 249.097244 433.359279 
L 248.222971 432.156867 
L 247.47084 430.874506 
L 246.848105 429.524562 
L 246.360768 428.120051 
L 246.013529 426.674515 
L 245.809737 425.201893 
L 245.751356 423.716383 
L 245.838949 422.232308 
L 246.071671 420.76398 
L 246.523726 418.603951 
L 246.898799 417.16723 
L 247.028056 416.816915 
L 246.417761 416.288396 
L 245.391775 415.205728 
L 244.477302 414.027356 
L 243.683219 412.76472 
L 243.017234 411.430073 
L 242.48581 410.03637 
L 242.094105 408.597139 
L 241.845921 407.126349 
L 241.743668 405.638275 
L 241.788338 404.147361 
L 241.979496 402.668079 
L 242.318728 400.780196 
L 242.675971 399.252003 
L 242.694947 399.197202 
L 241.549397 399.954759 
L 240.244674 400.645232 
L 238.87891 401.205361 
L 237.46509 401.629824 
L 236.016654 401.914583 
L 235.716947 401.94362 
L 236.556272 399.587218 
L 237.124172 398.608874 
L 237.536887 397.835525 
L 238.99653 395.198296 
L 239.640281 393.923361 
L 239.972603 393.26553 
L 240.61484 391.993319 
L 240.84209 391.543511 
L 245.663863 381.738877 
L 245.975443 381.100273 
L 247.222673 378.543438 
L 248.214945 376.447463 
L 248.291553 376.252611 
L 248.689886 375.238234 
L 251.491383 367.798915 
L 252.442323 365.274328 
L 252.990238 363.819529 
L 253.304392 362.984864 
L 253.695155 361.922493 
L 254.480615 359.780189 
L 254.498329 359.73053 
L 254.534968 359.628336 
L 255.144048 357.933721 
L 256.109523 355.246833 
L 256.112703 355.236386 
L 256.154337 355.12208 
L 256.239121 354.884534 
L 256.681813 353.654564 
L 257.639264 350.990235 
L 258.088467 349.737706 
L 258.596715 348.407661 
L 260.139022 344.363174 
L 260.819412 342.577719 
L 262.12932 338.97986 
L 262.276329 338.575472 
L 262.320689 338.471915 
L 262.490106 338.073885 
L 262.561566 337.90568 
L 263.061639 336.727186 
L 263.271479 336.23423 
L 263.845434 334.71009 
L 265.74459 329.661218 
L 266.066617 328.810504 
L 266.307342 328.167056 
L 263.831203 327.266229 
L 263.775639 327.245487 
L 262.070577 326.625657 
L 261.993969 326.839131 
L 260.154768 326.189475 
L 260.570511 325.264273 
L 261.117517 324.047626 
L 261.819103 322.512132 
L 257.968861 320.698062 
L 260.809571 314.690529 
L 262.879163 310.313692 
L 263.56913 308.85453 
L 263.682377 308.614713 
L 263.896002 308.162786 
L 264.0094 307.92312 
L 264.46269 306.963701 
L 264.885398 306.069536 
L 266.612564 302.416113 
L 268.249798 298.953151 
L 268.631477 298.147554 
L 273.088528 300.209465 
L 273.275052 300.292129 
L 273.464756 300.364952 
L 273.657942 300.428389 
L 273.853853 300.482892 
L 274.025691 300.521197 
L 274.199044 300.552839 
L 274.373607 300.577063 
L 274.549685 300.594474 
L 283.825178 301.143449 
L 284.073927 300.367526 
L 284.436529 299.237934 
L 289.393653 283.800328 
L 289.49176 283.494804 
L 289.683583 282.897078 
L 291.338936 277.741864 
L 291.531398 277.493747 
L 291.772021 276.9082 
L 292.469707 275.59445 
L 293.292947 274.355507 
L 293.390613 274.235904 
L 293.221405 273.628429 
L 292.964938 272.164947 
L 292.853155 270.683373 
L 292.887131 269.197977 
L 293.06654 267.723063 
L 293.389654 266.272838 
L 293.853361 264.861267 
L 295.676921 260.110262 
L 295.935154 259.435873 
L 296.531641 258.080607 
L 297.01509 257.22127 
L 297.058457 256.916097 
L 297.411542 255.4702 
L 297.904892 254.065959 
L 298.533741 252.716946 
L 299.292009 251.436197 
L 300.578797 249.488024 
L 301.455851 248.291991 
L 302.445723 247.187513 
L 303.538912 246.185187 
L 304.724927 245.294634 
L 305.992388 244.524399 
L 307.329131 243.881875 
L 308.722327 243.373227 
L 310.158606 243.003336 
L 311.624186 242.775752 
L 313.105002 242.69266 
L 314.586842 242.754856 
L 316.055486 242.961745 
L 317.49684 243.311339 
L 318.897072 243.800285 
L 320.242745 244.42389 
L 321.520944 245.17617 
L 322.887695 246.073491 
L 324.090235 246.950521 
L 325.20085 247.941389 
L 326.063061 248.878171 
L 326.856245 248.15782 
L 328.005633 247.297654 
L 329.231326 246.550221 
L 330.522302 245.92224 
L 331.011896 245.712172 
L 332.387691 245.199336 
L 333.806693 244.822179 
L 335.255555 244.584249 
L 336.720652 244.487782 
L 338.188203 244.533687 
L 339.644406 244.72153 
L 341.075566 245.049547 
L 341.985624 245.305154 
L 342.562997 245.509107 
L 342.527831 245.454195 
L 341.85656 244.139347 
L 341.316538 242.765373 
L 341.175882 242.270534 
L 340.88235 241.450389 
L 340.519325 239.996402 
L 340.301825 238.513648 
L 340.23198 237.016656 
L 340.310474 235.520092 
L 340.53654 234.03862 
L 340.90796 232.586755 
L 341.421098 231.178723 
L 342.070923 229.828319 
L 344.23371 225.85061 
L 344.012093 225.21311 
L 343.651108 223.670523 
L 343.608018 223.430363 
L 343.416006 221.935294 
L 343.373611 220.428541 
L 343.38259 220.014302 
L 343.477727 218.616512 
L 343.701668 217.233501 
L 344.052494 215.877112 
L 344.147538 215.569189 
L 344.557182 214.411025 
L 345.059374 213.289884 
L 345.20119 213.004877 
L 346.02438 211.556299 
L 347.001759 210.206947 
L 347.064824 210.137459 
L 347.323538 209.639687 
L 347.512519 209.311899 
L 348.363533 207.997871 
L 349.345692 206.778748 
L 350.448493 205.667567 
L 350.674902 205.461888 
L 351.931084 204.437912 
L 353.289523 203.554079 
L 353.585043 203.383591 
L 354.74849 202.777983 
L 355.959987 202.275347 
L 356.212709 202.183112 
L 357.749339 201.713073 
L 359.327131 201.408545 
L 360.928313 201.272959 
L 361.182292 201.264986 
L 362.922959 201.310521 
L 363.193741 201.333237 
L 364.430841 201.495327 
L 364.392636 201.392107 
L 364.01601 199.955191 
L 363.782009 198.488284 
L 363.692887 197.005505 
L 363.749501 195.52113 
L 363.824617 194.661881 
L 363.957407 193.149528 
L 364.159677 191.678429 
L 364.505087 190.234221 
L 364.990315 188.830797 
L 365.610693 187.481657 
L 366.360251 186.199781 
L 367.231781 184.997499 
L 368.216898 183.886378 
L 369.306124 182.877106 
L 370.488983 181.979392 
L 371.754095 181.201873 
L 371.811103 181.174127 
L 372.137766 180.26706 
L 372.254807 179.986565 
L 372.854775 178.717665 
L 373.569675 177.509779 
L 374.393363 176.37329 
L 375.318759 175.317965 
L 376.337911 174.352874 
L 377.442058 173.486312 
L 378.62171 172.725728 
L 379.86673 172.077657 
L 381.166416 171.54767 
L 382.549784 171.057036 
L 384.019977 170.6181 
L 385.527045 170.330219 
L 387.055512 170.196349 
L 388.589679 170.217867 
L 390.11379 170.39455 
L 391.612193 170.724585 
L 393.069497 171.204581 
L 394.19874 171.708285 
L 393.789704 171.377204 
L 392.518657 170.239518 
L 391.289977 169.005331 
L 390.211157 167.638211 
L 389.937071 167.246492 
L 389.179914 166.048706 
L 388.538058 164.785377 
L 388.017126 163.467573 
L 387.62168 162.106837 
L 387.355187 160.71509 
L 387.219978 159.304524 
L 387.217241 157.887495 
L 387.346997 156.476416 
L 387.384695 156.205997 
L 387.539755 155.375391 
L 387.250475 154.227865 
L 387.19819 153.969571 
L 386.889392 153.735271 
L 385.790214 152.715026 
L 384.917744 151.820785 
L 384.424352 151.316813 
L 380.06268 147.003329 
L 379.753705 148.43661 
L 379.275401 149.906995 
L 378.649618 151.320927 
L 377.882885 152.663659 
L 376.983197 153.921184 
L 375.95994 155.080388 
L 374.823785 156.129178 
L 373.586584 157.056616 
L 373.334262 157.226356 
L 372.099638 157.973983 
L 370.799431 158.600644 
L 369.445459 159.100646 
L 367.813991 159.616183 
L 367.655051 159.665449 
L 365.488131 160.324081 
L 364.837132 160.52815 
L 364.25807 160.70905 
L 364.228941 160.718117 
L 363.584095 160.918134 
L 362.081636 161.387607 
L 361.316729 161.604743 
L 359.816543 161.988335 
L 358.031296 162.332146 
L 356.640278 162.514255 
L 354.94009 162.640035 
L 353.564828 162.664122 
L 351.796707 162.591656 
L 350.04912 162.313375 
L 348.833268 162.046096 
L 348.681608 162.01194 
L 347.609169 161.764617 
L 346.245887 161.382276 
L 345.005827 160.971047 
L 344.495704 161.508147 
L 343.371357 162.480314 
L 342.1571 163.337547 
L 340.864639 164.071584 
L 339.506429 164.675349 
L 338.76344 164.921635 
L 338.638527 164.977157 
L 337.225881 165.445175 
L 336.005449 165.720128 
L 335.971474 167.381324 
L 335.887225 168.696323 
L 335.688953 169.999015 
L 335.378161 171.279534 
L 335.11091 172.072252 
L 334.942024 173.064396 
L 334.551712 174.49399 
L 334.023508 175.878577 
L 333.36247 177.204892 
L 332.574934 178.460227 
L 331.668443 179.632556 
L 330.651684 180.710648 
L 329.534396 181.684172 
L 328.327285 182.543803 
L 327.041916 183.281303 
L 325.690603 183.889608 
L 324.286294 184.362889 
L 322.842441 184.696612 
L 321.372879 184.887579 
L 319.891687 184.933962 
L 318.413056 184.835315 
L 317.324984 184.708996 
L 316.189401 184.580043 
L 316.066362 184.674468 
L 314.788292 185.46722 
L 314.629543 185.545046 
L 314.250463 185.790581 
L 311.843304 187.195487 
L 310.637363 187.82839 
L 309.379426 188.350361 
L 309.003013 188.468176 
L 308.897553 189.269103 
L 308.560896 190.713827 
L 308.084469 192.118669 
L 307.472846 193.470144 
L 306.731899 194.755275 
L 305.868741 195.961726 
L 304.891659 197.077914 
L 303.810034 198.093124 
L 301.392646 200.148861 
L 301.290465 200.734289 
L 300.891897 202.16809 
L 300.354492 203.555834 
L 299.68344 204.884115 
L 299.066926 205.854195 
L 299.405701 206.195077 
L 300.376627 207.270378 
L 301.240326 208.433559 
L 301.988891 209.673969 
L 302.615467 210.980251 
L 303.114315 212.340441 
L 303.480868 213.742085 
L 303.71177 215.172348 
L 303.804905 216.618132 
L 303.759422 218.0662 
L 303.575736 219.503289 
L 303.25553 220.916242 
L 302.801736 222.292119 
L 302.21851 223.618322 
L 301.511191 224.882706 
L 301.342185 225.153531 
L 301.288728 225.476376 
L 300.292581 231.501022 
L 300.111347 232.59661 
L 299.793591 234.062334 
L 299.332377 235.489427 
L 298.73223 236.863887 
L 297.999041 238.172225 
L 297.140004 239.401602 
L 296.163548 240.539955 
L 295.079256 241.576114 
L 293.897768 242.49991 
L 292.630677 243.302278 
L 291.290417 243.975345 
L 289.890142 244.512506 
L 288.44359 244.908489 
L 287.893747 245.001796 
L 287.823496 245.156017 
L 287.084137 246.432727 
L 286.224023 247.631413 
L 285.251324 248.740691 
L 284.175275 249.750028 
L 283.006096 250.64984 
L 281.842384 251.376915 
L 282.070027 252.249011 
L 282.302376 253.713269 
L 282.390395 255.193233 
L 282.333241 256.67471 
L 282.131461 258.143493 
L 281.786991 259.585499 
L 281.633767 260.029284 
L 281.662251 260.054646 
L 282.664598 261.139914 
L 283.556401 262.317706 
L 284.329168 263.576808 
L 284.975541 264.90523 
L 285.489367 266.290326 
L 285.865752 267.718906 
L 286.084314 269.073271 
L 280.994763 265.340787 
L 280.610057 265.05873 
L 280.459415 264.948057 
L 278.343303 263.39606 
L 276.673366 262.093418 
L 267.538826 255.403981 
L 259.566278 249.436114 
L 255.691509 246.534844 
L 257.780823 246.196163 
L 259.408822 245.93939 
L 260.426227 244.372859 
L 261.672397 244.336523 
L 261.970351 244.330921 
L 264.047098 244.291103 
L 265.052089 244.271875 
L 265.744287 244.258552 
L 265.719306 242.142138 
L 265.714916 241.770452 
L 265.712645 241.57333 
L 265.706437 241.04222 
L 265.704015 240.844946 
L 265.698867 240.403768 
L 265.674189 238.324295 
L 265.246486 238.296438 
L 264.819539 238.258437 
L 264.393652 238.21014 
L 263.969128 238.1517 
L 263.139004 238.011201 
L 262.311151 237.857833 
L 261.485872 237.691597 
L 260.663167 237.512491 
L 260.325698 237.436943 
L 259.990499 237.351099 
L 259.658177 237.255263 
L 259.328883 237.149435 
L 258.946902 237.035128 
L 258.566889 236.914463 
L 258.188996 236.787287 
L 255.284698 235.475562 
L 254.759191 235.567007 
L 250.885936 233.6191 
L 248.101244 232.22032 
L 243.57682 229.805951 
L 242.689922 229.319656 
L 241.955937 228.904519 
L 241.196668 228.470759 
L 240.475703 228.01656 
L 239.74732 227.550098 
L 238.767462 226.93042 
L 237.854826 226.361915 
L 237.18352 225.916194 
L 236.714333 225.592502 
L 233.875894 223.680931 
L 219.575999 214.011511 
L 219.31304 213.268934 
L 218.95649 211.82473 
L 218.876552 211.272473 
L 217.838439 211.263172 
L 216.839934 211.204276 
L 215.403981 211.05058 
L 215.106703 210.989683 
L 214.639977 210.674197 
L 213.364133 209.811219 
L 204.89787 204.086651 
L 204.863101 204.063149 
L 204.410373 203.253657 
L 204.190319 203.393281 
L 204.010672 203.484263 
L 197.621154 199.142396 
M 401.46024 178.527779 
L 402.115038 179.926929 
L 402.623852 181.38552 
L 402.682799 181.633295 
L 402.735826 181.456628 
L 403.300861 180.081399 
L 403.99806 178.768222 
L 404.669369 177.757585 
L 404.269219 177.65063 
L 402.701279 177.038106 
L 402.619883 177.000969 
L 401.328821 176.33532 
L 400.107491 175.549011 
L 398.967135 174.649278 
L 398.578857 174.277292 
L 397.854347 173.986518 
L 397.624554 173.88049 
L 398.695274 174.828647 
L 399.741411 175.965299 
L 400.666276 177.202637 
L 401.46024 178.527779 
M 229.989584 177.6936 
L 231.176852 178.624832 
L 232.094486 179.421539 
L 232.375373 179.690523 
L 233.585262 178.834558 
L 234.874331 178.100414 
L 236.22906 177.49595 
L 237.636442 177.02697 
L 238.479563 176.835211 
L 237.725625 175.996193 
L 236.844418 174.796947 
L 236.085207 173.516981 
L 235.455326 172.168661 
L 234.960862 170.765016 
L 234.615785 169.357112 
L 233.985311 170.292901 
L 233.164805 171.309247 
L 228.393766 176.723466 
L 228.715517 176.885174 
L 229.989584 177.6936 
M 277.095146 314.441681 
L 273.38179 314.222648 
L 271.827661 314.050088 
L 270.299619 313.718149 
L 268.927879 313.267773 
L 269.820405 314.025895 
L 270.858122 315.100507 
L 271.784883 316.272156 
L 272.591667 317.529435 
L 273.046127 318.321042 
L 273.736472 319.677121 
L 274.287206 321.095648 
L 274.692765 322.562293 
L 274.949052 324.062241 
L 275.053479 325.580339 
L 275.004991 327.101252 
L 274.804076 328.609615 
L 274.452765 330.090192 
L 273.954607 331.528026 
L 273.479687 332.552537 
L 273.715122 333.196828 
L 274.078391 334.58873 
L 274.307917 336.008826 
L 274.401629 337.444296 
L 274.358681 338.88218 
L 274.17946 340.309497 
L 273.865584 341.713362 
L 273.416724 343.351206 
L 272.962191 344.742183 
L 272.375493 346.082781 
L 271.662111 347.360476 
L 270.828709 348.563331 
L 270.325305 349.157841 
L 268.819442 352.41083 
L 268.130765 353.725385 
L 267.316698 354.966202 
L 266.385063 356.121359 
L 265.34481 357.179757 
L 264.571338 357.825951 
L 264.657347 358.547325 
L 264.686704 360.046656 
L 264.567591 361.541536 
L 264.355015 362.719064 
L 264.956854 362.566471 
L 266.397142 362.345795 
L 267.851974 362.264597 
L 269.307874 362.323629 
L 270.751357 362.522343 
L 272.169051 362.858899 
L 273.547827 363.33018 
L 274.412657 363.6731 
L 274.418646 363.675371 
L 275.998207 357.377255 
L 276.028247 357.259483 
L 276.355838 355.996355 
L 276.817863 354.526986 
L 277.426793 353.112166 
L 277.648927 352.713369 
L 278.417185 349.394478 
L 278.432376 349.329504 
L 278.781049 347.852878 
L 278.924478 347.246085 
L 279.327225 345.846663 
L 279.862557 344.492407 
L 280.525519 343.195847 
L 281.309978 341.968976 
L 282.208678 340.823146 
L 283.213304 339.768957 
L 284.314562 338.816162 
L 285.502264 337.973575 
L 286.765421 337.248992 
L 288.092349 336.649115 
L 289.47077 336.179495 
L 290.887933 335.844476 
L 292.330726 335.647158 
L 293.785803 335.589365 
L 295.239701 335.671634 
L 296.67897 335.893202 
L 298.216858 336.206319 
L 298.319233 336.227531 
L 298.320178 336.22773 
L 298.398302 335.901827 
L 298.894204 334.477117 
L 299.529426 333.108831 
L 300.297661 331.810551 
L 301.191283 330.595169 
L 302.20142 329.47475 
L 303.032152 328.720119 
L 298.974077 328.017526 
L 296.880145 327.499029 
L 296.507668 327.378054 
L 295.283527 326.921189 
L 294.103337 326.360478 
L 292.975887 325.700096 
L 291.909576 324.944962 
L 291.69936 324.782029 
L 290.158103 323.409471 
L 289.777069 323.020444 
L 288.779023 321.894628 
L 287.897644 320.675315 
L 287.141635 319.374544 
L 286.51846 318.005162 
L 286.35479 317.592222 
L 285.869101 316.162478 
L 285.528247 314.691464 
L 285.335618 313.193814 
L 285.317589 312.553351 
L 284.522577 312.984482 
L 283.111465 313.574198 
L 281.648058 314.018542 
L 280.147289 314.312981 
L 278.624471 314.454508 
L 277.095146 314.441681 
M 355.707654 377.029675 
L 354.455972 377.470872 
L 354.506759 377.510903 
L 355.572784 378.534639 
L 356.53391 379.65744 
L 356.59901 379.750522 
L 356.432432 378.314164 
L 356.431672 378.267734 
L 356.424643 378.238334 
L 356.224106 376.806266 
L 356.223309 376.787977 
L 355.707654 377.029675 
M 342.587319 329.632913 
L 341.416179 328.788414 
L 340.152876 328.571653 
L 338.702084 328.248701 
L 337.289949 327.785051 
L 335.930081 327.185171 
L 334.783982 326.538567 
L 334.439892 326.773145 
L 333.111127 327.496294 
L 331.716828 328.083227 
L 330.270915 328.528085 
L 329.842131 328.614339 
L 330.996812 329.493448 
L 332.087595 330.507887 
L 332.669404 331.166952 
L 333.454619 330.792972 
L 334.881107 330.281375 
L 336.351592 329.914949 
L 337.851343 329.697364 
L 339.365333 329.6308 
L 340.878393 329.715924 
L 342.375363 329.951884 
L 343.566321 330.201259 
L 342.587319 329.632913 
M 510.295557 360.720384 
L 511.544813 361.663832 
L 512.689968 362.731238 
L 513.718778 363.91119 
L 514.620243 365.191071 
L 514.929568 365.743833 
L 515.149075 365.617454 
L 516.526619 364.915444 
L 517.362034 364.592243 
L 516.455546 364.064674 
L 515.248327 363.19282 
L 514.132598 362.206589 
L 513.119152 361.115521 
L 512.217793 359.930171 
L 511.43724 358.662006 
L 510.785046 357.323295 
L 510.26752 355.926989 
L 509.889668 354.486596 
L 509.655146 353.016051 
L 509.566222 351.52958 
L 509.623757 350.041563 
L 509.827195 348.566397 
L 510.882532 342.965591 
L 511.23003 341.517114 
L 511.718185 340.109795 
L 512.342271 338.757258 
L 512.652954 338.227901 
L 507.361053 339.949812 
L 505.912556 340.342899 
L 504.432256 340.590636 
L 503.728778 340.637588 
L 503.788022 341.033238 
L 503.8018 341.311054 
L 503.883534 341.606515 
L 504.204863 343.032905 
L 504.387101 344.483639 
L 504.428549 345.945187 
L 504.32882 347.403917 
L 504.088844 348.846225 
L 503.710859 350.258658 
L 503.198391 351.628044 
L 502.556219 352.94161 
L 501.790332 354.187105 
L 500.907874 355.352912 
L 499.917075 356.42816 
L 498.896879 357.340486 
L 499.073622 357.364043 
L 504.538282 358.365872 
L 506.061448 358.727397 
L 507.539139 359.244275 
L 508.955557 359.91098 
L 510.295557 360.720384 
" clip-path="url(#peac421dace)" style="fill: #ff0000; fill-opacity: 0.7; stroke: #000000; stroke-opacity: 0.7; stroke-width: 0.5"/>
    <path d="M 256.042302 453.665772 
L 256.002635 453.705288 
L 252.636872 450.328321 
L 252.676538 450.288805 
L 247.332437 444.926688 
L 247.219645 444.957119 
L 246.872031 444.608295 
L 244.472349 442.200588 
L 240.945799 438.662077 
L 239.765185 437.583507 
L 237.053024 435.223178 
L 237.523669 435.052393 
L 238.960885 434.685288 
L 240.427127 434.460588 
L 241.908321 434.380452 
L 243.390248 434.445649 
L 244.858682 434.655552 
L 246.299526 435.008147 
L 247.698951 435.50005 
L 249.043522 436.126537 
L 250.320331 436.881596 
L 251.517124 437.757978 
L 252.62241 438.74727 
L 253.62558 439.839976 
L 254.334715 440.692742 
L 255.22884 441.882359 
L 256.001855 443.154009 
L 256.64629 444.495408 
L 257.155921 445.893594 
L 257.525821 447.335058 
L 257.752419 448.805875 
L 257.833524 450.291832 
L 257.768353 451.778573 
L 257.557535 453.251734 
L 257.203107 454.697081 
L 257.16703 454.799457 
L 256.042302 453.665772 
" clip-path="url(#peac421dace)" style="fill: #ff0000; fill-opacity: 0.7; stroke: #000000; stroke-opacity: 0.7; stroke-width: 0.5"/>
    <path d="M 437.753852 606.12905 
L 433.157059 602.302427 
L 433.124659 602.339671 
L 432.504527 601.828243 
L 432.53405 601.790999 
L 432.500742 601.763444 
L 430.322405 599.958005 
L 430.265933 599.975113 
L 429.68471 599.496236 
L 429.711205 599.454298 
L 429.504394 599.268834 
L 429.468663 599.311983 
L 428.608714 598.602222 
L 428.635209 598.560435 
L 428.453529 598.402526 
L 428.424006 598.43977 
L 427.805539 597.92698 
L 427.83809 597.886707 
L 425.661722 596.09338 
L 425.605704 596.109428 
L 425.006313 595.621165 
L 425.019485 595.572868 
L 424.352873 595.02465 
L 422.930777 593.855089 
L 412.802147 585.524632 
L 412.383376 585.154157 
L 411.964756 584.783531 
L 410.425174 583.826383 
L 408.541825 582.665604 
L 408.575526 582.642451 
L 409.845905 581.85895 
L 411.187258 581.204342 
L 412.586548 580.684992 
L 414.030176 580.305945 
L 415.504112 580.070887 
L 416.99403 579.9821 
L 418.48545 580.04045 
L 419.963877 580.245367 
L 421.414943 580.594861 
L 422.824545 581.085535 
L 424.178983 581.71262 
L 425.465093 582.470022 
L 427.023142 583.494232 
L 427.978259 584.190249 
L 428.104511 584.236861 
L 429.438186 584.883762 
L 429.569104 584.96395 
L 429.575897 584.18114 
L 429.73474 582.70198 
L 430.037984 581.24555 
L 430.482701 579.825912 
L 431.064598 578.456773 
L 431.778056 577.151352 
L 432.779675 575.515209 
L 433.61551 574.289145 
L 434.567353 573.150792 
L 435.626061 572.111084 
L 436.781462 571.180008 
L 438.022459 570.366509 
L 439.337131 569.678402 
L 440.712849 569.122295 
L 442.136397 568.703531 
L 443.594102 568.426132 
L 445.071961 568.292764 
L 446.555778 568.304706 
L 448.031298 568.461846 
L 449.484349 568.762672 
L 450.900973 569.204296 
L 452.267561 569.782475 
L 453.570986 570.491655 
L 457.170257 572.685129 
L 458.401035 573.520785 
L 459.543859 574.473198 
L 460.587695 575.533172 
L 461.522463 576.690472 
L 462.339138 577.933926 
L 463.029836 579.251527 
L 463.587888 580.630554 
L 464.007906 582.057691 
L 464.285833 583.519161 
L 464.418988 585.000851 
L 464.406083 586.488456 
L 464.247245 587.967614 
L 463.944005 589.424042 
L 463.499293 590.843678 
L 462.917402 592.212816 
L 462.203951 593.518237 
L 461.202338 595.154385 
L 460.366504 596.380455 
L 459.414663 597.518814 
L 458.355956 598.558528 
L 457.200554 599.489609 
L 455.959556 600.303113 
L 454.644883 600.991226 
L 453.269163 601.547337 
L 451.845611 601.966105 
L 450.387903 602.243506 
L 448.91004 602.376877 
L 447.42622 602.364936 
L 445.950695 602.207797 
L 444.497641 601.906971 
L 443.081013 601.465347 
L 441.714421 600.887166 
L 440.410993 600.177984 
L 439.833778 599.826217 
L 439.857538 600.355279 
L 439.779865 601.829232 
L 439.559035 603.288617 
L 439.197149 604.719563 
L 438.697644 606.108471 
L 438.42354 606.686553 
L 437.753852 606.12905 
" clip-path="url(#peac421dace)" style="fill: #ff0000; fill-opacity: 0.7; stroke: #000000; stroke-opacity: 0.7; stroke-width: 0.5"/>
    <path d="M 503.394184 501.622486 
L 502.14756 505.81474 
L 500.154688 510.681781 
L 499.616766 511.988662 
L 503.055806 513.602732 
L 501.479055 517.443875 
L 501.446732 517.522618 
L 501.357103 517.738817 
L 498.916269 523.64958 
L 498.642611 523.796667 
L 497.306087 524.357662 
L 495.922039 524.788275 
L 494.503156 525.084558 
L 493.062441 525.243797 
L 491.726838 525.262904 
L 491.271123 525.504037 
L 489.825857 526.087486 
L 488.328266 526.519257 
L 486.79422 526.794774 
L 485.239977 526.911117 
L 484.524165 526.927742 
L 483.181918 526.899373 
L 481.847461 526.752208 
L 480.531289 526.487405 
L 479.24375 526.107044 
L 475.637656 524.865422 
L 474.227116 524.299058 
L 472.880474 523.594114 
L 471.611304 522.757696 
L 470.432397 521.798233 
L 469.355636 520.725397 
L 468.391875 519.550001 
L 467.550829 518.283892 
L 466.840973 516.939833 
L 466.269463 515.53137 
L 465.84206 514.072701 
L 465.563071 512.578527 
L 465.435309 511.063909 
L 465.445196 510.456878 
L 464.897277 509.196601 
L 464.445401 507.801307 
L 464.130652 506.368836 
L 463.955983 504.912633 
L 463.923034 503.446361 
L 464.032114 501.983782 
L 464.282199 500.538619 
L 464.670943 499.124435 
L 465.194696 497.754501 
L 465.848546 496.441673 
L 466.626355 495.198269 
L 467.520824 494.03596 
L 468.523559 492.965652 
L 469.335059 492.17951 
L 470.455146 491.196539 
L 471.666445 490.328448 
L 472.957219 489.583647 
L 474.314963 488.969353 
L 475.726523 488.491517 
L 477.178221 488.154769 
L 478.655992 487.962372 
L 478.973132 487.952539 
L 479.96203 487.590557 
L 481.39647 487.219701 
L 482.860289 486.990827 
L 484.339471 486.906128 
L 485.819848 486.966415 
L 487.287244 487.17111 
L 488.727606 487.518253 
L 490.12714 488.004519 
L 491.472444 488.625252 
L 492.750633 489.374508 
L 493.949467 490.24511 
L 496.697731 492.454143 
L 501.940444 496.215883 
L 503.123842 497.157992 
L 504.207326 498.213484 
L 504.349634 498.382942 
L 503.394184 501.622486 
" clip-path="url(#peac421dace)" style="fill: #ff0000; fill-opacity: 0.7; stroke: #000000; stroke-opacity: 0.7; stroke-width: 0.5"/>
    <path d="M 476.711831 186.683576 
L 478.084856 188.866903 
L 477.127589 187.806047 
L 476.267777 186.648411 
L 475.522 185.414226 
L 474.873732 184.215958 
L 474.222228 182.853393 
L 474.113396 182.551704 
L 476.711831 186.683576 
" clip-path="url(#peac421dace)" style="fill: #ff0000; fill-opacity: 0.7; stroke: #000000; stroke-opacity: 0.7; stroke-width: 0.5"/>
    <path d="M 459.389604 157.509484 
L 459.302028 157.459511 
L 458.102436 156.610989 
L 456.990746 155.650178 
L 455.97743 154.586128 
L 455.072033 153.428861 
L 454.283081 152.189278 
L 453.735213 151.228524 
L 453.167185 150.235243 
L 452.741077 149.498122 
L 452.62437 149.292544 
L 452.345371 148.79203 
L 451.645975 147.566093 
L 451.281612 146.926363 
L 450.007773 144.694438 
L 449.675757 144.112108 
L 448.975273 142.882333 
L 448.96041 142.85674 
L 448.903602 142.758059 
L 448.152144 141.441299 
L 447.481678 140.12022 
L 446.943537 138.739938 
L 446.542875 137.31367 
L 446.485725 136.992256 
L 459.389604 157.509484 
" clip-path="url(#peac421dace)" style="fill: #ff0000; fill-opacity: 0.7; stroke: #000000; stroke-opacity: 0.7; stroke-width: 0.5"/>
    <path d="M 346.788766 480.477842 
L 347.756043 481.615746 
L 348.606502 482.843414 
L 349.331869 484.1489 
L 349.925084 485.5195 
L 350.380376 486.941878 
L 350.693315 488.402193 
L 350.860854 489.886235 
L 350.881365 491.379563 
L 350.754646 492.867647 
L 350.481932 494.336005 
L 350.065876 495.770351 
L 349.510527 497.156726 
L 348.821288 498.481641 
L 348.591765 498.874248 
L 347.799791 500.091019 
L 346.894914 501.226338 
L 345.885454 502.269767 
L 344.780693 503.211709 
L 343.590789 504.043504 
L 342.326685 504.757503 
L 341.000005 505.347141 
L 339.622947 505.806995 
L 338.208175 506.132836 
L 336.768698 506.32167 
L 335.317752 506.371759 
L 333.868679 506.282642 
L 332.434805 506.055139 
L 331.029313 505.691343 
L 329.66513 505.194598 
L 328.354797 504.569472 
L 327.110366 503.821713 
L 325.643183 502.841405 
L 324.414444 501.927256 
L 323.284344 500.893648 
L 322.264447 499.751159 
L 321.36519 498.511479 
L 320.595774 497.187292 
L 319.964072 495.792149 
L 319.955291 495.765999 
L 319.455493 495.958419 
L 318.024707 496.353517 
L 316.562108 496.606609 
L 315.081756 496.715263 
L 313.597878 496.678434 
L 312.124738 496.496476 
L 310.676495 496.171138 
L 309.267072 495.705547 
L 307.910014 495.104179 
L 306.618365 494.372814 
L 303.994181 492.711984 
L 302.777695 491.855575 
L 301.651135 490.883908 
L 300.625377 489.806366 
L 299.710327 488.633354 
L 298.914821 487.376196 
L 298.246538 486.047034 
L 297.711933 484.658699 
L 297.316167 483.224599 
L 297.063062 481.75858 
L 296.95506 480.274797 
L 296.993207 478.787578 
L 297.177132 477.311284 
L 297.50506 475.860168 
L 297.973825 474.448242 
L 298.5789 473.08914 
L 299.314443 471.795984 
L 300.17971 470.435024 
L 301.035948 469.223711 
L 302.006616 468.102004 
L 303.082395 467.080671 
L 304.252959 466.169516 
L 305.50707 465.377286 
L 306.832689 464.711587 
L 308.217092 464.178808 
L 309.646987 463.784065 
L 311.108649 463.531147 
L 312.588045 463.422481 
L 314.070975 463.459111 
L 315.543203 463.640685 
L 316.990595 463.965461 
L 318.399257 464.430319 
L 319.755666 465.030799 
L 321.046802 465.761135 
L 323.67102 467.420279 
L 324.887845 468.276077 
L 326.014808 469.247163 
L 327.041029 470.324162 
L 327.956598 471.496675 
L 328.752677 472.753382 
L 329.42158 474.08215 
L 329.823329 475.123923 
L 330.679227 474.855672 
L 332.122734 474.553623 
L 333.58878 474.393452 
L 335.063455 474.376677 
L 336.532765 474.503457 
L 337.98277 474.772591 
L 339.39971 475.181524 
L 340.770142 475.726377 
L 342.081061 476.401978 
L 343.32003 477.201918 
L 344.475291 478.118607 
L 345.535883 479.143346 
L 346.788766 480.477842 
" clip-path="url(#peac421dace)" style="fill: #ff0000; fill-opacity: 0.7; stroke: #000000; stroke-opacity: 0.7; stroke-width: 0.5"/>
    <path d="M 428.980036 240.4082 
L 428.763101 238.936959 
L 428.691554 237.451533 
L 428.766084 235.966253 
L 428.985973 234.495451 
L 429.349099 233.053317 
L 429.851958 231.653766 
L 430.489698 230.310302 
L 431.256167 229.035886 
L 432.143969 227.842815 
L 433.144538 226.742601 
L 434.24822 225.745858 
L 435.444367 224.862204 
L 436.721436 224.100164 
L 438.014784 223.491708 
L 438.049689 223.224567 
L 438.366569 221.834503 
L 438.812801 220.480409 
L 439.384427 219.174295 
L 440.076378 217.927742 
L 440.495853 217.249431 
L 441.364717 215.991236 
L 442.356057 214.827096 
L 443.459764 213.768885 
L 444.664578 212.827396 
L 445.958211 212.012232 
L 447.327469 211.331708 
L 448.739222 210.716894 
L 449.280961 210.49334 
L 455.643631 208.010723 
L 457.768776 207.182206 
L 459.171178 206.712978 
L 460.612669 206.382807 
L 462.079494 206.194843 
L 463.55766 206.150879 
L 465.033063 206.251335 
L 466.491628 206.495252 
L 467.919439 206.880303 
L 469.302872 207.402815 
L 470.62873 208.057802 
L 471.884363 208.839015 
L 472.506066 209.315844 
L 472.632427 209.360817 
L 473.974761 209.9927 
L 475.248804 210.752932 
L 476.442321 211.634212 
L 477.543851 212.628077 
L 478.542817 213.724984 
L 479.429625 214.9144 
L 480.19576 216.184902 
L 480.833864 217.52429 
L 482.380742 221.228508 
L 482.885945 222.62802 
L 483.251335 224.070363 
L 483.473382 225.541607 
L 483.549943 227.027542 
L 483.493273 228.236556 
L 483.851037 229.142931 
L 484.330382 230.558148 
L 484.667892 232.013723 
L 484.86028 233.495477 
L 484.905672 234.98898 
L 484.803626 236.479683 
L 484.555135 237.953068 
L 484.16262 239.394783 
L 483.629905 240.790786 
L 483.536504 240.977761 
L 484.121651 242.260858 
L 485.044893 244.578631 
L 485.514517 245.943556 
L 485.852022 247.347 
L 486.054339 248.776208 
L 486.11963 250.218187 
L 486.047301 251.65983 
L 485.838009 253.088032 
L 485.493657 254.489813 
L 485.017376 255.852429 
L 484.413493 257.163494 
L 483.6875 258.411091 
L 482.845994 259.58388 
L 481.896625 260.6712 
L 480.848022 261.663168 
L 479.709719 262.550766 
L 478.49206 263.325926 
L 477.206115 263.981603 
L 475.00003 264.976935 
L 473.605528 265.524771 
L 472.163707 265.932094 
L 470.688686 266.194914 
L 469.194911 266.310657 
L 467.697011 266.27819 
L 466.209654 266.097832 
L 464.747406 265.771348 
L 463.324588 265.301936 
L 461.955133 264.694192 
L 461.211004 264.271412 
L 460.64649 264.684784 
L 459.366482 265.441318 
L 458.01844 266.068648 
L 456.897782 266.524634 
L 455.496814 267.016085 
L 454.054446 267.367955 
L 452.58455 267.576861 
L 451.10126 267.640793 
L 449.61884 267.559138 
L 448.151545 267.332679 
L 446.713486 266.963596 
L 445.318491 266.455436 
L 443.979975 265.813087 
L 442.71081 265.042726 
L 441.5232 264.15176 
L 440.428565 263.148758 
L 439.437433 262.043365 
L 438.559334 260.84621 
L 437.802713 259.568806 
L 437.174844 258.223437 
L 436.913257 257.582676 
L 436.419552 256.180172 
L 436.065799 254.736006 
L 435.855409 253.264104 
L 435.790412 251.778663 
L 435.833657 250.986237 
L 435.784176 250.956513 
L 434.592264 250.070813 
L 433.492852 249.072608 
L 432.496518 247.971502 
L 431.612845 246.778086 
L 430.850335 245.503843 
L 430.216323 244.161029 
L 429.840313 243.251618 
L 429.340265 241.85106 
L 428.980036 240.4082 
" clip-path="url(#peac421dace)" style="fill: #ff0000; fill-opacity: 0.7; stroke: #000000; stroke-opacity: 0.7; stroke-width: 0.5"/>
   </g>
   <g id="matplotlib.axis_1">
    <g id="xtick_1">
     <g id="line2d_1">
      <defs>
       <path id="mf1697d503f" d="M 0 0 
L 0 3.5 
" style="stroke: #000000; stroke-width: 0.8"/>
      </defs>
      <g>
       <use xlink:href="#mf1697d503f" x="228.422634" y="640.8" style="stroke: #000000; stroke-width: 0.8"/>
      </g>
     </g>
     <g id="text_1">
      <!-- 393000 -->
      <g transform="translate(209.335134 655.398438) scale(0.1 -0.1)">
       <defs>
        <path id="DejaVuSans-33" d="M 2597 2516 
Q 3050 2419 3304 2112 
Q 3559 1806 3559 1356 
Q 3559 666 3084 287 
Q 2609 -91 1734 -91 
Q 1441 -91 1130 -33 
Q 819 25 488 141 
L 488 750 
Q 750 597 1062 519 
Q 1375 441 1716 441 
Q 2309 441 2620 675 
Q 2931 909 2931 1356 
Q 2931 1769 2642 2001 
Q 2353 2234 1838 2234 
L 1294 2234 
L 1294 2753 
L 1863 2753 
Q 2328 2753 2575 2939 
Q 2822 3125 2822 3475 
Q 2822 3834 2567 4026 
Q 2313 4219 1838 4219 
Q 1578 4219 1281 4162 
Q 984 4106 628 3988 
L 628 4550 
Q 988 4650 1302 4700 
Q 1616 4750 1894 4750 
Q 2613 4750 3031 4423 
Q 3450 4097 3450 3541 
Q 3450 3153 3228 2886 
Q 3006 2619 2597 2516 
z
" transform="scale(0.015625)"/>
        <path id="DejaVuSans-39" d="M 703 97 
L 703 672 
Q 941 559 1184 500 
Q 1428 441 1663 441 
Q 2288 441 2617 861 
Q 2947 1281 2994 2138 
Q 2813 1869 2534 1725 
Q 2256 1581 1919 1581 
Q 1219 1581 811 2004 
Q 403 2428 403 3163 
Q 403 3881 828 4315 
Q 1253 4750 1959 4750 
Q 2769 4750 3195 4129 
Q 3622 3509 3622 2328 
Q 3622 1225 3098 567 
Q 2575 -91 1691 -91 
Q 1453 -91 1209 -44 
Q 966 3 703 97 
z
M 1959 2075 
Q 2384 2075 2632 2365 
Q 2881 2656 2881 3163 
Q 2881 3666 2632 3958 
Q 2384 4250 1959 4250 
Q 1534 4250 1286 3958 
Q 1038 3666 1038 3163 
Q 1038 2656 1286 2365 
Q 1534 2075 1959 2075 
z
" transform="scale(0.015625)"/>
        <path id="DejaVuSans-30" d="M 2034 4250 
Q 1547 4250 1301 3770 
Q 1056 3291 1056 2328 
Q 1056 1369 1301 889 
Q 1547 409 2034 409 
Q 2525 409 2770 889 
Q 3016 1369 3016 2328 
Q 3016 3291 2770 3770 
Q 2525 4250 2034 4250 
z
M 2034 4750 
Q 2819 4750 3233 4129 
Q 3647 3509 3647 2328 
Q 3647 1150 3233 529 
Q 2819 -91 2034 -91 
Q 1250 -91 836 529 
Q 422 1150 422 2328 
Q 422 3509 836 4129 
Q 1250 4750 2034 4750 
z
" transform="scale(0.015625)"/>
       </defs>
       <use xlink:href="#DejaVuSans-33"/>
       <use xlink:href="#DejaVuSans-39" x="63.623047"/>
       <use xlink:href="#DejaVuSans-33" x="127.246094"/>
       <use xlink:href="#DejaVuSans-30" x="190.869141"/>
       <use xlink:href="#DejaVuSans-30" x="254.492188"/>
       <use xlink:href="#DejaVuSans-30" x="318.115234"/>
      </g>
     </g>
    </g>
    <g id="xtick_2">
     <g id="line2d_2">
      <g>
       <use xlink:href="#mf1697d503f" x="304.122407" y="640.8" style="stroke: #000000; stroke-width: 0.8"/>
      </g>
     </g>
     <g id="text_2">
      <!-- 393500 -->
      <g transform="translate(285.034907 655.398438) scale(0.1 -0.1)">
       <defs>
        <path id="DejaVuSans-35" d="M 691 4666 
L 3169 4666 
L 3169 4134 
L 1269 4134 
L 1269 2991 
Q 1406 3038 1543 3061 
Q 1681 3084 1819 3084 
Q 2600 3084 3056 2656 
Q 3513 2228 3513 1497 
Q 3513 744 3044 326 
Q 2575 -91 1722 -91 
Q 1428 -91 1123 -41 
Q 819 9 494 109 
L 494 744 
Q 775 591 1075 516 
Q 1375 441 1709 441 
Q 2250 441 2565 725 
Q 2881 1009 2881 1497 
Q 2881 1984 2565 2268 
Q 2250 2553 1709 2553 
Q 1456 2553 1204 2497 
Q 953 2441 691 2322 
L 691 4666 
z
" transform="scale(0.015625)"/>
       </defs>
       <use xlink:href="#DejaVuSans-33"/>
       <use xlink:href="#DejaVuSans-39" x="63.623047"/>
       <use xlink:href="#DejaVuSans-33" x="127.246094"/>
       <use xlink:href="#DejaVuSans-35" x="190.869141"/>
       <use xlink:href="#DejaVuSans-30" x="254.492188"/>
       <use xlink:href="#DejaVuSans-30" x="318.115234"/>
      </g>
     </g>
    </g>
    <g id="xtick_3">
     <g id="line2d_3">
      <g>
       <use xlink:href="#mf1697d503f" x="379.822179" y="640.8" style="stroke: #000000; stroke-width: 0.8"/>
      </g>
     </g>
     <g id="text_3">
      <!-- 394000 -->
      <g transform="translate(360.734679 655.398438) scale(0.1 -0.1)">
       <defs>
        <path id="DejaVuSans-34" d="M 2419 4116 
L 825 1625 
L 2419 1625 
L 2419 4116 
z
M 2253 4666 
L 3047 4666 
L 3047 1625 
L 3713 1625 
L 3713 1100 
L 3047 1100 
L 3047 0 
L 2419 0 
L 2419 1100 
L 313 1100 
L 313 1709 
L 2253 4666 
z
" transform="scale(0.015625)"/>
       </defs>
       <use xlink:href="#DejaVuSans-33"/>
       <use xlink:href="#DejaVuSans-39" x="63.623047"/>
       <use xlink:href="#DejaVuSans-34" x="127.246094"/>
       <use xlink:href="#DejaVuSans-30" x="190.869141"/>
       <use xlink:href="#DejaVuSans-30" x="254.492188"/>
       <use xlink:href="#DejaVuSans-30" x="318.115234"/>
      </g>
     </g>
    </g>
    <g id="xtick_4">
     <g id="line2d_4">
      <g>
       <use xlink:href="#mf1697d503f" x="455.521951" y="640.8" style="stroke: #000000; stroke-width: 0.8"/>
      </g>
     </g>
     <g id="text_4">
      <!-- 394500 -->
      <g transform="translate(436.434451 655.398438) scale(0.1 -0.1)">
       <use xlink:href="#DejaVuSans-33"/>
       <use xlink:href="#DejaVuSans-39" x="63.623047"/>
       <use xlink:href="#DejaVuSans-34" x="127.246094"/>
       <use xlink:href="#DejaVuSans-35" x="190.869141"/>
       <use xlink:href="#DejaVuSans-30" x="254.492188"/>
       <use xlink:href="#DejaVuSans-30" x="318.115234"/>
      </g>
     </g>
    </g>
    <g id="xtick_5">
     <g id="line2d_5">
      <g>
       <use xlink:href="#mf1697d503f" x="531.221723" y="640.8" style="stroke: #000000; stroke-width: 0.8"/>
      </g>
     </g>
     <g id="text_5">
      <!-- 395000 -->
      <g transform="translate(512.134223 655.398438) scale(0.1 -0.1)">
       <use xlink:href="#DejaVuSans-33"/>
       <use xlink:href="#DejaVuSans-39" x="63.623047"/>
       <use xlink:href="#DejaVuSans-35" x="127.246094"/>
       <use xlink:href="#DejaVuSans-30" x="190.869141"/>
       <use xlink:href="#DejaVuSans-30" x="254.492188"/>
       <use xlink:href="#DejaVuSans-30" x="318.115234"/>
      </g>
     </g>
    </g>
   </g>
   <g id="matplotlib.axis_2">
    <g id="ytick_1">
     <g id="line2d_6">
      <defs>
       <path id="mf99ed1c548" d="M 0 0 
L -3.5 0 
" style="stroke: #000000; stroke-width: 0.8"/>
      </defs>
      <g>
       <use xlink:href="#mf99ed1c548" x="180.008132" y="602.621577" style="stroke: #000000; stroke-width: 0.8"/>
      </g>
     </g>
     <g id="text_6">
      <!-- 5.8180 -->
      <g transform="translate(138.017507 606.420796) scale(0.1 -0.1)">
       <defs>
        <path id="DejaVuSans-2e" d="M 684 794 
L 1344 794 
L 1344 0 
L 684 0 
L 684 794 
z
" transform="scale(0.015625)"/>
        <path id="DejaVuSans-38" d="M 2034 2216 
Q 1584 2216 1326 1975 
Q 1069 1734 1069 1313 
Q 1069 891 1326 650 
Q 1584 409 2034 409 
Q 2484 409 2743 651 
Q 3003 894 3003 1313 
Q 3003 1734 2745 1975 
Q 2488 2216 2034 2216 
z
M 1403 2484 
Q 997 2584 770 2862 
Q 544 3141 544 3541 
Q 544 4100 942 4425 
Q 1341 4750 2034 4750 
Q 2731 4750 3128 4425 
Q 3525 4100 3525 3541 
Q 3525 3141 3298 2862 
Q 3072 2584 2669 2484 
Q 3125 2378 3379 2068 
Q 3634 1759 3634 1313 
Q 3634 634 3220 271 
Q 2806 -91 2034 -91 
Q 1263 -91 848 271 
Q 434 634 434 1313 
Q 434 1759 690 2068 
Q 947 2378 1403 2484 
z
M 1172 3481 
Q 1172 3119 1398 2916 
Q 1625 2713 2034 2713 
Q 2441 2713 2670 2916 
Q 2900 3119 2900 3481 
Q 2900 3844 2670 4047 
Q 2441 4250 2034 4250 
Q 1625 4250 1398 4047 
Q 1172 3844 1172 3481 
z
" transform="scale(0.015625)"/>
        <path id="DejaVuSans-31" d="M 794 531 
L 1825 531 
L 1825 4091 
L 703 3866 
L 703 4441 
L 1819 4666 
L 2450 4666 
L 2450 531 
L 3481 531 
L 3481 0 
L 794 0 
L 794 531 
z
" transform="scale(0.015625)"/>
       </defs>
       <use xlink:href="#DejaVuSans-35"/>
       <use xlink:href="#DejaVuSans-2e" x="63.623047"/>
       <use xlink:href="#DejaVuSans-38" x="95.410156"/>
       <use xlink:href="#DejaVuSans-31" x="159.033203"/>
       <use xlink:href="#DejaVuSans-38" x="222.65625"/>
       <use xlink:href="#DejaVuSans-30" x="286.279297"/>
      </g>
     </g>
    </g>
    <g id="ytick_2">
     <g id="line2d_7">
      <g>
       <use xlink:href="#mf99ed1c548" x="180.008132" y="526.921805" style="stroke: #000000; stroke-width: 0.8"/>
      </g>
     </g>
     <g id="text_7">
      <!-- 5.8185 -->
      <g transform="translate(138.017507 530.721023) scale(0.1 -0.1)">
       <use xlink:href="#DejaVuSans-35"/>
       <use xlink:href="#DejaVuSans-2e" x="63.623047"/>
       <use xlink:href="#DejaVuSans-38" x="95.410156"/>
       <use xlink:href="#DejaVuSans-31" x="159.033203"/>
       <use xlink:href="#DejaVuSans-38" x="222.65625"/>
       <use xlink:href="#DejaVuSans-35" x="286.279297"/>
      </g>
     </g>
    </g>
    <g id="ytick_3">
     <g id="line2d_8">
      <g>
       <use xlink:href="#mf99ed1c548" x="180.008132" y="451.222032" style="stroke: #000000; stroke-width: 0.8"/>
      </g>
     </g>
     <g id="text_8">
      <!-- 5.8190 -->
      <g transform="translate(138.017507 455.021251) scale(0.1 -0.1)">
       <use xlink:href="#DejaVuSans-35"/>
       <use xlink:href="#DejaVuSans-2e" x="63.623047"/>
       <use xlink:href="#DejaVuSans-38" x="95.410156"/>
       <use xlink:href="#DejaVuSans-31" x="159.033203"/>
       <use xlink:href="#DejaVuSans-39" x="222.65625"/>
       <use xlink:href="#DejaVuSans-30" x="286.279297"/>
      </g>
     </g>
    </g>
    <g id="ytick_4">
     <g id="line2d_9">
      <g>
       <use xlink:href="#mf99ed1c548" x="180.008132" y="375.52226" style="stroke: #000000; stroke-width: 0.8"/>
      </g>
     </g>
     <g id="text_9">
      <!-- 5.8195 -->
      <g transform="translate(138.017507 379.321479) scale(0.1 -0.1)">
       <use xlink:href="#DejaVuSans-35"/>
       <use xlink:href="#DejaVuSans-2e" x="63.623047"/>
       <use xlink:href="#DejaVuSans-38" x="95.410156"/>
       <use xlink:href="#DejaVuSans-31" x="159.033203"/>
       <use xlink:href="#DejaVuSans-39" x="222.65625"/>
       <use xlink:href="#DejaVuSans-35" x="286.279297"/>
      </g>
     </g>
    </g>
    <g id="ytick_5">
     <g id="line2d_10">
      <g>
       <use xlink:href="#mf99ed1c548" x="180.008132" y="299.822488" style="stroke: #000000; stroke-width: 0.8"/>
      </g>
     </g>
     <g id="text_10">
      <!-- 5.8200 -->
      <g transform="translate(138.017507 303.621706) scale(0.1 -0.1)">
       <defs>
        <path id="DejaVuSans-32" d="M 1228 531 
L 3431 531 
L 3431 0 
L 469 0 
L 469 531 
Q 828 903 1448 1529 
Q 2069 2156 2228 2338 
Q 2531 2678 2651 2914 
Q 2772 3150 2772 3378 
Q 2772 3750 2511 3984 
Q 2250 4219 1831 4219 
Q 1534 4219 1204 4116 
Q 875 4013 500 3803 
L 500 4441 
Q 881 4594 1212 4672 
Q 1544 4750 1819 4750 
Q 2544 4750 2975 4387 
Q 3406 4025 3406 3419 
Q 3406 3131 3298 2873 
Q 3191 2616 2906 2266 
Q 2828 2175 2409 1742 
Q 1991 1309 1228 531 
z
" transform="scale(0.015625)"/>
       </defs>
       <use xlink:href="#DejaVuSans-35"/>
       <use xlink:href="#DejaVuSans-2e" x="63.623047"/>
       <use xlink:href="#DejaVuSans-38" x="95.410156"/>
       <use xlink:href="#DejaVuSans-32" x="159.033203"/>
       <use xlink:href="#DejaVuSans-30" x="222.65625"/>
       <use xlink:href="#DejaVuSans-30" x="286.279297"/>
      </g>
     </g>
    </g>
    <g id="ytick_6">
     <g id="line2d_11">
      <g>
       <use xlink:href="#mf99ed1c548" x="180.008132" y="224.122715" style="stroke: #000000; stroke-width: 0.8"/>
      </g>
     </g>
     <g id="text_11">
      <!-- 5.8205 -->
      <g transform="translate(138.017507 227.921934) scale(0.1 -0.1)">
       <use xlink:href="#DejaVuSans-35"/>
       <use xlink:href="#DejaVuSans-2e" x="63.623047"/>
       <use xlink:href="#DejaVuSans-38" x="95.410156"/>
       <use xlink:href="#DejaVuSans-32" x="159.033203"/>
       <use xlink:href="#DejaVuSans-30" x="222.65625"/>
       <use xlink:href="#DejaVuSans-35" x="286.279297"/>
      </g>
     </g>
    </g>
    <g id="ytick_7">
     <g id="line2d_12">
      <g>
       <use xlink:href="#mf99ed1c548" x="180.008132" y="148.422943" style="stroke: #000000; stroke-width: 0.8"/>
      </g>
     </g>
     <g id="text_12">
      <!-- 5.8210 -->
      <g transform="translate(138.017507 152.222162) scale(0.1 -0.1)">
       <use xlink:href="#DejaVuSans-35"/>
       <use xlink:href="#DejaVuSans-2e" x="63.623047"/>
       <use xlink:href="#DejaVuSans-38" x="95.410156"/>
       <use xlink:href="#DejaVuSans-32" x="159.033203"/>
       <use xlink:href="#DejaVuSans-31" x="222.65625"/>
       <use xlink:href="#DejaVuSans-30" x="286.279297"/>
      </g>
     </g>
    </g>
    <g id="text_13">
     <!-- 1e6 -->
     <g transform="translate(180.008132 83.4) scale(0.1 -0.1)">
      <defs>
       <path id="DejaVuSans-65" d="M 3597 1894 
L 3597 1613 
L 953 1613 
Q 991 1019 1311 708 
Q 1631 397 2203 397 
Q 2534 397 2845 478 
Q 3156 559 3463 722 
L 3463 178 
Q 3153 47 2828 -22 
Q 2503 -91 2169 -91 
Q 1331 -91 842 396 
Q 353 884 353 1716 
Q 353 2575 817 3079 
Q 1281 3584 2069 3584 
Q 2775 3584 3186 3129 
Q 3597 2675 3597 1894 
z
M 3022 2063 
Q 3016 2534 2758 2815 
Q 2500 3097 2075 3097 
Q 1594 3097 1305 2825 
Q 1016 2553 972 2059 
L 3022 2063 
z
" transform="scale(0.015625)"/>
       <path id="DejaVuSans-36" d="M 2113 2584 
Q 1688 2584 1439 2293 
Q 1191 2003 1191 1497 
Q 1191 994 1439 701 
Q 1688 409 2113 409 
Q 2538 409 2786 701 
Q 3034 994 3034 1497 
Q 3034 2003 2786 2293 
Q 2538 2584 2113 2584 
z
M 3366 4563 
L 3366 3988 
Q 3128 4100 2886 4159 
Q 2644 4219 2406 4219 
Q 1781 4219 1451 3797 
Q 1122 3375 1075 2522 
Q 1259 2794 1537 2939 
Q 1816 3084 2150 3084 
Q 2853 3084 3261 2657 
Q 3669 2231 3669 1497 
Q 3669 778 3244 343 
Q 2819 -91 2113 -91 
Q 1303 -91 875 529 
Q 447 1150 447 2328 
Q 447 3434 972 4092 
Q 1497 4750 2381 4750 
Q 2619 4750 2861 4703 
Q 3103 4656 3366 4563 
z
" transform="scale(0.015625)"/>
      </defs>
      <use xlink:href="#DejaVuSans-31"/>
      <use xlink:href="#DejaVuSans-65" x="63.623047"/>
      <use xlink:href="#DejaVuSans-36" x="125.146484"/>
     </g>
    </g>
   </g>
   <g id="patch_3">
    <path d="M 180.008132 640.8 
L 180.008132 86.4 
" style="fill: none; stroke: #000000; stroke-width: 0.8; stroke-linejoin: miter; stroke-linecap: square"/>
   </g>
   <g id="patch_4">
    <path d="M 557.991868 640.8 
L 557.991868 86.4 
" style="fill: none; stroke: #000000; stroke-width: 0.8; stroke-linejoin: miter; stroke-linecap: square"/>
   </g>
   <g id="patch_5">
    <path d="M 180.008132 640.8 
L 557.991868 640.8 
" style="fill: none; stroke: #000000; stroke-width: 0.8; stroke-linejoin: miter; stroke-linecap: square"/>
   </g>
   <g id="patch_6">
    <path d="M 180.008132 86.4 
L 557.991868 86.4 
" style="fill: none; stroke: #000000; stroke-width: 0.8; stroke-linejoin: miter; stroke-linecap: square"/>
   </g>
   <g id="text_14">
    <!-- Friedrichshain_West -->
    <g transform="translate(327.356535 352.478899) scale(0.12 -0.12)">
     <defs>
      <path id="DejaVuSans-46" d="M 628 4666 
L 3309 4666 
L 3309 4134 
L 1259 4134 
L 1259 2759 
L 3109 2759 
L 3109 2228 
L 1259 2228 
L 1259 0 
L 628 0 
L 628 4666 
z
" transform="scale(0.015625)"/>
      <path id="DejaVuSans-72" d="M 2631 2963 
Q 2534 3019 2420 3045 
Q 2306 3072 2169 3072 
Q 1681 3072 1420 2755 
Q 1159 2438 1159 1844 
L 1159 0 
L 581 0 
L 581 3500 
L 1159 3500 
L 1159 2956 
Q 1341 3275 1631 3429 
Q 1922 3584 2338 3584 
Q 2397 3584 2469 3576 
Q 2541 3569 2628 3553 
L 2631 2963 
z
" transform="scale(0.015625)"/>
      <path id="DejaVuSans-69" d="M 603 3500 
L 1178 3500 
L 1178 0 
L 603 0 
L 603 3500 
z
M 603 4863 
L 1178 4863 
L 1178 4134 
L 603 4134 
L 603 4863 
z
" transform="scale(0.015625)"/>
      <path id="DejaVuSans-64" d="M 2906 2969 
L 2906 4863 
L 3481 4863 
L 3481 0 
L 2906 0 
L 2906 525 
Q 2725 213 2448 61 
Q 2172 -91 1784 -91 
Q 1150 -91 751 415 
Q 353 922 353 1747 
Q 353 2572 751 3078 
Q 1150 3584 1784 3584 
Q 2172 3584 2448 3432 
Q 2725 3281 2906 2969 
z
M 947 1747 
Q 947 1113 1208 752 
Q 1469 391 1925 391 
Q 2381 391 2643 752 
Q 2906 1113 2906 1747 
Q 2906 2381 2643 2742 
Q 2381 3103 1925 3103 
Q 1469 3103 1208 2742 
Q 947 2381 947 1747 
z
" transform="scale(0.015625)"/>
      <path id="DejaVuSans-63" d="M 3122 3366 
L 3122 2828 
Q 2878 2963 2633 3030 
Q 2388 3097 2138 3097 
Q 1578 3097 1268 2742 
Q 959 2388 959 1747 
Q 959 1106 1268 751 
Q 1578 397 2138 397 
Q 2388 397 2633 464 
Q 2878 531 3122 666 
L 3122 134 
Q 2881 22 2623 -34 
Q 2366 -91 2075 -91 
Q 1284 -91 818 406 
Q 353 903 353 1747 
Q 353 2603 823 3093 
Q 1294 3584 2113 3584 
Q 2378 3584 2631 3529 
Q 2884 3475 3122 3366 
z
" transform="scale(0.015625)"/>
      <path id="DejaVuSans-68" d="M 3513 2113 
L 3513 0 
L 2938 0 
L 2938 2094 
Q 2938 2591 2744 2837 
Q 2550 3084 2163 3084 
Q 1697 3084 1428 2787 
Q 1159 2491 1159 1978 
L 1159 0 
L 581 0 
L 581 4863 
L 1159 4863 
L 1159 2956 
Q 1366 3272 1645 3428 
Q 1925 3584 2291 3584 
Q 2894 3584 3203 3211 
Q 3513 2838 3513 2113 
z
" transform="scale(0.015625)"/>
      <path id="DejaVuSans-73" d="M 2834 3397 
L 2834 2853 
Q 2591 2978 2328 3040 
Q 2066 3103 1784 3103 
Q 1356 3103 1142 2972 
Q 928 2841 928 2578 
Q 928 2378 1081 2264 
Q 1234 2150 1697 2047 
L 1894 2003 
Q 2506 1872 2764 1633 
Q 3022 1394 3022 966 
Q 3022 478 2636 193 
Q 2250 -91 1575 -91 
Q 1294 -91 989 -36 
Q 684 19 347 128 
L 347 722 
Q 666 556 975 473 
Q 1284 391 1588 391 
Q 1994 391 2212 530 
Q 2431 669 2431 922 
Q 2431 1156 2273 1281 
Q 2116 1406 1581 1522 
L 1381 1569 
Q 847 1681 609 1914 
Q 372 2147 372 2553 
Q 372 3047 722 3315 
Q 1072 3584 1716 3584 
Q 2034 3584 2315 3537 
Q 2597 3491 2834 3397 
z
" transform="scale(0.015625)"/>
      <path id="DejaVuSans-61" d="M 2194 1759 
Q 1497 1759 1228 1600 
Q 959 1441 959 1056 
Q 959 750 1161 570 
Q 1363 391 1709 391 
Q 2188 391 2477 730 
Q 2766 1069 2766 1631 
L 2766 1759 
L 2194 1759 
z
M 3341 1997 
L 3341 0 
L 2766 0 
L 2766 531 
Q 2569 213 2275 61 
Q 1981 -91 1556 -91 
Q 1019 -91 701 211 
Q 384 513 384 1019 
Q 384 1609 779 1909 
Q 1175 2209 1959 2209 
L 2766 2209 
L 2766 2266 
Q 2766 2663 2505 2880 
Q 2244 3097 1772 3097 
Q 1472 3097 1187 3025 
Q 903 2953 641 2809 
L 641 3341 
Q 956 3463 1253 3523 
Q 1550 3584 1831 3584 
Q 2591 3584 2966 3190 
Q 3341 2797 3341 1997 
z
" transform="scale(0.015625)"/>
      <path id="DejaVuSans-6e" d="M 3513 2113 
L 3513 0 
L 2938 0 
L 2938 2094 
Q 2938 2591 2744 2837 
Q 2550 3084 2163 3084 
Q 1697 3084 1428 2787 
Q 1159 2491 1159 1978 
L 1159 0 
L 581 0 
L 581 3500 
L 1159 3500 
L 1159 2956 
Q 1366 3272 1645 3428 
Q 1925 3584 2291 3584 
Q 2894 3584 3203 3211 
Q 3513 2838 3513 2113 
z
" transform="scale(0.015625)"/>
      <path id="DejaVuSans-5f" d="M 3263 -1063 
L 3263 -1509 
L -63 -1509 
L -63 -1063 
L 3263 -1063 
z
" transform="scale(0.015625)"/>
      <path id="DejaVuSans-57" d="M 213 4666 
L 850 4666 
L 1831 722 
L 2809 4666 
L 3519 4666 
L 4500 722 
L 5478 4666 
L 6119 4666 
L 4947 0 
L 4153 0 
L 3169 4050 
L 2175 0 
L 1381 0 
L 213 4666 
z
" transform="scale(0.015625)"/>
      <path id="DejaVuSans-74" d="M 1172 4494 
L 1172 3500 
L 2356 3500 
L 2356 3053 
L 1172 3053 
L 1172 1153 
Q 1172 725 1289 603 
Q 1406 481 1766 481 
L 2356 481 
L 2356 0 
L 1766 0 
Q 1100 0 847 248 
Q 594 497 594 1153 
L 594 3053 
L 172 3053 
L 172 3500 
L 594 3500 
L 594 4494 
L 1172 4494 
z
" transform="scale(0.015625)"/>
     </defs>
     <use xlink:href="#DejaVuSans-46"/>
     <use xlink:href="#DejaVuSans-72" x="50.269531"/>
     <use xlink:href="#DejaVuSans-69" x="91.382812"/>
     <use xlink:href="#DejaVuSans-65" x="119.166016"/>
     <use xlink:href="#DejaVuSans-64" x="180.689453"/>
     <use xlink:href="#DejaVuSans-72" x="244.166016"/>
     <use xlink:href="#DejaVuSans-69" x="285.279297"/>
     <use xlink:href="#DejaVuSans-63" x="313.0625"/>
     <use xlink:href="#DejaVuSans-68" x="368.042969"/>
     <use xlink:href="#DejaVuSans-73" x="431.421875"/>
     <use xlink:href="#DejaVuSans-68" x="483.521484"/>
     <use xlink:href="#DejaVuSans-61" x="546.900391"/>
     <use xlink:href="#DejaVuSans-69" x="608.179688"/>
     <use xlink:href="#DejaVuSans-6e" x="635.962891"/>
     <use xlink:href="#DejaVuSans-5f" x="699.341797"/>
     <use xlink:href="#DejaVuSans-57" x="749.341797"/>
     <use xlink:href="#DejaVuSans-65" x="842.34375"/>
     <use xlink:href="#DejaVuSans-73" x="903.867188"/>
     <use xlink:href="#DejaVuSans-74" x="955.966797"/>
    </g>
   </g>
  </g>
 </g>
 <defs>
  <clipPath id="peac421dace">
   <rect x="180.008132" y="86.4" width="377.983736" height="554.4"/>
  </clipPath>
 </defs>
</svg>
