<?xml version="1.0" encoding="utf-8" standalone="no"?>
<!DOCTYPE svg PUBLIC "-//W3C//DTD SVG 1.1//EN"
  "http://www.w3.org/Graphics/SVG/1.1/DTD/svg11.dtd">
<svg xmlns:xlink="http://www.w3.org/1999/xlink" width="720pt" height="720pt" viewBox="0 0 720 720" xmlns="http://www.w3.org/2000/svg" version="1.1">
 <metadata>
  <rdf:RDF xmlns:dc="http://purl.org/dc/elements/1.1/" xmlns:cc="http://creativecommons.org/ns#" xmlns:rdf="http://www.w3.org/1999/02/22-rdf-syntax-ns#">
   <cc:Work>
    <dc:type rdf:resource="http://purl.org/dc/dcmitype/StillImage"/>
    <dc:date>2024-10-15T09:52:30.800942</dc:date>
    <dc:format>image/svg+xml</dc:format>
    <dc:creator>
     <cc:Agent>
      <dc:title>Matplotlib v3.8.4, https://matplotlib.org/</dc:title>
     </cc:Agent>
    </dc:creator>
   </cc:Work>
  </rdf:RDF>
 </metadata>
 <defs>
  <style type="text/css">*{stroke-linejoin: round; stroke-linecap: butt}</style>
 </defs>
 <g id="figure_1">
  <g id="patch_1">
   <path d="M 0 720 
L 720 720 
L 720 0 
L 0 0 
z
" style="fill: #ffffff"/>
  </g>
  <g id="axes_1">
   <g id="patch_2">
    <path d="M 90 616.73567 
L 648 616.73567 
L 648 110.46433 
L 90 110.46433 
z
" style="fill: #ffffff"/>
   </g>
   <g id="PatchCollection_1">
    <path d="M 119.609425 284.565526 
L 119.446931 287.859366 
L 119.282221 291.192427 
L 119.072405 295.47557 
L 118.844007 300.113474 
L 119.777196 300.159762 
L 119.742058 300.7637 
L 119.60708 300.757787 
L 119.573969 301.436224 
L 119.708947 301.442137 
L 119.661646 302.421276 
L 119.526499 302.415195 
L 119.491699 303.095322 
L 119.626677 303.101234 
L 119.585119 303.955194 
L 120.32319 304.761345 
L 120.241595 304.836183 
L 119.974173 305.080968 
L 119.939204 305.142797 
L 119.86369 305.470697 
L 119.875854 305.543508 
L 119.998331 305.856711 
L 120.187705 306.11028 
L 120.803299 306.782467 
L 123.037447 309.226937 
L 122.916659 311.760097 
L 120.490941 313.987824 
L 119.827201 314.59683 
L 119.783109 314.646159 
L 119.749322 314.703258 
L 119.727361 314.765764 
L 119.71807 314.83131 
L 119.721786 314.897025 
L 119.738342 314.960882 
L 119.766891 315.020178 
L 119.806422 315.072885 
L 119.860988 315.131336 
L 119.448452 315.506876 
L 119.747802 315.838661 
L 119.667052 315.913161 
L 119.766385 316.021447 
L 118.946212 316.776074 
L 118.893167 317.856236 
L 118.728288 317.847958 
L 118.690109 318.610862 
L 118.379777 318.601571 
L 118.332814 319.412959 
L 118.220811 319.634093 
L 118.121309 319.86114 
L 118.034815 320.093424 
L 117.961498 320.3301 
L 117.900344 320.57083 
L 117.852873 320.814601 
L 117.819087 321.060738 
L 117.799321 321.308394 
L 117.783104 321.627341 
L 117.560449 326.140065 
L 117.386617 329.685813 
L 117.103484 335.428881 
L 117.00432 337.454057 
L 116.722876 343.188678 
L 116.544145 346.818724 
L 116.368623 350.362783 
L 116.194959 353.901774 
L 115.946626 358.964715 
L 115.685624 364.251999 
L 115.528685 367.456839 
L 115.363636 370.800543 
L 118.799578 370.979106 
L 124.296002 371.262576 
L 126.943868 371.395696 
L 128.780176 372.542079 
L 131.440205 374.170431 
L 134.094829 375.812128 
L 137.115193 377.676986 
L 140.130489 379.538466 
L 144.235914 382.0821 
L 146.391508 383.411945 
L 150.747799 386.088361 
L 153.758196 387.944603 
L 156.773155 389.826355 
L 159.791492 391.704728 
L 164.144574 394.38807 
L 166.308445 395.712003 
L 178.236004 403.085956 
L 188.575925 409.476884 
L 201.460493 417.424536 
L 201.604087 417.513395 
L 204.789837 419.481134 
L 208.093165 422.719591 
L 208.619731 421.875092 
L 208.833601 421.531819 
L 209.959206 419.726425 
L 212.370368 415.855651 
L 212.381208 415.838249 
L 214.677016 412.154144 
L 214.975521 411.6764 
L 217.388738 407.804948 
L 218.253678 406.416482 
L 218.483766 406.047025 
L 219.997074 403.617928 
L 222.41198 399.743266 
L 223.247019 399.534464 
L 224.90713 400.532186 
L 224.903751 400.537254 
L 225.855692 401.106054 
L 226.199472 400.526442 
L 229.026407 402.208346 
L 231.868547 403.899371 
L 236.448675 406.624947 
L 236.738565 407.990437 
L 239.253987 404.449081 
L 241.279332 401.602381 
L 246.017583 394.942341 
L 252.888452 393.655743 
L 255.643252 393.138637 
L 258.298044 392.641803 
L 260.957904 392.143449 
L 263.617258 391.651514 
L 266.77733 391.056023 
L 270.871775 390.286361 
L 273.195964 389.852371 
L 273.984208 389.70523 
L 277.07468 389.125449 
L 283.548892 387.912168 
L 285.417805 389.385269 
L 285.923254 388.751261 
L 287.6381 386.603101 
L 291.519857 381.805217 
L 293.460735 379.40636 
L 295.392998 377.01899 
L 297.531191 374.377206 
L 299.167144 371.920066 
L 302.147303 367.458022 
L 302.237851 367.323044 
L 302.496826 366.934159 
L 305.632572 369.03941 
L 308.006259 370.633467 
L 308.736559 371.123882 
L 309.068513 371.341299 
L 309.014793 371.407859 
L 309.173252 371.519524 
L 309.684783 371.880029 
L 309.842905 371.993721 
L 310.350382 372.358618 
L 310.97645 372.818117 
L 311.01125 372.843626 
L 311.46433 373.182845 
L 311.667388 373.334885 
L 312.343461 373.851653 
L 312.401236 373.896758 
L 313.014296 374.375178 
L 313.679895 374.905292 
L 313.854065 375.042297 
L 314.029419 375.180485 
L 314.070976 375.213427 
L 315.048088 376.063163 
L 315.495931 376.480767 
L 315.933976 376.908507 
L 316.362223 377.346383 
L 316.780334 377.793719 
L 317.14371 378.19916 
L 317.49864 378.612034 
L 317.844954 379.032003 
L 318.182821 379.458898 
L 318.683371 379.873799 
L 319.356065 380.393439 
L 319.522464 380.521491 
L 320.881198 381.917389 
L 327.379906 386.961579 
L 330.798953 383.511278 
L 330.932749 385.800329 
L 331.120096 389.007365 
L 331.302882 392.206968 
L 331.484993 395.390015 
L 331.670313 398.598234 
L 331.858505 401.798006 
L 331.890434 402.434379 
L 332.796762 403.3799 
L 332.893393 403.488525 
L 333.333465 403.948531 
L 335.743472 406.468514 
L 337.437909 408.241195 
L 337.700737 408.516159 
L 338.004142 408.833585 
L 338.079317 408.912139 
L 340.461788 411.406782 
L 344.08609 415.200693 
L 344.567889 415.706143 
L 346.205532 417.424367 
L 347.472534 418.750834 
L 348.773647 420.118305 
L 351.261884 422.733444 
L 351.663102 423.154765 
L 355.455493 427.135686 
L 358.018892 429.82646 
L 361.463955 433.437586 
L 364.76627 436.893461 
L 365.164446 437.31022 
L 365.240129 437.389619 
L 366.991295 439.224745 
L 368.177547 440.467759 
L 370.57708 442.982674 
L 372.093766 444.572339 
L 376.282982 449.043168 
L 379.025958 452.055592 
L 380.605825 454.002552 
L 383.598991 457.691894 
L 387.252688 462.194989 
L 390.021679 465.607955 
L 393.735009 470.184705 
L 395.650378 472.545553 
L 398.297467 475.006881 
L 399.665762 476.279155 
L 430.53737 522.082468 
L 431.370212 523.323117 
L 431.484074 523.484448 
L 430.275016 525.329711 
L 428.366572 528.237734 
L 428.734172 528.561411 
L 429.112414 528.872418 
L 429.501131 529.170417 
L 429.899814 529.454901 
L 430.307958 529.725702 
L 430.583826 529.899872 
L 430.86358 530.067623 
L 431.147051 530.229124 
L 431.434069 530.384036 
L 431.62564 530.483031 
L 431.818562 530.578985 
L 432.013005 530.672068 
L 432.166397 530.740993 
L 432.320464 530.808059 
L 432.475376 530.873437 
L 432.931666 531.054365 
L 433.394037 531.219413 
L 433.861646 531.36875 
L 434.334153 531.50187 
L 434.810884 531.618772 
L 435.046039 531.676378 
L 435.28204 531.729761 
L 435.519053 531.779259 
L 435.685453 531.807977 
L 435.852191 531.834838 
L 436.019266 531.859671 
L 436.423186 531.912716 
L 436.828458 531.954105 
L 437.234743 531.984175 
L 437.885476 532.672242 
L 445.309602 532.850467 
L 445.174962 548.821115 
L 445.090326 558.87199 
L 445.07546 560.475846 
L 445.054681 562.079702 
L 445.027652 563.683389 
L 444.994879 565.281839 
L 444.956024 566.880289 
L 444.911088 568.478401 
L 444.853819 570.251022 
L 451.281237 570.513375 
L 465.617283 573.645743 
L 466.072052 571.667868 
L 472.151636 571.043658 
L 478.331904 568.762378 
L 483.982058 565.486248 
L 489.409051 564.711012 
L 493.429334 566.67098 
L 497.673453 572.848038 
L 499.470569 579.704885 
L 500.798894 583.49035 
L 501.868751 586.127235 
L 503.08558 588.495009 
L 503.157715 592.87985 
L 505.387301 592.884243 
L 511.868439 592.90688 
L 512.653305 592.914313 
L 512.792169 592.915664 
L 515.36469 592.940329 
L 518.185544 593.208595 
L 523.535503 593.723336 
L 522.853349 590.860587 
L 521.759673 580.686052 
L 521.885697 579.219539 
L 521.950905 577.7461 
L 521.956818 576.267424 
L 521.83924 573.227632 
L 521.70139 571.086905 
L 521.643953 570.193584 
L 521.369267 567.167476 
L 521.099987 564.867276 
L 521.056402 564.495115 
L 521.388863 563.151248 
L 522.264034 562.414944 
L 523.327883 562.218565 
L 524.35027 562.501867 
L 524.325605 559.708211 
L 523.284636 559.418997 
L 522.431691 559.062209 
L 522.437941 557.913461 
L 522.499602 546.741711 
L 522.792702 537.636863 
L 522.858417 535.593442 
L 522.859599 535.556446 
L 522.888487 534.658226 
L 523.062658 529.108925 
L 523.107256 527.739718 
L 523.216218 524.598059 
L 523.660176 517.225457 
L 524.273405 512.880822 
L 524.345202 512.373008 
L 525.704273 506.274335 
L 526.007678 504.913236 
L 526.24976 503.982919 
L 527.459493 499.331331 
L 525.826412 498.80882 
L 526.331692 497.229797 
L 526.418862 496.957814 
L 527.396312 493.902649 
L 527.523857 493.504304 
L 527.588728 493.301583 
L 527.652584 493.101566 
L 528.930905 493.198534 
L 528.925837 493.219988 
L 530.294369 493.289927 
L 531.190055 490.78481 
L 532.89696 486.474468 
L 533.731492 484.513318 
L 535.778123 479.783345 
L 537.44837 475.999232 
L 539.288902 471.930296 
L 542.808127 464.257331 
L 544.559462 460.169475 
L 546.087805 456.471349 
L 549.304132 448.668642 
L 552.484477 440.852759 
L 555.525789 432.980282 
L 558.50544 425.088379 
L 561.507222 417.199009 
L 563.146274 412.978235 
L 564.564076 409.327209 
L 569.029499 397.499321 
L 569.432406 396.431998 
L 576.067105 378.868813 
L 581.274822 364.814548 
L 585.066706 354.062261 
L 590.613642 337.72925 
L 596.188283 321.520237 
L 597.873227 317.08877 
L 601.074688 308.668949 
L 605.825947 296.851535 
L 610.558623 285.113181 
L 615.302786 273.384288 
L 620.267745 260.679803 
L 619.29266 260.114551 
L 619.027097 259.960653 
L 618.25034 259.510276 
L 617.985452 259.356715 
L 617.672418 259.17528 
L 617.645388 259.226298 
L 617.582714 259.18643 
L 619.111732 256.495993 
L 619.030982 253.887996 
L 618.963578 252.289883 
L 621.077782 250.504762 
L 621.247637 250.361405 
L 621.529342 250.123478 
L 621.601476 250.062662 
L 622.035572 248.91365 
L 622.228234 248.403742 
L 622.394231 247.964408 
L 622.578522 247.476659 
L 622.636364 247.323572 
L 621.849133 246.80427 
L 619.80909 245.50365 
L 618.083264 244.460147 
L 616.957829 243.803164 
L 616.477381 243.522566 
L 615.476787 242.956638 
L 615.007321 242.070412 
L 613.753158 241.135702 
L 611.834071 240.344248 
L 601.279774 235.993194 
L 594.534423 233.434187 
L 594.452659 233.415604 
L 594.372247 233.391447 
L 594.293692 233.361715 
L 594.217503 233.326745 
L 594.143679 233.286539 
L 592.974152 232.603878 
L 592.614661 232.389333 
L 592.257873 232.169888 
L 591.904295 231.945713 
L 591.553758 231.716639 
L 591.20643 231.482835 
L 590.862313 231.2443 
L 590.521404 231.001036 
L 590.183875 230.75321 
L 589.849724 230.500824 
L 589.519121 230.243875 
L 589.192066 229.982366 
L 588.868558 229.716634 
L 587.039682 228.1964 
L 581.234109 223.370304 
L 581.212655 223.787232 
L 577.980354 221.098604 
L 575.960846 219.418777 
L 574.823416 218.472749 
L 573.161109 217.089858 
L 571.122587 215.39444 
L 563.676161 209.255054 
L 563.156183 208.826301 
L 561.089618 207.122605 
L 558.224673 204.703813 
L 556.098981 202.908893 
L 551.902669 199.395243 
L 550.630092 197.847473 
L 550.158599 197.273943 
L 549.809075 196.851947 
L 548.502035 195.214473 
L 546.697655 193.096046 
L 545.027408 191.079654 
L 543.396523 189.108536 
L 542.513 188.041044 
L 538.8441 183.607381 
L 535.414578 179.50128 
L 534.817567 178.786353 
L 532.679036 176.206737 
L 532.498446 175.98763 
L 531.384497 174.643256 
L 530.914693 174.075808 
L 528.480849 171.136009 
L 526.894579 169.21998 
L 515.500344 155.474526 
L 515.087639 154.975158 
L 511.943784 151.043059 
L 511.781439 150.819391 
L 509.937528 148.325423 
L 509.157752 147.298559 
L 508.97714 147.058759 
L 508.211364 146.045833 
L 507.458089 145.01652 
L 505.890554 142.875118 
L 504.667643 141.204364 
L 501.978051 137.582258 
L 501.732928 137.285273 
L 501.642718 137.252837 
L 501.554197 137.215334 
L 501.468209 137.172763 
L 501.384587 137.125461 
L 501.303837 137.073599 
L 501.226127 137.017175 
L 501.084561 136.911423 
L 500.774399 136.675422 
L 500.648881 136.580144 
L 500.049505 136.124192 
L 499.917568 136.023676 
L 499.393535 135.624993 
L 499.272579 135.533093 
L 498.748885 135.134748 
L 498.626408 135.041496 
L 498.113525 134.651428 
L 497.149759 133.918256 
L 496.569134 133.476664 
L 492.61406 137.269562 
L 491.968058 138.129603 
L 491.990019 138.146665 
L 491.972619 138.171667 
L 492.00725 138.198697 
L 491.726989 138.559201 
L 491.696243 138.537747 
L 491.676309 138.561059 
L 491.654686 138.545011 
L 491.258199 139.067522 
L 490.273315 140.120824 
L 489.59302 140.895384 
L 488.85157 141.733802 
L 488.524683 142.060182 
L 487.578993 143.152338 
L 486.407438 143.605587 
L 484.741077 144.261556 
L 483.680849 144.673754 
L 482.687351 145.073451 
L 480.630415 145.901226 
L 479.608873 146.299402 
L 478.663014 146.667847 
L 476.767916 147.42771 
L 475.815468 147.795141 
L 474.874339 148.1548 
L 473.043436 148.865166 
L 472.034396 149.251349 
L 470.662655 149.745311 
L 468.590177 150.509735 
L 467.640601 150.857232 
L 466.458066 151.291898 
L 465.634345 151.594458 
L 464.951853 151.845156 
L 464.471575 152.021691 
L 463.508653 152.3577 
L 461.408977 153.08496 
L 459.714911 153.66153 
L 458.659751 154.021696 
L 456.505341 154.756558 
L 455.514207 155.094594 
L 454.492328 155.478749 
L 452.367649 156.276623 
L 451.357764 156.657399 
L 450.271521 157.060644 
L 448.760747 157.621503 
L 447.647475 158.034546 
L 447.280551 158.183883 
L 446.161197 158.639497 
L 443.141304 159.872665 
L 441.014802 160.741032 
L 440.404107 160.9647 
L 439.185927 161.419469 
L 437.967915 161.872718 
L 435.863171 162.67397 
L 434.037337 163.367274 
L 432.963763 163.772546 
L 431.924315 164.159911 
L 429.903024 164.925518 
L 428.856818 165.311024 
L 427.830884 165.696531 
L 427.808754 165.704978 
L 425.754521 166.474301 
L 424.730952 166.857612 
L 423.948282 167.153414 
L 423.686266 167.256633 
L 421.902327 167.879829 
L 421.218146 167.921049 
L 421.176926 167.923414 
L 420.042537 167.972743 
L 420.032401 167.974263 
L 418.933656 168.007543 
L 417.010178 168.069035 
L 415.877647 168.111775 
L 414.579223 168.166341 
L 414.33579 168.176983 
L 414.020222 168.178166 
L 413.374279 168.17979 
L 412.410115 168.179517 
L 411.168545 168.173278 
L 409.615533 168.158757 
L 408.670751 168.146071 
L 407.223666 168.120631 
L 406.30167 168.099497 
L 405.163972 168.070312 
L 404.331257 168.046284 
L 403.17733 168.030281 
L 402.437118 168.022578 
L 401.617841 167.986896 
L 400.571415 167.941321 
L 400.014118 167.913406 
L 399.181062 167.871677 
L 398.123698 167.814851 
L 397.087762 167.756095 
L 396.528437 167.722317 
L 395.958252 167.686241 
L 394.978192 167.624233 
L 393.785531 167.542046 
L 393.22304 167.501683 
L 391.871825 166.120398 
L 389.889404 164.093857 
L 389.520731 159.526826 
L 389.396287 159.49447 
L 388.558882 159.299352 
L 387.716579 159.125688 
L 386.870222 158.973479 
L 386.020317 158.842893 
L 385.167371 158.733762 
L 384.311891 158.646593 
L 383.454553 158.581046 
L 382.595694 158.537461 
L 379.925698 158.545063 
L 375.890549 159.073657 
L 373.703366 159.16184 
L 372.497517 159.18397 
L 371.165138 159.341079 
L 370.326213 159.308137 
L 353.293649 158.955741 
L 353.286216 158.771941 
L 352.397118 158.775996 
L 351.508189 158.797112 
L 350.619767 158.835629 
L 349.732359 158.891377 
L 348.846302 158.964357 
L 347.961766 159.054398 
L 347.079087 159.161671 
L 346.198605 159.286006 
L 342.915042 159.764089 
L 338.284909 160.152129 
L 338.163784 158.858773 
L 337.986742 158.766535 
L 335.277891 158.966722 
L 332.570222 159.183126 
L 329.863906 159.416085 
L 327.159109 159.665262 
L 324.455833 159.930826 
L 321.754247 160.212607 
L 319.054349 160.510775 
L 316.339408 160.828847 
L 316.331139 161.212525 
L 316.265593 164.393884 
L 316.237043 165.805493 
L 310.532323 166.269723 
L 304.813751 166.74223 
L 300.967977 167.066076 
L 296.930801 167.419992 
L 292.894977 167.789281 
L 288.801377 168.17597 
L 285.861763 168.459609 
L 277.968508 169.235353 
L 269.28836 170.085427 
L 269.258796 171.014055 
L 269.196122 171.021319 
L 269.190378 170.97047 
L 268.769058 171.008142 
L 268.721587 172.437996 
L 268.191474 172.419414 
L 268.19198 172.485298 
L 267.938918 172.471952 
L 267.747516 178.177854 
L 265.225168 178.081393 
L 230.089676 176.909163 
L 221.290598 176.615725 
L 220.953914 176.604407 
L 220.565535 176.591399 
L 219.400231 176.552544 
L 219.219134 176.560991 
L 215.973581 176.70999 
L 215.577432 176.728235 
L 214.608429 176.658803 
L 213.207969 176.558457 
L 207.044256 176.106728 
L 201.46894 175.698415 
L 190.801456 175.347034 
L 169.741683 174.644439 
L 167.198387 174.702552 
L 161.464611 174.458443 
L 147.899071 173.982557 
L 132.137563 173.867175 
L 125.708456 173.820042 
L 125.058906 173.815312 
L 124.93474 176.345093 
L 124.766482 179.777825 
L 124.628464 182.592766 
L 124.460206 186.025497 
L 124.335702 188.575382 
L 123.178844 212.023539 
L 122.887265 217.943818 
L 122.787763 219.977441 
L 122.570683 224.380527 
L 122.431144 227.1904 
L 122.200549 231.858374 
L 122.099358 233.891997 
L 121.797981 240.06196 
L 121.475317 246.630269 
L 121.372606 248.658824 
L 121.143701 253.336934 
L 120.911924 258.060656 
L 120.829146 259.746614 
L 120.765796 261.034226 
L 120.694337 262.573549 
L 120.046995 275.678503 
L 119.865042 279.362005 
L 119.749153 281.733157 
L 119.609425 284.565526 
" clip-path="url(#p331e143268)" style="fill: #d3d3d3"/>
   </g>
   <g id="PatchCollection_2">
    <path d="M 118.121309 319.86114 
L 118.220811 319.634093 
L 118.332814 319.412959 
L 118.379777 318.601571 
L 118.690109 318.610862 
L 118.728288 317.847958 
L 118.893167 317.856236 
L 118.946212 316.776074 
L 119.766385 316.021447 
L 119.667052 315.913161 
L 119.747802 315.838661 
L 119.448452 315.506876 
L 119.860988 315.131336 
L 119.806422 315.072885 
L 119.766891 315.020178 
L 119.738342 314.960882 
L 119.721786 314.897025 
L 119.71807 314.83131 
L 119.727361 314.765764 
L 119.749322 314.703258 
L 119.783109 314.646159 
L 119.827201 314.59683 
L 120.490941 313.987824 
L 122.916659 311.760097 
L 123.037447 309.226937 
L 120.803299 306.782467 
L 120.187705 306.11028 
L 119.998331 305.856711 
L 119.875854 305.543508 
L 119.86369 305.470697 
L 119.939204 305.142797 
L 119.974173 305.080968 
L 120.241595 304.836183 
L 120.32319 304.761345 
L 119.585119 303.955194 
L 119.626677 303.101234 
L 119.491699 303.095322 
L 119.526499 302.415195 
L 119.661646 302.421276 
L 119.708947 301.442137 
L 119.573969 301.436224 
L 119.60708 300.757787 
L 119.742058 300.7637 
L 119.777196 300.159762 
L 118.844007 300.113474 
L 119.072405 295.47557 
L 119.282221 291.192427 
L 119.446931 287.859366 
L 119.609425 284.565526 
L 119.686762 282.99786 
L 120.100324 281.555934 
L 120.713132 280.011424 
L 121.474711 278.534589 
L 122.377692 277.139716 
L 123.413339 275.840301 
L 124.571633 274.648915 
L 125.841367 273.577084 
L 127.210257 272.63518 
L 128.665059 271.832313 
L 130.191699 271.176252 
L 131.775406 270.673344 
L 133.400858 270.328454 
L 135.05233 270.144919 
L 136.713844 270.124516 
L 151.250083 270.661445 
L 152.898064 270.80335 
L 154.524268 271.10574 
L 156.113104 271.565716 
L 157.649341 272.178868 
L 159.11825 272.939319 
L 160.505749 273.839777 
L 161.798536 274.87161 
L 162.984218 276.024925 
L 164.051428 277.288667 
L 164.989933 278.65072 
L 165.790736 280.098025 
L 166.446162 281.616707 
L 166.949925 283.192208 
L 167.297196 284.809422 
L 167.484646 286.452846 
L 167.510478 288.106723 
L 167.213649 297.001659 
L 167.589092 297.109104 
L 167.864727 297.218221 
L 168.395548 296.416182 
L 169.425393 295.146474 
L 170.573148 293.982259 
L 172.656511 292.064195 
L 173.92632 291.005129 
L 174.957692 290.303706 
L 175.266941 289.208392 
L 175.883701 287.641134 
L 176.653457 286.143079 
L 177.568555 284.729117 
L 178.6199 283.413303 
L 181.914936 279.686646 
L 183.014201 278.554638 
L 184.21429 277.530133 
L 185.504734 276.622068 
L 186.874273 275.838367 
L 188.310959 275.185866 
L 189.802258 274.670258 
L 191.33516 274.296041 
L 192.89629 274.066481 
L 194.472029 273.98358 
L 196.048629 274.048061 
L 196.49366 274.087143 
L 196.078628 273.479785 
L 195.281781 272.02551 
L 194.631355 270.500117 
L 194.133616 268.918302 
L 193.793362 267.295309 
L 193.61387 265.646775 
L 193.596871 263.988586 
L 193.69338 261.505618 
L 193.838916 259.854624 
L 194.145534 258.225838 
L 194.610283 256.634936 
L 195.22869 255.097231 
L 195.994803 253.627526 
L 196.901246 252.239967 
L 197.939296 250.947908 
L 198.495785 250.379684 
L 198.448626 250.394237 
L 196.841787 250.723647 
L 195.210577 250.895673 
L 193.570372 250.908692 
L 191.936637 250.762583 
L 190.324771 250.458723 
L 188.749973 249.999975 
L 187.227086 249.390666 
L 185.770469 248.636539 
L 184.393854 247.744704 
L 183.110218 246.723568 
L 181.931662 245.582758 
L 179.771842 243.278733 
L 178.681944 241.99313 
L 177.725572 240.605324 
L 176.912247 239.129128 
L 176.250065 237.579235 
L 175.745615 235.971074 
L 175.403921 234.32065 
L 175.228381 232.644393 
L 175.220745 230.958987 
L 175.381088 229.281207 
L 175.707813 227.627756 
L 176.19767 226.015089 
L 176.845781 224.45926 
L 177.645696 222.975754 
L 178.589453 221.579339 
L 179.667657 220.283913 
L 180.869577 219.102371 
L 188.897114 211.962451 
L 190.158384 210.944685 
L 191.511379 210.052465 
L 192.943646 209.294004 
L 194.442002 208.676282 
L 195.992656 208.204984 
L 197.581338 207.884449 
L 199.193424 207.717627 
L 200.814077 207.706052 
L 202.428381 207.849832 
L 204.021479 208.147644 
L 205.578707 208.596745 
L 207.085733 209.193003 
L 208.528686 209.93093 
L 209.894287 210.803734 
L 211.169965 211.803382 
L 212.34398 212.920674 
L 213.405527 214.145325 
L 214.344834 215.466064 
L 215.153257 216.870736 
L 215.823356 218.346412 
L 216.348962 219.87951 
L 217.253597 222.998509 
L 217.642274 224.641437 
L 217.865026 226.314956 
L 217.919627 228.002352 
L 217.805532 229.68677 
L 217.523881 231.351389 
L 217.077487 232.979583 
L 216.470807 234.555091 
L 215.709902 236.062177 
L 214.802371 237.485788 
L 213.757277 238.811708 
L 212.585058 240.026693 
L 211.115947 241.404455 
L 211.102778 241.416792 
L 207.671048 244.628255 
L 206.429703 245.790945 
L 207.918174 245.478447 
L 209.565772 245.298491 
L 211.223074 245.280852 
L 212.328731 245.323365 
L 213.980657 245.468332 
L 215.610412 245.77456 
L 217.202291 246.239099 
L 218.740956 246.857472 
L 220.211581 247.623722 
L 221.599995 248.530464 
L 222.89282 249.568962 
L 224.077599 250.729209 
L 225.142916 252.000026 
L 226.078506 253.369167 
L 226.875354 254.82344 
L 227.525781 256.348832 
L 228.02352 257.930644 
L 228.363776 259.553636 
L 228.378048 259.684718 
L 230.284961 259.752647 
L 231.915549 259.890036 
L 233.525196 260.184541 
L 235.098798 260.633398 
L 236.621589 261.232398 
L 238.079284 261.975918 
L 239.458203 262.856983 
L 240.74541 263.867327 
L 241.832643 264.905615 
L 242.577403 263.469059 
L 243.481492 262.078548 
L 244.517578 260.783396 
L 245.675676 259.596085 
L 246.94462 258.528061 
L 248.312181 257.589619 
L 249.765175 256.789804 
L 251.289597 256.136326 
L 252.870753 255.635484 
L 254.493402 255.292107 
L 256.141902 255.109503 
L 256.56639 255.104366 
L 257.315771 253.630944 
L 258.208327 252.234308 
L 259.233453 250.931861 
L 260.381279 249.736141 
L 261.640757 248.65866 
L 262.999762 247.709789 
L 264.445212 246.898662 
L 265.963192 246.233089 
L 267.539089 245.719475 
L 269.157733 245.362766 
L 270.803543 245.166395 
L 272.460674 245.132252 
L 274.892757 245.201528 
L 276.545779 245.330008 
L 278.178245 245.619912 
L 279.774431 246.068445 
L 281.31896 246.671287 
L 282.796955 247.422633 
L 284.19418 248.315243 
L 285.497175 249.34052 
L 286.693389 250.488589 
L 287.7713 251.748389 
L 288.720525 253.107787 
L 289.53192 254.553688 
L 290.197669 256.072163 
L 290.71136 257.648587 
L 291.068045 259.267773 
L 291.264287 260.914127 
L 291.298196 262.571788 
L 291.103539 269.366805 
L 290.974833 271.019462 
L 290.684775 272.651549 
L 290.236157 274.247351 
L 289.6333 275.791503 
L 288.882007 277.269137 
L 287.989514 278.666025 
L 286.964412 279.968718 
L 285.816573 281.164672 
L 284.557048 282.242373 
L 283.197964 283.191443 
L 281.752408 284.002745 
L 280.234299 284.668466 
L 278.658252 285.182197 
L 277.039444 285.538992 
L 275.690544 285.699962 
L 275.627748 285.821217 
L 274.724695 287.211576 
L 273.689708 288.506722 
L 272.532755 289.694181 
L 271.264977 290.762517 
L 269.898586 291.70144 
L 268.446742 292.501908 
L 266.923427 293.15621 
L 265.343312 293.658046 
L 263.721617 294.002582 
L 262.073959 294.1865 
L 260.416208 294.208027 
L 256.376374 294.062112 
L 254.724344 293.921022 
L 253.094102 293.618664 
L 251.927892 293.281331 
L 251.917421 296.252502 
L 251.843771 297.769828 
L 251.634113 299.274404 
L 251.290143 300.754062 
L 250.814642 302.196838 
L 250.211455 303.591065 
L 250.043931 303.934969 
L 249.251104 305.379103 
L 248.321381 306.739145 
L 247.263606 308.002161 
L 246.941366 308.318428 
L 247.581378 308.906565 
L 248.711769 310.177651 
L 249.708605 311.55597 
L 251.647503 314.542796 
L 252.050492 315.195583 
L 252.808069 316.487487 
L 253.331364 317.294345 
L 253.522241 317.578142 
L 254.358052 318.959008 
L 255.058261 320.413338 
L 255.616475 321.927857 
L 256.027597 323.488738 
L 256.287876 325.081731 
L 256.394934 326.692292 
L 256.384731 327.041479 
L 256.606856 327.273302 
L 257.695894 328.680392 
L 258.630895 330.194222 
L 259.401486 331.797997 
L 259.999119 333.473928 
L 260.150424 333.98123 
L 260.557952 335.654884 
L 260.792927 337.361337 
L 260.81511 337.998019 
L 261.427364 337.788006 
L 263.03419 337.407281 
L 268.711731 336.352087 
L 270.346528 336.130191 
L 271.995174 336.068816 
L 273.641944 336.168545 
L 275.271134 336.42843 
L 276.867205 336.84599 
L 278.414935 337.417243 
L 279.899563 338.136742 
L 281.306929 338.997623 
L 282.623612 339.991678 
L 283.106199 340.436207 
L 283.766796 340.606211 
L 283.876887 339.573244 
L 284.210807 337.957957 
L 284.700661 336.382935 
L 285.34178 334.863192 
L 286.128051 333.413216 
L 287.051978 332.046831 
L 288.104754 330.777061 
L 289.276342 329.616013 
L 290.555573 328.574754 
L 291.797728 327.751088 
L 290.999829 326.742882 
L 290.103237 325.348018 
L 289.347713 323.871974 
L 288.740535 322.328972 
L 288.287552 320.733876 
L 287.99313 319.102056 
L 287.860104 317.449232 
L 287.889757 315.791329 
L 288.012141 313.966913 
L 288.20408 312.320535 
L 288.55644 310.700893 
L 289.065826 309.123577 
L 289.727336 307.603772 
L 290.534601 306.156111 
L 291.479849 304.794529 
L 292.553981 303.532135 
L 293.746657 302.381081 
L 295.046393 301.352448 
L 296.440678 300.45614 
L 297.916089 299.700784 
L 299.458423 299.093653 
L 301.05283 298.640592 
L 302.683963 298.345962 
L 304.336117 298.212599 
L 305.993388 298.241788 
L 309.129584 298.451248 
L 309.788766 298.52792 
L 309.500985 298.091915 
L 308.728871 296.628173 
L 308.103681 295.095908 
L 307.631413 293.509824 
L 307.3166 291.885142 
L 307.162263 290.237452 
L 307.169884 288.582568 
L 307.292168 286.30355 
L 307.296613 286.211876 
L 307.301025 286.125451 
L 307.463916 283.087569 
L 307.63488 281.431436 
L 307.968036 279.800176 
L 308.460148 278.209633 
L 309.106437 276.675256 
L 309.900625 275.211948 
L 310.834997 273.833924 
L 311.900478 272.554568 
L 313.086719 271.386306 
L 314.382197 270.340487 
L 315.77433 269.427268 
L 317.249595 268.65552 
L 318.793663 268.032739 
L 320.391536 267.564973 
L 322.027694 267.256768 
L 323.686244 267.111115 
L 325.351076 267.129431 
L 328.402427 267.313646 
L 328.802083 266.039043 
L 329.00721 265.554883 
L 327.8991 264.480932 
L 326.827423 263.215988 
L 325.884897 261.85209 
L 325.080598 260.402374 
L 324.422274 258.880801 
L 323.916264 257.302027 
L 323.567442 255.681256 
L 323.379168 254.034099 
L 323.353254 252.376419 
L 323.631961 244.049364 
L 323.768791 242.396124 
L 324.067109 240.764275 
L 324.52404 239.169553 
L 325.135178 237.627335 
L 325.894629 236.152493 
L 326.79507 234.759249 
L 327.827819 233.461036 
L 328.982916 232.270374 
L 330.249223 231.198744 
L 331.61453 230.25648 
L 333.065671 229.452667 
L 334.588653 228.795057 
L 336.16879 228.289991 
L 337.790845 227.942338 
L 339.439177 227.755453 
L 341.097892 227.731136 
L 342.407793 227.776292 
L 342.409222 227.776412 
L 342.410654 227.776391 
L 345.959532 227.899334 
L 347.607791 228.037457 
L 349.234642 228.336105 
L 350.824489 228.792417 
L 351.322648 228.989918 
L 351.261192 228.408624 
L 351.253343 226.707923 
L 351.386926 223.789675 
L 351.536774 222.189004 
L 351.8381 220.609826 
L 352.288175 219.066442 
L 352.882924 217.57283 
L 353.616958 216.142517 
L 354.483632 214.788457 
L 355.475095 213.522912 
L 356.582368 212.357345 
L 357.795424 211.302311 
L 359.103277 210.367364 
L 360.494081 209.560974 
L 361.955241 208.890442 
L 363.473524 208.361841 
L 365.03518 207.979959 
L 366.626065 207.748254 
L 368.231771 207.668824 
L 370.355481 207.664946 
L 372.066036 207.748632 
L 373.759329 208.005077 
L 375.417957 208.431644 
L 377.024872 209.02395 
L 377.582438 209.296432 
L 377.349925 209.077922 
L 376.259294 207.830136 
L 375.29617 206.481492 
L 374.469825 205.044969 
L 373.788208 203.53439 
L 373.257881 201.964295 
L 372.883947 200.349791 
L 372.670005 198.706418 
L 372.565468 197.408792 
L 372.513589 195.751625 
L 372.624405 194.097353 
L 372.896848 192.461911 
L 373.328295 190.861052 
L 373.914588 189.310196 
L 374.650082 187.824281 
L 375.527691 186.417619 
L 376.28154 185.438206 
L 366.069231 185.278161 
L 365.967611 185.276263 
L 352.778776 184.990193 
L 351.139027 184.874631 
L 349.518272 184.600249 
L 347.931857 184.169644 
L 346.394802 183.586893 
L 344.921663 182.857515 
L 343.526386 181.988415 
L 342.222182 180.987823 
L 341.0214 179.865211 
L 339.935411 178.63121 
L 338.974495 177.297503 
L 338.147751 175.876718 
L 337.463009 174.382309 
L 336.926749 172.828423 
L 336.544051 171.229776 
L 336.318538 169.601501 
L 336.252345 167.959018 
L 336.266873 166.227991 
L 336.359202 164.600327 
L 336.607994 162.989141 
L 337.010933 161.40944 
L 337.564266 159.875934 
L 338.069855 158.809837 
L 338.163784 158.858773 
L 338.284909 160.152129 
L 342.915042 159.764089 
L 346.198605 159.286006 
L 347.079087 159.161671 
L 347.961766 159.054398 
L 348.846302 158.964357 
L 349.732359 158.891377 
L 350.619767 158.835629 
L 351.508189 158.797112 
L 352.397118 158.775996 
L 353.286216 158.771941 
L 353.293649 158.955741 
L 370.326213 159.308137 
L 371.165138 159.341079 
L 372.497517 159.18397 
L 373.703366 159.16184 
L 375.890549 159.073657 
L 379.925698 158.545063 
L 382.595694 158.537461 
L 383.454553 158.581046 
L 384.311891 158.646593 
L 385.167371 158.733762 
L 386.020317 158.842893 
L 386.870222 158.973479 
L 387.716579 159.125688 
L 388.558882 159.299352 
L 389.396287 159.49447 
L 389.520731 159.526826 
L 389.889404 164.093857 
L 391.871825 166.120398 
L 393.22304 167.501683 
L 393.785531 167.542046 
L 394.978192 167.624233 
L 395.958252 167.686241 
L 396.528437 167.722317 
L 397.087762 167.756095 
L 398.123698 167.814851 
L 399.181062 167.871677 
L 400.014118 167.913406 
L 400.571415 167.941321 
L 401.617841 167.986896 
L 402.437118 168.022578 
L 403.17733 168.030281 
L 404.331257 168.046284 
L 405.163972 168.070312 
L 406.30167 168.099497 
L 407.223666 168.120631 
L 408.670751 168.146071 
L 409.615533 168.158757 
L 411.168545 168.173278 
L 412.410115 168.179517 
L 413.374279 168.17979 
L 414.020222 168.178166 
L 414.33579 168.176983 
L 414.579223 168.166341 
L 415.877647 168.111775 
L 417.010178 168.069035 
L 418.933656 168.007543 
L 420.032401 167.974263 
L 420.042537 167.972743 
L 421.176926 167.923414 
L 421.218146 167.921049 
L 421.902327 167.879829 
L 423.098422 167.461989 
L 423.243193 167.721132 
L 423.909444 169.251424 
L 424.421438 170.839991 
L 425.066572 173.242203 
L 425.418409 174.868086 
L 425.608632 176.520689 
L 425.635395 178.183989 
L 425.49844 179.841858 
L 425.199094 181.478218 
L 424.740259 183.077203 
L 424.126386 184.623309 
L 423.363426 186.101543 
L 422.458778 187.497571 
L 421.421213 188.797857 
L 420.260793 189.989792 
L 418.98877 191.061818 
L 417.617478 192.003541 
L 416.160214 192.805829 
L 414.631109 193.460901 
L 413.044989 193.962407 
L 410.61061 194.602144 
L 410.694716 195.648025 
L 410.746352 197.305501 
L 410.694532 198.077096 
L 411.963457 197.66225 
L 413.520952 197.234303 
L 415.112198 196.957057 
L 416.722649 196.833048 
L 418.337581 196.863409 
L 419.942233 197.047862 
L 421.521934 197.384722 
L 423.062242 197.870909 
L 424.549078 198.501978 
L 425.968849 199.27216 
L 427.308575 200.174414 
L 428.556009 201.200492 
L 429.699748 202.341015 
L 430.729335 203.585555 
L 431.635358 204.922735 
L 432.409535 206.340331 
L 433.044788 207.825384 
L 433.632701 209.404599 
L 434.429736 211.430336 
L 435.273976 213.429324 
L 435.927432 214.858904 
L 436.689214 216.39621 
L 438.254161 219.468871 
L 438.898027 220.892211 
L 439.407659 222.368942 
L 439.712891 223.617293 
L 439.769544 223.812755 
L 440.074697 225.46542 
L 440.214131 227.140226 
L 440.186468 228.8206 
L 439.99198 230.489909 
L 439.632592 232.131634 
L 439.111861 233.729526 
L 438.43494 235.267771 
L 437.60853 236.731146 
L 436.640808 238.105167 
L 435.541353 239.376237 
L 434.321045 240.531775 
L 433.077277 241.49432 
L 429.432202 246.197712 
L 429.349751 246.303236 
L 425.099943 251.698066 
L 424.981684 251.918511 
L 424.054994 253.299877 
L 423.792067 253.652907 
L 422.737034 254.933127 
L 421.561523 256.103695 
L 420.276867 257.153322 
L 418.895457 258.071887 
L 417.430613 258.850532 
L 415.896461 259.481747 
L 414.307795 259.959447 
L 412.679936 260.279025 
L 411.02858 260.437398 
L 409.369654 260.43304 
L 407.719154 260.265992 
L 406.092996 259.937866 
L 404.506862 259.451825 
L 402.976048 258.812557 
L 401.515315 258.026227 
L 401.476087 257.999844 
L 400.485372 258.052352 
L 398.835294 258.059105 
L 397.192428 257.904843 
L 395.57245 257.591038 
L 393.990814 257.120685 
L 392.46261 256.498271 
L 391.002421 255.729733 
L 389.624175 254.822405 
L 388.341024 253.784944 
L 387.165209 252.627246 
L 386.107948 251.360359 
L 385.179329 249.996368 
L 384.388211 248.548287 
L 383.742143 247.029933 
L 383.247288 245.455791 
L 382.908367 243.84088 
L 382.728615 242.200607 
L 382.593539 239.963019 
L 382.184604 240.41423 
L 380.993161 241.500051 
L 380.913591 241.5659 
L 379.579481 242.563354 
L 378.153622 243.42457 
L 376.649879 244.141174 
L 375.082872 244.706199 
L 373.467836 245.11415 
L 371.820474 245.361063 
L 370.156804 245.444535 
L 368.574957 245.445815 
L 366.864646 245.360405 
L 365.171768 245.102287 
L 363.51372 244.674112 
L 362.240075 244.203226 
L 362.259883 245.306606 
L 362.197909 247.303483 
L 362.196233 247.324347 
L 362.19656 247.345296 
L 361.984594 253.669944 
L 361.847843 255.322038 
L 361.549825 256.952773 
L 361.093412 258.546448 
L 360.715087 259.5017 
L 360.744199 259.525418 
L 361.919912 260.692591 
L 362.975649 261.969313 
L 363.901256 263.343303 
L 364.68783 264.801349 
L 365.327808 266.329428 
L 365.815034 267.912844 
L 366.144824 269.53637 
L 366.249113 270.552271 
L 366.284472 270.732276 
L 366.443049 272.35991 
L 366.443506 273.995252 
L 366.307945 276.808961 
L 366.313614 276.826084 
L 366.69226 278.567136 
L 366.885426 280.338385 
L 366.890963 282.120126 
L 366.777779 284.397806 
L 366.774073 284.435224 
L 366.773892 284.472687 
L 366.558483 288.451179 
L 366.388332 290.096301 
L 366.123162 291.397726 
L 366.930385 291.739418 
L 368.346974 292.505583 
L 369.684167 293.403162 
L 370.929812 294.423996 
L 372.072586 295.558809 
L 373.102105 296.797286 
L 373.494257 297.317616 
L 374.447799 298.72494 
L 375.255076 300.22097 
L 375.907914 301.790557 
L 376.399704 303.417808 
L 376.725464 305.086245 
L 376.881896 306.778974 
L 376.867416 308.478854 
L 376.682172 310.168673 
L 376.328037 311.831318 
L 375.8086 313.449956 
L 375.129118 315.008194 
L 374.296473 316.490255 
L 373.319097 317.881131 
L 369.940963 322.208069 
L 368.850514 323.4709 
L 367.640811 324.620004 
L 366.323655 325.644172 
L 364.911895 326.533415 
L 363.419301 327.279057 
L 361.860433 327.873827 
L 360.250497 328.311921 
L 358.605197 328.589067 
L 356.940583 328.70256 
L 355.272893 328.651295 
L 354.990984 328.614572 
L 354.233323 328.924359 
L 352.63534 329.400165 
L 350.998235 329.716131 
L 349.606097 329.844461 
L 349.594187 329.88388 
L 348.956581 331.425301 
L 348.170066 332.896326 
L 347.242309 334.282611 
L 346.182358 335.570642 
L 345.000546 336.747859 
L 343.708396 337.802785 
L 342.318507 338.725134 
L 340.844429 339.505912 
L 339.300536 340.137509 
L 337.701881 340.613764 
L 336.064049 340.930036 
L 334.403011 341.08324 
L 332.734961 341.071882 
L 331.774143 341.017827 
L 330.136377 340.845291 
L 328.523192 340.514109 
L 328.356093 340.462418 
L 328.763382 341.434541 
L 329.249037 343.009167 
L 329.578973 344.623618 
L 329.750048 346.262532 
L 329.760637 347.910318 
L 329.610637 349.551295 
L 329.301477 351.169853 
L 328.836097 352.75059 
L 328.218926 354.278467 
L 327.455835 355.738946 
L 326.554086 357.118133 
L 326.484147 357.214491 
L 324.071591 360.796571 
L 322.348521 363.353863 
L 321.351808 364.686452 
L 320.228822 365.914513 
L 319.280743 366.765555 
L 320.031362 367.95818 
L 320.767402 369.427364 
L 321.35722 370.961108 
L 321.795233 372.544901 
L 322.077299 374.163757 
L 322.200748 375.802359 
L 322.164411 377.445202 
L 321.968634 379.076743 
L 321.942163 379.196963 
L 321.962541 379.194685 
L 323.603078 379.171422 
L 323.670096 379.176996 
L 323.661151 377.618679 
L 323.814174 375.967925 
L 324.128262 374.340118 
L 324.60039 372.750936 
L 325.226012 371.215683 
L 325.999101 369.749143 
L 326.912214 368.365441 
L 327.956555 367.077903 
L 329.122069 365.898927 
L 330.39753 364.839869 
L 331.770654 363.910926 
L 333.228219 363.121047 
L 334.756187 362.477836 
L 336.339843 361.98749 
L 337.963935 361.654729 
L 339.612823 361.482759 
L 344.441008 361.217758 
L 346.098754 361.208232 
L 347.749453 361.361234 
L 349.377207 361.67529 
L 350.966342 362.147376 
L 352.501554 362.772946 
L 353.968061 363.545974 
L 355.351739 364.459018 
L 356.639264 365.503285 
L 357.818237 366.668719 
L 358.877306 367.944097 
L 359.806271 369.317137 
L 360.596187 370.774616 
L 361.239447 372.302501 
L 361.729856 373.886077 
L 362.062693 375.510095 
L 362.234751 377.158916 
L 362.610375 383.995225 
L 362.62004 385.652008 
L 362.467365 387.30177 
L 362.153819 388.928642 
L 361.682418 390.516976 
L 361.057696 392.051494 
L 360.285663 393.517437 
L 359.373743 394.900703 
L 358.330709 396.187989 
L 357.166593 397.366911 
L 355.892593 398.426131 
L 354.520961 399.355459 
L 353.064893 400.145958 
L 351.538392 400.790023 
L 349.956143 401.281459 
L 348.333363 401.615541 
L 346.685663 401.789053 
L 345.732641 401.842346 
L 345.715266 401.843309 
L 345.202752 401.871439 
L 345.34905 404.191568 
L 345.373353 405.811553 
L 345.242358 407.426416 
L 344.957269 409.021303 
L 344.520709 410.581546 
L 343.936692 412.092792 
L 343.210592 413.541143 
L 342.92907 413.989527 
L 340.461788 411.406782 
L 338.079317 408.912139 
L 338.004142 408.833585 
L 337.700737 408.516159 
L 337.437909 408.241195 
L 335.743472 406.468514 
L 333.333465 403.948531 
L 332.893393 403.488525 
L 332.796762 403.3799 
L 331.890434 402.434379 
L 331.858505 401.798006 
L 331.670313 398.598234 
L 331.484993 395.390015 
L 331.302882 392.206968 
L 331.120096 389.007365 
L 330.932749 385.800329 
L 330.798953 383.511278 
L 327.379906 386.961579 
L 320.881198 381.917389 
L 319.522464 380.521491 
L 319.356065 380.393439 
L 318.683371 379.873799 
L 318.182821 379.458898 
L 317.844954 379.032003 
L 317.49864 378.612034 
L 317.14371 378.19916 
L 316.780334 377.793719 
L 316.362223 377.346383 
L 315.933976 376.908507 
L 315.495931 376.480767 
L 315.048088 376.063163 
L 314.070976 375.213427 
L 314.029419 375.180485 
L 313.854065 375.042297 
L 313.679895 374.905292 
L 313.014296 374.375178 
L 312.401236 373.896758 
L 312.343461 373.851653 
L 311.667388 373.334885 
L 311.46433 373.182845 
L 311.01125 372.843626 
L 310.97645 372.818117 
L 310.350382 372.358618 
L 309.842905 371.993721 
L 309.684783 371.880029 
L 309.173252 371.519524 
L 309.014793 371.407859 
L 309.068513 371.341299 
L 308.736559 371.123882 
L 308.006259 370.633467 
L 305.632572 369.03941 
L 302.496826 366.934159 
L 302.237851 367.323044 
L 302.147303 367.458022 
L 299.167144 371.920066 
L 297.531191 374.377206 
L 295.392998 377.01899 
L 293.460735 379.40636 
L 291.519857 381.805217 
L 287.6381 386.603101 
L 286.944107 387.472455 
L 286.37599 386.972284 
L 285.254388 385.772297 
L 284.919841 385.336197 
L 283.881959 385.852815 
L 282.418503 386.418656 
L 280.908862 386.846279 
L 272.423329 388.829299 
L 270.971393 389.102268 
L 262.281307 390.345449 
L 260.675152 390.497401 
L 259.061827 390.495445 
L 257.456046 390.339601 
L 255.872453 390.03129 
L 254.325492 389.573323 
L 252.829272 388.969877 
L 251.397439 388.226456 
L 250.043051 387.34984 
L 248.778462 386.348024 
L 247.615204 385.230146 
L 246.563887 384.0064 
L 245.634099 382.687948 
L 244.83432 381.286814 
L 244.171846 379.815778 
L 243.652716 378.288255 
L 243.281667 376.718177 
L 243.106901 375.78066 
L 242.435636 372.354856 
L 242.144697 370.874572 
L 241.965714 370.145332 
L 241.621371 368.308842 
L 241.343265 366.181923 
L 241.219065 364.779651 
L 241.217265 364.418515 
L 240.908046 363.264095 
L 240.644701 361.720688 
L 240.547385 360.931164 
L 239.992939 361.049652 
L 238.194975 361.236383 
L 236.387351 361.229932 
L 234.67553 361.132089 
L 234.497448 361.120966 
L 231.802534 360.938357 
L 230.136534 360.741985 
L 228.498223 360.38135 
L 226.903758 359.860007 
L 225.36886 359.183098 
L 223.908664 358.357296 
L 222.53757 357.390745 
L 221.269098 356.292976 
L 220.115755 355.074814 
L 219.088914 353.748271 
L 218.198701 352.326427 
L 217.858034 351.71699 
L 217.101216 350.186193 
L 216.502808 348.586811 
L 216.068923 346.935188 
L 215.803996 345.248199 
L 215.710734 343.543085 
L 215.790089 341.837266 
L 216.041251 340.148174 
L 216.461653 338.493067 
L 217.047 336.888859 
L 217.79131 335.351941 
L 218.686978 333.898017 
L 218.842129 333.695299 
L 218.488544 333.08002 
L 217.463854 331.071179 
L 216.760913 329.500157 
L 216.221469 327.865765 
L 215.93276 326.555476 
L 215.632843 327.281786 
L 214.866377 328.724497 
L 213.964141 330.086429 
L 212.934571 331.354843 
L 211.787298 332.517878 
L 210.533049 333.564658 
L 209.183554 334.485392 
L 207.751434 335.271471 
L 206.250082 335.915543 
L 205.75085 336.074639 
L 204.99358 337.334002 
L 204.052968 338.73476 
L 202.977318 340.034701 
L 201.777359 341.22086 
L 200.465063 342.281403 
L 199.05352 343.205751 
L 197.556811 343.984683 
L 195.989867 344.610429 
L 194.368318 345.076747 
L 192.708341 345.378984 
L 191.026494 345.514126 
L 189.339555 345.480825 
L 187.664352 345.279413 
L 186.017595 344.911899 
L 184.415713 344.38195 
L 182.874685 343.694851 
L 181.409883 342.857457 
L 178.916919 341.262031 
L 172.92816 346.843953 
L 171.665372 347.910418 
L 170.304409 348.848374 
L 168.858299 349.648841 
L 167.340886 350.304157 
L 165.766696 350.808048 
L 164.771212 351.022215 
L 164.800704 351.273325 
L 164.804452 351.481222 
L 165.132563 352.727601 
L 165.394025 354.341943 
L 165.498167 355.974003 
L 165.444012 357.608485 
L 165.23207 359.230072 
L 164.864324 360.823568 
L 164.344223 362.374038 
L 163.676641 363.866954 
L 162.867832 365.288324 
L 161.925377 366.624828 
L 160.858109 367.863942 
L 159.676028 368.994052 
L 158.390213 370.004569 
L 157.012713 370.886022 
L 155.556438 371.630151 
L 150.55337 373.888261 
L 149.118868 374.458341 
L 147.638318 374.895101 
L 146.124082 375.194894 
L 144.588802 375.355216 
L 143.045297 375.37473 
L 140.754287 375.298959 
L 139.11234 375.164279 
L 137.491318 374.870305 
L 135.90664 374.419833 
L 134.373375 373.817147 
L 132.906106 373.067979 
L 131.518787 372.179454 
L 130.313548 371.230077 
L 125.771234 371.06441 
L 124.119049 370.92271 
L 122.488716 370.619711 
L 120.895944 370.158331 
L 119.356081 369.543016 
L 117.883962 368.779694 
L 116.493772 367.875721 
L 115.545329 367.11695 
L 115.685624 364.251999 
L 115.946626 358.964715 
L 116.194959 353.901774 
L 116.368623 350.362783 
L 116.544145 346.818724 
L 116.722876 343.188678 
L 117.00432 337.454057 
L 117.103484 335.428881 
L 117.259789 332.258378 
L 117.853244 331.853308 
L 117.979188 331.784422 
L 117.795446 330.199568 
L 117.767896 328.529238 
L 117.993105 321.701433 
L 117.997001 321.581556 
L 118.008909 321.221098 
L 118.019334 321.094089 
L 118.019107 320.969362 
L 118.065028 320.012285 
L 118.121309 319.86114 
M 215.272826 306.963104 
L 215.57693 307.502815 
L 216.244562 309.017833 
L 216.76069 310.590928 
L 217.120356 312.206989 
L 217.320107 313.850496 
L 217.358023 315.505663 
L 217.345851 315.971617 
L 218.089047 314.600152 
L 219.058769 313.178226 
L 220.168138 311.862347 
L 221.405638 310.666174 
L 222.890827 309.370234 
L 221.556532 308.592734 
L 220.247125 307.651818 
L 219.033386 306.590351 
L 217.926373 305.418004 
L 217.004872 304.233746 
L 216.64515 304.945536 
L 215.761431 306.337738 
L 215.272826 306.963104 
M 317.143459 330.630666 
L 316.894751 330.790504 
L 317.013212 330.814299 
L 317.249462 330.886298 
L 317.143459 330.630666 
M 325.655275 307.180686 
L 326.63132 306.782728 
L 325.716408 306.502649 
L 323.086907 306.35422 
L 322.250268 306.26572 
L 322.647235 306.883516 
L 323.402612 308.35991 
L 323.438478 308.451107 
L 324.177965 307.961273 
L 325.655275 307.180686 
M 382.442119 212.67906 
L 382.309216 212.613223 
L 382.424602 212.722635 
L 382.442119 212.67906 
" clip-path="url(#p331e143268)" style="fill: #ff0000; fill-opacity: 0.7; stroke: #000000; stroke-opacity: 0.7; stroke-width: 0.5"/>
    <path d="M 146.391508 383.411945 
L 144.235914 382.0821 
L 140.130489 379.538466 
L 137.115193 377.676986 
L 134.094829 375.812128 
L 131.788729 374.385968 
L 132.583987 374.564528 
L 134.105478 375.061398 
L 135.573117 375.70003 
L 136.97373 376.474692 
L 138.222435 377.244755 
L 140.011259 378.334022 
L 140.05883 378.363098 
L 142.072041 379.598126 
L 143.959626 380.755037 
L 143.978512 380.766629 
L 144.804866 381.274598 
L 146.213195 382.241716 
L 147.516642 383.34613 
L 148.701878 384.576545 
L 149.08829 385.068793 
L 146.391508 383.411945 
" clip-path="url(#p331e143268)" style="fill: #ff0000; fill-opacity: 0.7; stroke: #000000; stroke-opacity: 0.7; stroke-width: 0.5"/>
    <path d="M 188.575925 409.476884 
L 178.236004 403.085956 
L 166.308445 395.712003 
L 164.144574 394.38807 
L 161.269037 392.615521 
L 161.765945 391.403188 
L 162.533351 389.95133 
L 162.697055 389.675023 
L 162.847774 389.425563 
L 163.69723 388.046625 
L 163.698989 388.044059 
L 163.700471 388.041367 
L 165.83954 384.571816 
L 165.848196 384.559188 
L 165.855392 384.546155 
L 165.906132 384.464182 
L 166.063496 383.524345 
L 166.500493 381.912708 
L 167.094463 380.352087 
L 167.839604 378.857729 
L 168.728634 377.444235 
L 169.752868 376.125416 
L 170.902298 374.914156 
L 172.165695 373.822291 
L 173.530713 372.860488 
L 174.984017 372.038145 
L 176.511406 371.363296 
L 178.097958 370.842534 
L 179.728172 370.480949 
L 181.386119 370.282072 
L 183.0556 370.247847 
L 185.973375 370.332327 
L 187.613022 370.377795 
L 189.202168 370.497057 
L 190.773005 370.765531 
L 192.311555 371.180829 
L 193.804126 371.739255 
L 195.237436 372.435839 
L 195.528824 372.594861 
L 197.064009 373.542414 
L 198.489394 374.648274 
L 199.788723 375.89983 
L 199.976936 376.101578 
L 200.918093 377.201325 
L 201.76165 378.377602 
L 201.910238 378.604751 
L 202.762836 380.062292 
L 203.465666 381.597667 
L 204.011707 383.195537 
L 204.395502 384.839936 
L 204.613219 386.514435 
L 204.662681 388.202304 
L 204.566233 392.860291 
L 204.465273 394.387397 
L 204.226523 395.899099 
L 203.851942 397.382991 
L 203.344605 398.826893 
L 202.708674 400.218956 
L 201.94937 401.547753 
L 200.442703 403.927309 
L 196.758589 409.932579 
L 195.661743 411.51132 
L 194.392639 412.955227 
L 194.320641 413.020426 
L 188.575925 409.476884 
" clip-path="url(#p331e143268)" style="fill: #ff0000; fill-opacity: 0.7; stroke: #000000; stroke-opacity: 0.7; stroke-width: 0.5"/>
    <path d="M 370.57708 442.982674 
L 368.177547 440.467759 
L 366.991295 439.224745 
L 365.240129 437.389619 
L 365.164446 437.31022 
L 364.76627 436.893461 
L 361.463955 433.437586 
L 358.018892 429.82646 
L 355.455493 427.135686 
L 351.663102 423.154765 
L 351.261884 422.733444 
L 350.474278 421.905669 
L 350.428435 421.057909 
L 350.420274 419.399598 
L 350.574744 417.748477 
L 350.890356 416.120457 
L 351.364068 414.531225 
L 351.991317 412.996096 
L 352.766057 411.529863 
L 353.680823 410.146655 
L 354.7268 408.859801 
L 355.893909 407.681702 
L 357.170902 406.623709 
L 358.545476 405.696019 
L 360.004383 404.90757 
L 361.533565 404.26596 
L 363.118287 403.777373 
L 364.743277 403.446515 
L 366.392878 403.276577 
L 371.230342 403.017263 
L 372.892372 403.010047 
L 374.547067 403.166185 
L 376.17841 403.484168 
L 377.770612 403.960915 
L 379.308259 404.591814 
L 380.77647 405.370757 
L 382.161032 406.290204 
L 383.448542 407.341256 
L 384.62654 408.513739 
L 385.683622 409.796304 
L 386.609556 411.176536 
L 387.39538 412.641075 
L 388.033487 414.175746 
L 388.5177 415.765693 
L 388.843334 417.395526 
L 389.007235 419.04947 
L 389.211953 423.17657 
L 389.388792 426.353723 
L 389.39961 428.011118 
L 389.247963 429.661596 
L 388.935309 431.289271 
L 388.46466 432.878473 
L 387.840544 434.413906 
L 387.068971 435.880791 
L 386.157366 437.265006 
L 385.114505 438.553228 
L 383.950426 439.733057 
L 382.676334 440.793135 
L 381.304494 441.723259 
L 379.848111 442.514476 
L 378.321204 443.159169 
L 376.738469 443.651132 
L 375.115144 443.98563 
L 373.466852 444.159444 
L 372.514932 444.212795 
L 372.496643 444.21381 
L 371.788811 444.252711 
L 370.57708 442.982674 
" clip-path="url(#p331e143268)" style="fill: #ff0000; fill-opacity: 0.7; stroke: #000000; stroke-opacity: 0.7; stroke-width: 0.5"/>
    <path d="M 445.174962 548.821115 
L 445.309602 532.850467 
L 437.885476 532.672242 
L 437.234743 531.984175 
L 436.828458 531.954105 
L 436.423186 531.912716 
L 436.019266 531.859671 
L 435.852191 531.834838 
L 435.685453 531.807977 
L 435.519053 531.779259 
L 435.28204 531.729761 
L 435.046039 531.676378 
L 434.810884 531.618772 
L 434.334153 531.50187 
L 433.861646 531.36875 
L 433.394037 531.219413 
L 432.931666 531.054365 
L 432.475376 530.873437 
L 432.320464 530.808059 
L 432.166397 530.740993 
L 432.013005 530.672068 
L 431.818562 530.578985 
L 431.62564 530.483031 
L 431.434069 530.384036 
L 431.147051 530.229124 
L 430.86358 530.067623 
L 430.583826 529.899872 
L 430.307958 529.725702 
L 429.899814 529.454901 
L 429.501131 529.170417 
L 429.112414 528.872418 
L 428.734172 528.561411 
L 428.366572 528.237734 
L 430.275016 525.329711 
L 431.484074 523.484448 
L 431.370212 523.323117 
L 430.53737 522.082468 
L 423.497667 511.637864 
L 427.317622 511.402963 
L 427.534922 511.400708 
L 427.65124 511.009949 
L 428.28051 509.469681 
L 429.058246 507.998786 
L 429.976905 506.611533 
L 431.027576 505.321378 
L 432.200065 504.140838 
L 433.482999 503.081364 
L 434.863934 502.153234 
L 436.329472 501.36545 
L 437.865398 500.725656 
L 439.456813 500.240057 
L 441.088277 499.913363 
L 442.743967 499.748745 
L 451.750511 499.299537 
L 452.094017 499.281814 
L 453.109564 499.229419 
L 457.003654 498.962843 
L 458.646675 498.930484 
L 460.285067 499.057917 
L 461.903325 499.343938 
L 461.982763 499.366116 
L 462.765747 499.351963 
L 464.434919 499.487631 
L 466.082457 499.787896 
L 467.69217 500.24981 
L 469.24824 500.868832 
L 470.735374 501.63888 
L 472.138958 502.552386 
L 473.445199 503.600372 
L 474.64126 504.772541 
L 475.715387 506.057372 
L 476.657025 507.44224 
L 477.45692 508.913535 
L 478.107211 510.456799 
L 478.601508 512.056865 
L 478.934952 513.69801 
L 479.104268 515.364105 
L 479.112295 515.519255 
L 479.348128 519.93322 
L 480.434002 521.179956 
L 481.412365 522.561136 
L 482.247607 524.033284 
L 482.931344 525.581624 
L 483.140502 526.127796 
L 483.660692 527.717782 
L 484.021071 529.351423 
L 484.218105 531.012696 
L 484.249862 532.685312 
L 484.191875 533.40784 
L 484.20498 534.66738 
L 484.144328 536.284092 
L 483.929303 537.887588 
L 483.561875 539.463161 
L 483.045416 540.996362 
L 482.384661 542.473128 
L 481.585671 543.879916 
L 480.655774 545.203821 
L 479.603499 546.432704 
L 478.438496 547.555291 
L 477.17145 548.561289 
L 475.813983 549.441469 
L 474.378544 550.18776 
L 472.878299 550.793317 
L 471.327007 551.252586 
L 469.738896 551.561354 
L 468.128531 551.71679 
L 464.563642 551.889186 
L 462.90599 551.887926 
L 461.256442 551.724212 
L 460.536 551.580354 
L 460.356851 551.613771 
L 458.086443 551.922848 
L 456.435224 552.065582 
L 454.777964 552.045825 
L 453.130616 551.863769 
L 451.509036 551.521165 
L 449.928832 551.021312 
L 449.457118 550.819361 
L 449.074572 551.962823 
L 448.397034 553.475871 
L 447.574456 554.915224 
L 446.614758 556.267021 
L 445.527183 557.518242 
L 445.098313 557.923485 
L 445.174962 548.821115 
" clip-path="url(#p331e143268)" style="fill: #ff0000; fill-opacity: 0.7; stroke: #000000; stroke-opacity: 0.7; stroke-width: 0.5"/>
    <path d="M 518.185544 593.208595 
L 515.36469 592.940329 
L 512.792169 592.915664 
L 512.653305 592.914313 
L 511.868439 592.90688 
L 505.387301 592.884243 
L 503.157715 592.87985 
L 503.08558 588.495009 
L 501.868751 586.127235 
L 500.798894 583.49035 
L 499.470569 579.704885 
L 497.673453 572.848038 
L 493.429334 566.67098 
L 489.409051 564.711012 
L 483.982058 565.486248 
L 478.331904 568.762378 
L 472.151636 571.043658 
L 466.072052 571.667868 
L 465.617283 573.645743 
L 451.281237 570.513375 
L 444.853819 570.251022 
L 444.911088 568.478401 
L 444.956024 566.880289 
L 444.994879 565.281839 
L 445.027652 563.683389 
L 445.054681 562.079702 
L 445.071116 560.811121 
L 445.796918 560.698955 
L 446.082846 560.682698 
L 446.612196 560.099335 
L 447.867509 558.967312 
L 449.229667 557.966405 
L 450.685032 557.106636 
L 452.219032 556.396613 
L 453.816309 555.843443 
L 455.46087 555.452667 
L 457.136251 555.228196 
L 458.825678 555.172277 
L 460.512235 555.28547 
L 461.425028 555.439449 
L 462.837303 555.088244 
L 464.442827 554.849506 
L 468.34906 554.45933 
L 471.108899 553.430024 
L 475.379335 550.93937 
L 476.782068 550.207046 
L 478.247168 549.609184 
L 479.76178 549.151029 
L 481.312617 548.836601 
L 486.882269 547.976681 
L 488.611732 547.800172 
L 490.350178 547.802336 
L 492.079196 547.983149 
L 493.780476 548.340698 
L 495.436003 548.871195 
L 497.028245 549.569023 
L 501.064572 551.591646 
L 502.406424 552.342319 
L 503.674467 553.211885 
L 504.858195 554.193141 
L 505.947804 555.277959 
L 506.934267 556.457352 
L 507.809412 557.72155 
L 508.868443 559.410789 
L 511.654439 563.478283 
L 512.424955 564.714337 
L 513.086134 566.012169 
L 513.63306 567.362131 
L 514.061667 568.754187 
L 515.589321 574.601125 
L 517.377407 579.420765 
L 518.072641 580.755944 
L 518.723981 582.160429 
L 519.244009 583.618644 
L 519.628359 585.118344 
L 519.8738 586.646931 
L 519.978274 588.191569 
L 519.996761 589.043563 
L 520.000034 589.256056 
L 520.008895 590.228141 
L 520.009208 590.267449 
L 520.026081 592.752995 
L 519.999146 593.383089 
L 518.185544 593.208595 
" clip-path="url(#p331e143268)" style="fill: #ff0000; fill-opacity: 0.7; stroke: #000000; stroke-opacity: 0.7; stroke-width: 0.5"/>
    <path d="M 561.507222 417.199009 
L 558.50544 425.088379 
L 555.525789 432.980282 
L 552.484477 440.852759 
L 549.304132 448.668642 
L 548.102842 451.582934 
L 546.891569 451.667807 
L 545.269224 451.625374 
L 530.694771 450.541939 
L 529.071373 450.341854 
L 527.474936 449.985707 
L 525.920424 449.476838 
L 524.422413 448.820017 
L 522.994944 448.021401 
L 521.651401 447.088478 
L 520.40438 446.029993 
L 519.26557 444.85587 
L 518.245648 443.577116 
L 517.354175 442.205719 
L 516.59951 440.754535 
L 515.988727 439.23717 
L 515.527551 437.667848 
L 515.220307 436.061282 
L 515.069875 434.432533 
L 515.077664 432.796871 
L 515.574909 423.457807 
L 515.749167 421.776143 
L 516.09064 420.120319 
L 516.595908 418.506918 
L 517.259911 416.9521 
L 518.075998 415.471438 
L 519.035996 414.079761 
L 520.130289 412.791009 
L 521.347917 411.61809 
L 522.676685 410.57275 
L 524.103284 409.66546 
L 525.613425 408.905308 
L 527.191984 408.299905 
L 528.823149 407.855318 
L 530.490584 407.575997 
L 532.177587 407.464741 
L 533.867263 407.522663 
L 550.723235 408.947462 
L 552.383745 409.171208 
L 554.013923 409.558343 
L 555.597733 410.10506 
L 557.119596 410.80598 
L 558.564541 411.654207 
L 559.918353 412.641399 
L 561.167715 413.757844 
L 562.300337 414.992559 
L 562.342304 415.048564 
L 561.507222 417.199009 
" clip-path="url(#p331e143268)" style="fill: #ff0000; fill-opacity: 0.7; stroke: #000000; stroke-opacity: 0.7; stroke-width: 0.5"/>
    <path d="M 601.279774 235.993194 
L 611.834071 240.344248 
L 613.753158 241.135702 
L 615.007321 242.070412 
L 615.476787 242.956638 
L 616.477381 243.522566 
L 616.957829 243.803164 
L 618.083264 244.460147 
L 619.80909 245.50365 
L 621.849133 246.80427 
L 622.636364 247.323572 
L 622.578522 247.476659 
L 622.394231 247.964408 
L 622.228234 248.403742 
L 622.035572 248.91365 
L 621.601476 250.062662 
L 621.529342 250.123478 
L 621.247637 250.361405 
L 621.077782 250.504762 
L 618.963578 252.289883 
L 619.030982 253.887996 
L 619.111732 256.495993 
L 617.582714 259.18643 
L 617.645388 259.226298 
L 617.672418 259.17528 
L 617.985452 259.356715 
L 618.25034 259.510276 
L 619.027097 259.960653 
L 619.29266 260.114551 
L 620.267745 260.679803 
L 615.302786 273.384288 
L 610.558623 285.113181 
L 605.825947 296.851535 
L 601.074688 308.668949 
L 597.873227 317.08877 
L 596.188283 321.520237 
L 590.771747 337.269541 
L 590.236028 337.264834 
L 588.630481 337.096632 
L 587.048321 336.775947 
L 585.503994 336.305708 
L 581.821185 334.988966 
L 580.285386 334.35301 
L 578.819522 333.569196 
L 577.437787 332.645114 
L 576.153557 331.589712 
L 574.979268 330.413206 
L 573.926289 329.126989 
L 573.004814 327.743514 
L 572.223765 326.276175 
L 571.590706 324.73918 
L 571.111764 323.147409 
L 570.791577 321.516274 
L 570.633245 319.861568 
L 570.638302 318.199313 
L 570.806697 316.545601 
L 571.136802 314.916444 
L 571.625418 313.327617 
L 572.48395 310.957811 
L 573.13037 309.416291 
L 573.925969 307.946202 
L 574.862958 306.561936 
L 575.932163 305.277046 
L 577.123116 304.104113 
L 578.424156 303.05462 
L 579.648829 302.252606 
L 579.445089 301.115761 
L 579.412507 300.718222 
L 578.362397 299.754579 
L 577.269471 298.536783 
L 576.299491 297.218961 
L 575.461557 295.813479 
L 574.763531 294.333521 
L 574.211962 292.792974 
L 573.812024 291.206291 
L 573.56747 289.588358 
L 573.480595 287.954355 
L 573.466492 284.933118 
L 573.53795 283.300096 
L 573.766898 281.681626 
L 574.151193 280.092858 
L 574.687236 278.548668 
L 575.224967 277.379007 
L 575.484072 275.752524 
L 575.46498 274.442201 
L 575.554044 273.089056 
L 576.03688 268.545547 
L 575.899975 267.884594 
L 575.611549 265.91242 
L 575.557412 263.920002 
L 575.96376 251.170686 
L 576.094445 249.544185 
L 576.381443 247.93788 
L 576.822075 246.366757 
L 577.41223 244.845475 
L 578.146403 243.388226 
L 579.017743 242.008607 
L 580.018122 240.719488 
L 581.138205 239.532898 
L 582.367543 238.459907 
L 583.694667 237.510525 
L 585.107194 236.69361 
L 586.591947 236.016783 
L 588.135072 235.48636 
L 589.722172 235.107289 
L 591.338441 234.883107 
L 592.968799 234.815905 
L 594.598035 234.90631 
L 596.652555 235.120227 
L 597.58017 235.242864 
L 600.564533 235.721851 
L 601.279774 235.993194 
" clip-path="url(#p331e143268)" style="fill: #ff0000; fill-opacity: 0.7; stroke: #000000; stroke-opacity: 0.7; stroke-width: 0.5"/>
    <path d="M 515.087639 154.975158 
L 515.500344 155.474526 
L 526.894579 169.21998 
L 528.480849 171.136009 
L 530.914693 174.075808 
L 531.384497 174.643256 
L 532.498446 175.98763 
L 532.679036 176.206737 
L 534.817567 178.786353 
L 535.414578 179.50128 
L 538.8441 183.607381 
L 542.513 188.041044 
L 543.396523 189.108536 
L 545.027408 191.079654 
L 546.697655 193.096046 
L 548.502035 195.214473 
L 549.809075 196.851947 
L 550.158599 197.273943 
L 550.630092 197.847473 
L 551.902669 199.395243 
L 556.098981 202.908893 
L 558.224673 204.703813 
L 561.089618 207.122605 
L 562.792107 208.526153 
L 562.456231 209.938869 
L 561.935272 211.46517 
L 561.67586 212.120977 
L 560.922064 213.763744 
L 559.997072 215.316573 
L 558.911471 216.761689 
L 550.64562 226.619124 
L 550.489615 226.811567 
L 550.202592 245.120255 
L 550.087308 246.84327 
L 549.796727 248.545513 
L 549.793535 248.556986 
L 551.129981 249.656974 
L 552.3586 250.773899 
L 553.471637 252.006044 
L 554.458337 253.341503 
L 555.309168 254.767377 
L 556.015912 256.269889 
L 556.57174 257.834524 
L 556.971282 259.446168 
L 557.21068 261.08925 
L 557.287619 262.747897 
L 557.257649 263.324005 
L 558.253069 264.56086 
L 559.165118 265.956146 
L 559.935217 267.434525 
L 560.555867 268.981603 
L 561.021026 270.582317 
L 561.326165 272.221082 
L 561.468311 273.88194 
L 561.446083 275.548723 
L 559.7538 302.506792 
L 559.460478 307.173 
L 559.277544 308.8073 
L 558.936572 310.416069 
L 558.440793 311.984062 
L 557.794906 313.496421 
L 557.005032 314.938814 
L 556.078655 316.297573 
L 555.024553 317.559821 
L 553.852717 318.713597 
L 552.57425 319.747968 
L 551.201269 320.653131 
L 549.746782 321.420509 
L 548.224575 322.042831 
L 546.649071 322.514198 
L 545.0352 322.830144 
L 543.398257 322.987675 
L 541.753753 322.985298 
L 530.581529 322.424677 
L 528.931259 322.26036 
L 527.305053 321.935022 
L 525.718583 321.451799 
L 524.18714 320.815348 
L 522.725481 320.031802 
L 521.347694 319.108713 
L 520.067057 318.054977 
L 518.895912 316.880749 
L 517.845546 315.597346 
L 517.564464 315.175412 
L 514.432042 317.727011 
L 513.057306 318.735843 
L 511.587874 319.600949 
L 510.038717 320.313516 
L 508.425618 320.866284 
L 506.765012 321.25362 
L 506.113215 321.337623 
L 505.417831 322.212907 
L 504.282669 323.388013 
L 503.039297 324.447964 
L 501.699347 325.382844 
L 500.275352 326.18391 
L 498.780632 326.843667 
L 495.358218 328.160461 
L 494.499131 328.46466 
L 489.919133 329.948654 
L 488.258446 330.394749 
L 483.913723 331.32765 
L 483.20443 331.464156 
L 480.985867 331.84213 
L 478.392999 332.282621 
L 476.672904 332.484787 
L 471.731287 332.809977 
L 470.385687 332.844784 
L 464.860878 332.767495 
L 463.228137 332.664213 
L 462.909715 333.578885 
L 462.282607 334.9643 
L 461.533453 336.287706 
L 460.668321 337.53838 
L 460.383069 337.91347 
L 459.771526 338.635274 
L 459.683972 339.617887 
L 459.375553 341.247271 
L 458.908867 342.838566 
L 458.28841 344.376437 
L 457.689662 345.521817 
L 458.395283 346.548636 
L 459.19541 347.999591 
L 459.849546 349.521951 
L 460.351398 351.10107 
L 460.696139 352.721757 
L 460.815076 353.784353 
L 461.331257 354.127737 
L 462.614759 355.176687 
L 463.789282 356.346375 
L 464.843517 357.62554 
L 465.767313 359.001866 
L 466.551777 360.462103 
L 467.189356 361.99219 
L 467.673911 363.577397 
L 468.000777 365.202461 
L 468.166807 366.851736 
L 468.478148 372.921394 
L 468.481723 374.579433 
L 468.322745 376.229835 
L 468.002744 377.856705 
L 467.524804 379.444369 
L 466.893528 380.977533 
L 466.114998 382.44143 
L 465.196713 383.821958 
L 464.147519 385.105817 
L 463.087768 386.16994 
L 463.110024 387.180672 
L 462.983784 388.834292 
L 462.696012 390.467566 
L 462.24948 392.064752 
L 461.648492 393.610459 
L 461.055027 394.781578 
L 461.520219 395.475181 
L 462.304338 396.936112 
L 462.86273 398.277708 
L 463.881269 398.221864 
L 465.53234 398.212148 
L 467.176474 398.363656 
L 468.797964 398.67494 
L 470.381323 399.143028 
L 471.911424 399.763446 
L 473.373653 400.53027 
L 474.75404 401.436173 
L 476.0394 402.472503 
L 477.217455 403.62936 
L 478.27695 404.895693 
L 479.207766 406.259405 
L 480.001012 407.70747 
L 480.649108 409.226055 
L 481.145865 410.800654 
L 481.486538 412.416226 
L 481.667871 414.057338 
L 482.409678 426.171153 
L 482.431076 427.790303 
L 482.297353 429.404064 
L 482.009736 430.997608 
L 481.57087 432.556294 
L 480.984785 434.065801 
L 480.256867 435.512259 
L 479.393804 436.882379 
L 478.403526 438.163572 
L 477.295131 439.344066 
L 476.078804 440.413016 
L 474.765719 441.360599 
L 473.367941 442.178109 
L 471.898314 442.858036 
L 470.370339 443.394132 
L 468.798056 443.781471 
L 467.19591 444.016495 
L 466.847996 444.033823 
L 466.851731 444.617601 
L 466.699691 446.268984 
L 466.386468 447.897503 
L 465.91508 449.487464 
L 465.290071 451.023545 
L 464.517462 452.490944 
L 463.604701 453.875519 
L 462.560581 455.163928 
L 462.500045 455.225213 
L 463.490411 456.140961 
L 464.622223 457.422984 
L 465.618622 458.812866 
L 466.469396 460.296364 
L 467.165826 461.858275 
L 467.700776 463.482593 
L 468.068763 465.152674 
L 468.266017 466.8514 
L 468.290515 468.561366 
L 468.142008 470.265046 
L 468.134967 470.315901 
L 468.393268 470.945683 
L 468.869558 472.536697 
L 469.187323 474.16679 
L 469.343493 475.820208 
L 469.336559 477.48097 
L 469.166587 479.133026 
L 468.83522 480.760408 
L 468.34566 482.34739 
L 467.70264 483.878632 
L 466.912374 485.339337 
L 465.982499 486.715386 
L 464.922002 487.99348 
L 463.514761 489.529127 
L 462.338131 490.693116 
L 461.053245 491.736378 
L 459.672437 492.648901 
L 458.208961 493.421925 
L 456.676864 494.04803 
L 455.090852 494.521206 
L 453.46615 494.836912 
L 451.818351 494.992117 
L 450.163274 494.985331 
L 448.516803 494.81662 
L 446.894744 494.487603 
L 445.312666 494.001438 
L 443.785754 493.362791 
L 442.328666 492.577793 
L 440.955387 491.653979 
L 439.679099 490.600216 
L 436.671347 487.858329 
L 435.500913 486.680973 
L 434.451692 485.39442 
L 433.533817 484.011095 
L 432.756153 482.544357 
L 432.126208 481.008371 
L 431.650068 479.417971 
L 431.33233 477.788515 
L 431.306001 477.510048 
L 431.144129 477.269446 
L 430.367784 475.83316 
L 429.733713 474.328639 
L 429.24784 472.769936 
L 428.914702 471.17161 
L 428.737411 469.548589 
L 428.717623 467.916034 
L 428.855523 466.289193 
L 429.149823 464.683261 
L 429.597775 463.11324 
L 430.195193 461.593792 
L 430.936498 460.139112 
L 431.814765 458.762786 
L 433.973034 455.715988 
L 434.731513 454.748174 
L 434.247803 454.166175 
L 433.318475 452.793944 
L 432.528078 451.337255 
L 431.88422 449.810129 
L 431.393097 448.227262 
L 431.059437 446.60389 
L 430.886449 444.955635 
L 430.7571 442.627295 
L 430.746496 440.968964 
L 430.89854 439.317584 
L 431.211766 437.689069 
L 431.683156 436.099111 
L 432.308167 434.563034 
L 433.080777 433.095639 
L 433.993539 431.711068 
L 435.037659 430.422663 
L 436.203073 429.24284 
L 437.478552 428.182968 
L 438.851804 427.253262 
L 440.309595 426.462681 
L 440.956074 426.190331 
L 440.774561 423.208691 
L 439.700936 422.884216 
L 438.16946 422.251799 
L 436.707304 421.472397 
L 435.328533 420.553506 
L 434.046411 419.503967 
L 432.873271 418.333876 
L 431.8204 417.054488 
L 430.897926 415.678113 
L 430.114722 414.217989 
L 429.478323 412.688163 
L 428.994852 411.103353 
L 428.668958 409.478803 
L 428.503778 407.830141 
L 428.466997 407.106703 
L 428.433375 407.116921 
L 426.807294 407.44122 
L 425.157253 407.604547 
L 421.682515 407.77692 
L 420.024943 407.777728 
L 418.375272 407.616087 
L 416.749382 407.293554 
L 415.162927 406.813234 
L 413.631182 406.17975 
L 412.168892 405.399203 
L 410.790137 404.479107 
L 409.508189 403.428319 
L 408.33539 402.256957 
L 407.283033 400.976297 
L 406.361248 399.59867 
L 405.57891 398.137337 
L 404.943551 396.606369 
L 404.461288 395.020504 
L 404.136763 393.395011 
L 403.973102 391.745538 
L 403.873168 389.741199 
L 403.871971 388.083099 
L 404.033328 386.432869 
L 404.355684 384.806406 
L 404.835933 383.219378 
L 404.917375 383.022394 
L 404.177152 383.064274 
L 404.147888 383.065904 
L 403.422528 383.10568 
L 401.798028 383.193523 
L 401.21129 383.225232 
L 401.189685 383.226386 
L 400.742535 383.249976 
L 400.390326 383.243486 
L 399.824034 383.300293 
L 396.304421 383.480927 
L 394.625838 383.483571 
L 392.955278 383.319617 
L 392.74589 383.2885 
L 391.245541 382.995607 
L 389.77781 382.568286 
L 388.354718 382.010036 
L 386.987916 381.32543 
L 386.802009 381.221536 
L 384.741757 379.863734 
L 384.600732 379.755229 
L 383.481569 378.814307 
L 382.44796 377.780134 
L 381.507647 376.660459 
L 381.369406 376.480583 
L 380.620007 375.423979 
L 379.953772 374.313059 
L 379.853484 374.130294 
L 379.177121 372.752783 
L 378.628553 371.319579 
L 378.212307 369.842507 
L 377.931818 368.333757 
L 377.789401 366.805778 
L 377.699426 364.913081 
L 376.926648 350.85702 
L 376.926579 350.845021 
L 376.925349 350.833074 
L 376.06997 334.86094 
L 376.062945 333.19652 
L 376.102463 332.778893 
L 375.972665 332.079288 
L 375.831312 330.629334 
L 375.682944 327.886971 
L 375.681636 327.862455 
L 375.670862 327.6578 
L 375.617796 326.667751 
L 375.605173 326.443233 
L 375.60279 326.399857 
L 375.532149 325.082989 
L 375.398223 322.60037 
L 375.361955 321.961596 
L 375.360622 321.937805 
L 375.220988 319.415585 
L 375.210733 317.756548 
L 375.363262 316.104505 
L 375.677105 314.475391 
L 376.149233 312.884918 
L 376.775094 311.348426 
L 377.548652 309.880734 
L 378.462444 308.495998 
L 379.507658 307.207574 
L 380.674214 306.027888 
L 381.950858 304.968318 
L 383.32528 304.039083 
L 384.303384 303.509494 
L 384.610572 302.936436 
L 385.551452 301.537057 
L 385.873885 301.14781 
L 385.928004 301.048397 
L 386.858798 299.677953 
L 387.919347 298.405268 
L 389.099454 297.24258 
L 390.387767 296.20107 
L 391.771899 295.290756 
L 393.238539 294.520391 
L 394.773581 293.897383 
L 396.362265 293.427725 
L 397.989311 293.115931 
L 399.031004 293.020631 
L 399.484195 291.992011 
L 400.298686 290.546869 
L 401.250987 289.188578 
L 402.331915 287.930235 
L 403.531047 286.783974 
L 404.83682 285.760848 
L 406.236644 284.870721 
L 407.71702 284.122178 
L 412.959454 281.787119 
L 413.522372 281.570568 
L 414.416303 280.480503 
L 415.588258 279.307717 
L 416.869532 278.255461 
L 418.247783 277.333871 
L 419.709736 276.551823 
L 421.241309 275.916851 
L 422.827749 275.435071 
L 424.453775 275.111123 
L 426.103726 274.948127 
L 429.067747 274.801654 
L 430.725564 274.801173 
L 432.375445 274.963187 
L 434.001502 275.286136 
L 435.588076 275.76691 
L 437.119886 276.400877 
L 438.582181 277.181935 
L 439.960878 278.102559 
L 441.242702 279.153885 
L 441.458675 279.369729 
L 441.546446 279.160127 
L 442.330132 277.706222 
L 443.252051 276.335794 
L 444.303391 275.061946 
L 445.474101 273.896852 
L 446.752991 272.851651 
L 448.127836 271.936333 
L 449.585494 271.159649 
L 451.112031 270.529021 
L 452.692854 270.050479 
L 454.312853 269.728597 
L 455.956543 269.566451 
L 458.140175 269.458438 
L 459.79014 269.457496 
L 461.432328 269.617519 
L 461.571392 269.644963 
L 463.468972 267.901825 
L 464.638856 266.920837 
L 465.892529 266.049477 
L 467.219752 265.294861 
L 468.609684 264.663154 
L 470.050973 264.159514 
L 501.760445 254.663484 
L 500.809653 253.653442 
L 499.676815 252.142502 
L 497.950871 249.550332 
L 497.212591 248.333314 
L 496.004498 246.138311 
L 495.708645 245.575989 
L 493.607996 241.394313 
L 493.035761 240.127843 
L 491.180052 235.525016 
L 490.835773 234.592928 
L 490.078951 232.342408 
L 489.774525 231.334153 
L 488.053197 224.916561 
L 487.689299 223.213257 
L 487.502715 221.481538 
L 487.49543 219.739812 
L 487.616996 217.176578 
L 487.777385 215.521743 
L 488.099664 213.890687 
L 488.533015 212.152298 
L 489.04958 210.462254 
L 489.659431 208.786164 
L 490.261223 207.343685 
L 490.993755 205.962998 
L 492.277191 203.792821 
L 494.118866 200.682312 
L 494.862723 199.534634 
L 495.696981 198.450889 
L 499.480124 193.927696 
L 500.039375 193.292111 
L 509.039767 183.565878 
L 509.636666 182.95275 
L 511.260248 181.367413 
L 512.521148 180.253326 
L 513.88662 179.270196 
L 515.343116 178.427773 
L 516.876189 177.734416 
L 518.470631 177.197001 
L 518.500343 177.190187 
L 517.733332 176.647679 
L 516.47848 175.560493 
L 515.336409 174.355377 
L 514.318152 173.043972 
L 513.433545 171.638946 
L 512.691132 170.153869 
L 512.098084 168.603088 
L 511.660129 167.001581 
L 511.381499 165.364818 
L 511.264883 163.708608 
L 511.31141 162.04895 
L 511.520629 160.401875 
L 511.89052 158.783292 
L 512.417509 157.208836 
L 513.096506 155.693715 
L 513.920953 154.252564 
L 514.182625 153.843234 
L 515.087639 154.975158 
" clip-path="url(#p331e143268)" style="fill: #ff0000; fill-opacity: 0.7; stroke: #000000; stroke-opacity: 0.7; stroke-width: 0.5"/>
    <path d="M 201.46894 175.698415 
L 207.044256 176.106728 
L 213.207969 176.558457 
L 214.608429 176.658803 
L 215.577432 176.728235 
L 215.973581 176.70999 
L 219.219134 176.560991 
L 219.400231 176.552544 
L 220.565535 176.591399 
L 220.953914 176.604407 
L 221.290598 176.615725 
L 230.089676 176.909163 
L 265.225168 178.081393 
L 267.747516 178.177854 
L 267.938918 172.471952 
L 268.19198 172.485298 
L 268.191474 172.419414 
L 268.721587 172.437996 
L 268.769058 171.008142 
L 269.190378 170.97047 
L 269.196122 171.021319 
L 269.258796 171.014055 
L 269.28836 170.085427 
L 277.968508 169.235353 
L 285.861763 168.459609 
L 288.801377 168.17597 
L 292.894977 167.789281 
L 296.930801 167.419992 
L 298.680077 167.266643 
L 299.498646 167.782404 
L 300.803587 168.795313 
L 302.00336 169.93083 
L 303.086492 171.178098 
L 304.042627 172.525191 
L 304.862622 173.959228 
L 305.538637 175.466497 
L 306.064207 177.032584 
L 306.410271 178.537959 
L 307.320577 179.456139 
L 308.339662 180.701508 
L 309.235631 182.03819 
L 310.000353 183.454057 
L 310.626889 184.936261 
L 311.109555 186.471354 
L 311.443972 188.045408 
L 311.627103 189.644139 
L 311.657289 191.253041 
L 311.424586 199.3067 
L 311.421327 199.408803 
L 311.320306 202.299458 
L 311.195812 205.909564 
L 311.057709 207.55965 
L 310.758726 209.188289 
L 310.301734 210.779834 
L 309.691125 212.318995 
L 308.932765 213.790982 
L 308.03394 215.181655 
L 307.003285 216.477652 
L 306.052365 217.45851 
L 305.646688 218.703778 
L 304.971876 220.238625 
L 304.148245 221.699022 
L 303.927185 222.013431 
L 305.508617 222.134995 
L 307.140779 222.423357 
L 308.736828 222.870273 
L 310.2814 223.47144 
L 311.759627 224.221072 
L 313.157281 225.111954 
L 314.460907 226.135509 
L 315.657956 227.281885 
L 316.736907 228.540046 
L 317.687372 229.897883 
L 318.500204 231.342324 
L 319.167577 232.859466 
L 319.683068 234.434704 
L 320.041714 236.052875 
L 320.240064 237.698403 
L 320.276207 239.355448 
L 320.217077 241.523459 
L 320.090652 243.176184 
L 319.802868 244.808563 
L 319.356496 246.404882 
L 318.755832 247.949772 
L 318.006659 249.42836 
L 317.116191 250.826411 
L 316.092999 252.130466 
L 314.946935 253.327971 
L 313.689031 254.407397 
L 312.331399 255.358352 
L 310.887107 256.17168 
L 309.370061 256.839553 
L 307.794866 257.355539 
L 306.176686 257.714672 
L 304.531101 257.913493 
L 302.873952 257.95009 
L 300.503801 257.886083 
L 298.850907 257.760085 
L 297.21832 257.472696 
L 295.621759 257.026684 
L 294.076598 256.426342 
L 292.597714 255.677451 
L 291.199349 254.787223 
L 289.894965 253.764229 
L 288.697123 252.618319 
L 287.617357 251.360528 
L 286.666064 250.002966 
L 285.852403 248.558705 
L 285.184209 247.041652 
L 284.667917 245.466414 
L 284.308496 243.848159 
L 284.109409 242.202468 
L 284.072572 240.545188 
L 284.104824 239.344692 
L 284.236574 237.644716 
L 284.539016 235.966679 
L 285.009068 234.327677 
L 285.641943 232.744406 
L 286.431192 231.232995 
L 286.949233 230.446111 
L 286.732696 230.435902 
L 285.027128 230.179434 
L 283.356599 229.750399 
L 282.777634 229.56974 
L 282.420048 229.453779 
L 281.850522 229.262058 
L 279.89825 228.466048 
L 279.010476 228.037644 
L 278.754038 227.894387 
L 278.545208 228.308283 
L 277.699769 229.652806 
L 276.731799 230.911991 
L 275.649855 232.074706 
L 274.4635 233.130676 
L 273.611917 233.819729 
L 272.285859 234.789915 
L 270.871824 235.62669 
L 269.383187 236.322138 
L 267.83403 236.869682 
L 266.23901 237.264141 
L 264.613213 237.501783 
L 262.97202 237.580362 
L 261.330956 237.499132 
L 259.705546 237.258864 
L 258.111164 236.861829 
L 256.562894 236.311784 
L 255.075383 235.613932 
L 253.662701 234.774874 
L 252.338212 233.802548 
L 251.114446 232.706151 
L 248.052785 229.682172 
L 246.911238 228.435846 
L 245.899938 227.081693 
L 245.029006 225.633268 
L 244.307159 224.105068 
L 243.741624 222.512389 
L 243.33806 220.871172 
L 243.100506 219.197844 
L 243.03134 217.509154 
L 243.131255 215.822004 
L 243.399251 214.153281 
L 243.832645 212.519688 
L 244.427099 210.937575 
L 245.176663 209.422777 
L 246.073835 207.990457 
L 247.109635 206.654951 
L 248.273695 205.429626 
L 249.237312 204.511938 
L 250.035729 203.824693 
L 250.035379 203.79729 
L 250.351246 195.116293 
L 250.537564 189.350869 
L 250.366486 189.402402 
L 249.876494 189.624112 
L 248.285668 190.160996 
L 246.649406 190.537316 
L 244.98387 190.749355 
L 243.305512 190.795019 
L 233.933656 190.583995 
L 233.905719 190.583343 
L 221.253221 190.277507 
L 221.153404 190.274799 
L 214.113984 190.063004 
L 212.476582 189.933856 
L 210.859461 189.646308 
L 209.277908 189.203077 
L 207.746873 188.608354 
L 206.280829 187.867759 
L 204.893634 186.988296 
L 203.598403 185.978276 
L 202.407379 184.847247 
L 201.33182 183.605902 
L 200.381894 182.265975 
L 199.566581 180.840132 
L 198.893587 179.341851 
L 198.369275 177.785297 
L 197.998602 176.185182 
L 197.919448 175.581497 
L 201.46894 175.698415 
" clip-path="url(#p331e143268)" style="fill: #ff0000; fill-opacity: 0.7; stroke: #000000; stroke-opacity: 0.7; stroke-width: 0.5"/>
    <path d="M 122.099358 233.891997 
L 122.200549 231.858374 
L 122.431144 227.1904 
L 122.570683 224.380527 
L 122.787763 219.977441 
L 122.887265 217.943818 
L 123.178844 212.023539 
L 124.335702 188.575382 
L 124.460206 186.025497 
L 124.628464 182.592766 
L 124.766482 179.777825 
L 124.93474 176.345093 
L 125.058906 173.815312 
L 125.708456 173.820042 
L 132.137563 173.867175 
L 138.601384 173.914493 
L 139.000042 174.000922 
L 140.558909 174.501032 
L 142.062048 175.149685 
L 143.495341 175.940788 
L 144.84533 176.866914 
L 146.099334 177.919363 
L 147.245577 179.088253 
L 148.273295 180.362605 
L 149.172836 181.730451 
L 149.935751 183.178946 
L 150.554876 184.694486 
L 151.024396 186.262838 
L 151.339902 187.869273 
L 151.498431 189.498704 
L 151.498446 189.891457 
L 152.344775 190.892311 
L 153.291104 192.266274 
L 154.097296 193.726878 
L 154.755488 195.25988 
L 155.259262 196.850327 
L 155.603705 198.482709 
L 155.785457 200.141105 
L 155.802745 201.809341 
L 155.417274 211.679192 
L 155.27224 213.324285 
L 154.967268 214.947355 
L 154.505275 216.532892 
L 153.890674 218.065742 
L 153.858053 218.128537 
L 153.854553 218.325728 
L 153.666663 219.954576 
L 153.32175 221.557537 
L 152.823063 223.11951 
L 152.175301 224.625782 
L 151.384566 226.062161 
L 150.458306 227.415118 
L 149.405247 228.671906 
L 148.23531 229.820686 
L 146.959515 230.850636 
L 145.589882 231.752054 
L 144.139313 232.516448 
L 142.621473 233.136616 
L 141.05066 233.606718 
L 139.441672 233.922324 
L 137.809666 234.08046 
L 123.763022 234.755882 
L 122.108388 234.754317 
L 122.057484 234.749265 
L 122.099358 233.891997 
" clip-path="url(#p331e143268)" style="fill: #ff0000; fill-opacity: 0.7; stroke: #000000; stroke-opacity: 0.7; stroke-width: 0.5"/>
   </g>
   <g id="matplotlib.axis_1">
    <g id="xtick_1">
     <g id="line2d_1">
      <defs>
       <path id="m8104ceaae9" d="M 0 0 
L 0 3.5 
" style="stroke: #000000; stroke-width: 0.8"/>
      </defs>
      <g>
       <use xlink:href="#m8104ceaae9" x="136.638124" y="616.73567" style="stroke: #000000; stroke-width: 0.8"/>
      </g>
     </g>
     <g id="text_1">
      <!-- 386000 -->
      <g transform="translate(117.550624 631.334107) scale(0.1 -0.1)">
       <defs>
        <path id="DejaVuSans-33" d="M 2597 2516 
Q 3050 2419 3304 2112 
Q 3559 1806 3559 1356 
Q 3559 666 3084 287 
Q 2609 -91 1734 -91 
Q 1441 -91 1130 -33 
Q 819 25 488 141 
L 488 750 
Q 750 597 1062 519 
Q 1375 441 1716 441 
Q 2309 441 2620 675 
Q 2931 909 2931 1356 
Q 2931 1769 2642 2001 
Q 2353 2234 1838 2234 
L 1294 2234 
L 1294 2753 
L 1863 2753 
Q 2328 2753 2575 2939 
Q 2822 3125 2822 3475 
Q 2822 3834 2567 4026 
Q 2313 4219 1838 4219 
Q 1578 4219 1281 4162 
Q 984 4106 628 3988 
L 628 4550 
Q 988 4650 1302 4700 
Q 1616 4750 1894 4750 
Q 2613 4750 3031 4423 
Q 3450 4097 3450 3541 
Q 3450 3153 3228 2886 
Q 3006 2619 2597 2516 
z
" transform="scale(0.015625)"/>
        <path id="DejaVuSans-38" d="M 2034 2216 
Q 1584 2216 1326 1975 
Q 1069 1734 1069 1313 
Q 1069 891 1326 650 
Q 1584 409 2034 409 
Q 2484 409 2743 651 
Q 3003 894 3003 1313 
Q 3003 1734 2745 1975 
Q 2488 2216 2034 2216 
z
M 1403 2484 
Q 997 2584 770 2862 
Q 544 3141 544 3541 
Q 544 4100 942 4425 
Q 1341 4750 2034 4750 
Q 2731 4750 3128 4425 
Q 3525 4100 3525 3541 
Q 3525 3141 3298 2862 
Q 3072 2584 2669 2484 
Q 3125 2378 3379 2068 
Q 3634 1759 3634 1313 
Q 3634 634 3220 271 
Q 2806 -91 2034 -91 
Q 1263 -91 848 271 
Q 434 634 434 1313 
Q 434 1759 690 2068 
Q 947 2378 1403 2484 
z
M 1172 3481 
Q 1172 3119 1398 2916 
Q 1625 2713 2034 2713 
Q 2441 2713 2670 2916 
Q 2900 3119 2900 3481 
Q 2900 3844 2670 4047 
Q 2441 4250 2034 4250 
Q 1625 4250 1398 4047 
Q 1172 3844 1172 3481 
z
" transform="scale(0.015625)"/>
        <path id="DejaVuSans-36" d="M 2113 2584 
Q 1688 2584 1439 2293 
Q 1191 2003 1191 1497 
Q 1191 994 1439 701 
Q 1688 409 2113 409 
Q 2538 409 2786 701 
Q 3034 994 3034 1497 
Q 3034 2003 2786 2293 
Q 2538 2584 2113 2584 
z
M 3366 4563 
L 3366 3988 
Q 3128 4100 2886 4159 
Q 2644 4219 2406 4219 
Q 1781 4219 1451 3797 
Q 1122 3375 1075 2522 
Q 1259 2794 1537 2939 
Q 1816 3084 2150 3084 
Q 2853 3084 3261 2657 
Q 3669 2231 3669 1497 
Q 3669 778 3244 343 
Q 2819 -91 2113 -91 
Q 1303 -91 875 529 
Q 447 1150 447 2328 
Q 447 3434 972 4092 
Q 1497 4750 2381 4750 
Q 2619 4750 2861 4703 
Q 3103 4656 3366 4563 
z
" transform="scale(0.015625)"/>
        <path id="DejaVuSans-30" d="M 2034 4250 
Q 1547 4250 1301 3770 
Q 1056 3291 1056 2328 
Q 1056 1369 1301 889 
Q 1547 409 2034 409 
Q 2525 409 2770 889 
Q 3016 1369 3016 2328 
Q 3016 3291 2770 3770 
Q 2525 4250 2034 4250 
z
M 2034 4750 
Q 2819 4750 3233 4129 
Q 3647 3509 3647 2328 
Q 3647 1150 3233 529 
Q 2819 -91 2034 -91 
Q 1250 -91 836 529 
Q 422 1150 422 2328 
Q 422 3509 836 4129 
Q 1250 4750 2034 4750 
z
" transform="scale(0.015625)"/>
       </defs>
       <use xlink:href="#DejaVuSans-33"/>
       <use xlink:href="#DejaVuSans-38" x="63.623047"/>
       <use xlink:href="#DejaVuSans-36" x="127.246094"/>
       <use xlink:href="#DejaVuSans-30" x="190.869141"/>
       <use xlink:href="#DejaVuSans-30" x="254.492188"/>
       <use xlink:href="#DejaVuSans-30" x="318.115234"/>
      </g>
     </g>
    </g>
    <g id="xtick_2">
     <g id="line2d_2">
      <g>
       <use xlink:href="#m8104ceaae9" x="221.10494" y="616.73567" style="stroke: #000000; stroke-width: 0.8"/>
      </g>
     </g>
     <g id="text_2">
      <!-- 386500 -->
      <g transform="translate(202.01744 631.334107) scale(0.1 -0.1)">
       <defs>
        <path id="DejaVuSans-35" d="M 691 4666 
L 3169 4666 
L 3169 4134 
L 1269 4134 
L 1269 2991 
Q 1406 3038 1543 3061 
Q 1681 3084 1819 3084 
Q 2600 3084 3056 2656 
Q 3513 2228 3513 1497 
Q 3513 744 3044 326 
Q 2575 -91 1722 -91 
Q 1428 -91 1123 -41 
Q 819 9 494 109 
L 494 744 
Q 775 591 1075 516 
Q 1375 441 1709 441 
Q 2250 441 2565 725 
Q 2881 1009 2881 1497 
Q 2881 1984 2565 2268 
Q 2250 2553 1709 2553 
Q 1456 2553 1204 2497 
Q 953 2441 691 2322 
L 691 4666 
z
" transform="scale(0.015625)"/>
       </defs>
       <use xlink:href="#DejaVuSans-33"/>
       <use xlink:href="#DejaVuSans-38" x="63.623047"/>
       <use xlink:href="#DejaVuSans-36" x="127.246094"/>
       <use xlink:href="#DejaVuSans-35" x="190.869141"/>
       <use xlink:href="#DejaVuSans-30" x="254.492188"/>
       <use xlink:href="#DejaVuSans-30" x="318.115234"/>
      </g>
     </g>
    </g>
    <g id="xtick_3">
     <g id="line2d_3">
      <g>
       <use xlink:href="#m8104ceaae9" x="305.571756" y="616.73567" style="stroke: #000000; stroke-width: 0.8"/>
      </g>
     </g>
     <g id="text_3">
      <!-- 387000 -->
      <g transform="translate(286.484256 631.334107) scale(0.1 -0.1)">
       <defs>
        <path id="DejaVuSans-37" d="M 525 4666 
L 3525 4666 
L 3525 4397 
L 1831 0 
L 1172 0 
L 2766 4134 
L 525 4134 
L 525 4666 
z
" transform="scale(0.015625)"/>
       </defs>
       <use xlink:href="#DejaVuSans-33"/>
       <use xlink:href="#DejaVuSans-38" x="63.623047"/>
       <use xlink:href="#DejaVuSans-37" x="127.246094"/>
       <use xlink:href="#DejaVuSans-30" x="190.869141"/>
       <use xlink:href="#DejaVuSans-30" x="254.492188"/>
       <use xlink:href="#DejaVuSans-30" x="318.115234"/>
      </g>
     </g>
    </g>
    <g id="xtick_4">
     <g id="line2d_4">
      <g>
       <use xlink:href="#m8104ceaae9" x="390.038572" y="616.73567" style="stroke: #000000; stroke-width: 0.8"/>
      </g>
     </g>
     <g id="text_4">
      <!-- 387500 -->
      <g transform="translate(370.951072 631.334107) scale(0.1 -0.1)">
       <use xlink:href="#DejaVuSans-33"/>
       <use xlink:href="#DejaVuSans-38" x="63.623047"/>
       <use xlink:href="#DejaVuSans-37" x="127.246094"/>
       <use xlink:href="#DejaVuSans-35" x="190.869141"/>
       <use xlink:href="#DejaVuSans-30" x="254.492188"/>
       <use xlink:href="#DejaVuSans-30" x="318.115234"/>
      </g>
     </g>
    </g>
    <g id="xtick_5">
     <g id="line2d_5">
      <g>
       <use xlink:href="#m8104ceaae9" x="474.505388" y="616.73567" style="stroke: #000000; stroke-width: 0.8"/>
      </g>
     </g>
     <g id="text_5">
      <!-- 388000 -->
      <g transform="translate(455.417888 631.334107) scale(0.1 -0.1)">
       <use xlink:href="#DejaVuSans-33"/>
       <use xlink:href="#DejaVuSans-38" x="63.623047"/>
       <use xlink:href="#DejaVuSans-38" x="127.246094"/>
       <use xlink:href="#DejaVuSans-30" x="190.869141"/>
       <use xlink:href="#DejaVuSans-30" x="254.492188"/>
       <use xlink:href="#DejaVuSans-30" x="318.115234"/>
      </g>
     </g>
    </g>
    <g id="xtick_6">
     <g id="line2d_6">
      <g>
       <use xlink:href="#m8104ceaae9" x="558.972204" y="616.73567" style="stroke: #000000; stroke-width: 0.8"/>
      </g>
     </g>
     <g id="text_6">
      <!-- 388500 -->
      <g transform="translate(539.884704 631.334107) scale(0.1 -0.1)">
       <use xlink:href="#DejaVuSans-33"/>
       <use xlink:href="#DejaVuSans-38" x="63.623047"/>
       <use xlink:href="#DejaVuSans-38" x="127.246094"/>
       <use xlink:href="#DejaVuSans-35" x="190.869141"/>
       <use xlink:href="#DejaVuSans-30" x="254.492188"/>
       <use xlink:href="#DejaVuSans-30" x="318.115234"/>
      </g>
     </g>
    </g>
    <g id="xtick_7">
     <g id="line2d_7">
      <g>
       <use xlink:href="#m8104ceaae9" x="643.43902" y="616.73567" style="stroke: #000000; stroke-width: 0.8"/>
      </g>
     </g>
     <g id="text_7">
      <!-- 389000 -->
      <g transform="translate(624.35152 631.334107) scale(0.1 -0.1)">
       <defs>
        <path id="DejaVuSans-39" d="M 703 97 
L 703 672 
Q 941 559 1184 500 
Q 1428 441 1663 441 
Q 2288 441 2617 861 
Q 2947 1281 2994 2138 
Q 2813 1869 2534 1725 
Q 2256 1581 1919 1581 
Q 1219 1581 811 2004 
Q 403 2428 403 3163 
Q 403 3881 828 4315 
Q 1253 4750 1959 4750 
Q 2769 4750 3195 4129 
Q 3622 3509 3622 2328 
Q 3622 1225 3098 567 
Q 2575 -91 1691 -91 
Q 1453 -91 1209 -44 
Q 966 3 703 97 
z
M 1959 2075 
Q 2384 2075 2632 2365 
Q 2881 2656 2881 3163 
Q 2881 3666 2632 3958 
Q 2384 4250 1959 4250 
Q 1534 4250 1286 3958 
Q 1038 3666 1038 3163 
Q 1038 2656 1286 2365 
Q 1534 2075 1959 2075 
z
" transform="scale(0.015625)"/>
       </defs>
       <use xlink:href="#DejaVuSans-33"/>
       <use xlink:href="#DejaVuSans-38" x="63.623047"/>
       <use xlink:href="#DejaVuSans-39" x="127.246094"/>
       <use xlink:href="#DejaVuSans-30" x="190.869141"/>
       <use xlink:href="#DejaVuSans-30" x="254.492188"/>
       <use xlink:href="#DejaVuSans-30" x="318.115234"/>
      </g>
     </g>
    </g>
   </g>
   <g id="matplotlib.axis_2">
    <g id="ytick_1">
     <g id="line2d_8">
      <defs>
       <path id="m8966a6f1d2" d="M 0 0 
L -3.5 0 
" style="stroke: #000000; stroke-width: 0.8"/>
      </defs>
      <g>
       <use xlink:href="#m8966a6f1d2" x="90" y="591.459456" style="stroke: #000000; stroke-width: 0.8"/>
      </g>
     </g>
     <g id="text_8">
      <!-- 5.8130 -->
      <g transform="translate(48.009375 595.258675) scale(0.1 -0.1)">
       <defs>
        <path id="DejaVuSans-2e" d="M 684 794 
L 1344 794 
L 1344 0 
L 684 0 
L 684 794 
z
" transform="scale(0.015625)"/>
        <path id="DejaVuSans-31" d="M 794 531 
L 1825 531 
L 1825 4091 
L 703 3866 
L 703 4441 
L 1819 4666 
L 2450 4666 
L 2450 531 
L 3481 531 
L 3481 0 
L 794 0 
L 794 531 
z
" transform="scale(0.015625)"/>
       </defs>
       <use xlink:href="#DejaVuSans-35"/>
       <use xlink:href="#DejaVuSans-2e" x="63.623047"/>
       <use xlink:href="#DejaVuSans-38" x="95.410156"/>
       <use xlink:href="#DejaVuSans-31" x="159.033203"/>
       <use xlink:href="#DejaVuSans-33" x="222.65625"/>
       <use xlink:href="#DejaVuSans-30" x="286.279297"/>
      </g>
     </g>
    </g>
    <g id="ytick_2">
     <g id="line2d_9">
      <g>
       <use xlink:href="#m8966a6f1d2" x="90" y="506.992641" style="stroke: #000000; stroke-width: 0.8"/>
      </g>
     </g>
     <g id="text_9">
      <!-- 5.8135 -->
      <g transform="translate(48.009375 510.791859) scale(0.1 -0.1)">
       <use xlink:href="#DejaVuSans-35"/>
       <use xlink:href="#DejaVuSans-2e" x="63.623047"/>
       <use xlink:href="#DejaVuSans-38" x="95.410156"/>
       <use xlink:href="#DejaVuSans-31" x="159.033203"/>
       <use xlink:href="#DejaVuSans-33" x="222.65625"/>
       <use xlink:href="#DejaVuSans-35" x="286.279297"/>
      </g>
     </g>
    </g>
    <g id="ytick_3">
     <g id="line2d_10">
      <g>
       <use xlink:href="#m8966a6f1d2" x="90" y="422.525825" style="stroke: #000000; stroke-width: 0.8"/>
      </g>
     </g>
     <g id="text_10">
      <!-- 5.8140 -->
      <g transform="translate(48.009375 426.325043) scale(0.1 -0.1)">
       <defs>
        <path id="DejaVuSans-34" d="M 2419 4116 
L 825 1625 
L 2419 1625 
L 2419 4116 
z
M 2253 4666 
L 3047 4666 
L 3047 1625 
L 3713 1625 
L 3713 1100 
L 3047 1100 
L 3047 0 
L 2419 0 
L 2419 1100 
L 313 1100 
L 313 1709 
L 2253 4666 
z
" transform="scale(0.015625)"/>
       </defs>
       <use xlink:href="#DejaVuSans-35"/>
       <use xlink:href="#DejaVuSans-2e" x="63.623047"/>
       <use xlink:href="#DejaVuSans-38" x="95.410156"/>
       <use xlink:href="#DejaVuSans-31" x="159.033203"/>
       <use xlink:href="#DejaVuSans-34" x="222.65625"/>
       <use xlink:href="#DejaVuSans-30" x="286.279297"/>
      </g>
     </g>
    </g>
    <g id="ytick_4">
     <g id="line2d_11">
      <g>
       <use xlink:href="#m8966a6f1d2" x="90" y="338.059009" style="stroke: #000000; stroke-width: 0.8"/>
      </g>
     </g>
     <g id="text_11">
      <!-- 5.8145 -->
      <g transform="translate(48.009375 341.858227) scale(0.1 -0.1)">
       <use xlink:href="#DejaVuSans-35"/>
       <use xlink:href="#DejaVuSans-2e" x="63.623047"/>
       <use xlink:href="#DejaVuSans-38" x="95.410156"/>
       <use xlink:href="#DejaVuSans-31" x="159.033203"/>
       <use xlink:href="#DejaVuSans-34" x="222.65625"/>
       <use xlink:href="#DejaVuSans-35" x="286.279297"/>
      </g>
     </g>
    </g>
    <g id="ytick_5">
     <g id="line2d_12">
      <g>
       <use xlink:href="#m8966a6f1d2" x="90" y="253.592193" style="stroke: #000000; stroke-width: 0.8"/>
      </g>
     </g>
     <g id="text_12">
      <!-- 5.8150 -->
      <g transform="translate(48.009375 257.391411) scale(0.1 -0.1)">
       <use xlink:href="#DejaVuSans-35"/>
       <use xlink:href="#DejaVuSans-2e" x="63.623047"/>
       <use xlink:href="#DejaVuSans-38" x="95.410156"/>
       <use xlink:href="#DejaVuSans-31" x="159.033203"/>
       <use xlink:href="#DejaVuSans-35" x="222.65625"/>
       <use xlink:href="#DejaVuSans-30" x="286.279297"/>
      </g>
     </g>
    </g>
    <g id="ytick_6">
     <g id="line2d_13">
      <g>
       <use xlink:href="#m8966a6f1d2" x="90" y="169.125377" style="stroke: #000000; stroke-width: 0.8"/>
      </g>
     </g>
     <g id="text_13">
      <!-- 5.8155 -->
      <g transform="translate(48.009375 172.924596) scale(0.1 -0.1)">
       <use xlink:href="#DejaVuSans-35"/>
       <use xlink:href="#DejaVuSans-2e" x="63.623047"/>
       <use xlink:href="#DejaVuSans-38" x="95.410156"/>
       <use xlink:href="#DejaVuSans-31" x="159.033203"/>
       <use xlink:href="#DejaVuSans-35" x="222.65625"/>
       <use xlink:href="#DejaVuSans-35" x="286.279297"/>
      </g>
     </g>
    </g>
    <g id="text_14">
     <!-- 1e6 -->
     <g transform="translate(90 107.46433) scale(0.1 -0.1)">
      <defs>
       <path id="DejaVuSans-65" d="M 3597 1894 
L 3597 1613 
L 953 1613 
Q 991 1019 1311 708 
Q 1631 397 2203 397 
Q 2534 397 2845 478 
Q 3156 559 3463 722 
L 3463 178 
Q 3153 47 2828 -22 
Q 2503 -91 2169 -91 
Q 1331 -91 842 396 
Q 353 884 353 1716 
Q 353 2575 817 3079 
Q 1281 3584 2069 3584 
Q 2775 3584 3186 3129 
Q 3597 2675 3597 1894 
z
M 3022 2063 
Q 3016 2534 2758 2815 
Q 2500 3097 2075 3097 
Q 1594 3097 1305 2825 
Q 1016 2553 972 2059 
L 3022 2063 
z
" transform="scale(0.015625)"/>
      </defs>
      <use xlink:href="#DejaVuSans-31"/>
      <use xlink:href="#DejaVuSans-65" x="63.623047"/>
      <use xlink:href="#DejaVuSans-36" x="125.146484"/>
     </g>
    </g>
   </g>
   <g id="patch_3">
    <path d="M 90 616.73567 
L 90 110.46433 
" style="fill: none; stroke: #000000; stroke-width: 0.8; stroke-linejoin: miter; stroke-linecap: square"/>
   </g>
   <g id="patch_4">
    <path d="M 648 616.73567 
L 648 110.46433 
" style="fill: none; stroke: #000000; stroke-width: 0.8; stroke-linejoin: miter; stroke-linecap: square"/>
   </g>
   <g id="patch_5">
    <path d="M 90 616.73567 
L 648 616.73567 
" style="fill: none; stroke: #000000; stroke-width: 0.8; stroke-linejoin: miter; stroke-linecap: square"/>
   </g>
   <g id="patch_6">
    <path d="M 90 110.46433 
L 648 110.46433 
" style="fill: none; stroke: #000000; stroke-width: 0.8; stroke-linejoin: miter; stroke-linecap: square"/>
   </g>
   <g id="text_15">
    <!-- Friedenau -->
    <g transform="translate(348.732025 319.752143) scale(0.12 -0.12)">
     <defs>
      <path id="DejaVuSans-46" d="M 628 4666 
L 3309 4666 
L 3309 4134 
L 1259 4134 
L 1259 2759 
L 3109 2759 
L 3109 2228 
L 1259 2228 
L 1259 0 
L 628 0 
L 628 4666 
z
" transform="scale(0.015625)"/>
      <path id="DejaVuSans-72" d="M 2631 2963 
Q 2534 3019 2420 3045 
Q 2306 3072 2169 3072 
Q 1681 3072 1420 2755 
Q 1159 2438 1159 1844 
L 1159 0 
L 581 0 
L 581 3500 
L 1159 3500 
L 1159 2956 
Q 1341 3275 1631 3429 
Q 1922 3584 2338 3584 
Q 2397 3584 2469 3576 
Q 2541 3569 2628 3553 
L 2631 2963 
z
" transform="scale(0.015625)"/>
      <path id="DejaVuSans-69" d="M 603 3500 
L 1178 3500 
L 1178 0 
L 603 0 
L 603 3500 
z
M 603 4863 
L 1178 4863 
L 1178 4134 
L 603 4134 
L 603 4863 
z
" transform="scale(0.015625)"/>
      <path id="DejaVuSans-64" d="M 2906 2969 
L 2906 4863 
L 3481 4863 
L 3481 0 
L 2906 0 
L 2906 525 
Q 2725 213 2448 61 
Q 2172 -91 1784 -91 
Q 1150 -91 751 415 
Q 353 922 353 1747 
Q 353 2572 751 3078 
Q 1150 3584 1784 3584 
Q 2172 3584 2448 3432 
Q 2725 3281 2906 2969 
z
M 947 1747 
Q 947 1113 1208 752 
Q 1469 391 1925 391 
Q 2381 391 2643 752 
Q 2906 1113 2906 1747 
Q 2906 2381 2643 2742 
Q 2381 3103 1925 3103 
Q 1469 3103 1208 2742 
Q 947 2381 947 1747 
z
" transform="scale(0.015625)"/>
      <path id="DejaVuSans-6e" d="M 3513 2113 
L 3513 0 
L 2938 0 
L 2938 2094 
Q 2938 2591 2744 2837 
Q 2550 3084 2163 3084 
Q 1697 3084 1428 2787 
Q 1159 2491 1159 1978 
L 1159 0 
L 581 0 
L 581 3500 
L 1159 3500 
L 1159 2956 
Q 1366 3272 1645 3428 
Q 1925 3584 2291 3584 
Q 2894 3584 3203 3211 
Q 3513 2838 3513 2113 
z
" transform="scale(0.015625)"/>
      <path id="DejaVuSans-61" d="M 2194 1759 
Q 1497 1759 1228 1600 
Q 959 1441 959 1056 
Q 959 750 1161 570 
Q 1363 391 1709 391 
Q 2188 391 2477 730 
Q 2766 1069 2766 1631 
L 2766 1759 
L 2194 1759 
z
M 3341 1997 
L 3341 0 
L 2766 0 
L 2766 531 
Q 2569 213 2275 61 
Q 1981 -91 1556 -91 
Q 1019 -91 701 211 
Q 384 513 384 1019 
Q 384 1609 779 1909 
Q 1175 2209 1959 2209 
L 2766 2209 
L 2766 2266 
Q 2766 2663 2505 2880 
Q 2244 3097 1772 3097 
Q 1472 3097 1187 3025 
Q 903 2953 641 2809 
L 641 3341 
Q 956 3463 1253 3523 
Q 1550 3584 1831 3584 
Q 2591 3584 2966 3190 
Q 3341 2797 3341 1997 
z
" transform="scale(0.015625)"/>
      <path id="DejaVuSans-75" d="M 544 1381 
L 544 3500 
L 1119 3500 
L 1119 1403 
Q 1119 906 1312 657 
Q 1506 409 1894 409 
Q 2359 409 2629 706 
Q 2900 1003 2900 1516 
L 2900 3500 
L 3475 3500 
L 3475 0 
L 2900 0 
L 2900 538 
Q 2691 219 2414 64 
Q 2138 -91 1772 -91 
Q 1169 -91 856 284 
Q 544 659 544 1381 
z
M 1991 3584 
L 1991 3584 
z
" transform="scale(0.015625)"/>
     </defs>
     <use xlink:href="#DejaVuSans-46"/>
     <use xlink:href="#DejaVuSans-72" x="50.269531"/>
     <use xlink:href="#DejaVuSans-69" x="91.382812"/>
     <use xlink:href="#DejaVuSans-65" x="119.166016"/>
     <use xlink:href="#DejaVuSans-64" x="180.689453"/>
     <use xlink:href="#DejaVuSans-65" x="244.166016"/>
     <use xlink:href="#DejaVuSans-6e" x="305.689453"/>
     <use xlink:href="#DejaVuSans-61" x="369.068359"/>
     <use xlink:href="#DejaVuSans-75" x="430.347656"/>
    </g>
   </g>
  </g>
 </g>
 <defs>
  <clipPath id="p331e143268">
   <rect x="90" y="110.46433" width="558" height="506.271339"/>
  </clipPath>
 </defs>
</svg>
