<?xml version="1.0" encoding="utf-8" standalone="no"?>
<!DOCTYPE svg PUBLIC "-//W3C//DTD SVG 1.1//EN"
  "http://www.w3.org/Graphics/SVG/1.1/DTD/svg11.dtd">
<svg xmlns:xlink="http://www.w3.org/1999/xlink" width="720pt" height="720pt" viewBox="0 0 720 720" xmlns="http://www.w3.org/2000/svg" version="1.1">
 <metadata>
  <rdf:RDF xmlns:dc="http://purl.org/dc/elements/1.1/" xmlns:cc="http://creativecommons.org/ns#" xmlns:rdf="http://www.w3.org/1999/02/22-rdf-syntax-ns#">
   <cc:Work>
    <dc:type rdf:resource="http://purl.org/dc/dcmitype/StillImage"/>
    <dc:date>2024-10-15T09:51:54.713612</dc:date>
    <dc:format>image/svg+xml</dc:format>
    <dc:creator>
     <cc:Agent>
      <dc:title>Matplotlib v3.8.4, https://matplotlib.org/</dc:title>
     </cc:Agent>
    </dc:creator>
   </cc:Work>
  </rdf:RDF>
 </metadata>
 <defs>
  <style type="text/css">*{stroke-linejoin: round; stroke-linecap: butt}</style>
 </defs>
 <g id="figure_1">
  <g id="patch_1">
   <path d="M 0 720 
L 720 720 
L 720 0 
L 0 0 
z
" style="fill: #ffffff"/>
  </g>
  <g id="axes_1">
   <g id="patch_2">
    <path d="M 90 564.756439 
L 648 564.756439 
L 648 162.443561 
L 90 162.443561 
z
" style="fill: #ffffff"/>
   </g>
   <g id="PatchCollection_1">
    <path d="M 471.319142 276.405075 
L 470.507498 275.748632 
L 465.125268 280.848748 
L 461.542269 284.246563 
L 459.050198 281.617773 
L 460.414001 280.306584 
L 458.381309 278.280869 
L 457.636422 277.538623 
L 456.200017 278.944667 
L 456.114025 279.028584 
L 455.610896 279.521153 
L 453.086013 276.950445 
L 452.93251 276.794679 
L 455.480588 274.282431 
L 455.023662 273.821355 
L 456.997894 271.820722 
L 456.321085 271.136557 
L 457.526858 269.916075 
L 459.196159 268.226596 
L 460.104732 267.307085 
L 458.210268 265.77375 
L 450.047064 274.034449 
L 447.85012 271.869186 
L 445.74954 269.79859 
L 445.553041 269.604165 
L 440.95379 265.055453 
L 440.230212 265.814672 
L 437.74512 263.527398 
L 440.791235 260.319483 
L 438.264654 257.91265 
L 436.678517 259.651913 
L 436.009817 259.19461 
L 434.149108 257.919628 
L 434.037281 258.046353 
L 433.169252 257.248475 
L 428.259789 253.886302 
L 426.219931 256.197902 
L 424.843682 257.750472 
L 419.29456 264.049951 
L 416.744784 261.810576 
L 414.876344 263.927751 
L 412.37824 266.753795 
L 411.140973 268.160971 
L 409.888998 269.578707 
L 407.391836 272.409653 
L 406.455165 273.470976 
L 402.078437 278.432487 
L 400.782146 279.874738 
L 400.214523 280.519678 
L 398.329677 282.660426 
L 397.9842 283.052481 
L 393.017598 288.693442 
L 395.842698 290.625244 
L 396.78993 291.271881 
L 398.560875 292.481426 
L 400.271474 293.653067 
L 402.071082 294.882224 
L 397.569327 299.791688 
L 397.188397 300.209013 
L 395.913604 301.596953 
L 394.638622 302.98678 
L 392.403208 305.425859 
L 392.345503 305.488845 
L 389.411403 308.682051 
L 387.374374 310.894836 
L 384.950569 313.526455 
L 384.567189 313.943403 
L 383.292772 315.329269 
L 382.526388 316.159394 
L 381.761889 316.991592 
L 379.721088 319.208149 
L 377.297283 321.837882 
L 375.641183 323.637113 
L 374.62248 324.745391 
L 372.704633 326.841446 
L 369.900841 330.322046 
L 369.186316 330.402758 
L 368.574 330.472155 
L 367.707292 329.812695 
L 366.844355 329.148143 
L 365.985189 328.478688 
L 365.172603 327.881458 
L 364.363222 327.279703 
L 363.557236 326.67361 
L 362.736163 326.088639 
L 361.918108 325.499141 
L 361.103447 324.905306 
L 360.17545 324.270361 
L 358.330771 322.984064 
L 357.391648 322.365337 
L 356.456108 321.740952 
L 355.52434 321.111098 
L 353.620636 319.89533 
L 352.674347 319.278866 
L 349.119069 317.04628 
L 347.94856 316.311577 
L 346.063148 315.125415 
L 340.273587 311.478111 
L 329.881758 304.943097 
L 328.074229 303.807475 
L 327.673122 303.55346 
L 327.273146 303.297558 
L 326.87449 303.039959 
L 326.350995 302.696368 
L 325.829574 302.349572 
L 325.310417 301.999569 
L 324.851416 301.683511 
L 324.3943 301.365001 
L 323.938882 301.043851 
L 323.22266 300.511493 
L 322.516432 299.965934 
L 321.820575 299.406987 
L 321.135468 298.835215 
L 320.458093 298.249866 
L 319.792032 297.651883 
L 319.137475 297.041453 
L 318.494421 296.418577 
L 317.956971 295.877921 
L 317.428384 295.328591 
L 316.908849 294.770963 
L 316.398178 294.204849 
L 316.269567 294.059832 
L 316.14171 293.91406 
L 316.014608 293.767912 
L 315.534675 293.205758 
L 315.063605 292.636061 
L 314.601398 292.059198 
L 314.148243 291.474981 
L 313.704328 290.883974 
L 313.446352 290.531898 
L 313.191582 290.177558 
L 312.940206 289.820955 
L 312.692413 289.460958 
L 312.447827 289.098698 
L 312.206634 288.734175 
L 311.906228 288.272534 
L 311.608273 287.809195 
L 311.31277 287.344348 
L 311.019341 286.877804 
L 310.728364 286.409751 
L 310.440027 285.940001 
L 310.281055 285.678631 
L 310.595982 284.383471 
L 308.732603 281.552237 
L 306.69485 278.456059 
L 308.005851 277.59331 
L 308.850873 277.09037 
L 309.699289 276.593654 
L 310.551477 276.102971 
L 311.474382 275.583248 
L 312.401436 275.07069 
L 313.33245 274.565299 
L 314.267236 274.067262 
L 314.313438 274.043501 
L 314.359828 274.019929 
L 314.406219 273.996545 
L 314.76565 273.808155 
L 315.125459 273.620707 
L 315.486021 273.434391 
L 316.335946 272.999528 
L 317.188889 272.5707 
L 318.044849 272.147906 
L 318.869705 271.749323 
L 319.958547 271.232355 
L 320.920677 270.785801 
L 321.886201 270.346789 
L 330.72018 266.37362 
L 331.357388 266.086414 
L 332.640856 265.516529 
L 333.929415 264.958147 
L 335.222878 264.411456 
L 336.606293 263.840251 
L 335.692817 261.199769 
L 338.810026 257.018409 
L 340.263969 255.057 
L 340.611709 254.588004 
L 341.064298 253.996998 
L 339.22226 251.197921 
L 337.386255 248.402239 
L 335.572503 245.599768 
L 334.119503 243.375291 
L 333.602042 242.920439 
L 331.222365 240.83683 
L 328.842688 238.753411 
L 326.440193 236.682626 
L 323.937939 235.001822 
L 321.435686 233.321395 
L 318.933244 231.641346 
L 316.430802 229.960731 
L 315.257841 229.172848 
L 313.928548 228.280115 
L 313.629273 228.749488 
L 304.291223 222.828299 
L 303.062632 224.773868 
L 298.550316 231.921197 
L 295.933029 236.065407 
L 294.52359 238.295541 
L 288.479448 247.86328 
L 287.321196 249.696644 
L 286.364535 251.21131 
L 285.364193 252.794391 
L 284.941142 253.463885 
L 283.290888 256.074572 
L 280.52255 260.456957 
L 278.504567 263.65054 
L 276.494316 266.832998 
L 274.083711 270.647006 
L 273.103667 272.202782 
L 262.307713 289.315187 
L 262.636783 290.550755 
L 261.30074 292.933724 
L 260.949002 292.745625 
L 257.86008 291.170992 
L 257.023544 290.742163 
L 236.389429 280.207203 
L 235.123876 280.622642 
L 232.934286 279.523793 
L 245.42877 254.627228 
L 246.346018 252.796693 
L 249.80512 245.902625 
L 250.72614 244.074164 
L 251.423693 242.688298 
L 254.647638 236.261152 
L 253.732088 234.727628 
L 255.114962 232.373613 
L 256.499294 230.017116 
L 241.805226 222.434924 
L 239.124388 221.049057 
L 236.431293 219.660928 
L 234.317701 218.570376 
L 233.347274 218.064608 
L 232.384956 217.543564 
L 231.430935 217.007623 
L 230.4854 216.456784 
L 229.54854 215.891236 
L 228.620732 215.311167 
L 228.013319 214.917037 
L 227.409867 214.516496 
L 226.810752 214.109731 
L 226.093586 213.61094 
L 225.382644 213.103285 
L 224.678113 212.586579 
L 223.979994 212.061387 
L 223.288663 211.527331 
L 222.349729 210.780182 
L 221.423807 210.017191 
L 220.511085 209.238172 
L 219.611941 208.443878 
L 218.726563 207.63412 
L 217.855139 206.809276 
L 216.998048 205.969534 
L 216.376681 205.343452 
L 215.763422 204.709638 
L 215.158084 204.068093 
L 214.527665 203.380911 
L 213.906486 202.685432 
L 213.294547 201.981656 
L 212.692038 201.269959 
L 212.199092 200.673484 
L 211.712747 200.07154 
L 211.233003 199.464316 
L 210.615218 198.661347 
L 210.009126 197.849515 
L 209.414913 197.029008 
L 208.832582 196.199827 
L 208.46787 195.658982 
L 208.116925 195.109463 
L 207.779557 194.55127 
L 207.456333 193.984779 
L 207.418994 193.915759 
L 207.382033 193.84655 
L 207.34526 193.777153 
L 207.173653 193.455061 
L 207.006572 193.130516 
L 206.843829 192.803709 
L 206.616968 192.350742 
L 206.382188 191.901925 
L 206.139486 191.457256 
L 205.856241 190.960162 
L 205.563001 190.468725 
L 205.259954 189.983323 
L 204.947291 189.504144 
L 203.417916 187.215927 
L 201.417848 184.224877 
L 201.189856 183.866389 
L 200.972047 183.501866 
L 200.764233 183.131308 
L 200.566791 182.755282 
L 200.88681 182.193506 
L 198.212195 180.73051 
L 195.142885 185.583966 
L 194.857188 186.035046 
L 193.683661 190.528505 
L 189.238291 207.53719 
L 187.871848 213.963582 
L 187.083965 220.086551 
L 185.791823 230.136863 
L 185.298689 233.47999 
L 184.40011 239.474348 
L 183.743479 244.066621 
L 183.676156 244.700812 
L 183.626937 245.3367 
L 183.59601 245.97372 
L 183.583564 246.611305 
L 183.589221 247.249079 
L 183.613359 247.886476 
L 183.622977 248.057705 
L 183.633914 248.228746 
L 183.645983 248.399787 
L 183.653715 248.477859 
L 183.661635 248.555742 
L 183.669933 248.633814 
L 183.710854 249.067545 
L 183.760451 249.500334 
L 183.818533 249.93218 
L 182.576364 250.70837 
L 181.214258 251.55905 
L 180.942705 251.731222 
L 171.975966 257.32881 
L 170.019272 257.293546 
L 168.862152 257.262242 
L 167.090453 257.2134 
L 166.324634 261.709686 
L 165.103774 266.717211 
L 164.923681 267.4472 
L 163.850101 271.848443 
L 162.778973 276.234599 
L 161.709354 280.611704 
L 161.476082 281.567234 
L 161.04895 283.318377 
L 159.493552 288.470353 
L 157.326026 295.652946 
L 156.344284 298.900275 
L 155.472861 301.787418 
L 154.601815 304.67475 
L 153.730392 307.560573 
L 152.85878 310.449413 
L 151.987545 313.336556 
L 151.035599 316.490161 
L 150.162479 319.377304 
L 149.291056 322.264636 
L 148.419633 325.151967 
L 146.238529 332.379631 
L 145.916248 333.461697 
L 144.881704 336.886855 
L 143.477545 340.535291 
L 142.254611 343.564811 
L 140.943799 346.560576 
L 139.522291 349.529939 
L 138.028935 352.411048 
L 136.433746 355.290271 
L 134.739742 358.094062 
L 132.965968 360.850897 
L 131.108278 363.540409 
L 131.060001 363.607543 
L 131.011537 363.674489 
L 130.963072 363.741246 
L 130.544804 364.308868 
L 130.115975 364.86857 
L 129.676775 365.420164 
L 129.227392 365.963459 
L 128.727846 366.543905 
L 128.21642 367.114168 
L 127.693491 367.67387 
L 127.159435 368.222823 
L 124.904409 370.299643 
L 123.635273 370.194227 
L 123.301865 370.369228 
L 122.285236 370.896495 
L 121.977287 371.126373 
L 123.819326 373.51265 
L 124.031666 373.356507 
L 128.505512 378.953152 
L 129.748812 380.507796 
L 129.531192 381.727524 
L 129.232106 381.906674 
L 116.793589 389.44806 
L 115.363636 390.315031 
L 118.475565 396.036703 
L 121.788708 401.98863 
L 125.566321 407.49834 
L 126.738716 409.211957 
L 129.218717 411.96502 
L 134.047468 416.546356 
L 136.854465 418.864179 
L 139.926793 420.629089 
L 142.837171 422.76178 
L 139.030289 423.653706 
L 136.732832 424.194739 
L 137.29178 426.424496 
L 140.026174 427.903898 
L 153.164089 435.007477 
L 160.42268 438.933878 
L 171.803982 445.110591 
L 173.771049 446.175496 
L 176.192968 446.753302 
L 176.479985 446.81723 
L 184.648092 448.761479 
L 195.256786 451.28655 
L 203.032272 455.494123 
L 209.638757 458.121781 
L 214.915383 460.163902 
L 227.06835 465.131825 
L 239.931129 470.114457 
L 250.828928 474.608013 
L 253.248948 475.605875 
L 260.353281 478.509047 
L 263.205537 479.645612 
L 265.106671 480.408443 
L 266.70311 481.049016 
L 267.651662 481.429003 
L 282.101332 487.371878 
L 283.852099 488.622911 
L 283.999002 488.63894 
L 298.924268 494.760588 
L 310.124535 499.33457 
L 315.614632 501.577338 
L 315.496393 500.943336 
L 316.652948 501.406486 
L 320.938215 503.124817 
L 319.824845 505.860343 
L 319.562909 506.485859 
L 319.288526 507.106095 
L 319.001886 507.720673 
L 318.702989 508.329406 
L 318.392022 508.932104 
L 318.069175 509.528579 
L 317.73407 510.118643 
L 317.387462 510.701917 
L 317.029163 511.278026 
L 316.659359 511.846968 
L 316.27843 512.408556 
L 315.886374 512.962224 
L 315.374571 513.556436 
L 314.84919 514.138956 
L 314.31042 514.709031 
L 313.758827 515.26647 
L 313.194411 515.811086 
L 312.617736 516.34269 
L 312.028804 516.860716 
L 311.428181 517.365164 
L 311.281655 517.466243 
L 311.134563 517.566378 
L 310.986906 517.665948 
L 318.353364 516.314403 
L 326.172976 515.020563 
L 334.361261 513.484588 
L 342.708518 511.917874 
L 344.033096 511.669704 
L 345.164758 511.457364 
L 346.785782 512.120596 
L 356.733508 516.191261 
L 368.062763 520.839542 
L 380.419396 525.884594 
L 390.973591 530.233412 
L 402.022429 534.646347 
L 401.85912 534.002161 
L 404.152994 534.483414 
L 407.808973 535.250553 
L 422.227339 536.802746 
L 439.106471 538.522586 
L 440.435386 538.649877 
L 440.243224 540.033857 
L 449.644826 541.026914 
L 457.944749 541.942464 
L 460.159608 542.186674 
L 461.225079 542.304725 
L 461.57659 542.343383 
L 464.512764 542.642469 
L 467.886817 542.983609 
L 471.263134 543.323428 
L 473.966036 543.593473 
L 474.121802 542.031097 
L 476.93521 542.33716 
L 483.276937 543.044232 
L 489.047068 543.687574 
L 489.106281 543.145598 
L 496.920744 543.968243 
L 502.862924 544.578043 
L 506.711631 544.973493 
L 515.558244 545.895833 
L 518.004679 546.149848 
L 519.904422 546.304672 
L 521.808692 546.410653 
L 523.715791 546.46949 
L 525.622701 546.447237 
L 527.528668 546.36464 
L 529.430486 546.206611 
L 531.314389 545.999174 
L 533.184715 545.712157 
L 535.067486 545.365172 
L 536.938001 544.968967 
L 537.949538 544.724192 
L 538.783057 544.523167 
L 540.606992 543.994014 
L 542.415463 543.396596 
L 544.204134 542.74053 
L 545.986016 542.048446 
L 547.748098 541.297525 
L 549.455302 540.47004 
L 551.131392 539.583719 
L 552.795412 538.646105 
L 554.433786 537.664552 
L 555.260515 537.129742 
L 555.803623 536.356003 
L 556.349936 535.584527 
L 556.899643 534.815502 
L 557.910426 533.409835 
L 558.932524 532.012465 
L 559.965936 530.623581 
L 561.010663 529.242807 
L 562.066328 527.870707 
L 563.133119 526.507093 
L 564.096946 525.297925 
L 565.069636 524.095734 
L 566.050812 522.900521 
L 566.205447 522.713451 
L 566.360458 522.52638 
L 566.515659 522.339687 
L 571.899775 515.852007 
L 572.501719 515.126356 
L 573.405201 514.040141 
L 574.248337 513.023135 
L 575.211786 511.851494 
L 581.876542 503.832365 
L 584.945852 500.285196 
L 585.722797 499.198981 
L 594.391204 488.755104 
L 597.022634 485.733316 
L 605.360084 475.539683 
L 606.029728 474.732189 
L 607.641135 472.788317 
L 609.814318 470.169145 
L 610.46831 469.382016 
L 611.830792 467.76797 
L 612.436319 467.038358 
L 614.886336 464.086721 
L 620.339661 457.490419 
L 622.620334 454.743202 
L 622.636364 452.409161 
L 619.442026 448.444855 
L 612.942654 440.386878 
L 599.339892 423.516421 
L 593.169967 415.975716 
L 592.937449 417.098704 
L 592.353986 417.352154 
L 591.76298 417.587689 
L 591.164996 417.80512 
L 590.560789 418.003882 
L 589.950548 418.184164 
L 589.335215 418.345587 
L 588.715167 418.488153 
L 588.09116 418.611484 
L 587.790565 418.663531 
L 587.489216 418.711053 
L 587.187113 418.754427 
L 586.594975 418.826841 
L 586.000951 418.882094 
L 585.405608 418.920376 
L 584.80951 418.941308 
L 584.212846 418.945268 
L 583.616371 418.932068 
L 583.02065 418.901518 
L 578.881343 418.63053 
L 574.742036 418.359542 
L 570.602729 418.088554 
L 566.470588 417.836047 
L 562.271125 417.562985 
L 561.618642 417.520555 
L 561.046871 417.462284 
L 557.287927 417.217131 
L 554.246527 417.017992 
L 552.23703 416.885421 
L 546.637934 416.518824 
L 543.720618 416.327793 
L 539.581311 416.056805 
L 535.444078 415.785817 
L 531.679289 415.540853 
L 527.916574 415.294004 
L 525.340398 415.126168 
L 524.153671 415.04904 
L 520.390956 414.80219 
L 519.825974 414.76504 
L 516.62843 414.55534 
L 512.865526 414.310187 
L 509.665719 414.100676 
L 509.102623 414.063338 
L 505.90489 413.853827 
L 505.341794 413.816488 
L 501.580965 413.571712 
L 497.818061 413.324863 
L 494.057043 413.079899 
L 490.292631 412.83286 
L 486.343223 412.575073 
L 482.394004 412.317097 
L 480.700943 412.205647 
L 478.631478 412.070247 
L 479.634152 411.191847 
L 480.492186 397.950779 
L 481.581795 381.136329 
L 481.600464 380.808579 
L 481.616116 380.480829 
L 481.628751 380.152891 
L 481.651192 379.334081 
L 481.655152 378.514894 
L 481.640631 377.695896 
L 481.60763 376.877464 
L 481.556148 376.059974 
L 481.486185 375.243804 
L 481.396799 374.428578 
L 481.28912 373.615426 
L 481.162961 372.805102 
L 481.018509 371.997796 
L 480.855954 371.193884 
L 480.675107 370.393932 
L 480.478608 369.608312 
L 480.26476 368.827407 
L 480.033562 368.051216 
L 479.785203 367.280683 
L 479.519684 366.515618 
L 481.726057 365.21499 
L 482.540153 364.734491 
L 480.040351 360.540684 
L 477.572418 356.351027 
L 479.97944 354.91085 
L 481.785648 353.832933 
L 482.152246 353.613238 
L 483.435337 352.862694 
L 485.086345 351.896605 
L 486.743388 350.926932 
L 488.397036 349.958768 
L 490.234738 348.883302 
L 492.073382 347.807648 
L 493.909386 346.733503 
L 495.745579 345.658037 
L 497.583658 344.58408 
L 499.421736 343.508426 
L 501.260003 342.430886 
L 503.100345 341.355232 
L 504.677242 340.432704 
L 504.936349 340.281276 
L 505.056474 340.210181 
L 506.760096 339.182615 
L 508.581579 338.082257 
L 509.676657 337.420534 
L 510.390617 336.954932 
L 512.179665 335.791778 
L 515.106598 333.888262 
L 516.150571 333.208624 
L 514.314944 330.675443 
L 512.325059 327.927472 
L 510.062489 325.352238 
L 507.849139 322.83471 
L 505.909605 320.627205 
L 503.931035 318.373876 
L 502.003947 316.182212 
L 499.763253 313.632059 
L 497.640608 311.217495 
L 495.699 309.006407 
L 493.835275 306.883952 
L 492.013037 308.584179 
L 489.404236 311.025144 
L 486.155964 307.516634 
L 482.915047 304.013781 
L 485.529694 301.572438 
L 488.291998 299.006256 
L 493.400035 294.255199 
L 491.18857 292.459551 
L 484.176075 286.794075 
L 478.669571 282.344744 
L 472.489274 277.351175 
L 471.319142 276.405075 
" clip-path="url(#pc677f04cc3)" style="fill: #d3d3d3"/>
   </g>
   <g id="PatchCollection_2">
    <path d="M 315.534675 293.205758 
L 316.014608 293.767912 
L 316.14171 293.91406 
L 316.269567 294.059832 
L 316.398178 294.204849 
L 316.908849 294.770963 
L 317.428384 295.328591 
L 317.956971 295.877921 
L 318.494421 296.418577 
L 319.137475 297.041453 
L 319.792032 297.651883 
L 320.458093 298.249866 
L 321.135468 298.835215 
L 321.820575 299.406987 
L 322.516432 299.965934 
L 323.22266 300.511493 
L 323.938882 301.043851 
L 324.3943 301.365001 
L 324.851416 301.683511 
L 325.310417 301.999569 
L 325.829574 302.349572 
L 326.350995 302.696368 
L 326.87449 303.039959 
L 327.273146 303.297558 
L 327.673122 303.55346 
L 328.074229 303.807475 
L 329.881758 304.943097 
L 340.273587 311.478111 
L 346.063148 315.125415 
L 347.94856 316.311577 
L 349.119069 317.04628 
L 352.674347 319.278866 
L 353.620636 319.89533 
L 355.52434 321.111098 
L 356.456108 321.740952 
L 357.391648 322.365337 
L 358.330771 322.984064 
L 360.17545 324.270361 
L 361.103447 324.905306 
L 361.918108 325.499141 
L 362.736163 326.088639 
L 363.557236 326.67361 
L 364.363222 327.279703 
L 365.172603 327.881458 
L 365.985189 328.478688 
L 366.844355 329.148143 
L 367.707292 329.812695 
L 368.574 330.472155 
L 369.186316 330.402758 
L 369.900841 330.322046 
L 372.704633 326.841446 
L 374.62248 324.745391 
L 375.641183 323.637113 
L 377.297283 321.837882 
L 379.721088 319.208149 
L 381.761889 316.991592 
L 382.526388 316.159394 
L 383.292772 315.329269 
L 384.567189 313.943403 
L 384.950569 313.526455 
L 387.374374 310.894836 
L 389.411403 308.682051 
L 392.345503 305.488845 
L 392.403208 305.425859 
L 394.638622 302.98678 
L 395.913604 301.596953 
L 397.188397 300.209013 
L 397.569327 299.791688 
L 398.882042 298.360085 
L 399.550252 298.628025 
L 401.207193 299.491651 
L 402.770535 300.515011 
L 404.22493 301.688059 
L 407.697954 304.785429 
L 408.160363 305.24041 
L 408.442701 304.740749 
L 409.509929 303.222754 
L 410.72118 301.816996 
L 412.064725 300.537085 
L 413.497842 299.418605 
L 413.626579 299.251388 
L 414.873388 297.920635 
L 416.242902 296.716531 
L 417.722315 295.650335 
L 419.297792 294.732017 
L 420.954602 293.970166 
L 422.677251 293.371904 
L 424.44963 292.942826 
L 426.255166 292.686945 
L 428.076976 292.606654 
L 433.308227 292.629282 
L 435.19115 292.731709 
L 437.054429 293.021672 
L 438.879434 293.496273 
L 440.647917 294.150765 
L 442.342193 294.978604 
L 443.945322 295.971512 
L 445.441273 297.119562 
L 446.815089 298.411273 
L 448.053033 299.833731 
L 449.142725 301.37271 
L 449.58091 302.145024 
L 449.676369 302.084136 
L 451.313188 301.251918 
L 453.023186 300.582837 
L 454.790151 300.083236 
L 456.597328 299.757854 
L 458.427584 299.609775 
L 460.263565 299.640402 
L 462.087863 299.849446 
L 463.883182 300.234925 
L 465.6325 300.793183 
L 467.31923 301.518927 
L 468.927381 302.405278 
L 469.178835 302.560291 
L 470.772449 303.086214 
L 471.388558 302.670612 
L 473.020206 301.789638 
L 473.080855 301.76423 
L 474.124106 300.73607 
L 475.50201 299.505176 
L 476.993754 298.41503 
L 478.585019 297.476096 
L 480.260529 296.697388 
L 482.0042 296.086381 
L 483.799295 295.648939 
L 485.628581 295.389263 
L 487.474499 295.309844 
L 489.319328 295.411445 
L 491.145361 295.693091 
L 491.70092 295.83557 
L 488.291998 299.006256 
L 485.529694 301.572438 
L 482.915047 304.013781 
L 486.155964 307.516634 
L 489.404236 311.025144 
L 492.013037 308.584179 
L 493.835275 306.883952 
L 495.699 309.006407 
L 497.640608 311.217495 
L 499.763253 313.632059 
L 502.003947 316.182212 
L 503.931035 318.373876 
L 505.909605 320.627205 
L 507.849139 322.83471 
L 510.062489 325.352238 
L 512.325059 327.927472 
L 514.314944 330.675443 
L 516.150571 333.208624 
L 515.106598 333.888262 
L 512.179665 335.791778 
L 510.390617 336.954932 
L 509.676657 337.420534 
L 508.581579 338.082257 
L 506.760096 339.182615 
L 505.056474 340.210181 
L 504.936349 340.281276 
L 504.677242 340.432704 
L 503.100345 341.355232 
L 501.260003 342.430886 
L 499.421736 343.508426 
L 497.583658 344.58408 
L 495.745579 345.658037 
L 493.909386 346.733503 
L 492.073382 347.807648 
L 490.234738 348.883302 
L 488.397036 349.958768 
L 486.743388 350.926932 
L 485.086345 351.896605 
L 483.435337 352.862694 
L 482.152246 353.613238 
L 481.785648 353.832933 
L 479.97944 354.91085 
L 477.572418 356.351027 
L 480.040351 360.540684 
L 482.540153 364.734491 
L 481.726057 365.21499 
L 479.519684 366.515618 
L 479.785203 367.280683 
L 480.033562 368.051216 
L 480.26476 368.827407 
L 480.478608 369.608312 
L 480.675107 370.393932 
L 480.855954 371.193884 
L 481.018509 371.997796 
L 481.162961 372.805102 
L 481.28912 373.615426 
L 481.396799 374.428578 
L 481.486185 375.243804 
L 481.556148 376.059974 
L 481.60763 376.877464 
L 481.640631 377.695896 
L 481.655152 378.514894 
L 481.651192 379.334081 
L 481.628751 380.152891 
L 481.616116 380.480829 
L 481.600464 380.808579 
L 481.581795 381.136329 
L 480.492186 397.950779 
L 479.634152 411.191847 
L 478.631478 412.070247 
L 480.700943 412.205647 
L 482.394004 412.317097 
L 486.343223 412.575073 
L 490.292631 412.83286 
L 492.958038 413.007777 
L 491.536476 414.139906 
L 490.08682 415.077007 
L 489.77993 416.505286 
L 489.213246 418.273454 
L 488.475425 419.977323 
L 488.462435 420.000702 
L 489.02592 419.925336 
L 490.875481 419.860978 
L 498.599288 419.971483 
L 500.446314 420.088736 
L 502.272952 420.386475 
L 504.061608 420.861834 
L 505.795053 421.510234 
L 507.456592 422.32543 
L 509.030221 423.299569 
L 510.275791 424.251347 
L 510.724245 423.170254 
L 511.594456 421.543093 
L 512.619528 420.00877 
L 513.789647 418.581975 
L 515.093608 417.276369 
L 516.518928 416.104453 
L 518.051958 415.077448 
L 518.764162 414.695405 
L 519.825974 414.76504 
L 520.390956 414.80219 
L 524.153671 415.04904 
L 525.340398 415.126168 
L 527.916574 415.294004 
L 531.679289 415.540853 
L 535.444078 415.785817 
L 539.581311 416.056805 
L 539.925062 416.07931 
L 539.961795 416.103687 
L 541.395833 417.273025 
L 542.708368 418.577273 
L 543.886765 420.003875 
L 544.919679 421.539096 
L 545.797164 423.168155 
L 546.510773 424.875368 
L 547.053635 426.644298 
L 547.420523 428.457915 
L 547.607906 430.298757 
L 547.613979 432.149102 
L 547.492926 434.790437 
L 547.318299 436.627849 
L 546.964891 438.43939 
L 546.436085 440.207706 
L 545.736948 441.915858 
L 544.874177 443.547484 
L 544.838826 443.600935 
L 545.84305 443.683301 
L 546.483804 443.799904 
L 546.479806 443.688171 
L 546.633672 441.620024 
L 546.719365 440.960855 
L 547.104434 438.901516 
L 547.715558 436.897598 
L 548.545194 434.973836 
L 548.842498 434.377868 
L 549.864448 432.582732 
L 551.076606 430.910139 
L 552.464428 429.380158 
L 552.938639 428.91171 
L 554.508068 427.524838 
L 556.221609 426.320555 
L 558.058126 425.313716 
L 558.659374 425.026295 
L 560.564929 424.240233 
L 562.544894 423.666848 
L 564.575613 423.312992 
L 565.237889 423.234587 
L 567.300671 423.10444 
L 569.365307 423.200822 
L 571.406994 423.522577 
L 572.058273 423.662165 
L 574.060139 424.207971 
L 575.989924 424.970406 
L 577.824263 425.940238 
L 578.395572 426.283781 
L 580.119487 427.454785 
L 581.703663 428.80886 
L 582.399412 429.551244 
L 582.515994 429.360542 
L 583.631316 427.883863 
L 584.886003 426.523609 
L 586.267971 425.292881 
L 587.763912 424.203529 
L 589.359421 423.266044 
L 591.039134 422.489454 
L 592.786875 421.881236 
L 594.264917 421.524664 
L 594.708461 420.335112 
L 595.467988 418.784292 
L 599.339892 423.516421 
L 612.942654 440.386878 
L 619.442026 448.444855 
L 622.636364 452.409161 
L 622.620334 454.743202 
L 620.339661 457.490419 
L 614.886336 464.086721 
L 612.436319 467.038358 
L 611.830792 467.76797 
L 610.46831 469.382016 
L 609.814318 470.169145 
L 607.641135 472.788317 
L 606.029728 474.732189 
L 605.360084 475.539683 
L 597.022634 485.733316 
L 594.391204 488.755104 
L 585.722797 499.198981 
L 584.945852 500.285196 
L 581.876542 503.832365 
L 575.211786 511.851494 
L 574.248337 513.023135 
L 573.405201 514.040141 
L 572.501719 515.126356 
L 571.899775 515.852007 
L 566.515659 522.339687 
L 566.360458 522.52638 
L 566.205447 522.713451 
L 566.050812 522.900521 
L 565.069636 524.095734 
L 564.096946 525.297925 
L 563.133119 526.507093 
L 562.066328 527.870707 
L 561.010663 529.242807 
L 559.965936 530.623581 
L 558.932524 532.012465 
L 557.910426 533.409835 
L 556.899643 534.815502 
L 556.349936 535.584527 
L 555.803623 536.356003 
L 555.260515 537.129742 
L 554.433786 537.664552 
L 552.795412 538.646105 
L 551.131392 539.583719 
L 549.455302 540.47004 
L 547.748098 541.297525 
L 545.986016 542.048446 
L 544.204134 542.74053 
L 542.415463 543.396596 
L 540.606992 543.994014 
L 538.783057 544.523167 
L 537.949538 544.724192 
L 536.938001 544.968967 
L 535.067486 545.365172 
L 533.184715 545.712157 
L 531.314389 545.999174 
L 529.430486 546.206611 
L 527.528668 546.36464 
L 525.622701 546.447237 
L 523.715791 546.46949 
L 521.808692 546.410653 
L 519.904422 546.304672 
L 518.004679 546.149848 
L 515.558244 545.895833 
L 506.711631 544.973493 
L 502.862924 544.578043 
L 496.920744 543.968243 
L 489.106281 543.145598 
L 489.047068 543.687574 
L 483.276937 543.044232 
L 476.93521 542.33716 
L 474.121802 542.031097 
L 473.966036 543.593473 
L 471.263134 543.323428 
L 467.886817 542.983609 
L 464.512764 542.642469 
L 461.57659 542.343383 
L 461.225079 542.304725 
L 460.159608 542.186674 
L 457.944749 541.942464 
L 449.644826 541.026914 
L 440.243224 540.033857 
L 440.435386 538.649877 
L 439.106471 538.522586 
L 422.227339 536.802746 
L 407.808973 535.250553 
L 404.152994 534.483414 
L 401.85912 534.002161 
L 402.022429 534.646347 
L 390.973591 530.233412 
L 386.340609 528.324408 
L 386.793739 527.29439 
L 387.253062 526.374664 
L 387.466242 525.898364 
L 389.149847 505.815456 
L 389.392368 503.994089 
L 389.810994 502.204971 
L 390.401751 500.465086 
L 391.15903 498.790953 
L 392.075642 497.198465 
L 393.142885 495.702742 
L 394.350626 494.317984 
L 395.6874 493.057338 
L 397.140515 491.932771 
L 398.696175 490.95496 
L 400.339612 490.133189 
L 402.055223 489.475258 
L 403.826721 488.987415 
L 405.637286 488.674291 
L 407.46973 488.538858 
L 409.306656 488.582403 
L 411.130625 488.804512 
L 411.497526 488.886038 
L 411.643276 488.755353 
L 413.135022 487.661249 
L 414.726793 486.718575 
L 416.40327 485.936402 
L 418.148319 485.322257 
L 419.071989 485.095967 
L 419.558529 484.422681 
L 422.0428 468.062312 
L 422.43132 466.165666 
L 423.012253 464.31885 
L 423.779476 462.541328 
L 424.724904 460.851837 
L 425.838571 459.268183 
L 427.108739 457.807057 
L 428.522021 456.483861 
L 430.06352 455.31254 
L 430.763794 454.835074 
L 429.335661 454.829246 
L 427.480623 454.730177 
L 425.644333 454.44907 
L 423.84461 453.988655 
L 422.09892 453.3534 
L 420.424203 452.549468 
L 418.836711 451.584662 
L 417.351849 450.468344 
L 416.233292 449.440416 
L 414.881876 450.616616 
L 413.39963 451.673916 
L 411.822331 452.583347 
L 410.164681 453.336431 
L 408.442134 453.926149 
L 407.047408 454.257514 
L 408.057968 455.412882 
L 409.133429 456.917665 
L 410.056304 458.520566 
L 410.817717 460.206164 
L 411.410342 461.958244 
L 411.828478 463.759952 
L 412.532342 467.650496 
L 412.772135 469.486563 
L 412.830705 471.337296 
L 412.707488 473.184851 
L 412.403671 475.011416 
L 411.922186 476.79938 
L 411.267672 478.531504 
L 410.446441 480.191089 
L 409.466411 481.762135 
L 408.337029 483.229493 
L 407.069186 484.579017 
L 405.675104 485.797697 
L 404.168225 486.873781 
L 402.563076 487.796896 
L 400.875134 488.55814 
L 399.120672 489.150176 
L 397.316606 489.567294 
L 391.675009 490.582838 
L 389.840789 490.820853 
L 387.992074 490.878038 
L 386.14665 490.753842 
L 384.322269 490.44946 
L 383.994667 490.361104 
L 384.017896 491.118637 
L 383.893039 492.965037 
L 383.587806 494.790309 
L 383.105134 496.576873 
L 382.449674 498.307525 
L 381.627737 499.965597 
L 380.64724 501.535122 
L 379.517624 503.000984 
L 378.249768 504.349067 
L 376.855883 505.566387 
L 375.349392 506.641221 
L 373.744804 507.563219 
L 372.057571 508.3235 
L 370.303941 508.914744 
L 368.500805 509.331255 
L 366.665526 509.569024 
L 362.724321 509.884001 
L 360.874839 509.940742 
L 359.028699 509.815955 
L 357.203676 509.510842 
L 355.417339 509.028341 
L 353.686889 508.373096 
L 352.028984 507.551417 
L 350.459587 506.571214 
L 350.001694 506.218437 
L 350.156244 506.851831 
L 350.424658 508.970514 
L 350.45707 509.437034 
L 350.499819 511.057036 
L 350.403323 512.674727 
L 350.275246 513.548504 
L 346.785782 512.120596 
L 345.164758 511.457364 
L 344.033096 511.669704 
L 342.708518 511.917874 
L 334.361261 513.484588 
L 326.172976 515.020563 
L 318.353364 516.314403 
L 311.298351 517.608806 
L 311.265763 517.53187 
L 311.252116 517.486352 
L 311.281655 517.466243 
L 311.428181 517.365164 
L 312.028804 516.860716 
L 312.617736 516.34269 
L 313.194411 515.811086 
L 313.758827 515.26647 
L 314.31042 514.709031 
L 314.84919 514.138956 
L 315.374571 513.556436 
L 315.886374 512.962224 
L 316.27843 512.408556 
L 316.659359 511.846968 
L 317.029163 511.278026 
L 317.387462 510.701917 
L 317.73407 510.118643 
L 318.069175 509.528579 
L 318.392022 508.932104 
L 318.702989 508.329406 
L 319.001886 507.720673 
L 319.288526 507.106095 
L 319.562909 506.485859 
L 319.824845 505.860343 
L 320.938215 503.124817 
L 316.652948 501.406486 
L 315.496393 500.943336 
L 315.614632 501.577338 
L 312.796081 500.425927 
L 313.824247 498.825188 
L 314.206223 498.352232 
L 312.755938 498.282491 
L 310.954647 498.020166 
L 309.187038 497.585393 
L 307.469583 496.982222 
L 303.938969 495.547321 
L 303.833246 495.498211 
L 303.878192 495.621083 
L 304.213489 496.920608 
L 298.924268 494.760588 
L 283.999002 488.63894 
L 283.852099 488.622911 
L 282.101332 487.371878 
L 267.651662 481.429003 
L 266.70311 481.049016 
L 265.106671 480.408443 
L 263.205537 479.645612 
L 260.353281 478.509047 
L 253.248948 475.605875 
L 250.828928 474.608013 
L 239.931129 470.114457 
L 227.06835 465.131825 
L 214.915383 460.163902 
L 209.638757 458.121781 
L 203.032272 455.494123 
L 195.256786 451.28655 
L 192.172264 450.552375 
L 192.111931 450.096487 
L 192.052756 448.207465 
L 192.058207 447.917819 
L 191.176878 447.254205 
L 189.829654 446.018151 
L 188.608462 444.657441 
L 187.52478 443.184866 
L 186.588796 441.614269 
L 185.809307 439.960413 
L 185.19364 438.238845 
L 184.747584 436.465747 
L 184.475331 434.657787 
L 184.452542 434.223887 
L 184.368078 434.141739 
L 183.195697 432.758605 
L 182.161568 431.269272 
L 181.275251 429.687508 
L 180.544938 428.027936 
L 179.977382 426.305898 
L 179.577829 424.537313 
L 179.572906 424.498448 
L 179.417944 424.532749 
L 177.58414 424.753602 
L 175.737526 424.793997 
L 173.891438 424.743917 
L 172.04268 424.602578 
L 170.216737 424.280368 
L 168.431263 423.780402 
L 166.703517 423.107512 
L 165.050203 422.268205 
L 163.487304 421.270592 
L 162.029928 420.12432 
L 160.692164 418.840469 
L 159.486946 417.431451 
L 158.425923 415.910886 
L 157.519354 414.293475 
L 156.776003 412.594854 
L 156.203055 410.831444 
L 155.80605 409.020292 
L 155.588826 407.178907 
L 155.553481 405.32509 
L 155.61135 403.404244 
L 155.75801 401.557612 
L 156.08514 399.734278 
L 156.589586 397.951838 
L 157.076085 396.71251 
L 156.611607 396.27124 
L 155.401727 394.871801 
L 154.334787 393.360552 
L 153.421053 391.752034 
L 152.669318 390.061729 
L 152.086818 388.305901 
L 151.679157 386.501448 
L 151.450258 384.665735 
L 151.402324 382.816427 
L 151.437102 381.314755 
L 151.570763 379.468265 
L 151.571418 379.464461 
L 150.428637 378.918193 
L 148.837774 377.954664 
L 147.349563 376.83911 
L 145.97848 375.582382 
L 144.737863 374.196705 
L 143.639779 372.695558 
L 142.694909 371.093542 
L 141.912445 369.406242 
L 141.299998 367.65007 
L 140.863525 365.842108 
L 140.607273 363.999945 
L 140.533733 362.141498 
L 140.576714 357.748474 
L 140.691214 355.849899 
L 140.99638 353.972516 
L 141.489107 352.135422 
L 142.164383 350.357305 
L 143.015339 348.656256 
L 144.033318 347.049578 
L 145.207963 345.553615 
L 146.527326 344.183587 
L 147.977984 342.95343 
L 149.545181 341.875659 
L 151.212972 340.961238 
L 152.964393 340.219469 
L 154.781625 339.657898 
L 156.646183 339.282238 
L 158.539097 339.09631 
L 160.441113 339.102006 
L 161.489147 339.158073 
L 163.396179 339.357717 
L 165.27308 339.749983 
L 165.808892 339.920293 
L 166.305558 319.417282 
L 165.61349 317.895816 
L 165.015189 316.140619 
L 164.592167 314.335146 
L 164.348514 312.496855 
L 164.286587 310.643522 
L 164.351061 306.559416 
L 164.351416 306.537742 
L 164.41895 302.550226 
L 164.424667 302.306052 
L 164.465479 300.940901 
L 164.610143 299.106435 
L 164.932913 297.294802 
L 165.430716 295.523254 
L 166.098812 293.808657 
L 166.930838 292.167339 
L 167.918873 290.614928 
L 169.053509 289.166206 
L 170.323941 287.834968 
L 171.718073 286.633889 
L 173.222629 285.574407 
L 174.787544 284.686879 
L 174.918222 283.872842 
L 175.389453 282.082579 
L 176.033949 280.347147 
L 176.845498 278.683269 
L 177.816279 277.106981 
L 178.936937 275.633473 
L 179.581798 274.939064 
L 177.913191 274.149426 
L 176.326036 273.197647 
L 176.160656 273.074935 
L 175.965669 273.09486 
L 174.071022 273.097361 
L 172.185687 272.909735 
L 170.328694 272.533875 
L 168.518788 271.973577 
L 166.77424 271.234495 
L 165.112657 270.32409 
L 164.349728 269.800176 
L 164.923681 267.4472 
L 165.103774 266.717211 
L 166.324634 261.709686 
L 167.090453 257.2134 
L 168.862152 257.262242 
L 170.019272 257.293546 
L 171.975966 257.32881 
L 180.942705 251.731222 
L 181.214258 251.55905 
L 182.576364 250.70837 
L 183.818533 249.93218 
L 183.760451 249.500334 
L 183.710854 249.067545 
L 183.669933 248.633814 
L 183.661635 248.555742 
L 183.653715 248.477859 
L 183.645983 248.399787 
L 183.633914 248.228746 
L 183.622977 248.057705 
L 183.613359 247.886476 
L 183.589221 247.249079 
L 183.583564 246.611305 
L 183.59601 245.97372 
L 183.626937 245.3367 
L 183.676156 244.700812 
L 183.743479 244.066621 
L 184.40011 239.474348 
L 185.298689 233.47999 
L 185.791823 230.136863 
L 187.083965 220.086551 
L 187.871848 213.963582 
L 189.238291 207.53719 
L 193.325128 191.900309 
L 194.111452 192.83888 
L 195.141164 194.341679 
L 196.00198 195.73817 
L 197.029557 196.035667 
L 198.763761 196.730162 
L 200.420742 197.592831 
L 201.98424 198.61521 
L 203.438912 199.787265 
L 204.770484 201.097495 
L 205.965887 202.533042 
L 207.013392 204.079819 
L 207.902718 205.722647 
L 208.625139 207.445404 
L 209.173566 209.231185 
L 209.542616 211.062465 
L 209.728668 212.921274 
L 209.729897 214.78937 
L 209.48342 219.826425 
L 209.303958 221.657531 
L 208.946909 223.462434 
L 208.415673 225.223952 
L 207.715307 226.925317 
L 206.852477 228.550335 
L 205.835397 230.083536 
L 204.673749 231.510326 
L 203.378589 232.817123 
L 201.962248 233.991488 
L 200.438206 235.022242 
L 198.820972 235.899573 
L 197.125939 236.615131 
L 195.369244 237.162102 
L 193.567607 237.535282 
L 191.73818 237.731117 
L 191.649533 237.731918 
L 191.788448 237.940125 
L 193.569788 238.386734 
L 195.312129 239.010578 
L 196.984932 239.802201 
L 198.572086 240.753978 
L 200.058304 241.856743 
L 201.429274 243.099875 
L 202.671792 244.471401 
L 203.773891 245.958114 
L 204.724958 247.545693 
L 205.515831 249.218851 
L 206.138895 250.961471 
L 206.58815 252.756773 
L 206.859267 254.587464 
L 206.949637 256.435915 
L 206.949378 257.524953 
L 206.858136 259.373295 
L 206.586167 261.203795 
L 206.13609 262.998823 
L 205.512241 264.741093 
L 204.720625 266.413827 
L 203.768868 268.000917 
L 202.666135 269.487077 
L 202.001775 270.219755 
L 202.654823 270.462499 
L 204.317404 271.273886 
L 205.89248 272.244276 
L 207.364895 273.364329 
L 208.720476 274.623266 
L 209.946178 276.00897 
L 211.030204 277.508106 
L 211.435055 278.202383 
L 211.90463 277.855126 
L 213.471051 276.916423 
L 215.120922 276.133633 
L 216.838772 275.514094 
L 217.242138 275.411419 
L 217.295623 275.295098 
L 217.385382 275.137452 
L 217.797406 273.947945 
L 218.574384 272.262303 
L 219.513308 270.661209 
L 220.60508 269.160171 
L 221.839125 267.773732 
L 223.203488 266.515323 
L 224.684952 265.397134 
L 226.269164 264.429998 
L 227.940779 263.623284 
L 228.554271 263.363618 
L 230.412111 262.689721 
L 232.330276 262.213957 
L 234.287699 261.941551 
L 236.262881 261.875495 
L 238.234129 262.016514 
L 238.926159 262.102655 
L 240.9091 262.457917 
L 241.423498 262.608151 
L 232.934286 279.523793 
L 235.123876 280.622642 
L 236.389429 280.207203 
L 257.023544 290.742163 
L 257.86008 291.170992 
L 258.628908 291.562916 
L 258.371807 292.140764 
L 257.414663 293.809748 
L 256.292444 295.37252 
L 256.055229 295.669611 
L 254.82851 297.059889 
L 253.934187 297.892129 
L 253.587471 310.560026 
L 253.443026 312.429694 
L 253.113605 314.275772 
L 252.602464 316.080005 
L 251.914659 317.824553 
L 251.056989 319.492164 
L 250.037938 321.066348 
L 248.86758 322.53154 
L 247.55749 323.87325 
L 246.120622 325.078211 
L 244.571184 326.134509 
L 242.924498 327.031698 
L 241.196847 327.760906 
L 239.405314 328.314922 
L 237.567616 328.688268 
L 235.701924 328.877253 
L 233.826686 328.880008 
L 232.16337 328.716458 
L 231.959668 328.766485 
L 230.126844 329.029624 
L 228.61596 329.096704 
L 228.831097 330.350622 
L 228.963199 332.216755 
L 228.909748 334.086794 
L 228.671271 335.942335 
L 228.250114 337.765116 
L 227.650423 339.537198 
L 226.878099 341.24114 
L 225.940744 342.860174 
L 224.847583 344.378364 
L 223.609373 345.780769 
L 222.238302 347.053588 
L 220.747863 348.184293 
L 216.245308 351.260586 
L 215.653691 351.648722 
L 214.760357 352.211115 
L 215.127435 352.219705 
L 216.943018 352.439387 
L 218.728783 352.833902 
L 224.204779 354.325512 
L 225.925262 354.884072 
L 227.584314 355.604904 
L 229.166669 356.481376 
L 230.657769 357.505423 
L 232.043894 358.667624 
L 233.31229 359.957284 
L 233.896559 360.678134 
L 233.944227 360.679012 
L 235.801008 360.805049 
L 237.636324 361.113492 
L 239.4323 361.601336 
L 241.171444 362.263831 
L 241.4817 362.418587 
L 241.664955 362.305283 
L 243.302241 361.500267 
L 244.741107 360.958378 
L 244.645417 360.653273 
L 244.267103 358.839364 
L 244.068631 356.997083 
L 244.051917 355.144218 
L 244.082052 354.393654 
L 244.247009 352.549881 
L 244.591943 350.731165 
L 245.113529 348.955029 
L 245.806742 347.238589 
L 246.664903 345.598385 
L 247.679741 344.05022 
L 248.841478 342.609013 
L 250.13892 341.288652 
L 251.559565 340.101859 
L 252.509831 339.454882 
L 252.801414 339.118187 
L 254.287462 337.586664 
L 255.937028 336.232841 
L 257.728987 335.074055 
L 258.134101 334.843492 
L 260.049392 333.892919 
L 262.059979 333.165274 
L 264.140013 332.669909 
L 264.600969 332.587422 
L 266.711342 332.3315 
L 268.613978 332.316488 
L 269.261715 331.615531 
L 269.571691 331.340637 
L 269.585558 331.248795 
L 270.047443 329.433891 
L 270.687063 327.673749 
L 271.498111 325.985729 
L 272.472589 324.386477 
L 273.600885 322.891766 
L 274.871873 321.516337 
L 276.273016 320.273755 
L 277.790498 319.176275 
L 279.409352 318.23472 
L 281.113613 317.458377 
L 282.886472 316.854901 
L 284.710446 316.430244 
L 286.567545 316.188595 
L 288.439456 316.132336 
L 289.679254 316.156676 
L 291.507233 316.281591 
L 291.740425 316.320523 
L 292.172674 315.453306 
L 293.155906 313.886796 
L 294.287862 312.424136 
L 295.557653 311.079395 
L 312.358372 294.950507 
L 313.710954 293.770438 
L 315.148875 292.739184 
L 315.534675 293.205758 
M 188.951605 371.717299 
L 189.864936 373.327198 
L 190.616044 375.018879 
L 191.197693 376.776045 
L 191.60428 378.581769 
L 191.831886 380.418653 
L 191.878321 382.269002 
L 191.842266 383.770647 
L 191.804963 384.280139 
L 192.69129 384.620411 
L 194.345571 385.449796 
L 195.910596 386.437328 
L 197.371295 387.573498 
L 198.713602 388.847364 
L 199.92459 390.246661 
L 200.992598 391.757913 
L 201.907341 393.366567 
L 202.561825 394.836598 
L 202.876825 394.652035 
L 204.542505 393.882742 
L 206.27506 393.278957 
L 207.390507 393.008351 
L 207.458352 392.846114 
L 206.530062 392.194591 
L 205.101442 390.96146 
L 200.765958 386.823062 
L 199.466026 385.451311 
L 198.309919 383.95634 
L 197.309248 382.353162 
L 196.474063 380.657877 
L 195.812752 378.887513 
L 195.331957 377.059848 
L 195.036505 375.193239 
L 194.929365 373.306431 
L 194.915165 371.153223 
L 194.991796 369.326005 
L 195.245061 367.514801 
L 195.672578 365.736648 
L 196.270325 364.008267 
L 196.320933 363.897914 
L 195.958149 364.127719 
L 194.356527 365.035868 
L 192.673978 365.783501 
L 190.92654 366.363493 
L 189.130872 366.770314 
L 187.30409 367.000086 
L 185.463608 367.050619 
L 184.646498 366.993144 
L 185.333552 367.528562 
L 186.674947 368.803947 
L 187.88485 370.204691 
L 188.951605 371.717299 
M 460.238065 429.753311 
L 459.536241 429.685604 
L 456.307771 429.313106 
L 454.81021 429.078999 
L 451.35358 428.395311 
L 450.940556 428.308805 
L 450.458905 428.202288 
L 450.756163 429.413646 
L 451.018162 431.228896 
L 451.102585 433.061012 
L 451.094858 436.032082 
L 450.99907 437.881971 
L 450.722253 439.713538 
L 450.267077 441.509111 
L 449.637936 443.251364 
L 448.840898 444.923487 
L 447.883655 446.509347 
L 446.775443 447.993642 
L 445.526955 449.36205 
L 444.150236 450.601369 
L 443.045975 451.414404 
L 444.146968 451.500286 
L 451.651135 452.480349 
L 469.926079 453.67277 
L 471.889382 453.90472 
L 473.817613 454.340935 
L 475.689581 454.976619 
L 477.400554 455.765962 
L 477.03091 455.421171 
L 475.807932 454.032398 
L 474.726957 452.530447 
L 473.798394 450.92978 
L 473.031184 449.245811 
L 472.432715 447.494754 
L 472.008749 445.693472 
L 471.76337 443.85931 
L 471.69894 442.009928 
L 471.749733 438.448045 
L 471.866892 436.601077 
L 472.164527 434.774486 
L 472.639771 432.985866 
L 473.288047 431.252443 
L 473.723966 430.36381 
L 472.114431 430.490651 
L 470.258039 430.453783 
L 461.138294 429.822537 
L 460.980834 429.810976 
L 460.238065 429.753311 
M 486.540875 465.081296 
L 487.317062 466.870206 
L 487.904361 468.729707 
L 488.296491 470.639917 
L 488.489259 472.580408 
L 488.480605 474.530431 
L 488.397632 476.006187 
L 489.521921 475.948398 
L 492.824252 475.940947 
L 493.12972 475.939555 
L 494.981211 476.022191 
L 496.815649 476.286171 
L 498.615316 476.728945 
L 500.362829 477.346236 
L 502.041308 478.132083 
L 503.634543 479.078894 
L 505.127144 480.177525 
L 506.504695 481.417365 
L 507.75389 482.786438 
L 507.875031 482.948692 
L 508.179367 482.622752 
L 509.568759 481.400485 
L 511.071258 480.320278 
L 512.672394 479.392532 
L 513.577642 478.980661 
L 513.288697 477.765393 
L 513.037359 475.879744 
L 512.977276 473.978367 
L 512.98836 473.391071 
L 513.11578 471.529869 
L 513.426475 469.690365 
L 513.917403 467.890561 
L 514.583761 466.14807 
L 515.419027 464.479946 
L 516.113232 463.380487 
L 516.611605 462.386847 
L 517.597365 460.824597 
L 518.731245 459.366288 
L 520.002364 458.025913 
L 521.398526 456.816334 
L 522.906333 455.749157 
L 523.06236 455.660252 
L 523.517291 454.509019 
L 524.362867 452.862821 
L 524.608106 452.482469 
L 523.168898 452.20611 
L 521.384579 451.676659 
L 519.661141 450.973894 
L 518.015374 450.104662 
L 517.805908 449.966028 
L 517.025146 451.555703 
L 516.050811 453.12832 
L 514.927074 454.597901 
L 513.664749 455.950303 
L 512.275986 457.17251 
L 510.774149 458.25276 
L 509.173693 459.180657 
L 507.490019 459.947271 
L 505.739332 460.545224 
L 503.93848 460.968761 
L 502.104793 461.213806 
L 500.25592 461.278002 
L 490.284066 461.134766 
L 488.437286 461.017436 
L 486.610897 460.719666 
L 484.822486 460.244324 
L 483.089274 459.595988 
L 481.815073 458.970831 
L 482.217307 459.343224 
L 483.171524 460.324415 
L 484.456964 461.790808 
L 485.584098 463.382107 
L 486.540875 465.081296 
M 304.610596 361.406132 
L 303.135471 362.504353 
L 301.560388 363.453666 
L 299.900326 364.245045 
L 298.171074 364.870962 
L 296.668701 365.254145 
L 295.965912 366.031738 
L 294.607397 367.268288 
L 293.135014 368.366789 
L 291.562735 369.316819 
L 290.56576 369.793599 
L 290.622152 371.058047 
L 290.616477 372.465913 
L 290.519401 374.302395 
L 290.243903 376.120688 
L 289.792604 377.9035 
L 289.169796 379.633876 
L 288.83589 380.337557 
L 294.311756 380.214177 
L 296.184881 380.265092 
L 298.043705 380.501649 
L 299.869876 380.921513 
L 301.645364 381.520537 
L 303.352638 382.292808 
L 304.974842 383.2307 
L 306.495958 384.324953 
L 307.90097 385.564764 
L 309.176003 386.937891 
L 310.308469 388.430776 
L 311.287187 390.02868 
L 312.102494 391.715826 
L 312.746339 393.475556 
L 313.212367 395.290496 
L 313.495974 397.142725 
L 313.594362 399.013956 
L 313.597667 400.182802 
L 313.57927 400.583556 
L 313.606058 401.1771 
L 313.58748 405.900067 
L 313.490917 407.733268 
L 313.216568 409.548395 
L 312.767033 411.328247 
L 312.146571 413.055956 
L 311.361063 414.715152 
L 310.417952 416.29011 
L 310.26003 416.503579 
L 311.056402 416.989825 
L 312.565113 418.133407 
L 313.951562 419.422494 
L 315.201777 420.844096 
L 316.303157 422.383885 
L 317.244602 424.026343 
L 318.016626 425.754917 
L 318.611446 427.552186 
L 318.697441 427.938235 
L 319.012415 427.967371 
L 320.856689 428.325714 
L 321.879226 428.632611 
L 321.938338 428.598402 
L 322.759318 428.225018 
L 322.628408 427.837264 
L 322.210764 426.031291 
L 321.972442 424.19304 
L 321.915743 422.340271 
L 322.041216 420.490887 
L 322.347649 418.662755 
L 322.83208 416.873539 
L 323.489829 415.140527 
L 324.314541 413.480462 
L 325.298248 411.909384 
L 325.752474 411.321393 
L 325.787031 411.256874 
L 323.725735 409.060131 
L 322.525776 407.648294 
L 321.470163 406.125513 
L 320.569085 404.506487 
L 319.831243 402.806848 
L 319.263758 401.043004 
L 318.872111 399.231984 
L 318.660081 397.39127 
L 318.629716 395.538633 
L 318.781309 393.69196 
L 318.846024 393.336727 
L 317.326574 392.686012 
L 315.671031 391.770852 
L 314.115503 390.694436 
L 312.67564 389.467597 
L 311.365932 388.102677 
L 310.199557 386.613412 
L 309.188252 385.014788 
L 308.342192 383.322888 
L 307.669891 381.554739 
L 307.178114 379.728132 
L 306.871808 377.861445 
L 306.754057 375.973464 
L 306.826045 374.083184 
L 307.087048 372.209626 
L 307.534439 370.371643 
L 308.163716 368.587729 
L 308.968548 366.875834 
L 309.940837 365.253183 
L 311.070798 363.736105 
L 312.347062 362.339863 
L 315.512005 359.208377 
L 310.210078 353.607748 
L 310.036284 354.090638 
L 309.247926 355.752136 
L 308.301478 357.328943 
L 307.205941 358.806063 
L 305.971735 360.169448 
L 304.610596 361.406132 
M 362.912811 404.871148 
L 361.07812 405.320379 
L 359.441797 405.550845 
L 362.446769 408.704489 
L 363.633371 410.076241 
L 364.682702 411.555644 
L 365.585055 413.129013 
L 366.332081 414.781793 
L 366.916871 416.498695 
L 367.334014 418.263835 
L 367.579653 420.060886 
L 367.651514 421.873223 
L 367.558468 423.515753 
L 368.604725 423.211577 
L 370.462239 422.868346 
L 372.344772 422.712666 
L 374.233435 422.746101 
L 376.109277 422.968315 
L 377.953479 423.377077 
L 378.979719 423.659139 
L 379.37809 423.659339 
L 379.612225 423.660911 
L 381.219064 423.681671 
L 381.399006 423.181361 
L 382.220045 421.465022 
L 383.209849 419.840149 
L 384.358344 418.323282 
L 385.653838 416.929862 
L 386.189221 416.459474 
L 386.021928 415.526441 
L 385.874479 413.743808 
L 385.896591 411.955223 
L 386.088064 410.17678 
L 386.447176 408.424478 
L 386.970696 406.714083 
L 387.653914 405.060984 
L 388.490683 403.480053 
L 389.473475 401.985515 
L 390.593447 400.590815 
L 391.840523 399.308503 
L 392.64798 398.553432 
L 394.114278 397.315905 
L 395.698738 396.233781 
L 397.384956 395.318263 
L 399.155476 394.578829 
L 400.991968 394.023133 
L 402.875422 393.656928 
L 403.318406 393.616842 
L 403.424792 393.591721 
L 403.377498 393.539047 
L 402.203683 392.094155 
L 401.178049 390.540568 
L 400.310592 388.893427 
L 399.609765 387.168783 
L 399.082397 385.383442 
L 399.011834 385.013473 
L 398.578826 385.744913 
L 397.55119 387.162137 
L 396.396562 388.477962 
L 395.124893 389.681047 
L 391.018274 393.21981 
L 389.560813 394.356191 
L 387.999116 395.344451 
L 386.348183 396.175099 
L 384.623871 396.840156 
L 382.84274 397.333236 
L 381.021898 397.649602 
L 379.178832 397.786216 
L 377.331245 397.741766 
L 375.496881 397.516678 
L 374.535615 397.301582 
L 373.799281 398.12757 
L 372.399396 399.410863 
L 370.877539 400.546852 
L 368.021284 402.462797 
L 366.401895 403.435153 
L 364.693357 404.240631 
L 362.912811 404.871148 
M 404.691484 358.079813 
L 405.509738 357.313694 
L 408.679404 354.342891 
L 416.039253 347.030473 
L 420.610227 342.373552 
L 419.41491 341.806031 
L 417.828548 340.851928 
L 416.343376 339.746885 
L 414.973705 338.501551 
L 413.732734 337.127926 
L 412.63242 335.639246 
L 411.683368 334.049858 
L 410.894721 332.375076 
L 410.274081 330.63104 
L 410.179596 330.251013 
L 409.155589 331.661544 
L 408.078353 333.010855 
L 406.882222 334.255984 
L 405.577224 335.386495 
L 404.174297 336.392911 
L 403.938233 336.531446 
L 403.442704 336.926072 
L 401.826197 337.963623 
L 400.112531 338.83135 
L 398.966623 339.340017 
L 397.303894 339.985803 
L 396.375341 340.248629 
L 396.851521 341.78845 
L 397.226077 343.638109 
L 397.413886 345.515942 
L 397.413065 347.403143 
L 397.223624 349.280812 
L 396.847459 351.130145 
L 396.288338 352.932619 
L 395.55186 354.670183 
L 394.645402 356.325436 
L 393.57804 357.8818 
L 393.330673 358.17474 
L 395.032366 359.591157 
L 396.410167 360.858911 
L 397.655463 362.257043 
L 398.755979 363.771771 
L 399.700866 365.388163 
L 399.792616 365.588394 
L 400.460412 363.93807 
L 401.300983 362.327032 
L 402.292711 360.804376 
L 403.426387 359.384241 
L 404.691484 358.079813 
M 552.414079 516.339778 
L 552.811387 516.351767 
L 552.740761 516.210388 
L 551.934652 514.353612 
L 551.332206 512.421129 
L 550.848832 510.51619 
L 550.417435 508.235084 
L 549.625926 501.952168 
L 549.502488 501.682205 
L 549.182962 500.755011 
L 548.544471 500.674624 
L 546.812141 500.288341 
L 545.979237 500.060988 
L 545.054438 499.75799 
L 544.121513 499.723493 
L 544.075484 502.834809 
L 543.957306 504.68201 
L 543.658605 506.508728 
L 543.18226 508.297363 
L 542.532859 510.030683 
L 541.716659 511.691988 
L 540.741523 513.265275 
L 539.616846 514.735384 
L 538.353464 516.088153 
L 538.127795 516.286624 
L 539.337433 517.67177 
L 540.411895 519.177689 
L 540.830908 519.906825 
L 541.849458 519.198359 
L 543.464366 518.295889 
L 545.159929 517.555994 
L 546.91983 516.985795 
L 548.727132 516.590779 
L 550.564442 516.374747 
L 552.414079 516.339778 
" clip-path="url(#pc677f04cc3)" style="fill: #ff0000; fill-opacity: 0.7; stroke: #000000; stroke-opacity: 0.7; stroke-width: 0.5"/>
    <path d="M 294.52359 238.295541 
L 295.933029 236.065407 
L 298.550316 231.921197 
L 303.062632 224.773868 
L 303.618633 223.893398 
L 303.577926 224.31919 
L 303.222767 226.132997 
L 302.691758 227.903325 
L 302.155441 229.41738 
L 301.470102 231.092113 
L 300.627402 232.693449 
L 299.635101 234.206643 
L 298.502334 235.617763 
L 297.239532 236.913816 
L 295.858323 238.082867 
L 294.371423 239.114153 
L 293.806721 239.430329 
L 294.52359 238.295541 
" clip-path="url(#pc677f04cc3)" style="fill: #ff0000; fill-opacity: 0.7; stroke: #000000; stroke-opacity: 0.7; stroke-width: 0.5"/>
    <path d="M 121.788708 401.98863 
L 118.475565 396.036703 
L 115.363636 390.315031 
L 116.793589 389.44806 
L 120.716683 387.069516 
L 121.407423 388.402524 
L 122.091193 390.112536 
L 122.604903 391.881091 
L 122.943653 393.691321 
L 123.104212 395.525961 
L 123.085049 397.367514 
L 122.886347 399.198416 
L 122.510001 401.001204 
L 122.435903 401.285867 
L 122.295848 401.882658 
L 122.125011 402.479134 
L 121.788708 401.98863 
" clip-path="url(#pc677f04cc3)" style="fill: #ff0000; fill-opacity: 0.7; stroke: #000000; stroke-opacity: 0.7; stroke-width: 0.5"/>
    <path d="M 184.648092 448.761479 
L 176.479985 446.81723 
L 176.192968 446.753302 
L 173.771049 446.175496 
L 171.803982 445.110591 
L 165.404238 441.637405 
L 169.504759 442.092713 
L 170.355977 442.206906 
L 175.340894 442.99159 
L 177.16519 443.371966 
L 178.943036 443.930541 
L 180.65707 444.661859 
L 182.290555 445.558781 
L 183.82754 446.612546 
L 185.253014 447.812864 
L 186.553058 449.148015 
L 186.618894 449.230567 
L 184.648092 448.761479 
" clip-path="url(#pc677f04cc3)" style="fill: #ff0000; fill-opacity: 0.7; stroke: #000000; stroke-opacity: 0.7; stroke-width: 0.5"/>
   </g>
   <g id="matplotlib.axis_1">
    <g id="xtick_1">
     <g id="line2d_1">
      <defs>
       <path id="ma368de17a7" d="M 0 0 
L 0 3.5 
" style="stroke: #000000; stroke-width: 0.8"/>
      </defs>
      <g>
       <use xlink:href="#ma368de17a7" x="153.297037" y="564.756439" style="stroke: #000000; stroke-width: 0.8"/>
      </g>
     </g>
     <g id="text_1">
      <!-- 394500 -->
      <g transform="translate(134.209537 579.354876) scale(0.1 -0.1)">
       <defs>
        <path id="DejaVuSans-33" d="M 2597 2516 
Q 3050 2419 3304 2112 
Q 3559 1806 3559 1356 
Q 3559 666 3084 287 
Q 2609 -91 1734 -91 
Q 1441 -91 1130 -33 
Q 819 25 488 141 
L 488 750 
Q 750 597 1062 519 
Q 1375 441 1716 441 
Q 2309 441 2620 675 
Q 2931 909 2931 1356 
Q 2931 1769 2642 2001 
Q 2353 2234 1838 2234 
L 1294 2234 
L 1294 2753 
L 1863 2753 
Q 2328 2753 2575 2939 
Q 2822 3125 2822 3475 
Q 2822 3834 2567 4026 
Q 2313 4219 1838 4219 
Q 1578 4219 1281 4162 
Q 984 4106 628 3988 
L 628 4550 
Q 988 4650 1302 4700 
Q 1616 4750 1894 4750 
Q 2613 4750 3031 4423 
Q 3450 4097 3450 3541 
Q 3450 3153 3228 2886 
Q 3006 2619 2597 2516 
z
" transform="scale(0.015625)"/>
        <path id="DejaVuSans-39" d="M 703 97 
L 703 672 
Q 941 559 1184 500 
Q 1428 441 1663 441 
Q 2288 441 2617 861 
Q 2947 1281 2994 2138 
Q 2813 1869 2534 1725 
Q 2256 1581 1919 1581 
Q 1219 1581 811 2004 
Q 403 2428 403 3163 
Q 403 3881 828 4315 
Q 1253 4750 1959 4750 
Q 2769 4750 3195 4129 
Q 3622 3509 3622 2328 
Q 3622 1225 3098 567 
Q 2575 -91 1691 -91 
Q 1453 -91 1209 -44 
Q 966 3 703 97 
z
M 1959 2075 
Q 2384 2075 2632 2365 
Q 2881 2656 2881 3163 
Q 2881 3666 2632 3958 
Q 2384 4250 1959 4250 
Q 1534 4250 1286 3958 
Q 1038 3666 1038 3163 
Q 1038 2656 1286 2365 
Q 1534 2075 1959 2075 
z
" transform="scale(0.015625)"/>
        <path id="DejaVuSans-34" d="M 2419 4116 
L 825 1625 
L 2419 1625 
L 2419 4116 
z
M 2253 4666 
L 3047 4666 
L 3047 1625 
L 3713 1625 
L 3713 1100 
L 3047 1100 
L 3047 0 
L 2419 0 
L 2419 1100 
L 313 1100 
L 313 1709 
L 2253 4666 
z
" transform="scale(0.015625)"/>
        <path id="DejaVuSans-35" d="M 691 4666 
L 3169 4666 
L 3169 4134 
L 1269 4134 
L 1269 2991 
Q 1406 3038 1543 3061 
Q 1681 3084 1819 3084 
Q 2600 3084 3056 2656 
Q 3513 2228 3513 1497 
Q 3513 744 3044 326 
Q 2575 -91 1722 -91 
Q 1428 -91 1123 -41 
Q 819 9 494 109 
L 494 744 
Q 775 591 1075 516 
Q 1375 441 1709 441 
Q 2250 441 2565 725 
Q 2881 1009 2881 1497 
Q 2881 1984 2565 2268 
Q 2250 2553 1709 2553 
Q 1456 2553 1204 2497 
Q 953 2441 691 2322 
L 691 4666 
z
" transform="scale(0.015625)"/>
        <path id="DejaVuSans-30" d="M 2034 4250 
Q 1547 4250 1301 3770 
Q 1056 3291 1056 2328 
Q 1056 1369 1301 889 
Q 1547 409 2034 409 
Q 2525 409 2770 889 
Q 3016 1369 3016 2328 
Q 3016 3291 2770 3770 
Q 2525 4250 2034 4250 
z
M 2034 4750 
Q 2819 4750 3233 4129 
Q 3647 3509 3647 2328 
Q 3647 1150 3233 529 
Q 2819 -91 2034 -91 
Q 1250 -91 836 529 
Q 422 1150 422 2328 
Q 422 3509 836 4129 
Q 1250 4750 2034 4750 
z
" transform="scale(0.015625)"/>
       </defs>
       <use xlink:href="#DejaVuSans-33"/>
       <use xlink:href="#DejaVuSans-39" x="63.623047"/>
       <use xlink:href="#DejaVuSans-34" x="127.246094"/>
       <use xlink:href="#DejaVuSans-35" x="190.869141"/>
       <use xlink:href="#DejaVuSans-30" x="254.492188"/>
       <use xlink:href="#DejaVuSans-30" x="318.115234"/>
      </g>
     </g>
    </g>
    <g id="xtick_2">
     <g id="line2d_2">
      <g>
       <use xlink:href="#ma368de17a7" x="247.58649" y="564.756439" style="stroke: #000000; stroke-width: 0.8"/>
      </g>
     </g>
     <g id="text_2">
      <!-- 395000 -->
      <g transform="translate(228.49899 579.354876) scale(0.1 -0.1)">
       <use xlink:href="#DejaVuSans-33"/>
       <use xlink:href="#DejaVuSans-39" x="63.623047"/>
       <use xlink:href="#DejaVuSans-35" x="127.246094"/>
       <use xlink:href="#DejaVuSans-30" x="190.869141"/>
       <use xlink:href="#DejaVuSans-30" x="254.492188"/>
       <use xlink:href="#DejaVuSans-30" x="318.115234"/>
      </g>
     </g>
    </g>
    <g id="xtick_3">
     <g id="line2d_3">
      <g>
       <use xlink:href="#ma368de17a7" x="341.875942" y="564.756439" style="stroke: #000000; stroke-width: 0.8"/>
      </g>
     </g>
     <g id="text_3">
      <!-- 395500 -->
      <g transform="translate(322.788442 579.354876) scale(0.1 -0.1)">
       <use xlink:href="#DejaVuSans-33"/>
       <use xlink:href="#DejaVuSans-39" x="63.623047"/>
       <use xlink:href="#DejaVuSans-35" x="127.246094"/>
       <use xlink:href="#DejaVuSans-35" x="190.869141"/>
       <use xlink:href="#DejaVuSans-30" x="254.492188"/>
       <use xlink:href="#DejaVuSans-30" x="318.115234"/>
      </g>
     </g>
    </g>
    <g id="xtick_4">
     <g id="line2d_4">
      <g>
       <use xlink:href="#ma368de17a7" x="436.165394" y="564.756439" style="stroke: #000000; stroke-width: 0.8"/>
      </g>
     </g>
     <g id="text_4">
      <!-- 396000 -->
      <g transform="translate(417.077894 579.354876) scale(0.1 -0.1)">
       <defs>
        <path id="DejaVuSans-36" d="M 2113 2584 
Q 1688 2584 1439 2293 
Q 1191 2003 1191 1497 
Q 1191 994 1439 701 
Q 1688 409 2113 409 
Q 2538 409 2786 701 
Q 3034 994 3034 1497 
Q 3034 2003 2786 2293 
Q 2538 2584 2113 2584 
z
M 3366 4563 
L 3366 3988 
Q 3128 4100 2886 4159 
Q 2644 4219 2406 4219 
Q 1781 4219 1451 3797 
Q 1122 3375 1075 2522 
Q 1259 2794 1537 2939 
Q 1816 3084 2150 3084 
Q 2853 3084 3261 2657 
Q 3669 2231 3669 1497 
Q 3669 778 3244 343 
Q 2819 -91 2113 -91 
Q 1303 -91 875 529 
Q 447 1150 447 2328 
Q 447 3434 972 4092 
Q 1497 4750 2381 4750 
Q 2619 4750 2861 4703 
Q 3103 4656 3366 4563 
z
" transform="scale(0.015625)"/>
       </defs>
       <use xlink:href="#DejaVuSans-33"/>
       <use xlink:href="#DejaVuSans-39" x="63.623047"/>
       <use xlink:href="#DejaVuSans-36" x="127.246094"/>
       <use xlink:href="#DejaVuSans-30" x="190.869141"/>
       <use xlink:href="#DejaVuSans-30" x="254.492188"/>
       <use xlink:href="#DejaVuSans-30" x="318.115234"/>
      </g>
     </g>
    </g>
    <g id="xtick_5">
     <g id="line2d_5">
      <g>
       <use xlink:href="#ma368de17a7" x="530.454846" y="564.756439" style="stroke: #000000; stroke-width: 0.8"/>
      </g>
     </g>
     <g id="text_5">
      <!-- 396500 -->
      <g transform="translate(511.367346 579.354876) scale(0.1 -0.1)">
       <use xlink:href="#DejaVuSans-33"/>
       <use xlink:href="#DejaVuSans-39" x="63.623047"/>
       <use xlink:href="#DejaVuSans-36" x="127.246094"/>
       <use xlink:href="#DejaVuSans-35" x="190.869141"/>
       <use xlink:href="#DejaVuSans-30" x="254.492188"/>
       <use xlink:href="#DejaVuSans-30" x="318.115234"/>
      </g>
     </g>
    </g>
    <g id="xtick_6">
     <g id="line2d_6">
      <g>
       <use xlink:href="#ma368de17a7" x="624.744299" y="564.756439" style="stroke: #000000; stroke-width: 0.8"/>
      </g>
     </g>
     <g id="text_6">
      <!-- 397000 -->
      <g transform="translate(605.656799 579.354876) scale(0.1 -0.1)">
       <defs>
        <path id="DejaVuSans-37" d="M 525 4666 
L 3525 4666 
L 3525 4397 
L 1831 0 
L 1172 0 
L 2766 4134 
L 525 4134 
L 525 4666 
z
" transform="scale(0.015625)"/>
       </defs>
       <use xlink:href="#DejaVuSans-33"/>
       <use xlink:href="#DejaVuSans-39" x="63.623047"/>
       <use xlink:href="#DejaVuSans-37" x="127.246094"/>
       <use xlink:href="#DejaVuSans-30" x="190.869141"/>
       <use xlink:href="#DejaVuSans-30" x="254.492188"/>
       <use xlink:href="#DejaVuSans-30" x="318.115234"/>
      </g>
     </g>
    </g>
   </g>
   <g id="matplotlib.axis_2">
    <g id="ytick_1">
     <g id="line2d_7">
      <defs>
       <path id="m45fc433e3a" d="M 0 0 
L -3.5 0 
" style="stroke: #000000; stroke-width: 0.8"/>
      </defs>
      <g>
       <use xlink:href="#m45fc433e3a" x="90" y="555.58728" style="stroke: #000000; stroke-width: 0.8"/>
      </g>
     </g>
     <g id="text_7">
      <!-- 5.80875 -->
      <g transform="translate(41.646875 559.386498) scale(0.1 -0.1)">
       <defs>
        <path id="DejaVuSans-2e" d="M 684 794 
L 1344 794 
L 1344 0 
L 684 0 
L 684 794 
z
" transform="scale(0.015625)"/>
        <path id="DejaVuSans-38" d="M 2034 2216 
Q 1584 2216 1326 1975 
Q 1069 1734 1069 1313 
Q 1069 891 1326 650 
Q 1584 409 2034 409 
Q 2484 409 2743 651 
Q 3003 894 3003 1313 
Q 3003 1734 2745 1975 
Q 2488 2216 2034 2216 
z
M 1403 2484 
Q 997 2584 770 2862 
Q 544 3141 544 3541 
Q 544 4100 942 4425 
Q 1341 4750 2034 4750 
Q 2731 4750 3128 4425 
Q 3525 4100 3525 3541 
Q 3525 3141 3298 2862 
Q 3072 2584 2669 2484 
Q 3125 2378 3379 2068 
Q 3634 1759 3634 1313 
Q 3634 634 3220 271 
Q 2806 -91 2034 -91 
Q 1263 -91 848 271 
Q 434 634 434 1313 
Q 434 1759 690 2068 
Q 947 2378 1403 2484 
z
M 1172 3481 
Q 1172 3119 1398 2916 
Q 1625 2713 2034 2713 
Q 2441 2713 2670 2916 
Q 2900 3119 2900 3481 
Q 2900 3844 2670 4047 
Q 2441 4250 2034 4250 
Q 1625 4250 1398 4047 
Q 1172 3844 1172 3481 
z
" transform="scale(0.015625)"/>
       </defs>
       <use xlink:href="#DejaVuSans-35"/>
       <use xlink:href="#DejaVuSans-2e" x="63.623047"/>
       <use xlink:href="#DejaVuSans-38" x="95.410156"/>
       <use xlink:href="#DejaVuSans-30" x="159.033203"/>
       <use xlink:href="#DejaVuSans-38" x="222.65625"/>
       <use xlink:href="#DejaVuSans-37" x="286.279297"/>
       <use xlink:href="#DejaVuSans-35" x="349.902344"/>
      </g>
     </g>
    </g>
    <g id="ytick_2">
     <g id="line2d_8">
      <g>
       <use xlink:href="#m45fc433e3a" x="90" y="508.442554" style="stroke: #000000; stroke-width: 0.8"/>
      </g>
     </g>
     <g id="text_8">
      <!-- 5.80900 -->
      <g transform="translate(41.646875 512.241772) scale(0.1 -0.1)">
       <use xlink:href="#DejaVuSans-35"/>
       <use xlink:href="#DejaVuSans-2e" x="63.623047"/>
       <use xlink:href="#DejaVuSans-38" x="95.410156"/>
       <use xlink:href="#DejaVuSans-30" x="159.033203"/>
       <use xlink:href="#DejaVuSans-39" x="222.65625"/>
       <use xlink:href="#DejaVuSans-30" x="286.279297"/>
       <use xlink:href="#DejaVuSans-30" x="349.902344"/>
      </g>
     </g>
    </g>
    <g id="ytick_3">
     <g id="line2d_9">
      <g>
       <use xlink:href="#m45fc433e3a" x="90" y="461.297827" style="stroke: #000000; stroke-width: 0.8"/>
      </g>
     </g>
     <g id="text_9">
      <!-- 5.80925 -->
      <g transform="translate(41.646875 465.097046) scale(0.1 -0.1)">
       <defs>
        <path id="DejaVuSans-32" d="M 1228 531 
L 3431 531 
L 3431 0 
L 469 0 
L 469 531 
Q 828 903 1448 1529 
Q 2069 2156 2228 2338 
Q 2531 2678 2651 2914 
Q 2772 3150 2772 3378 
Q 2772 3750 2511 3984 
Q 2250 4219 1831 4219 
Q 1534 4219 1204 4116 
Q 875 4013 500 3803 
L 500 4441 
Q 881 4594 1212 4672 
Q 1544 4750 1819 4750 
Q 2544 4750 2975 4387 
Q 3406 4025 3406 3419 
Q 3406 3131 3298 2873 
Q 3191 2616 2906 2266 
Q 2828 2175 2409 1742 
Q 1991 1309 1228 531 
z
" transform="scale(0.015625)"/>
       </defs>
       <use xlink:href="#DejaVuSans-35"/>
       <use xlink:href="#DejaVuSans-2e" x="63.623047"/>
       <use xlink:href="#DejaVuSans-38" x="95.410156"/>
       <use xlink:href="#DejaVuSans-30" x="159.033203"/>
       <use xlink:href="#DejaVuSans-39" x="222.65625"/>
       <use xlink:href="#DejaVuSans-32" x="286.279297"/>
       <use xlink:href="#DejaVuSans-35" x="349.902344"/>
      </g>
     </g>
    </g>
    <g id="ytick_4">
     <g id="line2d_10">
      <g>
       <use xlink:href="#m45fc433e3a" x="90" y="414.153101" style="stroke: #000000; stroke-width: 0.8"/>
      </g>
     </g>
     <g id="text_10">
      <!-- 5.80950 -->
      <g transform="translate(41.646875 417.95232) scale(0.1 -0.1)">
       <use xlink:href="#DejaVuSans-35"/>
       <use xlink:href="#DejaVuSans-2e" x="63.623047"/>
       <use xlink:href="#DejaVuSans-38" x="95.410156"/>
       <use xlink:href="#DejaVuSans-30" x="159.033203"/>
       <use xlink:href="#DejaVuSans-39" x="222.65625"/>
       <use xlink:href="#DejaVuSans-35" x="286.279297"/>
       <use xlink:href="#DejaVuSans-30" x="349.902344"/>
      </g>
     </g>
    </g>
    <g id="ytick_5">
     <g id="line2d_11">
      <g>
       <use xlink:href="#m45fc433e3a" x="90" y="367.008375" style="stroke: #000000; stroke-width: 0.8"/>
      </g>
     </g>
     <g id="text_11">
      <!-- 5.80975 -->
      <g transform="translate(41.646875 370.807594) scale(0.1 -0.1)">
       <use xlink:href="#DejaVuSans-35"/>
       <use xlink:href="#DejaVuSans-2e" x="63.623047"/>
       <use xlink:href="#DejaVuSans-38" x="95.410156"/>
       <use xlink:href="#DejaVuSans-30" x="159.033203"/>
       <use xlink:href="#DejaVuSans-39" x="222.65625"/>
       <use xlink:href="#DejaVuSans-37" x="286.279297"/>
       <use xlink:href="#DejaVuSans-35" x="349.902344"/>
      </g>
     </g>
    </g>
    <g id="ytick_6">
     <g id="line2d_12">
      <g>
       <use xlink:href="#m45fc433e3a" x="90" y="319.863649" style="stroke: #000000; stroke-width: 0.8"/>
      </g>
     </g>
     <g id="text_12">
      <!-- 5.81000 -->
      <g transform="translate(41.646875 323.662868) scale(0.1 -0.1)">
       <defs>
        <path id="DejaVuSans-31" d="M 794 531 
L 1825 531 
L 1825 4091 
L 703 3866 
L 703 4441 
L 1819 4666 
L 2450 4666 
L 2450 531 
L 3481 531 
L 3481 0 
L 794 0 
L 794 531 
z
" transform="scale(0.015625)"/>
       </defs>
       <use xlink:href="#DejaVuSans-35"/>
       <use xlink:href="#DejaVuSans-2e" x="63.623047"/>
       <use xlink:href="#DejaVuSans-38" x="95.410156"/>
       <use xlink:href="#DejaVuSans-31" x="159.033203"/>
       <use xlink:href="#DejaVuSans-30" x="222.65625"/>
       <use xlink:href="#DejaVuSans-30" x="286.279297"/>
       <use xlink:href="#DejaVuSans-30" x="349.902344"/>
      </g>
     </g>
    </g>
    <g id="ytick_7">
     <g id="line2d_13">
      <g>
       <use xlink:href="#m45fc433e3a" x="90" y="272.718923" style="stroke: #000000; stroke-width: 0.8"/>
      </g>
     </g>
     <g id="text_13">
      <!-- 5.81025 -->
      <g transform="translate(41.646875 276.518142) scale(0.1 -0.1)">
       <use xlink:href="#DejaVuSans-35"/>
       <use xlink:href="#DejaVuSans-2e" x="63.623047"/>
       <use xlink:href="#DejaVuSans-38" x="95.410156"/>
       <use xlink:href="#DejaVuSans-31" x="159.033203"/>
       <use xlink:href="#DejaVuSans-30" x="222.65625"/>
       <use xlink:href="#DejaVuSans-32" x="286.279297"/>
       <use xlink:href="#DejaVuSans-35" x="349.902344"/>
      </g>
     </g>
    </g>
    <g id="ytick_8">
     <g id="line2d_14">
      <g>
       <use xlink:href="#m45fc433e3a" x="90" y="225.574197" style="stroke: #000000; stroke-width: 0.8"/>
      </g>
     </g>
     <g id="text_14">
      <!-- 5.81050 -->
      <g transform="translate(41.646875 229.373415) scale(0.1 -0.1)">
       <use xlink:href="#DejaVuSans-35"/>
       <use xlink:href="#DejaVuSans-2e" x="63.623047"/>
       <use xlink:href="#DejaVuSans-38" x="95.410156"/>
       <use xlink:href="#DejaVuSans-31" x="159.033203"/>
       <use xlink:href="#DejaVuSans-30" x="222.65625"/>
       <use xlink:href="#DejaVuSans-35" x="286.279297"/>
       <use xlink:href="#DejaVuSans-30" x="349.902344"/>
      </g>
     </g>
    </g>
    <g id="ytick_9">
     <g id="line2d_15">
      <g>
       <use xlink:href="#m45fc433e3a" x="90" y="178.429471" style="stroke: #000000; stroke-width: 0.8"/>
      </g>
     </g>
     <g id="text_15">
      <!-- 5.81075 -->
      <g transform="translate(41.646875 182.228689) scale(0.1 -0.1)">
       <use xlink:href="#DejaVuSans-35"/>
       <use xlink:href="#DejaVuSans-2e" x="63.623047"/>
       <use xlink:href="#DejaVuSans-38" x="95.410156"/>
       <use xlink:href="#DejaVuSans-31" x="159.033203"/>
       <use xlink:href="#DejaVuSans-30" x="222.65625"/>
       <use xlink:href="#DejaVuSans-37" x="286.279297"/>
       <use xlink:href="#DejaVuSans-35" x="349.902344"/>
      </g>
     </g>
    </g>
    <g id="text_16">
     <!-- 1e6 -->
     <g transform="translate(90 159.443561) scale(0.1 -0.1)">
      <defs>
       <path id="DejaVuSans-65" d="M 3597 1894 
L 3597 1613 
L 953 1613 
Q 991 1019 1311 708 
Q 1631 397 2203 397 
Q 2534 397 2845 478 
Q 3156 559 3463 722 
L 3463 178 
Q 3153 47 2828 -22 
Q 2503 -91 2169 -91 
Q 1331 -91 842 396 
Q 353 884 353 1716 
Q 353 2575 817 3079 
Q 1281 3584 2069 3584 
Q 2775 3584 3186 3129 
Q 3597 2675 3597 1894 
z
M 3022 2063 
Q 3016 2534 2758 2815 
Q 2500 3097 2075 3097 
Q 1594 3097 1305 2825 
Q 1016 2553 972 2059 
L 3022 2063 
z
" transform="scale(0.015625)"/>
      </defs>
      <use xlink:href="#DejaVuSans-31"/>
      <use xlink:href="#DejaVuSans-65" x="63.623047"/>
      <use xlink:href="#DejaVuSans-36" x="125.146484"/>
     </g>
    </g>
   </g>
   <g id="patch_3">
    <path d="M 90 564.756439 
L 90 162.443561 
" style="fill: none; stroke: #000000; stroke-width: 0.8; stroke-linejoin: miter; stroke-linecap: square"/>
   </g>
   <g id="patch_4">
    <path d="M 648 564.756439 
L 648 162.443561 
" style="fill: none; stroke: #000000; stroke-width: 0.8; stroke-linejoin: miter; stroke-linecap: square"/>
   </g>
   <g id="patch_5">
    <path d="M 90 564.756439 
L 648 564.756439 
" style="fill: none; stroke: #000000; stroke-width: 0.8; stroke-linejoin: miter; stroke-linecap: square"/>
   </g>
   <g id="patch_6">
    <path d="M 90 162.443561 
L 648 162.443561 
" style="fill: none; stroke: #000000; stroke-width: 0.8; stroke-linejoin: miter; stroke-linecap: square"/>
   </g>
   <g id="text_17">
    <!-- Gropiusstadt -->
    <g transform="translate(315.385433 397.848096) scale(0.12 -0.12)">
     <defs>
      <path id="DejaVuSans-47" d="M 3809 666 
L 3809 1919 
L 2778 1919 
L 2778 2438 
L 4434 2438 
L 4434 434 
Q 4069 175 3628 42 
Q 3188 -91 2688 -91 
Q 1594 -91 976 548 
Q 359 1188 359 2328 
Q 359 3472 976 4111 
Q 1594 4750 2688 4750 
Q 3144 4750 3555 4637 
Q 3966 4525 4313 4306 
L 4313 3634 
Q 3963 3931 3569 4081 
Q 3175 4231 2741 4231 
Q 1884 4231 1454 3753 
Q 1025 3275 1025 2328 
Q 1025 1384 1454 906 
Q 1884 428 2741 428 
Q 3075 428 3337 486 
Q 3600 544 3809 666 
z
" transform="scale(0.015625)"/>
      <path id="DejaVuSans-72" d="M 2631 2963 
Q 2534 3019 2420 3045 
Q 2306 3072 2169 3072 
Q 1681 3072 1420 2755 
Q 1159 2438 1159 1844 
L 1159 0 
L 581 0 
L 581 3500 
L 1159 3500 
L 1159 2956 
Q 1341 3275 1631 3429 
Q 1922 3584 2338 3584 
Q 2397 3584 2469 3576 
Q 2541 3569 2628 3553 
L 2631 2963 
z
" transform="scale(0.015625)"/>
      <path id="DejaVuSans-6f" d="M 1959 3097 
Q 1497 3097 1228 2736 
Q 959 2375 959 1747 
Q 959 1119 1226 758 
Q 1494 397 1959 397 
Q 2419 397 2687 759 
Q 2956 1122 2956 1747 
Q 2956 2369 2687 2733 
Q 2419 3097 1959 3097 
z
M 1959 3584 
Q 2709 3584 3137 3096 
Q 3566 2609 3566 1747 
Q 3566 888 3137 398 
Q 2709 -91 1959 -91 
Q 1206 -91 779 398 
Q 353 888 353 1747 
Q 353 2609 779 3096 
Q 1206 3584 1959 3584 
z
" transform="scale(0.015625)"/>
      <path id="DejaVuSans-70" d="M 1159 525 
L 1159 -1331 
L 581 -1331 
L 581 3500 
L 1159 3500 
L 1159 2969 
Q 1341 3281 1617 3432 
Q 1894 3584 2278 3584 
Q 2916 3584 3314 3078 
Q 3713 2572 3713 1747 
Q 3713 922 3314 415 
Q 2916 -91 2278 -91 
Q 1894 -91 1617 61 
Q 1341 213 1159 525 
z
M 3116 1747 
Q 3116 2381 2855 2742 
Q 2594 3103 2138 3103 
Q 1681 3103 1420 2742 
Q 1159 2381 1159 1747 
Q 1159 1113 1420 752 
Q 1681 391 2138 391 
Q 2594 391 2855 752 
Q 3116 1113 3116 1747 
z
" transform="scale(0.015625)"/>
      <path id="DejaVuSans-69" d="M 603 3500 
L 1178 3500 
L 1178 0 
L 603 0 
L 603 3500 
z
M 603 4863 
L 1178 4863 
L 1178 4134 
L 603 4134 
L 603 4863 
z
" transform="scale(0.015625)"/>
      <path id="DejaVuSans-75" d="M 544 1381 
L 544 3500 
L 1119 3500 
L 1119 1403 
Q 1119 906 1312 657 
Q 1506 409 1894 409 
Q 2359 409 2629 706 
Q 2900 1003 2900 1516 
L 2900 3500 
L 3475 3500 
L 3475 0 
L 2900 0 
L 2900 538 
Q 2691 219 2414 64 
Q 2138 -91 1772 -91 
Q 1169 -91 856 284 
Q 544 659 544 1381 
z
M 1991 3584 
L 1991 3584 
z
" transform="scale(0.015625)"/>
      <path id="DejaVuSans-73" d="M 2834 3397 
L 2834 2853 
Q 2591 2978 2328 3040 
Q 2066 3103 1784 3103 
Q 1356 3103 1142 2972 
Q 928 2841 928 2578 
Q 928 2378 1081 2264 
Q 1234 2150 1697 2047 
L 1894 2003 
Q 2506 1872 2764 1633 
Q 3022 1394 3022 966 
Q 3022 478 2636 193 
Q 2250 -91 1575 -91 
Q 1294 -91 989 -36 
Q 684 19 347 128 
L 347 722 
Q 666 556 975 473 
Q 1284 391 1588 391 
Q 1994 391 2212 530 
Q 2431 669 2431 922 
Q 2431 1156 2273 1281 
Q 2116 1406 1581 1522 
L 1381 1569 
Q 847 1681 609 1914 
Q 372 2147 372 2553 
Q 372 3047 722 3315 
Q 1072 3584 1716 3584 
Q 2034 3584 2315 3537 
Q 2597 3491 2834 3397 
z
" transform="scale(0.015625)"/>
      <path id="DejaVuSans-74" d="M 1172 4494 
L 1172 3500 
L 2356 3500 
L 2356 3053 
L 1172 3053 
L 1172 1153 
Q 1172 725 1289 603 
Q 1406 481 1766 481 
L 2356 481 
L 2356 0 
L 1766 0 
Q 1100 0 847 248 
Q 594 497 594 1153 
L 594 3053 
L 172 3053 
L 172 3500 
L 594 3500 
L 594 4494 
L 1172 4494 
z
" transform="scale(0.015625)"/>
      <path id="DejaVuSans-61" d="M 2194 1759 
Q 1497 1759 1228 1600 
Q 959 1441 959 1056 
Q 959 750 1161 570 
Q 1363 391 1709 391 
Q 2188 391 2477 730 
Q 2766 1069 2766 1631 
L 2766 1759 
L 2194 1759 
z
M 3341 1997 
L 3341 0 
L 2766 0 
L 2766 531 
Q 2569 213 2275 61 
Q 1981 -91 1556 -91 
Q 1019 -91 701 211 
Q 384 513 384 1019 
Q 384 1609 779 1909 
Q 1175 2209 1959 2209 
L 2766 2209 
L 2766 2266 
Q 2766 2663 2505 2880 
Q 2244 3097 1772 3097 
Q 1472 3097 1187 3025 
Q 903 2953 641 2809 
L 641 3341 
Q 956 3463 1253 3523 
Q 1550 3584 1831 3584 
Q 2591 3584 2966 3190 
Q 3341 2797 3341 1997 
z
" transform="scale(0.015625)"/>
      <path id="DejaVuSans-64" d="M 2906 2969 
L 2906 4863 
L 3481 4863 
L 3481 0 
L 2906 0 
L 2906 525 
Q 2725 213 2448 61 
Q 2172 -91 1784 -91 
Q 1150 -91 751 415 
Q 353 922 353 1747 
Q 353 2572 751 3078 
Q 1150 3584 1784 3584 
Q 2172 3584 2448 3432 
Q 2725 3281 2906 2969 
z
M 947 1747 
Q 947 1113 1208 752 
Q 1469 391 1925 391 
Q 2381 391 2643 752 
Q 2906 1113 2906 1747 
Q 2906 2381 2643 2742 
Q 2381 3103 1925 3103 
Q 1469 3103 1208 2742 
Q 947 2381 947 1747 
z
" transform="scale(0.015625)"/>
     </defs>
     <use xlink:href="#DejaVuSans-47"/>
     <use xlink:href="#DejaVuSans-72" x="77.490234"/>
     <use xlink:href="#DejaVuSans-6f" x="116.353516"/>
     <use xlink:href="#DejaVuSans-70" x="177.535156"/>
     <use xlink:href="#DejaVuSans-69" x="241.011719"/>
     <use xlink:href="#DejaVuSans-75" x="268.794922"/>
     <use xlink:href="#DejaVuSans-73" x="332.173828"/>
     <use xlink:href="#DejaVuSans-73" x="384.273438"/>
     <use xlink:href="#DejaVuSans-74" x="436.373047"/>
     <use xlink:href="#DejaVuSans-61" x="475.582031"/>
     <use xlink:href="#DejaVuSans-64" x="536.861328"/>
     <use xlink:href="#DejaVuSans-74" x="600.337891"/>
    </g>
   </g>
  </g>
 </g>
 <defs>
  <clipPath id="pc677f04cc3">
   <rect x="90" y="162.443561" width="558" height="402.312877"/>
  </clipPath>
 </defs>
</svg>
