<?xml version="1.0" encoding="utf-8" standalone="no"?>
<!DOCTYPE svg PUBLIC "-//W3C//DTD SVG 1.1//EN"
  "http://www.w3.org/Graphics/SVG/1.1/DTD/svg11.dtd">
<svg xmlns:xlink="http://www.w3.org/1999/xlink" width="720pt" height="720pt" viewBox="0 0 720 720" xmlns="http://www.w3.org/2000/svg" version="1.1">
 <metadata>
  <rdf:RDF xmlns:dc="http://purl.org/dc/elements/1.1/" xmlns:cc="http://creativecommons.org/ns#" xmlns:rdf="http://www.w3.org/1999/02/22-rdf-syntax-ns#">
   <cc:Work>
    <dc:type rdf:resource="http://purl.org/dc/dcmitype/StillImage"/>
    <dc:date>2024-10-15T09:51:58.635902</dc:date>
    <dc:format>image/svg+xml</dc:format>
    <dc:creator>
     <cc:Agent>
      <dc:title>Matplotlib v3.8.4, https://matplotlib.org/</dc:title>
     </cc:Agent>
    </dc:creator>
   </cc:Work>
  </rdf:RDF>
 </metadata>
 <defs>
  <style type="text/css">*{stroke-linejoin: round; stroke-linecap: butt}</style>
 </defs>
 <g id="figure_1">
  <g id="patch_1">
   <path d="M 0 720 
L 720 720 
L 720 0 
L 0 0 
z
" style="fill: #ffffff"/>
  </g>
  <g id="axes_1">
   <g id="patch_2">
    <path d="M 90 585.743332 
L 648 585.743332 
L 648 141.456668 
L 90 141.456668 
z
" style="fill: #ffffff"/>
   </g>
   <g id="PatchCollection_1">
    <path d="M 622.636364 402.031185 
L 614.563457 391.665347 
L 614.42784 391.491689 
L 614.563457 390.763962 
L 615.128939 390.32763 
L 615.254285 389.936376 
L 614.690324 387.095652 
L 612.583224 385.180279 
L 610.610409 383.117307 
L 610.146117 383.028671 
L 609.018957 381.888767 
L 608.765222 381.728043 
L 608.679249 381.68791 
L 608.58719 381.665275 
L 608.492467 381.661091 
L 608.398696 381.675356 
L 608.309489 381.707691 
L 608.223516 381.760378 
L 608.150287 381.829803 
L 608.092845 381.912733 
L 608.054043 382.005934 
L 608.035212 382.105031 
L 608.037305 382.20584 
L 608.060129 382.304177 
L 608.012007 382.339365 
L 607.045191 381.23503 
L 604.99306 378.94419 
L 604.867905 378.803438 
L 602.105545 375.696045 
L 601.570306 375.115347 
L 601.257227 374.58258 
L 601.196551 373.674157 
L 598.832863 371.951843 
L 597.743555 372.147946 
L 597.108838 371.818129 
L 597.012403 371.788457 
L 596.911975 371.777615 
L 596.811546 371.785984 
L 596.714351 371.813374 
L 596.624193 371.858833 
L 596.544307 371.92065 
L 596.477735 371.996352 
L 594.317567 372.084607 
L 593.424931 372.313044 
L 590.85487 373.241629 
L 590.740936 373.14063 
L 590.290339 373.672826 
L 587.532544 376.92896 
L 582.620478 373.10411 
L 584.048354 371.423261 
L 584.344314 368.867085 
L 583.598707 367.165884 
L 582.303786 366.059076 
L 582.552575 365.770914 
L 581.641299 364.968246 
L 580.378903 363.855922 
L 576.535413 360.470068 
L 575.56251 359.61281 
L 567.309479 354.862419 
L 567.19022 354.994802 
L 566.243185 356.044548 
L 563.858384 354.005922 
L 562.12675 352.52555 
L 559.693447 351.649272 
L 560.337484 350.949885 
L 554.422272 347.685382 
L 553.415132 347.129601 
L 552.369191 346.552326 
L 539.245178 339.153129 
L 535.681861 336.906607 
L 533.566582 335.375831 
L 528.826653 331.945468 
L 527.231016 330.633429 
L 525.033378 328.826663 
L 519.462629 324.230149 
L 518.452065 323.432996 
L 514.035296 319.862833 
L 504.031039 311.53448 
L 498.256009 306.727027 
L 498.215305 306.773818 
L 497.436222 306.131302 
L 497.473312 306.084512 
L 497.431467 306.049894 
L 494.694785 303.78169 
L 494.623838 303.803183 
L 493.893638 303.201562 
L 493.926924 303.148875 
L 493.667103 302.915873 
L 493.622215 302.970081 
L 492.541845 302.078396 
L 492.575131 302.0259 
L 492.346884 301.827515 
L 492.309794 301.874305 
L 491.532803 301.230078 
L 491.573698 301.179484 
L 488.839489 298.926495 
L 488.769113 298.946657 
L 488.016088 298.333243 
L 488.032635 298.272568 
L 487.195159 297.583832 
L 485.408556 296.114492 
L 472.683785 285.648796 
L 472.157676 285.183363 
L 471.631756 284.717739 
L 469.697553 283.515257 
L 467.103716 281.916577 
L 463.168167 279.491263 
L 461.769774 278.629059 
L 460.74076 277.985403 
L 457.453623 275.929468 
L 455.244572 274.521945 
L 449.02408 270.559196 
L 441.549752 265.741473 
L 438.982924 264.086872 
L 438.155909 263.562855 
L 434.620173 261.32242 
L 433.899102 260.865546 
L 433.485404 261.426463 
L 426.445506 255.970979 
L 422.403632 253.161068 
L 421.886082 252.801389 
L 416.403018 248.697317 
L 415.421175 247.626839 
L 413.764673 245.821785 
L 411.420386 243.26656 
L 403.618713 234.763979 
L 403.732646 233.128589 
L 401.186931 230.654962 
L 400.728725 230.704035 
L 395.596781 225.273468 
L 394.035762 224.156009 
L 389.211762 220.647662 
L 384.542398 217.251537 
L 381.905955 215.334452 
L 376.782951 209.597844 
L 376.509245 209.286477 
L 366.843935 200.934348 
L 365.549965 199.815748 
L 359.560763 194.518325 
L 355.479431 190.983077 
L 352.261043 188.195312 
L 349.925316 186.322355 
L 340.815978 179.508611 
L 333.338986 173.949085 
L 324.548243 166.745229 
L 318.494942 161.651516 
L 313.414163 172.902002 
L 310.660173 174.019081 
L 310.227074 174.980381 
L 305.411633 185.667476 
L 304.291797 188.125284 
L 303.198017 190.525904 
L 300.432425 196.642924 
L 298.965177 199.886314 
L 297.497929 203.131606 
L 296.862832 204.535135 
L 296.663876 204.974701 
L 296.046088 206.340379 
L 295.379416 207.813903 
L 295.176467 208.262218 
L 294.54175 209.665367 
L 294.398905 209.980348 
L 293.310737 212.388354 
L 291.986524 215.316763 
L 290.848903 217.830333 
L 288.732483 222.51244 
L 285.913252 221.140866 
L 282.449413 219.570526 
L 270.814332 227.232588 
L 266.588529 229.32219 
L 264.224841 230.300418 
L 261.8952 231.214547 
L 259.466842 232.167098 
L 258.577629 232.447462 
L 257.684993 232.716983 
L 256.789124 232.975473 
L 255.890211 233.223121 
L 254.852448 233.494355 
L 253.810881 233.750942 
L 252.76589 233.992884 
L 251.717665 234.22018 
L 251.37073 234.292078 
L 251.023604 234.362454 
L 250.676098 234.430928 
L 249.284552 234.689038 
L 247.888441 234.921089 
L 246.488146 235.127272 
L 245.084427 235.307587 
L 243.677665 235.461844 
L 242.268049 235.589852 
L 240.856532 235.691613 
L 239.443302 235.767314 
L 238.028741 235.816768 
L 236.61361 235.839973 
L 235.198478 235.83693 
L 233.783347 235.807638 
L 232.369167 235.752098 
L 230.956318 235.67031 
L 229.54518 235.562273 
L 228.136136 235.428177 
L 226.729944 235.268024 
L 225.326985 235.081622 
L 223.927831 234.869353 
L 222.532671 234.631215 
L 220.431118 234.374011 
L 218.874252 234.18347 
L 215.420304 233.392785 
L 213.46651 232.528299 
L 211.474865 231.741037 
L 210.174618 231.181261 
L 207.244116 229.681679 
L 202.569617 227.478905 
L 200.340976 226.409948 
L 199.911491 226.203765 
L 199.819812 226.159827 
L 195.817881 224.188154 
L 193.803791 223.217723 
L 191.484992 222.100835 
L 189.757162 221.268304 
L 188.430856 220.680758 
L 186.631319 224.513786 
L 185.407915 227.06787 
L 184.42398 229.254286 
L 184.324312 229.472262 
L 184.216846 229.686814 
L 184.101962 229.897182 
L 183.97985 230.103555 
L 183.746657 230.413781 
L 183.505476 230.71811 
L 183.256877 231.016163 
L 183.075611 231.229003 
L 182.888258 231.436518 
L 182.695009 231.638326 
L 182.495864 231.834619 
L 182.287588 232.029389 
L 182.073797 232.217693 
L 181.854299 232.39972 
L 181.629666 232.57509 
L 181.857343 233.003624 
L 180.565465 233.441477 
L 180.105357 233.597636 
L 179.187994 233.908623 
L 177.667679 234.409625 
L 176.710182 234.724986 
L 176.517123 234.788705 
L 176.348981 234.427885 
L 175.995389 234.396311 
L 175.642367 234.360362 
L 175.289725 234.320228 
L 175.142316 234.301778 
L 174.994906 234.281997 
L 174.847877 234.260504 
L 174.611261 234.21048 
L 174.375025 234.157793 
L 174.13955 234.102443 
L 173.933177 234.05356 
L 173.727374 234.002014 
L 173.522332 233.948186 
L 173.153143 233.870582 
L 172.785665 233.784419 
L 172.42047 233.689506 
L 170.830349 237.155056 
L 169.598766 239.78256 
L 168.111737 242.954432 
L 166.938357 245.457731 
L 165.965074 247.534399 
L 164.128827 251.451308 
L 160.39851 249.620196 
L 157.520315 248.238351 
L 153.805215 246.4546 
L 152.514288 245.834719 
L 148.954015 244.127622 
L 148.290386 243.809217 
L 147.782537 243.565564 
L 147.743354 243.546733 
L 147.058804 243.218438 
L 147.027229 243.203222 
L 146.349336 242.87797 
L 146.295888 242.852292 
L 141.764424 240.67881 
L 141.056478 240.339102 
L 137.901534 238.825634 
L 137.189593 238.484025 
L 132.613621 236.289049 
L 131.423313 235.718622 
L 130.104426 235.086568 
L 129.72059 234.902829 
L 127.526566 236.219244 
L 126.093745 237.078784 
L 125.572771 237.391482 
L 125.753467 239.795113 
L 126.242486 246.419983 
L 128.317252 254.71486 
L 129.487778 259.624262 
L 130.105757 261.955045 
L 130.993067 265.61936 
L 131.417036 267.195786 
L 131.534774 267.657606 
L 131.944667 269.264846 
L 132.937351 273.163495 
L 132.212667 274.695793 
L 131.998686 275.147912 
L 131.258785 276.712736 
L 130.585266 278.136617 
L 130.412369 278.502192 
L 129.71146 279.984276 
L 129.092531 281.292512 
L 128.918682 281.66018 
L 128.282063 283.006266 
L 127.946921 283.714403 
L 127.800843 284.023868 
L 126.200641 287.102349 
L 125.891176 287.809535 
L 123.735763 292.732823 
L 123.481839 293.31276 
L 123.383122 293.538725 
L 120.861753 299.297967 
L 122.646264 300.189652 
L 125.404439 301.567694 
L 126.219662 301.974924 
L 125.471011 303.628954 
L 124.99835 304.673755 
L 123.868527 307.170016 
L 123.847985 307.213383 
L 122.249875 310.516498 
L 123.254733 311.771666 
L 118.075618 322.948922 
L 115.363636 328.708706 
L 119.783667 331.054544 
L 125.646191 333.790655 
L 126.888235 334.43241 
L 130.72754 336.415686 
L 132.972159 337.589256 
L 135.826388 339.063922 
L 139.017091 340.699502 
L 142.20399 342.33299 
L 145.662122 344.104757 
L 148.084394 345.346992 
L 150.783414 346.733592 
L 152.7102 347.724945 
L 155.503372 349.162711 
L 157.029204 349.946739 
L 159.251569 351.090257 
L 163.527016 353.288276 
L 164.996926 350.100236 
L 166.518283 346.799325 
L 168.210791 347.706393 
L 170.012845 348.67217 
L 170.218267 348.846589 
L 172.456609 350.745794 
L 174.895999 352.815995 
L 176.389115 354.082575 
L 176.86501 354.486002 
L 178.375625 355.767419 
L 178.712479 356.053298 
L 176.643801 365.926693 
L 176.220593 366.278193 
L 176.503238 367.194605 
L 178.31571 372.915616 
L 178.716854 374.186382 
L 178.922657 374.838407 
L 179.086044 375.355577 
L 179.139111 375.523529 
L 179.528462 376.757204 
L 179.965936 378.143043 
L 180.841263 381.042922 
L 181.004079 381.582155 
L 181.172411 382.140219 
L 181.474458 383.140131 
L 181.61483 383.604804 
L 181.972417 384.711802 
L 182.114271 385.150902 
L 182.320684 385.790269 
L 182.495673 386.331976 
L 182.675989 386.889849 
L 182.841468 387.402454 
L 183.209516 388.541787 
L 183.386978 389.091101 
L 183.724023 390.134 
L 183.901865 390.684646 
L 184.246899 391.752271 
L 184.422268 392.295499 
L 184.601633 392.85071 
L 184.71956 393.215335 
L 184.774339 393.385189 
L 184.967208 393.982054 
L 185.433973 395.461095 
L 185.561031 395.863 
L 186.024943 397.33234 
L 186.405164 398.537294 
L 186.538118 398.9586 
L 186.897227 400.096031 
L 187.263183 401.255526 
L 187.400511 401.690146 
L 187.771032 402.863906 
L 187.974172 403.506992 
L 188.00917 403.618643 
L 188.111311 403.941422 
L 188.150683 404.066007 
L 188.318064 404.596111 
L 188.487348 405.131731 
L 188.854064 406.292557 
L 189.024299 406.83122 
L 189.203092 407.397653 
L 189.371044 407.929088 
L 189.57038 408.560001 
L 190.287265 410.861682 
L 190.982848 413.088802 
L 194.31069 421.71806 
L 194.287865 421.917396 
L 194.27417 422.037036 
L 194.26466 422.162381 
L 194.270556 422.288107 
L 194.291479 422.411931 
L 194.327428 422.532522 
L 194.399706 422.737373 
L 195.887306 426.915625 
L 195.949123 427.063225 
L 196.426539 427.962328 
L 197.470579 428.174217 
L 197.506528 428.182586 
L 197.525168 428.099276 
L 200.228754 428.751682 
L 202.762296 429.43376 
L 203.733107 429.695103 
L 205.558322 430.22806 
L 207.369272 430.802672 
L 209.172233 431.413232 
L 210.964923 432.052134 
L 212.74563 432.725082 
L 214.516256 433.422567 
L 216.265389 434.15562 
L 218.012049 434.919297 
L 219.669503 435.669659 
L 219.743113 435.703325 
L 221.460291 436.515885 
L 223.163584 437.362301 
L 224.854895 438.231161 
L 226.53232 439.132356 
L 227.608695 439.735689 
L 227.874032 439.88424 
L 254.411551 454.769178 
L 258.065976 456.820548 
L 264.855754 460.627899 
L 295.788929 477.987035 
L 295.982749 478.095262 
L 299.371837 480.000744 
L 299.829361 480.257877 
L 307.480502 484.557886 
L 312.858762 487.568273 
L 324.173157 493.96832 
L 339.070839 502.159724 
L 365.793999 516.809378 
L 384.373305 526.994521 
L 385.128042 527.41031 
L 388.432108 529.231722 
L 389.033539 529.56325 
L 408.168627 540.066037 
L 410.734123 541.472799 
L 411.131273 541.689634 
L 424.646349 549.080652 
L 436.675727 564.478766 
L 436.751809 564.887328 
L 436.990328 564.840537 
L 437.119477 565.548484 
L 437.2608 565.520714 
L 441.706862 564.650522 
L 441.844381 564.622752 
L 441.705721 563.910621 
L 441.930924 563.865542 
L 442.118087 560.92496 
L 442.332639 559.348534 
L 442.807773 555.719597 
L 442.937874 554.922254 
L 443.71962 550.767207 
L 443.880344 549.979945 
L 444.751677 547.158242 
L 445.692625 544.736541 
L 447.616747 542.020211 
L 450.143822 539.363416 
L 450.900271 538.835024 
L 451.550775 538.35057 
L 452.310647 537.763975 
L 453.16296 537.061545 
L 454.01356 536.323356 
L 454.723408 535.671711 
L 455.415187 535.003518 
L 456.117046 534.287773 
L 456.730841 533.635177 
L 457.380964 532.901934 
L 457.891857 532.300312 
L 458.517254 531.534354 
L 459.563386 530.259784 
L 471.928668 515.104753 
L 475.883618 510.256026 
L 479.975706 505.301544 
L 481.675005 503.251316 
L 494.265491 488.037321 
L 494.294402 488.002323 
L 496.39009 485.466309 
L 496.587524 485.2276 
L 507.50667 472.025413 
L 509.647829 469.453814 
L 513.076658 465.335683 
L 514.702728 463.938051 
L 516.327656 462.772279 
L 517.991577 461.779215 
L 519.699055 460.820387 
L 523.426138 459.507586 
L 524.094141 459.350857 
L 528.015044 459.019518 
L 529.699698 459.120898 
L 530.719772 459.256895 
L 531.711885 459.524705 
L 533.412896 460.13051 
L 538.079596 461.153818 
L 539.150265 461.388532 
L 539.422259 461.437605 
L 540.517465 461.448637 
L 541.611529 461.426953 
L 542.695892 461.309977 
L 543.748681 461.151345 
L 544.794053 460.910354 
L 545.874422 460.59233 
L 546.846944 460.242351 
L 547.854274 459.766647 
L 548.765551 459.192035 
L 549.594277 458.498544 
L 550.358144 457.698348 
L 550.79752 457.181939 
L 562.149765 443.845657 
L 563.39257 442.377458 
L 577.049349 426.325226 
L 578.320115 424.892976 
L 578.647459 424.544709 
L 579.578897 423.35364 
L 580.427389 422.511923 
L 582.032552 420.919576 
L 582.576351 420.408493 
L 582.744112 420.212391 
L 588.099738 413.941114 
L 587.453038 413.614911 
L 590.473127 410.61974 
L 590.886634 410.175039 
L 591.888638 409.490297 
L 592.926782 408.709312 
L 594.74534 407.391756 
L 595.020378 407.223805 
L 595.816009 406.792037 
L 597.60052 405.760932 
L 598.130814 405.48209 
L 598.532338 405.270961 
L 598.793301 405.144665 
L 599.059779 405.039291 
L 599.326067 404.936009 
L 601.114383 404.306237 
L 602.907453 403.729914 
L 604.705849 403.174513 
L 606.504055 402.621014 
L 608.318429 402.124957 
L 610.13984 401.659333 
L 611.964865 401.201507 
L 613.802253 400.789521 
L 614.089845 400.762512 
L 614.385044 400.749198 
L 614.679483 400.768028 
L 622.636364 402.031185 
" clip-path="url(#p41ae8ffe6b)" style="fill: #d3d3d3"/>
   </g>
   <g id="PatchCollection_2">
    <path d="M 583.598707 367.165884 
L 584.344314 368.867085 
L 584.048354 371.423261 
L 582.620478 373.10411 
L 587.532544 376.92896 
L 590.290339 373.672826 
L 590.740936 373.14063 
L 590.85487 373.241629 
L 593.424931 372.313044 
L 594.317567 372.084607 
L 596.477735 371.996352 
L 596.544307 371.92065 
L 596.624193 371.858833 
L 596.714351 371.813374 
L 596.811546 371.785984 
L 596.911975 371.777615 
L 597.012403 371.788457 
L 597.108838 371.818129 
L 597.743555 372.147946 
L 598.832863 371.951843 
L 601.196551 373.674157 
L 601.257227 374.58258 
L 601.570306 375.115347 
L 602.105545 375.696045 
L 604.867905 378.803438 
L 604.99306 378.94419 
L 607.045191 381.23503 
L 608.012007 382.339365 
L 608.060129 382.304177 
L 608.037305 382.20584 
L 608.035212 382.105031 
L 608.054043 382.005934 
L 608.092845 381.912733 
L 608.150287 381.829803 
L 608.223516 381.760378 
L 608.309489 381.707691 
L 608.398696 381.675356 
L 608.492467 381.661091 
L 608.58719 381.665275 
L 608.679249 381.68791 
L 608.765222 381.728043 
L 609.018957 381.888767 
L 610.146117 383.028671 
L 610.610409 383.117307 
L 612.583224 385.180279 
L 614.690324 387.095652 
L 615.254285 389.936376 
L 615.128939 390.32763 
L 614.563457 390.763962 
L 614.42784 391.491689 
L 614.563457 391.665347 
L 622.636364 402.031185 
L 614.679483 400.768028 
L 614.385044 400.749198 
L 614.089845 400.762512 
L 613.802253 400.789521 
L 611.964865 401.201507 
L 610.13984 401.659333 
L 608.318429 402.124957 
L 606.504055 402.621014 
L 604.705849 403.174513 
L 602.907453 403.729914 
L 601.114383 404.306237 
L 599.326067 404.936009 
L 599.059779 405.039291 
L 598.793301 405.144665 
L 598.532338 405.270961 
L 598.130814 405.48209 
L 597.60052 405.760932 
L 595.816009 406.792037 
L 595.020378 407.223805 
L 594.74534 407.391756 
L 592.926782 408.709312 
L 591.888638 409.490297 
L 590.886634 410.175039 
L 590.473127 410.61974 
L 590.344123 410.747679 
L 590.307412 410.720401 
L 590.326907 410.764753 
L 587.453038 413.614911 
L 588.099738 413.941114 
L 582.744112 420.212391 
L 582.576351 420.408493 
L 582.032552 420.919576 
L 580.427389 422.511923 
L 579.578897 423.35364 
L 578.647459 424.544709 
L 578.320115 424.892976 
L 577.049349 426.325226 
L 563.39257 442.377458 
L 562.149765 443.845657 
L 550.79752 457.181939 
L 550.358144 457.698348 
L 549.594277 458.498544 
L 548.765551 459.192035 
L 547.854274 459.766647 
L 546.846944 460.242351 
L 545.874422 460.59233 
L 544.794053 460.910354 
L 543.748681 461.151345 
L 542.695892 461.309977 
L 541.611529 461.426953 
L 540.517465 461.448637 
L 539.422259 461.437605 
L 539.150265 461.388532 
L 538.079596 461.153818 
L 533.412896 460.13051 
L 531.711885 459.524705 
L 530.719772 459.256895 
L 529.699698 459.120898 
L 528.015044 459.019518 
L 524.094141 459.350857 
L 523.426138 459.507586 
L 519.699055 460.820387 
L 517.991577 461.779215 
L 516.327656 462.772279 
L 515.04965 463.689159 
L 513.458054 463.610116 
L 511.617598 463.336692 
L 509.812663 462.884753 
L 508.060522 462.258623 
L 506.37794 461.464293 
L 504.781021 460.509366 
L 503.285044 459.402979 
L 501.454542 457.905303 
L 501.386836 457.849647 
L 501.130389 457.637848 
L 501.421146 459.096393 
L 501.604845 460.93315 
L 501.609634 462.779065 
L 501.435468 464.61675 
L 501.326075 465.376325 
L 500.994454 467.106579 
L 500.504166 468.798727 
L 499.859418 470.438254 
L 499.06574 472.011094 
L 498.129941 473.503752 
L 497.548629 474.342041 
L 496.343264 475.901102 
L 494.983055 477.327077 
L 493.482602 478.60466 
L 491.858013 479.720137 
L 490.126727 480.661532 
L 488.307329 481.41874 
L 487.277582 481.785962 
L 485.608704 482.296114 
L 483.900093 482.651162 
L 482.166132 482.848119 
L 480.421419 482.885325 
L 479.632195 482.829625 
L 477.985996 483.47303 
L 476.147727 483.98615 
L 474.26729 484.312466 
L 472.363618 484.448693 
L 470.455877 484.393459 
L 468.563276 484.147319 
L 466.948368 483.854257 
L 465.176855 483.444445 
L 463.452567 482.867349 
L 461.791264 482.128243 
L 460.208127 481.23388 
L 458.717624 480.192436 
L 457.767622 479.383288 
L 456.563088 479.272131 
L 454.737483 478.921417 
L 452.954834 478.394165 
L 451.232168 477.695411 
L 449.585942 476.83183 
L 441.854412 472.280928 
L 440.708876 473.333062 
L 439.244875 474.437847 
L 437.681273 475.396492 
L 436.03261 476.200084 
L 434.314214 476.84115 
L 432.542063 477.313731 
L 430.732635 477.613432 
L 428.902754 477.737466 
L 427.069434 477.684681 
L 425.24972 477.455567 
L 423.460533 477.052254 
L 421.718509 476.478493 
L 420.039845 475.739617 
L 418.440149 474.842498 
L 413.516551 471.760222 
L 412.003243 470.707463 
L 410.598956 469.51315 
L 409.316881 468.188503 
L 408.169062 466.745965 
L 407.166281 465.199087 
L 406.317957 463.562398 
L 405.632058 461.851273 
L 405.115029 460.081785 
L 404.771726 458.270557 
L 404.605373 456.434602 
L 404.617533 454.591166 
L 404.808092 452.757565 
L 405.17526 450.951024 
L 405.715588 449.188511 
L 406.424 447.486584 
L 407.293842 445.861229 
L 408.316943 444.327714 
L 409.413481 442.845142 
L 410.694054 441.109488 
L 412.042085 439.2808 
L 411.994738 439.177853 
L 411.379633 437.392144 
L 410.944656 435.554235 
L 410.694097 433.682249 
L 410.630426 431.794643 
L 410.706977 430.629717 
L 410.512191 430.65542 
L 408.629593 430.715927 
L 406.750241 430.589935 
L 405.943657 430.454792 
L 405.692902 430.634216 
L 404.247581 431.572421 
L 402.723284 432.375975 
L 401.132519 433.038283 
L 399.488344 433.553908 
L 398.068318 433.92951 
L 396.2584 434.315122 
L 394.419575 434.523029 
L 392.56925 434.551261 
L 390.724939 434.399551 
L 388.904098 434.069337 
L 387.123965 433.563743 
L 385.401388 432.887554 
L 383.752674 432.047173 
L 382.193427 431.050553 
L 380.738408 429.907128 
L 379.40139 428.627721 
L 378.195027 427.224443 
L 377.908482 426.856315 
L 376.872455 425.386982 
L 375.979785 423.826395 
L 375.238447 422.188497 
L 374.655065 420.487921 
L 374.23485 418.739862 
L 373.981557 416.959936 
L 373.897449 415.164047 
L 373.983278 413.368239 
L 374.03204 413.027921 
L 374.006047 412.535234 
L 374.00694 412.315138 
L 374.106736 410.444953 
L 374.389972 408.593648 
L 374.465132 408.22489 
L 374.491255 408.12723 
L 374.357165 407.731337 
L 373.936141 405.925428 
L 373.7583 404.580985 
L 372.562061 403.924748 
L 370.967933 402.945275 
L 369.477748 401.813922 
L 368.340514 400.759203 
L 368.034318 401.276375 
L 366.936169 402.775293 
L 363.972352 406.431741 
L 362.720784 407.828911 
L 361.337684 409.096009 
L 359.836503 410.220714 
L 358.23184 411.192086 
L 356.539303 412.00068 
L 354.775351 412.638629 
L 352.957141 413.099732 
L 351.102354 413.379502 
L 349.22903 413.475219 
L 347.355387 413.385953 
L 345.499648 413.112571 
L 343.67986 412.657732 
L 341.913722 412.02586 
L 340.864606 411.529084 
L 341.217583 411.907508 
L 342.342307 413.376937 
L 343.318921 414.948704 
L 344.138181 416.607932 
L 344.792332 418.338918 
L 345.275184 420.125278 
L 345.582166 421.950103 
L 345.710372 423.796123 
L 345.658589 425.645865 
L 345.652489 425.694288 
L 345.741759 426.663875 
L 345.726032 428.566519 
L 345.520941 430.452122 
L 345.671237 430.528527 
L 345.671237 430.528527 
L 345.762062 430.574632 
L 345.834847 430.611776 
L 347.396025 431.41272 
L 350.467319 432.987236 
L 350.494004 433.000943 
L 351.919411 433.734527 
L 353.312959 434.446332 
L 353.337797 434.459042 
L 357.873238 436.784078 
L 357.91817 436.807188 
L 361.630592 438.722784 
L 363.236677 439.653442 
L 364.744397 440.736221 
L 366.139394 441.960808 
L 367.408382 443.315541 
L 368.539274 444.787518 
L 369.5213 446.362718 
L 370.345107 448.02614 
L 371.002849 449.761942 
L 371.488261 451.55359 
L 371.796722 453.384023 
L 371.925292 455.235806 
L 371.872747 457.091304 
L 371.639588 458.932843 
L 371.228036 460.742886 
L 370.64201 462.504194 
L 369.887091 464.199991 
L 368.970469 465.814127 
L 366.133035 470.287296 
L 366.660873 470.467117 
L 368.364258 471.241658 
L 369.983295 472.179825 
L 370.731115 472.663796 
L 371.251541 473.019177 
L 372.273508 473.691194 
L 372.28768 473.700532 
L 372.287815 473.700611 
L 374.440292 475.118798 
L 375.917417 476.197325 
L 377.284125 477.412738 
L 378.527779 478.753799 
L 379.63688 480.208108 
L 380.254966 481.204252 
L 381.591499 480.402313 
L 383.2764 479.604206 
L 385.031343 478.974886 
L 386.839465 478.520399 
L 388.683397 478.245111 
L 390.545421 478.151668 
L 392.407649 478.240967 
L 394.252188 478.512151 
L 396.061318 478.962613 
L 397.817656 479.588027 
L 399.504329 480.382382 
L 404.868461 483.23787 
L 405.198102 483.412776 
L 406.805242 484.369624 
L 408.310633 485.479695 
L 409.699717 486.732255 
L 410.959061 488.115191 
L 412.076487 489.61513 
L 413.041191 491.217567 
L 413.843842 492.907008 
L 414.476681 494.667115 
L 414.933586 496.480867 
L 415.210139 498.330726 
L 415.303667 500.198803 
L 415.213265 502.067034 
L 414.939807 503.917352 
L 414.485937 505.731867 
L 413.856045 507.49303 
L 413.056222 509.183811 
L 413.009287 509.271583 
L 413.049481 509.221817 
L 414.406405 507.85234 
L 415.894986 506.627256 
L 416.132803 506.468987 
L 415.95294 505.381465 
L 415.82963 503.541718 
L 415.885036 501.698675 
L 416.118639 499.869658 
L 416.528243 498.071854 
L 417.109998 496.322159 
L 417.858437 494.637014 
L 418.766528 493.032256 
L 421.998265 487.916721 
L 423.078204 486.380792 
L 424.304313 484.95882 
L 425.664646 483.664663 
L 427.145946 482.510931 
L 428.733779 481.508866 
L 430.412673 480.668233 
L 432.166268 479.997224 
L 433.977476 479.502377 
L 435.828648 479.188514 
L 437.701746 479.058693 
L 439.578517 479.11418 
L 441.440673 479.354433 
L 443.270069 479.777112 
L 445.048879 480.378098 
L 446.759768 481.151535 
L 448.108716 481.843468 
L 453.152917 484.424856 
L 454.782659 485.363323 
L 455.293279 485.728921 
L 455.552069 485.814187 
L 457.262659 486.571259 
L 457.640362 486.761155 
L 472.109348 494.034451 
L 473.733152 494.953116 
L 475.259145 496.026443 
L 476.672646 497.244105 
L 477.960054 498.594388 
L 479.108984 500.064301 
L 479.845703 501.225627 
L 481.528711 501.658877 
L 481.582265 501.678434 
L 481.872056 500.644811 
L 482.531361 498.941893 
L 483.350929 497.310046 
L 484.323206 495.764313 
L 485.439232 494.318941 
L 486.188083 493.439805 
L 486.243527 493.380715 
L 486.793242 492.686568 
L 487.760073 491.583548 
L 489.044967 490.253999 
L 490.45288 489.055488 
L 491.970509 487.999338 
L 493.583512 487.09553 
L 495.276649 486.352604 
L 495.798904 486.181709 
L 494.294402 488.002323 
L 494.265491 488.037321 
L 481.675005 503.251316 
L 479.975706 505.301544 
L 475.883618 510.256026 
L 471.928668 515.104753 
L 459.563386 530.259784 
L 458.517254 531.534354 
L 457.891857 532.300312 
L 457.380964 532.901934 
L 456.730841 533.635177 
L 456.117046 534.287773 
L 455.415187 535.003518 
L 454.723408 535.671711 
L 454.01356 536.323356 
L 453.16296 537.061545 
L 452.310647 537.763975 
L 451.550775 538.35057 
L 450.900271 538.835024 
L 450.143822 539.363416 
L 447.616747 542.020211 
L 445.692625 544.736541 
L 444.75383 547.1527 
L 443.025395 547.627797 
L 442.712167 547.711031 
L 442.005779 547.89231 
L 442.598092 548.712719 
L 442.614251 548.735135 
L 443.798559 550.380545 
L 443.71962 550.767207 
L 442.937874 554.922254 
L 442.807773 555.719597 
L 442.332639 559.348534 
L 442.118087 560.92496 
L 441.930924 563.865542 
L 441.705721 563.910621 
L 441.844381 564.622752 
L 441.706862 564.650522 
L 437.2608 565.520714 
L 437.119477 565.548484 
L 436.990328 564.840537 
L 436.751809 564.887328 
L 436.675727 564.478766 
L 424.646349 549.080652 
L 411.131273 541.689634 
L 410.734123 541.472799 
L 408.168627 540.066037 
L 390.002051 530.094843 
L 391.019948 529.093087 
L 392.427509 527.950083 
L 392.926369 527.618463 
L 391.792122 527.675445 
L 389.929978 527.586259 
L 388.085509 527.315206 
L 386.276435 526.864888 
L 384.520135 526.239633 
L 382.833481 525.445446 
L 377.116937 522.402944 
L 375.512272 521.444886 
L 374.009375 520.333972 
L 372.622757 519.080929 
L 371.365804 517.697855 
L 370.250651 516.1981 
L 369.810964 515.466364 
L 369.555326 515.682057 
L 368.051501 516.721309 
L 366.852571 517.389686 
L 365.793999 516.809378 
L 339.070839 502.159724 
L 324.173157 493.96832 
L 322.106497 492.799303 
L 322.268013 491.791552 
L 320.31398 490.595588 
L 318.758921 489.534591 
L 318.408581 489.240847 
L 316.942034 488.997666 
L 315.147501 488.516352 
L 313.408488 487.86225 
L 313.176972 487.74827 
L 312.858762 487.568273 
L 307.480502 484.557886 
L 299.829361 480.257877 
L 299.371837 480.000744 
L 298.609606 479.572187 
L 297.213117 478.444681 
L 295.855428 477.102537 
L 294.63912 475.631052 
L 293.576446 474.045053 
L 292.678111 472.360515 
L 291.953166 470.59441 
L 291.408913 468.76453 
L 291.292091 468.152739 
L 289.958178 468.984517 
L 288.286721 469.811558 
L 286.542308 470.470942 
L 284.741708 470.956331 
L 283.599834 471.146736 
L 264.855754 460.627899 
L 261.226726 458.592931 
L 260.585121 456.89507 
L 260.09955 455.092321 
L 259.793057 453.250652 
L 259.668595 451.387807 
L 259.727363 449.521735 
L 259.968794 447.670413 
L 260.286784 446.299194 
L 259.458944 446.355314 
L 257.595403 446.298697 
L 255.746358 446.059907 
L 253.929573 445.641239 
L 252.162505 445.046713 
L 250.462131 444.282044 
L 246.460785 442.241237 
L 244.839746 441.311402 
L 243.317777 440.226979 
L 241.90957 438.998435 
L 240.628721 437.637631 
L 239.487591 436.157703 
L 238.497199 434.572936 
L 237.667103 432.898629 
L 237.005317 431.150944 
L 236.518229 429.346752 
L 236.210541 427.503469 
L 236.085224 425.638889 
L 236.143486 423.771011 
L 236.384767 421.917865 
L 236.806735 420.097342 
L 237.40532 418.327014 
L 237.495942 418.12643 
L 237.163077 417.593812 
L 236.33368 415.921409 
L 235.672219 414.175757 
L 235.185063 412.373673 
L 234.876905 410.532513 
L 234.750713 408.670013 
L 234.807704 406.804114 
L 235.047328 404.952787 
L 235.467277 403.133866 
L 236.063506 401.364872 
L 236.341839 400.74704 
L 235.186447 400.527047 
L 233.392776 399.998619 
L 231.65966 399.296625 
L 231.204414 399.085618 
L 230.46764 398.724618 
L 228.27068 397.588767 
L 226.697407 396.677549 
L 225.218321 395.620282 
L 223.846936 394.426627 
L 222.595784 393.107489 
L 221.476294 391.674921 
L 220.498696 390.142012 
L 219.671921 388.522768 
L 219.003524 386.831983 
L 218.499611 385.085105 
L 218.164788 383.298096 
L 218.002112 381.487283 
L 218.01307 379.66921 
L 218.197562 377.860489 
L 218.553902 376.077646 
L 219.078836 374.33697 
L 219.767565 372.654365 
L 219.809576 372.564273 
L 220.028185 372.1112 
L 220.802214 370.559771 
L 221.260565 369.697247 
L 225.265985 362.605508 
L 226.241663 361.057081 
L 227.361644 359.609594 
L 228.615558 358.276448 
L 229.991795 357.069988 
L 231.477614 356.001383 
L 233.059258 355.080526 
L 234.722084 354.315944 
L 236.450696 353.714715 
L 238.22909 353.282406 
L 240.0408 353.02302 
L 241.869053 352.938957 
L 243.696922 353.030997 
L 246.970801 353.354324 
L 248.805567 353.626403 
L 250.605109 354.075897 
L 252.352313 354.69853 
L 254.030565 355.488383 
L 255.623904 356.437943 
L 257.117179 357.538182 
L 257.857189 358.203838 
L 258.620604 357.216132 
L 259.892852 355.865683 
L 261.29062 354.645611 
L 261.663076 354.37969 
L 260.644229 353.523954 
L 259.346442 352.197836 
L 258.18404 350.751577 
L 257.168087 349.19894 
L 256.642269 348.193435 
L 255.684893 348.502444 
L 253.835171 348.901883 
L 251.954912 349.115543 
L 250.062728 349.141311 
L 248.177348 348.978931 
L 246.317435 348.63001 
L 244.501398 348.098002 
L 243.943945 347.872429 
L 243.636914 347.816295 
L 241.846882 347.303964 
L 240.115518 346.619073 
L 239.492649 346.336683 
L 237.861902 345.500409 
L 236.319207 344.511073 
L 234.982484 343.459369 
L 234.173452 342.913976 
L 232.76572 341.754302 
L 231.475534 340.465127 
L 230.314756 339.058306 
L 229.29406 337.546773 
L 228.42283 335.944428 
L 227.709078 334.266003 
L 227.159366 332.526931 
L 226.77875 330.743204 
L 226.570728 328.931222 
L 226.537214 327.107646 
L 226.678515 325.289244 
L 226.993333 323.492736 
L 227.478773 321.73464 
L 228.130371 320.031123 
L 229.013914 318.016446 
L 229.867724 316.308263 
L 230.888517 314.694305 
L 232.066004 313.19084 
L 233.388314 311.813024 
L 234.842119 310.574747 
L 236.412764 309.48849 
L 238.084417 308.565202 
L 239.840225 307.814192 
L 241.662491 307.243029 
L 243.532846 306.857471 
L 245.432435 306.661405 
L 247.34211 306.656806 
L 249.242622 306.843722 
L 251.114811 307.220268 
L 252.939807 307.782648 
L 254.699212 308.525194 
L 255.480181 308.902045 
L 255.525215 308.923849 
L 259.338623 310.776368 
L 260.013542 309.209423 
L 261.107074 306.97918 
L 262.008526 305.348063 
L 262.23413 305.020343 
L 260.817447 304.353756 
L 259.158417 303.470514 
L 257.594657 302.427849 
L 256.141435 301.235942 
L 255.495255 300.589267 
L 254.365227 301.572741 
L 252.845977 302.653039 
L 251.228272 303.579428 
L 249.527653 304.343009 
L 247.760453 304.936448 
L 245.943649 305.354045 
L 244.094692 305.591787 
L 242.231342 305.647392 
L 240.371499 305.520325 
L 238.533026 305.211807 
L 236.733585 304.724801 
L 234.990459 304.063985 
L 232.554479 303.001226 
L 232.536947 302.992528 
L 231.670254 302.997524 
L 229.813642 302.825667 
L 227.982777 302.472854 
L 227.831457 302.427956 
L 227.828291 303.910682 
L 227.639683 305.776255 
L 227.268304 307.614193 
L 226.717761 309.406633 
L 225.993407 311.136156 
L 225.33153 312.520694 
L 225.272243 312.643578 
L 224.696139 313.826807 
L 223.808981 315.444485 
L 222.76927 316.9686 
L 221.586786 318.384814 
L 220.272655 319.6798 
L 218.839243 320.841376 
L 217.300035 321.858611 
L 215.669513 322.721935 
L 213.963019 323.423225 
L 212.196609 323.955882 
L 210.386902 324.314896 
L 208.550927 324.496889 
L 206.705955 324.500147 
L 205.245458 324.360581 
L 204.66975 324.350326 
L 202.870365 324.146021 
L 201.098566 323.771518 
L 199.370413 323.23021 
L 197.701572 322.527005 
L 197.479159 322.420548 
L 197.003699 322.184764 
L 196.70789 322.032892 
L 196.274481 321.864986 
L 196.008405 321.746991 
L 195.629932 321.557639 
L 195.032463 321.29488 
L 194.824205 321.190849 
L 193.173208 320.260601 
L 191.622972 319.170684 
L 191.262386 318.859209 
L 191.244928 319.11071 
L 191.073176 320.110954 
L 191.912247 321.657747 
L 192.646649 323.408539 
L 193.20285 325.223824 
L 193.57531 327.085515 
L 193.760317 328.975063 
L 193.756028 330.873641 
L 193.683078 331.585527 
L 193.771852 331.699099 
L 195.279174 333.825335 
L 196.307879 335.443559 
L 197.168425 337.157135 
L 197.852068 338.948646 
L 198.351859 340.799887 
L 198.662719 342.692041 
L 198.781488 344.605879 
L 198.706959 346.52195 
L 198.43989 348.42078 
L 197.982995 350.283072 
L 197.340917 352.089897 
L 196.520183 353.822894 
L 195.529133 355.464448 
L 194.377839 356.997877 
L 193.078003 358.407597 
L 191.642835 359.679279 
L 188.116796 362.499564 
L 186.586218 363.603881 
L 184.95373 364.551071 
L 183.235407 365.33181 
L 181.448167 365.938409 
L 179.609609 366.364896 
L 177.737835 366.607072 
L 176.59857 366.640575 
L 177.922352 367.30329 
L 179.549604 368.336045 
L 181.06399 369.528172 
L 182.449962 370.867431 
L 183.693288 372.340072 
L 184.20431 373.011619 
L 185.251429 374.536151 
L 186.145531 376.155174 
L 186.878165 377.85338 
L 187.442402 379.614712 
L 187.832907 381.422518 
L 188.045989 383.259704 
L 188.079633 385.108899 
L 187.933521 386.95262 
L 187.779147 387.818867 
L 188.176714 389.073421 
L 188.563716 390.901694 
L 188.769438 392.75912 
L 188.791894 394.627768 
L 188.630868 396.489601 
L 188.287913 398.326646 
L 187.766341 400.12117 
L 187.284599 401.323304 
L 187.263183 401.255526 
L 186.897227 400.096031 
L 186.538118 398.9586 
L 186.405164 398.537294 
L 186.024943 397.33234 
L 185.561031 395.863 
L 185.433973 395.461095 
L 184.967208 393.982054 
L 184.774339 393.385189 
L 184.71956 393.215335 
L 184.601633 392.85071 
L 184.422268 392.295499 
L 184.246899 391.752271 
L 183.901865 390.684646 
L 183.724023 390.134 
L 183.386978 389.091101 
L 183.209516 388.541787 
L 182.841468 387.402454 
L 182.675989 386.889849 
L 182.495673 386.331976 
L 182.320684 385.790269 
L 182.114271 385.150902 
L 181.972417 384.711802 
L 181.61483 383.604804 
L 181.474458 383.140131 
L 181.172411 382.140219 
L 181.004079 381.582155 
L 180.841263 381.042922 
L 179.965936 378.143043 
L 179.528462 376.757204 
L 179.139111 375.523529 
L 179.086044 375.355577 
L 178.922657 374.838407 
L 178.716854 374.186382 
L 178.31571 372.915616 
L 176.503238 367.194605 
L 176.220593 366.278193 
L 176.643801 365.926693 
L 178.712479 356.053298 
L 178.375625 355.767419 
L 176.86501 354.486002 
L 176.389115 354.082575 
L 174.895999 352.815995 
L 172.456609 350.745794 
L 170.218267 348.846589 
L 170.012845 348.67217 
L 168.210791 347.706393 
L 166.518283 346.799325 
L 164.996926 350.100236 
L 163.527016 353.288276 
L 159.251569 351.090257 
L 157.029204 349.946739 
L 155.503372 349.162711 
L 152.7102 347.724945 
L 150.783414 346.733592 
L 148.084394 345.346992 
L 145.662122 344.104757 
L 142.20399 342.33299 
L 139.017091 340.699502 
L 135.826388 339.063922 
L 132.972159 337.589256 
L 130.72754 336.415686 
L 126.888235 334.43241 
L 125.646191 333.790655 
L 119.783667 331.054544 
L 115.363636 328.708706 
L 116.651036 325.974491 
L 116.697375 326.066128 
L 117.160948 327.261751 
L 118.189595 327.426979 
L 119.947475 327.884848 
L 121.65366 328.508321 
L 123.292588 329.291712 
L 124.026628 329.686693 
L 125.671566 330.682175 
L 127.207599 331.838639 
L 128.619032 333.144266 
L 129.707017 334.376789 
L 129.309789 332.718394 
L 129.055794 330.888824 
L 128.980458 329.043244 
L 129.084494 327.19906 
L 129.366919 325.373663 
L 129.82507 323.584267 
L 130.454626 321.847748 
L 131.249652 320.180482 
L 132.202647 318.598193 
L 133.304627 317.115803 
L 134.545197 315.747291 
L 135.912659 314.505564 
L 137.394117 313.402332 
L 138.9756 312.447998 
L 140.642192 311.651563 
L 142.366808 310.928047 
L 143.305378 310.532311 
L 143.337852 310.518654 
L 143.866827 310.296771 
L 144.077753 310.207661 
L 144.117133 310.191076 
L 144.843036 309.886322 
L 145.069887 309.389778 
L 146.009019 307.775081 
L 147.102004 306.260288 
L 147.300091 306.035927 
L 146.093124 304.833406 
L 144.896986 303.37878 
L 143.85056 301.812997 
L 142.964104 300.151408 
L 142.246308 298.410301 
L 141.70421 296.606746 
L 140.938955 293.512561 
L 140.754516 292.688786 
L 140.294573 290.397102 
L 140.018324 288.559281 
L 139.92275 286.703273 
L 140.008763 284.846798 
L 140.275542 283.007579 
L 140.583233 281.759933 
L 140.173372 279.953273 
L 140.026417 279.116125 
L 139.950054 279.007332 
L 139.020796 277.354977 
L 138.260635 275.618327 
L 137.677122 273.814634 
L 137.276054 271.961814 
L 137.061413 270.078273 
L 137.054713 269.591324 
L 136.495899 268.250392 
L 135.966771 266.545767 
L 135.599755 264.79905 
L 135.398084 263.025621 
L 135.363533 261.241096 
L 135.496407 259.461189 
L 135.652275 258.184116 
L 135.982164 256.286318 
L 136.50231 254.431617 
L 137.207378 252.639036 
L 137.299163 252.436447 
L 137.886824 250.767307 
L 138.603497 249.015351 
L 139.490754 247.343302 
L 140.539809 245.767721 
L 141.740273 244.304212 
L 143.080256 242.967269 
L 144.358947 241.923253 
L 146.295888 242.852292 
L 146.349336 242.87797 
L 147.027229 243.203222 
L 147.058804 243.218438 
L 147.743354 243.546733 
L 147.782537 243.565564 
L 148.290386 243.809217 
L 148.954015 244.127622 
L 152.514288 245.834719 
L 153.805215 246.4546 
L 157.520315 248.238351 
L 160.39851 249.620196 
L 164.128827 251.451308 
L 165.965074 247.534399 
L 166.938357 245.457731 
L 168.111737 242.954432 
L 168.604917 241.902466 
L 169.511918 242.617811 
L 169.885833 242.941369 
L 170.793998 243.81096 
L 172.548337 243.260421 
L 174.373887 242.878959 
L 176.228019 242.678112 
L 176.865181 242.671859 
L 176.699899 242.512797 
L 175.472843 241.070613 
L 174.395262 239.51357 
L 173.477838 237.857099 
L 172.729663 236.117618 
L 172.158151 234.312365 
L 172.150781 234.277273 
L 172.42047 233.689506 
L 172.785665 233.784419 
L 173.153143 233.870582 
L 173.522332 233.948186 
L 173.727374 234.002014 
L 173.933177 234.05356 
L 174.13955 234.102443 
L 174.375025 234.157793 
L 174.611261 234.21048 
L 174.847877 234.260504 
L 174.994906 234.281997 
L 175.142316 234.301778 
L 175.289725 234.320228 
L 175.642367 234.360362 
L 175.995389 234.396311 
L 176.348981 234.427885 
L 176.517123 234.788705 
L 176.710182 234.724986 
L 177.667679 234.409625 
L 179.187994 233.908623 
L 180.105357 233.597636 
L 180.565465 233.441477 
L 181.857343 233.003624 
L 181.629666 232.57509 
L 181.854299 232.39972 
L 182.073797 232.217693 
L 182.287588 232.029389 
L 182.495864 231.834619 
L 182.695009 231.638326 
L 182.888258 231.436518 
L 183.075611 231.229003 
L 183.256877 231.016163 
L 183.505476 230.71811 
L 183.746657 230.413781 
L 183.97985 230.103555 
L 184.101962 229.897182 
L 184.216846 229.686814 
L 184.324312 229.472262 
L 184.42398 229.254286 
L 185.407915 227.06787 
L 186.631319 224.513786 
L 188.430856 220.680758 
L 189.757162 221.268304 
L 191.484992 222.100835 
L 193.803791 223.217723 
L 195.817881 224.188154 
L 199.819812 226.159827 
L 199.911491 226.203765 
L 200.340976 226.409948 
L 202.569617 227.478905 
L 207.244116 229.681679 
L 210.174618 231.181261 
L 211.474865 231.741037 
L 213.46651 232.528299 
L 215.420304 233.392785 
L 217.032493 233.761851 
L 216.903838 234.193923 
L 216.19322 235.931798 
L 214.486052 239.581403 
L 214.389488 239.784697 
L 214.018792 240.553344 
L 213.313187 241.852781 
L 214.855276 241.350449 
L 216.645309 240.953039 
L 218.465291 240.729837 
L 220.298309 240.682918 
L 222.127326 240.812718 
L 223.935347 241.11803 
L 225.705568 241.596017 
L 227.421538 242.242237 
L 233.294076 244.783358 
L 234.059048 245.11329 
L 235.770591 245.955653 
L 236.635236 246.494968 
L 237.192291 246.60214 
L 238.979602 247.131828 
L 240.706479 247.833931 
L 243.892694 249.315235 
L 245.405107 250.019445 
L 247.819256 251.143784 
L 249.472064 252.014761 
L 251.031453 253.043683 
L 252.482378 254.220625 
L 253.810841 255.534231 
L 255.004026 256.971829 
L 256.05042 258.519548 
L 256.939929 260.162457 
L 257.66397 261.884705 
L 258.215559 263.669677 
L 258.589374 265.500152 
L 258.781808 267.35847 
L 258.786294 268.269666 
L 259.677401 267.539565 
L 261.200135 266.519954 
L 262.813923 265.651615 
L 264.503786 264.94261 
L 266.254036 264.399519 
L 268.048428 264.027384 
L 269.870303 263.82966 
L 271.702751 263.808181 
L 273.52876 263.963148 
L 275.331381 264.293122 
L 277.09388 264.795039 
L 278.799897 265.46424 
L 280.563724 266.256169 
L 281.811419 266.886877 
L 281.538695 265.906045 
L 281.219428 264.09468 
L 281.076608 262.260947 
L 281.11157 260.421993 
L 281.13707 260.202672 
L 274.652189 255.703705 
L 273.139209 254.53729 
L 271.750866 253.224989 
L 270.501165 251.780039 
L 269.402712 250.217018 
L 268.466591 248.551692 
L 267.702242 246.800863 
L 267.117378 244.982191 
L 266.717899 243.114024 
L 266.507834 241.215207 
L 266.488883 240.899435 
L 266.465921 239.10745 
L 266.611715 237.321258 
L 266.924971 235.556716 
L 267.402909 233.829489 
L 268.041285 232.15491 
L 270.016386 227.627161 
L 270.814332 227.232588 
L 282.449413 219.570526 
L 285.913252 221.140866 
L 288.732483 222.51244 
L 290.848903 217.830333 
L 291.986524 215.316763 
L 293.310737 212.388354 
L 294.398905 209.980348 
L 294.54175 209.665367 
L 295.176467 208.262218 
L 295.379416 207.813903 
L 296.046088 206.340379 
L 296.663876 204.974701 
L 296.862832 204.535135 
L 297.497929 203.131606 
L 298.965177 199.886314 
L 300.432425 196.642924 
L 303.198017 190.525904 
L 304.291797 188.125284 
L 304.432396 187.8167 
L 304.712218 188.093642 
L 305.906186 189.533893 
L 306.952892 191.084471 
L 307.84221 192.730374 
L 308.565537 194.45568 
L 309.115876 196.243699 
L 309.258885 196.948483 
L 310.725515 197.784002 
L 310.995325 197.974906 
L 312.127012 198.586423 
L 313.659442 199.618197 
L 315.084549 200.793768 
L 316.388889 202.102046 
L 317.560159 203.53069 
L 318.587309 205.066222 
L 319.460649 206.694157 
L 319.77368 207.4445 
L 320.435005 207.75478 
L 321.740322 208.449379 
L 322.836743 208.495904 
L 324.69794 208.760626 
L 326.523914 209.207784 
L 328.296828 209.83301 
L 329.999363 210.630198 
L 331.256995 211.296734 
L 331.9058 211.656981 
L 334.109752 212.937595 
L 334.929128 213.371479 
L 335.706734 213.806869 
L 336.668757 214.375522 
L 340.197646 216.358536 
L 341.341517 217.001726 
L 342.917361 217.992295 
L 344.38884 219.132145 
L 345.741863 220.410361 
L 346.963474 221.814702 
L 348.041975 223.331721 
L 348.65782 224.406995 
L 349.345034 224.300743 
L 351.208241 224.197693 
L 353.07258 224.277712 
L 354.920105 224.540031 
L 356.733034 224.982125 
L 361.099963 226.277007 
L 362.861634 226.894941 
L 364.554241 227.682601 
L 366.161478 228.632398 
L 367.667862 229.735184 
L 369.058879 230.980334 
L 370.32113 232.355853 
L 371.442453 233.848488 
L 372.412048 235.443861 
L 373.220571 237.126602 
L 373.860236 238.880499 
L 374.218342 240.27407 
L 374.745642 241.441929 
L 375.349513 243.237143 
L 375.771845 245.083514 
L 376.008451 246.962735 
L 376.056985 248.85617 
L 375.916964 250.745045 
L 375.589779 252.610628 
L 375.078672 254.434422 
L 374.388713 256.19834 
L 374.043355 256.874076 
L 373.596252 258.349119 
L 372.870289 260.096218 
L 371.974354 261.762555 
L 371.179898 263.078699 
L 367.116423 269.806112 
L 364.388978 274.32043 
L 363.363042 275.846598 
L 362.194519 277.26656 
L 360.894334 278.567041 
L 359.474639 279.735887 
L 357.948706 280.762172 
L 356.330796 281.636302 
L 354.636035 282.350107 
L 352.880262 282.896914 
L 351.079892 283.271613 
L 349.251751 283.4707 
L 347.412929 283.492315 
L 345.580613 283.336255 
L 343.771932 283.00398 
L 342.003792 282.498596 
L 340.292719 281.824826 
L 338.65471 280.988968 
L 331.350207 276.804705 
L 329.775561 275.796804 
L 329.623005 275.67651 
L 330.137485 276.823561 
L 330.34838 277.453446 
L 330.743199 278.318235 
L 331.350067 280.09172 
L 331.779426 281.916326 
L 332.027108 283.774333 
L 332.090705 285.647697 
L 331.969602 287.518224 
L 331.664974 289.367748 
L 331.179779 291.178306 
L 330.51873 292.932316 
L 329.688247 294.612743 
L 328.506442 296.733991 
L 328.352803 297.010842 
L 328.318991 297.071508 
L 328.185943 297.309207 
L 327.462716 298.609218 
L 326.515639 300.136907 
L 325.428587 301.568376 
L 324.211266 302.890842 
L 322.874548 304.092495 
L 321.430369 305.162604 
L 319.891626 306.091614 
L 318.272061 306.871226 
L 316.788645 307.419617 
L 317.483665 307.631539 
L 319.204923 308.347137 
L 321.738793 309.549406 
L 323.385918 310.432567 
L 323.436689 310.466596 
L 325.299037 309.992834 
L 329.587722 308.901176 
L 331.460211 308.523522 
L 333.361137 308.335586 
L 335.271327 308.339262 
L 337.171515 308.534513 
L 337.610657 308.624842 
L 339.057799 308.711735 
L 340.901705 309.005862 
L 342.707887 309.479367 
L 344.458939 310.127686 
L 346.137985 310.944572 
L 347.728846 311.922152 
L 349.216189 313.051005 
L 350.585682 314.320253 
L 351.654553 315.526324 
L 352.563179 315.189893 
L 354.375556 314.71537 
L 356.225825 314.421445 
L 358.096033 314.310971 
L 359.968038 314.385019 
L 361.823678 314.642871 
L 363.644949 315.082025 
L 365.414183 315.698221 
L 367.114214 316.48548 
L 368.728551 317.436165 
L 370.207057 318.407981 
L 371.717425 319.510757 
L 373.018193 320.67256 
L 372.537356 319.171562 
L 372.14255 317.326082 
L 371.932573 315.450562 
L 371.90949 313.563465 
L 372.07353 311.683369 
L 372.423078 309.828785 
L 372.954691 308.017969 
L 373.663138 306.268749 
L 374.541442 304.598345 
L 375.580958 303.023202 
L 380.450797 296.38558 
L 396.524567 274.477477 
L 399.430433 270.515807 
L 400.612457 269.060537 
L 401.932009 267.728706 
L 403.376267 266.533253 
L 404.9312 265.485793 
L 406.5817 264.596502 
L 408.311733 263.874021 
L 410.104488 263.325369 
L 411.942548 262.955877 
L 413.808055 262.769135 
L 415.682885 262.766957 
L 417.548821 262.949363 
L 419.387735 263.314583 
L 421.18176 263.859067 
L 422.913466 264.577526 
L 424.566029 265.462979 
L 426.123392 266.506823 
L 429.327819 268.891629 
L 430.758873 270.069196 
L 434.324521 273.307121 
L 435.143844 274.024401 
L 435.466914 274.313807 
L 436.250975 275.03245 
L 442.253364 280.421552 
L 442.361733 280.519603 
L 449.135573 286.695989 
L 449.317643 286.879019 
L 449.327385 286.878948 
L 451.171989 287.045749 
L 452.991625 287.391164 
L 454.769039 287.911918 
L 456.487378 288.603074 
L 458.13035 289.458078 
L 459.682374 290.468824 
L 459.990678 290.715427 
L 460.152547 290.33891 
L 460.429525 289.773436 
L 461.377038 288.06673 
L 462.494489 286.466129 
L 463.770109 284.988489 
L 465.190461 283.649376 
L 466.740584 282.462894 
L 467.33147 282.05695 
L 469.697553 283.515257 
L 471.631756 284.717739 
L 472.157676 285.183363 
L 472.683785 285.648796 
L 485.408556 296.114492 
L 487.195159 297.583832 
L 488.032635 298.272568 
L 488.016088 298.333243 
L 488.769113 298.946657 
L 488.839489 298.926495 
L 491.573698 301.179484 
L 491.532803 301.230078 
L 492.309794 301.874305 
L 492.346884 301.827515 
L 492.575131 302.0259 
L 492.541845 302.078396 
L 493.622215 302.970081 
L 493.667103 302.915873 
L 493.926924 303.148875 
L 493.893638 303.201562 
L 494.623838 303.803183 
L 494.694785 303.78169 
L 497.431467 306.049894 
L 497.473312 306.084512 
L 497.436222 306.131302 
L 498.215305 306.773818 
L 498.256009 306.727027 
L 504.031039 311.53448 
L 504.87238 312.23488 
L 504.422278 313.184137 
L 503.468438 314.774325 
L 502.364288 316.264077 
L 499.284137 320.022129 
L 498.018982 321.418495 
L 497.519248 321.870737 
L 500.152974 324.195097 
L 501.480654 325.487156 
L 502.676339 326.90225 
L 503.728686 328.426953 
L 504.627711 330.0468 
L 505.364885 331.746425 
L 505.933216 333.509704 
L 506.327311 335.319909 
L 506.543431 337.159867 
L 506.579527 339.012122 
L 506.435256 340.859103 
L 506.111987 342.683287 
L 505.612787 344.46737 
L 504.94239 346.194425 
L 504.107158 347.848069 
L 502.650391 350.413578 
L 502.509477 350.657516 
L 501.441643 352.474853 
L 502.969076 353.043183 
L 504.601638 353.835111 
L 506.151309 354.778998 
L 507.603988 355.866255 
L 508.946454 357.086988 
L 509.390512 357.575836 
L 509.523422 357.602791 
L 511.305556 358.150465 
L 513.025511 358.869982 
L 514.666761 359.754428 
L 516.213538 360.795308 
L 518.875519 362.782897 
L 520.316247 363.973205 
L 521.63321 365.299153 
L 522.813696 366.747941 
L 523.846308 368.305582 
L 524.721077 369.957039 
L 525.429558 371.68637 
L 525.964913 373.47688 
L 526.321974 375.311284 
L 526.497292 377.171874 
L 526.489176 379.040688 
L 526.297704 380.899685 
L 525.924725 382.730919 
L 525.373839 384.516712 
L 524.650364 386.239825 
L 523.761284 387.883622 
L 522.715183 389.432235 
L 522.148488 390.188231 
L 522.963826 391.67113 
L 523.692683 393.368749 
L 524.253407 395.129071 
L 524.640708 396.935488 
L 524.850932 398.770958 
L 524.882095 400.618165 
L 524.733904 402.459681 
L 524.626462 403.058725 
L 524.646006 403.073992 
L 526.036024 404.406935 
L 527.28413 405.873605 
L 528.377527 407.458966 
L 528.820992 408.265972 
L 528.969893 408.346948 
L 529.134431 408.420073 
L 529.730959 408.760837 
L 530.435067 409.14375 
L 530.616235 409.266546 
L 530.798467 409.370644 
L 531.340668 409.757566 
L 531.970812 410.184678 
L 532.163365 410.344653 
L 532.358404 410.483836 
L 532.841506 410.908063 
L 533.162533 411.174777 
L 538.23823 405.074743 
L 544.183996 397.930716 
L 544.707961 397.327395 
L 545.46972 396.48661 
L 545.564819 396.325632 
L 546.693914 394.789555 
L 547.971103 393.374219 
L 549.383555 392.093842 
L 550.917083 390.961287 
L 552.556279 389.98793 
L 554.284678 389.183551 
L 556.084915 388.556229 
L 557.938907 388.112267 
L 559.828029 387.856124 
L 561.733301 387.790374 
L 563.635586 387.915677 
L 565.515773 388.230775 
L 565.589903 388.250998 
L 565.558201 387.212786 
L 565.684853 385.347615 
L 565.993994 383.503886 
L 566.482635 381.699409 
L 567.146059 379.951618 
L 567.977854 378.277395 
L 568.969987 376.692914 
L 570.112872 375.213482 
L 571.831384 373.201612 
L 573.109717 371.84562 
L 574.51461 370.621232 
L 576.032575 369.540201 
L 577.649043 368.612904 
L 579.348497 367.848242 
L 581.114622 367.253556 
L 582.930465 366.834553 
L 583.174149 366.803001 
L 583.598707 367.165884 
M 466.160436 322.471619 
L 464.31486 324.526951 
L 462.692964 326.334305 
L 461.619644 327.531376 
L 458.969491 330.482564 
L 453.992943 336.033428 
L 452.400652 337.815497 
L 450.844707 339.554142 
L 450.830283 339.570241 
L 447.984673 342.742705 
L 447.81411 342.930328 
L 445.062925 345.916458 
L 445.005986 345.977988 
L 444.820849 346.177166 
L 443.419175 347.537807 
L 441.885336 348.747505 
L 440.235511 349.793502 
L 438.487102 350.664764 
L 436.658551 351.352102 
L 434.769145 351.848266 
L 430.618943 352.713043 
L 426.384307 353.709564 
L 425.883878 353.820234 
L 424.699301 354.065512 
L 422.809194 354.35686 
L 422.913852 354.829447 
L 423.222683 356.629538 
L 423.357442 358.450951 
L 423.316886 360.276892 
L 423.10139 362.090525 
L 422.712939 363.875129 
L 422.409441 364.821339 
L 422.283743 365.84554 
L 421.867929 367.691007 
L 421.270854 369.486043 
L 420.498424 371.21289 
L 419.558279 372.854468 
L 415.608326 379.018856 
L 425.794369 384.775898 
L 427.346553 385.754863 
L 428.797171 386.878853 
L 430.107465 388.113605 
L 430.390156 387.671814 
L 430.65572 387.298481 
L 430.881684 386.904245 
L 431.469891 385.9857 
L 432.55801 384.457979 
L 433.791304 383.044855 
L 435.157779 381.760067 
L 436.64415 380.616111 
L 438.235962 379.624109 
L 439.917736 378.793707 
L 441.673121 378.13298 
L 443.485045 377.648353 
L 445.335891 377.344538 
L 447.207661 377.22449 
L 449.082154 377.289377 
L 450.941142 377.538566 
L 452.76655 377.969635 
L 454.540627 378.578392 
L 456.246122 379.358918 
L 457.459062 380.066103 
L 459.184205 379.903311 
L 461.021905 379.908031 
L 462.850571 380.090075 
L 464.653135 380.447742 
L 466.412769 380.977694 
L 468.113048 381.674984 
L 469.7381 382.533103 
L 471.08241 383.328301 
L 471.357189 383.493985 
L 473.19547 384.623669 
L 474.750107 385.688608 
L 475.220124 386.084261 
L 474.655766 384.990128 
L 473.970408 383.267793 
L 473.471277 381.539951 
L 472.246498 381.526926 
L 470.37835 381.321574 
L 468.539587 380.932861 
L 466.748161 380.364581 
L 465.021563 379.622282 
L 463.37665 378.713213 
L 460.039632 376.647457 
L 458.511762 375.59524 
L 457.093664 374.399186 
L 455.798827 373.070675 
L 454.639568 371.622343 
L 453.626916 370.067967 
L 452.770503 368.422336 
L 452.078477 366.701102 
L 451.55742 364.920639 
L 451.21229 363.097885 
L 451.046368 361.25018 
L 451.061235 359.395099 
L 451.256747 357.550289 
L 451.631046 355.733301 
L 452.18057 353.961418 
L 452.900093 352.251496 
L 453.78277 350.619801 
L 454.173272 349.975175 
L 454.130076 349.582525 
L 454.110258 347.699498 
L 454.276737 345.823739 
L 454.627883 343.973636 
L 455.160252 342.167323 
L 455.868626 340.422504 
L 456.746063 338.756284 
L 463.585526 327.195468 
L 463.615112 327.145631 
L 465.382801 324.178358 
L 465.620172 323.780411 
L 466.641464 322.243065 
L 467.806949 320.811941 
L 468.959155 319.648447 
L 468.584317 319.294641 
L 467.783587 320.514501 
L 466.606879 321.971503 
L 466.199195 322.428322 
L 466.160436 322.471619 
M 191.518968 282.274492 
L 191.459153 282.18589 
L 190.731186 283.08722 
L 189.423129 284.416184 
L 188.239855 285.403272 
L 188.246153 285.465325 
L 188.250012 287.349468 
L 188.082771 289.06729 
L 188.20104 288.89327 
L 189.403654 287.452718 
L 190.742366 286.137682 
L 192.204145 284.960961 
L 193.268701 284.264899 
L 192.711428 283.71315 
L 191.518968 282.274492 
M 196.2613 251.301253 
L 194.996748 251.198635 
L 195.177139 251.414122 
L 195.628706 252.076012 
L 196.399229 251.299153 
L 196.2613 251.301253 
M 307.569692 362.627259 
L 307.30427 362.695227 
L 306.082206 362.998801 
L 306.080985 362.993886 
L 305.579279 363.124808 
L 304.631698 363.339113 
L 302.715524 363.670558 
L 301.111389 363.781411 
L 301.476507 364.0521 
L 302.87644 365.323794 
L 304.143158 366.72823 
L 305.264138 368.251522 
L 306.228296 369.87861 
L 307.026099 371.593406 
L 307.649659 373.378956 
L 308.092811 375.217606 
L 308.351173 377.091176 
L 308.406471 378.562801 
L 308.655142 379.133391 
L 309.232661 380.923601 
L 309.630527 382.762102 
L 309.84485 384.630911 
L 309.873533 386.511751 
L 309.794634 387.452335 
L 309.869346 388.191139 
L 309.875341 390.045874 
L 309.700663 391.892374 
L 309.346972 393.713082 
L 308.817633 395.490686 
L 308.117677 397.208283 
L 307.253762 398.84954 
L 305.697902 401.484994 
L 300.87316 410.144048 
L 300.784401 410.30158 
L 299.785134 412.055556 
L 298.776662 413.638603 
L 297.617072 415.114546 
L 296.317658 416.469012 
L 294.891073 417.688811 
L 293.351209 418.762064 
L 291.713061 419.678321 
L 289.992582 420.428658 
L 288.206526 421.005769 
L 286.372285 421.404035 
L 284.507722 421.619576 
L 282.630993 421.650293 
L 281.737075 421.576507 
L 281.733174 421.70157 
L 281.4919 423.554712 
L 281.069937 425.375234 
L 280.47136 427.14556 
L 280.228678 427.682721 
L 281.539325 427.715104 
L 283.38277 427.941858 
L 285.19531 428.347327 
L 286.959662 428.927644 
L 288.659003 429.677276 
L 290.277129 430.589074 
L 292.888225 432.233331 
L 294.404638 433.294673 
L 295.810713 434.498381 
L 297.093133 435.833055 
L 298.239755 437.286057 
L 299.23972 438.843628 
L 300.08356 440.491017 
L 300.763283 442.212625 
L 301.193218 443.715224 
L 301.503649 443.416291 
L 302.93107 442.283787 
L 304.460307 441.293065 
L 304.800834 441.116201 
L 304.591407 440.744598 
L 303.833529 439.020483 
L 303.249871 437.229871 
L 302.846155 435.390315 
L 302.766345 434.711193 
L 302.378744 433.968794 
L 301.68736 432.258341 
L 301.164937 430.488952 
L 300.816393 428.677273 
L 300.645005 426.840349 
L 300.652386 424.995462 
L 300.838466 423.159968 
L 301.201495 421.351136 
L 301.738058 419.585984 
L 302.443107 417.881117 
L 303.310008 416.252576 
L 304.647529 414.009482 
L 306.038716 411.674427 
L 307.055966 410.140934 
L 308.216644 408.712921 
L 309.509888 407.403753 
L 310.92359 406.225686 
L 312.44452 405.189746 
L 314.058439 404.305631 
L 315.750243 403.581614 
L 317.504094 403.024475 
L 319.303576 402.639427 
L 321.131845 402.430075 
L 322.971789 402.398378 
L 324.806184 402.544634 
L 326.617861 402.867472 
L 328.389861 403.363872 
L 330.105599 404.029186 
L 331.749013 404.857188 
L 332.079514 405.044276 
L 332.633869 405.381096 
L 332.576401 405.31899 
L 331.495322 403.905889 
L 330.551012 402.397954 
L 329.873171 401.193763 
L 329.06803 399.59102 
L 328.417437 397.919563 
L 327.927176 396.194256 
L 326.953255 392.029005 
L 326.627691 390.265224 
L 326.499318 388.813468 
L 326.114198 387.596868 
L 325.722514 385.719872 
L 325.521796 383.812979 
L 325.520532 383.498685 
L 325.459438 383.034877 
L 325.400991 381.128411 
L 325.533775 379.225677 
L 325.568211 379.025058 
L 324.913837 378.225356 
L 323.879518 376.67273 
L 323.002278 375.026246 
L 322.290555 373.301742 
L 321.751198 371.515809 
L 321.133378 369.036668 
L 320.771284 367.204522 
L 320.590614 365.345698 
L 320.593107 363.478116 
L 320.77874 361.619781 
L 321.145724 359.788609 
L 321.38608 359.000495 
L 321.360722 359.011179 
L 319.549879 359.569514 
L 311.835989 361.533 
L 309.941394 362.014787 
L 308.499581 362.381991 
L 307.569692 362.627259 
M 292.949962 300.735361 
L 291.684818 299.293464 
L 290.571339 297.731472 
L 289.62085 296.06527 
L 289.005998 294.679208 
L 287.929054 296.784418 
L 287.019648 298.369388 
L 286.951224 298.465839 
L 288.007995 298.980741 
L 289.646377 299.881233 
L 291.188442 300.938217 
L 292.619292 302.141483 
L 293.925104 303.479405 
L 295.093262 304.939058 
L 296.112481 306.50634 
L 296.972914 308.16611 
L 297.161191 308.637585 
L 298.01847 309.504436 
L 299.0639 310.793185 
L 299.761888 310.223573 
L 301.314528 309.192013 
L 302.960687 308.317389 
L 304.619341 307.634932 
L 302.94871 307.034589 
L 301.211 306.203087 
L 298.218837 304.580229 
L 297.908661 304.411969 
L 297.519798 304.200809 
L 295.882365 303.201575 
L 294.353905 302.042496 
L 292.949962 300.735361 
M 407.584411 519.22291 
L 406.47388 520.720326 
L 405.222092 522.101833 
L 403.841074 523.35416 
L 402.586418 524.285411 
L 404.331469 524.260119 
L 406.13874 524.406596 
L 407.923853 524.724495 
L 407.979419 524.739969 
L 407.941634 524.460493 
L 407.878806 522.522781 
L 408.013556 520.58874 
L 408.344482 518.678462 
L 408.747672 517.241243 
L 408.543016 517.623969 
L 407.584411 519.22291 
M 366.770491 368.97292 
L 367.003801 369.381207 
L 368.100263 370.331805 
L 368.398681 370.648819 
L 368.324189 368.926868 
L 368.422059 367.093471 
L 368.69624 365.278051 
L 369.144177 363.497525 
L 369.761696 361.768481 
L 370.543044 360.10703 
L 371.480941 358.528654 
L 371.734641 358.14515 
L 373.773746 354.971557 
L 373.754675 354.856846 
L 373.543223 353.060709 
L 373.503317 351.252607 
L 373.635317 349.448889 
L 373.93803 347.665862 
L 374.091122 347.097903 
L 373.971344 347.264228 
L 373.594221 347.859845 
L 373.392956 348.170969 
L 373.095134 348.621667 
L 372.100651 350.125114 
L 371.062302 351.547147 
L 369.896902 352.867067 
L 368.614439 354.073563 
L 367.225903 355.156297 
L 365.743192 356.105989 
L 364.179013 356.9145 
L 362.546771 357.574903 
L 360.860454 358.081538 
L 360.363044 358.206196 
L 358.848118 358.505726 
L 359.166375 359.559541 
L 359.784198 362.038682 
L 359.884007 362.543701 
L 361.490367 363.528218 
L 363.009153 364.683289 
L 364.404567 365.984718 
L 365.662566 367.419408 
L 366.770491 368.97292 
M 378.448818 328.638949 
L 377.629047 327.852788 
L 377.926295 328.667183 
L 378.391882 330.478413 
L 378.677353 332.32661 
L 378.779948 334.193907 
L 378.698675 336.062253 
L 378.434321 337.913588 
L 378.075447 339.378851 
L 379.08224 338.27376 
L 380.421699 337.058575 
L 381.870515 335.976099 
L 383.415591 335.03612 
L 385.042959 334.247134 
L 385.811633 333.961034 
L 379.933672 329.8038 
L 378.448818 328.638949 
M 482.587816 394.033245 
L 482.635374 393.925905 
L 480.365412 392.179201 
L 479.984202 391.855099 
L 480.564675 392.984827 
L 481.066518 394.257777 
L 482.19842 394.295116 
L 482.488601 394.3335 
L 482.587816 394.033245 
" clip-path="url(#p41ae8ffe6b)" style="fill: #ff0000; fill-opacity: 0.7; stroke: #000000; stroke-opacity: 0.7; stroke-width: 0.5"/>
    <path d="M 227.874032 439.88424 
L 227.608695 439.735689 
L 226.53232 439.132356 
L 224.854895 438.231161 
L 223.163584 437.362301 
L 221.460291 436.515885 
L 219.743113 435.703325 
L 219.669503 435.669659 
L 218.012049 434.919297 
L 216.265389 434.15562 
L 214.516256 433.422567 
L 212.74563 432.725082 
L 210.964923 432.052134 
L 209.172233 431.413232 
L 207.369272 430.802672 
L 205.558322 430.22806 
L 203.733107 429.695103 
L 202.762296 429.43376 
L 200.85826 428.921157 
L 201.814103 427.835869 
L 203.179488 426.562514 
L 204.663134 425.429155 
L 206.250747 424.44671 
L 207.927028 423.624646 
L 209.675829 422.970882 
L 211.480299 422.491719 
L 213.323053 422.191772 
L 215.186336 422.073931 
L 217.052196 422.139332 
L 218.902655 422.387345 
L 220.719885 422.81558 
L 222.87397 423.436229 
L 224.639796 424.040295 
L 226.337922 424.814506 
L 227.952001 425.751409 
L 229.466492 426.841984 
L 230.866815 428.075731 
L 232.139488 429.440773 
L 233.272259 430.923968 
L 234.254222 432.511035 
L 235.075924 434.186697 
L 235.729453 435.934821 
L 235.988741 436.911081 
L 236.691305 437.642399 
L 237.846719 439.109415 
L 238.60734 440.29893 
L 239.443905 441.243549 
L 240.557238 442.787697 
L 241.510644 444.435399 
L 242.294573 446.17015 
L 242.901173 447.974573 
L 242.989651 448.362616 
L 227.874032 439.88424 
" clip-path="url(#p41ae8ffe6b)" style="fill: #ff0000; fill-opacity: 0.7; stroke: #000000; stroke-opacity: 0.7; stroke-width: 0.5"/>
   </g>
   <g id="matplotlib.axis_1">
    <g id="xtick_1">
     <g id="line2d_1">
      <defs>
       <path id="m735b89b395" d="M 0 0 
L 0 3.5 
" style="stroke: #000000; stroke-width: 0.8"/>
      </defs>
      <g>
       <use xlink:href="#m735b89b395" x="145.941725" y="585.743332" style="stroke: #000000; stroke-width: 0.8"/>
      </g>
     </g>
     <g id="text_1">
      <!-- 392500 -->
      <g transform="translate(126.854225 600.341769) scale(0.1 -0.1)">
       <defs>
        <path id="DejaVuSans-33" d="M 2597 2516 
Q 3050 2419 3304 2112 
Q 3559 1806 3559 1356 
Q 3559 666 3084 287 
Q 2609 -91 1734 -91 
Q 1441 -91 1130 -33 
Q 819 25 488 141 
L 488 750 
Q 750 597 1062 519 
Q 1375 441 1716 441 
Q 2309 441 2620 675 
Q 2931 909 2931 1356 
Q 2931 1769 2642 2001 
Q 2353 2234 1838 2234 
L 1294 2234 
L 1294 2753 
L 1863 2753 
Q 2328 2753 2575 2939 
Q 2822 3125 2822 3475 
Q 2822 3834 2567 4026 
Q 2313 4219 1838 4219 
Q 1578 4219 1281 4162 
Q 984 4106 628 3988 
L 628 4550 
Q 988 4650 1302 4700 
Q 1616 4750 1894 4750 
Q 2613 4750 3031 4423 
Q 3450 4097 3450 3541 
Q 3450 3153 3228 2886 
Q 3006 2619 2597 2516 
z
" transform="scale(0.015625)"/>
        <path id="DejaVuSans-39" d="M 703 97 
L 703 672 
Q 941 559 1184 500 
Q 1428 441 1663 441 
Q 2288 441 2617 861 
Q 2947 1281 2994 2138 
Q 2813 1869 2534 1725 
Q 2256 1581 1919 1581 
Q 1219 1581 811 2004 
Q 403 2428 403 3163 
Q 403 3881 828 4315 
Q 1253 4750 1959 4750 
Q 2769 4750 3195 4129 
Q 3622 3509 3622 2328 
Q 3622 1225 3098 567 
Q 2575 -91 1691 -91 
Q 1453 -91 1209 -44 
Q 966 3 703 97 
z
M 1959 2075 
Q 2384 2075 2632 2365 
Q 2881 2656 2881 3163 
Q 2881 3666 2632 3958 
Q 2384 4250 1959 4250 
Q 1534 4250 1286 3958 
Q 1038 3666 1038 3163 
Q 1038 2656 1286 2365 
Q 1534 2075 1959 2075 
z
" transform="scale(0.015625)"/>
        <path id="DejaVuSans-32" d="M 1228 531 
L 3431 531 
L 3431 0 
L 469 0 
L 469 531 
Q 828 903 1448 1529 
Q 2069 2156 2228 2338 
Q 2531 2678 2651 2914 
Q 2772 3150 2772 3378 
Q 2772 3750 2511 3984 
Q 2250 4219 1831 4219 
Q 1534 4219 1204 4116 
Q 875 4013 500 3803 
L 500 4441 
Q 881 4594 1212 4672 
Q 1544 4750 1819 4750 
Q 2544 4750 2975 4387 
Q 3406 4025 3406 3419 
Q 3406 3131 3298 2873 
Q 3191 2616 2906 2266 
Q 2828 2175 2409 1742 
Q 1991 1309 1228 531 
z
" transform="scale(0.015625)"/>
        <path id="DejaVuSans-35" d="M 691 4666 
L 3169 4666 
L 3169 4134 
L 1269 4134 
L 1269 2991 
Q 1406 3038 1543 3061 
Q 1681 3084 1819 3084 
Q 2600 3084 3056 2656 
Q 3513 2228 3513 1497 
Q 3513 744 3044 326 
Q 2575 -91 1722 -91 
Q 1428 -91 1123 -41 
Q 819 9 494 109 
L 494 744 
Q 775 591 1075 516 
Q 1375 441 1709 441 
Q 2250 441 2565 725 
Q 2881 1009 2881 1497 
Q 2881 1984 2565 2268 
Q 2250 2553 1709 2553 
Q 1456 2553 1204 2497 
Q 953 2441 691 2322 
L 691 4666 
z
" transform="scale(0.015625)"/>
        <path id="DejaVuSans-30" d="M 2034 4250 
Q 1547 4250 1301 3770 
Q 1056 3291 1056 2328 
Q 1056 1369 1301 889 
Q 1547 409 2034 409 
Q 2525 409 2770 889 
Q 3016 1369 3016 2328 
Q 3016 3291 2770 3770 
Q 2525 4250 2034 4250 
z
M 2034 4750 
Q 2819 4750 3233 4129 
Q 3647 3509 3647 2328 
Q 3647 1150 3233 529 
Q 2819 -91 2034 -91 
Q 1250 -91 836 529 
Q 422 1150 422 2328 
Q 422 3509 836 4129 
Q 1250 4750 2034 4750 
z
" transform="scale(0.015625)"/>
       </defs>
       <use xlink:href="#DejaVuSans-33"/>
       <use xlink:href="#DejaVuSans-39" x="63.623047"/>
       <use xlink:href="#DejaVuSans-32" x="127.246094"/>
       <use xlink:href="#DejaVuSans-35" x="190.869141"/>
       <use xlink:href="#DejaVuSans-30" x="254.492188"/>
       <use xlink:href="#DejaVuSans-30" x="318.115234"/>
      </g>
     </g>
    </g>
    <g id="xtick_2">
     <g id="line2d_2">
      <g>
       <use xlink:href="#m735b89b395" x="241.044645" y="585.743332" style="stroke: #000000; stroke-width: 0.8"/>
      </g>
     </g>
     <g id="text_2">
      <!-- 393000 -->
      <g transform="translate(221.957145 600.341769) scale(0.1 -0.1)">
       <use xlink:href="#DejaVuSans-33"/>
       <use xlink:href="#DejaVuSans-39" x="63.623047"/>
       <use xlink:href="#DejaVuSans-33" x="127.246094"/>
       <use xlink:href="#DejaVuSans-30" x="190.869141"/>
       <use xlink:href="#DejaVuSans-30" x="254.492188"/>
       <use xlink:href="#DejaVuSans-30" x="318.115234"/>
      </g>
     </g>
    </g>
    <g id="xtick_3">
     <g id="line2d_3">
      <g>
       <use xlink:href="#m735b89b395" x="336.147565" y="585.743332" style="stroke: #000000; stroke-width: 0.8"/>
      </g>
     </g>
     <g id="text_3">
      <!-- 393500 -->
      <g transform="translate(317.060065 600.341769) scale(0.1 -0.1)">
       <use xlink:href="#DejaVuSans-33"/>
       <use xlink:href="#DejaVuSans-39" x="63.623047"/>
       <use xlink:href="#DejaVuSans-33" x="127.246094"/>
       <use xlink:href="#DejaVuSans-35" x="190.869141"/>
       <use xlink:href="#DejaVuSans-30" x="254.492188"/>
       <use xlink:href="#DejaVuSans-30" x="318.115234"/>
      </g>
     </g>
    </g>
    <g id="xtick_4">
     <g id="line2d_4">
      <g>
       <use xlink:href="#m735b89b395" x="431.250486" y="585.743332" style="stroke: #000000; stroke-width: 0.8"/>
      </g>
     </g>
     <g id="text_4">
      <!-- 394000 -->
      <g transform="translate(412.162986 600.341769) scale(0.1 -0.1)">
       <defs>
        <path id="DejaVuSans-34" d="M 2419 4116 
L 825 1625 
L 2419 1625 
L 2419 4116 
z
M 2253 4666 
L 3047 4666 
L 3047 1625 
L 3713 1625 
L 3713 1100 
L 3047 1100 
L 3047 0 
L 2419 0 
L 2419 1100 
L 313 1100 
L 313 1709 
L 2253 4666 
z
" transform="scale(0.015625)"/>
       </defs>
       <use xlink:href="#DejaVuSans-33"/>
       <use xlink:href="#DejaVuSans-39" x="63.623047"/>
       <use xlink:href="#DejaVuSans-34" x="127.246094"/>
       <use xlink:href="#DejaVuSans-30" x="190.869141"/>
       <use xlink:href="#DejaVuSans-30" x="254.492188"/>
       <use xlink:href="#DejaVuSans-30" x="318.115234"/>
      </g>
     </g>
    </g>
    <g id="xtick_5">
     <g id="line2d_5">
      <g>
       <use xlink:href="#m735b89b395" x="526.353406" y="585.743332" style="stroke: #000000; stroke-width: 0.8"/>
      </g>
     </g>
     <g id="text_5">
      <!-- 394500 -->
      <g transform="translate(507.265906 600.341769) scale(0.1 -0.1)">
       <use xlink:href="#DejaVuSans-33"/>
       <use xlink:href="#DejaVuSans-39" x="63.623047"/>
       <use xlink:href="#DejaVuSans-34" x="127.246094"/>
       <use xlink:href="#DejaVuSans-35" x="190.869141"/>
       <use xlink:href="#DejaVuSans-30" x="254.492188"/>
       <use xlink:href="#DejaVuSans-30" x="318.115234"/>
      </g>
     </g>
    </g>
    <g id="xtick_6">
     <g id="line2d_6">
      <g>
       <use xlink:href="#m735b89b395" x="621.456327" y="585.743332" style="stroke: #000000; stroke-width: 0.8"/>
      </g>
     </g>
     <g id="text_6">
      <!-- 395000 -->
      <g transform="translate(602.368827 600.341769) scale(0.1 -0.1)">
       <use xlink:href="#DejaVuSans-33"/>
       <use xlink:href="#DejaVuSans-39" x="63.623047"/>
       <use xlink:href="#DejaVuSans-35" x="127.246094"/>
       <use xlink:href="#DejaVuSans-30" x="190.869141"/>
       <use xlink:href="#DejaVuSans-30" x="254.492188"/>
       <use xlink:href="#DejaVuSans-30" x="318.115234"/>
      </g>
     </g>
    </g>
   </g>
   <g id="matplotlib.axis_2">
    <g id="ytick_1">
     <g id="line2d_7">
      <defs>
       <path id="mde8d46358d" d="M 0 0 
L -3.5 0 
" style="stroke: #000000; stroke-width: 0.8"/>
      </defs>
      <g>
       <use xlink:href="#mde8d46358d" x="90" y="497.333822" style="stroke: #000000; stroke-width: 0.8"/>
      </g>
     </g>
     <g id="text_7">
      <!-- 5.8170 -->
      <g transform="translate(48.009375 501.13304) scale(0.1 -0.1)">
       <defs>
        <path id="DejaVuSans-2e" d="M 684 794 
L 1344 794 
L 1344 0 
L 684 0 
L 684 794 
z
" transform="scale(0.015625)"/>
        <path id="DejaVuSans-38" d="M 2034 2216 
Q 1584 2216 1326 1975 
Q 1069 1734 1069 1313 
Q 1069 891 1326 650 
Q 1584 409 2034 409 
Q 2484 409 2743 651 
Q 3003 894 3003 1313 
Q 3003 1734 2745 1975 
Q 2488 2216 2034 2216 
z
M 1403 2484 
Q 997 2584 770 2862 
Q 544 3141 544 3541 
Q 544 4100 942 4425 
Q 1341 4750 2034 4750 
Q 2731 4750 3128 4425 
Q 3525 4100 3525 3541 
Q 3525 3141 3298 2862 
Q 3072 2584 2669 2484 
Q 3125 2378 3379 2068 
Q 3634 1759 3634 1313 
Q 3634 634 3220 271 
Q 2806 -91 2034 -91 
Q 1263 -91 848 271 
Q 434 634 434 1313 
Q 434 1759 690 2068 
Q 947 2378 1403 2484 
z
M 1172 3481 
Q 1172 3119 1398 2916 
Q 1625 2713 2034 2713 
Q 2441 2713 2670 2916 
Q 2900 3119 2900 3481 
Q 2900 3844 2670 4047 
Q 2441 4250 2034 4250 
Q 1625 4250 1398 4047 
Q 1172 3844 1172 3481 
z
" transform="scale(0.015625)"/>
        <path id="DejaVuSans-31" d="M 794 531 
L 1825 531 
L 1825 4091 
L 703 3866 
L 703 4441 
L 1819 4666 
L 2450 4666 
L 2450 531 
L 3481 531 
L 3481 0 
L 794 0 
L 794 531 
z
" transform="scale(0.015625)"/>
        <path id="DejaVuSans-37" d="M 525 4666 
L 3525 4666 
L 3525 4397 
L 1831 0 
L 1172 0 
L 2766 4134 
L 525 4134 
L 525 4666 
z
" transform="scale(0.015625)"/>
       </defs>
       <use xlink:href="#DejaVuSans-35"/>
       <use xlink:href="#DejaVuSans-2e" x="63.623047"/>
       <use xlink:href="#DejaVuSans-38" x="95.410156"/>
       <use xlink:href="#DejaVuSans-31" x="159.033203"/>
       <use xlink:href="#DejaVuSans-37" x="222.65625"/>
       <use xlink:href="#DejaVuSans-30" x="286.279297"/>
      </g>
     </g>
    </g>
    <g id="ytick_2">
     <g id="line2d_8">
      <g>
       <use xlink:href="#mde8d46358d" x="90" y="402.230901" style="stroke: #000000; stroke-width: 0.8"/>
      </g>
     </g>
     <g id="text_8">
      <!-- 5.8175 -->
      <g transform="translate(48.009375 406.03012) scale(0.1 -0.1)">
       <use xlink:href="#DejaVuSans-35"/>
       <use xlink:href="#DejaVuSans-2e" x="63.623047"/>
       <use xlink:href="#DejaVuSans-38" x="95.410156"/>
       <use xlink:href="#DejaVuSans-31" x="159.033203"/>
       <use xlink:href="#DejaVuSans-37" x="222.65625"/>
       <use xlink:href="#DejaVuSans-35" x="286.279297"/>
      </g>
     </g>
    </g>
    <g id="ytick_3">
     <g id="line2d_9">
      <g>
       <use xlink:href="#mde8d46358d" x="90" y="307.127981" style="stroke: #000000; stroke-width: 0.8"/>
      </g>
     </g>
     <g id="text_9">
      <!-- 5.8180 -->
      <g transform="translate(48.009375 310.9272) scale(0.1 -0.1)">
       <use xlink:href="#DejaVuSans-35"/>
       <use xlink:href="#DejaVuSans-2e" x="63.623047"/>
       <use xlink:href="#DejaVuSans-38" x="95.410156"/>
       <use xlink:href="#DejaVuSans-31" x="159.033203"/>
       <use xlink:href="#DejaVuSans-38" x="222.65625"/>
       <use xlink:href="#DejaVuSans-30" x="286.279297"/>
      </g>
     </g>
    </g>
    <g id="ytick_4">
     <g id="line2d_10">
      <g>
       <use xlink:href="#mde8d46358d" x="90" y="212.025061" style="stroke: #000000; stroke-width: 0.8"/>
      </g>
     </g>
     <g id="text_10">
      <!-- 5.8185 -->
      <g transform="translate(48.009375 215.824279) scale(0.1 -0.1)">
       <use xlink:href="#DejaVuSans-35"/>
       <use xlink:href="#DejaVuSans-2e" x="63.623047"/>
       <use xlink:href="#DejaVuSans-38" x="95.410156"/>
       <use xlink:href="#DejaVuSans-31" x="159.033203"/>
       <use xlink:href="#DejaVuSans-38" x="222.65625"/>
       <use xlink:href="#DejaVuSans-35" x="286.279297"/>
      </g>
     </g>
    </g>
    <g id="text_11">
     <!-- 1e6 -->
     <g transform="translate(90 138.456668) scale(0.1 -0.1)">
      <defs>
       <path id="DejaVuSans-65" d="M 3597 1894 
L 3597 1613 
L 953 1613 
Q 991 1019 1311 708 
Q 1631 397 2203 397 
Q 2534 397 2845 478 
Q 3156 559 3463 722 
L 3463 178 
Q 3153 47 2828 -22 
Q 2503 -91 2169 -91 
Q 1331 -91 842 396 
Q 353 884 353 1716 
Q 353 2575 817 3079 
Q 1281 3584 2069 3584 
Q 2775 3584 3186 3129 
Q 3597 2675 3597 1894 
z
M 3022 2063 
Q 3016 2534 2758 2815 
Q 2500 3097 2075 3097 
Q 1594 3097 1305 2825 
Q 1016 2553 972 2059 
L 3022 2063 
z
" transform="scale(0.015625)"/>
       <path id="DejaVuSans-36" d="M 2113 2584 
Q 1688 2584 1439 2293 
Q 1191 2003 1191 1497 
Q 1191 994 1439 701 
Q 1688 409 2113 409 
Q 2538 409 2786 701 
Q 3034 994 3034 1497 
Q 3034 2003 2786 2293 
Q 2538 2584 2113 2584 
z
M 3366 4563 
L 3366 3988 
Q 3128 4100 2886 4159 
Q 2644 4219 2406 4219 
Q 1781 4219 1451 3797 
Q 1122 3375 1075 2522 
Q 1259 2794 1537 2939 
Q 1816 3084 2150 3084 
Q 2853 3084 3261 2657 
Q 3669 2231 3669 1497 
Q 3669 778 3244 343 
Q 2819 -91 2113 -91 
Q 1303 -91 875 529 
Q 447 1150 447 2328 
Q 447 3434 972 4092 
Q 1497 4750 2381 4750 
Q 2619 4750 2861 4703 
Q 3103 4656 3366 4563 
z
" transform="scale(0.015625)"/>
      </defs>
      <use xlink:href="#DejaVuSans-31"/>
      <use xlink:href="#DejaVuSans-65" x="63.623047"/>
      <use xlink:href="#DejaVuSans-36" x="125.146484"/>
     </g>
    </g>
   </g>
   <g id="patch_3">
    <path d="M 90 585.743332 
L 90 141.456668 
" style="fill: none; stroke: #000000; stroke-width: 0.8; stroke-linejoin: miter; stroke-linecap: square"/>
   </g>
   <g id="patch_4">
    <path d="M 648 585.743332 
L 648 141.456668 
" style="fill: none; stroke: #000000; stroke-width: 0.8; stroke-linejoin: miter; stroke-linecap: square"/>
   </g>
   <g id="patch_5">
    <path d="M 90 585.743332 
L 648 585.743332 
" style="fill: none; stroke: #000000; stroke-width: 0.8; stroke-linejoin: miter; stroke-linecap: square"/>
   </g>
   <g id="patch_6">
    <path d="M 90 141.456668 
L 648 141.456668 
" style="fill: none; stroke: #000000; stroke-width: 0.8; stroke-linejoin: miter; stroke-linecap: square"/>
   </g>
   <g id="text_12">
    <!-- Kreuzberg_Ost -->
    <g transform="translate(312.195053 364.783375) scale(0.12 -0.12)">
     <defs>
      <path id="DejaVuSans-4b" d="M 628 4666 
L 1259 4666 
L 1259 2694 
L 3353 4666 
L 4166 4666 
L 1850 2491 
L 4331 0 
L 3500 0 
L 1259 2247 
L 1259 0 
L 628 0 
L 628 4666 
z
" transform="scale(0.015625)"/>
      <path id="DejaVuSans-72" d="M 2631 2963 
Q 2534 3019 2420 3045 
Q 2306 3072 2169 3072 
Q 1681 3072 1420 2755 
Q 1159 2438 1159 1844 
L 1159 0 
L 581 0 
L 581 3500 
L 1159 3500 
L 1159 2956 
Q 1341 3275 1631 3429 
Q 1922 3584 2338 3584 
Q 2397 3584 2469 3576 
Q 2541 3569 2628 3553 
L 2631 2963 
z
" transform="scale(0.015625)"/>
      <path id="DejaVuSans-75" d="M 544 1381 
L 544 3500 
L 1119 3500 
L 1119 1403 
Q 1119 906 1312 657 
Q 1506 409 1894 409 
Q 2359 409 2629 706 
Q 2900 1003 2900 1516 
L 2900 3500 
L 3475 3500 
L 3475 0 
L 2900 0 
L 2900 538 
Q 2691 219 2414 64 
Q 2138 -91 1772 -91 
Q 1169 -91 856 284 
Q 544 659 544 1381 
z
M 1991 3584 
L 1991 3584 
z
" transform="scale(0.015625)"/>
      <path id="DejaVuSans-7a" d="M 353 3500 
L 3084 3500 
L 3084 2975 
L 922 459 
L 3084 459 
L 3084 0 
L 275 0 
L 275 525 
L 2438 3041 
L 353 3041 
L 353 3500 
z
" transform="scale(0.015625)"/>
      <path id="DejaVuSans-62" d="M 3116 1747 
Q 3116 2381 2855 2742 
Q 2594 3103 2138 3103 
Q 1681 3103 1420 2742 
Q 1159 2381 1159 1747 
Q 1159 1113 1420 752 
Q 1681 391 2138 391 
Q 2594 391 2855 752 
Q 3116 1113 3116 1747 
z
M 1159 2969 
Q 1341 3281 1617 3432 
Q 1894 3584 2278 3584 
Q 2916 3584 3314 3078 
Q 3713 2572 3713 1747 
Q 3713 922 3314 415 
Q 2916 -91 2278 -91 
Q 1894 -91 1617 61 
Q 1341 213 1159 525 
L 1159 0 
L 581 0 
L 581 4863 
L 1159 4863 
L 1159 2969 
z
" transform="scale(0.015625)"/>
      <path id="DejaVuSans-67" d="M 2906 1791 
Q 2906 2416 2648 2759 
Q 2391 3103 1925 3103 
Q 1463 3103 1205 2759 
Q 947 2416 947 1791 
Q 947 1169 1205 825 
Q 1463 481 1925 481 
Q 2391 481 2648 825 
Q 2906 1169 2906 1791 
z
M 3481 434 
Q 3481 -459 3084 -895 
Q 2688 -1331 1869 -1331 
Q 1566 -1331 1297 -1286 
Q 1028 -1241 775 -1147 
L 775 -588 
Q 1028 -725 1275 -790 
Q 1522 -856 1778 -856 
Q 2344 -856 2625 -561 
Q 2906 -266 2906 331 
L 2906 616 
Q 2728 306 2450 153 
Q 2172 0 1784 0 
Q 1141 0 747 490 
Q 353 981 353 1791 
Q 353 2603 747 3093 
Q 1141 3584 1784 3584 
Q 2172 3584 2450 3431 
Q 2728 3278 2906 2969 
L 2906 3500 
L 3481 3500 
L 3481 434 
z
" transform="scale(0.015625)"/>
      <path id="DejaVuSans-5f" d="M 3263 -1063 
L 3263 -1509 
L -63 -1509 
L -63 -1063 
L 3263 -1063 
z
" transform="scale(0.015625)"/>
      <path id="DejaVuSans-4f" d="M 2522 4238 
Q 1834 4238 1429 3725 
Q 1025 3213 1025 2328 
Q 1025 1447 1429 934 
Q 1834 422 2522 422 
Q 3209 422 3611 934 
Q 4013 1447 4013 2328 
Q 4013 3213 3611 3725 
Q 3209 4238 2522 4238 
z
M 2522 4750 
Q 3503 4750 4090 4092 
Q 4678 3434 4678 2328 
Q 4678 1225 4090 567 
Q 3503 -91 2522 -91 
Q 1538 -91 948 565 
Q 359 1222 359 2328 
Q 359 3434 948 4092 
Q 1538 4750 2522 4750 
z
" transform="scale(0.015625)"/>
      <path id="DejaVuSans-73" d="M 2834 3397 
L 2834 2853 
Q 2591 2978 2328 3040 
Q 2066 3103 1784 3103 
Q 1356 3103 1142 2972 
Q 928 2841 928 2578 
Q 928 2378 1081 2264 
Q 1234 2150 1697 2047 
L 1894 2003 
Q 2506 1872 2764 1633 
Q 3022 1394 3022 966 
Q 3022 478 2636 193 
Q 2250 -91 1575 -91 
Q 1294 -91 989 -36 
Q 684 19 347 128 
L 347 722 
Q 666 556 975 473 
Q 1284 391 1588 391 
Q 1994 391 2212 530 
Q 2431 669 2431 922 
Q 2431 1156 2273 1281 
Q 2116 1406 1581 1522 
L 1381 1569 
Q 847 1681 609 1914 
Q 372 2147 372 2553 
Q 372 3047 722 3315 
Q 1072 3584 1716 3584 
Q 2034 3584 2315 3537 
Q 2597 3491 2834 3397 
z
" transform="scale(0.015625)"/>
      <path id="DejaVuSans-74" d="M 1172 4494 
L 1172 3500 
L 2356 3500 
L 2356 3053 
L 1172 3053 
L 1172 1153 
Q 1172 725 1289 603 
Q 1406 481 1766 481 
L 2356 481 
L 2356 0 
L 1766 0 
Q 1100 0 847 248 
Q 594 497 594 1153 
L 594 3053 
L 172 3053 
L 172 3500 
L 594 3500 
L 594 4494 
L 1172 4494 
z
" transform="scale(0.015625)"/>
     </defs>
     <use xlink:href="#DejaVuSans-4b"/>
     <use xlink:href="#DejaVuSans-72" x="65.576172"/>
     <use xlink:href="#DejaVuSans-65" x="104.439453"/>
     <use xlink:href="#DejaVuSans-75" x="165.962891"/>
     <use xlink:href="#DejaVuSans-7a" x="229.341797"/>
     <use xlink:href="#DejaVuSans-62" x="281.832031"/>
     <use xlink:href="#DejaVuSans-65" x="345.308594"/>
     <use xlink:href="#DejaVuSans-72" x="406.832031"/>
     <use xlink:href="#DejaVuSans-67" x="446.195312"/>
     <use xlink:href="#DejaVuSans-5f" x="509.671875"/>
     <use xlink:href="#DejaVuSans-4f" x="559.671875"/>
     <use xlink:href="#DejaVuSans-73" x="638.382812"/>
     <use xlink:href="#DejaVuSans-74" x="690.482422"/>
    </g>
   </g>
  </g>
 </g>
 <defs>
  <clipPath id="p41ae8ffe6b">
   <rect x="90" y="141.456668" width="558" height="444.286664"/>
  </clipPath>
 </defs>
</svg>
