<?xml version="1.0" encoding="utf-8" standalone="no"?>
<!DOCTYPE svg PUBLIC "-//W3C//DTD SVG 1.1//EN"
  "http://www.w3.org/Graphics/SVG/1.1/DTD/svg11.dtd">
<svg xmlns:xlink="http://www.w3.org/1999/xlink" width="720pt" height="720pt" viewBox="0 0 720 720" xmlns="http://www.w3.org/2000/svg" version="1.1">
 <metadata>
  <rdf:RDF xmlns:dc="http://purl.org/dc/elements/1.1/" xmlns:cc="http://creativecommons.org/ns#" xmlns:rdf="http://www.w3.org/1999/02/22-rdf-syntax-ns#">
   <cc:Work>
    <dc:type rdf:resource="http://purl.org/dc/dcmitype/StillImage"/>
    <dc:date>2024-10-15T09:52:08.275617</dc:date>
    <dc:format>image/svg+xml</dc:format>
    <dc:creator>
     <cc:Agent>
      <dc:title>Matplotlib v3.8.4, https://matplotlib.org/</dc:title>
     </cc:Agent>
    </dc:creator>
   </cc:Work>
  </rdf:RDF>
 </metadata>
 <defs>
  <style type="text/css">*{stroke-linejoin: round; stroke-linecap: butt}</style>
 </defs>
 <g id="figure_1">
  <g id="patch_1">
   <path d="M 0 720 
L 720 720 
L 720 0 
L 0 0 
z
" style="fill: #ffffff"/>
  </g>
  <g id="axes_1">
   <g id="patch_2">
    <path d="M 90 507.326348 
L 648 507.326348 
L 648 219.873652 
L 90 219.873652 
z
" style="fill: #ffffff"/>
   </g>
   <g id="PatchCollection_1">
    <path d="M 554.106646 399.984059 
L 556.460772 394.984299 
L 560.956485 385.28192 
L 560.084222 384.192376 
L 561.471455 381.325118 
L 561.489287 381.287474 
L 562.470026 379.120603 
L 562.880318 378.213667 
L 563.530181 376.777892 
L 562.82253 376.424397 
L 560.428306 375.228193 
L 558.879267 374.454169 
L 561.067933 369.454878 
L 561.153623 369.25873 
L 561.374042 368.755317 
L 563.245041 364.481674 
L 563.51367 363.867804 
L 564.90272 361.195539 
L 565.029523 360.926909 
L 565.320442 360.312214 
L 565.873057 359.143748 
L 566.023965 358.824595 
L 566.561225 357.688985 
L 567.169646 356.402468 
L 567.319729 356.085131 
L 567.904375 354.849136 
L 568.546643 353.490796 
L 568.732389 353.098336 
L 569.361449 351.76823 
L 568.499753 348.384021 
L 568.143946 346.988862 
L 568.041744 346.587981 
L 567.67372 345.21957 
L 566.903493 342.038773 
L 566.367059 340.015546 
L 565.350987 335.753955 
L 563.549994 328.553616 
L 563.125503 322.802921 
L 562.11587 324.670618 
L 560.79501 327.125932 
L 559.782901 328.993463 
L 558.317406 331.770076 
L 556.842666 334.480976 
L 553.503036 332.561767 
L 550.881954 331.05417 
L 548.946729 329.941675 
L 548.28052 329.558461 
L 548.179474 329.500343 
L 547.866926 329.320541 
L 546.170611 328.34459 
L 545.175178 327.772162 
L 544.722453 327.511788 
L 544.050795 327.125436 
L 543.974351 327.081518 
L 543.60517 326.869354 
L 541.929494 325.906282 
L 540.800324 325.256749 
L 540.451121 325.055979 
L 539.341103 324.417508 
L 531.791397 320.07551 
L 530.755017 319.462301 
L 530.042375 319.040659 
L 529.266242 318.581452 
L 528.591448 318.182057 
L 527.377247 315.410067 
L 527.259195 315.140611 
L 522.857428 305.093488 
L 520.485494 299.686052 
L 516.017024 289.498917 
L 514.020213 284.947398 
L 512.043876 280.440623 
L 506.18388 283.954607 
L 503.673915 285.458736 
L 500.864941 287.142172 
L 491.49641 292.757149 
L 491.148033 292.96634 
L 490.740382 293.211195 
L 489.988648 293.651372 
L 488.331299 291.779382 
L 487.91176 291.305359 
L 487.972355 290.981418 
L 483.073119 284.607937 
L 482.69106 284.901168 
L 479.655393 280.892688 
L 474.41323 273.969729 
L 472.331554 271.181393 
L 469.210361 267.242258 
L 466.80524 264.19008 
L 465.494121 262.548911 
L 462.070947 258.250832 
L 461.015414 256.898436 
L 460.621963 256.402288 
L 460.189712 255.854131 
L 460.057791 255.686547 
L 459.884098 255.80658 
L 452.628117 260.823373 
L 452.031419 261.469108 
L 450.350459 263.480943 
L 448.87093 261.84803 
L 445.955957 259.390569 
L 444.636583 258.277415 
L 444.075547 257.849126 
L 443.599047 257.485064 
L 441.528434 255.903664 
L 439.972625 254.809331 
L 436.842847 252.60498 
L 434.917033 251.232937 
L 434.630902 251.028864 
L 431.82622 249.090502 
L 428.531995 247.423246 
L 425.449933 245.8326 
L 424.545474 245.365841 
L 418.553061 241.539474 
L 416.954325 240.518614 
L 415.276667 239.447232 
L 411.408198 237.52538 
L 408.769945 235.961316 
L 403.882927 232.939684 
L 403.44209 233.025374 
L 401.167899 237.842386 
L 398.545331 243.356152 
L 397.618913 245.303265 
L 396.916876 246.778336 
L 396.529038 247.593141 
L 396.526561 247.598755 
L 394.984622 250.83899 
L 394.823147 251.178782 
L 393.572127 253.807789 
L 393.504764 253.944333 
L 393.288638 254.382858 
L 392.177629 256.637401 
L 391.877629 256.6128 
L 387.295235 256.237511 
L 387.043281 255.854627 
L 384.548671 256.06712 
L 371.215908 257.178129 
L 367.7328 257.492658 
L 367.655034 257.498767 
L 339.024564 259.727224 
L 337.751089 259.838671 
L 334.104029 260.110768 
L 330.562473 260.385177 
L 330.106776 260.420675 
L 326.759716 260.679399 
L 325.082554 260.809834 
L 320.058002 261.199322 
L 316.059098 261.509229 
L 312.389418 261.83251 
L 308.646595 262.104607 
L 307.980221 262.154635 
L 298.497271 262.844289 
L 294.099302 263.163772 
L 294.088074 263.164927 
L 293.066884 263.23741 
L 291.918726 263.318477 
L 290.852957 263.393932 
L 288.238645 263.593051 
L 288.010796 263.610388 
L 286.497916 263.725468 
L 281.39114 264.093988 
L 276.940832 264.415452 
L 276.844905 264.422221 
L 276.289153 264.461517 
L 271.562785 264.795034 
L 269.559865 264.936366 
L 267.60945 265.074231 
L 266.323097 265.164875 
L 265.866905 265.197236 
L 265.186662 265.245117 
L 255.928423 265.927507 
L 254.435521 266.036147 
L 241.540458 266.971316 
L 240.948548 267.014575 
L 237.103358 267.279902 
L 224.28408 268.310503 
L 204.401006 269.908579 
L 204.204198 269.924595 
L 203.02533 270.019366 
L 169.973446 272.441659 
L 167.218515 272.528895 
L 167.142182 272.531312 
L 165.552692 272.581175 
L 164.358469 272.618819 
L 164.32132 272.62014 
L 162.929298 270.747325 
L 160.796274 267.787443 
L 160.748558 267.721235 
L 160.35296 267.172252 
L 158.894731 265.148694 
L 158.438869 264.516002 
L 158.385209 264.441704 
L 154.858347 259.547587 
L 152.482119 256.241639 
L 150.305837 253.251707 
L 149.952342 254.180106 
L 149.454543 255.487593 
L 148.17628 258.844889 
L 147.354375 261.003505 
L 147.276279 261.208734 
L 147.092019 261.692829 
L 146.884149 262.238674 
L 146.412106 263.478467 
L 145.591522 265.634111 
L 144.534669 268.409898 
L 143.789208 270.37022 
L 142.861139 272.807537 
L 142.699168 273.232689 
L 141.876933 275.391965 
L 141.795205 275.60644 
L 141.617879 276.072043 
L 141.406707 276.626474 
L 140.934499 277.867422 
L 140.11375 280.023727 
L 139.783535 280.891367 
L 138.835322 283.381353 
L 138.761849 283.574529 
L 138.337523 284.690161 
L 138.162179 285.151471 
L 137.983532 285.620707 
L 135.187271 292.963203 
L 135.157717 293.04196 
L 134.704332 294.23288 
L 134.057606 295.931506 
L 133.353917 297.780381 
L 132.72849 299.421549 
L 132.591121 299.781979 
L 131.939771 301.490842 
L 131.802402 301.851272 
L 131.376425 302.96938 
L 131.23922 303.329149 
L 130.587871 305.038342 
L 130.450502 305.398772 
L 129.826395 307.036308 
L 124.121435 322.014037 
L 123.019837 324.902098 
L 118.470134 336.862487 
L 117.538433 337.756049 
L 117.133259 338.144547 
L 116.287606 338.954465 
L 115.363636 343.857928 
L 116.749219 345.154518 
L 118.319391 346.623809 
L 118.925831 347.191119 
L 121.138561 349.205678 
L 122.233926 350.256175 
L 127.369975 355.181576 
L 128.377081 356.147377 
L 129.696621 357.428776 
L 130.168828 357.900653 
L 130.633936 358.37963 
L 131.091779 358.865542 
L 131.542027 359.358388 
L 131.984846 359.858003 
L 132.414621 360.357784 
L 132.836801 360.863838 
L 133.251551 361.376167 
L 133.658376 361.894604 
L 134.083362 362.453493 
L 134.41011 362.550577 
L 134.496957 362.672756 
L 135.717597 364.200001 
L 136.944568 365.580116 
L 137.946548 366.707159 
L 138.59443 367.629284 
L 138.967078 368.172818 
L 139.527123 369.022131 
L 139.780232 369.426479 
L 140.113254 369.977608 
L 140.50654 370.653724 
L 141.135765 371.76853 
L 141.472089 372.395773 
L 141.671209 372.780804 
L 141.82707 373.095829 
L 142.095535 373.644151 
L 142.346664 374.162424 
L 142.662349 374.835402 
L 143.083704 375.76958 
L 143.260699 376.187302 
L 143.440666 376.789945 
L 143.715405 377.538212 
L 143.943914 378.107173 
L 144.162847 378.667713 
L 144.371543 379.236178 
L 144.606656 379.896113 
L 144.772424 380.384666 
L 145.006381 381.099086 
L 145.233404 381.833154 
L 145.371269 382.316094 
L 145.71139 383.529469 
L 145.878974 384.093972 
L 146.133735 384.934204 
L 146.423499 385.84279 
L 146.657621 386.557046 
L 146.960759 387.459358 
L 147.277105 388.356883 
L 147.567034 389.173009 
L 147.927794 390.168773 
L 148.295488 391.148191 
L 148.611669 391.971417 
L 148.975896 392.87472 
L 149.305451 393.683417 
L 149.755864 394.743572 
L 150.069403 395.449572 
L 150.592464 396.592116 
L 151.009525 397.488154 
L 151.37012 398.238073 
L 151.610352 398.709785 
L 151.87667 399.206759 
L 152.155867 399.717271 
L 152.486742 400.286562 
L 152.776671 400.754311 
L 153.077993 401.232298 
L 153.336221 401.631693 
L 153.647779 402.085078 
L 153.975682 402.560258 
L 154.31828 403.030649 
L 154.671115 403.487997 
L 154.919602 403.794932 
L 155.266658 404.212654 
L 155.718887 404.739512 
L 156.113494 405.168131 
L 156.573484 405.639018 
L 156.833198 405.871819 
L 157.104635 406.098182 
L 157.68862 406.553383 
L 158.515314 407.183268 
L 159.364957 407.825206 
L 159.992035 408.272978 
L 160.671618 408.739902 
L 160.40596 409.25157 
L 160.860336 409.577162 
L 161.452576 410.032529 
L 161.724839 410.219431 
L 162.267877 410.573091 
L 162.770795 410.891418 
L 165.482356 412.565774 
L 166.122643 412.928019 
L 166.418515 413.078928 
L 166.593529 413.164784 
L 167.504243 413.593213 
L 168.215546 413.905621 
L 169.064364 414.238643 
L 169.955284 414.536332 
L 171.443728 415.005402 
L 173.894089 415.77018 
L 174.470149 415.947836 
L 175.531955 416.367539 
L 178.642251 417.413991 
L 179.296881 417.320417 
L 181.015507 417.914597 
L 181.827836 418.146573 
L 182.645778 418.357415 
L 183.468839 418.547289 
L 184.296688 418.715864 
L 185.1285 418.86314 
L 185.963779 418.988952 
L 186.80203 419.093134 
L 187.642758 419.175688 
L 188.485301 419.236778 
L 189.329166 419.276074 
L 190.173691 419.293575 
L 193.885473 419.0862 
L 194.768468 419.280201 
L 195.709416 419.269634 
L 196.649868 419.242722 
L 197.589826 419.199464 
L 198.528792 419.139695 
L 199.466768 419.06358 
L 200.403093 418.970955 
L 201.337766 418.862149 
L 202.270294 418.736998 
L 202.727476 418.678384 
L 203.188126 418.667157 
L 204.288238 418.607388 
L 205.388845 418.562809 
L 206.490112 418.53309 
L 207.591709 418.51856 
L 208.693307 418.51889 
L 209.794904 418.534411 
L 211.000609 418.482999 
L 212.613785 418.414212 
L 213.584617 418.21113 
L 214.860403 418.380861 
L 216.133052 418.57222 
L 217.402233 418.785209 
L 218.667782 419.019827 
L 219.929039 419.275908 
L 221.185672 419.553454 
L 222.437517 419.852299 
L 223.684079 420.172442 
L 224.924862 420.51372 
L 226.159867 420.876131 
L 227.388432 421.25951 
L 228.610227 421.663694 
L 229.825088 422.08868 
L 231.443046 422.713644 
L 233.225621 423.402195 
L 234.422673 423.864577 
L 236.962253 424.925962 
L 238.83976 425.710642 
L 240.754381 426.521487 
L 241.291311 426.759572 
L 243.49335 427.727598 
L 246.05747 428.846201 
L 247.234686 429.367115 
L 247.836503 429.665795 
L 253.131336 431.826887 
L 257.663538 433.717699 
L 262.469488 435.712528 
L 266.68716 437.473399 
L 268.366138 438.164044 
L 268.944675 438.391397 
L 269.118368 438.460082 
L 269.750895 438.71055 
L 270.331083 438.932785 
L 271.05574 439.199268 
L 271.677039 439.427282 
L 272.478647 439.71619 
L 273.29757 439.989803 
L 273.78926 440.154085 
L 275.384236 440.721119 
L 276.973167 441.267364 
L 282.630603 442.846329 
L 284.424496 443.234496 
L 284.32279 443.647595 
L 289.14459 444.668951 
L 289.110578 445.058604 
L 289.969467 445.199111 
L 290.831163 445.322281 
L 291.695006 445.42795 
L 292.560995 445.516282 
L 293.42847 445.587113 
L 294.2971 445.640443 
L 295.166887 445.676106 
L 296.037003 445.694268 
L 296.907285 445.694929 
L 297.777567 445.677923 
L 297.789124 445.346552 
L 299.745199 445.254393 
L 299.726992 444.905715 
L 300.814555 444.820189 
L 300.814059 444.865098 
L 300.824461 444.908687 
L 300.84543 444.948478 
L 300.875645 444.981664 
L 300.912959 445.006595 
L 303.247414 444.823161 
L 303.2877 444.792946 
L 303.318741 444.75332 
L 303.338223 444.70676 
L 303.344828 444.656733 
L 303.338058 444.60687 
L 303.31841 444.560475 
L 303.762054 444.526463 
L 303.77807 444.724922 
L 303.976694 444.709237 
L 306.600418 444.505329 
L 309.262281 444.298284 
L 309.422766 444.285736 
L 309.408071 444.098834 
L 309.574665 444.08513 
L 310.550285 444.003732 
L 310.730913 443.988707 
L 311.138068 443.954695 
L 312.179731 443.842752 
L 315.568558 443.291552 
L 323.626966 441.980835 
L 327.363566 441.440104 
L 330.17417 441.033375 
L 331.802926 440.797674 
L 332.20843 440.734603 
L 332.611953 440.659975 
L 333.013329 440.573623 
L 333.411899 440.47588 
L 333.807496 440.366579 
L 334.608763 440.148141 
L 336.087796 440.079457 
L 337.202602 440.064267 
L 338.300237 440.072027 
L 339.407448 440.106204 
L 339.996552 440.122385 
L 340.240416 440.143518 
L 341.460065 440.252654 
L 342.295674 440.327943 
L 343.370029 440.430971 
L 344.469149 440.540932 
L 345.571407 440.659314 
L 346.307126 440.740712 
L 346.599367 440.773073 
L 349.329976 441.111304 
L 349.967725 441.1903 
L 350.683962 441.286558 
L 351.579835 441.407582 
L 352.20873 441.498721 
L 352.820841 441.597198 
L 353.326343 441.678523 
L 354.399211 441.867406 
L 355.004661 441.977863 
L 355.305652 442.033174 
L 356.306038 442.215618 
L 357.556067 442.455684 
L 358.491897 442.732735 
L 359.42558 442.941926 
L 360.986671 443.333231 
L 362.54248 443.729324 
L 364.128007 444.135818 
L 365.7525 444.567905 
L 367.340339 445.022446 
L 368.781563 445.457669 
L 370.409688 445.965705 
L 373.241612 446.891298 
L 374.282285 447.293995 
L 375.389661 447.744408 
L 376.481682 448.225697 
L 376.494231 448.179797 
L 377.16176 448.496143 
L 377.167704 448.443474 
L 378.585978 449.134118 
L 379.80183 449.786293 
L 382.518344 451.312217 
L 385.394517 452.861091 
L 386.238381 453.286573 
L 387.603986 453.875511 
L 389.748402 454.754874 
L 390.882691 455.182667 
L 391.763374 455.494886 
L 392.823035 455.851848 
L 393.013238 455.918221 
L 395.232614 456.676891 
L 397.447531 457.400887 
L 398.94258 457.875076 
L 400.132675 458.234515 
L 400.644838 458.386249 
L 401.991125 458.781681 
L 402.386888 458.891478 
L 403.27368 459.142771 
L 404.715564 459.543322 
L 406.394213 459.991259 
L 406.954423 460.13903 
L 411.353713 461.206616 
L 412.811612 461.544756 
L 414.904845 461.990711 
L 415.837207 462.183392 
L 417.033246 462.407608 
L 421.196928 463.185099 
L 421.95213 463.323294 
L 422.93485 463.47899 
L 424.507003 463.708655 
L 426.165178 463.943273 
L 433.858198 464.995998 
L 440.607299 465.956429 
L 441.823976 466.131443 
L 442.762447 466.266501 
L 442.754852 466.314217 
L 447.367956 466.994625 
L 452.364771 467.719282 
L 452.64793 467.760394 
L 452.823274 468.085655 
L 456.957071 468.700846 
L 457.696588 468.359899 
L 463.505731 469.606296 
L 475.98753 472.260564 
L 477.006739 472.49122 
L 478.104869 472.738385 
L 480.201899 473.240477 
L 481.351873 473.53635 
L 483.551436 474.11984 
L 484.474552 474.368492 
L 485.709556 474.708944 
L 486.463107 474.928041 
L 488.423429 475.506743 
L 489.706974 475.897718 
L 491.348143 476.415991 
L 493.517161 477.125788 
L 496.361963 478.064754 
L 497.75415 478.475872 
L 499.016892 478.960132 
L 500.440119 479.439935 
L 503.441444 480.457327 
L 505.497363 481.154081 
L 508.684598 482.23504 
L 512.379044 483.484574 
L 513.40073 483.830144 
L 519.460341 485.876487 
L 522.63767 486.949685 
L 525.849672 488.034277 
L 534.945446 491.116174 
L 535.547593 491.312652 
L 536.158491 491.489317 
L 537.024149 491.717 
L 540.493224 492.564002 
L 541.017605 492.686181 
L 541.790308 492.854426 
L 542.925092 493.082274 
L 544.300273 493.341328 
L 545.748596 493.578422 
L 547.09059 493.769122 
L 548.551296 493.957014 
L 549.34728 494.038247 
L 550.858839 494.159436 
L 551.713271 494.200382 
L 552.624004 494.232578 
L 553.825326 494.258831 
L 554.431106 494.260316 
L 555.413826 494.246117 
L 556.185373 494.214417 
L 557.218451 494.144906 
L 558.146025 494.071764 
L 558.845751 493.999281 
L 561.390718 493.69763 
L 563.333208 493.473744 
L 563.514032 493.455235 
L 568.065685 492.989319 
L 568.861503 492.895373 
L 569.922649 492.747271 
L 575.796349 491.987281 
L 577.365036 491.795922 
L 577.717706 491.738134 
L 578.700756 491.529108 
L 579.511764 491.329823 
L 580.328386 491.107588 
L 581.124039 490.850351 
L 582.053264 490.514687 
L 582.873684 490.172089 
L 583.646387 489.820245 
L 584.371209 489.467575 
L 585.078529 489.083205 
L 585.783043 488.673903 
L 593.128179 484.446246 
L 593.751958 484.087216 
L 594.726092 483.557716 
L 595.504244 483.182922 
L 596.311785 482.81853 
L 597.040735 482.518695 
L 597.933471 482.192277 
L 598.773868 481.924308 
L 599.771448 481.642799 
L 600.580805 481.446817 
L 601.681082 481.231682 
L 602.726047 481.063437 
L 603.704474 480.926728 
L 604.470738 480.824196 
L 605.438764 480.708786 
L 606.553735 480.588093 
L 607.671678 480.487212 
L 609.746914 480.316986 
L 612.81841 480.103007 
L 613.082086 480.088312 
L 613.747635 480.024911 
L 615.221715 479.948961 
L 616.450775 479.916105 
L 617.262609 479.934927 
L 622.636364 480.720509 
L 619.747642 473.229911 
L 619.143844 471.296667 
L 618.521554 469.2987 
L 618.348521 468.751039 
L 618.202731 468.289728 
L 618.04753 467.798038 
L 617.899759 467.330454 
L 617.581432 466.322802 
L 617.434486 465.85786 
L 617.289191 465.397705 
L 617.255014 465.28956 
L 617.166351 465.009372 
L 617.135972 464.912454 
L 616.959637 464.354225 
L 616.638007 463.335347 
L 616.5188 462.958076 
L 616.201133 461.951581 
L 615.88941 460.964238 
L 615.774 460.598525 
L 615.44395 459.552568 
L 615.041252 458.277113 
L 614.930961 457.928241 
L 614.525787 456.644364 
L 614.358368 456.126257 
L 614.310817 455.978816 
L 614.20845 455.662305 
L 614.052754 455.180356 
L 613.900524 454.708809 
L 613.601019 453.78206 
L 613.446644 453.304074 
L 613.154073 452.398789 
L 613.000028 451.921959 
L 612.680545 450.932965 
L 612.536901 450.488 
L 612.38038 450.00374 
L 612.228481 449.533514 
L 612.049304 448.978513 
L 611.926169 448.597354 
L 611.615767 447.636428 
L 611.493917 447.23307 
L 611.231726 446.3651 
L 611.085606 445.880675 
L 610.944274 445.412595 
L 610.184449 442.895365 
L 609.804702 441.692392 
L 609.466727 440.621505 
L 609.420662 440.475715 
L 609.278835 440.026787 
L 609.100188 439.460799 
L 608.751977 438.357715 
L 607.178667 433.391611 
L 606.933317 432.596123 
L 607.300681 432.291004 
L 609.096391 423.720438 
L 608.803985 423.472281 
L 607.492701 422.359952 
L 607.079602 422.009759 
L 605.783508 420.910308 
L 603.666004 419.113278 
L 601.723019 417.464679 
L 601.544703 417.313275 
L 599.980437 416.474936 
L 598.51126 415.687559 
L 597.190652 418.552903 
L 595.914701 421.32027 
L 592.203414 419.412287 
L 590.274298 418.419661 
L 588.949806 417.739088 
L 586.525202 416.49104 
L 584.852662 415.630499 
L 582.509787 414.426866 
L 580.407142 413.348548 
L 577.405322 411.810572 
L 574.638946 410.392628 
L 571.869267 408.972869 
L 569.391663 407.69279 
L 567.44323 406.674077 
L 564.110534 404.9525 
L 563.032382 404.395428 
L 557.943438 402.020356 
L 554.106646 399.984059 
" clip-path="url(#peec3b4f258)" style="fill: #d3d3d3"/>
   </g>
   <g id="PatchCollection_2">
    <path d="M 554.106646 399.984059 
L 557.943438 402.020356 
L 563.032382 404.395428 
L 564.110534 404.9525 
L 567.44323 406.674077 
L 569.391663 407.69279 
L 571.869267 408.972869 
L 574.638946 410.392628 
L 577.405322 411.810572 
L 580.407142 413.348548 
L 582.509787 414.426866 
L 584.852662 415.630499 
L 586.525202 416.49104 
L 588.949806 417.739088 
L 590.274298 418.419661 
L 592.203414 419.412287 
L 595.914701 421.32027 
L 597.190652 418.552903 
L 598.51126 415.687559 
L 599.980437 416.474936 
L 601.544703 417.313275 
L 601.723019 417.464679 
L 603.666004 419.113278 
L 605.783508 420.910308 
L 607.079602 422.009759 
L 607.492701 422.359952 
L 608.803985 423.472281 
L 609.096391 423.720438 
L 607.300681 432.291004 
L 606.933317 432.596123 
L 607.178667 433.391611 
L 608.751977 438.357715 
L 609.100188 439.460799 
L 609.278835 440.026787 
L 609.420662 440.475715 
L 609.466727 440.621505 
L 609.804702 441.692392 
L 610.184449 442.895365 
L 610.944274 445.412595 
L 611.085606 445.880675 
L 611.231726 446.3651 
L 611.493917 447.23307 
L 611.615767 447.636428 
L 611.926169 448.597354 
L 612.049304 448.978513 
L 612.228481 449.533514 
L 612.38038 450.00374 
L 612.536901 450.488 
L 612.680545 450.932965 
L 613.000028 451.921959 
L 613.154073 452.398789 
L 613.446644 453.304074 
L 613.601019 453.78206 
L 613.900524 454.708809 
L 614.052754 455.180356 
L 614.20845 455.662305 
L 614.310817 455.978816 
L 614.358368 456.126257 
L 614.525787 456.644364 
L 614.930961 457.928241 
L 615.041252 458.277113 
L 615.44395 459.552568 
L 615.774 460.598525 
L 615.88941 460.964238 
L 616.201133 461.951581 
L 616.5188 462.958076 
L 616.53739 463.01691 
L 616.352138 463.479184 
L 614.932075 466.573202 
L 614.185716 468.009211 
L 613.302355 469.365251 
L 612.290477 470.628294 
L 611.159806 471.786204 
L 609.921204 472.827856 
L 609.24877 473.28906 
L 608.924384 474.381332 
L 608.32748 475.854407 
L 606.116614 480.63541 
L 605.438764 480.708786 
L 604.470738 480.824196 
L 603.704474 480.926728 
L 602.726047 481.063437 
L 601.681082 481.231682 
L 600.580805 481.446817 
L 599.771448 481.642799 
L 598.773868 481.924308 
L 597.933471 482.192277 
L 597.040735 482.518695 
L 596.311785 482.81853 
L 595.504244 483.182922 
L 594.726092 483.557716 
L 593.751958 484.087216 
L 593.128179 484.446246 
L 585.783043 488.673903 
L 585.078529 489.083205 
L 584.371209 489.467575 
L 583.646387 489.820245 
L 582.873684 490.172089 
L 582.053264 490.514687 
L 581.124039 490.850351 
L 580.328386 491.107588 
L 579.511764 491.329823 
L 578.700756 491.529108 
L 577.717706 491.738134 
L 577.365036 491.795922 
L 575.796349 491.987281 
L 569.922649 492.747271 
L 568.861503 492.895373 
L 568.065685 492.989319 
L 563.514032 493.455235 
L 563.333208 493.473744 
L 561.390718 493.69763 
L 561.0999 493.7321 
L 559.666523 493.309769 
L 558.171029 492.705025 
L 557.33005 492.316129 
L 555.371656 491.410997 
L 553.415283 490.507283 
L 551.290839 489.527545 
L 550.162845 489.007026 
L 548.699252 488.240607 
L 547.319581 487.331757 
L 546.037645 486.289575 
L 544.866281 485.124496 
L 543.817217 483.848187 
L 543.361908 483.165041 
L 543.136296 483.125393 
L 541.903549 482.809234 
L 540.493176 482.388968 
L 539.53605 482.157913 
L 537.88154 481.566424 
L 534.589398 480.187794 
L 533.164365 479.509255 
L 531.810633 478.697747 
L 530.540574 477.760685 
L 529.365793 476.706633 
L 528.297025 475.545224 
L 527.594673 474.617962 
L 527.586956 475.414403 
L 527.409656 477.038952 
L 527.072628 478.638017 
L 526.579174 480.195931 
L 525.934126 481.697433 
L 524.85922 483.893034 
L 524.550427 484.534516 
L 524.542442 484.551081 
L 524.327432 484.99647 
L 523.557736 486.410356 
L 523.088584 487.101945 
L 522.63767 486.949685 
L 519.460341 485.876487 
L 513.40073 483.830144 
L 512.379044 483.484574 
L 508.684598 482.23504 
L 505.497363 481.154081 
L 503.441444 480.457327 
L 500.440119 479.439935 
L 499.016892 478.960132 
L 497.75415 478.475872 
L 496.361963 478.064754 
L 493.517161 477.125788 
L 491.348143 476.415991 
L 489.706974 475.897718 
L 488.423429 475.506743 
L 486.463107 474.928041 
L 485.709556 474.708944 
L 484.474552 474.368492 
L 483.551436 474.11984 
L 481.351873 473.53635 
L 480.201899 473.240477 
L 478.104869 472.738385 
L 477.006739 472.49122 
L 475.98753 472.260564 
L 463.505731 469.606296 
L 457.696588 468.359899 
L 456.957071 468.700846 
L 452.823274 468.085655 
L 452.64793 467.760394 
L 452.364771 467.719282 
L 447.367956 466.994625 
L 442.754852 466.314217 
L 442.762447 466.266501 
L 441.823976 466.131443 
L 440.607299 465.956429 
L 433.858198 464.995998 
L 426.165178 463.943273 
L 424.507003 463.708655 
L 422.93485 463.47899 
L 421.95213 463.323294 
L 421.196928 463.185099 
L 417.033246 462.407608 
L 415.837207 462.183392 
L 414.904845 461.990711 
L 412.811612 461.544756 
L 411.353713 461.206616 
L 406.954423 460.13903 
L 406.394213 459.991259 
L 404.715564 459.543322 
L 403.27368 459.142771 
L 402.386888 458.891478 
L 401.991125 458.781681 
L 400.644838 458.386249 
L 400.132675 458.234515 
L 398.94258 457.875076 
L 397.447531 457.400887 
L 395.232614 456.676891 
L 393.013238 455.918221 
L 392.823035 455.851848 
L 391.763374 455.494886 
L 390.882691 455.182667 
L 389.748402 454.754874 
L 387.603986 453.875511 
L 386.238381 453.286573 
L 385.394517 452.861091 
L 382.518344 451.312217 
L 379.80183 449.786293 
L 378.585978 449.134118 
L 377.167704 448.443474 
L 377.16176 448.496143 
L 376.494231 448.179797 
L 376.481682 448.225697 
L 375.389661 447.744408 
L 374.474361 447.37212 
L 375.018688 445.943323 
L 375.762728 444.458811 
L 380.988604 435.223058 
L 381.856241 433.851623 
L 382.854323 432.57199 
L 383.973208 431.396522 
L 385.202084 430.336575 
L 386.529082 429.402388 
L 387.94138 428.602986 
L 389.425334 427.946094 
L 389.969733 427.766648 
L 389.453761 427.147049 
L 388.52568 425.772574 
L 387.740169 424.311926 
L 387.105155 422.779844 
L 386.627045 421.191786 
L 386.310662 419.563775 
L 386.159199 417.912237 
L 386.174184 416.253836 
L 386.355466 414.605304 
L 386.701216 412.983276 
L 387.207945 411.404117 
L 387.870541 409.88376 
L 388.065617 409.491249 
L 389.151117 407.305766 
L 388.006281 407.331245 
L 387.21293 407.30998 
L 385.589783 407.186195 
L 383.986716 406.903175 
L 382.41931 406.463669 
L 380.902802 405.871951 
L 379.451934 405.133772 
L 378.080809 404.256308 
L 376.802756 403.248089 
L 375.905911 402.384427 
L 375.063355 402.407129 
L 374.25822 402.389264 
L 372.170888 402.350194 
L 370.546198 402.239462 
L 368.940319 401.96922 
L 368.848646 401.944303 
L 368.536522 402.175319 
L 367.138675 403.010391 
L 365.665372 403.703714 
L 364.13094 404.248545 
L 362.550305 404.639585 
L 360.938839 404.873032 
L 359.312215 404.946614 
L 355.655136 404.931529 
L 354.074546 404.849148 
L 352.509107 404.615803 
L 350.973203 404.233637 
L 349.480949 403.706164 
L 348.046057 403.03823 
L 346.681713 402.235973 
L 345.400454 401.306765 
L 345.218382 401.145992 
L 345.439345 402.515339 
L 345.504885 403.097368 
L 345.607321 404.741127 
L 345.545486 406.386912 
L 345.319996 408.01835 
L 345.09849 409.187496 
L 344.775071 411.209517 
L 344.26461 413.416798 
L 344.06988 414.055504 
L 343.508095 415.613354 
L 342.793078 417.107091 
L 341.932022 418.521687 
L 340.933591 419.842912 
L 339.807827 421.057472 
L 338.566058 422.15315 
L 337.220776 423.118922 
L 335.785515 423.945072 
L 334.274713 424.623289 
L 332.703571 425.14675 
L 331.022501 425.614596 
L 329.38517 425.981761 
L 327.719029 426.180843 
L 326.726136 426.19797 
L 327.368591 427.34288 
L 328.018966 428.826174 
L 328.139738 429.143033 
L 328.641944 430.683966 
L 328.990654 432.266713 
L 329.182508 433.876022 
L 329.215657 435.496389 
L 329.089781 437.112198 
L 328.806095 438.707882 
L 328.367331 440.268065 
L 327.942284 441.356356 
L 327.363566 441.440104 
L 323.626966 441.980835 
L 315.568558 443.291552 
L 312.179731 443.842752 
L 311.138068 443.954695 
L 310.730913 443.988707 
L 310.550285 444.003732 
L 309.574665 444.08513 
L 309.408071 444.098834 
L 309.422766 444.285736 
L 309.262281 444.298284 
L 306.600418 444.505329 
L 303.976694 444.709237 
L 303.77807 444.724922 
L 303.762054 444.526463 
L 303.31841 444.560475 
L 303.338058 444.60687 
L 303.344828 444.656733 
L 303.338223 444.70676 
L 303.318741 444.75332 
L 303.2877 444.792946 
L 303.247414 444.823161 
L 300.912959 445.006595 
L 300.875645 444.981664 
L 300.84543 444.948478 
L 300.824461 444.908687 
L 300.814059 444.865098 
L 300.814555 444.820189 
L 299.726992 444.905715 
L 299.745199 445.254393 
L 297.789124 445.346552 
L 297.777567 445.677923 
L 296.907285 445.694929 
L 296.037003 445.694268 
L 295.166887 445.676106 
L 294.2971 445.640443 
L 293.42847 445.587113 
L 292.560995 445.516282 
L 291.695006 445.42795 
L 290.831163 445.322281 
L 289.969467 445.199111 
L 289.110578 445.058604 
L 289.14459 444.668951 
L 284.32279 443.647595 
L 284.424496 443.234496 
L 282.630603 442.846329 
L 281.130806 442.427742 
L 280.352039 441.391245 
L 279.509152 440.004076 
L 278.806546 438.540846 
L 278.251012 437.015698 
L 277.847919 435.443371 
L 277.601163 433.839062 
L 277.513128 432.218276 
L 277.584666 430.596679 
L 277.815085 428.989942 
L 278.202158 427.413595 
L 278.742144 425.882873 
L 279.429824 424.41257 
L 280.258552 423.016896 
L 281.220319 421.70934 
L 282.305828 420.502541 
L 282.482472 420.324589 
L 282.601395 420.215963 
L 278.955538 420.524436 
L 277.336633 420.581659 
L 275.719912 420.479963 
L 274.120937 420.220326 
L 272.555102 419.805247 
L 271.037479 419.238723 
L 269.582677 418.526207 
L 268.204699 417.674557 
L 266.916811 416.691971 
L 265.73141 415.587909 
L 264.659906 414.372998 
L 263.712615 413.058932 
L 262.898654 411.658361 
L 262.22586 410.184768 
L 261.700708 408.652337 
L 261.328254 407.075819 
L 261.112083 405.470391 
L 261.090679 405.218504 
L 260.169908 406.293574 
L 259.068573 407.360735 
L 257.872975 408.321109 
L 256.59343 409.166411 
L 255.434336 409.85704 
L 254.129261 410.557322 
L 252.766682 411.137834 
L 251.357564 411.593904 
L 249.913244 411.921862 
L 248.445346 412.119069 
L 246.529831 412.289383 
L 245.145774 412.354076 
L 243.761167 412.302495 
L 242.38576 412.135004 
L 240.887693 411.8884 
L 239.341586 411.557155 
L 237.834255 411.079533 
L 236.379525 410.459914 
L 234.990737 409.70398 
L 233.680628 408.818664 
L 232.618822 407.942186 
L 228.176061 407.081219 
L 221.909525 406.032886 
L 218.592055 406.271172 
L 215.46066 406.63945 
L 213.812154 406.974196 
L 212.37772 407.20031 
L 206.114378 407.907015 
L 204.419083 408.010385 
L 202.722138 407.939046 
L 201.0415 407.693753 
L 200.718901 407.629572 
L 200.106127 407.495511 
L 197.643613 406.907541 
L 197.473654 406.866006 
L 196.868215 406.714648 
L 196.845299 406.708902 
L 187.342596 404.318791 
L 185.803067 403.850717 
L 184.316413 403.235004 
L 182.896754 402.4775 
L 181.557574 401.5854 
L 180.311594 400.567178 
L 179.170648 399.432504 
L 178.145572 398.192156 
L 177.246103 396.857915 
L 176.480785 395.442453 
L 175.856886 393.959216 
L 175.380332 392.42229 
L 175.05565 390.846275 
L 174.885923 389.246138 
L 174.872764 387.637079 
L 175.016298 386.034381 
L 175.315161 384.453266 
L 175.766514 382.908752 
L 176.366071 381.415509 
L 177.568175 378.798245 
L 177.176186 378.838703 
L 175.549935 378.845711 
L 173.930884 378.692698 
L 172.33474 378.381149 
L 170.776987 377.914085 
L 169.27274 377.296039 
L 167.669127 376.542836 
L 160.661715 373.343329 
L 159.184241 372.576483 
L 157.791492 371.664764 
L 156.497625 370.617439 
L 155.315792 369.445155 
L 154.258006 368.159826 
L 153.258631 366.81239 
L 153.069339 366.946244 
L 151.632465 367.760249 
L 150.121463 368.426645 
L 148.551448 368.938763 
L 147.958081 369.099967 
L 147.869885 369.123666 
L 147.480884 369.227041 
L 145.590396 369.737485 
L 144.045778 370.076106 
L 142.475851 370.265409 
L 140.895014 370.303659 
L 140.277128 370.25933 
L 140.113254 369.977608 
L 139.780232 369.426479 
L 139.527123 369.022131 
L 138.967078 368.172818 
L 138.59443 367.629284 
L 137.946548 366.707159 
L 136.944568 365.580116 
L 135.717597 364.200001 
L 134.496957 362.672756 
L 134.41011 362.550577 
L 134.083362 362.453493 
L 133.658376 361.894604 
L 133.251551 361.376167 
L 132.836801 360.863838 
L 132.414621 360.357784 
L 131.984846 359.858003 
L 131.542027 359.358388 
L 131.091779 358.865542 
L 130.633936 358.37963 
L 130.168828 357.900653 
L 129.696621 357.428776 
L 128.377081 356.147377 
L 127.369975 355.181576 
L 123.684026 351.646801 
L 123.595587 350.277485 
L 123.643033 348.713254 
L 123.838362 347.160542 
L 124.179821 345.633298 
L 124.232342 345.441565 
L 124.719896 343.94551 
L 125.34765 342.502661 
L 126.109902 341.126121 
L 126.999729 339.828394 
L 128.009051 338.621265 
L 129.128699 337.515699 
L 130.348505 336.521735 
L 131.657389 335.648403 
L 133.043466 334.903633 
L 134.494144 334.294189 
L 135.99625 333.825609 
L 137.53614 333.502145 
L 139.099828 333.326738 
L 140.673113 333.300979 
L 141.51099 333.327211 
L 141.59477 332.641969 
L 141.954491 331.041337 
L 142.471284 329.484304 
L 143.637515 326.479006 
L 143.663713 326.411931 
L 143.737733 326.223625 
L 144.198144 324.972362 
L 145.198154 322.255556 
L 145.833315 320.761127 
L 146.612201 319.336318 
L 147.527278 317.994908 
L 148.569695 316.749874 
L 149.72937 315.613256 
L 149.900829 315.475462 
L 148.741203 315.27891 
L 147.219351 314.868515 
L 145.014757 314.159517 
L 142.9326 313.49001 
L 140.824204 312.811698 
L 139.351398 312.25915 
L 137.937861 311.56895 
L 136.596423 310.747361 
L 135.33926 309.801843 
L 134.177783 308.740978 
L 133.122536 307.574394 
L 132.183097 306.312682 
L 131.367993 304.967293 
L 130.947324 304.095108 
L 131.23922 303.329149 
L 131.376425 302.96938 
L 131.802402 301.851272 
L 131.939771 301.490842 
L 132.591121 299.781979 
L 132.72849 299.421549 
L 133.353917 297.780381 
L 134.057606 295.931506 
L 134.704332 294.23288 
L 135.157717 293.04196 
L 135.187271 292.963203 
L 137.983532 285.620707 
L 138.162179 285.151471 
L 138.337523 284.690161 
L 138.761849 283.574529 
L 138.835322 283.381353 
L 139.783535 280.891367 
L 140.11375 280.023727 
L 140.934499 277.867422 
L 141.406707 276.626474 
L 141.617879 276.072043 
L 141.795205 275.60644 
L 141.876933 275.391965 
L 142.203767 274.533665 
L 143.370986 274.073498 
L 144.929433 273.629821 
L 146.523865 273.341044 
L 148.138925 273.209947 
L 149.759058 273.237793 
L 151.368659 273.424315 
L 152.952225 273.767714 
L 154.494505 274.264684 
L 156.156455 274.891795 
L 157.684063 275.558116 
L 159.136715 276.375044 
L 160.499611 277.334254 
L 161.758864 278.425974 
L 161.911921 278.58845 
L 162.634872 278.985603 
L 163.994595 279.920489 
L 165.25421 280.98643 
L 166.401135 282.172778 
L 167.423915 283.467683 
L 168.312335 284.858211 
L 169.057519 286.330474 
L 169.652026 287.869766 
L 170.089917 289.460712 
L 170.366818 291.087422 
L 170.479964 292.733647 
L 170.460405 293.357115 
L 170.47928 293.601304 
L 170.929417 293.256067 
L 172.308337 292.399395 
L 173.764719 291.682278 
L 175.284484 291.111647 
L 176.852941 290.69302 
L 178.454928 290.430443 
L 180.074956 290.326454 
L 181.697366 290.382059 
L 183.306474 290.596721 
L 184.886723 290.968363 
L 187.663752 291.767399 
L 189.196739 292.291186 
L 190.671015 292.962684 
L 192.072389 293.775429 
L 193.387368 294.721595 
L 194.603293 295.792075 
L 195.708459 296.976562 
L 196.692225 298.263654 
L 197.545121 299.640959 
L 198.258936 301.095218 
L 198.826799 302.612431 
L 199.243241 304.17799 
L 199.504254 305.776825 
L 199.607325 307.393544 
L 199.551463 309.012581 
L 199.337204 310.61835 
L 198.966611 312.195392 
L 198.530062 313.714205 
L 198.006477 315.247908 
L 197.335055 316.722893 
L 196.522264 318.124948 
L 195.575936 319.440566 
L 194.874394 320.237607 
L 195.938521 320.727518 
L 197.405805 321.494422 
L 198.788908 322.404416 
L 199.452837 322.943788 
L 200.077786 323.060875 
L 201.634565 323.514365 
L 203.139355 324.118371 
L 212.455596 328.400324 
L 213.895865 329.150181 
L 215.255512 330.037886 
L 216.521386 331.054853 
L 217.681244 332.191246 
L 218.723868 333.436073 
L 219.539817 334.631706 
L 219.60816 334.202264 
L 220.018828 332.633705 
L 220.581368 331.11299 
L 221.290357 329.654786 
L 222.138956 328.273155 
L 223.048837 327.073877 
L 222.945675 326.297711 
L 222.809526 324.629264 
L 222.84302 322.955606 
L 223.045813 321.293941 
L 223.415819 319.661352 
L 223.949236 318.074619 
L 224.640581 316.550055 
L 225.482746 315.10333 
L 226.467074 313.749317 
L 227.583448 312.501935 
L 228.82039 311.374004 
L 230.165187 310.377122 
L 231.604014 309.521533 
L 233.12208 308.816035 
L 234.703781 308.267879 
L 237.567843 307.43533 
L 237.733091 307.396139 
L 237.880206 306.438415 
L 238.267926 304.907779 
L 238.606125 303.963012 
L 238.344199 303.056686 
L 237.29513 299.426346 
L 236.920931 297.842495 
L 236.704479 296.229499 
L 236.647877 294.603029 
L 236.751676 292.978888 
L 237.014867 291.372856 
L 237.016574 291.366462 
L 237.136214 290.291277 
L 237.423226 288.866966 
L 237.834343 287.473403 
L 238.366384 286.121378 
L 238.531629 285.750269 
L 239.188786 284.4353 
L 239.960301 283.183995 
L 240.840057 282.006273 
L 241.002566 281.807805 
L 241.994604 280.701771 
L 243.082053 279.689396 
L 244.256108 278.778876 
L 245.507261 277.977584 
L 246.825381 277.292011 
L 247.380473 277.034336 
L 248.740819 276.475087 
L 250.145538 276.03912 
L 251.583481 275.729894 
L 253.043237 275.549863 
L 254.513223 275.500456 
L 255.158815 275.50753 
L 255.771123 275.544473 
L 257.269986 275.222988 
L 258.911562 275.039689 
L 259.175379 275.023534 
L 259.438577 275.019558 
L 260.323358 274.883063 
L 261.817533 274.789766 
L 263.314016 274.832196 
L 263.599423 274.853268 
L 265.029767 275.021859 
L 266.439976 275.31446 
L 267.819321 275.728845 
L 267.861903 275.743691 
L 267.92341 275.739008 
L 269.560658 275.695819 
L 271.19413 275.815052 
L 272.807752 276.095535 
L 274.385646 276.534507 
L 275.912286 277.12765 
L 277.372649 277.869126 
L 278.752365 278.751639 
L 280.037858 279.766506 
L 281.216479 280.903739 
L 282.276629 282.152149 
L 283.207878 283.499452 
L 284.00106 284.932389 
L 284.648372 286.43686 
L 284.832372 287.017102 
L 286.339343 287.152274 
L 287.937001 287.456222 
L 289.497006 287.915875 
L 291.004223 288.526771 
L 292.444027 289.282986 
L 293.80245 290.177181 
L 295.066311 291.20068 
L 296.223348 292.343555 
L 297.262336 293.594715 
L 298.173193 294.942022 
L 298.947083 296.372403 
L 299.576496 297.871982 
L 300.055326 299.426208 
L 300.378927 301.020002 
L 300.457675 301.791076 
L 301.575392 300.992859 
L 302.980827 300.184566 
L 304.458761 299.518012 
L 305.994944 298.999624 
L 307.574562 298.6344 
L 309.182385 298.425863 
L 310.960287 298.283569 
L 312.578688 298.23369 
L 314.194192 298.342572 
L 315.791263 298.609168 
L 317.354541 299.030915 
L 318.868992 299.603756 
L 320.320051 300.322183 
L 321.693763 301.179285 
L 322.976916 302.166821 
L 324.157171 303.275292 
L 325.223175 304.494039 
L 326.164678 305.811339 
L 326.715223 306.767487 
L 327.623545 306.620174 
L 327.739484 306.601323 
L 327.83304 306.586385 
L 328.298322 306.513468 
L 330.347369 306.185268 
L 329.961098 305.36649 
L 329.421941 303.861116 
L 329.030931 302.310647 
L 328.791738 300.729626 
L 328.737423 300.197452 
L 328.694239 299.699967 
L 328.66679 299.316523 
L 328.594312 299.129683 
L 328.164086 297.596368 
L 327.883583 296.028737 
L 327.755413 294.441374 
L 327.780769 292.849047 
L 327.959415 291.26657 
L 328.289689 289.708665 
L 328.768517 288.189826 
L 329.391446 286.724183 
L 330.15268 285.325373 
L 330.364456 284.977328 
L 331.277212 283.631333 
L 332.317959 282.381663 
L 333.476599 281.240444 
L 334.741891 280.218748 
L 336.10156 279.326486 
L 337.542412 278.572316 
L 337.550702 278.56897 
L 337.898968 278.01588 
L 338.949832 276.676099 
L 340.133094 275.451674 
L 341.43617 274.355627 
L 342.8452 273.399614 
L 344.345199 272.593805 
L 345.106558 272.234087 
L 346.551573 271.633385 
L 348.046969 271.172187 
L 349.579312 270.854635 
L 351.134836 270.683584 
L 352.699567 270.660568 
L 354.259449 270.785796 
L 355.800468 271.058142 
L 357.308782 271.475159 
L 358.77084 272.033101 
L 360.173508 272.726957 
L 361.504185 273.550492 
L 362.750918 274.496309 
L 363.902507 275.555911 
L 364.948606 276.71978 
L 365.177795 277.000461 
L 366.164351 278.341353 
L 367.010867 279.774774 
L 367.708737 281.286151 
L 368.250867 282.86012 
L 368.631747 284.48068 
L 368.698701 284.847781 
L 368.909622 286.439139 
L 368.965006 288.043458 
L 368.864332 289.645573 
L 368.608551 291.230339 
L 368.495417 291.660317 
L 368.994396 292.640139 
L 369.590453 294.169892 
L 370.031638 295.751278 
L 370.313588 297.368663 
L 370.433515 299.006053 
L 370.390235 300.647258 
L 370.184174 302.276051 
L 369.81737 303.876327 
L 369.29345 305.432263 
L 368.617594 306.928474 
L 367.796485 308.350166 
L 366.838242 309.683282 
L 365.75234 310.914641 
L 364.647775 311.940783 
L 365.187271 311.868317 
L 366.790018 311.810035 
L 368.390858 311.907531 
L 369.974687 312.159885 
L 371.526559 312.564715 
L 373.031832 313.118201 
L 374.476303 313.815122 
L 378.872922 316.206266 
L 379.008067 315.881303 
L 379.774552 314.452441 
L 380.677495 313.105652 
L 381.708187 311.853926 
L 382.856689 310.709335 
L 384.111923 309.682918 
L 385.461783 308.784573 
L 386.89325 308.022966 
L 388.39252 307.405442 
L 389.945131 306.937956 
L 391.53611 306.625016 
L 393.150112 306.469642 
L 394.771572 306.473332 
L 396.384851 306.636049 
L 397.974389 306.956226 
L 399.524857 307.430773 
L 401.0213 308.055114 
L 408.18038 311.463878 
L 408.427184 311.583919 
L 425.403858 320.016258 
L 425.458545 320.043547 
L 437.420719 326.040482 
L 437.657193 326.161422 
L 438.640812 326.674498 
L 438.687001 326.624304 
L 439.838901 325.587176 
L 441.082981 324.662637 
L 442.408278 323.858836 
L 443.803111 323.182857 
L 445.255187 322.640656 
L 446.751709 322.237013 
L 447.821995 322.001612 
L 449.393069 321.734809 
L 450.982546 321.620706 
L 452.575619 321.660368 
L 454.157449 321.853424 
L 455.7133 322.198077 
L 457.228677 322.691115 
L 458.689466 323.327946 
L 461.552884 324.744434 
L 462.706857 324.37497 
L 464.326652 324.030547 
L 465.972801 323.850116 
L 467.628745 323.835491 
L 469.277824 323.98682 
L 470.90345 324.30258 
L 472.489268 324.779595 
L 474.019326 325.413066 
L 474.423577 325.604716 
L 474.963202 325.859988 
L 474.981626 325.868718 
L 475.923609 326.315753 
L 477.362201 327.087816 
L 478.717508 327.998187 
L 479.976275 329.037963 
L 481.126195 330.196977 
L 482.156024 331.463896 
L 483.05569 332.826332 
L 483.816398 334.270961 
L 484.254804 335.350508 
L 484.88959 335.787428 
L 486.15767 336.86333 
L 487.311088 338.061336 
L 488.338142 339.369293 
L 489.228412 340.773931 
L 489.972867 342.261001 
L 490.563954 343.815417 
L 490.995677 345.421407 
L 491.263656 347.062681 
L 491.365171 348.722586 
L 491.299194 350.384284 
L 491.066393 352.030915 
L 490.669131 353.645775 
L 490.111437 355.212481 
L 489.398969 356.715139 
L 487.878716 359.543978 
L 488.723312 360.189427 
L 489.910601 361.297585 
L 490.983273 362.517029 
L 491.930949 363.835961 
L 492.74446 365.241617 
L 493.415934 366.720397 
L 493.938875 368.257993 
L 494.308223 369.839528 
L 494.520403 371.449699 
L 494.573362 373.072925 
L 494.505389 377.170309 
L 494.399375 378.7843 
L 494.135947 380.380173 
L 493.717631 381.942612 
L 493.148442 383.456623 
L 492.433843 384.907675 
L 491.580692 386.281843 
L 490.597177 387.565939 
L 489.492736 388.747639 
L 488.277969 389.815603 
L 486.964535 390.759581 
L 485.565037 391.570513 
L 484.092908 392.240618 
L 482.562275 392.763464 
L 480.987828 393.134032 
L 479.384677 393.348768 
L 477.768208 393.405611 
L 477.430284 393.400929 
L 477.855119 394.00747 
L 478.668209 395.460711 
L 479.33078 396.988462 
L 479.836091 398.575184 
L 480.179002 400.204736 
L 480.356025 401.86054 
L 480.365359 403.525755 
L 480.206908 405.18344 
L 479.882286 406.816733 
L 479.394794 408.40902 
L 478.749391 409.944103 
L 474.449453 418.881034 
L 473.670926 420.313463 
L 472.754925 421.662129 
L 471.71038 422.913881 
L 470.547476 424.056515 
L 469.277551 425.07889 
L 467.912988 425.971036 
L 466.467091 426.724257 
L 465.559339 427.088376 
L 466.365607 427.373917 
L 467.800774 428.043115 
L 469.165232 428.846722 
L 470.446431 429.777345 
L 471.632586 430.826424 
L 472.712786 431.984309 
L 474.333404 433.897753 
L 475.312657 435.175358 
L 476.162842 436.542251 
L 476.87588 437.985438 
L 477.444992 439.491201 
L 477.864768 441.045228 
L 478.131219 442.632746 
L 478.195279 443.562968 
L 478.447682 444.87094 
L 478.558987 446.113596 
L 479.417979 447.044971 
L 479.709314 447.43141 
L 479.941989 446.118743 
L 480.380341 444.557331 
L 480.969765 443.046456 
L 481.56296 441.722019 
L 482.296465 440.278539 
L 483.167829 438.913847 
L 484.168673 437.641065 
L 485.289372 436.472435 
L 486.519148 435.419196 
L 487.189026 434.950886 
L 486.310648 434.100026 
L 485.259633 432.859245 
L 484.335768 431.521095 
L 483.548013 430.098558 
L 482.904011 428.60543 
L 482.410006 427.056195 
L 482.070791 425.46588 
L 481.889656 423.849909 
L 481.868359 422.223959 
L 482.007105 420.603798 
L 482.304549 419.005143 
L 482.757805 417.443501 
L 483.362478 415.934017 
L 484.546166 413.354895 
L 485.298071 411.909338 
L 486.188799 410.544933 
L 487.209677 409.27497 
L 488.350761 408.111816 
L 489.600938 407.066802 
L 490.948032 406.150104 
L 492.378923 405.37065 
L 493.879676 404.736032 
L 495.435673 404.25243 
L 497.031761 403.924555 
L 498.652394 403.7556 
L 500.281789 403.74721 
L 501.904076 403.899467 
L 503.503456 404.210888 
L 505.06435 404.67844 
L 506.571559 405.29757 
L 509.621319 406.730091 
L 509.841127 406.070684 
L 510.502088 404.590522 
L 511.567545 402.488282 
L 512.370136 401.08059 
L 513.306852 399.758351 
L 514.368668 398.534301 
L 515.545358 397.420232 
L 516.825587 396.426872 
L 518.197025 395.563791 
L 519.646462 394.839301 
L 521.159935 394.260382 
L 522.428959 393.913051 
L 522.528758 393.736598 
L 523.459424 392.412855 
L 524.515199 391.186571 
L 525.685943 390.069524 
L 526.96041 389.072445 
L 528.32636 388.20491 
L 529.770671 387.475252 
L 531.27947 386.89048 
L 532.838266 386.45621 
L 534.432086 386.176615 
L 536.04562 386.054379 
L 537.663371 386.090677 
L 539.269799 386.285159 
L 540.849474 386.635959 
L 542.387224 387.139705 
L 543.868277 387.791561 
L 547.565793 389.640277 
L 548.979532 390.436251 
L 550.308323 391.367134 
L 551.539338 392.423937 
L 552.660689 393.596458 
L 553.661548 394.873372 
L 554.532252 396.242352 
L 555.224168 397.610633 
L 554.106646 399.984059 
M 292.897231 324.249292 
L 293.530359 325.745194 
L 294.01343 327.29607 
L 294.34177 328.886909 
L 294.512199 330.502312 
L 294.583538 331.777123 
L 294.594632 333.396152 
L 294.4471 335.008483 
L 294.14236 336.598612 
L 293.683342 338.151248 
L 293.074461 339.651461 
L 292.321571 341.084826 
L 291.431913 342.437558 
L 291.131799 342.808795 
L 292.497019 343.188453 
L 294.005497 343.772227 
L 295.449616 344.500802 
L 296.815514 345.367187 
L 298.090083 346.363065 
L 299.261091 347.478879 
L 300.317298 348.70392 
L 300.342209 348.739297 
L 300.839246 348.512319 
L 302.367346 347.988062 
L 303.939367 347.615655 
L 305.540257 347.398665 
L 314.224591 346.651895 
L 313.257703 346.1692 
L 311.886083 345.306984 
L 310.605568 344.314492 
L 309.428489 343.201279 
L 308.366178 341.978065 
L 307.428865 340.656626 
L 306.625573 339.249686 
L 305.964038 337.770791 
L 305.450628 336.234182 
L 305.090288 334.654652 
L 304.886487 333.047411 
L 304.805852 332.00291 
L 304.055415 331.719662 
L 302.60285 331.001634 
L 301.227661 330.144684 
L 299.943093 329.157063 
L 298.761518 328.048285 
L 297.694316 326.829028 
L 296.751765 325.511035 
L 295.942944 324.106999 
L 295.275641 322.630444 
L 294.762157 321.112946 
L 294.136986 321.625468 
L 292.783242 322.528186 
L 292.497317 322.680521 
L 292.280481 323.11712 
L 292.897231 324.249292 
M 297.405946 408.725277 
L 296.839731 410.244304 
L 296.127277 411.700481 
L 295.275454 413.07977 
L 294.292473 414.368875 
L 293.24597 415.492901 
L 294.092559 415.445921 
L 295.705547 415.514326 
L 297.304143 415.739936 
L 298.873062 416.120592 
L 300.397305 416.652655 
L 301.862298 417.331039 
L 303.254033 418.149256 
L 304.559205 419.099485 
L 305.344488 419.79819 
L 306.720534 419.274736 
L 308.260741 418.773824 
L 308.718898 418.67315 
L 307.958042 417.688094 
L 307.118817 416.35635 
L 306.410229 414.950737 
L 305.838718 413.484034 
L 305.40948 411.969572 
L 305.208909 411.107111 
L 304.925427 409.555537 
L 304.79129 407.983993 
L 304.807722 406.40682 
L 304.974574 404.838412 
L 305.290321 403.293081 
L 305.752084 401.78493 
L 306.053297 400.946497 
L 306.77478 399.244361 
L 307.216323 398.460411 
L 307.241382 398.030847 
L 306.411227 397.972804 
L 306.173735 397.932566 
L 305.321432 398.525774 
L 303.91705 399.312272 
L 302.442758 399.958284 
L 300.912567 400.457669 
L 299.341021 400.805682 
L 298.005879 400.967217 
L 298.121412 402.319653 
L 298.179931 403.93972 
L 298.079292 405.557717 
L 297.820466 407.158045 
L 297.405946 408.725277 
M 238.466032 357.287614 
L 238.349554 357.303562 
L 238.460048 357.348679 
L 238.466032 357.287614 
M 373.328268 362.94313 
L 372.272935 363.406199 
L 373.358315 363.632159 
L 374.604439 364.025375 
L 374.56182 363.898175 
L 374.183505 363.645217 
L 373.328268 362.94313 
M 405.17888 379.21628 
L 406.041231 380.734502 
L 406.172212 380.996458 
L 406.68472 382.141771 
L 411.518412 373.397619 
L 412.387614 371.995571 
L 412.596137 371.724051 
L 413.120487 370.666241 
L 414.062293 368.977072 
L 413.942438 368.994043 
L 413.372829 369.018806 
L 401.371371 374.191046 
L 401.610315 374.417459 
L 402.671556 375.641838 
L 403.607677 376.96434 
L 403.943137 377.553242 
L 404.161022 377.797615 
L 405.17888 379.21628 
M 361.626711 364.033207 
L 360.51694 363.701883 
L 358.983002 363.070194 
L 357.50399 362.372272 
L 356.102596 361.626595 
L 354.77929 360.749782 
L 353.546305 359.74994 
L 352.415037 358.63631 
L 351.395944 357.419188 
L 350.498447 356.109822 
L 349.730842 354.720319 
L 349.100225 353.263521 
L 348.612424 351.752896 
L 348.27195 350.202407 
L 348.081949 348.626388 
L 348.044178 347.039406 
L 348.158986 345.456132 
L 348.343432 344.372326 
L 347.079274 345.092433 
L 345.607181 345.750011 
L 344.07797 346.260874 
L 342.506223 346.620151 
L 340.906929 346.824415 
L 340.221382 346.878127 
L 340.43648 346.959408 
L 341.880289 347.672703 
L 343.247741 348.523262 
L 344.525827 349.502993 
L 345.702388 350.602574 
L 346.766232 351.811546 
L 347.707236 353.118407 
L 348.516451 354.510725 
L 349.186176 355.975254 
L 349.710041 357.498061 
L 350.083062 359.064659 
L 350.30169 360.660146 
L 350.363846 362.269342 
L 350.268938 363.876939 
L 350.017869 365.467643 
L 349.613028 367.026322 
L 349.273878 368.111522 
L 349.012863 369.574204 
L 348.896461 370.164167 
L 348.485725 372.063132 
L 348.463953 372.430945 
L 348.399053 373.001407 
L 349.322717 372.542512 
L 349.60313 372.436775 
L 349.848013 371.97042 
L 350.747525 370.605193 
L 351.777648 369.33562 
L 352.928281 368.174151 
L 354.188144 367.132174 
L 355.544881 366.219906 
L 356.98519 365.446292 
L 358.494948 364.818918 
L 360.059352 364.343935 
L 361.626711 364.033207 
M 567.50984 425.875644 
L 567.306077 426.294697 
L 567.903755 425.68212 
L 569.109911 424.662065 
L 570.408028 423.761944 
L 571.786223 422.989998 
L 573.231882 422.353293 
L 574.532694 421.923441 
L 574.359271 421.790231 
L 573.166313 420.669546 
L 572.09018 419.436249 
L 571.141447 418.102461 
L 570.329438 416.68129 
L 570.255217 416.515055 
L 570.160341 417.617622 
L 570.048211 418.434565 
L 569.784394 419.877484 
L 569.393553 421.291294 
L 568.878774 422.664836 
L 567.50984 425.875644 
M 525.012085 460.710029 
L 525.486134 459.220176 
L 525.167026 458.90347 
L 523.748973 457.356574 
L 522.69418 456.083442 
L 521.772 454.711204 
L 520.991682 453.253618 
L 520.361049 451.7253 
L 519.886426 450.141574 
L 519.57257 448.518322 
L 519.42263 446.871819 
L 519.423198 446.811066 
L 518.984009 446.72409 
L 517.907678 446.398728 
L 516.657311 446.219928 
L 515.994367 446.057599 
L 516.24738 447.20642 
L 516.439147 448.817709 
L 516.471824 450.44004 
L 516.345094 452.057744 
L 516.060182 453.655195 
L 515.61984 455.216965 
L 515.028321 456.727968 
L 514.546261 457.800816 
L 518.164251 459.51196 
L 519.605164 460.282909 
L 520.962806 461.192525 
L 522.223877 462.231898 
L 523.376022 463.390844 
L 524.407954 464.65801 
L 524.47551 464.760135 
L 524.495401 463.820466 
L 524.679323 462.252885 
L 525.012085 460.710029 
M 591.010515 425.821919 
L 591.901877 426.654907 
L 592.997074 427.90761 
L 593.960623 429.264185 
L 594.782737 430.710854 
L 594.787523 430.721687 
L 595.554043 430.598676 
L 597.107453 430.424329 
L 598.205019 430.405607 
L 597.409354 429.899851 
L 596.134091 428.997399 
L 594.866284 428.00398 
L 593.701304 426.891759 
L 592.650238 425.671318 
L 592.430193 425.358737 
L 591.076 425.807081 
L 591.010515 425.821919 
" clip-path="url(#peec3b4f258)" style="fill: #ff0000; fill-opacity: 0.7; stroke: #000000; stroke-opacity: 0.7; stroke-width: 0.5"/>
    <path d="M 472.331554 271.181393 
L 474.41323 273.969729 
L 479.655393 280.892688 
L 482.69106 284.901168 
L 483.073119 284.607937 
L 487.972355 290.981418 
L 487.91176 291.305359 
L 488.331299 291.779382 
L 489.988648 293.651372 
L 490.740382 293.211195 
L 491.148033 292.96634 
L 491.49641 292.757149 
L 500.864941 287.142172 
L 503.673915 285.458736 
L 506.18388 283.954607 
L 512.043876 280.440623 
L 514.020213 284.947398 
L 516.017024 289.498917 
L 520.485494 299.686052 
L 522.857428 305.093488 
L 527.259195 315.140611 
L 527.377247 315.410067 
L 528.591448 318.182057 
L 529.266242 318.581452 
L 530.042375 319.040659 
L 530.755017 319.462301 
L 531.791397 320.07551 
L 539.341103 324.417508 
L 540.451121 325.055979 
L 540.800324 325.256749 
L 541.929494 325.906282 
L 543.60517 326.869354 
L 543.974351 327.081518 
L 544.050795 327.125436 
L 544.722453 327.511788 
L 545.175178 327.772162 
L 546.170611 328.34459 
L 547.866926 329.320541 
L 548.179474 329.500343 
L 548.28052 329.558461 
L 548.946729 329.941675 
L 550.881954 331.05417 
L 553.503036 332.561767 
L 556.842666 334.480976 
L 558.317406 331.770076 
L 559.782901 328.993463 
L 560.733077 327.24021 
L 560.860488 327.424532 
L 561.648024 328.844251 
L 562.292319 330.33445 
L 562.787143 331.880724 
L 563.127713 333.468119 
L 563.310735 335.081288 
L 563.332957 336.603141 
L 563.981681 337.469786 
L 564.800539 338.813761 
L 565.487716 340.229595 
L 566.036969 341.704424 
L 566.443308 343.224847 
L 566.703041 344.777051 
L 566.813808 346.346933 
L 566.774602 347.920229 
L 566.585781 349.482646 
L 566.249059 351.019986 
L 565.767495 352.518284 
L 565.145466 353.963925 
L 564.388622 355.343774 
L 563.560648 356.696158 
L 562.620652 358.07069 
L 561.546983 359.343547 
L 560.350563 360.501782 
L 559.043561 361.533614 
L 557.639272 362.428546 
L 556.15198 363.177476 
L 554.596815 363.772784 
L 552.989596 364.208417 
L 551.34667 364.479942 
L 549.68475 364.584597 
L 548.020741 364.521319 
L 546.371569 364.29075 
L 544.754009 363.895237 
L 543.184515 363.338801 
L 541.679052 362.627104 
L 539.284464 361.343531 
L 539.12615 361.257555 
L 537.338242 360.273919 
L 536.066997 359.488806 
L 535.292775 359.154855 
L 525.724392 354.439545 
L 524.3024 353.649445 
L 522.965063 352.723245 
L 521.725361 351.669936 
L 520.595329 350.499745 
L 519.585937 349.224031 
L 518.706984 347.855177 
L 517.967002 346.406472 
L 517.373175 344.89198 
L 516.931267 343.326401 
L 516.645568 341.724934 
L 516.637587 341.622778 
L 516.084321 340.662169 
L 515.43244 339.230307 
L 514.919801 337.7429 
L 514.551061 336.213452 
L 514.329566 334.655852 
L 514.257329 333.084242 
L 514.335004 331.51289 
L 514.561887 329.956066 
L 514.935917 328.427904 
L 515.453699 326.942279 
L 516.110531 325.512682 
L 517.382918 323.058769 
L 518.241916 321.322741 
L 519.015144 319.932799 
L 519.555432 319.14987 
L 518.335654 319.406476 
L 517.031185 319.550451 
L 516.868334 320.838326 
L 516.508506 322.418086 
L 515.995575 323.954971 
L 515.334478 325.434183 
L 514.531582 326.841476 
L 513.594619 328.163299 
L 512.532611 329.386923 
L 511.355786 330.500565 
L 510.075476 331.4935 
L 508.704009 332.356168 
L 507.254593 333.08026 
L 505.741185 333.658804 
L 504.17836 334.086229 
L 502.581166 334.358418 
L 500.964984 334.472751 
L 498.730673 334.520885 
L 497.117673 334.476766 
L 495.516682 334.275407 
L 493.942992 333.918731 
L 492.411635 333.410145 
L 490.937235 332.754506 
L 489.533876 331.958077 
L 488.214961 331.028463 
L 486.993088 329.974545 
L 485.879927 328.806389 
L 484.88611 327.535152 
L 484.02113 326.172975 
L 483.948677 326.029628 
L 482.345021 326.062611 
L 480.540008 325.901083 
L 478.763571 325.542708 
L 477.03711 324.991803 
L 476.202177 324.673915 
L 474.727537 324.028504 
L 473.322754 323.242564 
L 472.00118 322.323564 
L 470.775377 321.280239 
L 469.656996 320.122507 
L 468.656668 318.861372 
L 467.783901 317.50882 
L 467.04699 316.077708 
L 466.45294 314.581639 
L 466.007397 313.034832 
L 465.714597 311.451991 
L 465.577321 309.84816 
L 465.596876 308.238583 
L 465.773075 306.638561 
L 466.104243 305.0633 
L 466.587233 303.527774 
L 467.217453 302.046578 
L 467.988914 300.633792 
L 468.894283 299.302842 
L 469.098697 299.031765 
L 469.459582 298.554047 
L 470.491689 297.318095 
L 471.63928 296.188558 
L 472.891443 295.176179 
L 474.236265 294.290588 
L 475.660958 293.540207 
L 476.036633 293.387007 
L 476.162608 291.89185 
L 476.46343 290.273561 
L 476.923889 288.693267 
L 477.539408 287.166673 
L 478.303871 285.708953 
L 479.13913 284.441636 
L 479.05659 284.096208 
L 479.014762 283.79174 
L 472.387385 273.430119 
L 471.593488 272.045761 
L 470.936947 270.591225 
L 470.423897 269.080099 
L 470.321703 268.644839 
L 472.331554 271.181393 
" clip-path="url(#peec3b4f258)" style="fill: #ff0000; fill-opacity: 0.7; stroke: #000000; stroke-opacity: 0.7; stroke-width: 0.5"/>
    <path d="M 450.350459 263.480943 
L 451.372697 262.25749 
L 451.665289 262.305337 
L 453.229247 262.721639 
L 454.744934 263.289059 
L 456.197787 264.002145 
L 457.573846 264.854046 
L 458.85989 265.836576 
L 460.043561 266.940295 
L 461.113487 268.154598 
L 462.059388 269.467818 
L 462.872174 270.867336 
L 463.544037 272.339706 
L 468.966258 285.952257 
L 468.981932 285.991755 
L 469.085982 286.254943 
L 469.606786 287.788279 
L 469.974877 289.365259 
L 470.186713 290.970713 
L 470.240258 292.589197 
L 470.134996 294.205142 
L 469.87194 295.803002 
L 469.453619 297.367408 
L 468.884059 298.88331 
L 468.168738 300.336126 
L 467.314538 301.711879 
L 466.329675 302.997337 
L 465.223623 304.180133 
L 464.007022 305.24889 
L 462.691576 306.193325 
L 461.289939 307.004355 
L 459.815593 307.674177 
L 450.639884 311.311222 
L 449.107944 311.833126 
L 447.532268 312.20254 
L 445.927995 312.415917 
L 444.310538 312.471204 
L 443.994414 312.450979 
L 443.783415 312.488781 
L 442.118531 312.615733 
L 440.449338 312.573883 
L 438.792908 312.363659 
L 437.16618 311.987211 
L 435.585792 311.448389 
L 434.067906 310.752703 
L 432.628046 309.907269 
L 431.280937 308.920732 
L 430.040357 307.803183 
L 428.918993 306.56605 
L 427.928313 305.221986 
L 427.078449 303.784736 
L 426.378093 302.268999 
L 426.263848 301.984825 
L 425.00723 301.023649 
L 423.824148 299.91922 
L 422.754881 298.704265 
L 421.809705 297.390458 
L 420.997702 295.990423 
L 420.326673 294.517613 
L 418.881295 290.882804 
L 418.356682 289.347874 
L 417.985219 287.768872 
L 417.770492 286.161041 
L 417.714572 284.539898 
L 417.817999 282.921093 
L 418.079776 281.320248 
L 418.497375 279.752817 
L 419.066766 278.233928 
L 419.782453 276.778242 
L 420.637528 275.399809 
L 421.623738 274.111934 
L 422.731562 272.927049 
L 423.060471 272.63816 
L 423.9751 271.469046 
L 425.094272 270.296442 
L 426.323034 269.239233 
L 427.649543 268.307609 
L 429.061012 267.51055 
L 430.543837 266.855739 
L 432.036322 266.282457 
L 433.574714 265.776617 
L 435.155262 265.423918 
L 436.748145 265.229538 
L 442.123421 263.099731 
L 443.655446 262.578028 
L 445.231187 262.208822 
L 446.835506 261.995663 
L 448.452985 261.940596 
L 448.985753 261.974756 
L 450.350459 263.480943 
" clip-path="url(#peec3b4f258)" style="fill: #ff0000; fill-opacity: 0.7; stroke: #000000; stroke-opacity: 0.7; stroke-width: 0.5"/>
    <path d="M 384.548671 256.06712 
L 387.043281 255.854627 
L 387.295235 256.237511 
L 391.877629 256.6128 
L 392.177629 256.637401 
L 393.288638 254.382858 
L 393.504764 253.944333 
L 393.572127 253.807789 
L 394.823147 251.178782 
L 394.984622 250.83899 
L 396.526561 247.598755 
L 396.529038 247.593141 
L 396.916876 246.778336 
L 397.618913 245.303265 
L 397.715335 245.100608 
L 397.759686 245.122571 
L 397.849347 245.103046 
L 399.423159 244.915843 
L 401.00767 244.880402 
L 402.588278 244.997051 
L 403.041965 245.074787 
L 403.632497 245.054658 
L 405.244049 245.157569 
L 406.83784 245.417416 
L 408.398624 245.831716 
L 409.911471 246.396503 
L 411.361909 247.106376 
L 412.298856 247.623195 
L 412.538655 247.758086 
L 413.19841 248.136479 
L 414.58646 249.027558 
L 415.878673 250.052685 
L 417.062154 251.20163 
L 418.12509 252.462926 
L 419.056874 253.823984 
L 419.848205 255.271222 
L 420.491187 256.790194 
L 420.979401 258.365741 
L 421.307975 259.982138 
L 421.47363 261.623254 
L 421.474712 263.272708 
L 421.311211 264.914039 
L 420.984759 266.530867 
L 420.498614 268.107053 
L 419.857627 269.626868 
L 417.495732 274.527753 
L 416.612419 276.127641 
L 415.80167 277.421284 
L 412.350341 284.791599 
L 411.582754 286.239089 
L 410.675483 287.603376 
L 409.637463 288.871025 
L 408.478916 290.029553 
L 407.21125 291.067552 
L 405.846948 291.9748 
L 404.399445 292.742364 
L 402.882994 293.362684 
L 401.31253 293.829653 
L 399.703516 294.138672 
L 398.071796 294.286698 
L 396.43344 294.272273 
L 394.80458 294.09554 
L 393.201257 293.758239 
L 391.639258 293.26369 
L 390.133964 292.616766 
L 388.162131 291.650756 
L 384.41265 289.811801 
L 382.99865 289.030254 
L 381.667805 288.114252 
L 380.432856 287.072565 
L 379.305629 285.915167 
L 378.296917 284.65314 
L 377.416379 283.298569 
L 376.672445 281.864424 
L 376.072239 280.364436 
L 375.621509 278.812969 
L 375.324568 277.224876 
L 375.193407 275.720269 
L 374.924856 275.405154 
L 373.983855 274.046188 
L 373.18345 272.599943 
L 372.531665 271.080914 
L 372.035032 269.504327 
L 371.698528 267.885983 
L 371.525527 266.242103 
L 371.517761 264.589163 
L 371.67531 262.943729 
L 371.996594 261.322295 
L 372.478392 259.741112 
L 373.115876 258.216026 
L 373.711566 256.970167 
L 384.548671 256.06712 
" clip-path="url(#peec3b4f258)" style="fill: #ff0000; fill-opacity: 0.7; stroke: #000000; stroke-opacity: 0.7; stroke-width: 0.5"/>
    <path d="M 146.884149 262.238674 
L 147.092019 261.692829 
L 147.276279 261.208734 
L 147.354375 261.003505 
L 148.17628 258.844889 
L 148.193033 258.800889 
L 147.905889 259.953261 
L 147.354978 261.494187 
L 146.654234 262.973008 
L 146.518953 263.19784 
L 146.884149 262.238674 
" clip-path="url(#peec3b4f258)" style="fill: #ff0000; fill-opacity: 0.7; stroke: #000000; stroke-opacity: 0.7; stroke-width: 0.5"/>
    <path d="M 229.825088 422.08868 
L 228.610227 421.663694 
L 227.388432 421.25951 
L 226.159867 420.876131 
L 224.924862 420.51372 
L 223.684079 420.172442 
L 222.437517 419.852299 
L 221.185672 419.553454 
L 219.929039 419.275908 
L 218.667782 419.019827 
L 217.402233 418.785209 
L 216.133052 418.57222 
L 214.860403 418.380861 
L 213.584617 418.21113 
L 212.613785 418.414212 
L 211.000609 418.482999 
L 209.794904 418.534411 
L 208.693307 418.51889 
L 207.591709 418.51856 
L 206.490112 418.53309 
L 205.388845 418.562809 
L 204.288238 418.607388 
L 203.188126 418.667157 
L 202.727476 418.678384 
L 202.270294 418.736998 
L 201.337766 418.862149 
L 200.403093 418.970955 
L 199.466768 419.06358 
L 198.528792 419.139695 
L 197.589826 419.199464 
L 196.649868 419.242722 
L 195.709416 419.269634 
L 194.768468 419.280201 
L 193.885473 419.0862 
L 190.173691 419.293575 
L 189.329166 419.276074 
L 188.485301 419.236778 
L 187.642758 419.175688 
L 187.461829 419.157922 
L 187.682021 418.797214 
L 188.648474 417.513728 
L 189.735099 416.330253 
L 190.931606 415.257995 
L 192.226667 414.307109 
L 193.608017 413.486599 
L 195.062577 412.804233 
L 195.937005 412.493643 
L 197.056622 411.926206 
L 198.567442 411.338713 
L 200.12859 410.902206 
L 201.725019 410.62089 
L 203.341341 410.497479 
L 209.985614 410.317406 
L 211.617019 410.35386 
L 213.236858 410.551176 
L 214.829308 410.907426 
L 216.378814 411.419132 
L 217.87024 412.081294 
L 219.289019 412.887445 
L 220.621291 413.82971 
L 221.854043 414.898885 
L 222.975233 416.084525 
L 223.973909 417.375051 
L 224.840317 418.757856 
L 224.982179 419.043578 
L 226.146461 419.44261 
L 227.624412 420.117998 
L 229.028817 420.935396 
L 230.34607 421.886887 
L 231.155489 422.602571 
L 229.825088 422.08868 
" clip-path="url(#peec3b4f258)" style="fill: #ff0000; fill-opacity: 0.7; stroke: #000000; stroke-opacity: 0.7; stroke-width: 0.5"/>
    <path d="M 551.713271 494.200382 
L 550.858839 494.159436 
L 549.34728 494.038247 
L 548.551296 493.957014 
L 547.09059 493.769122 
L 545.748596 493.578422 
L 544.300273 493.341328 
L 542.925092 493.082274 
L 541.790308 492.854426 
L 541.017605 492.686181 
L 540.493224 492.564002 
L 537.024149 491.717 
L 536.158491 491.489317 
L 535.547593 491.312652 
L 534.945446 491.116174 
L 530.298875 489.541789 
L 530.846089 489.349455 
L 532.41937 488.964687 
L 535.374378 488.393967 
L 536.957812 488.167067 
L 538.555771 488.094459 
L 540.153257 488.176825 
L 541.735275 488.413391 
L 543.286976 488.801938 
L 544.126735 489.101144 
L 544.611998 489.229252 
L 546.114804 489.786739 
L 547.55647 490.487319 
L 548.92341 491.324392 
L 550.202741 492.290067 
L 551.382405 493.375244 
L 552.134111 494.21526 
L 551.713271 494.200382 
" clip-path="url(#peec3b4f258)" style="fill: #ff0000; fill-opacity: 0.7; stroke: #000000; stroke-opacity: 0.7; stroke-width: 0.5"/>
   </g>
   <g id="matplotlib.axis_1">
    <g id="xtick_1">
     <g id="line2d_1">
      <defs>
       <path id="maed1a0caec" d="M 0 0 
L 0 3.5 
" style="stroke: #000000; stroke-width: 0.8"/>
      </defs>
      <g>
       <use xlink:href="#maed1a0caec" x="167.881038" y="507.326348" style="stroke: #000000; stroke-width: 0.8"/>
      </g>
     </g>
     <g id="text_1">
      <!-- 390000 -->
      <g transform="translate(148.793538 521.924786) scale(0.1 -0.1)">
       <defs>
        <path id="DejaVuSans-33" d="M 2597 2516 
Q 3050 2419 3304 2112 
Q 3559 1806 3559 1356 
Q 3559 666 3084 287 
Q 2609 -91 1734 -91 
Q 1441 -91 1130 -33 
Q 819 25 488 141 
L 488 750 
Q 750 597 1062 519 
Q 1375 441 1716 441 
Q 2309 441 2620 675 
Q 2931 909 2931 1356 
Q 2931 1769 2642 2001 
Q 2353 2234 1838 2234 
L 1294 2234 
L 1294 2753 
L 1863 2753 
Q 2328 2753 2575 2939 
Q 2822 3125 2822 3475 
Q 2822 3834 2567 4026 
Q 2313 4219 1838 4219 
Q 1578 4219 1281 4162 
Q 984 4106 628 3988 
L 628 4550 
Q 988 4650 1302 4700 
Q 1616 4750 1894 4750 
Q 2613 4750 3031 4423 
Q 3450 4097 3450 3541 
Q 3450 3153 3228 2886 
Q 3006 2619 2597 2516 
z
" transform="scale(0.015625)"/>
        <path id="DejaVuSans-39" d="M 703 97 
L 703 672 
Q 941 559 1184 500 
Q 1428 441 1663 441 
Q 2288 441 2617 861 
Q 2947 1281 2994 2138 
Q 2813 1869 2534 1725 
Q 2256 1581 1919 1581 
Q 1219 1581 811 2004 
Q 403 2428 403 3163 
Q 403 3881 828 4315 
Q 1253 4750 1959 4750 
Q 2769 4750 3195 4129 
Q 3622 3509 3622 2328 
Q 3622 1225 3098 567 
Q 2575 -91 1691 -91 
Q 1453 -91 1209 -44 
Q 966 3 703 97 
z
M 1959 2075 
Q 2384 2075 2632 2365 
Q 2881 2656 2881 3163 
Q 2881 3666 2632 3958 
Q 2384 4250 1959 4250 
Q 1534 4250 1286 3958 
Q 1038 3666 1038 3163 
Q 1038 2656 1286 2365 
Q 1534 2075 1959 2075 
z
" transform="scale(0.015625)"/>
        <path id="DejaVuSans-30" d="M 2034 4250 
Q 1547 4250 1301 3770 
Q 1056 3291 1056 2328 
Q 1056 1369 1301 889 
Q 1547 409 2034 409 
Q 2525 409 2770 889 
Q 3016 1369 3016 2328 
Q 3016 3291 2770 3770 
Q 2525 4250 2034 4250 
z
M 2034 4750 
Q 2819 4750 3233 4129 
Q 3647 3509 3647 2328 
Q 3647 1150 3233 529 
Q 2819 -91 2034 -91 
Q 1250 -91 836 529 
Q 422 1150 422 2328 
Q 422 3509 836 4129 
Q 1250 4750 2034 4750 
z
" transform="scale(0.015625)"/>
       </defs>
       <use xlink:href="#DejaVuSans-33"/>
       <use xlink:href="#DejaVuSans-39" x="63.623047"/>
       <use xlink:href="#DejaVuSans-30" x="127.246094"/>
       <use xlink:href="#DejaVuSans-30" x="190.869141"/>
       <use xlink:href="#DejaVuSans-30" x="254.492188"/>
       <use xlink:href="#DejaVuSans-30" x="318.115234"/>
      </g>
     </g>
    </g>
    <g id="xtick_2">
     <g id="line2d_2">
      <g>
       <use xlink:href="#maed1a0caec" x="250.4348" y="507.326348" style="stroke: #000000; stroke-width: 0.8"/>
      </g>
     </g>
     <g id="text_2">
      <!-- 390500 -->
      <g transform="translate(231.3473 521.924786) scale(0.1 -0.1)">
       <defs>
        <path id="DejaVuSans-35" d="M 691 4666 
L 3169 4666 
L 3169 4134 
L 1269 4134 
L 1269 2991 
Q 1406 3038 1543 3061 
Q 1681 3084 1819 3084 
Q 2600 3084 3056 2656 
Q 3513 2228 3513 1497 
Q 3513 744 3044 326 
Q 2575 -91 1722 -91 
Q 1428 -91 1123 -41 
Q 819 9 494 109 
L 494 744 
Q 775 591 1075 516 
Q 1375 441 1709 441 
Q 2250 441 2565 725 
Q 2881 1009 2881 1497 
Q 2881 1984 2565 2268 
Q 2250 2553 1709 2553 
Q 1456 2553 1204 2497 
Q 953 2441 691 2322 
L 691 4666 
z
" transform="scale(0.015625)"/>
       </defs>
       <use xlink:href="#DejaVuSans-33"/>
       <use xlink:href="#DejaVuSans-39" x="63.623047"/>
       <use xlink:href="#DejaVuSans-30" x="127.246094"/>
       <use xlink:href="#DejaVuSans-35" x="190.869141"/>
       <use xlink:href="#DejaVuSans-30" x="254.492188"/>
       <use xlink:href="#DejaVuSans-30" x="318.115234"/>
      </g>
     </g>
    </g>
    <g id="xtick_3">
     <g id="line2d_3">
      <g>
       <use xlink:href="#maed1a0caec" x="332.988563" y="507.326348" style="stroke: #000000; stroke-width: 0.8"/>
      </g>
     </g>
     <g id="text_3">
      <!-- 391000 -->
      <g transform="translate(313.901063 521.924786) scale(0.1 -0.1)">
       <defs>
        <path id="DejaVuSans-31" d="M 794 531 
L 1825 531 
L 1825 4091 
L 703 3866 
L 703 4441 
L 1819 4666 
L 2450 4666 
L 2450 531 
L 3481 531 
L 3481 0 
L 794 0 
L 794 531 
z
" transform="scale(0.015625)"/>
       </defs>
       <use xlink:href="#DejaVuSans-33"/>
       <use xlink:href="#DejaVuSans-39" x="63.623047"/>
       <use xlink:href="#DejaVuSans-31" x="127.246094"/>
       <use xlink:href="#DejaVuSans-30" x="190.869141"/>
       <use xlink:href="#DejaVuSans-30" x="254.492188"/>
       <use xlink:href="#DejaVuSans-30" x="318.115234"/>
      </g>
     </g>
    </g>
    <g id="xtick_4">
     <g id="line2d_4">
      <g>
       <use xlink:href="#maed1a0caec" x="415.542325" y="507.326348" style="stroke: #000000; stroke-width: 0.8"/>
      </g>
     </g>
     <g id="text_4">
      <!-- 391500 -->
      <g transform="translate(396.454825 521.924786) scale(0.1 -0.1)">
       <use xlink:href="#DejaVuSans-33"/>
       <use xlink:href="#DejaVuSans-39" x="63.623047"/>
       <use xlink:href="#DejaVuSans-31" x="127.246094"/>
       <use xlink:href="#DejaVuSans-35" x="190.869141"/>
       <use xlink:href="#DejaVuSans-30" x="254.492188"/>
       <use xlink:href="#DejaVuSans-30" x="318.115234"/>
      </g>
     </g>
    </g>
    <g id="xtick_5">
     <g id="line2d_5">
      <g>
       <use xlink:href="#maed1a0caec" x="498.096088" y="507.326348" style="stroke: #000000; stroke-width: 0.8"/>
      </g>
     </g>
     <g id="text_5">
      <!-- 392000 -->
      <g transform="translate(479.008588 521.924786) scale(0.1 -0.1)">
       <defs>
        <path id="DejaVuSans-32" d="M 1228 531 
L 3431 531 
L 3431 0 
L 469 0 
L 469 531 
Q 828 903 1448 1529 
Q 2069 2156 2228 2338 
Q 2531 2678 2651 2914 
Q 2772 3150 2772 3378 
Q 2772 3750 2511 3984 
Q 2250 4219 1831 4219 
Q 1534 4219 1204 4116 
Q 875 4013 500 3803 
L 500 4441 
Q 881 4594 1212 4672 
Q 1544 4750 1819 4750 
Q 2544 4750 2975 4387 
Q 3406 4025 3406 3419 
Q 3406 3131 3298 2873 
Q 3191 2616 2906 2266 
Q 2828 2175 2409 1742 
Q 1991 1309 1228 531 
z
" transform="scale(0.015625)"/>
       </defs>
       <use xlink:href="#DejaVuSans-33"/>
       <use xlink:href="#DejaVuSans-39" x="63.623047"/>
       <use xlink:href="#DejaVuSans-32" x="127.246094"/>
       <use xlink:href="#DejaVuSans-30" x="190.869141"/>
       <use xlink:href="#DejaVuSans-30" x="254.492188"/>
       <use xlink:href="#DejaVuSans-30" x="318.115234"/>
      </g>
     </g>
    </g>
    <g id="xtick_6">
     <g id="line2d_6">
      <g>
       <use xlink:href="#maed1a0caec" x="580.64985" y="507.326348" style="stroke: #000000; stroke-width: 0.8"/>
      </g>
     </g>
     <g id="text_6">
      <!-- 392500 -->
      <g transform="translate(561.56235 521.924786) scale(0.1 -0.1)">
       <use xlink:href="#DejaVuSans-33"/>
       <use xlink:href="#DejaVuSans-39" x="63.623047"/>
       <use xlink:href="#DejaVuSans-32" x="127.246094"/>
       <use xlink:href="#DejaVuSans-35" x="190.869141"/>
       <use xlink:href="#DejaVuSans-30" x="254.492188"/>
       <use xlink:href="#DejaVuSans-30" x="318.115234"/>
      </g>
     </g>
    </g>
   </g>
   <g id="matplotlib.axis_2">
    <g id="ytick_1">
     <g id="line2d_7">
      <defs>
       <path id="me7af793641" d="M 0 0 
L -3.5 0 
" style="stroke: #000000; stroke-width: 0.8"/>
      </defs>
      <g>
       <use xlink:href="#me7af793641" x="90" y="480.3155" style="stroke: #000000; stroke-width: 0.8"/>
      </g>
     </g>
     <g id="text_7">
      <!-- 5.8174 -->
      <g transform="translate(48.009375 484.114719) scale(0.1 -0.1)">
       <defs>
        <path id="DejaVuSans-2e" d="M 684 794 
L 1344 794 
L 1344 0 
L 684 0 
L 684 794 
z
" transform="scale(0.015625)"/>
        <path id="DejaVuSans-38" d="M 2034 2216 
Q 1584 2216 1326 1975 
Q 1069 1734 1069 1313 
Q 1069 891 1326 650 
Q 1584 409 2034 409 
Q 2484 409 2743 651 
Q 3003 894 3003 1313 
Q 3003 1734 2745 1975 
Q 2488 2216 2034 2216 
z
M 1403 2484 
Q 997 2584 770 2862 
Q 544 3141 544 3541 
Q 544 4100 942 4425 
Q 1341 4750 2034 4750 
Q 2731 4750 3128 4425 
Q 3525 4100 3525 3541 
Q 3525 3141 3298 2862 
Q 3072 2584 2669 2484 
Q 3125 2378 3379 2068 
Q 3634 1759 3634 1313 
Q 3634 634 3220 271 
Q 2806 -91 2034 -91 
Q 1263 -91 848 271 
Q 434 634 434 1313 
Q 434 1759 690 2068 
Q 947 2378 1403 2484 
z
M 1172 3481 
Q 1172 3119 1398 2916 
Q 1625 2713 2034 2713 
Q 2441 2713 2670 2916 
Q 2900 3119 2900 3481 
Q 2900 3844 2670 4047 
Q 2441 4250 2034 4250 
Q 1625 4250 1398 4047 
Q 1172 3844 1172 3481 
z
" transform="scale(0.015625)"/>
        <path id="DejaVuSans-37" d="M 525 4666 
L 3525 4666 
L 3525 4397 
L 1831 0 
L 1172 0 
L 2766 4134 
L 525 4134 
L 525 4666 
z
" transform="scale(0.015625)"/>
        <path id="DejaVuSans-34" d="M 2419 4116 
L 825 1625 
L 2419 1625 
L 2419 4116 
z
M 2253 4666 
L 3047 4666 
L 3047 1625 
L 3713 1625 
L 3713 1100 
L 3047 1100 
L 3047 0 
L 2419 0 
L 2419 1100 
L 313 1100 
L 313 1709 
L 2253 4666 
z
" transform="scale(0.015625)"/>
       </defs>
       <use xlink:href="#DejaVuSans-35"/>
       <use xlink:href="#DejaVuSans-2e" x="63.623047"/>
       <use xlink:href="#DejaVuSans-38" x="95.410156"/>
       <use xlink:href="#DejaVuSans-31" x="159.033203"/>
       <use xlink:href="#DejaVuSans-37" x="222.65625"/>
       <use xlink:href="#DejaVuSans-34" x="286.279297"/>
      </g>
     </g>
    </g>
    <g id="ytick_2">
     <g id="line2d_8">
      <g>
       <use xlink:href="#me7af793641" x="90" y="447.293995" style="stroke: #000000; stroke-width: 0.8"/>
      </g>
     </g>
     <g id="text_8">
      <!-- 5.8176 -->
      <g transform="translate(48.009375 451.093214) scale(0.1 -0.1)">
       <defs>
        <path id="DejaVuSans-36" d="M 2113 2584 
Q 1688 2584 1439 2293 
Q 1191 2003 1191 1497 
Q 1191 994 1439 701 
Q 1688 409 2113 409 
Q 2538 409 2786 701 
Q 3034 994 3034 1497 
Q 3034 2003 2786 2293 
Q 2538 2584 2113 2584 
z
M 3366 4563 
L 3366 3988 
Q 3128 4100 2886 4159 
Q 2644 4219 2406 4219 
Q 1781 4219 1451 3797 
Q 1122 3375 1075 2522 
Q 1259 2794 1537 2939 
Q 1816 3084 2150 3084 
Q 2853 3084 3261 2657 
Q 3669 2231 3669 1497 
Q 3669 778 3244 343 
Q 2819 -91 2113 -91 
Q 1303 -91 875 529 
Q 447 1150 447 2328 
Q 447 3434 972 4092 
Q 1497 4750 2381 4750 
Q 2619 4750 2861 4703 
Q 3103 4656 3366 4563 
z
" transform="scale(0.015625)"/>
       </defs>
       <use xlink:href="#DejaVuSans-35"/>
       <use xlink:href="#DejaVuSans-2e" x="63.623047"/>
       <use xlink:href="#DejaVuSans-38" x="95.410156"/>
       <use xlink:href="#DejaVuSans-31" x="159.033203"/>
       <use xlink:href="#DejaVuSans-37" x="222.65625"/>
       <use xlink:href="#DejaVuSans-36" x="286.279297"/>
      </g>
     </g>
    </g>
    <g id="ytick_3">
     <g id="line2d_9">
      <g>
       <use xlink:href="#me7af793641" x="90" y="414.27249" style="stroke: #000000; stroke-width: 0.8"/>
      </g>
     </g>
     <g id="text_9">
      <!-- 5.8178 -->
      <g transform="translate(48.009375 418.071709) scale(0.1 -0.1)">
       <use xlink:href="#DejaVuSans-35"/>
       <use xlink:href="#DejaVuSans-2e" x="63.623047"/>
       <use xlink:href="#DejaVuSans-38" x="95.410156"/>
       <use xlink:href="#DejaVuSans-31" x="159.033203"/>
       <use xlink:href="#DejaVuSans-37" x="222.65625"/>
       <use xlink:href="#DejaVuSans-38" x="286.279297"/>
      </g>
     </g>
    </g>
    <g id="ytick_4">
     <g id="line2d_10">
      <g>
       <use xlink:href="#me7af793641" x="90" y="381.250985" style="stroke: #000000; stroke-width: 0.8"/>
      </g>
     </g>
     <g id="text_10">
      <!-- 5.8180 -->
      <g transform="translate(48.009375 385.050204) scale(0.1 -0.1)">
       <use xlink:href="#DejaVuSans-35"/>
       <use xlink:href="#DejaVuSans-2e" x="63.623047"/>
       <use xlink:href="#DejaVuSans-38" x="95.410156"/>
       <use xlink:href="#DejaVuSans-31" x="159.033203"/>
       <use xlink:href="#DejaVuSans-38" x="222.65625"/>
       <use xlink:href="#DejaVuSans-30" x="286.279297"/>
      </g>
     </g>
    </g>
    <g id="ytick_5">
     <g id="line2d_11">
      <g>
       <use xlink:href="#me7af793641" x="90" y="348.22948" style="stroke: #000000; stroke-width: 0.8"/>
      </g>
     </g>
     <g id="text_11">
      <!-- 5.8182 -->
      <g transform="translate(48.009375 352.028699) scale(0.1 -0.1)">
       <use xlink:href="#DejaVuSans-35"/>
       <use xlink:href="#DejaVuSans-2e" x="63.623047"/>
       <use xlink:href="#DejaVuSans-38" x="95.410156"/>
       <use xlink:href="#DejaVuSans-31" x="159.033203"/>
       <use xlink:href="#DejaVuSans-38" x="222.65625"/>
       <use xlink:href="#DejaVuSans-32" x="286.279297"/>
      </g>
     </g>
    </g>
    <g id="ytick_6">
     <g id="line2d_12">
      <g>
       <use xlink:href="#me7af793641" x="90" y="315.207975" style="stroke: #000000; stroke-width: 0.8"/>
      </g>
     </g>
     <g id="text_12">
      <!-- 5.8184 -->
      <g transform="translate(48.009375 319.007194) scale(0.1 -0.1)">
       <use xlink:href="#DejaVuSans-35"/>
       <use xlink:href="#DejaVuSans-2e" x="63.623047"/>
       <use xlink:href="#DejaVuSans-38" x="95.410156"/>
       <use xlink:href="#DejaVuSans-31" x="159.033203"/>
       <use xlink:href="#DejaVuSans-38" x="222.65625"/>
       <use xlink:href="#DejaVuSans-34" x="286.279297"/>
      </g>
     </g>
    </g>
    <g id="ytick_7">
     <g id="line2d_13">
      <g>
       <use xlink:href="#me7af793641" x="90" y="282.18647" style="stroke: #000000; stroke-width: 0.8"/>
      </g>
     </g>
     <g id="text_13">
      <!-- 5.8186 -->
      <g transform="translate(48.009375 285.985689) scale(0.1 -0.1)">
       <use xlink:href="#DejaVuSans-35"/>
       <use xlink:href="#DejaVuSans-2e" x="63.623047"/>
       <use xlink:href="#DejaVuSans-38" x="95.410156"/>
       <use xlink:href="#DejaVuSans-31" x="159.033203"/>
       <use xlink:href="#DejaVuSans-38" x="222.65625"/>
       <use xlink:href="#DejaVuSans-36" x="286.279297"/>
      </g>
     </g>
    </g>
    <g id="ytick_8">
     <g id="line2d_14">
      <g>
       <use xlink:href="#me7af793641" x="90" y="249.164965" style="stroke: #000000; stroke-width: 0.8"/>
      </g>
     </g>
     <g id="text_14">
      <!-- 5.8188 -->
      <g transform="translate(48.009375 252.964184) scale(0.1 -0.1)">
       <use xlink:href="#DejaVuSans-35"/>
       <use xlink:href="#DejaVuSans-2e" x="63.623047"/>
       <use xlink:href="#DejaVuSans-38" x="95.410156"/>
       <use xlink:href="#DejaVuSans-31" x="159.033203"/>
       <use xlink:href="#DejaVuSans-38" x="222.65625"/>
       <use xlink:href="#DejaVuSans-38" x="286.279297"/>
      </g>
     </g>
    </g>
    <g id="text_15">
     <!-- 1e6 -->
     <g transform="translate(90 216.873652) scale(0.1 -0.1)">
      <defs>
       <path id="DejaVuSans-65" d="M 3597 1894 
L 3597 1613 
L 953 1613 
Q 991 1019 1311 708 
Q 1631 397 2203 397 
Q 2534 397 2845 478 
Q 3156 559 3463 722 
L 3463 178 
Q 3153 47 2828 -22 
Q 2503 -91 2169 -91 
Q 1331 -91 842 396 
Q 353 884 353 1716 
Q 353 2575 817 3079 
Q 1281 3584 2069 3584 
Q 2775 3584 3186 3129 
Q 3597 2675 3597 1894 
z
M 3022 2063 
Q 3016 2534 2758 2815 
Q 2500 3097 2075 3097 
Q 1594 3097 1305 2825 
Q 1016 2553 972 2059 
L 3022 2063 
z
" transform="scale(0.015625)"/>
      </defs>
      <use xlink:href="#DejaVuSans-31"/>
      <use xlink:href="#DejaVuSans-65" x="63.623047"/>
      <use xlink:href="#DejaVuSans-36" x="125.146484"/>
     </g>
    </g>
   </g>
   <g id="patch_3">
    <path d="M 90 507.326348 
L 90 219.873652 
" style="fill: none; stroke: #000000; stroke-width: 0.8; stroke-linejoin: miter; stroke-linecap: square"/>
   </g>
   <g id="patch_4">
    <path d="M 648 507.326348 
L 648 219.873652 
" style="fill: none; stroke: #000000; stroke-width: 0.8; stroke-linejoin: miter; stroke-linecap: square"/>
   </g>
   <g id="patch_5">
    <path d="M 90 507.326348 
L 648 507.326348 
" style="fill: none; stroke: #000000; stroke-width: 0.8; stroke-linejoin: miter; stroke-linecap: square"/>
   </g>
   <g id="patch_6">
    <path d="M 90 219.873652 
L 648 219.873652 
" style="fill: none; stroke: #000000; stroke-width: 0.8; stroke-linejoin: miter; stroke-linecap: square"/>
   </g>
   <g id="text_16">
    <!-- Kreuzberg_Nord -->
    <g transform="translate(321.796194 366.867931) scale(0.12 -0.12)">
     <defs>
      <path id="DejaVuSans-4b" d="M 628 4666 
L 1259 4666 
L 1259 2694 
L 3353 4666 
L 4166 4666 
L 1850 2491 
L 4331 0 
L 3500 0 
L 1259 2247 
L 1259 0 
L 628 0 
L 628 4666 
z
" transform="scale(0.015625)"/>
      <path id="DejaVuSans-72" d="M 2631 2963 
Q 2534 3019 2420 3045 
Q 2306 3072 2169 3072 
Q 1681 3072 1420 2755 
Q 1159 2438 1159 1844 
L 1159 0 
L 581 0 
L 581 3500 
L 1159 3500 
L 1159 2956 
Q 1341 3275 1631 3429 
Q 1922 3584 2338 3584 
Q 2397 3584 2469 3576 
Q 2541 3569 2628 3553 
L 2631 2963 
z
" transform="scale(0.015625)"/>
      <path id="DejaVuSans-75" d="M 544 1381 
L 544 3500 
L 1119 3500 
L 1119 1403 
Q 1119 906 1312 657 
Q 1506 409 1894 409 
Q 2359 409 2629 706 
Q 2900 1003 2900 1516 
L 2900 3500 
L 3475 3500 
L 3475 0 
L 2900 0 
L 2900 538 
Q 2691 219 2414 64 
Q 2138 -91 1772 -91 
Q 1169 -91 856 284 
Q 544 659 544 1381 
z
M 1991 3584 
L 1991 3584 
z
" transform="scale(0.015625)"/>
      <path id="DejaVuSans-7a" d="M 353 3500 
L 3084 3500 
L 3084 2975 
L 922 459 
L 3084 459 
L 3084 0 
L 275 0 
L 275 525 
L 2438 3041 
L 353 3041 
L 353 3500 
z
" transform="scale(0.015625)"/>
      <path id="DejaVuSans-62" d="M 3116 1747 
Q 3116 2381 2855 2742 
Q 2594 3103 2138 3103 
Q 1681 3103 1420 2742 
Q 1159 2381 1159 1747 
Q 1159 1113 1420 752 
Q 1681 391 2138 391 
Q 2594 391 2855 752 
Q 3116 1113 3116 1747 
z
M 1159 2969 
Q 1341 3281 1617 3432 
Q 1894 3584 2278 3584 
Q 2916 3584 3314 3078 
Q 3713 2572 3713 1747 
Q 3713 922 3314 415 
Q 2916 -91 2278 -91 
Q 1894 -91 1617 61 
Q 1341 213 1159 525 
L 1159 0 
L 581 0 
L 581 4863 
L 1159 4863 
L 1159 2969 
z
" transform="scale(0.015625)"/>
      <path id="DejaVuSans-67" d="M 2906 1791 
Q 2906 2416 2648 2759 
Q 2391 3103 1925 3103 
Q 1463 3103 1205 2759 
Q 947 2416 947 1791 
Q 947 1169 1205 825 
Q 1463 481 1925 481 
Q 2391 481 2648 825 
Q 2906 1169 2906 1791 
z
M 3481 434 
Q 3481 -459 3084 -895 
Q 2688 -1331 1869 -1331 
Q 1566 -1331 1297 -1286 
Q 1028 -1241 775 -1147 
L 775 -588 
Q 1028 -725 1275 -790 
Q 1522 -856 1778 -856 
Q 2344 -856 2625 -561 
Q 2906 -266 2906 331 
L 2906 616 
Q 2728 306 2450 153 
Q 2172 0 1784 0 
Q 1141 0 747 490 
Q 353 981 353 1791 
Q 353 2603 747 3093 
Q 1141 3584 1784 3584 
Q 2172 3584 2450 3431 
Q 2728 3278 2906 2969 
L 2906 3500 
L 3481 3500 
L 3481 434 
z
" transform="scale(0.015625)"/>
      <path id="DejaVuSans-5f" d="M 3263 -1063 
L 3263 -1509 
L -63 -1509 
L -63 -1063 
L 3263 -1063 
z
" transform="scale(0.015625)"/>
      <path id="DejaVuSans-4e" d="M 628 4666 
L 1478 4666 
L 3547 763 
L 3547 4666 
L 4159 4666 
L 4159 0 
L 3309 0 
L 1241 3903 
L 1241 0 
L 628 0 
L 628 4666 
z
" transform="scale(0.015625)"/>
      <path id="DejaVuSans-6f" d="M 1959 3097 
Q 1497 3097 1228 2736 
Q 959 2375 959 1747 
Q 959 1119 1226 758 
Q 1494 397 1959 397 
Q 2419 397 2687 759 
Q 2956 1122 2956 1747 
Q 2956 2369 2687 2733 
Q 2419 3097 1959 3097 
z
M 1959 3584 
Q 2709 3584 3137 3096 
Q 3566 2609 3566 1747 
Q 3566 888 3137 398 
Q 2709 -91 1959 -91 
Q 1206 -91 779 398 
Q 353 888 353 1747 
Q 353 2609 779 3096 
Q 1206 3584 1959 3584 
z
" transform="scale(0.015625)"/>
      <path id="DejaVuSans-64" d="M 2906 2969 
L 2906 4863 
L 3481 4863 
L 3481 0 
L 2906 0 
L 2906 525 
Q 2725 213 2448 61 
Q 2172 -91 1784 -91 
Q 1150 -91 751 415 
Q 353 922 353 1747 
Q 353 2572 751 3078 
Q 1150 3584 1784 3584 
Q 2172 3584 2448 3432 
Q 2725 3281 2906 2969 
z
M 947 1747 
Q 947 1113 1208 752 
Q 1469 391 1925 391 
Q 2381 391 2643 752 
Q 2906 1113 2906 1747 
Q 2906 2381 2643 2742 
Q 2381 3103 1925 3103 
Q 1469 3103 1208 2742 
Q 947 2381 947 1747 
z
" transform="scale(0.015625)"/>
     </defs>
     <use xlink:href="#DejaVuSans-4b"/>
     <use xlink:href="#DejaVuSans-72" x="65.576172"/>
     <use xlink:href="#DejaVuSans-65" x="104.439453"/>
     <use xlink:href="#DejaVuSans-75" x="165.962891"/>
     <use xlink:href="#DejaVuSans-7a" x="229.341797"/>
     <use xlink:href="#DejaVuSans-62" x="281.832031"/>
     <use xlink:href="#DejaVuSans-65" x="345.308594"/>
     <use xlink:href="#DejaVuSans-72" x="406.832031"/>
     <use xlink:href="#DejaVuSans-67" x="446.195312"/>
     <use xlink:href="#DejaVuSans-5f" x="509.671875"/>
     <use xlink:href="#DejaVuSans-4e" x="559.671875"/>
     <use xlink:href="#DejaVuSans-6f" x="634.476562"/>
     <use xlink:href="#DejaVuSans-72" x="695.658203"/>
     <use xlink:href="#DejaVuSans-64" x="735.021484"/>
    </g>
   </g>
  </g>
 </g>
 <defs>
  <clipPath id="peec3b4f258">
   <rect x="90" y="219.873652" width="558" height="287.452696"/>
  </clipPath>
 </defs>
</svg>
