<?xml version="1.0" encoding="utf-8" standalone="no"?>
<!DOCTYPE svg PUBLIC "-//W3C//DTD SVG 1.1//EN"
  "http://www.w3.org/Graphics/SVG/1.1/DTD/svg11.dtd">
<svg xmlns:xlink="http://www.w3.org/1999/xlink" width="720pt" height="720pt" viewBox="0 0 720 720" xmlns="http://www.w3.org/2000/svg" version="1.1">
 <metadata>
  <rdf:RDF xmlns:dc="http://purl.org/dc/elements/1.1/" xmlns:cc="http://creativecommons.org/ns#" xmlns:rdf="http://www.w3.org/1999/02/22-rdf-syntax-ns#">
   <cc:Work>
    <dc:type rdf:resource="http://purl.org/dc/dcmitype/StillImage"/>
    <dc:date>2024-10-15T09:52:07.007446</dc:date>
    <dc:format>image/svg+xml</dc:format>
    <dc:creator>
     <cc:Agent>
      <dc:title>Matplotlib v3.8.4, https://matplotlib.org/</dc:title>
     </cc:Agent>
    </dc:creator>
   </cc:Work>
  </rdf:RDF>
 </metadata>
 <defs>
  <style type="text/css">*{stroke-linejoin: round; stroke-linecap: butt}</style>
 </defs>
 <g id="figure_1">
  <g id="patch_1">
   <path d="M 0 720 
L 720 720 
L 720 0 
L 0 0 
z
" style="fill: #ffffff"/>
  </g>
  <g id="axes_1">
   <g id="patch_2">
    <path d="M 90 541.302938 
L 648 541.302938 
L 648 185.897062 
L 90 185.897062 
z
" style="fill: #ffffff"/>
   </g>
   <g id="PatchCollection_1">
    <path d="M 552.527579 418.193544 
L 555.838451 413.694251 
L 556.63903 412.583236 
L 556.975314 412.208725 
L 564.048565 403.002548 
L 566.282023 400.155834 
L 569.656016 395.909435 
L 571.334307 393.781269 
L 573.123467 391.192755 
L 575.356109 387.808831 
L 578.096985 382.530045 
L 579.495039 379.760057 
L 579.714195 379.326234 
L 580.099323 378.295553 
L 580.403631 377.481162 
L 580.597212 377.029247 
L 581.275629 375.447951 
L 585.919666 364.61749 
L 587.620538 361.013866 
L 588.328067 359.431754 
L 592.764239 349.491111 
L 593.638549 347.433413 
L 597.045464 340.039931 
L 601.831795 329.559085 
L 606.378836 319.34079 
L 608.83077 313.83047 
L 611.190198 308.575763 
L 618.893165 291.018672 
L 620.845435 286.723436 
L 619.792371 288.444442 
L 621.398698 284.906523 
L 622.636364 282.180203 
L 622.164723 282.160342 
L 618.694007 282.015326 
L 613.373458 281.792905 
L 598.495756 281.172304 
L 596.390037 282.820258 
L 594.241194 281.795762 
L 591.984202 281.030553 
L 589.655654 280.519598 
L 589.341952 280.489125 
L 587.286431 280.285342 
L 568.50283 279.478777 
L 567.74347 279.424907 
L 567.356308 279.398379 
L 561.581532 278.9919 
L 557.530617 278.70527 
L 553.314146 278.405988 
L 553.171443 278.393745 
L 548.548765 278.067664 
L 546.97019 277.957338 
L 547.049499 276.937195 
L 546.775112 276.918422 
L 544.739589 276.780208 
L 539.397002 276.417397 
L 535.491239 276.151173 
L 533.095489 275.953239 
L 530.520578 275.735579 
L 527.945667 275.517784 
L 526.28683 275.379434 
L 523.981408 275.187077 
L 522.16504 275.044238 
L 521.13075 274.945884 
L 517.368915 274.624428 
L 514.311888 274.3631 
L 514.056546 274.341879 
L 513.528314 274.296442 
L 512.770276 274.23611 
L 511.69739 274.150066 
L 511.106717 274.100685 
L 496.886073 272.900837 
L 485.30183 271.914296 
L 471.939309 270.800151 
L 471.888295 271.405789 
L 453.334189 269.837689 
L 440.583155 268.751432 
L 435.499855 268.321419 
L 430.876905 267.9314 
L 424.096677 267.39691 
L 409.34753 266.234473 
L 409.400176 265.613871 
L 405.574675 265.92594 
L 402.215102 266.476755 
L 398.228669 267.523017 
L 397.711456 267.679187 
L 397.432308 267.766659 
L 397.290013 267.811279 
L 397.114933 268.719327 
L 396.451752 268.901209 
L 395.195993 269.267693 
L 393.949485 269.654719 
L 393.377313 269.837008 
L 392.957774 269.658936 
L 391.663789 269.600304 
L 376.914777 274.291137 
L 374.451417 275.075391 
L 372.384876 275.73245 
L 355.674753 281.042932 
L 354.502249 281.416626 
L 350.229186 282.778358 
L 348.348745 283.377738 
L 343.813266 284.822997 
L 339.621282 286.157929 
L 337.849262 286.722347 
L 334.991393 287.632708 
L 334.560292 287.769969 
L 334.315425 287.770786 
L 331.889882 285.016305 
L 331.85084 284.971957 
L 331.71249 285.094527 
L 331.53088 285.152207 
L 331.271866 285.234373 
L 329.749474 283.960793 
L 329.692746 283.896856 
L 329.115541 283.246734 
L 324.584007 278.138947 
L 324.185827 277.690161 
L 323.395723 276.79939 
L 322.496517 275.785913 
L 321.828983 275.033491 
L 319.301141 272.184193 
L 318.584633 271.376541 
L 318.535388 271.321038 
L 312.041927 264.08427 
L 311.516959 263.499174 
L 311.162719 263.103442 
L 312.046144 262.71492 
L 311.565093 262.052028 
L 311.175234 261.5148 
L 311.466353 261.442836 
L 310.996617 260.927392 
L 309.141207 258.894316 
L 307.299808 256.875933 
L 305.458273 254.85891 
L 303.615514 252.837807 
L 301.77806 250.825001 
L 300.769344 249.719019 
L 299.939246 248.809475 
L 298.904683 248.28097 
L 298.419575 248.039096 
L 297.567574 247.918159 
L 294.516669 248.053244 
L 292.885448 248.125072 
L 292.210431 248.154864 
L 291.95781 248.166019 
L 291.00419 248.208054 
L 295.741684 245.040429 
L 296.84753 244.301067 
L 295.418459 242.057951 
L 293.956332 239.762596 
L 292.453258 237.402488 
L 290.989906 235.102916 
L 287.670736 229.892421 
L 287.439609 229.528794 
L 287.390771 229.451797 
L 286.86458 228.584832 
L 286.819415 228.513957 
L 286.591145 228.155227 
L 286.555503 228.100132 
L 284.448832 224.795381 
L 283.90169 223.937667 
L 282.986705 222.502611 
L 281.525802 220.211337 
L 280.915403 219.254316 
L 280.065035 217.921424 
L 279.401038 216.877475 
L 279.159436 216.496707 
L 278.687523 215.75408 
L 278.602772 215.628654 
L 277.390545 213.727671 
L 277.140644 213.33602 
L 276.549291 212.408791 
L 275.678517 211.04325 
L 275.387398 210.586437 
L 274.21639 208.749255 
L 273.192166 207.144017 
L 271.888794 205.101147 
L 271.226565 204.063048 
L 271.095834 203.858448 
L 270.535225 202.979512 
L 265.927238 204.917089 
L 265.358097 203.088371 
L 265.035515 202.051875 
L 263.716363 202.606226 
L 260.44875 203.980337 
L 258.129861 204.955043 
L 257.941994 205.034489 
L 257.754126 205.113799 
L 256.43511 205.668286 
L 255.435373 206.088505 
L 254.275248 206.575246 
L 253.11662 207.063211 
L 252.928753 207.142657 
L 252.740886 207.220606 
L 250.609864 208.117227 
L 248.478978 209.012623 
L 248.29111 209.091933 
L 248.103243 209.171379 
L 245.78449 210.146085 
L 245.043632 210.457474 
L 243.465601 211.120655 
L 243.277733 211.200101 
L 243.089866 211.278186 
L 240.646367 212.306219 
L 238.354277 212.948178 
L 236.456151 213.479267 
L 236.066132 213.588369 
L 235.145977 213.846023 
L 234.756911 213.954581 
L 232.920953 214.468801 
L 230.694569 215.091579 
L 228.468049 215.715718 
L 226.241665 216.338496 
L 224.015282 216.961274 
L 222.283937 217.446518 
L 218.716907 218.536176 
L 217.055621 219.20371 
L 214.631983 220.179097 
L 212.213923 221.150538 
L 209.797359 222.121979 
L 207.375082 223.096005 
L 205.586329 223.815506 
L 203.910896 224.546025 
L 202.96775 224.957265 
L 202.657721 225.096975 
L 199.480166 226.519108 
L 196.773299 227.731199 
L 194.273616 228.846703 
L 191.771077 229.964793 
L 186.488074 232.594119 
L 185.739462 232.903603 
L 183.153804 234.246698 
L 179.952305 235.839013 
L 178.156615 236.739579 
L 176.182988 237.725576 
L 172.644254 239.480727 
L 171.436652 240.065687 
L 170.962835 240.295182 
L 170.834552 240.343883 
L 169.162927 240.978088 
L 165.346133 242.463886 
L 163.241094 243.269362 
L 159.149505 244.783863 
L 158.334642 245.219998 
L 156.572961 245.846722 
L 155.506702 246.263947 
L 150.659154 248.255395 
L 148.789188 249.021012 
L 146.406981 250.003526 
L 144.145424 250.936279 
L 139.741629 252.824747 
L 137.134477 253.602743 
L 134.528006 254.380468 
L 131.282975 255.34878 
L 130.686453 255.52522 
L 128.522782 256.169492 
L 123.271068 257.734872 
L 120.261926 258.636118 
L 117.265844 259.532603 
L 116.653497 259.713452 
L 116.629734 259.72047 
L 116.413027 259.790393 
L 115.363636 260.12899 
L 116.047627 261.042172 
L 116.660751 261.860742 
L 118.754226 261.232795 
L 118.848636 261.359309 
L 118.929306 261.467323 
L 118.958418 261.507318 
L 130.419956 277.67234 
L 131.423774 279.090119 
L 133.193617 281.58953 
L 136.475769 286.555525 
L 136.024278 286.803017 
L 135.815461 286.914568 
L 135.909327 287.052373 
L 136.012579 287.204055 
L 137.764601 289.800868 
L 140.249864 293.48489 
L 141.119685 295.026327 
L 141.206477 295.184402 
L 141.626288 295.928253 
L 142.906669 298.190279 
L 143.595017 299.405907 
L 144.353561 300.500462 
L 145.901119 302.736232 
L 147.47262 305.005196 
L 148.969165 307.275384 
L 150.467206 309.545708 
L 153.054496 313.469019 
L 153.677275 314.412709 
L 154.233803 315.257091 
L 154.750744 316.040937 
L 155.632672 317.37723 
L 159.133588 322.684991 
L 158.749556 323.493868 
L 158.773226 323.531143 
L 158.722348 323.565424 
L 158.899469 323.831377 
L 159.713465 325.054167 
L 160.653215 326.465865 
L 161.54852 324.59196 
L 163.265853 327.342495 
L 164.836674 329.85619 
L 166.052438 331.659906 
L 169.684902 337.058676 
L 171.535823 339.796832 
L 177.944805 349.327867 
L 179.474271 351.590573 
L 180.994214 353.846341 
L 181.565706 354.693716 
L 182.62802 356.271475 
L 182.677402 356.315959 
L 183.63864 357.77074 
L 184.132047 358.291626 
L 186.12295 360.394353 
L 188.256421 362.648216 
L 190.000961 364.30991 
L 190.81079 365.081513 
L 191.08613 365.343792 
L 191.399695 365.642258 
L 193.170355 367.328574 
L 194.571809 368.54529 
L 196.073796 369.881583 
L 198.006883 371.621226 
L 198.669384 372.217477 
L 198.936017 372.429287 
L 199.543695 372.95371 
L 199.961193 373.392838 
L 202.444415 376.005023 
L 203.821247 377.453275 
L 206.137824 379.836646 
L 207.414124 381.079209 
L 209.03079 382.659553 
L 212.341798 385.896284 
L 213.888268 387.407793 
L 215.302782 388.790747 
L 215.491602 388.975213 
L 217.997406 391.424834 
L 218.847094 392.255341 
L 219.79228 393.179305 
L 221.432344 394.782639 
L 221.531379 394.870247 
L 221.633197 396.029458 
L 222.995113 397.387094 
L 223.920192 398.309266 
L 224.423121 398.810155 
L 224.482841 398.744721 
L 224.50828 398.766895 
L 224.534943 398.793286 
L 225.228733 398.078683 
L 225.344228 398.09664 
L 227.362203 398.407757 
L 228.122243 398.143437 
L 228.469138 398.570321 
L 230.164977 400.660668 
L 231.129888 401.848953 
L 231.862584 402.518527 
L 234.091553 404.619077 
L 235.660878 406.083381 
L 237.254009 407.569723 
L 238.86292 409.070893 
L 238.543777 409.328819 
L 238.22613 409.585249 
L 247.038072 417.790874 
L 254.602826 424.925478 
L 254.995565 424.229648 
L 258.705434 427.815179 
L 258.760665 427.868914 
L 265.775557 434.657711 
L 268.151465 436.939433 
L 268.314962 437.096449 
L 269.092959 437.347438 
L 268.733004 439.094835 
L 269.100713 439.492472 
L 270.515635 440.828901 
L 272.280853 442.4959 
L 275.578802 445.610606 
L 283.861015 453.491918 
L 290.173819 459.525166 
L 290.836184 460.158147 
L 299.711384 468.330987 
L 303.846913 472.028068 
L 309.325401 477.283727 
L 312.274278 480.003382 
L 322.23519 489.529927 
L 323.011282 489.842541 
L 324.322408 491.068643 
L 326.313584 492.9465 
L 328.190896 494.716888 
L 330.177175 496.590119 
L 332.268066 498.561842 
L 334.909635 501.05309 
L 336.862312 502.894489 
L 337.565624 503.557806 
L 337.905717 503.878581 
L 338.363074 504.289958 
L 339.142431 505.06088 
L 340.620611 506.393228 
L 343.69437 509.244703 
L 345.771929 511.172621 
L 346.430349 511.783564 
L 346.639302 511.987484 
L 350.00731 515.694224 
L 357.955416 523.131375 
L 359.330888 524.403594 
L 359.840483 524.931554 
L 360.068073 525.148125 
L 360.218666 525.096975 
L 360.317973 525.063238 
L 360.677928 524.940941 
L 363.365886 524.027996 
L 363.507228 523.979974 
L 365.287818 523.375017 
L 370.134958 521.787464 
L 384.57707 517.814499 
L 390.167652 516.697362 
L 394.631439 515.922358 
L 399.008434 515.280807 
L 401.772165 515.072806 
L 402.699258 515.003019 
L 416.874601 514.11388 
L 418.941685 514.07715 
L 421.091616 514.039196 
L 424.526827 514.269371 
L 425.74191 514.350721 
L 426.7728 514.419828 
L 430.905608 514.696663 
L 435.317021 514.699112 
L 439.840936 514.352489 
L 440.085123 514.333852 
L 456.754571 513.0566 
L 462.440379 512.637741 
L 467.046189 512.298465 
L 472.382654 511.647799 
L 473.731055 511.483058 
L 475.75175 511.237239 
L 477.964122 510.705334 
L 481.118144 509.946518 
L 481.211873 509.823541 
L 481.407223 509.567383 
L 482.332955 508.353115 
L 482.558233 508.057643 
L 483.171761 507.252847 
L 483.800796 506.433767 
L 485.669675 504.014074 
L 486.272727 503.233085 
L 490.041909 498.351528 
L 499.006348 486.549217 
L 503.411911 480.929523 
L 509.615886 473.013929 
L 515.748712 465.189481 
L 515.738509 464.724098 
L 516.332039 464.343602 
L 520.021503 459.506529 
L 522.735036 455.948885 
L 524.320413 453.870646 
L 524.671933 453.41084 
L 527.124819 450.109899 
L 528.569669 448.167833 
L 529.024033 447.575527 
L 533.871581 441.257962 
L 541.77942 431.014773 
L 542.787728 429.711809 
L 548.668614 422.119168 
L 549.488645 421.058894 
L 549.559657 420.967749 
L 550.122483 420.09945 
L 550.606599 419.35258 
L 550.675978 419.208381 
L 550.911594 419.195185 
L 551.896367 419.050714 
L 552.527579 418.193544 
" clip-path="url(#pd046cb48e3)" style="fill: #d3d3d3"/>
   </g>
   <g id="PatchCollection_2">
    <path d="M 512.770276 274.23611 
L 513.528314 274.296442 
L 514.056546 274.341879 
L 514.311888 274.3631 
L 517.368915 274.624428 
L 521.13075 274.945884 
L 522.16504 275.044238 
L 523.981408 275.187077 
L 526.28683 275.379434 
L 527.945667 275.517784 
L 530.520578 275.735579 
L 533.095489 275.953239 
L 535.491239 276.151173 
L 539.397002 276.417397 
L 544.739589 276.780208 
L 546.775112 276.918422 
L 547.049499 276.937195 
L 546.97019 277.957338 
L 548.548765 278.067664 
L 553.171443 278.393745 
L 553.314146 278.405988 
L 556.19047 278.610148 
L 556.17554 278.647186 
L 555.544096 279.850875 
L 554.795684 280.985542 
L 553.937774 282.039858 
L 552.978934 283.003298 
L 551.928735 283.866241 
L 550.797661 284.620074 
L 549.597007 285.25727 
L 548.338757 285.771468 
L 547.035475 286.157533 
L 545.700172 286.411613 
L 544.346179 286.531169 
L 542.987014 286.515008 
L 524.682239 285.381055 
L 523.311043 285.225988 
L 521.962611 284.932807 
L 520.650819 284.504527 
L 519.389163 283.945556 
L 518.190626 283.261646 
L 517.067541 282.459833 
L 516.031463 281.548369 
L 515.093055 280.536631 
L 514.261971 279.43503 
L 513.546764 278.254902 
L 512.954792 277.00839 
L 512.492147 275.708319 
L 512.163589 274.368068 
L 512.138049 274.185406 
L 512.770276 274.23611 
" clip-path="url(#pd046cb48e3)" style="fill: #ff0000; fill-opacity: 0.7; stroke: #000000; stroke-opacity: 0.7; stroke-width: 0.5"/>
    <path d="M 485.30183 271.914296 
L 496.886073 272.900837 
L 501.457712 273.286563 
L 501.567164 273.399785 
L 502.343624 274.365159 
L 502.477702 274.548351 
L 503.321527 275.851233 
L 504.011434 277.241762 
L 504.53844 278.701833 
L 504.599232 278.906066 
L 504.913204 280.183954 
L 505.102242 281.486197 
L 505.164576 282.800613 
L 505.161196 286.193006 
L 505.091535 287.554447 
L 504.885967 288.90208 
L 504.546555 290.222372 
L 504.076707 291.502066 
L 503.481142 292.72831 
L 502.76584 293.888791 
L 501.937985 294.971855 
L 501.005889 295.966626 
L 499.978913 296.863116 
L 498.86737 297.65232 
L 497.682421 298.326315 
L 496.435966 298.878331 
L 495.140521 299.302826 
L 493.809096 299.595537 
L 492.45506 299.753524 
L 491.416287 299.770045 
L 491.979927 306.062545 
L 492.027775 306.038952 
L 493.237957 305.579409 
L 494.48634 305.236974 
L 495.761619 305.014748 
L 497.052247 304.914743 
L 498.346537 304.937865 
L 499.632769 305.083904 
L 503.826552 305.763504 
L 505.091689 306.030775 
L 506.325735 306.416956 
L 507.517541 306.918558 
L 508.656338 307.53105 
L 509.731838 308.248898 
L 510.734324 309.065616 
L 511.654738 309.973825 
L 511.677415 310.000914 
L 512.177059 309.439352 
L 513.158613 308.533258 
L 514.224303 307.727801 
L 514.579094 307.486068 
L 515.714881 306.791071 
L 516.913173 306.210442 
L 518.16249 305.749745 
L 519.450862 305.413393 
L 520.765945 305.20461 
L 522.09514 305.125394 
L 523.425712 305.176506 
L 524.744913 305.357456 
L 526.040104 305.666509 
L 527.298877 306.100706 
L 528.238406 306.531682 
L 528.617193 306.367131 
L 529.888283 305.957702 
L 531.193393 305.674872 
L 532.519945 305.521365 
L 535.398913 305.330776 
L 536.733236 305.308044 
L 538.063365 305.41616 
L 539.376501 305.654084 
L 540.660006 306.019526 
L 541.901529 306.508968 
L 543.089122 307.117702 
L 544.211356 307.839869 
L 545.257431 308.668519 
L 546.21728 309.595677 
L 547.081667 310.612421 
L 547.842273 311.708967 
L 548.491777 312.874762 
L 549.023931 314.098586 
L 549.433612 315.368663 
L 549.716877 316.672769 
L 549.871002 317.998356 
L 549.87899 318.11797 
L 550.823429 318.490348 
L 552.011022 319.09916 
L 553.133246 319.821407 
L 554.179301 320.650139 
L 555.13912 321.577379 
L 556.003466 322.594204 
L 556.76402 323.690829 
L 557.413463 324.856698 
L 557.945544 326.080592 
L 558.355144 327.350732 
L 558.638318 328.654895 
L 558.792344 329.980528 
L 558.957477 332.456327 
L 558.980851 333.791298 
L 558.873245 335.12213 
L 558.818422 335.425354 
L 558.7271 336.745148 
L 558.504784 338.061763 
L 558.154463 339.350241 
L 557.679514 340.598168 
L 557.084511 341.793522 
L 556.375189 342.924787 
L 555.558379 343.981064 
L 554.641951 344.952177 
L 553.634734 345.828769 
L 552.546433 346.602396 
L 551.387531 347.265605 
L 550.169194 347.812005 
L 548.903159 348.236334 
L 547.601623 348.534503 
L 546.277126 348.703638 
L 542.113913 349.02867 
L 540.78026 349.067165 
L 539.44925 348.974832 
L 538.133686 348.752558 
L 536.846224 348.402483 
L 535.599246 347.927973 
L 534.404749 347.333593 
L 533.274221 346.62506 
L 532.218537 345.80919 
L 531.247852 344.89383 
L 530.371504 343.887785 
L 529.597921 342.800733 
L 528.934545 341.64313 
L 528.387757 340.426111 
L 527.962816 339.161382 
L 527.663811 337.86111 
L 527.493617 336.537801 
L 527.3961 335.303672 
L 527.31036 334.565428 
L 527.168422 332.435433 
L 526.718369 332.20492 
L 526.435708 332.023132 
L 526.076278 332.15505 
L 525.596066 332.279572 
L 525.845059 332.859537 
L 526.253366 334.152922 
L 526.530851 335.480538 
L 526.674757 336.829185 
L 526.939086 341.508337 
L 526.947457 342.876609 
L 526.818336 344.238801 
L 526.553028 345.581131 
L 526.503246 345.744516 
L 527.302526 346.017339 
L 528.509116 346.565447 
L 529.65665 347.228358 
L 530.734234 347.999781 
L 531.731645 348.872396 
L 532.639415 349.83792 
L 533.448929 350.887191 
L 534.647758 352.608339 
L 535.302374 353.644806 
L 535.861028 354.735995 
L 536.319182 355.873045 
L 536.673116 357.046722 
L 536.919956 358.247495 
L 537.057698 359.465614 
L 537.248193 362.282362 
L 538.253357 377.137277 
L 538.277927 378.475077 
L 538.170955 379.808818 
L 537.933475 381.1256 
L 537.567787 382.412683 
L 537.077426 383.657616 
L 536.467137 384.848354 
L 535.742824 385.973379 
L 534.911494 387.021807 
L 533.98119 387.983495 
L 532.96091 388.84914 
L 531.956275 389.54413 
L 532.862725 389.53114 
L 534.193534 389.643033 
L 535.506959 389.884878 
L 536.790341 390.254344 
L 538.03131 390.74787 
L 539.217908 391.3607 
L 540.338697 392.086927 
L 541.382876 392.919551 
L 542.340382 393.850549 
L 543.201985 394.870948 
L 543.959382 395.970913 
L 544.605275 397.139843 
L 545.133436 398.366472 
L 545.538777 399.638978 
L 545.817391 400.945098 
L 545.966592 402.272242 
L 546.835044 416.072602 
L 547.003808 418.421801 
L 547.033823 419.763642 
L 546.931464 421.101908 
L 546.697727 422.423575 
L 546.334888 423.715776 
L 545.846478 424.965933 
L 545.333193 425.973538 
L 545.529239 426.172323 
L 542.787728 429.711809 
L 541.77942 431.014773 
L 533.871581 441.257962 
L 529.024033 447.575527 
L 528.569669 448.167833 
L 527.124819 450.109899 
L 524.671933 453.41084 
L 524.320413 453.870646 
L 522.735036 455.948885 
L 520.021503 459.506529 
L 516.332039 464.343602 
L 515.738509 464.724098 
L 515.748712 465.189481 
L 509.615886 473.013929 
L 503.411911 480.929523 
L 499.006348 486.549217 
L 490.041909 498.351528 
L 486.272727 503.233085 
L 485.669675 504.014074 
L 485.601316 504.102581 
L 485.530122 504.133549 
L 484.278365 504.539397 
L 482.993251 504.822405 
L 481.686806 504.979923 
L 481.270162 505.009808 
L 480.867342 506.351616 
L 480.385911 507.697043 
L 479.880312 508.919179 
L 479.258423 510.086442 
L 479.015027 510.4525 
L 477.964122 510.705334 
L 475.75175 511.237239 
L 473.731055 511.483058 
L 472.382654 511.647799 
L 467.046189 512.298465 
L 462.440379 512.637741 
L 456.754571 513.0566 
L 456.742173 513.05755 
L 456.161014 512.493876 
L 455.585393 511.814627 
L 455.278225 511.882275 
L 454.395646 511.987382 
L 454.268179 512.450988 
L 453.951774 513.271357 
L 440.085123 514.333852 
L 439.840936 514.352489 
L 435.317021 514.699112 
L 430.905608 514.696663 
L 426.7728 514.419828 
L 425.74191 514.350721 
L 424.526827 514.269371 
L 421.091616 514.039196 
L 418.941685 514.07715 
L 416.874601 514.11388 
L 402.699258 515.003019 
L 401.772165 515.072806 
L 399.008434 515.280807 
L 394.631439 515.922358 
L 390.167652 516.697362 
L 387.785842 517.173307 
L 387.074902 516.150516 
L 386.423982 514.984749 
L 385.890477 513.760787 
L 385.884958 513.743725 
L 385.817671 513.997759 
L 385.340429 515.270072 
L 384.738634 516.488424 
L 384.018293 517.640661 
L 383.696207 518.05682 
L 370.134958 521.787464 
L 365.938725 523.16183 
L 364.934713 522.740461 
L 363.763759 522.108001 
L 362.660208 521.364153 
L 361.634621 520.516033 
L 360.696812 519.571759 
L 359.855759 518.540369 
L 359.119509 517.431734 
L 358.819395 516.866846 
L 358.225283 516.964166 
L 356.860401 517.117484 
L 355.487016 517.132394 
L 354.119128 517.008745 
L 352.770679 516.747796 
L 351.455415 516.352208 
L 350.186743 515.826014 
L 350.09578 515.777006 
L 350.00731 515.694224 
L 346.639302 511.987484 
L 346.430349 511.783564 
L 345.771929 511.172621 
L 343.69437 509.244703 
L 343.677122 509.228702 
L 343.605309 509.087536 
L 343.109172 507.806811 
L 342.744704 506.482586 
L 342.51562 505.12836 
L 341.734045 498.48291 
L 341.643704 497.168912 
L 341.680858 495.852337 
L 341.845158 494.545526 
L 342.135063 493.260728 
L 349.625406 466.233468 
L 350.04664 464.960842 
L 350.591083 463.735854 
L 351.098825 462.842463 
L 351.031846 462.708042 
L 350.557795 461.46548 
L 350.207338 460.182568 
L 349.983826 458.871566 
L 349.889395 457.545004 
L 349.924946 456.21556 
L 350.09014 454.895941 
L 350.383398 453.598758 
L 350.751096 452.276529 
L 351.172207 451.007485 
L 351.715866 449.785911 
L 352.376821 448.623609 
L 353.148685 447.531807 
L 353.161643 447.516845 
L 353.55059 446.966263 
L 354.423445 445.957194 
L 355.390947 445.038483 
L 355.577512 444.893264 
L 356.791062 440.44827 
L 357.191942 439.214705 
L 357.708483 438.024926 
L 358.335988 436.88975 
L 359.068754 435.819497 
L 359.900117 434.823895 
L 360.822521 433.911997 
L 361.82758 433.092091 
L 362.906156 432.371633 
L 364.048446 431.757171 
L 365.244063 431.254292 
L 366.482139 430.867568 
L 367.751418 430.600513 
L 369.040361 430.455556 
L 370.048384 430.438813 
L 369.847781 429.972316 
L 369.444275 428.705395 
L 369.166378 427.405135 
L 369.016743 426.083956 
L 368.624486 419.952595 
L 368.392258 420.015669 
L 367.02649 420.24086 
L 365.644908 420.326094 
L 363.664411 420.347321 
L 362.37517 420.299961 
L 361.096213 420.130686 
L 359.839043 419.841019 
L 358.614965 419.433565 
L 357.434989 418.911988 
L 356.309728 418.280979 
L 355.249302 417.546213 
L 354.263247 416.714299 
L 353.360433 415.792718 
L 352.548978 414.78976 
L 351.836181 413.714443 
L 351.434048 412.96143 
L 350.462355 412.944373 
L 349.151274 412.793458 
L 347.860986 412.516211 
L 346.603635 412.115241 
L 345.391054 411.594322 
L 344.234656 410.958357 
L 343.145324 410.21333 
L 342.13331 409.366255 
L 341.208139 408.425103 
L 340.378519 407.398732 
L 339.652257 406.296801 
L 339.197108 405.434539 
L 338.872937 405.485762 
L 337.564715 405.628041 
L 336.248867 405.643253 
L 334.937706 405.531257 
L 333.643501 405.293099 
L 332.378361 404.93101 
L 331.154126 404.448376 
L 329.982252 403.849714 
L 328.873702 403.140627 
L 327.838852 402.327748 
L 327.163331 401.682335 
L 327.049922 402.882062 
L 326.794529 404.192726 
L 326.411869 405.472037 
L 325.905629 406.707668 
L 325.280687 407.887716 
L 324.543063 409.00081 
L 323.699866 410.036224 
L 322.759219 410.983984 
L 321.730185 411.834957 
L 320.62268 412.580944 
L 319.447373 413.214758 
L 318.21559 413.730291 
L 317.606068 413.917622 
L 318.179794 413.849333 
L 321.042949 413.650206 
L 322.377213 413.623029 
L 323.70772 413.726718 
L 325.021665 413.960276 
L 326.306403 414.321454 
L 327.549569 414.806776 
L 328.7392 415.411573 
L 329.863846 416.130023 
L 330.912685 416.955212 
L 331.875622 417.8792 
L 332.74339 418.893092 
L 333.507638 419.987133 
L 334.161012 421.150792 
L 334.697222 422.372872 
L 335.111109 423.641611 
L 335.398689 424.944798 
L 335.557195 426.269893 
L 335.589567 426.73171 
L 335.644592 427.51063 
L 335.972186 432.006861 
L 336.003694 433.3436 
L 335.93999 434.19409 
L 336.823379 435.135737 
L 337.640502 436.199925 
L 338.348819 437.339431 
L 338.941441 438.54317 
L 339.412601 439.799433 
L 339.757719 441.095998 
L 339.973435 442.420254 
L 340.057651 443.759319 
L 340.119689 448.362788 
L 340.07226 449.695729 
L 339.894527 451.017618 
L 339.588199 452.315748 
L 339.156221 453.577642 
L 338.602744 454.791167 
L 337.93309 455.944659 
L 337.153696 457.027029 
L 336.272054 458.027872 
L 335.29664 458.937568 
L 334.236829 459.747371 
L 333.10281 460.449497 
L 331.905484 461.037196 
L 330.656361 461.504819 
L 329.367449 461.847871 
L 328.051137 462.063054 
L 326.72008 462.148299 
L 319.488423 462.256157 
L 318.153972 462.210525 
L 316.830422 462.034291 
L 315.530525 461.729154 
L 314.266803 461.298053 
L 313.051431 460.745142 
L 311.896117 460.075746 
L 310.811991 459.296315 
L 309.809498 458.414358 
L 308.898295 457.438371 
L 308.087161 456.377757 
L 307.38391 455.242733 
L 306.795317 454.044234 
L 306.733189 453.878329 
L 305.80981 454.058697 
L 304.480484 454.184973 
L 302.980912 454.253416 
L 301.645969 454.248777 
L 300.317909 454.113317 
L 299.00952 453.848343 
L 297.733402 453.456406 
L 296.501843 452.941279 
L 295.326703 452.307923 
L 294.219298 451.562438 
L 293.190293 450.712002 
L 292.249596 449.764804 
L 291.406267 448.729967 
L 290.668425 447.617455 
L 290.043177 446.437981 
L 289.536543 445.202904 
L 289.153403 443.924117 
L 288.897445 442.613934 
L 288.771135 441.284973 
L 288.687741 439.4604 
L 288.692296 438.125434 
L 288.827675 436.797343 
L 289.092575 435.488915 
L 289.484445 434.212752 
L 289.999511 432.981143 
L 290.632812 431.805948 
L 291.378251 430.698484 
L 292.228649 429.669418 
L 293.175815 428.728657 
L 294.21063 427.885263 
L 295.323126 427.147357 
L 296.502592 426.522045 
L 297.737668 426.015349 
L 299.016462 425.632149 
L 300.326657 425.376135 
L 301.655636 425.249771 
L 303.08692 425.184299 
L 304.421702 425.188795 
L 305.696384 425.318655 
L 305.867373 424.365298 
L 306.230173 423.082069 
L 306.71687 421.840527 
L 307.322787 420.652602 
L 308.042101 419.52971 
L 308.8679 418.48264 
L 309.79225 417.521454 
L 310.806267 416.655388 
L 311.900207 415.892765 
L 313.063559 415.240913 
L 314.285145 414.706095 
L 315.095141 414.442515 
L 314.302091 414.523513 
L 310.883639 414.703774 
L 309.549465 414.708612 
L 308.221234 414.582735 
L 306.911721 414.327354 
L 305.633522 413.944925 
L 304.398932 413.439127 
L 303.219826 412.814825 
L 302.107545 412.078024 
L 301.072789 411.23581 
L 300.12551 410.296286 
L 299.274819 409.268488 
L 298.528899 408.162302 
L 297.894926 406.988367 
L 297.454136 405.93717 
L 296.730602 405.980023 
L 295.396203 405.993489 
L 294.416792 405.907034 
L 294.425383 405.945174 
L 294.589582 407.265493 
L 294.624019 408.595538 
L 294.534463 412.482516 
L 294.443106 413.773779 
L 294.229428 415.050513 
L 293.895366 416.301156 
L 293.443943 417.514384 
L 292.879247 418.679213 
L 292.206392 419.785093 
L 291.431469 420.822012 
L 290.561497 421.780581 
L 289.604352 422.65212 
L 288.568701 423.428737 
L 287.463922 424.103399 
L 286.300019 424.669999 
L 285.08753 425.123405 
L 283.837435 425.459512 
L 282.561052 425.675276 
L 281.26994 425.768745 
L 279.429889 425.81415 
L 276.952535 425.874092 
L 277.035992 426.22163 
L 277.219051 427.545941 
L 277.271237 428.881825 
L 277.192046 430.216381 
L 276.982242 431.536719 
L 276.643852 432.830088 
L 276.180145 434.083995 
L 275.595597 435.286333 
L 274.895856 436.425487 
L 274.087679 437.490456 
L 273.178871 438.470955 
L 271.743468 439.874476 
L 270.745689 440.758723 
L 270.573477 440.883524 
L 270.515635 440.828901 
L 269.100713 439.492472 
L 268.733004 439.094835 
L 269.092959 437.347438 
L 268.314962 437.096449 
L 268.151465 436.939433 
L 265.775557 434.657711 
L 258.760665 427.868914 
L 258.705434 427.815179 
L 254.995565 424.229648 
L 254.602826 424.925478 
L 248.798501 419.451201 
L 249.285064 418.811085 
L 250.195114 417.830888 
L 251.631404 416.428906 
L 251.729127 416.342447 
L 251.573779 415.848945 
L 251.543333 415.730163 
L 251.256359 414.292313 
L 251.125797 412.831929 
L 251.153165 411.365975 
L 251.162615 411.236003 
L 251.297975 410.071252 
L 251.533137 408.922485 
L 251.866352 407.798236 
L 252.295145 406.706859 
L 252.347653 406.588477 
L 253.052427 405.21545 
L 253.908186 403.931088 
L 254.903913 402.75192 
L 254.993672 402.657104 
L 256.109131 401.604555 
L 257.335976 400.68425 
L 258.658612 399.907886 
L 258.774287 399.848486 
L 260.160163 399.231895 
L 261.460526 398.819575 
L 261.455722 398.060398 
L 261.578242 396.73063 
L 261.830549 395.419281 
L 262.210213 394.138988 
L 262.713576 392.902089 
L 263.335787 391.720501 
L 264.07085 390.605612 
L 264.911682 389.568165 
L 265.85018 388.618157 
L 266.877301 387.764742 
L 267.983147 387.016144 
L 269.157063 386.379576 
L 270.387735 385.861174 
L 271.663305 385.465932 
L 272.971481 385.197659 
L 274.299657 385.05894 
L 276.238794 384.95225 
L 277.573966 384.944413 
L 278.903475 385.067502 
L 280.214513 385.320331 
L 281.494452 385.700465 
L 282.39043 386.065503 
L 282.478293 385.597912 
L 282.852443 384.315867 
L 283.350502 383.076687 
L 283.967669 381.892316 
L 284.697995 380.77417 
L 285.534442 379.733024 
L 286.468948 378.778913 
L 287.492506 377.921034 
L 288.595251 377.167653 
L 289.766555 376.526034 
L 290.995129 376.002359 
L 292.269131 375.601675 
L 293.576283 375.327845 
L 294.903986 375.183508 
L 295.297115 375.160215 
L 295.25086 374.132129 
L 295.175647 372.488576 
L 295.176863 371.218752 
L 295.296476 369.954573 
L 295.533443 368.707055 
L 295.885698 367.487066 
L 296.350174 366.305238 
L 296.922822 365.171867 
L 297.598654 364.096829 
L 298.37178 363.08949 
L 299.235465 362.158628 
L 300.182183 361.312354 
L 305.611404 356.897221 
L 306.70869 356.0926 
L 312.47769 352.290768 
L 313.477896 351.691467 
L 336.164909 339.387342 
L 336.179921 339.380151 
L 336.195063 339.371038 
L 352.903055 330.363999 
L 354.093747 329.794839 
L 355.333985 329.343733 
L 356.612099 329.014928 
L 357.916059 328.811516 
L 359.233594 328.735413 
L 360.552302 328.787335 
L 361.859775 328.966794 
L 363.143705 329.2721 
L 364.39201 329.70038 
L 365.592941 330.247603 
L 366.735195 330.908619 
L 367.808024 331.677207 
L 368.801329 332.546134 
L 369.705762 333.507221 
L 370.512811 334.551424 
L 371.214882 335.668915 
L 371.595265 336.345116 
L 371.520638 335.007021 
L 371.511315 333.683394 
L 371.630674 332.365127 
L 371.877585 331.064701 
L 372.249711 329.794427 
L 372.743528 328.566332 
L 373.354362 327.392042 
L 374.076428 326.282676 
L 374.902892 325.248736 
L 375.710781 324.418362 
L 374.892621 324.987175 
L 373.747972 325.628974 
L 372.546808 326.157496 
L 371.300309 326.567821 
L 370.020072 326.856132 
L 368.718013 327.019746 
L 367.406247 327.05714 
L 366.096981 326.967966 
L 364.8024 326.753054 
L 363.534549 326.414404 
L 362.305228 325.955167 
L 361.125876 325.379617 
L 360.007468 324.69311 
L 358.960412 323.902034 
L 357.99445 323.013751 
L 357.649298 322.628661 
L 357.435531 322.906236 
L 356.49233 323.904121 
L 355.453339 324.801842 
L 354.329145 325.590252 
L 347.178922 330.084206 
L 346.023155 330.734278 
L 344.809588 331.268735 
L 343.549751 331.682499 
L 342.255615 331.971639 
L 340.939476 332.133407 
L 339.613841 332.166267 
L 338.291304 332.069905 
L 336.984432 331.845239 
L 335.705642 331.494401 
L 334.467085 331.020727 
L 333.28053 330.428716 
L 332.157251 329.723994 
L 331.10792 328.913257 
L 330.142509 328.004208 
L 329.270189 327.005485 
L 328.49925 325.926576 
L 323.53802 318.214743 
L 322.874553 317.063495 
L 322.326564 315.853012 
L 321.899283 314.594842 
L 321.596785 313.300989 
L 321.421956 311.983796 
L 321.376465 310.655831 
L 321.460745 309.329763 
L 321.673992 308.018242 
L 322.014172 306.733782 
L 322.47804 305.488636 
L 323.061169 304.294684 
L 323.757997 303.163317 
L 324.561875 302.105328 
L 325.465135 301.130811 
L 326.459158 300.249064 
L 327.534462 299.468498 
L 329.098032 298.446233 
L 330.334594 297.727593 
L 331.639772 297.14275 
L 332.999138 296.698169 
L 334.397668 296.398764 
L 335.819903 296.247843 
L 337.250122 296.247076 
L 345.144842 296.658409 
L 346.51664 296.79988 
L 347.867067 297.07951 
L 349.182243 297.494427 
L 350.424951 298.030148 
L 350.625222 297.735215 
L 351.475316 296.714047 
L 352.420975 295.780681 
L 353.453178 294.944021 
L 354.562078 294.212049 
L 355.737097 293.591748 
L 356.967024 293.089034 
L 358.240127 292.708704 
L 359.544261 292.454387 
L 360.866985 292.328507 
L 362.195679 292.332267 
L 371.600139 292.818769 
L 372.891093 292.947497 
L 374.163914 293.198615 
L 375.407026 293.569839 
L 376.609122 294.057794 
L 377.75927 294.65804 
L 378.847008 295.365118 
L 379.862443 296.172599 
L 380.796341 297.073137 
L 381.640207 298.058543 
L 382.386367 299.119853 
L 383.028034 300.247416 
L 383.559372 301.430976 
L 383.975548 302.659769 
L 384.272778 303.922618 
L 385.015206 307.924026 
L 385.195984 309.269865 
L 385.241687 310.627021 
L 385.151859 311.981973 
L 384.927396 313.321219 
L 384.570534 314.631415 
L 384.084829 315.899506 
L 383.47512 317.112856 
L 382.747482 318.259376 
L 381.909167 319.327641 
L 380.968527 320.307008 
L 379.934934 321.187717 
L 378.113533 322.589017 
L 379.083012 322.050412 
L 379.751414 321.720557 
L 381.005888 321.178041 
L 382.308468 320.764139 
L 383.646006 320.483032 
L 385.005001 320.337555 
L 386.371734 320.329177 
L 387.73241 320.457983 
L 389.073294 320.722674 
L 390.38085 321.120576 
L 391.641881 321.647673 
L 392.589147 322.100793 
L 393.728395 322.713944 
L 394.804244 323.432547 
L 395.806963 324.250102 
L 396.090963 324.530583 
L 396.351171 324.718938 
L 396.563352 324.834831 
L 397.665032 325.585209 
L 398.687986 326.439803 
L 398.943669 326.69992 
L 398.893872 325.799965 
L 398.722729 325.691749 
L 397.663623 324.865282 
L 396.691197 323.938383 
L 395.814935 322.920091 
L 395.043384 321.820336 
L 394.384066 320.649842 
L 393.843412 319.420026 
L 393.657059 318.848894 
L 393.450863 318.573415 
L 392.76404 317.440846 
L 392.190615 316.24685 
L 391.736028 315.002747 
L 391.404585 313.720333 
L 391.199431 312.411763 
L 391.12251 311.089446 
L 391.106392 309.375426 
L 391.159312 308.041964 
L 391.342632 306.720104 
L 391.654587 305.422566 
L 392.092174 304.161837 
L 392.651184 302.95005 
L 393.326236 301.798866 
L 393.558581 301.479189 
L 394.020158 300.271734 
L 394.6169 299.077279 
L 395.327863 297.947078 
L 396.146199 296.892019 
L 397.064024 295.922266 
L 398.072495 295.047162 
L 399.161898 294.275136 
L 400.321738 293.613627 
L 401.540841 293.069007 
L 402.807463 292.646523 
L 404.109401 292.350244 
L 405.434112 292.183026 
L 407.671185 292.011623 
L 409.005237 291.975061 
L 410.336451 292.069391 
L 411.652017 292.293705 
L 412.939273 292.645844 
L 414.185831 293.122419 
L 415.379694 293.718843 
L 416.509372 294.429376 
L 417.563993 295.247181 
L 418.533407 296.164387 
L 419.408285 297.172166 
L 420.180207 298.260819 
L 420.841744 299.41987 
L 421.386529 300.638164 
L 421.80932 301.903975 
L 422.106047 303.205122 
L 422.273854 304.529082 
L 422.438141 306.658369 
L 423.204861 306.572693 
L 445.118147 305.203635 
L 445.711278 304.568045 
L 446.734535 303.670835 
L 447.842315 302.880352 
L 449.023531 302.204506 
L 450.266362 301.650062 
L 451.558372 301.222567 
L 452.886628 300.9263 
L 454.237839 300.764227 
L 454.803165 300.724966 
L 454.798023 300.645187 
L 454.500206 300.601878 
L 453.191636 300.2767 
L 451.921686 299.823576 
L 450.702831 299.246958 
L 449.547047 298.552511 
L 448.465687 297.747058 
L 447.469375 296.838511 
L 446.5679 295.835796 
L 445.770117 294.748765 
L 445.083865 293.588096 
L 444.515885 292.365192 
L 444.071757 291.092068 
L 443.755845 289.781231 
L 443.088773 286.253965 
L 442.9044 284.920785 
L 442.852664 283.575911 
L 442.934072 282.232507 
L 443.147827 280.903721 
L 443.491837 279.602561 
L 443.962735 278.341761 
L 444.555911 277.133661 
L 445.26556 275.990088 
L 446.084736 274.922233 
L 447.00542 273.94055 
L 448.018602 273.054646 
L 449.114363 272.273193 
L 450.28198 271.60384 
L 451.510023 271.053138 
L 452.786472 270.626478 
L 454.380901 270.179892 
L 455.197938 269.995203 
L 463.089521 270.66216 
L 463.818026 270.959133 
L 463.979278 271.044863 
L 464.935531 270.818176 
L 471.888295 271.405789 
L 471.898854 271.280442 
L 473.084311 271.73939 
L 474.301152 272.357099 
L 474.807888 272.647179 
L 475.927353 273.362775 
L 476.971672 274.184162 
L 477.397798 274.592578 
L 477.699177 274.267222 
L 478.586629 273.393092 
L 479.550318 272.603804 
L 480.582164 271.905974 
L 481.190083 271.571465 
L 485.30183 271.914296 
M 467.159162 374.02514 
L 467.79803 375.176476 
L 468.322598 376.384182 
L 468.727952 377.636945 
L 469.010293 378.923028 
L 469.166977 380.230383 
L 469.33585 382.609414 
L 469.363844 383.981637 
L 469.253425 385.349696 
L 469.005717 386.699665 
L 468.623243 388.017804 
L 468.109894 389.290695 
L 467.470897 390.50538 
L 467.080739 391.164088 
L 466.333385 392.293564 
L 465.477426 393.34313 
L 464.521348 394.302384 
L 463.474625 395.161817 
L 462.347633 395.912912 
L 461.151542 396.548224 
L 459.898207 397.061455 
L 458.600051 397.447519 
L 457.269941 397.702589 
L 455.92106 397.824138 
L 451.731547 397.992097 
L 450.379044 397.979025 
L 449.034523 397.831709 
L 447.711278 397.551607 
L 446.422388 397.141486 
L 445.180595 396.605401 
L 443.998175 395.948652 
L 442.886817 395.17773 
L 441.857508 394.300258 
L 440.920421 393.324909 
L 440.084822 392.261325 
L 439.436489 391.345829 
L 438.707484 390.198971 
L 438.096539 388.985103 
L 437.941843 388.581901 
L 437.620568 388.919176 
L 436.635989 389.772139 
L 435.574341 390.527018 
L 434.445357 391.176891 
L 433.25939 391.715799 
L 432.027314 392.1388 
L 430.760428 392.442016 
L 430.426735 392.488743 
L 431.052204 402.608578 
L 431.068511 403.958812 
L 430.950875 405.304011 
L 430.700456 406.630921 
L 430.319722 407.926468 
L 429.812423 409.177886 
L 429.183557 410.372845 
L 428.439322 411.499572 
L 427.58705 412.546965 
L 426.635139 413.504703 
L 425.592967 414.363352 
L 424.470803 415.114449 
L 423.279704 415.750595 
L 422.031405 416.265522 
L 420.738206 416.654156 
L 419.41285 416.912668 
L 419.280954 416.925014 
L 419.378942 418.64144 
L 419.382761 418.711517 
L 419.496693 420.906138 
L 419.500226 422.244971 
L 419.372137 423.577667 
L 419.309109 423.898003 
L 419.897703 423.812728 
L 421.2136 423.750832 
L 422.529315 423.816506 
L 423.832508 424.009132 
L 425.110959 424.326906 
L 426.352679 424.766847 
L 428.590234 425.683827 
L 429.757954 426.228313 
L 430.868924 426.880829 
L 431.913181 427.635521 
L 432.881357 428.485621 
L 433.764767 429.423501 
L 434.555486 430.44075 
L 435.246423 431.528242 
L 435.831378 432.676223 
L 436.305106 433.874394 
L 436.663356 435.112009 
L 436.902914 436.377965 
L 437.021633 437.660906 
L 437.018447 438.949325 
L 436.986161 439.596504 
L 436.854119 440.926195 
L 436.592262 442.236516 
L 436.203116 443.514827 
L 435.690437 444.748793 
L 435.05917 445.926508 
L 434.315407 447.036611 
L 433.466323 448.06839 
L 432.52011 449.011891 
L 431.485899 449.858011 
L 430.373666 450.598585 
L 429.194143 451.226469 
L 427.958711 451.735604 
L 426.679289 452.121079 
L 425.368221 452.379175 
L 424.038157 452.5074 
L 421.957191 452.605228 
L 420.645691 452.603593 
L 419.340443 452.475674 
L 418.053579 452.222661 
L 416.797059 451.846903 
L 415.582562 451.351895 
L 414.421377 450.742237 
L 413.324295 450.023595 
L 412.301513 449.202648 
L 411.362538 448.287028 
L 410.516097 447.285243 
L 409.770056 446.206606 
L 409.131351 445.06114 
L 408.605917 443.859494 
L 408.198638 442.612835 
L 407.913299 441.33275 
L 407.752553 440.031137 
L 407.628249 438.36915 
L 407.593718 437.05225 
L 407.686725 435.738185 
L 407.79813 435.079458 
L 406.555232 435.199876 
L 405.716992 435.2396 
L 401.184022 435.585839 
L 400.155288 435.613704 
L 399.664446 435.948668 
L 399.888416 436.372059 
L 400.398646 437.623276 
L 400.78223 438.918938 
L 401.035382 440.246263 
L 401.155606 441.592154 
L 401.366777 446.948357 
L 401.354216 448.277064 
L 401.212087 449.598206 
L 400.941745 450.89918 
L 400.54577 452.167574 
L 400.027938 453.391285 
L 399.393192 454.558639 
L 398.647586 455.658498 
L 397.798235 456.680369 
L 396.853242 457.614503 
L 395.821622 458.451987 
L 394.713219 459.184831 
L 393.538607 459.806043 
L 392.308992 460.309696 
L 391.036107 460.690985 
L 389.732095 460.946273 
L 389.39803 460.97831 
L 389.024855 461.646969 
L 388.306374 462.692016 
L 387.493697 463.665614 
L 386.593886 464.559302 
L 385.735372 465.335921 
L 384.713002 466.174138 
L 384.427372 466.365186 
L 384.780421 467.064203 
L 385.259017 468.296353 
L 385.61577 469.569135 
L 385.847312 470.870532 
L 385.951458 472.188257 
L 385.933918 473.144819 
L 390.823838 472.907828 
L 392.158443 472.908689 
L 393.486541 473.040321 
L 394.795349 473.301457 
L 396.07227 473.689583 
L 397.305015 474.200965 
L 398.481719 474.830679 
L 399.591055 475.572666 
L 400.622347 476.419783 
L 401.565668 477.363878 
L 402.411941 478.395864 
L 403.153018 479.505808 
L 403.781769 480.683026 
L 404.29214 481.91619 
L 404.67922 483.193429 
L 404.939284 484.502451 
L 405.069828 485.830656 
L 405.345609 491.466013 
L 406.575271 491.814846 
L 407.817715 492.303324 
L 409.006296 492.911233 
L 410.129567 493.632716 
L 411.017217 494.334694 
L 411.442495 494.120778 
L 412.688048 493.640704 
L 413.112128 493.523465 
L 413.193984 493.491884 
L 414.479944 493.135859 
L 415.794597 492.907529 
L 417.125295 492.809091 
L 418.142756 492.783876 
L 419.47791 492.816367 
L 420.803445 492.979622 
L 422.106583 493.272069 
L 423.374764 493.690889 
L 424.595766 494.232044 
L 425.757819 494.890319 
L 425.947898 495.024195 
L 426.022813 494.881141 
L 426.755176 493.764778 
L 427.593446 492.725584 
L 428.529549 491.773568 
L 429.554466 490.917902 
L 430.658327 490.166827 
L 431.830497 489.527578 
L 433.059685 489.006313 
L 434.334052 488.608053 
L 435.140577 488.4406 
L 435.46736 487.928962 
L 436.292181 486.880341 
L 437.215751 485.917558 
L 438.229188 485.049871 
L 439.322745 484.285628 
L 440.485904 483.632178 
L 441.707476 483.095806 
L 442.975714 482.681672 
L 444.278419 482.393758 
L 445.603061 482.234834 
L 449.207058 481.980878 
L 450.54141 481.952486 
L 451.872121 482.054985 
L 453.186384 482.28739 
L 453.91083 482.490362 
L 455.065981 482.581982 
L 456.377985 482.816888 
L 457.660703 483.179059 
L 458.901822 483.665019 
L 460.089428 484.270103 
L 461.212119 484.988503 
L 462.112791 485.698046 
L 462.235163 485.658316 
L 462.817974 485.53057 
L 462.937094 484.929131 
L 463.332819 483.629023 
L 463.856287 482.374886 
L 464.502274 481.179235 
L 464.790074 480.754278 
L 463.496337 480.516714 
L 462.213939 480.14834 
L 460.973795 479.65611 
L 459.787836 479.044761 
L 458.667471 478.320172 
L 457.623478 477.489316 
L 456.665898 476.560183 
L 455.803945 475.541712 
L 455.045909 474.443702 
L 454.399083 473.276713 
L 453.869689 472.051973 
L 453.462821 470.781263 
L 453.182391 469.476807 
L 453.031097 468.151154 
L 452.298274 456.818666 
L 452.196407 456.817843 
L 450.843247 456.670892 
L 449.511545 456.389455 
L 448.214632 455.97635 
L 446.965492 455.435714 
L 445.776631 454.772958 
L 444.659949 453.994716 
L 443.626626 453.108781 
L 442.687006 452.124021 
L 441.850496 451.050295 
L 441.12547 449.898351 
L 440.519186 448.679722 
L 440.037714 447.406606 
L 439.685874 446.09175 
L 439.467187 444.748317 
L 439.383844 443.389754 
L 439.436679 442.029664 
L 439.625162 440.681661 
L 439.947407 439.359241 
L 440.400188 438.075641 
L 440.978971 436.843713 
L 441.677964 435.675789 
L 442.490168 434.58356 
L 443.898938 432.874757 
L 444.811114 431.874228 
L 445.818227 430.969327 
L 446.910303 430.169019 
L 448.076522 429.481229 
L 449.305335 428.912772 
L 450.584567 428.469278 
L 451.901549 428.155141 
L 453.243234 427.973471 
L 455.628282 427.770728 
L 455.118278 427.364799 
L 454.159769 426.434456 
L 453.297122 425.414595 
L 452.538655 424.315047 
L 451.89168 423.146416 
L 451.362435 421.919967 
L 450.956023 420.647526 
L 450.676363 419.341361 
L 450.52615 418.014065 
L 450.468434 417.107487 
L 450.453201 415.665976 
L 450.483334 415.351256 
L 450.474538 414.488376 
L 450.591908 413.158177 
L 450.839131 411.845894 
L 451.213824 410.564172 
L 451.712377 409.325361 
L 452.329985 408.141399 
L 453.060697 407.023694 
L 453.897473 405.983015 
L 454.832249 405.029391 
L 455.856018 404.17201 
L 456.958916 403.419134 
L 458.130315 402.778017 
L 459.358928 402.254838 
L 460.632915 401.854636 
L 461.940002 401.58127 
L 463.267594 401.437371 
L 464.268163 401.378402 
L 465.602721 401.365329 
L 466.932137 401.483092 
L 468.243616 401.730556 
L 469.524534 402.10534 
L 469.723196 402.185332 
L 469.721605 402.171076 
L 469.649376 401.009849 
L 469.348651 396.170543 
L 469.282621 395.120383 
L 469.264355 393.784592 
L 469.377198 392.453451 
L 469.620059 391.139796 
L 469.990598 389.856296 
L 470.48524 388.615329 
L 471.099216 387.428862 
L 471.826605 386.308337 
L 472.660392 385.26456 
L 473.592536 384.307597 
L 474.614049 383.446677 
L 475.715077 382.690102 
L 476.885005 382.045168 
L 478.112549 381.518095 
L 479.385871 381.113965 
L 480.692693 380.836676 
L 482.02041 380.688903 
L 484.1693 380.556101 
L 485.503805 380.53922 
L 486.833543 380.653186 
L 488.145714 380.896903 
L 489.427689 381.268024 
L 490.667129 381.762978 
L 491.852104 382.377 
L 492.97121 383.104182 
L 494.013675 383.937523 
L 494.969465 384.869004 
L 495.829381 385.889658 
L 496.585147 386.989662 
L 497.229488 388.158429 
L 497.756203 389.384708 
L 498.160221 390.656699 
L 498.437656 391.962157 
L 498.585835 393.288518 
L 498.83404 397.274814 
L 499.074874 397.224255 
L 500.404382 397.07933 
L 500.608791 397.067173 
L 501.008041 396.453283 
L 501.840144 395.412855 
L 502.770026 394.458808 
L 503.788769 393.600293 
L 504.886602 392.845544 
L 506.052997 392.201799 
L 507.276767 391.675231 
L 508.454014 391.300248 
L 508.061464 391.144575 
L 506.875292 390.533559 
L 505.754684 389.809278 
L 504.710421 388.978701 
L 503.752548 388.049818 
L 502.890282 387.031564 
L 502.131916 385.933737 
L 501.484746 384.766896 
L 500.955 383.542269 
L 500.547772 382.271635 
L 500.266981 380.967219 
L 500.115328 379.64157 
L 499.228754 365.988021 
L 499.206119 364.704092 
L 499.304647 363.423749 
L 499.523461 362.1584 
L 499.860609 360.919321 
L 500.313088 359.717551 
L 500.876867 358.563801 
L 501.0294 358.314429 
L 500.170327 358.062949 
L 498.936989 357.5667 
L 497.757979 356.952435 
L 496.644556 356.226022 
L 495.607355 355.394398 
L 494.65628 354.465505 
L 493.800415 353.448214 
L 493.047933 352.352241 
L 492.470982 351.305866 
L 491.951378 351.782285 
L 490.879917 352.585995 
L 484.192529 357.105543 
L 484.062971 357.192026 
L 482.57141 358.17538 
L 481.409974 358.861009 
L 481.193586 358.961324 
L 480.779533 359.346639 
L 479.664884 360.188289 
L 477.04651 361.961937 
L 475.260708 363.171261 
L 474.454908 363.716571 
L 464.192323 370.669031 
L 464.621614 371.01398 
L 465.563479 371.934097 
L 466.411978 372.940962 
L 467.159162 374.02514 
M 400.427617 345.310023 
L 399.591471 346.330977 
L 398.660336 347.26611 
L 397.642975 348.106624 
L 396.54896 348.844608 
L 395.388588 349.473117 
L 393.138884 350.553981 
L 393.119184 350.562283 
L 393.72803 351.070699 
L 394.510613 351.794053 
L 395.646563 352.978874 
L 396.343951 353.80019 
L 396.631358 354.172356 
L 396.776004 353.982773 
L 397.648557 353.039105 
L 398.606272 352.181994 
L 398.663217 352.139992 
L 400.298357 349.824594 
L 401.098674 348.799137 
L 401.993275 347.854807 
L 402.973981 347.000239 
L 404.031823 346.243246 
L 405.157132 345.59075 
L 406.339616 345.048716 
L 407.568465 344.622101 
L 408.832442 344.314805 
L 410.119991 344.129638 
L 411.41934 344.068293 
L 411.768485 344.06852 
L 411.699841 342.843647 
L 411.582509 342.826811 
L 410.338138 342.526705 
L 409.127483 342.110967 
L 407.670612 341.532707 
L 406.496206 341.000837 
L 405.377424 340.360181 
L 404.324312 339.616493 
L 403.34633 338.776454 
L 403.029834 338.447646 
L 402.943294 339.277234 
L 402.679845 340.570324 
L 402.292344 341.831803 
L 401.784438 343.049801 
L 401.160906 344.212856 
L 400.427617 345.310023 
M 473.542496 431.524048 
L 473.717268 431.511798 
L 475.028843 431.428356 
L 480.885251 431.053152 
L 482.22183 431.033331 
L 483.553902 431.144781 
L 484.868605 431.386427 
L 485.072826 431.445168 
L 485.827642 431.242305 
L 487.106667 431.026479 
L 488.400434 430.933449 
L 489.69718 430.964061 
L 490.985115 431.118038 
L 492.252531 431.39398 
L 493.487905 431.789377 
L 494.680005 432.300635 
L 495.786898 432.906097 
L 495.512524 432.027413 
L 495.241486 430.720742 
L 495.237558 430.683963 
L 494.764974 430.433331 
L 493.66251 429.703346 
L 492.636121 428.86978 
L 491.695505 427.940508 
L 490.849547 426.924309 
L 490.10624 425.830782 
L 489.472605 424.67026 
L 488.954629 423.453705 
L 488.557205 422.19261 
L 488.284087 420.89889 
L 488.137856 419.584766 
L 487.826078 414.578954 
L 487.614314 414.623875 
L 486.287108 414.771566 
L 484.138196 414.90437 
L 482.803636 414.921249 
L 481.473844 414.807271 
L 480.161621 414.563531 
L 478.879599 414.192376 
L 478.642393 414.097646 
L 478.648314 414.152056 
L 478.774261 416.272757 
L 478.78809 417.603312 
L 478.671863 418.928853 
L 478.426691 420.236698 
L 478.054921 421.514334 
L 477.560108 422.749538 
L 476.946987 423.930491 
L 476.221424 425.045895 
L 475.390362 426.085079 
L 474.46175 427.038099 
L 473.444474 427.895839 
L 472.348266 428.650091 
L 471.183614 429.293639 
L 470.721925 429.492637 
L 471.440743 429.965494 
L 472.491505 430.81754 
L 473.228744 431.548069 
L 473.542496 431.524048 
" clip-path="url(#pd046cb48e3)" style="fill: #ff0000; fill-opacity: 0.7; stroke: #000000; stroke-opacity: 0.7; stroke-width: 0.5"/>
    <path d="M 303.615514 252.837807 
L 305.458273 254.85891 
L 307.299808 256.875933 
L 309.141207 258.894316 
L 310.996617 260.927392 
L 311.466353 261.442836 
L 311.175234 261.5148 
L 311.565093 262.052028 
L 312.046144 262.71492 
L 311.162719 263.103442 
L 311.516959 263.499174 
L 312.041927 264.08427 
L 318.535388 271.321038 
L 318.584633 271.376541 
L 319.301141 272.184193 
L 321.828983 275.033491 
L 322.496517 275.785913 
L 323.395723 276.79939 
L 324.185827 277.690161 
L 324.584007 278.138947 
L 327.530497 281.460128 
L 327.240214 281.901089 
L 326.408865 282.930246 
L 320.360948 289.713917 
L 319.418633 290.671211 
L 318.386501 291.530905 
L 317.274616 292.284617 
L 316.093818 292.924997 
L 314.855621 293.445803 
L 313.572098 293.841955 
L 312.255762 294.109593 
L 310.919448 294.246105 
L 309.576186 294.250162 
L 308.239072 294.121723 
L 306.921144 293.862041 
L 305.635251 293.473647 
L 304.393931 292.96033 
L 303.209287 292.327093 
L 302.09287 291.58011 
L 301.055564 290.726666 
L 299.47224 289.287173 
L 302.066811 293.013728 
L 302.76272 294.12365 
L 303.34864 295.295364 
L 303.819137 296.518004 
L 304.169848 297.780231 
L 304.397521 299.07034 
L 304.500045 300.376366 
L 304.476468 301.686198 
L 304.327009 302.987689 
L 304.053054 304.268769 
L 303.657144 305.517557 
L 303.14295 306.722472 
L 302.515242 307.872341 
L 301.779839 308.956499 
L 300.943563 309.964893 
L 300.014168 310.88817 
L 299.000274 311.717769 
L 295.111823 314.598349 
L 293.998457 315.341194 
L 292.817482 315.971035 
L 291.58033 316.481775 
L 290.298975 316.868471 
L 289.272552 317.070846 
L 288.898372 317.221216 
L 287.618333 317.594918 
L 286.307856 317.841503 
L 284.979534 317.958601 
L 283.646128 317.945086 
L 282.320452 317.80109 
L 281.015242 317.527995 
L 279.74304 317.128426 
L 278.51607 316.606221 
L 277.346122 315.966399 
L 276.244435 315.215107 
L 275.221597 314.359563 
L 274.287434 313.407989 
L 273.450924 312.369527 
L 269.183327 306.504981 
L 268.450728 305.38658 
L 267.831451 304.201668 
L 267.331478 302.961689 
L 266.955638 301.67862 
L 266.902202 301.395633 
L 266.564727 301.852073 
L 265.648962 302.861312 
L 264.636817 303.773863 
L 263.538447 304.580568 
L 262.364877 305.273331 
L 261.127884 305.8452 
L 257.360181 307.362886 
L 256.106081 307.798225 
L 254.81552 308.109257 
L 253.500789 308.29302 
L 252.174406 308.347763 
L 250.849003 308.272965 
L 249.537201 308.069338 
L 248.251493 307.738822 
L 247.004121 307.284564 
L 245.806964 306.710889 
L 244.671422 306.023261 
L 243.608309 305.228228 
L 242.627748 304.333361 
L 241.739077 303.34718 
L 240.950759 302.279079 
L 240.2703 301.139226 
L 239.463803 299.624931 
L 238.906092 298.44449 
L 238.806834 298.168611 
L 238.649785 298.060779 
L 237.629563 297.201877 
L 236.698345 296.247206 
L 235.865079 295.205942 
L 235.137774 294.08809 
L 234.52342 292.904396 
L 234.027921 291.666234 
L 232.726329 287.886387 
L 232.35381 286.602974 
L 232.336259 286.508784 
L 231.751505 286.505904 
L 230.576139 286.44922 
L 229.362178 286.337889 
L 228.030656 286.149023 
L 226.724289 285.829607 
L 225.455845 285.382764 
L 224.237719 284.812861 
L 223.573611 284.417927 
L 223.566496 284.422144 
L 222.334886 284.994628 
L 221.052331 285.441451 
L 219.731613 285.758159 
L 218.385897 285.941597 
L 217.028597 285.989935 
L 215.480791 285.967736 
L 214.125375 285.880486 
L 212.785416 285.658512 
L 211.47427 285.304027 
L 210.205007 284.820564 
L 208.99028 284.212944 
L 207.842198 283.487223 
L 207.521017 283.236104 
L 207.91995 283.779156 
L 208.598195 284.921235 
L 208.762259 285.271345 
L 209.706092 286.071433 
L 209.800781 286.16143 
L 210.396887 286.796584 
L 211.689549 286.822298 
L 212.456867 286.91304 
L 212.694466 286.912272 
L 213.852074 287.023805 
L 214.903562 287.066283 
L 216.209133 287.246669 
L 217.491121 287.552547 
L 218.737493 287.981048 
L 219.936549 288.528149 
L 221.077035 289.188714 
L 222.148246 289.956543 
L 223.140127 290.824429 
L 224.043368 291.784227 
L 224.84949 292.826926 
L 225.550928 293.942739 
L 226.141096 295.121194 
L 226.614457 296.351229 
L 226.966566 297.621297 
L 227.194118 298.919479 
L 227.206566 299.018499 
L 227.428928 299.575996 
L 227.800267 300.862173 
L 228.160359 302.387378 
L 228.40227 303.694798 
L 228.413366 303.82474 
L 228.805046 303.735434 
L 230.127612 303.567723 
L 231.460244 303.530272 
L 232.790142 303.623441 
L 234.104534 303.846336 
L 235.390797 304.196815 
L 236.636578 304.671513 
L 237.829913 305.265871 
L 238.95934 305.974181 
L 240.014014 306.78964 
L 240.983804 307.704416 
L 241.859397 308.709724 
L 242.632385 309.79591 
L 243.295343 310.952541 
L 243.841904 312.16851 
L 244.02206 312.628341 
L 244.430658 313.834694 
L 244.724641 315.073974 
L 244.901433 316.335316 
L 244.959484 317.607665 
L 244.898286 318.879866 
L 244.718374 320.140767 
L 244.421327 321.379316 
L 244.009747 322.584655 
L 243.487242 323.746218 
L 242.858394 324.853823 
L 242.179128 325.929598 
L 241.347338 327.104302 
L 240.396085 328.184545 
L 239.336019 329.158231 
L 238.179008 330.014462 
L 236.938005 330.74365 
L 235.626902 331.337633 
L 235.407402 331.423388 
L 234.142351 331.847382 
L 232.84185 332.145413 
L 231.518409 332.314615 
L 230.184758 332.35336 
L 228.853726 332.261275 
L 227.538116 332.039246 
L 226.250584 331.689409 
L 225.003513 331.215129 
L 223.808901 330.620969 
L 222.678238 329.912642 
L 221.622399 329.096964 
L 220.651542 328.18178 
L 219.775006 327.175893 
L 219.00122 326.088979 
L 218.33763 324.931493 
L 217.790617 323.714569 
L 217.334572 322.550478 
L 216.908686 321.283299 
L 216.609232 319.980437 
L 216.499949 319.128714 
L 215.75119 319.31052 
L 214.552789 319.600885 
L 213.242079 319.851122 
L 211.913158 319.971742 
L 210.578813 319.961586 
L 209.251882 319.820751 
L 207.945133 319.550591 
L 206.671138 319.153708 
L 205.442155 318.633918 
L 204.27001 317.996223 
L 203.165979 317.246759 
L 202.140686 316.392737 
L 201.203995 315.442374 
L 200.364919 314.404813 
L 200.149429 314.077261 
L 199.604352 314.024159 
L 199.537587 314.019767 
L 198.831445 313.954792 
L 198.672434 313.935969 
L 198.634274 313.931263 
L 198.344509 313.926848 
L 198.170877 313.954195 
L 196.822542 314.030994 
L 196.772764 314.031354 
L 195.38818 313.970779 
L 194.016945 313.769644 
L 192.67329 313.430037 
L 191.371162 312.955482 
L 190.124074 312.350904 
L 188.944971 311.62258 
L 187.84609 310.778067 
L 186.838837 309.826131 
L 185.933665 308.776652 
L 185.13997 307.640523 
L 185.044876 307.488449 
L 184.421822 306.379964 
L 183.90499 305.218147 
L 183.498897 304.013147 
L 183.480348 303.934476 
L 183.287407 303.407645 
L 183.237661 303.247539 
L 183.183638 303.069372 
L 183.142612 302.930661 
L 182.844925 301.723956 
L 182.658613 300.495118 
L 182.585232 299.254404 
L 182.625395 298.012172 
L 182.778767 296.778789 
L 182.794758 296.685302 
L 183.067758 295.442341 
L 183.243927 294.891969 
L 183.010839 293.944385 
L 182.820304 292.617301 
L 182.761323 291.277907 
L 182.834471 289.939212 
L 183.039036 288.614219 
L 183.373032 287.315796 
L 183.558834 286.807368 
L 183.426647 287.00762 
L 182.839412 287.808439 
L 182.024948 288.814938 
L 181.118486 289.739448 
L 180.128238 290.573594 
L 179.063173 291.309821 
L 177.932941 291.941458 
L 176.747779 292.462785 
L 175.518422 292.869079 
L 174.256008 293.156659 
L 172.971972 293.32292 
L 171.677945 293.366357 
L 170.38565 293.286575 
L 169.106793 293.084298 
L 167.852958 292.761357 
L 166.635504 292.320679 
L 165.123906 291.690649 
L 163.897963 291.106234 
L 163.152228 290.654424 
L 162.47499 291.536113 
L 161.560592 292.511186 
L 160.55491 293.391809 
L 159.467655 294.169477 
L 158.309325 294.836683 
L 157.091105 295.386984 
L 155.747965 295.91589 
L 154.484614 296.34312 
L 153.185501 296.644594 
L 151.863112 296.817414 
L 150.530155 296.85992 
L 149.199442 296.771703 
L 147.883761 296.55361 
L 146.595757 296.207739 
L 145.347809 295.737412 
L 144.151911 295.14715 
L 143.019556 294.442627 
L 141.961628 293.630612 
L 140.988292 292.718911 
L 140.108905 291.716284 
L 139.331918 290.63237 
L 138.664798 289.477583 
L 138.113956 288.263024 
L 137.395795 286.44788 
L 136.965829 285.182783 
L 136.662046 283.881609 
L 136.487376 282.556909 
L 136.443505 281.221464 
L 136.530855 279.888156 
L 136.748585 278.569849 
L 137.094592 277.279261 
L 137.565541 276.028842 
L 138.156886 274.830656 
L 138.862924 273.696262 
L 139.676842 272.636603 
L 140.590789 271.661903 
L 141.595948 270.781565 
L 142.682621 270.004081 
L 143.840325 269.336953 
L 145.057892 268.786616 
L 146.400107 268.25769 
L 147.663198 267.830191 
L 148.962075 267.528409 
L 150.284257 267.355243 
L 151.617041 267.312357 
L 152.947621 267.400164 
L 154.263212 267.617819 
L 155.551173 267.963232 
L 156.799129 268.433083 
L 157.995088 269.022857 
L 158.118346 269.099484 
L 158.908732 268.206713 
L 159.874894 267.308214 
L 160.923551 266.507535 
L 162.365946 265.513119 
L 163.432635 264.848252 
L 164.556136 264.284676 
L 165.726858 263.827202 
L 166.934806 263.479736 
L 168.169668 263.245243 
L 169.420903 263.125725 
L 170.195954 263.087705 
L 171.484489 263.085593 
L 172.767443 263.205403 
L 174.033307 263.44606 
L 175.270722 263.805405 
L 176.468588 264.280214 
L 177.616158 264.866227 
L 178.703135 265.558186 
L 179.719767 266.349884 
L 180.220381 266.779326 
L 181.146291 267.651994 
L 181.98662 268.60735 
L 182.734018 269.637036 
L 183.381947 270.732046 
L 183.590759 271.174741 
L 184.054211 271.853296 
L 184.697515 273.028987 
L 185.222014 274.262271 
L 185.622616 275.541178 
L 185.895436 276.853298 
L 186.037823 278.185894 
L 186.048397 279.526035 
L 185.927055 280.860712 
L 185.674974 282.176973 
L 185.294601 283.462043 
L 185.293456 283.464859 
L 185.920327 282.633621 
L 186.829022 281.647858 
L 187.830336 280.756329 
L 188.914545 279.967692 
L 190.071116 279.289607 
L 191.288816 278.728662 
L 192.555819 278.290303 
L 192.767385 278.228596 
L 194.059183 277.919374 
L 195.374981 277.737608 
L 196.702233 277.685033 
L 198.028286 277.76215 
L 199.340496 277.968222 
L 200.626354 278.301287 
L 201.8736 278.758167 
L 203.070343 279.334508 
L 203.958478 279.874753 
L 203.682257 279.537287 
L 202.932874 278.409128 
L 202.299384 277.212046 
L 201.788065 275.957904 
L 201.403987 274.659135 
L 201.150956 273.328612 
L 201.03148 271.979522 
L 200.978502 270.60524 
L 200.993846 269.249637 
L 201.14404 267.902292 
L 201.427593 266.576587 
L 201.841687 265.285688 
L 202.382211 264.042414 
L 203.043797 262.859113 
L 203.491486 262.217887 
L 203.483858 262.218125 
L 203.204732 262.213173 
L 203.165541 262.212421 
L 200.784376 262.163311 
L 199.452737 262.07034 
L 198.136622 261.847305 
L 196.848701 261.496353 
L 195.601377 261.020865 
L 194.40666 260.425419 
L 193.276054 259.715747 
L 192.220443 258.898683 
L 191.249994 257.982095 
L 190.37405 256.974808 
L 189.601045 255.88652 
L 188.938423 254.727712 
L 188.927028 254.702282 
L 188.854478 254.699056 
L 187.547285 254.577508 
L 186.257896 254.330522 
L 184.998318 253.960399 
L 183.780284 253.470584 
L 182.615136 252.865641 
L 181.513726 252.151202 
L 180.486311 251.333922 
L 179.542461 250.421413 
L 178.690966 249.422172 
L 177.939756 248.345506 
L 177.295826 247.201442 
L 176.765175 246.000636 
L 176.352744 244.75427 
L 176.062375 243.473953 
L 175.896772 242.171608 
L 175.857476 240.859365 
L 175.881866 239.52926 
L 175.973567 238.182323 
L 176.038591 237.797194 
L 176.182988 237.725576 
L 178.156615 236.739579 
L 179.952305 235.839013 
L 183.153804 234.246698 
L 185.739462 232.903603 
L 186.488074 232.594119 
L 191.771077 229.964793 
L 194.273616 228.846703 
L 196.773299 227.731199 
L 199.480166 226.519108 
L 202.657721 225.096975 
L 202.96775 224.957265 
L 203.910896 224.546025 
L 205.586329 223.815506 
L 207.375082 223.096005 
L 209.797359 222.121979 
L 212.213923 221.150538 
L 214.631983 220.179097 
L 217.055621 219.20371 
L 218.716907 218.536176 
L 222.283937 217.446518 
L 224.015282 216.961274 
L 226.241665 216.338496 
L 228.468049 215.715718 
L 230.694569 215.091579 
L 232.920953 214.468801 
L 234.756911 213.954581 
L 235.145977 213.846023 
L 236.066132 213.588369 
L 236.456151 213.479267 
L 238.354277 212.948178 
L 240.646367 212.306219 
L 243.089866 211.278186 
L 243.277733 211.200101 
L 243.465601 211.120655 
L 245.043632 210.457474 
L 245.78449 210.146085 
L 248.103243 209.171379 
L 248.29111 209.091933 
L 248.478978 209.012623 
L 250.609864 208.117227 
L 252.740886 207.220606 
L 252.928753 207.142657 
L 253.11662 207.063211 
L 254.275248 206.575246 
L 255.435373 206.088505 
L 256.43511 205.668286 
L 257.754126 205.113799 
L 257.941994 205.034489 
L 258.129861 204.955043 
L 260.44875 203.980337 
L 263.716363 202.606226 
L 265.035515 202.051875 
L 265.358097 203.088371 
L 265.927238 204.917089 
L 270.535225 202.979512 
L 271.095834 203.858448 
L 271.226565 204.063048 
L 271.888794 205.101147 
L 273.192166 207.144017 
L 274.21639 208.749255 
L 275.387398 210.586437 
L 275.678517 211.04325 
L 276.549291 212.408791 
L 277.140644 213.33602 
L 277.390545 213.727671 
L 278.602772 215.628654 
L 278.687523 215.75408 
L 279.159436 216.496707 
L 279.401038 216.877475 
L 280.065035 217.921424 
L 280.915403 219.254316 
L 281.525802 220.211337 
L 282.986705 222.502611 
L 283.90169 223.937667 
L 284.448832 224.795381 
L 286.555503 228.100132 
L 286.591145 228.155227 
L 286.819415 228.513957 
L 286.86458 228.584832 
L 287.390771 229.451797 
L 287.439609 229.528794 
L 287.670736 229.892421 
L 290.989906 235.102916 
L 292.453258 237.402488 
L 293.956332 239.762596 
L 295.418459 242.057951 
L 296.84753 244.301067 
L 295.741684 245.040429 
L 291.00419 248.208054 
L 291.95781 248.166019 
L 292.210431 248.154864 
L 292.885448 248.125072 
L 294.516669 248.053244 
L 297.567574 247.918159 
L 298.419575 248.039096 
L 298.904683 248.28097 
L 299.939246 248.809475 
L 300.769344 249.719019 
L 301.654817 250.689874 
L 298.084147 255.589304 
L 298.863337 255.023153 
L 299.345835 254.688248 
L 299.9111 254.313712 
L 300.242347 254.101064 
L 301.174518 253.521518 
L 302.360103 252.863967 
L 303.27836 252.468477 
L 303.615514 252.837807 
M 229.332193 258.333114 
L 229.526141 258.324382 
L 229.949828 257.468357 
L 230.676587 256.309634 
L 231.516028 255.229746 
L 232.459665 254.239611 
L 233.49796 253.349238 
L 233.965275 252.987632 
L 235.097267 252.200075 
L 236.303176 251.531168 
L 236.671331 251.373329 
L 235.662571 250.967995 
L 234.475087 250.34895 
L 233.354222 249.61615 
L 232.310838 248.776695 
L 231.355045 247.838721 
L 230.496106 246.811318 
L 229.742344 245.70444 
L 229.101064 244.528815 
L 228.578479 243.295835 
L 228.179654 242.017448 
L 227.978509 241.044795 
L 227.328444 241.261569 
L 226.040527 241.555955 
L 224.730128 241.724023 
L 223.409606 241.764189 
L 223.104698 241.758648 
L 222.799785 241.753107 
L 221.481023 241.664925 
L 220.177043 241.449182 
L 218.900154 241.107915 
L 217.662409 240.644346 
L 216.475492 240.06285 
L 216.019776 239.781722 
L 216.456415 240.756047 
L 216.880226 242.021482 
L 217.178008 243.322354 
L 217.346896 244.646144 
L 217.385264 245.980111 
L 217.326083 248.89289 
L 217.233764 250.222508 
L 217.011775 251.53671 
L 216.662248 252.822881 
L 216.188538 254.068676 
L 215.595191 255.262135 
L 215.273921 255.775262 
L 216.281368 255.719557 
L 217.660728 255.713325 
L 219.033629 255.846809 
L 220.385954 256.118635 
L 221.703801 256.526009 
L 222.97362 257.064743 
L 224.182356 257.729298 
L 225.31758 258.51284 
L 226.000421 259.094516 
L 226.718437 258.841285 
L 228.012852 258.523096 
L 229.332193 258.333114 
M 277.574521 282.672644 
L 278.65341 281.956906 
L 279.795456 281.346976 
L 280.990312 280.848377 
L 282.227156 280.465626 
L 283.494786 280.20219 
L 284.781717 280.060455 
L 286.076295 280.041705 
L 287.366792 280.14611 
L 288.641519 280.372724 
L 289.888929 280.719495 
L 290.416716 280.921994 
L 289.724045 280.077626 
L 288.988338 278.978209 
L 288.362893 277.812532 
L 287.853626 276.591619 
L 287.465352 275.327013 
L 287.201742 274.030675 
L 287.06529 272.714862 
L 287.057286 271.392017 
L 287.177805 270.074649 
L 287.366962 269.083146 
L 287.097002 269.430135 
L 286.22791 270.440854 
L 285.264072 271.361664 
L 284.214741 272.183721 
L 283.089994 272.899135 
L 281.900628 273.501035 
L 280.658065 273.983642 
L 279.374234 274.342323 
L 278.061462 274.573634 
L 276.732354 274.675353 
L 275.399672 274.646505 
L 274.076212 274.487366 
L 272.774679 274.199463 
L 271.507572 273.785563 
L 270.287057 273.249637 
L 269.124852 272.596833 
L 268.032116 271.833418 
L 263.275884 268.151087 
L 263.266518 268.143069 
L 262.788336 269.296295 
L 262.601302 269.693144 
L 261.963094 270.888901 
L 261.209063 272.015214 
L 260.346693 273.060902 
L 259.384545 274.015583 
L 259.286737 274.094972 
L 259.586836 274.469979 
L 260.314143 275.587825 
L 260.928499 276.771514 
L 261.424002 278.009671 
L 262.000504 279.683823 
L 262.522348 279.977078 
L 263.624497 280.748913 
L 264.645007 281.625852 
L 265.573894 282.599316 
L 266.402071 283.659782 
L 267.121434 284.796874 
L 267.724948 285.999469 
L 268.490427 287.733834 
L 268.977555 289.006584 
L 269.32943 290.301567 
L 269.345765 290.277687 
L 270.205284 289.253602 
L 270.287227 289.17347 
L 270.853735 288.334281 
L 271.705669 287.306213 
L 272.654281 286.366613 
L 273.690434 285.52453 
L 277.574521 282.672644 
" clip-path="url(#pd046cb48e3)" style="fill: #ff0000; fill-opacity: 0.7; stroke: #000000; stroke-opacity: 0.7; stroke-width: 0.5"/>
    <path d="M 116.660751 261.860742 
L 116.047627 261.042172 
L 116.03455 261.024713 
L 116.148155 261.030631 
L 117.492646 261.236676 
L 118.164422 261.409709 
L 116.660751 261.860742 
" clip-path="url(#pd046cb48e3)" style="fill: #ff0000; fill-opacity: 0.7; stroke: #000000; stroke-opacity: 0.7; stroke-width: 0.5"/>
    <path d="M 133.193617 281.58953 
L 131.423774 279.090119 
L 130.419956 277.67234 
L 119.076574 261.673962 
L 120.08657 262.045074 
L 121.310071 262.639344 
L 122.468111 263.352824 
L 123.549113 264.178382 
L 124.54227 265.107763 
L 125.437653 266.131677 
L 126.226311 267.239887 
L 126.90036 268.421314 
L 127.327669 269.265748 
L 127.783974 269.569769 
L 128.847574 270.445926 
L 129.81708 271.425189 
L 130.682544 272.497509 
L 133.849197 276.855449 
L 134.562752 277.943266 
L 135.169132 279.094269 
L 135.662791 280.297933 
L 136.039214 281.543249 
L 136.294959 282.818827 
L 136.427687 284.113002 
L 136.436183 285.413937 
L 136.351023 286.36678 
L 133.193617 281.58953 
" clip-path="url(#pd046cb48e3)" style="fill: #ff0000; fill-opacity: 0.7; stroke: #000000; stroke-opacity: 0.7; stroke-width: 0.5"/>
    <path d="M 136.012579 287.204055 
L 135.909327 287.052373 
L 135.815461 286.914568 
L 136.024278 286.803017 
L 136.326858 286.637154 
L 136.320371 286.709736 
L 136.181232 287.454029 
L 136.012579 287.204055 
" clip-path="url(#pd046cb48e3)" style="fill: #ff0000; fill-opacity: 0.7; stroke: #000000; stroke-opacity: 0.7; stroke-width: 0.5"/>
    <path d="M 171.535823 339.796832 
L 169.684902 337.058676 
L 166.052438 331.659906 
L 164.836674 329.85619 
L 163.265853 327.342495 
L 161.54852 324.59196 
L 160.653215 326.465865 
L 159.713465 325.054167 
L 158.899469 323.831377 
L 158.722348 323.565424 
L 158.773226 323.531143 
L 158.749556 323.493868 
L 159.133588 322.684991 
L 157.666092 320.46011 
L 158.569682 319.53711 
L 159.676225 318.622971 
L 160.872924 317.830507 
L 160.957026 317.780988 
L 162.255619 317.107662 
L 163.619 316.57766 
L 165.031407 316.197112 
L 165.12774 316.176641 
L 166.442933 315.963849 
L 167.772634 315.880728 
L 169.104089 315.928075 
L 169.202517 315.936415 
L 170.691828 316.146049 
L 172.148896 316.518804 
L 173.555911 317.050125 
L 173.646233 317.090068 
L 174.885365 317.715477 
L 176.054319 318.463898 
L 177.140924 319.327538 
L 177.214988 319.392839 
L 178.239383 320.396849 
L 179.152369 321.503139 
L 179.943795 322.699411 
L 179.993451 322.783825 
L 180.729358 324.224596 
L 181.128494 325.136113 
L 181.595978 326.361286 
L 181.943327 327.625778 
L 182.167313 328.917839 
L 182.265854 330.225462 
L 182.238036 331.536499 
L 182.084116 332.838766 
L 181.805525 334.120162 
L 181.669419 334.544309 
L 181.50631 335.192676 
L 181.086055 336.383344 
L 180.557215 337.529919 
L 180.196351 338.22548 
L 179.523061 339.38057 
L 178.739637 340.463989 
L 177.853645 341.465273 
L 176.873644 342.374749 
L 175.809099 343.183633 
L 174.670292 343.884112 
L 174.379467 344.02572 
L 171.535823 339.796832 
" clip-path="url(#pd046cb48e3)" style="fill: #ff0000; fill-opacity: 0.7; stroke: #000000; stroke-opacity: 0.7; stroke-width: 0.5"/>
    <path d="M 224.534943 398.793286 
L 224.50828 398.766895 
L 224.482841 398.744721 
L 224.423121 398.810155 
L 223.920192 398.309266 
L 222.995113 397.387094 
L 221.633197 396.029458 
L 221.579243 395.415182 
L 224.244657 397.939839 
L 224.801051 398.519195 
L 224.534943 398.793286 
" clip-path="url(#pd046cb48e3)" style="fill: #ff0000; fill-opacity: 0.7; stroke: #000000; stroke-opacity: 0.7; stroke-width: 0.5"/>
   </g>
   <g id="matplotlib.axis_1">
    <g id="xtick_1">
     <g id="line2d_1">
      <defs>
       <path id="mcff5693b1a" d="M 0 0 
L 0 3.5 
" style="stroke: #000000; stroke-width: 0.8"/>
      </defs>
      <g>
       <use xlink:href="#mcff5693b1a" x="147.773126" y="541.302938" style="stroke: #000000; stroke-width: 0.8"/>
      </g>
     </g>
     <g id="text_1">
      <!-- 386500 -->
      <g transform="translate(128.685626 555.901375) scale(0.1 -0.1)">
       <defs>
        <path id="DejaVuSans-33" d="M 2597 2516 
Q 3050 2419 3304 2112 
Q 3559 1806 3559 1356 
Q 3559 666 3084 287 
Q 2609 -91 1734 -91 
Q 1441 -91 1130 -33 
Q 819 25 488 141 
L 488 750 
Q 750 597 1062 519 
Q 1375 441 1716 441 
Q 2309 441 2620 675 
Q 2931 909 2931 1356 
Q 2931 1769 2642 2001 
Q 2353 2234 1838 2234 
L 1294 2234 
L 1294 2753 
L 1863 2753 
Q 2328 2753 2575 2939 
Q 2822 3125 2822 3475 
Q 2822 3834 2567 4026 
Q 2313 4219 1838 4219 
Q 1578 4219 1281 4162 
Q 984 4106 628 3988 
L 628 4550 
Q 988 4650 1302 4700 
Q 1616 4750 1894 4750 
Q 2613 4750 3031 4423 
Q 3450 4097 3450 3541 
Q 3450 3153 3228 2886 
Q 3006 2619 2597 2516 
z
" transform="scale(0.015625)"/>
        <path id="DejaVuSans-38" d="M 2034 2216 
Q 1584 2216 1326 1975 
Q 1069 1734 1069 1313 
Q 1069 891 1326 650 
Q 1584 409 2034 409 
Q 2484 409 2743 651 
Q 3003 894 3003 1313 
Q 3003 1734 2745 1975 
Q 2488 2216 2034 2216 
z
M 1403 2484 
Q 997 2584 770 2862 
Q 544 3141 544 3541 
Q 544 4100 942 4425 
Q 1341 4750 2034 4750 
Q 2731 4750 3128 4425 
Q 3525 4100 3525 3541 
Q 3525 3141 3298 2862 
Q 3072 2584 2669 2484 
Q 3125 2378 3379 2068 
Q 3634 1759 3634 1313 
Q 3634 634 3220 271 
Q 2806 -91 2034 -91 
Q 1263 -91 848 271 
Q 434 634 434 1313 
Q 434 1759 690 2068 
Q 947 2378 1403 2484 
z
M 1172 3481 
Q 1172 3119 1398 2916 
Q 1625 2713 2034 2713 
Q 2441 2713 2670 2916 
Q 2900 3119 2900 3481 
Q 2900 3844 2670 4047 
Q 2441 4250 2034 4250 
Q 1625 4250 1398 4047 
Q 1172 3844 1172 3481 
z
" transform="scale(0.015625)"/>
        <path id="DejaVuSans-36" d="M 2113 2584 
Q 1688 2584 1439 2293 
Q 1191 2003 1191 1497 
Q 1191 994 1439 701 
Q 1688 409 2113 409 
Q 2538 409 2786 701 
Q 3034 994 3034 1497 
Q 3034 2003 2786 2293 
Q 2538 2584 2113 2584 
z
M 3366 4563 
L 3366 3988 
Q 3128 4100 2886 4159 
Q 2644 4219 2406 4219 
Q 1781 4219 1451 3797 
Q 1122 3375 1075 2522 
Q 1259 2794 1537 2939 
Q 1816 3084 2150 3084 
Q 2853 3084 3261 2657 
Q 3669 2231 3669 1497 
Q 3669 778 3244 343 
Q 2819 -91 2113 -91 
Q 1303 -91 875 529 
Q 447 1150 447 2328 
Q 447 3434 972 4092 
Q 1497 4750 2381 4750 
Q 2619 4750 2861 4703 
Q 3103 4656 3366 4563 
z
" transform="scale(0.015625)"/>
        <path id="DejaVuSans-35" d="M 691 4666 
L 3169 4666 
L 3169 4134 
L 1269 4134 
L 1269 2991 
Q 1406 3038 1543 3061 
Q 1681 3084 1819 3084 
Q 2600 3084 3056 2656 
Q 3513 2228 3513 1497 
Q 3513 744 3044 326 
Q 2575 -91 1722 -91 
Q 1428 -91 1123 -41 
Q 819 9 494 109 
L 494 744 
Q 775 591 1075 516 
Q 1375 441 1709 441 
Q 2250 441 2565 725 
Q 2881 1009 2881 1497 
Q 2881 1984 2565 2268 
Q 2250 2553 1709 2553 
Q 1456 2553 1204 2497 
Q 953 2441 691 2322 
L 691 4666 
z
" transform="scale(0.015625)"/>
        <path id="DejaVuSans-30" d="M 2034 4250 
Q 1547 4250 1301 3770 
Q 1056 3291 1056 2328 
Q 1056 1369 1301 889 
Q 1547 409 2034 409 
Q 2525 409 2770 889 
Q 3016 1369 3016 2328 
Q 3016 3291 2770 3770 
Q 2525 4250 2034 4250 
z
M 2034 4750 
Q 2819 4750 3233 4129 
Q 3647 3509 3647 2328 
Q 3647 1150 3233 529 
Q 2819 -91 2034 -91 
Q 1250 -91 836 529 
Q 422 1150 422 2328 
Q 422 3509 836 4129 
Q 1250 4750 2034 4750 
z
" transform="scale(0.015625)"/>
       </defs>
       <use xlink:href="#DejaVuSans-33"/>
       <use xlink:href="#DejaVuSans-38" x="63.623047"/>
       <use xlink:href="#DejaVuSans-36" x="127.246094"/>
       <use xlink:href="#DejaVuSans-35" x="190.869141"/>
       <use xlink:href="#DejaVuSans-30" x="254.492188"/>
       <use xlink:href="#DejaVuSans-30" x="318.115234"/>
      </g>
     </g>
    </g>
    <g id="xtick_2">
     <g id="line2d_2">
      <g>
       <use xlink:href="#mcff5693b1a" x="215.7917" y="541.302938" style="stroke: #000000; stroke-width: 0.8"/>
      </g>
     </g>
     <g id="text_2">
      <!-- 387000 -->
      <g transform="translate(196.7042 555.901375) scale(0.1 -0.1)">
       <defs>
        <path id="DejaVuSans-37" d="M 525 4666 
L 3525 4666 
L 3525 4397 
L 1831 0 
L 1172 0 
L 2766 4134 
L 525 4134 
L 525 4666 
z
" transform="scale(0.015625)"/>
       </defs>
       <use xlink:href="#DejaVuSans-33"/>
       <use xlink:href="#DejaVuSans-38" x="63.623047"/>
       <use xlink:href="#DejaVuSans-37" x="127.246094"/>
       <use xlink:href="#DejaVuSans-30" x="190.869141"/>
       <use xlink:href="#DejaVuSans-30" x="254.492188"/>
       <use xlink:href="#DejaVuSans-30" x="318.115234"/>
      </g>
     </g>
    </g>
    <g id="xtick_3">
     <g id="line2d_3">
      <g>
       <use xlink:href="#mcff5693b1a" x="283.810274" y="541.302938" style="stroke: #000000; stroke-width: 0.8"/>
      </g>
     </g>
     <g id="text_3">
      <!-- 387500 -->
      <g transform="translate(264.722774 555.901375) scale(0.1 -0.1)">
       <use xlink:href="#DejaVuSans-33"/>
       <use xlink:href="#DejaVuSans-38" x="63.623047"/>
       <use xlink:href="#DejaVuSans-37" x="127.246094"/>
       <use xlink:href="#DejaVuSans-35" x="190.869141"/>
       <use xlink:href="#DejaVuSans-30" x="254.492188"/>
       <use xlink:href="#DejaVuSans-30" x="318.115234"/>
      </g>
     </g>
    </g>
    <g id="xtick_4">
     <g id="line2d_4">
      <g>
       <use xlink:href="#mcff5693b1a" x="351.828847" y="541.302938" style="stroke: #000000; stroke-width: 0.8"/>
      </g>
     </g>
     <g id="text_4">
      <!-- 388000 -->
      <g transform="translate(332.741347 555.901375) scale(0.1 -0.1)">
       <use xlink:href="#DejaVuSans-33"/>
       <use xlink:href="#DejaVuSans-38" x="63.623047"/>
       <use xlink:href="#DejaVuSans-38" x="127.246094"/>
       <use xlink:href="#DejaVuSans-30" x="190.869141"/>
       <use xlink:href="#DejaVuSans-30" x="254.492188"/>
       <use xlink:href="#DejaVuSans-30" x="318.115234"/>
      </g>
     </g>
    </g>
    <g id="xtick_5">
     <g id="line2d_5">
      <g>
       <use xlink:href="#mcff5693b1a" x="419.847421" y="541.302938" style="stroke: #000000; stroke-width: 0.8"/>
      </g>
     </g>
     <g id="text_5">
      <!-- 388500 -->
      <g transform="translate(400.759921 555.901375) scale(0.1 -0.1)">
       <use xlink:href="#DejaVuSans-33"/>
       <use xlink:href="#DejaVuSans-38" x="63.623047"/>
       <use xlink:href="#DejaVuSans-38" x="127.246094"/>
       <use xlink:href="#DejaVuSans-35" x="190.869141"/>
       <use xlink:href="#DejaVuSans-30" x="254.492188"/>
       <use xlink:href="#DejaVuSans-30" x="318.115234"/>
      </g>
     </g>
    </g>
    <g id="xtick_6">
     <g id="line2d_6">
      <g>
       <use xlink:href="#mcff5693b1a" x="487.865994" y="541.302938" style="stroke: #000000; stroke-width: 0.8"/>
      </g>
     </g>
     <g id="text_6">
      <!-- 389000 -->
      <g transform="translate(468.778494 555.901375) scale(0.1 -0.1)">
       <defs>
        <path id="DejaVuSans-39" d="M 703 97 
L 703 672 
Q 941 559 1184 500 
Q 1428 441 1663 441 
Q 2288 441 2617 861 
Q 2947 1281 2994 2138 
Q 2813 1869 2534 1725 
Q 2256 1581 1919 1581 
Q 1219 1581 811 2004 
Q 403 2428 403 3163 
Q 403 3881 828 4315 
Q 1253 4750 1959 4750 
Q 2769 4750 3195 4129 
Q 3622 3509 3622 2328 
Q 3622 1225 3098 567 
Q 2575 -91 1691 -91 
Q 1453 -91 1209 -44 
Q 966 3 703 97 
z
M 1959 2075 
Q 2384 2075 2632 2365 
Q 2881 2656 2881 3163 
Q 2881 3666 2632 3958 
Q 2384 4250 1959 4250 
Q 1534 4250 1286 3958 
Q 1038 3666 1038 3163 
Q 1038 2656 1286 2365 
Q 1534 2075 1959 2075 
z
" transform="scale(0.015625)"/>
       </defs>
       <use xlink:href="#DejaVuSans-33"/>
       <use xlink:href="#DejaVuSans-38" x="63.623047"/>
       <use xlink:href="#DejaVuSans-39" x="127.246094"/>
       <use xlink:href="#DejaVuSans-30" x="190.869141"/>
       <use xlink:href="#DejaVuSans-30" x="254.492188"/>
       <use xlink:href="#DejaVuSans-30" x="318.115234"/>
      </g>
     </g>
    </g>
    <g id="xtick_7">
     <g id="line2d_7">
      <g>
       <use xlink:href="#mcff5693b1a" x="555.884568" y="541.302938" style="stroke: #000000; stroke-width: 0.8"/>
      </g>
     </g>
     <g id="text_7">
      <!-- 389500 -->
      <g transform="translate(536.797068 555.901375) scale(0.1 -0.1)">
       <use xlink:href="#DejaVuSans-33"/>
       <use xlink:href="#DejaVuSans-38" x="63.623047"/>
       <use xlink:href="#DejaVuSans-39" x="127.246094"/>
       <use xlink:href="#DejaVuSans-35" x="190.869141"/>
       <use xlink:href="#DejaVuSans-30" x="254.492188"/>
       <use xlink:href="#DejaVuSans-30" x="318.115234"/>
      </g>
     </g>
    </g>
    <g id="xtick_8">
     <g id="line2d_8">
      <g>
       <use xlink:href="#mcff5693b1a" x="623.903142" y="541.302938" style="stroke: #000000; stroke-width: 0.8"/>
      </g>
     </g>
     <g id="text_8">
      <!-- 390000 -->
      <g transform="translate(604.815642 555.901375) scale(0.1 -0.1)">
       <use xlink:href="#DejaVuSans-33"/>
       <use xlink:href="#DejaVuSans-39" x="63.623047"/>
       <use xlink:href="#DejaVuSans-30" x="127.246094"/>
       <use xlink:href="#DejaVuSans-30" x="190.869141"/>
       <use xlink:href="#DejaVuSans-30" x="254.492188"/>
       <use xlink:href="#DejaVuSans-30" x="318.115234"/>
      </g>
     </g>
    </g>
   </g>
   <g id="matplotlib.axis_2">
    <g id="ytick_1">
     <g id="line2d_9">
      <defs>
       <path id="m26af51033a" d="M 0 0 
L -3.5 0 
" style="stroke: #000000; stroke-width: 0.8"/>
      </defs>
      <g>
       <use xlink:href="#m26af51033a" x="90" y="518.968502" style="stroke: #000000; stroke-width: 0.8"/>
      </g>
     </g>
     <g id="text_9">
      <!-- 5.8280 -->
      <g transform="translate(48.009375 522.767721) scale(0.1 -0.1)">
       <defs>
        <path id="DejaVuSans-2e" d="M 684 794 
L 1344 794 
L 1344 0 
L 684 0 
L 684 794 
z
" transform="scale(0.015625)"/>
        <path id="DejaVuSans-32" d="M 1228 531 
L 3431 531 
L 3431 0 
L 469 0 
L 469 531 
Q 828 903 1448 1529 
Q 2069 2156 2228 2338 
Q 2531 2678 2651 2914 
Q 2772 3150 2772 3378 
Q 2772 3750 2511 3984 
Q 2250 4219 1831 4219 
Q 1534 4219 1204 4116 
Q 875 4013 500 3803 
L 500 4441 
Q 881 4594 1212 4672 
Q 1544 4750 1819 4750 
Q 2544 4750 2975 4387 
Q 3406 4025 3406 3419 
Q 3406 3131 3298 2873 
Q 3191 2616 2906 2266 
Q 2828 2175 2409 1742 
Q 1991 1309 1228 531 
z
" transform="scale(0.015625)"/>
       </defs>
       <use xlink:href="#DejaVuSans-35"/>
       <use xlink:href="#DejaVuSans-2e" x="63.623047"/>
       <use xlink:href="#DejaVuSans-38" x="95.410156"/>
       <use xlink:href="#DejaVuSans-32" x="159.033203"/>
       <use xlink:href="#DejaVuSans-38" x="222.65625"/>
       <use xlink:href="#DejaVuSans-30" x="286.279297"/>
      </g>
     </g>
    </g>
    <g id="ytick_2">
     <g id="line2d_10">
      <g>
       <use xlink:href="#m26af51033a" x="90" y="450.949928" style="stroke: #000000; stroke-width: 0.8"/>
      </g>
     </g>
     <g id="text_10">
      <!-- 5.8285 -->
      <g transform="translate(48.009375 454.749147) scale(0.1 -0.1)">
       <use xlink:href="#DejaVuSans-35"/>
       <use xlink:href="#DejaVuSans-2e" x="63.623047"/>
       <use xlink:href="#DejaVuSans-38" x="95.410156"/>
       <use xlink:href="#DejaVuSans-32" x="159.033203"/>
       <use xlink:href="#DejaVuSans-38" x="222.65625"/>
       <use xlink:href="#DejaVuSans-35" x="286.279297"/>
      </g>
     </g>
    </g>
    <g id="ytick_3">
     <g id="line2d_11">
      <g>
       <use xlink:href="#m26af51033a" x="90" y="382.931355" style="stroke: #000000; stroke-width: 0.8"/>
      </g>
     </g>
     <g id="text_11">
      <!-- 5.8290 -->
      <g transform="translate(48.009375 386.730573) scale(0.1 -0.1)">
       <use xlink:href="#DejaVuSans-35"/>
       <use xlink:href="#DejaVuSans-2e" x="63.623047"/>
       <use xlink:href="#DejaVuSans-38" x="95.410156"/>
       <use xlink:href="#DejaVuSans-32" x="159.033203"/>
       <use xlink:href="#DejaVuSans-39" x="222.65625"/>
       <use xlink:href="#DejaVuSans-30" x="286.279297"/>
      </g>
     </g>
    </g>
    <g id="ytick_4">
     <g id="line2d_12">
      <g>
       <use xlink:href="#m26af51033a" x="90" y="314.912781" style="stroke: #000000; stroke-width: 0.8"/>
      </g>
     </g>
     <g id="text_12">
      <!-- 5.8295 -->
      <g transform="translate(48.009375 318.712) scale(0.1 -0.1)">
       <use xlink:href="#DejaVuSans-35"/>
       <use xlink:href="#DejaVuSans-2e" x="63.623047"/>
       <use xlink:href="#DejaVuSans-38" x="95.410156"/>
       <use xlink:href="#DejaVuSans-32" x="159.033203"/>
       <use xlink:href="#DejaVuSans-39" x="222.65625"/>
       <use xlink:href="#DejaVuSans-35" x="286.279297"/>
      </g>
     </g>
    </g>
    <g id="ytick_5">
     <g id="line2d_13">
      <g>
       <use xlink:href="#m26af51033a" x="90" y="246.894208" style="stroke: #000000; stroke-width: 0.8"/>
      </g>
     </g>
     <g id="text_13">
      <!-- 5.8300 -->
      <g transform="translate(48.009375 250.693426) scale(0.1 -0.1)">
       <use xlink:href="#DejaVuSans-35"/>
       <use xlink:href="#DejaVuSans-2e" x="63.623047"/>
       <use xlink:href="#DejaVuSans-38" x="95.410156"/>
       <use xlink:href="#DejaVuSans-33" x="159.033203"/>
       <use xlink:href="#DejaVuSans-30" x="222.65625"/>
       <use xlink:href="#DejaVuSans-30" x="286.279297"/>
      </g>
     </g>
    </g>
    <g id="text_14">
     <!-- 1e6 -->
     <g transform="translate(90 182.897062) scale(0.1 -0.1)">
      <defs>
       <path id="DejaVuSans-31" d="M 794 531 
L 1825 531 
L 1825 4091 
L 703 3866 
L 703 4441 
L 1819 4666 
L 2450 4666 
L 2450 531 
L 3481 531 
L 3481 0 
L 794 0 
L 794 531 
z
" transform="scale(0.015625)"/>
       <path id="DejaVuSans-65" d="M 3597 1894 
L 3597 1613 
L 953 1613 
Q 991 1019 1311 708 
Q 1631 397 2203 397 
Q 2534 397 2845 478 
Q 3156 559 3463 722 
L 3463 178 
Q 3153 47 2828 -22 
Q 2503 -91 2169 -91 
Q 1331 -91 842 396 
Q 353 884 353 1716 
Q 353 2575 817 3079 
Q 1281 3584 2069 3584 
Q 2775 3584 3186 3129 
Q 3597 2675 3597 1894 
z
M 3022 2063 
Q 3016 2534 2758 2815 
Q 2500 3097 2075 3097 
Q 1594 3097 1305 2825 
Q 1016 2553 972 2059 
L 3022 2063 
z
" transform="scale(0.015625)"/>
      </defs>
      <use xlink:href="#DejaVuSans-31"/>
      <use xlink:href="#DejaVuSans-65" x="63.623047"/>
      <use xlink:href="#DejaVuSans-36" x="125.146484"/>
     </g>
    </g>
   </g>
   <g id="patch_3">
    <path d="M 90 541.302938 
L 90 185.897062 
" style="fill: none; stroke: #000000; stroke-width: 0.8; stroke-linejoin: miter; stroke-linecap: square"/>
   </g>
   <g id="patch_4">
    <path d="M 648 541.302938 
L 648 185.897062 
" style="fill: none; stroke: #000000; stroke-width: 0.8; stroke-linejoin: miter; stroke-linecap: square"/>
   </g>
   <g id="patch_5">
    <path d="M 90 541.302938 
L 648 541.302938 
" style="fill: none; stroke: #000000; stroke-width: 0.8; stroke-linejoin: miter; stroke-linecap: square"/>
   </g>
   <g id="patch_6">
    <path d="M 90 185.897062 
L 648 185.897062 
" style="fill: none; stroke: #000000; stroke-width: 0.8; stroke-linejoin: miter; stroke-linecap: square"/>
   </g>
   <g id="text_15">
    <!-- Mrkisches_Viertel -->
    <g transform="translate(318.744117 363.908298) scale(0.12 -0.12)">
     <defs>
      <path id="DejaVuSans-4d" d="M 628 4666 
L 1569 4666 
L 2759 1491 
L 3956 4666 
L 4897 4666 
L 4897 0 
L 4281 0 
L 4281 4097 
L 3078 897 
L 2444 897 
L 1241 4097 
L 1241 0 
L 628 0 
L 628 4666 
z
" transform="scale(0.015625)"/>
      <path id="DejaVuSans-e4" d="M 2194 1759 
Q 1497 1759 1228 1600 
Q 959 1441 959 1056 
Q 959 750 1161 570 
Q 1363 391 1709 391 
Q 2188 391 2477 730 
Q 2766 1069 2766 1631 
L 2766 1759 
L 2194 1759 
z
M 3341 1997 
L 3341 0 
L 2766 0 
L 2766 531 
Q 2569 213 2275 61 
Q 1981 -91 1556 -91 
Q 1019 -91 701 211 
Q 384 513 384 1019 
Q 384 1609 779 1909 
Q 1175 2209 1959 2209 
L 2766 2209 
L 2766 2266 
Q 2766 2663 2505 2880 
Q 2244 3097 1772 3097 
Q 1472 3097 1187 3025 
Q 903 2953 641 2809 
L 641 3341 
Q 956 3463 1253 3523 
Q 1550 3584 1831 3584 
Q 2591 3584 2966 3190 
Q 3341 2797 3341 1997 
z
M 2150 4850 
L 2784 4850 
L 2784 4219 
L 2150 4219 
L 2150 4850 
z
M 928 4850 
L 1563 4850 
L 1563 4219 
L 928 4219 
L 928 4850 
z
" transform="scale(0.015625)"/>
      <path id="DejaVuSans-72" d="M 2631 2963 
Q 2534 3019 2420 3045 
Q 2306 3072 2169 3072 
Q 1681 3072 1420 2755 
Q 1159 2438 1159 1844 
L 1159 0 
L 581 0 
L 581 3500 
L 1159 3500 
L 1159 2956 
Q 1341 3275 1631 3429 
Q 1922 3584 2338 3584 
Q 2397 3584 2469 3576 
Q 2541 3569 2628 3553 
L 2631 2963 
z
" transform="scale(0.015625)"/>
      <path id="DejaVuSans-6b" d="M 581 4863 
L 1159 4863 
L 1159 1991 
L 2875 3500 
L 3609 3500 
L 1753 1863 
L 3688 0 
L 2938 0 
L 1159 1709 
L 1159 0 
L 581 0 
L 581 4863 
z
" transform="scale(0.015625)"/>
      <path id="DejaVuSans-69" d="M 603 3500 
L 1178 3500 
L 1178 0 
L 603 0 
L 603 3500 
z
M 603 4863 
L 1178 4863 
L 1178 4134 
L 603 4134 
L 603 4863 
z
" transform="scale(0.015625)"/>
      <path id="DejaVuSans-73" d="M 2834 3397 
L 2834 2853 
Q 2591 2978 2328 3040 
Q 2066 3103 1784 3103 
Q 1356 3103 1142 2972 
Q 928 2841 928 2578 
Q 928 2378 1081 2264 
Q 1234 2150 1697 2047 
L 1894 2003 
Q 2506 1872 2764 1633 
Q 3022 1394 3022 966 
Q 3022 478 2636 193 
Q 2250 -91 1575 -91 
Q 1294 -91 989 -36 
Q 684 19 347 128 
L 347 722 
Q 666 556 975 473 
Q 1284 391 1588 391 
Q 1994 391 2212 530 
Q 2431 669 2431 922 
Q 2431 1156 2273 1281 
Q 2116 1406 1581 1522 
L 1381 1569 
Q 847 1681 609 1914 
Q 372 2147 372 2553 
Q 372 3047 722 3315 
Q 1072 3584 1716 3584 
Q 2034 3584 2315 3537 
Q 2597 3491 2834 3397 
z
" transform="scale(0.015625)"/>
      <path id="DejaVuSans-63" d="M 3122 3366 
L 3122 2828 
Q 2878 2963 2633 3030 
Q 2388 3097 2138 3097 
Q 1578 3097 1268 2742 
Q 959 2388 959 1747 
Q 959 1106 1268 751 
Q 1578 397 2138 397 
Q 2388 397 2633 464 
Q 2878 531 3122 666 
L 3122 134 
Q 2881 22 2623 -34 
Q 2366 -91 2075 -91 
Q 1284 -91 818 406 
Q 353 903 353 1747 
Q 353 2603 823 3093 
Q 1294 3584 2113 3584 
Q 2378 3584 2631 3529 
Q 2884 3475 3122 3366 
z
" transform="scale(0.015625)"/>
      <path id="DejaVuSans-68" d="M 3513 2113 
L 3513 0 
L 2938 0 
L 2938 2094 
Q 2938 2591 2744 2837 
Q 2550 3084 2163 3084 
Q 1697 3084 1428 2787 
Q 1159 2491 1159 1978 
L 1159 0 
L 581 0 
L 581 4863 
L 1159 4863 
L 1159 2956 
Q 1366 3272 1645 3428 
Q 1925 3584 2291 3584 
Q 2894 3584 3203 3211 
Q 3513 2838 3513 2113 
z
" transform="scale(0.015625)"/>
      <path id="DejaVuSans-5f" d="M 3263 -1063 
L 3263 -1509 
L -63 -1509 
L -63 -1063 
L 3263 -1063 
z
" transform="scale(0.015625)"/>
      <path id="DejaVuSans-56" d="M 1831 0 
L 50 4666 
L 709 4666 
L 2188 738 
L 3669 4666 
L 4325 4666 
L 2547 0 
L 1831 0 
z
" transform="scale(0.015625)"/>
      <path id="DejaVuSans-74" d="M 1172 4494 
L 1172 3500 
L 2356 3500 
L 2356 3053 
L 1172 3053 
L 1172 1153 
Q 1172 725 1289 603 
Q 1406 481 1766 481 
L 2356 481 
L 2356 0 
L 1766 0 
Q 1100 0 847 248 
Q 594 497 594 1153 
L 594 3053 
L 172 3053 
L 172 3500 
L 594 3500 
L 594 4494 
L 1172 4494 
z
" transform="scale(0.015625)"/>
      <path id="DejaVuSans-6c" d="M 603 4863 
L 1178 4863 
L 1178 0 
L 603 0 
L 603 4863 
z
" transform="scale(0.015625)"/>
     </defs>
     <use xlink:href="#DejaVuSans-4d"/>
     <use xlink:href="#DejaVuSans-e4" x="86.279297"/>
     <use xlink:href="#DejaVuSans-72" x="147.558594"/>
     <use xlink:href="#DejaVuSans-6b" x="188.671875"/>
     <use xlink:href="#DejaVuSans-69" x="246.582031"/>
     <use xlink:href="#DejaVuSans-73" x="274.365234"/>
     <use xlink:href="#DejaVuSans-63" x="326.464844"/>
     <use xlink:href="#DejaVuSans-68" x="381.445312"/>
     <use xlink:href="#DejaVuSans-65" x="444.824219"/>
     <use xlink:href="#DejaVuSans-73" x="506.347656"/>
     <use xlink:href="#DejaVuSans-5f" x="558.447266"/>
     <use xlink:href="#DejaVuSans-56" x="608.447266"/>
     <use xlink:href="#DejaVuSans-69" x="674.605469"/>
     <use xlink:href="#DejaVuSans-65" x="702.388672"/>
     <use xlink:href="#DejaVuSans-72" x="763.912109"/>
     <use xlink:href="#DejaVuSans-74" x="805.025391"/>
     <use xlink:href="#DejaVuSans-65" x="844.234375"/>
     <use xlink:href="#DejaVuSans-6c" x="905.757812"/>
    </g>
   </g>
  </g>
 </g>
 <defs>
  <clipPath id="pd046cb48e3">
   <rect x="90" y="185.897062" width="558" height="355.405876"/>
  </clipPath>
 </defs>
</svg>
