<?xml version="1.0" encoding="utf-8" standalone="no"?>
<!DOCTYPE svg PUBLIC "-//W3C//DTD SVG 1.1//EN"
  "http://www.w3.org/Graphics/SVG/1.1/DTD/svg11.dtd">
<svg xmlns:xlink="http://www.w3.org/1999/xlink" width="720pt" height="720pt" viewBox="0 0 720 720" xmlns="http://www.w3.org/2000/svg" version="1.1">
 <metadata>
  <rdf:RDF xmlns:dc="http://purl.org/dc/elements/1.1/" xmlns:cc="http://creativecommons.org/ns#" xmlns:rdf="http://www.w3.org/1999/02/22-rdf-syntax-ns#">
   <cc:Work>
    <dc:type rdf:resource="http://purl.org/dc/dcmitype/StillImage"/>
    <dc:date>2024-10-15T09:51:43.925250</dc:date>
    <dc:format>image/svg+xml</dc:format>
    <dc:creator>
     <cc:Agent>
      <dc:title>Matplotlib v3.8.4, https://matplotlib.org/</dc:title>
     </cc:Agent>
    </dc:creator>
   </cc:Work>
  </rdf:RDF>
 </metadata>
 <defs>
  <style type="text/css">*{stroke-linejoin: round; stroke-linecap: butt}</style>
 </defs>
 <g id="figure_1">
  <g id="patch_1">
   <path d="M 0 720 
L 720 720 
L 720 0 
L 0 0 
z
" style="fill: #ffffff"/>
  </g>
  <g id="axes_1">
   <g id="patch_2">
    <path d="M 99.886282 640.8 
L 638.113718 640.8 
L 638.113718 86.4 
L 99.886282 86.4 
z
" style="fill: #ffffff"/>
   </g>
   <g id="PatchCollection_1">
    <path d="M 128.79086 289.337092 
L 129.079708 292.109075 
L 129.334322 294.552518 
L 128.230463 294.416075 
L 127.911583 312.873961 
L 127.865589 315.537964 
L 127.860585 315.805462 
L 127.816708 318.313777 
L 127.80189 319.19113 
L 127.743387 322.581224 
L 127.17202 355.70277 
L 127.065791 361.856168 
L 128.173884 361.87522 
L 126.508666 368.825914 
L 126.198638 370.119908 
L 125.924983 371.26726 
L 125.864748 374.084641 
L 125.294151 400.801263 
L 125.555298 402.345434 
L 125.952503 404.693829 
L 126.583334 408.371242 
L 126.47672 413.370554 
L 125.009527 418.507078 
L 124.929855 422.286294 
L 124.708737 432.754096 
L 124.642536 435.895745 
L 124.532488 441.832765 
L 124.532458 441.834376 
L 124.410063 447.529181 
L 124.351165 450.262237 
L 127.443944 449.899899 
L 130.519585 449.560235 
L 133.59715 449.239238 
L 136.67664 448.936716 
L 139.757861 448.652861 
L 142.840815 448.387481 
L 145.925308 448.14096 
L 149.011149 447.912914 
L 149.21283 448.017988 
L 149.350812 449.49134 
L 154.625319 449.049296 
L 158.365854 448.504679 
L 159.368872 448.363041 
L 160.374393 448.240839 
L 161.38203 448.138266 
L 162.391399 448.05513 
L 163.402307 447.991624 
L 164.414371 447.947746 
L 165.427011 447.923691 
L 166.439844 447.919072 
L 166.448312 448.128451 
L 185.851291 448.52989 
L 186.806968 448.567416 
L 188.324774 448.388443 
L 189.69844 448.363233 
L 192.190013 448.262777 
L 196.786731 447.66062 
L 199.82831 447.65196 
L 200.806695 447.70161 
L 201.783349 447.776279 
L 202.757885 447.87558 
L 203.729535 447.999899 
L 204.697722 448.148658 
L 205.661866 448.32205 
L 206.621392 448.519883 
L 207.575337 448.742155 
L 207.717101 448.779013 
L 208.137082 453.981637 
L 210.395396 456.29021 
L 211.934659 457.863729 
L 212.575431 457.909709 
L 213.934074 458.003333 
L 215.050529 458.073972 
L 215.700066 458.115068 
L 216.337232 458.153547 
L 217.517339 458.22048 
L 218.721856 458.285215 
L 219.670848 458.33275 
L 220.305704 458.36455 
L 221.497761 458.416468 
L 222.431056 458.457116 
L 223.274283 458.465891 
L 224.588801 458.484121 
L 225.537405 458.511494 
L 226.833436 458.54474 
L 227.883745 458.568815 
L 229.53222 458.597795 
L 230.608487 458.612247 
L 232.377632 458.628789 
L 233.79199 458.635897 
L 234.890336 458.636207 
L 235.626175 458.634357 
L 235.98566 458.63301 
L 236.262972 458.620886 
L 237.742097 458.558726 
L 239.032242 458.510038 
L 241.22341 458.439988 
L 242.475066 458.402077 
L 242.486613 458.400345 
L 243.778874 458.344151 
L 243.825831 458.341457 
L 244.605229 458.294501 
L 246.637438 457.584575 
L 246.935919 457.466991 
L 247.827512 457.130022 
L 248.993531 456.693366 
L 251.333651 455.816976 
L 251.358861 455.807354 
L 252.527573 455.368197 
L 253.719379 454.929039 
L 256.021973 454.056883 
L 257.206081 453.615609 
L 258.429063 453.153935 
L 260.508998 452.364145 
L 262.906658 451.451383 
L 264.29418 450.935055 
L 265.681894 450.416996 
L 266.377579 450.1622 
L 268.800025 449.172983 
L 272.240195 447.768196 
L 273.515329 447.249174 
L 273.933318 447.079054 
L 275.201524 446.608528 
L 276.922551 445.969614 
L 278.159966 445.51025 
L 279.310397 445.076481 
L 281.730766 444.167568 
L 282.89486 443.72995 
L 284.023929 443.34487 
L 286.478168 442.507738 
L 287.680174 442.097447 
L 289.610003 441.440636 
L 292.00189 440.612164 
L 293.098821 440.229393 
L 293.645939 440.028289 
L 294.423413 439.742702 
L 295.36177 439.398035 
L 296.708879 438.902876 
L 297.790607 438.507019 
L 300.15151 437.636209 
L 301.714156 437.073503 
L 302.863624 436.633576 
L 304.949333 435.824349 
L 306.021439 435.414635 
L 307.106438 434.996069 
L 309.265276 434.130456 
L 310.34277 433.710736 
L 311.506479 433.257145 
L 313.849678 432.314169 
L 314.981441 431.858846 
L 316.18922 431.389283 
L 318.087488 430.642023 
L 319.422088 430.125695 
L 320.49939 428.881545 
L 320.871769 428.509743 
L 321.716406 427.554643 
L 322.491378 426.672287 
L 323.613327 425.472398 
L 324.064993 424.877169 
L 324.089626 424.895451 
L 324.112334 424.868894 
L 324.147359 424.893334 
L 324.466624 424.482658 
L 324.427173 424.451867 
L 324.446994 424.423386 
L 324.421977 424.403949 
L 325.157883 423.424216 
L 329.663383 419.103462 
L 330.324813 419.606511 
L 331.422706 420.441718 
L 332.006966 420.886072 
L 332.146488 420.992301 
L 332.743065 421.446084 
L 332.880855 421.550773 
L 333.477816 422.004941 
L 333.628115 422.119445 
L 334.310907 422.638852 
L 334.453893 422.74739 
L 334.80722 423.016235 
L 334.968488 423.136705 
L 335.057012 423.200981 
L 335.149001 423.260061 
L 335.24426 423.313946 
L 335.342214 423.362442 
L 335.443055 423.405164 
L 335.54582 423.442113 
L 335.825056 423.78043 
L 338.888958 427.906623 
L 340.282061 429.809895 
L 342.067749 432.249315 
L 342.925857 433.421877 
L 343.798206 434.575772 
L 344.003953 434.848944 
L 344.89225 436.018717 
L 346.992777 438.859769 
L 347.177716 439.114564 
L 350.7591 443.593892 
L 351.229241 444.162757 
L 364.209207 459.821159 
L 366.016237 462.003842 
L 368.788798 465.352771 
L 369.323985 465.999191 
L 370.592961 467.530661 
L 370.798684 467.780261 
L 373.234833 470.718881 
L 373.91493 471.533304 
L 377.821737 476.210849 
L 382.001237 481.261544 
L 383.007719 482.477598 
L 384.865574 484.723035 
L 386.768268 487.020047 
L 388.823763 489.433295 
L 390.312703 491.298656 
L 390.71087 491.779381 
L 391.247981 492.432728 
L 392.697662 494.195901 
L 397.477972 498.198545 
L 399.899496 500.243263 
L 403.163154 502.998676 
L 405.517322 504.939475 
L 406.109665 505.427898 
L 414.592407 512.421699 
L 416.914629 514.353068 
L 418.808278 515.928415 
L 420.104004 517.006102 
L 422.404566 518.919709 
L 426.086705 521.982512 
L 426.111145 521.50756 
L 432.724677 527.005302 
L 434.808077 528.737106 
L 435.176607 529.039821 
L 435.549179 529.337724 
L 435.925792 529.630431 
L 436.306446 529.917943 
L 436.690949 530.200258 
L 437.079301 530.477378 
L 437.47131 530.749109 
L 437.866975 531.015451 
L 438.266296 531.276405 
L 438.669082 531.531779 
L 439.075524 531.781763 
L 439.485044 532.026167 
L 440.817335 532.803834 
L 440.901433 532.849635 
L 440.988225 532.889471 
L 441.077711 532.923342 
L 441.169315 532.950861 
L 441.262458 532.97203 
L 448.946556 535.887172 
L 460.969691 540.843761 
L 463.155855 541.745362 
L 464.58456 542.810155 
L 465.119362 543.819716 
L 466.259208 544.464404 
L 466.806519 544.784053 
L 468.088581 545.532468 
L 470.05459 546.721195 
L 472.378544 548.202822 
L 473.275333 548.794395 
L 473.946001 549.576872 
L 474.418836 550.14285 
L 477.089338 552.270226 
L 483.171578 557.11546 
L 485.293849 558.806104 
L 489.941744 562.45155 
L 490.2183 562.642091 
L 491.47496 563.640106 
L 491.702621 562.107867 
L 492.059027 558.67274 
L 493.085716 558.780702 
L 494.727072 558.951977 
L 494.751897 558.947551 
L 495.820539 558.416405 
L 499.111909 556.80103 
L 500.088755 559.134799 
L 502.064578 563.853912 
L 502.72139 565.434647 
L 503.688806 567.281148 
L 504.998003 569.370705 
L 505.490275 570.196675 
L 507.169542 573.072174 
L 507.556932 573.638152 
L 510.863698 577.951401 
L 510.963191 578.076682 
L 511.178921 578.269511 
L 511.169106 578.280865 
L 513.419355 580.367151 
L 515.700394 582.856222 
L 520.411617 587.683489 
L 521.075164 588.513885 
L 523.116995 591.339156 
L 522.949569 591.537951 
L 523.069846 591.651108 
L 523.671234 592.208426 
L 524.279742 592.758046 
L 524.895371 593.299583 
L 533.668703 600.745436 
L 534.026456 601.060467 
L 534.378051 601.382426 
L 534.723104 601.711313 
L 535.061613 602.046935 
L 535.373949 602.368702 
L 535.680513 602.696241 
L 535.980725 603.02917 
L 536.27478 603.367871 
L 538.778285 606.518565 
L 539.895037 607.962665 
L 542.007401 609.727075 
L 542.556346 610.034326 
L 543.129829 610.322029 
L 543.706007 610.60396 
L 544.285071 610.880117 
L 544.866445 611.150886 
L 545.450512 611.415689 
L 546.037274 611.674719 
L 546.623074 611.934326 
L 547.210606 612.189699 
L 547.800062 612.440646 
L 548.391827 612.687744 
L 548.985325 612.930609 
L 549.580746 613.169047 
L 550.176938 613.404021 
L 550.774669 613.635339 
L 551.373748 613.863 
L 551.97475 614.087775 
L 552.5771 614.308893 
L 553.180605 614.526547 
L 554.157258 614.893923 
L 555.137376 615.251676 
L 556.120958 615.6 
L 556.346502 615.597113 
L 561.977222 615.453935 
L 564.279431 615.375995 
L 565.83688 596.591531 
L 565.156975 596.408325 
L 563.683624 596.370798 
L 559.477952 595.311393 
L 558.215903 594.992899 
L 554.64241 594.091683 
L 549.736819 592.395481 
L 549.273991 592.250186 
L 548.833486 592.035803 
L 548.404721 591.812183 
L 547.976148 591.588563 
L 544.996152 589.825006 
L 542.280381 588.133808 
L 539.333871 586.134314 
L 536.218394 583.912163 
L 534.225443 582.454206 
L 532.213248 580.91119 
L 530.553033 579.563312 
L 528.94651 578.037615 
L 526.560974 575.271425 
L 526.091795 574.650408 
L 525.405347 573.709934 
L 524.524723 572.459817 
L 520.227063 567.132388 
L 519.279276 565.765458 
L 518.927488 565.373257 
L 518.229879 564.583275 
L 517.23475 562.780459 
L 517.134295 562.597637 
L 516.704567 561.819778 
L 513.984948 556.889939 
L 510.873512 549.674826 
L 510.178982 548.063877 
L 508.802045 544.383577 
L 508.221441 542.854417 
L 508.009945 541.611036 
L 507.544342 539.007277 
L 507.454936 538.507298 
L 507.191095 537.01374 
L 507.138173 536.652715 
L 507.236512 530.899407 
L 507.283084 529.492064 
L 507.343126 528.085106 
L 507.416447 526.678917 
L 507.499006 525.334695 
L 507.593688 523.991436 
L 507.70088 522.648946 
L 507.801528 521.506791 
L 507.911221 520.365405 
L 508.029574 519.224982 
L 508.156972 518.08552 
L 509.731549 504.907144 
L 509.905134 503.471127 
L 510.19457 501.10214 
L 511.05364 494.069657 
L 518.341689 475.3156 
L 519.337971 471.99594 
L 519.187095 471.933396 
L 521.097102 467.02434 
L 520.992028 466.983735 
L 526.512478 452.87008 
L 532.672227 437.080046 
L 538.806189 421.305984 
L 540.136362 417.916467 
L 542.600416 411.63721 
L 543.404255 409.59307 
L 545.946248 403.129259 
L 552.924077 385.198669 
L 559.85418 367.247873 
L 565.10848 353.633419 
L 568.569586 344.662832 
L 570.304277 340.164067 
L 572.142108 335.399622 
L 572.672685 334.02414 
L 575.500073 326.694716 
L 577.333488 321.959245 
L 577.078884 321.586866 
L 577.846159 321.62266 
L 578.26511 320.642735 
L 578.340548 320.462992 
L 578.420219 320.27305 
L 578.492578 320.105047 
L 579.712866 316.651061 
L 578.978307 316.627583 
L 579.494057 315.307609 
L 580.232658 315.32743 
L 585.330693 315.491778 
L 600.236832 315.971541 
L 600.884983 315.991555 
L 610.560108 316.304469 
L 610.718682 313.865433 
L 610.891497 311.209128 
L 611.04295 308.879015 
L 611.044297 308.859001 
L 611.17208 306.890876 
L 611.370875 303.827359 
L 611.403398 303.331431 
L 611.458822 302.467164 
L 611.545422 301.119286 
L 611.632599 299.781608 
L 611.786746 297.396648 
L 611.820617 296.871854 
L 611.855834 296.331856 
L 611.919918 295.340961 
L 612.079454 292.874213 
L 612.190686 291.175317 
L 612.302881 289.418688 
L 612.365233 288.47321 
L 612.368697 288.416247 
L 612.458184 287.025839 
L 612.533814 285.882336 
L 612.634655 284.321807 
L 612.760513 282.355606 
L 612.90985 280.074375 
L 612.989137 278.832726 
L 613.016079 278.433019 
L 613.160797 276.182386 
L 613.190626 275.73072 
L 613.209678 275.432817 
L 613.21776 275.313694 
L 613.27915 274.359748 
L 613.316099 273.783956 
L 613.37364 271.766372 
L 613.421943 270.03938 
L 613.438109 269.463972 
L 613.504887 267.088827 
L 613.580325 264.394418 
L 613.648835 261.951918 
L 607.38863 261.271051 
L 606.493765 261.17329 
L 605.024647 261.012406 
L 604.477529 260.951979 
L 599.920646 260.445851 
L 600.234522 259.624308 
L 592.693217 258.815273 
L 580.091981 257.461044 
L 573.678783 256.771709 
L 568.82111 256.250378 
L 568.152752 256.183793 
L 567.959346 256.162431 
L 566.395738 255.990579 
L 566.291058 255.97564 
L 565.819945 255.908405 
L 564.980504 255.767729 
L 564.169738 255.605883 
L 563.856823 255.557195 
L 551.689163 252.872793 
L 546.847271 251.800495 
L 543.503748 251.060162 
L 539.460286 250.172563 
L 539.234377 250.114877 
L 535.391269 250.024428 
L 535.027358 250.015576 
L 532.081232 249.942255 
L 527.859394 249.835064 
L 524.970616 249.760973 
L 522.204618 249.694772 
L 518.488523 249.6049 
L 514.137171 249.492321 
L 510.808466 249.416498 
L 507.494387 249.336249 
L 504.355432 249.259271 
L 501.239571 249.182678 
L 498.295946 249.089728 
L 495.269764 249.005822 
L 493.662856 248.961368 
L 489.953353 248.884646 
L 489.764324 248.853214 
L 486.190446 248.754298 
L 483.239763 248.680219 
L 483.202177 248.679275 
L 479.884632 248.004921 
L 479.438739 247.89465 
L 479.388126 247.811322 
L 479.326929 247.735691 
L 478.846588 247.279984 
L 468.406115 237.428406 
L 463.577246 233.549749 
L 461.829284 232.145747 
L 458.816242 228.943722 
L 455.794417 225.739882 
L 452.986727 222.819383 
L 452.558346 222.370026 
L 448.913841 218.541929 
L 447.736468 217.306438 
L 447.430674 216.985056 
L 445.745634 215.214764 
L 442.423665 211.725945 
L 439.990018 209.170481 
L 439.568565 208.727475 
L 437.046586 206.078867 
L 440.892773 202.217092 
L 440.743244 202.117791 
L 440.688974 202.045625 
L 440.034606 201.405442 
L 438.502425 199.754578 
L 439.212544 198.525631 
L 441.069244 195.312007 
L 440.282918 194.860341 
L 433.489065 191.413283 
L 431.922571 192.45787 
L 426.802212 193.396997 
L 424.941663 193.7382 
L 422.177396 194.24529 
L 408.596235 196.736286 
L 405.886238 197.233369 
L 400.7526 198.185005 
L 399.767094 198.365902 
L 389.511943 200.24762 
L 384.1747 201.225621 
L 381.29362 201.672091 
L 380.479197 201.789867 
L 373.282367 202.779991 
L 370.275236 203.193746 
L 366.512185 203.711421 
L 366.100932 203.767999 
L 360.07089 203.940236 
L 359.595553 204.006822 
L 354.859313 204.668637 
L 354.82679 205.368364 
L 352.335216 205.73343 
L 348.732856 206.260727 
L 343.322869 207.047631 
L 342.762665 207.12865 
L 340.685019 207.422618 
L 338.37494 207.749474 
L 337.971193 207.80663 
L 335.156313 208.204989 
L 333.308466 208.466328 
L 332.465946 208.585451 
L 329.490761 209.006326 
L 328.492168 209.145463 
L 321.549557 210.164262 
L 314.917935 211.096461 
L 310.056413 211.760393 
L 306.244289 212.301353 
L 305.64598 212.386221 
L 301.403936 212.983182 
L 297.967848 213.452938 
L 296.374796 213.677328 
L 294.789827 213.900371 
L 289.64599 214.622421 
L 283.657131 215.459168 
L 283.146962 215.530372 
L 279.626583 216.022451 
L 276.408341 216.47277 
L 275.774622 216.561487 
L 272.208057 217.059147 
L 268.273731 217.607805 
L 258.757372 218.9349 
L 256.546575 219.243003 
L 255.321476 219.4137 
L 251.894817 219.891154 
L 248.468159 220.368608 
L 248.373476 219.683699 
L 248.301117 219.686394 
L 247.731868 219.7066 
L 241.410466 219.928681 
L 237.128008 220.080134 
L 237.181315 219.001485 
L 237.779431 206.048846 
L 238.053664 200.132923 
L 238.287291 195.13034 
L 238.622913 187.90907 
L 239.006262 179.676506 
L 239.234116 174.679503 
L 239.32264 172.729468 
L 239.547607 167.832729 
L 239.657878 165.448155 
L 239.863793 161.048499 
L 239.955781 159.098848 
L 240.192872 154.096073 
L 240.247911 152.549015 
L 240.320655 151.363367 
L 240.520219 147.097845 
L 239.751405 147.063782 
L 239.906515 143.747586 
L 240.230784 136.736465 
L 242.281467 131.418851 
L 242.463135 131.061867 
L 243.861433 128.313766 
L 246.38091 123.360256 
L 247.117586 121.912692 
L 247.542695 121.076522 
L 248.991029 118.229313 
L 249.371106 117.482052 
L 249.757726 116.722283 
L 250.464958 115.332067 
L 250.519227 115.226031 
L 250.88872 114.499362 
L 241.183189 114.768976 
L 239.177922 114.706624 
L 238.516299 114.686225 
L 237.533295 114.655819 
L 235.733751 114.60001 
L 231.565413 114.470688 
L 230.977304 114.452791 
L 230.359558 114.433931 
L 229.882682 114.419498 
L 227.527552 114.348101 
L 227.082621 114.33463 
L 225.792091 114.295371 
L 224.461533 114.255343 
L 223.863417 114.237446 
L 220.589751 114.138529 
L 218.466516 114.069827 
L 216.116582 113.994004 
L 215.537902 113.975337 
L 214.428078 113.940312 
L 211.303556 113.842358 
L 210.583623 113.81965 
L 201.069766 113.523286 
L 201.066687 113.586792 
L 199.644141 113.54253 
L 199.451119 113.536757 
L 196.305621 113.702066 
L 195.10554 113.765958 
L 191.315547 115.437334 
L 189.109946 115.369594 
L 189.007758 115.366323 
L 186.21347 115.578781 
L 184.49456 115.709643 
L 184.38198 115.706179 
L 182.347847 115.644019 
L 180.625857 115.655566 
L 177.592362 115.688281 
L 177.40877 115.682123 
L 175.435064 115.615345 
L 174.934517 115.606878 
L 170.295846 115.466778 
L 170.167293 115.462545 
L 168.084279 115.395959 
L 164.78752 115.215831 
L 163.89939 115.168105 
L 163.680581 115.160985 
L 161.828115 115.101712 
L 161.687823 115.097093 
L 160.293951 114.924471 
L 157.516214 114.573261 
L 154.995306 114.423261 
L 148.307573 112.585506 
L 148.057011 112.349762 
L 147.607973 111.927384 
L 143.075404 111.733556 
L 139.077187 111.6 
L 137.64752 112.205429 
L 137.237037 112.379014 
L 137.203552 112.806817 
L 137.039782 114.889639 
L 135.770036 114.770323 
L 135.622816 116.124167 
L 135.502539 117.230143 
L 134.936946 122.431906 
L 131.872082 150.839342 
L 131.643266 152.960075 
L 132.907431 152.736263 
L 132.469043 156.993703 
L 131.990627 163.8297 
L 131.607471 169.302039 
L 131.264536 174.291536 
L 131.106154 176.525042 
L 130.83654 180.319846 
L 131.195833 180.725711 
L 134.484702 184.438341 
L 135.881461 186.015228 
L 136.518258 186.734006 
L 134.306499 190.592125 
L 133.689908 191.667887 
L 129.945524 192.96496 
L 129.825439 193.004988 
L 129.67514 193.066378 
L 129.532732 193.144125 
L 129.400138 193.237461 
L 129.278706 193.345229 
L 129.170167 193.465892 
L 129.079141 193.594829 
L 129.002933 193.733004 
L 128.942121 193.878684 
L 128.897474 194.030138 
L 128.869762 194.185632 
L 128.696562 195.506184 
L 128.517589 197.121174 
L 128.353819 198.553535 
L 128.227191 199.846182 
L 128.189087 200.336144 
L 128.091903 201.496582 
L 128.002417 202.657212 
L 127.939487 203.641178 
L 127.878483 204.619564 
L 127.833451 205.575049 
L 127.782261 206.547853 
L 127.740885 207.509111 
L 127.703166 208.47826 
L 127.69085 208.553698 
L 127.692197 208.630098 
L 127.707015 208.705151 
L 127.734919 208.776355 
L 127.77514 208.841402 
L 127.824406 208.896825 
L 127.882716 208.943012 
L 127.947955 208.978422 
L 128.018389 209.0019 
L 128.59168 209.109091 
L 128.576092 209.428163 
L 128.532023 213.273965 
L 128.534332 213.743144 
L 128.537603 214.340875 
L 127.768982 214.364931 
L 127.731455 214.371089 
L 127.696815 214.386869 
L 127.667564 214.411117 
L 127.645433 214.442101 
L 127.632154 214.477703 
L 127.62869 214.515614 
L 127.629652 215.188784 
L 127.641392 216.193534 
L 127.666794 217.179233 
L 127.691812 218.191873 
L 127.725297 219.162368 
L 127.764171 220.15615 
L 127.820172 221.257892 
L 127.880215 222.351936 
L 127.951226 223.469459 
L 128.031476 224.615848 
L 128.12077 225.789564 
L 128.219878 226.957507 
L 128.317447 227.992664 
L 128.413092 228.931598 
L 128.534332 230.053932 
L 128.690019 231.473207 
L 128.841088 232.640188 
L 129.028528 234.112 
L 129.057202 234.259219 
L 129.100887 234.40259 
L 129.159198 234.540765 
L 129.231557 234.672012 
L 129.315655 234.794984 
L 129.411877 234.908526 
L 129.519453 235.011676 
L 129.637036 235.103087 
L 130.141625 235.449101 
L 130.448765 238.332875 
L 130.549933 239.283196 
L 130.627738 240.014066 
L 130.992997 243.443804 
L 130.98299 243.67262 
L 130.856362 243.664153 
L 130.729926 243.674929 
L 130.606569 243.704758 
L 130.489179 243.752869 
L 130.380448 243.818108 
L 130.282686 243.898934 
L 130.198396 243.993809 
L 130.061375 246.804455 
L 129.917042 246.797527 
L 129.155734 262.696869 
L 129.065093 264.591481 
L 128.912869 267.739866 
L 128.674816 272.660852 
L 127.882909 289.215852 
L 128.79086 289.337092 
" clip-path="url(#p659fb6576e)" style="fill: #d3d3d3"/>
   </g>
   <g id="PatchCollection_2">
    <path d="M 124.642536 435.895745 
L 124.708737 432.754096 
L 124.929855 422.286294 
L 125.009527 418.507078 
L 126.47672 413.370554 
L 126.583334 408.371242 
L 125.952503 404.693829 
L 125.555298 402.345434 
L 125.294151 400.801263 
L 125.864748 374.084641 
L 125.924983 371.26726 
L 126.198638 370.119908 
L 126.508666 368.825914 
L 128.173884 361.87522 
L 127.065791 361.856168 
L 127.17202 355.70277 
L 127.743387 322.581224 
L 127.80189 319.19113 
L 127.816708 318.313777 
L 127.860585 315.805462 
L 127.865589 315.537964 
L 127.868059 315.394867 
L 128.89479 315.080966 
L 130.728154 314.710333 
L 132.588839 314.519433 
L 134.459268 314.51007 
L 137.055769 314.623376 
L 138.900623 314.793144 
L 140.720604 315.139523 
L 142.498845 315.659302 
L 144.218864 316.347664 
L 145.864721 317.19823 
L 147.421163 318.203117 
L 148.873765 319.353011 
L 150.209065 320.637256 
L 151.414686 322.043949 
L 152.479456 323.560054 
L 153.393506 325.17152 
L 154.148365 326.863411 
L 154.737038 328.620048 
L 155.022272 329.854676 
L 158.284491 328.217459 
L 158.407381 328.163047 
L 158.520701 328.100929 
L 160.435167 327.172693 
L 161.639319 326.638949 
L 177.539427 320.232847 
L 179.347186 319.607017 
L 181.208148 319.163761 
L 183.103923 318.907459 
L 185.015778 318.840642 
L 186.924821 318.963972 
L 188.812187 319.27623 
L 189.154328 319.350473 
L 190.899509 319.815906 
L 192.59337 320.442901 
L 194.220988 321.225937 
L 195.728423 322.134253 
L 196.551483 321.235047 
L 197.955714 319.974601 
L 199.476635 318.857737 
L 201.099624 317.895191 
L 202.809077 317.096219 
L 204.588559 316.4685 
L 206.420962 316.018072 
L 208.288669 315.749263 
L 210.173723 315.664658 
L 214.743933 315.683826 
L 216.646792 315.786155 
L 218.530203 316.076176 
L 220.375696 316.551044 
L 222.165178 317.206104 
L 223.8811 318.034932 
L 225.50664 319.029401 
L 227.025856 320.17976 
L 228.423854 321.47473 
L 229.686926 322.901614 
L 230.802686 324.44642 
L 231.760195 326.094001 
L 232.550064 327.828202 
L 233.164548 329.632019 
L 233.597621 331.487765 
L 233.845039 333.377244 
L 233.904373 335.28193 
L 233.867328 337.296222 
L 233.741609 339.16662 
L 233.434506 341.015912 
L 232.948932 342.826551 
L 232.289494 344.581355 
L 231.462451 346.263674 
L 230.475649 347.857542 
L 229.338453 349.347838 
L 228.061654 350.720419 
L 226.657366 351.962261 
L 225.138915 353.06158 
L 223.52071 354.007945 
L 221.818105 354.792376 
L 220.047257 355.407429 
L 218.224968 355.847269 
L 216.36853 356.107722 
L 214.49556 356.186315 
L 210.915158 356.162014 
L 208.492511 355.992327 
L 208.183606 355.950977 
L 206.159533 355.568816 
L 204.1879 354.972506 
L 202.291297 354.16888 
L 201.937039 353.995859 
L 201.916816 353.984788 
L 201.02487 355.172211 
L 199.740685 356.570374 
L 198.324991 357.835206 
L 196.791565 358.954399 
L 195.155328 359.917061 
L 193.432203 360.713824 
L 180.366784 365.989511 
L 180.226952 366.11745 
L 178.684839 367.268006 
L 173.253713 370.912193 
L 173.109012 371.00834 
L 170.439455 372.764823 
L 165.316154 376.196802 
L 164.200293 376.865234 
L 164.632951 376.959528 
L 166.418503 377.535659 
L 168.139467 378.282925 
L 169.779486 379.194222 
L 171.322971 380.260889 
L 172.755251 381.472787 
L 174.062713 382.818397 
L 175.23293 384.284929 
L 183.077524 395.164143 
L 183.162869 395.283459 
L 188.746806 403.153264 
L 189.796035 404.803747 
L 190.672329 406.552199 
L 191.366637 408.380563 
L 191.871787 410.269954 
L 192.182564 412.200859 
L 192.295757 414.153336 
L 192.210198 416.107218 
L 191.926769 418.042326 
L 191.448398 419.938675 
L 190.780025 421.776678 
L 189.928555 423.537353 
L 189.513677 424.294474 
L 188.491947 425.953758 
L 187.307657 427.501211 
L 185.972948 428.920968 
L 185.00404 429.762172 
L 184.838499 429.983559 
L 183.764647 431.192911 
L 179.848314 435.246697 
L 178.671588 436.366088 
L 177.685338 437.228001 
L 178.907621 437.237697 
L 178.991485 437.238545 
L 181.59934 437.270599 
L 182.05828 437.281716 
L 191.142234 437.610211 
L 191.991764 437.659759 
L 199.726094 438.282703 
L 201.644167 438.534741 
L 203.527245 438.978079 
L 205.356297 439.608235 
L 207.11284 440.418842 
L 208.779125 441.401708 
L 210.338311 442.546901 
L 211.774643 443.842848 
L 213.073606 445.276453 
L 214.222073 446.833229 
L 214.398127 447.130271 
L 215.900174 446.607917 
L 216.213433 446.515719 
L 216.880658 446.319027 
L 220.635081 445.211018 
L 222.470236 444.766021 
L 224.340169 444.503022 
L 226.226875 444.424554 
L 228.112188 444.531371 
L 229.977957 444.822446 
L 231.806216 445.294976 
L 233.579363 445.94441 
L 235.280326 446.764498 
L 236.892727 447.747341 
L 238.401041 448.883477 
L 239.790746 450.161967 
L 241.048461 451.570502 
L 241.386166 452.032964 
L 241.511826 452.131699 
L 242.883643 453.448178 
L 244.118858 454.893601 
L 245.205413 456.453857 
L 245.967784 457.81851 
L 244.605229 458.294501 
L 243.825831 458.341457 
L 243.778874 458.344151 
L 242.486613 458.400345 
L 242.475066 458.402077 
L 241.22341 458.439988 
L 239.032242 458.510038 
L 237.742097 458.558726 
L 236.262972 458.620886 
L 235.98566 458.63301 
L 235.626175 458.634357 
L 234.890336 458.636207 
L 233.79199 458.635897 
L 232.377632 458.628789 
L 230.608487 458.612247 
L 229.53222 458.597795 
L 227.883745 458.568815 
L 226.833436 458.54474 
L 225.537405 458.511494 
L 224.588801 458.484121 
L 223.274283 458.465891 
L 222.431056 458.457116 
L 221.497761 458.416468 
L 220.305704 458.36455 
L 219.670848 458.33275 
L 218.721856 458.285215 
L 217.517339 458.22048 
L 216.337232 458.153547 
L 215.700066 458.115068 
L 215.050529 458.073972 
L 213.934074 458.003333 
L 212.575431 457.909709 
L 211.934659 457.863729 
L 210.395396 456.29021 
L 208.137082 453.981637 
L 207.717101 448.779013 
L 207.575337 448.742155 
L 206.621392 448.519883 
L 205.661866 448.32205 
L 204.697722 448.148658 
L 203.729535 447.999899 
L 202.757885 447.87558 
L 201.783349 447.776279 
L 200.806695 447.70161 
L 199.82831 447.65196 
L 196.786731 447.66062 
L 192.190013 448.262777 
L 189.69844 448.363233 
L 188.324774 448.388443 
L 186.806968 448.567416 
L 185.851291 448.52989 
L 166.448312 448.128451 
L 166.439844 447.919072 
L 165.427011 447.923691 
L 164.414371 447.947746 
L 163.402307 447.991624 
L 162.391399 448.05513 
L 161.38203 448.138266 
L 160.374393 448.240839 
L 159.368872 448.363041 
L 158.365854 448.504679 
L 154.625319 449.049296 
L 149.350812 449.49134 
L 149.21283 448.017988 
L 149.105829 447.962242 
L 149.325671 447.498679 
L 150.279507 445.905172 
L 151.382503 444.411027 
L 152.183164 443.520762 
L 148.880723 443.460486 
L 147.154339 444.102193 
L 145.300917 444.587861 
L 143.408387 444.886822 
L 141.495509 444.996112 
L 139.581243 444.914648 
L 137.684566 444.643238 
L 135.824278 444.184571 
L 134.018819 443.543194 
L 132.286085 442.725465 
L 130.843439 441.859635 
L 130.515394 441.734919 
L 128.624785 440.765586 
L 126.852551 439.593751 
L 124.604973 437.92225 
L 124.642536 435.895745 
M 144.006735 382.639872 
L 143.993193 382.716198 
L 145.068922 381.918609 
L 145.548458 381.607287 
L 144.098626 381.455372 
L 144.006735 382.639872 
" clip-path="url(#p659fb6576e)" style="fill: #ff0000; fill-opacity: 0.7; stroke: #000000; stroke-opacity: 0.7; stroke-width: 0.5"/>
    <path d="M 403.163154 502.998676 
L 399.899496 500.243263 
L 397.477972 498.198545 
L 392.697662 494.195901 
L 391.247981 492.432728 
L 390.71087 491.779381 
L 390.312703 491.298656 
L 388.823763 489.433295 
L 386.768268 487.020047 
L 384.865574 484.723035 
L 383.007719 482.477598 
L 382.001237 481.261544 
L 377.821737 476.210849 
L 373.91493 471.533304 
L 373.234833 470.718881 
L 370.798684 467.780261 
L 370.592961 467.530661 
L 369.323985 465.999191 
L 368.788798 465.352771 
L 366.016237 462.003842 
L 364.209207 459.821159 
L 351.229241 444.162757 
L 350.7591 443.593892 
L 349.728135 442.304439 
L 351.119417 440.128075 
L 352.21173 438.590915 
L 353.449243 437.168042 
L 354.820073 435.873117 
L 356.311058 434.718573 
L 357.907881 433.715497 
L 359.59521 432.873519 
L 360.121738 432.67243 
L 360.267583 428.970569 
L 360.429269 427.126991 
L 360.767292 425.307468 
L 361.278526 423.528828 
L 361.95631 421.81241 
L 361.891975 420.286702 
L 361.892714 419.852 
L 361.984268 418.009496 
L 362.251821 416.184225 
L 362.692915 414.392958 
L 362.813249 413.988816 
L 363.492884 412.080027 
L 364.369443 410.253274 
L 365.433209 408.528808 
L 365.672504 408.183052 
L 366.860517 406.639677 
L 368.198445 405.224288 
L 369.672585 403.951381 
L 370.041295 403.664247 
L 371.936454 402.362468 
L 373.973337 401.295996 
L 374.403987 401.102354 
L 376.102396 400.433583 
L 377.856527 399.928733 
L 378.285082 399.827127 
L 380.988773 399.386487 
L 381.480096 399.341988 
L 384.13268 399.285387 
L 384.476179 399.301768 
L 386.600572 399.535537 
L 386.838134 399.0336 
L 387.775891 397.459555 
L 388.859089 395.981825 
L 390.07791 394.613804 
L 391.421304 393.367892 
L 392.129132 392.77152 
L 393.589905 391.655568 
L 395.150491 390.684084 
L 396.796649 389.865933 
L 398.513359 389.208578 
L 399.55353 388.920553 
L 399.218317 388.705013 
L 398.162489 387.869215 
L 396.763034 386.9693 
L 395.280923 385.795701 
L 393.921114 384.482344 
L 392.696731 383.041902 
L 391.619588 381.488277 
L 390.70008 379.836462 
L 389.947082 378.102397 
L 389.517359 376.767295 
L 389.36493 376.989867 
L 388.223201 378.493135 
L 386.939686 379.877313 
L 385.526734 381.129083 
L 383.997942 382.236402 
L 382.368018 383.188614 
L 381.06152 383.788745 
L 381.003748 384.221542 
L 380.578 386.041145 
L 379.977773 387.810875 
L 379.208727 389.514045 
L 378.278114 391.134593 
L 377.19471 392.657239 
L 372.662724 398.413085 
L 371.404883 399.856637 
L 370.009823 401.168052 
L 368.491353 402.33435 
L 366.864503 403.343986 
L 365.145379 404.186965 
L 363.350996 404.854943 
L 361.499118 405.341308 
L 359.608075 405.641244 
L 357.696588 405.751784 
L 355.783577 405.671834 
L 353.967909 405.413553 
L 350.891156 409.106019 
L 350.470102 409.564681 
L 350.09038 410.007998 
L 349.86311 410.225887 
L 349.642658 410.466028 
L 349.16218 410.897881 
L 348.72693 411.315164 
L 348.495749 411.496869 
L 348.269585 411.700145 
L 347.73086 412.098061 
L 347.241903 412.482373 
L 347.011592 412.62933 
L 346.784574 412.797011 
L 346.189532 413.153867 
L 345.649607 413.498381 
L 345.42461 413.612603 
L 345.201291 413.746532 
L 344.5526 414.05529 
L 343.96538 414.3534 
L 343.749747 414.437426 
L 343.534308 414.539969 
L 342.835333 414.793746 
L 342.205446 415.039194 
L 342.00277 415.096025 
L 341.798967 415.17002 
L 341.053705 415.362144 
L 340.38676 415.549156 
L 340.200127 415.582191 
L 340.011237 415.630886 
L 339.224215 415.754934 
L 338.526842 415.878373 
L 338.35879 415.891339 
L 338.187573 415.918326 
L 337.363687 415.968117 
L 336.643609 416.023675 
L 336.496095 416.020549 
L 336.344757 416.029695 
L 335.489006 415.999209 
L 334.755203 415.983661 
L 334.629582 415.968593 
L 334.499749 415.963968 
L 333.616768 415.84711 
L 332.879815 415.758716 
L 332.776825 415.735949 
L 332.669529 415.721749 
L 331.762654 415.511753 
L 331.035512 415.351008 
L 330.955272 415.324795 
L 330.870941 415.305268 
L 330.817096 415.287213 
L 329.974583 416.122847 
L 328.512677 417.31304 
L 326.941336 418.35449 
L 325.275639 419.237203 
L 323.53157 419.952709 
L 321.725863 420.494143 
L 319.875845 420.856309 
L 317.99927 421.035731 
L 316.114143 421.030689 
L 314.238554 420.841231 
L 312.3905 420.469174 
L 310.587716 419.918088 
L 308.847498 419.193263 
L 307.186547 418.301652 
L 305.6208 417.251811 
L 304.11531 416.131719 
L 302.655077 414.929437 
L 301.319924 413.589613 
L 300.122751 412.125188 
L 299.075122 410.550312 
L 298.187158 408.880197 
L 297.467437 407.130979 
L 296.922912 405.319555 
L 296.558844 403.463426 
L 296.37875 401.580521 
L 296.384369 399.689032 
L 296.575648 397.807231 
L 296.950737 395.953297 
L 297.506015 394.145141 
L 298.236116 392.40023 
L 299.133988 390.73542 
L 300.190956 389.166796 
L 302.042634 386.690679 
L 302.38825 386.272893 
L 302.361115 386.001709 
L 302.358358 384.111303 
L 302.541089 382.229746 
L 302.907542 380.375196 
L 303.454184 378.565548 
L 304.175738 376.818263 
L 305.065242 375.150202 
L 306.114113 373.577462 
L 306.304327 373.320542 
L 306.995398 372.387411 
L 308.190904 370.928475 
L 308.453444 370.665479 
L 308.182446 370.435609 
L 306.875234 369.086645 
L 306.155247 368.267158 
L 305.051844 366.888528 
L 304.079452 365.414562 
L 303.510432 364.351299 
L 302.582796 364.47805 
L 300.647436 364.546059 
L 298.715041 364.419216 
L 296.805177 364.098806 
L 294.937186 363.588072 
L 293.129982 362.892188 
L 291.401865 362.0182 
L 289.770337 360.974957 
L 288.251916 359.773025 
L 286.86198 358.424574 
L 285.614604 356.943259 
L 280.546619 350.270258 
L 279.481208 348.714731 
L 278.573125 347.062415 
L 277.831087 345.329169 
L 277.262215 343.53163 
L 276.87197 341.68705 
L 276.664097 339.813137 
L 276.640592 337.927875 
L 276.801681 336.049362 
L 277.057977 334.668788 
L 276.379833 334.138566 
L 275.446091 333.888885 
L 273.716733 333.243392 
L 272.057174 332.435182 
L 270.482682 331.471689 
L 269.55708 330.842344 
L 267.892577 329.572921 
L 266.3758 328.13022 
L 265.024695 326.531309 
L 263.855248 324.795108 
L 263.680425 324.502363 
L 263.269308 324.051868 
L 262.256475 322.728054 
L 261.5982 321.785737 
L 260.715633 320.399873 
L 259.954495 318.943778 
L 259.320335 317.428066 
L 258.974405 316.49075 
L 258.397807 314.648927 
L 258.008588 312.758612 
L 257.936353 312.057959 
L 257.692927 311.058341 
L 257.424752 309.101113 
L 257.358641 307.126705 
L 257.495293 305.155922 
L 257.833267 303.209532 
L 258.369001 301.308046 
L 259.096851 299.471502 
L 260.009145 297.719252 
L 260.494764 296.893038 
L 261.399432 295.495919 
L 262.421438 294.182197 
L 263.553139 292.961699 
L 263.862125 292.656109 
L 265.332921 291.343488 
L 266.930286 290.188221 
L 268.637456 289.202431 
L 269.010488 289.011804 
L 270.280224 288.420195 
L 270.698696 288.243455 
L 271.389711 287.988361 
L 271.676354 287.605134 
L 271.677486 287.60389 
L 271.678491 287.602547 
L 272.043816 287.201196 
L 272.918354 286.239846 
L 272.921337 286.23714 
L 272.924041 286.234169 
L 273.45138 285.756357 
L 274.285432 284.999818 
L 274.290542 284.996008 
L 274.295253 284.991739 
L 274.916126 284.529494 
L 275.765015 283.896456 
L 275.772472 283.891937 
L 275.779448 283.886743 
L 276.468988 283.469853 
L 277.343493 282.939908 
L 277.353462 282.935107 
L 277.362906 282.929397 
L 278.106121 282.572579 
L 279.006345 282.138975 
L 284.806982 279.680363 
L 284.979076 279.617191 
L 302.521555 272.210532 
L 304.245342 271.577819 
L 306.021584 271.112277 
L 307.834111 270.818144 
L 309.66642 270.698099 
L 311.501829 270.753234 
L 313.05358 270.948982 
L 312.57724 270.828744 
L 310.826616 270.201753 
L 309.144676 269.40873 
L 307.547126 268.457079 
L 306.048881 267.355686 
L 304.66393 266.114833 
L 304.0638 265.462258 
L 303.268918 264.977655 
L 301.760683 263.841404 
L 300.371069 262.562806 
L 299.113454 261.154174 
L 297.999949 259.629068 
L 297.041274 258.002175 
L 296.24666 256.289158 
L 295.623757 254.50651 
L 295.178563 252.671396 
L 294.915365 250.801485 
L 294.644695 247.82721 
L 294.586296 246.426331 
L 294.379093 244.492887 
L 294.270204 242.603884 
L 294.347347 240.713319 
L 294.609775 238.839467 
L 295.054951 237.000444 
L 295.678573 235.214027 
L 296.474612 233.497487 
L 296.998978 232.607822 
L 295.081686 218.989827 
L 294.91016 217.101567 
L 294.925279 215.205593 
L 295.069065 213.861075 
L 296.374796 213.677328 
L 297.967848 213.452938 
L 301.403936 212.983182 
L 305.64598 212.386221 
L 306.244289 212.301353 
L 310.056413 211.760393 
L 314.917935 211.096461 
L 321.549557 210.164262 
L 328.492168 209.145463 
L 329.490761 209.006326 
L 332.465946 208.585451 
L 333.308466 208.466328 
L 335.156313 208.204989 
L 337.971193 207.80663 
L 338.37494 207.749474 
L 340.685019 207.422618 
L 342.762665 207.12865 
L 343.322869 207.047631 
L 345.78816 206.689044 
L 345.632785 206.919757 
L 344.430616 208.374041 
L 343.09181 209.703608 
L 343.005103 209.774279 
L 343.154333 210.276289 
L 343.513568 212.142851 
L 343.640788 213.040894 
L 343.655799 213.149064 
L 343.690524 213.404626 
L 343.691414 213.409415 
L 343.858195 214.636008 
L 343.858809 214.643109 
L 343.953907 215.342983 
L 345.19725 216.505743 
L 346.466925 217.957416 
L 347.584927 219.528881 
L 347.999475 220.256097 
L 348.314716 220.671087 
L 349.311524 222.294744 
L 349.354004 222.382336 
L 350.056926 220.964286 
L 351.034372 219.392714 
L 352.15826 217.922303 
L 353.418198 216.566651 
L 354.802532 215.338296 
L 356.298459 214.248599 
L 357.892143 213.307639 
L 359.568846 212.524118 
L 361.313058 211.905282 
L 363.10865 211.456856 
L 364.939014 211.182986 
L 366.787221 211.086205 
L 368.636178 211.167409 
L 370.468784 211.425846 
L 372.268091 211.859127 
L 374.017456 212.463243 
L 375.850491 213.196691 
L 376.062829 213.283124 
L 378.140053 214.143125 
L 378.619737 214.332615 
L 379.630009 213.873296 
L 381.468301 213.252164 
L 383.359797 212.819308 
L 385.285266 212.579126 
L 386.688834 212.546521 
L 386.456808 211.850787 
L 386.280366 211.07547 
L 383.632829 210.915106 
L 381.745468 210.706939 
L 379.887808 210.31379 
L 378.077934 209.739487 
L 376.333467 208.98962 
L 374.671389 208.071489 
L 373.107881 206.994034 
L 371.658165 205.767743 
L 370.336354 204.404554 
L 369.463286 203.305444 
L 370.275236 203.193746 
L 373.282367 202.779991 
L 380.479197 201.789867 
L 381.29362 201.672091 
L 384.1747 201.225621 
L 389.511943 200.24762 
L 399.767094 198.365902 
L 400.7526 198.185005 
L 405.886238 197.233369 
L 408.596235 196.736286 
L 422.177396 194.24529 
L 424.941663 193.7382 
L 426.802212 193.396997 
L 431.922571 192.45787 
L 433.489065 191.413283 
L 440.282918 194.860341 
L 441.069244 195.312007 
L 439.212544 198.525631 
L 438.502425 199.754578 
L 440.034606 201.405442 
L 440.688974 202.045625 
L 440.743244 202.117791 
L 440.892773 202.217092 
L 437.046586 206.078867 
L 439.568565 208.727475 
L 439.990018 209.170481 
L 442.423665 211.725945 
L 445.745634 215.214764 
L 446.909202 216.437201 
L 446.904595 216.435431 
L 445.204716 215.581214 
L 443.597485 214.563332 
L 442.09861 213.391733 
L 440.722737 212.077865 
L 439.483313 210.634569 
L 438.39245 209.07595 
L 438.137011 208.621163 
L 437.520509 208.139365 
L 436.158976 206.842415 
L 435.419777 205.985773 
L 434.38057 204.955428 
L 433.15876 203.474695 
L 432.090557 201.8796 
L 431.18659 200.186014 
L 430.757602 199.143847 
L 430.501017 199.254358 
L 428.447732 200.024353 
L 428.637744 201.644634 
L 428.865821 205.009795 
L 428.900892 206.898844 
L 428.750556 208.782228 
L 428.41626 210.641792 
L 427.901227 212.459614 
L 427.210422 214.218172 
L 426.350503 215.900514 
L 425.329759 217.490424 
L 424.158028 218.972579 
L 422.846606 220.332691 
L 421.408131 221.557651 
L 419.85647 222.635651 
L 418.20658 223.556301 
L 416.474362 224.310726 
L 414.676514 224.891655 
L 412.830365 225.293488 
L 411.802228 225.413394 
L 412.007552 225.769339 
L 412.770853 227.444644 
L 413.370578 229.185221 
L 413.801239 230.975139 
L 414.058894 232.798018 
L 414.186988 234.177902 
L 414.268994 236.077821 
L 414.163082 237.976558 
L 413.870288 239.855572 
L 413.39347 241.696513 
L 412.737285 243.481405 
L 411.908141 245.192819 
L 410.914132 246.814043 
L 410.06314 247.936098 
L 410.656011 248.182394 
L 412.288085 249.052682 
L 413.829073 250.075632 
L 415.26474 251.241792 
L 416.581823 252.540391 
L 417.768157 253.959433 
L 418.812782 255.48581 
L 420.355042 257.989526 
L 420.558686 257.508488 
L 421.482273 255.819945 
L 421.545086 255.728243 
L 421.462863 254.608633 
L 421.502857 252.77851 
L 421.716557 250.960466 
L 422.10203 249.170952 
L 422.655788 247.426159 
L 423.372821 245.741875 
L 424.24664 244.133339 
L 425.26934 242.615104 
L 426.431666 241.20091 
L 427.723103 239.90355 
L 429.131964 238.734764 
L 430.645503 237.705128 
L 431.814773 236.988577 
L 431.838256 236.974209 
L 433.535076 235.937701 
L 435.236619 235.012515 
L 437.022541 234.263046 
L 438.87475 233.696884 
L 440.774487 233.319764 
L 442.702509 233.135507 
L 444.639288 233.145978 
L 446.565205 233.351072 
L 448.460753 233.74871 
L 450.306733 234.334866 
L 452.084446 235.103602 
L 453.775887 236.047132 
L 455.363922 237.155898 
L 456.832467 238.418671 
L 458.166647 239.82266 
L 459.352948 241.353643 
L 460.379354 242.996113 
L 461.235469 244.733435 
L 461.912621 246.548011 
L 462.060018 247.013231 
L 462.567369 248.379624 
L 463.033281 250.116788 
L 463.334983 251.889861 
L 463.469838 253.683356 
L 463.524985 255.631205 
L 463.52963 255.832453 
L 463.573807 258.307966 
L 463.588987 259.123181 
L 463.590645 259.227388 
L 463.595934 259.627963 
L 463.600847 260.010684 
L 464.358342 261.407099 
L 465.080538 263.11139 
L 465.635659 264.877179 
L 466.018569 266.688133 
L 466.209945 268.387384 
L 466.754897 268.575391 
L 468.441712 269.346179 
L 470.0465 270.275757 
L 471.554357 271.355492 
L 472.951279 272.575357 
L 474.224293 273.924021 
L 475.361577 275.38896 
L 476.352567 276.956569 
L 477.188061 278.61229 
L 477.8603 280.340744 
L 478.363039 282.125881 
L 478.691611 283.951121 
L 478.842963 285.799513 
L 478.815691 287.653891 
L 478.694534 289.577235 
L 478.580805 291.562838 
L 478.378291 293.454328 
L 477.990023 295.316582 
L 477.419793 297.131405 
L 476.673174 298.881063 
L 475.757462 300.548461 
L 474.681603 302.117305 
L 473.978232 302.95238 
L 474.45876 302.541531 
L 476.007809 301.46072 
L 477.655351 300.536972 
L 479.385513 299.779184 
L 481.181629 299.194656 
L 483.026396 298.789021 
L 484.902042 298.566185 
L 486.790499 298.528295 
L 487.555382 298.550508 
L 487.313258 298.26396 
L 486.226871 296.682146 
L 485.303419 295.000002 
L 484.552085 293.234254 
L 483.980337 291.402459 
L 483.593862 289.522829 
L 483.396502 287.614055 
L 483.390219 285.695114 
L 483.714429 278.743447 
L 483.402916 278.577009 
L 481.792999 277.49552 
L 480.30011 276.257484 
L 478.939414 274.875472 
L 477.724729 273.363522 
L 476.668393 271.73699 
L 475.781135 270.012397 
L 475.071966 268.207257 
L 474.548088 266.339905 
L 474.214823 264.429307 
L 474.075556 262.494867 
L 474.1317 260.556234 
L 474.139819 260.454155 
L 474.224356 256.76987 
L 474.257302 254.423571 
L 474.377849 252.526338 
L 474.684998 250.650257 
L 475.17575 248.813634 
L 475.845318 247.034391 
L 476.687166 245.329893 
L 476.721529 245.274788 
L 478.846588 247.279984 
L 479.326929 247.735691 
L 479.388126 247.811322 
L 479.438739 247.89465 
L 479.884632 248.004921 
L 483.202177 248.679275 
L 483.239763 248.680219 
L 486.190446 248.754298 
L 489.764324 248.853214 
L 489.953353 248.884646 
L 493.662856 248.961368 
L 495.269764 249.005822 
L 498.295946 249.089728 
L 501.239571 249.182678 
L 504.355432 249.259271 
L 507.494387 249.336249 
L 510.808466 249.416498 
L 514.137171 249.492321 
L 518.488523 249.6049 
L 522.204618 249.694772 
L 524.970616 249.760973 
L 527.859394 249.835064 
L 532.081232 249.942255 
L 535.027358 250.015576 
L 535.391269 250.024428 
L 539.234377 250.114877 
L 539.460286 250.172563 
L 543.503748 251.060162 
L 546.847271 251.800495 
L 551.689163 252.872793 
L 563.856823 255.557195 
L 564.169738 255.605883 
L 564.980504 255.767729 
L 565.819945 255.908405 
L 566.291058 255.97564 
L 566.395738 255.990579 
L 567.959346 256.162431 
L 568.152752 256.183793 
L 568.82111 256.250378 
L 573.678783 256.771709 
L 580.091981 257.461044 
L 592.693217 258.815273 
L 600.234522 259.624308 
L 599.920646 260.445851 
L 604.477529 260.951979 
L 605.024647 261.012406 
L 606.493765 261.17329 
L 607.38863 261.271051 
L 613.648835 261.951918 
L 613.580325 264.394418 
L 613.504887 267.088827 
L 613.438109 269.463972 
L 613.421943 270.03938 
L 613.37364 271.766372 
L 613.316099 273.783956 
L 613.27915 274.359748 
L 613.21776 275.313694 
L 613.209678 275.432817 
L 613.190626 275.73072 
L 613.160797 276.182386 
L 613.016079 278.433019 
L 612.989137 278.832726 
L 612.90985 280.074375 
L 612.760513 282.355606 
L 612.634655 284.321807 
L 612.533814 285.882336 
L 612.458184 287.025839 
L 612.430088 287.462372 
L 611.247954 288.366289 
L 609.606588 289.378422 
L 607.872171 290.221211 
L 606.062117 290.886194 
L 604.194601 291.366694 
L 602.288374 291.657888 
L 600.362575 291.75685 
L 597.296928 291.76059 
L 595.391347 291.668349 
L 593.504264 291.387881 
L 591.654223 290.921944 
L 589.859408 290.275117 
L 589.141857 289.932849 
L 588.85903 290.231373 
L 587.432979 291.467754 
L 585.892675 292.558497 
L 584.252932 293.493111 
L 582.529523 294.262606 
L 580.739025 294.85958 
L 580.517344 294.910016 
L 580.417505 296.719507 
L 580.203732 298.707864 
L 579.784768 300.663301 
L 579.165138 302.564702 
L 574.476329 314.761569 
L 573.740348 316.434248 
L 572.849028 318.029577 
L 571.810406 319.533169 
L 570.633848 320.931467 
L 569.329963 322.211861 
L 567.910509 323.362805 
L 566.388284 324.373922 
L 564.777016 325.236094 
L 563.091234 325.941546 
L 561.346138 326.483917 
L 559.887286 326.789279 
L 559.864409 326.859154 
L 556.249866 336.371103 
L 551.128097 350.283609 
L 551.039284 350.520056 
L 547.360316 360.122755 
L 546.628805 361.791115 
L 545.742821 363.382832 
L 544.710302 364.883645 
L 543.540502 366.280104 
L 542.243901 367.559697 
L 540.832118 368.710957 
L 539.317803 369.72357 
L 537.714526 370.58846 
L 536.036654 371.297879 
L 534.29922 371.845469 
L 532.517793 372.226324 
L 530.708336 372.437031 
L 528.887062 372.475702 
L 524.304924 372.355998 
L 524.867744 373.292457 
L 525.656145 374.940581 
L 526.169839 376.159988 
L 526.818061 377.938565 
L 527.288405 379.772223 
L 527.57632 381.643221 
L 527.679019 383.533454 
L 527.595509 385.424632 
L 527.326599 387.298456 
L 526.874889 389.136794 
L 526.244751 390.921858 
L 525.442283 392.636376 
L 524.475248 394.263758 
L 523.353004 395.788257 
L 516.966654 403.625006 
L 515.734349 404.997274 
L 514.376337 406.245272 
L 512.905092 407.357538 
L 511.334128 408.323854 
L 509.677874 409.135345 
L 507.951543 409.784558 
L 507.734253 409.843254 
L 507.70147 409.929988 
L 506.86353 411.623077 
L 505.863628 413.225854 
L 504.711399 414.722872 
L 503.417945 416.099707 
L 501.995732 417.343091 
L 500.458462 418.441044 
L 498.820951 419.382984 
L 497.098976 420.159836 
L 495.309131 420.764114 
L 493.468663 421.189994 
L 491.595307 421.433374 
L 489.707115 421.491907 
L 486.396665 421.431941 
L 484.51322 421.305226 
L 482.65125 420.994594 
L 480.828672 420.503034 
L 479.063022 419.835275 
L 477.371288 418.997743 
L 475.769749 417.998495 
L 474.648219 417.135309 
L 474.567559 419.7833 
L 474.417237 421.667943 
L 474.082711 423.52874 
L 473.56721 425.347732 
L 472.875709 427.107363 
L 472.847625 427.162279 
L 473.006982 427.63711 
L 473.428803 429.472583 
L 473.669194 431.340497 
L 473.725852 433.222965 
L 473.583512 440.768411 
L 473.445547 442.733929 
L 473.107328 444.675038 
L 472.572401 446.57139 
L 471.846372 448.403104 
L 470.936853 450.150981 
L 470.776383 450.394723 
L 470.621966 451.505556 
L 470.205715 453.266124 
L 469.851912 454.311973 
L 470.061077 454.724323 
L 470.746573 456.485464 
L 471.256024 458.30535 
L 471.584517 460.16643 
L 471.728884 462.050756 
L 471.687732 463.940155 
L 471.461459 465.816408 
L 471.052247 467.661421 
L 470.464042 469.457399 
L 469.702516 471.187024 
L 468.775013 472.833616 
L 467.690479 474.381295 
L 466.963164 475.317754 
L 465.733501 476.750069 
L 464.369423 478.055017 
L 462.884055 479.220041 
L 461.29169 480.23393 
L 459.60765 481.086928 
L 457.848139 481.770829 
L 456.030088 482.27905 
L 455.264885 482.413911 
L 455.56793 482.621403 
L 457.013159 483.834951 
L 458.332578 485.184216 
L 459.513499 486.656224 
L 460.544566 488.23682 
L 461.415864 489.910803 
L 462.119015 491.662078 
L 462.647256 493.473802 
L 462.995508 495.328553 
L 463.160422 497.208496 
L 463.140413 499.095552 
L 462.935671 500.971576 
L 462.548168 502.818525 
L 461.981627 504.618641 
L 461.241499 506.354611 
L 460.3349 508.009742 
L 458.277791 511.363724 
L 457.215996 512.918724 
L 456.00732 514.362516 
L 454.663333 515.681278 
L 453.196903 516.862385 
L 451.622066 517.89453 
L 449.953901 518.767833 
L 448.208376 519.473932 
L 446.402202 520.006068 
L 444.55267 520.359147 
L 442.677486 520.529789 
L 440.794602 520.51636 
L 438.922042 520.318989 
L 437.077735 519.939564 
L 435.279335 519.381719 
L 433.544059 518.650794 
L 431.88852 517.753787 
L 428.296309 515.573643 
L 428.27131 515.556731 
L 428.244674 515.542194 
L 425.311867 513.749616 
L 423.75003 512.686288 
L 422.299993 511.474926 
L 420.975735 510.127208 
L 419.790022 508.656125 
L 418.754282 507.075857 
L 417.8785 505.401637 
L 417.444179 504.325917 
L 417.172409 503.805519 
L 416.823955 502.940548 
L 415.621532 503.23685 
L 414.851987 503.382117 
L 412.908397 503.647271 
L 410.947911 503.713194 
L 408.9909 503.579201 
L 407.057695 503.246683 
L 405.372992 502.776233 
L 405.144913 504.419495 
L 405.102578 504.597556 
L 403.163154 502.998676 
M 463.779419 309.994356 
L 463.926603 311.227652 
L 463.96565 313.114068 
L 463.847809 317.270131 
L 463.833742 317.640397 
L 463.818763 317.954854 
L 463.685213 319.339806 
L 464.063305 318.199505 
L 464.807743 316.514155 
L 465.709939 314.90772 
L 466.761622 313.394923 
L 467.857372 312.102596 
L 467.98487 311.649454 
L 468.672237 309.890127 
L 469.528763 308.206658 
L 470.546197 306.615264 
L 471.302009 305.655421 
L 471.184663 305.774541 
L 469.73869 306.980241 
L 468.181824 308.03888 
L 466.528964 308.940326 
L 464.795929 309.67595 
L 463.779419 309.994356 
M 457.667379 331.163254 
L 456.237098 332.363499 
L 454.697234 333.419487 
L 453.062283 334.321277 
L 451.347635 335.060381 
L 449.569431 335.62984 
L 447.744411 336.024294 
L 445.889755 336.240031 
L 444.022922 336.275018 
L 442.770956 336.237709 
L 441.925681 336.417506 
L 440.050317 336.627453 
L 438.163406 336.652716 
L 435.538596 336.559072 
L 436.262319 337.605384 
L 437.176711 339.250585 
L 437.926011 340.977242 
L 438.50305 342.76884 
L 438.902308 344.60824 
L 439.119967 346.477845 
L 439.153943 348.35977 
L 439.035748 352.187234 
L 438.983367 353.979653 
L 438.837121 355.850826 
L 438.509295 357.698854 
L 438.003007 359.506159 
L 437.323072 361.255549 
L 436.475959 362.930385 
L 435.469724 364.514737 
L 434.313939 365.993533 
L 433.019597 367.352708 
L 431.599011 368.579335 
L 431.006114 368.997875 
L 430.96974 370.225977 
L 430.968395 370.26973 
L 430.895659 372.55023 
L 430.859106 373.698714 
L 430.706529 375.580737 
L 430.370251 377.43875 
L 429.853509 379.254864 
L 429.161277 381.011596 
L 428.300221 382.692034 
L 427.278628 384.280002 
L 426.106334 385.760211 
L 424.794624 387.118412 
L 423.356127 388.34153 
L 421.804689 389.41779 
L 420.155248 390.33683 
L 418.423681 391.089804 
L 417.879326 391.265395 
L 418.907442 391.829128 
L 420.440246 392.873189 
L 421.865432 394.059947 
L 423.169763 395.378382 
L 424.341126 396.816247 
L 424.859898 397.519732 
L 425.850612 399.002398 
L 426.699834 400.570401 
L 427.400275 402.210277 
L 427.553831 402.688037 
L 427.682424 402.3688 
L 428.556291 400.694745 
L 429.590024 399.114398 
L 430.77367 397.642975 
L 432.095831 396.294645 
L 433.543776 395.082391 
L 435.103562 394.017886 
L 436.760171 393.111381 
L 438.497649 392.371604 
L 440.299269 391.805678 
L 442.138663 391.420939 
L 441.639668 390.026991 
L 441.188232 388.246061 
L 440.908684 386.430198 
L 440.803573 384.595953 
L 440.843022 383.565461 
L 440.838084 383.565328 
L 440.911912 380.828064 
L 441.05641 378.936977 
L 441.386352 377.069298 
L 441.898534 375.243166 
L 442.587982 373.476319 
L 443.447998 371.785917 
L 444.47023 370.188378 
L 445.644749 368.69922 
L 446.960147 367.332905 
L 448.403648 366.102705 
L 449.951837 365.027096 
L 450.281852 364.608137 
L 451.582863 363.252578 
L 453.009861 362.030348 
L 454.549245 360.953099 
L 456.186341 360.031099 
L 457.905544 359.273135 
L 459.690467 358.686434 
L 461.524095 358.276587 
L 463.388951 358.047501 
L 465.267259 358.00136 
L 469.247505 358.098 
L 471.108822 358.233711 
L 472.948241 358.549076 
L 474.748464 359.041129 
L 475.488227 359.322814 
L 475.735263 359.108898 
L 476.821831 358.34055 
L 475.501807 357.967217 
L 473.756731 357.284256 
L 472.086354 356.434804 
L 470.506515 355.426916 
L 469.032196 354.27015 
L 467.677375 352.975473 
L 466.454899 351.555163 
L 465.37636 350.022687 
L 464.451986 348.392577 
L 463.690542 346.680289 
L 463.099246 344.90206 
L 462.683708 343.074752 
L 462.447866 341.215692 
L 462.393957 339.342507 
L 462.518879 333.077261 
L 462.523784 332.881333 
L 462.644817 328.864251 
L 462.6557 328.498018 
L 462.71898 326.427243 
L 462.745974 325.127891 
L 462.804492 323.975795 
L 462.837176 323.571798 
L 462.937501 322.796045 
L 462.746688 323.434879 
L 462.041451 325.163732 
L 461.171992 326.816104 
L 460.146495 328.37644 
L 458.974613 329.830051 
L 457.667379 331.163254 
M 351.923187 357.638038 
L 352.578783 355.866623 
L 353.404876 354.168011 
L 354.393508 352.558563 
L 355.535156 351.053785 
L 356.942202 349.376923 
L 358.438272 347.594001 
L 356.068695 344.767526 
L 354.921438 343.253072 
L 353.929107 341.632872 
L 353.101374 339.922718 
L 352.446307 338.139278 
L 351.970292 336.299936 
L 351.677967 334.42262 
L 351.572183 332.525628 
L 351.65397 330.62745 
L 351.922531 328.746588 
L 352.375248 326.901373 
L 353.00771 325.109792 
L 353.81375 323.389308 
L 354.785513 321.756688 
L 355.913527 320.227848 
L 357.186797 318.817687 
L 358.592913 317.539952 
L 363.734328 313.311949 
L 368.432121 309.449513 
L 369.959423 308.31551 
L 371.591219 307.337832 
L 373.311566 306.526033 
L 375.103655 305.888045 
L 376.949975 305.430101 
L 378.832487 305.156675 
L 380.732797 305.07044 
L 382.632336 305.172238 
L 384.512545 305.461074 
L 386.355052 305.934126 
L 388.141855 306.586772 
L 389.855495 307.412635 
L 391.479229 308.403646 
L 392.99719 309.550121 
L 394.394547 310.840859 
L 395.54572 312.137205 
L 395.516118 312.010025 
L 395.270189 310.132799 
L 394.690487 302.996457 
L 393.30364 299.496173 
L 392.690987 297.694439 
L 392.259282 295.841004 
L 392.012746 293.953994 
L 391.953791 292.05186 
L 392.082993 290.153203 
L 392.273121 289.024441 
L 392.019998 288.897118 
L 390.455727 287.911695 
L 388.993233 286.780714 
L 387.646014 285.514615 
L 386.426504 284.125082 
L 385.345959 282.62494 
L 384.508535 281.336003 
L 383.851996 280.241725 
L 382.25215 280.941758 
L 380.45318 281.526227 
L 379.936225 281.666502 
L 378.089656 282.071358 
L 376.212274 282.293086 
L 374.322195 282.329547 
L 372.437659 282.180388 
L 370.576849 281.847048 
L 368.757723 281.332746 
L 366.997835 280.642443 
L 365.314166 279.7828 
L 363.722963 278.762114 
L 362.239582 277.590232 
L 360.878336 276.278464 
L 359.652361 274.839468 
L 358.573486 273.287128 
L 358.543674 273.233716 
L 358.409239 273.076853 
L 357.590924 271.905819 
L 356.723509 271.479564 
L 354.771588 270.396485 
L 354.698759 270.355867 
L 353.953476 269.938092 
L 352.893217 269.352214 
L 351.312963 268.376614 
L 351.278131 268.350155 
L 351.24267 268.328154 
L 350.774739 267.967766 
L 349.834105 267.253236 
L 349.769802 267.193789 
L 349.703761 267.142926 
L 349.213488 266.679491 
L 348.470417 265.99254 
L 348.382906 265.894374 
L 348.292169 265.808604 
L 347.8435 265.289299 
L 347.234599 264.606267 
L 347.130943 264.46456 
L 347.022275 264.338783 
L 346.635409 263.787116 
L 346.138159 263.107328 
L 346.026105 262.918255 
L 345.907016 262.748436 
L 345.589193 262.181041 
L 345.191309 261.509682 
L 345.079156 261.270498 
L 344.957755 261.053766 
L 344.710439 260.484153 
L 344.446176 259.920571 
L 344.225166 260.408871 
L 343.255909 262.080434 
L 342.123914 263.646375 
L 340.840595 265.090907 
L 339.418888 266.399468 
L 337.873126 267.558866 
L 336.218892 268.557411 
L 334.472863 269.385039 
L 332.652642 270.033404 
L 330.776579 270.495971 
L 328.863586 270.768076 
L 319.933312 271.583602 
L 318.075493 271.663048 
L 316.218678 271.562818 
L 315.171795 271.403964 
L 316.860327 271.956768 
L 318.543027 272.69181 
L 320.148012 273.583881 
L 321.660669 274.624859 
L 323.067226 275.805267 
L 324.354879 277.114358 
L 325.511902 278.540213 
L 331.809824 287.106455 
L 332.854248 288.684063 
L 333.738711 290.356604 
L 334.454664 292.107912 
L 334.995186 293.921059 
L 335.355053 295.77852 
L 335.530786 297.662342 
L 335.520687 299.554316 
L 335.324854 301.436155 
L 334.945179 303.289669 
L 334.385332 305.096943 
L 333.650725 306.840508 
L 332.748458 308.503512 
L 332.172567 309.353542 
L 332.895485 310.320986 
L 333.921493 311.839865 
L 334.798344 313.449466 
L 335.518084 315.135189 
L 336.074185 316.881739 
L 336.4616 318.673273 
L 336.676817 320.493539 
L 336.717881 322.326023 
L 336.584421 324.154102 
L 336.277648 325.961193 
L 335.800344 327.7309 
L 335.156839 329.447172 
L 334.352972 331.094437 
L 333.396034 332.657752 
L 332.294707 334.122936 
L 331.058981 335.476696 
L 329.700433 336.70642 
L 329.940302 336.842203 
L 331.589251 337.889556 
L 333.123527 339.098678 
L 334.527322 340.45711 
L 335.786172 341.950857 
L 336.216453 342.517461 
L 337.526414 344.481962 
L 337.921439 345.16126 
L 338.787222 346.833329 
L 339.485456 348.582003 
L 340.009459 350.390543 
L 340.354214 352.241634 
L 340.460574 353.02356 
L 340.628079 355.059246 
L 340.578881 357.101219 
L 340.51953 357.868656 
L 340.283461 359.732196 
L 340.107486 360.505847 
L 341.36042 360.550411 
L 343.200102 360.794714 
L 345.007698 361.215086 
L 346.766397 361.807615 
L 347.210221 362.006582 
L 347.771359 361.598528 
L 349.383224 360.650768 
L 351.07946 359.863912 
L 351.398678 359.75202 
L 351.444404 359.465189 
L 351.923187 357.638038 
M 431.588486 470.26477 
L 432.456252 471.919738 
L 433.159417 473.651066 
L 433.319666 474.190731 
L 433.590433 474.139899 
L 434.858593 474.028731 
L 434.206651 473.197791 
L 433.190711 471.602022 
L 432.336354 469.914216 
L 431.651834 468.150684 
L 431.143768 466.328465 
L 430.817063 464.465168 
L 430.674877 462.578797 
L 430.718585 460.68758 
L 430.947762 458.809791 
L 431.360196 456.963575 
L 431.937288 455.211145 
L 431.227987 453.560952 
L 430.662355 451.791394 
L 430.269985 449.975542 
L 430.054531 448.130317 
L 430.034239 447.09849 
L 429.769961 446.788017 
L 428.692911 445.237257 
L 427.773008 443.588416 
L 427.019108 441.857368 
L 426.438467 440.060773 
L 426.036674 438.215927 
L 425.826698 436.418488 
L 425.536274 435.092827 
L 425.314815 433.213664 
L 425.285779 431.681263 
L 425.270529 431.697984 
L 424.410468 432.473249 
L 424.478026 433.112809 
L 424.486853 435.049593 
L 423.866718 448.58459 
L 423.865785 448.604728 
L 423.215799 462.473476 
L 425.116604 463.648292 
L 426.656599 464.70676 
L 428.086675 465.909599 
L 429.393348 467.245466 
L 430.564298 468.701767 
L 431.588486 470.26477 
M 408.604501 326.909348 
L 406.927262 326.282023 
L 407.122559 326.515309 
L 408.171045 328.046106 
L 409.067238 329.670759 
L 409.087138 329.716842 
L 409.366295 329.59677 
L 411.168273 329.023708 
L 413.017793 328.630257 
L 414.896997 328.420214 
L 416.787743 328.395608 
L 417.45223 328.41963 
L 416.938364 327.676916 
L 416.084749 327.749628 
L 414.192693 327.817327 
L 412.303141 327.698784 
L 410.434381 327.395144 
L 408.604501 326.909348 
" clip-path="url(#p659fb6576e)" style="fill: #ff0000; fill-opacity: 0.7; stroke: #000000; stroke-opacity: 0.7; stroke-width: 0.5"/>
    <path d="M 477.089338 552.270226 
L 474.418836 550.14285 
L 473.946001 549.576872 
L 473.275333 548.794395 
L 472.378544 548.202822 
L 470.05459 546.721195 
L 468.088581 545.532468 
L 466.806519 544.784053 
L 466.259208 544.464404 
L 465.119362 543.819716 
L 464.58456 542.810155 
L 463.155855 541.745362 
L 460.969691 540.843761 
L 448.946556 535.887172 
L 448.131776 535.578066 
L 448.507986 535.638448 
L 450.005462 535.940194 
L 451.474287 536.359763 
L 455.003525 537.521246 
L 457.578298 538.580641 
L 466.00127 542.782584 
L 468.260435 544.10887 
L 476.489254 549.726127 
L 477.989992 550.862017 
L 479.372593 552.139075 
L 480.623832 553.545084 
L 481.73174 555.066597 
L 482.685721 556.689059 
L 482.714604 556.751425 
L 477.089338 552.270226 
" clip-path="url(#p659fb6576e)" style="fill: #ff0000; fill-opacity: 0.7; stroke: #000000; stroke-opacity: 0.7; stroke-width: 0.5"/>
    <path d="M 511.05364 494.069657 
L 510.19457 501.10214 
L 509.905134 503.471127 
L 509.731549 504.907144 
L 508.156972 518.08552 
L 508.029574 519.224982 
L 507.911221 520.365405 
L 507.801528 521.506791 
L 507.70088 522.648946 
L 507.593688 523.991436 
L 507.499006 525.334695 
L 507.416447 526.678917 
L 507.343126 528.085106 
L 507.283084 529.492064 
L 507.236512 530.899407 
L 507.138173 536.652715 
L 507.191095 537.01374 
L 507.454936 538.507298 
L 507.544342 539.007277 
L 508.009945 541.611036 
L 508.221441 542.854417 
L 508.802045 544.383577 
L 510.178982 548.063877 
L 510.262087 548.256639 
L 510.156621 548.339966 
L 508.555134 549.366013 
L 506.860185 550.228962 
L 505.088331 550.920385 
L 504.462434 551.129619 
L 504.033811 551.275315 
L 503.171659 551.571276 
L 501.350524 552.097722 
L 499.486429 552.442437 
L 497.597463 552.602077 
L 495.701955 552.575093 
L 493.818298 552.361746 
L 491.964771 551.964107 
L 490.15936 551.386035 
L 488.419582 550.633138 
L 486.762321 549.712722 
L 485.203658 548.633719 
L 483.758717 547.406599 
L 482.441519 546.04327 
L 481.264845 544.556959 
L 480.422338 543.2457 
L 479.639186 542.063527 
L 478.781109 540.456266 
L 478.168291 538.989129 
L 476.883806 538.483735 
L 475.213226 537.732761 
L 473.621607 536.826369 
L 472.123366 535.77277 
L 470.732075 534.581507 
L 469.460337 533.263372 
L 468.319672 531.830305 
L 467.320413 530.295287 
L 466.471612 528.672224 
L 465.780957 526.975818 
L 465.254705 525.221436 
L 464.897623 523.42497 
L 464.712945 521.602693 
L 464.702345 519.771113 
L 464.865918 517.946821 
L 465.202183 516.146343 
L 465.708094 514.385987 
L 467.354799 509.538233 
L 466.366616 506.834465 
L 465.80826 505.039215 
L 465.427745 503.198049 
L 465.228704 501.32854 
L 465.213035 499.44853 
L 465.380889 497.575962 
L 465.730663 495.72871 
L 466.259019 493.924403 
L 466.960915 492.180263 
L 467.829651 490.512935 
L 468.856935 488.938334 
L 470.032964 487.471487 
L 471.346513 486.126395 
L 472.785044 484.915895 
L 474.334829 483.851541 
L 475.981076 482.943491 
L 477.708072 482.200412 
L 478.308105 481.976295 
L 478.659599 481.848887 
L 479.231207 481.647952 
L 479.526027 481.245125 
L 480.764679 479.856889 
L 482.131597 478.59475 
L 483.614004 477.470506 
L 485.198046 476.494663 
L 486.868917 475.676342 
L 488.611 475.023192 
L 490.408013 474.541318 
L 492.243159 474.235223 
L 494.099288 474.107769 
L 495.95905 474.160146 
L 497.805063 474.391865 
L 499.620073 474.80076 
L 501.387117 475.38301 
L 503.680315 476.263654 
L 505.403558 477.024166 
L 507.0442 477.9495 
L 508.586521 479.030792 
L 510.015747 480.257682 
L 511.318185 481.618418 
L 512.481359 483.099962 
L 513.494124 484.688123 
L 514.17682 486.032898 
L 511.05364 494.069657 
" clip-path="url(#p659fb6576e)" style="fill: #ff0000; fill-opacity: 0.7; stroke: #000000; stroke-opacity: 0.7; stroke-width: 0.5"/>
    <path d="M 238.287291 195.13034 
L 238.053664 200.132923 
L 237.779431 206.048846 
L 237.181315 219.001485 
L 237.128008 220.080134 
L 241.410466 219.928681 
L 244.783741 219.810172 
L 244.33138 221.389748 
L 243.631839 223.153657 
L 242.761983 224.840098 
L 241.73027 226.432674 
L 240.907738 227.463482 
L 242.748853 227.390246 
L 244.633562 227.50041 
L 246.498407 227.794716 
L 246.549092 227.80791 
L 246.606273 227.787294 
L 248.435582 227.324215 
L 250.30145 227.042519 
L 250.594958 227.012834 
L 252.482536 226.915222 
L 254.370585 227.003247 
L 256.240893 227.276059 
L 258.075419 227.731027 
L 259.856465 228.363762 
L 261.566851 229.168161 
L 263.190079 230.136464 
L 264.71049 231.259331 
L 266.113418 232.52593 
L 267.385329 233.924043 
L 268.513955 235.440183 
L 269.488409 237.059726 
L 270.299291 238.767049 
L 270.798469 240.155434 
L 271.821982 240.903347 
L 273.237468 242.169533 
L 274.521257 243.569072 
L 275.660848 245.088335 
L 276.645141 246.712525 
L 277.464551 248.425824 
L 278.111097 250.211547 
L 278.578482 252.052302 
L 278.862155 253.930161 
L 279.061378 255.904521 
L 279.50465 260.295782 
L 279.600787 262.016509 
L 279.542594 263.738938 
L 279.33054 265.449253 
L 279.208146 266.170274 
L 278.733425 268.256302 
L 278.030097 270.276748 
L 277.106853 272.206642 
L 276.72624 272.900338 
L 275.739066 274.507407 
L 274.59932 276.010126 
L 273.317951 277.394061 
L 272.839211 277.862796 
L 271.484777 279.069292 
L 270.022768 280.142908 
L 269.386908 280.565216 
L 267.475402 281.681893 
L 265.448299 282.571656 
L 264.781129 282.819787 
L 263.048065 283.37261 
L 261.270546 283.759326 
L 259.464454 283.97648 
L 258.678774 284.033447 
L 256.526856 284.068811 
L 254.384446 283.863669 
L 253.773459 283.770447 
L 251.669149 283.32785 
L 249.627353 282.653249 
L 249.072829 282.434971 
L 247.76296 281.862303 
L 246.499216 281.193977 
L 245.912158 280.855031 
L 243.954338 279.559291 
L 242.16887 278.03479 
L 241.741675 277.62241 
L 240.500113 276.305622 
L 239.387739 274.878025 
L 239.133847 274.518514 
L 238.706227 274.197181 
L 238.480382 274.012125 
L 237.231857 272.894791 
L 237.047726 272.714972 
L 235.695073 271.249572 
L 234.501335 269.652055 
L 233.479332 267.939577 
L 232.878645 266.644831 
L 232.324854 266.440458 
L 230.62648 265.616553 
L 229.016996 264.63022 
L 227.511887 263.490949 
L 226.125634 262.209702 
L 224.871576 260.798805 
L 223.761778 259.271835 
L 222.806917 257.643482 
L 222.016182 255.929414 
L 221.39718 254.146122 
L 220.955867 252.310765 
L 220.69649 250.441002 
L 220.532222 248.595558 
L 220.457283 246.708549 
L 220.567658 244.82328 
L 220.862284 242.957908 
L 221.338324 241.130394 
L 221.991195 239.358339 
L 222.814608 237.658806 
L 223.293332 236.876824 
L 223.132944 236.948905 
L 221.28781 237.562975 
L 219.390125 237.987698 
L 217.934684 238.23699 
L 217.33105 238.330546 
L 207.015492 239.762083 
L 205.868576 239.886337 
L 201.227408 240.248798 
L 199.348556 240.303456 
L 199.346521 240.303316 
L 199.344486 240.303375 
L 198.720778 240.260305 
L 197.765865 240.194668 
L 199.84778 243.40234 
L 200.798264 245.037494 
L 201.583649 246.758051 
L 202.19635 248.547393 
L 202.630448 250.388237 
L 202.88175 252.262802 
L 202.94783 254.152982 
L 202.828049 256.04052 
L 202.523563 257.907184 
L 202.037315 259.734945 
L 201.374 261.506148 
L 200.540025 263.203686 
L 199.543446 264.811161 
L 198.393889 266.313048 
L 197.102457 267.69484 
L 195.681623 268.943191 
L 194.145112 270.046042 
L 191.874667 271.512205 
L 190.242264 272.45636 
L 188.525292 273.236214 
L 186.740236 273.844277 
L 184.904237 274.274711 
L 183.034924 274.523384 
L 181.150249 274.587906 
L 179.906056 274.508409 
L 179.558341 275.140632 
L 178.50079 276.685879 
L 177.29807 278.121033 
L 175.961567 279.432507 
L 174.503936 280.607885 
L 172.938975 281.636039 
L 171.281501 282.507235 
L 169.547206 283.213226 
L 167.752509 283.747327 
L 165.9144 284.104482 
L 164.050282 284.28131 
L 162.177804 284.276137 
L 160.314692 284.089011 
L 159.200788 283.922061 
L 157.365606 283.554986 
L 155.57476 283.011386 
L 153.845184 282.296402 
L 152.193239 281.416794 
L 150.634546 280.380884 
L 149.183848 279.198468 
L 147.854865 277.880728 
L 146.660166 276.440128 
L 145.61105 274.890293 
L 144.71744 273.24588 
L 143.987786 271.522442 
L 143.428991 269.736278 
L 143.046338 267.904282 
L 142.843447 266.043779 
L 142.822236 264.172367 
L 142.982907 262.307744 
L 143.130925 261.214702 
L 143.464867 259.40464 
L 143.970204 257.634761 
L 144.642314 255.921253 
L 145.475049 254.279793 
L 146.460791 252.725395 
L 147.590523 251.272279 
L 148.853911 249.933738 
L 150.239396 248.722016 
L 151.734306 247.648197 
L 153.324965 246.722106 
L 154.996821 245.952213 
L 156.734583 245.345561 
L 158.522352 244.9077 
L 159.272439 244.798543 
L 159.50082 243.940086 
L 160.164137 242.168884 
L 160.998114 240.471348 
L 161.994695 238.863874 
L 163.144254 237.361989 
L 164.435688 235.980199 
L 165.856523 234.731851 
L 167.393035 233.629002 
L 169.663474 232.162847 
L 171.295874 231.218696 
L 173.012845 230.438846 
L 174.797898 229.830785 
L 176.633894 229.400353 
L 178.503203 229.151682 
L 180.387875 229.08716 
L 182.269814 229.207407 
L 182.320541 229.215689 
L 182.241256 229.040366 
L 181.846676 228.173939 
L 181.838092 228.148847 
L 181.827189 228.124737 
L 181.544854 227.291717 
L 181.238242 226.39549 
L 181.231677 226.367695 
L 181.222531 226.340707 
L 181.022906 225.483714 
L 180.806208 224.566167 
L 180.802114 224.535843 
L 180.795187 224.506108 
L 180.680297 223.633645 
L 180.554696 222.703424 
L 180.433669 221.28894 
L 179.448281 221.325748 
L 177.550741 221.208915 
L 175.673988 220.905426 
L 173.836337 220.418241 
L 172.055724 219.752116 
L 170.349524 218.913551 
L 168.73439 217.91073 
L 167.226084 216.75344 
L 165.839325 215.452975 
L 164.587649 214.022027 
L 163.483269 212.47456 
L 162.536963 210.825677 
L 161.757968 209.09147 
L 161.153886 207.288863 
L 160.730611 205.435448 
L 160.492275 203.549314 
L 159.952051 196.481072 
L 158.993393 196.652724 
L 150.442622 197.753745 
L 148.561004 197.9027 
L 146.673845 197.866609 
L 144.799299 197.645822 
L 142.955398 197.24246 
L 141.697925 196.834824 
L 142.117016 197.611336 
L 142.846812 199.353343 
L 143.402333 201.158498 
L 143.77823 203.009414 
L 143.970881 204.888263 
L 143.978431 206.776949 
L 143.740765 212.043845 
L 143.564972 213.911452 
L 143.208184 215.75307 
L 142.673791 217.551203 
L 141.966872 219.288765 
L 141.094142 220.949246 
L 140.063894 222.51687 
L 138.885917 223.976742 
L 137.571403 225.314991 
L 136.132842 226.518901 
L 134.583903 227.577033 
L 132.939304 228.479335 
L 131.214669 229.217231 
L 129.426386 229.783712 
L 128.525802 229.974968 
L 128.413092 228.931598 
L 128.317447 227.992664 
L 128.219878 226.957507 
L 128.12077 225.789564 
L 128.031476 224.615848 
L 127.951226 223.469459 
L 127.880215 222.351936 
L 127.820172 221.257892 
L 127.764171 220.15615 
L 127.725297 219.162368 
L 127.691812 218.191873 
L 127.666794 217.179233 
L 127.641392 216.193534 
L 127.629652 215.188784 
L 127.62869 214.515614 
L 127.632154 214.477703 
L 127.645433 214.442101 
L 127.667564 214.411117 
L 127.696815 214.386869 
L 127.731455 214.371089 
L 127.768982 214.364931 
L 128.537603 214.340875 
L 128.534332 213.743144 
L 128.532023 213.273965 
L 128.576092 209.428163 
L 128.59168 209.109091 
L 128.018389 209.0019 
L 127.947955 208.978422 
L 127.882716 208.943012 
L 127.824406 208.896825 
L 127.77514 208.841402 
L 127.734919 208.776355 
L 127.707015 208.705151 
L 127.692197 208.630098 
L 127.69085 208.553698 
L 127.703166 208.47826 
L 127.740885 207.509111 
L 127.782261 206.547853 
L 127.833451 205.575049 
L 127.878483 204.619564 
L 127.939487 203.641178 
L 128.002417 202.657212 
L 128.091903 201.496582 
L 128.189087 200.336144 
L 128.227191 199.846182 
L 128.353819 198.553535 
L 128.517589 197.121174 
L 128.696562 195.506184 
L 128.869762 194.185632 
L 128.897474 194.030138 
L 128.942121 193.878684 
L 129.002933 193.733004 
L 129.079141 193.594829 
L 129.170167 193.465892 
L 129.278706 193.345229 
L 129.400138 193.237461 
L 129.532732 193.144125 
L 129.67514 193.066378 
L 129.825439 193.004988 
L 129.945524 192.96496 
L 133.689908 191.667887 
L 134.306499 190.592125 
L 136.518258 186.734006 
L 135.881461 186.015228 
L 134.484702 184.438341 
L 131.195833 180.725711 
L 130.83654 180.319846 
L 131.106154 176.525042 
L 131.264536 174.291536 
L 131.607471 169.302039 
L 131.990627 163.8297 
L 132.469043 156.993703 
L 132.907431 152.736263 
L 131.643266 152.960075 
L 131.872082 150.839342 
L 133.170016 138.809118 
L 133.858825 140.313161 
L 134.473832 142.102108 
L 134.910229 143.942794 
L 135.163798 145.817433 
L 135.232089 147.70791 
L 135.114442 149.595958 
L 135.095969 149.710011 
L 135.279399 150.261479 
L 135.790464 152.09672 
L 136.117571 153.973499 
L 136.166866 154.642754 
L 137.351024 153.883087 
L 139.033655 153.023754 
L 140.792441 152.33356 
L 142.610431 151.819156 
L 144.470102 151.485502 
L 146.497012 151.223769 
L 148.647602 150.947077 
L 153.020801 150.382358 
L 154.902525 150.232715 
L 156.789857 150.268148 
L 158.664639 150.488313 
L 160.508831 150.891094 
L 162.304691 151.472614 
L 164.03494 152.227279 
L 165.682929 153.147827 
L 167.232804 154.225402 
L 168.669651 155.449636 
L 169.979646 156.80875 
L 171.150186 158.289667 
L 172.170008 159.878138 
L 173.0293 161.558881 
L 173.719793 163.315724 
L 174.234846 165.131764 
L 174.569501 166.989527 
L 174.797153 168.742226 
L 174.956528 169.971794 
L 175.210171 169.877205 
L 177.038327 169.297438 
L 178.915111 168.902517 
L 180.821885 168.696364 
L 181.512032 168.690845 
L 182.206125 168.512822 
L 184.047557 168.226606 
L 185.908039 168.119839 
L 187.770124 168.193522 
L 189.616352 168.446964 
L 191.167323 168.815511 
L 191.216674 168.812535 
L 193.10523 168.791496 
L 194.986753 168.955682 
L 196.843121 169.303509 
L 198.656454 169.831628 
L 200.409286 170.534953 
L 202.084734 171.406709 
L 203.666662 172.438499 
L 205.139832 173.620386 
L 206.490055 174.940986 
L 207.704326 176.387579 
L 208.77095 177.946232 
L 209.679652 179.601933 
L 210.421682 181.338734 
L 210.639758 182.030016 
L 212.340987 182.307266 
L 214.238376 182.715644 
L 216.084982 183.313057 
L 217.367426 183.876232 
L 218.374894 183.827092 
L 226.263838 183.830255 
L 228.128668 183.921572 
L 229.975873 184.19317 
L 231.788066 184.642493 
L 233.548188 185.265309 
L 235.239673 186.055758 
L 236.846599 187.0064 
L 238.353842 188.108285 
L 238.603313 188.330791 
L 238.287291 195.13034 
" clip-path="url(#p659fb6576e)" style="fill: #ff0000; fill-opacity: 0.7; stroke: #000000; stroke-opacity: 0.7; stroke-width: 0.5"/>
    <path d="M 240.520219 147.097845 
L 240.345929 150.82315 
L 240.228716 150.307331 
L 239.992684 148.430792 
L 239.956276 147.072859 
L 240.520219 147.097845 
" clip-path="url(#p659fb6576e)" style="fill: #ff0000; fill-opacity: 0.7; stroke: #000000; stroke-opacity: 0.7; stroke-width: 0.5"/>
    <path d="M 240.230784 136.736465 
L 240.105899 139.436631 
L 239.779923 140.206142 
L 238.794845 141.982623 
L 237.628002 143.645373 
L 228.015083 155.911907 
L 226.794927 157.322375 
L 225.443972 158.608113 
L 223.974905 159.757045 
L 222.401523 160.75838 
L 220.738603 161.602714 
L 219.001763 162.282117 
L 217.207315 162.790209 
L 215.372111 163.122217 
L 213.513388 163.275024 
L 211.648602 163.247195 
L 202.032985 162.636774 
L 200.112673 162.417615 
L 198.224028 162.006942 
L 196.386102 161.408896 
L 194.617434 160.629511 
L 192.935863 159.676648 
L 191.358351 158.559918 
L 189.90081 157.290585 
L 188.577943 155.881453 
L 187.403093 154.346735 
L 186.38811 152.701913 
L 185.543232 150.963577 
L 184.876983 149.149262 
L 184.39608 147.277267 
L 184.105377 145.366476 
L 184.076575 144.796676 
L 182.952742 143.795338 
L 181.684066 142.421935 
L 180.554654 140.931901 
L 179.575166 139.3393 
L 178.754848 137.659166 
L 178.101444 135.907357 
L 177.62112 134.100408 
L 177.31841 132.255377 
L 177.196172 130.389679 
L 177.181246 129.502757 
L 177.178588 129.229674 
L 177.178467 129.183937 
L 177.161167 129.108477 
L 177.065278 128.265373 
L 176.77375 127.456139 
L 176.313357 125.64139 
L 176.031487 123.790492 
L 175.930806 121.920963 
L 175.898484 115.631024 
L 177.40877 115.682123 
L 177.592362 115.688281 
L 180.625857 115.655566 
L 182.347847 115.644019 
L 184.38198 115.706179 
L 184.49456 115.709643 
L 186.21347 115.578781 
L 189.007758 115.366323 
L 189.109946 115.369594 
L 191.315547 115.437334 
L 195.10554 113.765958 
L 196.305621 113.702066 
L 199.451119 113.536757 
L 199.644141 113.54253 
L 201.066687 113.586792 
L 201.069766 113.523286 
L 210.583623 113.81965 
L 211.303556 113.842358 
L 214.428078 113.940312 
L 215.537902 113.975337 
L 216.116582 113.994004 
L 218.466516 114.069827 
L 220.589751 114.138529 
L 223.863417 114.237446 
L 224.461533 114.255343 
L 225.792091 114.295371 
L 227.082621 114.33463 
L 227.527552 114.348101 
L 229.882682 114.419498 
L 230.359558 114.433931 
L 230.977304 114.452791 
L 231.565413 114.470688 
L 235.733751 114.60001 
L 237.533295 114.655819 
L 238.516299 114.686225 
L 239.177922 114.706624 
L 239.881035 114.728487 
L 240.031567 115.002139 
L 240.76888 116.718148 
L 241.336375 118.497548 
L 241.728708 120.32358 
L 241.942181 122.179044 
L 241.974786 124.046464 
L 241.715852 132.373073 
L 241.660744 133.028443 
L 240.230784 136.736465 
" clip-path="url(#p659fb6576e)" style="fill: #ff0000; fill-opacity: 0.7; stroke: #000000; stroke-opacity: 0.7; stroke-width: 0.5"/>
    <path d="M 253.821337 358.193324 
L 255.6499 357.822704 
L 257.505759 357.630898 
L 259.37147 357.619706 
L 259.807733 357.638256 
L 261.682936 357.810205 
L 263.532357 358.164599 
L 265.338288 358.698047 
L 267.083438 359.40544 
L 268.751098 360.280006 
L 270.3253 361.31337 
L 271.790972 362.495639 
L 273.134081 363.815492 
L 274.341766 365.260294 
L 275.402465 366.816209 
L 276.306021 368.468341 
L 277.043784 370.200871 
L 277.608689 371.99721 
L 277.995328 373.84016 
L 278.199999 375.712074 
L 278.248275 376.516236 
L 278.265967 378.475592 
L 278.084328 380.426591 
L 277.705239 382.349007 
L 277.132632 384.22291 
L 276.372443 386.028873 
L 275.432552 387.748174 
L 274.322703 389.362988 
L 272.983022 391.114043 
L 271.790405 392.526725 
L 270.467734 393.818446 
L 269.027216 394.977287 
L 267.482146 395.992551 
L 265.846783 396.854868 
L 264.13622 397.556281 
L 262.366245 398.090315 
L 260.553193 398.452041 
L 258.713797 398.638122 
L 256.865033 398.64684 
L 255.023964 398.478115 
L 253.207581 398.133503 
L 252.398789 397.93939 
L 250.596594 397.412661 
L 248.854307 396.712816 
L 247.188511 395.846518 
L 245.615064 394.822012 
L 244.148944 393.64905 
L 242.804105 392.338799 
L 241.593351 390.90373 
L 240.528206 389.357505 
L 239.618809 387.71484 
L 238.873818 385.991374 
L 238.300322 384.203512 
L 237.903783 382.368272 
L 237.687973 380.503125 
L 237.654949 378.625825 
L 237.718623 376.586447 
L 237.873892 374.675089 
L 238.218615 372.788674 
L 238.749369 370.945932 
L 239.460884 369.165162 
L 240.346096 367.464045 
L 241.396213 365.859474 
L 242.60081 364.367381 
L 243.947925 363.002581 
L 245.424181 361.778627 
L 247.014921 360.707672 
L 248.704348 359.80035 
L 250.475687 359.06567 
L 252.31135 358.510928 
L 253.62756 358.252622 
L 253.821337 358.193324 
" clip-path="url(#p659fb6576e)" style="fill: #ff0000; fill-opacity: 0.7; stroke: #000000; stroke-opacity: 0.7; stroke-width: 0.5"/>
   </g>
   <g id="matplotlib.axis_1">
    <g id="xtick_1">
     <g id="line2d_1">
      <defs>
       <path id="mf0b2693b19" d="M 0 0 
L 0 3.5 
" style="stroke: #000000; stroke-width: 0.8"/>
      </defs>
      <g>
       <use xlink:href="#mf0b2693b19" x="112.084984" y="640.8" style="stroke: #000000; stroke-width: 0.8"/>
      </g>
     </g>
     <g id="text_1">
      <!-- 387000 -->
      <g transform="translate(92.997484 655.398438) scale(0.1 -0.1)">
       <defs>
        <path id="DejaVuSans-33" d="M 2597 2516 
Q 3050 2419 3304 2112 
Q 3559 1806 3559 1356 
Q 3559 666 3084 287 
Q 2609 -91 1734 -91 
Q 1441 -91 1130 -33 
Q 819 25 488 141 
L 488 750 
Q 750 597 1062 519 
Q 1375 441 1716 441 
Q 2309 441 2620 675 
Q 2931 909 2931 1356 
Q 2931 1769 2642 2001 
Q 2353 2234 1838 2234 
L 1294 2234 
L 1294 2753 
L 1863 2753 
Q 2328 2753 2575 2939 
Q 2822 3125 2822 3475 
Q 2822 3834 2567 4026 
Q 2313 4219 1838 4219 
Q 1578 4219 1281 4162 
Q 984 4106 628 3988 
L 628 4550 
Q 988 4650 1302 4700 
Q 1616 4750 1894 4750 
Q 2613 4750 3031 4423 
Q 3450 4097 3450 3541 
Q 3450 3153 3228 2886 
Q 3006 2619 2597 2516 
z
" transform="scale(0.015625)"/>
        <path id="DejaVuSans-38" d="M 2034 2216 
Q 1584 2216 1326 1975 
Q 1069 1734 1069 1313 
Q 1069 891 1326 650 
Q 1584 409 2034 409 
Q 2484 409 2743 651 
Q 3003 894 3003 1313 
Q 3003 1734 2745 1975 
Q 2488 2216 2034 2216 
z
M 1403 2484 
Q 997 2584 770 2862 
Q 544 3141 544 3541 
Q 544 4100 942 4425 
Q 1341 4750 2034 4750 
Q 2731 4750 3128 4425 
Q 3525 4100 3525 3541 
Q 3525 3141 3298 2862 
Q 3072 2584 2669 2484 
Q 3125 2378 3379 2068 
Q 3634 1759 3634 1313 
Q 3634 634 3220 271 
Q 2806 -91 2034 -91 
Q 1263 -91 848 271 
Q 434 634 434 1313 
Q 434 1759 690 2068 
Q 947 2378 1403 2484 
z
M 1172 3481 
Q 1172 3119 1398 2916 
Q 1625 2713 2034 2713 
Q 2441 2713 2670 2916 
Q 2900 3119 2900 3481 
Q 2900 3844 2670 4047 
Q 2441 4250 2034 4250 
Q 1625 4250 1398 4047 
Q 1172 3844 1172 3481 
z
" transform="scale(0.015625)"/>
        <path id="DejaVuSans-37" d="M 525 4666 
L 3525 4666 
L 3525 4397 
L 1831 0 
L 1172 0 
L 2766 4134 
L 525 4134 
L 525 4666 
z
" transform="scale(0.015625)"/>
        <path id="DejaVuSans-30" d="M 2034 4250 
Q 1547 4250 1301 3770 
Q 1056 3291 1056 2328 
Q 1056 1369 1301 889 
Q 1547 409 2034 409 
Q 2525 409 2770 889 
Q 3016 1369 3016 2328 
Q 3016 3291 2770 3770 
Q 2525 4250 2034 4250 
z
M 2034 4750 
Q 2819 4750 3233 4129 
Q 3647 3509 3647 2328 
Q 3647 1150 3233 529 
Q 2819 -91 2034 -91 
Q 1250 -91 836 529 
Q 422 1150 422 2328 
Q 422 3509 836 4129 
Q 1250 4750 2034 4750 
z
" transform="scale(0.015625)"/>
       </defs>
       <use xlink:href="#DejaVuSans-33"/>
       <use xlink:href="#DejaVuSans-38" x="63.623047"/>
       <use xlink:href="#DejaVuSans-37" x="127.246094"/>
       <use xlink:href="#DejaVuSans-30" x="190.869141"/>
       <use xlink:href="#DejaVuSans-30" x="254.492188"/>
       <use xlink:href="#DejaVuSans-30" x="318.115234"/>
      </g>
     </g>
    </g>
    <g id="xtick_2">
     <g id="line2d_2">
      <g>
       <use xlink:href="#mf0b2693b19" x="208.30701" y="640.8" style="stroke: #000000; stroke-width: 0.8"/>
      </g>
     </g>
     <g id="text_2">
      <!-- 387500 -->
      <g transform="translate(189.21951 655.398438) scale(0.1 -0.1)">
       <defs>
        <path id="DejaVuSans-35" d="M 691 4666 
L 3169 4666 
L 3169 4134 
L 1269 4134 
L 1269 2991 
Q 1406 3038 1543 3061 
Q 1681 3084 1819 3084 
Q 2600 3084 3056 2656 
Q 3513 2228 3513 1497 
Q 3513 744 3044 326 
Q 2575 -91 1722 -91 
Q 1428 -91 1123 -41 
Q 819 9 494 109 
L 494 744 
Q 775 591 1075 516 
Q 1375 441 1709 441 
Q 2250 441 2565 725 
Q 2881 1009 2881 1497 
Q 2881 1984 2565 2268 
Q 2250 2553 1709 2553 
Q 1456 2553 1204 2497 
Q 953 2441 691 2322 
L 691 4666 
z
" transform="scale(0.015625)"/>
       </defs>
       <use xlink:href="#DejaVuSans-33"/>
       <use xlink:href="#DejaVuSans-38" x="63.623047"/>
       <use xlink:href="#DejaVuSans-37" x="127.246094"/>
       <use xlink:href="#DejaVuSans-35" x="190.869141"/>
       <use xlink:href="#DejaVuSans-30" x="254.492188"/>
       <use xlink:href="#DejaVuSans-30" x="318.115234"/>
      </g>
     </g>
    </g>
    <g id="xtick_3">
     <g id="line2d_3">
      <g>
       <use xlink:href="#mf0b2693b19" x="304.529035" y="640.8" style="stroke: #000000; stroke-width: 0.8"/>
      </g>
     </g>
     <g id="text_3">
      <!-- 388000 -->
      <g transform="translate(285.441535 655.398438) scale(0.1 -0.1)">
       <use xlink:href="#DejaVuSans-33"/>
       <use xlink:href="#DejaVuSans-38" x="63.623047"/>
       <use xlink:href="#DejaVuSans-38" x="127.246094"/>
       <use xlink:href="#DejaVuSans-30" x="190.869141"/>
       <use xlink:href="#DejaVuSans-30" x="254.492188"/>
       <use xlink:href="#DejaVuSans-30" x="318.115234"/>
      </g>
     </g>
    </g>
    <g id="xtick_4">
     <g id="line2d_4">
      <g>
       <use xlink:href="#mf0b2693b19" x="400.751061" y="640.8" style="stroke: #000000; stroke-width: 0.8"/>
      </g>
     </g>
     <g id="text_4">
      <!-- 388500 -->
      <g transform="translate(381.663561 655.398438) scale(0.1 -0.1)">
       <use xlink:href="#DejaVuSans-33"/>
       <use xlink:href="#DejaVuSans-38" x="63.623047"/>
       <use xlink:href="#DejaVuSans-38" x="127.246094"/>
       <use xlink:href="#DejaVuSans-35" x="190.869141"/>
       <use xlink:href="#DejaVuSans-30" x="254.492188"/>
       <use xlink:href="#DejaVuSans-30" x="318.115234"/>
      </g>
     </g>
    </g>
    <g id="xtick_5">
     <g id="line2d_5">
      <g>
       <use xlink:href="#mf0b2693b19" x="496.973086" y="640.8" style="stroke: #000000; stroke-width: 0.8"/>
      </g>
     </g>
     <g id="text_5">
      <!-- 389000 -->
      <g transform="translate(477.885586 655.398438) scale(0.1 -0.1)">
       <defs>
        <path id="DejaVuSans-39" d="M 703 97 
L 703 672 
Q 941 559 1184 500 
Q 1428 441 1663 441 
Q 2288 441 2617 861 
Q 2947 1281 2994 2138 
Q 2813 1869 2534 1725 
Q 2256 1581 1919 1581 
Q 1219 1581 811 2004 
Q 403 2428 403 3163 
Q 403 3881 828 4315 
Q 1253 4750 1959 4750 
Q 2769 4750 3195 4129 
Q 3622 3509 3622 2328 
Q 3622 1225 3098 567 
Q 2575 -91 1691 -91 
Q 1453 -91 1209 -44 
Q 966 3 703 97 
z
M 1959 2075 
Q 2384 2075 2632 2365 
Q 2881 2656 2881 3163 
Q 2881 3666 2632 3958 
Q 2384 4250 1959 4250 
Q 1534 4250 1286 3958 
Q 1038 3666 1038 3163 
Q 1038 2656 1286 2365 
Q 1534 2075 1959 2075 
z
" transform="scale(0.015625)"/>
       </defs>
       <use xlink:href="#DejaVuSans-33"/>
       <use xlink:href="#DejaVuSans-38" x="63.623047"/>
       <use xlink:href="#DejaVuSans-39" x="127.246094"/>
       <use xlink:href="#DejaVuSans-30" x="190.869141"/>
       <use xlink:href="#DejaVuSans-30" x="254.492188"/>
       <use xlink:href="#DejaVuSans-30" x="318.115234"/>
      </g>
     </g>
    </g>
    <g id="xtick_6">
     <g id="line2d_6">
      <g>
       <use xlink:href="#mf0b2693b19" x="593.195111" y="640.8" style="stroke: #000000; stroke-width: 0.8"/>
      </g>
     </g>
     <g id="text_6">
      <!-- 389500 -->
      <g transform="translate(574.107611 655.398438) scale(0.1 -0.1)">
       <use xlink:href="#DejaVuSans-33"/>
       <use xlink:href="#DejaVuSans-38" x="63.623047"/>
       <use xlink:href="#DejaVuSans-39" x="127.246094"/>
       <use xlink:href="#DejaVuSans-35" x="190.869141"/>
       <use xlink:href="#DejaVuSans-30" x="254.492188"/>
       <use xlink:href="#DejaVuSans-30" x="318.115234"/>
      </g>
     </g>
    </g>
   </g>
   <g id="matplotlib.axis_2">
    <g id="ytick_1">
     <g id="line2d_7">
      <defs>
       <path id="m7f1e6d2671" d="M 0 0 
L -3.5 0 
" style="stroke: #000000; stroke-width: 0.8"/>
      </defs>
      <g>
       <use xlink:href="#m7f1e6d2671" x="99.886282" y="555.935416" style="stroke: #000000; stroke-width: 0.8"/>
      </g>
     </g>
     <g id="text_7">
      <!-- 5.8150 -->
      <g transform="translate(57.895657 559.734635) scale(0.1 -0.1)">
       <defs>
        <path id="DejaVuSans-2e" d="M 684 794 
L 1344 794 
L 1344 0 
L 684 0 
L 684 794 
z
" transform="scale(0.015625)"/>
        <path id="DejaVuSans-31" d="M 794 531 
L 1825 531 
L 1825 4091 
L 703 3866 
L 703 4441 
L 1819 4666 
L 2450 4666 
L 2450 531 
L 3481 531 
L 3481 0 
L 794 0 
L 794 531 
z
" transform="scale(0.015625)"/>
       </defs>
       <use xlink:href="#DejaVuSans-35"/>
       <use xlink:href="#DejaVuSans-2e" x="63.623047"/>
       <use xlink:href="#DejaVuSans-38" x="95.410156"/>
       <use xlink:href="#DejaVuSans-31" x="159.033203"/>
       <use xlink:href="#DejaVuSans-35" x="222.65625"/>
       <use xlink:href="#DejaVuSans-30" x="286.279297"/>
      </g>
     </g>
    </g>
    <g id="ytick_2">
     <g id="line2d_8">
      <g>
       <use xlink:href="#m7f1e6d2671" x="99.886282" y="459.713391" style="stroke: #000000; stroke-width: 0.8"/>
      </g>
     </g>
     <g id="text_8">
      <!-- 5.8155 -->
      <g transform="translate(57.895657 463.51261) scale(0.1 -0.1)">
       <use xlink:href="#DejaVuSans-35"/>
       <use xlink:href="#DejaVuSans-2e" x="63.623047"/>
       <use xlink:href="#DejaVuSans-38" x="95.410156"/>
       <use xlink:href="#DejaVuSans-31" x="159.033203"/>
       <use xlink:href="#DejaVuSans-35" x="222.65625"/>
       <use xlink:href="#DejaVuSans-35" x="286.279297"/>
      </g>
     </g>
    </g>
    <g id="ytick_3">
     <g id="line2d_9">
      <g>
       <use xlink:href="#m7f1e6d2671" x="99.886282" y="363.491365" style="stroke: #000000; stroke-width: 0.8"/>
      </g>
     </g>
     <g id="text_9">
      <!-- 5.8160 -->
      <g transform="translate(57.895657 367.290584) scale(0.1 -0.1)">
       <defs>
        <path id="DejaVuSans-36" d="M 2113 2584 
Q 1688 2584 1439 2293 
Q 1191 2003 1191 1497 
Q 1191 994 1439 701 
Q 1688 409 2113 409 
Q 2538 409 2786 701 
Q 3034 994 3034 1497 
Q 3034 2003 2786 2293 
Q 2538 2584 2113 2584 
z
M 3366 4563 
L 3366 3988 
Q 3128 4100 2886 4159 
Q 2644 4219 2406 4219 
Q 1781 4219 1451 3797 
Q 1122 3375 1075 2522 
Q 1259 2794 1537 2939 
Q 1816 3084 2150 3084 
Q 2853 3084 3261 2657 
Q 3669 2231 3669 1497 
Q 3669 778 3244 343 
Q 2819 -91 2113 -91 
Q 1303 -91 875 529 
Q 447 1150 447 2328 
Q 447 3434 972 4092 
Q 1497 4750 2381 4750 
Q 2619 4750 2861 4703 
Q 3103 4656 3366 4563 
z
" transform="scale(0.015625)"/>
       </defs>
       <use xlink:href="#DejaVuSans-35"/>
       <use xlink:href="#DejaVuSans-2e" x="63.623047"/>
       <use xlink:href="#DejaVuSans-38" x="95.410156"/>
       <use xlink:href="#DejaVuSans-31" x="159.033203"/>
       <use xlink:href="#DejaVuSans-36" x="222.65625"/>
       <use xlink:href="#DejaVuSans-30" x="286.279297"/>
      </g>
     </g>
    </g>
    <g id="ytick_4">
     <g id="line2d_10">
      <g>
       <use xlink:href="#m7f1e6d2671" x="99.886282" y="267.26934" style="stroke: #000000; stroke-width: 0.8"/>
      </g>
     </g>
     <g id="text_10">
      <!-- 5.8165 -->
      <g transform="translate(57.895657 271.068559) scale(0.1 -0.1)">
       <use xlink:href="#DejaVuSans-35"/>
       <use xlink:href="#DejaVuSans-2e" x="63.623047"/>
       <use xlink:href="#DejaVuSans-38" x="95.410156"/>
       <use xlink:href="#DejaVuSans-31" x="159.033203"/>
       <use xlink:href="#DejaVuSans-36" x="222.65625"/>
       <use xlink:href="#DejaVuSans-35" x="286.279297"/>
      </g>
     </g>
    </g>
    <g id="ytick_5">
     <g id="line2d_11">
      <g>
       <use xlink:href="#m7f1e6d2671" x="99.886282" y="171.047314" style="stroke: #000000; stroke-width: 0.8"/>
      </g>
     </g>
     <g id="text_11">
      <!-- 5.8170 -->
      <g transform="translate(57.895657 174.846533) scale(0.1 -0.1)">
       <use xlink:href="#DejaVuSans-35"/>
       <use xlink:href="#DejaVuSans-2e" x="63.623047"/>
       <use xlink:href="#DejaVuSans-38" x="95.410156"/>
       <use xlink:href="#DejaVuSans-31" x="159.033203"/>
       <use xlink:href="#DejaVuSans-37" x="222.65625"/>
       <use xlink:href="#DejaVuSans-30" x="286.279297"/>
      </g>
     </g>
    </g>
    <g id="text_12">
     <!-- 1e6 -->
     <g transform="translate(99.886282 83.4) scale(0.1 -0.1)">
      <defs>
       <path id="DejaVuSans-65" d="M 3597 1894 
L 3597 1613 
L 953 1613 
Q 991 1019 1311 708 
Q 1631 397 2203 397 
Q 2534 397 2845 478 
Q 3156 559 3463 722 
L 3463 178 
Q 3153 47 2828 -22 
Q 2503 -91 2169 -91 
Q 1331 -91 842 396 
Q 353 884 353 1716 
Q 353 2575 817 3079 
Q 1281 3584 2069 3584 
Q 2775 3584 3186 3129 
Q 3597 2675 3597 1894 
z
M 3022 2063 
Q 3016 2534 2758 2815 
Q 2500 3097 2075 3097 
Q 1594 3097 1305 2825 
Q 1016 2553 972 2059 
L 3022 2063 
z
" transform="scale(0.015625)"/>
      </defs>
      <use xlink:href="#DejaVuSans-31"/>
      <use xlink:href="#DejaVuSans-65" x="63.623047"/>
      <use xlink:href="#DejaVuSans-36" x="125.146484"/>
     </g>
    </g>
   </g>
   <g id="patch_3">
    <path d="M 99.886282 640.8 
L 99.886282 86.4 
" style="fill: none; stroke: #000000; stroke-width: 0.8; stroke-linejoin: miter; stroke-linecap: square"/>
   </g>
   <g id="patch_4">
    <path d="M 638.113718 640.8 
L 638.113718 86.4 
" style="fill: none; stroke: #000000; stroke-width: 0.8; stroke-linejoin: miter; stroke-linecap: square"/>
   </g>
   <g id="patch_5">
    <path d="M 99.886282 640.8 
L 638.113718 640.8 
" style="fill: none; stroke: #000000; stroke-width: 0.8; stroke-linejoin: miter; stroke-linecap: square"/>
   </g>
   <g id="patch_6">
    <path d="M 99.886282 86.4 
L 638.113718 86.4 
" style="fill: none; stroke: #000000; stroke-width: 0.8; stroke-linejoin: miter; stroke-linecap: square"/>
   </g>
   <g id="text_13">
    <!-- Schneberg_Sd -->
    <g transform="translate(292.278538 336.133061) scale(0.12 -0.12)">
     <defs>
      <path id="DejaVuSans-53" d="M 3425 4513 
L 3425 3897 
Q 3066 4069 2747 4153 
Q 2428 4238 2131 4238 
Q 1616 4238 1336 4038 
Q 1056 3838 1056 3469 
Q 1056 3159 1242 3001 
Q 1428 2844 1947 2747 
L 2328 2669 
Q 3034 2534 3370 2195 
Q 3706 1856 3706 1288 
Q 3706 609 3251 259 
Q 2797 -91 1919 -91 
Q 1588 -91 1214 -16 
Q 841 59 441 206 
L 441 856 
Q 825 641 1194 531 
Q 1563 422 1919 422 
Q 2459 422 2753 634 
Q 3047 847 3047 1241 
Q 3047 1584 2836 1778 
Q 2625 1972 2144 2069 
L 1759 2144 
Q 1053 2284 737 2584 
Q 422 2884 422 3419 
Q 422 4038 858 4394 
Q 1294 4750 2059 4750 
Q 2388 4750 2728 4690 
Q 3069 4631 3425 4513 
z
" transform="scale(0.015625)"/>
      <path id="DejaVuSans-63" d="M 3122 3366 
L 3122 2828 
Q 2878 2963 2633 3030 
Q 2388 3097 2138 3097 
Q 1578 3097 1268 2742 
Q 959 2388 959 1747 
Q 959 1106 1268 751 
Q 1578 397 2138 397 
Q 2388 397 2633 464 
Q 2878 531 3122 666 
L 3122 134 
Q 2881 22 2623 -34 
Q 2366 -91 2075 -91 
Q 1284 -91 818 406 
Q 353 903 353 1747 
Q 353 2603 823 3093 
Q 1294 3584 2113 3584 
Q 2378 3584 2631 3529 
Q 2884 3475 3122 3366 
z
" transform="scale(0.015625)"/>
      <path id="DejaVuSans-68" d="M 3513 2113 
L 3513 0 
L 2938 0 
L 2938 2094 
Q 2938 2591 2744 2837 
Q 2550 3084 2163 3084 
Q 1697 3084 1428 2787 
Q 1159 2491 1159 1978 
L 1159 0 
L 581 0 
L 581 4863 
L 1159 4863 
L 1159 2956 
Q 1366 3272 1645 3428 
Q 1925 3584 2291 3584 
Q 2894 3584 3203 3211 
Q 3513 2838 3513 2113 
z
" transform="scale(0.015625)"/>
      <path id="DejaVuSans-f6" d="M 1959 3097 
Q 1497 3097 1228 2736 
Q 959 2375 959 1747 
Q 959 1119 1226 758 
Q 1494 397 1959 397 
Q 2419 397 2687 759 
Q 2956 1122 2956 1747 
Q 2956 2369 2687 2733 
Q 2419 3097 1959 3097 
z
M 1959 3584 
Q 2709 3584 3137 3096 
Q 3566 2609 3566 1747 
Q 3566 888 3137 398 
Q 2709 -91 1959 -91 
Q 1206 -91 779 398 
Q 353 888 353 1747 
Q 353 2609 779 3096 
Q 1206 3584 1959 3584 
z
M 2253 4850 
L 2888 4850 
L 2888 4219 
L 2253 4219 
L 2253 4850 
z
M 1031 4850 
L 1666 4850 
L 1666 4219 
L 1031 4219 
L 1031 4850 
z
" transform="scale(0.015625)"/>
      <path id="DejaVuSans-6e" d="M 3513 2113 
L 3513 0 
L 2938 0 
L 2938 2094 
Q 2938 2591 2744 2837 
Q 2550 3084 2163 3084 
Q 1697 3084 1428 2787 
Q 1159 2491 1159 1978 
L 1159 0 
L 581 0 
L 581 3500 
L 1159 3500 
L 1159 2956 
Q 1366 3272 1645 3428 
Q 1925 3584 2291 3584 
Q 2894 3584 3203 3211 
Q 3513 2838 3513 2113 
z
" transform="scale(0.015625)"/>
      <path id="DejaVuSans-62" d="M 3116 1747 
Q 3116 2381 2855 2742 
Q 2594 3103 2138 3103 
Q 1681 3103 1420 2742 
Q 1159 2381 1159 1747 
Q 1159 1113 1420 752 
Q 1681 391 2138 391 
Q 2594 391 2855 752 
Q 3116 1113 3116 1747 
z
M 1159 2969 
Q 1341 3281 1617 3432 
Q 1894 3584 2278 3584 
Q 2916 3584 3314 3078 
Q 3713 2572 3713 1747 
Q 3713 922 3314 415 
Q 2916 -91 2278 -91 
Q 1894 -91 1617 61 
Q 1341 213 1159 525 
L 1159 0 
L 581 0 
L 581 4863 
L 1159 4863 
L 1159 2969 
z
" transform="scale(0.015625)"/>
      <path id="DejaVuSans-72" d="M 2631 2963 
Q 2534 3019 2420 3045 
Q 2306 3072 2169 3072 
Q 1681 3072 1420 2755 
Q 1159 2438 1159 1844 
L 1159 0 
L 581 0 
L 581 3500 
L 1159 3500 
L 1159 2956 
Q 1341 3275 1631 3429 
Q 1922 3584 2338 3584 
Q 2397 3584 2469 3576 
Q 2541 3569 2628 3553 
L 2631 2963 
z
" transform="scale(0.015625)"/>
      <path id="DejaVuSans-67" d="M 2906 1791 
Q 2906 2416 2648 2759 
Q 2391 3103 1925 3103 
Q 1463 3103 1205 2759 
Q 947 2416 947 1791 
Q 947 1169 1205 825 
Q 1463 481 1925 481 
Q 2391 481 2648 825 
Q 2906 1169 2906 1791 
z
M 3481 434 
Q 3481 -459 3084 -895 
Q 2688 -1331 1869 -1331 
Q 1566 -1331 1297 -1286 
Q 1028 -1241 775 -1147 
L 775 -588 
Q 1028 -725 1275 -790 
Q 1522 -856 1778 -856 
Q 2344 -856 2625 -561 
Q 2906 -266 2906 331 
L 2906 616 
Q 2728 306 2450 153 
Q 2172 0 1784 0 
Q 1141 0 747 490 
Q 353 981 353 1791 
Q 353 2603 747 3093 
Q 1141 3584 1784 3584 
Q 2172 3584 2450 3431 
Q 2728 3278 2906 2969 
L 2906 3500 
L 3481 3500 
L 3481 434 
z
" transform="scale(0.015625)"/>
      <path id="DejaVuSans-5f" d="M 3263 -1063 
L 3263 -1509 
L -63 -1509 
L -63 -1063 
L 3263 -1063 
z
" transform="scale(0.015625)"/>
      <path id="DejaVuSans-fc" d="M 544 1381 
L 544 3500 
L 1119 3500 
L 1119 1403 
Q 1119 906 1312 657 
Q 1506 409 1894 409 
Q 2359 409 2629 706 
Q 2900 1003 2900 1516 
L 2900 3500 
L 3475 3500 
L 3475 0 
L 2900 0 
L 2900 538 
Q 2691 219 2414 64 
Q 2138 -91 1772 -91 
Q 1169 -91 856 284 
Q 544 659 544 1381 
z
M 1991 3584 
L 1991 3584 
z
M 2278 4850 
L 2913 4850 
L 2913 4219 
L 2278 4219 
L 2278 4850 
z
M 1056 4850 
L 1691 4850 
L 1691 4219 
L 1056 4219 
L 1056 4850 
z
" transform="scale(0.015625)"/>
      <path id="DejaVuSans-64" d="M 2906 2969 
L 2906 4863 
L 3481 4863 
L 3481 0 
L 2906 0 
L 2906 525 
Q 2725 213 2448 61 
Q 2172 -91 1784 -91 
Q 1150 -91 751 415 
Q 353 922 353 1747 
Q 353 2572 751 3078 
Q 1150 3584 1784 3584 
Q 2172 3584 2448 3432 
Q 2725 3281 2906 2969 
z
M 947 1747 
Q 947 1113 1208 752 
Q 1469 391 1925 391 
Q 2381 391 2643 752 
Q 2906 1113 2906 1747 
Q 2906 2381 2643 2742 
Q 2381 3103 1925 3103 
Q 1469 3103 1208 2742 
Q 947 2381 947 1747 
z
" transform="scale(0.015625)"/>
     </defs>
     <use xlink:href="#DejaVuSans-53"/>
     <use xlink:href="#DejaVuSans-63" x="63.476562"/>
     <use xlink:href="#DejaVuSans-68" x="118.457031"/>
     <use xlink:href="#DejaVuSans-f6" x="181.835938"/>
     <use xlink:href="#DejaVuSans-6e" x="243.017578"/>
     <use xlink:href="#DejaVuSans-65" x="306.396484"/>
     <use xlink:href="#DejaVuSans-62" x="367.919922"/>
     <use xlink:href="#DejaVuSans-65" x="431.396484"/>
     <use xlink:href="#DejaVuSans-72" x="492.919922"/>
     <use xlink:href="#DejaVuSans-67" x="532.283203"/>
     <use xlink:href="#DejaVuSans-5f" x="595.759766"/>
     <use xlink:href="#DejaVuSans-53" x="645.759766"/>
     <use xlink:href="#DejaVuSans-fc" x="709.236328"/>
     <use xlink:href="#DejaVuSans-64" x="772.615234"/>
    </g>
   </g>
  </g>
 </g>
 <defs>
  <clipPath id="p659fb6576e">
   <rect x="99.886282" y="86.4" width="538.227437" height="554.4"/>
  </clipPath>
 </defs>
</svg>
