<?xml version="1.0" encoding="utf-8" standalone="no"?>
<!DOCTYPE svg PUBLIC "-//W3C//DTD SVG 1.1//EN"
  "http://www.w3.org/Graphics/SVG/1.1/DTD/svg11.dtd">
<svg xmlns:xlink="http://www.w3.org/1999/xlink" width="720pt" height="720pt" viewBox="0 0 720 720" xmlns="http://www.w3.org/2000/svg" version="1.1">
 <metadata>
  <rdf:RDF xmlns:dc="http://purl.org/dc/elements/1.1/" xmlns:cc="http://creativecommons.org/ns#" xmlns:rdf="http://www.w3.org/1999/02/22-rdf-syntax-ns#">
   <cc:Work>
    <dc:type rdf:resource="http://purl.org/dc/dcmitype/StillImage"/>
    <dc:date>2024-10-15T09:51:34.232426</dc:date>
    <dc:format>image/svg+xml</dc:format>
    <dc:creator>
     <cc:Agent>
      <dc:title>Matplotlib v3.8.4, https://matplotlib.org/</dc:title>
     </cc:Agent>
    </dc:creator>
   </cc:Work>
  </rdf:RDF>
 </metadata>
 <defs>
  <style type="text/css">*{stroke-linejoin: round; stroke-linecap: butt}</style>
 </defs>
 <g id="figure_1">
  <g id="patch_1">
   <path d="M 0 720 
L 720 720 
L 720 0 
L 0 0 
z
" style="fill: #ffffff"/>
  </g>
  <g id="axes_1">
   <g id="patch_2">
    <path d="M 90 569.725012 
L 648 569.725012 
L 648 157.474988 
L 90 157.474988 
z
" style="fill: #ffffff"/>
   </g>
   <g id="PatchCollection_1">
    <path d="M 175.006115 177.751962 
L 174.071613 179.101755 
L 173.987753 179.222865 
L 173.764825 179.544936 
L 173.295091 180.224226 
L 172.786005 180.960251 
L 172.485138 181.395028 
L 172.317417 181.637631 
L 169.090407 186.296385 
L 168.642068 186.943583 
L 168.070325 187.769581 
L 168.010152 187.856498 
L 167.438028 188.682879 
L 166.973069 189.354337 
L 166.564655 189.944036 
L 165.812584 191.030212 
L 161.404074 197.395979 
L 160.73892 198.357033 
L 159.251588 200.504552 
L 158.546509 201.522724 
L 157.840475 202.542423 
L 157.382394 203.203757 
L 157.349919 203.250749 
L 156.913233 203.88171 
L 156.528697 204.437215 
L 155.325994 206.1746 
L 155.294666 206.220256 
L 155.174701 206.393708 
L 154.809267 206.921132 
L 151.502217 211.696985 
L 149.892819 214.021204 
L 148.775116 215.635282 
L 147.840621 216.984789 
L 147.650432 217.259424 
L 146.175634 219.389048 
L 145.403887 220.501586 
L 142.363892 224.885262 
L 140.695276 227.29105 
L 137.437892 232.004819 
L 137.352885 232.127649 
L 137.069784 232.536446 
L 127.928021 245.734847 
L 127.479682 246.382427 
L 125.057657 249.879167 
L 123.107277 252.695279 
L 122.684153 253.3058 
L 120.500147 256.459074 
L 119.914078 257.306658 
L 118.263227 259.693916 
L 117.625963 260.615428 
L 115.363636 265.16587 
L 119.105845 267.742435 
L 122.285099 269.931598 
L 125.751656 272.3307 
L 126.568868 272.895947 
L 127.057513 273.232536 
L 128.341593 274.116797 
L 132.1392 276.731377 
L 132.277694 276.826508 
L 133.132728 277.416207 
L 133.253075 277.499112 
L 133.900273 277.944968 
L 134.034947 278.037807 
L 134.827706 278.584143 
L 135.022936 278.718052 
L 137.854521 280.668433 
L 140.199562 282.283944 
L 139.818655 283.269449 
L 138.824745 285.840093 
L 139.779744 289.171202 
L 140.827084 292.824403 
L 139.664115 295.858094 
L 129.501506 322.365884 
L 128.338155 325.400339 
L 126.786829 330.237512 
L 126.675078 330.690054 
L 125.440092 335.707937 
L 124.669491 335.50927 
L 124.025923 338.115826 
L 122.800297 343.112315 
L 121.560726 348.125804 
L 120.320391 353.143879 
L 119.084832 358.136356 
L 117.720521 363.657212 
L 117.321467 365.234518 
L 118.328367 365.324301 
L 118.184524 368.068396 
L 116.962337 367.958747 
L 116.991373 370.237311 
L 117.049254 374.771515 
L 117.001497 374.771897 
L 117.053839 378.875528 
L 117.10618 382.97935 
L 117.157757 387.022043 
L 117.205132 390.745913 
L 118.399238 390.73044 
L 118.400766 390.850596 
L 118.417768 392.25082 
L 118.423881 392.753602 
L 118.392361 403.447837 
L 118.799821 403.275531 
L 120.218956 402.674562 
L 124.187723 402.807134 
L 128.686903 402.999534 
L 129.132634 403.418801 
L 129.38135 403.652809 
L 136.019821 405.477026 
L 138.522159 405.625921 
L 141.279435 405.974544 
L 142.66304 406.145895 
L 142.802298 406.15048 
L 144.641119 406.209316 
L 144.858316 406.216384 
L 145.739903 406.263758 
L 149.012378 406.442559 
L 151.080048 406.508654 
L 151.207654 406.512857 
L 155.812156 406.651924 
L 156.309016 406.660329 
L 158.268184 406.726616 
L 158.450423 406.732728 
L 161.461573 406.700254 
L 163.170878 406.688792 
L 165.190028 406.750494 
L 165.301779 406.753932 
L 167.008027 406.624034 
L 169.781732 406.413141 
L 169.883167 406.416389 
L 172.072521 406.48363 
L 175.834597 404.824565 
L 177.025838 404.761144 
L 180.148166 404.597052 
L 180.339765 404.602783 
L 181.751833 404.646719 
L 181.754889 404.583681 
L 191.198665 404.877861 
L 191.913296 404.900402 
L 195.014801 404.997635 
L 196.116451 405.032402 
L 196.690868 405.050931 
L 199.023492 405.126196 
L 201.131087 405.194392 
L 204.380639 405.29258 
L 204.974349 405.310345 
L 206.295106 405.350079 
L 207.57613 405.389048 
L 208.017783 405.40242 
L 210.355565 405.473291 
L 210.828929 405.487618 
L 211.442124 405.506338 
L 212.025901 405.524104 
L 216.163534 405.652474 
L 217.949823 405.707871 
L 218.925586 405.738054 
L 219.582335 405.758302 
L 221.572831 405.820195 
L 231.206869 405.552567 
L 230.840099 406.273883 
L 230.786229 406.379138 
L 230.084207 407.759114 
L 229.700435 408.513286 
L 229.323157 409.255042 
L 227.885492 412.081279 
L 227.463514 412.911289 
L 226.732265 414.34819 
L 224.231346 419.265212 
L 222.843348 421.99307 
L 222.663019 422.347424 
L 220.627441 427.625868 
L 220.305561 434.585344 
L 220.151594 437.877113 
L 220.914745 437.910924 
L 220.71665 442.145026 
L 220.644442 443.32194 
L 220.589809 444.857602 
L 220.354464 449.823527 
L 220.263153 451.758816 
L 220.058755 456.126063 
L 219.949297 458.493072 
L 219.725987 463.353741 
L 219.638115 465.289413 
L 219.411939 470.249606 
L 219.031415 478.421528 
L 218.698264 485.589605 
L 218.466358 490.555339 
L 218.194146 496.427684 
L 217.600435 509.284912 
L 217.547521 510.355616 
L 221.798433 510.205278 
L 228.073271 509.984833 
L 228.638327 509.964775 
L 228.710153 509.962101 
L 228.804138 510.641964 
L 232.205556 510.168028 
L 235.606973 509.694091 
L 236.823048 509.52465 
L 239.01756 509.218817 
L 248.463819 507.901498 
L 252.369165 507.356882 
L 255.909459 506.862887 
L 256.538509 506.774824 
L 259.733045 506.327822 
L 263.227492 505.839367 
L 263.733903 505.768688 
L 269.678647 504.938105 
L 274.784594 504.221373 
L 276.357888 503.999974 
L 277.939205 503.777237 
L 281.349983 503.310941 
L 285.56078 502.718377 
L 286.154681 502.634134 
L 289.938725 502.097159 
L 294.764436 501.438117 
L 301.347208 500.512785 
L 308.238679 499.501491 
L 309.229916 499.363379 
L 312.183185 498.945604 
L 313.019499 498.827358 
L 314.853735 498.567945 
L 317.64788 498.17252 
L 318.048653 498.115785 
L 320.341715 497.791337 
L 322.404057 497.499533 
L 322.960135 497.419111 
L 328.330271 496.638004 
L 331.906096 496.114591 
L 334.379316 495.752214 
L 334.411599 495.057642 
L 339.112952 494.400702 
L 339.584788 494.334607 
L 345.570411 494.163638 
L 345.978635 494.107476 
L 349.713967 493.593615 
L 352.698946 493.182908 
L 359.842764 492.200077 
L 360.651188 492.083169 
L 363.511045 491.639987 
L 368.808974 490.669191 
L 378.988584 488.801334 
L 379.96683 488.621769 
L 385.062653 487.677143 
L 387.752687 487.183721 
L 401.233808 484.711075 
L 403.977713 484.20772 
L 405.824557 483.86903 
L 410.907198 482.936821 
L 412.462154 481.899929 
L 419.205961 485.321595 
L 419.986496 485.769934 
L 418.143472 488.959886 
L 417.438584 490.179781 
L 418.959479 491.818484 
L 419.609027 492.453951 
L 419.662897 492.525586 
L 419.811324 492.624156 
L 415.993469 496.457484 
L 418.496871 499.086581 
L 418.915219 499.526324 
L 421.33094 502.062965 
L 424.628439 505.526084 
L 426.301067 507.283337 
L 426.604608 507.602351 
L 427.773308 508.828741 
L 431.390968 512.62864 
L 431.816192 513.074686 
L 434.603201 515.973673 
L 437.602767 519.153913 
L 440.593615 522.332352 
L 442.3287 523.726011 
L 447.122 527.576097 
L 457.485567 537.355107 
L 457.962369 537.807458 
L 458.023115 537.882531 
L 458.073355 537.965246 
L 458.515964 538.074704 
L 461.809071 538.744091 
L 461.84638 538.745028 
L 464.775328 538.818561 
L 468.322881 538.916749 
L 468.510517 538.94795 
L 472.192695 539.024105 
L 473.787766 539.068233 
L 476.791658 539.15152 
L 479.713599 539.243786 
L 482.806509 539.319814 
L 485.922342 539.396225 
L 489.212009 539.475883 
L 492.516194 539.551148 
L 496.835493 539.662898 
L 500.524215 539.752107 
L 503.269838 539.817821 
L 506.137337 539.891366 
L 510.328076 539.997767 
L 513.2525 540.070549 
L 513.613731 540.079336 
L 517.42853 540.169118 
L 517.652775 540.22638 
L 521.666452 541.10744 
L 524.985346 541.842319 
L 529.791573 542.906719 
L 541.869604 545.571347 
L 542.180213 545.619677 
L 542.985008 545.78033 
L 543.818265 545.91997 
L 544.285908 545.986709 
L 544.389816 546.001539 
L 545.941906 546.172125 
L 546.133888 546.193329 
L 546.797323 546.259424 
L 551.619213 546.776915 
L 557.985171 547.461172 
L 570.493585 548.805425 
L 577.979339 549.608501 
L 577.667775 550.423993 
L 582.191091 550.926392 
L 582.734179 550.986375 
L 582.89426 549.534764 
L 583.169147 547.039768 
L 583.286055 545.980908 
L 585.96864 541.113553 
L 589.201572 535.240444 
L 589.401386 534.877303 
L 590.157659 533.504204 
L 591.685298 530.731073 
L 592.208711 529.780907 
L 599.453772 516.61861 
L 599.526553 516.610396 
L 606.820517 515.853358 
L 608.142994 515.716201 
L 608.580826 509.163228 
L 608.669463 507.84037 
L 608.744918 506.711021 
L 608.876153 504.748988 
L 608.904998 504.318033 
L 609.086091 501.613671 
L 609.162502 500.471905 
L 609.618482 493.974713 
L 609.896617 493.512047 
L 612.189316 489.763916 
L 615.097122 485.007548 
L 615.419001 484.481079 
L 616.865645 482.115025 
L 618.198245 479.934267 
L 620.68541 475.867313 
L 622.13129 473.503169 
L 622.636364 468.342016 
L 622.022214 468.124054 
L 621.173292 467.822806 
L 619.764089 467.322698 
L 618.871805 467.005594 
L 618.387171 466.833671 
L 617.883434 466.65487 
L 617.604726 466.555727 
L 616.530202 466.173865 
L 615.781187 465.907765 
L 614.233109 465.357609 
L 610.858817 464.158727 
L 610.581829 464.060157 
L 609.653631 463.730445 
L 605.196219 462.146454 
L 605.093256 462.109777 
L 604.272224 461.819417 
L 604.189128 461.789807 
L 604.108132 461.760962 
L 602.272559 461.108225 
L 600.043089 460.316229 
L 596.607096 459.095761 
L 594.980314 458.517715 
L 594.704663 458.419909 
L 592.364397 457.588562 
L 591.641553 457.331631 
L 591.136097 457.152067 
L 590.399308 456.89036 
L 589.480089 456.563705 
L 588.637662 456.264366 
L 586.509627 455.508284 
L 581.615528 453.769561 
L 579.418342 452.989026 
L 578.811833 452.773549 
L 577.364807 452.259496 
L 577.048658 452.147746 
L 576.195534 451.844587 
L 572.335844 450.47359 
L 569.16767 449.348253 
L 568.665079 449.169643 
L 566.937245 448.555875 
L 566.704574 448.47316 
L 565.792805 448.148989 
L 564.796984 447.795207 
L 562.875831 447.119165 
L 561.276748 446.544939 
L 558.556913 445.579109 
L 557.757658 445.295244 
L 556.731464 444.930765 
L 553.574369 443.80944 
L 553.757755 440.49876 
L 553.2395 440.315757 
L 545.93694 437.723718 
L 541.973331 436.326551 
L 538.024814 434.933395 
L 534.061206 433.534317 
L 530.080405 432.131036 
L 529.057267 435.112386 
L 525.304361 433.780359 
L 524.844942 433.616649 
L 523.191608 433.030198 
L 523.169449 433.022366 
L 522.098554 432.642223 
L 520.580085 432.103719 
L 519.530585 431.731409 
L 519.104978 431.580498 
L 519.05321 431.562159 
L 518.379842 431.323185 
L 518.23428 431.271417 
L 517.389178 430.971696 
L 516.844753 430.778569 
L 518.136856 427.814793 
L 518.786346 426.27894 
L 519.240034 425.013581 
L 520.057436 422.733871 
L 521.892819 417.614552 
L 521.875244 417.512926 
L 521.415635 414.839892 
L 520.293736 408.312708 
L 519.987903 406.533297 
L 519.960204 406.372453 
L 520.238529 402.821461 
L 520.574354 398.537119 
L 521.17838 390.829201 
L 522.068945 379.464463 
L 522.244498 377.187427 
L 522.566569 373.010633 
L 522.597706 372.604511 
L 523.227139 364.437938 
L 523.312528 363.329984 
L 524.009774 354.612109 
L 524.022573 354.453748 
L 524.141773 352.962595 
L 524.1561 352.782839 
L 524.796612 344.772335 
L 528.34512 340.408335 
L 529.251159 339.294077 
L 532.692501 335.110597 
L 537.102538 329.662713 
L 537.89759 324.016161 
L 538.91175 316.689341 
L 539.069156 315.548149 
L 536.527739 313.484681 
L 534.721202 315.671743 
L 534.231219 316.264307 
L 528.502526 315.390552 
L 526.963426 315.15578 
L 526.566473 315.057784 
L 524.762419 314.612501 
L 523.930498 314.407147 
L 518.303431 313.018003 
L 517.724812 312.875306 
L 516.550572 312.585328 
L 514.2296 312.012248 
L 513.83131 311.914061 
L 513.751843 311.894385 
L 512.766911 311.651017 
L 511.858389 311.426561 
L 510.953305 311.20306 
L 508.67455 310.64106 
L 508.25945 310.538479 
L 508.150947 310.511927 
L 508.071098 310.492251 
L 507.670897 310.393299 
L 507.205748 310.278492 
L 506.173823 310.023472 
L 505.329868 309.815062 
L 504.269671 309.553165 
L 503.266782 309.305403 
L 498.369245 308.096779 
L 494.872887 307.233721 
L 490.785112 306.23981 
L 490.36428 306.135892 
L 489.622716 305.953271 
L 486.955795 305.295375 
L 486.013843 305.063278 
L 485.593394 304.959551 
L 484.161268 304.606152 
L 482.161412 304.11273 
L 481.724153 304.004992 
L 481.600367 303.974427 
L 481.512686 303.952841 
L 481.125285 303.857328 
L 479.048827 303.345568 
L 477.679549 303.007833 
L 475.811119 302.546886 
L 474.41376 302.202275 
L 470.339356 301.203015 
L 470.103821 301.145134 
L 466.244131 300.193822 
L 466.10812 300.160584 
L 465.633992 300.043484 
L 465.45118 299.998402 
L 464.50579 299.765541 
L 463.458583 299.507464 
L 462.329998 299.229521 
L 461.39244 298.998188 
L 461.257958 298.96514 
L 460.773514 298.845748 
L 460.6461 298.81442 
L 459.25046 298.470381 
L 458.752836 298.347742 
L 457.405336 298.015738 
L 456.473699 297.786124 
L 454.961725 297.413623 
L 454.384443 297.271308 
L 452.790518 296.878558 
L 446.266008 294.586431 
L 444.046663 293.483635 
L 443.912944 293.417158 
L 442.073168 292.502905 
L 441.880423 292.40701 
L 440.360043 291.651691 
L 437.492353 290.227016 
L 437.282606 290.122715 
L 432.193661 287.593907 
L 431.424206 287.211472 
L 426.742911 284.885151 
L 424.280389 283.661627 
L 418.407853 280.743888 
L 413.789215 278.440491 
L 411.126688 277.105216 
L 407.897385 275.485502 
L 405.024538 274.071142 
L 404.617269 273.870564 
L 401.77575 272.471677 
L 401.002857 272.089051 
L 400.631311 271.905093 
L 396.558435 269.888999 
L 395.341978 269.286693 
L 389.320442 266.311647 
L 388.776589 266.042872 
L 387.157831 265.243235 
L 386.852953 265.092516 
L 386.454089 264.895376 
L 385.990468 264.666527 
L 385.694377 264.5202 
L 385.215474 264.283518 
L 383.416386 263.385694 
L 382.895648 263.125898 
L 382.555048 262.95512 
L 382.204323 262.79313 
L 382.164781 262.70946 
L 382.112249 262.633432 
L 382.048064 262.566572 
L 381.974136 262.511175 
L 381.892186 262.468194 
L 377.221016 260.490879 
L 376.989874 260.392882 
L 369.711765 257.307231 
L 363.068246 254.491119 
L 355.780968 251.401839 
L 353.791809 250.558648 
L 353.437837 250.408692 
L 351.298913 249.502271 
L 346.443784 247.444725 
L 341.885892 245.505233 
L 339.270549 244.401291 
L 332.60105 241.572953 
L 324.026636 237.937146 
L 319.780308 236.148756 
L 314.575601 233.955963 
L 303.128721 229.1186 
L 303.135407 229.914798 
L 302.313038 229.568658 
L 297.435368 227.512258 
L 287.883089 223.483701 
L 275.40543 218.209651 
L 269.97875 215.914659 
L 268.768024 215.402517 
L 267.416894 214.831156 
L 261.553718 212.351442 
L 248.651407 206.883691 
L 190.14439 182.160089 
L 176.072616 176.213625 
L 175.006115 177.751962 
" clip-path="url(#p98b32a51bb)" style="fill: #d3d3d3"/>
   </g>
   <g id="PatchCollection_2">
    <path d="M 117.625963 260.615428 
L 118.263227 259.693916 
L 119.914078 257.306658 
L 120.500147 256.459074 
L 122.684153 253.3058 
L 123.107277 252.695279 
L 125.057657 249.879167 
L 127.479682 246.382427 
L 127.928021 245.734847 
L 137.069784 232.536446 
L 137.352885 232.127649 
L 137.437892 232.004819 
L 139.567544 228.922993 
L 141.05553 228.989788 
L 142.880449 229.24955 
L 144.671836 229.683994 
L 146.413009 230.289074 
L 148.087757 231.059156 
L 149.680485 231.987069 
L 150.855111 232.749597 
L 152.384651 233.85356 
L 153.797853 235.102994 
L 155.080939 236.485716 
L 156.221395 237.988242 
L 157.208103 239.595922 
L 158.03144 241.293079 
L 158.683379 243.063165 
L 159.157562 244.888918 
L 159.449365 246.752538 
L 159.555944 248.635851 
L 159.598024 254.531459 
L 159.506259 256.542895 
L 159.203281 258.533498 
L 158.692457 260.481153 
L 157.979463 262.364218 
L 157.072219 264.161774 
L 155.980806 265.853848 
L 151.24545 272.40904 
L 150.097338 273.847034 
L 148.816194 275.16789 
L 147.413908 276.359352 
L 145.903491 277.410364 
L 144.298957 278.311175 
L 142.615196 279.053426 
L 140.867831 279.630229 
L 139.073075 280.036233 
L 137.268786 280.264982 
L 135.022936 278.718052 
L 134.827706 278.584143 
L 134.034947 278.037807 
L 133.900273 277.944968 
L 133.253075 277.499112 
L 133.132728 277.416207 
L 132.277694 276.826508 
L 132.1392 276.731377 
L 128.341593 274.116797 
L 127.057513 273.232536 
L 126.568868 272.895947 
L 125.751656 272.3307 
L 122.285099 269.931598 
L 119.105845 267.742435 
L 116.215917 265.752677 
L 115.907873 264.643855 
L 115.818848 264.250257 
L 117.625963 260.615428 
" clip-path="url(#p98b32a51bb)" style="fill: #ff0000; fill-opacity: 0.7; stroke: #000000; stroke-opacity: 0.7; stroke-width: 0.5"/>
    <path d="M 219.582335 405.758302 
L 218.925586 405.738054 
L 217.949823 405.707871 
L 216.163534 405.652474 
L 212.025901 405.524104 
L 211.442124 405.506338 
L 210.828929 405.487618 
L 210.355565 405.473291 
L 208.017783 405.40242 
L 207.57613 405.389048 
L 206.295106 405.350079 
L 204.974349 405.310345 
L 204.380639 405.29258 
L 201.131087 405.194392 
L 199.023492 405.126196 
L 196.690868 405.050931 
L 196.116451 405.032402 
L 195.014801 404.997635 
L 191.913296 404.900402 
L 191.198665 404.877861 
L 181.754889 404.583681 
L 181.751833 404.646719 
L 180.339765 404.602783 
L 180.148166 404.597052 
L 177.025838 404.761144 
L 175.834597 404.824565 
L 172.072521 406.48363 
L 169.883167 406.416389 
L 169.781732 406.413141 
L 167.008027 406.624034 
L 165.301779 406.753932 
L 165.190028 406.750494 
L 163.170878 406.688792 
L 161.461573 406.700254 
L 158.450423 406.732728 
L 158.268184 406.726616 
L 156.769022 406.675893 
L 156.760062 404.932225 
L 156.837123 403.11715 
L 157.086258 401.317604 
L 157.505214 399.549863 
L 158.090202 397.829915 
L 158.835931 396.173315 
L 159.735656 394.595048 
L 160.78124 393.109387 
L 161.963226 391.72977 
L 163.270923 390.468674 
L 164.692504 389.337506 
L 166.215111 388.346496 
L 167.824974 387.504608 
L 169.507532 386.819456 
L 171.247566 386.297237 
L 173.02934 385.942673 
L 173.372231 385.907823 
L 171.946436 384.685514 
L 170.57065 383.229836 
L 169.354848 381.638104 
L 168.312394 379.927819 
L 167.45475 378.117782 
L 167.351531 377.866704 
L 166.772739 376.257472 
L 166.340187 374.602925 
L 166.057342 372.916324 
L 165.926471 371.211185 
L 165.948624 369.501174 
L 166.000278 368.607432 
L 166.197245 366.761973 
L 166.572369 364.944339 
L 167.122108 363.171686 
L 167.841273 361.460746 
L 168.723077 359.827671 
L 169.759194 358.287874 
L 170.939845 356.855891 
L 172.253886 355.545239 
L 172.583794 355.246708 
L 173.946386 354.123766 
L 175.406842 353.131432 
L 176.952684 352.278185 
L 178.570705 351.571316 
L 180.247082 351.016862 
L 181.967492 350.619562 
L 183.717237 350.382809 
L 183.747893 350.38152 
L 184.787051 349.477953 
L 184.796359 349.471331 
L 184.294979 348.617093 
L 183.512379 346.924544 
L 182.898531 345.163756 
L 182.811732 344.805642 
L 177.481718 343.639758 
L 175.705731 343.16062 
L 173.984063 342.512883 
L 172.332678 341.702553 
L 170.76689 340.737146 
L 169.301217 339.625612 
L 167.94925 338.378258 
L 166.723526 337.006652 
L 165.63541 335.52351 
L 164.694992 333.942587 
L 163.910992 332.278541 
L 163.29068 330.546803 
L 162.839808 328.76343 
L 162.562557 326.944959 
L 162.461497 325.108252 
L 162.537566 323.270341 
L 162.790058 321.448268 
L 163.361968 318.406737 
L 165.692932 306.029945 
L 166.129088 304.2096 
L 166.741311 302.440683 
L 167.523724 300.740178 
L 168.468812 299.124413 
L 169.567501 297.608904 
L 170.809242 296.208202 
L 172.182111 294.935756 
L 173.672925 293.803785 
L 175.267371 292.823159 
L 176.950139 292.003292 
L 178.705069 291.352058 
L 180.515312 290.875709 
L 182.363485 290.57882 
L 184.231842 290.464241 
L 186.102443 290.533072 
L 187.957327 290.784653 
L 194.661852 292.031175 
L 200.992969 293.210539 
L 202.910271 293.542899 
L 202.944654 293.548892 
L 203.990221 293.732107 
L 209.761355 294.733728 
L 211.616407 295.151745 
L 213.420708 295.752123 
L 215.15638 296.528913 
L 216.806222 297.474417 
L 218.353887 298.579265 
L 219.784038 299.83251 
L 221.082505 301.221734 
L 222.236419 302.73317 
L 223.234348 304.351841 
L 223.60938 305.12253 
L 224.934303 305.901636 
L 226.451174 307.007333 
L 227.852204 308.256564 
L 229.123864 309.637268 
L 230.253876 311.136112 
L 231.23133 312.738625 
L 232.046786 314.429333 
L 232.692372 316.191911 
L 233.161853 318.00934 
L 233.450697 319.864073 
L 233.556114 321.738199 
L 233.477087 323.613623 
L 233.355279 324.475393 
L 233.982147 324.121075 
L 237.776442 322.216142 
L 238.721247 321.741812 
L 242.914232 319.634957 
L 244.627078 318.877068 
L 244.812777 318.81584 
L 245.281252 318.608606 
L 246.994788 318.037164 
L 248.754638 317.630125 
L 250.545066 317.391127 
L 252.350063 317.322307 
L 254.153492 317.424281 
L 254.986412 317.551084 
L 254.679848 317.150214 
L 253.698539 315.568929 
L 252.875757 313.899661 
L 252.219311 312.158252 
L 251.735431 310.36123 
L 251.42871 308.525652 
L 251.302059 306.668938 
L 251.272304 305.133491 
L 251.269935 304.978971 
L 251.245704 302.832129 
L 251.165401 299.03654 
L 251.220431 297.128422 
L 251.465624 295.235324 
L 251.898532 293.376149 
L 252.514833 291.569463 
L 253.308371 289.833307 
L 254.271224 288.185018 
L 255.393775 286.641055 
L 256.664815 285.216837 
L 258.071653 283.926586 
L 259.600238 282.783184 
L 261.235309 281.798052 
L 262.960535 280.981025 
L 264.758691 280.340262 
L 268.388884 279.247747 
L 270.135754 278.810656 
L 271.91602 278.539994 
L 273.713862 278.438165 
L 275.513304 278.506076 
L 277.298357 278.743121 
L 279.053159 279.147196 
L 280.762115 279.714709 
L 281.121263 279.872913 
L 280.620969 279.430547 
L 279.345273 278.057377 
L 278.210288 276.5658 
L 277.226939 274.970175 
L 276.404693 273.285864 
L 275.751466 271.52908 
L 275.273546 269.716738 
L 274.975534 267.866283 
L 274.8603 265.99553 
L 274.786196 260.039714 
L 274.854064 258.175821 
L 275.103378 256.327431 
L 275.531759 254.512165 
L 276.135124 252.747328 
L 276.907722 251.049743 
L 277.842186 249.435594 
L 278.92961 247.920269 
L 280.159626 246.518212 
L 281.520508 245.242791 
L 282.999284 244.106163 
L 284.581856 243.119164 
L 286.253138 242.291203 
L 287.997197 241.630174 
L 289.797406 241.142376 
L 291.636606 240.832462 
L 293.497262 240.703385 
L 300.32658 240.563892 
L 302.210779 240.618427 
L 304.080429 240.858398 
L 305.858812 241.267989 
L 307.210558 240.741511 
L 309.016463 240.23551 
L 310.863284 239.909033 
L 315.929606 239.26799 
L 315.391706 238.185806 
L 314.72347 236.424567 
L 314.231951 234.606075 
L 314.08918 233.750406 
L 314.575601 233.955963 
L 319.780308 236.148756 
L 324.026636 237.937146 
L 332.60105 241.572953 
L 339.270549 244.401291 
L 341.885892 245.505233 
L 346.443784 247.444725 
L 351.298913 249.502271 
L 353.437837 250.408692 
L 353.791809 250.558648 
L 355.780968 251.401839 
L 363.068246 254.491119 
L 369.711765 257.307231 
L 376.989874 260.392882 
L 377.221016 260.490879 
L 381.892186 262.468194 
L 381.974136 262.511175 
L 382.048064 262.566572 
L 382.112249 262.633432 
L 382.164781 262.70946 
L 382.204323 262.79313 
L 382.555048 262.95512 
L 382.895648 263.125898 
L 383.416386 263.385694 
L 385.215474 264.283518 
L 385.694377 264.5202 
L 385.990468 264.666527 
L 386.454089 264.895376 
L 386.852953 265.092516 
L 387.157831 265.243235 
L 388.776589 266.042872 
L 389.320442 266.311647 
L 392.751071 268.00661 
L 392.611862 268.189211 
L 392.814211 268.109191 
L 392.905953 268.083132 
L 395.341978 269.286693 
L 396.558435 269.888999 
L 400.631311 271.905093 
L 401.002857 272.089051 
L 401.77575 272.471677 
L 404.617269 273.870564 
L 405.024538 274.071142 
L 407.897385 275.485502 
L 411.126688 277.105216 
L 413.789215 278.440491 
L 418.407853 280.743888 
L 424.280389 283.661627 
L 426.742911 284.885151 
L 431.424206 287.211472 
L 432.193661 287.593907 
L 437.282606 290.122715 
L 437.492353 290.227016 
L 440.360043 291.651691 
L 441.880423 292.40701 
L 442.073168 292.502905 
L 443.912944 293.417158 
L 444.046663 293.483635 
L 446.266008 294.586431 
L 446.594093 294.70169 
L 446.596814 294.890165 
L 446.437827 296.770094 
L 446.094174 298.625172 
L 446.037343 298.865103 
L 446.059588 299.147774 
L 446.021028 301.036729 
L 445.796057 302.912635 
L 445.386877 304.757143 
L 443.780211 310.613117 
L 443.202402 312.377965 
L 442.455959 314.078369 
L 441.547938 315.69826 
L 440.486919 317.222329 
L 439.282928 318.636174 
L 437.947346 319.926433 
L 436.492792 321.080913 
L 434.933013 322.088703 
L 433.28275 322.940279 
L 431.557599 323.627594 
L 429.773862 324.144152 
L 427.948396 324.485072 
L 426.098454 324.647132 
L 424.241517 324.628799 
L 422.395135 324.430249 
L 421.406985 324.225436 
L 421.727121 324.524672 
L 422.963006 325.930671 
L 424.055341 327.450883 
L 426.311325 330.939395 
L 427.252081 332.563997 
L 428.028829 334.273096 
L 428.634065 336.050185 
L 429.061946 337.8781 
L 429.308337 339.739187 
L 429.370859 341.615473 
L 429.248909 343.488834 
L 428.943665 345.341179 
L 428.458073 347.154617 
L 427.796825 348.911633 
L 426.966307 350.595259 
L 425.97454 352.189233 
L 425.166496 353.241427 
L 425.166212 354.616105 
L 424.974309 356.52033 
L 424.592828 358.395796 
L 423.609094 362.235847 
L 423.597107 362.282395 
L 421.908935 368.803956 
L 421.336847 370.631105 
L 420.743986 372.018994 
L 421.514342 372.709134 
L 422.92141 374.282296 
L 424.146338 376.001082 
L 424.406844 376.413009 
L 425.423011 378.232527 
L 426.234923 380.151914 
L 426.832915 382.148324 
L 426.946737 382.620689 
L 427.32466 384.677943 
L 427.475394 386.764183 
L 427.39713 388.854397 
L 427.35241 389.338041 
L 427.042037 391.426915 
L 426.502987 393.468764 
L 425.74185 395.438636 
L 425.544177 395.876541 
L 425.566229 395.894323 
L 426.905062 397.210764 
L 428.108189 398.652281 
L 429.163987 400.20495 
L 430.062254 401.853769 
L 430.794314 403.582809 
L 431.353092 405.375365 
L 431.733191 407.214118 
L 431.930939 409.081304 
L 431.944424 410.958885 
L 431.936065 411.050339 
L 433.125452 410.004327 
L 434.647963 408.910118 
L 436.270407 407.970434 
L 437.977156 407.194326 
L 439.751766 406.589272 
L 441.577144 406.1611 
L 443.435703 405.913936 
L 445.30954 405.850159 
L 447.180604 405.970385 
L 447.764388 406.03679 
L 448.263715 406.089873 
L 448.730843 406.139533 
L 449.35816 406.200747 
L 449.554727 406.220955 
L 455.381654 406.850465 
L 457.261733 407.148981 
L 459.102766 407.633137 
L 460.88647 408.298126 
L 462.595131 409.137342 
L 464.211783 410.142453 
L 465.028751 410.771201 
L 474.160922 413.409588 
L 475.929686 414.015854 
L 477.630706 414.792136 
L 479.247686 415.730998 
L 480.765133 416.823443 
L 482.16851 418.059007 
L 483.444372 419.42585 
L 484.580494 420.910879 
L 485.565993 422.499865 
L 486.391426 424.177585 
L 487.048884 425.927966 
L 487.532071 427.734237 
L 487.836355 429.579093 
L 487.958822 431.44486 
L 487.898298 433.313662 
L 487.655364 435.167595 
L 487.232347 436.988897 
L 487.166465 437.220468 
L 488.178556 436.417111 
L 489.758823 435.398697 
L 491.431544 434.540549 
L 493.180517 433.850981 
L 494.988803 433.33667 
L 496.838886 433.002598 
L 498.712847 432.852001 
L 500.592537 432.886337 
L 502.459749 433.105274 
L 504.143364 433.473245 
L 504.672952 432.553008 
L 505.76174 431.028858 
L 506.994563 429.618667 
L 508.359569 428.335994 
L 509.843633 427.19317 
L 511.432487 426.201184 
L 513.110854 425.369574 
L 514.862598 424.706335 
L 516.670875 424.217843 
L 518.518301 423.908797 
L 519.663996 423.831164 
L 519.240034 425.013581 
L 518.786346 426.27894 
L 518.136856 427.814793 
L 516.844753 430.778569 
L 517.389178 430.971696 
L 518.23428 431.271417 
L 518.379842 431.323185 
L 519.05321 431.562159 
L 519.104978 431.580498 
L 519.530585 431.731409 
L 520.580085 432.103719 
L 522.098554 432.642223 
L 523.169449 433.022366 
L 523.191608 433.030198 
L 524.844942 433.616649 
L 525.304361 433.780359 
L 529.057267 435.112386 
L 530.080405 432.131036 
L 534.061206 433.534317 
L 538.024814 434.933395 
L 541.973331 436.326551 
L 545.93694 437.723718 
L 553.2395 440.315757 
L 553.757755 440.49876 
L 553.655157 442.350977 
L 552.085163 442.635238 
L 550.221121 442.786888 
L 548.351183 442.755535 
L 546.493273 442.54148 
L 544.665198 442.146774 
L 543.010251 441.615571 
L 543.196869 442.653005 
L 543.346295 444.522988 
L 543.311583 446.39861 
L 543.093068 448.261784 
L 542.692857 450.09454 
L 542.212916 451.869279 
L 541.636439 453.649801 
L 541.525951 453.903229 
L 542.688524 454.148423 
L 544.464253 454.708175 
L 546.177056 455.438137 
L 547.810661 456.331374 
L 549.349549 457.3794 
L 550.779102 458.572259 
L 552.08574 459.898621 
L 553.257049 461.345884 
L 554.281903 462.9003 
L 555.150567 464.547103 
L 555.854787 466.270649 
L 556.387874 468.054565 
L 556.744764 469.881903 
L 556.922067 471.735306 
L 556.918098 473.597165 
L 556.808559 475.748016 
L 556.794695 475.99001 
L 556.728348 477.032226 
L 556.724345 477.093563 
L 556.656651 478.105577 
L 556.577931 479.584928 
L 556.381564 481.482497 
L 555.996912 483.351017 
L 555.427808 485.171854 
L 555.270968 485.539901 
L 555.653773 485.545868 
L 557.512284 485.757806 
L 559.341156 486.150498 
L 560.384159 486.483987 
L 561.544987 486.432613 
L 562.336437 486.435579 
L 564.23079 486.536875 
L 566.105754 486.825566 
L 567.942838 487.298803 
L 569.723925 487.95192 
L 571.431449 488.778476 
L 573.04857 489.770319 
L 574.55934 490.917667 
L 575.948859 492.209205 
L 577.203423 493.632196 
L 578.31066 495.172605 
L 579.259649 496.81524 
L 580.041033 498.543902 
L 580.647104 500.341543 
L 581.071885 502.190433 
L 581.311187 504.072338 
L 581.36265 505.968699 
L 581.25223 510.865918 
L 581.122913 512.695409 
L 580.818744 514.504066 
L 580.342528 516.275217 
L 579.698652 517.992536 
L 579.323053 518.760734 
L 579.338749 518.795869 
L 579.932185 520.575183 
L 580.348263 522.404119 
L 580.58297 524.265043 
L 580.634044 526.140014 
L 580.540198 527.459657 
L 581.764476 527.903416 
L 583.41815 528.689256 
L 584.988995 529.629801 
L 586.462582 530.716411 
L 587.61596 531.751218 
L 587.619677 531.689459 
L 587.621675 531.648742 
L 587.632672 531.446536 
L 587.782601 528.935226 
L 587.853498 527.753861 
L 587.911621 526.78433 
L 588.116249 524.916045 
L 588.503479 523.07691 
L 589.069564 521.28473 
L 589.809023 519.556852 
L 590.714698 517.910002 
L 591.777823 516.360122 
L 592.988106 514.922214 
L 594.333832 513.610199 
L 595.801974 512.436776 
L 597.378321 511.413304 
L 599.047612 510.54969 
L 600.79369 509.854294 
L 602.599652 509.333849 
L 604.448016 508.99339 
L 606.320891 508.836215 
L 608.200146 508.863845 
L 608.599175 508.889383 
L 608.580826 509.163228 
L 608.142994 515.716201 
L 606.820517 515.853358 
L 599.526553 516.610396 
L 599.453772 516.61861 
L 592.208711 529.780907 
L 591.685298 530.731073 
L 590.157659 533.504204 
L 589.401386 534.877303 
L 589.201572 535.240444 
L 585.96864 541.113553 
L 583.286055 545.980908 
L 583.169147 547.039768 
L 582.89426 549.534764 
L 582.734179 550.986375 
L 582.191091 550.926392 
L 577.667775 550.423993 
L 577.979339 549.608501 
L 570.493585 548.805425 
L 557.985171 547.461172 
L 551.619213 546.776915 
L 546.797323 546.259424 
L 546.133888 546.193329 
L 545.941906 546.172125 
L 544.389816 546.001539 
L 544.285908 545.986709 
L 543.818265 545.91997 
L 542.985008 545.78033 
L 542.180213 545.619677 
L 541.869604 545.571347 
L 529.791573 542.906719 
L 524.985346 541.842319 
L 521.666452 541.10744 
L 517.652775 540.22638 
L 517.42853 540.169118 
L 513.613731 540.079336 
L 513.2525 540.070549 
L 510.328076 539.997767 
L 506.137337 539.891366 
L 503.269838 539.817821 
L 500.524215 539.752107 
L 496.835493 539.662898 
L 492.516194 539.551148 
L 489.212009 539.475883 
L 485.922342 539.396225 
L 482.806509 539.319814 
L 479.713599 539.243786 
L 476.791658 539.15152 
L 473.787766 539.068233 
L 472.192695 539.024105 
L 468.510517 538.94795 
L 468.322881 538.916749 
L 464.775328 538.818561 
L 461.84638 538.745028 
L 461.809071 538.744091 
L 458.515964 538.074704 
L 458.073355 537.965246 
L 458.023115 537.882531 
L 457.962369 537.807458 
L 457.485567 537.355107 
L 455.37616 535.364682 
L 456.340555 533.818142 
L 457.492173 532.323233 
L 458.785666 530.949242 
L 460.208412 529.709577 
L 461.746526 528.616334 
L 463.385 527.680183 
L 465.107845 526.910259 
L 466.898247 526.314074 
L 468.738736 525.897448 
L 470.61135 525.664445 
L 472.497817 525.61734 
L 482.341268 525.858036 
L 482.761177 525.837838 
L 484.01887 525.818804 
L 486.217317 525.85793 
L 487.365042 525.878182 
L 491.193723 525.893185 
L 492.307146 525.882244 
L 492.744097 525.882948 
L 493.853498 525.897424 
L 496.048187 525.925821 
L 497.139962 525.93989 
L 499.277424 525.969131 
L 499.229671 525.568801 
L 499.190217 523.70674 
L 499.218878 522.667925 
L 499.226155 522.449515 
L 499.63329 512.021605 
L 499.846274 505.43894 
L 499.999291 503.566462 
L 500.335501 501.718071 
L 500.851652 499.911645 
L 501.542752 498.164656 
L 502.402115 496.494003 
L 503.42143 494.915845 
L 504.590838 493.445445 
L 505.726785 492.274565 
L 505.530011 492.239669 
L 503.67547 491.713453 
L 501.883408 491.003003 
L 498.053668 489.25626 
L 496.345611 488.370726 
L 494.735292 487.317871 
L 493.239047 486.108376 
L 491.872053 484.754509 
L 490.648177 483.270004 
L 489.579834 481.669919 
L 488.67786 479.970487 
L 487.951406 478.188945 
L 487.614694 477.045701 
L 486.89542 476.6424 
L 485.364144 475.574942 
L 483.944361 474.363129 
L 482.649628 473.018534 
L 481.492306 471.553993 
L 480.483447 469.983492 
L 479.632683 468.322025 
L 478.948137 466.585457 
L 478.436346 464.790368 
L 478.245137 463.739493 
L 478.026229 464.045866 
L 476.793657 465.455551 
L 475.428989 466.737785 
L 473.945336 467.880246 
L 472.356955 468.871957 
L 470.679109 469.703389 
L 468.927921 470.366552 
L 467.120218 470.855073 
L 465.273369 471.164258 
L 464.922543 471.188084 
L 465.070424 471.540462 
L 465.627334 473.353552 
L 466.0017 475.212932 
L 466.189832 477.100271 
L 466.226199 477.831586 
L 466.338612 478.508665 
L 466.55319 480.350676 
L 466.588146 482.204814 
L 466.443152 484.053605 
L 466.119574 485.879624 
L 465.620461 487.665663 
L 464.950518 489.39489 
L 464.116057 491.051008 
L 463.124944 492.618408 
L 461.986519 494.08232 
L 460.71151 495.428946 
L 459.311934 496.645596 
L 457.800982 497.720804 
L 456.192892 498.644436 
L 454.712812 499.312941 
L 453.615164 500.721089 
L 452.332568 502.071497 
L 450.924566 503.290587 
L 449.40454 504.366773 
L 447.78694 505.289823 
L 446.087141 506.050964 
L 444.321301 506.642961 
L 442.506204 507.060187 
L 436.868784 508.069564 
L 434.995741 508.310105 
L 433.1081 508.364534 
L 431.224309 508.23232 
L 429.362777 507.914753 
L 427.541696 507.414939 
L 425.783436 506.739517 
L 424.628439 505.526084 
L 421.33094 502.062965 
L 418.915219 499.526324 
L 418.496871 499.086581 
L 415.993469 496.457484 
L 419.811324 492.624156 
L 419.662897 492.525586 
L 419.609027 492.453951 
L 418.959479 491.818484 
L 417.438584 490.179781 
L 418.143472 488.959886 
L 419.986496 485.769934 
L 419.205961 485.321595 
L 412.462154 481.899929 
L 410.907198 482.936821 
L 405.824557 483.86903 
L 403.977713 484.20772 
L 401.233808 484.711075 
L 387.752687 487.183721 
L 385.062653 487.677143 
L 379.96683 488.621769 
L 378.988584 488.801334 
L 368.808974 490.669191 
L 363.511045 491.639987 
L 360.651188 492.083169 
L 359.842764 492.200077 
L 352.698946 493.182908 
L 349.713967 493.593615 
L 348.907998 493.70449 
L 348.602297 493.319642 
L 347.581109 491.735432 
L 346.721012 490.058298 
L 346.030379 488.304567 
L 345.515935 486.491312 
L 345.182687 484.636187 
L 345.03388 482.75725 
L 345.070963 480.872795 
L 345.602892 473.179225 
L 345.608503 473.100433 
L 345.757186 471.0719 
L 345.972312 467.90339 
L 346.190379 466.044764 
L 346.589259 464.216394 
L 347.165126 462.435825 
L 347.912451 460.720148 
L 348.824064 459.085826 
L 349.891215 457.548545 
L 351.103663 456.123058 
L 352.449772 454.823044 
L 353.916624 453.660981 
L 355.490141 452.64802 
L 357.155222 451.793884 
L 358.895888 451.106768 
L 360.695433 450.593268 
L 362.536587 450.258311 
L 364.401681 450.105112 
L 366.272815 450.135142 
L 374.698195 450.683979 
L 376.531289 450.892669 
L 378.335702 451.27722 
L 380.094603 451.834044 
L 381.791586 452.557948 
L 383.41082 453.44218 
L 384.226944 453.996272 
L 384.878621 453.582805 
L 386.596547 452.721506 
L 388.392318 452.037173 
L 390.24776 451.53673 
L 392.144093 451.225242 
L 394.062127 451.105863 
L 395.98245 451.179799 
L 397.424984 451.30824 
L 398.162047 451.388312 
L 405.026748 452.269162 
L 406.943372 452.615194 
L 408.8148 453.154582 
L 410.62158 453.88172 
L 412.344931 454.78905 
L 413.966938 455.867139 
L 415.470741 457.104782 
L 416.840708 458.489114 
L 418.062599 460.005744 
L 418.51926 460.708591 
L 419.412547 459.792523 
L 420.84988 458.582844 
L 422.399084 457.520197 
L 424.045175 456.61486 
L 425.772232 455.875587 
L 427.563553 455.30953 
L 429.401812 454.922163 
L 430.174524 454.837365 
L 429.566206 454.274932 
L 428.315247 452.865431 
L 427.20926 451.339526 
L 426.25901 449.712069 
L 425.473745 447.998898 
L 424.861109 446.21669 
L 424.427062 444.382787 
L 424.175832 442.515041 
L 424.109861 440.631629 
L 424.170167 439.685928 
L 423.950875 440.110453 
L 422.93156 441.683474 
L 421.762989 443.149025 
L 420.456412 444.492995 
L 419.024409 445.702445 
L 417.480769 446.765729 
L 415.840353 447.67261 
L 414.118955 448.414357 
L 412.33315 448.983829 
L 410.50013 449.375542 
L 408.637546 449.585724 
L 406.763329 449.612353 
L 404.895524 449.455171 
L 397.778443 448.502714 
L 397.190103 448.394351 
L 396.579046 448.342627 
L 392.769607 447.830911 
L 392.602869 447.800117 
L 392.517471 447.793051 
L 386.720924 447.025698 
L 386.50638 446.986496 
L 386.387901 446.976502 
L 382.853966 446.502894 
L 381.009767 446.16287 
L 379.207794 445.64366 
L 377.465412 444.950267 
L 375.799414 444.089375 
L 374.225854 443.069278 
L 372.894149 442.006908 
L 372.607031 441.927962 
L 370.923995 441.28947 
L 370.212277 440.939627 
L 367.337373 440.752199 
L 365.470199 440.537817 
L 363.633129 440.140991 
L 361.843945 439.565561 
L 360.119966 438.817098 
L 358.477882 437.902848 
L 356.933585 436.831658 
L 355.502026 435.6139 
L 354.197061 434.26136 
L 353.031323 432.787131 
L 352.016095 431.205483 
L 351.161205 429.531726 
L 350.474928 427.782063 
L 349.963908 425.973429 
L 349.63309 424.123333 
L 349.485677 422.249682 
L 349.523097 420.370614 
L 349.561682 419.813304 
L 349.422925 419.043905 
L 349.272848 417.164125 
L 349.292726 416.122912 
L 348.518359 416.013169 
L 346.642825 415.650906 
L 344.812847 415.103142 
L 343.046725 414.375355 
L 341.362119 413.47482 
L 339.775872 412.410544 
L 338.303847 411.193168 
L 336.960763 409.834865 
L 335.76005 408.349217 
L 335.503266 407.957015 
L 334.610099 408.121939 
L 330.485914 408.676249 
L 329.820909 408.753791 
L 328.615476 408.872978 
L 326.926108 408.964727 
L 325.609841 408.91951 
L 325.188276 408.919481 
L 323.269627 408.724909 
L 321.380372 408.33788 
L 319.539767 407.762338 
L 317.766571 407.00415 
L 317.553917 406.886577 
L 317.470012 406.966215 
L 315.98313 408.121851 
L 314.389688 409.12547 
L 312.70517 409.96732 
L 310.945947 410.639218 
L 309.129117 411.134636 
L 308.356049 411.265421 
L 308.331323 412.207123 
L 308.098581 414.067679 
L 307.684553 415.896455 
L 307.313703 417.012393 
L 308.093279 418.672828 
L 308.726846 420.468206 
L 309.178549 422.317734 
L 309.443903 424.203039 
L 309.520271 426.105395 
L 309.515708 426.574369 
L 309.607041 433.237858 
L 309.543639 435.076556 
L 309.303651 436.900628 
L 308.889301 438.693152 
L 308.775513 439.032523 
L 310.287586 438.411524 
L 312.083241 437.872722 
L 313.923063 437.512529 
L 315.789332 437.334416 
L 317.664073 437.340096 
L 321.574041 437.544068 
L 323.438985 437.733456 
L 325.276388 438.104718 
L 327.068557 438.654279 
L 328.798233 439.376848 
L 330.448762 440.265465 
L 332.004249 441.311574 
L 333.449716 442.505103 
L 334.771244 443.834557 
L 335.956108 445.287135 
L 336.992898 446.84885 
L 337.871629 448.504662 
L 338.583842 450.238628 
L 339.122677 452.034051 
L 339.482945 453.873641 
L 339.661178 455.739685 
L 339.655659 457.614213 
L 339.482512 460.939122 
L 339.293262 462.804299 
L 338.922094 464.641944 
L 338.372581 466.434355 
L 337.650018 468.16427 
L 336.761364 469.815026 
L 335.715177 471.370724 
L 334.521535 472.816379 
L 333.397348 473.933876 
L 333.352578 474.837826 
L 333.341402 475.041466 
L 333.328195 475.26071 
L 333.082421 480.130168 
L 333.022641 481.340706 
L 332.836904 483.216438 
L 332.467214 485.064734 
L 331.917169 486.867599 
L 331.192126 488.607479 
L 330.299143 490.267434 
L 329.246915 491.831303 
L 328.045686 493.283859 
L 327.137633 494.184155 
L 326.299247 495.738688 
L 325.407266 497.063166 
L 322.960135 497.419111 
L 322.404057 497.499533 
L 320.341715 497.791337 
L 318.048653 498.115785 
L 317.64788 498.17252 
L 314.853735 498.567945 
L 313.019499 498.827358 
L 312.183185 498.945604 
L 309.229916 499.363379 
L 308.238679 499.501491 
L 301.347208 500.512785 
L 294.764436 501.438117 
L 289.938725 502.097159 
L 286.154681 502.634134 
L 285.56078 502.718377 
L 281.349983 503.310941 
L 277.939205 503.777237 
L 276.357888 503.999974 
L 275.061776 504.182367 
L 275.119181 503.645584 
L 275.502495 501.802964 
L 276.065271 500.007007 
L 276.802046 498.275146 
L 277.389781 497.201329 
L 276.55988 497.127288 
L 274.720491 496.779218 
L 272.924003 496.252779 
L 271.187671 495.553026 
L 269.528168 494.68668 
L 267.961433 493.66206 
L 266.502512 492.489006 
L 265.165416 491.178785 
L 263.962986 489.74398 
L 262.90677 488.198369 
L 259.880672 483.267714 
L 258.978421 481.621219 
L 258.242158 479.894106 
L 257.678995 478.103059 
L 257.294373 476.265379 
L 257.092005 474.398818 
L 257.073848 472.521407 
L 257.240076 470.651281 
L 257.589084 468.806506 
L 258.117501 467.004902 
L 258.820222 465.263872 
L 259.690458 463.600234 
L 260.719804 462.030059 
L 261.576667 460.967412 
L 259.145382 457.951685 
L 258.037808 456.430168 
L 257.085325 454.807051 
L 256.297175 453.098088 
L 255.792446 451.64147 
L 255.599557 451.833331 
L 254.141344 453.022647 
L 252.400583 454.304992 
L 250.878145 455.317809 
L 249.265843 456.18042 
L 247.578451 456.884923 
L 245.83143 457.424861 
L 244.040787 457.795288 
L 242.222931 457.99281 
L 240.394517 458.015616 
L 238.5723 457.863497 
L 236.772976 457.537848 
L 235.013031 457.041652 
L 233.308592 456.379456 
L 231.675276 455.557327 
L 230.128049 454.582798 
L 228.495955 453.442188 
L 227.011818 452.292428 
L 225.64771 451.002538 
L 224.416805 449.584976 
L 223.330994 448.053434 
L 222.400764 446.422704 
L 221.6351 444.708538 
L 221.041397 442.927492 
L 220.741738 441.608788 
L 220.914745 437.910924 
L 220.354955 437.886123 
L 220.340778 437.357333 
L 220.474923 435.484738 
L 220.792236 433.634354 
L 221.289651 431.824054 
L 221.962364 430.071323 
L 222.803876 428.393091 
L 223.806061 426.805567 
L 225.329689 424.636082 
L 226.49686 423.138357 
L 227.806955 421.763904 
L 229.24703 420.526305 
L 230.802857 419.437786 
L 232.459062 418.509103 
L 234.199283 417.749431 
L 236.006325 417.166277 
L 237.862334 416.765403 
L 239.748971 416.550768 
L 241.647596 416.524494 
L 243.539451 416.686841 
L 245.405841 417.036204 
L 247.228328 417.569131 
L 248.988904 418.280357 
L 250.670173 419.162855 
L 252.255524 420.207905 
L 253.729294 421.405182 
L 255.07692 422.742856 
L 256.926148 424.770606 
L 257.51162 425.47982 
L 257.75788 423.617849 
L 258.080718 421.833371 
L 258.571312 420.087547 
L 259.225244 418.39611 
L 260.036618 416.774304 
L 260.998124 415.236744 
L 262.101096 413.797286 
L 263.335594 412.468904 
L 264.100583 411.788359 
L 260.404227 412.242102 
L 260.234516 412.262165 
L 251.533309 413.251346 
L 249.647461 413.371667 
L 247.758953 413.305074 
L 245.886263 413.052221 
L 244.047719 412.615579 
L 242.261312 411.999424 
L 240.544522 411.209783 
L 238.914149 410.254385 
L 237.386149 409.142578 
L 235.975473 407.885243 
L 234.695926 406.494682 
L 233.560028 404.984504 
L 232.578897 403.369487 
L 231.762132 401.665435 
L 231.117726 399.889022 
L 230.651985 398.057633 
L 229.739367 393.545111 
L 229.71991 393.4476 
L 229.323571 391.43398 
L 229.11306 390.126915 
L 229.021963 389.402087 
L 228.878971 387.503262 
L 228.925734 385.599635 
L 229.161787 383.710121 
L 229.584785 381.853496 
L 230.190525 380.048208 
L 230.972987 378.312197 
L 231.894828 376.713974 
L 230.889982 371.984343 
L 230.590605 370.131608 
L 230.474477 368.258438 
L 230.54272 366.382913 
L 230.794675 364.523135 
L 230.890185 364.120561 
L 230.332929 363.366578 
L 229.402011 361.808805 
L 228.78513 362.574819 
L 227.451296 363.929771 
L 225.989376 365.145418 
L 224.413851 366.209716 
L 223.014177 366.964456 
L 222.971617 368.234295 
L 222.725491 370.092659 
L 222.298403 371.917951 
L 221.694468 373.692593 
L 220.919499 375.399496 
L 219.980962 377.022223 
L 218.887893 378.545146 
L 217.650818 379.953599 
L 216.281652 381.23402 
L 214.793578 382.374077 
L 213.200928 383.362793 
L 211.519038 384.190645 
L 209.764104 384.849662 
L 207.953028 385.333497 
L 204.123642 386.157594 
L 202.291183 386.4596 
L 200.856521 386.554543 
L 202.30715 386.978578 
L 204.041533 387.675908 
L 205.699455 388.539416 
L 207.26504 389.560834 
L 208.723296 390.730381 
L 210.06026 392.036857 
L 211.263128 393.467752 
L 212.320383 395.009363 
L 213.221899 396.646929 
L 213.959044 398.364767 
L 214.066384 398.702823 
L 214.534592 399.011213 
L 215.976718 400.176282 
L 217.299114 401.475661 
L 218.489323 402.89711 
L 219.536136 404.427241 
L 220.280269 405.780004 
L 219.582335 405.758302 
M 272.03037 332.706877 
L 272.362461 334.495534 
L 273.810159 345.079394 
L 275.075473 345.374294 
L 276.830329 345.967517 
L 278.519475 346.727923 
L 280.127029 347.648359 
L 281.637874 348.720171 
L 283.037802 349.933281 
L 284.313649 351.27628 
L 285.453418 352.73654 
L 286.44639 354.30033 
L 287.28323 355.952944 
L 287.956067 357.678842 
L 288.458574 359.461794 
L 289.010885 361.861599 
L 289.160254 362.572129 
L 289.612007 364.944125 
L 289.877394 366.862071 
L 289.947268 368.797029 
L 289.90861 369.388132 
L 291.253808 368.416201 
L 292.857064 367.480149 
L 294.543612 366.704147 
L 296.297523 366.095526 
L 298.102231 365.660032 
L 299.940689 365.40178 
L 301.795534 365.323209 
L 303.336652 365.332883 
L 305.211833 365.436977 
L 307.06773 365.724703 
L 308.886405 366.19328 
L 310.18338 366.667473 
L 311.370316 365.827681 
L 312.952776 364.921092 
L 314.614478 364.169543 
L 316.340278 363.579882 
L 318.114443 363.157485 
L 319.920804 362.906202 
L 321.742896 362.828323 
L 327.365207 362.856651 
L 331.585177 362.771849 
L 333.471789 362.827199 
L 333.776139 362.866424 
L 333.814387 362.746636 
L 334.556217 360.765369 
L 335.307391 359.026869 
L 336.227018 357.371294 
L 337.306058 355.814915 
L 338.533905 354.373029 
L 339.898491 353.059809 
L 341.386404 351.888162 
L 342.98302 350.869604 
L 344.672645 350.014146 
L 346.438674 349.330196 
L 348.263746 348.824477 
L 350.129926 348.501958 
L 352.018869 348.365812 
L 353.91201 348.417374 
L 355.790742 348.656139 
L 357.636599 349.07976 
L 359.431439 349.684073 
L 359.78053 349.821228 
L 360.562295 349.714115 
L 362.484882 349.645995 
L 368.205747 349.731581 
L 370.098597 349.854082 
L 371.969967 350.163699 
L 373.801406 350.657379 
L 375.574856 351.330255 
L 377.272832 352.175692 
L 378.878593 353.185355 
L 380.376306 354.34929 
L 381.632749 355.543437 
L 382.597774 351.327328 
L 382.624578 351.211871 
L 384.604784 342.800823 
L 385.138616 340.955023 
L 385.313354 340.520265 
L 385.331481 340.249341 
L 385.628706 338.44009 
L 386.479036 334.46689 
L 386.615503 333.655303 
L 387.097977 331.867366 
L 387.75131 330.134549 
L 388.569363 328.473137 
L 389.544446 326.898745 
L 390.667396 325.426168 
L 391.927659 324.069246 
L 393.313392 322.840732 
L 394.811569 321.752172 
L 396.408113 320.813796 
L 398.088017 320.034423 
L 399.835494 319.421379 
L 401.63412 318.980423 
L 403.466993 318.715701 
L 405.316886 318.629701 
L 406.956785 318.712629 
L 406.096973 317.998689 
L 404.783916 316.671521 
L 404.750064 316.629854 
L 404.526804 316.516204 
L 402.947191 315.50582 
L 401.474248 314.345436 
L 400.122167 313.046232 
L 399.576471 312.407669 
L 397.70466 311.725859 
L 397.530232 311.652401 
L 397.351507 311.593258 
L 396.30506 311.188509 
L 395.317138 310.82031 
L 392.269717 309.715551 
L 392.024249 309.624657 
L 391.408144 309.391705 
L 389.714174 308.655753 
L 388.099194 307.759652 
L 386.5783 306.711778 
L 385.165709 305.521927 
L 383.874627 304.201221 
L 382.717122 302.762006 
L 381.704014 301.217736 
L 380.844773 299.582846 
L 380.147433 297.87262 
L 379.618512 296.103044 
L 379.262953 294.290659 
L 379.084081 292.452409 
L 379.083567 290.605477 
L 379.250124 288.883869 
L 378.932717 289.064999 
L 373.207917 291.970187 
L 371.476987 292.743112 
L 369.677973 293.340674 
L 367.828591 293.756987 
L 365.947053 293.987952 
L 364.051887 294.031294 
L 362.161758 293.886587 
L 360.295277 293.555255 
L 358.470826 293.040561 
L 356.706371 292.347575 
L 355.019288 291.48312 
L 353.426191 290.455709 
L 351.942769 289.275459 
L 350.583629 287.953994 
L 349.362156 286.504327 
L 348.290378 284.940734 
L 347.378851 283.278612 
L 345.725822 279.873854 
L 345.016065 278.21732 
L 344.465574 276.501271 
L 344.399314 276.199359 
L 344.070961 275.52304 
L 343.355019 273.849908 
L 342.801542 272.11624 
L 342.415552 270.337769 
L 342.200553 268.530639 
L 342.158497 266.711251 
L 342.289764 264.896116 
L 342.593164 263.10171 
L 342.843695 261.955282 
L 343.281773 260.307176 
L 343.865089 258.704707 
L 344.692693 256.712633 
L 345.659853 254.720206 
L 344.636778 254.328948 
L 343.813525 254.316215 
L 341.894525 254.091337 
L 340.008056 253.673762 
L 338.173419 253.06776 
L 337.809212 252.926656 
L 338.060909 253.823032 
L 338.388289 255.668039 
L 339.161581 261.746086 
L 339.306669 263.615928 
L 339.267701 265.490986 
L 339.045053 267.353185 
L 338.640872 269.184577 
L 338.059052 270.967509 
L 337.305202 272.684795 
L 336.386589 274.319882 
L 335.312067 275.85701 
L 334.091993 277.281362 
L 332.738128 278.57921 
L 331.263521 279.738043 
L 329.682386 280.746691 
L 328.009963 281.595432 
L 326.262373 282.276086 
L 324.456461 282.78209 
L 322.609633 283.108569 
L 316.432429 283.890173 
L 314.564117 284.033934 
L 312.690708 283.993955 
L 310.830229 283.770622 
L 309.000583 283.366083 
L 308.595943 283.233902 
L 308.302466 283.376878 
L 306.544501 284.028858 
L 304.731088 284.505358 
L 302.879696 284.801785 
L 301.008163 284.915285 
L 295.990348 284.972868 
L 294.116732 284.902349 
L 293.654538 284.83919 
L 292.320558 284.789907 
L 290.463335 284.537488 
L 288.639788 284.104279 
L 286.964013 283.527667 
L 287.860086 284.283295 
L 289.187161 285.650696 
L 290.371405 287.143506 
L 291.401035 288.74687 
L 292.265804 290.444836 
L 292.95711 292.220508 
L 293.468073 294.056218 
L 293.793609 295.933701 
L 293.930478 297.834275 
L 294.025267 302.143139 
L 294.029427 302.430574 
L 294.055124 306.129904 
L 293.976258 308.001683 
L 293.714423 309.856734 
L 293.272137 311.677217 
L 292.653654 313.445621 
L 291.864922 315.144937 
L 290.913528 316.758822 
L 289.808623 318.271752 
L 288.560833 319.669177 
L 287.182161 320.937655 
L 285.685865 322.064985 
L 284.086339 323.040326 
L 282.398966 323.854296 
L 280.639976 324.499066 
L 278.826288 324.968435 
L 276.975344 325.257889 
L 275.104949 325.364642 
L 270.553133 325.400865 
L 268.693652 325.325007 
L 268.435021 325.289025 
L 269.068384 326.105229 
L 270.041896 327.642061 
L 270.864802 329.26453 
L 271.529636 330.957921 
L 272.03037 332.706877 
" clip-path="url(#p98b32a51bb)" style="fill: #ff0000; fill-opacity: 0.7; stroke: #000000; stroke-opacity: 0.7; stroke-width: 0.5"/>
    <path d="M 220.627441 427.625868 
L 222.046868 423.94516 
L 221.932619 425.303884 
L 221.552819 427.284148 
L 220.966402 429.213347 
L 220.503477 430.306144 
L 220.627441 427.625868 
" clip-path="url(#p98b32a51bb)" style="fill: #ff0000; fill-opacity: 0.7; stroke: #000000; stroke-opacity: 0.7; stroke-width: 0.5"/>
    <path d="M 221.798433 510.205278 
L 217.547521 510.355616 
L 217.600435 509.284912 
L 218.194146 496.427684 
L 218.466358 490.555339 
L 218.698264 485.589605 
L 219.011959 478.840142 
L 220.147433 479.85288 
L 221.404489 481.214707 
L 222.523663 482.691939 
L 223.494419 484.270672 
L 224.307621 485.936045 
L 224.955613 487.672384 
L 225.432297 489.463343 
L 225.733185 491.292067 
L 225.855446 493.141342 
L 225.942482 498.117514 
L 225.935434 499.068644 
L 225.707717 506.114425 
L 225.554131 507.991734 
L 225.216408 509.844792 
L 225.14686 510.087642 
L 221.798433 510.205278 
" clip-path="url(#p98b32a51bb)" style="fill: #ff0000; fill-opacity: 0.7; stroke: #000000; stroke-opacity: 0.7; stroke-width: 0.5"/>
    <path d="M 602.272559 461.108225 
L 604.108132 461.760962 
L 604.189128 461.789807 
L 604.272224 461.819417 
L 605.093256 462.109777 
L 605.196219 462.146454 
L 609.653631 463.730445 
L 610.581829 464.060157 
L 610.858817 464.158727 
L 614.233109 465.357609 
L 615.781187 465.907765 
L 616.530202 466.173865 
L 617.604726 466.555727 
L 617.883434 466.65487 
L 618.387171 466.833671 
L 618.871805 467.005594 
L 619.764089 467.322698 
L 621.173292 467.822806 
L 622.022214 468.124054 
L 622.636364 468.342016 
L 622.13129 473.503169 
L 620.68541 475.867313 
L 618.716974 479.086054 
L 618.517883 479.065054 
L 616.702374 478.784736 
L 614.922186 478.331326 
L 613.193781 477.709017 
L 611.533144 476.923565 
L 609.955632 475.982233 
L 608.475833 474.893726 
L 607.107434 473.66811 
L 605.863087 472.316721 
L 604.754302 470.852055 
L 603.791331 469.287658 
L 602.983081 467.637997 
L 602.337025 465.918328 
L 601.859139 464.144553 
L 601.553842 462.333078 
L 601.446216 460.814675 
L 602.272559 461.108225 
" clip-path="url(#p98b32a51bb)" style="fill: #ff0000; fill-opacity: 0.7; stroke: #000000; stroke-opacity: 0.7; stroke-width: 0.5"/>
    <path d="M 521.17838 390.829201 
L 520.574354 398.537119 
L 520.238529 402.821461 
L 520.113865 404.411976 
L 519.571037 402.718682 
L 519.177616 400.895792 
L 518.963813 399.043226 
L 518.931667 397.178641 
L 519.081484 395.319807 
L 519.411837 393.484438 
L 519.919576 391.690027 
L 521.472608 387.074482 
L 521.17838 390.829201 
" clip-path="url(#p98b32a51bb)" style="fill: #ff0000; fill-opacity: 0.7; stroke: #000000; stroke-opacity: 0.7; stroke-width: 0.5"/>
    <path d="M 456.473699 297.786124 
L 457.405336 298.015738 
L 458.752836 298.347742 
L 459.25046 298.470381 
L 460.6461 298.81442 
L 460.773514 298.845748 
L 461.257958 298.96514 
L 461.39244 298.998188 
L 462.329998 299.229521 
L 463.458583 299.507464 
L 464.50579 299.765541 
L 465.45118 299.998402 
L 465.633992 300.043484 
L 466.10812 300.160584 
L 466.244131 300.193822 
L 470.103821 301.145134 
L 470.339356 301.203015 
L 474.41376 302.202275 
L 475.811119 302.546886 
L 477.679549 303.007833 
L 479.048827 303.345568 
L 481.125285 303.857328 
L 481.512686 303.952841 
L 481.600367 303.974427 
L 481.724153 304.004992 
L 482.161412 304.11273 
L 484.161268 304.606152 
L 485.593394 304.959551 
L 486.013843 305.063278 
L 486.955795 305.295375 
L 489.622716 305.953271 
L 490.36428 306.135892 
L 490.785112 306.23981 
L 494.872887 307.233721 
L 498.369245 308.096779 
L 503.266782 309.305403 
L 504.269671 309.553165 
L 505.329868 309.815062 
L 506.173823 310.023472 
L 507.205748 310.278492 
L 507.670897 310.393299 
L 508.071098 310.492251 
L 508.150947 310.511927 
L 508.25945 310.538479 
L 508.67455 310.64106 
L 510.953305 311.20306 
L 511.858389 311.426561 
L 512.766911 311.651017 
L 513.751843 311.894385 
L 513.83131 311.914061 
L 514.2296 312.012248 
L 516.550572 312.585328 
L 517.724812 312.875306 
L 518.303431 313.018003 
L 523.930498 314.407147 
L 524.762419 314.612501 
L 526.566473 315.057784 
L 526.963426 315.15578 
L 528.502526 315.390552 
L 534.231219 316.264307 
L 534.721202 315.671743 
L 536.527739 313.484681 
L 539.069156 315.548149 
L 538.91175 316.689341 
L 537.89759 324.016161 
L 537.102538 329.662713 
L 532.692501 335.110597 
L 529.251159 339.294077 
L 528.34512 340.408335 
L 524.796612 344.772335 
L 524.1561 352.782839 
L 524.141773 352.962595 
L 524.022573 354.453748 
L 524.009774 354.612109 
L 523.312528 363.329984 
L 523.227139 364.437938 
L 522.741862 370.734164 
L 522.002014 370.79875 
L 520.126717 370.777859 
L 518.262505 370.573181 
L 516.427348 370.186691 
L 514.638933 369.622113 
L 512.914497 368.884888 
L 511.270663 367.982123 
L 510.646228 367.598142 
L 509.097768 366.537725 
L 507.660837 365.33048 
L 506.349304 363.988058 
L 505.175829 362.523419 
L 504.151738 360.950698 
L 503.286916 359.285075 
L 502.589712 357.542629 
L 502.428026 356.98525 
L 501.5671 356.287979 
L 500.167994 355.036112 
L 498.89853 353.652953 
L 497.770969 352.151861 
L 496.796203 350.547336 
L 495.983647 348.854876 
L 495.341149 347.090828 
L 494.874916 345.27223 
L 494.58945 343.41665 
L 494.48751 341.542009 
L 494.546054 340.212153 
L 493.894055 339.277581 
L 493.557358 338.734293 
L 493.49557 338.625653 
L 493.043923 339.175278 
L 491.704105 340.510987 
L 490.238735 341.707615 
L 489.698585 342.065925 
L 488.496007 343.017138 
L 487.730317 343.512125 
L 488.638968 344.148119 
L 490.131897 345.442151 
L 491.483186 346.883461 
L 492.678379 348.456632 
L 493.704693 350.144836 
L 494.028414 350.745236 
L 494.81968 352.397956 
L 494.82565 352.414283 
L 494.833002 352.429675 
L 495.037305 352.993115 
L 495.448955 354.118886 
L 495.457712 354.152537 
L 495.469339 354.184602 
L 495.643938 354.868113 
L 495.910449 355.89219 
L 495.91869 355.943701 
L 495.931349 355.993259 
L 496.180078 357.212664 
L 496.461172 359.036923 
L 496.564891 360.879795 
L 496.490267 362.724074 
L 496.237996 364.552541 
L 495.869906 366.09837 
L 495.994229 366.6031 
L 496.359691 368.491823 
L 496.533334 370.407727 
L 496.513398 372.33138 
L 496.300085 374.243274 
L 495.895559 376.124018 
L 495.669109 376.824649 
L 495.672704 377.358694 
L 495.499803 379.234431 
L 495.143004 381.08402 
L 493.481615 387.876261 
L 492.942649 389.68665 
L 492.227521 391.434959 
L 491.343225 393.104093 
L 490.298406 394.677733 
L 489.103279 396.140493 
L 487.769532 397.478068 
L 486.310205 398.677382 
L 484.739566 399.726708 
L 483.072972 400.615785 
L 481.326721 401.335921 
L 479.517884 401.880074 
L 477.66415 402.242924 
L 475.783643 402.420922 
L 473.89475 402.412329 
L 472.01594 402.217228 
L 470.165583 401.837528 
L 460.518514 399.355148 
L 458.740202 398.80387 
L 457.024002 398.082097 
L 455.386216 397.196685 
L 453.842401 396.156044 
L 452.407221 394.97006 
L 451.09431 393.649998 
L 449.916139 392.208397 
L 448.8839 390.658952 
L 448.007397 389.01638 
L 447.294956 387.296285 
L 446.753346 385.515005 
L 446.387711 383.689462 
L 446.201523 381.836995 
L 446.196553 379.975202 
L 446.357364 378.284535 
L 446.29811 378.10222 
L 445.897134 376.27894 
L 445.676045 374.425228 
L 445.636953 372.558786 
L 445.780232 370.697442 
L 446.104514 368.858972 
L 446.1895 368.485029 
L 446.189402 368.36637 
L 446.371227 366.502495 
L 446.734684 364.665381 
L 449.187804 354.826849 
L 449.768075 352.468751 
L 450.314698 350.644612 
L 451.040221 348.88396 
L 451.937435 347.204291 
L 452.997423 345.622297 
L 454.209653 344.153699 
L 455.562077 342.81309 
L 457.041255 341.613794 
L 458.63249 340.567728 
L 460.319967 339.685288 
L 460.393003 339.655938 
L 459.209233 338.223219 
L 458.154661 336.653254 
L 457.260503 334.986704 
L 456.535523 333.239903 
L 455.986827 331.429974 
L 455.655365 329.754465 
L 455.316602 329.349238 
L 454.261193 327.800397 
L 453.362645 326.155585 
L 452.629607 324.430635 
L 452.069136 322.642153 
L 451.686627 320.807355 
L 451.485763 318.943904 
L 451.468477 317.069738 
L 451.634935 315.202899 
L 451.983536 313.361358 
L 452.022203 313.200681 
L 452.223225 312.368164 
L 452.433527 311.500787 
L 452.696847 310.527677 
L 453.106716 309.157462 
L 453.311216 308.083304 
L 455.75321 297.98203 
L 455.855742 297.63388 
L 456.473699 297.786124 
" clip-path="url(#p98b32a51bb)" style="fill: #ff0000; fill-opacity: 0.7; stroke: #000000; stroke-opacity: 0.7; stroke-width: 0.5"/>
   </g>
   <g id="matplotlib.axis_1">
    <g id="xtick_1">
     <g id="line2d_1">
      <defs>
       <path id="m2fb11713fe" d="M 0 0 
L 0 3.5 
" style="stroke: #000000; stroke-width: 0.8"/>
      </defs>
      <g>
       <use xlink:href="#m2fb11713fe" x="93.425582" y="569.725012" style="stroke: #000000; stroke-width: 0.8"/>
      </g>
     </g>
     <g id="text_1">
      <!-- 387000 -->
      <g transform="translate(74.338082 584.32345) scale(0.1 -0.1)">
       <defs>
        <path id="DejaVuSans-33" d="M 2597 2516 
Q 3050 2419 3304 2112 
Q 3559 1806 3559 1356 
Q 3559 666 3084 287 
Q 2609 -91 1734 -91 
Q 1441 -91 1130 -33 
Q 819 25 488 141 
L 488 750 
Q 750 597 1062 519 
Q 1375 441 1716 441 
Q 2309 441 2620 675 
Q 2931 909 2931 1356 
Q 2931 1769 2642 2001 
Q 2353 2234 1838 2234 
L 1294 2234 
L 1294 2753 
L 1863 2753 
Q 2328 2753 2575 2939 
Q 2822 3125 2822 3475 
Q 2822 3834 2567 4026 
Q 2313 4219 1838 4219 
Q 1578 4219 1281 4162 
Q 984 4106 628 3988 
L 628 4550 
Q 988 4650 1302 4700 
Q 1616 4750 1894 4750 
Q 2613 4750 3031 4423 
Q 3450 4097 3450 3541 
Q 3450 3153 3228 2886 
Q 3006 2619 2597 2516 
z
" transform="scale(0.015625)"/>
        <path id="DejaVuSans-38" d="M 2034 2216 
Q 1584 2216 1326 1975 
Q 1069 1734 1069 1313 
Q 1069 891 1326 650 
Q 1584 409 2034 409 
Q 2484 409 2743 651 
Q 3003 894 3003 1313 
Q 3003 1734 2745 1975 
Q 2488 2216 2034 2216 
z
M 1403 2484 
Q 997 2584 770 2862 
Q 544 3141 544 3541 
Q 544 4100 942 4425 
Q 1341 4750 2034 4750 
Q 2731 4750 3128 4425 
Q 3525 4100 3525 3541 
Q 3525 3141 3298 2862 
Q 3072 2584 2669 2484 
Q 3125 2378 3379 2068 
Q 3634 1759 3634 1313 
Q 3634 634 3220 271 
Q 2806 -91 2034 -91 
Q 1263 -91 848 271 
Q 434 634 434 1313 
Q 434 1759 690 2068 
Q 947 2378 1403 2484 
z
M 1172 3481 
Q 1172 3119 1398 2916 
Q 1625 2713 2034 2713 
Q 2441 2713 2670 2916 
Q 2900 3119 2900 3481 
Q 2900 3844 2670 4047 
Q 2441 4250 2034 4250 
Q 1625 4250 1398 4047 
Q 1172 3844 1172 3481 
z
" transform="scale(0.015625)"/>
        <path id="DejaVuSans-37" d="M 525 4666 
L 3525 4666 
L 3525 4397 
L 1831 0 
L 1172 0 
L 2766 4134 
L 525 4134 
L 525 4666 
z
" transform="scale(0.015625)"/>
        <path id="DejaVuSans-30" d="M 2034 4250 
Q 1547 4250 1301 3770 
Q 1056 3291 1056 2328 
Q 1056 1369 1301 889 
Q 1547 409 2034 409 
Q 2525 409 2770 889 
Q 3016 1369 3016 2328 
Q 3016 3291 2770 3770 
Q 2525 4250 2034 4250 
z
M 2034 4750 
Q 2819 4750 3233 4129 
Q 3647 3509 3647 2328 
Q 3647 1150 3233 529 
Q 2819 -91 2034 -91 
Q 1250 -91 836 529 
Q 422 1150 422 2328 
Q 422 3509 836 4129 
Q 1250 4750 2034 4750 
z
" transform="scale(0.015625)"/>
       </defs>
       <use xlink:href="#DejaVuSans-33"/>
       <use xlink:href="#DejaVuSans-38" x="63.623047"/>
       <use xlink:href="#DejaVuSans-37" x="127.246094"/>
       <use xlink:href="#DejaVuSans-30" x="190.869141"/>
       <use xlink:href="#DejaVuSans-30" x="254.492188"/>
       <use xlink:href="#DejaVuSans-30" x="318.115234"/>
      </g>
     </g>
    </g>
    <g id="xtick_2">
     <g id="line2d_2">
      <g>
       <use xlink:href="#m2fb11713fe" x="188.938822" y="569.725012" style="stroke: #000000; stroke-width: 0.8"/>
      </g>
     </g>
     <g id="text_2">
      <!-- 387500 -->
      <g transform="translate(169.851322 584.32345) scale(0.1 -0.1)">
       <defs>
        <path id="DejaVuSans-35" d="M 691 4666 
L 3169 4666 
L 3169 4134 
L 1269 4134 
L 1269 2991 
Q 1406 3038 1543 3061 
Q 1681 3084 1819 3084 
Q 2600 3084 3056 2656 
Q 3513 2228 3513 1497 
Q 3513 744 3044 326 
Q 2575 -91 1722 -91 
Q 1428 -91 1123 -41 
Q 819 9 494 109 
L 494 744 
Q 775 591 1075 516 
Q 1375 441 1709 441 
Q 2250 441 2565 725 
Q 2881 1009 2881 1497 
Q 2881 1984 2565 2268 
Q 2250 2553 1709 2553 
Q 1456 2553 1204 2497 
Q 953 2441 691 2322 
L 691 4666 
z
" transform="scale(0.015625)"/>
       </defs>
       <use xlink:href="#DejaVuSans-33"/>
       <use xlink:href="#DejaVuSans-38" x="63.623047"/>
       <use xlink:href="#DejaVuSans-37" x="127.246094"/>
       <use xlink:href="#DejaVuSans-35" x="190.869141"/>
       <use xlink:href="#DejaVuSans-30" x="254.492188"/>
       <use xlink:href="#DejaVuSans-30" x="318.115234"/>
      </g>
     </g>
    </g>
    <g id="xtick_3">
     <g id="line2d_3">
      <g>
       <use xlink:href="#m2fb11713fe" x="284.452062" y="569.725012" style="stroke: #000000; stroke-width: 0.8"/>
      </g>
     </g>
     <g id="text_3">
      <!-- 388000 -->
      <g transform="translate(265.364562 584.32345) scale(0.1 -0.1)">
       <use xlink:href="#DejaVuSans-33"/>
       <use xlink:href="#DejaVuSans-38" x="63.623047"/>
       <use xlink:href="#DejaVuSans-38" x="127.246094"/>
       <use xlink:href="#DejaVuSans-30" x="190.869141"/>
       <use xlink:href="#DejaVuSans-30" x="254.492188"/>
       <use xlink:href="#DejaVuSans-30" x="318.115234"/>
      </g>
     </g>
    </g>
    <g id="xtick_4">
     <g id="line2d_4">
      <g>
       <use xlink:href="#m2fb11713fe" x="379.965302" y="569.725012" style="stroke: #000000; stroke-width: 0.8"/>
      </g>
     </g>
     <g id="text_4">
      <!-- 388500 -->
      <g transform="translate(360.877802 584.32345) scale(0.1 -0.1)">
       <use xlink:href="#DejaVuSans-33"/>
       <use xlink:href="#DejaVuSans-38" x="63.623047"/>
       <use xlink:href="#DejaVuSans-38" x="127.246094"/>
       <use xlink:href="#DejaVuSans-35" x="190.869141"/>
       <use xlink:href="#DejaVuSans-30" x="254.492188"/>
       <use xlink:href="#DejaVuSans-30" x="318.115234"/>
      </g>
     </g>
    </g>
    <g id="xtick_5">
     <g id="line2d_5">
      <g>
       <use xlink:href="#m2fb11713fe" x="475.478542" y="569.725012" style="stroke: #000000; stroke-width: 0.8"/>
      </g>
     </g>
     <g id="text_5">
      <!-- 389000 -->
      <g transform="translate(456.391042 584.32345) scale(0.1 -0.1)">
       <defs>
        <path id="DejaVuSans-39" d="M 703 97 
L 703 672 
Q 941 559 1184 500 
Q 1428 441 1663 441 
Q 2288 441 2617 861 
Q 2947 1281 2994 2138 
Q 2813 1869 2534 1725 
Q 2256 1581 1919 1581 
Q 1219 1581 811 2004 
Q 403 2428 403 3163 
Q 403 3881 828 4315 
Q 1253 4750 1959 4750 
Q 2769 4750 3195 4129 
Q 3622 3509 3622 2328 
Q 3622 1225 3098 567 
Q 2575 -91 1691 -91 
Q 1453 -91 1209 -44 
Q 966 3 703 97 
z
M 1959 2075 
Q 2384 2075 2632 2365 
Q 2881 2656 2881 3163 
Q 2881 3666 2632 3958 
Q 2384 4250 1959 4250 
Q 1534 4250 1286 3958 
Q 1038 3666 1038 3163 
Q 1038 2656 1286 2365 
Q 1534 2075 1959 2075 
z
" transform="scale(0.015625)"/>
       </defs>
       <use xlink:href="#DejaVuSans-33"/>
       <use xlink:href="#DejaVuSans-38" x="63.623047"/>
       <use xlink:href="#DejaVuSans-39" x="127.246094"/>
       <use xlink:href="#DejaVuSans-30" x="190.869141"/>
       <use xlink:href="#DejaVuSans-30" x="254.492188"/>
       <use xlink:href="#DejaVuSans-30" x="318.115234"/>
      </g>
     </g>
    </g>
    <g id="xtick_6">
     <g id="line2d_6">
      <g>
       <use xlink:href="#m2fb11713fe" x="570.991782" y="569.725012" style="stroke: #000000; stroke-width: 0.8"/>
      </g>
     </g>
     <g id="text_6">
      <!-- 389500 -->
      <g transform="translate(551.904282 584.32345) scale(0.1 -0.1)">
       <use xlink:href="#DejaVuSans-33"/>
       <use xlink:href="#DejaVuSans-38" x="63.623047"/>
       <use xlink:href="#DejaVuSans-39" x="127.246094"/>
       <use xlink:href="#DejaVuSans-35" x="190.869141"/>
       <use xlink:href="#DejaVuSans-30" x="254.492188"/>
       <use xlink:href="#DejaVuSans-30" x="318.115234"/>
      </g>
     </g>
    </g>
   </g>
   <g id="matplotlib.axis_2">
    <g id="ytick_1">
     <g id="line2d_7">
      <defs>
       <path id="m2d5b6b2fad" d="M 0 0 
L -3.5 0 
" style="stroke: #000000; stroke-width: 0.8"/>
      </defs>
      <g>
       <use xlink:href="#m2d5b6b2fad" x="90" y="557.197219" style="stroke: #000000; stroke-width: 0.8"/>
      </g>
     </g>
     <g id="text_7">
      <!-- 5.81650 -->
      <g transform="translate(41.646875 560.996437) scale(0.1 -0.1)">
       <defs>
        <path id="DejaVuSans-2e" d="M 684 794 
L 1344 794 
L 1344 0 
L 684 0 
L 684 794 
z
" transform="scale(0.015625)"/>
        <path id="DejaVuSans-31" d="M 794 531 
L 1825 531 
L 1825 4091 
L 703 3866 
L 703 4441 
L 1819 4666 
L 2450 4666 
L 2450 531 
L 3481 531 
L 3481 0 
L 794 0 
L 794 531 
z
" transform="scale(0.015625)"/>
        <path id="DejaVuSans-36" d="M 2113 2584 
Q 1688 2584 1439 2293 
Q 1191 2003 1191 1497 
Q 1191 994 1439 701 
Q 1688 409 2113 409 
Q 2538 409 2786 701 
Q 3034 994 3034 1497 
Q 3034 2003 2786 2293 
Q 2538 2584 2113 2584 
z
M 3366 4563 
L 3366 3988 
Q 3128 4100 2886 4159 
Q 2644 4219 2406 4219 
Q 1781 4219 1451 3797 
Q 1122 3375 1075 2522 
Q 1259 2794 1537 2939 
Q 1816 3084 2150 3084 
Q 2853 3084 3261 2657 
Q 3669 2231 3669 1497 
Q 3669 778 3244 343 
Q 2819 -91 2113 -91 
Q 1303 -91 875 529 
Q 447 1150 447 2328 
Q 447 3434 972 4092 
Q 1497 4750 2381 4750 
Q 2619 4750 2861 4703 
Q 3103 4656 3366 4563 
z
" transform="scale(0.015625)"/>
       </defs>
       <use xlink:href="#DejaVuSans-35"/>
       <use xlink:href="#DejaVuSans-2e" x="63.623047"/>
       <use xlink:href="#DejaVuSans-38" x="95.410156"/>
       <use xlink:href="#DejaVuSans-31" x="159.033203"/>
       <use xlink:href="#DejaVuSans-36" x="222.65625"/>
       <use xlink:href="#DejaVuSans-35" x="286.279297"/>
       <use xlink:href="#DejaVuSans-30" x="349.902344"/>
      </g>
     </g>
    </g>
    <g id="ytick_2">
     <g id="line2d_8">
      <g>
       <use xlink:href="#m2d5b6b2fad" x="90" y="509.440599" style="stroke: #000000; stroke-width: 0.8"/>
      </g>
     </g>
     <g id="text_8">
      <!-- 5.81675 -->
      <g transform="translate(41.646875 513.239817) scale(0.1 -0.1)">
       <use xlink:href="#DejaVuSans-35"/>
       <use xlink:href="#DejaVuSans-2e" x="63.623047"/>
       <use xlink:href="#DejaVuSans-38" x="95.410156"/>
       <use xlink:href="#DejaVuSans-31" x="159.033203"/>
       <use xlink:href="#DejaVuSans-36" x="222.65625"/>
       <use xlink:href="#DejaVuSans-37" x="286.279297"/>
       <use xlink:href="#DejaVuSans-35" x="349.902344"/>
      </g>
     </g>
    </g>
    <g id="ytick_3">
     <g id="line2d_9">
      <g>
       <use xlink:href="#m2d5b6b2fad" x="90" y="461.683979" style="stroke: #000000; stroke-width: 0.8"/>
      </g>
     </g>
     <g id="text_9">
      <!-- 5.81700 -->
      <g transform="translate(41.646875 465.483197) scale(0.1 -0.1)">
       <use xlink:href="#DejaVuSans-35"/>
       <use xlink:href="#DejaVuSans-2e" x="63.623047"/>
       <use xlink:href="#DejaVuSans-38" x="95.410156"/>
       <use xlink:href="#DejaVuSans-31" x="159.033203"/>
       <use xlink:href="#DejaVuSans-37" x="222.65625"/>
       <use xlink:href="#DejaVuSans-30" x="286.279297"/>
       <use xlink:href="#DejaVuSans-30" x="349.902344"/>
      </g>
     </g>
    </g>
    <g id="ytick_4">
     <g id="line2d_10">
      <g>
       <use xlink:href="#m2d5b6b2fad" x="90" y="413.927359" style="stroke: #000000; stroke-width: 0.8"/>
      </g>
     </g>
     <g id="text_10">
      <!-- 5.81725 -->
      <g transform="translate(41.646875 417.726578) scale(0.1 -0.1)">
       <defs>
        <path id="DejaVuSans-32" d="M 1228 531 
L 3431 531 
L 3431 0 
L 469 0 
L 469 531 
Q 828 903 1448 1529 
Q 2069 2156 2228 2338 
Q 2531 2678 2651 2914 
Q 2772 3150 2772 3378 
Q 2772 3750 2511 3984 
Q 2250 4219 1831 4219 
Q 1534 4219 1204 4116 
Q 875 4013 500 3803 
L 500 4441 
Q 881 4594 1212 4672 
Q 1544 4750 1819 4750 
Q 2544 4750 2975 4387 
Q 3406 4025 3406 3419 
Q 3406 3131 3298 2873 
Q 3191 2616 2906 2266 
Q 2828 2175 2409 1742 
Q 1991 1309 1228 531 
z
" transform="scale(0.015625)"/>
       </defs>
       <use xlink:href="#DejaVuSans-35"/>
       <use xlink:href="#DejaVuSans-2e" x="63.623047"/>
       <use xlink:href="#DejaVuSans-38" x="95.410156"/>
       <use xlink:href="#DejaVuSans-31" x="159.033203"/>
       <use xlink:href="#DejaVuSans-37" x="222.65625"/>
       <use xlink:href="#DejaVuSans-32" x="286.279297"/>
       <use xlink:href="#DejaVuSans-35" x="349.902344"/>
      </g>
     </g>
    </g>
    <g id="ytick_5">
     <g id="line2d_11">
      <g>
       <use xlink:href="#m2d5b6b2fad" x="90" y="366.170739" style="stroke: #000000; stroke-width: 0.8"/>
      </g>
     </g>
     <g id="text_11">
      <!-- 5.81750 -->
      <g transform="translate(41.646875 369.969958) scale(0.1 -0.1)">
       <use xlink:href="#DejaVuSans-35"/>
       <use xlink:href="#DejaVuSans-2e" x="63.623047"/>
       <use xlink:href="#DejaVuSans-38" x="95.410156"/>
       <use xlink:href="#DejaVuSans-31" x="159.033203"/>
       <use xlink:href="#DejaVuSans-37" x="222.65625"/>
       <use xlink:href="#DejaVuSans-35" x="286.279297"/>
       <use xlink:href="#DejaVuSans-30" x="349.902344"/>
      </g>
     </g>
    </g>
    <g id="ytick_6">
     <g id="line2d_12">
      <g>
       <use xlink:href="#m2d5b6b2fad" x="90" y="318.414119" style="stroke: #000000; stroke-width: 0.8"/>
      </g>
     </g>
     <g id="text_12">
      <!-- 5.81775 -->
      <g transform="translate(41.646875 322.213338) scale(0.1 -0.1)">
       <use xlink:href="#DejaVuSans-35"/>
       <use xlink:href="#DejaVuSans-2e" x="63.623047"/>
       <use xlink:href="#DejaVuSans-38" x="95.410156"/>
       <use xlink:href="#DejaVuSans-31" x="159.033203"/>
       <use xlink:href="#DejaVuSans-37" x="222.65625"/>
       <use xlink:href="#DejaVuSans-37" x="286.279297"/>
       <use xlink:href="#DejaVuSans-35" x="349.902344"/>
      </g>
     </g>
    </g>
    <g id="ytick_7">
     <g id="line2d_13">
      <g>
       <use xlink:href="#m2d5b6b2fad" x="90" y="270.657499" style="stroke: #000000; stroke-width: 0.8"/>
      </g>
     </g>
     <g id="text_13">
      <!-- 5.81800 -->
      <g transform="translate(41.646875 274.456718) scale(0.1 -0.1)">
       <use xlink:href="#DejaVuSans-35"/>
       <use xlink:href="#DejaVuSans-2e" x="63.623047"/>
       <use xlink:href="#DejaVuSans-38" x="95.410156"/>
       <use xlink:href="#DejaVuSans-31" x="159.033203"/>
       <use xlink:href="#DejaVuSans-38" x="222.65625"/>
       <use xlink:href="#DejaVuSans-30" x="286.279297"/>
       <use xlink:href="#DejaVuSans-30" x="349.902344"/>
      </g>
     </g>
    </g>
    <g id="ytick_8">
     <g id="line2d_14">
      <g>
       <use xlink:href="#m2d5b6b2fad" x="90" y="222.900879" style="stroke: #000000; stroke-width: 0.8"/>
      </g>
     </g>
     <g id="text_14">
      <!-- 5.81825 -->
      <g transform="translate(41.646875 226.700098) scale(0.1 -0.1)">
       <use xlink:href="#DejaVuSans-35"/>
       <use xlink:href="#DejaVuSans-2e" x="63.623047"/>
       <use xlink:href="#DejaVuSans-38" x="95.410156"/>
       <use xlink:href="#DejaVuSans-31" x="159.033203"/>
       <use xlink:href="#DejaVuSans-38" x="222.65625"/>
       <use xlink:href="#DejaVuSans-32" x="286.279297"/>
       <use xlink:href="#DejaVuSans-35" x="349.902344"/>
      </g>
     </g>
    </g>
    <g id="ytick_9">
     <g id="line2d_15">
      <g>
       <use xlink:href="#m2d5b6b2fad" x="90" y="175.144259" style="stroke: #000000; stroke-width: 0.8"/>
      </g>
     </g>
     <g id="text_15">
      <!-- 5.81850 -->
      <g transform="translate(41.646875 178.943478) scale(0.1 -0.1)">
       <use xlink:href="#DejaVuSans-35"/>
       <use xlink:href="#DejaVuSans-2e" x="63.623047"/>
       <use xlink:href="#DejaVuSans-38" x="95.410156"/>
       <use xlink:href="#DejaVuSans-31" x="159.033203"/>
       <use xlink:href="#DejaVuSans-38" x="222.65625"/>
       <use xlink:href="#DejaVuSans-35" x="286.279297"/>
       <use xlink:href="#DejaVuSans-30" x="349.902344"/>
      </g>
     </g>
    </g>
    <g id="text_16">
     <!-- 1e6 -->
     <g transform="translate(90 154.474988) scale(0.1 -0.1)">
      <defs>
       <path id="DejaVuSans-65" d="M 3597 1894 
L 3597 1613 
L 953 1613 
Q 991 1019 1311 708 
Q 1631 397 2203 397 
Q 2534 397 2845 478 
Q 3156 559 3463 722 
L 3463 178 
Q 3153 47 2828 -22 
Q 2503 -91 2169 -91 
Q 1331 -91 842 396 
Q 353 884 353 1716 
Q 353 2575 817 3079 
Q 1281 3584 2069 3584 
Q 2775 3584 3186 3129 
Q 3597 2675 3597 1894 
z
M 3022 2063 
Q 3016 2534 2758 2815 
Q 2500 3097 2075 3097 
Q 1594 3097 1305 2825 
Q 1016 2553 972 2059 
L 3022 2063 
z
" transform="scale(0.015625)"/>
      </defs>
      <use xlink:href="#DejaVuSans-31"/>
      <use xlink:href="#DejaVuSans-65" x="63.623047"/>
      <use xlink:href="#DejaVuSans-36" x="125.146484"/>
     </g>
    </g>
   </g>
   <g id="patch_3">
    <path d="M 90 569.725012 
L 90 157.474988 
" style="fill: none; stroke: #000000; stroke-width: 0.8; stroke-linejoin: miter; stroke-linecap: square"/>
   </g>
   <g id="patch_4">
    <path d="M 648 569.725012 
L 648 157.474988 
" style="fill: none; stroke: #000000; stroke-width: 0.8; stroke-linejoin: miter; stroke-linecap: square"/>
   </g>
   <g id="patch_5">
    <path d="M 90 569.725012 
L 648 569.725012 
" style="fill: none; stroke: #000000; stroke-width: 0.8; stroke-linejoin: miter; stroke-linecap: square"/>
   </g>
   <g id="patch_6">
    <path d="M 90 157.474988 
L 648 157.474988 
" style="fill: none; stroke: #000000; stroke-width: 0.8; stroke-linejoin: miter; stroke-linecap: square"/>
   </g>
   <g id="text_17">
    <!-- Schneberg_Nord -->
    <g transform="translate(290.757784 379.055155) scale(0.12 -0.12)">
     <defs>
      <path id="DejaVuSans-53" d="M 3425 4513 
L 3425 3897 
Q 3066 4069 2747 4153 
Q 2428 4238 2131 4238 
Q 1616 4238 1336 4038 
Q 1056 3838 1056 3469 
Q 1056 3159 1242 3001 
Q 1428 2844 1947 2747 
L 2328 2669 
Q 3034 2534 3370 2195 
Q 3706 1856 3706 1288 
Q 3706 609 3251 259 
Q 2797 -91 1919 -91 
Q 1588 -91 1214 -16 
Q 841 59 441 206 
L 441 856 
Q 825 641 1194 531 
Q 1563 422 1919 422 
Q 2459 422 2753 634 
Q 3047 847 3047 1241 
Q 3047 1584 2836 1778 
Q 2625 1972 2144 2069 
L 1759 2144 
Q 1053 2284 737 2584 
Q 422 2884 422 3419 
Q 422 4038 858 4394 
Q 1294 4750 2059 4750 
Q 2388 4750 2728 4690 
Q 3069 4631 3425 4513 
z
" transform="scale(0.015625)"/>
      <path id="DejaVuSans-63" d="M 3122 3366 
L 3122 2828 
Q 2878 2963 2633 3030 
Q 2388 3097 2138 3097 
Q 1578 3097 1268 2742 
Q 959 2388 959 1747 
Q 959 1106 1268 751 
Q 1578 397 2138 397 
Q 2388 397 2633 464 
Q 2878 531 3122 666 
L 3122 134 
Q 2881 22 2623 -34 
Q 2366 -91 2075 -91 
Q 1284 -91 818 406 
Q 353 903 353 1747 
Q 353 2603 823 3093 
Q 1294 3584 2113 3584 
Q 2378 3584 2631 3529 
Q 2884 3475 3122 3366 
z
" transform="scale(0.015625)"/>
      <path id="DejaVuSans-68" d="M 3513 2113 
L 3513 0 
L 2938 0 
L 2938 2094 
Q 2938 2591 2744 2837 
Q 2550 3084 2163 3084 
Q 1697 3084 1428 2787 
Q 1159 2491 1159 1978 
L 1159 0 
L 581 0 
L 581 4863 
L 1159 4863 
L 1159 2956 
Q 1366 3272 1645 3428 
Q 1925 3584 2291 3584 
Q 2894 3584 3203 3211 
Q 3513 2838 3513 2113 
z
" transform="scale(0.015625)"/>
      <path id="DejaVuSans-f6" d="M 1959 3097 
Q 1497 3097 1228 2736 
Q 959 2375 959 1747 
Q 959 1119 1226 758 
Q 1494 397 1959 397 
Q 2419 397 2687 759 
Q 2956 1122 2956 1747 
Q 2956 2369 2687 2733 
Q 2419 3097 1959 3097 
z
M 1959 3584 
Q 2709 3584 3137 3096 
Q 3566 2609 3566 1747 
Q 3566 888 3137 398 
Q 2709 -91 1959 -91 
Q 1206 -91 779 398 
Q 353 888 353 1747 
Q 353 2609 779 3096 
Q 1206 3584 1959 3584 
z
M 2253 4850 
L 2888 4850 
L 2888 4219 
L 2253 4219 
L 2253 4850 
z
M 1031 4850 
L 1666 4850 
L 1666 4219 
L 1031 4219 
L 1031 4850 
z
" transform="scale(0.015625)"/>
      <path id="DejaVuSans-6e" d="M 3513 2113 
L 3513 0 
L 2938 0 
L 2938 2094 
Q 2938 2591 2744 2837 
Q 2550 3084 2163 3084 
Q 1697 3084 1428 2787 
Q 1159 2491 1159 1978 
L 1159 0 
L 581 0 
L 581 3500 
L 1159 3500 
L 1159 2956 
Q 1366 3272 1645 3428 
Q 1925 3584 2291 3584 
Q 2894 3584 3203 3211 
Q 3513 2838 3513 2113 
z
" transform="scale(0.015625)"/>
      <path id="DejaVuSans-62" d="M 3116 1747 
Q 3116 2381 2855 2742 
Q 2594 3103 2138 3103 
Q 1681 3103 1420 2742 
Q 1159 2381 1159 1747 
Q 1159 1113 1420 752 
Q 1681 391 2138 391 
Q 2594 391 2855 752 
Q 3116 1113 3116 1747 
z
M 1159 2969 
Q 1341 3281 1617 3432 
Q 1894 3584 2278 3584 
Q 2916 3584 3314 3078 
Q 3713 2572 3713 1747 
Q 3713 922 3314 415 
Q 2916 -91 2278 -91 
Q 1894 -91 1617 61 
Q 1341 213 1159 525 
L 1159 0 
L 581 0 
L 581 4863 
L 1159 4863 
L 1159 2969 
z
" transform="scale(0.015625)"/>
      <path id="DejaVuSans-72" d="M 2631 2963 
Q 2534 3019 2420 3045 
Q 2306 3072 2169 3072 
Q 1681 3072 1420 2755 
Q 1159 2438 1159 1844 
L 1159 0 
L 581 0 
L 581 3500 
L 1159 3500 
L 1159 2956 
Q 1341 3275 1631 3429 
Q 1922 3584 2338 3584 
Q 2397 3584 2469 3576 
Q 2541 3569 2628 3553 
L 2631 2963 
z
" transform="scale(0.015625)"/>
      <path id="DejaVuSans-67" d="M 2906 1791 
Q 2906 2416 2648 2759 
Q 2391 3103 1925 3103 
Q 1463 3103 1205 2759 
Q 947 2416 947 1791 
Q 947 1169 1205 825 
Q 1463 481 1925 481 
Q 2391 481 2648 825 
Q 2906 1169 2906 1791 
z
M 3481 434 
Q 3481 -459 3084 -895 
Q 2688 -1331 1869 -1331 
Q 1566 -1331 1297 -1286 
Q 1028 -1241 775 -1147 
L 775 -588 
Q 1028 -725 1275 -790 
Q 1522 -856 1778 -856 
Q 2344 -856 2625 -561 
Q 2906 -266 2906 331 
L 2906 616 
Q 2728 306 2450 153 
Q 2172 0 1784 0 
Q 1141 0 747 490 
Q 353 981 353 1791 
Q 353 2603 747 3093 
Q 1141 3584 1784 3584 
Q 2172 3584 2450 3431 
Q 2728 3278 2906 2969 
L 2906 3500 
L 3481 3500 
L 3481 434 
z
" transform="scale(0.015625)"/>
      <path id="DejaVuSans-5f" d="M 3263 -1063 
L 3263 -1509 
L -63 -1509 
L -63 -1063 
L 3263 -1063 
z
" transform="scale(0.015625)"/>
      <path id="DejaVuSans-4e" d="M 628 4666 
L 1478 4666 
L 3547 763 
L 3547 4666 
L 4159 4666 
L 4159 0 
L 3309 0 
L 1241 3903 
L 1241 0 
L 628 0 
L 628 4666 
z
" transform="scale(0.015625)"/>
      <path id="DejaVuSans-6f" d="M 1959 3097 
Q 1497 3097 1228 2736 
Q 959 2375 959 1747 
Q 959 1119 1226 758 
Q 1494 397 1959 397 
Q 2419 397 2687 759 
Q 2956 1122 2956 1747 
Q 2956 2369 2687 2733 
Q 2419 3097 1959 3097 
z
M 1959 3584 
Q 2709 3584 3137 3096 
Q 3566 2609 3566 1747 
Q 3566 888 3137 398 
Q 2709 -91 1959 -91 
Q 1206 -91 779 398 
Q 353 888 353 1747 
Q 353 2609 779 3096 
Q 1206 3584 1959 3584 
z
" transform="scale(0.015625)"/>
      <path id="DejaVuSans-64" d="M 2906 2969 
L 2906 4863 
L 3481 4863 
L 3481 0 
L 2906 0 
L 2906 525 
Q 2725 213 2448 61 
Q 2172 -91 1784 -91 
Q 1150 -91 751 415 
Q 353 922 353 1747 
Q 353 2572 751 3078 
Q 1150 3584 1784 3584 
Q 2172 3584 2448 3432 
Q 2725 3281 2906 2969 
z
M 947 1747 
Q 947 1113 1208 752 
Q 1469 391 1925 391 
Q 2381 391 2643 752 
Q 2906 1113 2906 1747 
Q 2906 2381 2643 2742 
Q 2381 3103 1925 3103 
Q 1469 3103 1208 2742 
Q 947 2381 947 1747 
z
" transform="scale(0.015625)"/>
     </defs>
     <use xlink:href="#DejaVuSans-53"/>
     <use xlink:href="#DejaVuSans-63" x="63.476562"/>
     <use xlink:href="#DejaVuSans-68" x="118.457031"/>
     <use xlink:href="#DejaVuSans-f6" x="181.835938"/>
     <use xlink:href="#DejaVuSans-6e" x="243.017578"/>
     <use xlink:href="#DejaVuSans-65" x="306.396484"/>
     <use xlink:href="#DejaVuSans-62" x="367.919922"/>
     <use xlink:href="#DejaVuSans-65" x="431.396484"/>
     <use xlink:href="#DejaVuSans-72" x="492.919922"/>
     <use xlink:href="#DejaVuSans-67" x="532.283203"/>
     <use xlink:href="#DejaVuSans-5f" x="595.759766"/>
     <use xlink:href="#DejaVuSans-4e" x="645.759766"/>
     <use xlink:href="#DejaVuSans-6f" x="720.564453"/>
     <use xlink:href="#DejaVuSans-72" x="781.746094"/>
     <use xlink:href="#DejaVuSans-64" x="821.109375"/>
    </g>
   </g>
  </g>
 </g>
 <defs>
  <clipPath id="p98b32a51bb">
   <rect x="90" y="157.474988" width="558" height="412.250024"/>
  </clipPath>
 </defs>
</svg>
