<?xml version="1.0" encoding="utf-8" standalone="no"?>
<!DOCTYPE svg PUBLIC "-//W3C//DTD SVG 1.1//EN"
  "http://www.w3.org/Graphics/SVG/1.1/DTD/svg11.dtd">
<svg xmlns:xlink="http://www.w3.org/1999/xlink" width="720pt" height="720pt" viewBox="0 0 720 720" xmlns="http://www.w3.org/2000/svg" version="1.1">
 <metadata>
  <rdf:RDF xmlns:dc="http://purl.org/dc/elements/1.1/" xmlns:cc="http://creativecommons.org/ns#" xmlns:rdf="http://www.w3.org/1999/02/22-rdf-syntax-ns#">
   <cc:Work>
    <dc:type rdf:resource="http://purl.org/dc/dcmitype/StillImage"/>
    <dc:date>2024-10-15T09:51:04.333577</dc:date>
    <dc:format>image/svg+xml</dc:format>
    <dc:creator>
     <cc:Agent>
      <dc:title>Matplotlib v3.8.4, https://matplotlib.org/</dc:title>
     </cc:Agent>
    </dc:creator>
   </cc:Work>
  </rdf:RDF>
 </metadata>
 <defs>
  <style type="text/css">*{stroke-linejoin: round; stroke-linecap: butt}</style>
 </defs>
 <g id="figure_1">
  <g id="patch_1">
   <path d="M 0 720 
L 720 720 
L 720 0 
L 0 0 
z
" style="fill: #ffffff"/>
  </g>
  <g id="axes_1">
   <g id="patch_2">
    <path d="M 90 588.406804 
L 648 588.406804 
L 648 138.793196 
L 90 138.793196 
z
" style="fill: #ffffff"/>
   </g>
   <g id="PatchCollection_1">
    <path d="M 317.292302 567.969822 
L 322.895015 562.612592 
L 323.699223 561.843453 
L 341.063312 545.239984 
L 347.994088 538.613337 
L 355.814467 531.135525 
L 358.479708 528.586982 
L 369.472539 518.075804 
L 370.701538 516.900498 
L 372.941395 517.287644 
L 373.186283 517.330043 
L 375.562255 517.741163 
L 381.617693 517.489934 
L 381.816021 517.192343 
L 382.42428 517.453676 
L 384.431136 517.359565 
L 386.977697 518.074417 
L 388.334886 515.518147 
L 389.399635 513.33555 
L 392.908908 512.74235 
L 393.398685 512.65973 
L 472.514262 499.285379 
L 536.963485 488.418756 
L 548.469076 486.478669 
L 552.410273 485.813746 
L 557.481007 484.958222 
L 561.633806 491.394466 
L 568.003478 501.265883 
L 568.266 501.672842 
L 574.136584 502.298932 
L 578.92855 497.503004 
L 579.411194 497.020161 
L 584.779915 491.64728 
L 594.972699 481.447958 
L 595.569664 480.851587 
L 596.21101 480.210439 
L 605.655259 470.768765 
L 606.417662 470.006758 
L 607.850338 468.574082 
L 622.636364 453.791227 
L 619.806477 451.40951 
L 610.46684 436.605257 
L 606.423012 431.148368 
L 603.903991 429.071572 
L 586.038831 414.343599 
L 584.65014 413.198409 
L 575.917969 405.999563 
L 575.111184 405.344348 
L 573.417373 403.968932 
L 572.503797 403.226738 
L 571.263703 402.207162 
L 566.961514 398.669952 
L 566.081818 397.946581 
L 562.684884 395.153348 
L 561.823218 394.444836 
L 557.586808 390.961517 
L 556.282124 389.888843 
L 555.369935 389.130798 
L 554.649589 388.532275 
L 553.712183 387.753401 
L 552.844573 387.032406 
L 550.195777 384.852781 
L 549.801301 384.528245 
L 547.584625 382.704263 
L 544.643389 380.28391 
L 543.868306 379.645932 
L 543.549515 379.383608 
L 541.627261 377.801741 
L 539.802089 376.299719 
L 539.44823 376.008865 
L 538.677307 375.374453 
L 538.628963 375.334431 
L 538.381499 375.130754 
L 538.258263 375.029311 
L 538.204173 374.984534 
L 537.84437 374.688132 
L 537.521418 374.421846 
L 536.915538 373.922559 
L 536.596945 373.660037 
L 536.221687 373.350756 
L 536.14303 373.285968 
L 535.765593 372.974706 
L 533.894059 371.432464 
L 533.569721 371.165187 
L 532.807714 370.537116 
L 532.022922 369.890421 
L 531.696206 369.621361 
L 529.855779 368.104677 
L 528.037543 366.606222 
L 527.67021 366.30348 
L 526.904042 365.672041 
L 526.133318 365.036837 
L 525.798677 364.761238 
L 523.951513 363.23881 
L 522.133079 361.740156 
L 521.764954 361.437018 
L 521.000173 360.806767 
L 520.206465 360.152741 
L 519.845077 359.854754 
L 518.049031 358.374527 
L 516.191763 356.843974 
L 515.823241 356.540242 
L 515.025571 355.882847 
L 514.275452 355.264682 
L 513.964388 355.008303 
L 512.082948 353.457937 
L 510.26491 351.95968 
L 509.894407 351.654363 
L 509.155582 351.04551 
L 508.455787 350.468754 
L 508.096974 350.173145 
L 506.192948 348.603957 
L 501.875305 345.045944 
L 501.639927 344.851777 
L 498.764866 343.049192 
L 495.935376 341.274941 
L 493.373954 339.668901 
L 495.94449 336.228378 
L 496.382554 335.641716 
L 497.116031 334.660182 
L 497.62562 333.977625 
L 498.935852 332.224177 
L 500.075891 330.697983 
L 500.445204 330.200876 
L 507.133073 321.192511 
L 509.244542 318.348557 
L 516.726515 308.271283 
L 519.06747 305.118118 
L 526.305889 295.368283 
L 530.682178 289.473924 
L 531.888788 287.848864 
L 543.898223 271.673355 
L 544.380867 271.023291 
L 544.921563 270.294966 
L 546.615969 268.01271 
L 547.271778 267.129447 
L 548.781788 265.095502 
L 551.817667 261.006248 
L 551.518293 260.605828 
L 553.675529 257.711747 
L 559.298253 250.119218 
L 553.039929 246.265595 
L 550.876154 244.932776 
L 543.519201 240.406701 
L 543.077966 240.134668 
L 542.955126 240.058983 
L 542.448112 239.748316 
L 541.884037 239.398815 
L 538.884749 237.554029 
L 538.186936 237.125474 
L 532.33775 233.533382 
L 531.358593 232.930275 
L 526.995578 230.251958 
L 525.560129 229.273593 
L 514.922543 222.038292 
L 510.070941 217.238797 
L 510.076687 216.523747 
L 504.556198 210.948773 
L 501.669646 209.182248 
L 495.934781 205.724885 
L 495.262923 205.317926 
L 482.577469 197.423447 
L 477.96782 193.956791 
L 470.626086 188.43549 
L 463.952681 185.043509 
L 458.778919 181.458352 
L 457.795403 180.775993 
L 444.792347 173.434098 
L 431.771262 166.095769 
L 428.970104 164.421969 
L 427.152263 163.337407 
L 422.428058 160.382698 
L 420.571979 159.230178 
L 418.305375 165.169909 
L 416.861604 168.966471 
L 414.697433 174.614951 
L 412.445886 180.491677 
L 412.281241 180.921618 
L 411.880622 181.966951 
L 411.224459 183.67983 
L 410.75049 184.917103 
L 410.316388 186.04981 
L 408.469225 190.871099 
L 406.598484 195.753808 
L 406.044315 197.200551 
L 405.650433 198.22825 
L 405.152335 199.527981 
L 402.963596 205.241646 
L 400.832909 210.802157 
L 400.763167 210.984238 
L 400.247634 212.329935 
L 399.871385 213.312064 
L 399.351691 214.668658 
L 399.269467 214.883035 
L 397.169094 220.365086 
L 394.899716 226.288571 
L 393.3759 230.358948 
L 393.261778 230.660303 
L 391.050848 236.503347 
L 390.481027 238.008538 
L 390.306078 238.471369 
L 389.311467 241.099758 
L 388.73808 242.615055 
L 388.580963 243.030731 
L 387.580606 245.673781 
L 387.149277 246.814018 
L 386.979678 247.261989 
L 386.172894 249.394261 
L 386.08116 249.636376 
L 385.901654 250.111095 
L 384.872172 252.831812 
L 383.867853 255.486156 
L 383.691319 255.952355 
L 383.31408 256.948948 
L 382.325413 259.562081 
L 381.332585 262.185516 
L 381.097999 262.805662 
L 379.439455 267.066046 
L 379.194567 267.695306 
L 377.955266 270.878854 
L 377.547911 271.924583 
L 377.221789 271.833443 
L 373.199756 270.708463 
L 370.804764 270.038586 
L 367.223965 269.037239 
L 366.895466 268.945306 
L 365.907987 268.687143 
L 361.038157 267.34105 
L 359.661552 266.957867 
L 357.421497 266.334155 
L 354.794495 265.60266 
L 354.544059 265.53272 
L 354.160282 265.426126 
L 350.657942 264.450734 
L 350.411271 264.382181 
L 341.406671 261.86732 
L 333.466622 259.664117 
L 331.404884 259.092117 
L 330.947205 258.965116 
L 329.931394 258.683177 
L 326.221613 257.653893 
L 325.717769 257.514014 
L 325.513893 257.457547 
L 325.336765 257.408411 
L 324.941496 257.298647 
L 322.270906 256.557641 
L 319.693238 255.842393 
L 319.273005 255.725893 
L 319.093698 255.676162 
L 318.974027 255.642877 
L 318.501092 255.511715 
L 316.005846 254.819251 
L 313.400242 254.096276 
L 312.965941 253.975813 
L 312.784455 253.92529 
L 309.510955 253.017063 
L 306.81441 252.268925 
L 305.607814 251.934134 
L 303.760681 251.421615 
L 303.159114 251.254699 
L 302.741061 251.138793 
L 301.276486 250.755214 
L 299.125193 250.192328 
L 297.768401 249.837279 
L 297.417909 249.739799 
L 294.005521 248.790956 
L 291.265981 248.029147 
L 289.62725 247.573449 
L 289.158872 247.44308 
L 287.979405 247.115175 
L 285.178445 246.336327 
L 279.999136 244.896122 
L 279.647654 244.798246 
L 278.943699 244.603286 
L 276.730194 243.990273 
L 275.974329 243.78085 
L 275.761141 243.721609 
L 271.605965 242.563739 
L 270.687832 242.307953 
L 270.276316 242.193038 
L 267.98455 241.554664 
L 265.840588 240.957303 
L 265.35834 240.822971 
L 264.3138 240.53172 
L 262.035308 239.897111 
L 261.588328 239.772487 
L 257.546679 238.646318 
L 252.434536 235.870124 
L 248.467385 233.71586 
L 248.186239 233.634428 
L 244.5143 232.570868 
L 241.991118 231.839967 
L 239.784548 231.200801 
L 239.392053 231.087273 
L 236.326589 230.199255 
L 234.073458 229.546418 
L 233.607853 229.41169 
L 233.488777 229.377215 
L 228.104008 227.817538 
L 221.448316 227.194352 
L 217.824245 226.855024 
L 217.250858 226.760318 
L 212.823253 226.028426 
L 209.235123 225.435226 
L 205.758145 224.86065 
L 203.493522 224.486185 
L 203.03505 224.410301 
L 200.832838 224.046337 
L 198.768128 223.705157 
L 198.325506 223.631849 
L 197.376267 223.47493 
L 195.705439 223.198936 
L 195.211303 223.117108 
L 193.813498 222.886089 
L 180.917432 220.754411 
L 179.045502 220.445131 
L 178.510354 220.356567 
L 175.920798 219.928606 
L 174.737766 219.732854 
L 173.038407 219.452104 
L 171.610883 219.216132 
L 170.946554 219.405544 
L 170.200793 219.618335 
L 169.633548 219.780207 
L 168.837264 220.007462 
L 161.178758 222.192635 
L 158.277148 223.020619 
L 157.145233 223.343372 
L 153.09348 224.499459 
L 152.556747 224.652415 
L 144.324457 227.001243 
L 143.718576 227.174012 
L 143.575724 227.215025 
L 140.930494 227.969503 
L 140.567124 228.073323 
L 140.376524 228.127809 
L 140.163732 228.188238 
L 139.751226 228.306126 
L 137.145028 229.049508 
L 136.159531 229.330654 
L 135.717899 229.456863 
L 133.627036 230.053432 
L 127.04695 231.930711 
L 126.621566 232.051966 
L 115.363636 236.003267 
L 122.162854 240.861805 
L 123.296949 245.108715 
L 123.706483 246.643032 
L 123.831701 247.112203 
L 124.217658 248.557758 
L 124.335941 249.00137 
L 124.659685 250.21333 
L 124.769053 250.622864 
L 125.165114 252.106261 
L 125.591687 253.704573 
L 125.71532 254.167404 
L 126.112174 255.653377 
L 126.686948 257.807048 
L 126.852981 258.427788 
L 127.081425 259.284105 
L 127.356032 260.312992 
L 127.496308 260.838036 
L 128.040373 262.875404 
L 128.067714 262.972686 
L 128.932551 266.050829 
L 130.252689 270.749476 
L 130.273889 270.825756 
L 129.533676 271.054397 
L 130.291522 273.585901 
L 130.998053 273.402433 
L 131.098703 273.760849 
L 132.287679 277.9929 
L 131.513785 278.220353 
L 135.899783 294.153153 
L 136.8619 293.895783 
L 137.106591 294.761213 
L 137.534353 296.274132 
L 137.665713 296.738944 
L 138.547984 299.858695 
L 138.692421 300.369672 
L 139.150695 301.990373 
L 139.391225 302.839953 
L 139.742509 304.082226 
L 140.080914 305.27893 
L 140.241003 305.834882 
L 140.488665 306.695161 
L 141.248294 309.334645 
L 141.483871 310.153714 
L 142.342367 313.135566 
L 142.510975 313.721634 
L 143.304683 316.479203 
L 143.340941 316.604818 
L 143.530749 317.263995 
L 144.115033 319.294825 
L 144.325844 320.027112 
L 144.529125 320.732851 
L 144.931328 322.130061 
L 145.110833 322.753972 
L 145.308171 323.439699 
L 145.500158 324.107 
L 145.677881 324.72457 
L 146.930655 329.076688 
L 147.184063 329.957176 
L 147.632827 331.516061 
L 148.053456 333.26832 
L 148.751853 336.171066 
L 148.79248 336.339925 
L 148.994572 337.179203 
L 149.718538 340.188595 
L 150.458157 342.533262 
L 151.405415 345.536711 
L 152.196943 348.046816 
L 152.258165 348.240587 
L 152.381798 348.632884 
L 152.980744 350.531958 
L 153.02671 350.677979 
L 153.146381 351.056605 
L 154.048267 353.916608 
L 154.360124 354.905077 
L 154.498814 355.345519 
L 154.815029 356.347659 
L 155.098157 357.245187 
L 155.2949 357.8689 
L 156.361432 361.25137 
L 156.863096 362.841361 
L 157.511575 363.283587 
L 157.917146 363.560176 
L 158.484392 363.946925 
L 159.366664 364.548645 
L 161.067013 365.7081 
L 165.204556 368.529269 
L 168.303107 370.631228 
L 167.186651 372.409192 
L 165.949326 374.379644 
L 160.716918 382.827697 
L 160.377918 383.374932 
L 159.011615 385.580512 
L 158.928202 385.715636 
L 158.695202 386.091687 
L 157.571212 387.906159 
L 156.451581 389.713894 
L 156.21541 390.095096 
L 156.133385 390.227248 
L 154.373002 393.069816 
L 154.169919 393.39772 
L 152.270647 396.504989 
L 151.924911 397.070649 
L 151.670909 397.485929 
L 149.796602 400.551392 
L 149.472659 401.081191 
L 148.549771 402.590345 
L 148.229594 403.114002 
L 146.662387 405.675621 
L 145.131835 408.177603 
L 143.546599 410.768348 
L 143.055039 411.571764 
L 142.824218 411.949201 
L 141.688737 413.805082 
L 141.475747 414.153196 
L 140.564153 419.903713 
L 140.484504 420.307105 
L 140.266562 421.411084 
L 139.502375 425.28353 
L 139.202407 426.803779 
L 139.107305 427.286027 
L 138.800798 428.83976 
L 138.212155 431.822801 
L 138.129733 432.240855 
L 138.104372 432.369243 
L 138.075445 432.515265 
L 137.971427 433.04328 
L 137.422409 435.825814 
L 137.1268 437.323279 
L 137.050718 437.708641 
L 137.029716 437.815235 
L 136.553611 440.228455 
L 136.480501 440.599156 
L 136.355877 441.265664 
L 135.778923 444.349157 
L 135.69135 444.753143 
L 134.869508 448.540591 
L 135.219801 449.681224 
L 135.542158 450.731906 
L 136.065815 452.437803 
L 135.739892 453.152655 
L 133.832497 457.337749 
L 133.656954 457.892909 
L 133.360354 458.831449 
L 132.017629 463.078756 
L 129.010812 472.59037 
L 128.879452 473.006046 
L 129.31613 473.136217 
L 133.082774 474.260009 
L 134.978281 474.834585 
L 136.201336 475.205682 
L 136.351716 475.251054 
L 136.879732 475.411341 
L 139.310982 476.148582 
L 140.800918 476.58843 
L 141.258003 476.723356 
L 142.768544 477.169346 
L 142.763392 477.186385 
L 144.191512 477.612364 
L 144.637502 477.745507 
L 146.033325 478.162174 
L 146.042241 478.135823 
L 149.27136 479.089025 
L 150.538597 479.463292 
L 150.87304 479.563546 
L 153.310234 480.294446 
L 153.632591 480.393709 
L 154.517637 480.666138 
L 157.000598 481.430126 
L 161.201939 482.67973 
L 163.233561 483.291555 
L 163.655181 483.418358 
L 166.390759 484.53046 
L 168.78159 485.486832 
L 171.046213 486.392681 
L 174.494661 487.771862 
L 174.640682 487.83031 
L 175.210107 488.05816 
L 175.503141 488.175254 
L 177.487608 488.968962 
L 178.063373 489.199189 
L 178.529969 489.385827 
L 179.753222 489.875009 
L 183.986858 491.379012 
L 184.933522 491.715436 
L 185.282626 491.839267 
L 186.32994 492.211553 
L 187.377452 492.583443 
L 187.726556 492.70767 
L 189.022523 493.167925 
L 191.69767 493.911308 
L 198.509767 495.804041 
L 198.611804 495.832572 
L 198.810924 495.887652 
L 199.334581 496.033277 
L 202.08799 496.798256 
L 204.275144 497.406118 
L 204.875477 497.572943 
L 205.352969 497.70569 
L 206.839933 498.395974 
L 206.94831 498.449667 
L 207.6168 498.781337 
L 208.402582 499.171256 
L 208.83609 499.386029 
L 209.519241 499.725029 
L 210.206355 500.06601 
L 210.393786 500.158933 
L 211.446053 500.680608 
L 212.631859 501.268855 
L 213.64034 501.769133 
L 216.939596 503.3829 
L 217.553005 503.679698 
L 225.153064 507.356589 
L 226.300433 507.911551 
L 228.469557 508.961044 
L 228.919311 509.17859 
L 229.065531 509.249521 
L 229.18322 509.306384 
L 229.605237 509.510458 
L 231.036922 510.203317 
L 231.998049 510.66813 
L 232.186074 510.760062 
L 232.789578 511.055671 
L 232.927278 511.123035 
L 234.565811 511.925065 
L 235.54259 512.40335 
L 243.53653 516.31661 
L 244.230182 516.656204 
L 245.313952 517.186796 
L 246.334518 517.686479 
L 247.099101 518.060548 
L 252.556188 520.732129 
L 256.311539 522.570377 
L 257.220756 523.015574 
L 260.136037 524.442504 
L 267.028574 530.719254 
L 267.030791 530.721273 
L 269.54918 533.014389 
L 270.581634 533.548349 
L 271.989544 534.276475 
L 272.330129 534.452613 
L 274.123995 535.807027 
L 276.699286 537.751076 
L 277.003217 537.545418 
L 279.611 539.574266 
L 279.407323 539.850063 
L 284.683716 543.869917 
L 293.603912 550.666162 
L 297.38819 553.54578 
L 313.791944 565.432771 
L 317.292302 567.969822 
" clip-path="url(#p6a2fd156ac)" style="fill: #d3d3d3"/>
   </g>
   <g id="PatchCollection_2">
    <path d="M 393.398685 512.65973 
L 392.908908 512.74235 
L 389.399635 513.33555 
L 388.334886 515.518147 
L 386.977697 518.074417 
L 384.431136 517.359565 
L 382.42428 517.453676 
L 381.816021 517.192343 
L 381.617693 517.489934 
L 375.562255 517.741163 
L 373.186283 517.330043 
L 372.941395 517.287644 
L 370.701538 516.900498 
L 369.472539 518.075804 
L 358.479708 528.586982 
L 355.814467 531.135525 
L 347.994088 538.613337 
L 341.063312 545.239984 
L 323.699223 561.843453 
L 322.895015 562.612592 
L 317.292302 567.969822 
L 313.791944 565.432771 
L 297.38819 553.54578 
L 293.603912 550.666162 
L 284.683716 543.869917 
L 282.520728 542.222031 
L 282.903563 540.696429 
L 283.541586 538.903816 
L 284.348625 537.180672 
L 285.317236 535.54289 
L 291.253811 526.523534 
L 291.716789 525.820127 
L 291.730384 525.643535 
L 292.06409 523.746228 
L 292.580478 521.890297 
L 293.274665 520.093289 
L 294.140088 518.372191 
L 295.168567 516.743275 
L 296.858829 514.334201 
L 296.145168 513.79024 
L 294.722859 512.466911 
L 293.436989 511.01065 
L 292.299918 509.435457 
L 291.32258 507.756478 
L 290.514371 505.989855 
L 289.883062 504.152572 
L 289.434722 502.262294 
L 289.173661 500.337194 
L 288.954262 497.784601 
L 288.64356 494.182778 
L 288.571886 492.225601 
L 288.69379 490.27091 
L 289.008081 488.337804 
L 289.511689 486.445171 
L 290.199691 484.611505 
L 291.065367 482.854723 
L 292.100257 481.19199 
L 293.29425 479.639553 
L 294.635678 478.212581 
L 296.111435 476.925017 
L 297.7071 475.789442 
L 299.407083 474.816952 
L 301.194773 474.017049 
L 303.052701 473.397548 
L 304.962715 472.964504 
L 306.90615 472.722148 
L 312.812609 472.280587 
L 314.686061 471.764851 
L 316.627862 471.433194 
L 318.592998 471.296003 
L 320.562045 471.354634 
L 322.515538 471.608507 
L 324.434164 472.055112 
L 326.298958 472.690035 
L 328.091485 473.506999 
L 329.794026 474.497928 
L 331.354382 475.513179 
L 332.716366 476.483559 
L 333.991666 477.565337 
L 335.612738 479.062538 
L 336.955029 480.428226 
L 338.159212 481.917115 
L 339.21404 483.515297 
L 340.10966 485.207843 
L 340.632725 486.480294 
L 340.741482 486.48553 
L 341.067536 486.516914 
L 342.91215 486.782517 
L 344.723649 487.220261 
L 346.486005 487.826272 
L 348.183626 488.595188 
L 348.738132 488.878494 
L 350.39404 489.827768 
L 351.950921 490.931975 
L 353.394326 492.180869 
L 354.71086 493.562857 
L 355.559569 494.645695 
L 362.741974 500.937467 
L 364.183697 502.335743 
L 365.476453 503.872792 
L 366.606958 505.532821 
L 367.563597 507.298772 
L 367.959621 508.127574 
L 368.64801 509.750065 
L 369.189487 511.427313 
L 369.486695 512.736165 
L 370.159455 511.630301 
L 371.329161 510.074924 
L 371.831791 509.470786 
L 373.145918 508.040163 
L 374.593827 506.745105 
L 375.889485 505.797153 
L 376.447694 505.310423 
L 378.013418 504.192719 
L 379.680157 503.232128 
L 381.432198 502.437705 
L 383.253023 501.81694 
L 385.125468 501.375686 
L 387.031879 501.118101 
L 388.954285 501.046615 
L 390.874562 501.161901 
L 392.774607 501.462872 
L 394.636507 501.946691 
L 396.44271 502.608798 
L 398.176188 503.442949 
L 399.820599 504.441281 
L 401.36044 505.594383 
L 403.07877 507.016423 
L 403.17803 507.099114 
L 403.361574 507.253038 
L 404.784949 508.570606 
L 406.072675 510.021035 
L 406.393614 510.462959 
L 393.398685 512.65973 
" clip-path="url(#p6a2fd156ac)" style="fill: #ff0000; fill-opacity: 0.7; stroke: #000000; stroke-opacity: 0.7; stroke-width: 0.5"/>
    <path d="M 607.850338 468.574082 
L 606.417662 470.006758 
L 605.655259 470.768765 
L 596.21101 480.210439 
L 595.569664 480.851587 
L 594.972699 481.447958 
L 584.779915 491.64728 
L 579.411194 497.020161 
L 578.92855 497.503004 
L 574.136584 502.298932 
L 568.266 501.672842 
L 568.003478 501.265883 
L 561.633806 491.394466 
L 557.481007 484.958222 
L 552.410273 485.813746 
L 548.469076 486.478669 
L 536.963485 488.418756 
L 472.514262 499.285379 
L 444.814229 503.968021 
L 441.566829 501.563731 
L 440.187701 500.430189 
L 439.593666 500.994141 
L 438.061769 502.18651 
L 436.420538 503.223243 
L 434.68573 504.094386 
L 432.873997 504.791579 
L 431.002732 505.308126 
L 429.0899 505.63907 
L 427.153862 505.781234 
L 425.213205 505.733253 
L 423.286558 505.495587 
L 421.392418 505.070518 
L 419.548966 504.462126 
L 417.773902 503.676253 
L 416.084263 502.720442 
L 414.496272 501.603869 
L 413.91982 501.154784 
L 412.444216 499.883887 
L 411.100508 498.474264 
L 409.901679 496.939535 
L 408.859309 495.294527 
L 407.983471 493.555133 
L 407.282626 491.738157 
L 406.763544 489.861154 
L 406.431242 487.942258 
L 406.288928 486.000009 
L 406.337979 484.053171 
L 406.577921 482.120552 
L 407.006434 480.220826 
L 407.61938 478.372344 
L 408.410837 476.592967 
L 409.373157 474.899886 
L 410.497044 473.309457 
L 411.303361 472.279797 
L 412.573664 470.81188 
L 413.981521 469.475322 
L 415.513418 468.282953 
L 417.154648 467.246222 
L 418.889456 466.375078 
L 420.701188 465.677887 
L 422.572452 465.16134 
L 424.485283 464.830396 
L 426.42132 464.688232 
L 428.262893 464.733764 
L 427.479754 464.229045 
L 427.377424 464.162648 
L 421.085838 460.052794 
L 420.861484 459.904055 
L 418.582318 458.370658 
L 416.980314 457.171016 
L 415.50751 455.815876 
L 414.178933 454.319066 
L 413.008141 452.695858 
L 412.535101 451.87693 
L 412.311868 452.07235 
L 410.728409 453.204631 
L 409.04148 454.17606 
L 407.267365 454.977258 
L 405.423189 455.600492 
L 405.149819 455.66381 
L 404.511085 455.880223 
L 402.615448 456.320895 
L 400.780193 456.561097 
L 399.930596 457.94608 
L 398.403423 460.471181 
L 398.189005 460.817616 
L 394.607364 466.473673 
L 393.491756 468.241573 
L 392.034971 470.546914 
L 391.556936 471.304172 
L 390.446941 472.885987 
L 389.188129 474.352146 
L 387.792477 475.688702 
L 386.273259 476.882941 
L 384.644929 477.923503 
L 382.922975 478.800489 
L 381.123778 479.505556 
L 379.264453 480.031998 
L 377.362688 480.374806 
L 375.436572 480.530721 
L 373.50443 480.498257 
L 371.584639 480.277725 
L 369.695464 479.871222 
L 367.854874 479.282614 
L 366.080379 478.517503 
L 364.388859 477.583164 
L 358.063444 473.674985 
L 356.447507 472.562392 
L 354.949529 471.295437 
L 353.584197 469.886542 
L 352.364899 468.349523 
L 351.30359 466.699451 
L 350.410678 464.952504 
L 349.694916 463.125813 
L 349.163325 461.237288 
L 348.821115 459.305448 
L 348.671643 457.349234 
L 348.716373 455.387828 
L 348.954868 453.440462 
L 348.956039 453.43525 
L 348.606503 453.430987 
L 346.678629 453.217801 
L 344.780838 452.817131 
L 342.931319 452.232815 
L 341.147797 451.470455 
L 339.447364 450.537357 
L 337.154846 449.129137 
L 336.950168 449.001687 
L 333.353332 446.731521 
L 333.2842 446.688054 
L 331.693132 445.575288 
L 330.218619 444.312134 
L 328.87482 442.910723 
L 327.674641 441.384513 
L 326.629607 439.748161 
L 325.749754 438.017379 
L 325.04353 436.20879 
L 324.517718 434.339761 
L 324.177367 432.428241 
L 324.025746 430.492587 
L 324.064311 428.551387 
L 324.079653 428.421863 
L 323.757084 429.529718 
L 323.02917 431.341953 
L 322.126378 433.073721 
L 321.05748 434.708196 
L 320.358787 435.669567 
L 318.891226 437.685004 
L 315.495196 442.348697 
L 314.541806 443.659453 
L 313.32809 445.167364 
L 311.973022 446.549641 
L 310.489536 447.793092 
L 308.891792 448.885848 
L 307.195041 449.817479 
L 305.415477 450.579091 
L 303.784989 451.09537 
L 303.587129 451.235035 
L 301.902778 452.192373 
L 300.597681 452.773653 
L 299.357756 453.824333 
L 297.757167 454.9305 
L 296.055801 455.874346 
L 294.270064 456.646768 
L 292.417177 457.240318 
L 290.515008 457.649272 
L 288.581899 457.869687 
L 286.636492 457.899436 
L 284.697548 457.738234 
L 282.783763 457.387634 
L 280.913594 456.851017 
L 279.105073 456.133559 
L 277.887236 455.505862 
L 277.892062 455.538303 
L 277.987139 457.503842 
L 277.886769 459.469117 
L 277.591942 461.414743 
L 277.105568 463.321526 
L 276.432443 465.170657 
L 275.579207 466.943895 
L 274.554279 468.623747 
L 273.189901 470.628722 
L 272.538898 471.584893 
L 272.802344 471.813741 
L 274.136881 473.224919 
L 275.326833 474.759984 
L 275.995615 475.716074 
L 277.030499 477.361966 
L 277.899087 479.101361 
L 278.593015 480.917513 
L 279.105601 482.792932 
L 279.43191 484.709561 
L 279.5688 486.648943 
L 279.514952 488.592405 
L 279.270885 490.521232 
L 278.838949 492.416851 
L 278.223303 494.26101 
L 277.429875 496.035951 
L 276.466306 497.724583 
L 275.341874 499.310646 
L 274.067406 500.778867 
L 272.655173 502.115108 
L 271.118775 503.306504 
L 270.758265 503.558743 
L 269.113243 504.593399 
L 268.66721 504.816233 
L 268.039307 506.283671 
L 267.725377 506.85353 
L 267.929723 507.547946 
L 268.293348 509.460282 
L 268.467559 511.39907 
L 268.450676 513.345596 
L 268.242862 515.281071 
L 267.846123 517.186811 
L 267.264287 519.044422 
L 266.502973 520.835971 
L 265.129662 523.671911 
L 264.198565 525.376269 
L 263.105077 526.981281 
L 263.026774 527.07498 
L 260.136037 524.442504 
L 257.220756 523.015574 
L 256.311539 522.570377 
L 252.556188 520.732129 
L 247.099101 518.060548 
L 246.334518 517.686479 
L 245.313952 517.186796 
L 244.230182 516.656204 
L 243.53653 516.31661 
L 235.54259 512.40335 
L 234.565811 511.925065 
L 232.927278 511.123035 
L 232.789578 511.055671 
L 232.186074 510.760062 
L 231.998049 510.66813 
L 231.036922 510.203317 
L 229.605237 509.510458 
L 229.18322 509.306384 
L 229.065531 509.249521 
L 228.919311 509.17859 
L 228.469557 508.961044 
L 226.300433 507.911551 
L 225.153064 507.356589 
L 217.553005 503.679698 
L 216.939596 503.3829 
L 213.64034 501.769133 
L 212.631859 501.268855 
L 211.446053 500.680608 
L 210.393786 500.158933 
L 210.206355 500.06601 
L 209.519241 499.725029 
L 208.83609 499.386029 
L 208.402582 499.171256 
L 207.6168 498.781337 
L 206.94831 498.449667 
L 206.839933 498.395974 
L 205.352969 497.70569 
L 204.875477 497.572943 
L 204.275144 497.406118 
L 202.08799 496.798256 
L 199.334581 496.033277 
L 198.810924 495.887652 
L 198.611804 495.832572 
L 198.56963 495.82078 
L 198.990994 495.363081 
L 200.389973 494.106652 
L 201.901759 492.988503 
L 203.512737 492.018704 
L 205.208394 491.205992 
L 206.973459 490.557685 
L 208.792034 490.079624 
L 210.647738 489.776115 
L 212.523857 489.64989 
L 214.403493 489.702087 
L 216.269716 489.932236 
L 218.105716 490.338264 
L 219.894957 490.916514 
L 221.621323 491.661777 
L 224.881903 493.256965 
L 226.607431 494.210337 
L 228.229673 495.330466 
L 228.829036 495.83926 
L 228.858121 495.053423 
L 229.123464 493.112852 
L 229.579112 491.207961 
L 229.661552 490.97014 
L 229.380999 490.63871 
L 228.253681 488.997709 
L 227.296743 487.251856 
L 226.519847 485.418781 
L 225.930838 483.516993 
L 225.535663 481.565694 
L 225.338312 479.584587 
L 225.340778 477.593676 
L 225.543036 475.613065 
L 225.943044 473.662751 
L 226.536763 471.762427 
L 227.318198 469.931282 
L 228.279458 468.187806 
L 229.177243 466.736997 
L 230.317183 465.08765 
L 230.360958 465.036306 
L 230.250833 464.727742 
L 229.780728 462.846753 
L 229.496722 460.928821 
L 229.458615 460.153572 
L 228.103094 459.250763 
L 227.563346 458.915771 
L 226.570846 458.230249 
L 223.621863 456.266155 
L 222.072244 455.121536 
L 220.641115 453.831829 
L 219.342009 452.409227 
L 218.187208 450.86718 
L 217.187629 449.220269 
L 216.352725 447.484064 
L 215.690387 445.67498 
L 215.20688 443.810122 
L 214.906774 441.907122 
L 214.901841 441.823817 
L 214.753772 441.631804 
L 213.739105 440.015272 
L 212.884686 438.308611 
L 212.198444 436.527658 
L 211.686747 434.688938 
L 211.354343 432.809515 
L 211.204317 430.906829 
L 211.238061 428.998535 
L 211.455262 427.102342 
L 211.853904 425.235846 
L 212.430288 423.416367 
L 213.179066 421.660788 
L 214.093288 419.985402 
L 215.164473 418.405754 
L 215.45523 418.018538 
L 215.768174 417.600949 
L 217.032512 416.078622 
L 218.442401 414.690012 
L 219.983778 413.448971 
L 221.641266 412.367878 
L 223.39833 411.457519 
L 225.237442 410.726975 
L 225.614557 410.619272 
L 225.607361 410.612504 
L 224.336653 409.159595 
L 223.213351 407.589934 
L 222.248115 405.918419 
L 221.450106 404.160914 
L 220.826898 402.334098 
L 220.384406 400.455311 
L 220.126829 398.542382 
L 220.090017 397.531127 
L 219.617047 397.660208 
L 217.714765 397.984768 
L 216.998141 398.036131 
L 215.873121 398.556964 
L 214.052659 399.193164 
L 212.178972 399.649373 
L 210.269809 399.921268 
L 208.343256 400.006274 
L 206.417565 399.903584 
L 204.510978 399.614173 
L 202.641558 399.140782 
L 200.827014 398.487894 
L 199.239958 397.73539 
L 194.356424 405.213347 
L 194.821684 405.597186 
L 196.158404 406.933464 
L 197.36171 408.391034 
L 198.420652 409.956634 
L 198.922801 410.781237 
L 199.891319 412.572962 
L 200.670777 414.454651 
L 201.252937 416.406419 
L 201.631649 418.40764 
L 201.802909 420.437166 
L 201.764909 422.473551 
L 201.518049 424.495275 
L 201.064938 426.480973 
L 200.410365 428.409662 
L 199.561247 430.26096 
L 198.710592 431.889127 
L 197.813679 433.432228 
L 196.781537 434.888352 
L 195.622543 436.245683 
L 195.228734 436.63057 
L 195.151471 436.780288 
L 194.446963 437.999393 
L 193.413047 439.604637 
L 192.229412 441.102903 
L 191.80148 441.548638 
L 191.082831 442.496303 
L 189.835088 443.98419 
L 188.447688 445.342791 
L 186.933959 446.559054 
L 185.308439 447.621297 
L 183.586744 448.519316 
L 181.785411 449.244486 
L 179.921742 449.789841 
L 178.013639 450.150142 
L 176.079431 450.321929 
L 174.137696 450.303552 
L 172.207085 450.095186 
L 170.306144 449.698835 
L 168.453131 449.118303 
L 166.665846 448.359169 
L 164.961456 447.428724 
L 163.356334 446.335905 
L 161.951837 445.275343 
L 160.457673 444.027211 
L 159.093219 442.63846 
L 157.871651 441.122501 
L 156.804764 439.49397 
L 156.114037 438.172585 
L 155.423907 437.370416 
L 154.204394 435.594203 
L 153.18496 433.696072 
L 152.983353 433.266118 
L 152.187343 431.301416 
L 151.605797 429.262916 
L 151.24537 427.173951 
L 151.189871 426.703124 
L 151.054281 424.543084 
L 151.155102 422.381141 
L 151.491132 420.243094 
L 151.590079 419.780083 
L 152.151715 417.708355 
L 152.934173 415.709543 
L 153.928269 413.807107 
L 154.169843 413.400154 
L 154.9486 412.236967 
L 152.699665 410.769356 
L 152.698124 410.772842 
L 151.740067 412.467703 
L 150.620293 414.060353 
L 149.392216 415.636366 
L 149.699725 416.742684 
L 150.038735 418.719532 
L 150.176145 420.720526 
L 150.110545 422.725159 
L 149.842609 424.712888 
L 149.511706 426.484778 
L 149.052907 428.405454 
L 148.405196 430.270919 
L 147.575006 432.062644 
L 147.34174 432.457492 
L 146.870117 434.31683 
L 146.197677 436.170592 
L 146.168529 436.231314 
L 146.382842 436.859676 
L 146.826902 438.751146 
L 147.083568 440.677014 
L 147.150374 442.618761 
L 147.026676 444.557715 
L 146.713664 446.475232 
L 146.214348 448.352871 
L 145.878287 449.251102 
L 146.517055 449.214491 
L 148.454213 449.29326 
L 150.374399 449.560981 
L 152.259226 450.015093 
L 154.090646 450.651245 
L 155.851123 451.463346 
L 157.523801 452.443622 
L 159.092662 453.582685 
L 160.542684 454.869628 
L 166.716688 460.914504 
L 168.058744 462.366571 
L 169.249387 463.945174 
L 170.276756 465.63459 
L 171.130621 467.417993 
L 171.802478 469.277623 
L 172.285634 471.194959 
L 172.575279 473.150903 
L 172.668527 475.125978 
L 172.56445 477.100511 
L 172.264085 479.054839 
L 171.770422 480.969496 
L 171.088378 482.825413 
L 170.224747 484.604108 
L 169.567718 485.801283 
L 168.78159 485.486832 
L 166.390759 484.53046 
L 163.655181 483.418358 
L 163.233561 483.291555 
L 161.201939 482.67973 
L 157.000598 481.430126 
L 154.517637 480.666138 
L 153.632591 480.393709 
L 153.310234 480.294446 
L 150.87304 479.563546 
L 150.538597 479.463292 
L 149.27136 479.089025 
L 146.042241 478.135823 
L 146.033325 478.162174 
L 144.637502 477.745507 
L 144.191512 477.612364 
L 142.763392 477.186385 
L 142.768544 477.169346 
L 141.258003 476.723356 
L 140.800918 476.58843 
L 139.310982 476.148582 
L 136.879732 475.411341 
L 136.351716 475.251054 
L 136.201336 475.205682 
L 134.978281 474.834585 
L 133.082774 474.260009 
L 129.31613 473.136217 
L 128.879452 473.006046 
L 129.010812 472.59037 
L 132.017629 463.078756 
L 133.360354 458.831449 
L 133.656954 457.892909 
L 133.832497 457.337749 
L 135.739892 453.152655 
L 136.065815 452.437803 
L 135.542158 450.731906 
L 135.219801 449.681224 
L 134.869508 448.540591 
L 135.69135 444.753143 
L 135.778923 444.349157 
L 136.355877 441.265664 
L 136.480501 440.599156 
L 136.553611 440.228455 
L 137.029716 437.815235 
L 137.050718 437.708641 
L 137.1268 437.323279 
L 137.422409 435.825814 
L 137.971427 433.04328 
L 138.075445 432.515265 
L 138.104372 432.369243 
L 138.129733 432.240855 
L 138.212155 431.822801 
L 138.800798 428.83976 
L 139.107305 427.286027 
L 139.202407 426.803779 
L 139.502375 425.28353 
L 140.266562 421.411084 
L 140.484504 420.307105 
L 140.564153 419.903713 
L 141.475747 414.153196 
L 141.688737 413.805082 
L 142.824218 411.949201 
L 143.055039 411.571764 
L 143.546599 410.768348 
L 145.131835 408.177603 
L 146.662387 405.675621 
L 148.229594 403.114002 
L 148.549771 402.590345 
L 149.472659 401.081191 
L 149.796602 400.551392 
L 151.670909 397.485929 
L 151.924911 397.070649 
L 152.270647 396.504989 
L 154.169919 393.39772 
L 154.373002 393.069816 
L 156.133385 390.227248 
L 156.21541 390.095096 
L 156.451581 389.713894 
L 157.571212 387.906159 
L 158.695202 386.091687 
L 158.928202 385.715636 
L 159.011615 385.580512 
L 160.377918 383.374932 
L 160.716918 382.827697 
L 165.949326 374.379644 
L 167.186651 372.409192 
L 168.303107 370.631228 
L 165.204556 368.529269 
L 161.067013 365.7081 
L 159.366664 364.548645 
L 158.484392 363.946925 
L 157.917146 363.560176 
L 157.511575 363.283587 
L 156.863096 362.841361 
L 156.361432 361.25137 
L 155.2949 357.8689 
L 155.098157 357.245187 
L 154.815029 356.347659 
L 154.498814 355.345519 
L 154.360124 354.905077 
L 154.048267 353.916608 
L 153.146381 351.056605 
L 153.02671 350.677979 
L 152.980744 350.531958 
L 152.78965 349.926055 
L 153.404044 350.182252 
L 155.114679 351.101558 
L 158.188306 352.952982 
L 158.350409 351.930088 
L 158.853237 350.017133 
L 159.544292 348.163845 
L 160.416688 346.388694 
L 161.461729 344.709372 
L 161.925779 344.040575 
L 162.87282 342.541285 
L 162.917391 342.477821 
L 162.955511 342.411493 
L 163.920424 340.90987 
L 159.514281 337.956888 
L 157.955068 336.797194 
L 156.516957 335.490339 
L 155.21378 334.048893 
L 154.058075 332.486722 
L 153.060957 330.818852 
L 152.232019 329.061327 
L 151.579232 327.231052 
L 151.481737 326.840242 
L 150.895354 328.202774 
L 149.928882 329.943145 
L 148.792644 331.577748 
L 148.268422 332.190168 
L 147.944317 332.813668 
L 147.632827 331.516061 
L 147.184063 329.957176 
L 146.930655 329.076688 
L 145.677881 324.72457 
L 145.500158 324.107 
L 145.308171 323.439699 
L 145.110833 322.753972 
L 144.931328 322.130061 
L 144.529125 320.732851 
L 144.325844 320.027112 
L 144.115033 319.294825 
L 143.530749 317.263995 
L 143.340941 316.604818 
L 143.304683 316.479203 
L 142.510975 313.721634 
L 142.342367 313.135566 
L 141.483871 310.153714 
L 141.248294 309.334645 
L 140.488665 306.695161 
L 140.241003 305.834882 
L 140.080914 305.27893 
L 139.742509 304.082226 
L 139.391225 302.839953 
L 139.150695 301.990373 
L 138.692421 300.369672 
L 138.547984 299.858695 
L 137.665713 296.738944 
L 137.534353 296.274132 
L 137.106591 294.761213 
L 136.8619 293.895783 
L 135.899783 294.153153 
L 131.513785 278.220353 
L 132.287679 277.9929 
L 131.098703 273.760849 
L 130.998053 273.402433 
L 130.291522 273.585901 
L 129.533676 271.054397 
L 130.273889 270.825756 
L 130.252689 270.749476 
L 128.932551 266.050829 
L 128.067714 262.972686 
L 128.040373 262.875404 
L 127.496308 260.838036 
L 127.356032 260.312992 
L 127.081425 259.284105 
L 126.852981 258.427788 
L 126.686948 257.807048 
L 126.112174 255.653377 
L 125.71532 254.167404 
L 125.591687 253.704573 
L 125.165114 252.106261 
L 125.147305 252.03956 
L 125.556453 252.137467 
L 127.43444 252.791853 
L 129.237365 253.63121 
L 130.947063 254.647079 
L 132.546309 255.829226 
L 134.01899 257.165739 
L 135.350268 258.643155 
L 136.52673 260.246587 
L 137.536524 261.959881 
L 138.369475 263.765774 
L 140.651532 269.44706 
L 141.28149 271.266323 
L 141.731903 273.13814 
L 141.998519 275.044834 
L 142.078819 276.968404 
L 141.972046 278.890686 
L 141.679208 280.79353 
L 141.203069 282.658968 
L 140.548126 284.469387 
L 139.720563 286.207693 
L 138.728193 287.857472 
L 138.262971 288.483957 
L 138.749735 288.701498 
L 140.388753 289.62994 
L 141.932191 290.709838 
L 143.366098 291.931432 
L 144.677513 293.283679 
L 145.854581 294.754356 
L 146.886664 296.330169 
L 147.764431 297.996874 
L 148.479948 299.739406 
L 149.026748 301.542013 
L 149.877439 304.916331 
L 150.269103 304.10769 
L 151.249877 302.494851 
L 155.384344 296.37317 
L 156.536509 294.833908 
L 157.832448 293.413571 
L 159.259957 292.125536 
L 160.805591 290.981933 
L 162.454795 289.99353 
L 164.192039 289.169637 
L 166.000961 288.518012 
L 167.864527 288.044792 
L 169.765186 287.754433 
L 171.68504 287.649669 
L 172.01919 287.663901 
L 173.253495 286.317575 
L 174.700659 285.020753 
L 176.267898 283.871932 
L 177.940137 282.882161 
L 179.701291 282.060962 
L 181.534418 281.416234 
L 183.421885 280.954178 
L 185.345538 280.67924 
L 187.286871 280.594063 
L 189.227211 280.699467 
L 191.147893 280.994439 
L 193.030443 281.47614 
L 194.856751 282.139938 
L 196.609251 282.979446 
L 198.271084 283.986591 
L 200.723072 285.642256 
L 206.876228 289.791407 
L 208.461061 290.979492 
L 209.919349 292.31988 
L 211.236517 293.799173 
L 212.399403 295.402588 
L 213.396383 297.114099 
L 214.217494 298.916603 
L 214.854529 300.792083 
L 214.904008 301.005879 
L 215.58271 301.756035 
L 216.728632 303.30051 
L 217.719417 304.948808 
L 218.545729 306.685399 
L 218.655009 306.987569 
L 219.147796 305.895865 
L 219.127443 304.695982 
L 218.355839 301.685245 
L 217.966475 299.782578 
L 217.765261 297.850931 
L 217.754128 295.908865 
L 217.933185 293.975039 
L 218.30071 292.068033 
L 218.853173 290.206171 
L 219.585265 288.407342 
L 220.396414 286.866509 
L 220.620433 285.651307 
L 221.15726 283.786438 
L 221.873949 281.983031 
L 222.763625 280.258387 
L 223.817752 278.629051 
L 225.026218 277.110654 
L 226.377429 275.717763 
L 227.858423 274.463739 
L 229.454993 273.360613 
L 231.151821 272.418969 
L 232.932629 271.647839 
L 234.780334 271.054622 
L 242.085976 269.098106 
L 244.764613 268.363055 
L 246.711675 267.93281 
L 248.692123 267.700452 
L 250.685897 267.668337 
L 252.672801 267.836789 
L 254.63271 268.204102 
L 256.545773 268.766555 
L 258.392612 269.518452 
L 260.154521 270.452176 
L 261.813653 271.558271 
L 262.736916 272.318243 
L 263.239269 272.350354 
L 265.114868 272.652572 
L 266.9529 273.133038 
L 268.736465 273.787335 
L 270.449165 274.609446 
L 272.075253 275.591814 
L 273.599778 276.725406 
L 275.008724 277.999799 
L 276.289137 279.403277 
L 277.429245 280.922936 
L 278.418564 282.544804 
L 279.247999 284.25397 
L 279.909924 286.034718 
L 280.398254 287.870676 
L 280.627586 288.936174 
L 281.215601 291.673865 
L 283.307986 301.406249 
L 283.598505 302.756657 
L 283.613581 302.825826 
L 283.747951 303.630126 
L 283.928791 304.308151 
L 284.293198 306.005451 
L 285.601079 305.3907 
L 287.455291 304.734634 
L 289.365416 304.265643 
L 291.312628 303.98835 
L 293.277739 303.905486 
L 295.241383 304.01787 
L 297.184209 304.324393 
L 302.107544 305.353902 
L 303.989826 305.845067 
L 305.814869 306.51845 
L 307.565079 307.367561 
L 309.223586 308.384214 
L 310.7744 309.558609 
L 312.202572 310.879424 
L 313.494334 312.333927 
L 314.637234 313.908096 
L 315.620253 315.586756 
L 316.433917 317.353725 
L 317.036935 318.852911 
L 317.675149 320.697154 
L 318.128833 322.595237 
L 318.393584 324.528746 
L 318.466834 326.478922 
L 318.347872 328.426843 
L 318.037852 330.353612 
L 317.539782 332.240535 
L 316.858495 334.069304 
L 316.0006 335.822178 
L 315.913908 335.962413 
L 317.739114 336.610287 
L 319.522476 337.451259 
L 321.365355 338.435226 
L 323.564557 339.59693 
L 325.228671 340.582753 
L 326.788731 341.726141 
L 328.22987 343.016196 
L 329.538353 344.440624 
L 330.70171 345.985851 
L 331.708853 347.637148 
L 332.550186 349.378781 
L 333.217689 351.194149 
L 333.705001 353.065953 
L 334.007478 354.976354 
L 334.122237 356.907145 
L 334.048185 358.839925 
L 333.786027 360.756275 
L 333.338262 362.637931 
L 332.709157 364.46696 
L 331.904707 366.225933 
L 330.295261 369.334276 
L 331.149805 370.405178 
L 332.232907 372.085499 
L 333.141166 373.866414 
L 333.865334 375.72979 
L 334.398039 377.656656 
L 334.733857 379.627396 
L 334.794025 380.133589 
L 334.926619 381.988451 
L 334.884728 383.847574 
L 334.668721 385.69458 
L 334.280501 387.5132 
L 333.723488 389.287412 
L 333.00259 391.001588 
L 332.124155 392.640626 
L 331.095924 394.190087 
L 323.105162 405.084811 
L 321.898782 406.573006 
L 320.554314 407.937734 
L 319.108264 409.146232 
L 319.499112 409.524786 
L 320.761369 411.015008 
L 321.870782 412.62226 
L 322.816571 414.330925 
L 323.589548 416.124403 
L 324.182202 417.985267 
L 324.588774 419.895438 
L 324.805315 421.836356 
L 324.829721 423.789164 
L 324.763296 424.55863 
L 325.308323 422.880117 
L 326.085822 421.101005 
L 327.033723 419.406534 
L 328.430938 417.173257 
L 328.981109 416.292773 
L 330.087209 414.701454 
L 331.343483 413.22581 
L 332.737913 411.879958 
L 334.257158 410.676775 
L 335.886681 409.627773 
L 337.610893 408.742988 
L 339.413297 408.030884 
L 341.276649 407.498276 
L 343.183121 407.150258 
L 345.114473 406.990161 
L 347.052227 407.019516 
L 348.977844 407.238042 
L 350.872899 407.643649 
L 352.719263 408.232455 
L 354.49927 408.998829 
L 356.19589 409.935436 
L 360.321561 412.483886 
L 362.196163 413.643084 
L 363.798545 414.746245 
L 365.285016 416.001233 
L 366.641245 417.39595 
L 367.854156 418.916949 
L 368.912056 420.549566 
L 368.945515 420.614352 
L 370.23549 419.614442 
L 371.835041 418.603022 
L 373.523794 417.748827 
L 375.28634 417.05965 
L 377.1066 416.54178 
L 378.967965 416.199942 
L 380.853454 416.037254 
L 382.745863 416.055201 
L 384.627927 416.253618 
L 386.482474 416.630696 
L 388.292585 417.182994 
L 389.389597 417.636108 
L 389.863265 417.363504 
L 391.636712 416.563053 
L 393.48012 415.940413 
L 395.375711 415.501587 
L 397.305204 415.250808 
L 399.249991 415.190494 
L 401.191316 415.321228 
L 403.110457 415.641748 
L 404.988905 416.148964 
L 406.808545 416.837983 
L 408.551826 417.702161 
L 410.059475 418.544169 
L 411.706818 419.573246 
L 413.24548 420.75868 
L 414.660675 422.089078 
L 415.938802 423.551655 
L 417.067576 425.132352 
L 417.127293 425.236155 
L 417.698696 424.46273 
L 418.701984 423.234378 
L 418.860238 423.006203 
L 420.009127 421.507593 
L 421.295465 420.125163 
L 422.707567 418.871471 
L 424.232607 417.757903 
L 425.856731 416.794576 
L 427.565186 415.99024 
L 429.342455 415.3522 
L 431.172392 414.886253 
L 433.038376 414.596631 
L 434.923457 414.485965 
L 436.810512 414.555259 
L 438.682399 414.803886 
L 440.522116 415.229585 
L 442.312951 415.828491 
L 444.038637 416.595163 
L 445.683498 417.522638 
L 447.232594 418.602489 
L 449.026217 419.984321 
L 452.710327 422.517945 
L 454.277219 423.714575 
L 455.717426 425.061008 
L 457.016687 426.54391 
L 458.162136 428.148598 
L 458.547489 428.821029 
L 459.145122 429.249801 
L 460.053636 429.898505 
L 461.58116 431.106826 
L 461.971221 431.483237 
L 462.72282 431.872293 
L 464.356955 432.933715 
L 465.298375 433.61328 
L 466.006764 434.118298 
L 467.53647 435.326615 
L 468.940032 436.679407 
L 470.203863 438.163578 
L 471.315728 439.764761 
L 472.264864 441.467456 
L 472.458803 441.913545 
L 473.297715 442.002515 
L 475.190952 442.392729 
L 477.037152 442.965577 
L 478.818744 443.715607 
L 480.518767 444.635679 
L 481.288458 445.102167 
L 482.519966 445.912689 
L 483.61096 446.690407 
L 483.811302 446.83338 
L 484.236395 446.518019 
L 485.907097 445.516717 
L 487.668043 444.684299 
L 489.502214 444.028811 
L 491.391884 443.556586 
L 493.318791 443.272188 
L 495.264311 443.178368 
L 497.209642 443.27603 
L 499.135983 443.564231 
L 501.024717 444.040186 
L 502.85759 444.699296 
L 504.616889 445.535189 
L 506.285611 446.539788 
L 507.847628 447.703383 
L 509.744565 449.267155 
L 510.998983 450.27178 
L 510.991332 450.281333 
L 512.185551 451.28754 
L 513.532416 452.667471 
L 513.885905 453.108274 
L 514.777857 452.224998 
L 516.285234 450.999957 
L 516.906067 450.589328 
L 516.171025 449.16127 
L 515.451867 447.342892 
L 514.915457 445.462481 
L 514.567019 443.538351 
L 514.409946 441.589246 
L 514.44577 439.63415 
L 514.67414 437.692107 
L 515.092833 435.782034 
L 515.152799 435.597707 
L 514.613665 435.479217 
L 512.767008 434.878735 
L 510.988001 434.100368 
L 509.293733 433.151591 
L 507.700478 432.041518 
L 501.707735 427.413966 
L 500.222562 426.145497 
L 498.869499 424.736962 
L 497.661692 423.202051 
L 496.61088 421.555677 
L 496.561793 421.458914 
L 496.284309 421.737249 
L 494.785796 422.971285 
L 493.173713 424.052753 
L 491.463535 424.971272 
L 489.67168 425.718024 
L 487.815347 426.28584 
L 485.912358 426.669269 
L 483.980981 426.864631 
L 482.039756 426.87005 
L 480.107318 426.685475 
L 478.202218 426.312676 
L 476.342744 425.755234 
L 474.546747 425.018498 
L 472.831467 424.109542 
L 471.213372 423.037092 
L 466.757815 419.75891 
L 465.247788 418.529078 
L 463.865793 417.156943 
L 462.625182 415.655759 
L 461.537943 414.040031 
L 460.614578 412.325369 
L 459.864009 410.52834 
L 459.293489 408.666306 
L 458.908528 406.757256 
L 458.712846 404.819635 
L 458.708334 402.872163 
L 458.895036 400.933656 
L 459.271147 399.022843 
L 459.833034 397.158184 
L 460.575267 395.357697 
L 461.490677 393.638775 
L 462.570419 392.018027 
L 463.163262 391.216511 
L 463.633122 390.078127 
L 464.547452 388.362327 
L 465.625546 386.744402 
L 466.363827 385.746291 
L 467.40012 384.345878 
L 467.618922 384.049679 
L 468.353788 383.054627 
L 471.065427 379.389051 
L 471.101709 379.103294 
L 471.534882 377.206582 
L 472.15199 375.3615 
L 472.947083 373.585837 
L 473.912495 371.896715 
L 475.038916 370.310422 
L 477.172266 367.598704 
L 478.441226 366.138469 
L 479.846546 364.808951 
L 481.374829 363.622824 
L 482.247059 363.073147 
L 482.755741 362.472787 
L 483.8424 361.279399 
L 485.244149 359.886362 
L 486.777699 358.639896 
L 488.427793 357.552402 
L 490.178014 356.634699 
L 492.010951 355.895919 
L 493.908367 355.34341 
L 495.851385 354.982669 
L 497.820675 354.817286 
L 497.893957 354.818458 
L 498.319881 354.565935 
L 500.075032 353.745334 
L 501.901942 353.100087 
L 503.78314 352.636366 
L 505.700636 352.358604 
L 507.636093 352.269458 
L 508.451274 352.311724 
L 509.307618 351.893846 
L 509.912261 351.669075 
L 510.26491 351.95968 
L 512.082948 353.457937 
L 513.964388 355.008303 
L 514.275452 355.264682 
L 515.025571 355.882847 
L 515.823241 356.540242 
L 516.191763 356.843974 
L 518.049031 358.374527 
L 519.845077 359.854754 
L 520.206465 360.152741 
L 521.000173 360.806767 
L 521.764954 361.437018 
L 522.133079 361.740156 
L 523.951513 363.23881 
L 525.798677 364.761238 
L 526.133318 365.036837 
L 526.904042 365.672041 
L 527.67021 366.30348 
L 528.037543 366.606222 
L 529.855779 368.104677 
L 531.696206 369.621361 
L 532.022922 369.890421 
L 532.807714 370.537116 
L 533.569721 371.165187 
L 533.894059 371.432464 
L 535.765593 372.974706 
L 536.14303 373.285968 
L 536.221687 373.350756 
L 536.596945 373.660037 
L 536.915538 373.922559 
L 537.521418 374.421846 
L 537.84437 374.688132 
L 538.204173 374.984534 
L 538.258263 375.029311 
L 538.381499 375.130754 
L 538.628963 375.334431 
L 538.677307 375.374453 
L 539.44823 376.008865 
L 539.802089 376.299719 
L 541.627261 377.801741 
L 543.549515 379.383608 
L 543.868306 379.645932 
L 544.643389 380.28391 
L 546.439131 381.761632 
L 546.257514 381.735394 
L 544.37096 381.270563 
L 542.539008 380.623183 
L 540.779273 379.79948 
L 539.586739 379.091278 
L 539.145608 380.372456 
L 538.334381 382.141832 
L 537.35345 383.823069 
L 536.212283 385.39994 
L 534.737885 387.23973 
L 533.641392 388.478353 
L 535.140455 387.537348 
L 536.894367 386.664778 
L 538.725875 385.969676 
L 540.617074 385.458838 
L 542.549475 385.137257 
L 544.504188 385.008078 
L 546.462102 385.072563 
L 548.404079 385.330081 
L 550.311132 385.778116 
L 552.038554 386.369154 
L 552.844573 387.032406 
L 553.712183 387.753401 
L 554.649589 388.532275 
L 555.369935 389.130798 
L 556.282124 389.888843 
L 557.586808 390.961517 
L 561.823218 394.444836 
L 562.684884 395.153348 
L 566.081818 397.946581 
L 566.961514 398.669952 
L 571.263703 402.207162 
L 572.503797 403.226738 
L 573.417373 403.968932 
L 575.111184 405.344348 
L 575.917969 405.999563 
L 584.65014 413.198409 
L 586.038831 414.343599 
L 603.903991 429.071572 
L 606.423012 431.148368 
L 610.46587 436.603948 
L 610.255714 437.017402 
L 609.198755 438.669061 
L 607.983706 440.208152 
L 599.634159 449.77062 
L 600.243701 450.482012 
L 601.372874 452.101953 
L 610.203318 466.221607 
L 607.850338 468.574082 
M 557.58448 453.404546 
L 555.163807 456.656904 
L 553.918348 458.168174 
L 552.52978 459.549108 
L 551.011668 460.786217 
L 550.300563 461.257085 
L 550.718723 462.033494 
L 551.467951 463.825798 
L 552.03806 465.682859 
L 552.282867 466.891921 
L 561.680531 457.436094 
L 561.760207 457.35638 
L 566.448598 452.692338 
L 560.401111 448.051905 
L 560.303845 448.364744 
L 559.561481 450.129831 
L 558.652195 451.815012 
L 557.58448 453.404546 
M 264.962747 416.428932 
L 266.427792 414.304875 
L 267.33143 413.120276 
L 268.18396 411.808577 
L 272.131931 406.328302 
L 273.038535 405.192121 
L 271.941456 404.19692 
L 271.802009 404.05717 
L 270.510222 402.630209 
L 269.362995 401.084633 
L 269.286794 400.970809 
L 263.415646 409.256084 
L 263.312353 409.400473 
L 261.267027 412.232665 
L 260.059061 413.743999 
L 258.709447 415.130309 
L 257.231054 416.378374 
L 256.77231 416.694533 
L 260.799656 419.286951 
L 262.364111 420.404967 
L 262.741932 420.734722 
L 263.065687 419.863642 
L 263.928981 418.099209 
L 264.962747 416.428932 
M 240.198508 349.322075 
L 240.483585 351.205055 
L 240.628312 352.616557 
L 241.043321 356.653194 
L 241.194273 358.124236 
L 241.456576 360.682765 
L 241.573761 361.823378 
L 241.59704 361.804581 
L 243.180383 360.759331 
L 244.856443 359.870316 
L 246.60985 359.145688 
L 248.424528 358.592092 
L 250.283836 358.214604 
L 252.170726 358.016685 
L 254.067895 358.00015 
L 255.957947 358.16515 
L 257.823553 358.510174 
L 259.647604 359.032056 
L 261.413375 359.726012 
L 263.104676 360.585678 
L 264.705997 361.603172 
L 270.130206 365.426206 
L 271.658103 366.61909 
L 273.06212 367.955569 
L 274.32882 369.42285 
L 274.909679 370.246387 
L 276.006989 368.787959 
L 277.350371 367.331617 
L 278.832489 366.016728 
L 280.301682 364.955302 
L 280.642984 364.494227 
L 279.090817 364.106861 
L 277.290808 363.46809 
L 275.56067 362.658967 
L 273.91648 361.68701 
L 272.373519 360.561252 
L 270.946125 359.292155 
L 269.647564 357.891513 
L 268.489902 356.372342 
L 267.4839 354.74876 
L 265.855694 351.813864 
L 264.987073 350.046384 
L 264.29821 348.201403 
L 263.795913 346.297148 
L 263.485145 344.352434 
L 263.438135 343.556872 
L 259.388301 344.416087 
L 259.262866 344.442276 
L 257.430291 344.818707 
L 257.388134 344.825227 
L 257.3468 344.83567 
L 243.816475 347.554365 
L 241.877384 347.845033 
L 239.919058 347.942614 
L 239.850692 347.939246 
L 240.198508 349.322075 
M 212.651953 331.501976 
L 213.992396 332.008765 
L 215.37904 332.533148 
L 217.647997 333.390782 
L 219.222154 333.365409 
L 220.828752 333.407596 
L 220.438621 331.774772 
L 220.106485 330.00027 
L 218.410401 322.221664 
L 217.851705 323.440473 
L 216.884604 325.102778 
L 213.483513 330.345617 
L 212.651953 331.501976 
M 530.42661 391.223855 
L 529.797873 391.611148 
L 529.251387 392.268812 
L 529.413192 392.39459 
L 530.42661 391.223855 
" clip-path="url(#p6a2fd156ac)" style="fill: #ff0000; fill-opacity: 0.7; stroke: #000000; stroke-opacity: 0.7; stroke-width: 0.5"/>
    <path d="M 516.726515 308.271283 
L 509.244542 318.348557 
L 507.133073 321.192511 
L 500.445204 330.200876 
L 500.075891 330.697983 
L 498.935852 332.224177 
L 497.62562 333.977625 
L 497.116031 334.660182 
L 496.382554 335.641716 
L 495.94449 336.228378 
L 493.373954 339.668901 
L 495.935376 341.274941 
L 498.764866 343.049192 
L 501.639927 344.851777 
L 501.875305 345.045944 
L 503.947685 346.753718 
L 503.613585 346.834271 
L 503.164022 346.921514 
L 501.441889 347.17779 
L 500.986469 347.225222 
L 499.265755 347.329037 
L 498.807165 347.336716 
L 497.091466 347.291096 
L 496.63508 347.259138 
L 494.833122 347.049705 
L 494.380333 346.975936 
L 492.667629 346.618634 
L 492.223764 346.505375 
L 490.608714 346.019176 
L 490.176413 345.868688 
L 488.475578 345.18689 
L 488.05892 344.997057 
L 486.540246 344.224632 
L 486.141822 343.99992 
L 484.650426 343.069231 
L 484.272923 342.809698 
L 482.858816 341.741304 
L 482.506218 341.449242 
L 481.194109 340.259611 
L 480.869056 339.937281 
L 479.730531 338.708573 
L 479.43427 338.360412 
L 479.208821 338.069568 
L 477.814932 337.513752 
L 477.482118 337.363216 
L 475.829 336.520109 
L 475.511637 336.339043 
L 474.088693 335.445161 
L 473.788029 335.238002 
L 472.727619 334.441452 
L 472.939235 335.463171 
L 473.144911 337.380243 
L 473.163277 339.308229 
L 472.994158 341.228871 
L 472.639157 343.12398 
L 472.151382 344.804247 
L 472.294512 346.206502 
L 472.301451 348.150346 
L 472.117875 350.085515 
L 471.745551 351.993381 
L 471.188063 353.85558 
L 470.450777 355.654187 
L 469.54079 357.37189 
L 467.183817 361.33753 
L 466.109506 362.958313 
L 464.881492 364.465982 
L 463.511604 365.846014 
L 463.186186 366.115089 
L 463.211819 367.976941 
L 463.050922 369.897878 
L 462.704114 371.794087 
L 462.174678 373.647619 
L 461.467626 375.440929 
L 460.58965 377.157041 
L 460.398213 377.49019 
L 460.321153 377.623098 
L 459.206841 379.527937 
L 459.079642 379.74227 
L 457.998972 381.5374 
L 456.278606 384.561322 
L 456.093336 384.88004 
L 454.117162 388.20797 
L 453.045579 389.826337 
L 451.820785 391.332087 
L 450.454534 392.710767 
L 448.959939 393.949148 
L 447.351344 395.035345 
L 445.644186 395.958932 
L 443.854849 396.711045 
L 442.000506 397.284468 
L 440.098953 397.673696 
L 438.16844 397.874995 
L 436.227494 397.886431 
L 434.294743 397.707896 
L 432.388735 397.341103 
L 430.527764 396.789572 
L 428.729688 396.058596 
L 427.011765 395.15519 
L 425.712274 394.38832 
L 420.946253 391.572191 
L 420.151764 391.103322 
L 416.49965 388.944247 
L 415.640028 388.436657 
L 414.42548 387.722547 
L 414.339551 387.671733 
L 413.44711 387.140941 
L 410.964746 385.673717 
L 409.696002 384.931567 
L 408.067796 383.868611 
L 406.551625 382.651172 
L 405.162092 381.290978 
L 404.007305 379.914073 
L 402.678271 379.663393 
L 400.80283 379.113717 
L 399.75598 378.690989 
L 398.713089 379.57552 
L 397.088782 380.695828 
L 395.361097 381.649014 
L 393.547169 382.425626 
L 391.664989 383.017961 
L 389.733225 383.420143 
L 387.771038 383.628184 
L 385.797887 383.640021 
L 383.833345 383.455535 
L 381.896896 383.076557 
L 380.007745 382.506845 
L 378.184631 381.75205 
L 376.445634 380.819659 
L 361.141855 371.604961 
L 359.527624 370.521674 
L 358.027327 369.285405 
L 356.655406 367.908057 
L 355.425071 366.40289 
L 354.348167 364.784395 
L 353.43506 363.068152 
L 352.694542 361.270686 
L 352.133741 359.4093 
L 351.758058 357.501916 
L 351.571108 355.566896 
L 351.574692 353.62287 
L 351.768775 351.688552 
L 352.151489 349.782566 
L 352.719149 347.923261 
L 353.46629 346.128538 
L 354.385719 344.415674 
L 355.709611 342.215652 
L 355.86119 341.967889 
L 358.193602 338.217494 
L 358.664445 336.456096 
L 359.372956 334.586128 
L 360.266351 332.797102 
L 363.108136 327.759712 
L 364.164605 326.087881 
L 365.382479 324.529699 
L 366.749625 323.100692 
L 368.252421 321.815098 
L 369.875895 320.685725 
L 371.60387 319.723826 
L 373.419131 318.938984 
L 375.303591 318.33902 
L 377.238475 317.92991 
L 379.204506 317.715731 
L 380.704445 317.70275 
L 381.025074 317.35914 
L 382.515949 316.051902 
L 384.13002 314.900226 
L 385.851119 313.915645 
L 387.66201 313.108022 
L 389.544555 312.485445 
L 391.479901 312.054148 
L 393.448665 311.818453 
L 395.431127 311.780718 
L 397.407433 311.941323 
L 399.35779 312.298658 
L 401.262664 312.849145 
L 403.102977 313.58727 
L 404.860298 314.505642 
L 419.401345 323.057186 
L 420.61601 321.809586 
L 422.111566 320.549799 
L 423.72402 319.443572 
L 425.437668 318.50168 
L 427.235816 317.733298 
L 429.10095 317.14591 
L 431.014902 316.745238 
L 432.959028 316.535185 
L 434.002965 316.525901 
L 434.2845 316.335337 
L 435.761289 315.535418 
L 434.87826 315.008483 
L 433.238776 313.916085 
L 431.715884 312.666267 
L 430.324642 311.271387 
L 429.078805 309.745238 
L 427.99069 308.102907 
L 427.071056 306.360633 
L 426.328996 304.535643 
L 425.771847 302.645979 
L 425.405117 300.710326 
L 425.232431 298.747822 
L 425.255499 296.77787 
L 425.282537 296.535687 
L 422.19871 294.726352 
L 420.580681 293.667629 
L 419.07356 292.456227 
L 417.6917 291.103683 
L 416.448264 289.622879 
L 415.355096 288.02792 
L 414.422606 286.333998 
L 413.659676 284.557245 
L 413.278343 283.358363 
L 413.173212 283.250258 
L 411.975631 281.752979 
L 410.92838 280.146957 
L 410.041265 278.447231 
L 409.322593 276.669717 
L 408.779095 274.831062 
L 408.415859 272.948484 
L 408.324549 271.977839 
L 407.010864 270.61408 
L 405.816799 269.105527 
L 404.774678 267.488274 
L 404.680185 267.304653 
L 404.444327 267.170019 
L 402.803002 266.122963 
L 401.272361 264.919878 
L 399.867185 263.572378 
L 398.601041 262.093475 
L 397.486154 260.497448 
L 396.533289 258.799707 
L 396.148218 257.921294 
L 395.312319 259.177799 
L 394.111625 260.653287 
L 392.774963 262.006825 
L 391.314655 263.225935 
L 389.744163 264.299381 
L 388.077964 265.217265 
L 386.331418 265.971126 
L 384.520626 266.554016 
L 382.662279 266.960561 
L 380.77351 267.187013 
L 379.379752 267.219458 
L 379.439455 267.066046 
L 381.097999 262.805662 
L 381.332585 262.185516 
L 382.325413 259.562081 
L 383.31408 256.948948 
L 383.691319 255.952355 
L 383.867853 255.486156 
L 384.872172 252.831812 
L 385.901654 250.111095 
L 386.08116 249.636376 
L 386.172894 249.394261 
L 386.979678 247.261989 
L 387.149277 246.814018 
L 387.580606 245.673781 
L 388.580963 243.030731 
L 388.73808 242.615055 
L 389.311467 241.099758 
L 390.306078 238.471369 
L 390.481027 238.008538 
L 391.050848 236.503347 
L 393.261778 230.660303 
L 393.3759 230.358948 
L 394.899716 226.288571 
L 397.169094 220.365086 
L 397.318321 219.975599 
L 398.274223 220.855668 
L 399.539805 222.267128 
L 400.664695 223.793083 
L 401.638596 225.419562 
L 402.45259 227.131675 
L 403.099225 228.913746 
L 403.572583 230.749461 
L 403.638577 231.167316 
L 404.283531 230.619657 
L 405.894092 229.505669 
L 407.606756 228.556113 
L 409.404793 227.780265 
L 411.270637 227.185705 
L 413.186061 226.778242 
L 415.132354 226.561854 
L 417.0905 226.538658 
L 419.041372 226.708878 
L 420.965911 227.070852 
L 422.845316 227.621045 
L 424.661228 228.35408 
L 426.395906 229.262798 
L 426.532995 229.343487 
L 426.660273 229.343674 
L 428.606765 229.539468 
L 430.524459 229.926268 
L 432.394659 230.500303 
L 434.199132 231.255976 
L 435.920285 232.18592 
L 437.720657 233.276792 
L 438.337315 233.650591 
L 439.247738 233.794974 
L 441.077224 234.267347 
L 442.853394 234.911844 
L 444.560094 235.722605 
L 446.181802 236.692255 
L 446.354738 236.807192 
L 447.873546 237.71121 
L 450.318526 239.122125 
L 451.965218 240.18425 
L 453.498939 241.403841 
L 454.90469 242.768968 
L 456.168718 244.266277 
L 457.278661 245.881125 
L 458.223661 247.597714 
L 458.994475 249.399255 
L 459.583564 251.268126 
L 459.985166 253.186047 
L 460.195351 255.134258 
L 460.199465 255.616454 
L 460.967498 255.613924 
L 462.901574 255.79783 
L 464.808341 256.170274 
L 466.669463 256.727673 
L 468.467047 257.46467 
L 470.183809 258.374177 
L 472.350079 259.661644 
L 472.801711 259.928568 
L 474.555367 261.095048 
L 476.175288 262.441093 
L 477.643171 263.951492 
L 478.942426 265.609176 
L 480.058374 267.395414 
L 480.978402 269.29002 
L 481.365728 270.208981 
L 481.858476 271.550443 
L 482.467592 270.78302 
L 483.842428 269.366771 
L 485.351356 268.094345 
L 486.979401 266.978368 
L 488.710405 266.029918 
L 490.527188 265.258406 
L 495.484104 263.439158 
L 497.399687 262.844272 
L 499.365601 262.446115 
L 499.434802 262.439274 
L 499.377693 261.837405 
L 499.384157 259.897793 
L 499.580245 257.968108 
L 499.964075 256.066843 
L 500.531971 254.21222 
L 501.085886 252.883888 
L 497.500945 250.748309 
L 495.879149 249.670828 
L 494.370945 248.439363 
L 492.990898 247.065806 
L 491.752337 245.563424 
L 491.217845 244.76709 
L 490.065723 245.406047 
L 488.258839 246.184963 
L 486.383607 246.780817 
L 484.458521 247.187734 
L 482.502566 247.4017 
L 480.535035 247.420605 
L 478.57533 247.244262 
L 476.64278 246.874412 
L 474.756445 246.314701 
L 472.934928 245.570649 
L 471.196193 244.649595 
L 460.352963 238.196618 
L 458.750366 237.134325 
L 457.67954 236.264057 
L 457.46671 236.175911 
L 455.75993 235.264782 
L 447.42021 230.274905 
L 445.743314 229.151783 
L 444.189377 227.863891 
L 442.774525 226.424594 
L 441.513438 224.848826 
L 440.419202 223.152939 
L 439.910004 222.153249 
L 439.135383 221.575755 
L 437.829546 220.409432 
L 437.300425 219.89304 
L 436.006454 218.503026 
L 434.851507 216.995512 
L 433.846196 215.384348 
L 432.999755 213.684337 
L 432.319962 211.911097 
L 431.813062 210.080919 
L 431.483712 208.210617 
L 431.334938 206.317375 
L 431.368106 204.418586 
L 431.582912 202.531695 
L 431.977383 200.674037 
L 432.547894 198.86268 
L 433.289204 197.114263 
L 434.15799 195.512183 
L 434.854844 193.993503 
L 434.914107 193.879075 
L 435.461834 192.466113 
L 436.412637 190.616483 
L 436.908349 189.76524 
L 437.939198 188.175137 
L 439.117243 186.690791 
L 440.431707 185.325779 
L 441.870567 184.092589 
L 441.978268 184.01685 
L 441.20884 182.925688 
L 440.24826 181.231708 
L 439.458616 179.451611 
L 438.847537 177.602594 
L 438.420927 175.702519 
L 438.182906 173.769741 
L 438.135775 171.822933 
L 438.279987 169.880902 
L 438.298544 169.774367 
L 444.792347 173.434098 
L 457.795403 180.775993 
L 458.778919 181.458352 
L 463.952681 185.043509 
L 470.626086 188.43549 
L 477.96782 193.956791 
L 482.577469 197.423447 
L 495.262923 205.317926 
L 495.934781 205.724885 
L 501.669646 209.182248 
L 504.556198 210.948773 
L 510.076687 216.523747 
L 510.070941 217.238797 
L 514.922543 222.038292 
L 525.560129 229.273593 
L 526.995578 230.251958 
L 531.358593 232.930275 
L 532.33775 233.533382 
L 538.186936 237.125474 
L 538.884749 237.554029 
L 541.884037 239.398815 
L 542.448112 239.748316 
L 542.955126 240.058983 
L 543.077966 240.134668 
L 543.519201 240.406701 
L 544.802882 241.196435 
L 543.682253 242.539727 
L 542.298334 243.901888 
L 540.78772 245.122034 
L 540.622429 245.230654 
L 541.401033 245.958052 
L 542.679436 247.410707 
L 543.810034 248.981143 
L 544.782042 250.654379 
L 545.58619 252.414455 
L 546.214805 254.244582 
L 546.661893 256.127301 
L 546.923187 258.044655 
L 546.996197 259.978354 
L 546.880224 261.909952 
L 546.576377 263.821024 
L 546.087552 265.693341 
L 545.418413 267.509042 
L 544.575342 269.25081 
L 543.270652 271.641047 
L 542.23557 273.330569 
L 541.036915 274.90826 
L 539.686675 276.358341 
L 538.198354 277.66631 
L 536.586836 278.819087 
L 534.868237 279.805141 
L 533.059747 280.614612 
L 532.640838 280.777491 
L 530.839526 281.380182 
L 528.988778 281.80761 
L 527.105605 282.055847 
L 526.118716 282.090557 
L 525.78615 282.165166 
L 525.716931 282.180565 
L 525.371145 282.256841 
L 523.394135 282.589086 
L 522.721271 282.633068 
L 522.765199 284.332345 
L 522.737249 285.495811 
L 522.62893 287.142624 
L 522.383931 288.774708 
L 522.003952 290.380741 
L 521.505711 292.153511 
L 520.603642 294.688067 
L 520.28385 295.424101 
L 519.46871 297.08372 
L 518.502408 298.660124 
L 517.393361 300.139584 
L 516.151226 301.509216 
L 515.939227 301.703108 
L 516.087568 301.883191 
L 517.168973 303.494597 
L 518.087546 305.204067 
L 518.417047 305.994209 
L 516.726515 308.271283 
" clip-path="url(#p6a2fd156ac)" style="fill: #ff0000; fill-opacity: 0.7; stroke: #000000; stroke-opacity: 0.7; stroke-width: 0.5"/>
    <path d="M 297.417909 249.739799 
L 297.768401 249.837279 
L 299.125193 250.192328 
L 301.276486 250.755214 
L 302.741061 251.138793 
L 303.159114 251.254699 
L 303.760681 251.421615 
L 305.607814 251.934134 
L 306.81441 252.268925 
L 309.510955 253.017063 
L 312.784455 253.92529 
L 312.965941 253.975813 
L 313.400242 254.096276 
L 316.005846 254.819251 
L 318.501092 255.511715 
L 318.974027 255.642877 
L 319.093698 255.676162 
L 319.273005 255.725893 
L 319.693238 255.842393 
L 322.270906 256.557641 
L 324.941496 257.298647 
L 325.336765 257.408411 
L 325.513893 257.457547 
L 325.717769 257.514014 
L 326.221613 257.653893 
L 329.931394 258.683177 
L 330.947205 258.965116 
L 331.404884 259.092117 
L 333.466622 259.664117 
L 341.406671 261.86732 
L 348.903231 263.961006 
L 348.890403 264.073477 
L 348.489205 265.951078 
L 346.669212 272.820751 
L 346.132399 274.530523 
L 345.956981 274.951631 
L 346.693325 274.594901 
L 348.527782 273.920182 
L 350.419795 273.4295 
L 352.350949 273.12763 
L 354.30245 273.017512 
L 356.255304 273.100216 
L 358.190507 273.374938 
L 360.089223 273.839003 
L 361.932974 274.487896 
L 363.703816 275.315301 
L 364.912142 275.954297 
L 365.93081 276.342227 
L 368.172388 277.195618 
L 368.307545 277.24764 
L 369.117997 277.562989 
L 370.904846 278.362002 
L 372.604135 279.333427 
L 374.19928 280.467782 
L 375.674714 281.753996 
L 377.016034 283.179516 
L 378.210152 284.73043 
L 379.245412 286.3916 
L 380.111711 288.146815 
L 380.800593 289.978942 
L 381.305335 291.870102 
L 381.621012 293.801837 
L 381.744541 295.755293 
L 381.674718 297.711405 
L 381.412224 299.651082 
L 380.95962 301.555393 
L 380.321325 303.405752 
L 379.683887 304.994345 
L 379.310132 305.981115 
L 378.532322 307.764858 
L 377.583284 309.463696 
L 376.472171 311.061242 
L 375.209702 312.542086 
L 373.808056 313.891942 
L 372.280752 315.09779 
L 370.642523 316.147996 
L 368.924189 317.02477 
L 368.406791 317.532433 
L 366.882322 318.758007 
L 365.244436 319.82729 
L 363.509096 320.72986 
L 361.693216 321.456919 
L 359.814493 322.001382 
L 357.89124 322.357942 
L 355.942202 322.523124 
L 353.986373 322.495317 
L 352.042818 322.274793 
L 350.130479 321.863701 
L 348.267995 321.266048 
L 346.473518 320.487659 
L 344.764539 319.53612 
L 340.281822 316.741756 
L 338.664472 315.618233 
L 337.166645 314.339702 
L 335.803139 312.918796 
L 334.587423 311.369551 
L 333.531508 309.707273 
L 332.645825 307.948384 
L 331.939125 306.11026 
L 331.418389 304.21106 
L 331.088762 302.269548 
L 330.953499 300.304903 
L 331.013938 298.336535 
L 331.26948 296.38389 
L 331.717603 294.466258 
L 332.04511 293.506977 
L 331.310135 294.02527 
L 329.658947 294.966791 
L 327.925137 295.745755 
L 326.124661 296.354992 
L 324.27409 296.788896 
L 322.390457 297.043472 
L 320.491097 297.116379 
L 318.593492 297.006945 
L 314.695213 296.593782 
L 310.543375 296.157404 
L 306.106989 295.689046 
L 304.224773 295.398289 
L 302.379169 294.928154 
L 300.587233 294.282986 
L 298.865521 293.468747 
L 297.229942 292.492959 
L 295.695611 291.364639 
L 294.276703 290.094214 
L 292.986331 288.693422 
L 291.836417 287.175207 
L 290.837588 285.553598 
L 289.999071 283.843578 
L 289.328616 282.060948 
L 288.832418 280.22218 
L 288.704265 279.463852 
L 288.454832 279.021386 
L 287.674193 277.253064 
L 287.069583 275.417088 
L 286.646755 273.530933 
L 286.409736 271.612553 
L 286.36078 269.680206 
L 286.500354 267.752285 
L 286.957813 263.992276 
L 287.281271 262.102086 
L 287.785948 260.252019 
L 288.467116 258.459407 
L 289.318395 256.741045 
L 290.331808 255.113028 
L 291.497864 253.590609 
L 292.805638 252.188049 
L 294.242878 250.918488 
L 295.796122 249.793818 
L 295.880884 249.744169 
L 296.223152 249.407587 
L 297.417909 249.739799 
" clip-path="url(#p6a2fd156ac)" style="fill: #ff0000; fill-opacity: 0.7; stroke: #000000; stroke-opacity: 0.7; stroke-width: 0.5"/>
    <path d="M 126.621566 232.051966 
L 127.04695 231.930711 
L 133.627036 230.053432 
L 135.717899 229.456863 
L 136.159531 229.330654 
L 137.145028 229.049508 
L 139.751226 228.306126 
L 140.163732 228.188238 
L 140.376524 228.127809 
L 140.567124 228.073323 
L 140.930494 227.969503 
L 143.575724 227.215025 
L 143.718576 227.174012 
L 144.324457 227.001243 
L 152.556747 224.652415 
L 153.09348 224.499459 
L 157.145233 223.343372 
L 158.277148 223.020619 
L 161.178758 222.192635 
L 168.837264 220.007462 
L 169.633548 219.780207 
L 170.200793 219.618335 
L 170.946554 219.405544 
L 171.610883 219.216132 
L 173.038407 219.452104 
L 174.737766 219.732854 
L 175.920798 219.928606 
L 178.510354 220.356567 
L 179.045502 220.445131 
L 180.917432 220.754411 
L 193.813498 222.886089 
L 195.211303 223.117108 
L 195.705439 223.198936 
L 196.884848 223.393756 
L 196.154404 223.938195 
L 194.486784 224.942854 
L 192.728614 225.778997 
L 190.89687 226.438549 
L 189.610672 226.83144 
L 189.546709 227.993374 
L 190.530342 228.909632 
L 191.829181 230.385856 
L 192.975301 231.983549 
L 193.957415 233.686978 
L 194.76585 235.479365 
L 195.392644 237.343056 
L 195.831624 239.259697 
L 196.078465 241.210412 
L 196.130738 243.175986 
L 195.987927 245.137063 
L 195.651439 247.074327 
L 195.124587 248.968699 
L 194.412562 250.801521 
L 193.522374 252.554742 
L 192.462792 254.211094 
L 189.892525 257.820923 
L 188.70527 259.490237 
L 187.491001 261.03009 
L 186.130457 262.442365 
L 184.636966 263.713224 
L 183.025159 264.83022 
L 181.310827 265.782408 
L 180.212638 266.257085 
L 179.077615 267.997903 
L 177.939685 269.56926 
L 176.653526 271.021789 
L 175.23147 272.341562 
L 173.687152 273.515926 
L 172.035381 274.533618 
L 170.291995 275.384882 
L 168.473709 276.061554 
L 166.59796 276.557147 
L 164.682733 276.866908 
L 162.746393 276.987866 
L 160.807505 276.918863 
L 158.884662 276.66056 
L 156.996301 276.215433 
L 155.160528 275.587752 
L 153.394947 274.783533 
L 151.716485 273.810489 
L 150.841752 273.24442 
L 150.823533 273.232616 
L 148.948223 272.016123 
L 147.364146 270.873817 
L 145.900225 269.581106 
L 144.570686 268.15055 
L 143.388447 266.596049 
L 142.364993 264.932707 
L 141.51027 263.176685 
L 140.832583 261.345045 
L 140.338515 259.455584 
L 140.032867 257.526661 
L 139.91861 255.577018 
L 139.996853 253.625597 
L 140.266836 251.69136 
L 140.725935 249.7931 
L 141.369691 247.94926 
L 142.191848 246.177757 
L 142.274156 246.038282 
L 142.299589 245.266622 
L 140.972464 240.58514 
L 140.536027 238.698685 
L 140.285813 236.778638 
L 140.224213 234.843337 
L 140.236584 234.656021 
L 138.286583 234.749512 
L 134.179326 234.718296 
L 133.089667 234.654522 
L 131.424985 234.855642 
L 129.433226 234.894773 
L 127.447607 234.733692 
L 125.4882 234.374029 
L 123.574815 233.819421 
L 122.648383 233.446472 
L 126.621566 232.051966 
" clip-path="url(#p6a2fd156ac)" style="fill: #ff0000; fill-opacity: 0.7; stroke: #000000; stroke-opacity: 0.7; stroke-width: 0.5"/>
   </g>
   <g id="matplotlib.axis_1">
    <g id="xtick_1">
     <g id="line2d_1">
      <defs>
       <path id="m3c1bb1d95e" d="M 0 0 
L 0 3.5 
" style="stroke: #000000; stroke-width: 0.8"/>
      </defs>
      <g>
       <use xlink:href="#m3c1bb1d95e" x="160.036342" y="588.406804" style="stroke: #000000; stroke-width: 0.8"/>
      </g>
     </g>
     <g id="text_1">
      <!-- 392000 -->
      <g transform="translate(140.948842 603.005242) scale(0.1 -0.1)">
       <defs>
        <path id="DejaVuSans-33" d="M 2597 2516 
Q 3050 2419 3304 2112 
Q 3559 1806 3559 1356 
Q 3559 666 3084 287 
Q 2609 -91 1734 -91 
Q 1441 -91 1130 -33 
Q 819 25 488 141 
L 488 750 
Q 750 597 1062 519 
Q 1375 441 1716 441 
Q 2309 441 2620 675 
Q 2931 909 2931 1356 
Q 2931 1769 2642 2001 
Q 2353 2234 1838 2234 
L 1294 2234 
L 1294 2753 
L 1863 2753 
Q 2328 2753 2575 2939 
Q 2822 3125 2822 3475 
Q 2822 3834 2567 4026 
Q 2313 4219 1838 4219 
Q 1578 4219 1281 4162 
Q 984 4106 628 3988 
L 628 4550 
Q 988 4650 1302 4700 
Q 1616 4750 1894 4750 
Q 2613 4750 3031 4423 
Q 3450 4097 3450 3541 
Q 3450 3153 3228 2886 
Q 3006 2619 2597 2516 
z
" transform="scale(0.015625)"/>
        <path id="DejaVuSans-39" d="M 703 97 
L 703 672 
Q 941 559 1184 500 
Q 1428 441 1663 441 
Q 2288 441 2617 861 
Q 2947 1281 2994 2138 
Q 2813 1869 2534 1725 
Q 2256 1581 1919 1581 
Q 1219 1581 811 2004 
Q 403 2428 403 3163 
Q 403 3881 828 4315 
Q 1253 4750 1959 4750 
Q 2769 4750 3195 4129 
Q 3622 3509 3622 2328 
Q 3622 1225 3098 567 
Q 2575 -91 1691 -91 
Q 1453 -91 1209 -44 
Q 966 3 703 97 
z
M 1959 2075 
Q 2384 2075 2632 2365 
Q 2881 2656 2881 3163 
Q 2881 3666 2632 3958 
Q 2384 4250 1959 4250 
Q 1534 4250 1286 3958 
Q 1038 3666 1038 3163 
Q 1038 2656 1286 2365 
Q 1534 2075 1959 2075 
z
" transform="scale(0.015625)"/>
        <path id="DejaVuSans-32" d="M 1228 531 
L 3431 531 
L 3431 0 
L 469 0 
L 469 531 
Q 828 903 1448 1529 
Q 2069 2156 2228 2338 
Q 2531 2678 2651 2914 
Q 2772 3150 2772 3378 
Q 2772 3750 2511 3984 
Q 2250 4219 1831 4219 
Q 1534 4219 1204 4116 
Q 875 4013 500 3803 
L 500 4441 
Q 881 4594 1212 4672 
Q 1544 4750 1819 4750 
Q 2544 4750 2975 4387 
Q 3406 4025 3406 3419 
Q 3406 3131 3298 2873 
Q 3191 2616 2906 2266 
Q 2828 2175 2409 1742 
Q 1991 1309 1228 531 
z
" transform="scale(0.015625)"/>
        <path id="DejaVuSans-30" d="M 2034 4250 
Q 1547 4250 1301 3770 
Q 1056 3291 1056 2328 
Q 1056 1369 1301 889 
Q 1547 409 2034 409 
Q 2525 409 2770 889 
Q 3016 1369 3016 2328 
Q 3016 3291 2770 3770 
Q 2525 4250 2034 4250 
z
M 2034 4750 
Q 2819 4750 3233 4129 
Q 3647 3509 3647 2328 
Q 3647 1150 3233 529 
Q 2819 -91 2034 -91 
Q 1250 -91 836 529 
Q 422 1150 422 2328 
Q 422 3509 836 4129 
Q 1250 4750 2034 4750 
z
" transform="scale(0.015625)"/>
       </defs>
       <use xlink:href="#DejaVuSans-33"/>
       <use xlink:href="#DejaVuSans-39" x="63.623047"/>
       <use xlink:href="#DejaVuSans-32" x="127.246094"/>
       <use xlink:href="#DejaVuSans-30" x="190.869141"/>
       <use xlink:href="#DejaVuSans-30" x="254.492188"/>
       <use xlink:href="#DejaVuSans-30" x="318.115234"/>
      </g>
     </g>
    </g>
    <g id="xtick_2">
     <g id="line2d_2">
      <g>
       <use xlink:href="#m3c1bb1d95e" x="259.101205" y="588.406804" style="stroke: #000000; stroke-width: 0.8"/>
      </g>
     </g>
     <g id="text_2">
      <!-- 392500 -->
      <g transform="translate(240.013705 603.005242) scale(0.1 -0.1)">
       <defs>
        <path id="DejaVuSans-35" d="M 691 4666 
L 3169 4666 
L 3169 4134 
L 1269 4134 
L 1269 2991 
Q 1406 3038 1543 3061 
Q 1681 3084 1819 3084 
Q 2600 3084 3056 2656 
Q 3513 2228 3513 1497 
Q 3513 744 3044 326 
Q 2575 -91 1722 -91 
Q 1428 -91 1123 -41 
Q 819 9 494 109 
L 494 744 
Q 775 591 1075 516 
Q 1375 441 1709 441 
Q 2250 441 2565 725 
Q 2881 1009 2881 1497 
Q 2881 1984 2565 2268 
Q 2250 2553 1709 2553 
Q 1456 2553 1204 2497 
Q 953 2441 691 2322 
L 691 4666 
z
" transform="scale(0.015625)"/>
       </defs>
       <use xlink:href="#DejaVuSans-33"/>
       <use xlink:href="#DejaVuSans-39" x="63.623047"/>
       <use xlink:href="#DejaVuSans-32" x="127.246094"/>
       <use xlink:href="#DejaVuSans-35" x="190.869141"/>
       <use xlink:href="#DejaVuSans-30" x="254.492188"/>
       <use xlink:href="#DejaVuSans-30" x="318.115234"/>
      </g>
     </g>
    </g>
    <g id="xtick_3">
     <g id="line2d_3">
      <g>
       <use xlink:href="#m3c1bb1d95e" x="358.166068" y="588.406804" style="stroke: #000000; stroke-width: 0.8"/>
      </g>
     </g>
     <g id="text_3">
      <!-- 393000 -->
      <g transform="translate(339.078568 603.005242) scale(0.1 -0.1)">
       <use xlink:href="#DejaVuSans-33"/>
       <use xlink:href="#DejaVuSans-39" x="63.623047"/>
       <use xlink:href="#DejaVuSans-33" x="127.246094"/>
       <use xlink:href="#DejaVuSans-30" x="190.869141"/>
       <use xlink:href="#DejaVuSans-30" x="254.492188"/>
       <use xlink:href="#DejaVuSans-30" x="318.115234"/>
      </g>
     </g>
    </g>
    <g id="xtick_4">
     <g id="line2d_4">
      <g>
       <use xlink:href="#m3c1bb1d95e" x="457.230932" y="588.406804" style="stroke: #000000; stroke-width: 0.8"/>
      </g>
     </g>
     <g id="text_4">
      <!-- 393500 -->
      <g transform="translate(438.143432 603.005242) scale(0.1 -0.1)">
       <use xlink:href="#DejaVuSans-33"/>
       <use xlink:href="#DejaVuSans-39" x="63.623047"/>
       <use xlink:href="#DejaVuSans-33" x="127.246094"/>
       <use xlink:href="#DejaVuSans-35" x="190.869141"/>
       <use xlink:href="#DejaVuSans-30" x="254.492188"/>
       <use xlink:href="#DejaVuSans-30" x="318.115234"/>
      </g>
     </g>
    </g>
    <g id="xtick_5">
     <g id="line2d_5">
      <g>
       <use xlink:href="#m3c1bb1d95e" x="556.295795" y="588.406804" style="stroke: #000000; stroke-width: 0.8"/>
      </g>
     </g>
     <g id="text_5">
      <!-- 394000 -->
      <g transform="translate(537.208295 603.005242) scale(0.1 -0.1)">
       <defs>
        <path id="DejaVuSans-34" d="M 2419 4116 
L 825 1625 
L 2419 1625 
L 2419 4116 
z
M 2253 4666 
L 3047 4666 
L 3047 1625 
L 3713 1625 
L 3713 1100 
L 3047 1100 
L 3047 0 
L 2419 0 
L 2419 1100 
L 313 1100 
L 313 1709 
L 2253 4666 
z
" transform="scale(0.015625)"/>
       </defs>
       <use xlink:href="#DejaVuSans-33"/>
       <use xlink:href="#DejaVuSans-39" x="63.623047"/>
       <use xlink:href="#DejaVuSans-34" x="127.246094"/>
       <use xlink:href="#DejaVuSans-30" x="190.869141"/>
       <use xlink:href="#DejaVuSans-30" x="254.492188"/>
       <use xlink:href="#DejaVuSans-30" x="318.115234"/>
      </g>
     </g>
    </g>
   </g>
   <g id="matplotlib.axis_2">
    <g id="ytick_1">
     <g id="line2d_6">
      <defs>
       <path id="m36c939d2ac" d="M 0 0 
L -3.5 0 
" style="stroke: #000000; stroke-width: 0.8"/>
      </defs>
      <g>
       <use xlink:href="#m36c939d2ac" x="90" y="501.979745" style="stroke: #000000; stroke-width: 0.8"/>
      </g>
     </g>
     <g id="text_6">
      <!-- 5.8210 -->
      <g transform="translate(48.009375 505.778964) scale(0.1 -0.1)">
       <defs>
        <path id="DejaVuSans-2e" d="M 684 794 
L 1344 794 
L 1344 0 
L 684 0 
L 684 794 
z
" transform="scale(0.015625)"/>
        <path id="DejaVuSans-38" d="M 2034 2216 
Q 1584 2216 1326 1975 
Q 1069 1734 1069 1313 
Q 1069 891 1326 650 
Q 1584 409 2034 409 
Q 2484 409 2743 651 
Q 3003 894 3003 1313 
Q 3003 1734 2745 1975 
Q 2488 2216 2034 2216 
z
M 1403 2484 
Q 997 2584 770 2862 
Q 544 3141 544 3541 
Q 544 4100 942 4425 
Q 1341 4750 2034 4750 
Q 2731 4750 3128 4425 
Q 3525 4100 3525 3541 
Q 3525 3141 3298 2862 
Q 3072 2584 2669 2484 
Q 3125 2378 3379 2068 
Q 3634 1759 3634 1313 
Q 3634 634 3220 271 
Q 2806 -91 2034 -91 
Q 1263 -91 848 271 
Q 434 634 434 1313 
Q 434 1759 690 2068 
Q 947 2378 1403 2484 
z
M 1172 3481 
Q 1172 3119 1398 2916 
Q 1625 2713 2034 2713 
Q 2441 2713 2670 2916 
Q 2900 3119 2900 3481 
Q 2900 3844 2670 4047 
Q 2441 4250 2034 4250 
Q 1625 4250 1398 4047 
Q 1172 3844 1172 3481 
z
" transform="scale(0.015625)"/>
        <path id="DejaVuSans-31" d="M 794 531 
L 1825 531 
L 1825 4091 
L 703 3866 
L 703 4441 
L 1819 4666 
L 2450 4666 
L 2450 531 
L 3481 531 
L 3481 0 
L 794 0 
L 794 531 
z
" transform="scale(0.015625)"/>
       </defs>
       <use xlink:href="#DejaVuSans-35"/>
       <use xlink:href="#DejaVuSans-2e" x="63.623047"/>
       <use xlink:href="#DejaVuSans-38" x="95.410156"/>
       <use xlink:href="#DejaVuSans-32" x="159.033203"/>
       <use xlink:href="#DejaVuSans-31" x="222.65625"/>
       <use xlink:href="#DejaVuSans-30" x="286.279297"/>
      </g>
     </g>
    </g>
    <g id="ytick_2">
     <g id="line2d_7">
      <g>
       <use xlink:href="#m36c939d2ac" x="90" y="402.914882" style="stroke: #000000; stroke-width: 0.8"/>
      </g>
     </g>
     <g id="text_7">
      <!-- 5.8215 -->
      <g transform="translate(48.009375 406.7141) scale(0.1 -0.1)">
       <use xlink:href="#DejaVuSans-35"/>
       <use xlink:href="#DejaVuSans-2e" x="63.623047"/>
       <use xlink:href="#DejaVuSans-38" x="95.410156"/>
       <use xlink:href="#DejaVuSans-32" x="159.033203"/>
       <use xlink:href="#DejaVuSans-31" x="222.65625"/>
       <use xlink:href="#DejaVuSans-35" x="286.279297"/>
      </g>
     </g>
    </g>
    <g id="ytick_3">
     <g id="line2d_8">
      <g>
       <use xlink:href="#m36c939d2ac" x="90" y="303.850018" style="stroke: #000000; stroke-width: 0.8"/>
      </g>
     </g>
     <g id="text_8">
      <!-- 5.8220 -->
      <g transform="translate(48.009375 307.649237) scale(0.1 -0.1)">
       <use xlink:href="#DejaVuSans-35"/>
       <use xlink:href="#DejaVuSans-2e" x="63.623047"/>
       <use xlink:href="#DejaVuSans-38" x="95.410156"/>
       <use xlink:href="#DejaVuSans-32" x="159.033203"/>
       <use xlink:href="#DejaVuSans-32" x="222.65625"/>
       <use xlink:href="#DejaVuSans-30" x="286.279297"/>
      </g>
     </g>
    </g>
    <g id="ytick_4">
     <g id="line2d_9">
      <g>
       <use xlink:href="#m36c939d2ac" x="90" y="204.785155" style="stroke: #000000; stroke-width: 0.8"/>
      </g>
     </g>
     <g id="text_9">
      <!-- 5.8225 -->
      <g transform="translate(48.009375 208.584374) scale(0.1 -0.1)">
       <use xlink:href="#DejaVuSans-35"/>
       <use xlink:href="#DejaVuSans-2e" x="63.623047"/>
       <use xlink:href="#DejaVuSans-38" x="95.410156"/>
       <use xlink:href="#DejaVuSans-32" x="159.033203"/>
       <use xlink:href="#DejaVuSans-32" x="222.65625"/>
       <use xlink:href="#DejaVuSans-35" x="286.279297"/>
      </g>
     </g>
    </g>
    <g id="text_10">
     <!-- 1e6 -->
     <g transform="translate(90 135.793196) scale(0.1 -0.1)">
      <defs>
       <path id="DejaVuSans-65" d="M 3597 1894 
L 3597 1613 
L 953 1613 
Q 991 1019 1311 708 
Q 1631 397 2203 397 
Q 2534 397 2845 478 
Q 3156 559 3463 722 
L 3463 178 
Q 3153 47 2828 -22 
Q 2503 -91 2169 -91 
Q 1331 -91 842 396 
Q 353 884 353 1716 
Q 353 2575 817 3079 
Q 1281 3584 2069 3584 
Q 2775 3584 3186 3129 
Q 3597 2675 3597 1894 
z
M 3022 2063 
Q 3016 2534 2758 2815 
Q 2500 3097 2075 3097 
Q 1594 3097 1305 2825 
Q 1016 2553 972 2059 
L 3022 2063 
z
" transform="scale(0.015625)"/>
       <path id="DejaVuSans-36" d="M 2113 2584 
Q 1688 2584 1439 2293 
Q 1191 2003 1191 1497 
Q 1191 994 1439 701 
Q 1688 409 2113 409 
Q 2538 409 2786 701 
Q 3034 994 3034 1497 
Q 3034 2003 2786 2293 
Q 2538 2584 2113 2584 
z
M 3366 4563 
L 3366 3988 
Q 3128 4100 2886 4159 
Q 2644 4219 2406 4219 
Q 1781 4219 1451 3797 
Q 1122 3375 1075 2522 
Q 1259 2794 1537 2939 
Q 1816 3084 2150 3084 
Q 2853 3084 3261 2657 
Q 3669 2231 3669 1497 
Q 3669 778 3244 343 
Q 2819 -91 2113 -91 
Q 1303 -91 875 529 
Q 447 1150 447 2328 
Q 447 3434 972 4092 
Q 1497 4750 2381 4750 
Q 2619 4750 2861 4703 
Q 3103 4656 3366 4563 
z
" transform="scale(0.015625)"/>
      </defs>
      <use xlink:href="#DejaVuSans-31"/>
      <use xlink:href="#DejaVuSans-65" x="63.623047"/>
      <use xlink:href="#DejaVuSans-36" x="125.146484"/>
     </g>
    </g>
   </g>
   <g id="patch_3">
    <path d="M 90 588.406804 
L 90 138.793196 
" style="fill: none; stroke: #000000; stroke-width: 0.8; stroke-linejoin: miter; stroke-linecap: square"/>
   </g>
   <g id="patch_4">
    <path d="M 648 588.406804 
L 648 138.793196 
" style="fill: none; stroke: #000000; stroke-width: 0.8; stroke-linejoin: miter; stroke-linecap: square"/>
   </g>
   <g id="patch_5">
    <path d="M 90 588.406804 
L 648 588.406804 
" style="fill: none; stroke: #000000; stroke-width: 0.8; stroke-linejoin: miter; stroke-linecap: square"/>
   </g>
   <g id="patch_6">
    <path d="M 90 138.793196 
L 648 138.793196 
" style="fill: none; stroke: #000000; stroke-width: 0.8; stroke-linejoin: miter; stroke-linecap: square"/>
   </g>
   <g id="text_11">
    <!-- Sdlicher_Prenzlauer_Berg -->
    <g transform="translate(272.494267 375.194997) scale(0.12 -0.12)">
     <defs>
      <path id="DejaVuSans-53" d="M 3425 4513 
L 3425 3897 
Q 3066 4069 2747 4153 
Q 2428 4238 2131 4238 
Q 1616 4238 1336 4038 
Q 1056 3838 1056 3469 
Q 1056 3159 1242 3001 
Q 1428 2844 1947 2747 
L 2328 2669 
Q 3034 2534 3370 2195 
Q 3706 1856 3706 1288 
Q 3706 609 3251 259 
Q 2797 -91 1919 -91 
Q 1588 -91 1214 -16 
Q 841 59 441 206 
L 441 856 
Q 825 641 1194 531 
Q 1563 422 1919 422 
Q 2459 422 2753 634 
Q 3047 847 3047 1241 
Q 3047 1584 2836 1778 
Q 2625 1972 2144 2069 
L 1759 2144 
Q 1053 2284 737 2584 
Q 422 2884 422 3419 
Q 422 4038 858 4394 
Q 1294 4750 2059 4750 
Q 2388 4750 2728 4690 
Q 3069 4631 3425 4513 
z
" transform="scale(0.015625)"/>
      <path id="DejaVuSans-fc" d="M 544 1381 
L 544 3500 
L 1119 3500 
L 1119 1403 
Q 1119 906 1312 657 
Q 1506 409 1894 409 
Q 2359 409 2629 706 
Q 2900 1003 2900 1516 
L 2900 3500 
L 3475 3500 
L 3475 0 
L 2900 0 
L 2900 538 
Q 2691 219 2414 64 
Q 2138 -91 1772 -91 
Q 1169 -91 856 284 
Q 544 659 544 1381 
z
M 1991 3584 
L 1991 3584 
z
M 2278 4850 
L 2913 4850 
L 2913 4219 
L 2278 4219 
L 2278 4850 
z
M 1056 4850 
L 1691 4850 
L 1691 4219 
L 1056 4219 
L 1056 4850 
z
" transform="scale(0.015625)"/>
      <path id="DejaVuSans-64" d="M 2906 2969 
L 2906 4863 
L 3481 4863 
L 3481 0 
L 2906 0 
L 2906 525 
Q 2725 213 2448 61 
Q 2172 -91 1784 -91 
Q 1150 -91 751 415 
Q 353 922 353 1747 
Q 353 2572 751 3078 
Q 1150 3584 1784 3584 
Q 2172 3584 2448 3432 
Q 2725 3281 2906 2969 
z
M 947 1747 
Q 947 1113 1208 752 
Q 1469 391 1925 391 
Q 2381 391 2643 752 
Q 2906 1113 2906 1747 
Q 2906 2381 2643 2742 
Q 2381 3103 1925 3103 
Q 1469 3103 1208 2742 
Q 947 2381 947 1747 
z
" transform="scale(0.015625)"/>
      <path id="DejaVuSans-6c" d="M 603 4863 
L 1178 4863 
L 1178 0 
L 603 0 
L 603 4863 
z
" transform="scale(0.015625)"/>
      <path id="DejaVuSans-69" d="M 603 3500 
L 1178 3500 
L 1178 0 
L 603 0 
L 603 3500 
z
M 603 4863 
L 1178 4863 
L 1178 4134 
L 603 4134 
L 603 4863 
z
" transform="scale(0.015625)"/>
      <path id="DejaVuSans-63" d="M 3122 3366 
L 3122 2828 
Q 2878 2963 2633 3030 
Q 2388 3097 2138 3097 
Q 1578 3097 1268 2742 
Q 959 2388 959 1747 
Q 959 1106 1268 751 
Q 1578 397 2138 397 
Q 2388 397 2633 464 
Q 2878 531 3122 666 
L 3122 134 
Q 2881 22 2623 -34 
Q 2366 -91 2075 -91 
Q 1284 -91 818 406 
Q 353 903 353 1747 
Q 353 2603 823 3093 
Q 1294 3584 2113 3584 
Q 2378 3584 2631 3529 
Q 2884 3475 3122 3366 
z
" transform="scale(0.015625)"/>
      <path id="DejaVuSans-68" d="M 3513 2113 
L 3513 0 
L 2938 0 
L 2938 2094 
Q 2938 2591 2744 2837 
Q 2550 3084 2163 3084 
Q 1697 3084 1428 2787 
Q 1159 2491 1159 1978 
L 1159 0 
L 581 0 
L 581 4863 
L 1159 4863 
L 1159 2956 
Q 1366 3272 1645 3428 
Q 1925 3584 2291 3584 
Q 2894 3584 3203 3211 
Q 3513 2838 3513 2113 
z
" transform="scale(0.015625)"/>
      <path id="DejaVuSans-72" d="M 2631 2963 
Q 2534 3019 2420 3045 
Q 2306 3072 2169 3072 
Q 1681 3072 1420 2755 
Q 1159 2438 1159 1844 
L 1159 0 
L 581 0 
L 581 3500 
L 1159 3500 
L 1159 2956 
Q 1341 3275 1631 3429 
Q 1922 3584 2338 3584 
Q 2397 3584 2469 3576 
Q 2541 3569 2628 3553 
L 2631 2963 
z
" transform="scale(0.015625)"/>
      <path id="DejaVuSans-5f" d="M 3263 -1063 
L 3263 -1509 
L -63 -1509 
L -63 -1063 
L 3263 -1063 
z
" transform="scale(0.015625)"/>
      <path id="DejaVuSans-50" d="M 1259 4147 
L 1259 2394 
L 2053 2394 
Q 2494 2394 2734 2622 
Q 2975 2850 2975 3272 
Q 2975 3691 2734 3919 
Q 2494 4147 2053 4147 
L 1259 4147 
z
M 628 4666 
L 2053 4666 
Q 2838 4666 3239 4311 
Q 3641 3956 3641 3272 
Q 3641 2581 3239 2228 
Q 2838 1875 2053 1875 
L 1259 1875 
L 1259 0 
L 628 0 
L 628 4666 
z
" transform="scale(0.015625)"/>
      <path id="DejaVuSans-6e" d="M 3513 2113 
L 3513 0 
L 2938 0 
L 2938 2094 
Q 2938 2591 2744 2837 
Q 2550 3084 2163 3084 
Q 1697 3084 1428 2787 
Q 1159 2491 1159 1978 
L 1159 0 
L 581 0 
L 581 3500 
L 1159 3500 
L 1159 2956 
Q 1366 3272 1645 3428 
Q 1925 3584 2291 3584 
Q 2894 3584 3203 3211 
Q 3513 2838 3513 2113 
z
" transform="scale(0.015625)"/>
      <path id="DejaVuSans-7a" d="M 353 3500 
L 3084 3500 
L 3084 2975 
L 922 459 
L 3084 459 
L 3084 0 
L 275 0 
L 275 525 
L 2438 3041 
L 353 3041 
L 353 3500 
z
" transform="scale(0.015625)"/>
      <path id="DejaVuSans-61" d="M 2194 1759 
Q 1497 1759 1228 1600 
Q 959 1441 959 1056 
Q 959 750 1161 570 
Q 1363 391 1709 391 
Q 2188 391 2477 730 
Q 2766 1069 2766 1631 
L 2766 1759 
L 2194 1759 
z
M 3341 1997 
L 3341 0 
L 2766 0 
L 2766 531 
Q 2569 213 2275 61 
Q 1981 -91 1556 -91 
Q 1019 -91 701 211 
Q 384 513 384 1019 
Q 384 1609 779 1909 
Q 1175 2209 1959 2209 
L 2766 2209 
L 2766 2266 
Q 2766 2663 2505 2880 
Q 2244 3097 1772 3097 
Q 1472 3097 1187 3025 
Q 903 2953 641 2809 
L 641 3341 
Q 956 3463 1253 3523 
Q 1550 3584 1831 3584 
Q 2591 3584 2966 3190 
Q 3341 2797 3341 1997 
z
" transform="scale(0.015625)"/>
      <path id="DejaVuSans-75" d="M 544 1381 
L 544 3500 
L 1119 3500 
L 1119 1403 
Q 1119 906 1312 657 
Q 1506 409 1894 409 
Q 2359 409 2629 706 
Q 2900 1003 2900 1516 
L 2900 3500 
L 3475 3500 
L 3475 0 
L 2900 0 
L 2900 538 
Q 2691 219 2414 64 
Q 2138 -91 1772 -91 
Q 1169 -91 856 284 
Q 544 659 544 1381 
z
M 1991 3584 
L 1991 3584 
z
" transform="scale(0.015625)"/>
      <path id="DejaVuSans-42" d="M 1259 2228 
L 1259 519 
L 2272 519 
Q 2781 519 3026 730 
Q 3272 941 3272 1375 
Q 3272 1813 3026 2020 
Q 2781 2228 2272 2228 
L 1259 2228 
z
M 1259 4147 
L 1259 2741 
L 2194 2741 
Q 2656 2741 2882 2914 
Q 3109 3088 3109 3444 
Q 3109 3797 2882 3972 
Q 2656 4147 2194 4147 
L 1259 4147 
z
M 628 4666 
L 2241 4666 
Q 2963 4666 3353 4366 
Q 3744 4066 3744 3513 
Q 3744 3084 3544 2831 
Q 3344 2578 2956 2516 
Q 3422 2416 3680 2098 
Q 3938 1781 3938 1306 
Q 3938 681 3513 340 
Q 3088 0 2303 0 
L 628 0 
L 628 4666 
z
" transform="scale(0.015625)"/>
      <path id="DejaVuSans-67" d="M 2906 1791 
Q 2906 2416 2648 2759 
Q 2391 3103 1925 3103 
Q 1463 3103 1205 2759 
Q 947 2416 947 1791 
Q 947 1169 1205 825 
Q 1463 481 1925 481 
Q 2391 481 2648 825 
Q 2906 1169 2906 1791 
z
M 3481 434 
Q 3481 -459 3084 -895 
Q 2688 -1331 1869 -1331 
Q 1566 -1331 1297 -1286 
Q 1028 -1241 775 -1147 
L 775 -588 
Q 1028 -725 1275 -790 
Q 1522 -856 1778 -856 
Q 2344 -856 2625 -561 
Q 2906 -266 2906 331 
L 2906 616 
Q 2728 306 2450 153 
Q 2172 0 1784 0 
Q 1141 0 747 490 
Q 353 981 353 1791 
Q 353 2603 747 3093 
Q 1141 3584 1784 3584 
Q 2172 3584 2450 3431 
Q 2728 3278 2906 2969 
L 2906 3500 
L 3481 3500 
L 3481 434 
z
" transform="scale(0.015625)"/>
     </defs>
     <use xlink:href="#DejaVuSans-53"/>
     <use xlink:href="#DejaVuSans-fc" x="63.476562"/>
     <use xlink:href="#DejaVuSans-64" x="126.855469"/>
     <use xlink:href="#DejaVuSans-6c" x="190.332031"/>
     <use xlink:href="#DejaVuSans-69" x="218.115234"/>
     <use xlink:href="#DejaVuSans-63" x="245.898438"/>
     <use xlink:href="#DejaVuSans-68" x="300.878906"/>
     <use xlink:href="#DejaVuSans-65" x="364.257812"/>
     <use xlink:href="#DejaVuSans-72" x="425.78125"/>
     <use xlink:href="#DejaVuSans-5f" x="466.894531"/>
     <use xlink:href="#DejaVuSans-50" x="516.894531"/>
     <use xlink:href="#DejaVuSans-72" x="575.447266"/>
     <use xlink:href="#DejaVuSans-65" x="614.310547"/>
     <use xlink:href="#DejaVuSans-6e" x="675.833984"/>
     <use xlink:href="#DejaVuSans-7a" x="739.212891"/>
     <use xlink:href="#DejaVuSans-6c" x="791.703125"/>
     <use xlink:href="#DejaVuSans-61" x="819.486328"/>
     <use xlink:href="#DejaVuSans-75" x="880.765625"/>
     <use xlink:href="#DejaVuSans-65" x="944.144531"/>
     <use xlink:href="#DejaVuSans-72" x="1005.667969"/>
     <use xlink:href="#DejaVuSans-5f" x="1046.78125"/>
     <use xlink:href="#DejaVuSans-42" x="1096.78125"/>
     <use xlink:href="#DejaVuSans-65" x="1165.384766"/>
     <use xlink:href="#DejaVuSans-72" x="1226.908203"/>
     <use xlink:href="#DejaVuSans-67" x="1266.271484"/>
    </g>
   </g>
  </g>
 </g>
 <defs>
  <clipPath id="p6a2fd156ac">
   <rect x="90" y="138.793196" width="558" height="449.613609"/>
  </clipPath>
 </defs>
</svg>
