<?xml version="1.0" encoding="utf-8" standalone="no"?>
<!DOCTYPE svg PUBLIC "-//W3C//DTD SVG 1.1//EN"
  "http://www.w3.org/Graphics/SVG/1.1/DTD/svg11.dtd">
<svg xmlns:xlink="http://www.w3.org/1999/xlink" width="720pt" height="720pt" viewBox="0 0 720 720" xmlns="http://www.w3.org/2000/svg" version="1.1">
 <metadata>
  <rdf:RDF xmlns:dc="http://purl.org/dc/elements/1.1/" xmlns:cc="http://creativecommons.org/ns#" xmlns:rdf="http://www.w3.org/1999/02/22-rdf-syntax-ns#">
   <cc:Work>
    <dc:type rdf:resource="http://purl.org/dc/dcmitype/StillImage"/>
    <dc:date>2024-10-15T13:04:02.842536</dc:date>
    <dc:format>image/svg+xml</dc:format>
    <dc:creator>
     <cc:Agent>
      <dc:title>Matplotlib v3.9.2, https://matplotlib.org/</dc:title>
     </cc:Agent>
    </dc:creator>
   </cc:Work>
  </rdf:RDF>
 </metadata>
 <defs>
  <style type="text/css">*{stroke-linejoin: round; stroke-linecap: butt}</style>
 </defs>
 <g id="figure_1">
  <g id="patch_1">
   <path d="M 0 720 
L 720 720 
L 720 0 
L 0 0 
z
" style="fill: #ffffff"/>
  </g>
  <g id="axes_1">
   <g id="patch_2">
    <path d="M 116.540196 640.8 
L 621.459804 640.8 
L 621.459804 86.4 
L 116.540196 86.4 
z
" style="fill: #ffffff"/>
   </g>
   <g id="PatchCollection_1">
    <path d="M 226.485481 130.589487 
L 223.807283 128.521088 
L 223.5562 128.327132 
L 222.564936 127.561671 
L 221.802313 126.972729 
L 219.995773 125.577559 
L 219.748949 125.386967 
L 218.750948 124.616245 
L 217.998921 124.035575 
L 216.161586 122.61663 
L 215.485957 122.094891 
L 211.189206 118.777169 
L 207.813551 116.170801 
L 207.420134 115.875107 
L 207.346168 115.821448 
L 207.271835 115.768076 
L 207.197326 115.715174 
L 206.986823 115.568974 
L 206.774244 115.425898 
L 206.55968 115.28585 
L 206.466884 115.226994 
L 206.373369 115.169366 
L 206.279135 115.112967 
L 206.091349 115.005938 
L 205.900873 114.903818 
L 205.707893 114.806604 
L 205.532618 114.723008 
L 205.23593 114.592457 
L 205.025244 114.507843 
L 204.812352 114.428969 
L 204.580937 114.350583 
L 204.347338 114.278961 
L 204.11174 114.214101 
L 203.874425 114.156088 
L 203.551908 114.085431 
L 203.122 114.001016 
L 202.869609 113.956668 
L 202.616644 113.915971 
L 202.2753 113.86659 
L 198.605939 113.354941 
L 198.436497 113.331125 
L 197.532406 113.204492 
L 192.17185 112.458568 
L 187.120012 111.754391 
L 186.591556 111.680733 
L 186.399092 111.656107 
L 186.206071 111.635973 
L 186.012678 111.620231 
L 185.818913 111.608883 
L 185.75991 111.606412 
L 185.730365 111.605363 
L 185.501059 111.6 
L 185.2717 111.600889 
L 185.042472 111.607934 
L 184.882826 111.620023 
L 184.723786 111.638724 
L 184.565727 111.664122 
L 184.408926 111.696118 
L 184.253477 111.73471 
L 184.099842 111.779794 
L 183.974382 111.818492 
L 183.850317 111.861451 
L 183.727832 111.908669 
L 183.60702 111.96005 
L 183.467664 112.028436 
L 183.331221 112.102357 
L 183.197875 112.181811 
L 183.084057 112.255529 
L 182.972931 112.333202 
L 182.864682 112.414732 
L 182.759308 112.50012 
L 182.585579 112.651162 
L 182.416815 112.807977 
L 182.253382 112.970183 
L 182.09537 113.137685 
L 181.942967 113.310572 
L 181.796257 113.488376 
L 181.655515 113.670905 
L 181.520831 113.858062 
L 175.985141 121.820528 
L 176.030747 122.553492 
L 175.267333 124.495832 
L 173.730123 126.70404 
L 171.891336 129.346793 
L 170.415446 132.102143 
L 168.227066 136.187717 
L 167.568362 137.089993 
L 165.948469 139.312502 
L 164.960564 140.668017 
L 163.973485 142.022678 
L 163.066917 143.266076 
L 162.16063 144.509282 
L 161.396948 145.557507 
L 160.215153 147.177509 
L 159.6946 147.893119 
L 159.462614 148.210756 
L 158.789305 149.190708 
L 157.892386 150.496518 
L 156.86928 151.989312 
L 156.80523 152.081751 
L 155.867994 153.635875 
L 155.588929 154.099053 
L 153.974846 156.775693 
L 152.735382 158.832221 
L 151.957628 160.121959 
L 150.919335 161.847889 
L 150.065488 163.262892 
L 149.127349 164.820595 
L 148.945742 165.128853 
L 148.310918 166.308323 
L 147.54283 167.726808 
L 147.303827 168.181482 
L 146.906663 169.074072 
L 146.29573 170.447294 
L 145.934639 171.258589 
L 145.61159 171.985093 
L 145.47921 172.282872 
L 145.019602 173.503654 
L 144.222347 175.617151 
L 143.531541 177.452274 
L 142.533871 180.099491 
L 142.369975 180.534454 
L 142.039976 181.410025 
L 141.776343 182.110157 
L 140.63337 185.141931 
L 140.532688 185.41076 
L 140.192158 186.668831 
L 140.119335 186.938461 
L 139.851144 188.809863 
L 139.771689 189.392023 
L 139.752529 189.649958 
L 139.742039 189.908359 
L 139.741181 190.043652 
L 139.740399 190.166944 
L 139.747509 190.425434 
L 139.763457 190.683548 
L 139.787495 190.941115 
L 139.820171 191.19775 
L 139.861666 191.453076 
L 139.911693 191.706819 
L 139.970342 191.958791 
L 139.491088 192.755647 
L 140.826575 193.450837 
L 140.674575 193.732058 
L 140.775996 193.915931 
L 140.882478 194.096991 
L 140.993828 194.274959 
L 141.110141 194.449836 
L 142.128865 195.907885 
L 142.907852 197.023333 
L 143.067227 197.257001 
L 143.221921 197.493849 
L 143.371839 197.733786 
L 143.516884 197.976626 
L 143.641365 198.193968 
L 143.76198 198.413447 
L 143.878731 198.635061 
L 143.962504 198.794961 
L 144.048394 198.953697 
L 144.136492 199.111172 
L 144.155374 199.145103 
L 144.174347 199.178939 
L 144.193504 199.212677 
L 144.359012 199.489415 
L 144.531413 199.761899 
L 144.710423 200.02995 
L 144.896134 200.293565 
L 145.192295 200.697473 
L 145.494227 201.096966 
L 145.801929 201.492044 
L 146.115308 201.882614 
L 146.358492 202.17784 
L 146.604877 202.470384 
L 146.854461 202.760154 
L 147.159335 203.105748 
L 147.468778 203.447325 
L 147.782694 203.784701 
L 148.101082 204.117875 
L 148.406609 204.428746 
L 148.715962 204.735709 
L 149.029236 205.038763 
L 149.461101 205.444989 
L 149.899882 205.843695 
L 150.345389 206.234793 
L 150.797526 206.618099 
L 151.256202 206.993706 
L 151.721223 207.361248 
L 152.192497 207.720817 
L 152.539322 207.977621 
L 152.889404 208.22997 
L 153.24256 208.478054 
L 153.598785 208.721595 
L 153.957987 208.960686 
L 154.257956 209.155515 
L 154.560001 209.34722 
L 154.863931 209.535712 
L 155.327946 209.812772 
L 155.796274 210.082556 
L 156.268727 210.344973 
L 156.74521 210.599934 
L 157.225631 210.84744 
L 157.709891 211.087306 
L 158.764494 211.60429 
L 160.108229 212.262317 
L 161.445886 212.919359 
L 168.77757 216.513874 
L 168.119233 217.693921 
L 167.461592 218.872727 
L 167.929594 219.621467 
L 166.406329 222.834121 
L 166.076698 223.526882 
L 165.641455 224.440893 
L 164.007096 227.88696 
L 163.573744 228.801959 
L 157.670515 241.246829 
L 158.76264 241.767114 
L 159.382786 241.548272 
L 169.676447 246.540313 
L 170.09378 246.743556 
L 171.634692 247.489675 
L 171.81025 247.578985 
L 172.444446 246.386361 
L 172.269036 245.778778 
L 177.416384 237.20173 
L 177.88364 236.421966 
L 179.033083 234.510278 
L 179.991614 232.915156 
L 180.953851 231.314451 
L 182.273876 229.117902 
L 183.060791 227.809358 
L 183.262519 227.473792 
L 183.739523 226.680315 
L 184.195693 225.921135 
L 184.747995 225.002214 
L 187.630121 220.206675 
L 188.302225 219.088884 
L 189.550281 217.011739 
L 191.701983 213.429407 
L 192.287849 212.454262 
L 196.95858 215.284232 
L 197.101342 215.048947 
L 197.76675 215.476451 
L 198.353904 215.853749 
L 199.606555 216.658553 
L 200.859195 217.46308 
L 202.111742 218.267799 
L 203.364289 219.072709 
L 204.571696 220.07154 
L 205.767969 221.076863 
L 206.96424 222.082283 
L 207.224387 222.301788 
L 207.96481 223.386631 
L 208.889331 224.753531 
L 209.824756 226.116841 
L 210.76319 227.481768 
L 210.54604 227.778816 
L 210.379354 228.01442 
L 209.682424 228.999747 
L 208.187988 231.100471 
L 208.66651 232.396731 
L 207.989798 232.693782 
L 207.357221 232.977764 
L 206.727187 233.267477 
L 206.099788 233.562826 
L 205.788346 233.711572 
L 201.470577 235.769534 
L 200.998712 235.996817 
L 200.528601 236.227796 
L 199.9967 236.494933 
L 199.59383 236.700743 
L 199.175865 236.918854 
L 198.759453 237.139918 
L 198.344594 237.363935 
L 198.168618 237.459877 
L 197.993026 237.55637 
L 197.817631 237.653326 
L 197.794983 237.665379 
L 197.772338 237.677526 
L 197.749788 237.689764 
L 197.293716 237.945919 
L 196.839583 238.205672 
L 196.387481 238.468928 
L 195.937501 238.735684 
L 195.522115 238.987333 
L 195.108654 239.241928 
L 194.696934 239.499564 
L 194.059043 239.940058 
L 195.0972 241.449825 
L 196.046515 242.8304 
L 195.904719 243.47425 
L 195.985917 243.601838 
L 196.133144 243.831118 
L 196.281657 244.059532 
L 196.431363 244.287174 
L 196.582076 244.513954 
L 196.733981 244.739963 
L 196.887079 244.965107 
L 197.009935 245.142843 
L 197.134442 245.319425 
L 197.260507 245.494855 
L 197.388304 245.668567 
L 197.517753 245.841125 
L 197.64876 246.01253 
L 197.874035 246.300141 
L 198.103798 246.584297 
L 198.337951 246.86472 
L 198.576402 247.141507 
L 198.819147 247.414469 
L 198.883405 247.48541 
L 198.948031 247.556155 
L 199.013022 247.62652 
L 199.270977 247.901118 
L 199.533216 248.171425 
L 199.799835 248.437534 
L 200.070736 248.69926 
L 200.394614 249.000536 
L 200.724037 249.295536 
L 201.059006 249.58426 
L 201.399425 249.866617 
L 201.743517 250.142177 
L 202.092777 250.411282 
L 202.447015 250.673657 
L 202.806046 250.929399 
L 203.034157 251.083431 
L 203.263078 251.236141 
L 203.492904 251.387618 
L 203.752772 251.555249 
L 204.013722 251.721271 
L 204.275663 251.885686 
L 204.475095 252.008887 
L 204.67516 252.131235 
L 204.875764 252.252639 
L 205.779659 252.795245 
L 210.976346 255.917847 
L 213.871594 257.66076 
L 214.814431 258.22756 
L 215.399748 258.578606 
L 217.177581 259.645373 
L 217.651009 259.940303 
L 218.603174 260.521561 
L 219.069575 260.823267 
L 219.537779 261.12223 
L 220.007691 261.418357 
L 220.931462 262.035121 
L 221.396053 262.339387 
L 221.804284 262.624513 
L 222.214145 262.907459 
L 222.625447 263.188135 
L 223.029524 263.479416 
L 223.435231 263.768516 
L 223.842472 264.055345 
L 224.273455 264.377404 
L 224.706246 264.697 
L 225.140845 265.014038 
L 225.442272 264.973285 
L 225.794017 264.925864 
L 227.141108 263.175055 
L 228.065534 262.118293 
L 228.556617 261.559487 
L 229.354995 260.652272 
L 230.523514 259.326267 
L 231.507368 258.208625 
L 231.875908 257.789029 
L 232.245401 257.370439 
L 232.859773 256.67167 
L 233.044594 256.461441 
L 234.213115 255.134512 
L 235.195164 254.018783 
L 236.609636 252.408768 
L 236.637453 252.377013 
L 237.715044 251.147291 
L 238.32967 250.446565 
L 238.944226 249.746774 
L 239.127838 249.536387 
L 241.297986 247.061152 
L 240.397051 246.472133 
L 239.54064 245.910628 
L 238.654051 245.331012 
L 238.17984 245.021148 
L 236.765477 244.095394 
L 239.157378 241.253504 
L 239.323763 241.055985 
L 240.231508 239.97749 
L 240.504874 239.652576 
L 241.129487 238.925702 
L 243.237451 236.426047 
L 243.688588 235.89134 
L 244.891309 234.46509 
L 245.494323 233.750811 
L 246.09019 233.04191 
L 247.293442 231.618081 
L 248.193374 230.551431 
L 249.4751 231.632217 
L 252.147735 228.458614 
L 252.810689 227.676359 
L 253.793205 226.51177 
L 256.251172 228.123154 
L 256.687882 228.508663 
L 256.741745 228.444819 
L 257.673327 229.055894 
L 258.008108 229.275057 
L 258.772701 228.398283 
L 260.04471 229.56216 
L 258.574959 231.180551 
L 259.825239 232.285733 
L 260.174393 231.90268 
L 262.491609 234.10416 
L 262.590611 234.198258 
L 263.648855 235.200314 
L 264.755638 236.248183 
L 268.697931 232.077389 
L 269.648843 232.815906 
L 269.210059 233.28016 
L 268.403894 234.133164 
L 267.821586 234.749376 
L 268.162728 235.080659 
L 267.209333 236.09074 
L 267.439635 236.313991 
L 266.208396 237.583099 
L 266.285775 237.65853 
L 267.558611 238.903492 
L 267.801761 238.654625 
L 267.843321 238.612224 
L 268.537503 237.901829 
L 268.912843 238.261125 
L 269.937094 239.241709 
L 269.277751 239.904431 
L 270.534987 241.17847 
L 272.267715 239.460589 
L 274.870611 236.882018 
L 275.277997 237.198187 
L 275.865313 237.653864 
L 278.967293 240.058918 
L 281.731061 242.20187 
L 285.250656 244.930576 
L 286.360683 245.79555 
L 283.889444 248.198561 
L 282.553036 249.496536 
L 281.2882 250.731233 
L 282.924019 252.429764 
L 284.563513 254.131023 
L 285.825467 252.896583 
L 286.706991 252.036697 
L 287.6488 253.066929 
L 288.62996 254.140185 
L 289.702571 255.312186 
L 290.834842 256.550014 
L 291.80862 257.613823 
L 292.80844 258.707593 
L 293.788515 259.779111 
L 294.906932 261.0011 
L 296.05023 262.251118 
L 297.060759 263.589411 
L 297.992927 264.823088 
L 297.484834 265.170095 
L 296.060304 266.142018 
L 295.189578 266.735925 
L 294.842111 266.973638 
L 294.308618 267.312322 
L 293.421238 267.875513 
L 292.591262 268.401478 
L 292.532725 268.437891 
L 292.406442 268.515485 
L 291.637909 268.988181 
L 290.740973 269.539357 
L 289.845082 270.091446 
L 288.949266 270.642601 
L 288.053435 271.19292 
L 287.158553 271.743966 
L 286.263752 272.29436 
L 285.367666 272.845528 
L 284.472045 273.396596 
L 283.666131 273.892676 
L 282.858559 274.38954 
L 282.053929 274.884569 
L 281.428605 275.269158 
L 281.249996 275.381639 
L 280.369951 275.933597 
L 279.197212 276.670993 
L 280.458673 278.717259 
L 281.735891 280.765247 
L 281.339185 281.011384 
L 280.264012 281.677667 
L 280.403004 282.053265 
L 280.533584 282.431747 
L 280.655755 282.813206 
L 280.769414 283.197178 
L 280.874561 283.583663 
L 280.972134 283.9774 
L 281.060722 284.373286 
L 281.140412 284.771039 
L 281.211107 285.170477 
L 281.272713 285.571506 
L 281.325314 285.973752 
L 281.36834 286.376667 
L 281.40226 286.780428 
L 281.427072 287.184848 
L 281.44277 287.589741 
L 281.449351 287.994921 
L 281.446809 288.400107 
L 281.443991 288.562424 
L 281.439682 288.72468 
L 281.433885 288.886968 
L 281.071424 297.214122 
L 280.786007 303.771602 
L 280.300419 304.216497 
L 281.322947 304.261848 
L 282.1595 304.299288 
L 284.110815 304.385641 
L 286.06222 304.471907 
L 287.922232 304.554796 
L 289.780546 304.636702 
L 291.639811 304.719529 
L 293.498029 304.801358 
L 293.776261 304.813952 
L 295.356269 304.884222 
L 295.634501 304.896817 
L 297.215531 304.967071 
L 299.074775 305.049088 
L 300.65469 305.119472 
L 300.93385 305.131957 
L 302.793018 305.214831 
L 303.379376 305.240611 
L 304.652259 305.296778 
L 306.511425 305.379667 
L 308.371595 305.461609 
L 310.415806 305.552552 
L 312.46104 305.643483 
L 313.902487 305.707596 
L 316.669002 305.830638 
L 317.661905 305.875296 
L 319.164661 305.942145 
L 321.021945 306.024294 
L 321.304673 306.047166 
L 321.627061 306.061365 
L 323.701995 306.152747 
L 325.743497 306.234671 
L 327.788725 306.325671 
L 329.833953 306.416679 
L 331.87918 306.507697 
L 332.173438 306.516617 
L 332.467887 306.51695 
L 332.762252 306.508794 
L 333.056162 306.49225 
L 333.34952 306.467134 
L 333.642051 306.433638 
L 333.933474 306.391675 
L 334.082088 306.367086 
L 334.230288 306.340454 
L 334.378068 306.311591 
L 334.684689 306.244116 
L 334.989156 306.16717 
L 335.291102 306.080946 
L 335.59034 305.985448 
L 335.886409 305.880874 
L 336.179214 305.767131 
L 336.46839 305.644508 
L 336.753657 305.513103 
L 336.856754 304.9553 
L 339.979217 308.620609 
L 346.865641 316.822992 
L 350.155844 320.74078 
L 351.772947 322.668267 
L 351.789177 323.822766 
L 350.692301 325.205084 
L 348.069869 328.523921 
L 346.891578 330.009103 
L 346.600363 330.376223 
L 345.944822 331.188604 
L 345.630292 331.584673 
L 344.585163 332.902564 
L 343.810226 333.880649 
L 343.488188 334.286954 
L 339.480118 339.414874 
L 338.213102 340.936655 
L 334.044455 346.191819 
L 333.672381 346.73709 
L 332.19481 348.523269 
L 328.989707 352.558476 
L 328.526514 353.147938 
L 328.121079 353.659673 
L 327.686589 354.206263 
L 327.397131 354.571399 
L 324.808054 357.835928 
L 324.733419 357.929873 
L 324.658882 358.024002 
L 324.58453 358.118128 
L 324.112848 358.719436 
L 323.645425 359.324107 
L 323.182449 359.932138 
L 322.670278 360.617622 
L 322.163685 361.307189 
L 321.66258 362.000932 
L 321.167143 362.698569 
L 320.677377 363.400285 
L 320.193282 364.105988 
L 319.930058 364.492037 
L 319.668534 364.879262 
L 319.408616 365.267574 
L 319.006292 365.54067 
L 318.208175 366.043151 
L 317.396951 366.52417 
L 316.579242 366.979948 
L 315.745573 367.406953 
L 314.884037 367.796666 
L 314.012123 368.157487 
L 313.136488 368.500567 
L 312.250476 368.81485 
L 311.356127 369.095534 
L 310.946996 369.20363 
L 310.450494 369.335217 
L 309.531787 369.550639 
L 308.606522 369.741847 
L 307.686776 369.90327 
L 306.759505 370.025479 
L 305.822883 370.123441 
L 304.88343 370.184143 
L 303.942886 370.215012 
L 303.001406 370.205781 
L 302.060832 370.173206 
L 301.121982 370.116431 
L 299.912391 370.016299 
L 295.538315 369.652361 
L 293.635438 369.496917 
L 290.697511 369.25731 
L 286.833672 368.931994 
L 286.810101 369.200652 
L 283.956701 368.942704 
L 280.820636 368.659224 
L 279.429448 368.537237 
L 279.368878 369.311555 
L 278.032585 369.206232 
L 276.363335 369.07344 
L 274.695186 368.939977 
L 273.243504 368.822742 
L 273.069683 368.807297 
L 272.542801 368.760049 
L 271.447551 368.662421 
L 267.343224 368.296397 
L 262.694567 367.903604 
L 262.774927 367.21713 
L 262.117974 367.16808 
L 253.77265 366.494187 
L 246.643084 365.877571 
L 244.831373 365.536489 
L 243.69465 365.322524 
L 243.781955 365.639401 
L 243.900169 366.088675 
L 243.968721 366.399046 
L 245.332795 371.172784 
L 246.121909 374.246768 
L 246.37232 375.173198 
L 246.57217 375.953373 
L 246.750494 376.648724 
L 247.045056 377.797031 
L 247.390357 379.135443 
L 247.483125 379.495219 
L 247.820016 380.805725 
L 248.611892 383.884321 
L 248.699986 384.163953 
L 248.876988 384.722174 
L 248.995065 385.094941 
L 249.112137 385.468663 
L 251.219757 392.14602 
L 251.646898 393.500146 
L 252.117138 394.991263 
L 252.538629 396.32489 
L 252.959206 397.659469 
L 253.251451 398.584922 
L 253.388153 398.989393 
L 253.834792 400.315489 
L 254.28044 401.638807 
L 254.728915 402.963932 
L 255.181112 404.3068 
L 255.646434 405.685126 
L 256.14263 407.159368 
L 256.638878 408.631837 
L 257.135082 410.102348 
L 257.552601 411.341825 
L 258.374584 413.771325 
L 259.219985 416.292142 
L 259.643205 417.546522 
L 259.66471 417.617352 
L 260.075013 418.956541 
L 260.484459 420.294909 
L 260.894758 421.634099 
L 261.30321 422.96969 
L 261.712553 424.307968 
L 262.121897 425.64634 
L 262.533169 426.983645 
L 262.72329 427.600656 
L 262.980588 428.305162 
L 263.460662 429.621881 
L 263.939744 430.935822 
L 264.41882 432.249671 
L 265.153342 434.264428 
L 265.886885 436.277248 
L 266.858047 438.940504 
L 267.680528 441.190957 
L 268.385051 443.121727 
L 268.757275 444.056318 
L 269.79812 446.667252 
L 270.439455 448.281005 
L 270.873829 449.374092 
L 271.083049 449.90059 
L 272.808299 454.232514 
L 273.043049 454.822365 
L 273.379661 455.666554 
L 273.488207 455.955462 
L 273.915721 457.090427 
L 274.344148 458.229104 
L 274.806153 459.455432 
L 274.887615 459.673535 
L 275.358109 460.923102 
L 275.90993 462.38891 
L 276.099892 462.893963 
L 276.414456 463.871583 
L 276.892911 465.358073 
L 277.334795 466.72992 
L 277.770141 468.083057 
L 278.199006 469.415805 
L 278.773799 471.191278 
L 279.500567 473.444899 
L 281.073097 478.327792 
L 281.12841 478.493172 
L 281.146573 478.555862 
L 281.676932 480.202025 
L 282.243261 481.921512 
L 282.302096 482.099507 
L 282.372773 482.314013 
L 282.549216 483.07837 
L 282.707591 483.764455 
L 282.793566 483.949807 
L 283.547022 485.749123 
L 284.219136 487.353567 
L 284.7846 488.705638 
L 285.322127 489.99056 
L 286.249404 492.228659 
L 287.115937 494.300001 
L 287.912362 496.201705 
L 288.670442 498.014929 
L 289.394817 499.743398 
L 290.080868 501.384225 
L 290.741708 502.963631 
L 291.382019 504.491781 
L 291.996989 505.961125 
L 292.593318 507.384958 
L 293.161653 508.774207 
L 293.682908 510.323072 
L 294.192936 511.833732 
L 296.207065 518.851042 
L 297.056892 521.438177 
L 298.358772 525.001723 
L 298.748397 525.885026 
L 298.790555 526.018309 
L 299.235247 527.43677 
L 299.498462 528.813626 
L 299.659463 529.329004 
L 300.246727 530.873123 
L 300.260723 530.91043 
L 300.702504 531.818758 
L 300.848147 532.099144 
L 301.955725 533.896796 
L 302.072397 534.091486 
L 302.675091 535.033087 
L 303.614651 536.499977 
L 303.752553 536.642341 
L 303.860784 536.754168 
L 303.955817 536.902104 
L 304.028619 537.014866 
L 304.184359 537.257904 
L 304.491712 537.941782 
L 304.68553 539.027874 
L 304.6549 539.935359 
L 304.462551 541.82149 
L 304.479834 545.325315 
L 304.770488 545.989672 
L 306.462519 552.233514 
L 307.759569 557.019773 
L 308.840593 560.393563 
L 309.249378 561.478571 
L 309.93453 563.297287 
L 310.877923 565.802138 
L 311.876094 569.202222 
L 312.669495 572.430188 
L 312.986339 573.732396 
L 313.176203 575.119578 
L 313.632442 581.838977 
L 314.382911 588.278037 
L 314.41229 588.516653 
L 314.698169 590.578931 
L 315.523881 596.543906 
L 316.804433 605.749783 
L 318.113136 615.6 
L 327.751343 611.280193 
L 342.082937 605.309976 
L 347.429457 603.932312 
L 355.301274 601.898714 
L 360.572529 600.356702 
L 360.618465 600.34678 
L 361.587864 600.136256 
L 362.300269 599.981544 
L 362.323847 599.983569 
L 368.730548 599.202705 
L 369.533631 599.106736 
L 375.118726 598.366804 
L 375.847562 598.270256 
L 377.855201 597.990994 
L 383.266729 597.237724 
L 386.45247 596.795266 
L 388.644664 596.067492 
L 390.032032 595.606913 
L 396.036154 593.620395 
L 400.930992 592.156424 
L 401.338931 592.035369 
L 410.202729 589.670718 
L 414.744386 588.38493 
L 420.23727 587.518062 
L 421.78628 587.263211 
L 422.445421 587.160261 
L 429.970716 585.978575 
L 429.984269 585.976281 
L 430.312715 585.920689 
L 430.657589 585.866848 
L 430.857431 585.813324 
L 440.933419 583.110505 
L 450.598602 580.520581 
L 450.694364 580.495077 
L 452.060812 580.227891 
L 452.431787 580.158223 
L 460.56376 578.63422 
L 466.407359 577.567201 
L 471.175094 576.696784 
L 477.196975 575.538498 
L 482.570014 574.504492 
L 484.688348 573.99061 
L 490.363708 572.61388 
L 494.1257 571.701366 
L 497.90631 570.784113 
L 502.781551 569.588687 
L 503.940798 569.304483 
L 505.207679 568.960953 
L 506.993234 568.476916 
L 510.123818 567.626015 
L 512.326829 567.087185 
L 520.195484 565.156161 
L 520.551427 565.051122 
L 528.647205 562.668622 
L 531.913306 561.576028 
L 532.937857 561.227589 
L 533.088976 561.183419 
L 533.887955 560.909705 
L 534.06075 560.851839 
L 535.054824 560.450662 
L 535.212897 560.373599 
L 535.431751 560.270558 
L 535.476626 560.249386 
L 538.865717 558.655309 
L 540.382209 558.017862 
L 541.932152 557.323654 
L 543.474895 556.672893 
L 545.020232 556.021338 
L 546.567683 555.368345 
L 547.494178 554.978104 
L 547.481359 554.479091 
L 547.420409 552.287577 
L 547.378137 550.849586 
L 548.559129 549.578532 
L 550.052003 547.971228 
L 550.295256 547.709725 
L 551.692552 546.205164 
L 552.030561 545.840943 
L 553.331291 544.441009 
L 553.673859 544.072124 
L 552.946688 542.25466 
L 552.311924 540.67024 
L 551.598737 538.931987 
L 554.060049 536.542834 
L 554.067899 536.535215 
L 554.602786 536.015885 
L 557.266067 533.44159 
L 562.428546 527.963227 
L 565.005078 525.128014 
L 568.555227 522.263395 
L 566.799409 520.361602 
L 569.402628 517.344481 
L 571.607645 514.792466 
L 576.727977 508.848983 
L 577.263691 508.221429 
L 576.558886 507.065098 
L 576.723249 506.870916 
L 578.965381 504.218153 
L 579.221575 503.845648 
L 583.338474 497.851448 
L 583.826926 496.871899 
L 584.112809 496.298462 
L 586.985592 487.166109 
L 587.595251 484.859799 
L 589.331958 477.28366 
L 590.14175 473.851539 
L 590.50585 472.302398 
L 590.597557 471.911997 
L 591.861428 466.549692 
L 591.864077 466.538453 
L 592.548428 463.625164 
L 593.090899 461.31604 
L 592.94835 461.120407 
L 592.309903 460.244661 
L 591.360251 458.95719 
L 592.143212 457.47598 
L 592.935349 455.979002 
L 593.851132 454.251922 
L 594.045959 453.884602 
L 594.819439 452.425891 
L 594.14956 451.332452 
L 593.721198 450.633226 
L 593.401363 450.108591 
L 592.937953 449.347289 
L 591.864915 447.595633 
L 593.389872 445.940888 
L 593.393591 445.936146 
L 594.582682 444.645923 
L 594.601801 444.625098 
L 594.584915 444.595679 
L 593.387695 442.513557 
L 593.213343 442.209781 
L 593.392292 441.798279 
L 594.47125 439.322444 
L 595.560898 436.822601 
L 596.761454 435.052094 
L 598.508912 432.475249 
L 598.324547 432.35614 
L 596.868467 431.423788 
L 596.578915 431.239561 
L 595.113462 430.299755 
L 594.873224 430.147083 
L 594.633993 429.99355 
L 592.962812 428.923512 
L 592.760738 428.794131 
L 591.245971 427.823624 
L 589.729225 426.85223 
L 589.41645 426.652154 
L 589.163671 424.898347 
L 588.704782 424.648082 
L 587.143535 423.804503 
L 587.100716 423.781215 
L 587.604113 422.5765 
L 588.180718 421.201029 
L 588.757288 419.823695 
L 589.314468 418.490238 
L 589.332113 418.447329 
L 589.909659 417.071842 
L 590.463961 415.743018 
L 591.314064 413.712452 
L 591.53104 413.193617 
L 591.273313 412.5076 
L 590.549642 410.58196 
L 588.606523 404.846472 
L 587.787888 401.601304 
L 586.857894 397.92082 
L 586.381935 394.94556 
L 586.35476 394.772197 
L 586.2784 393.474116 
L 586.293905 388.078063 
L 586.388859 385.514241 
L 586.439203 383.656439 
L 586.229649 382.253228 
L 582.861515 377.414246 
L 578.141735 370.718626 
L 576.89363 364.005744 
L 575.978614 357.3018 
L 573.937354 355.317477 
L 573.468977 354.401411 
L 572.240118 351.999024 
L 571.247012 351.705719 
L 569.517735 351.207518 
L 565.884798 345.018655 
L 565.203032 343.855804 
L 564.783455 343.288451 
L 564.449738 342.841378 
L 564.253064 342.577726 
L 564.234347 342.481727 
L 563.603423 339.308137 
L 563.600623 339.294105 
L 563.547158 339.02378 
L 563.523398 338.904278 
L 563.035341 336.444989 
L 562.90316 335.784866 
L 563.38799 334.617457 
L 565.121633 330.435928 
L 567.39762 324.960978 
L 567.545899 324.564466 
L 570.300295 317.926831 
L 570.105445 317.083156 
L 570.018905 317.066458 
L 570.722571 315.331748 
L 571.3529 313.775265 
L 571.984237 312.217829 
L 572.615579 310.660394 
L 573.245994 309.102978 
L 574.070111 307.070586 
L 574.15171 306.831637 
L 574.263859 306.543356 
L 574.594585 305.553415 
L 575.389376 303.205789 
L 575.493957 302.774814 
L 575.620847 301.790736 
L 575.68328 301.201261 
L 575.704635 301.203062 
L 575.972935 298.209094 
L 575.983881 298.088693 
L 575.998526 297.912419 
L 575.977172 297.910618 
L 575.675547 297.828074 
L 575.536562 297.577416 
L 574.912885 297.410415 
L 574.674614 297.325918 
L 574.564715 297.286933 
L 574.25929 297.123199 
L 573.673533 296.784673 
L 573.557103 296.717644 
L 572.763745 296.274026 
L 572.46952 296.175564 
L 572.153937 296.070635 
L 571.316276 295.887224 
L 568.772163 295.731572 
L 563.908058 295.281815 
L 559.495187 294.874432 
L 556.201788 294.56509 
L 555.319601 294.485352 
L 554.555584 294.416529 
L 552.904708 294.23532 
L 550.833093 293.992327 
L 548.862013 293.753806 
L 546.771727 293.453927 
L 544.824685 293.121157 
L 542.668191 292.720677 
L 540.297602 292.28039 
L 539.254166 292.041467 
L 537.383296 291.637741 
L 535.395166 291.163382 
L 533.30632 290.644361 
L 531.145799 290.071404 
L 529.140659 289.499172 
L 526.575132 288.733795 
L 524.902216 288.188133 
L 522.887565 287.520767 
L 520.895316 286.838485 
L 518.923465 286.152432 
L 518.339739 285.942602 
L 516.61994 285.236614 
L 514.74939 284.447811 
L 513.075099 283.673716 
L 511.544367 282.995378 
L 510.419479 282.482394 
L 509.470616 282.050217 
L 507.959257 281.341167 
L 507.733978 281.223966 
L 506.814807 280.76011 
L 506.707664 280.706248 
L 505.25403 279.966249 
L 503.787253 279.207586 
L 502.717227 278.651686 
L 502.671578 278.627531 
L 501.200991 277.801775 
L 500.522954 277.398165 
L 498.472005 276.224544 
L 496.31577 274.920618 
L 494.55633 273.830556 
L 492.999775 272.841735 
L 491.949971 272.157147 
L 491.437706 271.825043 
L 489.954615 270.787686 
L 488.538571 269.792146 
L 488.459404 269.736309 
L 486.854185 268.564893 
L 485.396142 267.483646 
L 483.991098 266.399532 
L 482.659577 265.350661 
L 479.132848 262.544827 
L 475.297668 259.492466 
L 473.973646 258.438986 
L 471.551 256.508933 
L 468.771408 254.295935 
L 465.371192 251.587977 
L 462.398717 249.221429 
L 457.364954 245.217205 
L 454.150984 242.657268 
L 451.792465 240.779357 
L 450.970586 240.124274 
L 450.784258 239.974475 
L 449.260641 238.760999 
L 448.092963 237.831424 
L 447.845133 237.634106 
L 446.657904 236.68684 
L 446.157528 236.289505 
L 445.392458 235.680929 
L 444.734515 235.156153 
L 444.105448 234.65457 
L 443.444783 234.128826 
L 442.814782 233.627264 
L 441.558634 232.626022 
L 440.244666 231.580081 
L 439.023906 230.606754 
L 437.798409 229.629703 
L 436.939186 228.940247 
L 436.551585 228.67512 
L 435.813154 228.382683 
L 434.938816 228.118456 
L 433.962096 227.824546 
L 433.381934 227.576588 
L 432.874225 227.22626 
L 432.823785 227.191481 
L 432.076457 226.645352 
L 432.308657 226.407159 
L 431.839014 226.051747 
L 430.997498 225.381806 
L 430.575514 225.160601 
L 430.317493 224.813844 
L 430.303126 224.794549 
L 428.585786 222.483898 
L 428.401099 222.261296 
L 427.771844 221.635737 
L 422.33392 217.298729 
L 421.117763 216.331045 
L 415.045973 211.499204 
L 414.563227 211.141937 
L 414.067585 210.840642 
L 413.527433 210.624345 
L 413.264827 210.519446 
L 412.437872 210.234679 
L 411.913585 210.020198 
L 411.495283 209.798094 
L 411.023795 209.480903 
L 409.835506 208.534687 
L 409.061918 207.919631 
L 407.140166 206.390001 
L 407.077762 206.339799 
L 405.166226 204.818547 
L 404.375856 204.189575 
L 403.254677 203.297304 
L 401.697216 202.057914 
L 401.342164 201.775061 
L 399.441785 200.259385 
L 398.981339 199.896536 
L 397.675511 198.857264 
L 397.529229 198.73632 
L 396.350169 197.802262 
L 395.604553 197.208664 
L 394.964239 196.699732 
L 394.003315 195.934853 
L 393.57176 195.591559 
L 392.396461 194.655567 
L 390.934099 193.49204 
L 390.79804 193.38376 
L 387.983218 191.13961 
L 385.213995 188.940242 
L 382.298427 186.609595 
L 380.94593 185.506128 
L 380.838794 185.418705 
L 380.728733 185.329385 
L 379.446161 184.297515 
L 379.009903 183.926248 
L 378.851345 183.748464 
L 378.59004 183.376799 
L 378.473368 183.162589 
L 377.858052 182.122065 
L 377.571601 181.745795 
L 377.518373 181.675998 
L 377.155737 181.339113 
L 376.982314 181.180862 
L 376.425842 180.72497 
L 364.835778 171.498706 
L 356.547082 164.90095 
L 350.062883 159.739648 
L 349.616434 159.413223 
L 348.963286 159.088062 
L 348.925075 159.07319 
L 348.147345 158.775374 
L 347.443198 158.518468 
L 347.028684 158.34766 
L 346.676559 158.176755 
L 346.553502 158.08557 
L 346.223524 157.842821 
L 345.772373 157.492146 
L 344.529763 156.499561 
L 344.337701 156.3461 
L 342.453751 154.837124 
L 340.571559 153.328213 
L 338.677258 151.810886 
L 336.706512 150.232288 
L 334.898908 148.782852 
L 332.990556 147.254462 
L 332.93459 147.196764 
L 330.072558 144.904603 
L 329.864663 144.738138 
L 314.170565 132.167812 
L 313.732324 131.777988 
L 312.061831 130.571889 
L 311.69173 130.305006 
L 311.299318 130.022265 
L 308.986699 132.922925 
L 308.983781 132.926582 
L 308.54854 133.472034 
L 307.679585 132.79394 
L 307.251659 132.478642 
L 306.466385 133.521945 
L 305.319083 135.045387 
L 300.630065 142.375908 
L 298.500197 145.852375 
L 295.600404 151.022188 
L 294.87247 152.305027 
L 293.618665 154.511412 
L 293.133704 155.3657 
L 292.309278 156.819465 
L 291.046035 158.956824 
L 287.726158 164.294468 
L 286.550901 166.199423 
L 284.417624 169.370821 
L 284.039301 169.933253 
L 283.738699 170.378707 
L 282.765417 171.827241 
L 282.532549 172.172733 
L 279.59422 176.540669 
L 279.60265 176.551874 
L 279.237096 177.091731 
L 279.226764 177.0787 
L 277.595847 174.906273 
L 276.762798 173.796502 
L 276.439886 173.364524 
L 275.645547 172.306745 
L 275.255417 171.787178 
L 274.490941 172.918177 
L 273.840227 172.40105 
L 271.652215 170.66013 
L 270.880074 170.046116 
L 270.232263 169.534531 
L 269.280838 168.778015 
L 268.918587 168.490099 
L 266.060141 166.222427 
L 265.305905 165.623625 
L 264.308985 164.830015 
L 263.88809 164.494921 
L 262.210764 163.159828 
L 261.653139 162.726399 
L 261.30717 162.442716 
L 258.197922 159.974393 
L 257.215074 159.191323 
L 256.868383 158.917829 
L 256.351821 158.506768 
L 255.591087 157.901308 
L 255.544413 157.86507 
L 254.741716 157.226072 
L 254.365959 156.925672 
L 253.999544 156.635523 
L 253.936314 156.648715 
L 253.816311 156.685318 
L 253.209783 157.238707 
L 252.730028 157.679212 
L 250.842926 159.417796 
L 249.818333 160.364762 
L 249.663407 160.194223 
L 249.511041 160.021391 
L 249.361233 159.846265 
L 249.259763 159.724417 
L 249.159481 159.601517 
L 249.060483 159.477656 
L 249.015793 159.420756 
L 248.971285 159.363665 
L 248.927052 159.306382 
L 248.848965 159.202605 
L 248.772529 159.097673 
L 248.697653 158.991589 
L 248.630483 158.893271 
L 248.56478 158.793897 
L 248.500549 158.693651 
L 248.408557 158.54445 
L 248.319784 158.393314 
L 248.234228 158.240244 
L 248.152081 158.085422 
L 248.030202 157.839538 
L 247.91662 157.589745 
L 247.811527 157.336227 
L 247.71502 157.079261 
L 247.627202 156.819218 
L 247.619326 156.794659 
L 247.611543 156.770099 
L 247.60376 156.745538 
L 247.537337 156.524042 
L 247.474151 156.301545 
L 247.414301 156.07823 
L 247.357424 155.854665 
L 247.303885 155.630376 
L 247.253681 155.405271 
L 246.470817 152.41616 
L 246.431255 152.236361 
L 246.389283 152.05708 
L 246.344993 151.878314 
L 246.306803 151.732543 
L 246.267036 151.587085 
L 246.228538 151.451784 
L 246.22579 151.442125 
L 246.216166 151.409765 
L 246.206544 151.3775 
L 246.196735 151.345238 
L 246.144898 151.179415 
L 246.088715 151.015085 
L 246.028279 150.852245 
L 245.963596 150.691081 
L 245.895338 150.532605 
L 245.823022 150.375989 
L 245.746649 150.221324 
L 245.666223 150.068706 
L 245.581445 149.917299 
L 245.492712 149.768216 
L 245.400119 149.621547 
L 245.30376 149.477291 
L 245.198324 149.326603 
L 245.090963 149.177355 
L 244.981675 149.029455 
L 244.870084 148.882724 
L 244.756476 148.737528 
L 244.641036 148.593771 
L 244.105308 147.933725 
L 244.016681 147.824855 
L 243.634893 147.354589 
L 242.901424 146.450647 
L 242.549556 146.016975 
L 242.43185 145.871774 
L 239.548931 142.320253 
L 239.317278 142.036116 
L 239.084253 141.753128 
L 238.849854 141.47129 
L 238.780884 141.389341 
L 238.71173 141.307489 
L 238.642576 141.225637 
L 238.514406 141.074594 
L 238.38587 140.923839 
L 238.279019 140.799187 
L 238.128946 140.624938 
L 238.000559 140.476792 
L 237.871711 140.328936 
L 237.819605 140.269396 
L 237.767501 140.209948 
L 237.71521 140.150504 
L 237.564555 139.979879 
L 237.412801 139.810117 
L 237.259951 139.641404 
L 237.059585 139.423224 
L 236.857484 139.206666 
L 236.653556 138.991827 
L 236.380116 138.709047 
L 236.103574 138.429319 
L 235.824023 138.15264 
L 235.541554 137.878916 
L 235.264438 137.616089 
L 234.984588 137.356119 
L 234.702102 137.099191 
L 234.416884 136.845214 
L 234.229874 136.681801 
L 234.041774 136.519624 
L 233.852583 136.358776 
L 233.801667 136.315912 
L 233.750661 136.273143 
L 233.699563 136.23047 
L 233.507043 136.07072 
L 233.314071 135.911632 
L 233.120462 135.753212 
L 232.927989 135.5957 
L 232.734878 135.438855 
L 232.541316 135.282673 
L 232.372701 135.147981 
L 232.203721 135.01367 
L 232.034287 134.879928 
L 231.85227 134.736843 
L 231.669797 134.594235 
L 231.486872 134.452289 
L 228.422074 132.085578 
L 226.485481 130.589487 
" clip-path="url(#p68e460e687)" style="fill: #d3d3d3"/>
   </g>
   <g id="matplotlib.axis_1">
    <g id="xtick_1">
     <g id="line2d_1">
      <defs>
       <path id="m44f1c997d1" d="M 0 0 
L 0 3.5 
" style="stroke: #000000; stroke-width: 0.8"/>
      </defs>
      <g>
       <use xlink:href="#m44f1c997d1" x="129.740698" y="640.8" style="stroke: #000000; stroke-width: 0.8"/>
      </g>
     </g>
     <g id="text_1">
      <!-- 13.45 -->
      <g transform="translate(115.426635 655.398438) scale(0.1 -0.1)">
       <defs>
        <path id="DejaVuSans-31" d="M 794 531 
L 1825 531 
L 1825 4091 
L 703 3866 
L 703 4441 
L 1819 4666 
L 2450 4666 
L 2450 531 
L 3481 531 
L 3481 0 
L 794 0 
L 794 531 
z
" transform="scale(0.015625)"/>
        <path id="DejaVuSans-33" d="M 2597 2516 
Q 3050 2419 3304 2112 
Q 3559 1806 3559 1356 
Q 3559 666 3084 287 
Q 2609 -91 1734 -91 
Q 1441 -91 1130 -33 
Q 819 25 488 141 
L 488 750 
Q 750 597 1062 519 
Q 1375 441 1716 441 
Q 2309 441 2620 675 
Q 2931 909 2931 1356 
Q 2931 1769 2642 2001 
Q 2353 2234 1838 2234 
L 1294 2234 
L 1294 2753 
L 1863 2753 
Q 2328 2753 2575 2939 
Q 2822 3125 2822 3475 
Q 2822 3834 2567 4026 
Q 2313 4219 1838 4219 
Q 1578 4219 1281 4162 
Q 984 4106 628 3988 
L 628 4550 
Q 988 4650 1302 4700 
Q 1616 4750 1894 4750 
Q 2613 4750 3031 4423 
Q 3450 4097 3450 3541 
Q 3450 3153 3228 2886 
Q 3006 2619 2597 2516 
z
" transform="scale(0.015625)"/>
        <path id="DejaVuSans-2e" d="M 684 794 
L 1344 794 
L 1344 0 
L 684 0 
L 684 794 
z
" transform="scale(0.015625)"/>
        <path id="DejaVuSans-34" d="M 2419 4116 
L 825 1625 
L 2419 1625 
L 2419 4116 
z
M 2253 4666 
L 3047 4666 
L 3047 1625 
L 3713 1625 
L 3713 1100 
L 3047 1100 
L 3047 0 
L 2419 0 
L 2419 1100 
L 313 1100 
L 313 1709 
L 2253 4666 
z
" transform="scale(0.015625)"/>
        <path id="DejaVuSans-35" d="M 691 4666 
L 3169 4666 
L 3169 4134 
L 1269 4134 
L 1269 2991 
Q 1406 3038 1543 3061 
Q 1681 3084 1819 3084 
Q 2600 3084 3056 2656 
Q 3513 2228 3513 1497 
Q 3513 744 3044 326 
Q 2575 -91 1722 -91 
Q 1428 -91 1123 -41 
Q 819 9 494 109 
L 494 744 
Q 775 591 1075 516 
Q 1375 441 1709 441 
Q 2250 441 2565 725 
Q 2881 1009 2881 1497 
Q 2881 1984 2565 2268 
Q 2250 2553 1709 2553 
Q 1456 2553 1204 2497 
Q 953 2441 691 2322 
L 691 4666 
z
" transform="scale(0.015625)"/>
       </defs>
       <use xlink:href="#DejaVuSans-31"/>
       <use xlink:href="#DejaVuSans-33" x="63.623047"/>
       <use xlink:href="#DejaVuSans-2e" x="127.246094"/>
       <use xlink:href="#DejaVuSans-34" x="159.033203"/>
       <use xlink:href="#DejaVuSans-35" x="222.65625"/>
      </g>
     </g>
    </g>
    <g id="xtick_2">
     <g id="line2d_2">
      <g>
       <use xlink:href="#m44f1c997d1" x="193.033608" y="640.8" style="stroke: #000000; stroke-width: 0.8"/>
      </g>
     </g>
     <g id="text_2">
      <!-- 13.46 -->
      <g transform="translate(178.719545 655.398438) scale(0.1 -0.1)">
       <defs>
        <path id="DejaVuSans-36" d="M 2113 2584 
Q 1688 2584 1439 2293 
Q 1191 2003 1191 1497 
Q 1191 994 1439 701 
Q 1688 409 2113 409 
Q 2538 409 2786 701 
Q 3034 994 3034 1497 
Q 3034 2003 2786 2293 
Q 2538 2584 2113 2584 
z
M 3366 4563 
L 3366 3988 
Q 3128 4100 2886 4159 
Q 2644 4219 2406 4219 
Q 1781 4219 1451 3797 
Q 1122 3375 1075 2522 
Q 1259 2794 1537 2939 
Q 1816 3084 2150 3084 
Q 2853 3084 3261 2657 
Q 3669 2231 3669 1497 
Q 3669 778 3244 343 
Q 2819 -91 2113 -91 
Q 1303 -91 875 529 
Q 447 1150 447 2328 
Q 447 3434 972 4092 
Q 1497 4750 2381 4750 
Q 2619 4750 2861 4703 
Q 3103 4656 3366 4563 
z
" transform="scale(0.015625)"/>
       </defs>
       <use xlink:href="#DejaVuSans-31"/>
       <use xlink:href="#DejaVuSans-33" x="63.623047"/>
       <use xlink:href="#DejaVuSans-2e" x="127.246094"/>
       <use xlink:href="#DejaVuSans-34" x="159.033203"/>
       <use xlink:href="#DejaVuSans-36" x="222.65625"/>
      </g>
     </g>
    </g>
    <g id="xtick_3">
     <g id="line2d_3">
      <g>
       <use xlink:href="#m44f1c997d1" x="256.326518" y="640.8" style="stroke: #000000; stroke-width: 0.8"/>
      </g>
     </g>
     <g id="text_3">
      <!-- 13.47 -->
      <g transform="translate(242.012456 655.398438) scale(0.1 -0.1)">
       <defs>
        <path id="DejaVuSans-37" d="M 525 4666 
L 3525 4666 
L 3525 4397 
L 1831 0 
L 1172 0 
L 2766 4134 
L 525 4134 
L 525 4666 
z
" transform="scale(0.015625)"/>
       </defs>
       <use xlink:href="#DejaVuSans-31"/>
       <use xlink:href="#DejaVuSans-33" x="63.623047"/>
       <use xlink:href="#DejaVuSans-2e" x="127.246094"/>
       <use xlink:href="#DejaVuSans-34" x="159.033203"/>
       <use xlink:href="#DejaVuSans-37" x="222.65625"/>
      </g>
     </g>
    </g>
    <g id="xtick_4">
     <g id="line2d_4">
      <g>
       <use xlink:href="#m44f1c997d1" x="319.619428" y="640.8" style="stroke: #000000; stroke-width: 0.8"/>
      </g>
     </g>
     <g id="text_4">
      <!-- 13.48 -->
      <g transform="translate(305.305366 655.398438) scale(0.1 -0.1)">
       <defs>
        <path id="DejaVuSans-38" d="M 2034 2216 
Q 1584 2216 1326 1975 
Q 1069 1734 1069 1313 
Q 1069 891 1326 650 
Q 1584 409 2034 409 
Q 2484 409 2743 651 
Q 3003 894 3003 1313 
Q 3003 1734 2745 1975 
Q 2488 2216 2034 2216 
z
M 1403 2484 
Q 997 2584 770 2862 
Q 544 3141 544 3541 
Q 544 4100 942 4425 
Q 1341 4750 2034 4750 
Q 2731 4750 3128 4425 
Q 3525 4100 3525 3541 
Q 3525 3141 3298 2862 
Q 3072 2584 2669 2484 
Q 3125 2378 3379 2068 
Q 3634 1759 3634 1313 
Q 3634 634 3220 271 
Q 2806 -91 2034 -91 
Q 1263 -91 848 271 
Q 434 634 434 1313 
Q 434 1759 690 2068 
Q 947 2378 1403 2484 
z
M 1172 3481 
Q 1172 3119 1398 2916 
Q 1625 2713 2034 2713 
Q 2441 2713 2670 2916 
Q 2900 3119 2900 3481 
Q 2900 3844 2670 4047 
Q 2441 4250 2034 4250 
Q 1625 4250 1398 4047 
Q 1172 3844 1172 3481 
z
" transform="scale(0.015625)"/>
       </defs>
       <use xlink:href="#DejaVuSans-31"/>
       <use xlink:href="#DejaVuSans-33" x="63.623047"/>
       <use xlink:href="#DejaVuSans-2e" x="127.246094"/>
       <use xlink:href="#DejaVuSans-34" x="159.033203"/>
       <use xlink:href="#DejaVuSans-38" x="222.65625"/>
      </g>
     </g>
    </g>
    <g id="xtick_5">
     <g id="line2d_5">
      <g>
       <use xlink:href="#m44f1c997d1" x="382.912339" y="640.8" style="stroke: #000000; stroke-width: 0.8"/>
      </g>
     </g>
     <g id="text_5">
      <!-- 13.49 -->
      <g transform="translate(368.598276 655.398438) scale(0.1 -0.1)">
       <defs>
        <path id="DejaVuSans-39" d="M 703 97 
L 703 672 
Q 941 559 1184 500 
Q 1428 441 1663 441 
Q 2288 441 2617 861 
Q 2947 1281 2994 2138 
Q 2813 1869 2534 1725 
Q 2256 1581 1919 1581 
Q 1219 1581 811 2004 
Q 403 2428 403 3163 
Q 403 3881 828 4315 
Q 1253 4750 1959 4750 
Q 2769 4750 3195 4129 
Q 3622 3509 3622 2328 
Q 3622 1225 3098 567 
Q 2575 -91 1691 -91 
Q 1453 -91 1209 -44 
Q 966 3 703 97 
z
M 1959 2075 
Q 2384 2075 2632 2365 
Q 2881 2656 2881 3163 
Q 2881 3666 2632 3958 
Q 2384 4250 1959 4250 
Q 1534 4250 1286 3958 
Q 1038 3666 1038 3163 
Q 1038 2656 1286 2365 
Q 1534 2075 1959 2075 
z
" transform="scale(0.015625)"/>
       </defs>
       <use xlink:href="#DejaVuSans-31"/>
       <use xlink:href="#DejaVuSans-33" x="63.623047"/>
       <use xlink:href="#DejaVuSans-2e" x="127.246094"/>
       <use xlink:href="#DejaVuSans-34" x="159.033203"/>
       <use xlink:href="#DejaVuSans-39" x="222.65625"/>
      </g>
     </g>
    </g>
    <g id="xtick_6">
     <g id="line2d_6">
      <g>
       <use xlink:href="#m44f1c997d1" x="446.205249" y="640.8" style="stroke: #000000; stroke-width: 0.8"/>
      </g>
     </g>
     <g id="text_6">
      <!-- 13.50 -->
      <g transform="translate(431.891186 655.398438) scale(0.1 -0.1)">
       <defs>
        <path id="DejaVuSans-30" d="M 2034 4250 
Q 1547 4250 1301 3770 
Q 1056 3291 1056 2328 
Q 1056 1369 1301 889 
Q 1547 409 2034 409 
Q 2525 409 2770 889 
Q 3016 1369 3016 2328 
Q 3016 3291 2770 3770 
Q 2525 4250 2034 4250 
z
M 2034 4750 
Q 2819 4750 3233 4129 
Q 3647 3509 3647 2328 
Q 3647 1150 3233 529 
Q 2819 -91 2034 -91 
Q 1250 -91 836 529 
Q 422 1150 422 2328 
Q 422 3509 836 4129 
Q 1250 4750 2034 4750 
z
" transform="scale(0.015625)"/>
       </defs>
       <use xlink:href="#DejaVuSans-31"/>
       <use xlink:href="#DejaVuSans-33" x="63.623047"/>
       <use xlink:href="#DejaVuSans-2e" x="127.246094"/>
       <use xlink:href="#DejaVuSans-35" x="159.033203"/>
       <use xlink:href="#DejaVuSans-30" x="222.65625"/>
      </g>
     </g>
    </g>
    <g id="xtick_7">
     <g id="line2d_7">
      <g>
       <use xlink:href="#m44f1c997d1" x="509.498159" y="640.8" style="stroke: #000000; stroke-width: 0.8"/>
      </g>
     </g>
     <g id="text_7">
      <!-- 13.51 -->
      <g transform="translate(495.184097 655.398438) scale(0.1 -0.1)">
       <use xlink:href="#DejaVuSans-31"/>
       <use xlink:href="#DejaVuSans-33" x="63.623047"/>
       <use xlink:href="#DejaVuSans-2e" x="127.246094"/>
       <use xlink:href="#DejaVuSans-35" x="159.033203"/>
       <use xlink:href="#DejaVuSans-31" x="222.65625"/>
      </g>
     </g>
    </g>
    <g id="xtick_8">
     <g id="line2d_8">
      <g>
       <use xlink:href="#m44f1c997d1" x="572.791069" y="640.8" style="stroke: #000000; stroke-width: 0.8"/>
      </g>
     </g>
     <g id="text_8">
      <!-- 13.52 -->
      <g transform="translate(558.477007 655.398438) scale(0.1 -0.1)">
       <defs>
        <path id="DejaVuSans-32" d="M 1228 531 
L 3431 531 
L 3431 0 
L 469 0 
L 469 531 
Q 828 903 1448 1529 
Q 2069 2156 2228 2338 
Q 2531 2678 2651 2914 
Q 2772 3150 2772 3378 
Q 2772 3750 2511 3984 
Q 2250 4219 1831 4219 
Q 1534 4219 1204 4116 
Q 875 4013 500 3803 
L 500 4441 
Q 881 4594 1212 4672 
Q 1544 4750 1819 4750 
Q 2544 4750 2975 4387 
Q 3406 4025 3406 3419 
Q 3406 3131 3298 2873 
Q 3191 2616 2906 2266 
Q 2828 2175 2409 1742 
Q 1991 1309 1228 531 
z
" transform="scale(0.015625)"/>
       </defs>
       <use xlink:href="#DejaVuSans-31"/>
       <use xlink:href="#DejaVuSans-33" x="63.623047"/>
       <use xlink:href="#DejaVuSans-2e" x="127.246094"/>
       <use xlink:href="#DejaVuSans-35" x="159.033203"/>
       <use xlink:href="#DejaVuSans-32" x="222.65625"/>
      </g>
     </g>
    </g>
   </g>
   <g id="matplotlib.axis_2">
    <g id="ytick_1">
     <g id="line2d_9">
      <defs>
       <path id="m2d9028daa3" d="M 0 0 
L -3.5 0 
" style="stroke: #000000; stroke-width: 0.8"/>
      </defs>
      <g>
       <use xlink:href="#m2d9028daa3" x="116.540196" y="573.529998" style="stroke: #000000; stroke-width: 0.8"/>
      </g>
     </g>
     <g id="text_9">
      <!-- 52.40 -->
      <g transform="translate(80.912071 577.329217) scale(0.1 -0.1)">
       <use xlink:href="#DejaVuSans-35"/>
       <use xlink:href="#DejaVuSans-32" x="63.623047"/>
       <use xlink:href="#DejaVuSans-2e" x="127.246094"/>
       <use xlink:href="#DejaVuSans-34" x="159.033203"/>
       <use xlink:href="#DejaVuSans-30" x="222.65625"/>
      </g>
     </g>
    </g>
    <g id="ytick_2">
     <g id="line2d_10">
      <g>
       <use xlink:href="#m2d9028daa3" x="116.540196" y="469.754926" style="stroke: #000000; stroke-width: 0.8"/>
      </g>
     </g>
     <g id="text_10">
      <!-- 52.41 -->
      <g transform="translate(80.912071 473.554145) scale(0.1 -0.1)">
       <use xlink:href="#DejaVuSans-35"/>
       <use xlink:href="#DejaVuSans-32" x="63.623047"/>
       <use xlink:href="#DejaVuSans-2e" x="127.246094"/>
       <use xlink:href="#DejaVuSans-34" x="159.033203"/>
       <use xlink:href="#DejaVuSans-31" x="222.65625"/>
      </g>
     </g>
    </g>
    <g id="ytick_3">
     <g id="line2d_11">
      <g>
       <use xlink:href="#m2d9028daa3" x="116.540196" y="365.979854" style="stroke: #000000; stroke-width: 0.8"/>
      </g>
     </g>
     <g id="text_11">
      <!-- 52.42 -->
      <g transform="translate(80.912071 369.779073) scale(0.1 -0.1)">
       <use xlink:href="#DejaVuSans-35"/>
       <use xlink:href="#DejaVuSans-32" x="63.623047"/>
       <use xlink:href="#DejaVuSans-2e" x="127.246094"/>
       <use xlink:href="#DejaVuSans-34" x="159.033203"/>
       <use xlink:href="#DejaVuSans-32" x="222.65625"/>
      </g>
     </g>
    </g>
    <g id="ytick_4">
     <g id="line2d_12">
      <g>
       <use xlink:href="#m2d9028daa3" x="116.540196" y="262.204782" style="stroke: #000000; stroke-width: 0.8"/>
      </g>
     </g>
     <g id="text_12">
      <!-- 52.43 -->
      <g transform="translate(80.912071 266.004001) scale(0.1 -0.1)">
       <use xlink:href="#DejaVuSans-35"/>
       <use xlink:href="#DejaVuSans-32" x="63.623047"/>
       <use xlink:href="#DejaVuSans-2e" x="127.246094"/>
       <use xlink:href="#DejaVuSans-34" x="159.033203"/>
       <use xlink:href="#DejaVuSans-33" x="222.65625"/>
      </g>
     </g>
    </g>
    <g id="ytick_5">
     <g id="line2d_13">
      <g>
       <use xlink:href="#m2d9028daa3" x="116.540196" y="158.42971" style="stroke: #000000; stroke-width: 0.8"/>
      </g>
     </g>
     <g id="text_13">
      <!-- 52.44 -->
      <g transform="translate(80.912071 162.228929) scale(0.1 -0.1)">
       <use xlink:href="#DejaVuSans-35"/>
       <use xlink:href="#DejaVuSans-32" x="63.623047"/>
       <use xlink:href="#DejaVuSans-2e" x="127.246094"/>
       <use xlink:href="#DejaVuSans-34" x="159.033203"/>
       <use xlink:href="#DejaVuSans-34" x="222.65625"/>
      </g>
     </g>
    </g>
   </g>
   <g id="LineCollection_1">
    <path d="M 487.817173 545.36233 
L 486.451312 548.686246 
L 482.898681 557.330709 
L 483.042989 557.792508 
" clip-path="url(#p68e460e687)" style="fill: none; stroke: #ff0000; stroke-opacity: 0.7; stroke-width: 0.5"/>
    <path d="M 169.667764 217.82226 
L 170.001318 217.230742 
L 170.492471 216.360069 
L 171.836179 214.059375 
L 173.17166 211.544905 
L 174.039405 209.667614 
L 174.245107 208.965057 
" clip-path="url(#p68e460e687)" style="fill: none; stroke: #ff0000; stroke-opacity: 0.7; stroke-width: 0.5"/>
    <path d="M 512.121017 526.307151 
L 511.481126 526.754422 
L 511.249474 526.910085 
L 511.097571 527.012822 
L 510.663382 527.311694 
L 509.994376 527.720568 
L 507.667095 529.142286 
L 506.570229 529.834466 
L 503.13912 531.999214 
L 497.942773 535.275393 
L 497.457949 535.580492 
L 497.052241 535.836816 
L 493.943926 537.798165 
L 493.542649 538.051376 
" clip-path="url(#p68e460e687)" style="fill: none; stroke: #ff0000; stroke-opacity: 0.7; stroke-width: 0.5"/>
    <path d="M 511.776071 558.441102 
L 507.713932 552.082804 
L 503.727112 545.659127 
L 503.406217 545.141289 
L 503.010636 544.505148 
L 498.937737 537.959016 
L 497.829478 536.193802 
L 497.457949 535.580492 
L 497.068065 534.960955 
L 494.44394 530.786083 
L 494.11102 530.230887 
L 492.120458 527.075087 
L 491.754625 526.49706 
L 487.683625 520.049515 
L 487.377287 519.563847 
L 486.915249 518.824969 
L 486.254471 517.75401 
L 485.870916 517.085698 
L 483.810732 513.799142 
L 483.260716 512.922243 
L 483.183499 512.411669 
" clip-path="url(#p68e460e687)" style="fill: none; stroke: #ff0000; stroke-opacity: 0.7; stroke-width: 0.5"/>
    <path d="M 459.074596 537.309384 
L 459.446759 537.883261 
L 464.619688 546.032717 
L 467.681799 551.06477 
L 468.772969 552.856966 
L 469.128042 553.440182 
" clip-path="url(#p68e460e687)" style="fill: none; stroke: #ff0000; stroke-opacity: 0.7; stroke-width: 0.5"/>
    <path d="M 476.103554 526.670364 
L 476.437108 527.196504 
L 480.502411 533.624332 
L 480.892928 534.267737 
L 482.852477 537.338441 
L 483.180967 537.861468 
L 485.801927 542.084076 
L 486.166494 542.671442 
L 486.533593 543.285791 
L 487.677295 545.107043 
L 487.817173 545.36233 
L 491.676142 551.609589 
L 492.057798 552.228089 
L 492.269196 552.565358 
L 496.43387 559.213189 
L 498.413672 562.371064 
" clip-path="url(#p68e460e687)" style="fill: none; stroke: #ff0000; stroke-opacity: 0.7; stroke-width: 0.5"/>
    <path d="M 453.424438 540.890662 
L 453.749131 541.437557 
L 457.392271 547.477266 
L 461.909486 554.500763 
L 462.00759 554.65435 
L 463.132305 556.40296 
L 463.506366 556.9841 
" clip-path="url(#p68e460e687)" style="fill: none; stroke: #ff0000; stroke-opacity: 0.7; stroke-width: 0.5"/>
    <path d="M 480.705581 559.028469 
L 480.344179 558.721295 
L 476.306091 552.295543 
L 475.199098 550.526178 
L 474.78896 549.871357 
L 474.394645 549.266348 
L 473.140813 547.340283 
L 471.3338 544.53628 
L 469.057154 540.867832 
L 468.958417 540.708018 
L 465.054511 534.304058 
L 464.746907 533.799712 
" clip-path="url(#p68e460e687)" style="fill: none; stroke: #ff0000; stroke-opacity: 0.7; stroke-width: 0.5"/>
    <path d="M 522.239655 545.536672 
L 522.223199 545.773279 
L 520.360488 549.058798 
L 518.484487 551.875254 
L 517.293314 553.376879 
L 516.374301 554.406328 
L 515.333766 555.55408 
L 514.30842 556.442394 
L 513.981829 556.756833 
L 513.069778 557.513353 
L 511.776071 558.441102 
L 509.864625 559.525552 
L 508.5475 560.111881 
L 507.534813 560.525944 
L 505.832234 561.025102 
L 505.572733 561.062461 
L 504.211935 561.4319 
L 502.316313 561.810679 
L 498.413672 562.371064 
L 495.060413 562.464462 
L 493.650247 562.436443 
L 491.515378 562.31295 
L 488.926065 562.162476 
L 485.075957 561.322936 
L 483.853138 561.059347 
L 483.106914 560.800947 
" clip-path="url(#p68e460e687)" style="fill: none; stroke: #ff0000; stroke-opacity: 0.7; stroke-width: 0.5"/>
    <path d="M 516.597725 536.738622 
L 515.800234 537.238817 
L 512.688755 539.224035 
L 512.326719 539.455453 
L 510.090581 540.879247 
L 509.122832 541.495671 
L 506.324653 543.278527 
L 503.96003 544.787416 
L 503.406217 545.141289 
L 497.730108 548.595961 
L 492.057798 552.228089 
L 489.671655 553.748394 
L 486.38169 555.843612 
L 483.042989 557.792508 
L 481.177746 558.92677 
L 480.705581 559.028469 
" clip-path="url(#p68e460e687)" style="fill: none; stroke: #ff0000; stroke-opacity: 0.7; stroke-width: 0.5"/>
    <path d="M 480.705581 559.028469 
L 480.468866 559.476778 
L 480.397345 559.612723 
L 478.885277 560.543585 
L 475.017448 562.8806 
L 474.306668 563.310229 
L 469.336276 566.35914 
L 466.879878 568.055863 
L 466.564046 568.401434 
L 452.427575 577.306373 
" clip-path="url(#p68e460e687)" style="fill: none; stroke: #ff0000; stroke-opacity: 0.7; stroke-width: 0.5"/>
    <path d="M 479.441622 560.990856 
L 480.668239 559.931312 
L 482.444871 558.884222 
L 483.193626 558.44214 
" clip-path="url(#p68e460e687)" style="fill: none; stroke: #ff0000; stroke-opacity: 0.7; stroke-width: 0.5"/>
    <path d="M 498.388355 518.00307 
L 497.884543 519.509884 
" clip-path="url(#p68e460e687)" style="fill: none; stroke: #ff0000; stroke-opacity: 0.7; stroke-width: 0.5"/>
    <path d="M 482.620192 561.171424 
L 482.094861 561.526335 
L 481.788523 561.935209 
L 481.452438 561.708979 
L 481.049262 561.61662 
L 480.427725 561.42256 
L 480.013157 561.263784 
L 479.441622 560.990856 
L 478.885277 560.543585 
" clip-path="url(#p68e460e687)" style="fill: none; stroke: #ff0000; stroke-opacity: 0.7; stroke-width: 0.5"/>
    <path d="M 483.106914 560.800947 
L 482.620192 561.171424 
" clip-path="url(#p68e460e687)" style="fill: none; stroke: #ff0000; stroke-opacity: 0.7; stroke-width: 0.5"/>
    <path d="M 539.916099 460.855176 
L 539.742676 460.990083 
L 538.063515 462.119156 
L 537.156528 462.565389 
L 536.826772 462.511426 
L 536.545119 462.248875 
" clip-path="url(#p68e460e687)" style="fill: none; stroke: #ff0000; stroke-opacity: 0.7; stroke-width: 0.5"/>
    <path d="M 493.542649 538.051376 
L 491.789436 539.149316 
L 486.166494 542.671442 
L 480.411902 546.3264 
L 475.301633 549.548616 
L 474.78896 549.871357 
L 474.411734 550.109002 
L 469.555902 553.170366 
L 469.128042 553.440182 
L 468.741323 553.684053 
L 463.98043 556.685228 
L 463.506366 556.9841 
" clip-path="url(#p68e460e687)" style="fill: none; stroke: #ff0000; stroke-opacity: 0.7; stroke-width: 0.5"/>
    <path d="M 531.960813 455.303209 
L 531.799416 455.059338 
L 531.651311 454.834146 
L 529.498719 451.573533 
L 527.36195 448.335751 
L 527.218275 448.118861 
L 526.899912 447.653949 
" clip-path="url(#p68e460e687)" style="fill: none; stroke: #ff0000; stroke-opacity: 0.7; stroke-width: 0.5"/>
    <path d="M 532.488676 456.103315 
L 531.960813 455.303209 
" clip-path="url(#p68e460e687)" style="fill: none; stroke: #ff0000; stroke-opacity: 0.7; stroke-width: 0.5"/>
    <path d="M 494.619262 529.871825 
L 494.897118 528.822659 
" clip-path="url(#p68e460e687)" style="fill: none; stroke: #ff0000; stroke-opacity: 0.7; stroke-width: 0.5"/>
    <path d="M 483.106914 560.800947 
L 482.272714 560.512453 
L 481.749281 560.309054 
L 480.668239 559.931312 
L 480.397345 559.612723 
" clip-path="url(#p68e460e687)" style="fill: none; stroke: #ff0000; stroke-opacity: 0.7; stroke-width: 0.5"/>
    <path d="M 478.709956 560.8134 
L 483.252488 558.121475 
L 483.365782 559.010827 
L 483.346795 559.971785 
L 483.258817 560.575756 
L 482.948049 561.067649 
L 482.445503 561.644639 
L 481.735357 562.055588 
L 480.992298 562.203986 
L 480.18658 562.098136 
L 479.516308 561.801339 
L 479.087182 561.478599 
L 478.771983 561.130952 
L 478.709956 560.8134 
" clip-path="url(#p68e460e687)" style="fill: none; stroke: #ff0000; stroke-opacity: 0.7; stroke-width: 0.5"/>
    <path d="M 483.042989 557.792508 
L 483.193626 558.44214 
L 483.284135 559.236019 
L 483.272109 559.856594 
L 483.106914 560.800947 
" clip-path="url(#p68e460e687)" style="fill: none; stroke: #ff0000; stroke-opacity: 0.7; stroke-width: 0.5"/>
    <path d="M 469.219184 566.171307 
L 469.336276 566.35914 
" clip-path="url(#p68e460e687)" style="fill: none; stroke: #ff0000; stroke-opacity: 0.7; stroke-width: 0.5"/>
    <path d="M 474.882634 562.664748 
L 475.017448 562.8806 
" clip-path="url(#p68e460e687)" style="fill: none; stroke: #ff0000; stroke-opacity: 0.7; stroke-width: 0.5"/>
    <path d="M 536.545119 462.248875 
L 536.091308 461.560846 
L 534.474174 459.110717 
L 533.907703 458.253535 
L 533.194392 457.172198 
L 532.488676 456.103315 
" clip-path="url(#p68e460e687)" style="fill: none; stroke: #ff0000; stroke-opacity: 0.7; stroke-width: 0.5"/>
    <path d="M 463.506366 556.9841 
L 463.043695 557.273633 
L 460.607551 558.797051 
L 457.983427 560.44915 
L 455.245375 562.172854 
L 454.594091 562.579652 
L 452.834548 563.698347 
L 451.737049 564.231751 
L 451.242099 564.308545 
L 450.351567 564.347979 
" clip-path="url(#p68e460e687)" style="fill: none; stroke: #ff0000; stroke-opacity: 0.7; stroke-width: 0.5"/>
    <path d="M 494.11102 530.230887 
L 494.619262 529.871825 
" clip-path="url(#p68e460e687)" style="fill: none; stroke: #ff0000; stroke-opacity: 0.7; stroke-width: 0.5"/>
   </g>
   <g id="patch_3">
    <path d="M 116.540196 640.8 
L 116.540196 86.4 
" style="fill: none; stroke: #000000; stroke-width: 0.8; stroke-linejoin: miter; stroke-linecap: square"/>
   </g>
   <g id="patch_4">
    <path d="M 621.459804 640.8 
L 621.459804 86.4 
" style="fill: none; stroke: #000000; stroke-width: 0.8; stroke-linejoin: miter; stroke-linecap: square"/>
   </g>
   <g id="patch_5">
    <path d="M 116.540196 640.8 
L 621.459804 640.8 
" style="fill: none; stroke: #000000; stroke-width: 0.8; stroke-linejoin: miter; stroke-linecap: square"/>
   </g>
   <g id="patch_6">
    <path d="M 116.540196 86.4 
L 621.459804 86.4 
" style="fill: none; stroke: #000000; stroke-width: 0.8; stroke-linejoin: miter; stroke-linecap: square"/>
   </g>
   <g id="text_14">
    <!-- Buckow_Nord_Rudow -->
    <g transform="translate(330.078797 376.862626) scale(0.12 -0.12)">
     <defs>
      <path id="DejaVuSans-42" d="M 1259 2228 
L 1259 519 
L 2272 519 
Q 2781 519 3026 730 
Q 3272 941 3272 1375 
Q 3272 1813 3026 2020 
Q 2781 2228 2272 2228 
L 1259 2228 
z
M 1259 4147 
L 1259 2741 
L 2194 2741 
Q 2656 2741 2882 2914 
Q 3109 3088 3109 3444 
Q 3109 3797 2882 3972 
Q 2656 4147 2194 4147 
L 1259 4147 
z
M 628 4666 
L 2241 4666 
Q 2963 4666 3353 4366 
Q 3744 4066 3744 3513 
Q 3744 3084 3544 2831 
Q 3344 2578 2956 2516 
Q 3422 2416 3680 2098 
Q 3938 1781 3938 1306 
Q 3938 681 3513 340 
Q 3088 0 2303 0 
L 628 0 
L 628 4666 
z
" transform="scale(0.015625)"/>
      <path id="DejaVuSans-75" d="M 544 1381 
L 544 3500 
L 1119 3500 
L 1119 1403 
Q 1119 906 1312 657 
Q 1506 409 1894 409 
Q 2359 409 2629 706 
Q 2900 1003 2900 1516 
L 2900 3500 
L 3475 3500 
L 3475 0 
L 2900 0 
L 2900 538 
Q 2691 219 2414 64 
Q 2138 -91 1772 -91 
Q 1169 -91 856 284 
Q 544 659 544 1381 
z
M 1991 3584 
L 1991 3584 
z
" transform="scale(0.015625)"/>
      <path id="DejaVuSans-63" d="M 3122 3366 
L 3122 2828 
Q 2878 2963 2633 3030 
Q 2388 3097 2138 3097 
Q 1578 3097 1268 2742 
Q 959 2388 959 1747 
Q 959 1106 1268 751 
Q 1578 397 2138 397 
Q 2388 397 2633 464 
Q 2878 531 3122 666 
L 3122 134 
Q 2881 22 2623 -34 
Q 2366 -91 2075 -91 
Q 1284 -91 818 406 
Q 353 903 353 1747 
Q 353 2603 823 3093 
Q 1294 3584 2113 3584 
Q 2378 3584 2631 3529 
Q 2884 3475 3122 3366 
z
" transform="scale(0.015625)"/>
      <path id="DejaVuSans-6b" d="M 581 4863 
L 1159 4863 
L 1159 1991 
L 2875 3500 
L 3609 3500 
L 1753 1863 
L 3688 0 
L 2938 0 
L 1159 1709 
L 1159 0 
L 581 0 
L 581 4863 
z
" transform="scale(0.015625)"/>
      <path id="DejaVuSans-6f" d="M 1959 3097 
Q 1497 3097 1228 2736 
Q 959 2375 959 1747 
Q 959 1119 1226 758 
Q 1494 397 1959 397 
Q 2419 397 2687 759 
Q 2956 1122 2956 1747 
Q 2956 2369 2687 2733 
Q 2419 3097 1959 3097 
z
M 1959 3584 
Q 2709 3584 3137 3096 
Q 3566 2609 3566 1747 
Q 3566 888 3137 398 
Q 2709 -91 1959 -91 
Q 1206 -91 779 398 
Q 353 888 353 1747 
Q 353 2609 779 3096 
Q 1206 3584 1959 3584 
z
" transform="scale(0.015625)"/>
      <path id="DejaVuSans-77" d="M 269 3500 
L 844 3500 
L 1563 769 
L 2278 3500 
L 2956 3500 
L 3675 769 
L 4391 3500 
L 4966 3500 
L 4050 0 
L 3372 0 
L 2619 2869 
L 1863 0 
L 1184 0 
L 269 3500 
z
" transform="scale(0.015625)"/>
      <path id="DejaVuSans-5f" d="M 3263 -1063 
L 3263 -1509 
L -63 -1509 
L -63 -1063 
L 3263 -1063 
z
" transform="scale(0.015625)"/>
      <path id="DejaVuSans-4e" d="M 628 4666 
L 1478 4666 
L 3547 763 
L 3547 4666 
L 4159 4666 
L 4159 0 
L 3309 0 
L 1241 3903 
L 1241 0 
L 628 0 
L 628 4666 
z
" transform="scale(0.015625)"/>
      <path id="DejaVuSans-72" d="M 2631 2963 
Q 2534 3019 2420 3045 
Q 2306 3072 2169 3072 
Q 1681 3072 1420 2755 
Q 1159 2438 1159 1844 
L 1159 0 
L 581 0 
L 581 3500 
L 1159 3500 
L 1159 2956 
Q 1341 3275 1631 3429 
Q 1922 3584 2338 3584 
Q 2397 3584 2469 3576 
Q 2541 3569 2628 3553 
L 2631 2963 
z
" transform="scale(0.015625)"/>
      <path id="DejaVuSans-64" d="M 2906 2969 
L 2906 4863 
L 3481 4863 
L 3481 0 
L 2906 0 
L 2906 525 
Q 2725 213 2448 61 
Q 2172 -91 1784 -91 
Q 1150 -91 751 415 
Q 353 922 353 1747 
Q 353 2572 751 3078 
Q 1150 3584 1784 3584 
Q 2172 3584 2448 3432 
Q 2725 3281 2906 2969 
z
M 947 1747 
Q 947 1113 1208 752 
Q 1469 391 1925 391 
Q 2381 391 2643 752 
Q 2906 1113 2906 1747 
Q 2906 2381 2643 2742 
Q 2381 3103 1925 3103 
Q 1469 3103 1208 2742 
Q 947 2381 947 1747 
z
" transform="scale(0.015625)"/>
      <path id="DejaVuSans-52" d="M 2841 2188 
Q 3044 2119 3236 1894 
Q 3428 1669 3622 1275 
L 4263 0 
L 3584 0 
L 2988 1197 
Q 2756 1666 2539 1819 
Q 2322 1972 1947 1972 
L 1259 1972 
L 1259 0 
L 628 0 
L 628 4666 
L 2053 4666 
Q 2853 4666 3247 4331 
Q 3641 3997 3641 3322 
Q 3641 2881 3436 2590 
Q 3231 2300 2841 2188 
z
M 1259 4147 
L 1259 2491 
L 2053 2491 
Q 2509 2491 2742 2702 
Q 2975 2913 2975 3322 
Q 2975 3731 2742 3939 
Q 2509 4147 2053 4147 
L 1259 4147 
z
" transform="scale(0.015625)"/>
     </defs>
     <use xlink:href="#DejaVuSans-42"/>
     <use xlink:href="#DejaVuSans-75" x="68.603516"/>
     <use xlink:href="#DejaVuSans-63" x="131.982422"/>
     <use xlink:href="#DejaVuSans-6b" x="186.962891"/>
     <use xlink:href="#DejaVuSans-6f" x="241.248047"/>
     <use xlink:href="#DejaVuSans-77" x="302.429688"/>
     <use xlink:href="#DejaVuSans-5f" x="384.216797"/>
     <use xlink:href="#DejaVuSans-4e" x="434.216797"/>
     <use xlink:href="#DejaVuSans-6f" x="509.021484"/>
     <use xlink:href="#DejaVuSans-72" x="570.203125"/>
     <use xlink:href="#DejaVuSans-64" x="609.566406"/>
     <use xlink:href="#DejaVuSans-5f" x="673.042969"/>
     <use xlink:href="#DejaVuSans-52" x="723.042969"/>
     <use xlink:href="#DejaVuSans-75" x="788.025391"/>
     <use xlink:href="#DejaVuSans-64" x="851.404297"/>
     <use xlink:href="#DejaVuSans-6f" x="914.880859"/>
     <use xlink:href="#DejaVuSans-77" x="976.0625"/>
    </g>
   </g>
  </g>
 </g>
 <defs>
  <clipPath id="p68e460e687">
   <rect x="116.540196" y="86.4" width="504.919607" height="554.4"/>
  </clipPath>
 </defs>
</svg>
