<?xml version="1.0" encoding="utf-8" standalone="no"?>
<!DOCTYPE svg PUBLIC "-//W3C//DTD SVG 1.1//EN"
  "http://www.w3.org/Graphics/SVG/1.1/DTD/svg11.dtd">
<svg xmlns:xlink="http://www.w3.org/1999/xlink" width="720pt" height="720pt" viewBox="0 0 720 720" xmlns="http://www.w3.org/2000/svg" version="1.1">
 <metadata>
  <rdf:RDF xmlns:dc="http://purl.org/dc/elements/1.1/" xmlns:cc="http://creativecommons.org/ns#" xmlns:rdf="http://www.w3.org/1999/02/22-rdf-syntax-ns#">
   <cc:Work>
    <dc:type rdf:resource="http://purl.org/dc/dcmitype/StillImage"/>
    <dc:date>2024-10-15T13:04:05.680973</dc:date>
    <dc:format>image/svg+xml</dc:format>
    <dc:creator>
     <cc:Agent>
      <dc:title>Matplotlib v3.9.2, https://matplotlib.org/</dc:title>
     </cc:Agent>
    </dc:creator>
   </cc:Work>
  </rdf:RDF>
 </metadata>
 <defs>
  <style type="text/css">*{stroke-linejoin: round; stroke-linecap: butt}</style>
 </defs>
 <g id="figure_1">
  <g id="patch_1">
   <path d="M 0 720 
L 720 720 
L 720 0 
L 0 0 
z
" style="fill: #ffffff"/>
  </g>
  <g id="axes_1">
   <g id="patch_2">
    <path d="M 97.738248 640.8 
L 640.261752 640.8 
L 640.261752 86.4 
L 97.738248 86.4 
z
" style="fill: #ffffff"/>
   </g>
   <g id="PatchCollection_1">
    <path d="M 408.058047 154.617864 
L 407.772593 154.483094 
L 407.487696 154.347061 
L 407.203067 154.20999 
L 406.919069 154.071727 
L 406.63563 153.932274 
L 406.514935 153.872594 
L 403.862928 152.559792 
L 403.512145 152.386735 
L 403.160867 152.2145 
L 402.809243 152.043157 
L 402.45749 151.872553 
L 402.105245 151.702844 
L 401.752652 151.533954 
L 401.399342 151.365818 
L 401.045685 151.1985 
L 400.691607 151.032002 
L 400.320477 150.858782 
L 399.949001 150.686455 
L 399.577033 150.515022 
L 398.300423 150.328364 
L 395.673978 149.193375 
L 393.162169 148.107999 
L 392.948414 148.017262 
L 392.733475 147.929203 
L 392.5175 147.843818 
L 392.300417 147.761184 
L 392.082301 147.681371 
L 391.863224 147.604304 
L 391.516992 147.485971 
L 391.172173 147.368412 
L 390.815663 147.277338 
L 390.456127 147.206794 
L 390.09433 147.148964 
L 389.730536 147.108623 
L 389.377069 147.055152 
L 389.039015 147.064737 
L 388.250916 146.271734 
L 387.579016 147.981633 
L 387.546005 147.96787 
L 387.470862 147.936665 
L 386.16092 147.400881 
L 385.605591 147.172205 
L 384.955521 146.930761 
L 384.633771 146.81684 
L 384.309552 146.710043 
L 383.983154 146.610291 
L 383.654654 146.517729 
L 383.3242 146.432353 
L 382.991938 146.354159 
L 382.658092 146.28329 
L 382.322809 146.219741 
L 381.98616 146.163438 
L 381.648441 146.114446 
L 381.309653 146.07284 
L 380.970092 146.038685 
L 380.629829 146.011907 
L 380.289087 145.992572 
L 379.948012 145.980679 
L 379.606751 145.976223 
L 378.736362 145.977943 
L 378.569021 145.978137 
L 376.980264 146.003618 
L 376.424047 146.022087 
L 375.019877 146.09516 
L 372.494246 146.226454 
L 372.485523 146.058372 
L 372.477075 145.895582 
L 370.71839 145.986771 
L 370.715083 145.926436 
L 370.105473 145.974627 
L 367.017775 146.215683 
L 365.001376 146.431102 
L 362.72976 146.674423 
L 358.082218 146.732072 
L 357.794488 146.733683 
L 356.039601 147.013163 
L 355.901212 147.035249 
L 353.36781 147.458055 
L 352.232725 147.646625 
L 348.577658 148.277872 
L 344.942199 148.887629 
L 344.631134 148.730652 
L 343.85198 148.33733 
L 343.238544 148.027655 
L 339.439505 147.69875 
L 333.549906 147.188827 
L 332.64048 147.116632 
L 329.529108 146.842595 
L 329.451395 147.120315 
L 328.946873 148.922094 
L 328.822335 149.365582 
L 327.451847 149.664664 
L 326.260853 149.923128 
L 325.166058 150.160832 
L 323.802982 149.866405 
L 319.639481 148.967178 
L 318.410972 148.70191 
L 317.178506 148.673476 
L 316.495511 148.654173 
L 315.812781 148.627726 
L 315.130316 148.594135 
L 314.448263 148.553398 
L 313.766696 148.505513 
L 313.085615 148.450552 
L 312.720782 148.419071 
L 312.356194 148.385598 
L 311.991773 148.349988 
L 311.394339 148.283548 
L 310.797579 148.211648 
L 310.201491 148.134213 
L 309.606147 148.051242 
L 309.011552 147.962881 
L 308.467778 147.877831 
L 307.925152 147.785762 
L 307.383748 147.686599 
L 306.843639 147.580414 
L 306.305046 147.467202 
L 305.767895 147.346964 
L 305.352746 147.249105 
L 304.938668 147.147025 
L 304.525589 147.040801 
L 304.113583 146.930429 
L 303.729044 146.823281 
L 303.345518 146.712501 
L 302.963004 146.598092 
L 302.581649 146.480049 
L 302.301673 146.393796 
L 302.02089 146.31058 
L 301.739154 146.230405 
L 301.681337 146.214318 
L 301.649251 146.20547 
L 301.617165 146.196622 
L 301.585079 146.187774 
L 301.370052 146.129942 
L 301.154554 146.073889 
L 300.938659 146.019611 
L 300.877858 146.004628 
L 300.817061 145.989792 
L 300.756268 145.975104 
L 300.665861 145.953566 
L 300.575314 145.932327 
L 300.484775 145.911381 
L 300.309627 145.871773 
L 300.134214 145.833348 
L 299.95861 145.796106 
L 299.821852 145.767912 
L 299.684965 145.740458 
L 299.547875 145.713671 
L 299.445696 145.694191 
L 299.343526 145.675079 
L 299.241219 145.656337 
L 299.108242 145.632613 
L 298.975133 145.609481 
L 298.841894 145.587015 
L 298.71427 145.894526 
L 298.062615 147.469873 
L 297.120766 149.74669 
L 297.83312 149.935735 
L 297.429318 151.043051 
L 295.224939 157.069235 
L 295.15431 157.263633 
L 295.08977 157.493645 
L 294.909651 158.135513 
L 294.835528 158.399833 
L 294.599019 158.904381 
L 294.187787 160.111817 
L 294.035143 160.56006 
L 292.760536 163.951286 
L 291.668945 166.716395 
L 290.745124 169.056807 
L 289.899345 170.883193 
L 288.254287 174.643217 
L 287.680562 176.484298 
L 287.264339 176.359553 
L 286.940198 177.413548 
L 287.357021 177.54181 
L 286.598073 179.995015 
L 285.734148 184.488694 
L 285.534866 189.069626 
L 285.635258 193.544908 
L 285.723452 197.560566 
L 285.758957 199.179069 
L 285.465166 199.183316 
L 285.468454 199.549557 
L 285.760945 199.546224 
L 285.848049 201.355075 
L 285.989243 204.287824 
L 286.07589 206.087194 
L 286.24245 211.199292 
L 286.637048 215.593125 
L 287.071891 221.470678 
L 287.509841 225.86999 
L 287.971758 230.596398 
L 288.552966 234.962147 
L 289.265471 240.320887 
L 290.032163 242.183072 
L 290.31496 242.855522 
L 292.598072 246.784197 
L 293.501794 248.318258 
L 291.969563 248.411897 
L 288.83342 248.603691 
L 287.54447 248.682505 
L 287.516451 248.408934 
L 287.406647 247.338438 
L 287.182343 245.149804 
L 286.927987 245.176919 
L 286.228036 245.251771 
L 286.083065 245.267204 
L 284.165446 248.427849 
L 283.066336 250.239623 
L 282.968346 250.401071 
L 282.944688 250.397241 
L 282.474703 250.321665 
L 281.386596 250.146657 
L 281.168665 250.111649 
L 280.746201 250.895808 
L 280.486245 251.45555 
L 280.195508 251.88021 
L 279.955892 252.177843 
L 279.551167 252.611947 
L 279.190649 253.085431 
L 278.257757 254.705824 
L 276.005233 258.343487 
L 274.553298 260.279115 
L 274.297728 260.518717 
L 272.643495 262.069638 
L 271.69711 263.405524 
L 271.206168 264.081376 
L 271.051519 264.415618 
L 271.017003 264.490214 
L 270.13499 266.396432 
L 269.858034 266.995016 
L 269.753026 267.335903 
L 269.094378 269.370158 
L 268.130785 272.346983 
L 268.202445 272.380456 
L 268.195149 272.394177 
L 267.435209 273.814644 
L 266.963882 274.695696 
L 266.95235 274.722179 
L 266.93098 274.772381 
L 266.44681 275.912414 
L 265.971387 277.031995 
L 265.884389 277.23674 
L 265.756673 277.53757 
L 265.74148 277.573343 
L 265.45823 278.240524 
L 264.390907 280.842644 
L 263.778502 281.975999 
L 263.9038 282.017708 
L 265.662099 282.602421 
L 266.008529 282.717463 
L 266.150992 282.764708 
L 266.596592 282.912689 
L 266.627229 282.922747 
L 266.765771 282.968765 
L 266.871158 283.003757 
L 266.87338 283.004585 
L 267.326547 283.155838 
L 267.211117 283.505373 
L 266.870258 284.551047 
L 266.778332 284.83274 
L 266.380268 284.701389 
L 266.262455 284.662511 
L 265.321349 284.351819 
L 265.091417 284.275835 
L 264.6394 284.126543 
L 264.491095 284.07753 
L 264.159036 283.9678 
L 264.108862 283.951235 
L 263.223685 283.658442 
L 263.194749 283.648857 
L 261.711675 283.158074 
L 261.615688 283.126236 
L 261.48033 283.459268 
L 261.204772 283.902186 
L 260.099099 284.909507 
L 259.688888 285.151632 
L 259.317818 285.31412 
L 258.789776 285.361951 
L 258.076902 285.406494 
L 256.917613 285.380062 
L 255.065791 285.348007 
L 254.059345 284.858748 
L 253.96595 284.815956 
L 252.924192 284.4306 
L 252.862147 284.620011 
L 252.328121 284.49389 
L 252.244986 284.474245 
L 251.734808 284.353788 
L 251.558569 284.312097 
L 251.107899 284.205691 
L 251.096083 284.20282 
L 250.540457 284.144277 
L 250.198789 284.05577 
L 248.977723 283.626604 
L 248.244461 283.303584 
L 248.218984 283.344911 
L 247.588673 284.351432 
L 244.967955 288.535931 
L 244.020044 290.049646 
L 243.538871 292.070269 
L 243.367241 292.790916 
L 242.772955 295.286127 
L 241.780039 299.455299 
L 241.441576 300.876313 
L 240.746035 302.175583 
L 236.442402 310.214818 
L 235.635561 311.722031 
L 235.03598 313.163307 
L 233.459014 316.95429 
L 232.813867 318.5051 
L 233.541361 320.032947 
L 235.037673 323.175558 
L 235.715992 324.600284 
L 236.150998 327.214365 
L 237.446761 335.001429 
L 237.609948 335.982279 
L 233.917894 338.044652 
L 214.724919 348.76678 
L 191.191613 358.148422 
L 184.575616 360.78628 
L 178.225225 361.163153 
L 165.291904 361.931013 
L 153.343784 367.885569 
L 147.814038 370.641522 
L 143.684551 374.766739 
L 138.554919 379.891317 
L 138.043227 385.479484 
L 136.63419 400.86913 
L 136.932283 413.510067 
L 137.029651 417.636315 
L 134.708017 420.949097 
L 127.142344 431.745105 
L 123.996769 442.152281 
L 122.398407 447.440895 
L 123.202696 452.622851 
L 125.1469 465.149115 
L 138.410929 488.015249 
L 139.801007 499.030325 
L 140.182339 502.052378 
L 138.817427 505.098616 
L 134.796053 514.073843 
L 126.703667 532.1335 
L 125.641788 534.503312 
L 125.993721 537.02738 
L 128.458863 554.710477 
L 129.453603 561.846966 
L 130.507878 569.409659 
L 130.856265 571.909171 
L 130.739748 575.354081 
L 130.41938 584.831577 
L 130.234436 590.300216 
L 156.910618 596.026582 
L 158.837178 596.440153 
L 162.061157 597.330718 
L 165.409856 595.113982 
L 170.811003 594.359638 
L 171.068989 594.323517 
L 172.335392 594.361621 
L 174.198908 595.758309 
L 177.086944 600.098001 
L 177.680916 602.077314 
L 177.806976 602.498765 
L 177.503143 604.418582 
L 177.428586 605.572631 
L 177.302248 607.52855 
L 177.730883 610.00814 
L 177.83332 610.603338 
L 178.432202 611.680918 
L 178.840002 612.414691 
L 179.64989 613.413769 
L 181.434844 614.212932 
L 182.82375 614.836571 
L 184.062815 615.424226 
L 184.937512 615.6 
L 185.636507 615.560582 
L 186.172326 615.452984 
L 187.692906 615.030666 
L 190.727221 613.650052 
L 192.342612 613.152971 
L 192.890333 612.706282 
L 193.661008 611.628 
L 194.708218 609.967048 
L 196.177372 607.630753 
L 196.307605 607.423437 
L 196.93699 606.422282 
L 197.58691 605.660441 
L 198.065023 605.301229 
L 200.175745 604.040247 
L 202.810784 603.306328 
L 205.125866 602.253018 
L 205.9434 601.882253 
L 206.841528 601.475776 
L 207.747331 601.254627 
L 209.754306 601.315224 
L 211.941783 601.018471 
L 214.550155 601.056736 
L 217.876206 601.815003 
L 221.353808 602.785729 
L 225.039077 604.171435 
L 227.567487 605.149748 
L 230.102268 605.849387 
L 234.509327 606.831985 
L 239.814594 607.678679 
L 242.238617 608.515825 
L 242.497817 608.603281 
L 246.317553 609.925224 
L 247.363617 609.681998 
L 250.664794 608.9087 
L 253.106666 609.058452 
L 255.060237 609.174127 
L 260.03577 606.794269 
L 264.366753 605.906655 
L 269.649615 604.531597 
L 271.544412 604.329371 
L 279.138522 604.782683 
L 283.4424 604.937914 
L 283.783345 604.950082 
L 284.987556 604.993214 
L 285.901176 605.026024 
L 289.510533 604.813051 
L 296.708373 605.514447 
L 300.945199 605.370493 
L 301.28358 605.358898 
L 306.576428 605.178263 
L 307.59151 605.449186 
L 316.288388 604.297891 
L 322.575466 602.384402 
L 324.542404 602.161693 
L 332.033185 601.314166 
L 332.483435 601.189613 
L 339.630705 599.211326 
L 345.911645 599.144516 
L 350.21058 601.092331 
L 352.136108 601.964464 
L 357.908573 604.347897 
L 359.870617 605.648711 
L 364.002034 608.108045 
L 367.861555 608.946975 
L 367.896746 608.955605 
L 369.586299 609.343736 
L 369.716697 609.374244 
L 371.871101 609.879333 
L 373.76387 610.409756 
L 373.793049 610.41846 
L 373.795909 610.415447 
L 373.905505 610.446981 
L 374.01632 610.474365 
L 374.127985 610.497533 
L 374.242497 610.517099 
L 374.357778 610.532158 
L 374.473464 610.542718 
L 375.15685 610.789134 
L 375.20967 610.808004 
L 375.930304 610.963732 
L 376.275853 611.069112 
L 376.369973 611.097567 
L 377.374168 611.403172 
L 378.672885 611.808862 
L 378.774933 611.840656 
L 379.622138 612.023538 
L 380.107888 612.128433 
L 380.175598 611.927204 
L 380.555049 611.363722 
L 380.704747 611.141353 
L 381.371566 610.151091 
L 382.45626 611.005108 
L 383.993233 608.944629 
L 382.950866 608.175743 
L 382.62403 607.935085 
L 382.403523 607.772625 
L 383.610017 606.208417 
L 384.077902 605.60186 
L 385.49009 603.77389 
L 386.151042 602.918373 
L 387.714577 600.889419 
L 390.302857 597.530991 
L 390.636945 597.097482 
L 391.259598 596.288683 
L 395.142883 591.244075 
L 397.185237 589.313333 
L 397.676983 588.848091 
L 398.99907 587.596513 
L 399.740361 585.902286 
L 400.426928 585.008568 
L 401.391036 583.111613 
L 402.104393 582.19421 
L 405.414042 577.931691 
L 407.350284 575.439323 
L 408.416134 574.067167 
L 409.285835 572.947644 
L 411.006298 570.43473 
L 413.52529 567.48945 
L 414.129849 566.801525 
L 414.474343 567.07107 
L 414.642821 566.895722 
L 423.461182 557.71743 
L 424.781627 556.559447 
L 428.001834 553.734073 
L 428.919858 552.985707 
L 429.907619 552.151609 
L 430.885032 551.310995 
L 433.019051 549.511133 
L 434.568245 548.201035 
L 434.873564 547.869085 
L 435.058225 547.707041 
L 439.843504 542.884502 
L 441.230316 541.253782 
L 445.405955 535.95199 
L 449.990025 530.150087 
L 452.976791 526.362484 
L 453.223769 526.049259 
L 455.454077 522.634217 
L 457.074421 519.736519 
L 457.115391 519.64376 
L 458.881367 515.64107 
L 459.451581 514.348719 
L 461.613601 509.433511 
L 462.134177 508.250985 
L 464.014677 503.979377 
L 465.327097 500.799392 
L 466.937726 496.899927 
L 468.87757 493.424898 
L 470.344852 490.796331 
L 470.394147 489.561873 
L 470.418381 488.953374 
L 470.850287 487.062221 
L 474.18519 479.907882 
L 475.020997 478.587641 
L 475.400651 477.981136 
L 475.739744 477.50078 
L 475.504371 477.297494 
L 474.316067 476.27119 
L 473.551693 475.611027 
L 473.10052 475.269684 
L 472.283916 474.738797 
L 472.052359 474.594431 
L 471.324075 474.029838 
L 470.585024 473.456897 
L 470.135345 473.108289 
L 470.7038 472.374997 
L 470.736769 472.229892 
L 470.812553 472.132393 
L 474.357618 467.588535 
L 478.950383 461.702016 
L 482.835291 456.581606 
L 489.645157 447.741166 
L 490.296816 446.925885 
L 490.819068 446.269959 
L 491.269947 446.622664 
L 491.951967 447.150885 
L 492.064476 447.237945 
L 492.73132 447.75454 
L 493.507619 447.849114 
L 493.116421 448.35933 
L 493.6973 448.821929 
L 494.224823 448.147042 
L 494.497555 449.009898 
L 495.076789 449.581376 
L 495.027942 449.630903 
L 495.292767 449.941378 
L 495.373708 449.853472 
L 496.217312 450.49348 
L 496.831392 449.98289 
L 499.087301 448.1214 
L 501.131143 446.419651 
L 502.647461 444.92484 
L 503.51788 443.896051 
L 504.889787 442.267934 
L 505.794402 443.087151 
L 507.675856 441.296268 
L 508.388875 440.464529 
L 508.863268 439.867109 
L 510.04167 438.245297 
L 510.526708 437.568368 
L 511.011388 436.830445 
L 511.950822 435.223083 
L 512.786697 433.577231 
L 513.992589 431.28821 
L 517.064054 425.457938 
L 518.862116 422.194347 
L 521.442588 417.431633 
L 524.403183 411.974833 
L 525.556167 410.07523 
L 527.760143 407.001636 
L 529.98516 404.014679 
L 532.170062 401.08242 
L 535.190781 397.180358 
L 538.000278 393.433738 
L 539.503735 391.480209 
L 540.38367 390.410075 
L 543.490947 387.830073 
L 542.973403 387.421505 
L 545.00908 384.979915 
L 545.352902 384.649419 
L 545.868161 383.972404 
L 546.411956 383.457848 
L 546.882082 382.998781 
L 547.182341 382.755283 
L 550.571265 380.595394 
L 550.18827 379.825729 
L 549.808271 379.049444 
L 549.576358 378.574701 
L 549.92934 378.317063 
L 550.084149 378.629629 
L 550.24439 378.548664 
L 552.868889 377.253767 
L 552.931841 377.222601 
L 555.415539 375.986144 
L 557.934623 374.731196 
L 560.283002 373.567189 
L 562.445415 372.485142 
L 582.404498 362.55403 
L 586.925112 360.30408 
L 587.06009 360.237055 
L 587.862556 359.838539 
L 587.895668 359.822084 
L 589.268963 359.139344 
L 590.2291 358.661935 
L 590.336442 358.608522 
L 590.45198 358.551014 
L 591.097915 358.229464 
L 592.225076 357.668303 
L 593.603722 356.979869 
L 593.662012 356.727322 
L 593.724067 356.475716 
L 593.790036 356.22512 
L 593.853693 355.994596 
L 593.922298 355.765425 
L 593.99586 355.537902 
L 594.110147 355.205059 
L 594.227686 354.873242 
L 594.348338 354.542676 
L 594.472172 354.213211 
L 594.736589 353.52717 
L 594.867734 353.184138 
L 594.9951 352.839577 
L 595.118619 352.49371 
L 595.238363 352.146462 
L 595.329702 351.867077 
L 595.414979 351.585776 
L 595.494196 351.302707 
L 595.567282 351.017944 
L 595.634241 350.731709 
L 595.691612 350.461965 
L 595.741536 350.19078 
L 595.783943 349.918229 
L 595.818767 349.644682 
L 595.84601 349.370212 
L 595.865607 349.095115 
L 595.877634 348.81961 
L 595.882023 348.543845 
L 596.156896 348.199076 
L 596.404707 348.145698 
L 596.653672 348.097665 
L 596.903573 348.055055 
L 597.154335 348.017796 
L 597.555545 347.974446 
L 597.930061 347.941226 
L 597.954538 347.036764 
L 597.956221 346.974689 
L 597.336624 347.021778 
L 596.991319 346.74906 
L 596.936015 346.397821 
L 596.874205 346.047694 
L 596.805745 345.698756 
L 596.730787 345.351223 
L 596.622174 344.898746 
L 596.561383 344.660672 
L 596.467015 344.317871 
L 596.366599 343.976907 
L 596.259771 343.637862 
L 596.146608 343.300955 
L 596.027111 342.966187 
L 595.901432 342.633773 
L 595.769499 342.30379 
L 595.631387 341.97631 
L 595.198609 340.897246 
L 595.184736 340.900227 
L 595.163258 340.811625 
L 595.150253 340.721349 
L 595.14589 340.630278 
L 595.150258 340.539145 
L 595.163161 340.448913 
L 595.184689 340.360315 
L 595.214421 340.27417 
L 595.252302 340.191215 
L 595.297838 340.112273 
L 595.333953 340.060047 
L 595.373357 340.010318 
L 595.416055 339.963306 
L 595.461684 339.919242 
L 595.127758 339.408934 
L 594.94562 339.520866 
L 594.22504 338.087873 
L 594.400705 337.851658 
L 594.208241 336.25513 
L 594.154513 335.290427 
L 594.211359 335.066541 
L 594.392792 334.352972 
L 595.819119 330.110448 
L 594.572798 329.798674 
L 594.672155 329.377662 
L 594.766272 328.955377 
L 594.855079 328.531968 
L 594.938576 328.107508 
L 595.016764 327.681997 
L 595.107266 327.138305 
L 595.191949 326.593722 
L 595.270811 326.048174 
L 595.343857 325.501882 
L 595.478718 324.406033 
L 595.953724 320.022411 
L 596.018456 319.438052 
L 596.088706 318.854223 
L 596.16448 318.271219 
L 596.245628 317.688897 
L 596.332299 317.107326 
L 596.421766 316.526056 
L 596.516097 315.945626 
L 596.615291 315.365964 
L 596.719351 314.787216 
L 596.828276 314.209308 
L 596.941259 313.632334 
L 597.059331 313.056342 
L 597.182492 312.481406 
L 597.310671 311.907602 
L 597.444017 311.334999 
L 597.586979 310.737735 
L 597.734447 310.141615 
L 597.886419 309.546639 
L 598.04297 308.952804 
L 598.097919 308.936334 
L 598.407728 308.976775 
L 598.435621 308.859399 
L 598.463735 308.742018 
L 598.492146 308.624778 
L 598.602851 308.177373 
L 598.717026 307.730842 
L 598.823345 307.328094 
L 598.834672 307.285185 
L 598.955791 306.840475 
L 599.256556 305.760317 
L 599.307072 305.578897 
L 599.442738 304.652283 
L 599.988557 302.801338 
L 600.85457 300.564958 
L 601.718641 298.530919 
L 602.623126 296.507619 
L 603.541679 294.526225 
L 603.840229 293.899646 
L 603.82039 293.889449 
L 604.71211 292.119233 
L 605.340094 290.883591 
L 606.032839 289.521823 
L 606.096431 289.396091 
L 606.159873 289.270216 
L 606.223241 289.144342 
L 606.521493 288.548165 
L 606.817222 287.950796 
L 607.1105 287.352162 
L 607.421063 286.711686 
L 607.728878 286.069805 
L 608.0338 285.426594 
L 608.41998 284.60079 
L 608.801485 283.772816 
L 609.178317 282.942673 
L 609.550476 282.110434 
L 609.917963 281.2761 
L 610.004704 281.312446 
L 610.71551 279.738766 
L 611.125646 278.814523 
L 611.343338 278.308942 
L 611.397462 278.266738 
L 611.956156 276.809273 
L 612.117237 276.383002 
L 612.871345 274.387417 
L 612.86119 274.246959 
L 612.819977 274.233149 
L 613.473473 272.321455 
L 613.812077 271.31444 
L 613.924684 270.964646 
L 614.033592 270.613615 
L 614.138879 270.261567 
L 614.240468 269.908356 
L 614.338434 269.55398 
L 614.432705 269.198589 
L 614.523283 268.842181 
L 614.610169 268.484905 
L 614.690342 268.12617 
L 614.765867 267.766442 
L 614.83667 267.405722 
L 614.902683 267.04416 
L 614.964049 266.681678 
L 615.020699 266.318426 
L 615.07256 265.954404 
L 615.119635 265.589761 
L 615.184393 265.041978 
L 615.244073 264.493654 
L 615.298749 263.944788 
L 615.348422 263.395451 
L 615.39302 262.845647 
L 615.432545 262.295522 
L 615.467069 261.745001 
L 615.49652 261.194159 
L 615.527464 260.588532 
L 615.553118 259.982738 
L 615.573259 259.376632 
L 615.58804 258.770434 
L 615.59746 258.164143 
L 615.601593 257.557757 
L 615.600293 256.951352 
L 615.593635 256.345002 
L 615.581549 255.738782 
L 615.564105 255.132615 
L 615.527512 254.266645 
L 615.491423 253.412617 
L 615.465744 252.970084 
L 615.437058 252.527697 
L 615.405441 252.085526 
L 615.370819 251.643574 
L 615.306483 250.91107 
L 615.235993 250.17908 
L 615.159424 249.447677 
L 615.076779 248.717007 
L 614.99491 248.046955 
L 614.90799 247.377538 
L 614.77267 246.406608 
L 614.728368 246.104556 
L 614.682968 245.802604 
L 614.584285 245.166582 
L 614.482165 244.531156 
L 614.376535 243.896256 
L 614.267467 243.261953 
L 614.154681 242.628695 
L 614.038384 241.996036 
L 613.918651 241.363974 
L 613.795484 240.732656 
L 613.595592 239.741482 
L 613.391244 238.751298 
L 613.182365 237.762031 
L 612.968956 236.773682 
L 612.750729 235.786551 
L 612.528046 234.80041 
L 612.300835 233.815333 
L 612.069097 232.831321 
L 611.957875 232.354179 
L 611.843074 231.877859 
L 611.724844 231.402429 
L 611.602812 230.927679 
L 611.477353 230.453894 
L 611.348317 229.981003 
L 611.230116 229.568785 
L 611.10601 229.158327 
L 610.976001 228.749701 
L 610.840163 228.342981 
L 610.698426 227.938241 
L 610.550939 227.535625 
L 610.397852 227.135202 
L 610.238943 226.736979 
L 610.074438 226.341171 
L 609.904262 225.947705 
L 609.728419 225.556729 
L 609.546985 225.168389 
L 609.307277 224.67238 
L 609.063652 224.178378 
L 608.816106 223.686236 
L 608.564716 223.196098 
L 608.737203 223.083226 
L 609.40373 222.647088 
L 609.60998 222.512218 
L 609.500257 222.29981 
L 609.394958 222.085161 
L 609.293941 221.868425 
L 609.197354 221.649669 
L 609.1052 221.429041 
L 608.970916 221.115888 
L 608.905592 220.958569 
L 608.762873 220.59624 
L 608.62641 220.23148 
L 608.496206 219.864437 
L 608.372336 219.495183 
L 608.254878 219.123863 
L 608.143759 218.750552 
L 608.080588 218.485964 
L 607.846225 217.636756 
L 607.046772 214.671515 
L 606.552327 212.837601 
L 606.509434 212.654213 
L 606.473408 212.46941 
L 606.444327 212.283338 
L 606.42227 212.096289 
L 606.407172 211.908559 
L 606.384903 211.693994 
L 606.355605 211.480258 
L 606.319432 211.267569 
L 606.276316 211.056223 
L 606.226334 210.846365 
L 606.169566 210.638288 
L 605.841854 209.370091 
L 605.816958 209.273844 
L 605.803695 209.21919 
L 605.795936 209.141607 
L 605.795166 209.107246 
L 605.79993 209.051206 
L 605.810644 208.996062 
L 604.859796 206.227397 
L 604.812966 206.19687 
L 604.770548 206.160425 
L 604.733147 206.118857 
L 604.70144 206.072811 
L 604.675955 206.022938 
L 604.657159 205.970256 
L 604.369251 204.929793 
L 604.317893 204.942672 
L 604.278118 204.952672 
L 603.63126 202.636104 
L 601.975412 196.629267 
L 600.321769 190.67132 
L 600.474966 190.620571 
L 600.097143 189.408103 
L 599.921322 188.864658 
L 599.6845 188.136197 
L 599.397657 187.218191 
L 599.165705 186.286734 
L 598.635577 184.059229 
L 597.480847 179.049417 
L 596.964619 176.829972 
L 596.954325 176.779884 
L 596.937098 176.679039 
L 596.92729 176.606127 
L 596.919676 176.532868 
L 596.914409 176.45948 
L 596.696703 173.834731 
L 596.66843 173.494475 
L 595.618461 163.377628 
L 595.519353 162.45728 
L 595.467728 162.086086 
L 595.30152 161.55875 
L 595.220761 161.392236 
L 594.918374 160.934011 
L 594.764999 160.770701 
L 594.624552 159.943177 
L 594.598856 159.733182 
L 594.578279 159.639702 
L 594.601928 159.65231 
L 594.645284 159.675412 
L 594.704449 158.549805 
L 594.725352 158.153258 
L 594.835037 156.684705 
L 595.004803 155.195217 
L 595.201102 153.743877 
L 595.420839 152.357841 
L 595.690048 150.844492 
L 596.245363 148.139365 
L 596.26814 148.028415 
L 596.820357 145.705404 
L 597.134985 144.381713 
L 597.407758 143.234159 
L 597.711931 142.069887 
L 598.062021 142.996391 
L 598.095802 142.99036 
L 598.113596 143.068675 
L 598.340882 144.068163 
L 598.494168 144.035807 
L 599.267151 146.694628 
L 600.466321 142.520114 
L 601.232663 140.229754 
L 601.95074 138.754644 
L 602.668356 137.798045 
L 603.845788 135.513859 
L 604.654603 134.123573 
L 605.471202 132.828913 
L 606.268767 131.700502 
L 607.124076 130.668956 
L 608.395981 129.278756 
L 609.588736 128.055797 
L 610.667148 127.169578 
L 611.899232 126.2017 
L 613.108533 125.359689 
L 613.047184 125.274685 
L 610.184004 125.58321 
L 606.999819 125.831485 
L 607.00526 125.884412 
L 603.545961 126.223827 
L 603.441645 126.234481 
L 602.852235 126.294745 
L 602.768263 126.302816 
L 605.16383 120.567822 
L 604.889136 120.441912 
L 604.614354 120.312325 
L 604.343154 120.178973 
L 604.071867 120.041944 
L 603.655543 119.827427 
L 603.402866 119.700993 
L 603.146518 119.574646 
L 602.897422 119.444448 
L 602.651996 119.314162 
L 601.283408 118.581484 
L 600.234421 118.01044 
L 598.352422 116.995667 
L 597.154018 116.472349 
L 596.605 116.277628 
L 596.602564 116.276295 
L 595.325788 115.57633 
L 594.032871 114.877195 
L 593.194681 114.423002 
L 592.72667 114.169331 
L 591.822456 113.724296 
L 591.409763 113.521039 
L 590.087558 112.946612 
L 588.725068 112.466314 
L 587.618751 112.200445 
L 587.31778 112.128158 
L 585.872553 111.957884 
L 585.236612 111.918327 
L 584.511286 111.890545 
L 584.290454 111.6 
L 584.157813 111.688825 
L 583.886603 111.870443 
L 583.441466 111.871733 
L 583.066016 111.872904 
L 581.614262 112.058009 
L 581.374297 112.105247 
L 581.278545 112.124093 
L 580.194652 112.337795 
L 578.760492 112.660247 
L 577.35995 113.108398 
L 575.760488 113.853159 
L 574.63956 114.512526 
L 574.516735 114.584783 
L 573.357642 115.457513 
L 572.48367 116.224157 
L 572.270033 116.411544 
L 571.161243 117.370133 
L 570.050864 118.326481 
L 568.786292 119.418982 
L 567.636143 120.31455 
L 566.428284 121.145569 
L 565.393454 121.749259 
L 564.116608 122.430716 
L 563.904076 122.534781 
L 562.81551 123.068017 
L 562.763148 123.027842 
L 562.749018 122.98962 
L 561.184508 123.512627 
L 561.174966 123.515873 
L 561.090966 123.451583 
L 560.870421 123.530601 
L 559.615845 123.769059 
L 558.178413 124.004103 
L 557.819326 124.142665 
L 557.52316 124.200759 
L 556.988335 124.101871 
L 555.851669 124.151487 
L 554.390136 124.102782 
L 552.925257 123.987788 
L 551.463387 123.875818 
L 550.003683 123.76233 
L 548.542598 123.652561 
L 547.526255 123.565534 
L 546.721155 123.492869 
L 546.073838 123.434447 
L 544.620692 123.294406 
L 543.170483 123.172844 
L 541.706383 123.063102 
L 540.26219 122.959804 
L 538.805635 122.883153 
L 537.348581 122.862374 
L 535.902072 122.904852 
L 534.513653 122.953594 
L 533.27536 122.997335 
L 533.060674 123.004923 
L 532.500663 122.983209 
L 532.120514 122.968577 
L 531.705983 122.952487 
L 531.257674 122.935085 
L 531.038993 122.944463 
L 530.972162 122.947247 
L 530.894402 122.950588 
L 530.696847 122.959017 
L 528.655558 123.045775 
L 528.331977 123.059738 
L 528.135304 123.06822 
L 527.679869 123.117291 
L 527.063222 123.183707 
L 526.868392 123.20473 
L 526.61907 123.231699 
L 526.174846 123.279766 
L 526.120134 123.285718 
L 526.162684 123.777584 
L 526.166856 123.826052 
L 526.066825 123.816242 
L 525.966726 123.806655 
L 525.866632 123.797289 
L 525.647203 123.778504 
L 525.427774 123.75972 
L 525.334027 123.751673 
L 525.208162 123.742485 
L 524.988505 123.726429 
L 524.800922 123.712766 
L 524.768858 123.710814 
L 524.54905 123.697632 
L 524.329167 123.684452 
L 524.267394 123.680713 
L 524.109258 123.673185 
L 523.889221 123.662732 
L 523.733512 123.655367 
L 523.669205 123.653161 
L 523.449088 123.645506 
L 523.228973 123.637924 
L 523.19928 123.636873 
L 523.00884 123.632698 
L 522.788644 123.627842 
L 522.664915 123.625079 
L 522.568402 123.624164 
L 522.3482 123.622178 
L 522.130421 123.620133 
L 521.518856 123.622783 
L 520.907431 123.634335 
L 520.296218 123.654712 
L 519.685293 123.684062 
L 519.190284 123.714964 
L 519.074945 123.722156 
L 518.46518 123.769214 
L 517.85614 123.825087 
L 517.554509 123.857148 
L 517.248046 123.889768 
L 516.640897 123.963258 
L 516.034843 124.045627 
L 515.4301 124.136722 
L 514.844293 124.233544 
L 514.260008 124.338645 
L 513.677169 124.452027 
L 513.095995 124.573539 
L 512.51656 124.703252 
L 511.939009 124.841088 
L 511.363491 124.987118 
L 510.790075 125.141193 
L 510.811376 125.279098 
L 510.846225 125.504246 
L 507.590625 126.442876 
L 507.120562 126.662387 
L 505.785463 127.285704 
L 504.337227 127.961794 
L 501.220098 129.573486 
L 497.872143 131.558641 
L 497.674274 131.676006 
L 495.223897 133.129048 
L 492.641841 134.302636 
L 492.646946 134.325619 
L 492.656849 134.371004 
L 488.066861 135.826539 
L 486.988089 136.16859 
L 486.4335 136.240273 
L 483.661801 136.598448 
L 482.348096 136.768257 
L 481.325082 136.900503 
L 472.326539 137.700937 
L 466.671243 138.083649 
L 460.924008 138.280147 
L 458.335806 138.368788 
L 457.511054 138.397025 
L 449.908736 138.219233 
L 444.256879 138.123453 
L 439.994376 137.735197 
L 437.246599 137.350062 
L 434.556824 136.521938 
L 432.431308 135.661495 
L 431.076224 135.061814 
L 429.780831 134.355823 
L 429.342869 134.076246 
L 426.176556 132.054261 
L 424.481222 130.675274 
L 422.910255 129.216883 
L 421.678522 128.072997 
L 420.224135 132.480478 
L 420.041289 133.034704 
L 419.991492 133.185668 
L 420.455848 133.266346 
L 420.616825 133.297233 
L 420.776625 133.33411 
L 420.934881 133.376911 
L 421.091444 133.425641 
L 421.212086 133.467813 
L 421.331417 133.513402 
L 421.449437 133.562482 
L 421.565924 133.614984 
L 421.731743 133.697192 
L 421.893634 133.787001 
L 422.051223 133.884127 
L 422.204211 133.988356 
L 422.3523 134.099474 
L 422.495118 134.217344 
L 422.632436 134.341602 
L 422.763956 134.472036 
L 422.889304 134.60836 
L 423.008252 134.750285 
L 423.120644 134.897448 
L 423.226109 135.049636 
L 423.324565 135.206557 
L 423.41571 135.367776 
L 423.499462 135.533076 
L 423.575518 135.701949 
L 423.643798 135.874175 
L 423.704146 136.04939 
L 423.751937 136.209458 
L 423.793673 136.371144 
L 423.829278 136.534378 
L 423.858597 136.698796 
L 423.881699 136.864248 
L 423.898577 137.030439 
L 423.90908 137.197155 
L 424.069056 140.837843 
L 424.08922 141.330537 
L 424.117204 142.024672 
L 424.182271 143.636942 
L 424.186225 143.742518 
L 424.222094 144.70145 
L 424.239246 145.197088 
L 424.314391 146.628381 
L 424.458465 148.052772 
L 424.67122 149.469163 
L 424.948772 150.874852 
L 425.30275 152.261977 
L 425.377344 152.519191 
L 425.454125 152.775763 
L 425.533093 153.031692 
L 425.615712 153.301957 
L 425.700809 153.571425 
L 425.78831 153.840099 
L 426.035113 154.583143 
L 426.112798 154.831598 
L 426.181807 155.082619 
L 426.242059 155.335914 
L 426.293549 155.591188 
L 426.33619 155.848002 
L 426.369834 156.106213 
L 426.394543 156.365376 
L 426.410314 156.625346 
L 426.41706 156.885609 
L 426.428948 158.173401 
L 426.771416 158.679814 
L 426.713331 158.822075 
L 426.633968 159.016512 
L 426.36121 159.684188 
L 426.219804 160.030254 
L 425.946987 160.698447 
L 425.80683 161.041465 
L 425.325142 160.846994 
L 424.842068 160.655943 
L 424.357609 160.468384 
L 423.871841 160.284391 
L 423.366981 160.09733 
L 422.86067 159.914059 
L 422.353055 159.734573 
L 421.844065 159.558947 
L 421.100772 159.304622 
L 420.977941 159.262724 
L 420.855118 159.221121 
L 420.732154 159.179741 
L 420.346792 159.051736 
L 419.960682 158.926178 
L 419.573747 158.802996 
L 419.513745 158.787311 
L 419.452179 158.779833 
L 419.390154 158.780681 
L 419.328844 158.789827 
L 419.269273 158.807099 
L 419.212537 158.83225 
L 419.15965 158.864739 
L 419.111627 158.904027 
L 419.069259 158.949432 
L 419.033333 159.000052 
L 419.011816 159.039284 
L 418.994164 159.080481 
L 418.980586 159.123125 
L 418.439609 158.906338 
L 418.272332 158.839253 
L 417.94438 158.707865 
L 417.791194 158.646545 
L 417.486596 158.52445 
L 417.330739 158.462017 
L 417.01895 158.33708 
L 414.452782 157.308955 
L 414.136023 157.182008 
L 412.544224 156.544527 
L 412.302407 156.449826 
L 412.060935 156.354234 
L 411.819811 156.257824 
L 411.52733 156.138971 
L 411.235333 156.018928 
L 410.943819 155.89755 
L 410.652791 155.775056 
L 410.362246 155.6513 
L 410.072186 155.526354 
L 409.782835 155.400362 
L 409.493968 155.27318 
L 409.205659 155.144734 
L 408.917973 155.014801 
L 408.630775 154.883753 
L 408.344133 154.751441 
L 408.058047 154.617864 
" clip-path="url(#pc207a51734)" style="fill: #d3d3d3"/>
   </g>
   <g id="matplotlib.axis_1">
    <g id="xtick_1">
     <g id="line2d_1">
      <defs>
       <path id="mbd3ae68efe" d="M 0 0 
L 0 3.5 
" style="stroke: #000000; stroke-width: 0.8"/>
      </defs>
      <g>
       <use xlink:href="#mbd3ae68efe" x="189.159999" y="640.8" style="stroke: #000000; stroke-width: 0.8"/>
      </g>
     </g>
     <g id="text_1">
      <!-- 13.20 -->
      <g transform="translate(174.845936 655.398438) scale(0.1 -0.1)">
       <defs>
        <path id="DejaVuSans-31" d="M 794 531 
L 1825 531 
L 1825 4091 
L 703 3866 
L 703 4441 
L 1819 4666 
L 2450 4666 
L 2450 531 
L 3481 531 
L 3481 0 
L 794 0 
L 794 531 
z
" transform="scale(0.015625)"/>
        <path id="DejaVuSans-33" d="M 2597 2516 
Q 3050 2419 3304 2112 
Q 3559 1806 3559 1356 
Q 3559 666 3084 287 
Q 2609 -91 1734 -91 
Q 1441 -91 1130 -33 
Q 819 25 488 141 
L 488 750 
Q 750 597 1062 519 
Q 1375 441 1716 441 
Q 2309 441 2620 675 
Q 2931 909 2931 1356 
Q 2931 1769 2642 2001 
Q 2353 2234 1838 2234 
L 1294 2234 
L 1294 2753 
L 1863 2753 
Q 2328 2753 2575 2939 
Q 2822 3125 2822 3475 
Q 2822 3834 2567 4026 
Q 2313 4219 1838 4219 
Q 1578 4219 1281 4162 
Q 984 4106 628 3988 
L 628 4550 
Q 988 4650 1302 4700 
Q 1616 4750 1894 4750 
Q 2613 4750 3031 4423 
Q 3450 4097 3450 3541 
Q 3450 3153 3228 2886 
Q 3006 2619 2597 2516 
z
" transform="scale(0.015625)"/>
        <path id="DejaVuSans-2e" d="M 684 794 
L 1344 794 
L 1344 0 
L 684 0 
L 684 794 
z
" transform="scale(0.015625)"/>
        <path id="DejaVuSans-32" d="M 1228 531 
L 3431 531 
L 3431 0 
L 469 0 
L 469 531 
Q 828 903 1448 1529 
Q 2069 2156 2228 2338 
Q 2531 2678 2651 2914 
Q 2772 3150 2772 3378 
Q 2772 3750 2511 3984 
Q 2250 4219 1831 4219 
Q 1534 4219 1204 4116 
Q 875 4013 500 3803 
L 500 4441 
Q 881 4594 1212 4672 
Q 1544 4750 1819 4750 
Q 2544 4750 2975 4387 
Q 3406 4025 3406 3419 
Q 3406 3131 3298 2873 
Q 3191 2616 2906 2266 
Q 2828 2175 2409 1742 
Q 1991 1309 1228 531 
z
" transform="scale(0.015625)"/>
        <path id="DejaVuSans-30" d="M 2034 4250 
Q 1547 4250 1301 3770 
Q 1056 3291 1056 2328 
Q 1056 1369 1301 889 
Q 1547 409 2034 409 
Q 2525 409 2770 889 
Q 3016 1369 3016 2328 
Q 3016 3291 2770 3770 
Q 2525 4250 2034 4250 
z
M 2034 4750 
Q 2819 4750 3233 4129 
Q 3647 3509 3647 2328 
Q 3647 1150 3233 529 
Q 2819 -91 2034 -91 
Q 1250 -91 836 529 
Q 422 1150 422 2328 
Q 422 3509 836 4129 
Q 1250 4750 2034 4750 
z
" transform="scale(0.015625)"/>
       </defs>
       <use xlink:href="#DejaVuSans-31"/>
       <use xlink:href="#DejaVuSans-33" x="63.623047"/>
       <use xlink:href="#DejaVuSans-2e" x="127.246094"/>
       <use xlink:href="#DejaVuSans-32" x="159.033203"/>
       <use xlink:href="#DejaVuSans-30" x="222.65625"/>
      </g>
     </g>
    </g>
    <g id="xtick_2">
     <g id="line2d_2">
      <g>
       <use xlink:href="#mbd3ae68efe" x="288.780823" y="640.8" style="stroke: #000000; stroke-width: 0.8"/>
      </g>
     </g>
     <g id="text_2">
      <!-- 13.22 -->
      <g transform="translate(274.46676 655.398438) scale(0.1 -0.1)">
       <use xlink:href="#DejaVuSans-31"/>
       <use xlink:href="#DejaVuSans-33" x="63.623047"/>
       <use xlink:href="#DejaVuSans-2e" x="127.246094"/>
       <use xlink:href="#DejaVuSans-32" x="159.033203"/>
       <use xlink:href="#DejaVuSans-32" x="222.65625"/>
      </g>
     </g>
    </g>
    <g id="xtick_3">
     <g id="line2d_3">
      <g>
       <use xlink:href="#mbd3ae68efe" x="388.401647" y="640.8" style="stroke: #000000; stroke-width: 0.8"/>
      </g>
     </g>
     <g id="text_3">
      <!-- 13.24 -->
      <g transform="translate(374.087584 655.398438) scale(0.1 -0.1)">
       <defs>
        <path id="DejaVuSans-34" d="M 2419 4116 
L 825 1625 
L 2419 1625 
L 2419 4116 
z
M 2253 4666 
L 3047 4666 
L 3047 1625 
L 3713 1625 
L 3713 1100 
L 3047 1100 
L 3047 0 
L 2419 0 
L 2419 1100 
L 313 1100 
L 313 1709 
L 2253 4666 
z
" transform="scale(0.015625)"/>
       </defs>
       <use xlink:href="#DejaVuSans-31"/>
       <use xlink:href="#DejaVuSans-33" x="63.623047"/>
       <use xlink:href="#DejaVuSans-2e" x="127.246094"/>
       <use xlink:href="#DejaVuSans-32" x="159.033203"/>
       <use xlink:href="#DejaVuSans-34" x="222.65625"/>
      </g>
     </g>
    </g>
    <g id="xtick_4">
     <g id="line2d_4">
      <g>
       <use xlink:href="#mbd3ae68efe" x="488.022471" y="640.8" style="stroke: #000000; stroke-width: 0.8"/>
      </g>
     </g>
     <g id="text_4">
      <!-- 13.26 -->
      <g transform="translate(473.708408 655.398438) scale(0.1 -0.1)">
       <defs>
        <path id="DejaVuSans-36" d="M 2113 2584 
Q 1688 2584 1439 2293 
Q 1191 2003 1191 1497 
Q 1191 994 1439 701 
Q 1688 409 2113 409 
Q 2538 409 2786 701 
Q 3034 994 3034 1497 
Q 3034 2003 2786 2293 
Q 2538 2584 2113 2584 
z
M 3366 4563 
L 3366 3988 
Q 3128 4100 2886 4159 
Q 2644 4219 2406 4219 
Q 1781 4219 1451 3797 
Q 1122 3375 1075 2522 
Q 1259 2794 1537 2939 
Q 1816 3084 2150 3084 
Q 2853 3084 3261 2657 
Q 3669 2231 3669 1497 
Q 3669 778 3244 343 
Q 2819 -91 2113 -91 
Q 1303 -91 875 529 
Q 447 1150 447 2328 
Q 447 3434 972 4092 
Q 1497 4750 2381 4750 
Q 2619 4750 2861 4703 
Q 3103 4656 3366 4563 
z
" transform="scale(0.015625)"/>
       </defs>
       <use xlink:href="#DejaVuSans-31"/>
       <use xlink:href="#DejaVuSans-33" x="63.623047"/>
       <use xlink:href="#DejaVuSans-2e" x="127.246094"/>
       <use xlink:href="#DejaVuSans-32" x="159.033203"/>
       <use xlink:href="#DejaVuSans-36" x="222.65625"/>
      </g>
     </g>
    </g>
    <g id="xtick_5">
     <g id="line2d_5">
      <g>
       <use xlink:href="#mbd3ae68efe" x="587.643295" y="640.8" style="stroke: #000000; stroke-width: 0.8"/>
      </g>
     </g>
     <g id="text_5">
      <!-- 13.28 -->
      <g transform="translate(573.329232 655.398438) scale(0.1 -0.1)">
       <defs>
        <path id="DejaVuSans-38" d="M 2034 2216 
Q 1584 2216 1326 1975 
Q 1069 1734 1069 1313 
Q 1069 891 1326 650 
Q 1584 409 2034 409 
Q 2484 409 2743 651 
Q 3003 894 3003 1313 
Q 3003 1734 2745 1975 
Q 2488 2216 2034 2216 
z
M 1403 2484 
Q 997 2584 770 2862 
Q 544 3141 544 3541 
Q 544 4100 942 4425 
Q 1341 4750 2034 4750 
Q 2731 4750 3128 4425 
Q 3525 4100 3525 3541 
Q 3525 3141 3298 2862 
Q 3072 2584 2669 2484 
Q 3125 2378 3379 2068 
Q 3634 1759 3634 1313 
Q 3634 634 3220 271 
Q 2806 -91 2034 -91 
Q 1263 -91 848 271 
Q 434 634 434 1313 
Q 434 1759 690 2068 
Q 947 2378 1403 2484 
z
M 1172 3481 
Q 1172 3119 1398 2916 
Q 1625 2713 2034 2713 
Q 2441 2713 2670 2916 
Q 2900 3119 2900 3481 
Q 2900 3844 2670 4047 
Q 2441 4250 2034 4250 
Q 1625 4250 1398 4047 
Q 1172 3844 1172 3481 
z
" transform="scale(0.015625)"/>
       </defs>
       <use xlink:href="#DejaVuSans-31"/>
       <use xlink:href="#DejaVuSans-33" x="63.623047"/>
       <use xlink:href="#DejaVuSans-2e" x="127.246094"/>
       <use xlink:href="#DejaVuSans-32" x="159.033203"/>
       <use xlink:href="#DejaVuSans-38" x="222.65625"/>
      </g>
     </g>
    </g>
   </g>
   <g id="matplotlib.axis_2">
    <g id="ytick_1">
     <g id="line2d_6">
      <defs>
       <path id="m482d19c843" d="M 0 0 
L -3.5 0 
" style="stroke: #000000; stroke-width: 0.8"/>
      </defs>
      <g>
       <use xlink:href="#m482d19c843" x="97.738248" y="605.334008" style="stroke: #000000; stroke-width: 0.8"/>
      </g>
     </g>
     <g id="text_6">
      <!-- 52.47 -->
      <g transform="translate(62.110123 609.133226) scale(0.1 -0.1)">
       <defs>
        <path id="DejaVuSans-35" d="M 691 4666 
L 3169 4666 
L 3169 4134 
L 1269 4134 
L 1269 2991 
Q 1406 3038 1543 3061 
Q 1681 3084 1819 3084 
Q 2600 3084 3056 2656 
Q 3513 2228 3513 1497 
Q 3513 744 3044 326 
Q 2575 -91 1722 -91 
Q 1428 -91 1123 -41 
Q 819 9 494 109 
L 494 744 
Q 775 591 1075 516 
Q 1375 441 1709 441 
Q 2250 441 2565 725 
Q 2881 1009 2881 1497 
Q 2881 1984 2565 2268 
Q 2250 2553 1709 2553 
Q 1456 2553 1204 2497 
Q 953 2441 691 2322 
L 691 4666 
z
" transform="scale(0.015625)"/>
        <path id="DejaVuSans-37" d="M 525 4666 
L 3525 4666 
L 3525 4397 
L 1831 0 
L 1172 0 
L 2766 4134 
L 525 4134 
L 525 4666 
z
" transform="scale(0.015625)"/>
       </defs>
       <use xlink:href="#DejaVuSans-35"/>
       <use xlink:href="#DejaVuSans-32" x="63.623047"/>
       <use xlink:href="#DejaVuSans-2e" x="127.246094"/>
       <use xlink:href="#DejaVuSans-34" x="159.033203"/>
       <use xlink:href="#DejaVuSans-37" x="222.65625"/>
      </g>
     </g>
    </g>
    <g id="ytick_2">
     <g id="line2d_7">
      <g>
       <use xlink:href="#m482d19c843" x="97.738248" y="523.490161" style="stroke: #000000; stroke-width: 0.8"/>
      </g>
     </g>
     <g id="text_7">
      <!-- 52.48 -->
      <g transform="translate(62.110123 527.28938) scale(0.1 -0.1)">
       <use xlink:href="#DejaVuSans-35"/>
       <use xlink:href="#DejaVuSans-32" x="63.623047"/>
       <use xlink:href="#DejaVuSans-2e" x="127.246094"/>
       <use xlink:href="#DejaVuSans-34" x="159.033203"/>
       <use xlink:href="#DejaVuSans-38" x="222.65625"/>
      </g>
     </g>
    </g>
    <g id="ytick_3">
     <g id="line2d_8">
      <g>
       <use xlink:href="#m482d19c843" x="97.738248" y="441.646315" style="stroke: #000000; stroke-width: 0.8"/>
      </g>
     </g>
     <g id="text_8">
      <!-- 52.49 -->
      <g transform="translate(62.110123 445.445533) scale(0.1 -0.1)">
       <defs>
        <path id="DejaVuSans-39" d="M 703 97 
L 703 672 
Q 941 559 1184 500 
Q 1428 441 1663 441 
Q 2288 441 2617 861 
Q 2947 1281 2994 2138 
Q 2813 1869 2534 1725 
Q 2256 1581 1919 1581 
Q 1219 1581 811 2004 
Q 403 2428 403 3163 
Q 403 3881 828 4315 
Q 1253 4750 1959 4750 
Q 2769 4750 3195 4129 
Q 3622 3509 3622 2328 
Q 3622 1225 3098 567 
Q 2575 -91 1691 -91 
Q 1453 -91 1209 -44 
Q 966 3 703 97 
z
M 1959 2075 
Q 2384 2075 2632 2365 
Q 2881 2656 2881 3163 
Q 2881 3666 2632 3958 
Q 2384 4250 1959 4250 
Q 1534 4250 1286 3958 
Q 1038 3666 1038 3163 
Q 1038 2656 1286 2365 
Q 1534 2075 1959 2075 
z
" transform="scale(0.015625)"/>
       </defs>
       <use xlink:href="#DejaVuSans-35"/>
       <use xlink:href="#DejaVuSans-32" x="63.623047"/>
       <use xlink:href="#DejaVuSans-2e" x="127.246094"/>
       <use xlink:href="#DejaVuSans-34" x="159.033203"/>
       <use xlink:href="#DejaVuSans-39" x="222.65625"/>
      </g>
     </g>
    </g>
    <g id="ytick_4">
     <g id="line2d_9">
      <g>
       <use xlink:href="#m482d19c843" x="97.738248" y="359.802468" style="stroke: #000000; stroke-width: 0.8"/>
      </g>
     </g>
     <g id="text_9">
      <!-- 52.50 -->
      <g transform="translate(62.110123 363.601687) scale(0.1 -0.1)">
       <use xlink:href="#DejaVuSans-35"/>
       <use xlink:href="#DejaVuSans-32" x="63.623047"/>
       <use xlink:href="#DejaVuSans-2e" x="127.246094"/>
       <use xlink:href="#DejaVuSans-35" x="159.033203"/>
       <use xlink:href="#DejaVuSans-30" x="222.65625"/>
      </g>
     </g>
    </g>
    <g id="ytick_5">
     <g id="line2d_10">
      <g>
       <use xlink:href="#m482d19c843" x="97.738248" y="277.958622" style="stroke: #000000; stroke-width: 0.8"/>
      </g>
     </g>
     <g id="text_10">
      <!-- 52.51 -->
      <g transform="translate(62.110123 281.757841) scale(0.1 -0.1)">
       <use xlink:href="#DejaVuSans-35"/>
       <use xlink:href="#DejaVuSans-32" x="63.623047"/>
       <use xlink:href="#DejaVuSans-2e" x="127.246094"/>
       <use xlink:href="#DejaVuSans-35" x="159.033203"/>
       <use xlink:href="#DejaVuSans-31" x="222.65625"/>
      </g>
     </g>
    </g>
    <g id="ytick_6">
     <g id="line2d_11">
      <g>
       <use xlink:href="#m482d19c843" x="97.738248" y="196.114775" style="stroke: #000000; stroke-width: 0.8"/>
      </g>
     </g>
     <g id="text_11">
      <!-- 52.52 -->
      <g transform="translate(62.110123 199.913994) scale(0.1 -0.1)">
       <use xlink:href="#DejaVuSans-35"/>
       <use xlink:href="#DejaVuSans-32" x="63.623047"/>
       <use xlink:href="#DejaVuSans-2e" x="127.246094"/>
       <use xlink:href="#DejaVuSans-35" x="159.033203"/>
       <use xlink:href="#DejaVuSans-32" x="222.65625"/>
      </g>
     </g>
    </g>
    <g id="ytick_7">
     <g id="line2d_12">
      <g>
       <use xlink:href="#m482d19c843" x="97.738248" y="114.270929" style="stroke: #000000; stroke-width: 0.8"/>
      </g>
     </g>
     <g id="text_12">
      <!-- 52.53 -->
      <g transform="translate(62.110123 118.070148) scale(0.1 -0.1)">
       <use xlink:href="#DejaVuSans-35"/>
       <use xlink:href="#DejaVuSans-32" x="63.623047"/>
       <use xlink:href="#DejaVuSans-2e" x="127.246094"/>
       <use xlink:href="#DejaVuSans-35" x="159.033203"/>
       <use xlink:href="#DejaVuSans-33" x="222.65625"/>
      </g>
     </g>
    </g>
   </g>
   <g id="LineCollection_1">
    <path d="M 597.229807 278.509431 
L 597.140148 277.265404 
" clip-path="url(#pc207a51734)" style="fill: none; stroke: #ff0000; stroke-opacity: 0.7; stroke-width: 0.5"/>
    <path d="M 588.704256 214.622124 
L 589.388652 216.479161 
L 590.233934 218.610375 
L 590.523333 219.741457 
L 590.708627 220.832435 
L 590.799282 221.36442 
L 590.841123 221.759726 
L 590.885952 222.180404 
L 592.340915 235.850781 
L 592.400189 236.406501 
L 592.425094 236.642211 
L 592.464444 236.994958 
" clip-path="url(#pc207a51734)" style="fill: none; stroke: #ff0000; stroke-opacity: 0.7; stroke-width: 0.5"/>
    <path d="M 587.982005 208.795661 
L 588.064691 209.86536 
" clip-path="url(#pc207a51734)" style="fill: none; stroke: #ff0000; stroke-opacity: 0.7; stroke-width: 0.5"/>
    <path d="M 314.858068 275.872422 
L 316.156127 274.151246 
L 317.456179 272.420249 
L 317.890028 272.171443 
" clip-path="url(#pc207a51734)" style="fill: none; stroke: #ff0000; stroke-opacity: 0.7; stroke-width: 0.5"/>
    <path d="M 315.286437 252.690153 
L 319.714583 259.264669 
L 320.527489 260.707576 
L 321.235793 262.123474 
L 322.101498 263.146522 
L 322.573701 264.353719 
L 323.302925 265.418508 
L 324.04261 266.278686 
L 325.372548 267.666758 
L 326.457418 268.573588 
" clip-path="url(#pc207a51734)" style="fill: none; stroke: #ff0000; stroke-opacity: 0.7; stroke-width: 0.5"/>
    <path d="M 326.457418 268.573588 
L 327.418261 269.365018 
" clip-path="url(#pc207a51734)" style="fill: none; stroke: #ff0000; stroke-opacity: 0.7; stroke-width: 0.5"/>
    <path d="M 320.81091 270.547661 
L 321.61236 269.617915 
L 322.073604 269.965752 
" clip-path="url(#pc207a51734)" style="fill: none; stroke: #ff0000; stroke-opacity: 0.7; stroke-width: 0.5"/>
    <path d="M 322.073604 269.965752 
L 322.971188 270.695799 
L 323.40155 271.039543 
L 323.903141 271.353005 
L 324.500367 271.19832 
L 325.351627 270.032045 
L 326.457418 268.573588 
" clip-path="url(#pc207a51734)" style="fill: none; stroke: #ff0000; stroke-opacity: 0.7; stroke-width: 0.5"/>
    <path d="M 319.044135 271.831791 
L 319.86252 271.585441 
L 319.979076 271.474134 
L 320.81091 270.547661 
" clip-path="url(#pc207a51734)" style="fill: none; stroke: #ff0000; stroke-opacity: 0.7; stroke-width: 0.5"/>
    <path d="M 317.890028 272.171443 
L 319.044135 271.831791 
" clip-path="url(#pc207a51734)" style="fill: none; stroke: #ff0000; stroke-opacity: 0.7; stroke-width: 0.5"/>
    <path d="M 380.484282 323.558739 
L 380.437958 322.846698 
L 384.72514 317.013687 
L 385.913119 315.243404 
L 386.222939 314.605841 
L 386.314092 314.076311 
L 386.321066 313.539416 
L 386.248343 312.890394 
L 386.13876 312.213545 
" clip-path="url(#pc207a51734)" style="fill: none; stroke: #ff0000; stroke-opacity: 0.7; stroke-width: 0.5"/>
    <path d="M 594.956459 250.99844 
L 594.580391 246.870237 
L 594.532573 246.346436 
L 594.473796 245.742428 
L 594.094739 241.729625 
L 593.690279 237.531854 
L 593.623035 236.858279 
L 593.562764 236.282917 
L 592.043048 221.812925 
L 591.990249 221.308767 
" clip-path="url(#pc207a51734)" style="fill: none; stroke: #ff0000; stroke-opacity: 0.7; stroke-width: 0.5"/>
    <path d="M 594.263098 255.789579 
L 594.320879 256.555637 
L 594.421496 257.810304 
L 594.533569 259.136174 
L 594.543033 259.26385 
" clip-path="url(#pc207a51734)" style="fill: none; stroke: #ff0000; stroke-opacity: 0.7; stroke-width: 0.5"/>
    <path d="M 596.862704 273.265696 
L 596.670436 270.462544 
L 596.626104 269.815977 
L 596.578286 269.200512 
L 596.305823 265.712327 
L 596.247047 265.070671 
L 595.681699 258.893098 
" clip-path="url(#pc207a51734)" style="fill: none; stroke: #ff0000; stroke-opacity: 0.7; stroke-width: 0.5"/>
    <path d="M 476.148665 296.110768 
L 477.058701 297.324513 
L 479.463548 294.323299 
L 478.366722 293.436112 
L 476.148665 296.110768 
" clip-path="url(#pc207a51734)" style="fill: none; stroke: #ff0000; stroke-opacity: 0.7; stroke-width: 0.5"/>
    <path d="M 595.892397 276.038565 
L 595.91531 276.374125 
L 595.941211 276.697408 
L 595.982554 277.38326 
" clip-path="url(#pc207a51734)" style="fill: none; stroke: #ff0000; stroke-opacity: 0.7; stroke-width: 0.5"/>
    <path d="M 593.824269 251.254612 
L 594.003586 253.007707 
L 594.076807 253.724659 
" clip-path="url(#pc207a51734)" style="fill: none; stroke: #ff0000; stroke-opacity: 0.7; stroke-width: 0.5"/>
    <path d="M 588.064691 209.86536 
L 588.158334 210.706715 
L 588.189217 210.983347 
" clip-path="url(#pc207a51734)" style="fill: none; stroke: #ff0000; stroke-opacity: 0.7; stroke-width: 0.5"/>
    <path d="M 590.020746 214.817731 
L 589.662609 213.505774 
L 589.553524 212.712707 
L 589.383172 211.475228 
L 589.338343 210.862218 
" clip-path="url(#pc207a51734)" style="fill: none; stroke: #ff0000; stroke-opacity: 0.7; stroke-width: 0.5"/>
    <path d="M 595.383335 255.697096 
L 595.369388 255.554687 
L 595.290189 254.755073 
" clip-path="url(#pc207a51734)" style="fill: none; stroke: #ff0000; stroke-opacity: 0.7; stroke-width: 0.5"/>
    <path d="M 594.192368 254.856559 
L 594.251642 255.63735 
L 594.263098 255.789579 
" clip-path="url(#pc207a51734)" style="fill: none; stroke: #ff0000; stroke-opacity: 0.7; stroke-width: 0.5"/>
    <path d="M 594.076807 253.724659 
L 594.105199 254.006202 
L 594.192368 254.856559 
" clip-path="url(#pc207a51734)" style="fill: none; stroke: #ff0000; stroke-opacity: 0.7; stroke-width: 0.5"/>
    <path d="M 595.290189 254.755073 
L 595.214975 253.897349 
L 595.199534 253.726296 
" clip-path="url(#pc207a51734)" style="fill: none; stroke: #ff0000; stroke-opacity: 0.7; stroke-width: 0.5"/>
    <path d="M 595.669246 273.534962 
L 595.892397 276.038565 
" clip-path="url(#pc207a51734)" style="fill: none; stroke: #ff0000; stroke-opacity: 0.7; stroke-width: 0.5"/>
    <path d="M 597.140148 277.265404 
L 597.089839 276.573005 
L 597.068421 276.261999 
L 597.050987 276.007464 
" clip-path="url(#pc207a51734)" style="fill: none; stroke: #ff0000; stroke-opacity: 0.7; stroke-width: 0.5"/>
    <path d="M 589.338343 210.862218 
L 589.317921 210.575765 
L 589.263627 209.751597 
" clip-path="url(#pc207a51734)" style="fill: none; stroke: #ff0000; stroke-opacity: 0.7; stroke-width: 0.5"/>
    <path d="M 588.189217 210.983347 
L 588.467159 212.810102 
L 588.704256 214.622124 
" clip-path="url(#pc207a51734)" style="fill: none; stroke: #ff0000; stroke-opacity: 0.7; stroke-width: 0.5"/>
    <path d="M 591.990249 221.308767 
L 591.851278 220.611457 
L 591.648052 219.59332 
L 591.215199 218.223254 
L 590.4531 216.116593 
L 590.020746 214.817731 
" clip-path="url(#pc207a51734)" style="fill: none; stroke: #ff0000; stroke-opacity: 0.7; stroke-width: 0.5"/>
    <path d="M 592.464444 236.994958 
L 592.478391 237.147188 
L 592.525711 237.657893 
L 592.835532 241.016765 
L 593.231525 245.602476 
" clip-path="url(#pc207a51734)" style="fill: none; stroke: #ff0000; stroke-opacity: 0.7; stroke-width: 0.5"/>
    <path d="M 593.231525 245.602476 
L 593.253939 245.863557 
L 593.336625 246.452015 
L 593.39042 246.986455 
L 593.549315 248.563586 
" clip-path="url(#pc207a51734)" style="fill: none; stroke: #ff0000; stroke-opacity: 0.7; stroke-width: 0.5"/>
    <path d="M 593.549315 248.563586 
L 593.824269 251.254612 
" clip-path="url(#pc207a51734)" style="fill: none; stroke: #ff0000; stroke-opacity: 0.7; stroke-width: 0.5"/>
    <path d="M 595.199534 253.726296 
L 595.127807 252.913586 
L 595.053092 252.061592 
L 594.956459 250.99844 
" clip-path="url(#pc207a51734)" style="fill: none; stroke: #ff0000; stroke-opacity: 0.7; stroke-width: 0.5"/>
    <path d="M 595.681699 258.893098 
L 595.462533 256.49671 
L 595.39778 255.842778 
L 595.383335 255.697096 
" clip-path="url(#pc207a51734)" style="fill: none; stroke: #ff0000; stroke-opacity: 0.7; stroke-width: 0.5"/>
    <path d="M 594.543033 259.26385 
L 594.974889 265.179524 
L 595.020217 265.795808 
L 595.302642 269.349468 
L 595.353448 269.988668 
" clip-path="url(#pc207a51734)" style="fill: none; stroke: #ff0000; stroke-opacity: 0.7; stroke-width: 0.5"/>
    <path d="M 595.353448 269.988668 
L 595.41073 270.627868 
L 595.571618 272.437436 
L 595.669246 273.534962 
" clip-path="url(#pc207a51734)" style="fill: none; stroke: #ff0000; stroke-opacity: 0.7; stroke-width: 0.5"/>
    <path d="M 597.050987 276.007464 
L 596.94788 274.503175 
L 596.862704 273.265696 
" clip-path="url(#pc207a51734)" style="fill: none; stroke: #ff0000; stroke-opacity: 0.7; stroke-width: 0.5"/>
   </g>
   <g id="patch_3">
    <path d="M 97.738248 640.8 
L 97.738248 86.4 
" style="fill: none; stroke: #000000; stroke-width: 0.8; stroke-linejoin: miter; stroke-linecap: square"/>
   </g>
   <g id="patch_4">
    <path d="M 640.261752 640.8 
L 640.261752 86.4 
" style="fill: none; stroke: #000000; stroke-width: 0.8; stroke-linejoin: miter; stroke-linecap: square"/>
   </g>
   <g id="patch_5">
    <path d="M 97.738248 640.8 
L 640.261752 640.8 
" style="fill: none; stroke: #000000; stroke-width: 0.8; stroke-linejoin: miter; stroke-linecap: square"/>
   </g>
   <g id="patch_6">
    <path d="M 97.738248 86.4 
L 640.261752 86.4 
" style="fill: none; stroke: #000000; stroke-width: 0.8; stroke-linejoin: miter; stroke-linecap: square"/>
   </g>
   <g id="text_13">
    <!-- Charlottenburg_West -->
    <g transform="translate(307.005831 371.548129) scale(0.12 -0.12)">
     <defs>
      <path id="DejaVuSans-43" d="M 4122 4306 
L 4122 3641 
Q 3803 3938 3442 4084 
Q 3081 4231 2675 4231 
Q 1875 4231 1450 3742 
Q 1025 3253 1025 2328 
Q 1025 1406 1450 917 
Q 1875 428 2675 428 
Q 3081 428 3442 575 
Q 3803 722 4122 1019 
L 4122 359 
Q 3791 134 3420 21 
Q 3050 -91 2638 -91 
Q 1578 -91 968 557 
Q 359 1206 359 2328 
Q 359 3453 968 4101 
Q 1578 4750 2638 4750 
Q 3056 4750 3426 4639 
Q 3797 4528 4122 4306 
z
" transform="scale(0.015625)"/>
      <path id="DejaVuSans-68" d="M 3513 2113 
L 3513 0 
L 2938 0 
L 2938 2094 
Q 2938 2591 2744 2837 
Q 2550 3084 2163 3084 
Q 1697 3084 1428 2787 
Q 1159 2491 1159 1978 
L 1159 0 
L 581 0 
L 581 4863 
L 1159 4863 
L 1159 2956 
Q 1366 3272 1645 3428 
Q 1925 3584 2291 3584 
Q 2894 3584 3203 3211 
Q 3513 2838 3513 2113 
z
" transform="scale(0.015625)"/>
      <path id="DejaVuSans-61" d="M 2194 1759 
Q 1497 1759 1228 1600 
Q 959 1441 959 1056 
Q 959 750 1161 570 
Q 1363 391 1709 391 
Q 2188 391 2477 730 
Q 2766 1069 2766 1631 
L 2766 1759 
L 2194 1759 
z
M 3341 1997 
L 3341 0 
L 2766 0 
L 2766 531 
Q 2569 213 2275 61 
Q 1981 -91 1556 -91 
Q 1019 -91 701 211 
Q 384 513 384 1019 
Q 384 1609 779 1909 
Q 1175 2209 1959 2209 
L 2766 2209 
L 2766 2266 
Q 2766 2663 2505 2880 
Q 2244 3097 1772 3097 
Q 1472 3097 1187 3025 
Q 903 2953 641 2809 
L 641 3341 
Q 956 3463 1253 3523 
Q 1550 3584 1831 3584 
Q 2591 3584 2966 3190 
Q 3341 2797 3341 1997 
z
" transform="scale(0.015625)"/>
      <path id="DejaVuSans-72" d="M 2631 2963 
Q 2534 3019 2420 3045 
Q 2306 3072 2169 3072 
Q 1681 3072 1420 2755 
Q 1159 2438 1159 1844 
L 1159 0 
L 581 0 
L 581 3500 
L 1159 3500 
L 1159 2956 
Q 1341 3275 1631 3429 
Q 1922 3584 2338 3584 
Q 2397 3584 2469 3576 
Q 2541 3569 2628 3553 
L 2631 2963 
z
" transform="scale(0.015625)"/>
      <path id="DejaVuSans-6c" d="M 603 4863 
L 1178 4863 
L 1178 0 
L 603 0 
L 603 4863 
z
" transform="scale(0.015625)"/>
      <path id="DejaVuSans-6f" d="M 1959 3097 
Q 1497 3097 1228 2736 
Q 959 2375 959 1747 
Q 959 1119 1226 758 
Q 1494 397 1959 397 
Q 2419 397 2687 759 
Q 2956 1122 2956 1747 
Q 2956 2369 2687 2733 
Q 2419 3097 1959 3097 
z
M 1959 3584 
Q 2709 3584 3137 3096 
Q 3566 2609 3566 1747 
Q 3566 888 3137 398 
Q 2709 -91 1959 -91 
Q 1206 -91 779 398 
Q 353 888 353 1747 
Q 353 2609 779 3096 
Q 1206 3584 1959 3584 
z
" transform="scale(0.015625)"/>
      <path id="DejaVuSans-74" d="M 1172 4494 
L 1172 3500 
L 2356 3500 
L 2356 3053 
L 1172 3053 
L 1172 1153 
Q 1172 725 1289 603 
Q 1406 481 1766 481 
L 2356 481 
L 2356 0 
L 1766 0 
Q 1100 0 847 248 
Q 594 497 594 1153 
L 594 3053 
L 172 3053 
L 172 3500 
L 594 3500 
L 594 4494 
L 1172 4494 
z
" transform="scale(0.015625)"/>
      <path id="DejaVuSans-65" d="M 3597 1894 
L 3597 1613 
L 953 1613 
Q 991 1019 1311 708 
Q 1631 397 2203 397 
Q 2534 397 2845 478 
Q 3156 559 3463 722 
L 3463 178 
Q 3153 47 2828 -22 
Q 2503 -91 2169 -91 
Q 1331 -91 842 396 
Q 353 884 353 1716 
Q 353 2575 817 3079 
Q 1281 3584 2069 3584 
Q 2775 3584 3186 3129 
Q 3597 2675 3597 1894 
z
M 3022 2063 
Q 3016 2534 2758 2815 
Q 2500 3097 2075 3097 
Q 1594 3097 1305 2825 
Q 1016 2553 972 2059 
L 3022 2063 
z
" transform="scale(0.015625)"/>
      <path id="DejaVuSans-6e" d="M 3513 2113 
L 3513 0 
L 2938 0 
L 2938 2094 
Q 2938 2591 2744 2837 
Q 2550 3084 2163 3084 
Q 1697 3084 1428 2787 
Q 1159 2491 1159 1978 
L 1159 0 
L 581 0 
L 581 3500 
L 1159 3500 
L 1159 2956 
Q 1366 3272 1645 3428 
Q 1925 3584 2291 3584 
Q 2894 3584 3203 3211 
Q 3513 2838 3513 2113 
z
" transform="scale(0.015625)"/>
      <path id="DejaVuSans-62" d="M 3116 1747 
Q 3116 2381 2855 2742 
Q 2594 3103 2138 3103 
Q 1681 3103 1420 2742 
Q 1159 2381 1159 1747 
Q 1159 1113 1420 752 
Q 1681 391 2138 391 
Q 2594 391 2855 752 
Q 3116 1113 3116 1747 
z
M 1159 2969 
Q 1341 3281 1617 3432 
Q 1894 3584 2278 3584 
Q 2916 3584 3314 3078 
Q 3713 2572 3713 1747 
Q 3713 922 3314 415 
Q 2916 -91 2278 -91 
Q 1894 -91 1617 61 
Q 1341 213 1159 525 
L 1159 0 
L 581 0 
L 581 4863 
L 1159 4863 
L 1159 2969 
z
" transform="scale(0.015625)"/>
      <path id="DejaVuSans-75" d="M 544 1381 
L 544 3500 
L 1119 3500 
L 1119 1403 
Q 1119 906 1312 657 
Q 1506 409 1894 409 
Q 2359 409 2629 706 
Q 2900 1003 2900 1516 
L 2900 3500 
L 3475 3500 
L 3475 0 
L 2900 0 
L 2900 538 
Q 2691 219 2414 64 
Q 2138 -91 1772 -91 
Q 1169 -91 856 284 
Q 544 659 544 1381 
z
M 1991 3584 
L 1991 3584 
z
" transform="scale(0.015625)"/>
      <path id="DejaVuSans-67" d="M 2906 1791 
Q 2906 2416 2648 2759 
Q 2391 3103 1925 3103 
Q 1463 3103 1205 2759 
Q 947 2416 947 1791 
Q 947 1169 1205 825 
Q 1463 481 1925 481 
Q 2391 481 2648 825 
Q 2906 1169 2906 1791 
z
M 3481 434 
Q 3481 -459 3084 -895 
Q 2688 -1331 1869 -1331 
Q 1566 -1331 1297 -1286 
Q 1028 -1241 775 -1147 
L 775 -588 
Q 1028 -725 1275 -790 
Q 1522 -856 1778 -856 
Q 2344 -856 2625 -561 
Q 2906 -266 2906 331 
L 2906 616 
Q 2728 306 2450 153 
Q 2172 0 1784 0 
Q 1141 0 747 490 
Q 353 981 353 1791 
Q 353 2603 747 3093 
Q 1141 3584 1784 3584 
Q 2172 3584 2450 3431 
Q 2728 3278 2906 2969 
L 2906 3500 
L 3481 3500 
L 3481 434 
z
" transform="scale(0.015625)"/>
      <path id="DejaVuSans-5f" d="M 3263 -1063 
L 3263 -1509 
L -63 -1509 
L -63 -1063 
L 3263 -1063 
z
" transform="scale(0.015625)"/>
      <path id="DejaVuSans-57" d="M 213 4666 
L 850 4666 
L 1831 722 
L 2809 4666 
L 3519 4666 
L 4500 722 
L 5478 4666 
L 6119 4666 
L 4947 0 
L 4153 0 
L 3169 4050 
L 2175 0 
L 1381 0 
L 213 4666 
z
" transform="scale(0.015625)"/>
      <path id="DejaVuSans-73" d="M 2834 3397 
L 2834 2853 
Q 2591 2978 2328 3040 
Q 2066 3103 1784 3103 
Q 1356 3103 1142 2972 
Q 928 2841 928 2578 
Q 928 2378 1081 2264 
Q 1234 2150 1697 2047 
L 1894 2003 
Q 2506 1872 2764 1633 
Q 3022 1394 3022 966 
Q 3022 478 2636 193 
Q 2250 -91 1575 -91 
Q 1294 -91 989 -36 
Q 684 19 347 128 
L 347 722 
Q 666 556 975 473 
Q 1284 391 1588 391 
Q 1994 391 2212 530 
Q 2431 669 2431 922 
Q 2431 1156 2273 1281 
Q 2116 1406 1581 1522 
L 1381 1569 
Q 847 1681 609 1914 
Q 372 2147 372 2553 
Q 372 3047 722 3315 
Q 1072 3584 1716 3584 
Q 2034 3584 2315 3537 
Q 2597 3491 2834 3397 
z
" transform="scale(0.015625)"/>
     </defs>
     <use xlink:href="#DejaVuSans-43"/>
     <use xlink:href="#DejaVuSans-68" x="69.824219"/>
     <use xlink:href="#DejaVuSans-61" x="133.203125"/>
     <use xlink:href="#DejaVuSans-72" x="194.482422"/>
     <use xlink:href="#DejaVuSans-6c" x="235.595703"/>
     <use xlink:href="#DejaVuSans-6f" x="263.378906"/>
     <use xlink:href="#DejaVuSans-74" x="324.560547"/>
     <use xlink:href="#DejaVuSans-74" x="363.769531"/>
     <use xlink:href="#DejaVuSans-65" x="402.978516"/>
     <use xlink:href="#DejaVuSans-6e" x="464.501953"/>
     <use xlink:href="#DejaVuSans-62" x="527.880859"/>
     <use xlink:href="#DejaVuSans-75" x="591.357422"/>
     <use xlink:href="#DejaVuSans-72" x="654.736328"/>
     <use xlink:href="#DejaVuSans-67" x="694.099609"/>
     <use xlink:href="#DejaVuSans-5f" x="757.576172"/>
     <use xlink:href="#DejaVuSans-57" x="807.576172"/>
     <use xlink:href="#DejaVuSans-65" x="900.578125"/>
     <use xlink:href="#DejaVuSans-73" x="962.101562"/>
     <use xlink:href="#DejaVuSans-74" x="1014.201172"/>
    </g>
   </g>
  </g>
 </g>
 <defs>
  <clipPath id="pc207a51734">
   <rect x="97.738248" y="86.4" width="542.523504" height="554.4"/>
  </clipPath>
 </defs>
</svg>
