<?xml version="1.0" encoding="utf-8" standalone="no"?>
<!DOCTYPE svg PUBLIC "-//W3C//DTD SVG 1.1//EN"
  "http://www.w3.org/Graphics/SVG/1.1/DTD/svg11.dtd">
<svg xmlns:xlink="http://www.w3.org/1999/xlink" width="720pt" height="720pt" viewBox="0 0 720 720" xmlns="http://www.w3.org/2000/svg" version="1.1">
 <metadata>
  <rdf:RDF xmlns:dc="http://purl.org/dc/elements/1.1/" xmlns:cc="http://creativecommons.org/ns#" xmlns:rdf="http://www.w3.org/1999/02/22-rdf-syntax-ns#">
   <cc:Work>
    <dc:type rdf:resource="http://purl.org/dc/dcmitype/StillImage"/>
    <dc:date>2024-10-15T13:04:01.039797</dc:date>
    <dc:format>image/svg+xml</dc:format>
    <dc:creator>
     <cc:Agent>
      <dc:title>Matplotlib v3.9.2, https://matplotlib.org/</dc:title>
     </cc:Agent>
    </dc:creator>
   </cc:Work>
  </rdf:RDF>
 </metadata>
 <defs>
  <style type="text/css">*{stroke-linejoin: round; stroke-linecap: butt}</style>
 </defs>
 <g id="figure_1">
  <g id="patch_1">
   <path d="M 0 720 
L 720 720 
L 720 0 
L 0 0 
z
" style="fill: #ffffff"/>
  </g>
  <g id="axes_1">
   <g id="patch_2">
    <path d="M 181.865235 640.8 
L 556.134765 640.8 
L 556.134765 86.4 
L 181.865235 86.4 
z
" style="fill: #ffffff"/>
   </g>
   <g id="PatchCollection_1">
    <path d="M 476.673547 615.6 
L 479.146213 613.729658 
L 482.140042 611.491584 
L 485.118768 609.244402 
L 487.996412 607.074149 
L 489.211461 606.208917 
L 490.984258 604.908756 
L 492.161798 604.014363 
L 493.827736 602.789833 
L 495.512047 601.542889 
L 496.423735 600.869547 
L 498.648346 599.22713 
L 504.201919 596.358701 
L 504.474575 596.249859 
L 510.466458 594.556997 
L 517.445105 593.994773 
L 522.214648 594.893906 
L 524.2848 595.48294 
L 527.488365 596.405852 
L 533.651628 598.730947 
L 539.122514 588.808239 
L 529.646464 582.851646 
L 519.716135 576.942634 
L 517.138277 569.220191 
L 499.687139 558.228727 
L 497.377456 553.389091 
L 491.224473 548.510151 
L 485.414954 547.855038 
L 484.996992 547.399611 
L 482.365404 544.534532 
L 474.363106 535.821703 
L 414.680409 470.852862 
L 404.097653 459.335725 
L 398.248944 457.927063 
L 379.974049 453.524342 
L 379.959772 453.520902 
L 379.828733 453.488628 
L 378.995585 453.288165 
L 378.434168 453.153131 
L 378.21468 453.100703 
L 378.204669 453.098311 
L 377.583183 452.948925 
L 377.152229 452.844551 
L 375.743503 452.505129 
L 373.299865 451.916796 
L 373.068177 451.860939 
L 370.969829 451.355581 
L 371.258143 450.055331 
L 371.723576 448.155758 
L 372.436854 445.238131 
L 372.458492 445.242447 
L 373.208455 445.246149 
L 374.32025 439.961594 
L 374.480983 439.196445 
L 375.237138 435.586514 
L 375.543588 434.190692 
L 375.596598 433.681816 
L 376.692476 429.050363 
L 377.968694 423.67853 
L 378.060792 423.717384 
L 378.708614 421.039729 
L 378.890962 420.287473 
L 379.070023 419.538544 
L 379.316361 419.354654 
L 379.655629 419.10551 
L 379.656859 418.149684 
L 379.657712 417.570389 
L 379.74609 417.156712 
L 379.887654 416.493132 
L 380.143701 415.29343 
L 380.203047 415.012245 
L 382.979994 401.968329 
L 383.793924 399.980179 
L 384.547575 398.141901 
L 387.028035 393.589937 
L 389.746363 388.87577 
L 390.649871 387.286675 
L 390.659575 387.26932 
L 390.945298 386.765276 
L 390.220785 385.535487 
L 390.005732 385.171451 
L 390.345452 384.588763 
L 391.113988 383.268564 
L 391.450661 382.690175 
L 391.501234 382.623761 
L 391.549778 382.538178 
L 392.343071 381.138874 
L 392.612453 380.568425 
L 394.313461 377.910991 
L 395.057611 377.014403 
L 397.872245 373.623289 
L 398.068584 373.403565 
L 398.865 372.679104 
L 401.389082 370.382823 
L 401.428984 370.00567 
L 401.511667 369.223517 
L 402.065953 368.790956 
L 401.808353 367.780813 
L 401.950794 366.920873 
L 402.231675 366.1864 
L 403.185971 365.599591 
L 406.23146 363.726981 
L 406.508662 363.567197 
L 404.429677 361.546515 
L 403.994643 361.12375 
L 409.546083 351.406638 
L 409.431175 350.48703 
L 410.391418 350.940459 
L 410.547352 350.662985 
L 411.06004 349.750919 
L 410.118383 349.347023 
L 410.291996 349.312193 
L 410.565247 349.257344 
L 414.100772 343.137341 
L 415.541956 340.668154 
L 421.285672 330.851476 
L 424.291213 323.327408 
L 425.869933 322.812524 
L 426.738882 322.225502 
L 427.512004 321.109425 
L 427.501068 321.032376 
L 426.465348 313.731997 
L 425.886682 309.65317 
L 425.653186 308.007659 
L 425.484291 306.817298 
L 424.748661 301.632086 
L 425.121725 301.563845 
L 425.022241 300.912976 
L 424.783222 300.877005 
L 424.368746 300.814791 
L 423.920183 297.068057 
L 423.848917 296.564097 
L 423.135159 291.524085 
L 422.848864 289.501541 
L 422.119158 289.374798 
L 421.421458 284.985033 
L 421.577281 283.400859 
L 421.791593 281.22065 
L 421.882036 280.301035 
L 421.887381 280.277152 
L 422.662852 276.844136 
L 423.530584 272.998674 
L 423.917805 271.288148 
L 424.722292 267.724926 
L 425.524204 268.11596 
L 429.612742 270.108981 
L 433.659032 272.082522 
L 436.463378 273.450209 
L 437.285341 271.701742 
L 438.397672 269.340404 
L 437.222833 268.777709 
L 435.127742 267.774153 
L 430.797802 265.519404 
L 429.752853 264.207987 
L 429.573967 263.983512 
L 428.886625 262.496298 
L 428.409315 260.763468 
L 427.480952 257.392986 
L 425.906273 252.474079 
L 425.608985 251.647438 
L 425.300892 250.837523 
L 423.802772 246.932389 
L 423.770689 246.849058 
L 423.31525 245.662157 
L 422.600699 243.723569 
L 421.106831 239.965532 
L 420.10987 237.316782 
L 418.26588 232.417492 
L 418.203779 232.25133 
L 416.339263 227.258703 
L 412.550299 217.086965 
L 412.300472 216.376114 
L 409.091615 216.717393 
L 406.606109 212.044581 
L 405.821041 210.506175 
L 404.110942 207.157403 
L 405.072513 207.199324 
L 402.721143 203.358029 
L 400.231092 199.34765 
L 399.346457 199.461597 
L 398.754147 199.543189 
L 398.153411 197.523203 
L 397.162975 197.659152 
L 396.945636 197.328809 
L 396.322661 197.425381 
L 393.635433 197.789878 
L 393.470174 197.81227 
L 391.921394 198.022376 
L 391.788106 198.0404 
L 390.608942 198.200337 
L 389.74593 198.317423 
L 385.970486 198.829116 
L 385.97024 198.829149 
L 385.118667 198.942716 
L 381.224329 199.461092 
L 379.242539 199.724716 
L 376.543119 200.085327 
L 370.24058 200.924679 
L 360.838133 202.177819 
L 358.661514 202.467917 
L 348.955047 203.761059 
L 347.778546 203.91767 
L 338.364342 205.173414 
L 336.896637 205.368711 
L 336.524314 205.418438 
L 335.528632 205.550815 
L 332.16141 206.000026 
L 328.497269 206.488859 
L 328.248834 206.522004 
L 327.774757 206.58498 
L 327.236356 206.424543 
L 326.528875 206.213555 
L 325.002414 205.759228 
L 323.342603 205.263902 
L 321.738077 204.785961 
L 320.480639 204.411432 
L 317.516088 203.528499 
L 317.504104 203.525282 
L 317.191015 203.43157 
L 312.883708 202.146445 
L 312.533237 202.042138 
L 311.659412 201.782517 
L 311.310259 201.679051 
L 311.088211 201.613354 
L 310.556791 201.455716 
L 309.000219 200.992636 
L 308.346797 200.797882 
L 307.679635 200.598864 
L 305.576853 199.97066 
L 305.109955 199.831728 
L 304.093634 199.529253 
L 303.258382 199.280652 
L 302.422995 199.03086 
L 301.587738 198.782152 
L 300.256152 198.38603 
L 298.54006 197.874728 
L 295.762058 197.04697 
L 295.061317 196.838267 
L 291.907314 195.898532 
L 287.083845 194.46153 
L 286.455373 194.274301 
L 273.355376 190.352066 
L 274.321447 188.183245 
L 277.106475 181.928969 
L 277.662275 180.680139 
L 277.880878 180.18811 
L 279.717146 176.064629 
L 278.378413 175.468331 
L 277.10067 174.899204 
L 276.727188 173.997432 
L 276.115551 172.51997 
L 275.727552 171.5828 
L 273.9776 167.356018 
L 270.618019 159.242771 
L 270.011039 157.777047 
L 269.065131 155.491849 
L 268.650228 154.488184 
L 268.589914 154.342406 
L 268.248944 153.518634 
L 265.024788 145.733454 
L 262.55548 139.770644 
L 261.433716 137.061588 
L 258.932418 131.020138 
L 258.019775 128.815759 
L 255.611632 123.000149 
L 255.235882 122.092037 
L 252.593525 115.712941 
L 252.572849 115.663132 
L 252.237439 114.853469 
L 250.519534 111.6 
L 248.533745 112.29651 
L 244.875882 113.631579 
L 242.747414 114.408458 
L 240.257759 115.317173 
L 240.140801 115.359848 
L 239.323375 115.762019 
L 238.314401 116.258434 
L 238.057315 116.384877 
L 236.355593 117.221526 
L 234.933571 117.920179 
L 234.118886 118.3202 
L 233.86769 118.443371 
L 233.083972 118.827315 
L 232.100293 119.30869 
L 231.833654 119.43914 
L 230.855983 119.917675 
L 229.603547 120.531505 
L 224.588509 122.99131 
L 224.244692 123.160004 
L 219.207953 125.631074 
L 213.667368 128.348366 
L 215.203786 131.693545 
L 215.730679 132.932566 
L 218.132006 138.578932 
L 218.283639 138.93569 
L 218.863895 140.324652 
L 219.021492 140.701904 
L 220.129423 143.423002 
L 220.831199 145.098822 
L 221.031452 145.580983 
L 221.140432 145.843363 
L 221.509206 146.777869 
L 223.739904 152.121745 
L 224.347665 153.577198 
L 225.127209 155.455729 
L 225.699062 156.838475 
L 226.329501 158.351727 
L 227.078832 160.150593 
L 227.826952 161.953827 
L 228.572668 163.751253 
L 229.321634 165.554037 
L 230.07049 167.356933 
L 230.819903 169.160795 
L 231.568746 170.963585 
L 232.32102 172.765 
L 233.074264 174.586583 
L 234.287316 177.47325 
L 235.950916 179.881336 
L 239.810733 189.164303 
L 240.279672 190.292365 
L 243.894382 198.986705 
L 244.435828 200.289479 
L 244.642326 202.411006 
L 245.599692 204.704274 
L 246.271039 206.312293 
L 246.926857 207.883202 
L 247.587689 209.465942 
L 248.179563 210.883774 
L 248.267854 211.101887 
L 248.922172 212.719719 
L 249.586433 214.321491 
L 250.271977 215.936049 
L 250.946339 217.524364 
L 252.627771 221.484236 
L 251.448344 224.098028 
L 251.654695 226.599232 
L 251.926175 227.395942 
L 253.335007 228.472998 
L 254.8982 229.307846 
L 255.205633 230.631179 
L 255.703889 232.844564 
L 256.68976 237.245405 
L 257.118102 239.284784 
L 257.587714 241.299073 
L 258.051481 243.263125 
L 258.122123 243.274308 
L 260.30729 253.96498 
L 260.630075 258.461944 
L 259.16306 263.839329 
L 258.949531 264.622035 
L 256.29364 274.368299 
L 256.049886 274.299402 
L 255.721263 275.502137 
L 255.064832 277.904649 
L 255.728894 278.094006 
L 255.033578 280.651592 
L 254.350523 283.159313 
L 254.279528 283.420031 
L 254.002583 284.437353 
L 253.712265 285.502829 
L 253.647201 285.742037 
L 253.490558 286.317624 
L 252.973205 288.217004 
L 252.466915 290.076421 
L 251.459286 293.778219 
L 251.153521 294.900795 
L 250.502547 297.256093 
L 249.802278 299.822911 
L 249.569759 300.673433 
L 249.508788 300.896273 
L 249.286409 301.709456 
L 248.207934 305.661448 
L 248.14165 305.904156 
L 248.038618 306.281918 
L 247.792296 307.185596 
L 247.725625 307.430484 
L 247.570783 307.998545 
L 247.097983 309.720814 
L 246.941422 310.299548 
L 246.862949 310.590059 
L 246.630316 311.450028 
L 246.382454 312.35743 
L 246.307641 312.63169 
L 246.159441 313.175947 
L 245.412622 315.913745 
L 245.28775 316.328447 
L 244.998464 317.420281 
L 244.873338 317.843346 
L 244.815794 318.054065 
L 243.958361 321.188894 
L 243.501854 322.861757 
L 243.052002 324.521669 
L 242.616923 326.127862 
L 241.963305 328.502875 
L 241.456479 330.374256 
L 240.188669 334.99699 
L 239.677448 336.895168 
L 239.002825 339.324799 
L 238.650698 340.596103 
L 237.709869 344.086144 
L 235.844415 350.966569 
L 235.017507 353.989831 
L 233.667456 357.508114 
L 233.302943 358.452875 
L 235.786365 359.556578 
L 234.718068 362.333319 
L 234.696168 362.390242 
L 234.63541 362.546545 
L 230.386892 373.520956 
L 230.385409 373.525302 
L 229.858415 375.070452 
L 229.413223 376.231319 
L 229.628748 376.723249 
L 229.867037 376.817107 
L 229.789698 376.982776 
L 229.606104 377.298781 
L 229.500476 377.448018 
L 229.38626 377.590711 
L 229.263661 377.726203 
L 229.133213 377.854158 
L 228.995338 377.974133 
L 228.690198 378.196805 
L 228.560583 378.270445 
L 227.743562 380.209929 
L 228.993529 380.799945 
L 228.623601 381.633309 
L 228.503787 381.903224 
L 225.34302 388.689801 
L 224.052464 391.460944 
L 222.616103 394.541858 
L 222.422006 394.958382 
L 217.055688 406.215859 
L 215.121762 410.276129 
L 214.837654 410.872386 
L 214.576193 411.418877 
L 213.940656 412.743741 
L 214.367134 412.939253 
L 213.8297 414.092572 
L 212.155945 416.413752 
L 211.210337 417.618531 
L 208.710169 420.804156 
L 208.802337 420.880968 
L 208.70249 421.005322 
L 208.688021 421.023342 
L 208.571549 421.171189 
L 203.244361 427.695734 
L 198.980888 433.349022 
L 198.877486 433.47499 
L 199.462245 433.917257 
L 202.688197 436.470608 
L 203.960733 437.474169 
L 204.884682 438.202941 
L 207.62359 440.101372 
L 208.84587 440.948537 
L 210.9008 442.186184 
L 218.458509 446.245569 
L 219.060677 446.562011 
L 219.640505 446.866669 
L 223.045984 448.656168 
L 222.6881 449.06298 
L 224.083279 449.532969 
L 225.086614 450.356125 
L 226.468398 451.489696 
L 226.994396 450.879336 
L 227.060632 450.802366 
L 231.814345 453.410803 
L 232.378361 453.887852 
L 234.606511 455.772017 
L 235.338347 456.39101 
L 235.866627 456.837681 
L 235.728596 457.005089 
L 236.478868 457.620539 
L 236.92386 458.581746 
L 236.786686 460.043367 
L 235.994817 461.019574 
L 238.836251 463.14107 
L 240.365552 461.250076 
L 240.615424 460.941006 
L 240.68148 460.99722 
L 242.132391 460.436122 
L 242.637472 460.294903 
L 243.865432 460.218134 
L 243.902384 460.17414 
L 243.947081 460.137903 
L 243.997822 460.110871 
L 244.052788 460.09406 
L 244.109825 460.088057 
L 244.167097 460.093013 
L 244.222325 460.108757 
L 244.587475 460.289114 
L 245.204849 460.163935 
L 246.570694 461.1174 
L 246.616299 461.634806 
L 246.800926 461.934858 
L 247.112537 462.259531 
L 248.722093 463.998151 
L 248.795017 464.076903 
L 249.990519 465.358464 
L 250.554057 465.976536 
L 250.581007 465.955877 
L 250.566822 465.900066 
L 250.564402 465.842592 
L 250.573907 465.785839 
L 250.594846 465.732204 
L 250.626517 465.6842 
L 250.667334 465.643706 
L 250.715605 465.612603 
L 250.765965 465.593069 
L 250.819142 465.583785 
L 250.873085 465.585014 
L 250.925739 465.596799 
L 250.975142 465.618639 
L 251.121464 465.707211 
L 251.776662 466.343611 
L 252.041901 466.388491 
L 253.189485 467.541058 
L 254.411666 468.607798 
L 254.767162 470.221205 
L 254.700618 470.445902 
L 254.38421 470.70169 
L 254.315925 471.118431 
L 254.3952 471.215825 
L 259.114553 477.02967 
L 261.014363 476.881746 
L 264.370081 476.62052 
L 271.522837 478.919496 
L 271.742136 478.283306 
L 274.244806 479.096428 
L 280.916706 481.264415 
L 295.707312 486.09522 
L 302.677973 488.37127 
L 303.918966 488.777364 
L 304.170314 488.872278 
L 304.381543 488.969353 
L 311.759264 493.71272 
L 319.960498 499.006369 
L 322.121227 500.40087 
L 324.730977 501.263933 
L 324.836748 501.299664 
L 328.518483 502.601587 
L 328.519746 502.602018 
L 330.271555 503.199456 
L 330.433102 503.256683 
L 330.846784 502.758014 
L 331.379858 502.115696 
L 331.751938 502.324402 
L 332.268992 502.615436 
L 332.834103 502.931495 
L 334.671233 504.327742 
L 334.956275 504.539047 
L 335.42994 504.890183 
L 335.395414 504.931405 
L 335.962311 505.387988 
L 335.941784 505.420554 
L 336.171708 505.616012 
L 336.878556 506.216902 
L 337.017418 506.383696 
L 337.120606 506.573286 
L 337.193589 506.778172 
L 337.235122 506.990676 
L 337.243168 507.206607 
L 337.165747 507.415027 
L 337.06882 507.607256 
L 336.950206 507.787574 
L 335.337456 509.990275 
L 333.110987 512.992773 
L 331.320127 515.381417 
L 331.296342 515.372698 
L 331.483032 516.981726 
L 332.402985 517.654473 
L 332.841323 517.991471 
L 338.953547 522.689927 
L 348.994324 528.788045 
L 359.848029 535.441812 
L 361.409773 536.059703 
L 362.872263 536.627285 
L 370.053326 539.479016 
L 370.403565 539.614189 
L 373.807589 541.536015 
L 374.027644 541.657895 
L 388.946985 549.917217 
L 398.450519 552.475813 
L 409.292105 555.392732 
L 421.445856 563.933762 
L 426.509334 568.404262 
L 427.892415 570.005158 
L 433.281102 576.243143 
L 437.56143 582.04679 
L 437.941148 582.561708 
L 438.160956 583.19343 
L 439.179001 589.662051 
L 439.329867 590.459126 
L 439.555116 591.525002 
L 439.817732 592.586941 
L 440.145252 593.641864 
L 440.542099 594.689027 
L 440.798623 595.347978 
L 441.295317 596.392489 
L 443.521138 600.975875 
L 444.552803 603.100237 
L 444.891236 603.686149 
L 448.302956 595.81832 
L 449.363298 593.566953 
L 450.707462 592.939539 
L 452.290225 592.793132 
L 453.911275 592.686516 
L 455.371028 592.76978 
L 456.010383 592.887294 
L 458.396603 593.374536 
L 459.001257 593.540652 
L 461.350803 594.323259 
L 461.854764 594.488029 
L 464.240016 595.321995 
L 465.990879 595.944996 
L 467.325483 596.420047 
L 470.057574 598.733504 
L 470.65461 600.137473 
L 470.959146 600.92003 
L 476.673547 615.6 
" clip-path="url(#p7e2d12e27f)" style="fill: #d3d3d3"/>
   </g>
   <g id="matplotlib.axis_1">
    <g id="xtick_1">
     <g id="line2d_1">
      <defs>
       <path id="m8b6162a18c" d="M 0 0 
L 0 3.5 
" style="stroke: #000000; stroke-width: 0.8"/>
      </defs>
      <g>
       <use xlink:href="#m8b6162a18c" x="234.477855" y="640.8" style="stroke: #000000; stroke-width: 0.8"/>
      </g>
     </g>
     <g id="text_1">
      <!-- 13.45 -->
      <g transform="translate(220.163792 655.398438) scale(0.1 -0.1)">
       <defs>
        <path id="DejaVuSans-31" d="M 794 531 
L 1825 531 
L 1825 4091 
L 703 3866 
L 703 4441 
L 1819 4666 
L 2450 4666 
L 2450 531 
L 3481 531 
L 3481 0 
L 794 0 
L 794 531 
z
" transform="scale(0.015625)"/>
        <path id="DejaVuSans-33" d="M 2597 2516 
Q 3050 2419 3304 2112 
Q 3559 1806 3559 1356 
Q 3559 666 3084 287 
Q 2609 -91 1734 -91 
Q 1441 -91 1130 -33 
Q 819 25 488 141 
L 488 750 
Q 750 597 1062 519 
Q 1375 441 1716 441 
Q 2309 441 2620 675 
Q 2931 909 2931 1356 
Q 2931 1769 2642 2001 
Q 2353 2234 1838 2234 
L 1294 2234 
L 1294 2753 
L 1863 2753 
Q 2328 2753 2575 2939 
Q 2822 3125 2822 3475 
Q 2822 3834 2567 4026 
Q 2313 4219 1838 4219 
Q 1578 4219 1281 4162 
Q 984 4106 628 3988 
L 628 4550 
Q 988 4650 1302 4700 
Q 1616 4750 1894 4750 
Q 2613 4750 3031 4423 
Q 3450 4097 3450 3541 
Q 3450 3153 3228 2886 
Q 3006 2619 2597 2516 
z
" transform="scale(0.015625)"/>
        <path id="DejaVuSans-2e" d="M 684 794 
L 1344 794 
L 1344 0 
L 684 0 
L 684 794 
z
" transform="scale(0.015625)"/>
        <path id="DejaVuSans-34" d="M 2419 4116 
L 825 1625 
L 2419 1625 
L 2419 4116 
z
M 2253 4666 
L 3047 4666 
L 3047 1625 
L 3713 1625 
L 3713 1100 
L 3047 1100 
L 3047 0 
L 2419 0 
L 2419 1100 
L 313 1100 
L 313 1709 
L 2253 4666 
z
" transform="scale(0.015625)"/>
        <path id="DejaVuSans-35" d="M 691 4666 
L 3169 4666 
L 3169 4134 
L 1269 4134 
L 1269 2991 
Q 1406 3038 1543 3061 
Q 1681 3084 1819 3084 
Q 2600 3084 3056 2656 
Q 3513 2228 3513 1497 
Q 3513 744 3044 326 
Q 2575 -91 1722 -91 
Q 1428 -91 1123 -41 
Q 819 9 494 109 
L 494 744 
Q 775 591 1075 516 
Q 1375 441 1709 441 
Q 2250 441 2565 725 
Q 2881 1009 2881 1497 
Q 2881 1984 2565 2268 
Q 2250 2553 1709 2553 
Q 1456 2553 1204 2497 
Q 953 2441 691 2322 
L 691 4666 
z
" transform="scale(0.015625)"/>
       </defs>
       <use xlink:href="#DejaVuSans-31"/>
       <use xlink:href="#DejaVuSans-33" x="63.623047"/>
       <use xlink:href="#DejaVuSans-2e" x="127.246094"/>
       <use xlink:href="#DejaVuSans-34" x="159.033203"/>
       <use xlink:href="#DejaVuSans-35" x="222.65625"/>
      </g>
     </g>
    </g>
    <g id="xtick_2">
     <g id="line2d_2">
      <g>
       <use xlink:href="#m8b6162a18c" x="307.968525" y="640.8" style="stroke: #000000; stroke-width: 0.8"/>
      </g>
     </g>
     <g id="text_2">
      <!-- 13.46 -->
      <g transform="translate(293.654463 655.398438) scale(0.1 -0.1)">
       <defs>
        <path id="DejaVuSans-36" d="M 2113 2584 
Q 1688 2584 1439 2293 
Q 1191 2003 1191 1497 
Q 1191 994 1439 701 
Q 1688 409 2113 409 
Q 2538 409 2786 701 
Q 3034 994 3034 1497 
Q 3034 2003 2786 2293 
Q 2538 2584 2113 2584 
z
M 3366 4563 
L 3366 3988 
Q 3128 4100 2886 4159 
Q 2644 4219 2406 4219 
Q 1781 4219 1451 3797 
Q 1122 3375 1075 2522 
Q 1259 2794 1537 2939 
Q 1816 3084 2150 3084 
Q 2853 3084 3261 2657 
Q 3669 2231 3669 1497 
Q 3669 778 3244 343 
Q 2819 -91 2113 -91 
Q 1303 -91 875 529 
Q 447 1150 447 2328 
Q 447 3434 972 4092 
Q 1497 4750 2381 4750 
Q 2619 4750 2861 4703 
Q 3103 4656 3366 4563 
z
" transform="scale(0.015625)"/>
       </defs>
       <use xlink:href="#DejaVuSans-31"/>
       <use xlink:href="#DejaVuSans-33" x="63.623047"/>
       <use xlink:href="#DejaVuSans-2e" x="127.246094"/>
       <use xlink:href="#DejaVuSans-34" x="159.033203"/>
       <use xlink:href="#DejaVuSans-36" x="222.65625"/>
      </g>
     </g>
    </g>
    <g id="xtick_3">
     <g id="line2d_3">
      <g>
       <use xlink:href="#m8b6162a18c" x="381.459196" y="640.8" style="stroke: #000000; stroke-width: 0.8"/>
      </g>
     </g>
     <g id="text_3">
      <!-- 13.47 -->
      <g transform="translate(367.145133 655.398438) scale(0.1 -0.1)">
       <defs>
        <path id="DejaVuSans-37" d="M 525 4666 
L 3525 4666 
L 3525 4397 
L 1831 0 
L 1172 0 
L 2766 4134 
L 525 4134 
L 525 4666 
z
" transform="scale(0.015625)"/>
       </defs>
       <use xlink:href="#DejaVuSans-31"/>
       <use xlink:href="#DejaVuSans-33" x="63.623047"/>
       <use xlink:href="#DejaVuSans-2e" x="127.246094"/>
       <use xlink:href="#DejaVuSans-34" x="159.033203"/>
       <use xlink:href="#DejaVuSans-37" x="222.65625"/>
      </g>
     </g>
    </g>
    <g id="xtick_4">
     <g id="line2d_4">
      <g>
       <use xlink:href="#m8b6162a18c" x="454.949866" y="640.8" style="stroke: #000000; stroke-width: 0.8"/>
      </g>
     </g>
     <g id="text_4">
      <!-- 13.48 -->
      <g transform="translate(440.635804 655.398438) scale(0.1 -0.1)">
       <defs>
        <path id="DejaVuSans-38" d="M 2034 2216 
Q 1584 2216 1326 1975 
Q 1069 1734 1069 1313 
Q 1069 891 1326 650 
Q 1584 409 2034 409 
Q 2484 409 2743 651 
Q 3003 894 3003 1313 
Q 3003 1734 2745 1975 
Q 2488 2216 2034 2216 
z
M 1403 2484 
Q 997 2584 770 2862 
Q 544 3141 544 3541 
Q 544 4100 942 4425 
Q 1341 4750 2034 4750 
Q 2731 4750 3128 4425 
Q 3525 4100 3525 3541 
Q 3525 3141 3298 2862 
Q 3072 2584 2669 2484 
Q 3125 2378 3379 2068 
Q 3634 1759 3634 1313 
Q 3634 634 3220 271 
Q 2806 -91 2034 -91 
Q 1263 -91 848 271 
Q 434 634 434 1313 
Q 434 1759 690 2068 
Q 947 2378 1403 2484 
z
M 1172 3481 
Q 1172 3119 1398 2916 
Q 1625 2713 2034 2713 
Q 2441 2713 2670 2916 
Q 2900 3119 2900 3481 
Q 2900 3844 2670 4047 
Q 2441 4250 2034 4250 
Q 1625 4250 1398 4047 
Q 1172 3844 1172 3481 
z
" transform="scale(0.015625)"/>
       </defs>
       <use xlink:href="#DejaVuSans-31"/>
       <use xlink:href="#DejaVuSans-33" x="63.623047"/>
       <use xlink:href="#DejaVuSans-2e" x="127.246094"/>
       <use xlink:href="#DejaVuSans-34" x="159.033203"/>
       <use xlink:href="#DejaVuSans-38" x="222.65625"/>
      </g>
     </g>
    </g>
    <g id="xtick_5">
     <g id="line2d_5">
      <g>
       <use xlink:href="#m8b6162a18c" x="528.440537" y="640.8" style="stroke: #000000; stroke-width: 0.8"/>
      </g>
     </g>
     <g id="text_5">
      <!-- 13.49 -->
      <g transform="translate(514.126474 655.398438) scale(0.1 -0.1)">
       <defs>
        <path id="DejaVuSans-39" d="M 703 97 
L 703 672 
Q 941 559 1184 500 
Q 1428 441 1663 441 
Q 2288 441 2617 861 
Q 2947 1281 2994 2138 
Q 2813 1869 2534 1725 
Q 2256 1581 1919 1581 
Q 1219 1581 811 2004 
Q 403 2428 403 3163 
Q 403 3881 828 4315 
Q 1253 4750 1959 4750 
Q 2769 4750 3195 4129 
Q 3622 3509 3622 2328 
Q 3622 1225 3098 567 
Q 2575 -91 1691 -91 
Q 1453 -91 1209 -44 
Q 966 3 703 97 
z
M 1959 2075 
Q 2384 2075 2632 2365 
Q 2881 2656 2881 3163 
Q 2881 3666 2632 3958 
Q 2384 4250 1959 4250 
Q 1534 4250 1286 3958 
Q 1038 3666 1038 3163 
Q 1038 2656 1286 2365 
Q 1534 2075 1959 2075 
z
" transform="scale(0.015625)"/>
       </defs>
       <use xlink:href="#DejaVuSans-31"/>
       <use xlink:href="#DejaVuSans-33" x="63.623047"/>
       <use xlink:href="#DejaVuSans-2e" x="127.246094"/>
       <use xlink:href="#DejaVuSans-34" x="159.033203"/>
       <use xlink:href="#DejaVuSans-39" x="222.65625"/>
      </g>
     </g>
    </g>
   </g>
   <g id="matplotlib.axis_2">
    <g id="ytick_1">
     <g id="line2d_6">
      <defs>
       <path id="mdac6954124" d="M 0 0 
L -3.5 0 
" style="stroke: #000000; stroke-width: 0.8"/>
      </defs>
      <g>
       <use xlink:href="#mdac6954124" x="181.865235" y="567.871115" style="stroke: #000000; stroke-width: 0.8"/>
      </g>
     </g>
     <g id="text_6">
      <!-- 52.49 -->
      <g transform="translate(146.23711 571.670333) scale(0.1 -0.1)">
       <defs>
        <path id="DejaVuSans-32" d="M 1228 531 
L 3431 531 
L 3431 0 
L 469 0 
L 469 531 
Q 828 903 1448 1529 
Q 2069 2156 2228 2338 
Q 2531 2678 2651 2914 
Q 2772 3150 2772 3378 
Q 2772 3750 2511 3984 
Q 2250 4219 1831 4219 
Q 1534 4219 1204 4116 
Q 875 4013 500 3803 
L 500 4441 
Q 881 4594 1212 4672 
Q 1544 4750 1819 4750 
Q 2544 4750 2975 4387 
Q 3406 4025 3406 3419 
Q 3406 3131 3298 2873 
Q 3191 2616 2906 2266 
Q 2828 2175 2409 1742 
Q 1991 1309 1228 531 
z
" transform="scale(0.015625)"/>
       </defs>
       <use xlink:href="#DejaVuSans-35"/>
       <use xlink:href="#DejaVuSans-32" x="63.623047"/>
       <use xlink:href="#DejaVuSans-2e" x="127.246094"/>
       <use xlink:href="#DejaVuSans-34" x="159.033203"/>
       <use xlink:href="#DejaVuSans-39" x="222.65625"/>
      </g>
     </g>
    </g>
    <g id="ytick_2">
     <g id="line2d_7">
      <g>
       <use xlink:href="#mdac6954124" x="181.865235" y="447.150955" style="stroke: #000000; stroke-width: 0.8"/>
      </g>
     </g>
     <g id="text_7">
      <!-- 52.50 -->
      <g transform="translate(146.23711 450.950173) scale(0.1 -0.1)">
       <defs>
        <path id="DejaVuSans-30" d="M 2034 4250 
Q 1547 4250 1301 3770 
Q 1056 3291 1056 2328 
Q 1056 1369 1301 889 
Q 1547 409 2034 409 
Q 2525 409 2770 889 
Q 3016 1369 3016 2328 
Q 3016 3291 2770 3770 
Q 2525 4250 2034 4250 
z
M 2034 4750 
Q 2819 4750 3233 4129 
Q 3647 3509 3647 2328 
Q 3647 1150 3233 529 
Q 2819 -91 2034 -91 
Q 1250 -91 836 529 
Q 422 1150 422 2328 
Q 422 3509 836 4129 
Q 1250 4750 2034 4750 
z
" transform="scale(0.015625)"/>
       </defs>
       <use xlink:href="#DejaVuSans-35"/>
       <use xlink:href="#DejaVuSans-32" x="63.623047"/>
       <use xlink:href="#DejaVuSans-2e" x="127.246094"/>
       <use xlink:href="#DejaVuSans-35" x="159.033203"/>
       <use xlink:href="#DejaVuSans-30" x="222.65625"/>
      </g>
     </g>
    </g>
    <g id="ytick_3">
     <g id="line2d_8">
      <g>
       <use xlink:href="#mdac6954124" x="181.865235" y="326.430795" style="stroke: #000000; stroke-width: 0.8"/>
      </g>
     </g>
     <g id="text_8">
      <!-- 52.51 -->
      <g transform="translate(146.23711 330.230013) scale(0.1 -0.1)">
       <use xlink:href="#DejaVuSans-35"/>
       <use xlink:href="#DejaVuSans-32" x="63.623047"/>
       <use xlink:href="#DejaVuSans-2e" x="127.246094"/>
       <use xlink:href="#DejaVuSans-35" x="159.033203"/>
       <use xlink:href="#DejaVuSans-31" x="222.65625"/>
      </g>
     </g>
    </g>
    <g id="ytick_4">
     <g id="line2d_9">
      <g>
       <use xlink:href="#mdac6954124" x="181.865235" y="205.710635" style="stroke: #000000; stroke-width: 0.8"/>
      </g>
     </g>
     <g id="text_9">
      <!-- 52.52 -->
      <g transform="translate(146.23711 209.509853) scale(0.1 -0.1)">
       <use xlink:href="#DejaVuSans-35"/>
       <use xlink:href="#DejaVuSans-32" x="63.623047"/>
       <use xlink:href="#DejaVuSans-2e" x="127.246094"/>
       <use xlink:href="#DejaVuSans-35" x="159.033203"/>
       <use xlink:href="#DejaVuSans-32" x="222.65625"/>
      </g>
     </g>
    </g>
   </g>
   <g id="LineCollection_1">
    <path d="M 349.489284 500.215915 
L 349.955215 500.690346 
L 351.621249 501.589711 
L 356.132106 503.914781 
L 358.097981 504.943317 
L 359.968319 505.897006 
L 361.310993 506.565796 
L 362.440545 507.128352 
L 363.955188 507.882853 
L 366.924211 509.362882 
" clip-path="url(#p7e2d12e27f)" style="fill: none; stroke: #ff0000; stroke-opacity: 0.7; stroke-width: 0.5"/>
    <path d="M 234.782841 380.482039 
L 234.804153 379.891717 
L 234.809298 379.576638 
L 234.796069 379.132388 
L 234.764468 378.418932 
L 234.732867 377.575098 
L 234.655702 376.973911 
L 234.415388 376.342545 
L 233.950192 375.688241 
L 233.237332 375.186046 
L 231.436811 374.495526 
L 223.707062 371.441306 
L 221.310531 370.521419 
L 220.271373 370.230483 
" clip-path="url(#p7e2d12e27f)" style="fill: none; stroke: #ff0000; stroke-opacity: 0.7; stroke-width: 0.5"/>
    <path d="M 328.387908 359.614352 
L 332.137402 362.695131 
L 333.664538 362.905184 
L 335.809731 364.839121 
L 336.091935 366.006485 
L 338.145999 367.719504 
" clip-path="url(#p7e2d12e27f)" style="fill: none; stroke: #ff0000; stroke-opacity: 0.7; stroke-width: 0.5"/>
    <path d="M 407.247807 535.370833 
L 405.435527 535.013501 
L 404.501461 535.176474 
" clip-path="url(#p7e2d12e27f)" style="fill: none; stroke: #ff0000; stroke-opacity: 0.7; stroke-width: 0.5"/>
    <path d="M 358.504385 491.485433 
L 358.22953 491.748603 
L 357.812838 492.149394 
L 355.373682 494.487744 
L 354.793106 495.047885 
L 352.492113 497.267929 
L 351.877731 497.854629 
L 349.489284 500.215915 
L 346.847295 502.659291 
" clip-path="url(#p7e2d12e27f)" style="fill: none; stroke: #ff0000; stroke-opacity: 0.7; stroke-width: 0.5"/>
    <path d="M 364.247681 393.469114 
L 358.056092 394.18257 
L 357.252104 393.877148 
L 355.175257 393.183007 
L 354.096414 392.816018 
L 353.798042 392.70737 
L 353.69883 392.691676 
L 353.22261 392.526289 
L 352.9845 392.302957 
L 351.021565 390.416101 
L 353.101351 387.7506 
L 353.966336 386.644803 
L 356.354048 383.59179 
L 356.636252 383.230837 
L 360.556244 388.50993 
L 364.247681 393.469114 
" clip-path="url(#p7e2d12e27f)" style="fill: none; stroke: #ff0000; stroke-opacity: 0.7; stroke-width: 0.5"/>
    <path d="M 365.508046 358.855022 
L 364.876761 359.743523 
L 365.023742 359.80509 
L 368.177227 361.339443 
L 365.70941 358.608753 
L 365.508046 358.855022 
" clip-path="url(#p7e2d12e27f)" style="fill: none; stroke: #ff0000; stroke-opacity: 0.7; stroke-width: 0.5"/>
    <path d="M 421.565994 539.766254 
L 423.634757 540.374684 
L 425.69176 540.984321 
L 428.447661 541.800389 
L 428.963565 541.953703 
L 429.221517 542.029757 
L 432.209648 543.263517 
L 432.892376 543.553246 
L 437.567118 547.574434 
L 438.539399 548.289097 
L 439.187587 548.598141 
" clip-path="url(#p7e2d12e27f)" style="fill: none; stroke: #ff0000; stroke-opacity: 0.7; stroke-width: 0.5"/>
    <path d="M 420.795812 539.551372 
L 417.487262 538.507143 
L 416.728838 538.348999 
" clip-path="url(#p7e2d12e27f)" style="fill: none; stroke: #ff0000; stroke-opacity: 0.7; stroke-width: 0.5"/>
    <path d="M 416.728838 538.348999 
L 415.558867 538.233108 
" clip-path="url(#p7e2d12e27f)" style="fill: none; stroke: #ff0000; stroke-opacity: 0.7; stroke-width: 0.5"/>
    <path d="M 421.565994 539.766254 
L 420.795812 539.551372 
" clip-path="url(#p7e2d12e27f)" style="fill: none; stroke: #ff0000; stroke-opacity: 0.7; stroke-width: 0.5"/>
    <path d="M 236.379793 380.461517 
L 235.055491 380.478417 
" clip-path="url(#p7e2d12e27f)" style="fill: none; stroke: #ff0000; stroke-opacity: 0.7; stroke-width: 0.5"/>
    <path d="M 394.558908 530.913845 
L 392.553347 529.93239 
L 392.035973 528.802449 
L 389.767316 527.586797 
L 387.040812 526.187651 
L 385.528374 525.914823 
L 384.047537 525.153079 
L 371.643047 517.081729 
L 370.032131 516.037499 
L 365.015658 512.836001 
" clip-path="url(#p7e2d12e27f)" style="fill: none; stroke: #ff0000; stroke-opacity: 0.7; stroke-width: 0.5"/>
    <path d="M 395.493709 531.342401 
L 394.558908 530.913845 
" clip-path="url(#p7e2d12e27f)" style="fill: none; stroke: #ff0000; stroke-opacity: 0.7; stroke-width: 0.5"/>
    <path d="M 336.091935 366.006485 
L 334.87199 365.893008 
L 333.783593 367.149705 
L 333.45362 367.146083 
L 331.529634 365.464451 
L 331.553886 365.092633 
L 332.470315 363.944584 
L 332.137402 362.695131 
" clip-path="url(#p7e2d12e27f)" style="fill: none; stroke: #ff0000; stroke-opacity: 0.7; stroke-width: 0.5"/>
    <path d="M 234.782841 380.482039 
L 233.955336 380.473589 
L 232.931611 380.462724 
" clip-path="url(#p7e2d12e27f)" style="fill: none; stroke: #ff0000; stroke-opacity: 0.7; stroke-width: 0.5"/>
    <path d="M 415.558867 538.233108 
L 414.50648 537.774371 
L 413.790681 537.273383 
L 412.938924 536.961925 
L 407.247807 535.370833 
" clip-path="url(#p7e2d12e27f)" style="fill: none; stroke: #ff0000; stroke-opacity: 0.7; stroke-width: 0.5"/>
    <path d="M 356.395202 508.23777 
L 346.575379 503.062497 
" clip-path="url(#p7e2d12e27f)" style="fill: none; stroke: #ff0000; stroke-opacity: 0.7; stroke-width: 0.5"/>
    <path d="M 365.015658 512.836001 
L 356.518667 508.525084 
L 356.395202 508.23777 
" clip-path="url(#p7e2d12e27f)" style="fill: none; stroke: #ff0000; stroke-opacity: 0.7; stroke-width: 0.5"/>
    <path d="M 404.501461 535.176474 
L 403.110282 534.819142 
L 402.686241 534.47509 
L 402.157843 534.244514 
L 400.835746 533.667472 
L 399.411497 533.545544 
L 398.369399 532.578576 
L 396.404993 531.55004 
L 395.493709 531.342401 
" clip-path="url(#p7e2d12e27f)" style="fill: none; stroke: #ff0000; stroke-opacity: 0.7; stroke-width: 0.5"/>
    <path d="M 232.931611 380.462724 
L 231.312611 380.445823 
" clip-path="url(#p7e2d12e27f)" style="fill: none; stroke: #ff0000; stroke-opacity: 0.7; stroke-width: 0.5"/>
    <path d="M 231.312611 380.445823 
L 228.894033 380.399949 
" clip-path="url(#p7e2d12e27f)" style="fill: none; stroke: #ff0000; stroke-opacity: 0.7; stroke-width: 0.5"/>
    <path d="M 235.055491 380.478417 
L 234.782841 380.482039 
" clip-path="url(#p7e2d12e27f)" style="fill: none; stroke: #ff0000; stroke-opacity: 0.7; stroke-width: 0.5"/>
    <path d="M 366.924211 509.362882 
L 367.515811 508.307788 
L 369.368511 505.000055 
L 369.533865 504.704291 
L 369.665413 504.470094 
L 369.887355 504.074132 
" clip-path="url(#p7e2d12e27f)" style="fill: none; stroke: #ff0000; stroke-opacity: 0.7; stroke-width: 0.5"/>
    <path d="M 362.832985 496.251465 
L 362.521385 496.560509 
L 362.166425 497.016831 
L 360.984695 499.396225 
L 360.63194 500.125375 
L 358.097981 504.943317 
" clip-path="url(#p7e2d12e27f)" style="fill: none; stroke: #ff0000; stroke-opacity: 0.7; stroke-width: 0.5"/>
    <path d="M 228.894033 380.399949 
L 224.748425 380.320274 
" clip-path="url(#p7e2d12e27f)" style="fill: none; stroke: #ff0000; stroke-opacity: 0.7; stroke-width: 0.5"/>
    <path d="M 344.79323 502.165546 
L 343.811395 501.640413 
L 342.477539 500.974038 
" clip-path="url(#p7e2d12e27f)" style="fill: none; stroke: #ff0000; stroke-opacity: 0.7; stroke-width: 0.5"/>
    <path d="M 346.575379 503.062497 
L 344.79323 502.165546 
" clip-path="url(#p7e2d12e27f)" style="fill: none; stroke: #ff0000; stroke-opacity: 0.7; stroke-width: 0.5"/>
    <path d="M 342.477539 500.974038 
L 342.085099 500.452527 
" clip-path="url(#p7e2d12e27f)" style="fill: none; stroke: #ff0000; stroke-opacity: 0.7; stroke-width: 0.5"/>
   </g>
   <g id="patch_3">
    <path d="M 181.865235 640.8 
L 181.865235 86.4 
" style="fill: none; stroke: #000000; stroke-width: 0.8; stroke-linejoin: miter; stroke-linecap: square"/>
   </g>
   <g id="patch_4">
    <path d="M 556.134765 640.8 
L 556.134765 86.4 
" style="fill: none; stroke: #000000; stroke-width: 0.8; stroke-linejoin: miter; stroke-linecap: square"/>
   </g>
   <g id="patch_5">
    <path d="M 181.865235 640.8 
L 556.134765 640.8 
" style="fill: none; stroke: #000000; stroke-width: 0.8; stroke-linejoin: miter; stroke-linecap: square"/>
   </g>
   <g id="patch_6">
    <path d="M 181.865235 86.4 
L 556.134765 86.4 
" style="fill: none; stroke: #000000; stroke-width: 0.8; stroke-linejoin: miter; stroke-linecap: square"/>
   </g>
   <g id="text_10">
    <!-- Friedrichshain_Ost -->
    <g transform="translate(284.128793 372.988827) scale(0.12 -0.12)">
     <defs>
      <path id="DejaVuSans-46" d="M 628 4666 
L 3309 4666 
L 3309 4134 
L 1259 4134 
L 1259 2759 
L 3109 2759 
L 3109 2228 
L 1259 2228 
L 1259 0 
L 628 0 
L 628 4666 
z
" transform="scale(0.015625)"/>
      <path id="DejaVuSans-72" d="M 2631 2963 
Q 2534 3019 2420 3045 
Q 2306 3072 2169 3072 
Q 1681 3072 1420 2755 
Q 1159 2438 1159 1844 
L 1159 0 
L 581 0 
L 581 3500 
L 1159 3500 
L 1159 2956 
Q 1341 3275 1631 3429 
Q 1922 3584 2338 3584 
Q 2397 3584 2469 3576 
Q 2541 3569 2628 3553 
L 2631 2963 
z
" transform="scale(0.015625)"/>
      <path id="DejaVuSans-69" d="M 603 3500 
L 1178 3500 
L 1178 0 
L 603 0 
L 603 3500 
z
M 603 4863 
L 1178 4863 
L 1178 4134 
L 603 4134 
L 603 4863 
z
" transform="scale(0.015625)"/>
      <path id="DejaVuSans-65" d="M 3597 1894 
L 3597 1613 
L 953 1613 
Q 991 1019 1311 708 
Q 1631 397 2203 397 
Q 2534 397 2845 478 
Q 3156 559 3463 722 
L 3463 178 
Q 3153 47 2828 -22 
Q 2503 -91 2169 -91 
Q 1331 -91 842 396 
Q 353 884 353 1716 
Q 353 2575 817 3079 
Q 1281 3584 2069 3584 
Q 2775 3584 3186 3129 
Q 3597 2675 3597 1894 
z
M 3022 2063 
Q 3016 2534 2758 2815 
Q 2500 3097 2075 3097 
Q 1594 3097 1305 2825 
Q 1016 2553 972 2059 
L 3022 2063 
z
" transform="scale(0.015625)"/>
      <path id="DejaVuSans-64" d="M 2906 2969 
L 2906 4863 
L 3481 4863 
L 3481 0 
L 2906 0 
L 2906 525 
Q 2725 213 2448 61 
Q 2172 -91 1784 -91 
Q 1150 -91 751 415 
Q 353 922 353 1747 
Q 353 2572 751 3078 
Q 1150 3584 1784 3584 
Q 2172 3584 2448 3432 
Q 2725 3281 2906 2969 
z
M 947 1747 
Q 947 1113 1208 752 
Q 1469 391 1925 391 
Q 2381 391 2643 752 
Q 2906 1113 2906 1747 
Q 2906 2381 2643 2742 
Q 2381 3103 1925 3103 
Q 1469 3103 1208 2742 
Q 947 2381 947 1747 
z
" transform="scale(0.015625)"/>
      <path id="DejaVuSans-63" d="M 3122 3366 
L 3122 2828 
Q 2878 2963 2633 3030 
Q 2388 3097 2138 3097 
Q 1578 3097 1268 2742 
Q 959 2388 959 1747 
Q 959 1106 1268 751 
Q 1578 397 2138 397 
Q 2388 397 2633 464 
Q 2878 531 3122 666 
L 3122 134 
Q 2881 22 2623 -34 
Q 2366 -91 2075 -91 
Q 1284 -91 818 406 
Q 353 903 353 1747 
Q 353 2603 823 3093 
Q 1294 3584 2113 3584 
Q 2378 3584 2631 3529 
Q 2884 3475 3122 3366 
z
" transform="scale(0.015625)"/>
      <path id="DejaVuSans-68" d="M 3513 2113 
L 3513 0 
L 2938 0 
L 2938 2094 
Q 2938 2591 2744 2837 
Q 2550 3084 2163 3084 
Q 1697 3084 1428 2787 
Q 1159 2491 1159 1978 
L 1159 0 
L 581 0 
L 581 4863 
L 1159 4863 
L 1159 2956 
Q 1366 3272 1645 3428 
Q 1925 3584 2291 3584 
Q 2894 3584 3203 3211 
Q 3513 2838 3513 2113 
z
" transform="scale(0.015625)"/>
      <path id="DejaVuSans-73" d="M 2834 3397 
L 2834 2853 
Q 2591 2978 2328 3040 
Q 2066 3103 1784 3103 
Q 1356 3103 1142 2972 
Q 928 2841 928 2578 
Q 928 2378 1081 2264 
Q 1234 2150 1697 2047 
L 1894 2003 
Q 2506 1872 2764 1633 
Q 3022 1394 3022 966 
Q 3022 478 2636 193 
Q 2250 -91 1575 -91 
Q 1294 -91 989 -36 
Q 684 19 347 128 
L 347 722 
Q 666 556 975 473 
Q 1284 391 1588 391 
Q 1994 391 2212 530 
Q 2431 669 2431 922 
Q 2431 1156 2273 1281 
Q 2116 1406 1581 1522 
L 1381 1569 
Q 847 1681 609 1914 
Q 372 2147 372 2553 
Q 372 3047 722 3315 
Q 1072 3584 1716 3584 
Q 2034 3584 2315 3537 
Q 2597 3491 2834 3397 
z
" transform="scale(0.015625)"/>
      <path id="DejaVuSans-61" d="M 2194 1759 
Q 1497 1759 1228 1600 
Q 959 1441 959 1056 
Q 959 750 1161 570 
Q 1363 391 1709 391 
Q 2188 391 2477 730 
Q 2766 1069 2766 1631 
L 2766 1759 
L 2194 1759 
z
M 3341 1997 
L 3341 0 
L 2766 0 
L 2766 531 
Q 2569 213 2275 61 
Q 1981 -91 1556 -91 
Q 1019 -91 701 211 
Q 384 513 384 1019 
Q 384 1609 779 1909 
Q 1175 2209 1959 2209 
L 2766 2209 
L 2766 2266 
Q 2766 2663 2505 2880 
Q 2244 3097 1772 3097 
Q 1472 3097 1187 3025 
Q 903 2953 641 2809 
L 641 3341 
Q 956 3463 1253 3523 
Q 1550 3584 1831 3584 
Q 2591 3584 2966 3190 
Q 3341 2797 3341 1997 
z
" transform="scale(0.015625)"/>
      <path id="DejaVuSans-6e" d="M 3513 2113 
L 3513 0 
L 2938 0 
L 2938 2094 
Q 2938 2591 2744 2837 
Q 2550 3084 2163 3084 
Q 1697 3084 1428 2787 
Q 1159 2491 1159 1978 
L 1159 0 
L 581 0 
L 581 3500 
L 1159 3500 
L 1159 2956 
Q 1366 3272 1645 3428 
Q 1925 3584 2291 3584 
Q 2894 3584 3203 3211 
Q 3513 2838 3513 2113 
z
" transform="scale(0.015625)"/>
      <path id="DejaVuSans-5f" d="M 3263 -1063 
L 3263 -1509 
L -63 -1509 
L -63 -1063 
L 3263 -1063 
z
" transform="scale(0.015625)"/>
      <path id="DejaVuSans-4f" d="M 2522 4238 
Q 1834 4238 1429 3725 
Q 1025 3213 1025 2328 
Q 1025 1447 1429 934 
Q 1834 422 2522 422 
Q 3209 422 3611 934 
Q 4013 1447 4013 2328 
Q 4013 3213 3611 3725 
Q 3209 4238 2522 4238 
z
M 2522 4750 
Q 3503 4750 4090 4092 
Q 4678 3434 4678 2328 
Q 4678 1225 4090 567 
Q 3503 -91 2522 -91 
Q 1538 -91 948 565 
Q 359 1222 359 2328 
Q 359 3434 948 4092 
Q 1538 4750 2522 4750 
z
" transform="scale(0.015625)"/>
      <path id="DejaVuSans-74" d="M 1172 4494 
L 1172 3500 
L 2356 3500 
L 2356 3053 
L 1172 3053 
L 1172 1153 
Q 1172 725 1289 603 
Q 1406 481 1766 481 
L 2356 481 
L 2356 0 
L 1766 0 
Q 1100 0 847 248 
Q 594 497 594 1153 
L 594 3053 
L 172 3053 
L 172 3500 
L 594 3500 
L 594 4494 
L 1172 4494 
z
" transform="scale(0.015625)"/>
     </defs>
     <use xlink:href="#DejaVuSans-46"/>
     <use xlink:href="#DejaVuSans-72" x="50.269531"/>
     <use xlink:href="#DejaVuSans-69" x="91.382812"/>
     <use xlink:href="#DejaVuSans-65" x="119.166016"/>
     <use xlink:href="#DejaVuSans-64" x="180.689453"/>
     <use xlink:href="#DejaVuSans-72" x="244.166016"/>
     <use xlink:href="#DejaVuSans-69" x="285.279297"/>
     <use xlink:href="#DejaVuSans-63" x="313.0625"/>
     <use xlink:href="#DejaVuSans-68" x="368.042969"/>
     <use xlink:href="#DejaVuSans-73" x="431.421875"/>
     <use xlink:href="#DejaVuSans-68" x="483.521484"/>
     <use xlink:href="#DejaVuSans-61" x="546.900391"/>
     <use xlink:href="#DejaVuSans-69" x="608.179688"/>
     <use xlink:href="#DejaVuSans-6e" x="635.962891"/>
     <use xlink:href="#DejaVuSans-5f" x="699.341797"/>
     <use xlink:href="#DejaVuSans-4f" x="749.341797"/>
     <use xlink:href="#DejaVuSans-73" x="828.052734"/>
     <use xlink:href="#DejaVuSans-74" x="880.152344"/>
    </g>
   </g>
  </g>
 </g>
 <defs>
  <clipPath id="p7e2d12e27f">
   <rect x="181.865235" y="86.4" width="374.26953" height="554.4"/>
  </clipPath>
 </defs>
</svg>
