<?xml version="1.0" encoding="utf-8" standalone="no"?>
<!DOCTYPE svg PUBLIC "-//W3C//DTD SVG 1.1//EN"
  "http://www.w3.org/Graphics/SVG/1.1/DTD/svg11.dtd">
<svg xmlns:xlink="http://www.w3.org/1999/xlink" width="720pt" height="720pt" viewBox="0 0 720 720" xmlns="http://www.w3.org/2000/svg" version="1.1">
 <metadata>
  <rdf:RDF xmlns:dc="http://purl.org/dc/elements/1.1/" xmlns:cc="http://creativecommons.org/ns#" xmlns:rdf="http://www.w3.org/1999/02/22-rdf-syntax-ns#">
   <cc:Work>
    <dc:type rdf:resource="http://purl.org/dc/dcmitype/StillImage"/>
    <dc:date>2024-10-15T13:04:02.388793</dc:date>
    <dc:format>image/svg+xml</dc:format>
    <dc:creator>
     <cc:Agent>
      <dc:title>Matplotlib v3.9.2, https://matplotlib.org/</dc:title>
     </cc:Agent>
    </dc:creator>
   </cc:Work>
  </rdf:RDF>
 </metadata>
 <defs>
  <style type="text/css">*{stroke-linejoin: round; stroke-linecap: butt}</style>
 </defs>
 <g id="figure_1">
  <g id="patch_1">
   <path d="M 0 720 
L 720 720 
L 720 0 
L 0 0 
z
" style="fill: #ffffff"/>
  </g>
  <g id="axes_1">
   <g id="patch_2">
    <path d="M 146.347243 640.8 
L 591.652757 640.8 
L 591.652757 86.4 
L 146.347243 86.4 
z
" style="fill: #ffffff"/>
   </g>
   <g id="PatchCollection_1">
    <path d="M 240.324054 478.813731 
L 238.263898 480.320458 
L 236.334526 481.731524 
L 233.417674 483.732992 
L 224.225126 489.073039 
L 214.571947 494.680628 
L 214.789228 495.134143 
L 215.309849 496.22061 
L 206.219732 503.203044 
L 203.846131 505.111002 
L 199.83655 507.86752 
L 197.05468 509.953385 
L 193.400786 512.681198 
L 192.51115 513.329024 
L 191.231908 514.260564 
L 182.461634 520.596862 
L 183.311226 521.59308 
L 180.53851 523.65228 
L 179.95943 522.972962 
L 178.61873 524.038185 
L 176.59641 525.644581 
L 170.199932 530.726428 
L 170.597633 530.903588 
L 167.84985 532.926336 
L 166.588403 533.85177 
L 168.023532 534.479005 
L 169.452144 535.106393 
L 173.336284 536.808236 
L 174.659469 537.385764 
L 180.477783 539.879955 
L 181.788075 540.464325 
L 182.327884 540.700331 
L 192.638383 545.274765 
L 193.56105 545.724231 
L 194.026378 546.125303 
L 194.081304 546.248206 
L 194.158885 546.220301 
L 194.186274 546.278488 
L 194.200634 546.33697 
L 194.221361 546.388774 
L 194.235722 546.447257 
L 194.250082 546.505739 
L 194.257928 546.564371 
L 194.25926 546.62315 
L 194.254077 546.682078 
L 194.248895 546.741006 
L 194.237198 546.800082 
L 194.225501 546.859158 
L 194.220466 546.924617 
L 194.215283 546.983545 
L 194.210249 547.049004 
L 194.218095 547.107635 
L 194.226089 547.172797 
L 194.240449 547.23128 
L 194.25481 547.289763 
L 194.26917 547.348246 
L 194.296559 547.406432 
L 194.323948 547.464618 
L 194.351189 547.516273 
L 194.384945 547.56778 
L 194.423586 547.6163 
L 194.799242 547.822336 
L 196.230988 548.625096 
L 197.562653 549.37185 
L 197.823759 549.516067 
L 198.113102 549.669573 
L 198.408308 549.811445 
L 198.70898 549.941431 
L 199.014461 550.059284 
L 199.324487 550.16488 
L 199.514337 550.219107 
L 199.610405 550.242012 
L 199.84184 550.284837 
L 200.075899 550.311136 
L 200.311016 550.320813 
L 200.546402 550.313625 
L 200.780501 550.28987 
L 201.012527 550.249433 
L 201.240926 550.192743 
L 201.46492 550.119948 
L 201.683084 550.031472 
L 201.894512 549.927598 
L 202.098049 549.809136 
L 202.29279 549.676367 
L 202.477581 549.530234 
L 204.307809 547.978345 
L 204.545682 547.821856 
L 204.892171 547.632183 
L 205.242198 547.449096 
L 205.59551 547.27286 
L 205.952229 547.103212 
L 206.312105 546.94055 
L 206.610552 546.839794 
L 206.912945 546.752148 
L 207.218898 546.677752 
L 207.527757 546.61662 
L 207.839009 546.569025 
L 208.9379 546.465481 
L 209.123245 546.464663 
L 209.30838 546.471821 
L 209.493044 546.486962 
L 209.676846 546.510095 
L 209.927552 546.551962 
L 210.176162 546.604855 
L 210.422275 546.668391 
L 210.665501 546.742579 
L 210.905184 546.827302 
L 211.14106 546.922305 
L 211.372475 547.027604 
L 212.066847 547.360618 
L 212.012452 547.451116 
L 212.673636 547.838337 
L 212.807722 547.916837 
L 216.372146 550.009522 
L 224.217893 554.640121 
L 229.450961 557.705313 
L 231.174195 558.725398 
L 233.459058 560.083632 
L 234.189602 560.66873 
L 234.509286 561.000346 
L 235.165373 561.69979 
L 235.264786 561.813192 
L 235.358955 561.931025 
L 235.447616 562.053166 
L 235.530499 562.179228 
L 235.795087 562.602211 
L 235.892253 562.757544 
L 235.973137 562.893191 
L 236.047971 563.032243 
L 236.116492 563.174576 
L 236.182155 563.328865 
L 236.320355 563.682115 
L 236.454549 564.036893 
L 236.584478 564.393336 
L 236.697566 564.70821 
L 236.829301 565.075329 
L 236.847146 565.115176 
L 236.870911 565.151621 
L 236.900187 565.18389 
L 236.934171 565.211086 
L 237.557304 565.629124 
L 237.593471 565.649082 
L 237.632972 565.660862 
L 237.663154 565.663246 
L 237.674106 565.66411 
L 237.714912 565.65861 
L 238.173764 565.555534 
L 239.524361 565.25121 
L 239.612613 565.493856 
L 239.984101 566.445721 
L 240.050079 566.769899 
L 239.858747 566.834359 
L 239.722955 566.92239 
L 239.593895 567.019938 
L 239.472078 567.12647 
L 239.358272 567.241446 
L 239.252856 567.364334 
L 239.156469 567.494466 
L 239.072786 567.627315 
L 238.998481 567.765572 
L 238.934062 567.908701 
L 238.879644 568.056046 
L 238.835602 568.206815 
L 238.817185 568.349422 
L 238.812613 568.493283 
L 238.822109 568.636694 
L 238.845518 568.778613 
L 238.882548 568.917609 
L 238.932909 569.052382 
L 238.996177 569.181503 
L 239.071545 569.303815 
L 239.357821 569.720616 
L 241.80936 573.019217 
L 241.966781 573.231019 
L 241.903506 573.263167 
L 242.364129 573.919773 
L 242.708676 573.742553 
L 242.766437 573.818349 
L 242.991752 573.70032 
L 245.221335 572.532465 
L 245.858277 571.945988 
L 247.0561 571.018234 
L 247.769414 570.465704 
L 248.484035 569.913276 
L 249.197221 569.360751 
L 249.91051 568.806917 
L 250.623829 568.25439 
L 251.337152 567.701994 
L 252.051646 567.149443 
L 252.764971 566.597049 
L 253.474384 566.044483 
L 254.337023 565.379188 
L 255.019861 564.850358 
L 255.748442 564.286383 
L 256.301505 563.858122 
L 262.6967 573.029267 
L 263.574631 572.354228 
L 263.833064 572.155475 
L 270.082783 567.349073 
L 270.448078 567.068052 
L 301.377737 543.276049 
L 301.559043 543.478177 
L 303.349934 545.475783 
L 307.720492 550.290509 
L 308.105974 550.680268 
L 308.170134 550.745208 
L 309.909356 552.50471 
L 310.000995 552.597519 
L 310.514023 553.117701 
L 311.323845 553.938688 
L 311.876884 554.499264 
L 311.925439 554.548482 
L 311.940111 554.563311 
L 311.953584 554.57699 
L 312.294263 554.922284 
L 312.31774 554.946062 
L 312.65322 555.286246 
L 315.203632 557.871165 
L 318.560299 553.61609 
L 321.031971 551.203851 
L 323.51272 548.782792 
L 323.567185 548.729548 
L 323.89131 548.413156 
L 324.225641 548.086861 
L 324.446572 547.871206 
L 325.160902 547.174069 
L 325.382983 546.957342 
L 325.843343 546.507972 
L 326.063765 546.292851 
L 326.503971 545.863147 
L 326.883717 545.492572 
L 327.218815 545.165478 
L 327.436301 544.953038 
L 328.268376 544.140987 
L 328.740607 543.680242 
L 328.991899 543.43489 
L 329.5325 542.90726 
L 329.183241 542.551303 
L 330.984561 540.789276 
L 332.853386 538.961233 
L 340.422486 531.556314 
L 342.287524 529.731818 
L 344.116201 527.938747 
L 358.644799 513.693569 
L 359.116279 513.232211 
L 359.416657 513.268315 
L 360.475872 513.130118 
L 360.860355 513.079904 
L 361.483864 514.057401 
L 361.966877 515.077267 
L 362.275224 515.725335 
L 362.992507 517.234845 
L 363.507595 518.319203 
L 365.732983 521.845934 
L 369.299353 527.497912 
L 381.94138 547.533961 
L 381.992395 547.606 
L 382.61287 548.482272 
L 384.362237 550.952852 
L 385.671923 552.802454 
L 386.507672 553.982869 
L 390.206936 559.20729 
L 393.105099 563.300402 
L 393.81618 564.304715 
L 393.913136 564.431918 
L 394.143832 564.734247 
L 394.46182 565.151319 
L 398.232759 570.095916 
L 401.604781 574.556403 
L 401.817268 574.837449 
L 404.405519 578.261282 
L 406.715175 581.316563 
L 409.153292 584.81815 
L 418.16159 597.756151 
L 419.172343 598.99829 
L 419.295776 599.150127 
L 419.674637 599.615639 
L 419.7982 599.767473 
L 423.842108 604.737597 
L 424.064435 605.010718 
L 427.427762 609.144423 
L 427.592998 609.347469 
L 430.236925 612.597651 
L 431.224731 611.86746 
L 432.645573 610.817174 
L 433.043018 610.502854 
L 433.430414 610.176213 
L 433.807641 609.837777 
L 434.174184 609.487818 
L 434.529789 609.126604 
L 434.873941 608.754407 
L 435.206523 608.371884 
L 435.527015 607.979046 
L 435.68231 607.794434 
L 435.834551 607.607278 
L 435.984004 607.417831 
L 437.100286 605.435649 
L 446.644421 591.632146 
L 446.908472 591.250248 
L 447.116582 590.949322 
L 447.854434 589.88208 
L 448.56805 588.850275 
L 449.684926 587.237166 
L 450.160364 586.549043 
L 451.879929 584.061351 
L 452.343628 583.390221 
L 452.589628 583.034474 
L 453.141347 582.236045 
L 455.158827 580.723168 
L 455.566404 580.417653 
L 456.530854 579.410306 
L 457.093649 578.822303 
L 457.527021 578.36958 
L 459.426613 576.384432 
L 461.267669 574.456924 
L 463.094517 572.523075 
L 463.46838 572.13128 
L 464.939504 570.59549 
L 467.450235 567.942485 
L 468.633396 566.692288 
L 468.858017 566.458958 
L 469.1282 566.175994 
L 470.239646 565.012479 
L 470.823875 564.396565 
L 471.384808 563.80574 
L 472.47041 562.681361 
L 473.551789 561.560344 
L 474.632494 560.444049 
L 475.718223 559.319019 
L 476.17502 558.845791 
L 477.479023 557.494635 
L 478.265964 556.679215 
L 478.99901 555.919757 
L 480.337557 554.532811 
L 480.713145 554.20019 
L 482.949031 552.219631 
L 487.328159 550.161067 
L 489.030008 549.360403 
L 490.735213 548.558101 
L 491.796801 548.058326 
L 492.547507 547.705844 
L 494.254256 546.90221 
L 495.967732 546.10784 
L 497.67063 545.318285 
L 500.811635 543.860226 
L 502.101771 543.261409 
L 503.649445 542.543026 
L 507.835334 541.123009 
L 510.376225 539.958956 
L 511.986793 539.201423 
L 512.850616 538.793649 
L 514.632946 537.969045 
L 516.118692 537.27847 
L 517.608353 536.599705 
L 519.096686 535.907903 
L 520.659219 535.181913 
L 522.217731 534.46255 
L 523.513618 533.862733 
L 527.183758 532.164719 
L 528.852937 531.391419 
L 529.349461 531.161472 
L 529.896954 530.907912 
L 531.193498 530.307705 
L 531.287565 530.264185 
L 531.783842 530.034767 
L 533.110213 529.421485 
L 533.673591 529.161042 
L 534.807745 528.638684 
L 535.355919 528.38629 
L 535.907056 528.132263 
L 538.13186 527.10643 
L 539.4407 526.501523 
L 541.655138 525.478023 
L 545.203807 523.847504 
L 545.649208 523.639615 
L 548.759677 522.176332 
L 550.550698 521.339744 
L 552.196677 520.581789 
L 553.683799 519.896761 
L 556.137134 518.756792 
L 557.766228 518.001056 
L 558.594003 517.617015 
L 559.260996 517.307508 
L 562.378299 515.855771 
L 565.494357 514.400157 
L 566.935767 513.727675 
L 567.729569 513.357338 
L 568.529714 512.984901 
L 570.789769 511.933178 
L 571.411597 511.644027 
L 571.055234 510.500049 
L 570.868896 509.901058 
L 570.626564 509.121783 
L 570.441203 508.525777 
L 570.089008 507.393599 
L 566.15573 509.223968 
L 564.693113 509.904633 
L 564.309615 510.082906 
L 558.17814 512.936254 
L 556.408067 508.196168 
L 556.402526 508.181392 
L 556.275576 507.84011 
L 555.970416 507.020677 
L 555.694077 506.278494 
L 555.497008 505.749141 
L 555.334173 505.311947 
L 553.149059 499.442664 
L 549.00767 488.378222 
L 548.231555 486.252967 
L 544.760124 473.899073 
L 543.968307 471.106488 
L 543.125604 468.194411 
L 542.852609 467.251162 
L 542.63326 466.493604 
L 542.454272 465.875116 
L 542.394843 465.669689 
L 542.06913 463.533648 
L 541.711243 461.186739 
L 541.360964 458.889192 
L 540.74492 454.655532 
L 540.117638 450.73342 
L 539.566324 447.245988 
L 539.30325 445.614448 
L 538.821683 442.628222 
L 538.594249 441.205253 
L 537.294387 435.453177 
L 537.11387 434.654245 
L 535.69958 429.252999 
L 534.109097 423.178974 
L 533.809668 422.038455 
L 533.209574 419.825404 
L 534.210213 419.771265 
L 534.554045 419.719186 
L 534.508809 419.418956 
L 534.672411 419.394278 
L 542.908783 418.151577 
L 542.895518 418.058822 
L 542.845426 417.874882 
L 539.744185 406.346319 
L 539.335462 404.827011 
L 539.028179 403.685097 
L 536.997755 396.138454 
L 536.992196 396.117014 
L 536.98341 396.085322 
L 536.847867 395.581136 
L 536.223186 393.259374 
L 536.131121 392.917059 
L 534.741661 387.752855 
L 534.669632 387.48524 
L 534.59136 387.194763 
L 534.220727 385.81876 
L 533.925081 384.72037 
L 533.476132 383.052062 
L 533.447711 382.946183 
L 533.390985 382.486379 
L 533.189304 380.85008 
L 533.11701 380.264246 
L 533.052299 379.73823 
L 532.98301 379.176245 
L 532.917036 378.640325 
L 532.853008 378.121612 
L 532.791825 377.625444 
L 532.715853 377.008981 
L 532.605228 376.111134 
L 531.55772 366.370885 
L 530.858453 359.869698 
L 530.498211 356.520083 
L 529.28549 356.675914 
L 528.063018 356.83301 
L 527.55736 356.897971 
L 526.225879 357.096179 
L 523.413983 357.514867 
L 520.375432 357.967233 
L 516.238179 358.583387 
L 515.559254 358.684625 
L 512.341885 359.16362 
L 514.43299 356.428549 
L 515.343846 355.237176 
L 515.685458 354.777521 
L 516.240747 353.980771 
L 516.842095 353.108896 
L 517.677768 351.71951 
L 518.447507 350.361389 
L 519.270646 348.782656 
L 520.111122 346.155947 
L 520.564601 344.594853 
L 520.80777 343.758398 
L 520.82618 343.694736 
L 521.624278 340.637833 
L 522.373313 337.467279 
L 522.762903 334.822902 
L 523.104475 331.600124 
L 523.129892 329.386494 
L 523.134276 329.001652 
L 523.138851 328.607789 
L 522.380815 322.473453 
L 521.045596 314.708305 
L 520.053083 309.628482 
L 519.402665 305.263486 
L 519.062912 302.983885 
L 518.967624 302.344199 
L 518.840154 301.488027 
L 518.734162 300.777224 
L 518.722227 300.69764 
L 518.698611 300.538204 
L 518.676246 300.38815 
L 518.665067 300.313253 
L 518.612533 299.961043 
L 518.541444 299.577751 
L 518.383983 298.727604 
L 518.096041 297.173866 
L 517.420174 293.527045 
L 516.430241 287.183944 
L 515.2673 277.184792 
L 515.254747 270.671342 
L 515.09317 264.406642 
L 515.085913 264.126349 
L 515.049175 262.098635 
L 514.915973 254.719977 
L 515.176248 254.742149 
L 514.565987 249.216284 
L 514.483401 248.955964 
L 514.054137 247.605848 
L 513.980119 247.373174 
L 513.963993 247.322303 
L 513.768142 246.70616 
L 513.334049 241.297782 
L 511.790574 232.305958 
L 510.933611 226.402546 
L 510.75446 225.134424 
L 510.540477 223.701235 
L 510.487257 223.365638 
L 509.604681 217.749266 
L 508.387586 211.493312 
L 507.684911 208.37926 
L 506.774669 205.292049 
L 505.760913 202.459895 
L 504.024275 197.562128 
L 498.022275 186.512825 
L 497.850221 186.08892 
L 496.274538 183.252187 
L 495.148852 181.133485 
L 494.985295 180.839818 
L 493.945082 179.028811 
L 492.735102 176.868081 
L 491.799772 175.287494 
L 491.674406 175.080928 
L 491.522224 174.829742 
L 491.470681 174.746468 
L 490.609179 173.354255 
L 490.334411 172.910164 
L 488.969046 170.772118 
L 488.370189 169.889221 
L 487.557189 168.690524 
L 486.138339 166.635095 
L 484.762799 164.6332 
L 484.195783 163.945235 
L 484.029031 163.742992 
L 483.026622 162.526441 
L 481.703024 160.919899 
L 481.292178 160.468786 
L 481.791773 160.018658 
L 481.56924 159.724611 
L 481.296448 159.36412 
L 480.017309 157.798279 
L 479.378922 157.127332 
L 477.115682 154.823775 
L 465.882462 144.384779 
L 463.685749 142.34351 
L 461.252421 141.925839 
L 460.940027 142.289205 
L 458.098275 139.790719 
L 458.173335 139.69377 
L 458.376449 139.431253 
L 457.379419 136.515423 
L 455.280215 134.538392 
L 444.546707 124.430083 
L 442.259158 122.275784 
L 442.581059 121.309074 
L 442.390639 121.140435 
L 441.468632 120.324798 
L 441.151403 120.044123 
L 443.14849 117.915624 
L 443.151601 117.912006 
L 443.452875 117.561577 
L 443.511673 116.776006 
L 443.15779 116.278816 
L 439.933001 112.715514 
L 439.427806 113.031845 
L 438.700697 113.487098 
L 438.604468 113.401038 
L 438.122779 112.969703 
L 437.853917 112.728983 
L 437.681148 112.574065 
L 437.415065 112.867403 
L 437.308123 112.985324 
L 436.086569 114.332351 
L 435.986626 114.442405 
L 435.753265 114.699725 
L 435.53964 114.935432 
L 435.302705 115.207992 
L 435.056611 115.514344 
L 434.609626 116.083432 
L 434.14167 116.677168 
L 434.135032 116.685561 
L 434.115789 116.709896 
L 434.071387 116.76604 
L 433.274944 117.785069 
L 432.975235 117.722777 
L 427.060962 116.492812 
L 426.000507 116.272312 
L 424.68123 115.99815 
L 423.894387 115.833731 
L 422.049032 115.448384 
L 419.118947 114.836433 
L 417.342387 114.465372 
L 416.844646 114.361393 
L 414.700089 113.913641 
L 410.705047 113.07939 
L 408.551436 112.62964 
L 406.757304 112.25495 
L 404.204496 111.721904 
L 403.620779 111.6 
L 401.411107 111.922196 
L 400.703469 112.401233 
L 399.250011 113.384212 
L 397.426735 114.617137 
L 397.242085 114.742167 
L 391.227111 118.810778 
L 388.548218 120.62294 
L 388.39248 120.728243 
L 387.643092 121.235154 
L 382.624457 124.629991 
L 378.055091 127.721114 
L 374.748718 129.957929 
L 374.029672 130.444178 
L 373.672101 130.687064 
L 368.587968 131.641195 
L 362.9504 132.700086 
L 362.57648 132.772013 
L 361.159206 133.037053 
L 360.388415 133.181166 
L 357.832234 133.65912 
L 353.666159 134.438235 
L 352.384762 134.677887 
L 351.717022 134.810411 
L 350.908636 134.022795 
L 350.755348 134.998564 
L 350.417503 137.149319 
L 350.329164 137.711828 
L 350.106557 139.1152 
L 349.596959 142.331138 
L 349.139005 145.232525 
L 348.397512 149.925493 
L 348.027247 152.270006 
L 347.606137 154.935197 
L 347.578124 155.113661 
L 347.499662 155.613512 
L 347.28363 156.989684 
L 347.197006 157.541177 
L 347.089981 158.218198 
L 346.722186 160.544491 
L 346.419798 162.472282 
L 346.075315 164.668931 
L 345.73232 166.862018 
L 345.457877 168.570147 
L 345.122276 170.662438 
L 345.066341 171.017862 
L 344.811649 172.635372 
L 344.736433 173.113816 
L 344.273282 176.043292 
L 343.736018 179.442039 
L 343.639166 180.054795 
L 343.582958 180.409571 
L 343.463831 181.163057 
L 342.941985 184.463834 
L 342.820809 185.230565 
L 342.314152 188.434945 
L 342.203265 189.137015 
L 341.775099 191.84602 
L 341.492525 193.632616 
L 340.933823 197.167373 
L 340.651389 198.954229 
L 340.052353 202.742777 
L 338.767534 210.870196 
L 338.201797 214.421451 
L 337.680851 214.402221 
L 337.032301 214.378469 
L 336.258343 214.350126 
L 335.449712 214.320394 
L 333.614105 214.387919 
L 331.568645 214.461096 
L 330.922665 214.48429 
L 330.448307 214.50113 
L 329.816399 214.523746 
L 329.140043 214.547496 
L 328.598049 214.566648 
L 328.012133 214.587182 
L 326.059232 214.65267 
L 325.671668 214.666511 
L 324.866826 214.695124 
L 324.471571 214.709139 
L 323.607428 214.739615 
L 323.202791 214.753973 
L 321.236168 214.823967 
L 319.251561 214.894634 
L 319.186271 214.896892 
L 318.860472 214.908297 
L 317.298953 214.961449 
L 316.521853 214.988402 
L 316.122161 215.00226 
L 315.309222 215.030415 
L 314.583335 215.05543 
L 314.179863 215.069375 
L 313.391426 215.096718 
L 312.220498 215.137273 
L 311.895476 215.148403 
L 310.453482 215.198349 
L 307.895666 215.28605 
L 307.583677 215.296757 
L 307.522164 215.2988 
L 303.612031 215.434056 
L 301.660733 215.50102 
L 300.890935 215.527827 
L 300.605794 215.537669 
L 299.696554 215.569327 
L 299.659936 215.570677 
L 299.412455 215.579146 
L 299.32123 215.582253 
L 299.291257 215.583323 
L 299.245772 215.584743 
L 299.030614 215.59222 
L 298.900424 215.596731 
L 298.652944 215.6052 
L 298.237871 215.619417 
L 298.148731 215.622478 
L 297.866067 215.632265 
L 297.596432 215.641497 
L 297.503906 215.644765 
L 297.085704 215.659054 
L 296.851126 215.667101 
L 296.709338 215.672005 
L 296.426801 215.68166 
L 296.335706 215.684765 
L 295.991401 215.69673 
L 295.790443 215.703495 
L 295.554822 215.711567 
L 295.33341 215.719317 
L 295.282583 215.720989 
L 295.032496 215.729518 
L 294.616902 215.74375 
L 294.523069 215.746917 
L 294.274289 215.755548 
L 294.227503 215.757128 
L 293.504225 215.782108 
L 292.462707 215.818205 
L 290.70965 215.879282 
L 290.603961 215.882979 
L 290.311781 215.892985 
L 288.93312 215.940503 
L 286.851372 216.011901 
L 285.778223 216.050684 
L 284.474627 216.097779 
L 283.774621 216.123069 
L 282.362522 216.174102 
L 280.150406 218.568051 
L 277.944798 220.954935 
L 277.947703 221.049095 
L 277.956566 221.291844 
L 276.987772 222.337583 
L 277.055529 222.334873 
L 274.446461 225.070299 
L 274.308811 224.894243 
L 273.730806 225.450208 
L 273.183075 225.977913 
L 273.027474 226.127806 
L 272.769197 226.376576 
L 272.131392 226.990904 
L 271.975661 227.140801 
L 271.107923 227.976729 
L 268.995866 229.778527 
L 267.9488 230.671842 
L 267.669438 230.914454 
L 267.100094 231.408675 
L 266.863072 231.614519 
L 266.407519 232.001744 
L 265.43025 232.832189 
L 264.632139 233.510637 
L 255.949605 240.889768 
L 255.563798 241.217524 
L 252.630428 243.71065 
L 251.43579 244.725873 
L 248.622477 247.116971 
L 247.46906 248.097419 
L 245.463313 249.802005 
L 245.903678 253.454024 
L 245.964046 253.955673 
L 246.935059 262.145427 
L 247.027709 262.927323 
L 247.075924 263.335544 
L 256.991805 262.162667 
L 257.457739 262.11512 
L 257.924781 262.082054 
L 258.392803 262.063473 
L 258.861019 262.059264 
L 259.329301 262.06956 
L 259.796865 262.094248 
L 260.263583 262.133462 
L 260.728797 262.186956 
L 265.17367 262.766335 
L 288.798355 265.846476 
L 290.669909 266.090482 
L 291.367309 266.181351 
L 296.289142 266.823215 
L 299.661694 267.262934 
L 300.44504 267.365723 
L 300.555039 267.380096 
L 303.908416 267.819878 
L 306.012978 268.096048 
L 308.873607 268.471445 
L 311.749888 268.845593 
L 313.159971 269.028993 
L 313.95297 269.132104 
L 319.834087 269.897161 
L 320.641472 270.002177 
L 326.180812 270.722861 
L 329.4092 271.138546 
L 335.120601 271.873985 
L 336.926908 272.105221 
L 338.562235 272.314574 
L 339.761102 272.465939 
L 340.198433 272.521165 
L 341.284045 272.658358 
L 344.756649 273.142847 
L 360.518775 275.185363 
L 361.129428 275.264407 
L 364.143467 275.655033 
L 364.542639 275.706952 
L 369.357634 276.330874 
L 369.738621 276.380199 
L 370.053462 276.421026 
L 370.925531 276.534114 
L 372.374638 276.726307 
L 373.727084 276.905649 
L 374.68583 277.032813 
L 375.689499 277.139497 
L 376.101949 277.196222 
L 377.663707 277.410856 
L 379.451116 277.656622 
L 395.416309 279.733728 
L 400.146678 280.349196 
L 397.2904 286.903266 
L 396.921966 287.759309 
L 396.23294 289.359629 
L 394.839045 292.597873 
L 394.386289 293.644955 
L 394.229611 294.007303 
L 394.071529 294.37338 
L 393.775671 295.057248 
L 393.739336 295.14105 
L 391.909083 299.374355 
L 391.05701 301.344922 
L 389.623926 304.659465 
L 389.196657 305.647653 
L 388.988109 306.130132 
L 388.691394 306.815982 
L 388.500087 307.258868 
L 388.178576 308.002124 
L 387.735929 309.025552 
L 387.607856 309.322085 
L 386.950225 310.843167 
L 386.73039 311.351385 
L 386.611116 311.627332 
L 385.944931 313.16808 
L 385.612546 313.9321 
L 385.445854 314.315102 
L 385.009537 315.318002 
L 383.618066 318.513875 
L 383.393699 319.029122 
L 383.361451 319.103163 
L 382.000646 322.229347 
L 381.963938 322.313813 
L 381.83148 322.618156 
L 381.344562 323.736809 
L 381.090681 324.319894 
L 380.962689 324.613944 
L 379.873286 327.210759 
L 379.242128 328.672053 
L 379.189695 328.793857 
L 378.006271 330.40518 
L 377.963807 330.465467 
L 377.909714 330.542221 
L 377.494982 331.121866 
L 372.027835 336.196824 
L 372.107329 336.975112 
L 366.879786 342.345831 
L 365.026348 344.249704 
L 364.385085 344.908425 
L 362.377047 346.970912 
L 362.32619 347.023156 
L 362.080317 347.275689 
L 361.121042 348.260972 
L 360.327724 349.075763 
L 360.105436 349.304243 
L 359.300651 350.130924 
L 358.338582 351.119149 
L 358.114378 351.349372 
L 358.04912 351.416446 
L 357.996477 351.470429 
L 357.74946 351.724167 
L 356.791221 352.708518 
L 356.398798 353.112684 
L 356.194114 353.323649 
L 355.990954 353.53275 
L 355.767406 353.763089 
L 355.567689 353.968714 
L 355.362748 354.179816 
L 355.317631 354.226311 
L 354.988684 354.565273 
L 354.958603 354.59614 
L 354.549226 355.017547 
L 354.106204 355.473692 
L 353.311037 356.292454 
L 351.926659 357.717549 
L 351.714199 357.93627 
L 351.618482 358.034743 
L 349.222158 360.50161 
L 349.050738 360.678111 
L 347.889093 361.896763 
L 347.365306 362.446258 
L 330.196291 380.021118 
L 330.059659 380.161161 
L 328.299106 381.912366 
L 316.057826 394.376086 
L 312.002094 398.483848 
L 311.975833 398.510448 
L 311.657632 398.832462 
L 311.634686 398.85572 
L 311.287162 399.207279 
L 311.265107 399.229602 
L 310.809354 399.690901 
L 310.78743 399.713221 
L 310.439015 400.065715 
L 310.417091 400.088035 
L 309.022043 401.499875 
L 306.642231 403.956079 
L 306.376042 404.225169 
L 302.807129 407.833479 
L 302.773093 407.867966 
L 302.645384 407.998404 
L 302.507606 408.139132 
L 302.4774 408.170004 
L 302.424381 408.224262 
L 302.194578 408.458813 
L 301.77296 408.889419 
L 301.550429 409.11688 
L 301.323689 409.348487 
L 301.160549 409.515143 
L 299.572627 411.137851 
L 299.035545 411.686597 
L 298.808807 411.918205 
L 297.96877 412.776345 
L 296.634017 414.142023 
L 296.325077 414.457694 
L 295.30624 415.498791 
L 295.035795 415.7753 
L 294.484318 416.338752 
L 294.283713 416.543764 
L 293.566341 417.27289 
L 293.322154 417.522669 
L 293.258304 417.588019 
L 292.936378 417.917446 
L 290.877499 420.023788 
L 290.358803 420.554614 
L 290.122267 420.79664 
L 290.06555 420.854511 
L 289.97213 420.949936 
L 289.906495 421.017026 
L 289.783504 421.142524 
L 288.261384 422.697253 
L 288.188231 422.772093 
L 288.171795 422.789062 
L 287.948379 423.017332 
L 287.43948 423.537222 
L 286.272703 424.729359 
L 286.006336 425.001337 
L 285.800893 425.211296 
L 285.495962 425.525052 
L 285.258697 425.769318 
L 285.184153 425.84602 
L 284.376655 426.676912 
L 282.292583 428.819922 
L 279.689627 431.495608 
L 279.593292 431.594629 
L 278.800655 434.102967 
L 278.506883 435.033191 
L 278.414641 435.325407 
L 278.209109 435.976705 
L 276.885877 440.164117 
L 272.26503 438.698012 
L 270.168433 438.032203 
L 268.681404 437.559994 
L 268.091539 437.475819 
L 267.757784 437.42553 
L 267.791642 437.955749 
L 267.948796 440.415531 
L 267.957879 440.558168 
L 267.968998 440.7333 
L 267.977254 440.862363 
L 268.00003 441.219149 
L 268.003013 441.264692 
L 268.079956 442.468417 
L 266.876445 442.508229 
L 266.832409 442.509619 
L 266.478836 442.52142 
L 265.94769 442.538943 
L 265.952901 442.960818 
L 264.291023 442.915357 
L 258.968667 442.769123 
L 256.486845 442.705809 
L 254.930459 442.666998 
L 253.416598 442.629188 
L 250.296371 442.550578 
L 250.22867 442.548978 
L 248.975312 442.517553 
L 246.526513 442.450262 
L 245.395657 442.422338 
L 244.785809 442.407163 
L 244.54735 442.401335 
L 244.456167 442.399092 
L 244.217445 442.393139 
L 244.126262 442.390895 
L 243.887804 442.385067 
L 243.280174 442.369974 
L 241.182042 442.318138 
L 238.845848 442.260736 
L 238.493506 442.252006 
L 234.753821 442.160092 
L 234.282901 442.148438 
L 233.290843 442.124049 
L 232.180986 442.096587 
L 229.863828 442.039307 
L 229.298459 442.025098 
L 227.438917 441.979257 
L 226.903557 441.966067 
L 226.493687 441.955906 
L 226.084338 441.945734 
L 225.698678 441.933848 
L 222.630482 441.838771 
L 219.275602 441.767346 
L 218.622627 441.753438 
L 217.632857 441.732289 
L 217.109017 441.721197 
L 215.275443 441.682251 
L 211.84408 441.607246 
L 210.025551 441.570587 
L 209.717463 441.564395 
L 209.66255 441.563292 
L 208.975282 441.549259 
L 208.693413 441.543648 
L 207.722975 441.524165 
L 206.141835 441.49218 
L 205.863227 441.486626 
L 205.77688 441.484931 
L 203.764782 441.44433 
L 209.310925 446.6024 
L 222.856448 459.219761 
L 224.379866 460.638788 
L 225.982766 462.131158 
L 226.620943 462.725405 
L 229.988789 465.861084 
L 230.494984 466.33248 
L 232.117433 467.84311 
L 233.819788 469.434394 
L 235.361698 470.895109 
L 236.915394 472.346934 
L 238.267044 473.609801 
L 239.849198 475.088187 
L 240.721421 475.903209 
L 242.287469 477.377768 
L 240.324054 478.813731 
" clip-path="url(#p0e3d95d88c)" style="fill: #d3d3d3"/>
   </g>
   <g id="matplotlib.axis_1">
    <g id="xtick_1">
     <g id="line2d_1">
      <defs>
       <path id="m673b66e66c" d="M 0 0 
L 0 3.5 
" style="stroke: #000000; stroke-width: 0.8"/>
      </defs>
      <g>
       <use xlink:href="#m673b66e66c" x="186.6109" y="640.8" style="stroke: #000000; stroke-width: 0.8"/>
      </g>
     </g>
     <g id="text_1">
      <!-- 13.36 -->
      <g transform="translate(172.296837 655.398438) scale(0.1 -0.1)">
       <defs>
        <path id="DejaVuSans-31" d="M 794 531 
L 1825 531 
L 1825 4091 
L 703 3866 
L 703 4441 
L 1819 4666 
L 2450 4666 
L 2450 531 
L 3481 531 
L 3481 0 
L 794 0 
L 794 531 
z
" transform="scale(0.015625)"/>
        <path id="DejaVuSans-33" d="M 2597 2516 
Q 3050 2419 3304 2112 
Q 3559 1806 3559 1356 
Q 3559 666 3084 287 
Q 2609 -91 1734 -91 
Q 1441 -91 1130 -33 
Q 819 25 488 141 
L 488 750 
Q 750 597 1062 519 
Q 1375 441 1716 441 
Q 2309 441 2620 675 
Q 2931 909 2931 1356 
Q 2931 1769 2642 2001 
Q 2353 2234 1838 2234 
L 1294 2234 
L 1294 2753 
L 1863 2753 
Q 2328 2753 2575 2939 
Q 2822 3125 2822 3475 
Q 2822 3834 2567 4026 
Q 2313 4219 1838 4219 
Q 1578 4219 1281 4162 
Q 984 4106 628 3988 
L 628 4550 
Q 988 4650 1302 4700 
Q 1616 4750 1894 4750 
Q 2613 4750 3031 4423 
Q 3450 4097 3450 3541 
Q 3450 3153 3228 2886 
Q 3006 2619 2597 2516 
z
" transform="scale(0.015625)"/>
        <path id="DejaVuSans-2e" d="M 684 794 
L 1344 794 
L 1344 0 
L 684 0 
L 684 794 
z
" transform="scale(0.015625)"/>
        <path id="DejaVuSans-36" d="M 2113 2584 
Q 1688 2584 1439 2293 
Q 1191 2003 1191 1497 
Q 1191 994 1439 701 
Q 1688 409 2113 409 
Q 2538 409 2786 701 
Q 3034 994 3034 1497 
Q 3034 2003 2786 2293 
Q 2538 2584 2113 2584 
z
M 3366 4563 
L 3366 3988 
Q 3128 4100 2886 4159 
Q 2644 4219 2406 4219 
Q 1781 4219 1451 3797 
Q 1122 3375 1075 2522 
Q 1259 2794 1537 2939 
Q 1816 3084 2150 3084 
Q 2853 3084 3261 2657 
Q 3669 2231 3669 1497 
Q 3669 778 3244 343 
Q 2819 -91 2113 -91 
Q 1303 -91 875 529 
Q 447 1150 447 2328 
Q 447 3434 972 4092 
Q 1497 4750 2381 4750 
Q 2619 4750 2861 4703 
Q 3103 4656 3366 4563 
z
" transform="scale(0.015625)"/>
       </defs>
       <use xlink:href="#DejaVuSans-31"/>
       <use xlink:href="#DejaVuSans-33" x="63.623047"/>
       <use xlink:href="#DejaVuSans-2e" x="127.246094"/>
       <use xlink:href="#DejaVuSans-33" x="159.033203"/>
       <use xlink:href="#DejaVuSans-36" x="222.65625"/>
      </g>
     </g>
    </g>
    <g id="xtick_2">
     <g id="line2d_2">
      <g>
       <use xlink:href="#m673b66e66c" x="275.014174" y="640.8" style="stroke: #000000; stroke-width: 0.8"/>
      </g>
     </g>
     <g id="text_2">
      <!-- 13.37 -->
      <g transform="translate(260.700112 655.398438) scale(0.1 -0.1)">
       <defs>
        <path id="DejaVuSans-37" d="M 525 4666 
L 3525 4666 
L 3525 4397 
L 1831 0 
L 1172 0 
L 2766 4134 
L 525 4134 
L 525 4666 
z
" transform="scale(0.015625)"/>
       </defs>
       <use xlink:href="#DejaVuSans-31"/>
       <use xlink:href="#DejaVuSans-33" x="63.623047"/>
       <use xlink:href="#DejaVuSans-2e" x="127.246094"/>
       <use xlink:href="#DejaVuSans-33" x="159.033203"/>
       <use xlink:href="#DejaVuSans-37" x="222.65625"/>
      </g>
     </g>
    </g>
    <g id="xtick_3">
     <g id="line2d_3">
      <g>
       <use xlink:href="#m673b66e66c" x="363.417449" y="640.8" style="stroke: #000000; stroke-width: 0.8"/>
      </g>
     </g>
     <g id="text_3">
      <!-- 13.38 -->
      <g transform="translate(349.103387 655.398438) scale(0.1 -0.1)">
       <defs>
        <path id="DejaVuSans-38" d="M 2034 2216 
Q 1584 2216 1326 1975 
Q 1069 1734 1069 1313 
Q 1069 891 1326 650 
Q 1584 409 2034 409 
Q 2484 409 2743 651 
Q 3003 894 3003 1313 
Q 3003 1734 2745 1975 
Q 2488 2216 2034 2216 
z
M 1403 2484 
Q 997 2584 770 2862 
Q 544 3141 544 3541 
Q 544 4100 942 4425 
Q 1341 4750 2034 4750 
Q 2731 4750 3128 4425 
Q 3525 4100 3525 3541 
Q 3525 3141 3298 2862 
Q 3072 2584 2669 2484 
Q 3125 2378 3379 2068 
Q 3634 1759 3634 1313 
Q 3634 634 3220 271 
Q 2806 -91 2034 -91 
Q 1263 -91 848 271 
Q 434 634 434 1313 
Q 434 1759 690 2068 
Q 947 2378 1403 2484 
z
M 1172 3481 
Q 1172 3119 1398 2916 
Q 1625 2713 2034 2713 
Q 2441 2713 2670 2916 
Q 2900 3119 2900 3481 
Q 2900 3844 2670 4047 
Q 2441 4250 2034 4250 
Q 1625 4250 1398 4047 
Q 1172 3844 1172 3481 
z
" transform="scale(0.015625)"/>
       </defs>
       <use xlink:href="#DejaVuSans-31"/>
       <use xlink:href="#DejaVuSans-33" x="63.623047"/>
       <use xlink:href="#DejaVuSans-2e" x="127.246094"/>
       <use xlink:href="#DejaVuSans-33" x="159.033203"/>
       <use xlink:href="#DejaVuSans-38" x="222.65625"/>
      </g>
     </g>
    </g>
    <g id="xtick_4">
     <g id="line2d_4">
      <g>
       <use xlink:href="#m673b66e66c" x="451.820724" y="640.8" style="stroke: #000000; stroke-width: 0.8"/>
      </g>
     </g>
     <g id="text_4">
      <!-- 13.39 -->
      <g transform="translate(437.506662 655.398438) scale(0.1 -0.1)">
       <defs>
        <path id="DejaVuSans-39" d="M 703 97 
L 703 672 
Q 941 559 1184 500 
Q 1428 441 1663 441 
Q 2288 441 2617 861 
Q 2947 1281 2994 2138 
Q 2813 1869 2534 1725 
Q 2256 1581 1919 1581 
Q 1219 1581 811 2004 
Q 403 2428 403 3163 
Q 403 3881 828 4315 
Q 1253 4750 1959 4750 
Q 2769 4750 3195 4129 
Q 3622 3509 3622 2328 
Q 3622 1225 3098 567 
Q 2575 -91 1691 -91 
Q 1453 -91 1209 -44 
Q 966 3 703 97 
z
M 1959 2075 
Q 2384 2075 2632 2365 
Q 2881 2656 2881 3163 
Q 2881 3666 2632 3958 
Q 2384 4250 1959 4250 
Q 1534 4250 1286 3958 
Q 1038 3666 1038 3163 
Q 1038 2656 1286 2365 
Q 1534 2075 1959 2075 
z
" transform="scale(0.015625)"/>
       </defs>
       <use xlink:href="#DejaVuSans-31"/>
       <use xlink:href="#DejaVuSans-33" x="63.623047"/>
       <use xlink:href="#DejaVuSans-2e" x="127.246094"/>
       <use xlink:href="#DejaVuSans-33" x="159.033203"/>
       <use xlink:href="#DejaVuSans-39" x="222.65625"/>
      </g>
     </g>
    </g>
    <g id="xtick_5">
     <g id="line2d_5">
      <g>
       <use xlink:href="#m673b66e66c" x="540.223999" y="640.8" style="stroke: #000000; stroke-width: 0.8"/>
      </g>
     </g>
     <g id="text_5">
      <!-- 13.40 -->
      <g transform="translate(525.909936 655.398438) scale(0.1 -0.1)">
       <defs>
        <path id="DejaVuSans-34" d="M 2419 4116 
L 825 1625 
L 2419 1625 
L 2419 4116 
z
M 2253 4666 
L 3047 4666 
L 3047 1625 
L 3713 1625 
L 3713 1100 
L 3047 1100 
L 3047 0 
L 2419 0 
L 2419 1100 
L 313 1100 
L 313 1709 
L 2253 4666 
z
" transform="scale(0.015625)"/>
        <path id="DejaVuSans-30" d="M 2034 4250 
Q 1547 4250 1301 3770 
Q 1056 3291 1056 2328 
Q 1056 1369 1301 889 
Q 1547 409 2034 409 
Q 2525 409 2770 889 
Q 3016 1369 3016 2328 
Q 3016 3291 2770 3770 
Q 2525 4250 2034 4250 
z
M 2034 4750 
Q 2819 4750 3233 4129 
Q 3647 3509 3647 2328 
Q 3647 1150 3233 529 
Q 2819 -91 2034 -91 
Q 1250 -91 836 529 
Q 422 1150 422 2328 
Q 422 3509 836 4129 
Q 1250 4750 2034 4750 
z
" transform="scale(0.015625)"/>
       </defs>
       <use xlink:href="#DejaVuSans-31"/>
       <use xlink:href="#DejaVuSans-33" x="63.623047"/>
       <use xlink:href="#DejaVuSans-2e" x="127.246094"/>
       <use xlink:href="#DejaVuSans-34" x="159.033203"/>
       <use xlink:href="#DejaVuSans-30" x="222.65625"/>
      </g>
     </g>
    </g>
   </g>
   <g id="matplotlib.axis_2">
    <g id="ytick_1">
     <g id="line2d_6">
      <defs>
       <path id="m9e0ecb606e" d="M 0 0 
L -3.5 0 
" style="stroke: #000000; stroke-width: 0.8"/>
      </defs>
      <g>
       <use xlink:href="#m9e0ecb606e" x="146.347243" y="587.423243" style="stroke: #000000; stroke-width: 0.8"/>
      </g>
     </g>
     <g id="text_6">
      <!-- 52.535 -->
      <g transform="translate(104.356618 591.222462) scale(0.1 -0.1)">
       <defs>
        <path id="DejaVuSans-35" d="M 691 4666 
L 3169 4666 
L 3169 4134 
L 1269 4134 
L 1269 2991 
Q 1406 3038 1543 3061 
Q 1681 3084 1819 3084 
Q 2600 3084 3056 2656 
Q 3513 2228 3513 1497 
Q 3513 744 3044 326 
Q 2575 -91 1722 -91 
Q 1428 -91 1123 -41 
Q 819 9 494 109 
L 494 744 
Q 775 591 1075 516 
Q 1375 441 1709 441 
Q 2250 441 2565 725 
Q 2881 1009 2881 1497 
Q 2881 1984 2565 2268 
Q 2250 2553 1709 2553 
Q 1456 2553 1204 2497 
Q 953 2441 691 2322 
L 691 4666 
z
" transform="scale(0.015625)"/>
        <path id="DejaVuSans-32" d="M 1228 531 
L 3431 531 
L 3431 0 
L 469 0 
L 469 531 
Q 828 903 1448 1529 
Q 2069 2156 2228 2338 
Q 2531 2678 2651 2914 
Q 2772 3150 2772 3378 
Q 2772 3750 2511 3984 
Q 2250 4219 1831 4219 
Q 1534 4219 1204 4116 
Q 875 4013 500 3803 
L 500 4441 
Q 881 4594 1212 4672 
Q 1544 4750 1819 4750 
Q 2544 4750 2975 4387 
Q 3406 4025 3406 3419 
Q 3406 3131 3298 2873 
Q 3191 2616 2906 2266 
Q 2828 2175 2409 1742 
Q 1991 1309 1228 531 
z
" transform="scale(0.015625)"/>
       </defs>
       <use xlink:href="#DejaVuSans-35"/>
       <use xlink:href="#DejaVuSans-32" x="63.623047"/>
       <use xlink:href="#DejaVuSans-2e" x="127.246094"/>
       <use xlink:href="#DejaVuSans-35" x="159.033203"/>
       <use xlink:href="#DejaVuSans-33" x="222.65625"/>
       <use xlink:href="#DejaVuSans-35" x="286.279297"/>
      </g>
     </g>
    </g>
    <g id="ytick_2">
     <g id="line2d_7">
      <g>
       <use xlink:href="#m9e0ecb606e" x="146.347243" y="514.746542" style="stroke: #000000; stroke-width: 0.8"/>
      </g>
     </g>
     <g id="text_7">
      <!-- 52.540 -->
      <g transform="translate(104.356618 518.54576) scale(0.1 -0.1)">
       <use xlink:href="#DejaVuSans-35"/>
       <use xlink:href="#DejaVuSans-32" x="63.623047"/>
       <use xlink:href="#DejaVuSans-2e" x="127.246094"/>
       <use xlink:href="#DejaVuSans-35" x="159.033203"/>
       <use xlink:href="#DejaVuSans-34" x="222.65625"/>
       <use xlink:href="#DejaVuSans-30" x="286.279297"/>
      </g>
     </g>
    </g>
    <g id="ytick_3">
     <g id="line2d_8">
      <g>
       <use xlink:href="#m9e0ecb606e" x="146.347243" y="442.06984" style="stroke: #000000; stroke-width: 0.8"/>
      </g>
     </g>
     <g id="text_8">
      <!-- 52.545 -->
      <g transform="translate(104.356618 445.869059) scale(0.1 -0.1)">
       <use xlink:href="#DejaVuSans-35"/>
       <use xlink:href="#DejaVuSans-32" x="63.623047"/>
       <use xlink:href="#DejaVuSans-2e" x="127.246094"/>
       <use xlink:href="#DejaVuSans-35" x="159.033203"/>
       <use xlink:href="#DejaVuSans-34" x="222.65625"/>
       <use xlink:href="#DejaVuSans-35" x="286.279297"/>
      </g>
     </g>
    </g>
    <g id="ytick_4">
     <g id="line2d_9">
      <g>
       <use xlink:href="#m9e0ecb606e" x="146.347243" y="369.393139" style="stroke: #000000; stroke-width: 0.8"/>
      </g>
     </g>
     <g id="text_9">
      <!-- 52.550 -->
      <g transform="translate(104.356618 373.192358) scale(0.1 -0.1)">
       <use xlink:href="#DejaVuSans-35"/>
       <use xlink:href="#DejaVuSans-32" x="63.623047"/>
       <use xlink:href="#DejaVuSans-2e" x="127.246094"/>
       <use xlink:href="#DejaVuSans-35" x="159.033203"/>
       <use xlink:href="#DejaVuSans-35" x="222.65625"/>
       <use xlink:href="#DejaVuSans-30" x="286.279297"/>
      </g>
     </g>
    </g>
    <g id="ytick_5">
     <g id="line2d_10">
      <g>
       <use xlink:href="#m9e0ecb606e" x="146.347243" y="296.716437" style="stroke: #000000; stroke-width: 0.8"/>
      </g>
     </g>
     <g id="text_10">
      <!-- 52.555 -->
      <g transform="translate(104.356618 300.515656) scale(0.1 -0.1)">
       <use xlink:href="#DejaVuSans-35"/>
       <use xlink:href="#DejaVuSans-32" x="63.623047"/>
       <use xlink:href="#DejaVuSans-2e" x="127.246094"/>
       <use xlink:href="#DejaVuSans-35" x="159.033203"/>
       <use xlink:href="#DejaVuSans-35" x="222.65625"/>
       <use xlink:href="#DejaVuSans-35" x="286.279297"/>
      </g>
     </g>
    </g>
    <g id="ytick_6">
     <g id="line2d_11">
      <g>
       <use xlink:href="#m9e0ecb606e" x="146.347243" y="224.039736" style="stroke: #000000; stroke-width: 0.8"/>
      </g>
     </g>
     <g id="text_11">
      <!-- 52.560 -->
      <g transform="translate(104.356618 227.838955) scale(0.1 -0.1)">
       <use xlink:href="#DejaVuSans-35"/>
       <use xlink:href="#DejaVuSans-32" x="63.623047"/>
       <use xlink:href="#DejaVuSans-2e" x="127.246094"/>
       <use xlink:href="#DejaVuSans-35" x="159.033203"/>
       <use xlink:href="#DejaVuSans-36" x="222.65625"/>
       <use xlink:href="#DejaVuSans-30" x="286.279297"/>
      </g>
     </g>
    </g>
    <g id="ytick_7">
     <g id="line2d_12">
      <g>
       <use xlink:href="#m9e0ecb606e" x="146.347243" y="151.363035" style="stroke: #000000; stroke-width: 0.8"/>
      </g>
     </g>
     <g id="text_12">
      <!-- 52.565 -->
      <g transform="translate(104.356618 155.162253) scale(0.1 -0.1)">
       <use xlink:href="#DejaVuSans-35"/>
       <use xlink:href="#DejaVuSans-32" x="63.623047"/>
       <use xlink:href="#DejaVuSans-2e" x="127.246094"/>
       <use xlink:href="#DejaVuSans-35" x="159.033203"/>
       <use xlink:href="#DejaVuSans-36" x="222.65625"/>
       <use xlink:href="#DejaVuSans-35" x="286.279297"/>
      </g>
     </g>
    </g>
   </g>
   <g id="LineCollection_1">
    <path d="M 423.48217 615.6 
L 424.939056 614.595608 
L 426.02288 613.887737 
L 427.5222 612.862995 
L 428.013722 612.544671 
L 428.983506 611.890581 
L 430.405031 610.931249 
" clip-path="url(#p0e3d95d88c)" style="fill: none; stroke: #ff0000; stroke-opacity: 0.7; stroke-width: 0.5"/>
    <path d="M 501.346007 399.737115 
L 501.834877 391.707793 
" clip-path="url(#p0e3d95d88c)" style="fill: none; stroke: #ff0000; stroke-opacity: 0.7; stroke-width: 0.5"/>
    <path d="M 523.765961 392.693289 
L 523.643081 391.254291 
" clip-path="url(#p0e3d95d88c)" style="fill: none; stroke: #ff0000; stroke-opacity: 0.7; stroke-width: 0.5"/>
    <path d="M 512.041919 398.864995 
L 512.374315 393.896815 
L 512.413213 393.279063 
" clip-path="url(#p0e3d95d88c)" style="fill: none; stroke: #ff0000; stroke-opacity: 0.7; stroke-width: 0.5"/>
    <path d="M 512.413213 393.279063 
L 512.455646 391.792098 
" clip-path="url(#p0e3d95d88c)" style="fill: none; stroke: #ff0000; stroke-opacity: 0.7; stroke-width: 0.5"/>
    <path d="M 512.455646 391.792098 
L 512.498964 390.723751 
" clip-path="url(#p0e3d95d88c)" style="fill: none; stroke: #ff0000; stroke-opacity: 0.7; stroke-width: 0.5"/>
    <path d="M 523.643081 391.254291 
L 523.471578 389.710637 
" clip-path="url(#p0e3d95d88c)" style="fill: none; stroke: #ff0000; stroke-opacity: 0.7; stroke-width: 0.5"/>
    <path d="M 524.249527 397.721063 
L 523.843756 393.109 
L 523.765961 392.693289 
" clip-path="url(#p0e3d95d88c)" style="fill: none; stroke: #ff0000; stroke-opacity: 0.7; stroke-width: 0.5"/>
    <path d="M 526.128097 397.946361 
L 525.987535 397.558268 
L 524.249527 397.721063 
L 520.00617 398.123692 
L 518.290262 398.283581 
L 516.737017 398.417306 
L 515.866245 398.491437 
L 512.94098 398.777783 
L 512.041919 398.864995 
L 507.573133 399.229832 
L 505.514221 399.396988 
L 505.055408 399.43478 
L 503.506583 399.561238 
L 501.346007 399.737115 
" clip-path="url(#p0e3d95d88c)" style="fill: none; stroke: #ff0000; stroke-opacity: 0.7; stroke-width: 0.5"/>
    <path d="M 523.471578 389.710637 
L 525.797468 389.495514 
L 534.481322 388.73677 
L 535.60316 392.742709 
L 535.642057 392.888063 
L 536.719693 396.947783 
" clip-path="url(#p0e3d95d88c)" style="fill: none; stroke: #ff0000; stroke-opacity: 0.7; stroke-width: 0.5"/>
    <path d="M 501.834877 391.707793 
L 512.498964 390.723751 
L 523.471578 389.710637 
" clip-path="url(#p0e3d95d88c)" style="fill: none; stroke: #ff0000; stroke-opacity: 0.7; stroke-width: 0.5"/>
    <path d="M 429.273469 609.573648 
L 428.891567 609.864355 
L 427.04659 611.28155 
L 423.988721 613.44877 
" clip-path="url(#p0e3d95d88c)" style="fill: none; stroke: #ff0000; stroke-opacity: 0.7; stroke-width: 0.5"/>
   </g>
   <g id="patch_3">
    <path d="M 146.347243 640.8 
L 146.347243 86.4 
" style="fill: none; stroke: #000000; stroke-width: 0.8; stroke-linejoin: miter; stroke-linecap: square"/>
   </g>
   <g id="patch_4">
    <path d="M 591.652757 640.8 
L 591.652757 86.4 
" style="fill: none; stroke: #000000; stroke-width: 0.8; stroke-linejoin: miter; stroke-linecap: square"/>
   </g>
   <g id="patch_5">
    <path d="M 146.347243 640.8 
L 591.652757 640.8 
" style="fill: none; stroke: #000000; stroke-width: 0.8; stroke-linejoin: miter; stroke-linecap: square"/>
   </g>
   <g id="patch_6">
    <path d="M 146.347243 86.4 
L 591.652757 86.4 
" style="fill: none; stroke: #000000; stroke-width: 0.8; stroke-linejoin: miter; stroke-linecap: square"/>
   </g>
   <g id="text_13">
    <!-- Gesundbrunnen -->
    <g transform="translate(353.320495 382.040831) scale(0.12 -0.12)">
     <defs>
      <path id="DejaVuSans-47" d="M 3809 666 
L 3809 1919 
L 2778 1919 
L 2778 2438 
L 4434 2438 
L 4434 434 
Q 4069 175 3628 42 
Q 3188 -91 2688 -91 
Q 1594 -91 976 548 
Q 359 1188 359 2328 
Q 359 3472 976 4111 
Q 1594 4750 2688 4750 
Q 3144 4750 3555 4637 
Q 3966 4525 4313 4306 
L 4313 3634 
Q 3963 3931 3569 4081 
Q 3175 4231 2741 4231 
Q 1884 4231 1454 3753 
Q 1025 3275 1025 2328 
Q 1025 1384 1454 906 
Q 1884 428 2741 428 
Q 3075 428 3337 486 
Q 3600 544 3809 666 
z
" transform="scale(0.015625)"/>
      <path id="DejaVuSans-65" d="M 3597 1894 
L 3597 1613 
L 953 1613 
Q 991 1019 1311 708 
Q 1631 397 2203 397 
Q 2534 397 2845 478 
Q 3156 559 3463 722 
L 3463 178 
Q 3153 47 2828 -22 
Q 2503 -91 2169 -91 
Q 1331 -91 842 396 
Q 353 884 353 1716 
Q 353 2575 817 3079 
Q 1281 3584 2069 3584 
Q 2775 3584 3186 3129 
Q 3597 2675 3597 1894 
z
M 3022 2063 
Q 3016 2534 2758 2815 
Q 2500 3097 2075 3097 
Q 1594 3097 1305 2825 
Q 1016 2553 972 2059 
L 3022 2063 
z
" transform="scale(0.015625)"/>
      <path id="DejaVuSans-73" d="M 2834 3397 
L 2834 2853 
Q 2591 2978 2328 3040 
Q 2066 3103 1784 3103 
Q 1356 3103 1142 2972 
Q 928 2841 928 2578 
Q 928 2378 1081 2264 
Q 1234 2150 1697 2047 
L 1894 2003 
Q 2506 1872 2764 1633 
Q 3022 1394 3022 966 
Q 3022 478 2636 193 
Q 2250 -91 1575 -91 
Q 1294 -91 989 -36 
Q 684 19 347 128 
L 347 722 
Q 666 556 975 473 
Q 1284 391 1588 391 
Q 1994 391 2212 530 
Q 2431 669 2431 922 
Q 2431 1156 2273 1281 
Q 2116 1406 1581 1522 
L 1381 1569 
Q 847 1681 609 1914 
Q 372 2147 372 2553 
Q 372 3047 722 3315 
Q 1072 3584 1716 3584 
Q 2034 3584 2315 3537 
Q 2597 3491 2834 3397 
z
" transform="scale(0.015625)"/>
      <path id="DejaVuSans-75" d="M 544 1381 
L 544 3500 
L 1119 3500 
L 1119 1403 
Q 1119 906 1312 657 
Q 1506 409 1894 409 
Q 2359 409 2629 706 
Q 2900 1003 2900 1516 
L 2900 3500 
L 3475 3500 
L 3475 0 
L 2900 0 
L 2900 538 
Q 2691 219 2414 64 
Q 2138 -91 1772 -91 
Q 1169 -91 856 284 
Q 544 659 544 1381 
z
M 1991 3584 
L 1991 3584 
z
" transform="scale(0.015625)"/>
      <path id="DejaVuSans-6e" d="M 3513 2113 
L 3513 0 
L 2938 0 
L 2938 2094 
Q 2938 2591 2744 2837 
Q 2550 3084 2163 3084 
Q 1697 3084 1428 2787 
Q 1159 2491 1159 1978 
L 1159 0 
L 581 0 
L 581 3500 
L 1159 3500 
L 1159 2956 
Q 1366 3272 1645 3428 
Q 1925 3584 2291 3584 
Q 2894 3584 3203 3211 
Q 3513 2838 3513 2113 
z
" transform="scale(0.015625)"/>
      <path id="DejaVuSans-64" d="M 2906 2969 
L 2906 4863 
L 3481 4863 
L 3481 0 
L 2906 0 
L 2906 525 
Q 2725 213 2448 61 
Q 2172 -91 1784 -91 
Q 1150 -91 751 415 
Q 353 922 353 1747 
Q 353 2572 751 3078 
Q 1150 3584 1784 3584 
Q 2172 3584 2448 3432 
Q 2725 3281 2906 2969 
z
M 947 1747 
Q 947 1113 1208 752 
Q 1469 391 1925 391 
Q 2381 391 2643 752 
Q 2906 1113 2906 1747 
Q 2906 2381 2643 2742 
Q 2381 3103 1925 3103 
Q 1469 3103 1208 2742 
Q 947 2381 947 1747 
z
" transform="scale(0.015625)"/>
      <path id="DejaVuSans-62" d="M 3116 1747 
Q 3116 2381 2855 2742 
Q 2594 3103 2138 3103 
Q 1681 3103 1420 2742 
Q 1159 2381 1159 1747 
Q 1159 1113 1420 752 
Q 1681 391 2138 391 
Q 2594 391 2855 752 
Q 3116 1113 3116 1747 
z
M 1159 2969 
Q 1341 3281 1617 3432 
Q 1894 3584 2278 3584 
Q 2916 3584 3314 3078 
Q 3713 2572 3713 1747 
Q 3713 922 3314 415 
Q 2916 -91 2278 -91 
Q 1894 -91 1617 61 
Q 1341 213 1159 525 
L 1159 0 
L 581 0 
L 581 4863 
L 1159 4863 
L 1159 2969 
z
" transform="scale(0.015625)"/>
      <path id="DejaVuSans-72" d="M 2631 2963 
Q 2534 3019 2420 3045 
Q 2306 3072 2169 3072 
Q 1681 3072 1420 2755 
Q 1159 2438 1159 1844 
L 1159 0 
L 581 0 
L 581 3500 
L 1159 3500 
L 1159 2956 
Q 1341 3275 1631 3429 
Q 1922 3584 2338 3584 
Q 2397 3584 2469 3576 
Q 2541 3569 2628 3553 
L 2631 2963 
z
" transform="scale(0.015625)"/>
     </defs>
     <use xlink:href="#DejaVuSans-47"/>
     <use xlink:href="#DejaVuSans-65" x="77.490234"/>
     <use xlink:href="#DejaVuSans-73" x="139.013672"/>
     <use xlink:href="#DejaVuSans-75" x="191.113281"/>
     <use xlink:href="#DejaVuSans-6e" x="254.492188"/>
     <use xlink:href="#DejaVuSans-64" x="317.871094"/>
     <use xlink:href="#DejaVuSans-62" x="381.347656"/>
     <use xlink:href="#DejaVuSans-72" x="444.824219"/>
     <use xlink:href="#DejaVuSans-75" x="485.9375"/>
     <use xlink:href="#DejaVuSans-6e" x="549.316406"/>
     <use xlink:href="#DejaVuSans-6e" x="612.695312"/>
     <use xlink:href="#DejaVuSans-65" x="676.074219"/>
     <use xlink:href="#DejaVuSans-6e" x="737.597656"/>
    </g>
   </g>
  </g>
 </g>
 <defs>
  <clipPath id="p0e3d95d88c">
   <rect x="146.347243" y="86.4" width="445.305513" height="554.4"/>
  </clipPath>
 </defs>
</svg>
