<?xml version="1.0" encoding="utf-8" standalone="no"?>
<!DOCTYPE svg PUBLIC "-//W3C//DTD SVG 1.1//EN"
  "http://www.w3.org/Graphics/SVG/1.1/DTD/svg11.dtd">
<svg xmlns:xlink="http://www.w3.org/1999/xlink" width="720pt" height="720pt" viewBox="0 0 720 720" xmlns="http://www.w3.org/2000/svg" version="1.1">
 <metadata>
  <rdf:RDF xmlns:dc="http://purl.org/dc/elements/1.1/" xmlns:cc="http://creativecommons.org/ns#" xmlns:rdf="http://www.w3.org/1999/02/22-rdf-syntax-ns#">
   <cc:Work>
    <dc:type rdf:resource="http://purl.org/dc/dcmitype/StillImage"/>
    <dc:date>2024-10-15T13:04:03.456814</dc:date>
    <dc:format>image/svg+xml</dc:format>
    <dc:creator>
     <cc:Agent>
      <dc:title>Matplotlib v3.9.2, https://matplotlib.org/</dc:title>
     </cc:Agent>
    </dc:creator>
   </cc:Work>
  </rdf:RDF>
 </metadata>
 <defs>
  <style type="text/css">*{stroke-linejoin: round; stroke-linecap: butt}</style>
 </defs>
 <g id="figure_1">
  <g id="patch_1">
   <path d="M 0 720 
L 720 720 
L 720 0 
L 0 0 
z
" style="fill: #ffffff"/>
  </g>
  <g id="axes_1">
   <g id="patch_2">
    <path d="M 90 584.198807 
L 648 584.198807 
L 648 143.001193 
L 90 143.001193 
z
" style="fill: #ffffff"/>
   </g>
   <g id="PatchCollection_1">
    <path d="M 622.636364 396.732701 
L 614.367454 386.545724 
L 614.228554 386.375071 
L 614.348199 385.64486 
L 614.902585 385.19667 
L 615.01918 384.802958 
L 614.396305 381.975957 
L 612.254888 380.106824 
L 610.244174 378.087304 
L 609.779441 378.008666 
L 608.631451 376.893569 
L 608.375076 376.738374 
L 608.288515 376.700106 
L 608.196259 376.679457 
L 608.101744 376.677304 
L 608.008571 376.69357 
L 607.920334 376.727798 
L 607.835756 376.782296 
L 607.764239 376.85325 
L 607.708749 376.937362 
L 607.67206 377.03134 
L 607.655407 377.130784 
L 607.659646 377.231489 
L 607.684501 377.32928 
L 607.637282 377.365479 
L 606.649891 376.282497 
L 604.555218 374.036955 
L 604.427446 373.898966 
L 601.607297 370.85257 
L 601.061316 370.283679 
L 600.737826 369.757931 
L 600.65792 368.851335 
L 598.264785 367.180681 
L 597.183067 367.400019 
L 596.543278 367.083999 
L 596.44651 367.056411 
L 596.346163 367.047729 
L 596.246226 367.058246 
L 596.14992 367.087703 
L 596.061016 367.135069 
L 595.9827 367.198562 
L 595.917954 367.275647 
L 593.766412 367.410162 
L 592.881446 367.657605 
L 590.339265 368.640757 
L 590.223527 368.54226 
L 589.785718 369.083809 
L 587.106188 372.397196 
L 582.127632 368.679925 
L 583.515087 366.969422 
L 583.755433 364.408381 
L 582.97575 362.72416 
L 581.661179 361.645773 
L 581.903028 361.352442 
L 580.977413 360.569788 
L 579.695142 359.485193 
L 575.79114 356.183774 
L 574.802911 355.347892 
L 566.473799 350.777407 
L 566.357745 350.912273 
L 565.436129 351.981742 
L 563.015067 349.995505 
L 561.257095 348.553178 
L 558.812564 347.729666 
L 559.439622 347.016854 
L 553.472788 343.881307 
L 552.456856 343.347486 
L 551.40178 342.793018 
L 538.159709 335.680193 
L 534.559208 333.511597 
L 532.417618 332.0272 
L 527.618701 328.700784 
L 525.999825 327.423834 
L 523.770178 325.665402 
L 518.117898 321.191439 
L 517.093326 320.416501 
L 512.613461 316.943489 
L 502.460974 308.835416 
L 496.6003 304.155172 
L 496.560726 304.202813 
L 495.770214 303.577458 
L 495.806186 303.529896 
L 495.763724 303.4962 
L 492.986647 301.288288 
L 492.916379 301.311297 
L 492.175475 300.725763 
L 492.207527 300.672389 
L 491.94349 300.445122 
L 491.899904 300.500266 
L 490.803662 299.632385 
L 490.835718 299.579201 
L 490.603903 299.385851 
L 490.567932 299.433414 
L 489.779461 298.806309 
L 489.819143 298.754862 
L 487.04483 296.562122 
L 486.975102 296.583789 
L 486.211182 295.986966 
L 486.226374 295.925969 
L 485.37664 295.255689 
L 483.56388 293.825723 
L 470.652641 283.640567 
L 470.118112 283.186756 
L 469.583768 282.732751 
L 467.629551 281.572703 
L 465.009166 280.030928 
L 461.033328 277.691966 
L 459.620604 276.860451 
L 458.580846 276.239383 
L 455.259381 274.255614 
L 453.026696 272.89661 
L 446.739633 269.070517 
L 439.184034 264.417084 
L 436.589277 262.818919 
L 435.753458 262.313081 
L 432.180066 260.150377 
L 431.451316 259.709356 
L 431.050958 260.278887 
L 423.914578 254.978804 
L 419.824227 252.257951 
L 419.300471 251.909677 
L 413.745296 247.926623 
L 412.743293 246.878015 
L 411.052793 245.109863 
L 408.660366 242.606867 
L 400.698418 234.278146 
L 400.776693 232.641251 
L 398.185141 230.224194 
L 397.729361 230.283159 
L 392.49538 224.966918 
L 390.914859 223.883926 
L 386.029377 220.482142 
L 381.300465 217.189188 
L 378.630395 215.330368 
L 373.398516 209.708183 
L 373.118885 209.402933 
L 363.301453 201.26531 
L 361.987094 200.175436 
L 355.900889 195.011068 
L 351.755032 191.56647 
L 348.48574 188.850201 
L 346.116312 187.029051 
L 336.886085 180.417123 
L 329.310491 175.023298 
L 320.389233 168.014734 
L 314.243095 163.05563 
L 309.421213 174.409938 
L 306.699514 175.586253 
L 306.288543 176.556404 
L 301.719155 187.341924 
L 300.655958 189.82264 
L 299.617504 192.245636 
L 296.992848 198.419211 
L 295.600345 201.692609 
L 294.207892 204.967911 
L 293.605147 206.38443 
L 293.416325 206.828066 
L 292.830018 208.206381 
L 292.197316 209.693543 
L 292.004702 210.14601 
L 291.402335 211.562143 
L 291.266754 211.880046 
L 290.234104 214.310312 
L 288.977417 217.265813 
L 287.897766 219.802659 
L 285.889334 224.52807 
L 283.048705 223.218693 
L 279.561059 221.724717 
L 268.127167 229.635708 
L 263.959411 231.816165 
L 261.624055 232.845334 
L 259.321256 233.809706 
L 256.920875 234.814635 
L 256.04042 235.11422 
L 255.156316 235.403045 
L 254.26875 235.680916 
L 253.377913 235.94802 
L 252.349155 236.241723 
L 251.316287 236.520874 
L 250.279687 236.785463 
L 249.239545 237.035487 
L 248.895213 237.114909 
L 248.550657 237.192815 
L 248.205681 237.268828 
L 246.823917 237.557138 
L 245.437036 237.819508 
L 244.04542 238.056118 
L 242.649829 238.266952 
L 241.250637 238.451811 
L 239.848029 238.610503 
L 238.442955 238.743005 
L 237.035606 238.849504 
L 235.626359 238.929801 
L 234.215972 238.98388 
L 232.805013 239.011729 
L 231.393483 239.013346 
L 229.982329 238.988713 
L 228.571931 238.937819 
L 227.162668 238.860658 
L 225.754923 238.75741 
L 224.349455 238.62806 
L 222.946638 238.472408 
L 221.547049 238.290823 
L 220.150879 238.0833 
L 218.050015 237.872155 
L 216.49366 237.715738 
L 213.032821 237.000986 
L 211.06603 236.179709 
L 209.063183 235.43644 
L 207.754622 234.905414 
L 204.800188 233.470778 
L 200.091623 231.371509 
L 197.846323 230.351919 
L 197.413624 230.15525 
L 197.32126 230.113344 
L 193.288264 228.230365 
L 191.259011 227.304567 
L 188.922758 226.239068 
L 187.181912 225.444833 
L 185.846738 224.886656 
L 184.13624 228.756774 
L 182.972246 231.336106 
L 182.038985 233.54275 
L 181.944374 233.762777 
L 181.841913 233.979553 
L 181.731965 234.192309 
L 181.614724 234.401232 
L 181.389002 234.716376 
L 181.155187 235.025802 
L 180.913839 235.329117 
L 180.737763 235.545798 
L 180.555501 235.757289 
L 180.367237 235.963206 
L 180.172973 236.16374 
L 179.969574 236.362953 
L 179.760534 236.555824 
L 179.545669 236.742546 
L 179.325537 236.922728 
L 179.561888 237.346023 
L 178.283441 237.811891 
L 177.828122 237.978028 
L 176.920299 238.308909 
L 175.415481 238.842892 
L 174.467742 239.179026 
L 174.276653 239.246933 
L 174.101135 238.890009 
L 173.747913 238.866194 
L 173.395164 238.837995 
L 173.042703 238.805606 
L 172.895332 238.790395 
L 172.747932 238.773852 
L 172.600875 238.755591 
L 172.363875 238.710777 
L 172.127197 238.663294 
L 171.891219 238.613132 
L 171.684396 238.568797 
L 171.478085 238.521788 
L 171.272482 238.472481 
L 170.902704 238.403007 
L 170.534445 238.324942 
L 170.168271 238.238082 
L 168.658623 241.736384 
L 167.488137 244.38929 
L 166.074874 247.591835 
L 164.959717 250.119339 
L 164.034738 252.216085 
L 162.289614 256.170877 
L 158.53053 254.422577 
L 155.630807 253.104618 
L 151.887905 251.403345 
L 150.587312 250.812127 
L 147.00043 249.184088 
L 146.331835 248.880421 
L 145.820186 248.648046 
L 145.780709 248.630086 
L 145.091038 248.316994 
L 145.059226 248.302479 
L 144.376259 247.992283 
L 144.32241 247.967792 
L 139.757032 245.894968 
L 139.043783 245.570989 
L 135.865208 244.127618 
L 135.147932 243.801828 
L 130.537668 241.708546 
L 129.338449 241.164574 
L 128.009685 240.561836 
L 127.62298 240.386629 
L 125.464358 241.7504 
L 124.054658 242.64087 
L 123.542095 242.964814 
L 123.774871 245.363042 
L 124.407456 251.973216 
L 126.657543 260.217602 
L 127.93199 265.098385 
L 128.599113 267.414215 
L 129.563933 271.056872 
L 130.021116 272.623054 
L 130.148603 273.082014 
L 130.592427 274.6793 
L 131.667413 278.553842 
L 130.978466 280.101122 
L 130.77503 280.557665 
L 130.071628 282.137785 
L 129.431323 283.575592 
L 129.266954 283.944742 
L 128.600619 285.441318 
L 128.01221 286.762351 
L 127.84694 287.133614 
L 127.241726 288.492864 
L 126.923106 289.207931 
L 126.784248 289.520416 
L 125.256321 292.632171 
L 124.963282 293.345724 
L 122.922243 298.31337 
L 122.681792 298.898533 
L 122.588325 299.126529 
L 120.20078 304.937667 
L 121.999334 305.789652 
L 124.779204 307.106339 
L 125.600836 307.495438 
L 124.890692 309.164907 
L 124.442355 310.219455 
L 123.370654 312.739019 
L 123.351124 312.782811 
L 121.830249 316.119024 
L 122.859487 317.351388 
L 117.941088 328.635637 
L 115.363636 334.451512 
L 119.821316 336.698922 
L 125.72553 339.304739 
L 126.977761 339.918857 
L 130.848535 341.816717 
L 133.111852 342.940348 
L 135.989464 344.351531 
L 139.206013 345.916163 
L 142.418714 347.478798 
L 145.904816 349.173696 
L 148.346697 350.362094 
L 151.067615 351.688714 
L 153.010059 352.637251 
L 155.82594 354.012956 
L 157.364142 354.763087 
L 159.604555 355.857237 
L 163.914667 357.960297 
L 165.310343 354.741965 
L 166.754848 351.409705 
L 168.46189 352.27917 
L 170.279415 353.204915 
L 170.488005 353.374732 
L 172.760836 355.223802 
L 175.237811 357.239369 
L 176.753915 358.472514 
L 177.23713 358.865284 
L 178.770996 360.112876 
L 179.113038 360.391213 
L 177.266381 370.304006 
L 176.852175 370.664559 
L 177.15394 371.574239 
L 179.085607 377.252178 
L 179.513228 378.513408 
L 179.732616 379.160541 
L 179.906777 379.673828 
L 179.963344 379.840518 
L 180.378398 381.064939 
L 180.844742 382.44038 
L 181.780604 385.319379 
L 181.954676 385.854729 
L 182.134657 386.408777 
L 182.457574 387.401485 
L 182.607644 387.86281 
L 182.988262 388.961325 
L 183.139251 389.39706 
L 183.358966 390.031531 
L 183.545225 390.569086 
L 183.737145 391.122682 
L 183.913288 391.631362 
L 184.305036 392.761964 
L 184.493925 393.307069 
L 184.852662 394.341973 
L 185.041958 394.888401 
L 185.409197 395.947843 
L 185.595866 396.486911 
L 185.786778 397.037867 
L 185.912288 397.399695 
L 185.9706 397.568249 
L 186.175882 398.160541 
L 186.673442 399.628491 
L 186.808866 400.027377 
L 187.303368 401.485695 
L 187.708675 402.681615 
L 187.850399 403.099762 
L 188.233185 404.228661 
L 188.623278 405.379461 
L 188.769653 405.810819 
L 189.164605 406.975777 
L 189.38113 407.614037 
L 189.418452 407.724856 
L 189.52731 408.045209 
L 189.569276 408.168859 
L 189.74769 408.694986 
L 189.92812 409.226585 
L 190.318996 410.3787 
L 190.50044 410.913319 
L 190.691021 411.475505 
L 190.870032 412.00295 
L 191.082497 412.629128 
L 191.84731 414.913762 
L 192.589258 417.124346 
L 196.09469 425.675704 
L 196.076286 425.87542 
L 196.065244 425.995288 
L 196.058497 426.120767 
L 196.067117 426.246289 
L 196.090673 426.369582 
L 196.129137 426.489315 
L 196.205652 426.692465 
L 197.779611 430.835708 
L 197.844448 430.981868 
L 198.339943 431.869999 
L 199.385259 432.058937 
L 199.421275 432.066515 
L 199.438039 431.982847 
L 202.147189 432.575763 
L 204.687483 433.202058 
L 205.66088 433.442027 
L 207.491863 433.934778 
L 209.309532 434.469475 
L 211.12002 435.040277 
L 212.920885 435.639632 
L 214.710545 436.273278 
L 216.490688 436.93167 
L 218.25018 437.626082 
L 220.007871 438.351157 
L 221.67635 439.064876 
L 221.750456 439.096915 
L 223.47982 439.871494 
L 225.196077 440.680216 
L 226.900876 441.511634 
L 228.592535 442.375674 
L 229.678587 442.955152 
L 229.946306 443.097822 
L 256.722205 457.395034 
L 260.409428 459.365529 
L 267.260014 463.022661 
L 298.469843 479.698066 
L 298.665381 479.802012 
L 302.084789 481.632647 
L 302.546403 481.879677 
L 310.265903 486.010764 
L 315.691909 488.902457 
L 327.108091 495.052868 
L 342.13447 502.915933 
L 369.086904 516.977263 
L 387.825138 526.753842 
L 388.586366 527.153042 
L 391.91887 528.901833 
L 392.525476 529.220144 
L 411.824017 539.302639 
L 414.411367 540.653083 
L 414.811879 540.861201 
L 428.441523 547.955674 
L 440.762694 563.084862 
L 440.847324 563.491542 
L 441.084038 563.439627 
L 441.228008 564.14437 
L 441.368261 564.113563 
L 445.780753 563.147853 
L 445.917215 563.117129 
L 445.763681 562.408409 
L 445.987163 562.358493 
L 446.110373 559.415585 
L 446.290261 557.835446 
L 446.685662 554.198367 
L 446.798159 553.39868 
L 447.487828 549.229178 
L 447.631065 548.438905 
L 448.438744 545.600033 
L 449.324426 543.159429 
L 451.183688 540.403141 
L 453.645201 537.693339 
L 454.387774 537.148926 
L 455.025698 536.650713 
L 455.770431 536.048058 
L 456.604806 535.32764 
L 457.436707 534.571523 
L 458.130184 533.904937 
L 458.805296 533.222203 
L 459.489434 532.491729 
L 460.087157 531.826267 
L 460.719354 531.079421 
L 461.215614 530.467126 
L 461.822464 529.688119 
L 462.837718 528.391719 
L 474.83631 512.978789 
L 478.674028 508.047607 
L 482.646203 503.007792 
L 484.295873 500.922128 
L 496.518376 485.445689 
L 496.546442 485.410088 
L 498.58084 482.830407 
L 498.772505 482.587585 
L 509.372742 469.157949 
L 511.451771 466.541753 
L 514.781131 462.352215 
L 516.371959 460.920399 
L 517.966631 459.720337 
L 519.60388 458.692045 
L 521.285284 457.697035 
L 524.972205 456.304813 
L 525.634696 456.133805 
L 529.535879 455.718323 
L 531.217289 455.783413 
L 532.236999 455.897395 
L 533.231665 456.143715 
L 534.940196 456.712593 
L 539.613822 457.634976 
L 540.686078 457.846539 
L 540.958249 457.889737 
L 542.050166 457.877222 
L 543.140244 457.832036 
L 544.218611 457.691822 
L 545.264612 457.510657 
L 546.301455 457.247342 
L 547.371533 456.906287 
L 548.333426 456.535614 
L 549.327322 456.038542 
L 550.223355 455.444684 
L 551.034558 454.733792 
L 551.778823 453.91765 
L 552.205722 453.392102 
L 563.235905 439.819749 
L 564.443296 438.325719 
L 577.712916 421.989686 
L 578.948994 420.531002 
L 579.267846 420.175914 
L 580.170839 418.965553 
L 580.998627 418.106121 
L 582.564627 416.480265 
L 583.095766 415.957813 
L 583.2588 415.758226 
L 588.463305 409.375722 
L 587.811674 409.063577 
L 590.75815 406.00538 
L 591.16084 405.55207 
L 592.145034 404.846242 
L 593.163197 404.043452 
L 594.947838 402.687672 
L 595.218416 402.513921 
L 596.002304 402.065349 
L 597.759138 400.996588 
L 598.281797 400.706541 
L 598.677541 400.486929 
L 598.93498 400.355112 
L 599.198365 400.244088 
L 599.461606 400.135159 
L 601.230818 399.467425 
L 603.005916 398.85301 
L 604.786772 398.259394 
L 606.567482 397.667687 
L 608.365538 397.133046 
L 610.171262 396.628673 
L 611.980756 396.13202 
L 613.803557 395.680918 
L 614.089666 395.647765 
L 614.383651 395.628136 
L 614.677565 395.64065 
L 622.636364 396.732701 
" clip-path="url(#pe5661cabd7)" style="fill: #d3d3d3"/>
   </g>
   <g id="matplotlib.axis_1">
    <g id="xtick_1">
     <g id="line2d_1">
      <defs>
       <path id="m2277741075" d="M 0 0 
L 0 3.5 
" style="stroke: #000000; stroke-width: 0.8"/>
      </defs>
      <g>
       <use xlink:href="#m2277741075" x="128.792062" y="584.198807" style="stroke: #000000; stroke-width: 0.8"/>
      </g>
     </g>
     <g id="text_1">
      <!-- 13.415 -->
      <g transform="translate(111.29675 598.797244) scale(0.1 -0.1)">
       <defs>
        <path id="DejaVuSans-31" d="M 794 531 
L 1825 531 
L 1825 4091 
L 703 3866 
L 703 4441 
L 1819 4666 
L 2450 4666 
L 2450 531 
L 3481 531 
L 3481 0 
L 794 0 
L 794 531 
z
" transform="scale(0.015625)"/>
        <path id="DejaVuSans-33" d="M 2597 2516 
Q 3050 2419 3304 2112 
Q 3559 1806 3559 1356 
Q 3559 666 3084 287 
Q 2609 -91 1734 -91 
Q 1441 -91 1130 -33 
Q 819 25 488 141 
L 488 750 
Q 750 597 1062 519 
Q 1375 441 1716 441 
Q 2309 441 2620 675 
Q 2931 909 2931 1356 
Q 2931 1769 2642 2001 
Q 2353 2234 1838 2234 
L 1294 2234 
L 1294 2753 
L 1863 2753 
Q 2328 2753 2575 2939 
Q 2822 3125 2822 3475 
Q 2822 3834 2567 4026 
Q 2313 4219 1838 4219 
Q 1578 4219 1281 4162 
Q 984 4106 628 3988 
L 628 4550 
Q 988 4650 1302 4700 
Q 1616 4750 1894 4750 
Q 2613 4750 3031 4423 
Q 3450 4097 3450 3541 
Q 3450 3153 3228 2886 
Q 3006 2619 2597 2516 
z
" transform="scale(0.015625)"/>
        <path id="DejaVuSans-2e" d="M 684 794 
L 1344 794 
L 1344 0 
L 684 0 
L 684 794 
z
" transform="scale(0.015625)"/>
        <path id="DejaVuSans-34" d="M 2419 4116 
L 825 1625 
L 2419 1625 
L 2419 4116 
z
M 2253 4666 
L 3047 4666 
L 3047 1625 
L 3713 1625 
L 3713 1100 
L 3047 1100 
L 3047 0 
L 2419 0 
L 2419 1100 
L 313 1100 
L 313 1709 
L 2253 4666 
z
" transform="scale(0.015625)"/>
        <path id="DejaVuSans-35" d="M 691 4666 
L 3169 4666 
L 3169 4134 
L 1269 4134 
L 1269 2991 
Q 1406 3038 1543 3061 
Q 1681 3084 1819 3084 
Q 2600 3084 3056 2656 
Q 3513 2228 3513 1497 
Q 3513 744 3044 326 
Q 2575 -91 1722 -91 
Q 1428 -91 1123 -41 
Q 819 9 494 109 
L 494 744 
Q 775 591 1075 516 
Q 1375 441 1709 441 
Q 2250 441 2565 725 
Q 2881 1009 2881 1497 
Q 2881 1984 2565 2268 
Q 2250 2553 1709 2553 
Q 1456 2553 1204 2497 
Q 953 2441 691 2322 
L 691 4666 
z
" transform="scale(0.015625)"/>
       </defs>
       <use xlink:href="#DejaVuSans-31"/>
       <use xlink:href="#DejaVuSans-33" x="63.623047"/>
       <use xlink:href="#DejaVuSans-2e" x="127.246094"/>
       <use xlink:href="#DejaVuSans-34" x="159.033203"/>
       <use xlink:href="#DejaVuSans-31" x="222.65625"/>
       <use xlink:href="#DejaVuSans-35" x="286.279297"/>
      </g>
     </g>
    </g>
    <g id="xtick_2">
     <g id="line2d_2">
      <g>
       <use xlink:href="#m2277741075" x="193.174585" y="584.198807" style="stroke: #000000; stroke-width: 0.8"/>
      </g>
     </g>
     <g id="text_2">
      <!-- 13.420 -->
      <g transform="translate(175.679272 598.797244) scale(0.1 -0.1)">
       <defs>
        <path id="DejaVuSans-32" d="M 1228 531 
L 3431 531 
L 3431 0 
L 469 0 
L 469 531 
Q 828 903 1448 1529 
Q 2069 2156 2228 2338 
Q 2531 2678 2651 2914 
Q 2772 3150 2772 3378 
Q 2772 3750 2511 3984 
Q 2250 4219 1831 4219 
Q 1534 4219 1204 4116 
Q 875 4013 500 3803 
L 500 4441 
Q 881 4594 1212 4672 
Q 1544 4750 1819 4750 
Q 2544 4750 2975 4387 
Q 3406 4025 3406 3419 
Q 3406 3131 3298 2873 
Q 3191 2616 2906 2266 
Q 2828 2175 2409 1742 
Q 1991 1309 1228 531 
z
" transform="scale(0.015625)"/>
        <path id="DejaVuSans-30" d="M 2034 4250 
Q 1547 4250 1301 3770 
Q 1056 3291 1056 2328 
Q 1056 1369 1301 889 
Q 1547 409 2034 409 
Q 2525 409 2770 889 
Q 3016 1369 3016 2328 
Q 3016 3291 2770 3770 
Q 2525 4250 2034 4250 
z
M 2034 4750 
Q 2819 4750 3233 4129 
Q 3647 3509 3647 2328 
Q 3647 1150 3233 529 
Q 2819 -91 2034 -91 
Q 1250 -91 836 529 
Q 422 1150 422 2328 
Q 422 3509 836 4129 
Q 1250 4750 2034 4750 
z
" transform="scale(0.015625)"/>
       </defs>
       <use xlink:href="#DejaVuSans-31"/>
       <use xlink:href="#DejaVuSans-33" x="63.623047"/>
       <use xlink:href="#DejaVuSans-2e" x="127.246094"/>
       <use xlink:href="#DejaVuSans-34" x="159.033203"/>
       <use xlink:href="#DejaVuSans-32" x="222.65625"/>
       <use xlink:href="#DejaVuSans-30" x="286.279297"/>
      </g>
     </g>
    </g>
    <g id="xtick_3">
     <g id="line2d_3">
      <g>
       <use xlink:href="#m2277741075" x="257.557107" y="584.198807" style="stroke: #000000; stroke-width: 0.8"/>
      </g>
     </g>
     <g id="text_3">
      <!-- 13.425 -->
      <g transform="translate(240.061795 598.797244) scale(0.1 -0.1)">
       <use xlink:href="#DejaVuSans-31"/>
       <use xlink:href="#DejaVuSans-33" x="63.623047"/>
       <use xlink:href="#DejaVuSans-2e" x="127.246094"/>
       <use xlink:href="#DejaVuSans-34" x="159.033203"/>
       <use xlink:href="#DejaVuSans-32" x="222.65625"/>
       <use xlink:href="#DejaVuSans-35" x="286.279297"/>
      </g>
     </g>
    </g>
    <g id="xtick_4">
     <g id="line2d_4">
      <g>
       <use xlink:href="#m2277741075" x="321.93963" y="584.198807" style="stroke: #000000; stroke-width: 0.8"/>
      </g>
     </g>
     <g id="text_4">
      <!-- 13.430 -->
      <g transform="translate(304.444317 598.797244) scale(0.1 -0.1)">
       <use xlink:href="#DejaVuSans-31"/>
       <use xlink:href="#DejaVuSans-33" x="63.623047"/>
       <use xlink:href="#DejaVuSans-2e" x="127.246094"/>
       <use xlink:href="#DejaVuSans-34" x="159.033203"/>
       <use xlink:href="#DejaVuSans-33" x="222.65625"/>
       <use xlink:href="#DejaVuSans-30" x="286.279297"/>
      </g>
     </g>
    </g>
    <g id="xtick_5">
     <g id="line2d_5">
      <g>
       <use xlink:href="#m2277741075" x="386.322153" y="584.198807" style="stroke: #000000; stroke-width: 0.8"/>
      </g>
     </g>
     <g id="text_5">
      <!-- 13.435 -->
      <g transform="translate(368.82684 598.797244) scale(0.1 -0.1)">
       <use xlink:href="#DejaVuSans-31"/>
       <use xlink:href="#DejaVuSans-33" x="63.623047"/>
       <use xlink:href="#DejaVuSans-2e" x="127.246094"/>
       <use xlink:href="#DejaVuSans-34" x="159.033203"/>
       <use xlink:href="#DejaVuSans-33" x="222.65625"/>
       <use xlink:href="#DejaVuSans-35" x="286.279297"/>
      </g>
     </g>
    </g>
    <g id="xtick_6">
     <g id="line2d_6">
      <g>
       <use xlink:href="#m2277741075" x="450.704675" y="584.198807" style="stroke: #000000; stroke-width: 0.8"/>
      </g>
     </g>
     <g id="text_6">
      <!-- 13.440 -->
      <g transform="translate(433.209363 598.797244) scale(0.1 -0.1)">
       <use xlink:href="#DejaVuSans-31"/>
       <use xlink:href="#DejaVuSans-33" x="63.623047"/>
       <use xlink:href="#DejaVuSans-2e" x="127.246094"/>
       <use xlink:href="#DejaVuSans-34" x="159.033203"/>
       <use xlink:href="#DejaVuSans-34" x="222.65625"/>
       <use xlink:href="#DejaVuSans-30" x="286.279297"/>
      </g>
     </g>
    </g>
    <g id="xtick_7">
     <g id="line2d_7">
      <g>
       <use xlink:href="#m2277741075" x="515.087198" y="584.198807" style="stroke: #000000; stroke-width: 0.8"/>
      </g>
     </g>
     <g id="text_7">
      <!-- 13.445 -->
      <g transform="translate(497.591885 598.797244) scale(0.1 -0.1)">
       <use xlink:href="#DejaVuSans-31"/>
       <use xlink:href="#DejaVuSans-33" x="63.623047"/>
       <use xlink:href="#DejaVuSans-2e" x="127.246094"/>
       <use xlink:href="#DejaVuSans-34" x="159.033203"/>
       <use xlink:href="#DejaVuSans-34" x="222.65625"/>
       <use xlink:href="#DejaVuSans-35" x="286.279297"/>
      </g>
     </g>
    </g>
    <g id="xtick_8">
     <g id="line2d_8">
      <g>
       <use xlink:href="#m2277741075" x="579.46972" y="584.198807" style="stroke: #000000; stroke-width: 0.8"/>
      </g>
     </g>
     <g id="text_8">
      <!-- 13.450 -->
      <g transform="translate(561.974408 598.797244) scale(0.1 -0.1)">
       <use xlink:href="#DejaVuSans-31"/>
       <use xlink:href="#DejaVuSans-33" x="63.623047"/>
       <use xlink:href="#DejaVuSans-2e" x="127.246094"/>
       <use xlink:href="#DejaVuSans-34" x="159.033203"/>
       <use xlink:href="#DejaVuSans-35" x="222.65625"/>
       <use xlink:href="#DejaVuSans-30" x="286.279297"/>
      </g>
     </g>
    </g>
    <g id="xtick_9">
     <g id="line2d_9">
      <g>
       <use xlink:href="#m2277741075" x="643.852243" y="584.198807" style="stroke: #000000; stroke-width: 0.8"/>
      </g>
     </g>
     <g id="text_9">
      <!-- 13.455 -->
      <g transform="translate(626.35693 598.797244) scale(0.1 -0.1)">
       <use xlink:href="#DejaVuSans-31"/>
       <use xlink:href="#DejaVuSans-33" x="63.623047"/>
       <use xlink:href="#DejaVuSans-2e" x="127.246094"/>
       <use xlink:href="#DejaVuSans-34" x="159.033203"/>
       <use xlink:href="#DejaVuSans-35" x="222.65625"/>
       <use xlink:href="#DejaVuSans-35" x="286.279297"/>
      </g>
     </g>
    </g>
   </g>
   <g id="matplotlib.axis_2">
    <g id="ytick_1">
     <g id="line2d_10">
      <defs>
       <path id="mf1d1eb920a" d="M 0 0 
L -3.5 0 
" style="stroke: #000000; stroke-width: 0.8"/>
      </defs>
      <g>
       <use xlink:href="#mf1d1eb920a" x="90" y="555.904434" style="stroke: #000000; stroke-width: 0.8"/>
      </g>
     </g>
     <g id="text_10">
      <!-- 52.4900 -->
      <g transform="translate(41.646875 559.703653) scale(0.1 -0.1)">
       <defs>
        <path id="DejaVuSans-39" d="M 703 97 
L 703 672 
Q 941 559 1184 500 
Q 1428 441 1663 441 
Q 2288 441 2617 861 
Q 2947 1281 2994 2138 
Q 2813 1869 2534 1725 
Q 2256 1581 1919 1581 
Q 1219 1581 811 2004 
Q 403 2428 403 3163 
Q 403 3881 828 4315 
Q 1253 4750 1959 4750 
Q 2769 4750 3195 4129 
Q 3622 3509 3622 2328 
Q 3622 1225 3098 567 
Q 2575 -91 1691 -91 
Q 1453 -91 1209 -44 
Q 966 3 703 97 
z
M 1959 2075 
Q 2384 2075 2632 2365 
Q 2881 2656 2881 3163 
Q 2881 3666 2632 3958 
Q 2384 4250 1959 4250 
Q 1534 4250 1286 3958 
Q 1038 3666 1038 3163 
Q 1038 2656 1286 2365 
Q 1534 2075 1959 2075 
z
" transform="scale(0.015625)"/>
       </defs>
       <use xlink:href="#DejaVuSans-35"/>
       <use xlink:href="#DejaVuSans-32" x="63.623047"/>
       <use xlink:href="#DejaVuSans-2e" x="127.246094"/>
       <use xlink:href="#DejaVuSans-34" x="159.033203"/>
       <use xlink:href="#DejaVuSans-39" x="222.65625"/>
       <use xlink:href="#DejaVuSans-30" x="286.279297"/>
       <use xlink:href="#DejaVuSans-30" x="349.902344"/>
      </g>
     </g>
    </g>
    <g id="ytick_2">
     <g id="line2d_11">
      <g>
       <use xlink:href="#mf1d1eb920a" x="90" y="503.023183" style="stroke: #000000; stroke-width: 0.8"/>
      </g>
     </g>
     <g id="text_11">
      <!-- 52.4925 -->
      <g transform="translate(41.646875 506.822402) scale(0.1 -0.1)">
       <use xlink:href="#DejaVuSans-35"/>
       <use xlink:href="#DejaVuSans-32" x="63.623047"/>
       <use xlink:href="#DejaVuSans-2e" x="127.246094"/>
       <use xlink:href="#DejaVuSans-34" x="159.033203"/>
       <use xlink:href="#DejaVuSans-39" x="222.65625"/>
       <use xlink:href="#DejaVuSans-32" x="286.279297"/>
       <use xlink:href="#DejaVuSans-35" x="349.902344"/>
      </g>
     </g>
    </g>
    <g id="ytick_3">
     <g id="line2d_12">
      <g>
       <use xlink:href="#mf1d1eb920a" x="90" y="450.141932" style="stroke: #000000; stroke-width: 0.8"/>
      </g>
     </g>
     <g id="text_12">
      <!-- 52.4950 -->
      <g transform="translate(41.646875 453.941151) scale(0.1 -0.1)">
       <use xlink:href="#DejaVuSans-35"/>
       <use xlink:href="#DejaVuSans-32" x="63.623047"/>
       <use xlink:href="#DejaVuSans-2e" x="127.246094"/>
       <use xlink:href="#DejaVuSans-34" x="159.033203"/>
       <use xlink:href="#DejaVuSans-39" x="222.65625"/>
       <use xlink:href="#DejaVuSans-35" x="286.279297"/>
       <use xlink:href="#DejaVuSans-30" x="349.902344"/>
      </g>
     </g>
    </g>
    <g id="ytick_4">
     <g id="line2d_13">
      <g>
       <use xlink:href="#mf1d1eb920a" x="90" y="397.260681" style="stroke: #000000; stroke-width: 0.8"/>
      </g>
     </g>
     <g id="text_13">
      <!-- 52.4975 -->
      <g transform="translate(41.646875 401.059899) scale(0.1 -0.1)">
       <defs>
        <path id="DejaVuSans-37" d="M 525 4666 
L 3525 4666 
L 3525 4397 
L 1831 0 
L 1172 0 
L 2766 4134 
L 525 4134 
L 525 4666 
z
" transform="scale(0.015625)"/>
       </defs>
       <use xlink:href="#DejaVuSans-35"/>
       <use xlink:href="#DejaVuSans-32" x="63.623047"/>
       <use xlink:href="#DejaVuSans-2e" x="127.246094"/>
       <use xlink:href="#DejaVuSans-34" x="159.033203"/>
       <use xlink:href="#DejaVuSans-39" x="222.65625"/>
       <use xlink:href="#DejaVuSans-37" x="286.279297"/>
       <use xlink:href="#DejaVuSans-35" x="349.902344"/>
      </g>
     </g>
    </g>
    <g id="ytick_5">
     <g id="line2d_14">
      <g>
       <use xlink:href="#mf1d1eb920a" x="90" y="344.379429" style="stroke: #000000; stroke-width: 0.8"/>
      </g>
     </g>
     <g id="text_14">
      <!-- 52.5000 -->
      <g transform="translate(41.646875 348.178648) scale(0.1 -0.1)">
       <use xlink:href="#DejaVuSans-35"/>
       <use xlink:href="#DejaVuSans-32" x="63.623047"/>
       <use xlink:href="#DejaVuSans-2e" x="127.246094"/>
       <use xlink:href="#DejaVuSans-35" x="159.033203"/>
       <use xlink:href="#DejaVuSans-30" x="222.65625"/>
       <use xlink:href="#DejaVuSans-30" x="286.279297"/>
       <use xlink:href="#DejaVuSans-30" x="349.902344"/>
      </g>
     </g>
    </g>
    <g id="ytick_6">
     <g id="line2d_15">
      <g>
       <use xlink:href="#mf1d1eb920a" x="90" y="291.498178" style="stroke: #000000; stroke-width: 0.8"/>
      </g>
     </g>
     <g id="text_15">
      <!-- 52.5025 -->
      <g transform="translate(41.646875 295.297397) scale(0.1 -0.1)">
       <use xlink:href="#DejaVuSans-35"/>
       <use xlink:href="#DejaVuSans-32" x="63.623047"/>
       <use xlink:href="#DejaVuSans-2e" x="127.246094"/>
       <use xlink:href="#DejaVuSans-35" x="159.033203"/>
       <use xlink:href="#DejaVuSans-30" x="222.65625"/>
       <use xlink:href="#DejaVuSans-32" x="286.279297"/>
       <use xlink:href="#DejaVuSans-35" x="349.902344"/>
      </g>
     </g>
    </g>
    <g id="ytick_7">
     <g id="line2d_16">
      <g>
       <use xlink:href="#mf1d1eb920a" x="90" y="238.616927" style="stroke: #000000; stroke-width: 0.8"/>
      </g>
     </g>
     <g id="text_16">
      <!-- 52.5050 -->
      <g transform="translate(41.646875 242.416146) scale(0.1 -0.1)">
       <use xlink:href="#DejaVuSans-35"/>
       <use xlink:href="#DejaVuSans-32" x="63.623047"/>
       <use xlink:href="#DejaVuSans-2e" x="127.246094"/>
       <use xlink:href="#DejaVuSans-35" x="159.033203"/>
       <use xlink:href="#DejaVuSans-30" x="222.65625"/>
       <use xlink:href="#DejaVuSans-35" x="286.279297"/>
       <use xlink:href="#DejaVuSans-30" x="349.902344"/>
      </g>
     </g>
    </g>
    <g id="ytick_8">
     <g id="line2d_17">
      <g>
       <use xlink:href="#mf1d1eb920a" x="90" y="185.735676" style="stroke: #000000; stroke-width: 0.8"/>
      </g>
     </g>
     <g id="text_17">
      <!-- 52.5075 -->
      <g transform="translate(41.646875 189.534894) scale(0.1 -0.1)">
       <use xlink:href="#DejaVuSans-35"/>
       <use xlink:href="#DejaVuSans-32" x="63.623047"/>
       <use xlink:href="#DejaVuSans-2e" x="127.246094"/>
       <use xlink:href="#DejaVuSans-35" x="159.033203"/>
       <use xlink:href="#DejaVuSans-30" x="222.65625"/>
       <use xlink:href="#DejaVuSans-37" x="286.279297"/>
       <use xlink:href="#DejaVuSans-35" x="349.902344"/>
      </g>
     </g>
    </g>
   </g>
   <g id="LineCollection_1">
    <path d="M 221.913655 364.745057 
L 223.388015 361.553144 
" clip-path="url(#pe5661cabd7)" style="fill: none; stroke: #ff0000; stroke-opacity: 0.7; stroke-width: 0.5"/>
    <path d="M 243.292516 294.745087 
L 243.320844 295.567919 
L 243.143148 296.386521 
L 242.992493 297.084553 
L 242.625513 298.4087 
L 242.637102 300.729129 
L 243.09808 302.362102 
L 243.601552 303.288582 
L 243.753495 303.470493 
L 244.33165 304.15795 
L 245.217553 305.065392 
L 246.483314 305.911492 
" clip-path="url(#pe5661cabd7)" style="fill: none; stroke: #ff0000; stroke-opacity: 0.7; stroke-width: 0.5"/>
    <path d="M 283.968106 225.421997 
L 282.80922 224.453213 
L 279.465192 223.002151 
L 278.173679 222.363345 
" clip-path="url(#pe5661cabd7)" style="fill: none; stroke: #ff0000; stroke-opacity: 0.7; stroke-width: 0.5"/>
    <path d="M 246.483314 305.911492 
L 248.472733 306.433959 
L 249.891724 306.376847 
L 251.30814 306.046868 
L 252.803102 305.39114 
L 253.794593 304.631766 
L 254.55817 303.726439 
" clip-path="url(#pe5661cabd7)" style="fill: none; stroke: #ff0000; stroke-opacity: 0.7; stroke-width: 0.5"/>
    <path d="M 235.127524 333.570502 
L 235.770062 331.975603 
L 240.678585 319.884834 
L 241.237426 318.509921 
" clip-path="url(#pe5661cabd7)" style="fill: none; stroke: #ff0000; stroke-opacity: 0.7; stroke-width: 0.5"/>
    <path d="M 268.10554 272.185945 
L 268.602573 271.009866 
L 270.170931 267.284911 
" clip-path="url(#pe5661cabd7)" style="fill: none; stroke: #ff0000; stroke-opacity: 0.7; stroke-width: 0.5"/>
    <path d="M 309.71854 293.998404 
L 310.502719 292.502922 
L 313.936882 286.034487 
L 314.274247 285.399912 
L 315.744744 282.63105 
L 316.339638 281.512083 
L 318.058651 278.27575 
L 320.456257 273.759691 
L 321.365338 271.97019 
L 322.255104 270.3626 
" clip-path="url(#pe5661cabd7)" style="fill: none; stroke: #ff0000; stroke-opacity: 0.7; stroke-width: 0.5"/>
    <path d="M 256.221814 300.669902 
L 256.823147 299.244224 
" clip-path="url(#pe5661cabd7)" style="fill: none; stroke: #ff0000; stroke-opacity: 0.7; stroke-width: 0.5"/>
    <path d="M 322.255104 270.3626 
L 322.870601 269.201327 
L 323.710149 267.61912 
L 325.551489 264.112036 
L 328.765465 257.992617 
L 330.359576 254.957233 
L 331.635638 252.524696 
L 334.069297 247.890183 
L 335.019583 246.079529 
L 335.93639 244.334448 
L 337.5202 241.320216 
L 338.923739 238.64654 
L 340.747052 235.1733 
L 341.608491 233.531866 
L 343.398325 230.124198 
" clip-path="url(#pe5661cabd7)" style="fill: none; stroke: #ff0000; stroke-opacity: 0.7; stroke-width: 0.5"/>
    <path d="M 203.488665 401.271195 
L 202.907935 402.432467 
L 202.051647 404.139474 
L 201.697543 404.848082 
L 200.991911 406.258954 
L 200.461399 407.318695 
L 200.050638 408.124605 
" clip-path="url(#pe5661cabd7)" style="fill: none; stroke: #ff0000; stroke-opacity: 0.7; stroke-width: 0.5"/>
    <path d="M 230.406998 345.06477 
L 229.63827 346.896577 
L 228.706011 349.117589 
L 227.951448 350.883823 
L 226.032849 355.372384 
L 224.69498 358.631984 
L 224.147729 359.856714 
L 223.388015 361.553144 
" clip-path="url(#pe5661cabd7)" style="fill: none; stroke: #ff0000; stroke-opacity: 0.7; stroke-width: 0.5"/>
    <path d="M 213.737075 381.040943 
L 214.671909 379.187984 
L 215.149627 378.240352 
L 220.095493 368.379056 
L 220.445734 367.683139 
L 220.914439 366.621284 
L 221.913655 364.745057 
" clip-path="url(#pe5661cabd7)" style="fill: none; stroke: #ff0000; stroke-opacity: 0.7; stroke-width: 0.5"/>
    <path d="M 296.73516 318.723561 
L 297.25022 317.731509 
L 299.11345 314.194811 
L 299.51391 313.437552 
L 302.949361 306.967002 
L 304.547335 303.855469 
L 306.263773 300.581062 
L 307.170279 298.850787 
L 308.984579 295.398699 
L 309.71854 293.998404 
" clip-path="url(#pe5661cabd7)" style="fill: none; stroke: #ff0000; stroke-opacity: 0.7; stroke-width: 0.5"/>
    <path d="M 285.92791 339.199182 
L 286.29489 338.507495 
L 286.970907 337.27642 
L 290.752736 330.107837 
L 294.125093 323.717667 
L 296.029528 320.100589 
L 296.73516 318.723561 
" clip-path="url(#pe5661cabd7)" style="fill: none; stroke: #ff0000; stroke-opacity: 0.7; stroke-width: 0.5"/>
    <path d="M 467.078438 284.596117 
L 473.082752 289.463308 
L 477.375779 292.866745 
L 480.190583 295.098334 
L 483.933783 298.066029 
L 484.720537 298.690028 
L 487.969279 301.264288 
" clip-path="url(#pe5661cabd7)" style="fill: none; stroke: #ff0000; stroke-opacity: 0.7; stroke-width: 0.5"/>
    <path d="M 487.969279 301.264288 
L 489.618759 302.51017 
L 491.151063 303.660866 
" clip-path="url(#pe5661cabd7)" style="fill: none; stroke: #ff0000; stroke-opacity: 0.7; stroke-width: 0.5"/>
    <path d="M 491.151063 303.660866 
L 492.568767 304.765026 
L 495.226477 306.833741 
L 495.517486 307.064303 
L 501.206326 311.576132 
L 504.994593 314.617861 
L 510.713049 319.22276 
L 510.920361 319.362367 
L 511.382627 319.740997 
L 512.222175 320.405185 
" clip-path="url(#pe5661cabd7)" style="fill: none; stroke: #ff0000; stroke-opacity: 0.7; stroke-width: 0.5"/>
    <path d="M 284.542398 232.675189 
L 285.026554 230.191886 
L 284.878475 228.051253 
" clip-path="url(#pe5661cabd7)" style="fill: none; stroke: #ff0000; stroke-opacity: 0.7; stroke-width: 0.5"/>
    <path d="M 241.237426 318.509921 
L 241.767938 317.236541 
L 245.874255 307.37313 
L 246.483314 305.911492 
" clip-path="url(#pe5661cabd7)" style="fill: none; stroke: #ff0000; stroke-opacity: 0.7; stroke-width: 0.5"/>
    <path d="M 278.405456 353.631533 
L 282.583882 345.604159 
L 284.529521 341.864397 
L 285.92791 339.199182 
" clip-path="url(#pe5661cabd7)" style="fill: none; stroke: #ff0000; stroke-opacity: 0.7; stroke-width: 0.5"/>
    <path d="M 170.107615 285.050896 
L 170.3072 284.898598 
L 170.564731 284.898598 
L 173.492848 286.207938 
L 173.63964 286.326392 
L 173.700159 286.501957 
L 173.675694 286.673293 
L 172.371304 289.619836 
L 172.175581 289.786941 
L 171.876846 289.78271 
L 169.024701 288.507215 
L 168.82769 288.327418 
L 168.795499 288.035514 
L 170.107615 285.050896 
" clip-path="url(#pe5661cabd7)" style="fill: none; stroke: #ff0000; stroke-opacity: 0.7; stroke-width: 0.5"/>
    <path d="M 273.657889 226.329439 
L 272.972859 226.744028 
L 271.56932 227.564745 
L 269.814252 228.616025 
L 269.115058 229.036959 
L 266.835917 230.306109 
L 264.048153 231.765632 
L 258.749472 234.119905 
L 265.017754 236.759737 
L 267.032927 237.607953 
L 260.547032 253.406755 
L 260.418267 253.719812 
L 260.133696 254.417845 
L 259.979178 254.792244 
L 250.979789 276.598357 
L 250.823983 276.972756 
L 250.700369 277.271006 
L 250.605083 277.548104 
L 249.309706 280.805589 
L 249.191242 281.095378 
L 244.197734 293.236914 
L 246.395753 294.13801 
L 246.74857 294.319922 
L 247.209548 294.548369 
L 253.880865 297.568946 
L 254.462883 297.865081 
L 254.658606 297.947575 
L 255.759547 298.402354 
L 260.08219 287.982632 
L 260.236708 287.608233 
L 260.396377 287.219027 
L 261.564276 284.40786 
L 261.712355 284.046152 
L 261.883613 283.629448 
L 263.047649 280.80982 
L 263.173839 280.503108 
L 263.341233 280.111787 
L 264.47179 277.338694 
L 264.606994 277.025637 
L 264.762799 276.674506 
L 266.096805 273.499515 
L 268.709448 267.081847 
L 269.963619 264.010504 
L 270.118138 263.669948 
L 270.297121 263.274397 
L 271.387761 260.55207 
L 271.54743 260.205169 
L 271.723838 259.79058 
L 272.865984 257.015372 
L 273.003762 256.693854 
L 273.190472 256.243306 
L 274.330042 253.430023 
L 274.483273 253.064085 
L 274.669982 252.676994 
L 278.790463 242.551292 
L 278.319183 242.358804 
L 278.883174 241.009275 
L 278.975885 240.778712 
L 275.434846 239.306498 
L 274.801322 239.029401 
L 273.749312 238.587313 
L 273.168581 238.346175 
L 269.427957 236.778775 
L 269.865758 235.697882 
L 273.657889 226.329439 
" clip-path="url(#pe5661cabd7)" style="fill: none; stroke: #ff0000; stroke-opacity: 0.7; stroke-width: 0.5"/>
    <path d="M 212.399206 383.606741 
L 211.204266 385.895442 
L 211.036872 386.21696 
L 210.758739 386.750003 
" clip-path="url(#pe5661cabd7)" style="fill: none; stroke: #ff0000; stroke-opacity: 0.7; stroke-width: 0.5"/>
    <path d="M 193.443704 419.898087 
L 193.873779 419.745789 
L 194.484125 419.087946 
" clip-path="url(#pe5661cabd7)" style="fill: none; stroke: #ff0000; stroke-opacity: 0.7; stroke-width: 0.5"/>
    <path d="M 196.252069 415.585092 
L 195.352002 417.296329 
L 195.021076 417.949941 
L 194.484125 419.087946 
" clip-path="url(#pe5661cabd7)" style="fill: none; stroke: #ff0000; stroke-opacity: 0.7; stroke-width: 0.5"/>
    <path d="M 284.878475 228.051253 
L 284.564288 226.634035 
L 283.968106 225.421997 
" clip-path="url(#pe5661cabd7)" style="fill: none; stroke: #ff0000; stroke-opacity: 0.7; stroke-width: 0.5"/>
    <path d="M 280.441231 242.583021 
L 281.049002 241.112922 
L 281.235712 240.660258 
" clip-path="url(#pe5661cabd7)" style="fill: none; stroke: #ff0000; stroke-opacity: 0.7; stroke-width: 0.5"/>
    <path d="M 212.399206 383.606741 
L 213.516887 381.463993 
L 213.737075 381.040943 
" clip-path="url(#pe5661cabd7)" style="fill: none; stroke: #ff0000; stroke-opacity: 0.7; stroke-width: 0.5"/>
    <path d="M 256.823147 299.244224 
L 267.19002 274.239853 
" clip-path="url(#pe5661cabd7)" style="fill: none; stroke: #ff0000; stroke-opacity: 0.7; stroke-width: 0.5"/>
    <path d="M 200.050638 408.124605 
L 196.252069 415.585092 
" clip-path="url(#pe5661cabd7)" style="fill: none; stroke: #ff0000; stroke-opacity: 0.7; stroke-width: 0.5"/>
    <path d="M 210.758739 386.750003 
L 208.925125 390.413616 
L 207.665803 392.926533 
L 203.488665 401.271195 
" clip-path="url(#pe5661cabd7)" style="fill: none; stroke: #ff0000; stroke-opacity: 0.7; stroke-width: 0.5"/>
    <path d="M 343.398325 230.124198 
L 344.620305 227.841843 
L 344.822466 227.465329 
L 346.359921 224.592819 
L 347.386178 222.674287 
" clip-path="url(#pe5661cabd7)" style="fill: none; stroke: #ff0000; stroke-opacity: 0.7; stroke-width: 0.5"/>
    <path d="M 281.235712 240.660258 
L 282.788618 236.912035 
L 284.542398 232.675189 
" clip-path="url(#pe5661cabd7)" style="fill: none; stroke: #ff0000; stroke-opacity: 0.7; stroke-width: 0.5"/>
    <path d="M 279.487082 244.880182 
L 279.752338 244.239261 
L 280.441231 242.583021 
" clip-path="url(#pe5661cabd7)" style="fill: none; stroke: #ff0000; stroke-opacity: 0.7; stroke-width: 0.5"/>
    <path d="M 267.19002 274.239853 
L 267.419222 273.725847 
L 268.10554 272.185945 
" clip-path="url(#pe5661cabd7)" style="fill: none; stroke: #ff0000; stroke-opacity: 0.7; stroke-width: 0.5"/>
    <path d="M 270.170931 267.284911 
L 270.326737 266.912627 
L 271.211353 264.784685 
L 273.368167 259.595977 
L 276.157218 252.890634 
L 279.487082 244.880182 
" clip-path="url(#pe5661cabd7)" style="fill: none; stroke: #ff0000; stroke-opacity: 0.7; stroke-width: 0.5"/>
    <path d="M 254.55817 303.726439 
L 254.90326 303.31608 
L 255.606317 301.905208 
L 256.221814 300.669902 
" clip-path="url(#pe5661cabd7)" style="fill: none; stroke: #ff0000; stroke-opacity: 0.7; stroke-width: 0.5"/>
    <path d="M 275.692376 358.750438 
L 276.717346 356.838252 
L 276.949123 356.404626 
L 277.415253 355.535258 
L 278.405456 353.631533 
" clip-path="url(#pe5661cabd7)" style="fill: none; stroke: #ff0000; stroke-opacity: 0.7; stroke-width: 0.5"/>
   </g>
   <g id="patch_3">
    <path d="M 90 584.198807 
L 90 143.001193 
" style="fill: none; stroke: #000000; stroke-width: 0.8; stroke-linejoin: miter; stroke-linecap: square"/>
   </g>
   <g id="patch_4">
    <path d="M 648 584.198807 
L 648 143.001193 
" style="fill: none; stroke: #000000; stroke-width: 0.8; stroke-linejoin: miter; stroke-linecap: square"/>
   </g>
   <g id="patch_5">
    <path d="M 90 584.198807 
L 648 584.198807 
" style="fill: none; stroke: #000000; stroke-width: 0.8; stroke-linejoin: miter; stroke-linecap: square"/>
   </g>
   <g id="patch_6">
    <path d="M 90 143.001193 
L 648 143.001193 
" style="fill: none; stroke: #000000; stroke-width: 0.8; stroke-linejoin: miter; stroke-linecap: square"/>
   </g>
   <g id="text_18">
    <!-- Kreuzberg_Ost -->
    <g transform="translate(312.156666 365.255347) scale(0.12 -0.12)">
     <defs>
      <path id="DejaVuSans-4b" d="M 628 4666 
L 1259 4666 
L 1259 2694 
L 3353 4666 
L 4166 4666 
L 1850 2491 
L 4331 0 
L 3500 0 
L 1259 2247 
L 1259 0 
L 628 0 
L 628 4666 
z
" transform="scale(0.015625)"/>
      <path id="DejaVuSans-72" d="M 2631 2963 
Q 2534 3019 2420 3045 
Q 2306 3072 2169 3072 
Q 1681 3072 1420 2755 
Q 1159 2438 1159 1844 
L 1159 0 
L 581 0 
L 581 3500 
L 1159 3500 
L 1159 2956 
Q 1341 3275 1631 3429 
Q 1922 3584 2338 3584 
Q 2397 3584 2469 3576 
Q 2541 3569 2628 3553 
L 2631 2963 
z
" transform="scale(0.015625)"/>
      <path id="DejaVuSans-65" d="M 3597 1894 
L 3597 1613 
L 953 1613 
Q 991 1019 1311 708 
Q 1631 397 2203 397 
Q 2534 397 2845 478 
Q 3156 559 3463 722 
L 3463 178 
Q 3153 47 2828 -22 
Q 2503 -91 2169 -91 
Q 1331 -91 842 396 
Q 353 884 353 1716 
Q 353 2575 817 3079 
Q 1281 3584 2069 3584 
Q 2775 3584 3186 3129 
Q 3597 2675 3597 1894 
z
M 3022 2063 
Q 3016 2534 2758 2815 
Q 2500 3097 2075 3097 
Q 1594 3097 1305 2825 
Q 1016 2553 972 2059 
L 3022 2063 
z
" transform="scale(0.015625)"/>
      <path id="DejaVuSans-75" d="M 544 1381 
L 544 3500 
L 1119 3500 
L 1119 1403 
Q 1119 906 1312 657 
Q 1506 409 1894 409 
Q 2359 409 2629 706 
Q 2900 1003 2900 1516 
L 2900 3500 
L 3475 3500 
L 3475 0 
L 2900 0 
L 2900 538 
Q 2691 219 2414 64 
Q 2138 -91 1772 -91 
Q 1169 -91 856 284 
Q 544 659 544 1381 
z
M 1991 3584 
L 1991 3584 
z
" transform="scale(0.015625)"/>
      <path id="DejaVuSans-7a" d="M 353 3500 
L 3084 3500 
L 3084 2975 
L 922 459 
L 3084 459 
L 3084 0 
L 275 0 
L 275 525 
L 2438 3041 
L 353 3041 
L 353 3500 
z
" transform="scale(0.015625)"/>
      <path id="DejaVuSans-62" d="M 3116 1747 
Q 3116 2381 2855 2742 
Q 2594 3103 2138 3103 
Q 1681 3103 1420 2742 
Q 1159 2381 1159 1747 
Q 1159 1113 1420 752 
Q 1681 391 2138 391 
Q 2594 391 2855 752 
Q 3116 1113 3116 1747 
z
M 1159 2969 
Q 1341 3281 1617 3432 
Q 1894 3584 2278 3584 
Q 2916 3584 3314 3078 
Q 3713 2572 3713 1747 
Q 3713 922 3314 415 
Q 2916 -91 2278 -91 
Q 1894 -91 1617 61 
Q 1341 213 1159 525 
L 1159 0 
L 581 0 
L 581 4863 
L 1159 4863 
L 1159 2969 
z
" transform="scale(0.015625)"/>
      <path id="DejaVuSans-67" d="M 2906 1791 
Q 2906 2416 2648 2759 
Q 2391 3103 1925 3103 
Q 1463 3103 1205 2759 
Q 947 2416 947 1791 
Q 947 1169 1205 825 
Q 1463 481 1925 481 
Q 2391 481 2648 825 
Q 2906 1169 2906 1791 
z
M 3481 434 
Q 3481 -459 3084 -895 
Q 2688 -1331 1869 -1331 
Q 1566 -1331 1297 -1286 
Q 1028 -1241 775 -1147 
L 775 -588 
Q 1028 -725 1275 -790 
Q 1522 -856 1778 -856 
Q 2344 -856 2625 -561 
Q 2906 -266 2906 331 
L 2906 616 
Q 2728 306 2450 153 
Q 2172 0 1784 0 
Q 1141 0 747 490 
Q 353 981 353 1791 
Q 353 2603 747 3093 
Q 1141 3584 1784 3584 
Q 2172 3584 2450 3431 
Q 2728 3278 2906 2969 
L 2906 3500 
L 3481 3500 
L 3481 434 
z
" transform="scale(0.015625)"/>
      <path id="DejaVuSans-5f" d="M 3263 -1063 
L 3263 -1509 
L -63 -1509 
L -63 -1063 
L 3263 -1063 
z
" transform="scale(0.015625)"/>
      <path id="DejaVuSans-4f" d="M 2522 4238 
Q 1834 4238 1429 3725 
Q 1025 3213 1025 2328 
Q 1025 1447 1429 934 
Q 1834 422 2522 422 
Q 3209 422 3611 934 
Q 4013 1447 4013 2328 
Q 4013 3213 3611 3725 
Q 3209 4238 2522 4238 
z
M 2522 4750 
Q 3503 4750 4090 4092 
Q 4678 3434 4678 2328 
Q 4678 1225 4090 567 
Q 3503 -91 2522 -91 
Q 1538 -91 948 565 
Q 359 1222 359 2328 
Q 359 3434 948 4092 
Q 1538 4750 2522 4750 
z
" transform="scale(0.015625)"/>
      <path id="DejaVuSans-73" d="M 2834 3397 
L 2834 2853 
Q 2591 2978 2328 3040 
Q 2066 3103 1784 3103 
Q 1356 3103 1142 2972 
Q 928 2841 928 2578 
Q 928 2378 1081 2264 
Q 1234 2150 1697 2047 
L 1894 2003 
Q 2506 1872 2764 1633 
Q 3022 1394 3022 966 
Q 3022 478 2636 193 
Q 2250 -91 1575 -91 
Q 1294 -91 989 -36 
Q 684 19 347 128 
L 347 722 
Q 666 556 975 473 
Q 1284 391 1588 391 
Q 1994 391 2212 530 
Q 2431 669 2431 922 
Q 2431 1156 2273 1281 
Q 2116 1406 1581 1522 
L 1381 1569 
Q 847 1681 609 1914 
Q 372 2147 372 2553 
Q 372 3047 722 3315 
Q 1072 3584 1716 3584 
Q 2034 3584 2315 3537 
Q 2597 3491 2834 3397 
z
" transform="scale(0.015625)"/>
      <path id="DejaVuSans-74" d="M 1172 4494 
L 1172 3500 
L 2356 3500 
L 2356 3053 
L 1172 3053 
L 1172 1153 
Q 1172 725 1289 603 
Q 1406 481 1766 481 
L 2356 481 
L 2356 0 
L 1766 0 
Q 1100 0 847 248 
Q 594 497 594 1153 
L 594 3053 
L 172 3053 
L 172 3500 
L 594 3500 
L 594 4494 
L 1172 4494 
z
" transform="scale(0.015625)"/>
     </defs>
     <use xlink:href="#DejaVuSans-4b"/>
     <use xlink:href="#DejaVuSans-72" x="65.576172"/>
     <use xlink:href="#DejaVuSans-65" x="104.439453"/>
     <use xlink:href="#DejaVuSans-75" x="165.962891"/>
     <use xlink:href="#DejaVuSans-7a" x="229.341797"/>
     <use xlink:href="#DejaVuSans-62" x="281.832031"/>
     <use xlink:href="#DejaVuSans-65" x="345.308594"/>
     <use xlink:href="#DejaVuSans-72" x="406.832031"/>
     <use xlink:href="#DejaVuSans-67" x="446.195312"/>
     <use xlink:href="#DejaVuSans-5f" x="509.671875"/>
     <use xlink:href="#DejaVuSans-4f" x="559.671875"/>
     <use xlink:href="#DejaVuSans-73" x="638.382812"/>
     <use xlink:href="#DejaVuSans-74" x="690.482422"/>
    </g>
   </g>
  </g>
 </g>
 <defs>
  <clipPath id="pe5661cabd7">
   <rect x="90" y="143.001193" width="558" height="441.197614"/>
  </clipPath>
 </defs>
</svg>
