<?xml version="1.0" encoding="utf-8" standalone="no"?>
<!DOCTYPE svg PUBLIC "-//W3C//DTD SVG 1.1//EN"
  "http://www.w3.org/Graphics/SVG/1.1/DTD/svg11.dtd">
<svg xmlns:xlink="http://www.w3.org/1999/xlink" width="720pt" height="720pt" viewBox="0 0 720 720" xmlns="http://www.w3.org/2000/svg" version="1.1">
 <metadata>
  <rdf:RDF xmlns:dc="http://purl.org/dc/elements/1.1/" xmlns:cc="http://creativecommons.org/ns#" xmlns:rdf="http://www.w3.org/1999/02/22-rdf-syntax-ns#">
   <cc:Work>
    <dc:type rdf:resource="http://purl.org/dc/dcmitype/StillImage"/>
    <dc:date>2024-10-15T13:04:01.413250</dc:date>
    <dc:format>image/svg+xml</dc:format>
    <dc:creator>
     <cc:Agent>
      <dc:title>Matplotlib v3.9.2, https://matplotlib.org/</dc:title>
     </cc:Agent>
    </dc:creator>
   </cc:Work>
  </rdf:RDF>
 </metadata>
 <defs>
  <style type="text/css">*{stroke-linejoin: round; stroke-linecap: butt}</style>
 </defs>
 <g id="figure_1">
  <g id="patch_1">
   <path d="M 0 720 
L 720 720 
L 720 0 
L 0 0 
z
" style="fill: #ffffff"/>
  </g>
  <g id="axes_1">
   <g id="patch_2">
    <path d="M 93.962598 640.8 
L 644.037402 640.8 
L 644.037402 86.4 
L 93.962598 86.4 
z
" style="fill: #ffffff"/>
   </g>
   <g id="PatchCollection_1">
    <path d="M 536.578355 390.159193 
L 536.584096 390.157095 
L 537.57245 389.72684 
L 537.008014 388.399276 
L 537.351873 388.140889 
L 541.542875 384.985876 
L 542.94564 383.930671 
L 544.32424 382.89405 
L 545.700407 382.247995 
L 546.410287 381.915214 
L 547.770967 381.276047 
L 552.164133 379.21993 
L 552.804216 378.899272 
L 554.296731 378.196411 
L 563.575031 373.825826 
L 563.750662 373.739487 
L 563.923341 373.647271 
L 564.092782 373.549379 
L 564.258888 373.445812 
L 564.421369 373.336676 
L 564.580132 373.222166 
L 564.734886 373.10229 
L 564.88554 372.977342 
L 565.031998 372.847324 
L 565.173974 372.712535 
L 565.311278 372.573174 
L 565.443814 372.429243 
L 565.571391 372.280943 
L 565.694012 372.128369 
L 565.811489 371.971819 
L 565.923434 371.811301 
L 566.02985 371.647011 
L 566.130844 371.479335 
L 566.226126 371.308378 
L 566.315602 371.134239 
L 568.907976 365.885276 
L 569.906982 364.10206 
L 570.417711 362.919633 
L 570.915231 361.767718 
L 571.474181 360.473488 
L 572.026668 359.194316 
L 572.787555 357.432589 
L 573.288137 356.273688 
L 573.79011 355.111734 
L 574.286716 353.961695 
L 574.787769 352.80181 
L 575.291869 351.634742 
L 575.794678 350.470628 
L 576.294991 349.312125 
L 576.796051 348.152145 
L 577.566491 346.368575 
L 577.95402 345.47128 
L 578.37592 344.494657 
L 578.566316 344.053932 
L 578.764471 343.595196 
L 578.952924 343.158803 
L 579.145815 342.712272 
L 579.330762 342.284145 
L 579.528821 341.825412 
L 579.718391 341.386752 
L 579.909432 340.944356 
L 580.105463 340.490445 
L 580.296605 340.048144 
L 580.484506 339.613031 
L 580.681928 339.156067 
L 580.871402 338.71741 
L 581.061986 338.276194 
L 581.252385 337.835373 
L 581.448701 337.381066 
L 581.735362 336.717324 
L 582.026182 336.044035 
L 582.21871 335.598391 
L 582.410681 335.153928 
L 582.602467 334.709859 
L 582.793518 334.267659 
L 582.987432 333.818767 
L 583.172573 333.390345 
L 583.367501 332.938994 
L 583.549036 332.518742 
L 583.89021 331.728828 
L 584.082909 331.282011 
L 584.273731 330.83816 
L 584.848961 329.508396 
L 585.039762 329.063571 
L 585.423256 328.175828 
L 585.614997 327.733808 
L 585.805724 327.28996 
L 586.38011 325.961192 
L 586.761633 325.076321 
L 586.953356 324.633425 
L 587.716527 322.864753 
L 588.296642 321.522311 
L 588.487394 321.079341 
L 588.870945 320.193548 
L 589.061775 319.749699 
L 589.63701 318.418967 
L 589.827842 317.975118 
L 590.019547 317.531152 
L 590.211373 317.088255 
L 590.450293 316.535141 
L 590.739435 315.863943 
L 591.014795 315.227217 
L 591.32042 314.520511 
L 591.610516 313.848414 
L 591.841743 313.311848 
L 592.033571 312.868855 
L 592.224332 312.425983 
L 592.415116 311.984085 
L 592.605995 311.542088 
L 592.797728 311.099195 
L 592.988491 310.656323 
L 593.086802 310.428974 
L 593.17839 310.218247 
L 593.667896 309.085543 
L 594.616173 306.892461 
L 594.731742 306.62418 
L 595.602693 307.001011 
L 595.789547 307.070653 
L 595.979949 307.129494 
L 596.173506 307.177349 
L 596.369341 307.21414 
L 596.567059 307.239583 
L 596.765886 307.253794 
L 596.965135 307.256593 
L 597.164226 307.247994 
L 597.362576 307.228106 
L 597.559406 307.196851 
L 597.754138 307.154435 
L 597.94619 307.100971 
L 598.134888 307.036667 
L 598.288959 306.975778 
L 598.43995 306.90765 
L 598.587572 306.832387 
L 598.731444 306.750289 
L 598.871273 306.661363 
L 599.006778 306.566006 
L 600.702632 305.309236 
L 602.727943 303.793193 
L 604.090438 302.772414 
L 605.648672 301.606681 
L 606.856143 300.703342 
L 616.118648 293.770096 
L 615.931547 293.226913 
L 615.770136 292.758387 
L 617.231572 291.669043 
L 618.503037 290.721603 
L 619.034001 290.30965 
L 618.735737 289.478851 
L 618.631781 289.200624 
L 618.353052 288.430197 
L 618.109116 287.57293 
L 617.606388 285.811662 
L 616.96587 283.564767 
L 616.593985 282.261802 
L 616.46909 281.82198 
L 616.36605 281.545681 
L 615.632271 279.566072 
L 614.875862 277.527137 
L 614.310773 276.002735 
L 613.803624 274.634026 
L 613.267978 273.191407 
L 612.939282 272.305263 
L 612.682504 271.681794 
L 612.026779 270.087618 
L 610.643843 266.730045 
L 610.388053 266.10753 
L 610.000778 265.141726 
L 609.385104 263.608728 
L 606.904788 257.42549 
L 604.80392 251.96158 
L 603.163965 247.409868 
L 602.345408 244.580141 
L 600.847211 240.540284 
L 600.81608 240.828678 
L 598.485043 234.618619 
L 597.03096 230.701253 
L 595.860334 227.550494 
L 594.990853 225.182703 
L 593.297142 220.579518 
L 593.196182 220.336313 
L 593.079405 220.021153 
L 592.196235 217.633991 
L 592.091264 217.35092 
L 591.988077 217.043444 
L 590.289593 211.946472 
L 589.614466 209.058846 
L 589.590825 208.954714 
L 589.049645 207.113751 
L 589.102014 207.077481 
L 587.077123 201.224834 
L 585.175384 195.587999 
L 584.522912 193.608057 
L 583.72605 191.184553 
L 583.229938 189.709692 
L 582.934246 188.817558 
L 582.714488 188.239753 
L 582.165985 186.796194 
L 581.946216 186.217999 
L 581.746714 185.693433 
L 581.520328 185.097846 
L 580.887523 183.430589 
L 580.231138 181.701106 
L 579.587424 180.00759 
L 579.590991 179.928668 
L 578.85701 178.238368 
L 578.099402 176.475124 
L 577.308893 174.490915 
L 577.047083 173.855787 
L 576.410189 172.168163 
L 575.133529 168.786941 
L 574.76076 167.820057 
L 574.633202 167.489359 
L 572.823189 162.576928 
L 572.611183 161.999049 
L 572.080113 160.559394 
L 571.285192 158.425214 
L 569.504563 153.598378 
L 569.051896 152.311317 
L 568.772078 151.525741 
L 568.207356 149.940573 
L 567.053358 146.643714 
L 566.355994 144.641622 
L 565.812904 143.097774 
L 565.402381 141.929436 
L 564.965626 141.83361 
L 562.983621 136.445542 
L 563.137677 136.308627 
L 562.615413 134.882524 
L 560.153044 128.135438 
L 559.876235 127.376696 
L 559.793731 127.147113 
L 559.752516 127.007145 
L 558.809553 123.804803 
L 558.736667 123.557654 
L 558.431576 122.520442 
L 558.154494 122.777587 
L 557.117312 123.752704 
L 556.418932 124.40895 
L 555.691132 125.092958 
L 554.269699 126.397635 
L 550.139204 130.188975 
L 547.333411 132.242222 
L 547.283762 132.278532 
L 543.558481 134.626168 
L 543.322302 134.739326 
L 539.263512 136.683806 
L 537.352597 137.459572 
L 535.179851 138.211678 
L 533.3702 138.752333 
L 533.394954 138.351421 
L 529.690409 139.232569 
L 525.793294 139.75628 
L 522.471178 140.013241 
L 521.137547 140.043147 
L 519.901156 140.059925 
L 518.696454 140.14469 
L 517.145622 140.125178 
L 515.550313 140.035542 
L 513.7852 139.722712 
L 510.875618 139.012647 
L 510.515182 138.92088 
L 508.199584 138.331283 
L 506.1511 137.719618 
L 504.42221 137.187012 
L 504.405058 137.172591 
L 503.699118 136.769157 
L 503.300087 136.545444 
L 503.279025 136.970735 
L 502.170925 136.770804 
L 501.761493 136.696933 
L 501.300739 136.577154 
L 501.213224 136.551767 
L 501.027916 136.49811 
L 499.22015 135.974146 
L 497.478263 135.469345 
L 490.742525 133.356611 
L 488.178832 132.443867 
L 486.714118 132.022137 
L 480.330646 130.184118 
L 478.862296 129.761325 
L 478.159349 129.55901 
L 476.626499 129.045701 
L 476.624226 129.044903 
L 476.121339 128.868392 
L 475.886166 129.195768 
L 475.764855 129.364609 
L 474.281521 128.856412 
L 473.375287 128.545986 
L 472.852093 128.366769 
L 472.377181 128.057498 
L 472.849154 127.465661 
L 472.301143 127.272964 
L 472.272568 127.262858 
L 471.606243 127.027204 
L 470.921393 126.889586 
L 468.852215 126.167942 
L 468.065589 125.844666 
L 465.564649 124.834514 
L 464.990219 124.643503 
L 461.786542 123.577938 
L 460.979311 123.383398 
L 459.721964 123.080377 
L 459.070507 122.761522 
L 458.443092 122.384033 
L 457.022645 121.807982 
L 456.606926 121.668405 
L 456.192202 121.52559 
L 455.778763 121.379432 
L 455.469941 121.27054 
L 455.161387 121.160667 
L 454.8532 121.049812 
L 454.246826 120.827386 
L 453.642655 120.599258 
L 453.040588 120.365332 
L 453.032069 120.362798 
L 453.023453 120.360267 
L 453.014933 120.357636 
L 452.032605 120.063531 
L 451.717206 119.969119 
L 450.889352 119.915308 
L 450.516427 119.891019 
L 450.256654 119.830611 
L 446.575247 118.808852 
L 444.06544 118.146252 
L 443.371945 117.963164 
L 442.027121 117.60811 
L 441.113216 117.43184 
L 440.790888 117.3833 
L 440.155304 117.287476 
L 439.611453 117.205528 
L 435.177576 116.774859 
L 434.411002 116.743156 
L 433.561977 116.707988 
L 429.193134 116.527317 
L 428.083124 116.387545 
L 427.419811 116.397529 
L 423.470984 115.983107 
L 421.263119 115.631585 
L 412.96275 114.583511 
L 412.704346 114.468614 
L 412.481311 114.369372 
L 412.421286 114.444821 
L 411.606747 114.170268 
L 410.798755 113.897923 
L 410.395432 113.905454 
L 410.022164 113.993767 
L 409.657517 114.106051 
L 408.916171 114.190853 
L 408.164955 114.22696 
L 406.639383 114.117078 
L 402.61144 113.901317 
L 402.554435 113.972701 
L 395.921591 113.273116 
L 393.267762 113.000711 
L 392.068628 112.610082 
L 392.044837 112.738688 
L 392.00625 112.714239 
L 391.773439 112.676533 
L 390.355909 112.596469 
L 390.09432 112.576093 
L 387.944242 112.337318 
L 381.503323 111.785635 
L 380.264599 111.704008 
L 379.062867 111.636733 
L 377.3996 111.6 
L 375.605882 111.680114 
L 375.342413 112.123485 
L 375.23561 112.042237 
L 375.098932 112.268861 
L 373.978158 111.611581 
L 371.845532 111.717666 
L 370.820955 111.750207 
L 370.491706 111.760641 
L 366.501051 112.034235 
L 366.424911 112.20781 
L 364.983683 112.306812 
L 364.911734 112.311789 
L 364.889213 112.279759 
L 363.45366 112.519653 
L 359.955033 113.001105 
L 358.307097 113.249825 
L 355.377454 113.851761 
L 355.275515 113.758028 
L 354.943358 113.937626 
L 354.786522 113.972734 
L 354.629897 114.008519 
L 354.473382 114.044886 
L 353.966107 114.162559 
L 353.459687 114.283527 
L 352.954024 114.407792 
L 352.79616 114.444678 
L 352.638508 114.482339 
L 352.481069 114.520774 
L 352.001227 114.634502 
L 351.52225 114.75201 
L 351.044335 114.873393 
L 350.567285 114.998557 
L 350.067588 115.141106 
L 349.568623 115.285879 
L 349.070197 115.432883 
L 348.787952 115.520501 
L 348.505926 115.609186 
L 348.224312 115.698836 
L 348.161265 115.718715 
L 348.187696 115.827449 
L 347.822838 115.955183 
L 346.918503 116.271611 
L 347.014261 116.565368 
L 346.524386 116.159502 
L 346.289251 116.417553 
L 345.81957 116.647024 
L 345.760136 116.675981 
L 345.639256 116.73511 
L 344.992241 117.051137 
L 343.253002 117.725471 
L 341.846019 118.270977 
L 339.716129 119.189536 
L 336.885412 120.54838 
L 333.566992 122.445884 
L 332.781476 122.870001 
L 330.833695 124.080061 
L 328.423635 125.611541 
L 329.004099 126.32247 
L 327.280835 127.374428 
L 327.181412 127.436085 
L 326.454489 127.91226 
L 325.459732 128.588483 
L 324.919022 128.956053 
L 324.459168 129.268658 
L 323.91912 129.675421 
L 323.424627 130.047873 
L 322.918599 130.429014 
L 322.406966 130.814379 
L 322.110154 131.016465 
L 321.831154 131.206424 
L 321.688139 131.303822 
L 321.200346 131.670756 
L 320.755984 132.00502 
L 320.243705 132.407285 
L 319.831216 132.731193 
L 319.320336 133.168997 
L 318.807144 133.608783 
L 317.874842 134.407736 
L 317.444512 134.781629 
L 316.450411 135.645248 
L 316.010223 136.047479 
L 315.46403 136.546575 
L 314.656958 137.318428 
L 314.168647 137.796864 
L 313.70146 138.25467 
L 313.282966 138.664666 
L 312.459696 139.486846 
L 311.656469 140.328309 
L 310.806238 141.231934 
L 309.875866 142.291203 
L 308.949527 143.345886 
L 308.126661 144.282764 
L 307.797099 144.65799 
L 307.44266 145.125511 
L 306.714004 146.086645 
L 305.249402 148.018527 
L 304.553011 148.937086 
L 304.032459 149.633575 
L 303.52264 150.344415 
L 302.849974 151.351379 
L 302.570888 151.778186 
L 302.187282 152.364837 
L 301.53447 153.384888 
L 300.943453 154.328636 
L 300.649295 154.806925 
L 300.335537 155.319036 
L 300.009461 155.860345 
L 299.737018 156.314947 
L 299.426855 156.840474 
L 299.124708 157.356148 
L 298.832047 157.863048 
L 298.53284 158.38525 
L 298.242209 158.899772 
L 298.090473 159.17074 
L 297.942516 159.434958 
L 297.670126 159.928101 
L 297.384317 160.450466 
L 297.101313 160.974075 
L 296.974985 161.210407 
L 296.822027 161.496557 
L 296.54386 162.019157 
L 296.252941 162.539487 
L 295.961766 163.025456 
L 295.767167 163.331124 
L 295.616896 163.527547 
L 295.245542 164.012954 
L 295.082319 164.226308 
L 294.95289 164.464496 
L 294.613394 165.089276 
L 294.395843 165.489639 
L 294.110164 166.015379 
L 293.800783 166.584742 
L 293.219582 167.654344 
L 292.675023 168.65652 
L 292.103609 169.708122 
L 291.498258 170.822185 
L 290.968133 171.797812 
L 290.425412 172.796624 
L 289.888077 173.785527 
L 289.263759 174.934521 
L 288.706735 175.959671 
L 288.134483 177.012853 
L 287.569797 178.052114 
L 287.037624 179.031542 
L 286.529273 179.967132 
L 285.909859 181.107133 
L 285.342549 182.151244 
L 284.812897 183.126051 
L 284.477296 183.743718 
L 284.170091 184.309123 
L 283.878641 184.845532 
L 283.682632 185.206284 
L 283.05624 186.359156 
L 282.790479 186.848291 
L 282.493088 187.39564 
L 282.229331 187.881088 
L 281.996774 188.309113 
L 281.672913 188.905186 
L 281.392583 189.421141 
L 281.09789 189.968637 
L 280.856406 190.41728 
L 280.497483 191.084109 
L 280.165052 191.701721 
L 279.982989 192.039971 
L 279.727335 192.514945 
L 279.404019 193.115626 
L 279.136656 193.612355 
L 278.833296 194.175964 
L 278.552785 194.697124 
L 278.252925 195.254233 
L 277.975229 195.770165 
L 277.678809 196.320887 
L 277.373486 196.888151 
L 277.114094 197.370079 
L 276.807977 197.938822 
L 276.557528 198.404137 
L 276.241913 198.990529 
L 275.948497 199.566318 
L 275.760357 200.019751 
L 275.476939 200.678079 
L 275.199346 201.331489 
L 274.903246 202.078639 
L 274.732375 202.507441 
L 274.668042 202.643041 
L 274.598001 202.775752 
L 274.319702 203.293187 
L 274.251565 203.419872 
L 273.918766 204.038638 
L 273.798909 204.232739 
L 273.690268 204.399276 
L 273.544977 204.611624 
L 273.1267 205.190716 
L 272.99525 205.413155 
L 272.766943 205.777764 
L 272.442221 206.29635 
L 272.072954 206.886076 
L 272.001904 206.992011 
L 271.683089 207.470558 
L 271.39433 207.90399 
L 271.024039 208.459803 
L 270.703349 208.941168 
L 270.373909 209.435666 
L 270.039461 209.937682 
L 269.731656 210.39971 
L 269.388671 210.914543 
L 269.110706 211.33178 
L 268.744441 211.875057 
L 268.40585 212.363474 
L 268.000696 212.947908 
L 267.689734 213.371083 
L 267.02001 214.260878 
L 266.571124 214.8416 
L 266.140437 215.413158 
L 265.760434 215.913704 
L 265.065974 216.813755 
L 264.322729 217.75785 
L 263.882723 218.309643 
L 263.534928 218.737831 
L 263.191066 219.161179 
L 262.743252 219.702348 
L 262.366762 220.154539 
L 261.987057 220.604931 
L 261.567031 221.098492 
L 261.15911 221.573624 
L 260.734166 222.061355 
L 260.347907 222.502945 
L 260.264862 222.594543 
L 259.87682 223.034896 
L 259.46431 223.503018 
L 259.278609 223.713754 
L 259.058819 223.966814 
L 258.691161 224.382219 
L 258.233083 224.899788 
L 257.444146 225.791189 
L 256.643986 226.695274 
L 256.252462 227.137651 
L 255.852133 227.589979 
L 255.443552 228.05163 
L 255.060362 228.484594 
L 254.73235 228.943146 
L 254.60421 229.122281 
L 254.719704 229.209537 
L 254.583679 229.493875 
L 254.439982 229.774397 
L 254.288508 230.050813 
L 253.962992 230.590527 
L 253.60816 231.111338 
L 253.399044 231.332642 
L 252.916836 231.984925 
L 252.713868 232.136416 
L 252.583114 232.27932 
L 252.510671 232.351448 
L 252.445893 232.415943 
L 252.302494 232.546084 
L 252.153196 232.669247 
L 251.998292 232.785428 
L 251.658758 233.083254 
L 251.198198 233.541979 
L 250.766632 234.044879 
L 250.702906 234.130863 
L 250.303887 234.579699 
L 249.914246 235.017987 
L 249.488134 235.497301 
L 249.110427 235.922167 
L 248.704656 236.378603 
L 248.629708 236.458612 
L 248.198836 236.878289 
L 248.124707 236.80956 
L 247.336333 237.729074 
L 246.546036 238.650836 
L 245.806614 239.513264 
L 244.975563 240.48257 
L 244.21607 241.368418 
L 243.457932 242.252689 
L 242.667031 243.175179 
L 241.899202 244.070763 
L 241.16183 244.930827 
L 240.310005 245.924393 
L 239.571607 246.785662 
L 238.77107 247.717057 
L 237.995544 248.618032 
L 237.18637 249.558087 
L 236.465613 250.395429 
L 235.664789 251.326565 
L 234.860513 252.262487 
L 234.058993 253.195208 
L 233.256437 254.12914 
L 232.532956 254.973113 
L 231.779319 255.854889 
L 230.968511 256.803561 
L 230.244777 257.650359 
L 229.860813 258.099614 
L 229.509368 258.510821 
L 229.082091 259.010757 
L 228.670308 259.492565 
L 228.268128 259.963138 
L 227.933456 260.354723 
L 227.526105 260.831338 
L 227.228016 261.180112 
L 226.762328 261.724985 
L 226.42103 262.124317 
L 226.039143 262.571142 
L 225.687154 262.982985 
L 225.280173 263.459173 
L 224.867302 263.942254 
L 224.580455 264.277882 
L 224.138778 264.794669 
L 223.753184 265.245837 
L 223.42793 265.626406 
L 222.972771 266.158973 
L 222.635625 266.553457 
L 222.229399 267.028771 
L 221.814364 267.514394 
L 221.492132 267.917128 
L 221.138895 268.386867 
L 221.09736 268.443801 
L 220.670282 269.056826 
L 220.332229 269.578353 
L 220.096886 270.004878 
L 219.745671 270.611813 
L 219.431199 271.131721 
L 219.090066 271.672461 
L 219.046669 271.733413 
L 219.221154 271.841785 
L 219.751968 272.161682 
L 220.110977 272.365045 
L 220.637277 272.64512 
L 221.059807 272.857035 
L 221.585446 273.104994 
L 220.761402 274.252601 
L 219.938643 275.398424 
L 217.482283 274.018204 
L 215.96814 276.070152 
L 215.419888 276.98155 
L 215.111401 277.406187 
L 214.62261 278.064375 
L 213.949105 278.971294 
L 213.596786 279.471416 
L 211.920522 282.511821 
L 210.745822 284.682304 
L 210.317386 285.598571 
L 209.123815 288.151201 
L 209.005942 288.403356 
L 209.117905 288.743681 
L 208.619993 289.828691 
L 204.178509 299.507454 
L 204.022658 299.552529 
L 203.868731 299.906092 
L 202.896427 302.017051 
L 200.777873 306.622839 
L 198.680691 311.239982 
L 196.532724 315.968806 
L 194.829809 319.717882 
L 192.840206 324.098201 
L 192.073224 325.786815 
L 192.023485 325.896355 
L 191.730872 326.540497 
L 191.777413 326.697674 
L 191.570251 327.192259 
L 191.279745 327.810039 
L 191.100546 328.207486 
L 190.926304 328.330378 
L 190.864541 328.466124 
L 190.324292 329.654002 
L 188.377569 333.934427 
L 187.853884 335.085877 
L 186.639677 337.75563 
L 183.640043 344.351572 
L 181.255627 349.594573 
L 179.799225 352.797111 
L 178.328393 356.031567 
L 177.375723 358.126513 
L 176.986988 358.981385 
L 175.69784 361.076913 
L 172.989924 367.023624 
L 170.899538 371.614323 
L 169.979229 373.635445 
L 169.538302 374.603785 
L 167.620922 378.814686 
L 166.928718 380.334905 
L 166.392225 381.51316 
L 165.213539 384.101833 
L 164.701806 386.1442 
L 164.523178 386.857388 
L 164.262358 387.898733 
L 164.159694 388.21311 
L 164.048213 388.524478 
L 163.927909 388.832643 
L 163.798966 389.137113 
L 163.661383 389.437889 
L 163.515442 389.734573 
L 163.420591 389.925971 
L 163.184291 390.431489 
L 162.914841 390.978547 
L 162.818815 391.173505 
L 162.429172 391.925061 
L 162.174468 392.346011 
L 162.107936 392.455969 
L 161.965221 392.686801 
L 161.801996 392.950806 
L 161.672071 393.157236 
L 161.450374 393.508299 
L 161.2068 393.815178 
L 160.966444 394.207405 
L 160.362479 395.180777 
L 159.736188 396.161377 
L 159.044748 397.212406 
L 158.400985 398.162245 
L 157.665633 399.217011 
L 157.037451 400.091381 
L 156.398593 400.958012 
L 155.749346 401.816703 
L 155.089514 402.66736 
L 154.12134 403.87544 
L 153.418203 404.72795 
L 152.348352 405.98722 
L 151.637979 406.795899 
L 150.917779 407.595748 
L 149.80129 408.795649 
L 149.448478 409.168746 
L 148.699564 409.941597 
L 148.101227 410.545613 
L 147.497121 411.143917 
L 146.887238 411.736219 
L 145.650636 412.903095 
L 145.216016 413.301416 
L 145.023912 413.477475 
L 144.570598 413.884944 
L 144.187933 414.223727 
L 143.879219 414.493371 
L 143.519249 414.799876 
L 143.06508 415.180112 
L 142.525959 415.620889 
L 142.078709 415.977868 
L 141.53152 416.404204 
L 140.903492 416.87984 
L 140.689692 417.039738 
L 140.598987 417.109026 
L 140.121853 417.469761 
L 139.639576 417.831273 
L 139.150378 418.192202 
L 138.639979 418.561954 
L 138.20906 418.85881 
L 137.742602 419.202907 
L 137.233073 419.555658 
L 136.749066 419.887193 
L 136.251819 420.206062 
L 135.767813 420.537598 
L 135.292126 420.85596 
L 134.782252 421.188107 
L 133.763458 421.815446 
L 133.160388 422.197379 
L 132.125789 422.80309 
L 131.096455 423.403271 
L 130.145657 423.951412 
L 129.005201 424.618569 
L 126.426251 426.119987 
L 125.888301 426.418914 
L 125.622642 426.587409 
L 125.409643 426.816843 
L 123.429353 427.848941 
L 124.386649 429.742094 
L 124.529367 429.934318 
L 124.702081 430.31529 
L 125.249016 431.604423 
L 125.253138 431.614138 
L 125.386475 431.928307 
L 125.495424 432.184871 
L 126.624838 434.894391 
L 126.649184 438.329858 
L 125.743762 442.774728 
L 124.194071 446.113191 
L 121.733535 447.741374 
L 119.696179 448.440449 
L 118.965999 448.691024 
L 120.216502 450.553103 
L 120.97323 451.680141 
L 121.087043 452.151969 
L 121.209327 452.347501 
L 122.29217 454.081299 
L 123.374496 455.814138 
L 125.643432 459.446641 
L 126.67676 461.101119 
L 127.708975 462.754067 
L 127.802177 462.903216 
L 128.744815 464.412682 
L 129.683712 465.916195 
L 129.776155 466.053765 
L 130.863455 467.673842 
L 131.952267 469.296517 
L 133.040474 470.918625 
L 135.172752 474.096741 
L 135.565134 474.679432 
L 135.61946 474.762352 
L 136.094869 475.47085 
L 136.101546 475.479942 
L 136.732426 476.339053 
L 136.898765 476.565516 
L 136.993033 476.694078 
L 137.363226 477.250688 
L 137.398899 477.304909 
L 142.721826 485.346006 
L 153.071205 501.02848 
L 153.176602 501.201126 
L 153.238496 501.300438 
L 153.759035 502.02124 
L 153.825894 502.104355 
L 154.623611 503.266636 
L 155.915011 505.148602 
L 156.818368 506.4654 
L 157.146663 506.965221 
L 158.808755 509.365898 
L 159.630928 510.56523 
L 159.796322 510.806243 
L 160.236962 511.448046 
L 160.364125 511.633338 
L 160.558586 511.91645 
L 161.024987 512.596142 
L 161.218551 512.878302 
L 162.831532 515.229277 
L 163.310603 515.927482 
L 164.712577 517.96163 
L 164.728079 517.992938 
L 165.441625 519.031987 
L 165.993951 519.838011 
L 166.543417 520.638159 
L 167.054662 521.382975 
L 168.387932 523.33523 
L 168.615794 523.659173 
L 168.848658 523.997618 
L 169.347016 524.72354 
L 170.886583 526.967703 
L 171.277805 527.583489 
L 172.275392 529.152169 
L 173.357163 530.855701 
L 174.102358 532.028216 
L 174.681305 532.939268 
L 176.309684 535.501602 
L 176.833961 536.327206 
L 177.264321 537.00513 
L 177.706265 537.700617 
L 180.499625 542.095544 
L 180.500413 542.096783 
L 180.903121 542.74359 
L 182.031718 544.536773 
L 184.104392 547.787163 
L 184.324385 548.145409 
L 185.802013 550.452181 
L 186.181028 551.050333 
L 187.571127 553.225359 
L 189.881864 556.854161 
L 190.132161 557.245613 
L 191.109063 558.774374 
L 191.402501 559.220071 
L 193.597524 562.64962 
L 193.599589 562.652845 
L 196.812815 567.620789 
L 200.55312 573.690805 
L 201.057698 574.583558 
L 201.996858 576.150942 
L 204.106215 579.848763 
L 204.805574 581.074638 
L 205.318755 581.974503 
L 206.418541 583.902617 
L 207.329713 585.500393 
L 208.312691 587.223862 
L 208.729224 587.954376 
L 209.296655 588.948188 
L 209.647018 589.486802 
L 210.317762 590.54076 
L 210.387084 590.651307 
L 211.350438 592.150605 
L 211.531111 592.43679 
L 212.311407 593.664579 
L 212.579217 594.075416 
L 213.627344 595.711119 
L 215.034332 597.913214 
L 215.922988 599.293425 
L 216.089245 599.561531 
L 217.121332 601.101915 
L 217.971644 602.371343 
L 220.464262 606.388195 
L 221.846947 608.826043 
L 225.127766 614.583067 
L 225.582682 615.6 
L 231.18007 608.521415 
L 237.128093 601.005884 
L 238.079266 600.209821 
L 239.28378 599.190603 
L 239.745611 598.879827 
L 240.599566 598.306297 
L 241.664615 597.589637 
L 242.77625 596.841582 
L 243.998102 596.020003 
L 253.542656 589.92212 
L 259.344396 585.97556 
L 265.085324 582.096469 
L 267.199295 580.707203 
L 268.104733 579.895799 
L 269.302746 579.131854 
L 271.41302 577.787426 
L 275.653001 575.294131 
L 276.952852 574.529879 
L 282.271493 571.509985 
L 283.61503 570.747559 
L 290.211372 566.504726 
L 296.457541 562.567476 
L 301.878457 559.11486 
L 303.90551 557.823581 
L 309.316983 554.416003 
L 310.570439 553.632358 
L 315.915196 550.289559 
L 319.276416 548.191989 
L 323.864789 545.325674 
L 324.960561 544.700587 
L 325.001337 544.678102 
L 325.93762 544.143651 
L 326.137767 544.029464 
L 326.234634 543.974492 
L 326.689068 543.704808 
L 337.489998 537.277946 
L 345.751518 532.249797 
L 348.886472 530.345285 
L 349.902703 529.727458 
L 357.332225 525.192909 
L 358.051117 524.755551 
L 362.815564 521.827555 
L 364.056484 521.061788 
L 365.135828 520.381039 
L 366.218808 519.706154 
L 367.305426 519.03723 
L 368.395774 518.374069 
L 369.489474 517.71707 
L 375.979817 513.816848 
L 380.596917 511.136077 
L 381.594834 510.521179 
L 381.948496 510.303578 
L 388.063687 506.535663 
L 394.850214 502.300437 
L 400.618616 498.685796 
L 402.965087 497.215473 
L 412.771729 490.822517 
L 420.460945 485.830203 
L 421.874834 484.920271 
L 423.919639 483.604348 
L 424.84281 482.988045 
L 425.796426 482.462165 
L 426.153901 482.265073 
L 427.072012 481.758724 
L 428.745764 480.835528 
L 430.51647 479.855534 
L 432.336687 478.851798 
L 432.093825 478.846855 
L 430.540618 478.815995 
L 429.619713 478.792335 
L 429.702554 478.290649 
L 429.774386 477.855634 
L 429.81312 477.581767 
L 430.167589 475.331242 
L 430.42538 473.697694 
L 430.493673 473.263028 
L 430.556564 471.958491 
L 430.586275 471.374921 
L 430.608039 470.979332 
L 430.655789 470.015754 
L 430.689989 469.330921 
L 430.659676 468.034472 
L 430.63724 467.027385 
L 430.613952 466.021292 
L 430.581192 464.617794 
L 430.606714 463.92322 
L 430.673339 462.097498 
L 430.686548 461.740016 
L 430.403927 460.013055 
L 430.380997 459.872952 
L 429.261458 455.753085 
L 428.337037 452.351375 
L 431.264948 450.433659 
L 434.518326 448.302265 
L 435.646135 447.566283 
L 436.130726 447.248746 
L 436.770529 446.829504 
L 437.850305 446.121919 
L 440.136834 444.623632 
L 443.474611 442.435396 
L 443.572481 442.371751 
L 444.711967 441.630942 
L 445.738691 440.922838 
L 446.374956 440.556513 
L 446.69022 440.645758 
L 447.005848 440.733923 
L 447.321743 440.821011 
L 447.638776 440.906903 
L 447.956077 440.991717 
L 448.273741 441.07545 
L 448.767676 441.205037 
L 449.697503 438.524601 
L 449.819632 438.455041 
L 452.240837 437.07603 
L 452.539288 436.905359 
L 454.309172 435.897212 
L 454.959542 435.547922 
L 456.370995 434.790379 
L 457.782358 434.032938 
L 459.180178 433.282343 
L 461.96805 431.785143 
L 462.007837 431.765519 
L 464.575679 430.387012 
L 465.221302 430.037747 
L 465.872879 429.710859 
L 468.395506 428.445581 
L 468.900074 428.192624 
L 470.335559 427.472774 
L 470.476091 427.400167 
L 471.959573 426.679515 
L 474.292364 425.539657 
L 475.588748 424.916176 
L 478.160151 423.677999 
L 478.817527 423.361814 
L 479.459382 423.033998 
L 480.436598 422.542286 
L 481.219047 422.148689 
L 481.687383 421.913044 
L 481.993561 421.718046 
L 482.736857 421.243776 
L 483.482 420.769464 
L 484.230092 420.29226 
L 484.976284 419.816953 
L 485.045064 419.772889 
L 485.720406 419.323177 
L 487.918077 417.858634 
L 488.192282 417.676358 
L 490.388902 416.220523 
L 490.702899 416.031394 
L 492.159185 415.047809 
L 492.834885 414.67314 
L 493.033524 414.552627 
L 493.665443 414.190685 
L 493.677192 414.183955 
L 494.315961 413.822023 
L 494.513695 413.704455 
L 499.321723 410.989013 
L 499.946744 410.586276 
L 500.818585 410.215716 
L 507.624936 406.986349 
L 508.281313 406.658533 
L 508.923134 406.310292 
L 510.535352 405.432453 
L 510.786391 405.295062 
L 514.270785 403.185846 
L 518.19739 400.85178 
L 524.493248 397.09975 
L 527.188472 395.49346 
L 534.69099 391.022332 
L 535.385122 390.617387 
L 535.486893 390.557668 
L 535.727507 390.470035 
L 535.900157 390.407046 
L 536.578355 390.159193 
" clip-path="url(#p38a2f4e3a1)" style="fill: #d3d3d3"/>
   </g>
   <g id="matplotlib.axis_1">
    <g id="xtick_1">
     <g id="line2d_1">
      <defs>
       <path id="m5086ebbf2f" d="M 0 0 
L 0 3.5 
" style="stroke: #000000; stroke-width: 0.8"/>
      </defs>
      <g>
       <use xlink:href="#m5086ebbf2f" x="145.846923" y="640.8" style="stroke: #000000; stroke-width: 0.8"/>
      </g>
     </g>
     <g id="text_1">
      <!-- 13.30 -->
      <g transform="translate(131.532861 655.398438) scale(0.1 -0.1)">
       <defs>
        <path id="DejaVuSans-31" d="M 794 531 
L 1825 531 
L 1825 4091 
L 703 3866 
L 703 4441 
L 1819 4666 
L 2450 4666 
L 2450 531 
L 3481 531 
L 3481 0 
L 794 0 
L 794 531 
z
" transform="scale(0.015625)"/>
        <path id="DejaVuSans-33" d="M 2597 2516 
Q 3050 2419 3304 2112 
Q 3559 1806 3559 1356 
Q 3559 666 3084 287 
Q 2609 -91 1734 -91 
Q 1441 -91 1130 -33 
Q 819 25 488 141 
L 488 750 
Q 750 597 1062 519 
Q 1375 441 1716 441 
Q 2309 441 2620 675 
Q 2931 909 2931 1356 
Q 2931 1769 2642 2001 
Q 2353 2234 1838 2234 
L 1294 2234 
L 1294 2753 
L 1863 2753 
Q 2328 2753 2575 2939 
Q 2822 3125 2822 3475 
Q 2822 3834 2567 4026 
Q 2313 4219 1838 4219 
Q 1578 4219 1281 4162 
Q 984 4106 628 3988 
L 628 4550 
Q 988 4650 1302 4700 
Q 1616 4750 1894 4750 
Q 2613 4750 3031 4423 
Q 3450 4097 3450 3541 
Q 3450 3153 3228 2886 
Q 3006 2619 2597 2516 
z
" transform="scale(0.015625)"/>
        <path id="DejaVuSans-2e" d="M 684 794 
L 1344 794 
L 1344 0 
L 684 0 
L 684 794 
z
" transform="scale(0.015625)"/>
        <path id="DejaVuSans-30" d="M 2034 4250 
Q 1547 4250 1301 3770 
Q 1056 3291 1056 2328 
Q 1056 1369 1301 889 
Q 1547 409 2034 409 
Q 2525 409 2770 889 
Q 3016 1369 3016 2328 
Q 3016 3291 2770 3770 
Q 2525 4250 2034 4250 
z
M 2034 4750 
Q 2819 4750 3233 4129 
Q 3647 3509 3647 2328 
Q 3647 1150 3233 529 
Q 2819 -91 2034 -91 
Q 1250 -91 836 529 
Q 422 1150 422 2328 
Q 422 3509 836 4129 
Q 1250 4750 2034 4750 
z
" transform="scale(0.015625)"/>
       </defs>
       <use xlink:href="#DejaVuSans-31"/>
       <use xlink:href="#DejaVuSans-33" x="63.623047"/>
       <use xlink:href="#DejaVuSans-2e" x="127.246094"/>
       <use xlink:href="#DejaVuSans-33" x="159.033203"/>
       <use xlink:href="#DejaVuSans-30" x="222.65625"/>
      </g>
     </g>
    </g>
    <g id="xtick_2">
     <g id="line2d_2">
      <g>
       <use xlink:href="#m5086ebbf2f" x="211.938743" y="640.8" style="stroke: #000000; stroke-width: 0.8"/>
      </g>
     </g>
     <g id="text_2">
      <!-- 13.31 -->
      <g transform="translate(197.624681 655.398438) scale(0.1 -0.1)">
       <use xlink:href="#DejaVuSans-31"/>
       <use xlink:href="#DejaVuSans-33" x="63.623047"/>
       <use xlink:href="#DejaVuSans-2e" x="127.246094"/>
       <use xlink:href="#DejaVuSans-33" x="159.033203"/>
       <use xlink:href="#DejaVuSans-31" x="222.65625"/>
      </g>
     </g>
    </g>
    <g id="xtick_3">
     <g id="line2d_3">
      <g>
       <use xlink:href="#m5086ebbf2f" x="278.030563" y="640.8" style="stroke: #000000; stroke-width: 0.8"/>
      </g>
     </g>
     <g id="text_3">
      <!-- 13.32 -->
      <g transform="translate(263.716501 655.398438) scale(0.1 -0.1)">
       <defs>
        <path id="DejaVuSans-32" d="M 1228 531 
L 3431 531 
L 3431 0 
L 469 0 
L 469 531 
Q 828 903 1448 1529 
Q 2069 2156 2228 2338 
Q 2531 2678 2651 2914 
Q 2772 3150 2772 3378 
Q 2772 3750 2511 3984 
Q 2250 4219 1831 4219 
Q 1534 4219 1204 4116 
Q 875 4013 500 3803 
L 500 4441 
Q 881 4594 1212 4672 
Q 1544 4750 1819 4750 
Q 2544 4750 2975 4387 
Q 3406 4025 3406 3419 
Q 3406 3131 3298 2873 
Q 3191 2616 2906 2266 
Q 2828 2175 2409 1742 
Q 1991 1309 1228 531 
z
" transform="scale(0.015625)"/>
       </defs>
       <use xlink:href="#DejaVuSans-31"/>
       <use xlink:href="#DejaVuSans-33" x="63.623047"/>
       <use xlink:href="#DejaVuSans-2e" x="127.246094"/>
       <use xlink:href="#DejaVuSans-33" x="159.033203"/>
       <use xlink:href="#DejaVuSans-32" x="222.65625"/>
      </g>
     </g>
    </g>
    <g id="xtick_4">
     <g id="line2d_4">
      <g>
       <use xlink:href="#m5086ebbf2f" x="344.122383" y="640.8" style="stroke: #000000; stroke-width: 0.8"/>
      </g>
     </g>
     <g id="text_4">
      <!-- 13.33 -->
      <g transform="translate(329.808321 655.398438) scale(0.1 -0.1)">
       <use xlink:href="#DejaVuSans-31"/>
       <use xlink:href="#DejaVuSans-33" x="63.623047"/>
       <use xlink:href="#DejaVuSans-2e" x="127.246094"/>
       <use xlink:href="#DejaVuSans-33" x="159.033203"/>
       <use xlink:href="#DejaVuSans-33" x="222.65625"/>
      </g>
     </g>
    </g>
    <g id="xtick_5">
     <g id="line2d_5">
      <g>
       <use xlink:href="#m5086ebbf2f" x="410.214204" y="640.8" style="stroke: #000000; stroke-width: 0.8"/>
      </g>
     </g>
     <g id="text_5">
      <!-- 13.34 -->
      <g transform="translate(395.900141 655.398438) scale(0.1 -0.1)">
       <defs>
        <path id="DejaVuSans-34" d="M 2419 4116 
L 825 1625 
L 2419 1625 
L 2419 4116 
z
M 2253 4666 
L 3047 4666 
L 3047 1625 
L 3713 1625 
L 3713 1100 
L 3047 1100 
L 3047 0 
L 2419 0 
L 2419 1100 
L 313 1100 
L 313 1709 
L 2253 4666 
z
" transform="scale(0.015625)"/>
       </defs>
       <use xlink:href="#DejaVuSans-31"/>
       <use xlink:href="#DejaVuSans-33" x="63.623047"/>
       <use xlink:href="#DejaVuSans-2e" x="127.246094"/>
       <use xlink:href="#DejaVuSans-33" x="159.033203"/>
       <use xlink:href="#DejaVuSans-34" x="222.65625"/>
      </g>
     </g>
    </g>
    <g id="xtick_6">
     <g id="line2d_6">
      <g>
       <use xlink:href="#m5086ebbf2f" x="476.306024" y="640.8" style="stroke: #000000; stroke-width: 0.8"/>
      </g>
     </g>
     <g id="text_6">
      <!-- 13.35 -->
      <g transform="translate(461.991961 655.398438) scale(0.1 -0.1)">
       <defs>
        <path id="DejaVuSans-35" d="M 691 4666 
L 3169 4666 
L 3169 4134 
L 1269 4134 
L 1269 2991 
Q 1406 3038 1543 3061 
Q 1681 3084 1819 3084 
Q 2600 3084 3056 2656 
Q 3513 2228 3513 1497 
Q 3513 744 3044 326 
Q 2575 -91 1722 -91 
Q 1428 -91 1123 -41 
Q 819 9 494 109 
L 494 744 
Q 775 591 1075 516 
Q 1375 441 1709 441 
Q 2250 441 2565 725 
Q 2881 1009 2881 1497 
Q 2881 1984 2565 2268 
Q 2250 2553 1709 2553 
Q 1456 2553 1204 2497 
Q 953 2441 691 2322 
L 691 4666 
z
" transform="scale(0.015625)"/>
       </defs>
       <use xlink:href="#DejaVuSans-31"/>
       <use xlink:href="#DejaVuSans-33" x="63.623047"/>
       <use xlink:href="#DejaVuSans-2e" x="127.246094"/>
       <use xlink:href="#DejaVuSans-33" x="159.033203"/>
       <use xlink:href="#DejaVuSans-35" x="222.65625"/>
      </g>
     </g>
    </g>
    <g id="xtick_7">
     <g id="line2d_7">
      <g>
       <use xlink:href="#m5086ebbf2f" x="542.397844" y="640.8" style="stroke: #000000; stroke-width: 0.8"/>
      </g>
     </g>
     <g id="text_7">
      <!-- 13.36 -->
      <g transform="translate(528.083781 655.398438) scale(0.1 -0.1)">
       <defs>
        <path id="DejaVuSans-36" d="M 2113 2584 
Q 1688 2584 1439 2293 
Q 1191 2003 1191 1497 
Q 1191 994 1439 701 
Q 1688 409 2113 409 
Q 2538 409 2786 701 
Q 3034 994 3034 1497 
Q 3034 2003 2786 2293 
Q 2538 2584 2113 2584 
z
M 3366 4563 
L 3366 3988 
Q 3128 4100 2886 4159 
Q 2644 4219 2406 4219 
Q 1781 4219 1451 3797 
Q 1122 3375 1075 2522 
Q 1259 2794 1537 2939 
Q 1816 3084 2150 3084 
Q 2853 3084 3261 2657 
Q 3669 2231 3669 1497 
Q 3669 778 3244 343 
Q 2819 -91 2113 -91 
Q 1303 -91 875 529 
Q 447 1150 447 2328 
Q 447 3434 972 4092 
Q 1497 4750 2381 4750 
Q 2619 4750 2861 4703 
Q 3103 4656 3366 4563 
z
" transform="scale(0.015625)"/>
       </defs>
       <use xlink:href="#DejaVuSans-31"/>
       <use xlink:href="#DejaVuSans-33" x="63.623047"/>
       <use xlink:href="#DejaVuSans-2e" x="127.246094"/>
       <use xlink:href="#DejaVuSans-33" x="159.033203"/>
       <use xlink:href="#DejaVuSans-36" x="222.65625"/>
      </g>
     </g>
    </g>
    <g id="xtick_8">
     <g id="line2d_8">
      <g>
       <use xlink:href="#m5086ebbf2f" x="608.489664" y="640.8" style="stroke: #000000; stroke-width: 0.8"/>
      </g>
     </g>
     <g id="text_8">
      <!-- 13.37 -->
      <g transform="translate(594.175601 655.398438) scale(0.1 -0.1)">
       <defs>
        <path id="DejaVuSans-37" d="M 525 4666 
L 3525 4666 
L 3525 4397 
L 1831 0 
L 1172 0 
L 2766 4134 
L 525 4134 
L 525 4666 
z
" transform="scale(0.015625)"/>
       </defs>
       <use xlink:href="#DejaVuSans-31"/>
       <use xlink:href="#DejaVuSans-33" x="63.623047"/>
       <use xlink:href="#DejaVuSans-2e" x="127.246094"/>
       <use xlink:href="#DejaVuSans-33" x="159.033203"/>
       <use xlink:href="#DejaVuSans-37" x="222.65625"/>
      </g>
     </g>
    </g>
   </g>
   <g id="matplotlib.axis_2">
    <g id="ytick_1">
     <g id="line2d_9">
      <defs>
       <path id="m93d4781567" d="M 0 0 
L -3.5 0 
" style="stroke: #000000; stroke-width: 0.8"/>
      </defs>
      <g>
       <use xlink:href="#m93d4781567" x="93.962598" y="605.903089" style="stroke: #000000; stroke-width: 0.8"/>
      </g>
     </g>
     <g id="text_9">
      <!-- 52.40 -->
      <g transform="translate(58.334473 609.702307) scale(0.1 -0.1)">
       <use xlink:href="#DejaVuSans-35"/>
       <use xlink:href="#DejaVuSans-32" x="63.623047"/>
       <use xlink:href="#DejaVuSans-2e" x="127.246094"/>
       <use xlink:href="#DejaVuSans-34" x="159.033203"/>
       <use xlink:href="#DejaVuSans-30" x="222.65625"/>
      </g>
     </g>
    </g>
    <g id="ytick_2">
     <g id="line2d_10">
      <g>
       <use xlink:href="#m93d4781567" x="93.962598" y="497.513143" style="stroke: #000000; stroke-width: 0.8"/>
      </g>
     </g>
     <g id="text_10">
      <!-- 52.41 -->
      <g transform="translate(58.334473 501.312362) scale(0.1 -0.1)">
       <use xlink:href="#DejaVuSans-35"/>
       <use xlink:href="#DejaVuSans-32" x="63.623047"/>
       <use xlink:href="#DejaVuSans-2e" x="127.246094"/>
       <use xlink:href="#DejaVuSans-34" x="159.033203"/>
       <use xlink:href="#DejaVuSans-31" x="222.65625"/>
      </g>
     </g>
    </g>
    <g id="ytick_3">
     <g id="line2d_11">
      <g>
       <use xlink:href="#m93d4781567" x="93.962598" y="389.123197" style="stroke: #000000; stroke-width: 0.8"/>
      </g>
     </g>
     <g id="text_11">
      <!-- 52.42 -->
      <g transform="translate(58.334473 392.922416) scale(0.1 -0.1)">
       <use xlink:href="#DejaVuSans-35"/>
       <use xlink:href="#DejaVuSans-32" x="63.623047"/>
       <use xlink:href="#DejaVuSans-2e" x="127.246094"/>
       <use xlink:href="#DejaVuSans-34" x="159.033203"/>
       <use xlink:href="#DejaVuSans-32" x="222.65625"/>
      </g>
     </g>
    </g>
    <g id="ytick_4">
     <g id="line2d_12">
      <g>
       <use xlink:href="#m93d4781567" x="93.962598" y="280.733252" style="stroke: #000000; stroke-width: 0.8"/>
      </g>
     </g>
     <g id="text_12">
      <!-- 52.43 -->
      <g transform="translate(58.334473 284.532471) scale(0.1 -0.1)">
       <use xlink:href="#DejaVuSans-35"/>
       <use xlink:href="#DejaVuSans-32" x="63.623047"/>
       <use xlink:href="#DejaVuSans-2e" x="127.246094"/>
       <use xlink:href="#DejaVuSans-34" x="159.033203"/>
       <use xlink:href="#DejaVuSans-33" x="222.65625"/>
      </g>
     </g>
    </g>
    <g id="ytick_5">
     <g id="line2d_13">
      <g>
       <use xlink:href="#m93d4781567" x="93.962598" y="172.343306" style="stroke: #000000; stroke-width: 0.8"/>
      </g>
     </g>
     <g id="text_13">
      <!-- 52.44 -->
      <g transform="translate(58.334473 176.142525) scale(0.1 -0.1)">
       <use xlink:href="#DejaVuSans-35"/>
       <use xlink:href="#DejaVuSans-32" x="63.623047"/>
       <use xlink:href="#DejaVuSans-2e" x="127.246094"/>
       <use xlink:href="#DejaVuSans-34" x="159.033203"/>
       <use xlink:href="#DejaVuSans-34" x="222.65625"/>
      </g>
     </g>
    </g>
   </g>
   <g id="LineCollection_1">
    <path d="M 440.46443 196.28231 
L 439.833253 196.650835 
L 439.58673 196.79391 
L 430.371548 202.23075 
" clip-path="url(#p38a2f4e3a1)" style="fill: none; stroke: #ff0000; stroke-opacity: 0.7; stroke-width: 0.5"/>
    <path d="M 365.862627 263.362679 
L 369.151356 261.867982 
" clip-path="url(#p38a2f4e3a1)" style="fill: none; stroke: #ff0000; stroke-opacity: 0.7; stroke-width: 0.5"/>
    <path d="M 410.052939 231.877568 
L 410.487824 231.419078 
L 412.857215 228.919606 
L 413.864455 227.857385 
L 416.065973 225.492316 
L 416.3733 225.17365 
L 417.798901 223.696295 
L 418.233124 223.246476 
L 419.11545 222.330581 
" clip-path="url(#p38a2f4e3a1)" style="fill: none; stroke: #ff0000; stroke-opacity: 0.7; stroke-width: 0.5"/>
    <path d="M 278.073523 204.57414 
L 272.62954 202.65889 
" clip-path="url(#p38a2f4e3a1)" style="fill: none; stroke: #ff0000; stroke-opacity: 0.7; stroke-width: 0.5"/>
    <path d="M 453.303427 252.782737 
L 454.924659 252.607145 
L 455.910749 252.538859 
L 457.305947 252.689521 
L 458.511462 253.039621 
L 459.305886 253.467761 
L 461.759214 255.153225 
L 462.25292 255.585701 
" clip-path="url(#p38a2f4e3a1)" style="fill: none; stroke: #ff0000; stroke-opacity: 0.7; stroke-width: 0.5"/>
    <path d="M 293.244239 210.31664 
L 292.649413 210.091189 
L 290.872204 209.419171 
L 287.735486 208.231217 
L 286.19092 207.646995 
L 281.666935 205.934434 
L 280.840127 205.621187 
L 278.912889 204.891723 
L 278.073523 204.57414 
" clip-path="url(#p38a2f4e3a1)" style="fill: none; stroke: #ff0000; stroke-opacity: 0.7; stroke-width: 0.5"/>
    <path d="M 365.862627 263.362679 
L 365.990184 263.738792 
L 367.037078 266.837661 
L 368.308024 271.096302 
L 368.57834 272.001358 
L 369.12558 273.688989 
L 369.24785 274.066186 
L 370.431554 277.717844 
L 370.512847 277.899939 
L 370.61529 278.131893 
L 371.094455 278.997929 
" clip-path="url(#p38a2f4e3a1)" style="fill: none; stroke: #ff0000; stroke-opacity: 0.7; stroke-width: 0.5"/>
    <path d="M 411.330494 213.500052 
L 410.764087 213.847984 
L 410.152738 214.242524 
L 409.79386 214.485317 
L 409.586331 214.659825 
L 408.828919 215.521525 
L 405.870649 218.804656 
L 404.368382 220.471694 
L 401.940169 223.166268 
L 401.640773 223.499025 
L 393.311221 232.88451 
L 382.536932 244.822579 
L 382.165496 245.235545 
" clip-path="url(#p38a2f4e3a1)" style="fill: none; stroke: #ff0000; stroke-opacity: 0.7; stroke-width: 0.5"/>
    <path d="M 375.118786 259.227603 
L 375.318383 259.691512 
L 376.831886 263.210933 
L 377.38904 264.506193 
L 378.190073 266.368332 
L 378.831825 267.860862 
L 379.554208 269.539822 
L 380.185385 270.987912 
" clip-path="url(#p38a2f4e3a1)" style="fill: none; stroke: #ff0000; stroke-opacity: 0.7; stroke-width: 0.5"/>
    <path d="M 309.966131 246.013784 
L 312.625005 256.251215 
L 312.357333 256.800752 
L 302.103848 259.448718 
L 301.619395 259.200505 
L 298.969774 248.79507 
L 299.274457 248.300812 
L 309.488948 245.694034 
L 309.966131 246.013784 
" clip-path="url(#p38a2f4e3a1)" style="fill: none; stroke: #ff0000; stroke-opacity: 0.7; stroke-width: 0.5"/>
    <path d="M 298.433108 248.062354 
L 298.522993 248.723533 
L 301.267125 259.329489 
L 301.458792 260.068709 
L 302.061549 259.858432 
L 312.706298 257.045713 
L 313.265435 256.967672 
" clip-path="url(#p38a2f4e3a1)" style="fill: none; stroke: #ff0000; stroke-opacity: 0.7; stroke-width: 0.5"/>
    <path d="M 382.165496 245.235545 
L 381.757709 245.690782 
L 373.831978 254.547325 
L 372.223964 256.343346 
L 368.899546 260.09689 
" clip-path="url(#p38a2f4e3a1)" style="fill: none; stroke: #ff0000; stroke-opacity: 0.7; stroke-width: 0.5"/>
    <path d="M 430.371548 202.23075 
L 429.342498 202.839901 
L 427.800576 203.752545 
L 424.252767 205.852058 
L 414.309253 211.737632 
L 411.871786 213.180302 
L 411.330494 213.500052 
" clip-path="url(#p38a2f4e3a1)" style="fill: none; stroke: #ff0000; stroke-opacity: 0.7; stroke-width: 0.5"/>
    <path d="M 379.820558 272.525965 
L 380.375069 273.657556 
" clip-path="url(#p38a2f4e3a1)" style="fill: none; stroke: #ff0000; stroke-opacity: 0.7; stroke-width: 0.5"/>
    <path d="M 367.863226 328.331613 
L 368.059519 328.818283 
L 373.253675 341.650569 
L 373.454594 342.150247 
" clip-path="url(#p38a2f4e3a1)" style="fill: none; stroke: #ff0000; stroke-opacity: 0.7; stroke-width: 0.5"/>
    <path d="M 369.31989 327.73872 
L 369.091873 327.187015 
L 363.865993 314.515146 
L 363.665735 314.029559 
" clip-path="url(#p38a2f4e3a1)" style="fill: none; stroke: #ff0000; stroke-opacity: 0.7; stroke-width: 0.5"/>
    <path d="M 365.900299 313.107161 
L 365.668978 312.526191 
L 362.809185 305.54371 
L 362.372318 304.476069 
L 359.478818 297.409045 
L 358.922986 296.050919 
L 358.805342 295.763686 
L 357.893936 293.537356 
L 355.796182 288.414847 
L 355.130637 286.790082 
L 355.026873 286.535366 
L 354.688483 285.709434 
" clip-path="url(#p38a2f4e3a1)" style="fill: none; stroke: #ff0000; stroke-opacity: 0.7; stroke-width: 0.5"/>
    <path d="M 398.152446 425.789348 
L 398.260837 425.245231 
L 397.853711 424.325 
L 397.683194 423.939132 
L 396.129376 420.428382 
L 395.816101 419.739021 
L 391.678092 410.726397 
L 389.692693 406.402723 
L 389.054907 405.013163 
L 388.371518 403.535808 
L 388.116403 402.984104 
" clip-path="url(#p38a2f4e3a1)" style="fill: none; stroke: #ff0000; stroke-opacity: 0.7; stroke-width: 0.5"/>
    <path d="M 313.265435 256.967672 
L 313.087648 256.45282 
L 312.843108 255.302803 
L 311.845121 251.371499 
L 310.353429 245.511939 
L 310.210671 244.930969 
L 309.69185 245.079463 
L 308.405042 245.388374 
L 298.764228 247.912776 
L 298.433108 248.062354 
" clip-path="url(#p38a2f4e3a1)" style="fill: none; stroke: #ff0000; stroke-opacity: 0.7; stroke-width: 0.5"/>
    <path d="M 272.092874 310.465698 
L 272.415402 309.90207 
L 273.753101 307.561931 
L 276.584474 302.610678 
L 276.921543 302.015618 
L 277.226887 301.494262 
L 279.720531 297.232369 
L 279.817686 297.066533 
L 283.247852 291.204804 
L 285.927875 286.624245 
L 286.236524 286.086631 
L 286.342932 285.902368 
L 286.74477 285.202169 
" clip-path="url(#p38a2f4e3a1)" style="fill: none; stroke: #ff0000; stroke-opacity: 0.7; stroke-width: 0.5"/>
    <path d="M 386.655774 267.979007 
L 385.967097 266.435534 
L 385.797242 266.054001 
L 385.565259 265.53373 
L 384.372963 262.85975 
L 383.627447 261.188377 
L 383.383568 260.624749 
L 381.688974 256.84194 
L 381.468227 256.347682 
" clip-path="url(#p38a2f4e3a1)" style="fill: none; stroke: #ff0000; stroke-opacity: 0.7; stroke-width: 0.5"/>
    <path d="M 316.016176 235.094581 
L 316.420658 234.398718 
L 318.90571 230.119483 
L 321.595648 225.486897 
L 321.903635 224.95687 
L 322.206336 224.430095 
L 324.772681 219.963345 
L 325.259778 219.115736 
L 326.695292 216.617347 
L 327.78052 214.683671 
" clip-path="url(#p38a2f4e3a1)" style="fill: none; stroke: #ff0000; stroke-opacity: 0.7; stroke-width: 0.5"/>
    <path d="M 316.016176 235.094581 
L 315.749165 235.572581 
L 312.25423 241.564377 
L 310.307165 244.7673 
L 310.210671 244.930969 
" clip-path="url(#p38a2f4e3a1)" style="fill: none; stroke: #ff0000; stroke-opacity: 0.7; stroke-width: 0.5"/>
    <path d="M 335.882055 212.730484 
L 336.493405 212.546221 
L 337.110041 212.35979 
" clip-path="url(#p38a2f4e3a1)" style="fill: none; stroke: #ff0000; stroke-opacity: 0.7; stroke-width: 0.5"/>
    <path d="M 327.78052 214.683671 
L 328.846581 214.431122 
L 335.490792 212.824783 
L 335.882055 212.730484 
" clip-path="url(#p38a2f4e3a1)" style="fill: none; stroke: #ff0000; stroke-opacity: 0.7; stroke-width: 0.5"/>
    <path d="M 432.89956 181.836098 
L 427.874599 187.262098 
L 428.903648 188.221349 
L 429.618101 187.436606 
L 430.566519 188.29939 
L 431.63258 189.270564 
L 433.118324 188.657077 
L 433.0291 188.440297 
L 433.927949 188.069603 
L 434.015851 188.282048 
L 434.904125 187.91569 
L 435.549842 189.477589 
L 435.698548 189.835276 
L 436.208116 189.63909 
L 434.976826 187.065913 
L 434.805648 186.696303 
L 433.272979 183.124854 
L 432.89956 181.836098 
" clip-path="url(#p38a2f4e3a1)" style="fill: none; stroke: #ff0000; stroke-opacity: 0.7; stroke-width: 0.5"/>
    <path d="M 302.042383 260.207448 
L 301.877153 260.30825 
L 301.696061 260.507688 
L 301.625343 260.625833 
L 301.206321 261.326032 
L 300.526236 260.887053 
L 300.557299 260.693035 
L 300.581092 260.547792 
L 300.537472 260.440486 
L 300.47138 260.27465 
L 300.242041 260.099058 
L 300.45684 259.654659 
L 300.620747 259.626478 
L 300.717242 259.530011 
L 300.746322 259.384768 
L 298.100005 248.925138 
L 297.993598 248.577207 
L 297.858109 248.307316 
L 297.568627 248.075361 
L 298.043167 247.433693 
L 298.298942 247.535579 
L 298.586441 247.554006 
L 298.856096 247.511733 
L 309.896734 244.568946 
L 310.098975 244.448634 
L 310.228515 244.267622 
L 310.862997 244.578702 
L 310.824664 244.766216 
L 310.86498 244.969989 
L 313.558882 256.47233 
L 313.691066 256.790997 
L 313.771698 256.879876 
L 313.899916 257.021867 
L 313.548307 257.552978 
L 313.389687 257.481441 
L 313.292532 257.437001 
L 313.02486 257.414239 
L 302.042383 260.207448 
" clip-path="url(#p38a2f4e3a1)" style="fill: none; stroke: #ff0000; stroke-opacity: 0.7; stroke-width: 0.5"/>
    <path d="M 390.10048 252.565957 
L 390.744214 252.29715 
L 392.329757 250.645287 
L 397.955493 244.644819 
L 399.087646 243.437355 
L 401.086262 241.305325 
L 401.455055 240.91187 
" clip-path="url(#p38a2f4e3a1)" style="fill: none; stroke: #ff0000; stroke-opacity: 0.7; stroke-width: 0.5"/>
    <path d="M 369.151356 261.867982 
L 371.09776 261.00303 
L 374.605253 259.454138 
L 375.118786 259.227603 
L 379.658633 257.168194 
L 380.772941 256.663097 
L 381.468227 256.347682 
L 384.951927 254.834558 
L 386.046408 254.358726 
L 389.519533 252.822841 
L 390.10048 252.565957 
" clip-path="url(#p38a2f4e3a1)" style="fill: none; stroke: #ff0000; stroke-opacity: 0.7; stroke-width: 0.5"/>
    <path d="M 387.508359 269.429264 
L 387.039107 268.830952 
L 386.957153 268.662947 
L 386.86132 268.439664 
L 386.655774 267.979007 
" clip-path="url(#p38a2f4e3a1)" style="fill: none; stroke: #ff0000; stroke-opacity: 0.7; stroke-width: 0.5"/>
    <path d="M 388.116403 402.984104 
L 387.884421 402.481174 
L 387.47333 401.570699 
L 386.67428 399.85597 
L 377.38904 379.826592 
L 376.954817 378.94213 
L 376.658065 378.33623 
L 376.348094 377.680471 
L 376.048698 377.047474 
L 370.271612 362.832132 
L 368.773971 359.146874 
L 367.238658 355.368401 
L 366.924722 354.596664 
" clip-path="url(#p38a2f4e3a1)" style="fill: none; stroke: #ff0000; stroke-opacity: 0.7; stroke-width: 0.5"/>
    <path d="M 451.778688 252.976755 
L 452.523543 252.882455 
L 453.221473 252.794659 
L 453.303427 252.782737 
" clip-path="url(#p38a2f4e3a1)" style="fill: none; stroke: #ff0000; stroke-opacity: 0.7; stroke-width: 0.5"/>
    <path d="M 368.899546 260.09689 
L 365.862627 263.362679 
" clip-path="url(#p38a2f4e3a1)" style="fill: none; stroke: #ff0000; stroke-opacity: 0.7; stroke-width: 0.5"/>
    <path d="M 380.185385 270.987912 
L 380.303689 271.266474 
L 380.555499 271.842025 
" clip-path="url(#p38a2f4e3a1)" style="fill: none; stroke: #ff0000; stroke-opacity: 0.7; stroke-width: 0.5"/>
    <path d="M 381.000958 270.983576 
L 381.409406 271.249132 
L 382.049174 272.643026 
" clip-path="url(#p38a2f4e3a1)" style="fill: none; stroke: #ff0000; stroke-opacity: 0.7; stroke-width: 0.5"/>
    <path d="M 401.455055 240.91187 
L 401.850945 240.495652 
L 403.26531 239.009626 
L 406.326683 235.796948 
L 406.637975 235.466359 
L 407.372255 234.694622 
L 409.651762 232.299205 
L 410.052939 231.877568 
" clip-path="url(#p38a2f4e3a1)" style="fill: none; stroke: #ff0000; stroke-opacity: 0.7; stroke-width: 0.5"/>
    <path d="M 286.74477 285.202169 
L 287.203447 284.410923 
L 287.326378 284.199562 
L 288.152526 282.772067 
L 293.10082 274.389188 
L 296.029349 269.41409 
L 296.385584 268.733401 
L 296.679031 268.199039 
L 299.299572 263.684597 
L 301.105201 260.65835 
L 301.271091 260.380872 
L 301.458792 260.068709 
" clip-path="url(#p38a2f4e3a1)" style="fill: none; stroke: #ff0000; stroke-opacity: 0.7; stroke-width: 0.5"/>
   </g>
   <g id="patch_3">
    <path d="M 93.962598 640.8 
L 93.962598 86.4 
" style="fill: none; stroke: #000000; stroke-width: 0.8; stroke-linejoin: miter; stroke-linecap: square"/>
   </g>
   <g id="patch_4">
    <path d="M 644.037402 640.8 
L 644.037402 86.4 
" style="fill: none; stroke: #000000; stroke-width: 0.8; stroke-linejoin: miter; stroke-linecap: square"/>
   </g>
   <g id="patch_5">
    <path d="M 93.962598 640.8 
L 644.037402 640.8 
" style="fill: none; stroke: #000000; stroke-width: 0.8; stroke-linejoin: miter; stroke-linecap: square"/>
   </g>
   <g id="patch_6">
    <path d="M 93.962598 86.4 
L 644.037402 86.4 
" style="fill: none; stroke: #000000; stroke-width: 0.8; stroke-linejoin: miter; stroke-linecap: square"/>
   </g>
   <g id="text_14">
    <!-- Lankwitz_Lichterfelde_Ost -->
    <g transform="translate(287.934305 339.240822) scale(0.12 -0.12)">
     <defs>
      <path id="DejaVuSans-4c" d="M 628 4666 
L 1259 4666 
L 1259 531 
L 3531 531 
L 3531 0 
L 628 0 
L 628 4666 
z
" transform="scale(0.015625)"/>
      <path id="DejaVuSans-61" d="M 2194 1759 
Q 1497 1759 1228 1600 
Q 959 1441 959 1056 
Q 959 750 1161 570 
Q 1363 391 1709 391 
Q 2188 391 2477 730 
Q 2766 1069 2766 1631 
L 2766 1759 
L 2194 1759 
z
M 3341 1997 
L 3341 0 
L 2766 0 
L 2766 531 
Q 2569 213 2275 61 
Q 1981 -91 1556 -91 
Q 1019 -91 701 211 
Q 384 513 384 1019 
Q 384 1609 779 1909 
Q 1175 2209 1959 2209 
L 2766 2209 
L 2766 2266 
Q 2766 2663 2505 2880 
Q 2244 3097 1772 3097 
Q 1472 3097 1187 3025 
Q 903 2953 641 2809 
L 641 3341 
Q 956 3463 1253 3523 
Q 1550 3584 1831 3584 
Q 2591 3584 2966 3190 
Q 3341 2797 3341 1997 
z
" transform="scale(0.015625)"/>
      <path id="DejaVuSans-6e" d="M 3513 2113 
L 3513 0 
L 2938 0 
L 2938 2094 
Q 2938 2591 2744 2837 
Q 2550 3084 2163 3084 
Q 1697 3084 1428 2787 
Q 1159 2491 1159 1978 
L 1159 0 
L 581 0 
L 581 3500 
L 1159 3500 
L 1159 2956 
Q 1366 3272 1645 3428 
Q 1925 3584 2291 3584 
Q 2894 3584 3203 3211 
Q 3513 2838 3513 2113 
z
" transform="scale(0.015625)"/>
      <path id="DejaVuSans-6b" d="M 581 4863 
L 1159 4863 
L 1159 1991 
L 2875 3500 
L 3609 3500 
L 1753 1863 
L 3688 0 
L 2938 0 
L 1159 1709 
L 1159 0 
L 581 0 
L 581 4863 
z
" transform="scale(0.015625)"/>
      <path id="DejaVuSans-77" d="M 269 3500 
L 844 3500 
L 1563 769 
L 2278 3500 
L 2956 3500 
L 3675 769 
L 4391 3500 
L 4966 3500 
L 4050 0 
L 3372 0 
L 2619 2869 
L 1863 0 
L 1184 0 
L 269 3500 
z
" transform="scale(0.015625)"/>
      <path id="DejaVuSans-69" d="M 603 3500 
L 1178 3500 
L 1178 0 
L 603 0 
L 603 3500 
z
M 603 4863 
L 1178 4863 
L 1178 4134 
L 603 4134 
L 603 4863 
z
" transform="scale(0.015625)"/>
      <path id="DejaVuSans-74" d="M 1172 4494 
L 1172 3500 
L 2356 3500 
L 2356 3053 
L 1172 3053 
L 1172 1153 
Q 1172 725 1289 603 
Q 1406 481 1766 481 
L 2356 481 
L 2356 0 
L 1766 0 
Q 1100 0 847 248 
Q 594 497 594 1153 
L 594 3053 
L 172 3053 
L 172 3500 
L 594 3500 
L 594 4494 
L 1172 4494 
z
" transform="scale(0.015625)"/>
      <path id="DejaVuSans-7a" d="M 353 3500 
L 3084 3500 
L 3084 2975 
L 922 459 
L 3084 459 
L 3084 0 
L 275 0 
L 275 525 
L 2438 3041 
L 353 3041 
L 353 3500 
z
" transform="scale(0.015625)"/>
      <path id="DejaVuSans-5f" d="M 3263 -1063 
L 3263 -1509 
L -63 -1509 
L -63 -1063 
L 3263 -1063 
z
" transform="scale(0.015625)"/>
      <path id="DejaVuSans-63" d="M 3122 3366 
L 3122 2828 
Q 2878 2963 2633 3030 
Q 2388 3097 2138 3097 
Q 1578 3097 1268 2742 
Q 959 2388 959 1747 
Q 959 1106 1268 751 
Q 1578 397 2138 397 
Q 2388 397 2633 464 
Q 2878 531 3122 666 
L 3122 134 
Q 2881 22 2623 -34 
Q 2366 -91 2075 -91 
Q 1284 -91 818 406 
Q 353 903 353 1747 
Q 353 2603 823 3093 
Q 1294 3584 2113 3584 
Q 2378 3584 2631 3529 
Q 2884 3475 3122 3366 
z
" transform="scale(0.015625)"/>
      <path id="DejaVuSans-68" d="M 3513 2113 
L 3513 0 
L 2938 0 
L 2938 2094 
Q 2938 2591 2744 2837 
Q 2550 3084 2163 3084 
Q 1697 3084 1428 2787 
Q 1159 2491 1159 1978 
L 1159 0 
L 581 0 
L 581 4863 
L 1159 4863 
L 1159 2956 
Q 1366 3272 1645 3428 
Q 1925 3584 2291 3584 
Q 2894 3584 3203 3211 
Q 3513 2838 3513 2113 
z
" transform="scale(0.015625)"/>
      <path id="DejaVuSans-65" d="M 3597 1894 
L 3597 1613 
L 953 1613 
Q 991 1019 1311 708 
Q 1631 397 2203 397 
Q 2534 397 2845 478 
Q 3156 559 3463 722 
L 3463 178 
Q 3153 47 2828 -22 
Q 2503 -91 2169 -91 
Q 1331 -91 842 396 
Q 353 884 353 1716 
Q 353 2575 817 3079 
Q 1281 3584 2069 3584 
Q 2775 3584 3186 3129 
Q 3597 2675 3597 1894 
z
M 3022 2063 
Q 3016 2534 2758 2815 
Q 2500 3097 2075 3097 
Q 1594 3097 1305 2825 
Q 1016 2553 972 2059 
L 3022 2063 
z
" transform="scale(0.015625)"/>
      <path id="DejaVuSans-72" d="M 2631 2963 
Q 2534 3019 2420 3045 
Q 2306 3072 2169 3072 
Q 1681 3072 1420 2755 
Q 1159 2438 1159 1844 
L 1159 0 
L 581 0 
L 581 3500 
L 1159 3500 
L 1159 2956 
Q 1341 3275 1631 3429 
Q 1922 3584 2338 3584 
Q 2397 3584 2469 3576 
Q 2541 3569 2628 3553 
L 2631 2963 
z
" transform="scale(0.015625)"/>
      <path id="DejaVuSans-66" d="M 2375 4863 
L 2375 4384 
L 1825 4384 
Q 1516 4384 1395 4259 
Q 1275 4134 1275 3809 
L 1275 3500 
L 2222 3500 
L 2222 3053 
L 1275 3053 
L 1275 0 
L 697 0 
L 697 3053 
L 147 3053 
L 147 3500 
L 697 3500 
L 697 3744 
Q 697 4328 969 4595 
Q 1241 4863 1831 4863 
L 2375 4863 
z
" transform="scale(0.015625)"/>
      <path id="DejaVuSans-6c" d="M 603 4863 
L 1178 4863 
L 1178 0 
L 603 0 
L 603 4863 
z
" transform="scale(0.015625)"/>
      <path id="DejaVuSans-64" d="M 2906 2969 
L 2906 4863 
L 3481 4863 
L 3481 0 
L 2906 0 
L 2906 525 
Q 2725 213 2448 61 
Q 2172 -91 1784 -91 
Q 1150 -91 751 415 
Q 353 922 353 1747 
Q 353 2572 751 3078 
Q 1150 3584 1784 3584 
Q 2172 3584 2448 3432 
Q 2725 3281 2906 2969 
z
M 947 1747 
Q 947 1113 1208 752 
Q 1469 391 1925 391 
Q 2381 391 2643 752 
Q 2906 1113 2906 1747 
Q 2906 2381 2643 2742 
Q 2381 3103 1925 3103 
Q 1469 3103 1208 2742 
Q 947 2381 947 1747 
z
" transform="scale(0.015625)"/>
      <path id="DejaVuSans-4f" d="M 2522 4238 
Q 1834 4238 1429 3725 
Q 1025 3213 1025 2328 
Q 1025 1447 1429 934 
Q 1834 422 2522 422 
Q 3209 422 3611 934 
Q 4013 1447 4013 2328 
Q 4013 3213 3611 3725 
Q 3209 4238 2522 4238 
z
M 2522 4750 
Q 3503 4750 4090 4092 
Q 4678 3434 4678 2328 
Q 4678 1225 4090 567 
Q 3503 -91 2522 -91 
Q 1538 -91 948 565 
Q 359 1222 359 2328 
Q 359 3434 948 4092 
Q 1538 4750 2522 4750 
z
" transform="scale(0.015625)"/>
      <path id="DejaVuSans-73" d="M 2834 3397 
L 2834 2853 
Q 2591 2978 2328 3040 
Q 2066 3103 1784 3103 
Q 1356 3103 1142 2972 
Q 928 2841 928 2578 
Q 928 2378 1081 2264 
Q 1234 2150 1697 2047 
L 1894 2003 
Q 2506 1872 2764 1633 
Q 3022 1394 3022 966 
Q 3022 478 2636 193 
Q 2250 -91 1575 -91 
Q 1294 -91 989 -36 
Q 684 19 347 128 
L 347 722 
Q 666 556 975 473 
Q 1284 391 1588 391 
Q 1994 391 2212 530 
Q 2431 669 2431 922 
Q 2431 1156 2273 1281 
Q 2116 1406 1581 1522 
L 1381 1569 
Q 847 1681 609 1914 
Q 372 2147 372 2553 
Q 372 3047 722 3315 
Q 1072 3584 1716 3584 
Q 2034 3584 2315 3537 
Q 2597 3491 2834 3397 
z
" transform="scale(0.015625)"/>
     </defs>
     <use xlink:href="#DejaVuSans-4c"/>
     <use xlink:href="#DejaVuSans-61" x="55.712891"/>
     <use xlink:href="#DejaVuSans-6e" x="116.992188"/>
     <use xlink:href="#DejaVuSans-6b" x="180.371094"/>
     <use xlink:href="#DejaVuSans-77" x="238.28125"/>
     <use xlink:href="#DejaVuSans-69" x="320.068359"/>
     <use xlink:href="#DejaVuSans-74" x="347.851562"/>
     <use xlink:href="#DejaVuSans-7a" x="387.060547"/>
     <use xlink:href="#DejaVuSans-5f" x="439.550781"/>
     <use xlink:href="#DejaVuSans-4c" x="489.550781"/>
     <use xlink:href="#DejaVuSans-69" x="545.263672"/>
     <use xlink:href="#DejaVuSans-63" x="573.046875"/>
     <use xlink:href="#DejaVuSans-68" x="628.027344"/>
     <use xlink:href="#DejaVuSans-74" x="691.40625"/>
     <use xlink:href="#DejaVuSans-65" x="730.615234"/>
     <use xlink:href="#DejaVuSans-72" x="792.138672"/>
     <use xlink:href="#DejaVuSans-66" x="833.251953"/>
     <use xlink:href="#DejaVuSans-65" x="868.457031"/>
     <use xlink:href="#DejaVuSans-6c" x="929.980469"/>
     <use xlink:href="#DejaVuSans-64" x="957.763672"/>
     <use xlink:href="#DejaVuSans-65" x="1021.240234"/>
     <use xlink:href="#DejaVuSans-5f" x="1082.763672"/>
     <use xlink:href="#DejaVuSans-4f" x="1132.763672"/>
     <use xlink:href="#DejaVuSans-73" x="1211.474609"/>
     <use xlink:href="#DejaVuSans-74" x="1263.574219"/>
    </g>
   </g>
  </g>
 </g>
 <defs>
  <clipPath id="p38a2f4e3a1">
   <rect x="93.962598" y="86.4" width="550.074803" height="554.4"/>
  </clipPath>
 </defs>
</svg>
