<?xml version="1.0" encoding="utf-8" standalone="no"?>
<!DOCTYPE svg PUBLIC "-//W3C//DTD SVG 1.1//EN"
  "http://www.w3.org/Graphics/SVG/1.1/DTD/svg11.dtd">
<svg xmlns:xlink="http://www.w3.org/1999/xlink" width="720pt" height="720pt" viewBox="0 0 720 720" xmlns="http://www.w3.org/2000/svg" version="1.1">
 <metadata>
  <rdf:RDF xmlns:dc="http://purl.org/dc/elements/1.1/" xmlns:cc="http://creativecommons.org/ns#" xmlns:rdf="http://www.w3.org/1999/02/22-rdf-syntax-ns#">
   <cc:Work>
    <dc:type rdf:resource="http://purl.org/dc/dcmitype/StillImage"/>
    <dc:date>2024-10-15T13:04:03.199443</dc:date>
    <dc:format>image/svg+xml</dc:format>
    <dc:creator>
     <cc:Agent>
      <dc:title>Matplotlib v3.9.2, https://matplotlib.org/</dc:title>
     </cc:Agent>
    </dc:creator>
   </cc:Work>
  </rdf:RDF>
 </metadata>
 <defs>
  <style type="text/css">*{stroke-linejoin: round; stroke-linecap: butt}</style>
 </defs>
 <g id="figure_1">
  <g id="patch_1">
   <path d="M 0 720 
L 720 720 
L 720 0 
L 0 0 
z
" style="fill: #ffffff"/>
  </g>
  <g id="axes_1">
   <g id="patch_2">
    <path d="M 90 552.941193 
L 648 552.941193 
L 648 174.258807 
L 90 174.258807 
z
" style="fill: #ffffff"/>
   </g>
   <g id="PatchCollection_1">
    <path d="M 206.874256 297.839394 
L 209.036086 300.192286 
L 209.379439 300.566297 
L 214.151915 301.104296 
L 219.206544 305.111034 
L 221.103931 309.085494 
L 235.439908 318.112028 
L 237.557599 324.45394 
L 245.715289 329.306605 
L 253.499792 334.198345 
L 249.0055 342.347183 
L 249.238541 342.500072 
L 249.688339 342.822414 
L 250.219344 343.303856 
L 250.884257 344.041167 
L 252.073508 345.396799 
L 253.012244 346.631642 
L 254.932789 349.257489 
L 258.493974 354.273507 
L 260.552213 357.302334 
L 261.27491 358.472367 
L 262.050543 360.139565 
L 264.156493 365.497519 
L 265.802742 369.686004 
L 266.018096 370.400027 
L 266.578738 372.039105 
L 266.542121 372.967155 
L 266.835256 373.783039 
L 266.984538 373.753088 
L 267.975582 377.721121 
L 268.556577 379.98471 
L 269.954144 385.203833 
L 280.29241 383.928195 
L 284.825541 383.367028 
L 285.219917 383.262976 
L 285.889566 383.536199 
L 286.143704 383.525013 
L 286.177818 383.690718 
L 287.378729 383.425706 
L 288.363345 383.375839 
L 290.473297 383.544863 
L 292.136042 383.590052 
L 293.077526 383.796827 
L 294.703641 384.253619 
L 295.488221 384.688738 
L 297.545292 385.579564 
L 301.201995 387.066286 
L 302.783105 387.66488 
L 303.465931 387.892663 
L 304.244861 388.141622 
L 305.543742 388.481459 
L 306.407149 388.757007 
L 308.170405 389.367784 
L 308.684279 389.512987 
L 310.728959 389.970931 
L 311.117362 390.037901 
L 312.90133 390.301171 
L 314.04095 390.49433 
L 314.316522 390.543773 
L 315.096748 390.576658 
L 316.511203 390.624788 
L 316.576762 390.798309 
L 317.501636 393.675911 
L 317.974786 395.166501 
L 318.626257 397.219041 
L 318.677918 397.374045 
L 321.418449 405.576605 
L 324.523934 414.773757 
L 324.764563 415.486214 
L 324.819864 415.649788 
L 328.566506 426.803379 
L 331.20242 434.736666 
L 341.910328 450.803379 
L 341.924928 450.838909 
L 351.723096 465.53287 
L 352.468613 466.66639 
L 353.017125 466.508934 
L 353.489705 466.389418 
L 355.314397 465.940352 
L 356.121627 465.737252 
L 370.513154 462.217389 
L 373.172584 461.582831 
L 373.79049 461.435397 
L 381.357273 459.629977 
L 383.387678 459.157082 
L 384.03136 459.061878 
L 384.676208 458.975832 
L 385.322309 458.898853 
L 385.969399 458.831035 
L 386.617386 458.772292 
L 387.266095 458.722716 
L 387.915437 458.682309 
L 388.565323 458.651072 
L 389.215574 458.62901 
L 389.866014 458.616127 
L 390.446279 458.623053 
L 391.026391 458.639878 
L 391.606084 458.666606 
L 392.185267 458.703151 
L 392.763763 458.749515 
L 393.341306 458.805794 
L 393.917893 458.871809 
L 394.493259 458.947655 
L 395.169405 459.052622 
L 395.843577 459.169664 
L 396.515595 459.298785 
L 397.185194 459.43999 
L 397.852105 459.593195 
L 398.516151 459.758405 
L 399.177238 459.935443 
L 399.835011 460.124316 
L 400.489293 460.325028 
L 401.139904 460.537494 
L 401.786574 460.76154 
L 402.429126 460.997259 
L 403.067378 461.244389 
L 403.701153 461.503021 
L 404.26393 461.754381 
L 404.8228 462.014646 
L 405.377406 462.283736 
L 405.927745 462.56156 
L 406.473638 462.848033 
L 407.014906 463.143071 
L 414.778173 467.44705 
L 420.858188 470.871321 
L 421.67859 471.333294 
L 422.608703 471.857192 
L 425.482297 473.488691 
L 426.336133 473.97343 
L 426.390811 474.004395 
L 427.745014 474.933093 
L 429.771318 471.880011 
L 432.251035 468.132172 
L 434.551879 464.333379 
L 435.384501 463.556404 
L 435.505495 463.665787 
L 435.755485 463.889022 
L 435.768807 463.901495 
L 436.165634 464.259076 
L 436.408475 464.47613 
L 440.513237 468.16477 
L 443.312865 471.24066 
L 444.931845 473.228622 
L 447.982823 476.977713 
L 449.300267 478.696263 
L 452.086309 482.37264 
L 459.313914 491.928245 
L 462.575443 496.46207 
L 467.814276 504.052598 
L 470.666409 508.184474 
L 471.296668 509.097534 
L 475.559961 514.849702 
L 480.647385 521.808026 
L 490.617805 535.380321 
L 490.873189 535.728357 
L 493.766261 532.155432 
L 494.609756 531.113703 
L 494.860451 531.252367 
L 500.200255 524.375428 
L 504.484859 518.829186 
L 510.917577 510.514823 
L 512.682615 508.238918 
L 515.886149 503.988633 
L 520.231465 498.436236 
L 520.435521 498.175555 
L 520.601365 497.963694 
L 524.757019 492.652925 
L 530.825293 484.952218 
L 533.378306 481.713866 
L 537.277882 476.767458 
L 537.576902 476.388268 
L 537.854512 476.036165 
L 537.875943 476.008664 
L 538.16852 475.633228 
L 540.079186 473.181649 
L 540.761308 472.321022 
L 543.565764 468.721178 
L 543.747329 468.463459 
L 544.007391 468.087025 
L 545.563886 466.063105 
L 545.669739 465.925562 
L 548.388955 467.932428 
L 559.067398 475.74623 
L 560.127488 475.935402 
L 561.29019 476.112964 
L 562.964277 476.396593 
L 563.535833 476.493419 
L 564.000624 476.572171 
L 564.770546 476.706969 
L 575.049157 478.506876 
L 578.659112 479.124848 
L 580.345633 479.413552 
L 583.810362 480.006688 
L 585.52732 480.302018 
L 590.834345 481.22278 
L 597.24552 482.365052 
L 597.770267 482.4511 
L 595.808246 478.780455 
L 594.973278 477.218245 
L 594.942913 477.162345 
L 594.829096 476.95205 
L 595.74498 476.954411 
L 595.9465 476.95493 
L 596.347768 476.955846 
L 599.653343 476.965892 
L 602.054852 476.973224 
L 608.275871 478.405971 
L 608.991098 478.562449 
L 612.551811 478.952079 
L 616.20784 479.352212 
L 622.636364 479.073952 
L 619.322992 478.126091 
L 617.933856 471.779208 
L 616.609551 465.89364 
L 615.262263 459.971905 
L 613.920479 453.891757 
L 613.144048 450.424843 
L 612.446429 447.240955 
L 612.130517 445.731647 
L 611.840742 445.182161 
L 608.754429 439.381987 
L 606.050729 434.273758 
L 603.892337 430.158322 
L 603.127207 428.699603 
L 602.819349 428.127223 
L 600.838021 424.443932 
L 600.791348 424.355201 
L 600.119633 423.078404 
L 599.73285 422.34325 
L 597.607416 418.347871 
L 594.178253 418.323749 
L 594.193897 415.122749 
L 594.194746 414.970042 
L 594.199443 414.016107 
L 594.201543 413.730741 
L 594.326875 397.410592 
L 594.330167 396.985081 
L 594.374546 391.222546 
L 596.588446 391.542668 
L 598.993476 385.261753 
L 599.395002 384.286631 
L 601.551483 379.051042 
L 606.309049 372.023704 
L 607.387761 367.6659 
L 608.210168 364.724987 
L 607.788409 361.721317 
L 607.185383 360.029092 
L 606.757121 358.827786 
L 606.6442 358.539209 
L 606.05499 357.035586 
L 604.596272 353.312434 
L 603.540192 350.617023 
L 603.298051 349.99902 
L 603.186258 349.713719 
L 602.471637 347.889867 
L 600.760586 343.522813 
L 600.299994 342.347211 
L 599.703524 340.825114 
L 596.633471 332.990448 
L 593.850117 325.889227 
L 588.204351 310.220726 
L 586.584327 305.725052 
L 584.341132 299.500874 
L 581.192286 294.190979 
L 576.96584 287.063913 
L 576.954341 287.044533 
L 575.854455 285.190714 
L 575.850461 285.179397 
L 575.334107 285.136423 
L 575.792584 284.40454 
L 575.680213 283.222854 
L 575.63335 282.730048 
L 575.61795 282.587742 
L 575.176656 278.513 
L 574.14196 268.956736 
L 574.123179 268.783479 
L 573.975751 267.422506 
L 573.819958 267.414511 
L 573.862482 266.376026 
L 573.462109 262.679375 
L 571.975948 261.685058 
L 570.426587 260.648436 
L 570.230156 260.517009 
L 570.191282 260.383913 
L 569.567043 258.248542 
L 571.246579 255.45942 
L 567.127057 247.989434 
L 564.50109 243.690136 
L 562.965113 241.228795 
L 562.766458 240.88153 
L 561.950105 239.49095 
L 560.29946 236.566205 
L 560.179249 236.35596 
L 559.513919 235.191586 
L 559.150332 235.125229 
L 557.069814 234.743841 
L 554.140224 235.78347 
L 553.890951 235.736105 
L 552.30633 236.367273 
L 550.584429 237.053193 
L 550.491619 237.090549 
L 548.791586 237.775677 
L 546.746964 238.608361 
L 546.468562 238.721768 
L 544.819588 239.393487 
L 544.2245 239.635786 
L 539.737553 241.463477 
L 537.603345 242.332873 
L 535.423701 243.219959 
L 533.310487 244.079948 
L 531.20873 244.929909 
L 530.018341 245.411342 
L 525.410306 247.310185 
L 524.294208 247.744041 
L 521.981554 248.683189 
L 521.284907 248.959762 
L 519.515921 249.665392 
L 518.210645 250.19483 
L 514.903222 251.53592 
L 510.294093 253.405086 
L 509.021915 253.920954 
L 505.846338 255.2088 
L 504.506073 255.752273 
L 501.435669 256.997543 
L 498.039526 258.374887 
L 497.630238 258.540908 
L 496.538743 258.983604 
L 493.410519 260.252305 
L 492.68933 260.544844 
L 488.245428 262.347235 
L 485.353207 263.520351 
L 485.092027 263.626315 
L 484.475018 263.876453 
L 483.034446 264.501013 
L 482.32981 264.806513 
L 478.633946 266.409045 
L 477.105502 267.071876 
L 474.955826 267.94689 
L 471.224434 269.465978 
L 471.110651 269.512158 
L 469.582118 270.13455 
L 468.951244 270.401662 
L 465.809225 271.731903 
L 464.236008 272.41272 
L 463.192605 272.864233 
L 461.283171 273.690367 
L 461.189288 273.731062 
L 461.109228 273.769335 
L 460.857872 273.88982 
L 458.220788 274.824005 
L 457.963852 274.875704 
L 457.16488 275.036548 
L 450.688041 277.680672 
L 443.907072 280.434883 
L 442.95094 280.820567 
L 440.971913 281.618982 
L 440.698312 281.729684 
L 435.859162 283.687616 
L 435.748625 283.735611 
L 433.808256 284.527115 
L 433.551872 284.631585 
L 432.795518 284.9401 
L 431.627566 285.407973 
L 431.379789 285.507098 
L 431.0508 285.648715 
L 429.436431 286.321234 
L 428.42238 286.747894 
L 427.993945 286.905728 
L 424.420043 288.339357 
L 424.240987 288.411225 
L 424.017126 288.514231 
L 423.891321 288.572169 
L 422.338095 289.202545 
L 422.039889 289.322857 
L 420.309921 290.020516 
L 419.666835 290.300786 
L 419.032608 290.596742 
L 416.816435 291.479028 
L 416.577565 291.574146 
L 416.549867 291.585144 
L 416.430697 291.632609 
L 414.385833 292.446583 
L 413.581302 292.767888 
L 413.178547 292.945888 
L 411.035766 293.802271 
L 410.732692 293.923403 
L 409.163694 294.550408 
L 403.484736 296.829675 
L 403.439117 296.847982 
L 400.298118 298.108543 
L 397.147509 299.373144 
L 394.33816 300.500683 
L 394.019556 300.631596 
L 392.722506 301.144218 
L 390.496233 302.057867 
L 389.355298 302.516205 
L 387.64822 303.201935 
L 387.315362 303.335732 
L 385.036737 304.132651 
L 384.67796 304.264311 
L 384.087768 304.481059 
L 383.776653 304.595335 
L 383.462229 304.695685 
L 381.529027 305.16915 
L 379.67008 305.638149 
L 376.640327 306.374323 
L 374.194068 306.8274 
L 373.198878 307.011796 
L 372.25508 307.161261 
L 369.849228 307.542129 
L 369.944026 307.918373 
L 369.146735 307.823703 
L 364.740778 308.113053 
L 362.259898 308.122499 
L 360.590187 308.128865 
L 358.786072 308.050682 
L 357.593864 307.999149 
L 357.155429 307.980147 
L 355.966066 307.928649 
L 355.682639 307.89298 
L 354.077349 307.697854 
L 351.460396 307.362175 
L 351.26002 307.330583 
L 348.489284 306.894442 
L 348.098357 308.286468 
L 347.865233 308.201985 
L 347.007101 307.891214 
L 345.179468 307.229289 
L 344.638495 307.033262 
L 341.182985 305.780796 
L 340.300559 305.461004 
L 339.798051 305.267572 
L 339.171006 305.033405 
L 339.351211 304.410885 
L 339.756363 303.011247 
L 340.024228 302.086075 
L 340.131886 301.714106 
L 340.201399 301.471552 
L 338.796278 301.010717 
L 337.351216 300.536453 
L 336.406698 300.186136 
L 335.456806 299.834061 
L 332.802856 298.846964 
L 331.337234 298.299343 
L 331.236861 298.26185 
L 329.613418 297.655383 
L 328.130941 297.101527 
L 326.455296 296.482518 
L 324.830332 295.884835 
L 323.19286 295.211475 
L 321.466396 294.50084 
L 319.668774 293.751045 
L 317.928067 293.035995 
L 316.124969 292.206998 
L 314.332539 291.38242 
L 312.581764 290.474088 
L 312.458964 290.410147 
L 310.9501 289.627907 
L 309.896811 289.081761 
L 308.937662 288.564054 
L 307.978637 288.048129 
L 307.311332 287.68845 
L 306.17127 287.075128 
L 305.966136 286.964769 
L 304.7766 286.324492 
L 304.597315 284.886896 
L 304.539933 284.426723 
L 304.383545 283.175747 
L 303.709319 283.211981 
L 302.660772 283.522084 
L 301.35443 284.060042 
L 301.013308 283.485891 
L 299.654136 283.435944 
L 298.829676 283.539316 
L 298.060126 282.855633 
L 297.654604 282.495416 
L 296.567591 281.529818 
L 291.366585 276.681196 
L 290.937043 276.280765 
L 288.922059 274.602731 
L 286.729281 273.10446 
L 286.438455 272.91942 
L 284.30146 271.560029 
L 280.087772 269.155829 
L 277.824052 267.888341 
L 271.041267 263.979344 
L 265.602856 260.808551 
L 264.889121 260.392504 
L 261.364231 258.211984 
L 261.052772 258.019459 
L 260.730229 257.819947 
L 257.011865 255.302386 
L 250.565338 251.210891 
L 248.248885 249.769063 
L 241.859717 245.893987 
L 236.55547 242.627326 
L 232.405317 240.033818 
L 231.725807 239.530734 
L 228.368808 237.173675 
L 228.26306 237.097099 
L 223.518662 233.800836 
L 218.826142 230.500771 
L 216.580882 229.304877 
L 214.499081 227.900722 
L 212.353484 226.1945 
L 210.071751 224.520389 
L 208.885466 223.702121 
L 207.863727 222.986109 
L 203.149388 219.920831 
L 200.454249 218.131397 
L 200.182538 218.047092 
L 198.240062 216.713528 
L 198.143822 216.658241 
L 197.051691 216.03109 
L 196.779086 215.874606 
L 194.251442 214.423072 
L 193.64429 214.074599 
L 190.229087 212.052963 
L 189.053215 211.36128 
L 187.666933 210.751854 
L 184.891388 208.913136 
L 183.913472 208.34333 
L 182.448636 207.674698 
L 180.738115 206.493375 
L 178.783931 205.429068 
L 177.793654 204.889754 
L 174.647323 203.508888 
L 170.847881 202.206289 
L 170.197994 202.128121 
L 170.108638 202.548325 
L 167.356184 202.049481 
L 166.942468 202.090582 
L 163.028714 200.911426 
L 162.066199 200.644316 
L 159.849815 199.998072 
L 157.16173 199.199503 
L 156.58522 200.978826 
L 154.979553 200.518903 
L 154.634754 200.998088 
L 154.434381 201.252445 
L 153.810201 201.242125 
L 151.820835 200.791583 
L 151.556646 200.731751 
L 150.177699 200.419468 
L 149.98394 200.274535 
L 148.850121 199.42626 
L 147.37862 198.538434 
L 147.111736 198.460566 
L 138.866181 196.065601 
L 137.70705 195.730425 
L 123.929431 191.754679 
L 122.948655 191.471643 
L 122.899903 191.70256 
L 122.689562 192.687793 
L 122.573268 193.232746 
L 122.500667 193.572471 
L 122.499966 194.048205 
L 122.498956 194.83316 
L 122.22025 195.037764 
L 122.017885 195.188781 
L 121.870787 195.803825 
L 121.72099 196.421601 
L 121.188809 198.620575 
L 121.113151 198.588667 
L 120.064748 203.000184 
L 119.164492 206.803678 
L 119.120945 207.221583 
L 118.869199 208.367875 
L 118.248023 211.332464 
L 118.115982 211.960828 
L 117.202651 216.30067 
L 116.586562 216.29763 
L 116.568787 216.294086 
L 115.982834 218.690131 
L 115.600484 220.25012 
L 115.363636 221.317926 
L 117.087414 221.732942 
L 117.277743 221.778813 
L 119.285173 222.261971 
L 120.442432 222.540715 
L 120.796457 222.62643 
L 121.307003 222.749111 
L 121.315227 222.751075 
L 121.495535 222.794131 
L 121.956734 222.905025 
L 122.64116 223.069651 
L 122.748807 223.096156 
L 122.760535 223.09898 
L 137.773223 226.714633 
L 142.577893 227.87147 
L 151.271546 237.329703 
L 200.30043 290.684146 
L 206.874256 297.839394 
" clip-path="url(#p88f2c84837)" style="fill: #d3d3d3"/>
   </g>
   <g id="matplotlib.axis_1">
    <g id="xtick_1">
     <g id="line2d_1">
      <defs>
       <path id="m22e3d0ea77" d="M 0 0 
L 0 3.5 
" style="stroke: #000000; stroke-width: 0.8"/>
      </defs>
      <g>
       <use xlink:href="#m22e3d0ea77" x="184.3526" y="552.941193" style="stroke: #000000; stroke-width: 0.8"/>
      </g>
     </g>
     <g id="text_1">
      <!-- 13.48 -->
      <g transform="translate(170.038538 567.53963) scale(0.1 -0.1)">
       <defs>
        <path id="DejaVuSans-31" d="M 794 531 
L 1825 531 
L 1825 4091 
L 703 3866 
L 703 4441 
L 1819 4666 
L 2450 4666 
L 2450 531 
L 3481 531 
L 3481 0 
L 794 0 
L 794 531 
z
" transform="scale(0.015625)"/>
        <path id="DejaVuSans-33" d="M 2597 2516 
Q 3050 2419 3304 2112 
Q 3559 1806 3559 1356 
Q 3559 666 3084 287 
Q 2609 -91 1734 -91 
Q 1441 -91 1130 -33 
Q 819 25 488 141 
L 488 750 
Q 750 597 1062 519 
Q 1375 441 1716 441 
Q 2309 441 2620 675 
Q 2931 909 2931 1356 
Q 2931 1769 2642 2001 
Q 2353 2234 1838 2234 
L 1294 2234 
L 1294 2753 
L 1863 2753 
Q 2328 2753 2575 2939 
Q 2822 3125 2822 3475 
Q 2822 3834 2567 4026 
Q 2313 4219 1838 4219 
Q 1578 4219 1281 4162 
Q 984 4106 628 3988 
L 628 4550 
Q 988 4650 1302 4700 
Q 1616 4750 1894 4750 
Q 2613 4750 3031 4423 
Q 3450 4097 3450 3541 
Q 3450 3153 3228 2886 
Q 3006 2619 2597 2516 
z
" transform="scale(0.015625)"/>
        <path id="DejaVuSans-2e" d="M 684 794 
L 1344 794 
L 1344 0 
L 684 0 
L 684 794 
z
" transform="scale(0.015625)"/>
        <path id="DejaVuSans-34" d="M 2419 4116 
L 825 1625 
L 2419 1625 
L 2419 4116 
z
M 2253 4666 
L 3047 4666 
L 3047 1625 
L 3713 1625 
L 3713 1100 
L 3047 1100 
L 3047 0 
L 2419 0 
L 2419 1100 
L 313 1100 
L 313 1709 
L 2253 4666 
z
" transform="scale(0.015625)"/>
        <path id="DejaVuSans-38" d="M 2034 2216 
Q 1584 2216 1326 1975 
Q 1069 1734 1069 1313 
Q 1069 891 1326 650 
Q 1584 409 2034 409 
Q 2484 409 2743 651 
Q 3003 894 3003 1313 
Q 3003 1734 2745 1975 
Q 2488 2216 2034 2216 
z
M 1403 2484 
Q 997 2584 770 2862 
Q 544 3141 544 3541 
Q 544 4100 942 4425 
Q 1341 4750 2034 4750 
Q 2731 4750 3128 4425 
Q 3525 4100 3525 3541 
Q 3525 3141 3298 2862 
Q 3072 2584 2669 2484 
Q 3125 2378 3379 2068 
Q 3634 1759 3634 1313 
Q 3634 634 3220 271 
Q 2806 -91 2034 -91 
Q 1263 -91 848 271 
Q 434 634 434 1313 
Q 434 1759 690 2068 
Q 947 2378 1403 2484 
z
M 1172 3481 
Q 1172 3119 1398 2916 
Q 1625 2713 2034 2713 
Q 2441 2713 2670 2916 
Q 2900 3119 2900 3481 
Q 2900 3844 2670 4047 
Q 2441 4250 2034 4250 
Q 1625 4250 1398 4047 
Q 1172 3844 1172 3481 
z
" transform="scale(0.015625)"/>
       </defs>
       <use xlink:href="#DejaVuSans-31"/>
       <use xlink:href="#DejaVuSans-33" x="63.623047"/>
       <use xlink:href="#DejaVuSans-2e" x="127.246094"/>
       <use xlink:href="#DejaVuSans-34" x="159.033203"/>
       <use xlink:href="#DejaVuSans-38" x="222.65625"/>
      </g>
     </g>
    </g>
    <g id="xtick_2">
     <g id="line2d_2">
      <g>
       <use xlink:href="#m22e3d0ea77" x="305.096657" y="552.941193" style="stroke: #000000; stroke-width: 0.8"/>
      </g>
     </g>
     <g id="text_2">
      <!-- 13.50 -->
      <g transform="translate(290.782595 567.53963) scale(0.1 -0.1)">
       <defs>
        <path id="DejaVuSans-35" d="M 691 4666 
L 3169 4666 
L 3169 4134 
L 1269 4134 
L 1269 2991 
Q 1406 3038 1543 3061 
Q 1681 3084 1819 3084 
Q 2600 3084 3056 2656 
Q 3513 2228 3513 1497 
Q 3513 744 3044 326 
Q 2575 -91 1722 -91 
Q 1428 -91 1123 -41 
Q 819 9 494 109 
L 494 744 
Q 775 591 1075 516 
Q 1375 441 1709 441 
Q 2250 441 2565 725 
Q 2881 1009 2881 1497 
Q 2881 1984 2565 2268 
Q 2250 2553 1709 2553 
Q 1456 2553 1204 2497 
Q 953 2441 691 2322 
L 691 4666 
z
" transform="scale(0.015625)"/>
        <path id="DejaVuSans-30" d="M 2034 4250 
Q 1547 4250 1301 3770 
Q 1056 3291 1056 2328 
Q 1056 1369 1301 889 
Q 1547 409 2034 409 
Q 2525 409 2770 889 
Q 3016 1369 3016 2328 
Q 3016 3291 2770 3770 
Q 2525 4250 2034 4250 
z
M 2034 4750 
Q 2819 4750 3233 4129 
Q 3647 3509 3647 2328 
Q 3647 1150 3233 529 
Q 2819 -91 2034 -91 
Q 1250 -91 836 529 
Q 422 1150 422 2328 
Q 422 3509 836 4129 
Q 1250 4750 2034 4750 
z
" transform="scale(0.015625)"/>
       </defs>
       <use xlink:href="#DejaVuSans-31"/>
       <use xlink:href="#DejaVuSans-33" x="63.623047"/>
       <use xlink:href="#DejaVuSans-2e" x="127.246094"/>
       <use xlink:href="#DejaVuSans-35" x="159.033203"/>
       <use xlink:href="#DejaVuSans-30" x="222.65625"/>
      </g>
     </g>
    </g>
    <g id="xtick_3">
     <g id="line2d_3">
      <g>
       <use xlink:href="#m22e3d0ea77" x="425.840714" y="552.941193" style="stroke: #000000; stroke-width: 0.8"/>
      </g>
     </g>
     <g id="text_3">
      <!-- 13.52 -->
      <g transform="translate(411.526652 567.53963) scale(0.1 -0.1)">
       <defs>
        <path id="DejaVuSans-32" d="M 1228 531 
L 3431 531 
L 3431 0 
L 469 0 
L 469 531 
Q 828 903 1448 1529 
Q 2069 2156 2228 2338 
Q 2531 2678 2651 2914 
Q 2772 3150 2772 3378 
Q 2772 3750 2511 3984 
Q 2250 4219 1831 4219 
Q 1534 4219 1204 4116 
Q 875 4013 500 3803 
L 500 4441 
Q 881 4594 1212 4672 
Q 1544 4750 1819 4750 
Q 2544 4750 2975 4387 
Q 3406 4025 3406 3419 
Q 3406 3131 3298 2873 
Q 3191 2616 2906 2266 
Q 2828 2175 2409 1742 
Q 1991 1309 1228 531 
z
" transform="scale(0.015625)"/>
       </defs>
       <use xlink:href="#DejaVuSans-31"/>
       <use xlink:href="#DejaVuSans-33" x="63.623047"/>
       <use xlink:href="#DejaVuSans-2e" x="127.246094"/>
       <use xlink:href="#DejaVuSans-35" x="159.033203"/>
       <use xlink:href="#DejaVuSans-32" x="222.65625"/>
      </g>
     </g>
    </g>
    <g id="xtick_4">
     <g id="line2d_4">
      <g>
       <use xlink:href="#m22e3d0ea77" x="546.584771" y="552.941193" style="stroke: #000000; stroke-width: 0.8"/>
      </g>
     </g>
     <g id="text_4">
      <!-- 13.54 -->
      <g transform="translate(532.270709 567.53963) scale(0.1 -0.1)">
       <use xlink:href="#DejaVuSans-31"/>
       <use xlink:href="#DejaVuSans-33" x="63.623047"/>
       <use xlink:href="#DejaVuSans-2e" x="127.246094"/>
       <use xlink:href="#DejaVuSans-35" x="159.033203"/>
       <use xlink:href="#DejaVuSans-34" x="222.65625"/>
      </g>
     </g>
    </g>
   </g>
   <g id="matplotlib.axis_2">
    <g id="ytick_1">
     <g id="line2d_5">
      <defs>
       <path id="m0d707fdbbd" d="M 0 0 
L -3.5 0 
" style="stroke: #000000; stroke-width: 0.8"/>
      </defs>
      <g>
       <use xlink:href="#m0d707fdbbd" x="90" y="515.282462" style="stroke: #000000; stroke-width: 0.8"/>
      </g>
     </g>
     <g id="text_5">
      <!-- 52.470 -->
      <g transform="translate(48.009375 519.081681) scale(0.1 -0.1)">
       <defs>
        <path id="DejaVuSans-37" d="M 525 4666 
L 3525 4666 
L 3525 4397 
L 1831 0 
L 1172 0 
L 2766 4134 
L 525 4134 
L 525 4666 
z
" transform="scale(0.015625)"/>
       </defs>
       <use xlink:href="#DejaVuSans-35"/>
       <use xlink:href="#DejaVuSans-32" x="63.623047"/>
       <use xlink:href="#DejaVuSans-2e" x="127.246094"/>
       <use xlink:href="#DejaVuSans-34" x="159.033203"/>
       <use xlink:href="#DejaVuSans-37" x="222.65625"/>
       <use xlink:href="#DejaVuSans-30" x="286.279297"/>
      </g>
     </g>
    </g>
    <g id="ytick_2">
     <g id="line2d_6">
      <g>
       <use xlink:href="#m0d707fdbbd" x="90" y="465.712878" style="stroke: #000000; stroke-width: 0.8"/>
      </g>
     </g>
     <g id="text_6">
      <!-- 52.475 -->
      <g transform="translate(48.009375 469.512096) scale(0.1 -0.1)">
       <use xlink:href="#DejaVuSans-35"/>
       <use xlink:href="#DejaVuSans-32" x="63.623047"/>
       <use xlink:href="#DejaVuSans-2e" x="127.246094"/>
       <use xlink:href="#DejaVuSans-34" x="159.033203"/>
       <use xlink:href="#DejaVuSans-37" x="222.65625"/>
       <use xlink:href="#DejaVuSans-35" x="286.279297"/>
      </g>
     </g>
    </g>
    <g id="ytick_3">
     <g id="line2d_7">
      <g>
       <use xlink:href="#m0d707fdbbd" x="90" y="416.143293" style="stroke: #000000; stroke-width: 0.8"/>
      </g>
     </g>
     <g id="text_7">
      <!-- 52.480 -->
      <g transform="translate(48.009375 419.942512) scale(0.1 -0.1)">
       <use xlink:href="#DejaVuSans-35"/>
       <use xlink:href="#DejaVuSans-32" x="63.623047"/>
       <use xlink:href="#DejaVuSans-2e" x="127.246094"/>
       <use xlink:href="#DejaVuSans-34" x="159.033203"/>
       <use xlink:href="#DejaVuSans-38" x="222.65625"/>
       <use xlink:href="#DejaVuSans-30" x="286.279297"/>
      </g>
     </g>
    </g>
    <g id="ytick_4">
     <g id="line2d_8">
      <g>
       <use xlink:href="#m0d707fdbbd" x="90" y="366.573709" style="stroke: #000000; stroke-width: 0.8"/>
      </g>
     </g>
     <g id="text_8">
      <!-- 52.485 -->
      <g transform="translate(48.009375 370.372928) scale(0.1 -0.1)">
       <use xlink:href="#DejaVuSans-35"/>
       <use xlink:href="#DejaVuSans-32" x="63.623047"/>
       <use xlink:href="#DejaVuSans-2e" x="127.246094"/>
       <use xlink:href="#DejaVuSans-34" x="159.033203"/>
       <use xlink:href="#DejaVuSans-38" x="222.65625"/>
       <use xlink:href="#DejaVuSans-35" x="286.279297"/>
      </g>
     </g>
    </g>
    <g id="ytick_5">
     <g id="line2d_9">
      <g>
       <use xlink:href="#m0d707fdbbd" x="90" y="317.004124" style="stroke: #000000; stroke-width: 0.8"/>
      </g>
     </g>
     <g id="text_9">
      <!-- 52.490 -->
      <g transform="translate(48.009375 320.803343) scale(0.1 -0.1)">
       <defs>
        <path id="DejaVuSans-39" d="M 703 97 
L 703 672 
Q 941 559 1184 500 
Q 1428 441 1663 441 
Q 2288 441 2617 861 
Q 2947 1281 2994 2138 
Q 2813 1869 2534 1725 
Q 2256 1581 1919 1581 
Q 1219 1581 811 2004 
Q 403 2428 403 3163 
Q 403 3881 828 4315 
Q 1253 4750 1959 4750 
Q 2769 4750 3195 4129 
Q 3622 3509 3622 2328 
Q 3622 1225 3098 567 
Q 2575 -91 1691 -91 
Q 1453 -91 1209 -44 
Q 966 3 703 97 
z
M 1959 2075 
Q 2384 2075 2632 2365 
Q 2881 2656 2881 3163 
Q 2881 3666 2632 3958 
Q 2384 4250 1959 4250 
Q 1534 4250 1286 3958 
Q 1038 3666 1038 3163 
Q 1038 2656 1286 2365 
Q 1534 2075 1959 2075 
z
" transform="scale(0.015625)"/>
       </defs>
       <use xlink:href="#DejaVuSans-35"/>
       <use xlink:href="#DejaVuSans-32" x="63.623047"/>
       <use xlink:href="#DejaVuSans-2e" x="127.246094"/>
       <use xlink:href="#DejaVuSans-34" x="159.033203"/>
       <use xlink:href="#DejaVuSans-39" x="222.65625"/>
       <use xlink:href="#DejaVuSans-30" x="286.279297"/>
      </g>
     </g>
    </g>
    <g id="ytick_6">
     <g id="line2d_10">
      <g>
       <use xlink:href="#m0d707fdbbd" x="90" y="267.43454" style="stroke: #000000; stroke-width: 0.8"/>
      </g>
     </g>
     <g id="text_10">
      <!-- 52.495 -->
      <g transform="translate(48.009375 271.233759) scale(0.1 -0.1)">
       <use xlink:href="#DejaVuSans-35"/>
       <use xlink:href="#DejaVuSans-32" x="63.623047"/>
       <use xlink:href="#DejaVuSans-2e" x="127.246094"/>
       <use xlink:href="#DejaVuSans-34" x="159.033203"/>
       <use xlink:href="#DejaVuSans-39" x="222.65625"/>
       <use xlink:href="#DejaVuSans-35" x="286.279297"/>
      </g>
     </g>
    </g>
    <g id="ytick_7">
     <g id="line2d_11">
      <g>
       <use xlink:href="#m0d707fdbbd" x="90" y="217.864956" style="stroke: #000000; stroke-width: 0.8"/>
      </g>
     </g>
     <g id="text_11">
      <!-- 52.500 -->
      <g transform="translate(48.009375 221.664174) scale(0.1 -0.1)">
       <use xlink:href="#DejaVuSans-35"/>
       <use xlink:href="#DejaVuSans-32" x="63.623047"/>
       <use xlink:href="#DejaVuSans-2e" x="127.246094"/>
       <use xlink:href="#DejaVuSans-35" x="159.033203"/>
       <use xlink:href="#DejaVuSans-30" x="222.65625"/>
       <use xlink:href="#DejaVuSans-30" x="286.279297"/>
      </g>
     </g>
    </g>
   </g>
   <g id="LineCollection_1">
    <path d="M 494.44145 290.937463 
L 494.431187 290.227626 
L 495.462341 278.15545 
" clip-path="url(#p88f2c84837)" style="fill: none; stroke: #ff0000; stroke-opacity: 0.7; stroke-width: 0.5"/>
    <path d="M 431.238577 357.444974 
L 431.620732 358.031878 
L 436.47404 365.877752 
L 436.906907 366.351637 
L 437.377205 366.443837 
L 443.706609 367.68605 
L 447.066916 368.330455 
" clip-path="url(#p88f2c84837)" style="fill: none; stroke: #ff0000; stroke-opacity: 0.7; stroke-width: 0.5"/>
    <path d="M 183.368536 233.204759 
L 183.68066 232.669408 
L 185.705538 229.960926 
" clip-path="url(#p88f2c84837)" style="fill: none; stroke: #ff0000; stroke-opacity: 0.7; stroke-width: 0.5"/>
    <path d="M 194.156414 242.382072 
L 192.923014 244.075369 
L 190.687437 247.099114 
L 188.522496 250.026693 
L 188.386056 250.77916 
" clip-path="url(#p88f2c84837)" style="fill: none; stroke: #ff0000; stroke-opacity: 0.7; stroke-width: 0.5"/>
    <path d="M 208.4833 266.617633 
L 208.788783 266.20918 
L 209.780695 264.882698 
L 211.845418 262.120681 
" clip-path="url(#p88f2c84837)" style="fill: none; stroke: #ff0000; stroke-opacity: 0.7; stroke-width: 0.5"/>
    <path d="M 494.157098 449.658281 
L 494.641885 449.006936 
L 495.470793 447.893603 
L 496.355847 446.704925 
L 498.157349 444.284938 
L 499.900893 441.942279 
" clip-path="url(#p88f2c84837)" style="fill: none; stroke: #ff0000; stroke-opacity: 0.7; stroke-width: 0.5"/>
    <path d="M 505.109791 457.923513 
L 504.536861 457.491266 
L 503.471295 456.687248 
L 501.053395 454.862096 
L 500.070538 454.120535 
L 499.793431 453.911351 
L 499.35513 453.581218 
L 498.873361 453.217377 
L 497.75829 452.375685 
L 494.58091 449.977509 
L 494.157098 449.658281 
L 493.633069 449.262715 
L 488.823833 445.63323 
L 488.299804 445.237665 
" clip-path="url(#p88f2c84837)" style="fill: none; stroke: #ff0000; stroke-opacity: 0.7; stroke-width: 0.5"/>
    <path d="M 192.592175 233.124457 
L 191.707725 234.446973 
" clip-path="url(#p88f2c84837)" style="fill: none; stroke: #ff0000; stroke-opacity: 0.7; stroke-width: 0.5"/>
    <path d="M 200.188183 260.224148 
L 202.525788 262.01361 
L 204.507198 263.545311 
L 206.259195 264.89856 
L 208.031114 266.267672 
L 208.4833 266.617633 
" clip-path="url(#p88f2c84837)" style="fill: none; stroke: #ff0000; stroke-opacity: 0.7; stroke-width: 0.5"/>
    <path d="M 200.188183 260.224148 
L 197.903102 258.477316 
L 197.211842 257.955844 
L 196.62563 257.529546 
L 195.113914 256.377549 
L 194.615241 255.997846 
" clip-path="url(#p88f2c84837)" style="fill: none; stroke: #ff0000; stroke-opacity: 0.7; stroke-width: 0.5"/>
    <path d="M 188.41926 238.055639 
L 187.197934 239.620055 
L 184.877233 242.769706 
L 182.311422 246.169188 
" clip-path="url(#p88f2c84837)" style="fill: none; stroke: #ff0000; stroke-opacity: 0.7; stroke-width: 0.5"/>
    <path d="M 192.592175 233.124457 
L 193.188047 233.349502 
L 197.982793 236.986919 
L 198.393927 237.485589 
L 204.21379 241.83185 
" clip-path="url(#p88f2c84837)" style="fill: none; stroke: #ff0000; stroke-opacity: 0.7; stroke-width: 0.5"/>
    <path d="M 182.954988 246.665876 
L 185.563663 243.280273 
L 187.842104 240.121699 
L 189.021773 238.52655 
" clip-path="url(#p88f2c84837)" style="fill: none; stroke: #ff0000; stroke-opacity: 0.7; stroke-width: 0.5"/>
    <path d="M 188.386056 250.77916 
L 189.106898 250.463897 
L 191.295987 247.55218 
L 193.546053 244.56016 
L 194.823525 242.891647 
" clip-path="url(#p88f2c84837)" style="fill: none; stroke: #ff0000; stroke-opacity: 0.7; stroke-width: 0.5"/>
    <path d="M 198.393927 237.485589 
L 197.571056 238.612801 
" clip-path="url(#p88f2c84837)" style="fill: none; stroke: #ff0000; stroke-opacity: 0.7; stroke-width: 0.5"/>
    <path d="M 462.255914 371.251095 
L 452.981563 369.464607 
" clip-path="url(#p88f2c84837)" style="fill: none; stroke: #ff0000; stroke-opacity: 0.7; stroke-width: 0.5"/>
    <path d="M 514.568277 468.145753 
L 518.198447 463.311727 
L 518.538342 462.858661 
L 521.646898 458.712661 
L 521.750737 458.580806 
L 522.286237 457.871961 
" clip-path="url(#p88f2c84837)" style="fill: none; stroke: #ff0000; stroke-opacity: 0.7; stroke-width: 0.5"/>
    <path d="M 187.478664 229.284797 
L 192.592175 233.124457 
" clip-path="url(#p88f2c84837)" style="fill: none; stroke: #ff0000; stroke-opacity: 0.7; stroke-width: 0.5"/>
    <path d="M 507.185382 496.160499 
L 508.582391 494.331381 
L 509.915405 492.574635 
L 510.947163 491.215437 
L 511.910097 489.946456 
L 512.351416 489.364509 
L 513.092785 488.732001 
L 515.153282 487.247888 
L 517.04353 485.886707 
L 519.129384 484.319317 
L 521.579281 482.478302 
L 523.93379 480.81673 
L 524.893102 480.139609 
L 525.702087 479.108562 
L 525.907352 478.846835 
L 526.223097 478.445321 
" clip-path="url(#p88f2c84837)" style="fill: none; stroke: #ff0000; stroke-opacity: 0.7; stroke-width: 0.5"/>
    <path d="M 203.275005 243.01458 
L 203.878122 242.263105 
L 204.21379 241.83185 
" clip-path="url(#p88f2c84837)" style="fill: none; stroke: #ff0000; stroke-opacity: 0.7; stroke-width: 0.5"/>
    <path d="M 207.591002 251.545506 
L 208.00938 250.975455 
L 209.806051 248.531675 
L 209.723342 248.121239 
" clip-path="url(#p88f2c84837)" style="fill: none; stroke: #ff0000; stroke-opacity: 0.7; stroke-width: 0.5"/>
    <path d="M 209.723342 248.121239 
L 209.286852 248.106368 
L 207.470861 250.534286 
L 207.09414 251.155889 
" clip-path="url(#p88f2c84837)" style="fill: none; stroke: #ff0000; stroke-opacity: 0.7; stroke-width: 0.5"/>
    <path d="M 209.723342 248.121239 
L 210.567946 246.998983 
L 210.713443 246.805662 
" clip-path="url(#p88f2c84837)" style="fill: none; stroke: #ff0000; stroke-opacity: 0.7; stroke-width: 0.5"/>
    <path d="M 207.09414 251.155889 
L 206.646783 251.781457 
L 203.768848 255.532883 
L 200.678404 259.581727 
L 200.188183 260.224148 
" clip-path="url(#p88f2c84837)" style="fill: none; stroke: #ff0000; stroke-opacity: 0.7; stroke-width: 0.5"/>
    <path d="M 200.84805 246.513201 
L 201.495238 246.031385 
L 203.297343 243.56282 
L 203.275005 243.01458 
" clip-path="url(#p88f2c84837)" style="fill: none; stroke: #ff0000; stroke-opacity: 0.7; stroke-width: 0.5"/>
    <path d="M 203.275005 243.01458 
L 202.784181 243.160315 
L 200.899366 245.615992 
L 200.84805 246.513201 
" clip-path="url(#p88f2c84837)" style="fill: none; stroke: #ff0000; stroke-opacity: 0.7; stroke-width: 0.5"/>
    <path d="M 187.197934 239.620055 
L 187.842104 240.121699 
" clip-path="url(#p88f2c84837)" style="fill: none; stroke: #ff0000; stroke-opacity: 0.7; stroke-width: 0.5"/>
    <path d="M 184.877233 242.769706 
L 185.563663 243.280273 
" clip-path="url(#p88f2c84837)" style="fill: none; stroke: #ff0000; stroke-opacity: 0.7; stroke-width: 0.5"/>
    <path d="M 192.923014 244.075369 
L 193.546053 244.56016 
" clip-path="url(#p88f2c84837)" style="fill: none; stroke: #ff0000; stroke-opacity: 0.7; stroke-width: 0.5"/>
    <path d="M 190.687437 247.099114 
L 191.295987 247.55218 
" clip-path="url(#p88f2c84837)" style="fill: none; stroke: #ff0000; stroke-opacity: 0.7; stroke-width: 0.5"/>
    <path d="M 210.713443 246.805662 
L 211.015907 246.81161 
L 218.145843 252.257325 
" clip-path="url(#p88f2c84837)" style="fill: none; stroke: #ff0000; stroke-opacity: 0.7; stroke-width: 0.5"/>
    <path d="M 205.07711 242.87182 
L 207.128552 244.430287 
L 210.307743 246.814584 
L 210.567946 246.998983 
" clip-path="url(#p88f2c84837)" style="fill: none; stroke: #ff0000; stroke-opacity: 0.7; stroke-width: 0.5"/>
    <path d="M 194.615241 255.997846 
L 194.348397 255.294949 
L 195.183342 254.179633 
L 197.534229 251.021059 
L 200.436916 247.101097 
L 200.84805 246.513201 
" clip-path="url(#p88f2c84837)" style="fill: none; stroke: #ff0000; stroke-opacity: 0.7; stroke-width: 0.5"/>
    <path d="M 520.466021 461.250624 
L 527.111774 466.226419 
L 530.227574 468.555198 
" clip-path="url(#p88f2c84837)" style="fill: none; stroke: #ff0000; stroke-opacity: 0.7; stroke-width: 0.5"/>
    <path d="M 507.228246 447.07174 
L 504.028528 444.687443 
L 500.538421 442.037453 
" clip-path="url(#p88f2c84837)" style="fill: none; stroke: #ff0000; stroke-opacity: 0.7; stroke-width: 0.5"/>
    <path d="M 218.145843 252.257325 
L 218.825029 252.783754 
" clip-path="url(#p88f2c84837)" style="fill: none; stroke: #ff0000; stroke-opacity: 0.7; stroke-width: 0.5"/>
    <path d="M 500.734631 485.470323 
L 501.796575 487.406511 
L 502.028403 487.861559 
" clip-path="url(#p88f2c84837)" style="fill: none; stroke: #ff0000; stroke-opacity: 0.7; stroke-width: 0.5"/>
    <path d="M 509.51695 465.896285 
L 509.203619 466.343403 
L 507.804195 468.337091 
L 507.69794 468.52149 
L 507.007888 469.7181 
L 506.286442 470.970228 
L 505.472627 472.359168 
L 505.303586 472.647662 
L 504.865888 473.39418 
L 503.711575 475.364076 
L 503.376511 475.936109 
L 502.377353 477.263582 
L 501.92396 477.866348 
L 501.76337 478.079498 
L 501.514637 478.409631 
L 500.865034 479.273133 
L 500.59336 479.634 
L 499.65699 480.879188 
L 499.434821 481.173631 
L 499.068363 481.656439 
L 498.974182 481.902304 
L 499.045421 482.158083 
L 500.734631 485.470323 
" clip-path="url(#p88f2c84837)" style="fill: none; stroke: #ff0000; stroke-opacity: 0.7; stroke-width: 0.5"/>
    <path d="M 195.291408 242.278967 
L 195.715824 241.70396 
L 197.555963 239.211602 
L 197.571056 238.612801 
" clip-path="url(#p88f2c84837)" style="fill: none; stroke: #ff0000; stroke-opacity: 0.7; stroke-width: 0.5"/>
    <path d="M 194.823525 242.891647 
L 195.291408 242.278967 
" clip-path="url(#p88f2c84837)" style="fill: none; stroke: #ff0000; stroke-opacity: 0.7; stroke-width: 0.5"/>
    <path d="M 194.626712 241.772366 
L 194.156414 242.382072 
" clip-path="url(#p88f2c84837)" style="fill: none; stroke: #ff0000; stroke-opacity: 0.7; stroke-width: 0.5"/>
    <path d="M 197.571056 238.612801 
L 197.03133 238.738708 
L 195.069843 241.213221 
L 194.626712 241.772366 
" clip-path="url(#p88f2c84837)" style="fill: none; stroke: #ff0000; stroke-opacity: 0.7; stroke-width: 0.5"/>
    <path d="M 189.514409 237.877188 
L 189.883282 237.385458 
L 191.753004 234.894091 
L 191.707725 234.446973 
" clip-path="url(#p88f2c84837)" style="fill: none; stroke: #ff0000; stroke-opacity: 0.7; stroke-width: 0.5"/>
    <path d="M 189.021773 238.52655 
L 189.357442 238.083398 
L 189.514409 237.877188 
" clip-path="url(#p88f2c84837)" style="fill: none; stroke: #ff0000; stroke-opacity: 0.7; stroke-width: 0.5"/>
    <path d="M 188.92397 237.427097 
L 188.41926 238.055639 
" clip-path="url(#p88f2c84837)" style="fill: none; stroke: #ff0000; stroke-opacity: 0.7; stroke-width: 0.5"/>
    <path d="M 191.707725 234.446973 
L 191.243464 234.468784 
L 189.286806 236.964117 
L 188.92397 237.427097 
" clip-path="url(#p88f2c84837)" style="fill: none; stroke: #ff0000; stroke-opacity: 0.7; stroke-width: 0.5"/>
    <path d="M 513.826305 469.13417 
L 514.272454 468.539335 
L 514.568277 468.145753 
" clip-path="url(#p88f2c84837)" style="fill: none; stroke: #ff0000; stroke-opacity: 0.7; stroke-width: 0.5"/>
    <path d="M 522.286237 457.871961 
L 522.45709 457.520017 
L 522.449242 457.373291 
L 522.432338 457.067942 
" clip-path="url(#p88f2c84837)" style="fill: none; stroke: #ff0000; stroke-opacity: 0.7; stroke-width: 0.5"/>
    <path d="M 499.900893 441.942279 
L 500.417074 441.247314 
L 500.89522 440.61084 
L 501.285223 440.091351 
" clip-path="url(#p88f2c84837)" style="fill: none; stroke: #ff0000; stroke-opacity: 0.7; stroke-width: 0.5"/>
    <path d="M 502.028403 487.861559 
L 503.335458 490.22702 
L 505.511265 494.305605 
L 506.028654 495.173073 
L 506.284631 495.449671 
L 507.185382 496.160499 
" clip-path="url(#p88f2c84837)" style="fill: none; stroke: #ff0000; stroke-opacity: 0.7; stroke-width: 0.5"/>
    <path d="M 187.170163 228.101075 
L 187.427348 227.771933 
L 187.707474 227.41404 
" clip-path="url(#p88f2c84837)" style="fill: none; stroke: #ff0000; stroke-opacity: 0.7; stroke-width: 0.5"/>
    <path d="M 496.310568 268.476493 
L 497.141287 259.003745 
" clip-path="url(#p88f2c84837)" style="fill: none; stroke: #ff0000; stroke-opacity: 0.7; stroke-width: 0.5"/>
    <path d="M 495.740053 274.983988 
L 496.310568 268.476493 
" clip-path="url(#p88f2c84837)" style="fill: none; stroke: #ff0000; stroke-opacity: 0.7; stroke-width: 0.5"/>
    <path d="M 495.462341 278.15545 
L 495.721941 275.194163 
L 495.740053 274.983988 
" clip-path="url(#p88f2c84837)" style="fill: none; stroke: #ff0000; stroke-opacity: 0.7; stroke-width: 0.5"/>
    <path d="M 422.704387 343.49411 
L 422.612018 342.643496 
L 422.566739 342.225129 
" clip-path="url(#p88f2c84837)" style="fill: none; stroke: #ff0000; stroke-opacity: 0.7; stroke-width: 0.5"/>
    <path d="M 422.704387 343.49411 
L 423.055753 344.073083 
L 424.220329 345.990435 
L 424.577732 346.57833 
L 424.724436 346.820229 
" clip-path="url(#p88f2c84837)" style="fill: none; stroke: #ff0000; stroke-opacity: 0.7; stroke-width: 0.5"/>
    <path d="M 424.724436 346.820229 
L 425.22492 347.644076 
L 426.120237 349.118275 
" clip-path="url(#p88f2c84837)" style="fill: none; stroke: #ff0000; stroke-opacity: 0.7; stroke-width: 0.5"/>
    <path d="M 426.120237 349.118275 
L 426.542237 349.806301 
L 430.968111 357.024624 
L 431.238577 357.444974 
" clip-path="url(#p88f2c84837)" style="fill: none; stroke: #ff0000; stroke-opacity: 0.7; stroke-width: 0.5"/>
    <path d="M 361.406252 400.654781 
L 361.859646 400.781679 
L 372.203186 403.758828 
L 372.774909 403.928356 
" clip-path="url(#p88f2c84837)" style="fill: none; stroke: #ff0000; stroke-opacity: 0.7; stroke-width: 0.5"/>
    <path d="M 360.257372 400.32663 
L 361.406252 400.654781 
" clip-path="url(#p88f2c84837)" style="fill: none; stroke: #ff0000; stroke-opacity: 0.7; stroke-width: 0.5"/>
    <path d="M 180.823855 236.853081 
L 182.961025 233.911622 
L 183.368536 233.204759 
" clip-path="url(#p88f2c84837)" style="fill: none; stroke: #ff0000; stroke-opacity: 0.7; stroke-width: 0.5"/>
    <path d="M 218.825029 252.783754 
L 218.936717 252.638019 
L 219.009163 252.540863 
L 219.148019 252.354481 
L 219.449879 251.950985 
L 219.480065 251.910338 
L 219.743891 251.557402 
" clip-path="url(#p88f2c84837)" style="fill: none; stroke: #ff0000; stroke-opacity: 0.7; stroke-width: 0.5"/>
    <path d="M 215.336129 257.439329 
L 215.802805 256.828632 
L 218.825029 252.783754 
" clip-path="url(#p88f2c84837)" style="fill: none; stroke: #ff0000; stroke-opacity: 0.7; stroke-width: 0.5"/>
    <path d="M 211.845418 262.120681 
L 212.837331 260.794199 
L 213.924631 259.339827 
L 214.867642 258.07382 
L 215.336129 257.439329 
" clip-path="url(#p88f2c84837)" style="fill: none; stroke: #ff0000; stroke-opacity: 0.7; stroke-width: 0.5"/>
    <path d="M 205.3838 270.762642 
L 208.243019 266.938844 
L 208.4833 266.617633 
" clip-path="url(#p88f2c84837)" style="fill: none; stroke: #ff0000; stroke-opacity: 0.7; stroke-width: 0.5"/>
    <path d="M 447.066916 368.330455 
L 447.81251 368.473215 
L 449.128621 368.72602 
L 450.13623 368.919342 
L 450.675352 369.022446 
" clip-path="url(#p88f2c84837)" style="fill: none; stroke: #ff0000; stroke-opacity: 0.7; stroke-width: 0.5"/>
    <path d="M 450.675352 369.022446 
L 452.981563 369.464607 
" clip-path="url(#p88f2c84837)" style="fill: none; stroke: #ff0000; stroke-opacity: 0.7; stroke-width: 0.5"/>
    <path d="M 185.705538 229.960926 
L 186.4946 228.919964 
" clip-path="url(#p88f2c84837)" style="fill: none; stroke: #ff0000; stroke-opacity: 0.7; stroke-width: 0.5"/>
    <path d="M 186.4946 228.919964 
L 186.912374 228.405432 
" clip-path="url(#p88f2c84837)" style="fill: none; stroke: #ff0000; stroke-opacity: 0.7; stroke-width: 0.5"/>
    <path d="M 186.912374 228.405432 
L 187.026477 228.2825 
L 187.170163 228.101075 
" clip-path="url(#p88f2c84837)" style="fill: none; stroke: #ff0000; stroke-opacity: 0.7; stroke-width: 0.5"/>
    <path d="M 462.929063 371.377993 
L 462.255914 371.251095 
" clip-path="url(#p88f2c84837)" style="fill: none; stroke: #ff0000; stroke-opacity: 0.7; stroke-width: 0.5"/>
   </g>
   <g id="patch_3">
    <path d="M 90 552.941193 
L 90 174.258807 
" style="fill: none; stroke: #000000; stroke-width: 0.8; stroke-linejoin: miter; stroke-linecap: square"/>
   </g>
   <g id="patch_4">
    <path d="M 648 552.941193 
L 648 174.258807 
" style="fill: none; stroke: #000000; stroke-width: 0.8; stroke-linejoin: miter; stroke-linecap: square"/>
   </g>
   <g id="patch_5">
    <path d="M 90 552.941193 
L 648 552.941193 
" style="fill: none; stroke: #000000; stroke-width: 0.8; stroke-linejoin: miter; stroke-linecap: square"/>
   </g>
   <g id="patch_6">
    <path d="M 90 174.258807 
L 648 174.258807 
" style="fill: none; stroke: #000000; stroke-width: 0.8; stroke-linejoin: miter; stroke-linecap: square"/>
   </g>
   <g id="text_12">
    <!-- Lichtenberg_Süd -->
    <g transform="translate(373.547297 363.270902) scale(0.12 -0.12)">
     <defs>
      <path id="DejaVuSans-4c" d="M 628 4666 
L 1259 4666 
L 1259 531 
L 3531 531 
L 3531 0 
L 628 0 
L 628 4666 
z
" transform="scale(0.015625)"/>
      <path id="DejaVuSans-69" d="M 603 3500 
L 1178 3500 
L 1178 0 
L 603 0 
L 603 3500 
z
M 603 4863 
L 1178 4863 
L 1178 4134 
L 603 4134 
L 603 4863 
z
" transform="scale(0.015625)"/>
      <path id="DejaVuSans-63" d="M 3122 3366 
L 3122 2828 
Q 2878 2963 2633 3030 
Q 2388 3097 2138 3097 
Q 1578 3097 1268 2742 
Q 959 2388 959 1747 
Q 959 1106 1268 751 
Q 1578 397 2138 397 
Q 2388 397 2633 464 
Q 2878 531 3122 666 
L 3122 134 
Q 2881 22 2623 -34 
Q 2366 -91 2075 -91 
Q 1284 -91 818 406 
Q 353 903 353 1747 
Q 353 2603 823 3093 
Q 1294 3584 2113 3584 
Q 2378 3584 2631 3529 
Q 2884 3475 3122 3366 
z
" transform="scale(0.015625)"/>
      <path id="DejaVuSans-68" d="M 3513 2113 
L 3513 0 
L 2938 0 
L 2938 2094 
Q 2938 2591 2744 2837 
Q 2550 3084 2163 3084 
Q 1697 3084 1428 2787 
Q 1159 2491 1159 1978 
L 1159 0 
L 581 0 
L 581 4863 
L 1159 4863 
L 1159 2956 
Q 1366 3272 1645 3428 
Q 1925 3584 2291 3584 
Q 2894 3584 3203 3211 
Q 3513 2838 3513 2113 
z
" transform="scale(0.015625)"/>
      <path id="DejaVuSans-74" d="M 1172 4494 
L 1172 3500 
L 2356 3500 
L 2356 3053 
L 1172 3053 
L 1172 1153 
Q 1172 725 1289 603 
Q 1406 481 1766 481 
L 2356 481 
L 2356 0 
L 1766 0 
Q 1100 0 847 248 
Q 594 497 594 1153 
L 594 3053 
L 172 3053 
L 172 3500 
L 594 3500 
L 594 4494 
L 1172 4494 
z
" transform="scale(0.015625)"/>
      <path id="DejaVuSans-65" d="M 3597 1894 
L 3597 1613 
L 953 1613 
Q 991 1019 1311 708 
Q 1631 397 2203 397 
Q 2534 397 2845 478 
Q 3156 559 3463 722 
L 3463 178 
Q 3153 47 2828 -22 
Q 2503 -91 2169 -91 
Q 1331 -91 842 396 
Q 353 884 353 1716 
Q 353 2575 817 3079 
Q 1281 3584 2069 3584 
Q 2775 3584 3186 3129 
Q 3597 2675 3597 1894 
z
M 3022 2063 
Q 3016 2534 2758 2815 
Q 2500 3097 2075 3097 
Q 1594 3097 1305 2825 
Q 1016 2553 972 2059 
L 3022 2063 
z
" transform="scale(0.015625)"/>
      <path id="DejaVuSans-6e" d="M 3513 2113 
L 3513 0 
L 2938 0 
L 2938 2094 
Q 2938 2591 2744 2837 
Q 2550 3084 2163 3084 
Q 1697 3084 1428 2787 
Q 1159 2491 1159 1978 
L 1159 0 
L 581 0 
L 581 3500 
L 1159 3500 
L 1159 2956 
Q 1366 3272 1645 3428 
Q 1925 3584 2291 3584 
Q 2894 3584 3203 3211 
Q 3513 2838 3513 2113 
z
" transform="scale(0.015625)"/>
      <path id="DejaVuSans-62" d="M 3116 1747 
Q 3116 2381 2855 2742 
Q 2594 3103 2138 3103 
Q 1681 3103 1420 2742 
Q 1159 2381 1159 1747 
Q 1159 1113 1420 752 
Q 1681 391 2138 391 
Q 2594 391 2855 752 
Q 3116 1113 3116 1747 
z
M 1159 2969 
Q 1341 3281 1617 3432 
Q 1894 3584 2278 3584 
Q 2916 3584 3314 3078 
Q 3713 2572 3713 1747 
Q 3713 922 3314 415 
Q 2916 -91 2278 -91 
Q 1894 -91 1617 61 
Q 1341 213 1159 525 
L 1159 0 
L 581 0 
L 581 4863 
L 1159 4863 
L 1159 2969 
z
" transform="scale(0.015625)"/>
      <path id="DejaVuSans-72" d="M 2631 2963 
Q 2534 3019 2420 3045 
Q 2306 3072 2169 3072 
Q 1681 3072 1420 2755 
Q 1159 2438 1159 1844 
L 1159 0 
L 581 0 
L 581 3500 
L 1159 3500 
L 1159 2956 
Q 1341 3275 1631 3429 
Q 1922 3584 2338 3584 
Q 2397 3584 2469 3576 
Q 2541 3569 2628 3553 
L 2631 2963 
z
" transform="scale(0.015625)"/>
      <path id="DejaVuSans-67" d="M 2906 1791 
Q 2906 2416 2648 2759 
Q 2391 3103 1925 3103 
Q 1463 3103 1205 2759 
Q 947 2416 947 1791 
Q 947 1169 1205 825 
Q 1463 481 1925 481 
Q 2391 481 2648 825 
Q 2906 1169 2906 1791 
z
M 3481 434 
Q 3481 -459 3084 -895 
Q 2688 -1331 1869 -1331 
Q 1566 -1331 1297 -1286 
Q 1028 -1241 775 -1147 
L 775 -588 
Q 1028 -725 1275 -790 
Q 1522 -856 1778 -856 
Q 2344 -856 2625 -561 
Q 2906 -266 2906 331 
L 2906 616 
Q 2728 306 2450 153 
Q 2172 0 1784 0 
Q 1141 0 747 490 
Q 353 981 353 1791 
Q 353 2603 747 3093 
Q 1141 3584 1784 3584 
Q 2172 3584 2450 3431 
Q 2728 3278 2906 2969 
L 2906 3500 
L 3481 3500 
L 3481 434 
z
" transform="scale(0.015625)"/>
      <path id="DejaVuSans-5f" d="M 3263 -1063 
L 3263 -1509 
L -63 -1509 
L -63 -1063 
L 3263 -1063 
z
" transform="scale(0.015625)"/>
      <path id="DejaVuSans-53" d="M 3425 4513 
L 3425 3897 
Q 3066 4069 2747 4153 
Q 2428 4238 2131 4238 
Q 1616 4238 1336 4038 
Q 1056 3838 1056 3469 
Q 1056 3159 1242 3001 
Q 1428 2844 1947 2747 
L 2328 2669 
Q 3034 2534 3370 2195 
Q 3706 1856 3706 1288 
Q 3706 609 3251 259 
Q 2797 -91 1919 -91 
Q 1588 -91 1214 -16 
Q 841 59 441 206 
L 441 856 
Q 825 641 1194 531 
Q 1563 422 1919 422 
Q 2459 422 2753 634 
Q 3047 847 3047 1241 
Q 3047 1584 2836 1778 
Q 2625 1972 2144 2069 
L 1759 2144 
Q 1053 2284 737 2584 
Q 422 2884 422 3419 
Q 422 4038 858 4394 
Q 1294 4750 2059 4750 
Q 2388 4750 2728 4690 
Q 3069 4631 3425 4513 
z
" transform="scale(0.015625)"/>
      <path id="DejaVuSans-fc" d="M 544 1381 
L 544 3500 
L 1119 3500 
L 1119 1403 
Q 1119 906 1312 657 
Q 1506 409 1894 409 
Q 2359 409 2629 706 
Q 2900 1003 2900 1516 
L 2900 3500 
L 3475 3500 
L 3475 0 
L 2900 0 
L 2900 538 
Q 2691 219 2414 64 
Q 2138 -91 1772 -91 
Q 1169 -91 856 284 
Q 544 659 544 1381 
z
M 1991 3584 
L 1991 3584 
z
M 2278 4850 
L 2913 4850 
L 2913 4219 
L 2278 4219 
L 2278 4850 
z
M 1056 4850 
L 1691 4850 
L 1691 4219 
L 1056 4219 
L 1056 4850 
z
" transform="scale(0.015625)"/>
      <path id="DejaVuSans-64" d="M 2906 2969 
L 2906 4863 
L 3481 4863 
L 3481 0 
L 2906 0 
L 2906 525 
Q 2725 213 2448 61 
Q 2172 -91 1784 -91 
Q 1150 -91 751 415 
Q 353 922 353 1747 
Q 353 2572 751 3078 
Q 1150 3584 1784 3584 
Q 2172 3584 2448 3432 
Q 2725 3281 2906 2969 
z
M 947 1747 
Q 947 1113 1208 752 
Q 1469 391 1925 391 
Q 2381 391 2643 752 
Q 2906 1113 2906 1747 
Q 2906 2381 2643 2742 
Q 2381 3103 1925 3103 
Q 1469 3103 1208 2742 
Q 947 2381 947 1747 
z
" transform="scale(0.015625)"/>
     </defs>
     <use xlink:href="#DejaVuSans-4c"/>
     <use xlink:href="#DejaVuSans-69" x="55.712891"/>
     <use xlink:href="#DejaVuSans-63" x="83.496094"/>
     <use xlink:href="#DejaVuSans-68" x="138.476562"/>
     <use xlink:href="#DejaVuSans-74" x="201.855469"/>
     <use xlink:href="#DejaVuSans-65" x="241.064453"/>
     <use xlink:href="#DejaVuSans-6e" x="302.587891"/>
     <use xlink:href="#DejaVuSans-62" x="365.966797"/>
     <use xlink:href="#DejaVuSans-65" x="429.443359"/>
     <use xlink:href="#DejaVuSans-72" x="490.966797"/>
     <use xlink:href="#DejaVuSans-67" x="530.330078"/>
     <use xlink:href="#DejaVuSans-5f" x="593.806641"/>
     <use xlink:href="#DejaVuSans-53" x="643.806641"/>
     <use xlink:href="#DejaVuSans-fc" x="707.283203"/>
     <use xlink:href="#DejaVuSans-64" x="770.662109"/>
    </g>
   </g>
  </g>
 </g>
 <defs>
  <clipPath id="p88f2c84837">
   <rect x="90" y="174.258807" width="558" height="378.682386"/>
  </clipPath>
 </defs>
</svg>
