<?xml version="1.0" encoding="utf-8" standalone="no"?>
<!DOCTYPE svg PUBLIC "-//W3C//DTD SVG 1.1//EN"
  "http://www.w3.org/Graphics/SVG/1.1/DTD/svg11.dtd">
<svg xmlns:xlink="http://www.w3.org/1999/xlink" width="720pt" height="720pt" viewBox="0 0 720 720" xmlns="http://www.w3.org/2000/svg" version="1.1">
 <metadata>
  <rdf:RDF xmlns:dc="http://purl.org/dc/elements/1.1/" xmlns:cc="http://creativecommons.org/ns#" xmlns:rdf="http://www.w3.org/1999/02/22-rdf-syntax-ns#">
   <cc:Work>
    <dc:type rdf:resource="http://purl.org/dc/dcmitype/StillImage"/>
    <dc:date>2024-10-15T13:04:05.910626</dc:date>
    <dc:format>image/svg+xml</dc:format>
    <dc:creator>
     <cc:Agent>
      <dc:title>Matplotlib v3.9.2, https://matplotlib.org/</dc:title>
     </cc:Agent>
    </dc:creator>
   </cc:Work>
  </rdf:RDF>
 </metadata>
 <defs>
  <style type="text/css">*{stroke-linejoin: round; stroke-linecap: butt}</style>
 </defs>
 <g id="figure_1">
  <g id="patch_1">
   <path d="M 0 720 
L 720 720 
L 720 0 
L 0 0 
z
" style="fill: #ffffff"/>
  </g>
  <g id="axes_1">
   <g id="patch_2">
    <path d="M 184.652999 640.8 
L 553.347001 640.8 
L 553.347001 86.4 
L 184.652999 86.4 
z
" style="fill: #ffffff"/>
   </g>
   <g id="PatchCollection_1">
    <path d="M 212.871843 582.738118 
L 214.249366 582.789586 
L 216.159173 582.837099 
L 216.134791 583.699572 
L 216.125718 584.022562 
L 216.778173 584.032485 
L 216.79854 583.764404 
L 218.059371 583.802143 
L 218.09021 582.907739 
L 220.530574 582.989655 
L 222.917819 583.06646 
L 223.178682 583.082345 
L 223.637512 583.097448 
L 224.774523 583.130278 
L 225.540263 583.164658 
L 225.724126 583.169198 
L 225.725895 583.169031 
L 228.051489 582.950464 
L 230.17249 582.751076 
L 232.210387 582.630352 
L 232.254083 582.627778 
L 233.119998 582.593798 
L 233.657944 582.601071 
L 234.508824 582.718076 
L 236.047599 582.929507 
L 237.036518 583.065492 
L 237.498358 583.262605 
L 237.76427 583.331441 
L 238.564525 583.538459 
L 239.352039 583.557817 
L 239.73422 583.561793 
L 240.967023 583.574544 
L 245.305481 583.632699 
L 248.230679 583.652749 
L 251.243274 583.517147 
L 256.0049 583.525826 
L 259.868468 583.591083 
L 262.812882 583.819963 
L 263.771377 583.899201 
L 264.34677 583.922251 
L 264.351082 583.922562 
L 264.578808 583.938967 
L 266.15451 584.011197 
L 268.772309 584.194035 
L 268.885772 584.196611 
L 269.969259 584.225304 
L 271.735071 584.270198 
L 272.762859 584.297031 
L 273.920979 584.454131 
L 276.875838 584.869375 
L 277.258615 584.847874 
L 278.829464 584.759943 
L 282.27342 584.862311 
L 284.38674 585.473604 
L 285.8419 585.985864 
L 287.718708 586.786771 
L 289.156782 587.57076 
L 290.443191 588.423394 
L 290.487099 588.451992 
L 293.199033 590.623726 
L 294.257971 591.638104 
L 296.102955 593.824909 
L 297.431317 595.960026 
L 297.727601 596.292111 
L 298.053932 596.659855 
L 299.237103 599.133242 
L 299.998991 602.09468 
L 300.412033 604.51174 
L 300.564323 608.90865 
L 300.65344 611.722185 
L 300.53199 613.535322 
L 301.599171 613.61679 
L 302.252351 613.727777 
L 306.480801 614.022292 
L 308.41593 614.153741 
L 309.126073 614.201876 
L 310.415057 614.291311 
L 311.337675 614.364848 
L 312.48161 614.534281 
L 313.865666 614.614087 
L 314.568124 614.599841 
L 319.19406 614.910608 
L 324.624512 615.273183 
L 327.760963 615.490069 
L 329.238585 615.6 
L 329.357938 614.643277 
L 329.458485 613.837304 
L 329.468117 613.734307 
L 329.491784 613.504813 
L 329.6257 612.60561 
L 329.492611 612.58911 
L 330.360086 606.488649 
L 331.182273 606.334638 
L 331.078871 605.53831 
L 331.066157 604.887082 
L 331.117189 603.867472 
L 331.241751 602.66096 
L 331.388389 601.482831 
L 331.894479 597.619819 
L 331.887322 596.652147 
L 331.915382 596.213904 
L 332.231283 593.817253 
L 332.714606 590.382945 
L 332.744153 590.047246 
L 332.807737 589.564518 
L 332.856458 589.295521 
L 332.930973 588.549033 
L 333.046606 588.00612 
L 333.35629 586.790086 
L 333.419517 586.50038 
L 333.54344 585.591942 
L 333.497902 585.045769 
L 333.484004 584.545189 
L 333.522754 583.997086 
L 333.623918 583.252366 
L 333.659516 582.957707 
L 333.798899 581.882284 
L 333.924504 580.873461 
L 334.275894 578.281345 
L 334.351846 577.860177 
L 334.629307 576.321608 
L 335.317629 571.010853 
L 335.531687 569.358973 
L 335.644158 568.562869 
L 336.240064 566.727797 
L 336.625184 564.073081 
L 337.023168 564.104528 
L 337.11684 563.450952 
L 337.136996 563.28212 
L 337.294344 562.104722 
L 337.397855 561.340878 
L 337.47376 560.780818 
L 337.586743 559.947386 
L 337.772304 558.57898 
L 337.957423 557.21275 
L 338.045835 556.560678 
L 338.144739 555.830961 
L 338.169249 555.649881 
L 338.346134 554.345317 
L 338.523618 553.035779 
L 338.715599 551.618954 
L 338.901948 550.244244 
L 339.270527 547.525377 
L 339.409548 546.499793 
L 339.797125 543.640632 
L 339.98481 542.255692 
L 340.173298 540.865565 
L 340.36498 539.467896 
L 340.550853 538.103539 
L 340.737898 536.710716 
L 340.924472 535.322166 
L 341.112448 533.923524 
L 341.297203 532.548288 
L 341.482737 531.166678 
L 341.671928 529.758927 
L 341.856017 528.388527 
L 342.029321 527.098575 
L 342.373146 524.539482 
L 342.497113 523.616936 
L 342.660549 522.324597 
L 342.729038 521.88021 
L 346.18279 521.87443 
L 346.198309 521.751957 
L 346.333854 520.87111 
L 347.33408 513.359548 
L 348.514811 504.492904 
L 348.555535 504.122737 
L 348.595203 503.765941 
L 348.734909 502.716727 
L 348.917445 501.343219 
L 349.10286 499.949945 
L 349.640967 495.900549 
L 349.65591 495.787452 
L 349.838458 494.41073 
L 350.026397 493.003919 
L 350.368031 490.431812 
L 351.474245 490.140862 
L 351.613244 489.0939 
L 351.617468 489.062083 
L 351.755878 488.01968 
L 351.81902 487.544024 
L 352.02868 485.965347 
L 352.193112 484.727016 
L 352.363112 483.446571 
L 352.525067 482.227089 
L 352.689021 480.992542 
L 352.857335 479.7252 
L 353.018435 478.511536 
L 353.188864 477.227869 
L 353.352158 475.998437 
L 353.513208 474.785613 
L 353.768715 472.861688 
L 353.910635 471.792935 
L 354.117045 470.238925 
L 354.323387 468.684916 
L 354.488856 467.438459 
L 354.655189 466.186324 
L 354.81988 464.946102 
L 354.986268 463.693128 
L 355.150481 462.45676 
L 355.316682 461.204767 
L 355.483505 459.948989 
L 355.65141 458.684593 
L 355.793829 457.612336 
L 355.945145 456.47281 
L 356.919059 456.57807 
L 357.051562 455.560245 
L 357.256943 453.981519 
L 357.564475 451.716836 
L 357.748188 450.332968 
L 357.945532 448.933731 
L 358.129662 447.549715 
L 358.313434 446.165078 
L 358.496177 444.78123 
L 358.591137 444.063202 
L 358.679333 443.397095 
L 359.144207 439.818754 
L 359.262532 438.927499 
L 359.300096 438.655231 
L 359.000115 438.623542 
L 358.718241 438.593718 
L 358.680588 438.589305 
L 358.644397 438.577805 
L 358.611068 438.559607 
L 358.581869 438.535386 
L 358.557794 438.50596 
L 358.5397 438.4725 
L 358.528311 438.436249 
L 358.524069 438.398457 
L 358.527073 438.360518 
L 358.632368 437.563381 
L 358.685806 437.148583 
L 358.863153 435.860378 
L 358.917502 435.584983 
L 358.980249 435.311306 
L 359.051332 435.039768 
L 359.130683 434.770438 
L 359.218102 434.503742 
L 359.313732 434.239886 
L 359.417297 433.979014 
L 359.528804 433.721477 
L 359.648118 433.467417 
L 359.775035 433.217187 
L 359.909629 432.970995 
L 360.051625 432.728988 
L 360.169051 432.523326 
L 360.293812 432.32199 
L 360.425706 432.125332 
L 360.564527 431.933566 
L 360.710142 431.746905 
L 360.862345 431.565562 
L 361.020934 431.389892 
L 361.185771 431.219966 
L 361.356515 431.056141 
L 361.533101 430.898628 
L 361.715181 430.747503 
L 361.902552 430.603051 
L 362.09494 430.465487 
L 362.292207 430.334883 
L 362.499894 430.181706 
L 362.712958 430.036039 
L 362.930987 429.898098 
L 363.153842 429.768028 
L 363.38118 429.645974 
L 363.612724 429.532152 
L 363.84813 429.426709 
L 364.087121 429.32972 
L 364.329421 429.2414 
L 364.574751 429.161685 
L 364.822699 429.090862 
L 365.073055 429.028937 
L 365.325404 428.976057 
L 365.579536 428.932157 
L 365.754199 428.897822 
L 365.930112 428.870242 
L 366.106929 428.849492 
L 366.21849 428.840744 
L 366.284371 428.835579 
L 366.462228 428.828506 
L 366.640293 428.828347 
L 366.818145 428.834972 
L 371.820107 428.926483 
L 372.032847 428.495976 
L 372.129973 428.299392 
L 373.482743 428.219505 
L 374.134799 428.18103 
L 376.862268 428.019928 
L 378.088821 427.943363 
L 381.962887 427.722092 
L 382.653835 427.676634 
L 383.63613 427.59402 
L 385.09784 427.510804 
L 386.535197 427.419068 
L 387.928415 427.343598 
L 389.303932 427.264715 
L 389.434843 426.971465 
L 389.917811 426.745062 
L 391.504746 425.882494 
L 392.038856 425.731117 
L 392.229413 425.67711 
L 392.313746 425.572338 
L 393.256927 424.638548 
L 393.241552 424.83246 
L 393.470622 425.038804 
L 393.890526 425.303673 
L 394.354564 425.507216 
L 394.795873 425.671443 
L 395.344417 425.778567 
L 395.801851 425.808908 
L 396.255234 425.780932 
L 397.482039 425.705969 
L 397.593275 425.699129 
L 397.844289 425.683828 
L 399.172448 425.602719 
L 400.45571 425.524401 
L 401.71245 425.447666 
L 402.954852 425.371852 
L 404.20693 425.29543 
L 405.452605 425.21942 
L 406.704822 425.142935 
L 407.947505 425.067134 
L 409.211558 424.989931 
L 410.305695 424.923259 
L 411.017389 424.879749 
L 411.246269 424.86581 
L 411.472363 424.851995 
L 412.340539 424.798792 
L 412.596635 424.783121 
L 412.94204 424.761961 
L 413.071933 424.754054 
L 415.805385 424.586715 
L 417.190072 424.501961 
L 418.573576 424.417306 
L 419.985412 424.330904 
L 421.159739 424.259031 
L 421.349148 424.247424 
L 422.476981 424.171662 
L 424.217394 424.065861 
L 425.607777 423.979979 
L 427.003429 423.899659 
L 428.394215 423.812942 
L 430.920606 423.655584 
L 431.44202 423.407233 
L 431.615459 423.380993 
L 431.832049 423.348234 
L 432.011327 423.321249 
L 433.165021 423.146959 
L 433.474587 423.100257 
L 434.107252 423.007424 
L 436.602472 423.330841 
L 436.839753 422.305302 
L 437.081046 421.869305 
L 437.305718 421.463341 
L 437.76688 420.0162 
L 438.6271 418.08572 
L 439.722949 418.287084 
L 440.260945 418.382741 
L 440.292667 418.957125 
L 442.398513 419.727493 
L 443.763073 420.226999 
L 445.204782 420.754677 
L 446.320195 421.163686 
L 446.526534 421.208013 
L 447.889039 421.505468 
L 448.367902 421.61049 
L 449.22978 421.780929 
L 449.34526 421.808894 
L 450.565202 422.108285 
L 450.714097 422.144881 
L 452.096653 422.483956 
L 453.44888 422.815602 
L 454.256804 423.014031 
L 454.798305 423.14661 
L 455.954075 423.429754 
L 456.157778 423.485391 
L 457.486325 423.850019 
L 458.8319 424.219417 
L 458.985853 424.261647 
L 460.892379 424.785477 
L 461.544834 424.964226 
L 462.707722 425.301412 
L 463.528127 425.578446 
L 465.388958 426.206777 
L 465.474486 425.578421 
L 466.084311 425.709034 
L 467.330844 426.047164 
L 467.48087 426.035244 
L 468.488607 425.955167 
L 468.636475 425.943361 
L 469.87518 425.658209 
L 470.743787 425.45678 
L 471.229682 425.346378 
L 472.347065 425.086562 
L 474.059907 424.705725 
L 474.725746 424.559408 
L 474.902351 424.520409 
L 475.515031 424.385559 
L 476.050508 424.662255 
L 476.301382 424.791817 
L 477.325297 425.320844 
L 478.397604 426.173393 
L 479.227761 426.812137 
L 480.606755 427.62438 
L 481.555967 428.448626 
L 481.976703 428.876945 
L 482.853889 429.976219 
L 483.033813 430.201744 
L 483.424085 430.498724 
L 483.858599 431.337279 
L 485.107222 433.275802 
L 485.684015 434.318615 
L 486.052365 434.940159 
L 487.627633 438.19523 
L 488.517434 439.225851 
L 489.683504 440.356613 
L 490.171259 440.742385 
L 491.601428 441.691196 
L 492.262995 442.080876 
L 493.843557 442.877661 
L 494.690736 443.325669 
L 497.281635 444.579069 
L 500.413092 446.410956 
L 501.210568 446.855558 
L 502.19364 447.35772 
L 502.578991 447.554562 
L 505.377436 449.444819 
L 506.549598 450.179898 
L 507.247403 450.510819 
L 507.660573 450.741054 
L 508.074228 451.024464 
L 509.326352 451.555309 
L 511.111512 452.45912 
L 513.966127 453.744841 
L 515.275823 454.291347 
L 517.412499 455.542589 
L 517.528146 455.612016 
L 517.639467 455.688236 
L 517.746038 455.77105 
L 517.847366 455.860186 
L 517.943236 455.955231 
L 518.033222 456.055912 
L 518.116968 456.161817 
L 518.19426 456.272602 
L 518.264738 456.387783 
L 518.328119 456.507088 
L 518.384322 456.629958 
L 518.929012 456.28434 
L 519.382771 456.342725 
L 520.506144 455.858128 
L 520.746466 455.614115 
L 521.858762 455.168666 
L 522.625613 454.862096 
L 522.754813 454.726494 
L 522.882343 454.694426 
L 523.008149 454.656171 
L 523.278656 454.551546 
L 523.488469 454.443641 
L 523.601441 454.376217 
L 523.83239 454.312135 
L 523.922611 454.285832 
L 524.546792 453.78213 
L 524.990366 453.365212 
L 525.531258 452.793054 
L 525.763894 452.547727 
L 526.000434 452.306028 
L 526.240743 452.068169 
L 526.484752 451.834221 
L 526.732461 451.604113 
L 528.977383 448.951126 
L 529.085632 448.805875 
L 529.187519 448.656067 
L 529.2827 448.501918 
L 529.371183 448.343707 
L 529.452694 448.181859 
L 529.527101 448.016587 
L 529.594198 447.848174 
L 529.653994 447.677039 
L 529.706286 447.503465 
L 529.910973 446.893681 
L 529.971391 446.836447 
L 530.022574 446.377694 
L 530.034373 446.05054 
L 529.989516 445.677046 
L 529.911702 445.3896 
L 529.83389 445.102223 
L 529.817468 444.985768 
L 529.801045 444.869242 
L 529.788246 444.749152 
L 529.775378 444.629132 
L 528.474044 440.890544 
L 528.123769 439.884301 
L 527.763342 438.561889 
L 527.743502 437.58214 
L 527.765142 436.949045 
L 527.789732 436.563216 
L 527.807795 436.414076 
L 527.839001 436.156425 
L 527.893286 435.867223 
L 527.91608 435.721204 
L 528.011065 435.364252 
L 528.053613 435.273334 
L 528.159989 435.028464 
L 528.377112 434.480702 
L 528.408171 434.386725 
L 528.486149 434.150869 
L 528.634863 433.700892 
L 528.926969 432.817328 
L 529.056208 432.426368 
L 529.23204 431.894583 
L 530.873755 426.928384 
L 531.166597 426.04271 
L 531.183411 425.893735 
L 531.262948 425.91237 
L 531.458356 425.958011 
L 534.726034 426.721442 
L 534.86179 426.753161 
L 535.22019 426.836908 
L 535.229892 426.726998 
L 534.883094 426.637712 
L 534.752386 426.604007 
L 531.164816 425.680322 
L 531.121782 425.200427 
L 531.139929 422.486085 
L 531.145616 422.4026 
L 531.119142 421.864236 
L 531.017485 421.023559 
L 530.890235 420.339087 
L 530.766675 419.708006 
L 530.68638 419.308093 
L 530.537523 418.79412 
L 530.35358 418.15901 
L 530.156755 417.602187 
L 530.022954 417.299697 
L 529.728577 416.819079 
L 529.405796 416.290169 
L 527.90166 413.147523 
L 527.82109 412.979186 
L 527.31971 411.931676 
L 525.792258 408.620906 
L 525.765329 408.562522 
L 524.674901 406.198707 
L 524.348838 405.492149 
L 524.159164 405.08097 
L 522.350402 401.944237 
L 521.303293 400.332802 
L 520.236625 398.691215 
L 518.738116 396.385203 
L 518.701614 396.329314 
L 517.729423 394.833124 
L 517.59439 394.625427 
L 516.455984 393.152218 
L 515.669429 391.771954 
L 515.594567 391.650779 
L 515.51358 391.533638 
L 515.426684 391.420807 
L 515.334025 391.312702 
L 515.235956 391.209525 
L 515.132692 391.111552 
L 515.024447 391.019058 
L 514.911645 390.932385 
L 514.794498 390.851597 
L 513.747258 390.240732 
L 510.775657 388.308572 
L 509.956715 387.717471 
L 509.665633 387.50733 
L 509.529835 387.392599 
L 509.3984 387.272889 
L 509.271402 387.14834 
L 509.149123 387.019225 
L 509.031706 386.885682 
L 508.919293 386.747847 
L 508.812027 386.605927 
L 508.710053 386.460129 
L 507.458121 384.223247 
L 506.678972 383.028193 
L 506.370458 382.554932 
L 506.172506 381.968654 
L 505.908669 381.769091 
L 505.984795 381.773111 
L 505.970642 381.751663 
L 505.535949 381.092892 
L 505.720379 381.081919 
L 505.694612 381.054682 
L 505.58834 380.942235 
L 505.385041 380.691232 
L 505.170953 380.426744 
L 505.073016 380.305747 
L 504.966145 379.92111 
L 504.899252 379.634362 
L 504.768218 378.913286 
L 504.427504 376.404071 
L 504.030285 374.081237 
L 503.867675 372.582124 
L 503.704924 371.083015 
L 503.648015 370.55916 
L 503.591176 370.035305 
L 503.330951 367.756872 
L 503.228458 365.403279 
L 503.121597 362.951444 
L 504.068061 356.773887 
L 504.26944 356.243892 
L 504.671277 355.581148 
L 505.102976 354.84856 
L 505.151689 354.766114 
L 506.151906 353.0686 
L 507.797018 350.14441 
L 507.930464 349.907247 
L 509.524724 347.883208 
L 509.875937 347.417914 
L 510.324249 346.827641 
L 511.012527 345.861343 
L 511.345343 345.317932 
L 511.562575 344.781341 
L 512.984819 341.269221 
L 513.281715 340.535873 
L 513.311907 340.46148 
L 513.532139 339.721885 
L 513.647256 338.88673 
L 513.72562 338.317721 
L 513.895402 337.753552 
L 514.970835 335.31073 
L 515.006341 335.230013 
L 516.719604 331.338437 
L 516.967182 330.944516 
L 517.074001 330.774481 
L 517.733174 329.725538 
L 518.812129 328.115268 
L 520.163071 325.380446 
L 522.310173 318.529478 
L 524.428306 314.470297 
L 524.823887 313.700638 
L 525.109379 313.119595 
L 528.618468 307.031676 
L 528.654612 306.968978 
L 528.927577 306.495458 
L 529.315402 305.310211 
L 529.371491 304.880436 
L 529.441274 304.106068 
L 529.567757 303.446806 
L 529.98098 302.479941 
L 530.080944 302.09396 
L 530.437446 300.711066 
L 530.804157 298.769452 
L 531.026509 297.838972 
L 532.067549 294.711802 
L 532.288771 294.044322 
L 532.440819 293.387005 
L 532.54032 292.966371 
L 532.543558 292.507584 
L 532.510957 291.231567 
L 532.520368 290.482077 
L 532.535315 289.855405 
L 532.532082 289.115388 
L 532.649407 288.61844 
L 532.975826 287.84295 
L 533.344772 287.131409 
L 533.736892 286.196271 
L 534.280406 284.516335 
L 534.47879 284.078387 
L 535.050926 283.256636 
L 535.446746 282.157058 
L 535.967555 279.477938 
L 536.097364 277.795429 
L 536.521544 276.237412 
L 536.584464 275.567589 
L 536.534948 274.806466 
L 536.588183 274.008455 
L 536.412848 272.699318 
L 536.21696 271.965946 
L 536.417251 270.293376 
L 536.287915 268.676263 
L 536.416736 266.43232 
L 536.28441 265.379865 
L 536.319828 264.112228 
L 536.188972 262.531694 
L 535.880865 261.515254 
L 535.714984 258.395147 
L 535.219069 256.870556 
L 535.200201 255.8975 
L 534.541386 253.844353 
L 532.3678 249.906163 
L 531.777713 248.110036 
L 531.363502 246.347077 
L 531.105501 244.48503 
L 531.040892 244.286917 
L 530.413299 242.324505 
L 529.673452 241.158608 
L 526.709698 236.669787 
L 526.397883 236.197529 
L 525.731592 235.417358 
L 525.411682 235.115731 
L 525.191202 234.692438 
L 524.880574 234.377002 
L 523.940297 233.144473 
L 523.631412 232.768553 
L 522.881141 231.510558 
L 522.764007 231.101798 
L 522.041732 229.721096 
L 521.634275 228.531351 
L 520.73575 225.489881 
L 520.822187 222.399972 
L 520.72086 219.935172 
L 520.236198 214.57189 
L 519.550468 211.769228 
L 518.677012 207.771387 
L 518.431881 206.607176 
L 517.911091 204.198009 
L 517.895682 204.116337 
L 517.84766 202.384 
L 517.794505 200.920121 
L 518.093915 197.85908 
L 518.088191 197.744861 
L 518.226435 197.079984 
L 518.381504 196.314463 
L 518.381853 196.312737 
L 518.425385 195.836315 
L 518.381802 195.138744 
L 518.082302 193.816405 
L 517.467195 192.147567 
L 517.060291 191.17432 
L 515.78272 187.973226 
L 515.484869 186.739402 
L 514.764355 183.857277 
L 514.720909 183.245452 
L 514.720834 183.245174 
L 514.757201 182.787692 
L 514.96621 181.993462 
L 514.966143 181.993603 
L 515.043238 181.514633 
L 515.04317 181.514705 
L 515.06517 180.971826 
L 515.065237 180.971685 
L 514.612669 179.01124 
L 514.471433 177.872452 
L 514.539821 177.244589 
L 514.872046 175.534472 
L 515.863682 172.437935 
L 515.961521 172.020824 
L 515.994949 171.715749 
L 515.948141 167.878811 
L 515.939424 166.793393 
L 515.673663 164.692507 
L 515.606402 164.161029 
L 515.358391 163.499768 
L 515.107616 162.85764 
L 514.659439 161.535226 
L 514.697498 160.843736 
L 514.372562 160.471286 
L 514.422908 160.011642 
L 514.167588 159.69296 
L 513.881898 158.849833 
L 513.543489 158.035768 
L 513.732326 157.713377 
L 513.13662 155.629888 
L 511.886737 152.832269 
L 511.763716 152.121867 
L 511.528433 151.427582 
L 511.223239 150.269941 
L 510.901344 149.605176 
L 510.373763 148.162242 
L 510.187033 146.942308 
L 509.657722 145.905719 
L 509.671292 145.296127 
L 509.022871 143.909177 
L 508.701716 143.030273 
L 508.649939 142.531477 
L 508.492567 142.068795 
L 508.2296 141.642227 
L 508.054902 140.890285 
L 507.851313 140.443399 
L 507.35056 139.729048 
L 507.327796 139.294185 
L 507.131023 138.679373 
L 507.093645 138.562563 
L 507.078172 138.051382 
L 506.222928 138.047825 
L 505.594862 138.040284 
L 502.596469 138.012723 
L 501.093644 137.998885 
L 499.07239 137.980323 
L 495.8107 137.950398 
L 494.328376 137.936255 
L 492.854149 137.922447 
L 489.801884 137.893897 
L 489.454807 136.983655 
L 488.957692 135.680201 
L 488.626791 134.81241 
L 488.438779 134.176679 
L 487.944302 132.504463 
L 487.621325 131.412256 
L 487.377412 130.587544 
L 487.196345 129.975367 
L 486.162228 126.478435 
L 486.040612 126.072921 
L 485.456911 124.093372 
L 484.358686 123.258222 
L 481.961014 121.437747 
L 480.042533 119.981205 
L 479.702947 119.72236 
L 479.67795 119.703426 
L 476.531591 117.313354 
L 476.019262 116.844853 
L 475.362852 117.085809 
L 474.688004 117.268987 
L 474.697708 116.862695 
L 474.698861 116.81501 
L 470.098607 118.241812 
L 469.212086 118.515152 
L 468.480597 118.747615 
L 466.903787 119.23416 
L 465.901663 119.52762 
L 464.896332 119.817583 
L 463.53082 120.222663 
L 462.190198 120.612788 
L 461.056971 120.943176 
L 459.631008 121.359814 
L 459.176158 121.495539 
L 458.481542 121.433077 
L 456.950522 121.295458 
L 454.778204 121.100203 
L 452.838376 120.925783 
L 449.468063 120.618431 
L 449.192018 120.599945 
L 448.682137 120.542149 
L 448.184904 120.481936 
L 448.542031 122.689557 
L 447.538025 122.625998 
L 447.03715 122.596608 
L 445.766316 122.522075 
L 445.413763 120.236445 
L 444.788179 118.482685 
L 444.344873 117.222253 
L 442.490569 113.346282 
L 442.334796 113.018825 
L 441.892568 112.091655 
L 441.803334 111.904462 
L 441.74258 111.778061 
L 441.668525 111.6 
L 440.528611 113.63459 
L 439.614685 115.265994 
L 437.890992 117.641647 
L 437.723141 117.873022 
L 437.151319 118.582483 
L 437.13806 118.620904 
L 436.489488 120.574305 
L 436.42589 120.765239 
L 436.380185 120.817304 
L 434.798745 122.621838 
L 434.280483 123.213879 
L 434.986768 122.792107 
L 436.219207 122.056212 
L 435.806044 123.874523 
L 432.390193 125.85886 
L 428.316689 128.287319 
L 426.835914 129.154267 
L 426.112732 129.577651 
L 425.654929 129.795315 
L 423.638787 130.703772 
L 420.786183 131.866119 
L 418.732091 132.703031 
L 411.54984 135.496359 
L 410.722292 135.82626 
L 410.361114 135.970242 
L 409.04534 136.467215 
L 408.10703 136.821769 
L 408.130061 136.969464 
L 406.734584 137.505847 
L 405.684949 137.909176 
L 404.614481 138.320613 
L 403.548377 138.730359 
L 402.502212 139.132441 
L 401.431822 139.543887 
L 400.375623 139.94981 
L 399.291185 140.366576 
L 398.241086 140.770287 
L 397.170565 141.181679 
L 396.089251 141.597344 
L 395.026214 142.005937 
L 393.930299 142.427212 
L 392.889556 142.827259 
L 391.824518 143.236601 
L 390.764812 143.643883 
L 389.71231 144.048507 
L 388.640636 144.460508 
L 388.583949 144.321875 
L 385.656436 145.431092 
L 385.725654 145.547459 
L 385.46749 145.641112 
L 384.475656 146.026855 
L 383.423814 146.435889 
L 382.427694 146.823332 
L 381.390599 147.226625 
L 380.362297 147.626461 
L 379.82188 147.836621 
L 379.289147 148.043763 
L 378.258914 148.444482 
L 377.224321 148.846829 
L 376.172635 149.255813 
L 375.145108 149.655439 
L 374.108171 150.058751 
L 373.013305 150.484616 
L 371.923492 150.908356 
L 371.103957 151.22715 
L 370.994206 151.269838 
L 370.058101 151.633939 
L 368.25729 152.334333 
L 366.807246 152.898255 
L 365.259345 153.500352 
L 364.118408 153.944154 
L 363.398271 154.224208 
L 363.110841 154.336008 
L 360.043168 155.529194 
L 359.831248 155.611662 
L 356.721244 156.821454 
L 356.242177 157.007773 
L 356.181646 156.851961 
L 351.954044 158.484125 
L 350.47467 159.040182 
L 342.876187 161.905141 
L 337.810111 163.820808 
L 337.647294 163.868125 
L 337.334282 163.959148 
L 337.332147 163.961674 
L 337.093797 164.243686 
L 334.089611 168.235349 
L 332.800501 170.09358 
L 332.581466 170.4093 
L 332.535211 170.475972 
L 332.373354 170.674643 
L 331.989865 170.968015 
L 331.810382 171.105334 
L 331.678036 171.207456 
L 329.223365 172.934891 
L 328.86042 173.136442 
L 328.312764 173.406023 
L 326.4699 174.318335 
L 324.115062 175.498055 
L 322.969637 176.069348 
L 322.783433 176.167043 
L 322.594687 176.259757 
L 322.403539 176.347419 
L 322.210194 176.429954 
L 322.034751 176.494027 
L 321.857976 176.554352 
L 321.679938 176.61079 
L 321.49938 176.652952 
L 320.986459 176.749226 
L 320.665149 176.818769 
L 319.585472 176.959718 
L 319.609368 176.958395 
L 319.633263 176.960497 
L 319.656599 176.965965 
L 319.670791 176.978047 
L 319.681562 176.993343 
L 319.688191 177.01082 
L 319.690171 177.029439 
L 319.683848 177.065209 
L 319.672269 177.099687 
L 319.655694 177.13203 
L 319.634528 177.161531 
L 319.609592 177.187334 
L 319.581089 177.209226 
L 319.549706 177.226634 
L 319.516133 177.239195 
L 317.041598 177.451733 
L 316.936724 177.473636 
L 316.832159 177.496999 
L 316.727973 177.521893 
L 316.599608 177.554754 
L 316.471845 177.589839 
L 316.344684 177.627148 
L 316.237737 177.705281 
L 316.133512 177.786922 
L 316.032006 177.872002 
L 315.921573 177.970961 
L 315.814919 178.073966 
L 315.71218 178.180875 
L 315.613494 178.291616 
L 313.629855 180.878432 
L 313.309858 181.437639 
L 312.662475 182.248711 
L 312.370227 182.696799 
L 312.265844 182.856855 
L 312.240799 182.887623 
L 310.97259 184.446128 
L 309.648656 186.073136 
L 297.625542 201.610863 
L 296.884369 202.587612 
L 291.464517 209.610197 
L 289.311245 212.31543 
L 286.229073 216.258238 
L 282.111281 221.365414 
L 280.044552 223.523701 
L 279.681901 223.900711 
L 275.385043 228.377411 
L 273.204897 230.561044 
L 268.64764 235.135319 
L 268.424951 235.394735 
L 268.218267 235.635304 
L 266.303406 237.595735 
L 260.690647 243.342257 
L 260.573228 243.459338 
L 259.996456 244.034396 
L 259.892297 244.138276 
L 259.597867 244.432009 
L 259.469734 244.546793 
L 255.796295 247.844555 
L 255.050999 248.51907 
L 254.676266 248.858216 
L 253.912627 249.54941 
L 251.467053 251.64965 
L 250.333729 252.622155 
L 249.600113 253.300725 
L 248.676437 254.154894 
L 248.216843 254.455861 
L 247.767895 254.868636 
L 247.476221 255.135837 
L 246.978539 255.593359 
L 245.602389 256.854026 
L 245.396778 257.03825 
L 244.13366 258.169987 
L 242.681654 259.498471 
L 242.133042 259.892469 
L 242.349186 260.288415 
L 241.482605 260.767408 
L 243.188672 264.561271 
L 244.056299 266.709599 
L 244.335756 266.565434 
L 244.470423 266.891557 
L 244.160697 267.018242 
L 244.783003 268.471693 
L 245.620697 270.729519 
L 245.971936 271.103763 
L 247.504035 275.563023 
L 248.928138 280.017861 
L 250.109053 284.320857 
L 250.38171 284.435691 
L 250.304683 285.20349 
L 250.614448 286.469485 
L 251.543054 290.26525 
L 252.580421 295.133839 
L 252.799252 295.653223 
L 252.790321 295.776195 
L 252.755706 295.901299 
L 253.77159 300.408045 
L 253.469753 300.842265 
L 253.506896 301.012655 
L 254.883643 306.462606 
L 255.133781 306.407104 
L 255.247978 306.842112 
L 254.999932 306.897641 
L 256.090603 311.557312 
L 256.159705 311.664082 
L 257.091394 315.775612 
L 257.452573 317.498381 
L 257.596334 318.184093 
L 257.874817 319.512304 
L 257.793537 319.71845 
L 257.906461 320.231756 
L 257.970903 320.524307 
L 258.132142 320.681259 
L 258.2394 321.186854 
L 259.596729 327.342365 
L 259.835431 328.367459 
L 260.270907 330.234634 
L 260.307798 330.406707 
L 261.076065 333.432144 
L 261.841188 336.896946 
L 261.987691 337.553811 
L 262.008763 337.849695 
L 262.663275 341.258264 
L 263.471286 345.082314 
L 264.400275 348.359768 
L 265.562489 352.258077 
L 266.116879 352.284916 
L 266.151665 352.425654 
L 266.413237 356.946792 
L 266.261904 357.177009 
L 266.295476 357.326647 
L 266.387542 357.737581 
L 266.43354 357.943014 
L 267.01363 360.869644 
L 267.134022 361.271544 
L 267.333184 362.287875 
L 268.127562 366.341719 
L 269.31601 370.267041 
L 269.856628 372.182052 
L 272.407702 383.507148 
L 274.143108 385.163263 
L 270.889796 386.25952 
L 271.414539 387.81984 
L 271.335129 387.846409 
L 271.06691 387.935533 
L 270.532273 388.113257 
L 269.538748 388.443611 
L 270.204496 388.303813 
L 270.510848 388.719811 
L 270.641241 389.316418 
L 270.967668 390.7183 
L 268.617763 391.591805 
L 267.051735 392.221568 
L 266.25038 391.830565 
L 260.856348 394.069158 
L 259.683695 394.597342 
L 257.701451 395.436714 
L 257.470179 395.51538 
L 253.243191 396.911324 
L 246.819117 400.270859 
L 245.71078 400.885132 
L 242.51192 402.658018 
L 242.187511 402.83798 
L 241.785373 403.058321 
L 241.709359 402.91263 
L 241.47914 403.045936 
L 241.509151 403.099202 
L 239.414942 404.298511 
L 238.830575 404.633149 
L 237.768424 405.241399 
L 237.80734 405.317755 
L 233.714279 407.481197 
L 233.045323 407.775579 
L 232.672922 407.939482 
L 230.660948 408.79388 
L 229.389455 409.252146 
L 227.443116 409.88291 
L 225.574946 410.378668 
L 224.781612 410.581904 
L 224.624953 410.620554 
L 224.30632 410.690065 
L 223.470912 410.853424 
L 220.891176 411.265847 
L 219.896651 411.422421 
L 218.566928 411.571073 
L 218.118681 411.600764 
L 217.707042 411.627886 
L 215.231786 411.791088 
L 212.927847 412.134722 
L 212.42216 412.211587 
L 212.442451 412.256315 
L 212.213309 412.29157 
L 212.246871 412.364888 
L 212.34472 412.579171 
L 212.479591 412.875786 
L 212.625654 413.194813 
L 212.459874 413.216744 
L 209.726141 413.544223 
L 205.510124 414.036778 
L 205.05044 414.086359 
L 203.306532 414.27046 
L 201.411817 414.470492 
L 201.931244 415.486059 
L 202.287447 415.454539 
L 202.334782 415.458456 
L 202.381137 415.468962 
L 202.425532 415.485868 
L 202.467125 415.508912 
L 202.50507 415.537552 
L 202.538588 415.571245 
L 202.567108 415.609374 
L 203.253233 417.114202 
L 202.731895 417.222713 
L 204.874245 421.93898 
L 205.098097 422.431815 
L 205.305014 422.887331 
L 205.481787 423.276447 
L 205.488574 423.291333 
L 206.343334 425.17399 
L 206.552468 425.622193 
L 206.756495 426.072878 
L 206.955201 426.525838 
L 207.148727 426.981072 
L 207.336932 427.438581 
L 207.519813 427.898228 
L 207.69744 428.359939 
L 207.871005 428.827534 
L 208.039034 429.297061 
L 208.201667 429.768586 
L 208.358762 430.241971 
L 208.510319 430.717218 
L 208.656264 431.194119 
L 208.796738 431.672739 
L 208.870257 431.93106 
L 209.012029 432.449279 
L 209.147214 432.969171 
L 209.275883 433.490804 
L 209.397964 434.014041 
L 209.513523 434.53874 
L 209.62242 435.064833 
L 209.821826 436.594299 
L 209.978206 436.801506 
L 210.034153 437.45106 
L 210.057098 437.891077 
L 209.868448 438.306865 
L 210.080944 441.746106 
L 210.327544 445.738488 
L 210.355717 446.192235 
L 210.397139 446.864311 
L 210.410493 447.080961 
L 210.634112 447.192439 
L 210.64082 447.373794 
L 210.650101 447.622955 
L 210.669446 448.146 
L 210.679544 448.418067 
L 210.753974 448.384038 
L 210.761531 448.617091 
L 210.648433 449.496134 
L 210.908261 454.166206 
L 211.593896 465.679665 
L 211.636284 466.678507 
L 211.64304 466.838406 
L 211.663453 467.31838 
L 211.683106 467.781667 
L 211.831839 471.287565 
L 212.169421 479.971321 
L 211.990631 480.149365 
L 211.996412 482.915042 
L 211.999241 487.736886 
L 212.368258 488.825264 
L 212.824673 490.171422 
L 212.849416 490.587362 
L 212.991891 492.981091 
L 213.175615 496.076671 
L 213.398736 499.841576 
L 213.44577 501.330432 
L 213.487804 502.755445 
L 213.507619 503.921919 
L 213.500592 504.80486 
L 213.504268 505.413908 
L 213.421116 507.082113 
L 213.368392 508.033784 
L 213.270259 510.097152 
L 212.925657 517.232236 
L 212.885945 517.208593 
L 212.667601 522.006338 
L 212.647692 522.450103 
L 212.600344 523.504325 
L 212.386162 528.270187 
L 212.196903 528.371223 
L 212.184484 528.680373 
L 211.893342 535.927157 
L 211.882681 536.192803 
L 211.810409 537.990354 
L 212.002341 537.989619 
L 211.942162 538.341334 
L 211.86383 539.18514 
L 211.826608 539.586281 
L 211.810099 539.763572 
L 211.725493 540.675295 
L 211.527248 542.922009 
L 211.485114 543.566664 
L 211.468185 543.82559 
L 211.238645 547.342074 
L 211.232638 547.433258 
L 211.226527 547.618162 
L 211.110531 551.160823 
L 211.105479 551.424746 
L 210.986056 554.95986 
L 210.976956 555.237075 
L 210.862193 558.740994 
L 210.856607 558.910722 
L 210.753064 562.074137 
L 210.730745 562.754096 
L 210.214829 578.504677 
L 209.544241 577.768886 
L 209.522398 578.448136 
L 209.399846 581.202553 
L 209.350634 582.314681 
L 209.326001 582.619122 
L 210.098245 582.651236 
L 210.278581 582.663807 
L 210.281754 582.352331 
L 210.309203 581.705252 
L 211.191569 581.702465 
L 212.885181 581.724359 
L 212.878869 582.25038 
L 212.871843 582.738118 
" clip-path="url(#p71099342fe)" style="fill: #d3d3d3"/>
   </g>
   <g id="matplotlib.axis_1">
    <g id="xtick_1">
     <g id="line2d_1">
      <defs>
       <path id="mcf1b256718" d="M 0 0 
L 0 3.5 
" style="stroke: #000000; stroke-width: 0.8"/>
      </defs>
      <g>
       <use xlink:href="#mcf1b256718" x="216.166238" y="640.8" style="stroke: #000000; stroke-width: 0.8"/>
      </g>
     </g>
     <g id="text_1">
      <!-- 13.52 -->
      <g transform="translate(201.852176 655.398438) scale(0.1 -0.1)">
       <defs>
        <path id="DejaVuSans-31" d="M 794 531 
L 1825 531 
L 1825 4091 
L 703 3866 
L 703 4441 
L 1819 4666 
L 2450 4666 
L 2450 531 
L 3481 531 
L 3481 0 
L 794 0 
L 794 531 
z
" transform="scale(0.015625)"/>
        <path id="DejaVuSans-33" d="M 2597 2516 
Q 3050 2419 3304 2112 
Q 3559 1806 3559 1356 
Q 3559 666 3084 287 
Q 2609 -91 1734 -91 
Q 1441 -91 1130 -33 
Q 819 25 488 141 
L 488 750 
Q 750 597 1062 519 
Q 1375 441 1716 441 
Q 2309 441 2620 675 
Q 2931 909 2931 1356 
Q 2931 1769 2642 2001 
Q 2353 2234 1838 2234 
L 1294 2234 
L 1294 2753 
L 1863 2753 
Q 2328 2753 2575 2939 
Q 2822 3125 2822 3475 
Q 2822 3834 2567 4026 
Q 2313 4219 1838 4219 
Q 1578 4219 1281 4162 
Q 984 4106 628 3988 
L 628 4550 
Q 988 4650 1302 4700 
Q 1616 4750 1894 4750 
Q 2613 4750 3031 4423 
Q 3450 4097 3450 3541 
Q 3450 3153 3228 2886 
Q 3006 2619 2597 2516 
z
" transform="scale(0.015625)"/>
        <path id="DejaVuSans-2e" d="M 684 794 
L 1344 794 
L 1344 0 
L 684 0 
L 684 794 
z
" transform="scale(0.015625)"/>
        <path id="DejaVuSans-35" d="M 691 4666 
L 3169 4666 
L 3169 4134 
L 1269 4134 
L 1269 2991 
Q 1406 3038 1543 3061 
Q 1681 3084 1819 3084 
Q 2600 3084 3056 2656 
Q 3513 2228 3513 1497 
Q 3513 744 3044 326 
Q 2575 -91 1722 -91 
Q 1428 -91 1123 -41 
Q 819 9 494 109 
L 494 744 
Q 775 591 1075 516 
Q 1375 441 1709 441 
Q 2250 441 2565 725 
Q 2881 1009 2881 1497 
Q 2881 1984 2565 2268 
Q 2250 2553 1709 2553 
Q 1456 2553 1204 2497 
Q 953 2441 691 2322 
L 691 4666 
z
" transform="scale(0.015625)"/>
        <path id="DejaVuSans-32" d="M 1228 531 
L 3431 531 
L 3431 0 
L 469 0 
L 469 531 
Q 828 903 1448 1529 
Q 2069 2156 2228 2338 
Q 2531 2678 2651 2914 
Q 2772 3150 2772 3378 
Q 2772 3750 2511 3984 
Q 2250 4219 1831 4219 
Q 1534 4219 1204 4116 
Q 875 4013 500 3803 
L 500 4441 
Q 881 4594 1212 4672 
Q 1544 4750 1819 4750 
Q 2544 4750 2975 4387 
Q 3406 4025 3406 3419 
Q 3406 3131 3298 2873 
Q 3191 2616 2906 2266 
Q 2828 2175 2409 1742 
Q 1991 1309 1228 531 
z
" transform="scale(0.015625)"/>
       </defs>
       <use xlink:href="#DejaVuSans-31"/>
       <use xlink:href="#DejaVuSans-33" x="63.623047"/>
       <use xlink:href="#DejaVuSans-2e" x="127.246094"/>
       <use xlink:href="#DejaVuSans-35" x="159.033203"/>
       <use xlink:href="#DejaVuSans-32" x="222.65625"/>
      </g>
     </g>
    </g>
    <g id="xtick_2">
     <g id="line2d_2">
      <g>
       <use xlink:href="#mcf1b256718" x="263.436624" y="640.8" style="stroke: #000000; stroke-width: 0.8"/>
      </g>
     </g>
     <g id="text_2">
      <!-- 13.53 -->
      <g transform="translate(249.122562 655.398438) scale(0.1 -0.1)">
       <use xlink:href="#DejaVuSans-31"/>
       <use xlink:href="#DejaVuSans-33" x="63.623047"/>
       <use xlink:href="#DejaVuSans-2e" x="127.246094"/>
       <use xlink:href="#DejaVuSans-35" x="159.033203"/>
       <use xlink:href="#DejaVuSans-33" x="222.65625"/>
      </g>
     </g>
    </g>
    <g id="xtick_3">
     <g id="line2d_3">
      <g>
       <use xlink:href="#mcf1b256718" x="310.70701" y="640.8" style="stroke: #000000; stroke-width: 0.8"/>
      </g>
     </g>
     <g id="text_3">
      <!-- 13.54 -->
      <g transform="translate(296.392947 655.398438) scale(0.1 -0.1)">
       <defs>
        <path id="DejaVuSans-34" d="M 2419 4116 
L 825 1625 
L 2419 1625 
L 2419 4116 
z
M 2253 4666 
L 3047 4666 
L 3047 1625 
L 3713 1625 
L 3713 1100 
L 3047 1100 
L 3047 0 
L 2419 0 
L 2419 1100 
L 313 1100 
L 313 1709 
L 2253 4666 
z
" transform="scale(0.015625)"/>
       </defs>
       <use xlink:href="#DejaVuSans-31"/>
       <use xlink:href="#DejaVuSans-33" x="63.623047"/>
       <use xlink:href="#DejaVuSans-2e" x="127.246094"/>
       <use xlink:href="#DejaVuSans-35" x="159.033203"/>
       <use xlink:href="#DejaVuSans-34" x="222.65625"/>
      </g>
     </g>
    </g>
    <g id="xtick_4">
     <g id="line2d_4">
      <g>
       <use xlink:href="#mcf1b256718" x="357.977395" y="640.8" style="stroke: #000000; stroke-width: 0.8"/>
      </g>
     </g>
     <g id="text_4">
      <!-- 13.55 -->
      <g transform="translate(343.663333 655.398438) scale(0.1 -0.1)">
       <use xlink:href="#DejaVuSans-31"/>
       <use xlink:href="#DejaVuSans-33" x="63.623047"/>
       <use xlink:href="#DejaVuSans-2e" x="127.246094"/>
       <use xlink:href="#DejaVuSans-35" x="159.033203"/>
       <use xlink:href="#DejaVuSans-35" x="222.65625"/>
      </g>
     </g>
    </g>
    <g id="xtick_5">
     <g id="line2d_5">
      <g>
       <use xlink:href="#mcf1b256718" x="405.247781" y="640.8" style="stroke: #000000; stroke-width: 0.8"/>
      </g>
     </g>
     <g id="text_5">
      <!-- 13.56 -->
      <g transform="translate(390.933719 655.398438) scale(0.1 -0.1)">
       <defs>
        <path id="DejaVuSans-36" d="M 2113 2584 
Q 1688 2584 1439 2293 
Q 1191 2003 1191 1497 
Q 1191 994 1439 701 
Q 1688 409 2113 409 
Q 2538 409 2786 701 
Q 3034 994 3034 1497 
Q 3034 2003 2786 2293 
Q 2538 2584 2113 2584 
z
M 3366 4563 
L 3366 3988 
Q 3128 4100 2886 4159 
Q 2644 4219 2406 4219 
Q 1781 4219 1451 3797 
Q 1122 3375 1075 2522 
Q 1259 2794 1537 2939 
Q 1816 3084 2150 3084 
Q 2853 3084 3261 2657 
Q 3669 2231 3669 1497 
Q 3669 778 3244 343 
Q 2819 -91 2113 -91 
Q 1303 -91 875 529 
Q 447 1150 447 2328 
Q 447 3434 972 4092 
Q 1497 4750 2381 4750 
Q 2619 4750 2861 4703 
Q 3103 4656 3366 4563 
z
" transform="scale(0.015625)"/>
       </defs>
       <use xlink:href="#DejaVuSans-31"/>
       <use xlink:href="#DejaVuSans-33" x="63.623047"/>
       <use xlink:href="#DejaVuSans-2e" x="127.246094"/>
       <use xlink:href="#DejaVuSans-35" x="159.033203"/>
       <use xlink:href="#DejaVuSans-36" x="222.65625"/>
      </g>
     </g>
    </g>
    <g id="xtick_6">
     <g id="line2d_6">
      <g>
       <use xlink:href="#mcf1b256718" x="452.518167" y="640.8" style="stroke: #000000; stroke-width: 0.8"/>
      </g>
     </g>
     <g id="text_6">
      <!-- 13.57 -->
      <g transform="translate(438.204104 655.398438) scale(0.1 -0.1)">
       <defs>
        <path id="DejaVuSans-37" d="M 525 4666 
L 3525 4666 
L 3525 4397 
L 1831 0 
L 1172 0 
L 2766 4134 
L 525 4134 
L 525 4666 
z
" transform="scale(0.015625)"/>
       </defs>
       <use xlink:href="#DejaVuSans-31"/>
       <use xlink:href="#DejaVuSans-33" x="63.623047"/>
       <use xlink:href="#DejaVuSans-2e" x="127.246094"/>
       <use xlink:href="#DejaVuSans-35" x="159.033203"/>
       <use xlink:href="#DejaVuSans-37" x="222.65625"/>
      </g>
     </g>
    </g>
    <g id="xtick_7">
     <g id="line2d_7">
      <g>
       <use xlink:href="#mcf1b256718" x="499.788553" y="640.8" style="stroke: #000000; stroke-width: 0.8"/>
      </g>
     </g>
     <g id="text_7">
      <!-- 13.58 -->
      <g transform="translate(485.47449 655.398438) scale(0.1 -0.1)">
       <defs>
        <path id="DejaVuSans-38" d="M 2034 2216 
Q 1584 2216 1326 1975 
Q 1069 1734 1069 1313 
Q 1069 891 1326 650 
Q 1584 409 2034 409 
Q 2484 409 2743 651 
Q 3003 894 3003 1313 
Q 3003 1734 2745 1975 
Q 2488 2216 2034 2216 
z
M 1403 2484 
Q 997 2584 770 2862 
Q 544 3141 544 3541 
Q 544 4100 942 4425 
Q 1341 4750 2034 4750 
Q 2731 4750 3128 4425 
Q 3525 4100 3525 3541 
Q 3525 3141 3298 2862 
Q 3072 2584 2669 2484 
Q 3125 2378 3379 2068 
Q 3634 1759 3634 1313 
Q 3634 634 3220 271 
Q 2806 -91 2034 -91 
Q 1263 -91 848 271 
Q 434 634 434 1313 
Q 434 1759 690 2068 
Q 947 2378 1403 2484 
z
M 1172 3481 
Q 1172 3119 1398 2916 
Q 1625 2713 2034 2713 
Q 2441 2713 2670 2916 
Q 2900 3119 2900 3481 
Q 2900 3844 2670 4047 
Q 2441 4250 2034 4250 
Q 1625 4250 1398 4047 
Q 1172 3844 1172 3481 
z
" transform="scale(0.015625)"/>
       </defs>
       <use xlink:href="#DejaVuSans-31"/>
       <use xlink:href="#DejaVuSans-33" x="63.623047"/>
       <use xlink:href="#DejaVuSans-2e" x="127.246094"/>
       <use xlink:href="#DejaVuSans-35" x="159.033203"/>
       <use xlink:href="#DejaVuSans-38" x="222.65625"/>
      </g>
     </g>
    </g>
    <g id="xtick_8">
     <g id="line2d_8">
      <g>
       <use xlink:href="#mcf1b256718" x="547.058938" y="640.8" style="stroke: #000000; stroke-width: 0.8"/>
      </g>
     </g>
     <g id="text_8">
      <!-- 13.59 -->
      <g transform="translate(532.744876 655.398438) scale(0.1 -0.1)">
       <defs>
        <path id="DejaVuSans-39" d="M 703 97 
L 703 672 
Q 941 559 1184 500 
Q 1428 441 1663 441 
Q 2288 441 2617 861 
Q 2947 1281 2994 2138 
Q 2813 1869 2534 1725 
Q 2256 1581 1919 1581 
Q 1219 1581 811 2004 
Q 403 2428 403 3163 
Q 403 3881 828 4315 
Q 1253 4750 1959 4750 
Q 2769 4750 3195 4129 
Q 3622 3509 3622 2328 
Q 3622 1225 3098 567 
Q 2575 -91 1691 -91 
Q 1453 -91 1209 -44 
Q 966 3 703 97 
z
M 1959 2075 
Q 2384 2075 2632 2365 
Q 2881 2656 2881 3163 
Q 2881 3666 2632 3958 
Q 2384 4250 1959 4250 
Q 1534 4250 1286 3958 
Q 1038 3666 1038 3163 
Q 1038 2656 1286 2365 
Q 1534 2075 1959 2075 
z
" transform="scale(0.015625)"/>
       </defs>
       <use xlink:href="#DejaVuSans-31"/>
       <use xlink:href="#DejaVuSans-33" x="63.623047"/>
       <use xlink:href="#DejaVuSans-2e" x="127.246094"/>
       <use xlink:href="#DejaVuSans-35" x="159.033203"/>
       <use xlink:href="#DejaVuSans-39" x="222.65625"/>
      </g>
     </g>
    </g>
   </g>
   <g id="matplotlib.axis_2">
    <g id="ytick_1">
     <g id="line2d_9">
      <defs>
       <path id="m9903eb35f3" d="M 0 0 
L -3.5 0 
" style="stroke: #000000; stroke-width: 0.8"/>
      </defs>
      <g>
       <use xlink:href="#m9903eb35f3" x="184.652999" y="613.023221" style="stroke: #000000; stroke-width: 0.8"/>
      </g>
     </g>
     <g id="text_9">
      <!-- 52.51 -->
      <g transform="translate(149.024874 616.822439) scale(0.1 -0.1)">
       <use xlink:href="#DejaVuSans-35"/>
       <use xlink:href="#DejaVuSans-32" x="63.623047"/>
       <use xlink:href="#DejaVuSans-2e" x="127.246094"/>
       <use xlink:href="#DejaVuSans-35" x="159.033203"/>
       <use xlink:href="#DejaVuSans-31" x="222.65625"/>
      </g>
     </g>
    </g>
    <g id="ytick_2">
     <g id="line2d_10">
      <g>
       <use xlink:href="#m9903eb35f3" x="184.652999" y="535.294126" style="stroke: #000000; stroke-width: 0.8"/>
      </g>
     </g>
     <g id="text_10">
      <!-- 52.52 -->
      <g transform="translate(149.024874 539.093345) scale(0.1 -0.1)">
       <use xlink:href="#DejaVuSans-35"/>
       <use xlink:href="#DejaVuSans-32" x="63.623047"/>
       <use xlink:href="#DejaVuSans-2e" x="127.246094"/>
       <use xlink:href="#DejaVuSans-35" x="159.033203"/>
       <use xlink:href="#DejaVuSans-32" x="222.65625"/>
      </g>
     </g>
    </g>
    <g id="ytick_3">
     <g id="line2d_11">
      <g>
       <use xlink:href="#m9903eb35f3" x="184.652999" y="457.565032" style="stroke: #000000; stroke-width: 0.8"/>
      </g>
     </g>
     <g id="text_11">
      <!-- 52.53 -->
      <g transform="translate(149.024874 461.364251) scale(0.1 -0.1)">
       <use xlink:href="#DejaVuSans-35"/>
       <use xlink:href="#DejaVuSans-32" x="63.623047"/>
       <use xlink:href="#DejaVuSans-2e" x="127.246094"/>
       <use xlink:href="#DejaVuSans-35" x="159.033203"/>
       <use xlink:href="#DejaVuSans-33" x="222.65625"/>
      </g>
     </g>
    </g>
    <g id="ytick_4">
     <g id="line2d_12">
      <g>
       <use xlink:href="#m9903eb35f3" x="184.652999" y="379.835938" style="stroke: #000000; stroke-width: 0.8"/>
      </g>
     </g>
     <g id="text_12">
      <!-- 52.54 -->
      <g transform="translate(149.024874 383.635157) scale(0.1 -0.1)">
       <use xlink:href="#DejaVuSans-35"/>
       <use xlink:href="#DejaVuSans-32" x="63.623047"/>
       <use xlink:href="#DejaVuSans-2e" x="127.246094"/>
       <use xlink:href="#DejaVuSans-35" x="159.033203"/>
       <use xlink:href="#DejaVuSans-34" x="222.65625"/>
      </g>
     </g>
    </g>
    <g id="ytick_5">
     <g id="line2d_13">
      <g>
       <use xlink:href="#m9903eb35f3" x="184.652999" y="302.106844" style="stroke: #000000; stroke-width: 0.8"/>
      </g>
     </g>
     <g id="text_13">
      <!-- 52.55 -->
      <g transform="translate(149.024874 305.906063) scale(0.1 -0.1)">
       <use xlink:href="#DejaVuSans-35"/>
       <use xlink:href="#DejaVuSans-32" x="63.623047"/>
       <use xlink:href="#DejaVuSans-2e" x="127.246094"/>
       <use xlink:href="#DejaVuSans-35" x="159.033203"/>
       <use xlink:href="#DejaVuSans-35" x="222.65625"/>
      </g>
     </g>
    </g>
    <g id="ytick_6">
     <g id="line2d_14">
      <g>
       <use xlink:href="#m9903eb35f3" x="184.652999" y="224.37775" style="stroke: #000000; stroke-width: 0.8"/>
      </g>
     </g>
     <g id="text_14">
      <!-- 52.56 -->
      <g transform="translate(149.024874 228.176969) scale(0.1 -0.1)">
       <use xlink:href="#DejaVuSans-35"/>
       <use xlink:href="#DejaVuSans-32" x="63.623047"/>
       <use xlink:href="#DejaVuSans-2e" x="127.246094"/>
       <use xlink:href="#DejaVuSans-35" x="159.033203"/>
       <use xlink:href="#DejaVuSans-36" x="222.65625"/>
      </g>
     </g>
    </g>
    <g id="ytick_7">
     <g id="line2d_15">
      <g>
       <use xlink:href="#m9903eb35f3" x="184.652999" y="146.648656" style="stroke: #000000; stroke-width: 0.8"/>
      </g>
     </g>
     <g id="text_15">
      <!-- 52.57 -->
      <g transform="translate(149.024874 150.447874) scale(0.1 -0.1)">
       <use xlink:href="#DejaVuSans-35"/>
       <use xlink:href="#DejaVuSans-32" x="63.623047"/>
       <use xlink:href="#DejaVuSans-2e" x="127.246094"/>
       <use xlink:href="#DejaVuSans-35" x="159.033203"/>
       <use xlink:href="#DejaVuSans-37" x="222.65625"/>
      </g>
     </g>
    </g>
   </g>
   <g id="LineCollection_1">
    <path d="M 312.255115 404.745781 
L 312.854031 404.564672 
L 315.055413 404.574 
L 318.512769 404.587991 
L 321.519165 404.600428 
L 323.711093 404.608978 
L 324.139835 404.862375 
L 324.669264 405.169405 
L 325.055463 405.373055 
" clip-path="url(#p71099342fe)" style="fill: none; stroke: #ff0000; stroke-opacity: 0.7; stroke-width: 0.5"/>
    <path d="M 453.243767 261.613872 
L 452.888294 263.393869 
L 452.821643 263.735877 
L 452.546056 265.133446 
L 452.102187 267.307529 
L 451.238558 272.279859 
L 451.183251 272.613316 
L 450.915228 273.942484 
L 450.729928 274.352116 
L 450.612225 274.548771 
L 450.417471 274.750867 
L 450.142357 274.938971 
L 449.839827 275.049346 
L 449.190332 275.069556 
L 448.841004 274.9996 
L 447.170468 274.684797 
L 445.964601 274.457828 
L 445.418155 274.345121 
L 444.417441 273.950257 
L 443.512686 273.491655 
L 442.650001 273.033054 
L 441.9296 272.649849 
L 441.160039 272.240994 
L 440.994592 272.15316 
L 440.152234 271.704663 
L 439.710729 271.469921 
L 439.234716 271.216525 
L 437.225724 270.148527 
L 436.902868 269.976746 
" clip-path="url(#p71099342fe)" style="fill: none; stroke: #ff0000; stroke-opacity: 0.7; stroke-width: 0.5"/>
    <path d="M 402.855427 315.3581 
L 403.114469 314.852861 
L 405.640125 309.963701 
L 405.933202 309.397833 
L 406.175226 309.038725 
L 406.328855 308.811756 
L 407.007185 308.115303 
L 407.705369 307.670693 
L 408.619578 307.291375 
L 409.160824 307.095497 
L 410.232916 306.76748 
L 410.715547 306.613577 
L 411.269083 306.44335 
L 411.756441 306.032163 
L 411.96963 305.607762 
L 412.711302 304.129355 
L 413.062521 303.429016 
L 413.45912 302.699917 
L 414.66546 300.390586 
L 415.445421 298.896632 
L 415.969177 297.885377 
L 416.114297 297.638976 
L 416.477334 297.045125 
L 416.94862 296.439616 
L 417.512083 295.956918 
L 418.046238 295.572936 
L 418.59032 295.264352 
L 419.988106 294.808859 
L 421.439779 294.438869 
L 422.308136 294.197909 
L 422.915088 293.843464 
L 423.728138 292.382157 
L 425.798109 288.5711 
L 426.201325 287.817905 
L 426.619195 287.065487 
" clip-path="url(#p71099342fe)" style="fill: none; stroke: #ff0000; stroke-opacity: 0.7; stroke-width: 0.5"/>
    <path d="M 426.619195 287.065487 
L 426.820094 286.655077 
L 426.882964 286.526824 
" clip-path="url(#p71099342fe)" style="fill: none; stroke: #ff0000; stroke-opacity: 0.7; stroke-width: 0.5"/>
    <path d="M 355.895135 456.310485 
L 356.122033 456.315926 
L 356.867959 456.310485 
L 357.223905 456.081184 
" clip-path="url(#p71099342fe)" style="fill: none; stroke: #ff0000; stroke-opacity: 0.7; stroke-width: 0.5"/>
    <path d="M 346.783768 521.630906 
L 346.858928 521.063484 
L 347.09008 519.27416 
L 347.25269 518.015726 
L 347.287198 517.748338 
L 347.446972 516.511668 
L 347.767938 514.025892 
L 347.875714 513.155326 
L 348.009962 512.228018 
L 348.072359 511.784185 
L 348.13901 511.331801 
L 348.661348 507.764813 
L 348.796068 506.849942 
L 348.858938 506.376572 
L 349.065037 504.831317 
L 349.156269 504.142637 
L 349.631809 500.567876 
L 349.873833 498.71326 
L 349.927249 498.304405 
L 349.954666 498.070441 
L 350.129566 496.777806 
L 350.56729 493.341402 
L 350.799387 491.531092 
L 350.982796 490.103208 
L 351.000287 489.869244 
L 351.039048 489.388101 
" clip-path="url(#p71099342fe)" style="fill: none; stroke: #ff0000; stroke-opacity: 0.7; stroke-width: 0.5"/>
    <path d="M 347.193602 492.089964 
L 347.285307 492.209667 
L 347.301852 492.389221 
L 347.309887 492.4755 
L 347.322178 493.871515 
L 347.323123 494.55864 
L 347.374648 502.7474 
L 347.369448 504.054026 
" clip-path="url(#p71099342fe)" style="fill: none; stroke: #ff0000; stroke-opacity: 0.7; stroke-width: 0.5"/>
    <path d="M 311.68078 486.984717 
L 311.69307 488.065152 
L 311.695433 488.217501 
L 311.698742 488.439806 
L 311.700161 488.756941 
L 311.709615 489.144809 
" clip-path="url(#p71099342fe)" style="fill: none; stroke: #ff0000; stroke-opacity: 0.7; stroke-width: 0.5"/>
    <path d="M 454.523849 183.698228 
L 446.607478 179.476761 
L 445.426191 178.824614 
L 446.100739 177.488451 
L 444.974286 176.901596 
L 444.931743 176.981657 
L 444.527108 176.854182 
L 444.134764 176.893046 
L 444.111129 176.811431 
L 442.879263 177.173648 
L 442.858464 177.116906 
L 441.621398 177.469019 
L 441.643615 177.558407 
L 440.836236 177.796258 
L 440.803147 177.701429 
L 439.614297 178.051987 
L 438.789429 177.786931 
L 437.585452 178.136712 
L 437.379353 178.123498 
L 436.2529 177.504774 
L 436.272281 177.464355 
L 433.315518 175.83593 
L 432.581882 175.455835 
L 432.853686 174.924168 
L 433.247921 174.430588 
L 435.629876 175.212543 
L 437.403461 176.076113 
L 437.744281 175.943197 
L 438.288835 174.908622 
L 438.948257 175.26229 
L 440.209904 172.859683 
L 437.126929 170.46485 
L 436.346495 169.581848 
L 438.50817 165.490188 
L 439.257878 165.86562 
L 439.41907 165.950344 
L 439.29144 166.317226 
L 439.325475 166.743958 
L 439.155302 166.805364 
L 439.505575 168.017161 
L 439.599643 167.99151 
L 439.94708 169.234399 
L 440.129544 169.19942 
L 440.299718 169.528214 
L 440.615011 169.811926 
L 440.554032 169.958056 
L 441.677177 170.553461 
L 442.122464 169.727978 
L 442.502518 170.516151 
L 442.078029 171.294997 
L 442.808357 171.692192 
L 442.77385 171.755153 
L 443.503704 172.153126 
L 443.539157 172.087834 
L 444.299265 172.50213 
L 444.26523 172.56509 
L 445.022502 172.977054 
L 445.061264 172.906321 
L 445.424773 173.103753 
L 445.465425 173.029133 
L 448.127221 174.477226 
L 448.544146 173.710817 
L 450.426452 174.715077 
L 450.009527 175.493922 
L 450.743637 175.886454 
L 455.762806 178.576658 
L 456.52575 178.9894 
L 456.915731 179.210928 
L 454.523849 183.698228 
" clip-path="url(#p71099342fe)" style="fill: none; stroke: #ff0000; stroke-opacity: 0.7; stroke-width: 0.5"/>
    <path d="M 316.69664 485.818003 
L 316.689077 485.235035 
L 316.681514 484.746119 
L 316.681514 484.655176 
L 316.680568 483.663353 
L 316.67915 482.545609 
" clip-path="url(#p71099342fe)" style="fill: none; stroke: #ff0000; stroke-opacity: 0.7; stroke-width: 0.5"/>
    <path d="M 299.513855 481.490047 
L 300.013976 481.383559 
L 300.094335 481.365681 
L 300.715468 481.217996 
" clip-path="url(#p71099342fe)" style="fill: none; stroke: #ff0000; stroke-opacity: 0.7; stroke-width: 0.5"/>
    <path d="M 426.882964 286.526824 
L 427.325888 285.654704 
L 428.073705 284.066698 
L 429.984374 280.507483 
L 430.302976 280.044995 
L 430.814442 279.404507 
L 431.474337 278.528501 
L 431.832646 278.015489 
L 432.211755 277.362564 
L 432.469378 276.85888 
L 432.727474 276.360636 
L 434.761519 272.736906 
L 435.03096 272.292295 
L 435.39447 271.686786 
L 435.966441 270.877626 
L 436.194285 270.607129 
L 436.29497 270.51774 
L 436.902868 269.976746 
" clip-path="url(#p71099342fe)" style="fill: none; stroke: #ff0000; stroke-opacity: 0.7; stroke-width: 0.5"/>
    <path d="M 300.589729 480.701874 
L 300.715468 481.217996 
L 300.858225 481.789305 
L 300.898405 481.950981 
L 301.710983 485.37417 
L 302.069765 485.706074 
L 302.636537 485.770589 
L 304.615748 485.782248 
L 305.912847 485.783803 
L 307.25769 485.785357 
L 308.431886 485.786912 
L 308.949024 485.787689 
L 309.330969 485.787689 
L 310.131729 485.779139 
L 311.668962 485.790798 
L 312.774616 485.80479 
L 313.296954 485.811008 
L 316.69664 485.818003 
" clip-path="url(#p71099342fe)" style="fill: none; stroke: #ff0000; stroke-opacity: 0.7; stroke-width: 0.5"/>
    <path d="M 398.538695 271.857012 
L 398.795846 271.993038 
L 399.981387 272.597771 
L 401.132421 273.200171 
L 403.827306 274.610177 
L 405.608927 275.542926 
L 405.948801 275.720148 
L 408.112367 276.851107 
L 408.480603 277.043875 
" clip-path="url(#p71099342fe)" style="fill: none; stroke: #ff0000; stroke-opacity: 0.7; stroke-width: 0.5"/>
    <path d="M 403.566374 258.766656 
L 403.816907 258.289399 
L 405.03081 255.994059 
L 405.293633 255.491152 
L 405.305451 255.380776 
" clip-path="url(#p71099342fe)" style="fill: none; stroke: #ff0000; stroke-opacity: 0.7; stroke-width: 0.5"/>
    <path d="M 351.039048 489.388101 
L 351.198822 488.305334 
" clip-path="url(#p71099342fe)" style="fill: none; stroke: #ff0000; stroke-opacity: 0.7; stroke-width: 0.5"/>
    <path d="M 289.123824 214.231771 
L 289.553039 214.422985 
L 290.012508 214.606425 
L 300.809536 218.502208 
L 311.476099 222.354461 
L 322.448501 226.31165 
L 324.458438 227.027535 
L 328.868765 228.620204 
L 329.843007 229.008849 
L 332.106786 230.15069 
L 336.735502 232.543191 
" clip-path="url(#p71099342fe)" style="fill: none; stroke: #ff0000; stroke-opacity: 0.7; stroke-width: 0.5"/>
    <path d="M 442.845228 259.971457 
L 442.47841 260.22874 
L 442.164062 260.518669 
L 441.9452 260.754966 
L 441.71972 261.096197 
L 441.469187 261.561017 
L 440.667008 263.047974 
L 439.857739 264.547368 
L 439.004036 266.129933 
L 438.245819 267.536052 
L 437.578361 268.772722 
L 437.180818 269.481611 
L 436.902868 269.976746 
" clip-path="url(#p71099342fe)" style="fill: none; stroke: #ff0000; stroke-opacity: 0.7; stroke-width: 0.5"/>
    <path d="M 405.305451 255.380776 
L 405.336177 254.46435 
" clip-path="url(#p71099342fe)" style="fill: none; stroke: #ff0000; stroke-opacity: 0.7; stroke-width: 0.5"/>
    <path d="M 397.132401 271.126359 
L 397.332355 270.743932 
L 398.803882 267.927029 
L 399.224116 267.123311 
L 400.708879 264.273762 
L 400.997701 263.721108 
" clip-path="url(#p71099342fe)" style="fill: none; stroke: #ff0000; stroke-opacity: 0.7; stroke-width: 0.5"/>
    <path d="M 411.269083 306.44335 
L 411.842945 306.275455 
L 412.335975 306.131656 
L 412.849805 305.981639 
L 413.078121 305.861937 
L 413.388687 305.699483 
L 413.705399 305.344261 
L 414.035819 304.797825 
L 414.146431 304.615162 
L 414.381838 304.106814 
" clip-path="url(#p71099342fe)" style="fill: none; stroke: #ff0000; stroke-opacity: 0.7; stroke-width: 0.5"/>
    <path d="M 311.668962 485.790798 
L 311.68078 486.984717 
" clip-path="url(#p71099342fe)" style="fill: none; stroke: #ff0000; stroke-opacity: 0.7; stroke-width: 0.5"/>
    <path d="M 453.865373 258.583992 
L 453.680546 259.358174 
L 453.639893 259.573484 
L 453.346817 261.120293 
L 453.243767 261.613872 
" clip-path="url(#p71099342fe)" style="fill: none; stroke: #ff0000; stroke-opacity: 0.7; stroke-width: 0.5"/>
    <path d="M 400.115163 317.822112 
L 400.170469 317.700078 
L 400.428093 317.093013 
L 401.648141 316.282299 
L 401.778608 316.228666 
" clip-path="url(#p71099342fe)" style="fill: none; stroke: #ff0000; stroke-opacity: 0.7; stroke-width: 0.5"/>
    <path d="M 400.997701 263.721108 
L 401.440624 262.872306 
L 401.839114 262.108229 
" clip-path="url(#p71099342fe)" style="fill: none; stroke: #ff0000; stroke-opacity: 0.7; stroke-width: 0.5"/>
    <path d="M 401.839114 262.108229 
L 402.180406 261.454528 
L 402.304727 261.216677 
L 402.469701 260.900319 
L 402.656419 260.542765 
L 403.566374 258.766656 
" clip-path="url(#p71099342fe)" style="fill: none; stroke: #ff0000; stroke-opacity: 0.7; stroke-width: 0.5"/>
    <path d="M 298.730585 469.242274 
L 298.748548 472.852791 
L 298.994354 474.279897 
L 299.208016 475.071179 
L 300.546713 480.526207 
L 300.589729 480.701874 
" clip-path="url(#p71099342fe)" style="fill: none; stroke: #ff0000; stroke-opacity: 0.7; stroke-width: 0.5"/>
    <path d="M 316.67915 482.545609 
L 316.678205 481.569331 
L 316.677259 480.517657 
" clip-path="url(#p71099342fe)" style="fill: none; stroke: #ff0000; stroke-opacity: 0.7; stroke-width: 0.5"/>
    <path d="M 397.132401 271.126359 
L 397.862256 271.498681 
L 398.538695 271.857012 
" clip-path="url(#p71099342fe)" style="fill: none; stroke: #ff0000; stroke-opacity: 0.7; stroke-width: 0.5"/>
    <path d="M 287.872577 213.252385 
L 288.165181 213.480908 
L 288.362771 213.635589 
L 288.36608 213.638698 
L 289.123824 214.231771 
" clip-path="url(#p71099342fe)" style="fill: none; stroke: #ff0000; stroke-opacity: 0.7; stroke-width: 0.5"/>
    <path d="M 401.778608 316.228666 
L 402.43472 315.959723 
L 402.765613 315.533768 
L 402.855427 315.3581 
" clip-path="url(#p71099342fe)" style="fill: none; stroke: #ff0000; stroke-opacity: 0.7; stroke-width: 0.5"/>
    <path d="M 311.190113 422.824014 
L 311.186804 422.19674 
L 311.184441 421.775448 
L 311.166478 421.650304 
L 311.140006 421.281091 
" clip-path="url(#p71099342fe)" style="fill: none; stroke: #ff0000; stroke-opacity: 0.7; stroke-width: 0.5"/>
    <path d="M 311.140006 421.281091 
L 311.092263 420.614176 
L 310.956125 419.926273 
L 310.75428 419.314545 
L 310.632323 419.054153 
L 310.458367 418.75645 
L 309.937921 418.154827 
L 309.711495 417.880443 
L 308.676747 416.769695 
L 307.84337 415.725793 
" clip-path="url(#p71099342fe)" style="fill: none; stroke: #ff0000; stroke-opacity: 0.7; stroke-width: 0.5"/>
    <path d="M 307.84337 415.725793 
L 307.428808 415.194903 
L 307.285106 414.831908 
L 307.131478 414.216294 
L 307.080426 413.899936 
L 307.006684 413.233798 
L 306.966504 412.605747 
L 307.017083 410.961777 
L 307.197184 410.229569 
L 307.50775 409.573535 
L 307.794681 409.279719 
" clip-path="url(#p71099342fe)" style="fill: none; stroke: #ff0000; stroke-opacity: 0.7; stroke-width: 0.5"/>
    <path d="M 307.794681 409.279719 
L 308.487192 408.570052 
L 310.673448 406.3299 
L 311.072883 405.920268 
L 312.255115 404.745781 
" clip-path="url(#p71099342fe)" style="fill: none; stroke: #ff0000; stroke-opacity: 0.7; stroke-width: 0.5"/>
    <path d="M 399.660894 318.792949 
L 399.949244 318.17578 
L 400.059384 317.944924 
L 400.115163 317.822112 
" clip-path="url(#p71099342fe)" style="fill: none; stroke: #ff0000; stroke-opacity: 0.7; stroke-width: 0.5"/>
   </g>
   <g id="patch_3">
    <path d="M 184.652999 640.8 
L 184.652999 86.4 
" style="fill: none; stroke: #000000; stroke-width: 0.8; stroke-linejoin: miter; stroke-linecap: square"/>
   </g>
   <g id="patch_4">
    <path d="M 553.347001 640.8 
L 553.347001 86.4 
" style="fill: none; stroke: #000000; stroke-width: 0.8; stroke-linejoin: miter; stroke-linecap: square"/>
   </g>
   <g id="patch_5">
    <path d="M 184.652999 640.8 
L 553.347001 640.8 
" style="fill: none; stroke: #000000; stroke-width: 0.8; stroke-linejoin: miter; stroke-linecap: square"/>
   </g>
   <g id="patch_6">
    <path d="M 184.652999 86.4 
L 553.347001 86.4 
" style="fill: none; stroke: #000000; stroke-width: 0.8; stroke-linejoin: miter; stroke-linecap: square"/>
   </g>
   <g id="text_16">
    <!-- Marzahn -->
    <g transform="translate(344.030677 346.130913) scale(0.12 -0.12)">
     <defs>
      <path id="DejaVuSans-4d" d="M 628 4666 
L 1569 4666 
L 2759 1491 
L 3956 4666 
L 4897 4666 
L 4897 0 
L 4281 0 
L 4281 4097 
L 3078 897 
L 2444 897 
L 1241 4097 
L 1241 0 
L 628 0 
L 628 4666 
z
" transform="scale(0.015625)"/>
      <path id="DejaVuSans-61" d="M 2194 1759 
Q 1497 1759 1228 1600 
Q 959 1441 959 1056 
Q 959 750 1161 570 
Q 1363 391 1709 391 
Q 2188 391 2477 730 
Q 2766 1069 2766 1631 
L 2766 1759 
L 2194 1759 
z
M 3341 1997 
L 3341 0 
L 2766 0 
L 2766 531 
Q 2569 213 2275 61 
Q 1981 -91 1556 -91 
Q 1019 -91 701 211 
Q 384 513 384 1019 
Q 384 1609 779 1909 
Q 1175 2209 1959 2209 
L 2766 2209 
L 2766 2266 
Q 2766 2663 2505 2880 
Q 2244 3097 1772 3097 
Q 1472 3097 1187 3025 
Q 903 2953 641 2809 
L 641 3341 
Q 956 3463 1253 3523 
Q 1550 3584 1831 3584 
Q 2591 3584 2966 3190 
Q 3341 2797 3341 1997 
z
" transform="scale(0.015625)"/>
      <path id="DejaVuSans-72" d="M 2631 2963 
Q 2534 3019 2420 3045 
Q 2306 3072 2169 3072 
Q 1681 3072 1420 2755 
Q 1159 2438 1159 1844 
L 1159 0 
L 581 0 
L 581 3500 
L 1159 3500 
L 1159 2956 
Q 1341 3275 1631 3429 
Q 1922 3584 2338 3584 
Q 2397 3584 2469 3576 
Q 2541 3569 2628 3553 
L 2631 2963 
z
" transform="scale(0.015625)"/>
      <path id="DejaVuSans-7a" d="M 353 3500 
L 3084 3500 
L 3084 2975 
L 922 459 
L 3084 459 
L 3084 0 
L 275 0 
L 275 525 
L 2438 3041 
L 353 3041 
L 353 3500 
z
" transform="scale(0.015625)"/>
      <path id="DejaVuSans-68" d="M 3513 2113 
L 3513 0 
L 2938 0 
L 2938 2094 
Q 2938 2591 2744 2837 
Q 2550 3084 2163 3084 
Q 1697 3084 1428 2787 
Q 1159 2491 1159 1978 
L 1159 0 
L 581 0 
L 581 4863 
L 1159 4863 
L 1159 2956 
Q 1366 3272 1645 3428 
Q 1925 3584 2291 3584 
Q 2894 3584 3203 3211 
Q 3513 2838 3513 2113 
z
" transform="scale(0.015625)"/>
      <path id="DejaVuSans-6e" d="M 3513 2113 
L 3513 0 
L 2938 0 
L 2938 2094 
Q 2938 2591 2744 2837 
Q 2550 3084 2163 3084 
Q 1697 3084 1428 2787 
Q 1159 2491 1159 1978 
L 1159 0 
L 581 0 
L 581 3500 
L 1159 3500 
L 1159 2956 
Q 1366 3272 1645 3428 
Q 1925 3584 2291 3584 
Q 2894 3584 3203 3211 
Q 3513 2838 3513 2113 
z
" transform="scale(0.015625)"/>
     </defs>
     <use xlink:href="#DejaVuSans-4d"/>
     <use xlink:href="#DejaVuSans-61" x="86.279297"/>
     <use xlink:href="#DejaVuSans-72" x="147.558594"/>
     <use xlink:href="#DejaVuSans-7a" x="188.671875"/>
     <use xlink:href="#DejaVuSans-61" x="241.162109"/>
     <use xlink:href="#DejaVuSans-68" x="302.441406"/>
     <use xlink:href="#DejaVuSans-6e" x="365.820312"/>
    </g>
   </g>
  </g>
 </g>
 <defs>
  <clipPath id="p71099342fe">
   <rect x="184.652999" y="86.4" width="368.694003" height="554.4"/>
  </clipPath>
 </defs>
</svg>
