<?xml version="1.0" encoding="utf-8" standalone="no"?>
<!DOCTYPE svg PUBLIC "-//W3C//DTD SVG 1.1//EN"
  "http://www.w3.org/Graphics/SVG/1.1/DTD/svg11.dtd">
<svg xmlns:xlink="http://www.w3.org/1999/xlink" width="720pt" height="720pt" viewBox="0 0 720 720" xmlns="http://www.w3.org/2000/svg" version="1.1">
 <metadata>
  <rdf:RDF xmlns:dc="http://purl.org/dc/elements/1.1/" xmlns:cc="http://creativecommons.org/ns#" xmlns:rdf="http://www.w3.org/1999/02/22-rdf-syntax-ns#">
   <cc:Work>
    <dc:type rdf:resource="http://purl.org/dc/dcmitype/StillImage"/>
    <dc:date>2024-10-15T13:04:02.961610</dc:date>
    <dc:format>image/svg+xml</dc:format>
    <dc:creator>
     <cc:Agent>
      <dc:title>Matplotlib v3.9.2, https://matplotlib.org/</dc:title>
     </cc:Agent>
    </dc:creator>
   </cc:Work>
  </rdf:RDF>
 </metadata>
 <defs>
  <style type="text/css">*{stroke-linejoin: round; stroke-linecap: butt}</style>
 </defs>
 <g id="figure_1">
  <g id="patch_1">
   <path d="M 0 720 
L 720 720 
L 720 0 
L 0 0 
z
" style="fill: #ffffff"/>
  </g>
  <g id="axes_1">
   <g id="patch_2">
    <path d="M 90 565.791577 
L 648 565.791577 
L 648 161.408423 
L 90 161.408423 
z
" style="fill: #ffffff"/>
   </g>
   <g id="PatchCollection_1">
    <path d="M 300.626032 507.528174 
L 300.63268 507.552103 
L 300.772126 508.053963 
L 300.864955 508.388144 
L 300.915091 508.568657 
L 300.946627 508.685 
L 300.991553 508.847262 
L 301.107521 509.26592 
L 301.587962 510.999848 
L 301.951028 512.311307 
L 302.384667 513.874492 
L 303.980505 519.626249 
L 304.972776 523.205774 
L 305.32124 524.460898 
L 306.185728 525.692679 
L 308.107824 528.431672 
L 308.488153 528.964172 
L 308.877021 529.508723 
L 309.699047 530.65984 
L 310.079682 533.064659 
L 311.455336 534.505684 
L 312.544619 535.646903 
L 312.8007 535.915954 
L 314.455616 537.650596 
L 314.942353 538.161069 
L 316.231978 539.512117 
L 314.690144 544.48799 
L 314.497585 545.106864 
L 316.000079 544.952057 
L 315.239146 547.410524 
L 318.590124 547.062783 
L 318.888948 547.029821 
L 319.649797 546.943023 
L 320.081641 546.894192 
L 322.409702 546.629308 
L 323.066896 546.554567 
L 324.054187 546.442543 
L 326.232131 546.194591 
L 327.685888 546.029172 
L 329.302066 545.845358 
L 332.118001 545.52566 
L 332.098293 545.413004 
L 331.303402 540.841143 
L 331.267255 540.492321 
L 331.238274 540.142732 
L 331.216585 539.792615 
L 331.202074 539.442212 
L 331.195451 539.091147 
L 331.196127 538.739913 
L 331.204112 538.38887 
L 331.219286 538.038022 
L 331.24024 537.688601 
L 331.268511 537.339732 
L 331.303982 536.991537 
L 331.346535 536.644139 
L 331.388193 536.3568 
L 331.434659 536.070309 
L 331.486052 535.784546 
L 331.542376 535.499749 
L 331.55867 535.421925 
L 331.575325 535.344212 
L 331.592343 535.266611 
L 331.605925 535.20626 
L 331.619748 535.146024 
L 331.633814 535.085902 
L 331.6517 535.009602 
L 331.669944 534.933294 
L 331.688551 534.857097 
L 331.718038 534.738503 
L 331.748485 534.620007 
L 331.779778 534.501851 
L 331.83839 534.290607 
L 331.899776 534.08026 
L 331.963812 533.870572 
L 332.07419 533.530614 
L 332.191686 533.193014 
L 332.316307 532.85801 
L 332.447936 532.525727 
L 332.586574 532.196283 
L 332.737405 531.860675 
L 332.895379 531.528503 
L 333.060617 531.199767 
L 333.233006 530.874828 
L 333.28295 530.781457 
L 333.33338 530.688436 
L 333.384417 530.595761 
L 333.420251 530.534536 
L 333.456446 530.473423 
L 333.492887 530.412545 
L 333.599577 530.23009 
L 333.708453 530.048905 
L 333.819635 529.869109 
L 334.03594 529.537633 
L 334.259906 529.211263 
L 334.491418 528.890243 
L 334.730364 528.574815 
L 334.976745 528.265099 
L 335.230206 527.961223 
L 335.682739 527.430615 
L 336.217479 526.80361 
L 338.011777 524.700159 
L 338.050289 524.661687 
L 338.093973 524.62946 
L 338.142129 524.604213 
L 338.193572 524.586576 
L 338.246992 524.576818 
L 338.301434 524.575081 
L 338.355591 524.581756 
L 338.408137 524.596514 
L 338.457747 524.619024 
L 338.503456 524.648948 
L 340.606935 526.276533 
L 341.31703 526.825941 
L 341.541943 526.999903 
L 343.433396 526.802813 
L 344.165778 526.726602 
L 359.442833 525.135122 
L 360.131737 525.063415 
L 363.721032 524.689551 
L 365.701376 524.483281 
L 372.484825 523.776798 
L 372.839849 523.739808 
L 373.513108 523.669798 
L 373.764567 523.643718 
L 373.899335 523.625366 
L 374.032588 523.598405 
L 374.163849 523.562843 
L 374.292524 523.518937 
L 374.416715 523.467448 
L 374.537373 523.408116 
L 374.654026 523.341191 
L 374.766203 523.267045 
L 374.873429 523.185809 
L 374.998034 523.079197 
L 375.116255 522.965647 
L 375.227736 522.845409 
L 375.332128 522.718849 
L 375.429082 522.586457 
L 375.518131 522.448724 
L 375.577111 522.346984 
L 375.631724 522.242823 
L 375.682096 522.136479 
L 375.695869 522.105183 
L 375.70916 522.073778 
L 375.722209 522.042258 
L 375.896525 521.611982 
L 376.950611 521.502113 
L 377.623153 521.432004 
L 377.691007 521.425039 
L 379.235464 521.264027 
L 380.358959 521.147043 
L 380.767979 521.104374 
L 380.529054 518.794353 
L 380.480906 518.32801 
L 380.442031 517.952951 
L 381.522291 517.840567 
L 381.965002 517.794482 
L 382.105566 519.154935 
L 383.23647 519.037066 
L 388.817167 518.455338 
L 390.240625 518.306982 
L 390.931277 517.614606 
L 392.67454 515.867078 
L 393.323528 515.216609 
L 392.380453 514.557461 
L 391.64534 514.043628 
L 391.15506 513.700918 
L 385.164139 509.515494 
L 384.720561 509.205519 
L 385.173073 508.555293 
L 385.268951 508.417524 
L 385.883953 507.532361 
L 386.082178 507.247143 
L 386.226062 507.040114 
L 386.578824 506.322482 
L 387.55552 504.30883 
L 387.940035 503.471476 
L 391.219325 496.014992 
L 391.817752 495.744878 
L 394.058183 495.119911 
L 395.533867 494.948756 
L 395.653655 494.934836 
L 398.583765 494.594947 
L 406.090708 493.724185 
L 406.306284 493.699303 
L 406.440597 491.300855 
L 407.962181 491.398244 
L 408.158894 488.103088 
L 407.609461 488.070434 
L 407.63314 487.680969 
L 407.751015 485.747586 
L 407.813153 484.72961 
L 406.866208 484.673301 
L 407.063681 480.604009 
L 407.157672 478.668292 
L 407.16707 478.476798 
L 407.206547 477.662148 
L 407.26535 476.450928 
L 408.795381 476.533717 
L 410.392705 474.402594 
L 413.814342 469.83713 
L 414.987403 468.27206 
L 415.498614 468.332464 
L 417.942839 468.621275 
L 428.449132 469.863279 
L 430.08024 470.056077 
L 429.196557 468.799219 
L 431.325726 469.050656 
L 432.301358 470.306322 
L 432.782611 470.667525 
L 433.046918 470.967658 
L 433.668306 471.697881 
L 434.141417 472.227376 
L 435.140949 473.26113 
L 436.157885 474.270472 
L 437.204192 475.255128 
L 438.279734 476.209098 
L 440.454198 478.092494 
L 441.805695 479.070169 
L 442.957106 479.938358 
L 446.038624 482.215262 
L 446.739758 482.767564 
L 447.905492 483.7395 
L 448.798193 484.553584 
L 452.52131 487.926526 
L 454.619802 489.895764 
L 455.294046 490.582775 
L 458.255251 493.102644 
L 460.040436 494.460684 
L 461.387244 495.498548 
L 461.533321 495.603275 
L 463.660157 497.241692 
L 463.952447 497.457147 
L 465.737333 498.803204 
L 465.82234 498.855294 
L 467.254798 499.711103 
L 468.693236 500.566778 
L 468.82054 500.635914 
L 468.804633 500.726333 
L 468.80477 500.732333 
L 469.390963 500.971094 
L 469.976747 501.191852 
L 470.646718 501.428699 
L 471.316279 501.647545 
L 471.768092 501.769304 
L 472.225888 501.890926 
L 472.683276 501.994547 
L 474.897992 502.496295 
L 475.024341 502.523427 
L 476.841918 502.938195 
L 478.220059 503.248932 
L 478.568912 503.319014 
L 478.911644 503.383232 
L 479.253968 503.429448 
L 479.607987 503.463391 
L 480.075978 503.506738 
L 480.54968 503.537948 
L 481.017262 503.563294 
L 481.730739 503.607041 
L 482.437959 503.638925 
L 482.905132 503.646271 
L 483.372305 503.653617 
L 483.845326 503.654827 
L 484.318074 503.644035 
L 484.784566 503.62138 
L 485.257178 503.604588 
L 485.729382 503.569796 
L 486.20145 503.529003 
L 486.673381 503.48221 
L 487.145176 503.429416 
L 487.610579 503.358758 
L 488.082102 503.293964 
L 488.791902 503.175704 
L 489.495719 503.057581 
L 490.265225 502.931956 
L 490.390348 502.905087 
L 491.040171 502.782194 
L 491.588673 502.679624 
L 491.725764 502.652482 
L 492.404964 502.504906 
L 492.946801 502.372471 
L 493.470822 502.246447 
L 494.155463 502.074733 
L 494.828 501.897293 
L 495.542426 501.718898 
L 496.250461 501.522639 
L 496.696689 501.398392 
L 497.148765 501.268008 
L 497.594449 501.119759 
L 498.931774 500.687016 
L 500.393545 500.197405 
L 501.712786 499.759077 
L 502.384104 499.52764 
L 503.049437 499.29634 
L 503.714636 499.05904 
L 504.308296 498.835379 
L 504.80689 498.643904 
L 505.311468 498.452293 
L 505.80979 498.248817 
L 506.295872 498.033614 
L 506.787802 497.812274 
L 507.273477 497.579069 
L 507.753304 497.352002 
L 508.232587 497.100932 
L 508.705887 496.85 
L 509.172931 496.587202 
L 509.633991 496.324542 
L 510.094643 496.04388 
L 510.555432 495.769219 
L 511.003709 495.470829 
L 511.26933 495.302678 
L 512.189415 494.687351 
L 513.090462 494.02443 
L 514.196475 493.15872 
L 515.211368 492.23505 
L 516.755886 490.638913 
L 518.917222 488.254258 
L 519.75328 487.364686 
L 520.553435 486.475933 
L 523.150174 483.751179 
L 524.814696 482.16434 
L 525.394088 481.649181 
L 525.700684 481.363697 
L 526.226781 480.931466 
L 526.62938 480.598105 
L 527.576846 479.868109 
L 528.542811 479.16171 
L 529.687769 478.427225 
L 530.763223 477.796386 
L 531.822356 477.237966 
L 532.918891 476.744737 
L 534.003323 476.245782 
L 535.100268 475.770559 
L 536.196944 475.283337 
L 537.300013 474.813983 
L 538.587518 474.292409 
L 541.825335 472.904 
L 543.231809 472.347462 
L 543.488672 472.282158 
L 543.76843 472.247463 
L 545.587582 472.200124 
L 546.20385 472.180118 
L 546.317691 472.183535 
L 546.43711 472.168815 
L 546.556393 472.148093 
L 546.669556 472.121508 
L 546.782448 472.08292 
L 546.88922 472.038469 
L 551.705532 470.019889 
L 551.847806 469.956621 
L 551.954443 469.906169 
L 552.04884 469.843988 
L 552.143237 469.781808 
L 552.231514 469.713762 
L 552.31367 469.639852 
L 552.401676 469.559805 
L 553.362809 468.637423 
L 553.608875 468.397691 
L 554.715424 467.285895 
L 555.291183 467.062692 
L 555.830628 466.822304 
L 556.802882 466.391979 
L 557.253373 466.189634 
L 557.709713 465.981152 
L 558.154085 465.772943 
L 558.598186 465.552733 
L 559.042423 465.338523 
L 559.486524 465.118313 
L 559.829837 464.942418 
L 560.16118 464.766794 
L 560.504493 464.590898 
L 560.835837 464.415274 
L 561.409705 464.108069 
L 561.977588 463.801 
L 563.171713 463.1195 
L 563.591067 462.863832 
L 564.010692 462.620167 
L 564.430183 462.370501 
L 564.849808 462.126836 
L 565.234204 461.913989 
L 565.612344 461.689276 
L 565.990485 461.464564 
L 566.368626 461.239853 
L 566.705417 461.040094 
L 567.042072 460.834335 
L 567.378728 460.628576 
L 567.709534 460.428954 
L 568.028372 460.229603 
L 568.347074 460.024252 
L 568.659792 459.819037 
L 568.97251 459.613822 
L 569.921417 458.9439 
L 570.486603 458.516827 
L 571.051113 458.059751 
L 571.574408 457.633629 
L 572.085329 457.189777 
L 572.812811 456.524881 
L 573.626816 455.713936 
L 574.252291 455.039348 
L 574.515242 454.751212 
L 574.765953 454.451347 
L 575.016664 454.151481 
L 575.255406 453.851888 
L 576.076923 452.842654 
L 576.821183 451.859187 
L 577.39757 451.131681 
L 577.519732 450.972816 
L 578.159383 450.129807 
L 578.508185 449.66562 
L 578.826795 449.19011 
L 579.145269 448.7086 
L 579.445519 448.215496 
L 579.739649 447.716526 
L 580.009571 447.206098 
L 580.279492 446.695671 
L 580.561655 446.196973 
L 580.861907 445.703869 
L 581.16828 445.216631 
L 581.486758 444.735122 
L 581.817477 444.265343 
L 582.809813 442.863809 
L 583.750184 441.501979 
L 584.738208 440.071146 
L 584.832799 439.909701 
L 585.328556 439.06356 
L 585.643876 438.500594 
L 585.922719 438.024308 
L 586.212251 437.554625 
L 586.512108 437.091431 
L 586.822423 436.635206 
L 587.142718 436.186079 
L 587.473118 435.744288 
L 587.740106 435.411399 
L 588.014903 435.084938 
L 588.297392 434.765027 
L 588.587221 434.451915 
L 588.884391 434.14572 
L 589.259129 433.779413 
L 589.383906 433.661917 
L 589.675163 433.396202 
L 589.972194 433.13696 
L 590.274644 432.88432 
L 590.582632 432.638278 
L 591.001573 432.330889 
L 591.427311 432.032831 
L 591.892089 431.723544 
L 592.297759 431.465466 
L 592.742113 431.196286 
L 593.395413 430.824515 
L 593.987867 430.500232 
L 594.482718 430.239756 
L 594.981825 429.98747 
L 595.485074 429.743615 
L 595.992227 429.508198 
L 596.503282 429.281218 
L 596.969997 429.0925 
L 597.363628 428.940308 
L 597.522184 428.881486 
L 597.680995 428.823378 
L 598.219715 428.633597 
L 598.816797 428.436305 
L 599.307033 428.283111 
L 599.855154 428.122537 
L 600.747732 427.888609 
L 601.142726 427.799222 
L 601.593848 427.702104 
L 601.935119 427.631562 
L 602.461332 427.535125 
L 602.989328 427.448735 
L 603.518756 427.372759 
L 604.04973 427.306955 
L 604.581777 427.251573 
L 605.115012 427.206371 
L 605.147175 419.172336 
L 605.471377 417.054224 
L 605.472451 417.043393 
L 605.723808 416.701621 
L 605.73552 416.258763 
L 605.676826 414.006783 
L 605.663952 409.080681 
L 605.655466 405.792048 
L 605.696129 405.603213 
L 605.669355 405.286223 
L 605.689978 404.643241 
L 605.68529 401.890652 
L 605.604106 400.342574 
L 605.658441 400.276985 
L 605.048109 399.659496 
L 604.572068 399.169454 
L 603.131685 397.686717 
L 602.617767 397.161525 
L 602.619956 396.934175 
L 602.459689 396.77366 
L 602.232189 396.770882 
L 599.761988 394.386868 
L 599.79378 392.591044 
L 599.760199 392.578355 
L 599.762022 392.44119 
L 599.829372 386.308812 
L 599.830457 385.984588 
L 599.821333 385.531395 
L 599.838247 381.760572 
L 599.839615 381.518111 
L 599.844953 377.781051 
L 600.046748 377.572719 
L 603.746542 377.597565 
L 603.810782 377.684606 
L 604.017974 377.684122 
L 604.071576 377.591173 
L 604.416539 377.592256 
L 606.782683 377.606222 
L 607.879204 377.617808 
L 609.406203 377.593126 
L 609.634596 377.598048 
L 610.403303 377.614889 
L 611.516165 377.607501 
L 612.711883 377.614932 
L 613.922151 377.603665 
L 614.210718 377.605428 
L 618.545537 377.635706 
L 618.631385 377.602547 
L 618.830692 377.549654 
L 619.109197 377.300933 
L 619.379234 377.043157 
L 619.640687 376.776449 
L 619.893084 376.501181 
L 620.136195 376.217718 
L 620.369785 375.926304 
L 620.593621 375.627187 
L 620.807353 375.320853 
L 621.010869 375.007545 
L 621.203936 374.68763 
L 621.433685 374.283915 
L 621.656158 373.876161 
L 621.871235 373.464373 
L 622.078923 373.048909 
L 622.279101 372.629652 
L 622.372663 372.081683 
L 622.452163 371.53151 
L 622.517369 370.979498 
L 622.568526 370.425883 
L 622.628017 369.315777 
L 622.636364 368.759887 
L 622.63046 368.204079 
L 622.610307 367.648472 
L 622.535893 366.618358 
L 622.419038 365.671694 
L 622.342343 365.200936 
L 622.253481 364.732374 
L 622.152456 364.266248 
L 622.039396 363.802915 
L 621.91431 363.342736 
L 621.664276 362.481811 
L 620.959887 360.603841 
L 620.405995 359.127117 
L 620.369198 359.003951 
L 620.327728 358.917474 
L 620.264484 358.75212 
L 620.016059 358.256064 
L 619.868733 357.984183 
L 619.742669 357.747004 
L 619.634452 357.552527 
L 619.561776 357.436497 
L 619.280091 356.958123 
L 618.924338 356.293011 
L 618.710285 355.80568 
L 618.384035 355.300337 
L 617.702457 354.008613 
L 616.825953 352.725378 
L 616.113211 351.75784 
L 614.853643 350.079936 
L 610.803957 344.763831 
L 609.654903 343.154644 
L 609.42867 342.847087 
L 609.200072 342.514248 
L 608.865424 342.008979 
L 608.501911 341.429317 
L 604.934147 335.604529 
L 602.388503 331.41798 
L 601.760961 330.353193 
L 601.421384 329.789204 
L 601.173301 329.362791 
L 601.104245 329.242959 
L 600.887776 328.869383 
L 600.428798 328.066988 
L 600.396267 328.010689 
L 599.945788 327.208025 
L 599.609547 326.600931 
L 599.269701 325.971989 
L 598.975662 325.419819 
L 598.669368 324.796843 
L 596.933959 320.881602 
L 595.757945 318.105815 
L 595.469985 317.42503 
L 593.202767 312.332626 
L 591.345425 308.304052 
L 591.025363 307.650292 
L 590.944952 307.4361 
L 589.342379 303.96635 
L 586.248488 298.229285 
L 585.403354 297.1967 
L 584.912078 296.677258 
L 584.704322 296.321947 
L 584.307788 295.581668 
L 583.693368 294.522967 
L 583.112831 293.543348 
L 582.682834 292.833247 
L 582.030164 291.789102 
L 579.211288 287.273478 
L 578.522112 286.725109 
L 576.678183 283.787867 
L 573.73381 279.081315 
L 572.245282 276.686809 
L 567.473456 269.063824 
L 565.94804 266.730328 
L 562.554027 261.864726 
L 562.586749 261.69576 
L 559.9568 257.893862 
L 557.996085 255.119267 
L 557.138497 253.859966 
L 561.356911 251.690803 
L 560.933577 251.087527 
L 560.99173 251.05799 
L 560.847053 250.863392 
L 558.593978 247.832708 
L 558.330878 247.44976 
L 558.261612 247.337382 
L 558.203466 247.218748 
L 558.157182 247.094921 
L 558.123149 246.967215 
L 558.101635 246.836823 
L 558.092908 246.70506 
L 558.09711 246.572883 
L 558.114036 246.441859 
L 558.154513 246.303335 
L 558.204525 246.167958 
L 558.263729 246.036454 
L 558.332019 245.909427 
L 558.408927 245.787368 
L 558.497511 245.667805 
L 558.594393 245.554898 
L 558.698985 245.449261 
L 558.810941 245.351382 
L 558.929553 245.261756 
L 559.054352 245.180876 
L 559.230195 245.121652 
L 559.169558 244.823804 
L 558.828144 243.94925 
L 558.747036 243.726312 
L 557.505777 244.005919 
L 557.084071 244.100623 
L 557.046569 244.105676 
L 557.036503 244.104882 
L 557.008765 244.102692 
L 556.972461 244.091869 
L 556.939223 244.073532 
L 556.366536 243.689447 
L 556.335303 243.66446 
L 556.308397 243.634812 
L 556.286556 243.601327 
L 556.270155 243.564717 
L 556.149085 243.227416 
L 556.045152 242.938116 
L 555.925741 242.610623 
L 555.802411 242.284661 
L 555.675399 241.960103 
L 555.615052 241.818345 
L 555.552078 241.687573 
L 555.483302 241.559815 
L 555.408966 241.435185 
L 555.319667 241.292468 
L 555.076498 240.903841 
L 555.000324 240.788018 
L 554.918841 240.675798 
L 554.832296 240.567535 
L 554.740931 240.463343 
L 554.137957 239.820709 
L 553.844154 239.516028 
L 553.172751 238.978451 
L 551.072859 237.730536 
L 549.48913 236.793303 
L 544.679706 233.97707 
L 537.469112 229.722575 
L 534.193247 227.79986 
L 534.070016 227.727736 
L 533.462358 227.371965 
L 533.51235 227.288818 
L 532.87419 226.982852 
L 532.661509 226.886106 
L 532.444729 226.798818 
L 532.224449 226.720977 
L 532.000914 226.652815 
L 531.774725 226.594439 
L 531.546242 226.545842 
L 531.315831 226.507375 
L 531.146909 226.486121 
L 530.977195 226.47221 
L 530.807047 226.465633 
L 530.636706 226.466385 
L 529.626777 226.561519 
L 529.340722 226.605248 
L 529.056866 226.661415 
L 528.775683 226.729769 
L 528.497769 226.810296 
L 528.223484 226.902868 
L 527.892741 227.052319 
L 527.5649 227.208188 
L 527.240191 227.370109 
L 526.9185 227.538326 
L 526.600062 227.712593 
L 526.381446 227.856372 
L 524.699384 229.282215 
L 524.529552 229.416479 
L 524.350577 229.538464 
L 524.163517 229.647305 
L 523.969206 229.742742 
L 523.768703 229.824031 
L 523.562843 229.890914 
L 523.352934 229.943 
L 523.139691 229.980152 
L 522.924544 230.001978 
L 522.708213 230.008582 
L 522.492131 229.999691 
L 522.27702 229.975528 
L 522.064321 229.936181 
L 521.97603 229.915137 
L 521.801549 229.865314 
L 521.516621 229.768295 
L 521.235871 229.660014 
L 520.95954 229.540586 
L 520.688232 229.410237 
L 520.422313 229.269199 
L 520.182344 229.136696 
L 518.958484 228.450594 
L 517.642646 227.713035 
L 517.297401 227.523733 
L 517.261888 227.479154 
L 517.230866 227.431831 
L 517.20583 227.384371 
L 517.180658 227.330911 
L 517.155486 227.277451 
L 517.142288 227.223718 
L 517.12909 227.169985 
L 517.115892 227.116253 
L 517.108546 227.056383 
L 517.101335 227.002514 
L 517.105962 226.942372 
L 517.110725 226.88823 
L 517.115352 226.828088 
L 517.126102 226.77381 
L 517.136852 226.719532 
L 517.141615 226.66539 
L 517.146378 226.611248 
L 517.145154 226.557243 
L 517.137943 226.503374 
L 517.124746 226.449641 
L 517.111548 226.395908 
L 517.092499 226.348313 
L 517.079301 226.29458 
L 517.054129 226.24112 
L 516.982829 226.266758 
L 516.932349 226.153837 
L 516.504692 225.78534 
L 515.65672 225.372381 
L 506.180909 221.169488 
L 505.6848 220.952652 
L 504.480583 220.415744 
L 499.133291 218.124135 
L 497.917225 217.593514 
L 494.347526 216.029897 
L 493.034568 215.453467 
L 491.71562 214.877177 
L 487.74039 213.130731 
L 487.020427 212.816955 
L 487.117437 212.604612 
L 480.571191 209.752167 
L 480.647796 209.696385 
L 480.578938 209.565876 
L 480.341088 209.64335 
L 480.002262 209.494989 
L 480.132616 209.431976 
L 480.045113 209.271874 
L 479.760185 209.386445 
L 479.687521 209.352082 
L 479.13628 209.082493 
L 478.585448 208.830906 
L 478.034479 208.57332 
L 477.477795 208.327872 
L 476.921384 208.094425 
L 476.352997 207.861253 
L 475.790734 207.633945 
L 475.22262 207.412774 
L 474.654642 207.197605 
L 474.075098 207.000712 
L 473.501405 206.797682 
L 472.927847 206.600653 
L 472.342588 206.415899 
L 471.763452 206.23701 
L 471.184316 206.058121 
L 470.593615 205.897509 
L 470.0089 205.73676 
L 469.418471 205.588149 
L 468.828042 205.439539 
L 468.237748 205.296931 
L 467.641741 205.16646 
L 467.045869 205.041992 
L 466.449997 204.917523 
L 465.854672 204.817058 
L 465.253222 204.710729 
L 464.651908 204.610402 
L 464.050731 204.516076 
L 463.44384 204.433888 
L 462.915055 204.361923 
L 462.380693 204.308097 
L 461.840343 204.254409 
L 461.306253 204.212585 
L 460.766313 204.176899 
L 460.232633 204.153078 
L 459.692966 204.129395 
L 459.159559 204.117576 
L 458.620301 204.111895 
L 458.081317 204.118216 
L 457.542333 204.124537 
L 457.003895 204.154861 
L 456.465321 204.179185 
L 455.933007 204.215374 
L 454.999961 204.278739 
L 453.392275 204.44159 
L 452.698991 204.511482 
L 452.191037 204.565128 
L 451.677505 204.636913 
L 451.169824 204.702561 
L 450.656566 204.786348 
L 450.149432 204.875999 
L 449.648422 204.971514 
L 448.581637 205.212057 
L 448.289632 205.278776 
L 447.997627 205.345495 
L 447.229109 205.531186 
L 446.752869 205.662158 
L 446.276493 205.787131 
L 445.794403 205.924242 
L 445.318437 206.067218 
L 441.551566 207.426231 
L 438.082154 208.694405 
L 427.081424 212.518635 
L 425.506892 213.083051 
L 425.376135 213.128074 
L 424.853105 213.308167 
L 424.323815 213.476396 
L 423.800374 213.638489 
L 423.26496 213.800856 
L 422.73526 213.951085 
L 422.193312 214.089589 
L 421.669325 214.22768 
L 421.139214 214.35991 
L 420.60298 214.486276 
L 420.072596 214.606505 
L 419.530238 214.727009 
L 418.99958 214.835238 
L 418.462798 214.937604 
L 417.925743 215.027969 
L 417.305143 215.132259 
L 416.690256 215.22441 
L 416.069108 215.304699 
L 415.453948 215.384851 
L 414.832526 215.45314 
L 414.210968 215.515429 
L 413.589273 215.571718 
L 412.967303 215.616006 
L 407.250772 215.621115 
L 406.161752 215.586076 
L 405.621819 215.550441 
L 405.075899 215.514944 
L 404.535555 215.461309 
L 404.001061 215.401536 
L 403.460443 215.3359 
L 401.938035 215.034649 
L 401.805633 215.007671 
L 395.740483 213.826161 
L 394.277663 213.511554 
L 394.13315 213.478852 
L 388.816904 212.304222 
L 387.137718 211.958584 
L 385.462188 211.607744 
L 385.458393 211.60695 
L 384.224034 211.329141 
L 383.856761 211.24753 
L 367.489505 207.505559 
L 348.104714 203.059126 
L 347.58665 202.932984 
L 347.068723 202.812844 
L 346.556784 202.692566 
L 346.044569 202.560288 
L 345.532629 202.440011 
L 345.020275 202.301733 
L 344.514046 202.169318 
L 344.00183 202.037041 
L 343.495325 201.892625 
L 342.983109 201.76035 
L 341.896598 201.401172 
L 340.563096 200.981653 
L 340.418164 200.930963 
L 339.156368 200.503789 
L 338.546011 200.271718 
L 333.376284 197.923487 
L 333.249312 197.872384 
L 319.482025 191.562199 
L 319.354774 191.499098 
L 305.311222 185.171612 
L 304.42155 184.777933 
L 303.650656 184.339481 
L 303.523816 184.294385 
L 303.397115 184.25529 
L 303.270552 184.222195 
L 303.138139 184.19524 
L 303.01199 184.180147 
L 302.880131 184.177193 
L 302.448213 184.151162 
L 302.02173 184.10099 
L 301.600819 184.032679 
L 301.177528 183.935491 
L 301.17323 183.934504 
L 295.736739 181.857025 
L 295.216753 181.772914 
L 295.054403 181.746653 
L 294.916278 181.731839 
L 290.875303 181.327074 
L 290.316957 181.27396 
L 289.758748 181.226847 
L 289.194552 181.179874 
L 288.630633 181.144902 
L 288.066714 181.109931 
L 287.502933 181.08096 
L 287.023252 181.062051 
L 286.54357 181.043141 
L 286.064166 181.036233 
L 285.584623 181.023324 
L 285.105219 181.016417 
L 284.620103 181.02165 
L 284.074838 181.016269 
L 283.529987 181.02889 
L 282.985414 181.053512 
L 282.44084 181.078135 
L 281.896544 181.11476 
L 281.352524 181.163386 
L 280.832315 181.205457 
L 280.318233 181.253391 
L 279.804427 181.313325 
L 279.290621 181.373261 
L 273.859744 182.003442 
L 273.686388 182.019468 
L 272.407865 182.169181 
L 272.401462 182.151319 
L 272.395059 182.133456 
L 272.382669 182.115732 
L 272.370417 182.104009 
L 272.364014 182.086146 
L 272.345775 182.074562 
L 272.339372 182.056699 
L 272.32712 182.044975 
L 272.308881 182.033391 
L 272.296768 182.027668 
L 272.278529 182.016083 
L 272.260428 182.010499 
L 272.242328 182.004915 
L 272.224089 181.993331 
L 272.205988 181.987747 
L 272.1819 181.982301 
L 271.596525 182.05591 
L 265.803346 182.820644 
L 259.935561 183.467092 
L 257.992035 183.614258 
L 257.446772 183.608902 
L 256.907358 183.597407 
L 256.367666 183.573911 
L 255.82171 183.538554 
L 255.281741 183.503059 
L 254.747481 183.455423 
L 254.206957 183.395927 
L 253.666294 183.33043 
L 253.167543 183.263961 
L 252.674223 183.173351 
L 252.174778 183.07688 
L 251.680765 182.956269 
L 251.198587 182.82938 
L 250.715855 182.678489 
L 250.625351 182.650572 
L 250.486255 182.593764 
L 250.009093 182.424733 
L 249.537641 182.243563 
L 249.06605 182.056392 
L 248.600307 181.863082 
L 248.140413 181.663633 
L 247.680379 181.458184 
L 244.550659 179.789806 
L 244.55004 179.789476 
L 244.342363 182.946835 
L 244.118147 186.363356 
L 244.086713 186.843182 
L 244.063216 187.199989 
L 243.963923 188.713791 
L 243.95467 188.852452 
L 243.938643 189.091892 
L 243.625623 193.776179 
L 243.167723 200.89846 
L 243.290146 201.260162 
L 243.337345 201.399792 
L 243.556869 202.048857 
L 247.233408 206.45363 
L 247.339005 206.580017 
L 248.928043 208.483872 
L 249.077507 208.662914 
L 249.788227 209.514186 
L 250.543841 210.415928 
L 251.01933 210.985206 
L 251.533128 211.599943 
L 251.616673 211.700186 
L 251.823922 211.948371 
L 251.86458 211.996897 
L 252.651555 212.939219 
L 253.040054 213.404493 
L 253.338849 213.762222 
L 254.203692 214.797837 
L 254.271215 214.87876 
L 254.408842 215.043429 
L 254.435583 215.075589 
L 254.960367 215.704603 
L 257.317681 218.527226 
L 257.839953 219.151498 
L 258.318921 219.726825 
L 258.5508 220.004219 
L 259.345378 220.955019 
L 258.944032 221.188151 
L 258.538945 221.414887 
L 258.130477 221.635338 
L 257.718625 221.849263 
L 257.30351 222.05678 
L 256.88513 222.257769 
L 256.463724 222.452225 
L 256.039289 222.640027 
L 255.611945 222.821173 
L 255.181931 222.995657 
L 254.750201 223.163217 
L 254.3158 223.324115 
L 253.879084 223.478102 
L 253.439935 223.625303 
L 252.99859 223.76559 
L 252.554563 223.898736 
L 252.108581 224.024962 
L 251.660641 224.144271 
L 251.210862 224.256538 
L 250.759482 224.361758 
L 249.306708 224.701685 
L 240.947811 226.657602 
L 240.974702 226.77393 
L 240.987185 226.852649 
L 240.98699 226.932262 
L 240.974315 227.010966 
L 240.949348 227.086592 
L 240.912768 227.157326 
L 240.865489 227.221343 
L 240.808674 227.277057 
L 240.743726 227.322994 
L 240.672419 227.358152 
L 240.596406 227.381532 
L 239.473082 227.642983 
L 238.955132 227.765249 
L 237.002486 228.22105 
L 234.982402 228.692713 
L 234.466818 228.813607 
L 233.512264 229.037286 
L 233.345925 229.076335 
L 233.266018 229.086718 
L 233.185463 229.084629 
L 233.106184 229.070382 
L 233.030102 229.044174 
L 232.958791 229.006688 
L 232.893944 228.958605 
L 232.83727 228.901327 
L 232.789994 228.836025 
L 232.75311 228.764237 
L 232.727616 228.687622 
L 232.705657 228.592914 
L 232.67517 228.461061 
L 232.528128 228.495339 
L 200.720274 235.930574 
L 186.257823 239.312561 
L 176.047449 241.700212 
L 115.363636 255.893841 
L 116.952393 262.72041 
L 118.528449 269.486883 
L 119.77325 274.831758 
L 122.496457 286.521185 
L 124.59498 295.524908 
L 126.542007 300.013296 
L 127.57779 301.424997 
L 127.662525 301.818517 
L 127.675855 301.880424 
L 127.759658 302.268703 
L 127.855698 302.714331 
L 128.00857 303.424232 
L 128.109713 303.893516 
L 128.256264 304.573787 
L 128.357407 305.043071 
L 128.448744 305.466835 
L 128.51739 305.785706 
L 128.503304 305.849436 
L 128.899201 305.746861 
L 130.858002 305.235558 
L 131.231162 305.139041 
L 131.347148 305.659369 
L 131.469678 305.751358 
L 134.043223 305.204051 
L 135.15028 304.967271 
L 136.393087 304.70618 
L 144.08084 303.095867 
L 149.763638 301.850756 
L 161.026844 299.466838 
L 162.269637 299.760308 
L 164.938047 299.133112 
L 161.175785 303.49018 
L 163.235157 310.24163 
L 162.421735 311.226883 
L 161.935227 311.816415 
L 161.536328 312.299794 
L 160.561222 313.481549 
L 160.301893 313.692819 
L 159.822851 314.083093 
L 158.652346 315.036715 
L 157.620468 315.348301 
L 157.752798 315.76907 
L 158.069778 316.774248 
L 158.574803 318.376003 
L 158.705547 318.790446 
L 155.008328 319.928635 
L 152.293133 320.764461 
L 151.581691 320.983549 
L 147.58729 322.213149 
L 147.088732 322.366503 
L 141.752603 324.00986 
L 140.621338 324.357784 
L 140.205441 324.485794 
L 137.644218 325.512245 
L 136.1558 326.10821 
L 135.153595 326.509556 
L 133.706355 326.82671 
L 132.668464 327.053588 
L 131.136002 327.388714 
L 131.244674 327.893484 
L 131.57605 329.431289 
L 131.864524 330.770002 
L 132.072981 331.737604 
L 132.146316 332.077979 
L 137.156488 355.31601 
L 142.214949 378.778216 
L 143.605115 385.226471 
L 143.842501 386.327164 
L 143.856192 386.390483 
L 144.060751 387.338488 
L 144.226614 388.107167 
L 144.23991 388.168935 
L 144.483323 389.297104 
L 147.190101 401.85914 
L 147.273114 402.240476 
L 151.587529 422.254353 
L 157.622313 450.251169 
L 157.903553 451.55593 
L 157.99604 451.634697 
L 158.331426 451.920798 
L 158.64555 452.188664 
L 158.854843 452.367125 
L 167.243971 459.521889 
L 167.614199 459.055872 
L 167.691567 458.958245 
L 171.253718 454.471273 
L 171.406032 454.279917 
L 174.976728 449.818105 
L 175.207731 449.529093 
L 175.036883 443.422356 
L 174.970355 441.002001 
L 174.927974 439.47672 
L 174.888757 439.268105 
L 174.668426 438.691849 
L 174.602667 438.12435 
L 174.582775 437.958872 
L 174.508765 437.159941 
L 174.469843 436.74239 
L 174.621645 435.838043 
L 175.015518 433.048512 
L 175.023511 432.944101 
L 175.576562 429.036439 
L 176.010033 425.976657 
L 176.048775 425.783272 
L 176.140199 425.331577 
L 176.53879 423.358086 
L 177.252973 421.28729 
L 178.406935 418.768073 
L 179.84954 416.279944 
L 180.51832 415.342277 
L 181.030083 414.625972 
L 181.478589 413.996397 
L 183.326527 411.937449 
L 183.967927 411.326308 
L 185.218559 410.131675 
L 187.283802 408.527915 
L 189.473125 407.094055 
L 191.790069 405.822809 
L 193.404314 405.133033 
L 193.471216 405.105176 
L 194.14635 404.816741 
L 196.275166 404.067183 
L 198.768348 403.432575 
L 201.308949 402.988511 
L 204.601297 402.517333 
L 207.998318 402.164651 
L 211.554477 401.82077 
L 213.741362 401.803099 
L 216.097909 401.954034 
L 218.513798 402.31949 
L 221.00621 402.917561 
L 223.611215 403.831941 
L 226.243067 404.86134 
L 227.287692 405.333425 
L 228.104638 405.753652 
L 229.839239 406.660932 
L 232.243842 408.035815 
L 235.398326 410.116841 
L 237.300962 411.393067 
L 237.880968 411.843072 
L 239.109738 412.847271 
L 240.683372 414.17042 
L 241.23243 414.665094 
L 241.354974 414.774996 
L 243.450813 417.032685 
L 245.542883 419.293831 
L 247.631424 421.558428 
L 248.488738 422.488544 
L 249.777732 423.882569 
L 251.62817 425.888667 
L 252.034205 426.336361 
L 252.432733 426.790955 
L 252.823508 427.252093 
L 253.206529 427.719775 
L 253.581554 428.193887 
L 253.948697 428.674186 
L 254.048041 428.806483 
L 254.146797 428.939274 
L 254.244846 429.072561 
L 254.679421 429.667287 
L 255.17171 430.344485 
L 255.209898 430.317903 
L 255.255349 430.294634 
L 255.305007 430.282434 
L 255.356014 430.28197 
L 255.405854 430.293181 
L 255.451762 430.31565 
L 255.491312 430.347992 
L 255.656142 430.598603 
L 255.945717 431.039158 
L 256.46725 431.832429 
L 256.934458 432.543074 
L 257.26052 433.038978 
L 257.424608 433.288646 
L 257.438721 433.33971 
L 257.440422 433.392624 
L 257.429521 433.444389 
L 257.406791 433.492106 
L 257.373367 433.533107 
L 257.331231 433.565064 
L 257.296617 433.58568 
L 257.323455 433.705492 
L 258.085296 435.024958 
L 258.770827 436.374655 
L 259.220879 437.297789 
L 259.316054 437.493463 
L 259.732863 438.413647 
L 259.837754 438.651482 
L 260.327158 439.806048 
L 260.568521 440.513689 
L 260.925669 441.526516 
L 261.179248 442.332815 
L 261.441628 443.271354 
L 261.681929 444.270322 
L 261.687415 444.29529 
L 261.878736 445.242442 
L 262.118264 446.166501 
L 262.266321 446.624632 
L 262.486744 448.15299 
L 262.581078 448.680691 
L 262.714454 450.858392 
L 262.744658 452.07873 
L 262.717389 453.330661 
L 262.611791 454.992062 
L 262.469338 456.4628 
L 262.239667 458.248357 
L 261.730012 460.931485 
L 261.446763 462.201244 
L 261.356076 462.614844 
L 261.259968 463.052946 
L 261.035152 463.96953 
L 260.724908 465.076134 
L 260.484994 466.111582 
L 260.388646 466.554853 
L 260.276395 467.196255 
L 259.945968 469.20773 
L 259.740757 470.257503 
L 259.684514 470.544586 
L 259.665666 470.63592 
L 259.547575 471.294029 
L 259.38161 472.280092 
L 259.329155 472.606712 
L 259.235344 473.393217 
L 259.11975 474.366944 
L 259.046876 475.292611 
L 259.021315 476.353584 
L 259.032248 477.268059 
L 259.067242 477.912408 
L 259.109571 478.314276 
L 259.123506 478.482177 
L 259.19633 479.323171 
L 259.393222 480.927001 
L 259.524922 481.802531 
L 259.666232 482.420037 
L 259.824394 483.020582 
L 259.876369 483.160824 
L 260.27324 484.494888 
L 260.408139 485.000754 
L 260.489437 485.24406 
L 260.855956 486.191948 
L 261.234956 487.250016 
L 261.268884 487.355495 
L 262.03238 489.092548 
L 263.40769 491.743943 
L 264.649397 493.624199 
L 265.402586 494.588455 
L 266.247145 495.641128 
L 267.174306 496.71374 
L 267.408698 496.964902 
L 268.891974 498.510559 
L 269.294438 498.889305 
L 269.689791 499.260892 
L 270.082657 499.633738 
L 270.701463 500.228886 
L 271.130516 500.649523 
L 271.301061 500.816795 
L 271.996653 501.454831 
L 272.289774 501.703312 
L 272.798919 502.128458 
L 273.210771 502.447192 
L 273.418514 502.602314 
L 273.602203 502.752832 
L 273.688633 502.808824 
L 274.358231 503.244179 
L 275.020512 503.653047 
L 275.808646 504.087937 
L 277.680863 505.064331 
L 278.862294 505.683549 
L 280.542667 506.561134 
L 281.353262 506.937034 
L 282.164833 507.256598 
L 283.688222 507.791654 
L 284.369049 508.044487 
L 284.930786 508.42976 
L 287.28834 508.685419 
L 287.310316 508.651769 
L 287.339864 508.624548 
L 287.375229 508.605478 
L 287.414162 508.595811 
L 287.450624 508.593165 
L 288.412043 508.665515 
L 289.370279 508.729655 
L 291.284144 508.843591 
L 291.578305 508.856952 
L 291.869176 508.867868 
L 292.155509 508.874085 
L 292.492296 508.882137 
L 292.824592 508.882368 
L 293.156706 508.874678 
L 293.488646 508.859428 
L 293.820047 508.836385 
L 294.287902 508.800578 
L 294.754782 508.753627 
L 295.220332 508.69566 
L 295.684547 508.626557 
L 296.146832 508.546453 
L 296.607188 508.455346 
L 297.615237 508.238573 
L 298.62114 508.011765 
L 299.624777 507.774924 
L 300.626032 507.528174 
" clip-path="url(#p8f7c974425)" style="fill: #d3d3d3"/>
   </g>
   <g id="matplotlib.axis_1">
    <g id="xtick_1">
     <g id="line2d_1">
      <defs>
       <path id="m2efb9f27ff" d="M 0 0 
L 0 3.5 
" style="stroke: #000000; stroke-width: 0.8"/>
      </defs>
      <g>
       <use xlink:href="#m2efb9f27ff" x="103.884321" y="565.791577" style="stroke: #000000; stroke-width: 0.8"/>
      </g>
     </g>
     <g id="text_1">
      <!-- 13.31 -->
      <g transform="translate(89.570258 580.390014) scale(0.1 -0.1)">
       <defs>
        <path id="DejaVuSans-31" d="M 794 531 
L 1825 531 
L 1825 4091 
L 703 3866 
L 703 4441 
L 1819 4666 
L 2450 4666 
L 2450 531 
L 3481 531 
L 3481 0 
L 794 0 
L 794 531 
z
" transform="scale(0.015625)"/>
        <path id="DejaVuSans-33" d="M 2597 2516 
Q 3050 2419 3304 2112 
Q 3559 1806 3559 1356 
Q 3559 666 3084 287 
Q 2609 -91 1734 -91 
Q 1441 -91 1130 -33 
Q 819 25 488 141 
L 488 750 
Q 750 597 1062 519 
Q 1375 441 1716 441 
Q 2309 441 2620 675 
Q 2931 909 2931 1356 
Q 2931 1769 2642 2001 
Q 2353 2234 1838 2234 
L 1294 2234 
L 1294 2753 
L 1863 2753 
Q 2328 2753 2575 2939 
Q 2822 3125 2822 3475 
Q 2822 3834 2567 4026 
Q 2313 4219 1838 4219 
Q 1578 4219 1281 4162 
Q 984 4106 628 3988 
L 628 4550 
Q 988 4650 1302 4700 
Q 1616 4750 1894 4750 
Q 2613 4750 3031 4423 
Q 3450 4097 3450 3541 
Q 3450 3153 3228 2886 
Q 3006 2619 2597 2516 
z
" transform="scale(0.015625)"/>
        <path id="DejaVuSans-2e" d="M 684 794 
L 1344 794 
L 1344 0 
L 684 0 
L 684 794 
z
" transform="scale(0.015625)"/>
       </defs>
       <use xlink:href="#DejaVuSans-31"/>
       <use xlink:href="#DejaVuSans-33" x="63.623047"/>
       <use xlink:href="#DejaVuSans-2e" x="127.246094"/>
       <use xlink:href="#DejaVuSans-33" x="159.033203"/>
       <use xlink:href="#DejaVuSans-31" x="222.65625"/>
      </g>
     </g>
    </g>
    <g id="xtick_2">
     <g id="line2d_2">
      <g>
       <use xlink:href="#m2efb9f27ff" x="185.130895" y="565.791577" style="stroke: #000000; stroke-width: 0.8"/>
      </g>
     </g>
     <g id="text_2">
      <!-- 13.32 -->
      <g transform="translate(170.816833 580.390014) scale(0.1 -0.1)">
       <defs>
        <path id="DejaVuSans-32" d="M 1228 531 
L 3431 531 
L 3431 0 
L 469 0 
L 469 531 
Q 828 903 1448 1529 
Q 2069 2156 2228 2338 
Q 2531 2678 2651 2914 
Q 2772 3150 2772 3378 
Q 2772 3750 2511 3984 
Q 2250 4219 1831 4219 
Q 1534 4219 1204 4116 
Q 875 4013 500 3803 
L 500 4441 
Q 881 4594 1212 4672 
Q 1544 4750 1819 4750 
Q 2544 4750 2975 4387 
Q 3406 4025 3406 3419 
Q 3406 3131 3298 2873 
Q 3191 2616 2906 2266 
Q 2828 2175 2409 1742 
Q 1991 1309 1228 531 
z
" transform="scale(0.015625)"/>
       </defs>
       <use xlink:href="#DejaVuSans-31"/>
       <use xlink:href="#DejaVuSans-33" x="63.623047"/>
       <use xlink:href="#DejaVuSans-2e" x="127.246094"/>
       <use xlink:href="#DejaVuSans-33" x="159.033203"/>
       <use xlink:href="#DejaVuSans-32" x="222.65625"/>
      </g>
     </g>
    </g>
    <g id="xtick_3">
     <g id="line2d_3">
      <g>
       <use xlink:href="#m2efb9f27ff" x="266.377469" y="565.791577" style="stroke: #000000; stroke-width: 0.8"/>
      </g>
     </g>
     <g id="text_3">
      <!-- 13.33 -->
      <g transform="translate(252.063407 580.390014) scale(0.1 -0.1)">
       <use xlink:href="#DejaVuSans-31"/>
       <use xlink:href="#DejaVuSans-33" x="63.623047"/>
       <use xlink:href="#DejaVuSans-2e" x="127.246094"/>
       <use xlink:href="#DejaVuSans-33" x="159.033203"/>
       <use xlink:href="#DejaVuSans-33" x="222.65625"/>
      </g>
     </g>
    </g>
    <g id="xtick_4">
     <g id="line2d_4">
      <g>
       <use xlink:href="#m2efb9f27ff" x="347.624044" y="565.791577" style="stroke: #000000; stroke-width: 0.8"/>
      </g>
     </g>
     <g id="text_4">
      <!-- 13.34 -->
      <g transform="translate(333.309981 580.390014) scale(0.1 -0.1)">
       <defs>
        <path id="DejaVuSans-34" d="M 2419 4116 
L 825 1625 
L 2419 1625 
L 2419 4116 
z
M 2253 4666 
L 3047 4666 
L 3047 1625 
L 3713 1625 
L 3713 1100 
L 3047 1100 
L 3047 0 
L 2419 0 
L 2419 1100 
L 313 1100 
L 313 1709 
L 2253 4666 
z
" transform="scale(0.015625)"/>
       </defs>
       <use xlink:href="#DejaVuSans-31"/>
       <use xlink:href="#DejaVuSans-33" x="63.623047"/>
       <use xlink:href="#DejaVuSans-2e" x="127.246094"/>
       <use xlink:href="#DejaVuSans-33" x="159.033203"/>
       <use xlink:href="#DejaVuSans-34" x="222.65625"/>
      </g>
     </g>
    </g>
    <g id="xtick_5">
     <g id="line2d_5">
      <g>
       <use xlink:href="#m2efb9f27ff" x="428.870618" y="565.791577" style="stroke: #000000; stroke-width: 0.8"/>
      </g>
     </g>
     <g id="text_5">
      <!-- 13.35 -->
      <g transform="translate(414.556555 580.390014) scale(0.1 -0.1)">
       <defs>
        <path id="DejaVuSans-35" d="M 691 4666 
L 3169 4666 
L 3169 4134 
L 1269 4134 
L 1269 2991 
Q 1406 3038 1543 3061 
Q 1681 3084 1819 3084 
Q 2600 3084 3056 2656 
Q 3513 2228 3513 1497 
Q 3513 744 3044 326 
Q 2575 -91 1722 -91 
Q 1428 -91 1123 -41 
Q 819 9 494 109 
L 494 744 
Q 775 591 1075 516 
Q 1375 441 1709 441 
Q 2250 441 2565 725 
Q 2881 1009 2881 1497 
Q 2881 1984 2565 2268 
Q 2250 2553 1709 2553 
Q 1456 2553 1204 2497 
Q 953 2441 691 2322 
L 691 4666 
z
" transform="scale(0.015625)"/>
       </defs>
       <use xlink:href="#DejaVuSans-31"/>
       <use xlink:href="#DejaVuSans-33" x="63.623047"/>
       <use xlink:href="#DejaVuSans-2e" x="127.246094"/>
       <use xlink:href="#DejaVuSans-33" x="159.033203"/>
       <use xlink:href="#DejaVuSans-35" x="222.65625"/>
      </g>
     </g>
    </g>
    <g id="xtick_6">
     <g id="line2d_6">
      <g>
       <use xlink:href="#m2efb9f27ff" x="510.117192" y="565.791577" style="stroke: #000000; stroke-width: 0.8"/>
      </g>
     </g>
     <g id="text_6">
      <!-- 13.36 -->
      <g transform="translate(495.80313 580.390014) scale(0.1 -0.1)">
       <defs>
        <path id="DejaVuSans-36" d="M 2113 2584 
Q 1688 2584 1439 2293 
Q 1191 2003 1191 1497 
Q 1191 994 1439 701 
Q 1688 409 2113 409 
Q 2538 409 2786 701 
Q 3034 994 3034 1497 
Q 3034 2003 2786 2293 
Q 2538 2584 2113 2584 
z
M 3366 4563 
L 3366 3988 
Q 3128 4100 2886 4159 
Q 2644 4219 2406 4219 
Q 1781 4219 1451 3797 
Q 1122 3375 1075 2522 
Q 1259 2794 1537 2939 
Q 1816 3084 2150 3084 
Q 2853 3084 3261 2657 
Q 3669 2231 3669 1497 
Q 3669 778 3244 343 
Q 2819 -91 2113 -91 
Q 1303 -91 875 529 
Q 447 1150 447 2328 
Q 447 3434 972 4092 
Q 1497 4750 2381 4750 
Q 2619 4750 2861 4703 
Q 3103 4656 3366 4563 
z
" transform="scale(0.015625)"/>
       </defs>
       <use xlink:href="#DejaVuSans-31"/>
       <use xlink:href="#DejaVuSans-33" x="63.623047"/>
       <use xlink:href="#DejaVuSans-2e" x="127.246094"/>
       <use xlink:href="#DejaVuSans-33" x="159.033203"/>
       <use xlink:href="#DejaVuSans-36" x="222.65625"/>
      </g>
     </g>
    </g>
    <g id="xtick_7">
     <g id="line2d_7">
      <g>
       <use xlink:href="#m2efb9f27ff" x="591.363766" y="565.791577" style="stroke: #000000; stroke-width: 0.8"/>
      </g>
     </g>
     <g id="text_7">
      <!-- 13.37 -->
      <g transform="translate(577.049704 580.390014) scale(0.1 -0.1)">
       <defs>
        <path id="DejaVuSans-37" d="M 525 4666 
L 3525 4666 
L 3525 4397 
L 1831 0 
L 1172 0 
L 2766 4134 
L 525 4134 
L 525 4666 
z
" transform="scale(0.015625)"/>
       </defs>
       <use xlink:href="#DejaVuSans-31"/>
       <use xlink:href="#DejaVuSans-33" x="63.623047"/>
       <use xlink:href="#DejaVuSans-2e" x="127.246094"/>
       <use xlink:href="#DejaVuSans-33" x="159.033203"/>
       <use xlink:href="#DejaVuSans-37" x="222.65625"/>
      </g>
     </g>
    </g>
   </g>
   <g id="matplotlib.axis_2">
    <g id="ytick_1">
     <g id="line2d_8">
      <defs>
       <path id="m0ab4f9fde4" d="M 0 0 
L -3.5 0 
" style="stroke: #000000; stroke-width: 0.8"/>
      </defs>
      <g>
       <use xlink:href="#m0ab4f9fde4" x="90" y="531.192713" style="stroke: #000000; stroke-width: 0.8"/>
      </g>
     </g>
     <g id="text_8">
      <!-- 52.515 -->
      <g transform="translate(48.009375 534.991932) scale(0.1 -0.1)">
       <use xlink:href="#DejaVuSans-35"/>
       <use xlink:href="#DejaVuSans-32" x="63.623047"/>
       <use xlink:href="#DejaVuSans-2e" x="127.246094"/>
       <use xlink:href="#DejaVuSans-35" x="159.033203"/>
       <use xlink:href="#DejaVuSans-31" x="222.65625"/>
       <use xlink:href="#DejaVuSans-35" x="286.279297"/>
      </g>
     </g>
    </g>
    <g id="ytick_2">
     <g id="line2d_9">
      <g>
       <use xlink:href="#m0ab4f9fde4" x="90" y="464.418911" style="stroke: #000000; stroke-width: 0.8"/>
      </g>
     </g>
     <g id="text_9">
      <!-- 52.520 -->
      <g transform="translate(48.009375 468.218129) scale(0.1 -0.1)">
       <defs>
        <path id="DejaVuSans-30" d="M 2034 4250 
Q 1547 4250 1301 3770 
Q 1056 3291 1056 2328 
Q 1056 1369 1301 889 
Q 1547 409 2034 409 
Q 2525 409 2770 889 
Q 3016 1369 3016 2328 
Q 3016 3291 2770 3770 
Q 2525 4250 2034 4250 
z
M 2034 4750 
Q 2819 4750 3233 4129 
Q 3647 3509 3647 2328 
Q 3647 1150 3233 529 
Q 2819 -91 2034 -91 
Q 1250 -91 836 529 
Q 422 1150 422 2328 
Q 422 3509 836 4129 
Q 1250 4750 2034 4750 
z
" transform="scale(0.015625)"/>
       </defs>
       <use xlink:href="#DejaVuSans-35"/>
       <use xlink:href="#DejaVuSans-32" x="63.623047"/>
       <use xlink:href="#DejaVuSans-2e" x="127.246094"/>
       <use xlink:href="#DejaVuSans-35" x="159.033203"/>
       <use xlink:href="#DejaVuSans-32" x="222.65625"/>
       <use xlink:href="#DejaVuSans-30" x="286.279297"/>
      </g>
     </g>
    </g>
    <g id="ytick_3">
     <g id="line2d_10">
      <g>
       <use xlink:href="#m0ab4f9fde4" x="90" y="397.645108" style="stroke: #000000; stroke-width: 0.8"/>
      </g>
     </g>
     <g id="text_10">
      <!-- 52.525 -->
      <g transform="translate(48.009375 401.444327) scale(0.1 -0.1)">
       <use xlink:href="#DejaVuSans-35"/>
       <use xlink:href="#DejaVuSans-32" x="63.623047"/>
       <use xlink:href="#DejaVuSans-2e" x="127.246094"/>
       <use xlink:href="#DejaVuSans-35" x="159.033203"/>
       <use xlink:href="#DejaVuSans-32" x="222.65625"/>
       <use xlink:href="#DejaVuSans-35" x="286.279297"/>
      </g>
     </g>
    </g>
    <g id="ytick_4">
     <g id="line2d_11">
      <g>
       <use xlink:href="#m0ab4f9fde4" x="90" y="330.871306" style="stroke: #000000; stroke-width: 0.8"/>
      </g>
     </g>
     <g id="text_11">
      <!-- 52.530 -->
      <g transform="translate(48.009375 334.670524) scale(0.1 -0.1)">
       <use xlink:href="#DejaVuSans-35"/>
       <use xlink:href="#DejaVuSans-32" x="63.623047"/>
       <use xlink:href="#DejaVuSans-2e" x="127.246094"/>
       <use xlink:href="#DejaVuSans-35" x="159.033203"/>
       <use xlink:href="#DejaVuSans-33" x="222.65625"/>
       <use xlink:href="#DejaVuSans-30" x="286.279297"/>
      </g>
     </g>
    </g>
    <g id="ytick_5">
     <g id="line2d_12">
      <g>
       <use xlink:href="#m0ab4f9fde4" x="90" y="264.097503" style="stroke: #000000; stroke-width: 0.8"/>
      </g>
     </g>
     <g id="text_12">
      <!-- 52.535 -->
      <g transform="translate(48.009375 267.896722) scale(0.1 -0.1)">
       <use xlink:href="#DejaVuSans-35"/>
       <use xlink:href="#DejaVuSans-32" x="63.623047"/>
       <use xlink:href="#DejaVuSans-2e" x="127.246094"/>
       <use xlink:href="#DejaVuSans-35" x="159.033203"/>
       <use xlink:href="#DejaVuSans-33" x="222.65625"/>
       <use xlink:href="#DejaVuSans-35" x="286.279297"/>
      </g>
     </g>
    </g>
    <g id="ytick_6">
     <g id="line2d_13">
      <g>
       <use xlink:href="#m0ab4f9fde4" x="90" y="197.3237" style="stroke: #000000; stroke-width: 0.8"/>
      </g>
     </g>
     <g id="text_13">
      <!-- 52.540 -->
      <g transform="translate(48.009375 201.122919) scale(0.1 -0.1)">
       <use xlink:href="#DejaVuSans-35"/>
       <use xlink:href="#DejaVuSans-32" x="63.623047"/>
       <use xlink:href="#DejaVuSans-2e" x="127.246094"/>
       <use xlink:href="#DejaVuSans-35" x="159.033203"/>
       <use xlink:href="#DejaVuSans-34" x="222.65625"/>
       <use xlink:href="#DejaVuSans-30" x="286.279297"/>
      </g>
     </g>
    </g>
   </g>
   <g id="LineCollection_1">
    <path d="M 573.354651 358.191139 
L 572.620182 358.880245 
L 572.384567 359.270204 
L 571.855651 360.599002 
L 571.47298 362.013272 
L 571.269864 363.259271 
L 571.042373 365.508212 
L 570.628016 373.283354 
L 570.316029 379.367783 
" clip-path="url(#p8f7c974425)" style="fill: none; stroke: #ff0000; stroke-opacity: 0.7; stroke-width: 0.5"/>
    <path d="M 573.739759 382.970897 
L 573.565892 382.114857 
L 573.55533 381.917207 
L 573.526893 381.366991 
L 573.573204 380.179752 
L 573.743822 376.871778 
" clip-path="url(#p8f7c974425)" style="fill: none; stroke: #ff0000; stroke-opacity: 0.7; stroke-width: 0.5"/>
    <path d="M 557.353138 394.106097 
L 558.498715 395.106368 
L 558.633584 395.404179 
L 558.73108 395.620526 
L 559.009756 396.228168 
L 559.336367 397.100234 
L 559.668665 398.300827 
" clip-path="url(#p8f7c974425)" style="fill: none; stroke: #ff0000; stroke-opacity: 0.7; stroke-width: 0.5"/>
    <path d="M 577.290235 432.821547 
L 579.563514 430.233395 
L 580.016057 429.309245 
" clip-path="url(#p8f7c974425)" style="fill: none; stroke: #ff0000; stroke-opacity: 0.7; stroke-width: 0.5"/>
    <path d="M 559.065003 450.24951 
L 560.75412 448.800518 
L 562.86653 446.961568 
L 566.585186 443.79916 
L 573.24903 438.081987 
L 574.724468 436.256392 
L 574.753717 436.220334 
L 574.810589 436.136199 
L 574.950333 435.9292 
L 575.441063 433.466582 
" clip-path="url(#p8f7c974425)" style="fill: none; stroke: #ff0000; stroke-opacity: 0.7; stroke-width: 0.5"/>
    <path d="M 507.610735 396.403115 
L 508.094152 397.386026 
L 511.831495 404.980878 
L 514.895303 411.132081 
L 515.576962 412.471563 
L 516.129439 413.563983 
L 516.217185 413.729582 
" clip-path="url(#p8f7c974425)" style="fill: none; stroke: #ff0000; stroke-opacity: 0.7; stroke-width: 0.5"/>
    <path d="M 151.225075 387.156279 
L 152.066789 387.145595 
L 152.615204 387.136247 
" clip-path="url(#p8f7c974425)" style="fill: none; stroke: #ff0000; stroke-opacity: 0.7; stroke-width: 0.5"/>
    <path d="M 143.662644 387.267124 
L 144.853718 387.240414 
" clip-path="url(#p8f7c974425)" style="fill: none; stroke: #ff0000; stroke-opacity: 0.7; stroke-width: 0.5"/>
    <path d="M 340.623026 379.68162 
L 340.558029 380.524305 
L 340.551529 381.066508 
L 340.579966 381.903852 
L 340.701836 382.938846 
L 341.41843 385.394786 
L 341.459866 385.529669 
L 341.538675 385.788752 
L 341.785665 386.826417 
" clip-path="url(#p8f7c974425)" style="fill: none; stroke: #ff0000; stroke-opacity: 0.7; stroke-width: 0.5"/>
    <path d="M 576.325025 355.948875 
L 578.381376 352.858583 
L 579.559452 351.577862 
L 581.104761 350.238379 
" clip-path="url(#p8f7c974425)" style="fill: none; stroke: #ff0000; stroke-opacity: 0.7; stroke-width: 0.5"/>
    <path d="M 597.27283 418.674849 
L 598.514277 418.314271 
L 599.856471 417.967047 
L 601.723517 417.590443 
L 603.262327 417.340709 
" clip-path="url(#p8f7c974425)" style="fill: none; stroke: #ff0000; stroke-opacity: 0.7; stroke-width: 0.5"/>
    <path d="M 188.419756 386.437793 
L 188.950297 386.440464 
L 190.437109 386.460496 
L 192.486148 386.555315 
L 194.644057 386.958629 
L 195.44921 387.112208 
L 196.325861 387.292498 
L 204.605699 388.99523 
L 207.987994 389.683 
L 211.111112 390.318686 
L 211.852893 390.469595 
L 212.090133 390.540376 
L 216.953553 391.985361 
L 217.688022 392.264475 
L 221.052443 393.543861 
L 223.343596 394.542797 
L 225.897176 395.583133 
L 231.749367 398.05777 
L 232.747887 398.553232 
L 234.198139 399.271718 
L 237.101079 401.022527 
L 241.29259 403.549248 
L 244.18578 405.333444 
L 244.618824 405.571158 
L 245.85296 406.289645 
" clip-path="url(#p8f7c974425)" style="fill: none; stroke: #ff0000; stroke-opacity: 0.7; stroke-width: 0.5"/>
    <path d="M 144.853718 387.240414 
L 150.222492 387.169634 
" clip-path="url(#p8f7c974425)" style="fill: none; stroke: #ff0000; stroke-opacity: 0.7; stroke-width: 0.5"/>
    <path d="M 150.222492 387.169634 
L 151.225075 387.156279 
" clip-path="url(#p8f7c974425)" style="fill: none; stroke: #ff0000; stroke-opacity: 0.7; stroke-width: 0.5"/>
    <path d="M 481.156038 252.239811 
L 481.455026 253.224057 
L 481.927881 254.194948 
L 482.044063 254.329831 
L 482.189495 254.498101 
L 482.372299 254.707771 
L 483.480503 255.992499 
" clip-path="url(#p8f7c974425)" style="fill: none; stroke: #ff0000; stroke-opacity: 0.7; stroke-width: 0.5"/>
    <path d="M 560.312951 411.949392 
L 563.081834 410.692709 
L 566.601435 408.772295 
L 567.801447 408.179343 
L 567.989127 408.089866 
L 568.662661 407.766681 
L 569.52875 407.402096 
L 570.45821 407.010802 
L 572.689241 406.120039 
L 574.531914 405.446959 
L 575.956979 404.976872 
L 576.135721 404.931465 
L 576.368086 404.898079 
L 576.74832 404.88873 
" clip-path="url(#p8f7c974425)" style="fill: none; stroke: #ff0000; stroke-opacity: 0.7; stroke-width: 0.5"/>
    <path d="M 559.889656 402.806723 
L 561.387843 401.994754 
L 567.363528 398.685444 
L 568.39536 398.129886 
L 568.771531 397.926894 
L 569.561248 397.519573 
" clip-path="url(#p8f7c974425)" style="fill: none; stroke: #ff0000; stroke-opacity: 0.7; stroke-width: 0.5"/>
    <path d="M 587.551677 344.638728 
L 586.032366 345.534833 
L 583.428413 347.07063 
L 580.705841 348.960329 
L 578.636491 350.749867 
L 576.603701 353.017505 
L 575.601119 354.614734 
L 574.220739 356.811592 
L 573.354651 358.191139 
" clip-path="url(#p8f7c974425)" style="fill: none; stroke: #ff0000; stroke-opacity: 0.7; stroke-width: 0.5"/>
    <path d="M 373.103782 262.883555 
L 366.163699 263.862459 
L 365.064433 264.017374 
L 362.945523 264.309844 
" clip-path="url(#p8f7c974425)" style="fill: none; stroke: #ff0000; stroke-opacity: 0.7; stroke-width: 0.5"/>
    <path d="M 580.016057 429.309245 
L 582.227589 427.157793 
L 584.158008 425.572583 
L 585.288148 424.676479 
L 586.159111 424.071508 
L 587.222628 423.366377 
L 588.172401 422.78678 
L 589.138423 422.204513 
L 590.426181 421.500717 
L 591.646504 420.894411 
L 593.155253 420.241363 
L 594.414575 419.696489 
L 595.097046 419.440077 
L 595.640586 419.231743 
L 596.145127 419.058131 
L 596.766664 418.848461 
L 597.27283 418.674849 
" clip-path="url(#p8f7c974425)" style="fill: none; stroke: #ff0000; stroke-opacity: 0.7; stroke-width: 0.5"/>
    <path d="M 575.286694 359.919245 
L 575.905793 357.938734 
L 576.325025 355.948875 
" clip-path="url(#p8f7c974425)" style="fill: none; stroke: #ff0000; stroke-opacity: 0.7; stroke-width: 0.5"/>
    <path d="M 577.507163 430.791624 
L 576.704447 431.586232 
L 576.396522 431.994888 
" clip-path="url(#p8f7c974425)" style="fill: none; stroke: #ff0000; stroke-opacity: 0.7; stroke-width: 0.5"/>
    <path d="M 577.102555 420.803598 
L 575.891169 420.79425 
L 569.963419 420.748844 
L 568.838966 420.739495 
" clip-path="url(#p8f7c974425)" style="fill: none; stroke: #ff0000; stroke-opacity: 0.7; stroke-width: 0.5"/>
    <path d="M 576.791381 410.500401 
L 575.836734 410.504407 
L 568.700034 410.529781 
" clip-path="url(#p8f7c974425)" style="fill: none; stroke: #ff0000; stroke-opacity: 0.7; stroke-width: 0.5"/>
    <path d="M 361.302717 264.291147 
L 359.650974 263.985323 
L 357.895236 263.643441 
L 355.879508 263.310908 
L 354.299262 263.208076 
L 351.852928 263.222766 
L 349.649521 263.459145 
L 347.200749 263.950601 
L 341.825476 265.02833 
L 337.411349 265.947137 
L 334.269544 266.776468 
L 332.450433 267.358736 
L 324.566266 269.897476 
L 322.52129 270.48642 
L 319.735345 271.108752 
L 314.090333 272.258597 
" clip-path="url(#p8f7c974425)" style="fill: none; stroke: #ff0000; stroke-opacity: 0.7; stroke-width: 0.5"/>
    <path d="M 431.72156 250.216565 
L 427.992342 251.048567 
" clip-path="url(#p8f7c974425)" style="fill: none; stroke: #ff0000; stroke-opacity: 0.7; stroke-width: 0.5"/>
    <path d="M 481.156038 252.239811 
L 480.401258 248.492465 
" clip-path="url(#p8f7c974425)" style="fill: none; stroke: #ff0000; stroke-opacity: 0.7; stroke-width: 0.5"/>
    <path d="M 568.662661 407.766681 
L 568.700034 410.529781 
" clip-path="url(#p8f7c974425)" style="fill: none; stroke: #ff0000; stroke-opacity: 0.7; stroke-width: 0.5"/>
    <path d="M 568.700034 410.529781 
L 568.825154 419.747237 
L 568.838966 420.739495 
" clip-path="url(#p8f7c974425)" style="fill: none; stroke: #ff0000; stroke-opacity: 0.7; stroke-width: 0.5"/>
    <path d="M 480.300512 470.895969 
L 481.263284 470.81317 
L 484.756886 469.592545 
L 485.604288 469.245321 
L 486.180326 468.974219 
L 490.601765 466.880193 
L 492.562245 465.799793 
L 494.2148 464.750109 
L 497.087679 462.802985 
L 502.609196 458.437313 
L 504.324311 456.906858 
L 506.275042 455.317641 
L 506.629277 455.045204 
" clip-path="url(#p8f7c974425)" style="fill: none; stroke: #ff0000; stroke-opacity: 0.7; stroke-width: 0.5"/>
    <path d="M 509.788956 452.331517 
L 509.364036 451.805339 
L 509.169857 451.566289 
" clip-path="url(#p8f7c974425)" style="fill: none; stroke: #ff0000; stroke-opacity: 0.7; stroke-width: 0.5"/>
    <path d="M 504.757356 451.353948 
L 505.168463 451.830713 
L 505.291146 451.972274 
" clip-path="url(#p8f7c974425)" style="fill: none; stroke: #ff0000; stroke-opacity: 0.7; stroke-width: 0.5"/>
    <path d="M 568.822717 431.193602 
L 568.843841 430.26144 
L 568.840591 422.049597 
L 568.838966 420.739495 
" clip-path="url(#p8f7c974425)" style="fill: none; stroke: #ff0000; stroke-opacity: 0.7; stroke-width: 0.5"/>
    <path d="M 568.069561 302.019681 
L 570.875005 300.327633 
L 571.58185 299.901616 
L 574.017623 298.432592 
L 575.85867 297.328154 
L 577.299984 296.464101 
" clip-path="url(#p8f7c974425)" style="fill: none; stroke: #ff0000; stroke-opacity: 0.7; stroke-width: 0.5"/>
    <path d="M 535.886981 278.04655 
L 536.490643 277.679294 
L 544.066886 273.06656 
L 544.533241 272.78611 
L 545.311583 272.30801 
" clip-path="url(#p8f7c974425)" style="fill: none; stroke: #ff0000; stroke-opacity: 0.7; stroke-width: 0.5"/>
    <path d="M 546.699275 271.48135 
L 547.581612 270.949831 
L 548.29902 270.517136 
L 551.4392 268.624767 
L 554.57613 266.735068 
L 556.565859 265.565191 
" clip-path="url(#p8f7c974425)" style="fill: none; stroke: #ff0000; stroke-opacity: 0.7; stroke-width: 0.5"/>
    <path d="M 361.302717 264.291147 
L 361.167848 265.328812 
L 361.011042 266.168826 
L 360.647057 267.289291 
L 357.926109 274.152302 
L 357.341134 275.438366 
" clip-path="url(#p8f7c974425)" style="fill: none; stroke: #ff0000; stroke-opacity: 0.7; stroke-width: 0.5"/>
    <path d="M 506.629277 455.045204 
L 507.368621 454.394827 
L 508.214397 453.638948 
L 509.471282 452.601283 
L 509.788956 452.331517 
" clip-path="url(#p8f7c974425)" style="fill: none; stroke: #ff0000; stroke-opacity: 0.7; stroke-width: 0.5"/>
    <path d="M 559.668665 398.300827 
L 559.762911 399.307776 
L 559.797035 400.759438 
L 559.841721 401.733 
L 559.85472 402.017457 
L 559.879094 402.54497 
L 559.889656 402.806723 
" clip-path="url(#p8f7c974425)" style="fill: none; stroke: #ff0000; stroke-opacity: 0.7; stroke-width: 0.5"/>
    <path d="M 559.889656 402.806723 
L 559.935967 403.800317 
L 560.143958 408.292859 
L 560.241454 410.390892 
L 560.312951 411.949392 
L 560.330825 413.186043 
L 560.439695 420.771547 
" clip-path="url(#p8f7c974425)" style="fill: none; stroke: #ff0000; stroke-opacity: 0.7; stroke-width: 0.5"/>
    <path d="M 568.822717 431.193602 
L 568.496106 432.817541 
" clip-path="url(#p8f7c974425)" style="fill: none; stroke: #ff0000; stroke-opacity: 0.7; stroke-width: 0.5"/>
    <path d="M 447.974125 244.265684 
L 446.301258 245.382142 
L 444.201034 246.58407 
L 442.515168 247.366659 
L 441.099852 247.910198 
L 439.554542 248.389634 
L 438.048231 248.772915 
L 435.191601 249.421957 
L 432.73958 249.99354 
L 431.72156 250.216565 
" clip-path="url(#p8f7c974425)" style="fill: none; stroke: #ff0000; stroke-opacity: 0.7; stroke-width: 0.5"/>
    <path d="M 480.401258 248.492465 
L 480.173767 247.349298 
L 479.724474 245.99379 
L 479.240244 245.017557 
L 479.055002 244.743784 
L 478.370093 243.80628 
L 477.339074 242.76995 
L 476.329179 242.086187 
L 475.306285 241.588054 
L 474.232205 241.22614 
L 472.251414 240.880252 
L 471.128586 240.715988 
L 469.471156 240.563744 
L 468.288206 240.492964 
" clip-path="url(#p8f7c974425)" style="fill: none; stroke: #ff0000; stroke-opacity: 0.7; stroke-width: 0.5"/>
    <path d="M 427.992342 251.048567 
L 419.430578 252.580358 
L 411.217362 253.977266 
L 402.749844 255.46365 
L 395.942194 256.572095 
L 391.099086 257.464193 
L 386.263289 258.265479 
L 383.816955 258.694167 
L 382.574695 258.965269 
L 381.135818 259.428679 
L 378.864976 260.575853 
L 376.200089 262.028851 
L 375.174757 262.472229 
L 373.669258 262.78473 
L 373.103782 262.883555 
" clip-path="url(#p8f7c974425)" style="fill: none; stroke: #ff0000; stroke-opacity: 0.7; stroke-width: 0.5"/>
    <path d="M 450.202718 242.768615 
L 447.974125 244.265684 
" clip-path="url(#p8f7c974425)" style="fill: none; stroke: #ff0000; stroke-opacity: 0.7; stroke-width: 0.5"/>
    <path d="M 362.945523 264.309844 
L 362.141182 264.349908 
L 361.302717 264.291147 
" clip-path="url(#p8f7c974425)" style="fill: none; stroke: #ff0000; stroke-opacity: 0.7; stroke-width: 0.5"/>
    <path d="M 468.288206 240.492964 
L 467.090631 240.422184 
L 463.384975 240.3701 
" clip-path="url(#p8f7c974425)" style="fill: none; stroke: #ff0000; stroke-opacity: 0.7; stroke-width: 0.5"/>
    <path d="M 463.384975 240.3701 
L 459.776002 240.506319 
L 456.315711 240.865562 
L 453.78163 241.283566 
L 452.501996 241.608086 
L 451.149241 242.23576 
L 450.202718 242.768615 
" clip-path="url(#p8f7c974425)" style="fill: none; stroke: #ff0000; stroke-opacity: 0.7; stroke-width: 0.5"/>
    <path d="M 272.843072 284.03616 
L 270.749348 285.160631 
L 269.871072 285.728209 
L 268.831928 286.449366 
" clip-path="url(#p8f7c974425)" style="fill: none; stroke: #ff0000; stroke-opacity: 0.7; stroke-width: 0.5"/>
    <path d="M 289.350751 277.251942 
L 285.398917 278.138698 
L 284.077036 278.533999 
" clip-path="url(#p8f7c974425)" style="fill: none; stroke: #ff0000; stroke-opacity: 0.7; stroke-width: 0.5"/>
    <path d="M 314.090333 272.258597 
L 310.706413 272.947703 
L 310.166936 273.057212 
" clip-path="url(#p8f7c974425)" style="fill: none; stroke: #ff0000; stroke-opacity: 0.7; stroke-width: 0.5"/>
    <path d="M 276.561727 282.031611 
L 275.467336 282.198545 
L 274.791365 282.985141 
" clip-path="url(#p8f7c974425)" style="fill: none; stroke: #ff0000; stroke-opacity: 0.7; stroke-width: 0.5"/>
    <path d="M 284.077036 278.533999 
L 283.15245 278.870539 
L 281.929689 279.383362 
L 279.714095 280.449072 
L 276.561727 282.031611 
" clip-path="url(#p8f7c974425)" style="fill: none; stroke: #ff0000; stroke-opacity: 0.7; stroke-width: 0.5"/>
    <path d="M 310.166936 273.057212 
L 308.970986 273.296262 
L 304.104316 274.273831 
L 289.350751 277.251942 
" clip-path="url(#p8f7c974425)" style="fill: none; stroke: #ff0000; stroke-opacity: 0.7; stroke-width: 0.5"/>
    <path d="M 267.13875 287.715397 
L 266.180853 287.974479 
L 265.127085 288.680946 
L 264.669666 289.010809 
" clip-path="url(#p8f7c974425)" style="fill: none; stroke: #ff0000; stroke-opacity: 0.7; stroke-width: 0.5"/>
    <path d="M 574.657846 362.970808 
L 575.045392 360.974271 
L 575.286694 359.919245 
" clip-path="url(#p8f7c974425)" style="fill: none; stroke: #ff0000; stroke-opacity: 0.7; stroke-width: 0.5"/>
    <path d="M 564.476025 304.16312 
L 565.817406 303.37786 
" clip-path="url(#p8f7c974425)" style="fill: none; stroke: #ff0000; stroke-opacity: 0.7; stroke-width: 0.5"/>
    <path d="M 581.104761 350.238379 
L 581.812419 349.668131 
L 585.510763 347.268281 
L 586.721337 346.66331 
L 588.107404 345.970198 
" clip-path="url(#p8f7c974425)" style="fill: none; stroke: #ff0000; stroke-opacity: 0.7; stroke-width: 0.5"/>
    <path d="M 152.615204 387.136247 
L 153.407358 387.122892 
L 153.902962 387.113544 
L 154.738989 387.112208 
L 159.237612 387.022732 
" clip-path="url(#p8f7c974425)" style="fill: none; stroke: #ff0000; stroke-opacity: 0.7; stroke-width: 0.5"/>
    <path d="M 274.791365 282.985141 
L 275.787448 282.818206 
L 276.561727 282.031611 
" clip-path="url(#p8f7c974425)" style="fill: none; stroke: #ff0000; stroke-opacity: 0.7; stroke-width: 0.5"/>
    <path d="M 265.221331 289.864178 
L 265.675499 289.480896 
L 266.686206 288.659579 
L 267.13875 287.715397 
" clip-path="url(#p8f7c974425)" style="fill: none; stroke: #ff0000; stroke-opacity: 0.7; stroke-width: 0.5"/>
    <path d="M 573.743822 376.871778 
L 574.285736 365.974294 
L 574.395419 365.096886 
L 574.657846 362.970808 
" clip-path="url(#p8f7c974425)" style="fill: none; stroke: #ff0000; stroke-opacity: 0.7; stroke-width: 0.5"/>
    <path d="M 570.316029 379.367783 
L 570.301404 380.071579 
L 570.327403 380.428151 
L 570.386713 380.884884 
L 570.47771 381.306894 
L 570.675951 381.919878 
L 570.849006 382.383288 
L 571.022062 382.848033 
L 571.571288 384.199535 
" clip-path="url(#p8f7c974425)" style="fill: none; stroke: #ff0000; stroke-opacity: 0.7; stroke-width: 0.5"/>
    <path d="M 520.175518 288.886609 
L 521.695641 291.318511 
L 523.457067 294.136366 
L 524.836634 296.343908 
L 525.466295 297.352192 
L 527.029479 299.853539 
L 529.121578 303.200242 
L 530.902503 306.050148 
L 531.915648 307.69679 
L 532.391753 308.462017 
L 532.567246 308.751816 
" clip-path="url(#p8f7c974425)" style="fill: none; stroke: #ff0000; stroke-opacity: 0.7; stroke-width: 0.5"/>
    <path d="M 507.770791 449.838183 
L 507.651359 449.689945 
L 507.254875 449.199826 
" clip-path="url(#p8f7c974425)" style="fill: none; stroke: #ff0000; stroke-opacity: 0.7; stroke-width: 0.5"/>
    <path d="M 509.169857 451.566289 
L 507.770791 449.838183 
" clip-path="url(#p8f7c974425)" style="fill: none; stroke: #ff0000; stroke-opacity: 0.7; stroke-width: 0.5"/>
    <path d="M 506.747084 453.660316 
L 506.905515 453.847282 
L 507.368621 454.394827 
" clip-path="url(#p8f7c974425)" style="fill: none; stroke: #ff0000; stroke-opacity: 0.7; stroke-width: 0.5"/>
    <path d="M 505.291146 451.972274 
L 506.747084 453.660316 
" clip-path="url(#p8f7c974425)" style="fill: none; stroke: #ff0000; stroke-opacity: 0.7; stroke-width: 0.5"/>
    <path d="M 554.751623 309.239264 
L 555.404845 309.299361 
L 556.149064 309.191187 
L 558.066483 308.029323 
" clip-path="url(#p8f7c974425)" style="fill: none; stroke: #ff0000; stroke-opacity: 0.7; stroke-width: 0.5"/>
    <path d="M 268.831928 286.449366 
L 267.13875 287.715397 
" clip-path="url(#p8f7c974425)" style="fill: none; stroke: #ff0000; stroke-opacity: 0.7; stroke-width: 0.5"/>
    <path d="M 274.791365 282.985141 
L 273.812343 283.493957 
L 272.843072 284.03616 
" clip-path="url(#p8f7c974425)" style="fill: none; stroke: #ff0000; stroke-opacity: 0.7; stroke-width: 0.5"/>
    <path d="M 511.309892 293.491331 
L 512.080109 293.092024 
L 512.795892 292.720761 
L 516.700602 290.692173 
L 520.175518 288.886609 
" clip-path="url(#p8f7c974425)" style="fill: none; stroke: #ff0000; stroke-opacity: 0.7; stroke-width: 0.5"/>
    <path d="M 580.016057 429.309245 
L 577.507163 430.791624 
" clip-path="url(#p8f7c974425)" style="fill: none; stroke: #ff0000; stroke-opacity: 0.7; stroke-width: 0.5"/>
    <path d="M 532.567246 308.751816 
L 533.098598 309.642578 
L 533.894002 310.955351 
L 534.166178 311.385375 
L 534.244175 311.530941 
L 536.185155 314.675987 
L 536.554827 315.330371 
L 538.014828 317.760937 
L 539.872125 320.851229 
L 542.021097 324.426298 
L 542.615009 325.413215 
L 540.745526 326.454886 
L 538.861418 327.505906 
L 531.74503 331.242568 
L 530.834256 331.720668 
" clip-path="url(#p8f7c974425)" style="fill: none; stroke: #ff0000; stroke-opacity: 0.7; stroke-width: 0.5"/>
    <path d="M 581.356626 305.422474 
L 579.099596 306.800685 
L 574.351546 309.68932 
L 574.280049 309.732055 
L 571.889775 311.198408 
L 570.875818 311.803379 
" clip-path="url(#p8f7c974425)" style="fill: none; stroke: #ff0000; stroke-opacity: 0.7; stroke-width: 0.5"/>
    <path d="M 577.299984 296.464101 
L 578.317191 295.853788 
L 578.680364 296.462765 
L 579.869814 298.456631 
L 582.91331 303.559485 
L 583.317106 304.235236 
L 581.356626 305.422474 
" clip-path="url(#p8f7c974425)" style="fill: none; stroke: #ff0000; stroke-opacity: 0.7; stroke-width: 0.5"/>
    <path d="M 561.564148 274.084193 
L 560.418571 274.771963 
L 559.563857 275.28345 
L 552.746457 279.372678 
L 551.7325 279.981655 
" clip-path="url(#p8f7c974425)" style="fill: none; stroke: #ff0000; stroke-opacity: 0.7; stroke-width: 0.5"/>
    <path d="M 556.565859 265.565191 
L 556.660917 265.509101 
L 558.289098 264.5529 
L 558.701019 265.227316 
L 559.680852 266.831222 
L 562.942902 272.305339 
L 563.362947 273.005128 
L 561.733953 273.982697 
L 561.564148 274.084193 
" clip-path="url(#p8f7c974425)" style="fill: none; stroke: #ff0000; stroke-opacity: 0.7; stroke-width: 0.5"/>
    <path d="M 166.803293 386.922571 
L 169.430807 386.847784 
L 171.327915 386.814397 
L 172.538489 386.80772 
L 173.566258 386.798372 
L 173.938367 386.795701 
L 174.652524 386.78101 
" clip-path="url(#p8f7c974425)" style="fill: none; stroke: #ff0000; stroke-opacity: 0.7; stroke-width: 0.5"/>
    <path d="M 568.838966 420.739495 
L 567.631642 420.743502 
L 561.351282 420.76754 
L 560.642812 420.770211 
L 560.439695 420.771547 
" clip-path="url(#p8f7c974425)" style="fill: none; stroke: #ff0000; stroke-opacity: 0.7; stroke-width: 0.5"/>
    <path d="M 174.652524 386.78101 
L 179.395699 386.68085 
L 182.018339 386.62476 
L 186.772076 386.477857 
" clip-path="url(#p8f7c974425)" style="fill: none; stroke: #ff0000; stroke-opacity: 0.7; stroke-width: 0.5"/>
    <path d="M 565.817406 303.37786 
L 566.697306 302.845005 
L 566.95892 302.686084 
L 567.482148 302.36824 
L 568.069561 302.019681 
" clip-path="url(#p8f7c974425)" style="fill: none; stroke: #ff0000; stroke-opacity: 0.7; stroke-width: 0.5"/>
    <path d="M 561.932195 305.688234 
L 563.153331 304.94838 
L 563.321511 304.841542 
L 563.561189 304.699981 
L 564.476025 304.16312 
" clip-path="url(#p8f7c974425)" style="fill: none; stroke: #ff0000; stroke-opacity: 0.7; stroke-width: 0.5"/>
    <path d="M 576.396522 431.994888 
L 576.065849 432.609207 
L 575.441063 433.466582 
" clip-path="url(#p8f7c974425)" style="fill: none; stroke: #ff0000; stroke-opacity: 0.7; stroke-width: 0.5"/>
    <path d="M 575.441063 433.466582 
L 576.688198 433.283622 
L 577.290235 432.821547 
" clip-path="url(#p8f7c974425)" style="fill: none; stroke: #ff0000; stroke-opacity: 0.7; stroke-width: 0.5"/>
    <path d="M 558.066483 308.029323 
L 561.932195 305.688234 
" clip-path="url(#p8f7c974425)" style="fill: none; stroke: #ff0000; stroke-opacity: 0.7; stroke-width: 0.5"/>
    <path d="M 499.599011 380.675214 
L 500.050742 381.543273 
L 503.495596 388.215312 
L 507.093195 395.35076 
L 507.610735 396.403115 
" clip-path="url(#p8f7c974425)" style="fill: none; stroke: #ff0000; stroke-opacity: 0.7; stroke-width: 0.5"/>
    <path d="M 159.237612 387.022732 
L 165.348167 386.963971 
L 165.851083 386.958629 
L 166.803293 386.922571 
" clip-path="url(#p8f7c974425)" style="fill: none; stroke: #ff0000; stroke-opacity: 0.7; stroke-width: 0.5"/>
    <path d="M 186.772076 386.477857 
L 188.419756 386.437793 
" clip-path="url(#p8f7c974425)" style="fill: none; stroke: #ff0000; stroke-opacity: 0.7; stroke-width: 0.5"/>
   </g>
   <g id="patch_3">
    <path d="M 90 565.791577 
L 90 161.408423 
" style="fill: none; stroke: #000000; stroke-width: 0.8; stroke-linejoin: miter; stroke-linecap: square"/>
   </g>
   <g id="patch_4">
    <path d="M 648 565.791577 
L 648 161.408423 
" style="fill: none; stroke: #000000; stroke-width: 0.8; stroke-linejoin: miter; stroke-linecap: square"/>
   </g>
   <g id="patch_5">
    <path d="M 90 565.791577 
L 648 565.791577 
" style="fill: none; stroke: #000000; stroke-width: 0.8; stroke-linejoin: miter; stroke-linecap: square"/>
   </g>
   <g id="patch_6">
    <path d="M 90 161.408423 
L 648 161.408423 
" style="fill: none; stroke: #000000; stroke-width: 0.8; stroke-linejoin: miter; stroke-linecap: square"/>
   </g>
   <g id="text_14">
    <!-- Moabit -->
    <g transform="translate(352.95088 352.611133) scale(0.12 -0.12)">
     <defs>
      <path id="DejaVuSans-4d" d="M 628 4666 
L 1569 4666 
L 2759 1491 
L 3956 4666 
L 4897 4666 
L 4897 0 
L 4281 0 
L 4281 4097 
L 3078 897 
L 2444 897 
L 1241 4097 
L 1241 0 
L 628 0 
L 628 4666 
z
" transform="scale(0.015625)"/>
      <path id="DejaVuSans-6f" d="M 1959 3097 
Q 1497 3097 1228 2736 
Q 959 2375 959 1747 
Q 959 1119 1226 758 
Q 1494 397 1959 397 
Q 2419 397 2687 759 
Q 2956 1122 2956 1747 
Q 2956 2369 2687 2733 
Q 2419 3097 1959 3097 
z
M 1959 3584 
Q 2709 3584 3137 3096 
Q 3566 2609 3566 1747 
Q 3566 888 3137 398 
Q 2709 -91 1959 -91 
Q 1206 -91 779 398 
Q 353 888 353 1747 
Q 353 2609 779 3096 
Q 1206 3584 1959 3584 
z
" transform="scale(0.015625)"/>
      <path id="DejaVuSans-61" d="M 2194 1759 
Q 1497 1759 1228 1600 
Q 959 1441 959 1056 
Q 959 750 1161 570 
Q 1363 391 1709 391 
Q 2188 391 2477 730 
Q 2766 1069 2766 1631 
L 2766 1759 
L 2194 1759 
z
M 3341 1997 
L 3341 0 
L 2766 0 
L 2766 531 
Q 2569 213 2275 61 
Q 1981 -91 1556 -91 
Q 1019 -91 701 211 
Q 384 513 384 1019 
Q 384 1609 779 1909 
Q 1175 2209 1959 2209 
L 2766 2209 
L 2766 2266 
Q 2766 2663 2505 2880 
Q 2244 3097 1772 3097 
Q 1472 3097 1187 3025 
Q 903 2953 641 2809 
L 641 3341 
Q 956 3463 1253 3523 
Q 1550 3584 1831 3584 
Q 2591 3584 2966 3190 
Q 3341 2797 3341 1997 
z
" transform="scale(0.015625)"/>
      <path id="DejaVuSans-62" d="M 3116 1747 
Q 3116 2381 2855 2742 
Q 2594 3103 2138 3103 
Q 1681 3103 1420 2742 
Q 1159 2381 1159 1747 
Q 1159 1113 1420 752 
Q 1681 391 2138 391 
Q 2594 391 2855 752 
Q 3116 1113 3116 1747 
z
M 1159 2969 
Q 1341 3281 1617 3432 
Q 1894 3584 2278 3584 
Q 2916 3584 3314 3078 
Q 3713 2572 3713 1747 
Q 3713 922 3314 415 
Q 2916 -91 2278 -91 
Q 1894 -91 1617 61 
Q 1341 213 1159 525 
L 1159 0 
L 581 0 
L 581 4863 
L 1159 4863 
L 1159 2969 
z
" transform="scale(0.015625)"/>
      <path id="DejaVuSans-69" d="M 603 3500 
L 1178 3500 
L 1178 0 
L 603 0 
L 603 3500 
z
M 603 4863 
L 1178 4863 
L 1178 4134 
L 603 4134 
L 603 4863 
z
" transform="scale(0.015625)"/>
      <path id="DejaVuSans-74" d="M 1172 4494 
L 1172 3500 
L 2356 3500 
L 2356 3053 
L 1172 3053 
L 1172 1153 
Q 1172 725 1289 603 
Q 1406 481 1766 481 
L 2356 481 
L 2356 0 
L 1766 0 
Q 1100 0 847 248 
Q 594 497 594 1153 
L 594 3053 
L 172 3053 
L 172 3500 
L 594 3500 
L 594 4494 
L 1172 4494 
z
" transform="scale(0.015625)"/>
     </defs>
     <use xlink:href="#DejaVuSans-4d"/>
     <use xlink:href="#DejaVuSans-6f" x="86.279297"/>
     <use xlink:href="#DejaVuSans-61" x="147.460938"/>
     <use xlink:href="#DejaVuSans-62" x="208.740234"/>
     <use xlink:href="#DejaVuSans-69" x="272.216797"/>
     <use xlink:href="#DejaVuSans-74" x="300"/>
    </g>
   </g>
  </g>
 </g>
 <defs>
  <clipPath id="p8f7c974425">
   <rect x="90" y="161.408423" width="558" height="404.383153"/>
  </clipPath>
 </defs>
</svg>
