<?xml version="1.0" encoding="utf-8" standalone="no"?>
<!DOCTYPE svg PUBLIC "-//W3C//DTD SVG 1.1//EN"
  "http://www.w3.org/Graphics/SVG/1.1/DTD/svg11.dtd">
<svg xmlns:xlink="http://www.w3.org/1999/xlink" width="720pt" height="720pt" viewBox="0 0 720 720" xmlns="http://www.w3.org/2000/svg" version="1.1">
 <metadata>
  <rdf:RDF xmlns:dc="http://purl.org/dc/elements/1.1/" xmlns:cc="http://creativecommons.org/ns#" xmlns:rdf="http://www.w3.org/1999/02/22-rdf-syntax-ns#">
   <cc:Work>
    <dc:type rdf:resource="http://purl.org/dc/dcmitype/StillImage"/>
    <dc:date>2024-10-15T13:04:05.575710</dc:date>
    <dc:format>image/svg+xml</dc:format>
    <dc:creator>
     <cc:Agent>
      <dc:title>Matplotlib v3.9.2, https://matplotlib.org/</dc:title>
     </cc:Agent>
    </dc:creator>
   </cc:Work>
  </rdf:RDF>
 </metadata>
 <defs>
  <style type="text/css">*{stroke-linejoin: round; stroke-linecap: butt}</style>
 </defs>
 <g id="figure_1">
  <g id="patch_1">
   <path d="M 0 720 
L 720 720 
L 720 0 
L 0 0 
z
" style="fill: #ffffff"/>
  </g>
  <g id="axes_1">
   <g id="patch_2">
    <path d="M 90 562.313377 
L 648 562.313377 
L 648 164.886623 
L 90 164.886623 
z
" style="fill: #ffffff"/>
   </g>
   <g id="PatchCollection_1">
    <path d="M 269.000404 217.739039 
L 267.939242 216.986418 
L 266.150369 216.556845 
L 264.334222 216.167523 
L 263.136264 215.888454 
L 260.766532 215.328411 
L 258.27117 214.738397 
L 257.244375 214.496205 
L 255.995284 214.200954 
L 255.700972 215.696317 
L 255.437989 217.067432 
L 256.826825 219.621867 
L 257.431952 220.580335 
L 258.136013 221.69361 
L 259.339112 223.450058 
L 260.20136 224.622498 
L 255.798889 227.406312 
L 251.583795 230.071756 
L 249.732647 231.26544 
L 249.328897 231.525796 
L 248.998668 231.738731 
L 244.500294 234.639294 
L 242.650022 235.741988 
L 237.084904 239.060526 
L 234.222922 240.541002 
L 229.902216 242.773803 
L 229.530528 242.965852 
L 228.500452 243.642168 
L 224.91479 246.002688 
L 218.646834 250.07829 
L 215.653704 252.323259 
L 214.510552 253.180783 
L 214.33495 253.312316 
L 212.779613 254.479053 
L 209.936538 256.61161 
L 207.552433 258.399803 
L 203.545455 261.3441 
L 201.761291 262.702986 
L 200.235386 263.86519 
L 199.58965 264.35697 
L 197.813775 265.709511 
L 195.854977 267.201506 
L 194.778178 267.967986 
L 194.543499 268.134957 
L 190.558869 270.97102 
L 189.190119 271.945158 
L 189.145965 271.97656 
L 187.337569 273.263673 
L 178.314932 279.483998 
L 177.4582 280.07464 
L 177.338604 280.157223 
L 176.535432 280.710867 
L 174.454088 282.693385 
L 173.954849 283.173251 
L 167.259395 289.60924 
L 166.283121 290.547721 
L 156.156656 296.717817 
L 155.621843 296.956155 
L 155.121768 297.178685 
L 151.802133 298.658545 
L 149.87662 299.518629 
L 149.662836 299.614166 
L 149.493229 299.834787 
L 147.419409 300.800721 
L 146.173161 301.381198 
L 144.907074 302.120893 
L 142.331415 303.625729 
L 140.891363 304.467071 
L 140.598413 304.653535 
L 139.622175 305.275037 
L 136.075878 307.363314 
L 133.731684 308.743617 
L 120.728735 316.400549 
L 119.558539 316.593358 
L 118.857697 316.708973 
L 115.363636 320.694468 
L 115.617615 321.847854 
L 115.939679 323.310445 
L 116.098859 324.26681 
L 116.804019 328.504138 
L 116.958693 329.433582 
L 116.820187 329.516592 
L 117.408057 333.137088 
L 117.540216 334.036413 
L 117.589399 334.371126 
L 117.750614 335.467986 
L 117.763813 335.54937 
L 117.806956 335.812429 
L 118.131718 337.798829 
L 118.433141 339.716874 
L 118.482945 340.033824 
L 118.503362 340.163806 
L 118.510925 340.212734 
L 118.55512 340.503631 
L 118.856142 342.480777 
L 118.97272 343.193929 
L 119.179869 344.461134 
L 119.564053 346.898298 
L 119.659991 347.507788 
L 119.988854 349.497919 
L 120.060821 349.927288 
L 120.512205 352.621146 
L 120.601169 353.15215 
L 120.667126 353.149924 
L 120.735562 353.618016 
L 120.675282 353.649439 
L 120.783949 354.406604 
L 121.086525 356.177346 
L 121.340971 357.955992 
L 121.619222 359.700753 
L 122.054395 362.360927 
L 122.176861 363.108692 
L 122.606962 365.701633 
L 122.727347 366.435228 
L 123.070505 368.53256 
L 123.359095 370.294734 
L 123.730958 372.630614 
L 123.740078 372.684227 
L 123.785806 372.953072 
L 124.122951 374.938981 
L 124.541936 377.406958 
L 124.22332 378.561807 
L 124.775113 378.857136 
L 125.367158 379.174167 
L 126.744831 379.834803 
L 126.747047 379.835866 
L 128.228924 380.544887 
L 129.239749 381.028492 
L 131.558587 382.006865 
L 132.799818 382.512191 
L 134.463781 383.206138 
L 136.474221 384.044986 
L 136.635713 384.113028 
L 138.618029 384.941936 
L 138.809771 385.020105 
L 139.87032 385.418296 
L 141.076307 385.732511 
L 143.404829 386.270235 
L 145.77524 386.817617 
L 149.74596 387.734487 
L 151.939801 388.225752 
L 153.307532 388.557273 
L 153.800663 388.703636 
L 154.00922 388.764214 
L 155.979257 389.592105 
L 157.949264 390.41888 
L 159.919289 391.246785 
L 160.78718 391.610543 
L 163.41975 392.685919 
L 165.357493 393.545214 
L 166.47444 394.02658 
L 167.29029 394.378111 
L 170.308909 395.678686 
L 172.023846 396.417698 
L 173.503624 397.055213 
L 174.439693 397.458404 
L 180.126303 399.907063 
L 181.192206 400.366088 
L 183.140432 401.204885 
L 185.429795 402.21749 
L 188.55331 403.600594 
L 188.717241 403.673204 
L 189.538139 404.036791 
L 189.944402 404.21671 
L 195.214473 406.550425 
L 196.428917 407.086807 
L 197.923701 407.747317 
L 199.953003 408.633059 
L 202.004643 409.526076 
L 203.413228 410.139039 
L 204.975066 410.849343 
L 206.134149 411.269994 
L 206.174765 411.284734 
L 207.045823 411.600752 
L 207.12316 411.633003 
L 207.395081 411.746194 
L 207.569769 411.819026 
L 216.232006 415.427562 
L 216.580583 415.5728 
L 220.480263 417.197332 
L 226.726951 420.787644 
L 230.105915 422.731881 
L 230.641975 423.040237 
L 232.990885 424.391809 
L 234.801283 425.434315 
L 237.145405 426.787154 
L 239.005143 427.852251 
L 240.853813 428.916062 
L 242.158285 429.671717 
L 243.403363 430.383099 
L 244.955232 431.27606 
L 246.895201 432.392293 
L 248.230262 433.160641 
L 249.614893 433.957354 
L 250.977398 434.741405 
L 252.915301 435.856468 
L 254.633076 433.750464 
L 256.315885 435.120287 
L 257.835761 436.367174 
L 258.950377 437.280503 
L 260.605517 440.268457 
L 260.671256 440.387132 
L 261.085417 440.666018 
L 263.239659 442.116507 
L 263.540813 442.319305 
L 267.124169 444.726475 
L 267.669043 445.092533 
L 267.682 445.101129 
L 267.889737 445.237414 
L 269.095132 446.028042 
L 269.284345 446.152145 
L 269.418442 446.240139 
L 269.790852 446.47432 
L 272.455314 448.286598 
L 274.418567 449.621715 
L 275.091431 450.073661 
L 275.5042 450.351014 
L 276.572891 451.068885 
L 277.029422 451.375517 
L 278.16495 452.138235 
L 278.195074 452.158482 
L 278.690177 452.492707 
L 278.866505 452.611811 
L 279.544984 453.069932 
L 282.891994 455.329622 
L 284.770522 456.598072 
L 285.094863 456.817009 
L 287.714607 458.481584 
L 287.743572 458.500058 
L 287.811155 458.542979 
L 288.119877 458.738999 
L 288.269355 458.833969 
L 288.953021 459.268174 
L 289.375556 459.536565 
L 290.639521 460.339348 
L 291.191652 460.689995 
L 291.619184 460.961651 
L 295.604367 463.492813 
L 295.937847 463.704707 
L 296.817432 464.263452 
L 297.156817 464.479039 
L 297.537544 464.720812 
L 299.308389 465.845022 
L 301.153628 467.399364 
L 301.493021 467.673146 
L 301.666078 467.812662 
L 302.158805 468.210094 
L 302.624056 468.585312 
L 302.951701 468.849462 
L 304.04118 468.236713 
L 304.580441 467.93349 
L 304.672218 467.881864 
L 306.602204 466.796532 
L 308.312104 465.834791 
L 308.749516 465.588806 
L 309.229439 465.318767 
L 309.668625 465.071847 
L 309.8473 465.37998 
L 310.468249 466.451294 
L 310.890043 467.178854 
L 311.130021 467.592844 
L 311.204814 467.721666 
L 311.804006 468.755478 
L 314.158255 467.46368 
L 314.949191 468.877697 
L 315.352231 469.598361 
L 316.643814 471.90766 
L 317.290644 473.063918 
L 317.785466 473.948653 
L 318.043012 474.409228 
L 318.228916 474.741474 
L 318.324085 474.911762 
L 314.084151 479.5456 
L 316.908982 481.48474 
L 333.518541 492.873045 
L 334.724539 493.717164 
L 335.827381 494.489128 
L 336.684914 495.084582 
L 352.128796 505.827752 
L 354.214145 507.307369 
L 355.009991 507.869796 
L 359.420505 511.029291 
L 367.977913 517.159672 
L 369.242158 518.024304 
L 369.517946 518.212873 
L 370.953308 519.248767 
L 372.307207 520.226078 
L 373.558814 521.129298 
L 374.987792 522.160733 
L 375.272675 522.366299 
L 376.327922 523.086447 
L 376.691227 523.334376 
L 379.525177 525.270497 
L 379.7955 525.455255 
L 382.626825 527.3901 
L 384.652973 528.77482 
L 384.853382 528.911756 
L 393.939865 535.163138 
L 394.03229 535.226774 
L 395.115009 535.971649 
L 395.399559 536.167458 
L 395.448903 536.201681 
L 396.515394 536.942187 
L 397.358119 537.527042 
L 398.395611 538.247386 
L 399.502339 539.015686 
L 400.204986 539.503436 
L 400.942992 540.015822 
L 401.99446 540.745873 
L 403.096966 541.511013 
L 404.049527 542.157235 
L 405.055622 542.839953 
L 405.738815 543.303521 
L 407.055302 544.196897 
L 407.131451 544.248525 
L 407.796085 543.40215 
L 408.127365 542.980221 
L 409.648632 541.043315 
L 410.087696 540.484508 
L 410.813754 539.559988 
L 411.262743 538.988388 
L 411.458218 538.739324 
L 412.344744 537.610525 
L 412.545239 537.355176 
L 412.780971 537.055038 
L 413.861895 535.678886 
L 414.094902 535.38229 
L 415.251096 533.91006 
L 415.529811 533.555198 
L 415.918483 533.060267 
L 417.516601 531.025584 
L 417.831606 530.622656 
L 418.513752 529.749972 
L 418.891476 529.266846 
L 420.838787 526.775944 
L 421.264939 526.230564 
L 421.425061 526.025732 
L 423.604726 523.237586 
L 423.777722 523.016303 
L 424.046156 522.672786 
L 424.338595 522.298876 
L 424.647607 521.903494 
L 426.355325 519.719116 
L 425.714497 516.819978 
L 424.795397 512.825034 
L 424.640076 512.150025 
L 424.53755 511.704191 
L 424.35767 510.922082 
L 424.34879 510.883626 
L 424.280938 510.567595 
L 423.659012 507.673336 
L 421.282832 497.298678 
L 418.3625 484.238988 
L 417.260346 479.355295 
L 416.415335 475.489666 
L 413.653622 463.217728 
L 410.516579 449.291157 
L 410.466555 449.040018 
L 410.297576 448.245549 
L 410.099698 447.351039 
L 410.064574 447.205632 
L 409.686301 445.522625 
L 409.242702 443.532748 
L 409.056522 442.852109 
L 408.800107 441.828419 
L 408.332834 439.683904 
L 408.20019 439.129295 
L 407.984935 438.229314 
L 406.656515 432.67552 
L 406.506747 431.979166 
L 405.896525 429.143771 
L 405.659155 428.041263 
L 405.358995 426.645872 
L 405.294251 426.345392 
L 404.907905 424.6001 
L 405.186717 424.268711 
L 405.311422 424.120461 
L 406.390605 422.837802 
L 406.652151 422.527003 
L 407.533296 421.479761 
L 408.206498 421.570463 
L 415.531146 422.557487 
L 415.899509 423.269637 
L 416.368086 422.607642 
L 416.752801 422.890754 
L 422.181347 426.885913 
L 422.382467 427.033969 
L 424.083722 428.285996 
L 426.617138 428.65329 
L 427.026577 428.712551 
L 438.169889 429.022064 
L 440.22205 429.09756 
L 440.33609 429.101767 
L 443.638544 429.186225 
L 443.64657 429.186443 
L 446.435595 429.261996 
L 447.709786 429.267195 
L 448.050662 429.268611 
L 450.175692 429.277104 
L 452.349801 429.349384 
L 454.385547 429.417082 
L 455.961688 429.469369 
L 456.295709 429.480484 
L 459.765758 429.595863 
L 463.152834 429.708528 
L 463.535068 429.72121 
L 477.201758 430.175763 
L 481.733474 430.314193 
L 489.393404 430.548384 
L 494.396991 430.795909 
L 500.844215 431.146553 
L 505.056927 426.266374 
L 507.028928 423.98186 
L 506.129084 422.584812 
L 505.317347 421.099065 
L 504.538082 419.607129 
L 504.375082 419.288604 
L 503.873186 418.097837 
L 503.234521 416.525306 
L 502.64403 414.915248 
L 502.176096 413.304174 
L 501.753751 411.724492 
L 499.08403 409.63407 
L 499.036066 409.596439 
L 498.53867 409.207129 
L 499.034694 408.566308 
L 501.618692 405.22835 
L 504.15974 407.119065 
L 505.467866 405.462282 
L 506.348055 406.103582 
L 506.363179 407.346308 
L 515.752026 407.014683 
L 516.357937 406.910343 
L 516.937922 406.771949 
L 517.491942 406.570969 
L 518.008708 406.367405 
L 518.525389 406.143734 
L 518.979299 405.897684 
L 519.480993 405.568505 
L 519.942741 405.236687 
L 520.42157 404.901814 
L 520.871201 404.473078 
L 521.263765 404.016 
L 524.258767 400.451432 
L 524.584898 400.042828 
L 530.747748 392.322565 
L 531.14879 391.820155 
L 531.443266 391.451205 
L 532.655624 390.020512 
L 532.803565 389.840123 
L 533.141732 389.427788 
L 534.116966 388.236548 
L 535.371145 386.704774 
L 541.776744 378.950543 
L 542.130283 378.522499 
L 544.302139 375.893527 
L 544.59459 375.539455 
L 546.667687 373.062882 
L 547.159709 373.13128 
L 547.636713 373.290653 
L 547.815498 373.073671 
L 548.792537 371.901518 
L 549.3506 371.222253 
L 550.008237 370.529998 
L 550.031222 370.54131 
L 552.147644 371.123879 
L 556.102432 372.212653 
L 567.936157 375.470691 
L 569.295613 375.844994 
L 569.501276 375.90044 
L 571.344029 376.397946 
L 582.170923 379.320976 
L 583.782328 379.902465 
L 593.783649 383.511911 
L 598.904798 385.371473 
L 605.618151 387.809217 
L 608.000409 388.674364 
L 608.606276 388.894452 
L 608.940933 389.015854 
L 610.438096 389.559593 
L 613.05098 390.534074 
L 613.162655 390.693507 
L 613.940154 387.886155 
L 614.485451 385.917337 
L 615.194499 383.357781 
L 615.755861 381.331222 
L 616.114181 380.037098 
L 616.788247 377.599715 
L 617.298495 375.754982 
L 617.396354 375.401087 
L 617.839468 373.830295 
L 618.912103 370.028413 
L 619.668844 367.346315 
L 620.863092 363.016593 
L 621.846437 358.621182 
L 622.340569 355.412648 
L 622.612435 352.20157 
L 622.636364 348.896141 
L 622.498646 345.431984 
L 622.243694 342.737672 
L 622.144892 341.694302 
L 621.534915 337.981748 
L 620.688092 334.525674 
L 619.607532 331.077185 
L 618.294258 327.739388 
L 616.933606 324.818355 
L 616.788146 324.506171 
L 616.663332 324.276013 
L 615.064387 321.327165 
L 614.131825 319.779977 
L 613.7865 319.207302 
L 610.728529 314.134194 
L 607.315101 308.398098 
L 606.64492 307.257608 
L 606.364437 306.780304 
L 602.743866 300.670548 
L 598.399522 293.344281 
L 597.538149 291.775858 
L 597.415247 291.55218 
L 597.376848 291.482297 
L 597.277085 291.300737 
L 597.225778 291.205087 
L 596.546203 289.938647 
L 595.790942 288.654472 
L 594.621135 286.63518 
L 593.905363 285.45005 
L 593.694195 285.067688 
L 593.326408 284.505607 
L 592.182685 282.44814 
L 591.76349 281.780414 
L 590.893657 280.442251 
L 590.753966 280.268243 
L 590.511579 279.974387 
L 589.393727 278.233969 
L 587.682922 276.21154 
L 585.996652 274.506074 
L 585.740456 274.270477 
L 583.722323 272.501203 
L 581.554387 270.944143 
L 581.307921 270.79361 
L 580.915685 270.553903 
L 580.418325 270.250121 
L 580.181803 270.098144 
L 579.302516 269.533209 
L 577.870808 268.792034 
L 575.971174 267.842068 
L 575.497854 267.605527 
L 574.3351 267.024081 
L 570.927826 265.321084 
L 570.720781 265.217584 
L 570.179722 264.947083 
L 567.545523 263.644882 
L 566.088668 262.924711 
L 564.706667 262.241504 
L 561.214898 260.51529 
L 558.915131 259.455385 
L 556.547492 258.569695 
L 554.117382 257.955506 
L 551.553521 257.355824 
L 548.267136 256.802358 
L 548.07952 256.770693 
L 544.545788 256.175607 
L 543.296211 253.747612 
L 542.950138 253.075238 
L 543.029505 252.749467 
L 543.470751 250.094576 
L 543.962843 247.132601 
L 544.528484 246.664935 
L 545.004333 246.271506 
L 545.603136 245.733492 
L 546.048472 245.333404 
L 546.684535 241.099411 
L 547.107618 238.699917 
L 547.514446 236.241225 
L 548.080026 232.831494 
L 548.284416 231.849276 
L 548.59628 229.875981 
L 548.956672 227.854146 
L 549.28882 225.746628 
L 549.643636 223.656272 
L 549.256958 223.582621 
L 548.510611 223.440482 
L 547.954903 223.334664 
L 547.368853 223.235889 
L 542.698776 222.357358 
L 541.441454 222.120832 
L 540.917052 222.022114 
L 539.170551 221.693661 
L 537.393102 221.35935 
L 535.645017 221.030381 
L 533.825701 220.6882 
L 532.808065 220.49675 
L 532.090791 220.362335 
L 531.444141 220.239014 
L 530.75243 220.131698 
L 530.290462 220.059871 
L 528.006221 219.606853 
L 526.290366 219.270606 
L 525.995735 219.208962 
L 525.896438 219.18825 
L 524.420793 218.9057 
L 523.799677 218.786793 
L 521.635148 218.355655 
L 520.654384 218.164349 
L 519.670613 217.968614 
L 518.80942 217.79737 
L 517.784251 217.594648 
L 515.810907 217.199382 
L 514.136754 216.86409 
L 513.993835 216.837223 
L 513.538974 216.75178 
L 511.562767 216.38063 
L 510.617145 216.203092 
L 509.940927 216.07604 
L 505.459253 215.234404 
L 500.610135 214.323614 
L 500.424678 214.288774 
L 499.484112 214.112159 
L 498.414018 213.911209 
L 497.515088 213.742369 
L 494.069039 213.095313 
L 491.128151 212.542975 
L 487.089925 211.784796 
L 482.568554 211.158644 
L 480.261378 210.839095 
L 478.666684 210.595585 
L 478.403883 210.555537 
L 477.898107 210.506701 
L 477.197481 210.40829 
L 476.982973 210.378005 
L 476.463234 210.304863 
L 476.171045 210.263865 
L 473.676909 209.913139 
L 473.141093 209.837757 
L 472.711569 209.816969 
L 471.225509 209.744746 
L 468.280593 209.141613 
L 465.453063 208.470965 
L 460.89334 207.649995 
L 459.912061 207.473413 
L 452.634296 206.163262 
L 451.543416 205.966888 
L 450.691777 205.814758 
L 446.369689 205.048971 
L 443.135154 204.486833 
L 443.014017 204.467273 
L 439.27848 203.780648 
L 438.924685 203.715589 
L 437.542252 203.4614 
L 436.987555 203.357696 
L 436.694958 203.303022 
L 435.619839 203.103374 
L 434.427946 202.882044 
L 434.325293 202.861981 
L 433.665351 202.732318 
L 433.598715 202.719242 
L 429.743095 201.968727 
L 429.192917 201.861564 
L 428.872919 201.799276 
L 428.486404 201.724247 
L 428.439353 201.715024 
L 428.063191 201.641909 
L 426.773754 201.391501 
L 424.862328 201.020185 
L 423.552284 200.765504 
L 420.167041 200.107846 
L 420.085999 200.092045 
L 419.395241 199.957887 
L 416.676096 199.429541 
L 416.12592 199.322728 
L 416.064576 199.310777 
L 411.659995 198.455012 
L 410.829414 198.29261 
L 409.840752 198.097177 
L 408.788375 197.889059 
L 407.782264 197.690181 
L 406.709516 197.478232 
L 406.682273 197.472746 
L 404.163726 196.974904 
L 403.709521 196.885045 
L 402.32102 196.610628 
L 384.70714 193.12926 
L 384.188768 193.026856 
L 383.917818 192.973321 
L 383.68638 192.927593 
L 382.762139 192.744165 
L 382.576782 192.707378 
L 382.356955 192.691174 
L 381.888567 192.656907 
L 381.304091 192.614108 
L 381.046405 192.557034 
L 380.150319 192.361925 
L 378.640024 192.033099 
L 377.066775 191.690568 
L 375.503999 191.350401 
L 373.909238 191.003283 
L 372.309743 190.655035 
L 370.636057 190.276022 
L 370.014182 190.135175 
L 369.111048 189.930573 
L 367.489619 189.563261 
L 367.283605 189.51666 
L 365.878326 189.19832 
L 364.412673 188.866332 
L 364.107988 188.797464 
L 362.317031 188.391774 
L 360.577775 187.997904 
L 360.021337 187.871846 
L 358.791881 187.593353 
L 357.972431 187.407764 
L 357.559608 187.31425 
L 356.337661 187.083234 
L 355.623309 186.948088 
L 354.820942 186.796289 
L 353.462358 186.539444 
L 351.836913 186.231916 
L 351.247942 186.120605 
L 350.14394 185.911795 
L 349.397172 185.77061 
L 348.441734 185.589855 
L 347.363617 185.386001 
L 346.821802 185.283572 
L 345.521735 185.037738 
L 345.135913 184.964775 
L 345.08065 184.954275 
L 344.714526 184.885159 
L 343.243828 184.606923 
L 343.05936 184.572115 
L 341.532612 184.283399 
L 341.026133 184.187522 
L 340.707672 184.13525 
L 339.921587 184.006155 
L 339.849593 183.994328 
L 338.965978 183.849235 
L 338.66124 183.799143 
L 338.235914 183.72939 
L 336.574987 183.456706 
L 334.964113 183.192055 
L 334.61213 183.134326 
L 333.498805 182.951475 
L 332.283996 182.992898 
L 330.985847 183.03712 
L 330.072249 183.068272 
L 327.559404 183.15393 
L 327.502387 183.155827 
L 326.752445 183.181454 
L 325.549622 183.222409 
L 325.268464 183.232033 
L 324.391831 183.261953 
L 323.351789 183.314139 
L 323.008449 183.33577 
L 320.521267 183.489213 
L 320.025755 183.523883 
L 319.53002 183.558671 
L 317.663321 184.201202 
L 316.631992 184.556196 
L 316.143145 184.724412 
L 314.797681 185.187594 
L 313.031836 185.796633 
L 312.840746 185.861174 
L 311.920283 186.556884 
L 311.684651 186.734946 
L 309.979967 188.02324 
L 309.578534 188.326527 
L 309.389239 188.469781 
L 308.687753 188.999812 
L 307.303322 190.046109 
L 306.343932 190.771199 
L 305.830976 191.158781 
L 304.219646 192.376672 
L 302.689269 193.53325 
L 302.563398 193.621933 
L 301.562762 194.289052 
L 300.756967 194.826052 
L 299.252928 195.828881 
L 298.236272 196.506573 
L 297.185581 197.207017 
L 296.308293 197.791845 
L 294.953687 198.694973 
L 294.683474 198.875134 
L 293.320029 199.784073 
L 293.137567 199.905729 
L 292.259847 200.490909 
L 291.665162 200.887452 
L 291.069924 201.284344 
L 290.84878 201.43166 
L 289.985321 202.007326 
L 289.824856 202.114467 
L 288.759041 202.824802 
L 288.269793 203.151114 
L 287.252171 203.829522 
L 286.560792 204.290499 
L 285.955393 204.694131 
L 284.894899 205.401214 
L 284.650661 205.56397 
L 284.25215 205.829805 
L 283.293221 206.469098 
L 283.009863 206.657974 
L 281.517048 207.653308 
L 281.207167 207.859831 
L 279.876482 208.747091 
L 278.43174 209.945185 
L 278.328435 210.030878 
L 276.945921 211.177194 
L 276.770261 211.322975 
L 275.716727 212.196751 
L 274.404828 213.284934 
L 274.285224 213.384123 
L 272.829598 214.591003 
L 272.637194 214.750402 
L 271.878816 215.373713 
L 271.254271 215.886969 
L 269.232706 217.54811 
L 269.000404 217.739039 
" clip-path="url(#pdf74149017)" style="fill: #d3d3d3"/>
   </g>
   <g id="matplotlib.axis_1">
    <g id="xtick_1">
     <g id="line2d_1">
      <defs>
       <path id="me93dab6f76" d="M 0 0 
L 0 3.5 
" style="stroke: #000000; stroke-width: 0.8"/>
      </defs>
      <g>
       <use xlink:href="#me93dab6f76" x="123.681273" y="562.313377" style="stroke: #000000; stroke-width: 0.8"/>
      </g>
     </g>
     <g id="text_1">
      <!-- 13.43 -->
      <g transform="translate(109.36721 576.911815) scale(0.1 -0.1)">
       <defs>
        <path id="DejaVuSans-31" d="M 794 531 
L 1825 531 
L 1825 4091 
L 703 3866 
L 703 4441 
L 1819 4666 
L 2450 4666 
L 2450 531 
L 3481 531 
L 3481 0 
L 794 0 
L 794 531 
z
" transform="scale(0.015625)"/>
        <path id="DejaVuSans-33" d="M 2597 2516 
Q 3050 2419 3304 2112 
Q 3559 1806 3559 1356 
Q 3559 666 3084 287 
Q 2609 -91 1734 -91 
Q 1441 -91 1130 -33 
Q 819 25 488 141 
L 488 750 
Q 750 597 1062 519 
Q 1375 441 1716 441 
Q 2309 441 2620 675 
Q 2931 909 2931 1356 
Q 2931 1769 2642 2001 
Q 2353 2234 1838 2234 
L 1294 2234 
L 1294 2753 
L 1863 2753 
Q 2328 2753 2575 2939 
Q 2822 3125 2822 3475 
Q 2822 3834 2567 4026 
Q 2313 4219 1838 4219 
Q 1578 4219 1281 4162 
Q 984 4106 628 3988 
L 628 4550 
Q 988 4650 1302 4700 
Q 1616 4750 1894 4750 
Q 2613 4750 3031 4423 
Q 3450 4097 3450 3541 
Q 3450 3153 3228 2886 
Q 3006 2619 2597 2516 
z
" transform="scale(0.015625)"/>
        <path id="DejaVuSans-2e" d="M 684 794 
L 1344 794 
L 1344 0 
L 684 0 
L 684 794 
z
" transform="scale(0.015625)"/>
        <path id="DejaVuSans-34" d="M 2419 4116 
L 825 1625 
L 2419 1625 
L 2419 4116 
z
M 2253 4666 
L 3047 4666 
L 3047 1625 
L 3713 1625 
L 3713 1100 
L 3047 1100 
L 3047 0 
L 2419 0 
L 2419 1100 
L 313 1100 
L 313 1709 
L 2253 4666 
z
" transform="scale(0.015625)"/>
       </defs>
       <use xlink:href="#DejaVuSans-31"/>
       <use xlink:href="#DejaVuSans-33" x="63.623047"/>
       <use xlink:href="#DejaVuSans-2e" x="127.246094"/>
       <use xlink:href="#DejaVuSans-34" x="159.033203"/>
       <use xlink:href="#DejaVuSans-33" x="222.65625"/>
      </g>
     </g>
    </g>
    <g id="xtick_2">
     <g id="line2d_2">
      <g>
       <use xlink:href="#me93dab6f76" x="199.652586" y="562.313377" style="stroke: #000000; stroke-width: 0.8"/>
      </g>
     </g>
     <g id="text_2">
      <!-- 13.44 -->
      <g transform="translate(185.338523 576.911815) scale(0.1 -0.1)">
       <use xlink:href="#DejaVuSans-31"/>
       <use xlink:href="#DejaVuSans-33" x="63.623047"/>
       <use xlink:href="#DejaVuSans-2e" x="127.246094"/>
       <use xlink:href="#DejaVuSans-34" x="159.033203"/>
       <use xlink:href="#DejaVuSans-34" x="222.65625"/>
      </g>
     </g>
    </g>
    <g id="xtick_3">
     <g id="line2d_3">
      <g>
       <use xlink:href="#me93dab6f76" x="275.623898" y="562.313377" style="stroke: #000000; stroke-width: 0.8"/>
      </g>
     </g>
     <g id="text_3">
      <!-- 13.45 -->
      <g transform="translate(261.309836 576.911815) scale(0.1 -0.1)">
       <defs>
        <path id="DejaVuSans-35" d="M 691 4666 
L 3169 4666 
L 3169 4134 
L 1269 4134 
L 1269 2991 
Q 1406 3038 1543 3061 
Q 1681 3084 1819 3084 
Q 2600 3084 3056 2656 
Q 3513 2228 3513 1497 
Q 3513 744 3044 326 
Q 2575 -91 1722 -91 
Q 1428 -91 1123 -41 
Q 819 9 494 109 
L 494 744 
Q 775 591 1075 516 
Q 1375 441 1709 441 
Q 2250 441 2565 725 
Q 2881 1009 2881 1497 
Q 2881 1984 2565 2268 
Q 2250 2553 1709 2553 
Q 1456 2553 1204 2497 
Q 953 2441 691 2322 
L 691 4666 
z
" transform="scale(0.015625)"/>
       </defs>
       <use xlink:href="#DejaVuSans-31"/>
       <use xlink:href="#DejaVuSans-33" x="63.623047"/>
       <use xlink:href="#DejaVuSans-2e" x="127.246094"/>
       <use xlink:href="#DejaVuSans-34" x="159.033203"/>
       <use xlink:href="#DejaVuSans-35" x="222.65625"/>
      </g>
     </g>
    </g>
    <g id="xtick_4">
     <g id="line2d_4">
      <g>
       <use xlink:href="#me93dab6f76" x="351.595211" y="562.313377" style="stroke: #000000; stroke-width: 0.8"/>
      </g>
     </g>
     <g id="text_4">
      <!-- 13.46 -->
      <g transform="translate(337.281149 576.911815) scale(0.1 -0.1)">
       <defs>
        <path id="DejaVuSans-36" d="M 2113 2584 
Q 1688 2584 1439 2293 
Q 1191 2003 1191 1497 
Q 1191 994 1439 701 
Q 1688 409 2113 409 
Q 2538 409 2786 701 
Q 3034 994 3034 1497 
Q 3034 2003 2786 2293 
Q 2538 2584 2113 2584 
z
M 3366 4563 
L 3366 3988 
Q 3128 4100 2886 4159 
Q 2644 4219 2406 4219 
Q 1781 4219 1451 3797 
Q 1122 3375 1075 2522 
Q 1259 2794 1537 2939 
Q 1816 3084 2150 3084 
Q 2853 3084 3261 2657 
Q 3669 2231 3669 1497 
Q 3669 778 3244 343 
Q 2819 -91 2113 -91 
Q 1303 -91 875 529 
Q 447 1150 447 2328 
Q 447 3434 972 4092 
Q 1497 4750 2381 4750 
Q 2619 4750 2861 4703 
Q 3103 4656 3366 4563 
z
" transform="scale(0.015625)"/>
       </defs>
       <use xlink:href="#DejaVuSans-31"/>
       <use xlink:href="#DejaVuSans-33" x="63.623047"/>
       <use xlink:href="#DejaVuSans-2e" x="127.246094"/>
       <use xlink:href="#DejaVuSans-34" x="159.033203"/>
       <use xlink:href="#DejaVuSans-36" x="222.65625"/>
      </g>
     </g>
    </g>
    <g id="xtick_5">
     <g id="line2d_5">
      <g>
       <use xlink:href="#me93dab6f76" x="427.566524" y="562.313377" style="stroke: #000000; stroke-width: 0.8"/>
      </g>
     </g>
     <g id="text_5">
      <!-- 13.47 -->
      <g transform="translate(413.252461 576.911815) scale(0.1 -0.1)">
       <defs>
        <path id="DejaVuSans-37" d="M 525 4666 
L 3525 4666 
L 3525 4397 
L 1831 0 
L 1172 0 
L 2766 4134 
L 525 4134 
L 525 4666 
z
" transform="scale(0.015625)"/>
       </defs>
       <use xlink:href="#DejaVuSans-31"/>
       <use xlink:href="#DejaVuSans-33" x="63.623047"/>
       <use xlink:href="#DejaVuSans-2e" x="127.246094"/>
       <use xlink:href="#DejaVuSans-34" x="159.033203"/>
       <use xlink:href="#DejaVuSans-37" x="222.65625"/>
      </g>
     </g>
    </g>
    <g id="xtick_6">
     <g id="line2d_6">
      <g>
       <use xlink:href="#me93dab6f76" x="503.537836" y="562.313377" style="stroke: #000000; stroke-width: 0.8"/>
      </g>
     </g>
     <g id="text_6">
      <!-- 13.48 -->
      <g transform="translate(489.223774 576.911815) scale(0.1 -0.1)">
       <defs>
        <path id="DejaVuSans-38" d="M 2034 2216 
Q 1584 2216 1326 1975 
Q 1069 1734 1069 1313 
Q 1069 891 1326 650 
Q 1584 409 2034 409 
Q 2484 409 2743 651 
Q 3003 894 3003 1313 
Q 3003 1734 2745 1975 
Q 2488 2216 2034 2216 
z
M 1403 2484 
Q 997 2584 770 2862 
Q 544 3141 544 3541 
Q 544 4100 942 4425 
Q 1341 4750 2034 4750 
Q 2731 4750 3128 4425 
Q 3525 4100 3525 3541 
Q 3525 3141 3298 2862 
Q 3072 2584 2669 2484 
Q 3125 2378 3379 2068 
Q 3634 1759 3634 1313 
Q 3634 634 3220 271 
Q 2806 -91 2034 -91 
Q 1263 -91 848 271 
Q 434 634 434 1313 
Q 434 1759 690 2068 
Q 947 2378 1403 2484 
z
M 1172 3481 
Q 1172 3119 1398 2916 
Q 1625 2713 2034 2713 
Q 2441 2713 2670 2916 
Q 2900 3119 2900 3481 
Q 2900 3844 2670 4047 
Q 2441 4250 2034 4250 
Q 1625 4250 1398 4047 
Q 1172 3844 1172 3481 
z
" transform="scale(0.015625)"/>
       </defs>
       <use xlink:href="#DejaVuSans-31"/>
       <use xlink:href="#DejaVuSans-33" x="63.623047"/>
       <use xlink:href="#DejaVuSans-2e" x="127.246094"/>
       <use xlink:href="#DejaVuSans-34" x="159.033203"/>
       <use xlink:href="#DejaVuSans-38" x="222.65625"/>
      </g>
     </g>
    </g>
    <g id="xtick_7">
     <g id="line2d_7">
      <g>
       <use xlink:href="#me93dab6f76" x="579.509149" y="562.313377" style="stroke: #000000; stroke-width: 0.8"/>
      </g>
     </g>
     <g id="text_7">
      <!-- 13.49 -->
      <g transform="translate(565.195087 576.911815) scale(0.1 -0.1)">
       <defs>
        <path id="DejaVuSans-39" d="M 703 97 
L 703 672 
Q 941 559 1184 500 
Q 1428 441 1663 441 
Q 2288 441 2617 861 
Q 2947 1281 2994 2138 
Q 2813 1869 2534 1725 
Q 2256 1581 1919 1581 
Q 1219 1581 811 2004 
Q 403 2428 403 3163 
Q 403 3881 828 4315 
Q 1253 4750 1959 4750 
Q 2769 4750 3195 4129 
Q 3622 3509 3622 2328 
Q 3622 1225 3098 567 
Q 2575 -91 1691 -91 
Q 1453 -91 1209 -44 
Q 966 3 703 97 
z
M 1959 2075 
Q 2384 2075 2632 2365 
Q 2881 2656 2881 3163 
Q 2881 3666 2632 3958 
Q 2384 4250 1959 4250 
Q 1534 4250 1286 3958 
Q 1038 3666 1038 3163 
Q 1038 2656 1286 2365 
Q 1534 2075 1959 2075 
z
" transform="scale(0.015625)"/>
       </defs>
       <use xlink:href="#DejaVuSans-31"/>
       <use xlink:href="#DejaVuSans-33" x="63.623047"/>
       <use xlink:href="#DejaVuSans-2e" x="127.246094"/>
       <use xlink:href="#DejaVuSans-34" x="159.033203"/>
       <use xlink:href="#DejaVuSans-39" x="222.65625"/>
      </g>
     </g>
    </g>
   </g>
   <g id="matplotlib.axis_2">
    <g id="ytick_1">
     <g id="line2d_8">
      <defs>
       <path id="m496e9e91a0" d="M 0 0 
L -3.5 0 
" style="stroke: #000000; stroke-width: 0.8"/>
      </defs>
      <g>
       <use xlink:href="#m496e9e91a0" x="90" y="525.445901" style="stroke: #000000; stroke-width: 0.8"/>
      </g>
     </g>
     <g id="text_8">
      <!-- 52.540 -->
      <g transform="translate(48.009375 529.24512) scale(0.1 -0.1)">
       <defs>
        <path id="DejaVuSans-32" d="M 1228 531 
L 3431 531 
L 3431 0 
L 469 0 
L 469 531 
Q 828 903 1448 1529 
Q 2069 2156 2228 2338 
Q 2531 2678 2651 2914 
Q 2772 3150 2772 3378 
Q 2772 3750 2511 3984 
Q 2250 4219 1831 4219 
Q 1534 4219 1204 4116 
Q 875 4013 500 3803 
L 500 4441 
Q 881 4594 1212 4672 
Q 1544 4750 1819 4750 
Q 2544 4750 2975 4387 
Q 3406 4025 3406 3419 
Q 3406 3131 3298 2873 
Q 3191 2616 2906 2266 
Q 2828 2175 2409 1742 
Q 1991 1309 1228 531 
z
" transform="scale(0.015625)"/>
        <path id="DejaVuSans-30" d="M 2034 4250 
Q 1547 4250 1301 3770 
Q 1056 3291 1056 2328 
Q 1056 1369 1301 889 
Q 1547 409 2034 409 
Q 2525 409 2770 889 
Q 3016 1369 3016 2328 
Q 3016 3291 2770 3770 
Q 2525 4250 2034 4250 
z
M 2034 4750 
Q 2819 4750 3233 4129 
Q 3647 3509 3647 2328 
Q 3647 1150 3233 529 
Q 2819 -91 2034 -91 
Q 1250 -91 836 529 
Q 422 1150 422 2328 
Q 422 3509 836 4129 
Q 1250 4750 2034 4750 
z
" transform="scale(0.015625)"/>
       </defs>
       <use xlink:href="#DejaVuSans-35"/>
       <use xlink:href="#DejaVuSans-32" x="63.623047"/>
       <use xlink:href="#DejaVuSans-2e" x="127.246094"/>
       <use xlink:href="#DejaVuSans-35" x="159.033203"/>
       <use xlink:href="#DejaVuSans-34" x="222.65625"/>
       <use xlink:href="#DejaVuSans-30" x="286.279297"/>
      </g>
     </g>
    </g>
    <g id="ytick_2">
     <g id="line2d_9">
      <g>
       <use xlink:href="#m496e9e91a0" x="90" y="462.971762" style="stroke: #000000; stroke-width: 0.8"/>
      </g>
     </g>
     <g id="text_9">
      <!-- 52.545 -->
      <g transform="translate(48.009375 466.770981) scale(0.1 -0.1)">
       <use xlink:href="#DejaVuSans-35"/>
       <use xlink:href="#DejaVuSans-32" x="63.623047"/>
       <use xlink:href="#DejaVuSans-2e" x="127.246094"/>
       <use xlink:href="#DejaVuSans-35" x="159.033203"/>
       <use xlink:href="#DejaVuSans-34" x="222.65625"/>
       <use xlink:href="#DejaVuSans-35" x="286.279297"/>
      </g>
     </g>
    </g>
    <g id="ytick_3">
     <g id="line2d_10">
      <g>
       <use xlink:href="#m496e9e91a0" x="90" y="400.497624" style="stroke: #000000; stroke-width: 0.8"/>
      </g>
     </g>
     <g id="text_10">
      <!-- 52.550 -->
      <g transform="translate(48.009375 404.296843) scale(0.1 -0.1)">
       <use xlink:href="#DejaVuSans-35"/>
       <use xlink:href="#DejaVuSans-32" x="63.623047"/>
       <use xlink:href="#DejaVuSans-2e" x="127.246094"/>
       <use xlink:href="#DejaVuSans-35" x="159.033203"/>
       <use xlink:href="#DejaVuSans-35" x="222.65625"/>
       <use xlink:href="#DejaVuSans-30" x="286.279297"/>
      </g>
     </g>
    </g>
    <g id="ytick_4">
     <g id="line2d_11">
      <g>
       <use xlink:href="#m496e9e91a0" x="90" y="338.023485" style="stroke: #000000; stroke-width: 0.8"/>
      </g>
     </g>
     <g id="text_11">
      <!-- 52.555 -->
      <g transform="translate(48.009375 341.822704) scale(0.1 -0.1)">
       <use xlink:href="#DejaVuSans-35"/>
       <use xlink:href="#DejaVuSans-32" x="63.623047"/>
       <use xlink:href="#DejaVuSans-2e" x="127.246094"/>
       <use xlink:href="#DejaVuSans-35" x="159.033203"/>
       <use xlink:href="#DejaVuSans-35" x="222.65625"/>
       <use xlink:href="#DejaVuSans-35" x="286.279297"/>
      </g>
     </g>
    </g>
    <g id="ytick_5">
     <g id="line2d_12">
      <g>
       <use xlink:href="#m496e9e91a0" x="90" y="275.549347" style="stroke: #000000; stroke-width: 0.8"/>
      </g>
     </g>
     <g id="text_12">
      <!-- 52.560 -->
      <g transform="translate(48.009375 279.348565) scale(0.1 -0.1)">
       <use xlink:href="#DejaVuSans-35"/>
       <use xlink:href="#DejaVuSans-32" x="63.623047"/>
       <use xlink:href="#DejaVuSans-2e" x="127.246094"/>
       <use xlink:href="#DejaVuSans-35" x="159.033203"/>
       <use xlink:href="#DejaVuSans-36" x="222.65625"/>
       <use xlink:href="#DejaVuSans-30" x="286.279297"/>
      </g>
     </g>
    </g>
    <g id="ytick_6">
     <g id="line2d_13">
      <g>
       <use xlink:href="#m496e9e91a0" x="90" y="213.075208" style="stroke: #000000; stroke-width: 0.8"/>
      </g>
     </g>
     <g id="text_13">
      <!-- 52.565 -->
      <g transform="translate(48.009375 216.874427) scale(0.1 -0.1)">
       <use xlink:href="#DejaVuSans-35"/>
       <use xlink:href="#DejaVuSans-32" x="63.623047"/>
       <use xlink:href="#DejaVuSans-2e" x="127.246094"/>
       <use xlink:href="#DejaVuSans-35" x="159.033203"/>
       <use xlink:href="#DejaVuSans-36" x="222.65625"/>
       <use xlink:href="#DejaVuSans-35" x="286.279297"/>
      </g>
     </g>
    </g>
   </g>
   <g id="LineCollection_1">
    <path d="M 190.899171 321.009278 
L 192.686016 319.718563 
L 192.795415 319.639845 
L 196.638044 316.87474 
L 197.0726 316.554872 
L 199.066087 315.090478 
L 200.947137 313.708551 
L 201.505526 313.29872 
" clip-path="url(#pdf74149017)" style="fill: none; stroke: #ff0000; stroke-opacity: 0.7; stroke-width: 0.5"/>
    <path d="M 267.222231 277.937108 
L 267.816327 278.745524 
L 268.015371 278.931697 
L 271.77899 282.45024 
L 273.827177 284.389437 
L 275.362557 285.78386 
L 279.262924 289.434849 
L 284.022527 293.855519 
L 286.252285 295.917165 
L 292.6202 301.978406 
L 292.817726 302.167078 
" clip-path="url(#pdf74149017)" style="fill: none; stroke: #ff0000; stroke-opacity: 0.7; stroke-width: 0.5"/>
    <path d="M 411.250165 438.69931 
L 410.352944 434.997093 
L 408.421753 427.186576 
L 407.2913 422.144913 
L 405.975477 415.914992 
L 405.868357 415.43519 
L 405.182336 412.63385 
L 404.613311 410.398525 
L 403.657592 406.177772 
" clip-path="url(#pdf74149017)" style="fill: none; stroke: #ff0000; stroke-opacity: 0.7; stroke-width: 0.5"/>
    <path d="M 393.390829 374.757029 
L 393.257879 375.041911 
L 393.155318 375.314299 
L 393.002615 375.641663 
L 392.915248 375.976524 
L 392.878022 376.196433 
" clip-path="url(#pdf74149017)" style="fill: none; stroke: #ff0000; stroke-opacity: 0.7; stroke-width: 0.5"/>
    <path d="M 391.24312 378.495482 
L 392.363697 378.206851 
L 393.048958 378.438005 
L 393.681799 378.964038 
" clip-path="url(#pdf74149017)" style="fill: none; stroke: #ff0000; stroke-opacity: 0.7; stroke-width: 0.5"/>
    <path d="M 396.875633 377.289731 
L 396.708496 376.282648 
L 396.72521 375.254323 
L 396.928053 374.635829 
L 397.345136 374.044824 
" clip-path="url(#pdf74149017)" style="fill: none; stroke: #ff0000; stroke-opacity: 0.7; stroke-width: 0.5"/>
    <path d="M 317.013829 325.141318 
L 317.522837 325.608624 
L 321.470306 329.309592 
L 323.251074 330.838959 
" clip-path="url(#pdf74149017)" style="fill: none; stroke: #ff0000; stroke-opacity: 0.7; stroke-width: 0.5"/>
    <path d="M 293.903356 302.523181 
L 294.39641 302.991737 
L 301.666864 309.901377 
L 305.011122 312.993846 
L 309.523818 317.167119 
L 316.637771 324.016783 
L 317.40812 324.817702 
" clip-path="url(#pdf74149017)" style="fill: none; stroke: #ff0000; stroke-opacity: 0.7; stroke-width: 0.5"/>
    <path d="M 404.123296 416.66843 
L 405.14511 420.889183 
L 405.247672 421.445202 
" clip-path="url(#pdf74149017)" style="fill: none; stroke: #ff0000; stroke-opacity: 0.7; stroke-width: 0.5"/>
    <path d="M 401.707408 405.211922 
L 401.990022 406.565112 
L 403.836125 415.403953 
L 403.955399 415.901247 
L 404.123296 416.66843 
" clip-path="url(#pdf74149017)" style="fill: none; stroke: #ff0000; stroke-opacity: 0.7; stroke-width: 0.5"/>
    <path d="M 403.657592 406.177772 
L 402.189066 399.539271 
L 401.273612 393.900355 
" clip-path="url(#pdf74149017)" style="fill: none; stroke: #ff0000; stroke-opacity: 0.7; stroke-width: 0.5"/>
    <path d="M 397.483403 386.024865 
L 397.738667 386.705833 
L 398.221085 388.121497 
L 398.619934 389.447198 
L 399.269489 392.840793 
L 399.526272 394.290193 
" clip-path="url(#pdf74149017)" style="fill: none; stroke: #ff0000; stroke-opacity: 0.7; stroke-width: 0.5"/>
    <path d="M 401.273612 393.900355 
L 401.073048 392.498435 
L 400.902112 391.462614 
" clip-path="url(#pdf74149017)" style="fill: none; stroke: #ff0000; stroke-opacity: 0.7; stroke-width: 0.5"/>
    <path d="M 405.247672 421.445202 
L 405.890389 424.147834 
" clip-path="url(#pdf74149017)" style="fill: none; stroke: #ff0000; stroke-opacity: 0.7; stroke-width: 0.5"/>
    <path d="M 399.526272 394.290193 
L 401.707408 405.211922 
" clip-path="url(#pdf74149017)" style="fill: none; stroke: #ff0000; stroke-opacity: 0.7; stroke-width: 0.5"/>
    <path d="M 392.878022 376.196433 
L 392.874224 376.381357 
L 392.891697 376.854911 
L 392.941838 377.199768 
" clip-path="url(#pdf74149017)" style="fill: none; stroke: #ff0000; stroke-opacity: 0.7; stroke-width: 0.5"/>
    <path d="M 397.860981 382.064004 
L 396.023994 378.650418 
L 395.782406 378.219346 
L 395.050042 377.257244 
L 394.645875 376.911138 
L 394.265259 376.672486 
L 393.910473 376.497559 
" clip-path="url(#pdf74149017)" style="fill: none; stroke: #ff0000; stroke-opacity: 0.7; stroke-width: 0.5"/>
    <path d="M 393.910473 376.497559 
L 393.478196 376.358866 
L 393.097579 376.261406 
L 392.878022 376.196433 
" clip-path="url(#pdf74149017)" style="fill: none; stroke: #ff0000; stroke-opacity: 0.7; stroke-width: 0.5"/>
    <path d="M 392.878022 376.196433 
L 392.610603 376.148953 
L 392.133504 376.080231 
L 391.40038 376.115217 
" clip-path="url(#pdf74149017)" style="fill: none; stroke: #ff0000; stroke-opacity: 0.7; stroke-width: 0.5"/>
    <path d="M 399.011186 384.980297 
L 397.860981 382.064004 
" clip-path="url(#pdf74149017)" style="fill: none; stroke: #ff0000; stroke-opacity: 0.7; stroke-width: 0.5"/>
    <path d="M 345.79708 384.049433 
L 345.899642 383.654596 
L 346.758877 380.353463 
L 347.099988 379.041506 
L 347.947828 375.747869 
L 348.462914 373.809921 
L 349.556901 369.630401 
L 350.384988 366.485453 
L 350.881081 364.603732 
L 351.645352 361.714928 
L 353.062217 356.183468 
L 353.265061 352.227605 
" clip-path="url(#pdf74149017)" style="fill: none; stroke: #ff0000; stroke-opacity: 0.7; stroke-width: 0.5"/>
    <path d="M 424.989577 366.787828 
L 425.557842 367.182665 
L 426.96711 367.998577 
L 428.331555 368.698287 
L 430.142711 369.308035 
L 431.20403 369.549185 
L 433.025063 369.874051 
L 433.644229 370.003997 
L 437.818093 370.707456 
L 441.613619 371.415912 
L 442.555664 371.594588 
L 447.317546 372.547944 
L 449.215309 372.902797 
L 452.048279 373.431328 
L 458.178404 374.454654 
L 460.419558 374.752031 
L 463.325461 375.136872 
L 463.83067 374.885726 
" clip-path="url(#pdf74149017)" style="fill: none; stroke: #ff0000; stroke-opacity: 0.7; stroke-width: 0.5"/>
    <path d="M 323.251074 330.838959 
L 324.018384 331.27253 
L 325.289384 332.090941 
L 332.188339 336.607821 
" clip-path="url(#pdf74149017)" style="fill: none; stroke: #ff0000; stroke-opacity: 0.7; stroke-width: 0.5"/>
    <path d="M 262.578864 349.02768 
L 263.54294 348.700316 
L 263.67665 348.654085 
L 268.002456 345.109302 
L 268.460563 344.733208 
L 269.253704 343.313795 
" clip-path="url(#pdf74149017)" style="fill: none; stroke: #ff0000; stroke-opacity: 0.7; stroke-width: 0.5"/>
    <path d="M 393.681799 378.964038 
L 394.095083 379.600024 
L 394.443791 380.227265 
L 396.440317 383.792039 
L 396.630246 384.186876 
L 397.483403 386.024865 
" clip-path="url(#pdf74149017)" style="fill: none; stroke: #ff0000; stroke-opacity: 0.7; stroke-width: 0.5"/>
    <path d="M 392.941838 377.199768 
L 393.026166 377.543376 
L 393.220653 378.005684 
L 393.681799 378.964038 
" clip-path="url(#pdf74149017)" style="fill: none; stroke: #ff0000; stroke-opacity: 0.7; stroke-width: 0.5"/>
    <path d="M 342.271252 397.36517 
L 342.496127 396.715439 
L 342.534872 396.571749 
L 343.184427 394.079031 
L 343.374355 393.350582 
L 343.580997 392.557161 
L 343.913752 391.280189 
L 344.099881 390.567984 
L 344.21004 390.14441 
L 344.396929 389.427206 
L 344.650673 388.455109 
L 344.708412 388.232701 
" clip-path="url(#pdf74149017)" style="fill: none; stroke: #ff0000; stroke-opacity: 0.7; stroke-width: 0.5"/>
    <path d="M 344.708412 388.232701 
L 345.635262 384.670426 
L 345.765932 384.169383 
L 345.79708 384.049433 
" clip-path="url(#pdf74149017)" style="fill: none; stroke: #ff0000; stroke-opacity: 0.7; stroke-width: 0.5"/>
    <path d="M 352.539534 350.044759 
L 352.873808 350.450841 
L 353.175414 351.066836 
L 353.265061 352.227605 
" clip-path="url(#pdf74149017)" style="fill: none; stroke: #ff0000; stroke-opacity: 0.7; stroke-width: 0.5"/>
    <path d="M 337.914297 340.377511 
L 343.407783 344.07473 
L 347.846027 346.978528 
" clip-path="url(#pdf74149017)" style="fill: none; stroke: #ff0000; stroke-opacity: 0.7; stroke-width: 0.5"/>
    <path d="M 334.642213 338.213407 
L 336.179872 339.21924 
L 336.385754 339.355434 
" clip-path="url(#pdf74149017)" style="fill: none; stroke: #ff0000; stroke-opacity: 0.7; stroke-width: 0.5"/>
    <path d="M 397.860981 382.064004 
L 396.952364 377.928217 
L 396.875633 377.289731 
" clip-path="url(#pdf74149017)" style="fill: none; stroke: #ff0000; stroke-opacity: 0.7; stroke-width: 0.5"/>
    <path d="M 183.760906 327.110503 
L 184.120251 326.335823 
L 184.46592 325.718579 
L 184.898197 325.25752 
L 185.878227 324.577801 
L 187.254067 323.620697 
L 188.643583 322.631107 
L 190.071843 321.607781 
L 190.899171 321.009278 
" clip-path="url(#pdf74149017)" style="fill: none; stroke: #ff0000; stroke-opacity: 0.7; stroke-width: 0.5"/>
    <path d="M 347.846027 346.978528 
L 348.20841 347.21593 
L 352.539534 350.044759 
" clip-path="url(#pdf74149017)" style="fill: none; stroke: #ff0000; stroke-opacity: 0.7; stroke-width: 0.5"/>
    <path d="M 336.385754 339.355434 
L 337.107482 339.827738 
L 337.719051 340.23382 
L 337.914297 340.377511 
" clip-path="url(#pdf74149017)" style="fill: none; stroke: #ff0000; stroke-opacity: 0.7; stroke-width: 0.5"/>
    <path d="M 332.188339 336.607821 
L 334.642213 338.213407 
" clip-path="url(#pdf74149017)" style="fill: none; stroke: #ff0000; stroke-opacity: 0.7; stroke-width: 0.5"/>
    <path d="M 292.817726 302.167078 
L 293.52274 302.8393 
" clip-path="url(#pdf74149017)" style="fill: none; stroke: #ff0000; stroke-opacity: 0.7; stroke-width: 0.5"/>
    <path d="M 400.902112 391.462614 
L 400.554164 389.793305 
L 400.248759 388.538824 
L 399.695688 386.755812 
L 399.011186 384.980297 
" clip-path="url(#pdf74149017)" style="fill: none; stroke: #ff0000; stroke-opacity: 0.7; stroke-width: 0.5"/>
   </g>
   <g id="patch_3">
    <path d="M 90 562.313377 
L 90 164.886623 
" style="fill: none; stroke: #000000; stroke-width: 0.8; stroke-linejoin: miter; stroke-linecap: square"/>
   </g>
   <g id="patch_4">
    <path d="M 648 562.313377 
L 648 164.886623 
" style="fill: none; stroke: #000000; stroke-width: 0.8; stroke-linejoin: miter; stroke-linecap: square"/>
   </g>
   <g id="patch_5">
    <path d="M 90 562.313377 
L 648 562.313377 
" style="fill: none; stroke: #000000; stroke-width: 0.8; stroke-linejoin: miter; stroke-linecap: square"/>
   </g>
   <g id="patch_6">
    <path d="M 90 164.886623 
L 648 164.886623 
" style="fill: none; stroke: #000000; stroke-width: 0.8; stroke-linejoin: miter; stroke-linecap: square"/>
   </g>
   <g id="text_14">
    <!-- Südliches_Weißensee -->
    <g transform="translate(306.313172 337.869277) scale(0.12 -0.12)">
     <defs>
      <path id="DejaVuSans-53" d="M 3425 4513 
L 3425 3897 
Q 3066 4069 2747 4153 
Q 2428 4238 2131 4238 
Q 1616 4238 1336 4038 
Q 1056 3838 1056 3469 
Q 1056 3159 1242 3001 
Q 1428 2844 1947 2747 
L 2328 2669 
Q 3034 2534 3370 2195 
Q 3706 1856 3706 1288 
Q 3706 609 3251 259 
Q 2797 -91 1919 -91 
Q 1588 -91 1214 -16 
Q 841 59 441 206 
L 441 856 
Q 825 641 1194 531 
Q 1563 422 1919 422 
Q 2459 422 2753 634 
Q 3047 847 3047 1241 
Q 3047 1584 2836 1778 
Q 2625 1972 2144 2069 
L 1759 2144 
Q 1053 2284 737 2584 
Q 422 2884 422 3419 
Q 422 4038 858 4394 
Q 1294 4750 2059 4750 
Q 2388 4750 2728 4690 
Q 3069 4631 3425 4513 
z
" transform="scale(0.015625)"/>
      <path id="DejaVuSans-fc" d="M 544 1381 
L 544 3500 
L 1119 3500 
L 1119 1403 
Q 1119 906 1312 657 
Q 1506 409 1894 409 
Q 2359 409 2629 706 
Q 2900 1003 2900 1516 
L 2900 3500 
L 3475 3500 
L 3475 0 
L 2900 0 
L 2900 538 
Q 2691 219 2414 64 
Q 2138 -91 1772 -91 
Q 1169 -91 856 284 
Q 544 659 544 1381 
z
M 1991 3584 
L 1991 3584 
z
M 2278 4850 
L 2913 4850 
L 2913 4219 
L 2278 4219 
L 2278 4850 
z
M 1056 4850 
L 1691 4850 
L 1691 4219 
L 1056 4219 
L 1056 4850 
z
" transform="scale(0.015625)"/>
      <path id="DejaVuSans-64" d="M 2906 2969 
L 2906 4863 
L 3481 4863 
L 3481 0 
L 2906 0 
L 2906 525 
Q 2725 213 2448 61 
Q 2172 -91 1784 -91 
Q 1150 -91 751 415 
Q 353 922 353 1747 
Q 353 2572 751 3078 
Q 1150 3584 1784 3584 
Q 2172 3584 2448 3432 
Q 2725 3281 2906 2969 
z
M 947 1747 
Q 947 1113 1208 752 
Q 1469 391 1925 391 
Q 2381 391 2643 752 
Q 2906 1113 2906 1747 
Q 2906 2381 2643 2742 
Q 2381 3103 1925 3103 
Q 1469 3103 1208 2742 
Q 947 2381 947 1747 
z
" transform="scale(0.015625)"/>
      <path id="DejaVuSans-6c" d="M 603 4863 
L 1178 4863 
L 1178 0 
L 603 0 
L 603 4863 
z
" transform="scale(0.015625)"/>
      <path id="DejaVuSans-69" d="M 603 3500 
L 1178 3500 
L 1178 0 
L 603 0 
L 603 3500 
z
M 603 4863 
L 1178 4863 
L 1178 4134 
L 603 4134 
L 603 4863 
z
" transform="scale(0.015625)"/>
      <path id="DejaVuSans-63" d="M 3122 3366 
L 3122 2828 
Q 2878 2963 2633 3030 
Q 2388 3097 2138 3097 
Q 1578 3097 1268 2742 
Q 959 2388 959 1747 
Q 959 1106 1268 751 
Q 1578 397 2138 397 
Q 2388 397 2633 464 
Q 2878 531 3122 666 
L 3122 134 
Q 2881 22 2623 -34 
Q 2366 -91 2075 -91 
Q 1284 -91 818 406 
Q 353 903 353 1747 
Q 353 2603 823 3093 
Q 1294 3584 2113 3584 
Q 2378 3584 2631 3529 
Q 2884 3475 3122 3366 
z
" transform="scale(0.015625)"/>
      <path id="DejaVuSans-68" d="M 3513 2113 
L 3513 0 
L 2938 0 
L 2938 2094 
Q 2938 2591 2744 2837 
Q 2550 3084 2163 3084 
Q 1697 3084 1428 2787 
Q 1159 2491 1159 1978 
L 1159 0 
L 581 0 
L 581 4863 
L 1159 4863 
L 1159 2956 
Q 1366 3272 1645 3428 
Q 1925 3584 2291 3584 
Q 2894 3584 3203 3211 
Q 3513 2838 3513 2113 
z
" transform="scale(0.015625)"/>
      <path id="DejaVuSans-65" d="M 3597 1894 
L 3597 1613 
L 953 1613 
Q 991 1019 1311 708 
Q 1631 397 2203 397 
Q 2534 397 2845 478 
Q 3156 559 3463 722 
L 3463 178 
Q 3153 47 2828 -22 
Q 2503 -91 2169 -91 
Q 1331 -91 842 396 
Q 353 884 353 1716 
Q 353 2575 817 3079 
Q 1281 3584 2069 3584 
Q 2775 3584 3186 3129 
Q 3597 2675 3597 1894 
z
M 3022 2063 
Q 3016 2534 2758 2815 
Q 2500 3097 2075 3097 
Q 1594 3097 1305 2825 
Q 1016 2553 972 2059 
L 3022 2063 
z
" transform="scale(0.015625)"/>
      <path id="DejaVuSans-73" d="M 2834 3397 
L 2834 2853 
Q 2591 2978 2328 3040 
Q 2066 3103 1784 3103 
Q 1356 3103 1142 2972 
Q 928 2841 928 2578 
Q 928 2378 1081 2264 
Q 1234 2150 1697 2047 
L 1894 2003 
Q 2506 1872 2764 1633 
Q 3022 1394 3022 966 
Q 3022 478 2636 193 
Q 2250 -91 1575 -91 
Q 1294 -91 989 -36 
Q 684 19 347 128 
L 347 722 
Q 666 556 975 473 
Q 1284 391 1588 391 
Q 1994 391 2212 530 
Q 2431 669 2431 922 
Q 2431 1156 2273 1281 
Q 2116 1406 1581 1522 
L 1381 1569 
Q 847 1681 609 1914 
Q 372 2147 372 2553 
Q 372 3047 722 3315 
Q 1072 3584 1716 3584 
Q 2034 3584 2315 3537 
Q 2597 3491 2834 3397 
z
" transform="scale(0.015625)"/>
      <path id="DejaVuSans-5f" d="M 3263 -1063 
L 3263 -1509 
L -63 -1509 
L -63 -1063 
L 3263 -1063 
z
" transform="scale(0.015625)"/>
      <path id="DejaVuSans-57" d="M 213 4666 
L 850 4666 
L 1831 722 
L 2809 4666 
L 3519 4666 
L 4500 722 
L 5478 4666 
L 6119 4666 
L 4947 0 
L 4153 0 
L 3169 4050 
L 2175 0 
L 1381 0 
L 213 4666 
z
" transform="scale(0.015625)"/>
      <path id="DejaVuSans-df" d="M 581 3553 
Q 581 4178 954 4520 
Q 1328 4863 2009 4863 
Q 2659 4863 3001 4500 
Q 3344 4138 3353 3438 
Q 2881 3413 2618 3233 
Q 2356 3053 2356 2753 
Q 2356 2606 2447 2479 
Q 2538 2353 2741 2222 
L 2919 2106 
Q 3438 1775 3588 1553 
Q 3738 1331 3738 1019 
Q 3738 481 3386 195 
Q 3034 -91 2375 -91 
Q 2175 -91 1962 -52 
Q 1750 -13 1522 63 
L 1522 575 
Q 1772 481 1990 436 
Q 2209 391 2413 391 
Q 2775 391 2962 539 
Q 3150 688 3150 972 
Q 3150 1169 3058 1300 
Q 2966 1431 2650 1625 
L 2363 1797 
Q 2063 1981 1927 2192 
Q 1791 2403 1791 2688 
Q 1791 3084 2052 3353 
Q 2313 3622 2784 3713 
Q 2759 4034 2554 4209 
Q 2350 4384 1997 4384 
Q 1591 4384 1378 4167 
Q 1166 3950 1166 3541 
L 1166 0 
L 581 0 
L 581 3553 
z
" transform="scale(0.015625)"/>
      <path id="DejaVuSans-6e" d="M 3513 2113 
L 3513 0 
L 2938 0 
L 2938 2094 
Q 2938 2591 2744 2837 
Q 2550 3084 2163 3084 
Q 1697 3084 1428 2787 
Q 1159 2491 1159 1978 
L 1159 0 
L 581 0 
L 581 3500 
L 1159 3500 
L 1159 2956 
Q 1366 3272 1645 3428 
Q 1925 3584 2291 3584 
Q 2894 3584 3203 3211 
Q 3513 2838 3513 2113 
z
" transform="scale(0.015625)"/>
     </defs>
     <use xlink:href="#DejaVuSans-53"/>
     <use xlink:href="#DejaVuSans-fc" x="63.476562"/>
     <use xlink:href="#DejaVuSans-64" x="126.855469"/>
     <use xlink:href="#DejaVuSans-6c" x="190.332031"/>
     <use xlink:href="#DejaVuSans-69" x="218.115234"/>
     <use xlink:href="#DejaVuSans-63" x="245.898438"/>
     <use xlink:href="#DejaVuSans-68" x="300.878906"/>
     <use xlink:href="#DejaVuSans-65" x="364.257812"/>
     <use xlink:href="#DejaVuSans-73" x="425.78125"/>
     <use xlink:href="#DejaVuSans-5f" x="477.880859"/>
     <use xlink:href="#DejaVuSans-57" x="527.880859"/>
     <use xlink:href="#DejaVuSans-65" x="620.882812"/>
     <use xlink:href="#DejaVuSans-69" x="682.40625"/>
     <use xlink:href="#DejaVuSans-df" x="710.189453"/>
     <use xlink:href="#DejaVuSans-65" x="773.177734"/>
     <use xlink:href="#DejaVuSans-6e" x="834.701172"/>
     <use xlink:href="#DejaVuSans-73" x="898.080078"/>
     <use xlink:href="#DejaVuSans-65" x="950.179688"/>
     <use xlink:href="#DejaVuSans-65" x="1011.703125"/>
    </g>
   </g>
  </g>
 </g>
 <defs>
  <clipPath id="pdf74149017">
   <rect x="90" y="164.886623" width="558" height="397.426755"/>
  </clipPath>
 </defs>
</svg>
