<?xml version="1.0" encoding="utf-8" standalone="no"?>
<!DOCTYPE svg PUBLIC "-//W3C//DTD SVG 1.1//EN"
  "http://www.w3.org/Graphics/SVG/1.1/DTD/svg11.dtd">
<svg xmlns:xlink="http://www.w3.org/1999/xlink" width="720pt" height="720pt" viewBox="0 0 720 720" xmlns="http://www.w3.org/2000/svg" version="1.1">
 <metadata>
  <rdf:RDF xmlns:dc="http://purl.org/dc/elements/1.1/" xmlns:cc="http://creativecommons.org/ns#" xmlns:rdf="http://www.w3.org/1999/02/22-rdf-syntax-ns#">
   <cc:Work>
    <dc:type rdf:resource="http://purl.org/dc/dcmitype/StillImage"/>
    <dc:date>2024-10-15T13:04:04.675210</dc:date>
    <dc:format>image/svg+xml</dc:format>
    <dc:creator>
     <cc:Agent>
      <dc:title>Matplotlib v3.9.2, https://matplotlib.org/</dc:title>
     </cc:Agent>
    </dc:creator>
   </cc:Work>
  </rdf:RDF>
 </metadata>
 <defs>
  <style type="text/css">*{stroke-linejoin: round; stroke-linecap: butt}</style>
 </defs>
 <g id="figure_1">
  <g id="patch_1">
   <path d="M 0 720 
L 720 720 
L 720 0 
L 0 0 
z
" style="fill: #ffffff"/>
  </g>
  <g id="axes_1">
   <g id="patch_2">
    <path d="M 99.794137 640.8 
L 638.205863 640.8 
L 638.205863 86.4 
L 99.794137 86.4 
z
" style="fill: #ffffff"/>
   </g>
   <g id="PatchCollection_1">
    <path d="M 600.922577 338.63886 
L 600.46051 338.54624 
L 599.246502 337.730094 
L 599.184979 337.689121 
L 599.029479 336.786549 
L 599.490065 336.047167 
L 599.173689 335.993355 
L 599.169896 335.99271 
L 598.516636 335.881709 
L 597.563388 335.703562 
L 595.615675 335.378477 
L 595.213407 335.311435 
L 594.431114 335.180869 
L 592.170527 334.803558 
L 591.824639 334.720751 
L 591.344548 334.639153 
L 591.088752 334.595553 
L 590.282518 334.488553 
L 588.798223 334.363576 
L 588.270242 334.516396 
L 588.00856 334.592185 
L 587.937122 334.492454 
L 587.857361 334.38106 
L 586.531019 332.529111 
L 586.388227 332.329735 
L 586.928631 331.314629 
L 587.526819 331.05809 
L 587.62456 330.570838 
L 587.764823 329.872241 
L 587.919644 329.100874 
L 589.037554 327.35992 
L 589.761446 326.232834 
L 591.853586 322.974861 
L 592.160192 322.497438 
L 592.312511 322.260257 
L 593.467976 320.494156 
L 593.651073 320.21424 
L 594.76868 318.505901 
L 596.736646 315.497836 
L 597.929324 313.626873 
L 600.142167 310.155737 
L 601.136785 308.59541 
L 605.868312 301.77184 
L 606.888162 300.245531 
L 608.646743 297.61358 
L 609.586875 296.206636 
L 609.9637 295.642585 
L 610.915798 294.388869 
L 612.417972 292.410752 
L 613.283771 291.285282 
L 613.693104 290.731392 
L 613.732602 290.251458 
L 613.494315 289.846664 
L 612.813271 289.381654 
L 611.649817 288.587161 
L 611.376641 288.53641 
L 611.236753 288.015857 
L 611.157326 287.720418 
L 611.588287 287.683768 
L 611.597724 287.682909 
L 611.674373 287.413156 
L 611.700274 287.321924 
L 611.978435 286.642558 
L 612.076986 286.401817 
L 611.941297 285.853074 
L 611.89605 285.679417 
L 611.257257 283.227755 
L 610.17691 278.738858 
L 610.094787 278.398061 
L 608.716431 272.74332 
L 607.960258 270.51558 
L 607.584051 269.668488 
L 606.282455 266.754501 
L 605.96792 266.036888 
L 605.84837 265.76356 
L 605.706803 265.91514 
L 605.615299 265.706059 
L 605.379903 265.168635 
L 605.343794 265.08594 
L 606.38868 263.894726 
L 606.562047 263.724729 
L 607.774748 262.441814 
L 608.476409 261.699489 
L 609.239876 260.634068 
L 609.398593 260.306905 
L 609.499405 259.967032 
L 609.640717 259.49101 
L 610.874986 256.040318 
L 610.942173 255.788824 
L 610.761545 255.747905 
L 610.184356 255.617261 
L 609.067669 255.259502 
L 607.578152 254.488937 
L 606.310427 253.597563 
L 605.031389 252.609398 
L 604.198348 251.757913 
L 603.911717 251.49745 
L 599.795411 247.742405 
L 596.334077 244.598758 
L 592.365983 240.978607 
L 590.607156 239.454475 
L 590.16609 239.077345 
L 590.086833 239.440082 
L 589.010798 244.496481 
L 588.418786 247.278221 
L 587.977433 249.369308 
L 587.499527 251.627583 
L 587.155671 253.248988 
L 586.555576 256.074037 
L 586.150629 257.978829 
L 585.809947 259.580726 
L 585.637899 260.38939 
L 585.302115 262.010212 
L 584.805496 264.40768 
L 584.315738 266.771754 
L 584.050976 267.995271 
L 583.798465 269.219827 
L 583.593867 270.173293 
L 583.338035 271.387467 
L 583.02692 272.829683 
L 582.562256 275.147024 
L 581.552638 274.943727 
L 580.283973 274.688271 
L 579.325714 275.50976 
L 578.363292 276.334529 
L 578.264149 276.419683 
L 576.273587 278.131516 
L 575.934185 278.450792 
L 575.638178 278.666527 
L 575.268342 278.984345 
L 573.220147 280.751036 
L 572.095199 281.721172 
L 570.936941 282.71107 
L 567.350322 285.809677 
L 566.155838 286.853067 
L 564.930558 287.900565 
L 563.492692 289.112078 
L 563.182275 289.406554 
L 559.130809 292.892532 
L 554.239785 297.103488 
L 553.693658 297.573603 
L 552.811874 298.331241 
L 552.615178 298.502426 
L 550.150228 299.739735 
L 549.418285 300.094421 
L 548.031447 300.789856 
L 546.871817 301.371436 
L 546.726129 301.444548 
L 544.378818 302.625324 
L 544.178312 302.726185 
L 543.998205 302.816879 
L 543.651854 302.991102 
L 543.469623 303.08415 
L 543.101943 303.27189 
L 542.890399 303.37863 
L 542.678917 303.48447 
L 540.613368 304.518271 
L 540.496784 304.576616 
L 539.771312 304.93951 
L 539.069962 305.29093 
L 538.368186 305.641463 
L 537.619107 306.016722 
L 537.514767 306.068428 
L 536.869689 306.391336 
L 536.130401 306.763198 
L 534.815919 307.42197 
L 533.292831 308.183505 
L 532.421027 308.619053 
L 529.494755 310.074334 
L 528.179208 310.735602 
L 521.94608 313.849259 
L 519.363483 315.139663 
L 519.283349 315.179896 
L 518.811249 315.417023 
L 518.264726 315.69091 
L 514.080165 317.787729 
L 512.470438 318.594052 
L 511.582588 319.039148 
L 509.269493 320.198715 
L 507.001838 321.292602 
L 506.276837 321.663061 
L 504.793872 322.420802 
L 502.264183 323.688181 
L 501.855996 323.880465 
L 501.60382 323.999067 
L 501.44619 324.073194 
L 499.038185 325.265379 
L 497.419885 326.027353 
L 495.939819 326.741117 
L 494.10378 327.634104 
L 493.672355 327.836711 
L 493.547989 327.892627 
L 493.009044 328.157479 
L 492.815035 328.252423 
L 491.304168 328.991716 
L 489.753406 329.758605 
L 487.792087 330.716544 
L 486.491837 331.359398 
L 484.62181 332.272619 
L 483.195019 332.986808 
L 481.43632 333.85111 
L 480.122217 334.496823 
L 478.617111 335.236528 
L 477.626256 335.723264 
L 477.072458 335.867572 
L 476.591688 335.992824 
L 476.034473 336.137991 
L 474.403484 336.511605 
L 473.253908 336.740304 
L 471.63881 337.032058 
L 471.610996 336.971736 
L 470.193678 337.214363 
L 468.840267 337.446354 
L 468.53758 337.498295 
L 466.805851 337.80065 
L 463.827957 338.304632 
L 462.566293 338.527917 
L 462.35668 338.565063 
L 462.378373 338.680493 
L 461.281913 338.874317 
L 461.054196 338.914641 
L 461.003369 338.797486 
L 459.149896 339.111144 
L 454.924195 339.826179 
L 454.883352 339.833046 
L 454.894022 339.943737 
L 454.32676 340.038548 
L 452.595092 340.327895 
L 452.821005 341.844182 
L 453.328239 344.506561 
L 453.375599 344.714134 
L 453.928873 347.143594 
L 454.132684 347.842057 
L 454.198096 348.066303 
L 454.897766 350.464179 
L 455.130368 351.13791 
L 455.210544 351.370242 
L 456.032313 353.75096 
L 456.301032 354.447744 
L 456.376403 354.643262 
L 456.542876 355.075119 
L 456.387971 355.105584 
L 456.396912 355.130381 
L 457.200755 357.356543 
L 457.005054 357.421728 
L 456.859191 357.470454 
L 456.741708 357.508995 
L 455.959665 357.737699 
L 452.70074 358.824513 
L 452.688448 358.791866 
L 449.881113 359.731232 
L 448.396863 360.227253 
L 448.384595 360.173531 
L 448.369408 360.120446 
L 448.351389 360.068322 
L 448.330623 360.017239 
L 448.307031 359.967363 
L 448.280861 359.91885 
L 448.252117 359.871865 
L 448.2208 359.826488 
L 448.187076 359.782799 
L 448.151114 359.74112 
L 448.112913 359.701369 
L 448.07256 359.663789 
L 448.030302 359.628539 
L 447.986137 359.595537 
L 447.940317 359.565022 
L 447.89292 359.536992 
L 447.844034 359.511609 
L 447.793823 359.488951 
L 447.742532 359.469094 
L 447.690161 359.451957 
L 447.636958 359.437779 
L 447.583165 359.426391 
L 447.506854 359.413868 
L 447.430115 359.404132 
L 447.353118 359.397424 
L 447.275939 359.393579 
L 447.198662 359.392677 
L 447.12145 359.394714 
L 447.044302 359.399691 
L 446.967382 359.407603 
L 446.890851 359.418365 
L 446.814793 359.432057 
L 446.739287 359.448678 
L 446.664414 359.468062 
L 446.590419 359.490368 
L 446.517217 359.515351 
L 446.489321 359.440329 
L 445.82452 359.663598 
L 445.848369 359.74361 
L 445.777275 359.764381 
L 445.707062 359.788155 
L 445.637893 359.814927 
L 445.569929 359.844614 
L 445.503333 359.877212 
L 445.438185 359.912636 
L 445.374562 359.950722 
L 445.312632 359.991629 
L 445.252549 360.035028 
L 445.194316 360.080999 
L 445.138094 360.129458 
L 445.084041 360.180157 
L 445.032159 360.233257 
L 444.982523 360.288432 
L 444.935379 360.345757 
L 444.890641 360.404989 
L 444.848471 360.466125 
L 444.808946 360.528918 
L 444.783309 360.578496 
L 444.760554 360.6294 
L 444.740761 360.681626 
L 444.724088 360.734845 
L 444.710531 360.788976 
L 444.700169 360.843852 
L 444.692995 360.899148 
L 444.689089 360.954861 
L 444.688364 361.010668 
L 444.690977 361.066319 
L 444.696765 361.121818 
L 444.705803 361.176918 
L 444.718088 361.231374 
L 444.733451 361.285027 
L 444.75197 361.33763 
L 444.773478 361.389104 
L 444.797893 361.439289 
L 443.867031 361.755613 
L 440.582556 362.889245 
L 440.544785 362.902253 
L 439.510094 363.254952 
L 439.472398 363.267632 
L 439.321614 363.318433 
L 439.064697 363.404915 
L 438.910162 363.459313 
L 438.796174 363.49721 
L 438.799485 363.506938 
L 437.777501 363.85552 
L 431.319436 366.058617 
L 431.337467 366.114906 
L 429.975947 367.022086 
L 429.185868 367.549496 
L 429.137361 367.581858 
L 429.24451 367.972218 
L 429.816071 369.999598 
L 430.314506 371.73462 
L 431.685994 376.146096 
L 431.38108 376.246963 
L 430.073491 376.679667 
L 428.752071 377.11693 
L 427.444811 377.549472 
L 425.32411 378.251261 
L 425.092091 378.328051 
L 424.672627 378.466836 
L 424.58647 378.495379 
L 421.574839 379.492007 
L 421.427686 379.540774 
L 421.827313 380.565203 
L 420.085449 381.187866 
L 420.117449 381.275129 
L 422.174283 386.844905 
L 422.193989 386.899523 
L 422.743551 388.388592 
L 423.10991 389.379454 
L 423.22571 389.696676 
L 420.638 390.719592 
L 418.522225 391.55568 
L 418.439184 391.588647 
L 418.325368 391.633898 
L 416.312022 392.428921 
L 416.60044 393.25177 
L 416.908618 394.131685 
L 417.268582 395.160912 
L 417.755098 396.53661 
L 417.807518 396.685009 
L 417.862105 396.839322 
L 418.350878 398.221423 
L 418.814878 399.533664 
L 419.428672 401.226574 
L 418.560754 401.539436 
L 416.312751 402.329628 
L 416.192843 402.394047 
L 415.745424 402.634425 
L 415.27391 402.964294 
L 414.769459 403.385484 
L 414.490561 403.666635 
L 414.23227 403.995276 
L 414.12836 404.09765 
L 413.877825 404.460101 
L 413.671265 404.832274 
L 413.495748 405.21168 
L 413.389094 405.492024 
L 413.243221 405.992154 
L 413.164726 406.392438 
L 413.119558 406.799986 
L 413.102969 407.213923 
L 413.121372 407.636803 
L 413.159384 408.062023 
L 413.225922 408.505969 
L 411.185297 408.874253 
L 411.011066 410.460111 
L 410.955682 410.737355 
L 410.938073 410.825312 
L 410.690276 410.604313 
L 410.501038 410.463043 
L 409.480844 409.763403 
L 409.487065 409.665325 
L 409.083964 409.466733 
L 409.048386 409.677944 
L 408.901988 409.594615 
L 408.805312 409.412731 
L 408.535664 408.848982 
L 408.516528 408.809056 
L 408.478137 408.359583 
L 408.135165 408.094552 
L 407.604431 407.880096 
L 407.55909 407.871139 
L 407.51312 407.866934 
L 407.466928 407.867391 
L 407.421004 407.872578 
L 407.375835 407.882406 
L 407.158649 407.998901 
L 407.062016 408.050797 
L 407.022137 408.067695 
L 406.979888 408.076967 
L 406.936571 408.078421 
L 406.89381 408.07194 
L 406.852916 408.057738 
L 406.815284 408.036276 
L 406.754685 407.974891 
L 406.733716 407.936884 
L 406.105764 406.500715 
L 406.050024 406.426969 
L 405.914041 406.247431 
L 405.219212 406.122236 
L 404.945591 405.975413 
L 404.689603 405.76383 
L 402.574621 405.012449 
L 402.000199 404.981701 
L 401.742416 404.90249 
L 400.375612 404.260745 
L 399.861626 404.034001 
L 399.154832 403.692782 
L 398.302456 403.246493 
L 397.050937 402.949923 
L 396.711823 402.539744 
L 396.344362 402.295363 
L 395.411431 401.398997 
L 395.232719 401.218373 
L 395.026635 401.071195 
L 394.862661 400.8717 
L 393.931154 400.914269 
L 393.40387 400.878235 
L 392.636479 400.836363 
L 391.635899 400.843392 
L 391.640806 400.910346 
L 390.935611 400.968625 
L 390.059322 401.064864 
L 389.39561 401.22261 
L 388.03443 401.111078 
L 387.343518 400.799586 
L 386.880719 400.742845 
L 386.451223 400.655629 
L 385.882458 400.509358 
L 385.351891 400.336505 
L 384.55404 400.042188 
L 383.866858 399.777751 
L 383.225689 399.497503 
L 382.650383 399.251237 
L 382.082908 398.697174 
L 381.84183 398.533957 
L 381.517613 398.336737 
L 380.805519 397.780103 
L 380.533884 397.631619 
L 380.057772 397.305951 
L 379.187163 396.851207 
L 378.583099 396.623887 
L 378.267311 396.560443 
L 376.86136 396.415315 
L 376.267231 396.286778 
L 375.021769 396.697121 
L 374.784812 396.649808 
L 374.699496 396.605889 
L 373.775987 395.955395 
L 372.872374 395.31892 
L 372.581635 395.187368 
L 371.937898 394.737292 
L 371.369823 394.281851 
L 371.019258 394.014162 
L 370.057586 393.008713 
L 368.148328 391.510895 
L 366.812138 390.47331 
L 365.691452 389.375856 
L 364.863534 388.288686 
L 364.03931 387.532502 
L 363.95381 387.443826 
L 363.573168 387.21292 
L 361.806446 386.171829 
L 361.457648 385.958511 
L 359.048139 385.328062 
L 358.673524 385.228947 
L 357.604566 384.820265 
L 355.941009 384.244943 
L 355.33164 384.011405 
L 355.082642 383.917895 
L 354.833258 383.825374 
L 354.583567 383.733678 
L 354.354863 383.647637 
L 351.484804 382.189787 
L 351.401768 382.138715 
L 351.320304 382.085076 
L 351.2405 382.029112 
L 349.754811 381.011187 
L 346.359828 379.476421 
L 346.258413 379.419799 
L 346.160691 379.35705 
L 346.066994 379.28841 
L 345.977651 379.214037 
L 345.893079 379.134329 
L 345.813608 379.049524 
L 345.702776 378.888557 
L 345.595477 378.725224 
L 345.491792 378.559522 
L 345.391804 378.391532 
L 345.282834 378.135034 
L 345.177983 377.876891 
L 345.077331 377.617021 
L 344.409801 376.051794 
L 344.290097 375.796353 
L 344.16475 375.543735 
L 344.033842 375.293855 
L 343.897379 375.047041 
L 343.761006 374.822524 
L 343.625277 374.597666 
L 343.49011 374.372469 
L 343.437794 374.284851 
L 343.385557 374.197149 
L 343.333401 374.109445 
L 343.126846 373.763648 
L 342.919167 373.418612 
L 342.7102 373.074339 
L 342.486365 372.699197 
L 342.26076 372.325074 
L 342.033387 371.952135 
L 341.939354 371.791854 
L 341.843871 371.632341 
L 341.746943 371.473759 
L 341.712366 371.417927 
L 341.677629 371.36218 
L 341.642731 371.306518 
L 341.611134 371.263689 
L 341.583953 371.217901 
L 341.561443 371.16964 
L 341.543942 371.119388 
L 341.531458 371.067553 
L 341.485672 370.958551 
L 341.44643 370.847032 
L 341.413985 370.73332 
L 341.388427 370.617819 
L 341.369848 370.501018 
L 341.346319 370.312119 
L 341.330025 370.122405 
L 341.320973 369.932201 
L 341.31917 369.741835 
L 340.722116 368.257535 
L 340.629453 368.02722 
L 340.464198 367.392397 
L 340.405887 365.035064 
L 340.480314 365.025145 
L 340.527927 365.018768 
L 340.491831 364.445662 
L 340.882947 362.562397 
L 341.136375 361.776302 
L 341.857143 360.638126 
L 342.025185 360.214419 
L 342.200022 360.193836 
L 343.486782 360.042059 
L 345.791442 359.646602 
L 345.670512 359.340054 
L 345.439982 358.756356 
L 345.36803 358.574015 
L 344.654144 356.755133 
L 344.0556 355.229938 
L 343.466049 353.728149 
L 342.870262 352.210081 
L 342.273617 350.690237 
L 341.686547 349.194358 
L 341.479769 348.667554 
L 340.940049 347.292406 
L 340.344248 345.774588 
L 340.231758 345.481412 
L 340.213064 345.432576 
L 340.017957 344.939573 
L 339.956164 344.780637 
L 339.227726 342.875481 
L 338.557628 341.231822 
L 337.912436 339.554034 
L 337.075437 337.451378 
L 336.953663 337.147792 
L 336.637013 336.358307 
L 336.043217 334.869694 
L 335.499019 333.489181 
L 334.903191 331.99024 
L 333.945199 329.481965 
L 333.43105 328.148402 
L 333.204014 327.653424 
L 332.930581 327.069879 
L 332.28379 325.621832 
L 332.235188 325.562231 
L 332.183045 325.424456 
L 332.084711 325.178097 
L 331.745233 324.40375 
L 331.643249 324.132722 
L 331.458772 323.660478 
L 330.671077 324.059215 
L 329.846392 323.283997 
L 328.121993 321.407451 
L 327.384053 320.462511 
L 327.054854 319.729269 
L 326.949893 319.438297 
L 326.906361 319.317565 
L 326.654963 318.619334 
L 326.496112 318.178129 
L 326.404112 317.796115 
L 326.347185 317.542864 
L 325.990759 315.34408 
L 325.975652 315.069388 
L 325.89646 313.638012 
L 325.784782 311.62128 
L 325.777126 311.493943 
L 325.551436 307.742669 
L 325.501303 306.914861 
L 325.493245 306.780508 
L 325.431981 305.768343 
L 325.240441 302.604268 
L 324.95257 297.669232 
L 324.75362 293.940884 
L 324.665898 293.152721 
L 324.414226 292.501467 
L 322.758398 290.031763 
L 322.654581 289.755432 
L 322.528637 289.420207 
L 322.547548 289.347328 
L 322.583355 289.209947 
L 322.652621 288.943162 
L 323.533115 286.601014 
L 323.967911 285.679895 
L 324.467511 284.839005 
L 324.861049 284.296196 
L 326.269513 282.756101 
L 326.98489 281.97392 
L 328.902597 279.877076 
L 329.946119 278.736129 
L 334.584499 273.666045 
L 335.245 272.947354 
L 337.375904 270.633064 
L 338.641678 269.258439 
L 339.053274 268.814568 
L 339.869048 267.912126 
L 340.141832 267.610803 
L 341.057048 266.60902 
L 341.79378 265.802609 
L 342.348226 265.195764 
L 342.888856 264.597971 
L 343.890624 263.4892 
L 344.579292 262.727173 
L 344.811978 262.469718 
L 345.5596 261.642576 
L 345.713745 261.438015 
L 346.279879 260.685843 
L 346.715716 259.800505 
L 347.226811 258.762446 
L 347.255938 258.697835 
L 347.421701 258.323356 
L 347.845483 257.3651 
L 348.598252 255.879963 
L 348.853977 255.339448 
L 349.083208 254.537951 
L 349.472619 253.176397 
L 349.919338 252.127695 
L 350.786811 249.761233 
L 351.956235 245.504619 
L 352.613598 243.076865 
L 353.14728 240.988094 
L 353.646512 238.61902 
L 355.48147 230.983924 
L 355.9683 228.638819 
L 356.909694 225.543402 
L 358.190353 221.242252 
L 359.737833 216.262632 
L 359.813966 215.976749 
L 360.338374 214.145421 
L 360.508669 213.643121 
L 360.794538 212.79993 
L 358.002721 211.480033 
L 355.383647 210.185783 
L 355.05861 210.025114 
L 354.759834 209.875866 
L 353.104632 209.050165 
L 351.095171 208.048041 
L 349.03994 207.022937 
L 348.83919 206.922795 
L 346.986419 205.998214 
L 346.767687 205.888755 
L 345.816873 205.415131 
L 344.865956 204.940693 
L 342.669456 203.844781 
L 342.546689 204.093648 
L 340.835574 203.241641 
L 340.962876 202.995042 
L 339.26026 202.151592 
L 337.936498 201.238962 
L 336.612814 200.326417 
L 335.128393 199.306309 
L 333.654149 198.293167 
L 331.819681 197.03097 
L 331.63023 196.900606 
L 328.691942 194.876737 
L 331.109333 193.362377 
L 332.546381 192.462155 
L 334.957612 190.951796 
L 336.257105 190.137746 
L 336.486722 189.792381 
L 336.752818 189.379218 
L 336.980382 189.025894 
L 337.098621 188.837003 
L 337.152725 188.745479 
L 337.05963 188.591854 
L 336.910504 188.345771 
L 336.76389 188.103832 
L 336.621691 187.856296 
L 336.419936 187.611575 
L 336.242546 187.381218 
L 336.044603 187.124173 
L 335.850521 186.872142 
L 335.640962 186.704952 
L 335.451387 186.553706 
L 335.252185 186.39478 
L 334.069533 185.451248 
L 332.520691 184.265632 
L 328.058433 180.992213 
L 327.718366 180.700637 
L 327.092195 180.364922 
L 326.598684 179.883772 
L 323.320369 177.548027 
L 321.779722 176.370764 
L 321.69087 176.313294 
L 321.60612 176.249687 
L 321.526054 176.18042 
L 321.451003 176.105731 
L 321.381303 176.026021 
L 321.317286 175.941609 
L 321.259207 175.852979 
L 321.207485 175.760531 
L 320.846861 175.031758 
L 320.6376 174.213654 
L 320.443247 172.327764 
L 320.348271 170.787454 
L 320.366616 170.372167 
L 320.543178 169.292174 
L 320.789026 168.371623 
L 321.982035 165.15105 
L 326.289394 154.80115 
L 326.45865 154.264687 
L 326.556284 153.307607 
L 326.458183 148.99876 
L 326.432037 147.851847 
L 326.433486 147.789081 
L 326.426546 147.726667 
L 326.411403 147.665744 
L 326.388245 147.607369 
L 326.357504 147.552677 
L 326.319854 147.502552 
L 326.275802 147.457879 
L 326.226182 147.419458 
L 326.183479 147.391337 
L 324.507189 146.289807 
L 322.363397 144.880951 
L 320.233761 143.536891 
L 319.667811 143.1041 
L 318.271939 142.153702 
L 317.801072 141.612179 
L 317.724241 141.279899 
L 317.942521 140.624378 
L 318.232202 139.574271 
L 318.842963 138.417376 
L 318.891309 138.322353 
L 319.537866 137.165227 
L 319.653207 136.966838 
L 319.695556 136.902581 
L 319.744371 136.843081 
L 319.799181 136.789081 
L 319.859262 136.74109 
L 319.924057 136.69969 
L 322.145392 135.628819 
L 322.198445 135.554602 
L 322.254671 135.443637 
L 322.301786 135.348233 
L 322.527565 135.307793 
L 322.580112 135.276553 
L 322.628612 135.239359 
L 322.672507 135.196796 
L 322.711239 135.149448 
L 323.653533 133.284182 
L 323.720365 133.151578 
L 324.313066 131.608982 
L 323.837376 131.373381 
L 319.762052 129.219585 
L 312.73949 125.770329 
L 307.59482 123.440576 
L 307.066684 123.201442 
L 305.280591 122.184882 
L 303.646455 121.254191 
L 302.757214 120.825025 
L 301.65926 120.295921 
L 300.553702 119.762418 
L 299.456734 119.233952 
L 298.41803 118.732849 
L 298.150372 118.706121 
L 297.691367 118.659604 
L 297.459914 118.636148 
L 297.385141 118.629011 
L 297.211068 118.611938 
L 293.010027 116.682202 
L 290.707249 115.80584 
L 289.246343 115.423488 
L 286.900604 114.798806 
L 281.943131 114.188944 
L 281.221776 112.386438 
L 281.313795 112.250236 
L 280.803098 111.975455 
L 280.288179 111.698403 
L 280.149458 111.6 
L 280.07586 111.77573 
L 279.64751 112.787744 
L 279.095812 114.091052 
L 278.2415 116.075739 
L 277.536788 117.728681 
L 276.622168 119.873691 
L 277.229846 118.826585 
L 276.118194 121.43078 
L 271.740385 132.071899 
L 270.39784 135.257447 
L 269.003351 138.597659 
L 266.417366 144.791735 
L 263.691658 151.146639 
L 261.750645 155.629991 
L 261.254701 156.876764 
L 258.731614 162.902755 
L 258.329166 163.861848 
L 257.359003 166.047616 
L 254.723553 172.610474 
L 254.338552 173.568687 
L 254.228705 173.842529 
L 254.057434 174.335411 
L 253.840676 174.959197 
L 253.715265 175.222527 
L 252.91527 176.903893 
L 251.34485 180.109127 
L 250.053246 182.170272 
L 249.01654 183.74804 
L 248.040023 185.048027 
L 246.076442 187.642284 
L 244.777123 189.38105 
L 240.664903 195.002157 
L 240.468543 195.231485 
L 240.004049 195.909132 
L 238.081811 198.654345 
L 237.715334 199.177348 
L 237.127414 199.277429 
L 236.986458 199.288549 
L 236.946855 199.376032 
L 236.666996 199.830842 
L 236.341636 200.359597 
L 236.300336 200.415262 
L 235.823515 201.062725 
L 232.403869 205.699354 
L 231.817577 206.495031 
L 227.219887 212.749979 
L 224.402071 216.607388 
L 224.13796 216.969041 
L 223.298902 218.154225 
L 221.874518 220.168653 
L 221.670213 220.449388 
L 220.748848 221.718214 
L 219.171859 223.890258 
L 217.027727 226.843441 
L 216.677397 227.079875 
L 216.689831 227.359036 
L 213.122881 232.138376 
L 209.514643 236.973416 
L 206.952397 240.406099 
L 201.743875 247.611439 
L 199.552859 250.592499 
L 199.202308 251.069434 
L 198.115939 252.5471 
L 197.750349 253.04725 
L 197.393853 253.538616 
L 197.262953 253.719017 
L 196.725049 254.460387 
L 196.611539 254.616785 
L 196.557077 254.691869 
L 194.678421 255.190306 
L 193.360645 255.539721 
L 192.153771 255.714829 
L 191.348441 255.832105 
L 188.161231 256.295463 
L 185.407382 256.561985 
L 182.007798 256.891046 
L 172.04173 257.885503 
L 171.895739 257.900029 
L 169.191061 258.169952 
L 166.548996 258.22886 
L 164.070042 258.119298 
L 163.45169 258.091939 
L 162.722855 258.059756 
L 160.662334 257.968666 
L 159.375242 258.020895 
L 158.137751 258.071258 
L 149.660202 258.799181 
L 149.105915 258.853778 
L 147.453547 259.016516 
L 144.840925 259.461589 
L 142.178157 259.987962 
L 138.845242 260.735152 
L 130.250316 263.317894 
L 127.369152 264.337281 
L 126.311063 264.724822 
L 126.227072 264.755585 
L 124.629793 265.340445 
L 124.415897 265.418791 
L 124.356885 265.440404 
L 124.267398 265.473172 
L 124.334204 265.535761 
L 124.827606 265.988238 
L 125.797171 266.877334 
L 126.899112 267.887717 
L 130.316317 271.043106 
L 132.971135 273.494572 
L 133.682639 273.436428 
L 137.31152 273.140167 
L 136.60365 276.134626 
L 138.696117 278.057293 
L 139.766271 278.992066 
L 140.757927 279.916224 
L 141.699346 280.753726 
L 141.884636 280.918648 
L 145.409319 284.182793 
L 148.077866 286.222027 
L 150.086605 288.141606 
L 149.373165 288.628529 
L 149.704228 288.920323 
L 152.355591 291.18069 
L 155.13367 293.548369 
L 156.112765 294.382346 
L 157.459201 295.609238 
L 159.158718 297.158064 
L 159.520046 297.487402 
L 162.153167 299.88589 
L 162.757355 300.457509 
L 166.183734 303.697209 
L 168.082131 305.49279 
L 169.16519 306.470883 
L 169.452142 306.731027 
L 171.476853 308.562864 
L 174.138374 310.969441 
L 176.131305 312.807092 
L 180.923955 317.226456 
L 182.292552 317.659766 
L 182.300301 317.662286 
L 184.436451 318.356798 
L 186.420201 319.180103 
L 188.838777 322.0433 
L 188.643569 322.786181 
L 192.863495 326.59876 
L 196.849667 330.2098 
L 204.949231 337.563721 
L 209.262159 341.487979 
L 212.027204 344.059415 
L 213.066893 344.812429 
L 213.426255 345.073244 
L 214.328191 345.703109 
L 215.121068 343.743354 
L 215.319829 343.94076 
L 215.468791 344.087673 
L 216.754316 345.361239 
L 218.948486 347.83951 
L 221.854387 351.23144 
L 222.140329 351.565243 
L 224.532905 353.922309 
L 227.704754 356.789462 
L 229.036746 357.995112 
L 229.350485 358.279196 
L 229.901417 358.777955 
L 230.139359 358.993266 
L 230.712737 359.511692 
L 233.729942 362.23635 
L 238.073811 366.158745 
L 237.87163 366.639143 
L 240.044636 368.60601 
L 243.462087 371.699376 
L 249.080434 376.701794 
L 254.709862 381.706816 
L 260.729908 386.042988 
L 260.977769 385.614499 
L 264.700955 388.261258 
L 268.242316 390.619403 
L 271.782174 392.985047 
L 274.266127 394.805883 
L 276.590921 396.768538 
L 280.326902 400.538317 
L 281.599727 401.822669 
L 282.691499 403.006228 
L 282.704778 403.020632 
L 282.783369 403.105771 
L 283.387453 403.76018 
L 283.870354 404.283314 
L 284.170472 404.265352 
L 284.023786 404.486269 
L 283.992482 404.529207 
L 283.774996 404.82679 
L 288.580343 410.035246 
L 290.268413 411.8814 
L 292.792067 414.62392 
L 293.226085 415.094116 
L 293.73852 414.435786 
L 295.026828 414.168967 
L 295.613114 416.920127 
L 297.106794 416.61152 
L 297.421735 416.546428 
L 297.939178 419.324383 
L 298.079143 420.075751 
L 299.376226 419.815773 
L 299.842153 422.277383 
L 300.738686 423.185618 
L 301.274545 423.074303 
L 301.66152 424.998656 
L 303.378496 425.56928 
L 304.415753 425.918246 
L 304.824927 426.037116 
L 304.912439 426.062592 
L 308.290085 427.16479 
L 308.810992 427.33204 
L 309.827706 427.659182 
L 311.781924 428.287728 
L 313.602443 428.873384 
L 315.27138 429.410669 
L 315.576084 429.514745 
L 315.764948 429.568985 
L 317.439428 429.075784 
L 318.682612 428.100706 
L 320.42116 426.737198 
L 322.030435 428.217676 
L 323.238894 429.289919 
L 324.414466 430.367479 
L 325.60226 431.434394 
L 326.90496 432.597243 
L 329.305042 434.771302 
L 330.505205 435.849635 
L 331.683444 436.95354 
L 332.857628 438.011143 
L 334.043846 439.093475 
L 335.315395 440.22454 
L 336.509348 441.325494 
L 337.736413 442.409861 
L 338.916253 443.481404 
L 340.135141 444.608928 
L 340.400858 444.832504 
L 340.450425 444.877626 
L 341.586114 445.91006 
L 342.340093 446.588947 
L 342.838892 447.038058 
L 344.015931 448.098489 
L 345.212606 449.203083 
L 346.433017 450.301839 
L 347.617487 451.374856 
L 349.031941 452.666459 
L 348.237443 453.553627 
L 346.331344 455.681987 
L 348.39549 457.72025 
L 352.752727 462.022847 
L 354.08138 463.33485 
L 354.535581 463.784076 
L 354.651629 463.898777 
L 354.638342 463.909448 
L 353.351325 464.945679 
L 350.140588 468.297302 
L 350.060411 468.381027 
L 349.677432 469.014657 
L 349.786595 469.112928 
L 349.894504 469.209758 
L 350.062432 469.360217 
L 350.363289 469.629818 
L 350.423392 469.683609 
L 350.877535 469.399058 
L 351.193073 469.20134 
L 353.207234 471.428539 
L 353.428265 471.739301 
L 353.39154 472.230313 
L 353.203368 472.449345 
L 353.201425 472.451606 
L 351.954071 473.781999 
L 352.152208 473.957431 
L 352.728081 474.467236 
L 352.847015 474.572641 
L 352.64596 475.176872 
L 354.074733 476.523391 
L 360.778742 482.841469 
L 362.089878 484.077188 
L 362.71261 485.899693 
L 362.585747 486.063776 
L 362.538865 486.124373 
L 364.313787 487.686021 
L 364.508904 487.458904 
L 366.028729 487.719964 
L 367.400767 488.995835 
L 374.416889 495.520605 
L 375.830479 496.960416 
L 376.229207 497.379783 
L 377.028141 498.358493 
L 377.198523 498.583814 
L 377.337514 498.767605 
L 377.025474 499.048951 
L 377.282083 499.330914 
L 378.108785 500.335064 
L 378.734877 501.095455 
L 378.839028 501.221865 
L 379.193179 501.651869 
L 380.052323 502.903129 
L 380.938518 504.187851 
L 381.446307 504.937082 
L 381.820346 505.488926 
L 382.673134 506.825286 
L 382.844751 507.10286 
L 383.382834 507.973046 
L 383.415027 508.025096 
L 383.510078 508.182096 
L 383.58838 508.311208 
L 384.172575 509.299135 
L 384.928312 510.649673 
L 385.578016 511.781621 
L 385.680171 511.965175 
L 386.383261 513.289444 
L 387.367412 515.06251 
L 387.474874 515.327467 
L 391.223645 522.233702 
L 392.308326 525.294993 
L 392.941505 527.065197 
L 393.51003 528.994821 
L 393.948912 530.941222 
L 394.709094 534.851431 
L 395.260339 538.361878 
L 395.293579 538.571638 
L 395.42723 539.467436 
L 395.539126 540.26006 
L 396.074374 543.949918 
L 397.038408 549.57015 
L 397.309537 552.950592 
L 397.431863 553.335705 
L 397.441935 553.367501 
L 397.488165 553.512931 
L 397.756278 554.356805 
L 397.80786 554.519515 
L 397.952017 554.13263 
L 400.966841 552.014287 
L 401.13054 551.935818 
L 401.298011 551.865842 
L 401.468771 551.804615 
L 401.642494 551.752143 
L 401.818617 551.708686 
L 401.996814 551.674331 
L 402.176435 551.649092 
L 402.357158 551.633142 
L 403.154362 551.791175 
L 405.609045 552.277522 
L 405.834364 552.322252 
L 406.461388 552.446424 
L 406.462145 552.446587 
L 407.826032 552.741727 
L 407.861882 552.749507 
L 410.280649 553.269845 
L 410.658198 553.350972 
L 411.099834 553.446029 
L 411.186425 553.464606 
L 412.263586 553.696399 
L 412.339457 553.712763 
L 412.934959 553.840832 
L 413.343277 553.921113 
L 416.134592 554.470286 
L 416.776398 554.596514 
L 416.845365 554.610093 
L 417.022651 554.645033 
L 417.292052 554.697938 
L 419.980764 555.226875 
L 420.796336 555.387394 
L 421.02516 555.432382 
L 421.443457 555.514655 
L 422.161834 555.655935 
L 423.032872 555.827398 
L 423.996926 556.017054 
L 424.904774 556.195626 
L 425.583718 556.329212 
L 426.243191 556.458983 
L 427.316211 556.669997 
L 427.835787 556.772247 
L 427.939032 556.792581 
L 428.000441 556.799631 
L 429.43236 556.963228 
L 430.016969 557.030055 
L 430.310622 557.063644 
L 430.931861 557.114629 
L 431.996853 557.202 
L 432.992972 557.283714 
L 433.730166 557.344139 
L 433.912549 557.359206 
L 434.732079 557.426382 
L 435.375759 557.479246 
L 436.188923 557.545913 
L 437.639974 557.665005 
L 438.517603 557.736945 
L 439.389931 557.808596 
L 440.528442 557.901956 
L 441.343892 557.96891 
L 442.24437 558.042802 
L 442.476611 558.061914 
L 443.302586 558.1297 
L 444.189681 558.202505 
L 444.688594 558.243399 
L 445.198851 558.285267 
L 445.670591 558.323987 
L 446.158083 558.364074 
L 446.645328 558.404086 
L 447.131511 558.443958 
L 447.824065 558.500741 
L 448.322572 558.54173 
L 448.85943 558.585791 
L 449.461813 558.635182 
L 450.038005 558.682539 
L 450.670988 558.734439 
L 451.804354 558.827455 
L 452.752826 558.909702 
L 458.659145 559.39446 
L 458.895547 559.41398 
L 458.90406 559.812004 
L 460.032732 559.902942 
L 460.278996 559.922734 
L 460.828398 559.966942 
L 461.340587 560.007972 
L 461.830744 560.047202 
L 462.411388 560.093499 
L 462.687106 560.115582 
L 463.772105 560.202269 
L 464.832387 560.2873 
L 465.111043 560.309646 
L 465.699286 560.357005 
L 466.211068 560.398131 
L 466.485482 560.420164 
L 466.711998 560.438355 
L 467.272002 560.483236 
L 467.546823 560.50526 
L 468.647487 560.593248 
L 469.730117 560.679758 
L 469.978336 560.699595 
L 470.585912 560.748331 
L 471.074194 560.787614 
L 471.579535 560.828481 
L 472.141261 560.873903 
L 472.471731 560.900419 
L 473.52612 560.984378 
L 473.848578 561.009521 
L 475.217436 561.118395 
L 475.495684 561.140758 
L 476.088825 561.188759 
L 476.575728 561.228324 
L 483.90543 561.815501 
L 484.713485 561.880256 
L 485.307397 561.885532 
L 485.4938 561.88722 
L 486.272403 561.894142 
L 486.506302 561.896253 
L 487.268203 561.902973 
L 487.462671 561.904729 
L 488.211212 561.911419 
L 488.335697 561.912513 
L 489.274225 561.920896 
L 489.992758 561.981755 
L 493.197129 562.349272 
L 493.55921 562.182987 
L 493.858555 562.045613 
L 494.438622 563.523 
L 494.578722 563.879896 
L 494.614743 564.230182 
L 494.743527 565.524086 
L 494.805662 566.084787 
L 495.012516 568.094324 
L 495.103282 569.028673 
L 495.121887 569.219814 
L 495.244 570.477106 
L 495.264301 570.68618 
L 495.30111 571.065038 
L 495.330361 571.366626 
L 495.475257 572.857117 
L 495.529267 573.422572 
L 495.604922 574.191517 
L 495.772758 576.03397 
L 495.857364 576.962493 
L 496.044731 579.019918 
L 496.07542 579.357416 
L 496.213669 580.875662 
L 496.349005 582.361381 
L 496.389646 582.807463 
L 496.469074 583.700109 
L 496.534648 584.43706 
L 496.568175 584.814929 
L 496.686387 586.143701 
L 496.795418 587.369426 
L 496.811403 587.548861 
L 496.833379 588.778955 
L 496.840851 589.198158 
L 496.833485 589.267181 
L 496.635316 591.133464 
L 496.388514 592.988076 
L 496.36949 593.130953 
L 496.291629 593.737135 
L 499.070452 594.239868 
L 501.048568 594.5977 
L 502.994404 594.950779 
L 504.933325 595.30059 
L 506.88134 595.653069 
L 508.923633 596.022597 
L 510.865917 596.373996 
L 514.982623 597.119014 
L 515.376834 597.190316 
L 515.483134 597.209544 
L 515.954863 597.294908 
L 516.521527 597.397462 
L 519.304226 597.901068 
L 524.787412 598.893334 
L 525.769467 599.07106 
L 527.868966 599.45111 
L 528.267424 599.523149 
L 528.425524 599.553659 
L 528.888786 599.643144 
L 529.005744 599.665654 
L 529.422127 599.760417 
L 532.01166 600.229306 
L 535.197522 600.806106 
L 535.726483 600.901918 
L 536.194609 600.986813 
L 536.736815 601.085032 
L 538.327452 601.373049 
L 539.321589 601.553093 
L 540.750892 601.81182 
L 542.199575 602.074211 
L 545.757778 602.718492 
L 546.169874 602.792537 
L 547.015734 602.944564 
L 547.443693 603.02153 
L 551.422304 603.744709 
L 551.531313 603.764527 
L 552.932485 604.019271 
L 555.066388 604.407124 
L 555.972462 604.571902 
L 560.032401 605.309888 
L 560.63094 605.41867 
L 563.174485 605.881089 
L 564.442935 606.126264 
L 564.926415 606.37104 
L 565.341212 606.580969 
L 565.831604 606.829107 
L 567.612975 607.984808 
L 568.698612 608.689137 
L 569.787466 609.395523 
L 570.003486 609.535711 
L 572.543745 611.18383 
L 572.712099 611.293122 
L 575.379551 613.023841 
L 575.668836 613.211444 
L 575.686101 613.222666 
L 576.282849 613.609891 
L 577.444042 614.363402 
L 577.8707 614.640229 
L 579.131589 615.458305 
L 579.150671 615.470713 
L 579.349915 615.6 
L 579.874066 613.684824 
L 580.105634 612.845119 
L 579.801118 611.050623 
L 579.556083 609.606644 
L 579.522848 609.411164 
L 579.51622 609.372182 
L 579.245952 607.673735 
L 579.036206 606.392437 
L 578.786801 604.867441 
L 578.699305 604.334035 
L 578.386711 602.448676 
L 578.297703 601.904967 
L 577.981422 599.970723 
L 577.779191 598.702086 
L 577.59426 597.408811 
L 577.37435 596.121283 
L 577.295371 595.570738 
L 577.339182 595.547891 
L 577.289443 595.207536 
L 577.241507 595.209154 
L 577.176848 594.823055 
L 576.848784 592.864318 
L 576.796479 592.552118 
L 576.557463 591.10507 
L 576.487736 590.661902 
L 576.208513 588.889811 
L 576.057959 587.96841 
L 575.97323 587.449869 
L 575.754449 586.012263 
L 575.722328 585.800748 
L 575.716832 585.765172 
L 575.701993 585.67066 
L 575.665795 585.440202 
L 575.446723 584.045568 
L 575.210688 582.601233 
L 575.179331 582.409959 
L 575.169739 582.350784 
L 575.052568 581.553244 
L 575.016823 581.30987 
L 574.92077 580.65596 
L 574.49351 578.023453 
L 574.594175 577.963096 
L 574.481759 577.287286 
L 573.969252 574.206273 
L 573.853561 573.510888 
L 573.619487 572.447421 
L 573.434897 571.60878 
L 575.974361 568.710878 
L 575.914758 568.344109 
L 575.53167 565.983218 
L 575.046388 563.004902 
L 574.565478 563.0832 
L 574.39662 562.017557 
L 574.151597 560.471477 
L 573.981125 559.395332 
L 573.960465 559.265415 
L 573.886371 558.797838 
L 573.539118 556.606561 
L 573.354983 555.445273 
L 573.211983 554.59169 
L 573.132621 554.117939 
L 573.046148 553.601785 
L 572.665448 551.329881 
L 572.141514 548.205218 
L 571.760523 545.830399 
L 571.476173 543.986051 
L 571.957177 543.899823 
L 571.341794 540.105958 
L 571.328151 540.021631 
L 571.28662 540.014697 
L 570.931275 537.606155 
L 570.719724 536.338543 
L 570.397027 534.589461 
L 570.097036 532.963226 
L 570.191236 532.95349 
L 570.111015 532.459337 
L 570.096819 532.372082 
L 570.013661 531.858961 
L 569.934628 531.370745 
L 569.668681 529.7182 
L 569.465028 528.469612 
L 569.428334 528.475396 
L 569.262845 527.42365 
L 569.225324 527.185217 
L 569.015033 525.897402 
L 568.83613 524.790813 
L 568.753223 524.199433 
L 568.734416 524.064983 
L 568.59363 523.063097 
L 568.462444 522.131903 
L 568.872595 522.07532 
L 567.842932 521.599707 
L 567.623844 520.087454 
L 567.035198 515.938257 
L 566.867436 514.542671 
L 566.671555 512.914083 
L 566.389537 510.568392 
L 566.097069 508.491671 
L 566.050627 508.161538 
L 565.6887 505.591737 
L 565.385039 503.390203 
L 565.18418 501.93416 
L 565.091332 501.260742 
L 564.697153 498.403383 
L 564.404696 496.283044 
L 564.06887 493.828095 
L 564.305594 492.18613 
L 564.455037 491.149721 
L 564.602001 490.130438 
L 564.74196 489.159828 
L 564.859188 488.34655 
L 564.945635 487.743709 
L 565.072748 486.852941 
L 565.323221 485.097299 
L 565.42189 484.453268 
L 565.491093 484.001512 
L 565.635345 483.059562 
L 565.795447 482.014752 
L 565.945049 481.037806 
L 566.094881 480.06012 
L 566.719159 476.060122 
L 566.788799 475.613339 
L 567.376115 471.850055 
L 567.845753 472.06908 
L 568.27843 468.900897 
L 567.837678 468.830314 
L 567.978233 467.882728 
L 568.093384 467.106747 
L 568.581281 463.818913 
L 568.981203 461.133547 
L 569.081074 460.463109 
L 569.081098 460.462942 
L 569.148019 460.010747 
L 569.320985 458.833493 
L 569.348051 458.646825 
L 569.628962 456.711879 
L 570.048704 453.820645 
L 570.274351 452.266739 
L 570.310207 452.019596 
L 570.768203 451.69813 
L 570.926461 451.587095 
L 571.197685 449.813198 
L 571.281425 449.264984 
L 571.320173 449.012142 
L 571.41947 448.362462 
L 571.460986 448.090772 
L 571.561707 447.431587 
L 571.612295 447.101213 
L 571.692463 446.57603 
L 571.725349 446.36089 
L 571.766225 446.093462 
L 571.898775 445.226675 
L 571.470642 445.003062 
L 571.440445 444.989509 
L 571.473838 444.78269 
L 571.539449 444.360012 
L 571.621687 443.843851 
L 571.662378 443.489188 
L 571.976447 441.369322 
L 572.073853 440.726219 
L 572.221672 439.677106 
L 572.357061 438.877075 
L 572.501005 437.878284 
L 572.578529 437.647548 
L 572.734567 437.576588 
L 572.89001 437.650712 
L 573.085804 437.23826 
L 573.114255 437.220159 
L 573.133862 437.20756 
L 573.589269 436.233497 
L 574.147895 434.114665 
L 573.959131 434.018233 
L 574.067626 433.315259 
L 574.147188 432.799402 
L 574.270664 431.999387 
L 574.350182 431.484184 
L 574.586181 430.090927 
L 574.797863 428.84124 
L 575.104734 426.696376 
L 575.715252 422.437841 
L 575.389322 422.370215 
L 575.9807 418.37798 
L 576.171437 417.09064 
L 576.472195 415.083794 
L 576.688934 413.631621 
L 576.907279 412.174511 
L 577.344431 409.256521 
L 577.200431 408.459 
L 577.213067 408.384228 
L 577.258983 408.112198 
L 577.382681 407.223707 
L 577.687486 405.034382 
L 577.930934 403.232018 
L 577.965518 402.943933 
L 578.235031 400.698892 
L 578.436423 398.591948 
L 578.524317 397.494891 
L 578.552786 396.922154 
L 578.573083 396.513454 
L 578.604723 395.876608 
L 578.606454 395.798725 
L 578.610201 395.629802 
L 578.617917 395.283457 
L 578.625179 394.953703 
L 578.632138 394.639966 
L 578.638767 394.341102 
L 578.645062 394.056868 
L 578.651092 393.786689 
L 578.656579 393.540291 
L 578.656278 393.128692 
L 578.653126 392.717154 
L 578.651903 392.604538 
L 578.648425 392.305569 
L 578.640791 391.893966 
L 578.629715 391.449435 
L 578.64798 391.429517 
L 580.590698 389.310882 
L 580.635992 389.261455 
L 580.807537 389.074332 
L 582.996935 386.68118 
L 582.830927 386.522821 
L 584.578548 384.95354 
L 588.55061 380.942514 
L 589.567477 379.929606 
L 589.752376 379.745381 
L 591.856247 377.649839 
L 591.806695 376.540996 
L 593.598075 376.452714 
L 593.980925 375.859202 
L 595.847516 372.965557 
L 598.52303 370.019606 
L 600.654035 367.825418 
L 600.745949 367.888928 
L 600.963823 365.325352 
L 601.040309 363.837692 
L 599.073756 361.895739 
L 599.030164 361.448488 
L 598.963196 360.761186 
L 598.607244 357.110144 
L 598.606192 357.099221 
L 598.588799 356.920875 
L 597.84414 356.396421 
L 597.086319 355.862616 
L 596.279917 355.294664 
L 596.143034 355.198236 
L 596.134738 353.9132 
L 597.224412 352.322364 
L 596.458761 351.739802 
L 596.519853 351.648211 
L 596.637302 351.472075 
L 598.301254 348.976994 
L 596.852452 347.873784 
L 595.466442 346.817814 
L 599.716021 340.697827 
L 599.578075 340.586391 
L 600.922577 338.63886 
" clip-path="url(#pac637d7fbb)" style="fill: #d3d3d3"/>
   </g>
   <g id="matplotlib.axis_1">
    <g id="xtick_1">
     <g id="line2d_1">
      <defs>
       <path id="mf811457bd7" d="M 0 0 
L 0 3.5 
" style="stroke: #000000; stroke-width: 0.8"/>
      </defs>
      <g>
       <use xlink:href="#mf811457bd7" x="192.971399" y="640.8" style="stroke: #000000; stroke-width: 0.8"/>
      </g>
     </g>
     <g id="text_1">
      <!-- 13.36 -->
      <g transform="translate(178.657337 655.398438) scale(0.1 -0.1)">
       <defs>
        <path id="DejaVuSans-31" d="M 794 531 
L 1825 531 
L 1825 4091 
L 703 3866 
L 703 4441 
L 1819 4666 
L 2450 4666 
L 2450 531 
L 3481 531 
L 3481 0 
L 794 0 
L 794 531 
z
" transform="scale(0.015625)"/>
        <path id="DejaVuSans-33" d="M 2597 2516 
Q 3050 2419 3304 2112 
Q 3559 1806 3559 1356 
Q 3559 666 3084 287 
Q 2609 -91 1734 -91 
Q 1441 -91 1130 -33 
Q 819 25 488 141 
L 488 750 
Q 750 597 1062 519 
Q 1375 441 1716 441 
Q 2309 441 2620 675 
Q 2931 909 2931 1356 
Q 2931 1769 2642 2001 
Q 2353 2234 1838 2234 
L 1294 2234 
L 1294 2753 
L 1863 2753 
Q 2328 2753 2575 2939 
Q 2822 3125 2822 3475 
Q 2822 3834 2567 4026 
Q 2313 4219 1838 4219 
Q 1578 4219 1281 4162 
Q 984 4106 628 3988 
L 628 4550 
Q 988 4650 1302 4700 
Q 1616 4750 1894 4750 
Q 2613 4750 3031 4423 
Q 3450 4097 3450 3541 
Q 3450 3153 3228 2886 
Q 3006 2619 2597 2516 
z
" transform="scale(0.015625)"/>
        <path id="DejaVuSans-2e" d="M 684 794 
L 1344 794 
L 1344 0 
L 684 0 
L 684 794 
z
" transform="scale(0.015625)"/>
        <path id="DejaVuSans-36" d="M 2113 2584 
Q 1688 2584 1439 2293 
Q 1191 2003 1191 1497 
Q 1191 994 1439 701 
Q 1688 409 2113 409 
Q 2538 409 2786 701 
Q 3034 994 3034 1497 
Q 3034 2003 2786 2293 
Q 2538 2584 2113 2584 
z
M 3366 4563 
L 3366 3988 
Q 3128 4100 2886 4159 
Q 2644 4219 2406 4219 
Q 1781 4219 1451 3797 
Q 1122 3375 1075 2522 
Q 1259 2794 1537 2939 
Q 1816 3084 2150 3084 
Q 2853 3084 3261 2657 
Q 3669 2231 3669 1497 
Q 3669 778 3244 343 
Q 2819 -91 2113 -91 
Q 1303 -91 875 529 
Q 447 1150 447 2328 
Q 447 3434 972 4092 
Q 1497 4750 2381 4750 
Q 2619 4750 2861 4703 
Q 3103 4656 3366 4563 
z
" transform="scale(0.015625)"/>
       </defs>
       <use xlink:href="#DejaVuSans-31"/>
       <use xlink:href="#DejaVuSans-33" x="63.623047"/>
       <use xlink:href="#DejaVuSans-2e" x="127.246094"/>
       <use xlink:href="#DejaVuSans-33" x="159.033203"/>
       <use xlink:href="#DejaVuSans-36" x="222.65625"/>
      </g>
     </g>
    </g>
    <g id="xtick_2">
     <g id="line2d_2">
      <g>
       <use xlink:href="#mf811457bd7" x="303.402459" y="640.8" style="stroke: #000000; stroke-width: 0.8"/>
      </g>
     </g>
     <g id="text_2">
      <!-- 13.38 -->
      <g transform="translate(289.088397 655.398438) scale(0.1 -0.1)">
       <defs>
        <path id="DejaVuSans-38" d="M 2034 2216 
Q 1584 2216 1326 1975 
Q 1069 1734 1069 1313 
Q 1069 891 1326 650 
Q 1584 409 2034 409 
Q 2484 409 2743 651 
Q 3003 894 3003 1313 
Q 3003 1734 2745 1975 
Q 2488 2216 2034 2216 
z
M 1403 2484 
Q 997 2584 770 2862 
Q 544 3141 544 3541 
Q 544 4100 942 4425 
Q 1341 4750 2034 4750 
Q 2731 4750 3128 4425 
Q 3525 4100 3525 3541 
Q 3525 3141 3298 2862 
Q 3072 2584 2669 2484 
Q 3125 2378 3379 2068 
Q 3634 1759 3634 1313 
Q 3634 634 3220 271 
Q 2806 -91 2034 -91 
Q 1263 -91 848 271 
Q 434 634 434 1313 
Q 434 1759 690 2068 
Q 947 2378 1403 2484 
z
M 1172 3481 
Q 1172 3119 1398 2916 
Q 1625 2713 2034 2713 
Q 2441 2713 2670 2916 
Q 2900 3119 2900 3481 
Q 2900 3844 2670 4047 
Q 2441 4250 2034 4250 
Q 1625 4250 1398 4047 
Q 1172 3844 1172 3481 
z
" transform="scale(0.015625)"/>
       </defs>
       <use xlink:href="#DejaVuSans-31"/>
       <use xlink:href="#DejaVuSans-33" x="63.623047"/>
       <use xlink:href="#DejaVuSans-2e" x="127.246094"/>
       <use xlink:href="#DejaVuSans-33" x="159.033203"/>
       <use xlink:href="#DejaVuSans-38" x="222.65625"/>
      </g>
     </g>
    </g>
    <g id="xtick_3">
     <g id="line2d_3">
      <g>
       <use xlink:href="#mf811457bd7" x="413.833519" y="640.8" style="stroke: #000000; stroke-width: 0.8"/>
      </g>
     </g>
     <g id="text_3">
      <!-- 13.40 -->
      <g transform="translate(399.519457 655.398438) scale(0.1 -0.1)">
       <defs>
        <path id="DejaVuSans-34" d="M 2419 4116 
L 825 1625 
L 2419 1625 
L 2419 4116 
z
M 2253 4666 
L 3047 4666 
L 3047 1625 
L 3713 1625 
L 3713 1100 
L 3047 1100 
L 3047 0 
L 2419 0 
L 2419 1100 
L 313 1100 
L 313 1709 
L 2253 4666 
z
" transform="scale(0.015625)"/>
        <path id="DejaVuSans-30" d="M 2034 4250 
Q 1547 4250 1301 3770 
Q 1056 3291 1056 2328 
Q 1056 1369 1301 889 
Q 1547 409 2034 409 
Q 2525 409 2770 889 
Q 3016 1369 3016 2328 
Q 3016 3291 2770 3770 
Q 2525 4250 2034 4250 
z
M 2034 4750 
Q 2819 4750 3233 4129 
Q 3647 3509 3647 2328 
Q 3647 1150 3233 529 
Q 2819 -91 2034 -91 
Q 1250 -91 836 529 
Q 422 1150 422 2328 
Q 422 3509 836 4129 
Q 1250 4750 2034 4750 
z
" transform="scale(0.015625)"/>
       </defs>
       <use xlink:href="#DejaVuSans-31"/>
       <use xlink:href="#DejaVuSans-33" x="63.623047"/>
       <use xlink:href="#DejaVuSans-2e" x="127.246094"/>
       <use xlink:href="#DejaVuSans-34" x="159.033203"/>
       <use xlink:href="#DejaVuSans-30" x="222.65625"/>
      </g>
     </g>
    </g>
    <g id="xtick_4">
     <g id="line2d_4">
      <g>
       <use xlink:href="#mf811457bd7" x="524.264579" y="640.8" style="stroke: #000000; stroke-width: 0.8"/>
      </g>
     </g>
     <g id="text_4">
      <!-- 13.42 -->
      <g transform="translate(509.950516 655.398438) scale(0.1 -0.1)">
       <defs>
        <path id="DejaVuSans-32" d="M 1228 531 
L 3431 531 
L 3431 0 
L 469 0 
L 469 531 
Q 828 903 1448 1529 
Q 2069 2156 2228 2338 
Q 2531 2678 2651 2914 
Q 2772 3150 2772 3378 
Q 2772 3750 2511 3984 
Q 2250 4219 1831 4219 
Q 1534 4219 1204 4116 
Q 875 4013 500 3803 
L 500 4441 
Q 881 4594 1212 4672 
Q 1544 4750 1819 4750 
Q 2544 4750 2975 4387 
Q 3406 4025 3406 3419 
Q 3406 3131 3298 2873 
Q 3191 2616 2906 2266 
Q 2828 2175 2409 1742 
Q 1991 1309 1228 531 
z
" transform="scale(0.015625)"/>
       </defs>
       <use xlink:href="#DejaVuSans-31"/>
       <use xlink:href="#DejaVuSans-33" x="63.623047"/>
       <use xlink:href="#DejaVuSans-2e" x="127.246094"/>
       <use xlink:href="#DejaVuSans-34" x="159.033203"/>
       <use xlink:href="#DejaVuSans-32" x="222.65625"/>
      </g>
     </g>
    </g>
    <g id="xtick_5">
     <g id="line2d_5">
      <g>
       <use xlink:href="#mf811457bd7" x="634.695639" y="640.8" style="stroke: #000000; stroke-width: 0.8"/>
      </g>
     </g>
     <g id="text_5">
      <!-- 13.44 -->
      <g transform="translate(620.381576 655.398438) scale(0.1 -0.1)">
       <use xlink:href="#DejaVuSans-31"/>
       <use xlink:href="#DejaVuSans-33" x="63.623047"/>
       <use xlink:href="#DejaVuSans-2e" x="127.246094"/>
       <use xlink:href="#DejaVuSans-34" x="159.033203"/>
       <use xlink:href="#DejaVuSans-34" x="222.65625"/>
      </g>
     </g>
    </g>
   </g>
   <g id="matplotlib.axis_2">
    <g id="ytick_1">
     <g id="line2d_6">
      <defs>
       <path id="m22b8518882" d="M 0 0 
L -3.5 0 
" style="stroke: #000000; stroke-width: 0.8"/>
      </defs>
      <g>
       <use xlink:href="#m22b8518882" x="99.794137" y="629.634622" style="stroke: #000000; stroke-width: 0.8"/>
      </g>
     </g>
     <g id="text_6">
      <!-- 52.55 -->
      <g transform="translate(64.166012 633.433841) scale(0.1 -0.1)">
       <defs>
        <path id="DejaVuSans-35" d="M 691 4666 
L 3169 4666 
L 3169 4134 
L 1269 4134 
L 1269 2991 
Q 1406 3038 1543 3061 
Q 1681 3084 1819 3084 
Q 2600 3084 3056 2656 
Q 3513 2228 3513 1497 
Q 3513 744 3044 326 
Q 2575 -91 1722 -91 
Q 1428 -91 1123 -41 
Q 819 9 494 109 
L 494 744 
Q 775 591 1075 516 
Q 1375 441 1709 441 
Q 2250 441 2565 725 
Q 2881 1009 2881 1497 
Q 2881 1984 2565 2268 
Q 2250 2553 1709 2553 
Q 1456 2553 1204 2497 
Q 953 2441 691 2322 
L 691 4666 
z
" transform="scale(0.015625)"/>
       </defs>
       <use xlink:href="#DejaVuSans-35"/>
       <use xlink:href="#DejaVuSans-32" x="63.623047"/>
       <use xlink:href="#DejaVuSans-2e" x="127.246094"/>
       <use xlink:href="#DejaVuSans-35" x="159.033203"/>
       <use xlink:href="#DejaVuSans-35" x="222.65625"/>
      </g>
     </g>
    </g>
    <g id="ytick_2">
     <g id="line2d_7">
      <g>
       <use xlink:href="#m22b8518882" x="99.794137" y="538.783214" style="stroke: #000000; stroke-width: 0.8"/>
      </g>
     </g>
     <g id="text_7">
      <!-- 52.56 -->
      <g transform="translate(64.166012 542.582433) scale(0.1 -0.1)">
       <use xlink:href="#DejaVuSans-35"/>
       <use xlink:href="#DejaVuSans-32" x="63.623047"/>
       <use xlink:href="#DejaVuSans-2e" x="127.246094"/>
       <use xlink:href="#DejaVuSans-35" x="159.033203"/>
       <use xlink:href="#DejaVuSans-36" x="222.65625"/>
      </g>
     </g>
    </g>
    <g id="ytick_3">
     <g id="line2d_8">
      <g>
       <use xlink:href="#m22b8518882" x="99.794137" y="447.931807" style="stroke: #000000; stroke-width: 0.8"/>
      </g>
     </g>
     <g id="text_8">
      <!-- 52.57 -->
      <g transform="translate(64.166012 451.731025) scale(0.1 -0.1)">
       <defs>
        <path id="DejaVuSans-37" d="M 525 4666 
L 3525 4666 
L 3525 4397 
L 1831 0 
L 1172 0 
L 2766 4134 
L 525 4134 
L 525 4666 
z
" transform="scale(0.015625)"/>
       </defs>
       <use xlink:href="#DejaVuSans-35"/>
       <use xlink:href="#DejaVuSans-32" x="63.623047"/>
       <use xlink:href="#DejaVuSans-2e" x="127.246094"/>
       <use xlink:href="#DejaVuSans-35" x="159.033203"/>
       <use xlink:href="#DejaVuSans-37" x="222.65625"/>
      </g>
     </g>
    </g>
    <g id="ytick_4">
     <g id="line2d_9">
      <g>
       <use xlink:href="#m22b8518882" x="99.794137" y="357.080399" style="stroke: #000000; stroke-width: 0.8"/>
      </g>
     </g>
     <g id="text_9">
      <!-- 52.58 -->
      <g transform="translate(64.166012 360.879618) scale(0.1 -0.1)">
       <use xlink:href="#DejaVuSans-35"/>
       <use xlink:href="#DejaVuSans-32" x="63.623047"/>
       <use xlink:href="#DejaVuSans-2e" x="127.246094"/>
       <use xlink:href="#DejaVuSans-35" x="159.033203"/>
       <use xlink:href="#DejaVuSans-38" x="222.65625"/>
      </g>
     </g>
    </g>
    <g id="ytick_5">
     <g id="line2d_10">
      <g>
       <use xlink:href="#m22b8518882" x="99.794137" y="266.228991" style="stroke: #000000; stroke-width: 0.8"/>
      </g>
     </g>
     <g id="text_10">
      <!-- 52.59 -->
      <g transform="translate(64.166012 270.02821) scale(0.1 -0.1)">
       <defs>
        <path id="DejaVuSans-39" d="M 703 97 
L 703 672 
Q 941 559 1184 500 
Q 1428 441 1663 441 
Q 2288 441 2617 861 
Q 2947 1281 2994 2138 
Q 2813 1869 2534 1725 
Q 2256 1581 1919 1581 
Q 1219 1581 811 2004 
Q 403 2428 403 3163 
Q 403 3881 828 4315 
Q 1253 4750 1959 4750 
Q 2769 4750 3195 4129 
Q 3622 3509 3622 2328 
Q 3622 1225 3098 567 
Q 2575 -91 1691 -91 
Q 1453 -91 1209 -44 
Q 966 3 703 97 
z
M 1959 2075 
Q 2384 2075 2632 2365 
Q 2881 2656 2881 3163 
Q 2881 3666 2632 3958 
Q 2384 4250 1959 4250 
Q 1534 4250 1286 3958 
Q 1038 3666 1038 3163 
Q 1038 2656 1286 2365 
Q 1534 2075 1959 2075 
z
" transform="scale(0.015625)"/>
       </defs>
       <use xlink:href="#DejaVuSans-35"/>
       <use xlink:href="#DejaVuSans-32" x="63.623047"/>
       <use xlink:href="#DejaVuSans-2e" x="127.246094"/>
       <use xlink:href="#DejaVuSans-35" x="159.033203"/>
       <use xlink:href="#DejaVuSans-39" x="222.65625"/>
      </g>
     </g>
    </g>
    <g id="ytick_6">
     <g id="line2d_11">
      <g>
       <use xlink:href="#m22b8518882" x="99.794137" y="175.377583" style="stroke: #000000; stroke-width: 0.8"/>
      </g>
     </g>
     <g id="text_11">
      <!-- 52.60 -->
      <g transform="translate(64.166012 179.176802) scale(0.1 -0.1)">
       <use xlink:href="#DejaVuSans-35"/>
       <use xlink:href="#DejaVuSans-32" x="63.623047"/>
       <use xlink:href="#DejaVuSans-2e" x="127.246094"/>
       <use xlink:href="#DejaVuSans-36" x="159.033203"/>
       <use xlink:href="#DejaVuSans-30" x="222.65625"/>
      </g>
     </g>
    </g>
   </g>
   <g id="LineCollection_1">
    <path d="M 514.44008 528.601497 
L 515.415186 528.479756 
L 515.981697 528.409801 
L 517.35822 528.239 
L 521.369077 527.851973 
L 522.323753 527.759305 
" clip-path="url(#pac637d7fbb)" style="fill: none; stroke: #ff0000; stroke-opacity: 0.7; stroke-width: 0.5"/>
    <path d="M 376.941263 402.013688 
L 376.680645 402.393447 
L 376.025237 403.349204 
L 374.781231 404.742864 
L 371.466091 407.237644 
" clip-path="url(#pac637d7fbb)" style="fill: none; stroke: #ff0000; stroke-opacity: 0.7; stroke-width: 0.5"/>
    <path d="M 444.361081 417.023249 
L 444.210343 416.656209 
L 442.770874 413.162064 
L 442.730015 412.80411 
L 442.827194 412.585158 
L 443.048056 412.366206 
L 452.744455 406.260083 
L 452.827278 406.205572 
L 453.362317 405.853977 
" clip-path="url(#pac637d7fbb)" style="fill: none; stroke: #ff0000; stroke-opacity: 0.7; stroke-width: 0.5"/>
    <path d="M 296.268613 316.134578 
L 295.85284 316.350804 
L 273.630246 327.911646 
L 273.145453 328.164213 
" clip-path="url(#pac637d7fbb)" style="fill: none; stroke: #ff0000; stroke-opacity: 0.7; stroke-width: 0.5"/>
    <path d="M 254.51242 317.859846 
L 254.968501 317.627266 
L 270.433266 309.720468 
L 270.920267 309.471536 
L 271.007508 308.359514 
" clip-path="url(#pac637d7fbb)" style="fill: none; stroke: #ff0000; stroke-opacity: 0.7; stroke-width: 0.5"/>
    <path d="M 533.340356 335.107077 
L 535.911743 340.778931 
L 536.12101 341.289516 
" clip-path="url(#pac637d7fbb)" style="fill: none; stroke: #ff0000; stroke-opacity: 0.7; stroke-width: 0.5"/>
    <path d="M 529.030231 325.516803 
L 529.211338 325.901104 
L 530.001472 327.720858 
L 530.534302 328.889207 
L 531.905304 331.813714 
L 532.986424 334.143144 
L 533.340356 335.107077 
" clip-path="url(#pac637d7fbb)" style="fill: none; stroke: #ff0000; stroke-opacity: 0.7; stroke-width: 0.5"/>
    <path d="M 523.662177 313.737918 
L 523.958133 314.386597 
L 529.030231 325.516803 
" clip-path="url(#pac637d7fbb)" style="fill: none; stroke: #ff0000; stroke-opacity: 0.7; stroke-width: 0.5"/>
    <path d="M 493.900455 328.545789 
L 494.159968 329.139048 
L 494.826419 330.661718 
L 495.410599 331.923644 
L 496.215642 333.726136 
L 497.542471 336.543438 
L 499.215502 340.093911 
" clip-path="url(#pac637d7fbb)" style="fill: none; stroke: #ff0000; stroke-opacity: 0.7; stroke-width: 0.5"/>
    <path d="M 499.215502 340.093911 
L 501.157432 344.486577 
L 503.438937 349.093652 
" clip-path="url(#pac637d7fbb)" style="fill: none; stroke: #ff0000; stroke-opacity: 0.7; stroke-width: 0.5"/>
    <path d="M 504.386436 540.733794 
L 514.589714 540.99908 
L 515.156777 541.028153 
L 516.110349 541.045414 
L 519.998627 541.168972 
L 523.21714 541.288896 
L 531.934016 541.277086 
L 532.794274 541.099925 
L 535.787508 540.509391 
L 535.95702 540.475776 
L 536.78194 540.313152 
" clip-path="url(#pac637d7fbb)" style="fill: none; stroke: #ff0000; stroke-opacity: 0.7; stroke-width: 0.5"/>
    <path d="M 503.438937 349.093652 
L 504.234593 351.006982 
L 503.944712 352.215306 
" clip-path="url(#pac637d7fbb)" style="fill: none; stroke: #ff0000; stroke-opacity: 0.7; stroke-width: 0.5"/>
    <path d="M 486.99244 420.791766 
L 487.08465 421.02162 
L 488.407062 424.303172 
L 488.590377 424.701102 
L 489.089526 425.134463 
L 489.858126 425.781325 
L 490.162363 426.330067 
L 490.920473 428.384218 
L 490.991148 428.575914 
L 491.191581 429.121023 
L 491.23741 429.246398 
" clip-path="url(#pac637d7fbb)" style="fill: none; stroke: #ff0000; stroke-opacity: 0.7; stroke-width: 0.5"/>
    <path d="M 487.835581 539.410998 
L 486.785382 539.480045 
L 486.497709 539.499123 
L 485.744569 539.549092 
" clip-path="url(#pac637d7fbb)" style="fill: none; stroke: #ff0000; stroke-opacity: 0.7; stroke-width: 0.5"/>
    <path d="M 490.095 419.560729 
L 489.80291 419.679744 
L 487.169682 420.724536 
L 486.99244 420.791766 
" clip-path="url(#pac637d7fbb)" style="fill: none; stroke: #ff0000; stroke-opacity: 0.7; stroke-width: 0.5"/>
    <path d="M 537.928766 540.073304 
L 538.480921 539.967917 
L 538.678041 539.930668 
L 541.704956 539.352853 
L 542.797119 539.144803 
L 546.593187 538.161791 
L 549.042548 537.226021 
L 550.118146 536.815373 
L 551.423442 536.281167 
L 554.018572 535.557989 
L 555.085336 535.422621 
" clip-path="url(#pac637d7fbb)" style="fill: none; stroke: #ff0000; stroke-opacity: 0.7; stroke-width: 0.5"/>
    <path d="M 491.343424 423.683566 
L 491.213115 424.678389 
L 491.180538 425.231674 
L 491.295386 425.761338 
L 491.674717 426.696199 
L 492.158405 427.88726 
L 491.18882 428.245215 
L 490.727218 427.06233 
L 490.341814 426.074775 
L 489.984017 425.565099 
L 489.699105 425.269831 
L 488.984616 424.709278 
L 488.719029 424.373128 
L 488.023866 422.653311 
L 487.347476 420.978919 
L 488.753815 420.404739 
L 489.954201 419.915049 
L 490.690224 421.745705 
L 491.327963 423.332879 
L 491.343424 423.683566 
" clip-path="url(#pac637d7fbb)" style="fill: none; stroke: #ff0000; stroke-opacity: 0.7; stroke-width: 0.5"/>
    <path d="M 536.632305 532.526278 
L 537.219799 532.431792 
L 542.59227 531.59596 
L 544.274687 531.334307 
L 546.190666 530.993615 
L 547.182337 530.813729 
L 555.405586 529.325583 
L 556.329341 529.158416 
" clip-path="url(#pac637d7fbb)" style="fill: none; stroke: #ff0000; stroke-opacity: 0.7; stroke-width: 0.5"/>
    <path d="M 553.552552 512.875118 
L 553.711573 513.782724 
L 554.093665 516.028571 
L 554.893738 520.726497 
L 555.094722 521.906657 
L 555.462458 524.068012 
L 555.518777 524.398711 
L 555.620926 524.99833 
L 556.224984 528.546986 
L 556.329341 529.158416 
L 556.671678 531.121715 
L 557.155918 533.90086 
L 557.190704 534.098916 
L 557.353037 535.028326 
" clip-path="url(#pac637d7fbb)" style="fill: none; stroke: #ff0000; stroke-opacity: 0.7; stroke-width: 0.5"/>
    <path d="M 498.097387 541.087206 
L 498.1134 539.667199 
" clip-path="url(#pac637d7fbb)" style="fill: none; stroke: #ff0000; stroke-opacity: 0.7; stroke-width: 0.5"/>
    <path d="M 485.808067 540.891876 
L 486.532494 540.894601 
L 486.821824 540.896418 
L 487.955399 540.900961 
" clip-path="url(#pac637d7fbb)" style="fill: none; stroke: #ff0000; stroke-opacity: 0.7; stroke-width: 0.5"/>
    <path d="M 487.955399 540.900961 
L 488.582095 540.899144 
L 489.035414 540.900052 
" clip-path="url(#pac637d7fbb)" style="fill: none; stroke: #ff0000; stroke-opacity: 0.7; stroke-width: 0.5"/>
    <path d="M 543.109087 512.599839 
L 543.47627 514.496816 
L 543.653512 515.465292 
L 543.86057 516.767193 
L 543.951124 517.336831 
L 544.275791 519.375537 
L 545.047704 524.058927 
L 545.512067 526.876229 
L 546.081339 530.330399 
L 546.190666 530.993615 
" clip-path="url(#pac637d7fbb)" style="fill: none; stroke: #ff0000; stroke-opacity: 0.7; stroke-width: 0.5"/>
    <path d="M 504.386436 540.733794 
L 503.423477 539.794391 
" clip-path="url(#pac637d7fbb)" style="fill: none; stroke: #ff0000; stroke-opacity: 0.7; stroke-width: 0.5"/>
    <path d="M 536.78194 540.313152 
L 537.928766 540.073304 
" clip-path="url(#pac637d7fbb)" style="fill: none; stroke: #ff0000; stroke-opacity: 0.7; stroke-width: 0.5"/>
    <path d="M 364.196966 413.312878 
L 363.714383 414.140534 
" clip-path="url(#pac637d7fbb)" style="fill: none; stroke: #ff0000; stroke-opacity: 0.7; stroke-width: 0.5"/>
    <path d="M 484.810322 417.397557 
L 485.071491 417.812748 
L 486.86434 420.592801 
L 486.99244 420.791766 
" clip-path="url(#pac637d7fbb)" style="fill: none; stroke: #ff0000; stroke-opacity: 0.7; stroke-width: 0.5"/>
    <path d="M 490.095 419.560729 
L 489.995612 419.305437 
L 489.119894 417.05323 
L 488.227611 415.692276 
L 488.028835 415.40246 
" clip-path="url(#pac637d7fbb)" style="fill: none; stroke: #ff0000; stroke-opacity: 0.7; stroke-width: 0.5"/>
    <path d="M 492.706695 428.644053 
L 492.657001 428.515952 
L 492.421783 427.938137 
L 491.477597 425.619609 
L 491.394774 425.059965 
L 491.576433 423.697194 
L 491.455511 423.145726 
L 490.175063 419.771504 
L 490.095 419.560729 
" clip-path="url(#pac637d7fbb)" style="fill: none; stroke: #ff0000; stroke-opacity: 0.7; stroke-width: 0.5"/>
    <path d="M 489.035414 540.900052 
L 490.435128 540.932759 
L 492.928661 540.969099 
L 498.097387 541.087206 
L 503.498018 541.170789 
" clip-path="url(#pac637d7fbb)" style="fill: none; stroke: #ff0000; stroke-opacity: 0.7; stroke-width: 0.5"/>
    <path d="M 503.423477 539.794391 
L 498.1134 539.667199 
L 492.920931 539.585432 
L 489.488734 539.468234 
L 488.866455 539.44643 
L 488.502032 539.432802 
L 487.835581 539.410998 
" clip-path="url(#pac637d7fbb)" style="fill: none; stroke: #ff0000; stroke-opacity: 0.7; stroke-width: 0.5"/>
    <path d="M 503.498018 541.170789 
L 504.386436 540.733794 
" clip-path="url(#pac637d7fbb)" style="fill: none; stroke: #ff0000; stroke-opacity: 0.7; stroke-width: 0.5"/>
    <path d="M 522.323753 527.759305 
L 522.419276 528.505195 
L 522.494921 529.095729 
" clip-path="url(#pac637d7fbb)" style="fill: none; stroke: #ff0000; stroke-opacity: 0.7; stroke-width: 0.5"/>
    <path d="M 522.494921 529.095729 
L 533.499928 527.420429 
L 534.442458 527.276884 
" clip-path="url(#pac637d7fbb)" style="fill: none; stroke: #ff0000; stroke-opacity: 0.7; stroke-width: 0.5"/>
    <path d="M 561.113215 534.439609 
L 561.678622 534.351483 
L 565.567452 533.74187 
L 566.156049 533.65011 
L 566.818636 533.529277 
L 567.031768 533.49112 
L 567.226678 533.455688 
L 567.555763 533.396634 
L 567.996935 533.317594 
" clip-path="url(#pac637d7fbb)" style="fill: none; stroke: #ff0000; stroke-opacity: 0.7; stroke-width: 0.5"/>
    <path d="M 555.085336 535.422621 
L 556.393944 535.195492 
L 557.353037 535.028326 
L 561.113215 534.439609 
" clip-path="url(#pac637d7fbb)" style="fill: none; stroke: #ff0000; stroke-opacity: 0.7; stroke-width: 0.5"/>
    <path d="M 371.466091 407.237644 
L 369.908461 408.410536 
" clip-path="url(#pac637d7fbb)" style="fill: none; stroke: #ff0000; stroke-opacity: 0.7; stroke-width: 0.5"/>
    <path d="M 369.908461 408.410536 
L 366.756206 410.782666 
L 366.147179 411.315964 
L 365.49177 411.925577 
L 364.478013 413.011251 
L 364.196966 413.312878 
" clip-path="url(#pac637d7fbb)" style="fill: none; stroke: #ff0000; stroke-opacity: 0.7; stroke-width: 0.5"/>
    <path d="M 493.501246 327.688151 
L 493.629899 327.96434 
L 493.900455 328.545789 
" clip-path="url(#pac637d7fbb)" style="fill: none; stroke: #ff0000; stroke-opacity: 0.7; stroke-width: 0.5"/>
   </g>
   <g id="patch_3">
    <path d="M 99.794137 640.8 
L 99.794137 86.4 
" style="fill: none; stroke: #000000; stroke-width: 0.8; stroke-linejoin: miter; stroke-linecap: square"/>
   </g>
   <g id="patch_4">
    <path d="M 638.205863 640.8 
L 638.205863 86.4 
" style="fill: none; stroke: #000000; stroke-width: 0.8; stroke-linejoin: miter; stroke-linecap: square"/>
   </g>
   <g id="patch_5">
    <path d="M 99.794137 640.8 
L 638.205863 640.8 
" style="fill: none; stroke: #000000; stroke-width: 0.8; stroke-linejoin: miter; stroke-linecap: square"/>
   </g>
   <g id="patch_6">
    <path d="M 99.794137 86.4 
L 638.205863 86.4 
" style="fill: none; stroke: #000000; stroke-width: 0.8; stroke-linejoin: miter; stroke-linecap: square"/>
   </g>
   <g id="text_12">
    <!-- Sdliches_Pankow -->
    <g transform="translate(347.373407 380.358983) scale(0.12 -0.12)">
     <defs>
      <path id="DejaVuSans-53" d="M 3425 4513 
L 3425 3897 
Q 3066 4069 2747 4153 
Q 2428 4238 2131 4238 
Q 1616 4238 1336 4038 
Q 1056 3838 1056 3469 
Q 1056 3159 1242 3001 
Q 1428 2844 1947 2747 
L 2328 2669 
Q 3034 2534 3370 2195 
Q 3706 1856 3706 1288 
Q 3706 609 3251 259 
Q 2797 -91 1919 -91 
Q 1588 -91 1214 -16 
Q 841 59 441 206 
L 441 856 
Q 825 641 1194 531 
Q 1563 422 1919 422 
Q 2459 422 2753 634 
Q 3047 847 3047 1241 
Q 3047 1584 2836 1778 
Q 2625 1972 2144 2069 
L 1759 2144 
Q 1053 2284 737 2584 
Q 422 2884 422 3419 
Q 422 4038 858 4394 
Q 1294 4750 2059 4750 
Q 2388 4750 2728 4690 
Q 3069 4631 3425 4513 
z
" transform="scale(0.015625)"/>
      <path id="DejaVuSans-fc" d="M 544 1381 
L 544 3500 
L 1119 3500 
L 1119 1403 
Q 1119 906 1312 657 
Q 1506 409 1894 409 
Q 2359 409 2629 706 
Q 2900 1003 2900 1516 
L 2900 3500 
L 3475 3500 
L 3475 0 
L 2900 0 
L 2900 538 
Q 2691 219 2414 64 
Q 2138 -91 1772 -91 
Q 1169 -91 856 284 
Q 544 659 544 1381 
z
M 1991 3584 
L 1991 3584 
z
M 2278 4850 
L 2913 4850 
L 2913 4219 
L 2278 4219 
L 2278 4850 
z
M 1056 4850 
L 1691 4850 
L 1691 4219 
L 1056 4219 
L 1056 4850 
z
" transform="scale(0.015625)"/>
      <path id="DejaVuSans-64" d="M 2906 2969 
L 2906 4863 
L 3481 4863 
L 3481 0 
L 2906 0 
L 2906 525 
Q 2725 213 2448 61 
Q 2172 -91 1784 -91 
Q 1150 -91 751 415 
Q 353 922 353 1747 
Q 353 2572 751 3078 
Q 1150 3584 1784 3584 
Q 2172 3584 2448 3432 
Q 2725 3281 2906 2969 
z
M 947 1747 
Q 947 1113 1208 752 
Q 1469 391 1925 391 
Q 2381 391 2643 752 
Q 2906 1113 2906 1747 
Q 2906 2381 2643 2742 
Q 2381 3103 1925 3103 
Q 1469 3103 1208 2742 
Q 947 2381 947 1747 
z
" transform="scale(0.015625)"/>
      <path id="DejaVuSans-6c" d="M 603 4863 
L 1178 4863 
L 1178 0 
L 603 0 
L 603 4863 
z
" transform="scale(0.015625)"/>
      <path id="DejaVuSans-69" d="M 603 3500 
L 1178 3500 
L 1178 0 
L 603 0 
L 603 3500 
z
M 603 4863 
L 1178 4863 
L 1178 4134 
L 603 4134 
L 603 4863 
z
" transform="scale(0.015625)"/>
      <path id="DejaVuSans-63" d="M 3122 3366 
L 3122 2828 
Q 2878 2963 2633 3030 
Q 2388 3097 2138 3097 
Q 1578 3097 1268 2742 
Q 959 2388 959 1747 
Q 959 1106 1268 751 
Q 1578 397 2138 397 
Q 2388 397 2633 464 
Q 2878 531 3122 666 
L 3122 134 
Q 2881 22 2623 -34 
Q 2366 -91 2075 -91 
Q 1284 -91 818 406 
Q 353 903 353 1747 
Q 353 2603 823 3093 
Q 1294 3584 2113 3584 
Q 2378 3584 2631 3529 
Q 2884 3475 3122 3366 
z
" transform="scale(0.015625)"/>
      <path id="DejaVuSans-68" d="M 3513 2113 
L 3513 0 
L 2938 0 
L 2938 2094 
Q 2938 2591 2744 2837 
Q 2550 3084 2163 3084 
Q 1697 3084 1428 2787 
Q 1159 2491 1159 1978 
L 1159 0 
L 581 0 
L 581 4863 
L 1159 4863 
L 1159 2956 
Q 1366 3272 1645 3428 
Q 1925 3584 2291 3584 
Q 2894 3584 3203 3211 
Q 3513 2838 3513 2113 
z
" transform="scale(0.015625)"/>
      <path id="DejaVuSans-65" d="M 3597 1894 
L 3597 1613 
L 953 1613 
Q 991 1019 1311 708 
Q 1631 397 2203 397 
Q 2534 397 2845 478 
Q 3156 559 3463 722 
L 3463 178 
Q 3153 47 2828 -22 
Q 2503 -91 2169 -91 
Q 1331 -91 842 396 
Q 353 884 353 1716 
Q 353 2575 817 3079 
Q 1281 3584 2069 3584 
Q 2775 3584 3186 3129 
Q 3597 2675 3597 1894 
z
M 3022 2063 
Q 3016 2534 2758 2815 
Q 2500 3097 2075 3097 
Q 1594 3097 1305 2825 
Q 1016 2553 972 2059 
L 3022 2063 
z
" transform="scale(0.015625)"/>
      <path id="DejaVuSans-73" d="M 2834 3397 
L 2834 2853 
Q 2591 2978 2328 3040 
Q 2066 3103 1784 3103 
Q 1356 3103 1142 2972 
Q 928 2841 928 2578 
Q 928 2378 1081 2264 
Q 1234 2150 1697 2047 
L 1894 2003 
Q 2506 1872 2764 1633 
Q 3022 1394 3022 966 
Q 3022 478 2636 193 
Q 2250 -91 1575 -91 
Q 1294 -91 989 -36 
Q 684 19 347 128 
L 347 722 
Q 666 556 975 473 
Q 1284 391 1588 391 
Q 1994 391 2212 530 
Q 2431 669 2431 922 
Q 2431 1156 2273 1281 
Q 2116 1406 1581 1522 
L 1381 1569 
Q 847 1681 609 1914 
Q 372 2147 372 2553 
Q 372 3047 722 3315 
Q 1072 3584 1716 3584 
Q 2034 3584 2315 3537 
Q 2597 3491 2834 3397 
z
" transform="scale(0.015625)"/>
      <path id="DejaVuSans-5f" d="M 3263 -1063 
L 3263 -1509 
L -63 -1509 
L -63 -1063 
L 3263 -1063 
z
" transform="scale(0.015625)"/>
      <path id="DejaVuSans-50" d="M 1259 4147 
L 1259 2394 
L 2053 2394 
Q 2494 2394 2734 2622 
Q 2975 2850 2975 3272 
Q 2975 3691 2734 3919 
Q 2494 4147 2053 4147 
L 1259 4147 
z
M 628 4666 
L 2053 4666 
Q 2838 4666 3239 4311 
Q 3641 3956 3641 3272 
Q 3641 2581 3239 2228 
Q 2838 1875 2053 1875 
L 1259 1875 
L 1259 0 
L 628 0 
L 628 4666 
z
" transform="scale(0.015625)"/>
      <path id="DejaVuSans-61" d="M 2194 1759 
Q 1497 1759 1228 1600 
Q 959 1441 959 1056 
Q 959 750 1161 570 
Q 1363 391 1709 391 
Q 2188 391 2477 730 
Q 2766 1069 2766 1631 
L 2766 1759 
L 2194 1759 
z
M 3341 1997 
L 3341 0 
L 2766 0 
L 2766 531 
Q 2569 213 2275 61 
Q 1981 -91 1556 -91 
Q 1019 -91 701 211 
Q 384 513 384 1019 
Q 384 1609 779 1909 
Q 1175 2209 1959 2209 
L 2766 2209 
L 2766 2266 
Q 2766 2663 2505 2880 
Q 2244 3097 1772 3097 
Q 1472 3097 1187 3025 
Q 903 2953 641 2809 
L 641 3341 
Q 956 3463 1253 3523 
Q 1550 3584 1831 3584 
Q 2591 3584 2966 3190 
Q 3341 2797 3341 1997 
z
" transform="scale(0.015625)"/>
      <path id="DejaVuSans-6e" d="M 3513 2113 
L 3513 0 
L 2938 0 
L 2938 2094 
Q 2938 2591 2744 2837 
Q 2550 3084 2163 3084 
Q 1697 3084 1428 2787 
Q 1159 2491 1159 1978 
L 1159 0 
L 581 0 
L 581 3500 
L 1159 3500 
L 1159 2956 
Q 1366 3272 1645 3428 
Q 1925 3584 2291 3584 
Q 2894 3584 3203 3211 
Q 3513 2838 3513 2113 
z
" transform="scale(0.015625)"/>
      <path id="DejaVuSans-6b" d="M 581 4863 
L 1159 4863 
L 1159 1991 
L 2875 3500 
L 3609 3500 
L 1753 1863 
L 3688 0 
L 2938 0 
L 1159 1709 
L 1159 0 
L 581 0 
L 581 4863 
z
" transform="scale(0.015625)"/>
      <path id="DejaVuSans-6f" d="M 1959 3097 
Q 1497 3097 1228 2736 
Q 959 2375 959 1747 
Q 959 1119 1226 758 
Q 1494 397 1959 397 
Q 2419 397 2687 759 
Q 2956 1122 2956 1747 
Q 2956 2369 2687 2733 
Q 2419 3097 1959 3097 
z
M 1959 3584 
Q 2709 3584 3137 3096 
Q 3566 2609 3566 1747 
Q 3566 888 3137 398 
Q 2709 -91 1959 -91 
Q 1206 -91 779 398 
Q 353 888 353 1747 
Q 353 2609 779 3096 
Q 1206 3584 1959 3584 
z
" transform="scale(0.015625)"/>
      <path id="DejaVuSans-77" d="M 269 3500 
L 844 3500 
L 1563 769 
L 2278 3500 
L 2956 3500 
L 3675 769 
L 4391 3500 
L 4966 3500 
L 4050 0 
L 3372 0 
L 2619 2869 
L 1863 0 
L 1184 0 
L 269 3500 
z
" transform="scale(0.015625)"/>
     </defs>
     <use xlink:href="#DejaVuSans-53"/>
     <use xlink:href="#DejaVuSans-fc" x="63.476562"/>
     <use xlink:href="#DejaVuSans-64" x="126.855469"/>
     <use xlink:href="#DejaVuSans-6c" x="190.332031"/>
     <use xlink:href="#DejaVuSans-69" x="218.115234"/>
     <use xlink:href="#DejaVuSans-63" x="245.898438"/>
     <use xlink:href="#DejaVuSans-68" x="300.878906"/>
     <use xlink:href="#DejaVuSans-65" x="364.257812"/>
     <use xlink:href="#DejaVuSans-73" x="425.78125"/>
     <use xlink:href="#DejaVuSans-5f" x="477.880859"/>
     <use xlink:href="#DejaVuSans-50" x="527.880859"/>
     <use xlink:href="#DejaVuSans-61" x="583.683594"/>
     <use xlink:href="#DejaVuSans-6e" x="644.962891"/>
     <use xlink:href="#DejaVuSans-6b" x="708.341797"/>
     <use xlink:href="#DejaVuSans-6f" x="762.626953"/>
     <use xlink:href="#DejaVuSans-77" x="823.808594"/>
    </g>
   </g>
  </g>
 </g>
 <defs>
  <clipPath id="pac637d7fbb">
   <rect x="99.794137" y="86.4" width="538.411725" height="554.4"/>
  </clipPath>
 </defs>
</svg>
