<?xml version="1.0" encoding="utf-8" standalone="no"?>
<!DOCTYPE svg PUBLIC "-//W3C//DTD SVG 1.1//EN"
  "http://www.w3.org/Graphics/SVG/1.1/DTD/svg11.dtd">
<svg xmlns:xlink="http://www.w3.org/1999/xlink" width="720pt" height="720pt" viewBox="0 0 720 720" xmlns="http://www.w3.org/2000/svg" version="1.1">
 <metadata>
  <rdf:RDF xmlns:dc="http://purl.org/dc/elements/1.1/" xmlns:cc="http://creativecommons.org/ns#" xmlns:rdf="http://www.w3.org/1999/02/22-rdf-syntax-ns#">
   <cc:Work>
    <dc:type rdf:resource="http://purl.org/dc/dcmitype/StillImage"/>
    <dc:date>2024-10-15T13:03:59.374932</dc:date>
    <dc:format>image/svg+xml</dc:format>
    <dc:creator>
     <cc:Agent>
      <dc:title>Matplotlib v3.9.2, https://matplotlib.org/</dc:title>
     </cc:Agent>
    </dc:creator>
   </cc:Work>
  </rdf:RDF>
 </metadata>
 <defs>
  <style type="text/css">*{stroke-linejoin: round; stroke-linecap: butt}</style>
 </defs>
 <g id="figure_1">
  <g id="patch_1">
   <path d="M 0 720 
L 720 720 
L 720 0 
L 0 0 
z
" style="fill: #ffffff"/>
  </g>
  <g id="axes_1">
   <g id="patch_2">
    <path d="M 90 587.695395 
L 648 587.695395 
L 648 139.504605 
L 90 139.504605 
z
" style="fill: #ffffff"/>
   </g>
   <g id="PatchCollection_1">
    <path d="M 322.262633 567.323086 
L 327.685991 561.890538 
L 328.464457 561.110591 
L 345.273098 544.273898 
L 351.982346 537.554238 
L 359.552861 529.971534 
L 362.132973 527.387258 
L 372.774843 516.728764 
L 373.964615 515.536997 
L 376.1876 515.872303 
L 376.430646 515.909035 
L 378.788728 516.265168 
L 384.77053 515.885043 
L 384.960201 515.58573 
L 385.567248 515.831644 
L 387.549467 515.694918 
L 390.082768 516.348497 
L 391.369512 513.784939 
L 392.375178 511.598155 
L 395.832141 510.934166 
L 396.314621 510.841666 
L 474.252177 495.874752 
L 537.744216 483.715219 
L 549.0791 481.544762 
L 552.961826 480.80096 
L 557.957341 479.843975 
L 562.20129 486.135555 
L 568.710648 495.785127 
L 568.978927 496.182942 
L 574.796931 496.677717 
L 579.432489 491.82042 
L 579.899386 491.331396 
L 585.092942 485.889785 
L 594.953355 475.560042 
L 595.530881 474.956028 
L 596.151335 474.306673 
L 605.288019 464.744181 
L 606.025606 463.972423 
L 607.411634 462.521431 
L 621.716545 447.549634 
L 618.867475 445.249021 
L 609.316147 430.772418 
L 605.200929 425.449202 
L 602.665664 423.444273 
L 584.685021 409.226179 
L 583.287323 408.12064 
L 574.49849 401.171154 
L 573.686677 400.538896 
L 571.982307 399.211679 
L 571.063026 398.495486 
L 569.814927 397.51131 
L 565.484947 394.096925 
L 564.599562 393.398672 
L 561.180651 390.702439 
L 560.313408 390.018534 
L 556.049562 386.656207 
L 554.736423 385.620798 
L 553.818149 384.888878 
L 553.092999 384.310986 
L 552.14934 383.558959 
L 551.275939 382.862816 
L 548.609916 380.758878 
L 548.212874 380.445614 
L 545.981773 378.684978 
L 543.021381 376.348687 
L 542.241243 375.732864 
L 541.920375 375.479652 
L 539.985588 373.952731 
L 538.148511 372.502885 
L 537.79235 372.222144 
L 537.016397 371.609772 
L 536.967732 371.571134 
L 536.718653 371.374532 
L 536.594611 371.276613 
L 536.540163 371.233384 
L 536.178004 370.947271 
L 535.852933 370.690223 
L 535.243082 370.208264 
L 534.922402 369.954854 
L 534.544684 369.656306 
L 534.465512 369.593767 
L 534.085596 369.293303 
L 532.201791 367.804592 
L 531.875326 367.546592 
L 531.108317 366.940319 
L 530.318377 366.316073 
L 529.989521 366.056357 
L 528.137013 364.592324 
L 526.306835 363.145888 
L 525.937089 362.853655 
L 525.165886 362.244137 
L 524.390096 361.630986 
L 524.053259 361.364961 
L 522.193948 359.895388 
L 520.363552 358.448771 
L 519.99301 358.156165 
L 519.223197 357.547801 
L 518.424267 356.916489 
L 518.060496 356.628846 
L 516.252623 355.200023 
L 514.383122 353.72263 
L 514.012171 353.429445 
L 513.209244 352.794884 
L 512.454181 352.198191 
L 512.141066 351.950716 
L 510.247223 350.454209 
L 508.417191 349.008 
L 508.044244 348.71329 
L 507.300542 348.12559 
L 506.596128 347.568871 
L 506.234948 347.283534 
L 504.318346 345.768865 
L 499.972172 342.334492 
L 499.735234 342.147068 
L 496.853325 340.421934 
L 494.01708 338.723916 
L 491.449538 337.186894 
L 493.917705 333.720725 
L 494.338319 333.129696 
L 495.042593 332.140844 
L 495.531882 331.453208 
L 496.789953 329.686691 
L 497.884599 328.149131 
L 498.239151 327.648365 
L 504.659624 318.573826 
L 506.686699 315.708987 
L 513.869726 305.55774 
L 516.117175 302.381442 
L 523.066556 292.560113 
L 527.268171 286.62255 
L 528.426632 284.98558 
L 539.957025 268.69162 
L 540.420425 268.036799 
L 540.939562 267.303145 
L 542.566414 265.004189 
L 543.196081 264.114464 
L 544.645897 262.06564 
L 547.560775 257.94648 
L 547.256113 257.555946 
L 549.327634 254.640519 
L 554.725947 246.992796 
L 548.453791 243.306818 
L 546.285214 242.031975 
L 538.912007 237.703009 
L 538.469783 237.442805 
L 538.346668 237.370413 
L 537.838558 237.073321 
L 537.27318 236.738957 
L 534.26725 234.974548 
L 533.567904 234.564689 
L 527.705848 231.12933 
L 526.724494 230.552479 
L 522.35187 227.99109 
L 520.911168 227.052039 
L 510.234901 220.108014 
L 505.333408 215.454353 
L 505.323739 214.745353 
L 499.743976 209.337332 
L 496.851076 207.648201 
L 491.104691 204.344174 
L 490.431439 203.955198 
L 477.715047 196.402163 
L 473.081247 193.064788 
L 465.700984 187.749437 
L 459.027491 184.530661 
L 453.833066 181.08807 
L 452.8456 180.432823 
L 439.826371 173.434964 
L 426.789198 166.441211 
L 423.982503 164.842383 
L 422.161101 163.806465 
L 417.424685 160.979365 
L 415.563981 159.876914 
L 413.450179 165.814334 
L 412.104034 169.609314 
L 410.085307 175.255792 
L 407.985105 181.130437 
L 407.831532 181.560225 
L 407.457839 182.605191 
L 406.845794 184.317463 
L 406.403694 185.554297 
L 405.998771 186.686608 
L 404.275809 191.506196 
L 402.530871 196.387188 
L 402.013979 197.83342 
L 401.64658 198.860761 
L 401.181976 200.160038 
L 399.140483 205.871692 
L 397.153124 211.430263 
L 397.088076 211.61228 
L 396.607231 212.957506 
L 396.256301 213.939291 
L 395.771579 215.295411 
L 395.694883 215.509714 
L 393.735851 220.989855 
L 391.61922 226.911276 
L 390.199989 230.979468 
L 390.093625 231.28069 
L 388.033107 237.121108 
L 387.50204 238.62563 
L 387.339005 239.08825 
L 386.412067 241.715461 
L 385.877696 243.230079 
L 385.73128 243.645565 
L 384.798984 246.287437 
L 384.397017 247.427161 
L 384.238955 247.874934 
L 383.487082 250.006251 
L 383.401585 250.24826 
L 383.234304 250.722764 
L 382.274894 253.442265 
L 381.338942 256.095422 
L 381.174418 256.561416 
L 380.822851 257.557567 
L 379.901497 260.169532 
L 378.976255 262.791802 
L 378.757646 263.41167 
L 377.209381 267.671163 
L 376.980781 268.30029 
L 375.823895 271.483173 
L 375.443617 272.52869 
L 375.119119 272.4454 
L 371.117081 271.417239 
L 368.733991 270.805024 
L 365.170988 269.889896 
L 364.844119 269.805875 
L 363.861935 269.571336 
L 359.016631 268.342392 
L 357.646899 267.992353 
L 355.418023 267.422579 
L 352.804126 266.754346 
L 352.554935 266.690439 
L 352.173078 266.593086 
L 348.688201 265.70205 
L 348.442762 265.639437 
L 339.482873 263.341582 
L 331.582525 261.329675 
L 329.531093 260.807358 
L 329.0757 260.691386 
L 328.064963 260.433929 
L 324.373716 259.494059 
L 323.872387 259.366324 
L 323.669532 259.314771 
L 323.493289 259.269904 
L 323.099992 259.169669 
L 320.442736 258.493044 
L 317.877936 257.839942 
L 317.459802 257.733574 
L 317.28139 257.688166 
L 317.162315 257.657767 
L 316.691741 257.538008 
L 314.208944 256.905714 
L 311.616339 256.245576 
L 311.184206 256.135587 
L 311.00362 256.089443 
L 307.746447 255.260172 
L 305.063346 254.577082 
L 303.862765 254.2714 
L 302.024837 253.803445 
L 301.426268 253.651045 
L 301.010299 253.545225 
L 299.553516 253.196788 
L 297.413677 252.685521 
L 296.064107 252.363031 
L 295.715356 252.274012 
L 292.319914 251.407547 
L 289.593974 250.711883 
L 287.963376 250.295755 
L 287.49732 250.176697 
L 286.323708 249.877274 
L 283.536645 249.166071 
L 278.383021 247.850971 
L 278.033279 247.761587 
L 277.332831 247.583627 
L 275.130352 247.02407 
L 274.37825 246.832903 
L 274.166119 246.778813 
L 270.031478 245.72137 
L 269.117882 245.487777 
L 268.708394 245.382811 
L 266.427953 244.799836 
L 264.294581 244.254307 
L 263.814716 244.131634 
L 262.775329 243.86564 
L 260.508092 243.286122 
L 260.063316 243.172308 
L 256.041614 242.143881 
L 250.925312 239.503025 
L 246.954917 237.453804 
L 246.675089 237.379201 
L 243.020359 236.404842 
L 240.508996 235.735246 
L 238.312759 235.149696 
L 237.922106 235.045703 
L 234.870993 234.232183 
L 232.628402 233.634108 
L 232.164979 233.510695 
L 232.046461 233.479115 
L 226.686882 232.050336 
L 220.090699 231.577708 
L 216.499028 231.320378 
L 215.929874 231.239002 
L 211.534941 230.610054 
L 207.973283 230.100295 
L 204.521958 229.606585 
L 202.274037 229.284799 
L 201.818945 229.219582 
L 199.632977 228.906849 
L 197.583496 228.613706 
L 197.144136 228.550698 
L 196.201896 228.415867 
L 194.543393 228.17875 
L 194.052898 228.108422 
L 192.6654 227.909932 
L 179.864398 226.078462 
L 178.006267 225.812771 
L 177.47506 225.73667 
L 174.904588 225.369019 
L 173.730267 225.200823 
L 172.043432 224.959655 
L 170.626425 224.756936 
L 169.973518 224.959237 
L 169.240583 225.186496 
L 168.683094 225.359373 
L 167.900507 225.602076 
L 160.373739 227.93587 
L 157.522053 228.820177 
L 156.409609 229.164907 
L 152.427578 230.399662 
L 151.900078 230.563042 
L 143.809481 233.071762 
L 143.214028 233.256303 
L 143.073642 233.300089 
L 140.473946 234.105963 
L 140.116835 234.216842 
L 139.929518 234.27503 
L 139.720384 234.339597 
L 139.314985 234.465498 
L 136.753656 235.259528 
L 135.785128 235.559827 
L 135.351106 235.694617 
L 133.296249 236.331824 
L 126.829491 238.337026 
L 126.411431 238.466554 
L 115.363636 242.630431 
L 122.194336 247.297919 
L 123.408807 251.483252 
L 123.847379 252.995327 
L 123.981476 253.457697 
L 124.394787 254.882294 
L 124.521467 255.319478 
L 124.868142 256.513864 
L 124.985259 256.91746 
L 125.409388 258.379351 
L 125.866203 259.954496 
L 125.998592 260.410616 
L 126.423558 261.875044 
L 127.039079 263.997498 
L 127.216851 264.609233 
L 127.461495 265.45314 
L 127.755567 266.467114 
L 127.905773 266.984544 
L 128.488373 268.992375 
L 128.51754 269.088217 
L 129.44012 272.120797 
L 130.848391 276.749895 
L 130.871024 276.825051 
L 130.143972 277.067931 
L 130.948783 279.560944 
L 131.643511 279.363584 
L 131.750883 279.716697 
L 133.019221 283.886111 
L 132.258837 284.128549 
L 136.944522 299.827523 
L 137.890385 299.551308 
L 138.151277 300.403897 
L 138.607361 301.894368 
L 138.747423 302.352284 
L 139.68809 305.425742 
L 139.842091 305.929138 
L 140.330699 307.525791 
L 140.587125 308.362759 
L 140.961658 309.5866 
L 141.322459 310.765547 
L 141.49292 311.313187 
L 141.756632 312.160606 
L 142.565505 314.760638 
L 142.816363 315.567467 
L 143.730479 318.504743 
L 143.91002 319.082052 
L 144.75516 321.798405 
L 144.79376 321.922139 
L 144.995861 322.571462 
L 145.618022 324.571943 
L 145.842488 325.293285 
L 146.058928 325.988471 
L 146.487186 327.364798 
L 146.678326 327.979385 
L 146.88845 328.654864 
L 147.092881 329.312193 
L 147.282119 329.920534 
L 148.616033 334.207604 
L 148.885855 335.074933 
L 149.363678 336.610519 
L 149.817899 338.338423 
L 150.571921 341.200788 
L 150.615784 341.367298 
L 150.833957 342.194897 
L 151.615586 345.162428 
L 152.398179 347.470639 
L 153.400483 350.427393 
L 154.238011 352.898478 
L 154.302783 353.089234 
L 154.433605 353.475434 
L 155.067349 355.344984 
L 155.115992 355.488738 
L 155.242597 355.861472 
L 156.196884 358.677016 
L 156.526848 359.650117 
L 156.67361 360.083717 
L 157.008182 361.070275 
L 157.30775 361.953849 
L 157.515918 362.567865 
L 158.644408 365.897762 
L 159.175191 367.463033 
L 159.826108 367.887249 
L 160.233205 368.152575 
L 160.802581 368.523573 
L 161.688169 369.100792 
L 163.394904 370.213033 
L 167.547964 372.919328 
L 170.657885 374.935363 
L 169.592631 376.722369 
L 168.412054 378.702842 
L 163.422199 387.192293 
L 163.098915 387.742211 
L 161.795956 389.958609 
L 161.716421 390.09439 
L 161.494221 390.472286 
L 160.422347 392.295659 
L 159.354641 394.112259 
L 159.129421 394.495331 
L 159.051193 394.628136 
L 157.372467 397.484641 
L 157.178805 397.814154 
L 155.368527 400.936114 
L 155.038992 401.504449 
L 154.796887 401.921697 
L 153.010398 405.001671 
L 152.701634 405.533979 
L 151.821986 407.050282 
L 151.516813 407.576418 
L 150.023018 410.150189 
L 148.564174 412.664039 
L 147.053202 415.267083 
L 146.584674 416.074313 
L 146.364672 416.453539 
L 145.282396 418.318231 
L 145.079387 418.667998 
L 144.30354 424.388757 
L 144.23359 424.790405 
L 144.04219 425.889611 
L 143.371105 429.745308 
L 143.107687 431.258982 
L 143.024179 431.739142 
L 142.755029 433.286153 
L 142.238111 436.256293 
L 142.16574 436.672537 
L 142.143467 436.80037 
L 142.118052 436.945763 
L 142.026728 437.471491 
L 141.544618 440.24199 
L 141.285019 441.73298 
L 141.218204 442.116677 
L 141.199765 442.222809 
L 140.78169 444.625591 
L 140.717495 444.994687 
L 140.608822 445.658162 
L 140.105669 448.72763 
L 140.027899 449.130042 
L 139.29798 452.902742 
L 139.669257 454.025844 
L 140.010945 455.060385 
L 140.565984 456.740069 
L 140.259325 457.455877 
L 138.46472 461.646554 
L 138.30327 462.200758 
L 138.030495 463.13768 
L 136.7956 467.377671 
L 134.0303 476.872904 
L 133.909496 477.287863 
L 134.344111 477.407345 
L 138.092984 478.438939 
L 139.979743 478.967045 
L 141.197159 479.308156 
L 141.346841 479.349844 
L 141.872424 479.497185 
L 144.292452 480.17483 
L 145.775249 480.578262 
L 146.230143 480.702017 
L 147.733446 481.11109 
L 147.728725 481.128095 
L 149.150093 481.519136 
L 149.593978 481.641368 
L 150.98321 482.023887 
L 150.99145 481.997568 
L 154.205081 482.871873 
L 155.466243 483.215179 
L 155.799115 483.307249 
L 158.224863 483.978513 
L 158.545763 484.069867 
L 159.426804 484.32058 
L 161.898523 485.023654 
L 166.079891 486.170575 
L 168.102017 486.732687 
L 168.521662 486.849176 
L 171.250734 487.891856 
L 173.635535 488.787696 
L 175.894442 489.636215 
L 179.334173 490.928107 
L 179.479826 490.982859 
L 180.047813 491.196295 
L 180.340103 491.305974 
L 182.31955 492.049458 
L 182.893856 492.265114 
L 183.359271 492.439945 
L 184.579425 492.898172 
L 188.798207 494.296688 
L 189.741551 494.609526 
L 190.089426 494.724661 
L 191.133067 495.070854 
L 192.176895 495.416651 
L 192.524778 495.53218 
L 193.81619 495.960155 
L 196.477429 496.638695 
L 203.254087 498.366346 
L 203.355597 498.392402 
L 203.553676 498.44266 
L 204.07461 498.575596 
L 206.813686 499.273866 
L 208.989457 499.828743 
L 209.586665 499.981025 
L 210.061672 500.102205 
L 211.546923 500.754077 
L 211.655249 500.804941 
L 212.323432 501.119157 
L 213.108855 501.488562 
L 213.542157 501.69202 
L 214.224996 502.013186 
L 214.911795 502.336229 
L 215.099137 502.42426 
L 216.15091 502.918471 
L 217.336166 503.475766 
L 218.344176 503.949722 
L 221.641392 505.477581 
L 222.254351 505.758437 
L 229.848783 509.237834 
L 230.995295 509.762986 
L 233.162803 510.756126 
L 233.612221 510.961989 
L 233.758335 511.029119 
L 233.875935 511.082926 
L 234.297633 511.276037 
L 235.728251 511.931705 
L 236.688654 512.371553 
L 236.876559 512.458593 
L 237.479688 512.738496 
L 237.617301 512.802277 
L 239.254805 513.561669 
L 240.230973 514.014536 
L 248.219854 517.719824 
L 248.913065 518.041375 
L 249.996144 518.543777 
L 251.01606 519.016915 
L 251.780149 519.3711 
L 257.233733 521.900766 
L 260.986652 523.641374 
L 261.895281 524.062933 
L 264.80866 525.414079 
L 271.759664 531.486608 
L 271.7619 531.488562 
L 274.301624 533.707075 
L 275.334009 534.213961 
L 276.741824 534.905171 
L 277.082385 535.072378 
L 278.885383 536.376073 
L 281.473765 538.247316 
L 281.769803 538.036825 
L 284.392141 539.991437 
L 284.196745 540.26928 
L 289.500705 544.139688 
L 298.467418 550.683347 
L 302.271315 553.455864 
L 318.746972 564.883931 
L 322.262633 567.323086 
" clip-path="url(#p685eb4b19a)" style="fill: #d3d3d3"/>
   </g>
   <g id="matplotlib.axis_1">
    <g id="xtick_1">
     <g id="line2d_1">
      <defs>
       <path id="m5b72f9753e" d="M 0 0 
L 0 3.5 
" style="stroke: #000000; stroke-width: 0.8"/>
      </defs>
      <g>
       <use xlink:href="#m5b72f9753e" x="126.122252" y="587.695395" style="stroke: #000000; stroke-width: 0.8"/>
      </g>
     </g>
     <g id="text_1">
      <!-- 13.405 -->
      <g transform="translate(108.626939 602.293832) scale(0.1 -0.1)">
       <defs>
        <path id="DejaVuSans-31" d="M 794 531 
L 1825 531 
L 1825 4091 
L 703 3866 
L 703 4441 
L 1819 4666 
L 2450 4666 
L 2450 531 
L 3481 531 
L 3481 0 
L 794 0 
L 794 531 
z
" transform="scale(0.015625)"/>
        <path id="DejaVuSans-33" d="M 2597 2516 
Q 3050 2419 3304 2112 
Q 3559 1806 3559 1356 
Q 3559 666 3084 287 
Q 2609 -91 1734 -91 
Q 1441 -91 1130 -33 
Q 819 25 488 141 
L 488 750 
Q 750 597 1062 519 
Q 1375 441 1716 441 
Q 2309 441 2620 675 
Q 2931 909 2931 1356 
Q 2931 1769 2642 2001 
Q 2353 2234 1838 2234 
L 1294 2234 
L 1294 2753 
L 1863 2753 
Q 2328 2753 2575 2939 
Q 2822 3125 2822 3475 
Q 2822 3834 2567 4026 
Q 2313 4219 1838 4219 
Q 1578 4219 1281 4162 
Q 984 4106 628 3988 
L 628 4550 
Q 988 4650 1302 4700 
Q 1616 4750 1894 4750 
Q 2613 4750 3031 4423 
Q 3450 4097 3450 3541 
Q 3450 3153 3228 2886 
Q 3006 2619 2597 2516 
z
" transform="scale(0.015625)"/>
        <path id="DejaVuSans-2e" d="M 684 794 
L 1344 794 
L 1344 0 
L 684 0 
L 684 794 
z
" transform="scale(0.015625)"/>
        <path id="DejaVuSans-34" d="M 2419 4116 
L 825 1625 
L 2419 1625 
L 2419 4116 
z
M 2253 4666 
L 3047 4666 
L 3047 1625 
L 3713 1625 
L 3713 1100 
L 3047 1100 
L 3047 0 
L 2419 0 
L 2419 1100 
L 313 1100 
L 313 1709 
L 2253 4666 
z
" transform="scale(0.015625)"/>
        <path id="DejaVuSans-30" d="M 2034 4250 
Q 1547 4250 1301 3770 
Q 1056 3291 1056 2328 
Q 1056 1369 1301 889 
Q 1547 409 2034 409 
Q 2525 409 2770 889 
Q 3016 1369 3016 2328 
Q 3016 3291 2770 3770 
Q 2525 4250 2034 4250 
z
M 2034 4750 
Q 2819 4750 3233 4129 
Q 3647 3509 3647 2328 
Q 3647 1150 3233 529 
Q 2819 -91 2034 -91 
Q 1250 -91 836 529 
Q 422 1150 422 2328 
Q 422 3509 836 4129 
Q 1250 4750 2034 4750 
z
" transform="scale(0.015625)"/>
        <path id="DejaVuSans-35" d="M 691 4666 
L 3169 4666 
L 3169 4134 
L 1269 4134 
L 1269 2991 
Q 1406 3038 1543 3061 
Q 1681 3084 1819 3084 
Q 2600 3084 3056 2656 
Q 3513 2228 3513 1497 
Q 3513 744 3044 326 
Q 2575 -91 1722 -91 
Q 1428 -91 1123 -41 
Q 819 9 494 109 
L 494 744 
Q 775 591 1075 516 
Q 1375 441 1709 441 
Q 2250 441 2565 725 
Q 2881 1009 2881 1497 
Q 2881 1984 2565 2268 
Q 2250 2553 1709 2553 
Q 1456 2553 1204 2497 
Q 953 2441 691 2322 
L 691 4666 
z
" transform="scale(0.015625)"/>
       </defs>
       <use xlink:href="#DejaVuSans-31"/>
       <use xlink:href="#DejaVuSans-33" x="63.623047"/>
       <use xlink:href="#DejaVuSans-2e" x="127.246094"/>
       <use xlink:href="#DejaVuSans-34" x="159.033203"/>
       <use xlink:href="#DejaVuSans-30" x="222.65625"/>
       <use xlink:href="#DejaVuSans-35" x="286.279297"/>
      </g>
     </g>
    </g>
    <g id="xtick_2">
     <g id="line2d_2">
      <g>
       <use xlink:href="#m5b72f9753e" x="192.596055" y="587.695395" style="stroke: #000000; stroke-width: 0.8"/>
      </g>
     </g>
     <g id="text_2">
      <!-- 13.410 -->
      <g transform="translate(175.100743 602.293832) scale(0.1 -0.1)">
       <use xlink:href="#DejaVuSans-31"/>
       <use xlink:href="#DejaVuSans-33" x="63.623047"/>
       <use xlink:href="#DejaVuSans-2e" x="127.246094"/>
       <use xlink:href="#DejaVuSans-34" x="159.033203"/>
       <use xlink:href="#DejaVuSans-31" x="222.65625"/>
       <use xlink:href="#DejaVuSans-30" x="286.279297"/>
      </g>
     </g>
    </g>
    <g id="xtick_3">
     <g id="line2d_3">
      <g>
       <use xlink:href="#m5b72f9753e" x="259.069859" y="587.695395" style="stroke: #000000; stroke-width: 0.8"/>
      </g>
     </g>
     <g id="text_3">
      <!-- 13.415 -->
      <g transform="translate(241.574547 602.293832) scale(0.1 -0.1)">
       <use xlink:href="#DejaVuSans-31"/>
       <use xlink:href="#DejaVuSans-33" x="63.623047"/>
       <use xlink:href="#DejaVuSans-2e" x="127.246094"/>
       <use xlink:href="#DejaVuSans-34" x="159.033203"/>
       <use xlink:href="#DejaVuSans-31" x="222.65625"/>
       <use xlink:href="#DejaVuSans-35" x="286.279297"/>
      </g>
     </g>
    </g>
    <g id="xtick_4">
     <g id="line2d_4">
      <g>
       <use xlink:href="#m5b72f9753e" x="325.543663" y="587.695395" style="stroke: #000000; stroke-width: 0.8"/>
      </g>
     </g>
     <g id="text_4">
      <!-- 13.420 -->
      <g transform="translate(308.04835 602.293832) scale(0.1 -0.1)">
       <defs>
        <path id="DejaVuSans-32" d="M 1228 531 
L 3431 531 
L 3431 0 
L 469 0 
L 469 531 
Q 828 903 1448 1529 
Q 2069 2156 2228 2338 
Q 2531 2678 2651 2914 
Q 2772 3150 2772 3378 
Q 2772 3750 2511 3984 
Q 2250 4219 1831 4219 
Q 1534 4219 1204 4116 
Q 875 4013 500 3803 
L 500 4441 
Q 881 4594 1212 4672 
Q 1544 4750 1819 4750 
Q 2544 4750 2975 4387 
Q 3406 4025 3406 3419 
Q 3406 3131 3298 2873 
Q 3191 2616 2906 2266 
Q 2828 2175 2409 1742 
Q 1991 1309 1228 531 
z
" transform="scale(0.015625)"/>
       </defs>
       <use xlink:href="#DejaVuSans-31"/>
       <use xlink:href="#DejaVuSans-33" x="63.623047"/>
       <use xlink:href="#DejaVuSans-2e" x="127.246094"/>
       <use xlink:href="#DejaVuSans-34" x="159.033203"/>
       <use xlink:href="#DejaVuSans-32" x="222.65625"/>
       <use xlink:href="#DejaVuSans-30" x="286.279297"/>
      </g>
     </g>
    </g>
    <g id="xtick_5">
     <g id="line2d_5">
      <g>
       <use xlink:href="#m5b72f9753e" x="392.017467" y="587.695395" style="stroke: #000000; stroke-width: 0.8"/>
      </g>
     </g>
     <g id="text_5">
      <!-- 13.425 -->
      <g transform="translate(374.522154 602.293832) scale(0.1 -0.1)">
       <use xlink:href="#DejaVuSans-31"/>
       <use xlink:href="#DejaVuSans-33" x="63.623047"/>
       <use xlink:href="#DejaVuSans-2e" x="127.246094"/>
       <use xlink:href="#DejaVuSans-34" x="159.033203"/>
       <use xlink:href="#DejaVuSans-32" x="222.65625"/>
       <use xlink:href="#DejaVuSans-35" x="286.279297"/>
      </g>
     </g>
    </g>
    <g id="xtick_6">
     <g id="line2d_6">
      <g>
       <use xlink:href="#m5b72f9753e" x="458.491271" y="587.695395" style="stroke: #000000; stroke-width: 0.8"/>
      </g>
     </g>
     <g id="text_6">
      <!-- 13.430 -->
      <g transform="translate(440.995958 602.293832) scale(0.1 -0.1)">
       <use xlink:href="#DejaVuSans-31"/>
       <use xlink:href="#DejaVuSans-33" x="63.623047"/>
       <use xlink:href="#DejaVuSans-2e" x="127.246094"/>
       <use xlink:href="#DejaVuSans-34" x="159.033203"/>
       <use xlink:href="#DejaVuSans-33" x="222.65625"/>
       <use xlink:href="#DejaVuSans-30" x="286.279297"/>
      </g>
     </g>
    </g>
    <g id="xtick_7">
     <g id="line2d_7">
      <g>
       <use xlink:href="#m5b72f9753e" x="524.965074" y="587.695395" style="stroke: #000000; stroke-width: 0.8"/>
      </g>
     </g>
     <g id="text_7">
      <!-- 13.435 -->
      <g transform="translate(507.469762 602.293832) scale(0.1 -0.1)">
       <use xlink:href="#DejaVuSans-31"/>
       <use xlink:href="#DejaVuSans-33" x="63.623047"/>
       <use xlink:href="#DejaVuSans-2e" x="127.246094"/>
       <use xlink:href="#DejaVuSans-34" x="159.033203"/>
       <use xlink:href="#DejaVuSans-33" x="222.65625"/>
       <use xlink:href="#DejaVuSans-35" x="286.279297"/>
      </g>
     </g>
    </g>
    <g id="xtick_8">
     <g id="line2d_8">
      <g>
       <use xlink:href="#m5b72f9753e" x="591.438878" y="587.695395" style="stroke: #000000; stroke-width: 0.8"/>
      </g>
     </g>
     <g id="text_8">
      <!-- 13.440 -->
      <g transform="translate(573.943566 602.293832) scale(0.1 -0.1)">
       <use xlink:href="#DejaVuSans-31"/>
       <use xlink:href="#DejaVuSans-33" x="63.623047"/>
       <use xlink:href="#DejaVuSans-2e" x="127.246094"/>
       <use xlink:href="#DejaVuSans-34" x="159.033203"/>
       <use xlink:href="#DejaVuSans-34" x="222.65625"/>
       <use xlink:href="#DejaVuSans-30" x="286.279297"/>
      </g>
     </g>
    </g>
   </g>
   <g id="matplotlib.axis_2">
    <g id="ytick_1">
     <g id="line2d_9">
      <defs>
       <path id="mdee44769da" d="M 0 0 
L -3.5 0 
" style="stroke: #000000; stroke-width: 0.8"/>
      </defs>
      <g>
       <use xlink:href="#mdee44769da" x="90" y="579.247928" style="stroke: #000000; stroke-width: 0.8"/>
      </g>
     </g>
     <g id="text_9">
      <!-- 52.5250 -->
      <g transform="translate(41.646875 583.047147) scale(0.1 -0.1)">
       <use xlink:href="#DejaVuSans-35"/>
       <use xlink:href="#DejaVuSans-32" x="63.623047"/>
       <use xlink:href="#DejaVuSans-2e" x="127.246094"/>
       <use xlink:href="#DejaVuSans-35" x="159.033203"/>
       <use xlink:href="#DejaVuSans-32" x="222.65625"/>
       <use xlink:href="#DejaVuSans-35" x="286.279297"/>
       <use xlink:href="#DejaVuSans-30" x="349.902344"/>
      </g>
     </g>
    </g>
    <g id="ytick_2">
     <g id="line2d_10">
      <g>
       <use xlink:href="#mdee44769da" x="90" y="524.606711" style="stroke: #000000; stroke-width: 0.8"/>
      </g>
     </g>
     <g id="text_10">
      <!-- 52.5275 -->
      <g transform="translate(41.646875 528.40593) scale(0.1 -0.1)">
       <defs>
        <path id="DejaVuSans-37" d="M 525 4666 
L 3525 4666 
L 3525 4397 
L 1831 0 
L 1172 0 
L 2766 4134 
L 525 4134 
L 525 4666 
z
" transform="scale(0.015625)"/>
       </defs>
       <use xlink:href="#DejaVuSans-35"/>
       <use xlink:href="#DejaVuSans-32" x="63.623047"/>
       <use xlink:href="#DejaVuSans-2e" x="127.246094"/>
       <use xlink:href="#DejaVuSans-35" x="159.033203"/>
       <use xlink:href="#DejaVuSans-32" x="222.65625"/>
       <use xlink:href="#DejaVuSans-37" x="286.279297"/>
       <use xlink:href="#DejaVuSans-35" x="349.902344"/>
      </g>
     </g>
    </g>
    <g id="ytick_3">
     <g id="line2d_11">
      <g>
       <use xlink:href="#mdee44769da" x="90" y="469.965494" style="stroke: #000000; stroke-width: 0.8"/>
      </g>
     </g>
     <g id="text_11">
      <!-- 52.5300 -->
      <g transform="translate(41.646875 473.764713) scale(0.1 -0.1)">
       <use xlink:href="#DejaVuSans-35"/>
       <use xlink:href="#DejaVuSans-32" x="63.623047"/>
       <use xlink:href="#DejaVuSans-2e" x="127.246094"/>
       <use xlink:href="#DejaVuSans-35" x="159.033203"/>
       <use xlink:href="#DejaVuSans-33" x="222.65625"/>
       <use xlink:href="#DejaVuSans-30" x="286.279297"/>
       <use xlink:href="#DejaVuSans-30" x="349.902344"/>
      </g>
     </g>
    </g>
    <g id="ytick_4">
     <g id="line2d_12">
      <g>
       <use xlink:href="#mdee44769da" x="90" y="415.324277" style="stroke: #000000; stroke-width: 0.8"/>
      </g>
     </g>
     <g id="text_12">
      <!-- 52.5325 -->
      <g transform="translate(41.646875 419.123496) scale(0.1 -0.1)">
       <use xlink:href="#DejaVuSans-35"/>
       <use xlink:href="#DejaVuSans-32" x="63.623047"/>
       <use xlink:href="#DejaVuSans-2e" x="127.246094"/>
       <use xlink:href="#DejaVuSans-35" x="159.033203"/>
       <use xlink:href="#DejaVuSans-33" x="222.65625"/>
       <use xlink:href="#DejaVuSans-32" x="286.279297"/>
       <use xlink:href="#DejaVuSans-35" x="349.902344"/>
      </g>
     </g>
    </g>
    <g id="ytick_5">
     <g id="line2d_13">
      <g>
       <use xlink:href="#mdee44769da" x="90" y="360.68306" style="stroke: #000000; stroke-width: 0.8"/>
      </g>
     </g>
     <g id="text_13">
      <!-- 52.5350 -->
      <g transform="translate(41.646875 364.482279) scale(0.1 -0.1)">
       <use xlink:href="#DejaVuSans-35"/>
       <use xlink:href="#DejaVuSans-32" x="63.623047"/>
       <use xlink:href="#DejaVuSans-2e" x="127.246094"/>
       <use xlink:href="#DejaVuSans-35" x="159.033203"/>
       <use xlink:href="#DejaVuSans-33" x="222.65625"/>
       <use xlink:href="#DejaVuSans-35" x="286.279297"/>
       <use xlink:href="#DejaVuSans-30" x="349.902344"/>
      </g>
     </g>
    </g>
    <g id="ytick_6">
     <g id="line2d_14">
      <g>
       <use xlink:href="#mdee44769da" x="90" y="306.041843" style="stroke: #000000; stroke-width: 0.8"/>
      </g>
     </g>
     <g id="text_14">
      <!-- 52.5375 -->
      <g transform="translate(41.646875 309.841061) scale(0.1 -0.1)">
       <use xlink:href="#DejaVuSans-35"/>
       <use xlink:href="#DejaVuSans-32" x="63.623047"/>
       <use xlink:href="#DejaVuSans-2e" x="127.246094"/>
       <use xlink:href="#DejaVuSans-35" x="159.033203"/>
       <use xlink:href="#DejaVuSans-33" x="222.65625"/>
       <use xlink:href="#DejaVuSans-37" x="286.279297"/>
       <use xlink:href="#DejaVuSans-35" x="349.902344"/>
      </g>
     </g>
    </g>
    <g id="ytick_7">
     <g id="line2d_15">
      <g>
       <use xlink:href="#mdee44769da" x="90" y="251.400626" style="stroke: #000000; stroke-width: 0.8"/>
      </g>
     </g>
     <g id="text_15">
      <!-- 52.5400 -->
      <g transform="translate(41.646875 255.199844) scale(0.1 -0.1)">
       <use xlink:href="#DejaVuSans-35"/>
       <use xlink:href="#DejaVuSans-32" x="63.623047"/>
       <use xlink:href="#DejaVuSans-2e" x="127.246094"/>
       <use xlink:href="#DejaVuSans-35" x="159.033203"/>
       <use xlink:href="#DejaVuSans-34" x="222.65625"/>
       <use xlink:href="#DejaVuSans-30" x="286.279297"/>
       <use xlink:href="#DejaVuSans-30" x="349.902344"/>
      </g>
     </g>
    </g>
    <g id="ytick_8">
     <g id="line2d_16">
      <g>
       <use xlink:href="#mdee44769da" x="90" y="196.759408" style="stroke: #000000; stroke-width: 0.8"/>
      </g>
     </g>
     <g id="text_16">
      <!-- 52.5425 -->
      <g transform="translate(41.646875 200.558627) scale(0.1 -0.1)">
       <use xlink:href="#DejaVuSans-35"/>
       <use xlink:href="#DejaVuSans-32" x="63.623047"/>
       <use xlink:href="#DejaVuSans-2e" x="127.246094"/>
       <use xlink:href="#DejaVuSans-35" x="159.033203"/>
       <use xlink:href="#DejaVuSans-34" x="222.65625"/>
       <use xlink:href="#DejaVuSans-32" x="286.279297"/>
       <use xlink:href="#DejaVuSans-35" x="349.902344"/>
      </g>
     </g>
    </g>
    <g id="ytick_9">
     <g id="line2d_17">
      <g>
       <use xlink:href="#mdee44769da" x="90" y="142.118191" style="stroke: #000000; stroke-width: 0.8"/>
      </g>
     </g>
     <g id="text_17">
      <!-- 52.5450 -->
      <g transform="translate(41.646875 145.91741) scale(0.1 -0.1)">
       <use xlink:href="#DejaVuSans-35"/>
       <use xlink:href="#DejaVuSans-32" x="63.623047"/>
       <use xlink:href="#DejaVuSans-2e" x="127.246094"/>
       <use xlink:href="#DejaVuSans-35" x="159.033203"/>
       <use xlink:href="#DejaVuSans-34" x="222.65625"/>
       <use xlink:href="#DejaVuSans-35" x="286.279297"/>
       <use xlink:href="#DejaVuSans-30" x="349.902344"/>
      </g>
     </g>
    </g>
   </g>
   <g id="LineCollection_1">
    <path d="M 228.269887 434.67601 
L 228.683354 434.129598 
L 230.194968 432.127544 
L 231.577623 430.29597 
L 233.157041 428.217418 
L 235.536803 425.083198 
L 238.880436 420.679116 
L 239.178238 420.285699 
L 240.334882 418.701104 
" clip-path="url(#p685eb4b19a)" style="fill: none; stroke: #ff0000; stroke-opacity: 0.7; stroke-width: 0.5"/>
    <path d="M 438.85225 428.45784 
L 445.796103 433.233482 
L 462.917096 445.011943 
L 464.02322 445.735393 
L 465.31946 446.579053 
L 471.76476 450.998435 
L 488.432401 462.429377 
L 489.712687 463.308008 
L 491.244243 464.335263 
L 498.501853 469.200517 
L 503.938081 472.841808 
L 512.281873 478.434883 
L 513.637938 479.341927 
" clip-path="url(#p685eb4b19a)" style="fill: none; stroke: #ff0000; stroke-opacity: 0.7; stroke-width: 0.5"/>
    <path d="M 438.317801 297.998655 
L 439.294965 296.365976 
L 439.717739 295.622855 
L 444.628823 286.934902 
L 447.206678 282.242314 
L 448.105403 280.707989 
L 449.856323 277.722393 
L 456.439889 265.974531 
L 456.676536 265.552701 
" clip-path="url(#p685eb4b19a)" style="fill: none; stroke: #ff0000; stroke-opacity: 0.7; stroke-width: 0.5"/>
    <path d="M 548.714835 256.58717 
L 545.076059 254.484576 
L 541.438612 252.414766 
L 540.594395 251.936109 
L 537.685501 250.277202 
L 537.456831 250.148249 
L 532.802336 247.499243 
L 532.414129 247.278492 
L 529.191479 245.444733 
L 526.136343 243.704956 
L 521.09231 240.8352 
L 520.856993 240.701875 
L 517.621048 238.859373 
" clip-path="url(#p685eb4b19a)" style="fill: none; stroke: #ff0000; stroke-opacity: 0.7; stroke-width: 0.5"/>
    <path d="M 499.657168 244.421849 
L 498.596246 239.576266 
L 498.344975 238.57961 
L 498.165496 237.714093 
L 495.994461 231.259873 
L 495.464 230.595436 
L 494.936198 230.143006 
L 483.045364 223.334711 
L 480.842422 221.872512 
" clip-path="url(#p685eb4b19a)" style="fill: none; stroke: #ff0000; stroke-opacity: 0.7; stroke-width: 0.5"/>
    <path d="M 619.942845 446.775761 
L 615.410661 451.431193 
L 607.635885 459.629561 
L 604.2989 463.141899 
L 595.31696 472.835251 
L 579.311397 489.478965 
L 576.669728 492.22414 
L 574.238117 494.689552 
L 572.142862 495.078597 
" clip-path="url(#p685eb4b19a)" style="fill: none; stroke: #ff0000; stroke-opacity: 0.7; stroke-width: 0.5"/>
    <path d="M 472.928051 236.199439 
L 481.024561 240.58385 
L 479.617975 243.088604 
L 473.536951 253.986248 
L 472.747242 255.400363 
L 471.022912 258.549882 
" clip-path="url(#p685eb4b19a)" style="fill: none; stroke: #ff0000; stroke-opacity: 0.7; stroke-width: 0.5"/>
    <path d="M 471.022912 258.549882 
L 478.174164 262.479679 
L 479.330808 262.562733 
L 480.272077 261.909224 
L 483.239468 256.628697 
L 488.716909 247.009657 
L 488.845868 246.520072 
L 488.833903 245.88842 
L 488.462979 244.764996 
L 487.379456 243.945378 
L 481.024561 240.58385 
" clip-path="url(#p685eb4b19a)" style="fill: none; stroke: #ff0000; stroke-opacity: 0.7; stroke-width: 0.5"/>
    <path d="M 298.240213 326.353076 
L 298.987378 328.138751 
L 296.385594 332.040134 
L 295.09999 333.976618 
L 294.794211 334.444347 
L 290.341795 340.857041 
L 290.093183 341.215487 
L 289.929658 341.403453 
L 286.859898 345.971458 
L 286.06753 345.988944 
L 285.83886 346.332091 
L 285.549034 346.76922 
L 285.315046 347.12111 
L 283.641236 344.246982 
L 283.129388 343.350866 
L 275.986113 330.842398 
L 275.797327 330.512365 
L 274.362822 327.998869 
L 277.193277 327.340989 
L 277.554895 327.257934 
L 286.982209 325.065729 
L 287.685502 324.903991 
L 289.074805 324.580515 
L 291.942485 325.137855 
L 293.127048 325.367348 
L 298.240213 326.353076 
" clip-path="url(#p685eb4b19a)" style="fill: none; stroke: #ff0000; stroke-opacity: 0.7; stroke-width: 0.5"/>
    <path d="M 490.733724 407.8887 
L 492.11372 408.878799 
L 517.099894 426.792376 
L 518.305729 427.657892 
L 519.69769 428.663291 
L 538.269141 442.251469 
L 539.565381 443.267795 
L 540.928094 444.264451 
L 562.783351 460.114775 
L 564.644617 461.373709 
L 566.1097 462.315724 
L 566.66675 462.643571 
" clip-path="url(#p685eb4b19a)" style="fill: none; stroke: #ff0000; stroke-opacity: 0.7; stroke-width: 0.5"/>
    <path d="M 515.902036 262.304827 
L 515.045853 259.083181 
L 512.477306 249.722047 
L 509.834307 240.172948 
" clip-path="url(#p685eb4b19a)" style="fill: none; stroke: #ff0000; stroke-opacity: 0.7; stroke-width: 0.5"/>
    <path d="M 511.891007 263.463221 
L 513.47973 263.004234 
L 515.902036 262.304827 
" clip-path="url(#p685eb4b19a)" style="fill: none; stroke: #ff0000; stroke-opacity: 0.7; stroke-width: 0.5"/>
    <path d="M 499.657168 244.421849 
L 499.738266 245.964917 
L 500.797858 250.198519 
L 501.19803 251.420296 
L 502.794731 252.451923 
L 504.775651 253.610316 
L 506.065242 254.545774 
L 506.828362 255.428776 
L 507.027783 256.187196 
L 508.351941 261.233859 
L 508.713559 262.385696 
L 509.727949 263.159415 
L 511.891007 263.463221 
" clip-path="url(#p685eb4b19a)" style="fill: none; stroke: #ff0000; stroke-opacity: 0.7; stroke-width: 0.5"/>
    <path d="M 466.192925 248.019427 
L 472.928051 236.199439 
L 474.496833 233.30564 
L 474.629781 233.058662 
L 477.635726 227.550827 
" clip-path="url(#p685eb4b19a)" style="fill: none; stroke: #ff0000; stroke-opacity: 0.7; stroke-width: 0.5"/>
    <path d="M 456.676536 265.552701 
L 458.322427 266.496901 
L 461.190107 268.079311 
L 464.219983 269.277046 
L 464.88605 269.618007 
" clip-path="url(#p685eb4b19a)" style="fill: none; stroke: #ff0000; stroke-opacity: 0.7; stroke-width: 0.5"/>
    <path d="M 569.829574 465.653209 
L 571.847719 467.401728 
" clip-path="url(#p685eb4b19a)" style="fill: none; stroke: #ff0000; stroke-opacity: 0.7; stroke-width: 0.5"/>
    <path d="M 262.344359 386.860574 
L 262.789733 386.200508 
L 264.902271 383.061917 
L 265.465969 382.222628 
L 267.13712 379.739731 
L 267.599778 379.053437 
L 270.301273 375.0384 
L 270.79185 374.310579 
L 271.903292 372.660415 
L 272.732885 371.425523 
L 274.797561 368.359058 
L 279.214081 361.795555 
L 284.107882 354.526087 
L 285.02655 353.391736 
" clip-path="url(#p685eb4b19a)" style="fill: none; stroke: #ff0000; stroke-opacity: 0.7; stroke-width: 0.5"/>
    <path d="M 297.801486 334.468389 
L 298.296051 333.720898 
L 299.781076 331.476236 
L 302.171474 327.863359 
" clip-path="url(#p685eb4b19a)" style="fill: none; stroke: #ff0000; stroke-opacity: 0.7; stroke-width: 0.5"/>
    <path d="M 303.570082 325.644926 
L 304.524646 324.241739 
L 307.510649 319.866071 
L 309.737522 316.600711 
L 311.79688 313.582331 
L 312.022891 313.250112 
L 314.013117 310.334457 
L 314.255082 309.980382 
L 316.259932 307.040684 
L 316.447388 306.765292 
L 318.493451 303.766582 
L 318.647671 303.541461 
L 324.757943 294.584672 
" clip-path="url(#p685eb4b19a)" style="fill: none; stroke: #ff0000; stroke-opacity: 0.7; stroke-width: 0.5"/>
    <path d="M 285.727184 352.279241 
L 286.57539 351.022493 
L 290.813759 344.740938 
L 292.192426 342.697357 
L 293.257336 341.145546 
L 295.803283 337.432129 
L 297.143395 335.478159 
L 297.801486 334.468389 
" clip-path="url(#p685eb4b19a)" style="fill: none; stroke: #ff0000; stroke-opacity: 0.7; stroke-width: 0.5"/>
    <path d="M 517.621048 238.859373 
L 517.024114 238.642994 
L 514.660305 238.824403 
L 509.834307 240.172948 
" clip-path="url(#p685eb4b19a)" style="fill: none; stroke: #ff0000; stroke-opacity: 0.7; stroke-width: 0.5"/>
    <path d="M 568.094608 464.027087 
L 568.514722 464.420503 
L 569.013276 464.888232 
L 569.829574 465.653209 
" clip-path="url(#p685eb4b19a)" style="fill: none; stroke: #ff0000; stroke-opacity: 0.7; stroke-width: 0.5"/>
    <path d="M 566.66675 462.643571 
L 568.094608 464.027087 
" clip-path="url(#p685eb4b19a)" style="fill: none; stroke: #ff0000; stroke-opacity: 0.7; stroke-width: 0.5"/>
    <path d="M 285.02655 353.391736 
L 285.727184 352.279241 
" clip-path="url(#p685eb4b19a)" style="fill: none; stroke: #ff0000; stroke-opacity: 0.7; stroke-width: 0.5"/>
    <path d="M 504.887327 241.506194 
L 503.452822 241.893054 
L 500.522657 242.876596 
L 499.657168 244.421849 
" clip-path="url(#p685eb4b19a)" style="fill: none; stroke: #ff0000; stroke-opacity: 0.7; stroke-width: 0.5"/>
    <path d="M 509.834307 240.172948 
L 504.887327 241.506194 
" clip-path="url(#p685eb4b19a)" style="fill: none; stroke: #ff0000; stroke-opacity: 0.7; stroke-width: 0.5"/>
    <path d="M 344.596385 264.916677 
L 344.793147 264.663142 
L 344.983262 264.30251 
L 346.088057 262.237072 
" clip-path="url(#p685eb4b19a)" style="fill: none; stroke: #ff0000; stroke-opacity: 0.7; stroke-width: 0.5"/>
    <path d="M 456.676536 265.552701 
L 457.443643 264.145143 
L 466.192925 248.019427 
" clip-path="url(#p685eb4b19a)" style="fill: none; stroke: #ff0000; stroke-opacity: 0.7; stroke-width: 0.5"/>
    <path d="M 471.022912 258.549882 
L 468.086099 263.832595 
L 466.76593 266.214952 
L 464.88605 269.618007 
" clip-path="url(#p685eb4b19a)" style="fill: none; stroke: #ff0000; stroke-opacity: 0.7; stroke-width: 0.5"/>
    <path d="M 513.483719 483.721967 
L 513.604701 484.399518 
L 513.676493 484.777635 
L 514.042099 486.635437 
" clip-path="url(#p685eb4b19a)" style="fill: none; stroke: #ff0000; stroke-opacity: 0.7; stroke-width: 0.5"/>
    <path d="M 328.963075 288.611294 
L 331.421277 284.886949 
L 332.499482 283.252084 
L 333.555086 281.652189 
L 337.766866 275.267909 
L 339.535069 272.588304 
L 341.888242 269.021325 
L 344.596385 264.916677 
" clip-path="url(#p685eb4b19a)" style="fill: none; stroke: #ff0000; stroke-opacity: 0.7; stroke-width: 0.5"/>
    <path d="M 436.774279 427.028426 
L 438.26728 428.05568 
L 438.85225 428.45784 
" clip-path="url(#p685eb4b19a)" style="fill: none; stroke: #ff0000; stroke-opacity: 0.7; stroke-width: 0.5"/>
    <path d="M 477.635726 227.550827 
L 477.845783 227.168339 
L 479.717686 223.732499 
L 480.842422 221.872512 
" clip-path="url(#p685eb4b19a)" style="fill: none; stroke: #ff0000; stroke-opacity: 0.7; stroke-width: 0.5"/>
    <path d="M 242.392911 416.157009 
L 243.397995 414.731966 
L 244.04545 413.78558 
" clip-path="url(#p685eb4b19a)" style="fill: none; stroke: #ff0000; stroke-opacity: 0.7; stroke-width: 0.5"/>
    <path d="M 244.04545 413.78558 
L 246.613998 410.026264 
L 248.388848 407.427528 
L 248.568328 407.16525 
L 252.818663 400.94708 
L 253.843689 399.445539 
L 256.304549 395.845776 
L 259.698701 390.823155 
" clip-path="url(#p685eb4b19a)" style="fill: none; stroke: #ff0000; stroke-opacity: 0.7; stroke-width: 0.5"/>
    <path d="M 259.698701 390.823155 
L 259.951302 390.449409 
L 260.766271 389.201404 
L 261.754071 387.737019 
L 262.344359 386.860574 
" clip-path="url(#p685eb4b19a)" style="fill: none; stroke: #ff0000; stroke-opacity: 0.7; stroke-width: 0.5"/>
    <path d="M 302.171474 327.863359 
L 302.522455 327.332246 
L 303.570082 325.644926 
" clip-path="url(#p685eb4b19a)" style="fill: none; stroke: #ff0000; stroke-opacity: 0.7; stroke-width: 0.5"/>
    <path d="M 324.757943 294.584672 
L 326.161869 292.527977 
L 327.228109 291.072335 
" clip-path="url(#p685eb4b19a)" style="fill: none; stroke: #ff0000; stroke-opacity: 0.7; stroke-width: 0.5"/>
    <path d="M 327.228109 291.072335 
L 328.021806 289.883342 
L 328.963075 288.611294 
" clip-path="url(#p685eb4b19a)" style="fill: none; stroke: #ff0000; stroke-opacity: 0.7; stroke-width: 0.5"/>
    <path d="M 515.245275 483.335107 
L 514.690883 480.43038 
L 513.637938 479.341927 
" clip-path="url(#p685eb4b19a)" style="fill: none; stroke: #ff0000; stroke-opacity: 0.7; stroke-width: 0.5"/>
    <path d="M 513.637938 479.341927 
L 512.916033 480.782269 
L 513.483719 483.721967 
" clip-path="url(#p685eb4b19a)" style="fill: none; stroke: #ff0000; stroke-opacity: 0.7; stroke-width: 0.5"/>
    <path d="M 515.778395 486.290104 
L 515.443367 484.427931 
L 515.245275 483.335107 
" clip-path="url(#p685eb4b19a)" style="fill: none; stroke: #ff0000; stroke-opacity: 0.7; stroke-width: 0.5"/>
    <path d="M 622.636364 444.655682 
L 620.464 446.240278 
L 619.942845 446.775761 
" clip-path="url(#p685eb4b19a)" style="fill: none; stroke: #ff0000; stroke-opacity: 0.7; stroke-width: 0.5"/>
   </g>
   <g id="patch_3">
    <path d="M 90 587.695395 
L 90 139.504605 
" style="fill: none; stroke: #000000; stroke-width: 0.8; stroke-linejoin: miter; stroke-linecap: square"/>
   </g>
   <g id="patch_4">
    <path d="M 648 587.695395 
L 648 139.504605 
" style="fill: none; stroke: #000000; stroke-width: 0.8; stroke-linejoin: miter; stroke-linecap: square"/>
   </g>
   <g id="patch_5">
    <path d="M 90 587.695395 
L 648 587.695395 
" style="fill: none; stroke: #000000; stroke-width: 0.8; stroke-linejoin: miter; stroke-linecap: square"/>
   </g>
   <g id="patch_6">
    <path d="M 90 139.504605 
L 648 139.504605 
" style="fill: none; stroke: #000000; stroke-width: 0.8; stroke-linejoin: miter; stroke-linecap: square"/>
   </g>
   <g id="text_18">
    <!-- Südlicher_Prenzlauer_Berg -->
    <g transform="translate(272.83372 375.48128) scale(0.12 -0.12)">
     <defs>
      <path id="DejaVuSans-53" d="M 3425 4513 
L 3425 3897 
Q 3066 4069 2747 4153 
Q 2428 4238 2131 4238 
Q 1616 4238 1336 4038 
Q 1056 3838 1056 3469 
Q 1056 3159 1242 3001 
Q 1428 2844 1947 2747 
L 2328 2669 
Q 3034 2534 3370 2195 
Q 3706 1856 3706 1288 
Q 3706 609 3251 259 
Q 2797 -91 1919 -91 
Q 1588 -91 1214 -16 
Q 841 59 441 206 
L 441 856 
Q 825 641 1194 531 
Q 1563 422 1919 422 
Q 2459 422 2753 634 
Q 3047 847 3047 1241 
Q 3047 1584 2836 1778 
Q 2625 1972 2144 2069 
L 1759 2144 
Q 1053 2284 737 2584 
Q 422 2884 422 3419 
Q 422 4038 858 4394 
Q 1294 4750 2059 4750 
Q 2388 4750 2728 4690 
Q 3069 4631 3425 4513 
z
" transform="scale(0.015625)"/>
      <path id="DejaVuSans-fc" d="M 544 1381 
L 544 3500 
L 1119 3500 
L 1119 1403 
Q 1119 906 1312 657 
Q 1506 409 1894 409 
Q 2359 409 2629 706 
Q 2900 1003 2900 1516 
L 2900 3500 
L 3475 3500 
L 3475 0 
L 2900 0 
L 2900 538 
Q 2691 219 2414 64 
Q 2138 -91 1772 -91 
Q 1169 -91 856 284 
Q 544 659 544 1381 
z
M 1991 3584 
L 1991 3584 
z
M 2278 4850 
L 2913 4850 
L 2913 4219 
L 2278 4219 
L 2278 4850 
z
M 1056 4850 
L 1691 4850 
L 1691 4219 
L 1056 4219 
L 1056 4850 
z
" transform="scale(0.015625)"/>
      <path id="DejaVuSans-64" d="M 2906 2969 
L 2906 4863 
L 3481 4863 
L 3481 0 
L 2906 0 
L 2906 525 
Q 2725 213 2448 61 
Q 2172 -91 1784 -91 
Q 1150 -91 751 415 
Q 353 922 353 1747 
Q 353 2572 751 3078 
Q 1150 3584 1784 3584 
Q 2172 3584 2448 3432 
Q 2725 3281 2906 2969 
z
M 947 1747 
Q 947 1113 1208 752 
Q 1469 391 1925 391 
Q 2381 391 2643 752 
Q 2906 1113 2906 1747 
Q 2906 2381 2643 2742 
Q 2381 3103 1925 3103 
Q 1469 3103 1208 2742 
Q 947 2381 947 1747 
z
" transform="scale(0.015625)"/>
      <path id="DejaVuSans-6c" d="M 603 4863 
L 1178 4863 
L 1178 0 
L 603 0 
L 603 4863 
z
" transform="scale(0.015625)"/>
      <path id="DejaVuSans-69" d="M 603 3500 
L 1178 3500 
L 1178 0 
L 603 0 
L 603 3500 
z
M 603 4863 
L 1178 4863 
L 1178 4134 
L 603 4134 
L 603 4863 
z
" transform="scale(0.015625)"/>
      <path id="DejaVuSans-63" d="M 3122 3366 
L 3122 2828 
Q 2878 2963 2633 3030 
Q 2388 3097 2138 3097 
Q 1578 3097 1268 2742 
Q 959 2388 959 1747 
Q 959 1106 1268 751 
Q 1578 397 2138 397 
Q 2388 397 2633 464 
Q 2878 531 3122 666 
L 3122 134 
Q 2881 22 2623 -34 
Q 2366 -91 2075 -91 
Q 1284 -91 818 406 
Q 353 903 353 1747 
Q 353 2603 823 3093 
Q 1294 3584 2113 3584 
Q 2378 3584 2631 3529 
Q 2884 3475 3122 3366 
z
" transform="scale(0.015625)"/>
      <path id="DejaVuSans-68" d="M 3513 2113 
L 3513 0 
L 2938 0 
L 2938 2094 
Q 2938 2591 2744 2837 
Q 2550 3084 2163 3084 
Q 1697 3084 1428 2787 
Q 1159 2491 1159 1978 
L 1159 0 
L 581 0 
L 581 4863 
L 1159 4863 
L 1159 2956 
Q 1366 3272 1645 3428 
Q 1925 3584 2291 3584 
Q 2894 3584 3203 3211 
Q 3513 2838 3513 2113 
z
" transform="scale(0.015625)"/>
      <path id="DejaVuSans-65" d="M 3597 1894 
L 3597 1613 
L 953 1613 
Q 991 1019 1311 708 
Q 1631 397 2203 397 
Q 2534 397 2845 478 
Q 3156 559 3463 722 
L 3463 178 
Q 3153 47 2828 -22 
Q 2503 -91 2169 -91 
Q 1331 -91 842 396 
Q 353 884 353 1716 
Q 353 2575 817 3079 
Q 1281 3584 2069 3584 
Q 2775 3584 3186 3129 
Q 3597 2675 3597 1894 
z
M 3022 2063 
Q 3016 2534 2758 2815 
Q 2500 3097 2075 3097 
Q 1594 3097 1305 2825 
Q 1016 2553 972 2059 
L 3022 2063 
z
" transform="scale(0.015625)"/>
      <path id="DejaVuSans-72" d="M 2631 2963 
Q 2534 3019 2420 3045 
Q 2306 3072 2169 3072 
Q 1681 3072 1420 2755 
Q 1159 2438 1159 1844 
L 1159 0 
L 581 0 
L 581 3500 
L 1159 3500 
L 1159 2956 
Q 1341 3275 1631 3429 
Q 1922 3584 2338 3584 
Q 2397 3584 2469 3576 
Q 2541 3569 2628 3553 
L 2631 2963 
z
" transform="scale(0.015625)"/>
      <path id="DejaVuSans-5f" d="M 3263 -1063 
L 3263 -1509 
L -63 -1509 
L -63 -1063 
L 3263 -1063 
z
" transform="scale(0.015625)"/>
      <path id="DejaVuSans-50" d="M 1259 4147 
L 1259 2394 
L 2053 2394 
Q 2494 2394 2734 2622 
Q 2975 2850 2975 3272 
Q 2975 3691 2734 3919 
Q 2494 4147 2053 4147 
L 1259 4147 
z
M 628 4666 
L 2053 4666 
Q 2838 4666 3239 4311 
Q 3641 3956 3641 3272 
Q 3641 2581 3239 2228 
Q 2838 1875 2053 1875 
L 1259 1875 
L 1259 0 
L 628 0 
L 628 4666 
z
" transform="scale(0.015625)"/>
      <path id="DejaVuSans-6e" d="M 3513 2113 
L 3513 0 
L 2938 0 
L 2938 2094 
Q 2938 2591 2744 2837 
Q 2550 3084 2163 3084 
Q 1697 3084 1428 2787 
Q 1159 2491 1159 1978 
L 1159 0 
L 581 0 
L 581 3500 
L 1159 3500 
L 1159 2956 
Q 1366 3272 1645 3428 
Q 1925 3584 2291 3584 
Q 2894 3584 3203 3211 
Q 3513 2838 3513 2113 
z
" transform="scale(0.015625)"/>
      <path id="DejaVuSans-7a" d="M 353 3500 
L 3084 3500 
L 3084 2975 
L 922 459 
L 3084 459 
L 3084 0 
L 275 0 
L 275 525 
L 2438 3041 
L 353 3041 
L 353 3500 
z
" transform="scale(0.015625)"/>
      <path id="DejaVuSans-61" d="M 2194 1759 
Q 1497 1759 1228 1600 
Q 959 1441 959 1056 
Q 959 750 1161 570 
Q 1363 391 1709 391 
Q 2188 391 2477 730 
Q 2766 1069 2766 1631 
L 2766 1759 
L 2194 1759 
z
M 3341 1997 
L 3341 0 
L 2766 0 
L 2766 531 
Q 2569 213 2275 61 
Q 1981 -91 1556 -91 
Q 1019 -91 701 211 
Q 384 513 384 1019 
Q 384 1609 779 1909 
Q 1175 2209 1959 2209 
L 2766 2209 
L 2766 2266 
Q 2766 2663 2505 2880 
Q 2244 3097 1772 3097 
Q 1472 3097 1187 3025 
Q 903 2953 641 2809 
L 641 3341 
Q 956 3463 1253 3523 
Q 1550 3584 1831 3584 
Q 2591 3584 2966 3190 
Q 3341 2797 3341 1997 
z
" transform="scale(0.015625)"/>
      <path id="DejaVuSans-75" d="M 544 1381 
L 544 3500 
L 1119 3500 
L 1119 1403 
Q 1119 906 1312 657 
Q 1506 409 1894 409 
Q 2359 409 2629 706 
Q 2900 1003 2900 1516 
L 2900 3500 
L 3475 3500 
L 3475 0 
L 2900 0 
L 2900 538 
Q 2691 219 2414 64 
Q 2138 -91 1772 -91 
Q 1169 -91 856 284 
Q 544 659 544 1381 
z
M 1991 3584 
L 1991 3584 
z
" transform="scale(0.015625)"/>
      <path id="DejaVuSans-42" d="M 1259 2228 
L 1259 519 
L 2272 519 
Q 2781 519 3026 730 
Q 3272 941 3272 1375 
Q 3272 1813 3026 2020 
Q 2781 2228 2272 2228 
L 1259 2228 
z
M 1259 4147 
L 1259 2741 
L 2194 2741 
Q 2656 2741 2882 2914 
Q 3109 3088 3109 3444 
Q 3109 3797 2882 3972 
Q 2656 4147 2194 4147 
L 1259 4147 
z
M 628 4666 
L 2241 4666 
Q 2963 4666 3353 4366 
Q 3744 4066 3744 3513 
Q 3744 3084 3544 2831 
Q 3344 2578 2956 2516 
Q 3422 2416 3680 2098 
Q 3938 1781 3938 1306 
Q 3938 681 3513 340 
Q 3088 0 2303 0 
L 628 0 
L 628 4666 
z
" transform="scale(0.015625)"/>
      <path id="DejaVuSans-67" d="M 2906 1791 
Q 2906 2416 2648 2759 
Q 2391 3103 1925 3103 
Q 1463 3103 1205 2759 
Q 947 2416 947 1791 
Q 947 1169 1205 825 
Q 1463 481 1925 481 
Q 2391 481 2648 825 
Q 2906 1169 2906 1791 
z
M 3481 434 
Q 3481 -459 3084 -895 
Q 2688 -1331 1869 -1331 
Q 1566 -1331 1297 -1286 
Q 1028 -1241 775 -1147 
L 775 -588 
Q 1028 -725 1275 -790 
Q 1522 -856 1778 -856 
Q 2344 -856 2625 -561 
Q 2906 -266 2906 331 
L 2906 616 
Q 2728 306 2450 153 
Q 2172 0 1784 0 
Q 1141 0 747 490 
Q 353 981 353 1791 
Q 353 2603 747 3093 
Q 1141 3584 1784 3584 
Q 2172 3584 2450 3431 
Q 2728 3278 2906 2969 
L 2906 3500 
L 3481 3500 
L 3481 434 
z
" transform="scale(0.015625)"/>
     </defs>
     <use xlink:href="#DejaVuSans-53"/>
     <use xlink:href="#DejaVuSans-fc" x="63.476562"/>
     <use xlink:href="#DejaVuSans-64" x="126.855469"/>
     <use xlink:href="#DejaVuSans-6c" x="190.332031"/>
     <use xlink:href="#DejaVuSans-69" x="218.115234"/>
     <use xlink:href="#DejaVuSans-63" x="245.898438"/>
     <use xlink:href="#DejaVuSans-68" x="300.878906"/>
     <use xlink:href="#DejaVuSans-65" x="364.257812"/>
     <use xlink:href="#DejaVuSans-72" x="425.78125"/>
     <use xlink:href="#DejaVuSans-5f" x="466.894531"/>
     <use xlink:href="#DejaVuSans-50" x="516.894531"/>
     <use xlink:href="#DejaVuSans-72" x="575.447266"/>
     <use xlink:href="#DejaVuSans-65" x="614.310547"/>
     <use xlink:href="#DejaVuSans-6e" x="675.833984"/>
     <use xlink:href="#DejaVuSans-7a" x="739.212891"/>
     <use xlink:href="#DejaVuSans-6c" x="791.703125"/>
     <use xlink:href="#DejaVuSans-61" x="819.486328"/>
     <use xlink:href="#DejaVuSans-75" x="880.765625"/>
     <use xlink:href="#DejaVuSans-65" x="944.144531"/>
     <use xlink:href="#DejaVuSans-72" x="1005.667969"/>
     <use xlink:href="#DejaVuSans-5f" x="1046.78125"/>
     <use xlink:href="#DejaVuSans-42" x="1096.78125"/>
     <use xlink:href="#DejaVuSans-65" x="1165.384766"/>
     <use xlink:href="#DejaVuSans-72" x="1226.908203"/>
     <use xlink:href="#DejaVuSans-67" x="1266.271484"/>
    </g>
   </g>
  </g>
 </g>
 <defs>
  <clipPath id="p685eb4b19a">
   <rect x="90" y="139.504605" width="558" height="448.190789"/>
  </clipPath>
 </defs>
</svg>
