<?xml version="1.0" encoding="utf-8" standalone="no"?>
<!DOCTYPE svg PUBLIC "-//W3C//DTD SVG 1.1//EN"
  "http://www.w3.org/Graphics/SVG/1.1/DTD/svg11.dtd">
<svg xmlns:xlink="http://www.w3.org/1999/xlink" width="720pt" height="720pt" viewBox="0 0 720 720" xmlns="http://www.w3.org/2000/svg" version="1.1">
 <metadata>
  <rdf:RDF xmlns:dc="http://purl.org/dc/elements/1.1/" xmlns:cc="http://creativecommons.org/ns#" xmlns:rdf="http://www.w3.org/1999/02/22-rdf-syntax-ns#">
   <cc:Work>
    <dc:type rdf:resource="http://purl.org/dc/dcmitype/StillImage"/>
    <dc:date>2024-10-15T13:04:01.758749</dc:date>
    <dc:format>image/svg+xml</dc:format>
    <dc:creator>
     <cc:Agent>
      <dc:title>Matplotlib v3.9.2, https://matplotlib.org/</dc:title>
     </cc:Agent>
    </dc:creator>
   </cc:Work>
  </rdf:RDF>
 </metadata>
 <defs>
  <style type="text/css">*{stroke-linejoin: round; stroke-linecap: butt}</style>
 </defs>
 <g id="figure_1">
  <g id="patch_1">
   <path d="M 0 720 
L 720 720 
L 720 0 
L 0 0 
z
" style="fill: #ffffff"/>
  </g>
  <g id="axes_1">
   <g id="patch_2">
    <path d="M 90 538.331156 
L 648 538.331156 
L 648 188.868844 
L 90 188.868844 
z
" style="fill: #ffffff"/>
   </g>
   <g id="PatchCollection_1">
    <path d="M 607.491496 219.234441 
L 607.219263 219.162466 
L 604.53679 218.456126 
L 595.318073 215.979373 
L 595.08995 215.919989 
L 594.860758 215.860328 
L 594.619563 215.786517 
L 593.937841 215.576693 
L 593.287737 215.360014 
L 592.641604 215.128794 
L 592.020133 214.917386 
L 591.392675 214.72084 
L 590.77908 214.53197 
L 589.710397 214.20319 
L 589.194955 214.044921 
L 588.451838 213.816214 
L 587.371667 213.483736 
L 583.476858 212.285435 
L 582.799012 212.076881 
L 581.997838 211.829558 
L 581.385208 211.641105 
L 580.770243 211.452304 
L 580.191018 211.274138 
L 579.633383 211.102619 
L 577.389335 210.412898 
L 577.330225 211.174738 
L 577.016273 211.630186 
L 576.722589 212.056233 
L 576.208225 211.392081 
L 575.7045 210.741672 
L 574.886646 209.66574 
L 574.397782 209.838712 
L 573.427041 210.182097 
L 572.116089 210.644771 
L 571.512407 210.857816 
L 571.058421 211.018896 
L 570.382829 211.258028 
L 569.352315 211.622809 
L 568.392223 211.962426 
L 567.692336 212.210013 
L 567.240317 212.367006 
L 565.471101 213.007401 
L 565.164417 213.116144 
L 564.161236 213.472847 
L 562.825463 213.945503 
L 562.127993 214.194811 
L 561.259047 214.505326 
L 561.122241 214.551999 
L 560.771704 214.671618 
L 559.046164 215.206252 
L 558.402389 215.405683 
L 557.84591 215.578391 
L 557.400436 215.716451 
L 556.931259 215.862538 
L 556.594375 215.972151 
L 555.813815 216.149297 
L 554.5546 216.419527 
L 554.414268 216.449578 
L 553.506726 216.643908 
L 552.901352 216.774013 
L 551.913002 216.985641 
L 551.176392 217.14407 
L 551.079523 217.240032 
L 551.088526 216.870484 
L 550.274726 217.018505 
L 550.28022 216.759334 
L 549.064897 216.984198 
L 549.064438 217.024349 
L 547.646432 217.293124 
L 546.449463 217.518514 
L 546.038227 217.597787 
L 545.211333 217.754652 
L 543.786759 218.024462 
L 543.020767 218.169889 
L 542.473551 218.273456 
L 541.265028 218.502739 
L 540.437841 218.659635 
L 539.331273 218.869173 
L 539.157279 218.902102 
L 538.921735 218.950145 
L 538.049861 219.113998 
L 536.836533 219.34201 
L 536.839102 219.319734 
L 533.842483 219.860176 
L 529.422458 220.698296 
L 528.487543 220.873301 
L 523.447723 221.763194 
L 522.934928 221.60885 
L 522.533186 221.902059 
L 522.312408 222.003381 
L 519.438237 222.568453 
L 518.100996 222.909879 
L 517.469595 223.012247 
L 516.431852 223.096113 
L 515.436296 222.990116 
L 514.942597 222.877536 
L 514.58893 222.744029 
L 514.435546 222.658058 
L 514.253503 222.49297 
L 513.609657 222.263726 
L 513.629271 222.075683 
L 513.351295 221.728882 
L 513.16354 221.703496 
L 513.110184 221.743944 
L 513.100312 221.731421 
L 513.040116 221.655426 
L 513.00647 221.612856 
L 513.239975 221.428469 
L 513.218987 221.404938 
L 512.931697 221.078753 
L 512.260723 220.281786 
L 512.031293 220.013018 
L 511.987032 220.047643 
L 510.268624 221.418546 
L 510.178481 221.511467 
L 510.15608 221.548333 
L 510.108045 221.637673 
L 509.821302 222.157403 
L 509.660668 222.427475 
L 509.464399 222.653539 
L 509.277006 222.892725 
L 508.956402 223.175773 
L 508.366612 223.511466 
L 507.800796 223.924636 
L 507.425223 224.057464 
L 507.111627 224.190317 
L 506.233846 224.79542 
L 505.978735 224.767685 
L 505.663278 224.736242 
L 504.65123 224.631079 
L 504.256084 224.556832 
L 502.61349 224.39585 
L 502.340514 224.363826 
L 502.04996 224.32956 
L 501.88685 224.31014 
L 498.55298 223.88456 
L 498.257389 223.846945 
L 497.542494 223.823628 
L 496.372553 223.743944 
L 495.327034 223.747984 
L 494.397479 223.837134 
L 493.414772 223.942802 
L 492.535042 223.958475 
L 492.031312 223.930708 
L 491.441165 223.86493 
L 490.998061 223.768717 
L 489.62071 223.441819 
L 487.392111 222.78127 
L 486.385885 222.509506 
L 483.133394 221.618839 
L 480.800789 220.979843 
L 480.643469 220.917226 
L 480.477467 220.890571 
L 480.415567 220.880631 
L 480.3061 220.813712 
L 479.896534 220.563815 
L 479.35585 220.233956 
L 479.011005 220.282445 
L 477.980195 220.144783 
L 477.462237 219.994959 
L 475.17499 219.409023 
L 471.945297 218.475516 
L 471.271524 218.230015 
L 469.489952 217.823734 
L 468.71174 217.520425 
L 467.123738 217.045983 
L 466.120874 216.873818 
L 465.435692 216.698941 
L 462.217819 215.786132 
L 460.324745 215.252594 
L 460.342568 215.190074 
L 458.745649 214.675248 
L 458.714531 214.767566 
L 458.491288 214.719443 
L 458.101928 214.635543 
L 458.055028 214.620957 
L 457.45816 214.43484 
L 456.99665 214.294638 
L 456.953394 214.281584 
L 456.794586 214.233239 
L 456.463395 214.161796 
L 456.43912 214.153139 
L 456.125048 214.040091 
L 456.071881 214.035247 
L 456.018899 214.028338 
L 455.966272 214.019362 
L 455.914952 214.008733 
L 455.864024 213.996171 
L 455.813655 213.981704 
L 455.812341 213.983086 
L 455.798931 213.979093 
L 454.929047 213.735752 
L 453.938921 213.504034 
L 453.878992 213.490038 
L 453.102504 213.311976 
L 453.086331 213.308017 
L 451.312562 212.923143 
L 449.413835 211.794881 
L 448.512114 211.19811 
L 445.859191 210.104669 
L 444.974252 209.704563 
L 442.998537 208.81097 
L 440.111926 208.84162 
L 436.827166 209.749193 
L 436.620239 209.806334 
L 433.177607 210.195152 
L 432.273637 210.297323 
L 429.384207 211.175169 
L 425.387274 211.703346 
L 424.92076 211.579055 
L 422.48826 211.661925 
L 422.332746 211.667244 
L 420.385575 211.733285 
L 417.077574 211.411508 
L 415.418776 211.509213 
L 414.998893 211.49416 
L 414.445458 211.474373 
L 414.288766 211.468791 
L 412.310779 211.397576 
L 408.820659 211.189611 
L 407.949844 211.282386 
L 405.521933 211.913217 
L 403.531489 212.320426 
L 401.244821 213.412227 
L 400.346994 213.359159 
L 399.224752 213.290458 
L 397.70759 213.645221 
L 397.226837 213.756805 
L 395.471353 213.150341 
L 395.352229 213.110219 
L 394.238191 212.726164 
L 391.799983 212.337729 
L 389.774576 211.886945 
L 388.609635 211.565974 
L 387.447622 211.117155 
L 385.753937 210.481439 
L 384.155692 210.036102 
L 382.627097 209.688233 
L 381.428335 209.670679 
L 380.423009 209.806819 
L 379.500639 209.779019 
L 379.084347 209.880475 
L 378.671584 210.066954 
L 378.295859 210.237048 
L 377.231888 210.720272 
L 376.020871 211.056971 
L 375.050819 211.635468 
L 374.831087 211.800262 
L 374.532395 212.14977 
L 374.243141 212.609068 
L 374.183288 212.704177 
L 373.508091 213.775993 
L 373.026811 214.537983 
L 372.672622 215.032664 
L 372.4209 215.23759 
L 371.678494 215.465634 
L 370.283976 216.099015 
L 369.585144 216.292761 
L 369.338891 216.342123 
L 369.017646 216.360207 
L 368.61565 216.279568 
L 368.046197 216.009971 
L 367.407881 215.723866 
L 366.587547 215.357236 
L 366.215336 214.898892 
L 366.027919 214.56226 
L 365.752683 214.067902 
L 365.705605 213.794845 
L 365.508612 212.65729 
L 365.566675 211.759978 
L 365.60094 211.230538 
L 365.740576 210.349789 
L 365.682641 210.156441 
L 365.409662 209.248397 
L 364.082371 207.257489 
L 363.225932 206.616734 
L 362.643915 206.599253 
L 362.525349 206.615824 
L 360.043077 206.961892 
L 358.504073 207.978858 
L 357.022389 207.570296 
L 356.136976 207.380564 
L 343.87707 204.753494 
L 343.437011 207.23884 
L 340.608444 223.215177 
L 340.360754 224.614388 
L 340.104734 226.025288 
L 339.741581 228.026346 
L 337.68725 237.769428 
L 337.319373 239.514168 
L 336.02392 241.04891 
L 327.956763 250.606323 
L 319.72808 263.768735 
L 319.252677 264.529254 
L 318.266649 264.480114 
L 305.692052 263.853843 
L 304.228316 263.781017 
L 303.177397 264.541466 
L 294.204831 271.034674 
L 293.266227 271.713871 
L 284.561349 277.868264 
L 283.655761 278.50856 
L 283.343166 278.729593 
L 282.36631 279.900875 
L 274.715787 289.074342 
L 272.720834 291.719047 
L 267.444813 298.713437 
L 266.837226 299.518987 
L 266.068106 300.197144 
L 254.228578 310.637904 
L 253.112263 311.622435 
L 251.333788 311.855664 
L 224.654387 315.356869 
L 219.103946 316.301217 
L 218.203706 316.454371 
L 217.613514 317.071136 
L 215.187585 319.606211 
L 214.66042 320.157107 
L 213.983388 319.77915 
L 213.253758 319.371836 
L 212.558812 318.98385 
L 211.676817 319.097978 
L 209.531473 319.375577 
L 206.241008 320.680229 
L 203.576704 319.989724 
L 198.367737 321.442877 
L 197.252768 321.75396 
L 196.714096 322.692854 
L 195.503198 324.803595 
L 194.967157 325.73797 
L 195.040371 329.140224 
L 192.72589 332.260745 
L 181.453845 338.693745 
L 173.928072 350.70218 
L 169.677641 353.165302 
L 171.302125 364.859063 
L 160.401816 374.378363 
L 157.871447 378.189291 
L 154.421689 379.550429 
L 152.494923 384.433454 
L 150.019587 383.233282 
L 145.703011 381.979071 
L 144.211351 380.002472 
L 143.10574 379.471514 
L 141.982496 378.932217 
L 140.467561 379.321216 
L 138.376701 381.030418 
L 137.66204 384.089379 
L 137.583254 384.304895 
L 136.827294 386.373155 
L 132.513843 391.975815 
L 115.363636 400.771533 
L 119.629002 423.608292 
L 119.625166 424.107922 
L 119.626108 424.219072 
L 119.576369 426.681635 
L 119.775752 428.620378 
L 120.904142 431.075222 
L 124.00804 432.270296 
L 124.537028 432.744577 
L 126.957752 434.917517 
L 136.068255 439.112076 
L 137.418086 437.38127 
L 137.403594 437.161159 
L 138.222533 436.700079 
L 138.394196 436.539776 
L 138.864189 435.917921 
L 138.921942 435.954918 
L 139.066205 435.694393 
L 138.711205 435.473713 
L 138.792415 435.339902 
L 138.774714 435.331051 
L 138.758789 435.319317 
L 138.745018 435.305062 
L 138.733885 435.288678 
L 138.725637 435.270665 
L 138.721106 435.254444 
L 138.71895 435.237722 
L 138.719215 435.220868 
L 138.721875 435.204221 
L 138.726906 435.188119 
L 138.734182 435.172937 
L 138.82013 435.036233 
L 138.830623 435.023094 
L 138.842911 435.011628 
L 138.856695 435.002014 
L 138.871745 434.994493 
L 138.887696 434.989211 
L 138.904213 434.986277 
L 138.924063 434.985956 
L 138.943666 434.989017 
L 138.962445 434.995341 
L 138.979892 435.004773 
L 138.995528 435.017021 
L 139.231578 434.644722 
L 139.40653 434.369715 
L 139.507553 434.21229 
L 139.533738 434.16987 
L 139.558214 434.126416 
L 139.581015 434.082026 
L 139.601976 434.036773 
L 139.621133 433.990725 
L 139.644152 433.927693 
L 139.663843 433.863534 
L 139.680178 433.798451 
L 139.693059 433.732581 
L 139.702525 433.666126 
L 139.708481 433.599291 
L 139.710963 433.53221 
L 139.709943 433.465087 
L 139.705427 433.398123 
L 139.697419 433.331487 
L 139.686452 433.264963 
L 139.671367 433.199291 
L 139.652237 433.134671 
L 139.629136 433.071371 
L 139.60207 433.009627 
L 139.571283 432.949703 
L 139.536779 432.891836 
L 139.498801 432.836254 
L 139.457386 432.783127 
L 139.412778 432.732717 
L 139.210887 432.577375 
L 136.814268 430.842276 
L 136.666192 430.83052 
L 136.513852 430.720396 
L 136.455276 430.58413 
L 136.380889 430.532886 
L 136.418121 430.4843 
L 136.466115 430.476416 
L 136.526469 430.394371 
L 136.518357 430.346948 
L 136.446902 430.29583 
L 136.568206 430.244248 
L 136.505784 430.128205 
L 135.429493 428.126101 
L 133.9124 425.336188 
L 134.29883 425.137493 
L 134.741192 424.910077 
L 137.129608 424.193742 
L 137.19096 424.221495 
L 137.576318 424.148495 
L 137.870476 424.007038 
L 140.002185 423.394818 
L 140.347694 423.309101 
L 141.718399 422.969139 
L 141.922574 422.933843 
L 142.75306 422.724001 
L 143.340471 422.683534 
L 144.005049 422.814432 
L 143.988838 422.917763 
L 143.760362 424.374155 
L 143.714925 425.598782 
L 143.710228 425.707279 
L 143.895197 426.727522 
L 144.272075 428.726097 
L 144.434996 429.851952 
L 144.484301 430.140794 
L 144.606446 431.013099 
L 144.557137 431.552919 
L 144.502223 432.14991 
L 144.432102 432.982311 
L 144.390213 433.25411 
L 144.259919 434.374694 
L 144.33394 434.910691 
L 150.953692 437.294648 
L 152.107897 437.711109 
L 152.628083 437.89881 
L 153.76816 437.317849 
L 155.5778 438.628815 
L 156.20122 438.578534 
L 157.02981 438.413141 
L 157.534489 438.15167 
L 157.722714 438.007563 
L 157.986774 437.782361 
L 158.106786 437.629681 
L 158.249987 437.422814 
L 158.30323 437.29758 
L 158.346117 437.179168 
L 158.36597 437.080976 
L 158.384913 436.959547 
L 158.392749 436.876796 
L 158.396458 436.759716 
L 158.41364 434.863926 
L 158.416832 434.371236 
L 158.473752 433.864677 
L 158.52741 432.855403 
L 158.677284 431.703662 
L 158.753896 431.126127 
L 158.888437 430.183736 
L 159.018565 429.092878 
L 159.014172 428.947822 
L 158.992082 428.634189 
L 158.959559 428.320594 
L 158.891817 427.791347 
L 158.812481 427.0462 
L 158.759744 426.729389 
L 158.645821 426.325292 
L 158.34578 425.298299 
L 158.312315 424.993878 
L 158.392762 424.871272 
L 158.650739 424.493463 
L 158.879867 424.608039 
L 159.146739 424.556703 
L 159.848885 424.421587 
L 159.911192 424.443516 
L 160.5257 424.659758 
L 160.588041 424.681687 
L 161.15152 424.879994 
L 161.4408 424.981786 
L 161.762518 425.094746 
L 161.863662 425.130579 
L 162.474381 425.341121 
L 163.03065 425.532905 
L 163.101707 425.557408 
L 163.66667 425.752173 
L 164.069714 425.891127 
L 164.712883 429.295959 
L 164.856901 430.058454 
L 164.947886 430.540098 
L 165.054527 431.104586 
L 165.160628 431.666421 
L 165.243604 432.105635 
L 166.907784 431.852952 
L 167.030593 431.83427 
L 168.390989 431.62775 
L 168.474242 432.074048 
L 168.573357 432.604637 
L 168.700842 433.287588 
L 168.828059 433.969297 
L 168.946117 434.60182 
L 169.045018 435.132111 
L 168.252371 435.253152 
L 165.902102 435.612366 
L 166.06463 436.474679 
L 166.202043 437.203756 
L 166.327149 437.867524 
L 166.45315 438.535962 
L 166.286462 438.560015 
L 166.340755 438.848125 
L 166.373955 439.024263 
L 161.510474 439.776529 
L 157.909711 438.865715 
L 157.526368 439.772814 
L 157.273309 440.70529 
L 157.04144 441.559795 
L 156.833166 441.536604 
L 156.779967 441.53071 
L 156.725384 441.656081 
L 156.649541 441.852807 
L 157.0229 441.89124 
L 157.089825 441.898192 
L 157.591671 441.950132 
L 158.066199 442.030913 
L 159.243558 442.231319 
L 159.323108 442.244861 
L 159.622307 442.295782 
L 160.840673 442.503258 
L 161.749325 442.658069 
L 162.94839 443.542704 
L 163.252601 443.773074 
L 163.23548 443.838007 
L 163.671196 444.264826 
L 163.342704 444.701196 
L 163.092539 444.989326 
L 161.09653 447.238705 
L 164.229433 449.941264 
L 167.454786 454.589531 
L 167.686705 457.547123 
L 169.094949 459.517102 
L 179.437725 465.758183 
L 182.672416 466.52389 
L 184.306934 469.671036 
L 188.35406 475.050173 
L 192.407618 479.939437 
L 195.055773 482.445721 
L 197.450227 484.71223 
L 198.767674 486.236005 
L 200.781186 487.013931 
L 203.669399 487.355265 
L 204.817449 487.097268 
L 207.194748 485.952419 
L 216.490163 479.500588 
L 218.7481 476.860254 
L 222.060694 479.751377 
L 222.242015 479.833112 
L 222.622305 480.003789 
L 223.135639 480.23571 
L 223.683267 480.484874 
L 225.384547 481.259565 
L 225.906704 481.497309 
L 229.262655 482.531012 
L 229.224875 482.714837 
L 229.128805 483.180114 
L 228.277595 483.305116 
L 227.959176 483.349774 
L 227.504883 483.4207 
L 227.340203 483.442918 
L 227.328298 483.444475 
L 227.117945 483.475437 
L 226.927737 483.503379 
L 226.734227 483.535054 
L 226.594162 483.557953 
L 226.565949 483.562598 
L 226.125148 483.634732 
L 225.783518 483.690089 
L 225.534783 483.731971 
L 225.390159 483.755529 
L 224.777751 483.855231 
L 224.513415 483.910651 
L 223.799762 484.060242 
L 223.44322 484.134963 
L 223.030385 484.221507 
L 222.4569 484.341716 
L 222.572957 484.740973 
L 222.980819 486.112892 
L 223.195705 486.835722 
L 223.505664 487.910075 
L 223.554859 488.076391 
L 223.564439 488.108756 
L 223.714888 488.613099 
L 223.790062 488.842382 
L 223.986793 488.840702 
L 224.47811 488.83633 
L 225.416738 488.835683 
L 226.296863 488.835441 
L 226.73539 488.835141 
L 226.82894 488.84464 
L 227.042504 488.865587 
L 227.076241 488.86907 
L 227.740709 488.949799 
L 227.334517 489.406044 
L 227.881445 489.427591 
L 228.55617 488.995737 
L 229.012747 489.048488 
L 230.370491 489.126438 
L 229.870403 489.578283 
L 231.203045 489.529171 
L 229.552426 490.616374 
L 227.979943 491.987427 
L 226.885276 492.941888 
L 225.916142 493.786966 
L 225.002699 494.583445 
L 220.999573 498.187101 
L 219.590955 499.631542 
L 217.385889 502.189237 
L 214.791447 505.179205 
L 214.710479 505.272526 
L 214.305536 505.294944 
L 214.255442 505.195771 
L 214.142888 504.973201 
L 214.127456 504.963169 
L 214.038698 505.085862 
L 213.950396 505.207936 
L 213.891204 505.289788 
L 213.869266 505.292349 
L 213.689697 505.541537 
L 213.707974 505.554938 
L 213.731269 505.548899 
L 213.736969 505.643484 
L 213.741669 505.722768 
L 213.758428 505.721624 
L 213.965156 505.636013 
L 214.224647 505.528473 
L 214.155962 505.629748 
L 212.800199 507.628414 
L 211.097496 510.163441 
L 211.081491 510.146841 
L 210.868734 509.926469 
L 210.576162 509.623428 
L 210.404574 509.445741 
L 210.375814 509.415934 
L 210.73653 508.833243 
L 211.124444 508.2066 
L 211.6872 507.297535 
L 211.862782 507.013911 
L 212.678133 505.69681 
L 213.066856 505.887198 
L 213.080262 505.896945 
L 213.251114 505.659428 
L 213.31601 505.569156 
L 213.336001 505.568064 
L 213.513739 505.319632 
L 213.497551 505.306379 
L 213.466747 505.308258 
L 213.461942 505.227525 
L 213.45649 505.134723 
L 213.439792 505.135662 
L 213.236351 505.23655 
L 212.835384 505.435472 
L 212.826409 505.435773 
L 212.420569 505.449475 
L 209.302601 505.554603 
L 209.282848 505.818046 
L 209.141999 505.850163 
L 208.527153 505.872711 
L 208.421239 505.876576 
L 207.714443 505.884803 
L 207.698917 505.885477 
L 207.130653 505.909994 
L 207.06038 505.913035 
L 207.016685 505.914676 
L 206.989791 505.915543 
L 206.407822 505.933059 
L 205.151093 505.970778 
L 204.519365 505.989661 
L 204.398883 506.705183 
L 204.300652 507.286905 
L 204.194678 507.9166 
L 204.18356 507.982487 
L 204.098089 508.488894 
L 203.985031 509.160806 
L 203.888544 509.733098 
L 203.791997 510.305628 
L 203.588288 511.513759 
L 203.488801 512.103954 
L 203.237756 513.592081 
L 204.322711 514.544867 
L 205.101505 515.251262 
L 205.247123 515.383399 
L 205.76684 515.855579 
L 206.367775 516.401072 
L 206.836747 516.827375 
L 207.454881 517.383904 
L 208.755458 518.555595 
L 209.066397 518.836886 
L 209.533643 519.256794 
L 210.364232 520.003563 
L 211.013134 520.587902 
L 211.107512 520.671948 
L 212.264524 521.705259 
L 212.438155 521.870099 
L 212.837643 522.120741 
L 212.95548 522.194862 
L 213.198607 522.347737 
L 213.701632 522.446506 
L 214.02054 521.532935 
L 214.24206 521.426785 
L 214.646698 521.396677 
L 215.261034 521.351308 
L 215.362772 521.380304 
L 215.821287 521.510314 
L 216.111849 521.592687 
L 216.411875 521.678124 
L 216.860978 521.812398 
L 216.91861 521.82954 
L 216.995771 521.852625 
L 217.008347 521.856316 
L 217.25082 521.928965 
L 217.385209 521.969203 
L 217.470001 521.993339 
L 217.995758 522.149364 
L 218.017871 522.080459 
L 218.130086 521.732144 
L 218.165002 521.623474 
L 218.246698 521.384761 
L 218.365443 521.037863 
L 218.484087 520.690934 
L 218.602766 520.344038 
L 218.611029 520.319989 
L 218.866445 519.573568 
L 218.888286 519.509768 
L 218.900431 519.474444 
L 219.006249 519.165052 
L 219.12418 518.820404 
L 219.195212 518.61296 
L 219.242113 518.47579 
L 219.360013 518.131177 
L 219.477912 517.78653 
L 219.495624 517.734856 
L 219.595879 517.441881 
L 219.713813 517.097267 
L 219.824082 516.775067 
L 219.283676 516.732886 
L 218.266064 517.103036 
L 217.293787 516.7469 
L 216.916736 516.369602 
L 216.59442 516.047201 
L 216.233852 515.635987 
L 216.131621 515.514768 
L 215.73807 515.07048 
L 215.341582 514.617999 
L 215.053867 514.289976 
L 214.932955 514.163266 
L 214.415809 513.622862 
L 214.053443 513.244144 
L 213.808551 512.98797 
L 213.022508 512.166328 
L 212.566649 511.68997 
L 212.437834 511.557019 
L 212.306435 511.420355 
L 211.569605 510.653823 
L 215.349983 505.589503 
L 215.470186 505.428419 
L 215.514133 505.377719 
L 215.707003 505.154961 
L 217.894997 502.628002 
L 220.064619 500.107627 
L 221.490912 498.649194 
L 225.421371 495.107524 
L 225.939076 494.656222 
L 226.829719 493.87975 
L 228.485348 492.436516 
L 229.482254 491.567509 
L 229.926951 491.179889 
L 232.41719 489.524371 
L 233.804085 488.602391 
L 234.58153 488.09735 
L 235.177587 487.574103 
L 235.810271 487.018584 
L 235.869342 486.96679 
L 236.110986 486.754682 
L 236.449324 486.472457 
L 237.09678 485.932395 
L 237.769181 485.371571 
L 238.15475 485.892653 
L 238.351878 485.813093 
L 238.667038 485.685926 
L 239.148122 485.491856 
L 239.475607 485.359748 
L 240.065283 485.140903 
L 240.12838 485.1175 
L 240.94195 484.815576 
L 240.979505 485.281014 
L 241.076149 486.309174 
L 241.118589 486.773541 
L 240.780889 486.971844 
L 241.327572 487.633007 
L 241.646815 488.019108 
L 242.084174 488.547676 
L 242.439814 488.978215 
L 244.562611 490.148387 
L 246.743869 491.365089 
L 246.817261 491.389028 
L 247.286413 491.451127 
L 248.666499 491.669841 
L 249.184279 491.752032 
L 251.66539 492.146877 
L 254.056614 492.524454 
L 254.246479 492.554553 
L 256.545456 492.919951 
L 258.888311 493.217206 
L 259.024689 493.234604 
L 261.524687 493.535325 
L 264.030835 493.855913 
L 266.703595 494.5615 
L 267.186281 494.689379 
L 269.330879 495.257962 
L 272.055424 495.973417 
L 274.036917 496.5041 
L 276.801581 497.23893 
L 276.959127 497.226262 
L 278.321355 497.117254 
L 279.382623 497.032317 
L 279.921419 496.989254 
L 282.213939 496.806055 
L 282.247016 496.803489 
L 282.516404 496.781557 
L 284.61391 496.611403 
L 287.272169 496.384072 
L 287.439072 496.370128 
L 287.615712 496.355397 
L 289.297382 496.215415 
L 289.48742 496.199601 
L 289.741924 496.178398 
L 289.84255 496.170028 
L 289.960067 496.160316 
L 292.564994 495.950971 
L 292.959728 495.91881 
L 295.080681 495.746335 
L 297.613959 495.539906 
L 298.00509 495.535532 
L 298.145053 495.533932 
L 299.463662 495.524688 
L 300.858663 494.574729 
L 302.606929 493.377595 
L 304.490148 492.0885 
L 306.305426 490.843385 
L 306.27199 490.610103 
L 305.957061 488.496065 
L 305.402246 484.425337 
L 305.279592 483.560293 
L 305.206736 483.402589 
L 305.180441 483.324561 
L 304.950762 482.641604 
L 304.197064 482.951516 
L 302.39541 483.509716 
L 300.716627 484.062822 
L 299.398506 484.401547 
L 298.773251 484.508424 
L 297.945735 484.649952 
L 295.386842 485.087679 
L 288.843752 486.056415 
L 282.247648 487.144994 
L 280.406317 487.382539 
L 280.150418 487.415541 
L 274.343799 488.16477 
L 274.413846 487.614603 
L 274.4258 487.520882 
L 274.437553 487.453701 
L 274.454732 487.355052 
L 274.621395 486.12693 
L 274.314072 484.894349 
L 274.32391 484.861721 
L 274.68667 483.651711 
L 274.696016 483.628853 
L 275.268424 482.272095 
L 275.395632 481.987718 
L 275.808271 480.99497 
L 275.814008 480.974431 
L 276.575288 478.633216 
L 276.582527 478.61085 
L 277.54001 476.366415 
L 277.610806 476.200496 
L 277.991033 474.832487 
L 277.990203 474.803744 
L 277.838951 472.958397 
L 277.830217 472.921855 
L 277.820097 470.291612 
L 277.815293 470.196462 
L 277.808329 469.912779 
L 277.768326 468.624377 
L 277.760638 468.393077 
L 277.759984 468.372601 
L 277.738778 467.673654 
L 277.718749 467.01313 
L 277.636705 464.091041 
L 277.636033 464.061889 
L 277.919038 463.922047 
L 277.90893 463.815486 
L 277.902112 463.749726 
L 277.904597 463.748177 
L 279.872416 462.672137 
L 282.112937 461.449427 
L 284.834515 459.964244 
L 286.645614 458.981918 
L 288.420675 458.016296 
L 289.962081 457.165793 
L 291.909572 456.063678 
L 293.856805 454.992923 
L 296.180825 453.63567 
L 298.516256 452.407598 
L 300.736629 451.189234 
L 303.561086 449.661306 
L 306.373984 448.150803 
L 309.243137 446.59213 
L 311.864693 445.152272 
L 312.999722 444.528892 
L 313.764769 444.108743 
L 316.014007 442.865077 
L 319.139384 441.13416 
L 321.890105 439.625362 
L 325.076581 437.884676 
L 327.778884 436.40583 
L 331.037416 434.642544 
L 334.328792 432.830522 
L 336.662681 431.554455 
L 336.677126 431.546596 
L 337.147303 431.290667 
L 337.167062 431.27994 
L 339.90299 429.776445 
L 343.118438 428.021777 
L 346.385593 426.228265 
L 348.880786 424.842447 
L 351.55346 423.341141 
L 354.668137 421.667589 
L 357.964406 419.908622 
L 360.466726 418.540561 
L 363.320144 416.990899 
L 363.341304 416.979499 
L 363.32146 416.865176 
L 364.654897 416.141211 
L 364.938013 416.168868 
L 365.40461 416.219047 
L 365.43964 416.217158 
L 367.117611 416.37692 
L 369.686347 416.621833 
L 369.718429 416.615123 
L 371.710052 416.213356 
L 371.746293 416.212823 
L 373.711874 416.188294 
L 373.743148 416.184306 
L 376.271559 415.870378 
L 377.276863 415.643923 
L 378.988917 415.383549 
L 381.285711 415.03138 
L 381.318276 415.026484 
L 383.531243 414.390788 
L 385.680871 413.767299 
L 385.714765 413.757576 
L 387.253366 413.2746 
L 388.715349 412.815725 
L 389.129731 412.683207 
L 389.159588 412.676287 
L 391.108148 412.063405 
L 392.846814 411.516632 
L 393.163883 411.416893 
L 393.193347 411.407687 
L 394.864524 410.7379 
L 396.132742 410.229683 
L 396.164576 410.216908 
L 397.336905 409.672323 
L 398.471736 409.1357 
L 398.501727 409.117806 
L 400.775074 407.749426 
L 400.805327 407.731221 
L 401.970412 407.486912 
L 402.001422 407.472099 
L 403.523553 406.744044 
L 403.552185 406.725644 
L 404.083731 406.384796 
L 404.211156 406.303045 
L 405.032388 405.776364 
L 405.062229 405.759149 
L 406.824833 404.744417 
L 407.695523 404.243263 
L 407.719422 404.229471 
L 408.463424 403.779768 
L 408.487153 403.757709 
L 410.058283 402.528275 
L 410.085927 402.506592 
L 412.235045 402.002808 
L 412.267815 401.995144 
L 412.641649 401.834182 
L 412.675296 401.819745 
L 413.972856 401.260807 
L 415.061486 400.791848 
L 415.090769 400.779274 
L 416.735672 400.140778 
L 418.694693 399.380401 
L 418.726974 399.367889 
L 419.963172 398.938128 
L 419.979626 398.93232 
L 420.00893 398.917823 
L 421.66578 398.09924 
L 421.81942 398.023271 
L 421.851021 398.007704 
L 423.289031 397.31155 
L 424.932706 396.515912 
L 424.96458 396.500508 
L 425.118116 396.877574 
L 425.156715 396.859067 
L 426.694495 396.122773 
L 426.916979 396.016248 
L 426.994844 395.978949 
L 428.249228 395.378481 
L 428.274085 395.366525 
L 428.326433 395.338903 
L 428.785381 395.94268 
L 431.000629 394.86271 
L 432.933627 393.91969 
L 434.626067 393.100837 
L 436.270841 392.298094 
L 437.77902 391.563308 
L 439.679591 390.640442 
L 442.707781 389.16576 
L 445.583363 387.765234 
L 447.569661 386.802839 
L 447.747461 386.716151 
L 448.901459 386.160064 
L 448.944866 386.138918 
L 449.926715 385.660614 
L 453.051416 384.136362 
L 455.523751 382.935242 
L 456.702839 382.357935 
L 457.91583 381.763603 
L 459.098664 381.188788 
L 460.553683 380.482013 
L 459.991673 379.916824 
L 459.089385 379.777938 
L 455.502443 379.226694 
L 449.465077 376.036038 
L 444.900676 373.62201 
L 444.489274 373.406278 
L 444.121596 373.212052 
L 443.90199 373.096045 
L 442.272112 372.234097 
L 440.4813 371.288036 
L 439.674972 370.86355 
L 439.532878 370.789087 
L 438.497739 370.244435 
L 438.595228 368.819923 
L 438.829179 365.81424 
L 438.85094 365.496258 
L 438.870717 365.179743 
L 438.887104 364.862298 
L 438.900316 364.543074 
L 438.909329 364.227025 
L 438.915276 363.909533 
L 438.920212 363.589263 
L 438.922923 363.268845 
L 438.921518 362.999102 
L 438.917884 362.729109 
L 438.91243 362.45906 
L 438.908458 362.328201 
L 438.904518 362.197275 
L 438.900545 362.066382 
L 438.892085 361.834522 
L 438.830058 360.135339 
L 438.826378 360.034352 
L 438.807862 359.527424 
L 438.805041 359.500147 
L 438.798564 359.473501 
L 438.788578 359.447953 
L 438.775197 359.424008 
L 438.758734 359.402097 
L 438.739502 359.382617 
L 438.717779 359.365933 
L 438.694043 359.352336 
L 438.668706 359.342088 
L 438.642208 359.335345 
L 438.615059 359.332265 
L 438.587764 359.332868 
L 438.560761 359.337143 
L 438.4511 357.937774 
L 438.754764 357.824376 
L 438.784323 357.813083 
L 439.008222 357.70556 
L 440.264135 357.105927 
L 441.290822 356.883563 
L 441.42772 356.831655 
L 442.477234 356.433826 
L 442.98853 356.240022 
L 443.505955 356.040667 
L 444.696439 355.582035 
L 445.138139 355.411854 
L 445.998521 355.087732 
L 446.5482 354.880432 
L 448.52026 354.1414 
L 448.992013 353.96462 
L 450.71197 353.316866 
L 452.070388 352.805325 
L 452.671967 352.578787 
L 453.858629 352.12852 
L 454.582429 351.853929 
L 455.006316 351.694069 
L 456.111102 351.27742 
L 456.477414 351.139675 
L 456.990506 350.94674 
L 458.947103 350.199535 
L 460.879728 349.474006 
L 462.354812 348.920234 
L 463.223597 348.59778 
L 463.330815 348.557318 
L 463.427122 348.521004 
L 464.050345 348.285878 
L 464.058728 348.282597 
L 464.198759 348.2278 
L 464.417603 348.149469 
L 464.637604 348.074352 
L 464.85866 348.002517 
L 465.080773 347.933932 
L 465.303841 347.868632 
L 465.527832 347.806652 
L 465.752744 347.747959 
L 465.978478 347.692588 
L 466.657503 347.527986 
L 467.261445 347.359782 
L 467.977808 347.182188 
L 468.411413 347.074797 
L 468.662876 347.012518 
L 468.684034 347.007343 
L 471.47831 346.320454 
L 472.389487 346.096507 
L 472.861778 345.98028 
L 474.499317 345.577924 
L 475.867237 345.241834 
L 476.02669 345.202641 
L 476.191765 345.16196 
L 476.285277 345.138591 
L 476.500664 345.084763 
L 476.521519 345.079563 
L 476.739334 345.025109 
L 477.142062 344.924462 
L 479.730617 344.278369 
L 479.841183 344.250732 
L 480.408145 344.109234 
L 481.881531 343.773129 
L 483.164936 343.447594 
L 483.382469 343.392412 
L 483.737204 343.302434 
L 483.822323 343.280853 
L 484.761251 343.069535 
L 485.939035 342.804485 
L 486.661819 342.627593 
L 486.96069 342.554508 
L 487.222227 342.490364 
L 488.837875 342.094928 
L 489.257004 341.990942 
L 490.124358 341.775821 
L 490.529128 341.675427 
L 491.186014 341.512476 
L 492.624165 341.157471 
L 493.935446 340.843835 
L 495.70835 340.419776 
L 495.836698 340.387736 
L 496.626101 340.19064 
L 497.723932 339.947663 
L 497.98412 339.890084 
L 499.044573 339.655516 
L 499.07543 339.651179 
L 500.208377 339.49195 
L 500.868046 339.676193 
L 501.019741 339.718607 
L 501.625501 339.887918 
L 502.151213 340.036445 
L 502.705543 340.193094 
L 503.307173 340.363085 
L 503.685402 340.472138 
L 503.904903 340.531957 
L 505.381932 341.069921 
L 505.675859 341.150767 
L 505.711565 341.156724 
L 505.79434 341.180382 
L 506.15206 341.28261 
L 506.621988 341.416868 
L 506.610525 341.4584 
L 506.73843 341.494777 
L 508.415269 341.973286 
L 508.51873 341.998742 
L 509.613576 342.087889 
L 510.277763 342.141973 
L 510.432494 342.173587 
L 511.695242 342.602466 
L 511.786946 342.631955 
L 511.879461 342.658791 
L 511.972687 342.682977 
L 512.066589 342.704446 
L 512.161033 342.723268 
L 512.255917 342.739345 
L 512.35124 342.752678 
L 512.446901 342.763267 
L 512.542833 342.771116 
L 512.638935 342.776192 
L 512.692667 342.778306 
L 512.746421 342.779947 
L 512.800198 342.781115 
L 512.854066 342.781875 
L 512.907922 342.782164 
L 512.961767 342.781979 
L 513.070316 342.779497 
L 513.178786 342.775093 
L 513.287174 342.768732 
L 513.395416 342.760451 
L 513.503509 342.750215 
L 513.611357 342.738163 
L 513.718956 342.724158 
L 513.826273 342.708202 
L 513.933309 342.690362 
L 514.039994 342.670573 
L 514.163954 342.645067 
L 514.287313 342.616976 
L 514.410105 342.5863 
L 514.532195 342.553041 
L 514.643588 342.520276 
L 514.754324 342.4854 
L 514.864368 342.44838 
L 514.973689 342.409251 
L 515.082253 342.368047 
L 515.911987 342.032106 
L 516.253625 341.893786 
L 518.173058 341.116482 
L 518.642362 340.92855 
L 518.920488 340.816826 
L 519.082074 340.752236 
L 519.293713 340.530503 
L 520.519835 339.967583 
L 520.582067 339.888673 
L 520.696741 339.805768 
L 520.876536 339.675955 
L 521.040113 339.552373 
L 521.235348 339.404905 
L 521.30988 339.500678 
L 521.479523 339.363177 
L 522.143089 338.844594 
L 522.859484 338.287371 
L 523.449456 337.827212 
L 524.141517 337.28854 
L 524.778273 336.791713 
L 525.847271 335.957331 
L 529.13092 333.396683 
L 529.152668 333.37236 
L 529.17112 333.345382 
L 529.827182 332.166833 
L 530.686431 331.726603 
L 533.707774 330.177718 
L 533.891559 330.083002 
L 534.125201 329.963039 
L 534.368578 329.838078 
L 534.554078 329.743187 
L 535.695162 329.159464 
L 536.515295 328.739952 
L 537.150761 328.414907 
L 537.757745 328.104355 
L 538.375158 327.7918 
L 539.648957 327.136933 
L 540.119957 326.895951 
L 542.343245 325.758595 
L 544.672915 324.566936 
L 544.800029 324.500562 
L 544.99075 324.401001 
L 545.126015 324.330381 
L 546.630377 323.559355 
L 547.577691 323.07393 
L 548.132809 322.790179 
L 556.222751 318.649135 
L 557.6019 317.942674 
L 558.628916 317.416657 
L 560.061865 316.68277 
L 560.472122 316.4728 
L 560.676013 316.369101 
L 561.225904 316.089429 
L 561.402871 315.998485 
L 562.747549 315.308114 
L 563.347703 314.999575 
L 563.947497 314.691351 
L 564.444901 314.435902 
L 564.966126 314.167903 
L 567.302638 312.978532 
L 567.483711 312.885775 
L 567.664183 312.791784 
L 567.843987 312.696593 
L 568.112281 312.551765 
L 568.379376 312.404636 
L 568.645171 312.255243 
L 568.9097 312.103585 
L 569.172931 311.949696 
L 569.434863 311.793543 
L 569.602237 311.693957 
L 569.768873 311.593072 
L 569.934704 311.49089 
L 570.504071 311.141349 
L 571.051965 310.815175 
L 571.800913 310.359147 
L 572.633157 309.857222 
L 573.170599 309.534578 
L 573.444607 309.368861 
L 573.512763 309.326697 
L 573.862906 309.117209 
L 574.107654 308.967582 
L 574.499647 308.732997 
L 574.790826 308.55543 
L 575.497862 308.132418 
L 576.261561 307.632476 
L 577.004067 307.14641 
L 577.534977 306.787441 
L 578.218973 306.343853 
L 578.730807 306.021362 
L 579.361865 305.623733 
L 580.433288 304.973577 
L 580.751903 304.774777 
L 581.328683 304.426245 
L 581.635122 304.240969 
L 581.997489 304.021857 
L 582.635045 303.636342 
L 583.193066 303.29903 
L 583.851832 302.905624 
L 584.065968 302.771321 
L 584.08024 302.795189 
L 584.380394 302.615974 
L 585.061417 302.181674 
L 585.400046 301.965726 
L 585.612838 301.837162 
L 585.3782 301.781982 
L 585.070539 301.298294 
L 584.726286 300.757103 
L 584.280407 300.056068 
L 584.238362 299.990118 
L 584.594093 298.940103 
L 584.899713 298.037759 
L 585.17728 297.219905 
L 585.452458 296.409164 
L 585.662428 295.787469 
L 585.928677 295.01222 
L 586.525693 293.24869 
L 586.778599 292.501576 
L 587.211053 291.206411 
L 587.425906 290.556886 
L 587.717586 289.696436 
L 588.15048 288.419325 
L 588.64879 286.948574 
L 588.883193 286.29761 
L 589.191847 285.682432 
L 589.556486 284.953814 
L 590.303705 283.481337 
L 590.365788 283.356545 
L 590.688629 282.75967 
L 591.070113 282.163671 
L 591.765261 281.084349 
L 592.129693 280.516473 
L 592.493801 279.947592 
L 592.70175 279.620341 
L 592.831447 279.416643 
L 592.959836 279.214595 
L 593.243494 278.768714 
L 593.46572 278.428128 
L 594.184597 277.303559 
L 594.63863 276.593908 
L 595.058264 275.937061 
L 595.540412 275.183435 
L 596.340209 273.931311 
L 596.67123 273.415583 
L 597.603791 271.95568 
L 598.161514 271.082255 
L 598.683139 270.265354 
L 598.874966 269.965658 
L 599.023209 269.734056 
L 602.303055 264.587229 
L 602.5704 264.16771 
L 603.318975 262.994037 
L 603.440224 262.803949 
L 603.70235 262.392961 
L 604.789183 260.688996 
L 604.869097 260.563722 
L 605.768629 259.153394 
L 605.870708 258.993333 
L 605.992286 258.802699 
L 606.031351 258.741484 
L 606.362615 258.222091 
L 606.47419 258.047357 
L 607.65141 256.20378 
L 608.14316 255.433729 
L 608.204023 255.4457 
L 608.2653 255.455196 
L 608.326924 255.46222 
L 608.388793 255.466774 
L 608.450771 255.468793 
L 608.491324 255.469594 
L 608.531865 255.468404 
L 608.572292 255.465258 
L 608.612504 255.460126 
L 608.652435 255.453043 
L 608.717368 255.438821 
L 608.78167 255.422083 
L 608.845272 255.402829 
L 608.908074 255.381062 
L 608.925367 255.372756 
L 608.942624 255.364349 
L 608.959811 255.355842 
L 608.963682 255.351362 
L 608.967485 255.34685 
L 608.971219 255.342272 
L 608.969649 255.340014 
L 608.968815 255.338919 
L 609.057922 255.276427 
L 609.146019 255.21254 
L 609.233071 255.147193 
L 609.24361 255.139653 
L 609.254112 255.132013 
L 609.26458 255.124339 
L 609.27019 255.122216 
L 609.275801 255.120058 
L 609.281376 255.117868 
L 609.282492 255.119462 
L 609.28364 255.121022 
L 609.284789 255.122581 
L 609.332064 255.066576 
L 609.377141 255.008765 
L 609.419921 254.949254 
L 609.460336 254.888076 
L 609.498323 254.825368 
L 609.505641 254.80835 
L 609.512516 254.791139 
L 609.518881 254.773738 
L 609.538621 254.728948 
L 609.556762 254.683519 
L 609.573237 254.637421 
L 609.588524 254.576564 
L 609.601034 254.515097 
L 609.610734 254.453088 
L 609.617663 254.39074 
L 609.621722 254.328122 
L 609.414149 253.621483 
L 609.355181 253.543771 
L 609.45141 252.708756 
L 609.569201 251.686643 
L 609.705092 250.53602 
L 609.825981 249.456883 
L 609.929479 248.623452 
L 610.023603 247.82856 
L 610.033792 247.738486 
L 610.139528 246.800584 
L 610.209248 246.196603 
L 610.279301 245.59096 
L 610.28837 245.510601 
L 610.299489 245.418479 
L 610.311888 245.310562 
L 610.594829 242.844579 
L 610.619735 242.627526 
L 610.675819 242.134632 
L 610.820177 240.896003 
L 610.920421 240.035439 
L 610.983008 239.489221 
L 611.069635 238.752235 
L 611.137482 238.177298 
L 611.145623 238.114854 
L 611.160662 238.014571 
L 611.178733 237.86817 
L 611.197614 237.72185 
L 611.21734 237.575645 
L 611.236883 237.441767 
L 611.257508 237.308033 
L 611.279216 237.174509 
L 611.289487 237.120995 
L 611.300029 237.067542 
L 611.310842 237.014116 
L 611.32614 236.934927 
L 611.341741 236.855765 
L 611.357615 236.776698 
L 611.396394 236.587914 
L 611.438087 236.39977 
L 611.482659 236.212267 
L 611.530079 236.025474 
L 611.611983 235.699556 
L 611.694972 235.373917 
L 611.77908 235.048556 
L 611.956837 234.419587 
L 612.189427 233.569148 
L 612.224309 233.455604 
L 612.454742 232.707205 
L 612.675499 231.984454 
L 613.011525 230.892398 
L 613.210911 230.24405 
L 613.383397 229.683131 
L 613.94889 227.843682 
L 614.603161 227.577917 
L 615.431516 227.21219 
L 615.527275 227.162475 
L 616.082409 226.858026 
L 616.380018 226.676535 
L 616.561109 226.566414 
L 616.632051 226.52903 
L 616.704832 226.495385 
L 616.820277 226.451578 
L 616.855147 226.439664 
L 616.93228 226.417733 
L 617.010417 226.399829 
L 617.089391 226.386024 
L 617.168968 226.376358 
L 617.248911 226.370802 
L 617.329086 226.369426 
L 617.40919 226.372239 
L 617.454119 226.376822 
L 617.498879 226.382827 
L 617.543404 226.39029 
L 617.587693 226.39921 
L 617.662638 226.411967 
L 617.738104 226.421101 
L 617.813957 226.426545 
L 617.889926 226.428341 
L 617.965943 226.426422 
L 618.041773 226.420827 
L 618.117215 226.411596 
L 618.192134 226.398731 
L 618.266361 226.382236 
L 618.339696 226.36215 
L 618.396453 226.343635 
L 618.452561 226.323312 
L 618.507986 226.301181 
L 618.562697 226.277312 
L 618.614536 226.248818 
L 618.665461 226.218691 
L 618.71537 226.186934 
L 618.764232 226.153581 
L 618.800054 226.127589 
L 618.835251 226.100769 
L 618.869821 226.073085 
L 618.888232 226.059115 
L 618.906263 226.04475 
L 618.923979 226.029918 
L 619.603592 225.414572 
L 620.238822 224.83943 
L 620.313636 224.771608 
L 620.706088 224.415624 
L 621.049963 224.10369 
L 621.431131 223.757966 
L 621.652606 223.557068 
L 621.940582 223.104115 
L 621.95638 223.079269 
L 622.37686 222.448369 
L 622.636364 222.058945 
L 621.875452 221.367896 
L 620.83151 220.356828 
L 620.705648 220.230513 
L 620.363132 220.540324 
L 619.797148 221.052263 
L 619.488068 221.331852 
L 619.260277 221.083829 
L 619.031809 220.832784 
L 618.954324 220.910392 
L 618.211122 220.416978 
L 617.816857 220.155208 
L 617.160602 219.719513 
L 616.993886 219.608845 
L 616.395044 220.009654 
L 615.050624 220.908778 
L 614.375244 221.360884 
L 614.452802 221.073387 
L 614.061941 220.970182 
L 607.739986 219.30014 
L 607.491496 219.234441 
" clip-path="url(#p151c81e108)" style="fill: #d3d3d3"/>
   </g>
   <g id="matplotlib.axis_1">
    <g id="xtick_1">
     <g id="line2d_1">
      <defs>
       <path id="m3f6057b24f" d="M 0 0 
L 0 3.5 
" style="stroke: #000000; stroke-width: 0.8"/>
      </defs>
      <g>
       <use xlink:href="#m3f6057b24f" x="142.038301" y="538.331156" style="stroke: #000000; stroke-width: 0.8"/>
      </g>
     </g>
     <g id="text_1">
      <!-- 13.10 -->
      <g transform="translate(127.724238 552.929594) scale(0.1 -0.1)">
       <defs>
        <path id="DejaVuSans-31" d="M 794 531 
L 1825 531 
L 1825 4091 
L 703 3866 
L 703 4441 
L 1819 4666 
L 2450 4666 
L 2450 531 
L 3481 531 
L 3481 0 
L 794 0 
L 794 531 
z
" transform="scale(0.015625)"/>
        <path id="DejaVuSans-33" d="M 2597 2516 
Q 3050 2419 3304 2112 
Q 3559 1806 3559 1356 
Q 3559 666 3084 287 
Q 2609 -91 1734 -91 
Q 1441 -91 1130 -33 
Q 819 25 488 141 
L 488 750 
Q 750 597 1062 519 
Q 1375 441 1716 441 
Q 2309 441 2620 675 
Q 2931 909 2931 1356 
Q 2931 1769 2642 2001 
Q 2353 2234 1838 2234 
L 1294 2234 
L 1294 2753 
L 1863 2753 
Q 2328 2753 2575 2939 
Q 2822 3125 2822 3475 
Q 2822 3834 2567 4026 
Q 2313 4219 1838 4219 
Q 1578 4219 1281 4162 
Q 984 4106 628 3988 
L 628 4550 
Q 988 4650 1302 4700 
Q 1616 4750 1894 4750 
Q 2613 4750 3031 4423 
Q 3450 4097 3450 3541 
Q 3450 3153 3228 2886 
Q 3006 2619 2597 2516 
z
" transform="scale(0.015625)"/>
        <path id="DejaVuSans-2e" d="M 684 794 
L 1344 794 
L 1344 0 
L 684 0 
L 684 794 
z
" transform="scale(0.015625)"/>
        <path id="DejaVuSans-30" d="M 2034 4250 
Q 1547 4250 1301 3770 
Q 1056 3291 1056 2328 
Q 1056 1369 1301 889 
Q 1547 409 2034 409 
Q 2525 409 2770 889 
Q 3016 1369 3016 2328 
Q 3016 3291 2770 3770 
Q 2525 4250 2034 4250 
z
M 2034 4750 
Q 2819 4750 3233 4129 
Q 3647 3509 3647 2328 
Q 3647 1150 3233 529 
Q 2819 -91 2034 -91 
Q 1250 -91 836 529 
Q 422 1150 422 2328 
Q 422 3509 836 4129 
Q 1250 4750 2034 4750 
z
" transform="scale(0.015625)"/>
       </defs>
       <use xlink:href="#DejaVuSans-31"/>
       <use xlink:href="#DejaVuSans-33" x="63.623047"/>
       <use xlink:href="#DejaVuSans-2e" x="127.246094"/>
       <use xlink:href="#DejaVuSans-31" x="159.033203"/>
       <use xlink:href="#DejaVuSans-30" x="222.65625"/>
      </g>
     </g>
    </g>
    <g id="xtick_2">
     <g id="line2d_2">
      <g>
       <use xlink:href="#m3f6057b24f" x="256.498264" y="538.331156" style="stroke: #000000; stroke-width: 0.8"/>
      </g>
     </g>
     <g id="text_2">
      <!-- 13.15 -->
      <g transform="translate(242.184201 552.929594) scale(0.1 -0.1)">
       <defs>
        <path id="DejaVuSans-35" d="M 691 4666 
L 3169 4666 
L 3169 4134 
L 1269 4134 
L 1269 2991 
Q 1406 3038 1543 3061 
Q 1681 3084 1819 3084 
Q 2600 3084 3056 2656 
Q 3513 2228 3513 1497 
Q 3513 744 3044 326 
Q 2575 -91 1722 -91 
Q 1428 -91 1123 -41 
Q 819 9 494 109 
L 494 744 
Q 775 591 1075 516 
Q 1375 441 1709 441 
Q 2250 441 2565 725 
Q 2881 1009 2881 1497 
Q 2881 1984 2565 2268 
Q 2250 2553 1709 2553 
Q 1456 2553 1204 2497 
Q 953 2441 691 2322 
L 691 4666 
z
" transform="scale(0.015625)"/>
       </defs>
       <use xlink:href="#DejaVuSans-31"/>
       <use xlink:href="#DejaVuSans-33" x="63.623047"/>
       <use xlink:href="#DejaVuSans-2e" x="127.246094"/>
       <use xlink:href="#DejaVuSans-31" x="159.033203"/>
       <use xlink:href="#DejaVuSans-35" x="222.65625"/>
      </g>
     </g>
    </g>
    <g id="xtick_3">
     <g id="line2d_3">
      <g>
       <use xlink:href="#m3f6057b24f" x="370.958226" y="538.331156" style="stroke: #000000; stroke-width: 0.8"/>
      </g>
     </g>
     <g id="text_3">
      <!-- 13.20 -->
      <g transform="translate(356.644164 552.929594) scale(0.1 -0.1)">
       <defs>
        <path id="DejaVuSans-32" d="M 1228 531 
L 3431 531 
L 3431 0 
L 469 0 
L 469 531 
Q 828 903 1448 1529 
Q 2069 2156 2228 2338 
Q 2531 2678 2651 2914 
Q 2772 3150 2772 3378 
Q 2772 3750 2511 3984 
Q 2250 4219 1831 4219 
Q 1534 4219 1204 4116 
Q 875 4013 500 3803 
L 500 4441 
Q 881 4594 1212 4672 
Q 1544 4750 1819 4750 
Q 2544 4750 2975 4387 
Q 3406 4025 3406 3419 
Q 3406 3131 3298 2873 
Q 3191 2616 2906 2266 
Q 2828 2175 2409 1742 
Q 1991 1309 1228 531 
z
" transform="scale(0.015625)"/>
       </defs>
       <use xlink:href="#DejaVuSans-31"/>
       <use xlink:href="#DejaVuSans-33" x="63.623047"/>
       <use xlink:href="#DejaVuSans-2e" x="127.246094"/>
       <use xlink:href="#DejaVuSans-32" x="159.033203"/>
       <use xlink:href="#DejaVuSans-30" x="222.65625"/>
      </g>
     </g>
    </g>
    <g id="xtick_4">
     <g id="line2d_4">
      <g>
       <use xlink:href="#m3f6057b24f" x="485.418189" y="538.331156" style="stroke: #000000; stroke-width: 0.8"/>
      </g>
     </g>
     <g id="text_4">
      <!-- 13.25 -->
      <g transform="translate(471.104127 552.929594) scale(0.1 -0.1)">
       <use xlink:href="#DejaVuSans-31"/>
       <use xlink:href="#DejaVuSans-33" x="63.623047"/>
       <use xlink:href="#DejaVuSans-2e" x="127.246094"/>
       <use xlink:href="#DejaVuSans-32" x="159.033203"/>
       <use xlink:href="#DejaVuSans-35" x="222.65625"/>
      </g>
     </g>
    </g>
    <g id="xtick_5">
     <g id="line2d_5">
      <g>
       <use xlink:href="#m3f6057b24f" x="599.878152" y="538.331156" style="stroke: #000000; stroke-width: 0.8"/>
      </g>
     </g>
     <g id="text_5">
      <!-- 13.30 -->
      <g transform="translate(585.564089 552.929594) scale(0.1 -0.1)">
       <use xlink:href="#DejaVuSans-31"/>
       <use xlink:href="#DejaVuSans-33" x="63.623047"/>
       <use xlink:href="#DejaVuSans-2e" x="127.246094"/>
       <use xlink:href="#DejaVuSans-33" x="159.033203"/>
       <use xlink:href="#DejaVuSans-30" x="222.65625"/>
      </g>
     </g>
    </g>
   </g>
   <g id="matplotlib.axis_2">
    <g id="ytick_1">
     <g id="line2d_6">
      <defs>
       <path id="m8e2005b26d" d="M 0 0 
L -3.5 0 
" style="stroke: #000000; stroke-width: 0.8"/>
      </defs>
      <g>
       <use xlink:href="#m8e2005b26d" x="90" y="474.481451" style="stroke: #000000; stroke-width: 0.8"/>
      </g>
     </g>
     <g id="text_6">
      <!-- 52.40 -->
      <g transform="translate(54.371875 478.28067) scale(0.1 -0.1)">
       <defs>
        <path id="DejaVuSans-34" d="M 2419 4116 
L 825 1625 
L 2419 1625 
L 2419 4116 
z
M 2253 4666 
L 3047 4666 
L 3047 1625 
L 3713 1625 
L 3713 1100 
L 3047 1100 
L 3047 0 
L 2419 0 
L 2419 1100 
L 313 1100 
L 313 1709 
L 2253 4666 
z
" transform="scale(0.015625)"/>
       </defs>
       <use xlink:href="#DejaVuSans-35"/>
       <use xlink:href="#DejaVuSans-32" x="63.623047"/>
       <use xlink:href="#DejaVuSans-2e" x="127.246094"/>
       <use xlink:href="#DejaVuSans-34" x="159.033203"/>
       <use xlink:href="#DejaVuSans-30" x="222.65625"/>
      </g>
     </g>
    </g>
    <g id="ytick_2">
     <g id="line2d_7">
      <g>
       <use xlink:href="#m8e2005b26d" x="90" y="399.386895" style="stroke: #000000; stroke-width: 0.8"/>
      </g>
     </g>
     <g id="text_7">
      <!-- 52.42 -->
      <g transform="translate(54.371875 403.186114) scale(0.1 -0.1)">
       <use xlink:href="#DejaVuSans-35"/>
       <use xlink:href="#DejaVuSans-32" x="63.623047"/>
       <use xlink:href="#DejaVuSans-2e" x="127.246094"/>
       <use xlink:href="#DejaVuSans-34" x="159.033203"/>
       <use xlink:href="#DejaVuSans-32" x="222.65625"/>
      </g>
     </g>
    </g>
    <g id="ytick_3">
     <g id="line2d_8">
      <g>
       <use xlink:href="#m8e2005b26d" x="90" y="324.292339" style="stroke: #000000; stroke-width: 0.8"/>
      </g>
     </g>
     <g id="text_8">
      <!-- 52.44 -->
      <g transform="translate(54.371875 328.091558) scale(0.1 -0.1)">
       <use xlink:href="#DejaVuSans-35"/>
       <use xlink:href="#DejaVuSans-32" x="63.623047"/>
       <use xlink:href="#DejaVuSans-2e" x="127.246094"/>
       <use xlink:href="#DejaVuSans-34" x="159.033203"/>
       <use xlink:href="#DejaVuSans-34" x="222.65625"/>
      </g>
     </g>
    </g>
    <g id="ytick_4">
     <g id="line2d_9">
      <g>
       <use xlink:href="#m8e2005b26d" x="90" y="249.197783" style="stroke: #000000; stroke-width: 0.8"/>
      </g>
     </g>
     <g id="text_9">
      <!-- 52.46 -->
      <g transform="translate(54.371875 252.997002) scale(0.1 -0.1)">
       <defs>
        <path id="DejaVuSans-36" d="M 2113 2584 
Q 1688 2584 1439 2293 
Q 1191 2003 1191 1497 
Q 1191 994 1439 701 
Q 1688 409 2113 409 
Q 2538 409 2786 701 
Q 3034 994 3034 1497 
Q 3034 2003 2786 2293 
Q 2538 2584 2113 2584 
z
M 3366 4563 
L 3366 3988 
Q 3128 4100 2886 4159 
Q 2644 4219 2406 4219 
Q 1781 4219 1451 3797 
Q 1122 3375 1075 2522 
Q 1259 2794 1537 2939 
Q 1816 3084 2150 3084 
Q 2853 3084 3261 2657 
Q 3669 2231 3669 1497 
Q 3669 778 3244 343 
Q 2819 -91 2113 -91 
Q 1303 -91 875 529 
Q 447 1150 447 2328 
Q 447 3434 972 4092 
Q 1497 4750 2381 4750 
Q 2619 4750 2861 4703 
Q 3103 4656 3366 4563 
z
" transform="scale(0.015625)"/>
       </defs>
       <use xlink:href="#DejaVuSans-35"/>
       <use xlink:href="#DejaVuSans-32" x="63.623047"/>
       <use xlink:href="#DejaVuSans-2e" x="127.246094"/>
       <use xlink:href="#DejaVuSans-34" x="159.033203"/>
       <use xlink:href="#DejaVuSans-36" x="222.65625"/>
      </g>
     </g>
    </g>
   </g>
   <g id="LineCollection_1">
    <path d="M 346.147427 347.975285 
L 346.025871 348.075536 
L 345.798782 348.261771 
L 345.597104 348.43186 
L 344.688062 349.195571 
L 343.725912 350.085066 
L 342.087303 351.832892 
L 341.145069 352.844791 
L 340.456707 353.576963 
" clip-path="url(#p151c81e108)" style="fill: none; stroke: #ff0000; stroke-opacity: 0.7; stroke-width: 0.5"/>
    <path d="M 246.066154 416.98568 
L 247.539253 419.677444 
L 248.328111 420.958933 
L 249.322769 422.993995 
" clip-path="url(#p151c81e108)" style="fill: none; stroke: #ff0000; stroke-opacity: 0.7; stroke-width: 0.5"/>
    <path d="M 314.455066 399.954234 
L 314.674142 399.584018 
" clip-path="url(#p151c81e108)" style="fill: none; stroke: #ff0000; stroke-opacity: 0.7; stroke-width: 0.5"/>
    <path d="M 326.849935 391.249649 
L 326.384541 391.473431 
L 325.442535 391.875938 
L 324.668328 392.109106 
L 324.235441 392.146653 
" clip-path="url(#p151c81e108)" style="fill: none; stroke: #ff0000; stroke-opacity: 0.7; stroke-width: 0.5"/>
    <path d="M 567.869881 255.604851 
L 567.511622 255.602598 
L 567.154506 255.54853 
L 566.686823 255.427628 
L 563.321013 254.341761 
L 562.85539 254.191196 
L 562.122846 253.954273 
L 562.023953 253.922357 
L 561.90171 253.882933 
L 561.672561 253.808965 
" clip-path="url(#p151c81e108)" style="fill: none; stroke: #ff0000; stroke-opacity: 0.7; stroke-width: 0.5"/>
    <path d="M 567.869881 255.604851 
L 568.273696 255.71937 
L 568.615702 255.831261 
L 569.621119 256.083203 
L 569.749314 256.127885 
L 570.01074 256.22776 
" clip-path="url(#p151c81e108)" style="fill: none; stroke: #ff0000; stroke-opacity: 0.7; stroke-width: 0.5"/>
    <path d="M 574.784179 256.447412 
L 574.426835 256.384332 
L 574.196999 256.350915 
" clip-path="url(#p151c81e108)" style="fill: none; stroke: #ff0000; stroke-opacity: 0.7; stroke-width: 0.5"/>
    <path d="M 324.387901 392.528509 
L 324.235441 392.146653 
" clip-path="url(#p151c81e108)" style="fill: none; stroke: #ff0000; stroke-opacity: 0.7; stroke-width: 0.5"/>
    <path d="M 496.346597 314.472224 
L 496.68105 314.401635 
L 499.422366 313.668712 
L 499.56979 313.62666 
L 500.686233 313.276343 
L 501.332245 313.045803 
L 501.985811 312.748804 
L 502.495158 312.467951 
L 502.989854 312.172829 
L 503.534912 311.798107 
L 504.105609 311.353547 
L 504.239299 311.22889 
L 505.064326 310.511362 
L 505.611674 310.038266 
L 506.159021 309.594833 
L 506.723996 309.176556 
L 507.278211 308.776678 
L 507.844788 308.416975 
L 508.544825 308.030613 
L 509.219223 307.685178 
" clip-path="url(#p151c81e108)" style="fill: none; stroke: #ff0000; stroke-opacity: 0.7; stroke-width: 0.5"/>
    <path d="M 315.434156 397.595514 
L 315.234309 397.927432 
L 314.826374 398.607789 
L 314.628129 398.934075 
" clip-path="url(#p151c81e108)" style="fill: none; stroke: #ff0000; stroke-opacity: 0.7; stroke-width: 0.5"/>
    <path d="M 340.613059 376.089185 
L 340.631144 376.588939 
L 340.569793 377.130371 
L 340.46014 377.725119 
L 340.222979 378.359668 
L 339.961324 378.898847 
L 339.692343 379.338151 
L 339.373915 379.762435 
L 338.853809 380.416508 
L 338.710505 380.59636 
L 337.979564 381.469709 
L 337.773765 381.694993 
L 337.375902 382.131293 
L 336.892194 382.630296 
L 334.669611 384.418297 
L 333.613145 385.251471 
" clip-path="url(#p151c81e108)" style="fill: none; stroke: #ff0000; stroke-opacity: 0.7; stroke-width: 0.5"/>
    <path d="M 578.255978 256.536023 
L 577.651172 256.511242 
" clip-path="url(#p151c81e108)" style="fill: none; stroke: #ff0000; stroke-opacity: 0.7; stroke-width: 0.5"/>
    <path d="M 573.560602 256.602107 
L 573.668194 256.594222 
L 573.925958 256.570192 
L 574.20318 256.539778 
L 574.784179 256.447412 
" clip-path="url(#p151c81e108)" style="fill: none; stroke: #ff0000; stroke-opacity: 0.7; stroke-width: 0.5"/>
    <path d="M 414.685366 368.36233 
L 415.137254 368.68411 
L 415.505357 368.815526 
L 415.953811 369.214278 
L 416.584257 370.412787 
L 416.812719 371.057849 
L 417.235305 372.194781 
L 417.510238 372.934087 
L 417.89986 373.982407 
L 418.822407 376.421102 
" clip-path="url(#p151c81e108)" style="fill: none; stroke: #ff0000; stroke-opacity: 0.7; stroke-width: 0.5"/>
    <path d="M 415.815086 367.688357 
L 415.894063 367.903878 
L 416.129393 368.545561 
L 417.035687 370.921553 
L 417.72588 372.812434 
L 418.099249 373.854371 
L 418.426604 374.803941 
L 418.94671 376.286308 
" clip-path="url(#p151c81e108)" style="fill: none; stroke: #ff0000; stroke-opacity: 0.7; stroke-width: 0.5"/>
    <path d="M 421.465516 381.640174 
L 421.388599 381.494491 
" clip-path="url(#p151c81e108)" style="fill: none; stroke: #ff0000; stroke-opacity: 0.7; stroke-width: 0.5"/>
    <path d="M 456.965503 331.186019 
L 456.48912 333.050993 
L 456.462795 333.185787 
L 456.210067 334.309578 
L 456.006557 335.433368 
L 459.782362 335.79232 
L 460.047909 333.427592 
L 460.35947 330.65435 
L 460.192816 330.554474 
L 459.91857 330.626941 
L 459.696746 330.68589 
L 458.646691 330.898783 
L 457.43227 331.124817 
L 457.318726 331.136082 
L 456.965503 331.186019 
" clip-path="url(#p151c81e108)" style="fill: none; stroke: #ff0000; stroke-opacity: 0.7; stroke-width: 0.5"/>
    <path d="M 314.826374 398.607789 
L 315.143199 398.789142 
" clip-path="url(#p151c81e108)" style="fill: none; stroke: #ff0000; stroke-opacity: 0.7; stroke-width: 0.5"/>
    <path d="M 319.103285 394.400992 
L 319.244757 394.760695 
" clip-path="url(#p151c81e108)" style="fill: none; stroke: #ff0000; stroke-opacity: 0.7; stroke-width: 0.5"/>
    <path d="M 314.346558 399.404918 
L 314.132518 399.778889 
" clip-path="url(#p151c81e108)" style="fill: none; stroke: #ff0000; stroke-opacity: 0.7; stroke-width: 0.5"/>
    <path d="M 574.196999 256.350915 
L 573.832101 256.418501 
L 573.720846 256.421504 
L 573.642326 256.439152 
L 573.58853 256.48571 
L 573.567698 256.542782 
L 573.560602 256.602107 
" clip-path="url(#p151c81e108)" style="fill: none; stroke: #ff0000; stroke-opacity: 0.7; stroke-width: 0.5"/>
    <path d="M 324.235441 392.146653 
L 323.93464 392.279946 
L 323.016442 392.686959 
L 322.734184 392.808236 
L 322.075352 393.08909 
L 321.59897 393.289217 
" clip-path="url(#p151c81e108)" style="fill: none; stroke: #ff0000; stroke-opacity: 0.7; stroke-width: 0.5"/>
    <path d="M 324.387901 392.528509 
L 325.049251 392.304727 
L 325.957376 391.898466 
L 326.47794 391.580065 
L 326.849935 391.249649 
" clip-path="url(#p151c81e108)" style="fill: none; stroke: #ff0000; stroke-opacity: 0.7; stroke-width: 0.5"/>
    <path d="M 336.648166 365.755798 
L 336.712034 366.159807 
L 336.93546 367.126274 
L 337.265334 368.321404 
L 337.520351 369.036304 
L 337.809248 369.724545 
L 338.676625 371.391645 
L 339.21825 372.426448 
L 339.584979 373.15937 
L 340.148809 374.211821 
L 340.302186 374.58429 
L 340.421682 374.953379 
L 340.560865 375.643123 
L 340.613059 376.089185 
" clip-path="url(#p151c81e108)" style="fill: none; stroke: #ff0000; stroke-opacity: 0.7; stroke-width: 0.5"/>
    <path d="M 243.659747 481.173878 
L 243.779244 481.271501 
L 246.285688 483.495426 
" clip-path="url(#p151c81e108)" style="fill: none; stroke: #ff0000; stroke-opacity: 0.7; stroke-width: 0.5"/>
    <path d="M 421.388599 381.494491 
L 421.008821 381.203499 
" clip-path="url(#p151c81e108)" style="fill: none; stroke: #ff0000; stroke-opacity: 0.7; stroke-width: 0.5"/>
    <path d="M 421.008821 381.203499 
L 420.61279 380.930906 
" clip-path="url(#p151c81e108)" style="fill: none; stroke: #ff0000; stroke-opacity: 0.7; stroke-width: 0.5"/>
    <path d="M 418.94671 376.286308 
L 418.822407 376.421102 
L 419.969754 378.959298 
L 420.48986 380.593731 
" clip-path="url(#p151c81e108)" style="fill: none; stroke: #ff0000; stroke-opacity: 0.7; stroke-width: 0.5"/>
    <path d="M 314.946099 399.124064 
L 315.143199 398.789142 
L 315.902298 397.499769 
L 316.444151 396.695882 
L 316.572117 396.506268 
L 317.001342 396.067716 
L 317.076657 396.009517 
L 317.32389 395.817651 
L 317.48299 395.695247 
" clip-path="url(#p151c81e108)" style="fill: none; stroke: #ff0000; stroke-opacity: 0.7; stroke-width: 0.5"/>
    <path d="M 507.461576 331.506673 
L 507.218005 331.535585 
L 506.486377 331.621943 
L 506.12743 331.666249 
L 505.883859 331.699666 
L 501.524537 332.300798 
L 501.15735 332.342851 
" clip-path="url(#p151c81e108)" style="fill: none; stroke: #ff0000; stroke-opacity: 0.7; stroke-width: 0.5"/>
    <path d="M 570.082621 255.410732 
L 569.747025 255.41749 
L 568.602654 255.475313 
L 568.287202 255.527504 
L 567.869881 255.604851 
" clip-path="url(#p151c81e108)" style="fill: none; stroke: #ff0000; stroke-opacity: 0.7; stroke-width: 0.5"/>
    <path d="M 577.651172 256.511242 
L 577.396613 256.504859 
L 577.33366 256.503357 
L 577.006991 256.495097 
" clip-path="url(#p151c81e108)" style="fill: none; stroke: #ff0000; stroke-opacity: 0.7; stroke-width: 0.5"/>
    <path d="M 577.006991 256.495097 
L 576.607526 256.484959 
" clip-path="url(#p151c81e108)" style="fill: none; stroke: #ff0000; stroke-opacity: 0.7; stroke-width: 0.5"/>
    <path d="M 431.646501 241.456286 
L 424.103818 251.481409 
L 416.210202 261.76711 
L 408.490793 271.90863 
L 400.820373 282.200339 
L 392.856935 292.366264 
L 389.975978 296.048526 
L 384.375223 303.429945 
L 378.906326 310.535392 
L 377.487023 312.323018 
L 371.76929 319.766015 
L 371.483598 320.03185 
" clip-path="url(#p151c81e108)" style="fill: none; stroke: #ff0000; stroke-opacity: 0.7; stroke-width: 0.5"/>
    <path d="M 317.48299 395.695247 
L 317.914962 395.394117 
L 318.028048 395.334042 
L 318.403248 395.135041 
L 319.244757 394.760695 
" clip-path="url(#p151c81e108)" style="fill: none; stroke: #ff0000; stroke-opacity: 0.7; stroke-width: 0.5"/>
    <path d="M 609.558947 254.264413 
L 609.548645 254.387193 
L 609.526898 254.505467 
L 609.501488 254.60309 
L 609.460969 254.704092 
L 609.417016 254.793079 
L 609.361618 254.882066 
L 609.291339 254.977061 
L 609.216254 255.059665 
L 609.1343 255.133257 
L 609.046624 255.19934 
L 608.954369 255.25491 
L 608.857994 255.299967 
L 608.765968 255.337139 
L 608.673027 255.367928 
L 608.573446 255.386701 
L 608.462649 255.394586 
L 608.35643 255.391958 
L 608.239681 255.378441 
L 608.131173 255.359292 
" clip-path="url(#p151c81e108)" style="fill: none; stroke: #ff0000; stroke-opacity: 0.7; stroke-width: 0.5"/>
    <path d="M 570.01074 256.22776 
L 570.486894 256.425634 
" clip-path="url(#p151c81e108)" style="fill: none; stroke: #ff0000; stroke-opacity: 0.7; stroke-width: 0.5"/>
    <path d="M 570.486894 256.425634 
L 570.678042 256.471067 
L 571.021193 256.511242 
L 571.203184 256.529265 
L 571.377163 256.543533 
L 571.783038 256.564935 
L 572.202878 256.580705 
L 572.697345 256.598727 
L 573.231873 256.608114 
L 573.560602 256.602107 
" clip-path="url(#p151c81e108)" style="fill: none; stroke: #ff0000; stroke-opacity: 0.7; stroke-width: 0.5"/>
    <path d="M 321.361809 393.386465 
L 321.006525 393.548669 
" clip-path="url(#p151c81e108)" style="fill: none; stroke: #ff0000; stroke-opacity: 0.7; stroke-width: 0.5"/>
    <path d="M 542.626652 247.619296 
L 542.131727 247.453712 
" clip-path="url(#p151c81e108)" style="fill: none; stroke: #ff0000; stroke-opacity: 0.7; stroke-width: 0.5"/>
    <path d="M 513.29766 331.017808 
L 512.934135 330.9123 
L 512.601286 330.816179 
L 507.665543 331.479264 
L 507.461576 331.506673 
" clip-path="url(#p151c81e108)" style="fill: none; stroke: #ff0000; stroke-opacity: 0.7; stroke-width: 0.5"/>
    <path d="M 597.280598 257.500989 
L 597.025352 257.518636 
L 596.673044 257.543417 
L 595.935922 257.558436 
L 595.17957 257.505494 
L 594.504715 257.441664 
L 592.322421 257.226893 
L 591.96233 257.189346 
L 589.265424 256.920883 
L 588.547302 256.851796 
L 588.018497 256.799605 
L 587.630249 256.76356 
L 587.175843 256.71963 
L 586.188054 256.623884 
L 585.96623 256.602482 
L 584.973862 256.537525 
L 583.718694 256.502982 
L 583.505112 256.496974 
L 583.283518 256.50148 
L 582.54548 256.51725 
L 581.709235 256.555548 
L 581.425146 256.568314 
L 581.231708 256.573195 
L 581.037126 256.578076 
L 579.961203 256.578452 
" clip-path="url(#p151c81e108)" style="fill: none; stroke: #ff0000; stroke-opacity: 0.7; stroke-width: 0.5"/>
    <path d="M 616.650886 251.703313 
L 616.282096 251.964642 
L 616.001669 252.076533 
L 613.140628 252.913462 
L 612.462109 253.112087 
L 612.17573 253.195818 
L 610.795572 253.599451 
L 610.061197 253.814221 
L 609.156734 254.07893 
L 609.005418 254.123986 
L 608.441817 254.288068 
" clip-path="url(#p151c81e108)" style="fill: none; stroke: #ff0000; stroke-opacity: 0.7; stroke-width: 0.5"/>
    <path d="M 369.689552 322.454025 
L 365.911458 327.372718 
L 361.956866 332.520825 
L 358.67919 336.703216 
L 357.967936 337.567555 
L 356.675225 338.85017 
" clip-path="url(#p151c81e108)" style="fill: none; stroke: #ff0000; stroke-opacity: 0.7; stroke-width: 0.5"/>
    <path d="M 608.441817 254.288068 
L 607.808625 254.472801 
" clip-path="url(#p151c81e108)" style="fill: none; stroke: #ff0000; stroke-opacity: 0.7; stroke-width: 0.5"/>
    <path d="M 574.196999 256.350915 
L 573.792955 256.164681 
L 573.669568 256.101601 
L 573.541372 256.028384 
L 573.292079 255.867306 
L 573.194101 255.810235 
L 573.092918 255.759546 
L 572.969301 255.71111 
L 572.798985 255.658168 
L 572.650187 255.627379 
L 572.494293 255.603725 
" clip-path="url(#p151c81e108)" style="fill: none; stroke: #ff0000; stroke-opacity: 0.7; stroke-width: 0.5"/>
    <path d="M 576.607526 256.484959 
L 576.481391 256.484584 
L 576.097034 256.469189 
L 575.662315 256.455672 
L 574.784179 256.447412 
" clip-path="url(#p151c81e108)" style="fill: none; stroke: #ff0000; stroke-opacity: 0.7; stroke-width: 0.5"/>
    <path d="M 579.961203 256.578452 
L 578.898328 256.56118 
L 578.522899 256.545035 
L 578.255978 256.536023 
" clip-path="url(#p151c81e108)" style="fill: none; stroke: #ff0000; stroke-opacity: 0.7; stroke-width: 0.5"/>
    <path d="M 572.494293 255.603725 
L 571.229052 255.446777 
L 570.910167 255.414486 
L 570.810815 255.406977 
L 570.589221 255.400218 
" clip-path="url(#p151c81e108)" style="fill: none; stroke: #ff0000; stroke-opacity: 0.7; stroke-width: 0.5"/>
    <path d="M 549.749953 249.939718 
L 548.210696 249.438086 
" clip-path="url(#p151c81e108)" style="fill: none; stroke: #ff0000; stroke-opacity: 0.7; stroke-width: 0.5"/>
    <path d="M 557.149561 252.337111 
L 556.438765 252.106947 
L 555.499048 251.802438 
L 554.66578 251.5336 
L 554.415799 251.452873 
L 553.93873 251.298929 
L 553.531024 251.167514 
L 552.241518 250.75149 
L 551.962007 250.661376 
L 549.749953 249.939718 
" clip-path="url(#p151c81e108)" style="fill: none; stroke: #ff0000; stroke-opacity: 0.7; stroke-width: 0.5"/>
    <path d="M 607.808625 254.472801 
L 607.210457 254.654154 
L 606.911259 254.743892 
L 606.216258 254.956034 
L 604.251667 255.530507 
" clip-path="url(#p151c81e108)" style="fill: none; stroke: #ff0000; stroke-opacity: 0.7; stroke-width: 0.5"/>
    <path d="M 321.548836 393.750298 
L 322.021556 393.543037 
L 322.353032 393.397729 
L 322.835595 393.186338 
" clip-path="url(#p151c81e108)" style="fill: none; stroke: #ff0000; stroke-opacity: 0.7; stroke-width: 0.5"/>
    <path d="M 340.456707 353.576963 
L 339.897684 354.202501 
L 339.515617 354.624532 
L 338.931871 355.26997 
L 338.6036 355.631175 
L 338.167965 356.23118 
L 337.94866 356.594638 
L 337.630232 357.204406 
L 337.305853 358.036453 
L 337.16873 358.508798 
L 337.058619 359.00705 
L 336.878917 360.463885 
L 336.807036 361.14274 
L 336.644732 362.746384 
L 336.553851 363.80747 
L 336.542176 364.209226 
L 336.563923 364.870809 
L 336.620009 365.532392 
L 336.648166 365.755798 
" clip-path="url(#p151c81e108)" style="fill: none; stroke: #ff0000; stroke-opacity: 0.7; stroke-width: 0.5"/>
    <path d="M 319.103285 394.400992 
L 318.946246 394.481719 
L 318.376922 394.773461 
L 317.752657 395.126405 
" clip-path="url(#p151c81e108)" style="fill: none; stroke: #ff0000; stroke-opacity: 0.7; stroke-width: 0.5"/>
    <path d="M 321.59897 393.289217 
L 321.361809 393.386465 
" clip-path="url(#p151c81e108)" style="fill: none; stroke: #ff0000; stroke-opacity: 0.7; stroke-width: 0.5"/>
    <path d="M 322.835595 393.186338 
L 323.435137 392.923507 
L 323.954556 392.695595 
L 324.103125 392.639274 
L 324.387901 392.528509 
" clip-path="url(#p151c81e108)" style="fill: none; stroke: #ff0000; stroke-opacity: 0.7; stroke-width: 0.5"/>
    <path d="M 321.006525 393.548669 
L 320.02835 393.966195 
L 319.928999 394.008623 
" clip-path="url(#p151c81e108)" style="fill: none; stroke: #ff0000; stroke-opacity: 0.7; stroke-width: 0.5"/>
    <path d="M 317.752657 395.126405 
L 317.447965 395.338548 
L 317.297793 395.442178 
" clip-path="url(#p151c81e108)" style="fill: none; stroke: #ff0000; stroke-opacity: 0.7; stroke-width: 0.5"/>
    <path d="M 329.687398 388.786923 
L 328.260998 390.008336 
L 326.849935 391.249649 
" clip-path="url(#p151c81e108)" style="fill: none; stroke: #ff0000; stroke-opacity: 0.7; stroke-width: 0.5"/>
    <path d="M 356.675225 338.85017 
L 355.897584 339.559438 
L 353.154666 341.931299 
L 350.1929 344.502162 
L 347.750782 346.655122 
L 347.319268 346.992673 
L 347.190157 347.087292 
" clip-path="url(#p151c81e108)" style="fill: none; stroke: #ff0000; stroke-opacity: 0.7; stroke-width: 0.5"/>
    <path d="M 321.067189 393.961689 
L 321.548836 393.750298 
" clip-path="url(#p151c81e108)" style="fill: none; stroke: #ff0000; stroke-opacity: 0.7; stroke-width: 0.5"/>
    <path d="M 319.928999 394.008623 
L 319.103285 394.400992 
" clip-path="url(#p151c81e108)" style="fill: none; stroke: #ff0000; stroke-opacity: 0.7; stroke-width: 0.5"/>
    <path d="M 319.244757 394.760695 
L 319.768984 394.530906 
L 321.067189 393.961689 
" clip-path="url(#p151c81e108)" style="fill: none; stroke: #ff0000; stroke-opacity: 0.7; stroke-width: 0.5"/>
    <path d="M 317.297793 395.442178 
L 316.801266 395.878853 
L 316.368378 396.314777 
L 315.877574 396.944069 
L 315.434156 397.595514 
" clip-path="url(#p151c81e108)" style="fill: none; stroke: #ff0000; stroke-opacity: 0.7; stroke-width: 0.5"/>
    <path d="M 509.219223 307.685178 
L 509.312851 307.640122 
L 509.609531 307.498944 
L 509.856536 307.382923 
L 510.009683 307.310832 
" clip-path="url(#p151c81e108)" style="fill: none; stroke: #ff0000; stroke-opacity: 0.7; stroke-width: 0.5"/>
    <path d="M 510.009683 307.310832 
L 511.380456 306.666521 
L 513.002353 306.031596 
L 513.212044 305.949368 
L 513.371601 305.89605 
L 514.845617 305.404557 
L 516.655458 304.87927 
L 516.855763 304.821072 
L 517.024248 304.782398 
L 519.679032 304.171879 
L 521.449041 303.601536 
L 522.709932 303.054472 
L 524.024848 302.382752 
L 524.783717 301.931809 
L 524.979902 301.815412 
L 525.266738 301.69038 
L 525.373873 301.685499 
L 525.493827 301.699016 
L 525.585853 301.724548 
" clip-path="url(#p151c81e108)" style="fill: none; stroke: #ff0000; stroke-opacity: 0.7; stroke-width: 0.5"/>
    <path d="M 570.589221 255.400218 
L 570.082621 255.410732 
" clip-path="url(#p151c81e108)" style="fill: none; stroke: #ff0000; stroke-opacity: 0.7; stroke-width: 0.5"/>
    <path d="M 452.036399 215.344407 
L 447.389095 221.397028 
L 439.637638 231.31026 
L 431.646501 241.456286 
" clip-path="url(#p151c81e108)" style="fill: none; stroke: #ff0000; stroke-opacity: 0.7; stroke-width: 0.5"/>
    <path d="M 420.48986 380.593731 
L 420.61279 380.930906 
" clip-path="url(#p151c81e108)" style="fill: none; stroke: #ff0000; stroke-opacity: 0.7; stroke-width: 0.5"/>
    <path d="M 333.613145 385.251471 
L 332.682586 386.078262 
L 332.628332 386.126323 
L 331.24268 387.452868 
L 329.687398 388.786923 
" clip-path="url(#p151c81e108)" style="fill: none; stroke: #ff0000; stroke-opacity: 0.7; stroke-width: 0.5"/>
    <path d="M 561.672561 253.808965 
L 558.347728 252.727228 
L 557.149561 252.337111 
" clip-path="url(#p151c81e108)" style="fill: none; stroke: #ff0000; stroke-opacity: 0.7; stroke-width: 0.5"/>
    <path d="M 604.251667 255.530507 
L 600.706842 256.579578 
L 599.640304 256.891221 
L 599.17697 257.026766 
L 598.696238 257.167193 
" clip-path="url(#p151c81e108)" style="fill: none; stroke: #ff0000; stroke-opacity: 0.7; stroke-width: 0.5"/>
    <path d="M 597.928212 257.377833 
L 597.711196 257.427771 
L 597.280598 257.500989 
" clip-path="url(#p151c81e108)" style="fill: none; stroke: #ff0000; stroke-opacity: 0.7; stroke-width: 0.5"/>
    <path d="M 598.696238 257.167193 
L 598.179337 257.318133 
L 597.928212 257.377833 
" clip-path="url(#p151c81e108)" style="fill: none; stroke: #ff0000; stroke-opacity: 0.7; stroke-width: 0.5"/>
    <path d="M 314.628129 398.934075 
L 314.567465 399.034702 
L 314.546863 399.069245 
L 314.476355 399.187519 
L 314.346558 399.404918 
" clip-path="url(#p151c81e108)" style="fill: none; stroke: #ff0000; stroke-opacity: 0.7; stroke-width: 0.5"/>
    <path d="M 314.674142 399.584018 
L 314.78906 399.389523 
L 314.871242 399.250974 
L 314.886809 399.225066 
L 314.946099 399.124064 
" clip-path="url(#p151c81e108)" style="fill: none; stroke: #ff0000; stroke-opacity: 0.7; stroke-width: 0.5"/>
    <path d="M 346.69157 347.513078 
L 346.230754 347.906949 
L 346.147427 347.975285 
" clip-path="url(#p151c81e108)" style="fill: none; stroke: #ff0000; stroke-opacity: 0.7; stroke-width: 0.5"/>
    <path d="M 347.190157 347.087292 
L 347.075239 347.183413 
L 346.905381 347.335855 
L 346.69157 347.513078 
" clip-path="url(#p151c81e108)" style="fill: none; stroke: #ff0000; stroke-opacity: 0.7; stroke-width: 0.5"/>
    <path d="M 543.167361 247.800274 
L 543.034587 247.755968 
L 542.626652 247.619296 
" clip-path="url(#p151c81e108)" style="fill: none; stroke: #ff0000; stroke-opacity: 0.7; stroke-width: 0.5"/>
    <path d="M 544.799789 248.330066 
L 543.167361 247.800274 
" clip-path="url(#p151c81e108)" style="fill: none; stroke: #ff0000; stroke-opacity: 0.7; stroke-width: 0.5"/>
    <path d="M 546.080138 248.745714 
L 545.392463 248.522308 
" clip-path="url(#p151c81e108)" style="fill: none; stroke: #ff0000; stroke-opacity: 0.7; stroke-width: 0.5"/>
    <path d="M 547.511574 249.207546 
L 546.804899 248.98076 
" clip-path="url(#p151c81e108)" style="fill: none; stroke: #ff0000; stroke-opacity: 0.7; stroke-width: 0.5"/>
    <path d="M 548.210696 249.438086 
L 547.985439 249.364493 
L 547.643203 249.252978 
L 547.511574 249.207546 
" clip-path="url(#p151c81e108)" style="fill: none; stroke: #ff0000; stroke-opacity: 0.7; stroke-width: 0.5"/>
    <path d="M 545.392463 248.522308 
L 544.799789 248.330066 
" clip-path="url(#p151c81e108)" style="fill: none; stroke: #ff0000; stroke-opacity: 0.7; stroke-width: 0.5"/>
    <path d="M 546.804899 248.98076 
L 546.624968 248.920685 
L 546.080138 248.745714 
" clip-path="url(#p151c81e108)" style="fill: none; stroke: #ff0000; stroke-opacity: 0.7; stroke-width: 0.5"/>
    <path d="M 525.585853 301.724548 
L 525.784326 301.779367 
L 526.097031 301.870607 
" clip-path="url(#p151c81e108)" style="fill: none; stroke: #ff0000; stroke-opacity: 0.7; stroke-width: 0.5"/>
    <path d="M 371.483598 320.03185 
L 370.964407 320.717838 
L 369.689552 322.454025 
" clip-path="url(#p151c81e108)" style="fill: none; stroke: #ff0000; stroke-opacity: 0.7; stroke-width: 0.5"/>
   </g>
   <g id="patch_3">
    <path d="M 90 538.331156 
L 90 188.868844 
" style="fill: none; stroke: #000000; stroke-width: 0.8; stroke-linejoin: miter; stroke-linecap: square"/>
   </g>
   <g id="patch_4">
    <path d="M 648 538.331156 
L 648 188.868844 
" style="fill: none; stroke: #000000; stroke-width: 0.8; stroke-linejoin: miter; stroke-linecap: square"/>
   </g>
   <g id="patch_5">
    <path d="M 90 538.331156 
L 648 538.331156 
" style="fill: none; stroke: #000000; stroke-width: 0.8; stroke-linejoin: miter; stroke-linecap: square"/>
   </g>
   <g id="patch_6">
    <path d="M 90 188.868844 
L 648 188.868844 
" style="fill: none; stroke: #000000; stroke-width: 0.8; stroke-linejoin: miter; stroke-linecap: square"/>
   </g>
   <g id="text_10">
    <!-- Zehlendorf_Nord_Wannsee -->
    <g transform="translate(277.956464 339.220791) scale(0.12 -0.12)">
     <defs>
      <path id="DejaVuSans-5a" d="M 359 4666 
L 4025 4666 
L 4025 4184 
L 1075 531 
L 4097 531 
L 4097 0 
L 288 0 
L 288 481 
L 3238 4134 
L 359 4134 
L 359 4666 
z
" transform="scale(0.015625)"/>
      <path id="DejaVuSans-65" d="M 3597 1894 
L 3597 1613 
L 953 1613 
Q 991 1019 1311 708 
Q 1631 397 2203 397 
Q 2534 397 2845 478 
Q 3156 559 3463 722 
L 3463 178 
Q 3153 47 2828 -22 
Q 2503 -91 2169 -91 
Q 1331 -91 842 396 
Q 353 884 353 1716 
Q 353 2575 817 3079 
Q 1281 3584 2069 3584 
Q 2775 3584 3186 3129 
Q 3597 2675 3597 1894 
z
M 3022 2063 
Q 3016 2534 2758 2815 
Q 2500 3097 2075 3097 
Q 1594 3097 1305 2825 
Q 1016 2553 972 2059 
L 3022 2063 
z
" transform="scale(0.015625)"/>
      <path id="DejaVuSans-68" d="M 3513 2113 
L 3513 0 
L 2938 0 
L 2938 2094 
Q 2938 2591 2744 2837 
Q 2550 3084 2163 3084 
Q 1697 3084 1428 2787 
Q 1159 2491 1159 1978 
L 1159 0 
L 581 0 
L 581 4863 
L 1159 4863 
L 1159 2956 
Q 1366 3272 1645 3428 
Q 1925 3584 2291 3584 
Q 2894 3584 3203 3211 
Q 3513 2838 3513 2113 
z
" transform="scale(0.015625)"/>
      <path id="DejaVuSans-6c" d="M 603 4863 
L 1178 4863 
L 1178 0 
L 603 0 
L 603 4863 
z
" transform="scale(0.015625)"/>
      <path id="DejaVuSans-6e" d="M 3513 2113 
L 3513 0 
L 2938 0 
L 2938 2094 
Q 2938 2591 2744 2837 
Q 2550 3084 2163 3084 
Q 1697 3084 1428 2787 
Q 1159 2491 1159 1978 
L 1159 0 
L 581 0 
L 581 3500 
L 1159 3500 
L 1159 2956 
Q 1366 3272 1645 3428 
Q 1925 3584 2291 3584 
Q 2894 3584 3203 3211 
Q 3513 2838 3513 2113 
z
" transform="scale(0.015625)"/>
      <path id="DejaVuSans-64" d="M 2906 2969 
L 2906 4863 
L 3481 4863 
L 3481 0 
L 2906 0 
L 2906 525 
Q 2725 213 2448 61 
Q 2172 -91 1784 -91 
Q 1150 -91 751 415 
Q 353 922 353 1747 
Q 353 2572 751 3078 
Q 1150 3584 1784 3584 
Q 2172 3584 2448 3432 
Q 2725 3281 2906 2969 
z
M 947 1747 
Q 947 1113 1208 752 
Q 1469 391 1925 391 
Q 2381 391 2643 752 
Q 2906 1113 2906 1747 
Q 2906 2381 2643 2742 
Q 2381 3103 1925 3103 
Q 1469 3103 1208 2742 
Q 947 2381 947 1747 
z
" transform="scale(0.015625)"/>
      <path id="DejaVuSans-6f" d="M 1959 3097 
Q 1497 3097 1228 2736 
Q 959 2375 959 1747 
Q 959 1119 1226 758 
Q 1494 397 1959 397 
Q 2419 397 2687 759 
Q 2956 1122 2956 1747 
Q 2956 2369 2687 2733 
Q 2419 3097 1959 3097 
z
M 1959 3584 
Q 2709 3584 3137 3096 
Q 3566 2609 3566 1747 
Q 3566 888 3137 398 
Q 2709 -91 1959 -91 
Q 1206 -91 779 398 
Q 353 888 353 1747 
Q 353 2609 779 3096 
Q 1206 3584 1959 3584 
z
" transform="scale(0.015625)"/>
      <path id="DejaVuSans-72" d="M 2631 2963 
Q 2534 3019 2420 3045 
Q 2306 3072 2169 3072 
Q 1681 3072 1420 2755 
Q 1159 2438 1159 1844 
L 1159 0 
L 581 0 
L 581 3500 
L 1159 3500 
L 1159 2956 
Q 1341 3275 1631 3429 
Q 1922 3584 2338 3584 
Q 2397 3584 2469 3576 
Q 2541 3569 2628 3553 
L 2631 2963 
z
" transform="scale(0.015625)"/>
      <path id="DejaVuSans-66" d="M 2375 4863 
L 2375 4384 
L 1825 4384 
Q 1516 4384 1395 4259 
Q 1275 4134 1275 3809 
L 1275 3500 
L 2222 3500 
L 2222 3053 
L 1275 3053 
L 1275 0 
L 697 0 
L 697 3053 
L 147 3053 
L 147 3500 
L 697 3500 
L 697 3744 
Q 697 4328 969 4595 
Q 1241 4863 1831 4863 
L 2375 4863 
z
" transform="scale(0.015625)"/>
      <path id="DejaVuSans-5f" d="M 3263 -1063 
L 3263 -1509 
L -63 -1509 
L -63 -1063 
L 3263 -1063 
z
" transform="scale(0.015625)"/>
      <path id="DejaVuSans-4e" d="M 628 4666 
L 1478 4666 
L 3547 763 
L 3547 4666 
L 4159 4666 
L 4159 0 
L 3309 0 
L 1241 3903 
L 1241 0 
L 628 0 
L 628 4666 
z
" transform="scale(0.015625)"/>
      <path id="DejaVuSans-57" d="M 213 4666 
L 850 4666 
L 1831 722 
L 2809 4666 
L 3519 4666 
L 4500 722 
L 5478 4666 
L 6119 4666 
L 4947 0 
L 4153 0 
L 3169 4050 
L 2175 0 
L 1381 0 
L 213 4666 
z
" transform="scale(0.015625)"/>
      <path id="DejaVuSans-61" d="M 2194 1759 
Q 1497 1759 1228 1600 
Q 959 1441 959 1056 
Q 959 750 1161 570 
Q 1363 391 1709 391 
Q 2188 391 2477 730 
Q 2766 1069 2766 1631 
L 2766 1759 
L 2194 1759 
z
M 3341 1997 
L 3341 0 
L 2766 0 
L 2766 531 
Q 2569 213 2275 61 
Q 1981 -91 1556 -91 
Q 1019 -91 701 211 
Q 384 513 384 1019 
Q 384 1609 779 1909 
Q 1175 2209 1959 2209 
L 2766 2209 
L 2766 2266 
Q 2766 2663 2505 2880 
Q 2244 3097 1772 3097 
Q 1472 3097 1187 3025 
Q 903 2953 641 2809 
L 641 3341 
Q 956 3463 1253 3523 
Q 1550 3584 1831 3584 
Q 2591 3584 2966 3190 
Q 3341 2797 3341 1997 
z
" transform="scale(0.015625)"/>
      <path id="DejaVuSans-73" d="M 2834 3397 
L 2834 2853 
Q 2591 2978 2328 3040 
Q 2066 3103 1784 3103 
Q 1356 3103 1142 2972 
Q 928 2841 928 2578 
Q 928 2378 1081 2264 
Q 1234 2150 1697 2047 
L 1894 2003 
Q 2506 1872 2764 1633 
Q 3022 1394 3022 966 
Q 3022 478 2636 193 
Q 2250 -91 1575 -91 
Q 1294 -91 989 -36 
Q 684 19 347 128 
L 347 722 
Q 666 556 975 473 
Q 1284 391 1588 391 
Q 1994 391 2212 530 
Q 2431 669 2431 922 
Q 2431 1156 2273 1281 
Q 2116 1406 1581 1522 
L 1381 1569 
Q 847 1681 609 1914 
Q 372 2147 372 2553 
Q 372 3047 722 3315 
Q 1072 3584 1716 3584 
Q 2034 3584 2315 3537 
Q 2597 3491 2834 3397 
z
" transform="scale(0.015625)"/>
     </defs>
     <use xlink:href="#DejaVuSans-5a"/>
     <use xlink:href="#DejaVuSans-65" x="68.505859"/>
     <use xlink:href="#DejaVuSans-68" x="130.029297"/>
     <use xlink:href="#DejaVuSans-6c" x="193.408203"/>
     <use xlink:href="#DejaVuSans-65" x="221.191406"/>
     <use xlink:href="#DejaVuSans-6e" x="282.714844"/>
     <use xlink:href="#DejaVuSans-64" x="346.09375"/>
     <use xlink:href="#DejaVuSans-6f" x="409.570312"/>
     <use xlink:href="#DejaVuSans-72" x="470.751953"/>
     <use xlink:href="#DejaVuSans-66" x="511.865234"/>
     <use xlink:href="#DejaVuSans-5f" x="547.070312"/>
     <use xlink:href="#DejaVuSans-4e" x="597.070312"/>
     <use xlink:href="#DejaVuSans-6f" x="671.875"/>
     <use xlink:href="#DejaVuSans-72" x="733.056641"/>
     <use xlink:href="#DejaVuSans-64" x="772.419922"/>
     <use xlink:href="#DejaVuSans-5f" x="835.896484"/>
     <use xlink:href="#DejaVuSans-57" x="885.896484"/>
     <use xlink:href="#DejaVuSans-61" x="978.398438"/>
     <use xlink:href="#DejaVuSans-6e" x="1039.677734"/>
     <use xlink:href="#DejaVuSans-6e" x="1103.056641"/>
     <use xlink:href="#DejaVuSans-73" x="1166.435547"/>
     <use xlink:href="#DejaVuSans-65" x="1218.535156"/>
     <use xlink:href="#DejaVuSans-65" x="1280.058594"/>
    </g>
   </g>
  </g>
 </g>
 <defs>
  <clipPath id="p151c81e108">
   <rect x="90" y="188.868844" width="558" height="349.462313"/>
  </clipPath>
 </defs>
</svg>
