<?xml version="1.0" encoding="utf-8" standalone="no"?>
<!DOCTYPE svg PUBLIC "-//W3C//DTD SVG 1.1//EN"
  "http://www.w3.org/Graphics/SVG/1.1/DTD/svg11.dtd">
<svg xmlns:xlink="http://www.w3.org/1999/xlink" width="720pt" height="720pt" viewBox="0 0 720 720" xmlns="http://www.w3.org/2000/svg" version="1.1">
 <metadata>
  <rdf:RDF xmlns:dc="http://purl.org/dc/elements/1.1/" xmlns:cc="http://creativecommons.org/ns#" xmlns:rdf="http://www.w3.org/1999/02/22-rdf-syntax-ns#">
   <cc:Work>
    <dc:type rdf:resource="http://purl.org/dc/dcmitype/StillImage"/>
    <dc:date>2024-10-17T11:36:15.682696</dc:date>
    <dc:format>image/svg+xml</dc:format>
    <dc:creator>
     <cc:Agent>
      <dc:title>Matplotlib v3.9.2, https://matplotlib.org/</dc:title>
     </cc:Agent>
    </dc:creator>
   </cc:Work>
  </rdf:RDF>
 </metadata>
 <defs>
  <style type="text/css">*{stroke-linejoin: round; stroke-linecap: butt}</style>
 </defs>
 <g id="figure_1">
  <g id="patch_1">
   <path d="M 0 720 
L 720 720 
L 720 0 
L 0 0 
z
" style="fill: #ffffff"/>
  </g>
  <g id="axes_1">
   <g id="patch_2">
    <path d="M 232.749128 640.8 
L 505.250872 640.8 
L 505.250872 86.4 
L 232.749128 86.4 
z
" style="fill: #ffffff"/>
   </g>
   <g id="PatchCollection_1">
    <path d="M 326.575386 611.549699 
L 326.658387 611.553148 
L 331.174769 611.744688 
L 332.487515 611.789454 
L 332.783925 611.804572 
L 332.97341 611.814185 
L 337.48693 612.04374 
L 338.77678 612.109715 
L 344.441962 613.240608 
L 350.181411 614.973569 
L 356.229747 615.385563 
L 358.355181 615.471279 
L 358.412643 615.473554 
L 358.561545 615.479572 
L 358.63618 615.482581 
L 359.398157 615.505111 
L 359.68965 615.517513 
L 361.625452 615.6 
L 363.822585 615.586277 
L 364.715337 615.580699 
L 364.806924 615.580112 
L 365.177455 615.577837 
L 366.489394 615.569691 
L 367.740863 615.561912 
L 368.304181 615.505478 
L 370.167991 615.319075 
L 371.445071 615.191308 
L 373.057016 615.030003 
L 374.841788 614.768012 
L 376.428855 614.50969 
L 378.86222 614.10973 
L 379.952678 613.786828 
L 382.790186 612.9464 
L 384.173457 612.536827 
L 385.950082 611.728029 
L 388.583061 610.529399 
L 388.707745 610.474579 
L 389.083267 610.309679 
L 390.13637 611.477413 
L 391.385857 612.911835 
L 391.726005 613.284787 
L 393.750532 612.887764 
L 395.343177 612.586657 
L 396.318857 612.399006 
L 396.54709 612.367817 
L 396.702083 611.859098 
L 396.794918 611.828129 
L 398.04584 611.407503 
L 398.453831 611.270314 
L 398.67179 611.204193 
L 398.95367 610.527565 
L 402.115401 605.462835 
L 401.720165 605.089178 
L 401.829412 604.8673 
L 401.966352 604.570303 
L 402.095733 604.26993 
L 402.217556 603.966328 
L 402.331599 603.65979 
L 402.43779 603.350464 
L 402.536202 603.038496 
L 402.626688 602.72418 
L 402.660226 602.480975 
L 402.685912 602.236743 
L 402.703745 601.991851 
L 402.713579 601.746518 
L 402.715487 601.501039 
L 402.709469 601.255559 
L 402.695599 601.010373 
L 402.673729 600.765848 
L 402.639751 600.469731 
L 402.621771 600.31261 
L 402.493785 599.196687 
L 401.987047 595.325083 
L 401.498437 592.059362 
L 401.423509 591.749156 
L 401.341535 591.440637 
L 401.25259 591.134099 
L 401.156747 590.82969 
L 401.054079 590.527482 
L 400.944585 590.227697 
L 400.828267 589.930479 
L 400.705344 589.635904 
L 400.575742 589.344264 
L 400.416713 589.00617 
L 400.24961 588.671892 
L 400.074582 588.341798 
L 399.891775 588.015886 
L 399.701189 587.694525 
L 399.502971 587.377786 
L 399.297194 587.065818 
L 399.084078 586.758914 
L 398.863697 586.45722 
L 398.636124 586.16081 
L 398.401579 585.869977 
L 398.160063 585.584795 
L 397.911868 585.305485 
L 397.657068 585.032191 
L 397.107038 584.522551 
L 392.935937 580.65774 
L 390.134829 578.04619 
L 385.444006 573.705057 
L 385.328935 573.503389 
L 385.29459 573.407105 
L 385.169905 573.322784 
L 385.074576 573.276256 
L 384.707934 572.892222 
L 384.149973 572.196 
L 383.879615 571.841174 
L 383.615129 571.481871 
L 383.356586 571.118312 
L 383.141856 570.822196 
L 382.934244 570.520942 
L 382.733898 570.214918 
L 382.540963 569.904124 
L 382.355441 569.58878 
L 382.177624 569.26918 
L 382.00744 568.945323 
L 381.845035 568.617504 
L 381.690555 568.285941 
L 381.557504 567.93838 
L 381.4326 567.587884 
L 381.315914 567.234452 
L 381.207595 566.878452 
L 381.107642 566.519957 
L 381.016129 566.15926 
L 380.933054 565.796508 
L 380.858567 565.431921 
L 380.795289 565.080689 
L 380.735203 564.697978 
L 380.686474 564.329062 
L 380.697482 563.730664 
L 380.661669 563.228257 
L 379.827553 563.247484 
L 379.766128 563.067099 
L 379.719087 562.480443 
L 380.035532 562.47149 
L 380.090498 562.469876 
L 380.084994 562.208691 
L 380.52517 562.208838 
L 380.522674 562.149101 
L 380.914854 562.127746 
L 380.87684 560.34591 
L 380.889169 559.337132 
L 380.969161 559.176635 
L 380.991177 558.934678 
L 380.849173 558.77308 
L 380.709738 558.232951 
L 380.731167 557.937495 
L 380.752156 557.641966 
L 380.772704 557.346437 
L 380.828992 556.502413 
L 380.881684 555.658095 
L 380.930779 554.813631 
L 380.784299 551.227356 
L 380.627398 549.628841 
L 380.663798 548.123747 
L 380.456112 547.459375 
L 380.584173 546.876975 
L 380.8036 545.882215 
L 380.675173 545.607014 
L 381.280615 543.632904 
L 381.625534 542.190849 
L 381.59251 541.11573 
L 382.062187 537.897711 
L 382.410775 535.938278 
L 382.311702 533.366064 
L 382.458476 529.311433 
L 382.546541 528.944498 
L 382.476823 527.645548 
L 382.469044 527.479841 
L 382.499573 527.034822 
L 382.661758 525.683401 
L 382.638201 525.397485 
L 382.601508 525.034733 
L 382.475942 524.640278 
L 382.461045 524.560286 
L 382.453486 524.479267 
L 382.453339 524.397954 
L 382.460531 524.316935 
L 382.475062 524.23687 
L 382.496858 524.158492 
L 382.525625 524.08239 
L 382.561145 524.009223 
L 382.603196 523.939579 
L 383.371631 522.916711 
L 383.802559 522.401534 
L 384.260934 521.907493 
L 386.289057 519.905643 
L 386.759101 519.389512 
L 387.099323 518.928348 
L 387.405126 518.399008 
L 387.948484 517.336731 
L 388.559504 516.175823 
L 389.878194 513.523397 
L 390.548951 512.296073 
L 391.086585 511.322154 
L 392.261363 508.897228 
L 392.973878 507.518433 
L 393.514311 506.464805 
L 393.978692 505.527297 
L 394.201569 505.033697 
L 394.331243 504.712041 
L 394.574741 504.107846 
L 394.652605 503.914545 
L 395.081332 502.760461 
L 395.251443 502.23046 
L 395.559742 501.229388 
L 395.682738 500.793103 
L 395.801332 500.35557 
L 395.915302 499.916862 
L 396.024795 499.476981 
L 396.129738 499.035998 
L 396.566611 496.974117 
L 397.245734 493.680436 
L 397.401828 492.923376 
L 397.709246 491.410209 
L 398.377597 488.175755 
L 398.994986 485.255903 
L 399.706442 483.196811 
L 399.718435 483.162099 
L 399.82059 482.960212 
L 399.92935 482.761847 
L 400.044494 482.567151 
L 400.166023 482.376271 
L 400.293716 482.189575 
L 400.427427 482.007061 
L 400.567083 481.829098 
L 401.203788 481.112107 
L 402.306721 479.763328 
L 403.382941 478.10691 
L 404.159889 476.475517 
L 404.868147 475.212821 
L 406.311082 471.672045 
L 406.753385 470.512824 
L 407.480137 468.389299 
L 407.897562 467.36599 
L 408.096 467.037877 
L 408.299869 466.713066 
L 408.509169 466.391778 
L 408.723679 466.073939 
L 408.943547 465.759769 
L 410.110693 464.718628 
L 411.034562 463.296462 
L 411.293031 462.706724 
L 411.525888 462.102015 
L 411.553261 461.874589 
L 411.616521 461.349505 
L 411.709649 459.716865 
L 411.818335 459.408713 
L 411.93392 459.080966 
L 411.99828 458.898453 
L 412.452566 457.610187 
L 413.506741 457.8842 
L 413.613568 457.381235 
L 413.656679 457.178262 
L 413.855852 456.240523 
L 413.946778 455.81253 
L 413.679429 455.746849 
L 413.524289 455.705825 
L 413.167604 455.611568 
L 413.36159 455.294932 
L 413.615216 454.337965 
L 413.741074 453.859482 
L 413.756045 453.767455 
L 413.792592 453.5197 
L 413.819672 453.270772 
L 413.837358 453.021036 
L 413.845651 452.770786 
L 413.844403 452.52039 
L 413.833689 452.270214 
L 413.807812 451.972607 
L 413.784006 451.771916 
L 413.745037 451.524602 
L 413.696749 451.278902 
L 413.639213 451.035184 
L 413.348821 450.253319 
L 413.25606 450.041744 
L 413.155813 449.833692 
L 413.048154 449.629309 
L 412.93323 449.428963 
L 412.811114 449.232873 
L 412.546261 448.85449 
L 412.403817 448.672637 
L 412.256089 448.537972 
L 412.100655 448.363898 
L 411.937956 448.187182 
L 411.563829 447.829861 
L 411.19638 447.491106 
L 410.842435 447.123807 
L 410.819025 447.099513 
L 410.453264 446.727882 
L 410.206977 446.463101 
L 409.969864 446.199715 
L 409.753812 445.967299 
L 409.534826 445.710371 
L 409.310335 445.416162 
L 409.092742 445.123789 
L 408.879994 444.826351 
L 408.760666 444.492807 
L 408.650659 444.16286 
L 408.547991 443.831811 
L 408.45068 443.495111 
L 408.359093 443.153788 
L 408.275945 442.814741 
L 407.936677 441.004944 
L 407.443884 435.364273 
L 407.268342 433.3305 
L 407.251243 433.208898 
L 407.240381 433.086415 
L 407.235758 432.962317 
L 407.237299 432.835945 
L 407.244858 432.706931 
L 407.257554 432.576669 
L 407.276708 432.445012 
L 407.302687 432.312696 
L 407.334831 432.183681 
L 407.373872 432.059144 
L 407.420033 431.940477 
L 408.52348 428.787478 
L 409.889138 424.550994 
L 410.76259 421.643402 
L 411.440025 419.554955 
L 411.650433 418.838689 
L 410.776712 418.50755 
L 410.940333 418.023882 
L 411.795805 415.49504 
L 412.088473 414.699305 
L 412.415338 413.913697 
L 412.781466 413.146436 
L 413.187663 412.398183 
L 413.621233 411.664386 
L 414.096194 410.957669 
L 414.607334 410.275097 
L 415.146949 409.612412 
L 415.718266 408.981505 
L 416.318205 408.382373 
L 416.952562 407.808634 
L 417.602257 407.268946 
L 418.264281 406.744889 
L 418.993968 406.287835 
L 419.720426 405.83922 
L 420.462442 405.429648 
L 421.606398 404.846221 
L 422.354285 404.415073 
L 423.061002 403.914353 
L 423.722732 403.354557 
L 424.310048 402.727172 
L 424.85524 402.05869 
L 424.973026 401.879919 
L 425.088097 401.699461 
L 425.200526 401.517241 
L 425.334222 401.289158 
L 425.722748 400.568934 
L 426.610363 398.682595 
L 426.963208 398.029377 
L 427.366983 397.406909 
L 427.841797 396.836031 
L 428.369156 396.316378 
L 428.937098 395.845234 
L 429.56052 395.438596 
L 430.217701 395.091476 
L 430.582948 394.9505 
L 430.90519 394.817596 
L 431.621227 394.609837 
L 432.349079 394.47708 
L 433.090801 394.426516 
L 433.833624 394.433415 
L 434.564265 394.527864 
L 434.918577 394.590243 
L 434.950427 394.683371 
L 435.073938 395.044582 
L 435.182917 395.052434 
L 437.391572 395.210583 
L 437.38805 394.845189 
L 439.360668 394.717639 
L 442.599773 394.508196 
L 443.992365 394.420572 
L 445.029396 394.345644 
L 446.05065 394.279596 
L 447.588621 394.177294 
L 449.128133 394.068168 
L 450.671241 393.966967 
L 450.663609 393.459423 
L 450.756003 393.424491 
L 451.687724 393.009634 
L 452.772085 392.36724 
L 453.403732 391.912498 
L 454.163655 391.231908 
L 454.847841 390.483434 
L 455.204429 390.015885 
L 455.469796 389.667737 
L 455.97668 388.782103 
L 456.075954 388.567064 
L 456.403425 387.857721 
L 457.456088 385.193993 
L 457.763947 384.415064 
L 457.987117 383.897318 
L 458.235091 383.389921 
L 458.500092 382.894705 
L 458.951789 382.11284 
L 459.429611 381.240343 
L 459.840578 380.335701 
L 459.929377 380.102918 
L 459.985881 379.954706 
L 460.160966 379.495455 
L 460.192175 379.413594 
L 460.355828 378.894894 
L 460.491448 378.46492 
L 460.729515 377.500688 
L 460.899773 376.527944 
L 461.005597 375.538027 
L 461.437332 370.369088 
L 461.48819 369.760489 
L 461.598637 368.989412 
L 461.831421 368.242846 
L 462.157406 367.526883 
L 462.589068 366.870363 
L 463.104465 366.27835 
L 464.180318 365.196773 
L 464.926609 364.326147 
L 465.476039 363.509679 
L 465.938817 362.5533 
L 466.261866 361.538285 
L 466.450838 360.487677 
L 466.460053 360.292574 
L 465.918048 358.190224 
L 465.89706 358.109645 
L 465.577533 358.090124 
L 465.488955 358.085647 
L 465.425255 357.761717 
L 465.280095 356.377418 
L 465.249312 356.315715 
L 465.197241 356.211343 
L 465.180509 356.025014 
L 465.169281 355.904512 
L 464.847259 352.367406 
L 464.77989 351.976254 
L 464.615649 351.595962 
L 464.112728 350.466316 
L 464.005437 350.096373 
L 463.707119 349.47229 
L 463.485123 349.040334 
L 463.235681 348.373026 
L 462.999595 347.698526 
L 462.704872 347.002964 
L 462.109117 345.59731 
L 461.863344 345.120735 
L 461.401299 344.555508 
L 460.003938 342.904888 
L 458.501339 341.130024 
L 457.751031 340.213641 
L 457.67779 340.077508 
L 456.188768 337.309717 
L 456.079715 337.107023 
L 454.461606 334.463403 
L 452.800565 331.862128 
L 449.982504 329.214472 
L 447.946015 327.301567 
L 446.631581 326.060153 
L 446.276094 325.724407 
L 446.115964 325.519804 
L 445.947468 325.30456 
L 445.727893 324.912389 
L 444.324661 322.406141 
L 443.683699 321.261598 
L 441.042355 317.656976 
L 439.453159 315.928419 
L 438.70608 315.117859 
L 438.266198 312.077583 
L 437.832592 308.377484 
L 437.501653 305.55348 
L 437.585953 304.811944 
L 437.505028 303.387536 
L 437.505616 303.041664 
L 437.506349 302.547476 
L 437.506937 302.21672 
L 437.507083 302.091963 
L 437.521541 302.004412 
L 437.573132 301.699709 
L 437.528659 301.508903 
L 437.283913 300.457121 
L 437.242523 300.27901 
L 437.156514 299.887784 
L 436.965414 299.131385 
L 436.46741 297.145973 
L 436.782607 294.299585 
L 436.9012 294.260984 
L 436.965146 293.961457 
L 437.090979 293.372047 
L 437.131562 293.182195 
L 437.488516 292.76044 
L 438.258933 291.850295 
L 439.03845 290.358484 
L 439.068025 290.368538 
L 439.16152 290.122031 
L 439.225807 289.95236 
L 439.311302 289.967478 
L 439.533298 289.368053 
L 439.655766 289.188396 
L 439.605878 289.151415 
L 439.550838 289.110905 
L 439.791253 288.674326 
L 439.920341 288.434791 
L 439.978684 288.251837 
L 440.079297 288.020228 
L 440.145419 287.851438 
L 440.258802 287.515472 
L 440.353471 287.218255 
L 441.192284 284.584029 
L 441.968132 281.944152 
L 442.425773 280.360167 
L 442.785663 279.114276 
L 442.807312 279.026799 
L 443.255046 278.419375 
L 444.48237 274.188909 
L 445.839589 269.510855 
L 446.04177 268.840905 
L 446.723498 266.543186 
L 447.187854 264.979649 
L 447.338445 264.411927 
L 447.831018 262.884597 
L 448.162727 261.840888 
L 448.203604 261.546386 
L 448.232885 261.289091 
L 448.242352 260.971766 
L 448.373054 260.041585 
L 448.371587 259.953007 
L 448.370926 259.910883 
L 448.305245 259.450747 
L 448.247049 259.043229 
L 448.194797 258.422815 
L 448.175203 257.729895 
L 449.850701 249.42902 
L 449.907943 249.276081 
L 449.968487 249.124464 
L 450.032407 248.974241 
L 450.099557 248.825412 
L 450.430018 248.171827 
L 451.138936 247.050841 
L 451.376637 246.695795 
L 451.837287 246.144879 
L 452.566754 245.08884 
L 453.105634 242.972066 
L 453.167646 242.160552 
L 453.157886 241.428664 
L 453.234282 240.204716 
L 453.377093 238.895639 
L 453.452681 238.135276 
L 452.915929 238.119645 
L 452.978088 237.81751 
L 454.380278 230.467634 
L 455.227252 226.028038 
L 455.479483 223.519817 
L 456.314187 216.187063 
L 456.107969 212.037836 
L 455.899404 208.036777 
L 455.893459 207.392586 
L 455.890964 207.276048 
L 455.998623 206.845266 
L 458.021242 198.495515 
L 459.014094 194.20832 
L 459.272416 194.213017 
L 460.23474 190.448925 
L 460.469725 189.761142 
L 460.587731 189.547586 
L 460.724304 189.277962 
L 461.056527 188.772986 
L 461.248581 188.460798 
L 461.339214 188.313437 
L 461.435424 188.190294 
L 461.537726 188.06715 
L 461.643697 187.947163 
L 461.753337 187.830477 
L 461.866426 187.717168 
L 461.982891 187.607308 
L 462.028669 187.557212 
L 462.086367 187.494071 
L 462.905672 186.733158 
L 462.932791 186.707972 
L 462.976037 186.667807 
L 463.707192 185.976135 
L 475.202163 174.064106 
L 475.297419 173.99182 
L 477.945955 171.176255 
L 478.308487 170.790679 
L 478.499954 170.587251 
L 478.644967 170.321883 
L 478.869384 169.987826 
L 479.351757 169.26944 
L 483.639905 164.062927 
L 488.558374 158.090914 
L 488.606736 158.024939 
L 491.184968 154.856676 
L 491.65259 154.685538 
L 491.928745 154.402998 
L 491.980777 154.340766 
L 492.12645 154.122146 
L 492.224421 154.056171 
L 492.864429 153.45227 
L 492.38779 153.381585 
L 491.80707 153.733268 
L 491.750415 153.60308 
L 491.686128 153.476487 
L 491.614282 153.354078 
L 491.535171 153.236145 
L 491.449161 153.123202 
L 491.356473 153.015617 
L 491.257474 152.913829 
L 491.152604 152.818133 
L 491.042084 152.728967 
L 490.926426 152.646627 
L 490.806071 152.571332 
L 488.581785 151.213233 
L 487.213851 150.612267 
L 484.234266 149.20309 
L 482.373026 148.217062 
L 481.065416 147.633709 
L 480.635662 147.327538 
L 480.205321 147.077215 
L 479.477322 146.715271 
L 478.258144 145.919095 
L 475.350266 143.876178 
L 474.948537 143.661491 
L 473.923688 143.113804 
L 473.093094 142.630404 
L 469.833391 140.641837 
L 467.130988 139.271922 
L 466.248143 138.783899 
L 464.600238 137.91441 
L 463.911648 137.49148 
L 462.425268 136.465457 
L 461.919632 136.050233 
L 460.715131 134.838614 
L 459.799482 133.737883 
L 458.208085 130.287006 
L 457.833077 129.62667 
L 457.247302 128.519628 
L 455.972644 126.45804 
L 455.532469 125.568443 
L 455.127666 125.248476 
L 454.942878 125.007913 
L 454.041979 123.835336 
L 453.607821 123.376814 
L 452.62539 122.491547 
L 451.190161 121.609949 
L 450.329258 120.921946 
L 449.217812 120.004389 
L 448.150618 119.427567 
L 447.88914 119.286297 
L 447.331032 118.984603 
L 446.683099 119.113471 
L 446.496329 119.150751 
L 445.792181 119.290553 
L 443.980696 119.654846 
L 442.798725 119.904436 
L 442.284796 120.01026 
L 441.365991 120.203708 
L 440.05574 120.477368 
L 439.899793 120.486688 
L 438.837002 120.549801 
L 438.67878 120.559194 
L 437.373225 120.178169 
L 436.733805 120.028313 
L 436.630696 120.686374 
L 434.684326 119.987803 
L 433.826212 119.679798 
L 432.608722 119.301488 
L 431.925416 119.100188 
L 429.928776 118.510376 
L 429.767545 118.462822 
L 428.358368 118.046864 
L 426.967024 117.636264 
L 426.753688 117.573591 
L 425.542583 117.252156 
L 424.975154 117.10164 
L 424.128562 116.876415 
L 422.711606 116.49994 
L 421.262874 116.115025 
L 421.106853 116.073488 
L 419.828525 115.733633 
L 419.70751 115.701856 
L 418.803529 115.504886 
L 418.301488 115.384604 
L 416.873011 115.043795 
L 416.656666 114.992938 
L 415.490693 114.54014 
L 413.983618 113.955907 
L 412.557195 113.402862 
L 410.355879 112.549885 
L 410.33445 111.946057 
L 409.769958 111.834362 
L 408.620275 111.6 
L 407.674245 113.609226 
L 407.158482 115.119237 
L 406.913442 115.540845 
L 406.650277 115.993643 
L 406.379038 117.065607 
L 403.758389 116.673794 
L 403.090274 116.758042 
L 402.763335 116.800606 
L 401.544891 116.959489 
L 401.355552 116.984074 
L 401.126805 117.013942 
L 400.943631 117.037866 
L 400.389413 117.287749 
L 397.725905 117.400105 
L 396.259633 117.462043 
L 394.788371 117.517157 
L 393.322539 117.578215 
L 391.487718 117.652849 
L 390.298555 117.70877 
L 390.098869 117.71699 
L 388.860831 117.767847 
L 387.372396 117.828978 
L 385.913829 117.888862 
L 384.454015 117.948819 
L 381.572255 118.067192 
L 381.435315 118.07277 
L 381.071169 118.087741 
L 380.801178 118.098822 
L 379.885896 118.13647 
L 379.647535 118.14623 
L 379.406238 118.156064 
L 378.65593 118.186813 
L 377.502433 118.233854 
L 376.169799 118.288381 
L 374.859694 118.34188 
L 373.539536 118.395893 
L 372.226275 118.449539 
L 370.906264 118.503478 
L 369.596453 118.556977 
L 368.271524 118.611137 
L 366.918635 118.666397 
L 365.518411 118.723639 
L 365.253778 118.734427 
L 365.136505 118.73927 
L 363.843133 118.792182 
L 363.365143 118.812022 
L 362.884111 118.770537 
L 362.308755 118.646503 
L 361.847513 118.464761 
L 361.363162 118.241254 
L 360.926572 117.954277 
L 360.689698 117.732773 
L 360.709957 117.529468 
L 359.697209 118.490195 
L 359.606209 118.598441 
L 359.404422 118.651143 
L 358.838838 118.798861 
L 357.149716 119.671238 
L 356.636404 119.898814 
L 356.492399 120.204001 
L 355.042345 120.257867 
L 353.573725 120.30777 
L 352.058284 120.373819 
L 350.517377 120.4304 
L 349.4813 120.496448 
L 348.752787 120.529619 
L 344.668801 120.680283 
L 343.375649 120.734809 
L 340.500273 120.846431 
L 339.812857 120.87307 
L 338.386728 120.928404 
L 338.280317 121.132787 
L 338.04724 121.580374 
L 332.782164 121.378633 
L 332.595027 121.367919 
L 332.407523 121.364323 
L 332.220093 121.367992 
L 332.150613 121.372025 
L 332.032956 121.378854 
L 331.846333 121.396907 
L 331.660517 121.422152 
L 331.475876 121.454516 
L 331.207353 121.495245 
L 330.940517 121.545442 
L 330.67559 121.605179 
L 330.413012 121.67431 
L 330.153002 121.752834 
L 329.896 121.840458 
L 329.642302 121.937255 
L 329.392199 122.043006 
L 329.145985 122.157636 
L 328.904029 122.281 
L 328.666622 122.412876 
L 328.434132 122.553119 
L 328.206705 122.701581 
L 327.984783 122.858042 
L 327.774309 122.991019 
L 327.568826 123.131408 
L 327.368479 123.279136 
L 327.173563 123.433983 
L 326.984298 123.595654 
L 326.801051 123.764077 
L 326.623895 123.939032 
L 326.453197 124.120151 
L 326.289103 124.307361 
L 326.131835 124.500296 
L 325.981612 124.698734 
L 325.838581 124.902456 
L 325.702961 125.111242 
L 325.574975 125.324725 
L 325.420348 125.575855 
L 325.273427 125.831536 
L 325.134506 126.091619 
L 325.00351 126.355886 
L 324.88066 126.623968 
L 324.766103 126.89572 
L 324.659839 127.170775 
L 324.562161 127.448985 
L 324.472922 127.73013 
L 324.392343 128.013771 
L 324.320497 128.299834 
L 324.257458 128.587878 
L 324.043535 129.936877 
L 323.978514 130.371328 
L 323.850821 131.206178 
L 323.846858 131.245954 
L 323.850527 131.28573 
L 323.861755 131.324038 
L 323.880102 131.359557 
L 323.904834 131.390967 
L 323.935069 131.417019 
L 323.969781 131.436834 
L 324.007649 131.449676 
L 324.047204 131.455107 
L 324.343394 131.492388 
L 324.65861 131.532009 
L 324.613312 131.817125 
L 324.469913 132.750534 
L 323.904907 136.498334 
L 323.797982 137.195951 
L 323.682838 137.947947 
L 323.461209 139.397267 
L 323.23848 140.847394 
L 323.015383 142.29686 
L 322.77805 143.762032 
L 322.555394 145.211351 
L 322.183762 147.582998 
L 321.934173 149.236481 
L 321.773162 150.3025 
L 320.74978 150.171358 
L 320.566386 151.364777 
L 320.39378 152.487744 
L 320.190278 153.811939 
L 319.988097 155.127107 
L 319.786649 156.438313 
L 319.587624 157.733153 
L 319.385956 159.045385 
L 319.186344 160.344262 
L 318.98475 161.655614 
L 318.784183 162.961022 
L 318.53408 164.588525 
L 318.283904 166.216028 
L 318.111885 167.335326 
L 317.802192 169.35024 
L 317.606982 170.620422 
L 317.409058 171.907996 
L 317.202473 173.252372 
L 317.007191 174.523435 
L 316.803175 175.850712 
L 316.604443 177.143644 
L 316.408133 178.420798 
L 316.202062 179.761798 
L 316.002743 181.058693 
L 315.748604 182.712029 
L 315.672061 183.210179 
L 315.504282 184.30188 
L 315.499161 184.335202 
L 315.330665 185.431677 
L 314.159482 185.713777 
L 313.745359 188.407519 
L 313.517713 189.880836 
L 313.296378 191.322671 
L 313.278251 191.441117 
L 312.625987 195.682004 
L 312.401276 197.141158 
L 312.180015 198.579616 
L 312.010711 199.67844 
L 311.961395 200.052273 
L 311.910684 200.440123 
L 310.479785 209.725999 
L 309.267579 217.592717 
L 309.106201 218.514825 
L 309.087267 218.643105 
L 305.4494 218.575956 
L 305.367868 219.041156 
L 305.168402 220.394779 
L 305.018325 221.360919 
L 304.602074 224.040938 
L 304.392261 225.391846 
L 304.169385 226.827002 
L 303.940344 228.301273 
L 303.715706 229.748171 
L 303.492023 231.18839 
L 303.26445 232.653121 
L 303.038565 234.107284 
L 302.812092 235.565924 
L 302.587455 236.994696 
L 302.355992 238.458326 
L 302.128052 239.914103 
L 301.901066 241.36445 
L 301.432344 244.358639 
L 301.264214 245.432658 
L 300.818461 248.279926 
L 300.59309 249.719559 
L 300.360894 251.203297 
L 300.146237 252.57468 
L 299.932313 253.940852 
L 299.902665 254.130484 
L 299.783044 254.894662 
L 299.67612 255.577528 
L 299.452216 257.008281 
L 299.227798 258.441309 
L 299.091152 259.3141 
L 298.999345 259.900609 
L 298.874147 260.700527 
L 298.683487 261.933575 
L 298.658682 262.110438 
L 298.54618 262.794772 
L 298.127608 262.753302 
L 297.665749 265.532851 
L 296.999182 267.447213 
L 296.863857 268.280816 
L 296.603406 270.010914 
L 295.765914 275.573134 
L 295.441062 277.182896 
L 295.352136 277.623553 
L 294.927101 280.338078 
L 294.773428 281.394777 
L 294.603831 282.521121 
L 294.560092 282.829786 
L 294.437756 283.60967 
L 294.385332 284.184411 
L 294.389378 284.710366 
L 294.42579 285.28487 
L 294.276011 286.23619 
L 294.203271 286.539068 
L 293.851286 287.809451 
L 293.717977 288.377109 
L 293.623674 289.159414 
L 293.566653 289.440853 
L 293.48945 289.946416 
L 293.451215 290.298307 
L 292.869336 293.894414 
L 292.485793 296.40443 
L 292.446954 296.864033 
L 292.434007 297.880339 
L 291.819045 301.926142 
L 291.639614 303.160181 
L 291.482839 304.424495 
L 291.407486 305.494104 
L 291.407093 306.178229 
L 291.499168 307.016651 
L 290.629706 307.160911 
L 289.586592 313.548579 
L 289.726458 313.568733 
L 289.566328 314.510142 
L 289.536533 314.750631 
L 289.524204 314.858583 
L 289.401202 315.7028 
L 289.255194 316.704919 
L 287.700757 316.558079 
L 284.400912 316.26365 
L 278.687293 315.767396 
L 273.820192 315.342587 
L 273.07981 315.342587 
L 271.623321 315.229304 
L 270.421718 315.027014 
L 269.451248 314.930135 
L 268.09513 314.808753 
L 267.347977 314.743072 
L 265.312002 314.563788 
L 260.863356 314.164342 
L 250.927859 313.273791 
L 250.92874 313.568513 
L 250.945839 319.464424 
L 250.953398 321.959508 
L 250.955012 322.338185 
L 250.983193 330.039122 
L 250.097412 330.35175 
L 250.504049 337.599082 
L 250.73764 342.563198 
L 249.862206 344.491882 
L 249.729743 344.783595 
L 249.289421 345.814389 
L 245.135571 349.438972 
L 246.264923 352.73647 
L 247.477129 356.198281 
L 248.693372 359.61738 
L 249.905872 363.032737 
L 251.051076 366.367589 
L 251.370162 367.274872 
L 253.095857 372.183141 
L 255.085012 377.799373 
L 256.262799 381.169818 
L 257.218445 383.827748 
L 258.594304 387.693847 
L 259.947854 391.56824 
L 261.538516 396.155367 
L 261.725213 396.686542 
L 262.993193 400.296228 
L 264.434734 404.407587 
L 265.372033 407.057298 
L 265.430742 407.069113 
L 266.323275 407.249425 
L 267.238044 407.43414 
L 267.787785 407.545101 
L 271.333404 408.244919 
L 272.619878 408.507865 
L 272.807749 408.545953 
L 274.944338 408.981358 
L 275.3851 409.071183 
L 275.957885 409.187869 
L 276.465503 409.291344 
L 276.50578 409.299555 
L 278.21615 409.648225 
L 278.515055 409.708916 
L 279.044689 410.678652 
L 279.140386 410.853753 
L 280.453792 413.289247 
L 281.104295 414.447734 
L 281.262444 414.736952 
L 282.48896 416.788999 
L 284.584379 420.372413 
L 287.85964 426.591153 
L 286.42742 428.859544 
L 286.907077 430.628024 
L 286.936946 430.738251 
L 287.096856 430.849726 
L 288.358158 431.728976 
L 289.568016 432.572339 
L 289.837053 435.622522 
L 289.784728 436.47682 
L 289.913155 436.485994 
L 290.012227 437.608961 
L 290.02485 437.751919 
L 290.720118 445.636984 
L 291.016675 448.999135 
L 291.027023 449.116555 
L 291.057519 449.523071 
L 291.130645 450.497844 
L 290.740153 451.092793 
L 291.165551 451.136762 
L 291.16866 451.146145 
L 292.045567 452.690719 
L 292.054734 452.706866 
L 295.424371 458.644974 
L 297.93494 463.069035 
L 299.683018 468.230783 
L 300.945494 471.959062 
L 305.345411 484.952962 
L 307.525005 490.845717 
L 309.929162 497.34707 
L 310.396271 498.610133 
L 310.756968 499.585667 
L 312.096941 503.209516 
L 312.65659 504.722976 
L 312.74414 504.959722 
L 312.933772 505.472551 
L 313.760844 507.709239 
L 314.903259 510.798758 
L 315.364716 512.046484 
L 315.453148 512.285945 
L 315.786765 513.2821 
L 316.256515 514.685333 
L 316.55498 517.165299 
L 315.827568 519.57298 
L 314.865171 523.142963 
L 310.822062 528.849829 
L 308.955464 533.124621 
L 308.607903 533.920796 
L 306.518796 539.052088 
L 304.69667 538.751788 
L 304.564647 543.49545 
L 304.554886 543.845726 
L 304.181273 557.280315 
L 304.174815 557.515227 
L 304.155148 558.300541 
L 304.151919 558.426253 
L 304.086017 561.061433 
L 306.916333 561.138195 
L 308.604747 564.46292 
L 308.911872 565.0746 
L 309.445249 566.13695 
L 309.482309 566.210777 
L 311.056974 569.276152 
L 311.301646 569.752507 
L 311.909143 570.966181 
L 313.622876 574.390271 
L 315.7704 578.640772 
L 318.222406 583.467287 
L 318.452547 583.924488 
L 318.688413 585.172361 
L 319.211736 587.805265 
L 319.795456 590.672495 
L 320.802766 595.700605 
L 321.817267 600.598379 
L 322.813422 605.465991 
L 323.855517 610.714481 
L 326.575386 611.549699 
" clip-path="url(#pe02a860806)" style="fill: #d3d3d3"/>
   </g>
   <g id="PatchCollection_2">
    <path d="M 357.81174 339.257732 
L 357.81174 339.184345 
L 357.738353 339.184345 
L 357.738353 339.257732 
L 357.81174 339.257732 
" clip-path="url(#pe02a860806)" style="fill: #ff0000; fill-opacity: 0.7; stroke: #000000; stroke-opacity: 0.7; stroke-width: 0.5"/>
    <path d="M 357.81174 339.257732 
L 357.81174 339.184345 
L 357.738353 339.184345 
L 357.738353 339.257732 
L 357.81174 339.257732 
" clip-path="url(#pe02a860806)" style="fill: #ff0000; fill-opacity: 0.7; stroke: #000000; stroke-opacity: 0.7; stroke-width: 0.5"/>
    <path d="M 400.712663 230.681041 
L 400.712663 230.607654 
L 400.639276 230.607654 
L 400.639276 230.681041 
L 400.712663 230.681041 
" clip-path="url(#pe02a860806)" style="fill: #ff0000; fill-opacity: 0.7; stroke: #000000; stroke-opacity: 0.7; stroke-width: 0.5"/>
    <path d="M 369.726533 340.040805 
L 369.726533 339.967418 
L 369.653146 339.967418 
L 369.653146 340.040805 
L 369.726533 340.040805 
" clip-path="url(#pe02a860806)" style="fill: #ff0000; fill-opacity: 0.7; stroke: #000000; stroke-opacity: 0.7; stroke-width: 0.5"/>
    <path d="M 377.202428 385.619677 
L 377.202428 385.54629 
L 377.129041 385.54629 
L 377.129041 385.619677 
L 377.202428 385.619677 
" clip-path="url(#pe02a860806)" style="fill: #ff0000; fill-opacity: 0.7; stroke: #000000; stroke-opacity: 0.7; stroke-width: 0.5"/>
    <path d="M 400.712663 230.681041 
L 400.712663 230.607654 
L 400.639276 230.607654 
L 400.639276 230.681041 
L 400.712663 230.681041 
" clip-path="url(#pe02a860806)" style="fill: #ff0000; fill-opacity: 0.7; stroke: #000000; stroke-opacity: 0.7; stroke-width: 0.5"/>
    <path d="M 359.935996 353.706967 
L 359.935996 353.63358 
L 359.862609 353.63358 
L 359.862609 353.706967 
L 359.935996 353.706967 
" clip-path="url(#pe02a860806)" style="fill: #ff0000; fill-opacity: 0.7; stroke: #000000; stroke-opacity: 0.7; stroke-width: 0.5"/>
    <path d="M 454.285726 368.387177 
L 454.285726 368.31379 
L 454.212339 368.31379 
L 454.212339 368.387177 
L 454.285726 368.387177 
" clip-path="url(#pe02a860806)" style="fill: #ff0000; fill-opacity: 0.7; stroke: #000000; stroke-opacity: 0.7; stroke-width: 0.5"/>
    <path d="M 347.803394 285.173513 
L 347.803394 285.100126 
L 347.730007 285.100126 
L 347.730007 285.173513 
L 347.803394 285.173513 
" clip-path="url(#pe02a860806)" style="fill: #ff0000; fill-opacity: 0.7; stroke: #000000; stroke-opacity: 0.7; stroke-width: 0.5"/>
    <path d="M 409.591298 354.480435 
L 409.591298 354.407048 
L 409.517911 354.407048 
L 409.517911 354.480435 
L 409.591298 354.480435 
" clip-path="url(#pe02a860806)" style="fill: #ff0000; fill-opacity: 0.7; stroke: #000000; stroke-opacity: 0.7; stroke-width: 0.5"/>
    <path d="M 423.082769 168.549022 
L 423.082769 168.475635 
L 423.009382 168.475635 
L 423.009382 168.549022 
L 423.082769 168.549022 
" clip-path="url(#pe02a860806)" style="fill: #ff0000; fill-opacity: 0.7; stroke: #000000; stroke-opacity: 0.7; stroke-width: 0.5"/>
    <path d="M 375.698981 355.944643 
L 375.698981 355.871256 
L 375.625594 355.871256 
L 375.625594 355.944643 
L 375.698981 355.944643 
" clip-path="url(#pe02a860806)" style="fill: #ff0000; fill-opacity: 0.7; stroke: #000000; stroke-opacity: 0.7; stroke-width: 0.5"/>
    <path d="M 343.697849 271.015176 
L 343.697849 270.941789 
L 343.624462 270.941789 
L 343.624462 271.015176 
L 343.697849 271.015176 
" clip-path="url(#pe02a860806)" style="fill: #ff0000; fill-opacity: 0.7; stroke: #000000; stroke-opacity: 0.7; stroke-width: 0.5"/>
   </g>
   <g id="matplotlib.axis_1">
    <g id="xtick_1">
     <g id="line2d_1">
      <defs>
       <path id="m5d06f5dfff" d="M 0 0 
L 0 3.5 
" style="stroke: #000000; stroke-width: 0.8"/>
      </defs>
      <g>
       <use xlink:href="#m5d06f5dfff" x="239.258447" y="640.8" style="stroke: #000000; stroke-width: 0.8"/>
      </g>
     </g>
     <g id="text_1">
      <!-- 400500 -->
      <g transform="translate(220.170947 655.398438) scale(0.1 -0.1)">
       <defs>
        <path id="DejaVuSans-34" d="M 2419 4116 
L 825 1625 
L 2419 1625 
L 2419 4116 
z
M 2253 4666 
L 3047 4666 
L 3047 1625 
L 3713 1625 
L 3713 1100 
L 3047 1100 
L 3047 0 
L 2419 0 
L 2419 1100 
L 313 1100 
L 313 1709 
L 2253 4666 
z
" transform="scale(0.015625)"/>
        <path id="DejaVuSans-30" d="M 2034 4250 
Q 1547 4250 1301 3770 
Q 1056 3291 1056 2328 
Q 1056 1369 1301 889 
Q 1547 409 2034 409 
Q 2525 409 2770 889 
Q 3016 1369 3016 2328 
Q 3016 3291 2770 3770 
Q 2525 4250 2034 4250 
z
M 2034 4750 
Q 2819 4750 3233 4129 
Q 3647 3509 3647 2328 
Q 3647 1150 3233 529 
Q 2819 -91 2034 -91 
Q 1250 -91 836 529 
Q 422 1150 422 2328 
Q 422 3509 836 4129 
Q 1250 4750 2034 4750 
z
" transform="scale(0.015625)"/>
        <path id="DejaVuSans-35" d="M 691 4666 
L 3169 4666 
L 3169 4134 
L 1269 4134 
L 1269 2991 
Q 1406 3038 1543 3061 
Q 1681 3084 1819 3084 
Q 2600 3084 3056 2656 
Q 3513 2228 3513 1497 
Q 3513 744 3044 326 
Q 2575 -91 1722 -91 
Q 1428 -91 1123 -41 
Q 819 9 494 109 
L 494 744 
Q 775 591 1075 516 
Q 1375 441 1709 441 
Q 2250 441 2565 725 
Q 2881 1009 2881 1497 
Q 2881 1984 2565 2268 
Q 2250 2553 1709 2553 
Q 1456 2553 1204 2497 
Q 953 2441 691 2322 
L 691 4666 
z
" transform="scale(0.015625)"/>
       </defs>
       <use xlink:href="#DejaVuSans-34"/>
       <use xlink:href="#DejaVuSans-30" x="63.623047"/>
       <use xlink:href="#DejaVuSans-30" x="127.246094"/>
       <use xlink:href="#DejaVuSans-35" x="190.869141"/>
       <use xlink:href="#DejaVuSans-30" x="254.492188"/>
       <use xlink:href="#DejaVuSans-30" x="318.115234"/>
      </g>
     </g>
    </g>
    <g id="xtick_2">
     <g id="line2d_2">
      <g>
       <use xlink:href="#m5d06f5dfff" x="275.951941" y="640.8" style="stroke: #000000; stroke-width: 0.8"/>
      </g>
     </g>
     <g id="text_2">
      <!-- 401000 -->
      <g transform="translate(256.864441 655.398438) scale(0.1 -0.1)">
       <defs>
        <path id="DejaVuSans-31" d="M 794 531 
L 1825 531 
L 1825 4091 
L 703 3866 
L 703 4441 
L 1819 4666 
L 2450 4666 
L 2450 531 
L 3481 531 
L 3481 0 
L 794 0 
L 794 531 
z
" transform="scale(0.015625)"/>
       </defs>
       <use xlink:href="#DejaVuSans-34"/>
       <use xlink:href="#DejaVuSans-30" x="63.623047"/>
       <use xlink:href="#DejaVuSans-31" x="127.246094"/>
       <use xlink:href="#DejaVuSans-30" x="190.869141"/>
       <use xlink:href="#DejaVuSans-30" x="254.492188"/>
       <use xlink:href="#DejaVuSans-30" x="318.115234"/>
      </g>
     </g>
    </g>
    <g id="xtick_3">
     <g id="line2d_3">
      <g>
       <use xlink:href="#m5d06f5dfff" x="312.645435" y="640.8" style="stroke: #000000; stroke-width: 0.8"/>
      </g>
     </g>
     <g id="text_3">
      <!-- 401500 -->
      <g transform="translate(293.557935 655.398438) scale(0.1 -0.1)">
       <use xlink:href="#DejaVuSans-34"/>
       <use xlink:href="#DejaVuSans-30" x="63.623047"/>
       <use xlink:href="#DejaVuSans-31" x="127.246094"/>
       <use xlink:href="#DejaVuSans-35" x="190.869141"/>
       <use xlink:href="#DejaVuSans-30" x="254.492188"/>
       <use xlink:href="#DejaVuSans-30" x="318.115234"/>
      </g>
     </g>
    </g>
    <g id="xtick_4">
     <g id="line2d_4">
      <g>
       <use xlink:href="#m5d06f5dfff" x="349.338929" y="640.8" style="stroke: #000000; stroke-width: 0.8"/>
      </g>
     </g>
     <g id="text_4">
      <!-- 402000 -->
      <g transform="translate(330.251429 655.398438) scale(0.1 -0.1)">
       <defs>
        <path id="DejaVuSans-32" d="M 1228 531 
L 3431 531 
L 3431 0 
L 469 0 
L 469 531 
Q 828 903 1448 1529 
Q 2069 2156 2228 2338 
Q 2531 2678 2651 2914 
Q 2772 3150 2772 3378 
Q 2772 3750 2511 3984 
Q 2250 4219 1831 4219 
Q 1534 4219 1204 4116 
Q 875 4013 500 3803 
L 500 4441 
Q 881 4594 1212 4672 
Q 1544 4750 1819 4750 
Q 2544 4750 2975 4387 
Q 3406 4025 3406 3419 
Q 3406 3131 3298 2873 
Q 3191 2616 2906 2266 
Q 2828 2175 2409 1742 
Q 1991 1309 1228 531 
z
" transform="scale(0.015625)"/>
       </defs>
       <use xlink:href="#DejaVuSans-34"/>
       <use xlink:href="#DejaVuSans-30" x="63.623047"/>
       <use xlink:href="#DejaVuSans-32" x="127.246094"/>
       <use xlink:href="#DejaVuSans-30" x="190.869141"/>
       <use xlink:href="#DejaVuSans-30" x="254.492188"/>
       <use xlink:href="#DejaVuSans-30" x="318.115234"/>
      </g>
     </g>
    </g>
    <g id="xtick_5">
     <g id="line2d_5">
      <g>
       <use xlink:href="#m5d06f5dfff" x="386.032423" y="640.8" style="stroke: #000000; stroke-width: 0.8"/>
      </g>
     </g>
     <g id="text_5">
      <!-- 402500 -->
      <g transform="translate(366.944923 655.398438) scale(0.1 -0.1)">
       <use xlink:href="#DejaVuSans-34"/>
       <use xlink:href="#DejaVuSans-30" x="63.623047"/>
       <use xlink:href="#DejaVuSans-32" x="127.246094"/>
       <use xlink:href="#DejaVuSans-35" x="190.869141"/>
       <use xlink:href="#DejaVuSans-30" x="254.492188"/>
       <use xlink:href="#DejaVuSans-30" x="318.115234"/>
      </g>
     </g>
    </g>
    <g id="xtick_6">
     <g id="line2d_6">
      <g>
       <use xlink:href="#m5d06f5dfff" x="422.725916" y="640.8" style="stroke: #000000; stroke-width: 0.8"/>
      </g>
     </g>
     <g id="text_6">
      <!-- 403000 -->
      <g transform="translate(403.638416 655.398438) scale(0.1 -0.1)">
       <defs>
        <path id="DejaVuSans-33" d="M 2597 2516 
Q 3050 2419 3304 2112 
Q 3559 1806 3559 1356 
Q 3559 666 3084 287 
Q 2609 -91 1734 -91 
Q 1441 -91 1130 -33 
Q 819 25 488 141 
L 488 750 
Q 750 597 1062 519 
Q 1375 441 1716 441 
Q 2309 441 2620 675 
Q 2931 909 2931 1356 
Q 2931 1769 2642 2001 
Q 2353 2234 1838 2234 
L 1294 2234 
L 1294 2753 
L 1863 2753 
Q 2328 2753 2575 2939 
Q 2822 3125 2822 3475 
Q 2822 3834 2567 4026 
Q 2313 4219 1838 4219 
Q 1578 4219 1281 4162 
Q 984 4106 628 3988 
L 628 4550 
Q 988 4650 1302 4700 
Q 1616 4750 1894 4750 
Q 2613 4750 3031 4423 
Q 3450 4097 3450 3541 
Q 3450 3153 3228 2886 
Q 3006 2619 2597 2516 
z
" transform="scale(0.015625)"/>
       </defs>
       <use xlink:href="#DejaVuSans-34"/>
       <use xlink:href="#DejaVuSans-30" x="63.623047"/>
       <use xlink:href="#DejaVuSans-33" x="127.246094"/>
       <use xlink:href="#DejaVuSans-30" x="190.869141"/>
       <use xlink:href="#DejaVuSans-30" x="254.492188"/>
       <use xlink:href="#DejaVuSans-30" x="318.115234"/>
      </g>
     </g>
    </g>
    <g id="xtick_7">
     <g id="line2d_7">
      <g>
       <use xlink:href="#m5d06f5dfff" x="459.41941" y="640.8" style="stroke: #000000; stroke-width: 0.8"/>
      </g>
     </g>
     <g id="text_7">
      <!-- 403500 -->
      <g transform="translate(440.33191 655.398438) scale(0.1 -0.1)">
       <use xlink:href="#DejaVuSans-34"/>
       <use xlink:href="#DejaVuSans-30" x="63.623047"/>
       <use xlink:href="#DejaVuSans-33" x="127.246094"/>
       <use xlink:href="#DejaVuSans-35" x="190.869141"/>
       <use xlink:href="#DejaVuSans-30" x="254.492188"/>
       <use xlink:href="#DejaVuSans-30" x="318.115234"/>
      </g>
     </g>
    </g>
    <g id="xtick_8">
     <g id="line2d_8">
      <g>
       <use xlink:href="#m5d06f5dfff" x="496.112904" y="640.8" style="stroke: #000000; stroke-width: 0.8"/>
      </g>
     </g>
     <g id="text_8">
      <!-- 404000 -->
      <g transform="translate(477.025404 655.398438) scale(0.1 -0.1)">
       <use xlink:href="#DejaVuSans-34"/>
       <use xlink:href="#DejaVuSans-30" x="63.623047"/>
       <use xlink:href="#DejaVuSans-34" x="127.246094"/>
       <use xlink:href="#DejaVuSans-30" x="190.869141"/>
       <use xlink:href="#DejaVuSans-30" x="254.492188"/>
       <use xlink:href="#DejaVuSans-30" x="318.115234"/>
      </g>
     </g>
    </g>
   </g>
   <g id="matplotlib.axis_2">
    <g id="ytick_1">
     <g id="line2d_9">
      <defs>
       <path id="mb45f0b9741" d="M 0 0 
L -3.5 0 
" style="stroke: #000000; stroke-width: 0.8"/>
      </defs>
      <g>
       <use xlink:href="#mb45f0b9741" x="232.749128" y="589.987804" style="stroke: #000000; stroke-width: 0.8"/>
      </g>
     </g>
     <g id="text_9">
      <!-- 5.815 -->
      <g transform="translate(197.121003 593.787022) scale(0.1 -0.1)">
       <defs>
        <path id="DejaVuSans-2e" d="M 684 794 
L 1344 794 
L 1344 0 
L 684 0 
L 684 794 
z
" transform="scale(0.015625)"/>
        <path id="DejaVuSans-38" d="M 2034 2216 
Q 1584 2216 1326 1975 
Q 1069 1734 1069 1313 
Q 1069 891 1326 650 
Q 1584 409 2034 409 
Q 2484 409 2743 651 
Q 3003 894 3003 1313 
Q 3003 1734 2745 1975 
Q 2488 2216 2034 2216 
z
M 1403 2484 
Q 997 2584 770 2862 
Q 544 3141 544 3541 
Q 544 4100 942 4425 
Q 1341 4750 2034 4750 
Q 2731 4750 3128 4425 
Q 3525 4100 3525 3541 
Q 3525 3141 3298 2862 
Q 3072 2584 2669 2484 
Q 3125 2378 3379 2068 
Q 3634 1759 3634 1313 
Q 3634 634 3220 271 
Q 2806 -91 2034 -91 
Q 1263 -91 848 271 
Q 434 634 434 1313 
Q 434 1759 690 2068 
Q 947 2378 1403 2484 
z
M 1172 3481 
Q 1172 3119 1398 2916 
Q 1625 2713 2034 2713 
Q 2441 2713 2670 2916 
Q 2900 3119 2900 3481 
Q 2900 3844 2670 4047 
Q 2441 4250 2034 4250 
Q 1625 4250 1398 4047 
Q 1172 3844 1172 3481 
z
" transform="scale(0.015625)"/>
       </defs>
       <use xlink:href="#DejaVuSans-35"/>
       <use xlink:href="#DejaVuSans-2e" x="63.623047"/>
       <use xlink:href="#DejaVuSans-38" x="95.410156"/>
       <use xlink:href="#DejaVuSans-31" x="159.033203"/>
       <use xlink:href="#DejaVuSans-35" x="222.65625"/>
      </g>
     </g>
    </g>
    <g id="ytick_2">
     <g id="line2d_10">
      <g>
       <use xlink:href="#mb45f0b9741" x="232.749128" y="516.600816" style="stroke: #000000; stroke-width: 0.8"/>
      </g>
     </g>
     <g id="text_10">
      <!-- 5.816 -->
      <g transform="translate(197.121003 520.400035) scale(0.1 -0.1)">
       <defs>
        <path id="DejaVuSans-36" d="M 2113 2584 
Q 1688 2584 1439 2293 
Q 1191 2003 1191 1497 
Q 1191 994 1439 701 
Q 1688 409 2113 409 
Q 2538 409 2786 701 
Q 3034 994 3034 1497 
Q 3034 2003 2786 2293 
Q 2538 2584 2113 2584 
z
M 3366 4563 
L 3366 3988 
Q 3128 4100 2886 4159 
Q 2644 4219 2406 4219 
Q 1781 4219 1451 3797 
Q 1122 3375 1075 2522 
Q 1259 2794 1537 2939 
Q 1816 3084 2150 3084 
Q 2853 3084 3261 2657 
Q 3669 2231 3669 1497 
Q 3669 778 3244 343 
Q 2819 -91 2113 -91 
Q 1303 -91 875 529 
Q 447 1150 447 2328 
Q 447 3434 972 4092 
Q 1497 4750 2381 4750 
Q 2619 4750 2861 4703 
Q 3103 4656 3366 4563 
z
" transform="scale(0.015625)"/>
       </defs>
       <use xlink:href="#DejaVuSans-35"/>
       <use xlink:href="#DejaVuSans-2e" x="63.623047"/>
       <use xlink:href="#DejaVuSans-38" x="95.410156"/>
       <use xlink:href="#DejaVuSans-31" x="159.033203"/>
       <use xlink:href="#DejaVuSans-36" x="222.65625"/>
      </g>
     </g>
    </g>
    <g id="ytick_3">
     <g id="line2d_11">
      <g>
       <use xlink:href="#mb45f0b9741" x="232.749128" y="443.213828" style="stroke: #000000; stroke-width: 0.8"/>
      </g>
     </g>
     <g id="text_11">
      <!-- 5.817 -->
      <g transform="translate(197.121003 447.013047) scale(0.1 -0.1)">
       <defs>
        <path id="DejaVuSans-37" d="M 525 4666 
L 3525 4666 
L 3525 4397 
L 1831 0 
L 1172 0 
L 2766 4134 
L 525 4134 
L 525 4666 
z
" transform="scale(0.015625)"/>
       </defs>
       <use xlink:href="#DejaVuSans-35"/>
       <use xlink:href="#DejaVuSans-2e" x="63.623047"/>
       <use xlink:href="#DejaVuSans-38" x="95.410156"/>
       <use xlink:href="#DejaVuSans-31" x="159.033203"/>
       <use xlink:href="#DejaVuSans-37" x="222.65625"/>
      </g>
     </g>
    </g>
    <g id="ytick_4">
     <g id="line2d_12">
      <g>
       <use xlink:href="#mb45f0b9741" x="232.749128" y="369.82684" style="stroke: #000000; stroke-width: 0.8"/>
      </g>
     </g>
     <g id="text_12">
      <!-- 5.818 -->
      <g transform="translate(197.121003 373.626059) scale(0.1 -0.1)">
       <use xlink:href="#DejaVuSans-35"/>
       <use xlink:href="#DejaVuSans-2e" x="63.623047"/>
       <use xlink:href="#DejaVuSans-38" x="95.410156"/>
       <use xlink:href="#DejaVuSans-31" x="159.033203"/>
       <use xlink:href="#DejaVuSans-38" x="222.65625"/>
      </g>
     </g>
    </g>
    <g id="ytick_5">
     <g id="line2d_13">
      <g>
       <use xlink:href="#mb45f0b9741" x="232.749128" y="296.439853" style="stroke: #000000; stroke-width: 0.8"/>
      </g>
     </g>
     <g id="text_13">
      <!-- 5.819 -->
      <g transform="translate(197.121003 300.239071) scale(0.1 -0.1)">
       <defs>
        <path id="DejaVuSans-39" d="M 703 97 
L 703 672 
Q 941 559 1184 500 
Q 1428 441 1663 441 
Q 2288 441 2617 861 
Q 2947 1281 2994 2138 
Q 2813 1869 2534 1725 
Q 2256 1581 1919 1581 
Q 1219 1581 811 2004 
Q 403 2428 403 3163 
Q 403 3881 828 4315 
Q 1253 4750 1959 4750 
Q 2769 4750 3195 4129 
Q 3622 3509 3622 2328 
Q 3622 1225 3098 567 
Q 2575 -91 1691 -91 
Q 1453 -91 1209 -44 
Q 966 3 703 97 
z
M 1959 2075 
Q 2384 2075 2632 2365 
Q 2881 2656 2881 3163 
Q 2881 3666 2632 3958 
Q 2384 4250 1959 4250 
Q 1534 4250 1286 3958 
Q 1038 3666 1038 3163 
Q 1038 2656 1286 2365 
Q 1534 2075 1959 2075 
z
" transform="scale(0.015625)"/>
       </defs>
       <use xlink:href="#DejaVuSans-35"/>
       <use xlink:href="#DejaVuSans-2e" x="63.623047"/>
       <use xlink:href="#DejaVuSans-38" x="95.410156"/>
       <use xlink:href="#DejaVuSans-31" x="159.033203"/>
       <use xlink:href="#DejaVuSans-39" x="222.65625"/>
      </g>
     </g>
    </g>
    <g id="ytick_6">
     <g id="line2d_14">
      <g>
       <use xlink:href="#mb45f0b9741" x="232.749128" y="223.052865" style="stroke: #000000; stroke-width: 0.8"/>
      </g>
     </g>
     <g id="text_14">
      <!-- 5.820 -->
      <g transform="translate(197.121003 226.852084) scale(0.1 -0.1)">
       <use xlink:href="#DejaVuSans-35"/>
       <use xlink:href="#DejaVuSans-2e" x="63.623047"/>
       <use xlink:href="#DejaVuSans-38" x="95.410156"/>
       <use xlink:href="#DejaVuSans-32" x="159.033203"/>
       <use xlink:href="#DejaVuSans-30" x="222.65625"/>
      </g>
     </g>
    </g>
    <g id="ytick_7">
     <g id="line2d_15">
      <g>
       <use xlink:href="#mb45f0b9741" x="232.749128" y="149.665877" style="stroke: #000000; stroke-width: 0.8"/>
      </g>
     </g>
     <g id="text_15">
      <!-- 5.821 -->
      <g transform="translate(197.121003 153.465096) scale(0.1 -0.1)">
       <use xlink:href="#DejaVuSans-35"/>
       <use xlink:href="#DejaVuSans-2e" x="63.623047"/>
       <use xlink:href="#DejaVuSans-38" x="95.410156"/>
       <use xlink:href="#DejaVuSans-32" x="159.033203"/>
       <use xlink:href="#DejaVuSans-31" x="222.65625"/>
      </g>
     </g>
    </g>
    <g id="text_16">
     <!-- 1e6 -->
     <g transform="translate(232.749128 83.4) scale(0.1 -0.1)">
      <defs>
       <path id="DejaVuSans-65" d="M 3597 1894 
L 3597 1613 
L 953 1613 
Q 991 1019 1311 708 
Q 1631 397 2203 397 
Q 2534 397 2845 478 
Q 3156 559 3463 722 
L 3463 178 
Q 3153 47 2828 -22 
Q 2503 -91 2169 -91 
Q 1331 -91 842 396 
Q 353 884 353 1716 
Q 353 2575 817 3079 
Q 1281 3584 2069 3584 
Q 2775 3584 3186 3129 
Q 3597 2675 3597 1894 
z
M 3022 2063 
Q 3016 2534 2758 2815 
Q 2500 3097 2075 3097 
Q 1594 3097 1305 2825 
Q 1016 2553 972 2059 
L 3022 2063 
z
" transform="scale(0.015625)"/>
      </defs>
      <use xlink:href="#DejaVuSans-31"/>
      <use xlink:href="#DejaVuSans-65" x="63.623047"/>
      <use xlink:href="#DejaVuSans-36" x="125.146484"/>
     </g>
    </g>
   </g>
   <g id="patch_3">
    <path d="M 232.749128 640.8 
L 232.749128 86.4 
" style="fill: none; stroke: #000000; stroke-width: 0.8; stroke-linejoin: miter; stroke-linecap: square"/>
   </g>
   <g id="patch_4">
    <path d="M 505.250872 640.8 
L 505.250872 86.4 
" style="fill: none; stroke: #000000; stroke-width: 0.8; stroke-linejoin: miter; stroke-linecap: square"/>
   </g>
   <g id="patch_5">
    <path d="M 232.749128 640.8 
L 505.250872 640.8 
" style="fill: none; stroke: #000000; stroke-width: 0.8; stroke-linejoin: miter; stroke-linecap: square"/>
   </g>
   <g id="patch_6">
    <path d="M 232.749128 86.4 
L 505.250872 86.4 
" style="fill: none; stroke: #000000; stroke-width: 0.8; stroke-linejoin: miter; stroke-linecap: square"/>
   </g>
   <g id="text_17">
    <!-- Biesdorf -->
    <g transform="translate(340.998177 340.061381) scale(0.12 -0.12)">
     <defs>
      <path id="DejaVuSans-42" d="M 1259 2228 
L 1259 519 
L 2272 519 
Q 2781 519 3026 730 
Q 3272 941 3272 1375 
Q 3272 1813 3026 2020 
Q 2781 2228 2272 2228 
L 1259 2228 
z
M 1259 4147 
L 1259 2741 
L 2194 2741 
Q 2656 2741 2882 2914 
Q 3109 3088 3109 3444 
Q 3109 3797 2882 3972 
Q 2656 4147 2194 4147 
L 1259 4147 
z
M 628 4666 
L 2241 4666 
Q 2963 4666 3353 4366 
Q 3744 4066 3744 3513 
Q 3744 3084 3544 2831 
Q 3344 2578 2956 2516 
Q 3422 2416 3680 2098 
Q 3938 1781 3938 1306 
Q 3938 681 3513 340 
Q 3088 0 2303 0 
L 628 0 
L 628 4666 
z
" transform="scale(0.015625)"/>
      <path id="DejaVuSans-69" d="M 603 3500 
L 1178 3500 
L 1178 0 
L 603 0 
L 603 3500 
z
M 603 4863 
L 1178 4863 
L 1178 4134 
L 603 4134 
L 603 4863 
z
" transform="scale(0.015625)"/>
      <path id="DejaVuSans-73" d="M 2834 3397 
L 2834 2853 
Q 2591 2978 2328 3040 
Q 2066 3103 1784 3103 
Q 1356 3103 1142 2972 
Q 928 2841 928 2578 
Q 928 2378 1081 2264 
Q 1234 2150 1697 2047 
L 1894 2003 
Q 2506 1872 2764 1633 
Q 3022 1394 3022 966 
Q 3022 478 2636 193 
Q 2250 -91 1575 -91 
Q 1294 -91 989 -36 
Q 684 19 347 128 
L 347 722 
Q 666 556 975 473 
Q 1284 391 1588 391 
Q 1994 391 2212 530 
Q 2431 669 2431 922 
Q 2431 1156 2273 1281 
Q 2116 1406 1581 1522 
L 1381 1569 
Q 847 1681 609 1914 
Q 372 2147 372 2553 
Q 372 3047 722 3315 
Q 1072 3584 1716 3584 
Q 2034 3584 2315 3537 
Q 2597 3491 2834 3397 
z
" transform="scale(0.015625)"/>
      <path id="DejaVuSans-64" d="M 2906 2969 
L 2906 4863 
L 3481 4863 
L 3481 0 
L 2906 0 
L 2906 525 
Q 2725 213 2448 61 
Q 2172 -91 1784 -91 
Q 1150 -91 751 415 
Q 353 922 353 1747 
Q 353 2572 751 3078 
Q 1150 3584 1784 3584 
Q 2172 3584 2448 3432 
Q 2725 3281 2906 2969 
z
M 947 1747 
Q 947 1113 1208 752 
Q 1469 391 1925 391 
Q 2381 391 2643 752 
Q 2906 1113 2906 1747 
Q 2906 2381 2643 2742 
Q 2381 3103 1925 3103 
Q 1469 3103 1208 2742 
Q 947 2381 947 1747 
z
" transform="scale(0.015625)"/>
      <path id="DejaVuSans-6f" d="M 1959 3097 
Q 1497 3097 1228 2736 
Q 959 2375 959 1747 
Q 959 1119 1226 758 
Q 1494 397 1959 397 
Q 2419 397 2687 759 
Q 2956 1122 2956 1747 
Q 2956 2369 2687 2733 
Q 2419 3097 1959 3097 
z
M 1959 3584 
Q 2709 3584 3137 3096 
Q 3566 2609 3566 1747 
Q 3566 888 3137 398 
Q 2709 -91 1959 -91 
Q 1206 -91 779 398 
Q 353 888 353 1747 
Q 353 2609 779 3096 
Q 1206 3584 1959 3584 
z
" transform="scale(0.015625)"/>
      <path id="DejaVuSans-72" d="M 2631 2963 
Q 2534 3019 2420 3045 
Q 2306 3072 2169 3072 
Q 1681 3072 1420 2755 
Q 1159 2438 1159 1844 
L 1159 0 
L 581 0 
L 581 3500 
L 1159 3500 
L 1159 2956 
Q 1341 3275 1631 3429 
Q 1922 3584 2338 3584 
Q 2397 3584 2469 3576 
Q 2541 3569 2628 3553 
L 2631 2963 
z
" transform="scale(0.015625)"/>
      <path id="DejaVuSans-66" d="M 2375 4863 
L 2375 4384 
L 1825 4384 
Q 1516 4384 1395 4259 
Q 1275 4134 1275 3809 
L 1275 3500 
L 2222 3500 
L 2222 3053 
L 1275 3053 
L 1275 0 
L 697 0 
L 697 3053 
L 147 3053 
L 147 3500 
L 697 3500 
L 697 3744 
Q 697 4328 969 4595 
Q 1241 4863 1831 4863 
L 2375 4863 
z
" transform="scale(0.015625)"/>
     </defs>
     <use xlink:href="#DejaVuSans-42"/>
     <use xlink:href="#DejaVuSans-69" x="68.603516"/>
     <use xlink:href="#DejaVuSans-65" x="96.386719"/>
     <use xlink:href="#DejaVuSans-73" x="157.910156"/>
     <use xlink:href="#DejaVuSans-64" x="210.009766"/>
     <use xlink:href="#DejaVuSans-6f" x="273.486328"/>
     <use xlink:href="#DejaVuSans-72" x="334.667969"/>
     <use xlink:href="#DejaVuSans-66" x="375.78125"/>
    </g>
   </g>
  </g>
 </g>
 <defs>
  <clipPath id="pe02a860806">
   <rect x="232.749128" y="86.4" width="272.501744" height="554.4"/>
  </clipPath>
 </defs>
</svg>
