<?xml version="1.0" encoding="utf-8" standalone="no"?>
<!DOCTYPE svg PUBLIC "-//W3C//DTD SVG 1.1//EN"
  "http://www.w3.org/Graphics/SVG/1.1/DTD/svg11.dtd">
<svg xmlns:xlink="http://www.w3.org/1999/xlink" width="720pt" height="720pt" viewBox="0 0 720 720" xmlns="http://www.w3.org/2000/svg" version="1.1">
 <metadata>
  <rdf:RDF xmlns:dc="http://purl.org/dc/elements/1.1/" xmlns:cc="http://creativecommons.org/ns#" xmlns:rdf="http://www.w3.org/1999/02/22-rdf-syntax-ns#">
   <cc:Work>
    <dc:type rdf:resource="http://purl.org/dc/dcmitype/StillImage"/>
    <dc:date>2024-10-17T11:38:40.205857</dc:date>
    <dc:format>image/svg+xml</dc:format>
    <dc:creator>
     <cc:Agent>
      <dc:title>Matplotlib v3.9.2, https://matplotlib.org/</dc:title>
     </cc:Agent>
    </dc:creator>
   </cc:Work>
  </rdf:RDF>
 </metadata>
 <defs>
  <style type="text/css">*{stroke-linejoin: round; stroke-linecap: butt}</style>
 </defs>
 <g id="figure_1">
  <g id="patch_1">
   <path d="M 0 720 
L 720 720 
L 720 0 
L 0 0 
z
" style="fill: #ffffff"/>
  </g>
  <g id="axes_1">
   <g id="patch_2">
    <path d="M 235.463777 640.8 
L 502.536223 640.8 
L 502.536223 86.4 
L 235.463777 86.4 
z
" style="fill: #ffffff"/>
   </g>
   <g id="PatchCollection_1">
    <path d="M 333.907728 612.256546 
L 333.990365 612.258329 
L 338.487051 612.359208 
L 339.793855 612.377653 
L 340.089023 612.386819 
L 340.277713 612.392628 
L 344.772306 612.531588 
L 346.056754 612.571683 
L 351.714933 613.587407 
L 357.458925 615.202694 
L 363.483916 615.493398 
L 365.599973 615.536624 
L 365.65718 615.537751 
L 365.805426 615.540792 
L 365.879731 615.54231 
L 366.638184 615.549626 
L 366.928403 615.556201 
L 368.855752 615.6 
L 371.041161 615.542576 
L 371.92915 615.519246 
L 372.020248 615.516838 
L 372.388802 615.507195 
L 373.693743 615.472967 
L 374.938535 615.440311 
L 375.497799 615.372779 
L 377.348203 615.149661 
L 378.616098 614.996744 
L 380.216451 614.8037 
L 381.986738 614.506729 
L 383.560426 614.217356 
L 385.973205 613.769808 
L 387.051597 613.425851 
L 389.857714 612.530651 
L 391.22569 612.094385 
L 392.977086 611.251832 
L 395.572689 610.003194 
L 395.695642 609.946003 
L 396.065954 609.77396 
L 397.136661 610.918658 
L 398.407993 612.325663 
L 398.75374 612.691185 
L 400.759895 612.254771 
L 402.338312 611.922665 
L 403.305215 611.716032 
L 403.531646 611.68038 
L 403.675791 611.16953 
L 403.767532 611.136779 
L 405.003651 610.692154 
L 405.406815 610.547139 
L 405.622337 610.476823 
L 405.889399 609.795862 
L 408.934802 604.677884 
L 408.534242 604.312739 
L 408.638546 604.089108 
L 408.768918 603.789948 
L 408.891704 603.487569 
L 409.006907 603.182116 
L 409.114313 602.873886 
L 409.213853 602.563029 
L 409.305602 602.249689 
L 409.38942 601.934161 
L 409.417987 601.690742 
L 409.438722 601.446452 
L 409.451632 601.201659 
L 409.456576 600.956584 
L 409.453632 600.71152 
L 409.442803 600.466612 
L 409.424168 600.222153 
L 409.397588 599.978512 
L 409.357944 599.683614 
L 409.336958 599.527138 
L 409.187618 598.415808 
L 408.607116 594.561378 
L 408.056588 591.311355 
L 407.975925 591.003204 
L 407.888286 590.696877 
L 407.793749 590.392666 
L 407.692392 590.090716 
L 407.584288 589.791099 
L 407.469442 589.494034 
L 407.347856 589.199668 
L 407.219751 588.90807 
L 407.08506 588.619534 
L 406.920175 588.285213 
L 406.747334 587.954861 
L 406.56669 587.628841 
L 406.378389 587.30715 
L 406.182439 586.990156 
L 405.978986 586.677927 
L 405.768107 586.37061 
L 405.550026 586.068492 
L 405.32482 585.771719 
L 405.092563 585.480363 
L 404.853479 585.194712 
L 404.607571 584.91484 
L 404.355134 584.640961 
L 404.096244 584.373219 
L 403.53897 583.875414 
L 399.312881 580.100387 
L 396.474477 577.54919 
L 391.721746 573.309118 
L 391.603272 573.110106 
L 391.567198 573.014682 
L 391.441481 572.93299 
L 391.345716 572.88844 
L 390.973346 572.512391 
L 390.404453 571.828528 
L 390.128452 571.479723 
L 389.858203 571.126333 
L 389.593784 570.768577 
L 389.374287 570.477269 
L 389.161771 570.180693 
L 388.956389 569.879212 
L 388.758286 569.572822 
L 388.567467 569.261743 
L 388.38423 568.946263 
L 388.208502 568.626383 
L 388.040435 568.302393 
L 387.880179 567.97451 
L 387.740926 567.630233 
L 387.60972 567.282864 
L 387.486632 566.932402 
L 387.371818 566.57921 
L 387.265277 566.223362 
L 387.167089 565.865148 
L 387.077258 565.504716 
L 386.995932 565.142282 
L 386.926023 564.792956 
L 386.858668 564.412144 
L 386.802885 564.044877 
L 386.801993 563.447367 
L 386.756418 562.946599 
L 385.926907 562.982354 
L 385.862223 562.803522 
L 385.803807 562.218885 
L 386.118473 562.203664 
L 386.173129 562.200961 
L 386.162483 561.940369 
L 386.600433 561.931774 
L 386.596768 561.872197 
L 386.98654 561.843094 
L 386.913452 560.065305 
L 386.905753 559.058147 
L 386.982164 558.896358 
L 386.99928 558.654411 
L 386.854796 558.495931 
L 386.705374 557.95957 
L 386.720847 557.664234 
L 386.735881 557.368834 
L 386.750476 557.073443 
L 386.789774 556.229861 
L 386.825489 555.386058 
L 386.857623 554.54218 
L 386.640897 550.96544 
L 386.453144 549.372995 
L 386.459569 547.86996 
L 386.239776 547.21094 
L 386.355665 546.627074 
L 386.5543 545.629794 
L 386.42107 545.357652 
L 386.984401 543.375169 
L 387.29905 541.928931 
L 387.244912 540.856454 
L 387.648549 537.635057 
L 387.956616 535.672325 
L 387.80713 533.106833 
L 387.872925 529.056782 
L 387.953289 528.688777 
L 387.858209 527.393612 
L 387.847189 527.228365 
L 387.868758 526.783563 
L 388.003391 525.43142 
L 387.974292 525.1465 
L 387.930601 524.785147 
L 387.797851 524.393915 
L 387.781444 524.314366 
L 387.772319 524.233647 
L 387.770564 524.152487 
L 387.776116 524.071475 
L 387.78899 523.99127 
L 387.809127 523.912604 
L 387.836246 523.836072 
L 387.870141 523.762335 
L 387.910605 523.691984 
L 388.654988 522.655751 
L 389.073587 522.132972 
L 389.519916 521.630746 
L 391.498397 519.592343 
L 391.955907 519.067839 
L 392.285325 518.600777 
L 392.579147 518.066347 
L 393.09881 516.995253 
L 393.683854 515.824368 
L 394.943591 513.150686 
L 395.586777 511.912326 
L 396.102508 510.929545 
L 397.223571 508.485804 
L 397.905332 507.095429 
L 398.422287 506.033033 
L 398.865862 505.088052 
L 399.07789 504.590945 
L 399.200572 504.267314 
L 399.430937 503.659408 
L 399.504599 503.464921 
L 399.908419 502.304472 
L 400.067224 501.772078 
L 400.354233 500.766746 
L 400.468007 500.328828 
L 400.577375 499.889753 
L 400.68212 499.449598 
L 400.782386 499.008359 
L 400.878104 498.566111 
L 401.272105 496.499383 
L 401.882844 493.19833 
L 402.023221 492.439575 
L 402.29925 490.923114 
L 402.900457 487.681393 
L 403.457175 484.754705 
L 404.124513 482.685323 
L 404.135763 482.650438 
L 404.233436 482.4469 
L 404.337751 482.246747 
L 404.448493 482.05013 
L 404.565663 481.857196 
L 404.689052 481.668315 
L 404.818511 481.48349 
L 404.953977 481.303089 
L 405.573444 480.574812 
L 406.644413 479.206681 
L 407.682734 477.532013 
L 408.423729 475.888251 
L 409.103649 474.613866 
L 410.469757 471.05107 
L 410.887058 469.885237 
L 411.568417 467.751251 
L 411.963649 466.721573 
L 412.154662 466.390139 
L 412.351145 466.061894 
L 412.553102 465.737058 
L 412.760314 465.415562 
L 412.972929 465.097622 
L 414.113947 464.035313 
L 415.005343 462.597498 
L 415.250945 462.003737 
L 415.470762 461.39554 
L 415.49352 461.167992 
L 415.546122 460.642627 
L 415.606607 459.011161 
L 415.708697 458.701428 
L 415.817267 458.372001 
L 415.877721 458.188552 
L 416.304435 456.893682 
L 417.358985 457.146341 
L 417.455387 456.642193 
L 417.49429 456.438742 
L 417.674025 455.498797 
L 417.75608 455.069797 
L 417.48871 455.009524 
L 417.3335 454.971644 
L 416.976656 454.884614 
L 417.163474 454.564727 
L 417.397024 453.604513 
L 417.51285 453.124425 
L 417.525935 453.032272 
L 417.557423 452.784252 
L 417.579466 452.535248 
L 417.592144 452.285624 
L 417.595464 452.035672 
L 417.589285 451.785763 
L 417.573689 451.536261 
L 417.542067 451.239716 
L 417.514417 451.039866 
L 417.470758 450.79378 
L 417.417854 450.549489 
L 417.355787 450.307359 
L 417.051357 449.532681 
L 416.954865 449.323331 
L 416.850992 449.117646 
L 416.739814 448.91577 
L 416.621485 448.718066 
L 416.496082 448.524754 
L 416.225023 448.152308 
L 416.079669 447.973608 
L 415.929986 447.842113 
L 415.771856 447.671435 
L 415.606444 447.498264 
L 415.227044 447.149003 
L 414.854656 446.818143 
L 414.495144 446.458525 
L 414.471365 446.434739 
L 414.100007 446.07103 
L 413.849664 445.811611 
L 413.608478 445.553403 
L 413.388865 445.325691 
L 413.165847 445.073571 
L 412.936615 444.784348 
L 412.714284 444.49682 
L 412.496674 444.204142 
L 412.37133 443.873576 
L 412.255333 443.546415 
L 412.146619 443.21801 
L 412.043124 442.883858 
L 411.945235 442.544978 
L 411.85579 442.208203 
L 411.482412 440.408465 
L 410.880622 434.787974 
L 410.665766 432.761434 
L 410.646348 432.640395 
L 410.63312 432.518353 
L 410.626069 432.394577 
L 410.625109 432.268408 
L 410.630086 432.139482 
L 410.640151 432.00921 
L 410.656616 431.877418 
L 410.679862 431.744831 
L 410.709308 431.615419 
L 410.745708 431.490339 
L 410.789309 431.370978 
L 411.82535 428.201968 
L 413.101015 423.94629 
L 413.913017 421.026789 
L 414.546089 418.9288 
L 414.741386 418.209696 
L 413.865205 417.896454 
L 414.018521 417.410444 
L 414.820121 414.869351 
L 415.09573 414.069297 
L 415.405579 413.278676 
L 415.75487 412.505591 
L 416.144422 411.750686 
L 416.561506 411.00967 
L 417.020325 410.294866 
L 417.515634 409.603447 
L 418.039678 408.931317 
L 418.595908 408.290278 
L 419.181254 407.680392 
L 419.801362 407.095172 
L 420.43741 406.543638 
L 421.08604 406.007465 
L 421.803343 405.536833 
L 422.517599 405.074691 
L 423.248113 404.651212 
L 424.375286 404.046262 
L 425.111223 403.601135 
L 425.804811 403.087381 
L 426.452459 402.515549 
L 427.024708 401.877723 
L 427.554219 401.199709 
L 427.667941 401.018943 
L 427.778927 400.836546 
L 427.887249 400.652442 
L 428.015838 400.422141 
L 428.38839 399.695576 
L 429.234775 397.795196 
L 429.573135 397.13622 
L 429.962798 396.50693 
L 430.424189 395.927734 
L 430.938894 395.398631 
L 431.494952 394.917147 
L 432.107506 394.498957 
L 432.754836 394.139509 
L 433.115631 393.991586 
L 433.433778 393.852569 
L 434.142439 393.631066 
L 434.864337 393.484195 
L 435.601659 393.419093 
L 436.341207 393.411327 
L 437.070351 393.491192 
L 437.424263 393.546468 
L 437.457799 393.638796 
L 437.587845 393.996904 
L 437.696479 394.002593 
L 439.898099 394.116903 
L 439.88741 393.752253 
L 441.848463 393.586056 
L 445.068583 393.313178 
L 446.453062 393.198286 
L 447.483862 393.103073 
L 448.499132 393.017037 
L 450.028037 392.884646 
L 451.558343 392.745418 
L 453.092386 392.614038 
L 453.074829 392.10758 
L 453.166114 392.070894 
L 454.085423 391.638471 
L 455.152211 390.97593 
L 455.772043 390.509604 
L 456.515135 389.815322 
L 457.18151 389.054774 
L 457.527296 388.581076 
L 457.784622 388.228352 
L 458.27182 387.334385 
L 458.366424 387.117791 
L 458.67849 386.403318 
L 459.67412 383.72381 
L 459.965303 382.940266 
L 460.177305 382.419089 
L 460.414203 381.907753 
L 460.668288 381.408242 
L 461.102601 380.618942 
L 461.561147 379.738663 
L 461.952514 378.827613 
L 462.036346 378.593514 
L 462.089688 378.444466 
L 462.254977 377.982622 
L 462.284439 377.900298 
L 462.437183 377.379339 
L 462.563759 376.947493 
L 462.781849 375.980363 
L 462.932271 375.006067 
L 463.018216 374.015897 
L 463.346703 368.848012 
L 463.385404 368.239537 
L 463.480242 367.467713 
L 463.697345 366.717951 
L 464.007829 365.996904 
L 464.42468 365.333114 
L 464.926153 364.732069 
L 465.975967 363.631353 
L 466.701842 362.747677 
L 467.232806 361.921925 
L 467.674771 360.958222 
L 467.976489 359.938735 
L 468.144036 358.886355 
L 468.149388 358.691431 
L 467.568643 356.603603 
L 467.546171 356.523585 
L 467.227695 356.510375 
L 467.139427 356.507646 
L 467.069668 356.185565 
L 466.898044 354.806671 
L 466.86619 354.745686 
L 466.812309 354.64253 
L 466.792002 354.456873 
L 466.778463 354.336814 
L 466.388595 350.812559 
L 466.313864 350.423452 
L 466.142908 350.047088 
L 465.620103 348.929405 
L 465.506042 348.562252 
L 465.196828 347.945181 
L 464.96736 347.518383 
L 464.705955 346.857207 
L 464.457705 346.18859 
L 464.150666 345.500103 
L 463.530018 344.108748 
L 463.275999 343.637882 
L 462.804932 343.082778 
L 461.38143 341.462668 
L 459.850708 339.720617 
L 459.08576 338.820677 
L 459.010175 338.686235 
L 457.47347 335.952836 
L 457.360924 335.75266 
L 455.698113 333.145748 
L 453.993367 330.581956 
L 451.135768 327.99465 
L 449.070689 326.125371 
L 447.737657 324.912134 
L 447.377139 324.58401 
L 447.213694 324.382939 
L 447.04171 324.171411 
L 446.815397 323.784289 
L 445.369087 321.310314 
L 444.708446 320.180513 
L 442.007825 316.634603 
L 440.391596 314.940568 
L 439.631842 314.146236 
L 439.134086 311.120253 
L 438.62959 307.435544 
L 438.244539 304.623286 
L 438.313886 303.881459 
L 438.205292 302.46128 
L 438.199073 302.116035 
L 438.190082 301.622746 
L 438.18416 301.292591 
L 438.181852 301.168061 
L 438.194524 301.080387 
L 438.239897 300.77523 
L 438.191864 300.585654 
L 437.927488 299.540643 
L 437.882773 299.363678 
L 437.789439 298.974872 
L 437.584285 298.22364 
L 437.049372 296.251721 
L 437.307204 293.40438 
L 437.424526 293.36351 
L 437.482303 293.063276 
L 437.595997 292.472474 
L 437.63267 292.282173 
L 437.979788 291.854158 
L 438.72898 290.930501 
L 439.475797 289.426078 
L 439.505442 289.43553 
L 439.593686 289.187635 
L 439.654359 289.017011 
L 439.739785 289.030415 
L 439.949036 288.427721 
L 440.067444 288.245981 
L 440.017043 288.210052 
L 439.961442 288.170703 
L 440.192238 287.73019 
L 440.31606 287.488553 
L 440.370554 287.304787 
L 440.46618 287.071623 
L 440.528698 286.901841 
L 440.634986 286.564261 
L 440.723404 286.265727 
L 441.506815 283.619835 
L 442.227431 280.969546 
L 442.65197 279.37947 
L 442.985826 278.128789 
L 443.005663 278.041047 
L 443.439543 277.425922 
L 444.578472 273.179091 
L 445.837973 268.482946 
L 446.02613 267.810251 
L 446.659812 265.503349 
L 447.091478 263.933557 
L 447.230275 263.363918 
L 447.690754 261.82971 
L 448.000555 260.781396 
L 448.035472 260.486634 
L 448.059575 260.229238 
L 448.062767 259.912313 
L 448.174641 258.981278 
L 448.171439 258.892893 
L 448.169954 258.85086 
L 448.095509 258.392867 
L 448.029551 257.987249 
L 447.965329 257.369012 
L 447.932203 256.677759 
L 449.437576 248.359234 
L 449.491573 248.205451 
L 449.548886 248.052921 
L 449.609587 247.901717 
L 449.673531 247.751841 
L 449.98977 247.092958 
L 450.673704 245.960087 
L 450.903437 245.601017 
L 451.351341 245.042051 
L 452.057021 243.973604 
L 452.552084 241.850136 
L 452.597901 241.038903 
L 452.573809 240.308559 
L 452.625852 239.08537 
L 452.742362 237.775902 
L 452.802705 237.015458 
L 452.267876 237.01042 
L 452.323843 236.707621 
L 453.575892 229.343736 
L 454.332199 224.895679 
L 454.534146 222.387133 
L 455.221459 215.051512 
L 454.934624 210.914015 
L 454.648352 206.92446 
L 454.629784 206.281577 
L 454.62501 206.165303 
L 454.723773 205.7332 
L 456.57426 197.359093 
L 457.478949 193.060295 
L 457.736321 193.059902 
L 458.620894 189.283843 
L 458.841436 188.592711 
L 458.954777 188.377229 
L 459.08551 188.105417 
L 459.406488 187.594842 
L 459.591644 187.279454 
L 459.679021 187.130583 
L 459.772429 187.005776 
L 459.871903 186.880848 
L 459.975094 186.758999 
L 460.082004 186.640373 
L 460.192416 186.525049 
L 460.306258 186.413102 
L 460.350869 186.362199 
L 460.407097 186.298041 
L 461.208185 185.522425 
L 461.234701 185.496752 
L 461.276986 185.455812 
L 461.991639 184.751044 
L 473.207222 172.63524 
L 473.300684 172.561217 
L 475.883567 169.698881 
L 476.237112 169.306906 
L 476.423836 169.100097 
L 476.563079 168.832375 
L 476.780067 168.494532 
L 477.246465 167.768012 
L 481.415767 162.487026 
L 486.198068 156.429652 
L 486.244951 156.362852 
L 488.751131 153.149938 
L 489.213575 152.969958 
L 489.483126 152.682532 
L 489.533737 152.619396 
L 489.674567 152.398327 
L 489.770866 152.330556 
L 490.396566 151.715238 
L 489.920412 151.654016 
L 489.348839 152.016422 
L 489.289862 151.887584 
L 489.223353 151.762484 
L 489.149396 151.641708 
L 489.06829 151.525542 
L 488.980409 151.414493 
L 488.885982 151.308921 
L 488.785381 151.20926 
L 488.679051 151.115795 
L 488.56722 151.028959 
L 488.450406 150.949036 
L 488.329051 150.876237 
L 486.086917 149.564219 
L 484.712581 148.991168 
L 481.717074 147.642997 
L 479.843807 146.695286 
L 478.529883 146.138656 
L 478.095813 145.84148 
L 477.66225 145.600061 
L 476.930005 145.253067 
L 475.699991 144.482284 
L 472.763427 142.500213 
L 472.359056 142.29381 
L 471.327463 141.767256 
L 470.490628 141.301058 
L 467.204616 139.380192 
L 464.485842 138.065912 
L 463.59685 137.596143 
L 461.938278 136.760657 
L 461.244059 136.352049 
L 459.743303 135.357153 
L 459.231475 134.952642 
L 458.007853 133.766957 
L 457.074135 132.686275 
L 455.421119 129.273099 
L 455.034589 128.621365 
L 454.429328 127.527899 
L 453.119078 125.495218 
L 452.663118 124.615933 
L 452.253585 124.304527 
L 452.06478 124.068048 
L 451.1443 122.91538 
L 450.702799 122.466256 
L 449.706738 121.601975 
L 448.259682 120.750279 
L 447.388552 120.08051 
L 446.263322 119.18655 
L 445.18887 118.631827 
L 444.925614 118.495972 
L 444.363708 118.205837 
L 443.72079 118.347237 
L 443.535468 118.38813 
L 442.836766 118.541554 
L 441.039386 118.940889 
L 439.866854 119.213325 
L 439.356977 119.329089 
L 438.4455 119.540302 
L 437.145657 119.839304 
L 436.990491 119.851684 
L 435.933017 119.935651 
L 435.775586 119.948149 
L 434.46753 119.593596 
L 433.827607 119.456638 
L 433.737858 120.115515 
L 431.785183 119.456665 
L 430.924287 119.166175 
L 429.704004 118.81261 
L 429.019347 118.625179 
L 427.018724 118.075906 
L 426.857172 118.031625 
L 425.445186 117.644285 
L 424.051067 117.261945 
L 423.837311 117.203606 
L 422.624497 116.906709 
L 422.056269 116.76769 
L 421.20847 116.559623 
L 419.789502 116.211868 
L 418.33871 115.856323 
L 418.182466 115.81795 
L 416.902314 115.504016 
L 416.781133 115.474693 
L 415.876717 115.295976 
L 415.37422 115.185853 
L 413.944468 114.87395 
L 413.727945 114.827469 
L 412.55748 114.398594 
L 411.044614 113.845285 
L 409.612705 113.321517 
L 407.402924 112.513731 
L 407.369637 111.911448 
L 406.805087 111.811145 
L 405.655153 111.6 
L 404.752476 113.624248 
L 404.268553 115.141679 
L 404.032791 115.567362 
L 403.77959 116.024537 
L 403.530598 117.099888 
L 400.912225 116.760763 
L 400.248334 116.858105 
L 399.923489 116.907074 
L 398.712854 117.089831 
L 398.524727 117.118126 
L 398.297447 117.152477 
L 398.115448 117.17999 
L 397.568299 117.440405 
L 394.917217 117.605406 
L 393.457788 117.696335 
L 391.993253 117.780557 
L 390.534247 117.87061 
L 388.707934 117.98155 
L 387.524437 118.060992 
L 387.325679 118.073163 
L 386.093393 118.148526 
L 384.611875 118.239126 
L 383.160087 118.327893 
L 381.707058 118.416763 
L 378.838695 118.59223 
L 378.702391 118.600522 
L 378.339938 118.622709 
L 378.071203 118.639141 
L 377.160177 118.694929 
L 376.922924 118.709414 
L 376.682748 118.724031 
L 375.935927 118.769654 
L 374.787789 118.839565 
L 373.461348 118.920517 
L 372.157332 119 
L 370.843311 119.0802 
L 369.536155 119.159902 
L 368.22228 119.240037 
L 366.918558 119.319533 
L 365.599791 119.399994 
L 364.253193 119.482117 
L 362.859482 119.567166 
L 362.596079 119.58321 
L 362.479353 119.590382 
L 361.191998 119.668986 
L 360.716238 119.698321 
L 360.236227 119.666507 
L 359.66061 119.554178 
L 359.19752 119.381975 
L 358.710578 119.168545 
L 358.269949 118.890811 
L 358.029574 118.674445 
L 358.045708 118.471114 
L 357.055975 119.45026 
L 356.96748 119.560121 
L 356.767518 119.616751 
L 356.207047 119.775481 
L 354.541788 120.679946 
L 354.034983 120.917346 
L 353.89761 121.22484 
L 352.454204 121.307554 
L 350.992223 121.38669 
L 349.483924 121.482882 
L 347.95007 121.57014 
L 346.919294 121.656766 
L 346.194244 121.704433 
L 342.128971 121.936451 
L 340.841881 122.016735 
L 337.979796 122.185663 
L 337.295557 122.226006 
L 335.876021 122.309774 
L 335.774101 122.515906 
L 335.550861 122.967324 
L 330.302025 122.871368 
L 330.115394 122.864421 
L 329.928541 122.864587 
L 329.741905 122.872004 
L 329.672774 122.877421 
L 329.555706 122.886593 
L 329.370162 122.908351 
L 329.185567 122.937271 
L 329.002283 122.973273 
L 328.735608 123.019306 
L 328.470804 123.074754 
L 328.208092 123.139688 
L 327.947906 123.21395 
L 327.690468 123.297537 
L 327.436209 123.390147 
L 327.185423 123.491847 
L 326.938398 123.602412 
L 326.695425 123.721763 
L 326.456868 123.849745 
L 326.223013 123.986133 
L 325.994224 124.130773 
L 325.770643 124.283516 
L 325.552706 124.444133 
L 325.345703 124.581081 
L 325.14382 124.725327 
L 324.947201 124.876795 
L 324.756134 125.03526 
L 324.570833 125.200424 
L 324.391662 125.372207 
L 324.218689 125.550386 
L 324.052272 125.73459 
L 323.892557 125.92474 
L 323.739756 126.120468 
L 323.594083 126.321548 
L 323.455679 126.527758 
L 323.324761 126.738874 
L 323.201539 126.954525 
L 323.052535 127.208288 
L 322.911297 127.466437 
L 322.778116 127.728821 
L 322.652914 127.995222 
L 322.535903 128.265268 
L 322.427226 128.538811 
L 322.326877 128.815484 
L 322.235143 129.095134 
L 322.151876 129.377545 
L 322.077284 129.662273 
L 322.01144 129.949243 
L 321.954409 130.238015 
L 321.768309 131.588791 
L 321.712234 132.023737 
L 321.601741 132.859592 
L 321.59859 132.899374 
L 321.603041 132.939002 
L 321.614992 132.977013 
L 321.633979 133.012098 
L 321.659243 133.042954 
L 321.689882 133.068351 
L 321.724856 133.087433 
L 321.762834 133.099492 
L 321.802345 133.10412 
L 322.098131 133.135392 
L 322.412918 133.16862 
L 322.373499 133.454113 
L 322.249334 134.388659 
L 321.761517 138.140807 
L 321.668968 138.839269 
L 321.56932 139.592173 
L 321.377558 141.043238 
L 321.184717 142.49513 
L 320.991498 143.946371 
L 320.784414 145.413573 
L 320.591634 146.864658 
L 320.268923 149.239342 
L 320.053406 150.89475 
L 319.914363 151.962013 
L 318.892381 151.851641 
L 318.733597 153.046516 
L 318.584149 154.170855 
L 318.407956 155.496666 
L 318.2329 156.81344 
L 318.058496 158.126245 
L 317.886178 159.422666 
L 317.711578 160.736501 
L 317.538759 162.036963 
L 317.364216 163.349917 
L 317.19058 164.656918 
L 316.974054 166.286408 
L 316.757456 167.9159 
L 316.608532 169.036565 
L 316.340415 171.05394 
L 316.171416 172.325674 
L 316.000062 173.614822 
L 315.821222 174.96084 
L 315.652171 176.233454 
L 315.475549 177.562354 
L 315.303503 178.856866 
L 315.133554 180.135581 
L 314.955164 181.47822 
L 314.782616 182.7767 
L 314.562608 184.432057 
L 314.49635 184.930817 
L 314.351109 186.023852 
L 314.346676 186.057214 
L 314.200817 187.155029 
L 313.040005 187.460112 
L 312.68151 190.157152 
L 312.484295 191.632295 
L 312.292737 193.075888 
L 312.277057 193.194478 
L 311.712392 197.440563 
L 311.517825 198.901511 
L 311.32628 200.341733 
L 311.179678 201.44191 
L 311.138052 201.816037 
L 311.095319 202.204184 
L 309.856312 211.501502 
L 308.806719 219.377918 
L 308.664484 220.30155 
L 308.648199 220.429971 
L 305.023986 220.436032 
L 304.952116 220.902004 
L 304.780613 222.257115 
L 304.650528 223.224471 
L 304.289734 225.907865 
L 304.107876 227.260474 
L 303.914701 228.697437 
L 303.716172 230.173566 
L 303.521481 231.622284 
L 303.327608 233.064318 
L 303.130354 234.530895 
L 302.934571 235.986891 
L 302.738295 237.447367 
L 302.543248 238.877993 
L 302.342105 240.343551 
L 302.144314 241.8012 
L 301.947366 243.253409 
L 301.54066 246.251446 
L 301.394778 247.326845 
L 301.008008 250.177774 
L 300.812461 251.619257 
L 300.611004 253.104901 
L 300.424761 254.478046 
L 300.239145 255.845976 
L 300.213426 256.035851 
L 300.10964 256.801012 
L 300.016865 257.484757 
L 299.822609 258.917348 
L 299.627889 260.35222 
L 299.509331 261.226134 
L 299.429679 261.813397 
L 299.321059 262.614344 
L 299.155945 263.84893 
L 299.134794 264.025963 
L 299.036499 264.711285 
L 298.618872 264.67831 
L 298.214744 267.461972 
L 297.589427 269.386177 
L 297.471405 270.22095 
L 297.246782 271.953066 
L 296.524488 277.521777 
L 296.233332 279.135078 
L 296.153632 279.576703 
L 295.784899 282.294725 
L 295.653095 283.352548 
L 295.506832 284.480207 
L 295.469477 284.789178 
L 295.36332 285.570071 
L 295.322657 286.144797 
L 295.337241 286.669691 
L 295.385027 287.242393 
L 295.254988 288.194956 
L 295.18864 288.498734 
L 294.863672 289.773833 
L 294.742332 290.343117 
L 294.664139 291.125863 
L 294.613013 291.407926 
L 294.546291 291.914101 
L 294.515285 292.266106 
L 294.008108 295.867227 
L 293.676615 298.380289 
L 293.64717 298.839818 
L 293.654681 299.854493 
L 293.123612 303.90514 
L 292.969736 305.140493 
L 292.839027 306.405609 
L 292.785476 307.474743 
L 292.798818 308.157603 
L 292.907323 308.992611 
L 292.044557 309.154103 
L 291.134267 315.550877 
L 291.273924 315.568178 
L 291.1334 316.511058 
L 291.108564 316.751699 
L 291.098457 316.859699 
L 290.992947 317.70482 
L 290.867703 318.708013 
L 289.317153 318.592742 
L 286.0259 318.365321 
L 280.327425 317.985136 
L 275.473173 317.659274 
L 274.736045 317.674212 
L 273.283678 317.59053 
L 272.083284 317.412867 
L 271.115129 317.335758 
L 269.762527 317.241979 
L 269.017334 317.191506 
L 266.986695 317.053672 
L 262.549548 316.744852 
L 252.639738 316.056897 
L 252.646565 316.351052 
L 252.782604 322.235621 
L 252.840494 324.7259 
L 252.849745 325.103838 
L 253.033241 332.789845 
L 252.157703 333.119817 
L 252.70882 340.345407 
L 253.041561 345.295541 
L 252.208975 347.238345 
L 252.082993 347.532195 
L 251.665452 348.569979 
L 247.603434 352.271899 
L 248.794301 355.54038 
L 250.070943 358.971196 
L 251.350716 362.359303 
L 252.626664 365.743755 
L 253.833973 369.049219 
L 254.169917 369.948355 
L 255.986785 374.812568 
L 258.080136 380.378109 
L 259.320496 383.71846 
L 260.325346 386.35212 
L 261.772814 390.18321 
L 263.198212 394.023034 
L 264.873955 398.569482 
L 265.070489 399.095897 
L 266.405311 402.67325 
L 267.922962 406.747844 
L 268.909256 409.373697 
L 268.967931 409.384305 
L 269.859942 409.546263 
L 270.774175 409.712169 
L 271.323593 409.811828 
L 274.866799 410.438801 
L 276.152576 410.675308 
L 276.340339 410.709536 
L 278.47574 411.101045 
L 278.916257 411.181817 
L 279.488722 411.286737 
L 279.996057 411.379787 
L 280.036312 411.387171 
L 281.745728 411.700718 
L 282.044461 411.755272 
L 282.591116 412.712531 
L 282.689885 412.885378 
L 284.046104 415.289878 
L 284.716844 416.433105 
L 284.880064 416.718599 
L 286.142068 418.742124 
L 288.299641 422.276676 
L 291.684361 428.417922 
L 290.304405 430.710923 
L 290.817298 432.46646 
L 290.849238 432.575882 
L 291.010632 432.683931 
L 292.283633 433.536161 
L 293.504706 434.353613 
L 293.833665 437.392714 
L 293.798726 438.246476 
L 293.92673 438.253049 
L 294.047861 439.371936 
L 294.063292 439.514374 
L 294.913429 447.370798 
L 295.276009 450.720736 
L 295.288662 450.837729 
L 295.327166 451.242876 
L 295.419493 452.214368 
L 295.042795 452.816065 
L 295.467047 452.851396 
L 295.470329 452.860699 
L 296.374028 454.384766 
L 296.383475 454.400699 
L 299.856048 460.260023 
L 302.443233 464.625409 
L 304.286308 469.742449 
L 305.617368 473.438445 
L 310.256097 486.319878 
L 312.542982 492.157955 
L 315.065428 498.599012 
L 315.555506 499.850363 
L 315.933942 500.816852 
L 317.339792 504.407108 
L 317.926946 505.906538 
L 318.018798 506.14109 
L 318.217749 506.649165 
L 319.085455 508.865124 
L 320.283981 511.926013 
L 320.768093 513.162176 
L 320.860872 513.399421 
L 321.212745 514.387042 
L 321.708209 515.778259 
L 322.054739 518.247645 
L 321.379025 520.665437 
L 320.492723 524.248087 
L 316.583767 530.025422 
L 314.811938 534.329721 
L 314.482032 535.131391 
L 312.505988 540.295074 
L 310.686982 540.031895 
L 310.650519 544.769406 
L 310.647815 545.119229 
L 310.544839 558.536397 
L 310.543113 558.771003 
L 310.539254 559.555255 
L 310.538556 559.680798 
L 310.525702 562.312414 
L 313.343204 562.332245 
L 315.089524 565.616938 
L 315.407316 566.221325 
L 315.959217 567.271009 
L 315.997565 567.343956 
L 317.625482 570.372074 
L 317.878428 570.842641 
L 318.507081 572.041887 
L 320.28048 575.425281 
L 322.50192 579.624873 
L 325.037726 584.393329 
L 325.275813 584.845074 
L 325.535376 586.08591 
L 326.108561 588.703458 
L 326.746499 591.553688 
L 327.848948 596.552316 
L 328.95592 601.42071 
L 330.044009 606.25937 
L 331.185364 611.477288 
L 333.907728 612.256546 
" clip-path="url(#pcea444b3e8)" style="fill: #d3d3d3"/>
   </g>
   <g id="matplotlib.axis_1">
    <g id="xtick_1">
     <g id="line2d_1">
      <defs>
       <path id="mc9b708633f" d="M 0 0 
L 0 3.5 
" style="stroke: #000000; stroke-width: 0.8"/>
      </defs>
      <g>
       <use xlink:href="#mc9b708633f" x="271.421491" y="640.8" style="stroke: #000000; stroke-width: 0.8"/>
      </g>
     </g>
     <g id="text_1">
      <!-- 13.54 -->
      <g transform="translate(257.107429 655.398438) scale(0.1 -0.1)">
       <defs>
        <path id="DejaVuSans-31" d="M 794 531 
L 1825 531 
L 1825 4091 
L 703 3866 
L 703 4441 
L 1819 4666 
L 2450 4666 
L 2450 531 
L 3481 531 
L 3481 0 
L 794 0 
L 794 531 
z
" transform="scale(0.015625)"/>
        <path id="DejaVuSans-33" d="M 2597 2516 
Q 3050 2419 3304 2112 
Q 3559 1806 3559 1356 
Q 3559 666 3084 287 
Q 2609 -91 1734 -91 
Q 1441 -91 1130 -33 
Q 819 25 488 141 
L 488 750 
Q 750 597 1062 519 
Q 1375 441 1716 441 
Q 2309 441 2620 675 
Q 2931 909 2931 1356 
Q 2931 1769 2642 2001 
Q 2353 2234 1838 2234 
L 1294 2234 
L 1294 2753 
L 1863 2753 
Q 2328 2753 2575 2939 
Q 2822 3125 2822 3475 
Q 2822 3834 2567 4026 
Q 2313 4219 1838 4219 
Q 1578 4219 1281 4162 
Q 984 4106 628 3988 
L 628 4550 
Q 988 4650 1302 4700 
Q 1616 4750 1894 4750 
Q 2613 4750 3031 4423 
Q 3450 4097 3450 3541 
Q 3450 3153 3228 2886 
Q 3006 2619 2597 2516 
z
" transform="scale(0.015625)"/>
        <path id="DejaVuSans-2e" d="M 684 794 
L 1344 794 
L 1344 0 
L 684 0 
L 684 794 
z
" transform="scale(0.015625)"/>
        <path id="DejaVuSans-35" d="M 691 4666 
L 3169 4666 
L 3169 4134 
L 1269 4134 
L 1269 2991 
Q 1406 3038 1543 3061 
Q 1681 3084 1819 3084 
Q 2600 3084 3056 2656 
Q 3513 2228 3513 1497 
Q 3513 744 3044 326 
Q 2575 -91 1722 -91 
Q 1428 -91 1123 -41 
Q 819 9 494 109 
L 494 744 
Q 775 591 1075 516 
Q 1375 441 1709 441 
Q 2250 441 2565 725 
Q 2881 1009 2881 1497 
Q 2881 1984 2565 2268 
Q 2250 2553 1709 2553 
Q 1456 2553 1204 2497 
Q 953 2441 691 2322 
L 691 4666 
z
" transform="scale(0.015625)"/>
        <path id="DejaVuSans-34" d="M 2419 4116 
L 825 1625 
L 2419 1625 
L 2419 4116 
z
M 2253 4666 
L 3047 4666 
L 3047 1625 
L 3713 1625 
L 3713 1100 
L 3047 1100 
L 3047 0 
L 2419 0 
L 2419 1100 
L 313 1100 
L 313 1709 
L 2253 4666 
z
" transform="scale(0.015625)"/>
       </defs>
       <use xlink:href="#DejaVuSans-31"/>
       <use xlink:href="#DejaVuSans-33" x="63.623047"/>
       <use xlink:href="#DejaVuSans-2e" x="127.246094"/>
       <use xlink:href="#DejaVuSans-35" x="159.033203"/>
       <use xlink:href="#DejaVuSans-34" x="222.65625"/>
      </g>
     </g>
    </g>
    <g id="xtick_2">
     <g id="line2d_2">
      <g>
       <use xlink:href="#mc9b708633f" x="321.024934" y="640.8" style="stroke: #000000; stroke-width: 0.8"/>
      </g>
     </g>
     <g id="text_2">
      <!-- 13.55 -->
      <g transform="translate(306.710872 655.398438) scale(0.1 -0.1)">
       <use xlink:href="#DejaVuSans-31"/>
       <use xlink:href="#DejaVuSans-33" x="63.623047"/>
       <use xlink:href="#DejaVuSans-2e" x="127.246094"/>
       <use xlink:href="#DejaVuSans-35" x="159.033203"/>
       <use xlink:href="#DejaVuSans-35" x="222.65625"/>
      </g>
     </g>
    </g>
    <g id="xtick_3">
     <g id="line2d_3">
      <g>
       <use xlink:href="#mc9b708633f" x="370.628378" y="640.8" style="stroke: #000000; stroke-width: 0.8"/>
      </g>
     </g>
     <g id="text_3">
      <!-- 13.56 -->
      <g transform="translate(356.314315 655.398438) scale(0.1 -0.1)">
       <defs>
        <path id="DejaVuSans-36" d="M 2113 2584 
Q 1688 2584 1439 2293 
Q 1191 2003 1191 1497 
Q 1191 994 1439 701 
Q 1688 409 2113 409 
Q 2538 409 2786 701 
Q 3034 994 3034 1497 
Q 3034 2003 2786 2293 
Q 2538 2584 2113 2584 
z
M 3366 4563 
L 3366 3988 
Q 3128 4100 2886 4159 
Q 2644 4219 2406 4219 
Q 1781 4219 1451 3797 
Q 1122 3375 1075 2522 
Q 1259 2794 1537 2939 
Q 1816 3084 2150 3084 
Q 2853 3084 3261 2657 
Q 3669 2231 3669 1497 
Q 3669 778 3244 343 
Q 2819 -91 2113 -91 
Q 1303 -91 875 529 
Q 447 1150 447 2328 
Q 447 3434 972 4092 
Q 1497 4750 2381 4750 
Q 2619 4750 2861 4703 
Q 3103 4656 3366 4563 
z
" transform="scale(0.015625)"/>
       </defs>
       <use xlink:href="#DejaVuSans-31"/>
       <use xlink:href="#DejaVuSans-33" x="63.623047"/>
       <use xlink:href="#DejaVuSans-2e" x="127.246094"/>
       <use xlink:href="#DejaVuSans-35" x="159.033203"/>
       <use xlink:href="#DejaVuSans-36" x="222.65625"/>
      </g>
     </g>
    </g>
    <g id="xtick_4">
     <g id="line2d_4">
      <g>
       <use xlink:href="#mc9b708633f" x="420.231821" y="640.8" style="stroke: #000000; stroke-width: 0.8"/>
      </g>
     </g>
     <g id="text_4">
      <!-- 13.57 -->
      <g transform="translate(405.917758 655.398438) scale(0.1 -0.1)">
       <defs>
        <path id="DejaVuSans-37" d="M 525 4666 
L 3525 4666 
L 3525 4397 
L 1831 0 
L 1172 0 
L 2766 4134 
L 525 4134 
L 525 4666 
z
" transform="scale(0.015625)"/>
       </defs>
       <use xlink:href="#DejaVuSans-31"/>
       <use xlink:href="#DejaVuSans-33" x="63.623047"/>
       <use xlink:href="#DejaVuSans-2e" x="127.246094"/>
       <use xlink:href="#DejaVuSans-35" x="159.033203"/>
       <use xlink:href="#DejaVuSans-37" x="222.65625"/>
      </g>
     </g>
    </g>
    <g id="xtick_5">
     <g id="line2d_5">
      <g>
       <use xlink:href="#mc9b708633f" x="469.835264" y="640.8" style="stroke: #000000; stroke-width: 0.8"/>
      </g>
     </g>
     <g id="text_5">
      <!-- 13.58 -->
      <g transform="translate(455.521202 655.398438) scale(0.1 -0.1)">
       <defs>
        <path id="DejaVuSans-38" d="M 2034 2216 
Q 1584 2216 1326 1975 
Q 1069 1734 1069 1313 
Q 1069 891 1326 650 
Q 1584 409 2034 409 
Q 2484 409 2743 651 
Q 3003 894 3003 1313 
Q 3003 1734 2745 1975 
Q 2488 2216 2034 2216 
z
M 1403 2484 
Q 997 2584 770 2862 
Q 544 3141 544 3541 
Q 544 4100 942 4425 
Q 1341 4750 2034 4750 
Q 2731 4750 3128 4425 
Q 3525 4100 3525 3541 
Q 3525 3141 3298 2862 
Q 3072 2584 2669 2484 
Q 3125 2378 3379 2068 
Q 3634 1759 3634 1313 
Q 3634 634 3220 271 
Q 2806 -91 2034 -91 
Q 1263 -91 848 271 
Q 434 634 434 1313 
Q 434 1759 690 2068 
Q 947 2378 1403 2484 
z
M 1172 3481 
Q 1172 3119 1398 2916 
Q 1625 2713 2034 2713 
Q 2441 2713 2670 2916 
Q 2900 3119 2900 3481 
Q 2900 3844 2670 4047 
Q 2441 4250 2034 4250 
Q 1625 4250 1398 4047 
Q 1172 3844 1172 3481 
z
" transform="scale(0.015625)"/>
       </defs>
       <use xlink:href="#DejaVuSans-31"/>
       <use xlink:href="#DejaVuSans-33" x="63.623047"/>
       <use xlink:href="#DejaVuSans-2e" x="127.246094"/>
       <use xlink:href="#DejaVuSans-35" x="159.033203"/>
       <use xlink:href="#DejaVuSans-38" x="222.65625"/>
      </g>
     </g>
    </g>
   </g>
   <g id="matplotlib.axis_2">
    <g id="ytick_1">
     <g id="line2d_6">
      <defs>
       <path id="m54c68d3b35" d="M 0 0 
L -3.5 0 
" style="stroke: #000000; stroke-width: 0.8"/>
      </defs>
      <g>
       <use xlink:href="#m54c68d3b35" x="235.463777" y="560.519811" style="stroke: #000000; stroke-width: 0.8"/>
      </g>
     </g>
     <g id="text_6">
      <!-- 52.48 -->
      <g transform="translate(199.835652 564.31903) scale(0.1 -0.1)">
       <defs>
        <path id="DejaVuSans-32" d="M 1228 531 
L 3431 531 
L 3431 0 
L 469 0 
L 469 531 
Q 828 903 1448 1529 
Q 2069 2156 2228 2338 
Q 2531 2678 2651 2914 
Q 2772 3150 2772 3378 
Q 2772 3750 2511 3984 
Q 2250 4219 1831 4219 
Q 1534 4219 1204 4116 
Q 875 4013 500 3803 
L 500 4441 
Q 881 4594 1212 4672 
Q 1544 4750 1819 4750 
Q 2544 4750 2975 4387 
Q 3406 4025 3406 3419 
Q 3406 3131 3298 2873 
Q 3191 2616 2906 2266 
Q 2828 2175 2409 1742 
Q 1991 1309 1228 531 
z
" transform="scale(0.015625)"/>
       </defs>
       <use xlink:href="#DejaVuSans-35"/>
       <use xlink:href="#DejaVuSans-32" x="63.623047"/>
       <use xlink:href="#DejaVuSans-2e" x="127.246094"/>
       <use xlink:href="#DejaVuSans-34" x="159.033203"/>
       <use xlink:href="#DejaVuSans-38" x="222.65625"/>
      </g>
     </g>
    </g>
    <g id="ytick_2">
     <g id="line2d_7">
      <g>
       <use xlink:href="#m54c68d3b35" x="235.463777" y="479.015232" style="stroke: #000000; stroke-width: 0.8"/>
      </g>
     </g>
     <g id="text_7">
      <!-- 52.49 -->
      <g transform="translate(199.835652 482.814451) scale(0.1 -0.1)">
       <defs>
        <path id="DejaVuSans-39" d="M 703 97 
L 703 672 
Q 941 559 1184 500 
Q 1428 441 1663 441 
Q 2288 441 2617 861 
Q 2947 1281 2994 2138 
Q 2813 1869 2534 1725 
Q 2256 1581 1919 1581 
Q 1219 1581 811 2004 
Q 403 2428 403 3163 
Q 403 3881 828 4315 
Q 1253 4750 1959 4750 
Q 2769 4750 3195 4129 
Q 3622 3509 3622 2328 
Q 3622 1225 3098 567 
Q 2575 -91 1691 -91 
Q 1453 -91 1209 -44 
Q 966 3 703 97 
z
M 1959 2075 
Q 2384 2075 2632 2365 
Q 2881 2656 2881 3163 
Q 2881 3666 2632 3958 
Q 2384 4250 1959 4250 
Q 1534 4250 1286 3958 
Q 1038 3666 1038 3163 
Q 1038 2656 1286 2365 
Q 1534 2075 1959 2075 
z
" transform="scale(0.015625)"/>
       </defs>
       <use xlink:href="#DejaVuSans-35"/>
       <use xlink:href="#DejaVuSans-32" x="63.623047"/>
       <use xlink:href="#DejaVuSans-2e" x="127.246094"/>
       <use xlink:href="#DejaVuSans-34" x="159.033203"/>
       <use xlink:href="#DejaVuSans-39" x="222.65625"/>
      </g>
     </g>
    </g>
    <g id="ytick_3">
     <g id="line2d_8">
      <g>
       <use xlink:href="#m54c68d3b35" x="235.463777" y="397.510653" style="stroke: #000000; stroke-width: 0.8"/>
      </g>
     </g>
     <g id="text_8">
      <!-- 52.50 -->
      <g transform="translate(199.835652 401.309872) scale(0.1 -0.1)">
       <defs>
        <path id="DejaVuSans-30" d="M 2034 4250 
Q 1547 4250 1301 3770 
Q 1056 3291 1056 2328 
Q 1056 1369 1301 889 
Q 1547 409 2034 409 
Q 2525 409 2770 889 
Q 3016 1369 3016 2328 
Q 3016 3291 2770 3770 
Q 2525 4250 2034 4250 
z
M 2034 4750 
Q 2819 4750 3233 4129 
Q 3647 3509 3647 2328 
Q 3647 1150 3233 529 
Q 2819 -91 2034 -91 
Q 1250 -91 836 529 
Q 422 1150 422 2328 
Q 422 3509 836 4129 
Q 1250 4750 2034 4750 
z
" transform="scale(0.015625)"/>
       </defs>
       <use xlink:href="#DejaVuSans-35"/>
       <use xlink:href="#DejaVuSans-32" x="63.623047"/>
       <use xlink:href="#DejaVuSans-2e" x="127.246094"/>
       <use xlink:href="#DejaVuSans-35" x="159.033203"/>
       <use xlink:href="#DejaVuSans-30" x="222.65625"/>
      </g>
     </g>
    </g>
    <g id="ytick_4">
     <g id="line2d_9">
      <g>
       <use xlink:href="#m54c68d3b35" x="235.463777" y="316.006073" style="stroke: #000000; stroke-width: 0.8"/>
      </g>
     </g>
     <g id="text_9">
      <!-- 52.51 -->
      <g transform="translate(199.835652 319.805292) scale(0.1 -0.1)">
       <use xlink:href="#DejaVuSans-35"/>
       <use xlink:href="#DejaVuSans-32" x="63.623047"/>
       <use xlink:href="#DejaVuSans-2e" x="127.246094"/>
       <use xlink:href="#DejaVuSans-35" x="159.033203"/>
       <use xlink:href="#DejaVuSans-31" x="222.65625"/>
      </g>
     </g>
    </g>
    <g id="ytick_5">
     <g id="line2d_10">
      <g>
       <use xlink:href="#m54c68d3b35" x="235.463777" y="234.501494" style="stroke: #000000; stroke-width: 0.8"/>
      </g>
     </g>
     <g id="text_10">
      <!-- 52.52 -->
      <g transform="translate(199.835652 238.300713) scale(0.1 -0.1)">
       <use xlink:href="#DejaVuSans-35"/>
       <use xlink:href="#DejaVuSans-32" x="63.623047"/>
       <use xlink:href="#DejaVuSans-2e" x="127.246094"/>
       <use xlink:href="#DejaVuSans-35" x="159.033203"/>
       <use xlink:href="#DejaVuSans-32" x="222.65625"/>
      </g>
     </g>
    </g>
    <g id="ytick_6">
     <g id="line2d_11">
      <g>
       <use xlink:href="#m54c68d3b35" x="235.463777" y="152.996915" style="stroke: #000000; stroke-width: 0.8"/>
      </g>
     </g>
     <g id="text_11">
      <!-- 52.53 -->
      <g transform="translate(199.835652 156.796134) scale(0.1 -0.1)">
       <use xlink:href="#DejaVuSans-35"/>
       <use xlink:href="#DejaVuSans-32" x="63.623047"/>
       <use xlink:href="#DejaVuSans-2e" x="127.246094"/>
       <use xlink:href="#DejaVuSans-35" x="159.033203"/>
       <use xlink:href="#DejaVuSans-33" x="222.65625"/>
      </g>
     </g>
    </g>
   </g>
   <g id="LineCollection_1">
    <path d="M 311.580935 450.033019 
L 314.864187 449.772204 
L 318.364206 449.509759 
L 318.924229 449.658913 
L 332.861308 448.520294 
L 340.816708 447.807944 
L 345.034489 447.430577 
L 345.6461 447.47133 
" clip-path="url(#pcea444b3e8)" style="fill: none; stroke: #ff0000; stroke-opacity: 0.7; stroke-width: 0.5"/>
    <path d="M 318.839903 151.681431 
L 319.077999 151.687136 
L 319.860742 151.681431 
L 320.234256 151.440993 
" clip-path="url(#pcea444b3e8)" style="fill: none; stroke: #ff0000; stroke-opacity: 0.7; stroke-width: 0.5"/>
    <path d="M 309.278839 220.174619 
L 309.357709 219.579636 
L 309.600269 217.7034 
L 309.770905 216.383841 
L 309.807116 216.103466 
L 309.974775 214.806728 
L 310.311583 212.200211 
L 310.424679 211.28736 
L 310.565552 210.31501 
L 310.631029 209.849619 
L 310.70097 209.375263 
L 311.249088 205.635017 
L 311.390458 204.675708 
L 311.45643 204.179346 
L 311.672701 202.559035 
L 311.768436 201.836904 
L 312.267447 198.088508 
L 312.521416 196.143809 
L 312.577468 195.715095 
L 312.606238 195.469766 
L 312.789771 194.114345 
L 313.249099 190.511028 
L 313.492652 188.612786 
L 313.685113 187.115547 
L 313.703466 186.870218 
L 313.744141 186.365705 
" clip-path="url(#pcea444b3e8)" style="fill: none; stroke: #ff0000; stroke-opacity: 0.7; stroke-width: 0.5"/>
    <path d="M 303.669186 262.026406 
L 304.210855 258.015565 
L 305.177626 250.861093 
L 305.594295 247.776145 
L 305.654812 247.3295 
L 305.705407 246.946428 
L 305.949952 245.10361 
L 305.959873 245.030256 
L 306.696484 239.472458 
L 307.065533 236.687447 
L 307.835379 230.877801 
L 308.268417 227.611097 
L 308.649371 224.688343 
" clip-path="url(#pcea444b3e8)" style="fill: none; stroke: #ff0000; stroke-opacity: 0.7; stroke-width: 0.5"/>
    <path d="M 302.085348 272.840433 
L 302.216301 272.663568 
L 303.286743 264.826088 
" clip-path="url(#pcea444b3e8)" style="fill: none; stroke: #ff0000; stroke-opacity: 0.7; stroke-width: 0.5"/>
    <path d="M 399.549169 160.731699 
L 400.02933 160.765931 
L 400.439055 160.795273 
L 403.265459 160.994959 
" clip-path="url(#pcea444b3e8)" style="fill: none; stroke: #ff0000; stroke-opacity: 0.7; stroke-width: 0.5"/>
    <path d="M 439.742839 175.388668 
L 440.571713 176.101018 
L 440.976477 176.448228 
L 443.290477 178.080764 
L 444.515186 178.898255 
L 445.850015 179.732862 
L 446.141187 179.899946 
L 447.547941 180.720698 
L 449.017195 181.537373 
L 449.75083 181.915555 
L 452.683881 183.289722 
L 453.099062 183.481258 
" clip-path="url(#pcea444b3e8)" style="fill: none; stroke: #ff0000; stroke-opacity: 0.7; stroke-width: 0.5"/>
    <path d="M 360.863444 155.873212 
L 361.503824 155.947381 
L 361.62188 155.960421 
L 362.927443 156.11039 
L 364.84412 156.331267 
L 368.017748 156.696408 
L 368.488981 156.750201 
L 375.251419 157.52857 
L 375.970668 157.610889 
L 377.676035 157.807315 
L 380.439939 158.125183 
L 381.544607 158.25233 
L 382.282211 158.337095 
L 383.272295 158.451201 
L 383.411681 158.467502 
L 384.682521 158.613395 
L 386.10614 158.77722 
L 387.142356 158.896216 
L 388.388394 159.039664 
L 390.179575 159.245871 
L 392.370559 159.49772 
L 395.082875 159.809883 
L 395.594783 159.869381 
L 396.892409 160.018534 
L 397.65531 160.105744 
L 397.812553 160.12449 
L 397.995589 160.144867 
L 398.09182 160.156277 
L 398.547676 160.20844 
" clip-path="url(#pcea444b3e8)" style="fill: none; stroke: #ff0000; stroke-opacity: 0.7; stroke-width: 0.5"/>
    <path d="M 398.547676 160.20844 
L 399.549169 160.731699 
" clip-path="url(#pcea444b3e8)" style="fill: none; stroke: #ff0000; stroke-opacity: 0.7; stroke-width: 0.5"/>
    <path d="M 325.878135 152.050647 
L 326.312165 152.097919 
L 328.83202 152.37259 
L 329.14849 152.407637 
L 329.329543 152.427198 
L 329.708017 152.468765 
L 332.544342 152.777668 
L 333.250695 152.855097 
L 334.093458 152.947197 
L 334.173319 152.956163 
L 335.39158 153.089015 
L 337.032958 153.26751 
L 337.307761 153.297667 
L 338.584553 153.43704 
L 338.717987 153.45171 
L 338.955091 153.477792 
L 340.249741 153.618795 
L 341.702626 153.771208 
L 342.10243 153.817666 
L 342.666917 153.873904 
L 343.417417 153.948073 
L 343.673867 153.97334 
L 345.016136 154.106192 
L 345.780029 154.193402 
L 345.970506 154.215408 
L 346.697196 154.299358 
L 347.454145 154.385753 
L 347.605932 154.403684 
L 348.110895 154.461552 
L 348.19522 154.471333 
L 350.564281 154.743558 
L 350.67192 154.755784 
L 350.919938 154.78431 
L 351.094046 154.803056 
L 353.984934 155.119294 
L 354.614402 155.187758 
L 355.295457 155.261927 
L 355.808853 155.318165 
L 356.79745 155.426566 
L 357.433862 155.495845 
L 358.438331 155.605061 
L 360.266218 155.804748 
L 360.367905 155.816158 
L 360.863444 155.873212 
" clip-path="url(#pcea444b3e8)" style="fill: none; stroke: #ff0000; stroke-opacity: 0.7; stroke-width: 0.5"/>
    <path d="M 453.099062 183.481258 
L 453.847082 183.812166 
L 454.643714 184.164266 
" clip-path="url(#pcea444b3e8)" style="fill: none; stroke: #ff0000; stroke-opacity: 0.7; stroke-width: 0.5"/>
    <path d="M 454.643714 184.164266 
L 455.252844 184.434046 
L 458.033613 185.66395 
L 465.006865 188.763569 
" clip-path="url(#pcea444b3e8)" style="fill: none; stroke: #ff0000; stroke-opacity: 0.7; stroke-width: 0.5"/>
    <path d="M 440.251274 174.771678 
L 439.570715 174.217447 
L 438.169914 173.045411 
L 437.236873 172.264597 
L 435.476943 170.79181 
L 434.54539 170.012626 
L 433.995288 169.54642 
L 432.724448 168.776201 
L 432.369287 168.523537 
L 431.101423 167.622912 
L 430.454594 167.164041 
L 429.541395 166.573133 
L 428.52006 165.912131 
L 426.980369 164.916145 
L 425.51806 164.231506 
L 424.096921 163.58436 
L 423.376679 163.304799 
L 421.564665 162.629941 
L 420.487279 162.273766 
L 419.646004 162.050444 
L 419.371697 161.986055 
L 418.096393 161.746432 
L 416.97089 161.578532 
L 416.0691 161.44405 
L 414.830998 161.255774 
L 414.089923 161.131072 
L 412.012034 160.873517 
L 411.042287 160.812389 
L 409.576009 160.756966 
L 407.855266 160.64775 
L 405.217851 160.452954 
" clip-path="url(#pcea444b3e8)" style="fill: none; stroke: #ff0000; stroke-opacity: 0.7; stroke-width: 0.5"/>
    <path d="M 399.452938 160.043801 
L 398.547676 160.20844 
" clip-path="url(#pcea444b3e8)" style="fill: none; stroke: #ff0000; stroke-opacity: 0.7; stroke-width: 0.5"/>
    <path d="M 405.217851 160.452954 
L 402.331426 160.272829 
L 401.959897 160.243487 
" clip-path="url(#pcea444b3e8)" style="fill: none; stroke: #ff0000; stroke-opacity: 0.7; stroke-width: 0.5"/>
    <path d="M 425.017065 164.704233 
L 425.259626 164.811819 
L 426.740289 165.54862 
L 428.165892 166.44028 
L 432.007678 169.029681 
L 433.53348 170.090055 
L 434.240329 170.591308 
" clip-path="url(#pcea444b3e8)" style="fill: none; stroke: #ff0000; stroke-opacity: 0.7; stroke-width: 0.5"/>
    <path d="M 349.778066 332.983477 
L 345.610881 332.428431 
L 345.02556 332.485484 
L 344.734388 332.791127 
L 344.277044 336.04805 
L 344.262659 336.261592 
L 344.253235 336.401779 
L 344.218016 336.916888 
" clip-path="url(#pcea444b3e8)" style="fill: none; stroke: #ff0000; stroke-opacity: 0.7; stroke-width: 0.5"/>
    <path d="M 350.678865 327.862545 
L 350.41299 327.68731 
L 350.343546 327.679159 
L 348.571711 327.463987 
L 345.482408 327.089881 
L 345.405027 327.080101 
L 345.33459 327.629442 
L 345.158994 329.003609 
L 344.998775 330.257149 
L 344.863357 331.129248 
L 344.692225 332.233635 
L 344.753238 332.280093 
L 345.02556 332.485484 
" clip-path="url(#pcea444b3e8)" style="fill: none; stroke: #ff0000; stroke-opacity: 0.7; stroke-width: 0.5"/>
    <path d="M 303.449442 263.690729 
L 303.49855 263.288912 
L 303.669186 262.026406 
" clip-path="url(#pcea444b3e8)" style="fill: none; stroke: #ff0000; stroke-opacity: 0.7; stroke-width: 0.5"/>
    <path d="M 303.286743 264.826088 
L 303.349243 264.377813 
L 303.375533 264.189537 
L 303.449442 263.690729 
" clip-path="url(#pcea444b3e8)" style="fill: none; stroke: #ff0000; stroke-opacity: 0.7; stroke-width: 0.5"/>
    <path d="M 309.062072 221.723206 
L 309.278839 220.174619 
" clip-path="url(#pcea444b3e8)" style="fill: none; stroke: #ff0000; stroke-opacity: 0.7; stroke-width: 0.5"/>
    <path d="M 403.265459 160.994959 
L 404.372608 161.051197 
L 404.740169 161.063423 
" clip-path="url(#pcea444b3e8)" style="fill: none; stroke: #ff0000; stroke-opacity: 0.7; stroke-width: 0.5"/>
    <path d="M 320.234256 151.440993 
L 320.76154 151.491525 
L 321.256583 151.546133 
L 321.569084 151.57955 
L 322.060654 151.633343 
L 322.209465 151.649644 
L 323.0056 151.736854 
L 323.20699 151.75886 
L 325.42476 152.000929 
L 325.878135 152.050647 
" clip-path="url(#pcea444b3e8)" style="fill: none; stroke: #ff0000; stroke-opacity: 0.7; stroke-width: 0.5"/>
    <path d="M 465.42403 188.288398 
L 454.931413 183.490223 
L 453.391723 182.793359 
L 451.914036 182.10709 
L 450.109959 181.21543 
L 449.979502 181.135556 
L 449.411542 180.817688 
L 448.583165 180.361262 
L 446.256267 179.119948 
L 443.756254 177.47926 
L 441.098005 175.42616 
L 440.251274 174.771678 
" clip-path="url(#pcea444b3e8)" style="fill: none; stroke: #ff0000; stroke-opacity: 0.7; stroke-width: 0.5"/>
    <path d="M 308.649371 224.688343 
L 308.705919 224.28571 
L 308.799174 223.632044 
L 308.911774 222.842264 
L 308.936079 222.670289 
L 309.062072 221.723206 
" clip-path="url(#pcea444b3e8)" style="fill: none; stroke: #ff0000; stroke-opacity: 0.7; stroke-width: 0.5"/>
    <path d="M 401.959897 160.243487 
L 400.604234 160.135086 
L 400.487666 160.12612 
L 400.298181 160.109005 
L 399.883496 160.078033 
L 399.452938 160.043801 
" clip-path="url(#pcea444b3e8)" style="fill: none; stroke: #ff0000; stroke-opacity: 0.7; stroke-width: 0.5"/>
    <path d="M 437.824178 173.706413 
L 439.085098 174.810801 
L 439.742839 175.388668 
" clip-path="url(#pcea444b3e8)" style="fill: none; stroke: #ff0000; stroke-opacity: 0.7; stroke-width: 0.5"/>
    <path d="M 404.740169 161.063423 
L 407.365184 161.203611 
" clip-path="url(#pcea444b3e8)" style="fill: none; stroke: #ff0000; stroke-opacity: 0.7; stroke-width: 0.5"/>
    <path d="M 407.365184 161.203611 
L 409.132058 161.275335 
L 411.738719 161.431824 
L 414.753121 161.838532 
L 416.869203 162.199597 
L 418.024964 162.396838 
" clip-path="url(#pcea444b3e8)" style="fill: none; stroke: #ff0000; stroke-opacity: 0.7; stroke-width: 0.5"/>
    <path d="M 418.024964 162.396838 
L 419.161379 162.597339 
L 419.664357 162.693515 
" clip-path="url(#pcea444b3e8)" style="fill: none; stroke: #ff0000; stroke-opacity: 0.7; stroke-width: 0.5"/>
    <path d="M 419.664357 162.693515 
L 420.286385 162.811696 
L 421.083016 163.078216 
L 422.228359 163.491445 
L 423.265071 163.926679 
L 425.017065 164.704233 
" clip-path="url(#pcea444b3e8)" style="fill: none; stroke: #ff0000; stroke-opacity: 0.7; stroke-width: 0.5"/>
    <path d="M 434.240329 170.591308 
L 434.402532 170.70623 
L 437.824178 173.706413 
" clip-path="url(#pcea444b3e8)" style="fill: none; stroke: #ff0000; stroke-opacity: 0.7; stroke-width: 0.5"/>
   </g>
   <g id="patch_3">
    <path d="M 235.463777 640.8 
L 235.463777 86.4 
" style="fill: none; stroke: #000000; stroke-width: 0.8; stroke-linejoin: miter; stroke-linecap: square"/>
   </g>
   <g id="patch_4">
    <path d="M 502.536223 640.8 
L 502.536223 86.4 
" style="fill: none; stroke: #000000; stroke-width: 0.8; stroke-linejoin: miter; stroke-linecap: square"/>
   </g>
   <g id="patch_5">
    <path d="M 235.463777 640.8 
L 502.536223 640.8 
" style="fill: none; stroke: #000000; stroke-width: 0.8; stroke-linejoin: miter; stroke-linecap: square"/>
   </g>
   <g id="patch_6">
    <path d="M 235.463777 86.4 
L 502.536223 86.4 
" style="fill: none; stroke: #000000; stroke-width: 0.8; stroke-linejoin: miter; stroke-linecap: square"/>
   </g>
   <g id="text_12">
    <!-- Biesdorf -->
    <g transform="translate(342.682315 340.454504) scale(0.12 -0.12)">
     <defs>
      <path id="DejaVuSans-42" d="M 1259 2228 
L 1259 519 
L 2272 519 
Q 2781 519 3026 730 
Q 3272 941 3272 1375 
Q 3272 1813 3026 2020 
Q 2781 2228 2272 2228 
L 1259 2228 
z
M 1259 4147 
L 1259 2741 
L 2194 2741 
Q 2656 2741 2882 2914 
Q 3109 3088 3109 3444 
Q 3109 3797 2882 3972 
Q 2656 4147 2194 4147 
L 1259 4147 
z
M 628 4666 
L 2241 4666 
Q 2963 4666 3353 4366 
Q 3744 4066 3744 3513 
Q 3744 3084 3544 2831 
Q 3344 2578 2956 2516 
Q 3422 2416 3680 2098 
Q 3938 1781 3938 1306 
Q 3938 681 3513 340 
Q 3088 0 2303 0 
L 628 0 
L 628 4666 
z
" transform="scale(0.015625)"/>
      <path id="DejaVuSans-69" d="M 603 3500 
L 1178 3500 
L 1178 0 
L 603 0 
L 603 3500 
z
M 603 4863 
L 1178 4863 
L 1178 4134 
L 603 4134 
L 603 4863 
z
" transform="scale(0.015625)"/>
      <path id="DejaVuSans-65" d="M 3597 1894 
L 3597 1613 
L 953 1613 
Q 991 1019 1311 708 
Q 1631 397 2203 397 
Q 2534 397 2845 478 
Q 3156 559 3463 722 
L 3463 178 
Q 3153 47 2828 -22 
Q 2503 -91 2169 -91 
Q 1331 -91 842 396 
Q 353 884 353 1716 
Q 353 2575 817 3079 
Q 1281 3584 2069 3584 
Q 2775 3584 3186 3129 
Q 3597 2675 3597 1894 
z
M 3022 2063 
Q 3016 2534 2758 2815 
Q 2500 3097 2075 3097 
Q 1594 3097 1305 2825 
Q 1016 2553 972 2059 
L 3022 2063 
z
" transform="scale(0.015625)"/>
      <path id="DejaVuSans-73" d="M 2834 3397 
L 2834 2853 
Q 2591 2978 2328 3040 
Q 2066 3103 1784 3103 
Q 1356 3103 1142 2972 
Q 928 2841 928 2578 
Q 928 2378 1081 2264 
Q 1234 2150 1697 2047 
L 1894 2003 
Q 2506 1872 2764 1633 
Q 3022 1394 3022 966 
Q 3022 478 2636 193 
Q 2250 -91 1575 -91 
Q 1294 -91 989 -36 
Q 684 19 347 128 
L 347 722 
Q 666 556 975 473 
Q 1284 391 1588 391 
Q 1994 391 2212 530 
Q 2431 669 2431 922 
Q 2431 1156 2273 1281 
Q 2116 1406 1581 1522 
L 1381 1569 
Q 847 1681 609 1914 
Q 372 2147 372 2553 
Q 372 3047 722 3315 
Q 1072 3584 1716 3584 
Q 2034 3584 2315 3537 
Q 2597 3491 2834 3397 
z
" transform="scale(0.015625)"/>
      <path id="DejaVuSans-64" d="M 2906 2969 
L 2906 4863 
L 3481 4863 
L 3481 0 
L 2906 0 
L 2906 525 
Q 2725 213 2448 61 
Q 2172 -91 1784 -91 
Q 1150 -91 751 415 
Q 353 922 353 1747 
Q 353 2572 751 3078 
Q 1150 3584 1784 3584 
Q 2172 3584 2448 3432 
Q 2725 3281 2906 2969 
z
M 947 1747 
Q 947 1113 1208 752 
Q 1469 391 1925 391 
Q 2381 391 2643 752 
Q 2906 1113 2906 1747 
Q 2906 2381 2643 2742 
Q 2381 3103 1925 3103 
Q 1469 3103 1208 2742 
Q 947 2381 947 1747 
z
" transform="scale(0.015625)"/>
      <path id="DejaVuSans-6f" d="M 1959 3097 
Q 1497 3097 1228 2736 
Q 959 2375 959 1747 
Q 959 1119 1226 758 
Q 1494 397 1959 397 
Q 2419 397 2687 759 
Q 2956 1122 2956 1747 
Q 2956 2369 2687 2733 
Q 2419 3097 1959 3097 
z
M 1959 3584 
Q 2709 3584 3137 3096 
Q 3566 2609 3566 1747 
Q 3566 888 3137 398 
Q 2709 -91 1959 -91 
Q 1206 -91 779 398 
Q 353 888 353 1747 
Q 353 2609 779 3096 
Q 1206 3584 1959 3584 
z
" transform="scale(0.015625)"/>
      <path id="DejaVuSans-72" d="M 2631 2963 
Q 2534 3019 2420 3045 
Q 2306 3072 2169 3072 
Q 1681 3072 1420 2755 
Q 1159 2438 1159 1844 
L 1159 0 
L 581 0 
L 581 3500 
L 1159 3500 
L 1159 2956 
Q 1341 3275 1631 3429 
Q 1922 3584 2338 3584 
Q 2397 3584 2469 3576 
Q 2541 3569 2628 3553 
L 2631 2963 
z
" transform="scale(0.015625)"/>
      <path id="DejaVuSans-66" d="M 2375 4863 
L 2375 4384 
L 1825 4384 
Q 1516 4384 1395 4259 
Q 1275 4134 1275 3809 
L 1275 3500 
L 2222 3500 
L 2222 3053 
L 1275 3053 
L 1275 0 
L 697 0 
L 697 3053 
L 147 3053 
L 147 3500 
L 697 3500 
L 697 3744 
Q 697 4328 969 4595 
Q 1241 4863 1831 4863 
L 2375 4863 
z
" transform="scale(0.015625)"/>
     </defs>
     <use xlink:href="#DejaVuSans-42"/>
     <use xlink:href="#DejaVuSans-69" x="68.603516"/>
     <use xlink:href="#DejaVuSans-65" x="96.386719"/>
     <use xlink:href="#DejaVuSans-73" x="157.910156"/>
     <use xlink:href="#DejaVuSans-64" x="210.009766"/>
     <use xlink:href="#DejaVuSans-6f" x="273.486328"/>
     <use xlink:href="#DejaVuSans-72" x="334.667969"/>
     <use xlink:href="#DejaVuSans-66" x="375.78125"/>
    </g>
   </g>
  </g>
 </g>
 <defs>
  <clipPath id="pcea444b3e8">
   <rect x="235.463777" y="86.4" width="267.072446" height="554.4"/>
  </clipPath>
 </defs>
</svg>
