<?xml version="1.0" encoding="utf-8" standalone="no"?>
<!DOCTYPE svg PUBLIC "-//W3C//DTD SVG 1.1//EN"
  "http://www.w3.org/Graphics/SVG/1.1/DTD/svg11.dtd">
<svg xmlns:xlink="http://www.w3.org/1999/xlink" width="720pt" height="720pt" viewBox="0 0 720 720" xmlns="http://www.w3.org/2000/svg" version="1.1">
 <metadata>
  <rdf:RDF xmlns:dc="http://purl.org/dc/elements/1.1/" xmlns:cc="http://creativecommons.org/ns#" xmlns:rdf="http://www.w3.org/1999/02/22-rdf-syntax-ns#">
   <cc:Work>
    <dc:type rdf:resource="http://purl.org/dc/dcmitype/StillImage"/>
    <dc:date>2024-10-17T11:36:16.916775</dc:date>
    <dc:format>image/svg+xml</dc:format>
    <dc:creator>
     <cc:Agent>
      <dc:title>Matplotlib v3.9.2, https://matplotlib.org/</dc:title>
     </cc:Agent>
    </dc:creator>
   </cc:Work>
  </rdf:RDF>
 </metadata>
 <defs>
  <style type="text/css">*{stroke-linejoin: round; stroke-linecap: butt}</style>
 </defs>
 <g id="figure_1">
  <g id="patch_1">
   <path d="M 0 720 
L 720 720 
L 720 0 
L 0 0 
z
" style="fill: #ffffff"/>
  </g>
  <g id="axes_1">
   <g id="patch_2">
    <path d="M 120.184924 640.8 
L 617.815076 640.8 
L 617.815076 86.4 
L 120.184924 86.4 
z
" style="fill: #ffffff"/>
   </g>
   <g id="PatchCollection_1">
    <path d="M 475.816822 167.90292 
L 475.008105 165.809814 
L 473.884961 162.898848 
L 473.336729 162.664794 
L 472.700061 162.185631 
L 472.083342 161.533172 
L 471.359973 160.004316 
L 470.78669 158.792669 
L 470.745759 158.80772 
L 470.353369 158.026195 
L 470.063922 157.449704 
L 469.829028 156.981864 
L 469.633669 156.592766 
L 469.442336 156.674136 
L 469.223837 156.184752 
L 469.021252 155.731009 
L 468.801842 155.239584 
L 468.585706 154.755492 
L 467.75987 152.905819 
L 467.546928 152.428878 
L 467.413312 152.129612 
L 467.001327 151.60735 
L 466.763097 151.305352 
L 466.374908 150.75907 
L 466.018939 150.31162 
L 463.786912 151.076137 
L 463.596965 151.141198 
L 463.268408 150.539855 
L 463.224487 150.461147 
L 463.078156 150.198914 
L 459.340021 143.49745 
L 453.519003 133.051451 
L 451.402292 127.364 
L 450.780004 121.451471 
L 451.030432 119.166617 
L 451.442769 115.400555 
L 452.817173 111.87129 
L 452.872528 111.860402 
L 452.925722 111.84195 
L 452.975841 111.816101 
L 453.021887 111.78352 
L 453.062863 111.744788 
L 453.097938 111.700736 
L 453.12653 111.652114 
L 453.148057 111.6 
L 451.590799 111.897804 
L 451.546082 111.668404 
L 451.221598 111.672726 
L 450.897197 111.683365 
L 450.573128 111.700321 
L 450.249392 111.723593 
L 449.882934 111.757338 
L 449.517308 111.799146 
L 449.152679 111.849015 
L 448.789213 111.906947 
L 448.42716 111.972941 
L 448.066687 112.046914 
L 445.47713 112.606034 
L 445.25147 112.657317 
L 445.026725 112.712422 
L 444.802977 112.771352 
L 444.580227 112.834187 
L 444.494784 112.859454 
L 444.40959 112.88522 
L 444.324479 112.911568 
L 444.148107 112.963931 
L 437.436503 115.051136 
L 436.16882 115.456741 
L 435.970672 115.520242 
L 434.580144 115.965909 
L 431.055617 117.093957 
L 429.50027 117.592153 
L 429.340106 117.643436 
L 427.291384 118.299719 
L 426.195834 118.650467 
L 425.403989 118.899732 
L 424.533849 119.16404 
L 424.126 119.282647 
L 423.665621 119.412806 
L 423.373137 119.49534 
L 422.866047 119.636055 
L 422.69695 119.683262 
L 421.403042 120.044486 
L 406.371708 124.171022 
L 404.46902 122.529151 
L 403.523444 122.800112 
L 402.663162 123.046631 
L 401.822861 123.267552 
L 401.567197 123.323988 
L 400.285551 123.607247 
L 400.050167 123.659277 
L 399.947934 123.681885 
L 399.81071 123.712139 
L 399.708893 123.735162 
L 399.426715 123.801239 
L 399.17903 123.859088 
L 398.896602 123.924999 
L 398.303238 124.054992 
L 396.713814 124.423694 
L 395.870687 124.619598 
L 393.721228 125.118127 
L 392.017436 125.513841 
L 390.578285 125.802503 
L 390.087819 125.900912 
L 388.707015 126.139122 
L 387.324882 126.363701 
L 385.936515 126.563511 
L 385.792392 126.582794 
L 385.544541 126.615874 
L 384.544075 126.749608 
L 384.298551 126.775789 
L 383.829944 126.826323 
L 383.15255 126.899382 
L 382.826985 126.925398 
L 382.172365 126.977677 
L 381.855693 127.003028 
L 380.267932 127.108668 
L 377.649949 127.339896 
L 376.076649 127.467063 
L 374.672739 127.613347 
L 373.261515 127.744421 
L 371.852037 127.874664 
L 370.45968 128.026018 
L 370.150573 128.05835 
L 369.571754 128.122183 
L 369.403527 128.140551 
L 369.369367 128.144042 
L 369.132071 128.169475 
L 369.060508 128.177371 
L 367.849594 128.308861 
L 366.439949 128.465202 
L 363.454594 128.797748 
L 363.124209 128.834818 
L 362.047194 128.954505 
L 360.649684 129.108934 
L 359.257826 129.322542 
L 358.797946 129.383216 
L 357.868046 129.505895 
L 357.314162 129.570476 
L 356.477684 129.665145 
L 355.083333 129.829797 
L 354.21951 129.941256 
L 354.23098 130.030356 
L 353.858704 130.076818 
L 353.312882 130.145139 
L 353.30216 130.060111 
L 353.106339 130.085462 
L 352.649867 130.144557 
L 352.445569 130.170988 
L 352.279087 130.192598 
L 351.889025 130.243216 
L 351.039332 130.353344 
L 350.928621 130.367806 
L 350.89604 130.371962 
L 349.858671 130.506527 
L 347.803632 131.419139 
L 347.617286 131.471252 
L 346.551159 131.7713 
L 346.435046 131.804048 
L 345.981151 131.93188 
L 345.95231 131.939942 
L 344.947688 132.223367 
L 343.539623 132.625399 
L 343.308145 132.690811 
L 341.200078 133.285754 
L 340.744687 133.410844 
L 339.201142 133.77381 
L 337.827071 134.094222 
L 333.944315 135.008579 
L 330.270345 135.658462 
L 328.878487 135.903737 
L 320.409648 137.401651 
L 319.339615 137.590739 
L 318.273903 137.783984 
L 314.635175 138.445419 
L 311.329409 139.046596 
L 309.853271 139.314479 
L 309.849029 139.315265 
L 307.768144 139.701134 
L 306.991177 139.835116 
L 305.599984 140.087872 
L 304.204719 140.341375 
L 303.403897 140.496635 
L 297.620614 141.357383 
L 291.845642 142.217466 
L 285.333932 143.189838 
L 284.432042 143.327311 
L 284.487812 143.761425 
L 284.908379 147.079576 
L 285.184656 149.248983 
L 285.50914 151.808286 
L 283.11291 151.207524 
L 275.353465 149.261616 
L 274.807975 150.588394 
L 273.676353 153.323654 
L 271.570863 158.415579 
L 271.377452 158.883106 
L 270.478388 161.060907 
L 271.377785 161.620693 
L 275.600817 164.272337 
L 278.629143 166.170454 
L 281.811566 168.165234 
L 282.410249 168.539837 
L 283.117398 168.982928 
L 288.730461 172.488754 
L 290.18665 173.400451 
L 291.454749 174.194374 
L 292.142449 174.652924 
L 292.812945 175.145219 
L 293.307068 175.556061 
L 293.541103 175.749476 
L 293.638451 175.829927 
L 294.249436 176.394201 
L 294.833906 176.992884 
L 303.606451 186.461192 
L 298.445123 187.041257 
L 296.75089 187.110409 
L 294.420405 187.205743 
L 290.555352 187.05414 
L 286.420671 186.881675 
L 282.458124 186.485545 
L 278.442714 186.244675 
L 274.372947 185.714313 
L 273.274405 185.315273 
L 272.830733 186.04902 
L 271.426942 188.365958 
L 271.241724 188.671657 
L 270.794727 189.409477 
L 270.737377 189.539719 
L 270.544382 189.97242 
L 270.442233 190.201488 
L 269.213947 192.953952 
L 268.757308 193.978271 
L 268.199934 195.229331 
L 267.410001 196.999449 
L 265.44988 201.393534 
L 264.757109 202.948632 
L 264.472437 203.585632 
L 264.16682 204.271337 
L 263.671034 205.258338 
L 262.165973 208.271536 
L 260.094227 211.981994 
L 259.422485 213.217511 
L 259.38608 213.255079 
L 259.219433 213.582722 
L 259.009399 214.005033 
L 258.866108 214.287378 
L 256.523488 218.954249 
L 256.038922 219.917479 
L 252.509491 226.947001 
L 247.740221 226.493189 
L 245.98282 231.455454 
L 245.317145 233.335202 
L 245.042115 234.120314 
L 243.169349 239.470979 
L 242.288902 245.524472 
L 240.895881 253.837137 
L 237.194566 261.077856 
L 236.511188 264.806433 
L 234.992578 274.567807 
L 233.871761 277.0863 
L 233.071688 278.73324 
L 231.444695 282.084887 
L 230.643791 283.73432 
L 230.35754 284.323113 
L 230.311079 284.490924 
L 230.152244 285.067997 
L 229.993327 285.645071 
L 229.754119 286.512384 
L 229.493385 287.458991 
L 229.085785 288.921414 
L 228.751327 290.123518 
L 228.411715 291.329612 
L 227.818434 293.468349 
L 227.109124 296.024577 
L 226.963172 296.574471 
L 226.857821 296.906047 
L 226.857117 296.908264 
L 226.797439 297.148469 
L 226.773419 297.244884 
L 226.751061 297.327584 
L 225.849005 300.62562 
L 225.516458 301.855984 
L 225.472905 302.003099 
L 225.348481 302.471956 
L 225.217989 302.953196 
L 225.071539 303.49054 
L 224.917858 304.051988 
L 224.747304 304.677019 
L 224.564117 305.350922 
L 224.372036 306.056991 
L 224.146044 306.882913 
L 223.931023 307.656722 
L 223.910161 307.748648 
L 223.647432 308.715119 
L 223.353535 309.793298 
L 223.048915 310.911954 
L 223.015004 311.031807 
L 222.657772 312.335645 
L 222.261309 313.780863 
L 221.434473 316.795309 
L 221.021886 318.300038 
L 220.639719 319.693143 
L 220.475399 320.293405 
L 220.287142 321.017012 
L 220.000226 322.117798 
L 219.745559 323.098565 
L 219.560959 323.805714 
L 219.385252 324.480532 
L 219.200319 325.244117 
L 219.080134 325.70807 
L 218.789477 326.833624 
L 218.726642 327.076738 
L 218.358023 328.503422 
L 217.774051 330.758687 
L 217.730914 330.931568 
L 216.694875 334.936837 
L 216.244554 336.679361 
L 216.162851 336.995866 
L 216.121708 337.155033 
L 215.909015 337.978628 
L 215.755999 338.571576 
L 215.461935 339.711094 
L 215.326788 340.234724 
L 215.285979 340.392893 
L 214.856685 342.054213 
L 214.505022 343.416315 
L 214.34544 344.032453 
L 214.241129 344.437393 
L 214.025942 345.27304 
L 213.564899 347.055293 
L 213.425264 347.580336 
L 213.311894 348.036143 
L 213.048999 349.187131 
L 213.033872 349.240907 
L 211.824536 353.399941 
L 211.580093 354.238829 
L 211.415523 354.805014 
L 211.305312 355.183607 
L 211.120877 355.816866 
L 211.006593 356.209256 
L 210.951986 356.413555 
L 210.86887 356.720252 
L 210.59625 357.728198 
L 210.460356 358.228389 
L 210.182417 359.254538 
L 210.089493 359.59764 
L 209.768583 360.78337 
L 209.722952 360.952012 
L 209.719378 360.96689 
L 209.349346 362.331154 
L 209.329731 362.404794 
L 209.292911 362.589644 
L 209.287591 362.616656 
L 209.070493 363.70963 
L 209.043979 363.839623 
L 208.794964 365.091514 
L 208.528411 366.432754 
L 208.52492 366.486696 
L 208.492339 366.974753 
L 208.433742 367.916954 
L 208.393016 368.5744 
L 208.340403 369.328842 
L 208.29843 369.963016 
L 208.246898 370.753199 
L 208.203927 371.437242 
L 208.139263 372.393407 
L 208.107014 372.863177 
L 208.048999 373.733068 
L 208.008854 374.311554 
L 207.998215 374.47762 
L 207.789927 375.031337 
L 207.578979 375.593283 
L 207.147442 376.741113 
L 207.10364 376.857475 
L 206.810407 377.637268 
L 206.626305 378.098312 
L 206.50853 378.392791 
L 206.144566 379.305071 
L 206.085221 379.453516 
L 205.553778 380.787275 
L 205.031977 382.093857 
L 204.676408 382.985274 
L 204.509262 383.40451 
L 203.98397 384.719237 
L 203.89836 384.935421 
L 203.429338 386.000218 
L 202.859578 387.295911 
L 202.288822 388.593183 
L 201.718149 389.890455 
L 201.407212 390.597604 
L 201.147558 391.186896 
L 200.700229 392.202322 
L 200.406331 393.585453 
L 200.220235 394.457089 
L 200.145348 394.811328 
L 199.845133 396.220973 
L 199.524971 398.548632 
L 199.489231 398.812192 
L 199.475766 398.908357 
L 199.126181 400.465034 
L 198.953716 401.229617 
L 198.853894 401.674037 
L 198.600141 402.342372 
L 197.28076 405.823679 
L 197.278661 405.828306 
L 195.748021 409.202005 
L 195.391786 409.841831 
L 195.143021 410.438436 
L 193.295023 414.870173 
L 191.738928 418.601908 
L 189.969641 422.618232 
L 189.543091 423.589108 
L 187.82251 427.515002 
L 187.642315 427.926176 
L 187.640187 427.931025 
L 187.240117 428.842694 
L 186.928183 429.553168 
L 186.318861 431.834615 
L 185.880508 435.133981 
L 185.627503 437.037334 
L 184.987512 441.847996 
L 184.932323 442.262495 
L 184.910879 442.428311 
L 184.788366 443.362616 
L 184.047222 447.637762 
L 183.795215 449.093204 
L 183.495998 450.801234 
L 183.454939 451.036452 
L 182.844868 453.621189 
L 182.641288 454.483623 
L 182.439014 455.340523 
L 182.094498 456.805772 
L 181.94996 457.417255 
L 181.61251 458.422292 
L 181.554329 458.596503 
L 181.386102 459.096943 
L 181.253117 459.493323 
L 181.026626 460.16972 
L 180.577385 461.508383 
L 180.474238 461.816411 
L 179.940967 463.419383 
L 179.918276 463.477148 
L 179.378688 464.845651 
L 179.249942 465.189833 
L 179.221516 465.24577 
L 179.079139 465.609568 
L 178.841511 466.217561 
L 178.515863 466.997603 
L 177.825419 468.649115 
L 177.718283 468.90561 
L 177.609485 469.167009 
L 176.989191 470.536426 
L 176.575357 471.453609 
L 176.453925 471.721408 
L 176.399484 471.830872 
L 176.223112 472.18827 
L 176.217128 472.19974 
L 175.409907 473.830805 
L 175.14377 474.363495 
L 174.902568 474.852548 
L 174.632857 475.400947 
L 173.930279 476.820399 
L 173.732297 477.220519 
L 173.54138 477.605013 
L 173.359855 477.971387 
L 173.284635 478.123739 
L 172.849939 479.00219 
L 172.633256 479.426081 
L 172.41142 479.860693 
L 172.07131 480.526618 
L 171.390259 481.860045 
L 170.431268 483.735886 
L 170.342085 483.923645 
L 169.804491 485.05535 
L 169.694612 485.283503 
L 169.453078 485.792505 
L 169.27895 486.16237 
L 168.826301 487.111969 
L 168.820234 487.125184 
L 168.566065 487.686299 
L 168.304999 488.26063 
L 167.875456 489.212389 
L 167.730585 489.532884 
L 167.377343 490.323232 
L 167.177948 490.715041 
L 166.551587 491.964687 
L 166.386602 492.295655 
L 165.927054 493.213586 
L 165.746444 493.57755 
L 165.183999 494.702107 
L 164.207803 496.652421 
L 163.7569 497.549739 
L 162.778044 499.511606 
L 162.755686 499.549423 
L 162.409675 500.265882 
L 162.138884 500.825085 
L 161.594807 501.949975 
L 161.195103 502.774318 
L 164.156521 503.514298 
L 169.049052 504.737015 
L 177.316584 506.803109 
L 174.347936 518.678534 
L 174.014641 520.011962 
L 173.267264 522.997981 
L 170.417138 524.145562 
L 169.98344 524.320188 
L 162.656197 527.269304 
L 157.271121 529.437547 
L 146.487506 533.77794 
L 145.31898 535.967211 
L 142.804477 540.671651 
L 145.514053 549.102174 
L 145.996624 550.606487 
L 146.467475 552.067331 
L 146.782068 553.052337 
L 147.01978 553.792318 
L 147.133565 554.146059 
L 147.249844 554.500631 
L 147.440512 555.095989 
L 148.257374 557.636342 
L 148.333509 557.873887 
L 148.81691 559.37737 
L 149.378773 561.123301 
L 149.938309 562.865077 
L 150.494437 564.60519 
L 151.055552 566.349459 
L 151.615254 568.079598 
L 152.407016 570.542237 
L 152.536427 570.948591 
L 153.022523 572.449907 
L 153.116576 572.740651 
L 153.606461 574.254191 
L 153.669961 574.451591 
L 154.004253 575.492617 
L 154.386503 576.679179 
L 154.944626 578.402669 
L 155.530011 580.223072 
L 156.090294 581.96651 
L 156.601291 583.549534 
L 156.984372 584.735265 
L 157.646639 586.796455 
L 158.719498 590.122917 
L 160.241848 589.784552 
L 162.399369 589.304392 
L 163.86495 588.979077 
L 165.335519 588.651268 
L 165.814599 588.544879 
L 166.718483 588.344321 
L 168.105604 588.035712 
L 168.429423 587.963733 
L 169.537025 587.717129 
L 170.528514 587.497454 
L 170.903283 587.414005 
L 171.27132 587.332053 
L 173.180075 586.907913 
L 173.91698 586.747416 
L 176.14623 586.254539 
L 177.609485 585.919915 
L 177.766158 585.89631 
L 178.610781 585.709632 
L 178.999431 585.635492 
L 179.305131 585.600584 
L 180.287311 585.433937 
L 180.849756 585.358218 
L 181.479109 585.260474 
L 182.38183 585.119676 
L 182.626855 585.08111 
L 183.78308 584.897839 
L 183.91565 584.87706 
L 184.369961 584.805913 
L 184.948281 584.722964 
L 185.629997 584.625386 
L 186.124121 584.555818 
L 187.015039 584.426489 
L 187.440842 584.366397 
L 188.578781 584.312371 
L 188.696223 584.299655 
L 190.140195 584.238149 
L 190.371589 584.217619 
L 191.702357 584.163178 
L 192.040306 584.136332 
L 192.585796 584.121787 
L 193.26801 584.172986 
L 193.536225 584.183043 
L 194.824853 584.289764 
L 195.194137 584.318439 
L 196.380034 584.409949 
L 196.850636 584.446271 
L 197.93696 584.528389 
L 198.509545 584.574186 
L 199.495465 584.647827 
L 199.997734 584.676419 
L 200.939436 584.758288 
L 201.048734 584.780314 
L 202.543821 585.088008 
L 204.512503 585.493531 
L 205.052756 585.665082 
L 205.589684 585.835635 
L 206.124618 586.029462 
L 206.167506 586.045254 
L 209.576419 587.28102 
L 211.596965 588.366596 
L 214.23448 589.783804 
L 217.503094 591.540541 
L 217.60009 591.594732 
L 218.117569 591.873004 
L 218.639703 592.124762 
L 221.644922 593.5689 
L 222.531768 594.002182 
L 225.130053 595.254904 
L 228.612523 597.60409 
L 228.844915 597.755611 
L 229.877048 598.456693 
L 232.494532 600.230135 
L 233.699046 601.046666 
L 234.687959 601.710346 
L 234.904808 601.843331 
L 235.570898 602.303959 
L 236.971733 603.245578 
L 238.143666 604.027449 
L 238.366749 604.182959 
L 238.962523 604.583245 
L 239.781713 605.11984 
L 241.124699 605.997211 
L 241.193602 606.046748 
L 242.597262 606.966841 
L 243.011927 607.234806 
L 244.312108 608.091481 
L 244.467286 608.189142 
L 245.605806 608.935689 
L 246.099847 609.259591 
L 246.493151 609.5175 
L 246.598209 609.590974 
L 246.835422 609.745902 
L 247.68977 610.140287 
L 248.148819 610.298539 
L 252.214513 611.699706 
L 253.965764 612.303127 
L 255.341331 612.778051 
L 254.750876 615.6 
L 261.720139 614.079313 
L 262.924571 613.766465 
L 263.77227 613.54654 
L 265.466087 613.10586 
L 267.229224 612.648972 
L 274.869897 609.953442 
L 283.865358 606.336241 
L 288.812413 604.868664 
L 301.376037 601.142332 
L 302.411577 600.834554 
L 309.489639 599.092861 
L 315.938514 597.502024 
L 316.045235 597.793262 
L 325.025736 595.572822 
L 327.520374 594.406042 
L 333.222537 591.73927 
L 338.071764 589.471953 
L 344.596441 586.28737 
L 348.85779 584.648741 
L 351.830844 583.452787 
L 355.736125 581.880651 
L 361.970062 579.370719 
L 363.163772 578.891057 
L 363.514438 578.750758 
L 364.716043 578.540475 
L 364.882192 578.512299 
L 368.781655 577.241707 
L 370.217564 576.774429 
L 370.37058 576.724144 
L 370.997107 576.512531 
L 372.569576 575.982252 
L 374.553634 575.312671 
L 375.40125 574.968904 
L 375.856891 574.783971 
L 378.42143 573.743943 
L 379.99847 573.104034 
L 380.178831 573.018508 
L 382.304685 572.014219 
L 385.435243 570.53376 
L 387.500755 569.557398 
L 388.631214 569.02288 
L 389.532937 568.499832 
L 392.758663 567.082624 
L 393.864104 566.596645 
L 394.289906 566.409385 
L 403.381616 562.404282 
L 403.765445 562.23456 
L 405.323451 561.548605 
L 411.34403 558.868867 
L 412.452713 557.906718 
L 413.325678 557.103902 
L 413.968081 556.577529 
L 414.528448 556.086232 
L 415.759144 555.00664 
L 416.229746 554.593471 
L 417.682278 553.775029 
L 419.025015 553.083173 
L 419.449653 552.864329 
L 420.167442 552.494214 
L 424.783529 550.115855 
L 425.361018 549.817053 
L 425.411719 549.804419 
L 425.744548 549.638715 
L 428.488667 548.272511 
L 430.562158 547.232815 
L 432.633156 546.197857 
L 433.673267 545.680378 
L 433.757713 545.637989 
L 436.044812 544.502211 
L 439.270205 542.900735 
L 439.495366 542.784123 
L 442.570319 540.998379 
L 442.580376 540.992478 
L 443.068931 540.708804 
L 444.652787 539.788961 
L 445.596401 539.240978 
L 446.516743 538.70646 
L 446.548161 538.688174 
L 446.741654 538.575802 
L 447.505987 538.171111 
L 448.467305 537.662109 
L 449.432197 537.151279 
L 450.400829 536.638371 
L 451.376027 536.122056 
L 452.348316 535.607236 
L 453.326507 535.089342 
L 454.503676 534.466139 
L 455.017499 534.194018 
L 464.371605 530.60599 
L 465.596982 530.052937 
L 468.28046 529.07724 
L 469.488465 528.592259 
L 472.154323 527.685881 
L 473.851881 527.115873 
L 474.953581 526.706195 
L 479.037062 525.293475 
L 479.308269 525.210193 
L 482.224389 524.458161 
L 487.04652 523.574057 
L 489.826995 523.064308 
L 490.362427 522.966397 
L 490.427507 522.922512 
L 490.492337 522.878378 
L 490.556918 522.833828 
L 490.821642 522.611493 
L 491.081213 522.383174 
L 491.335381 522.14887 
L 491.584147 521.908831 
L 491.827261 521.663141 
L 492.064723 521.411882 
L 492.296283 521.155137 
L 492.52186 520.893239 
L 492.694657 520.649211 
L 492.862551 520.401692 
L 493.025542 520.150931 
L 493.183462 519.897012 
L 493.336229 519.639935 
L 493.483925 519.379866 
L 493.62622 519.11697 
L 493.763278 518.851332 
L 493.895016 518.583034 
L 494.021353 518.31216 
L 494.142286 518.038792 
L 494.257734 517.763096 
L 494.74845 516.557418 
L 492.859726 515.800066 
L 492.349976 515.595934 
L 492.40209 515.875369 
L 489.982338 514.886873 
L 485.045839 512.870898 
L 478.467553 510.172792 
L 478.402805 510.165727 
L 477.631158 509.614336 
L 471.26249 506.995024 
L 470.844417 506.827545 
L 470.140789 506.545214 
L 469.302868 506.208997 
L 468.04574 505.708058 
L 464.914517 504.428489 
L 463.847897 503.988683 
L 459.04471 502.008156 
L 453.375462 499.812069 
L 448.019062 497.622466 
L 445.693397 496.722404 
L 442.7816 495.564268 
L 439.354568 493.709787 
L 434.678803 492.596866 
L 431.078723 491.739942 
L 430.952221 491.711766 
L 429.884764 491.457099 
L 429.017783 490.987744 
L 424.001492 488.265367 
L 420.802281 486.534812 
L 415.011766 483.403922 
L 413.806586 482.751878 
L 413.560231 481.769116 
L 414.572831 481.530657 
L 416.250708 481.137542 
L 414.967964 480.197562 
L 413.613841 479.419681 
L 412.376662 478.398104 
L 410.248397 476.378888 
L 409.155341 475.16548 
L 408.63861 474.410206 
L 406.973633 471.98181 
L 405.513371 469.358508 
L 404.141793 466.83669 
L 404.772043 466.454575 
L 410.254299 463.130721 
L 410.38612 463.051761 
L 410.482036 462.514168 
L 409.934053 461.828961 
L 407.962213 459.362249 
L 407.868625 459.431069 
L 407.056749 458.379321 
L 407.192477 458.278003 
L 407.640555 458.045611 
L 407.787503 457.96848 
L 408.346873 458.014941 
L 409.340772 457.099587 
L 409.576156 456.857636 
L 409.806637 456.610949 
L 410.032047 456.359606 
L 410.252221 456.103776 
L 410.450286 455.864319 
L 410.643862 455.621205 
L 410.832868 455.374517 
L 411.017219 455.124339 
L 411.03858 455.094916 
L 411.05994 455.065409 
L 411.081218 455.03582 
L 411.899992 453.850422 
L 412.68178 452.635352 
L 413.428409 451.399585 
L 414.131486 450.130573 
L 414.789681 448.860729 
L 415.416208 447.551987 
L 415.993946 446.231608 
L 416.532952 444.896353 
L 417.151833 443.28831 
L 417.607806 441.778677 
L 417.749851 441.301759 
L 418.711169 438.116178 
L 419.095247 436.843591 
L 419.479326 435.571004 
L 419.864152 434.298501 
L 420.283721 432.908555 
L 420.667716 431.636051 
L 421.051877 430.3628 
L 421.435956 429.090878 
L 421.819868 427.818291 
L 422.203946 426.545788 
L 422.636647 425.114533 
L 423.591981 421.948817 
L 424.27752 419.678092 
L 424.465778 418.906278 
L 424.568592 418.48513 
L 425.040025 416.555928 
L 425.512123 414.622737 
L 425.985301 412.682897 
L 426.064677 412.361155 
L 426.602769 410.154097 
L 426.940302 408.172366 
L 427.721176 408.193893 
L 428.231175 408.20769 
L 429.093584 408.223233 
L 433.04566 405.756105 
L 433.165346 405.680221 
L 433.765692 405.305285 
L 434.313176 404.96318 
L 434.287577 404.772845 
L 434.265717 404.582094 
L 434.247681 404.390928 
L 434.244024 404.356518 
L 434.240533 404.322191 
L 434.237125 404.287781 
L 434.231806 404.212395 
L 434.226985 404.137009 
L 434.222746 404.06154 
L 434.212107 403.780608 
L 434.209614 403.49951 
L 434.2151 403.218496 
L 434.228731 402.93773 
L 434.250424 402.657464 
L 434.280096 402.377945 
L 434.569505 400.353908 
L 434.965552 397.711905 
L 435.1829 396.238427 
L 435.75241 391.808769 
L 436.099668 389.11008 
L 436.701925 386.277659 
L 438.661215 378.781108 
L 439.178445 376.800624 
L 439.304366 376.601811 
L 440.657159 374.462659 
L 441.100166 373.761992 
L 441.052624 373.536416 
L 441.012812 373.309426 
L 440.980646 373.08119 
L 440.956376 372.851957 
L 440.939836 372.622058 
L 440.930527 372.391827 
L 440.929114 372.16143 
L 440.932165 372.051618 
L 440.935514 371.931116 
L 440.94981 371.701135 
L 440.971836 371.471735 
L 441.053871 370.954671 
L 441.328984 369.29277 
L 441.399134 369.053978 
L 441.727109 367.939811 
L 441.822111 367.702265 
L 442.900206 365.023442 
L 443.148889 364.404811 
L 443.460158 363.631168 
L 443.614753 363.246841 
L 444.555791 360.907795 
L 445.207419 359.286288 
L 445.959368 357.418841 
L 446.3929 356.340164 
L 446.516743 356.077435 
L 446.818952 355.436445 
L 447.156735 354.720652 
L 447.728239 353.509072 
L 448.099767 352.721549 
L 448.321769 352.321097 
L 449.034405 351.072199 
L 449.62353 350.033666 
L 449.791507 349.762542 
L 450.658571 348.392876 
L 451.447673 347.148715 
L 452.407329 345.631103 
L 453.126114 344.497071 
L 454.271617 342.688802 
L 455.763297 340.335294 
L 456.021205 339.928027 
L 456.887356 338.561519 
L 456.946285 338.480398 
L 457.887904 337.17016 
L 458.713328 336.024075 
L 459.332956 335.163993 
L 459.546065 334.885472 
L 460.024314 334.257947 
L 461.109973 332.837414 
L 461.811554 331.918236 
L 462.644125 330.828089 
L 463.476946 329.737775 
L 464.38374 328.549883 
L 465.291281 327.361244 
L 466.779387 325.412344 
L 467.384471 324.621164 
L 469.415395 321.023489 
L 470.785072 318.597177 
L 472.47648 316.278079 
L 473.890446 314.340316 
L 474.608733 312.624639 
L 474.58197 311.97085 
L 479.673896 304.983384 
L 479.797655 304.81923 
L 479.926734 304.659315 
L 480.06105 304.503723 
L 480.200352 304.352618 
L 480.344558 304.206417 
L 480.493501 304.065037 
L 480.647099 303.928561 
L 480.805019 303.797321 
L 480.900686 303.723265 
L 480.998846 303.652699 
L 481.099499 303.585625 
L 481.202479 303.522124 
L 481.322997 303.453886 
L 481.446175 303.390635 
L 481.571846 303.332371 
L 481.680645 303.288901 
L 481.790856 303.249172 
L 481.902398 303.213266 
L 482.015103 303.181183 
L 482.153075 303.143947 
L 482.292544 303.11253 
L 482.433093 303.087013 
L 482.574639 303.067398 
L 482.716933 303.053767 
L 482.859643 303.046037 
L 483.064357 303.044125 
L 483.269072 303.047699 
L 483.47362 303.056842 
L 483.499968 303.058338 
L 483.55258 303.061663 
L 483.725295 303.07546 
L 483.897594 303.093164 
L 484.069477 303.114774 
L 484.240779 303.140373 
L 484.711014 303.216046 
L 489.206286 303.939449 
L 493.976304 304.70586 
L 494.780782 304.835853 
L 494.931554 304.860289 
L 498.196676 305.385807 
L 498.500382 305.436282 
L 498.725377 305.477341 
L 498.949789 305.521642 
L 499.331873 305.605007 
L 499.618373 305.674077 
L 499.829072 305.730263 
L 500.038108 305.792517 
L 500.245233 305.860755 
L 500.45028 305.934977 
L 500.638786 306.009283 
L 500.825215 306.088658 
L 501.087529 306.210589 
L 501.242374 306.288386 
L 501.412761 306.37865 
L 501.580821 306.473235 
L 501.746388 306.572143 
L 501.829421 306.624174 
L 501.911789 306.677285 
L 501.993492 306.731476 
L 502.182331 306.860306 
L 502.369341 306.991795 
L 502.55444 307.126027 
L 502.619936 307.174567 
L 502.685265 307.223522 
L 502.750261 307.272727 
L 503.095774 307.543601 
L 506.059103 309.929442 
L 509.831066 312.966411 
L 510.424181 313.443995 
L 512.037127 314.742846 
L 512.697316 315.274372 
L 513.57344 315.979859 
L 513.790123 316.154319 
L 515.376056 317.431394 
L 516.045554 317.970484 
L 516.915777 318.67115 
L 517.1362 318.848686 
L 519.487381 320.741981 
L 521.187516 322.111398 
L 523.878142 324.277729 
L 524.038722 324.407639 
L 524.198886 324.538131 
L 524.358635 324.669039 
L 524.507329 324.791385 
L 524.655608 324.91423 
L 524.803554 325.037408 
L 524.973359 325.180201 
L 525.142749 325.323576 
L 525.311558 325.467532 
L 525.481363 325.61232 
L 525.650587 325.75769 
L 525.819396 325.903641 
L 525.864195 325.942623 
L 525.908911 325.981687 
L 525.953545 326.020835 
L 526.119361 326.1677 
L 526.284179 326.31573 
L 526.448001 326.464839 
L 526.697764 326.696483 
L 526.945033 326.930704 
L 527.189893 327.167584 
L 527.432258 327.406958 
L 527.679196 327.656139 
L 527.923473 327.907897 
L 528.165008 328.162314 
L 528.403716 328.419392 
L 528.581667 328.614631 
L 528.757956 328.811366 
L 528.932666 329.009514 
L 529.0659 329.162697 
L 529.198138 329.316793 
L 529.329378 329.471638 
L 529.374925 329.52558 
L 529.420306 329.579522 
L 529.465688 329.633548 
L 529.577894 329.767697 
L 529.689685 329.902095 
L 529.820336 330.060156 
L 529.913349 330.173219 
L 530.025223 330.309945 
L 530.136765 330.446919 
L 530.196941 330.521142 
L 530.257117 330.595364 
L 530.317126 330.66967 
L 530.521009 330.925168 
L 530.723646 331.181663 
L 530.925035 331.439156 
L 533.431061 334.657402 
L 533.533377 334.788974 
L 533.839243 335.181946 
L 534.476825 336.001052 
L 534.808706 336.427187 
L 534.885755 336.525846 
L 535.351453 337.123947 
L 535.451774 337.25419 
L 535.550432 337.385679 
L 535.647262 337.518498 
L 535.742014 337.652315 
L 535.835021 337.787295 
L 535.926282 337.923522 
L 536.009564 338.053847 
L 536.089438 338.186251 
L 536.165822 338.320732 
L 536.238631 338.457209 
L 536.307534 338.594682 
L 536.37278 338.733901 
L 536.434369 338.874783 
L 536.492301 339.017243 
L 536.546991 339.162031 
L 536.597858 339.308232 
L 536.644901 339.455679 
L 536.688039 339.604373 
L 536.696184 339.633298 
L 536.704163 339.662222 
L 536.712142 339.69123 
L 536.714413 339.699886 
L 536.74622 339.82114 
L 536.778967 339.951465 
L 536.810302 340.08204 
L 536.846457 340.242121 
L 536.880535 340.402618 
L 536.912451 340.56353 
L 537.554771 343.241024 
L 537.595331 343.442497 
L 537.638884 343.643305 
L 537.685429 343.843531 
L 537.734633 344.043591 
L 537.78683 344.242985 
L 537.841936 344.441549 
L 537.848419 344.463575 
L 537.854902 344.485601 
L 537.861468 344.507626 
L 537.934942 344.740932 
L 538.01623 344.971662 
L 538.105247 345.199483 
L 538.20191 345.424145 
L 538.306055 345.645482 
L 538.376454 345.784951 
L 538.449928 345.922923 
L 538.526312 346.059233 
L 538.605604 346.19388 
L 538.661042 346.284394 
L 538.717811 346.374159 
L 538.775908 346.46301 
L 538.840739 346.558925 
L 538.906982 346.653844 
L 538.974722 346.747764 
L 539.013121 346.799629 
L 539.05177 346.851327 
L 539.090585 346.902859 
L 539.17661 347.015065 
L 539.263798 347.12644 
L 539.352067 347.236901 
L 539.482476 347.395736 
L 539.615212 347.552575 
L 539.750275 347.70742 
L 540.682669 346.883243 
L 542.399842 345.370203 
L 542.836367 344.986872 
L 543.388173 344.505382 
L 543.495974 344.475045 
L 543.552659 344.464489 
L 543.874234 344.729878 
L 544.203955 345.004576 
L 544.908361 345.588963 
L 544.949338 345.622127 
L 545.616924 346.175844 
L 546.070238 346.551777 
L 546.374525 346.801956 
L 547.237018 347.518082 
L 549.965711 349.775591 
L 550.269167 350.03483 
L 550.758719 350.431459 
L 552.230701 351.65243 
L 552.600068 351.958878 
L 553.474945 352.684646 
L 554.13688 353.232296 
L 556.645565 355.306286 
L 556.963483 355.569597 
L 557.798465 356.261453 
L 558.36706 356.729395 
L 559.044704 357.290926 
L 560.964929 358.88301 
L 561.536018 359.355939 
L 562.239677 358.362871 
L 562.578124 358.833057 
L 563.267238 359.790302 
L 563.547338 360.181196 
L 564.270031 361.185485 
L 565.684911 363.151424 
L 565.693888 363.163226 
L 566.030341 362.689217 
L 566.023027 362.679076 
L 568.727949 358.84353 
L 568.942304 358.540157 
L 569.838293 357.268152 
L 570.114986 356.877009 
L 570.46325 356.383127 
L 572.427019 353.598255 
L 573.511847 351.923471 
L 576.575414 347.231249 
L 577.743108 345.351086 
L 578.506278 344.071601 
L 578.955187 343.319735 
L 580.115733 341.377899 
L 580.789553 340.248854 
L 583.47486 335.698178 
L 585.441131 332.641427 
L 589.76382 326.199617 
L 590.816399 324.864111 
L 591.536847 323.949505 
L 591.912863 324.238415 
L 592.6757 324.858792 
L 593.074394 324.381087 
L 593.077067 324.377884 
L 595.195523 321.837448 
L 594.428946 321.199534 
L 594.147266 321.194215 
L 593.968152 321.000472 
L 593.936235 320.965895 
L 593.755625 320.771238 
L 593.626878 320.59096 
L 593.525726 320.401206 
L 593.493643 320.343192 
L 593.345863 320.072816 
L 592.895293 319.24814 
L 592.730474 318.999873 
L 592.303341 318.385897 
L 591.903637 317.98852 
L 591.540837 317.663287 
L 585.287866 312.476859 
L 584.059497 311.450046 
L 583.640344 311.161218 
L 583.295413 310.986758 
L 582.907844 310.826511 
L 582.447049 310.670585 
L 582.121734 310.56054 
L 581.785198 310.425311 
L 581.457805 310.247941 
L 581.208125 310.090271 
L 580.943318 309.899852 
L 579.526109 308.731908 
L 575.034612 305.031342 
L 573.580501 303.837715 
L 573.110896 303.445658 
L 571.984843 302.524153 
L 565.721898 297.359667 
L 562.049923 294.312141 
L 560.68192 293.178275 
L 557.385462 290.444512 
L 547.969019 282.632121 
L 544.254905 279.54977 
L 536.44426 273.067732 
L 533.393992 270.536273 
L 528.948707 266.855737 
L 525.531067 264.023316 
L 524.63566 263.255824 
L 523.794112 262.492654 
L 522.610708 261.442153 
L 521.345353 260.238802 
L 520.11607 259.021155 
L 519.854831 258.749607 
L 518.85861 257.714075 
L 518.838164 257.693712 
L 517.71211 256.468086 
L 516.742065 255.38251 
L 515.608531 254.111003 
L 514.907283 253.271617 
L 514.157495 252.359836 
L 513.220364 251.163549 
L 512.382473 250.033091 
L 510.935094 247.609599 
L 509.790339 245.444515 
L 508.577679 242.868339 
L 508.29093 242.432397 
L 507.90203 242.21056 
L 507.441652 242.429571 
L 507.144449 241.906494 
L 506.844963 241.379402 
L 506.364886 241.666069 
L 506.316097 241.480637 
L 506.318258 241.237191 
L 506.248191 240.985765 
L 506.222509 240.893839 
L 506.125097 240.421575 
L 505.958699 239.381214 
L 505.852809 238.831486 
L 504.430448 235.748636 
L 503.943472 234.697969 
L 503.028034 232.534713 
L 501.648893 229.055401 
L 501.237885 228.205707 
L 500.069692 226.613623 
L 499.92424 226.39719 
L 499.7994 226.187073 
L 499.589449 225.73351 
L 499.259728 224.889468 
L 495.991447 216.517376 
L 495.668127 215.689293 
L 495.576533 215.454657 
L 495.104684 214.246651 
L 494.669074 212.997088 
L 494.424547 212.29559 
L 493.98553 211.037299 
L 492.224887 206.510229 
L 486.781298 192.521001 
L 486.186105 191.519871 
L 485.591411 190.145634 
L 478.842073 175.638761 
L 478.559479 174.894542 
L 478.293591 174.193875 
L 478.257935 174.099871 
L 477.454703 171.980583 
L 477.166291 170.932077 
L 476.939052 170.295327 
L 476.01522 168.397875 
L 475.816822 167.90292 
" clip-path="url(#padb4ed35fa)" style="fill: #d3d3d3"/>
   </g>
   <g id="PatchCollection_2">
    <path d="M 353.433906 495.346245 
L 353.433906 495.263129 
L 353.35079 495.263129 
L 353.35079 495.346245 
L 353.433906 495.346245 
" clip-path="url(#padb4ed35fa)" style="fill: #ff0000; fill-opacity: 0.7; stroke: #000000; stroke-opacity: 0.7; stroke-width: 0.5"/>
    <path d="M 309.45604 518.670922 
L 309.45604 518.587806 
L 309.372924 518.587806 
L 309.372924 518.670922 
L 309.45604 518.670922 
" clip-path="url(#padb4ed35fa)" style="fill: #ff0000; fill-opacity: 0.7; stroke: #000000; stroke-opacity: 0.7; stroke-width: 0.5"/>
    <path d="M 351.907963 496.210014 
L 351.907963 496.126898 
L 351.824847 496.126898 
L 351.824847 496.210014 
L 351.907963 496.210014 
" clip-path="url(#padb4ed35fa)" style="fill: #ff0000; fill-opacity: 0.7; stroke: #000000; stroke-opacity: 0.7; stroke-width: 0.5"/>
    <path d="M 275.82849 531.354053 
L 275.82849 531.270937 
L 275.745374 531.270937 
L 275.745374 531.354053 
L 275.82849 531.354053 
" clip-path="url(#padb4ed35fa)" style="fill: #ff0000; fill-opacity: 0.7; stroke: #000000; stroke-opacity: 0.7; stroke-width: 0.5"/>
    <path d="M 347.358044 463.455777 
L 347.358044 463.372661 
L 347.274929 463.372661 
L 347.274929 463.455777 
L 347.358044 463.455777 
" clip-path="url(#padb4ed35fa)" style="fill: #ff0000; fill-opacity: 0.7; stroke: #000000; stroke-opacity: 0.7; stroke-width: 0.5"/>
    <path d="M 171.100368 577.376904 
L 171.100368 577.293788 
L 171.017253 577.293788 
L 171.017253 577.376904 
L 171.100368 577.376904 
" clip-path="url(#padb4ed35fa)" style="fill: #ff0000; fill-opacity: 0.7; stroke: #000000; stroke-opacity: 0.7; stroke-width: 0.5"/>
    <path d="M 345.148602 309.535242 
L 345.148602 309.452126 
L 345.065487 309.452126 
L 345.065487 309.535242 
L 345.148602 309.535242 
" clip-path="url(#padb4ed35fa)" style="fill: #ff0000; fill-opacity: 0.7; stroke: #000000; stroke-opacity: 0.7; stroke-width: 0.5"/>
    <path d="M 343.766802 341.733256 
L 343.766802 341.65014 
L 343.683686 341.65014 
L 343.683686 341.733256 
L 343.766802 341.733256 
" clip-path="url(#padb4ed35fa)" style="fill: #ff0000; fill-opacity: 0.7; stroke: #000000; stroke-opacity: 0.7; stroke-width: 0.5"/>
    <path d="M 333.368048 228.708544 
L 333.368048 228.625428 
L 333.284933 228.625428 
L 333.284933 228.708544 
L 333.368048 228.708544 
" clip-path="url(#padb4ed35fa)" style="fill: #ff0000; fill-opacity: 0.7; stroke: #000000; stroke-opacity: 0.7; stroke-width: 0.5"/>
    <path d="M 332.649515 228.759122 
L 332.649515 228.676006 
L 332.566399 228.676006 
L 332.566399 228.759122 
L 332.649515 228.759122 
" clip-path="url(#padb4ed35fa)" style="fill: #ff0000; fill-opacity: 0.7; stroke: #000000; stroke-opacity: 0.7; stroke-width: 0.5"/>
    <path d="M 152.0282 567.083434 
L 152.0282 567.000318 
L 151.945084 567.000318 
L 151.945084 567.083434 
L 152.0282 567.083434 
" clip-path="url(#padb4ed35fa)" style="fill: #ff0000; fill-opacity: 0.7; stroke: #000000; stroke-opacity: 0.7; stroke-width: 0.5"/>
    <path d="M 437.91972 117.584027 
L 437.91972 117.500911 
L 437.836604 117.500911 
L 437.836604 117.584027 
L 437.91972 117.584027 
" clip-path="url(#padb4ed35fa)" style="fill: #ff0000; fill-opacity: 0.7; stroke: #000000; stroke-opacity: 0.7; stroke-width: 0.5"/>
    <path d="M 336.335928 447.265153 
L 336.335928 447.182037 
L 336.252813 447.182037 
L 336.252813 447.265153 
L 336.335928 447.265153 
" clip-path="url(#padb4ed35fa)" style="fill: #ff0000; fill-opacity: 0.7; stroke: #000000; stroke-opacity: 0.7; stroke-width: 0.5"/>
    <path d="M 336.335928 447.265153 
L 336.335928 447.182037 
L 336.252813 447.182037 
L 336.252813 447.265153 
L 336.335928 447.265153 
" clip-path="url(#padb4ed35fa)" style="fill: #ff0000; fill-opacity: 0.7; stroke: #000000; stroke-opacity: 0.7; stroke-width: 0.5"/>
    <path d="M 336.335928 447.265153 
L 336.335928 447.182037 
L 336.252813 447.182037 
L 336.252813 447.265153 
L 336.335928 447.265153 
" clip-path="url(#padb4ed35fa)" style="fill: #ff0000; fill-opacity: 0.7; stroke: #000000; stroke-opacity: 0.7; stroke-width: 0.5"/>
    <path d="M 408.223911 291.724942 
L 408.223911 291.641826 
L 408.140795 291.641826 
L 408.140795 291.724942 
L 408.223911 291.724942 
" clip-path="url(#padb4ed35fa)" style="fill: #ff0000; fill-opacity: 0.7; stroke: #000000; stroke-opacity: 0.7; stroke-width: 0.5"/>
    <path d="M 408.595499 520.244254 
L 408.595499 520.161138 
L 408.512383 520.161138 
L 408.512383 520.244254 
L 408.595499 520.244254 
" clip-path="url(#padb4ed35fa)" style="fill: #ff0000; fill-opacity: 0.7; stroke: #000000; stroke-opacity: 0.7; stroke-width: 0.5"/>
    <path d="M 343.766802 341.733256 
L 343.766802 341.65014 
L 343.683686 341.65014 
L 343.683686 341.733256 
L 343.766802 341.733256 
" clip-path="url(#padb4ed35fa)" style="fill: #ff0000; fill-opacity: 0.7; stroke: #000000; stroke-opacity: 0.7; stroke-width: 0.5"/>
    <path d="M 348.183112 494.519671 
L 348.183112 494.436556 
L 348.099996 494.436556 
L 348.099996 494.519671 
L 348.183112 494.519671 
" clip-path="url(#padb4ed35fa)" style="fill: #ff0000; fill-opacity: 0.7; stroke: #000000; stroke-opacity: 0.7; stroke-width: 0.5"/>
    <path d="M 449.828519 190.702768 
L 449.828519 190.619652 
L 449.745403 190.619652 
L 449.745403 190.702768 
L 449.828519 190.702768 
" clip-path="url(#padb4ed35fa)" style="fill: #ff0000; fill-opacity: 0.7; stroke: #000000; stroke-opacity: 0.7; stroke-width: 0.5"/>
    <path d="M 371.898202 221.685861 
L 371.898202 221.602745 
L 371.815086 221.602745 
L 371.815086 221.685861 
L 371.898202 221.685861 
" clip-path="url(#padb4ed35fa)" style="fill: #ff0000; fill-opacity: 0.7; stroke: #000000; stroke-opacity: 0.7; stroke-width: 0.5"/>
    <path d="M 333.460202 305.100402 
L 333.460202 305.017286 
L 333.377086 305.017286 
L 333.377086 305.100402 
L 333.460202 305.100402 
" clip-path="url(#padb4ed35fa)" style="fill: #ff0000; fill-opacity: 0.7; stroke: #000000; stroke-opacity: 0.7; stroke-width: 0.5"/>
    <path d="M 359.12027 200.54625 
L 359.12027 200.463134 
L 359.037155 200.463134 
L 359.037155 200.54625 
L 359.12027 200.54625 
" clip-path="url(#padb4ed35fa)" style="fill: #ff0000; fill-opacity: 0.7; stroke: #000000; stroke-opacity: 0.7; stroke-width: 0.5"/>
    <path d="M 408.993949 366.103927 
L 408.993949 366.020811 
L 408.910833 366.020811 
L 408.910833 366.103927 
L 408.993949 366.103927 
" clip-path="url(#padb4ed35fa)" style="fill: #ff0000; fill-opacity: 0.7; stroke: #000000; stroke-opacity: 0.7; stroke-width: 0.5"/>
    <path d="M 335.499607 518.082009 
L 335.499607 517.998893 
L 335.416491 517.998893 
L 335.416491 518.082009 
L 335.499607 518.082009 
" clip-path="url(#padb4ed35fa)" style="fill: #ff0000; fill-opacity: 0.7; stroke: #000000; stroke-opacity: 0.7; stroke-width: 0.5"/>
    <path d="M 147.02991 553.404572 
L 147.02991 553.321456 
L 146.946794 553.321456 
L 146.946794 553.404572 
L 147.02991 553.404572 
" clip-path="url(#padb4ed35fa)" style="fill: #ff0000; fill-opacity: 0.7; stroke: #000000; stroke-opacity: 0.7; stroke-width: 0.5"/>
    <path d="M 427.28681 281.935072 
L 427.28681 281.851957 
L 427.203694 281.851957 
L 427.203694 281.935072 
L 427.28681 281.935072 
" clip-path="url(#padb4ed35fa)" style="fill: #ff0000; fill-opacity: 0.7; stroke: #000000; stroke-opacity: 0.7; stroke-width: 0.5"/>
    <path d="M 349.658027 465.423147 
L 349.658027 465.340031 
L 349.574911 465.340031 
L 349.574911 465.423147 
L 349.658027 465.423147 
" clip-path="url(#padb4ed35fa)" style="fill: #ff0000; fill-opacity: 0.7; stroke: #000000; stroke-opacity: 0.7; stroke-width: 0.5"/>
    <path d="M 175.489759 566.500872 
L 175.489759 566.417756 
L 175.406643 566.417756 
L 175.406643 566.500872 
L 175.489759 566.500872 
" clip-path="url(#padb4ed35fa)" style="fill: #ff0000; fill-opacity: 0.7; stroke: #000000; stroke-opacity: 0.7; stroke-width: 0.5"/>
    <path d="M 353.590536 486.284962 
L 353.590536 486.201846 
L 353.50742 486.201846 
L 353.50742 486.284962 
L 353.590536 486.284962 
" clip-path="url(#padb4ed35fa)" style="fill: #ff0000; fill-opacity: 0.7; stroke: #000000; stroke-opacity: 0.7; stroke-width: 0.5"/>
    <path d="M 343.623793 303.687812 
L 343.623793 303.604696 
L 343.540677 303.604696 
L 343.540677 303.687812 
L 343.623793 303.687812 
" clip-path="url(#padb4ed35fa)" style="fill: #ff0000; fill-opacity: 0.7; stroke: #000000; stroke-opacity: 0.7; stroke-width: 0.5"/>
    <path d="M 369.454805 235.747042 
L 369.454805 235.663927 
L 369.371689 235.663927 
L 369.371689 235.747042 
L 369.454805 235.747042 
" clip-path="url(#padb4ed35fa)" style="fill: #ff0000; fill-opacity: 0.7; stroke: #000000; stroke-opacity: 0.7; stroke-width: 0.5"/>
    <path d="M 409.520442 140.13403 
L 409.520442 140.050914 
L 409.437327 140.050914 
L 409.437327 140.13403 
L 409.520442 140.13403 
" clip-path="url(#padb4ed35fa)" style="fill: #ff0000; fill-opacity: 0.7; stroke: #000000; stroke-opacity: 0.7; stroke-width: 0.5"/>
    <path d="M 355.784533 499.91662 
L 355.784533 499.833504 
L 355.701418 499.833504 
L 355.701418 499.91662 
L 355.784533 499.91662 
" clip-path="url(#padb4ed35fa)" style="fill: #ff0000; fill-opacity: 0.7; stroke: #000000; stroke-opacity: 0.7; stroke-width: 0.5"/>
    <path d="M 241.926368 308.717954 
L 241.926368 308.634838 
L 241.843252 308.634838 
L 241.843252 308.717954 
L 241.926368 308.717954 
" clip-path="url(#padb4ed35fa)" style="fill: #ff0000; fill-opacity: 0.7; stroke: #000000; stroke-opacity: 0.7; stroke-width: 0.5"/>
    <path d="M 176.956211 565.930664 
L 176.956211 565.847548 
L 176.873095 565.847548 
L 176.873095 565.930664 
L 176.956211 565.930664 
" clip-path="url(#padb4ed35fa)" style="fill: #ff0000; fill-opacity: 0.7; stroke: #000000; stroke-opacity: 0.7; stroke-width: 0.5"/>
    <path d="M 181.646077 559.554956 
L 181.646077 559.47184 
L 181.562961 559.47184 
L 181.562961 559.554956 
L 181.646077 559.554956 
" clip-path="url(#padb4ed35fa)" style="fill: #ff0000; fill-opacity: 0.7; stroke: #000000; stroke-opacity: 0.7; stroke-width: 0.5"/>
    <path d="M 290.797242 578.616946 
L 290.797242 578.533831 
L 290.714126 578.533831 
L 290.714126 578.616946 
L 290.797242 578.616946 
" clip-path="url(#padb4ed35fa)" style="fill: #ff0000; fill-opacity: 0.7; stroke: #000000; stroke-opacity: 0.7; stroke-width: 0.5"/>
    <path d="M 355.784533 499.91662 
L 355.784533 499.833504 
L 355.701418 499.833504 
L 355.701418 499.91662 
L 355.784533 499.91662 
" clip-path="url(#padb4ed35fa)" style="fill: #ff0000; fill-opacity: 0.7; stroke: #000000; stroke-opacity: 0.7; stroke-width: 0.5"/>
    <path d="M 370.469068 233.449654 
L 370.469068 233.366539 
L 370.385953 233.366539 
L 370.385953 233.449654 
L 370.469068 233.449654 
" clip-path="url(#padb4ed35fa)" style="fill: #ff0000; fill-opacity: 0.7; stroke: #000000; stroke-opacity: 0.7; stroke-width: 0.5"/>
    <path d="M 370.447116 216.8111 
L 370.447116 216.727984 
L 370.364 216.727984 
L 370.364 216.8111 
L 370.447116 216.8111 
" clip-path="url(#padb4ed35fa)" style="fill: #ff0000; fill-opacity: 0.7; stroke: #000000; stroke-opacity: 0.7; stroke-width: 0.5"/>
    <path d="M 330.487798 218.18207 
L 330.487798 218.098954 
L 330.404682 218.098954 
L 330.404682 218.18207 
L 330.487798 218.18207 
" clip-path="url(#padb4ed35fa)" style="fill: #ff0000; fill-opacity: 0.7; stroke: #000000; stroke-opacity: 0.7; stroke-width: 0.5"/>
    <path d="M 429.472562 226.578981 
L 429.472562 226.495865 
L 429.389446 226.495865 
L 429.389446 226.578981 
L 429.472562 226.578981 
" clip-path="url(#padb4ed35fa)" style="fill: #ff0000; fill-opacity: 0.7; stroke: #000000; stroke-opacity: 0.7; stroke-width: 0.5"/>
    <path d="M 355.784533 499.91662 
L 355.784533 499.833504 
L 355.701418 499.833504 
L 355.701418 499.91662 
L 355.784533 499.91662 
" clip-path="url(#padb4ed35fa)" style="fill: #ff0000; fill-opacity: 0.7; stroke: #000000; stroke-opacity: 0.7; stroke-width: 0.5"/>
    <path d="M 345.148694 309.53517 
L 345.148694 309.452054 
L 345.065579 309.452054 
L 345.065579 309.53517 
L 345.148694 309.53517 
" clip-path="url(#padb4ed35fa)" style="fill: #ff0000; fill-opacity: 0.7; stroke: #000000; stroke-opacity: 0.7; stroke-width: 0.5"/>
    <path d="M 440.981332 207.204474 
L 440.981332 207.121358 
L 440.898216 207.121358 
L 440.898216 207.204474 
L 440.981332 207.204474 
" clip-path="url(#padb4ed35fa)" style="fill: #ff0000; fill-opacity: 0.7; stroke: #000000; stroke-opacity: 0.7; stroke-width: 0.5"/>
    <path d="M 345.496793 485.50454 
L 345.496793 485.421424 
L 345.413677 485.421424 
L 345.413677 485.50454 
L 345.496793 485.50454 
" clip-path="url(#padb4ed35fa)" style="fill: #ff0000; fill-opacity: 0.7; stroke: #000000; stroke-opacity: 0.7; stroke-width: 0.5"/>
    <path d="M 409.520442 140.13403 
L 409.520442 140.050914 
L 409.437327 140.050914 
L 409.437327 140.13403 
L 409.520442 140.13403 
" clip-path="url(#padb4ed35fa)" style="fill: #ff0000; fill-opacity: 0.7; stroke: #000000; stroke-opacity: 0.7; stroke-width: 0.5"/>
    <path d="M 344.980085 380.847706 
L 344.980085 380.76459 
L 344.896969 380.76459 
L 344.896969 380.847706 
L 344.980085 380.847706 
" clip-path="url(#padb4ed35fa)" style="fill: #ff0000; fill-opacity: 0.7; stroke: #000000; stroke-opacity: 0.7; stroke-width: 0.5"/>
    <path d="M 349.406906 145.266508 
L 349.406906 145.183392 
L 349.323791 145.183392 
L 349.323791 145.266508 
L 349.406906 145.266508 
" clip-path="url(#padb4ed35fa)" style="fill: #ff0000; fill-opacity: 0.7; stroke: #000000; stroke-opacity: 0.7; stroke-width: 0.5"/>
    <path d="M 344.980085 380.847706 
L 344.980085 380.76459 
L 344.896969 380.76459 
L 344.896969 380.847706 
L 344.980085 380.847706 
" clip-path="url(#padb4ed35fa)" style="fill: #ff0000; fill-opacity: 0.7; stroke: #000000; stroke-opacity: 0.7; stroke-width: 0.5"/>
    <path d="M 342.105918 294.561732 
L 342.105918 294.478616 
L 342.022802 294.478616 
L 342.022802 294.561732 
L 342.105918 294.561732 
" clip-path="url(#padb4ed35fa)" style="fill: #ff0000; fill-opacity: 0.7; stroke: #000000; stroke-opacity: 0.7; stroke-width: 0.5"/>
    <path d="M 359.12027 200.54625 
L 359.12027 200.463134 
L 359.037155 200.463134 
L 359.037155 200.54625 
L 359.12027 200.54625 
" clip-path="url(#padb4ed35fa)" style="fill: #ff0000; fill-opacity: 0.7; stroke: #000000; stroke-opacity: 0.7; stroke-width: 0.5"/>
    <path d="M 458.285472 201.091741 
L 458.285472 201.008625 
L 458.202356 201.008625 
L 458.202356 201.091741 
L 458.285472 201.091741 
" clip-path="url(#padb4ed35fa)" style="fill: #ff0000; fill-opacity: 0.7; stroke: #000000; stroke-opacity: 0.7; stroke-width: 0.5"/>
    <path d="M 308.202645 182.931162 
L 308.202645 182.848046 
L 308.119529 182.848046 
L 308.119529 182.931162 
L 308.202645 182.931162 
" clip-path="url(#padb4ed35fa)" style="fill: #ff0000; fill-opacity: 0.7; stroke: #000000; stroke-opacity: 0.7; stroke-width: 0.5"/>
    <path d="M 149.341331 560.119266 
L 149.341331 560.03615 
L 149.258215 560.03615 
L 149.258215 560.119266 
L 149.341331 560.119266 
" clip-path="url(#padb4ed35fa)" style="fill: #ff0000; fill-opacity: 0.7; stroke: #000000; stroke-opacity: 0.7; stroke-width: 0.5"/>
    <path d="M 342.105918 294.561732 
L 342.105918 294.478616 
L 342.022802 294.478616 
L 342.022802 294.561732 
L 342.105918 294.561732 
" clip-path="url(#padb4ed35fa)" style="fill: #ff0000; fill-opacity: 0.7; stroke: #000000; stroke-opacity: 0.7; stroke-width: 0.5"/>
    <path d="M 341.559293 192.171873 
L 341.559293 192.088758 
L 341.476177 192.088758 
L 341.476177 192.171873 
L 341.559293 192.171873 
" clip-path="url(#padb4ed35fa)" style="fill: #ff0000; fill-opacity: 0.7; stroke: #000000; stroke-opacity: 0.7; stroke-width: 0.5"/>
    <path d="M 396.258868 476.019942 
L 396.258868 475.936826 
L 396.175752 475.936826 
L 396.175752 476.019942 
L 396.258868 476.019942 
" clip-path="url(#padb4ed35fa)" style="fill: #ff0000; fill-opacity: 0.7; stroke: #000000; stroke-opacity: 0.7; stroke-width: 0.5"/>
    <path d="M 359.542519 194.057546 
L 359.542519 193.97443 
L 359.459403 193.97443 
L 359.459403 194.057546 
L 359.542519 194.057546 
" clip-path="url(#padb4ed35fa)" style="fill: #ff0000; fill-opacity: 0.7; stroke: #000000; stroke-opacity: 0.7; stroke-width: 0.5"/>
    <path d="M 359.12027 200.54625 
L 359.12027 200.463134 
L 359.037155 200.463134 
L 359.037155 200.54625 
L 359.12027 200.54625 
" clip-path="url(#padb4ed35fa)" style="fill: #ff0000; fill-opacity: 0.7; stroke: #000000; stroke-opacity: 0.7; stroke-width: 0.5"/>
    <path d="M 344.980085 380.847706 
L 344.980085 380.76459 
L 344.896969 380.76459 
L 344.896969 380.847706 
L 344.980085 380.847706 
" clip-path="url(#padb4ed35fa)" style="fill: #ff0000; fill-opacity: 0.7; stroke: #000000; stroke-opacity: 0.7; stroke-width: 0.5"/>
    <path d="M 365.901316 197.067543 
L 365.901316 196.984427 
L 365.8182 196.984427 
L 365.8182 197.067543 
L 365.901316 197.067543 
" clip-path="url(#padb4ed35fa)" style="fill: #ff0000; fill-opacity: 0.7; stroke: #000000; stroke-opacity: 0.7; stroke-width: 0.5"/>
    <path d="M 453.141628 189.530951 
L 453.141628 189.447836 
L 453.058512 189.447836 
L 453.058512 189.530951 
L 453.141628 189.530951 
" clip-path="url(#padb4ed35fa)" style="fill: #ff0000; fill-opacity: 0.7; stroke: #000000; stroke-opacity: 0.7; stroke-width: 0.5"/>
    <path d="M 276.82896 219.204514 
L 276.82896 219.121398 
L 276.745844 219.121398 
L 276.745844 219.204514 
L 276.82896 219.204514 
" clip-path="url(#padb4ed35fa)" style="fill: #ff0000; fill-opacity: 0.7; stroke: #000000; stroke-opacity: 0.7; stroke-width: 0.5"/>
    <path d="M 348.176395 151.158902 
L 348.176395 151.075786 
L 348.093279 151.075786 
L 348.093279 151.158902 
L 348.176395 151.158902 
" clip-path="url(#padb4ed35fa)" style="fill: #ff0000; fill-opacity: 0.7; stroke: #000000; stroke-opacity: 0.7; stroke-width: 0.5"/>
    <path d="M 153.91184 569.898472 
L 153.91184 569.815356 
L 153.828725 569.815356 
L 153.828725 569.898472 
L 153.91184 569.898472 
" clip-path="url(#padb4ed35fa)" style="fill: #ff0000; fill-opacity: 0.7; stroke: #000000; stroke-opacity: 0.7; stroke-width: 0.5"/>
    <path d="M 409.1287 364.822572 
L 409.1287 364.739456 
L 409.045584 364.739456 
L 409.045584 364.822572 
L 409.1287 364.822572 
" clip-path="url(#padb4ed35fa)" style="fill: #ff0000; fill-opacity: 0.7; stroke: #000000; stroke-opacity: 0.7; stroke-width: 0.5"/>
    <path d="M 424.732114 169.381432 
L 424.732114 169.298316 
L 424.648998 169.298316 
L 424.648998 169.381432 
L 424.732114 169.381432 
" clip-path="url(#padb4ed35fa)" style="fill: #ff0000; fill-opacity: 0.7; stroke: #000000; stroke-opacity: 0.7; stroke-width: 0.5"/>
    <path d="M 394.796144 147.777277 
L 394.796144 147.694161 
L 394.713029 147.694161 
L 394.713029 147.777277 
L 394.796144 147.777277 
" clip-path="url(#padb4ed35fa)" style="fill: #ff0000; fill-opacity: 0.7; stroke: #000000; stroke-opacity: 0.7; stroke-width: 0.5"/>
    <path d="M 222.94145 416.440586 
L 222.94145 416.35747 
L 222.858334 416.35747 
L 222.858334 416.440586 
L 222.94145 416.440586 
" clip-path="url(#padb4ed35fa)" style="fill: #ff0000; fill-opacity: 0.7; stroke: #000000; stroke-opacity: 0.7; stroke-width: 0.5"/>
    <path d="M 152.443596 569.733275 
L 152.443596 569.650159 
L 152.360481 569.650159 
L 152.360481 569.733275 
L 152.443596 569.733275 
" clip-path="url(#padb4ed35fa)" style="fill: #ff0000; fill-opacity: 0.7; stroke: #000000; stroke-opacity: 0.7; stroke-width: 0.5"/>
    <path d="M 419.340325 365.268848 
L 419.340325 365.185732 
L 419.257209 365.185732 
L 419.257209 365.268848 
L 419.340325 365.268848 
" clip-path="url(#padb4ed35fa)" style="fill: #ff0000; fill-opacity: 0.7; stroke: #000000; stroke-opacity: 0.7; stroke-width: 0.5"/>
   </g>
   <g id="matplotlib.axis_1">
    <g id="xtick_1">
     <g id="line2d_1">
      <defs>
       <path id="m9a81cabbb2" d="M 0 0 
L 0 3.5 
" style="stroke: #000000; stroke-width: 0.8"/>
      </defs>
      <g>
       <use xlink:href="#m9a81cabbb2" x="129.955432" y="640.8" style="stroke: #000000; stroke-width: 0.8"/>
      </g>
     </g>
     <g id="text_1">
      <!-- 391000 -->
      <g transform="translate(110.867932 655.398438) scale(0.1 -0.1)">
       <defs>
        <path id="DejaVuSans-33" d="M 2597 2516 
Q 3050 2419 3304 2112 
Q 3559 1806 3559 1356 
Q 3559 666 3084 287 
Q 2609 -91 1734 -91 
Q 1441 -91 1130 -33 
Q 819 25 488 141 
L 488 750 
Q 750 597 1062 519 
Q 1375 441 1716 441 
Q 2309 441 2620 675 
Q 2931 909 2931 1356 
Q 2931 1769 2642 2001 
Q 2353 2234 1838 2234 
L 1294 2234 
L 1294 2753 
L 1863 2753 
Q 2328 2753 2575 2939 
Q 2822 3125 2822 3475 
Q 2822 3834 2567 4026 
Q 2313 4219 1838 4219 
Q 1578 4219 1281 4162 
Q 984 4106 628 3988 
L 628 4550 
Q 988 4650 1302 4700 
Q 1616 4750 1894 4750 
Q 2613 4750 3031 4423 
Q 3450 4097 3450 3541 
Q 3450 3153 3228 2886 
Q 3006 2619 2597 2516 
z
" transform="scale(0.015625)"/>
        <path id="DejaVuSans-39" d="M 703 97 
L 703 672 
Q 941 559 1184 500 
Q 1428 441 1663 441 
Q 2288 441 2617 861 
Q 2947 1281 2994 2138 
Q 2813 1869 2534 1725 
Q 2256 1581 1919 1581 
Q 1219 1581 811 2004 
Q 403 2428 403 3163 
Q 403 3881 828 4315 
Q 1253 4750 1959 4750 
Q 2769 4750 3195 4129 
Q 3622 3509 3622 2328 
Q 3622 1225 3098 567 
Q 2575 -91 1691 -91 
Q 1453 -91 1209 -44 
Q 966 3 703 97 
z
M 1959 2075 
Q 2384 2075 2632 2365 
Q 2881 2656 2881 3163 
Q 2881 3666 2632 3958 
Q 2384 4250 1959 4250 
Q 1534 4250 1286 3958 
Q 1038 3666 1038 3163 
Q 1038 2656 1286 2365 
Q 1534 2075 1959 2075 
z
" transform="scale(0.015625)"/>
        <path id="DejaVuSans-31" d="M 794 531 
L 1825 531 
L 1825 4091 
L 703 3866 
L 703 4441 
L 1819 4666 
L 2450 4666 
L 2450 531 
L 3481 531 
L 3481 0 
L 794 0 
L 794 531 
z
" transform="scale(0.015625)"/>
        <path id="DejaVuSans-30" d="M 2034 4250 
Q 1547 4250 1301 3770 
Q 1056 3291 1056 2328 
Q 1056 1369 1301 889 
Q 1547 409 2034 409 
Q 2525 409 2770 889 
Q 3016 1369 3016 2328 
Q 3016 3291 2770 3770 
Q 2525 4250 2034 4250 
z
M 2034 4750 
Q 2819 4750 3233 4129 
Q 3647 3509 3647 2328 
Q 3647 1150 3233 529 
Q 2819 -91 2034 -91 
Q 1250 -91 836 529 
Q 422 1150 422 2328 
Q 422 3509 836 4129 
Q 1250 4750 2034 4750 
z
" transform="scale(0.015625)"/>
       </defs>
       <use xlink:href="#DejaVuSans-33"/>
       <use xlink:href="#DejaVuSans-39" x="63.623047"/>
       <use xlink:href="#DejaVuSans-31" x="127.246094"/>
       <use xlink:href="#DejaVuSans-30" x="190.869141"/>
       <use xlink:href="#DejaVuSans-30" x="254.492188"/>
       <use xlink:href="#DejaVuSans-30" x="318.115234"/>
      </g>
     </g>
    </g>
    <g id="xtick_2">
     <g id="line2d_2">
      <g>
       <use xlink:href="#m9a81cabbb2" x="213.071274" y="640.8" style="stroke: #000000; stroke-width: 0.8"/>
      </g>
     </g>
     <g id="text_2">
      <!-- 392000 -->
      <g transform="translate(193.983774 655.398438) scale(0.1 -0.1)">
       <defs>
        <path id="DejaVuSans-32" d="M 1228 531 
L 3431 531 
L 3431 0 
L 469 0 
L 469 531 
Q 828 903 1448 1529 
Q 2069 2156 2228 2338 
Q 2531 2678 2651 2914 
Q 2772 3150 2772 3378 
Q 2772 3750 2511 3984 
Q 2250 4219 1831 4219 
Q 1534 4219 1204 4116 
Q 875 4013 500 3803 
L 500 4441 
Q 881 4594 1212 4672 
Q 1544 4750 1819 4750 
Q 2544 4750 2975 4387 
Q 3406 4025 3406 3419 
Q 3406 3131 3298 2873 
Q 3191 2616 2906 2266 
Q 2828 2175 2409 1742 
Q 1991 1309 1228 531 
z
" transform="scale(0.015625)"/>
       </defs>
       <use xlink:href="#DejaVuSans-33"/>
       <use xlink:href="#DejaVuSans-39" x="63.623047"/>
       <use xlink:href="#DejaVuSans-32" x="127.246094"/>
       <use xlink:href="#DejaVuSans-30" x="190.869141"/>
       <use xlink:href="#DejaVuSans-30" x="254.492188"/>
       <use xlink:href="#DejaVuSans-30" x="318.115234"/>
      </g>
     </g>
    </g>
    <g id="xtick_3">
     <g id="line2d_3">
      <g>
       <use xlink:href="#m9a81cabbb2" x="296.187115" y="640.8" style="stroke: #000000; stroke-width: 0.8"/>
      </g>
     </g>
     <g id="text_3">
      <!-- 393000 -->
      <g transform="translate(277.099615 655.398438) scale(0.1 -0.1)">
       <use xlink:href="#DejaVuSans-33"/>
       <use xlink:href="#DejaVuSans-39" x="63.623047"/>
       <use xlink:href="#DejaVuSans-33" x="127.246094"/>
       <use xlink:href="#DejaVuSans-30" x="190.869141"/>
       <use xlink:href="#DejaVuSans-30" x="254.492188"/>
       <use xlink:href="#DejaVuSans-30" x="318.115234"/>
      </g>
     </g>
    </g>
    <g id="xtick_4">
     <g id="line2d_4">
      <g>
       <use xlink:href="#m9a81cabbb2" x="379.302956" y="640.8" style="stroke: #000000; stroke-width: 0.8"/>
      </g>
     </g>
     <g id="text_4">
      <!-- 394000 -->
      <g transform="translate(360.215456 655.398438) scale(0.1 -0.1)">
       <defs>
        <path id="DejaVuSans-34" d="M 2419 4116 
L 825 1625 
L 2419 1625 
L 2419 4116 
z
M 2253 4666 
L 3047 4666 
L 3047 1625 
L 3713 1625 
L 3713 1100 
L 3047 1100 
L 3047 0 
L 2419 0 
L 2419 1100 
L 313 1100 
L 313 1709 
L 2253 4666 
z
" transform="scale(0.015625)"/>
       </defs>
       <use xlink:href="#DejaVuSans-33"/>
       <use xlink:href="#DejaVuSans-39" x="63.623047"/>
       <use xlink:href="#DejaVuSans-34" x="127.246094"/>
       <use xlink:href="#DejaVuSans-30" x="190.869141"/>
       <use xlink:href="#DejaVuSans-30" x="254.492188"/>
       <use xlink:href="#DejaVuSans-30" x="318.115234"/>
      </g>
     </g>
    </g>
    <g id="xtick_5">
     <g id="line2d_5">
      <g>
       <use xlink:href="#m9a81cabbb2" x="462.418798" y="640.8" style="stroke: #000000; stroke-width: 0.8"/>
      </g>
     </g>
     <g id="text_5">
      <!-- 395000 -->
      <g transform="translate(443.331298 655.398438) scale(0.1 -0.1)">
       <defs>
        <path id="DejaVuSans-35" d="M 691 4666 
L 3169 4666 
L 3169 4134 
L 1269 4134 
L 1269 2991 
Q 1406 3038 1543 3061 
Q 1681 3084 1819 3084 
Q 2600 3084 3056 2656 
Q 3513 2228 3513 1497 
Q 3513 744 3044 326 
Q 2575 -91 1722 -91 
Q 1428 -91 1123 -41 
Q 819 9 494 109 
L 494 744 
Q 775 591 1075 516 
Q 1375 441 1709 441 
Q 2250 441 2565 725 
Q 2881 1009 2881 1497 
Q 2881 1984 2565 2268 
Q 2250 2553 1709 2553 
Q 1456 2553 1204 2497 
Q 953 2441 691 2322 
L 691 4666 
z
" transform="scale(0.015625)"/>
       </defs>
       <use xlink:href="#DejaVuSans-33"/>
       <use xlink:href="#DejaVuSans-39" x="63.623047"/>
       <use xlink:href="#DejaVuSans-35" x="127.246094"/>
       <use xlink:href="#DejaVuSans-30" x="190.869141"/>
       <use xlink:href="#DejaVuSans-30" x="254.492188"/>
       <use xlink:href="#DejaVuSans-30" x="318.115234"/>
      </g>
     </g>
    </g>
    <g id="xtick_6">
     <g id="line2d_6">
      <g>
       <use xlink:href="#m9a81cabbb2" x="545.534639" y="640.8" style="stroke: #000000; stroke-width: 0.8"/>
      </g>
     </g>
     <g id="text_6">
      <!-- 396000 -->
      <g transform="translate(526.447139 655.398438) scale(0.1 -0.1)">
       <defs>
        <path id="DejaVuSans-36" d="M 2113 2584 
Q 1688 2584 1439 2293 
Q 1191 2003 1191 1497 
Q 1191 994 1439 701 
Q 1688 409 2113 409 
Q 2538 409 2786 701 
Q 3034 994 3034 1497 
Q 3034 2003 2786 2293 
Q 2538 2584 2113 2584 
z
M 3366 4563 
L 3366 3988 
Q 3128 4100 2886 4159 
Q 2644 4219 2406 4219 
Q 1781 4219 1451 3797 
Q 1122 3375 1075 2522 
Q 1259 2794 1537 2939 
Q 1816 3084 2150 3084 
Q 2853 3084 3261 2657 
Q 3669 2231 3669 1497 
Q 3669 778 3244 343 
Q 2819 -91 2113 -91 
Q 1303 -91 875 529 
Q 447 1150 447 2328 
Q 447 3434 972 4092 
Q 1497 4750 2381 4750 
Q 2619 4750 2861 4703 
Q 3103 4656 3366 4563 
z
" transform="scale(0.015625)"/>
       </defs>
       <use xlink:href="#DejaVuSans-33"/>
       <use xlink:href="#DejaVuSans-39" x="63.623047"/>
       <use xlink:href="#DejaVuSans-36" x="127.246094"/>
       <use xlink:href="#DejaVuSans-30" x="190.869141"/>
       <use xlink:href="#DejaVuSans-30" x="254.492188"/>
       <use xlink:href="#DejaVuSans-30" x="318.115234"/>
      </g>
     </g>
    </g>
   </g>
   <g id="matplotlib.axis_2">
    <g id="ytick_1">
     <g id="line2d_7">
      <defs>
       <path id="m64485277cc" d="M 0 0 
L -3.5 0 
" style="stroke: #000000; stroke-width: 0.8"/>
      </defs>
      <g>
       <use xlink:href="#m64485277cc" x="120.184924" y="602.017053" style="stroke: #000000; stroke-width: 0.8"/>
      </g>
     </g>
     <g id="text_7">
      <!-- 5.808 -->
      <g transform="translate(84.556799 605.816272) scale(0.1 -0.1)">
       <defs>
        <path id="DejaVuSans-2e" d="M 684 794 
L 1344 794 
L 1344 0 
L 684 0 
L 684 794 
z
" transform="scale(0.015625)"/>
        <path id="DejaVuSans-38" d="M 2034 2216 
Q 1584 2216 1326 1975 
Q 1069 1734 1069 1313 
Q 1069 891 1326 650 
Q 1584 409 2034 409 
Q 2484 409 2743 651 
Q 3003 894 3003 1313 
Q 3003 1734 2745 1975 
Q 2488 2216 2034 2216 
z
M 1403 2484 
Q 997 2584 770 2862 
Q 544 3141 544 3541 
Q 544 4100 942 4425 
Q 1341 4750 2034 4750 
Q 2731 4750 3128 4425 
Q 3525 4100 3525 3541 
Q 3525 3141 3298 2862 
Q 3072 2584 2669 2484 
Q 3125 2378 3379 2068 
Q 3634 1759 3634 1313 
Q 3634 634 3220 271 
Q 2806 -91 2034 -91 
Q 1263 -91 848 271 
Q 434 634 434 1313 
Q 434 1759 690 2068 
Q 947 2378 1403 2484 
z
M 1172 3481 
Q 1172 3119 1398 2916 
Q 1625 2713 2034 2713 
Q 2441 2713 2670 2916 
Q 2900 3119 2900 3481 
Q 2900 3844 2670 4047 
Q 2441 4250 2034 4250 
Q 1625 4250 1398 4047 
Q 1172 3844 1172 3481 
z
" transform="scale(0.015625)"/>
       </defs>
       <use xlink:href="#DejaVuSans-35"/>
       <use xlink:href="#DejaVuSans-2e" x="63.623047"/>
       <use xlink:href="#DejaVuSans-38" x="95.410156"/>
       <use xlink:href="#DejaVuSans-30" x="159.033203"/>
       <use xlink:href="#DejaVuSans-38" x="222.65625"/>
      </g>
     </g>
    </g>
    <g id="ytick_2">
     <g id="line2d_8">
      <g>
       <use xlink:href="#m64485277cc" x="120.184924" y="518.901212" style="stroke: #000000; stroke-width: 0.8"/>
      </g>
     </g>
     <g id="text_8">
      <!-- 5.809 -->
      <g transform="translate(84.556799 522.700431) scale(0.1 -0.1)">
       <use xlink:href="#DejaVuSans-35"/>
       <use xlink:href="#DejaVuSans-2e" x="63.623047"/>
       <use xlink:href="#DejaVuSans-38" x="95.410156"/>
       <use xlink:href="#DejaVuSans-30" x="159.033203"/>
       <use xlink:href="#DejaVuSans-39" x="222.65625"/>
      </g>
     </g>
    </g>
    <g id="ytick_3">
     <g id="line2d_9">
      <g>
       <use xlink:href="#m64485277cc" x="120.184924" y="435.785371" style="stroke: #000000; stroke-width: 0.8"/>
      </g>
     </g>
     <g id="text_9">
      <!-- 5.810 -->
      <g transform="translate(84.556799 439.584589) scale(0.1 -0.1)">
       <use xlink:href="#DejaVuSans-35"/>
       <use xlink:href="#DejaVuSans-2e" x="63.623047"/>
       <use xlink:href="#DejaVuSans-38" x="95.410156"/>
       <use xlink:href="#DejaVuSans-31" x="159.033203"/>
       <use xlink:href="#DejaVuSans-30" x="222.65625"/>
      </g>
     </g>
    </g>
    <g id="ytick_4">
     <g id="line2d_10">
      <g>
       <use xlink:href="#m64485277cc" x="120.184924" y="352.669529" style="stroke: #000000; stroke-width: 0.8"/>
      </g>
     </g>
     <g id="text_10">
      <!-- 5.811 -->
      <g transform="translate(84.556799 356.468748) scale(0.1 -0.1)">
       <use xlink:href="#DejaVuSans-35"/>
       <use xlink:href="#DejaVuSans-2e" x="63.623047"/>
       <use xlink:href="#DejaVuSans-38" x="95.410156"/>
       <use xlink:href="#DejaVuSans-31" x="159.033203"/>
       <use xlink:href="#DejaVuSans-31" x="222.65625"/>
      </g>
     </g>
    </g>
    <g id="ytick_5">
     <g id="line2d_11">
      <g>
       <use xlink:href="#m64485277cc" x="120.184924" y="269.553688" style="stroke: #000000; stroke-width: 0.8"/>
      </g>
     </g>
     <g id="text_11">
      <!-- 5.812 -->
      <g transform="translate(84.556799 273.352906) scale(0.1 -0.1)">
       <use xlink:href="#DejaVuSans-35"/>
       <use xlink:href="#DejaVuSans-2e" x="63.623047"/>
       <use xlink:href="#DejaVuSans-38" x="95.410156"/>
       <use xlink:href="#DejaVuSans-31" x="159.033203"/>
       <use xlink:href="#DejaVuSans-32" x="222.65625"/>
      </g>
     </g>
    </g>
    <g id="ytick_6">
     <g id="line2d_12">
      <g>
       <use xlink:href="#m64485277cc" x="120.184924" y="186.437846" style="stroke: #000000; stroke-width: 0.8"/>
      </g>
     </g>
     <g id="text_12">
      <!-- 5.813 -->
      <g transform="translate(84.556799 190.237065) scale(0.1 -0.1)">
       <use xlink:href="#DejaVuSans-35"/>
       <use xlink:href="#DejaVuSans-2e" x="63.623047"/>
       <use xlink:href="#DejaVuSans-38" x="95.410156"/>
       <use xlink:href="#DejaVuSans-31" x="159.033203"/>
       <use xlink:href="#DejaVuSans-33" x="222.65625"/>
      </g>
     </g>
    </g>
    <g id="ytick_7">
     <g id="line2d_13">
      <g>
       <use xlink:href="#m64485277cc" x="120.184924" y="103.322005" style="stroke: #000000; stroke-width: 0.8"/>
      </g>
     </g>
     <g id="text_13">
      <!-- 5.814 -->
      <g transform="translate(84.556799 107.121224) scale(0.1 -0.1)">
       <use xlink:href="#DejaVuSans-35"/>
       <use xlink:href="#DejaVuSans-2e" x="63.623047"/>
       <use xlink:href="#DejaVuSans-38" x="95.410156"/>
       <use xlink:href="#DejaVuSans-31" x="159.033203"/>
       <use xlink:href="#DejaVuSans-34" x="222.65625"/>
      </g>
     </g>
    </g>
    <g id="text_14">
     <!-- 1e6 -->
     <g transform="translate(120.184924 83.4) scale(0.1 -0.1)">
      <defs>
       <path id="DejaVuSans-65" d="M 3597 1894 
L 3597 1613 
L 953 1613 
Q 991 1019 1311 708 
Q 1631 397 2203 397 
Q 2534 397 2845 478 
Q 3156 559 3463 722 
L 3463 178 
Q 3153 47 2828 -22 
Q 2503 -91 2169 -91 
Q 1331 -91 842 396 
Q 353 884 353 1716 
Q 353 2575 817 3079 
Q 1281 3584 2069 3584 
Q 2775 3584 3186 3129 
Q 3597 2675 3597 1894 
z
M 3022 2063 
Q 3016 2534 2758 2815 
Q 2500 3097 2075 3097 
Q 1594 3097 1305 2825 
Q 1016 2553 972 2059 
L 3022 2063 
z
" transform="scale(0.015625)"/>
      </defs>
      <use xlink:href="#DejaVuSans-31"/>
      <use xlink:href="#DejaVuSans-65" x="63.623047"/>
      <use xlink:href="#DejaVuSans-36" x="125.146484"/>
     </g>
    </g>
   </g>
   <g id="patch_3">
    <path d="M 120.184924 640.8 
L 120.184924 86.4 
" style="fill: none; stroke: #000000; stroke-width: 0.8; stroke-linejoin: miter; stroke-linecap: square"/>
   </g>
   <g id="patch_4">
    <path d="M 617.815076 640.8 
L 617.815076 86.4 
" style="fill: none; stroke: #000000; stroke-width: 0.8; stroke-linejoin: miter; stroke-linecap: square"/>
   </g>
   <g id="patch_5">
    <path d="M 120.184924 640.8 
L 617.815076 640.8 
" style="fill: none; stroke: #000000; stroke-width: 0.8; stroke-linejoin: miter; stroke-linecap: square"/>
   </g>
   <g id="patch_6">
    <path d="M 120.184924 86.4 
L 617.815076 86.4 
" style="fill: none; stroke: #000000; stroke-width: 0.8; stroke-linejoin: miter; stroke-linecap: square"/>
   </g>
   <g id="text_15">
    <!-- Britz_Buckow -->
    <g transform="translate(301.93735 371.316066) scale(0.12 -0.12)">
     <defs>
      <path id="DejaVuSans-42" d="M 1259 2228 
L 1259 519 
L 2272 519 
Q 2781 519 3026 730 
Q 3272 941 3272 1375 
Q 3272 1813 3026 2020 
Q 2781 2228 2272 2228 
L 1259 2228 
z
M 1259 4147 
L 1259 2741 
L 2194 2741 
Q 2656 2741 2882 2914 
Q 3109 3088 3109 3444 
Q 3109 3797 2882 3972 
Q 2656 4147 2194 4147 
L 1259 4147 
z
M 628 4666 
L 2241 4666 
Q 2963 4666 3353 4366 
Q 3744 4066 3744 3513 
Q 3744 3084 3544 2831 
Q 3344 2578 2956 2516 
Q 3422 2416 3680 2098 
Q 3938 1781 3938 1306 
Q 3938 681 3513 340 
Q 3088 0 2303 0 
L 628 0 
L 628 4666 
z
" transform="scale(0.015625)"/>
      <path id="DejaVuSans-72" d="M 2631 2963 
Q 2534 3019 2420 3045 
Q 2306 3072 2169 3072 
Q 1681 3072 1420 2755 
Q 1159 2438 1159 1844 
L 1159 0 
L 581 0 
L 581 3500 
L 1159 3500 
L 1159 2956 
Q 1341 3275 1631 3429 
Q 1922 3584 2338 3584 
Q 2397 3584 2469 3576 
Q 2541 3569 2628 3553 
L 2631 2963 
z
" transform="scale(0.015625)"/>
      <path id="DejaVuSans-69" d="M 603 3500 
L 1178 3500 
L 1178 0 
L 603 0 
L 603 3500 
z
M 603 4863 
L 1178 4863 
L 1178 4134 
L 603 4134 
L 603 4863 
z
" transform="scale(0.015625)"/>
      <path id="DejaVuSans-74" d="M 1172 4494 
L 1172 3500 
L 2356 3500 
L 2356 3053 
L 1172 3053 
L 1172 1153 
Q 1172 725 1289 603 
Q 1406 481 1766 481 
L 2356 481 
L 2356 0 
L 1766 0 
Q 1100 0 847 248 
Q 594 497 594 1153 
L 594 3053 
L 172 3053 
L 172 3500 
L 594 3500 
L 594 4494 
L 1172 4494 
z
" transform="scale(0.015625)"/>
      <path id="DejaVuSans-7a" d="M 353 3500 
L 3084 3500 
L 3084 2975 
L 922 459 
L 3084 459 
L 3084 0 
L 275 0 
L 275 525 
L 2438 3041 
L 353 3041 
L 353 3500 
z
" transform="scale(0.015625)"/>
      <path id="DejaVuSans-5f" d="M 3263 -1063 
L 3263 -1509 
L -63 -1509 
L -63 -1063 
L 3263 -1063 
z
" transform="scale(0.015625)"/>
      <path id="DejaVuSans-75" d="M 544 1381 
L 544 3500 
L 1119 3500 
L 1119 1403 
Q 1119 906 1312 657 
Q 1506 409 1894 409 
Q 2359 409 2629 706 
Q 2900 1003 2900 1516 
L 2900 3500 
L 3475 3500 
L 3475 0 
L 2900 0 
L 2900 538 
Q 2691 219 2414 64 
Q 2138 -91 1772 -91 
Q 1169 -91 856 284 
Q 544 659 544 1381 
z
M 1991 3584 
L 1991 3584 
z
" transform="scale(0.015625)"/>
      <path id="DejaVuSans-63" d="M 3122 3366 
L 3122 2828 
Q 2878 2963 2633 3030 
Q 2388 3097 2138 3097 
Q 1578 3097 1268 2742 
Q 959 2388 959 1747 
Q 959 1106 1268 751 
Q 1578 397 2138 397 
Q 2388 397 2633 464 
Q 2878 531 3122 666 
L 3122 134 
Q 2881 22 2623 -34 
Q 2366 -91 2075 -91 
Q 1284 -91 818 406 
Q 353 903 353 1747 
Q 353 2603 823 3093 
Q 1294 3584 2113 3584 
Q 2378 3584 2631 3529 
Q 2884 3475 3122 3366 
z
" transform="scale(0.015625)"/>
      <path id="DejaVuSans-6b" d="M 581 4863 
L 1159 4863 
L 1159 1991 
L 2875 3500 
L 3609 3500 
L 1753 1863 
L 3688 0 
L 2938 0 
L 1159 1709 
L 1159 0 
L 581 0 
L 581 4863 
z
" transform="scale(0.015625)"/>
      <path id="DejaVuSans-6f" d="M 1959 3097 
Q 1497 3097 1228 2736 
Q 959 2375 959 1747 
Q 959 1119 1226 758 
Q 1494 397 1959 397 
Q 2419 397 2687 759 
Q 2956 1122 2956 1747 
Q 2956 2369 2687 2733 
Q 2419 3097 1959 3097 
z
M 1959 3584 
Q 2709 3584 3137 3096 
Q 3566 2609 3566 1747 
Q 3566 888 3137 398 
Q 2709 -91 1959 -91 
Q 1206 -91 779 398 
Q 353 888 353 1747 
Q 353 2609 779 3096 
Q 1206 3584 1959 3584 
z
" transform="scale(0.015625)"/>
      <path id="DejaVuSans-77" d="M 269 3500 
L 844 3500 
L 1563 769 
L 2278 3500 
L 2956 3500 
L 3675 769 
L 4391 3500 
L 4966 3500 
L 4050 0 
L 3372 0 
L 2619 2869 
L 1863 0 
L 1184 0 
L 269 3500 
z
" transform="scale(0.015625)"/>
     </defs>
     <use xlink:href="#DejaVuSans-42"/>
     <use xlink:href="#DejaVuSans-72" x="68.603516"/>
     <use xlink:href="#DejaVuSans-69" x="109.716797"/>
     <use xlink:href="#DejaVuSans-74" x="137.5"/>
     <use xlink:href="#DejaVuSans-7a" x="176.708984"/>
     <use xlink:href="#DejaVuSans-5f" x="229.199219"/>
     <use xlink:href="#DejaVuSans-42" x="279.199219"/>
     <use xlink:href="#DejaVuSans-75" x="347.802734"/>
     <use xlink:href="#DejaVuSans-63" x="411.181641"/>
     <use xlink:href="#DejaVuSans-6b" x="466.162109"/>
     <use xlink:href="#DejaVuSans-6f" x="520.447266"/>
     <use xlink:href="#DejaVuSans-77" x="581.628906"/>
    </g>
   </g>
  </g>
 </g>
 <defs>
  <clipPath id="padb4ed35fa">
   <rect x="120.184924" y="86.4" width="497.630152" height="554.4"/>
  </clipPath>
 </defs>
</svg>
