<?xml version="1.0" encoding="utf-8" standalone="no"?>
<!DOCTYPE svg PUBLIC "-//W3C//DTD SVG 1.1//EN"
  "http://www.w3.org/Graphics/SVG/1.1/DTD/svg11.dtd">
<svg xmlns:xlink="http://www.w3.org/1999/xlink" width="720pt" height="720pt" viewBox="0 0 720 720" xmlns="http://www.w3.org/2000/svg" version="1.1">
 <metadata>
  <rdf:RDF xmlns:dc="http://purl.org/dc/elements/1.1/" xmlns:cc="http://creativecommons.org/ns#" xmlns:rdf="http://www.w3.org/1999/02/22-rdf-syntax-ns#">
   <cc:Work>
    <dc:type rdf:resource="http://purl.org/dc/dcmitype/StillImage"/>
    <dc:date>2024-10-17T11:38:41.204816</dc:date>
    <dc:format>image/svg+xml</dc:format>
    <dc:creator>
     <cc:Agent>
      <dc:title>Matplotlib v3.9.2, https://matplotlib.org/</dc:title>
     </cc:Agent>
    </dc:creator>
   </cc:Work>
  </rdf:RDF>
 </metadata>
 <defs>
  <style type="text/css">*{stroke-linejoin: round; stroke-linecap: butt}</style>
 </defs>
 <g id="figure_1">
  <g id="patch_1">
   <path d="M 0 720 
L 720 720 
L 720 0 
L 0 0 
z
" style="fill: #ffffff"/>
  </g>
  <g id="axes_1">
   <g id="patch_2">
    <path d="M 125.572379 640.8 
L 612.427621 640.8 
L 612.427621 86.4 
L 125.572379 86.4 
z
" style="fill: #ffffff"/>
   </g>
   <g id="PatchCollection_1">
    <path d="M 468.985356 166.946821 
L 468.141035 164.888511 
L 466.968344 162.025907 
L 466.421008 161.805442 
L 465.780997 161.343813 
L 465.157057 160.709928 
L 464.409072 159.209305 
L 463.816276 158.020035 
L 463.776099 158.035826 
L 463.371363 157.269214 
L 463.072808 156.703724 
L 462.830521 156.244811 
L 462.629012 155.863138 
L 462.441437 155.947877 
L 462.214914 155.467255 
L 462.004889 155.021636 
L 461.777421 154.53901 
L 461.553346 154.063587 
L 460.697172 152.247034 
L 460.476406 151.778634 
L 460.337881 151.484727 
L 459.919229 150.975609 
L 459.677142 150.681211 
L 459.281524 150.147771 
L 458.919872 149.711647 
L 456.727751 150.517043 
L 456.5412 150.585584 
L 456.20341 149.996286 
L 456.158291 149.919174 
L 456.007965 149.662258 
L 452.167671 143.096679 
L 446.1871 132.862446 
L 443.972257 127.267973 
L 443.231218 121.418587 
L 443.430568 119.147706 
L 443.758724 115.404685 
L 445.043831 111.876027 
L 445.098372 111.864055 
L 445.150615 111.844629 
L 445.199658 111.817934 
L 445.244528 111.78465 
L 445.284251 111.745375 
L 445.318023 111.70095 
L 445.345283 111.652131 
L 445.365479 111.6 
L 443.830943 111.928366 
L 443.781836 111.701853 
L 443.460862 111.713032 
L 443.140106 111.730472 
L 442.819811 111.754169 
L 442.49998 111.784123 
L 442.1381 111.825369 
L 441.777213 111.874592 
L 441.417484 111.931788 
L 441.059077 111.996953 
L 440.70224 112.070083 
L 440.347135 112.151092 
L 437.796731 112.760529 
L 437.574538 112.816175 
L 437.353331 112.875594 
L 437.133192 112.938782 
L 436.914123 113.005822 
L 436.830116 113.032692 
L 436.746367 113.060052 
L 436.662713 113.087986 
L 436.489311 113.143657 
L 429.892781 115.35598 
L 428.647083 115.785134 
L 428.452374 115.852315 
L 427.08598 116.323811 
L 423.622608 117.51736 
L 422.094264 118.044468 
L 421.93688 118.098728 
L 419.923733 118.793102 
L 418.847206 119.164226 
L 418.069021 119.428255 
L 417.21369 119.708871 
L 416.812669 119.835166 
L 416.35992 119.974036 
L 416.072279 120.062106 
L 415.573537 120.212439 
L 415.40723 120.262851 
L 414.134671 120.648601 
L 399.350041 125.060944 
L 397.432485 123.473572 
L 396.50268 123.762438 
L 395.656747 124.025249 
L 394.830039 124.262255 
L 394.578281 124.323675 
L 393.316225 124.631923 
L 393.084439 124.688543 
L 392.98377 124.713144 
L 392.848642 124.746074 
L 392.748392 124.771078 
L 392.470607 124.842627 
L 392.226774 124.905279 
L 391.948739 124.976668 
L 391.364422 125.118244 
L 389.799671 125.517801 
L 388.96964 125.730072 
L 386.853553 126.270343 
L 385.17623 126.699147 
L 383.758466 127.01615 
L 383.27529 127.124219 
L 381.914182 127.389954 
L 380.551469 127.642207 
L 379.182062 127.870039 
L 379.039876 127.892243 
L 378.795354 127.930348 
L 377.808333 128.084364 
L 377.565967 128.11558 
L 377.103399 128.175718 
L 376.434735 128.26266 
L 376.113172 128.295425 
L 375.466597 128.361278 
L 375.153819 128.393194 
L 373.585121 128.531939 
L 370.999793 128.817284 
L 369.445868 128.97708 
L 368.059949 129.152208 
L 366.666469 129.312416 
L 365.2747 129.471767 
L 363.900324 129.651689 
L 363.595181 129.690375 
L 363.023857 129.766078 
L 362.857804 129.787898 
L 362.82408 129.792092 
L 362.589842 129.822398 
L 362.519206 129.831762 
L 361.323927 129.988106 
L 359.932557 130.173357 
L 356.985938 130.567132 
L 356.659846 130.610977 
L 355.596801 130.752762 
L 354.217401 130.935877 
L 352.844863 131.177553 
L 352.391154 131.247587 
L 351.473733 131.389191 
L 350.927101 131.465118 
L 350.101513 131.576947 
L 348.725463 131.770149 
L 347.873181 131.899217 
L 347.886439 131.987318 
L 347.519104 132.041383 
L 346.98053 132.12085 
L 346.968099 132.036771 
L 346.774897 132.066114 
L 346.324528 132.134515 
L 346.122961 132.165111 
L 345.958707 132.190115 
L 345.573863 132.248684 
L 344.735534 132.376136 
L 344.626307 132.392855 
L 344.59416 132.397675 
L 343.57067 132.553392 
L 341.556982 133.502454 
L 341.373729 133.558132 
L 340.325339 133.87856 
L 340.21116 133.913527 
L 339.764818 134.050036 
L 339.736456 134.05865 
L 338.748565 134.361277 
L 337.364055 134.790185 
L 337.136436 134.860022 
L 335.063491 135.495273 
L 334.615614 135.6291 
L 333.096232 136.022203 
L 331.743615 136.369469 
L 327.921688 137.359659 
L 324.300668 138.083151 
L 322.928853 138.356328 
L 314.582126 140.024069 
L 313.527523 140.234629 
L 312.477286 140.449219 
L 308.891438 141.183544 
L 305.633731 141.850965 
L 304.179045 142.148441 
L 304.174865 142.149313 
L 302.124401 142.576838 
L 301.358576 142.726463 
L 299.987613 143.007121 
L 298.612638 143.288613 
L 297.823674 143.459857 
L 292.120422 144.438284 
L 286.425407 145.415953 
L 280.003944 146.520986 
L 279.114617 146.676818 
L 279.17917 147.106054 
L 279.666923 150.387039 
L 279.987108 152.532119 
L 280.363402 155.062756 
L 277.979736 154.518942 
L 270.260918 152.757543 
L 269.749925 154.084919 
L 268.689506 156.821565 
L 266.716593 161.916056 
L 266.535359 162.383821 
L 265.692999 164.562691 
L 266.594894 165.098246 
L 270.83013 167.635948 
L 273.867101 169.452414 
L 277.058582 171.361412 
L 277.658951 171.719886 
L 278.368105 172.143922 
L 283.996779 175.498636 
L 285.457051 176.371126 
L 286.728698 177.130909 
L 287.418926 177.57071 
L 288.092859 178.044344 
L 288.590552 178.441027 
L 288.826251 178.627747 
L 288.924292 178.705414 
L 289.540901 179.251706 
L 290.13202 179.832692 
L 299.014555 189.0314 
L 293.921165 189.718054 
L 292.246621 189.823234 
L 289.943227 189.968135 
L 286.116424 189.901385 
L 282.02244 189.81982 
L 278.093907 189.512797 
L 274.11643 189.360904 
L 270.078918 188.923184 
L 268.983549 188.551323 
L 268.560506 189.288478 
L 267.221896 191.616244 
L 267.04528 191.923372 
L 266.619043 192.66464 
L 266.565126 192.795024 
L 266.383563 193.228248 
L 266.287466 193.457592 
L 265.131919 196.213403 
L 264.702349 197.238959 
L 264.178033 198.491522 
L 263.434896 200.263796 
L 261.590957 204.663222 
L 260.939304 206.220192 
L 260.671486 206.857978 
L 260.384003 207.544513 
L 259.914924 208.53392 
L 258.491318 211.554282 
L 256.522267 215.278307 
L 255.884532 216.517951 
L 255.849334 216.555991 
L 255.691582 216.884479 
L 255.492962 217.307777 
L 255.357332 217.590843 
L 253.141107 222.269087 
L 252.682646 223.234688 
L 249.343719 230.281385 
L 244.616334 229.935009 
L 242.985569 234.893487 
L 242.367875 236.771802 
L 242.112854 237.55625 
L 240.376461 242.902362 
L 239.636869 248.923789 
L 238.439311 257.196425 
L 234.935482 264.456387 
L 234.340474 268.168288 
L 233.0503 277.880128 
L 231.996426 280.401702 
L 231.240874 282.052119 
L 229.704489 285.410819 
L 228.948187 287.063731 
L 228.677863 287.653773 
L 228.635555 287.821176 
L 228.490994 288.396824 
L 228.346351 288.972475 
L 228.128602 289.837659 
L 227.891286 290.781933 
L 227.519919 292.240858 
L 227.21524 293.440075 
L 226.905553 294.643359 
L 226.365242 296.77692 
L 225.719252 299.326968 
L 225.586849 299.875388 
L 225.489859 300.206453 
L 225.489211 300.208667 
L 225.435407 300.448139 
L 225.413745 300.544261 
L 225.393429 300.626748 
L 224.572941 303.916528 
L 224.270783 305.143725 
L 224.230906 305.290544 
L 224.118037 305.758144 
L 223.999437 306.238156 
L 223.866273 306.774143 
L 223.726482 307.334188 
L 223.571387 307.957646 
L 223.404859 308.629838 
L 223.230235 309.334118 
L 223.024678 310.157975 
L 222.82884 310.929921 
L 222.810205 311.021523 
L 222.571372 311.985541 
L 222.304142 313.061 
L 222.027189 314.176828 
L 221.996257 314.296406 
L 221.671298 315.596996 
L 221.310616 317.038625 
L 220.558418 320.045582 
L 220.18309 321.546571 
L 219.835424 322.936216 
L 219.685966 323.534981 
L 219.515517 324.256568 
L 219.255699 325.354294 
L 219.025165 326.332313 
L 218.857977 327.037503 
L 218.698882 327.71044 
L 218.532593 328.471596 
L 218.423822 328.934242 
L 218.160849 330.056609 
L 218.103993 330.299035 
L 217.770469 331.721683 
L 217.241991 333.970596 
L 217.20309 334.142954 
L 216.26561 338.136921 
L 215.858169 339.874519 
L 215.784254 340.190128 
L 215.747028 340.348845 
L 215.554602 341.170108 
L 215.416176 341.761376 
L 215.150153 342.897665 
L 215.027892 343.419811 
L 214.990975 343.577532 
L 214.602573 345.234155 
L 214.284435 346.592401 
L 214.140024 347.206806 
L 214.045678 347.610594 
L 213.851055 348.443863 
L 213.433894 350.221091 
L 213.307231 350.744736 
L 213.205034 351.199159 
L 212.970093 352.346143 
L 212.956304 352.399794 
L 211.850887 356.550012 
L 211.627412 357.387134 
L 211.476991 357.952118 
L 211.376242 358.329912 
L 211.207637 358.961836 
L 211.103162 359.353399 
L 211.053607 359.55716 
L 210.978089 359.863076 
L 210.730432 360.86844 
L 210.606933 361.367363 
L 210.354415 362.390892 
L 210.269991 362.733119 
L 209.978454 363.915817 
L 209.937001 364.084028 
L 209.933791 364.098858 
L 209.597566 365.459651 
L 209.579772 365.533096 
L 209.547383 365.717185 
L 209.542711 365.744086 
L 209.351812 366.832548 
L 209.328422 366.96202 
L 209.10942 368.208752 
L 208.875023 369.54446 
L 208.872744 369.598022 
L 208.851143 370.082661 
L 208.813696 371.01817 
L 208.787725 371.670943 
L 208.752111 372.420151 
L 208.724402 373.049876 
L 208.690634 373.834498 
L 208.663023 374.513692 
L 208.619881 375.463179 
L 208.598212 375.929679 
L 208.559768 376.793477 
L 208.532656 377.367945 
L 208.525748 377.532838 
L 208.331839 378.086415 
L 208.135478 378.648209 
L 207.733747 379.795742 
L 207.692968 379.912076 
L 207.419987 380.691669 
L 207.247979 381.152828 
L 207.137931 381.447386 
L 206.797897 382.359888 
L 206.742447 382.508372 
L 206.245985 383.842444 
L 205.758468 385.149357 
L 205.426285 386.040992 
L 205.270138 386.460329 
L 204.779353 387.775396 
L 204.699409 387.991619 
L 204.258826 389.057644 
L 203.723665 390.354809 
L 203.187557 391.653564 
L 202.651533 392.952317 
L 202.359485 393.660271 
L 202.115577 394.250245 
L 201.695382 395.266845 
L 201.434898 396.644691 
L 201.269869 397.513015 
L 201.203536 397.865893 
L 200.937386 399.270167 
L 200.671499 401.585125 
L 200.641899 401.847236 
L 200.630679 401.942881 
L 200.318921 403.494021 
L 200.165044 404.255901 
L 200.076022 404.698741 
L 199.83968 405.366962 
L 198.610975 408.847627 
L 198.609 408.852261 
L 197.1691 412.230845 
L 196.830822 412.873038 
L 196.597859 413.470029 
L 194.867266 417.90464 
L 193.410061 421.6388 
L 191.748306 425.659805 
L 191.347741 426.631789 
L 189.732209 430.562073 
L 189.563018 430.973707 
L 189.56102 430.978562 
L 189.185356 431.891263 
L 188.892445 432.602545 
L 188.33976 434.87801 
L 187.978297 438.159048 
L 187.769653 440.051829 
L 187.241794 444.835786 
L 187.196268 445.247985 
L 187.178682 445.412867 
L 187.077929 446.341946 
L 186.438412 450.59713 
L 186.221003 452.045769 
L 185.962429 453.745893 
L 185.926966 453.980019 
L 185.380198 456.556229 
L 185.197741 457.415819 
L 185.016456 458.269893 
L 184.707817 459.73028 
L 184.57826 460.339751 
L 184.266573 461.343665 
L 184.212855 461.517675 
L 184.05746 462.017561 
L 183.934636 462.413495 
L 183.725479 463.089123 
L 183.310558 464.426287 
L 183.215306 464.733965 
L 182.723082 466.33504 
L 182.70191 466.392813 
L 182.198332 467.761541 
L 182.078563 468.105628 
L 182.051682 468.161714 
L 181.918866 468.525548 
L 181.697215 469.133595 
L 181.392302 469.914162 
L 180.745776 471.566807 
L 180.64546 471.823476 
L 180.543607 472.085044 
L 179.960281 473.456447 
L 179.571191 474.374926 
L 179.45699 474.643116 
L 179.405561 474.752845 
L 179.239004 475.111079 
L 179.233339 475.122582 
L 178.470943 476.757512 
L 178.219475 477.291519 
L 177.991705 477.781714 
L 177.737049 478.331375 
L 177.073491 479.754195 
L 176.886509 480.155263 
L 176.706169 480.540682 
L 176.53472 480.90793 
L 176.463686 481.060639 
L 176.053143 481.941173 
L 175.848194 482.366221 
L 175.638386 482.802012 
L 175.316709 483.469748 
L 174.672571 484.806803 
L 173.765526 486.68777 
L 173.681464 486.875892 
L 173.174744 488.009794 
L 173.071107 488.238422 
L 172.843456 488.748406 
L 172.679402 489.118955 
L 172.252681 490.070431 
L 172.246972 490.083668 
L 172.007972 490.645601 
L 171.762443 491.22079 
L 171.358614 492.173904 
L 171.222405 492.49486 
L 170.890478 493.286258 
L 170.701929 493.679118 
L 170.110054 494.931911 
L 169.954193 495.263692 
L 169.519973 496.183923 
L 169.349388 496.548764 
L 168.81797 497.676127 
L 167.8956 499.631325 
L 167.469484 500.530931 
L 166.544751 502.497645 
L 166.523476 502.535633 
L 166.1971 503.253612 
L 165.941643 503.814017 
L 165.428408 504.941312 
L 165.051319 505.76744 
L 167.99477 506.436273 
L 172.857602 507.541495 
L 181.074888 509.409176 
L 178.399517 521.249096 
L 178.099162 522.578537 
L 177.425567 525.555653 
L 174.633463 526.755905 
L 174.208596 526.938548 
L 167.030577 530.023182 
L 161.755262 532.291096 
L 151.191586 536.831299 
L 150.084519 539.027694 
L 147.702163 543.747529 
L 150.564707 552.047241 
L 151.074571 553.528235 
L 151.571897 554.966386 
L 151.904373 555.936154 
L 152.155502 556.664658 
L 152.2757 557.012909 
L 152.39838 557.36193 
L 152.599848 557.948067 
L 153.46275 560.449004 
L 153.543192 560.682869 
L 154.053837 562.163025 
L 154.647326 563.881859 
L 155.238419 565.596624 
L 155.826102 567.309817 
L 156.4188 569.027022 
L 157.009787 570.730249 
L 157.846128 573.15469 
L 157.982909 573.554768 
L 158.496136 575.032724 
L 158.595444 575.318947 
L 159.112678 576.80894 
L 159.17975 577.003278 
L 159.532882 578.028168 
L 159.936589 579.196311 
L 160.52584 580.892985 
L 161.144146 582.685156 
L 161.735959 584.401564 
L 162.275552 585.959996 
L 162.680046 587.1273 
L 163.379573 589.15654 
L 164.512503 592.431353 
L 166.009598 592.062494 
L 168.131319 591.539131 
L 169.572604 591.184468 
L 171.018766 590.827228 
L 171.489904 590.71125 
L 172.378809 590.492597 
L 173.742925 590.156232 
L 174.061376 590.077774 
L 175.150607 589.809012 
L 176.125676 589.569495 
L 176.49423 589.478551 
L 176.856164 589.389238 
L 178.733286 588.926921 
L 179.458051 588.751661 
L 181.650419 588.21419 
L 183.089225 587.850396 
L 183.243548 587.823565 
L 184.074201 587.619997 
L 184.456679 587.537987 
L 184.758035 587.49669 
L 185.725071 587.309979 
L 186.279274 587.222606 
L 186.899121 587.111931 
L 187.788195 586.952593 
L 188.029509 586.908998 
L 189.16819 586.70201 
L 189.298754 586.678509 
L 189.746191 586.598036 
L 190.315928 586.503152 
L 190.98753 586.391504 
L 191.474348 586.311729 
L 192.352011 586.164032 
L 192.771516 586.095146 
L 193.894945 586.016722 
L 194.010735 586.001548 
L 195.436448 585.909028 
L 195.664685 585.883619 
L 196.978675 585.800581 
L 197.312081 585.766583 
L 197.850862 585.740252 
L 198.526198 585.776125 
L 198.791489 585.780242 
L 200.067341 585.857933 
L 200.432921 585.878306 
L 201.606914 585.943162 
L 202.072792 585.968907 
L 203.148174 586.026628 
L 203.715046 586.059546 
L 204.691016 586.111055 
L 205.188022 586.128449 
L 206.120471 586.189085 
L 206.228966 586.208541 
L 207.713224 586.481028 
L 209.667651 586.840195 
L 210.205301 586.998517 
L 210.739643 587.155924 
L 211.272519 587.33645 
L 211.315247 587.351174 
L 214.71105 588.502198 
L 216.731484 589.534574 
L 219.36884 590.882351 
L 222.637241 592.553065 
L 222.734276 592.604686 
L 223.251722 592.869341 
L 223.773192 593.107604 
L 226.774475 594.474129 
L 227.66031 594.884453 
L 230.25526 596.07006 
L 233.74776 598.323655 
L 233.980706 598.468842 
L 235.015908 599.141559 
L 237.641062 600.843117 
L 238.849109 601.626569 
L 239.840772 602.263151 
L 240.057953 602.390301 
L 240.726188 602.832564 
L 242.130943 603.735793 
L 243.306024 604.485601 
L 243.52985 604.634951 
L 244.127283 605.018915 
L 244.948453 605.533186 
L 246.29463 606.373981 
L 246.363794 606.421603 
L 247.770851 607.303446 
L 248.186435 607.560146 
L 249.48985 608.38136 
L 249.645314 608.474827 
L 250.786584 609.190356 
L 251.281815 609.500801 
L 251.676068 609.747995 
L 251.781478 609.818569 
L 252.019249 609.967041 
L 252.872068 610.339556 
L 253.329135 610.486512 
L 257.377252 611.787656 
L 259.12092 612.348007 
L 260.490549 612.789098 
L 259.968017 615.6 
L 266.82233 613.941142 
L 268.005822 613.604849 
L 268.838789 613.368424 
L 270.503148 612.894789 
L 272.235664 612.40359 
L 279.728265 609.5655 
L 288.539979 605.784386 
L 293.397283 604.22234 
L 305.73316 600.256347 
L 306.749926 599.928837 
L 313.707481 598.049287 
L 320.046533 596.332984 
L 320.158251 596.619465 
L 328.985792 594.224516 
L 331.426173 593.013939 
L 337.004375 590.247109 
L 341.748256 587.894757 
L 348.128412 584.596976 
L 352.304864 582.880744 
L 355.217581 581.631119 
L 359.043609 579.988524 
L 365.151094 577.366198 
L 366.32062 576.865017 
L 366.664194 576.718391 
L 367.847277 576.48415 
L 368.010884 576.452653 
L 371.837697 575.109302 
L 373.246874 574.615237 
L 373.397031 574.562102 
L 374.01173 574.338867 
L 375.554534 573.779417 
L 377.501158 573.073043 
L 378.331553 572.714047 
L 378.777935 572.52093 
L 381.290384 571.434838 
L 382.835392 570.766614 
L 383.011827 570.677954 
L 385.091491 569.636702 
L 388.154017 568.101843 
L 390.174663 567.089597 
L 391.280568 566.535446 
L 392.160651 565.997555 
L 395.318636 564.523434 
L 396.400861 564.017961 
L 396.817721 563.823193 
L 405.718433 559.657937 
L 406.094189 559.481463 
L 407.619493 558.768081 
L 413.513136 555.982656 
L 414.588501 555.005009 
L 415.434277 554.190374 
L 416.058039 553.654762 
L 416.601466 553.155676 
L 417.79495 552.058987 
L 418.251317 551.639285 
L 419.669612 550.796825 
L 420.982077 550.082224 
L 421.397143 549.856188 
L 422.098746 549.47392 
L 426.610819 547.017413 
L 427.175272 546.708849 
L 427.225117 546.695243 
L 427.550571 546.523858 
L 430.2339 545.110826 
L 432.261313 544.03582 
L 434.286373 542.965574 
L 435.303466 542.430357 
L 435.386035 542.386531 
L 437.622573 541.211741 
L 440.776691 539.555267 
L 440.996775 539.434858 
L 443.998324 537.59889 
L 444.00814 537.592825 
L 444.485036 537.301173 
L 446.031094 536.355471 
L 446.952193 535.792085 
L 447.850577 535.242546 
L 447.881245 535.223748 
L 448.070122 535.108218 
L 448.817052 534.690723 
L 449.756483 534.16562 
L 450.69941 533.638631 
L 451.645992 533.109503 
L 452.598995 532.57686 
L 453.549157 532.045764 
L 454.50509 531.511496 
L 455.655478 530.868593 
L 456.157609 530.587874 
L 465.327844 526.831916 
L 466.527395 526.25758 
L 469.159295 525.233302 
L 470.343121 524.726843 
L 472.959086 523.771696 
L 474.62503 523.170581 
L 475.705379 522.741054 
L 479.711967 521.253897 
L 479.97829 521.165583 
L 482.844929 520.358254 
L 487.592833 519.379723 
L 490.330519 518.815552 
L 490.857717 518.707161 
L 490.921123 518.662272 
L 490.984277 518.617141 
L 491.047176 518.571603 
L 491.304169 518.345554 
L 491.555942 518.113679 
L 491.802249 517.875985 
L 492.043096 517.632719 
L 492.278237 517.383968 
L 492.507675 517.129815 
L 492.731164 516.870346 
L 492.94863 516.605895 
L 493.114302 516.360277 
L 493.275053 516.111301 
L 493.430888 515.859215 
L 493.581646 515.604104 
L 493.727244 515.34597 
L 493.867767 515.084976 
L 494.00289 514.821294 
L 494.13278 514.555002 
L 494.257357 514.286186 
L 494.376538 514.01493 
L 494.490328 513.741314 
L 494.598645 513.465507 
L 495.058345 512.259639 
L 493.175427 511.548538 
L 492.667249 511.356888 
L 492.724643 511.632867 
L 490.311937 510.703794 
L 485.389791 508.809088 
L 478.830315 506.272776 
L 478.766163 506.26714 
L 477.991765 505.736716 
L 471.641065 503.274219 
L 471.224264 503.117001 
L 470.522764 502.851942 
L 469.687377 502.536297 
L 468.434123 502.066194 
L 465.311862 500.863718 
L 464.248208 500.450212 
L 459.458349 498.588152 
L 453.807768 496.530773 
L 448.466527 494.473264 
L 446.148499 493.630151 
L 443.245589 492.543599 
L 439.81859 490.777542 
L 435.172852 489.773354 
L 431.595875 489.000184 
L 431.470225 488.974935 
L 430.409603 488.745114 
L 429.542607 488.298155 
L 424.52605 485.705458 
L 421.326756 484.057593 
L 415.536055 481.076423 
L 414.330818 480.455555 
L 414.066407 479.486335 
L 415.062361 479.228317 
L 416.712699 478.802782 
L 415.424664 477.898056 
L 414.069503 477.155586 
L 412.824767 476.16899 
L 410.677927 474.212169 
L 409.571574 473.032299 
L 409.044694 472.294415 
L 407.347115 469.922011 
L 405.847751 467.351987 
L 404.438199 464.880706 
L 405.053136 464.488374 
L 410.402248 461.075693 
L 410.53089 460.99459 
L 410.614289 460.45949 
L 410.057988 459.791746 
L 408.056177 457.387888 
L 407.965117 457.458122 
L 407.140127 456.432562 
L 407.272156 456.329205 
L 407.710194 456.089221 
L 407.85383 456.009607 
L 408.407821 456.043752 
L 409.370953 455.114936 
L 409.598516 454.87001 
L 409.821131 454.620492 
L 410.038635 454.366466 
L 410.250867 454.108102 
L 410.44159 453.866445 
L 410.627799 453.621257 
L 410.809412 453.372623 
L 410.98635 453.120627 
L 411.006842 453.090997 
L 411.027333 453.061285 
L 411.04774 453.031492 
L 411.832014 451.83865 
L 412.579097 450.617176 
L 413.290986 449.375931 
L 413.959115 448.102649 
L 414.582858 446.8295 
L 415.174471 445.518457 
L 415.717606 444.196917 
L 416.222136 442.861449 
L 416.799844 441.253798 
L 417.218588 439.747195 
L 417.348894 439.271276 
L 418.231671 436.092109 
L 418.584377 434.822085 
L 418.937085 433.55206 
L 419.290537 432.282103 
L 419.675846 430.894954 
L 420.028481 429.625015 
L 420.381266 428.354331 
L 420.733999 427.084967 
L 421.086556 425.814948 
L 421.439281 424.545008 
L 421.836712 423.116622 
L 422.714063 419.95729 
L 423.343672 417.691139 
L 423.513425 416.921833 
L 423.606142 416.502051 
L 424.031316 414.579099 
L 424.457068 412.652177 
L 424.88375 410.718639 
L 424.955404 410.397924 
L 425.440604 408.198044 
L 425.732289 406.225857 
L 426.504827 406.230588 
L 427.009376 406.233418 
L 427.862406 406.230483 
L 431.717676 403.700126 
L 431.834408 403.622337 
L 432.420049 403.237801 
L 432.954121 402.886943 
L 432.924774 402.698759 
L 432.899116 402.510082 
L 432.87723 402.320913 
L 432.872885 402.286871 
L 432.868706 402.252908 
L 432.864607 402.218861 
L 432.857749 402.144224 
L 432.851384 402.069577 
L 432.845593 401.994835 
L 432.829118 401.7165 
L 432.820693 401.437828 
L 432.82016 401.159068 
L 432.827685 400.880383 
L 432.843193 400.60202 
L 432.866606 400.32423 
L 433.109852 398.311122 
L 433.44544 395.682996 
L 433.629111 394.217333 
L 434.098327 389.812952 
L 434.384484 387.129658 
L 434.919952 384.30834 
L 436.698419 376.833415 
L 437.167894 374.858654 
L 437.288193 374.658843 
L 438.580536 372.508999 
L 439.003747 371.804833 
L 438.951956 371.582171 
L 438.907779 371.357943 
L 438.871137 371.132317 
L 438.842281 370.905533 
L 438.821055 370.677927 
L 438.806972 370.449837 
L 438.800693 370.221414 
L 438.801383 370.112464 
L 438.802141 369.992908 
L 438.811405 369.764563 
L 438.828324 369.536632 
L 438.898487 369.022189 
L 439.135317 367.368468 
L 439.199624 367.130202 
L 439.500333 366.018469 
L 439.589241 365.78091 
L 440.598557 363.101792 
L 440.831362 362.483099 
L 441.122771 361.709374 
L 441.267502 361.325007 
L 442.148506 358.985713 
L 442.758531 357.364052 
L 443.462556 355.496397 
L 443.868418 354.417617 
L 443.985318 354.154475 
L 444.27059 353.512478 
L 444.589456 352.795553 
L 445.128947 351.582064 
L 445.479668 350.7933 
L 445.690722 350.391514 
L 446.368991 349.138026 
L 446.929581 348.095752 
L 447.089951 347.823351 
L 447.918386 346.44684 
L 448.672385 345.19643 
L 449.589262 343.67126 
L 450.276068 342.531545 
L 451.370591 340.714231 
L 452.795926 338.348938 
L 453.042358 337.939637 
L 453.869995 336.566289 
L 453.926555 336.484602 
L 454.830021 335.16545 
L 455.622056 334.011532 
L 456.21663 333.145568 
L 456.421488 332.864878 
L 456.881168 332.232508 
L 457.924766 330.800944 
L 458.599145 329.874649 
L 459.399452 328.776052 
L 460.200008 327.677286 
L 461.07166 326.4802 
L 461.944041 325.282358 
L 463.374507 323.318371 
L 463.956184 322.521048 
L 465.888659 318.910708 
L 467.19196 316.47586 
L 468.815723 314.140512 
L 470.173175 312.189162 
L 470.847316 310.472755 
L 470.807043 309.825049 
L 475.695401 302.788777 
L 475.814335 302.62339 
L 475.938619 302.462093 
L 476.068173 302.304972 
L 476.202754 302.152195 
L 476.342288 302.004177 
L 476.48661 301.860838 
L 476.635639 301.722264 
L 476.789052 301.588791 
L 476.882104 301.513335 
L 476.977695 301.441289 
L 477.075826 301.372651 
L 477.176334 301.307508 
L 477.294087 301.237296 
L 477.414575 301.171973 
L 477.537634 301.111542 
L 477.644319 301.066138 
L 477.752481 301.024412 
L 477.862038 300.98645 
L 477.972826 300.952253 
L 478.108496 300.912413 
L 478.245767 300.878311 
L 478.384232 300.850036 
L 478.523808 300.827593 
L 478.66425 300.811067 
L 478.805227 300.800384 
L 479.00765 300.794159 
L 479.210188 300.793373 
L 479.41268 300.798112 
L 479.438769 300.799039 
L 479.490873 300.801223 
L 479.66198 300.811251 
L 479.832757 300.825161 
L 480.003207 300.842954 
L 480.173164 300.864715 
L 480.639824 300.929805 
L 485.10091 301.552072 
L 489.834613 302.21123 
L 490.63298 302.323134 
L 490.782609 302.344179 
L 494.022881 302.796313 
L 494.324309 302.839951 
L 494.547693 302.875913 
L 494.77057 302.915103 
L 495.150205 302.989698 
L 495.435008 303.052137 
L 495.644571 303.103402 
L 495.852619 303.160718 
L 496.058901 303.224008 
L 496.263255 303.293276 
L 496.451252 303.362976 
L 496.637301 303.437747 
L 496.899295 303.553113 
L 497.054074 303.626985 
L 497.224487 303.712891 
L 497.392689 303.803132 
L 497.558516 303.897711 
L 497.64173 303.947551 
L 497.72431 303.998475 
L 497.806254 304.050485 
L 497.995727 304.174243 
L 498.183447 304.300676 
L 498.369335 304.42987 
L 498.435131 304.476618 
L 498.500771 304.523782 
L 498.566088 304.5712 
L 498.9135 304.832498 
L 501.894412 307.135694 
L 505.688709 310.067499 
L 506.285332 310.528549 
L 507.907812 311.782442 
L 508.571899 312.295569 
L 509.453195 312.976641 
L 509.671156 313.145063 
L 511.266443 314.377946 
L 511.939886 314.898383 
L 512.815233 315.574806 
L 513.036955 315.7462 
L 515.401969 317.574004 
L 517.112101 318.896069 
L 519.818508 320.987485 
L 519.980042 321.11292 
L 520.141176 321.23894 
L 520.301909 321.365381 
L 520.451529 321.483566 
L 520.600749 321.602254 
L 520.749647 321.721279 
L 520.920574 321.859294 
L 521.091103 321.997894 
L 521.261069 322.137084 
L 521.432038 322.277077 
L 521.602443 322.41766 
L 521.77245 322.558828 
L 521.817573 322.596537 
L 521.862615 322.634331 
L 521.907577 322.672209 
L 522.074644 322.814347 
L 522.240748 322.95766 
L 522.405889 323.102065 
L 522.657754 323.326499 
L 522.907207 323.553541 
L 523.154332 323.783272 
L 523.399043 324.015527 
L 523.64848 324.257411 
L 523.895341 324.501907 
L 524.139545 324.749097 
L 524.38101 324.998984 
L 524.56109 325.188833 
L 524.739558 325.380201 
L 524.916494 325.573002 
L 525.05147 325.72209 
L 525.185478 325.872106 
L 525.318516 326.022884 
L 525.364692 326.075413 
L 525.410703 326.127946 
L 525.456716 326.180561 
L 525.570496 326.311218 
L 525.68387 326.442132 
L 525.816394 326.596112 
L 525.91075 326.706264 
L 526.024255 326.839484 
L 526.137437 326.972957 
L 526.198504 327.045288 
L 526.259572 327.117619 
L 526.320477 327.190036 
L 526.527465 327.439091 
L 526.733241 327.689162 
L 526.937805 327.940247 
L 529.4836 331.078656 
L 529.587542 331.206967 
L 529.898264 331.590195 
L 530.545962 332.38899 
L 530.883104 332.804554 
L 530.961368 332.900761 
L 531.434449 333.48403 
L 531.536389 333.611065 
L 531.636712 333.739372 
L 531.735254 333.869036 
L 531.831762 333.999732 
L 531.926568 334.131619 
L 532.019675 334.264779 
L 532.104766 334.392255 
L 532.186532 334.521864 
L 532.264888 334.653605 
L 532.339752 334.787401 
L 532.410774 334.922267 
L 532.478215 335.05894 
L 532.542075 335.197339 
L 532.602351 335.337381 
L 532.65947 335.479798 
L 532.712838 335.623697 
L 532.762451 335.768913 
L 532.808227 335.915447 
L 532.816889 335.943956 
L 532.825386 335.972469 
L 532.833885 336.001064 
L 532.836311 336.009599 
L 532.870308 336.129162 
L 532.905424 336.2577 
L 532.939148 336.386516 
L 532.978259 336.544487 
L 533.015323 336.702914 
L 533.050258 336.861799 
L 533.741576 339.503217 
L 533.785909 339.702138 
L 533.833188 339.900338 
L 533.883413 340.097897 
L 533.936265 340.295236 
L 533.992061 340.491853 
L 534.050717 340.687584 
L 534.05759 340.709288 
L 534.064463 340.730992 
L 534.071418 340.752694 
L 534.148967 340.982489 
L 534.234188 341.209565 
L 534.326992 341.433594 
L 534.427292 341.65433 
L 534.534919 341.871613 
L 534.60746 342.008426 
L 534.683011 342.143691 
L 534.761403 342.277247 
L 534.842638 342.409093 
L 534.899358 342.497678 
L 534.957377 342.585493 
L 535.016692 342.672374 
L 535.082813 342.766119 
L 535.15031 342.858845 
L 535.219266 342.950551 
L 535.258326 343.001171 
L 535.29763 343.051621 
L 535.337094 343.101903 
L 535.424516 343.211356 
L 535.51307 343.31996 
L 535.602674 343.427635 
L 535.734964 343.58239 
L 535.869513 343.735119 
L 536.006322 343.88582 
L 536.911101 343.049005 
L 538.577529 341.512654 
L 539.001183 341.123388 
L 539.536784 340.634369 
L 539.642755 340.602024 
L 539.69859 340.590366 
L 540.022157 340.846765 
L 540.353974 341.112223 
L 541.062805 341.676892 
L 541.104021 341.708915 
L 541.775797 342.243948 
L 542.231953 342.607194 
L 542.538102 342.848876 
L 543.406018 343.540859 
L 546.151677 345.722066 
L 546.457189 345.972751 
L 546.949606 346.355764 
L 548.430789 347.53556 
L 548.802465 347.831676 
L 549.682807 348.532973 
L 550.348844 349.062122 
L 552.873029 351.066019 
L 553.192919 351.320444 
L 554.033086 351.988962 
L 554.605144 352.44104 
L 555.286992 352.983631 
L 557.219142 354.522048 
L 557.793762 354.979023 
L 558.468842 353.979582 
L 558.813351 354.438713 
L 559.514801 355.37345 
L 559.799953 355.755181 
L 560.535586 356.735864 
L 561.975788 358.655594 
L 561.984911 358.667109 
L 562.307718 358.190048 
L 562.300273 358.180147 
L 564.895 354.320288 
L 565.100637 354.014985 
L 565.960105 352.734944 
L 566.225556 352.341305 
L 566.559638 351.844295 
L 568.443454 349.041794 
L 569.481279 347.358423 
L 572.412935 342.641653 
L 573.528457 340.752912 
L 574.256476 339.468249 
L 574.684727 338.713331 
L 575.791914 336.763593 
L 576.434725 335.629974 
L 578.995422 331.061514 
L 580.876227 327.989429 
L 585.01692 321.511594 
L 586.030059 320.165358 
L 586.723505 319.243413 
L 587.10139 319.522035 
L 587.868731 320.121253 
L 588.253075 319.639248 
L 588.255652 319.636016 
L 590.297837 317.072761 
L 589.52643 316.456227 
L 589.247746 316.456833 
L 589.066571 316.268463 
L 589.034287 316.234845 
L 588.851614 316.045599 
L 588.720532 315.869528 
L 588.616544 315.683486 
L 588.583606 315.62663 
L 588.431825 315.361619 
L 587.969045 314.553303 
L 587.800872 314.31057 
L 587.365659 313.710688 
L 586.962082 313.325008 
L 586.596504 313.010094 
L 580.304314 307.998026 
L 579.068056 307.005545 
L 578.647493 306.727914 
L 578.30272 306.562135 
L 577.916074 306.411341 
L 577.457098 306.266365 
L 577.133067 306.164049 
L 576.797413 306.036996 
L 576.469922 305.867968 
L 576.219701 305.716847 
L 575.953835 305.533571 
L 574.527853 304.405112 
L 570.008516 300.829707 
L 568.545467 299.676575 
L 568.072837 299.297652 
L 566.939913 298.407487 
L 560.637849 293.4177 
L 556.942456 290.472813 
L 555.565746 289.377181 
L 552.248246 286.735583 
L 542.771388 279.186649 
L 539.033328 276.208283 
L 531.172149 269.945037 
L 528.102078 267.499065 
L 523.628051 263.943083 
L 520.188202 261.20648 
L 519.286435 260.464311 
L 518.438028 259.725296 
L 517.24545 258.708574 
L 515.968596 257.542021 
L 514.727113 256.360536 
L 514.463012 256.096782 
L 513.455874 255.090971 
L 513.435222 255.07121 
L 512.295664 253.879647 
L 511.313354 252.823668 
L 510.165419 251.586776 
L 509.454148 250.76925 
L 508.69334 249.880965 
L 507.741239 248.714525 
L 506.888679 247.611268 
L 505.406047 245.238739 
L 504.228175 243.116061 
L 502.97447 240.587197 
L 502.681658 240.160981 
L 502.292309 239.94922 
L 501.841533 240.176094 
L 501.536546 239.663701 
L 501.229215 239.147373 
L 500.760378 239.44175 
L 500.708215 239.258912 
L 500.705229 239.017474 
L 500.63063 238.769649 
L 500.603291 238.67904 
L 500.496996 238.212815 
L 500.310504 237.184743 
L 500.194191 236.641887 
L 498.722345 233.615062 
L 498.218523 232.583536 
L 497.267448 230.457854 
L 495.82996 227.03701 
L 495.405502 226.203163 
L 494.216405 224.649177 
L 494.067965 224.437641 
L 493.940049 224.231933 
L 493.722813 223.786631 
L 493.378875 222.956674 
L 489.969468 214.724256 
L 489.632181 213.90999 
L 489.53663 213.679269 
L 489.044407 212.491426 
L 488.587153 211.261611 
L 488.330474 210.571199 
L 487.869661 209.332803 
L 486.032528 204.881143 
L 480.35235 191.125065 
L 479.742417 190.144973 
L 479.1251 188.794913 
L 472.141731 174.553307 
L 471.846437 173.821352 
L 471.56859 173.132229 
L 471.531329 173.039773 
L 470.691908 170.955381 
L 470.384424 169.921832 
L 470.146158 169.295268 
L 469.192095 167.433396 
L 468.985356 166.946821 
" clip-path="url(#p6b0e551b2b)" style="fill: #d3d3d3"/>
   </g>
   <g id="matplotlib.axis_1">
    <g id="xtick_1">
     <g id="line2d_1">
      <defs>
       <path id="m8db6690e30" d="M 0 0 
L 0 3.5 
" style="stroke: #000000; stroke-width: 0.8"/>
      </defs>
      <g>
       <use xlink:href="#m8db6690e30" x="150.51255" y="640.8" style="stroke: #000000; stroke-width: 0.8"/>
      </g>
     </g>
     <g id="text_1">
      <!-- 13.40 -->
      <g transform="translate(136.198487 655.398438) scale(0.1 -0.1)">
       <defs>
        <path id="DejaVuSans-31" d="M 794 531 
L 1825 531 
L 1825 4091 
L 703 3866 
L 703 4441 
L 1819 4666 
L 2450 4666 
L 2450 531 
L 3481 531 
L 3481 0 
L 794 0 
L 794 531 
z
" transform="scale(0.015625)"/>
        <path id="DejaVuSans-33" d="M 2597 2516 
Q 3050 2419 3304 2112 
Q 3559 1806 3559 1356 
Q 3559 666 3084 287 
Q 2609 -91 1734 -91 
Q 1441 -91 1130 -33 
Q 819 25 488 141 
L 488 750 
Q 750 597 1062 519 
Q 1375 441 1716 441 
Q 2309 441 2620 675 
Q 2931 909 2931 1356 
Q 2931 1769 2642 2001 
Q 2353 2234 1838 2234 
L 1294 2234 
L 1294 2753 
L 1863 2753 
Q 2328 2753 2575 2939 
Q 2822 3125 2822 3475 
Q 2822 3834 2567 4026 
Q 2313 4219 1838 4219 
Q 1578 4219 1281 4162 
Q 984 4106 628 3988 
L 628 4550 
Q 988 4650 1302 4700 
Q 1616 4750 1894 4750 
Q 2613 4750 3031 4423 
Q 3450 4097 3450 3541 
Q 3450 3153 3228 2886 
Q 3006 2619 2597 2516 
z
" transform="scale(0.015625)"/>
        <path id="DejaVuSans-2e" d="M 684 794 
L 1344 794 
L 1344 0 
L 684 0 
L 684 794 
z
" transform="scale(0.015625)"/>
        <path id="DejaVuSans-34" d="M 2419 4116 
L 825 1625 
L 2419 1625 
L 2419 4116 
z
M 2253 4666 
L 3047 4666 
L 3047 1625 
L 3713 1625 
L 3713 1100 
L 3047 1100 
L 3047 0 
L 2419 0 
L 2419 1100 
L 313 1100 
L 313 1709 
L 2253 4666 
z
" transform="scale(0.015625)"/>
        <path id="DejaVuSans-30" d="M 2034 4250 
Q 1547 4250 1301 3770 
Q 1056 3291 1056 2328 
Q 1056 1369 1301 889 
Q 1547 409 2034 409 
Q 2525 409 2770 889 
Q 3016 1369 3016 2328 
Q 3016 3291 2770 3770 
Q 2525 4250 2034 4250 
z
M 2034 4750 
Q 2819 4750 3233 4129 
Q 3647 3509 3647 2328 
Q 3647 1150 3233 529 
Q 2819 -91 2034 -91 
Q 1250 -91 836 529 
Q 422 1150 422 2328 
Q 422 3509 836 4129 
Q 1250 4750 2034 4750 
z
" transform="scale(0.015625)"/>
       </defs>
       <use xlink:href="#DejaVuSans-31"/>
       <use xlink:href="#DejaVuSans-33" x="63.623047"/>
       <use xlink:href="#DejaVuSans-2e" x="127.246094"/>
       <use xlink:href="#DejaVuSans-34" x="159.033203"/>
       <use xlink:href="#DejaVuSans-30" x="222.65625"/>
      </g>
     </g>
    </g>
    <g id="xtick_2">
     <g id="line2d_2">
      <g>
       <use xlink:href="#m8db6690e30" x="206.404107" y="640.8" style="stroke: #000000; stroke-width: 0.8"/>
      </g>
     </g>
     <g id="text_2">
      <!-- 13.41 -->
      <g transform="translate(192.090045 655.398438) scale(0.1 -0.1)">
       <use xlink:href="#DejaVuSans-31"/>
       <use xlink:href="#DejaVuSans-33" x="63.623047"/>
       <use xlink:href="#DejaVuSans-2e" x="127.246094"/>
       <use xlink:href="#DejaVuSans-34" x="159.033203"/>
       <use xlink:href="#DejaVuSans-31" x="222.65625"/>
      </g>
     </g>
    </g>
    <g id="xtick_3">
     <g id="line2d_3">
      <g>
       <use xlink:href="#m8db6690e30" x="262.295665" y="640.8" style="stroke: #000000; stroke-width: 0.8"/>
      </g>
     </g>
     <g id="text_3">
      <!-- 13.42 -->
      <g transform="translate(247.981602 655.398438) scale(0.1 -0.1)">
       <defs>
        <path id="DejaVuSans-32" d="M 1228 531 
L 3431 531 
L 3431 0 
L 469 0 
L 469 531 
Q 828 903 1448 1529 
Q 2069 2156 2228 2338 
Q 2531 2678 2651 2914 
Q 2772 3150 2772 3378 
Q 2772 3750 2511 3984 
Q 2250 4219 1831 4219 
Q 1534 4219 1204 4116 
Q 875 4013 500 3803 
L 500 4441 
Q 881 4594 1212 4672 
Q 1544 4750 1819 4750 
Q 2544 4750 2975 4387 
Q 3406 4025 3406 3419 
Q 3406 3131 3298 2873 
Q 3191 2616 2906 2266 
Q 2828 2175 2409 1742 
Q 1991 1309 1228 531 
z
" transform="scale(0.015625)"/>
       </defs>
       <use xlink:href="#DejaVuSans-31"/>
       <use xlink:href="#DejaVuSans-33" x="63.623047"/>
       <use xlink:href="#DejaVuSans-2e" x="127.246094"/>
       <use xlink:href="#DejaVuSans-34" x="159.033203"/>
       <use xlink:href="#DejaVuSans-32" x="222.65625"/>
      </g>
     </g>
    </g>
    <g id="xtick_4">
     <g id="line2d_4">
      <g>
       <use xlink:href="#m8db6690e30" x="318.187222" y="640.8" style="stroke: #000000; stroke-width: 0.8"/>
      </g>
     </g>
     <g id="text_4">
      <!-- 13.43 -->
      <g transform="translate(303.87316 655.398438) scale(0.1 -0.1)">
       <use xlink:href="#DejaVuSans-31"/>
       <use xlink:href="#DejaVuSans-33" x="63.623047"/>
       <use xlink:href="#DejaVuSans-2e" x="127.246094"/>
       <use xlink:href="#DejaVuSans-34" x="159.033203"/>
       <use xlink:href="#DejaVuSans-33" x="222.65625"/>
      </g>
     </g>
    </g>
    <g id="xtick_5">
     <g id="line2d_5">
      <g>
       <use xlink:href="#m8db6690e30" x="374.07878" y="640.8" style="stroke: #000000; stroke-width: 0.8"/>
      </g>
     </g>
     <g id="text_5">
      <!-- 13.44 -->
      <g transform="translate(359.764717 655.398438) scale(0.1 -0.1)">
       <use xlink:href="#DejaVuSans-31"/>
       <use xlink:href="#DejaVuSans-33" x="63.623047"/>
       <use xlink:href="#DejaVuSans-2e" x="127.246094"/>
       <use xlink:href="#DejaVuSans-34" x="159.033203"/>
       <use xlink:href="#DejaVuSans-34" x="222.65625"/>
      </g>
     </g>
    </g>
    <g id="xtick_6">
     <g id="line2d_6">
      <g>
       <use xlink:href="#m8db6690e30" x="429.970338" y="640.8" style="stroke: #000000; stroke-width: 0.8"/>
      </g>
     </g>
     <g id="text_6">
      <!-- 13.45 -->
      <g transform="translate(415.656275 655.398438) scale(0.1 -0.1)">
       <defs>
        <path id="DejaVuSans-35" d="M 691 4666 
L 3169 4666 
L 3169 4134 
L 1269 4134 
L 1269 2991 
Q 1406 3038 1543 3061 
Q 1681 3084 1819 3084 
Q 2600 3084 3056 2656 
Q 3513 2228 3513 1497 
Q 3513 744 3044 326 
Q 2575 -91 1722 -91 
Q 1428 -91 1123 -41 
Q 819 9 494 109 
L 494 744 
Q 775 591 1075 516 
Q 1375 441 1709 441 
Q 2250 441 2565 725 
Q 2881 1009 2881 1497 
Q 2881 1984 2565 2268 
Q 2250 2553 1709 2553 
Q 1456 2553 1204 2497 
Q 953 2441 691 2322 
L 691 4666 
z
" transform="scale(0.015625)"/>
       </defs>
       <use xlink:href="#DejaVuSans-31"/>
       <use xlink:href="#DejaVuSans-33" x="63.623047"/>
       <use xlink:href="#DejaVuSans-2e" x="127.246094"/>
       <use xlink:href="#DejaVuSans-34" x="159.033203"/>
       <use xlink:href="#DejaVuSans-35" x="222.65625"/>
      </g>
     </g>
    </g>
    <g id="xtick_7">
     <g id="line2d_7">
      <g>
       <use xlink:href="#m8db6690e30" x="485.861895" y="640.8" style="stroke: #000000; stroke-width: 0.8"/>
      </g>
     </g>
     <g id="text_7">
      <!-- 13.46 -->
      <g transform="translate(471.547833 655.398438) scale(0.1 -0.1)">
       <defs>
        <path id="DejaVuSans-36" d="M 2113 2584 
Q 1688 2584 1439 2293 
Q 1191 2003 1191 1497 
Q 1191 994 1439 701 
Q 1688 409 2113 409 
Q 2538 409 2786 701 
Q 3034 994 3034 1497 
Q 3034 2003 2786 2293 
Q 2538 2584 2113 2584 
z
M 3366 4563 
L 3366 3988 
Q 3128 4100 2886 4159 
Q 2644 4219 2406 4219 
Q 1781 4219 1451 3797 
Q 1122 3375 1075 2522 
Q 1259 2794 1537 2939 
Q 1816 3084 2150 3084 
Q 2853 3084 3261 2657 
Q 3669 2231 3669 1497 
Q 3669 778 3244 343 
Q 2819 -91 2113 -91 
Q 1303 -91 875 529 
Q 447 1150 447 2328 
Q 447 3434 972 4092 
Q 1497 4750 2381 4750 
Q 2619 4750 2861 4703 
Q 3103 4656 3366 4563 
z
" transform="scale(0.015625)"/>
       </defs>
       <use xlink:href="#DejaVuSans-31"/>
       <use xlink:href="#DejaVuSans-33" x="63.623047"/>
       <use xlink:href="#DejaVuSans-2e" x="127.246094"/>
       <use xlink:href="#DejaVuSans-34" x="159.033203"/>
       <use xlink:href="#DejaVuSans-36" x="222.65625"/>
      </g>
     </g>
    </g>
    <g id="xtick_8">
     <g id="line2d_8">
      <g>
       <use xlink:href="#m8db6690e30" x="541.753453" y="640.8" style="stroke: #000000; stroke-width: 0.8"/>
      </g>
     </g>
     <g id="text_8">
      <!-- 13.47 -->
      <g transform="translate(527.43939 655.398438) scale(0.1 -0.1)">
       <defs>
        <path id="DejaVuSans-37" d="M 525 4666 
L 3525 4666 
L 3525 4397 
L 1831 0 
L 1172 0 
L 2766 4134 
L 525 4134 
L 525 4666 
z
" transform="scale(0.015625)"/>
       </defs>
       <use xlink:href="#DejaVuSans-31"/>
       <use xlink:href="#DejaVuSans-33" x="63.623047"/>
       <use xlink:href="#DejaVuSans-2e" x="127.246094"/>
       <use xlink:href="#DejaVuSans-34" x="159.033203"/>
       <use xlink:href="#DejaVuSans-37" x="222.65625"/>
      </g>
     </g>
    </g>
    <g id="xtick_9">
     <g id="line2d_9">
      <g>
       <use xlink:href="#m8db6690e30" x="597.64501" y="640.8" style="stroke: #000000; stroke-width: 0.8"/>
      </g>
     </g>
     <g id="text_9">
      <!-- 13.48 -->
      <g transform="translate(583.330948 655.398438) scale(0.1 -0.1)">
       <defs>
        <path id="DejaVuSans-38" d="M 2034 2216 
Q 1584 2216 1326 1975 
Q 1069 1734 1069 1313 
Q 1069 891 1326 650 
Q 1584 409 2034 409 
Q 2484 409 2743 651 
Q 3003 894 3003 1313 
Q 3003 1734 2745 1975 
Q 2488 2216 2034 2216 
z
M 1403 2484 
Q 997 2584 770 2862 
Q 544 3141 544 3541 
Q 544 4100 942 4425 
Q 1341 4750 2034 4750 
Q 2731 4750 3128 4425 
Q 3525 4100 3525 3541 
Q 3525 3141 3298 2862 
Q 3072 2584 2669 2484 
Q 3125 2378 3379 2068 
Q 3634 1759 3634 1313 
Q 3634 634 3220 271 
Q 2806 -91 2034 -91 
Q 1263 -91 848 271 
Q 434 634 434 1313 
Q 434 1759 690 2068 
Q 947 2378 1403 2484 
z
M 1172 3481 
Q 1172 3119 1398 2916 
Q 1625 2713 2034 2713 
Q 2441 2713 2670 2916 
Q 2900 3119 2900 3481 
Q 2900 3844 2670 4047 
Q 2441 4250 2034 4250 
Q 1625 4250 1398 4047 
Q 1172 3844 1172 3481 
z
" transform="scale(0.015625)"/>
       </defs>
       <use xlink:href="#DejaVuSans-31"/>
       <use xlink:href="#DejaVuSans-33" x="63.623047"/>
       <use xlink:href="#DejaVuSans-2e" x="127.246094"/>
       <use xlink:href="#DejaVuSans-34" x="159.033203"/>
       <use xlink:href="#DejaVuSans-38" x="222.65625"/>
      </g>
     </g>
    </g>
   </g>
   <g id="matplotlib.axis_2">
    <g id="ytick_1">
     <g id="line2d_10">
      <defs>
       <path id="m638118b77b" d="M 0 0 
L -3.5 0 
" style="stroke: #000000; stroke-width: 0.8"/>
      </defs>
      <g>
       <use xlink:href="#m638118b77b" x="125.572379" y="617.287737" style="stroke: #000000; stroke-width: 0.8"/>
      </g>
     </g>
     <g id="text_10">
      <!-- 52.41 -->
      <g transform="translate(89.944254 621.086955) scale(0.1 -0.1)">
       <use xlink:href="#DejaVuSans-35"/>
       <use xlink:href="#DejaVuSans-32" x="63.623047"/>
       <use xlink:href="#DejaVuSans-2e" x="127.246094"/>
       <use xlink:href="#DejaVuSans-34" x="159.033203"/>
       <use xlink:href="#DejaVuSans-31" x="222.65625"/>
      </g>
     </g>
    </g>
    <g id="ytick_2">
     <g id="line2d_11">
      <g>
       <use xlink:href="#m638118b77b" x="125.572379" y="525.583776" style="stroke: #000000; stroke-width: 0.8"/>
      </g>
     </g>
     <g id="text_11">
      <!-- 52.42 -->
      <g transform="translate(89.944254 529.382994) scale(0.1 -0.1)">
       <use xlink:href="#DejaVuSans-35"/>
       <use xlink:href="#DejaVuSans-32" x="63.623047"/>
       <use xlink:href="#DejaVuSans-2e" x="127.246094"/>
       <use xlink:href="#DejaVuSans-34" x="159.033203"/>
       <use xlink:href="#DejaVuSans-32" x="222.65625"/>
      </g>
     </g>
    </g>
    <g id="ytick_3">
     <g id="line2d_12">
      <g>
       <use xlink:href="#m638118b77b" x="125.572379" y="433.879815" style="stroke: #000000; stroke-width: 0.8"/>
      </g>
     </g>
     <g id="text_12">
      <!-- 52.43 -->
      <g transform="translate(89.944254 437.679033) scale(0.1 -0.1)">
       <use xlink:href="#DejaVuSans-35"/>
       <use xlink:href="#DejaVuSans-32" x="63.623047"/>
       <use xlink:href="#DejaVuSans-2e" x="127.246094"/>
       <use xlink:href="#DejaVuSans-34" x="159.033203"/>
       <use xlink:href="#DejaVuSans-33" x="222.65625"/>
      </g>
     </g>
    </g>
    <g id="ytick_4">
     <g id="line2d_13">
      <g>
       <use xlink:href="#m638118b77b" x="125.572379" y="342.175854" style="stroke: #000000; stroke-width: 0.8"/>
      </g>
     </g>
     <g id="text_13">
      <!-- 52.44 -->
      <g transform="translate(89.944254 345.975073) scale(0.1 -0.1)">
       <use xlink:href="#DejaVuSans-35"/>
       <use xlink:href="#DejaVuSans-32" x="63.623047"/>
       <use xlink:href="#DejaVuSans-2e" x="127.246094"/>
       <use xlink:href="#DejaVuSans-34" x="159.033203"/>
       <use xlink:href="#DejaVuSans-34" x="222.65625"/>
      </g>
     </g>
    </g>
    <g id="ytick_5">
     <g id="line2d_14">
      <g>
       <use xlink:href="#m638118b77b" x="125.572379" y="250.471893" style="stroke: #000000; stroke-width: 0.8"/>
      </g>
     </g>
     <g id="text_14">
      <!-- 52.45 -->
      <g transform="translate(89.944254 254.271112) scale(0.1 -0.1)">
       <use xlink:href="#DejaVuSans-35"/>
       <use xlink:href="#DejaVuSans-32" x="63.623047"/>
       <use xlink:href="#DejaVuSans-2e" x="127.246094"/>
       <use xlink:href="#DejaVuSans-34" x="159.033203"/>
       <use xlink:href="#DejaVuSans-35" x="222.65625"/>
      </g>
     </g>
    </g>
    <g id="ytick_6">
     <g id="line2d_15">
      <g>
       <use xlink:href="#m638118b77b" x="125.572379" y="158.767932" style="stroke: #000000; stroke-width: 0.8"/>
      </g>
     </g>
     <g id="text_15">
      <!-- 52.46 -->
      <g transform="translate(89.944254 162.567151) scale(0.1 -0.1)">
       <use xlink:href="#DejaVuSans-35"/>
       <use xlink:href="#DejaVuSans-32" x="63.623047"/>
       <use xlink:href="#DejaVuSans-2e" x="127.246094"/>
       <use xlink:href="#DejaVuSans-34" x="159.033203"/>
       <use xlink:href="#DejaVuSans-36" x="222.65625"/>
      </g>
     </g>
    </g>
   </g>
   <g id="LineCollection_1">
    <path d="M 430.331397 260.262208 
L 429.16494 260.327318 
L 427.649161 260.39793 
L 427.470308 260.395179 
L 427.261274 260.371335 
L 427.060623 260.328235 
L 425.544285 259.893558 
L 424.860172 259.721154 
L 424.333674 259.610193 
L 423.737311 259.504733 
L 423.038667 259.410278 
L 422.285248 259.3415 
L 421.629081 259.305735 
L 420.791267 259.280058 
L 420.023876 259.319491 
L 419.485081 259.392854 
L 419.01168 259.490977 
L 418.292355 259.699145 
L 417.646249 259.955 
L 416.977227 260.280549 
L 416.20257 260.771165 
L 415.549198 261.323223 
L 415.136159 261.745978 
L 414.798574 262.147641 
L 414.48614 262.576816 
L 414.209477 263.018829 
L 413.998766 263.407654 
L 413.853448 263.713945 
L 413.642737 264.232989 
L 413.434261 264.904262 
L 413.310182 265.469159 
L 413.247584 265.881827 
L 413.197281 266.48157 
L 413.192251 266.993279 
L 413.217961 267.465554 
L 413.288943 268.033201 
L 413.433143 268.714562 
L 413.62038 269.327144 
L 413.843946 269.890207 
L 414.140731 270.484448 
L 414.578361 271.180481 
L 415.028847 271.756382 
L 415.489953 272.244247 
L 415.98627 272.684426 
L 416.302057 272.913686 
L 416.644672 273.161287 
L 416.923571 273.310764 
L 417.145461 273.42998 
L 417.526082 273.609719 
L 418.29012 273.902255 
L 418.932314 274.088414 
L 419.505761 274.194791 
L 420.505661 274.257149 
L 421.278641 274.239725 
L 422.048268 274.188371 
L 422.367409 274.15169 
L 422.827955 274.099418 
L 423.110767 274.047147 
L 423.68645 273.940771 
L 424.473403 273.772035 
L 425.298362 273.548278 
L 425.913169 273.34928 
L 426.97455 272.936612 
L 428.252231 272.379052 
L 428.87654 272.088351 
L 429.352177 271.850837 
L 429.63387 271.707779 
L 429.865261 271.631665 
L 430.066471 271.591315 
L 430.548815 271.573891 
" clip-path="url(#p6b0e551b2b)" style="fill: none; stroke: #ff0000; stroke-opacity: 0.7; stroke-width: 0.5"/>
   </g>
   <g id="patch_3">
    <path d="M 125.572379 640.8 
L 125.572379 86.4 
" style="fill: none; stroke: #000000; stroke-width: 0.8; stroke-linejoin: miter; stroke-linecap: square"/>
   </g>
   <g id="patch_4">
    <path d="M 612.427621 640.8 
L 612.427621 86.4 
" style="fill: none; stroke: #000000; stroke-width: 0.8; stroke-linejoin: miter; stroke-linecap: square"/>
   </g>
   <g id="patch_5">
    <path d="M 125.572379 640.8 
L 612.427621 640.8 
" style="fill: none; stroke: #000000; stroke-width: 0.8; stroke-linejoin: miter; stroke-linecap: square"/>
   </g>
   <g id="patch_6">
    <path d="M 125.572379 86.4 
L 612.427621 86.4 
" style="fill: none; stroke: #000000; stroke-width: 0.8; stroke-linejoin: miter; stroke-linecap: square"/>
   </g>
   <g id="text_16">
    <!-- Britz_Buckow -->
    <g transform="translate(300.855012 371.497066) scale(0.12 -0.12)">
     <defs>
      <path id="DejaVuSans-42" d="M 1259 2228 
L 1259 519 
L 2272 519 
Q 2781 519 3026 730 
Q 3272 941 3272 1375 
Q 3272 1813 3026 2020 
Q 2781 2228 2272 2228 
L 1259 2228 
z
M 1259 4147 
L 1259 2741 
L 2194 2741 
Q 2656 2741 2882 2914 
Q 3109 3088 3109 3444 
Q 3109 3797 2882 3972 
Q 2656 4147 2194 4147 
L 1259 4147 
z
M 628 4666 
L 2241 4666 
Q 2963 4666 3353 4366 
Q 3744 4066 3744 3513 
Q 3744 3084 3544 2831 
Q 3344 2578 2956 2516 
Q 3422 2416 3680 2098 
Q 3938 1781 3938 1306 
Q 3938 681 3513 340 
Q 3088 0 2303 0 
L 628 0 
L 628 4666 
z
" transform="scale(0.015625)"/>
      <path id="DejaVuSans-72" d="M 2631 2963 
Q 2534 3019 2420 3045 
Q 2306 3072 2169 3072 
Q 1681 3072 1420 2755 
Q 1159 2438 1159 1844 
L 1159 0 
L 581 0 
L 581 3500 
L 1159 3500 
L 1159 2956 
Q 1341 3275 1631 3429 
Q 1922 3584 2338 3584 
Q 2397 3584 2469 3576 
Q 2541 3569 2628 3553 
L 2631 2963 
z
" transform="scale(0.015625)"/>
      <path id="DejaVuSans-69" d="M 603 3500 
L 1178 3500 
L 1178 0 
L 603 0 
L 603 3500 
z
M 603 4863 
L 1178 4863 
L 1178 4134 
L 603 4134 
L 603 4863 
z
" transform="scale(0.015625)"/>
      <path id="DejaVuSans-74" d="M 1172 4494 
L 1172 3500 
L 2356 3500 
L 2356 3053 
L 1172 3053 
L 1172 1153 
Q 1172 725 1289 603 
Q 1406 481 1766 481 
L 2356 481 
L 2356 0 
L 1766 0 
Q 1100 0 847 248 
Q 594 497 594 1153 
L 594 3053 
L 172 3053 
L 172 3500 
L 594 3500 
L 594 4494 
L 1172 4494 
z
" transform="scale(0.015625)"/>
      <path id="DejaVuSans-7a" d="M 353 3500 
L 3084 3500 
L 3084 2975 
L 922 459 
L 3084 459 
L 3084 0 
L 275 0 
L 275 525 
L 2438 3041 
L 353 3041 
L 353 3500 
z
" transform="scale(0.015625)"/>
      <path id="DejaVuSans-5f" d="M 3263 -1063 
L 3263 -1509 
L -63 -1509 
L -63 -1063 
L 3263 -1063 
z
" transform="scale(0.015625)"/>
      <path id="DejaVuSans-75" d="M 544 1381 
L 544 3500 
L 1119 3500 
L 1119 1403 
Q 1119 906 1312 657 
Q 1506 409 1894 409 
Q 2359 409 2629 706 
Q 2900 1003 2900 1516 
L 2900 3500 
L 3475 3500 
L 3475 0 
L 2900 0 
L 2900 538 
Q 2691 219 2414 64 
Q 2138 -91 1772 -91 
Q 1169 -91 856 284 
Q 544 659 544 1381 
z
M 1991 3584 
L 1991 3584 
z
" transform="scale(0.015625)"/>
      <path id="DejaVuSans-63" d="M 3122 3366 
L 3122 2828 
Q 2878 2963 2633 3030 
Q 2388 3097 2138 3097 
Q 1578 3097 1268 2742 
Q 959 2388 959 1747 
Q 959 1106 1268 751 
Q 1578 397 2138 397 
Q 2388 397 2633 464 
Q 2878 531 3122 666 
L 3122 134 
Q 2881 22 2623 -34 
Q 2366 -91 2075 -91 
Q 1284 -91 818 406 
Q 353 903 353 1747 
Q 353 2603 823 3093 
Q 1294 3584 2113 3584 
Q 2378 3584 2631 3529 
Q 2884 3475 3122 3366 
z
" transform="scale(0.015625)"/>
      <path id="DejaVuSans-6b" d="M 581 4863 
L 1159 4863 
L 1159 1991 
L 2875 3500 
L 3609 3500 
L 1753 1863 
L 3688 0 
L 2938 0 
L 1159 1709 
L 1159 0 
L 581 0 
L 581 4863 
z
" transform="scale(0.015625)"/>
      <path id="DejaVuSans-6f" d="M 1959 3097 
Q 1497 3097 1228 2736 
Q 959 2375 959 1747 
Q 959 1119 1226 758 
Q 1494 397 1959 397 
Q 2419 397 2687 759 
Q 2956 1122 2956 1747 
Q 2956 2369 2687 2733 
Q 2419 3097 1959 3097 
z
M 1959 3584 
Q 2709 3584 3137 3096 
Q 3566 2609 3566 1747 
Q 3566 888 3137 398 
Q 2709 -91 1959 -91 
Q 1206 -91 779 398 
Q 353 888 353 1747 
Q 353 2609 779 3096 
Q 1206 3584 1959 3584 
z
" transform="scale(0.015625)"/>
      <path id="DejaVuSans-77" d="M 269 3500 
L 844 3500 
L 1563 769 
L 2278 3500 
L 2956 3500 
L 3675 769 
L 4391 3500 
L 4966 3500 
L 4050 0 
L 3372 0 
L 2619 2869 
L 1863 0 
L 1184 0 
L 269 3500 
z
" transform="scale(0.015625)"/>
     </defs>
     <use xlink:href="#DejaVuSans-42"/>
     <use xlink:href="#DejaVuSans-72" x="68.603516"/>
     <use xlink:href="#DejaVuSans-69" x="109.716797"/>
     <use xlink:href="#DejaVuSans-74" x="137.5"/>
     <use xlink:href="#DejaVuSans-7a" x="176.708984"/>
     <use xlink:href="#DejaVuSans-5f" x="229.199219"/>
     <use xlink:href="#DejaVuSans-42" x="279.199219"/>
     <use xlink:href="#DejaVuSans-75" x="347.802734"/>
     <use xlink:href="#DejaVuSans-63" x="411.181641"/>
     <use xlink:href="#DejaVuSans-6b" x="466.162109"/>
     <use xlink:href="#DejaVuSans-6f" x="520.447266"/>
     <use xlink:href="#DejaVuSans-77" x="581.628906"/>
    </g>
   </g>
  </g>
 </g>
 <defs>
  <clipPath id="p6b0e551b2b">
   <rect x="125.572379" y="86.4" width="486.855242" height="554.4"/>
  </clipPath>
 </defs>
</svg>
