<?xml version="1.0" encoding="utf-8" standalone="no"?>
<!DOCTYPE svg PUBLIC "-//W3C//DTD SVG 1.1//EN"
  "http://www.w3.org/Graphics/SVG/1.1/DTD/svg11.dtd">
<svg xmlns:xlink="http://www.w3.org/1999/xlink" width="720pt" height="720pt" viewBox="0 0 720 720" xmlns="http://www.w3.org/2000/svg" version="1.1">
 <metadata>
  <rdf:RDF xmlns:dc="http://purl.org/dc/elements/1.1/" xmlns:cc="http://creativecommons.org/ns#" xmlns:rdf="http://www.w3.org/1999/02/22-rdf-syntax-ns#">
   <cc:Work>
    <dc:type rdf:resource="http://purl.org/dc/dcmitype/StillImage"/>
    <dc:date>2024-10-17T11:36:12.124435</dc:date>
    <dc:format>image/svg+xml</dc:format>
    <dc:creator>
     <cc:Agent>
      <dc:title>Matplotlib v3.9.2, https://matplotlib.org/</dc:title>
     </cc:Agent>
    </dc:creator>
   </cc:Work>
  </rdf:RDF>
 </metadata>
 <defs>
  <style type="text/css">*{stroke-linejoin: round; stroke-linecap: butt}</style>
 </defs>
 <g id="figure_1">
  <g id="patch_1">
   <path d="M 0 720 
L 720 720 
L 720 0 
L 0 0 
z
" style="fill: #ffffff"/>
  </g>
  <g id="axes_1">
   <g id="patch_2">
    <path d="M 126.491101 640.8 
L 611.508899 640.8 
L 611.508899 86.4 
L 126.491101 86.4 
z
" style="fill: #ffffff"/>
   </g>
   <g id="PatchCollection_1">
    <path d="M 566.588988 443.978409 
L 566.645759 443.767992 
L 566.655802 443.730653 
L 566.720572 443.51821 
L 566.774626 443.322483 
L 566.868514 443.033071 
L 567.361944 441.418993 
L 567.751579 440.132206 
L 567.866292 439.758814 
L 568.14883 438.842925 
L 568.540824 437.55196 
L 568.931875 436.267734 
L 569.327576 434.974207 
L 569.351637 434.89535 
L 569.717279 433.694295 
L 570.115608 432.396927 
L 570.508074 431.107916 
L 570.901484 429.818905 
L 571.293613 428.529759 
L 571.686483 427.241489 
L 572.079286 425.953894 
L 572.471954 424.664007 
L 572.842987 423.464906 
L 572.865768 423.375265 
L 572.940783 423.14139 
L 573.014923 422.920927 
L 573.299482 422.093061 
L 573.733803 420.815845 
L 573.966128 420.135382 
L 574.657914 418.109563 
L 574.669305 418.079772 
L 574.79952 417.694855 
L 574.941059 417.280417 
L 575.935333 414.364927 
L 576.12149 413.823306 
L 576.320048 413.074972 
L 576.463945 412.521422 
L 576.660953 411.769246 
L 576.973282 410.56873 
L 577.001387 410.464059 
L 577.007857 410.435414 
L 577.339934 409.165275 
L 577.682389 407.855438 
L 578.022621 406.554025 
L 578.3642 405.247356 
L 578.447236 404.929838 
L 578.651321 403.923432 
L 578.919301 402.602002 
L 579.188089 401.276595 
L 579.343579 400.509861 
L 579.538835 399.980036 
L 579.707737 399.521653 
L 580.008068 398.706661 
L 580.295863 397.92328 
L 580.401276 397.636361 
L 580.474134 397.438342 
L 580.941548 396.170292 
L 581.011778 395.980361 
L 581.406468 394.907904 
L 582.540394 391.832677 
L 582.605906 391.530931 
L 582.649378 391.341943 
L 582.661279 391.290081 
L 582.762811 390.847637 
L 583.33402 388.378397 
L 583.630712 387.06492 
L 583.939805 385.754139 
L 584.243978 384.432912 
L 584.546466 383.119098 
L 584.849493 381.805621 
L 585.156968 380.492616 
L 585.460197 379.177454 
L 585.729862 377.993046 
L 586.151242 376.148733 
L 586.502864 372.698227 
L 586.555772 372.151552 
L 586.608748 371.601169 
L 586.816742 369.519543 
L 586.883063 368.85721 
L 586.983623 368.146485 
L 587.171734 366.810699 
L 587.360183 365.476193 
L 587.392939 365.245553 
L 587.522548 364.13852 
L 587.679453 362.799836 
L 587.699605 362.649333 
L 587.888863 361.053319 
L 588.044353 359.742268 
L 588.104136 359.314148 
L 588.220332 358.451707 
L 588.312737 357.572281 
L 588.496467 355.841872 
L 588.677097 354.104926 
L 588.855638 352.42965 
L 588.944605 351.617017 
L 588.98983 351.093527 
L 589.002838 350.82339 
L 589.018891 350.490275 
L 589.032089 350.216393 
L 589.049343 349.858907 
L 589.112227 348.9935 
L 589.462636 344.168791 
L 586.752983 344.402127 
L 584.087611 344.746335 
L 583.88939 344.772284 
L 583.28219 344.803557 
L 577.44238 345.104899 
L 577.122975 344.337896 
L 576.806671 343.571431 
L 576.741361 343.415335 
L 576.725859 343.377995 
L 575.483421 340.402655 
L 575.456326 340.235033 
L 575.294231 339.227818 
L 575.274887 339.111487 
L 575.241727 338.904639 
L 575.218272 338.757978 
L 575.161791 338.397661 
L 575.114005 338.11236 
L 574.28304 334.942573 
L 574.123169 334.418678 
L 574.071204 334.248293 
L 574.011488 334.052565 
L 574.01041 334.048926 
L 573.937203 333.794194 
L 573.935934 333.789775 
L 572.667884 329.614121 
L 572.630881 329.488961 
L 569.029536 330.366567 
L 566.170257 331.17219 
L 562.98025 332.163431 
L 561.367116 332.769418 
L 560.15494 333.223419 
L 557.698911 334.042051 
L 556.980906 334.279431 
L 555.895306 334.644735 
L 554.808493 335.00923 
L 554.58311 335.076832 
L 553.903119 335.306798 
L 553.737923 335.388891 
L 552.697009 335.882321 
L 551.656027 336.375751 
L 551.073563 336.653705 
L 550.674491 336.843839 
L 549.944153 337.190743 
L 549.71048 337.303367 
L 549.209973 337.54223 
L 548.472894 337.885494 
L 547.743095 338.237049 
L 546.765199 338.703452 
L 545.851602 339.139255 
L 545.125308 339.48434 
L 543.713158 340.155636 
L 543.035998 340.478142 
L 541.369686 339.107713 
L 539.026213 337.180296 
L 536.579754 334.943381 
L 534.545847 333.083633 
L 532.834444 331.51869 
L 532.665744 331.364345 
L 532.636291 331.337521 
L 532.321334 331.049591 
L 532.306371 331.035909 
L 532.1128 330.867411 
L 531.692296 330.504061 
L 531.346269 330.174614 
L 530.765826 329.649708 
L 530.551496 329.455868 
L 530.440557 329.355578 
L 530.382796 329.303343 
L 530.333527 329.258792 
L 530.164894 329.106335 
L 527.515833 326.700181 
L 525.88194 325.228249 
L 523.189609 322.802684 
L 522.715388 322.370183 
L 521.972648 321.684597 
L 521.081427 320.861922 
L 520.190207 320.039246 
L 519.883945 319.771806 
L 518.210016 318.206795 
L 518.142819 318.143979 
L 518.045967 318.06775 
L 517.8174 317.887894 
L 517.639886 317.74821 
L 517.554693 317.681148 
L 517.488844 317.622309 
L 516.006465 316.297037 
L 511.479593 312.48608 
L 508.661562 310.113761 
L 506.726799 308.496178 
L 499.587329 305.294578 
L 497.635379 303.832553 
L 497.202743 303.565652 
L 493.589064 301.274414 
L 487.473254 297.226683 
L 487.248478 297.077866 
L 485.572932 295.946704 
L 485.3952 295.826733 
L 484.332718 295.109403 
L 482.696533 294.004796 
L 476.580387 289.875647 
L 473.871071 288.046566 
L 464.692571 281.849945 
L 463.310684 280.917072 
L 460.235592 278.840972 
L 456.134751 276.072412 
L 448.262449 270.845734 
L 444.952269 268.648046 
L 444.727695 268.498959 
L 443.885406 267.939747 
L 438.771891 260.401408 
L 438.631903 260.195032 
L 438.59517 260.140843 
L 438.232966 259.606973 
L 437.796219 258.963041 
L 436.226625 256.649156 
L 433.030821 251.937947 
L 432.853426 251.676438 
L 432.645769 251.370311 
L 432.470059 251.111363 
L 432.086278 250.545588 
L 432.072808 250.525731 
L 431.978247 250.386281 
L 431.933898 250.320904 
L 426.830426 242.797461 
L 426.576128 242.422519 
L 419.996477 232.722888 
L 420.336439 230.891717 
L 420.428439 230.39613 
L 420.524011 229.88147 
L 421.292834 225.740189 
L 422.362932 219.976338 
L 422.45473 219.482032 
L 423.284078 215.015011 
L 424.311513 209.480857 
L 424.392122 209.046536 
L 424.948638 206.049021 
L 425.567498 202.715655 
L 427.970821 189.770615 
L 428.004656 189.588435 
L 428.239744 188.322272 
L 429.907202 179.340511 
L 429.953775 179.089651 
L 431.016392 173.366105 
L 431.987346 168.136191 
L 432.070112 167.69048 
L 433.189412 161.661548 
L 433.33614 160.871224 
L 435.754021 147.847866 
L 426.30242 153.100897 
L 420.965543 156.134943 
L 419.892884 156.525926 
L 419.299973 156.742075 
L 414.389801 158.531795 
L 413.117236 159.137378 
L 400.713344 165.040408 
L 396.643372 167.102219 
L 387.64166 170.148733 
L 382.976216 174.235892 
L 377.827046 178.317592 
L 377.701212 178.417343 
L 377.253276 177.823421 
L 377.189651 177.739037 
L 377.100213 177.620481 
L 376.936432 177.318398 
L 376.525432 175.980253 
L 376.620397 174.571204 
L 376.50164 173.615078 
L 376.522466 172.936906 
L 376.635966 172.506292 
L 376.874695 171.926456 
L 377.148673 171.501639 
L 377.238718 171.268572 
L 377.167949 170.997357 
L 376.926659 170.491661 
L 376.021959 169.222196 
L 375.492605 168.212959 
L 374.733555 167.533642 
L 373.655975 167.120956 
L 372.803914 167.097434 
L 372.257508 166.931227 
L 372.038393 165.73981 
L 373.028623 163.011218 
L 375.756676 156.079743 
L 378.872139 148.441788 
L 378.954838 148.217753 
L 379.682279 146.246998 
L 380.549774 144.256428 
L 380.70176 143.907704 
L 380.749883 143.797237 
L 380.791873 143.700856 
L 380.832851 143.606767 
L 381.351691 142.416226 
L 383.442416 139.208358 
L 385.09235 137.149849 
L 389.693361 129.741524 
L 397.292494 117.505659 
L 398.39272 116.524595 
L 397.937977 115.792504 
L 395.777022 111.6 
L 385.431503 123.432818 
L 382.508532 120.460577 
L 381.000002 118.927581 
L 379.174897 116.724501 
L 377.621209 114.850465 
L 377.493555 114.963156 
L 376.527184 116.191508 
L 371.190443 122.97484 
L 368.417502 126.499484 
L 360.387418 137.263956 
L 359.59979 138.319833 
L 355.086938 144.369389 
L 354.961305 144.312774 
L 354.474548 144.093389 
L 354.221127 143.979215 
L 351.4771 147.693926 
L 342.55984 159.765876 
L 342.29523 160.124036 
L 332.854278 172.904892 
L 332.651204 173.179813 
L 331.917496 172.808848 
L 323.106187 168.353419 
L 319.287749 166.422632 
L 319.153624 166.354828 
L 318.669428 166.109967 
L 309.780678 161.615447 
L 305.28454 159.342002 
L 304.035699 158.710471 
L 303.898204 158.640982 
L 286.043599 181.039983 
L 284.933466 182.432722 
L 284.668587 182.59603 
L 283.593703 183.258835 
L 280.252991 186.772089 
L 267.615898 200.061742 
L 267.103057 200.601138 
L 266.883133 200.832385 
L 266.488038 201.255181 
L 263.685914 204.253707 
L 263.278148 204.690117 
L 262.923089 205.070047 
L 272.279051 209.29133 
L 277.191918 211.507957 
L 281.543619 215.179263 
L 287.086603 220.062138 
L 289.738427 222.384447 
L 289.865744 222.495992 
L 293.060402 225.293669 
L 293.721319 225.872494 
L 295.520071 227.498905 
L 297.405094 229.203298 
L 298.792508 230.429965 
L 299.196027 230.786776 
L 302.558914 233.760095 
L 303.844555 234.88755 
L 306.51761 237.231697 
L 307.530149 238.119682 
L 308.527186 238.994053 
L 309.563045 239.90246 
L 310.627482 240.83594 
L 311.691312 241.768881 
L 314.96294 244.638 
L 315.940364 244.805015 
L 316.4435 244.891017 
L 324.629545 246.289889 
L 354.929493 251.467905 
L 355.307535 251.532473 
L 357.434858 251.896025 
L 365.537598 253.280676 
L 365.563008 253.79992 
L 365.569007 253.922317 
L 365.595764 254.466768 
L 366.258434 254.85883 
L 368.23822 257.736711 
L 368.831536 259.192805 
L 368.859641 259.673698 
L 368.617408 260.375729 
L 368.43024 262.094545 
L 367.671257 265.863445 
L 367.767773 266.218774 
L 367.843732 266.522947 
L 367.74607 267.086337 
L 367.6813 267.531577 
L 367.593748 267.532116 
L 367.577033 268.118557 
L 367.976711 268.453127 
L 367.813335 269.312603 
L 367.761168 269.586783 
L 367.695184 269.816345 
L 366.948872 271.405417 
L 365.582689 272.909162 
L 365.093707 273.189408 
L 364.023137 273.512655 
L 362.582275 274.490147 
L 361.400901 274.976904 
L 361.176124 275.130777 
L 360.980532 275.425514 
L 360.028652 276.055765 
L 358.94932 276.541309 
L 358.848491 276.805312 
L 358.38229 277.285262 
L 357.997845 277.883565 
L 357.162026 278.506537 
L 356.922894 278.760834 
L 356.417332 279.298478 
L 356.105071 279.630487 
L 355.767064 280.102888 
L 355.536019 280.425798 
L 354.931987 280.982516 
L 354.722779 281.175346 
L 354.19693 281.737118 
L 353.875638 282.080316 
L 353.311708 282.523533 
L 352.525024 283.141854 
L 351.48694 283.957857 
L 351.120356 284.245989 
L 350.695201 284.892617 
L 350.085575 285.819627 
L 349.53836 286.613793 
L 348.628807 287.933672 
L 348.283116 288.162021 
L 347.165502 288.590546 
L 345.409077 289.347844 
L 344.253449 289.252878 
L 343.949141 289.127785 
L 343.115345 288.784993 
L 342.652379 288.873083 
L 342.183482 289.178267 
L 341.851676 289.491067 
L 341.050703 289.307876 
L 340.264019 289.449145 
L 339.65574 289.679583 
L 338.06377 289.761069 
L 337.5851 289.671428 
L 336.581727 289.158654 
L 335.411608 289.223829 
L 334.766328 289.501514 
L 334.110937 290.212981 
L 333.127245 290.511829 
L 332.535075 290.933816 
L 332.217422 291.160143 
L 329.173739 292.727513 
L 329.126829 292.775164 
L 328.208177 293.708037 
L 327.188224 294.579577 
L 325.926442 295.883618 
L 324.580209 296.231938 
L 324.243145 296.457253 
L 323.788537 297.048278 
L 323.577308 297.188468 
L 323.336019 297.225807 
L 323.1442 297.220415 
L 322.879725 297.243668 
L 322.471623 297.438991 
L 322.394653 297.543325 
L 322.392159 297.733459 
L 322.438867 298.08899 
L 322.349091 298.211993 
L 322.064127 298.073218 
L 321.830791 298.013705 
L 321.662562 298.029881 
L 321.458881 298.06567 
L 321.254257 298.11359 
L 320.591049 298.481119 
L 320.102134 299.010203 
L 319.32037 299.648744 
L 316.816892 301.797567 
L 315.426445 304.017362 
L 315.356687 304.207158 
L 315.036742 305.077283 
L 314.359043 307.005845 
L 313.726433 308.213977 
L 313.508329 308.546256 
L 313.400018 308.711317 
L 312.784326 309.444351 
L 312.377302 309.75587 
L 311.014421 309.927604 
L 309.800493 310.236225 
L 308.59007 310.54397 
L 306.289665 311.496659 
L 304.533982 312.390912 
L 302.949964 313.579027 
L 302.331711 314.270476 
L 301.967081 314.654045 
L 301.365003 315.287396 
L 301.182149 315.252753 
L 295.240634 314.127522 
L 295.028663 314.087352 
L 286.472798 312.467006 
L 285.640551 312.723595 
L 275.29564 311.195991 
L 270.193178 310.440714 
L 266.593451 309.907519 
L 266.672982 307.820837 
L 266.810611 302.620377 
L 266.589744 302.549878 
L 266.296961 302.456462 
L 264.931722 302.935738 
L 264.549164 302.048562 
L 264.145914 301.929737 
L 263.51472 301.743782 
L 263.122119 301.616533 
L 262.685641 301.475062 
L 261.732279 301.166103 
L 260.292832 300.975903 
L 258.755994 300.772829 
L 257.219156 300.569755 
L 257.059353 300.548659 
L 255.802626 300.382587 
L 254.2823 300.18167 
L 252.879115 299.996254 
L 251.542722 299.819668 
L 250.052996 299.672738 
L 248.697867 299.539018 
L 248.51326 299.524392 
L 247.673735 299.458004 
L 246.895476 299.44021 
L 245.861234 299.519337 
L 245.316445 299.674221 
L 243.949319 300.071876 
L 242.517489 300.404155 
L 241.635771 300.752407 
L 241.059305 301.208902 
L 239.469289 301.693503 
L 238.673169 301.999832 
L 236.173735 302.784697 
L 235.202242 303.011293 
L 234.026866 303.188553 
L 232.571513 303.1039 
L 231.165026 303.020796 
L 229.821286 302.942748 
L 228.553169 302.869215 
L 226.919748 302.773778 
L 226.721055 302.762792 
L 226.185702 304.162405 
L 224.796671 304.052612 
L 224.206523 305.807958 
L 221.483121 306.137878 
L 218.887979 306.452295 
L 219.125225 304.158226 
L 218.656126 303.742845 
L 217.898288 303.932506 
L 215.857641 304.443325 
L 215.331724 304.574956 
L 215.286836 304.841857 
L 214.92962 306.834786 
L 209.98312 334.430136 
L 208.254801 334.476574 
L 206.722344 334.756079 
L 205.544339 335.192152 
L 204.224931 335.511153 
L 202.626019 335.897755 
L 201.707501 336.119836 
L 200.801318 336.338951 
L 199.71592 336.630452 
L 197.713758 337.156167 
L 196.759923 337.348794 
L 195.907592 337.481705 
L 195.719009 337.511496 
L 194.849087 337.698326 
L 194.211287 337.834406 
L 194.108369 337.85631 
L 194.052764 337.868173 
L 193.603548 337.974798 
L 192.789567 338.176052 
L 191.239451 338.559285 
L 189.733887 339.24642 
L 189.641954 339.28841 
L 189.345532 339.437228 
L 189.213901 339.503346 
L 187.213019 340.102526 
L 185.581822 340.556527 
L 184.27495 340.975077 
L 183.558226 341.204639 
L 183.461508 341.235777 
L 182.953183 342.765269 
L 182.797356 343.267932 
L 182.535106 344.657099 
L 182.389793 346.061362 
L 182.333177 346.649556 
L 182.243671 347.579059 
L 182.173576 348.237213 
L 182.081239 349.104574 
L 181.516905 352.168815 
L 181.235041 353.596803 
L 181.059196 354.616689 
L 181.002042 354.948832 
L 180.982766 355.063815 
L 180.696319 357.370016 
L 180.819929 357.38572 
L 180.18004 362.226875 
L 180.582751 365.426318 
L 180.796407 367.121949 
L 181.093705 369.480721 
L 181.14021 369.849395 
L 181.222235 370.50027 
L 182.176609 378.086866 
L 182.286267 378.875438 
L 182.398015 379.68497 
L 182.751727 382.246547 
L 182.852185 383.028353 
L 182.852691 383.032287 
L 182.855859 383.057023 
L 183.3749 387.10536 
L 183.579592 388.705149 
L 176.469037 392.870693 
L 170.671015 392.492651 
L 169.918637 392.443517 
L 169.889385 392.44163 
L 164.872251 392.11326 
L 159.06877 391.737846 
L 153.268658 391.361085 
L 151.46256 393.054693 
L 151.296017 393.210723 
L 151.065039 393.427142 
L 151.020488 393.468997 
L 150.04266 394.385222 
L 149.829611 394.584792 
L 149.079457 395.287833 
L 149.010979 395.351997 
L 148.594384 395.742307 
L 148.537364 395.795754 
L 148.753244 397.97666 
L 148.967776 405.073263 
L 149.044948 414.073762 
L 149.112685 418.90447 
L 149.142408 421.021144 
L 149.133915 421.184789 
L 149.032614 423.211418 
L 149.14079 428.040171 
L 149.204887 430.934565 
L 149.182173 436.972596 
L 149.177658 438.272525 
L 150.255641 439.632103 
L 150.374264 443.203591 
L 150.344608 443.204534 
L 149.430337 443.226035 
L 149.487964 444.437267 
L 149.670683 449.751767 
L 150.02554 456.533953 
L 150.351214 459.402466 
L 150.443685 460.21766 
L 151.824022 467.376203 
L 152.097259 468.79334 
L 152.97446 473.085461 
L 153.682422 477.137168 
L 154.806912 477.295421 
L 155.057233 477.24622 
L 156.138047 480.438384 
L 156.669086 481.698143 
L 157.545614 483.777546 
L 159.005819 486.868409 
L 159.900814 489.660019 
L 161.352796 492.226448 
L 161.394449 492.290208 
L 161.698554 492.756072 
L 162.584787 494.113628 
L 163.314384 495.23131 
L 164.102754 496.438835 
L 164.236002 496.643055 
L 166.189637 499.548503 
L 167.873136 501.565358 
L 172.191272 506.646185 
L 173.652219 508.228046 
L 175.455823 510.181142 
L 179.81049 514.864312 
L 184.848788 519.966033 
L 190.468134 526.011073 
L 190.602933 526.166428 
L 195.093274 530.897318 
L 195.860884 531.708805 
L 196.058836 531.91808 
L 196.186625 532.05335 
L 198.652899 534.660556 
L 199.389236 535.439152 
L 200.132246 536.224623 
L 200.639358 536.760784 
L 201.112029 537.265066 
L 202.255188 538.484858 
L 203.131648 539.420023 
L 203.611328 539.931785 
L 204.838467 541.241083 
L 205.241852 541.671495 
L 205.594013 542.066185 
L 208.217394 544.884957 
L 208.605479 545.301822 
L 209.114681 545.848632 
L 209.362373 546.114118 
L 209.750526 546.505034 
L 210.593623 547.354062 
L 211.679493 548.525664 
L 212.493474 549.403944 
L 213.886145 550.907082 
L 218.274444 555.525549 
L 219.891959 557.290804 
L 220.107165 557.525623 
L 223.324401 561.036788 
L 223.901137 561.62242 
L 224.103974 561.853407 
L 224.394567 562.184328 
L 224.915024 562.81141 
L 226.966792 565.220665 
L 227.779425 566.179958 
L 228.255197 566.714098 
L 231.400923 570.821409 
L 231.675979 571.222232 
L 234.111924 574.772624 
L 236.353286 578.513216 
L 238.740568 583.127504 
L 240.658347 587.514321 
L 241.275859 589.107976 
L 241.474013 589.619402 
L 241.528876 589.760873 
L 241.566148 589.856984 
L 241.940551 590.88725 
L 242.001345 591.054535 
L 242.25699 591.822549 
L 242.311382 591.98606 
L 242.430139 592.342332 
L 243.377166 595.196085 
L 243.670353 596.069377 
L 244.883944 601.696542 
L 245.584897 605.60233 
L 245.954717 609.052094 
L 245.982148 609.307807 
L 246.300407 614.374412 
L 246.341386 615.6 
L 246.760003 615.114388 
L 248.28754 614.549717 
L 249.317738 614.168979 
L 250.110758 613.67474 
L 250.232346 613.598781 
L 251.061492 612.823555 
L 251.673949 611.847344 
L 251.897933 611.344072 
L 252.321723 610.391856 
L 252.713852 609.123604 
L 252.946986 608.806558 
L 252.950019 608.622626 
L 252.955613 608.280776 
L 253.288094 607.216272 
L 253.364457 606.971748 
L 253.507276 606.514579 
L 253.740343 605.768469 
L 254.075317 604.695809 
L 254.201489 604.291886 
L 254.694649 602.713125 
L 254.606289 602.647411 
L 255.866655 598.571912 
L 256.274555 597.25028 
L 257.091165 594.604184 
L 257.13147 594.473565 
L 257.684818 592.881526 
L 258.171845 591.773415 
L 258.433219 591.178684 
L 258.48296 591.065655 
L 259.457553 589.255176 
L 259.655775 588.938804 
L 259.75256 588.784392 
L 259.813624 588.686933 
L 260.436056 587.693603 
L 260.53001 587.543572 
L 261.294992 586.488773 
L 261.591077 586.080469 
L 262.162488 585.415575 
L 262.175959 585.399899 
L 262.449137 585.082016 
L 262.478726 585.047507 
L 263.048721 584.384299 
L 263.172803 584.275988 
L 263.297627 584.167205 
L 263.311915 584.154804 
L 263.359297 584.10904 
L 264.152923 583.343249 
L 264.188443 583.246868 
L 264.672639 582.807223 
L 265.123338 582.398581 
L 267.086072 580.619173 
L 268.109732 579.691085 
L 268.281061 579.754306 
L 270.23254 577.78746 
L 270.429008 577.589441 
L 271.100035 576.95117 
L 272.357908 575.754698 
L 272.762101 575.370253 
L 273.459279 574.707112 
L 273.779898 574.40213 
L 274.188203 574.013775 
L 275.583502 572.633843 
L 276.903112 571.328791 
L 278.802222 569.450508 
L 279.781263 568.48225 
L 279.953806 568.311595 
L 281.238301 567.088231 
L 283.407681 565.022174 
L 283.707001 564.737142 
L 285.241278 563.276398 
L 286.160402 562.401353 
L 288.638606 560.042109 
L 289.617243 559.186678 
L 290.615494 558.365283 
L 291.643063 557.562018 
L 292.620959 556.853719 
L 294.179702 555.724647 
L 297.703672 553.212002 
L 298.178445 552.861496 
L 298.750181 552.439404 
L 301.332651 550.390601 
L 306.211145 546.857127 
L 306.270454 546.811313 
L 309.72413 544.143431 
L 313.941302 541.047513 
L 318.014038 538.063477 
L 319.424772 536.957455 
L 320.700505 535.792257 
L 321.858761 534.636292 
L 322.979746 533.456738 
L 325.501961 530.408066 
L 325.71555 530.149927 
L 325.955087 529.863952 
L 326.007254 529.801675 
L 329.547468 525.516902 
L 333.14551 521.169177 
L 336.749956 516.805411 
L 336.704529 516.74792 
L 336.954917 516.446106 
L 337.898439 515.31609 
L 338.864608 514.103307 
L 339.122477 513.799606 
L 339.958835 512.81497 
L 340.100778 512.536005 
L 340.61436 511.944441 
L 342.119723 510.136254 
L 343.042284 509.018706 
L 343.569751 508.379761 
L 343.910252 507.966267 
L 343.956488 507.910123 
L 344.575415 507.248667 
L 345.342082 506.496221 
L 345.546706 506.326106 
L 346.126811 505.801268 
L 347.020458 505.183081 
L 348.214099 504.435624 
L 352.446571 501.785484 
L 352.676066 501.640239 
L 358.053314 498.227814 
L 359.352031 497.441939 
L 360.665912 496.7699 
L 361.117083 496.645279 
L 361.593798 496.428254 
L 362.404274 495.929769 
L 366.984593 494.052227 
L 373.523199 491.303955 
L 379.999999 488.602862 
L 379.98389 488.544157 
L 381.265218 487.935744 
L 381.653033 487.7539 
L 381.77078 487.82258 
L 381.853479 487.870838 
L 384.181314 486.920778 
L 385.210232 486.599553 
L 386.296977 486.310208 
L 386.643073 486.25029 
L 387.388846 486.121153 
L 388.563547 486.001924 
L 389.450994 486.023963 
L 389.574537 486.027064 
L 392.315597 486.317083 
L 392.38603 486.211805 
L 392.950296 486.156268 
L 392.976717 486.15364 
L 394.21902 486.228992 
L 394.470891 486.273543 
L 395.685763 486.489423 
L 395.778707 486.490501 
L 397.562024 486.546847 
L 398.970871 486.564371 
L 399.18574 486.561001 
L 399.400541 486.552711 
L 399.615005 486.539568 
L 399.8292 486.521572 
L 400.042856 486.498656 
L 400.519706 486.417238 
L 400.792336 486.379629 
L 402.156564 486.057798 
L 402.48244 485.950431 
L 402.760125 485.85897 
L 402.989619 485.761982 
L 404.601338 485.080576 
L 405.373464 484.661285 
L 405.800708 484.408605 
L 405.851864 484.429431 
L 405.742408 484.77492 
L 406.079471 485.01931 
L 406.895744 485.611008 
L 412.754021 489.849411 
L 418.868146 494.55725 
L 419.98731 495.41895 
L 425.03747 498.808661 
L 429.830367 501.735272 
L 434.981895 504.323741 
L 442.216196 507.819606 
L 443.2623 508.001854 
L 443.339809 508.036834 
L 443.87719 508.290027 
L 444.363469 508.519143 
L 444.839645 508.743583 
L 445.333951 508.976515 
L 446.541679 509.816579 
L 447.850303 510.435102 
L 449.634092 511.278334 
L 451.456972 512.144348 
L 451.958019 512.374449 
L 452.088167 512.434232 
L 452.278637 512.521716 
L 453.182663 512.849816 
L 459.829916 515.261968 
L 459.982912 515.310159 
L 461.327865 515.816597 
L 462.38691 516.239527 
L 463.41886 516.651606 
L 464.465773 517.069616 
L 465.528726 517.494097 
L 467.42305 518.264538 
L 471.162766 519.785335 
L 472.737011 520.309971 
L 473.786687 520.659841 
L 475.24305 521.270815 
L 478.444785 522.613948 
L 483.195423 524.606944 
L 486.253934 525.889956 
L 486.740557 526.109139 
L 489.168211 527.202355 
L 493.406007 529.110765 
L 494.271549 529.500468 
L 495.276404 529.953054 
L 495.989354 530.274144 
L 496.323924 530.377265 
L 496.696979 530.495551 
L 498.520331 531.073567 
L 502.082315 532.783823 
L 504.517316 531.044989 
L 504.90567 530.776808 
L 505.480249 530.378613 
L 505.507411 529.942472 
L 505.534506 529.512061 
L 505.547177 529.310806 
L 505.580337 528.784148 
L 505.719584 526.567791 
L 505.829243 524.828755 
L 505.904865 523.61914 
L 505.984598 522.404943 
L 505.99518 522.238669 
L 506.059479 521.196676 
L 506.073969 520.880438 
L 506.131259 519.978569 
L 506.206207 518.765449 
L 506.28257 517.55415 
L 506.358866 516.340491 
L 506.439206 515.129596 
L 506.468794 514.568295 
L 506.501618 514.043928 
L 506.507347 513.915465 
L 506.580138 512.703627 
L 506.664454 511.35463 
L 506.751332 510.006982 
L 506.835851 508.65866 
L 506.903452 507.618284 
L 506.920302 507.312292 
L 507.00509 505.964643 
L 507.09035 504.617669 
L 507.175813 503.270627 
L 507.260466 501.922979 
L 507.3433 500.577353 
L 507.445949 498.945212 
L 507.451206 498.880643 
L 507.560191 497.118692 
L 507.578186 496.861766 
L 507.711974 494.705798 
L 507.76468 493.849086 
L 507.785035 493.551114 
L 507.860657 492.343993 
L 508.010283 489.916338 
L 508.186599 487.107811 
L 509.06124 486.535793 
L 509.626854 486.165771 
L 510.321808 485.713051 
L 511.046418 485.240312 
L 511.063537 485.228989 
L 512.28279 484.434554 
L 512.33307 484.400315 
L 513.558388 483.601297 
L 513.670878 483.527292 
L 514.463763 483.009666 
L 516.637457 481.589698 
L 516.947628 481.389724 
L 517.015162 481.346589 
L 517.189928 481.242996 
L 517.606793 480.995911 
L 517.657679 480.968075 
L 517.684639 480.952977 
L 517.905169 480.829771 
L 519.331473 480.036078 
L 520.169987 479.56954 
L 520.931531 479.143981 
L 522.294816 478.384661 
L 522.520604 478.266105 
L 524.079077 477.417212 
L 524.714181 477.071319 
L 525.459077 476.666047 
L 525.621038 476.577349 
L 526.80221 475.934091 
L 527.623537 475.486762 
L 528.573732 474.969338 
L 529.37329 474.569121 
L 530.556754 473.976816 
L 531.4657 473.521332 
L 531.761852 473.372918 
L 532.966884 472.769965 
L 533.761319 472.371365 
L 534.449937 472.091995 
L 535.6977 471.587444 
L 536.951192 471.084916 
L 538.203672 470.58825 
L 539.452244 470.063008 
L 540.59419 469.614264 
L 540.696771 469.572678 
L 541.94723 469.069812 
L 542.487502 468.851776 
L 543.197082 468.567216 
L 544.446799 468.06408 
L 544.884423 467.888303 
L 547.035605 467.021818 
L 548.162116 466.568221 
L 548.763453 466.326392 
L 549.281483 466.093191 
L 550.388247 465.595178 
L 551.495145 465.097097 
L 552.602515 464.599151 
L 553.70975 464.101408 
L 554.324701 463.824599 
L 554.816783 463.603125 
L 555.988789 463.078556 
L 556.789627 462.718173 
L 557.15419 462.547046 
L 558.314401 462.002258 
L 559.47414 461.457132 
L 560.634081 460.914501 
L 561.797797 460.371937 
L 562.570328 460.009598 
L 563.341645 459.647462 
L 563.502864 458.867989 
L 563.766462 457.584303 
L 564.038553 456.274129 
L 564.309296 454.957416 
L 564.57923 453.635717 
L 564.852399 452.319544 
L 565.133185 450.970143 
L 565.37562 449.766527 
L 565.626413 448.566416 
L 566.421387 444.694058 
L 566.501794 444.303008 
L 566.50321 444.296335 
L 566.588988 443.978409 
" clip-path="url(#p0d5a97f0ac)" style="fill: #d3d3d3"/>
    <path d="M 502.62493 533.02369 
L 503.604266 533.437308 
L 505.347772 532.545818 
L 505.418448 531.433063 
L 505.443364 531.029819 
L 505.063374 531.280716 
L 502.62493 533.02369 
" clip-path="url(#p0d5a97f0ac)" style="fill: #d3d3d3"/>
   </g>
   <g id="PatchCollection_2">
    <path d="M 452.649189 408.875251 
L 452.649189 408.807852 
L 452.58179 408.807852 
L 452.58179 408.875251 
L 452.649189 408.875251 
" clip-path="url(#p0d5a97f0ac)" style="fill: #ff0000; fill-opacity: 0.7; stroke: #000000; stroke-opacity: 0.7; stroke-width: 0.5"/>
    <path d="M 489.194745 474.48249 
L 489.194745 474.415091 
L 489.127345 474.415091 
L 489.127345 474.48249 
L 489.194745 474.48249 
" clip-path="url(#p0d5a97f0ac)" style="fill: #ff0000; fill-opacity: 0.7; stroke: #000000; stroke-opacity: 0.7; stroke-width: 0.5"/>
    <path d="M 449.835257 401.156117 
L 449.835257 401.088718 
L 449.767857 401.088718 
L 449.767857 401.156117 
L 449.835257 401.156117 
" clip-path="url(#p0d5a97f0ac)" style="fill: #ff0000; fill-opacity: 0.7; stroke: #000000; stroke-opacity: 0.7; stroke-width: 0.5"/>
    <path d="M 509.031838 445.744872 
L 509.031838 445.677472 
L 508.964439 445.677472 
L 508.964439 445.744872 
L 509.031838 445.744872 
" clip-path="url(#p0d5a97f0ac)" style="fill: #ff0000; fill-opacity: 0.7; stroke: #000000; stroke-opacity: 0.7; stroke-width: 0.5"/>
   </g>
   <g id="matplotlib.axis_1">
    <g id="xtick_1">
     <g id="line2d_1">
      <defs>
       <path id="m1b72ffec42" d="M 0 0 
L 0 3.5 
" style="stroke: #000000; stroke-width: 0.8"/>
      </defs>
      <g>
       <use xlink:href="#m1b72ffec42" x="180.25728" y="640.8" style="stroke: #000000; stroke-width: 0.8"/>
      </g>
     </g>
     <g id="text_1">
      <!-- 394000 -->
      <g transform="translate(161.16978 655.398438) scale(0.1 -0.1)">
       <defs>
        <path id="DejaVuSans-33" d="M 2597 2516 
Q 3050 2419 3304 2112 
Q 3559 1806 3559 1356 
Q 3559 666 3084 287 
Q 2609 -91 1734 -91 
Q 1441 -91 1130 -33 
Q 819 25 488 141 
L 488 750 
Q 750 597 1062 519 
Q 1375 441 1716 441 
Q 2309 441 2620 675 
Q 2931 909 2931 1356 
Q 2931 1769 2642 2001 
Q 2353 2234 1838 2234 
L 1294 2234 
L 1294 2753 
L 1863 2753 
Q 2328 2753 2575 2939 
Q 2822 3125 2822 3475 
Q 2822 3834 2567 4026 
Q 2313 4219 1838 4219 
Q 1578 4219 1281 4162 
Q 984 4106 628 3988 
L 628 4550 
Q 988 4650 1302 4700 
Q 1616 4750 1894 4750 
Q 2613 4750 3031 4423 
Q 3450 4097 3450 3541 
Q 3450 3153 3228 2886 
Q 3006 2619 2597 2516 
z
" transform="scale(0.015625)"/>
        <path id="DejaVuSans-39" d="M 703 97 
L 703 672 
Q 941 559 1184 500 
Q 1428 441 1663 441 
Q 2288 441 2617 861 
Q 2947 1281 2994 2138 
Q 2813 1869 2534 1725 
Q 2256 1581 1919 1581 
Q 1219 1581 811 2004 
Q 403 2428 403 3163 
Q 403 3881 828 4315 
Q 1253 4750 1959 4750 
Q 2769 4750 3195 4129 
Q 3622 3509 3622 2328 
Q 3622 1225 3098 567 
Q 2575 -91 1691 -91 
Q 1453 -91 1209 -44 
Q 966 3 703 97 
z
M 1959 2075 
Q 2384 2075 2632 2365 
Q 2881 2656 2881 3163 
Q 2881 3666 2632 3958 
Q 2384 4250 1959 4250 
Q 1534 4250 1286 3958 
Q 1038 3666 1038 3163 
Q 1038 2656 1286 2365 
Q 1534 2075 1959 2075 
z
" transform="scale(0.015625)"/>
        <path id="DejaVuSans-34" d="M 2419 4116 
L 825 1625 
L 2419 1625 
L 2419 4116 
z
M 2253 4666 
L 3047 4666 
L 3047 1625 
L 3713 1625 
L 3713 1100 
L 3047 1100 
L 3047 0 
L 2419 0 
L 2419 1100 
L 313 1100 
L 313 1709 
L 2253 4666 
z
" transform="scale(0.015625)"/>
        <path id="DejaVuSans-30" d="M 2034 4250 
Q 1547 4250 1301 3770 
Q 1056 3291 1056 2328 
Q 1056 1369 1301 889 
Q 1547 409 2034 409 
Q 2525 409 2770 889 
Q 3016 1369 3016 2328 
Q 3016 3291 2770 3770 
Q 2525 4250 2034 4250 
z
M 2034 4750 
Q 2819 4750 3233 4129 
Q 3647 3509 3647 2328 
Q 3647 1150 3233 529 
Q 2819 -91 2034 -91 
Q 1250 -91 836 529 
Q 422 1150 422 2328 
Q 422 3509 836 4129 
Q 1250 4750 2034 4750 
z
" transform="scale(0.015625)"/>
       </defs>
       <use xlink:href="#DejaVuSans-33"/>
       <use xlink:href="#DejaVuSans-39" x="63.623047"/>
       <use xlink:href="#DejaVuSans-34" x="127.246094"/>
       <use xlink:href="#DejaVuSans-30" x="190.869141"/>
       <use xlink:href="#DejaVuSans-30" x="254.492188"/>
       <use xlink:href="#DejaVuSans-30" x="318.115234"/>
      </g>
     </g>
    </g>
    <g id="xtick_2">
     <g id="line2d_2">
      <g>
       <use xlink:href="#m1b72ffec42" x="247.656548" y="640.8" style="stroke: #000000; stroke-width: 0.8"/>
      </g>
     </g>
     <g id="text_2">
      <!-- 395000 -->
      <g transform="translate(228.569048 655.398438) scale(0.1 -0.1)">
       <defs>
        <path id="DejaVuSans-35" d="M 691 4666 
L 3169 4666 
L 3169 4134 
L 1269 4134 
L 1269 2991 
Q 1406 3038 1543 3061 
Q 1681 3084 1819 3084 
Q 2600 3084 3056 2656 
Q 3513 2228 3513 1497 
Q 3513 744 3044 326 
Q 2575 -91 1722 -91 
Q 1428 -91 1123 -41 
Q 819 9 494 109 
L 494 744 
Q 775 591 1075 516 
Q 1375 441 1709 441 
Q 2250 441 2565 725 
Q 2881 1009 2881 1497 
Q 2881 1984 2565 2268 
Q 2250 2553 1709 2553 
Q 1456 2553 1204 2497 
Q 953 2441 691 2322 
L 691 4666 
z
" transform="scale(0.015625)"/>
       </defs>
       <use xlink:href="#DejaVuSans-33"/>
       <use xlink:href="#DejaVuSans-39" x="63.623047"/>
       <use xlink:href="#DejaVuSans-35" x="127.246094"/>
       <use xlink:href="#DejaVuSans-30" x="190.869141"/>
       <use xlink:href="#DejaVuSans-30" x="254.492188"/>
       <use xlink:href="#DejaVuSans-30" x="318.115234"/>
      </g>
     </g>
    </g>
    <g id="xtick_3">
     <g id="line2d_3">
      <g>
       <use xlink:href="#m1b72ffec42" x="315.055816" y="640.8" style="stroke: #000000; stroke-width: 0.8"/>
      </g>
     </g>
     <g id="text_3">
      <!-- 396000 -->
      <g transform="translate(295.968316 655.398438) scale(0.1 -0.1)">
       <defs>
        <path id="DejaVuSans-36" d="M 2113 2584 
Q 1688 2584 1439 2293 
Q 1191 2003 1191 1497 
Q 1191 994 1439 701 
Q 1688 409 2113 409 
Q 2538 409 2786 701 
Q 3034 994 3034 1497 
Q 3034 2003 2786 2293 
Q 2538 2584 2113 2584 
z
M 3366 4563 
L 3366 3988 
Q 3128 4100 2886 4159 
Q 2644 4219 2406 4219 
Q 1781 4219 1451 3797 
Q 1122 3375 1075 2522 
Q 1259 2794 1537 2939 
Q 1816 3084 2150 3084 
Q 2853 3084 3261 2657 
Q 3669 2231 3669 1497 
Q 3669 778 3244 343 
Q 2819 -91 2113 -91 
Q 1303 -91 875 529 
Q 447 1150 447 2328 
Q 447 3434 972 4092 
Q 1497 4750 2381 4750 
Q 2619 4750 2861 4703 
Q 3103 4656 3366 4563 
z
" transform="scale(0.015625)"/>
       </defs>
       <use xlink:href="#DejaVuSans-33"/>
       <use xlink:href="#DejaVuSans-39" x="63.623047"/>
       <use xlink:href="#DejaVuSans-36" x="127.246094"/>
       <use xlink:href="#DejaVuSans-30" x="190.869141"/>
       <use xlink:href="#DejaVuSans-30" x="254.492188"/>
       <use xlink:href="#DejaVuSans-30" x="318.115234"/>
      </g>
     </g>
    </g>
    <g id="xtick_4">
     <g id="line2d_4">
      <g>
       <use xlink:href="#m1b72ffec42" x="382.455084" y="640.8" style="stroke: #000000; stroke-width: 0.8"/>
      </g>
     </g>
     <g id="text_4">
      <!-- 397000 -->
      <g transform="translate(363.367584 655.398438) scale(0.1 -0.1)">
       <defs>
        <path id="DejaVuSans-37" d="M 525 4666 
L 3525 4666 
L 3525 4397 
L 1831 0 
L 1172 0 
L 2766 4134 
L 525 4134 
L 525 4666 
z
" transform="scale(0.015625)"/>
       </defs>
       <use xlink:href="#DejaVuSans-33"/>
       <use xlink:href="#DejaVuSans-39" x="63.623047"/>
       <use xlink:href="#DejaVuSans-37" x="127.246094"/>
       <use xlink:href="#DejaVuSans-30" x="190.869141"/>
       <use xlink:href="#DejaVuSans-30" x="254.492188"/>
       <use xlink:href="#DejaVuSans-30" x="318.115234"/>
      </g>
     </g>
    </g>
    <g id="xtick_5">
     <g id="line2d_5">
      <g>
       <use xlink:href="#m1b72ffec42" x="449.854353" y="640.8" style="stroke: #000000; stroke-width: 0.8"/>
      </g>
     </g>
     <g id="text_5">
      <!-- 398000 -->
      <g transform="translate(430.766853 655.398438) scale(0.1 -0.1)">
       <defs>
        <path id="DejaVuSans-38" d="M 2034 2216 
Q 1584 2216 1326 1975 
Q 1069 1734 1069 1313 
Q 1069 891 1326 650 
Q 1584 409 2034 409 
Q 2484 409 2743 651 
Q 3003 894 3003 1313 
Q 3003 1734 2745 1975 
Q 2488 2216 2034 2216 
z
M 1403 2484 
Q 997 2584 770 2862 
Q 544 3141 544 3541 
Q 544 4100 942 4425 
Q 1341 4750 2034 4750 
Q 2731 4750 3128 4425 
Q 3525 4100 3525 3541 
Q 3525 3141 3298 2862 
Q 3072 2584 2669 2484 
Q 3125 2378 3379 2068 
Q 3634 1759 3634 1313 
Q 3634 634 3220 271 
Q 2806 -91 2034 -91 
Q 1263 -91 848 271 
Q 434 634 434 1313 
Q 434 1759 690 2068 
Q 947 2378 1403 2484 
z
M 1172 3481 
Q 1172 3119 1398 2916 
Q 1625 2713 2034 2713 
Q 2441 2713 2670 2916 
Q 2900 3119 2900 3481 
Q 2900 3844 2670 4047 
Q 2441 4250 2034 4250 
Q 1625 4250 1398 4047 
Q 1172 3844 1172 3481 
z
" transform="scale(0.015625)"/>
       </defs>
       <use xlink:href="#DejaVuSans-33"/>
       <use xlink:href="#DejaVuSans-39" x="63.623047"/>
       <use xlink:href="#DejaVuSans-38" x="127.246094"/>
       <use xlink:href="#DejaVuSans-30" x="190.869141"/>
       <use xlink:href="#DejaVuSans-30" x="254.492188"/>
       <use xlink:href="#DejaVuSans-30" x="318.115234"/>
      </g>
     </g>
    </g>
    <g id="xtick_6">
     <g id="line2d_6">
      <g>
       <use xlink:href="#m1b72ffec42" x="517.253621" y="640.8" style="stroke: #000000; stroke-width: 0.8"/>
      </g>
     </g>
     <g id="text_6">
      <!-- 399000 -->
      <g transform="translate(498.166121 655.398438) scale(0.1 -0.1)">
       <use xlink:href="#DejaVuSans-33"/>
       <use xlink:href="#DejaVuSans-39" x="63.623047"/>
       <use xlink:href="#DejaVuSans-39" x="127.246094"/>
       <use xlink:href="#DejaVuSans-30" x="190.869141"/>
       <use xlink:href="#DejaVuSans-30" x="254.492188"/>
       <use xlink:href="#DejaVuSans-30" x="318.115234"/>
      </g>
     </g>
    </g>
    <g id="xtick_7">
     <g id="line2d_7">
      <g>
       <use xlink:href="#m1b72ffec42" x="584.652889" y="640.8" style="stroke: #000000; stroke-width: 0.8"/>
      </g>
     </g>
     <g id="text_7">
      <!-- 400000 -->
      <g transform="translate(565.565389 655.398438) scale(0.1 -0.1)">
       <use xlink:href="#DejaVuSans-34"/>
       <use xlink:href="#DejaVuSans-30" x="63.623047"/>
       <use xlink:href="#DejaVuSans-30" x="127.246094"/>
       <use xlink:href="#DejaVuSans-30" x="190.869141"/>
       <use xlink:href="#DejaVuSans-30" x="254.492188"/>
       <use xlink:href="#DejaVuSans-30" x="318.115234"/>
      </g>
     </g>
    </g>
   </g>
   <g id="matplotlib.axis_2">
    <g id="ytick_1">
     <g id="line2d_8">
      <defs>
       <path id="m9d910c983f" d="M 0 0 
L -3.5 0 
" style="stroke: #000000; stroke-width: 0.8"/>
      </defs>
      <g>
       <use xlink:href="#m9d910c983f" x="126.491101" y="600.869494" style="stroke: #000000; stroke-width: 0.8"/>
      </g>
     </g>
     <g id="text_8">
      <!-- 5.830 -->
      <g transform="translate(90.862976 604.668713) scale(0.1 -0.1)">
       <defs>
        <path id="DejaVuSans-2e" d="M 684 794 
L 1344 794 
L 1344 0 
L 684 0 
L 684 794 
z
" transform="scale(0.015625)"/>
       </defs>
       <use xlink:href="#DejaVuSans-35"/>
       <use xlink:href="#DejaVuSans-2e" x="63.623047"/>
       <use xlink:href="#DejaVuSans-38" x="95.410156"/>
       <use xlink:href="#DejaVuSans-33" x="159.033203"/>
       <use xlink:href="#DejaVuSans-30" x="222.65625"/>
      </g>
     </g>
    </g>
    <g id="ytick_2">
     <g id="line2d_9">
      <g>
       <use xlink:href="#m9d910c983f" x="126.491101" y="533.470226" style="stroke: #000000; stroke-width: 0.8"/>
      </g>
     </g>
     <g id="text_9">
      <!-- 5.831 -->
      <g transform="translate(90.862976 537.269444) scale(0.1 -0.1)">
       <defs>
        <path id="DejaVuSans-31" d="M 794 531 
L 1825 531 
L 1825 4091 
L 703 3866 
L 703 4441 
L 1819 4666 
L 2450 4666 
L 2450 531 
L 3481 531 
L 3481 0 
L 794 0 
L 794 531 
z
" transform="scale(0.015625)"/>
       </defs>
       <use xlink:href="#DejaVuSans-35"/>
       <use xlink:href="#DejaVuSans-2e" x="63.623047"/>
       <use xlink:href="#DejaVuSans-38" x="95.410156"/>
       <use xlink:href="#DejaVuSans-33" x="159.033203"/>
       <use xlink:href="#DejaVuSans-31" x="222.65625"/>
      </g>
     </g>
    </g>
    <g id="ytick_3">
     <g id="line2d_10">
      <g>
       <use xlink:href="#m9d910c983f" x="126.491101" y="466.070958" style="stroke: #000000; stroke-width: 0.8"/>
      </g>
     </g>
     <g id="text_10">
      <!-- 5.832 -->
      <g transform="translate(90.862976 469.870176) scale(0.1 -0.1)">
       <defs>
        <path id="DejaVuSans-32" d="M 1228 531 
L 3431 531 
L 3431 0 
L 469 0 
L 469 531 
Q 828 903 1448 1529 
Q 2069 2156 2228 2338 
Q 2531 2678 2651 2914 
Q 2772 3150 2772 3378 
Q 2772 3750 2511 3984 
Q 2250 4219 1831 4219 
Q 1534 4219 1204 4116 
Q 875 4013 500 3803 
L 500 4441 
Q 881 4594 1212 4672 
Q 1544 4750 1819 4750 
Q 2544 4750 2975 4387 
Q 3406 4025 3406 3419 
Q 3406 3131 3298 2873 
Q 3191 2616 2906 2266 
Q 2828 2175 2409 1742 
Q 1991 1309 1228 531 
z
" transform="scale(0.015625)"/>
       </defs>
       <use xlink:href="#DejaVuSans-35"/>
       <use xlink:href="#DejaVuSans-2e" x="63.623047"/>
       <use xlink:href="#DejaVuSans-38" x="95.410156"/>
       <use xlink:href="#DejaVuSans-33" x="159.033203"/>
       <use xlink:href="#DejaVuSans-32" x="222.65625"/>
      </g>
     </g>
    </g>
    <g id="ytick_4">
     <g id="line2d_11">
      <g>
       <use xlink:href="#m9d910c983f" x="126.491101" y="398.671689" style="stroke: #000000; stroke-width: 0.8"/>
      </g>
     </g>
     <g id="text_11">
      <!-- 5.833 -->
      <g transform="translate(90.862976 402.470908) scale(0.1 -0.1)">
       <use xlink:href="#DejaVuSans-35"/>
       <use xlink:href="#DejaVuSans-2e" x="63.623047"/>
       <use xlink:href="#DejaVuSans-38" x="95.410156"/>
       <use xlink:href="#DejaVuSans-33" x="159.033203"/>
       <use xlink:href="#DejaVuSans-33" x="222.65625"/>
      </g>
     </g>
    </g>
    <g id="ytick_5">
     <g id="line2d_12">
      <g>
       <use xlink:href="#m9d910c983f" x="126.491101" y="331.272421" style="stroke: #000000; stroke-width: 0.8"/>
      </g>
     </g>
     <g id="text_12">
      <!-- 5.834 -->
      <g transform="translate(90.862976 335.07164) scale(0.1 -0.1)">
       <use xlink:href="#DejaVuSans-35"/>
       <use xlink:href="#DejaVuSans-2e" x="63.623047"/>
       <use xlink:href="#DejaVuSans-38" x="95.410156"/>
       <use xlink:href="#DejaVuSans-33" x="159.033203"/>
       <use xlink:href="#DejaVuSans-34" x="222.65625"/>
      </g>
     </g>
    </g>
    <g id="ytick_6">
     <g id="line2d_13">
      <g>
       <use xlink:href="#m9d910c983f" x="126.491101" y="263.873153" style="stroke: #000000; stroke-width: 0.8"/>
      </g>
     </g>
     <g id="text_13">
      <!-- 5.835 -->
      <g transform="translate(90.862976 267.672372) scale(0.1 -0.1)">
       <use xlink:href="#DejaVuSans-35"/>
       <use xlink:href="#DejaVuSans-2e" x="63.623047"/>
       <use xlink:href="#DejaVuSans-38" x="95.410156"/>
       <use xlink:href="#DejaVuSans-33" x="159.033203"/>
       <use xlink:href="#DejaVuSans-35" x="222.65625"/>
      </g>
     </g>
    </g>
    <g id="ytick_7">
     <g id="line2d_14">
      <g>
       <use xlink:href="#m9d910c983f" x="126.491101" y="196.473885" style="stroke: #000000; stroke-width: 0.8"/>
      </g>
     </g>
     <g id="text_14">
      <!-- 5.836 -->
      <g transform="translate(90.862976 200.273104) scale(0.1 -0.1)">
       <use xlink:href="#DejaVuSans-35"/>
       <use xlink:href="#DejaVuSans-2e" x="63.623047"/>
       <use xlink:href="#DejaVuSans-38" x="95.410156"/>
       <use xlink:href="#DejaVuSans-33" x="159.033203"/>
       <use xlink:href="#DejaVuSans-36" x="222.65625"/>
      </g>
     </g>
    </g>
    <g id="ytick_8">
     <g id="line2d_15">
      <g>
       <use xlink:href="#m9d910c983f" x="126.491101" y="129.074617" style="stroke: #000000; stroke-width: 0.8"/>
      </g>
     </g>
     <g id="text_15">
      <!-- 5.837 -->
      <g transform="translate(90.862976 132.873835) scale(0.1 -0.1)">
       <use xlink:href="#DejaVuSans-35"/>
       <use xlink:href="#DejaVuSans-2e" x="63.623047"/>
       <use xlink:href="#DejaVuSans-38" x="95.410156"/>
       <use xlink:href="#DejaVuSans-33" x="159.033203"/>
       <use xlink:href="#DejaVuSans-37" x="222.65625"/>
      </g>
     </g>
    </g>
    <g id="text_16">
     <!-- 1e6 -->
     <g transform="translate(126.491101 83.4) scale(0.1 -0.1)">
      <defs>
       <path id="DejaVuSans-65" d="M 3597 1894 
L 3597 1613 
L 953 1613 
Q 991 1019 1311 708 
Q 1631 397 2203 397 
Q 2534 397 2845 478 
Q 3156 559 3463 722 
L 3463 178 
Q 3153 47 2828 -22 
Q 2503 -91 2169 -91 
Q 1331 -91 842 396 
Q 353 884 353 1716 
Q 353 2575 817 3079 
Q 1281 3584 2069 3584 
Q 2775 3584 3186 3129 
Q 3597 2675 3597 1894 
z
M 3022 2063 
Q 3016 2534 2758 2815 
Q 2500 3097 2075 3097 
Q 1594 3097 1305 2825 
Q 1016 2553 972 2059 
L 3022 2063 
z
" transform="scale(0.015625)"/>
      </defs>
      <use xlink:href="#DejaVuSans-31"/>
      <use xlink:href="#DejaVuSans-65" x="63.623047"/>
      <use xlink:href="#DejaVuSans-36" x="125.146484"/>
     </g>
    </g>
   </g>
   <g id="patch_3">
    <path d="M 126.491101 640.8 
L 126.491101 86.4 
" style="fill: none; stroke: #000000; stroke-width: 0.8; stroke-linejoin: miter; stroke-linecap: square"/>
   </g>
   <g id="patch_4">
    <path d="M 611.508899 640.8 
L 611.508899 86.4 
" style="fill: none; stroke: #000000; stroke-width: 0.8; stroke-linejoin: miter; stroke-linecap: square"/>
   </g>
   <g id="patch_5">
    <path d="M 126.491101 640.8 
L 611.508899 640.8 
" style="fill: none; stroke: #000000; stroke-width: 0.8; stroke-linejoin: miter; stroke-linecap: square"/>
   </g>
   <g id="patch_6">
    <path d="M 126.491101 86.4 
L 611.508899 86.4 
" style="fill: none; stroke: #000000; stroke-width: 0.8; stroke-linejoin: miter; stroke-linecap: square"/>
   </g>
   <g id="text_17">
    <!-- Buch -->
    <g transform="translate(343.439058 387.685644) scale(0.12 -0.12)">
     <defs>
      <path id="DejaVuSans-42" d="M 1259 2228 
L 1259 519 
L 2272 519 
Q 2781 519 3026 730 
Q 3272 941 3272 1375 
Q 3272 1813 3026 2020 
Q 2781 2228 2272 2228 
L 1259 2228 
z
M 1259 4147 
L 1259 2741 
L 2194 2741 
Q 2656 2741 2882 2914 
Q 3109 3088 3109 3444 
Q 3109 3797 2882 3972 
Q 2656 4147 2194 4147 
L 1259 4147 
z
M 628 4666 
L 2241 4666 
Q 2963 4666 3353 4366 
Q 3744 4066 3744 3513 
Q 3744 3084 3544 2831 
Q 3344 2578 2956 2516 
Q 3422 2416 3680 2098 
Q 3938 1781 3938 1306 
Q 3938 681 3513 340 
Q 3088 0 2303 0 
L 628 0 
L 628 4666 
z
" transform="scale(0.015625)"/>
      <path id="DejaVuSans-75" d="M 544 1381 
L 544 3500 
L 1119 3500 
L 1119 1403 
Q 1119 906 1312 657 
Q 1506 409 1894 409 
Q 2359 409 2629 706 
Q 2900 1003 2900 1516 
L 2900 3500 
L 3475 3500 
L 3475 0 
L 2900 0 
L 2900 538 
Q 2691 219 2414 64 
Q 2138 -91 1772 -91 
Q 1169 -91 856 284 
Q 544 659 544 1381 
z
M 1991 3584 
L 1991 3584 
z
" transform="scale(0.015625)"/>
      <path id="DejaVuSans-63" d="M 3122 3366 
L 3122 2828 
Q 2878 2963 2633 3030 
Q 2388 3097 2138 3097 
Q 1578 3097 1268 2742 
Q 959 2388 959 1747 
Q 959 1106 1268 751 
Q 1578 397 2138 397 
Q 2388 397 2633 464 
Q 2878 531 3122 666 
L 3122 134 
Q 2881 22 2623 -34 
Q 2366 -91 2075 -91 
Q 1284 -91 818 406 
Q 353 903 353 1747 
Q 353 2603 823 3093 
Q 1294 3584 2113 3584 
Q 2378 3584 2631 3529 
Q 2884 3475 3122 3366 
z
" transform="scale(0.015625)"/>
      <path id="DejaVuSans-68" d="M 3513 2113 
L 3513 0 
L 2938 0 
L 2938 2094 
Q 2938 2591 2744 2837 
Q 2550 3084 2163 3084 
Q 1697 3084 1428 2787 
Q 1159 2491 1159 1978 
L 1159 0 
L 581 0 
L 581 4863 
L 1159 4863 
L 1159 2956 
Q 1366 3272 1645 3428 
Q 1925 3584 2291 3584 
Q 2894 3584 3203 3211 
Q 3513 2838 3513 2113 
z
" transform="scale(0.015625)"/>
     </defs>
     <use xlink:href="#DejaVuSans-42"/>
     <use xlink:href="#DejaVuSans-75" x="68.603516"/>
     <use xlink:href="#DejaVuSans-63" x="131.982422"/>
     <use xlink:href="#DejaVuSans-68" x="186.962891"/>
    </g>
   </g>
  </g>
 </g>
 <defs>
  <clipPath id="p0d5a97f0ac">
   <rect x="126.491101" y="86.4" width="485.017798" height="554.4"/>
  </clipPath>
 </defs>
</svg>
