<?xml version="1.0" encoding="utf-8" standalone="no"?>
<!DOCTYPE svg PUBLIC "-//W3C//DTD SVG 1.1//EN"
  "http://www.w3.org/Graphics/SVG/1.1/DTD/svg11.dtd">
<svg xmlns:xlink="http://www.w3.org/1999/xlink" width="460.8pt" height="345.6pt" viewBox="0 0 460.8 345.6" xmlns="http://www.w3.org/2000/svg" version="1.1">
 <metadata>
  <rdf:RDF xmlns:dc="http://purl.org/dc/elements/1.1/" xmlns:cc="http://creativecommons.org/ns#" xmlns:rdf="http://www.w3.org/1999/02/22-rdf-syntax-ns#">
   <cc:Work>
    <dc:type rdf:resource="http://purl.org/dc/dcmitype/StillImage"/>
    <dc:date>2024-10-17T11:33:15.198291</dc:date>
    <dc:format>image/svg+xml</dc:format>
    <dc:creator>
     <cc:Agent>
      <dc:title>Matplotlib v3.9.2, https://matplotlib.org/</dc:title>
     </cc:Agent>
    </dc:creator>
   </cc:Work>
  </rdf:RDF>
 </metadata>
 <defs>
  <style type="text/css">*{stroke-linejoin: round; stroke-linecap: butt}</style>
 </defs>
 <g id="figure_1">
  <g id="patch_1">
   <path d="M 0 345.6 
L 460.8 345.6 
L 460.8 0 
L 0 0 
z
" style="fill: #ffffff"/>
  </g>
  <g id="axes_1">
   <g id="patch_2">
    <path d="M 121.060186 307.584 
L 351.259814 307.584 
L 351.259814 41.472 
L 121.060186 41.472 
z
" style="fill: #ffffff"/>
   </g>
   <g id="PatchCollection_1">
    <path d="M 330.888028 210.412874 
L 330.912977 210.311948 
L 330.917389 210.294039 
L 330.946124 210.192069 
L 330.969924 210.098178 
L 331.011757 209.959208 
L 331.230706 209.184457 
L 331.403479 208.566841 
L 331.454399 208.387609 
L 331.579853 207.947961 
L 331.75371 207.328329 
L 331.927186 206.711922 
L 332.102785 206.091033 
L 332.113461 206.053182 
L 332.275665 205.476697 
L 332.452479 204.853949 
L 332.626587 204.235246 
L 332.801145 203.616534 
L 332.975094 202.997771 
L 333.149406 202.379418 
L 333.323693 201.761387 
L 333.497896 201.142265 
L 333.662694 200.566661 
L 333.672656 200.523679 
L 333.706058 200.411386 
L 333.739175 200.305499 
L 333.866463 199.90782 
L 334.060609 199.294335 
L 334.164489 198.967479 
L 334.473812 197.994389 
L 334.47894 197.980068 
L 334.53713 197.795187 
L 334.600418 197.596114 
L 335.044966 196.195691 
L 335.128241 195.935516 
L 335.215397 195.576617 
L 335.278451 195.311165 
L 335.364832 194.950449 
L 335.5017 194.374746 
L 335.51405 194.324542 
L 335.516848 194.310816 
L 335.662433 193.701709 
L 335.812569 193.073565 
L 335.96173 192.449462 
L 336.111483 191.822838 
L 336.147888 191.670569 
L 336.235158 191.188517 
L 336.349753 190.555572 
L 336.464693 189.920724 
L 336.531186 189.55347 
L 336.61891 189.298833 
L 336.694794 189.078532 
L 336.829728 188.686842 
L 336.959006 188.310353 
L 337.006358 188.172461 
L 337.03909 188.077293 
L 337.249097 187.46786 
L 337.280657 187.376576 
L 337.457974 186.861153 
L 337.967463 185.383177 
L 337.995688 185.238603 
L 338.014527 185.148031 
L 338.019683 185.123177 
L 338.063673 184.911138 
L 338.311351 183.727724 
L 338.439697 183.098295 
L 338.573971 182.47003 
L 338.705803 181.83683 
L 338.836907 181.207183 
L 338.968272 180.577692 
L 339.101759 179.948382 
L 339.233205 179.318085 
L 339.349958 178.750487 
L 339.532461 177.86663 
L 339.666107 176.217303 
L 339.685949 175.956022 
L 339.705787 175.692972 
L 339.784448 174.698005 
L 339.809544 174.381424 
L 339.850459 174.041426 
L 339.926936 173.402417 
L 340.003587 172.764017 
L 340.016924 172.653681 
L 340.067796 172.124361 
L 340.129399 171.484275 
L 340.13752 171.412289 
L 340.212006 170.649141 
L 340.273206 170.022251 
L 340.297477 169.817453 
L 340.344355 169.404934 
L 340.379747 168.984545 
L 340.450295 168.157346 
L 340.519305 167.327058 
L 340.587923 166.526208 
L 340.622332 166.137713 
L 340.638746 165.887566 
L 340.642301 165.758584 
L 340.646691 165.599532 
L 340.6503 165.468761 
L 340.655024 165.298072 
L 340.676507 164.884659 
L 340.796194 162.579853 
L 339.50907 162.71765 
L 338.244102 162.907909 
L 338.150032 162.922226 
L 337.861399 162.943085 
L 335.085452 163.143993 
L 334.925968 162.781262 
L 334.767964 162.418758 
L 334.735361 162.34494 
L 334.72762 162.327281 
L 334.107321 160.920219 
L 334.09279 160.840529 
L 334.005811 160.361678 
L 333.995469 160.306378 
L 333.977668 160.208036 
L 333.965073 160.138309 
L 333.934674 159.966992 
L 333.909146 159.831372 
L 333.482735 158.327532 
L 333.401536 158.079202 
L 333.375142 157.998437 
L 333.344812 157.905661 
L 333.344263 157.903935 
L 333.306937 157.783146 
L 333.306289 157.781051 
L 332.662034 155.8017 
L 332.643202 155.742361 
L 330.938 156.196285 
L 329.585232 156.608611 
L 328.076905 157.112734 
L 327.315198 157.417623 
L 326.742809 157.646082 
L 325.582085 158.060688 
L 325.242737 158.180971 
L 324.729717 158.365885 
L 324.216113 158.550428 
L 324.109524 158.584888 
L 323.788195 158.701265 
L 323.710389 158.742046 
L 323.219894 158.987642 
L 322.729368 159.23324 
L 322.454921 159.37155 
L 322.266883 159.466167 
L 321.922746 159.638821 
L 321.812655 159.694841 
L 321.576827 159.8137 
L 321.229448 159.984685 
L 320.885615 160.159554 
L 320.424852 160.391647 
L 319.994386 160.608513 
L 319.65216 160.780264 
L 318.98677 161.114369 
L 318.667705 161.274868 
L 317.861319 160.637583 
L 316.727219 159.741291 
L 315.541057 158.698392 
L 314.554907 157.831344 
L 313.725116 157.101742 
L 313.643319 157.029784 
L 313.629039 157.017279 
L 313.476328 156.883043 
L 313.469074 156.876664 
L 313.375302 156.7982 
L 313.171622 156.62903 
L 313.003717 156.475297 
L 312.722337 156.230643 
L 312.618437 156.140296 
L 312.564657 156.093552 
L 312.536656 156.069206 
L 312.512772 156.048441 
L 312.431024 155.977383 
L 311.146726 154.855791 
L 310.354704 154.169809 
L 309.049593 153.039402 
L 308.81966 152.837784 
L 308.45945 152.518097 
L 308.027228 152.134486 
L 307.595004 151.750876 
L 307.446623 151.626334 
L 306.634599 150.896369 
L 306.602001 150.86707 
L 306.555159 150.831666 
L 306.444614 150.748134 
L 306.35876 150.68326 
L 306.317557 150.652113 
L 306.28564 150.624698 
L 305.567126 150.0072 
L 303.375231 148.234153 
L 302.010726 147.130448 
L 301.074003 146.378017 
L 297.644682 144.921576 
L 296.701284 144.243542 
L 296.492751 144.12052 
L 294.750308 143.063442 
L 291.799651 141.193381 
L 291.691203 141.124627 
L 290.88258 140.601705 
L 290.796805 140.546244 
L 290.284045 140.214633 
L 289.494408 139.703995 
L 286.542658 137.795202 
L 285.235077 136.949686 
L 280.805204 134.085302 
L 280.138243 133.654094 
L 278.654049 132.694453 
L 276.67475 131.414757 
L 272.875916 129.000232 
L 271.278531 127.985013 
L 271.170158 127.916143 
L 270.763694 127.657819 
L 268.254689 124.113209 
L 268.186 124.016169 
L 268.167976 123.990689 
L 267.990253 123.73966 
L 267.775951 123.436878 
L 267.005782 122.348875 
L 265.437631 120.133648 
L 265.350584 120.010686 
L 265.248687 119.866744 
L 265.162467 119.744987 
L 264.974145 119.478959 
L 264.967535 119.469622 
L 264.921133 119.404053 
L 264.899371 119.373312 
L 262.395029 115.835806 
L 262.270238 115.65951 
L 259.04134 111.09883 
L 259.18484 110.221972 
L 259.223673 109.98466 
L 259.264016 109.738214 
L 259.588547 107.755158 
L 260.040266 104.995134 
L 260.079019 104.758435 
L 260.429123 102.6194 
L 260.862858 99.969369 
L 260.896887 99.761395 
L 261.13183 98.326035 
L 261.393097 96.729853 
L 262.407766 90.531127 
L 262.422052 90.44389 
L 262.521311 89.837589 
L 263.22535 85.536682 
L 263.245015 85.416558 
L 263.693699 82.675846 
L 264.103691 80.17151 
L 264.138642 79.958082 
L 264.611291 77.071139 
L 264.673252 76.692694 
L 265.694321 70.45649 
L 261.246715 73.056789 
L 258.736106 74.557501 
L 258.229313 74.754755 
L 257.949184 74.863804 
L 255.629325 75.766756 
L 255.029514 76.068388 
L 249.183186 79.008719 
L 247.266189 80.033128 
L 243.011159 81.576932 
L 240.831122 83.573485 
L 238.420795 85.572345 
L 238.361893 85.621195 
L 238.142658 85.342422 
L 238.111518 85.302814 
L 238.067743 85.247168 
L 237.986728 85.104731 
L 237.777579 84.470601 
L 237.808595 83.797545 
L 237.742424 83.342685 
L 237.745507 83.018996 
L 237.795205 82.812453 
L 237.903019 82.533469 
L 238.029177 82.328072 
L 238.069699 82.215993 
L 238.033275 82.087342 
L 237.913305 81.848567 
L 237.469797 81.25218 
L 237.207607 80.776132 
L 236.839383 80.45977 
L 236.322195 80.273804 
L 235.916297 80.271189 
L 235.65448 80.197429 
L 235.53815 79.631353 
L 235.98209 78.319851 
L 237.211071 74.986086 
L 238.617442 71.31144 
L 238.65456 71.203743 
L 238.981061 70.25638 
L 239.374051 69.298152 
L 239.442904 69.130282 
L 239.464704 69.077105 
L 239.483726 69.030709 
L 239.502289 68.985416 
L 239.737335 68.41231 
L 240.7005 66.861112 
L 241.465374 65.862594 
L 243.581577 62.282545 
L 247.076954 56.369666 
L 247.590989 55.890637 
L 247.367099 55.546016 
L 246.295977 53.568 
L 241.488799 59.316334 
L 240.067073 57.928094 
L 239.333327 57.212094 
L 238.442082 56.179673 
L 237.683381 55.301465 
L 237.623732 55.356506 
L 237.175955 55.952169 
L 234.70319 59.241623 
L 233.418396 60.95085 
L 229.703586 66.166556 
L 229.339234 66.678164 
L 227.251658 69.609396 
L 227.191269 69.583663 
L 226.957293 69.483949 
L 226.835479 69.432056 
L 225.566543 71.231713 
L 221.443085 77.080247 
L 221.320731 77.253768 
L 216.955454 83.445869 
L 216.861561 83.579064 
L 216.508495 83.409572 
L 212.268358 81.373967 
L 210.430833 80.491861 
L 210.366289 80.460885 
L 210.13328 80.349018 
L 205.855711 78.295731 
L 203.691975 77.25717 
L 203.090973 76.968676 
L 203.024804 76.936934 
L 194.752821 87.803198 
L 194.238538 88.478861 
L 194.114105 88.559465 
L 193.609157 88.886604 
L 192.054647 90.596539 
L 186.174621 97.064883 
L 185.936007 97.327422 
L 185.833681 97.439977 
L 185.649928 97.645693 
L 184.346706 99.104667 
L 184.157064 99.317008 
L 183.991934 99.501869 
L 188.48881 101.419448 
L 190.850101 102.426436 
L 192.959087 104.133055 
L 195.647449 106.405425 
L 196.933424 107.486028 
L 196.995165 107.537933 
L 198.544357 108.839746 
L 198.864854 109.109087 
L 199.737633 109.866493 
L 200.652263 110.66022 
L 201.32516 111.231162 
L 201.520867 111.397239 
L 203.151846 112.781161 
L 203.775272 113.305829 
L 205.071462 114.396701 
L 205.562448 114.809937 
L 206.045914 115.216838 
L 206.548202 115.639581 
L 207.064344 116.073993 
L 207.58019 116.508156 
L 209.166567 117.843371 
L 209.633495 117.913086 
L 209.873849 117.948987 
L 213.78441 118.532966 
L 228.258775 120.695473 
L 228.439364 120.722446 
L 229.455577 120.874329 
L 233.326203 121.45286 
L 233.343533 121.700276 
L 233.347623 121.758597 
L 233.365848 122.018023 
L 233.68521 122.198335 
L 234.65653 123.551046 
L 234.953602 124.239591 
L 234.971826 124.468688 
L 234.863608 124.805994 
L 234.791848 125.627738 
L 234.468596 127.433122 
L 234.518114 127.601635 
L 234.557333 127.745954 
L 234.516529 128.01567 
L 234.49019 128.228698 
L 234.448525 128.22984 
L 234.446481 128.509734 
L 234.640078 128.665282 
L 234.570983 129.076891 
L 234.548918 129.208199 
L 234.519827 129.318364 
L 234.180642 130.08387 
L 233.545579 130.814941 
L 233.315679 130.953556 
L 232.809411 131.118559 
L 232.133508 131.599374 
L 231.576158 131.843494 
L 231.470731 131.919162 
L 231.380615 132.061726 
L 230.93394 132.371972 
L 230.425148 132.614486 
L 230.379824 132.741432 
L 230.162787 132.975077 
L 229.985855 133.264348 
L 229.594351 133.569953 
L 229.483107 133.693668 
L 229.247922 133.955232 
L 229.102659 134.116756 
L 228.946561 134.345505 
L 228.83986 134.501866 
L 228.558005 134.773526 
L 228.460385 134.86762 
L 228.215791 135.1409 
L 228.066346 135.307852 
L 227.802433 135.524969 
L 227.434275 135.827863 
L 226.948469 136.227595 
L 226.776914 136.368741 
L 226.581106 136.681479 
L 226.300338 137.129823 
L 226.047932 137.514171 
L 225.628396 138.152948 
L 225.466184 138.265369 
L 224.938623 138.48109 
L 224.110369 138.860107 
L 223.559428 138.82652 
L 223.413339 138.769937 
L 223.013056 138.61488 
L 222.793614 138.661591 
L 222.573546 138.811913 
L 222.418799 138.964478 
L 222.035751 138.885219 
L 221.662786 138.960579 
L 221.375629 139.076664 
L 220.618813 139.131677 
L 220.3901 139.093775 
L 219.90739 138.859369 
L 219.351174 138.902329 
L 219.046887 139.041329 
L 218.742183 139.38734 
L 218.277058 139.539871 
L 217.999511 139.747164 
L 217.850629 139.858343 
L 216.417989 140.636862 
L 216.396147 140.660068 
L 215.968407 141.114366 
L 215.491838 141.540439 
L 214.904569 142.175268 
L 214.267424 142.355091 
L 214.109299 142.465989 
L 213.898943 142.752519 
L 213.79984 142.821535 
L 213.685389 142.841798 
L 213.594047 142.841176 
L 213.468419 142.854955 
L 213.276184 142.95227 
L 213.240612 143.002819 
L 213.241353 143.093535 
L 213.267188 143.262643 
L 213.225711 143.322227 
L 213.088689 143.25893 
L 212.97704 143.232915 
L 212.897144 143.242341 
L 212.800576 143.261483 
L 212.703681 143.286421 
L 212.391789 143.46847 
L 212.164483 143.725807 
L 211.798921 144.038332 
L 210.629333 145.088755 
L 209.990163 146.161711 
L 209.958893 146.252951 
L 209.815469 146.671244 
L 209.51254 147.598036 
L 209.223758 148.180736 
L 209.12334 148.341447 
L 209.073472 148.421281 
L 208.787919 148.777195 
L 208.597387 148.929928 
L 207.95056 149.025718 
L 207.376008 149.185287 
L 206.803117 149.344404 
L 205.718082 149.822256 
L 204.89168 150.266691 
L 204.149964 150.849548 
L 203.862784 151.185661 
L 203.693167 151.372335 
L 203.413095 151.680572 
L 203.325727 151.665912 
L 200.486862 151.189798 
L 200.385581 151.172801 
L 196.297544 150.487286 
L 195.904114 150.618178 
L 190.965624 149.995323 
L 188.52976 149.687304 
L 186.811278 149.469853 
L 186.827794 148.473726 
L 186.840128 145.991786 
L 186.734299 145.960422 
L 186.594011 145.918864 
L 185.949209 146.161462 
L 185.758082 145.742215 
L 185.564964 145.68967 
L 185.262683 145.607443 
L 185.074547 145.550772 
L 184.865384 145.487768 
L 184.408527 145.350175 
L 183.721561 145.274214 
L 182.988115 145.193114 
L 182.254668 145.112018 
L 182.178403 145.103595 
L 181.578637 145.037278 
L 180.853069 144.957047 
L 180.183406 144.883012 
L 179.545618 144.812505 
L 178.835163 144.757721 
L 178.188897 144.707858 
L 178.100895 144.702778 
L 177.70069 144.679737 
L 177.33014 144.679247 
L 176.838764 144.727616 
L 176.581092 144.807092 
L 175.934565 145.010819 
L 175.256579 145.184029 
L 174.840551 145.359205 
L 174.5709 145.582873 
L 173.819201 145.830371 
L 173.443481 145.984674 
L 172.262089 146.384756 
L 171.802095 146.502837 
L 171.24457 146.599484 
L 170.551119 146.574089 
L 169.880938 146.548933 
L 169.240669 146.525544 
L 168.636434 146.503533 
L 167.858131 146.47484 
L 167.763463 146.471647 
L 167.523086 147.144753 
L 166.86094 147.106699 
L 166.59815 147.950049 
L 165.305528 148.135492 
L 164.073787 148.312228 
L 164.163078 147.215555 
L 163.935566 147.022265 
L 163.576876 147.120548 
L 162.611025 147.385255 
L 162.362106 147.453468 
L 162.343493 147.581238 
L 162.194022 148.535513 
L 160.124416 161.749022 
L 159.302493 161.789023 
L 158.576172 161.938172 
L 158.020128 162.158342 
L 157.395594 162.324135 
L 156.638759 162.525064 
L 156.203986 162.640488 
L 155.775052 162.754371 
L 155.261589 162.904635 
L 154.314316 163.176099 
L 153.862438 163.277847 
L 153.458242 163.350061 
L 153.368815 163.366222 
L 152.956806 163.464339 
L 152.654725 163.535847 
L 152.60598 163.54736 
L 152.579644 163.553594 
L 152.366993 163.609101 
L 151.981753 163.713521 
L 151.248117 163.912363 
L 150.538821 164.255703 
L 150.495511 164.276684 
L 150.356002 164.350737 
L 150.294051 164.383637 
L 149.348164 164.690159 
L 148.576687 164.923609 
L 147.959168 165.136792 
L 147.620505 165.253717 
L 147.574806 165.269572 
L 147.348748 166.004376 
L 147.2798 166.245752 
L 147.16938 166.911074 
L 147.114759 167.582385 
L 147.093903 167.863528 
L 147.060927 168.307809 
L 147.034381 168.622462 
L 146.999415 169.037132 
L 146.762587 170.504562 
L 146.643242 171.188605 
L 146.570122 171.676892 
L 146.546363 171.83591 
L 146.53838 171.890955 
L 146.42594 172.993935 
L 146.484917 173.000144 
L 146.23053 175.315909 
L 146.455228 176.837801 
L 146.57442 177.644367 
L 146.740264 178.76637 
L 146.766203 178.941738 
L 146.81196 179.251342 
L 147.344477 182.860099 
L 147.404802 183.235095 
L 147.466338 183.620068 
L 147.661105 184.838221 
L 147.716982 185.210086 
L 147.717263 185.211957 
L 147.719026 185.223723 
L 148.007815 187.149318 
L 148.121735 187.910264 
L 144.78193 189.970864 
L 142.019599 189.850712 
L 141.661145 189.835087 
L 141.647209 189.83449 
L 139.256898 189.729973 
L 136.491989 189.611229 
L 133.728667 189.491856 
L 132.886996 190.318468 
L 132.809383 190.394624 
L 132.701742 190.500256 
L 132.680982 190.520683 
L 132.225296 190.967883 
L 132.12601 191.065291 
L 131.776429 191.408437 
L 131.744517 191.439755 
L 131.550378 191.630262 
L 131.523806 191.656349 
L 131.64916 192.694345 
L 131.824921 196.077036 
L 131.955099 200.369275 
L 132.037483 202.672713 
L 132.0736 203.682011 
L 132.07126 203.760155 
L 132.044113 204.727868 
L 132.145709 207.029953 
L 132.206251 208.40985 
L 132.258134 211.290097 
L 132.269482 211.910183 
L 132.796374 212.547452 
L 132.889872 214.249741 
L 132.875775 214.250499 
L 132.441101 214.270271 
L 132.481086 214.847403 
L 132.623168 217.380405 
L 132.862357 220.611671 
L 133.047037 221.976501 
L 133.099482 222.364369 
L 133.830318 225.764481 
L 133.974984 226.437583 
L 134.436741 228.475709 
L 134.815497 230.400925 
L 135.351977 230.464713 
L 135.470527 230.438641 
L 136.01769 231.949999 
L 136.283325 232.545357 
L 136.721776 233.528076 
L 137.44831 234.987177 
L 137.90291 236.309417 
L 138.620076 237.518465 
L 138.640547 237.548444 
L 138.790007 237.767492 
L 139.225567 238.405813 
L 139.584142 238.931346 
L 139.971597 239.499123 
L 140.037085 239.595148 
L 140.996313 240.960703 
L 141.817854 241.905227 
L 143.924086 244.283874 
L 144.63525 245.023238 
L 145.513208 245.936124 
L 147.632595 248.124771 
L 150.081357 250.506008 
L 152.816099 253.33122 
L 152.881807 253.403927 
L 155.066002 255.614035 
L 155.439405 255.993164 
L 155.535699 256.090938 
L 155.597863 256.154139 
L 156.797566 257.372239 
L 157.155751 257.736007 
L 157.517178 258.102986 
L 157.763856 258.353487 
L 157.993826 258.589137 
L 158.55001 259.159149 
L 158.976433 259.596154 
L 159.20981 259.835303 
L 159.806841 260.447145 
L 160.003097 260.648279 
L 160.174625 260.832904 
L 161.451144 262.150333 
L 161.63998 262.345166 
L 161.887748 262.600731 
L 162.008264 262.724807 
L 162.196864 262.907263 
L 162.606516 263.303537 
L 163.134928 263.851171 
L 163.53103 264.261701 
L 164.208736 264.964311 
L 166.342933 267.122011 
L 167.130223 267.947343 
L 167.234969 268.057131 
L 168.800863 269.698765 
L 169.081118 269.972164 
L 169.179941 270.080253 
L 169.321517 270.235105 
L 169.575435 270.528856 
L 170.575789 271.656913 
L 170.972042 272.106119 
L 171.203753 272.355999 
L 172.741671 274.282762 
L 172.876569 274.47112 
L 174.071243 276.139555 
L 175.175317 277.900721 
L 176.357697 280.077137 
L 177.314478 282.149883 
L 177.624403 282.903692 
L 177.723855 283.145599 
L 177.751389 283.212515 
L 177.770095 283.257976 
L 177.958658 283.745553 
L 177.989276 283.824721 
L 178.118689 284.188428 
L 178.146224 284.265861 
L 178.206336 284.434579 
L 178.685821 285.786053 
L 178.834157 286.199591 
L 179.468745 288.871209 
L 179.841969 290.727019 
L 180.053086 292.368711 
L 180.068744 292.490401 
L 180.271877 294.903833 
L 180.303894 295.488 
L 180.497954 295.252075 
L 181.218427 294.967064 
L 181.704329 294.774891 
L 182.076309 294.531013 
L 182.13334 294.493535 
L 182.519625 294.11526 
L 182.800835 293.643342 
L 182.902183 293.400992 
L 183.09394 292.942454 
L 183.267416 292.333496 
L 183.375018 292.179879 
L 183.374581 292.092115 
L 183.373748 291.929 
L 183.520948 291.417839 
L 183.554756 291.300421 
L 183.617988 291.080894 
L 183.721176 290.722621 
L 183.869481 290.207544 
L 183.925342 290.013585 
L 184.143688 289.255484 
L 184.101005 289.225045 
L 184.658623 287.268173 
L 184.839064 286.633593 
L 185.200306 285.363076 
L 185.218136 285.300359 
L 185.464976 284.53531 
L 185.685226 284.001767 
L 185.803429 283.715411 
L 185.825925 283.660989 
L 186.270831 282.787433 
L 186.36185 282.634497 
L 186.406293 282.559854 
L 186.434332 282.512742 
L 186.720142 282.032562 
L 186.763284 281.960037 
L 187.116248 281.449079 
L 187.252862 281.251292 
L 187.51777 280.928296 
L 187.524015 280.920681 
L 187.650662 280.766258 
L 187.664378 280.749495 
L 187.928632 280.427318 
L 187.986525 280.374385 
L 188.044766 280.321219 
L 188.051434 280.315158 
L 188.073496 280.292844 
L 188.443037 279.919448 
L 188.458943 279.873112 
L 188.684684 279.658451 
L 188.894815 279.458922 
L 189.809916 278.590083 
L 190.287189 278.136924 
L 190.369299 278.165327 
L 191.277152 277.207207 
L 191.368553 277.110745 
L 191.681114 276.799436 
L 192.267029 276.215872 
L 192.455302 276.028364 
L 192.780049 275.704927 
L 192.929394 275.556177 
L 193.119584 275.366764 
L 193.768987 274.694293 
L 194.383168 274.058315 
L 195.26707 273.142996 
L 195.722749 272.671149 
L 195.803057 272.587986 
L 196.401388 271.991339 
L 197.411919 270.983706 
L 197.551348 270.844694 
L 198.266052 270.132277 
L 198.694206 269.705511 
L 199.848636 268.554896 
L 200.305298 268.136883 
L 200.771634 267.734906 
L 201.2521 267.34128 
L 201.709912 266.993458 
L 202.439657 266.439014 
L 204.089873 265.204599 
L 204.312081 265.032574 
L 204.579672 264.825417 
L 205.786916 263.821859 
L 208.070955 262.08677 
L 208.098694 262.064313 
L 209.713999 260.756626 
L 211.688071 259.237026 
L 213.594628 257.772284 
L 214.254305 257.230392 
L 214.849187 256.661648 
L 215.3883 256.098503 
L 215.909453 255.524486 
L 217.078068 254.044701 
L 217.177031 253.919403 
L 217.288052 253.780565 
L 217.312231 253.75033 
L 218.952499 251.670621 
L 220.619677 249.560314 
L 222.289782 247.44231 
L 222.267597 247.415347 
L 222.383628 247.268848 
L 222.820938 246.720282 
L 223.268184 246.132009 
L 223.387757 245.984534 
L 223.775575 245.506401 
L 223.840264 245.371899 
L 224.078545 245.084528 
L 224.776227 244.206796 
L 225.20371 243.664396 
L 225.448121 243.354286 
L 225.605889 243.153606 
L 225.627312 243.126358 
L 225.914996 242.804585 
L 226.272029 242.437915 
L 226.367631 242.354701 
L 226.638233 242.098487 
L 227.057016 241.794575 
L 227.617174 241.425967 
L 229.603435 240.119066 
L 229.71112 240.047464 
L 232.234206 238.365419 
L 232.843977 237.977443 
L 233.46211 237.643615 
L 233.675439 237.579615 
L 233.899987 237.471282 
L 234.280444 237.225325 
L 236.440032 236.283518 
L 239.5223 234.906664 
L 242.575701 233.552998 
L 242.567449 233.525158 
L 243.170777 233.222045 
L 243.353408 233.131402 
L 243.410101 233.162976 
L 243.44992 233.185161 
L 244.547573 232.708553 
L 245.033736 232.544974 
L 245.547724 232.396022 
L 245.711737 232.363958 
L 246.065156 232.294856 
L 246.622688 232.226166 
L 247.045008 232.22775 
L 247.103801 232.227987 
L 248.410451 232.338755 
L 248.442895 232.287831 
L 248.710723 232.255666 
L 248.723263 232.254147 
L 249.3149 232.2776 
L 249.435145 232.296318 
L 250.015143 232.38708 
L 250.059361 232.38666 
L 250.908132 232.395616 
L 251.578403 232.389821 
L 251.680568 232.386055 
L 251.782652 232.379943 
L 251.884527 232.371519 
L 251.986225 232.360784 
L 252.087617 232.347707 
L 252.313608 232.304082 
L 252.442903 232.283405 
L 253.088555 232.116195 
L 253.242478 232.061709 
L 253.373639 232.015295 
L 253.481824 231.966729 
L 254.241594 231.625524 
L 254.604649 231.417776 
L 254.805334 231.292962 
L 254.829874 231.302382 
L 254.78127 231.468276 
L 254.944036 231.581465 
L 255.338205 231.855509 
L 258.166986 233.818436 
L 261.122072 236.002769 
L 261.662978 236.402584 
L 264.098775 237.968894 
L 266.407548 239.31692 
L 268.883482 240.500106 
L 272.358993 242.09536 
L 272.858341 242.171849 
L 272.895552 242.187761 
L 273.153654 242.30317 
L 273.387211 242.407604 
L 273.615916 242.509909 
L 273.853328 242.616084 
L 274.436085 243.00474 
L 275.064623 243.286719 
L 275.921383 243.671147 
L 276.796957 244.066057 
L 277.037542 244.17082 
L 277.100034 244.198038 
L 277.191492 244.237869 
L 277.624708 244.385361 
L 280.81009 245.469732 
L 280.883333 245.491195 
L 281.528015 245.719374 
L 282.03589 245.910569 
L 282.53077 246.096859 
L 283.032824 246.285831 
L 283.54257 246.477731 
L 284.45114 246.826386 
L 286.244796 247.514618 
L 286.998692 247.749222 
L 287.501375 247.905678 
L 288.200059 248.182642 
L 289.736068 248.791513 
L 292.015132 249.695013 
L 293.482402 250.276665 
L 293.716 250.376389 
L 294.881358 250.873779 
L 296.91563 251.742088 
L 297.331113 251.9194 
L 297.813471 252.125329 
L 298.155705 252.271427 
L 298.315837 252.317303 
L 298.494422 252.37003 
L 299.367273 252.62769 
L 301.078144 253.408225 
L 302.219024 252.554719 
L 302.401072 252.422956 
L 302.670403 252.227336 
L 302.679021 252.019029 
L 302.687662 251.813456 
L 302.691704 251.717333 
L 302.702282 251.465791 
L 302.746653 250.407218 
L 302.781658 249.576619 
L 302.805697 248.998888 
L 302.831645 248.418931 
L 302.835038 248.339514 
L 302.855345 247.841851 
L 302.859118 247.690863 
L 302.877473 247.260108 
L 302.901157 246.680712 
L 302.925532 246.102171 
L 302.949852 245.522505 
L 302.976122 244.944117 
L 302.98466 244.676086 
L 302.995101 244.42564 
L 302.996559 244.364307 
L 303.019231 243.785544 
L 303.046032 243.141243 
L 303.074064 242.49756 
L 303.100968 241.853579 
L 303.122862 241.356654 
L 303.127859 241.21053 
L 303.154899 240.566868 
L 303.182169 239.923522 
L 303.209535 239.280143 
L 303.236511 238.636482 
L 303.262641 237.993803 
L 303.295372 237.214262 
L 303.297235 237.183411 
L 303.3317 236.341888 
L 303.337726 236.219158 
L 303.380102 235.189445 
L 303.396724 234.780275 
L 303.403468 234.637942 
L 303.427535 234.061402 
L 303.474767 232.901939 
L 303.53094 231.560537 
L 303.941317 231.27904 
L 304.2067 231.096949 
L 304.532788 230.874133 
L 304.872785 230.641476 
L 304.880816 230.635906 
L 305.452919 230.244914 
L 305.476497 230.228085 
L 306.051444 229.834849 
L 306.10422 229.798438 
L 306.476255 229.543699 
L 307.496185 228.844909 
L 307.641749 228.746459 
L 307.673447 228.725217 
L 307.755555 228.674077 
L 307.951404 228.552102 
L 307.975334 228.538322 
L 307.988009 228.530854 
L 308.091691 228.469908 
L 308.762302 228.077237 
L 309.156552 227.846423 
L 309.514595 227.635916 
L 310.155576 227.260269 
L 310.261806 227.201491 
L 310.994752 226.781195 
L 311.293441 226.60994 
L 311.643771 226.409279 
L 311.719937 226.365374 
L 312.275446 226.046892 
L 312.66172 225.825419 
L 313.108603 225.569241 
L 313.484987 225.370457 
L 314.042094 225.076264 
L 314.46997 224.850042 
L 314.60938 224.776331 
L 315.176646 224.47685 
L 315.550615 224.278892 
L 315.875423 224.13885 
L 316.463985 223.885891 
L 317.055295 223.633843 
L 317.646183 223.384603 
L 318.234933 223.121773 
L 318.773717 222.896484 
L 318.822104 222.875638 
L 319.411975 222.623467 
L 319.666827 222.514148 
L 320.001562 222.371433 
L 320.591082 222.119145 
L 320.797523 222.030996 
L 321.812285 221.59653 
L 322.343691 221.36909 
L 322.627361 221.247827 
L 322.871489 221.131499 
L 323.393069 220.88307 
L 323.914713 220.634609 
L 324.436585 220.38621 
L 324.958397 220.137911 
L 325.248205 219.999833 
L 325.480109 219.889358 
L 326.032471 219.62763 
L 326.409885 219.447864 
L 326.581625 219.362658 
L 327.128183 219.091405 
L 327.674515 218.819998 
L 328.220969 218.54978 
L 328.769221 218.27956 
L 329.133157 218.099146 
L 329.496519 217.918841 
L 329.565584 217.545452 
L 329.678418 216.93055 
L 329.795034 216.302929 
L 329.910946 215.672204 
L 330.026425 215.039107 
L 330.143498 214.408615 
L 330.263869 213.762198 
L 330.367425 213.185697 
L 330.474991 212.610786 
L 330.815296 210.755881 
L 330.849723 210.568562 
L 330.850331 210.565365 
L 330.888028 210.412874 
" clip-path="url(#pc62a5802e8)" style="fill: #1f77b4"/>
    <path d="M 301.338565 253.517272 
L 301.808391 253.704878 
L 302.628768 253.262396 
L 302.651409 252.730917 
L 302.659282 252.538324 
L 302.481041 252.661759 
L 301.338565 253.517272 
" clip-path="url(#pc62a5802e8)" style="fill: #1f77b4"/>
   </g>
   <g id="matplotlib.axis_1">
    <g id="xtick_1">
     <g id="line2d_1">
      <defs>
       <path id="mf977bc538f" d="M 0 0 
L 0 3.5 
" style="stroke: #000000; stroke-width: 0.8"/>
      </defs>
      <g>
       <use xlink:href="#mf977bc538f" x="160.579265" y="307.584" style="stroke: #000000; stroke-width: 0.8"/>
      </g>
     </g>
     <g id="text_1">
      <!-- 13.44 -->
      <g transform="translate(146.265202 322.182437) scale(0.1 -0.1)">
       <defs>
        <path id="DejaVuSans-31" d="M 794 531 
L 1825 531 
L 1825 4091 
L 703 3866 
L 703 4441 
L 1819 4666 
L 2450 4666 
L 2450 531 
L 3481 531 
L 3481 0 
L 794 0 
L 794 531 
z
" transform="scale(0.015625)"/>
        <path id="DejaVuSans-33" d="M 2597 2516 
Q 3050 2419 3304 2112 
Q 3559 1806 3559 1356 
Q 3559 666 3084 287 
Q 2609 -91 1734 -91 
Q 1441 -91 1130 -33 
Q 819 25 488 141 
L 488 750 
Q 750 597 1062 519 
Q 1375 441 1716 441 
Q 2309 441 2620 675 
Q 2931 909 2931 1356 
Q 2931 1769 2642 2001 
Q 2353 2234 1838 2234 
L 1294 2234 
L 1294 2753 
L 1863 2753 
Q 2328 2753 2575 2939 
Q 2822 3125 2822 3475 
Q 2822 3834 2567 4026 
Q 2313 4219 1838 4219 
Q 1578 4219 1281 4162 
Q 984 4106 628 3988 
L 628 4550 
Q 988 4650 1302 4700 
Q 1616 4750 1894 4750 
Q 2613 4750 3031 4423 
Q 3450 4097 3450 3541 
Q 3450 3153 3228 2886 
Q 3006 2619 2597 2516 
z
" transform="scale(0.015625)"/>
        <path id="DejaVuSans-2e" d="M 684 794 
L 1344 794 
L 1344 0 
L 684 0 
L 684 794 
z
" transform="scale(0.015625)"/>
        <path id="DejaVuSans-34" d="M 2419 4116 
L 825 1625 
L 2419 1625 
L 2419 4116 
z
M 2253 4666 
L 3047 4666 
L 3047 1625 
L 3713 1625 
L 3713 1100 
L 3047 1100 
L 3047 0 
L 2419 0 
L 2419 1100 
L 313 1100 
L 313 1709 
L 2253 4666 
z
" transform="scale(0.015625)"/>
       </defs>
       <use xlink:href="#DejaVuSans-31"/>
       <use xlink:href="#DejaVuSans-33" x="63.623047"/>
       <use xlink:href="#DejaVuSans-2e" x="127.246094"/>
       <use xlink:href="#DejaVuSans-34" x="159.033203"/>
       <use xlink:href="#DejaVuSans-34" x="222.65625"/>
      </g>
     </g>
    </g>
    <g id="xtick_2">
     <g id="line2d_2">
      <g>
       <use xlink:href="#mf977bc538f" x="203.993532" y="307.584" style="stroke: #000000; stroke-width: 0.8"/>
      </g>
     </g>
     <g id="text_2">
      <!-- 13.46 -->
      <g transform="translate(189.679469 322.182437) scale(0.1 -0.1)">
       <defs>
        <path id="DejaVuSans-36" d="M 2113 2584 
Q 1688 2584 1439 2293 
Q 1191 2003 1191 1497 
Q 1191 994 1439 701 
Q 1688 409 2113 409 
Q 2538 409 2786 701 
Q 3034 994 3034 1497 
Q 3034 2003 2786 2293 
Q 2538 2584 2113 2584 
z
M 3366 4563 
L 3366 3988 
Q 3128 4100 2886 4159 
Q 2644 4219 2406 4219 
Q 1781 4219 1451 3797 
Q 1122 3375 1075 2522 
Q 1259 2794 1537 2939 
Q 1816 3084 2150 3084 
Q 2853 3084 3261 2657 
Q 3669 2231 3669 1497 
Q 3669 778 3244 343 
Q 2819 -91 2113 -91 
Q 1303 -91 875 529 
Q 447 1150 447 2328 
Q 447 3434 972 4092 
Q 1497 4750 2381 4750 
Q 2619 4750 2861 4703 
Q 3103 4656 3366 4563 
z
" transform="scale(0.015625)"/>
       </defs>
       <use xlink:href="#DejaVuSans-31"/>
       <use xlink:href="#DejaVuSans-33" x="63.623047"/>
       <use xlink:href="#DejaVuSans-2e" x="127.246094"/>
       <use xlink:href="#DejaVuSans-34" x="159.033203"/>
       <use xlink:href="#DejaVuSans-36" x="222.65625"/>
      </g>
     </g>
    </g>
    <g id="xtick_3">
     <g id="line2d_3">
      <g>
       <use xlink:href="#mf977bc538f" x="247.407799" y="307.584" style="stroke: #000000; stroke-width: 0.8"/>
      </g>
     </g>
     <g id="text_3">
      <!-- 13.48 -->
      <g transform="translate(233.093737 322.182437) scale(0.1 -0.1)">
       <defs>
        <path id="DejaVuSans-38" d="M 2034 2216 
Q 1584 2216 1326 1975 
Q 1069 1734 1069 1313 
Q 1069 891 1326 650 
Q 1584 409 2034 409 
Q 2484 409 2743 651 
Q 3003 894 3003 1313 
Q 3003 1734 2745 1975 
Q 2488 2216 2034 2216 
z
M 1403 2484 
Q 997 2584 770 2862 
Q 544 3141 544 3541 
Q 544 4100 942 4425 
Q 1341 4750 2034 4750 
Q 2731 4750 3128 4425 
Q 3525 4100 3525 3541 
Q 3525 3141 3298 2862 
Q 3072 2584 2669 2484 
Q 3125 2378 3379 2068 
Q 3634 1759 3634 1313 
Q 3634 634 3220 271 
Q 2806 -91 2034 -91 
Q 1263 -91 848 271 
Q 434 634 434 1313 
Q 434 1759 690 2068 
Q 947 2378 1403 2484 
z
M 1172 3481 
Q 1172 3119 1398 2916 
Q 1625 2713 2034 2713 
Q 2441 2713 2670 2916 
Q 2900 3119 2900 3481 
Q 2900 3844 2670 4047 
Q 2441 4250 2034 4250 
Q 1625 4250 1398 4047 
Q 1172 3844 1172 3481 
z
" transform="scale(0.015625)"/>
       </defs>
       <use xlink:href="#DejaVuSans-31"/>
       <use xlink:href="#DejaVuSans-33" x="63.623047"/>
       <use xlink:href="#DejaVuSans-2e" x="127.246094"/>
       <use xlink:href="#DejaVuSans-34" x="159.033203"/>
       <use xlink:href="#DejaVuSans-38" x="222.65625"/>
      </g>
     </g>
    </g>
    <g id="xtick_4">
     <g id="line2d_4">
      <g>
       <use xlink:href="#mf977bc538f" x="290.822067" y="307.584" style="stroke: #000000; stroke-width: 0.8"/>
      </g>
     </g>
     <g id="text_4">
      <!-- 13.50 -->
      <g transform="translate(276.508004 322.182437) scale(0.1 -0.1)">
       <defs>
        <path id="DejaVuSans-35" d="M 691 4666 
L 3169 4666 
L 3169 4134 
L 1269 4134 
L 1269 2991 
Q 1406 3038 1543 3061 
Q 1681 3084 1819 3084 
Q 2600 3084 3056 2656 
Q 3513 2228 3513 1497 
Q 3513 744 3044 326 
Q 2575 -91 1722 -91 
Q 1428 -91 1123 -41 
Q 819 9 494 109 
L 494 744 
Q 775 591 1075 516 
Q 1375 441 1709 441 
Q 2250 441 2565 725 
Q 2881 1009 2881 1497 
Q 2881 1984 2565 2268 
Q 2250 2553 1709 2553 
Q 1456 2553 1204 2497 
Q 953 2441 691 2322 
L 691 4666 
z
" transform="scale(0.015625)"/>
        <path id="DejaVuSans-30" d="M 2034 4250 
Q 1547 4250 1301 3770 
Q 1056 3291 1056 2328 
Q 1056 1369 1301 889 
Q 1547 409 2034 409 
Q 2525 409 2770 889 
Q 3016 1369 3016 2328 
Q 3016 3291 2770 3770 
Q 2525 4250 2034 4250 
z
M 2034 4750 
Q 2819 4750 3233 4129 
Q 3647 3509 3647 2328 
Q 3647 1150 3233 529 
Q 2819 -91 2034 -91 
Q 1250 -91 836 529 
Q 422 1150 422 2328 
Q 422 3509 836 4129 
Q 1250 4750 2034 4750 
z
" transform="scale(0.015625)"/>
       </defs>
       <use xlink:href="#DejaVuSans-31"/>
       <use xlink:href="#DejaVuSans-33" x="63.623047"/>
       <use xlink:href="#DejaVuSans-2e" x="127.246094"/>
       <use xlink:href="#DejaVuSans-35" x="159.033203"/>
       <use xlink:href="#DejaVuSans-30" x="222.65625"/>
      </g>
     </g>
    </g>
    <g id="xtick_5">
     <g id="line2d_5">
      <g>
       <use xlink:href="#mf977bc538f" x="334.236334" y="307.584" style="stroke: #000000; stroke-width: 0.8"/>
      </g>
     </g>
     <g id="text_5">
      <!-- 13.52 -->
      <g transform="translate(319.922271 322.182437) scale(0.1 -0.1)">
       <defs>
        <path id="DejaVuSans-32" d="M 1228 531 
L 3431 531 
L 3431 0 
L 469 0 
L 469 531 
Q 828 903 1448 1529 
Q 2069 2156 2228 2338 
Q 2531 2678 2651 2914 
Q 2772 3150 2772 3378 
Q 2772 3750 2511 3984 
Q 2250 4219 1831 4219 
Q 1534 4219 1204 4116 
Q 875 4013 500 3803 
L 500 4441 
Q 881 4594 1212 4672 
Q 1544 4750 1819 4750 
Q 2544 4750 2975 4387 
Q 3406 4025 3406 3419 
Q 3406 3131 3298 2873 
Q 3191 2616 2906 2266 
Q 2828 2175 2409 1742 
Q 1991 1309 1228 531 
z
" transform="scale(0.015625)"/>
       </defs>
       <use xlink:href="#DejaVuSans-31"/>
       <use xlink:href="#DejaVuSans-33" x="63.623047"/>
       <use xlink:href="#DejaVuSans-2e" x="127.246094"/>
       <use xlink:href="#DejaVuSans-35" x="159.033203"/>
       <use xlink:href="#DejaVuSans-32" x="222.65625"/>
      </g>
     </g>
    </g>
   </g>
   <g id="matplotlib.axis_2">
    <g id="ytick_1">
     <g id="line2d_6">
      <defs>
       <path id="mb98c17b508" d="M 0 0 
L -3.5 0 
" style="stroke: #000000; stroke-width: 0.8"/>
      </defs>
      <g>
       <use xlink:href="#mb98c17b508" x="121.060186" y="287.910321" style="stroke: #000000; stroke-width: 0.8"/>
      </g>
     </g>
     <g id="text_6">
      <!-- 52.61 -->
      <g transform="translate(85.432061 291.70954) scale(0.1 -0.1)">
       <use xlink:href="#DejaVuSans-35"/>
       <use xlink:href="#DejaVuSans-32" x="63.623047"/>
       <use xlink:href="#DejaVuSans-2e" x="127.246094"/>
       <use xlink:href="#DejaVuSans-36" x="159.033203"/>
       <use xlink:href="#DejaVuSans-31" x="222.65625"/>
      </g>
     </g>
    </g>
    <g id="ytick_2">
     <g id="line2d_7">
      <g>
       <use xlink:href="#mb98c17b508" x="121.060186" y="252.137051" style="stroke: #000000; stroke-width: 0.8"/>
      </g>
     </g>
     <g id="text_7">
      <!-- 52.62 -->
      <g transform="translate(85.432061 255.93627) scale(0.1 -0.1)">
       <use xlink:href="#DejaVuSans-35"/>
       <use xlink:href="#DejaVuSans-32" x="63.623047"/>
       <use xlink:href="#DejaVuSans-2e" x="127.246094"/>
       <use xlink:href="#DejaVuSans-36" x="159.033203"/>
       <use xlink:href="#DejaVuSans-32" x="222.65625"/>
      </g>
     </g>
    </g>
    <g id="ytick_3">
     <g id="line2d_8">
      <g>
       <use xlink:href="#mb98c17b508" x="121.060186" y="216.363781" style="stroke: #000000; stroke-width: 0.8"/>
      </g>
     </g>
     <g id="text_8">
      <!-- 52.63 -->
      <g transform="translate(85.432061 220.163) scale(0.1 -0.1)">
       <use xlink:href="#DejaVuSans-35"/>
       <use xlink:href="#DejaVuSans-32" x="63.623047"/>
       <use xlink:href="#DejaVuSans-2e" x="127.246094"/>
       <use xlink:href="#DejaVuSans-36" x="159.033203"/>
       <use xlink:href="#DejaVuSans-33" x="222.65625"/>
      </g>
     </g>
    </g>
    <g id="ytick_4">
     <g id="line2d_9">
      <g>
       <use xlink:href="#mb98c17b508" x="121.060186" y="180.590511" style="stroke: #000000; stroke-width: 0.8"/>
      </g>
     </g>
     <g id="text_9">
      <!-- 52.64 -->
      <g transform="translate(85.432061 184.389729) scale(0.1 -0.1)">
       <use xlink:href="#DejaVuSans-35"/>
       <use xlink:href="#DejaVuSans-32" x="63.623047"/>
       <use xlink:href="#DejaVuSans-2e" x="127.246094"/>
       <use xlink:href="#DejaVuSans-36" x="159.033203"/>
       <use xlink:href="#DejaVuSans-34" x="222.65625"/>
      </g>
     </g>
    </g>
    <g id="ytick_5">
     <g id="line2d_10">
      <g>
       <use xlink:href="#mb98c17b508" x="121.060186" y="144.81724" style="stroke: #000000; stroke-width: 0.8"/>
      </g>
     </g>
     <g id="text_10">
      <!-- 52.65 -->
      <g transform="translate(85.432061 148.616459) scale(0.1 -0.1)">
       <use xlink:href="#DejaVuSans-35"/>
       <use xlink:href="#DejaVuSans-32" x="63.623047"/>
       <use xlink:href="#DejaVuSans-2e" x="127.246094"/>
       <use xlink:href="#DejaVuSans-36" x="159.033203"/>
       <use xlink:href="#DejaVuSans-35" x="222.65625"/>
      </g>
     </g>
    </g>
    <g id="ytick_6">
     <g id="line2d_11">
      <g>
       <use xlink:href="#mb98c17b508" x="121.060186" y="109.04397" style="stroke: #000000; stroke-width: 0.8"/>
      </g>
     </g>
     <g id="text_11">
      <!-- 52.66 -->
      <g transform="translate(85.432061 112.843189) scale(0.1 -0.1)">
       <use xlink:href="#DejaVuSans-35"/>
       <use xlink:href="#DejaVuSans-32" x="63.623047"/>
       <use xlink:href="#DejaVuSans-2e" x="127.246094"/>
       <use xlink:href="#DejaVuSans-36" x="159.033203"/>
       <use xlink:href="#DejaVuSans-36" x="222.65625"/>
      </g>
     </g>
    </g>
    <g id="ytick_7">
     <g id="line2d_12">
      <g>
       <use xlink:href="#mb98c17b508" x="121.060186" y="73.2707" style="stroke: #000000; stroke-width: 0.8"/>
      </g>
     </g>
     <g id="text_12">
      <!-- 52.67 -->
      <g transform="translate(85.432061 77.069919) scale(0.1 -0.1)">
       <defs>
        <path id="DejaVuSans-37" d="M 525 4666 
L 3525 4666 
L 3525 4397 
L 1831 0 
L 1172 0 
L 2766 4134 
L 525 4134 
L 525 4666 
z
" transform="scale(0.015625)"/>
       </defs>
       <use xlink:href="#DejaVuSans-35"/>
       <use xlink:href="#DejaVuSans-32" x="63.623047"/>
       <use xlink:href="#DejaVuSans-2e" x="127.246094"/>
       <use xlink:href="#DejaVuSans-36" x="159.033203"/>
       <use xlink:href="#DejaVuSans-37" x="222.65625"/>
      </g>
     </g>
    </g>
   </g>
   <g id="patch_3">
    <path d="M 121.060186 307.584 
L 121.060186 41.472 
" style="fill: none; stroke: #000000; stroke-width: 0.8; stroke-linejoin: miter; stroke-linecap: square"/>
   </g>
   <g id="patch_4">
    <path d="M 351.259814 307.584 
L 351.259814 41.472 
" style="fill: none; stroke: #000000; stroke-width: 0.8; stroke-linejoin: miter; stroke-linecap: square"/>
   </g>
   <g id="patch_5">
    <path d="M 121.060186 307.584 
L 351.259814 307.584 
" style="fill: none; stroke: #000000; stroke-width: 0.8; stroke-linejoin: miter; stroke-linecap: square"/>
   </g>
   <g id="patch_6">
    <path d="M 121.060186 41.472 
L 351.259814 41.472 
" style="fill: none; stroke: #000000; stroke-width: 0.8; stroke-linejoin: miter; stroke-linecap: square"/>
   </g>
   <g id="text_13">
    <!-- Buch -->
    <g transform="translate(216.26509 187.35994) scale(0.12 -0.12)">
     <defs>
      <path id="DejaVuSans-42" d="M 1259 2228 
L 1259 519 
L 2272 519 
Q 2781 519 3026 730 
Q 3272 941 3272 1375 
Q 3272 1813 3026 2020 
Q 2781 2228 2272 2228 
L 1259 2228 
z
M 1259 4147 
L 1259 2741 
L 2194 2741 
Q 2656 2741 2882 2914 
Q 3109 3088 3109 3444 
Q 3109 3797 2882 3972 
Q 2656 4147 2194 4147 
L 1259 4147 
z
M 628 4666 
L 2241 4666 
Q 2963 4666 3353 4366 
Q 3744 4066 3744 3513 
Q 3744 3084 3544 2831 
Q 3344 2578 2956 2516 
Q 3422 2416 3680 2098 
Q 3938 1781 3938 1306 
Q 3938 681 3513 340 
Q 3088 0 2303 0 
L 628 0 
L 628 4666 
z
" transform="scale(0.015625)"/>
      <path id="DejaVuSans-75" d="M 544 1381 
L 544 3500 
L 1119 3500 
L 1119 1403 
Q 1119 906 1312 657 
Q 1506 409 1894 409 
Q 2359 409 2629 706 
Q 2900 1003 2900 1516 
L 2900 3500 
L 3475 3500 
L 3475 0 
L 2900 0 
L 2900 538 
Q 2691 219 2414 64 
Q 2138 -91 1772 -91 
Q 1169 -91 856 284 
Q 544 659 544 1381 
z
M 1991 3584 
L 1991 3584 
z
" transform="scale(0.015625)"/>
      <path id="DejaVuSans-63" d="M 3122 3366 
L 3122 2828 
Q 2878 2963 2633 3030 
Q 2388 3097 2138 3097 
Q 1578 3097 1268 2742 
Q 959 2388 959 1747 
Q 959 1106 1268 751 
Q 1578 397 2138 397 
Q 2388 397 2633 464 
Q 2878 531 3122 666 
L 3122 134 
Q 2881 22 2623 -34 
Q 2366 -91 2075 -91 
Q 1284 -91 818 406 
Q 353 903 353 1747 
Q 353 2603 823 3093 
Q 1294 3584 2113 3584 
Q 2378 3584 2631 3529 
Q 2884 3475 3122 3366 
z
" transform="scale(0.015625)"/>
      <path id="DejaVuSans-68" d="M 3513 2113 
L 3513 0 
L 2938 0 
L 2938 2094 
Q 2938 2591 2744 2837 
Q 2550 3084 2163 3084 
Q 1697 3084 1428 2787 
Q 1159 2491 1159 1978 
L 1159 0 
L 581 0 
L 581 4863 
L 1159 4863 
L 1159 2956 
Q 1366 3272 1645 3428 
Q 1925 3584 2291 3584 
Q 2894 3584 3203 3211 
Q 3513 2838 3513 2113 
z
" transform="scale(0.015625)"/>
     </defs>
     <use xlink:href="#DejaVuSans-42"/>
     <use xlink:href="#DejaVuSans-75" x="68.603516"/>
     <use xlink:href="#DejaVuSans-63" x="131.982422"/>
     <use xlink:href="#DejaVuSans-68" x="186.962891"/>
    </g>
   </g>
  </g>
 </g>
 <defs>
  <clipPath id="pc62a5802e8">
   <rect x="121.060186" y="41.472" width="230.199627" height="266.112"/>
  </clipPath>
 </defs>
</svg>
