<?xml version="1.0" encoding="utf-8" standalone="no"?>
<!DOCTYPE svg PUBLIC "-//W3C//DTD SVG 1.1//EN"
  "http://www.w3.org/Graphics/SVG/1.1/DTD/svg11.dtd">
<svg xmlns:xlink="http://www.w3.org/1999/xlink" width="720pt" height="720pt" viewBox="0 0 720 720" xmlns="http://www.w3.org/2000/svg" version="1.1">
 <metadata>
  <rdf:RDF xmlns:dc="http://purl.org/dc/elements/1.1/" xmlns:cc="http://creativecommons.org/ns#" xmlns:rdf="http://www.w3.org/1999/02/22-rdf-syntax-ns#">
   <cc:Work>
    <dc:type rdf:resource="http://purl.org/dc/dcmitype/StillImage"/>
    <dc:date>2024-10-17T11:38:37.097181</dc:date>
    <dc:format>image/svg+xml</dc:format>
    <dc:creator>
     <cc:Agent>
      <dc:title>Matplotlib v3.9.2, https://matplotlib.org/</dc:title>
     </cc:Agent>
    </dc:creator>
   </cc:Work>
  </rdf:RDF>
 </metadata>
 <defs>
  <style type="text/css">*{stroke-linejoin: round; stroke-linecap: butt}</style>
 </defs>
 <g id="figure_1">
  <g id="patch_1">
   <path d="M 0 720 
L 720 720 
L 720 0 
L 0 0 
z
" style="fill: #ffffff"/>
  </g>
  <g id="axes_1">
   <g id="patch_2">
    <path d="M 129.212772 640.8 
L 608.787228 640.8 
L 608.787228 86.4 
L 129.212772 86.4 
z
" style="fill: #ffffff"/>
   </g>
   <g id="PatchCollection_1">
    <path d="M 566.346724 438.360153 
L 566.3987 438.149893 
L 566.407892 438.112582 
L 566.467755 437.900144 
L 566.517338 437.704537 
L 566.604489 437.415016 
L 567.060624 435.800951 
L 567.420563 434.514252 
L 567.526645 434.140852 
L 567.788002 433.224919 
L 568.150199 431.93402 
L 568.511601 430.649838 
L 568.877426 429.356318 
L 568.899667 429.277463 
L 569.237586 428.076451 
L 569.605943 426.779061 
L 569.968662 425.490096 
L 570.332318 424.201113 
L 570.694706 422.912022 
L 571.057849 421.623787 
L 571.420942 420.336224 
L 571.783857 419.046386 
L 572.12718 417.84721 
L 572.147934 417.757664 
L 572.217522 417.52372 
L 572.286514 417.303122 
L 572.551693 416.474625 
L 572.956157 415.196531 
L 573.172569 414.515581 
L 573.816982 412.488311 
L 573.827665 412.458474 
L 573.948891 412.073306 
L 574.080739 411.658571 
L 575.006866 408.741023 
L 575.180352 408.198991 
L 575.361924 407.451285 
L 575.493284 406.89826 
L 575.673242 406.146768 
L 575.958379 404.947387 
L 575.984107 404.842797 
L 575.989937 404.814199 
L 576.293233 403.545227 
L 576.606011 402.236594 
L 576.916759 400.936379 
L 577.228738 399.630912 
L 577.304581 399.313685 
L 577.486391 398.309409 
L 577.725125 396.990776 
L 577.964581 395.668174 
L 578.103104 394.903063 
L 578.285861 394.372568 
L 578.44395 393.913608 
L 578.725057 393.097587 
L 578.994382 392.313235 
L 579.09303 392.025961 
L 579.16122 391.827694 
L 579.598727 390.558042 
L 579.664476 390.367867 
L 580.033881 389.294068 
L 581.095298 386.214953 
L 581.154099 385.913757 
L 581.193346 385.725065 
L 581.204088 385.673285 
L 581.295732 385.231537 
L 581.811719 382.766093 
L 582.079103 381.454781 
L 582.358836 380.145895 
L 582.633481 378.826729 
L 582.906609 377.514964 
L 583.180281 376.203524 
L 583.458374 374.892463 
L 583.732216 373.579344 
L 583.975447 372.396847 
L 584.355656 370.555479 
L 584.63408 367.119382 
L 584.675417 366.575046 
L 584.716744 366.027026 
L 584.880619 363.954176 
L 584.932901 363.294634 
L 585.01814 362.586303 
L 585.177465 361.255036 
L 585.337152 359.925035 
L 585.364936 359.69517 
L 585.470919 358.592418 
L 585.599255 357.258907 
L 585.616174 357.108935 
L 585.771351 355.519043 
L 585.898848 354.213022 
L 585.949412 353.786361 
L 586.047073 352.926945 
L 586.120805 352.051136 
L 586.267778 350.327803 
L 586.411546 348.598038 
L 586.554497 346.929599 
L 586.626181 346.120235 
L 586.660377 345.599097 
L 586.667784 345.330384 
L 586.676929 344.999024 
L 586.684448 344.726586 
L 586.694289 344.370984 
L 586.739044 343.509707 
L 586.988389 338.708027 
L 584.306926 338.995104 
L 581.671621 339.391478 
L 581.475643 339.421305 
L 580.874335 339.46476 
L 575.09121 339.883319 
L 574.758958 339.127629 
L 574.429789 338.372412 
L 574.361866 338.218624 
L 574.345738 338.181835 
L 573.053471 335.250457 
L 573.023198 335.084436 
L 572.841996 334.086829 
L 572.820451 333.97162 
L 572.783365 333.766742 
L 572.757126 333.621477 
L 572.693797 333.264567 
L 572.640614 332.982026 
L 571.752273 329.849024 
L 571.583112 329.33167 
L 571.528125 329.163411 
L 571.464938 328.970127 
L 571.463795 328.966532 
L 571.386032 328.714888 
L 571.384683 328.710523 
L 570.042509 324.586875 
L 570.003276 324.463253 
L 566.450832 325.408927 
L 563.632612 326.267939 
L 560.490316 327.318195 
L 558.903454 327.953381 
L 557.710997 328.429338 
L 555.292863 329.2931 
L 554.5859 329.543689 
L 553.517127 329.928928 
L 552.447137 330.313391 
L 552.22508 330.385184 
L 551.555655 330.627634 
L 551.393563 330.712596 
L 550.371715 331.224254 
L 549.349803 331.735917 
L 548.778049 332.024063 
L 548.38631 332.221182 
L 547.669369 332.580877 
L 547.440017 332.697584 
L 546.948716 332.945208 
L 546.225023 333.301428 
L 545.508717 333.665738 
L 544.548809 334.149265 
L 543.65202 334.601069 
L 542.939062 334.958884 
L 541.552855 335.654935 
L 540.888149 335.989309 
L 539.208205 334.661631 
L 536.845538 332.794355 
L 534.374408 330.62165 
L 532.319963 328.815299 
L 530.591262 327.295296 
L 530.420853 327.145383 
L 530.391104 327.119331 
L 530.072963 326.839672 
L 530.057849 326.826383 
L 529.862494 326.662916 
L 529.438169 326.310479 
L 529.088373 325.990202 
L 528.502175 325.480506 
L 528.285719 325.292283 
L 528.17368 325.1949 
L 528.115346 325.144179 
L 528.065588 325.10092 
L 527.895283 324.952882 
L 525.219707 322.616231 
L 523.569689 321.187102 
L 520.850754 318.832088 
L 520.371735 318.412049 
L 519.621309 317.746035 
L 518.720862 316.946846 
L 517.820411 316.147659 
L 517.511289 315.888196 
L 515.819601 314.367435 
L 515.75169 314.306396 
L 515.654104 314.232638 
L 515.423806 314.058613 
L 515.244947 313.923458 
L 515.159108 313.85857 
L 515.092616 313.801454 
L 513.595736 312.515 
L 509.029365 308.821151 
L 506.186695 306.521766 
L 504.235221 304.954202 
L 497.090924 301.919949 
L 495.125545 300.507379 
L 494.691108 300.251083 
L 491.061079 298.048837 
L 484.913982 294.152876 
L 484.688051 294.009639 
L 483.003448 292.920218 
L 482.824755 292.804676 
L 481.756522 292.113819 
L 480.111474 291.049989 
L 473.962098 287.073337 
L 471.238016 285.311846 
L 462.009271 279.344379 
L 460.619792 278.446029 
L 457.527774 276.446777 
L 453.404303 273.780744 
L 445.490199 268.750483 
L 442.16237 266.635443 
L 441.936597 266.491964 
L 441.08981 265.953789 
L 435.862805 258.569186 
L 435.719706 258.36702 
L 435.682157 258.313936 
L 435.311907 257.790959 
L 434.865451 257.160162 
L 433.26096 254.89349 
L 429.994034 250.278433 
L 429.812689 250.022262 
L 429.600407 249.722384 
L 429.420785 249.468723 
L 429.028454 248.914498 
L 429.014684 248.895046 
L 428.918015 248.758444 
L 428.872679 248.694401 
L 423.655387 241.324597 
L 423.395411 240.957313 
L 416.668653 231.455896 
L 416.967606 229.629108 
L 417.048507 229.134708 
L 417.132554 228.621279 
L 417.808649 224.489913 
L 418.749714 218.739863 
L 418.830448 218.24674 
L 419.559818 213.790417 
L 420.463419 208.269519 
L 420.534311 207.83624 
L 421.023767 204.845906 
L 421.568063 201.520527 
L 423.681923 188.606514 
L 423.711685 188.42477 
L 423.918469 187.161643 
L 425.385194 178.201421 
L 425.426161 177.951163 
L 426.360904 172.241346 
L 427.215041 167.02398 
L 427.287852 166.579338 
L 428.272522 160.564874 
L 428.401605 159.776447 
L 430.528796 146.784353 
L 421.263106 152.201644 
L 416.032759 155.328128 
L 414.976958 155.739073 
L 414.393367 155.966258 
L 409.560408 157.847408 
L 408.310823 158.475809 
L 396.13118 164.601499 
L 392.137503 166.735683 
L 383.273006 169.951942 
L 378.731339 174.111427 
L 373.70991 178.275719 
L 373.587199 178.377489 
L 373.130468 177.796713 
L 373.065593 177.714196 
L 372.974398 177.598266 
L 372.805619 177.301522 
L 372.369898 175.98042 
L 372.434515 174.578219 
L 372.296662 173.630593 
L 372.303085 172.956241 
L 372.40662 172.525944 
L 372.631229 171.944728 
L 372.894054 171.516816 
L 372.978473 171.28332 
L 372.90259 171.015296 
L 372.652658 170.517847 
L 371.728697 169.275376 
L 371.182478 168.283608 
L 370.415357 167.62452 
L 369.3379 167.237093 
L 368.492293 167.231644 
L 367.946852 167.077978 
L 367.704501 165.898651 
L 368.629361 163.166355 
L 371.189695 156.221012 
L 374.119584 148.565499 
L 374.196912 148.341132 
L 374.877111 146.367458 
L 375.695826 144.37115 
L 375.839267 144.021421 
L 375.884683 143.910636 
L 375.924312 143.813977 
L 375.962985 143.719617 
L 376.452656 142.525646 
L 378.459216 139.293984 
L 380.052676 137.213737 
L 384.461357 129.755302 
L 391.74327 117.436803 
L 392.814158 116.438827 
L 392.347728 115.720867 
L 390.116262 111.6 
L 380.101476 123.575696 
L 377.139597 120.683529 
L 375.610986 119.191863 
L 373.754257 117.040985 
L 372.173657 115.211386 
L 372.049389 115.326055 
L 371.116538 116.567018 
L 365.96503 123.420047 
L 363.288421 126.980937 
L 355.549365 137.846991 
L 354.790311 138.912841 
L 350.441267 145.019575 
L 350.315459 144.965965 
L 349.828018 144.758228 
L 349.574242 144.650117 
L 346.93067 148.399401 
L 338.340279 160.583849 
L 338.085378 160.94535 
L 328.991206 173.845559 
L 328.795599 174.123051 
L 328.060056 173.769942 
L 319.226586 169.529097 
L 315.398474 167.691377 
L 315.264009 167.626843 
L 314.778582 167.393787 
L 305.867132 163.116106 
L 301.359424 160.952437 
L 300.107357 160.351409 
L 299.969508 160.285279 
L 282.736501 182.92333 
L 281.665096 184.330961 
L 281.405866 184.498885 
L 280.353909 185.180425 
L 277.1154 188.74279 
L 264.865552 202.218506 
L 264.368449 202.765463 
L 264.155274 202.999952 
L 263.77246 203.428527 
L 261.057462 206.468056 
L 260.662381 206.910434 
L 260.318365 207.295561 
L 269.686699 211.290517 
L 274.605972 213.388407 
L 278.999618 216.943865 
L 284.600278 221.677969 
L 287.279347 223.929225 
L 287.407972 224.03736 
L 290.635401 226.749471 
L 291.303091 227.310597 
L 293.121351 228.888528 
L 295.026798 230.542126 
L 296.428642 231.731588 
L 296.836358 232.07758 
L 300.234173 234.960752 
L 301.532956 236.053811 
L 304.233306 238.32646 
L 305.256176 239.187368 
L 306.26338 240.03508 
L 307.309796 240.915793 
L 308.385075 241.820819 
L 309.459735 242.725325 
L 312.764631 245.507022 
L 313.737381 245.652262 
L 314.238111 245.727055 
L 322.384975 246.943679 
L 352.539392 251.448903 
L 352.915613 251.505095 
L 355.032688 251.821519 
L 363.096356 253.026791 
L 363.13246 253.542241 
L 363.140979 253.663743 
L 363.178949 254.204214 
L 363.844275 254.579864 
L 365.867824 257.398012 
L 366.486713 258.832482 
L 366.524679 259.309766 
L 366.299229 260.012487 
L 366.149732 261.724454 
L 365.4763 265.485671 
L 365.579462 265.836739 
L 365.661166 266.137404 
L 365.57616 266.699314 
L 365.521287 267.143122 
L 365.434487 267.1455 
L 365.430228 267.728612 
L 365.83355 268.052671 
L 365.689604 268.91019 
L 365.643636 269.183748 
L 365.583031 269.413257 
L 364.876408 271.008063 
L 363.553381 272.531127 
L 363.07443 272.819908 
L 362.019725 273.163666 
L 360.611618 274.165363 
L 359.450491 274.673947 
L 359.230855 274.831588 
L 359.043116 275.128595 
L 358.112559 275.774942 
L 357.052594 276.280179 
L 356.958171 276.544649 
L 356.506018 277.03141 
L 356.137416 277.634059 
L 355.321795 278.270735 
L 355.090041 278.528476 
L 354.60008 279.073401 
L 354.297455 279.409907 
L 353.972255 279.886468 
L 353.749966 280.212222 
L 353.162778 280.778179 
L 352.959405 280.974208 
L 352.449845 281.543542 
L 352.138505 281.891359 
L 351.588696 282.343685 
L 350.821714 282.974714 
L 349.809635 283.807489 
L 349.452234 284.101544 
L 349.044308 284.753082 
L 348.459384 285.687132 
L 347.933547 286.487857 
L 347.059529 287.818642 
L 346.721592 288.052851 
L 345.622527 288.502271 
L 343.897026 289.291889 
L 342.749253 289.221917 
L 342.444905 289.104034 
L 341.610996 288.781 
L 341.153834 288.878315 
L 340.695366 289.191485 
L 340.372981 289.509329 
L 339.574978 289.344207 
L 338.79798 289.501207 
L 338.199747 289.743049 
L 336.623073 289.857661 
L 336.146597 289.778699 
L 335.140969 289.290351 
L 333.982204 289.379852 
L 333.348284 289.669436 
L 332.713494 290.390292 
L 331.7445 290.708065 
L 331.166287 291.139925 
L 330.856121 291.371549 
L 327.871505 292.993463 
L 327.826002 293.041808 
L 326.934892 293.988262 
L 325.942057 294.875915 
L 324.7186 296.198474 
L 323.391236 296.573106 
L 323.061815 296.804144 
L 322.623581 297.401082 
L 322.41712 297.544865 
L 322.178684 297.587079 
L 321.988393 297.585783 
L 321.726672 297.614491 
L 321.326188 297.81723 
L 321.252081 297.922539 
L 321.253626 298.111531 
L 321.307447 298.46384 
L 321.221038 298.587972 
L 320.93558 298.456104 
L 320.702983 298.401907 
L 320.536536 298.421544 
L 320.335355 298.461423 
L 320.133494 298.513377 
L 319.483729 298.892646 
L 319.010183 299.428765 
L 318.24861 300.079858 
L 315.812009 302.268239 
L 314.480428 304.503565 
L 314.415282 304.693649 
L 314.116487 305.565091 
L 313.485397 307.495909 
L 312.883777 308.709866 
L 312.674576 309.044682 
L 312.570687 309.211003 
L 311.975794 309.952489 
L 311.578859 310.270684 
L 310.231326 310.470246 
L 309.034364 310.80268 
L 307.840861 311.134174 
L 305.580409 312.1297 
L 303.858768 313.055607 
L 302.313551 314.269892 
L 301.71527 314.970128 
L 301.361906 315.359032 
L 300.778434 316.001192 
L 300.596421 315.97065 
L 294.682217 314.978747 
L 294.47122 314.943336 
L 285.95462 313.515179 
L 285.134987 313.787871 
L 274.84664 312.490256 
L 269.772011 311.848549 
L 266.1919 311.395526 
L 266.226308 309.320263 
L 266.252002 304.149554 
L 266.031528 304.084212 
L 265.739268 303.997634 
L 264.395953 304.503045 
L 263.997777 303.629614 
L 263.595455 303.520147 
L 262.965714 303.348841 
L 262.57377 303.230775 
L 262.138022 303.099516 
L 261.186252 302.812864 
L 259.755098 302.654611 
L 258.227111 302.485654 
L 256.699123 302.316704 
L 256.54024 302.299156 
L 255.290748 302.160995 
L 253.779174 301.993849 
L 252.384065 301.839608 
L 251.055363 301.692719 
L 249.575275 301.578585 
L 248.22891 301.474705 
L 248.045574 301.464122 
L 247.211829 301.416119 
L 246.439863 301.415097 
L 245.416179 301.515868 
L 244.879371 301.681442 
L 243.532464 302.105872 
L 242.120016 302.466728 
L 241.253305 302.831677 
L 240.691542 303.297652 
L 239.12553 303.813274 
L 238.342793 304.134738 
L 235.8816 304.968243 
L 234.923296 305.214243 
L 233.761806 305.415593 
L 232.317141 305.362685 
L 230.920953 305.310276 
L 229.587082 305.26155 
L 228.328281 305.215694 
L 226.706843 305.155917 
L 226.509621 305.149266 
L 226.008845 306.551568 
L 224.629396 306.47229 
L 224.081927 308.229268 
L 221.389011 308.615607 
L 218.822926 308.983809 
L 219.008946 306.699072 
L 218.534972 306.296385 
L 217.787713 306.501141 
L 215.775557 307.052615 
L 215.256985 307.194725 
L 215.218208 307.460912 
L 214.906817 309.448985 
L 210.595209 336.977129 
L 208.882899 337.060464 
L 207.369755 337.371192 
L 206.21135 337.82988 
L 204.910259 338.175281 
L 203.333547 338.593882 
L 202.427785 338.834349 
L 201.534188 339.071605 
L 200.464491 339.384657 
L 198.491039 339.950207 
L 197.549641 340.16218 
L 196.707581 340.312628 
L 196.521279 340.346296 
L 195.662941 340.550706 
L 195.033617 340.699681 
L 194.932065 340.723667 
L 194.877199 340.736653 
L 194.434185 340.852295 
L 193.631615 341.069836 
L 192.103232 341.484091 
L 190.625557 342.199382 
L 190.535329 342.243091 
L 190.24469 342.397368 
L 190.115628 342.465911 
L 188.145064 343.104498 
L 186.537847 343.590853 
L 185.251372 344.034984 
L 184.545836 344.278577 
L 184.450631 344.311608 
L 183.979684 345.842451 
L 183.836044 346.345316 
L 183.606007 347.731404 
L 183.492216 349.129968 
L 183.448766 349.715683 
L 183.380067 350.64127 
L 183.324763 351.296795 
L 183.251919 352.160692 
L 182.758537 355.217837 
L 182.509905 356.642927 
L 182.357574 357.660192 
L 182.308077 357.99148 
L 182.291447 358.106156 
L 182.0572 360.40403 
L 182.180066 360.416966 
L 181.650102 365.241476 
L 182.118215 368.412086 
L 182.366527 370.092431 
L 182.71203 372.429938 
L 182.766069 372.795288 
L 182.861395 373.440295 
L 183.970785 380.958541 
L 184.096461 381.739782 
L 184.224659 382.541807 
L 184.630417 385.079628 
L 184.746826 385.854346 
L 184.747411 385.858244 
L 184.751084 385.882756 
L 185.352718 389.894413 
L 185.590047 391.479717 
L 178.632237 395.772633 
L 172.877478 395.522316 
L 172.130712 395.489764 
L 172.101679 395.488521 
L 167.121947 395.270777 
L 161.361819 395.023394 
L 155.604994 394.7747 
L 153.851542 396.496808 
L 153.689851 396.655467 
L 153.465604 396.875533 
L 153.422354 396.91809 
L 152.473024 397.849755 
L 152.266183 398.052689 
L 151.5379 398.767577 
L 151.471418 398.832822 
L 151.066968 399.229712 
L 151.011611 399.28406 
L 151.272762 401.446552 
L 151.638924 408.493826 
L 151.910123 417.43599 
L 152.081753 422.234819 
L 152.156997 424.337523 
L 152.152121 424.500323 
L 152.095566 426.516391 
L 152.307222 431.312402 
L 152.433348 434.187187 
L 152.541436 440.187703 
L 152.565077 441.479548 
L 153.66275 442.807191 
L 153.857535 446.353626 
L 153.828167 446.355207 
L 152.922611 446.396398 
L 153.005912 447.598757 
L 153.301911 452.875843 
L 153.800212 459.607647 
L 154.184955 462.451044 
L 154.294214 463.259103 
L 155.816765 470.342668 
L 156.118147 471.744964 
L 157.080124 475.99106 
L 157.869186 480.001926 
L 158.986834 480.134818 
L 159.233807 480.080502 
L 160.373712 483.229164 
L 160.927109 484.469493 
L 161.840533 486.516826 
L 163.35412 489.556619 
L 164.301187 492.311286 
L 165.795257 494.830135 
L 165.837904 494.892592 
L 166.149275 495.348942 
L 167.056675 496.678776 
L 167.803694 497.773638 
L 168.610879 498.956507 
L 168.747309 499.156559 
L 170.745668 502.001465 
L 172.457182 503.969222 
L 176.845091 508.924738 
L 178.326659 510.465079 
L 180.155708 512.366925 
L 184.571021 516.926605 
L 189.672522 521.887517 
L 195.369807 527.773375 
L 195.506695 527.924848 
L 200.057024 532.52924 
L 200.834936 533.319092 
L 201.035543 533.522788 
L 201.16505 533.654455 
L 203.66439 536.192165 
L 204.410595 536.950015 
L 205.163555 537.714555 
L 205.677458 538.236431 
L 206.156555 538.727369 
L 207.315252 539.914894 
L 208.203618 540.825322 
L 208.689811 541.323548 
L 209.933607 542.598218 
L 210.342465 543.017248 
L 210.69981 543.401883 
L 213.359179 546.146528 
L 213.752581 546.552429 
L 214.268755 547.084856 
L 214.519827 547.343349 
L 214.912737 547.723465 
L 215.766164 548.549036 
L 216.867004 549.689939 
L 217.692202 550.54521 
L 219.104066 552.008982 
L 223.550234 556.50419 
L 225.190394 558.223632 
L 225.40861 558.452357 
L 228.670834 561.872428 
L 229.254691 562.442009 
L 229.460567 562.667194 
L 229.755513 562.989802 
L 230.284501 563.601783 
L 232.368536 565.951902 
L 233.194049 566.887747 
L 233.676771 567.408331 
L 236.880713 571.422422 
L 237.161746 571.814834 
L 239.650607 575.290739 
L 241.950724 578.959836 
L 244.413973 583.494036 
L 246.407232 587.812257 
L 247.0529 589.382691 
L 247.260088 589.886665 
L 247.31745 590.026074 
L 247.356419 590.120784 
L 247.749253 591.136568 
L 247.81304 591.301502 
L 248.082645 592.059224 
L 248.140008 592.220544 
L 248.265239 592.572039 
L 249.264149 595.387611 
L 249.573177 596.249148 
L 250.895213 601.815019 
L 251.672752 605.68129 
L 252.11257 609.101482 
L 252.14519 609.355002 
L 252.568378 614.382985 
L 252.635079 615.6 
L 253.039362 615.10849 
L 254.540323 614.514717 
L 255.552602 614.114356 
L 256.327546 613.606277 
L 256.446359 613.528197 
L 257.251106 612.740126 
L 257.83695 611.756962 
L 258.048089 611.252067 
L 258.447576 610.296779 
L 258.808977 609.028116 
L 259.033146 608.708082 
L 259.032235 608.525239 
L 259.030499 608.185417 
L 259.33716 607.120497 
L 259.407593 606.875877 
L 259.539324 606.418529 
L 259.754296 605.672127 
L 260.063258 604.599051 
L 260.179635 604.194969 
L 260.634514 602.615592 
L 260.545593 602.552177 
L 261.707277 598.475361 
L 262.083189 597.15332 
L 262.835765 594.506409 
L 262.872909 594.375749 
L 263.38715 592.781897 
L 263.845997 591.670349 
L 264.092249 591.073774 
L 264.139115 590.960393 
L 265.065987 589.140485 
L 265.255607 588.821869 
L 265.348194 588.666362 
L 265.406608 588.568212 
L 266.002036 587.567838 
L 266.091913 587.416744 
L 266.827243 586.352248 
L 267.111851 585.940191 
L 267.663733 585.267283 
L 267.676743 585.251418 
L 267.940586 584.929704 
L 267.969161 584.894781 
L 268.51968 584.223578 
L 268.64029 584.113301 
L 268.761623 584.00254 
L 268.775514 583.989911 
L 268.821476 583.943424 
L 269.59134 583.165517 
L 269.624476 583.068983 
L 270.094763 582.621773 
L 270.532529 582.206087 
L 272.438956 580.396006 
L 273.433258 579.451926 
L 273.604317 579.511097 
L 275.495646 577.515014 
L 275.686061 577.314052 
L 276.337219 576.665491 
L 277.557854 575.449734 
L 277.950085 575.059093 
L 278.626629 574.385265 
L 278.937759 574.07537 
L 279.333982 573.680758 
L 280.686882 572.279777 
L 281.966403 570.954823 
L 283.807834 569.047908 
L 284.757151 568.064894 
L 284.924455 567.891638 
L 286.170957 566.648623 
L 288.276195 564.549388 
L 288.566668 564.259779 
L 290.055609 562.775576 
L 290.947581 561.886482 
L 293.352602 559.489366 
L 294.303965 558.618506 
L 295.275484 557.781054 
L 296.276436 556.960999 
L 297.230195 556.236372 
L 298.750472 555.081278 
L 302.188364 552.509581 
L 302.65129 552.151196 
L 303.208762 551.719619 
L 305.72381 549.628873 
L 310.482146 546.014104 
L 310.539934 545.967319 
L 313.905095 543.242972 
L 318.017676 540.077137 
L 321.989602 537.025591 
L 323.363906 535.89665 
L 324.603224 534.711766 
L 325.726357 533.538547 
L 326.812074 532.342679 
L 329.246646 529.259793 
L 329.452815 528.998757 
L 329.684106 528.709511 
L 329.734478 528.646522 
L 333.151646 524.313793 
L 336.624874 519.917322 
L 340.104201 515.504812 
L 340.057982 515.44864 
L 340.29971 515.143433 
L 341.210756 514.000587 
L 342.142504 512.775018 
L 342.391609 512.467779 
L 343.19955 511.471668 
L 343.334317 511.191457 
L 343.830728 510.592767 
L 345.284207 508.764159 
L 346.174782 507.634159 
L 346.683963 506.988095 
L 347.01264 506.570013 
L 347.057271 506.513246 
L 347.656603 505.842885 
L 348.400407 505.07899 
L 348.599576 504.905627 
L 349.163321 504.371848 
L 350.03577 503.738697 
L 351.202747 502.970764 
L 355.34072 500.248053 
L 355.56506 500.098884 
L 360.8214 496.594623 
L 362.091735 495.786339 
L 363.379491 495.090865 
L 363.823919 494.957532 
L 364.29172 494.731837 
L 365.084325 494.219426 
L 369.583391 492.25733 
L 376.004674 489.388884 
L 382.365817 486.568745 
L 382.348627 486.510746 
L 383.605538 485.879261 
L 383.986013 485.690421 
L 384.104122 485.756199 
L 384.187076 485.80242 
L 386.473816 484.809486 
L 387.486637 484.468697 
L 388.557428 484.158378 
L 388.899116 484.09158 
L 389.635393 483.947617 
L 390.796898 483.804512 
L 391.676718 483.807814 
L 391.799199 483.808305 
L 394.521341 484.039074 
L 394.588932 483.93298 
L 395.146897 483.865972 
L 395.173022 483.862806 
L 396.405579 483.911666 
L 396.656085 483.950663 
L 397.864394 484.13975 
L 397.956513 484.138876 
L 399.724755 484.157534 
L 401.12113 484.14546 
L 401.33397 484.137614 
L 401.546641 484.124881 
L 401.758877 484.107332 
L 401.970745 484.084967 
L 402.181975 484.057724 
L 402.652781 483.966838 
L 402.922142 483.923761 
L 404.267228 483.575405 
L 404.587895 483.461894 
L 404.861142 483.365198 
L 405.086523 483.264018 
L 406.669352 482.553175 
L 407.425704 482.120366 
L 407.843789 481.860337 
L 407.894914 481.879963 
L 407.793657 482.225575 
L 408.132746 482.461386 
L 408.953919 483.032311 
L 414.847112 487.121741 
L 421.003437 491.672435 
L 422.130307 492.505384 
L 427.204799 495.76853 
L 432.014661 498.576917 
L 437.172769 501.041887 
L 444.413294 504.365333 
L 445.453585 504.524686 
L 445.531108 504.557836 
L 446.068811 504.79827 
L 446.555379 505.015841 
L 447.03184 505.228976 
L 447.52644 505.450174 
L 448.740497 506.259876 
L 450.049929 506.847332 
L 451.834815 507.648224 
L 453.658896 508.470952 
L 454.160107 508.689207 
L 454.290298 508.745914 
L 454.48083 508.828895 
L 455.383348 509.136169 
L 462.01945 511.395274 
L 462.172037 511.439989 
L 463.515101 511.915363 
L 464.573156 512.313686 
L 465.604139 512.70179 
L 466.650067 513.095482 
L 467.71202 513.495274 
L 469.604841 514.221638 
L 473.341563 515.655455 
L 474.912153 516.144212 
L 475.95939 516.470163 
L 477.414958 517.04717 
L 480.614923 518.315652 
L 485.362892 520.197943 
L 488.419654 521.40972 
L 488.906307 521.617477 
L 491.334095 522.653706 
L 495.57209 524.462682 
L 496.437665 524.832084 
L 497.44256 525.261103 
L 498.155536 525.565474 
L 498.489139 525.661047 
L 498.861184 525.770897 
L 500.679595 526.307687 
L 504.243849 527.933802 
L 506.620641 526.155664 
L 506.999902 525.881158 
L 507.560999 525.473616 
L 507.578952 525.039644 
L 507.596955 524.611367 
L 507.605376 524.411111 
L 507.627412 523.887065 
L 507.719849 521.681704 
L 507.792776 519.951289 
L 507.842856 518.747684 
L 507.896914 517.53944 
L 507.903983 517.373988 
L 507.946287 516.33719 
L 507.954149 516.022632 
L 507.992387 515.125225 
L 508.041727 513.918151 
L 508.092508 512.712856 
L 508.143174 511.505219 
L 508.197903 510.300245 
L 508.215691 509.741846 
L 508.237442 509.220084 
L 508.24048 509.092306 
L 508.287711 507.88655 
L 508.343545 506.544256 
L 508.401945 505.20325 
L 508.457994 503.861622 
L 508.503607 502.826364 
L 508.514017 502.521938 
L 508.570348 501.180975 
L 508.62716 499.840671 
L 508.684172 498.500297 
L 508.740371 497.159337 
L 508.794808 495.820423 
L 508.862995 494.196379 
L 508.866878 494.132107 
L 508.938677 492.378934 
L 508.951231 492.123245 
L 509.039514 489.97801 
L 509.074143 489.125573 
L 509.088192 488.829046 
L 509.13833 487.62792 
L 509.23673 485.212373 
L 509.353755 482.417786 
L 510.208691 481.831332 
L 510.761563 481.451976 
L 511.440902 480.987777 
L 512.149217 480.503075 
L 512.165949 480.491471 
L 513.35781 479.676904 
L 513.40693 479.641844 
L 514.604715 478.822602 
L 514.714663 478.746745 
L 515.489722 478.216039 
L 517.614542 476.760227 
L 517.917795 476.555123 
L 517.983831 476.510868 
L 518.154886 476.404328 
L 518.562898 476.150213 
L 518.612752 476.121504 
L 518.639157 476.105946 
L 518.855159 475.978975 
L 520.25224 475.160911 
L 521.07358 474.680048 
L 521.819491 474.241492 
L 523.154845 473.458894 
L 523.376155 473.336439 
L 524.9031 472.460823 
L 525.525359 472.104042 
L 526.2552 471.685999 
L 526.413876 471.594528 
L 527.571167 470.931026 
L 528.375891 470.469623 
L 529.306881 469.935919 
L 530.091002 469.521785 
L 531.251622 468.908884 
L 532.143015 468.437587 
L 532.433448 468.284022 
L 533.615232 467.660104 
L 534.394321 467.247693 
L 535.070992 466.955938 
L 536.297143 466.42894 
L 537.529017 465.903839 
L 538.760013 465.38459 
L 539.986554 464.837027 
L 541.109002 464.367674 
L 541.209807 464.324246 
L 542.438684 463.79889 
L 542.969618 463.571142 
L 543.66697 463.273819 
L 544.895115 462.74822 
L 545.325194 462.564574 
L 547.439247 461.659438 
L 548.546322 461.185605 
L 549.137291 460.932973 
L 549.645884 460.690622 
L 550.732489 460.173062 
L 551.819231 459.655436 
L 552.906446 459.137938 
L 553.993535 458.620647 
L 554.597291 458.332986 
L 555.080416 458.102828 
L 556.231152 457.557562 
L 557.017418 457.18305 
L 557.375204 457.005537 
L 558.513846 456.440427 
L 559.652018 455.874996 
L 560.790445 455.312042 
L 561.932618 454.749083 
L 562.690805 454.373221 
L 563.447796 453.997586 
L 563.59168 453.219692 
L 563.826747 451.938645 
L 564.069693 450.631103 
L 564.311171 449.317091 
L 564.551748 447.998139 
L 564.795646 446.684614 
L 565.046416 445.337914 
L 565.262153 444.13687 
L 565.486245 442.939138 
L 566.195203 439.074752 
L 566.266924 438.684504 
L 566.268191 438.677844 
L 566.346724 438.360153 
" clip-path="url(#p3cd9bd1502)" style="fill: #d3d3d3"/>
    <path d="M 504.786382 528.160984 
L 505.765171 528.55183 
L 507.474262 527.629992 
L 507.521428 526.522743 
L 507.537831 526.121508 
L 507.166502 526.378665 
L 504.786382 528.160984 
" clip-path="url(#p3cd9bd1502)" style="fill: #d3d3d3"/>
   </g>
   <g id="matplotlib.axis_1">
    <g id="xtick_1">
     <g id="line2d_1">
      <defs>
       <path id="m9752a227a2" d="M 0 0 
L 0 3.5 
" style="stroke: #000000; stroke-width: 0.8"/>
      </defs>
      <g>
       <use xlink:href="#m9752a227a2" x="211.542795" y="640.8" style="stroke: #000000; stroke-width: 0.8"/>
      </g>
     </g>
     <g id="text_1">
      <!-- 13.44 -->
      <g transform="translate(197.228732 655.398438) scale(0.1 -0.1)">
       <defs>
        <path id="DejaVuSans-31" d="M 794 531 
L 1825 531 
L 1825 4091 
L 703 3866 
L 703 4441 
L 1819 4666 
L 2450 4666 
L 2450 531 
L 3481 531 
L 3481 0 
L 794 0 
L 794 531 
z
" transform="scale(0.015625)"/>
        <path id="DejaVuSans-33" d="M 2597 2516 
Q 3050 2419 3304 2112 
Q 3559 1806 3559 1356 
Q 3559 666 3084 287 
Q 2609 -91 1734 -91 
Q 1441 -91 1130 -33 
Q 819 25 488 141 
L 488 750 
Q 750 597 1062 519 
Q 1375 441 1716 441 
Q 2309 441 2620 675 
Q 2931 909 2931 1356 
Q 2931 1769 2642 2001 
Q 2353 2234 1838 2234 
L 1294 2234 
L 1294 2753 
L 1863 2753 
Q 2328 2753 2575 2939 
Q 2822 3125 2822 3475 
Q 2822 3834 2567 4026 
Q 2313 4219 1838 4219 
Q 1578 4219 1281 4162 
Q 984 4106 628 3988 
L 628 4550 
Q 988 4650 1302 4700 
Q 1616 4750 1894 4750 
Q 2613 4750 3031 4423 
Q 3450 4097 3450 3541 
Q 3450 3153 3228 2886 
Q 3006 2619 2597 2516 
z
" transform="scale(0.015625)"/>
        <path id="DejaVuSans-2e" d="M 684 794 
L 1344 794 
L 1344 0 
L 684 0 
L 684 794 
z
" transform="scale(0.015625)"/>
        <path id="DejaVuSans-34" d="M 2419 4116 
L 825 1625 
L 2419 1625 
L 2419 4116 
z
M 2253 4666 
L 3047 4666 
L 3047 1625 
L 3713 1625 
L 3713 1100 
L 3047 1100 
L 3047 0 
L 2419 0 
L 2419 1100 
L 313 1100 
L 313 1709 
L 2253 4666 
z
" transform="scale(0.015625)"/>
       </defs>
       <use xlink:href="#DejaVuSans-31"/>
       <use xlink:href="#DejaVuSans-33" x="63.623047"/>
       <use xlink:href="#DejaVuSans-2e" x="127.246094"/>
       <use xlink:href="#DejaVuSans-34" x="159.033203"/>
       <use xlink:href="#DejaVuSans-34" x="222.65625"/>
      </g>
     </g>
    </g>
    <g id="xtick_2">
     <g id="line2d_2">
      <g>
       <use xlink:href="#m9752a227a2" x="301.987657" y="640.8" style="stroke: #000000; stroke-width: 0.8"/>
      </g>
     </g>
     <g id="text_2">
      <!-- 13.46 -->
      <g transform="translate(287.673594 655.398438) scale(0.1 -0.1)">
       <defs>
        <path id="DejaVuSans-36" d="M 2113 2584 
Q 1688 2584 1439 2293 
Q 1191 2003 1191 1497 
Q 1191 994 1439 701 
Q 1688 409 2113 409 
Q 2538 409 2786 701 
Q 3034 994 3034 1497 
Q 3034 2003 2786 2293 
Q 2538 2584 2113 2584 
z
M 3366 4563 
L 3366 3988 
Q 3128 4100 2886 4159 
Q 2644 4219 2406 4219 
Q 1781 4219 1451 3797 
Q 1122 3375 1075 2522 
Q 1259 2794 1537 2939 
Q 1816 3084 2150 3084 
Q 2853 3084 3261 2657 
Q 3669 2231 3669 1497 
Q 3669 778 3244 343 
Q 2819 -91 2113 -91 
Q 1303 -91 875 529 
Q 447 1150 447 2328 
Q 447 3434 972 4092 
Q 1497 4750 2381 4750 
Q 2619 4750 2861 4703 
Q 3103 4656 3366 4563 
z
" transform="scale(0.015625)"/>
       </defs>
       <use xlink:href="#DejaVuSans-31"/>
       <use xlink:href="#DejaVuSans-33" x="63.623047"/>
       <use xlink:href="#DejaVuSans-2e" x="127.246094"/>
       <use xlink:href="#DejaVuSans-34" x="159.033203"/>
       <use xlink:href="#DejaVuSans-36" x="222.65625"/>
      </g>
     </g>
    </g>
    <g id="xtick_3">
     <g id="line2d_3">
      <g>
       <use xlink:href="#m9752a227a2" x="392.432519" y="640.8" style="stroke: #000000; stroke-width: 0.8"/>
      </g>
     </g>
     <g id="text_3">
      <!-- 13.48 -->
      <g transform="translate(378.118457 655.398438) scale(0.1 -0.1)">
       <defs>
        <path id="DejaVuSans-38" d="M 2034 2216 
Q 1584 2216 1326 1975 
Q 1069 1734 1069 1313 
Q 1069 891 1326 650 
Q 1584 409 2034 409 
Q 2484 409 2743 651 
Q 3003 894 3003 1313 
Q 3003 1734 2745 1975 
Q 2488 2216 2034 2216 
z
M 1403 2484 
Q 997 2584 770 2862 
Q 544 3141 544 3541 
Q 544 4100 942 4425 
Q 1341 4750 2034 4750 
Q 2731 4750 3128 4425 
Q 3525 4100 3525 3541 
Q 3525 3141 3298 2862 
Q 3072 2584 2669 2484 
Q 3125 2378 3379 2068 
Q 3634 1759 3634 1313 
Q 3634 634 3220 271 
Q 2806 -91 2034 -91 
Q 1263 -91 848 271 
Q 434 634 434 1313 
Q 434 1759 690 2068 
Q 947 2378 1403 2484 
z
M 1172 3481 
Q 1172 3119 1398 2916 
Q 1625 2713 2034 2713 
Q 2441 2713 2670 2916 
Q 2900 3119 2900 3481 
Q 2900 3844 2670 4047 
Q 2441 4250 2034 4250 
Q 1625 4250 1398 4047 
Q 1172 3844 1172 3481 
z
" transform="scale(0.015625)"/>
       </defs>
       <use xlink:href="#DejaVuSans-31"/>
       <use xlink:href="#DejaVuSans-33" x="63.623047"/>
       <use xlink:href="#DejaVuSans-2e" x="127.246094"/>
       <use xlink:href="#DejaVuSans-34" x="159.033203"/>
       <use xlink:href="#DejaVuSans-38" x="222.65625"/>
      </g>
     </g>
    </g>
    <g id="xtick_4">
     <g id="line2d_4">
      <g>
       <use xlink:href="#m9752a227a2" x="482.877382" y="640.8" style="stroke: #000000; stroke-width: 0.8"/>
      </g>
     </g>
     <g id="text_4">
      <!-- 13.50 -->
      <g transform="translate(468.563319 655.398438) scale(0.1 -0.1)">
       <defs>
        <path id="DejaVuSans-35" d="M 691 4666 
L 3169 4666 
L 3169 4134 
L 1269 4134 
L 1269 2991 
Q 1406 3038 1543 3061 
Q 1681 3084 1819 3084 
Q 2600 3084 3056 2656 
Q 3513 2228 3513 1497 
Q 3513 744 3044 326 
Q 2575 -91 1722 -91 
Q 1428 -91 1123 -41 
Q 819 9 494 109 
L 494 744 
Q 775 591 1075 516 
Q 1375 441 1709 441 
Q 2250 441 2565 725 
Q 2881 1009 2881 1497 
Q 2881 1984 2565 2268 
Q 2250 2553 1709 2553 
Q 1456 2553 1204 2497 
Q 953 2441 691 2322 
L 691 4666 
z
" transform="scale(0.015625)"/>
        <path id="DejaVuSans-30" d="M 2034 4250 
Q 1547 4250 1301 3770 
Q 1056 3291 1056 2328 
Q 1056 1369 1301 889 
Q 1547 409 2034 409 
Q 2525 409 2770 889 
Q 3016 1369 3016 2328 
Q 3016 3291 2770 3770 
Q 2525 4250 2034 4250 
z
M 2034 4750 
Q 2819 4750 3233 4129 
Q 3647 3509 3647 2328 
Q 3647 1150 3233 529 
Q 2819 -91 2034 -91 
Q 1250 -91 836 529 
Q 422 1150 422 2328 
Q 422 3509 836 4129 
Q 1250 4750 2034 4750 
z
" transform="scale(0.015625)"/>
       </defs>
       <use xlink:href="#DejaVuSans-31"/>
       <use xlink:href="#DejaVuSans-33" x="63.623047"/>
       <use xlink:href="#DejaVuSans-2e" x="127.246094"/>
       <use xlink:href="#DejaVuSans-35" x="159.033203"/>
       <use xlink:href="#DejaVuSans-30" x="222.65625"/>
      </g>
     </g>
    </g>
    <g id="xtick_5">
     <g id="line2d_5">
      <g>
       <use xlink:href="#m9752a227a2" x="573.322244" y="640.8" style="stroke: #000000; stroke-width: 0.8"/>
      </g>
     </g>
     <g id="text_5">
      <!-- 13.52 -->
      <g transform="translate(559.008181 655.398438) scale(0.1 -0.1)">
       <defs>
        <path id="DejaVuSans-32" d="M 1228 531 
L 3431 531 
L 3431 0 
L 469 0 
L 469 531 
Q 828 903 1448 1529 
Q 2069 2156 2228 2338 
Q 2531 2678 2651 2914 
Q 2772 3150 2772 3378 
Q 2772 3750 2511 3984 
Q 2250 4219 1831 4219 
Q 1534 4219 1204 4116 
Q 875 4013 500 3803 
L 500 4441 
Q 881 4594 1212 4672 
Q 1544 4750 1819 4750 
Q 2544 4750 2975 4387 
Q 3406 4025 3406 3419 
Q 3406 3131 3298 2873 
Q 3191 2616 2906 2266 
Q 2828 2175 2409 1742 
Q 1991 1309 1228 531 
z
" transform="scale(0.015625)"/>
       </defs>
       <use xlink:href="#DejaVuSans-31"/>
       <use xlink:href="#DejaVuSans-33" x="63.623047"/>
       <use xlink:href="#DejaVuSans-2e" x="127.246094"/>
       <use xlink:href="#DejaVuSans-35" x="159.033203"/>
       <use xlink:href="#DejaVuSans-32" x="222.65625"/>
      </g>
     </g>
    </g>
   </g>
   <g id="matplotlib.axis_2">
    <g id="ytick_1">
     <g id="line2d_6">
      <defs>
       <path id="m70dff506bf" d="M 0 0 
L -3.5 0 
" style="stroke: #000000; stroke-width: 0.8"/>
      </defs>
      <g>
       <use xlink:href="#m70dff506bf" x="129.212772" y="599.81317" style="stroke: #000000; stroke-width: 0.8"/>
      </g>
     </g>
     <g id="text_6">
      <!-- 52.61 -->
      <g transform="translate(93.584647 603.612388) scale(0.1 -0.1)">
       <use xlink:href="#DejaVuSans-35"/>
       <use xlink:href="#DejaVuSans-32" x="63.623047"/>
       <use xlink:href="#DejaVuSans-2e" x="127.246094"/>
       <use xlink:href="#DejaVuSans-36" x="159.033203"/>
       <use xlink:href="#DejaVuSans-31" x="222.65625"/>
      </g>
     </g>
    </g>
    <g id="ytick_2">
     <g id="line2d_7">
      <g>
       <use xlink:href="#m70dff506bf" x="129.212772" y="525.285523" style="stroke: #000000; stroke-width: 0.8"/>
      </g>
     </g>
     <g id="text_7">
      <!-- 52.62 -->
      <g transform="translate(93.584647 529.084742) scale(0.1 -0.1)">
       <use xlink:href="#DejaVuSans-35"/>
       <use xlink:href="#DejaVuSans-32" x="63.623047"/>
       <use xlink:href="#DejaVuSans-2e" x="127.246094"/>
       <use xlink:href="#DejaVuSans-36" x="159.033203"/>
       <use xlink:href="#DejaVuSans-32" x="222.65625"/>
      </g>
     </g>
    </g>
    <g id="ytick_3">
     <g id="line2d_8">
      <g>
       <use xlink:href="#m70dff506bf" x="129.212772" y="450.757877" style="stroke: #000000; stroke-width: 0.8"/>
      </g>
     </g>
     <g id="text_8">
      <!-- 52.63 -->
      <g transform="translate(93.584647 454.557096) scale(0.1 -0.1)">
       <use xlink:href="#DejaVuSans-35"/>
       <use xlink:href="#DejaVuSans-32" x="63.623047"/>
       <use xlink:href="#DejaVuSans-2e" x="127.246094"/>
       <use xlink:href="#DejaVuSans-36" x="159.033203"/>
       <use xlink:href="#DejaVuSans-33" x="222.65625"/>
      </g>
     </g>
    </g>
    <g id="ytick_4">
     <g id="line2d_9">
      <g>
       <use xlink:href="#m70dff506bf" x="129.212772" y="376.230231" style="stroke: #000000; stroke-width: 0.8"/>
      </g>
     </g>
     <g id="text_9">
      <!-- 52.64 -->
      <g transform="translate(93.584647 380.029449) scale(0.1 -0.1)">
       <use xlink:href="#DejaVuSans-35"/>
       <use xlink:href="#DejaVuSans-32" x="63.623047"/>
       <use xlink:href="#DejaVuSans-2e" x="127.246094"/>
       <use xlink:href="#DejaVuSans-36" x="159.033203"/>
       <use xlink:href="#DejaVuSans-34" x="222.65625"/>
      </g>
     </g>
    </g>
    <g id="ytick_5">
     <g id="line2d_10">
      <g>
       <use xlink:href="#m70dff506bf" x="129.212772" y="301.702584" style="stroke: #000000; stroke-width: 0.8"/>
      </g>
     </g>
     <g id="text_10">
      <!-- 52.65 -->
      <g transform="translate(93.584647 305.501803) scale(0.1 -0.1)">
       <use xlink:href="#DejaVuSans-35"/>
       <use xlink:href="#DejaVuSans-32" x="63.623047"/>
       <use xlink:href="#DejaVuSans-2e" x="127.246094"/>
       <use xlink:href="#DejaVuSans-36" x="159.033203"/>
       <use xlink:href="#DejaVuSans-35" x="222.65625"/>
      </g>
     </g>
    </g>
    <g id="ytick_6">
     <g id="line2d_11">
      <g>
       <use xlink:href="#m70dff506bf" x="129.212772" y="227.174938" style="stroke: #000000; stroke-width: 0.8"/>
      </g>
     </g>
     <g id="text_11">
      <!-- 52.66 -->
      <g transform="translate(93.584647 230.974157) scale(0.1 -0.1)">
       <use xlink:href="#DejaVuSans-35"/>
       <use xlink:href="#DejaVuSans-32" x="63.623047"/>
       <use xlink:href="#DejaVuSans-2e" x="127.246094"/>
       <use xlink:href="#DejaVuSans-36" x="159.033203"/>
       <use xlink:href="#DejaVuSans-36" x="222.65625"/>
      </g>
     </g>
    </g>
    <g id="ytick_7">
     <g id="line2d_12">
      <g>
       <use xlink:href="#m70dff506bf" x="129.212772" y="152.647292" style="stroke: #000000; stroke-width: 0.8"/>
      </g>
     </g>
     <g id="text_12">
      <!-- 52.67 -->
      <g transform="translate(93.584647 156.44651) scale(0.1 -0.1)">
       <defs>
        <path id="DejaVuSans-37" d="M 525 4666 
L 3525 4666 
L 3525 4397 
L 1831 0 
L 1172 0 
L 2766 4134 
L 525 4134 
L 525 4666 
z
" transform="scale(0.015625)"/>
       </defs>
       <use xlink:href="#DejaVuSans-35"/>
       <use xlink:href="#DejaVuSans-32" x="63.623047"/>
       <use xlink:href="#DejaVuSans-2e" x="127.246094"/>
       <use xlink:href="#DejaVuSans-36" x="159.033203"/>
       <use xlink:href="#DejaVuSans-37" x="222.65625"/>
      </g>
     </g>
    </g>
   </g>
   <g id="LineCollection_1">
    <path d="M 543.719188 368.295272 
L 542.419948 365.775492 
L 541.974507 364.912462 
L 541.650714 364.284194 
L 541.406513 363.810944 
L 541.287126 363.579163 
L 540.75938 362.555898 
L 540.48895 362.03495 
L 539.565056 360.257465 
L 539.469636 360.074873 
L 539.44386 360.025684 
L 539.357032 359.857997 
L 537.893635 357.043833 
" clip-path="url(#p3cd9bd1502)" style="fill: none; stroke: #ff0000; stroke-opacity: 0.7; stroke-width: 0.5"/>
    <path d="M 537.893635 357.043833 
L 544.800457 353.373347 
L 549.958075 349.630568 
L 552.112019 347.999903 
L 552.318686 347.891093 
" clip-path="url(#p3cd9bd1502)" style="fill: none; stroke: #ff0000; stroke-opacity: 0.7; stroke-width: 0.5"/>
    <path d="M 540.48895 362.03495 
L 542.09706 361.190552 
L 542.457482 361.001251 
L 542.699875 360.873809 
L 543.522923 360.441549 
L 544.596956 359.877374 
L 544.894067 359.721612 
L 545.858661 359.214824 
L 546.732811 358.755733 
L 546.781199 358.730394 
L 547.650826 358.273539 
L 547.765239 358.213172 
L 547.816793 358.186342 
L 548.82254 357.657941 
L 548.89987 357.617696 
L 549.162612 357.47982 
L 549.911496 357.086314 
L 550.573552 356.739015 
L 550.998191 356.515432 
L 551.203953 356.407367 
L 552.869495 355.533158 
L 553.029582 355.448942 
L 553.588984 355.155303 
L 554.723162 354.559082 
L 555.365321 354.222217 
" clip-path="url(#p3cd9bd1502)" style="fill: none; stroke: #ff0000; stroke-opacity: 0.7; stroke-width: 0.5"/>
    <path d="M 537.893635 357.043833 
L 537.709127 356.707714 
L 535.795314 353.217584 
" clip-path="url(#p3cd9bd1502)" style="fill: none; stroke: #ff0000; stroke-opacity: 0.7; stroke-width: 0.5"/>
    <path d="M 552.318686 347.891093 
L 552.483748 348.07294 
L 555.365321 354.222217 
L 558.656157 361.188316 
" clip-path="url(#p3cd9bd1502)" style="fill: none; stroke: #ff0000; stroke-opacity: 0.7; stroke-width: 0.5"/>
   </g>
   <g id="patch_3">
    <path d="M 129.212772 640.8 
L 129.212772 86.4 
" style="fill: none; stroke: #000000; stroke-width: 0.8; stroke-linejoin: miter; stroke-linecap: square"/>
   </g>
   <g id="patch_4">
    <path d="M 608.787228 640.8 
L 608.787228 86.4 
" style="fill: none; stroke: #000000; stroke-width: 0.8; stroke-linejoin: miter; stroke-linecap: square"/>
   </g>
   <g id="patch_5">
    <path d="M 129.212772 640.8 
L 608.787228 640.8 
" style="fill: none; stroke: #000000; stroke-width: 0.8; stroke-linejoin: miter; stroke-linecap: square"/>
   </g>
   <g id="patch_6">
    <path d="M 129.212772 86.4 
L 608.787228 86.4 
" style="fill: none; stroke: #000000; stroke-width: 0.8; stroke-linejoin: miter; stroke-linecap: square"/>
   </g>
   <g id="text_13">
    <!-- Buch -->
    <g transform="translate(343.824787 386.746021) scale(0.12 -0.12)">
     <defs>
      <path id="DejaVuSans-42" d="M 1259 2228 
L 1259 519 
L 2272 519 
Q 2781 519 3026 730 
Q 3272 941 3272 1375 
Q 3272 1813 3026 2020 
Q 2781 2228 2272 2228 
L 1259 2228 
z
M 1259 4147 
L 1259 2741 
L 2194 2741 
Q 2656 2741 2882 2914 
Q 3109 3088 3109 3444 
Q 3109 3797 2882 3972 
Q 2656 4147 2194 4147 
L 1259 4147 
z
M 628 4666 
L 2241 4666 
Q 2963 4666 3353 4366 
Q 3744 4066 3744 3513 
Q 3744 3084 3544 2831 
Q 3344 2578 2956 2516 
Q 3422 2416 3680 2098 
Q 3938 1781 3938 1306 
Q 3938 681 3513 340 
Q 3088 0 2303 0 
L 628 0 
L 628 4666 
z
" transform="scale(0.015625)"/>
      <path id="DejaVuSans-75" d="M 544 1381 
L 544 3500 
L 1119 3500 
L 1119 1403 
Q 1119 906 1312 657 
Q 1506 409 1894 409 
Q 2359 409 2629 706 
Q 2900 1003 2900 1516 
L 2900 3500 
L 3475 3500 
L 3475 0 
L 2900 0 
L 2900 538 
Q 2691 219 2414 64 
Q 2138 -91 1772 -91 
Q 1169 -91 856 284 
Q 544 659 544 1381 
z
M 1991 3584 
L 1991 3584 
z
" transform="scale(0.015625)"/>
      <path id="DejaVuSans-63" d="M 3122 3366 
L 3122 2828 
Q 2878 2963 2633 3030 
Q 2388 3097 2138 3097 
Q 1578 3097 1268 2742 
Q 959 2388 959 1747 
Q 959 1106 1268 751 
Q 1578 397 2138 397 
Q 2388 397 2633 464 
Q 2878 531 3122 666 
L 3122 134 
Q 2881 22 2623 -34 
Q 2366 -91 2075 -91 
Q 1284 -91 818 406 
Q 353 903 353 1747 
Q 353 2603 823 3093 
Q 1294 3584 2113 3584 
Q 2378 3584 2631 3529 
Q 2884 3475 3122 3366 
z
" transform="scale(0.015625)"/>
      <path id="DejaVuSans-68" d="M 3513 2113 
L 3513 0 
L 2938 0 
L 2938 2094 
Q 2938 2591 2744 2837 
Q 2550 3084 2163 3084 
Q 1697 3084 1428 2787 
Q 1159 2491 1159 1978 
L 1159 0 
L 581 0 
L 581 4863 
L 1159 4863 
L 1159 2956 
Q 1366 3272 1645 3428 
Q 1925 3584 2291 3584 
Q 2894 3584 3203 3211 
Q 3513 2838 3513 2113 
z
" transform="scale(0.015625)"/>
     </defs>
     <use xlink:href="#DejaVuSans-42"/>
     <use xlink:href="#DejaVuSans-75" x="68.603516"/>
     <use xlink:href="#DejaVuSans-63" x="131.982422"/>
     <use xlink:href="#DejaVuSans-68" x="186.962891"/>
    </g>
   </g>
  </g>
 </g>
 <defs>
  <clipPath id="p3cd9bd1502">
   <rect x="129.212772" y="86.4" width="479.574455" height="554.4"/>
  </clipPath>
 </defs>
</svg>
