<?xml version="1.0" encoding="utf-8" standalone="no"?>
<!DOCTYPE svg PUBLIC "-//W3C//DTD SVG 1.1//EN"
  "http://www.w3.org/Graphics/SVG/1.1/DTD/svg11.dtd">
<svg xmlns:xlink="http://www.w3.org/1999/xlink" width="720pt" height="720pt" viewBox="0 0 720 720" xmlns="http://www.w3.org/2000/svg" version="1.1">
 <metadata>
  <rdf:RDF xmlns:dc="http://purl.org/dc/elements/1.1/" xmlns:cc="http://creativecommons.org/ns#" xmlns:rdf="http://www.w3.org/1999/02/22-rdf-syntax-ns#">
   <cc:Work>
    <dc:type rdf:resource="http://purl.org/dc/dcmitype/StillImage"/>
    <dc:date>2024-10-22T09:54:13.751803</dc:date>
    <dc:format>image/svg+xml</dc:format>
    <dc:creator>
     <cc:Agent>
      <dc:title>Matplotlib v3.9.2, https://matplotlib.org/</dc:title>
     </cc:Agent>
    </dc:creator>
   </cc:Work>
  </rdf:RDF>
 </metadata>
 <defs>
  <style type="text/css">*{stroke-linejoin: round; stroke-linecap: butt}</style>
 </defs>
 <g id="figure_1">
  <g id="patch_1">
   <path d="M 0 720 
L 720 720 
L 720 0 
L 0 0 
z
" style="fill: #ffffff"/>
  </g>
  <g id="axes_1">
   <g id="patch_2">
    <path d="M 107.154469 640.8 
L 630.845531 640.8 
L 630.845531 86.4 
L 107.154469 86.4 
z
" style="fill: #ffffff"/>
   </g>
   <g id="PatchCollection_1">
    <path d="M 590.396451 380.421513 
L 589.328537 380.684638 
L 588.258081 380.937197 
L 587.185208 381.179058 
L 586.110047 381.410217 
L 585.619042 381.50737 
L 585.125979 381.592791 
L 584.630857 381.66648 
L 584.134313 381.728294 
L 583.63635 381.778361 
L 583.137346 381.816545 
L 582.783881 381.841117 
L 582.429842 381.857379 
L 582.075617 381.865579 
L 581.721198 381.865333 
L 581.361988 381.856747 
L 581.056593 381.850117 
L 580.746356 381.838477 
L 580.432612 381.824229 
L 578.391327 381.702731 
L 577.369294 381.634334 
L 576.343867 381.557183 
L 576.304979 381.560004 
L 576.263453 381.570313 
L 576.225734 381.590649 
L 576.194218 381.619677 
L 576.170779 381.655559 
L 573.656268 381.382934 
L 573.057131 380.972091 
L 572.330977 380.702478 
L 570.706166 380.131912 
L 569.840563 379.79114 
L 568.976001 379.390292 
L 567.183754 378.454465 
L 565.923668 377.794152 
L 563.926804 376.752959 
L 563.086199 376.289207 
L 562.379826 375.853203 
L 561.665648 375.388954 
L 561.573463 375.329246 
L 561.377546 375.16874 
L 561.155971 375.003323 
L 560.716699 374.663435 
L 560.173657 374.210074 
L 559.861021 373.945102 
L 559.119119 373.264722 
L 558.93722 373.086349 
L 558.479602 372.637795 
L 557.819598 372.00315 
L 557.400576 371.605559 
L 556.978902 371.209311 
L 556.549644 370.805429 
L 554.967615 369.157192 
L 554.717619 368.889361 
L 553.728729 367.745564 
L 552.827943 366.623028 
L 552.024609 365.594778 
L 550.700233 363.589736 
L 549.233359 360.762377 
L 548.419033 358.910041 
L 548.382845 358.797562 
L 547.978613 357.669274 
L 547.587693 356.658477 
L 547.500982 356.399024 
L 547.357102 355.859586 
L 546.933809 354.436984 
L 546.878373 354.287435 
L 546.709681 353.647034 
L 546.558963 352.988546 
L 546.418495 352.054911 
L 546.208494 350.34464 
L 546.130822 349.447832 
L 546.115959 349.268788 
L 546.070812 348.840249 
L 546.033488 348.153137 
L 546.021827 347.177971 
L 546.049091 346.046585 
L 546.126816 345.059485 
L 546.250106 344.021135 
L 546.350162 343.182432 
L 546.40611 342.834136 
L 546.583124 341.782631 
L 546.709077 341.080846 
L 546.72918 340.98345 
L 546.789167 340.677315 
L 547.008041 339.557872 
L 547.360466 337.412902 
L 547.480191 336.728932 
L 547.582953 336.256243 
L 547.83884 335.152075 
L 548.169739 333.97203 
L 548.409522 332.994615 
L 548.51203 332.527438 
L 548.608754 332.086389 
L 548.91086 330.73236 
L 549.454447 327.871162 
L 549.699409 325.967104 
L 549.851345 324.398759 
L 549.963974 322.627095 
L 549.993058 321.292078 
L 549.960844 319.99075 
L 549.818587 317.668523 
L 549.717973 317.105801 
L 549.482875 315.476011 
L 549.324962 314.987475 
L 549.069486 314.002089 
L 548.865428 312.992078 
L 548.859576 312.965452 
L 548.603277 311.900187 
L 548.323429 310.899361 
L 548.052967 310.039549 
L 547.672041 308.959506 
L 547.414609 308.2049 
L 546.892623 306.973709 
L 546.780748 306.72009 
L 546.33619 305.738837 
L 546.234678 305.530177 
L 545.754662 304.545777 
L 545.023492 303.106506 
L 544.21093 301.699471 
L 544.182305 301.571708 
L 544.219223 301.549724 
L 544.264164 301.515645 
L 544.299814 301.471923 
L 544.324057 301.42104 
L 544.335683 301.365839 
L 544.333869 301.309414 
L 544.318816 301.254961 
L 544.143804 300.988723 
L 543.796035 300.459907 
L 543.297721 299.7021 
L 542.741466 298.856182 
L 542.432612 298.386389 
L 542.256808 298.119146 
L 542.214625 298.084657 
L 542.165661 298.060697 
L 542.112503 298.048742 
L 542.0581 298.049237 
L 542.005135 298.062246 
L 541.956659 298.087059 
L 541.915928 298.115406 
L 541.390865 297.393265 
L 540.927356 296.759069 
L 540.82278 296.616936 
L 540.717449 296.475332 
L 540.611491 296.334255 
L 540.219904 295.82208 
L 539.819911 295.316503 
L 539.41139 294.817782 
L 538.994599 294.32604 
L 538.569538 293.841277 
L 538.136471 293.36387 
L 536.162837 291.224635 
L 534.788026 289.738093 
L 533.873634 288.746249 
L 531.646045 286.331358 
L 529.414692 283.920147 
L 527.179318 281.512624 
L 527.048616 281.395428 
L 526.463004 280.867923 
L 524.784602 279.456961 
L 523.474025 278.386118 
L 522.855403 277.906248 
L 520.826096 276.545323 
L 517.461597 274.326185 
L 514.896904 272.860056 
L 513.046818 271.892564 
L 512.175482 271.444447 
L 511.06131 270.941031 
L 508.254238 269.843315 
L 505.4758 268.868251 
L 502.817451 268.230488 
L 500.24072 267.840777 
L 497.727282 267.679826 
L 495.394801 267.69867 
L 491.601885 268.065373 
L 487.978701 268.441462 
L 484.467159 268.943909 
L 481.757413 269.417444 
L 479.098243 270.094169 
L 476.827698 270.893473 
L 476.107615 271.201051 
L 476.036259 271.230756 
L 474.314542 271.96631 
L 471.843344 273.321924 
L 469.508264 274.850945 
L 467.305523 276.561141 
L 465.971628 277.835057 
L 465.287525 278.486757 
L 463.316558 280.682351 
L 462.838191 281.353709 
L 462.292357 282.117553 
L 461.579051 283.11745 
L 460.040403 285.770707 
L 458.809614 288.457116 
L 458.047883 290.665343 
L 457.622755 292.769808 
L 457.525244 293.251481 
L 457.483923 293.4577 
L 457.021592 296.720549 
L 456.431722 300.887549 
L 456.423196 300.99889 
L 456.003101 303.973553 
L 455.841192 304.937917 
L 455.882705 305.383181 
L 455.961642 306.235133 
L 455.982859 306.411594 
L 456.052996 307.016756 
L 456.287996 307.631256 
L 456.329824 307.853716 
L 456.375027 309.480225 
L 456.445984 312.061211 
L 456.628206 318.573231 
L 456.381824 318.881424 
L 452.573403 323.639351 
L 452.410948 323.843406 
L 448.611641 328.628163 
L 448.529122 328.73227 
L 448.134245 329.229214 
L 439.186596 321.599613 
L 438.963369 321.409309 
L 438.628332 321.123665 
L 438.270617 320.818577 
L 438.171972 320.734581 
L 437.872009 319.343228 
L 431.435448 289.48836 
L 426.833793 268.14623 
L 426.745253 267.739586 
L 423.858267 254.34385 
L 423.598648 253.140809 
L 423.584467 253.074942 
L 423.407561 252.255248 
L 423.189384 251.244327 
L 423.174781 251.176806 
L 422.92159 250.003064 
L 421.438872 243.126861 
L 416.043635 218.107548 
L 410.699901 193.327288 
L 410.621684 192.964324 
L 410.399349 191.932506 
L 410.09167 190.504947 
L 409.738231 188.865083 
L 409.622324 188.326813 
L 411.256812 187.969446 
L 412.363803 187.727511 
L 413.907395 187.389309 
L 414.976324 186.961326 
L 416.563836 186.325809 
L 419.295578 185.231236 
L 419.739163 185.09473 
L 420.945744 184.723716 
L 426.637136 182.971295 
L 427.168886 182.807763 
L 431.429221 181.496559 
L 432.188029 181.262931 
L 435.083993 180.371634 
L 439.02736 179.157907 
L 438.887912 178.71596 
L 438.349264 177.007901 
L 438.011181 175.936013 
L 437.870041 175.487318 
L 438.970617 175.155054 
L 440.219051 174.138144 
L 440.729986 173.721968 
L 441.006581 173.496677 
L 442.046606 172.236493 
L 442.472062 171.721033 
L 442.99096 171.092377 
L 443.858537 170.041736 
L 441.662059 162.842215 
L 445.6748 158.195983 
L 442.828736 158.864804 
L 441.503202 158.551858 
L 429.490128 161.093988 
L 423.428988 162.421732 
L 415.229409 164.138917 
L 413.903859 164.417335 
L 412.723099 164.669829 
L 409.978215 165.253459 
L 409.847528 165.155366 
L 409.72382 164.600505 
L 409.325816 164.703428 
L 407.236605 165.248664 
L 406.81435 165.358046 
L 406.829374 165.290087 
L 406.756157 164.950054 
L 406.658739 164.498166 
L 406.550863 163.997737 
L 406.394555 163.272319 
L 406.286678 162.771891 
L 406.123628 162.014875 
L 406.021194 161.539672 
L 405.931812 161.125625 
L 405.917595 161.05961 
L 405.827218 160.639973 
L 404.722476 159.134582 
L 402.645822 154.348315 
L 400.407586 144.747046 
L 397.503077 132.281831 
L 396.175402 126.582235 
L 394.494417 119.366694 
L 392.799886 112.08707 
L 392.686505 111.6 
L 390.847632 112.031313 
L 387.174978 112.885716 
L 386.215612 113.113092 
L 385.166898 113.617859 
L 383.641952 113.973747 
L 383.184469 114.080514 
L 379.880527 114.855885 
L 376.22706 115.709903 
L 372.65616 116.542798 
L 370.750071 116.990896 
L 369.015483 117.396558 
L 365.355662 118.25079 
L 362.814075 118.841886 
L 362.108781 119.005709 
L 361.727626 119.097894 
L 358.315642 119.895125 
L 358.08698 119.951717 
L 354.427189 120.806013 
L 350.830959 121.64603 
L 347.196578 122.493368 
L 345.875097 122.80615 
L 343.956277 123.25463 
L 343.683073 123.318677 
L 343.492423 123.361576 
L 339.301686 125.547303 
L 339.060257 125.604203 
L 339.04311 125.608535 
L 338.920538 125.639502 
L 338.64095 125.703702 
L 338.533006 125.731851 
L 336.557336 126.207301 
L 336.169805 126.299651 
L 335.979156 126.342552 
L 335.921992 126.356702 
L 335.858442 126.371003 
L 335.731494 126.406002 
L 334.276693 126.753958 
L 333.703549 126.831474 
L 333.034781 126.917643 
L 330.09868 127.300488 
L 328.996789 127.441678 
L 327.078296 127.903006 
L 326.636836 127.874991 
L 326.529794 127.941535 
L 326.390976 128.015229 
L 324.014575 128.564179 
L 321.460602 129.168541 
L 321.155778 129.246148 
L 319.847395 129.571481 
L 317.928766 130.026439 
L 317.858982 130.04729 
L 316.060768 130.461002 
L 314.370799 130.859363 
L 314.339175 130.872913 
L 314.097751 130.929823 
L 312.865844 131.246965 
L 311.665261 131.537763 
L 311.010323 131.668445 
L 310.686797 131.765705 
L 310.533861 131.782116 
L 310.355685 131.811926 
L 310.202899 131.834736 
L 310.051315 131.908734 
L 309.73147 131.890668 
L 309.411025 131.847008 
L 308.707563 132.087674 
L 304.702686 133.475381 
L 304.316367 133.618941 
L 301.882393 134.162932 
L 299.937802 134.599351 
L 299.138574 134.842289 
L 298.956722 134.987429 
L 298.708916 135.044495 
L 297.501812 135.329071 
L 296.409035 135.585343 
L 295.76094 135.735087 
L 295.182778 135.870376 
L 294.572843 136.012818 
L 294.356962 136.069132 
L 294.151445 136.022766 
L 293.406977 136.149179 
L 289.595042 137.045862 
L 289.264686 137.124087 
L 287.22088 137.415639 
L 287.177691 137.480681 
L 287.09011 137.559576 
L 286.850346 137.68688 
L 285.504292 138.038784 
L 283.841559 138.507009 
L 282.883325 138.779333 
L 280.834436 139.397538 
L 278.81109 140.015146 
L 278.417944 140.139676 
L 276.173996 140.884148 
L 271.846792 142.414132 
L 271.403324 142.571867 
L 268.084233 143.777139 
L 266.319016 144.503923 
L 265.502318 144.817741 
L 265.330985 144.866609 
L 265.291923 144.835522 
L 263.867719 145.394192 
L 263.620825 145.489663 
L 263.615495 145.534605 
L 260.968843 146.538344 
L 259.468784 147.130829 
L 258.247091 147.607894 
L 255.670839 148.616392 
L 253.114353 149.650041 
L 251.221627 150.386289 
L 248.860515 151.306493 
L 247.595202 151.829426 
L 247.550811 151.843282 
L 244.032942 153.28387 
L 244.026332 153.286845 
L 244.427647 154.295078 
L 246.297925 158.993864 
L 245.834783 159.259256 
L 244.841158 159.654119 
L 244.367899 159.902211 
L 243.914699 160.188241 
L 243.468187 160.486917 
L 243.054654 160.829627 
L 243.134437 160.962184 
L 242.872172 161.218082 
L 242.629815 161.505521 
L 242.393994 161.799206 
L 242.196933 162.11118 
L 241.920948 162.597884 
L 241.69026 163.109123 
L 241.478876 163.626307 
L 241.312486 164.15523 
L 241.282978 164.258364 
L 241.259855 164.361347 
L 241.230498 164.47088 
L 241.220144 164.57356 
L 241.216325 164.682488 
L 241.212507 164.791416 
L 241.183814 165.470729 
L 241.161355 166.143492 
L 241.157989 166.271616 
L 241.154472 166.393341 
L 241.170109 166.514612 
L 241.19213 166.635732 
L 241.363319 167.393538 
L 241.475583 167.819826 
L 241.625701 168.22601 
L 241.794821 168.625341 
L 241.989177 169.011271 
L 242.20892 169.390197 
L 242.447212 169.743075 
L 242.697971 170.082853 
L 242.980199 170.402679 
L 243.274894 170.709405 
L 243.594523 170.989933 
L 244.10081 171.33006 
L 244.59478 171.689687 
L 245.082365 172.049465 
L 245.563866 172.422192 
L 246.039435 172.814266 
L 246.50862 173.206492 
L 246.971721 173.611667 
L 247.415819 174.023694 
L 247.860067 174.442121 
L 248.291847 174.873647 
L 248.71116 175.318273 
L 249.124088 175.763051 
L 249.446276 176.152358 
L 249.768615 176.548064 
L 250.078184 176.944072 
L 250.387753 177.34008 
L 250.697472 177.742488 
L 250.994423 178.145197 
L 252.185488 180.165701 
L 252.465093 180.645648 
L 252.738463 181.132146 
L 252.992982 181.631894 
L 253.234732 182.131944 
L 253.465975 182.728277 
L 253.581973 183.04244 
L 253.6846 183.33131 
L 253.896689 183.928096 
L 254.115312 184.53113 
L 254.321016 185.128067 
L 254.520637 185.737953 
L 255.048917 187.825369 
L 256.373396 193.069431 
L 256.52114 193.753083 
L 256.270764 193.815796 
L 253.733198 194.451933 
L 253.233181 194.577345 
L 251.55065 194.957136 
L 249.789362 195.350577 
L 248.383534 195.664541 
L 246.985716 195.976781 
L 245.690102 196.240372 
L 245.310969 194.947841 
L 245.390133 194.853214 
L 245.326942 194.611427 
L 245.251133 194.376341 
L 245.149787 194.14186 
L 245.042359 193.920328 
L 244.915928 193.705648 
L 244.758077 193.242026 
L 244.110184 191.772063 
L 243.745981 191.767886 
L 243.189937 190.94237 
L 242.620171 190.347659 
L 242.571256 190.169557 
L 242.486148 190.081942 
L 242.310558 190.220548 
L 241.630447 189.551626 
L 241.722589 189.39579 
L 241.835242 189.297088 
L 242.000327 189.254764 
L 241.876008 189.129665 
L 241.406682 188.731044 
L 241.087816 188.48251 
L 240.762867 188.246926 
L 240.431534 188.011493 
L 240.106736 187.782308 
L 239.518219 187.476143 
L 238.684987 187.086147 
L 237.857684 186.676804 
L 237.180541 186.404753 
L 237.081411 186.535146 
L 236.880134 186.667961 
L 236.350885 186.437221 
L 235.951587 186.299434 
L 235.648506 186.178573 
L 234.677985 185.926283 
L 234.112543 185.786033 
L 233.900654 185.739838 
L 233.688009 185.661651 
L 233.642715 185.637115 
L 233.603805 185.612429 
L 233.552278 185.594444 
L 233.507135 185.576307 
L 233.231855 185.550822 
L 232.956726 185.531736 
L 232.675515 185.525598 
L 232.40099 185.532106 
L 232.286224 185.541229 
L 232.171307 185.543953 
L 232.063076 185.559324 
L 231.948762 185.587643 
L 231.923225 185.588248 
L 231.897839 185.595252 
L 231.872453 185.602256 
L 231.847218 185.615659 
L 231.828065 185.616113 
L 231.80283 185.629516 
L 231.777746 185.649317 
L 231.758895 185.662568 
L 231.740195 185.682218 
L 231.721495 185.701868 
L 231.689876 185.715422 
L 231.658256 185.728976 
L 231.626637 185.74253 
L 231.594866 185.749686 
L 231.563247 185.76324 
L 231.531325 185.763997 
L 231.49302 185.764905 
L 231.461098 185.765662 
L 231.448865 185.247373 
L 230.50992 185.250429 
L 230.497152 185.250731 
L 230.484383 185.251034 
L 230.477999 185.251185 
L 230.465381 185.257887 
L 230.452613 185.25819 
L 230.446379 185.26474 
L 230.433762 185.271441 
L 230.427529 185.277991 
L 230.414911 185.284692 
L 230.408678 185.291242 
L 230.402444 185.297792 
L 230.396362 185.310741 
L 230.390129 185.317291 
L 230.384047 185.33024 
L 230.377813 185.33679 
L 230.371731 185.349738 
L 230.365498 185.356288 
L 230.3658 185.369085 
L 230.366102 185.381883 
L 230.36002 185.394831 
L 230.360171 185.40123 
L 230.360473 185.414027 
L 230.360775 185.426824 
L 230.367461 185.43947 
L 230.367613 185.445869 
L 230.367915 185.458666 
L 229.543887 185.458998 
L 229.021281 185.509804 
L 227.452105 185.604635 
L 226.158208 185.724952 
L 225.114508 185.890555 
L 224.757592 185.92463 
L 224.726465 185.688486 
L 224.458778 185.714042 
L 224.210244 185.739144 
L 224.082709 185.748572 
L 224.084371 185.818957 
L 222.586481 185.956924 
L 221.09558 186.120339 
L 217.338225 186.606432 
L 216.769954 187.157703 
L 216.273493 187.233507 
L 215.752099 187.335513 
L 215.655277 187.292995 
L 214.567195 187.472474 
L 213.823562 187.630973 
L 213.766103 187.632337 
L 213.715181 187.639948 
L 213.657873 187.647711 
L 213.606799 187.648923 
L 213.54919 187.643889 
L 213.497964 187.638702 
L 213.136665 187.487224 
L 212.463444 187.381563 
L 211.594697 187.651873 
L 209.661259 188.280378 
L 209.620382 188.172511 
L 209.542712 188.12954 
L 209.172576 188.144731 
L 209.091094 188.210687 
L 208.901835 188.311214 
L 208.045556 188.568429 
L 207.688946 188.61531 
L 207.286586 188.618463 
L 207.147797 188.692183 
L 207.073606 188.79638 
L 207.069945 188.911707 
L 205.290645 189.574978 
L 205.393066 189.854243 
L 205.203051 189.922778 
L 205.094398 189.650063 
L 203.328477 190.338631 
L 203.337887 190.466452 
L 203.38058 190.651102 
L 203.322668 190.633271 
L 203.271292 190.621687 
L 203.213531 190.610254 
L 203.155922 190.605221 
L 203.098312 190.600187 
L 203.040854 190.601552 
L 202.983396 190.602917 
L 202.926089 190.61068 
L 202.868934 190.624842 
L 202.805394 190.639156 
L 202.627997 190.70099 
L 202.199015 190.928855 
L 201.502954 191.207882 
L 201.336028 191.442327 
L 201.287829 191.565114 
L 201.003868 191.712708 
L 200.61655 191.811541 
L 200.297944 191.84472 
L 199.89589 191.860674 
L 198.985217 191.978345 
L 198.865127 192.032416 
L 198.7061 192.330696 
L 198.574907 192.455456 
L 198.36665 192.56284 
L 197.169722 193.001023 
L 196.89245 193.161265 
L 196.798958 193.25952 
L 196.587371 193.226135 
L 196.049558 193.443787 
L 193.635927 194.56392 
L 193.466279 194.683192 
L 193.404557 194.77429 
L 193.193727 194.772899 
L 193.048254 194.833977 
L 191.357735 195.738461 
L 190.91584 195.96024 
L 190.084662 196.197676 
L 189.800252 196.32608 
L 189.228077 196.711012 
L 187.767875 197.360344 
L 187.273546 197.525752 
L 186.803542 197.639364 
L 186.202804 197.896934 
L 186.035582 198.118586 
L 186.007449 198.27931 
L 186.035106 198.368283 
L 185.387689 198.812628 
L 183.069274 199.636036 
L 182.303764 199.948747 
L 179.076805 201.248339 
L 178.475013 201.461126 
L 175.170568 202.455277 
L 175.13196 202.443391 
L 174.838898 202.475975 
L 173.308668 202.864518 
L 173.138269 202.951802 
L 173.083996 203.08754 
L 170.476814 203.853847 
L 169.671039 204.084303 
L 168.921357 204.255805 
L 168.519463 204.278179 
L 168.263645 204.265063 
L 167.9642 204.297802 
L 167.679192 204.400621 
L 165.058205 204.853571 
L 164.880513 204.902618 
L 164.773652 204.975588 
L 164.755562 205.020834 
L 164.163815 205.118156 
L 163.883371 205.144042 
L 164.076094 205.459562 
L 164.215469 205.68032 
L 162.896547 205.820572 
L 162.681625 205.646429 
L 162.303308 205.316123 
L 161.274563 205.302216 
L 161.273652 205.263824 
L 161.156615 205.176981 
L 159.992894 205.127878 
L 159.71853 205.140816 
L 159.598902 205.214091 
L 158.177542 205.075096 
L 158.090451 204.904311 
L 154.95422 204.370835 
L 154.814985 204.425371 
L 153.676503 204.093981 
L 153.682431 204.074633 
L 153.688512 204.061683 
L 153.688208 204.048886 
L 153.687905 204.036089 
L 153.687601 204.023292 
L 153.687297 204.010495 
L 153.680458 203.991451 
L 153.680154 203.978654 
L 153.673467 203.966009 
L 153.666779 203.953364 
L 153.660091 203.940719 
L 153.653403 203.928074 
L 153.646716 203.915429 
L 153.633796 203.909334 
L 153.627108 203.896689 
L 153.614188 203.890595 
L 153.6075 203.87795 
L 153.59458 203.871856 
L 153.581509 203.859363 
L 153.568589 203.853269 
L 152.364897 203.465815 
L 151.069853 202.997312 
L 146.90226 212.976371 
L 147.048346 212.962327 
L 148.07375 212.857466 
L 148.255228 212.838926 
L 154.273409 212.248335 
L 154.263942 212.156241 
L 159.803503 211.724234 
L 164.784608 211.187391 
L 164.891338 211.335301 
L 162.787505 212.800426 
L 160.644034 214.484561 
L 158.76791 216.026608 
L 156.69286 218.154593 
L 154.480115 220.573582 
L 152.992124 222.368503 
L 151.604591 224.331971 
L 150.183946 226.584716 
L 148.776841 229.003856 
L 146.72845 232.978406 
L 145.480007 234.642918 
L 144.23076 237.209652 
L 142.897546 241.194945 
L 140.811337 248.458724 
L 139.46657 243.832297 
L 139.199897 243.888597 
L 138.804486 242.149457 
L 138.773529 242.013188 
L 138.71476 242.023682 
L 138.105705 240.411538 
L 137.576532 242.437405 
L 137.101985 244.434183 
L 136.554624 246.737444 
L 135.593925 250.779552 
L 135.554301 250.972609 
L 134.588213 255.679608 
L 134.119867 258.312881 
L 133.737589 260.724625 
L 133.396085 263.249999 
L 133.100741 265.841751 
L 132.909921 268.397077 
L 132.873555 269.08708 
L 132.770626 271.04567 
L 132.695198 271.005472 
L 132.654056 270.983534 
L 132.689855 271.146192 
L 132.734558 271.511588 
L 132.978895 272.951505 
L 133.245723 273.235669 
L 133.771789 274.032993 
L 133.912286 274.322734 
L 134.20144 275.240313 
L 134.291253 275.886202 
L 134.463672 277.487635 
L 136.290315 295.091245 
L 136.339502 295.683301 
L 136.718247 300.250441 
L 136.72741 300.378139 
L 136.740656 300.505611 
L 136.75772 300.63248 
L 136.787689 300.807954 
L 136.805598 300.895109 
L 137.703685 304.757009 
L 139.712581 313.474229 
L 140.63485 317.350153 
L 141.03838 318.970916 
L 141.537405 320.568274 
L 141.949406 321.835816 
L 142.255284 322.781426 
L 142.912586 324.891156 
L 142.646068 324.979462 
L 145.522928 335.346465 
L 148.403624 345.798539 
L 149.52897 349.829434 
L 149.598167 349.812035 
L 149.687515 349.789624 
L 150.188392 351.60006 
L 150.221093 351.691729 
L 150.265428 351.77851 
L 150.320589 351.858631 
L 150.385656 351.930962 
L 150.459452 351.994377 
L 150.540922 352.047493 
L 152.195123 356.865053 
L 152.176483 356.961004 
L 152.168195 357.058516 
L 152.169535 357.118305 
L 152.183033 357.253302 
L 152.206108 357.348401 
L 152.249418 357.515875 
L 152.819543 359.722574 
L 152.918302 360.084635 
L 153.005257 360.449793 
L 153.080266 360.817542 
L 153.143198 361.187626 
L 153.194166 361.559533 
L 153.232908 361.932883 
L 153.259175 362.259539 
L 153.297547 362.585009 
L 153.34814 362.90878 
L 153.410815 363.230342 
L 153.485436 363.549443 
L 154.345628 366.740507 
L 155.736445 371.900115 
L 156.144168 373.377762 
L 156.254067 373.838152 
L 156.447382 374.487724 
L 156.651726 375.133832 
L 156.867223 375.776345 
L 157.09374 376.41501 
L 157.331147 377.049703 
L 157.579436 377.680167 
L 157.693082 377.953907 
L 157.926698 378.498803 
L 158.087018 378.882701 
L 158.255051 379.263342 
L 158.430791 379.640471 
L 158.613981 380.013965 
L 158.804869 380.383562 
L 158.446053 380.618239 
L 157.286489 381.377133 
L 156.986411 381.573534 
L 157.423757 382.426387 
L 157.854415 383.282729 
L 158.278253 384.142307 
L 158.695275 385.005377 
L 159.010917 385.681101 
L 159.316834 386.361411 
L 159.612891 387.046053 
L 159.899081 387.734771 
L 160.175537 388.427691 
L 160.441865 389.124437 
L 160.698449 389.825001 
L 160.945031 390.529261 
L 161.181349 391.236967 
L 161.407527 391.947987 
L 161.623436 392.662197 
L 161.829072 393.379468 
L 162.053557 394.202312 
L 162.27182 395.026712 
L 162.48412 395.852791 
L 162.689806 396.680052 
L 162.889526 397.508864 
L 163.083021 398.339104 
L 163.486178 400.051315 
L 163.881458 401.765377 
L 164.268862 403.481292 
L 164.648514 405.198929 
L 165.019785 406.918686 
L 165.383174 408.640039 
L 165.73868 410.362989 
L 166.086435 412.08766 
L 166.300709 413.186172 
L 166.50901 414.285979 
L 166.711332 415.386825 
L 166.907549 416.488712 
L 167.097294 417.592418 
L 167.281061 418.697163 
L 167.458719 419.802821 
L 167.630399 420.909519 
L 167.709383 421.434925 
L 167.786455 421.960505 
L 168.021873 423.649951 
L 168.173088 424.814756 
L 168.315518 425.980667 
L 168.459296 427.252054 
L 168.592504 428.524717 
L 168.715136 429.7984 
L 168.827061 431.072979 
L 168.887293 431.841988 
L 168.942298 432.611378 
L 168.992203 433.381146 
L 169.036878 434.151166 
L 169.099662 435.637199 
L 169.163323 437.144012 
L 169.19367 438.198761 
L 169.214697 439.253603 
L 169.226279 440.30867 
L 169.228541 441.363831 
L 169.221351 442.418961 
L 169.204964 443.473926 
L 169.179249 444.528728 
L 169.144209 445.583369 
L 169.099578 446.63747 
L 169.045746 447.691278 
L 168.994508 448.649759 
L 168.934446 449.607682 
L 168.865684 450.564916 
L 168.788097 451.521591 
L 168.70168 452.477453 
L 168.60656 453.432497 
L 168.502734 454.386597 
L 168.390074 455.339754 
L 168.308178 455.974245 
L 168.217955 456.607653 
L 168.119399 457.239723 
L 168.01264 457.870452 
L 167.897797 458.499581 
L 167.77462 459.127243 
L 167.643228 459.753181 
L 167.503751 460.377391 
L 167.352593 460.999062 
L 167.195015 461.619221 
L 167.03101 462.237613 
L 166.860579 462.854237 
L 166.683842 463.468835 
L 166.500673 464.081409 
L 166.311204 464.692213 
L 166.115301 465.300865 
L 165.526228 467.0531 
L 164.389335 470.379505 
L 164.461033 470.403534 
L 164.478699 470.647935 
L 163.16677 474.120313 
L 162.886535 474.862037 
L 161.91457 477.398068 
L 161.820409 477.471504 
L 161.441688 478.35123 
L 160.72817 479.959441 
L 159.491573 482.69769 
L 159.340669 482.634446 
L 158.701348 484.086213 
L 158.053899 485.534333 
L 157.398321 486.978807 
L 156.734612 488.419505 
L 156.062772 489.856429 
L 155.532295 490.975634 
L 154.996786 492.092527 
L 154.456495 493.206974 
L 153.946277 494.248615 
L 153.431794 495.288053 
L 152.912922 496.32542 
L 152.802679 496.544443 
L 152.692309 496.76347 
L 152.581678 496.982247 
L 151.376501 499.351763 
L 150.28399 501.501817 
L 148.732655 504.582045 
L 148.76717 504.599789 
L 148.24778 505.690055 
L 146.649763 509.137738 
L 145.076221 512.658339 
L 143.572987 516.197627 
L 142.066375 520.088994 
L 141.116808 523.309693 
L 140.880788 524.922029 
L 140.792905 525.237704 
L 140.269661 527.117212 
L 140.05895 527.89102 
L 140.039244 527.965683 
L 139.85428 528.666476 
L 139.655647 529.443454 
L 139.463053 530.221951 
L 139.413626 530.425953 
L 139.364716 530.630199 
L 139.316189 530.834436 
L 138.777212 530.764069 
L 138.681616 530.792727 
L 138.409264 531.826017 
L 138.144876 532.861293 
L 137.888325 533.898559 
L 137.639611 534.937816 
L 137.407628 535.934162 
L 137.184633 536.932599 
L 136.970369 537.933004 
L 136.764959 538.935246 
L 136.5684 539.939198 
L 136.378903 540.944775 
L 136.197869 541.951814 
L 136.0253 542.960443 
L 135.861191 543.970407 
L 135.705544 544.981834 
L 135.554762 545.993785 
L 135.413587 547.007044 
L 135.281763 548.021488 
L 135.159548 549.037367 
L 135.046933 550.054169 
L 134.22056 557.6818 
L 133.985941 559.588609 
L 133.858861 560.539174 
L 133.721664 561.488444 
L 133.574341 562.436035 
L 133.416894 563.382074 
L 133.280869 564.122475 
L 133.135608 564.861048 
L 132.981111 565.597792 
L 132.817374 566.332581 
L 132.644521 567.065154 
L 134.812759 567.60765 
L 132.331363 574.989766 
L 132.015722 576.231397 
L 131.916827 576.620966 
L 132.010298 578.299578 
L 132.345129 581.077582 
L 132.039523 581.488604 
L 133.293124 583.982054 
L 133.60999 583.787289 
L 134.190926 584.67524 
L 134.111544 584.751913 
L 134.037262 584.833714 
L 133.968711 584.920245 
L 133.905881 585.01112 
L 133.826662 585.148482 
L 133.76076 585.292825 
L 133.709034 585.44272 
L 133.671581 585.596884 
L 133.649134 585.75389 
L 133.641535 585.912463 
L 133.649126 586.070929 
L 133.671751 586.228012 
L 133.709116 586.382183 
L 133.733251 586.376997 
L 134.486159 588.254599 
L 134.726434 588.824425 
L 134.95596 589.398605 
L 135.174606 589.977014 
L 135.382496 590.559521 
L 135.579366 591.145749 
L 135.765217 591.735697 
L 135.939911 592.328984 
L 136.104083 592.925467 
L 136.209843 593.339725 
L 136.398798 594.127048 
L 136.529204 594.731764 
L 136.648304 595.338927 
L 136.755835 595.948158 
L 136.852049 596.559325 
L 137.452778 597.033862 
L 138.530699 596.951926 
L 138.527771 597.059938 
L 138.485188 598.633728 
L 137.833638 598.691532 
L 137.13565 598.766963 
L 136.699396 598.831794 
L 136.26464 598.905937 
L 135.831513 598.989516 
L 135.400394 599.082396 
L 134.922195 599.682304 
L 134.914559 600.162142 
L 134.893634 600.641529 
L 134.859543 601.120206 
L 134.812147 601.597792 
L 134.751563 602.073772 
L 134.677788 602.548019 
L 134.590934 603.019889 
L 134.491126 603.48925 
L 134.374635 603.987309 
L 134.247487 604.482804 
L 134.109672 604.975353 
L 133.961316 605.464825 
L 133.802411 605.950963 
L 133.594092 606.555186 
L 133.379205 607.157004 
L 133.157625 607.75655 
L 132.929471 608.353436 
L 132.469461 609.547168 
L 132.254026 610.120446 
L 132.044127 610.695641 
L 131.839642 611.273012 
L 131.640817 611.852168 
L 131.51284 612.248065 
L 131.393486 612.646829 
L 131.282742 613.047949 
L 131.167975 613.483993 
L 131.060017 613.921795 
L 130.958608 614.361233 
L 134.841274 612.428152 
L 144.287992 607.862647 
L 147.87127 614.875468 
L 148.552513 614.52528 
L 149.120236 614.233372 
L 153.448866 612.007561 
L 154.309766 611.566538 
L 155.146769 611.135305 
L 156.30008 613.362938 
L 157.428582 615.6 
L 159.166983 614.707455 
L 159.432238 614.570912 
L 160.65305 613.941674 
L 158.369853 609.477129 
L 166.025012 605.541485 
L 166.407574 605.344403 
L 162.823835 598.332641 
L 164.369538 597.452385 
L 167.318642 595.774406 
L 168.484179 595.111288 
L 182.425499 587.175736 
L 183.968624 586.297511 
L 184.321618 586.096534 
L 185.280326 585.55092 
L 186.652542 585.646194 
L 188.024886 585.741469 
L 188.507402 585.775064 
L 188.989917 585.80866 
L 189.937568 585.702381 
L 190.885223 585.596232 
L 191.41254 585.537468 
L 191.939984 585.478702 
L 192.720341 585.343754 
L 193.500702 585.208935 
L 195.317025 584.895835 
L 195.695576 584.830624 
L 197.133351 584.58274 
L 198.150226 584.407092 
L 199.167102 584.231447 
L 199.93606 584.116498 
L 200.70502 584.00155 
L 201.431605 583.892603 
L 203.190113 583.628789 
L 203.999015 583.507518 
L 205.482066 583.284314 
L 206.654623 582.980651 
L 210.207571 582.211479 
L 210.496938 582.148779 
L 211.539072 581.923257 
L 213.554115 581.487305 
L 215.816864 580.997719 
L 220.651063 579.935956 
L 223.657306 579.203652 
L 227.574151 578.249371 
L 228.197087 578.097715 
L 248.416318 573.196548 
L 253.192447 572.038844 
L 253.728818 572.315139 
L 253.942054 572.906777 
L 254.262529 573.796269 
L 254.771798 575.210114 
L 254.931755 575.653843 
L 255.258932 576.562383 
L 255.465475 577.135613 
L 255.547574 577.36351 
L 256.081145 578.844516 
L 256.236048 579.27428 
L 256.308575 579.475257 
L 256.710197 580.590492 
L 257.111948 581.705852 
L 257.513819 582.820953 
L 257.915436 583.936189 
L 261.094385 582.815972 
L 261.315129 583.42869 
L 261.72421 583.298775 
L 270.313687 580.06 
L 270.739797 579.899341 
L 270.587449 579.507159 
L 274.418443 577.852751 
L 274.985134 577.589153 
L 275.060244 577.558055 
L 277.734715 576.309258 
L 278.372107 576.011596 
L 278.650076 575.881846 
L 278.607448 575.763004 
L 279.245762 575.542532 
L 279.8433 575.336341 
L 283.402725 573.978813 
L 283.429898 574.059351 
L 286.949939 572.758475 
L 288.137273 572.320425 
L 296.988463 568.910661 
L 296.908679 567.752846 
L 296.881987 567.366398 
L 297.154838 567.284794 
L 297.820734 567.085585 
L 298.994801 566.734301 
L 299.577272 566.560111 
L 299.818298 566.487966 
L 300.482847 567.81982 
L 310.262209 564.189612 
L 310.368457 564.277505 
L 315.150217 562.562767 
L 315.249005 562.386938 
L 318.021191 561.335249 
L 321.253283 560.108835 
L 321.93504 559.853363 
L 321.743593 559.319537 
L 321.623442 558.992527 
L 321.530531 558.738244 
L 322.860869 558.303549 
L 322.90855 558.40947 
L 324.384957 557.816787 
L 324.395177 557.811552 
L 324.341038 557.69157 
L 328.630259 556.035536 
L 328.724539 556.244844 
L 328.736038 556.239707 
L 329.153842 557.200313 
L 330.130186 556.849903 
L 331.244052 556.330823 
L 337.447251 553.682113 
L 350.564985 548.777121 
L 352.714406 547.963803 
L 354.218751 547.122128 
L 354.060556 546.265135 
L 357.360164 545.61557 
L 357.536917 546.638457 
L 357.938532 546.47677 
L 358.314086 546.325427 
L 361.820712 544.91274 
L 363.401675 544.371087 
L 363.558338 544.370862 
L 366.113548 544.370738 
L 369.382023 544.366159 
L 370.197393 544.365314 
L 383.333515 544.354179 
L 385.065893 544.352574 
L 385.516868 544.352362 
L 390.579384 544.613998 
L 391.740989 544.671514 
L 398.848372 545.026999 
L 404.827334 545.324628 
L 406.048907 545.385887 
L 411.200343 545.277863 
L 411.258751 544.644469 
L 411.356086 543.593763 
L 414.715029 543.882573 
L 414.601873 545.103947 
L 414.562983 545.522922 
L 416.182527 545.67117 
L 418.285875 545.863792 
L 420.301699 546.048355 
L 420.365736 545.502796 
L 426.734541 546.120454 
L 428.28646 546.270956 
L 428.778004 546.318739 
L 430.672694 546.505145 
L 431.15654 546.556823 
L 433.083012 546.764773 
L 434.417845 546.908844 
L 435.814375 547.059541 
L 436.116083 547.092179 
L 436.946708 547.181976 
L 436.939397 547.257437 
L 437.74282 547.303056 
L 438.499449 547.346056 
L 440.43257 547.455792 
L 442.281567 547.560841 
L 442.391835 546.372191 
L 442.396109 546.325355 
L 444.627403 546.523183 
L 446.717393 546.70849 
L 446.600543 547.965925 
L 448.522477 548.160328 
L 449.318533 548.240705 
L 449.900479 548.299709 
L 450.059305 548.315717 
L 452.514198 548.549154 
L 452.661103 548.563137 
L 453.647427 548.616924 
L 456.345208 548.764035 
L 456.622119 548.779079 
L 456.941235 548.813625 
L 458.552367 548.985355 
L 459.185579 549.052774 
L 459.446316 549.080618 
L 465.171281 549.69347 
L 465.19315 549.458382 
L 465.276347 548.56487 
L 468.14668 548.802373 
L 468.076651 549.581235 
L 468.473836 549.651226 
L 473.294798 550.15413 
L 473.194557 550.896819 
L 476.820279 551.212903 
L 478.059106 549.634808 
L 478.781423 549.701578 
L 478.968365 549.71873 
L 480.089009 549.822181 
L 480.29566 549.841307 
L 481.203509 549.925009 
L 481.469532 549.949666 
L 481.692304 549.970209 
L 482.527475 550.047284 
L 482.776223 550.070295 
L 483.718112 550.157305 
L 483.95739 550.179385 
L 484.659486 550.2442 
L 484.776475 550.251076 
L 485.143302 550.272873 
L 488.502384 550.62597 
L 488.964965 550.669481 
L 489.094332 550.681576 
L 489.197467 550.691209 
L 490.167408 550.782184 
L 490.308663 550.795527 
L 490.358071 550.800149 
L 491.281302 550.886581 
L 491.480922 550.905362 
L 492.336719 550.985555 
L 492.588544 551.009139 
L 494.11908 551.152747 
L 498.02436 551.477552 
L 500.230321 551.681377 
L 513.905984 552.945606 
L 514.074376 552.961279 
L 514.18352 552.971289 
L 517.048602 553.231931 
L 517.208535 553.246266 
L 517.357723 553.259698 
L 519.66844 553.466534 
L 522.745179 553.742255 
L 523.124154 553.776084 
L 524.316277 553.835057 
L 524.455915 553.838598 
L 525.509637 553.864683 
L 525.757916 553.861985 
L 532.719461 553.307253 
L 535.140797 552.908233 
L 535.675079 552.794797 
L 535.644482 553.134055 
L 538.112539 552.789789 
L 539.542189 552.590517 
L 545.813778 550.216187 
L 546.340387 549.96926 
L 546.600973 549.846948 
L 547.680977 549.307531 
L 548.758341 548.74769 
L 549.812526 548.157145 
L 550.913684 547.488431 
L 550.959052 547.019762 
L 551.450406 546.722183 
L 552.674696 545.905797 
L 553.903864 545.023998 
L 554.245003 544.784581 
L 554.817423 544.33685 
L 554.382211 544.295216 
L 556.302427 542.728542 
L 557.786807 541.517469 
L 558.104007 541.258635 
L 558.653276 540.831035 
L 557.797905 540.752918 
L 557.337144 540.71085 
L 557.187437 540.697164 
L 556.726803 540.655093 
L 556.575818 540.641309 
L 556.082043 540.596166 
L 555.928499 540.582185 
L 555.543356 540.546943 
L 555.434851 540.537039 
L 555.278746 540.522734 
L 554.994434 540.496806 
L 555.159252 540.318715 
L 556.084531 539.320022 
L 557.080233 538.135955 
L 557.822889 537.17428 
L 558.623565 536.048645 
L 559.350282 534.927159 
L 560.214882 533.476856 
L 560.644171 532.714265 
L 561.252256 531.591946 
L 561.46752 531.181441 
L 561.760793 530.621108 
L 563.572186 527.160727 
L 563.646893 527.017123 
L 563.649327 527.011945 
L 563.774708 526.773437 
L 565.016824 524.427558 
L 566.520122 521.588432 
L 571.64144 511.385538 
L 575.862055 503.261598 
L 576.342085 502.365057 
L 578.840705 497.460991 
L 580.774718 493.661197 
L 580.851327 493.511149 
L 580.943698 493.330261 
L 582.077406 491.219077 
L 582.135806 491.11004 
L 582.421688 490.576521 
L 581.368109 490.02318 
L 579.767782 489.183389 
L 576.77738 487.612526 
L 576.409383 487.41938 
L 567.73316 482.866375 
L 567.203843 482.588622 
L 563.453622 480.620698 
L 562.285236 480.007565 
L 561.256192 479.467645 
L 561.231921 479.456172 
L 554.242976 475.787688 
L 568.158915 468.312272 
L 568.241786 468.267713 
L 573.566573 465.407409 
L 575.679389 464.277653 
L 577.74599 463.048332 
L 578.993341 462.193437 
L 579.718854 461.696474 
L 581.59935 460.226015 
L 582.010911 459.864751 
L 583.392553 458.652203 
L 585.080829 456.98556 
L 586.422037 455.52491 
L 587.11591 454.60704 
L 588.574708 452.678875 
L 588.766444 452.426033 
L 588.452983 452.311645 
L 588.440491 452.307069 
L 588.441679 452.3032 
L 587.810829 452.203327 
L 587.559791 452.304273 
L 587.220802 452.440034 
L 586.891722 452.484782 
L 586.242929 452.404277 
L 567.064732 445.319076 
L 566.449708 445.091839 
L 565.608179 444.694688 
L 564.961254 444.37997 
L 564.890739 444.345752 
L 564.48339 444.142001 
L 564.218028 444.009352 
L 563.568016 443.621721 
L 562.349709 442.845977 
L 561.367524 442.059126 
L 561.1022 441.778715 
L 560.648393 441.299341 
L 560.046265 440.45208 
L 559.589374 439.523472 
L 559.233026 438.535683 
L 558.953145 437.507963 
L 558.767179 436.78153 
L 558.707956 436.550375 
L 559.066689 436.511967 
L 560.222244 436.387861 
L 560.333966 436.375923 
L 562.367119 436.157849 
L 562.784311 436.112581 
L 565.657427 435.79105 
L 565.896008 435.764522 
L 565.930143 435.771669 
L 565.960678 435.788888 
L 565.98451 435.814456 
L 565.999668 435.845988 
L 566.097129 436.251292 
L 566.146597 436.386256 
L 566.212372 436.513928 
L 566.293514 436.632408 
L 566.388704 436.739808 
L 566.496627 436.834492 
L 566.615333 436.914969 
L 566.74326 436.979996 
L 566.878089 437.028601 
L 567.01801 437.05993 
L 567.160715 437.073525 
L 567.304031 437.069307 
L 567.445654 437.047075 
L 567.583428 437.007389 
L 567.71532 436.950811 
L 567.839055 436.878287 
L 567.952739 436.79076 
L 567.991887 436.755025 
L 568.029332 436.717409 
L 568.065078 436.678167 
L 568.129232 436.597037 
L 568.185856 436.510576 
L 568.234579 436.419304 
L 568.274781 436.324005 
L 568.306478 436.225445 
L 568.329052 436.124407 
L 568.307969 435.930013 
L 568.257421 435.465618 
L 568.218935 435.103506 
L 570.117618 433.699559 
L 573.032501 433.38324 
L 574.200012 433.256706 
L 603.443316 430.085226 
L 604.593898 429.960549 
L 604.740014 429.222713 
L 605.982459 422.950717 
L 606.794053 420.32909 
L 605.191528 420.494171 
L 605.396907 419.834224 
L 607.041392 414.528119 
L 605.665907 413.087407 
L 605.146765 412.543056 
L 603.38167 410.693291 
L 603.10854 410.406385 
L 601.946736 409.189427 
L 600.479495 407.652766 
L 600.073519 405.088348 
L 599.196764 403.860835 
L 598.782007 403.280144 
L 598.376357 402.712303 
L 596.326295 399.791533 
L 595.404252 398.478003 
L 595.032588 397.13958 
L 593.974255 393.322495 
L 592.272171 387.189013 
L 591.809662 385.522086 
L 591.422424 384.123589 
L 590.909997 382.274586 
L 590.786308 381.828143 
L 590.738391 381.655112 
L 590.704756 381.531048 
L 590.651282 381.338555 
L 590.552272 380.982196 
L 590.403543 380.447029 
L 590.396451 380.421513 
" clip-path="url(#p123f78405e)" style="fill: #d3d3d3"/>
   </g>
   <g id="matplotlib.axis_1">
    <g id="xtick_1">
     <g id="line2d_1">
      <defs>
       <path id="m9295c429f7" d="M 0 0 
L 0 3.5 
" style="stroke: #000000; stroke-width: 0.8"/>
      </defs>
      <g>
       <use xlink:href="#m9295c429f7" x="120.58919" y="640.8" style="stroke: #000000; stroke-width: 0.8"/>
      </g>
     </g>
     <g id="text_1">
      <!-- 13.28 -->
      <g transform="translate(106.275127 655.398438) scale(0.1 -0.1)">
       <defs>
        <path id="DejaVuSans-31" d="M 794 531 
L 1825 531 
L 1825 4091 
L 703 3866 
L 703 4441 
L 1819 4666 
L 2450 4666 
L 2450 531 
L 3481 531 
L 3481 0 
L 794 0 
L 794 531 
z
" transform="scale(0.015625)"/>
        <path id="DejaVuSans-33" d="M 2597 2516 
Q 3050 2419 3304 2112 
Q 3559 1806 3559 1356 
Q 3559 666 3084 287 
Q 2609 -91 1734 -91 
Q 1441 -91 1130 -33 
Q 819 25 488 141 
L 488 750 
Q 750 597 1062 519 
Q 1375 441 1716 441 
Q 2309 441 2620 675 
Q 2931 909 2931 1356 
Q 2931 1769 2642 2001 
Q 2353 2234 1838 2234 
L 1294 2234 
L 1294 2753 
L 1863 2753 
Q 2328 2753 2575 2939 
Q 2822 3125 2822 3475 
Q 2822 3834 2567 4026 
Q 2313 4219 1838 4219 
Q 1578 4219 1281 4162 
Q 984 4106 628 3988 
L 628 4550 
Q 988 4650 1302 4700 
Q 1616 4750 1894 4750 
Q 2613 4750 3031 4423 
Q 3450 4097 3450 3541 
Q 3450 3153 3228 2886 
Q 3006 2619 2597 2516 
z
" transform="scale(0.015625)"/>
        <path id="DejaVuSans-2e" d="M 684 794 
L 1344 794 
L 1344 0 
L 684 0 
L 684 794 
z
" transform="scale(0.015625)"/>
        <path id="DejaVuSans-32" d="M 1228 531 
L 3431 531 
L 3431 0 
L 469 0 
L 469 531 
Q 828 903 1448 1529 
Q 2069 2156 2228 2338 
Q 2531 2678 2651 2914 
Q 2772 3150 2772 3378 
Q 2772 3750 2511 3984 
Q 2250 4219 1831 4219 
Q 1534 4219 1204 4116 
Q 875 4013 500 3803 
L 500 4441 
Q 881 4594 1212 4672 
Q 1544 4750 1819 4750 
Q 2544 4750 2975 4387 
Q 3406 4025 3406 3419 
Q 3406 3131 3298 2873 
Q 3191 2616 2906 2266 
Q 2828 2175 2409 1742 
Q 1991 1309 1228 531 
z
" transform="scale(0.015625)"/>
        <path id="DejaVuSans-38" d="M 2034 2216 
Q 1584 2216 1326 1975 
Q 1069 1734 1069 1313 
Q 1069 891 1326 650 
Q 1584 409 2034 409 
Q 2484 409 2743 651 
Q 3003 894 3003 1313 
Q 3003 1734 2745 1975 
Q 2488 2216 2034 2216 
z
M 1403 2484 
Q 997 2584 770 2862 
Q 544 3141 544 3541 
Q 544 4100 942 4425 
Q 1341 4750 2034 4750 
Q 2731 4750 3128 4425 
Q 3525 4100 3525 3541 
Q 3525 3141 3298 2862 
Q 3072 2584 2669 2484 
Q 3125 2378 3379 2068 
Q 3634 1759 3634 1313 
Q 3634 634 3220 271 
Q 2806 -91 2034 -91 
Q 1263 -91 848 271 
Q 434 634 434 1313 
Q 434 1759 690 2068 
Q 947 2378 1403 2484 
z
M 1172 3481 
Q 1172 3119 1398 2916 
Q 1625 2713 2034 2713 
Q 2441 2713 2670 2916 
Q 2900 3119 2900 3481 
Q 2900 3844 2670 4047 
Q 2441 4250 2034 4250 
Q 1625 4250 1398 4047 
Q 1172 3844 1172 3481 
z
" transform="scale(0.015625)"/>
       </defs>
       <use xlink:href="#DejaVuSans-31"/>
       <use xlink:href="#DejaVuSans-33" x="63.623047"/>
       <use xlink:href="#DejaVuSans-2e" x="127.246094"/>
       <use xlink:href="#DejaVuSans-32" x="159.033203"/>
       <use xlink:href="#DejaVuSans-38" x="222.65625"/>
      </g>
     </g>
    </g>
    <g id="xtick_2">
     <g id="line2d_2">
      <g>
       <use xlink:href="#m9295c429f7" x="207.244898" y="640.8" style="stroke: #000000; stroke-width: 0.8"/>
      </g>
     </g>
     <g id="text_2">
      <!-- 13.29 -->
      <g transform="translate(192.930836 655.398438) scale(0.1 -0.1)">
       <defs>
        <path id="DejaVuSans-39" d="M 703 97 
L 703 672 
Q 941 559 1184 500 
Q 1428 441 1663 441 
Q 2288 441 2617 861 
Q 2947 1281 2994 2138 
Q 2813 1869 2534 1725 
Q 2256 1581 1919 1581 
Q 1219 1581 811 2004 
Q 403 2428 403 3163 
Q 403 3881 828 4315 
Q 1253 4750 1959 4750 
Q 2769 4750 3195 4129 
Q 3622 3509 3622 2328 
Q 3622 1225 3098 567 
Q 2575 -91 1691 -91 
Q 1453 -91 1209 -44 
Q 966 3 703 97 
z
M 1959 2075 
Q 2384 2075 2632 2365 
Q 2881 2656 2881 3163 
Q 2881 3666 2632 3958 
Q 2384 4250 1959 4250 
Q 1534 4250 1286 3958 
Q 1038 3666 1038 3163 
Q 1038 2656 1286 2365 
Q 1534 2075 1959 2075 
z
" transform="scale(0.015625)"/>
       </defs>
       <use xlink:href="#DejaVuSans-31"/>
       <use xlink:href="#DejaVuSans-33" x="63.623047"/>
       <use xlink:href="#DejaVuSans-2e" x="127.246094"/>
       <use xlink:href="#DejaVuSans-32" x="159.033203"/>
       <use xlink:href="#DejaVuSans-39" x="222.65625"/>
      </g>
     </g>
    </g>
    <g id="xtick_3">
     <g id="line2d_3">
      <g>
       <use xlink:href="#m9295c429f7" x="293.900606" y="640.8" style="stroke: #000000; stroke-width: 0.8"/>
      </g>
     </g>
     <g id="text_3">
      <!-- 13.30 -->
      <g transform="translate(279.586544 655.398438) scale(0.1 -0.1)">
       <defs>
        <path id="DejaVuSans-30" d="M 2034 4250 
Q 1547 4250 1301 3770 
Q 1056 3291 1056 2328 
Q 1056 1369 1301 889 
Q 1547 409 2034 409 
Q 2525 409 2770 889 
Q 3016 1369 3016 2328 
Q 3016 3291 2770 3770 
Q 2525 4250 2034 4250 
z
M 2034 4750 
Q 2819 4750 3233 4129 
Q 3647 3509 3647 2328 
Q 3647 1150 3233 529 
Q 2819 -91 2034 -91 
Q 1250 -91 836 529 
Q 422 1150 422 2328 
Q 422 3509 836 4129 
Q 1250 4750 2034 4750 
z
" transform="scale(0.015625)"/>
       </defs>
       <use xlink:href="#DejaVuSans-31"/>
       <use xlink:href="#DejaVuSans-33" x="63.623047"/>
       <use xlink:href="#DejaVuSans-2e" x="127.246094"/>
       <use xlink:href="#DejaVuSans-33" x="159.033203"/>
       <use xlink:href="#DejaVuSans-30" x="222.65625"/>
      </g>
     </g>
    </g>
    <g id="xtick_4">
     <g id="line2d_4">
      <g>
       <use xlink:href="#m9295c429f7" x="380.556314" y="640.8" style="stroke: #000000; stroke-width: 0.8"/>
      </g>
     </g>
     <g id="text_4">
      <!-- 13.31 -->
      <g transform="translate(366.242252 655.398438) scale(0.1 -0.1)">
       <use xlink:href="#DejaVuSans-31"/>
       <use xlink:href="#DejaVuSans-33" x="63.623047"/>
       <use xlink:href="#DejaVuSans-2e" x="127.246094"/>
       <use xlink:href="#DejaVuSans-33" x="159.033203"/>
       <use xlink:href="#DejaVuSans-31" x="222.65625"/>
      </g>
     </g>
    </g>
    <g id="xtick_5">
     <g id="line2d_5">
      <g>
       <use xlink:href="#m9295c429f7" x="467.212023" y="640.8" style="stroke: #000000; stroke-width: 0.8"/>
      </g>
     </g>
     <g id="text_5">
      <!-- 13.32 -->
      <g transform="translate(452.89796 655.398438) scale(0.1 -0.1)">
       <use xlink:href="#DejaVuSans-31"/>
       <use xlink:href="#DejaVuSans-33" x="63.623047"/>
       <use xlink:href="#DejaVuSans-2e" x="127.246094"/>
       <use xlink:href="#DejaVuSans-33" x="159.033203"/>
       <use xlink:href="#DejaVuSans-32" x="222.65625"/>
      </g>
     </g>
    </g>
    <g id="xtick_6">
     <g id="line2d_6">
      <g>
       <use xlink:href="#m9295c429f7" x="553.867731" y="640.8" style="stroke: #000000; stroke-width: 0.8"/>
      </g>
     </g>
     <g id="text_6">
      <!-- 13.33 -->
      <g transform="translate(539.553668 655.398438) scale(0.1 -0.1)">
       <use xlink:href="#DejaVuSans-31"/>
       <use xlink:href="#DejaVuSans-33" x="63.623047"/>
       <use xlink:href="#DejaVuSans-2e" x="127.246094"/>
       <use xlink:href="#DejaVuSans-33" x="159.033203"/>
       <use xlink:href="#DejaVuSans-33" x="222.65625"/>
      </g>
     </g>
    </g>
   </g>
   <g id="matplotlib.axis_2">
    <g id="ytick_1">
     <g id="line2d_7">
      <defs>
       <path id="m3a6b0d8fdd" d="M 0 0 
L -3.5 0 
" style="stroke: #000000; stroke-width: 0.8"/>
      </defs>
      <g>
       <use xlink:href="#m3a6b0d8fdd" x="107.154469" y="619.272639" style="stroke: #000000; stroke-width: 0.8"/>
      </g>
     </g>
     <g id="text_7">
      <!-- 52.500 -->
      <g transform="translate(65.163844 623.071858) scale(0.1 -0.1)">
       <defs>
        <path id="DejaVuSans-35" d="M 691 4666 
L 3169 4666 
L 3169 4134 
L 1269 4134 
L 1269 2991 
Q 1406 3038 1543 3061 
Q 1681 3084 1819 3084 
Q 2600 3084 3056 2656 
Q 3513 2228 3513 1497 
Q 3513 744 3044 326 
Q 2575 -91 1722 -91 
Q 1428 -91 1123 -41 
Q 819 9 494 109 
L 494 744 
Q 775 591 1075 516 
Q 1375 441 1709 441 
Q 2250 441 2565 725 
Q 2881 1009 2881 1497 
Q 2881 1984 2565 2268 
Q 2250 2553 1709 2553 
Q 1456 2553 1204 2497 
Q 953 2441 691 2322 
L 691 4666 
z
" transform="scale(0.015625)"/>
       </defs>
       <use xlink:href="#DejaVuSans-35"/>
       <use xlink:href="#DejaVuSans-32" x="63.623047"/>
       <use xlink:href="#DejaVuSans-2e" x="127.246094"/>
       <use xlink:href="#DejaVuSans-35" x="159.033203"/>
       <use xlink:href="#DejaVuSans-30" x="222.65625"/>
       <use xlink:href="#DejaVuSans-30" x="286.279297"/>
      </g>
     </g>
    </g>
    <g id="ytick_2">
     <g id="line2d_8">
      <g>
       <use xlink:href="#m3a6b0d8fdd" x="107.154469" y="548.067288" style="stroke: #000000; stroke-width: 0.8"/>
      </g>
     </g>
     <g id="text_8">
      <!-- 52.505 -->
      <g transform="translate(65.163844 551.866507) scale(0.1 -0.1)">
       <use xlink:href="#DejaVuSans-35"/>
       <use xlink:href="#DejaVuSans-32" x="63.623047"/>
       <use xlink:href="#DejaVuSans-2e" x="127.246094"/>
       <use xlink:href="#DejaVuSans-35" x="159.033203"/>
       <use xlink:href="#DejaVuSans-30" x="222.65625"/>
       <use xlink:href="#DejaVuSans-35" x="286.279297"/>
      </g>
     </g>
    </g>
    <g id="ytick_3">
     <g id="line2d_9">
      <g>
       <use xlink:href="#m3a6b0d8fdd" x="107.154469" y="476.861937" style="stroke: #000000; stroke-width: 0.8"/>
      </g>
     </g>
     <g id="text_9">
      <!-- 52.510 -->
      <g transform="translate(65.163844 480.661156) scale(0.1 -0.1)">
       <use xlink:href="#DejaVuSans-35"/>
       <use xlink:href="#DejaVuSans-32" x="63.623047"/>
       <use xlink:href="#DejaVuSans-2e" x="127.246094"/>
       <use xlink:href="#DejaVuSans-35" x="159.033203"/>
       <use xlink:href="#DejaVuSans-31" x="222.65625"/>
       <use xlink:href="#DejaVuSans-30" x="286.279297"/>
      </g>
     </g>
    </g>
    <g id="ytick_4">
     <g id="line2d_10">
      <g>
       <use xlink:href="#m3a6b0d8fdd" x="107.154469" y="405.656586" style="stroke: #000000; stroke-width: 0.8"/>
      </g>
     </g>
     <g id="text_10">
      <!-- 52.515 -->
      <g transform="translate(65.163844 409.455804) scale(0.1 -0.1)">
       <use xlink:href="#DejaVuSans-35"/>
       <use xlink:href="#DejaVuSans-32" x="63.623047"/>
       <use xlink:href="#DejaVuSans-2e" x="127.246094"/>
       <use xlink:href="#DejaVuSans-35" x="159.033203"/>
       <use xlink:href="#DejaVuSans-31" x="222.65625"/>
       <use xlink:href="#DejaVuSans-35" x="286.279297"/>
      </g>
     </g>
    </g>
    <g id="ytick_5">
     <g id="line2d_11">
      <g>
       <use xlink:href="#m3a6b0d8fdd" x="107.154469" y="334.451234" style="stroke: #000000; stroke-width: 0.8"/>
      </g>
     </g>
     <g id="text_11">
      <!-- 52.520 -->
      <g transform="translate(65.163844 338.250453) scale(0.1 -0.1)">
       <use xlink:href="#DejaVuSans-35"/>
       <use xlink:href="#DejaVuSans-32" x="63.623047"/>
       <use xlink:href="#DejaVuSans-2e" x="127.246094"/>
       <use xlink:href="#DejaVuSans-35" x="159.033203"/>
       <use xlink:href="#DejaVuSans-32" x="222.65625"/>
       <use xlink:href="#DejaVuSans-30" x="286.279297"/>
      </g>
     </g>
    </g>
    <g id="ytick_6">
     <g id="line2d_12">
      <g>
       <use xlink:href="#m3a6b0d8fdd" x="107.154469" y="263.245883" style="stroke: #000000; stroke-width: 0.8"/>
      </g>
     </g>
     <g id="text_12">
      <!-- 52.525 -->
      <g transform="translate(65.163844 267.045102) scale(0.1 -0.1)">
       <use xlink:href="#DejaVuSans-35"/>
       <use xlink:href="#DejaVuSans-32" x="63.623047"/>
       <use xlink:href="#DejaVuSans-2e" x="127.246094"/>
       <use xlink:href="#DejaVuSans-35" x="159.033203"/>
       <use xlink:href="#DejaVuSans-32" x="222.65625"/>
       <use xlink:href="#DejaVuSans-35" x="286.279297"/>
      </g>
     </g>
    </g>
    <g id="ytick_7">
     <g id="line2d_13">
      <g>
       <use xlink:href="#m3a6b0d8fdd" x="107.154469" y="192.040532" style="stroke: #000000; stroke-width: 0.8"/>
      </g>
     </g>
     <g id="text_13">
      <!-- 52.530 -->
      <g transform="translate(65.163844 195.839751) scale(0.1 -0.1)">
       <use xlink:href="#DejaVuSans-35"/>
       <use xlink:href="#DejaVuSans-32" x="63.623047"/>
       <use xlink:href="#DejaVuSans-2e" x="127.246094"/>
       <use xlink:href="#DejaVuSans-35" x="159.033203"/>
       <use xlink:href="#DejaVuSans-33" x="222.65625"/>
       <use xlink:href="#DejaVuSans-30" x="286.279297"/>
      </g>
     </g>
    </g>
    <g id="ytick_8">
     <g id="line2d_14">
      <g>
       <use xlink:href="#m3a6b0d8fdd" x="107.154469" y="120.835181" style="stroke: #000000; stroke-width: 0.8"/>
      </g>
     </g>
     <g id="text_14">
      <!-- 52.535 -->
      <g transform="translate(65.163844 124.6344) scale(0.1 -0.1)">
       <use xlink:href="#DejaVuSans-35"/>
       <use xlink:href="#DejaVuSans-32" x="63.623047"/>
       <use xlink:href="#DejaVuSans-2e" x="127.246094"/>
       <use xlink:href="#DejaVuSans-35" x="159.033203"/>
       <use xlink:href="#DejaVuSans-33" x="222.65625"/>
       <use xlink:href="#DejaVuSans-35" x="286.279297"/>
      </g>
     </g>
    </g>
   </g>
   <g id="LineCollection_1">
    <path d="M 347.595083 253.591862 
L 349.245007 253.577621 
L 350.003245 253.556259 
" clip-path="url(#p123f78405e)" style="fill: none; stroke: #ff0000; stroke-opacity: 0.7; stroke-width: 0.5"/>
    <path d="M 267.227979 462.089675 
L 264.241824 462.3688 
L 263.6361 462.425764 
L 261.386518 462.640804 
" clip-path="url(#p123f78405e)" style="fill: none; stroke: #ff0000; stroke-opacity: 0.7; stroke-width: 0.5"/>
    <path d="M 178.71264 353.732219 
L 178.780231 354.099639 
L 181.613873 369.509901 
L 182.041085 371.836892 
L 182.991698 377.016369 
L 183.251666 378.431932 
L 183.570559 380.167918 
L 183.976974 382.284141 
L 184.40592 384.470145 
L 185.53591 390.862962 
L 186.470059 395.928511 
L 187.278556 400.395934 
L 187.782893 403.087497 
L 188.650316 407.81126 
L 190.136462 415.816165 
L 191.743058 424.473312 
L 192.325385 427.809995 
" clip-path="url(#p123f78405e)" style="fill: none; stroke: #ff0000; stroke-opacity: 0.7; stroke-width: 0.5"/>
    <path d="M 291.384991 341.462113 
L 291.106826 338.583993 
" clip-path="url(#p123f78405e)" style="fill: none; stroke: #ff0000; stroke-opacity: 0.7; stroke-width: 0.5"/>
    <path d="M 289.960371 325.680159 
L 289.923976 324.506695 
L 289.981169 323.623749 
L 290.203874 322.363414 
L 290.334724 321.995994 
" clip-path="url(#p123f78405e)" style="fill: none; stroke: #ff0000; stroke-opacity: 0.7; stroke-width: 0.5"/>
    <path d="M 422.982949 252.179148 
L 424.253322 252.150665 
" clip-path="url(#p123f78405e)" style="fill: none; stroke: #ff0000; stroke-opacity: 0.7; stroke-width: 0.5"/>
    <path d="M 348.728539 181.675881 
L 348.536164 185.048167 
L 348.446042 187.242715 
L 348.43391 189.118264 
L 348.512767 191.495099 
L 348.525765 191.878184 
L 348.848991 194.747759 
L 349.525772 200.109522 
" clip-path="url(#p123f78405e)" style="fill: none; stroke: #ff0000; stroke-opacity: 0.7; stroke-width: 0.5"/>
    <path d="M 347.459033 240.578372 
L 346.725926 241.878581 
L 346.592476 242.362778 
L 346.43303 243.573269 
" clip-path="url(#p123f78405e)" style="fill: none; stroke: #ff0000; stroke-opacity: 0.7; stroke-width: 0.5"/>
    <path d="M 313.211831 352.86209 
L 313.176302 354.296166 
L 313.205765 354.609469 
" clip-path="url(#p123f78405e)" style="fill: none; stroke: #ff0000; stroke-opacity: 0.7; stroke-width: 0.5"/>
    <path d="M 319.341856 410.642384 
L 319.480505 412.144817 
L 320.084495 418.701406 
L 320.287269 420.897379 
L 320.580166 424.037535 
L 320.790739 426.894294 
L 320.867863 427.942437 
" clip-path="url(#p123f78405e)" style="fill: none; stroke: #ff0000; stroke-opacity: 0.7; stroke-width: 0.5"/>
    <path d="M 320.842732 373.631267 
L 320.708416 372.759713 
L 320.330597 371.865374 
L 319.782933 371.100629 
L 318.755196 370.172111 
L 317.371305 369.582531 
L 316.004744 369.387428 
L 315.333163 369.44012 
L 314.597456 369.498508 
L 313.360012 370.006915 
L 312.074908 370.849986 
L 311.24128 371.589097 
L 310.219609 373.043111 
L 309.909382 373.755164 
L 309.803662 374.70362 
" clip-path="url(#p123f78405e)" style="fill: none; stroke: #ff0000; stroke-opacity: 0.7; stroke-width: 0.5"/>
    <path d="M 345.37323 163.017231 
L 345.160924 160.42678 
L 344.539602 151.788147 
L 344.446014 150.433821 
" clip-path="url(#p123f78405e)" style="fill: none; stroke: #ff0000; stroke-opacity: 0.7; stroke-width: 0.5"/>
    <path d="M 260.255661 452.109533 
L 260.42204 453.187582 
L 261.247869 461.230938 
L 261.292063 461.680956 
L 261.386518 462.640804 
" clip-path="url(#p123f78405e)" style="fill: none; stroke: #ff0000; stroke-opacity: 0.7; stroke-width: 0.5"/>
    <path d="M 487.254621 289.475086 
L 486.352535 288.691828 
L 476.297874 279.960627 
" clip-path="url(#p123f78405e)" style="fill: none; stroke: #ff0000; stroke-opacity: 0.7; stroke-width: 0.5"/>
    <path d="M 444.185868 421.018428 
L 444.981367 419.147152 
" clip-path="url(#p123f78405e)" style="fill: none; stroke: #ff0000; stroke-opacity: 0.7; stroke-width: 0.5"/>
    <path d="M 200.66773 471.282286 
L 200.204988 468.951022 
" clip-path="url(#p123f78405e)" style="fill: none; stroke: #ff0000; stroke-opacity: 0.7; stroke-width: 0.5"/>
    <path d="M 163.846853 267.660615 
L 165.026237 274.583199 
" clip-path="url(#p123f78405e)" style="fill: none; stroke: #ff0000; stroke-opacity: 0.7; stroke-width: 0.5"/>
    <path d="M 353.663582 252.995161 
L 351.530985 252.26317 
L 349.624559 252.266018 
L 349.245874 252.27029 
L 347.629745 252.281683 
" clip-path="url(#p123f78405e)" style="fill: none; stroke: #ff0000; stroke-opacity: 0.7; stroke-width: 0.5"/>
    <path d="M 201.501358 475.614419 
L 203.186811 483.727557 
L 203.298597 484.264445 
L 203.337592 484.788517 
L 203.267401 485.080459 
L 202.966706 485.322557 
" clip-path="url(#p123f78405e)" style="fill: none; stroke: #ff0000; stroke-opacity: 0.7; stroke-width: 0.5"/>
    <path d="M 536.92654 398.920559 
L 537.864155 398.326707 
L 539.663994 397.185997 
L 540.448228 396.688984 
L 541.001091 396.283113 
L 541.401441 395.763314 
L 542.599889 393.3936 
L 545.194361 388.265391 
L 545.80875 387.073413 
L 546.195234 386.324333 
L 548.096461 382.638744 
L 548.543604 381.770039 
" clip-path="url(#p123f78405e)" style="fill: none; stroke: #ff0000; stroke-opacity: 0.7; stroke-width: 0.5"/>
    <path d="M 353.663582 252.995161 
L 353.70171 252.995161 
L 363.503338 252.921107 
L 371.89421 252.858447 
L 376.187134 252.827116 
L 377.71574 252.815723 
L 378.389055 252.831389 
L 379.486116 252.802906 
L 379.979187 252.800058 
L 380.868275 252.794362 
L 381.604849 252.773 
L 382.936747 252.754487 
L 395.873577 252.426942 
L 396.474101 252.411277 
L 397.806 252.415549 
L 398.265275 252.415549 
L 405.026153 252.414125 
L 411.160511 252.414125 
L 413.067803 252.39846 
" clip-path="url(#p123f78405e)" style="fill: none; stroke: #ff0000; stroke-opacity: 0.7; stroke-width: 0.5"/>
    <path d="M 347.629745 252.281683 
L 345.85417 252.304469 
" clip-path="url(#p123f78405e)" style="fill: none; stroke: #ff0000; stroke-opacity: 0.7; stroke-width: 0.5"/>
    <path d="M 534.198618 550.951105 
L 535.103304 550.740337 
L 537.571258 550.083824 
L 540.174396 549.266386 
L 542.629352 548.373471 
L 544.860736 547.331025 
L 547.553996 546.045056 
L 549.323505 544.801811 
L 549.617268 544.121088 
L 549.665795 543.88611 
" clip-path="url(#p123f78405e)" style="fill: none; stroke: #ff0000; stroke-opacity: 0.7; stroke-width: 0.5"/>
    <path d="M 553.632894 541.876695 
L 554.511583 540.792949 
L 554.685761 540.516673 
L 557.709178 536.460816 
L 559.716125 533.205307 
L 563.254277 527.155701 
L 563.84007 526.175915 
L 564.555846 524.845799 
" clip-path="url(#p123f78405e)" style="fill: none; stroke: #ff0000; stroke-opacity: 0.7; stroke-width: 0.5"/>
    <path d="M 169.805299 303.841478 
L 169.969945 304.822688 
L 170.757646 309.206089 
L 170.915359 310.093308 
L 171.287112 312.188169 
L 171.683129 314.418321 
L 171.87897 315.523428 
L 172.515023 319.106481 
L 173.380714 323.9812 
L 173.659745 325.566231 
L 174.031498 327.679606 
L 174.321795 329.285998 
L 174.403251 329.743137 
L 174.982978 333.010038 
L 175.149357 333.947101 
L 176.050576 339.024042 
L 177.017654 344.135162 
" clip-path="url(#p123f78405e)" style="fill: none; stroke: #ff0000; stroke-opacity: 0.7; stroke-width: 0.5"/>
    <path d="M 548.543604 381.770039 
L 549.042741 380.787405 
L 552.969111 373.19549 
L 553.481246 372.202888 
" clip-path="url(#p123f78405e)" style="fill: none; stroke: #ff0000; stroke-opacity: 0.7; stroke-width: 0.5"/>
    <path d="M 524.076365 381.12207 
L 524.715884 380.424257 
L 532.980239 363.807777 
L 533.533969 362.694125 
" clip-path="url(#p123f78405e)" style="fill: none; stroke: #ff0000; stroke-opacity: 0.7; stroke-width: 0.5"/>
    <path d="M 533.533969 362.694125 
L 533.97418 361.707219 
L 534.096364 361.439487 
L 537.703842 354.361675 
" clip-path="url(#p123f78405e)" style="fill: none; stroke: #ff0000; stroke-opacity: 0.7; stroke-width: 0.5"/>
    <path d="M 193.332324 433.064949 
L 193.594024 434.321012 
L 193.68068 434.718338 
" clip-path="url(#p123f78405e)" style="fill: none; stroke: #ff0000; stroke-opacity: 0.7; stroke-width: 0.5"/>
    <path d="M 347.714668 243.496367 
L 347.751063 241.855796 
L 347.459033 240.578372 
" clip-path="url(#p123f78405e)" style="fill: none; stroke: #ff0000; stroke-opacity: 0.7; stroke-width: 0.5"/>
    <path d="M 351.400135 217.691548 
L 351.394069 219.283699 
L 351.260619 222.032226 
L 351.159232 223.148726 
L 350.735486 226.303123 
L 350.433057 227.881034 
L 350.0951 229.460368 
L 348.889719 234.364993 
L 348.641884 235.195247 
" clip-path="url(#p123f78405e)" style="fill: none; stroke: #ff0000; stroke-opacity: 0.7; stroke-width: 0.5"/>
    <path d="M 441.37649 443.173261 
L 441.249106 442.053913 
L 441.191913 441.552627 
L 441.151185 441.162422 
L 441.126055 440.928868 
L 440.901616 438.972145 
L 440.645116 436.741994 
L 440.067989 431.723441 
L 440.030727 431.091137 
L 440.157244 430.299334 
L 441.149452 427.955253 
L 441.710981 426.626562 
L 443.516886 422.483834 
L 443.61134 422.26737 
L 444.185868 421.018428 
" clip-path="url(#p123f78405e)" style="fill: none; stroke: #ff0000; stroke-opacity: 0.7; stroke-width: 0.5"/>
    <path d="M 345.82384 253.645978 
L 347.595083 253.591862 
" clip-path="url(#p123f78405e)" style="fill: none; stroke: #ff0000; stroke-opacity: 0.7; stroke-width: 0.5"/>
    <path d="M 288.89104 322.36199 
L 288.662269 323.385923 
L 288.475092 324.560811 
L 288.386704 326.833686 
L 288.450829 329.482525 
" clip-path="url(#p123f78405e)" style="fill: none; stroke: #ff0000; stroke-opacity: 0.7; stroke-width: 0.5"/>
    <path d="M 292.151894 314.968026 
L 291.258474 315.812522 
L 288.89104 322.36199 
" clip-path="url(#p123f78405e)" style="fill: none; stroke: #ff0000; stroke-opacity: 0.7; stroke-width: 0.5"/>
    <path d="M 289.267992 336.652904 
L 289.293122 336.867944 
L 289.332984 337.206882 
L 289.503696 338.658047 
" clip-path="url(#p123f78405e)" style="fill: none; stroke: #ff0000; stroke-opacity: 0.7; stroke-width: 0.5"/>
    <path d="M 192.325385 427.809995 
L 192.926775 431.081168 
L 192.985701 431.395896 
" clip-path="url(#p123f78405e)" style="fill: none; stroke: #ff0000; stroke-opacity: 0.7; stroke-width: 0.5"/>
    <path d="M 194.327132 438.136195 
L 195.642565 444.529011 
L 196.60531 449.973372 
L 197.796826 456.168238 
L 199.76651 466.622607 
L 199.844501 467.028478 
" clip-path="url(#p123f78405e)" style="fill: none; stroke: #ff0000; stroke-opacity: 0.7; stroke-width: 0.5"/>
    <path d="M 345.533543 134.490943 
L 345.570805 133.983961 
L 345.444288 133.341689 
L 345.074268 132.824738 
L 344.439082 132.555582 
L 343.725905 132.519979 
L 342.997997 132.861765 
L 342.481529 133.398653 
L 342.202498 134.019564 
" clip-path="url(#p123f78405e)" style="fill: none; stroke: #ff0000; stroke-opacity: 0.7; stroke-width: 0.5"/>
    <path d="M 320.867863 427.942437 
L 320.868729 428.804021 
L 320.751744 435.609829 
L 320.736146 436.522681 
" clip-path="url(#p123f78405e)" style="fill: none; stroke: #ff0000; stroke-opacity: 0.7; stroke-width: 0.5"/>
    <path d="M 316.202319 379.213766 
L 316.668527 384.43027 
L 317.028148 388.31381 
L 317.995226 397.665921 
L 318.074949 398.434939 
L 318.173737 399.389091 
L 319.341856 410.642384 
" clip-path="url(#p123f78405e)" style="fill: none; stroke: #ff0000; stroke-opacity: 0.7; stroke-width: 0.5"/>
    <path d="M 421.495937 252.213326 
L 422.982949 252.179148 
" clip-path="url(#p123f78405e)" style="fill: none; stroke: #ff0000; stroke-opacity: 0.7; stroke-width: 0.5"/>
    <path d="M 413.067803 252.39846 
L 413.646663 252.385643 
L 417.087761 252.310165 
L 417.833867 252.293076 
L 420.476 252.23184 
L 421.495937 252.213326 
" clip-path="url(#p123f78405e)" style="fill: none; stroke: #ff0000; stroke-opacity: 0.7; stroke-width: 0.5"/>
    <path d="M 345.569939 165.422548 
L 345.398361 163.494307 
L 345.37323 163.017231 
" clip-path="url(#p123f78405e)" style="fill: none; stroke: #ff0000; stroke-opacity: 0.7; stroke-width: 0.5"/>
    <path d="M 342.795223 137.357671 
L 343.706841 139.681813 
" clip-path="url(#p123f78405e)" style="fill: none; stroke: #ff0000; stroke-opacity: 0.7; stroke-width: 0.5"/>
    <path d="M 309.803662 374.70362 
L 310.304532 375.798758 
L 311.337468 376.983615 
L 312.282015 377.836655 
L 313.56192 378.706784 
L 314.819294 379.115503 
L 316.202319 379.213766 
L 316.979621 379.047146 
L 318.33405 378.326548 
L 319.221404 377.489173 
L 320.125223 376.362704 
L 320.585365 375.485454 
L 320.829734 374.589691 
L 320.842732 373.631267 
" clip-path="url(#p123f78405e)" style="fill: none; stroke: #ff0000; stroke-opacity: 0.7; stroke-width: 0.5"/>
    <path d="M 479.032728 546.761382 
L 475.596829 546.032239 
L 474.369784 545.810078 
L 472.236321 545.436962 
L 470.389687 545.176351 
L 468.777891 544.996913 
" clip-path="url(#p123f78405e)" style="fill: none; stroke: #ff0000; stroke-opacity: 0.7; stroke-width: 0.5"/>
    <path d="M 168.320021 294.749979 
L 168.431806 295.432126 
L 169.331293 300.939148 
L 169.483807 301.873362 
L 169.805299 303.841478 
" clip-path="url(#p123f78405e)" style="fill: none; stroke: #ff0000; stroke-opacity: 0.7; stroke-width: 0.5"/>
    <path d="M 308.66154 375.968227 
L 308.593948 373.547245 
L 312.444061 368.886142 
L 313.216164 367.954776 
L 315.669387 368.024558 
L 315.681519 368.128517 
L 315.845298 368.2752 
L 316.051538 368.29941 
L 317.30718 368.448941 
L 318.294188 368.749428 
L 319.082755 369.085517 
L 319.746538 369.549776 
L 320.420719 370.123691 
L 321.46752 369.168116 
L 321.519514 369.514174 
L 321.808944 370.499656 
L 322.087975 371.525013 
L 322.298548 372.144499 
L 322.348809 372.309696 
L 322.560249 374.685106 
L 322.038581 377.454994 
L 321.641698 377.382365 
L 321.479652 377.376668 
L 321.33667 377.399454 
L 321.224018 377.454994 
L 321.106166 377.539017 
L 320.790739 377.890771 
L 320.165085 378.468958 
L 317.867842 380.296088 
L 317.742191 380.414289 
L 317.677199 380.511128 
L 317.64687 380.622208 
L 317.6746 381.012414 
L 313.61738 381.586329 
L 312.327076 380.558123 
L 312.400733 380.424257 
L 312.444928 380.17219 
L 312.37127 379.806195 
L 312.26815 379.640999 
L 310.368657 377.726999 
L 308.66154 375.968227 
" clip-path="url(#p123f78405e)" style="fill: none; stroke: #ff0000; stroke-opacity: 0.7; stroke-width: 0.5"/>
    <path d="M 468.648774 544.981248 
L 468.070781 544.917163 
L 467.062975 544.804659 
" clip-path="url(#p123f78405e)" style="fill: none; stroke: #ff0000; stroke-opacity: 0.7; stroke-width: 0.5"/>
    <path d="M 468.777891 544.996913 
L 468.648774 544.981248 
" clip-path="url(#p123f78405e)" style="fill: none; stroke: #ff0000; stroke-opacity: 0.7; stroke-width: 0.5"/>
    <path d="M 479.144514 546.784168 
L 479.032728 546.761382 
" clip-path="url(#p123f78405e)" style="fill: none; stroke: #ff0000; stroke-opacity: 0.7; stroke-width: 0.5"/>
    <path d="M 480.053532 546.920882 
L 479.144514 546.784168 
" clip-path="url(#p123f78405e)" style="fill: none; stroke: #ff0000; stroke-opacity: 0.7; stroke-width: 0.5"/>
    <path d="M 344.235441 147.400473 
L 343.706841 139.681813 
" clip-path="url(#p123f78405e)" style="fill: none; stroke: #ff0000; stroke-opacity: 0.7; stroke-width: 0.5"/>
    <path d="M 344.446014 150.433821 
L 344.235441 147.400473 
" clip-path="url(#p123f78405e)" style="fill: none; stroke: #ff0000; stroke-opacity: 0.7; stroke-width: 0.5"/>
    <path d="M 350.476385 208.612865 
L 350.672227 210.377334 
L 350.725087 210.898557 
" clip-path="url(#p123f78405e)" style="fill: none; stroke: #ff0000; stroke-opacity: 0.7; stroke-width: 0.5"/>
    <path d="M 345.569939 165.422548 
L 345.961623 167.265342 
L 346.75019 170.973717 
L 346.914835 171.660136 
L 348.415712 178.430341 
L 348.595956 179.697796 
L 348.686078 180.663341 
L 348.728539 181.675881 
" clip-path="url(#p123f78405e)" style="fill: none; stroke: #ff0000; stroke-opacity: 0.7; stroke-width: 0.5"/>
    <path d="M 342.202498 134.019564 
L 342.126241 134.627657 
L 342.183434 135.302684 
L 342.795223 137.357671 
" clip-path="url(#p123f78405e)" style="fill: none; stroke: #ff0000; stroke-opacity: 0.7; stroke-width: 0.5"/>
    <path d="M 350.725087 210.898557 
L 350.971189 213.088834 
L 351.400135 217.691548 
" clip-path="url(#p123f78405e)" style="fill: none; stroke: #ff0000; stroke-opacity: 0.7; stroke-width: 0.5"/>
    <path d="M 350.167891 206.17337 
L 350.25628 206.784312 
L 350.476385 208.612865 
" clip-path="url(#p123f78405e)" style="fill: none; stroke: #ff0000; stroke-opacity: 0.7; stroke-width: 0.5"/>
    <path d="M 313.205765 354.609469 
L 314.597456 369.498508 
" clip-path="url(#p123f78405e)" style="fill: none; stroke: #ff0000; stroke-opacity: 0.7; stroke-width: 0.5"/>
    <path d="M 291.106826 338.583993 
L 290.935248 337.037413 
L 290.876322 336.509069 
" clip-path="url(#p123f78405e)" style="fill: none; stroke: #ff0000; stroke-opacity: 0.7; stroke-width: 0.5"/>
    <path d="M 288.450829 329.482525 
L 289.267992 336.652904 
" clip-path="url(#p123f78405e)" style="fill: none; stroke: #ff0000; stroke-opacity: 0.7; stroke-width: 0.5"/>
    <path d="M 199.844501 467.028478 
L 199.93029 467.489889 
L 200.020412 467.971237 
L 200.204988 468.951022 
" clip-path="url(#p123f78405e)" style="fill: none; stroke: #ff0000; stroke-opacity: 0.7; stroke-width: 0.5"/>
    <path d="M 200.66773 471.282286 
L 200.881769 472.474263 
L 200.981424 473.028241 
L 201.054214 473.429839 
" clip-path="url(#p123f78405e)" style="fill: none; stroke: #ff0000; stroke-opacity: 0.7; stroke-width: 0.5"/>
    <path d="M 193.68068 434.718338 
L 193.768202 435.158387 
L 194.327132 438.136195 
" clip-path="url(#p123f78405e)" style="fill: none; stroke: #ff0000; stroke-opacity: 0.7; stroke-width: 0.5"/>
    <path d="M 192.985701 431.395896 
L 193.088822 431.890061 
L 193.332324 433.064949 
" clip-path="url(#p123f78405e)" style="fill: none; stroke: #ff0000; stroke-opacity: 0.7; stroke-width: 0.5"/>
    <path d="M 178.294093 351.25997 
L 178.567058 352.964626 
L 178.71264 353.732219 
" clip-path="url(#p123f78405e)" style="fill: none; stroke: #ff0000; stroke-opacity: 0.7; stroke-width: 0.5"/>
    <path d="M 177.897209 349.007032 
L 178.012461 349.605157 
L 178.294093 351.25997 
" clip-path="url(#p123f78405e)" style="fill: none; stroke: #ff0000; stroke-opacity: 0.7; stroke-width: 0.5"/>
    <path d="M 177.017654 344.135162 
L 177.329615 345.78143 
L 177.38854 346.265626 
L 177.803621 348.461599 
L 177.897209 349.007032 
" clip-path="url(#p123f78405e)" style="fill: none; stroke: #ff0000; stroke-opacity: 0.7; stroke-width: 0.5"/>
    <path d="M 290.876322 336.509069 
L 290.543564 333.505627 
L 290.143215 329.360052 
L 289.996767 326.876409 
L 289.960371 325.680159 
" clip-path="url(#p123f78405e)" style="fill: none; stroke: #ff0000; stroke-opacity: 0.7; stroke-width: 0.5"/>
    <path d="M 291.50111 318.716276 
L 292.387598 316.219816 
L 292.151894 314.968026 
" clip-path="url(#p123f78405e)" style="fill: none; stroke: #ff0000; stroke-opacity: 0.7; stroke-width: 0.5"/>
    <path d="M 290.334724 321.995994 
L 291.50111 318.716276 
" clip-path="url(#p123f78405e)" style="fill: none; stroke: #ff0000; stroke-opacity: 0.7; stroke-width: 0.5"/>
    <path d="M 270.826791 461.735072 
L 268.831976 461.930175 
L 268.329373 461.980018 
" clip-path="url(#p123f78405e)" style="fill: none; stroke: #ff0000; stroke-opacity: 0.7; stroke-width: 0.5"/>
    <path d="M 350.003245 253.556259 
L 351.529252 253.51496 
L 353.663582 252.995161 
" clip-path="url(#p123f78405e)" style="fill: none; stroke: #ff0000; stroke-opacity: 0.7; stroke-width: 0.5"/>
    <path d="M 165.026237 274.583199 
L 168.320021 294.749979 
" clip-path="url(#p123f78405e)" style="fill: none; stroke: #ff0000; stroke-opacity: 0.7; stroke-width: 0.5"/>
    <path d="M 347.963369 237.461001 
L 347.711201 238.652979 
L 347.459033 240.578372 
" clip-path="url(#p123f78405e)" style="fill: none; stroke: #ff0000; stroke-opacity: 0.7; stroke-width: 0.5"/>
    <path d="M 348.641884 235.195247 
L 347.963369 237.461001 
" clip-path="url(#p123f78405e)" style="fill: none; stroke: #ff0000; stroke-opacity: 0.7; stroke-width: 0.5"/>
    <path d="M 349.525772 200.109522 
L 349.578632 200.529634 
L 350.167891 206.17337 
" clip-path="url(#p123f78405e)" style="fill: none; stroke: #ff0000; stroke-opacity: 0.7; stroke-width: 0.5"/>
    <path d="M 343.706841 139.681813 
L 344.368891 137.151175 
L 345.284842 135.295564 
L 345.533543 134.490943 
" clip-path="url(#p123f78405e)" style="fill: none; stroke: #ff0000; stroke-opacity: 0.7; stroke-width: 0.5"/>
    <path d="M 247.208778 429.120173 
L 247.704448 433.631744 
L 257.168118 428.886619 
L 257.069331 428.012218 
L 247.208778 429.120173 
" clip-path="url(#p123f78405e)" style="fill: none; stroke: #ff0000; stroke-opacity: 0.7; stroke-width: 0.5"/>
    <path d="M 201.054214 473.429839 
L 201.093209 473.647727 
L 201.501358 475.614419 
" clip-path="url(#p123f78405e)" style="fill: none; stroke: #ff0000; stroke-opacity: 0.7; stroke-width: 0.5"/>
    <path d="M 268.329373 461.980018 
L 267.227979 462.089675 
" clip-path="url(#p123f78405e)" style="fill: none; stroke: #ff0000; stroke-opacity: 0.7; stroke-width: 0.5"/>
   </g>
   <g id="patch_3">
    <path d="M 107.154469 640.8 
L 107.154469 86.4 
" style="fill: none; stroke: #000000; stroke-width: 0.8; stroke-linejoin: miter; stroke-linecap: square"/>
   </g>
   <g id="patch_4">
    <path d="M 630.845531 640.8 
L 630.845531 86.4 
" style="fill: none; stroke: #000000; stroke-width: 0.8; stroke-linejoin: miter; stroke-linecap: square"/>
   </g>
   <g id="patch_5">
    <path d="M 107.154469 640.8 
L 630.845531 640.8 
" style="fill: none; stroke: #000000; stroke-width: 0.8; stroke-linejoin: miter; stroke-linecap: square"/>
   </g>
   <g id="patch_6">
    <path d="M 107.154469 86.4 
L 630.845531 86.4 
" style="fill: none; stroke: #000000; stroke-width: 0.8; stroke-linejoin: miter; stroke-linecap: square"/>
   </g>
   <g id="text_15">
    <!-- Charlottenburg_Zentrum -->
    <g transform="translate(265.411772 379.914658) scale(0.12 -0.12)">
     <defs>
      <path id="DejaVuSans-43" d="M 4122 4306 
L 4122 3641 
Q 3803 3938 3442 4084 
Q 3081 4231 2675 4231 
Q 1875 4231 1450 3742 
Q 1025 3253 1025 2328 
Q 1025 1406 1450 917 
Q 1875 428 2675 428 
Q 3081 428 3442 575 
Q 3803 722 4122 1019 
L 4122 359 
Q 3791 134 3420 21 
Q 3050 -91 2638 -91 
Q 1578 -91 968 557 
Q 359 1206 359 2328 
Q 359 3453 968 4101 
Q 1578 4750 2638 4750 
Q 3056 4750 3426 4639 
Q 3797 4528 4122 4306 
z
" transform="scale(0.015625)"/>
      <path id="DejaVuSans-68" d="M 3513 2113 
L 3513 0 
L 2938 0 
L 2938 2094 
Q 2938 2591 2744 2837 
Q 2550 3084 2163 3084 
Q 1697 3084 1428 2787 
Q 1159 2491 1159 1978 
L 1159 0 
L 581 0 
L 581 4863 
L 1159 4863 
L 1159 2956 
Q 1366 3272 1645 3428 
Q 1925 3584 2291 3584 
Q 2894 3584 3203 3211 
Q 3513 2838 3513 2113 
z
" transform="scale(0.015625)"/>
      <path id="DejaVuSans-61" d="M 2194 1759 
Q 1497 1759 1228 1600 
Q 959 1441 959 1056 
Q 959 750 1161 570 
Q 1363 391 1709 391 
Q 2188 391 2477 730 
Q 2766 1069 2766 1631 
L 2766 1759 
L 2194 1759 
z
M 3341 1997 
L 3341 0 
L 2766 0 
L 2766 531 
Q 2569 213 2275 61 
Q 1981 -91 1556 -91 
Q 1019 -91 701 211 
Q 384 513 384 1019 
Q 384 1609 779 1909 
Q 1175 2209 1959 2209 
L 2766 2209 
L 2766 2266 
Q 2766 2663 2505 2880 
Q 2244 3097 1772 3097 
Q 1472 3097 1187 3025 
Q 903 2953 641 2809 
L 641 3341 
Q 956 3463 1253 3523 
Q 1550 3584 1831 3584 
Q 2591 3584 2966 3190 
Q 3341 2797 3341 1997 
z
" transform="scale(0.015625)"/>
      <path id="DejaVuSans-72" d="M 2631 2963 
Q 2534 3019 2420 3045 
Q 2306 3072 2169 3072 
Q 1681 3072 1420 2755 
Q 1159 2438 1159 1844 
L 1159 0 
L 581 0 
L 581 3500 
L 1159 3500 
L 1159 2956 
Q 1341 3275 1631 3429 
Q 1922 3584 2338 3584 
Q 2397 3584 2469 3576 
Q 2541 3569 2628 3553 
L 2631 2963 
z
" transform="scale(0.015625)"/>
      <path id="DejaVuSans-6c" d="M 603 4863 
L 1178 4863 
L 1178 0 
L 603 0 
L 603 4863 
z
" transform="scale(0.015625)"/>
      <path id="DejaVuSans-6f" d="M 1959 3097 
Q 1497 3097 1228 2736 
Q 959 2375 959 1747 
Q 959 1119 1226 758 
Q 1494 397 1959 397 
Q 2419 397 2687 759 
Q 2956 1122 2956 1747 
Q 2956 2369 2687 2733 
Q 2419 3097 1959 3097 
z
M 1959 3584 
Q 2709 3584 3137 3096 
Q 3566 2609 3566 1747 
Q 3566 888 3137 398 
Q 2709 -91 1959 -91 
Q 1206 -91 779 398 
Q 353 888 353 1747 
Q 353 2609 779 3096 
Q 1206 3584 1959 3584 
z
" transform="scale(0.015625)"/>
      <path id="DejaVuSans-74" d="M 1172 4494 
L 1172 3500 
L 2356 3500 
L 2356 3053 
L 1172 3053 
L 1172 1153 
Q 1172 725 1289 603 
Q 1406 481 1766 481 
L 2356 481 
L 2356 0 
L 1766 0 
Q 1100 0 847 248 
Q 594 497 594 1153 
L 594 3053 
L 172 3053 
L 172 3500 
L 594 3500 
L 594 4494 
L 1172 4494 
z
" transform="scale(0.015625)"/>
      <path id="DejaVuSans-65" d="M 3597 1894 
L 3597 1613 
L 953 1613 
Q 991 1019 1311 708 
Q 1631 397 2203 397 
Q 2534 397 2845 478 
Q 3156 559 3463 722 
L 3463 178 
Q 3153 47 2828 -22 
Q 2503 -91 2169 -91 
Q 1331 -91 842 396 
Q 353 884 353 1716 
Q 353 2575 817 3079 
Q 1281 3584 2069 3584 
Q 2775 3584 3186 3129 
Q 3597 2675 3597 1894 
z
M 3022 2063 
Q 3016 2534 2758 2815 
Q 2500 3097 2075 3097 
Q 1594 3097 1305 2825 
Q 1016 2553 972 2059 
L 3022 2063 
z
" transform="scale(0.015625)"/>
      <path id="DejaVuSans-6e" d="M 3513 2113 
L 3513 0 
L 2938 0 
L 2938 2094 
Q 2938 2591 2744 2837 
Q 2550 3084 2163 3084 
Q 1697 3084 1428 2787 
Q 1159 2491 1159 1978 
L 1159 0 
L 581 0 
L 581 3500 
L 1159 3500 
L 1159 2956 
Q 1366 3272 1645 3428 
Q 1925 3584 2291 3584 
Q 2894 3584 3203 3211 
Q 3513 2838 3513 2113 
z
" transform="scale(0.015625)"/>
      <path id="DejaVuSans-62" d="M 3116 1747 
Q 3116 2381 2855 2742 
Q 2594 3103 2138 3103 
Q 1681 3103 1420 2742 
Q 1159 2381 1159 1747 
Q 1159 1113 1420 752 
Q 1681 391 2138 391 
Q 2594 391 2855 752 
Q 3116 1113 3116 1747 
z
M 1159 2969 
Q 1341 3281 1617 3432 
Q 1894 3584 2278 3584 
Q 2916 3584 3314 3078 
Q 3713 2572 3713 1747 
Q 3713 922 3314 415 
Q 2916 -91 2278 -91 
Q 1894 -91 1617 61 
Q 1341 213 1159 525 
L 1159 0 
L 581 0 
L 581 4863 
L 1159 4863 
L 1159 2969 
z
" transform="scale(0.015625)"/>
      <path id="DejaVuSans-75" d="M 544 1381 
L 544 3500 
L 1119 3500 
L 1119 1403 
Q 1119 906 1312 657 
Q 1506 409 1894 409 
Q 2359 409 2629 706 
Q 2900 1003 2900 1516 
L 2900 3500 
L 3475 3500 
L 3475 0 
L 2900 0 
L 2900 538 
Q 2691 219 2414 64 
Q 2138 -91 1772 -91 
Q 1169 -91 856 284 
Q 544 659 544 1381 
z
M 1991 3584 
L 1991 3584 
z
" transform="scale(0.015625)"/>
      <path id="DejaVuSans-67" d="M 2906 1791 
Q 2906 2416 2648 2759 
Q 2391 3103 1925 3103 
Q 1463 3103 1205 2759 
Q 947 2416 947 1791 
Q 947 1169 1205 825 
Q 1463 481 1925 481 
Q 2391 481 2648 825 
Q 2906 1169 2906 1791 
z
M 3481 434 
Q 3481 -459 3084 -895 
Q 2688 -1331 1869 -1331 
Q 1566 -1331 1297 -1286 
Q 1028 -1241 775 -1147 
L 775 -588 
Q 1028 -725 1275 -790 
Q 1522 -856 1778 -856 
Q 2344 -856 2625 -561 
Q 2906 -266 2906 331 
L 2906 616 
Q 2728 306 2450 153 
Q 2172 0 1784 0 
Q 1141 0 747 490 
Q 353 981 353 1791 
Q 353 2603 747 3093 
Q 1141 3584 1784 3584 
Q 2172 3584 2450 3431 
Q 2728 3278 2906 2969 
L 2906 3500 
L 3481 3500 
L 3481 434 
z
" transform="scale(0.015625)"/>
      <path id="DejaVuSans-5f" d="M 3263 -1063 
L 3263 -1509 
L -63 -1509 
L -63 -1063 
L 3263 -1063 
z
" transform="scale(0.015625)"/>
      <path id="DejaVuSans-5a" d="M 359 4666 
L 4025 4666 
L 4025 4184 
L 1075 531 
L 4097 531 
L 4097 0 
L 288 0 
L 288 481 
L 3238 4134 
L 359 4134 
L 359 4666 
z
" transform="scale(0.015625)"/>
      <path id="DejaVuSans-6d" d="M 3328 2828 
Q 3544 3216 3844 3400 
Q 4144 3584 4550 3584 
Q 5097 3584 5394 3201 
Q 5691 2819 5691 2113 
L 5691 0 
L 5113 0 
L 5113 2094 
Q 5113 2597 4934 2840 
Q 4756 3084 4391 3084 
Q 3944 3084 3684 2787 
Q 3425 2491 3425 1978 
L 3425 0 
L 2847 0 
L 2847 2094 
Q 2847 2600 2669 2842 
Q 2491 3084 2119 3084 
Q 1678 3084 1418 2786 
Q 1159 2488 1159 1978 
L 1159 0 
L 581 0 
L 581 3500 
L 1159 3500 
L 1159 2956 
Q 1356 3278 1631 3431 
Q 1906 3584 2284 3584 
Q 2666 3584 2933 3390 
Q 3200 3197 3328 2828 
z
" transform="scale(0.015625)"/>
     </defs>
     <use xlink:href="#DejaVuSans-43"/>
     <use xlink:href="#DejaVuSans-68" x="69.824219"/>
     <use xlink:href="#DejaVuSans-61" x="133.203125"/>
     <use xlink:href="#DejaVuSans-72" x="194.482422"/>
     <use xlink:href="#DejaVuSans-6c" x="235.595703"/>
     <use xlink:href="#DejaVuSans-6f" x="263.378906"/>
     <use xlink:href="#DejaVuSans-74" x="324.560547"/>
     <use xlink:href="#DejaVuSans-74" x="363.769531"/>
     <use xlink:href="#DejaVuSans-65" x="402.978516"/>
     <use xlink:href="#DejaVuSans-6e" x="464.501953"/>
     <use xlink:href="#DejaVuSans-62" x="527.880859"/>
     <use xlink:href="#DejaVuSans-75" x="591.357422"/>
     <use xlink:href="#DejaVuSans-72" x="654.736328"/>
     <use xlink:href="#DejaVuSans-67" x="694.099609"/>
     <use xlink:href="#DejaVuSans-5f" x="757.576172"/>
     <use xlink:href="#DejaVuSans-5a" x="807.576172"/>
     <use xlink:href="#DejaVuSans-65" x="876.082031"/>
     <use xlink:href="#DejaVuSans-6e" x="937.605469"/>
     <use xlink:href="#DejaVuSans-74" x="1000.984375"/>
     <use xlink:href="#DejaVuSans-72" x="1040.193359"/>
     <use xlink:href="#DejaVuSans-75" x="1081.306641"/>
     <use xlink:href="#DejaVuSans-6d" x="1144.685547"/>
    </g>
   </g>
  </g>
 </g>
 <defs>
  <clipPath id="p123f78405e">
   <rect x="107.154469" y="86.4" width="523.691061" height="554.4"/>
  </clipPath>
 </defs>
</svg>
