<?xml version="1.0" encoding="utf-8" standalone="no"?>
<!DOCTYPE svg PUBLIC "-//W3C//DTD SVG 1.1//EN"
  "http://www.w3.org/Graphics/SVG/1.1/DTD/svg11.dtd">
<svg xmlns:xlink="http://www.w3.org/1999/xlink" width="720pt" height="720pt" viewBox="0 0 720 720" xmlns="http://www.w3.org/2000/svg" version="1.1">
 <metadata>
  <rdf:RDF xmlns:dc="http://purl.org/dc/elements/1.1/" xmlns:cc="http://creativecommons.org/ns#" xmlns:rdf="http://www.w3.org/1999/02/22-rdf-syntax-ns#">
   <cc:Work>
    <dc:type rdf:resource="http://purl.org/dc/dcmitype/StillImage"/>
    <dc:date>2024-10-17T11:36:17.713439</dc:date>
    <dc:format>image/svg+xml</dc:format>
    <dc:creator>
     <cc:Agent>
      <dc:title>Matplotlib v3.9.2, https://matplotlib.org/</dc:title>
     </cc:Agent>
    </dc:creator>
   </cc:Work>
  </rdf:RDF>
 </metadata>
 <defs>
  <style type="text/css">*{stroke-linejoin: round; stroke-linecap: butt}</style>
 </defs>
 <g id="figure_1">
  <g id="patch_1">
   <path d="M 0 720 
L 720 720 
L 720 0 
L 0 0 
z
" style="fill: #ffffff"/>
  </g>
  <g id="axes_1">
   <g id="patch_2">
    <path d="M 90 640.231939 
L 648 640.231939 
L 648 86.968061 
L 90 86.968061 
z
" style="fill: #ffffff"/>
   </g>
   <g id="PatchCollection_1">
    <path d="M 413.372846 151.457554 
L 413.085838 151.313714 
L 412.799428 151.168604 
L 412.513316 151.022449 
L 412.227877 150.875099 
L 411.943035 150.726554 
L 411.821749 150.662999 
L 409.156826 149.265002 
L 408.80432 149.080684 
L 408.451293 148.897187 
L 408.097891 148.714586 
L 407.744341 148.532733 
L 407.390267 148.351775 
L 407.03582 148.171639 
L 406.680627 147.99225 
L 406.32506 147.813682 
L 405.969044 147.635936 
L 405.595852 147.450945 
L 405.222286 147.266851 
L 404.848198 147.083653 
L 403.554385 146.862591 
L 400.911119 145.645627 
L 398.38324 144.481837 
L 398.168077 144.38445 
L 397.951645 144.289752 
L 397.734093 144.197742 
L 397.515345 144.108495 
L 397.295478 144.022087 
L 397.074565 143.938441 
L 396.725346 143.809762 
L 396.377546 143.681904 
L 396.017199 143.580634 
L 395.653267 143.500125 
L 395.286722 143.432462 
L 394.917712 143.382499 
L 394.559531 143.319466 
L 394.215465 143.320811 
L 393.433531 142.496457 
L 392.707833 144.215143 
L 392.674599 144.200356 
L 392.598945 144.166823 
L 391.279889 143.590567 
L 390.720735 143.344709 
L 390.065539 143.083542 
L 389.741115 142.959941 
L 389.414002 142.84351 
L 389.084499 142.734174 
L 388.752682 142.632082 
L 388.418698 142.537234 
L 388.082698 142.44963 
L 387.744905 142.36942 
L 387.40547 142.296604 
L 387.064466 142.231107 
L 386.722193 142.173003 
L 386.37865 142.122368 
L 386.034136 142.079276 
L 385.688725 142.043652 
L 385.342643 142.015571 
L 384.996038 141.995033 
L 384.64906 141.982038 
L 383.763764 141.962173 
L 383.593561 141.958214 
L 381.977041 141.944622 
L 381.410867 141.949551 
L 379.980907 141.988834 
L 377.408889 142.059335 
L 377.404184 141.888535 
L 377.399628 141.723111 
L 375.608649 141.771954 
L 375.606782 141.710639 
L 374.985566 141.744396 
L 371.83916 141.912284 
L 369.782979 142.08077 
L 367.466528 142.271212 
L 362.738181 142.214079 
L 362.445497 142.208553 
L 360.653696 142.44851 
L 360.512395 142.46748 
L 357.925217 142.833502 
L 356.766057 142.996611 
L 353.032864 143.546205 
L 349.320135 144.07444 
L 349.00766 143.907373 
L 348.224979 143.488773 
L 347.608767 143.159196 
L 343.753019 142.730663 
L 337.775519 142.066206 
L 336.852359 141.970238 
L 333.694675 141.614447 
L 333.608714 141.89436 
L 333.050681 143.710359 
L 332.912965 144.157338 
L 331.511608 144.426646 
L 330.293822 144.65921 
L 329.174395 144.873103 
L 327.795368 144.540239 
L 323.583156 143.523576 
L 322.340277 143.223648 
L 321.087465 143.163976 
L 320.393284 143.127306 
L 319.699551 143.083393 
L 319.006266 143.032235 
L 318.313579 142.973832 
L 317.621564 142.908186 
L 316.930221 142.835369 
L 316.559941 142.794294 
L 316.18996 142.751201 
L 315.820203 142.705943 
L 315.214223 142.623568 
L 314.609064 142.535665 
L 314.004727 142.442162 
L 313.401286 142.343057 
L 312.798742 142.238501 
L 312.247803 142.138574 
L 311.698209 142.031553 
L 311.150034 141.917363 
L 310.603352 141.796077 
L 310.058388 141.667696 
L 309.515067 141.532221 
L 309.095273 141.422511 
L 308.676673 141.308544 
L 308.259193 141.190396 
L 307.842909 141.068064 
L 307.454481 140.949691 
L 307.067173 140.827659 
L 306.680986 140.701967 
L 306.296069 140.572615 
L 306.013467 140.478066 
L 305.729969 140.386579 
L 305.445426 140.298154 
L 305.387024 140.28038 
L 305.354611 140.270596 
L 305.322199 140.260813 
L 305.289786 140.251029 
L 305.072532 140.186951 
L 304.854756 140.124665 
L 304.636531 140.064172 
L 304.575067 140.047443 
L 304.513603 140.030863 
L 304.452138 140.014433 
L 304.360726 139.99031 
L 304.269164 139.966486 
L 304.177603 139.942961 
L 304.000454 139.898375 
L 303.823007 139.854984 
L 303.645335 139.812788 
L 303.506947 139.780749 
L 303.368409 139.749456 
L 303.229648 139.718836 
L 303.126212 139.696506 
L 303.022775 139.674549 
L 302.919189 139.652966 
L 302.784536 139.625557 
L 302.649732 139.598746 
L 302.51478 139.572606 
L 302.377288 139.881496 
L 301.675115 141.46396 
L 300.660244 143.751061 
L 301.380042 143.960772 
L 300.941651 145.074449 
L 298.548873 151.135072 
L 298.472174 151.330592 
L 298.400776 151.562409 
L 298.201521 152.209316 
L 298.119519 152.475711 
L 297.866343 152.98184 
L 297.41787 154.196937 
L 297.251401 154.648024 
L 295.870134 158.057763 
L 294.690661 160.836654 
L 293.692444 163.188729 
L 292.786461 165.021083 
L 291.019081 168.7958 
L 290.389426 170.649887 
L 289.969184 170.512843 
L 289.613094 171.574391 
L 290.033859 171.71502 
L 289.200469 174.185692 
L 288.209198 178.724568 
L 287.891794 183.368673 
L 287.881861 187.913076 
L 287.871032 191.990709 
L 287.866625 193.634189 
L 287.567668 193.631127 
L 287.561843 194.0029 
L 287.859456 194.006858 
L 287.902772 195.844814 
L 287.972974 198.824751 
L 288.016067 200.653073 
L 288.057516 205.845428 
L 288.34893 210.31455 
L 288.644153 216.290482 
L 288.979556 220.76625 
L 289.331164 225.574584 
L 289.81317 230.019882 
L 290.403915 235.476242 
L 291.137305 237.385371 
L 291.408181 238.074922 
L 293.632623 242.11932 
L 294.513661 243.698871 
L 292.952482 243.755481 
L 289.757083 243.871464 
L 288.443778 243.919112 
L 288.42212 243.640768 
L 288.337205 242.551587 
L 288.16379 240.324756 
L 287.90434 240.345891 
L 287.190368 240.404293 
L 287.042495 240.416317 
L 285.012454 243.575868 
L 283.848889 245.387012 
L 283.745154 245.548403 
L 283.721181 245.543922 
L 283.244925 245.455422 
L 282.142301 245.250491 
L 281.921463 245.20949 
L 281.472019 245.99471 
L 281.193525 246.556254 
L 280.887099 246.979932 
L 280.635865 247.275976 
L 280.213232 247.706376 
L 279.834588 248.177852 
L 278.844885 249.798927 
L 276.462041 253.434136 
L 274.936336 255.362084 
L 274.670314 255.59883 
L 272.948416 257.131257 
L 271.952067 258.463233 
L 271.435632 259.136801 
L 271.26991 259.472129 
L 271.232922 259.546967 
L 270.28775 261.459377 
L 269.990959 262.059905 
L 269.875573 262.403224 
L 269.154431 264.451189 
L 268.09938 267.448079 
L 268.17145 267.483853 
L 268.163683 267.497594 
L 267.354863 268.920087 
L 266.853215 269.802395 
L 266.840818 269.828982 
L 266.817815 269.879393 
L 266.296601 271.024213 
L 265.784796 272.148496 
L 265.691143 272.354099 
L 265.553652 272.656192 
L 265.537296 272.692115 
L 265.232364 273.362099 
L 264.081121 275.976088 
L 263.429584 277.110901 
L 263.556023 277.156383 
L 265.330349 277.794029 
L 265.679941 277.919497 
L 265.823706 277.971028 
L 266.273374 278.132419 
L 266.304293 278.143397 
L 266.4441 278.193584 
L 266.550449 278.231747 
L 266.55269 278.232644 
L 267.009975 278.397544 
L 266.883761 278.749377 
L 266.510718 279.802038 
L 266.410119 280.08561 
L 266.008398 279.942293 
L 265.889502 279.899873 
L 264.939755 279.560886 
L 264.707714 279.477987 
L 264.251549 279.315103 
L 264.101883 279.26163 
L 263.766779 279.141912 
L 263.716144 279.123839 
L 262.822857 278.804419 
L 262.793656 278.793963 
L 261.297003 278.258559 
L 261.200139 278.223831 
L 261.054059 278.558412 
L 260.76257 279.000985 
L 259.612298 279.995468 
L 259.188844 280.230869 
L 258.807212 280.386435 
L 258.268746 280.421685 
L 257.542302 280.448945 
L 256.363426 280.392932 
L 254.480063 280.313768 
L 253.468329 279.791881 
L 253.374377 279.7461 
L 252.324106 279.32877 
L 252.256219 279.519436 
L 251.716035 279.377986 
L 251.631942 279.355955 
L 251.11588 279.220853 
L 250.937611 279.174101 
L 250.481744 279.054757 
L 250.469795 279.051546 
L 249.905936 278.978132 
L 249.560526 278.879699 
L 248.328924 278.413377 
L 247.590979 278.067071 
L 247.564018 278.108371 
L 246.897395 279.113981 
L 244.125675 283.294676 
L 243.123126 284.807013 
L 242.582718 286.845567 
L 242.38996 287.572609 
L 241.722516 290.089958 
L 240.607345 294.296121 
L 240.227207 295.729741 
L 239.486797 297.030798 
L 234.905426 305.081058 
L 234.046494 306.590333 
L 233.40011 308.037919 
L 231.70002 311.845496 
L 231.004495 313.403091 
L 231.706293 314.972037 
L 233.149772 318.199176 
L 233.804147 319.662221 
L 234.180999 322.326174 
L 235.303563 330.261795 
L 235.444938 331.261356 
L 231.635942 333.261225 
L 211.834343 343.65781 
L 187.648462 352.582835 
L 180.848773 355.092044 
L 174.376571 355.313255 
L 161.195121 355.763745 
L 148.884479 361.502707 
L 143.186817 364.158743 
L 138.87931 368.240035 
L 133.528402 373.309984 
L 132.865439 378.968213 
L 131.039731 394.550804 
L 131.021434 407.387366 
L 131.015534 411.577472 
L 128.568163 414.880265 
L 120.592437 425.643619 
L 117.125415 436.125193 
L 115.363636 441.451605 
L 116.050274 446.73119 
L 117.710185 459.493442 
L 130.63084 483.038391 
L 131.765802 494.252757 
L 132.077157 497.329484 
L 130.610078 500.386196 
L 126.28756 509.392253 
L 117.588601 527.513777 
L 116.447067 529.891693 
L 116.741095 532.462291 
L 118.80071 550.471342 
L 119.63186 557.73937 
L 120.512824 565.441456 
L 120.80394 567.987036 
L 120.59759 571.480197 
L 120.030072 581.090441 
L 119.702511 586.635674 
L 146.722174 593.127668 
L 148.673574 593.596455 
L 151.934096 594.582349 
L 155.400446 592.417878 
L 160.919764 591.789717 
L 161.183396 591.759619 
L 162.472056 591.830494 
L 164.334358 593.295332 
L 167.165452 597.772968 
L 167.720199 599.79681 
L 167.8379 600.227732 
L 167.479869 602.168377 
L 167.374715 603.337693 
L 167.19652 605.319489 
L 167.570235 607.846846 
L 167.659482 608.453498 
L 168.242086 609.562321 
L 168.638804 610.317369 
L 169.438288 611.351881 
L 171.23584 612.208275 
L 172.634509 612.876466 
L 173.881495 613.504328 
L 174.767836 613.704927 
L 175.480688 613.682672 
L 176.029088 613.587077 
L 177.588325 613.197081 
L 180.713372 611.872947 
L 182.371042 611.409462 
L 182.940129 610.970026 
L 183.752235 609.895259 
L 184.860684 608.23617 
L 186.415889 605.902392 
L 186.553754 605.695295 
L 187.220004 604.695211 
L 187.901115 603.93852 
L 188.397087 603.58609 
L 190.578436 602.359865 
L 193.280402 601.681816 
L 195.664591 600.6715 
L 196.506496 600.315933 
L 197.431374 599.926161 
L 198.359388 599.724666 
L 200.401677 599.836989 
L 202.636798 599.591207 
L 205.292087 599.696062 
L 208.660079 600.549767 
L 212.177064 601.622891 
L 215.895096 603.122382 
L 218.445306 604.17915 
L 221.009034 604.953242 
L 225.472331 606.061766 
L 230.853784 607.054979 
L 233.301304 607.965742 
L 233.563069 608.061037 
L 237.419788 609.498989 
L 238.491195 609.278524 
L 241.87248 608.57695 
L 244.355475 608.790469 
L 246.34205 608.957087 
L 251.468759 606.667149 
L 255.901585 605.875357 
L 261.315973 604.612761 
L 263.250643 604.455179 
L 270.972894 605.106119 
L 275.351948 605.371767 
L 275.698852 605.392679 
L 276.924106 605.46669 
L 277.853689 605.522926 
L 281.534678 605.397384 
L 288.847217 606.289774 
L 293.165479 606.249893 
L 293.510366 606.246607 
L 298.904963 606.195897 
L 299.931933 606.496273 
L 308.817301 605.545555 
L 315.267547 603.760849 
L 317.276154 603.583999 
L 324.925588 602.911028 
L 325.387206 602.795866 
L 332.714905 600.966574 
L 339.112797 601.055447 
L 343.442262 603.139409 
L 345.381488 604.072502 
L 351.200809 606.635184 
L 353.166622 608.004203 
L 357.312963 610.602957 
L 361.222633 611.55039 
L 361.258257 611.560024 
L 362.969251 611.99595 
L 363.101291 612.030155 
L 365.282789 612.596329 
L 367.19722 613.181696 
L 367.22672 613.191256 
L 367.229708 613.188269 
L 367.340538 613.222996 
L 367.452712 613.253542 
L 367.565857 613.27983 
L 367.681989 613.302534 
L 367.799018 613.320682 
L 367.91657 613.334274 
L 368.606419 613.601342 
L 368.659743 613.621805 
L 369.389772 613.797759 
L 369.739066 613.913294 
L 369.834212 613.944511 
L 370.849307 614.279615 
L 372.161866 614.723607 
L 372.265004 614.75841 
L 373.123264 614.965058 
L 373.615352 615.083581 
L 373.689288 614.88104 
L 374.089665 614.3186 
L 374.247621 614.096641 
L 374.951212 613.108208 
L 376.034717 614.001868 
L 377.650938 611.9489 
L 376.608434 611.142694 
L 376.281545 610.890339 
L 376.061005 610.719986 
L 377.328381 609.162466 
L 377.819871 608.558503 
L 379.30323 606.738397 
L 379.997486 605.886559 
L 381.639921 603.866227 
L 384.358766 600.522059 
L 384.709702 600.09039 
L 385.363779 599.285005 
L 389.442979 594.261659 
L 391.570482 592.352829 
L 392.082734 591.892854 
L 393.459969 590.655427 
L 394.25669 588.954366 
L 394.977906 588.064366 
L 396.006519 586.163079 
L 396.755592 585.249702 
L 400.231053 581.00575 
L 402.264231 578.524249 
L 403.383435 577.158068 
L 404.296662 576.04342 
L 406.110569 573.535705 
L 408.748233 570.608942 
L 409.380801 569.925739 
L 409.724941 570.207818 
L 409.90082 570.03403 
L 419.106356 560.937233 
L 420.479408 559.794653 
L 423.827908 557.006801 
L 424.78109 556.269976 
L 425.807388 555.447863 
L 426.823304 554.618878 
L 429.040502 552.844926 
L 430.65015 551.553578 
L 430.969197 551.224224 
L 431.161208 551.064327 
L 436.152217 546.288108 
L 437.604359 544.667331 
L 441.986251 539.389613 
L 446.796152 533.614355 
L 449.930161 529.84397 
L 450.189312 529.532167 
L 452.543927 526.121233 
L 454.264779 523.22031 
L 454.308767 523.12718 
L 456.204976 519.108398 
L 456.817229 517.810851 
L 459.138983 512.875705 
L 459.697988 511.68839 
L 461.717274 507.399479 
L 463.131402 504.204454 
L 464.866743 500.286569 
L 466.926806 496.807523 
L 468.484998 494.175908 
L 468.565432 492.924291 
L 468.605014 492.307333 
L 469.091053 490.398652 
L 472.661362 483.219797 
L 473.544566 481.900442 
L 473.945914 481.294238 
L 474.30288 480.815063 
L 474.068245 480.602969 
L 472.883671 479.532198 
L 472.1217 478.843431 
L 471.670763 478.485922 
L 470.852458 477.927067 
L 470.620268 477.774863 
L 469.892703 477.183969 
L 469.154384 476.584337 
L 468.705151 476.219488 
L 469.301809 475.489256 
L 469.338927 475.342802 
L 469.418464 475.245714 
L 473.138638 470.721349 
L 477.958124 464.860033 
L 482.038146 459.758792 
L 489.186456 450.953857 
L 489.869733 450.142423 
L 490.417386 449.489542 
L 490.867726 449.858552 
L 491.549062 450.411358 
L 491.66146 450.502471 
L 492.327635 451.043104 
L 493.115543 451.158116 
L 492.70486 451.666335 
L 493.28485 452.150059 
L 493.838328 451.478059 
L 494.094865 452.360442 
L 494.670524 452.954622 
L 494.61959 453.003689 
L 494.881579 453.325275 
L 494.96612 453.238045 
L 495.80922 453.908253 
L 496.446791 453.405112 
L 498.788635 451.571189 
L 500.910685 449.894176 
L 502.490685 448.414252 
L 503.401821 447.391465 
L 504.838055 445.772705 
L 505.738885 446.62626 
L 507.697752 444.854772 
L 508.443838 444.028103 
L 508.941303 443.4334 
L 510.180374 441.816283 
L 510.69061 441.141146 
L 511.201966 440.404097 
L 512.19742 438.795793 
L 513.088391 437.14589 
L 514.371674 434.852291 
L 517.640188 429.010341 
L 519.549914 425.742126 
L 522.292508 420.971583 
L 525.43884 415.505887 
L 526.658642 413.606168 
L 528.976736 410.540644 
L 531.314099 407.563544 
L 533.609265 404.640964 
L 536.778674 400.75452 
L 539.729261 397.020655 
L 541.306945 395.074708 
L 542.228537 394.010098 
L 545.453734 391.467431 
L 544.936926 391.040168 
L 547.068088 388.611841 
L 547.426045 388.284803 
L 547.966901 387.610263 
L 548.532851 387.101297 
L 549.022475 386.646849 
L 549.333979 386.407041 
L 552.835504 384.297537 
L 552.464403 383.507089 
L 552.096513 382.709995 
L 551.872015 382.222537 
L 552.237515 381.969659 
L 552.387479 382.290648 
L 552.552529 382.21238 
L 555.255019 380.962107 
L 555.319844 380.93201 
L 557.877597 379.7376 
L 560.471795 378.525267 
L 562.890039 377.401059 
L 565.11702 376.355493 
L 585.670082 366.761306 
L 590.325091 364.5875 
L 590.464077 364.522749 
L 591.290373 364.137757 
L 591.324468 364.121859 
L 592.738556 363.462247 
L 593.727213 363.001003 
L 593.837745 362.949397 
L 593.956715 362.893832 
L 594.621844 362.58315 
L 595.782497 362.040949 
L 597.202152 361.375671 
L 597.267574 361.120777 
L 597.336806 360.866928 
L 597.409995 360.6142 
L 597.480347 360.381785 
L 597.555702 360.150865 
L 597.636061 359.921737 
L 597.760409 359.586707 
L 597.888043 359.252798 
L 598.018813 358.920234 
L 598.152795 358.588864 
L 598.438459 357.899015 
L 598.580207 357.554053 
L 598.718147 357.207447 
L 598.852204 356.859423 
L 598.982452 356.509906 
L 599.082154 356.228574 
L 599.175732 355.945151 
L 599.263186 355.659786 
L 599.344441 355.372554 
L 599.419498 355.083679 
L 599.484398 354.811309 
L 599.541755 354.537296 
L 599.591494 354.261715 
L 599.63354 353.984939 
L 599.667895 353.707042 
L 599.694482 353.428324 
L 599.713377 353.149009 
L 599.724505 352.869245 
L 600.012558 352.526001 
L 600.266033 352.47783 
L 600.520554 352.435111 
L 600.775896 352.397919 
L 601.031985 352.366179 
L 601.441324 352.331899 
L 601.823254 352.307253 
L 601.870006 351.389919 
L 601.873217 351.326961 
L 601.241546 351.359747 
L 600.896733 351.074606 
L 600.848936 350.716798 
L 600.794492 350.359962 
L 600.733252 350.004171 
L 600.665365 349.649649 
L 600.565764 349.187805 
L 600.50965 348.944714 
L 600.421897 348.594524 
L 600.327946 348.246051 
L 600.227422 347.899372 
L 600.120401 347.554708 
L 600.006882 347.212061 
L 599.887015 346.871655 
L 599.760726 346.533564 
L 599.628089 346.197863 
L 599.213746 345.092251 
L 599.199556 345.09494 
L 599.179839 345.004498 
L 599.168786 344.912563 
L 599.166546 344.820031 
L 599.173193 344.727648 
L 599.188503 344.636385 
L 599.212551 344.546989 
L 599.244889 344.460281 
L 599.285442 344.37701 
L 599.333687 344.297995 
L 599.371701 344.245866 
L 599.413001 344.196351 
L 599.457587 344.149674 
L 599.505085 344.106059 
L 599.177599 343.580064 
L 598.989546 343.689251 
L 598.290884 342.217468 
L 598.475352 341.981991 
L 598.318069 340.357033 
L 598.286702 339.376665 
L 598.349959 339.150823 
L 598.551828 338.431026 
L 600.105763 334.159889 
L 598.845034 333.813284 
L 598.956312 333.388411 
L 599.062288 332.962118 
L 599.162886 332.534557 
L 599.258108 332.1058 
L 599.347952 331.675848 
L 599.45318 331.126254 
L 599.552509 330.575614 
L 599.645938 330.023854 
L 599.733467 329.471198 
L 599.897172 328.362301 
L 600.486423 323.924919 
L 600.566409 323.333427 
L 600.651996 322.742608 
L 600.743185 322.152759 
L 600.839825 321.563732 
L 600.942066 320.975602 
L 601.047145 320.387844 
L 601.157154 319.801058 
L 601.272092 319.215167 
L 601.391958 318.630323 
L 601.516754 318.046449 
L 601.645657 317.46362 
L 601.779714 316.881912 
L 601.918923 316.301399 
L 602.063211 315.722156 
L 602.212727 315.144257 
L 602.372624 314.541562 
L 602.537077 313.940138 
L 602.706085 313.339983 
L 602.879724 312.741098 
L 602.936035 312.725713 
L 603.250302 312.774257 
L 603.28152 312.65581 
L 603.312961 312.537362 
L 603.344702 312.419064 
L 603.468153 311.967678 
L 603.595115 311.517263 
L 603.713024 311.111093 
L 603.725587 311.067819 
L 603.859568 310.619421 
L 604.191691 309.530462 
L 604.247473 309.347564 
L 604.407893 308.410439 
L 605.007973 306.545149 
L 605.943157 304.296436 
L 606.87147 302.253026 
L 607.840635 300.221492 
L 608.823094 298.232826 
L 609.141991 297.604142 
L 609.122051 297.593313 
L 610.072097 295.818315 
L 610.740886 294.579469 
L 611.478607 293.214184 
L 611.546345 293.088119 
L 611.613933 292.961904 
L 611.681447 292.835689 
L 611.999299 292.237849 
L 612.314612 291.63874 
L 612.62746 291.038287 
L 612.958904 290.395786 
L 613.287585 289.751792 
L 613.613354 289.10638 
L 614.026203 288.277619 
L 614.434347 287.446544 
L 614.837786 286.613153 
L 615.23652 285.777522 
L 615.630549 284.93965 
L 615.717929 284.978635 
L 616.479101 283.39871 
L 616.918687 282.470621 
L 617.15237 281.962775 
L 617.208458 281.921251 
L 617.812048 280.455591 
L 617.986219 280.026867 
L 618.801601 278.019796 
L 618.794656 277.877002 
L 618.753057 277.86199 
L 619.464042 275.937626 
L 619.832828 274.923801 
L 619.955831 274.57152 
L 620.075101 274.217895 
L 620.19071 273.863149 
L 620.302586 273.507134 
L 620.410802 273.149849 
L 620.515284 272.791444 
L 620.616032 272.431919 
L 620.713045 272.071422 
L 620.803263 271.709283 
L 620.888775 271.346024 
L 620.969508 270.981644 
L 621.045386 270.616293 
L 621.116559 270.249897 
L 621.182952 269.882605 
L 621.244491 269.514416 
L 621.301176 269.145481 
L 621.380266 268.591107 
L 621.454202 268.036061 
L 621.52306 267.480343 
L 621.58684 266.924027 
L 621.645466 266.367114 
L 621.698939 265.809752 
L 621.747334 265.251868 
L 621.790576 264.693536 
L 621.836655 264.079639 
L 621.877357 263.465444 
L 621.912459 262.850801 
L 621.942108 262.235933 
L 621.966305 261.620842 
L 621.985125 261.005526 
L 621.998419 260.390061 
L 622.006261 259.774522 
L 622.008576 259.158982 
L 622.005439 258.543368 
L 621.989083 257.663619 
L 621.972952 256.796003 
L 621.957493 256.346261 
L 621.938971 255.896593 
L 621.917462 255.447074 
L 621.892892 254.997705 
L 621.845094 254.252739 
L 621.791024 253.508147 
L 621.730754 252.764002 
L 621.664286 252.020456 
L 621.597146 251.338448 
L 621.524852 250.656963 
L 621.410587 249.668306 
L 621.372797 249.360685 
L 621.333887 249.05314 
L 621.248823 248.405262 
L 621.160249 247.757908 
L 621.068089 247.111001 
L 620.97242 246.464617 
L 620.872942 245.819204 
L 620.769879 245.174314 
L 620.663306 244.529947 
L 620.553223 243.886252 
L 620.373759 242.875488 
L 620.189739 241.865621 
L 620.001089 240.856575 
L 619.807809 239.848351 
L 619.6096 238.841247 
L 619.406835 237.835039 
L 619.199439 236.829802 
L 618.987413 235.825536 
L 618.885769 235.338601 
L 618.780466 234.852413 
L 618.671652 234.367046 
L 618.558955 233.882277 
L 618.442748 233.398404 
L 618.322882 232.915353 
L 618.212574 232.494139 
L 618.096218 232.074568 
L 617.973812 231.656716 
L 617.845431 231.240655 
L 617.711001 230.826462 
L 617.570672 230.414285 
L 617.424591 230.004199 
L 617.272536 229.596204 
L 617.11473 229.190524 
L 616.951099 228.787085 
L 616.781643 228.386036 
L 616.606436 227.987526 
L 616.374544 227.478335 
L 616.13862 226.971087 
L 615.898662 226.46563 
L 615.654747 225.962116 
L 615.832941 225.851734 
L 616.521521 225.425217 
L 616.734592 225.293327 
L 616.628094 225.075102 
L 616.526151 224.854712 
L 616.428615 224.632305 
L 616.335634 224.407956 
L 616.247209 224.181816 
L 616.118156 223.860752 
L 616.055497 223.699511 
L 615.919051 223.328335 
L 615.789027 222.954844 
L 615.665426 222.579187 
L 615.548323 222.201439 
L 615.437792 221.821749 
L 615.333758 221.440192 
L 615.275878 221.170138 
L 615.057953 220.302617 
L 614.316228 217.273886 
L 613.857494 215.400705 
L 613.818285 215.213549 
L 613.786096 215.025123 
L 613.761003 214.835577 
L 613.743079 214.645209 
L 613.73225 214.454318 
L 613.714774 214.236019 
L 613.690128 214.018392 
L 613.658463 213.801661 
L 613.619702 213.586125 
L 613.573921 213.371934 
L 613.521195 213.159385 
L 613.218429 211.864377 
L 613.195426 211.766094 
L 613.183253 211.710305 
L 613.177233 211.63138 
L 613.177278 211.596488 
L 613.183477 211.539729 
L 613.195707 211.484024 
L 612.295269 208.651129 
L 612.248368 208.619015 
L 612.206097 208.581001 
L 612.169054 208.537909 
L 612.137911 208.490411 
L 612.113191 208.439178 
L 612.095342 208.385257 
L 611.82758 207.322335 
L 611.775025 207.334164 
L 611.734323 207.34335 
L 611.132226 204.976637 
L 609.592854 198.840285 
L 608.054603 192.753598 
L 608.211662 192.705801 
L 607.856617 191.466133 
L 607.690895 190.91034 
L 607.467592 190.1653 
L 607.197986 189.22668 
L 606.984541 188.275738 
L 606.4991 186.00223 
L 605.445543 180.889861 
L 604.974067 178.624866 
L 604.964806 178.573783 
L 604.94972 178.471019 
L 604.941505 178.396783 
L 604.93553 178.32225 
L 604.931946 178.247641 
L 604.773916 175.578535 
L 604.753378 175.232528 
L 603.929845 164.939603 
L 603.851279 164.00315 
L 603.807738 163.625178 
L 603.651426 163.085964 
L 603.573307 162.915014 
L 603.276815 162.442643 
L 603.12476 162.273186 
L 603.001906 161.429937 
L 602.980845 161.216194 
L 602.962174 161.120823 
L 602.985923 161.134192 
L 603.029464 161.158688 
L 603.116843 160.017751 
L 603.147687 159.615806 
L 603.294739 158.12804 
L 603.503404 156.620484 
L 603.738133 155.152285 
L 603.995121 153.75093 
L 604.305502 152.221564 
L 604.935674 149.489601 
L 604.96152 149.37755 
L 605.5793 147.033317 
L 605.931283 145.697531 
L 606.236438 144.539492 
L 606.573932 143.365247 
L 606.907617 144.314024 
L 606.942121 144.308721 
L 606.958327 144.388632 
L 607.165349 145.408507 
L 607.322035 145.379381 
L 608.043998 148.096508 
L 609.364473 143.888852 
L 610.199208 141.582931 
L 610.96516 140.103231 
L 611.718116 139.14975 
L 612.970779 136.860035 
L 613.826948 135.468611 
L 614.688718 134.174424 
L 615.527113 133.048499 
L 616.421893 132.022276 
L 617.749015 130.642129 
L 618.991596 129.429796 
L 620.109754 128.556449 
L 621.386166 127.603939 
L 622.636364 126.778614 
L 622.57602 126.690861 
L 619.65665 126.934777 
L 616.412259 127.10976 
L 616.416516 127.163606 
L 612.890121 127.4244 
L 612.783772 127.43269 
L 612.18287 127.479591 
L 612.097274 127.48575 
L 614.672064 121.723303 
L 614.395736 121.588873 
L 614.119408 121.450709 
L 613.846814 121.308811 
L 613.57422 121.163178 
L 613.155994 120.935394 
L 612.90207 120.800964 
L 612.644413 120.666534 
L 612.394224 120.52837 
L 612.147769 120.390206 
L 610.773597 119.6135 
L 609.720563 119.008566 
L 607.831076 117.933126 
L 606.624941 117.373002 
L 606.071295 117.162089 
L 606.068849 117.160677 
L 604.787284 116.419371 
L 603.489289 115.678513 
L 602.647832 115.197254 
L 602.178 114.928469 
L 601.269179 114.454902 
L 600.854388 114.238619 
L 599.523607 113.623602 
L 598.149584 113.103135 
L 597.030903 112.806493 
L 596.726568 112.725835 
L 595.260909 112.517991 
L 594.615123 112.462427 
L 593.878148 112.416646 
L 593.660596 112.116419 
L 593.523552 112.203351 
L 593.24334 112.381097 
L 592.79061 112.371612 
L 592.408755 112.363696 
L 590.92786 112.516348 
L 590.682675 112.55847 
L 590.58484 112.575273 
L 589.477361 112.765865 
L 588.01103 113.058325 
L 586.575841 113.479165 
L 584.931166 114.196199 
L 583.775218 114.838177 
L 583.648555 114.908528 
L 582.448619 115.766116 
L 581.541217 116.522957 
L 581.319408 116.707947 
L 580.168539 117.653886 
L 579.016101 118.597509 
L 577.703542 119.675562 
L 576.51212 120.556526 
L 575.263565 121.370574 
L 574.19649 121.958107 
L 572.881393 122.618681 
L 572.66272 122.71913 
L 571.542695 123.233847 
L 571.490416 123.1918 
L 571.476973 123.152666 
L 569.87315 123.645426 
L 569.863367 123.648488 
L 569.779497 123.581199 
L 569.553282 123.656031 
L 568.271567 123.867534 
L 566.803966 124.071121 
L 566.435404 124.203012 
L 566.132787 124.254767 
L 565.591259 124.141398 
L 564.434042 124.164102 
L 562.948815 124.079112 
L 561.461796 123.926758 
L 559.977765 123.777541 
L 558.495974 123.62683 
L 557.012689 123.479853 
L 555.981164 123.366783 
L 555.164129 123.273429 
L 554.507215 123.198372 
L 553.032743 123.02085 
L 551.56081 122.862148 
L 550.074464 122.715097 
L 548.608207 122.575066 
L 547.128731 122.461771 
L 545.647388 122.405161 
L 544.175231 122.413003 
L 542.762 122.428612 
L 541.50157 122.442801 
L 541.283047 122.445266 
L 540.714035 122.409567 
L 540.327773 122.385445 
L 539.90658 122.359001 
L 539.451066 122.330403 
L 539.228435 122.334585 
L 539.160399 122.33578 
L 539.081234 122.337274 
L 538.880112 122.341008 
L 536.801975 122.379246 
L 536.472547 122.385519 
L 536.272321 122.389328 
L 535.807941 122.428014 
L 535.179182 122.480367 
L 534.980525 122.496947 
L 534.726303 122.518232 
L 534.273349 122.556171 
L 534.21756 122.560876 
L 534.248853 123.061104 
L 534.251915 123.110395 
L 534.15042 123.097998 
L 534.048851 123.085824 
L 533.947282 123.073875 
L 533.724576 123.049454 
L 533.501871 123.025032 
L 533.406724 123.014577 
L 533.278941 123.002179 
L 533.055937 122.980521 
L 532.865494 122.962074 
L 532.832932 122.959311 
L 532.609704 122.940566 
L 532.386401 122.92182 
L 532.323667 122.916518 
L 532.163023 122.905016 
L 531.939496 122.889034 
L 531.781317 122.877757 
L 531.715969 122.873948 
L 531.492293 122.860804 
L 531.268616 122.847734 
L 531.238444 122.845942 
L 531.044865 122.837054 
L 530.82104 122.826748 
L 530.695273 122.820923 
L 530.597139 122.817637 
L 530.373239 122.810243 
L 530.151803 122.80285 
L 529.529766 122.790601 
L 528.907654 122.78739 
L 528.285542 122.793141 
L 527.663505 122.808003 
L 527.159318 122.827271 
L 527.041842 122.831752 
L 526.420551 122.864613 
L 525.799784 122.906435 
L 525.492238 122.931604 
L 525.179763 122.95722 
L 524.56049 123.016967 
L 523.942112 123.08575 
L 523.324855 123.16342 
L 522.726716 123.247364 
L 522.129922 123.339748 
L 521.534398 123.44057 
L 520.940367 123.549682 
L 520.347905 123.667159 
L 519.75716 123.792926 
L 519.168282 123.927057 
L 518.581346 124.069403 
L 518.599644 124.209883 
L 518.629592 124.439235 
L 515.295656 125.312208 
L 514.812231 125.523487 
L 513.439179 126.123417 
L 511.94977 126.774133 
L 508.740181 128.33352 
L 505.286677 130.266248 
L 505.082568 130.380514 
L 502.554912 131.795164 
L 499.900146 132.922957 
L 499.904776 132.946407 
L 499.913738 132.992711 
L 495.209887 134.357398 
L 494.10435 134.678088 
L 493.538549 134.737237 
L 490.710816 135.032759 
L 489.37055 135.172865 
L 488.326852 135.281977 
L 479.155222 135.873394 
L 473.394079 136.122836 
L 467.543989 136.18094 
L 464.909461 136.207228 
L 464.069947 136.215593 
L 456.342318 135.848002 
L 450.596411 135.611555 
L 446.270756 135.112446 
L 443.485592 134.653816 
L 440.770332 133.747012 
L 438.62976 132.821313 
L 437.266342 132.179261 
L 435.966255 131.430785 
L 435.527715 131.136234 
L 432.357261 129.005968 
L 430.667029 127.564581 
L 429.105252 126.045672 
L 427.880745 124.854325 
L 426.292904 129.291482 
L 426.093275 129.849441 
L 426.038906 130.001421 
L 426.509187 130.094776 
L 426.672145 130.130101 
L 426.83376 130.171475 
L 426.993657 130.218824 
L 427.151687 130.272148 
L 427.273346 130.317929 
L 427.393586 130.367145 
L 427.512407 130.419872 
L 427.629585 130.476034 
L 427.796204 130.563562 
L 427.95864 130.658709 
L 428.11652 130.761174 
L 428.269546 130.870735 
L 428.417419 130.987166 
L 428.559765 131.110319 
L 428.696361 131.23982 
L 428.826907 131.375444 
L 428.951031 131.516895 
L 429.068508 131.663871 
L 429.179188 131.816001 
L 429.282699 131.97306 
L 429.378966 132.134749 
L 429.46769 132.300621 
L 429.548796 132.470451 
L 429.621986 132.643716 
L 429.687184 132.820192 
L 429.744242 132.999507 
L 429.788903 133.163138 
L 429.827365 133.328263 
L 429.859553 133.494806 
L 429.885319 133.662396 
L 429.904737 133.830881 
L 429.917806 133.999964 
L 429.924378 134.169421 
L 429.997344 137.868259 
L 430.005708 138.368787 
L 430.01706 139.073946 
L 430.043498 140.711825 
L 430.044917 140.81907 
L 430.057763 141.793164 
L 430.06299 142.296604 
L 430.104141 143.751061 
L 430.215568 145.200215 
L 430.397049 146.642947 
L 430.644698 148.076418 
L 430.970542 149.492936 
L 431.040072 149.755821 
L 431.111842 150.018108 
L 431.185853 150.279799 
L 431.263225 150.556127 
L 431.343136 150.831708 
L 431.425512 151.106543 
L 431.658225 151.866744 
L 431.731116 152.120816 
L 431.79512 152.377279 
L 431.850161 152.635832 
L 431.896241 152.896178 
L 431.933284 153.157868 
L 431.961141 153.420753 
L 431.979886 153.684385 
L 431.98952 153.948615 
L 431.989968 154.212919 
L 431.970327 155.520175 
L 432.306177 156.042584 
L 432.243593 156.185528 
L 432.15808 156.3809 
L 431.864202 157.05178 
L 431.711848 157.399505 
L 431.417894 158.070908 
L 431.266885 158.415571 
L 430.781742 158.206308 
L 430.295106 158.000481 
L 429.806976 157.798164 
L 429.317427 157.599432 
L 428.808535 157.397115 
L 428.298075 157.198607 
L 427.786196 157.003908 
L 427.272823 156.813092 
L 426.523078 156.536614 
L 426.399178 156.491058 
L 426.275279 156.4458 
L 426.15123 156.400765 
L 425.762428 156.261332 
L 425.372806 156.124363 
L 424.982287 155.989783 
L 424.921644 155.972382 
L 424.859209 155.963271 
L 424.796102 155.962599 
L 424.733517 155.970366 
L 424.672501 155.986423 
L 424.614173 156.010545 
L 424.55958 156.042211 
L 424.509766 156.080897 
L 424.465553 156.125931 
L 424.427764 156.176417 
L 424.404911 156.2157 
L 424.385941 156.257075 
L 424.371079 156.300018 
L 423.82619 156.066632 
L 423.657704 155.994414 
L 423.32738 155.852964 
L 423.173085 155.786944 
L 422.866286 155.655501 
L 422.709301 155.588286 
L 422.395258 155.453782 
L 419.810545 154.346901 
L 419.491498 154.21023 
L 417.888197 153.523891 
L 417.64458 153.421799 
L 417.401337 153.318811 
L 417.158467 153.215001 
L 416.863916 153.087143 
L 416.569888 152.95809 
L 416.276382 152.827693 
L 415.9834 152.696176 
L 415.69094 152.563389 
L 415.399003 152.429407 
L 415.107813 152.29438 
L 414.817146 152.158158 
L 414.527076 152.020666 
L 414.237678 151.88168 
L 413.948803 151.741574 
L 413.660526 151.600199 
L 413.372846 151.457554 
" clip-path="url(#pbfbb22b4a6)" style="fill: #d3d3d3"/>
   </g>
   <g id="PatchCollection_2">
    <path d="M 481.168174 197.729367 
L 481.168174 197.654684 
L 481.093491 197.654684 
L 481.093491 197.729367 
L 481.168174 197.729367 
" clip-path="url(#pbfbb22b4a6)" style="fill: #ff0000; fill-opacity: 0.7; stroke: #000000; stroke-opacity: 0.7; stroke-width: 0.5"/>
    <path d="M 574.997125 350.877411 
L 574.997125 350.802728 
L 574.922442 350.802728 
L 574.922442 350.877411 
L 574.997125 350.877411 
" clip-path="url(#pbfbb22b4a6)" style="fill: #ff0000; fill-opacity: 0.7; stroke: #000000; stroke-opacity: 0.7; stroke-width: 0.5"/>
    <path d="M 494.221169 291.921448 
L 494.221169 291.846765 
L 494.146486 291.846765 
L 494.146486 291.921448 
L 494.221169 291.921448 
" clip-path="url(#pbfbb22b4a6)" style="fill: #ff0000; fill-opacity: 0.7; stroke: #000000; stroke-opacity: 0.7; stroke-width: 0.5"/>
    <path d="M 481.490699 210.221008 
L 481.490699 210.146325 
L 481.416016 210.146325 
L 481.416016 210.221008 
L 481.490699 210.221008 
" clip-path="url(#pbfbb22b4a6)" style="fill: #ff0000; fill-opacity: 0.7; stroke: #000000; stroke-opacity: 0.7; stroke-width: 0.5"/>
    <path d="M 404.2747 256.332397 
L 404.2747 256.257714 
L 404.200016 256.257714 
L 404.200016 256.332397 
L 404.2747 256.332397 
" clip-path="url(#pbfbb22b4a6)" style="fill: #ff0000; fill-opacity: 0.7; stroke: #000000; stroke-opacity: 0.7; stroke-width: 0.5"/>
    <path d="M 539.157063 288.526651 
L 539.157063 288.451967 
L 539.08238 288.451967 
L 539.08238 288.526651 
L 539.157063 288.526651 
" clip-path="url(#pbfbb22b4a6)" style="fill: #ff0000; fill-opacity: 0.7; stroke: #000000; stroke-opacity: 0.7; stroke-width: 0.5"/>
    <path d="M 481.922226 445.324365 
L 481.922226 445.249681 
L 481.847543 445.249681 
L 481.847543 445.324365 
L 481.922226 445.324365 
" clip-path="url(#pbfbb22b4a6)" style="fill: #ff0000; fill-opacity: 0.7; stroke: #000000; stroke-opacity: 0.7; stroke-width: 0.5"/>
    <path d="M 587.712991 304.754268 
L 587.712991 304.679585 
L 587.638308 304.679585 
L 587.638308 304.754268 
L 587.712991 304.754268 
" clip-path="url(#pbfbb22b4a6)" style="fill: #ff0000; fill-opacity: 0.7; stroke: #000000; stroke-opacity: 0.7; stroke-width: 0.5"/>
    <path d="M 593.843555 213.542797 
L 593.843555 213.468114 
L 593.768872 213.468114 
L 593.768872 213.542797 
L 593.843555 213.542797 
" clip-path="url(#pbfbb22b4a6)" style="fill: #ff0000; fill-opacity: 0.7; stroke: #000000; stroke-opacity: 0.7; stroke-width: 0.5"/>
    <path d="M 613.440242 283.943701 
L 613.440242 283.869018 
L 613.365559 283.869018 
L 613.365559 283.943701 
L 613.440242 283.943701 
" clip-path="url(#pbfbb22b4a6)" style="fill: #ff0000; fill-opacity: 0.7; stroke: #000000; stroke-opacity: 0.7; stroke-width: 0.5"/>
    <path d="M 582.727358 212.159072 
L 582.727358 212.084388 
L 582.652675 212.084388 
L 582.652675 212.159072 
L 582.727358 212.159072 
" clip-path="url(#pbfbb22b4a6)" style="fill: #ff0000; fill-opacity: 0.7; stroke: #000000; stroke-opacity: 0.7; stroke-width: 0.5"/>
    <path d="M 164.950345 534.635216 
L 164.950345 534.560532 
L 164.875662 534.560532 
L 164.875662 534.635216 
L 164.950345 534.635216 
" clip-path="url(#pbfbb22b4a6)" style="fill: #ff0000; fill-opacity: 0.7; stroke: #000000; stroke-opacity: 0.7; stroke-width: 0.5"/>
    <path d="M 171.557854 524.145105 
L 171.557854 524.070421 
L 171.483171 524.070421 
L 171.483171 524.145105 
L 171.557854 524.145105 
" clip-path="url(#pbfbb22b4a6)" style="fill: #ff0000; fill-opacity: 0.7; stroke: #000000; stroke-opacity: 0.7; stroke-width: 0.5"/>
    <path d="M 413.45274 229.512837 
L 413.45274 229.438153 
L 413.378057 229.438153 
L 413.378057 229.512837 
L 413.45274 229.512837 
" clip-path="url(#pbfbb22b4a6)" style="fill: #ff0000; fill-opacity: 0.7; stroke: #000000; stroke-opacity: 0.7; stroke-width: 0.5"/>
    <path d="M 407.866473 239.079835 
L 407.866473 239.005152 
L 407.79179 239.005152 
L 407.79179 239.079835 
L 407.866473 239.079835 
" clip-path="url(#pbfbb22b4a6)" style="fill: #ff0000; fill-opacity: 0.7; stroke: #000000; stroke-opacity: 0.7; stroke-width: 0.5"/>
    <path d="M 384.116572 261.981968 
L 384.116572 261.907285 
L 384.041888 261.907285 
L 384.041888 261.981968 
L 384.116572 261.981968 
" clip-path="url(#pbfbb22b4a6)" style="fill: #ff0000; fill-opacity: 0.7; stroke: #000000; stroke-opacity: 0.7; stroke-width: 0.5"/>
    <path d="M 413.45274 229.512837 
L 413.45274 229.438153 
L 413.378057 229.438153 
L 413.378057 229.512837 
L 413.45274 229.512837 
" clip-path="url(#pbfbb22b4a6)" style="fill: #ff0000; fill-opacity: 0.7; stroke: #000000; stroke-opacity: 0.7; stroke-width: 0.5"/>
    <path d="M 463.54564 226.503352 
L 463.54564 226.428669 
L 463.470956 226.428669 
L 463.470956 226.503352 
L 463.54564 226.503352 
" clip-path="url(#pbfbb22b4a6)" style="fill: #ff0000; fill-opacity: 0.7; stroke: #000000; stroke-opacity: 0.7; stroke-width: 0.5"/>
    <path d="M 583.443336 280.798276 
L 583.443336 280.723593 
L 583.368653 280.723593 
L 583.368653 280.798276 
L 583.443336 280.798276 
" clip-path="url(#pbfbb22b4a6)" style="fill: #ff0000; fill-opacity: 0.7; stroke: #000000; stroke-opacity: 0.7; stroke-width: 0.5"/>
    <path d="M 459.22017 167.692325 
L 459.22017 167.617641 
L 459.145487 167.617641 
L 459.145487 167.692325 
L 459.22017 167.692325 
" clip-path="url(#pbfbb22b4a6)" style="fill: #ff0000; fill-opacity: 0.7; stroke: #000000; stroke-opacity: 0.7; stroke-width: 0.5"/>
    <path d="M 619.61668 263.758063 
L 619.61668 263.68338 
L 619.541996 263.68338 
L 619.541996 263.758063 
L 619.61668 263.758063 
" clip-path="url(#pbfbb22b4a6)" style="fill: #ff0000; fill-opacity: 0.7; stroke: #000000; stroke-opacity: 0.7; stroke-width: 0.5"/>
    <path d="M 492.5845 292.067743 
L 492.5845 291.99306 
L 492.509817 291.99306 
L 492.509817 292.067743 
L 492.5845 292.067743 
" clip-path="url(#pbfbb22b4a6)" style="fill: #ff0000; fill-opacity: 0.7; stroke: #000000; stroke-opacity: 0.7; stroke-width: 0.5"/>
    <path d="M 599.635022 267.485278 
L 599.635022 267.410594 
L 599.560339 267.410594 
L 599.560339 267.485278 
L 599.635022 267.485278 
" clip-path="url(#pbfbb22b4a6)" style="fill: #ff0000; fill-opacity: 0.7; stroke: #000000; stroke-opacity: 0.7; stroke-width: 0.5"/>
    <path d="M 615.593303 257.099968 
L 615.593303 257.025285 
L 615.518619 257.025285 
L 615.518619 257.099968 
L 615.593303 257.099968 
" clip-path="url(#pbfbb22b4a6)" style="fill: #ff0000; fill-opacity: 0.7; stroke: #000000; stroke-opacity: 0.7; stroke-width: 0.5"/>
    <path d="M 556.112309 279.166162 
L 556.112309 279.091479 
L 556.037625 279.091479 
L 556.037625 279.166162 
L 556.112309 279.166162 
" clip-path="url(#pbfbb22b4a6)" style="fill: #ff0000; fill-opacity: 0.7; stroke: #000000; stroke-opacity: 0.7; stroke-width: 0.5"/>
    <path d="M 556.112309 279.166162 
L 556.112309 279.091479 
L 556.037625 279.091479 
L 556.037625 279.166162 
L 556.112309 279.166162 
" clip-path="url(#pbfbb22b4a6)" style="fill: #ff0000; fill-opacity: 0.7; stroke: #000000; stroke-opacity: 0.7; stroke-width: 0.5"/>
    <path d="M 595.514794 301.156344 
L 595.514794 301.081661 
L 595.44011 301.081661 
L 595.44011 301.156344 
L 595.514794 301.156344 
" clip-path="url(#pbfbb22b4a6)" style="fill: #ff0000; fill-opacity: 0.7; stroke: #000000; stroke-opacity: 0.7; stroke-width: 0.5"/>
    <path d="M 599.03682 219.587761 
L 599.03682 219.513078 
L 598.962137 219.513078 
L 598.962137 219.587761 
L 599.03682 219.587761 
" clip-path="url(#pbfbb22b4a6)" style="fill: #ff0000; fill-opacity: 0.7; stroke: #000000; stroke-opacity: 0.7; stroke-width: 0.5"/>
    <path d="M 560.071561 280.385162 
L 560.071561 280.310479 
L 559.996877 280.310479 
L 559.996877 280.385162 
L 560.071561 280.385162 
" clip-path="url(#pbfbb22b4a6)" style="fill: #ff0000; fill-opacity: 0.7; stroke: #000000; stroke-opacity: 0.7; stroke-width: 0.5"/>
    <path d="M 590.036121 307.809713 
L 590.036121 307.73503 
L 589.961438 307.73503 
L 589.961438 307.809713 
L 590.036121 307.809713 
" clip-path="url(#pbfbb22b4a6)" style="fill: #ff0000; fill-opacity: 0.7; stroke: #000000; stroke-opacity: 0.7; stroke-width: 0.5"/>
    <path d="M 503.22067 285.419164 
L 503.22067 285.344481 
L 503.145987 285.344481 
L 503.145987 285.419164 
L 503.22067 285.419164 
" clip-path="url(#pbfbb22b4a6)" style="fill: #ff0000; fill-opacity: 0.7; stroke: #000000; stroke-opacity: 0.7; stroke-width: 0.5"/>
    <path d="M 298.894356 278.354207 
L 298.894356 278.279524 
L 298.819673 278.279524 
L 298.819673 278.354207 
L 298.894356 278.354207 
" clip-path="url(#pbfbb22b4a6)" style="fill: #ff0000; fill-opacity: 0.7; stroke: #000000; stroke-opacity: 0.7; stroke-width: 0.5"/>
   </g>
   <g id="matplotlib.axis_1">
    <g id="xtick_1">
     <g id="line2d_1">
      <defs>
       <path id="mc38f308508" d="M 0 0 
L 0 3.5 
" style="stroke: #000000; stroke-width: 0.8"/>
      </defs>
      <g>
       <use xlink:href="#mc38f308508" x="124.622794" y="640.231939" style="stroke: #000000; stroke-width: 0.8"/>
      </g>
     </g>
     <g id="text_1">
      <!-- 377000 -->
      <g transform="translate(105.535294 654.830376) scale(0.1 -0.1)">
       <defs>
        <path id="DejaVuSans-33" d="M 2597 2516 
Q 3050 2419 3304 2112 
Q 3559 1806 3559 1356 
Q 3559 666 3084 287 
Q 2609 -91 1734 -91 
Q 1441 -91 1130 -33 
Q 819 25 488 141 
L 488 750 
Q 750 597 1062 519 
Q 1375 441 1716 441 
Q 2309 441 2620 675 
Q 2931 909 2931 1356 
Q 2931 1769 2642 2001 
Q 2353 2234 1838 2234 
L 1294 2234 
L 1294 2753 
L 1863 2753 
Q 2328 2753 2575 2939 
Q 2822 3125 2822 3475 
Q 2822 3834 2567 4026 
Q 2313 4219 1838 4219 
Q 1578 4219 1281 4162 
Q 984 4106 628 3988 
L 628 4550 
Q 988 4650 1302 4700 
Q 1616 4750 1894 4750 
Q 2613 4750 3031 4423 
Q 3450 4097 3450 3541 
Q 3450 3153 3228 2886 
Q 3006 2619 2597 2516 
z
" transform="scale(0.015625)"/>
        <path id="DejaVuSans-37" d="M 525 4666 
L 3525 4666 
L 3525 4397 
L 1831 0 
L 1172 0 
L 2766 4134 
L 525 4134 
L 525 4666 
z
" transform="scale(0.015625)"/>
        <path id="DejaVuSans-30" d="M 2034 4250 
Q 1547 4250 1301 3770 
Q 1056 3291 1056 2328 
Q 1056 1369 1301 889 
Q 1547 409 2034 409 
Q 2525 409 2770 889 
Q 3016 1369 3016 2328 
Q 3016 3291 2770 3770 
Q 2525 4250 2034 4250 
z
M 2034 4750 
Q 2819 4750 3233 4129 
Q 3647 3509 3647 2328 
Q 3647 1150 3233 529 
Q 2819 -91 2034 -91 
Q 1250 -91 836 529 
Q 422 1150 422 2328 
Q 422 3509 836 4129 
Q 1250 4750 2034 4750 
z
" transform="scale(0.015625)"/>
       </defs>
       <use xlink:href="#DejaVuSans-33"/>
       <use xlink:href="#DejaVuSans-37" x="63.623047"/>
       <use xlink:href="#DejaVuSans-37" x="127.246094"/>
       <use xlink:href="#DejaVuSans-30" x="190.869141"/>
       <use xlink:href="#DejaVuSans-30" x="254.492188"/>
       <use xlink:href="#DejaVuSans-30" x="318.115234"/>
      </g>
     </g>
    </g>
    <g id="xtick_2">
     <g id="line2d_2">
      <g>
       <use xlink:href="#mc38f308508" x="199.306073" y="640.231939" style="stroke: #000000; stroke-width: 0.8"/>
      </g>
     </g>
     <g id="text_2">
      <!-- 378000 -->
      <g transform="translate(180.218573 654.830376) scale(0.1 -0.1)">
       <defs>
        <path id="DejaVuSans-38" d="M 2034 2216 
Q 1584 2216 1326 1975 
Q 1069 1734 1069 1313 
Q 1069 891 1326 650 
Q 1584 409 2034 409 
Q 2484 409 2743 651 
Q 3003 894 3003 1313 
Q 3003 1734 2745 1975 
Q 2488 2216 2034 2216 
z
M 1403 2484 
Q 997 2584 770 2862 
Q 544 3141 544 3541 
Q 544 4100 942 4425 
Q 1341 4750 2034 4750 
Q 2731 4750 3128 4425 
Q 3525 4100 3525 3541 
Q 3525 3141 3298 2862 
Q 3072 2584 2669 2484 
Q 3125 2378 3379 2068 
Q 3634 1759 3634 1313 
Q 3634 634 3220 271 
Q 2806 -91 2034 -91 
Q 1263 -91 848 271 
Q 434 634 434 1313 
Q 434 1759 690 2068 
Q 947 2378 1403 2484 
z
M 1172 3481 
Q 1172 3119 1398 2916 
Q 1625 2713 2034 2713 
Q 2441 2713 2670 2916 
Q 2900 3119 2900 3481 
Q 2900 3844 2670 4047 
Q 2441 4250 2034 4250 
Q 1625 4250 1398 4047 
Q 1172 3844 1172 3481 
z
" transform="scale(0.015625)"/>
       </defs>
       <use xlink:href="#DejaVuSans-33"/>
       <use xlink:href="#DejaVuSans-37" x="63.623047"/>
       <use xlink:href="#DejaVuSans-38" x="127.246094"/>
       <use xlink:href="#DejaVuSans-30" x="190.869141"/>
       <use xlink:href="#DejaVuSans-30" x="254.492188"/>
       <use xlink:href="#DejaVuSans-30" x="318.115234"/>
      </g>
     </g>
    </g>
    <g id="xtick_3">
     <g id="line2d_3">
      <g>
       <use xlink:href="#mc38f308508" x="273.989352" y="640.231939" style="stroke: #000000; stroke-width: 0.8"/>
      </g>
     </g>
     <g id="text_3">
      <!-- 379000 -->
      <g transform="translate(254.901852 654.830376) scale(0.1 -0.1)">
       <defs>
        <path id="DejaVuSans-39" d="M 703 97 
L 703 672 
Q 941 559 1184 500 
Q 1428 441 1663 441 
Q 2288 441 2617 861 
Q 2947 1281 2994 2138 
Q 2813 1869 2534 1725 
Q 2256 1581 1919 1581 
Q 1219 1581 811 2004 
Q 403 2428 403 3163 
Q 403 3881 828 4315 
Q 1253 4750 1959 4750 
Q 2769 4750 3195 4129 
Q 3622 3509 3622 2328 
Q 3622 1225 3098 567 
Q 2575 -91 1691 -91 
Q 1453 -91 1209 -44 
Q 966 3 703 97 
z
M 1959 2075 
Q 2384 2075 2632 2365 
Q 2881 2656 2881 3163 
Q 2881 3666 2632 3958 
Q 2384 4250 1959 4250 
Q 1534 4250 1286 3958 
Q 1038 3666 1038 3163 
Q 1038 2656 1286 2365 
Q 1534 2075 1959 2075 
z
" transform="scale(0.015625)"/>
       </defs>
       <use xlink:href="#DejaVuSans-33"/>
       <use xlink:href="#DejaVuSans-37" x="63.623047"/>
       <use xlink:href="#DejaVuSans-39" x="127.246094"/>
       <use xlink:href="#DejaVuSans-30" x="190.869141"/>
       <use xlink:href="#DejaVuSans-30" x="254.492188"/>
       <use xlink:href="#DejaVuSans-30" x="318.115234"/>
      </g>
     </g>
    </g>
    <g id="xtick_4">
     <g id="line2d_4">
      <g>
       <use xlink:href="#mc38f308508" x="348.67263" y="640.231939" style="stroke: #000000; stroke-width: 0.8"/>
      </g>
     </g>
     <g id="text_4">
      <!-- 380000 -->
      <g transform="translate(329.58513 654.830376) scale(0.1 -0.1)">
       <use xlink:href="#DejaVuSans-33"/>
       <use xlink:href="#DejaVuSans-38" x="63.623047"/>
       <use xlink:href="#DejaVuSans-30" x="127.246094"/>
       <use xlink:href="#DejaVuSans-30" x="190.869141"/>
       <use xlink:href="#DejaVuSans-30" x="254.492188"/>
       <use xlink:href="#DejaVuSans-30" x="318.115234"/>
      </g>
     </g>
    </g>
    <g id="xtick_5">
     <g id="line2d_5">
      <g>
       <use xlink:href="#mc38f308508" x="423.355909" y="640.231939" style="stroke: #000000; stroke-width: 0.8"/>
      </g>
     </g>
     <g id="text_5">
      <!-- 381000 -->
      <g transform="translate(404.268409 654.830376) scale(0.1 -0.1)">
       <defs>
        <path id="DejaVuSans-31" d="M 794 531 
L 1825 531 
L 1825 4091 
L 703 3866 
L 703 4441 
L 1819 4666 
L 2450 4666 
L 2450 531 
L 3481 531 
L 3481 0 
L 794 0 
L 794 531 
z
" transform="scale(0.015625)"/>
       </defs>
       <use xlink:href="#DejaVuSans-33"/>
       <use xlink:href="#DejaVuSans-38" x="63.623047"/>
       <use xlink:href="#DejaVuSans-31" x="127.246094"/>
       <use xlink:href="#DejaVuSans-30" x="190.869141"/>
       <use xlink:href="#DejaVuSans-30" x="254.492188"/>
       <use xlink:href="#DejaVuSans-30" x="318.115234"/>
      </g>
     </g>
    </g>
    <g id="xtick_6">
     <g id="line2d_6">
      <g>
       <use xlink:href="#mc38f308508" x="498.039188" y="640.231939" style="stroke: #000000; stroke-width: 0.8"/>
      </g>
     </g>
     <g id="text_6">
      <!-- 382000 -->
      <g transform="translate(478.951688 654.830376) scale(0.1 -0.1)">
       <defs>
        <path id="DejaVuSans-32" d="M 1228 531 
L 3431 531 
L 3431 0 
L 469 0 
L 469 531 
Q 828 903 1448 1529 
Q 2069 2156 2228 2338 
Q 2531 2678 2651 2914 
Q 2772 3150 2772 3378 
Q 2772 3750 2511 3984 
Q 2250 4219 1831 4219 
Q 1534 4219 1204 4116 
Q 875 4013 500 3803 
L 500 4441 
Q 881 4594 1212 4672 
Q 1544 4750 1819 4750 
Q 2544 4750 2975 4387 
Q 3406 4025 3406 3419 
Q 3406 3131 3298 2873 
Q 3191 2616 2906 2266 
Q 2828 2175 2409 1742 
Q 1991 1309 1228 531 
z
" transform="scale(0.015625)"/>
       </defs>
       <use xlink:href="#DejaVuSans-33"/>
       <use xlink:href="#DejaVuSans-38" x="63.623047"/>
       <use xlink:href="#DejaVuSans-32" x="127.246094"/>
       <use xlink:href="#DejaVuSans-30" x="190.869141"/>
       <use xlink:href="#DejaVuSans-30" x="254.492188"/>
       <use xlink:href="#DejaVuSans-30" x="318.115234"/>
      </g>
     </g>
    </g>
    <g id="xtick_7">
     <g id="line2d_7">
      <g>
       <use xlink:href="#mc38f308508" x="572.722466" y="640.231939" style="stroke: #000000; stroke-width: 0.8"/>
      </g>
     </g>
     <g id="text_7">
      <!-- 383000 -->
      <g transform="translate(553.634966 654.830376) scale(0.1 -0.1)">
       <use xlink:href="#DejaVuSans-33"/>
       <use xlink:href="#DejaVuSans-38" x="63.623047"/>
       <use xlink:href="#DejaVuSans-33" x="127.246094"/>
       <use xlink:href="#DejaVuSans-30" x="190.869141"/>
       <use xlink:href="#DejaVuSans-30" x="254.492188"/>
       <use xlink:href="#DejaVuSans-30" x="318.115234"/>
      </g>
     </g>
    </g>
    <g id="xtick_8">
     <g id="line2d_8">
      <g>
       <use xlink:href="#mc38f308508" x="647.405745" y="640.231939" style="stroke: #000000; stroke-width: 0.8"/>
      </g>
     </g>
     <g id="text_8">
      <!-- 384000 -->
      <g transform="translate(628.318245 654.830376) scale(0.1 -0.1)">
       <defs>
        <path id="DejaVuSans-34" d="M 2419 4116 
L 825 1625 
L 2419 1625 
L 2419 4116 
z
M 2253 4666 
L 3047 4666 
L 3047 1625 
L 3713 1625 
L 3713 1100 
L 3047 1100 
L 3047 0 
L 2419 0 
L 2419 1100 
L 313 1100 
L 313 1709 
L 2253 4666 
z
" transform="scale(0.015625)"/>
       </defs>
       <use xlink:href="#DejaVuSans-33"/>
       <use xlink:href="#DejaVuSans-38" x="63.623047"/>
       <use xlink:href="#DejaVuSans-34" x="127.246094"/>
       <use xlink:href="#DejaVuSans-30" x="190.869141"/>
       <use xlink:href="#DejaVuSans-30" x="254.492188"/>
       <use xlink:href="#DejaVuSans-30" x="318.115234"/>
      </g>
     </g>
    </g>
   </g>
   <g id="matplotlib.axis_2">
    <g id="ytick_1">
     <g id="line2d_9">
      <defs>
       <path id="m7e861620fb" d="M 0 0 
L -3.5 0 
" style="stroke: #000000; stroke-width: 0.8"/>
      </defs>
      <g>
       <use xlink:href="#m7e861620fb" x="90" y="591.320566" style="stroke: #000000; stroke-width: 0.8"/>
      </g>
     </g>
     <g id="text_9">
      <!-- 5.815 -->
      <g transform="translate(54.371875 595.119784) scale(0.1 -0.1)">
       <defs>
        <path id="DejaVuSans-35" d="M 691 4666 
L 3169 4666 
L 3169 4134 
L 1269 4134 
L 1269 2991 
Q 1406 3038 1543 3061 
Q 1681 3084 1819 3084 
Q 2600 3084 3056 2656 
Q 3513 2228 3513 1497 
Q 3513 744 3044 326 
Q 2575 -91 1722 -91 
Q 1428 -91 1123 -41 
Q 819 9 494 109 
L 494 744 
Q 775 591 1075 516 
Q 1375 441 1709 441 
Q 2250 441 2565 725 
Q 2881 1009 2881 1497 
Q 2881 1984 2565 2268 
Q 2250 2553 1709 2553 
Q 1456 2553 1204 2497 
Q 953 2441 691 2322 
L 691 4666 
z
" transform="scale(0.015625)"/>
        <path id="DejaVuSans-2e" d="M 684 794 
L 1344 794 
L 1344 0 
L 684 0 
L 684 794 
z
" transform="scale(0.015625)"/>
       </defs>
       <use xlink:href="#DejaVuSans-35"/>
       <use xlink:href="#DejaVuSans-2e" x="63.623047"/>
       <use xlink:href="#DejaVuSans-38" x="95.410156"/>
       <use xlink:href="#DejaVuSans-31" x="159.033203"/>
       <use xlink:href="#DejaVuSans-35" x="222.65625"/>
      </g>
     </g>
    </g>
    <g id="ytick_2">
     <g id="line2d_10">
      <g>
       <use xlink:href="#m7e861620fb" x="90" y="516.637287" style="stroke: #000000; stroke-width: 0.8"/>
      </g>
     </g>
     <g id="text_10">
      <!-- 5.816 -->
      <g transform="translate(54.371875 520.436506) scale(0.1 -0.1)">
       <defs>
        <path id="DejaVuSans-36" d="M 2113 2584 
Q 1688 2584 1439 2293 
Q 1191 2003 1191 1497 
Q 1191 994 1439 701 
Q 1688 409 2113 409 
Q 2538 409 2786 701 
Q 3034 994 3034 1497 
Q 3034 2003 2786 2293 
Q 2538 2584 2113 2584 
z
M 3366 4563 
L 3366 3988 
Q 3128 4100 2886 4159 
Q 2644 4219 2406 4219 
Q 1781 4219 1451 3797 
Q 1122 3375 1075 2522 
Q 1259 2794 1537 2939 
Q 1816 3084 2150 3084 
Q 2853 3084 3261 2657 
Q 3669 2231 3669 1497 
Q 3669 778 3244 343 
Q 2819 -91 2113 -91 
Q 1303 -91 875 529 
Q 447 1150 447 2328 
Q 447 3434 972 4092 
Q 1497 4750 2381 4750 
Q 2619 4750 2861 4703 
Q 3103 4656 3366 4563 
z
" transform="scale(0.015625)"/>
       </defs>
       <use xlink:href="#DejaVuSans-35"/>
       <use xlink:href="#DejaVuSans-2e" x="63.623047"/>
       <use xlink:href="#DejaVuSans-38" x="95.410156"/>
       <use xlink:href="#DejaVuSans-31" x="159.033203"/>
       <use xlink:href="#DejaVuSans-36" x="222.65625"/>
      </g>
     </g>
    </g>
    <g id="ytick_3">
     <g id="line2d_11">
      <g>
       <use xlink:href="#m7e861620fb" x="90" y="441.954008" style="stroke: #000000; stroke-width: 0.8"/>
      </g>
     </g>
     <g id="text_11">
      <!-- 5.817 -->
      <g transform="translate(54.371875 445.753227) scale(0.1 -0.1)">
       <use xlink:href="#DejaVuSans-35"/>
       <use xlink:href="#DejaVuSans-2e" x="63.623047"/>
       <use xlink:href="#DejaVuSans-38" x="95.410156"/>
       <use xlink:href="#DejaVuSans-31" x="159.033203"/>
       <use xlink:href="#DejaVuSans-37" x="222.65625"/>
      </g>
     </g>
    </g>
    <g id="ytick_4">
     <g id="line2d_12">
      <g>
       <use xlink:href="#m7e861620fb" x="90" y="367.27073" style="stroke: #000000; stroke-width: 0.8"/>
      </g>
     </g>
     <g id="text_12">
      <!-- 5.818 -->
      <g transform="translate(54.371875 371.069948) scale(0.1 -0.1)">
       <use xlink:href="#DejaVuSans-35"/>
       <use xlink:href="#DejaVuSans-2e" x="63.623047"/>
       <use xlink:href="#DejaVuSans-38" x="95.410156"/>
       <use xlink:href="#DejaVuSans-31" x="159.033203"/>
       <use xlink:href="#DejaVuSans-38" x="222.65625"/>
      </g>
     </g>
    </g>
    <g id="ytick_5">
     <g id="line2d_13">
      <g>
       <use xlink:href="#m7e861620fb" x="90" y="292.587451" style="stroke: #000000; stroke-width: 0.8"/>
      </g>
     </g>
     <g id="text_13">
      <!-- 5.819 -->
      <g transform="translate(54.371875 296.38667) scale(0.1 -0.1)">
       <use xlink:href="#DejaVuSans-35"/>
       <use xlink:href="#DejaVuSans-2e" x="63.623047"/>
       <use xlink:href="#DejaVuSans-38" x="95.410156"/>
       <use xlink:href="#DejaVuSans-31" x="159.033203"/>
       <use xlink:href="#DejaVuSans-39" x="222.65625"/>
      </g>
     </g>
    </g>
    <g id="ytick_6">
     <g id="line2d_14">
      <g>
       <use xlink:href="#m7e861620fb" x="90" y="217.904172" style="stroke: #000000; stroke-width: 0.8"/>
      </g>
     </g>
     <g id="text_14">
      <!-- 5.820 -->
      <g transform="translate(54.371875 221.703391) scale(0.1 -0.1)">
       <use xlink:href="#DejaVuSans-35"/>
       <use xlink:href="#DejaVuSans-2e" x="63.623047"/>
       <use xlink:href="#DejaVuSans-38" x="95.410156"/>
       <use xlink:href="#DejaVuSans-32" x="159.033203"/>
       <use xlink:href="#DejaVuSans-30" x="222.65625"/>
      </g>
     </g>
    </g>
    <g id="ytick_7">
     <g id="line2d_15">
      <g>
       <use xlink:href="#m7e861620fb" x="90" y="143.220894" style="stroke: #000000; stroke-width: 0.8"/>
      </g>
     </g>
     <g id="text_15">
      <!-- 5.821 -->
      <g transform="translate(54.371875 147.020113) scale(0.1 -0.1)">
       <use xlink:href="#DejaVuSans-35"/>
       <use xlink:href="#DejaVuSans-2e" x="63.623047"/>
       <use xlink:href="#DejaVuSans-38" x="95.410156"/>
       <use xlink:href="#DejaVuSans-32" x="159.033203"/>
       <use xlink:href="#DejaVuSans-31" x="222.65625"/>
      </g>
     </g>
    </g>
    <g id="text_16">
     <!-- 1e6 -->
     <g transform="translate(90 83.968061) scale(0.1 -0.1)">
      <defs>
       <path id="DejaVuSans-65" d="M 3597 1894 
L 3597 1613 
L 953 1613 
Q 991 1019 1311 708 
Q 1631 397 2203 397 
Q 2534 397 2845 478 
Q 3156 559 3463 722 
L 3463 178 
Q 3153 47 2828 -22 
Q 2503 -91 2169 -91 
Q 1331 -91 842 396 
Q 353 884 353 1716 
Q 353 2575 817 3079 
Q 1281 3584 2069 3584 
Q 2775 3584 3186 3129 
Q 3597 2675 3597 1894 
z
M 3022 2063 
Q 3016 2534 2758 2815 
Q 2500 3097 2075 3097 
Q 1594 3097 1305 2825 
Q 1016 2553 972 2059 
L 3022 2063 
z
" transform="scale(0.015625)"/>
      </defs>
      <use xlink:href="#DejaVuSans-31"/>
      <use xlink:href="#DejaVuSans-65" x="63.623047"/>
      <use xlink:href="#DejaVuSans-36" x="125.146484"/>
     </g>
    </g>
   </g>
   <g id="patch_3">
    <path d="M 90 640.231939 
L 90 86.968061 
" style="fill: none; stroke: #000000; stroke-width: 0.8; stroke-linejoin: miter; stroke-linecap: square"/>
   </g>
   <g id="patch_4">
    <path d="M 648 640.231939 
L 648 86.968061 
" style="fill: none; stroke: #000000; stroke-width: 0.8; stroke-linejoin: miter; stroke-linecap: square"/>
   </g>
   <g id="patch_5">
    <path d="M 90 640.231939 
L 648 640.231939 
" style="fill: none; stroke: #000000; stroke-width: 0.8; stroke-linejoin: miter; stroke-linecap: square"/>
   </g>
   <g id="patch_6">
    <path d="M 90 86.968061 
L 648 86.968061 
" style="fill: none; stroke: #000000; stroke-width: 0.8; stroke-linejoin: miter; stroke-linecap: square"/>
   </g>
   <g id="text_17">
    <!-- Charlottenburg_West -->
    <g transform="translate(306.321705 370.656077) scale(0.12 -0.12)">
     <defs>
      <path id="DejaVuSans-43" d="M 4122 4306 
L 4122 3641 
Q 3803 3938 3442 4084 
Q 3081 4231 2675 4231 
Q 1875 4231 1450 3742 
Q 1025 3253 1025 2328 
Q 1025 1406 1450 917 
Q 1875 428 2675 428 
Q 3081 428 3442 575 
Q 3803 722 4122 1019 
L 4122 359 
Q 3791 134 3420 21 
Q 3050 -91 2638 -91 
Q 1578 -91 968 557 
Q 359 1206 359 2328 
Q 359 3453 968 4101 
Q 1578 4750 2638 4750 
Q 3056 4750 3426 4639 
Q 3797 4528 4122 4306 
z
" transform="scale(0.015625)"/>
      <path id="DejaVuSans-68" d="M 3513 2113 
L 3513 0 
L 2938 0 
L 2938 2094 
Q 2938 2591 2744 2837 
Q 2550 3084 2163 3084 
Q 1697 3084 1428 2787 
Q 1159 2491 1159 1978 
L 1159 0 
L 581 0 
L 581 4863 
L 1159 4863 
L 1159 2956 
Q 1366 3272 1645 3428 
Q 1925 3584 2291 3584 
Q 2894 3584 3203 3211 
Q 3513 2838 3513 2113 
z
" transform="scale(0.015625)"/>
      <path id="DejaVuSans-61" d="M 2194 1759 
Q 1497 1759 1228 1600 
Q 959 1441 959 1056 
Q 959 750 1161 570 
Q 1363 391 1709 391 
Q 2188 391 2477 730 
Q 2766 1069 2766 1631 
L 2766 1759 
L 2194 1759 
z
M 3341 1997 
L 3341 0 
L 2766 0 
L 2766 531 
Q 2569 213 2275 61 
Q 1981 -91 1556 -91 
Q 1019 -91 701 211 
Q 384 513 384 1019 
Q 384 1609 779 1909 
Q 1175 2209 1959 2209 
L 2766 2209 
L 2766 2266 
Q 2766 2663 2505 2880 
Q 2244 3097 1772 3097 
Q 1472 3097 1187 3025 
Q 903 2953 641 2809 
L 641 3341 
Q 956 3463 1253 3523 
Q 1550 3584 1831 3584 
Q 2591 3584 2966 3190 
Q 3341 2797 3341 1997 
z
" transform="scale(0.015625)"/>
      <path id="DejaVuSans-72" d="M 2631 2963 
Q 2534 3019 2420 3045 
Q 2306 3072 2169 3072 
Q 1681 3072 1420 2755 
Q 1159 2438 1159 1844 
L 1159 0 
L 581 0 
L 581 3500 
L 1159 3500 
L 1159 2956 
Q 1341 3275 1631 3429 
Q 1922 3584 2338 3584 
Q 2397 3584 2469 3576 
Q 2541 3569 2628 3553 
L 2631 2963 
z
" transform="scale(0.015625)"/>
      <path id="DejaVuSans-6c" d="M 603 4863 
L 1178 4863 
L 1178 0 
L 603 0 
L 603 4863 
z
" transform="scale(0.015625)"/>
      <path id="DejaVuSans-6f" d="M 1959 3097 
Q 1497 3097 1228 2736 
Q 959 2375 959 1747 
Q 959 1119 1226 758 
Q 1494 397 1959 397 
Q 2419 397 2687 759 
Q 2956 1122 2956 1747 
Q 2956 2369 2687 2733 
Q 2419 3097 1959 3097 
z
M 1959 3584 
Q 2709 3584 3137 3096 
Q 3566 2609 3566 1747 
Q 3566 888 3137 398 
Q 2709 -91 1959 -91 
Q 1206 -91 779 398 
Q 353 888 353 1747 
Q 353 2609 779 3096 
Q 1206 3584 1959 3584 
z
" transform="scale(0.015625)"/>
      <path id="DejaVuSans-74" d="M 1172 4494 
L 1172 3500 
L 2356 3500 
L 2356 3053 
L 1172 3053 
L 1172 1153 
Q 1172 725 1289 603 
Q 1406 481 1766 481 
L 2356 481 
L 2356 0 
L 1766 0 
Q 1100 0 847 248 
Q 594 497 594 1153 
L 594 3053 
L 172 3053 
L 172 3500 
L 594 3500 
L 594 4494 
L 1172 4494 
z
" transform="scale(0.015625)"/>
      <path id="DejaVuSans-6e" d="M 3513 2113 
L 3513 0 
L 2938 0 
L 2938 2094 
Q 2938 2591 2744 2837 
Q 2550 3084 2163 3084 
Q 1697 3084 1428 2787 
Q 1159 2491 1159 1978 
L 1159 0 
L 581 0 
L 581 3500 
L 1159 3500 
L 1159 2956 
Q 1366 3272 1645 3428 
Q 1925 3584 2291 3584 
Q 2894 3584 3203 3211 
Q 3513 2838 3513 2113 
z
" transform="scale(0.015625)"/>
      <path id="DejaVuSans-62" d="M 3116 1747 
Q 3116 2381 2855 2742 
Q 2594 3103 2138 3103 
Q 1681 3103 1420 2742 
Q 1159 2381 1159 1747 
Q 1159 1113 1420 752 
Q 1681 391 2138 391 
Q 2594 391 2855 752 
Q 3116 1113 3116 1747 
z
M 1159 2969 
Q 1341 3281 1617 3432 
Q 1894 3584 2278 3584 
Q 2916 3584 3314 3078 
Q 3713 2572 3713 1747 
Q 3713 922 3314 415 
Q 2916 -91 2278 -91 
Q 1894 -91 1617 61 
Q 1341 213 1159 525 
L 1159 0 
L 581 0 
L 581 4863 
L 1159 4863 
L 1159 2969 
z
" transform="scale(0.015625)"/>
      <path id="DejaVuSans-75" d="M 544 1381 
L 544 3500 
L 1119 3500 
L 1119 1403 
Q 1119 906 1312 657 
Q 1506 409 1894 409 
Q 2359 409 2629 706 
Q 2900 1003 2900 1516 
L 2900 3500 
L 3475 3500 
L 3475 0 
L 2900 0 
L 2900 538 
Q 2691 219 2414 64 
Q 2138 -91 1772 -91 
Q 1169 -91 856 284 
Q 544 659 544 1381 
z
M 1991 3584 
L 1991 3584 
z
" transform="scale(0.015625)"/>
      <path id="DejaVuSans-67" d="M 2906 1791 
Q 2906 2416 2648 2759 
Q 2391 3103 1925 3103 
Q 1463 3103 1205 2759 
Q 947 2416 947 1791 
Q 947 1169 1205 825 
Q 1463 481 1925 481 
Q 2391 481 2648 825 
Q 2906 1169 2906 1791 
z
M 3481 434 
Q 3481 -459 3084 -895 
Q 2688 -1331 1869 -1331 
Q 1566 -1331 1297 -1286 
Q 1028 -1241 775 -1147 
L 775 -588 
Q 1028 -725 1275 -790 
Q 1522 -856 1778 -856 
Q 2344 -856 2625 -561 
Q 2906 -266 2906 331 
L 2906 616 
Q 2728 306 2450 153 
Q 2172 0 1784 0 
Q 1141 0 747 490 
Q 353 981 353 1791 
Q 353 2603 747 3093 
Q 1141 3584 1784 3584 
Q 2172 3584 2450 3431 
Q 2728 3278 2906 2969 
L 2906 3500 
L 3481 3500 
L 3481 434 
z
" transform="scale(0.015625)"/>
      <path id="DejaVuSans-5f" d="M 3263 -1063 
L 3263 -1509 
L -63 -1509 
L -63 -1063 
L 3263 -1063 
z
" transform="scale(0.015625)"/>
      <path id="DejaVuSans-57" d="M 213 4666 
L 850 4666 
L 1831 722 
L 2809 4666 
L 3519 4666 
L 4500 722 
L 5478 4666 
L 6119 4666 
L 4947 0 
L 4153 0 
L 3169 4050 
L 2175 0 
L 1381 0 
L 213 4666 
z
" transform="scale(0.015625)"/>
      <path id="DejaVuSans-73" d="M 2834 3397 
L 2834 2853 
Q 2591 2978 2328 3040 
Q 2066 3103 1784 3103 
Q 1356 3103 1142 2972 
Q 928 2841 928 2578 
Q 928 2378 1081 2264 
Q 1234 2150 1697 2047 
L 1894 2003 
Q 2506 1872 2764 1633 
Q 3022 1394 3022 966 
Q 3022 478 2636 193 
Q 2250 -91 1575 -91 
Q 1294 -91 989 -36 
Q 684 19 347 128 
L 347 722 
Q 666 556 975 473 
Q 1284 391 1588 391 
Q 1994 391 2212 530 
Q 2431 669 2431 922 
Q 2431 1156 2273 1281 
Q 2116 1406 1581 1522 
L 1381 1569 
Q 847 1681 609 1914 
Q 372 2147 372 2553 
Q 372 3047 722 3315 
Q 1072 3584 1716 3584 
Q 2034 3584 2315 3537 
Q 2597 3491 2834 3397 
z
" transform="scale(0.015625)"/>
     </defs>
     <use xlink:href="#DejaVuSans-43"/>
     <use xlink:href="#DejaVuSans-68" x="69.824219"/>
     <use xlink:href="#DejaVuSans-61" x="133.203125"/>
     <use xlink:href="#DejaVuSans-72" x="194.482422"/>
     <use xlink:href="#DejaVuSans-6c" x="235.595703"/>
     <use xlink:href="#DejaVuSans-6f" x="263.378906"/>
     <use xlink:href="#DejaVuSans-74" x="324.560547"/>
     <use xlink:href="#DejaVuSans-74" x="363.769531"/>
     <use xlink:href="#DejaVuSans-65" x="402.978516"/>
     <use xlink:href="#DejaVuSans-6e" x="464.501953"/>
     <use xlink:href="#DejaVuSans-62" x="527.880859"/>
     <use xlink:href="#DejaVuSans-75" x="591.357422"/>
     <use xlink:href="#DejaVuSans-72" x="654.736328"/>
     <use xlink:href="#DejaVuSans-67" x="694.099609"/>
     <use xlink:href="#DejaVuSans-5f" x="757.576172"/>
     <use xlink:href="#DejaVuSans-57" x="807.576172"/>
     <use xlink:href="#DejaVuSans-65" x="900.578125"/>
     <use xlink:href="#DejaVuSans-73" x="962.101562"/>
     <use xlink:href="#DejaVuSans-74" x="1014.201172"/>
    </g>
   </g>
  </g>
 </g>
 <defs>
  <clipPath id="pbfbb22b4a6">
   <rect x="90" y="86.968061" width="558" height="553.263878"/>
  </clipPath>
 </defs>
</svg>
