<?xml version="1.0" encoding="utf-8" standalone="no"?>
<!DOCTYPE svg PUBLIC "-//W3C//DTD SVG 1.1//EN"
  "http://www.w3.org/Graphics/SVG/1.1/DTD/svg11.dtd">
<svg xmlns:xlink="http://www.w3.org/1999/xlink" width="720pt" height="720pt" viewBox="0 0 720 720" xmlns="http://www.w3.org/2000/svg" version="1.1">
 <metadata>
  <rdf:RDF xmlns:dc="http://purl.org/dc/elements/1.1/" xmlns:cc="http://creativecommons.org/ns#" xmlns:rdf="http://www.w3.org/1999/02/22-rdf-syntax-ns#">
   <cc:Work>
    <dc:type rdf:resource="http://purl.org/dc/dcmitype/StillImage"/>
    <dc:date>2024-10-22T09:54:09.964643</dc:date>
    <dc:format>image/svg+xml</dc:format>
    <dc:creator>
     <cc:Agent>
      <dc:title>Matplotlib v3.9.2, https://matplotlib.org/</dc:title>
     </cc:Agent>
    </dc:creator>
   </cc:Work>
  </rdf:RDF>
 </metadata>
 <defs>
  <style type="text/css">*{stroke-linejoin: round; stroke-linecap: butt}</style>
 </defs>
 <g id="figure_1">
  <g id="patch_1">
   <path d="M 0 720 
L 720 720 
L 720 0 
L 0 0 
z
" style="fill: #ffffff"/>
  </g>
  <g id="axes_1">
   <g id="patch_2">
    <path d="M 90 521.736575 
L 648 521.736575 
L 648 205.463425 
L 90 205.463425 
z
" style="fill: #ffffff"/>
   </g>
   <g id="PatchCollection_1">
    <path d="M 607.023087 334.243997 
L 607.023096 334.243853 
L 607.051691 333.80731 
L 607.059179 333.693698 
L 607.131947 332.586658 
L 606.855059 332.422872 
L 602.927463 330.099772 
L 598.871436 327.172571 
L 597.762232 326.332181 
L 597.827128 326.153355 
L 598.039371 325.83447 
L 597.703123 325.498934 
L 594.402759 322.265845 
L 592.77293 320.23184 
L 592.38433 319.716025 
L 592.267061 319.560447 
L 591.758967 318.885811 
L 591.402714 318.412844 
L 588.315385 314.313974 
L 587.806236 313.637845 
L 586.853565 312.373289 
L 584.744455 309.677818 
L 584.146391 308.913518 
L 582.277658 306.525269 
L 582.133679 306.34129 
L 575.230898 297.520293 
L 574.836598 297.016156 
L 574.012046 295.962583 
L 570.811788 291.371233 
L 568.890596 288.890075 
L 566.361806 286.201148 
L 563.102129 282.247233 
L 562.946439 282.049463 
L 549.596493 265.101285 
L 549.002183 264.42616 
L 546.79631 261.923447 
L 545.875873 260.665553 
L 544.039992 258.109347 
L 543.587324 257.462735 
L 543.294073 256.863481 
L 539.849278 251.600668 
L 538.536378 249.899844 
L 534.468098 245.779909 
L 534.077015 245.357219 
L 532.750176 243.91745 
L 532.658405 243.799311 
L 532.539916 243.646942 
L 531.574645 242.404819 
L 527.285966 237.32174 
L 527.051242 237.108715 
L 526.620733 236.627888 
L 516.558772 236.050386 
L 503.03062 235.542501 
L 502.51575 235.523246 
L 500.031732 235.428788 
L 499.442064 235.40685 
L 499.115146 235.394731 
L 483.847213 234.817603 
L 467.737707 233.630169 
L 461.783781 233.191412 
L 451.949418 232.466905 
L 445.512826 231.992625 
L 432.902473 231.063941 
L 429.180265 230.790392 
L 416.409369 229.871778 
L 410.678629 229.582008 
L 386.915543 228.648607 
L 385.964594 228.611346 
L 385.664231 228.599421 
L 385.285633 228.583892 
L 383.205403 228.502811 
L 381.474258 228.435171 
L 381.074837 228.426854 
L 380.7737 228.419639 
L 379.706222 228.395911 
L 379.245805 228.385739 
L 378.934827 228.379518 
L 377.079144 228.339799 
L 374.156573 228.253033 
L 345.884179 227.509079 
L 341.982045 227.411039 
L 341.466297 227.398023 
L 340.506424 227.373971 
L 340.057742 227.36279 
L 338.774576 227.330549 
L 338.268698 227.317808 
L 331.770746 227.154539 
L 323.421518 226.945974 
L 292.175903 226.140968 
L 268.404595 225.494842 
L 255.810352 225.1362 
L 243.116286 224.792234 
L 230.643491 224.468982 
L 230.534786 224.465744 
L 217.866674 223.996706 
L 194.104969 223.283755 
L 193.081035 223.251958 
L 183.48584 222.959353 
L 182.538231 222.930564 
L 166.889582 222.453021 
L 165.453454 222.408074 
L 165.155183 222.399375 
L 164.054054 222.365419 
L 133.53675 221.445797 
L 132.444685 220.404805 
L 129.507829 220.263518 
L 125.989453 220.09337 
L 120.718746 219.839477 
L 120.77654 220.28373 
L 120.828717 221.117103 
L 120.109924 221.085447 
L 118.520273 221.019581 
L 118.513729 221.248263 
L 118.470462 222.759615 
L 118.284854 229.242854 
L 118.267988 229.833011 
L 118.242495 230.723385 
L 118.23994 230.812169 
L 115.412118 230.733604 
L 115.363636 232.158767 
L 115.778011 232.628164 
L 116.67785 233.647256 
L 117.0826 234.343508 
L 117.777231 235.538514 
L 121.292406 241.585679 
L 124.136272 250.123081 
L 129.558366 266.352185 
L 131.730457 272.937884 
L 134.783482 282.102273 
L 137.256731 289.527684 
L 140.073061 297.958086 
L 140.230203 298.428221 
L 140.685182 299.790605 
L 140.755586 300.001343 
L 144.517812 311.263786 
L 143.97323 311.396118 
L 143.417085 311.531389 
L 142.554989 311.742317 
L 144.203628 316.688475 
L 145.133154 319.477547 
L 145.244923 319.837615 
L 145.341375 320.202233 
L 145.422236 320.570521 
L 145.487368 320.941974 
L 145.536752 321.315833 
L 145.570247 321.691467 
L 145.587712 322.068246 
L 145.589125 322.445284 
L 145.57473 322.822193 
L 145.544254 323.198095 
L 145.497807 323.572351 
L 145.435627 323.944323 
L 145.357696 324.31325 
L 145.335467 324.409604 
L 144.882683 326.353225 
L 144.79595 326.724138 
L 144.710973 327.089179 
L 144.623487 327.465384 
L 144.534615 327.847552 
L 144.449302 328.214376 
L 144.363405 328.583241 
L 143.851287 330.779371 
L 143.656523 331.614107 
L 143.601237 331.851055 
L 143.36519 332.863087 
L 143.136245 333.844275 
L 143.080503 334.083262 
L 142.857068 335.040997 
L 142.619529 336.059275 
L 142.567686 336.281565 
L 142.350229 337.214188 
L 142.112101 338.234255 
L 142.063357 338.443289 
L 141.844517 339.381521 
L 141.608701 340.392407 
L 141.560994 340.597234 
L 141.342379 341.534194 
L 141.081103 342.654313 
L 141.021916 342.907832 
L 140.80068 343.85677 
L 140.570024 344.845352 
L 140.510732 345.099761 
L 140.28972 346.047425 
L 140.06354 347.016888 
L 140.005048 347.267729 
L 139.792412 348.179577 
L 139.561419 349.169816 
L 139.502798 349.420533 
L 139.272955 350.405927 
L 139.052067 351.353336 
L 138.992993 351.606219 
L 138.777837 352.528902 
L 138.540202 353.547945 
L 138.485262 353.783364 
L 138.275722 354.681704 
L 138.044394 355.673598 
L 137.982004 355.941137 
L 137.76191 356.884598 
L 137.539647 357.837744 
L 137.482294 358.083235 
L 137.466014 358.153336 
L 136.984782 360.216662 
L 136.821452 360.916295 
L 136.801833 361.69892 
L 136.791731 362.096513 
L 136.781928 362.501324 
L 136.772519 362.885593 
L 136.641415 363.446932 
L 135.65023 367.693797 
L 135.425886 368.654852 
L 135.408552 368.728401 
L 136.018057 368.865615 
L 136.762039 369.032809 
L 137.403064 369.176998 
L 137.304098 369.607017 
L 137.883545 369.756234 
L 138.909639 370.020846 
L 140.478891 370.471673 
L 142.013088 371.016503 
L 143.499741 371.656524 
L 145.034968 372.382459 
L 146.475355 373.134247 
L 147.872153 373.977454 
L 149.315805 374.887603 
L 150.348598 375.603165 
L 150.619203 375.790726 
L 151.933089 376.72554 
L 153.252178 377.75149 
L 154.482182 378.859048 
L 155.671615 379.983171 
L 156.836093 381.153143 
L 157.906114 382.370377 
L 158.991371 383.638198 
L 159.042277 383.699972 
L 160.452784 385.310837 
L 161.2522 386.510478 
L 163.023972 389.912116 
L 163.582834 391.299152 
L 163.217776 391.317404 
L 163.226318 391.506052 
L 162.545949 391.651254 
L 163.613713 393.708501 
L 163.999506 394.592063 
L 164.268703 395.209081 
L 164.332361 395.355089 
L 164.756419 396.327218 
L 164.794392 396.414017 
L 164.982286 396.844891 
L 165.087657 396.948201 
L 165.450806 397.30618 
L 165.484657 398.036951 
L 165.844241 398.701616 
L 166.703548 401.057535 
L 167.326402 402.849518 
L 167.891629 404.769882 
L 168.368184 406.598071 
L 168.852184 408.691109 
L 169.267387 411.175922 
L 168.908893 411.241036 
L 169.131092 413.032477 
L 169.859304 413.373477 
L 169.436305 414.233191 
L 171.126008 415.054733 
L 174.867295 416.860528 
L 181.77774 420.232383 
L 183.214675 420.930724 
L 183.558723 421.098037 
L 199.452401 428.823052 
L 199.750513 428.967516 
L 200.04911 429.111082 
L 200.348067 429.253878 
L 200.464549 429.309271 
L 200.581155 429.364535 
L 200.697884 429.419668 
L 201.713658 429.893636 
L 202.733762 430.358376 
L 203.757943 430.813894 
L 204.786199 431.260065 
L 205.869819 431.716701 
L 206.957742 432.162971 
L 208.049842 432.598876 
L 209.14599 433.024293 
L 210.246188 433.439349 
L 211.423722 433.874487 
L 212.60552 434.297611 
L 213.791582 434.708722 
L 214.981779 435.107695 
L 216.175858 435.494537 
L 216.951581 435.735723 
L 217.729774 435.969119 
L 218.5103 436.194349 
L 219.293043 436.411795 
L 220.077994 436.621078 
L 219.897987 437.265698 
L 219.484272 438.747608 
L 219.311013 439.367606 
L 219.310951 439.367829 
L 218.894506 440.859596 
L 218.724862 441.498646 
L 218.851746 441.539726 
L 218.973633 441.593979 
L 219.089122 441.660933 
L 219.196925 441.739605 
L 219.295887 441.829261 
L 219.384846 441.928915 
L 219.462763 442.037325 
L 219.521557 442.138967 
L 219.570607 442.245531 
L 219.609643 442.356263 
L 219.638262 442.470159 
L 219.656187 442.586212 
L 219.663683 442.672981 
L 219.665118 442.760022 
L 219.660608 442.846951 
L 219.650272 442.933385 
L 219.211095 445.605548 
L 218.860624 447.738315 
L 217.145517 455.300531 
L 217.127661 455.379033 
L 216.987099 455.996857 
L 216.639402 457.532582 
L 213.971651 469.296391 
L 213.511204 471.326714 
L 213.332369 474.106358 
L 213.32768 474.180363 
L 213.250468 475.384146 
L 213.211222 475.993722 
L 213.164004 476.166464 
L 213.05114 476.57703 
L 212.791803 478.851736 
L 212.432026 482.006689 
L 212.254373 483.563833 
L 212.200534 484.037884 
L 212.019183 485.636182 
L 211.766619 486.194703 
L 211.551567 486.672097 
L 211.471542 486.847271 
L 211.133584 487.535845 
L 210.136468 489.567074 
L 208.559901 492.778596 
L 210.116316 493.545123 
L 210.921899 493.982045 
L 212.364667 494.764347 
L 214.590152 495.968534 
L 216.787854 497.174154 
L 216.792048 497.17645 
L 217.737066 497.511835 
L 219.799867 498.413198 
L 223.039334 500.161041 
L 224.844944 501.144606 
L 227.200682 502.40657 
L 227.623132 502.630973 
L 228.051898 502.855227 
L 228.493147 503.072845 
L 228.928078 503.290615 
L 229.644692 503.660099 
L 230.111656 503.896118 
L 230.578469 504.125803 
L 231.051449 504.349003 
L 231.524277 504.565871 
L 232.805609 505.029626 
L 233.996555 505.413154 
L 234.009338 505.419187 
L 234.022272 505.431553 
L 234.035055 505.437585 
L 234.041672 505.450102 
L 234.054455 505.456135 
L 234.061072 505.468652 
L 234.073855 505.474684 
L 234.080472 505.487201 
L 234.087089 505.499718 
L 234.093706 505.512235 
L 234.100323 505.524752 
L 234.10694 505.537269 
L 234.10724 505.549936 
L 234.114007 505.568787 
L 234.114307 505.581454 
L 234.114608 505.594122 
L 234.114908 505.606789 
L 234.115209 505.619457 
L 234.109193 505.632275 
L 234.103327 505.651427 
L 235.229755 505.979459 
L 235.367516 505.925476 
L 238.470539 506.453546 
L 238.556707 506.6226 
L 239.963018 506.760187 
L 240.08138 506.687655 
L 240.352838 506.674848 
L 241.504237 506.723454 
L 241.620036 506.809417 
L 241.620936 506.847419 
L 242.638789 506.861186 
L 243.0131 507.188145 
L 243.225747 507.360523 
L 244.530704 507.221692 
L 244.392805 507.003171 
L 244.202122 506.690848 
L 244.479596 506.665224 
L 245.065077 506.568888 
L 245.082976 506.524101 
L 245.188705 506.451871 
L 245.364516 506.40332 
L 247.957751 505.954961 
L 248.239742 505.853183 
L 248.536016 505.820776 
L 248.789126 505.833758 
L 249.186764 505.811612 
L 249.928508 505.641848 
L 250.725751 505.413726 
L 253.305328 504.655185 
L 253.359026 504.520822 
L 253.527621 504.434422 
L 255.041648 504.049816 
L 255.331608 504.017563 
L 255.369807 504.029328 
L 258.639263 503.045251 
L 259.234683 502.83462 
L 262.427474 501.548196 
L 263.184879 501.238654 
L 265.478745 500.42359 
L 266.119308 499.983747 
L 266.091943 499.895676 
L 266.119779 499.73658 
L 266.28523 499.517174 
L 266.879608 499.262214 
L 267.344635 499.149753 
L 267.83373 498.986022 
L 269.27847 498.343269 
L 269.844587 497.962237 
L 270.125986 497.835134 
L 270.948363 497.600104 
L 271.385579 497.380573 
L 273.058198 496.485254 
L 273.202131 496.424795 
L 273.410729 496.426172 
L 273.471797 496.335997 
L 273.639649 496.217933 
L 276.027723 495.109151 
L 276.559842 494.893704 
L 276.769189 494.926751 
L 276.861691 494.829492 
L 277.136027 494.670873 
L 278.320282 494.23713 
L 278.526334 494.130834 
L 278.656138 494.007339 
L 278.813481 493.712081 
L 278.932299 493.658558 
L 279.833329 493.54208 
L 280.231127 493.526286 
L 280.546359 493.493444 
L 280.929577 493.395613 
L 281.210531 493.249514 
L 281.258219 493.127971 
L 281.423378 492.895902 
L 282.112068 492.619703 
L 282.536509 492.394146 
L 282.712027 492.332939 
L 282.774894 492.31877 
L 282.831444 492.304751 
L 282.888144 492.297066 
L 282.944994 492.295715 
L 283.001844 492.294364 
L 283.058843 492.299347 
L 283.115843 492.30433 
L 283.172992 492.315646 
L 283.223824 492.327113 
L 283.281123 492.344763 
L 283.238882 492.161984 
L 283.229571 492.035459 
L 284.976794 491.353868 
L 285.084297 491.623819 
L 285.2723 491.555979 
L 285.170964 491.279544 
L 286.931424 490.622994 
L 286.935046 490.508836 
L 287.008451 490.405694 
L 287.145771 490.332721 
L 287.54387 490.3296 
L 287.896705 490.283194 
L 288.743917 490.028586 
L 288.931172 489.929077 
L 289.011792 489.863789 
L 289.378009 489.848752 
L 289.454856 489.891288 
L 289.4953 489.998062 
L 291.408266 489.375926 
L 292.267814 489.108355 
L 292.933908 489.212945 
L 293.291381 489.362888 
L 293.342064 489.368022 
L 293.399064 489.373006 
L 293.449597 489.371805 
L 293.506298 489.364122 
L 293.556681 489.356588 
L 293.613531 489.355238 
L 294.349291 489.198344 
L 295.425851 489.020684 
L 295.521649 489.062771 
L 296.037522 488.961799 
L 296.528726 488.886763 
L 297.09098 488.341077 
L 300.808552 487.85991 
L 302.283666 487.698152 
L 303.765696 487.561582 
L 303.764052 487.49191 
L 303.890236 487.482578 
L 304.136139 487.457731 
L 304.400991 487.432434 
L 304.431789 487.666184 
L 304.784926 487.632455 
L 305.817575 487.46853 
L 307.097771 487.349432 
L 308.650333 487.255561 
L 309.167405 487.205271 
L 309.982708 487.204942 
L 309.982409 487.192274 
L 309.982259 487.185941 
L 309.975644 487.173423 
L 309.975345 487.160755 
L 309.975046 487.148088 
L 309.974897 487.141754 
L 309.980914 487.128937 
L 309.980616 487.116269 
L 309.980317 487.103601 
L 309.986484 487.097118 
L 309.992502 487.0843 
L 309.998669 487.077817 
L 310.004687 487.064999 
L 310.010854 487.058516 
L 310.016872 487.045698 
L 310.023039 487.039215 
L 310.029206 487.032731 
L 310.04169 487.026098 
L 310.047858 487.019614 
L 310.060342 487.012981 
L 310.066509 487.006497 
L 310.079142 487.006197 
L 310.091626 486.999564 
L 310.097943 486.999414 
L 310.110576 486.999114 
L 310.12321 486.998815 
L 311.052213 486.99579 
L 311.064316 487.508827 
L 311.0959 487.508078 
L 311.1338 487.507179 
L 311.165384 487.506429 
L 311.196668 487.493013 
L 311.228102 487.48593 
L 311.259387 487.472513 
L 311.290671 487.459096 
L 311.321956 487.44568 
L 311.340458 487.426229 
L 311.35896 487.406778 
L 311.377611 487.393661 
L 311.402429 487.37406 
L 311.427397 487.360793 
L 311.446347 487.360344 
L 311.471315 487.347077 
L 311.496433 487.340144 
L 311.52155 487.333211 
L 311.546817 487.332612 
L 311.65992 487.30458 
L 311.767005 487.289365 
L 311.880705 487.286668 
L 311.994257 487.277638 
L 312.265874 487.271195 
L 312.544108 487.277271 
L 312.816324 487.296164 
L 313.088689 487.321391 
L 313.133354 487.339344 
L 313.184336 487.357147 
L 313.222833 487.381583 
L 313.267648 487.40587 
L 313.478041 487.483265 
L 313.687687 487.528992 
L 314.247142 487.66782 
L 315.207386 487.917555 
L 315.507258 488.03719 
L 315.902329 488.173581 
L 316.425973 488.401983 
L 316.62512 488.270515 
L 316.7232 488.141442 
L 317.393174 488.410737 
L 318.211716 488.815931 
L 319.036126 489.201976 
L 319.618411 489.505038 
L 319.939771 489.731902 
L 320.267596 489.964949 
L 320.589104 490.198146 
L 320.904594 490.444161 
L 321.36895 490.838743 
L 321.491953 490.962574 
L 321.328616 491.00447 
L 321.217156 491.102171 
L 321.125989 491.256428 
L 321.798899 491.918573 
L 321.97263 491.781371 
L 322.056836 491.868098 
L 322.105234 492.044396 
L 322.668967 492.633081 
L 323.219123 493.450231 
L 323.57947 493.454366 
L 324.220503 494.909434 
L 324.376683 495.368358 
L 324.501774 495.580863 
L 324.608065 495.80015 
L 324.708338 496.032255 
L 324.783344 496.264959 
L 324.845866 496.504296 
L 324.767541 496.597964 
L 325.142659 497.877398 
L 326.424555 497.616478 
L 327.807573 497.307402 
L 329.198515 496.99662 
L 330.941154 496.607165 
L 332.60587 496.231222 
L 333.100593 496.107081 
L 335.61129 495.47739 
L 335.859015 495.415313 
L 335.712835 494.738588 
L 334.40238 489.547663 
L 333.879694 487.481399 
L 333.682187 486.877693 
L 333.478661 486.286804 
L 333.262352 485.689881 
L 333.052509 485.099142 
L 332.950969 484.813199 
L 332.836199 484.502219 
L 332.607405 483.91193 
L 332.368215 483.416946 
L 332.116391 482.922262 
L 331.845914 482.440694 
L 331.56927 481.96561 
L 330.390816 479.96558 
L 330.09701 479.566951 
L 329.79057 479.168621 
L 329.484279 478.776625 
L 329.177988 478.38463 
L 328.859062 477.992934 
L 328.540285 477.607572 
L 328.13173 477.167301 
L 327.716857 476.72718 
L 327.289648 476.300026 
L 326.850104 475.88584 
L 326.410708 475.477987 
L 325.95251 475.076918 
L 325.488294 474.688666 
L 325.01776 474.300565 
L 324.541357 473.931615 
L 324.058935 473.575482 
L 323.570195 473.2195 
L 323.069269 472.882819 
L 322.753025 472.605134 
L 322.46145 472.301516 
L 322.18221 471.98493 
L 321.934106 471.648595 
L 321.698337 471.299293 
L 321.480921 470.924207 
L 321.288623 470.542188 
L 321.121293 470.146902 
L 320.972765 469.744834 
L 320.86169 469.322866 
L 320.692314 468.572739 
L 320.670525 468.452846 
L 320.655054 468.332804 
L 320.658534 468.212312 
L 320.661864 468.085487 
L 320.684085 467.419541 
L 320.712474 466.747111 
L 320.716252 466.639287 
L 320.72003 466.531463 
L 320.730275 466.429823 
L 320.759321 466.3214 
L 320.782199 466.21946 
L 320.811394 466.117371 
L 320.976023 465.593808 
L 321.185168 465.081864 
L 321.413415 464.575806 
L 321.686477 464.094034 
L 321.881452 463.785221 
L 322.114776 463.494511 
L 322.354567 463.209986 
L 322.614055 462.95668 
L 322.535116 462.825467 
L 322.94427 462.486229 
L 323.386055 462.190579 
L 323.834456 461.907447 
L 324.302704 461.66187 
L 325.285808 461.271008 
L 325.744046 461.008304 
L 323.893572 456.357131 
L 323.496506 455.359115 
L 323.503046 455.356169 
L 326.983667 453.930179 
L 327.027588 453.916464 
L 328.279503 453.398829 
L 330.615615 452.487949 
L 332.4883 451.759162 
L 335.017718 450.735986 
L 337.566692 449.737707 
L 338.775449 449.265477 
L 340.259625 448.678995 
L 342.878253 447.685427 
L 342.883527 447.640941 
L 343.127807 447.546437 
L 344.536931 446.993428 
L 344.575579 447.0242 
L 344.745098 446.975827 
L 345.553148 446.665189 
L 347.299675 445.94577 
L 350.583622 444.752711 
L 351.022394 444.596573 
L 355.303781 443.082093 
L 357.523969 442.345165 
L 357.912952 442.221896 
L 359.914875 441.610546 
L 361.94207 440.998606 
L 362.890158 440.729041 
L 364.535286 440.265561 
L 365.867087 439.917223 
L 366.104312 439.791208 
L 366.190966 439.713113 
L 366.233698 439.64873 
L 368.255863 439.360132 
L 368.582721 439.282699 
L 372.354295 438.395103 
L 373.090879 438.269971 
L 373.294221 438.315867 
L 373.507816 438.260124 
L 374.111293 438.119125 
L 374.683333 437.985206 
L 375.324565 437.83698 
L 376.405772 437.583305 
L 377.600095 437.301612 
L 377.845277 437.245124 
L 378.025204 437.101455 
L 378.815969 436.860979 
L 380.73997 436.428982 
L 383.148172 435.890503 
L 383.530401 435.748398 
L 387.492873 434.374753 
L 388.188886 434.136525 
L 388.505939 434.179743 
L 388.822397 434.197626 
L 388.972376 434.124377 
L 389.123545 434.101799 
L 389.299834 434.07229 
L 389.451151 434.056046 
L 389.771251 433.959772 
L 390.419254 433.830413 
L 391.607125 433.542562 
L 392.825988 433.228633 
L 393.064856 433.172301 
L 393.096145 433.158888 
L 394.768221 432.764563 
L 396.547395 432.355043 
L 396.616439 432.334403 
L 398.514753 431.884055 
L 399.809283 431.562019 
L 400.110879 431.485199 
L 402.63781 430.886961 
L 404.989049 430.343573 
L 405.126397 430.270626 
L 405.232306 430.204756 
L 405.669092 430.232487 
L 407.567271 429.775833 
L 408.657495 429.636074 
L 411.562508 429.257109 
L 412.224194 429.171813 
L 412.79127 429.095082 
L 414.230666 428.750652 
L 414.356271 428.716008 
L 414.419148 428.701852 
L 414.475707 428.687845 
L 414.664337 428.645379 
L 415.047765 428.553964 
L 417.002515 428.083333 
L 417.109317 428.055468 
L 417.385944 427.991919 
L 417.507218 427.961266 
L 417.524184 427.956977 
L 417.763056 427.900654 
L 421.909421 425.737075 
L 422.098052 425.694611 
L 422.368364 425.631212 
L 424.266866 425.187277 
L 425.574355 424.877665 
L 429.170254 424.038913 
L 432.728406 423.207407 
L 436.349446 422.361768 
L 436.575688 422.305749 
L 439.951544 421.516596 
L 440.328663 421.425345 
L 441.02649 421.263182 
L 443.541165 420.678076 
L 447.162236 419.8325 
L 448.878457 419.430948 
L 450.764364 418.987391 
L 454.297454 418.162936 
L 457.912237 417.317571 
L 461.181196 416.550057 
L 461.633835 416.444371 
L 463.142634 416.09209 
L 464.180244 415.592437 
L 465.129452 415.367366 
L 468.76322 414.52162 
L 470.582622 414.094678 
L 470.694802 414.576812 
L 534.733431 399.594568 
L 545.50827 397.074256 
L 560.770257 393.504362 
L 594.336562 385.656016 
L 594.491732 385.619833 
L 594.523904 385.759013 
L 594.547078 385.858983 
L 594.573981 385.939855 
L 594.612904 386.015631 
L 594.662793 386.084561 
L 594.7226 386.145022 
L 594.791033 386.195777 
L 594.866286 386.235345 
L 594.946574 386.26301 
L 595.030236 386.278048 
L 595.115244 386.280254 
L 595.199569 386.269293 
L 595.375104 386.228074 
L 596.382429 385.991968 
L 596.926516 385.864357 
L 599.058277 385.366487 
L 601.118873 384.885362 
L 601.665457 384.756303 
L 602.850882 384.480325 
L 602.931097 384.455646 
L 603.006347 384.418535 
L 603.074885 384.370045 
L 603.134841 384.311236 
L 603.184734 384.243661 
L 603.223336 384.168998 
L 603.249683 384.089169 
L 603.263059 384.006093 
L 603.263265 383.922056 
L 603.250091 383.838964 
L 603.221714 383.716173 
L 612.042721 381.651582 
L 613.575809 381.292769 
L 614.052143 381.181702 
L 614.526787 381.063198 
L 614.999491 380.93726 
L 615.470129 380.80402 
L 615.938702 380.663477 
L 616.404447 380.515395 
L 616.867874 380.360016 
L 617.328733 380.197473 
L 617.787149 380.027635 
L 618.242747 379.850765 
L 618.696533 379.666587 
L 619.147502 379.475376 
L 619.595401 379.27714 
L 620.040105 379.07188 
L 620.481614 378.859723 
L 620.919678 378.640676 
L 621.354299 378.414865 
L 621.785348 378.182166 
L 622.21283 377.942833 
L 622.636364 377.696747 
L 621.797859 376.693119 
L 621.553161 376.400314 
L 621.047713 375.793021 
L 620.496569 375.134063 
L 618.008933 372.154612 
L 617.455138 371.490649 
L 617.426919 371.456703 
L 617.281683 371.282884 
L 617.210427 371.197465 
L 616.297772 370.104309 
L 615.982459 369.726705 
L 615.572483 369.23558 
L 614.742 368.240902 
L 614.699095 368.189679 
L 614.480389 367.927705 
L 614.392225 367.821892 
L 613.850022 367.172999 
L 613.348247 366.572091 
L 612.55086 365.620247 
L 611.800849 364.721678 
L 611.643122 364.532688 
L 609.966236 362.523053 
L 609.854802 362.389643 
L 605.97501 357.740136 
L 605.74335 357.055009 
L 605.693542 356.90762 
L 605.564351 356.525822 
L 606.047565 349.007818 
L 606.37789 344.063267 
L 606.394803 343.810523 
L 606.404568 343.664158 
L 606.50935 342.066247 
L 606.534145 341.689616 
L 606.567317 341.183129 
L 606.803929 337.576783 
L 607.023087 334.243997 
" clip-path="url(#pd600f20fe7)" style="fill: #d3d3d3"/>
   </g>
   <g id="matplotlib.axis_1">
    <g id="xtick_1">
     <g id="line2d_1">
      <defs>
       <path id="mb0148cb085" d="M 0 0 
L 0 3.5 
" style="stroke: #000000; stroke-width: 0.8"/>
      </defs>
      <g>
       <use xlink:href="#mb0148cb085" x="115.62818" y="521.736575" style="stroke: #000000; stroke-width: 0.8"/>
      </g>
     </g>
     <g id="text_1">
      <!-- 13.27 -->
      <g transform="translate(101.314117 536.335013) scale(0.1 -0.1)">
       <defs>
        <path id="DejaVuSans-31" d="M 794 531 
L 1825 531 
L 1825 4091 
L 703 3866 
L 703 4441 
L 1819 4666 
L 2450 4666 
L 2450 531 
L 3481 531 
L 3481 0 
L 794 0 
L 794 531 
z
" transform="scale(0.015625)"/>
        <path id="DejaVuSans-33" d="M 2597 2516 
Q 3050 2419 3304 2112 
Q 3559 1806 3559 1356 
Q 3559 666 3084 287 
Q 2609 -91 1734 -91 
Q 1441 -91 1130 -33 
Q 819 25 488 141 
L 488 750 
Q 750 597 1062 519 
Q 1375 441 1716 441 
Q 2309 441 2620 675 
Q 2931 909 2931 1356 
Q 2931 1769 2642 2001 
Q 2353 2234 1838 2234 
L 1294 2234 
L 1294 2753 
L 1863 2753 
Q 2328 2753 2575 2939 
Q 2822 3125 2822 3475 
Q 2822 3834 2567 4026 
Q 2313 4219 1838 4219 
Q 1578 4219 1281 4162 
Q 984 4106 628 3988 
L 628 4550 
Q 988 4650 1302 4700 
Q 1616 4750 1894 4750 
Q 2613 4750 3031 4423 
Q 3450 4097 3450 3541 
Q 3450 3153 3228 2886 
Q 3006 2619 2597 2516 
z
" transform="scale(0.015625)"/>
        <path id="DejaVuSans-2e" d="M 684 794 
L 1344 794 
L 1344 0 
L 684 0 
L 684 794 
z
" transform="scale(0.015625)"/>
        <path id="DejaVuSans-32" d="M 1228 531 
L 3431 531 
L 3431 0 
L 469 0 
L 469 531 
Q 828 903 1448 1529 
Q 2069 2156 2228 2338 
Q 2531 2678 2651 2914 
Q 2772 3150 2772 3378 
Q 2772 3750 2511 3984 
Q 2250 4219 1831 4219 
Q 1534 4219 1204 4116 
Q 875 4013 500 3803 
L 500 4441 
Q 881 4594 1212 4672 
Q 1544 4750 1819 4750 
Q 2544 4750 2975 4387 
Q 3406 4025 3406 3419 
Q 3406 3131 3298 2873 
Q 3191 2616 2906 2266 
Q 2828 2175 2409 1742 
Q 1991 1309 1228 531 
z
" transform="scale(0.015625)"/>
        <path id="DejaVuSans-37" d="M 525 4666 
L 3525 4666 
L 3525 4397 
L 1831 0 
L 1172 0 
L 2766 4134 
L 525 4134 
L 525 4666 
z
" transform="scale(0.015625)"/>
       </defs>
       <use xlink:href="#DejaVuSans-31"/>
       <use xlink:href="#DejaVuSans-33" x="63.623047"/>
       <use xlink:href="#DejaVuSans-2e" x="127.246094"/>
       <use xlink:href="#DejaVuSans-32" x="159.033203"/>
       <use xlink:href="#DejaVuSans-37" x="222.65625"/>
      </g>
     </g>
    </g>
    <g id="xtick_2">
     <g id="line2d_2">
      <g>
       <use xlink:href="#mb0148cb085" x="201.366352" y="521.736575" style="stroke: #000000; stroke-width: 0.8"/>
      </g>
     </g>
     <g id="text_2">
      <!-- 13.28 -->
      <g transform="translate(187.052289 536.335013) scale(0.1 -0.1)">
       <defs>
        <path id="DejaVuSans-38" d="M 2034 2216 
Q 1584 2216 1326 1975 
Q 1069 1734 1069 1313 
Q 1069 891 1326 650 
Q 1584 409 2034 409 
Q 2484 409 2743 651 
Q 3003 894 3003 1313 
Q 3003 1734 2745 1975 
Q 2488 2216 2034 2216 
z
M 1403 2484 
Q 997 2584 770 2862 
Q 544 3141 544 3541 
Q 544 4100 942 4425 
Q 1341 4750 2034 4750 
Q 2731 4750 3128 4425 
Q 3525 4100 3525 3541 
Q 3525 3141 3298 2862 
Q 3072 2584 2669 2484 
Q 3125 2378 3379 2068 
Q 3634 1759 3634 1313 
Q 3634 634 3220 271 
Q 2806 -91 2034 -91 
Q 1263 -91 848 271 
Q 434 634 434 1313 
Q 434 1759 690 2068 
Q 947 2378 1403 2484 
z
M 1172 3481 
Q 1172 3119 1398 2916 
Q 1625 2713 2034 2713 
Q 2441 2713 2670 2916 
Q 2900 3119 2900 3481 
Q 2900 3844 2670 4047 
Q 2441 4250 2034 4250 
Q 1625 4250 1398 4047 
Q 1172 3844 1172 3481 
z
" transform="scale(0.015625)"/>
       </defs>
       <use xlink:href="#DejaVuSans-31"/>
       <use xlink:href="#DejaVuSans-33" x="63.623047"/>
       <use xlink:href="#DejaVuSans-2e" x="127.246094"/>
       <use xlink:href="#DejaVuSans-32" x="159.033203"/>
       <use xlink:href="#DejaVuSans-38" x="222.65625"/>
      </g>
     </g>
    </g>
    <g id="xtick_3">
     <g id="line2d_3">
      <g>
       <use xlink:href="#mb0148cb085" x="287.104524" y="521.736575" style="stroke: #000000; stroke-width: 0.8"/>
      </g>
     </g>
     <g id="text_3">
      <!-- 13.29 -->
      <g transform="translate(272.790462 536.335013) scale(0.1 -0.1)">
       <defs>
        <path id="DejaVuSans-39" d="M 703 97 
L 703 672 
Q 941 559 1184 500 
Q 1428 441 1663 441 
Q 2288 441 2617 861 
Q 2947 1281 2994 2138 
Q 2813 1869 2534 1725 
Q 2256 1581 1919 1581 
Q 1219 1581 811 2004 
Q 403 2428 403 3163 
Q 403 3881 828 4315 
Q 1253 4750 1959 4750 
Q 2769 4750 3195 4129 
Q 3622 3509 3622 2328 
Q 3622 1225 3098 567 
Q 2575 -91 1691 -91 
Q 1453 -91 1209 -44 
Q 966 3 703 97 
z
M 1959 2075 
Q 2384 2075 2632 2365 
Q 2881 2656 2881 3163 
Q 2881 3666 2632 3958 
Q 2384 4250 1959 4250 
Q 1534 4250 1286 3958 
Q 1038 3666 1038 3163 
Q 1038 2656 1286 2365 
Q 1534 2075 1959 2075 
z
" transform="scale(0.015625)"/>
       </defs>
       <use xlink:href="#DejaVuSans-31"/>
       <use xlink:href="#DejaVuSans-33" x="63.623047"/>
       <use xlink:href="#DejaVuSans-2e" x="127.246094"/>
       <use xlink:href="#DejaVuSans-32" x="159.033203"/>
       <use xlink:href="#DejaVuSans-39" x="222.65625"/>
      </g>
     </g>
    </g>
    <g id="xtick_4">
     <g id="line2d_4">
      <g>
       <use xlink:href="#mb0148cb085" x="372.842697" y="521.736575" style="stroke: #000000; stroke-width: 0.8"/>
      </g>
     </g>
     <g id="text_4">
      <!-- 13.30 -->
      <g transform="translate(358.528634 536.335013) scale(0.1 -0.1)">
       <defs>
        <path id="DejaVuSans-30" d="M 2034 4250 
Q 1547 4250 1301 3770 
Q 1056 3291 1056 2328 
Q 1056 1369 1301 889 
Q 1547 409 2034 409 
Q 2525 409 2770 889 
Q 3016 1369 3016 2328 
Q 3016 3291 2770 3770 
Q 2525 4250 2034 4250 
z
M 2034 4750 
Q 2819 4750 3233 4129 
Q 3647 3509 3647 2328 
Q 3647 1150 3233 529 
Q 2819 -91 2034 -91 
Q 1250 -91 836 529 
Q 422 1150 422 2328 
Q 422 3509 836 4129 
Q 1250 4750 2034 4750 
z
" transform="scale(0.015625)"/>
       </defs>
       <use xlink:href="#DejaVuSans-31"/>
       <use xlink:href="#DejaVuSans-33" x="63.623047"/>
       <use xlink:href="#DejaVuSans-2e" x="127.246094"/>
       <use xlink:href="#DejaVuSans-33" x="159.033203"/>
       <use xlink:href="#DejaVuSans-30" x="222.65625"/>
      </g>
     </g>
    </g>
    <g id="xtick_5">
     <g id="line2d_5">
      <g>
       <use xlink:href="#mb0148cb085" x="458.580869" y="521.736575" style="stroke: #000000; stroke-width: 0.8"/>
      </g>
     </g>
     <g id="text_5">
      <!-- 13.31 -->
      <g transform="translate(444.266807 536.335013) scale(0.1 -0.1)">
       <use xlink:href="#DejaVuSans-31"/>
       <use xlink:href="#DejaVuSans-33" x="63.623047"/>
       <use xlink:href="#DejaVuSans-2e" x="127.246094"/>
       <use xlink:href="#DejaVuSans-33" x="159.033203"/>
       <use xlink:href="#DejaVuSans-31" x="222.65625"/>
      </g>
     </g>
    </g>
    <g id="xtick_6">
     <g id="line2d_6">
      <g>
       <use xlink:href="#mb0148cb085" x="544.319042" y="521.736575" style="stroke: #000000; stroke-width: 0.8"/>
      </g>
     </g>
     <g id="text_6">
      <!-- 13.32 -->
      <g transform="translate(530.004979 536.335013) scale(0.1 -0.1)">
       <use xlink:href="#DejaVuSans-31"/>
       <use xlink:href="#DejaVuSans-33" x="63.623047"/>
       <use xlink:href="#DejaVuSans-2e" x="127.246094"/>
       <use xlink:href="#DejaVuSans-33" x="159.033203"/>
       <use xlink:href="#DejaVuSans-32" x="222.65625"/>
      </g>
     </g>
    </g>
    <g id="xtick_7">
     <g id="line2d_7">
      <g>
       <use xlink:href="#mb0148cb085" x="630.057214" y="521.736575" style="stroke: #000000; stroke-width: 0.8"/>
      </g>
     </g>
     <g id="text_7">
      <!-- 13.33 -->
      <g transform="translate(615.743151 536.335013) scale(0.1 -0.1)">
       <use xlink:href="#DejaVuSans-31"/>
       <use xlink:href="#DejaVuSans-33" x="63.623047"/>
       <use xlink:href="#DejaVuSans-2e" x="127.246094"/>
       <use xlink:href="#DejaVuSans-33" x="159.033203"/>
       <use xlink:href="#DejaVuSans-33" x="222.65625"/>
      </g>
     </g>
    </g>
   </g>
   <g id="matplotlib.axis_2">
    <g id="ytick_1">
     <g id="line2d_8">
      <defs>
       <path id="mec46c52dbc" d="M 0 0 
L -3.5 0 
" style="stroke: #000000; stroke-width: 0.8"/>
      </defs>
      <g>
       <use xlink:href="#mec46c52dbc" x="90" y="493.720115" style="stroke: #000000; stroke-width: 0.8"/>
      </g>
     </g>
     <g id="text_8">
      <!-- 52.5300 -->
      <g transform="translate(41.646875 497.519333) scale(0.1 -0.1)">
       <defs>
        <path id="DejaVuSans-35" d="M 691 4666 
L 3169 4666 
L 3169 4134 
L 1269 4134 
L 1269 2991 
Q 1406 3038 1543 3061 
Q 1681 3084 1819 3084 
Q 2600 3084 3056 2656 
Q 3513 2228 3513 1497 
Q 3513 744 3044 326 
Q 2575 -91 1722 -91 
Q 1428 -91 1123 -41 
Q 819 9 494 109 
L 494 744 
Q 775 591 1075 516 
Q 1375 441 1709 441 
Q 2250 441 2565 725 
Q 2881 1009 2881 1497 
Q 2881 1984 2565 2268 
Q 2250 2553 1709 2553 
Q 1456 2553 1204 2497 
Q 953 2441 691 2322 
L 691 4666 
z
" transform="scale(0.015625)"/>
       </defs>
       <use xlink:href="#DejaVuSans-35"/>
       <use xlink:href="#DejaVuSans-32" x="63.623047"/>
       <use xlink:href="#DejaVuSans-2e" x="127.246094"/>
       <use xlink:href="#DejaVuSans-35" x="159.033203"/>
       <use xlink:href="#DejaVuSans-33" x="222.65625"/>
       <use xlink:href="#DejaVuSans-30" x="286.279297"/>
       <use xlink:href="#DejaVuSans-30" x="349.902344"/>
      </g>
     </g>
    </g>
    <g id="ytick_2">
     <g id="line2d_9">
      <g>
       <use xlink:href="#mec46c52dbc" x="90" y="458.478197" style="stroke: #000000; stroke-width: 0.8"/>
      </g>
     </g>
     <g id="text_9">
      <!-- 52.5325 -->
      <g transform="translate(41.646875 462.277416) scale(0.1 -0.1)">
       <use xlink:href="#DejaVuSans-35"/>
       <use xlink:href="#DejaVuSans-32" x="63.623047"/>
       <use xlink:href="#DejaVuSans-2e" x="127.246094"/>
       <use xlink:href="#DejaVuSans-35" x="159.033203"/>
       <use xlink:href="#DejaVuSans-33" x="222.65625"/>
       <use xlink:href="#DejaVuSans-32" x="286.279297"/>
       <use xlink:href="#DejaVuSans-35" x="349.902344"/>
      </g>
     </g>
    </g>
    <g id="ytick_3">
     <g id="line2d_10">
      <g>
       <use xlink:href="#mec46c52dbc" x="90" y="423.236279" style="stroke: #000000; stroke-width: 0.8"/>
      </g>
     </g>
     <g id="text_10">
      <!-- 52.5350 -->
      <g transform="translate(41.646875 427.035498) scale(0.1 -0.1)">
       <use xlink:href="#DejaVuSans-35"/>
       <use xlink:href="#DejaVuSans-32" x="63.623047"/>
       <use xlink:href="#DejaVuSans-2e" x="127.246094"/>
       <use xlink:href="#DejaVuSans-35" x="159.033203"/>
       <use xlink:href="#DejaVuSans-33" x="222.65625"/>
       <use xlink:href="#DejaVuSans-35" x="286.279297"/>
       <use xlink:href="#DejaVuSans-30" x="349.902344"/>
      </g>
     </g>
    </g>
    <g id="ytick_4">
     <g id="line2d_11">
      <g>
       <use xlink:href="#mec46c52dbc" x="90" y="387.994362" style="stroke: #000000; stroke-width: 0.8"/>
      </g>
     </g>
     <g id="text_11">
      <!-- 52.5375 -->
      <g transform="translate(41.646875 391.793581) scale(0.1 -0.1)">
       <use xlink:href="#DejaVuSans-35"/>
       <use xlink:href="#DejaVuSans-32" x="63.623047"/>
       <use xlink:href="#DejaVuSans-2e" x="127.246094"/>
       <use xlink:href="#DejaVuSans-35" x="159.033203"/>
       <use xlink:href="#DejaVuSans-33" x="222.65625"/>
       <use xlink:href="#DejaVuSans-37" x="286.279297"/>
       <use xlink:href="#DejaVuSans-35" x="349.902344"/>
      </g>
     </g>
    </g>
    <g id="ytick_5">
     <g id="line2d_12">
      <g>
       <use xlink:href="#mec46c52dbc" x="90" y="352.752444" style="stroke: #000000; stroke-width: 0.8"/>
      </g>
     </g>
     <g id="text_12">
      <!-- 52.5400 -->
      <g transform="translate(41.646875 356.551663) scale(0.1 -0.1)">
       <defs>
        <path id="DejaVuSans-34" d="M 2419 4116 
L 825 1625 
L 2419 1625 
L 2419 4116 
z
M 2253 4666 
L 3047 4666 
L 3047 1625 
L 3713 1625 
L 3713 1100 
L 3047 1100 
L 3047 0 
L 2419 0 
L 2419 1100 
L 313 1100 
L 313 1709 
L 2253 4666 
z
" transform="scale(0.015625)"/>
       </defs>
       <use xlink:href="#DejaVuSans-35"/>
       <use xlink:href="#DejaVuSans-32" x="63.623047"/>
       <use xlink:href="#DejaVuSans-2e" x="127.246094"/>
       <use xlink:href="#DejaVuSans-35" x="159.033203"/>
       <use xlink:href="#DejaVuSans-34" x="222.65625"/>
       <use xlink:href="#DejaVuSans-30" x="286.279297"/>
       <use xlink:href="#DejaVuSans-30" x="349.902344"/>
      </g>
     </g>
    </g>
    <g id="ytick_6">
     <g id="line2d_13">
      <g>
       <use xlink:href="#mec46c52dbc" x="90" y="317.510527" style="stroke: #000000; stroke-width: 0.8"/>
      </g>
     </g>
     <g id="text_13">
      <!-- 52.5425 -->
      <g transform="translate(41.646875 321.309745) scale(0.1 -0.1)">
       <use xlink:href="#DejaVuSans-35"/>
       <use xlink:href="#DejaVuSans-32" x="63.623047"/>
       <use xlink:href="#DejaVuSans-2e" x="127.246094"/>
       <use xlink:href="#DejaVuSans-35" x="159.033203"/>
       <use xlink:href="#DejaVuSans-34" x="222.65625"/>
       <use xlink:href="#DejaVuSans-32" x="286.279297"/>
       <use xlink:href="#DejaVuSans-35" x="349.902344"/>
      </g>
     </g>
    </g>
    <g id="ytick_7">
     <g id="line2d_14">
      <g>
       <use xlink:href="#mec46c52dbc" x="90" y="282.268609" style="stroke: #000000; stroke-width: 0.8"/>
      </g>
     </g>
     <g id="text_14">
      <!-- 52.5450 -->
      <g transform="translate(41.646875 286.067828) scale(0.1 -0.1)">
       <use xlink:href="#DejaVuSans-35"/>
       <use xlink:href="#DejaVuSans-32" x="63.623047"/>
       <use xlink:href="#DejaVuSans-2e" x="127.246094"/>
       <use xlink:href="#DejaVuSans-35" x="159.033203"/>
       <use xlink:href="#DejaVuSans-34" x="222.65625"/>
       <use xlink:href="#DejaVuSans-35" x="286.279297"/>
       <use xlink:href="#DejaVuSans-30" x="349.902344"/>
      </g>
     </g>
    </g>
    <g id="ytick_8">
     <g id="line2d_15">
      <g>
       <use xlink:href="#mec46c52dbc" x="90" y="247.026691" style="stroke: #000000; stroke-width: 0.8"/>
      </g>
     </g>
     <g id="text_15">
      <!-- 52.5475 -->
      <g transform="translate(41.646875 250.82591) scale(0.1 -0.1)">
       <use xlink:href="#DejaVuSans-35"/>
       <use xlink:href="#DejaVuSans-32" x="63.623047"/>
       <use xlink:href="#DejaVuSans-2e" x="127.246094"/>
       <use xlink:href="#DejaVuSans-35" x="159.033203"/>
       <use xlink:href="#DejaVuSans-34" x="222.65625"/>
       <use xlink:href="#DejaVuSans-37" x="286.279297"/>
       <use xlink:href="#DejaVuSans-35" x="349.902344"/>
      </g>
     </g>
    </g>
    <g id="ytick_9">
     <g id="line2d_16">
      <g>
       <use xlink:href="#mec46c52dbc" x="90" y="211.784774" style="stroke: #000000; stroke-width: 0.8"/>
      </g>
     </g>
     <g id="text_16">
      <!-- 52.5500 -->
      <g transform="translate(41.646875 215.583993) scale(0.1 -0.1)">
       <use xlink:href="#DejaVuSans-35"/>
       <use xlink:href="#DejaVuSans-32" x="63.623047"/>
       <use xlink:href="#DejaVuSans-2e" x="127.246094"/>
       <use xlink:href="#DejaVuSans-35" x="159.033203"/>
       <use xlink:href="#DejaVuSans-35" x="222.65625"/>
       <use xlink:href="#DejaVuSans-30" x="286.279297"/>
       <use xlink:href="#DejaVuSans-30" x="349.902344"/>
      </g>
     </g>
    </g>
   </g>
   <g id="LineCollection_1">
    <path d="M 347.92204 394.533852 
L 348.799141 394.532442 
L 355.557024 394.515526 
L 362.296044 394.6283 
L 363.331761 394.687507 
" clip-path="url(#pd600f20fe7)" style="fill: none; stroke: #ff0000; stroke-opacity: 0.7; stroke-width: 0.5"/>
    <path d="M 391.866282 370.601771 
L 392.578767 370.600361 
L 393.124061 370.600361 
L 403.529246 370.598951 
" clip-path="url(#pd600f20fe7)" style="fill: none; stroke: #ff0000; stroke-opacity: 0.7; stroke-width: 0.5"/>
    <path d="M 578.862094 319.333239 
L 578.297079 319.919664 
L 578.080162 320.143803 
L 577.976419 320.249528 
L 576.724641 321.529515 
" clip-path="url(#pd600f20fe7)" style="fill: none; stroke: #ff0000; stroke-opacity: 0.7; stroke-width: 0.5"/>
    <path d="M 394.536169 386.594553 
L 395.322388 386.598782 
L 399.819355 386.618517 
L 401.991961 386.628385 
L 402.940225 387.248643 
" clip-path="url(#pd600f20fe7)" style="fill: none; stroke: #ff0000; stroke-opacity: 0.7; stroke-width: 0.5"/>
    <path d="M 576.724641 321.529515 
L 568.893317 329.53225 
L 568.232275 330.692414 
" clip-path="url(#pd600f20fe7)" style="fill: none; stroke: #ff0000; stroke-opacity: 0.7; stroke-width: 0.5"/>
   </g>
   <g id="patch_3">
    <path d="M 90 521.736575 
L 90 205.463425 
" style="fill: none; stroke: #000000; stroke-width: 0.8; stroke-linejoin: miter; stroke-linecap: square"/>
   </g>
   <g id="patch_4">
    <path d="M 648 521.736575 
L 648 205.463425 
" style="fill: none; stroke: #000000; stroke-width: 0.8; stroke-linejoin: miter; stroke-linecap: square"/>
   </g>
   <g id="patch_5">
    <path d="M 90 521.736575 
L 648 521.736575 
" style="fill: none; stroke: #000000; stroke-width: 0.8; stroke-linejoin: miter; stroke-linecap: square"/>
   </g>
   <g id="patch_6">
    <path d="M 90 205.463425 
L 648 205.463425 
" style="fill: none; stroke: #000000; stroke-width: 0.8; stroke-linejoin: miter; stroke-linecap: square"/>
   </g>
   <g id="text_17">
    <!-- Charlottenburg_Nord -->
    <g transform="translate(283.060264 340.812462) scale(0.12 -0.12)">
     <defs>
      <path id="DejaVuSans-43" d="M 4122 4306 
L 4122 3641 
Q 3803 3938 3442 4084 
Q 3081 4231 2675 4231 
Q 1875 4231 1450 3742 
Q 1025 3253 1025 2328 
Q 1025 1406 1450 917 
Q 1875 428 2675 428 
Q 3081 428 3442 575 
Q 3803 722 4122 1019 
L 4122 359 
Q 3791 134 3420 21 
Q 3050 -91 2638 -91 
Q 1578 -91 968 557 
Q 359 1206 359 2328 
Q 359 3453 968 4101 
Q 1578 4750 2638 4750 
Q 3056 4750 3426 4639 
Q 3797 4528 4122 4306 
z
" transform="scale(0.015625)"/>
      <path id="DejaVuSans-68" d="M 3513 2113 
L 3513 0 
L 2938 0 
L 2938 2094 
Q 2938 2591 2744 2837 
Q 2550 3084 2163 3084 
Q 1697 3084 1428 2787 
Q 1159 2491 1159 1978 
L 1159 0 
L 581 0 
L 581 4863 
L 1159 4863 
L 1159 2956 
Q 1366 3272 1645 3428 
Q 1925 3584 2291 3584 
Q 2894 3584 3203 3211 
Q 3513 2838 3513 2113 
z
" transform="scale(0.015625)"/>
      <path id="DejaVuSans-61" d="M 2194 1759 
Q 1497 1759 1228 1600 
Q 959 1441 959 1056 
Q 959 750 1161 570 
Q 1363 391 1709 391 
Q 2188 391 2477 730 
Q 2766 1069 2766 1631 
L 2766 1759 
L 2194 1759 
z
M 3341 1997 
L 3341 0 
L 2766 0 
L 2766 531 
Q 2569 213 2275 61 
Q 1981 -91 1556 -91 
Q 1019 -91 701 211 
Q 384 513 384 1019 
Q 384 1609 779 1909 
Q 1175 2209 1959 2209 
L 2766 2209 
L 2766 2266 
Q 2766 2663 2505 2880 
Q 2244 3097 1772 3097 
Q 1472 3097 1187 3025 
Q 903 2953 641 2809 
L 641 3341 
Q 956 3463 1253 3523 
Q 1550 3584 1831 3584 
Q 2591 3584 2966 3190 
Q 3341 2797 3341 1997 
z
" transform="scale(0.015625)"/>
      <path id="DejaVuSans-72" d="M 2631 2963 
Q 2534 3019 2420 3045 
Q 2306 3072 2169 3072 
Q 1681 3072 1420 2755 
Q 1159 2438 1159 1844 
L 1159 0 
L 581 0 
L 581 3500 
L 1159 3500 
L 1159 2956 
Q 1341 3275 1631 3429 
Q 1922 3584 2338 3584 
Q 2397 3584 2469 3576 
Q 2541 3569 2628 3553 
L 2631 2963 
z
" transform="scale(0.015625)"/>
      <path id="DejaVuSans-6c" d="M 603 4863 
L 1178 4863 
L 1178 0 
L 603 0 
L 603 4863 
z
" transform="scale(0.015625)"/>
      <path id="DejaVuSans-6f" d="M 1959 3097 
Q 1497 3097 1228 2736 
Q 959 2375 959 1747 
Q 959 1119 1226 758 
Q 1494 397 1959 397 
Q 2419 397 2687 759 
Q 2956 1122 2956 1747 
Q 2956 2369 2687 2733 
Q 2419 3097 1959 3097 
z
M 1959 3584 
Q 2709 3584 3137 3096 
Q 3566 2609 3566 1747 
Q 3566 888 3137 398 
Q 2709 -91 1959 -91 
Q 1206 -91 779 398 
Q 353 888 353 1747 
Q 353 2609 779 3096 
Q 1206 3584 1959 3584 
z
" transform="scale(0.015625)"/>
      <path id="DejaVuSans-74" d="M 1172 4494 
L 1172 3500 
L 2356 3500 
L 2356 3053 
L 1172 3053 
L 1172 1153 
Q 1172 725 1289 603 
Q 1406 481 1766 481 
L 2356 481 
L 2356 0 
L 1766 0 
Q 1100 0 847 248 
Q 594 497 594 1153 
L 594 3053 
L 172 3053 
L 172 3500 
L 594 3500 
L 594 4494 
L 1172 4494 
z
" transform="scale(0.015625)"/>
      <path id="DejaVuSans-65" d="M 3597 1894 
L 3597 1613 
L 953 1613 
Q 991 1019 1311 708 
Q 1631 397 2203 397 
Q 2534 397 2845 478 
Q 3156 559 3463 722 
L 3463 178 
Q 3153 47 2828 -22 
Q 2503 -91 2169 -91 
Q 1331 -91 842 396 
Q 353 884 353 1716 
Q 353 2575 817 3079 
Q 1281 3584 2069 3584 
Q 2775 3584 3186 3129 
Q 3597 2675 3597 1894 
z
M 3022 2063 
Q 3016 2534 2758 2815 
Q 2500 3097 2075 3097 
Q 1594 3097 1305 2825 
Q 1016 2553 972 2059 
L 3022 2063 
z
" transform="scale(0.015625)"/>
      <path id="DejaVuSans-6e" d="M 3513 2113 
L 3513 0 
L 2938 0 
L 2938 2094 
Q 2938 2591 2744 2837 
Q 2550 3084 2163 3084 
Q 1697 3084 1428 2787 
Q 1159 2491 1159 1978 
L 1159 0 
L 581 0 
L 581 3500 
L 1159 3500 
L 1159 2956 
Q 1366 3272 1645 3428 
Q 1925 3584 2291 3584 
Q 2894 3584 3203 3211 
Q 3513 2838 3513 2113 
z
" transform="scale(0.015625)"/>
      <path id="DejaVuSans-62" d="M 3116 1747 
Q 3116 2381 2855 2742 
Q 2594 3103 2138 3103 
Q 1681 3103 1420 2742 
Q 1159 2381 1159 1747 
Q 1159 1113 1420 752 
Q 1681 391 2138 391 
Q 2594 391 2855 752 
Q 3116 1113 3116 1747 
z
M 1159 2969 
Q 1341 3281 1617 3432 
Q 1894 3584 2278 3584 
Q 2916 3584 3314 3078 
Q 3713 2572 3713 1747 
Q 3713 922 3314 415 
Q 2916 -91 2278 -91 
Q 1894 -91 1617 61 
Q 1341 213 1159 525 
L 1159 0 
L 581 0 
L 581 4863 
L 1159 4863 
L 1159 2969 
z
" transform="scale(0.015625)"/>
      <path id="DejaVuSans-75" d="M 544 1381 
L 544 3500 
L 1119 3500 
L 1119 1403 
Q 1119 906 1312 657 
Q 1506 409 1894 409 
Q 2359 409 2629 706 
Q 2900 1003 2900 1516 
L 2900 3500 
L 3475 3500 
L 3475 0 
L 2900 0 
L 2900 538 
Q 2691 219 2414 64 
Q 2138 -91 1772 -91 
Q 1169 -91 856 284 
Q 544 659 544 1381 
z
M 1991 3584 
L 1991 3584 
z
" transform="scale(0.015625)"/>
      <path id="DejaVuSans-67" d="M 2906 1791 
Q 2906 2416 2648 2759 
Q 2391 3103 1925 3103 
Q 1463 3103 1205 2759 
Q 947 2416 947 1791 
Q 947 1169 1205 825 
Q 1463 481 1925 481 
Q 2391 481 2648 825 
Q 2906 1169 2906 1791 
z
M 3481 434 
Q 3481 -459 3084 -895 
Q 2688 -1331 1869 -1331 
Q 1566 -1331 1297 -1286 
Q 1028 -1241 775 -1147 
L 775 -588 
Q 1028 -725 1275 -790 
Q 1522 -856 1778 -856 
Q 2344 -856 2625 -561 
Q 2906 -266 2906 331 
L 2906 616 
Q 2728 306 2450 153 
Q 2172 0 1784 0 
Q 1141 0 747 490 
Q 353 981 353 1791 
Q 353 2603 747 3093 
Q 1141 3584 1784 3584 
Q 2172 3584 2450 3431 
Q 2728 3278 2906 2969 
L 2906 3500 
L 3481 3500 
L 3481 434 
z
" transform="scale(0.015625)"/>
      <path id="DejaVuSans-5f" d="M 3263 -1063 
L 3263 -1509 
L -63 -1509 
L -63 -1063 
L 3263 -1063 
z
" transform="scale(0.015625)"/>
      <path id="DejaVuSans-4e" d="M 628 4666 
L 1478 4666 
L 3547 763 
L 3547 4666 
L 4159 4666 
L 4159 0 
L 3309 0 
L 1241 3903 
L 1241 0 
L 628 0 
L 628 4666 
z
" transform="scale(0.015625)"/>
      <path id="DejaVuSans-64" d="M 2906 2969 
L 2906 4863 
L 3481 4863 
L 3481 0 
L 2906 0 
L 2906 525 
Q 2725 213 2448 61 
Q 2172 -91 1784 -91 
Q 1150 -91 751 415 
Q 353 922 353 1747 
Q 353 2572 751 3078 
Q 1150 3584 1784 3584 
Q 2172 3584 2448 3432 
Q 2725 3281 2906 2969 
z
M 947 1747 
Q 947 1113 1208 752 
Q 1469 391 1925 391 
Q 2381 391 2643 752 
Q 2906 1113 2906 1747 
Q 2906 2381 2643 2742 
Q 2381 3103 1925 3103 
Q 1469 3103 1208 2742 
Q 947 2381 947 1747 
z
" transform="scale(0.015625)"/>
     </defs>
     <use xlink:href="#DejaVuSans-43"/>
     <use xlink:href="#DejaVuSans-68" x="69.824219"/>
     <use xlink:href="#DejaVuSans-61" x="133.203125"/>
     <use xlink:href="#DejaVuSans-72" x="194.482422"/>
     <use xlink:href="#DejaVuSans-6c" x="235.595703"/>
     <use xlink:href="#DejaVuSans-6f" x="263.378906"/>
     <use xlink:href="#DejaVuSans-74" x="324.560547"/>
     <use xlink:href="#DejaVuSans-74" x="363.769531"/>
     <use xlink:href="#DejaVuSans-65" x="402.978516"/>
     <use xlink:href="#DejaVuSans-6e" x="464.501953"/>
     <use xlink:href="#DejaVuSans-62" x="527.880859"/>
     <use xlink:href="#DejaVuSans-75" x="591.357422"/>
     <use xlink:href="#DejaVuSans-72" x="654.736328"/>
     <use xlink:href="#DejaVuSans-67" x="694.099609"/>
     <use xlink:href="#DejaVuSans-5f" x="757.576172"/>
     <use xlink:href="#DejaVuSans-4e" x="807.576172"/>
     <use xlink:href="#DejaVuSans-6f" x="882.380859"/>
     <use xlink:href="#DejaVuSans-72" x="943.5625"/>
     <use xlink:href="#DejaVuSans-64" x="982.925781"/>
    </g>
   </g>
  </g>
 </g>
 <defs>
  <clipPath id="pd600f20fe7">
   <rect x="90" y="205.463425" width="558" height="316.27315"/>
  </clipPath>
 </defs>
</svg>
