<?xml version="1.0" encoding="utf-8" standalone="no"?>
<!DOCTYPE svg PUBLIC "-//W3C//DTD SVG 1.1//EN"
  "http://www.w3.org/Graphics/SVG/1.1/DTD/svg11.dtd">
<svg xmlns:xlink="http://www.w3.org/1999/xlink" width="460.8pt" height="345.6pt" viewBox="0 0 460.8 345.6" xmlns="http://www.w3.org/2000/svg" version="1.1">
 <metadata>
  <rdf:RDF xmlns:dc="http://purl.org/dc/elements/1.1/" xmlns:cc="http://creativecommons.org/ns#" xmlns:rdf="http://www.w3.org/1999/02/22-rdf-syntax-ns#">
   <cc:Work>
    <dc:type rdf:resource="http://purl.org/dc/dcmitype/StillImage"/>
    <dc:date>2024-10-17T11:33:17.870841</dc:date>
    <dc:format>image/svg+xml</dc:format>
    <dc:creator>
     <cc:Agent>
      <dc:title>Matplotlib v3.9.2, https://matplotlib.org/</dc:title>
     </cc:Agent>
    </dc:creator>
   </cc:Work>
  </rdf:RDF>
 </metadata>
 <defs>
  <style type="text/css">*{stroke-linejoin: round; stroke-linecap: butt}</style>
 </defs>
 <g id="figure_1">
  <g id="patch_1">
   <path d="M 0 345.6 
L 460.8 345.6 
L 460.8 0 
L 0 0 
z
" style="fill: #ffffff"/>
  </g>
  <g id="axes_1">
   <g id="patch_2">
    <path d="M 144.59219 307.584 
L 327.72781 307.584 
L 327.72781 41.472 
L 144.59219 41.472 
z
" style="fill: #ffffff"/>
   </g>
   <g id="PatchCollection_1">
    <path d="M 152.916536 97.917266 
L 153.126641 98.053745 
L 156.332754 100.136054 
L 156.600002 100.309628 
L 156.666128 100.352345 
L 160.783875 103.013329 
L 161.404407 103.41448 
L 162.170655 103.909506 
L 170.759959 109.460675 
L 172.14035 110.349172 
L 172.368606 110.499745 
L 172.695008 110.706817 
L 173.138357 110.970342 
L 173.614458 111.257744 
L 173.968431 111.474183 
L 174.318719 111.684809 
L 174.687152 111.885215 
L 175.043271 112.076941 
L 175.473421 112.301246 
L 177.667086 113.41362 
L 179.016324 114.056374 
L 180.893008 114.951515 
L 181.143909 114.902079 
L 182.549547 115.501774 
L 182.731987 115.558908 
L 182.915375 115.612892 
L 183.099639 115.6638 
L 183.258564 115.711188 
L 183.418836 115.753745 
L 183.580381 115.791471 
L 183.742908 115.824227 
L 184.139072 115.901648 
L 184.536335 115.97286 
L 184.934698 116.037864 
L 185.334013 116.096663 
L 185.538083 116.12029 
L 185.7427 116.13903 
L 185.947716 116.152814 
L 186.15299 116.161717 
L 186.186543 117.160396 
L 186.19362 117.372275 
L 186.196842 117.467016 
L 186.205366 117.722086 
L 186.208514 117.816756 
L 186.214501 117.99526 
L 186.248585 119.011682 
L 185.916982 119.025331 
L 185.435532 119.045093 
L 184.440647 119.085972 
L 184.297908 119.091784 
L 183.70105 119.122293 
L 183.229822 119.885481 
L 182.452275 120.025886 
L 181.454495 120.210473 
L 183.34183 121.563588 
L 187.225063 124.346933 
L 191.672652 127.464791 
L 192.486564 128.07308 
L 193.516904 128.796488 
L 193.590254 128.848078 
L 193.777567 128.979548 
L 196.325197 130.768144 
L 196.528357 130.910766 
L 197.692253 131.727976 
L 197.945096 131.90546 
L 199.34937 132.891409 
L 199.390305 133.054963 
L 198.124785 137.322377 
L 198.039091 137.611519 
L 197.995262 137.759313 
L 195.78071 145.227081 
L 195.618729 145.773508 
L 195.507618 146.148848 
L 191.056856 145.982172 
L 190.972293 145.975651 
L 190.888385 145.965841 
L 190.80498 145.952455 
L 190.722232 145.935853 
L 190.627777 145.91172 
L 190.534536 145.883269 
L 190.442865 145.850271 
L 190.352615 145.812513 
L 188.195158 144.868666 
L 188.020662 145.259655 
L 187.27223 146.940335 
L 186.482698 148.713453 
L 186.289469 149.147419 
L 186.082266 149.613051 
L 186.030427 149.729369 
L 185.932776 149.948704 
L 185.881011 150.065093 
L 185.565611 150.773271 
L 184.619558 152.897492 
L 183.32103 155.813149 
L 185.185056 156.644264 
L 184.864893 157.389233 
L 184.615475 157.979416 
L 184.425914 158.428219 
L 185.314058 158.721039 
L 185.348539 158.617688 
L 186.17209 158.897587 
L 186.198933 158.906969 
L 187.394922 159.313782 
L 187.286285 159.625402 
L 187.140854 160.03744 
L 186.283509 162.482706 
L 186.02439 163.220883 
L 185.928984 163.459887 
L 185.701661 164.031249 
L 185.669174 164.1128 
L 185.592148 164.30578 
L 185.571973 164.355991 
L 185.505751 164.551791 
L 184.915633 166.293851 
L 184.608247 167.158674 
L 183.91144 169.117721 
L 183.681789 169.761972 
L 183.479623 170.368368 
L 183.048663 171.658289 
L 182.849383 172.25378 
L 182.811238 172.368781 
L 182.792482 172.424128 
L 182.791067 172.429179 
L 182.356503 173.730022 
L 182.08235 174.550463 
L 182.065862 174.599939 
L 182.057893 174.62398 
L 181.703902 175.66133 
L 181.527758 176.175767 
L 181.385945 176.580015 
L 181.138599 177.284613 
L 180.709315 178.50734 
L 179.444667 182.110401 
L 179.2644 182.601862 
L 179.229729 182.696268 
L 178.776171 183.713533 
L 178.205266 184.95486 
L 178.062643 185.264898 
L 175.854737 190.025401 
L 175.750551 190.243863 
L 175.456121 190.861741 
L 175.303765 191.181235 
L 175.008639 191.800439 
L 174.336822 193.082619 
L 174.147155 193.458448 
L 173.885275 193.934381 
L 173.047949 196.464596 
L 173.006972 196.535928 
L 172.980679 196.58169 
L 172.965507 196.608218 
L 172.529312 197.368036 
L 172.335621 197.705535 
L 171.139629 199.788977 
L 170.984747 200.058758 
L 170.962841 200.095983 
L 170.814266 200.348817 
L 170.673036 200.588975 
L 170.623348 200.673523 
L 170.623228 200.673727 
L 170.561692 200.778416 
L 170.431803 200.999407 
L 170.264822 201.283496 
L 170.116387 201.536036 
L 170.069566 201.615574 
L 170.094495 201.630527 
L 170.030289 201.744935 
L 168.992288 203.583567 
L 167.87498 205.502524 
L 167.831746 205.600102 
L 167.81598 205.635956 
L 169.040678 206.567215 
L 169.303242 206.523118 
L 169.812839 206.89135 
L 170.590901 207.646338 
L 172.04373 208.975944 
L 172.031494 208.990619 
L 175.820219 212.153406 
L 176.397169 212.659152 
L 178.123848 214.322017 
L 179.298777 215.453483 
L 179.468975 215.617408 
L 179.522699 215.601608 
L 182.139241 218.121472 
L 182.120649 218.14087 
L 183.768551 219.727845 
L 183.787143 219.708447 
L 192.007082 227.661399 
L 193.946753 229.53798 
L 195.161976 230.942284 
L 195.128716 230.971315 
L 195.366477 231.246194 
L 195.388915 231.230133 
L 196.811675 231.888738 
L 197.747704 231.996012 
L 197.795976 232.023337 
L 197.900971 232.082823 
L 197.904131 232.084646 
L 197.929778 232.072589 
L 197.957277 232.065659 
L 197.985617 232.064022 
L 198.01371 232.067774 
L 198.040611 232.07672 
L 198.052313 232.08425 
L 198.065297 232.090661 
L 198.557078 232.343264 
L 199.05194 232.597401 
L 199.066607 232.607777 
L 199.077554 232.613941 
L 199.098996 232.635594 
L 199.115376 232.661359 
L 199.125868 232.690017 
L 199.129935 232.720271 
L 199.127476 232.75074 
L 199.059094 232.900307 
L 199.178999 232.978022 
L 199.211272 233.005698 
L 199.225585 233.017972 
L 199.267347 233.062975 
L 199.30369 233.112462 
L 199.334237 233.165714 
L 199.358467 233.222159 
L 199.376217 233.281002 
L 199.41104 233.561402 
L 199.442587 233.814588 
L 199.470722 234.040925 
L 199.638243 234.480331 
L 200.436928 235.281794 
L 202.787637 237.179145 
L 206.199743 239.860619 
L 209.097175 241.924294 
L 212.627452 244.454015 
L 213.533686 245.150787 
L 214.784089 246.19003 
L 216.369752 247.507932 
L 218.697538 249.483817 
L 219.20024 249.900802 
L 222.955105 253.014254 
L 223.062055 253.131042 
L 225.063088 255.282088 
L 226.084308 255.993272 
L 227.892971 257.253154 
L 229.761517 258.554676 
L 230.366018 258.969028 
L 232.367855 261.00302 
L 232.542177 260.98046 
L 233.533365 261.905225 
L 233.503428 262.5315 
L 236.548628 265.718065 
L 237.463657 266.675711 
L 238.110221 267.352205 
L 238.493457 267.753402 
L 240.61814 269.277317 
L 240.818461 269.410566 
L 242.382894 270.451564 
L 245.11234 272.479373 
L 245.265464 272.261471 
L 245.544189 272.430205 
L 246.910901 273.257655 
L 247.230576 273.451188 
L 248.222991 274.062646 
L 251.112775 275.843047 
L 253.517383 277.306909 
L 254.371316 277.826863 
L 255.641675 278.585852 
L 256.03935 278.823473 
L 256.579673 279.14161 
L 258.100309 280.036496 
L 259.102525 280.626379 
L 259.849953 281.070212 
L 260.054324 281.243915 
L 260.258764 281.417543 
L 265.196916 285.314379 
L 265.890241 285.861484 
L 266.215238 286.117932 
L 266.209427 286.14127 
L 266.501603 286.369614 
L 266.528272 286.361324 
L 267.589361 287.200266 
L 267.574184 287.219949 
L 267.87575 287.459879 
L 267.889508 287.441682 
L 267.97817 287.515658 
L 267.96591 287.536006 
L 268.385188 287.868057 
L 268.401859 287.846959 
L 268.502845 287.933911 
L 268.490586 287.954332 
L 268.773959 288.178357 
L 268.800834 288.169553 
L 269.862981 289.0143 
L 269.879221 289.027192 
L 269.865463 289.045389 
L 270.167809 289.284649 
L 270.182945 289.266422 
L 272.424473 291.057081 
L 276.307486 294.159227 
L 278.020897 295.488 
L 278.09019 295.403553 
L 280.947292 291.613655 
L 284.517227 287.239676 
L 284.595279 287.140561 
L 284.604975 287.128481 
L 284.671886 287.045116 
L 284.610121 286.993622 
L 286.285571 284.858016 
L 286.919256 284.050346 
L 288.040898 282.494254 
L 288.401051 281.721083 
L 288.115253 281.590014 
L 288.541148 280.70184 
L 288.716363 280.335479 
L 288.906753 279.935756 
L 290.202745 277.213798 
L 293.798902 269.666917 
L 293.928973 269.387684 
L 294.891529 267.322276 
L 295.756375 265.464534 
L 297.874516 260.914892 
L 297.954808 260.733944 
L 298.202709 260.175267 
L 297.365063 259.779727 
L 297.912577 258.47952 
L 297.999437 258.430152 
L 298.203921 258.280875 
L 298.296316 258.200446 
L 298.383734 258.114666 
L 298.465892 258.023834 
L 298.542432 257.928174 
L 298.613217 257.828127 
L 298.73625 257.616282 
L 298.788078 257.505219 
L 298.628392 257.442298 
L 298.483961 257.112513 
L 298.782299 256.334282 
L 299.135457 255.298431 
L 299.13645 255.295518 
L 301.983531 247.938401 
L 302.024247 247.833618 
L 302.038923 247.795457 
L 302.754826 245.933962 
L 301.090598 245.194053 
L 301.334871 244.560696 
L 302.239587 242.20208 
L 302.793727 240.175321 
L 304.043833 235.562764 
L 304.674315 233.223082 
L 304.910288 232.370814 
L 305.362376 230.742018 
L 305.704964 229.469502 
L 306.554567 226.370475 
L 306.894209 225.115924 
L 307.332222 223.523742 
L 307.623783 222.446969 
L 307.925244 221.334184 
L 308.231166 220.212716 
L 308.805762 218.111163 
L 308.844324 217.9699 
L 308.928175 217.686282 
L 309.122036 216.954329 
L 309.205717 216.676318 
L 309.706186 214.84093 
L 309.805501 214.476067 
L 309.855635 214.292206 
L 310.021736 213.683894 
L 310.177632 213.107381 
L 310.230219 212.912626 
L 310.335136 212.524649 
L 310.651976 211.37006 
L 310.755741 210.989239 
L 310.80042 210.825069 
L 310.965488 210.219254 
L 311.034534 209.966007 
L 311.078953 209.803298 
L 311.801677 207.153929 
L 311.950701 206.60878 
L 311.99156 206.459391 
L 312.147379 205.889211 
L 312.616653 204.168447 
L 313.052894 202.589482 
L 313.257798 201.836921 
L 313.933045 199.355279 
L 314.272328 198.108747 
L 314.619024 196.835425 
L 314.723996 196.449558 
L 314.767598 196.289196 
L 314.96215 195.574914 
L 315.14774 194.892913 
L 315.195317 194.71813 
L 315.653056 193.036984 
L 316.119011 191.322408 
L 315.674 191.195465 
L 316.113898 189.584849 
L 316.334119 188.778549 
L 316.497467 188.824737 
L 318.277273 182.290956 
L 318.420366 181.766239 
L 319.403464 178.161303 
L 319.187155 175.146591 
L 317.722798 167.97969 
L 317.675458 167.972193 
L 317.364671 166.655515 
L 317.049968 165.30516 
L 316.762921 163.937984 
L 316.102255 160.987711 
L 315.768356 159.503884 
L 315.562334 158.616737 
L 314.514784 158.057065 
L 313.570676 157.335019 
L 313.388748 156.800914 
L 313.250465 155.124136 
L 314.04084 153.37188 
L 312.914054 150.717229 
L 312.46214 149.652441 
L 312.002733 148.57006 
L 311.557589 147.496251 
L 311.119108 146.411675 
L 311.059941 146.265455 
L 310.663306 145.314957 
L 310.220459 144.253906 
L 309.780973 143.200788 
L 309.331079 142.12279 
L 308.689515 140.58541 
L 308.551134 139.163164 
L 308.188291 138.289799 
L 305.765948 132.461215 
L 305.451695 131.704976 
L 302.865097 125.481783 
L 301.750261 123.867431 
L 300.937352 121.932243 
L 300.432577 120.711075 
L 299.928452 119.503428 
L 299.426626 118.294859 
L 298.924418 117.085571 
L 298.422584 115.87693 
L 297.920675 114.668365 
L 297.420945 113.463391 
L 296.919604 112.254524 
L 296.417451 111.048586 
L 295.994972 110.034119 
L 295.611753 109.107143 
L 295.089353 107.847797 
L 294.682071 106.872079 
L 293.187203 103.289607 
L 292.940074 102.663125 
L 292.867043 102.487228 
L 292.732847 102.163993 
L 292.262562 101.040543 
L 291.520099 99.216351 
L 291.414487 98.963445 
L 291.025638 98.032302 
L 290.924023 97.793135 
L 289.31481 94.007878 
L 288.96172 93.177253 
L 287.932113 90.934683 
L 286.763825 89.158685 
L 284.912942 86.345107 
L 284.840506 86.085666 
L 284.542473 85.023852 
L 282.457848 81.855439 
L 268.480131 60.611641 
L 267.47806 59.08875 
L 264.052341 53.882735 
L 263.845239 53.568 
L 258.546176 59.111701 
L 258.03274 59.648969 
L 257.759511 59.934733 
L 254.374948 63.475496 
L 254.145109 63.715937 
L 253.931172 63.939589 
L 250.278514 67.764448 
L 248.354631 69.779347 
L 248.181675 69.960421 
L 246.464494 71.758963 
L 244.309293 71.57576 
L 244.209912 71.428458 
L 241.798607 67.855451 
L 240.226493 65.525828 
L 238.375971 65.880177 
L 236.937667 66.155589 
L 232.738811 66.959258 
L 209.219033 71.461644 
L 180.348106 77.003537 
L 180.169378 77.037788 
L 178.888792 77.283647 
L 178.516256 78.093361 
L 178.039599 79.042586 
L 177.101172 78.800581 
L 176.366885 78.851207 
L 176.142013 78.760151 
L 176.071752 78.87098 
L 173.855873 79.011731 
L 172.982353 78.879864 
L 172.89232 78.866263 
L 172.068845 78.742107 
L 171.62811 79.18339 
L 167.685971 83.129977 
L 166.730203 84.086873 
L 163.925807 86.894568 
L 161.440455 89.382699 
L 155.213919 95.616926 
L 154.925547 95.905722 
L 152.916536 97.917266 
" clip-path="url(#pf183d284c8)" style="fill: #1f77b4"/>
   </g>
   <g id="matplotlib.axis_1">
    <g id="xtick_1">
     <g id="line2d_1">
      <defs>
       <path id="m1b717340b0" d="M 0 0 
L 0 3.5 
" style="stroke: #000000; stroke-width: 0.8"/>
      </defs>
      <g>
       <use xlink:href="#m1b717340b0" x="154.13195" y="307.584" style="stroke: #000000; stroke-width: 0.8"/>
      </g>
     </g>
     <g id="text_1">
      <!-- 13.42 -->
      <g transform="translate(139.817887 322.182437) scale(0.1 -0.1)">
       <defs>
        <path id="DejaVuSans-31" d="M 794 531 
L 1825 531 
L 1825 4091 
L 703 3866 
L 703 4441 
L 1819 4666 
L 2450 4666 
L 2450 531 
L 3481 531 
L 3481 0 
L 794 0 
L 794 531 
z
" transform="scale(0.015625)"/>
        <path id="DejaVuSans-33" d="M 2597 2516 
Q 3050 2419 3304 2112 
Q 3559 1806 3559 1356 
Q 3559 666 3084 287 
Q 2609 -91 1734 -91 
Q 1441 -91 1130 -33 
Q 819 25 488 141 
L 488 750 
Q 750 597 1062 519 
Q 1375 441 1716 441 
Q 2309 441 2620 675 
Q 2931 909 2931 1356 
Q 2931 1769 2642 2001 
Q 2353 2234 1838 2234 
L 1294 2234 
L 1294 2753 
L 1863 2753 
Q 2328 2753 2575 2939 
Q 2822 3125 2822 3475 
Q 2822 3834 2567 4026 
Q 2313 4219 1838 4219 
Q 1578 4219 1281 4162 
Q 984 4106 628 3988 
L 628 4550 
Q 988 4650 1302 4700 
Q 1616 4750 1894 4750 
Q 2613 4750 3031 4423 
Q 3450 4097 3450 3541 
Q 3450 3153 3228 2886 
Q 3006 2619 2597 2516 
z
" transform="scale(0.015625)"/>
        <path id="DejaVuSans-2e" d="M 684 794 
L 1344 794 
L 1344 0 
L 684 0 
L 684 794 
z
" transform="scale(0.015625)"/>
        <path id="DejaVuSans-34" d="M 2419 4116 
L 825 1625 
L 2419 1625 
L 2419 4116 
z
M 2253 4666 
L 3047 4666 
L 3047 1625 
L 3713 1625 
L 3713 1100 
L 3047 1100 
L 3047 0 
L 2419 0 
L 2419 1100 
L 313 1100 
L 313 1709 
L 2253 4666 
z
" transform="scale(0.015625)"/>
        <path id="DejaVuSans-32" d="M 1228 531 
L 3431 531 
L 3431 0 
L 469 0 
L 469 531 
Q 828 903 1448 1529 
Q 2069 2156 2228 2338 
Q 2531 2678 2651 2914 
Q 2772 3150 2772 3378 
Q 2772 3750 2511 3984 
Q 2250 4219 1831 4219 
Q 1534 4219 1204 4116 
Q 875 4013 500 3803 
L 500 4441 
Q 881 4594 1212 4672 
Q 1544 4750 1819 4750 
Q 2544 4750 2975 4387 
Q 3406 4025 3406 3419 
Q 3406 3131 3298 2873 
Q 3191 2616 2906 2266 
Q 2828 2175 2409 1742 
Q 1991 1309 1228 531 
z
" transform="scale(0.015625)"/>
       </defs>
       <use xlink:href="#DejaVuSans-31"/>
       <use xlink:href="#DejaVuSans-33" x="63.623047"/>
       <use xlink:href="#DejaVuSans-2e" x="127.246094"/>
       <use xlink:href="#DejaVuSans-34" x="159.033203"/>
       <use xlink:href="#DejaVuSans-32" x="222.65625"/>
      </g>
     </g>
    </g>
    <g id="xtick_2">
     <g id="line2d_2">
      <g>
       <use xlink:href="#m1b717340b0" x="203.380616" y="307.584" style="stroke: #000000; stroke-width: 0.8"/>
      </g>
     </g>
     <g id="text_2">
      <!-- 13.43 -->
      <g transform="translate(189.066553 322.182437) scale(0.1 -0.1)">
       <use xlink:href="#DejaVuSans-31"/>
       <use xlink:href="#DejaVuSans-33" x="63.623047"/>
       <use xlink:href="#DejaVuSans-2e" x="127.246094"/>
       <use xlink:href="#DejaVuSans-34" x="159.033203"/>
       <use xlink:href="#DejaVuSans-33" x="222.65625"/>
      </g>
     </g>
    </g>
    <g id="xtick_3">
     <g id="line2d_3">
      <g>
       <use xlink:href="#m1b717340b0" x="252.629281" y="307.584" style="stroke: #000000; stroke-width: 0.8"/>
      </g>
     </g>
     <g id="text_3">
      <!-- 13.44 -->
      <g transform="translate(238.315219 322.182437) scale(0.1 -0.1)">
       <use xlink:href="#DejaVuSans-31"/>
       <use xlink:href="#DejaVuSans-33" x="63.623047"/>
       <use xlink:href="#DejaVuSans-2e" x="127.246094"/>
       <use xlink:href="#DejaVuSans-34" x="159.033203"/>
       <use xlink:href="#DejaVuSans-34" x="222.65625"/>
      </g>
     </g>
    </g>
    <g id="xtick_4">
     <g id="line2d_4">
      <g>
       <use xlink:href="#m1b717340b0" x="301.877947" y="307.584" style="stroke: #000000; stroke-width: 0.8"/>
      </g>
     </g>
     <g id="text_4">
      <!-- 13.45 -->
      <g transform="translate(287.563885 322.182437) scale(0.1 -0.1)">
       <defs>
        <path id="DejaVuSans-35" d="M 691 4666 
L 3169 4666 
L 3169 4134 
L 1269 4134 
L 1269 2991 
Q 1406 3038 1543 3061 
Q 1681 3084 1819 3084 
Q 2600 3084 3056 2656 
Q 3513 2228 3513 1497 
Q 3513 744 3044 326 
Q 2575 -91 1722 -91 
Q 1428 -91 1123 -41 
Q 819 9 494 109 
L 494 744 
Q 775 591 1075 516 
Q 1375 441 1709 441 
Q 2250 441 2565 725 
Q 2881 1009 2881 1497 
Q 2881 1984 2565 2268 
Q 2250 2553 1709 2553 
Q 1456 2553 1204 2497 
Q 953 2441 691 2322 
L 691 4666 
z
" transform="scale(0.015625)"/>
       </defs>
       <use xlink:href="#DejaVuSans-31"/>
       <use xlink:href="#DejaVuSans-33" x="63.623047"/>
       <use xlink:href="#DejaVuSans-2e" x="127.246094"/>
       <use xlink:href="#DejaVuSans-34" x="159.033203"/>
       <use xlink:href="#DejaVuSans-35" x="222.65625"/>
      </g>
     </g>
    </g>
   </g>
   <g id="matplotlib.axis_2">
    <g id="ytick_1">
     <g id="line2d_5">
      <defs>
       <path id="m917e94efda" d="M 0 0 
L -3.5 0 
" style="stroke: #000000; stroke-width: 0.8"/>
      </defs>
      <g>
       <use xlink:href="#m917e94efda" x="144.59219" y="304.656207" style="stroke: #000000; stroke-width: 0.8"/>
      </g>
     </g>
     <g id="text_5">
      <!-- 52.500 -->
      <g transform="translate(102.601565 308.455426) scale(0.1 -0.1)">
       <defs>
        <path id="DejaVuSans-30" d="M 2034 4250 
Q 1547 4250 1301 3770 
Q 1056 3291 1056 2328 
Q 1056 1369 1301 889 
Q 1547 409 2034 409 
Q 2525 409 2770 889 
Q 3016 1369 3016 2328 
Q 3016 3291 2770 3770 
Q 2525 4250 2034 4250 
z
M 2034 4750 
Q 2819 4750 3233 4129 
Q 3647 3509 3647 2328 
Q 3647 1150 3233 529 
Q 2819 -91 2034 -91 
Q 1250 -91 836 529 
Q 422 1150 422 2328 
Q 422 3509 836 4129 
Q 1250 4750 2034 4750 
z
" transform="scale(0.015625)"/>
       </defs>
       <use xlink:href="#DejaVuSans-35"/>
       <use xlink:href="#DejaVuSans-32" x="63.623047"/>
       <use xlink:href="#DejaVuSans-2e" x="127.246094"/>
       <use xlink:href="#DejaVuSans-35" x="159.033203"/>
       <use xlink:href="#DejaVuSans-30" x="222.65625"/>
       <use xlink:href="#DejaVuSans-30" x="286.279297"/>
      </g>
     </g>
    </g>
    <g id="ytick_2">
     <g id="line2d_6">
      <g>
       <use xlink:href="#m917e94efda" x="144.59219" y="264.191516" style="stroke: #000000; stroke-width: 0.8"/>
      </g>
     </g>
     <g id="text_6">
      <!-- 52.505 -->
      <g transform="translate(102.601565 267.990735) scale(0.1 -0.1)">
       <use xlink:href="#DejaVuSans-35"/>
       <use xlink:href="#DejaVuSans-32" x="63.623047"/>
       <use xlink:href="#DejaVuSans-2e" x="127.246094"/>
       <use xlink:href="#DejaVuSans-35" x="159.033203"/>
       <use xlink:href="#DejaVuSans-30" x="222.65625"/>
       <use xlink:href="#DejaVuSans-35" x="286.279297"/>
      </g>
     </g>
    </g>
    <g id="ytick_3">
     <g id="line2d_7">
      <g>
       <use xlink:href="#m917e94efda" x="144.59219" y="223.726825" style="stroke: #000000; stroke-width: 0.8"/>
      </g>
     </g>
     <g id="text_7">
      <!-- 52.510 -->
      <g transform="translate(102.601565 227.526044) scale(0.1 -0.1)">
       <use xlink:href="#DejaVuSans-35"/>
       <use xlink:href="#DejaVuSans-32" x="63.623047"/>
       <use xlink:href="#DejaVuSans-2e" x="127.246094"/>
       <use xlink:href="#DejaVuSans-35" x="159.033203"/>
       <use xlink:href="#DejaVuSans-31" x="222.65625"/>
       <use xlink:href="#DejaVuSans-30" x="286.279297"/>
      </g>
     </g>
    </g>
    <g id="ytick_4">
     <g id="line2d_8">
      <g>
       <use xlink:href="#m917e94efda" x="144.59219" y="183.262134" style="stroke: #000000; stroke-width: 0.8"/>
      </g>
     </g>
     <g id="text_8">
      <!-- 52.515 -->
      <g transform="translate(102.601565 187.061353) scale(0.1 -0.1)">
       <use xlink:href="#DejaVuSans-35"/>
       <use xlink:href="#DejaVuSans-32" x="63.623047"/>
       <use xlink:href="#DejaVuSans-2e" x="127.246094"/>
       <use xlink:href="#DejaVuSans-35" x="159.033203"/>
       <use xlink:href="#DejaVuSans-31" x="222.65625"/>
       <use xlink:href="#DejaVuSans-35" x="286.279297"/>
      </g>
     </g>
    </g>
    <g id="ytick_5">
     <g id="line2d_9">
      <g>
       <use xlink:href="#m917e94efda" x="144.59219" y="142.797443" style="stroke: #000000; stroke-width: 0.8"/>
      </g>
     </g>
     <g id="text_9">
      <!-- 52.520 -->
      <g transform="translate(102.601565 146.596662) scale(0.1 -0.1)">
       <use xlink:href="#DejaVuSans-35"/>
       <use xlink:href="#DejaVuSans-32" x="63.623047"/>
       <use xlink:href="#DejaVuSans-2e" x="127.246094"/>
       <use xlink:href="#DejaVuSans-35" x="159.033203"/>
       <use xlink:href="#DejaVuSans-32" x="222.65625"/>
       <use xlink:href="#DejaVuSans-30" x="286.279297"/>
      </g>
     </g>
    </g>
    <g id="ytick_6">
     <g id="line2d_10">
      <g>
       <use xlink:href="#m917e94efda" x="144.59219" y="102.332752" style="stroke: #000000; stroke-width: 0.8"/>
      </g>
     </g>
     <g id="text_10">
      <!-- 52.525 -->
      <g transform="translate(102.601565 106.131971) scale(0.1 -0.1)">
       <use xlink:href="#DejaVuSans-35"/>
       <use xlink:href="#DejaVuSans-32" x="63.623047"/>
       <use xlink:href="#DejaVuSans-2e" x="127.246094"/>
       <use xlink:href="#DejaVuSans-35" x="159.033203"/>
       <use xlink:href="#DejaVuSans-32" x="222.65625"/>
       <use xlink:href="#DejaVuSans-35" x="286.279297"/>
      </g>
     </g>
    </g>
    <g id="ytick_7">
     <g id="line2d_11">
      <g>
       <use xlink:href="#m917e94efda" x="144.59219" y="61.868061" style="stroke: #000000; stroke-width: 0.8"/>
      </g>
     </g>
     <g id="text_11">
      <!-- 52.530 -->
      <g transform="translate(102.601565 65.66728) scale(0.1 -0.1)">
       <use xlink:href="#DejaVuSans-35"/>
       <use xlink:href="#DejaVuSans-32" x="63.623047"/>
       <use xlink:href="#DejaVuSans-2e" x="127.246094"/>
       <use xlink:href="#DejaVuSans-35" x="159.033203"/>
       <use xlink:href="#DejaVuSans-33" x="222.65625"/>
       <use xlink:href="#DejaVuSans-30" x="286.279297"/>
      </g>
     </g>
    </g>
   </g>
   <g id="patch_3">
    <path d="M 144.59219 307.584 
L 144.59219 41.472 
" style="fill: none; stroke: #000000; stroke-width: 0.8; stroke-linejoin: miter; stroke-linecap: square"/>
   </g>
   <g id="patch_4">
    <path d="M 327.72781 307.584 
L 327.72781 41.472 
" style="fill: none; stroke: #000000; stroke-width: 0.8; stroke-linejoin: miter; stroke-linecap: square"/>
   </g>
   <g id="patch_5">
    <path d="M 144.59219 307.584 
L 327.72781 307.584 
" style="fill: none; stroke: #000000; stroke-width: 0.8; stroke-linejoin: miter; stroke-linecap: square"/>
   </g>
   <g id="patch_6">
    <path d="M 144.59219 41.472 
L 327.72781 41.472 
" style="fill: none; stroke: #000000; stroke-width: 0.8; stroke-linejoin: miter; stroke-linecap: square"/>
   </g>
   <g id="text_12">
    <!-- Friedrichshain_West -->
    <g transform="translate(185.770773 171.360128) scale(0.12 -0.12)">
     <defs>
      <path id="DejaVuSans-46" d="M 628 4666 
L 3309 4666 
L 3309 4134 
L 1259 4134 
L 1259 2759 
L 3109 2759 
L 3109 2228 
L 1259 2228 
L 1259 0 
L 628 0 
L 628 4666 
z
" transform="scale(0.015625)"/>
      <path id="DejaVuSans-72" d="M 2631 2963 
Q 2534 3019 2420 3045 
Q 2306 3072 2169 3072 
Q 1681 3072 1420 2755 
Q 1159 2438 1159 1844 
L 1159 0 
L 581 0 
L 581 3500 
L 1159 3500 
L 1159 2956 
Q 1341 3275 1631 3429 
Q 1922 3584 2338 3584 
Q 2397 3584 2469 3576 
Q 2541 3569 2628 3553 
L 2631 2963 
z
" transform="scale(0.015625)"/>
      <path id="DejaVuSans-69" d="M 603 3500 
L 1178 3500 
L 1178 0 
L 603 0 
L 603 3500 
z
M 603 4863 
L 1178 4863 
L 1178 4134 
L 603 4134 
L 603 4863 
z
" transform="scale(0.015625)"/>
      <path id="DejaVuSans-65" d="M 3597 1894 
L 3597 1613 
L 953 1613 
Q 991 1019 1311 708 
Q 1631 397 2203 397 
Q 2534 397 2845 478 
Q 3156 559 3463 722 
L 3463 178 
Q 3153 47 2828 -22 
Q 2503 -91 2169 -91 
Q 1331 -91 842 396 
Q 353 884 353 1716 
Q 353 2575 817 3079 
Q 1281 3584 2069 3584 
Q 2775 3584 3186 3129 
Q 3597 2675 3597 1894 
z
M 3022 2063 
Q 3016 2534 2758 2815 
Q 2500 3097 2075 3097 
Q 1594 3097 1305 2825 
Q 1016 2553 972 2059 
L 3022 2063 
z
" transform="scale(0.015625)"/>
      <path id="DejaVuSans-64" d="M 2906 2969 
L 2906 4863 
L 3481 4863 
L 3481 0 
L 2906 0 
L 2906 525 
Q 2725 213 2448 61 
Q 2172 -91 1784 -91 
Q 1150 -91 751 415 
Q 353 922 353 1747 
Q 353 2572 751 3078 
Q 1150 3584 1784 3584 
Q 2172 3584 2448 3432 
Q 2725 3281 2906 2969 
z
M 947 1747 
Q 947 1113 1208 752 
Q 1469 391 1925 391 
Q 2381 391 2643 752 
Q 2906 1113 2906 1747 
Q 2906 2381 2643 2742 
Q 2381 3103 1925 3103 
Q 1469 3103 1208 2742 
Q 947 2381 947 1747 
z
" transform="scale(0.015625)"/>
      <path id="DejaVuSans-63" d="M 3122 3366 
L 3122 2828 
Q 2878 2963 2633 3030 
Q 2388 3097 2138 3097 
Q 1578 3097 1268 2742 
Q 959 2388 959 1747 
Q 959 1106 1268 751 
Q 1578 397 2138 397 
Q 2388 397 2633 464 
Q 2878 531 3122 666 
L 3122 134 
Q 2881 22 2623 -34 
Q 2366 -91 2075 -91 
Q 1284 -91 818 406 
Q 353 903 353 1747 
Q 353 2603 823 3093 
Q 1294 3584 2113 3584 
Q 2378 3584 2631 3529 
Q 2884 3475 3122 3366 
z
" transform="scale(0.015625)"/>
      <path id="DejaVuSans-68" d="M 3513 2113 
L 3513 0 
L 2938 0 
L 2938 2094 
Q 2938 2591 2744 2837 
Q 2550 3084 2163 3084 
Q 1697 3084 1428 2787 
Q 1159 2491 1159 1978 
L 1159 0 
L 581 0 
L 581 4863 
L 1159 4863 
L 1159 2956 
Q 1366 3272 1645 3428 
Q 1925 3584 2291 3584 
Q 2894 3584 3203 3211 
Q 3513 2838 3513 2113 
z
" transform="scale(0.015625)"/>
      <path id="DejaVuSans-73" d="M 2834 3397 
L 2834 2853 
Q 2591 2978 2328 3040 
Q 2066 3103 1784 3103 
Q 1356 3103 1142 2972 
Q 928 2841 928 2578 
Q 928 2378 1081 2264 
Q 1234 2150 1697 2047 
L 1894 2003 
Q 2506 1872 2764 1633 
Q 3022 1394 3022 966 
Q 3022 478 2636 193 
Q 2250 -91 1575 -91 
Q 1294 -91 989 -36 
Q 684 19 347 128 
L 347 722 
Q 666 556 975 473 
Q 1284 391 1588 391 
Q 1994 391 2212 530 
Q 2431 669 2431 922 
Q 2431 1156 2273 1281 
Q 2116 1406 1581 1522 
L 1381 1569 
Q 847 1681 609 1914 
Q 372 2147 372 2553 
Q 372 3047 722 3315 
Q 1072 3584 1716 3584 
Q 2034 3584 2315 3537 
Q 2597 3491 2834 3397 
z
" transform="scale(0.015625)"/>
      <path id="DejaVuSans-61" d="M 2194 1759 
Q 1497 1759 1228 1600 
Q 959 1441 959 1056 
Q 959 750 1161 570 
Q 1363 391 1709 391 
Q 2188 391 2477 730 
Q 2766 1069 2766 1631 
L 2766 1759 
L 2194 1759 
z
M 3341 1997 
L 3341 0 
L 2766 0 
L 2766 531 
Q 2569 213 2275 61 
Q 1981 -91 1556 -91 
Q 1019 -91 701 211 
Q 384 513 384 1019 
Q 384 1609 779 1909 
Q 1175 2209 1959 2209 
L 2766 2209 
L 2766 2266 
Q 2766 2663 2505 2880 
Q 2244 3097 1772 3097 
Q 1472 3097 1187 3025 
Q 903 2953 641 2809 
L 641 3341 
Q 956 3463 1253 3523 
Q 1550 3584 1831 3584 
Q 2591 3584 2966 3190 
Q 3341 2797 3341 1997 
z
" transform="scale(0.015625)"/>
      <path id="DejaVuSans-6e" d="M 3513 2113 
L 3513 0 
L 2938 0 
L 2938 2094 
Q 2938 2591 2744 2837 
Q 2550 3084 2163 3084 
Q 1697 3084 1428 2787 
Q 1159 2491 1159 1978 
L 1159 0 
L 581 0 
L 581 3500 
L 1159 3500 
L 1159 2956 
Q 1366 3272 1645 3428 
Q 1925 3584 2291 3584 
Q 2894 3584 3203 3211 
Q 3513 2838 3513 2113 
z
" transform="scale(0.015625)"/>
      <path id="DejaVuSans-5f" d="M 3263 -1063 
L 3263 -1509 
L -63 -1509 
L -63 -1063 
L 3263 -1063 
z
" transform="scale(0.015625)"/>
      <path id="DejaVuSans-57" d="M 213 4666 
L 850 4666 
L 1831 722 
L 2809 4666 
L 3519 4666 
L 4500 722 
L 5478 4666 
L 6119 4666 
L 4947 0 
L 4153 0 
L 3169 4050 
L 2175 0 
L 1381 0 
L 213 4666 
z
" transform="scale(0.015625)"/>
      <path id="DejaVuSans-74" d="M 1172 4494 
L 1172 3500 
L 2356 3500 
L 2356 3053 
L 1172 3053 
L 1172 1153 
Q 1172 725 1289 603 
Q 1406 481 1766 481 
L 2356 481 
L 2356 0 
L 1766 0 
Q 1100 0 847 248 
Q 594 497 594 1153 
L 594 3053 
L 172 3053 
L 172 3500 
L 594 3500 
L 594 4494 
L 1172 4494 
z
" transform="scale(0.015625)"/>
     </defs>
     <use xlink:href="#DejaVuSans-46"/>
     <use xlink:href="#DejaVuSans-72" x="50.269531"/>
     <use xlink:href="#DejaVuSans-69" x="91.382812"/>
     <use xlink:href="#DejaVuSans-65" x="119.166016"/>
     <use xlink:href="#DejaVuSans-64" x="180.689453"/>
     <use xlink:href="#DejaVuSans-72" x="244.166016"/>
     <use xlink:href="#DejaVuSans-69" x="285.279297"/>
     <use xlink:href="#DejaVuSans-63" x="313.0625"/>
     <use xlink:href="#DejaVuSans-68" x="368.042969"/>
     <use xlink:href="#DejaVuSans-73" x="431.421875"/>
     <use xlink:href="#DejaVuSans-68" x="483.521484"/>
     <use xlink:href="#DejaVuSans-61" x="546.900391"/>
     <use xlink:href="#DejaVuSans-69" x="608.179688"/>
     <use xlink:href="#DejaVuSans-6e" x="635.962891"/>
     <use xlink:href="#DejaVuSans-5f" x="699.341797"/>
     <use xlink:href="#DejaVuSans-57" x="749.341797"/>
     <use xlink:href="#DejaVuSans-65" x="842.34375"/>
     <use xlink:href="#DejaVuSans-73" x="903.867188"/>
     <use xlink:href="#DejaVuSans-74" x="955.966797"/>
    </g>
   </g>
  </g>
 </g>
 <defs>
  <clipPath id="pf183d284c8">
   <rect x="144.59219" y="41.472" width="183.135621" height="266.112"/>
  </clipPath>
 </defs>
</svg>
