<?xml version="1.0" encoding="utf-8" standalone="no"?>
<!DOCTYPE svg PUBLIC "-//W3C//DTD SVG 1.1//EN"
  "http://www.w3.org/Graphics/SVG/1.1/DTD/svg11.dtd">
<svg xmlns:xlink="http://www.w3.org/1999/xlink" width="720pt" height="720pt" viewBox="0 0 720 720" xmlns="http://www.w3.org/2000/svg" version="1.1">
 <metadata>
  <rdf:RDF xmlns:dc="http://purl.org/dc/elements/1.1/" xmlns:cc="http://creativecommons.org/ns#" xmlns:rdf="http://www.w3.org/1999/02/22-rdf-syntax-ns#">
   <cc:Work>
    <dc:type rdf:resource="http://purl.org/dc/dcmitype/StillImage"/>
    <dc:date>2024-10-22T09:54:13.447609</dc:date>
    <dc:format>image/svg+xml</dc:format>
    <dc:creator>
     <cc:Agent>
      <dc:title>Matplotlib v3.9.2, https://matplotlib.org/</dc:title>
     </cc:Agent>
    </dc:creator>
   </cc:Work>
  </rdf:RDF>
 </metadata>
 <defs>
  <style type="text/css">*{stroke-linejoin: round; stroke-linecap: butt}</style>
 </defs>
 <g id="figure_1">
  <g id="patch_1">
   <path d="M 0 720 
L 720 720 
L 720 0 
L 0 0 
z
" style="fill: #ffffff"/>
  </g>
  <g id="axes_1">
   <g id="patch_2">
    <path d="M 178.227753 640.8 
L 559.772247 640.8 
L 559.772247 86.4 
L 178.227753 86.4 
z
" style="fill: #ffffff"/>
   </g>
   <g id="PatchCollection_1">
    <path d="M 195.570685 203.994304 
L 196.008417 204.278635 
L 202.688029 208.616779 
L 203.244813 208.978391 
L 203.382579 209.067386 
L 211.961488 214.611102 
L 213.254303 215.446834 
L 214.850704 216.478138 
L 232.745647 228.043073 
L 235.621553 229.894109 
L 236.0971 230.207802 
L 236.777125 230.639203 
L 237.700798 231.188212 
L 238.692706 231.786967 
L 239.430173 232.237881 
L 240.159964 232.676685 
L 240.927555 233.094198 
L 241.669494 233.493627 
L 242.565668 233.960929 
L 247.135946 236.278374 
L 249.946946 237.617446 
L 253.856826 239.482322 
L 254.379553 239.379332 
L 257.308059 240.628696 
L 257.688154 240.747724 
L 258.070223 240.860191 
L 258.45412 240.966251 
L 258.785223 241.064976 
L 259.119133 241.153635 
L 259.455697 241.232231 
L 259.794304 241.300474 
L 260.619672 241.461767 
L 261.44733 241.610126 
L 262.277277 241.74555 
L 263.109211 241.868047 
L 263.53437 241.917271 
L 263.960668 241.956313 
L 264.387799 241.985029 
L 264.815466 242.003577 
L 264.885371 244.084158 
L 264.900114 244.525574 
L 264.906827 244.722951 
L 264.924586 245.254345 
L 264.931144 245.451574 
L 264.943618 245.823459 
L 265.014629 247.941004 
L 264.323767 247.969439 
L 263.320714 248.01061 
L 261.247974 248.095775 
L 260.950592 248.107883 
L 259.707098 248.171443 
L 258.725343 249.761419 
L 257.105401 250.053929 
L 255.026629 250.438485 
L 258.9587 253.257474 
L 267.049022 259.056111 
L 276.315121 265.551647 
L 278.010825 266.818916 
L 280.157434 268.326018 
L 280.310252 268.433495 
L 280.700499 268.707391 
L 286.008228 272.433633 
L 286.431492 272.730763 
L 288.856351 274.433283 
L 289.383124 274.803043 
L 292.308785 276.857103 
L 292.394069 277.197839 
L 289.757487 286.088286 
L 289.578953 286.690664 
L 289.487639 286.998568 
L 284.873845 302.556418 
L 284.536372 303.694807 
L 284.304884 304.476766 
L 275.032173 304.129525 
L 274.855996 304.115939 
L 274.681182 304.095502 
L 274.507416 304.067614 
L 274.335017 304.033026 
L 274.138232 303.982751 
L 273.943973 303.923476 
L 273.752986 303.854731 
L 273.564959 303.776069 
L 269.070115 301.80972 
L 268.706571 302.624281 
L 267.147289 306.125698 
L 265.502379 309.819693 
L 265.099806 310.723789 
L 264.668121 311.693857 
L 264.56012 311.936186 
L 264.356672 312.393133 
L 264.248826 312.63561 
L 263.591721 314.110982 
L 261.620717 318.536443 
L 258.915365 324.610727 
L 262.798874 326.342217 
L 262.131846 327.894236 
L 261.612209 329.123783 
L 261.217279 330.05879 
L 263.067637 330.668831 
L 263.139475 330.453517 
L 264.855259 331.036639 
L 264.911184 331.056185 
L 267.402905 331.903712 
L 267.176572 332.552921 
L 266.873581 333.411334 
L 265.08739 338.505637 
L 264.547542 340.043506 
L 264.348773 340.541431 
L 263.875167 341.73177 
L 263.807485 341.901667 
L 263.647009 342.303708 
L 263.604975 342.408315 
L 263.467008 342.816231 
L 262.237558 346.445522 
L 261.59715 348.247238 
L 260.145425 352.328586 
L 259.66697 353.670776 
L 259.245778 354.9341 
L 258.347916 357.621436 
L 257.932736 358.862042 
L 257.853265 359.101627 
L 257.814188 359.216933 
L 257.811241 359.227457 
L 256.905871 361.937546 
L 256.334701 363.646799 
L 256.300349 363.749874 
L 256.283746 363.799959 
L 255.546242 365.961105 
L 255.179265 367.032847 
L 254.883811 367.875032 
L 254.368491 369.342944 
L 253.474121 371.890291 
L 250.839354 379.396669 
L 250.463788 380.420547 
L 250.391554 380.617225 
L 249.446612 382.736528 
L 248.25719 385.322624 
L 247.960049 385.968538 
L 243.360101 395.886252 
L 243.14304 396.34138 
L 242.529625 397.628628 
L 242.212207 398.29424 
L 241.597342 399.584249 
L 240.197678 402.255455 
L 239.802526 403.038434 
L 239.256926 404.029961 
L 237.512443 409.301241 
L 237.42707 409.449851 
L 237.372292 409.545188 
L 237.340683 409.600453 
L 236.431915 411.183408 
L 236.02838 411.886532 
L 233.536652 416.227036 
L 233.213969 416.789079 
L 233.168331 416.866632 
L 232.858791 417.393369 
L 232.564552 417.893697 
L 232.461032 418.06984 
L 232.460782 418.070266 
L 232.332579 418.288367 
L 232.061967 418.748765 
L 231.714079 419.340617 
L 231.404831 419.866742 
L 231.307283 420.032446 
L 231.359221 420.063597 
L 231.225454 420.301949 
L 229.062884 424.132431 
L 226.735085 428.130258 
L 226.645012 428.333545 
L 226.612164 428.408241 
L 229.163699 430.348365 
L 229.710724 430.256497 
L 230.772419 431.023646 
L 232.393432 432.596538 
L 235.420254 435.36655 
L 235.394762 435.397124 
L 243.288186 441.986262 
L 244.490203 443.039901 
L 248.087563 446.504202 
L 250.535409 448.861422 
L 250.889998 449.202934 
L 251.001927 449.170016 
L 256.453228 454.419734 
L 256.414493 454.460146 
L 259.847729 457.766344 
L 259.886464 457.725932 
L 277.011873 474.294581 
L 281.052982 478.204126 
L 283.584775 481.129758 
L 283.515481 481.19024 
L 284.010831 481.762905 
L 284.05758 481.729444 
L 287.021756 483.101537 
L 288.971877 483.325026 
L 289.072447 483.381952 
L 289.291194 483.50588 
L 289.297778 483.509678 
L 289.351209 483.484561 
L 289.408501 483.470122 
L 289.467544 483.466712 
L 289.526074 483.47453 
L 289.582118 483.493166 
L 289.606499 483.508854 
L 289.63355 483.52221 
L 290.658126 484.048466 
L 291.68912 484.577918 
L 291.719677 484.599535 
L 291.742484 484.612378 
L 291.787158 484.657487 
L 291.821283 484.711164 
L 291.843141 484.770869 
L 291.851615 484.833898 
L 291.846491 484.897375 
L 291.704025 485.208972 
L 291.953834 485.370879 
L 292.021072 485.428537 
L 292.050893 485.454108 
L 292.137898 485.547864 
L 292.213616 485.650962 
L 292.277257 485.761903 
L 292.327738 485.879499 
L 292.364719 486.002087 
L 292.437269 486.586255 
L 292.502994 487.113725 
L 292.561609 487.585261 
L 292.910623 488.500689 
L 294.574602 490.170404 
L 299.472065 494.12322 
L 306.580843 499.709623 
L 312.617348 504.008946 
L 319.972323 509.279199 
L 321.860369 510.730805 
L 324.465457 512.895896 
L 327.769024 515.641525 
L 332.618731 519.757952 
L 333.666059 520.626672 
L 341.488941 527.113028 
L 341.71176 527.356338 
L 345.880709 531.837683 
L 348.008317 533.319316 
L 351.776484 535.944072 
L 355.66941 538.655574 
L 356.928826 539.518809 
L 361.09945 543.756291 
L 361.462632 543.709291 
L 363.527673 545.635885 
L 363.465301 546.940625 
L 369.809666 553.579303 
L 371.716037 555.574397 
L 373.063088 556.98376 
L 373.86152 557.819587 
L 378.288083 560.99441 
L 378.705431 561.272013 
L 381.964769 563.440757 
L 387.651292 567.66536 
L 387.970311 567.211398 
L 388.551006 567.562928 
L 391.398412 569.286781 
L 392.064423 569.689975 
L 394.132018 570.963845 
L 400.15259 574.673015 
L 405.162347 577.722727 
L 406.941431 578.805965 
L 409.588093 580.387193 
L 410.41661 580.882235 
L 411.542318 581.545021 
L 414.710409 583.409366 
L 416.798425 584.638289 
L 418.355615 585.562942 
L 418.7814 585.924822 
L 419.207332 586.286547 
L 429.495469 594.404956 
L 430.939941 595.544757 
L 431.61704 596.079026 
L 431.604934 596.127645 
L 432.213653 596.603363 
L 432.269215 596.586092 
L 434.479887 598.333887 
L 434.448267 598.374894 
L 435.076549 598.874749 
L 435.105212 598.836838 
L 435.289931 598.990953 
L 435.264387 599.033345 
L 436.137912 599.725118 
L 436.172643 599.681164 
L 436.383037 599.862314 
L 436.357497 599.904857 
L 436.947875 600.371577 
L 437.003868 600.353236 
L 439.216742 602.113124 
L 439.250577 602.139983 
L 439.221914 602.177894 
L 439.851822 602.676353 
L 439.883356 602.63838 
L 444.553351 606.36892 
L 452.643216 612.831724 
L 456.212933 615.6 
L 456.357299 615.424068 
L 462.309781 607.528448 
L 469.747379 598.415992 
L 469.909992 598.209503 
L 469.930192 598.184335 
L 470.069594 598.010657 
L 469.940913 597.903378 
L 473.431543 593.4542 
L 474.751762 591.771554 
L 477.088589 588.529696 
L 477.838932 586.918922 
L 477.243501 586.645862 
L 478.13081 584.7955 
L 478.495852 584.032248 
L 478.892512 583.199491 
L 481.592579 577.528746 
L 489.084807 561.806078 
L 489.355798 561.224342 
L 491.361185 556.921408 
L 493.163004 553.051112 
L 497.575935 543.572692 
L 497.743215 543.195717 
L 498.259693 542.031806 
L 496.514541 541.207765 
L 497.655232 538.498999 
L 497.836195 538.396151 
L 498.262218 538.085157 
L 498.454713 537.917595 
L 498.63684 537.738888 
L 498.808008 537.549654 
L 498.96747 537.350363 
L 499.114944 537.141932 
L 499.371271 536.700587 
L 499.479248 536.469207 
L 499.146559 536.33812 
L 498.845651 535.65107 
L 499.46721 534.029753 
L 500.202977 531.871732 
L 500.205047 531.865662 
L 506.136651 516.538335 
L 506.221479 516.320037 
L 506.252055 516.240536 
L 507.743567 512.362421 
L 504.276316 510.820944 
L 504.785233 509.50145 
L 506.670119 504.587667 
L 507.824613 500.365251 
L 510.429082 490.755759 
L 511.742628 485.88142 
L 512.234253 484.105863 
L 513.176133 480.712538 
L 513.889879 478.061463 
L 515.659942 471.605156 
L 516.367551 468.991507 
L 517.280106 465.674463 
L 517.887545 463.431186 
L 518.515609 461.112882 
L 519.152966 458.776492 
L 520.350077 454.398257 
L 520.430418 454.103958 
L 520.605113 453.513088 
L 521.009003 451.988186 
L 521.183344 451.408996 
L 522.22602 447.585271 
L 522.432932 446.825139 
L 522.537383 446.442096 
L 522.883437 445.17478 
L 523.208229 443.973711 
L 523.317789 443.567971 
L 523.536374 442.759686 
L 524.196478 440.354292 
L 524.412662 439.560915 
L 524.505745 439.218894 
L 524.849649 437.95678 
L 524.993498 437.429181 
L 525.086041 437.090204 
L 526.591763 431.570685 
L 526.90224 430.434959 
L 526.987364 430.123731 
L 527.311998 428.935857 
L 528.289684 425.350931 
L 529.198546 422.061421 
L 529.625442 420.493584 
L 531.032252 415.323497 
L 531.739114 412.726556 
L 532.46142 410.073802 
L 532.680118 409.269913 
L 532.770959 408.935825 
L 533.176288 407.447736 
L 533.562947 406.026901 
L 533.662067 405.662772 
L 534.61572 402.160382 
L 535.586491 398.58835 
L 534.659356 398.323885 
L 535.575838 394.968435 
L 536.034646 393.288645 
L 536.374965 393.38487 
L 540.08301 379.772825 
L 540.381131 378.679665 
L 542.429315 371.169382 
L 541.978657 364.888732 
L 538.927818 349.957687 
L 538.82919 349.942069 
L 538.181697 347.198991 
L 537.526046 344.38575 
L 536.928012 341.537467 
L 535.55158 335.391066 
L 534.855937 332.299759 
L 534.426711 330.451536 
L 532.244246 329.285551 
L 530.277294 327.78129 
L 529.898265 326.668571 
L 529.610166 323.175283 
L 531.256833 319.524751 
L 528.909288 313.994227 
L 527.967771 311.775919 
L 527.010644 309.520959 
L 526.083231 307.283856 
L 525.169699 305.024324 
L 525.046431 304.719699 
L 524.220081 302.739494 
L 523.297455 300.528972 
L 522.38183 298.334975 
L 521.444523 296.089146 
L 520.107889 292.886272 
L 519.819585 289.923258 
L 519.063641 288.103748 
L 514.016934 275.960865 
L 513.36222 274.385367 
L 507.973305 261.420382 
L 505.650657 258.057148 
L 503.957044 254.025507 
L 502.905397 251.481407 
L 501.855102 248.965475 
L 500.809599 246.447622 
L 499.7633 243.928272 
L 498.717779 241.410271 
L 497.672103 238.892427 
L 496.630967 236.382066 
L 495.586473 233.863592 
L 494.540288 231.35122 
L 493.660096 229.237749 
L 492.861699 227.306547 
L 491.773331 224.682911 
L 490.924801 222.650165 
L 487.810394 215.186681 
L 487.295527 213.881511 
L 487.143374 213.515059 
L 486.863788 212.841653 
L 485.883998 210.501131 
L 484.337151 206.700732 
L 484.117121 206.173844 
L 483.306992 204.233963 
L 483.095288 203.735698 
L 479.742656 195.849745 
L 479.00703 194.119277 
L 476.861948 189.447257 
L 474.427937 185.747261 
L 470.571811 179.885639 
L 470.420897 179.345137 
L 469.799976 177.133025 
L 465.45687 170.532165 
L 436.335715 126.274251 
L 434.248002 123.101562 
L 427.110863 112.255697 
L 426.679387 111.6 
L 415.639327 123.149378 
L 414.569635 124.268686 
L 414.00039 124.864027 
L 406.948997 132.240617 
L 406.470151 132.741536 
L 406.024436 133.207478 
L 398.414492 141.175933 
L 394.406277 145.37364 
L 394.04594 145.750877 
L 390.468369 149.497839 
L 385.978225 149.116166 
L 385.771176 148.809288 
L 380.747467 141.365522 
L 377.472126 136.512141 
L 373.616752 137.250369 
L 370.620191 137.824144 
L 361.8723 139.498454 
L 312.871227 148.878426 
L 252.721579 160.424035 
L 252.349217 160.495391 
L 249.681246 161.007598 
L 248.905106 162.694502 
L 247.91204 164.672054 
L 245.956921 164.167877 
L 244.427109 164.273349 
L 243.95861 164.083649 
L 243.812228 164.314542 
L 239.19567 164.607773 
L 237.375779 164.333049 
L 237.188205 164.304714 
L 235.472578 164.046055 
L 234.554351 164.965395 
L 226.341305 173.187452 
L 224.350059 175.180986 
L 218.507384 181.030351 
L 213.329406 186.213956 
L 200.357049 199.20193 
L 199.756255 199.803588 
L 195.570685 203.994304 
" clip-path="url(#p5db9688e04)" style="fill: #d3d3d3"/>
   </g>
   <g id="matplotlib.axis_1">
    <g id="xtick_1">
     <g id="line2d_1">
      <defs>
       <path id="m0a5b037287" d="M 0 0 
L 0 3.5 
" style="stroke: #000000; stroke-width: 0.8"/>
      </defs>
      <g>
       <use xlink:href="#m0a5b037287" x="198.102876" y="640.8" style="stroke: #000000; stroke-width: 0.8"/>
      </g>
     </g>
     <g id="text_1">
      <!-- 13.420 -->
      <g transform="translate(180.607563 655.398438) scale(0.1 -0.1)">
       <defs>
        <path id="DejaVuSans-31" d="M 794 531 
L 1825 531 
L 1825 4091 
L 703 3866 
L 703 4441 
L 1819 4666 
L 2450 4666 
L 2450 531 
L 3481 531 
L 3481 0 
L 794 0 
L 794 531 
z
" transform="scale(0.015625)"/>
        <path id="DejaVuSans-33" d="M 2597 2516 
Q 3050 2419 3304 2112 
Q 3559 1806 3559 1356 
Q 3559 666 3084 287 
Q 2609 -91 1734 -91 
Q 1441 -91 1130 -33 
Q 819 25 488 141 
L 488 750 
Q 750 597 1062 519 
Q 1375 441 1716 441 
Q 2309 441 2620 675 
Q 2931 909 2931 1356 
Q 2931 1769 2642 2001 
Q 2353 2234 1838 2234 
L 1294 2234 
L 1294 2753 
L 1863 2753 
Q 2328 2753 2575 2939 
Q 2822 3125 2822 3475 
Q 2822 3834 2567 4026 
Q 2313 4219 1838 4219 
Q 1578 4219 1281 4162 
Q 984 4106 628 3988 
L 628 4550 
Q 988 4650 1302 4700 
Q 1616 4750 1894 4750 
Q 2613 4750 3031 4423 
Q 3450 4097 3450 3541 
Q 3450 3153 3228 2886 
Q 3006 2619 2597 2516 
z
" transform="scale(0.015625)"/>
        <path id="DejaVuSans-2e" d="M 684 794 
L 1344 794 
L 1344 0 
L 684 0 
L 684 794 
z
" transform="scale(0.015625)"/>
        <path id="DejaVuSans-34" d="M 2419 4116 
L 825 1625 
L 2419 1625 
L 2419 4116 
z
M 2253 4666 
L 3047 4666 
L 3047 1625 
L 3713 1625 
L 3713 1100 
L 3047 1100 
L 3047 0 
L 2419 0 
L 2419 1100 
L 313 1100 
L 313 1709 
L 2253 4666 
z
" transform="scale(0.015625)"/>
        <path id="DejaVuSans-32" d="M 1228 531 
L 3431 531 
L 3431 0 
L 469 0 
L 469 531 
Q 828 903 1448 1529 
Q 2069 2156 2228 2338 
Q 2531 2678 2651 2914 
Q 2772 3150 2772 3378 
Q 2772 3750 2511 3984 
Q 2250 4219 1831 4219 
Q 1534 4219 1204 4116 
Q 875 4013 500 3803 
L 500 4441 
Q 881 4594 1212 4672 
Q 1544 4750 1819 4750 
Q 2544 4750 2975 4387 
Q 3406 4025 3406 3419 
Q 3406 3131 3298 2873 
Q 3191 2616 2906 2266 
Q 2828 2175 2409 1742 
Q 1991 1309 1228 531 
z
" transform="scale(0.015625)"/>
        <path id="DejaVuSans-30" d="M 2034 4250 
Q 1547 4250 1301 3770 
Q 1056 3291 1056 2328 
Q 1056 1369 1301 889 
Q 1547 409 2034 409 
Q 2525 409 2770 889 
Q 3016 1369 3016 2328 
Q 3016 3291 2770 3770 
Q 2525 4250 2034 4250 
z
M 2034 4750 
Q 2819 4750 3233 4129 
Q 3647 3509 3647 2328 
Q 3647 1150 3233 529 
Q 2819 -91 2034 -91 
Q 1250 -91 836 529 
Q 422 1150 422 2328 
Q 422 3509 836 4129 
Q 1250 4750 2034 4750 
z
" transform="scale(0.015625)"/>
       </defs>
       <use xlink:href="#DejaVuSans-31"/>
       <use xlink:href="#DejaVuSans-33" x="63.623047"/>
       <use xlink:href="#DejaVuSans-2e" x="127.246094"/>
       <use xlink:href="#DejaVuSans-34" x="159.033203"/>
       <use xlink:href="#DejaVuSans-32" x="222.65625"/>
       <use xlink:href="#DejaVuSans-30" x="286.279297"/>
      </g>
     </g>
    </g>
    <g id="xtick_2">
     <g id="line2d_2">
      <g>
       <use xlink:href="#m0a5b037287" x="249.405176" y="640.8" style="stroke: #000000; stroke-width: 0.8"/>
      </g>
     </g>
     <g id="text_2">
      <!-- 13.425 -->
      <g transform="translate(231.909864 655.398438) scale(0.1 -0.1)">
       <defs>
        <path id="DejaVuSans-35" d="M 691 4666 
L 3169 4666 
L 3169 4134 
L 1269 4134 
L 1269 2991 
Q 1406 3038 1543 3061 
Q 1681 3084 1819 3084 
Q 2600 3084 3056 2656 
Q 3513 2228 3513 1497 
Q 3513 744 3044 326 
Q 2575 -91 1722 -91 
Q 1428 -91 1123 -41 
Q 819 9 494 109 
L 494 744 
Q 775 591 1075 516 
Q 1375 441 1709 441 
Q 2250 441 2565 725 
Q 2881 1009 2881 1497 
Q 2881 1984 2565 2268 
Q 2250 2553 1709 2553 
Q 1456 2553 1204 2497 
Q 953 2441 691 2322 
L 691 4666 
z
" transform="scale(0.015625)"/>
       </defs>
       <use xlink:href="#DejaVuSans-31"/>
       <use xlink:href="#DejaVuSans-33" x="63.623047"/>
       <use xlink:href="#DejaVuSans-2e" x="127.246094"/>
       <use xlink:href="#DejaVuSans-34" x="159.033203"/>
       <use xlink:href="#DejaVuSans-32" x="222.65625"/>
       <use xlink:href="#DejaVuSans-35" x="286.279297"/>
      </g>
     </g>
    </g>
    <g id="xtick_3">
     <g id="line2d_3">
      <g>
       <use xlink:href="#m0a5b037287" x="300.707477" y="640.8" style="stroke: #000000; stroke-width: 0.8"/>
      </g>
     </g>
     <g id="text_3">
      <!-- 13.430 -->
      <g transform="translate(283.212164 655.398438) scale(0.1 -0.1)">
       <use xlink:href="#DejaVuSans-31"/>
       <use xlink:href="#DejaVuSans-33" x="63.623047"/>
       <use xlink:href="#DejaVuSans-2e" x="127.246094"/>
       <use xlink:href="#DejaVuSans-34" x="159.033203"/>
       <use xlink:href="#DejaVuSans-33" x="222.65625"/>
       <use xlink:href="#DejaVuSans-30" x="286.279297"/>
      </g>
     </g>
    </g>
    <g id="xtick_4">
     <g id="line2d_4">
      <g>
       <use xlink:href="#m0a5b037287" x="352.009777" y="640.8" style="stroke: #000000; stroke-width: 0.8"/>
      </g>
     </g>
     <g id="text_4">
      <!-- 13.435 -->
      <g transform="translate(334.514465 655.398438) scale(0.1 -0.1)">
       <use xlink:href="#DejaVuSans-31"/>
       <use xlink:href="#DejaVuSans-33" x="63.623047"/>
       <use xlink:href="#DejaVuSans-2e" x="127.246094"/>
       <use xlink:href="#DejaVuSans-34" x="159.033203"/>
       <use xlink:href="#DejaVuSans-33" x="222.65625"/>
       <use xlink:href="#DejaVuSans-35" x="286.279297"/>
      </g>
     </g>
    </g>
    <g id="xtick_5">
     <g id="line2d_5">
      <g>
       <use xlink:href="#m0a5b037287" x="403.312078" y="640.8" style="stroke: #000000; stroke-width: 0.8"/>
      </g>
     </g>
     <g id="text_5">
      <!-- 13.440 -->
      <g transform="translate(385.816765 655.398438) scale(0.1 -0.1)">
       <use xlink:href="#DejaVuSans-31"/>
       <use xlink:href="#DejaVuSans-33" x="63.623047"/>
       <use xlink:href="#DejaVuSans-2e" x="127.246094"/>
       <use xlink:href="#DejaVuSans-34" x="159.033203"/>
       <use xlink:href="#DejaVuSans-34" x="222.65625"/>
       <use xlink:href="#DejaVuSans-30" x="286.279297"/>
      </g>
     </g>
    </g>
    <g id="xtick_6">
     <g id="line2d_6">
      <g>
       <use xlink:href="#m0a5b037287" x="454.614378" y="640.8" style="stroke: #000000; stroke-width: 0.8"/>
      </g>
     </g>
     <g id="text_6">
      <!-- 13.445 -->
      <g transform="translate(437.119066 655.398438) scale(0.1 -0.1)">
       <use xlink:href="#DejaVuSans-31"/>
       <use xlink:href="#DejaVuSans-33" x="63.623047"/>
       <use xlink:href="#DejaVuSans-2e" x="127.246094"/>
       <use xlink:href="#DejaVuSans-34" x="159.033203"/>
       <use xlink:href="#DejaVuSans-34" x="222.65625"/>
       <use xlink:href="#DejaVuSans-35" x="286.279297"/>
      </g>
     </g>
    </g>
    <g id="xtick_7">
     <g id="line2d_7">
      <g>
       <use xlink:href="#m0a5b037287" x="505.916679" y="640.8" style="stroke: #000000; stroke-width: 0.8"/>
      </g>
     </g>
     <g id="text_7">
      <!-- 13.450 -->
      <g transform="translate(488.421366 655.398438) scale(0.1 -0.1)">
       <use xlink:href="#DejaVuSans-31"/>
       <use xlink:href="#DejaVuSans-33" x="63.623047"/>
       <use xlink:href="#DejaVuSans-2e" x="127.246094"/>
       <use xlink:href="#DejaVuSans-34" x="159.033203"/>
       <use xlink:href="#DejaVuSans-35" x="222.65625"/>
       <use xlink:href="#DejaVuSans-30" x="286.279297"/>
      </g>
     </g>
    </g>
    <g id="xtick_8">
     <g id="line2d_8">
      <g>
       <use xlink:href="#m0a5b037287" x="557.218979" y="640.8" style="stroke: #000000; stroke-width: 0.8"/>
      </g>
     </g>
     <g id="text_8">
      <!-- 13.455 -->
      <g transform="translate(539.723667 655.398438) scale(0.1 -0.1)">
       <use xlink:href="#DejaVuSans-31"/>
       <use xlink:href="#DejaVuSans-33" x="63.623047"/>
       <use xlink:href="#DejaVuSans-2e" x="127.246094"/>
       <use xlink:href="#DejaVuSans-34" x="159.033203"/>
       <use xlink:href="#DejaVuSans-35" x="222.65625"/>
       <use xlink:href="#DejaVuSans-35" x="286.279297"/>
      </g>
     </g>
    </g>
   </g>
   <g id="matplotlib.axis_2">
    <g id="ytick_1">
     <g id="line2d_9">
      <defs>
       <path id="m6ced264ffe" d="M 0 0 
L -3.5 0 
" style="stroke: #000000; stroke-width: 0.8"/>
      </defs>
      <g>
       <use xlink:href="#m6ced264ffe" x="178.227753" y="634.700431" style="stroke: #000000; stroke-width: 0.8"/>
      </g>
     </g>
     <g id="text_9">
      <!-- 52.500 -->
      <g transform="translate(136.237128 638.49965) scale(0.1 -0.1)">
       <use xlink:href="#DejaVuSans-35"/>
       <use xlink:href="#DejaVuSans-32" x="63.623047"/>
       <use xlink:href="#DejaVuSans-2e" x="127.246094"/>
       <use xlink:href="#DejaVuSans-35" x="159.033203"/>
       <use xlink:href="#DejaVuSans-30" x="222.65625"/>
       <use xlink:href="#DejaVuSans-30" x="286.279297"/>
      </g>
     </g>
    </g>
    <g id="ytick_2">
     <g id="line2d_10">
      <g>
       <use xlink:href="#m6ced264ffe" x="178.227753" y="550.398991" style="stroke: #000000; stroke-width: 0.8"/>
      </g>
     </g>
     <g id="text_10">
      <!-- 52.505 -->
      <g transform="translate(136.237128 554.19821) scale(0.1 -0.1)">
       <use xlink:href="#DejaVuSans-35"/>
       <use xlink:href="#DejaVuSans-32" x="63.623047"/>
       <use xlink:href="#DejaVuSans-2e" x="127.246094"/>
       <use xlink:href="#DejaVuSans-35" x="159.033203"/>
       <use xlink:href="#DejaVuSans-30" x="222.65625"/>
       <use xlink:href="#DejaVuSans-35" x="286.279297"/>
      </g>
     </g>
    </g>
    <g id="ytick_3">
     <g id="line2d_11">
      <g>
       <use xlink:href="#m6ced264ffe" x="178.227753" y="466.097552" style="stroke: #000000; stroke-width: 0.8"/>
      </g>
     </g>
     <g id="text_11">
      <!-- 52.510 -->
      <g transform="translate(136.237128 469.896771) scale(0.1 -0.1)">
       <use xlink:href="#DejaVuSans-35"/>
       <use xlink:href="#DejaVuSans-32" x="63.623047"/>
       <use xlink:href="#DejaVuSans-2e" x="127.246094"/>
       <use xlink:href="#DejaVuSans-35" x="159.033203"/>
       <use xlink:href="#DejaVuSans-31" x="222.65625"/>
       <use xlink:href="#DejaVuSans-30" x="286.279297"/>
      </g>
     </g>
    </g>
    <g id="ytick_4">
     <g id="line2d_12">
      <g>
       <use xlink:href="#m6ced264ffe" x="178.227753" y="381.796112" style="stroke: #000000; stroke-width: 0.8"/>
      </g>
     </g>
     <g id="text_12">
      <!-- 52.515 -->
      <g transform="translate(136.237128 385.595331) scale(0.1 -0.1)">
       <use xlink:href="#DejaVuSans-35"/>
       <use xlink:href="#DejaVuSans-32" x="63.623047"/>
       <use xlink:href="#DejaVuSans-2e" x="127.246094"/>
       <use xlink:href="#DejaVuSans-35" x="159.033203"/>
       <use xlink:href="#DejaVuSans-31" x="222.65625"/>
       <use xlink:href="#DejaVuSans-35" x="286.279297"/>
      </g>
     </g>
    </g>
    <g id="ytick_5">
     <g id="line2d_13">
      <g>
       <use xlink:href="#m6ced264ffe" x="178.227753" y="297.494673" style="stroke: #000000; stroke-width: 0.8"/>
      </g>
     </g>
     <g id="text_13">
      <!-- 52.520 -->
      <g transform="translate(136.237128 301.293892) scale(0.1 -0.1)">
       <use xlink:href="#DejaVuSans-35"/>
       <use xlink:href="#DejaVuSans-32" x="63.623047"/>
       <use xlink:href="#DejaVuSans-2e" x="127.246094"/>
       <use xlink:href="#DejaVuSans-35" x="159.033203"/>
       <use xlink:href="#DejaVuSans-32" x="222.65625"/>
       <use xlink:href="#DejaVuSans-30" x="286.279297"/>
      </g>
     </g>
    </g>
    <g id="ytick_6">
     <g id="line2d_14">
      <g>
       <use xlink:href="#m6ced264ffe" x="178.227753" y="213.193233" style="stroke: #000000; stroke-width: 0.8"/>
      </g>
     </g>
     <g id="text_14">
      <!-- 52.525 -->
      <g transform="translate(136.237128 216.992452) scale(0.1 -0.1)">
       <use xlink:href="#DejaVuSans-35"/>
       <use xlink:href="#DejaVuSans-32" x="63.623047"/>
       <use xlink:href="#DejaVuSans-2e" x="127.246094"/>
       <use xlink:href="#DejaVuSans-35" x="159.033203"/>
       <use xlink:href="#DejaVuSans-32" x="222.65625"/>
       <use xlink:href="#DejaVuSans-35" x="286.279297"/>
      </g>
     </g>
    </g>
    <g id="ytick_7">
     <g id="line2d_15">
      <g>
       <use xlink:href="#m6ced264ffe" x="178.227753" y="128.891794" style="stroke: #000000; stroke-width: 0.8"/>
      </g>
     </g>
     <g id="text_15">
      <!-- 52.530 -->
      <g transform="translate(136.237128 132.691012) scale(0.1 -0.1)">
       <use xlink:href="#DejaVuSans-35"/>
       <use xlink:href="#DejaVuSans-32" x="63.623047"/>
       <use xlink:href="#DejaVuSans-2e" x="127.246094"/>
       <use xlink:href="#DejaVuSans-35" x="159.033203"/>
       <use xlink:href="#DejaVuSans-33" x="222.65625"/>
       <use xlink:href="#DejaVuSans-30" x="286.279297"/>
      </g>
     </g>
    </g>
   </g>
   <g id="LineCollection_1">
    <path d="M 425.641917 365.40454 
L 422.788483 366.807316 
L 420.783589 367.793643 
L 419.012634 368.66532 
L 418.281063 368.960375 
L 417.346335 369.021072 
L 415.760068 368.79683 
L 413.505845 368.442764 
L 408.514131 367.62504 
L 408.186822 367.571087 
L 405.971589 367.186673 
" clip-path="url(#p5db9688e04)" style="fill: none; stroke: #ff0000; stroke-opacity: 0.7; stroke-width: 0.5"/>
    <path d="M 506.342488 541.587805 
L 506.372243 540.763337 
L 506.379425 540.323283 
L 506.360956 539.702825 
L 506.316837 538.706382 
L 506.272717 537.527848 
L 506.164982 536.688205 
L 505.829465 535.806412 
L 505.179978 534.892585 
L 504.184713 534.191197 
L 501.6709 533.226788 
L 490.878948 528.961135 
L 487.533012 527.676381 
L 486.082183 527.270048 
" clip-path="url(#p5db9688e04)" style="fill: none; stroke: #ff0000; stroke-opacity: 0.7; stroke-width: 0.5"/>
    <path d="M 422.520685 533.429112 
L 413.339625 528.081028 
L 412.415158 527.548243 
L 404.423286 522.935268 
" clip-path="url(#p5db9688e04)" style="fill: none; stroke: #ff0000; stroke-opacity: 0.7; stroke-width: 0.5"/>
    <path d="M 404.368905 504.375464 
L 400.638202 510.993127 
L 400.284216 511.601783 
L 399.715786 512.574622 
L 396.26622 518.47235 
" clip-path="url(#p5db9688e04)" style="fill: none; stroke: #ff0000; stroke-opacity: 0.7; stroke-width: 0.5"/>
    <path d="M 424.474277 510.182147 
L 423.775539 510.01523 
L 423.254308 509.893836 
L 422.734103 509.76907 
L 422.213897 509.644303 
L 421.694718 509.517851 
L 420.942626 509.315528 
L 414.52163 507.403571 
" clip-path="url(#p5db9688e04)" style="fill: none; stroke: #ff0000; stroke-opacity: 0.7; stroke-width: 0.5"/>
    <path d="M 457.281072 553.582214 
L 455.557314 552.594201 
L 446.672782 547.50408 
" clip-path="url(#p5db9688e04)" style="fill: none; stroke: #ff0000; stroke-opacity: 0.7; stroke-width: 0.5"/>
    <path d="M 445.926847 573.752176 
L 445.099853 575.234196 
" clip-path="url(#p5db9688e04)" style="fill: none; stroke: #ff0000; stroke-opacity: 0.7; stroke-width: 0.5"/>
    <path d="M 517.185742 374.760314 
L 520.439334 378.985502 
L 523.804765 383.43999 
" clip-path="url(#p5db9688e04)" style="fill: none; stroke: #ff0000; stroke-opacity: 0.7; stroke-width: 0.5"/>
    <path d="M 430.620292 362.985089 
L 432.738051 361.951553 
L 435.083592 360.805054 
L 435.431422 360.634765 
L 436.920215 360.334652 
L 437.990381 360.255408 
L 439.144682 360.430755 
" clip-path="url(#p5db9688e04)" style="fill: none; stroke: #ff0000; stroke-opacity: 0.7; stroke-width: 0.5"/>
    <path d="M 506.629781 371.330932 
L 511.161826 372.052552 
L 515.078243 372.679755 
L 515.998607 373.231086 
L 517.185742 374.760314 
" clip-path="url(#p5db9688e04)" style="fill: none; stroke: #ff0000; stroke-opacity: 0.7; stroke-width: 0.5"/>
    <path d="M 464.310513 364.55141 
L 466.264105 364.870069 
L 472.752819 365.868198 
L 473.104753 365.915407 
L 476.643586 366.476855 
L 479.710437 366.974233 
L 485.591733 367.930212 
" clip-path="url(#p5db9688e04)" style="fill: none; stroke: #ff0000; stroke-opacity: 0.7; stroke-width: 0.5"/>
    <path d="M 227.13177 198.37304 
L 225.951817 199.812909 
L 220.215193 207.882243 
L 220.045896 208.627467 
L 220.145422 209.256356 
" clip-path="url(#p5db9688e04)" style="fill: none; stroke: #ff0000; stroke-opacity: 0.7; stroke-width: 0.5"/>
    <path d="M 411.141835 553.123614 
L 410.203003 554.668016 
" clip-path="url(#p5db9688e04)" style="fill: none; stroke: #ff0000; stroke-opacity: 0.7; stroke-width: 0.5"/>
    <path d="M 458.938136 363.671303 
L 459.507592 363.764034 
L 464.310513 364.55141 
" clip-path="url(#p5db9688e04)" style="fill: none; stroke: #ff0000; stroke-opacity: 0.7; stroke-width: 0.5"/>
    <path d="M 396.26622 518.47235 
L 390.367481 528.384514 
" clip-path="url(#p5db9688e04)" style="fill: none; stroke: #ff0000; stroke-opacity: 0.7; stroke-width: 0.5"/>
    <path d="M 430.967096 518.755603 
L 430.258098 520.033613 
L 429.331578 521.640398 
L 428.555888 522.984163 
" clip-path="url(#p5db9688e04)" style="fill: none; stroke: #ff0000; stroke-opacity: 0.7; stroke-width: 0.5"/>
    <path d="M 404.423286 522.935268 
L 396.26622 518.47235 
" clip-path="url(#p5db9688e04)" style="fill: none; stroke: #ff0000; stroke-opacity: 0.7; stroke-width: 0.5"/>
    <path d="M 439.144682 360.430755 
L 440.028108 360.575754 
L 443.756759 361.186096 
L 444.986988 361.386734 
L 447.56852 361.809927 
L 447.868126 361.858822 
L 453.200487 362.732185 
" clip-path="url(#p5db9688e04)" style="fill: none; stroke: #ff0000; stroke-opacity: 0.7; stroke-width: 0.5"/>
    <path d="M 446.672782 547.50408 
L 450.023848 541.525422 
L 453.094804 536.018852 
L 457.262603 528.576721 
" clip-path="url(#p5db9688e04)" style="fill: none; stroke: #ff0000; stroke-opacity: 0.7; stroke-width: 0.5"/>
    <path d="M 492.332855 541.361877 
L 489.808782 541.333215 
L 480.459451 541.481585 
" clip-path="url(#p5db9688e04)" style="fill: none; stroke: #ff0000; stroke-opacity: 0.7; stroke-width: 0.5"/>
    <path d="M 456.354552 555.20586 
L 455.312089 557.030143 
L 454.403013 558.620068 
" clip-path="url(#p5db9688e04)" style="fill: none; stroke: #ff0000; stroke-opacity: 0.7; stroke-width: 0.5"/>
    <path d="M 446.672782 547.50408 
L 444.009167 552.127171 
L 443.522821 552.973557 
L 442.690697 554.416798 
L 440.612954 558.0249 
L 440.395433 558.40257 
L 439.827003 559.388897 
L 439.091328 560.666907 
L 436.377436 565.377671 
" clip-path="url(#p5db9688e04)" style="fill: none; stroke: #ff0000; stroke-opacity: 0.7; stroke-width: 0.5"/>
    <path d="M 486.082183 527.270048 
L 465.223694 521.611736 
" clip-path="url(#p5db9688e04)" style="fill: none; stroke: #ff0000; stroke-opacity: 0.7; stroke-width: 0.5"/>
    <path d="M 451.198671 564.298613 
L 450.418876 565.696331 
" clip-path="url(#p5db9688e04)" style="fill: none; stroke: #ff0000; stroke-opacity: 0.7; stroke-width: 0.5"/>
    <path d="M 454.403013 558.620068 
L 452.750053 561.516665 
L 452.399145 562.145554 
L 452.12006 562.646305 
" clip-path="url(#p5db9688e04)" style="fill: none; stroke: #ff0000; stroke-opacity: 0.7; stroke-width: 0.5"/>
    <path d="M 480.459451 541.481585 
L 477.398756 541.537224 
L 472.109489 541.631642 
" clip-path="url(#p5db9688e04)" style="fill: none; stroke: #ff0000; stroke-opacity: 0.7; stroke-width: 0.5"/>
    <path d="M 472.109489 541.631642 
L 470.205147 541.656932 
L 468.87847 541.781698 
L 467.67697 542.075067 
L 466.821247 542.368436 
L 465.646425 542.933256 
L 464.990781 543.295752 
" clip-path="url(#p5db9688e04)" style="fill: none; stroke: #ff0000; stroke-opacity: 0.7; stroke-width: 0.5"/>
    <path d="M 461.308302 546.875191 
L 460.875311 547.524312 
L 458.141924 552.113683 
" clip-path="url(#p5db9688e04)" style="fill: none; stroke: #ff0000; stroke-opacity: 0.7; stroke-width: 0.5"/>
    <path d="M 458.141924 552.113683 
L 457.281072 553.582214 
L 456.66647 554.6579 
L 456.354552 555.20586 
" clip-path="url(#p5db9688e04)" style="fill: none; stroke: #ff0000; stroke-opacity: 0.7; stroke-width: 0.5"/>
    <path d="M 452.12006 562.646305 
L 451.431583 563.882164 
L 451.198671 564.298613 
" clip-path="url(#p5db9688e04)" style="fill: none; stroke: #ff0000; stroke-opacity: 0.7; stroke-width: 0.5"/>
    <path d="M 450.418876 565.696331 
L 448.244685 569.597801 
L 447.421796 571.073076 
L 446.789751 572.20103 
L 445.926847 573.752176 
" clip-path="url(#p5db9688e04)" style="fill: none; stroke: #ff0000; stroke-opacity: 0.7; stroke-width: 0.5"/>
    <path d="M 464.990781 543.295752 
L 464.571129 543.543598 
L 463.775943 544.160685 
L 462.28202 545.642704 
L 461.308302 546.875191 
" clip-path="url(#p5db9688e04)" style="fill: none; stroke: #ff0000; stroke-opacity: 0.7; stroke-width: 0.5"/>
    <path d="M 430.620292 362.985089 
L 427.431341 364.522747 
L 425.641917 365.40454 
" clip-path="url(#p5db9688e04)" style="fill: none; stroke: #ff0000; stroke-opacity: 0.7; stroke-width: 0.5"/>
    <path d="M 414.52163 507.403571 
L 406.205527 504.889702 
L 404.368905 504.375464 
" clip-path="url(#p5db9688e04)" style="fill: none; stroke: #ff0000; stroke-opacity: 0.7; stroke-width: 0.5"/>
    <path d="M 414.861252 546.68467 
L 412.414132 550.919974 
L 412.005766 551.62642 
L 411.141835 553.123614 
" clip-path="url(#p5db9688e04)" style="fill: none; stroke: #ff0000; stroke-opacity: 0.7; stroke-width: 0.5"/>
    <path d="M 457.262603 528.576721 
L 460.913275 522.056847 
L 461.622272 520.792326 
" clip-path="url(#p5db9688e04)" style="fill: none; stroke: #ff0000; stroke-opacity: 0.7; stroke-width: 0.5"/>
    <path d="M 465.223694 521.611736 
L 461.622272 520.792326 
" clip-path="url(#p5db9688e04)" style="fill: none; stroke: #ff0000; stroke-opacity: 0.7; stroke-width: 0.5"/>
    <path d="M 523.804765 383.43999 
L 525.311 385.453109 
L 526.72797 387.329659 
" clip-path="url(#p5db9688e04)" style="fill: none; stroke: #ff0000; stroke-opacity: 0.7; stroke-width: 0.5"/>
    <path d="M 501.637041 370.521638 
L 506.629781 371.330932 
" clip-path="url(#p5db9688e04)" style="fill: none; stroke: #ff0000; stroke-opacity: 0.7; stroke-width: 0.5"/>
    <path d="M 489.922673 368.636658 
L 491.572555 368.908108 
L 494.428041 369.354906 
L 501.637041 370.521638 
" clip-path="url(#p5db9688e04)" style="fill: none; stroke: #ff0000; stroke-opacity: 0.7; stroke-width: 0.5"/>
    <path d="M 485.591733 367.930212 
L 486.55006 368.085326 
L 486.901994 368.137593 
L 489.922673 368.636658 
" clip-path="url(#p5db9688e04)" style="fill: none; stroke: #ff0000; stroke-opacity: 0.7; stroke-width: 0.5"/>
    <path d="M 453.200487 362.732185 
L 454.262444 362.905846 
L 457.29441 363.401538 
L 458.938136 363.671303 
" clip-path="url(#p5db9688e04)" style="fill: none; stroke: #ff0000; stroke-opacity: 0.7; stroke-width: 0.5"/>
    <path d="M 498.120781 541.473155 
L 492.332855 541.361877 
" clip-path="url(#p5db9688e04)" style="fill: none; stroke: #ff0000; stroke-opacity: 0.7; stroke-width: 0.5"/>
    <path d="M 436.377436 565.377671 
L 436.088091 565.880108 
L 435.042551 567.694275 
" clip-path="url(#p5db9688e04)" style="fill: none; stroke: #ff0000; stroke-opacity: 0.7; stroke-width: 0.5"/>
    <path d="M 404.423286 522.935268 
L 401.605763 527.890507 
L 400.586899 529.682756 
L 399.656276 531.31989 
L 399.43465 531.709362 
L 399.107341 532.285984 
L 398.774902 532.871036 
L 398.052566 534.140616 
L 395.564404 538.517547 
L 394.802052 539.857939 
L 394.699447 540.018112 
L 393.734964 541.287692 
" clip-path="url(#p5db9688e04)" style="fill: none; stroke: #ff0000; stroke-opacity: 0.7; stroke-width: 0.5"/>
    <path d="M 434.559283 512.281253 
L 431.981855 511.686084 
L 424.474277 510.182147 
" clip-path="url(#p5db9688e04)" style="fill: none; stroke: #ff0000; stroke-opacity: 0.7; stroke-width: 0.5"/>
    <path d="M 423.608294 531.547504 
L 422.520685 533.429112 
L 421.931735 534.449159 
" clip-path="url(#p5db9688e04)" style="fill: none; stroke: #ff0000; stroke-opacity: 0.7; stroke-width: 0.5"/>
    <path d="M 434.559283 512.281253 
L 430.967096 518.755603 
" clip-path="url(#p5db9688e04)" style="fill: none; stroke: #ff0000; stroke-opacity: 0.7; stroke-width: 0.5"/>
    <path d="M 428.555888 522.984163 
L 425.626526 528.054052 
L 423.608294 531.547504 
" clip-path="url(#p5db9688e04)" style="fill: none; stroke: #ff0000; stroke-opacity: 0.7; stroke-width: 0.5"/>
    <path d="M 421.931735 534.449159 
L 418.612476 540.195145 
L 417.170881 542.688782 
L 416.715317 543.477843 
L 416.460857 543.917897 
L 414.861252 546.68467 
" clip-path="url(#p5db9688e04)" style="fill: none; stroke: #ff0000; stroke-opacity: 0.7; stroke-width: 0.5"/>
    <path d="M 211.983226 212.883004 
L 211.125452 214.216653 
" clip-path="url(#p5db9688e04)" style="fill: none; stroke: #ff0000; stroke-opacity: 0.7; stroke-width: 0.5"/>
   </g>
   <g id="patch_3">
    <path d="M 178.227753 640.8 
L 178.227753 86.4 
" style="fill: none; stroke: #000000; stroke-width: 0.8; stroke-linejoin: miter; stroke-linecap: square"/>
   </g>
   <g id="patch_4">
    <path d="M 559.772247 640.8 
L 559.772247 86.4 
" style="fill: none; stroke: #000000; stroke-width: 0.8; stroke-linejoin: miter; stroke-linecap: square"/>
   </g>
   <g id="patch_5">
    <path d="M 178.227753 640.8 
L 559.772247 640.8 
" style="fill: none; stroke: #000000; stroke-width: 0.8; stroke-linejoin: miter; stroke-linecap: square"/>
   </g>
   <g id="patch_6">
    <path d="M 178.227753 86.4 
L 559.772247 86.4 
" style="fill: none; stroke: #000000; stroke-width: 0.8; stroke-linejoin: miter; stroke-linecap: square"/>
   </g>
   <g id="text_16">
    <!-- Friedrichshain_West -->
    <g transform="translate(328.708207 353.59386) scale(0.12 -0.12)">
     <defs>
      <path id="DejaVuSans-46" d="M 628 4666 
L 3309 4666 
L 3309 4134 
L 1259 4134 
L 1259 2759 
L 3109 2759 
L 3109 2228 
L 1259 2228 
L 1259 0 
L 628 0 
L 628 4666 
z
" transform="scale(0.015625)"/>
      <path id="DejaVuSans-72" d="M 2631 2963 
Q 2534 3019 2420 3045 
Q 2306 3072 2169 3072 
Q 1681 3072 1420 2755 
Q 1159 2438 1159 1844 
L 1159 0 
L 581 0 
L 581 3500 
L 1159 3500 
L 1159 2956 
Q 1341 3275 1631 3429 
Q 1922 3584 2338 3584 
Q 2397 3584 2469 3576 
Q 2541 3569 2628 3553 
L 2631 2963 
z
" transform="scale(0.015625)"/>
      <path id="DejaVuSans-69" d="M 603 3500 
L 1178 3500 
L 1178 0 
L 603 0 
L 603 3500 
z
M 603 4863 
L 1178 4863 
L 1178 4134 
L 603 4134 
L 603 4863 
z
" transform="scale(0.015625)"/>
      <path id="DejaVuSans-65" d="M 3597 1894 
L 3597 1613 
L 953 1613 
Q 991 1019 1311 708 
Q 1631 397 2203 397 
Q 2534 397 2845 478 
Q 3156 559 3463 722 
L 3463 178 
Q 3153 47 2828 -22 
Q 2503 -91 2169 -91 
Q 1331 -91 842 396 
Q 353 884 353 1716 
Q 353 2575 817 3079 
Q 1281 3584 2069 3584 
Q 2775 3584 3186 3129 
Q 3597 2675 3597 1894 
z
M 3022 2063 
Q 3016 2534 2758 2815 
Q 2500 3097 2075 3097 
Q 1594 3097 1305 2825 
Q 1016 2553 972 2059 
L 3022 2063 
z
" transform="scale(0.015625)"/>
      <path id="DejaVuSans-64" d="M 2906 2969 
L 2906 4863 
L 3481 4863 
L 3481 0 
L 2906 0 
L 2906 525 
Q 2725 213 2448 61 
Q 2172 -91 1784 -91 
Q 1150 -91 751 415 
Q 353 922 353 1747 
Q 353 2572 751 3078 
Q 1150 3584 1784 3584 
Q 2172 3584 2448 3432 
Q 2725 3281 2906 2969 
z
M 947 1747 
Q 947 1113 1208 752 
Q 1469 391 1925 391 
Q 2381 391 2643 752 
Q 2906 1113 2906 1747 
Q 2906 2381 2643 2742 
Q 2381 3103 1925 3103 
Q 1469 3103 1208 2742 
Q 947 2381 947 1747 
z
" transform="scale(0.015625)"/>
      <path id="DejaVuSans-63" d="M 3122 3366 
L 3122 2828 
Q 2878 2963 2633 3030 
Q 2388 3097 2138 3097 
Q 1578 3097 1268 2742 
Q 959 2388 959 1747 
Q 959 1106 1268 751 
Q 1578 397 2138 397 
Q 2388 397 2633 464 
Q 2878 531 3122 666 
L 3122 134 
Q 2881 22 2623 -34 
Q 2366 -91 2075 -91 
Q 1284 -91 818 406 
Q 353 903 353 1747 
Q 353 2603 823 3093 
Q 1294 3584 2113 3584 
Q 2378 3584 2631 3529 
Q 2884 3475 3122 3366 
z
" transform="scale(0.015625)"/>
      <path id="DejaVuSans-68" d="M 3513 2113 
L 3513 0 
L 2938 0 
L 2938 2094 
Q 2938 2591 2744 2837 
Q 2550 3084 2163 3084 
Q 1697 3084 1428 2787 
Q 1159 2491 1159 1978 
L 1159 0 
L 581 0 
L 581 4863 
L 1159 4863 
L 1159 2956 
Q 1366 3272 1645 3428 
Q 1925 3584 2291 3584 
Q 2894 3584 3203 3211 
Q 3513 2838 3513 2113 
z
" transform="scale(0.015625)"/>
      <path id="DejaVuSans-73" d="M 2834 3397 
L 2834 2853 
Q 2591 2978 2328 3040 
Q 2066 3103 1784 3103 
Q 1356 3103 1142 2972 
Q 928 2841 928 2578 
Q 928 2378 1081 2264 
Q 1234 2150 1697 2047 
L 1894 2003 
Q 2506 1872 2764 1633 
Q 3022 1394 3022 966 
Q 3022 478 2636 193 
Q 2250 -91 1575 -91 
Q 1294 -91 989 -36 
Q 684 19 347 128 
L 347 722 
Q 666 556 975 473 
Q 1284 391 1588 391 
Q 1994 391 2212 530 
Q 2431 669 2431 922 
Q 2431 1156 2273 1281 
Q 2116 1406 1581 1522 
L 1381 1569 
Q 847 1681 609 1914 
Q 372 2147 372 2553 
Q 372 3047 722 3315 
Q 1072 3584 1716 3584 
Q 2034 3584 2315 3537 
Q 2597 3491 2834 3397 
z
" transform="scale(0.015625)"/>
      <path id="DejaVuSans-61" d="M 2194 1759 
Q 1497 1759 1228 1600 
Q 959 1441 959 1056 
Q 959 750 1161 570 
Q 1363 391 1709 391 
Q 2188 391 2477 730 
Q 2766 1069 2766 1631 
L 2766 1759 
L 2194 1759 
z
M 3341 1997 
L 3341 0 
L 2766 0 
L 2766 531 
Q 2569 213 2275 61 
Q 1981 -91 1556 -91 
Q 1019 -91 701 211 
Q 384 513 384 1019 
Q 384 1609 779 1909 
Q 1175 2209 1959 2209 
L 2766 2209 
L 2766 2266 
Q 2766 2663 2505 2880 
Q 2244 3097 1772 3097 
Q 1472 3097 1187 3025 
Q 903 2953 641 2809 
L 641 3341 
Q 956 3463 1253 3523 
Q 1550 3584 1831 3584 
Q 2591 3584 2966 3190 
Q 3341 2797 3341 1997 
z
" transform="scale(0.015625)"/>
      <path id="DejaVuSans-6e" d="M 3513 2113 
L 3513 0 
L 2938 0 
L 2938 2094 
Q 2938 2591 2744 2837 
Q 2550 3084 2163 3084 
Q 1697 3084 1428 2787 
Q 1159 2491 1159 1978 
L 1159 0 
L 581 0 
L 581 3500 
L 1159 3500 
L 1159 2956 
Q 1366 3272 1645 3428 
Q 1925 3584 2291 3584 
Q 2894 3584 3203 3211 
Q 3513 2838 3513 2113 
z
" transform="scale(0.015625)"/>
      <path id="DejaVuSans-5f" d="M 3263 -1063 
L 3263 -1509 
L -63 -1509 
L -63 -1063 
L 3263 -1063 
z
" transform="scale(0.015625)"/>
      <path id="DejaVuSans-57" d="M 213 4666 
L 850 4666 
L 1831 722 
L 2809 4666 
L 3519 4666 
L 4500 722 
L 5478 4666 
L 6119 4666 
L 4947 0 
L 4153 0 
L 3169 4050 
L 2175 0 
L 1381 0 
L 213 4666 
z
" transform="scale(0.015625)"/>
      <path id="DejaVuSans-74" d="M 1172 4494 
L 1172 3500 
L 2356 3500 
L 2356 3053 
L 1172 3053 
L 1172 1153 
Q 1172 725 1289 603 
Q 1406 481 1766 481 
L 2356 481 
L 2356 0 
L 1766 0 
Q 1100 0 847 248 
Q 594 497 594 1153 
L 594 3053 
L 172 3053 
L 172 3500 
L 594 3500 
L 594 4494 
L 1172 4494 
z
" transform="scale(0.015625)"/>
     </defs>
     <use xlink:href="#DejaVuSans-46"/>
     <use xlink:href="#DejaVuSans-72" x="50.269531"/>
     <use xlink:href="#DejaVuSans-69" x="91.382812"/>
     <use xlink:href="#DejaVuSans-65" x="119.166016"/>
     <use xlink:href="#DejaVuSans-64" x="180.689453"/>
     <use xlink:href="#DejaVuSans-72" x="244.166016"/>
     <use xlink:href="#DejaVuSans-69" x="285.279297"/>
     <use xlink:href="#DejaVuSans-63" x="313.0625"/>
     <use xlink:href="#DejaVuSans-68" x="368.042969"/>
     <use xlink:href="#DejaVuSans-73" x="431.421875"/>
     <use xlink:href="#DejaVuSans-68" x="483.521484"/>
     <use xlink:href="#DejaVuSans-61" x="546.900391"/>
     <use xlink:href="#DejaVuSans-69" x="608.179688"/>
     <use xlink:href="#DejaVuSans-6e" x="635.962891"/>
     <use xlink:href="#DejaVuSans-5f" x="699.341797"/>
     <use xlink:href="#DejaVuSans-57" x="749.341797"/>
     <use xlink:href="#DejaVuSans-65" x="842.34375"/>
     <use xlink:href="#DejaVuSans-73" x="903.867188"/>
     <use xlink:href="#DejaVuSans-74" x="955.966797"/>
    </g>
   </g>
  </g>
 </g>
 <defs>
  <clipPath id="p5db9688e04">
   <rect x="178.227753" y="86.4" width="381.544493" height="554.4"/>
  </clipPath>
 </defs>
</svg>
