<?xml version="1.0" encoding="utf-8" standalone="no"?>
<!DOCTYPE svg PUBLIC "-//W3C//DTD SVG 1.1//EN"
  "http://www.w3.org/Graphics/SVG/1.1/DTD/svg11.dtd">
<svg xmlns:xlink="http://www.w3.org/1999/xlink" width="720pt" height="720pt" viewBox="0 0 720 720" xmlns="http://www.w3.org/2000/svg" version="1.1">
 <metadata>
  <rdf:RDF xmlns:dc="http://purl.org/dc/elements/1.1/" xmlns:cc="http://creativecommons.org/ns#" xmlns:rdf="http://www.w3.org/1999/02/22-rdf-syntax-ns#">
   <cc:Work>
    <dc:type rdf:resource="http://purl.org/dc/dcmitype/StillImage"/>
    <dc:date>2024-10-17T11:38:41.895216</dc:date>
    <dc:format>image/svg+xml</dc:format>
    <dc:creator>
     <cc:Agent>
      <dc:title>Matplotlib v3.9.2, https://matplotlib.org/</dc:title>
     </cc:Agent>
    </dc:creator>
   </cc:Work>
  </rdf:RDF>
 </metadata>
 <defs>
  <style type="text/css">*{stroke-linejoin: round; stroke-linecap: butt}</style>
 </defs>
 <g id="figure_1">
  <g id="patch_1">
   <path d="M 0 720 
L 720 720 
L 720 0 
L 0 0 
z
" style="fill: #ffffff"/>
  </g>
  <g id="axes_1">
   <g id="patch_2">
    <path d="M 90 618.482404 
L 648 618.482404 
L 648 108.717596 
L 90 108.717596 
z
" style="fill: #ffffff"/>
   </g>
   <g id="PatchCollection_1">
    <path d="M 117.616239 292.976191 
L 117.529869 296.300945 
L 117.442187 299.665293 
L 117.331369 303.988599 
L 117.210162 308.670021 
L 118.149671 308.694807 
L 118.12846 309.304538 
L 117.992586 309.301742 
L 117.975157 309.986538 
L 118.11103 309.989335 
L 118.086363 310.97764 
L 117.950315 310.974677 
L 117.931226 311.661216 
L 118.0671 311.664013 
L 118.045281 312.525973 
L 118.806343 313.321452 
L 118.726041 313.398818 
L 118.462845 313.651888 
L 118.429125 313.715046 
L 118.360857 314.047415 
L 118.374791 314.120539 
L 118.50528 314.433448 
L 118.701646 314.684663 
L 119.33641 315.347947 
L 121.640235 317.760151 
L 121.578004 320.316987 
L 119.190803 322.619918 
L 118.537592 323.249497 
L 118.494407 323.300266 
L 118.461766 323.358627 
L 118.441144 323.422162 
L 118.433334 323.488465 
L 118.438608 323.554634 
L 118.456749 323.618628 
L 118.486845 323.677743 
L 118.52783 323.729957 
L 118.584067 323.787609 
L 118.178006 324.175912 
L 118.48679 324.503408 
L 118.407331 324.580415 
L 118.509752 324.687263 
L 117.70264 325.46733 
L 117.674561 326.557624 
L 117.508566 326.553144 
L 117.488016 327.323221 
L 117.175733 327.32113 
L 117.147483 328.140296 
L 117.040026 328.365876 
L 116.945278 328.597125 
L 116.863734 328.833348 
L 116.795542 329.073691 
L 116.739677 329.317836 
L 116.697643 329.564726 
L 116.669424 329.81368 
L 116.65534 330.063838 
L 116.646492 330.38579 
L 116.528138 334.940868 
L 116.436264 338.519869 
L 116.285873 344.316833 
L 116.233521 346.360999 
L 116.084633 352.149408 
L 115.989807 355.813516 
L 115.896198 359.390853 
L 115.804339 362.963038 
L 115.673041 368.073464 
L 115.53425 373.410377 
L 115.451396 376.645269 
L 115.363636 380.020358 
L 118.82274 380.119823 
L 124.356166 380.276775 
L 127.021776 380.34893 
L 128.895024 381.461714 
L 131.607801 383.041135 
L 134.315443 384.634147 
L 137.396049 386.443599 
L 140.471466 388.249776 
L 144.658941 390.718206 
L 146.857471 392.008527 
L 151.300257 394.604992 
L 154.370566 396.406055 
L 157.446044 398.232742 
L 160.524827 400.055955 
L 164.964462 402.659553 
L 167.171116 403.943774 
L 179.336158 411.099562 
L 189.881749 417.301498 
L 203.02201 425.013705 
L 203.168458 425.099944 
L 206.417454 427.009524 
L 209.814227 430.197554 
L 210.324022 429.333814 
L 210.531073 428.982724 
L 211.620827 427.136201 
L 213.955127 423.177298 
L 213.965621 423.1595 
L 216.188299 419.391503 
L 216.477328 418.902861 
L 218.813724 414.943242 
L 219.651116 413.52317 
L 219.873873 413.145303 
L 221.338993 410.660912 
L 223.677059 406.69803 
L 224.511834 406.468036 
L 226.204274 407.435265 
L 226.200994 407.440454 
L 227.171394 407.991742 
L 227.503588 407.399343 
L 230.385166 409.029192 
L 233.282233 410.667894 
L 237.950865 413.309176 
L 238.274079 414.679156 
L 240.721027 411.050029 
L 242.691363 408.132702 
L 247.30097 401.307449 
L 254.1798 399.850257 
L 256.93777 399.264759 
L 259.595655 398.702037 
L 262.258604 398.137673 
L 264.921197 397.579801 
L 268.084869 396.905879 
L 272.184031 396.03463 
L 274.510968 395.543006 
L 275.300146 395.376321 
L 278.394216 394.719897 
L 284.876012 393.346102 
L 286.789383 394.787896 
L 287.282925 394.136918 
L 288.957441 391.931209 
L 292.749441 387.003601 
L 294.64546 384.539889 
L 296.533093 382.087963 
L 298.621913 379.374748 
L 300.210002 376.859369 
L 303.103317 372.291355 
L 303.191242 372.153163 
L 303.442646 371.75506 
L 306.644529 373.804836 
L 309.06828 375.356913 
L 309.813981 375.834413 
L 310.152808 376.045915 
L 310.100331 376.11427 
L 310.262253 376.223177 
L 310.784964 376.574776 
L 310.946594 376.685734 
L 311.465329 377.041856 
L 312.105502 377.490608 
L 312.141086 377.515519 
L 312.604528 377.847015 
L 312.81223 377.995595 
L 313.504009 378.500927 
L 313.563148 378.545063 
L 314.190677 379.013195 
L 314.872231 379.532227 
L 315.050537 379.666318 
L 315.230059 379.801575 
L 315.272609 379.833824 
L 316.274797 380.667883 
L 316.734784 381.078534 
L 317.185152 381.499632 
L 317.625903 381.931177 
L 318.05668 382.372496 
L 318.431449 382.772844 
L 318.797897 383.180883 
L 319.155845 383.596276 
L 319.50546 384.018848 
L 320.018379 384.425553 
L 320.706817 384.933865 
L 320.8771 385.059111 
L 322.275644 386.434985 
L 328.926945 391.369986 
L 332.285083 387.811972 
L 332.472553 390.116779 
L 332.735098 393.345892 
L 332.992882 396.567618 
L 333.249602 399.772667 
L 333.510129 403.00302 
L 333.773347 406.224791 
L 333.820166 406.865667 
L 334.753345 407.797965 
L 334.853018 407.905244 
L 335.306147 408.358837 
L 337.787671 410.843712 
L 339.532403 412.591721 
L 339.803031 412.862858 
L 340.115441 413.175868 
L 340.192846 413.253326 
L 342.646067 415.713306 
L 346.377946 419.454492 
L 346.874069 419.952943 
L 348.560398 421.647382 
L 349.864997 422.955426 
L 351.204837 424.304023 
L 353.767122 426.883076 
L 354.18027 427.298575 
L 358.085373 431.224473 
L 360.724936 433.878066 
L 364.272215 437.439193 
L 367.672351 440.847109 
L 368.082322 441.258088 
L 368.160251 441.336389 
L 369.963335 443.146111 
L 371.18475 444.371917 
L 373.655412 446.852036 
L 375.21705 448.419711 
L 379.532245 452.830478 
L 382.359644 455.804289 
L 383.993014 457.730759 
L 387.08754 461.381298 
L 390.864918 465.837039 
L 393.727621 469.214131 
L 397.566583 473.742788 
L 399.546741 476.078837 
L 402.264888 478.499295 
L 403.669907 479.750447 
L 435.762156 525.218807 
L 436.627995 526.450479 
L 436.746176 526.610515 
L 435.573065 528.498871 
L 433.721266 531.474882 
L 434.098278 531.79275 
L 434.485699 532.097597 
L 434.883351 532.389089 
L 435.290712 532.666724 
L 435.707268 532.930345 
L 435.98862 533.09959 
L 436.273729 533.262273 
L 436.562432 533.418568 
L 436.854549 533.568139 
L 437.049422 533.663533 
L 437.245584 533.75583 
L 437.443208 533.845196 
L 437.599006 533.911152 
L 437.75544 533.975219 
L 437.912685 534.037563 
L 438.375578 534.209462 
L 438.84422 534.36521 
L 439.317766 534.504997 
L 439.795864 534.62832 
L 440.277834 534.735195 
L 440.515573 534.787855 
L 440.754065 534.836237 
L 440.993485 534.880678 
L 441.161436 534.905798 
L 441.329684 534.929036 
L 441.498225 534.950222 
L 441.905527 534.994393 
L 442.31392 535.02678 
L 442.723072 535.047732 
L 443.393104 535.726471 
L 450.861071 535.735063 
L 451.092649 551.840495 
L 451.23848 561.976194 
L 451.260383 563.593616 
L 451.276342 565.211176 
L 451.286012 566.828709 
L 451.289788 568.441094 
L 451.28745 570.053619 
L 451.278991 571.665944 
L 451.262142 573.4545 
L 457.729706 573.570947 
L 472.213746 576.399062 
L 472.62554 574.39441 
L 478.723076 573.62515 
L 484.88384 571.182884 
L 490.488901 567.749798 
L 495.926981 566.843398 
L 500.013559 568.727125 
L 504.421759 574.857601 
L 506.38549 581.729713 
L 507.807564 585.515885 
L 508.943483 588.149942 
L 510.220981 590.509295 
L 510.393919 594.928647 
L 512.635389 594.881866 
L 519.151302 594.755865 
L 519.940487 594.74534 
L 520.080115 594.743515 
L 522.666799 594.709327 
L 525.508703 594.91506 
L 530.898718 595.311277 
L 530.147464 592.440564 
L 528.815211 582.207195 
L 528.908349 580.725693 
L 528.940191 579.238603 
L 528.912302 577.747594 
L 528.724548 574.685425 
L 528.536985 572.530202 
L 528.458802 571.630831 
L 528.113414 568.586064 
L 527.790068 566.273069 
L 527.737736 565.898839 
L 528.041216 564.536257 
L 528.904198 563.773796 
L 529.969217 563.551385 
L 531.003528 563.813565 
L 530.914817 560.99743 
L 529.861686 560.729716 
L 528.996033 560.389558 
L 528.976032 559.23119 
L 528.782396 547.965872 
L 528.868727 538.779196 
L 528.888036 536.717412 
L 528.888378 536.680083 
L 528.896867 535.773791 
L 528.944991 530.174719 
L 528.958498 528.793195 
L 528.996156 525.623122 
L 529.273796 518.179519 
L 529.790909 513.784976 
L 529.851473 513.271325 
L 531.07832 507.091162 
L 531.352218 505.711874 
L 531.574319 504.768329 
L 532.684155 500.050616 
L 531.030299 499.561265 
L 531.50218 497.957624 
L 531.583597 497.681398 
L 532.496428 494.578605 
L 532.615548 494.174048 
L 532.676131 493.968167 
L 532.735757 493.765034 
L 534.023209 493.833473 
L 534.018605 493.855221 
L 535.396136 493.89434 
L 536.239361 491.348013 
L 537.85691 486.962962 
L 538.651106 484.966493 
L 540.60065 480.150564 
L 542.19342 476.296931 
L 543.950901 472.152226 
L 547.313825 464.335276 
L 548.981241 460.17355 
L 550.433374 456.409883 
L 553.488902 448.46909 
L 556.508007 440.515847 
L 559.38608 432.508741 
L 562.201764 424.48347 
L 565.039811 416.460256 
L 566.591471 412.16712 
L 567.93369 408.453504 
L 572.153627 396.425785 
L 572.534388 395.340433 
L 578.804826 377.48047 
L 583.720682 363.191075 
L 587.288314 352.26332 
L 592.493588 335.668671 
L 597.729754 319.19844 
L 599.323101 314.691885 
L 602.350573 306.129403 
L 606.859195 294.105882 
L 611.351059 282.162524 
L 615.854817 270.228465 
L 620.558528 257.305746 
L 619.56501 256.758104 
L 619.294426 256.609002 
L 618.502982 256.172654 
L 618.233086 256.023877 
L 617.914134 255.848097 
L 617.888114 255.900153 
L 617.824174 255.861388 
L 619.300601 253.113826 
L 619.159965 250.486157 
L 619.055762 248.8764 
L 621.141358 247.028258 
L 621.308917 246.879839 
L 621.586809 246.633515 
L 621.65797 246.57055 
L 622.068366 245.402143 
L 622.250512 244.883628 
L 622.407448 244.436878 
L 622.581679 243.940896 
L 622.636364 243.785225 
L 621.832805 243.279619 
L 619.751473 242.014867 
L 617.992007 241.00218 
L 616.845167 240.365489 
L 616.355579 240.093552 
L 615.336367 239.545816 
L 614.844018 238.663006 
L 613.561379 237.749243 
L 611.613276 236.995114 
L 600.899373 232.84943 
L 594.057023 230.423581 
L 593.974366 230.406715 
L 593.892942 230.384197 
L 593.81326 230.356017 
L 593.735836 230.322502 
L 593.660672 230.283653 
L 592.468869 229.622114 
L 592.102424 229.414023 
L 591.738584 229.20093 
L 591.377865 228.982995 
L 591.020092 228.760051 
L 590.665439 228.532264 
L 590.313906 228.299635 
L 589.965493 228.062164 
L 589.620374 227.820016 
L 589.278548 227.573193 
L 588.940186 227.32169 
L 588.605288 227.065507 
L 588.273861 226.804984 
L 586.399803 225.31406 
L 580.450752 220.581031 
L 580.438694 221.001889 
L 577.126446 218.365082 
L 575.056976 216.717639 
L 573.891405 215.789853 
L 572.18796 214.433623 
L 570.098992 212.770908 
L 562.469452 206.751472 
L 561.936682 206.331097 
L 559.81928 204.660705 
L 556.882542 202.287624 
L 554.703566 200.526625 
L 550.402719 197.080198 
L 549.087404 195.548843 
L 548.600073 194.981395 
L 548.23888 194.563933 
L 546.886844 192.942928 
L 545.023588 190.848411 
L 543.297565 188.853699 
L 541.612159 186.903735 
L 540.699104 185.847708 
L 536.907527 181.461656 
L 533.364174 177.400392 
L 532.74734 176.693271 
L 530.537367 174.141465 
L 530.350714 173.924696 
L 529.199531 172.594806 
L 528.714011 172.033462 
L 526.19874 169.125294 
L 524.559389 167.229885 
L 512.784057 153.632788 
L 512.357507 153.138785 
L 509.105232 149.246502 
L 508.936814 149.02472 
L 507.024995 146.552564 
L 506.217135 145.535154 
L 506.029973 145.297528 
L 505.236512 144.293851 
L 504.455247 143.273366 
L 502.829473 141.150339 
L 501.561118 139.493922 
L 498.772763 135.903788 
L 498.519398 135.60999 
L 498.427917 135.579362 
L 498.338019 135.543584 
L 498.250553 135.502639 
L 498.165358 135.45687 
L 498.082947 135.406437 
L 498.00349 135.351334 
L 497.858671 135.247965 
L 497.541285 135.017151 
L 497.412849 134.923973 
L 496.799515 134.478043 
L 496.664502 134.379733 
L 496.128265 133.989813 
L 496.004494 133.899936 
L 495.468604 133.510349 
L 495.343273 133.419145 
L 494.818447 133.037656 
L 493.832232 132.320603 
L 493.238085 131.888723 
L 489.346946 135.803854 
L 488.71691 136.685844 
L 488.739391 136.702542 
L 488.722463 136.72815 
L 488.757917 136.754606 
L 488.484294 137.124529 
L 488.452876 137.103605 
L 488.433361 137.127568 
L 488.411243 137.111885 
L 488.024433 137.647824 
L 487.057978 138.732465 
L 486.391491 139.52906 
L 485.66496 140.391447 
L 485.343659 140.728038 
L 484.417523 141.850955 
L 483.249544 142.334896 
L 481.588529 143.034616 
L 480.531587 143.47461 
L 479.541476 143.900465 
L 477.491563 144.782404 
L 476.473214 145.207376 
L 475.530307 145.600629 
L 473.641624 146.410381 
L 472.692069 146.802767 
L 471.753721 147.187058 
L 469.928476 147.945435 
L 468.922433 148.358035 
L 467.554056 148.887656 
L 465.487081 149.70611 
L 464.539964 150.07834 
L 463.360537 150.543826 
L 462.538977 150.867854 
L 461.858276 151.136338 
L 461.379261 151.325393 
L 460.418461 151.686353 
L 458.323289 152.467979 
L 456.632625 153.088334 
L 455.57961 153.475782 
L 453.429569 154.266347 
L 452.440446 154.63001 
L 451.42146 155.040883 
L 449.302782 155.894304 
L 448.295785 156.301498 
L 447.212505 156.733106 
L 445.705854 157.333417 
L 444.595615 157.77553 
L 444.229995 157.934558 
L 443.11462 158.419736 
L 440.105562 159.732704 
L 437.986695 160.65727 
L 437.377601 160.896867 
L 436.162815 161.383482 
L 434.948166 161.868562 
L 432.849649 162.724971 
L 431.02918 163.466113 
L 429.958708 163.899495 
L 428.922148 164.314036 
L 426.90676 165.132596 
L 425.863363 165.545424 
L 424.840357 165.957785 
L 424.818293 165.966812 
L 422.769866 166.789889 
L 421.749192 167.199985 
L 420.968798 167.516292 
L 420.707641 167.62641 
L 418.927716 168.295925 
L 418.24052 168.35328 
L 418.199116 168.356617 
L 417.059291 168.432543 
L 417.049131 168.43431 
L 415.944787 168.493234 
L 414.011582 168.599649 
L 412.873474 168.668895 
L 411.568785 168.753897 
L 411.324187 168.77025 
L 411.006818 168.778731 
L 410.35717 168.795287 
L 409.387415 168.817283 
L 408.138509 168.839671 
L 406.576165 168.860907 
L 405.625618 168.869942 
L 404.169564 168.877726 
L 403.241741 168.877721 
L 402.096779 168.874584 
L 401.258686 168.8696 
L 400.097707 168.880131 
L 399.35303 168.889471 
L 398.528185 168.872429 
L 397.474646 168.850664 
L 396.913477 168.835399 
L 396.074634 168.812582 
L 395.009835 168.779729 
L 393.966544 168.744436 
L 393.4032 168.72331 
L 392.82888 168.700118 
L 391.841712 168.660256 
L 390.640248 168.604968 
L 390.073568 168.577278 
L 388.682664 167.215855 
L 386.642004 165.218461 
L 386.165831 160.622328 
L 386.039918 160.592584 
L 385.193153 160.415225 
L 384.341956 160.259611 
L 383.487176 160.125724 
L 382.629326 160.013721 
L 381.768913 159.92342 
L 380.906458 159.855322 
L 380.042632 159.809069 
L 379.177784 159.784994 
L 376.492471 159.854433 
L 372.446113 160.480758 
L 370.248277 160.620289 
L 369.035945 160.670513 
L 367.699464 160.859757 
L 366.854912 160.845964 
L 349.715412 160.885145 
L 349.703687 160.700003 
L 348.809526 160.724693 
L 347.91593 160.766582 
L 347.023245 160.826004 
L 346.131979 160.902776 
L 345.242471 160.996891 
L 344.354886 161.108175 
L 343.469569 161.23679 
L 342.586856 161.382558 
L 339.295309 161.940695 
L 334.647307 162.439286 
L 334.49556 161.138086 
L 334.315357 161.049194 
L 331.595429 161.31385 
L 328.877068 161.594838 
L 326.160451 161.892496 
L 323.445741 162.206479 
L 320.732942 162.536957 
L 318.022219 162.883755 
L 315.313578 163.247045 
L 312.590268 163.630761 
L 312.590837 164.017791 
L 312.598589 167.226871 
L 312.602566 168.650769 
L 306.875577 169.251279 
L 301.134856 169.860496 
L 297.274333 170.276352 
L 293.222002 170.726991 
L 289.171392 171.193119 
L 285.06308 171.678152 
L 282.113042 172.032475 
L 274.19214 172.998179 
L 265.481541 174.057213 
L 265.473365 174.994176 
L 265.410497 175.002958 
L 265.40354 174.951824 
L 264.980659 174.999612 
L 264.96611 176.442344 
L 264.432502 176.435945 
L 264.434542 176.50236 
L 264.179707 176.494794 
L 264.119674 182.252132 
L 261.580532 182.213585 
L 226.21507 181.850298 
L 217.358403 181.759683 
L 217.019512 181.756126 
L 216.628591 181.752072 
L 215.455659 181.740087 
L 215.273714 181.752828 
L 212.012907 181.978789 
L 211.614898 182.006429 
L 210.638688 181.95904 
L 209.227814 181.890553 
L 203.018027 181.578991 
L 197.401037 181.297507 
L 186.663831 181.192436 
L 165.466199 180.976441 
L 162.909591 181.094532 
L 157.137049 180.982582 
L 143.482163 180.820368 
L 127.627073 181.073317 
L 121.159796 181.176512 
L 120.506391 181.186973 
L 120.440681 183.740479 
L 120.351745 187.205398 
L 120.278774 190.046735 
L 120.189839 193.511654 
L 120.124261 196.085436 
L 119.509219 219.753639 
L 119.354446 225.729465 
L 119.301941 227.782153 
L 119.186609 232.226556 
L 119.111995 235.06282 
L 118.989268 239.774608 
L 118.935066 241.827336 
L 118.776285 248.055132 
L 118.605416 254.685049 
L 118.549568 256.732703 
L 118.428781 261.454672 
L 118.306174 266.222696 
L 118.262361 267.924466 
L 118.228768 269.224158 
L 118.192908 270.777823 
L 117.848419 284.005785 
L 117.751592 287.723861 
L 117.690509 290.117241 
L 117.616239 292.976191 
" clip-path="url(#pf3de3faeeb)" style="fill: #d3d3d3"/>
   </g>
   <g id="matplotlib.axis_1">
    <g id="xtick_1">
     <g id="line2d_1">
      <defs>
       <path id="ma594eb83f8" d="M 0 0 
L 0 3.5 
" style="stroke: #000000; stroke-width: 0.8"/>
      </defs>
      <g>
       <use xlink:href="#ma594eb83f8" x="115.560672" y="618.482404" style="stroke: #000000; stroke-width: 0.8"/>
      </g>
     </g>
     <g id="text_1">
      <!-- 13.32 -->
      <g transform="translate(101.24661 633.080842) scale(0.1 -0.1)">
       <defs>
        <path id="DejaVuSans-31" d="M 794 531 
L 1825 531 
L 1825 4091 
L 703 3866 
L 703 4441 
L 1819 4666 
L 2450 4666 
L 2450 531 
L 3481 531 
L 3481 0 
L 794 0 
L 794 531 
z
" transform="scale(0.015625)"/>
        <path id="DejaVuSans-33" d="M 2597 2516 
Q 3050 2419 3304 2112 
Q 3559 1806 3559 1356 
Q 3559 666 3084 287 
Q 2609 -91 1734 -91 
Q 1441 -91 1130 -33 
Q 819 25 488 141 
L 488 750 
Q 750 597 1062 519 
Q 1375 441 1716 441 
Q 2309 441 2620 675 
Q 2931 909 2931 1356 
Q 2931 1769 2642 2001 
Q 2353 2234 1838 2234 
L 1294 2234 
L 1294 2753 
L 1863 2753 
Q 2328 2753 2575 2939 
Q 2822 3125 2822 3475 
Q 2822 3834 2567 4026 
Q 2313 4219 1838 4219 
Q 1578 4219 1281 4162 
Q 984 4106 628 3988 
L 628 4550 
Q 988 4650 1302 4700 
Q 1616 4750 1894 4750 
Q 2613 4750 3031 4423 
Q 3450 4097 3450 3541 
Q 3450 3153 3228 2886 
Q 3006 2619 2597 2516 
z
" transform="scale(0.015625)"/>
        <path id="DejaVuSans-2e" d="M 684 794 
L 1344 794 
L 1344 0 
L 684 0 
L 684 794 
z
" transform="scale(0.015625)"/>
        <path id="DejaVuSans-32" d="M 1228 531 
L 3431 531 
L 3431 0 
L 469 0 
L 469 531 
Q 828 903 1448 1529 
Q 2069 2156 2228 2338 
Q 2531 2678 2651 2914 
Q 2772 3150 2772 3378 
Q 2772 3750 2511 3984 
Q 2250 4219 1831 4219 
Q 1534 4219 1204 4116 
Q 875 4013 500 3803 
L 500 4441 
Q 881 4594 1212 4672 
Q 1544 4750 1819 4750 
Q 2544 4750 2975 4387 
Q 3406 4025 3406 3419 
Q 3406 3131 3298 2873 
Q 3191 2616 2906 2266 
Q 2828 2175 2409 1742 
Q 1991 1309 1228 531 
z
" transform="scale(0.015625)"/>
       </defs>
       <use xlink:href="#DejaVuSans-31"/>
       <use xlink:href="#DejaVuSans-33" x="63.623047"/>
       <use xlink:href="#DejaVuSans-2e" x="127.246094"/>
       <use xlink:href="#DejaVuSans-33" x="159.033203"/>
       <use xlink:href="#DejaVuSans-32" x="222.65625"/>
      </g>
     </g>
    </g>
    <g id="xtick_2">
     <g id="line2d_2">
      <g>
       <use xlink:href="#ma594eb83f8" x="231.007751" y="618.482404" style="stroke: #000000; stroke-width: 0.8"/>
      </g>
     </g>
     <g id="text_2">
      <!-- 13.33 -->
      <g transform="translate(216.693689 633.080842) scale(0.1 -0.1)">
       <use xlink:href="#DejaVuSans-31"/>
       <use xlink:href="#DejaVuSans-33" x="63.623047"/>
       <use xlink:href="#DejaVuSans-2e" x="127.246094"/>
       <use xlink:href="#DejaVuSans-33" x="159.033203"/>
       <use xlink:href="#DejaVuSans-33" x="222.65625"/>
      </g>
     </g>
    </g>
    <g id="xtick_3">
     <g id="line2d_3">
      <g>
       <use xlink:href="#ma594eb83f8" x="346.45483" y="618.482404" style="stroke: #000000; stroke-width: 0.8"/>
      </g>
     </g>
     <g id="text_3">
      <!-- 13.34 -->
      <g transform="translate(332.140768 633.080842) scale(0.1 -0.1)">
       <defs>
        <path id="DejaVuSans-34" d="M 2419 4116 
L 825 1625 
L 2419 1625 
L 2419 4116 
z
M 2253 4666 
L 3047 4666 
L 3047 1625 
L 3713 1625 
L 3713 1100 
L 3047 1100 
L 3047 0 
L 2419 0 
L 2419 1100 
L 313 1100 
L 313 1709 
L 2253 4666 
z
" transform="scale(0.015625)"/>
       </defs>
       <use xlink:href="#DejaVuSans-31"/>
       <use xlink:href="#DejaVuSans-33" x="63.623047"/>
       <use xlink:href="#DejaVuSans-2e" x="127.246094"/>
       <use xlink:href="#DejaVuSans-33" x="159.033203"/>
       <use xlink:href="#DejaVuSans-34" x="222.65625"/>
      </g>
     </g>
    </g>
    <g id="xtick_4">
     <g id="line2d_4">
      <g>
       <use xlink:href="#ma594eb83f8" x="461.901909" y="618.482404" style="stroke: #000000; stroke-width: 0.8"/>
      </g>
     </g>
     <g id="text_4">
      <!-- 13.35 -->
      <g transform="translate(447.587847 633.080842) scale(0.1 -0.1)">
       <defs>
        <path id="DejaVuSans-35" d="M 691 4666 
L 3169 4666 
L 3169 4134 
L 1269 4134 
L 1269 2991 
Q 1406 3038 1543 3061 
Q 1681 3084 1819 3084 
Q 2600 3084 3056 2656 
Q 3513 2228 3513 1497 
Q 3513 744 3044 326 
Q 2575 -91 1722 -91 
Q 1428 -91 1123 -41 
Q 819 9 494 109 
L 494 744 
Q 775 591 1075 516 
Q 1375 441 1709 441 
Q 2250 441 2565 725 
Q 2881 1009 2881 1497 
Q 2881 1984 2565 2268 
Q 2250 2553 1709 2553 
Q 1456 2553 1204 2497 
Q 953 2441 691 2322 
L 691 4666 
z
" transform="scale(0.015625)"/>
       </defs>
       <use xlink:href="#DejaVuSans-31"/>
       <use xlink:href="#DejaVuSans-33" x="63.623047"/>
       <use xlink:href="#DejaVuSans-2e" x="127.246094"/>
       <use xlink:href="#DejaVuSans-33" x="159.033203"/>
       <use xlink:href="#DejaVuSans-35" x="222.65625"/>
      </g>
     </g>
    </g>
    <g id="xtick_5">
     <g id="line2d_5">
      <g>
       <use xlink:href="#ma594eb83f8" x="577.348988" y="618.482404" style="stroke: #000000; stroke-width: 0.8"/>
      </g>
     </g>
     <g id="text_5">
      <!-- 13.36 -->
      <g transform="translate(563.034926 633.080842) scale(0.1 -0.1)">
       <defs>
        <path id="DejaVuSans-36" d="M 2113 2584 
Q 1688 2584 1439 2293 
Q 1191 2003 1191 1497 
Q 1191 994 1439 701 
Q 1688 409 2113 409 
Q 2538 409 2786 701 
Q 3034 994 3034 1497 
Q 3034 2003 2786 2293 
Q 2538 2584 2113 2584 
z
M 3366 4563 
L 3366 3988 
Q 3128 4100 2886 4159 
Q 2644 4219 2406 4219 
Q 1781 4219 1451 3797 
Q 1122 3375 1075 2522 
Q 1259 2794 1537 2939 
Q 1816 3084 2150 3084 
Q 2853 3084 3261 2657 
Q 3669 2231 3669 1497 
Q 3669 778 3244 343 
Q 2819 -91 2113 -91 
Q 1303 -91 875 529 
Q 447 1150 447 2328 
Q 447 3434 972 4092 
Q 1497 4750 2381 4750 
Q 2619 4750 2861 4703 
Q 3103 4656 3366 4563 
z
" transform="scale(0.015625)"/>
       </defs>
       <use xlink:href="#DejaVuSans-31"/>
       <use xlink:href="#DejaVuSans-33" x="63.623047"/>
       <use xlink:href="#DejaVuSans-2e" x="127.246094"/>
       <use xlink:href="#DejaVuSans-33" x="159.033203"/>
       <use xlink:href="#DejaVuSans-36" x="222.65625"/>
      </g>
     </g>
    </g>
   </g>
   <g id="matplotlib.axis_2">
    <g id="ytick_1">
     <g id="line2d_6">
      <defs>
       <path id="m0ee49f4339" d="M 0 0 
L -3.5 0 
" style="stroke: #000000; stroke-width: 0.8"/>
      </defs>
      <g>
       <use xlink:href="#m0ee49f4339" x="90" y="607.092697" style="stroke: #000000; stroke-width: 0.8"/>
      </g>
     </g>
     <g id="text_6">
      <!-- 52.455 -->
      <g transform="translate(48.009375 610.891916) scale(0.1 -0.1)">
       <use xlink:href="#DejaVuSans-35"/>
       <use xlink:href="#DejaVuSans-32" x="63.623047"/>
       <use xlink:href="#DejaVuSans-2e" x="127.246094"/>
       <use xlink:href="#DejaVuSans-34" x="159.033203"/>
       <use xlink:href="#DejaVuSans-35" x="222.65625"/>
       <use xlink:href="#DejaVuSans-35" x="286.279297"/>
      </g>
     </g>
    </g>
    <g id="ytick_2">
     <g id="line2d_7">
      <g>
       <use xlink:href="#m0ee49f4339" x="90" y="512.324915" style="stroke: #000000; stroke-width: 0.8"/>
      </g>
     </g>
     <g id="text_7">
      <!-- 52.460 -->
      <g transform="translate(48.009375 516.124134) scale(0.1 -0.1)">
       <defs>
        <path id="DejaVuSans-30" d="M 2034 4250 
Q 1547 4250 1301 3770 
Q 1056 3291 1056 2328 
Q 1056 1369 1301 889 
Q 1547 409 2034 409 
Q 2525 409 2770 889 
Q 3016 1369 3016 2328 
Q 3016 3291 2770 3770 
Q 2525 4250 2034 4250 
z
M 2034 4750 
Q 2819 4750 3233 4129 
Q 3647 3509 3647 2328 
Q 3647 1150 3233 529 
Q 2819 -91 2034 -91 
Q 1250 -91 836 529 
Q 422 1150 422 2328 
Q 422 3509 836 4129 
Q 1250 4750 2034 4750 
z
" transform="scale(0.015625)"/>
       </defs>
       <use xlink:href="#DejaVuSans-35"/>
       <use xlink:href="#DejaVuSans-32" x="63.623047"/>
       <use xlink:href="#DejaVuSans-2e" x="127.246094"/>
       <use xlink:href="#DejaVuSans-34" x="159.033203"/>
       <use xlink:href="#DejaVuSans-36" x="222.65625"/>
       <use xlink:href="#DejaVuSans-30" x="286.279297"/>
      </g>
     </g>
    </g>
    <g id="ytick_3">
     <g id="line2d_8">
      <g>
       <use xlink:href="#m0ee49f4339" x="90" y="417.557133" style="stroke: #000000; stroke-width: 0.8"/>
      </g>
     </g>
     <g id="text_8">
      <!-- 52.465 -->
      <g transform="translate(48.009375 421.356352) scale(0.1 -0.1)">
       <use xlink:href="#DejaVuSans-35"/>
       <use xlink:href="#DejaVuSans-32" x="63.623047"/>
       <use xlink:href="#DejaVuSans-2e" x="127.246094"/>
       <use xlink:href="#DejaVuSans-34" x="159.033203"/>
       <use xlink:href="#DejaVuSans-36" x="222.65625"/>
       <use xlink:href="#DejaVuSans-35" x="286.279297"/>
      </g>
     </g>
    </g>
    <g id="ytick_4">
     <g id="line2d_9">
      <g>
       <use xlink:href="#m0ee49f4339" x="90" y="322.789352" style="stroke: #000000; stroke-width: 0.8"/>
      </g>
     </g>
     <g id="text_9">
      <!-- 52.470 -->
      <g transform="translate(48.009375 326.58857) scale(0.1 -0.1)">
       <defs>
        <path id="DejaVuSans-37" d="M 525 4666 
L 3525 4666 
L 3525 4397 
L 1831 0 
L 1172 0 
L 2766 4134 
L 525 4134 
L 525 4666 
z
" transform="scale(0.015625)"/>
       </defs>
       <use xlink:href="#DejaVuSans-35"/>
       <use xlink:href="#DejaVuSans-32" x="63.623047"/>
       <use xlink:href="#DejaVuSans-2e" x="127.246094"/>
       <use xlink:href="#DejaVuSans-34" x="159.033203"/>
       <use xlink:href="#DejaVuSans-37" x="222.65625"/>
       <use xlink:href="#DejaVuSans-30" x="286.279297"/>
      </g>
     </g>
    </g>
    <g id="ytick_5">
     <g id="line2d_10">
      <g>
       <use xlink:href="#m0ee49f4339" x="90" y="228.02157" style="stroke: #000000; stroke-width: 0.8"/>
      </g>
     </g>
     <g id="text_10">
      <!-- 52.475 -->
      <g transform="translate(48.009375 231.820789) scale(0.1 -0.1)">
       <use xlink:href="#DejaVuSans-35"/>
       <use xlink:href="#DejaVuSans-32" x="63.623047"/>
       <use xlink:href="#DejaVuSans-2e" x="127.246094"/>
       <use xlink:href="#DejaVuSans-34" x="159.033203"/>
       <use xlink:href="#DejaVuSans-37" x="222.65625"/>
       <use xlink:href="#DejaVuSans-35" x="286.279297"/>
      </g>
     </g>
    </g>
    <g id="ytick_6">
     <g id="line2d_11">
      <g>
       <use xlink:href="#m0ee49f4339" x="90" y="133.253788" style="stroke: #000000; stroke-width: 0.8"/>
      </g>
     </g>
     <g id="text_11">
      <!-- 52.480 -->
      <g transform="translate(48.009375 137.053007) scale(0.1 -0.1)">
       <defs>
        <path id="DejaVuSans-38" d="M 2034 2216 
Q 1584 2216 1326 1975 
Q 1069 1734 1069 1313 
Q 1069 891 1326 650 
Q 1584 409 2034 409 
Q 2484 409 2743 651 
Q 3003 894 3003 1313 
Q 3003 1734 2745 1975 
Q 2488 2216 2034 2216 
z
M 1403 2484 
Q 997 2584 770 2862 
Q 544 3141 544 3541 
Q 544 4100 942 4425 
Q 1341 4750 2034 4750 
Q 2731 4750 3128 4425 
Q 3525 4100 3525 3541 
Q 3525 3141 3298 2862 
Q 3072 2584 2669 2484 
Q 3125 2378 3379 2068 
Q 3634 1759 3634 1313 
Q 3634 634 3220 271 
Q 2806 -91 2034 -91 
Q 1263 -91 848 271 
Q 434 634 434 1313 
Q 434 1759 690 2068 
Q 947 2378 1403 2484 
z
M 1172 3481 
Q 1172 3119 1398 2916 
Q 1625 2713 2034 2713 
Q 2441 2713 2670 2916 
Q 2900 3119 2900 3481 
Q 2900 3844 2670 4047 
Q 2441 4250 2034 4250 
Q 1625 4250 1398 4047 
Q 1172 3844 1172 3481 
z
" transform="scale(0.015625)"/>
       </defs>
       <use xlink:href="#DejaVuSans-35"/>
       <use xlink:href="#DejaVuSans-32" x="63.623047"/>
       <use xlink:href="#DejaVuSans-2e" x="127.246094"/>
       <use xlink:href="#DejaVuSans-34" x="159.033203"/>
       <use xlink:href="#DejaVuSans-38" x="222.65625"/>
       <use xlink:href="#DejaVuSans-30" x="286.279297"/>
      </g>
     </g>
    </g>
   </g>
   <g id="LineCollection_1">
    <path d="M 237.821438 219.99853 
L 240.647582 217.233206 
L 243.4668 214.473568 
L 240.655664 211.602104 
L 237.918414 208.804559 
L 235.102659 211.558511 
L 232.271897 214.327626 
L 234.911017 217.024717 
L 237.821438 219.99853 
" clip-path="url(#pf3de3faeeb)" style="fill: none; stroke: #ff0000; stroke-opacity: 0.7; stroke-width: 0.5"/>
    <path d="M 593.916799 235.03249 
L 597.555691 233.993836 
" clip-path="url(#pf3de3faeeb)" style="fill: none; stroke: #ff0000; stroke-opacity: 0.7; stroke-width: 0.5"/>
    <path d="M 595.576928 233.08217 
L 593.916799 235.03249 
" clip-path="url(#pf3de3faeeb)" style="fill: none; stroke: #ff0000; stroke-opacity: 0.7; stroke-width: 0.5"/>
    <path d="M 372.497382 253.044055 
L 370.858034 233.408171 
" clip-path="url(#pf3de3faeeb)" style="fill: none; stroke: #ff0000; stroke-opacity: 0.7; stroke-width: 0.5"/>
    <path d="M 353.035314 232.593168 
L 353.216566 232.574214 
L 357.836758 232.236841 
L 358.104595 232.217887 
L 358.539831 232.301283 
L 358.951977 232.521144 
L 359.215196 232.773227 
L 359.356041 233.065111 
L 359.4357 233.362682 
L 359.364123 233.747439 
L 359.147082 234.189057 
L 358.777652 234.488523 
L 358.527131 234.62878 
L 358.255831 234.71028 
L 357.72362 234.744396 
L 355.038321 234.916874 
L 353.168078 235.036281 
L 352.971818 235.047653 
" clip-path="url(#pf3de3faeeb)" style="fill: none; stroke: #ff0000; stroke-opacity: 0.7; stroke-width: 0.5"/>
    <path d="M 368.829629 226.266471 
L 365.808379 226.357448 
L 365.765663 229.729285 
L 365.758736 230.322532 
L 365.741419 232.342981 
L 365.712558 233.019623 
L 365.687159 233.61666 
L 365.644444 237.708733 
L 365.643289 238.235641 
L 365.642135 238.637457 
L 365.598265 242.735216 
L 365.594802 243.152194 
L 365.592493 243.555905 
L 365.550932 247.672617 
L 365.546314 248.138875 
L 365.54285 248.548272 
L 365.501289 252.653612 
L 365.466655 252.892427 
L 365.381224 253.296137 
L 365.300412 253.713116 
L 365.161875 254.444723 
L 365.165338 256.777906 
L 365.165338 257.138023 
L 365.169956 259.44088 
L 368.198133 259.338531 
L 368.812312 259.317682 
L 371.793155 259.217228 
L 371.631529 256.916267 
L 371.606131 256.558044 
L 371.451432 254.204013 
L 371.302505 253.553906 
L 371.187058 253.083858 
L 371.109709 252.719949 
L 371.051985 252.448913 
L 370.707953 248.368213 
L 370.673319 247.922804 
L 370.639839 247.492558 
L 370.296961 243.400486 
L 370.263481 242.99867 
L 370.230002 242.594959 
L 369.882506 238.482038 
L 369.851335 238.120025 
L 369.80862 237.613965 
L 369.47036 233.529473 
L 369.423027 233.180728 
L 369.374539 232.830087 
L 369.292572 232.238736 
L 369.182897 230.280834 
L 369.128637 229.657262 
L 368.829629 226.266471 
" clip-path="url(#pf3de3faeeb)" style="fill: none; stroke: #ff0000; stroke-opacity: 0.7; stroke-width: 0.5"/>
    <path d="M 366.719256 262.031831 
L 366.556476 280.333386 
L 366.50337 283.745026 
L 366.244769 290.920842 
" clip-path="url(#pf3de3faeeb)" style="fill: none; stroke: #ff0000; stroke-opacity: 0.7; stroke-width: 0.5"/>
    <path d="M 359.593862 233.353205 
L 360.284236 233.315298 
" clip-path="url(#pf3de3faeeb)" style="fill: none; stroke: #ff0000; stroke-opacity: 0.7; stroke-width: 0.5"/>
    <path d="M 364.284477 233.789137 
L 364.108998 252.843147 
" clip-path="url(#pf3de3faeeb)" style="fill: none; stroke: #ff0000; stroke-opacity: 0.7; stroke-width: 0.5"/>
    <path d="M 291.342704 192.284639 
L 264.041779 192.193662 
" clip-path="url(#pf3de3faeeb)" style="fill: none; stroke: #ff0000; stroke-opacity: 0.7; stroke-width: 0.5"/>
    <path d="M 611.383942 242.452808 
L 612.373323 240.091195 
" clip-path="url(#pf3de3faeeb)" style="fill: none; stroke: #ff0000; stroke-opacity: 0.7; stroke-width: 0.5"/>
    <path d="M 300.478031 294.336273 
L 314.581046 294.762728 
" clip-path="url(#pf3de3faeeb)" style="fill: none; stroke: #ff0000; stroke-opacity: 0.7; stroke-width: 0.5"/>
    <path d="M 369.872116 210.614624 
L 367.888735 217.312811 
L 367.61628 218.43107 
L 367.37615 219.774878 
L 367.207597 221.3575 
L 367.162573 223.768392 
" clip-path="url(#pf3de3faeeb)" style="fill: none; stroke: #ff0000; stroke-opacity: 0.7; stroke-width: 0.5"/>
    <path d="M 233.480628 214.829895 
L 237.268446 218.736223 
L 237.432381 218.829095 
L 237.625178 218.891642 
L 237.8503 218.899223 
L 238.051178 218.861316 
L 238.230121 218.779816 
L 238.420608 218.658513 
L 242.188801 214.949302 
L 242.270768 214.846953 
L 242.345809 214.683952 
L 242.37698 214.520952 
L 242.373516 214.342788 
L 242.335419 214.147567 
L 242.266151 213.97888 
L 242.159939 213.859473 
L 238.39521 210.030854 
L 238.271682 209.964517 
L 238.142381 209.905761 
L 237.935731 209.869749 
L 237.740625 209.884912 
L 237.513194 209.95504 
L 237.35965 210.057389 
L 233.718449 213.6036 
L 233.409051 213.965613 
L 233.352482 214.100183 
L 233.324774 214.255602 
L 233.328238 214.399649 
L 233.342091 214.526638 
L 233.396351 214.680162 
L 233.480628 214.829895 
" clip-path="url(#pf3de3faeeb)" style="fill: none; stroke: #ff0000; stroke-opacity: 0.7; stroke-width: 0.5"/>
    <path d="M 366.244769 290.920842 
L 366.196281 292.780186 
" clip-path="url(#pf3de3faeeb)" style="fill: none; stroke: #ff0000; stroke-opacity: 0.7; stroke-width: 0.5"/>
    <path d="M 366.196281 292.780186 
L 366.187045 292.992466 
L 366.170883 293.33363 
L 366.132785 294.125888 
" clip-path="url(#pf3de3faeeb)" style="fill: none; stroke: #ff0000; stroke-opacity: 0.7; stroke-width: 0.5"/>
    <path d="M 264.373112 296.944282 
L 263.975974 297.283551 
L 263.546511 297.554587 
L 263.081259 297.764971 
L 262.592918 297.931763 
L 262.169227 298.007577 
L 261.68204 298.039798 
L 261.415358 298.02653 
L 261.149829 297.994309 
L 260.684577 297.914704 
L 260.108497 297.700529 
L 259.609765 297.423807 
L 259.202237 297.11676 
L 258.828188 296.758537 
L 258.511863 296.335873 
L 258.262498 295.901837 
L 258.048921 295.427998 
L 257.920774 294.929519 
L 257.867669 294.444308 
L 257.853815 294.163796 
L 257.866514 293.860539 
L 257.951945 293.381014 
L 258.068547 292.903384 
L 258.290205 292.42765 
L 258.556888 291.986032 
L 258.883603 291.570949 
L 259.248416 291.225994 
L 259.650172 290.939796 
L 260.073862 290.699085 
L 260.525261 290.53419 
L 260.998594 290.40341 
L 261.504252 290.352235 
L 261.735146 290.344654 
L 262.013373 290.352235 
L 262.483243 290.42805 
L 262.941568 290.549352 
L 263.402202 290.754051 
L 263.817811 290.99097 
L 264.220722 291.299913 
L 264.556673 291.629705 
L 264.849908 292.020148 
L 265.103892 292.433336 
L 265.290916 292.882535 
L 265.431761 293.341211 
L 265.502184 293.65205 
L 265.526428 293.951516 
L 265.540282 294.144842 
L 265.525274 294.50496 
L 265.461778 294.895403 
L 265.376347 295.287741 
L 265.200867 295.744522 
L 264.980363 296.180454 
L 264.698672 296.578479 
L 264.373112 296.944282 
" clip-path="url(#pf3de3faeeb)" style="fill: none; stroke: #ff0000; stroke-opacity: 0.7; stroke-width: 0.5"/>
    <path d="M 363.468266 232.63297 
L 363.803063 232.621598 
" clip-path="url(#pf3de3faeeb)" style="fill: none; stroke: #ff0000; stroke-opacity: 0.7; stroke-width: 0.5"/>
    <path d="M 360.284236 233.315298 
L 360.601715 233.296345 
L 363.797291 233.112495 
L 363.859632 233.1106 
" clip-path="url(#pf3de3faeeb)" style="fill: none; stroke: #ff0000; stroke-opacity: 0.7; stroke-width: 0.5"/>
    <path d="M 359.215196 232.773227 
L 359.65274 232.758064 
L 363.468266 232.63297 
" clip-path="url(#pf3de3faeeb)" style="fill: none; stroke: #ff0000; stroke-opacity: 0.7; stroke-width: 0.5"/>
    <path d="M 369.933303 225.083769 
L 369.525775 224.911291 
L 369.08823 224.886652 
L 368.512149 224.894233 
L 368.265093 224.90371 
L 367.182199 224.941617 
L 366.240151 224.975733 
L 365.92498 224.987106 
L 365.343127 225.025013 
L 364.919436 225.102722 
L 364.62851 225.231606 
" clip-path="url(#pf3de3faeeb)" style="fill: none; stroke: #ff0000; stroke-opacity: 0.7; stroke-width: 0.5"/>
    <path d="M 364.127469 260.039813 
L 364.25677 260.29 
L 364.481892 260.490907 
L 364.710477 260.585675 
L 365.130704 260.617896 
L 366.730801 260.561036 
" clip-path="url(#pf3de3faeeb)" style="fill: none; stroke: #ff0000; stroke-opacity: 0.7; stroke-width: 0.5"/>
    <path d="M 364.091681 254.683538 
L 364.030494 259.46552 
L 364.054738 259.751719 
L 364.127469 260.039813 
" clip-path="url(#pf3de3faeeb)" style="fill: none; stroke: #ff0000; stroke-opacity: 0.7; stroke-width: 0.5"/>
    <path d="M 364.108998 252.843147 
L 364.100916 253.733965 
L 364.091681 254.683538 
" clip-path="url(#pf3de3faeeb)" style="fill: none; stroke: #ff0000; stroke-opacity: 0.7; stroke-width: 0.5"/>
    <path d="M 364.62851 225.231606 
L 364.4969 225.51591 
L 364.427632 225.883609 
L 364.364136 226.302482 
L 364.308721 231.527978 
" clip-path="url(#pf3de3faeeb)" style="fill: none; stroke: #ff0000; stroke-opacity: 0.7; stroke-width: 0.5"/>
    <path d="M 364.308721 231.527978 
L 364.302949 232.068154 
L 364.292559 233.089751 
L 364.284477 233.789137 
" clip-path="url(#pf3de3faeeb)" style="fill: none; stroke: #ff0000; stroke-opacity: 0.7; stroke-width: 0.5"/>
    <path d="M 368.320507 260.50607 
L 371.779302 260.375291 
L 372.222618 260.310849 
L 372.586277 260.193337 
L 372.807935 260.007592 
L 372.90722 259.78773 
L 372.964943 259.404869 
L 372.978797 258.815413 
L 372.668244 255.098621 
" clip-path="url(#pf3de3faeeb)" style="fill: none; stroke: #ff0000; stroke-opacity: 0.7; stroke-width: 0.5"/>
    <path d="M 370.712571 231.658757 
L 370.236929 225.923411 
L 370.154961 225.489375 
L 369.933303 225.083769 
" clip-path="url(#pf3de3faeeb)" style="fill: none; stroke: #ff0000; stroke-opacity: 0.7; stroke-width: 0.5"/>
    <path d="M 370.858034 233.408171 
L 370.802619 232.750482 
L 370.712571 231.658757 
" clip-path="url(#pf3de3faeeb)" style="fill: none; stroke: #ff0000; stroke-opacity: 0.7; stroke-width: 0.5"/>
    <path d="M 372.668244 255.098621 
L 372.53548 253.500836 
L 372.497382 253.044055 
" clip-path="url(#pf3de3faeeb)" style="fill: none; stroke: #ff0000; stroke-opacity: 0.7; stroke-width: 0.5"/>
    <path d="M 366.730801 260.561036 
L 367.914133 260.519338 
L 368.320507 260.50607 
" clip-path="url(#pf3de3faeeb)" style="fill: none; stroke: #ff0000; stroke-opacity: 0.7; stroke-width: 0.5"/>
    <path d="M 367.162573 223.768392 
L 367.170654 224.257394 
L 367.182199 224.941617 
" clip-path="url(#pf3de3faeeb)" style="fill: none; stroke: #ff0000; stroke-opacity: 0.7; stroke-width: 0.5"/>
    <path d="M 370.287725 209.105921 
L 370.123791 209.702958 
L 370.016425 210.08961 
L 369.872116 210.614624 
" clip-path="url(#pf3de3faeeb)" style="fill: none; stroke: #ff0000; stroke-opacity: 0.7; stroke-width: 0.5"/>
    <path d="M 337.200593 295.513289 
L 345.967644 295.799487 
L 349.047772 295.899941 
" clip-path="url(#pf3de3faeeb)" style="fill: none; stroke: #ff0000; stroke-opacity: 0.7; stroke-width: 0.5"/>
    <path d="M 334.582253 295.427998 
L 334.831618 295.435579 
L 335.915667 295.471591 
L 336.97778 295.505707 
L 337.200593 295.513289 
" clip-path="url(#pf3de3faeeb)" style="fill: none; stroke: #ff0000; stroke-opacity: 0.7; stroke-width: 0.5"/>
    <path d="M 349.047772 295.899941 
L 349.254422 295.907523 
L 350.412356 295.949221 
" clip-path="url(#pf3de3faeeb)" style="fill: none; stroke: #ff0000; stroke-opacity: 0.7; stroke-width: 0.5"/>
    <path d="M 359.4357 233.362682 
L 359.593862 233.353205 
" clip-path="url(#pf3de3faeeb)" style="fill: none; stroke: #ff0000; stroke-opacity: 0.7; stroke-width: 0.5"/>
    <path d="M 366.730801 260.561036 
L 366.727337 261.285061 
L 366.719256 262.031831 
" clip-path="url(#pf3de3faeeb)" style="fill: none; stroke: #ff0000; stroke-opacity: 0.7; stroke-width: 0.5"/>
    <path d="M 317.848199 294.887821 
L 334.582253 295.427998 
" clip-path="url(#pf3de3faeeb)" style="fill: none; stroke: #ff0000; stroke-opacity: 0.7; stroke-width: 0.5"/>
    <path d="M 298.054797 294.262354 
L 300.478031 294.336273 
" clip-path="url(#pf3de3faeeb)" style="fill: none; stroke: #ff0000; stroke-opacity: 0.7; stroke-width: 0.5"/>
    <path d="M 294.137678 292.878744 
L 295.87862 293.84348 
L 296.25844 294.034911 
" clip-path="url(#pf3de3faeeb)" style="fill: none; stroke: #ff0000; stroke-opacity: 0.7; stroke-width: 0.5"/>
    <path d="M 314.581046 294.762728 
L 314.971257 294.777891 
L 315.378786 294.793054 
L 316.435126 294.832856 
L 317.431435 294.872659 
L 317.848199 294.887821 
" clip-path="url(#pf3de3faeeb)" style="fill: none; stroke: #ff0000; stroke-opacity: 0.7; stroke-width: 0.5"/>
    <path d="M 296.25844 294.034911 
L 296.607091 294.1619 
L 297.103513 294.233924 
" clip-path="url(#pf3de3faeeb)" style="fill: none; stroke: #ff0000; stroke-opacity: 0.7; stroke-width: 0.5"/>
    <path d="M 297.103513 294.233924 
L 298.054797 294.262354 
" clip-path="url(#pf3de3faeeb)" style="fill: none; stroke: #ff0000; stroke-opacity: 0.7; stroke-width: 0.5"/>
    <path d="M 597.300553 230.513963 
L 596.91265 231.122372 
L 596.356195 231.93927 
L 595.576928 233.08217 
" clip-path="url(#pf3de3faeeb)" style="fill: none; stroke: #ff0000; stroke-opacity: 0.7; stroke-width: 0.5"/>
    <path d="M 597.555691 233.993836 
L 598.378828 232.653819 
L 598.827917 231.922212 
L 599.027641 231.598106 
" clip-path="url(#pf3de3faeeb)" style="fill: none; stroke: #ff0000; stroke-opacity: 0.7; stroke-width: 0.5"/>
    <path d="M 612.945941 238.792876 
L 613.378867 237.831931 
L 613.79794 236.901311 
" clip-path="url(#pf3de3faeeb)" style="fill: none; stroke: #ff0000; stroke-opacity: 0.7; stroke-width: 0.5"/>
    <path d="M 511.385991 151.339272 
L 510.953064 151.434039 
L 510.452024 151.564819 
L 509.352968 151.824483 
" clip-path="url(#pf3de3faeeb)" style="fill: none; stroke: #ff0000; stroke-opacity: 0.7; stroke-width: 0.5"/>
    <path d="M 612.373323 240.091195 
L 612.945941 238.792876 
" clip-path="url(#pf3de3faeeb)" style="fill: none; stroke: #ff0000; stroke-opacity: 0.7; stroke-width: 0.5"/>
    <path d="M 264.041779 192.193662 
L 263.730071 192.195558 
L 262.781096 192.195558 
" clip-path="url(#pf3de3faeeb)" style="fill: none; stroke: #ff0000; stroke-opacity: 0.7; stroke-width: 0.5"/>
   </g>
   <g id="patch_3">
    <path d="M 90 618.482404 
L 90 108.717596 
" style="fill: none; stroke: #000000; stroke-width: 0.8; stroke-linejoin: miter; stroke-linecap: square"/>
   </g>
   <g id="patch_4">
    <path d="M 648 618.482404 
L 648 108.717596 
" style="fill: none; stroke: #000000; stroke-width: 0.8; stroke-linejoin: miter; stroke-linecap: square"/>
   </g>
   <g id="patch_5">
    <path d="M 90 618.482404 
L 648 618.482404 
" style="fill: none; stroke: #000000; stroke-width: 0.8; stroke-linejoin: miter; stroke-linecap: square"/>
   </g>
   <g id="patch_6">
    <path d="M 90 108.717596 
L 648 108.717596 
" style="fill: none; stroke: #000000; stroke-width: 0.8; stroke-linejoin: miter; stroke-linecap: square"/>
   </g>
   <g id="text_12">
    <!-- Friedenau -->
    <g transform="translate(348.927532 322.398438) scale(0.12 -0.12)">
     <defs>
      <path id="DejaVuSans-46" d="M 628 4666 
L 3309 4666 
L 3309 4134 
L 1259 4134 
L 1259 2759 
L 3109 2759 
L 3109 2228 
L 1259 2228 
L 1259 0 
L 628 0 
L 628 4666 
z
" transform="scale(0.015625)"/>
      <path id="DejaVuSans-72" d="M 2631 2963 
Q 2534 3019 2420 3045 
Q 2306 3072 2169 3072 
Q 1681 3072 1420 2755 
Q 1159 2438 1159 1844 
L 1159 0 
L 581 0 
L 581 3500 
L 1159 3500 
L 1159 2956 
Q 1341 3275 1631 3429 
Q 1922 3584 2338 3584 
Q 2397 3584 2469 3576 
Q 2541 3569 2628 3553 
L 2631 2963 
z
" transform="scale(0.015625)"/>
      <path id="DejaVuSans-69" d="M 603 3500 
L 1178 3500 
L 1178 0 
L 603 0 
L 603 3500 
z
M 603 4863 
L 1178 4863 
L 1178 4134 
L 603 4134 
L 603 4863 
z
" transform="scale(0.015625)"/>
      <path id="DejaVuSans-65" d="M 3597 1894 
L 3597 1613 
L 953 1613 
Q 991 1019 1311 708 
Q 1631 397 2203 397 
Q 2534 397 2845 478 
Q 3156 559 3463 722 
L 3463 178 
Q 3153 47 2828 -22 
Q 2503 -91 2169 -91 
Q 1331 -91 842 396 
Q 353 884 353 1716 
Q 353 2575 817 3079 
Q 1281 3584 2069 3584 
Q 2775 3584 3186 3129 
Q 3597 2675 3597 1894 
z
M 3022 2063 
Q 3016 2534 2758 2815 
Q 2500 3097 2075 3097 
Q 1594 3097 1305 2825 
Q 1016 2553 972 2059 
L 3022 2063 
z
" transform="scale(0.015625)"/>
      <path id="DejaVuSans-64" d="M 2906 2969 
L 2906 4863 
L 3481 4863 
L 3481 0 
L 2906 0 
L 2906 525 
Q 2725 213 2448 61 
Q 2172 -91 1784 -91 
Q 1150 -91 751 415 
Q 353 922 353 1747 
Q 353 2572 751 3078 
Q 1150 3584 1784 3584 
Q 2172 3584 2448 3432 
Q 2725 3281 2906 2969 
z
M 947 1747 
Q 947 1113 1208 752 
Q 1469 391 1925 391 
Q 2381 391 2643 752 
Q 2906 1113 2906 1747 
Q 2906 2381 2643 2742 
Q 2381 3103 1925 3103 
Q 1469 3103 1208 2742 
Q 947 2381 947 1747 
z
" transform="scale(0.015625)"/>
      <path id="DejaVuSans-6e" d="M 3513 2113 
L 3513 0 
L 2938 0 
L 2938 2094 
Q 2938 2591 2744 2837 
Q 2550 3084 2163 3084 
Q 1697 3084 1428 2787 
Q 1159 2491 1159 1978 
L 1159 0 
L 581 0 
L 581 3500 
L 1159 3500 
L 1159 2956 
Q 1366 3272 1645 3428 
Q 1925 3584 2291 3584 
Q 2894 3584 3203 3211 
Q 3513 2838 3513 2113 
z
" transform="scale(0.015625)"/>
      <path id="DejaVuSans-61" d="M 2194 1759 
Q 1497 1759 1228 1600 
Q 959 1441 959 1056 
Q 959 750 1161 570 
Q 1363 391 1709 391 
Q 2188 391 2477 730 
Q 2766 1069 2766 1631 
L 2766 1759 
L 2194 1759 
z
M 3341 1997 
L 3341 0 
L 2766 0 
L 2766 531 
Q 2569 213 2275 61 
Q 1981 -91 1556 -91 
Q 1019 -91 701 211 
Q 384 513 384 1019 
Q 384 1609 779 1909 
Q 1175 2209 1959 2209 
L 2766 2209 
L 2766 2266 
Q 2766 2663 2505 2880 
Q 2244 3097 1772 3097 
Q 1472 3097 1187 3025 
Q 903 2953 641 2809 
L 641 3341 
Q 956 3463 1253 3523 
Q 1550 3584 1831 3584 
Q 2591 3584 2966 3190 
Q 3341 2797 3341 1997 
z
" transform="scale(0.015625)"/>
      <path id="DejaVuSans-75" d="M 544 1381 
L 544 3500 
L 1119 3500 
L 1119 1403 
Q 1119 906 1312 657 
Q 1506 409 1894 409 
Q 2359 409 2629 706 
Q 2900 1003 2900 1516 
L 2900 3500 
L 3475 3500 
L 3475 0 
L 2900 0 
L 2900 538 
Q 2691 219 2414 64 
Q 2138 -91 1772 -91 
Q 1169 -91 856 284 
Q 544 659 544 1381 
z
M 1991 3584 
L 1991 3584 
z
" transform="scale(0.015625)"/>
     </defs>
     <use xlink:href="#DejaVuSans-46"/>
     <use xlink:href="#DejaVuSans-72" x="50.269531"/>
     <use xlink:href="#DejaVuSans-69" x="91.382812"/>
     <use xlink:href="#DejaVuSans-65" x="119.166016"/>
     <use xlink:href="#DejaVuSans-64" x="180.689453"/>
     <use xlink:href="#DejaVuSans-65" x="244.166016"/>
     <use xlink:href="#DejaVuSans-6e" x="305.689453"/>
     <use xlink:href="#DejaVuSans-61" x="369.068359"/>
     <use xlink:href="#DejaVuSans-75" x="430.347656"/>
    </g>
   </g>
  </g>
 </g>
 <defs>
  <clipPath id="pf3de3faeeb">
   <rect x="90" y="108.717596" width="558" height="509.764809"/>
  </clipPath>
 </defs>
</svg>
