<?xml version="1.0" encoding="utf-8" standalone="no"?>
<!DOCTYPE svg PUBLIC "-//W3C//DTD SVG 1.1//EN"
  "http://www.w3.org/Graphics/SVG/1.1/DTD/svg11.dtd">
<svg xmlns:xlink="http://www.w3.org/1999/xlink" width="460.8pt" height="345.6pt" viewBox="0 0 460.8 345.6" xmlns="http://www.w3.org/2000/svg" version="1.1">
 <metadata>
  <rdf:RDF xmlns:dc="http://purl.org/dc/elements/1.1/" xmlns:cc="http://creativecommons.org/ns#" xmlns:rdf="http://www.w3.org/1999/02/22-rdf-syntax-ns#">
   <cc:Work>
    <dc:type rdf:resource="http://purl.org/dc/dcmitype/StillImage"/>
    <dc:date>2024-10-17T11:33:15.135756</dc:date>
    <dc:format>image/svg+xml</dc:format>
    <dc:creator>
     <cc:Agent>
      <dc:title>Matplotlib v3.9.2, https://matplotlib.org/</dc:title>
     </cc:Agent>
    </dc:creator>
   </cc:Work>
  </rdf:RDF>
 </metadata>
 <defs>
  <style type="text/css">*{stroke-linejoin: round; stroke-linecap: butt}</style>
 </defs>
 <g id="figure_1">
  <g id="patch_1">
   <path d="M 0 345.6 
L 460.8 345.6 
L 460.8 0 
L 0 0 
z
" style="fill: #ffffff"/>
  </g>
  <g id="axes_1">
   <g id="patch_2">
    <path d="M 97.085009 307.584 
L 375.234991 307.584 
L 375.234991 41.472 
L 97.085009 41.472 
z
" style="fill: #ffffff"/>
   </g>
   <g id="PatchCollection_1">
    <path d="M 211.589635 190.079453 
L 211.486309 190.592828 
L 212.664632 190.752498 
L 213.948944 190.926717 
L 215.560299 191.145038 
L 216.941102 191.332659 
L 217.17171 191.363425 
L 217.278994 190.906955 
L 217.408346 190.356488 
L 217.757922 190.435747 
L 218.092314 190.511223 
L 219.508785 190.830302 
L 220.869461 191.137245 
L 221.039544 191.175541 
L 222.457822 191.495298 
L 223.020181 191.633413 
L 223.586081 191.771402 
L 224.713911 192.049442 
L 225.841952 192.326492 
L 226.969992 192.603605 
L 228.100652 192.881079 
L 229.216718 193.155287 
L 229.229628 193.158765 
L 229.633102 193.25791 
L 230.358306 193.43617 
L 231.48738 193.713164 
L 232.616397 193.99028 
L 233.745526 194.267282 
L 234.874195 194.544705 
L 235.813442 194.775288 
L 236.000173 194.821311 
L 237.128133 195.098349 
L 239.334896 195.65001 
L 239.622309 195.721818 
L 239.98064 195.80879 
L 240.059382 195.827901 
L 240.354228 195.89945 
L 242.730743 196.476226 
L 243.855134 196.74666 
L 244.984558 197.022069 
L 246.113684 197.297197 
L 247.241204 197.573526 
L 248.373315 197.846975 
L 249.504295 198.122139 
L 250.632937 198.396712 
L 251.759988 198.673301 
L 252.888494 198.947128 
L 254.017365 199.221885 
L 255.146291 199.496586 
L 256.153646 199.741071 
L 259.085292 200.454032 
L 259.272355 200.499539 
L 260.100736 200.714629 
L 260.319883 200.772627 
L 261.660691 201.127166 
L 262.314156 201.299958 
L 262.511631 201.352141 
L 263.085311 201.503867 
L 264.514142 200.354382 
L 265.573568 199.502049 
L 266.521919 198.739136 
L 267.487444 197.962437 
L 267.550684 197.91158 
L 267.663941 197.820433 
L 267.756366 197.746 
L 268.52846 197.124918 
L 268.697291 196.98918 
L 269.647488 196.224727 
L 270.602384 195.456516 
L 271.550018 194.694217 
L 272.318635 194.075892 
L 272.49926 193.930666 
L 273.562968 193.074901 
L 274.856721 194.890158 
L 275.013311 195.119728 
L 275.759276 196.181478 
L 276.286807 196.375193 
L 282.886065 198.979581 
L 283.564269 199.25239 
L 286.988962 202.164936 
L 289.211841 204.074758 
L 289.64371 204.445759 
L 290.642008 203.660586 
L 291.561304 202.937583 
L 292.534937 202.171883 
L 293.569378 201.358354 
L 294.788523 200.399538 
L 296.17079 199.312398 
L 297.288082 200.735364 
L 298.406909 202.160228 
L 298.49332 202.044322 
L 298.545265 201.979938 
L 299.459288 201.10995 
L 300.481411 200.136637 
L 301.69539 198.981317 
L 302.485573 198.229242 
L 303.231406 197.519151 
L 303.97799 196.808581 
L 304.723313 196.098795 
L 305.46864 195.389011 
L 306.213948 194.678006 
L 306.960279 193.968673 
L 307.750784 193.21684 
L 308.538945 192.466743 
L 309.330658 191.713785 
L 310.122304 190.960189 
L 311.002275 190.123342 
L 311.881669 189.286508 
L 312.806973 188.406561 
L 312.99924 188.221345 
L 313.811845 187.450347 
L 315.607302 188.546871 
L 315.663289 188.462372 
L 316.903268 186.43019 
L 317.148831 186.027751 
L 316.025779 185.339731 
L 315.750245 183.567308 
L 315.526347 182.127098 
L 315.455257 181.670401 
L 314.743773 177.113059 
L 314.724876 176.993225 
L 314.616045 176.302921 
L 314.226047 173.829291 
L 314.04515 172.677123 
L 313.865649 171.525162 
L 313.686148 170.373259 
L 313.254149 167.650665 
L 313.199683 167.307611 
L 312.550813 163.16501 
L 312.506004 162.877587 
L 312.376747 162.048894 
L 312.216719 161.032312 
L 311.997017 159.631352 
L 312.223947 159.449494 
L 312.451343 159.267627 
L 313.358152 158.540915 
L 314.265371 157.814082 
L 315.518603 156.809787 
L 315.673984 156.685637 
L 315.528873 155.633928 
L 315.504043 155.40992 
L 315.137 152.76596 
L 315.019403 151.939025 
L 314.914646 151.179136 
L 314.714578 149.709983 
L 314.517612 148.287963 
L 314.35815 147.132998 
L 314.198685 145.977975 
L 314.040369 144.825319 
L 313.880136 143.669728 
L 313.71996 142.514194 
L 313.560647 141.361324 
L 313.347882 139.821219 
L 313.135898 138.285644 
L 312.806951 135.902264 
L 312.065278 130.514697 
L 312.040591 130.33514 
L 312.274978 130.684953 
L 312.749697 131.110344 
L 313.24838 131.487737 
L 313.888102 131.75646 
L 314.012085 131.811597 
L 314.277292 131.896198 
L 314.771611 132.056361 
L 315.508556 132.391456 
L 315.65368 132.457959 
L 316.080788 132.534578 
L 316.571054 132.622227 
L 317.449673 132.958702 
L 317.937812 133.145614 
L 318.233748 133.207901 
L 318.720349 133.292361 
L 319.017342 133.315477 
L 319.481403 133.351662 
L 320.363111 133.664374 
L 320.739404 133.74663 
L 320.93009 133.788321 
L 322.317543 134.214503 
L 322.750083 134.354068 
L 324.271146 134.129842 
L 324.34229 134.096093 
L 324.460057 134.096413 
L 324.652378 134.068045 
L 324.855869 134.034046 
L 325.047988 133.970551 
L 325.440067 133.806357 
L 326.108532 133.375536 
L 326.424263 133.114685 
L 326.569967 132.975868 
L 326.909533 132.604799 
L 326.912818 132.60025 
L 327.950355 131.16514 
L 328.496738 131.462706 
L 330.723593 132.178005 
L 334.750597 133.47164 
L 334.870487 133.448969 
L 335.027554 133.262341 
L 335.957286 132.375863 
L 338.799208 131.008445 
L 343.470839 132.365577 
L 344.630674 132.301083 
L 344.731883 131.978781 
L 344.765048 131.872872 
L 345.052372 131.962617 
L 345.808452 132.198732 
L 347.128908 132.950824 
L 348.005926 133.269129 
L 348.865002 130.839519 
L 349.810241 131.181238 
L 349.736906 131.37932 
L 350.219886 131.552577 
L 350.260345 131.438841 
L 350.405342 131.48672 
L 351.166773 129.348646 
L 351.785844 129.568905 
L 351.870562 129.437958 
L 352.058224 129.140879 
L 352.838546 127.898281 
L 354.175072 125.767491 
L 355.113996 124.229771 
L 356.156779 122.453369 
L 356.981619 121.048206 
L 357.142443 120.831573 
L 357.566294 120.235628 
L 358.332983 118.924147 
L 359.097215 117.811912 
L 360.490694 115.53046 
L 361.510195 113.826181 
L 362.59181 112.092067 
L 361.516678 103.450956 
L 360.10097 103.485907 
L 357.927642 103.539581 
L 354.631255 103.293063 
L 354.449687 103.279491 
L 354.272362 103.225755 
L 353.936825 103.123922 
L 351.124046 100.929218 
L 349.793597 99.753735 
L 348.153078 99.474902 
L 317.095067 94.803625 
L 314.133924 94.383561 
L 312.398267 94.14631 
L 309.910792 93.806327 
L 306.781302 93.378602 
L 306.096024 93.323538 
L 292.91105 91.452193 
L 287.959829 90.749631 
L 255.962777 81.997752 
L 251.144807 80.693294 
L 250.870697 80.617779 
L 249.594583 80.247589 
L 243.997181 78.707843 
L 236.000445 76.506433 
L 232.787406 75.621281 
L 230.152856 74.903988 
L 227.366762 74.122834 
L 227.151021 74.062347 
L 221.431969 72.491962 
L 186.727436 62.918054 
L 186.403371 62.828678 
L 174.937715 59.666777 
L 171.125143 58.599407 
L 165.480066 57.056254 
L 165.197272 56.979069 
L 164.56631 56.805649 
L 162.155484 55.395184 
L 162.031563 55.322692 
L 161.932168 55.264516 
L 161.693324 55.124773 
L 161.16588 54.8162 
L 160.621334 54.679721 
L 160.506866 54.650623 
L 160.513909 53.67559 
L 160.527736 53.568 
L 160.183134 54.374059 
L 160.077655 54.923674 
L 160.019461 55.569251 
L 159.972686 55.927547 
L 159.649264 56.915667 
L 159.421628 57.310433 
L 159.391487 57.362703 
L 156.465129 62.438095 
L 156.227046 62.9225 
L 155.897157 63.564152 
L 154.130768 66.94822 
L 152.340221 72.659753 
L 151.21362 74.939727 
L 150.313841 76.28218 
L 149.764132 77.156666 
L 149.675052 77.298422 
L 149.468587 77.626827 
L 148.039835 80.871165 
L 148.010224 80.938458 
L 147.113382 82.974996 
L 146.971794 83.445334 
L 146.906443 83.919707 
L 146.810443 84.615961 
L 146.626783 85.232549 
L 146.601605 85.294569 
L 146.354012 85.905948 
L 145.167951 88.833942 
L 144.986794 89.281289 
L 144.709246 89.734321 
L 144.135265 90.539906 
L 143.761402 91.032007 
L 143.468512 91.419914 
L 142.139 93.10732 
L 142.027715 93.305039 
L 140.655796 95.742886 
L 139.821678 97.158073 
L 139.781054 97.226807 
L 139.421045 97.837553 
L 139.085938 98.390071 
L 138.918001 98.831919 
L 138.128709 103.98204 
L 138.217825 106.026093 
L 138.303298 107.988243 
L 138.520309 109.887732 
L 138.567709 110.324461 
L 138.615167 110.76119 
L 138.750891 112.010971 
L 138.886498 113.260755 
L 139.217753 115.197262 
L 139.501887 117.289151 
L 139.611162 117.890299 
L 139.666946 118.129356 
L 139.75607 118.450021 
L 139.837743 118.550894 
L 140.016279 118.771393 
L 140.185817 118.98065 
L 140.274441 119.074395 
L 140.295929 119.097102 
L 140.142127 119.10625 
L 140.504633 119.655456 
L 140.516435 119.673337 
L 140.452952 119.669985 
L 140.672975 119.836358 
L 140.838054 120.325127 
L 141.095335 120.719677 
L 141.745096 121.715973 
L 142.789128 123.580823 
L 142.874169 123.702372 
L 142.963621 123.820688 
L 143.057366 123.935598 
L 143.155285 124.046931 
L 143.257258 124.154572 
L 143.363167 124.258406 
L 143.472775 124.358206 
L 143.586022 124.453856 
L 143.828766 124.629047 
L 144.511711 125.121837 
L 146.989839 126.732645 
L 147.863171 127.241913 
L 147.960864 127.309264 
L 148.054933 127.381522 
L 148.145203 127.458633 
L 148.231319 127.540311 
L 148.313102 127.626328 
L 148.390374 127.716454 
L 148.46284 127.810519 
L 148.530377 127.908177 
L 148.592807 128.009199 
L 149.248745 129.159901 
L 150.198104 130.388089 
L 150.310713 130.561243 
L 151.121458 131.80859 
L 151.151898 131.855184 
L 152.40156 133.777666 
L 153.291093 135.146229 
L 154.164317 136.489654 
L 155.672709 139.104693 
L 155.830885 139.447486 
L 156.102801 140.036531 
L 157.01215 142.007203 
L 157.034607 142.055877 
L 158.308405 144.816008 
L 158.726524 145.689299 
L 158.793715 145.829638 
L 160.048069 148.449608 
L 160.317248 148.890551 
L 160.562739 149.291234 
L 160.674321 149.543415 
L 160.838461 150.007628 
L 160.991857 150.537109 
L 161.115995 150.965599 
L 161.182955 151.298999 
L 161.285997 151.825121 
L 161.392116 152.395753 
L 161.476891 153.096611 
L 161.498969 153.545436 
L 161.494226 153.615035 
L 161.479092 155.877935 
L 161.51498 156.278015 
L 164.506787 157.048075 
L 164.615788 157.076175 
L 164.904997 157.150611 
L 164.896905 157.242241 
L 164.598023 157.172422 
L 164.484811 157.145979 
L 161.759774 156.50952 
L 161.596816 156.471469 
L 161.530487 156.455934 
L 161.516465 156.580132 
L 161.272253 157.318503 
L 159.903167 161.458736 
L 159.756535 161.902076 
L 159.648757 162.228013 
L 159.40516 162.964625 
L 159.281141 163.339763 
L 159.216113 163.536392 
L 159.190211 163.614739 
L 159.009144 164.071398 
L 158.920434 164.275543 
L 158.884952 164.351339 
L 158.805739 164.648924 
L 158.786731 164.770657 
L 158.741461 165.01176 
L 158.715437 165.226559 
L 158.700373 165.350895 
L 158.679867 165.672554 
L 158.661821 166.200354 
L 158.678366 167.017153 
L 158.97894 168.119626 
L 159.271047 168.958513 
L 160.356277 172.075309 
L 160.367007 172.175367 
L 160.377681 172.275484 
L 160.391377 172.37263 
L 160.405072 172.469716 
L 160.469962 172.709297 
L 160.534854 172.948937 
L 160.572263 173.260311 
L 160.562423 173.533054 
L 160.51974 173.915508 
L 160.469354 173.963224 
L 160.298659 174.47159 
L 160.25505 174.616295 
L 160.205184 174.758968 
L 160.149229 174.899371 
L 160.087179 175.037155 
L 160.019203 175.172085 
L 159.945415 175.303982 
L 159.866039 175.432494 
L 159.781072 175.557387 
L 159.6908 175.67848 
L 157.818676 177.890229 
L 157.612103 178.082066 
L 157.408615 178.277104 
L 157.208212 178.475403 
L 157.010953 178.676904 
L 156.81695 178.881428 
L 156.365879 179.358426 
L 155.995967 179.706003 
L 155.475439 180.125931 
L 155.400201 180.14786 
L 155.207604 180.201284 
L 155.113393 180.257494 
L 154.938422 180.347452 
L 154.712836 180.434676 
L 154.607922 180.466569 
L 154.501569 180.493304 
L 154.393825 180.606353 
L 153.75432 180.861935 
L 152.826735 181.233298 
L 152.626322 181.436727 
L 151.6895 181.840727 
L 151.192247 182.329945 
L 151.115718 182.383828 
L 151.003798 182.559592 
L 150.963577 182.609789 
L 150.749361 182.838311 
L 150.38185 182.981407 
L 148.390156 185.53588 
L 148.352898 185.588991 
L 144.55234 190.404993 
L 141.238941 194.603718 
L 140.868288 195.181348 
L 140.695845 195.449955 
L 140.585187 195.662811 
L 140.436794 195.827238 
L 140.155828 196.138884 
L 138.103176 198.414625 
L 138.028901 198.473478 
L 129.115729 208.106323 
L 128.547785 208.666659 
L 128.51418 208.699209 
L 128.493108 208.71962 
L 127.856472 209.336285 
L 127.811788 209.387295 
L 127.776335 209.427766 
L 127.685863 209.516771 
L 127.598117 209.608461 
L 127.513154 209.702776 
L 127.431147 209.799655 
L 127.352094 209.89898 
L 127.277861 209.99821 
L 127.208422 210.116572 
L 127.061276 210.367325 
L 126.80619 210.773266 
L 126.702295 210.989373 
L 126.612221 211.160695 
L 126.436953 211.71019 
L 125.733972 214.712401 
L 125.529435 214.712713 
L 124.810467 218.130535 
L 123.33986 224.788489 
L 123.261372 225.132039 
L 123.265165 225.224485 
L 123.279922 225.735618 
L 123.507426 228.907572 
L 123.735378 232.197148 
L 123.189161 238.02944 
L 123.028671 240.023896 
L 122.427623 243.560387 
L 121.432604 249.415151 
L 121.388127 249.655896 
L 121.813162 249.659901 
L 121.765206 250.264503 
L 121.672614 251.305614 
L 121.631255 252.278129 
L 121.650402 252.858799 
L 121.61399 253.503782 
L 121.220557 255.192076 
L 120.659744 256.041559 
L 120.303788 256.485974 
L 120.121217 256.771457 
L 119.577686 257.672163 
L 119.326366 258.196018 
L 119.275549 258.315179 
L 119.227309 258.435396 
L 119.181762 258.556666 
L 119.138849 258.678934 
L 117.942509 265.292697 
L 117.968836 265.842288 
L 118.019873 266.333826 
L 118.072291 266.656319 
L 118.131453 267.020452 
L 118.132634 267.053872 
L 118.135178 267.124144 
L 118.04627 267.864376 
L 118.043734 268.116352 
L 118.024579 268.320998 
L 117.99683 268.555354 
L 117.750627 269.38883 
L 117.384678 270.608625 
L 117.274374 271.061524 
L 116.931324 272.309611 
L 116.427728 274.143746 
L 116.278198 274.678582 
L 115.277255 278.41232 
L 114.372134 281.788824 
L 114.027323 282.277888 
L 114.011559 282.347649 
L 113.746239 283.342021 
L 113.408852 284.606234 
L 112.836169 286.713385 
L 112.213582 288.817039 
L 112.143315 289.054393 
L 112.058846 289.322791 
L 112.009162 289.457778 
L 111.933167 289.643159 
L 111.88986 289.789265 
L 111.791457 289.981382 
L 111.608041 290.331617 
L 111.652227 290.362903 
L 111.692282 290.391469 
L 111.598181 290.535964 
L 111.431887 291.015144 
L 111.363998 291.004487 
L 111.31578 291.140144 
L 111.245651 291.337237 
L 111.222092 291.329722 
L 110.628587 292.525835 
L 110.033194 293.260202 
L 109.757334 293.600501 
L 109.72819 293.751803 
L 110.393469 293.757672 
L 110.678172 293.760129 
L 110.941669 293.762482 
L 110.939249 293.878472 
L 112.512109 293.949156 
L 113.385153 294.000614 
L 113.992946 294.019631 
L 114.285863 293.996702 
L 114.726318 294.011227 
L 116.041529 294.06093 
L 116.104788 294.069583 
L 116.316172 294.07472 
L 118.202746 294.184554 
L 118.422249 294.197806 
L 118.649628 294.206882 
L 118.664453 294.213347 
L 121.005393 294.342234 
L 121.010994 294.272558 
L 120.982223 294.271787 
L 121.286602 293.050126 
L 121.344225 292.875414 
L 121.41544 292.866324 
L 121.511847 292.873798 
L 122.87886 292.895882 
L 122.859236 294.244109 
L 124.786308 294.384122 
L 127.235052 294.574494 
L 129.122705 294.801835 
L 129.770157 294.894096 
L 130.413281 295.002641 
L 131.882966 295.242507 
L 132.162857 295.284 
L 132.728427 295.410394 
L 133.088555 295.488 
L 134.446318 294.14186 
L 134.519039 294.070219 
L 135.328013 293.461675 
L 135.522613 293.307112 
L 136.425318 292.599015 
L 136.480895 292.556611 
L 137.333785 291.906073 
L 137.7901 291.556067 
L 137.270851 291.531756 
L 139.450563 289.847884 
L 140.654325 288.908276 
L 140.811161 288.785806 
L 141.223526 288.460442 
L 142.281043 287.658483 
L 143.120153 287.005962 
L 143.951188 286.368052 
L 144.780017 285.732984 
L 145.611003 285.068453 
L 146.242017 284.58428 
L 149.981807 281.697952 
L 150.444781 281.339271 
L 150.552774 281.255974 
L 150.6867 281.152675 
L 154.08509 278.530812 
L 155.889063 277.138542 
L 156.657018 276.545897 
L 157.424975 275.953254 
L 158.192935 275.360613 
L 158.960899 274.767974 
L 159.728864 274.175279 
L 160.496836 273.582703 
L 164.296809 270.651688 
L 170.780235 265.652128 
L 171.022057 265.465203 
L 171.618666 264.999881 
L 171.789029 264.878562 
L 172.099843 264.65725 
L 173.37279 263.676402 
L 174.744712 262.619219 
L 175.198111 262.269913 
L 175.249789 262.229937 
L 175.440943 262.077845 
L 175.540829 262.344011 
L 176.017708 263.615098 
L 176.278511 264.310126 
L 176.589839 264.932561 
L 176.658621 265.182849 
L 176.770229 265.147104 
L 190.77319 261.015506 
L 191.737952 260.759305 
L 191.985168 260.693652 
L 192.033416 260.566281 
L 192.198821 260.129232 
L 192.450031 259.805401 
L 192.6017 259.639306 
L 192.817089 259.403626 
L 193.197233 258.987496 
L 193.293577 258.599163 
L 194.241763 253.956396 
L 194.563959 252.314342 
L 194.7185 251.51768 
L 194.960763 250.373114 
L 195.189789 249.252868 
L 195.42178 248.12971 
L 195.655795 246.996957 
L 195.889384 245.866078 
L 196.125637 244.722737 
L 196.359868 243.588815 
L 196.595799 242.446646 
L 196.830776 241.309099 
L 197.071558 240.14423 
L 197.394326 238.634948 
L 197.569991 237.785208 
L 198.143642 234.954137 
L 198.378207 233.818697 
L 198.608793 232.702677 
L 198.848244 231.543371 
L 199.081972 230.412434 
L 199.319838 229.261024 
L 199.555262 228.12149 
L 199.792065 226.975054 
L 200.026488 225.840609 
L 200.210348 224.950708 
L 200.497035 223.563295 
L 200.729542 222.437685 
L 200.968381 221.281889 
L 201.55767 218.429781 
L 201.730268 217.57049 
L 202.173059 215.421723 
L 202.327037 214.674891 
L 202.407973 214.281735 
L 202.64295 213.141863 
L 202.877869 212.001876 
L 203.11279 210.861948 
L 203.347593 209.721788 
L 203.582683 208.581391 
L 203.817257 207.441236 
L 204.051951 206.301197 
L 204.11064 206.016201 
L 204.169328 205.731205 
L 204.286706 205.161214 
L 204.521464 204.02129 
L 204.756282 202.881365 
L 204.990446 201.740579 
L 205.224113 200.601026 
L 205.458626 199.460059 
L 205.695618 198.317996 
L 205.930379 197.177665 
L 206.165032 196.037686 
L 206.659619 193.63448 
L 206.677484 193.54872 
L 206.751894 193.186724 
L 206.836276 192.776221 
L 207.090867 191.540072 
L 207.400225 190.038115 
L 207.457784 189.610459 
L 207.628355 189.502791 
L 210.668496 189.945545 
L 211.589635 190.079453 
" clip-path="url(#pee4f531301)" style="fill: #1f77b4"/>
   </g>
   <g id="matplotlib.axis_1">
    <g id="xtick_1">
     <g id="line2d_1">
      <defs>
       <path id="m20dd6ee40a" d="M 0 0 
L 0 3.5 
" style="stroke: #000000; stroke-width: 0.8"/>
      </defs>
      <g>
       <use xlink:href="#m20dd6ee40a" x="135.349161" y="307.584" style="stroke: #000000; stroke-width: 0.8"/>
      </g>
     </g>
     <g id="text_1">
      <!-- 13.58 -->
      <g transform="translate(121.035099 322.182437) scale(0.1 -0.1)">
       <defs>
        <path id="DejaVuSans-31" d="M 794 531 
L 1825 531 
L 1825 4091 
L 703 3866 
L 703 4441 
L 1819 4666 
L 2450 4666 
L 2450 531 
L 3481 531 
L 3481 0 
L 794 0 
L 794 531 
z
" transform="scale(0.015625)"/>
        <path id="DejaVuSans-33" d="M 2597 2516 
Q 3050 2419 3304 2112 
Q 3559 1806 3559 1356 
Q 3559 666 3084 287 
Q 2609 -91 1734 -91 
Q 1441 -91 1130 -33 
Q 819 25 488 141 
L 488 750 
Q 750 597 1062 519 
Q 1375 441 1716 441 
Q 2309 441 2620 675 
Q 2931 909 2931 1356 
Q 2931 1769 2642 2001 
Q 2353 2234 1838 2234 
L 1294 2234 
L 1294 2753 
L 1863 2753 
Q 2328 2753 2575 2939 
Q 2822 3125 2822 3475 
Q 2822 3834 2567 4026 
Q 2313 4219 1838 4219 
Q 1578 4219 1281 4162 
Q 984 4106 628 3988 
L 628 4550 
Q 988 4650 1302 4700 
Q 1616 4750 1894 4750 
Q 2613 4750 3031 4423 
Q 3450 4097 3450 3541 
Q 3450 3153 3228 2886 
Q 3006 2619 2597 2516 
z
" transform="scale(0.015625)"/>
        <path id="DejaVuSans-2e" d="M 684 794 
L 1344 794 
L 1344 0 
L 684 0 
L 684 794 
z
" transform="scale(0.015625)"/>
        <path id="DejaVuSans-35" d="M 691 4666 
L 3169 4666 
L 3169 4134 
L 1269 4134 
L 1269 2991 
Q 1406 3038 1543 3061 
Q 1681 3084 1819 3084 
Q 2600 3084 3056 2656 
Q 3513 2228 3513 1497 
Q 3513 744 3044 326 
Q 2575 -91 1722 -91 
Q 1428 -91 1123 -41 
Q 819 9 494 109 
L 494 744 
Q 775 591 1075 516 
Q 1375 441 1709 441 
Q 2250 441 2565 725 
Q 2881 1009 2881 1497 
Q 2881 1984 2565 2268 
Q 2250 2553 1709 2553 
Q 1456 2553 1204 2497 
Q 953 2441 691 2322 
L 691 4666 
z
" transform="scale(0.015625)"/>
        <path id="DejaVuSans-38" d="M 2034 2216 
Q 1584 2216 1326 1975 
Q 1069 1734 1069 1313 
Q 1069 891 1326 650 
Q 1584 409 2034 409 
Q 2484 409 2743 651 
Q 3003 894 3003 1313 
Q 3003 1734 2745 1975 
Q 2488 2216 2034 2216 
z
M 1403 2484 
Q 997 2584 770 2862 
Q 544 3141 544 3541 
Q 544 4100 942 4425 
Q 1341 4750 2034 4750 
Q 2731 4750 3128 4425 
Q 3525 4100 3525 3541 
Q 3525 3141 3298 2862 
Q 3072 2584 2669 2484 
Q 3125 2378 3379 2068 
Q 3634 1759 3634 1313 
Q 3634 634 3220 271 
Q 2806 -91 2034 -91 
Q 1263 -91 848 271 
Q 434 634 434 1313 
Q 434 1759 690 2068 
Q 947 2378 1403 2484 
z
M 1172 3481 
Q 1172 3119 1398 2916 
Q 1625 2713 2034 2713 
Q 2441 2713 2670 2916 
Q 2900 3119 2900 3481 
Q 2900 3844 2670 4047 
Q 2441 4250 2034 4250 
Q 1625 4250 1398 4047 
Q 1172 3844 1172 3481 
z
" transform="scale(0.015625)"/>
       </defs>
       <use xlink:href="#DejaVuSans-31"/>
       <use xlink:href="#DejaVuSans-33" x="63.623047"/>
       <use xlink:href="#DejaVuSans-2e" x="127.246094"/>
       <use xlink:href="#DejaVuSans-35" x="159.033203"/>
       <use xlink:href="#DejaVuSans-38" x="222.65625"/>
      </g>
     </g>
    </g>
    <g id="xtick_2">
     <g id="line2d_2">
      <g>
       <use xlink:href="#m20dd6ee40a" x="174.769673" y="307.584" style="stroke: #000000; stroke-width: 0.8"/>
      </g>
     </g>
     <g id="text_2">
      <!-- 13.59 -->
      <g transform="translate(160.45561 322.182437) scale(0.1 -0.1)">
       <defs>
        <path id="DejaVuSans-39" d="M 703 97 
L 703 672 
Q 941 559 1184 500 
Q 1428 441 1663 441 
Q 2288 441 2617 861 
Q 2947 1281 2994 2138 
Q 2813 1869 2534 1725 
Q 2256 1581 1919 1581 
Q 1219 1581 811 2004 
Q 403 2428 403 3163 
Q 403 3881 828 4315 
Q 1253 4750 1959 4750 
Q 2769 4750 3195 4129 
Q 3622 3509 3622 2328 
Q 3622 1225 3098 567 
Q 2575 -91 1691 -91 
Q 1453 -91 1209 -44 
Q 966 3 703 97 
z
M 1959 2075 
Q 2384 2075 2632 2365 
Q 2881 2656 2881 3163 
Q 2881 3666 2632 3958 
Q 2384 4250 1959 4250 
Q 1534 4250 1286 3958 
Q 1038 3666 1038 3163 
Q 1038 2656 1286 2365 
Q 1534 2075 1959 2075 
z
" transform="scale(0.015625)"/>
       </defs>
       <use xlink:href="#DejaVuSans-31"/>
       <use xlink:href="#DejaVuSans-33" x="63.623047"/>
       <use xlink:href="#DejaVuSans-2e" x="127.246094"/>
       <use xlink:href="#DejaVuSans-35" x="159.033203"/>
       <use xlink:href="#DejaVuSans-39" x="222.65625"/>
      </g>
     </g>
    </g>
    <g id="xtick_3">
     <g id="line2d_3">
      <g>
       <use xlink:href="#m20dd6ee40a" x="214.190184" y="307.584" style="stroke: #000000; stroke-width: 0.8"/>
      </g>
     </g>
     <g id="text_3">
      <!-- 13.60 -->
      <g transform="translate(199.876121 322.182437) scale(0.1 -0.1)">
       <defs>
        <path id="DejaVuSans-36" d="M 2113 2584 
Q 1688 2584 1439 2293 
Q 1191 2003 1191 1497 
Q 1191 994 1439 701 
Q 1688 409 2113 409 
Q 2538 409 2786 701 
Q 3034 994 3034 1497 
Q 3034 2003 2786 2293 
Q 2538 2584 2113 2584 
z
M 3366 4563 
L 3366 3988 
Q 3128 4100 2886 4159 
Q 2644 4219 2406 4219 
Q 1781 4219 1451 3797 
Q 1122 3375 1075 2522 
Q 1259 2794 1537 2939 
Q 1816 3084 2150 3084 
Q 2853 3084 3261 2657 
Q 3669 2231 3669 1497 
Q 3669 778 3244 343 
Q 2819 -91 2113 -91 
Q 1303 -91 875 529 
Q 447 1150 447 2328 
Q 447 3434 972 4092 
Q 1497 4750 2381 4750 
Q 2619 4750 2861 4703 
Q 3103 4656 3366 4563 
z
" transform="scale(0.015625)"/>
        <path id="DejaVuSans-30" d="M 2034 4250 
Q 1547 4250 1301 3770 
Q 1056 3291 1056 2328 
Q 1056 1369 1301 889 
Q 1547 409 2034 409 
Q 2525 409 2770 889 
Q 3016 1369 3016 2328 
Q 3016 3291 2770 3770 
Q 2525 4250 2034 4250 
z
M 2034 4750 
Q 2819 4750 3233 4129 
Q 3647 3509 3647 2328 
Q 3647 1150 3233 529 
Q 2819 -91 2034 -91 
Q 1250 -91 836 529 
Q 422 1150 422 2328 
Q 422 3509 836 4129 
Q 1250 4750 2034 4750 
z
" transform="scale(0.015625)"/>
       </defs>
       <use xlink:href="#DejaVuSans-31"/>
       <use xlink:href="#DejaVuSans-33" x="63.623047"/>
       <use xlink:href="#DejaVuSans-2e" x="127.246094"/>
       <use xlink:href="#DejaVuSans-36" x="159.033203"/>
       <use xlink:href="#DejaVuSans-30" x="222.65625"/>
      </g>
     </g>
    </g>
    <g id="xtick_4">
     <g id="line2d_4">
      <g>
       <use xlink:href="#m20dd6ee40a" x="253.610695" y="307.584" style="stroke: #000000; stroke-width: 0.8"/>
      </g>
     </g>
     <g id="text_4">
      <!-- 13.61 -->
      <g transform="translate(239.296633 322.182437) scale(0.1 -0.1)">
       <use xlink:href="#DejaVuSans-31"/>
       <use xlink:href="#DejaVuSans-33" x="63.623047"/>
       <use xlink:href="#DejaVuSans-2e" x="127.246094"/>
       <use xlink:href="#DejaVuSans-36" x="159.033203"/>
       <use xlink:href="#DejaVuSans-31" x="222.65625"/>
      </g>
     </g>
    </g>
    <g id="xtick_5">
     <g id="line2d_5">
      <g>
       <use xlink:href="#m20dd6ee40a" x="293.031206" y="307.584" style="stroke: #000000; stroke-width: 0.8"/>
      </g>
     </g>
     <g id="text_5">
      <!-- 13.62 -->
      <g transform="translate(278.717144 322.182437) scale(0.1 -0.1)">
       <defs>
        <path id="DejaVuSans-32" d="M 1228 531 
L 3431 531 
L 3431 0 
L 469 0 
L 469 531 
Q 828 903 1448 1529 
Q 2069 2156 2228 2338 
Q 2531 2678 2651 2914 
Q 2772 3150 2772 3378 
Q 2772 3750 2511 3984 
Q 2250 4219 1831 4219 
Q 1534 4219 1204 4116 
Q 875 4013 500 3803 
L 500 4441 
Q 881 4594 1212 4672 
Q 1544 4750 1819 4750 
Q 2544 4750 2975 4387 
Q 3406 4025 3406 3419 
Q 3406 3131 3298 2873 
Q 3191 2616 2906 2266 
Q 2828 2175 2409 1742 
Q 1991 1309 1228 531 
z
" transform="scale(0.015625)"/>
       </defs>
       <use xlink:href="#DejaVuSans-31"/>
       <use xlink:href="#DejaVuSans-33" x="63.623047"/>
       <use xlink:href="#DejaVuSans-2e" x="127.246094"/>
       <use xlink:href="#DejaVuSans-36" x="159.033203"/>
       <use xlink:href="#DejaVuSans-32" x="222.65625"/>
      </g>
     </g>
    </g>
    <g id="xtick_6">
     <g id="line2d_6">
      <g>
       <use xlink:href="#m20dd6ee40a" x="332.451717" y="307.584" style="stroke: #000000; stroke-width: 0.8"/>
      </g>
     </g>
     <g id="text_6">
      <!-- 13.63 -->
      <g transform="translate(318.137655 322.182437) scale(0.1 -0.1)">
       <use xlink:href="#DejaVuSans-31"/>
       <use xlink:href="#DejaVuSans-33" x="63.623047"/>
       <use xlink:href="#DejaVuSans-2e" x="127.246094"/>
       <use xlink:href="#DejaVuSans-36" x="159.033203"/>
       <use xlink:href="#DejaVuSans-33" x="222.65625"/>
      </g>
     </g>
    </g>
    <g id="xtick_7">
     <g id="line2d_7">
      <g>
       <use xlink:href="#m20dd6ee40a" x="371.872229" y="307.584" style="stroke: #000000; stroke-width: 0.8"/>
      </g>
     </g>
     <g id="text_7">
      <!-- 13.64 -->
      <g transform="translate(357.558166 322.182437) scale(0.1 -0.1)">
       <defs>
        <path id="DejaVuSans-34" d="M 2419 4116 
L 825 1625 
L 2419 1625 
L 2419 4116 
z
M 2253 4666 
L 3047 4666 
L 3047 1625 
L 3713 1625 
L 3713 1100 
L 3047 1100 
L 3047 0 
L 2419 0 
L 2419 1100 
L 313 1100 
L 313 1709 
L 2253 4666 
z
" transform="scale(0.015625)"/>
       </defs>
       <use xlink:href="#DejaVuSans-31"/>
       <use xlink:href="#DejaVuSans-33" x="63.623047"/>
       <use xlink:href="#DejaVuSans-2e" x="127.246094"/>
       <use xlink:href="#DejaVuSans-36" x="159.033203"/>
       <use xlink:href="#DejaVuSans-34" x="222.65625"/>
      </g>
     </g>
    </g>
   </g>
   <g id="matplotlib.axis_2">
    <g id="ytick_1">
     <g id="line2d_8">
      <defs>
       <path id="m6850b9506a" d="M 0 0 
L -3.5 0 
" style="stroke: #000000; stroke-width: 0.8"/>
      </defs>
      <g>
       <use xlink:href="#m6850b9506a" x="97.085009" y="280.061834" style="stroke: #000000; stroke-width: 0.8"/>
      </g>
     </g>
     <g id="text_8">
      <!-- 52.515 -->
      <g transform="translate(55.094384 283.861053) scale(0.1 -0.1)">
       <use xlink:href="#DejaVuSans-35"/>
       <use xlink:href="#DejaVuSans-32" x="63.623047"/>
       <use xlink:href="#DejaVuSans-2e" x="127.246094"/>
       <use xlink:href="#DejaVuSans-35" x="159.033203"/>
       <use xlink:href="#DejaVuSans-31" x="222.65625"/>
       <use xlink:href="#DejaVuSans-35" x="286.279297"/>
      </g>
     </g>
    </g>
    <g id="ytick_2">
     <g id="line2d_9">
      <g>
       <use xlink:href="#m6850b9506a" x="97.085009" y="247.661138" style="stroke: #000000; stroke-width: 0.8"/>
      </g>
     </g>
     <g id="text_9">
      <!-- 52.520 -->
      <g transform="translate(55.094384 251.460356) scale(0.1 -0.1)">
       <use xlink:href="#DejaVuSans-35"/>
       <use xlink:href="#DejaVuSans-32" x="63.623047"/>
       <use xlink:href="#DejaVuSans-2e" x="127.246094"/>
       <use xlink:href="#DejaVuSans-35" x="159.033203"/>
       <use xlink:href="#DejaVuSans-32" x="222.65625"/>
       <use xlink:href="#DejaVuSans-30" x="286.279297"/>
      </g>
     </g>
    </g>
    <g id="ytick_3">
     <g id="line2d_10">
      <g>
       <use xlink:href="#m6850b9506a" x="97.085009" y="215.260441" style="stroke: #000000; stroke-width: 0.8"/>
      </g>
     </g>
     <g id="text_10">
      <!-- 52.525 -->
      <g transform="translate(55.094384 219.059659) scale(0.1 -0.1)">
       <use xlink:href="#DejaVuSans-35"/>
       <use xlink:href="#DejaVuSans-32" x="63.623047"/>
       <use xlink:href="#DejaVuSans-2e" x="127.246094"/>
       <use xlink:href="#DejaVuSans-35" x="159.033203"/>
       <use xlink:href="#DejaVuSans-32" x="222.65625"/>
       <use xlink:href="#DejaVuSans-35" x="286.279297"/>
      </g>
     </g>
    </g>
    <g id="ytick_4">
     <g id="line2d_11">
      <g>
       <use xlink:href="#m6850b9506a" x="97.085009" y="182.859744" style="stroke: #000000; stroke-width: 0.8"/>
      </g>
     </g>
     <g id="text_11">
      <!-- 52.530 -->
      <g transform="translate(55.094384 186.658962) scale(0.1 -0.1)">
       <use xlink:href="#DejaVuSans-35"/>
       <use xlink:href="#DejaVuSans-32" x="63.623047"/>
       <use xlink:href="#DejaVuSans-2e" x="127.246094"/>
       <use xlink:href="#DejaVuSans-35" x="159.033203"/>
       <use xlink:href="#DejaVuSans-33" x="222.65625"/>
       <use xlink:href="#DejaVuSans-30" x="286.279297"/>
      </g>
     </g>
    </g>
    <g id="ytick_5">
     <g id="line2d_12">
      <g>
       <use xlink:href="#m6850b9506a" x="97.085009" y="150.459047" style="stroke: #000000; stroke-width: 0.8"/>
      </g>
     </g>
     <g id="text_12">
      <!-- 52.535 -->
      <g transform="translate(55.094384 154.258265) scale(0.1 -0.1)">
       <use xlink:href="#DejaVuSans-35"/>
       <use xlink:href="#DejaVuSans-32" x="63.623047"/>
       <use xlink:href="#DejaVuSans-2e" x="127.246094"/>
       <use xlink:href="#DejaVuSans-35" x="159.033203"/>
       <use xlink:href="#DejaVuSans-33" x="222.65625"/>
       <use xlink:href="#DejaVuSans-35" x="286.279297"/>
      </g>
     </g>
    </g>
    <g id="ytick_6">
     <g id="line2d_13">
      <g>
       <use xlink:href="#m6850b9506a" x="97.085009" y="118.05835" style="stroke: #000000; stroke-width: 0.8"/>
      </g>
     </g>
     <g id="text_13">
      <!-- 52.540 -->
      <g transform="translate(55.094384 121.857568) scale(0.1 -0.1)">
       <use xlink:href="#DejaVuSans-35"/>
       <use xlink:href="#DejaVuSans-32" x="63.623047"/>
       <use xlink:href="#DejaVuSans-2e" x="127.246094"/>
       <use xlink:href="#DejaVuSans-35" x="159.033203"/>
       <use xlink:href="#DejaVuSans-34" x="222.65625"/>
       <use xlink:href="#DejaVuSans-30" x="286.279297"/>
      </g>
     </g>
    </g>
    <g id="ytick_7">
     <g id="line2d_14">
      <g>
       <use xlink:href="#m6850b9506a" x="97.085009" y="85.657653" style="stroke: #000000; stroke-width: 0.8"/>
      </g>
     </g>
     <g id="text_14">
      <!-- 52.545 -->
      <g transform="translate(55.094384 89.456871) scale(0.1 -0.1)">
       <use xlink:href="#DejaVuSans-35"/>
       <use xlink:href="#DejaVuSans-32" x="63.623047"/>
       <use xlink:href="#DejaVuSans-2e" x="127.246094"/>
       <use xlink:href="#DejaVuSans-35" x="159.033203"/>
       <use xlink:href="#DejaVuSans-34" x="222.65625"/>
       <use xlink:href="#DejaVuSans-35" x="286.279297"/>
      </g>
     </g>
    </g>
    <g id="ytick_8">
     <g id="line2d_15">
      <g>
       <use xlink:href="#m6850b9506a" x="97.085009" y="53.256956" style="stroke: #000000; stroke-width: 0.8"/>
      </g>
     </g>
     <g id="text_15">
      <!-- 52.550 -->
      <g transform="translate(55.094384 57.056175) scale(0.1 -0.1)">
       <use xlink:href="#DejaVuSans-35"/>
       <use xlink:href="#DejaVuSans-32" x="63.623047"/>
       <use xlink:href="#DejaVuSans-2e" x="127.246094"/>
       <use xlink:href="#DejaVuSans-35" x="159.033203"/>
       <use xlink:href="#DejaVuSans-35" x="222.65625"/>
       <use xlink:href="#DejaVuSans-30" x="286.279297"/>
      </g>
     </g>
    </g>
   </g>
   <g id="patch_3">
    <path d="M 97.085009 307.584 
L 97.085009 41.472 
" style="fill: none; stroke: #000000; stroke-width: 0.8; stroke-linejoin: miter; stroke-linecap: square"/>
   </g>
   <g id="patch_4">
    <path d="M 375.234991 307.584 
L 375.234991 41.472 
" style="fill: none; stroke: #000000; stroke-width: 0.8; stroke-linejoin: miter; stroke-linecap: square"/>
   </g>
   <g id="patch_5">
    <path d="M 97.085009 307.584 
L 375.234991 307.584 
" style="fill: none; stroke: #000000; stroke-width: 0.8; stroke-linejoin: miter; stroke-linecap: square"/>
   </g>
   <g id="patch_6">
    <path d="M 97.085009 41.472 
L 375.234991 41.472 
" style="fill: none; stroke: #000000; stroke-width: 0.8; stroke-linejoin: miter; stroke-linecap: square"/>
   </g>
   <g id="text_16">
    <!-- Hellersdorf -->
    <g transform="translate(184.712723 160.248376) scale(0.12 -0.12)">
     <defs>
      <path id="DejaVuSans-48" d="M 628 4666 
L 1259 4666 
L 1259 2753 
L 3553 2753 
L 3553 4666 
L 4184 4666 
L 4184 0 
L 3553 0 
L 3553 2222 
L 1259 2222 
L 1259 0 
L 628 0 
L 628 4666 
z
" transform="scale(0.015625)"/>
      <path id="DejaVuSans-65" d="M 3597 1894 
L 3597 1613 
L 953 1613 
Q 991 1019 1311 708 
Q 1631 397 2203 397 
Q 2534 397 2845 478 
Q 3156 559 3463 722 
L 3463 178 
Q 3153 47 2828 -22 
Q 2503 -91 2169 -91 
Q 1331 -91 842 396 
Q 353 884 353 1716 
Q 353 2575 817 3079 
Q 1281 3584 2069 3584 
Q 2775 3584 3186 3129 
Q 3597 2675 3597 1894 
z
M 3022 2063 
Q 3016 2534 2758 2815 
Q 2500 3097 2075 3097 
Q 1594 3097 1305 2825 
Q 1016 2553 972 2059 
L 3022 2063 
z
" transform="scale(0.015625)"/>
      <path id="DejaVuSans-6c" d="M 603 4863 
L 1178 4863 
L 1178 0 
L 603 0 
L 603 4863 
z
" transform="scale(0.015625)"/>
      <path id="DejaVuSans-72" d="M 2631 2963 
Q 2534 3019 2420 3045 
Q 2306 3072 2169 3072 
Q 1681 3072 1420 2755 
Q 1159 2438 1159 1844 
L 1159 0 
L 581 0 
L 581 3500 
L 1159 3500 
L 1159 2956 
Q 1341 3275 1631 3429 
Q 1922 3584 2338 3584 
Q 2397 3584 2469 3576 
Q 2541 3569 2628 3553 
L 2631 2963 
z
" transform="scale(0.015625)"/>
      <path id="DejaVuSans-73" d="M 2834 3397 
L 2834 2853 
Q 2591 2978 2328 3040 
Q 2066 3103 1784 3103 
Q 1356 3103 1142 2972 
Q 928 2841 928 2578 
Q 928 2378 1081 2264 
Q 1234 2150 1697 2047 
L 1894 2003 
Q 2506 1872 2764 1633 
Q 3022 1394 3022 966 
Q 3022 478 2636 193 
Q 2250 -91 1575 -91 
Q 1294 -91 989 -36 
Q 684 19 347 128 
L 347 722 
Q 666 556 975 473 
Q 1284 391 1588 391 
Q 1994 391 2212 530 
Q 2431 669 2431 922 
Q 2431 1156 2273 1281 
Q 2116 1406 1581 1522 
L 1381 1569 
Q 847 1681 609 1914 
Q 372 2147 372 2553 
Q 372 3047 722 3315 
Q 1072 3584 1716 3584 
Q 2034 3584 2315 3537 
Q 2597 3491 2834 3397 
z
" transform="scale(0.015625)"/>
      <path id="DejaVuSans-64" d="M 2906 2969 
L 2906 4863 
L 3481 4863 
L 3481 0 
L 2906 0 
L 2906 525 
Q 2725 213 2448 61 
Q 2172 -91 1784 -91 
Q 1150 -91 751 415 
Q 353 922 353 1747 
Q 353 2572 751 3078 
Q 1150 3584 1784 3584 
Q 2172 3584 2448 3432 
Q 2725 3281 2906 2969 
z
M 947 1747 
Q 947 1113 1208 752 
Q 1469 391 1925 391 
Q 2381 391 2643 752 
Q 2906 1113 2906 1747 
Q 2906 2381 2643 2742 
Q 2381 3103 1925 3103 
Q 1469 3103 1208 2742 
Q 947 2381 947 1747 
z
" transform="scale(0.015625)"/>
      <path id="DejaVuSans-6f" d="M 1959 3097 
Q 1497 3097 1228 2736 
Q 959 2375 959 1747 
Q 959 1119 1226 758 
Q 1494 397 1959 397 
Q 2419 397 2687 759 
Q 2956 1122 2956 1747 
Q 2956 2369 2687 2733 
Q 2419 3097 1959 3097 
z
M 1959 3584 
Q 2709 3584 3137 3096 
Q 3566 2609 3566 1747 
Q 3566 888 3137 398 
Q 2709 -91 1959 -91 
Q 1206 -91 779 398 
Q 353 888 353 1747 
Q 353 2609 779 3096 
Q 1206 3584 1959 3584 
z
" transform="scale(0.015625)"/>
      <path id="DejaVuSans-66" d="M 2375 4863 
L 2375 4384 
L 1825 4384 
Q 1516 4384 1395 4259 
Q 1275 4134 1275 3809 
L 1275 3500 
L 2222 3500 
L 2222 3053 
L 1275 3053 
L 1275 0 
L 697 0 
L 697 3053 
L 147 3053 
L 147 3500 
L 697 3500 
L 697 3744 
Q 697 4328 969 4595 
Q 1241 4863 1831 4863 
L 2375 4863 
z
" transform="scale(0.015625)"/>
     </defs>
     <use xlink:href="#DejaVuSans-48"/>
     <use xlink:href="#DejaVuSans-65" x="75.195312"/>
     <use xlink:href="#DejaVuSans-6c" x="136.71875"/>
     <use xlink:href="#DejaVuSans-6c" x="164.501953"/>
     <use xlink:href="#DejaVuSans-65" x="192.285156"/>
     <use xlink:href="#DejaVuSans-72" x="253.808594"/>
     <use xlink:href="#DejaVuSans-73" x="294.921875"/>
     <use xlink:href="#DejaVuSans-64" x="347.021484"/>
     <use xlink:href="#DejaVuSans-6f" x="410.498047"/>
     <use xlink:href="#DejaVuSans-72" x="471.679688"/>
     <use xlink:href="#DejaVuSans-66" x="512.792969"/>
    </g>
   </g>
  </g>
 </g>
 <defs>
  <clipPath id="pee4f531301">
   <rect x="97.085009" y="41.472" width="278.149982" height="266.112"/>
  </clipPath>
 </defs>
</svg>
