<?xml version="1.0" encoding="utf-8" standalone="no"?>
<!DOCTYPE svg PUBLIC "-//W3C//DTD SVG 1.1//EN"
  "http://www.w3.org/Graphics/SVG/1.1/DTD/svg11.dtd">
<svg xmlns:xlink="http://www.w3.org/1999/xlink" width="720pt" height="720pt" viewBox="0 0 720 720" xmlns="http://www.w3.org/2000/svg" version="1.1">
 <metadata>
  <rdf:RDF xmlns:dc="http://purl.org/dc/elements/1.1/" xmlns:cc="http://creativecommons.org/ns#" xmlns:rdf="http://www.w3.org/1999/02/22-rdf-syntax-ns#">
   <cc:Work>
    <dc:type rdf:resource="http://purl.org/dc/dcmitype/StillImage"/>
    <dc:date>2024-10-17T11:38:36.948999</dc:date>
    <dc:format>image/svg+xml</dc:format>
    <dc:creator>
     <cc:Agent>
      <dc:title>Matplotlib v3.9.2, https://matplotlib.org/</dc:title>
     </cc:Agent>
    </dc:creator>
   </cc:Work>
  </rdf:RDF>
 </metadata>
 <defs>
  <style type="text/css">*{stroke-linejoin: round; stroke-linecap: butt}</style>
 </defs>
 <g id="figure_1">
  <g id="patch_1">
   <path d="M 0 720 
L 720 720 
L 720 0 
L 0 0 
z
" style="fill: #ffffff"/>
  </g>
  <g id="axes_1">
   <g id="patch_2">
    <path d="M 90 630.51054 
L 648 630.51054 
L 648 96.68946 
L 90 96.68946 
z
" style="fill: #ffffff"/>
   </g>
   <g id="PatchCollection_1">
    <path d="M 319.709098 394.796238 
L 319.501814 395.82607 
L 321.865662 396.146368 
L 324.442135 396.495851 
L 327.674693 396.933803 
L 330.444739 397.310171 
L 330.907365 397.371889 
L 331.122589 396.456209 
L 331.382084 395.351971 
L 332.083371 395.510965 
L 332.7542 395.662371 
L 335.595798 396.302442 
L 338.325467 396.918172 
L 338.666672 396.994993 
L 341.511897 397.636426 
L 342.640052 397.913485 
L 343.775312 398.190292 
L 346.037865 398.74804 
L 348.300841 399.303803 
L 350.563815 399.859691 
L 352.832045 400.416305 
L 355.070998 400.966366 
L 355.096898 400.973343 
L 355.906313 401.172227 
L 357.361152 401.529818 
L 359.626202 402.085468 
L 361.891136 402.641364 
L 364.156294 403.19703 
L 366.420531 403.753541 
L 368.304765 404.216092 
L 368.67937 404.308412 
L 370.942184 404.864151 
L 375.369196 405.970785 
L 375.945779 406.114832 
L 376.664632 406.289297 
L 376.822597 406.327635 
L 377.414092 406.471161 
L 382.181645 407.628175 
L 384.4373 408.170665 
L 386.703051 408.723137 
L 388.968205 409.275044 
L 391.230136 409.829361 
L 393.501278 410.377899 
L 395.770149 410.929878 
L 398.034331 411.480672 
L 400.295321 412.03551 
L 402.559232 412.584808 
L 404.823874 413.13597 
L 407.088625 413.687023 
L 409.109492 414.177458 
L 414.990702 415.60766 
L 415.36597 415.698947 
L 417.027796 416.130418 
L 417.46743 416.246762 
L 420.157241 416.957967 
L 421.468164 417.304588 
L 421.864322 417.409267 
L 423.015187 417.71363 
L 425.881583 415.407762 
L 428.006911 413.697981 
L 429.909409 412.167576 
L 431.84636 410.609516 
L 431.973226 410.507496 
L 432.200433 410.324656 
L 432.385848 410.175344 
L 433.934754 408.929453 
L 434.273448 408.657162 
L 436.17965 407.123668 
L 438.095278 405.582636 
L 439.996337 404.053461 
L 441.53827 402.813101 
L 441.900623 402.521777 
L 444.03454 400.805112 
L 446.629954 404.44652 
L 446.94409 404.907037 
L 448.44058 407.036911 
L 449.498866 407.425502 
L 462.737716 412.649908 
L 464.098271 413.197164 
L 470.968589 419.039736 
L 475.427932 422.870842 
L 476.29431 423.61507 
L 478.297007 422.040012 
L 480.141217 420.589666 
L 482.094435 419.053672 
L 484.169639 417.421731 
L 486.61538 415.498345 
L 489.388363 413.31754 
L 491.629775 416.172012 
L 493.874267 419.030291 
L 494.047618 418.797783 
L 494.151826 418.66863 
L 495.985457 416.923433 
L 498.035951 414.970965 
L 500.471329 412.653391 
L 502.056525 411.144728 
L 503.552749 409.720284 
L 505.050479 408.29488 
L 506.545681 406.871048 
L 508.040891 405.44722 
L 509.536061 404.020942 
L 511.033284 402.598019 
L 512.619127 401.089841 
L 514.200265 399.585147 
L 515.78853 398.074711 
L 517.376662 396.562997 
L 519.141981 394.88428 
L 520.906145 393.20559 
L 522.762409 391.440414 
L 523.148117 391.068872 
L 524.778294 389.522249 
L 528.380182 391.721877 
L 528.492497 391.552371 
L 530.980034 387.475811 
L 531.472661 386.668517 
L 529.219694 385.288349 
L 528.666941 381.732865 
L 528.217776 378.843802 
L 528.075162 377.927668 
L 526.647846 368.785631 
L 526.609935 368.545246 
L 526.391608 367.160493 
L 525.60923 362.198388 
L 525.246329 359.887138 
L 524.88623 357.576302 
L 524.526131 355.265584 
L 523.659494 349.804055 
L 523.550228 349.115889 
L 522.248523 340.805824 
L 522.15863 340.229253 
L 521.899327 338.566893 
L 521.578291 336.527628 
L 521.137545 333.717301 
L 521.592793 333.352494 
L 522.048974 332.987669 
L 523.868136 331.529883 
L 525.688118 330.071854 
L 528.202242 328.057238 
L 528.513953 327.808193 
L 528.222844 325.698463 
L 528.173032 325.249102 
L 527.436703 319.945315 
L 527.200791 318.286481 
L 526.990636 316.762144 
L 526.589277 313.81502 
L 526.19414 310.962446 
L 525.874242 308.645584 
L 525.554339 306.328606 
L 525.236738 304.016376 
L 524.915292 301.698259 
L 524.593962 299.380256 
L 524.274363 297.067597 
L 523.847532 293.978144 
L 523.422268 290.897778 
L 522.762363 286.116715 
L 521.274485 275.309247 
L 521.224959 274.949055 
L 521.695165 275.65078 
L 522.647505 276.504115 
L 523.64792 277.261166 
L 524.931273 277.800225 
L 525.179997 277.91083 
L 525.712032 278.08054 
L 526.703692 278.401827 
L 528.182087 279.074028 
L 528.473221 279.207433 
L 529.330046 279.361131 
L 530.313576 279.536955 
L 532.076183 280.211924 
L 533.055446 280.586869 
L 533.649126 280.711817 
L 534.625301 280.881245 
L 535.221104 280.927615 
L 536.152062 281.000202 
L 537.920866 281.627503 
L 538.675753 281.792509 
L 539.058291 281.876142 
L 541.841676 282.731063 
L 542.709401 283.01103 
L 545.760822 282.561234 
L 545.903545 282.493533 
L 546.1398 282.494174 
L 546.525617 282.437268 
L 546.933841 282.369067 
L 547.319255 282.241695 
L 548.105808 281.912321 
L 549.446824 281.048094 
L 550.080216 280.524826 
L 550.372514 280.246361 
L 551.053721 279.501995 
L 551.060311 279.49287 
L 553.141728 276.614036 
L 554.237832 277.210955 
L 558.705154 278.645845 
L 566.783774 281.24088 
L 567.024287 281.1954 
L 567.339381 280.821024 
L 569.204528 279.042748 
L 574.905741 276.299706 
L 584.277555 279.022115 
L 586.604314 278.892739 
L 586.807351 278.246201 
L 586.873883 278.033748 
L 587.450287 278.213777 
L 588.967069 278.687424 
L 591.616052 280.196121 
L 593.375447 280.834642 
L 595.098851 275.960839 
L 596.995105 276.64633 
L 596.847986 277.043683 
L 597.816899 277.391236 
L 597.898065 277.163081 
L 598.188945 277.259127 
L 599.716461 272.970146 
L 600.958386 273.411987 
L 601.128339 273.149308 
L 601.504812 272.553365 
L 603.070224 270.060712 
L 605.751446 265.786345 
L 607.635032 262.701676 
L 609.726971 259.138211 
L 611.381693 256.319451 
L 611.704324 255.884885 
L 612.554616 254.689418 
L 614.092681 252.058587 
L 615.625816 249.827441 
L 618.421291 245.250844 
L 620.466524 241.832059 
L 622.636364 238.353422 
L 620.479529 221.01934 
L 617.63946 221.089453 
L 613.279521 221.197123 
L 606.666599 220.702608 
L 606.302355 220.675382 
L 605.946619 220.567588 
L 605.273495 220.36331 
L 599.630746 215.960731 
L 596.961716 213.602711 
L 593.670651 213.04337 
L 531.364804 203.672782 
L 525.424421 202.830133 
L 521.942497 202.354207 
L 516.952344 201.6722 
L 510.674237 200.814184 
L 509.299493 200.703724 
L 482.848959 196.949805 
L 472.916255 195.540464 
L 408.726588 177.984181 
L 399.061201 175.367436 
L 398.511305 175.215953 
L 395.951278 174.473351 
L 384.722263 171.384618 
L 368.679915 166.968587 
L 362.2342 165.19297 
L 356.948997 163.754079 
L 351.359781 162.187084 
L 350.926979 162.065746 
L 339.453922 158.915551 
L 269.832743 139.710278 
L 269.182632 139.530988 
L 246.181243 133.18821 
L 238.532796 131.047066 
L 227.20814 127.951498 
L 226.640824 127.796665 
L 225.375044 127.448784 
L 220.538657 124.619389 
L 220.290058 124.473969 
L 220.090659 124.357269 
L 219.611512 124.076944 
L 218.5534 123.457947 
L 217.460979 123.184168 
L 217.231344 123.125798 
L 217.245473 121.16988 
L 217.273212 120.954055 
L 216.581901 122.57101 
L 216.370299 123.67354 
L 216.253555 124.968567 
L 216.159719 125.68731 
L 215.510899 127.66948 
L 215.054236 128.46138 
L 214.993769 128.566234 
L 209.123167 138.747478 
L 208.645547 139.719196 
L 207.983752 141.006351 
L 204.440179 147.794797 
L 200.84814 159.25214 
L 198.588053 163.825771 
L 196.782995 166.518735 
L 195.680217 168.272956 
L 195.501512 168.557317 
L 195.087321 169.216098 
L 192.221084 175.724246 
L 192.161683 175.859235 
L 190.362516 179.944534 
L 190.078475 180.888033 
L 189.947373 181.839625 
L 189.754786 183.236313 
L 189.386345 184.473189 
L 189.335835 184.597601 
L 188.839136 185.824029 
L 186.459764 191.697587 
L 186.096342 192.594967 
L 185.53955 193.50375 
L 184.388081 195.119756 
L 183.638069 196.10691 
L 183.050499 196.885053 
L 180.38335 200.269992 
L 180.160099 200.666617 
L 177.407876 205.55694 
L 175.734541 208.395808 
L 175.653046 208.533688 
L 174.930827 209.758846 
L 174.258565 210.867199 
L 173.921664 211.753545 
L 172.338257 222.084697 
L 172.517033 226.185069 
L 172.688501 230.121145 
L 173.123849 233.931523 
L 173.218939 234.807603 
L 173.314146 235.683681 
L 173.586424 238.190745 
L 173.858466 240.697813 
L 174.523002 244.582449 
L 175.093006 248.77878 
L 175.312223 249.984686 
L 175.424133 250.464233 
L 175.602924 251.107488 
L 175.766769 251.30984 
L 176.124933 251.752162 
L 176.465045 252.171932 
L 176.642836 252.359984 
L 176.685943 252.405534 
L 176.377397 252.423885 
L 177.104625 253.525593 
L 177.128302 253.561463 
L 177.000947 253.554739 
L 177.442339 253.888482 
L 177.773505 254.868954 
L 178.289641 255.660421 
L 179.593134 257.658993 
L 181.687579 261.399884 
L 181.85818 261.643712 
L 182.037631 261.881054 
L 182.225695 262.111565 
L 182.42213 262.334899 
L 182.626699 262.550826 
L 182.839164 262.759118 
L 183.05905 262.959317 
L 183.286236 263.15119 
L 183.773208 263.502624 
L 185.143274 264.491161 
L 190.114674 267.722445 
L 191.866677 268.744038 
L 192.06266 268.879144 
L 192.251374 269.024094 
L 192.432465 269.178777 
L 192.605223 269.342624 
L 192.769289 269.515174 
L 192.924304 269.695966 
L 193.069679 269.884662 
L 193.205167 270.080564 
L 193.330409 270.283213 
L 194.646294 272.591524 
L 196.550813 275.055271 
L 196.776719 275.402617 
L 198.403166 277.904799 
L 198.464232 277.998266 
L 200.971193 281.854767 
L 202.755697 284.600106 
L 204.50748 287.29502 
L 207.533485 292.540792 
L 207.850804 293.228436 
L 208.396298 294.410061 
L 210.220552 298.363232 
L 210.265604 298.460871 
L 212.820985 303.997699 
L 213.659779 305.749522 
L 213.794571 306.031042 
L 216.310946 311.286706 
L 216.850949 312.171238 
L 217.343432 312.975009 
L 217.567277 313.480884 
L 217.896561 314.412096 
L 218.204291 315.474235 
L 218.453325 316.333787 
L 218.587656 317.002589 
L 218.794368 318.05799 
L 219.007254 319.202678 
L 219.177322 320.608601 
L 219.221613 321.508944 
L 219.212098 321.64856 
L 219.181739 326.187942 
L 219.253735 326.990502 
L 225.255633 328.535244 
L 225.474303 328.591612 
L 226.054487 328.740931 
L 226.038254 328.92474 
L 225.438663 328.784685 
L 225.211547 328.731639 
L 219.744818 327.454901 
L 219.417906 327.378572 
L 219.284843 327.347407 
L 219.256714 327.59655 
L 218.766797 329.077722 
L 216.020257 337.383037 
L 215.726096 338.272378 
L 215.509882 338.926207 
L 215.021198 340.403852 
L 214.772403 341.156379 
L 214.641948 341.550818 
L 214.589988 341.707981 
L 214.226747 342.624041 
L 214.048784 343.033555 
L 213.977603 343.185603 
L 213.818694 343.782558 
L 213.780561 344.026755 
L 213.689744 344.510409 
L 213.637537 344.941295 
L 213.607318 345.190712 
L 213.56618 345.835961 
L 213.529978 346.894729 
L 213.563169 348.53323 
L 214.166153 350.744791 
L 214.752153 352.4276 
L 216.929246 358.679898 
L 216.950773 358.880614 
L 216.972185 359.08145 
L 216.999661 359.276324 
L 217.027134 359.47108 
L 217.157312 359.95168 
L 217.287491 360.432396 
L 217.362537 361.057015 
L 217.342797 361.604137 
L 217.25717 362.371341 
L 217.156092 362.467058 
L 216.813657 363.486842 
L 216.726174 363.777121 
L 216.626137 364.063322 
L 216.513885 364.344971 
L 216.389405 364.621367 
L 216.253038 364.892035 
L 216.105011 365.156622 
L 215.945774 365.414416 
L 215.77532 365.664951 
L 215.594224 365.907865 
L 211.838535 370.344637 
L 211.424126 370.729461 
L 211.015905 371.120709 
L 210.613876 371.518497 
L 210.218152 371.922707 
L 209.828959 372.332983 
L 208.924062 373.289842 
L 208.181976 373.987083 
L 207.137739 374.829458 
L 206.986803 374.873447 
L 206.600431 374.980617 
L 206.411433 375.093374 
L 206.060422 375.27383 
L 205.607872 375.448802 
L 205.397402 375.512778 
L 205.184047 375.566409 
L 204.967901 375.793185 
L 203.684982 376.305883 
L 201.824142 377.050837 
L 201.422092 377.458918 
L 199.542721 378.269342 
L 198.545177 379.250714 
L 198.39165 379.358803 
L 198.167127 379.711385 
L 198.086438 379.812081 
L 197.656697 380.270497 
L 196.91943 380.557548 
L 192.923868 385.681825 
L 192.849124 385.788365 
L 185.22478 395.449273 
L 178.577729 403.87192 
L 177.834158 405.030648 
L 177.488218 405.569474 
L 177.266226 405.996464 
L 176.968534 406.326304 
L 176.404883 406.951466 
L 172.287035 411.516607 
L 172.138031 411.634665 
L 154.25721 430.958168 
L 153.11785 432.082202 
L 153.050436 432.147497 
L 153.008162 432.188443 
L 151.731 433.425473 
L 151.641357 433.527799 
L 151.570235 433.608984 
L 151.388739 433.787529 
L 151.212711 433.971459 
L 151.042265 434.160655 
L 150.87775 434.354993 
L 150.719159 434.55424 
L 150.570241 434.753295 
L 150.430937 434.99073 
L 150.135746 435.493742 
L 149.624016 436.308059 
L 149.41559 436.741571 
L 149.234893 437.085243 
L 148.883285 438.187531 
L 147.473026 444.209969 
L 147.062702 444.210597 
L 145.620372 451.066751 
L 142.670169 464.422618 
L 142.512714 465.11178 
L 142.520324 465.297226 
L 142.549928 466.32256 
L 143.006326 472.685504 
L 143.463623 479.2844 
L 142.36785 490.983985 
L 142.04589 494.984867 
L 140.840121 502.079074 
L 138.844001 513.823739 
L 138.754774 514.306674 
L 139.607443 514.314708 
L 139.511239 515.527541 
L 139.325488 517.616012 
L 139.242518 519.566877 
L 139.280927 520.731702 
L 139.207881 522.025539 
L 138.41861 525.412259 
L 137.293557 527.116325 
L 136.57947 528.00782 
L 136.213211 528.580501 
L 135.122827 530.387318 
L 134.618652 531.438171 
L 134.516707 531.677209 
L 134.419931 531.918364 
L 134.32856 532.161633 
L 134.242472 532.406902 
L 131.84248 545.674122 
L 131.895294 546.776601 
L 131.997681 547.762628 
L 132.102836 548.409549 
L 132.221523 549.140001 
L 132.223891 549.20704 
L 132.228996 549.348006 
L 132.050636 550.832914 
L 132.045547 551.338378 
L 132.007121 551.748898 
L 131.951453 552.219015 
L 131.457543 553.890971 
L 130.723408 556.337881 
L 130.502126 557.246397 
L 129.813929 559.750061 
L 128.80366 563.429339 
L 128.503685 564.50222 
L 126.495682 571.992105 
L 124.679907 578.765377 
L 123.988179 579.746441 
L 123.956554 579.886381 
L 123.424292 581.881092 
L 122.747455 584.417105 
L 121.59859 588.644053 
L 120.34961 592.863987 
L 120.208648 593.34012 
L 120.039194 593.878526 
L 119.939522 594.149311 
L 119.787067 594.521185 
L 119.700188 594.814273 
L 119.502781 595.199661 
L 119.134827 595.902234 
L 119.22347 595.964992 
L 119.303824 596.022296 
L 119.115048 596.312153 
L 118.781442 597.273389 
L 118.64525 597.252011 
L 118.54852 597.52414 
L 118.407834 597.919508 
L 118.36057 597.904432 
L 117.169934 600.303839 
L 115.975508 601.776978 
L 115.422103 602.45962 
L 115.363636 602.763132 
L 116.69826 602.774904 
L 117.269406 602.779833 
L 117.798012 602.784554 
L 117.793155 603.01723 
L 120.94849 603.159021 
L 122.699914 603.262246 
L 123.919214 603.300395 
L 124.506838 603.254398 
L 125.39044 603.283536 
L 128.028901 603.383241 
L 128.155805 603.400598 
L 128.579866 603.410904 
L 132.364544 603.63123 
L 132.804891 603.657813 
L 133.261039 603.67602 
L 133.290779 603.688989 
L 137.986968 603.947536 
L 137.998205 603.807766 
L 137.940487 603.80622 
L 138.551104 601.355566 
L 138.666702 601.005093 
L 138.809567 600.986859 
L 139.002971 601.001851 
L 141.745353 601.046153 
L 141.705984 603.750697 
L 145.571907 604.031565 
L 150.484361 604.413451 
L 154.271204 604.869498 
L 155.570066 605.054574 
L 156.860245 605.272315 
L 159.808597 605.753486 
L 160.370089 605.836721 
L 161.504687 606.090268 
L 162.227143 606.245945 
L 164.950969 603.545587 
L 165.096855 603.401875 
L 166.719746 602.181134 
L 167.110137 601.87108 
L 168.921064 600.450638 
L 169.032557 600.365575 
L 170.74355 599.060595 
L 171.658969 598.358481 
L 170.617297 598.309714 
L 174.990044 594.931864 
L 177.404925 593.047009 
L 177.719555 592.801334 
L 178.546806 592.148653 
L 180.668303 590.539923 
L 182.351652 589.230964 
L 184.018801 587.951315 
L 185.681524 586.677367 
L 187.348575 585.344318 
L 188.614461 584.373066 
L 196.116897 578.583088 
L 197.045675 577.863572 
L 197.262321 577.69648 
L 197.530992 577.489262 
L 204.348543 572.2298 
L 207.967516 569.436905 
L 209.508117 568.248058 
L 211.048726 567.059215 
L 212.58934 565.870377 
L 214.129961 564.681542 
L 215.670586 563.492595 
L 217.211222 562.303886 
L 224.834393 556.424266 
L 237.840872 546.395141 
L 238.325996 546.020168 
L 239.522859 545.086732 
L 239.864626 544.843365 
L 240.488154 544.399414 
L 243.041828 542.43183 
L 245.794057 540.311121 
L 246.703627 539.610413 
L 246.807298 539.53022 
L 247.190775 539.225123 
L 247.391156 539.759052 
L 248.34783 542.308854 
L 248.87103 543.703083 
L 249.495588 544.951689 
L 249.633572 545.453765 
L 249.857471 545.382062 
L 277.948979 537.094069 
L 279.884398 536.58013 
L 280.380342 536.44843 
L 280.477132 536.192924 
L 280.808954 535.316203 
L 281.312909 534.666597 
L 281.617174 534.33341 
L 282.049269 533.860635 
L 282.81188 533.025878 
L 283.005156 532.246882 
L 284.907325 522.933483 
L 285.553685 519.639521 
L 285.863712 518.041416 
L 286.34972 515.745414 
L 286.80917 513.4982 
L 287.274571 511.245142 
L 287.744031 508.972839 
L 288.212636 506.704293 
L 288.686587 504.410749 
L 289.156479 502.136102 
L 289.629784 499.844909 
L 290.101174 497.562987 
L 290.584209 495.226258 
L 291.231719 492.198637 
L 291.584122 490.494056 
L 292.734931 484.814924 
L 293.205494 482.537228 
L 293.668075 480.298491 
L 294.148441 477.972921 
L 294.617326 475.70426 
L 295.09451 473.394531 
L 295.566798 471.108623 
L 296.041851 468.808871 
L 296.51213 466.533171 
L 296.880974 464.748029 
L 297.4561 461.964877 
L 297.922536 459.706902 
L 298.401674 457.388373 
L 299.583852 451.66704 
L 299.930103 449.943301 
L 300.818391 445.632871 
L 301.127289 444.134726 
L 301.289656 443.346054 
L 301.761046 441.059469 
L 302.232319 438.772653 
L 302.703598 436.485954 
L 303.174638 434.198793 
L 303.646255 431.911154 
L 304.116837 429.624003 
L 304.587659 427.337081 
L 304.705395 426.765379 
L 304.823132 426.193678 
L 305.058605 425.050274 
L 305.529556 422.763585 
L 306.000627 420.476894 
L 306.470386 418.188475 
L 306.939147 415.902531 
L 307.409606 413.613749 
L 307.885039 411.322768 
L 308.355996 409.035263 
L 308.826737 406.748464 
L 309.818934 401.927628 
L 309.854772 401.755593 
L 310.004048 401.02943 
L 310.173328 400.205959 
L 310.684064 397.726243 
L 311.304672 394.713315 
L 311.420142 393.855436 
L 311.762326 393.639454 
L 317.86119 394.527618 
L 319.709098 394.796238 
" clip-path="url(#p6bd9b26344)" style="fill: #d3d3d3"/>
   </g>
   <g id="matplotlib.axis_1">
    <g id="xtick_1">
     <g id="line2d_1">
      <defs>
       <path id="m469ddcd174" d="M 0 0 
L 0 3.5 
" style="stroke: #000000; stroke-width: 0.8"/>
      </defs>
      <g>
       <use xlink:href="#m469ddcd174" x="166.762173" y="630.51054" style="stroke: #000000; stroke-width: 0.8"/>
      </g>
     </g>
     <g id="text_1">
      <!-- 13.58 -->
      <g transform="translate(152.44811 645.108977) scale(0.1 -0.1)">
       <defs>
        <path id="DejaVuSans-31" d="M 794 531 
L 1825 531 
L 1825 4091 
L 703 3866 
L 703 4441 
L 1819 4666 
L 2450 4666 
L 2450 531 
L 3481 531 
L 3481 0 
L 794 0 
L 794 531 
z
" transform="scale(0.015625)"/>
        <path id="DejaVuSans-33" d="M 2597 2516 
Q 3050 2419 3304 2112 
Q 3559 1806 3559 1356 
Q 3559 666 3084 287 
Q 2609 -91 1734 -91 
Q 1441 -91 1130 -33 
Q 819 25 488 141 
L 488 750 
Q 750 597 1062 519 
Q 1375 441 1716 441 
Q 2309 441 2620 675 
Q 2931 909 2931 1356 
Q 2931 1769 2642 2001 
Q 2353 2234 1838 2234 
L 1294 2234 
L 1294 2753 
L 1863 2753 
Q 2328 2753 2575 2939 
Q 2822 3125 2822 3475 
Q 2822 3834 2567 4026 
Q 2313 4219 1838 4219 
Q 1578 4219 1281 4162 
Q 984 4106 628 3988 
L 628 4550 
Q 988 4650 1302 4700 
Q 1616 4750 1894 4750 
Q 2613 4750 3031 4423 
Q 3450 4097 3450 3541 
Q 3450 3153 3228 2886 
Q 3006 2619 2597 2516 
z
" transform="scale(0.015625)"/>
        <path id="DejaVuSans-2e" d="M 684 794 
L 1344 794 
L 1344 0 
L 684 0 
L 684 794 
z
" transform="scale(0.015625)"/>
        <path id="DejaVuSans-35" d="M 691 4666 
L 3169 4666 
L 3169 4134 
L 1269 4134 
L 1269 2991 
Q 1406 3038 1543 3061 
Q 1681 3084 1819 3084 
Q 2600 3084 3056 2656 
Q 3513 2228 3513 1497 
Q 3513 744 3044 326 
Q 2575 -91 1722 -91 
Q 1428 -91 1123 -41 
Q 819 9 494 109 
L 494 744 
Q 775 591 1075 516 
Q 1375 441 1709 441 
Q 2250 441 2565 725 
Q 2881 1009 2881 1497 
Q 2881 1984 2565 2268 
Q 2250 2553 1709 2553 
Q 1456 2553 1204 2497 
Q 953 2441 691 2322 
L 691 4666 
z
" transform="scale(0.015625)"/>
        <path id="DejaVuSans-38" d="M 2034 2216 
Q 1584 2216 1326 1975 
Q 1069 1734 1069 1313 
Q 1069 891 1326 650 
Q 1584 409 2034 409 
Q 2484 409 2743 651 
Q 3003 894 3003 1313 
Q 3003 1734 2745 1975 
Q 2488 2216 2034 2216 
z
M 1403 2484 
Q 997 2584 770 2862 
Q 544 3141 544 3541 
Q 544 4100 942 4425 
Q 1341 4750 2034 4750 
Q 2731 4750 3128 4425 
Q 3525 4100 3525 3541 
Q 3525 3141 3298 2862 
Q 3072 2584 2669 2484 
Q 3125 2378 3379 2068 
Q 3634 1759 3634 1313 
Q 3634 634 3220 271 
Q 2806 -91 2034 -91 
Q 1263 -91 848 271 
Q 434 634 434 1313 
Q 434 1759 690 2068 
Q 947 2378 1403 2484 
z
M 1172 3481 
Q 1172 3119 1398 2916 
Q 1625 2713 2034 2713 
Q 2441 2713 2670 2916 
Q 2900 3119 2900 3481 
Q 2900 3844 2670 4047 
Q 2441 4250 2034 4250 
Q 1625 4250 1398 4047 
Q 1172 3844 1172 3481 
z
" transform="scale(0.015625)"/>
       </defs>
       <use xlink:href="#DejaVuSans-31"/>
       <use xlink:href="#DejaVuSans-33" x="63.623047"/>
       <use xlink:href="#DejaVuSans-2e" x="127.246094"/>
       <use xlink:href="#DejaVuSans-35" x="159.033203"/>
       <use xlink:href="#DejaVuSans-38" x="222.65625"/>
      </g>
     </g>
    </g>
    <g id="xtick_2">
     <g id="line2d_2">
      <g>
       <use xlink:href="#m469ddcd174" x="245.844131" y="630.51054" style="stroke: #000000; stroke-width: 0.8"/>
      </g>
     </g>
     <g id="text_2">
      <!-- 13.59 -->
      <g transform="translate(231.530069 645.108977) scale(0.1 -0.1)">
       <defs>
        <path id="DejaVuSans-39" d="M 703 97 
L 703 672 
Q 941 559 1184 500 
Q 1428 441 1663 441 
Q 2288 441 2617 861 
Q 2947 1281 2994 2138 
Q 2813 1869 2534 1725 
Q 2256 1581 1919 1581 
Q 1219 1581 811 2004 
Q 403 2428 403 3163 
Q 403 3881 828 4315 
Q 1253 4750 1959 4750 
Q 2769 4750 3195 4129 
Q 3622 3509 3622 2328 
Q 3622 1225 3098 567 
Q 2575 -91 1691 -91 
Q 1453 -91 1209 -44 
Q 966 3 703 97 
z
M 1959 2075 
Q 2384 2075 2632 2365 
Q 2881 2656 2881 3163 
Q 2881 3666 2632 3958 
Q 2384 4250 1959 4250 
Q 1534 4250 1286 3958 
Q 1038 3666 1038 3163 
Q 1038 2656 1286 2365 
Q 1534 2075 1959 2075 
z
" transform="scale(0.015625)"/>
       </defs>
       <use xlink:href="#DejaVuSans-31"/>
       <use xlink:href="#DejaVuSans-33" x="63.623047"/>
       <use xlink:href="#DejaVuSans-2e" x="127.246094"/>
       <use xlink:href="#DejaVuSans-35" x="159.033203"/>
       <use xlink:href="#DejaVuSans-39" x="222.65625"/>
      </g>
     </g>
    </g>
    <g id="xtick_3">
     <g id="line2d_3">
      <g>
       <use xlink:href="#m469ddcd174" x="324.926089" y="630.51054" style="stroke: #000000; stroke-width: 0.8"/>
      </g>
     </g>
     <g id="text_3">
      <!-- 13.60 -->
      <g transform="translate(310.612027 645.108977) scale(0.1 -0.1)">
       <defs>
        <path id="DejaVuSans-36" d="M 2113 2584 
Q 1688 2584 1439 2293 
Q 1191 2003 1191 1497 
Q 1191 994 1439 701 
Q 1688 409 2113 409 
Q 2538 409 2786 701 
Q 3034 994 3034 1497 
Q 3034 2003 2786 2293 
Q 2538 2584 2113 2584 
z
M 3366 4563 
L 3366 3988 
Q 3128 4100 2886 4159 
Q 2644 4219 2406 4219 
Q 1781 4219 1451 3797 
Q 1122 3375 1075 2522 
Q 1259 2794 1537 2939 
Q 1816 3084 2150 3084 
Q 2853 3084 3261 2657 
Q 3669 2231 3669 1497 
Q 3669 778 3244 343 
Q 2819 -91 2113 -91 
Q 1303 -91 875 529 
Q 447 1150 447 2328 
Q 447 3434 972 4092 
Q 1497 4750 2381 4750 
Q 2619 4750 2861 4703 
Q 3103 4656 3366 4563 
z
" transform="scale(0.015625)"/>
        <path id="DejaVuSans-30" d="M 2034 4250 
Q 1547 4250 1301 3770 
Q 1056 3291 1056 2328 
Q 1056 1369 1301 889 
Q 1547 409 2034 409 
Q 2525 409 2770 889 
Q 3016 1369 3016 2328 
Q 3016 3291 2770 3770 
Q 2525 4250 2034 4250 
z
M 2034 4750 
Q 2819 4750 3233 4129 
Q 3647 3509 3647 2328 
Q 3647 1150 3233 529 
Q 2819 -91 2034 -91 
Q 1250 -91 836 529 
Q 422 1150 422 2328 
Q 422 3509 836 4129 
Q 1250 4750 2034 4750 
z
" transform="scale(0.015625)"/>
       </defs>
       <use xlink:href="#DejaVuSans-31"/>
       <use xlink:href="#DejaVuSans-33" x="63.623047"/>
       <use xlink:href="#DejaVuSans-2e" x="127.246094"/>
       <use xlink:href="#DejaVuSans-36" x="159.033203"/>
       <use xlink:href="#DejaVuSans-30" x="222.65625"/>
      </g>
     </g>
    </g>
    <g id="xtick_4">
     <g id="line2d_4">
      <g>
       <use xlink:href="#m469ddcd174" x="404.008048" y="630.51054" style="stroke: #000000; stroke-width: 0.8"/>
      </g>
     </g>
     <g id="text_4">
      <!-- 13.61 -->
      <g transform="translate(389.693985 645.108977) scale(0.1 -0.1)">
       <use xlink:href="#DejaVuSans-31"/>
       <use xlink:href="#DejaVuSans-33" x="63.623047"/>
       <use xlink:href="#DejaVuSans-2e" x="127.246094"/>
       <use xlink:href="#DejaVuSans-36" x="159.033203"/>
       <use xlink:href="#DejaVuSans-31" x="222.65625"/>
      </g>
     </g>
    </g>
    <g id="xtick_5">
     <g id="line2d_5">
      <g>
       <use xlink:href="#m469ddcd174" x="483.090006" y="630.51054" style="stroke: #000000; stroke-width: 0.8"/>
      </g>
     </g>
     <g id="text_5">
      <!-- 13.62 -->
      <g transform="translate(468.775943 645.108977) scale(0.1 -0.1)">
       <defs>
        <path id="DejaVuSans-32" d="M 1228 531 
L 3431 531 
L 3431 0 
L 469 0 
L 469 531 
Q 828 903 1448 1529 
Q 2069 2156 2228 2338 
Q 2531 2678 2651 2914 
Q 2772 3150 2772 3378 
Q 2772 3750 2511 3984 
Q 2250 4219 1831 4219 
Q 1534 4219 1204 4116 
Q 875 4013 500 3803 
L 500 4441 
Q 881 4594 1212 4672 
Q 1544 4750 1819 4750 
Q 2544 4750 2975 4387 
Q 3406 4025 3406 3419 
Q 3406 3131 3298 2873 
Q 3191 2616 2906 2266 
Q 2828 2175 2409 1742 
Q 1991 1309 1228 531 
z
" transform="scale(0.015625)"/>
       </defs>
       <use xlink:href="#DejaVuSans-31"/>
       <use xlink:href="#DejaVuSans-33" x="63.623047"/>
       <use xlink:href="#DejaVuSans-2e" x="127.246094"/>
       <use xlink:href="#DejaVuSans-36" x="159.033203"/>
       <use xlink:href="#DejaVuSans-32" x="222.65625"/>
      </g>
     </g>
    </g>
    <g id="xtick_6">
     <g id="line2d_6">
      <g>
       <use xlink:href="#m469ddcd174" x="562.171964" y="630.51054" style="stroke: #000000; stroke-width: 0.8"/>
      </g>
     </g>
     <g id="text_6">
      <!-- 13.63 -->
      <g transform="translate(547.857902 645.108977) scale(0.1 -0.1)">
       <use xlink:href="#DejaVuSans-31"/>
       <use xlink:href="#DejaVuSans-33" x="63.623047"/>
       <use xlink:href="#DejaVuSans-2e" x="127.246094"/>
       <use xlink:href="#DejaVuSans-36" x="159.033203"/>
       <use xlink:href="#DejaVuSans-33" x="222.65625"/>
      </g>
     </g>
    </g>
    <g id="xtick_7">
     <g id="line2d_7">
      <g>
       <use xlink:href="#m469ddcd174" x="641.253922" y="630.51054" style="stroke: #000000; stroke-width: 0.8"/>
      </g>
     </g>
     <g id="text_7">
      <!-- 13.64 -->
      <g transform="translate(626.93986 645.108977) scale(0.1 -0.1)">
       <defs>
        <path id="DejaVuSans-34" d="M 2419 4116 
L 825 1625 
L 2419 1625 
L 2419 4116 
z
M 2253 4666 
L 3047 4666 
L 3047 1625 
L 3713 1625 
L 3713 1100 
L 3047 1100 
L 3047 0 
L 2419 0 
L 2419 1100 
L 313 1100 
L 313 1709 
L 2253 4666 
z
" transform="scale(0.015625)"/>
       </defs>
       <use xlink:href="#DejaVuSans-31"/>
       <use xlink:href="#DejaVuSans-33" x="63.623047"/>
       <use xlink:href="#DejaVuSans-2e" x="127.246094"/>
       <use xlink:href="#DejaVuSans-36" x="159.033203"/>
       <use xlink:href="#DejaVuSans-34" x="222.65625"/>
      </g>
     </g>
    </g>
   </g>
   <g id="matplotlib.axis_2">
    <g id="ytick_1">
     <g id="line2d_8">
      <defs>
       <path id="m835cb10173" d="M 0 0 
L -3.5 0 
" style="stroke: #000000; stroke-width: 0.8"/>
      </defs>
      <g>
       <use xlink:href="#m835cb10173" x="90" y="575.301034" style="stroke: #000000; stroke-width: 0.8"/>
      </g>
     </g>
     <g id="text_8">
      <!-- 52.515 -->
      <g transform="translate(48.009375 579.100252) scale(0.1 -0.1)">
       <use xlink:href="#DejaVuSans-35"/>
       <use xlink:href="#DejaVuSans-32" x="63.623047"/>
       <use xlink:href="#DejaVuSans-2e" x="127.246094"/>
       <use xlink:href="#DejaVuSans-35" x="159.033203"/>
       <use xlink:href="#DejaVuSans-31" x="222.65625"/>
       <use xlink:href="#DejaVuSans-35" x="286.279297"/>
      </g>
     </g>
    </g>
    <g id="ytick_2">
     <g id="line2d_9">
      <g>
       <use xlink:href="#m835cb10173" x="90" y="510.305186" style="stroke: #000000; stroke-width: 0.8"/>
      </g>
     </g>
     <g id="text_9">
      <!-- 52.520 -->
      <g transform="translate(48.009375 514.104405) scale(0.1 -0.1)">
       <use xlink:href="#DejaVuSans-35"/>
       <use xlink:href="#DejaVuSans-32" x="63.623047"/>
       <use xlink:href="#DejaVuSans-2e" x="127.246094"/>
       <use xlink:href="#DejaVuSans-35" x="159.033203"/>
       <use xlink:href="#DejaVuSans-32" x="222.65625"/>
       <use xlink:href="#DejaVuSans-30" x="286.279297"/>
      </g>
     </g>
    </g>
    <g id="ytick_3">
     <g id="line2d_10">
      <g>
       <use xlink:href="#m835cb10173" x="90" y="445.309338" style="stroke: #000000; stroke-width: 0.8"/>
      </g>
     </g>
     <g id="text_10">
      <!-- 52.525 -->
      <g transform="translate(48.009375 449.108557) scale(0.1 -0.1)">
       <use xlink:href="#DejaVuSans-35"/>
       <use xlink:href="#DejaVuSans-32" x="63.623047"/>
       <use xlink:href="#DejaVuSans-2e" x="127.246094"/>
       <use xlink:href="#DejaVuSans-35" x="159.033203"/>
       <use xlink:href="#DejaVuSans-32" x="222.65625"/>
       <use xlink:href="#DejaVuSans-35" x="286.279297"/>
      </g>
     </g>
    </g>
    <g id="ytick_4">
     <g id="line2d_11">
      <g>
       <use xlink:href="#m835cb10173" x="90" y="380.31349" style="stroke: #000000; stroke-width: 0.8"/>
      </g>
     </g>
     <g id="text_11">
      <!-- 52.530 -->
      <g transform="translate(48.009375 384.112709) scale(0.1 -0.1)">
       <use xlink:href="#DejaVuSans-35"/>
       <use xlink:href="#DejaVuSans-32" x="63.623047"/>
       <use xlink:href="#DejaVuSans-2e" x="127.246094"/>
       <use xlink:href="#DejaVuSans-35" x="159.033203"/>
       <use xlink:href="#DejaVuSans-33" x="222.65625"/>
       <use xlink:href="#DejaVuSans-30" x="286.279297"/>
      </g>
     </g>
    </g>
    <g id="ytick_5">
     <g id="line2d_12">
      <g>
       <use xlink:href="#m835cb10173" x="90" y="315.317643" style="stroke: #000000; stroke-width: 0.8"/>
      </g>
     </g>
     <g id="text_12">
      <!-- 52.535 -->
      <g transform="translate(48.009375 319.116861) scale(0.1 -0.1)">
       <use xlink:href="#DejaVuSans-35"/>
       <use xlink:href="#DejaVuSans-32" x="63.623047"/>
       <use xlink:href="#DejaVuSans-2e" x="127.246094"/>
       <use xlink:href="#DejaVuSans-35" x="159.033203"/>
       <use xlink:href="#DejaVuSans-33" x="222.65625"/>
       <use xlink:href="#DejaVuSans-35" x="286.279297"/>
      </g>
     </g>
    </g>
    <g id="ytick_6">
     <g id="line2d_13">
      <g>
       <use xlink:href="#m835cb10173" x="90" y="250.321795" style="stroke: #000000; stroke-width: 0.8"/>
      </g>
     </g>
     <g id="text_13">
      <!-- 52.540 -->
      <g transform="translate(48.009375 254.121014) scale(0.1 -0.1)">
       <use xlink:href="#DejaVuSans-35"/>
       <use xlink:href="#DejaVuSans-32" x="63.623047"/>
       <use xlink:href="#DejaVuSans-2e" x="127.246094"/>
       <use xlink:href="#DejaVuSans-35" x="159.033203"/>
       <use xlink:href="#DejaVuSans-34" x="222.65625"/>
       <use xlink:href="#DejaVuSans-30" x="286.279297"/>
      </g>
     </g>
    </g>
    <g id="ytick_7">
     <g id="line2d_14">
      <g>
       <use xlink:href="#m835cb10173" x="90" y="185.325947" style="stroke: #000000; stroke-width: 0.8"/>
      </g>
     </g>
     <g id="text_14">
      <!-- 52.545 -->
      <g transform="translate(48.009375 189.125166) scale(0.1 -0.1)">
       <use xlink:href="#DejaVuSans-35"/>
       <use xlink:href="#DejaVuSans-32" x="63.623047"/>
       <use xlink:href="#DejaVuSans-2e" x="127.246094"/>
       <use xlink:href="#DejaVuSans-35" x="159.033203"/>
       <use xlink:href="#DejaVuSans-34" x="222.65625"/>
       <use xlink:href="#DejaVuSans-35" x="286.279297"/>
      </g>
     </g>
    </g>
    <g id="ytick_8">
     <g id="line2d_15">
      <g>
       <use xlink:href="#m835cb10173" x="90" y="120.3301" style="stroke: #000000; stroke-width: 0.8"/>
      </g>
     </g>
     <g id="text_15">
      <!-- 52.550 -->
      <g transform="translate(48.009375 124.129318) scale(0.1 -0.1)">
       <use xlink:href="#DejaVuSans-35"/>
       <use xlink:href="#DejaVuSans-32" x="63.623047"/>
       <use xlink:href="#DejaVuSans-2e" x="127.246094"/>
       <use xlink:href="#DejaVuSans-35" x="159.033203"/>
       <use xlink:href="#DejaVuSans-35" x="222.65625"/>
       <use xlink:href="#DejaVuSans-30" x="286.279297"/>
      </g>
     </g>
    </g>
   </g>
   <g id="LineCollection_1">
    <path d="M 362.272544 294.338283 
L 362.436244 295.00774 
L 362.589663 295.656399 
L 363.284793 297.380089 
" clip-path="url(#p6bd9b26344)" style="fill: none; stroke: #ff0000; stroke-opacity: 0.7; stroke-width: 0.5"/>
    <path d="M 371.263372 293.157958 
L 377.721996 290.415134 
L 385.524222 287.119844 
L 386.378307 286.686972 
" clip-path="url(#p6bd9b26344)" style="fill: none; stroke: #ff0000; stroke-opacity: 0.7; stroke-width: 0.5"/>
    <path d="M 499.149179 344.130302 
L 498.516524 343.778025 
L 498.025425 343.505042 
L 497.915501 343.443946 
L 497.252794 343.074769 
L 496.469882 342.640597 
L 492.199457 340.269549 
L 491.238611 339.736583 
L 488.817121 338.388569 
L 486.003385 336.828668 
L 485.112922 336.368498 
L 484.522971 336.064317 
L 482.556994 335.049082 
L 481.437193 334.505717 
" clip-path="url(#p6bd9b26344)" style="fill: none; stroke: #ff0000; stroke-opacity: 0.7; stroke-width: 0.5"/>
    <path d="M 472.474835 307.791124 
L 472.551544 306.809686 
L 472.668585 305.304382 
L 475.617552 300.165811 
L 475.69268 300.038419 
L 475.836609 299.778435 
L 476.365667 299.103779 
L 477.074241 298.563013 
L 477.627024 298.226335 
L 478.525395 297.772664 
L 479.274301 297.525679 
L 483.133501 296.385652 
L 484.252511 296.055473 
" clip-path="url(#p6bd9b26344)" style="fill: none; stroke: #ff0000; stroke-opacity: 0.7; stroke-width: 0.5"/>
    <path d="M 268.331877 501.857026 
L 269.405019 502.091011 
L 270.347676 502.305497 
L 271.374951 502.525183 
L 276.28594 503.578116 
L 277.253112 503.806901 
L 285.987715 505.691781 
L 286.212308 505.739878 
" clip-path="url(#p6bd9b26344)" style="fill: none; stroke: #ff0000; stroke-opacity: 0.7; stroke-width: 0.5"/>
    <path d="M 329.489118 358.639975 
L 328.348757 359.149542 
L 326.690408 359.956791 
L 325.139611 360.710743 
L 321.055028 363.192284 
L 314.405816 367.710796 
L 313.55015 368.278859 
" clip-path="url(#p6bd9b26344)" style="fill: none; stroke: #ff0000; stroke-opacity: 0.7; stroke-width: 0.5"/>
    <path d="M 161.6258 438.497773 
L 162.539196 438.890348 
L 165.133875 440.060273 
" clip-path="url(#p6bd9b26344)" style="fill: none; stroke: #ff0000; stroke-opacity: 0.7; stroke-width: 0.5"/>
    <path d="M 349.090373 279.67652 
L 349.238256 279.494531 
L 349.441496 279.242347 
L 349.579099 279.072058 
L 357.256376 269.593064 
L 357.613035 269.149792 
" clip-path="url(#p6bd9b26344)" style="fill: none; stroke: #ff0000; stroke-opacity: 0.7; stroke-width: 0.5"/>
    <path d="M 238.003155 468.043586 
L 234.040358 467.288334 
" clip-path="url(#p6bd9b26344)" style="fill: none; stroke: #ff0000; stroke-opacity: 0.7; stroke-width: 0.5"/>
    <path d="M 234.040358 467.288334 
L 229.773886 466.386192 
L 227.974772 466.005316 
L 227.597551 465.926021 
L 227.186325 465.840227 
" clip-path="url(#p6bd9b26344)" style="fill: none; stroke: #ff0000; stroke-opacity: 0.7; stroke-width: 0.5"/>
    <path d="M 366.196591 296.123069 
L 365.650135 294.843951 
L 365.476945 294.440976 
L 365.193041 293.856014 
L 364.910718 293.251552 
" clip-path="url(#p6bd9b26344)" style="fill: none; stroke: #ff0000; stroke-opacity: 0.7; stroke-width: 0.5"/>
    <path d="M 230.412078 337.515025 
L 229.909117 334.040347 
L 231.068458 328.476702 
L 231.480475 324.729041 
L 232.51803 324.661446 
L 233.056578 327.744849 
L 233.831582 328.383108 
L 240.342399 328.853678 
L 240.385894 328.246617 
L 243.448739 328.568996 
L 243.255779 331.79799 
L 248.31307 332.358254 
L 248.667357 332.412851 
L 248.116156 335.361062 
L 254.844449 336.81177 
L 254.714754 341.881446 
L 255.148914 342.361115 
L 253.392504 352.699355 
L 252.343877 359.03125 
L 251.2565 364.888676 
L 250.946499 367.17393 
L 250.094786 372.290403 
L 249.874148 374.012793 
L 249.44236 375.254214 
L 246.850054 383.91686 
L 245.252598 383.44759 
L 247.084927 377.583665 
L 245.270787 377.016901 
L 245.392573 376.490435 
L 240.925233 375.200917 
L 240.412782 376.850512 
L 238.316319 383.590581 
L 242.754399 384.961993 
L 244.092466 385.375367 
L 243.248661 388.051896 
L 242.955267 388.29758 
L 242.409602 388.482169 
L 241.290592 388.158489 
L 241.410797 387.706118 
L 232.576551 384.956794 
L 231.87114 384.790404 
L 230.591594 384.574618 
L 229.42988 384.462825 
L 228.312452 384.426428 
L 227.225075 384.478424 
L 226.143234 384.603216 
L 224.770371 384.876199 
L 223.365084 385.289573 
L 222.010411 385.79784 
L 220.508644 386.57649 
L 220.674716 386.933967 
L 219.289991 387.590426 
L 219.108103 387.196551 
L 210.050846 391.520074 
L 208.967423 389.983573 
L 208.160787 389.050232 
L 209.740054 387.555328 
L 214.473109 382.308863 
L 215.06306 381.783697 
L 217.945598 379.404848 
L 224.553686 373.8958 
L 226.824129 372.190309 
L 227.466275 370.505617 
L 228.37809 368.594739 
L 229.31442 367.699096 
L 229.021817 362.429233 
L 228.724469 357.063176 
L 227.547729 356.966982 
L 226.856553 346.407757 
L 227.875129 346.422056 
L 227.936812 345.245631 
L 226.869997 345.191034 
L 228.408141 337.58392 
L 230.127383 337.525424 
L 230.412078 337.515025 
" clip-path="url(#p6bd9b26344)" style="fill: none; stroke: #ff0000; stroke-opacity: 0.7; stroke-width: 0.5"/>
    <path d="M 357.709515 260.601538 
L 357.044436 260.687333 
L 356.516959 260.756228 
L 353.428809 261.157903 
L 346.088421 262.110742 
L 345.091198 262.240734 
" clip-path="url(#p6bd9b26344)" style="fill: none; stroke: #ff0000; stroke-opacity: 0.7; stroke-width: 0.5"/>
    <path d="M 159.064335 437.357746 
L 161.6258 438.497773 
" clip-path="url(#p6bd9b26344)" style="fill: none; stroke: #ff0000; stroke-opacity: 0.7; stroke-width: 0.5"/>
    <path d="M 364.910718 293.251552 
L 364.513727 292.147923 
" clip-path="url(#p6bd9b26344)" style="fill: none; stroke: #ff0000; stroke-opacity: 0.7; stroke-width: 0.5"/>
    <path d="M 321.738296 380.512378 
L 322.863632 380.176999 
L 324.384378 379.488043 
L 325.922522 378.787388 
L 330.391444 376.668523 
L 335.152177 374.547059 
L 336.120141 374.099887 
" clip-path="url(#p6bd9b26344)" style="fill: none; stroke: #ff0000; stroke-opacity: 0.7; stroke-width: 0.5"/>
    <path d="M 318.61614 395.720106 
L 318.946703 394.210903 
L 319.492368 391.59807 
L 319.672675 390.724525 
L 320.196988 388.107792 
L 320.238902 387.850409 
L 320.60426 386.020126 
L 321.040793 384.053352 
L 321.738296 380.512378 
" clip-path="url(#p6bd9b26344)" style="fill: none; stroke: #ff0000; stroke-opacity: 0.7; stroke-width: 0.5"/>
    <path d="M 142.542532 430.022315 
L 143.513659 430.452587 
L 147.946993 432.414162 
L 159.064335 437.357746 
" clip-path="url(#p6bd9b26344)" style="fill: none; stroke: #ff0000; stroke-opacity: 0.7; stroke-width: 0.5"/>
    <path d="M 204.118908 496.028198 
L 205.001463 495.781214 
L 205.40399 496.558564 
L 205.985242 497.489305 
L 206.159223 498.668329 
L 205.927513 499.926649 
L 206.333203 501.242165 
L 205.966263 502.473186 
L 195.241168 505.583887 
L 193.366925 499.051805 
L 195.123336 498.547437 
L 204.118908 496.028198 
" clip-path="url(#p6bd9b26344)" style="fill: none; stroke: #ff0000; stroke-opacity: 0.7; stroke-width: 0.5"/>
    <path d="M 366.478914 313.137682 
L 365.6359 313.530257 
L 365.74187 313.816239 
L 357.594056 317.743288 
L 353.122762 322.859761 
L 347.788684 325.343902 
L 345.137065 319.841354 
L 338.324946 322.890959 
L 336.674505 314.590989 
L 336.889608 314.484396 
L 336.718791 313.350868 
L 337.864689 312.871199 
L 339.991993 311.954758 
L 341.157661 311.458189 
L 344.989182 309.811195 
L 349.755452 307.824921 
L 350.44821 307.454445 
L 352.017987 306.714792 
L 364.016301 301.650316 
L 365.069673 304.077261 
L 365.522813 305.147092 
L 369.268925 313.869535 
L 367.428688 314.627387 
L 366.945497 314.097021 
L 366.478914 313.137682 
" clip-path="url(#p6bd9b26344)" style="fill: none; stroke: #ff0000; stroke-opacity: 0.7; stroke-width: 0.5"/>
    <path d="M 195.500556 505.772375 
L 197.744902 505.123717 
L 201.030758 504.181277 
L 206.868588 502.57068 
L 207.265579 503.331131 
L 215.758982 500.814492 
L 215.856253 500.784594 
" clip-path="url(#p6bd9b26344)" style="fill: none; stroke: #ff0000; stroke-opacity: 0.7; stroke-width: 0.5"/>
    <path d="M 162.183327 437.704824 
L 159.729414 436.599895 
" clip-path="url(#p6bd9b26344)" style="fill: none; stroke: #ff0000; stroke-opacity: 0.7; stroke-width: 0.5"/>
    <path d="M 166.853908 440.838924 
L 172.82855 443.544051 
L 180.758098 447.408704 
L 186.951006 450.239923 
" clip-path="url(#p6bd9b26344)" style="fill: none; stroke: #ff0000; stroke-opacity: 0.7; stroke-width: 0.5"/>
    <path d="M 224.189909 464.949783 
L 222.320412 463.625168 
L 222.032553 463.419781 
L 221.709899 463.301489 
" clip-path="url(#p6bd9b26344)" style="fill: none; stroke: #ff0000; stroke-opacity: 0.7; stroke-width: 0.5"/>
    <path d="M 273.733175 475.402416 
L 272.446511 475.154131 
L 272.249597 475.113834 
L 270.56357 474.769356 
L 267.616185 474.166195 
L 263.621755 473.349847 
L 258.508316 472.303414 
L 257.133081 472.022632 
L 255.00024 471.597559 
L 253.688271 471.328476 
L 251.054051 470.783811 
L 245.906606 469.574888 
" clip-path="url(#p6bd9b26344)" style="fill: none; stroke: #ff0000; stroke-opacity: 0.7; stroke-width: 0.5"/>
    <path d="M 275.362263 516.418695 
L 270.036884 515.341064 
L 269.643846 515.380062 
L 269.304585 515.55945 
L 268.676674 516.122314 
L 268.832466 516.678679 
L 269.137722 517.067354 
L 269.569509 517.432631 
L 274.926521 518.54276 
" clip-path="url(#p6bd9b26344)" style="fill: none; stroke: #ff0000; stroke-opacity: 0.7; stroke-width: 0.5"/>
    <path d="M 225.452848 465.47235 
L 224.189909 464.949783 
" clip-path="url(#p6bd9b26344)" style="fill: none; stroke: #ff0000; stroke-opacity: 0.7; stroke-width: 0.5"/>
    <path d="M 364.513727 292.147923 
L 363.453238 292.556097 
L 363.0602 292.706887 
L 361.964915 293.13196 
" clip-path="url(#p6bd9b26344)" style="fill: none; stroke: #ff0000; stroke-opacity: 0.7; stroke-width: 0.5"/>
    <path d="M 221.311326 464.6872 
L 221.576251 464.771695 
L 221.915512 464.793793 
L 224.189909 464.949783 
" clip-path="url(#p6bd9b26344)" style="fill: none; stroke: #ff0000; stroke-opacity: 0.7; stroke-width: 0.5"/>
    <path d="M 191.95294 451.090069 
L 189.588389 450.111231 
L 187.052231 449.069998 
L 181.224681 446.402568 
L 165.531658 439.240026 
" clip-path="url(#p6bd9b26344)" style="fill: none; stroke: #ff0000; stroke-opacity: 0.7; stroke-width: 0.5"/>
    <path d="M 303.963835 354.112364 
L 303.24498 353.015234 
L 302.039771 351.174552 
L 297.489395 344.271993 
L 296.995923 343.996411 
L 291.358961 342.856383 
L 290.950898 342.871982 
L 290.553116 342.970776 
L 289.743317 343.338653 
" clip-path="url(#p6bd9b26344)" style="fill: none; stroke: #ff0000; stroke-opacity: 0.7; stroke-width: 0.5"/>
    <path d="M 313.55015 368.278859 
L 312.731651 367.180429 
L 309.855441 362.873805 
L 306.344202 357.61694 
L 304.684271 355.153598 
L 303.963835 354.112364 
" clip-path="url(#p6bd9b26344)" style="fill: none; stroke: #ff0000; stroke-opacity: 0.7; stroke-width: 0.5"/>
    <path d="M 294.919231 380.409684 
L 294.897879 381.398921 
L 294.534893 383.212305 
L 293.569302 388.024598 
L 292.19723 394.537182 
L 291.615978 397.295606 
" clip-path="url(#p6bd9b26344)" style="fill: none; stroke: #ff0000; stroke-opacity: 0.7; stroke-width: 0.5"/>
    <path d="M 313.55015 368.278859 
L 312.767238 368.778027 
L 311.989863 369.269396 
L 307.637192 371.87443 
L 303.7859 374.439166 
L 302.661355 375.172319 
L 299.857899 377.0299 
L 296.842504 379.027873 
L 296.055639 379.549139 
L 295.758291 379.746727 
L 294.919231 380.409684 
" clip-path="url(#p6bd9b26344)" style="fill: none; stroke: #ff0000; stroke-opacity: 0.7; stroke-width: 0.5"/>
    <path d="M 291.615978 397.295606 
L 291.076639 399.88244 
L 290.123701 404.452948 
L 290.090487 404.608938 
L 288.698644 411.284012 
L 288.663057 411.459501 
L 288.434511 412.577429 
L 288.199637 413.640761 
L 287.869865 415.329353 
L 286.10871 423.925704 
L 286.011439 424.400174 
L 285.683249 426.005571 
" clip-path="url(#p6bd9b26344)" style="fill: none; stroke: #ff0000; stroke-opacity: 0.7; stroke-width: 0.5"/>
    <path d="M 389.551075 285.922621 
L 393.63803 284.490112 
L 404.590882 280.817847 
L 405.00448 280.319979 
L 404.933307 279.272245 
" clip-path="url(#p6bd9b26344)" style="fill: none; stroke: #ff0000; stroke-opacity: 0.7; stroke-width: 0.5"/>
    <path d="M 268.156315 516.013121 
L 267.463557 515.846732 
L 265.526049 515.528252 
" clip-path="url(#p6bd9b26344)" style="fill: none; stroke: #ff0000; stroke-opacity: 0.7; stroke-width: 0.5"/>
    <path d="M 286.212308 505.739878 
L 284.611689 513.549779 
L 283.501378 513.310594 
L 282.992881 513.201401 
" clip-path="url(#p6bd9b26344)" style="fill: none; stroke: #ff0000; stroke-opacity: 0.7; stroke-width: 0.5"/>
    <path d="M 361.964915 293.13196 
L 362.272544 294.338283 
" clip-path="url(#p6bd9b26344)" style="fill: none; stroke: #ff0000; stroke-opacity: 0.7; stroke-width: 0.5"/>
    <path d="M 362.272544 294.338283 
L 363.400253 293.874213 
L 363.780637 293.716923 
L 364.910718 293.251552 
" clip-path="url(#p6bd9b26344)" style="fill: none; stroke: #ff0000; stroke-opacity: 0.7; stroke-width: 0.5"/>
    <path d="M 241.208347 468.618149 
L 240.098827 468.428361 
L 238.003155 468.043586 
" clip-path="url(#p6bd9b26344)" style="fill: none; stroke: #ff0000; stroke-opacity: 0.7; stroke-width: 0.5"/>
    <path d="M 198.396538 453.951186 
L 197.929954 453.741899 
L 196.884491 453.273929 
" clip-path="url(#p6bd9b26344)" style="fill: none; stroke: #ff0000; stroke-opacity: 0.7; stroke-width: 0.5"/>
    <path d="M 197.808959 455.182207 
L 204.194827 458.11872 
L 208.110966 459.793013 
L 212.055574 461.391911 
" clip-path="url(#p6bd9b26344)" style="fill: none; stroke: #ff0000; stroke-opacity: 0.7; stroke-width: 0.5"/>
    <path d="M 186.951006 450.239923 
L 194.916141 453.856292 
L 195.095657 453.938187 
L 195.391423 454.074678 
L 195.623924 454.179971 
L 196.353851 454.51145 
" clip-path="url(#p6bd9b26344)" style="fill: none; stroke: #ff0000; stroke-opacity: 0.7; stroke-width: 0.5"/>
    <path d="M 480.187698 334.266532 
L 479.848436 335.067281 
L 477.902229 339.659888 
L 477.309906 339.901672 
L 470.295336 337.001557 
L 465.483199 335.012684 
L 464.944651 334.828096 
L 464.660746 334.405623 
L 464.38475 333.571077 
L 465.163708 333.338391 
L 467.109124 332.757329 
L 466.115854 329.433441 
L 467.460248 329.020067 
L 475.753573 326.645119 
L 476.59975 326.405934 
L 476.804572 327.071492 
L 477.358936 327.959335 
L 478.643227 332.130769 
L 478.704121 332.213963 
L 479.545553 333.36179 
L 480.187698 334.266532 
" clip-path="url(#p6bd9b26344)" style="fill: none; stroke: #ff0000; stroke-opacity: 0.7; stroke-width: 0.5"/>
    <path d="M 278.957329 450.368615 
L 278.701894 451.725728 
L 278.519215 452.747463 
L 277.691227 456.733008 
L 276.705865 461.538801 
L 276.395864 463.049305 
L 276.058975 464.6937 
L 274.234554 473.036567 
L 274.028941 474.001105 
L 273.733175 475.402416 
L 273.453224 476.862222 
L 273.24682 477.854059 
L 272.351613 482.107387 
L 271.533114 485.992839 
L 271.306149 487.07177 
L 270.695636 490.05118 
L 270.427549 491.317299 
L 268.535908 500.783294 
L 268.331877 501.857026 
" clip-path="url(#p6bd9b26344)" style="fill: none; stroke: #ff0000; stroke-opacity: 0.7; stroke-width: 0.5"/>
    <path d="M 328.684064 387.664521 
L 329.221031 385.203778 
L 333.347527 383.250003 
" clip-path="url(#p6bd9b26344)" style="fill: none; stroke: #ff0000; stroke-opacity: 0.7; stroke-width: 0.5"/>
    <path d="M 320.60426 386.020126 
L 321.785745 386.299608 
L 325.204458 387.021062 
L 328.071179 387.626823 
L 328.26493 387.638522 
L 328.684064 387.664521 
L 330.548026 388.044097 
" clip-path="url(#p6bd9b26344)" style="fill: none; stroke: #ff0000; stroke-opacity: 0.7; stroke-width: 0.5"/>
    <path d="M 330.391444 376.668523 
L 331.988108 380.196498 
L 333.347527 383.250003 
L 334.403271 385.578154 
" clip-path="url(#p6bd9b26344)" style="fill: none; stroke: #ff0000; stroke-opacity: 0.7; stroke-width: 0.5"/>
    <path d="M 350.249714 279.584226 
L 349.579099 279.072058 
L 349.152847 278.747079 
L 356.238591 269.507269 
L 357.228697 269.370778 
L 357.256376 269.593064 
L 357.352856 270.371714 
L 350.249714 279.584226 
" clip-path="url(#p6bd9b26344)" style="fill: none; stroke: #ff0000; stroke-opacity: 0.7; stroke-width: 0.5"/>
    <path d="M 282.992881 513.201401 
L 276.418798 511.826089 
L 276.032878 513.791563 
" clip-path="url(#p6bd9b26344)" style="fill: none; stroke: #ff0000; stroke-opacity: 0.7; stroke-width: 0.5"/>
    <path d="M 329.43297 264.736574 
L 330.389862 264.593583 
L 338.129613 263.379461 
L 344.319358 262.425322 
L 345.091198 262.240734 
" clip-path="url(#p6bd9b26344)" style="fill: none; stroke: #ff0000; stroke-opacity: 0.7; stroke-width: 0.5"/>
    <path d="M 366.540597 282.060567 
L 365.604267 282.458342 
L 364.686126 282.848317 
L 364.509773 282.923712 
L 363.959362 283.157697 
L 360.017918 284.820291 
L 356.724154 286.232001 
L 352.940082 287.851697 
L 355.776752 294.580068 
L 355.840809 294.730858 
L 355.96813 295.032439 
L 356.058284 295.245625 
L 357.444591 297.224099 
L 357.488086 297.335891 
L 357.567168 297.494481 
L 357.639132 297.720667 
L 358.450513 299.630245 
L 362.420427 297.932553 
L 362.354789 297.781763 
L 362.550122 297.695968 
L 362.665582 297.647872 
L 362.765225 297.604974 
L 363.284793 297.380089 
L 364.54615 296.834124 
L 364.943933 296.661235 
L 366.196591 296.123069 
L 366.69718 295.904683 
L 366.772308 295.872185 
L 366.924936 295.804589 
L 367.110778 295.725294 
L 367.204886 295.94628 
L 371.631103 294.032803 
L 371.263372 293.157958 
L 371.049851 292.695188 
L 370.367373 291.132688 
L 368.934408 287.721706 
L 368.666321 287.088646 
L 368.184711 285.951219 
L 367.126595 283.447579 
L 366.839527 282.767722 
L 366.568276 282.125563 
L 366.540597 282.060567 
" clip-path="url(#p6bd9b26344)" style="fill: none; stroke: #ff0000; stroke-opacity: 0.7; stroke-width: 0.5"/>
    <path d="M 159.729414 436.599895 
L 143.001208 428.947283 
L 140.546504 427.835854 
L 138.190652 426.741324 
L 135.314441 425.319215 
L 135.106456 425.191823 
L 134.200967 424.684856 
L 132.880299 423.956902 
L 129.170564 421.977129 
L 125.184833 419.360396 
L 120.946831 416.085905 
L 119.596902 415.042072 
" clip-path="url(#p6bd9b26344)" style="fill: none; stroke: #ff0000; stroke-opacity: 0.7; stroke-width: 0.5"/>
    <path d="M 165.133875 440.060273 
L 166.853908 440.838924 
" clip-path="url(#p6bd9b26344)" style="fill: none; stroke: #ff0000; stroke-opacity: 0.7; stroke-width: 0.5"/>
    <path d="M 196.884491 453.273929 
L 195.941043 452.848856 
L 195.654766 452.718865 
" clip-path="url(#p6bd9b26344)" style="fill: none; stroke: #ff0000; stroke-opacity: 0.7; stroke-width: 0.5"/>
    <path d="M 165.531658 439.240026 
L 162.944887 438.0766 
L 162.183327 437.704824 
" clip-path="url(#p6bd9b26344)" style="fill: none; stroke: #ff0000; stroke-opacity: 0.7; stroke-width: 0.5"/>
    <path d="M 289.743317 343.338653 
L 288.900303 343.917116 
L 282.699487 347.978056 
L 281.429431 348.811303 
L 273.949859 353.652194 
L 273.363071 354.108465 
" clip-path="url(#p6bd9b26344)" style="fill: none; stroke: #ff0000; stroke-opacity: 0.7; stroke-width: 0.5"/>
    <path d="M 273.363071 354.108465 
L 272.343704 355.548773 
L 272.152326 356.565308 
L 271.167756 361.788374 
L 271.114771 362.060057 
" clip-path="url(#p6bd9b26344)" style="fill: none; stroke: #ff0000; stroke-opacity: 0.7; stroke-width: 0.5"/>
    <path d="M 271.114771 362.060057 
L 269.75298 369.105606 
" clip-path="url(#p6bd9b26344)" style="fill: none; stroke: #ff0000; stroke-opacity: 0.7; stroke-width: 0.5"/>
    <path d="M 269.75298 369.105606 
L 269.681015 369.478683 
L 268.799251 373.459028 
L 268.527209 374.861639 
" clip-path="url(#p6bd9b26344)" style="fill: none; stroke: #ff0000; stroke-opacity: 0.7; stroke-width: 0.5"/>
    <path d="M 342.60407 352.856645 
L 341.549117 353.319415 
L 335.902665 355.800956 
L 330.493459 358.177205 
L 329.489118 358.639975 
" clip-path="url(#p6bd9b26344)" style="fill: none; stroke: #ff0000; stroke-opacity: 0.7; stroke-width: 0.5"/>
    <path d="M 321.738296 380.512378 
L 321.567479 380.035308 
L 321.207656 379.452945 
L 317.466288 373.836004 
L 317.151542 373.362834 
L 315.350846 370.527716 
L 314.128239 368.871621 
L 313.55015 368.278859 
" clip-path="url(#p6bd9b26344)" style="fill: none; stroke: #ff0000; stroke-opacity: 0.7; stroke-width: 0.5"/>
    <path d="M 488.666075 294.738657 
L 489.509088 294.335683 
L 490.299117 293.576532 
L 491.12157 292.596394 
L 491.225167 292.472902 
L 491.717848 291.88404 
L 492.104558 291.422569 
" clip-path="url(#p6bd9b26344)" style="fill: none; stroke: #ff0000; stroke-opacity: 0.7; stroke-width: 0.5"/>
    <path d="M 484.252511 296.055473 
L 487.738443 295.022039 
L 488.666075 294.738657 
" clip-path="url(#p6bd9b26344)" style="fill: none; stroke: #ff0000; stroke-opacity: 0.7; stroke-width: 0.5"/>
    <path d="M 265.526049 515.528252 
L 265.246099 516.903564 
L 264.419692 520.88781 
L 263.11484 527.078014 
L 262.860987 528.228441 
L 262.602389 529.439963 
" clip-path="url(#p6bd9b26344)" style="fill: none; stroke: #ff0000; stroke-opacity: 0.7; stroke-width: 0.5"/>
    <path d="M 268.331877 501.857026 
L 268.119937 502.891759 
L 267.334653 506.723915 
L 265.815489 514.141241 
L 265.526049 515.528252 
" clip-path="url(#p6bd9b26344)" style="fill: none; stroke: #ff0000; stroke-opacity: 0.7; stroke-width: 0.5"/>
    <path d="M 268.676674 516.122314 
L 268.565959 516.110615 
L 268.361137 516.061218 
L 268.156315 516.013121 
" clip-path="url(#p6bd9b26344)" style="fill: none; stroke: #ff0000; stroke-opacity: 0.7; stroke-width: 0.5"/>
    <path d="M 386.378307 286.686972 
L 386.842518 286.87156 
L 389.551075 285.922621 
" clip-path="url(#p6bd9b26344)" style="fill: none; stroke: #ff0000; stroke-opacity: 0.7; stroke-width: 0.5"/>
    <path d="M 477.392151 324.645847 
L 477.211053 324.003688 
L 475.562194 318.156661 
L 474.281857 313.752543 
L 474.092852 313.103884 
L 473.865886 312.359032 
L 473.634967 311.60118 
L 472.474835 307.791124 
" clip-path="url(#p6bd9b26344)" style="fill: none; stroke: #ff0000; stroke-opacity: 0.7; stroke-width: 0.5"/>
    <path d="M 481.437193 334.505717 
L 480.636884 333.66727 
L 480.015299 332.679334 
L 479.358128 331.211727 
L 478.827488 329.664826 
L 477.6033 325.355601 
L 477.392151 324.645847 
" clip-path="url(#p6bd9b26344)" style="fill: none; stroke: #ff0000; stroke-opacity: 0.7; stroke-width: 0.5"/>
    <path d="M 305.42606 409.881401 
L 305.867337 409.969796 
L 307.456094 402.70196 
L 307.768468 401.168058 
L 307.872856 400.653291 
" clip-path="url(#p6bd9b26344)" style="fill: none; stroke: #ff0000; stroke-opacity: 0.7; stroke-width: 0.5"/>
    <path d="M 295.660229 420.38993 
L 295.751964 418.419256 
L 295.936225 415.214961 
L 296.380666 413.064898 
" clip-path="url(#p6bd9b26344)" style="fill: none; stroke: #ff0000; stroke-opacity: 0.7; stroke-width: 0.5"/>
    <path d="M 212.055574 461.391911 
L 216.739598 463.064904 
" clip-path="url(#p6bd9b26344)" style="fill: none; stroke: #ff0000; stroke-opacity: 0.7; stroke-width: 0.5"/>
    <path d="M 221.709899 463.301489 
L 215.543088 461.099429 
L 209.381813 458.792077 
" clip-path="url(#p6bd9b26344)" style="fill: none; stroke: #ff0000; stroke-opacity: 0.7; stroke-width: 0.5"/>
    <path d="M 216.739598 463.064904 
L 221.049565 464.604005 
L 221.311326 464.6872 
" clip-path="url(#p6bd9b26344)" style="fill: none; stroke: #ff0000; stroke-opacity: 0.7; stroke-width: 0.5"/>
    <path d="M 196.353851 454.51145 
L 197.475233 455.031417 
L 197.808959 455.182207 
" clip-path="url(#p6bd9b26344)" style="fill: none; stroke: #ff0000; stroke-opacity: 0.7; stroke-width: 0.5"/>
    <path d="M 209.381813 458.792077 
L 198.396538 453.951186 
" clip-path="url(#p6bd9b26344)" style="fill: none; stroke: #ff0000; stroke-opacity: 0.7; stroke-width: 0.5"/>
    <path d="M 195.654766 452.718865 
L 191.95294 451.090069 
" clip-path="url(#p6bd9b26344)" style="fill: none; stroke: #ff0000; stroke-opacity: 0.7; stroke-width: 0.5"/>
    <path d="M 245.906606 469.574888 
L 243.376774 468.993825 
" clip-path="url(#p6bd9b26344)" style="fill: none; stroke: #ff0000; stroke-opacity: 0.7; stroke-width: 0.5"/>
    <path d="M 243.376774 468.993825 
L 241.208347 468.618149 
" clip-path="url(#p6bd9b26344)" style="fill: none; stroke: #ff0000; stroke-opacity: 0.7; stroke-width: 0.5"/>
    <path d="M 227.186325 465.840227 
L 225.452848 465.47235 
" clip-path="url(#p6bd9b26344)" style="fill: none; stroke: #ff0000; stroke-opacity: 0.7; stroke-width: 0.5"/>
   </g>
   <g id="patch_3">
    <path d="M 90 630.51054 
L 90 96.68946 
" style="fill: none; stroke: #000000; stroke-width: 0.8; stroke-linejoin: miter; stroke-linecap: square"/>
   </g>
   <g id="patch_4">
    <path d="M 648 630.51054 
L 648 96.68946 
" style="fill: none; stroke: #000000; stroke-width: 0.8; stroke-linejoin: miter; stroke-linecap: square"/>
   </g>
   <g id="patch_5">
    <path d="M 90 630.51054 
L 648 630.51054 
" style="fill: none; stroke: #000000; stroke-width: 0.8; stroke-linejoin: miter; stroke-linecap: square"/>
   </g>
   <g id="patch_6">
    <path d="M 90 96.68946 
L 648 96.68946 
" style="fill: none; stroke: #000000; stroke-width: 0.8; stroke-linejoin: miter; stroke-linecap: square"/>
   </g>
   <g id="text_16">
    <!-- Hellersdorf -->
    <g transform="translate(298.872908 331.62393) scale(0.12 -0.12)">
     <defs>
      <path id="DejaVuSans-48" d="M 628 4666 
L 1259 4666 
L 1259 2753 
L 3553 2753 
L 3553 4666 
L 4184 4666 
L 4184 0 
L 3553 0 
L 3553 2222 
L 1259 2222 
L 1259 0 
L 628 0 
L 628 4666 
z
" transform="scale(0.015625)"/>
      <path id="DejaVuSans-65" d="M 3597 1894 
L 3597 1613 
L 953 1613 
Q 991 1019 1311 708 
Q 1631 397 2203 397 
Q 2534 397 2845 478 
Q 3156 559 3463 722 
L 3463 178 
Q 3153 47 2828 -22 
Q 2503 -91 2169 -91 
Q 1331 -91 842 396 
Q 353 884 353 1716 
Q 353 2575 817 3079 
Q 1281 3584 2069 3584 
Q 2775 3584 3186 3129 
Q 3597 2675 3597 1894 
z
M 3022 2063 
Q 3016 2534 2758 2815 
Q 2500 3097 2075 3097 
Q 1594 3097 1305 2825 
Q 1016 2553 972 2059 
L 3022 2063 
z
" transform="scale(0.015625)"/>
      <path id="DejaVuSans-6c" d="M 603 4863 
L 1178 4863 
L 1178 0 
L 603 0 
L 603 4863 
z
" transform="scale(0.015625)"/>
      <path id="DejaVuSans-72" d="M 2631 2963 
Q 2534 3019 2420 3045 
Q 2306 3072 2169 3072 
Q 1681 3072 1420 2755 
Q 1159 2438 1159 1844 
L 1159 0 
L 581 0 
L 581 3500 
L 1159 3500 
L 1159 2956 
Q 1341 3275 1631 3429 
Q 1922 3584 2338 3584 
Q 2397 3584 2469 3576 
Q 2541 3569 2628 3553 
L 2631 2963 
z
" transform="scale(0.015625)"/>
      <path id="DejaVuSans-73" d="M 2834 3397 
L 2834 2853 
Q 2591 2978 2328 3040 
Q 2066 3103 1784 3103 
Q 1356 3103 1142 2972 
Q 928 2841 928 2578 
Q 928 2378 1081 2264 
Q 1234 2150 1697 2047 
L 1894 2003 
Q 2506 1872 2764 1633 
Q 3022 1394 3022 966 
Q 3022 478 2636 193 
Q 2250 -91 1575 -91 
Q 1294 -91 989 -36 
Q 684 19 347 128 
L 347 722 
Q 666 556 975 473 
Q 1284 391 1588 391 
Q 1994 391 2212 530 
Q 2431 669 2431 922 
Q 2431 1156 2273 1281 
Q 2116 1406 1581 1522 
L 1381 1569 
Q 847 1681 609 1914 
Q 372 2147 372 2553 
Q 372 3047 722 3315 
Q 1072 3584 1716 3584 
Q 2034 3584 2315 3537 
Q 2597 3491 2834 3397 
z
" transform="scale(0.015625)"/>
      <path id="DejaVuSans-64" d="M 2906 2969 
L 2906 4863 
L 3481 4863 
L 3481 0 
L 2906 0 
L 2906 525 
Q 2725 213 2448 61 
Q 2172 -91 1784 -91 
Q 1150 -91 751 415 
Q 353 922 353 1747 
Q 353 2572 751 3078 
Q 1150 3584 1784 3584 
Q 2172 3584 2448 3432 
Q 2725 3281 2906 2969 
z
M 947 1747 
Q 947 1113 1208 752 
Q 1469 391 1925 391 
Q 2381 391 2643 752 
Q 2906 1113 2906 1747 
Q 2906 2381 2643 2742 
Q 2381 3103 1925 3103 
Q 1469 3103 1208 2742 
Q 947 2381 947 1747 
z
" transform="scale(0.015625)"/>
      <path id="DejaVuSans-6f" d="M 1959 3097 
Q 1497 3097 1228 2736 
Q 959 2375 959 1747 
Q 959 1119 1226 758 
Q 1494 397 1959 397 
Q 2419 397 2687 759 
Q 2956 1122 2956 1747 
Q 2956 2369 2687 2733 
Q 2419 3097 1959 3097 
z
M 1959 3584 
Q 2709 3584 3137 3096 
Q 3566 2609 3566 1747 
Q 3566 888 3137 398 
Q 2709 -91 1959 -91 
Q 1206 -91 779 398 
Q 353 888 353 1747 
Q 353 2609 779 3096 
Q 1206 3584 1959 3584 
z
" transform="scale(0.015625)"/>
      <path id="DejaVuSans-66" d="M 2375 4863 
L 2375 4384 
L 1825 4384 
Q 1516 4384 1395 4259 
Q 1275 4134 1275 3809 
L 1275 3500 
L 2222 3500 
L 2222 3053 
L 1275 3053 
L 1275 0 
L 697 0 
L 697 3053 
L 147 3053 
L 147 3500 
L 697 3500 
L 697 3744 
Q 697 4328 969 4595 
Q 1241 4863 1831 4863 
L 2375 4863 
z
" transform="scale(0.015625)"/>
     </defs>
     <use xlink:href="#DejaVuSans-48"/>
     <use xlink:href="#DejaVuSans-65" x="75.195312"/>
     <use xlink:href="#DejaVuSans-6c" x="136.71875"/>
     <use xlink:href="#DejaVuSans-6c" x="164.501953"/>
     <use xlink:href="#DejaVuSans-65" x="192.285156"/>
     <use xlink:href="#DejaVuSans-72" x="253.808594"/>
     <use xlink:href="#DejaVuSans-73" x="294.921875"/>
     <use xlink:href="#DejaVuSans-64" x="347.021484"/>
     <use xlink:href="#DejaVuSans-6f" x="410.498047"/>
     <use xlink:href="#DejaVuSans-72" x="471.679688"/>
     <use xlink:href="#DejaVuSans-66" x="512.792969"/>
    </g>
   </g>
  </g>
 </g>
 <defs>
  <clipPath id="p6bd9b26344">
   <rect x="90" y="96.68946" width="558" height="533.821079"/>
  </clipPath>
 </defs>
</svg>
