<?xml version="1.0" encoding="utf-8" standalone="no"?>
<!DOCTYPE svg PUBLIC "-//W3C//DTD SVG 1.1//EN"
  "http://www.w3.org/Graphics/SVG/1.1/DTD/svg11.dtd">
<svg xmlns:xlink="http://www.w3.org/1999/xlink" width="720pt" height="720pt" viewBox="0 0 720 720" xmlns="http://www.w3.org/2000/svg" version="1.1">
 <metadata>
  <rdf:RDF xmlns:dc="http://purl.org/dc/elements/1.1/" xmlns:cc="http://creativecommons.org/ns#" xmlns:rdf="http://www.w3.org/1999/02/22-rdf-syntax-ns#">
   <cc:Work>
    <dc:type rdf:resource="http://purl.org/dc/dcmitype/StillImage"/>
    <dc:date>2024-10-17T11:36:16.166747</dc:date>
    <dc:format>image/svg+xml</dc:format>
    <dc:creator>
     <cc:Agent>
      <dc:title>Matplotlib v3.9.2, https://matplotlib.org/</dc:title>
     </cc:Agent>
    </dc:creator>
   </cc:Work>
  </rdf:RDF>
 </metadata>
 <defs>
  <style type="text/css">*{stroke-linejoin: round; stroke-linecap: butt}</style>
 </defs>
 <g id="figure_1">
  <g id="patch_1">
   <path d="M 0 720 
L 720 720 
L 720 0 
L 0 0 
z
" style="fill: #ffffff"/>
  </g>
  <g id="axes_1">
   <g id="patch_2">
    <path d="M 90 581.314825 
L 648 581.314825 
L 648 145.885175 
L 90 145.885175 
z
" style="fill: #ffffff"/>
   </g>
   <g id="PatchCollection_1">
    <path d="M 252.930586 553.581464 
L 255.252275 553.388191 
L 259.580719 553.040656 
L 261.350495 552.89856 
L 261.841393 552.585154 
L 267.880295 552.130883 
L 267.928671 552.494162 
L 269.436957 552.42298 
L 269.333985 552.327726 
L 269.295976 552.265183 
L 269.673767 552.236964 
L 279.19169 551.525956 
L 284.814215 551.105894 
L 289.899194 550.935082 
L 303.394061 549.934856 
L 304.621753 549.811106 
L 306.032496 549.668905 
L 306.47306 549.64034 
L 306.491489 549.638497 
L 317.076211 548.815995 
L 319.596356 548.619843 
L 328.772999 548.078035 
L 329.953712 548.008351 
L 330.451521 547.74954 
L 331.076375 547.743666 
L 332.293945 547.732148 
L 333.688318 547.719018 
L 333.693155 547.102918 
L 334.222869 547.048438 
L 335.485706 547.07827 
L 336.217216 547.006973 
L 337.040985 547.475296 
L 337.75015 547.865412 
L 345.201508 547.674328 
L 346.52516 547.660391 
L 346.761104 547.654992 
L 347.904444 547.628832 
L 352.141696 547.52563 
L 356.416958 547.421277 
L 356.69938 547.403424 
L 356.971666 547.390524 
L 358.428927 547.32107 
L 359.883308 547.253459 
L 360.640503 547.195293 
L 361.405185 547.13563 
L 363.521162 547.013308 
L 363.662143 547.00513 
L 363.718811 547.040721 
L 365.51666 546.890987 
L 365.696342 546.876013 
L 365.94778 546.85505 
L 366.731634 546.782567 
L 367.677903 546.695065 
L 367.994188 546.665809 
L 367.968964 546.482442 
L 371.921029 546.204167 
L 376.146196 545.878633 
L 378.539173 545.694264 
L 382.028905 545.447432 
L 389.894797 545.090373 
L 398.03597 544.478305 
L 405.753394 543.888006 
L 405.748326 543.668012 
L 407.212498 543.527723 
L 408.022445 543.449861 
L 408.338615 543.420144 
L 411.421531 543.124016 
L 411.882597 543.080132 
L 412.176192 543.052028 
L 412.882708 542.991789 
L 413.580239 542.932356 
L 413.510786 544.077132 
L 413.442369 545.20325 
L 414.946738 545.10742 
L 416.417475 544.94778 
L 418.315301 544.793323 
L 420.201608 544.597171 
L 421.497271 544.497425 
L 422.786369 544.39814 
L 423.015117 544.386276 
L 423.243289 544.374182 
L 424.747198 544.228019 
L 425.276106 544.176648 
L 426.246269 544.0822 
L 427.248338 543.966099 
L 428.242459 543.850918 
L 429.684401 543.766376 
L 436.469901 543.052489 
L 443.214398 542.496398 
L 447.949689 542.048462 
L 450.055415 541.889859 
L 456.812927 541.253718 
L 461.762454 540.79484 
L 469.300082 540.075194 
L 475.360638 539.570358 
L 478.855553 539.234953 
L 480.226101 539.121122 
L 480.856695 539.068748 
L 481.763279 538.997337 
L 486.459064 538.518187 
L 486.583804 538.505862 
L 492.182372 537.958065 
L 495.428728 537.67357 
L 498.638227 537.388268 
L 501.459683 537.176336 
L 504.597623 536.910998 
L 507.4858 536.666779 
L 508.247142 536.600665 
L 515.231098 535.931929 
L 519.759872 535.484914 
L 520.034577 535.454391 
L 519.803986 534.92364 
L 519.591132 534.430208 
L 519.436676 534.073725 
L 519.383693 533.951749 
L 519.763557 533.901415 
L 519.731537 533.827009 
L 520.569819 533.717473 
L 524.388852 533.229223 
L 528.484893 533.044129 
L 529.166069 533.013375 
L 529.90783 532.979628 
L 532.110307 532.779675 
L 533.759113 532.555304 
L 538.036218 531.962931 
L 539.422297 531.721974 
L 539.951205 531.618197 
L 540.211397 531.5598 
L 541.52929 531.251693 
L 544.633283 530.497838 
L 547.871001 529.524104 
L 549.987669 528.811829 
L 553.341373 527.471707 
L 553.96231 527.214164 
L 555.077716 526.7516 
L 561.914587 523.324295 
L 561.85285 523.197136 
L 563.628585 522.230543 
L 564.605544 521.698756 
L 568.106679 519.792868 
L 568.058879 519.704064 
L 568.443812 519.492132 
L 568.56452 519.734817 
L 569.236482 519.385245 
L 569.778636 519.099598 
L 575.124498 516.285628 
L 576.976712 515.310627 
L 587.705525 509.990335 
L 594.737511 507.832087 
L 595.122329 507.710226 
L 598.42616 506.3936 
L 600.381691 505.562575 
L 609.37036 502.054644 
L 610.681457 502.72603 
L 613.290405 501.740778 
L 617.202849 500.380153 
L 616.710453 498.058694 
L 616.514992 497.071024 
L 616.022712 496.375104 
L 614.917903 496.58312 
L 616.57074 496.072065 
L 617.460162 495.79713 
L 617.90637 495.659259 
L 618.038482 495.61814 
L 617.223697 493.028887 
L 622.636364 491.331475 
L 619.824237 488.543652 
L 615.988619 469.792648 
L 615.159551 466.618279 
L 613.327493 460.108865 
L 612.150927 453.400881 
L 611.85595 451.719134 
L 611.67051 451.052701 
L 610.810228 446.209716 
L 610.74112 445.869588 
L 610.602789 445.189218 
L 610.55234 444.941466 
L 610.810113 444.56713 
L 610.529649 437.106903 
L 610.476897 436.873778 
L 609.561789 436.81089 
L 607.772349 430.346857 
L 606.347453 424.913918 
L 605.140825 418.584186 
L 604.173886 412.944384 
L 604.149007 412.456019 
L 603.929013 411.368487 
L 602.781241 405.632279 
L 601.613544 400.620094 
L 601.558372 400.335253 
L 600.901614 397.243238 
L 600.541676 395.545711 
L 598.50598 385.354906 
L 598.345764 384.518006 
L 598.08465 384.253897 
L 597.988014 383.769564 
L 597.818699 382.919764 
L 597.95991 382.582747 
L 597.544455 380.384301 
L 597.329989 379.249314 
L 596.791176 376.397796 
L 595.390123 369.590066 
L 595.27955 369.411767 
L 593.634315 361.695264 
L 594.045969 361.612104 
L 593.871932 360.891305 
L 593.456822 360.97435 
L 591.365609 351.945714 
L 591.309977 351.663637 
L 591.82322 350.958158 
L 590.296505 343.496204 
L 590.357896 343.291183 
L 590.376786 343.088811 
L 590.032743 342.22542 
L 588.482761 334.166371 
L 587.07641 327.87914 
L 586.607281 325.782168 
L 586.760356 324.519331 
L 586.313802 324.320875 
L 584.507775 317.189143 
L 582.305182 309.798946 
L 579.924406 302.397806 
L 579.356798 301.769152 
L 578.049041 298.019689 
L 577.070008 295.603207 
L 577.585901 295.404866 
L 577.37443 294.862828 
L 576.90795 295.091 
L 575.547095 291.520987 
L 572.856714 285.210605 
L 574.304299 284.450415 
L 573.960601 283.790547 
L 573.353601 282.823263 
L 572.52557 283.249661 
L 569.684073 285.200584 
L 569.475942 284.275341 
L 568.725197 282.69357 
L 567.958442 283.226049 
L 566.607723 279.942259 
L 566.117976 278.750143 
L 565.648041 278.270187 
L 565.233392 277.848742 
L 564.635721 276.815921 
L 564.258506 275.874552 
L 556.437189 272.268834 
L 547.222997 268.153327 
L 546.537098 267.821493 
L 544.383112 266.818733 
L 540.392345 264.941064 
L 536.057651 262.967565 
L 532.824425 261.516409 
L 531.632655 260.960664 
L 528.493186 259.504901 
L 527.124729 258.919439 
L 526.594209 258.678712 
L 525.795088 258.338931 
L 522.988144 257.145548 
L 518.671303 255.35461 
L 513.439469 253.225157 
L 500.816401 247.95658 
L 499.939073 247.559784 
L 499.651563 247.464312 
L 498.727146 247.157344 
L 497.791191 246.714591 
L 480.143845 238.371047 
L 468.749635 232.832142 
L 463.051321 230.095574 
L 460.004573 228.670564 
L 444.687669 221.505774 
L 443.478686 220.945837 
L 434.471433 216.754617 
L 419.815293 209.614447 
L 418.575954 209.011594 
L 411.085665 205.366714 
L 397.348919 197.591584 
L 395.356991 196.476869 
L 393.458475 195.414561 
L 392.621805 195.865147 
L 390.953681 195.185917 
L 389.651651 194.655754 
L 387.412892 193.86101 
L 385.119307 193.045764 
L 383.354515 192.399487 
L 377.953597 190.374503 
L 377.085713 190.049349 
L 376.647683 189.885447 
L 373.891764 188.852971 
L 373.197688 188.635972 
L 372.365847 188.297035 
L 372.085046 188.182622 
L 371.479313 188.05362 
L 370.102403 187.750307 
L 366.874406 187.018725 
L 365.919791 186.804375 
L 363.492597 186.244138 
L 362.927523 186.131031 
L 360.010813 185.480493 
L 359.241408 185.323387 
L 357.31928 184.931083 
L 354.759283 184.372919 
L 352.415249 183.84666 
L 350.176144 183.334454 
L 348.352841 182.943877 
L 347.834645 182.819828 
L 346.247921 182.458508 
L 345.546819 182.274334 
L 343.255472 181.757821 
L 343.016078 181.689103 
L 342.217187 181.474753 
L 341.043077 181.208914 
L 339.048808 180.73495 
L 337.043174 180.235298 
L 335.03155 179.746934 
L 333.068648 179.308673 
L 331.036522 178.798078 
L 330.765618 178.742446 
L 328.859269 178.34565 
L 327.233845 178.007366 
L 326.28833 177.810523 
L 325.410081 177.627847 
L 324.766684 177.494698 
L 324.439802 177.427088 
L 323.28201 177.228056 
L 318.870144 176.334257 
L 318.531975 176.270908 
L 317.118598 175.983879 
L 315.905749 175.755591 
L 315.296676 175.640987 
L 313.486848 175.280588 
L 311.700633 174.91777 
L 311.062764 174.77437 
L 309.876753 174.530764 
L 308.106086 174.124408 
L 306.294185 173.728764 
L 304.482284 173.355119 
L 302.710351 172.982511 
L 302.104733 172.855121 
L 301.278891 172.68143 
L 300.915612 172.60495 
L 299.135501 172.227735 
L 297.28248 171.840153 
L 295.47199 171.472538 
L 293.648658 171.070173 
L 292.524383 170.842922 
L 291.85818 170.681439 
L 290.058949 170.286601 
L 288.27999 169.903972 
L 287.50091 169.714731 
L 286.48479 169.46813 
L 284.706061 169.076632 
L 282.904238 168.573295 
L 281.231763 168.214738 
L 279.313666 167.825429 
L 277.528832 167.418612 
L 276.588846 167.201267 
L 275.726145 167.050035 
L 273.879345 166.69528 
L 268.469212 165.677432 
L 268.059631 167.81299 
L 267.672971 169.96663 
L 267.259128 172.031813 
L 266.896195 174.048274 
L 266.665028 175.050918 
L 266.010458 178.534661 
L 265.539486 181.046743 
L 265.05308 183.497779 
L 264.308324 187.825102 
L 263.842075 188.225699 
L 263.215148 188.764398 
L 262.717685 189.157508 
L 262.126349 189.624794 
L 261.556898 192.651041 
L 261.046304 195.363537 
L 260.95773 195.695832 
L 261.298894 196.392672 
L 262.530747 198.909016 
L 266.149366 199.595375 
L 266.341487 199.631887 
L 269.706824 200.270217 
L 272.328673 200.940335 
L 274.812766 201.622433 
L 277.226829 202.581539 
L 279.567408 203.717793 
L 283.118646 205.562866 
L 284.524191 206.293109 
L 286.00587 207.062858 
L 288.684964 208.454697 
L 289.23518 208.743684 
L 289.445729 208.854257 
L 292.910698 210.673645 
L 294.093138 211.294812 
L 294.574477 211.547518 
L 296.50628 212.562371 
L 297.961698 213.353084 
L 298.853194 213.951215 
L 299.092999 214.112122 
L 299.597604 214.434281 
L 299.995552 214.688484 
L 300.245608 214.848124 
L 302.440138 216.491171 
L 304.47618 218.348568 
L 304.734414 218.595629 
L 306.430789 220.380463 
L 308.145593 222.490796 
L 309.257083 224.299242 
L 309.499883 224.605736 
L 309.639712 224.787145 
L 310.504946 226.177832 
L 310.921438 226.871448 
L 312.052739 229.005508 
L 312.418667 229.589702 
L 312.627488 229.986268 
L 313.33769 231.216739 
L 314.496634 233.312214 
L 315.245306 234.64508 
L 315.916576 235.958135 
L 315.967256 236.057305 
L 316.065894 236.245599 
L 316.10386 236.318074 
L 316.225375 236.550047 
L 317.077018 238.176623 
L 321.384875 245.781401 
L 324.975045 252.123342 
L 325.25309 252.618732 
L 325.91745 253.80244 
L 329.302829 259.7568 
L 332.337138 265.023764 
L 332.679799 265.618324 
L 333.605158 267.224628 
L 335.185431 270.282319 
L 335.308789 270.520973 
L 335.451613 270.844169 
L 336.787589 273.868227 
L 338.065975 277.318567 
L 339.102828 280.877408 
L 339.899299 284.439012 
L 340.446866 288.258506 
L 340.52611 289.330373 
L 340.730555 292.098271 
L 340.798051 295.652964 
L 340.702797 299.041453 
L 340.354722 302.327892 
L 339.778245 305.606959 
L 338.673551 310.092425 
L 337.353469 314.506018 
L 336.518297 317.239707 
L 335.334474 321.114717 
L 334.845419 322.715723 
L 334.737265 323.076468 
L 334.173342 324.956901 
L 333.428356 327.441455 
L 333.032366 328.760614 
L 332.412005 330.826373 
L 331.628434 333.435436 
L 331.02581 335.442338 
L 330.166565 338.303992 
L 330.055186 338.138132 
L 327.39026 337.082966 
L 325.86297 336.493358 
L 325.521575 336.361707 
L 324.903518 336.123053 
L 322.473329 335.18491 
L 315.62494 332.541407 
L 310.400823 330.524831 
L 300.198039 326.609162 
L 298.554186 325.97832 
L 287.48824 322.748434 
L 285.604813 322.198679 
L 285.394609 322.137403 
L 284.005304 321.724366 
L 271.911835 318.129014 
L 267.870274 316.927453 
L 265.707419 316.284517 
L 265.684038 316.272423 
L 264.993186 316.967997 
L 264.404961 317.652398 
L 263.375479 318.833111 
L 263.187044 319.051723 
L 262.700177 318.878031 
L 262.195918 318.79729 
L 260.011754 321.291749 
L 259.703532 321.648463 
L 257.414554 324.297033 
L 257.041946 324.728268 
L 250.290769 332.540255 
L 248.968615 334.083671 
L 247.940515 335.283965 
L 247.584032 335.69942 
L 247.428078 335.881175 
L 246.151075 337.321849 
L 245.840433 337.693767 
L 245.417376 338.200214 
L 238.91614 345.982485 
L 238.572097 346.39437 
L 235.416618 349.984309 
L 235.003236 350.444454 
L 234.531803 350.874307 
L 234.032381 351.207293 
L 233.550582 351.537515 
L 233.027779 351.864166 
L 232.555885 352.106621 
L 232.019952 352.324772 
L 231.484363 352.522306 
L 230.910535 352.716385 
L 230.311367 352.845732 
L 229.686284 352.939604 
L 220.028072 353.076439 
L 220.03936 351.801969 
L 219.14844 351.1254 
L 217.768004 352.795744 
L 215.196835 350.802204 
L 212.46856 354.168578 
L 211.944835 354.814855 
L 212.447712 355.224781 
L 212.496203 355.264403 
L 215.195338 357.465498 
L 215.595359 359.094263 
L 216.041567 360.756199 
L 216.613783 362.419748 
L 217.236332 364.045863 
L 217.72654 365.277601 
L 217.887216 365.607707 
L 218.656044 367.154233 
L 219.45839 368.695115 
L 220.353226 370.146962 
L 218.276756 372.446537 
L 213.840818 377.35886 
L 207.220831 376.859669 
L 202.082639 376.497427 
L 194.213522 376.091186 
L 189.55805 375.85092 
L 175.518956 375.088081 
L 175.126307 375.066773 
L 171.646941 374.877647 
L 168.082342 374.683914 
L 167.73922 374.665254 
L 166.12013 374.577372 
L 164.028917 374.463689 
L 161.795572 374.342289 
L 159.611293 374.287348 
L 159.260914 374.278479 
L 157.951199 374.245422 
L 155.085812 374.107258 
L 155.077567 374.10686 
L 151.684586 373.948372 
L 151.567447 373.941577 
L 149.459533 373.819486 
L 138.011304 373.259364 
L 137.591703 373.18968 
L 134.995424 372.757869 
L 133.273824 371.437097 
L 133.070301 371.280912 
L 127.576893 367.066351 
L 127.187583 366.767688 
L 126.691502 367.436194 
L 126.328338 366.698004 
L 118.820427 365.52616 
L 118.130382 365.418466 
L 117.201798 366.472942 
L 116.926172 366.785887 
L 115.788882 368.077403 
L 115.657461 368.226677 
L 115.363636 368.560354 
L 115.722768 370.358203 
L 115.782777 370.667692 
L 116.060938 372.104912 
L 116.280932 373.240474 
L 116.846467 376.16087 
L 116.98526 376.878098 
L 118.229898 382.601291 
L 118.431578 383.528722 
L 118.555858 384.100247 
L 118.989512 386.309174 
L 119.230814 387.364341 
L 119.407386 388.06625 
L 119.820077 390.116113 
L 120.172298 391.849922 
L 120.205239 391.999771 
L 120.389182 392.921214 
L 120.545597 393.739454 
L 120.591554 393.998034 
L 123.513332 408.34512 
L 126.085423 420.987538 
L 126.870031 424.96932 
L 127.896863 430.00051 
L 130.615118 443.454027 
L 132.832454 454.142757 
L 133.408931 457.123738 
L 133.471819 457.449238 
L 133.480112 457.48886 
L 133.648045 458.294661 
L 133.74376 458.754 
L 133.888772 459.449458 
L 134.746865 463.565426 
L 135.342693 466.55182 
L 135.678213 468.447111 
L 135.706547 468.606751 
L 135.503369 468.839761 
L 135.776231 469.531879 
L 136.628796 471.695656 
L 137.352812 473.533104 
L 137.8231 474.726625 
L 138.878382 477.391782 
L 138.966034 477.613504 
L 140.658723 481.88865 
L 143.670918 489.448277 
L 146.577262 496.731357 
L 146.816837 497.331561 
L 146.852197 497.42025 
L 146.248653 497.345844 
L 146.393665 497.610067 
L 146.796104 498.343535 
L 147.536138 499.692642 
L 147.644062 499.88937 
L 148.490176 501.422304 
L 149.268449 502.832917 
L 149.60132 503.435886 
L 149.861973 503.90801 
L 149.899637 503.976312 
L 149.937186 504.044383 
L 151.184358 506.303299 
L 151.433838 506.755382 
L 152.384536 508.479054 
L 152.628373 508.920195 
L 156.537477 516.00862 
L 159.576393 521.519535 
L 160.172912 522.640815 
L 161.18097 524.466192 
L 161.438052 524.901113 
L 162.105982 526.206336 
L 163.768725 529.613484 
L 166.355559 534.6297 
L 166.852677 535.593529 
L 168.43834 538.666352 
L 171.182073 544.308184 
L 171.51195 545.023684 
L 171.811879 545.674453 
L 172.187597 546.489699 
L 173.731474 550.709674 
L 174.773279 553.557852 
L 175.129186 554.33336 
L 177.332009 558.628433 
L 177.711643 559.368582 
L 178.423688 560.756734 
L 178.101759 561.522568 
L 179.858949 560.941253 
L 183.314703 558.926289 
L 184.158168 558.434585 
L 188.697538 558.084206 
L 189.418567 558.028574 
L 190.259153 557.948409 
L 190.331831 558.932855 
L 190.490435 559.043773 
L 190.656755 559.149854 
L 200.741595 558.424564 
L 201.640462 558.36467 
L 202.881644 558.269531 
L 203.612694 558.199732 
L 213.983526 557.418349 
L 225.802981 556.621302 
L 243.754058 555.274729 
L 249.450759 554.835892 
L 251.364249 554.645499 
L 252.944292 554.475147 
L 252.930586 553.581464 
" clip-path="url(#p6d13b22172)" style="fill: #d3d3d3"/>
   </g>
   <g id="PatchCollection_2">
    <path d="M 301.495154 465.046635 
L 301.495154 464.931455 
L 301.379974 464.931455 
L 301.379974 465.046635 
L 301.495154 465.046635 
" clip-path="url(#p6d13b22172)" style="fill: #ff0000; fill-opacity: 0.7; stroke: #000000; stroke-opacity: 0.7; stroke-width: 0.5"/>
    <path d="M 235.657795 472.077494 
L 235.657795 471.962314 
L 235.542615 471.962314 
L 235.542615 472.077494 
L 235.657795 472.077494 
" clip-path="url(#p6d13b22172)" style="fill: #ff0000; fill-opacity: 0.7; stroke: #000000; stroke-opacity: 0.7; stroke-width: 0.5"/>
    <path d="M 487.170046 391.56767 
L 487.170046 391.45249 
L 487.054866 391.45249 
L 487.054866 391.56767 
L 487.170046 391.56767 
" clip-path="url(#p6d13b22172)" style="fill: #ff0000; fill-opacity: 0.7; stroke: #000000; stroke-opacity: 0.7; stroke-width: 0.5"/>
    <path d="M 494.932929 405.851811 
L 494.932929 405.736631 
L 494.817748 405.736631 
L 494.817748 405.851811 
L 494.932929 405.851811 
" clip-path="url(#p6d13b22172)" style="fill: #ff0000; fill-opacity: 0.7; stroke: #000000; stroke-opacity: 0.7; stroke-width: 0.5"/>
    <path d="M 249.737645 478.587544 
L 249.737645 478.472364 
L 249.622465 478.472364 
L 249.622465 478.587544 
L 249.737645 478.587544 
" clip-path="url(#p6d13b22172)" style="fill: #ff0000; fill-opacity: 0.7; stroke: #000000; stroke-opacity: 0.7; stroke-width: 0.5"/>
    <path d="M 372.469365 202.179866 
L 372.469365 202.064685 
L 372.354185 202.064685 
L 372.354185 202.179866 
L 372.469365 202.179866 
" clip-path="url(#p6d13b22172)" style="fill: #ff0000; fill-opacity: 0.7; stroke: #000000; stroke-opacity: 0.7; stroke-width: 0.5"/>
    <path d="M 400.054994 371.93261 
L 400.054994 371.817429 
L 399.939814 371.817429 
L 399.939814 371.93261 
L 400.054994 371.93261 
" clip-path="url(#p6d13b22172)" style="fill: #ff0000; fill-opacity: 0.7; stroke: #000000; stroke-opacity: 0.7; stroke-width: 0.5"/>
    <path d="M 262.233459 550.120205 
L 262.233459 550.005024 
L 262.118279 550.005024 
L 262.118279 550.120205 
L 262.233459 550.120205 
" clip-path="url(#p6d13b22172)" style="fill: #ff0000; fill-opacity: 0.7; stroke: #000000; stroke-opacity: 0.7; stroke-width: 0.5"/>
    <path d="M 450.162149 335.955905 
L 450.162149 335.840724 
L 450.046968 335.840724 
L 450.046968 335.955905 
L 450.162149 335.955905 
" clip-path="url(#p6d13b22172)" style="fill: #ff0000; fill-opacity: 0.7; stroke: #000000; stroke-opacity: 0.7; stroke-width: 0.5"/>
    <path d="M 398.685491 508.201665 
L 398.685491 508.086485 
L 398.570311 508.086485 
L 398.570311 508.201665 
L 398.685491 508.201665 
" clip-path="url(#p6d13b22172)" style="fill: #ff0000; fill-opacity: 0.7; stroke: #000000; stroke-opacity: 0.7; stroke-width: 0.5"/>
    <path d="M 444.442913 514.092636 
L 444.442913 513.977455 
L 444.327733 513.977455 
L 444.327733 514.092636 
L 444.442913 514.092636 
" clip-path="url(#p6d13b22172)" style="fill: #ff0000; fill-opacity: 0.7; stroke: #000000; stroke-opacity: 0.7; stroke-width: 0.5"/>
    <path d="M 466.086314 304.570199 
L 466.086314 304.455019 
L 465.971134 304.455019 
L 465.971134 304.570199 
L 466.086314 304.570199 
" clip-path="url(#p6d13b22172)" style="fill: #ff0000; fill-opacity: 0.7; stroke: #000000; stroke-opacity: 0.7; stroke-width: 0.5"/>
    <path d="M 373.624425 367.368759 
L 373.624425 367.253578 
L 373.509245 367.253578 
L 373.509245 367.368759 
L 373.624425 367.368759 
" clip-path="url(#p6d13b22172)" style="fill: #ff0000; fill-opacity: 0.7; stroke: #000000; stroke-opacity: 0.7; stroke-width: 0.5"/>
    <path d="M 308.128925 512.269974 
L 308.128925 512.154794 
L 308.013744 512.154794 
L 308.013744 512.269974 
L 308.128925 512.269974 
" clip-path="url(#p6d13b22172)" style="fill: #ff0000; fill-opacity: 0.7; stroke: #000000; stroke-opacity: 0.7; stroke-width: 0.5"/>
    <path d="M 251.943262 476.806107 
L 251.943262 476.690927 
L 251.828082 476.690927 
L 251.828082 476.806107 
L 251.943262 476.806107 
" clip-path="url(#p6d13b22172)" style="fill: #ff0000; fill-opacity: 0.7; stroke: #000000; stroke-opacity: 0.7; stroke-width: 0.5"/>
    <path d="M 268.920553 495.674659 
L 268.920553 495.559479 
L 268.805373 495.559479 
L 268.805373 495.674659 
L 268.920553 495.674659 
" clip-path="url(#p6d13b22172)" style="fill: #ff0000; fill-opacity: 0.7; stroke: #000000; stroke-opacity: 0.7; stroke-width: 0.5"/>
    <path d="M 293.249169 542.87108 
L 293.249169 542.7559 
L 293.133988 542.7559 
L 293.133988 542.87108 
L 293.249169 542.87108 
" clip-path="url(#p6d13b22172)" style="fill: #ff0000; fill-opacity: 0.7; stroke: #000000; stroke-opacity: 0.7; stroke-width: 0.5"/>
    <path d="M 337.69535 544.454368 
L 337.69535 544.339188 
L 337.58017 544.339188 
L 337.58017 544.454368 
L 337.69535 544.454368 
" clip-path="url(#p6d13b22172)" style="fill: #ff0000; fill-opacity: 0.7; stroke: #000000; stroke-opacity: 0.7; stroke-width: 0.5"/>
    <path d="M 308.83223 430.088825 
L 308.83223 429.973645 
L 308.71705 429.973645 
L 308.71705 430.088825 
L 308.83223 430.088825 
" clip-path="url(#p6d13b22172)" style="fill: #ff0000; fill-opacity: 0.7; stroke: #000000; stroke-opacity: 0.7; stroke-width: 0.5"/>
    <path d="M 400.055122 371.932497 
L 400.055122 371.817317 
L 399.939941 371.817317 
L 399.939941 371.932497 
L 400.055122 371.932497 
" clip-path="url(#p6d13b22172)" style="fill: #ff0000; fill-opacity: 0.7; stroke: #000000; stroke-opacity: 0.7; stroke-width: 0.5"/>
    <path d="M 450.1548 335.951242 
L 450.1548 335.836061 
L 450.039619 335.836061 
L 450.039619 335.951242 
L 450.1548 335.951242 
" clip-path="url(#p6d13b22172)" style="fill: #ff0000; fill-opacity: 0.7; stroke: #000000; stroke-opacity: 0.7; stroke-width: 0.5"/>
    <path d="M 337.69535 544.454368 
L 337.69535 544.339188 
L 337.58017 544.339188 
L 337.58017 544.454368 
L 337.69535 544.454368 
" clip-path="url(#p6d13b22172)" style="fill: #ff0000; fill-opacity: 0.7; stroke: #000000; stroke-opacity: 0.7; stroke-width: 0.5"/>
    <path d="M 299.26819 438.085389 
L 299.26819 437.970209 
L 299.15301 437.970209 
L 299.15301 438.085389 
L 299.26819 438.085389 
" clip-path="url(#p6d13b22172)" style="fill: #ff0000; fill-opacity: 0.7; stroke: #000000; stroke-opacity: 0.7; stroke-width: 0.5"/>
    <path d="M 168.105436 526.375796 
L 168.105436 526.260616 
L 167.990255 526.260616 
L 167.990255 526.375796 
L 168.105436 526.375796 
" clip-path="url(#p6d13b22172)" style="fill: #ff0000; fill-opacity: 0.7; stroke: #000000; stroke-opacity: 0.7; stroke-width: 0.5"/>
    <path d="M 360.720766 424.019202 
L 360.720766 423.904021 
L 360.605586 423.904021 
L 360.605586 424.019202 
L 360.720766 424.019202 
" clip-path="url(#p6d13b22172)" style="fill: #ff0000; fill-opacity: 0.7; stroke: #000000; stroke-opacity: 0.7; stroke-width: 0.5"/>
    <path d="M 487.170166 391.567557 
L 487.170166 391.452377 
L 487.054986 391.452377 
L 487.054986 391.567557 
L 487.170166 391.567557 
" clip-path="url(#p6d13b22172)" style="fill: #ff0000; fill-opacity: 0.7; stroke: #000000; stroke-opacity: 0.7; stroke-width: 0.5"/>
    <path d="M 370.94389 209.966708 
L 370.94389 209.851528 
L 370.82871 209.851528 
L 370.82871 209.966708 
L 370.94389 209.966708 
" clip-path="url(#p6d13b22172)" style="fill: #ff0000; fill-opacity: 0.7; stroke: #000000; stroke-opacity: 0.7; stroke-width: 0.5"/>
    <path d="M 168.105436 526.375796 
L 168.105436 526.260616 
L 167.990255 526.260616 
L 167.990255 526.375796 
L 168.105436 526.375796 
" clip-path="url(#p6d13b22172)" style="fill: #ff0000; fill-opacity: 0.7; stroke: #000000; stroke-opacity: 0.7; stroke-width: 0.5"/>
    <path d="M 370.94389 209.966721 
L 370.94389 209.851541 
L 370.82871 209.851541 
L 370.82871 209.966721 
L 370.94389 209.966721 
" clip-path="url(#p6d13b22172)" style="fill: #ff0000; fill-opacity: 0.7; stroke: #000000; stroke-opacity: 0.7; stroke-width: 0.5"/>
    <path d="M 487.170166 391.567557 
L 487.170166 391.452377 
L 487.054986 391.452377 
L 487.054986 391.567557 
L 487.170166 391.567557 
" clip-path="url(#p6d13b22172)" style="fill: #ff0000; fill-opacity: 0.7; stroke: #000000; stroke-opacity: 0.7; stroke-width: 0.5"/>
    <path d="M 400.055122 371.932484 
L 400.055122 371.817304 
L 399.939942 371.817304 
L 399.939942 371.932484 
L 400.055122 371.932484 
" clip-path="url(#p6d13b22172)" style="fill: #ff0000; fill-opacity: 0.7; stroke: #000000; stroke-opacity: 0.7; stroke-width: 0.5"/>
    <path d="M 487.170166 391.56757 
L 487.170166 391.45239 
L 487.054985 391.45239 
L 487.054985 391.56757 
L 487.170166 391.56757 
" clip-path="url(#p6d13b22172)" style="fill: #ff0000; fill-opacity: 0.7; stroke: #000000; stroke-opacity: 0.7; stroke-width: 0.5"/>
   </g>
   <g id="matplotlib.axis_1">
    <g id="xtick_1">
     <g id="line2d_1">
      <defs>
       <path id="m8c30803366" d="M 0 0 
L 0 3.5 
" style="stroke: #000000; stroke-width: 0.8"/>
      </defs>
      <g>
       <use xlink:href="#m8c30803366" x="109.236276" y="581.314825" style="stroke: #000000; stroke-width: 0.8"/>
      </g>
     </g>
     <g id="text_1">
      <!-- 396000 -->
      <g transform="translate(90.148776 595.913262) scale(0.1 -0.1)">
       <defs>
        <path id="DejaVuSans-33" d="M 2597 2516 
Q 3050 2419 3304 2112 
Q 3559 1806 3559 1356 
Q 3559 666 3084 287 
Q 2609 -91 1734 -91 
Q 1441 -91 1130 -33 
Q 819 25 488 141 
L 488 750 
Q 750 597 1062 519 
Q 1375 441 1716 441 
Q 2309 441 2620 675 
Q 2931 909 2931 1356 
Q 2931 1769 2642 2001 
Q 2353 2234 1838 2234 
L 1294 2234 
L 1294 2753 
L 1863 2753 
Q 2328 2753 2575 2939 
Q 2822 3125 2822 3475 
Q 2822 3834 2567 4026 
Q 2313 4219 1838 4219 
Q 1578 4219 1281 4162 
Q 984 4106 628 3988 
L 628 4550 
Q 988 4650 1302 4700 
Q 1616 4750 1894 4750 
Q 2613 4750 3031 4423 
Q 3450 4097 3450 3541 
Q 3450 3153 3228 2886 
Q 3006 2619 2597 2516 
z
" transform="scale(0.015625)"/>
        <path id="DejaVuSans-39" d="M 703 97 
L 703 672 
Q 941 559 1184 500 
Q 1428 441 1663 441 
Q 2288 441 2617 861 
Q 2947 1281 2994 2138 
Q 2813 1869 2534 1725 
Q 2256 1581 1919 1581 
Q 1219 1581 811 2004 
Q 403 2428 403 3163 
Q 403 3881 828 4315 
Q 1253 4750 1959 4750 
Q 2769 4750 3195 4129 
Q 3622 3509 3622 2328 
Q 3622 1225 3098 567 
Q 2575 -91 1691 -91 
Q 1453 -91 1209 -44 
Q 966 3 703 97 
z
M 1959 2075 
Q 2384 2075 2632 2365 
Q 2881 2656 2881 3163 
Q 2881 3666 2632 3958 
Q 2384 4250 1959 4250 
Q 1534 4250 1286 3958 
Q 1038 3666 1038 3163 
Q 1038 2656 1286 2365 
Q 1534 2075 1959 2075 
z
" transform="scale(0.015625)"/>
        <path id="DejaVuSans-36" d="M 2113 2584 
Q 1688 2584 1439 2293 
Q 1191 2003 1191 1497 
Q 1191 994 1439 701 
Q 1688 409 2113 409 
Q 2538 409 2786 701 
Q 3034 994 3034 1497 
Q 3034 2003 2786 2293 
Q 2538 2584 2113 2584 
z
M 3366 4563 
L 3366 3988 
Q 3128 4100 2886 4159 
Q 2644 4219 2406 4219 
Q 1781 4219 1451 3797 
Q 1122 3375 1075 2522 
Q 1259 2794 1537 2939 
Q 1816 3084 2150 3084 
Q 2853 3084 3261 2657 
Q 3669 2231 3669 1497 
Q 3669 778 3244 343 
Q 2819 -91 2113 -91 
Q 1303 -91 875 529 
Q 447 1150 447 2328 
Q 447 3434 972 4092 
Q 1497 4750 2381 4750 
Q 2619 4750 2861 4703 
Q 3103 4656 3366 4563 
z
" transform="scale(0.015625)"/>
        <path id="DejaVuSans-30" d="M 2034 4250 
Q 1547 4250 1301 3770 
Q 1056 3291 1056 2328 
Q 1056 1369 1301 889 
Q 1547 409 2034 409 
Q 2525 409 2770 889 
Q 3016 1369 3016 2328 
Q 3016 3291 2770 3770 
Q 2525 4250 2034 4250 
z
M 2034 4750 
Q 2819 4750 3233 4129 
Q 3647 3509 3647 2328 
Q 3647 1150 3233 529 
Q 2819 -91 2034 -91 
Q 1250 -91 836 529 
Q 422 1150 422 2328 
Q 422 3509 836 4129 
Q 1250 4750 2034 4750 
z
" transform="scale(0.015625)"/>
       </defs>
       <use xlink:href="#DejaVuSans-33"/>
       <use xlink:href="#DejaVuSans-39" x="63.623047"/>
       <use xlink:href="#DejaVuSans-36" x="127.246094"/>
       <use xlink:href="#DejaVuSans-30" x="190.869141"/>
       <use xlink:href="#DejaVuSans-30" x="254.492188"/>
       <use xlink:href="#DejaVuSans-30" x="318.115234"/>
      </g>
     </g>
    </g>
    <g id="xtick_2">
     <g id="line2d_2">
      <g>
       <use xlink:href="#m8c30803366" x="224.416556" y="581.314825" style="stroke: #000000; stroke-width: 0.8"/>
      </g>
     </g>
     <g id="text_2">
      <!-- 397000 -->
      <g transform="translate(205.329056 595.913262) scale(0.1 -0.1)">
       <defs>
        <path id="DejaVuSans-37" d="M 525 4666 
L 3525 4666 
L 3525 4397 
L 1831 0 
L 1172 0 
L 2766 4134 
L 525 4134 
L 525 4666 
z
" transform="scale(0.015625)"/>
       </defs>
       <use xlink:href="#DejaVuSans-33"/>
       <use xlink:href="#DejaVuSans-39" x="63.623047"/>
       <use xlink:href="#DejaVuSans-37" x="127.246094"/>
       <use xlink:href="#DejaVuSans-30" x="190.869141"/>
       <use xlink:href="#DejaVuSans-30" x="254.492188"/>
       <use xlink:href="#DejaVuSans-30" x="318.115234"/>
      </g>
     </g>
    </g>
    <g id="xtick_3">
     <g id="line2d_3">
      <g>
       <use xlink:href="#m8c30803366" x="339.596836" y="581.314825" style="stroke: #000000; stroke-width: 0.8"/>
      </g>
     </g>
     <g id="text_3">
      <!-- 398000 -->
      <g transform="translate(320.509336 595.913262) scale(0.1 -0.1)">
       <defs>
        <path id="DejaVuSans-38" d="M 2034 2216 
Q 1584 2216 1326 1975 
Q 1069 1734 1069 1313 
Q 1069 891 1326 650 
Q 1584 409 2034 409 
Q 2484 409 2743 651 
Q 3003 894 3003 1313 
Q 3003 1734 2745 1975 
Q 2488 2216 2034 2216 
z
M 1403 2484 
Q 997 2584 770 2862 
Q 544 3141 544 3541 
Q 544 4100 942 4425 
Q 1341 4750 2034 4750 
Q 2731 4750 3128 4425 
Q 3525 4100 3525 3541 
Q 3525 3141 3298 2862 
Q 3072 2584 2669 2484 
Q 3125 2378 3379 2068 
Q 3634 1759 3634 1313 
Q 3634 634 3220 271 
Q 2806 -91 2034 -91 
Q 1263 -91 848 271 
Q 434 634 434 1313 
Q 434 1759 690 2068 
Q 947 2378 1403 2484 
z
M 1172 3481 
Q 1172 3119 1398 2916 
Q 1625 2713 2034 2713 
Q 2441 2713 2670 2916 
Q 2900 3119 2900 3481 
Q 2900 3844 2670 4047 
Q 2441 4250 2034 4250 
Q 1625 4250 1398 4047 
Q 1172 3844 1172 3481 
z
" transform="scale(0.015625)"/>
       </defs>
       <use xlink:href="#DejaVuSans-33"/>
       <use xlink:href="#DejaVuSans-39" x="63.623047"/>
       <use xlink:href="#DejaVuSans-38" x="127.246094"/>
       <use xlink:href="#DejaVuSans-30" x="190.869141"/>
       <use xlink:href="#DejaVuSans-30" x="254.492188"/>
       <use xlink:href="#DejaVuSans-30" x="318.115234"/>
      </g>
     </g>
    </g>
    <g id="xtick_4">
     <g id="line2d_4">
      <g>
       <use xlink:href="#m8c30803366" x="454.777116" y="581.314825" style="stroke: #000000; stroke-width: 0.8"/>
      </g>
     </g>
     <g id="text_4">
      <!-- 399000 -->
      <g transform="translate(435.689616 595.913262) scale(0.1 -0.1)">
       <use xlink:href="#DejaVuSans-33"/>
       <use xlink:href="#DejaVuSans-39" x="63.623047"/>
       <use xlink:href="#DejaVuSans-39" x="127.246094"/>
       <use xlink:href="#DejaVuSans-30" x="190.869141"/>
       <use xlink:href="#DejaVuSans-30" x="254.492188"/>
       <use xlink:href="#DejaVuSans-30" x="318.115234"/>
      </g>
     </g>
    </g>
    <g id="xtick_5">
     <g id="line2d_5">
      <g>
       <use xlink:href="#m8c30803366" x="569.957395" y="581.314825" style="stroke: #000000; stroke-width: 0.8"/>
      </g>
     </g>
     <g id="text_5">
      <!-- 400000 -->
      <g transform="translate(550.869895 595.913262) scale(0.1 -0.1)">
       <defs>
        <path id="DejaVuSans-34" d="M 2419 4116 
L 825 1625 
L 2419 1625 
L 2419 4116 
z
M 2253 4666 
L 3047 4666 
L 3047 1625 
L 3713 1625 
L 3713 1100 
L 3047 1100 
L 3047 0 
L 2419 0 
L 2419 1100 
L 313 1100 
L 313 1709 
L 2253 4666 
z
" transform="scale(0.015625)"/>
       </defs>
       <use xlink:href="#DejaVuSans-34"/>
       <use xlink:href="#DejaVuSans-30" x="63.623047"/>
       <use xlink:href="#DejaVuSans-30" x="127.246094"/>
       <use xlink:href="#DejaVuSans-30" x="190.869141"/>
       <use xlink:href="#DejaVuSans-30" x="254.492188"/>
       <use xlink:href="#DejaVuSans-30" x="318.115234"/>
      </g>
     </g>
    </g>
   </g>
   <g id="matplotlib.axis_2">
    <g id="ytick_1">
     <g id="line2d_6">
      <defs>
       <path id="mf1189980a6" d="M 0 0 
L -3.5 0 
" style="stroke: #000000; stroke-width: 0.8"/>
      </defs>
      <g>
       <use xlink:href="#mf1189980a6" x="90" y="553.208524" style="stroke: #000000; stroke-width: 0.8"/>
      </g>
     </g>
     <g id="text_6">
      <!-- 5.8215 -->
      <g transform="translate(48.009375 557.007743) scale(0.1 -0.1)">
       <defs>
        <path id="DejaVuSans-35" d="M 691 4666 
L 3169 4666 
L 3169 4134 
L 1269 4134 
L 1269 2991 
Q 1406 3038 1543 3061 
Q 1681 3084 1819 3084 
Q 2600 3084 3056 2656 
Q 3513 2228 3513 1497 
Q 3513 744 3044 326 
Q 2575 -91 1722 -91 
Q 1428 -91 1123 -41 
Q 819 9 494 109 
L 494 744 
Q 775 591 1075 516 
Q 1375 441 1709 441 
Q 2250 441 2565 725 
Q 2881 1009 2881 1497 
Q 2881 1984 2565 2268 
Q 2250 2553 1709 2553 
Q 1456 2553 1204 2497 
Q 953 2441 691 2322 
L 691 4666 
z
" transform="scale(0.015625)"/>
        <path id="DejaVuSans-2e" d="M 684 794 
L 1344 794 
L 1344 0 
L 684 0 
L 684 794 
z
" transform="scale(0.015625)"/>
        <path id="DejaVuSans-32" d="M 1228 531 
L 3431 531 
L 3431 0 
L 469 0 
L 469 531 
Q 828 903 1448 1529 
Q 2069 2156 2228 2338 
Q 2531 2678 2651 2914 
Q 2772 3150 2772 3378 
Q 2772 3750 2511 3984 
Q 2250 4219 1831 4219 
Q 1534 4219 1204 4116 
Q 875 4013 500 3803 
L 500 4441 
Q 881 4594 1212 4672 
Q 1544 4750 1819 4750 
Q 2544 4750 2975 4387 
Q 3406 4025 3406 3419 
Q 3406 3131 3298 2873 
Q 3191 2616 2906 2266 
Q 2828 2175 2409 1742 
Q 1991 1309 1228 531 
z
" transform="scale(0.015625)"/>
        <path id="DejaVuSans-31" d="M 794 531 
L 1825 531 
L 1825 4091 
L 703 3866 
L 703 4441 
L 1819 4666 
L 2450 4666 
L 2450 531 
L 3481 531 
L 3481 0 
L 794 0 
L 794 531 
z
" transform="scale(0.015625)"/>
       </defs>
       <use xlink:href="#DejaVuSans-35"/>
       <use xlink:href="#DejaVuSans-2e" x="63.623047"/>
       <use xlink:href="#DejaVuSans-38" x="95.410156"/>
       <use xlink:href="#DejaVuSans-32" x="159.033203"/>
       <use xlink:href="#DejaVuSans-31" x="222.65625"/>
       <use xlink:href="#DejaVuSans-35" x="286.279297"/>
      </g>
     </g>
    </g>
    <g id="ytick_2">
     <g id="line2d_7">
      <g>
       <use xlink:href="#mf1189980a6" x="90" y="495.618384" style="stroke: #000000; stroke-width: 0.8"/>
      </g>
     </g>
     <g id="text_7">
      <!-- 5.8220 -->
      <g transform="translate(48.009375 499.417603) scale(0.1 -0.1)">
       <use xlink:href="#DejaVuSans-35"/>
       <use xlink:href="#DejaVuSans-2e" x="63.623047"/>
       <use xlink:href="#DejaVuSans-38" x="95.410156"/>
       <use xlink:href="#DejaVuSans-32" x="159.033203"/>
       <use xlink:href="#DejaVuSans-32" x="222.65625"/>
       <use xlink:href="#DejaVuSans-30" x="286.279297"/>
      </g>
     </g>
    </g>
    <g id="ytick_3">
     <g id="line2d_8">
      <g>
       <use xlink:href="#mf1189980a6" x="90" y="438.028244" style="stroke: #000000; stroke-width: 0.8"/>
      </g>
     </g>
     <g id="text_8">
      <!-- 5.8225 -->
      <g transform="translate(48.009375 441.827463) scale(0.1 -0.1)">
       <use xlink:href="#DejaVuSans-35"/>
       <use xlink:href="#DejaVuSans-2e" x="63.623047"/>
       <use xlink:href="#DejaVuSans-38" x="95.410156"/>
       <use xlink:href="#DejaVuSans-32" x="159.033203"/>
       <use xlink:href="#DejaVuSans-32" x="222.65625"/>
       <use xlink:href="#DejaVuSans-35" x="286.279297"/>
      </g>
     </g>
    </g>
    <g id="ytick_4">
     <g id="line2d_9">
      <g>
       <use xlink:href="#mf1189980a6" x="90" y="380.438104" style="stroke: #000000; stroke-width: 0.8"/>
      </g>
     </g>
     <g id="text_9">
      <!-- 5.8230 -->
      <g transform="translate(48.009375 384.237323) scale(0.1 -0.1)">
       <use xlink:href="#DejaVuSans-35"/>
       <use xlink:href="#DejaVuSans-2e" x="63.623047"/>
       <use xlink:href="#DejaVuSans-38" x="95.410156"/>
       <use xlink:href="#DejaVuSans-32" x="159.033203"/>
       <use xlink:href="#DejaVuSans-33" x="222.65625"/>
       <use xlink:href="#DejaVuSans-30" x="286.279297"/>
      </g>
     </g>
    </g>
    <g id="ytick_5">
     <g id="line2d_10">
      <g>
       <use xlink:href="#mf1189980a6" x="90" y="322.847964" style="stroke: #000000; stroke-width: 0.8"/>
      </g>
     </g>
     <g id="text_10">
      <!-- 5.8235 -->
      <g transform="translate(48.009375 326.647183) scale(0.1 -0.1)">
       <use xlink:href="#DejaVuSans-35"/>
       <use xlink:href="#DejaVuSans-2e" x="63.623047"/>
       <use xlink:href="#DejaVuSans-38" x="95.410156"/>
       <use xlink:href="#DejaVuSans-32" x="159.033203"/>
       <use xlink:href="#DejaVuSans-33" x="222.65625"/>
       <use xlink:href="#DejaVuSans-35" x="286.279297"/>
      </g>
     </g>
    </g>
    <g id="ytick_6">
     <g id="line2d_11">
      <g>
       <use xlink:href="#mf1189980a6" x="90" y="265.257824" style="stroke: #000000; stroke-width: 0.8"/>
      </g>
     </g>
     <g id="text_11">
      <!-- 5.8240 -->
      <g transform="translate(48.009375 269.057043) scale(0.1 -0.1)">
       <use xlink:href="#DejaVuSans-35"/>
       <use xlink:href="#DejaVuSans-2e" x="63.623047"/>
       <use xlink:href="#DejaVuSans-38" x="95.410156"/>
       <use xlink:href="#DejaVuSans-32" x="159.033203"/>
       <use xlink:href="#DejaVuSans-34" x="222.65625"/>
       <use xlink:href="#DejaVuSans-30" x="286.279297"/>
      </g>
     </g>
    </g>
    <g id="ytick_7">
     <g id="line2d_12">
      <g>
       <use xlink:href="#mf1189980a6" x="90" y="207.667684" style="stroke: #000000; stroke-width: 0.8"/>
      </g>
     </g>
     <g id="text_12">
      <!-- 5.8245 -->
      <g transform="translate(48.009375 211.466903) scale(0.1 -0.1)">
       <use xlink:href="#DejaVuSans-35"/>
       <use xlink:href="#DejaVuSans-2e" x="63.623047"/>
       <use xlink:href="#DejaVuSans-38" x="95.410156"/>
       <use xlink:href="#DejaVuSans-32" x="159.033203"/>
       <use xlink:href="#DejaVuSans-34" x="222.65625"/>
       <use xlink:href="#DejaVuSans-35" x="286.279297"/>
      </g>
     </g>
    </g>
    <g id="ytick_8">
     <g id="line2d_13">
      <g>
       <use xlink:href="#mf1189980a6" x="90" y="150.077544" style="stroke: #000000; stroke-width: 0.8"/>
      </g>
     </g>
     <g id="text_13">
      <!-- 5.8250 -->
      <g transform="translate(48.009375 153.876763) scale(0.1 -0.1)">
       <use xlink:href="#DejaVuSans-35"/>
       <use xlink:href="#DejaVuSans-2e" x="63.623047"/>
       <use xlink:href="#DejaVuSans-38" x="95.410156"/>
       <use xlink:href="#DejaVuSans-32" x="159.033203"/>
       <use xlink:href="#DejaVuSans-35" x="222.65625"/>
       <use xlink:href="#DejaVuSans-30" x="286.279297"/>
      </g>
     </g>
    </g>
    <g id="text_14">
     <!-- 1e6 -->
     <g transform="translate(90 142.885175) scale(0.1 -0.1)">
      <defs>
       <path id="DejaVuSans-65" d="M 3597 1894 
L 3597 1613 
L 953 1613 
Q 991 1019 1311 708 
Q 1631 397 2203 397 
Q 2534 397 2845 478 
Q 3156 559 3463 722 
L 3463 178 
Q 3153 47 2828 -22 
Q 2503 -91 2169 -91 
Q 1331 -91 842 396 
Q 353 884 353 1716 
Q 353 2575 817 3079 
Q 1281 3584 2069 3584 
Q 2775 3584 3186 3129 
Q 3597 2675 3597 1894 
z
M 3022 2063 
Q 3016 2534 2758 2815 
Q 2500 3097 2075 3097 
Q 1594 3097 1305 2825 
Q 1016 2553 972 2059 
L 3022 2063 
z
" transform="scale(0.015625)"/>
      </defs>
      <use xlink:href="#DejaVuSans-31"/>
      <use xlink:href="#DejaVuSans-65" x="63.623047"/>
      <use xlink:href="#DejaVuSans-36" x="125.146484"/>
     </g>
    </g>
   </g>
   <g id="patch_3">
    <path d="M 90 581.314825 
L 90 145.885175 
" style="fill: none; stroke: #000000; stroke-width: 0.8; stroke-linejoin: miter; stroke-linecap: square"/>
   </g>
   <g id="patch_4">
    <path d="M 648 581.314825 
L 648 145.885175 
" style="fill: none; stroke: #000000; stroke-width: 0.8; stroke-linejoin: miter; stroke-linecap: square"/>
   </g>
   <g id="patch_5">
    <path d="M 90 581.314825 
L 648 581.314825 
" style="fill: none; stroke: #000000; stroke-width: 0.8; stroke-linejoin: miter; stroke-linecap: square"/>
   </g>
   <g id="patch_6">
    <path d="M 90 145.885175 
L 648 145.885175 
" style="fill: none; stroke: #000000; stroke-width: 0.8; stroke-linejoin: miter; stroke-linecap: square"/>
   </g>
   <g id="text_15">
    <!-- Hohenschönhausen_Süd -->
    <g transform="translate(309.28229 402.832615) scale(0.12 -0.12)">
     <defs>
      <path id="DejaVuSans-48" d="M 628 4666 
L 1259 4666 
L 1259 2753 
L 3553 2753 
L 3553 4666 
L 4184 4666 
L 4184 0 
L 3553 0 
L 3553 2222 
L 1259 2222 
L 1259 0 
L 628 0 
L 628 4666 
z
" transform="scale(0.015625)"/>
      <path id="DejaVuSans-6f" d="M 1959 3097 
Q 1497 3097 1228 2736 
Q 959 2375 959 1747 
Q 959 1119 1226 758 
Q 1494 397 1959 397 
Q 2419 397 2687 759 
Q 2956 1122 2956 1747 
Q 2956 2369 2687 2733 
Q 2419 3097 1959 3097 
z
M 1959 3584 
Q 2709 3584 3137 3096 
Q 3566 2609 3566 1747 
Q 3566 888 3137 398 
Q 2709 -91 1959 -91 
Q 1206 -91 779 398 
Q 353 888 353 1747 
Q 353 2609 779 3096 
Q 1206 3584 1959 3584 
z
" transform="scale(0.015625)"/>
      <path id="DejaVuSans-68" d="M 3513 2113 
L 3513 0 
L 2938 0 
L 2938 2094 
Q 2938 2591 2744 2837 
Q 2550 3084 2163 3084 
Q 1697 3084 1428 2787 
Q 1159 2491 1159 1978 
L 1159 0 
L 581 0 
L 581 4863 
L 1159 4863 
L 1159 2956 
Q 1366 3272 1645 3428 
Q 1925 3584 2291 3584 
Q 2894 3584 3203 3211 
Q 3513 2838 3513 2113 
z
" transform="scale(0.015625)"/>
      <path id="DejaVuSans-6e" d="M 3513 2113 
L 3513 0 
L 2938 0 
L 2938 2094 
Q 2938 2591 2744 2837 
Q 2550 3084 2163 3084 
Q 1697 3084 1428 2787 
Q 1159 2491 1159 1978 
L 1159 0 
L 581 0 
L 581 3500 
L 1159 3500 
L 1159 2956 
Q 1366 3272 1645 3428 
Q 1925 3584 2291 3584 
Q 2894 3584 3203 3211 
Q 3513 2838 3513 2113 
z
" transform="scale(0.015625)"/>
      <path id="DejaVuSans-73" d="M 2834 3397 
L 2834 2853 
Q 2591 2978 2328 3040 
Q 2066 3103 1784 3103 
Q 1356 3103 1142 2972 
Q 928 2841 928 2578 
Q 928 2378 1081 2264 
Q 1234 2150 1697 2047 
L 1894 2003 
Q 2506 1872 2764 1633 
Q 3022 1394 3022 966 
Q 3022 478 2636 193 
Q 2250 -91 1575 -91 
Q 1294 -91 989 -36 
Q 684 19 347 128 
L 347 722 
Q 666 556 975 473 
Q 1284 391 1588 391 
Q 1994 391 2212 530 
Q 2431 669 2431 922 
Q 2431 1156 2273 1281 
Q 2116 1406 1581 1522 
L 1381 1569 
Q 847 1681 609 1914 
Q 372 2147 372 2553 
Q 372 3047 722 3315 
Q 1072 3584 1716 3584 
Q 2034 3584 2315 3537 
Q 2597 3491 2834 3397 
z
" transform="scale(0.015625)"/>
      <path id="DejaVuSans-63" d="M 3122 3366 
L 3122 2828 
Q 2878 2963 2633 3030 
Q 2388 3097 2138 3097 
Q 1578 3097 1268 2742 
Q 959 2388 959 1747 
Q 959 1106 1268 751 
Q 1578 397 2138 397 
Q 2388 397 2633 464 
Q 2878 531 3122 666 
L 3122 134 
Q 2881 22 2623 -34 
Q 2366 -91 2075 -91 
Q 1284 -91 818 406 
Q 353 903 353 1747 
Q 353 2603 823 3093 
Q 1294 3584 2113 3584 
Q 2378 3584 2631 3529 
Q 2884 3475 3122 3366 
z
" transform="scale(0.015625)"/>
      <path id="DejaVuSans-f6" d="M 1959 3097 
Q 1497 3097 1228 2736 
Q 959 2375 959 1747 
Q 959 1119 1226 758 
Q 1494 397 1959 397 
Q 2419 397 2687 759 
Q 2956 1122 2956 1747 
Q 2956 2369 2687 2733 
Q 2419 3097 1959 3097 
z
M 1959 3584 
Q 2709 3584 3137 3096 
Q 3566 2609 3566 1747 
Q 3566 888 3137 398 
Q 2709 -91 1959 -91 
Q 1206 -91 779 398 
Q 353 888 353 1747 
Q 353 2609 779 3096 
Q 1206 3584 1959 3584 
z
M 2254 4850 
L 2888 4850 
L 2888 4219 
L 2254 4219 
L 2254 4850 
z
M 1032 4850 
L 1666 4850 
L 1666 4219 
L 1032 4219 
L 1032 4850 
z
" transform="scale(0.015625)"/>
      <path id="DejaVuSans-61" d="M 2194 1759 
Q 1497 1759 1228 1600 
Q 959 1441 959 1056 
Q 959 750 1161 570 
Q 1363 391 1709 391 
Q 2188 391 2477 730 
Q 2766 1069 2766 1631 
L 2766 1759 
L 2194 1759 
z
M 3341 1997 
L 3341 0 
L 2766 0 
L 2766 531 
Q 2569 213 2275 61 
Q 1981 -91 1556 -91 
Q 1019 -91 701 211 
Q 384 513 384 1019 
Q 384 1609 779 1909 
Q 1175 2209 1959 2209 
L 2766 2209 
L 2766 2266 
Q 2766 2663 2505 2880 
Q 2244 3097 1772 3097 
Q 1472 3097 1187 3025 
Q 903 2953 641 2809 
L 641 3341 
Q 956 3463 1253 3523 
Q 1550 3584 1831 3584 
Q 2591 3584 2966 3190 
Q 3341 2797 3341 1997 
z
" transform="scale(0.015625)"/>
      <path id="DejaVuSans-75" d="M 544 1381 
L 544 3500 
L 1119 3500 
L 1119 1403 
Q 1119 906 1312 657 
Q 1506 409 1894 409 
Q 2359 409 2629 706 
Q 2900 1003 2900 1516 
L 2900 3500 
L 3475 3500 
L 3475 0 
L 2900 0 
L 2900 538 
Q 2691 219 2414 64 
Q 2138 -91 1772 -91 
Q 1169 -91 856 284 
Q 544 659 544 1381 
z
M 1991 3584 
L 1991 3584 
z
" transform="scale(0.015625)"/>
      <path id="DejaVuSans-5f" d="M 3263 -1063 
L 3263 -1509 
L -63 -1509 
L -63 -1063 
L 3263 -1063 
z
" transform="scale(0.015625)"/>
      <path id="DejaVuSans-53" d="M 3425 4513 
L 3425 3897 
Q 3066 4069 2747 4153 
Q 2428 4238 2131 4238 
Q 1616 4238 1336 4038 
Q 1056 3838 1056 3469 
Q 1056 3159 1242 3001 
Q 1428 2844 1947 2747 
L 2328 2669 
Q 3034 2534 3370 2195 
Q 3706 1856 3706 1288 
Q 3706 609 3251 259 
Q 2797 -91 1919 -91 
Q 1588 -91 1214 -16 
Q 841 59 441 206 
L 441 856 
Q 825 641 1194 531 
Q 1563 422 1919 422 
Q 2459 422 2753 634 
Q 3047 847 3047 1241 
Q 3047 1584 2836 1778 
Q 2625 1972 2144 2069 
L 1759 2144 
Q 1053 2284 737 2584 
Q 422 2884 422 3419 
Q 422 4038 858 4394 
Q 1294 4750 2059 4750 
Q 2388 4750 2728 4690 
Q 3069 4631 3425 4513 
z
" transform="scale(0.015625)"/>
      <path id="DejaVuSans-fc" d="M 544 1381 
L 544 3500 
L 1119 3500 
L 1119 1403 
Q 1119 906 1312 657 
Q 1506 409 1894 409 
Q 2359 409 2629 706 
Q 2900 1003 2900 1516 
L 2900 3500 
L 3475 3500 
L 3475 0 
L 2900 0 
L 2900 538 
Q 2691 219 2414 64 
Q 2138 -91 1772 -91 
Q 1169 -91 856 284 
Q 544 659 544 1381 
z
M 1991 3584 
L 1991 3584 
z
M 2278 4850 
L 2912 4850 
L 2912 4219 
L 2278 4219 
L 2278 4850 
z
M 1056 4850 
L 1690 4850 
L 1690 4219 
L 1056 4219 
L 1056 4850 
z
" transform="scale(0.015625)"/>
      <path id="DejaVuSans-64" d="M 2906 2969 
L 2906 4863 
L 3481 4863 
L 3481 0 
L 2906 0 
L 2906 525 
Q 2725 213 2448 61 
Q 2172 -91 1784 -91 
Q 1150 -91 751 415 
Q 353 922 353 1747 
Q 353 2572 751 3078 
Q 1150 3584 1784 3584 
Q 2172 3584 2448 3432 
Q 2725 3281 2906 2969 
z
M 947 1747 
Q 947 1113 1208 752 
Q 1469 391 1925 391 
Q 2381 391 2643 752 
Q 2906 1113 2906 1747 
Q 2906 2381 2643 2742 
Q 2381 3103 1925 3103 
Q 1469 3103 1208 2742 
Q 947 2381 947 1747 
z
" transform="scale(0.015625)"/>
     </defs>
     <use xlink:href="#DejaVuSans-48"/>
     <use xlink:href="#DejaVuSans-6f" x="75.195312"/>
     <use xlink:href="#DejaVuSans-68" x="136.376953"/>
     <use xlink:href="#DejaVuSans-65" x="199.755859"/>
     <use xlink:href="#DejaVuSans-6e" x="261.279297"/>
     <use xlink:href="#DejaVuSans-73" x="324.658203"/>
     <use xlink:href="#DejaVuSans-63" x="376.757812"/>
     <use xlink:href="#DejaVuSans-68" x="431.738281"/>
     <use xlink:href="#DejaVuSans-f6" x="495.117188"/>
     <use xlink:href="#DejaVuSans-6e" x="556.298828"/>
     <use xlink:href="#DejaVuSans-68" x="619.677734"/>
     <use xlink:href="#DejaVuSans-61" x="683.056641"/>
     <use xlink:href="#DejaVuSans-75" x="744.335938"/>
     <use xlink:href="#DejaVuSans-73" x="807.714844"/>
     <use xlink:href="#DejaVuSans-65" x="859.814453"/>
     <use xlink:href="#DejaVuSans-6e" x="921.337891"/>
     <use xlink:href="#DejaVuSans-5f" x="984.716797"/>
     <use xlink:href="#DejaVuSans-53" x="1034.716797"/>
     <use xlink:href="#DejaVuSans-fc" x="1098.193359"/>
     <use xlink:href="#DejaVuSans-64" x="1161.572266"/>
    </g>
   </g>
  </g>
 </g>
 <defs>
  <clipPath id="p6d13b22172">
   <rect x="90" y="145.885175" width="558" height="435.42965"/>
  </clipPath>
 </defs>
</svg>
