<?xml version="1.0" encoding="utf-8" standalone="no"?>
<!DOCTYPE svg PUBLIC "-//W3C//DTD SVG 1.1//EN"
  "http://www.w3.org/Graphics/SVG/1.1/DTD/svg11.dtd">
<svg xmlns:xlink="http://www.w3.org/1999/xlink" width="720pt" height="720pt" viewBox="0 0 720 720" xmlns="http://www.w3.org/2000/svg" version="1.1">
 <metadata>
  <rdf:RDF xmlns:dc="http://purl.org/dc/elements/1.1/" xmlns:cc="http://creativecommons.org/ns#" xmlns:rdf="http://www.w3.org/1999/02/22-rdf-syntax-ns#">
   <cc:Work>
    <dc:type rdf:resource="http://purl.org/dc/dcmitype/StillImage"/>
    <dc:date>2024-10-22T09:54:12.942838</dc:date>
    <dc:format>image/svg+xml</dc:format>
    <dc:creator>
     <cc:Agent>
      <dc:title>Matplotlib v3.9.2, https://matplotlib.org/</dc:title>
     </cc:Agent>
    </dc:creator>
   </cc:Work>
  </rdf:RDF>
 </metadata>
 <defs>
  <style type="text/css">*{stroke-linejoin: round; stroke-linecap: butt}</style>
 </defs>
 <g id="figure_1">
  <g id="patch_1">
   <path d="M 0 720 
L 720 720 
L 720 0 
L 0 0 
z
" style="fill: #ffffff"/>
  </g>
  <g id="axes_1">
   <g id="patch_2">
    <path d="M 90 581.278403 
L 648 581.278403 
L 648 145.921597 
L 90 145.921597 
z
" style="fill: #ffffff"/>
   </g>
   <g id="PatchCollection_1">
    <path d="M 257.041397 552.019807 
L 259.341095 551.779003 
L 263.628813 551.342815 
L 265.381938 551.164479 
L 265.862516 550.842378 
L 271.845253 550.264348 
L 271.900811 550.624821 
L 273.39595 550.522531 
L 273.291794 550.429895 
L 273.252777 550.368454 
L 273.62706 550.332495 
L 283.056592 549.426566 
L 288.626918 548.891432 
L 293.669038 548.615565 
L 307.038849 547.33946 
L 308.254488 547.190789 
L 309.651381 547.019955 
L 310.087949 546.982371 
L 310.106197 546.980154 
L 320.592103 545.941734 
L 323.088719 545.694204 
L 332.183277 544.964555 
L 333.353431 544.870713 
L 333.842041 544.602852 
L 334.461949 544.584041 
L 335.66988 544.547318 
L 337.053216 544.505325 
L 337.045271 543.892169 
L 337.569769 543.82697 
L 338.823474 543.83046 
L 339.547863 543.744343 
L 340.374959 544.193268 
L 341.086716 544.56675 
L 348.4766 544.222137 
L 349.789746 544.180839 
L 350.023757 544.170578 
L 351.157731 544.120856 
L 355.360144 543.930387 
L 359.600254 543.738016 
L 359.880127 543.714404 
L 360.150046 543.69593 
L 361.594626 543.596651 
L 363.036388 543.499269 
L 363.786539 543.425718 
L 364.544088 543.350523 
L 366.641213 543.185018 
L 366.780937 543.173964 
L 366.837902 543.208206 
L 368.618789 543.022014 
L 368.796775 543.003397 
L 369.045841 542.977336 
L 369.822151 542.888995 
L 370.759314 542.782351 
L 371.072556 542.746698 
L 371.043744 542.564758 
L 374.959581 542.206126 
L 379.145444 541.794851 
L 381.516165 541.561935 
L 384.973896 541.244216 
L 392.771778 540.72647 
L 400.837587 539.949403 
L 408.483385 539.202851 
L 408.473833 538.984047 
L 409.923837 538.814264 
L 410.725943 538.72009 
L 411.039065 538.684003 
L 414.092139 538.325796 
L 414.548751 538.272628 
L 414.839506 538.238613 
L 415.53934 538.164113 
L 416.230276 538.090601 
L 416.184879 539.231158 
L 416.140127 540.353126 
L 417.630932 540.226775 
L 419.087053 540.037626 
L 420.967078 539.844842 
L 422.834819 539.610812 
L 424.118448 539.484879 
L 425.395573 539.359543 
L 425.622315 539.343028 
L 425.84848 539.326297 
L 427.337799 539.149896 
L 427.861577 539.087892 
L 428.822326 538.973942 
L 429.814291 538.83779 
L 430.798388 538.702721 
L 432.227486 538.588925 
L 438.94607 537.738986 
L 445.627221 537.04699 
L 450.31687 536.503965 
L 452.403134 536.30289 
L 459.095597 535.531131 
L 463.997636 534.972936 
L 471.462538 534.102225 
L 477.466146 533.475636 
L 480.927323 533.070267 
L 482.285002 532.928918 
L 482.909677 532.863884 
L 483.807829 532.774253 
L 488.457714 532.201298 
L 488.581244 532.18648 
L 494.12558 531.526779 
L 497.341173 531.177258 
L 500.520178 530.827706 
L 503.315625 530.559116 
L 506.424037 530.230926 
L 509.285039 529.928873 
L 510.039183 529.847526 
L 516.955851 529.039396 
L 521.440731 528.502103 
L 521.712704 528.466122 
L 521.473078 527.942696 
L 521.251813 527.456042 
L 521.091284 527.10447 
L 521.036224 526.984177 
L 521.412147 526.926336 
L 521.378858 526.85295 
L 522.208473 526.726839 
L 525.988245 526.163041 
L 530.049075 525.895277 
L 530.724396 525.850779 
L 531.459777 525.802066 
L 533.641281 525.558174 
L 535.272868 525.301283 
L 539.505104 524.624626 
L 540.875649 524.356603 
L 541.398389 524.242556 
L 541.655398 524.179145 
L 542.956918 523.845697 
L 546.021781 523.032311 
L 549.214886 521.997421 
L 551.300858 521.245549 
L 554.601642 519.843746 
L 555.212591 519.574831 
L 556.310059 519.091841 
L 563.02501 515.542301 
L 562.961166 515.417025 
L 564.703699 514.419073 
L 565.662394 513.870036 
L 569.098089 511.902341 
L 569.048854 511.814947 
L 569.426545 511.596233 
L 569.551251 511.835267 
L 570.210985 511.473756 
L 570.743201 511.178494 
L 575.991154 508.269735 
L 577.809457 507.261903 
L 588.348598 501.749943 
L 595.283265 499.459631 
L 595.662683 499.330564 
L 598.914692 497.953413 
L 600.838511 497.086826 
L 609.687795 493.413986 
L 611.002474 494.055502 
L 613.571652 493.022255 
L 617.426835 491.589103 
L 616.891308 489.289048 
L 616.677389 488.310199 
L 616.174798 487.627676 
L 615.082591 487.85704 
L 616.712539 487.315032 
L 617.589647 487.023442 
L 618.029679 486.877216 
L 618.159956 486.833625 
L 617.29908 484.273622 
L 622.636364 482.475002 
L 619.789311 479.757828 
L 615.604096 461.176843 
L 614.717174 458.034901 
L 612.767443 451.59466 
L 611.46421 444.943555 
L 611.137472 443.276068 
L 610.939961 442.616675 
L 609.988282 437.814978 
L 609.91282 437.477926 
L 609.761778 436.803711 
L 609.706701 436.558201 
L 609.954973 436.180486 
L 609.525846 428.762695 
L 609.468778 428.531787 
L 608.559262 428.487752 
L 606.652569 422.091831 
L 605.128499 416.714541 
L 603.802901 410.440456 
L 602.729128 404.848046 
L 602.694558 404.362592 
L 602.45421 403.284879 
L 601.198972 397.600208 
L 599.938577 392.636401 
L 599.878054 392.354082 
L 599.163626 389.290624 
L 598.772019 387.608762 
L 596.545226 377.509468 
L 596.369262 376.679943 
L 596.104738 376.422433 
L 595.999016 375.942447 
L 595.813757 375.10027 
L 595.947102 374.762049 
L 595.490231 372.582866 
L 595.254382 371.457824 
L 594.661841 368.631291 
L 593.133341 361.88554 
L 593.019975 361.710364 
L 591.230654 354.065282 
L 591.637591 353.974176 
L 591.450242 353.260463 
L 591.039872 353.351524 
L 588.781225 344.409837 
L 588.720289 344.13028 
L 589.215472 343.417859 
L 587.548844 336.023679 
L 587.605632 335.818422 
L 587.620284 335.616664 
L 587.261277 334.764514 
L 585.559404 326.776663 
L 584.035961 320.548985 
L 583.527772 318.471879 
L 583.65414 317.212158 
L 583.206826 317.023751 
L 581.269453 309.963862 
L 578.933112 302.654848 
L 576.419599 295.338579 
L 575.843367 294.724561 
L 574.469071 291.020166 
L 573.448134 288.6355 
L 573.956261 288.42765 
L 573.735331 287.892583 
L 573.276862 288.129114 
L 571.85346 284.604371 
L 569.054538 278.379813 
L 570.476226 277.593933 
L 570.121626 276.944308 
L 569.499391 275.994138 
L 568.686001 276.435273 
L 565.904653 278.434375 
L 565.679249 277.517928 
L 564.901829 275.959231 
L 564.151428 276.504684 
L 562.743812 273.264571 
L 562.233402 272.0883 
L 561.757117 271.620274 
L 561.336906 271.209346 
L 560.722581 270.193782 
L 560.328974 269.264733 
L 552.490866 265.836043 
L 543.259463 261.92858 
L 542.57176 261.612364 
L 540.412902 260.658465 
L 536.412687 258.87144 
L 532.069044 256.996105 
L 528.82955 255.618087 
L 527.635041 255.089409 
L 524.488514 253.704919 
L 523.117975 253.150288 
L 522.586367 252.921583 
L 521.786072 252.599797 
L 518.974999 251.469633 
L 514.652688 249.77573 
L 509.41503 247.763722 
L 496.775088 242.779361 
L 495.895953 242.40248 
L 495.608557 242.313364 
L 494.684505 242.026834 
L 493.746223 241.605427 
L 476.054833 233.664631 
L 464.628814 228.386816 
L 458.915198 225.780745 
L 455.861028 224.425343 
L 440.506578 217.610759 
L 439.294731 217.078454 
L 430.265663 213.093287 
L 415.567166 206.290293 
L 414.324248 205.715965 
L 406.812247 202.243552 
L 393.012968 194.790374 
L 391.012205 193.72231 
L 389.105263 192.704472 
L 388.283819 193.170116 
L 386.613527 192.528711 
L 385.309802 192.028075 
L 383.070534 191.28353 
L 380.776399 190.519728 
L 379.010788 189.913134 
L 373.606368 188.009864 
L 372.737923 187.704272 
L 372.299613 187.550243 
L 369.541906 186.579896 
L 368.848266 186.378333 
L 368.01532 186.058289 
L 367.734145 185.950253 
L 367.130039 185.834427 
L 365.756618 185.561115 
L 362.536372 184.899983 
L 361.58409 184.70646 
L 359.162508 184.199262 
L 358.599097 184.098419 
L 355.689593 183.511521 
L 354.922389 183.371134 
L 353.005758 183.020601 
L 350.452342 182.518256 
L 348.114015 182.043193 
L 345.880162 181.579946 
L 344.061681 181.229113 
L 343.544585 181.116425 
L 341.961612 180.789803 
L 341.261659 180.621085 
L 338.975834 180.154664 
L 338.73671 180.091253 
L 337.939034 179.89454 
L 336.767726 179.65438 
L 334.777751 179.224151 
L 332.775955 178.768603 
L 330.768443 178.324419 
L 328.810343 177.929086 
L 326.782007 177.463223 
L 326.511866 177.413493 
L 324.610773 177.058259 
L 322.989829 176.755418 
L 322.046919 176.579195 
L 321.171091 176.415672 
L 320.529482 176.296553 
L 320.203509 176.23607 
L 319.049775 176.062086 
L 314.650557 175.264424 
L 314.313464 175.20842 
L 312.904121 174.9522 
L 311.695108 174.750265 
L 311.087961 174.648895 
L 309.283444 174.327924 
L 307.50232 174.004061 
L 306.865982 173.874642 
L 305.683294 173.656918 
L 303.916701 173.28942 
L 302.109385 172.933445 
L 300.302524 172.599365 
L 298.535367 172.265492 
L 297.931381 172.151342 
L 297.107763 171.995706 
L 296.745461 171.92717 
L 294.970085 171.588893 
L 293.122097 171.241826 
L 291.316751 170.913747 
L 289.49793 170.551363 
L 288.376869 170.348664 
L 287.712013 170.201864 
L 285.917274 169.846479 
L 284.142916 169.502827 
L 283.365401 169.330764 
L 282.351323 169.106568 
L 280.577005 168.754097 
L 278.777427 168.290827 
L 277.109293 167.968929 
L 275.196629 167.62156 
L 273.415922 167.253996 
L 272.478043 167.05734 
L 271.618281 166.92486 
L 269.777124 166.610405 
L 264.383957 165.710543 
L 264.021767 167.844082 
L 263.682715 169.995136 
L 263.314832 172.058738 
L 262.996486 174.072797 
L 262.787849 175.075306 
L 262.210512 178.555474 
L 261.795229 181.064958 
L 261.363352 183.514021 
L 260.714069 187.835479 
L 260.259477 188.243832 
L 259.648228 188.79296 
L 259.162489 189.194516 
L 258.585091 189.671843 
L 258.082771 192.695006 
L 257.632354 195.404742 
L 257.551337 195.737243 
L 257.904604 196.423506 
L 259.180152 198.901659 
L 262.787332 199.509038 
L 262.978847 199.541357 
L 266.333539 200.106256 
L 268.950689 200.718326 
L 271.431308 201.345203 
L 273.848157 202.24919 
L 276.195724 203.33099 
L 279.760069 205.092865 
L 281.170794 205.790185 
L 282.65793 206.525233 
L 285.34688 207.854335 
L 285.899185 208.130424 
L 286.110533 208.236062 
L 289.588627 209.97424 
L 290.775548 210.567697 
L 291.258706 210.809124 
L 293.197823 211.778714 
L 294.659289 212.535201 
L 295.556852 213.111806 
L 295.798289 213.266923 
L 296.305987 213.57698 
L 296.706376 213.821638 
L 296.957964 213.975281 
L 299.17096 215.564507 
L 301.23104 217.370331 
L 301.49256 217.610795 
L 303.213879 219.351492 
L 304.960243 221.415699 
L 306.101328 223.192071 
L 306.348754 223.491998 
L 306.491349 223.6696 
L 307.37926 225.035406 
L 307.807168 225.716926 
L 308.974663 227.816896 
L 309.350095 228.390589 
L 309.565651 228.78085 
L 310.2963 229.990462 
L 311.490421 232.051468 
L 312.261381 233.362172 
L 312.95508 234.654773 
L 313.007454 234.752399 
L 313.10929 234.937711 
L 313.148487 235.009037 
L 313.273944 235.237336 
L 314.15322 236.838158 
L 318.58786 244.315772 
L 322.283684 250.551742 
L 322.569996 251.038905 
L 323.254107 252.202956 
L 326.738483 258.057548 
L 329.860012 263.235455 
L 330.212514 263.819961 
L 331.164459 265.39911 
L 332.796638 268.408875 
L 332.924046 268.643788 
L 333.07253 268.962421 
L 334.461462 271.943797 
L 335.802033 275.350545 
L 336.905051 278.870273 
L 337.769476 282.397741 
L 338.392131 286.186989 
L 338.492986 287.251913 
L 338.753237 290.001884 
L 338.893818 293.537602 
L 338.869392 296.911315 
L 338.591875 300.188727 
L 338.087473 303.463543 
L 337.083689 307.949753 
L 335.864619 312.368918 
L 335.092149 315.106423 
L 333.99722 318.986844 
L 333.544896 320.590085 
L 333.445003 320.951291 
L 332.924149 322.834132 
L 332.236074 325.321866 
L 331.870306 326.642724 
L 331.297276 328.711147 
L 330.573491 331.323578 
L 330.016859 333.333068 
L 329.223201 336.198414 
L 329.109205 336.035687 
L 326.442012 335.041076 
L 324.913732 334.486104 
L 324.572119 334.362195 
L 323.953659 334.137559 
L 321.521886 333.254541 
L 314.668998 330.766438 
L 309.441408 328.868462 
L 299.232212 325.184451 
L 297.587315 324.590951 
L 286.535387 321.607537 
L 284.654333 321.099753 
L 284.444395 321.043162 
L 283.056683 320.661127 
L 270.976997 317.335785 
L 266.940011 316.224519 
L 264.779599 315.629915 
L 264.756137 315.618369 
L 264.084831 316.324925 
L 263.515168 317.018222 
L 262.517822 318.214589 
L 262.335322 318.436054 
L 261.848402 318.273389 
L 261.346155 318.203578 
L 259.229969 320.731312 
L 258.931439 321.092698 
L 256.714442 323.775979 
L 256.353555 324.212865 
L 249.814817 332.127282 
L 248.53457 333.6907 
L 247.539066 334.906548 
L 247.193871 335.327401 
L 247.042855 335.511517 
L 245.805299 336.971764 
L 245.504702 337.348337 
L 245.095324 337.861125 
L 238.804381 345.740872 
L 238.471472 346.157917 
L 235.414219 349.796122 
L 235.013496 350.262642 
L 234.554519 350.700234 
L 234.065738 351.042026 
L 233.594393 351.380698 
L 233.082271 351.716677 
L 232.618926 351.96781 
L 232.091507 352.196101 
L 231.564 352.40387 
L 230.998465 352.609003 
L 230.406425 352.750255 
L 229.78792 352.856751 
L 220.203929 353.195226 
L 220.18849 351.926829 
L 219.290007 351.27228 
L 217.954692 352.963289 
L 215.360829 351.033516 
L 212.723124 354.440429 
L 212.21679 355.094489 
L 212.724524 355.49184 
L 212.773485 355.530249 
L 215.498695 357.663855 
L 215.929818 359.27617 
L 216.407478 360.920525 
L 217.010243 362.563843 
L 217.662182 364.168859 
L 218.17451 365.384225 
L 218.340898 365.70933 
L 219.13636 367.232086 
L 219.964969 368.748525 
L 220.883515 370.174434 
L 218.870527 372.506141 
L 214.570255 377.487134 
L 207.989028 377.129247 
L 202.881442 376.876608 
L 195.062302 376.637579 
L 190.436397 376.49629 
L 176.485648 376.032347 
L 176.09547 376.019403 
L 172.637995 375.90441 
L 169.095821 375.786648 
L 168.754858 375.775303 
L 167.145957 375.721936 
L 165.067899 375.65284 
L 162.848602 375.579066 
L 160.679403 375.570398 
L 160.331442 375.568953 
L 159.030767 375.563647 
L 156.183773 375.486533 
L 156.175581 375.486311 
L 152.804487 375.400107 
L 152.688076 375.395814 
L 150.593262 375.318758 
L 139.218339 375.002851 
L 138.800389 374.942366 
L 136.214317 374.567484 
L 134.477703 373.289593 
L 134.272403 373.138479 
L 128.731026 369.060788 
L 128.338314 368.771827 
L 127.859999 369.447498 
L 127.483979 368.720636 
L 120.007091 367.713223 
L 119.319896 367.620647 
L 118.420436 368.689523 
L 118.153454 369.006743 
L 117.051841 370.315899 
L 116.924544 370.467211 
L 116.639937 370.805445 
L 117.034313 372.586792 
L 117.100402 372.893479 
L 117.406801 374.317695 
L 117.649105 375.442979 
L 118.27201 378.336948 
L 118.424892 379.047687 
L 119.780922 384.71621 
L 120.000651 385.634783 
L 120.136052 386.200849 
L 120.613037 388.389665 
L 120.874782 389.434503 
L 121.064832 390.129202 
L 121.51765 392.160186 
L 121.903786 393.87796 
L 121.93964 394.026371 
L 122.14163 394.93936 
L 122.314122 395.750241 
L 122.365185 396.006568 
L 125.567431 410.220832 
L 128.386546 422.746282 
L 129.24912 426.691767 
L 130.374182 431.676347 
L 133.355212 445.005823 
L 135.78078 455.594799 
L 136.415633 458.548847 
L 136.484895 458.871407 
L 136.493959 458.910657 
L 136.677579 459.708923 
L 136.782235 460.163967 
L 136.940784 460.85292 
L 137.878988 464.930391 
L 138.533135 467.88942 
L 138.905988 469.768243 
L 138.937466 469.926495 
L 138.740735 470.162637 
L 139.026087 470.84557 
L 139.917697 472.980641 
L 140.674865 474.793714 
L 141.166683 475.971403 
L 142.269997 478.601098 
L 142.361645 478.819873 
L 144.13136 483.038145 
L 147.279544 490.496815 
L 150.31679 497.682557 
L 150.567149 498.274739 
L 150.604103 498.362244 
L 150.003611 498.300927 
L 150.153068 498.560785 
L 150.567847 499.282138 
L 151.330573 500.608966 
L 151.441806 500.802445 
L 152.313661 502.309957 
L 153.115619 503.697183 
L 153.458612 504.290151 
L 153.727189 504.754445 
L 153.766 504.821615 
L 153.804691 504.888558 
L 155.089771 507.110009 
L 155.346838 507.554597 
L 156.326461 509.249706 
L 156.577695 509.683525 
L 160.605684 516.654514 
L 163.73696 522.074155 
L 164.352431 523.177324 
L 165.391052 524.972443 
L 165.655286 525.399799 
L 166.345472 526.6845 
L 168.066919 530.039783 
L 170.739073 534.97673 
L 171.252578 535.925328 
L 172.890469 538.949579 
L 175.731345 544.50577 
L 176.073677 545.21079 
L 176.384935 545.85203 
L 176.774844 546.655339 
L 178.395263 550.82196 
L 179.488717 553.634134 
L 179.858125 554.398322 
L 182.133909 558.625827 
L 182.526113 559.354332 
L 183.261728 560.720648 
L 182.958348 561.489457 
L 184.689721 560.87409 
L 188.076451 558.796487 
L 188.903075 558.289496 
L 193.399912 557.845509 
L 194.114186 557.775012 
L 194.946576 557.677593 
L 195.039304 558.65564 
L 195.198999 558.76268 
L 195.366251 558.864744 
L 205.357722 557.931391 
L 206.248368 557.852937 
L 207.477939 557.732235 
L 208.201862 557.647448 
L 218.475982 556.652516 
L 230.187215 555.611858 
L 247.971181 553.896438 
L 253.614635 553.340724 
L 255.509347 553.111298 
L 257.073611 552.908785 
L 257.041397 552.019807 
" clip-path="url(#p254eaa61e2)" style="fill: #d3d3d3"/>
   </g>
   <g id="matplotlib.axis_1">
    <g id="xtick_1">
     <g id="line2d_1">
      <defs>
       <path id="medb4566885" d="M 0 0 
L 0 3.5 
" style="stroke: #000000; stroke-width: 0.8"/>
      </defs>
      <g>
       <use xlink:href="#medb4566885" x="139.769508" y="581.278403" style="stroke: #000000; stroke-width: 0.8"/>
      </g>
     </g>
     <g id="text_1">
      <!-- 13.47 -->
      <g transform="translate(125.455446 595.876841) scale(0.1 -0.1)">
       <defs>
        <path id="DejaVuSans-31" d="M 794 531 
L 1825 531 
L 1825 4091 
L 703 3866 
L 703 4441 
L 1819 4666 
L 2450 4666 
L 2450 531 
L 3481 531 
L 3481 0 
L 794 0 
L 794 531 
z
" transform="scale(0.015625)"/>
        <path id="DejaVuSans-33" d="M 2597 2516 
Q 3050 2419 3304 2112 
Q 3559 1806 3559 1356 
Q 3559 666 3084 287 
Q 2609 -91 1734 -91 
Q 1441 -91 1130 -33 
Q 819 25 488 141 
L 488 750 
Q 750 597 1062 519 
Q 1375 441 1716 441 
Q 2309 441 2620 675 
Q 2931 909 2931 1356 
Q 2931 1769 2642 2001 
Q 2353 2234 1838 2234 
L 1294 2234 
L 1294 2753 
L 1863 2753 
Q 2328 2753 2575 2939 
Q 2822 3125 2822 3475 
Q 2822 3834 2567 4026 
Q 2313 4219 1838 4219 
Q 1578 4219 1281 4162 
Q 984 4106 628 3988 
L 628 4550 
Q 988 4650 1302 4700 
Q 1616 4750 1894 4750 
Q 2613 4750 3031 4423 
Q 3450 4097 3450 3541 
Q 3450 3153 3228 2886 
Q 3006 2619 2597 2516 
z
" transform="scale(0.015625)"/>
        <path id="DejaVuSans-2e" d="M 684 794 
L 1344 794 
L 1344 0 
L 684 0 
L 684 794 
z
" transform="scale(0.015625)"/>
        <path id="DejaVuSans-34" d="M 2419 4116 
L 825 1625 
L 2419 1625 
L 2419 4116 
z
M 2253 4666 
L 3047 4666 
L 3047 1625 
L 3713 1625 
L 3713 1100 
L 3047 1100 
L 3047 0 
L 2419 0 
L 2419 1100 
L 313 1100 
L 313 1709 
L 2253 4666 
z
" transform="scale(0.015625)"/>
        <path id="DejaVuSans-37" d="M 525 4666 
L 3525 4666 
L 3525 4397 
L 1831 0 
L 1172 0 
L 2766 4134 
L 525 4134 
L 525 4666 
z
" transform="scale(0.015625)"/>
       </defs>
       <use xlink:href="#DejaVuSans-31"/>
       <use xlink:href="#DejaVuSans-33" x="63.623047"/>
       <use xlink:href="#DejaVuSans-2e" x="127.246094"/>
       <use xlink:href="#DejaVuSans-34" x="159.033203"/>
       <use xlink:href="#DejaVuSans-37" x="222.65625"/>
      </g>
     </g>
    </g>
    <g id="xtick_2">
     <g id="line2d_2">
      <g>
       <use xlink:href="#medb4566885" x="217.319862" y="581.278403" style="stroke: #000000; stroke-width: 0.8"/>
      </g>
     </g>
     <g id="text_2">
      <!-- 13.48 -->
      <g transform="translate(203.0058 595.876841) scale(0.1 -0.1)">
       <defs>
        <path id="DejaVuSans-38" d="M 2034 2216 
Q 1584 2216 1326 1975 
Q 1069 1734 1069 1313 
Q 1069 891 1326 650 
Q 1584 409 2034 409 
Q 2484 409 2743 651 
Q 3003 894 3003 1313 
Q 3003 1734 2745 1975 
Q 2488 2216 2034 2216 
z
M 1403 2484 
Q 997 2584 770 2862 
Q 544 3141 544 3541 
Q 544 4100 942 4425 
Q 1341 4750 2034 4750 
Q 2731 4750 3128 4425 
Q 3525 4100 3525 3541 
Q 3525 3141 3298 2862 
Q 3072 2584 2669 2484 
Q 3125 2378 3379 2068 
Q 3634 1759 3634 1313 
Q 3634 634 3220 271 
Q 2806 -91 2034 -91 
Q 1263 -91 848 271 
Q 434 634 434 1313 
Q 434 1759 690 2068 
Q 947 2378 1403 2484 
z
M 1172 3481 
Q 1172 3119 1398 2916 
Q 1625 2713 2034 2713 
Q 2441 2713 2670 2916 
Q 2900 3119 2900 3481 
Q 2900 3844 2670 4047 
Q 2441 4250 2034 4250 
Q 1625 4250 1398 4047 
Q 1172 3844 1172 3481 
z
" transform="scale(0.015625)"/>
       </defs>
       <use xlink:href="#DejaVuSans-31"/>
       <use xlink:href="#DejaVuSans-33" x="63.623047"/>
       <use xlink:href="#DejaVuSans-2e" x="127.246094"/>
       <use xlink:href="#DejaVuSans-34" x="159.033203"/>
       <use xlink:href="#DejaVuSans-38" x="222.65625"/>
      </g>
     </g>
    </g>
    <g id="xtick_3">
     <g id="line2d_3">
      <g>
       <use xlink:href="#medb4566885" x="294.870217" y="581.278403" style="stroke: #000000; stroke-width: 0.8"/>
      </g>
     </g>
     <g id="text_3">
      <!-- 13.49 -->
      <g transform="translate(280.556154 595.876841) scale(0.1 -0.1)">
       <defs>
        <path id="DejaVuSans-39" d="M 703 97 
L 703 672 
Q 941 559 1184 500 
Q 1428 441 1663 441 
Q 2288 441 2617 861 
Q 2947 1281 2994 2138 
Q 2813 1869 2534 1725 
Q 2256 1581 1919 1581 
Q 1219 1581 811 2004 
Q 403 2428 403 3163 
Q 403 3881 828 4315 
Q 1253 4750 1959 4750 
Q 2769 4750 3195 4129 
Q 3622 3509 3622 2328 
Q 3622 1225 3098 567 
Q 2575 -91 1691 -91 
Q 1453 -91 1209 -44 
Q 966 3 703 97 
z
M 1959 2075 
Q 2384 2075 2632 2365 
Q 2881 2656 2881 3163 
Q 2881 3666 2632 3958 
Q 2384 4250 1959 4250 
Q 1534 4250 1286 3958 
Q 1038 3666 1038 3163 
Q 1038 2656 1286 2365 
Q 1534 2075 1959 2075 
z
" transform="scale(0.015625)"/>
       </defs>
       <use xlink:href="#DejaVuSans-31"/>
       <use xlink:href="#DejaVuSans-33" x="63.623047"/>
       <use xlink:href="#DejaVuSans-2e" x="127.246094"/>
       <use xlink:href="#DejaVuSans-34" x="159.033203"/>
       <use xlink:href="#DejaVuSans-39" x="222.65625"/>
      </g>
     </g>
    </g>
    <g id="xtick_4">
     <g id="line2d_4">
      <g>
       <use xlink:href="#medb4566885" x="372.420571" y="581.278403" style="stroke: #000000; stroke-width: 0.8"/>
      </g>
     </g>
     <g id="text_4">
      <!-- 13.50 -->
      <g transform="translate(358.106508 595.876841) scale(0.1 -0.1)">
       <defs>
        <path id="DejaVuSans-35" d="M 691 4666 
L 3169 4666 
L 3169 4134 
L 1269 4134 
L 1269 2991 
Q 1406 3038 1543 3061 
Q 1681 3084 1819 3084 
Q 2600 3084 3056 2656 
Q 3513 2228 3513 1497 
Q 3513 744 3044 326 
Q 2575 -91 1722 -91 
Q 1428 -91 1123 -41 
Q 819 9 494 109 
L 494 744 
Q 775 591 1075 516 
Q 1375 441 1709 441 
Q 2250 441 2565 725 
Q 2881 1009 2881 1497 
Q 2881 1984 2565 2268 
Q 2250 2553 1709 2553 
Q 1456 2553 1204 2497 
Q 953 2441 691 2322 
L 691 4666 
z
" transform="scale(0.015625)"/>
        <path id="DejaVuSans-30" d="M 2034 4250 
Q 1547 4250 1301 3770 
Q 1056 3291 1056 2328 
Q 1056 1369 1301 889 
Q 1547 409 2034 409 
Q 2525 409 2770 889 
Q 3016 1369 3016 2328 
Q 3016 3291 2770 3770 
Q 2525 4250 2034 4250 
z
M 2034 4750 
Q 2819 4750 3233 4129 
Q 3647 3509 3647 2328 
Q 3647 1150 3233 529 
Q 2819 -91 2034 -91 
Q 1250 -91 836 529 
Q 422 1150 422 2328 
Q 422 3509 836 4129 
Q 1250 4750 2034 4750 
z
" transform="scale(0.015625)"/>
       </defs>
       <use xlink:href="#DejaVuSans-31"/>
       <use xlink:href="#DejaVuSans-33" x="63.623047"/>
       <use xlink:href="#DejaVuSans-2e" x="127.246094"/>
       <use xlink:href="#DejaVuSans-35" x="159.033203"/>
       <use xlink:href="#DejaVuSans-30" x="222.65625"/>
      </g>
     </g>
    </g>
    <g id="xtick_5">
     <g id="line2d_5">
      <g>
       <use xlink:href="#medb4566885" x="449.970925" y="581.278403" style="stroke: #000000; stroke-width: 0.8"/>
      </g>
     </g>
     <g id="text_5">
      <!-- 13.51 -->
      <g transform="translate(435.656862 595.876841) scale(0.1 -0.1)">
       <use xlink:href="#DejaVuSans-31"/>
       <use xlink:href="#DejaVuSans-33" x="63.623047"/>
       <use xlink:href="#DejaVuSans-2e" x="127.246094"/>
       <use xlink:href="#DejaVuSans-35" x="159.033203"/>
       <use xlink:href="#DejaVuSans-31" x="222.65625"/>
      </g>
     </g>
    </g>
    <g id="xtick_6">
     <g id="line2d_6">
      <g>
       <use xlink:href="#medb4566885" x="527.521279" y="581.278403" style="stroke: #000000; stroke-width: 0.8"/>
      </g>
     </g>
     <g id="text_6">
      <!-- 13.52 -->
      <g transform="translate(513.207216 595.876841) scale(0.1 -0.1)">
       <defs>
        <path id="DejaVuSans-32" d="M 1228 531 
L 3431 531 
L 3431 0 
L 469 0 
L 469 531 
Q 828 903 1448 1529 
Q 2069 2156 2228 2338 
Q 2531 2678 2651 2914 
Q 2772 3150 2772 3378 
Q 2772 3750 2511 3984 
Q 2250 4219 1831 4219 
Q 1534 4219 1204 4116 
Q 875 4013 500 3803 
L 500 4441 
Q 881 4594 1212 4672 
Q 1544 4750 1819 4750 
Q 2544 4750 2975 4387 
Q 3406 4025 3406 3419 
Q 3406 3131 3298 2873 
Q 3191 2616 2906 2266 
Q 2828 2175 2409 1742 
Q 1991 1309 1228 531 
z
" transform="scale(0.015625)"/>
       </defs>
       <use xlink:href="#DejaVuSans-31"/>
       <use xlink:href="#DejaVuSans-33" x="63.623047"/>
       <use xlink:href="#DejaVuSans-2e" x="127.246094"/>
       <use xlink:href="#DejaVuSans-35" x="159.033203"/>
       <use xlink:href="#DejaVuSans-32" x="222.65625"/>
      </g>
     </g>
    </g>
    <g id="xtick_7">
     <g id="line2d_7">
      <g>
       <use xlink:href="#medb4566885" x="605.071633" y="581.278403" style="stroke: #000000; stroke-width: 0.8"/>
      </g>
     </g>
     <g id="text_7">
      <!-- 13.53 -->
      <g transform="translate(590.757571 595.876841) scale(0.1 -0.1)">
       <use xlink:href="#DejaVuSans-31"/>
       <use xlink:href="#DejaVuSans-33" x="63.623047"/>
       <use xlink:href="#DejaVuSans-2e" x="127.246094"/>
       <use xlink:href="#DejaVuSans-35" x="159.033203"/>
       <use xlink:href="#DejaVuSans-33" x="222.65625"/>
      </g>
     </g>
    </g>
   </g>
   <g id="matplotlib.axis_2">
    <g id="ytick_1">
     <g id="line2d_8">
      <defs>
       <path id="m782d130359" d="M 0 0 
L -3.5 0 
" style="stroke: #000000; stroke-width: 0.8"/>
      </defs>
      <g>
       <use xlink:href="#m782d130359" x="90" y="537.499229" style="stroke: #000000; stroke-width: 0.8"/>
      </g>
     </g>
     <g id="text_8">
      <!-- 52.535 -->
      <g transform="translate(48.009375 541.298448) scale(0.1 -0.1)">
       <use xlink:href="#DejaVuSans-35"/>
       <use xlink:href="#DejaVuSans-32" x="63.623047"/>
       <use xlink:href="#DejaVuSans-2e" x="127.246094"/>
       <use xlink:href="#DejaVuSans-35" x="159.033203"/>
       <use xlink:href="#DejaVuSans-33" x="222.65625"/>
       <use xlink:href="#DejaVuSans-35" x="286.279297"/>
      </g>
     </g>
    </g>
    <g id="ytick_2">
     <g id="line2d_9">
      <g>
       <use xlink:href="#m782d130359" x="90" y="473.734507" style="stroke: #000000; stroke-width: 0.8"/>
      </g>
     </g>
     <g id="text_9">
      <!-- 52.540 -->
      <g transform="translate(48.009375 477.533726) scale(0.1 -0.1)">
       <use xlink:href="#DejaVuSans-35"/>
       <use xlink:href="#DejaVuSans-32" x="63.623047"/>
       <use xlink:href="#DejaVuSans-2e" x="127.246094"/>
       <use xlink:href="#DejaVuSans-35" x="159.033203"/>
       <use xlink:href="#DejaVuSans-34" x="222.65625"/>
       <use xlink:href="#DejaVuSans-30" x="286.279297"/>
      </g>
     </g>
    </g>
    <g id="ytick_3">
     <g id="line2d_10">
      <g>
       <use xlink:href="#m782d130359" x="90" y="409.969785" style="stroke: #000000; stroke-width: 0.8"/>
      </g>
     </g>
     <g id="text_10">
      <!-- 52.545 -->
      <g transform="translate(48.009375 413.769004) scale(0.1 -0.1)">
       <use xlink:href="#DejaVuSans-35"/>
       <use xlink:href="#DejaVuSans-32" x="63.623047"/>
       <use xlink:href="#DejaVuSans-2e" x="127.246094"/>
       <use xlink:href="#DejaVuSans-35" x="159.033203"/>
       <use xlink:href="#DejaVuSans-34" x="222.65625"/>
       <use xlink:href="#DejaVuSans-35" x="286.279297"/>
      </g>
     </g>
    </g>
    <g id="ytick_4">
     <g id="line2d_11">
      <g>
       <use xlink:href="#m782d130359" x="90" y="346.205063" style="stroke: #000000; stroke-width: 0.8"/>
      </g>
     </g>
     <g id="text_11">
      <!-- 52.550 -->
      <g transform="translate(48.009375 350.004282) scale(0.1 -0.1)">
       <use xlink:href="#DejaVuSans-35"/>
       <use xlink:href="#DejaVuSans-32" x="63.623047"/>
       <use xlink:href="#DejaVuSans-2e" x="127.246094"/>
       <use xlink:href="#DejaVuSans-35" x="159.033203"/>
       <use xlink:href="#DejaVuSans-35" x="222.65625"/>
       <use xlink:href="#DejaVuSans-30" x="286.279297"/>
      </g>
     </g>
    </g>
    <g id="ytick_5">
     <g id="line2d_12">
      <g>
       <use xlink:href="#m782d130359" x="90" y="282.440341" style="stroke: #000000; stroke-width: 0.8"/>
      </g>
     </g>
     <g id="text_12">
      <!-- 52.555 -->
      <g transform="translate(48.009375 286.23956) scale(0.1 -0.1)">
       <use xlink:href="#DejaVuSans-35"/>
       <use xlink:href="#DejaVuSans-32" x="63.623047"/>
       <use xlink:href="#DejaVuSans-2e" x="127.246094"/>
       <use xlink:href="#DejaVuSans-35" x="159.033203"/>
       <use xlink:href="#DejaVuSans-35" x="222.65625"/>
       <use xlink:href="#DejaVuSans-35" x="286.279297"/>
      </g>
     </g>
    </g>
    <g id="ytick_6">
     <g id="line2d_13">
      <g>
       <use xlink:href="#m782d130359" x="90" y="218.675619" style="stroke: #000000; stroke-width: 0.8"/>
      </g>
     </g>
     <g id="text_13">
      <!-- 52.560 -->
      <g transform="translate(48.009375 222.474838) scale(0.1 -0.1)">
       <defs>
        <path id="DejaVuSans-36" d="M 2113 2584 
Q 1688 2584 1439 2293 
Q 1191 2003 1191 1497 
Q 1191 994 1439 701 
Q 1688 409 2113 409 
Q 2538 409 2786 701 
Q 3034 994 3034 1497 
Q 3034 2003 2786 2293 
Q 2538 2584 2113 2584 
z
M 3366 4563 
L 3366 3988 
Q 3128 4100 2886 4159 
Q 2644 4219 2406 4219 
Q 1781 4219 1451 3797 
Q 1122 3375 1075 2522 
Q 1259 2794 1537 2939 
Q 1816 3084 2150 3084 
Q 2853 3084 3261 2657 
Q 3669 2231 3669 1497 
Q 3669 778 3244 343 
Q 2819 -91 2113 -91 
Q 1303 -91 875 529 
Q 447 1150 447 2328 
Q 447 3434 972 4092 
Q 1497 4750 2381 4750 
Q 2619 4750 2861 4703 
Q 3103 4656 3366 4563 
z
" transform="scale(0.015625)"/>
       </defs>
       <use xlink:href="#DejaVuSans-35"/>
       <use xlink:href="#DejaVuSans-32" x="63.623047"/>
       <use xlink:href="#DejaVuSans-2e" x="127.246094"/>
       <use xlink:href="#DejaVuSans-35" x="159.033203"/>
       <use xlink:href="#DejaVuSans-36" x="222.65625"/>
       <use xlink:href="#DejaVuSans-30" x="286.279297"/>
      </g>
     </g>
    </g>
    <g id="ytick_7">
     <g id="line2d_14">
      <g>
       <use xlink:href="#m782d130359" x="90" y="154.910897" style="stroke: #000000; stroke-width: 0.8"/>
      </g>
     </g>
     <g id="text_14">
      <!-- 52.565 -->
      <g transform="translate(48.009375 158.710116) scale(0.1 -0.1)">
       <use xlink:href="#DejaVuSans-35"/>
       <use xlink:href="#DejaVuSans-32" x="63.623047"/>
       <use xlink:href="#DejaVuSans-2e" x="127.246094"/>
       <use xlink:href="#DejaVuSans-35" x="159.033203"/>
       <use xlink:href="#DejaVuSans-36" x="222.65625"/>
       <use xlink:href="#DejaVuSans-35" x="286.279297"/>
      </g>
     </g>
    </g>
   </g>
   <g id="LineCollection_1">
    <path d="M 123.114019 385.195915 
L 122.198149 381.417218 
L 120.226819 373.445352 
L 119.07287 368.299539 
L 117.729698 361.940921 
L 117.620352 361.451208 
L 116.920072 358.591998 
L 116.33922 356.310496 
L 115.363636 352.002552 
" clip-path="url(#p254eaa61e2)" style="fill: none; stroke: #ff0000; stroke-opacity: 0.7; stroke-width: 0.5"/>
    <path d="M 464.686105 287.257128 
L 465.045938 287.526215 
L 465.380956 287.767246 
L 471.895961 292.450127 
L 477.597463 296.47113 
L 485.758862 302.257141 
L 486.135757 302.718798 
L 487.181911 305.5423 
L 490.558454 314.873629 
L 491.597628 317.808082 
L 491.796933 318.375588 
L 493.175778 322.425923 
L 493.376634 322.837843 
L 493.765161 323.636177 
" clip-path="url(#p254eaa61e2)" style="fill: none; stroke: #ff0000; stroke-opacity: 0.7; stroke-width: 0.5"/>
    <path d="M 261.730624 399.963825 
L 261.321933 400.837402 
L 255.878674 413.297028 
L 255.585534 413.949979 
" clip-path="url(#p254eaa61e2)" style="fill: none; stroke: #ff0000; stroke-opacity: 0.7; stroke-width: 0.5"/>
    <path d="M 122.129129 391.773884 
L 122.514555 393.213692 
" clip-path="url(#p254eaa61e2)" style="fill: none; stroke: #ff0000; stroke-opacity: 0.7; stroke-width: 0.5"/>
    <path d="M 481.776652 285.183499 
L 478.634311 289.705693 
L 478.478435 290.195407 
L 478.690147 292.258833 
L 478.881697 293.456334 
L 479.215163 294.157746 
" clip-path="url(#p254eaa61e2)" style="fill: none; stroke: #ff0000; stroke-opacity: 0.7; stroke-width: 0.5"/>
    <path d="M 141.191006 467.192247 
L 135.578687 441.969473 
L 135.307261 440.787275 
L 135.224282 440.425092 
L 135.039712 439.620381 
L 133.083117 430.88844 
L 131.165297 422.359271 
L 129.649963 415.081165 
L 129.490209 414.298135 
L 129.034213 412.322703 
L 127.510348 405.725605 
L 127.341289 405.075205 
" clip-path="url(#p254eaa61e2)" style="fill: none; stroke: #ff0000; stroke-opacity: 0.7; stroke-width: 0.5"/>
    <path d="M 124.581271 391.046966 
L 123.742177 387.638104 
" clip-path="url(#p254eaa61e2)" style="fill: none; stroke: #ff0000; stroke-opacity: 0.7; stroke-width: 0.5"/>
    <path d="M 121.395503 388.269375 
L 122.129129 391.773884 
" clip-path="url(#p254eaa61e2)" style="fill: none; stroke: #ff0000; stroke-opacity: 0.7; stroke-width: 0.5"/>
    <path d="M 116.986765 367.585374 
L 117.642841 370.343836 
" clip-path="url(#p254eaa61e2)" style="fill: none; stroke: #ff0000; stroke-opacity: 0.7; stroke-width: 0.5"/>
    <path d="M 444.19575 326.264559 
L 444.730847 326.07199 
L 445.379168 325.83351 
L 445.640513 325.736587 
L 446.074795 325.5759 
L 449.779375 324.21006 
L 455.350593 322.195095 
L 455.516551 322.137706 
L 461.427439 319.866407 
L 468.394562 317.202317 
L 482.180689 312.157252 
" clip-path="url(#p254eaa61e2)" style="fill: none; stroke: #ff0000; stroke-opacity: 0.7; stroke-width: 0.5"/>
    <path d="M 479.215163 294.157746 
L 483.709982 287.816982 
L 483.861205 287.05053 
" clip-path="url(#p254eaa61e2)" style="fill: none; stroke: #ff0000; stroke-opacity: 0.7; stroke-width: 0.5"/>
    <path d="M 118.56569 374.929795 
L 118.918545 377.119476 
L 120.733998 385.417817 
L 120.812324 385.754494 
" clip-path="url(#p254eaa61e2)" style="fill: none; stroke: #ff0000; stroke-opacity: 0.7; stroke-width: 0.5"/>
    <path d="M 124.0865 399.256037 
L 125.550651 405.490951 
" clip-path="url(#p254eaa61e2)" style="fill: none; stroke: #ff0000; stroke-opacity: 0.7; stroke-width: 0.5"/>
    <path d="M 125.550651 405.490951 
L 126.419215 405.289455 
L 126.776722 405.20656 
L 127.341289 405.075205 
" clip-path="url(#p254eaa61e2)" style="fill: none; stroke: #ff0000; stroke-opacity: 0.7; stroke-width: 0.5"/>
    <path d="M 125.550651 405.490951 
L 127.660021 414.729184 
L 128.095078 416.777307 
L 129.192416 421.618325 
L 129.437475 422.697224 
L 131.345989 431.277405 
L 133.504991 440.798753 
L 137.608955 459.074998 
" clip-path="url(#p254eaa61e2)" style="fill: none; stroke: #ff0000; stroke-opacity: 0.7; stroke-width: 0.5"/>
    <path d="M 127.341289 405.075205 
L 126.055504 397.863415 
L 125.118695 393.436868 
L 124.998492 392.90507 
" clip-path="url(#p254eaa61e2)" style="fill: none; stroke: #ff0000; stroke-opacity: 0.7; stroke-width: 0.5"/>
    <path d="M 491.796933 318.375588 
L 490.21413 318.957122 
L 489.214506 319.346087 
L 485.781352 320.660915 
L 485.369559 320.817777 
L 483.727818 321.423542 
L 478.30162 323.427029 
L 471.436863 325.926606 
L 464.617085 328.412155 
L 461.950128 329.392856 
" clip-path="url(#p254eaa61e2)" style="fill: none; stroke: #ff0000; stroke-opacity: 0.7; stroke-width: 0.5"/>
    <path d="M 490.21413 318.957122 
L 490.09005 318.625546 
L 487.365706 311.339788 
L 484.72279 304.186662 
L 475.76805 297.797437 
" clip-path="url(#p254eaa61e2)" style="fill: none; stroke: #ff0000; stroke-opacity: 0.7; stroke-width: 0.5"/>
    <path d="M 475.76805 297.797437 
L 472.439589 295.40626 
" clip-path="url(#p254eaa61e2)" style="fill: none; stroke: #ff0000; stroke-opacity: 0.7; stroke-width: 0.5"/>
    <path d="M 413.837888 458.339153 
L 417.782099 458.219275 
L 424.169146 458.029256 
L 426.856266 457.943812 
" clip-path="url(#p254eaa61e2)" style="fill: none; stroke: #ff0000; stroke-opacity: 0.7; stroke-width: 0.5"/>
    <path d="M 414.362129 472.937448 
L 418.450583 472.820121 
" clip-path="url(#p254eaa61e2)" style="fill: none; stroke: #ff0000; stroke-opacity: 0.7; stroke-width: 0.5"/>
    <path d="M 418.450583 472.820121 
L 421.246274 472.715547 
L 424.680979 472.631378 
" clip-path="url(#p254eaa61e2)" style="fill: none; stroke: #ff0000; stroke-opacity: 0.7; stroke-width: 0.5"/>
    <path d="M 117.642841 370.343836 
L 118.215163 372.769446 
L 118.56569 374.929795 
" clip-path="url(#p254eaa61e2)" style="fill: none; stroke: #ff0000; stroke-opacity: 0.7; stroke-width: 0.5"/>
    <path d="M 137.608955 459.074998 
L 139.728407 468.743005 
" clip-path="url(#p254eaa61e2)" style="fill: none; stroke: #ff0000; stroke-opacity: 0.7; stroke-width: 0.5"/>
    <path d="M 122.586676 393.504459 
L 124.0865 399.256037 
" clip-path="url(#p254eaa61e2)" style="fill: none; stroke: #ff0000; stroke-opacity: 0.7; stroke-width: 0.5"/>
    <path d="M 124.927922 392.583696 
L 124.581271 391.046966 
" clip-path="url(#p254eaa61e2)" style="fill: none; stroke: #ff0000; stroke-opacity: 0.7; stroke-width: 0.5"/>
    <path d="M 123.742177 387.638104 
L 123.220263 385.605285 
" clip-path="url(#p254eaa61e2)" style="fill: none; stroke: #ff0000; stroke-opacity: 0.7; stroke-width: 0.5"/>
    <path d="M 120.90616 386.158763 
L 121.395503 388.269375 
" clip-path="url(#p254eaa61e2)" style="fill: none; stroke: #ff0000; stroke-opacity: 0.7; stroke-width: 0.5"/>
    <path d="M 120.812324 385.754494 
L 120.90616 386.158763 
" clip-path="url(#p254eaa61e2)" style="fill: none; stroke: #ff0000; stroke-opacity: 0.7; stroke-width: 0.5"/>
    <path d="M 123.220263 385.605285 
L 123.114019 385.195915 
" clip-path="url(#p254eaa61e2)" style="fill: none; stroke: #ff0000; stroke-opacity: 0.7; stroke-width: 0.5"/>
    <path d="M 124.998492 392.90507 
L 124.927922 392.583696 
" clip-path="url(#p254eaa61e2)" style="fill: none; stroke: #ff0000; stroke-opacity: 0.7; stroke-width: 0.5"/>
    <path d="M 122.514555 393.213692 
L 122.586676 393.504459 
" clip-path="url(#p254eaa61e2)" style="fill: none; stroke: #ff0000; stroke-opacity: 0.7; stroke-width: 0.5"/>
    <path d="M 490.791105 272.442033 
L 490.026458 273.485223 
L 488.194719 276.097026 
L 487.90313 276.512772 
L 487.461093 277.142768 
L 486.60959 278.354298 
L 485.77825 279.533945 
L 484.490914 281.344863 
" clip-path="url(#p254eaa61e2)" style="fill: none; stroke: #ff0000; stroke-opacity: 0.7; stroke-width: 0.5"/>
    <path d="M 484.490914 281.344863 
L 483.084151 283.25908 
L 481.776652 285.183499 
" clip-path="url(#p254eaa61e2)" style="fill: none; stroke: #ff0000; stroke-opacity: 0.7; stroke-width: 0.5"/>
    <path d="M 483.861205 287.05053 
L 483.662676 286.651363 
L 481.776652 285.183499 
" clip-path="url(#p254eaa61e2)" style="fill: none; stroke: #ff0000; stroke-opacity: 0.7; stroke-width: 0.5"/>
    <path d="M 479.215163 294.157746 
L 477.913093 296.031154 
L 477.597463 296.47113 
" clip-path="url(#p254eaa61e2)" style="fill: none; stroke: #ff0000; stroke-opacity: 0.7; stroke-width: 0.5"/>
   </g>
   <g id="patch_3">
    <path d="M 90 581.278403 
L 90 145.921597 
" style="fill: none; stroke: #000000; stroke-width: 0.8; stroke-linejoin: miter; stroke-linecap: square"/>
   </g>
   <g id="patch_4">
    <path d="M 648 581.278403 
L 648 145.921597 
" style="fill: none; stroke: #000000; stroke-width: 0.8; stroke-linejoin: miter; stroke-linecap: square"/>
   </g>
   <g id="patch_5">
    <path d="M 90 581.278403 
L 648 581.278403 
" style="fill: none; stroke: #000000; stroke-width: 0.8; stroke-linejoin: miter; stroke-linecap: square"/>
   </g>
   <g id="patch_6">
    <path d="M 90 145.921597 
L 648 145.921597 
" style="fill: none; stroke: #000000; stroke-width: 0.8; stroke-linejoin: miter; stroke-linecap: square"/>
   </g>
   <g id="text_15">
    <!-- Hohenschönhausen_Süd -->
    <g transform="translate(309.224771 399.331629) scale(0.12 -0.12)">
     <defs>
      <path id="DejaVuSans-48" d="M 628 4666 
L 1259 4666 
L 1259 2753 
L 3553 2753 
L 3553 4666 
L 4184 4666 
L 4184 0 
L 3553 0 
L 3553 2222 
L 1259 2222 
L 1259 0 
L 628 0 
L 628 4666 
z
" transform="scale(0.015625)"/>
      <path id="DejaVuSans-6f" d="M 1959 3097 
Q 1497 3097 1228 2736 
Q 959 2375 959 1747 
Q 959 1119 1226 758 
Q 1494 397 1959 397 
Q 2419 397 2687 759 
Q 2956 1122 2956 1747 
Q 2956 2369 2687 2733 
Q 2419 3097 1959 3097 
z
M 1959 3584 
Q 2709 3584 3137 3096 
Q 3566 2609 3566 1747 
Q 3566 888 3137 398 
Q 2709 -91 1959 -91 
Q 1206 -91 779 398 
Q 353 888 353 1747 
Q 353 2609 779 3096 
Q 1206 3584 1959 3584 
z
" transform="scale(0.015625)"/>
      <path id="DejaVuSans-68" d="M 3513 2113 
L 3513 0 
L 2938 0 
L 2938 2094 
Q 2938 2591 2744 2837 
Q 2550 3084 2163 3084 
Q 1697 3084 1428 2787 
Q 1159 2491 1159 1978 
L 1159 0 
L 581 0 
L 581 4863 
L 1159 4863 
L 1159 2956 
Q 1366 3272 1645 3428 
Q 1925 3584 2291 3584 
Q 2894 3584 3203 3211 
Q 3513 2838 3513 2113 
z
" transform="scale(0.015625)"/>
      <path id="DejaVuSans-65" d="M 3597 1894 
L 3597 1613 
L 953 1613 
Q 991 1019 1311 708 
Q 1631 397 2203 397 
Q 2534 397 2845 478 
Q 3156 559 3463 722 
L 3463 178 
Q 3153 47 2828 -22 
Q 2503 -91 2169 -91 
Q 1331 -91 842 396 
Q 353 884 353 1716 
Q 353 2575 817 3079 
Q 1281 3584 2069 3584 
Q 2775 3584 3186 3129 
Q 3597 2675 3597 1894 
z
M 3022 2063 
Q 3016 2534 2758 2815 
Q 2500 3097 2075 3097 
Q 1594 3097 1305 2825 
Q 1016 2553 972 2059 
L 3022 2063 
z
" transform="scale(0.015625)"/>
      <path id="DejaVuSans-6e" d="M 3513 2113 
L 3513 0 
L 2938 0 
L 2938 2094 
Q 2938 2591 2744 2837 
Q 2550 3084 2163 3084 
Q 1697 3084 1428 2787 
Q 1159 2491 1159 1978 
L 1159 0 
L 581 0 
L 581 3500 
L 1159 3500 
L 1159 2956 
Q 1366 3272 1645 3428 
Q 1925 3584 2291 3584 
Q 2894 3584 3203 3211 
Q 3513 2838 3513 2113 
z
" transform="scale(0.015625)"/>
      <path id="DejaVuSans-73" d="M 2834 3397 
L 2834 2853 
Q 2591 2978 2328 3040 
Q 2066 3103 1784 3103 
Q 1356 3103 1142 2972 
Q 928 2841 928 2578 
Q 928 2378 1081 2264 
Q 1234 2150 1697 2047 
L 1894 2003 
Q 2506 1872 2764 1633 
Q 3022 1394 3022 966 
Q 3022 478 2636 193 
Q 2250 -91 1575 -91 
Q 1294 -91 989 -36 
Q 684 19 347 128 
L 347 722 
Q 666 556 975 473 
Q 1284 391 1588 391 
Q 1994 391 2212 530 
Q 2431 669 2431 922 
Q 2431 1156 2273 1281 
Q 2116 1406 1581 1522 
L 1381 1569 
Q 847 1681 609 1914 
Q 372 2147 372 2553 
Q 372 3047 722 3315 
Q 1072 3584 1716 3584 
Q 2034 3584 2315 3537 
Q 2597 3491 2834 3397 
z
" transform="scale(0.015625)"/>
      <path id="DejaVuSans-63" d="M 3122 3366 
L 3122 2828 
Q 2878 2963 2633 3030 
Q 2388 3097 2138 3097 
Q 1578 3097 1268 2742 
Q 959 2388 959 1747 
Q 959 1106 1268 751 
Q 1578 397 2138 397 
Q 2388 397 2633 464 
Q 2878 531 3122 666 
L 3122 134 
Q 2881 22 2623 -34 
Q 2366 -91 2075 -91 
Q 1284 -91 818 406 
Q 353 903 353 1747 
Q 353 2603 823 3093 
Q 1294 3584 2113 3584 
Q 2378 3584 2631 3529 
Q 2884 3475 3122 3366 
z
" transform="scale(0.015625)"/>
      <path id="DejaVuSans-f6" d="M 1959 3097 
Q 1497 3097 1228 2736 
Q 959 2375 959 1747 
Q 959 1119 1226 758 
Q 1494 397 1959 397 
Q 2419 397 2687 759 
Q 2956 1122 2956 1747 
Q 2956 2369 2687 2733 
Q 2419 3097 1959 3097 
z
M 1959 3584 
Q 2709 3584 3137 3096 
Q 3566 2609 3566 1747 
Q 3566 888 3137 398 
Q 2709 -91 1959 -91 
Q 1206 -91 779 398 
Q 353 888 353 1747 
Q 353 2609 779 3096 
Q 1206 3584 1959 3584 
z
M 2254 4850 
L 2888 4850 
L 2888 4219 
L 2254 4219 
L 2254 4850 
z
M 1032 4850 
L 1666 4850 
L 1666 4219 
L 1032 4219 
L 1032 4850 
z
" transform="scale(0.015625)"/>
      <path id="DejaVuSans-61" d="M 2194 1759 
Q 1497 1759 1228 1600 
Q 959 1441 959 1056 
Q 959 750 1161 570 
Q 1363 391 1709 391 
Q 2188 391 2477 730 
Q 2766 1069 2766 1631 
L 2766 1759 
L 2194 1759 
z
M 3341 1997 
L 3341 0 
L 2766 0 
L 2766 531 
Q 2569 213 2275 61 
Q 1981 -91 1556 -91 
Q 1019 -91 701 211 
Q 384 513 384 1019 
Q 384 1609 779 1909 
Q 1175 2209 1959 2209 
L 2766 2209 
L 2766 2266 
Q 2766 2663 2505 2880 
Q 2244 3097 1772 3097 
Q 1472 3097 1187 3025 
Q 903 2953 641 2809 
L 641 3341 
Q 956 3463 1253 3523 
Q 1550 3584 1831 3584 
Q 2591 3584 2966 3190 
Q 3341 2797 3341 1997 
z
" transform="scale(0.015625)"/>
      <path id="DejaVuSans-75" d="M 544 1381 
L 544 3500 
L 1119 3500 
L 1119 1403 
Q 1119 906 1312 657 
Q 1506 409 1894 409 
Q 2359 409 2629 706 
Q 2900 1003 2900 1516 
L 2900 3500 
L 3475 3500 
L 3475 0 
L 2900 0 
L 2900 538 
Q 2691 219 2414 64 
Q 2138 -91 1772 -91 
Q 1169 -91 856 284 
Q 544 659 544 1381 
z
M 1991 3584 
L 1991 3584 
z
" transform="scale(0.015625)"/>
      <path id="DejaVuSans-5f" d="M 3263 -1063 
L 3263 -1509 
L -63 -1509 
L -63 -1063 
L 3263 -1063 
z
" transform="scale(0.015625)"/>
      <path id="DejaVuSans-53" d="M 3425 4513 
L 3425 3897 
Q 3066 4069 2747 4153 
Q 2428 4238 2131 4238 
Q 1616 4238 1336 4038 
Q 1056 3838 1056 3469 
Q 1056 3159 1242 3001 
Q 1428 2844 1947 2747 
L 2328 2669 
Q 3034 2534 3370 2195 
Q 3706 1856 3706 1288 
Q 3706 609 3251 259 
Q 2797 -91 1919 -91 
Q 1588 -91 1214 -16 
Q 841 59 441 206 
L 441 856 
Q 825 641 1194 531 
Q 1563 422 1919 422 
Q 2459 422 2753 634 
Q 3047 847 3047 1241 
Q 3047 1584 2836 1778 
Q 2625 1972 2144 2069 
L 1759 2144 
Q 1053 2284 737 2584 
Q 422 2884 422 3419 
Q 422 4038 858 4394 
Q 1294 4750 2059 4750 
Q 2388 4750 2728 4690 
Q 3069 4631 3425 4513 
z
" transform="scale(0.015625)"/>
      <path id="DejaVuSans-fc" d="M 544 1381 
L 544 3500 
L 1119 3500 
L 1119 1403 
Q 1119 906 1312 657 
Q 1506 409 1894 409 
Q 2359 409 2629 706 
Q 2900 1003 2900 1516 
L 2900 3500 
L 3475 3500 
L 3475 0 
L 2900 0 
L 2900 538 
Q 2691 219 2414 64 
Q 2138 -91 1772 -91 
Q 1169 -91 856 284 
Q 544 659 544 1381 
z
M 1991 3584 
L 1991 3584 
z
M 2278 4850 
L 2912 4850 
L 2912 4219 
L 2278 4219 
L 2278 4850 
z
M 1056 4850 
L 1690 4850 
L 1690 4219 
L 1056 4219 
L 1056 4850 
z
" transform="scale(0.015625)"/>
      <path id="DejaVuSans-64" d="M 2906 2969 
L 2906 4863 
L 3481 4863 
L 3481 0 
L 2906 0 
L 2906 525 
Q 2725 213 2448 61 
Q 2172 -91 1784 -91 
Q 1150 -91 751 415 
Q 353 922 353 1747 
Q 353 2572 751 3078 
Q 1150 3584 1784 3584 
Q 2172 3584 2448 3432 
Q 2725 3281 2906 2969 
z
M 947 1747 
Q 947 1113 1208 752 
Q 1469 391 1925 391 
Q 2381 391 2643 752 
Q 2906 1113 2906 1747 
Q 2906 2381 2643 2742 
Q 2381 3103 1925 3103 
Q 1469 3103 1208 2742 
Q 947 2381 947 1747 
z
" transform="scale(0.015625)"/>
     </defs>
     <use xlink:href="#DejaVuSans-48"/>
     <use xlink:href="#DejaVuSans-6f" x="75.195312"/>
     <use xlink:href="#DejaVuSans-68" x="136.376953"/>
     <use xlink:href="#DejaVuSans-65" x="199.755859"/>
     <use xlink:href="#DejaVuSans-6e" x="261.279297"/>
     <use xlink:href="#DejaVuSans-73" x="324.658203"/>
     <use xlink:href="#DejaVuSans-63" x="376.757812"/>
     <use xlink:href="#DejaVuSans-68" x="431.738281"/>
     <use xlink:href="#DejaVuSans-f6" x="495.117188"/>
     <use xlink:href="#DejaVuSans-6e" x="556.298828"/>
     <use xlink:href="#DejaVuSans-68" x="619.677734"/>
     <use xlink:href="#DejaVuSans-61" x="683.056641"/>
     <use xlink:href="#DejaVuSans-75" x="744.335938"/>
     <use xlink:href="#DejaVuSans-73" x="807.714844"/>
     <use xlink:href="#DejaVuSans-65" x="859.814453"/>
     <use xlink:href="#DejaVuSans-6e" x="921.337891"/>
     <use xlink:href="#DejaVuSans-5f" x="984.716797"/>
     <use xlink:href="#DejaVuSans-53" x="1034.716797"/>
     <use xlink:href="#DejaVuSans-fc" x="1098.193359"/>
     <use xlink:href="#DejaVuSans-64" x="1161.572266"/>
    </g>
   </g>
  </g>
 </g>
 <defs>
  <clipPath id="p254eaa61e2">
   <rect x="90" y="145.921597" width="558" height="435.356806"/>
  </clipPath>
 </defs>
</svg>
