<?xml version="1.0" encoding="utf-8" standalone="no"?>
<!DOCTYPE svg PUBLIC "-//W3C//DTD SVG 1.1//EN"
  "http://www.w3.org/Graphics/SVG/1.1/DTD/svg11.dtd">
<svg xmlns:xlink="http://www.w3.org/1999/xlink" width="720pt" height="720pt" viewBox="0 0 720 720" xmlns="http://www.w3.org/2000/svg" version="1.1">
 <metadata>
  <rdf:RDF xmlns:dc="http://purl.org/dc/elements/1.1/" xmlns:cc="http://creativecommons.org/ns#" xmlns:rdf="http://www.w3.org/1999/02/22-rdf-syntax-ns#">
   <cc:Work>
    <dc:type rdf:resource="http://purl.org/dc/dcmitype/StillImage"/>
    <dc:date>2024-10-22T09:54:09.228596</dc:date>
    <dc:format>image/svg+xml</dc:format>
    <dc:creator>
     <cc:Agent>
      <dc:title>Matplotlib v3.9.2, https://matplotlib.org/</dc:title>
     </cc:Agent>
    </dc:creator>
   </cc:Work>
  </rdf:RDF>
 </metadata>
 <defs>
  <style type="text/css">*{stroke-linejoin: round; stroke-linecap: butt}</style>
 </defs>
 <g id="figure_1">
  <g id="patch_1">
   <path d="M 0 720 
L 720 720 
L 720 0 
L 0 0 
z
" style="fill: #ffffff"/>
  </g>
  <g id="axes_1">
   <g id="patch_2">
    <path d="M 90 577.655919 
L 648 577.655919 
L 648 149.544081 
L 90 149.544081 
z
" style="fill: #ffffff"/>
   </g>
   <g id="PatchCollection_1">
    <path d="M 162.093168 426.684482 
L 161.807071 427.04995 
L 161.657373 427.2412 
L 161.367726 427.611249 
L 154.149904 436.832054 
L 140.57756 454.198331 
L 140.047261 454.868803 
L 139.933263 455.00616 
L 139.839611 455.118768 
L 139.752087 455.224273 
L 139.643467 455.35514 
L 139.436027 455.604908 
L 139.231067 455.851692 
L 139.109125 455.998486 
L 140.587298 456.285377 
L 141.320039 456.427597 
L 141.370967 456.449654 
L 142.269195 456.839251 
L 142.351794 456.875098 
L 142.088336 457.388153 
L 142.043978 458.132828 
L 142.029769 458.385605 
L 142.021504 458.638766 
L 142.019262 458.891971 
L 142.023126 459.145132 
L 142.037554 459.594762 
L 142.004974 459.820884 
L 142.020338 460.307061 
L 142.026284 460.772858 
L 142.02327 460.989257 
L 142.012023 461.20532 
L 141.992623 461.420874 
L 141.965061 461.635495 
L 141.929332 461.848927 
L 141.885598 462.060827 
L 141.714969 462.802295 
L 141.620674 463.139075 
L 141.58424 463.233895 
L 141.540873 463.325714 
L 141.490734 463.414104 
L 141.434234 463.498461 
L 141.371619 463.578356 
L 141.303132 463.653271 
L 141.229362 463.722941 
L 141.108315 464.333171 
L 140.608192 466.855385 
L 140.553646 467.130016 
L 139.8167 470.848345 
L 139.788328 470.991892 
L 139.68743 471.503054 
L 139.656198 471.659842 
L 139.643608 471.72278 
L 139.605003 471.916289 
L 139.586744 472.008174 
L 140.076037 472.101524 
L 140.618769 472.203272 
L 141.388772 472.348194 
L 142.765373 472.607214 
L 144.088076 472.856234 
L 145.432999 473.109296 
L 146.754504 473.357925 
L 147.151297 473.432651 
L 148.102661 473.611694 
L 151.636315 474.276714 
L 152.079754 474.351484 
L 152.500236 474.431585 
L 153.064965 474.539179 
L 153.357549 474.59493 
L 157.355244 475.262311 
L 158.720005 475.495526 
L 159.357306 475.59378 
L 160.05251 475.739629 
L 161.372463 476.012232 
L 162.790229 476.269857 
L 164.026736 476.508592 
L 165.360677 476.852175 
L 166.675894 477.113585 
L 167.42758 477.279859 
L 168.003915 477.407469 
L 169.319162 477.662338 
L 170.649515 477.925908 
L 171.142341 478.034782 
L 171.97333 478.185113 
L 173.321534 478.453875 
L 174.65975 478.697193 
L 176.029575 478.954595 
L 177.345576 479.205477 
L 177.614133 479.256307 
L 178.224641 479.371734 
L 178.672347 479.456393 
L 179.982255 479.704009 
L 181.321595 479.951778 
L 182.661271 480.215787 
L 183.970762 480.488341 
L 184.847432 480.649815 
L 185.319118 480.745798 
L 186.63938 480.985991 
L 187.976982 481.224038 
L 188.42703 481.299219 
L 189.323214 481.448984 
L 190.367892 481.639008 
L 190.617763 481.680544 
L 193.878691 482.272128 
L 194.733899 482.401163 
L 194.975527 482.44602 
L 195.451121 482.534364 
L 196.10033 482.65564 
L 196.799265 482.786336 
L 198.000792 483.010937 
L 199.409981 483.274395 
L 199.610224 483.311277 
L 201.113732 483.656784 
L 202.565177 483.949982 
L 204.053249 484.27941 
L 205.537084 484.617266 
L 207.012157 484.936344 
L 207.880392 485.114458 
L 208.471671 485.26035 
L 208.648921 485.307378 
L 210.343294 485.653298 
L 210.862135 485.778428 
L 212.035517 486.020666 
L 212.418815 486.104241 
L 213.766768 486.364435 
L 215.422616 486.708001 
L 217.155905 487.060331 
L 219.04863 487.432893 
L 220.469336 487.692866 
L 221.038028 487.796983 
L 223.194703 488.232255 
L 223.612332 488.307045 
L 225.407335 488.683207 
L 226.113216 488.826733 
L 228.500229 489.31706 
L 229.51828 489.519761 
L 229.966075 489.605663 
L 230.174497 489.685788 
L 230.79192 489.923148 
L 231.306081 490.072637 
L 233.350237 490.792292 
L 233.675135 490.906527 
L 234.318871 491.133168 
L 238.324909 492.544725 
L 239.633671 492.994603 
L 241.334203 493.561075 
L 242.994065 494.113265 
L 243.960453 494.484561 
L 245.19856 494.960257 
L 245.807457 494.614913 
L 247.220982 495.369791 
L 248.704051 496.161918 
L 258.932793 501.689549 
L 264.501078 504.264856 
L 265.422394 504.690805 
L 276.317684 509.736229 
L 283.010497 512.691819 
L 283.908782 513.086601 
L 295.290297 518.140621 
L 297.554207 519.145851 
L 301.789436 521.078638 
L 310.258994 524.992917 
L 323.372771 530.882189 
L 324.068274 531.194725 
L 324.75323 531.407229 
L 324.966263 531.473321 
L 325.617923 531.752834 
L 334.987305 535.449474 
L 338.869729 536.941675 
L 342.07365 538.197954 
L 344.157363 539.036137 
L 344.750584 539.274789 
L 345.144639 539.444408 
L 346.160553 539.855748 
L 348.492923 540.882552 
L 349.378355 541.274645 
L 351.779636 542.296648 
L 354.99937 543.687486 
L 357.964537 545.012829 
L 359.564795 545.720286 
L 360.074556 545.954807 
L 366.917351 548.852767 
L 372.727364 551.395647 
L 373.019126 552.084674 
L 373.474496 552.837865 
L 373.785978 553.142628 
L 374.139025 553.489739 
L 374.517367 554.362117 
L 375.560765 556.765139 
L 376.117001 556.360605 
L 376.693265 557.516609 
L 376.860347 558.19629 
L 378.922026 556.713661 
L 379.524953 556.386494 
L 379.986186 557.091185 
L 380.653339 556.611762 
L 382.419088 554.995244 
L 383.955135 553.618129 
L 384.205173 553.393963 
L 385.878676 551.859965 
L 386.483894 551.303245 
L 386.838592 550.978111 
L 387.384546 550.47584 
L 387.943447 550.10962 
L 389.066706 549.070254 
L 389.958839 548.24456 
L 391.337046 547.061201 
L 394.311049 544.505599 
L 395.239691 543.664543 
L 395.695394 543.251865 
L 396.601731 542.431106 
L 401.068909 538.418341 
L 401.224729 538.27867 
L 401.582778 537.921252 
L 401.709443 537.794848 
L 402.410841 537.095109 
L 402.553631 536.952644 
L 409.379169 529.96019 
L 411.707784 527.574709 
L 411.959128 527.281981 
L 412.229935 526.966321 
L 417.771902 521.400276 
L 420.423124 518.743198 
L 425.648427 513.295884 
L 426.089438 512.837133 
L 428.602736 510.210898 
L 433.610281 503.996411 
L 437.358434 499.198744 
L 439.976976 495.906977 
L 446.567924 487.361792 
L 447.469246 486.173269 
L 462.090258 467.266734 
L 463.700262 465.286966 
L 465.2425 463.390555 
L 465.272956 463.353117 
L 465.399894 463.158357 
L 465.75529 462.613117 
L 466.542556 461.626193 
L 466.931696 460.945741 
L 469.34395 457.798067 
L 469.46396 457.663315 
L 469.588899 457.533226 
L 469.718598 457.407888 
L 469.852892 457.287473 
L 469.976331 457.183947 
L 470.103078 457.084604 
L 470.233133 456.989532 
L 470.387769 456.944134 
L 470.543139 456.901441 
L 470.699241 456.861455 
L 470.825939 456.831165 
L 470.953098 456.802736 
L 471.080632 456.776085 
L 474.089853 456.517465 
L 474.130681 456.502181 
L 474.168845 456.480999 
L 474.203507 456.45436 
L 474.233831 456.422962 
L 474.25957 456.387065 
L 474.279726 456.347709 
L 474.293808 456.305756 
L 474.301497 456.262231 
L 474.29909 456.239575 
L 474.291027 456.218309 
L 474.27793 456.199696 
L 474.26067 456.184994 
L 474.232293 456.178341 
L 474.203234 456.175784 
L 474.174175 456.177393 
L 475.487144 456.005884 
L 475.877881 455.921264 
L 476.501631 455.804116 
L 476.721203 455.752812 
L 476.937711 455.684138 
L 477.152682 455.610733 
L 477.366035 455.532769 
L 477.601156 455.432339 
L 477.833608 455.325671 
L 478.063137 455.212854 
L 478.289575 455.093978 
L 479.682498 454.39882 
L 482.546158 452.963319 
L 484.787219 451.853205 
L 485.453211 451.525174 
L 485.894579 451.279924 
L 488.879644 449.177956 
L 489.040586 449.053692 
L 489.258851 448.886601 
L 489.725202 448.529621 
L 489.922034 448.287876 
L 489.978282 448.206749 
L 490.244646 447.822575 
L 491.812301 445.561452 
L 495.465617 440.704338 
L 495.755469 440.361182 
L 495.758065 440.358108 
L 496.138711 440.24735 
L 496.336709 440.189774 
L 502.497438 437.858762 
L 511.737767 434.372638 
L 513.536797 433.696019 
L 518.677879 431.709979 
L 518.751489 431.899573 
L 519.334072 431.672857 
L 523.11607 430.200764 
L 523.373781 430.100415 
L 527.104302 428.648529 
L 527.453839 428.51249 
L 528.32958 428.171716 
L 529.717045 427.631691 
L 531.599409 426.899051 
L 533.362771 426.212863 
L 535.552694 425.360613 
L 536.691068 424.917569 
L 536.824534 424.865626 
L 537.82115 424.477712 
L 539.146445 423.962099 
L 540.477883 423.443901 
L 541.738878 422.953144 
L 542.988428 422.466873 
L 544.267358 421.969216 
L 545.5255 421.479634 
L 546.778341 420.992033 
L 547.426185 420.73998 
L 548.083372 420.484254 
L 549.333865 419.997728 
L 550.59505 419.506995 
L 551.806408 419.035549 
L 553.085526 418.53783 
L 554.291672 418.068452 
L 554.605618 417.954494 
L 554.521445 417.812896 
L 558.08152 416.463185 
L 558.150456 416.631876 
L 559.453692 416.130548 
L 560.733614 415.638194 
L 562.022296 415.142608 
L 563.317463 414.644514 
L 564.583085 414.157732 
L 565.915799 413.645118 
L 567.208534 413.147935 
L 568.523493 412.642149 
L 569.825326 412.141561 
L 571.102326 411.650319 
L 572.421085 411.143193 
L 573.705501 410.649259 
L 575.007176 410.148606 
L 576.279392 409.659346 
L 577.575855 409.160762 
L 578.877624 408.660119 
L 580.15406 408.169342 
L 581.851065 407.516663 
L 581.823058 407.336945 
L 582.964114 406.905519 
L 584.564193 406.300796 
L 585.003413 406.125595 
L 586.009774 405.724168 
L 594.743932 402.325205 
L 597.241862 401.306838 
L 600.710844 399.892477 
L 603.162625 398.787053 
L 603.719348 398.522196 
L 604.598791 398.007016 
L 606.399525 396.952101 
L 611.353213 393.997117 
L 615.507145 391.582547 
L 616.009582 389.369998 
L 614.510844 390.265447 
L 613.651947 390.778665 
L 614.282194 390.058261 
L 616.205344 387.862477 
L 616.260924 387.799123 
L 616.338264 387.566793 
L 617.126977 385.189865 
L 617.143101 385.143114 
L 617.838479 384.279831 
L 618.0426 383.998291 
L 620.13874 381.107562 
L 621.250143 379.122445 
L 622.636364 376.646726 
L 621.024281 373.340017 
L 620.148163 371.663356 
L 618.867655 369.212752 
L 618.072813 367.691371 
L 617.999279 367.550994 
L 617.444402 365.929934 
L 617.146349 365.059566 
L 615.722149 360.900298 
L 615.198025 360.112328 
L 614.191748 358.599844 
L 612.18679 355.58672 
L 610.717211 353.377757 
L 608.282134 349.717762 
L 605.132596 343.352896 
L 604.34588 341.763009 
L 602.968113 340.037972 
L 599.103124 335.201676 
L 598.966257 335.004231 
L 597.474689 333.186072 
L 596.979803 332.47263 
L 596.718999 332.096787 
L 596.11921 331.232119 
L 593.92252 328.066529 
L 593.204438 327.009238 
L 592.485654 325.950942 
L 591.670812 324.751279 
L 591.575456 324.610833 
L 590.721189 323.353029 
L 590.200796 322.586871 
L 590.155436 322.520174 
L 589.044742 321.060858 
L 589.012472 321.016689 
L 588.280196 320.334702 
L 587.356958 319.560017 
L 585.798814 318.021386 
L 584.460835 316.384988 
L 583.532272 315.271207 
L 581.562654 312.90865 
L 580.506625 311.811201 
L 578.221373 309.436674 
L 578.216767 309.431682 
L 577.079367 308.249812 
L 560.453004 293.015036 
L 560.420095 292.747915 
L 555.750383 288.973855 
L 554.121699 287.657768 
L 552.317638 285.45955 
L 550.806877 284.39843 
L 549.139241 283.25781 
L 544.929118 280.378244 
L 543.274174 279.016892 
L 539.778619 276.21486 
L 536.215004 273.584299 
L 536.088639 273.490154 
L 530.92798 269.671227 
L 530.706886 269.507814 
L 526.323855 266.613292 
L 521.923088 263.717558 
L 520.372874 262.62656 
L 518.825385 261.709754 
L 517.997879 261.219527 
L 509.032215 255.762897 
L 503.54091 252.421319 
L 504.209388 250.752581 
L 504.335847 250.437008 
L 492.730232 245.912037 
L 480.984611 241.333079 
L 480.80739 241.264046 
L 479.434278 240.729667 
L 472.966111 238.207365 
L 472.390559 237.998809 
L 471.925325 237.830228 
L 470.646348 237.352902 
L 469.20534 236.823675 
L 467.85964 236.332914 
L 467.774845 236.302574 
L 466.365923 235.786738 
L 466.265649 235.750505 
L 464.910574 235.253905 
L 464.673388 235.165686 
L 463.47617 234.728901 
L 463.39666 234.699731 
L 463.078615 234.582795 
L 462.058593 234.209429 
L 461.013301 233.828669 
L 460.61258 233.685606 
L 459.179208 233.157619 
L 458.122147 232.770048 
L 457.653891 232.598425 
L 456.236276 232.082034 
L 454.741917 231.530811 
L 454.682192 231.51068 
L 454.511583 231.450112 
L 454.007491 231.260682 
L 453.949991 231.237275 
L 451.597255 230.363434 
L 450.57074 229.984786 
L 450.202198 229.847031 
L 449.823597 229.707099 
L 448.766796 229.316485 
L 448.398163 229.178564 
L 447.343643 228.787567 
L 447.126058 228.712225 
L 446.451145 228.460544 
L 445.894534 228.255184 
L 444.47917 227.734111 
L 443.042277 227.201915 
L 443.009014 227.189496 
L 441.631493 226.681013 
L 440.188367 226.147338 
L 439.774722 225.991206 
L 439.097113 225.740952 
L 438.732776 225.610095 
L 437.339443 225.092424 
L 435.966147 224.583789 
L 433.03213 223.501895 
L 432.848018 223.4286 
L 432.511229 223.304755 
L 432.172431 223.178061 
L 432.076204 223.144985 
L 429.053255 222.030914 
L 429.03797 222.025318 
L 428.960404 221.99692 
L 427.548183 221.486469 
L 426.116074 220.978895 
L 424.666783 220.461217 
L 423.224701 219.943481 
L 421.772526 219.426212 
L 420.330721 218.905759 
L 418.900619 218.38924 
L 417.462768 217.879942 
L 416.024234 217.362329 
L 414.581006 216.843542 
L 414.468264 216.803919 
L 413.147226 216.330519 
L 411.715682 215.819071 
L 410.281139 215.306414 
L 408.835382 214.793395 
L 407.404928 214.281855 
L 405.101875 213.45701 
L 404.292244 213.168521 
L 403.498411 212.884899 
L 400.497082 211.810732 
L 399.981803 211.616069 
L 398.544852 211.099165 
L 397.109628 210.596346 
L 396.620032 210.421147 
L 395.669502 210.078071 
L 394.233533 209.56822 
L 392.634281 208.996065 
L 391.905911 209.002122 
L 390.837107 209.010639 
L 390.335451 209.014271 
L 389.705601 209.028181 
L 383.990771 207.771143 
L 378.117872 206.667428 
L 372.157067 205.520359 
L 366.114128 204.359159 
L 364.957311 204.135527 
L 359.446553 204.51024 
L 357.917487 204.605169 
L 352.636615 204.97423 
L 351.725391 205.036244 
L 349.904693 205.158627 
L 348.104336 205.279663 
L 346.919726 205.360916 
L 346.29789 205.401683 
L 343.662033 205.577342 
L 342.68853 205.635725 
L 340.860319 205.763999 
L 339.095555 205.882302 
L 337.29253 206.001229 
L 335.271664 206.133155 
L 333.37492 206.25488 
L 329.350465 206.520805 
L 323.410788 206.909091 
L 317.455232 207.29643 
L 313.603915 207.557829 
L 307.134187 208.012058 
L 292.361938 209.049659 
L 291.043577 209.142259 
L 289.690559 209.237367 
L 288.369657 209.330114 
L 286.976895 209.428009 
L 284.043155 209.634199 
L 282.269727 209.758876 
L 280.109363 209.9108 
L 277.32928 203.182729 
L 269.970988 185.37706 
L 268.92999 182.866514 
L 268.422807 181.639751 
L 266.240805 176.361384 
L 263.276181 169.190709 
L 263.194397 169.00371 
L 262.683608 169.339501 
L 262.553483 169.42503 
L 262.229258 169.63815 
L 262.157413 169.685392 
L 243.910083 181.680648 
L 242.239917 182.697257 
L 240.084427 184.137686 
L 235.264898 187.290323 
L 226.837307 192.753461 
L 226.1983 193.173183 
L 225.536998 193.602299 
L 225.532964 193.604899 
L 218.192597 198.335426 
L 207.971771 205.001154 
L 203.775757 207.71909 
L 203.21857 208.079992 
L 201.497527 209.194774 
L 198.05561 211.410837 
L 192.67396 214.896843 
L 191.562984 215.625068 
L 191.39144 215.737509 
L 187.275009 218.387279 
L 186.23524 219.066066 
L 184.28941 220.368547 
L 171.30343 228.822909 
L 169.984164 229.655399 
L 166.786252 232.173163 
L 166.25759 232.819581 
L 164.14905 235.043385 
L 163.491791 235.736558 
L 158.395537 241.111569 
L 155.253071 245.329176 
L 154.258215 246.902799 
L 152.984676 248.917254 
L 152.419336 250.054874 
L 151.04284 252.824593 
L 150.747506 253.54002 
L 150.411665 254.403839 
L 150.22483 254.870545 
L 150.085818 255.209963 
L 149.947997 255.40777 
L 149.442175 256.133155 
L 149.313907 256.317069 
L 148.985573 257.267555 
L 149.021608 258.221682 
L 148.386242 260.571885 
L 148.069914 261.738624 
L 147.398699 264.134993 
L 146.879992 265.856101 
L 146.073059 268.650839 
L 145.584601 270.207445 
L 145.180059 271.573417 
L 143.364248 271.386392 
L 142.159311 275.391356 
L 141.558351 277.420849 
L 140.347408 281.509962 
L 140.162056 282.139318 
L 139.624676 283.869844 
L 139.072931 285.853745 
L 138.969102 286.154414 
L 135.135041 286.470778 
L 129.822295 286.860206 
L 128.023057 292.4762 
L 128.011191 292.513187 
L 127.948044 292.710191 
L 127.740612 293.357706 
L 121.213339 291.293178 
L 121.141379 291.805433 
L 121.112681 292.010384 
L 121.092534 292.153928 
L 121.053785 292.429672 
L 120.141089 296.73739 
L 120.096707 296.991399 
L 120.047288 297.203505 
L 119.40181 299.97431 
L 118.969941 301.584774 
L 118.527619 303.432374 
L 118.494937 303.621252 
L 118.280641 305.022776 
L 117.930758 306.964771 
L 117.827274 307.53909 
L 117.795668 307.714595 
L 117.779951 307.798349 
L 117.638594 308.552727 
L 117.450952 309.700361 
L 117.308707 310.880456 
L 117.146515 312.354608 
L 116.968325 313.410967 
L 116.924117 313.673052 
L 116.85984 314.634909 
L 116.831947 315.797792 
L 116.872515 317.315282 
L 117.153517 319.457395 
L 117.093948 321.445982 
L 116.688558 323.829987 
L 116.87978 326.810682 
L 116.963836 328.120781 
L 116.950231 328.46224 
L 118.142194 332.267749 
L 118.512262 334.906217 
L 118.95551 337.906336 
L 118.689791 337.942732 
L 119.647025 344.443284 
L 119.910585 344.413312 
L 120.030377 345.180118 
L 120.315865 345.115753 
L 120.781005 345.001163 
L 120.848046 345.454104 
L 120.859907 345.534044 
L 121.419693 345.716534 
L 121.430505 346.158331 
L 121.437479 346.441699 
L 121.073432 346.21953 
L 119.95482 346.122145 
L 119.607958 346.091969 
L 119.320337 346.06692 
L 119.194692 346.115409 
L 119.064403 346.169013 
L 118.933438 346.222717 
L 118.798187 346.278382 
L 118.41604 346.514865 
L 118.298585 351.900059 
L 118.287782 352.395036 
L 118.19002 356.880711 
L 118.183468 357.178396 
L 118.180628 357.349977 
L 118.178576 357.474345 
L 118.169524 358.012229 
L 118.168624 358.066247 
L 118.166623 358.188999 
L 118.161791 358.443364 
L 118.160494 358.514823 
L 118.034158 365.196349 
L 117.980984 368.009668 
L 117.979717 368.07849 
L 117.424421 367.979077 
L 117.314291 368.914437 
L 117.248088 369.33252 
L 117.006385 370.58683 
L 118.93647 370.697169 
L 118.911644 371.796295 
L 117.744621 375.017853 
L 117.269938 376.613664 
L 117.009128 378.229958 
L 116.482377 382.283353 
L 116.316247 383.560898 
L 116.398781 383.556518 
L 116.560038 383.548094 
L 116.52889 383.821723 
L 116.490852 384.155024 
L 116.290999 385.910428 
L 116.289278 385.925431 
L 117.826796 386.088959 
L 117.641203 387.849078 
L 116.030365 387.692032 
L 115.376797 393.693092 
L 115.363636 393.813528 
L 116.856064 394.153779 
L 117.45878 394.291221 
L 117.46381 394.292391 
L 117.994254 394.421922 
L 120.06644 394.634965 
L 124.169376 394.538636 
L 124.531078 394.530151 
L 126.134591 394.671057 
L 127.346234 394.858336 
L 128.258266 395.167081 
L 130.123522 395.702327 
L 131.050613 395.70624 
L 131.339764 395.644186 
L 132.049126 395.491718 
L 133.000684 395.153779 
L 133.153765 395.099528 
L 133.250175 395.065266 
L 133.329774 395.018177 
L 133.871339 394.697912 
L 134.216264 394.493934 
L 134.540163 394.401982 
L 134.71763 396.589491 
L 134.735703 396.812079 
L 134.731435 396.855283 
L 134.541889 398.709189 
L 134.574558 398.725848 
L 134.563357 398.911636 
L 134.51623 398.925556 
L 134.471651 399.323707 
L 134.421461 399.721211 
L 134.365656 400.117983 
L 134.304233 400.513853 
L 134.237563 400.910258 
L 134.165189 401.305679 
L 134.08728 401.700111 
L 134.003747 402.093301 
L 133.949919 402.297251 
L 133.894152 402.50983 
L 133.78055 402.844468 
L 133.682215 403.183121 
L 133.576533 403.559686 
L 133.423076 403.83028 
L 133.469235 403.867319 
L 135.284552 405.323748 
L 140.50617 409.593046 
L 142.158308 410.943841 
L 150.932791 417.872227 
L 151.528232 418.332845 
L 155.210465 421.243594 
L 162.093168 426.684482 
" clip-path="url(#p3c001b1790)" style="fill: #d3d3d3"/>
   </g>
   <g id="matplotlib.axis_1">
    <g id="xtick_1">
     <g id="line2d_1">
      <defs>
       <path id="m2901b87eb9" d="M 0 0 
L 0 3.5 
" style="stroke: #000000; stroke-width: 0.8"/>
      </defs>
      <g>
       <use xlink:href="#m2901b87eb9" x="118.471198" y="577.655919" style="stroke: #000000; stroke-width: 0.8"/>
      </g>
     </g>
     <g id="text_1">
      <!-- 13.48 -->
      <g transform="translate(104.157135 592.254356) scale(0.1 -0.1)">
       <defs>
        <path id="DejaVuSans-31" d="M 794 531 
L 1825 531 
L 1825 4091 
L 703 3866 
L 703 4441 
L 1819 4666 
L 2450 4666 
L 2450 531 
L 3481 531 
L 3481 0 
L 794 0 
L 794 531 
z
" transform="scale(0.015625)"/>
        <path id="DejaVuSans-33" d="M 2597 2516 
Q 3050 2419 3304 2112 
Q 3559 1806 3559 1356 
Q 3559 666 3084 287 
Q 2609 -91 1734 -91 
Q 1441 -91 1130 -33 
Q 819 25 488 141 
L 488 750 
Q 750 597 1062 519 
Q 1375 441 1716 441 
Q 2309 441 2620 675 
Q 2931 909 2931 1356 
Q 2931 1769 2642 2001 
Q 2353 2234 1838 2234 
L 1294 2234 
L 1294 2753 
L 1863 2753 
Q 2328 2753 2575 2939 
Q 2822 3125 2822 3475 
Q 2822 3834 2567 4026 
Q 2313 4219 1838 4219 
Q 1578 4219 1281 4162 
Q 984 4106 628 3988 
L 628 4550 
Q 988 4650 1302 4700 
Q 1616 4750 1894 4750 
Q 2613 4750 3031 4423 
Q 3450 4097 3450 3541 
Q 3450 3153 3228 2886 
Q 3006 2619 2597 2516 
z
" transform="scale(0.015625)"/>
        <path id="DejaVuSans-2e" d="M 684 794 
L 1344 794 
L 1344 0 
L 684 0 
L 684 794 
z
" transform="scale(0.015625)"/>
        <path id="DejaVuSans-34" d="M 2419 4116 
L 825 1625 
L 2419 1625 
L 2419 4116 
z
M 2253 4666 
L 3047 4666 
L 3047 1625 
L 3713 1625 
L 3713 1100 
L 3047 1100 
L 3047 0 
L 2419 0 
L 2419 1100 
L 313 1100 
L 313 1709 
L 2253 4666 
z
" transform="scale(0.015625)"/>
        <path id="DejaVuSans-38" d="M 2034 2216 
Q 1584 2216 1326 1975 
Q 1069 1734 1069 1313 
Q 1069 891 1326 650 
Q 1584 409 2034 409 
Q 2484 409 2743 651 
Q 3003 894 3003 1313 
Q 3003 1734 2745 1975 
Q 2488 2216 2034 2216 
z
M 1403 2484 
Q 997 2584 770 2862 
Q 544 3141 544 3541 
Q 544 4100 942 4425 
Q 1341 4750 2034 4750 
Q 2731 4750 3128 4425 
Q 3525 4100 3525 3541 
Q 3525 3141 3298 2862 
Q 3072 2584 2669 2484 
Q 3125 2378 3379 2068 
Q 3634 1759 3634 1313 
Q 3634 634 3220 271 
Q 2806 -91 2034 -91 
Q 1263 -91 848 271 
Q 434 634 434 1313 
Q 434 1759 690 2068 
Q 947 2378 1403 2484 
z
M 1172 3481 
Q 1172 3119 1398 2916 
Q 1625 2713 2034 2713 
Q 2441 2713 2670 2916 
Q 2900 3119 2900 3481 
Q 2900 3844 2670 4047 
Q 2441 4250 2034 4250 
Q 1625 4250 1398 4047 
Q 1172 3844 1172 3481 
z
" transform="scale(0.015625)"/>
       </defs>
       <use xlink:href="#DejaVuSans-31"/>
       <use xlink:href="#DejaVuSans-33" x="63.623047"/>
       <use xlink:href="#DejaVuSans-2e" x="127.246094"/>
       <use xlink:href="#DejaVuSans-34" x="159.033203"/>
       <use xlink:href="#DejaVuSans-38" x="222.65625"/>
      </g>
     </g>
    </g>
    <g id="xtick_2">
     <g id="line2d_2">
      <g>
       <use xlink:href="#m2901b87eb9" x="233.439897" y="577.655919" style="stroke: #000000; stroke-width: 0.8"/>
      </g>
     </g>
     <g id="text_2">
      <!-- 13.50 -->
      <g transform="translate(219.125835 592.254356) scale(0.1 -0.1)">
       <defs>
        <path id="DejaVuSans-35" d="M 691 4666 
L 3169 4666 
L 3169 4134 
L 1269 4134 
L 1269 2991 
Q 1406 3038 1543 3061 
Q 1681 3084 1819 3084 
Q 2600 3084 3056 2656 
Q 3513 2228 3513 1497 
Q 3513 744 3044 326 
Q 2575 -91 1722 -91 
Q 1428 -91 1123 -41 
Q 819 9 494 109 
L 494 744 
Q 775 591 1075 516 
Q 1375 441 1709 441 
Q 2250 441 2565 725 
Q 2881 1009 2881 1497 
Q 2881 1984 2565 2268 
Q 2250 2553 1709 2553 
Q 1456 2553 1204 2497 
Q 953 2441 691 2322 
L 691 4666 
z
" transform="scale(0.015625)"/>
        <path id="DejaVuSans-30" d="M 2034 4250 
Q 1547 4250 1301 3770 
Q 1056 3291 1056 2328 
Q 1056 1369 1301 889 
Q 1547 409 2034 409 
Q 2525 409 2770 889 
Q 3016 1369 3016 2328 
Q 3016 3291 2770 3770 
Q 2525 4250 2034 4250 
z
M 2034 4750 
Q 2819 4750 3233 4129 
Q 3647 3509 3647 2328 
Q 3647 1150 3233 529 
Q 2819 -91 2034 -91 
Q 1250 -91 836 529 
Q 422 1150 422 2328 
Q 422 3509 836 4129 
Q 1250 4750 2034 4750 
z
" transform="scale(0.015625)"/>
       </defs>
       <use xlink:href="#DejaVuSans-31"/>
       <use xlink:href="#DejaVuSans-33" x="63.623047"/>
       <use xlink:href="#DejaVuSans-2e" x="127.246094"/>
       <use xlink:href="#DejaVuSans-35" x="159.033203"/>
       <use xlink:href="#DejaVuSans-30" x="222.65625"/>
      </g>
     </g>
    </g>
    <g id="xtick_3">
     <g id="line2d_3">
      <g>
       <use xlink:href="#m2901b87eb9" x="348.408597" y="577.655919" style="stroke: #000000; stroke-width: 0.8"/>
      </g>
     </g>
     <g id="text_3">
      <!-- 13.52 -->
      <g transform="translate(334.094534 592.254356) scale(0.1 -0.1)">
       <defs>
        <path id="DejaVuSans-32" d="M 1228 531 
L 3431 531 
L 3431 0 
L 469 0 
L 469 531 
Q 828 903 1448 1529 
Q 2069 2156 2228 2338 
Q 2531 2678 2651 2914 
Q 2772 3150 2772 3378 
Q 2772 3750 2511 3984 
Q 2250 4219 1831 4219 
Q 1534 4219 1204 4116 
Q 875 4013 500 3803 
L 500 4441 
Q 881 4594 1212 4672 
Q 1544 4750 1819 4750 
Q 2544 4750 2975 4387 
Q 3406 4025 3406 3419 
Q 3406 3131 3298 2873 
Q 3191 2616 2906 2266 
Q 2828 2175 2409 1742 
Q 1991 1309 1228 531 
z
" transform="scale(0.015625)"/>
       </defs>
       <use xlink:href="#DejaVuSans-31"/>
       <use xlink:href="#DejaVuSans-33" x="63.623047"/>
       <use xlink:href="#DejaVuSans-2e" x="127.246094"/>
       <use xlink:href="#DejaVuSans-35" x="159.033203"/>
       <use xlink:href="#DejaVuSans-32" x="222.65625"/>
      </g>
     </g>
    </g>
    <g id="xtick_4">
     <g id="line2d_4">
      <g>
       <use xlink:href="#m2901b87eb9" x="463.377296" y="577.655919" style="stroke: #000000; stroke-width: 0.8"/>
      </g>
     </g>
     <g id="text_4">
      <!-- 13.54 -->
      <g transform="translate(449.063234 592.254356) scale(0.1 -0.1)">
       <use xlink:href="#DejaVuSans-31"/>
       <use xlink:href="#DejaVuSans-33" x="63.623047"/>
       <use xlink:href="#DejaVuSans-2e" x="127.246094"/>
       <use xlink:href="#DejaVuSans-35" x="159.033203"/>
       <use xlink:href="#DejaVuSans-34" x="222.65625"/>
      </g>
     </g>
    </g>
    <g id="xtick_5">
     <g id="line2d_5">
      <g>
       <use xlink:href="#m2901b87eb9" x="578.345996" y="577.655919" style="stroke: #000000; stroke-width: 0.8"/>
      </g>
     </g>
     <g id="text_5">
      <!-- 13.56 -->
      <g transform="translate(564.031933 592.254356) scale(0.1 -0.1)">
       <defs>
        <path id="DejaVuSans-36" d="M 2113 2584 
Q 1688 2584 1439 2293 
Q 1191 2003 1191 1497 
Q 1191 994 1439 701 
Q 1688 409 2113 409 
Q 2538 409 2786 701 
Q 3034 994 3034 1497 
Q 3034 2003 2786 2293 
Q 2538 2584 2113 2584 
z
M 3366 4563 
L 3366 3988 
Q 3128 4100 2886 4159 
Q 2644 4219 2406 4219 
Q 1781 4219 1451 3797 
Q 1122 3375 1075 2522 
Q 1259 2794 1537 2939 
Q 1816 3084 2150 3084 
Q 2853 3084 3261 2657 
Q 3669 2231 3669 1497 
Q 3669 778 3244 343 
Q 2819 -91 2113 -91 
Q 1303 -91 875 529 
Q 447 1150 447 2328 
Q 447 3434 972 4092 
Q 1497 4750 2381 4750 
Q 2619 4750 2861 4703 
Q 3103 4656 3366 4563 
z
" transform="scale(0.015625)"/>
       </defs>
       <use xlink:href="#DejaVuSans-31"/>
       <use xlink:href="#DejaVuSans-33" x="63.623047"/>
       <use xlink:href="#DejaVuSans-2e" x="127.246094"/>
       <use xlink:href="#DejaVuSans-35" x="159.033203"/>
       <use xlink:href="#DejaVuSans-36" x="222.65625"/>
      </g>
     </g>
    </g>
   </g>
   <g id="matplotlib.axis_2">
    <g id="ytick_1">
     <g id="line2d_6">
      <defs>
       <path id="m0f1de7e1ff" d="M 0 0 
L -3.5 0 
" style="stroke: #000000; stroke-width: 0.8"/>
      </defs>
      <g>
       <use xlink:href="#m0f1de7e1ff" x="90" y="513.876352" style="stroke: #000000; stroke-width: 0.8"/>
      </g>
     </g>
     <g id="text_6">
      <!-- 52.56 -->
      <g transform="translate(54.371875 517.675571) scale(0.1 -0.1)">
       <use xlink:href="#DejaVuSans-35"/>
       <use xlink:href="#DejaVuSans-32" x="63.623047"/>
       <use xlink:href="#DejaVuSans-2e" x="127.246094"/>
       <use xlink:href="#DejaVuSans-35" x="159.033203"/>
       <use xlink:href="#DejaVuSans-36" x="222.65625"/>
      </g>
     </g>
    </g>
    <g id="ytick_2">
     <g id="line2d_7">
      <g>
       <use xlink:href="#m0f1de7e1ff" x="90" y="419.294446" style="stroke: #000000; stroke-width: 0.8"/>
      </g>
     </g>
     <g id="text_7">
      <!-- 52.57 -->
      <g transform="translate(54.371875 423.093665) scale(0.1 -0.1)">
       <defs>
        <path id="DejaVuSans-37" d="M 525 4666 
L 3525 4666 
L 3525 4397 
L 1831 0 
L 1172 0 
L 2766 4134 
L 525 4134 
L 525 4666 
z
" transform="scale(0.015625)"/>
       </defs>
       <use xlink:href="#DejaVuSans-35"/>
       <use xlink:href="#DejaVuSans-32" x="63.623047"/>
       <use xlink:href="#DejaVuSans-2e" x="127.246094"/>
       <use xlink:href="#DejaVuSans-35" x="159.033203"/>
       <use xlink:href="#DejaVuSans-37" x="222.65625"/>
      </g>
     </g>
    </g>
    <g id="ytick_3">
     <g id="line2d_8">
      <g>
       <use xlink:href="#m0f1de7e1ff" x="90" y="324.71254" style="stroke: #000000; stroke-width: 0.8"/>
      </g>
     </g>
     <g id="text_8">
      <!-- 52.58 -->
      <g transform="translate(54.371875 328.511759) scale(0.1 -0.1)">
       <use xlink:href="#DejaVuSans-35"/>
       <use xlink:href="#DejaVuSans-32" x="63.623047"/>
       <use xlink:href="#DejaVuSans-2e" x="127.246094"/>
       <use xlink:href="#DejaVuSans-35" x="159.033203"/>
       <use xlink:href="#DejaVuSans-38" x="222.65625"/>
      </g>
     </g>
    </g>
    <g id="ytick_4">
     <g id="line2d_9">
      <g>
       <use xlink:href="#m0f1de7e1ff" x="90" y="230.130634" style="stroke: #000000; stroke-width: 0.8"/>
      </g>
     </g>
     <g id="text_9">
      <!-- 52.59 -->
      <g transform="translate(54.371875 233.929853) scale(0.1 -0.1)">
       <defs>
        <path id="DejaVuSans-39" d="M 703 97 
L 703 672 
Q 941 559 1184 500 
Q 1428 441 1663 441 
Q 2288 441 2617 861 
Q 2947 1281 2994 2138 
Q 2813 1869 2534 1725 
Q 2256 1581 1919 1581 
Q 1219 1581 811 2004 
Q 403 2428 403 3163 
Q 403 3881 828 4315 
Q 1253 4750 1959 4750 
Q 2769 4750 3195 4129 
Q 3622 3509 3622 2328 
Q 3622 1225 3098 567 
Q 2575 -91 1691 -91 
Q 1453 -91 1209 -44 
Q 966 3 703 97 
z
M 1959 2075 
Q 2384 2075 2632 2365 
Q 2881 2656 2881 3163 
Q 2881 3666 2632 3958 
Q 2384 4250 1959 4250 
Q 1534 4250 1286 3958 
Q 1038 3666 1038 3163 
Q 1038 2656 1286 2365 
Q 1534 2075 1959 2075 
z
" transform="scale(0.015625)"/>
       </defs>
       <use xlink:href="#DejaVuSans-35"/>
       <use xlink:href="#DejaVuSans-32" x="63.623047"/>
       <use xlink:href="#DejaVuSans-2e" x="127.246094"/>
       <use xlink:href="#DejaVuSans-35" x="159.033203"/>
       <use xlink:href="#DejaVuSans-39" x="222.65625"/>
      </g>
     </g>
    </g>
   </g>
   <g id="LineCollection_1">
    <path d="M 582.525108 348.260597 
L 578.399456 346.979958 
" clip-path="url(#p3c001b1790)" style="fill: none; stroke: #ff0000; stroke-opacity: 0.7; stroke-width: 0.5"/>
    <path d="M 591.144886 349.806066 
L 592.537157 350.438819 
L 594.194431 351.291947 
L 598.283868 354.882277 
L 602.93895 359.243448 
L 604.770976 360.82202 
L 607.472166 363.007808 
L 610.442382 364.862559 
L 613.771876 366.540442 
L 615.876953 367.61773 
L 616.366145 367.867426 
L 617.297966 368.525716 
L 617.75899 369.200085 
" clip-path="url(#p3c001b1790)" style="fill: none; stroke: #ff0000; stroke-opacity: 0.7; stroke-width: 0.5"/>
    <path d="M 588.674784 320.591607 
L 588.556941 320.799687 
L 587.95278 321.926157 
L 587.767681 322.417037 
L 587.594653 322.876705 
L 587.334249 323.566208 
L 587.145125 324.068437 
L 585.939103 327.267198 
L 584.453708 331.208426 
L 583.297123 334.275717 
L 581.703082 338.409892 
L 580.827595 340.681749 
L 578.864504 345.774039 
L 578.399456 346.979958 
L 576.267362 352.752292 
L 574.936599 356.353971 
L 574.519837 357.438825 
L 572.372797 363.023887 
L 568.544339 372.986199 
L 566.92673 377.194148 
L 565.701738 380.381558 
L 564.852119 382.592883 
L 564.369826 383.689088 
" clip-path="url(#p3c001b1790)" style="fill: none; stroke: #ff0000; stroke-opacity: 0.7; stroke-width: 0.5"/>
    <path d="M 555.0976 387.842179 
L 554.230736 389.852045 
L 553.981254 389.944735 
L 553.88698 390.167002 
L 553.09657 392.228888 
L 552.871231 392.789759 
L 552.348698 394.187679 
L 552.083696 394.897043 
L 551.887674 395.399273 
L 550.63624 398.719098 
L 550.364914 399.470079 
L 548.551857 403.934345 
L 547.681544 406.172153 
L 546.824452 408.287004 
L 546.719831 408.898003 
L 545.05106 413.426585 
L 544.542324 414.810318 
L 544.183047 415.806265 
L 543.758812 416.840046 
L 543.390337 417.704524 
L 543.206962 418.154734 
L 542.94081 418.807349 
L 543.462193 420.19392 
L 543.588658 420.515499 
L 543.787554 421.021512 
" clip-path="url(#p3c001b1790)" style="fill: none; stroke: #ff0000; stroke-opacity: 0.7; stroke-width: 0.5"/>
    <path d="M 555.0976 387.842179 
L 558.510446 386.576673 
L 562.210139 385.205236 
L 562.525728 385.087954 
L 562.84649 385.090791 
L 563.282797 385.23361 
L 563.608733 385.340488 
" clip-path="url(#p3c001b1790)" style="fill: none; stroke: #ff0000; stroke-opacity: 0.7; stroke-width: 0.5"/>
    <path d="M 550.230975 414.675066 
L 544.375044 416.999889 
L 544.206615 416.986648 
L 543.758812 416.840046 
" clip-path="url(#p3c001b1790)" style="fill: none; stroke: #ff0000; stroke-opacity: 0.7; stroke-width: 0.5"/>
    <path d="M 554.230736 389.852045 
L 558.037925 391.353059 
" clip-path="url(#p3c001b1790)" style="fill: none; stroke: #ff0000; stroke-opacity: 0.7; stroke-width: 0.5"/>
    <path d="M 540.071766 411.570888 
L 545.05106 413.426585 
" clip-path="url(#p3c001b1790)" style="fill: none; stroke: #ff0000; stroke-opacity: 0.7; stroke-width: 0.5"/>
    <path d="M 541.766979 406.981774 
L 546.719831 408.898003 
" clip-path="url(#p3c001b1790)" style="fill: none; stroke: #ff0000; stroke-opacity: 0.7; stroke-width: 0.5"/>
    <path d="M 543.774333 402.102293 
L 548.551857 403.934345 
L 549.133599 404.150937 
L 552.671761 405.503458 
" clip-path="url(#p3c001b1790)" style="fill: none; stroke: #ff0000; stroke-opacity: 0.7; stroke-width: 0.5"/>
    <path d="M 545.518983 397.596411 
L 550.364914 399.470079 
L 550.815591 399.645055 
L 554.396866 400.960689 
" clip-path="url(#p3c001b1790)" style="fill: none; stroke: #ff0000; stroke-opacity: 0.7; stroke-width: 0.5"/>
    <path d="M 574.383599 345.754177 
L 578.03788 346.847544 
L 578.399456 346.979958 
" clip-path="url(#p3c001b1790)" style="fill: none; stroke: #ff0000; stroke-opacity: 0.7; stroke-width: 0.5"/>
    <path d="M 539.025551 311.82481 
L 540.139597 312.570115 
L 544.069802 315.438784 
L 554.662444 325.859819 
L 563.959962 333.998592 
L 564.845796 334.764705 
L 565.478124 335.104254 
L 565.960418 335.28396 
L 566.17196 335.276393 
L 566.351311 335.211132 
L 566.870395 335.098579 
L 567.452711 335.077771 
" clip-path="url(#p3c001b1790)" style="fill: none; stroke: #ff0000; stroke-opacity: 0.7; stroke-width: 0.5"/>
    <path d="M 581.785859 396.190924 
L 581.72895 395.261184 
L 581.696184 394.726796 
" clip-path="url(#p3c001b1790)" style="fill: none; stroke: #ff0000; stroke-opacity: 0.7; stroke-width: 0.5"/>
    <path d="M 582.709633 406.038792 
L 582.383122 405.20458 
L 582.310116 404.950154 
L 581.785859 396.190924 
" clip-path="url(#p3c001b1790)" style="fill: none; stroke: #ff0000; stroke-opacity: 0.7; stroke-width: 0.5"/>
    <path d="M 581.696184 394.726796 
L 581.676639 394.433592 
L 581.461647 390.825292 
L 581.424857 390.212402 
L 581.110993 384.98486 
L 581.071329 384.323732 
L 580.762638 378.863519 
L 580.729297 378.764208 
L 580.62525 378.453033 
" clip-path="url(#p3c001b1790)" style="fill: none; stroke: #ff0000; stroke-opacity: 0.7; stroke-width: 0.5"/>
    <path d="M 564.369826 383.689088 
L 563.893855 384.727597 
L 563.700133 385.144703 
L 563.608733 385.340488 
L 563.111493 386.432909 
L 562.526877 387.935815 
L 560.942034 392.007566 
L 560.3327 393.573843 
L 560.017686 394.383464 
L 559.769353 395.021892 
L 559.257742 396.33658 
L 559.004811 396.986358 
L 558.814538 397.475346 
L 558.653007 397.900019 
L 557.186006 401.758961 
L 556.628408 403.225926 
L 556.49217 403.580608 
L 555.467799 406.274301 
L 555.031493 407.422525 
L 554.972859 407.575748 
L 554.942392 407.745995 
L 554.917674 407.882193 
L 554.894105 408.012716 
L 554.882034 408.171614 
L 554.856166 408.501705 
L 554.91365 408.914082 
L 554.920548 408.965156 
L 555.322364 410.107706 
L 555.514936 410.654389 
L 555.614959 410.939081 
L 556.344436 413.012316 
L 556.82443 414.377133 
L 557.104954 415.174458 
L 557.366507 415.79397 
" clip-path="url(#p3c001b1790)" style="fill: none; stroke: #ff0000; stroke-opacity: 0.7; stroke-width: 0.5"/>
    <path d="M 573.156309 343.208032 
L 573.820828 344.799845 
L 574.028921 345.35315 
L 574.383599 345.754177 
" clip-path="url(#p3c001b1790)" style="fill: none; stroke: #ff0000; stroke-opacity: 0.7; stroke-width: 0.5"/>
    <path d="M 435.608906 500.338844 
L 435.964734 500.616915 
L 436.205019 500.805133 
L 436.209043 500.808916 
L 437.130517 501.530576 
" clip-path="url(#p3c001b1790)" style="fill: none; stroke: #ff0000; stroke-opacity: 0.7; stroke-width: 0.5"/>
   </g>
   <g id="patch_3">
    <path d="M 90 577.655919 
L 90 149.544081 
" style="fill: none; stroke: #000000; stroke-width: 0.8; stroke-linejoin: miter; stroke-linecap: square"/>
   </g>
   <g id="patch_4">
    <path d="M 648 577.655919 
L 648 149.544081 
" style="fill: none; stroke: #000000; stroke-width: 0.8; stroke-linejoin: miter; stroke-linecap: square"/>
   </g>
   <g id="patch_5">
    <path d="M 90 577.655919 
L 648 577.655919 
" style="fill: none; stroke: #000000; stroke-width: 0.8; stroke-linejoin: miter; stroke-linecap: square"/>
   </g>
   <g id="patch_6">
    <path d="M 90 149.544081 
L 648 149.544081 
" style="fill: none; stroke: #000000; stroke-width: 0.8; stroke-linejoin: miter; stroke-linecap: square"/>
   </g>
   <g id="text_10">
    <!-- Hohenschönhausen_Nord -->
    <g transform="translate(266.771073 361.209486) scale(0.12 -0.12)">
     <defs>
      <path id="DejaVuSans-48" d="M 628 4666 
L 1259 4666 
L 1259 2753 
L 3553 2753 
L 3553 4666 
L 4184 4666 
L 4184 0 
L 3553 0 
L 3553 2222 
L 1259 2222 
L 1259 0 
L 628 0 
L 628 4666 
z
" transform="scale(0.015625)"/>
      <path id="DejaVuSans-6f" d="M 1959 3097 
Q 1497 3097 1228 2736 
Q 959 2375 959 1747 
Q 959 1119 1226 758 
Q 1494 397 1959 397 
Q 2419 397 2687 759 
Q 2956 1122 2956 1747 
Q 2956 2369 2687 2733 
Q 2419 3097 1959 3097 
z
M 1959 3584 
Q 2709 3584 3137 3096 
Q 3566 2609 3566 1747 
Q 3566 888 3137 398 
Q 2709 -91 1959 -91 
Q 1206 -91 779 398 
Q 353 888 353 1747 
Q 353 2609 779 3096 
Q 1206 3584 1959 3584 
z
" transform="scale(0.015625)"/>
      <path id="DejaVuSans-68" d="M 3513 2113 
L 3513 0 
L 2938 0 
L 2938 2094 
Q 2938 2591 2744 2837 
Q 2550 3084 2163 3084 
Q 1697 3084 1428 2787 
Q 1159 2491 1159 1978 
L 1159 0 
L 581 0 
L 581 4863 
L 1159 4863 
L 1159 2956 
Q 1366 3272 1645 3428 
Q 1925 3584 2291 3584 
Q 2894 3584 3203 3211 
Q 3513 2838 3513 2113 
z
" transform="scale(0.015625)"/>
      <path id="DejaVuSans-65" d="M 3597 1894 
L 3597 1613 
L 953 1613 
Q 991 1019 1311 708 
Q 1631 397 2203 397 
Q 2534 397 2845 478 
Q 3156 559 3463 722 
L 3463 178 
Q 3153 47 2828 -22 
Q 2503 -91 2169 -91 
Q 1331 -91 842 396 
Q 353 884 353 1716 
Q 353 2575 817 3079 
Q 1281 3584 2069 3584 
Q 2775 3584 3186 3129 
Q 3597 2675 3597 1894 
z
M 3022 2063 
Q 3016 2534 2758 2815 
Q 2500 3097 2075 3097 
Q 1594 3097 1305 2825 
Q 1016 2553 972 2059 
L 3022 2063 
z
" transform="scale(0.015625)"/>
      <path id="DejaVuSans-6e" d="M 3513 2113 
L 3513 0 
L 2938 0 
L 2938 2094 
Q 2938 2591 2744 2837 
Q 2550 3084 2163 3084 
Q 1697 3084 1428 2787 
Q 1159 2491 1159 1978 
L 1159 0 
L 581 0 
L 581 3500 
L 1159 3500 
L 1159 2956 
Q 1366 3272 1645 3428 
Q 1925 3584 2291 3584 
Q 2894 3584 3203 3211 
Q 3513 2838 3513 2113 
z
" transform="scale(0.015625)"/>
      <path id="DejaVuSans-73" d="M 2834 3397 
L 2834 2853 
Q 2591 2978 2328 3040 
Q 2066 3103 1784 3103 
Q 1356 3103 1142 2972 
Q 928 2841 928 2578 
Q 928 2378 1081 2264 
Q 1234 2150 1697 2047 
L 1894 2003 
Q 2506 1872 2764 1633 
Q 3022 1394 3022 966 
Q 3022 478 2636 193 
Q 2250 -91 1575 -91 
Q 1294 -91 989 -36 
Q 684 19 347 128 
L 347 722 
Q 666 556 975 473 
Q 1284 391 1588 391 
Q 1994 391 2212 530 
Q 2431 669 2431 922 
Q 2431 1156 2273 1281 
Q 2116 1406 1581 1522 
L 1381 1569 
Q 847 1681 609 1914 
Q 372 2147 372 2553 
Q 372 3047 722 3315 
Q 1072 3584 1716 3584 
Q 2034 3584 2315 3537 
Q 2597 3491 2834 3397 
z
" transform="scale(0.015625)"/>
      <path id="DejaVuSans-63" d="M 3122 3366 
L 3122 2828 
Q 2878 2963 2633 3030 
Q 2388 3097 2138 3097 
Q 1578 3097 1268 2742 
Q 959 2388 959 1747 
Q 959 1106 1268 751 
Q 1578 397 2138 397 
Q 2388 397 2633 464 
Q 2878 531 3122 666 
L 3122 134 
Q 2881 22 2623 -34 
Q 2366 -91 2075 -91 
Q 1284 -91 818 406 
Q 353 903 353 1747 
Q 353 2603 823 3093 
Q 1294 3584 2113 3584 
Q 2378 3584 2631 3529 
Q 2884 3475 3122 3366 
z
" transform="scale(0.015625)"/>
      <path id="DejaVuSans-f6" d="M 1959 3097 
Q 1497 3097 1228 2736 
Q 959 2375 959 1747 
Q 959 1119 1226 758 
Q 1494 397 1959 397 
Q 2419 397 2687 759 
Q 2956 1122 2956 1747 
Q 2956 2369 2687 2733 
Q 2419 3097 1959 3097 
z
M 1959 3584 
Q 2709 3584 3137 3096 
Q 3566 2609 3566 1747 
Q 3566 888 3137 398 
Q 2709 -91 1959 -91 
Q 1206 -91 779 398 
Q 353 888 353 1747 
Q 353 2609 779 3096 
Q 1206 3584 1959 3584 
z
M 2254 4850 
L 2888 4850 
L 2888 4219 
L 2254 4219 
L 2254 4850 
z
M 1032 4850 
L 1666 4850 
L 1666 4219 
L 1032 4219 
L 1032 4850 
z
" transform="scale(0.015625)"/>
      <path id="DejaVuSans-61" d="M 2194 1759 
Q 1497 1759 1228 1600 
Q 959 1441 959 1056 
Q 959 750 1161 570 
Q 1363 391 1709 391 
Q 2188 391 2477 730 
Q 2766 1069 2766 1631 
L 2766 1759 
L 2194 1759 
z
M 3341 1997 
L 3341 0 
L 2766 0 
L 2766 531 
Q 2569 213 2275 61 
Q 1981 -91 1556 -91 
Q 1019 -91 701 211 
Q 384 513 384 1019 
Q 384 1609 779 1909 
Q 1175 2209 1959 2209 
L 2766 2209 
L 2766 2266 
Q 2766 2663 2505 2880 
Q 2244 3097 1772 3097 
Q 1472 3097 1187 3025 
Q 903 2953 641 2809 
L 641 3341 
Q 956 3463 1253 3523 
Q 1550 3584 1831 3584 
Q 2591 3584 2966 3190 
Q 3341 2797 3341 1997 
z
" transform="scale(0.015625)"/>
      <path id="DejaVuSans-75" d="M 544 1381 
L 544 3500 
L 1119 3500 
L 1119 1403 
Q 1119 906 1312 657 
Q 1506 409 1894 409 
Q 2359 409 2629 706 
Q 2900 1003 2900 1516 
L 2900 3500 
L 3475 3500 
L 3475 0 
L 2900 0 
L 2900 538 
Q 2691 219 2414 64 
Q 2138 -91 1772 -91 
Q 1169 -91 856 284 
Q 544 659 544 1381 
z
M 1991 3584 
L 1991 3584 
z
" transform="scale(0.015625)"/>
      <path id="DejaVuSans-5f" d="M 3263 -1063 
L 3263 -1509 
L -63 -1509 
L -63 -1063 
L 3263 -1063 
z
" transform="scale(0.015625)"/>
      <path id="DejaVuSans-4e" d="M 628 4666 
L 1478 4666 
L 3547 763 
L 3547 4666 
L 4159 4666 
L 4159 0 
L 3309 0 
L 1241 3903 
L 1241 0 
L 628 0 
L 628 4666 
z
" transform="scale(0.015625)"/>
      <path id="DejaVuSans-72" d="M 2631 2963 
Q 2534 3019 2420 3045 
Q 2306 3072 2169 3072 
Q 1681 3072 1420 2755 
Q 1159 2438 1159 1844 
L 1159 0 
L 581 0 
L 581 3500 
L 1159 3500 
L 1159 2956 
Q 1341 3275 1631 3429 
Q 1922 3584 2338 3584 
Q 2397 3584 2469 3576 
Q 2541 3569 2628 3553 
L 2631 2963 
z
" transform="scale(0.015625)"/>
      <path id="DejaVuSans-64" d="M 2906 2969 
L 2906 4863 
L 3481 4863 
L 3481 0 
L 2906 0 
L 2906 525 
Q 2725 213 2448 61 
Q 2172 -91 1784 -91 
Q 1150 -91 751 415 
Q 353 922 353 1747 
Q 353 2572 751 3078 
Q 1150 3584 1784 3584 
Q 2172 3584 2448 3432 
Q 2725 3281 2906 2969 
z
M 947 1747 
Q 947 1113 1208 752 
Q 1469 391 1925 391 
Q 2381 391 2643 752 
Q 2906 1113 2906 1747 
Q 2906 2381 2643 2742 
Q 2381 3103 1925 3103 
Q 1469 3103 1208 2742 
Q 947 2381 947 1747 
z
" transform="scale(0.015625)"/>
     </defs>
     <use xlink:href="#DejaVuSans-48"/>
     <use xlink:href="#DejaVuSans-6f" x="75.195312"/>
     <use xlink:href="#DejaVuSans-68" x="136.376953"/>
     <use xlink:href="#DejaVuSans-65" x="199.755859"/>
     <use xlink:href="#DejaVuSans-6e" x="261.279297"/>
     <use xlink:href="#DejaVuSans-73" x="324.658203"/>
     <use xlink:href="#DejaVuSans-63" x="376.757812"/>
     <use xlink:href="#DejaVuSans-68" x="431.738281"/>
     <use xlink:href="#DejaVuSans-f6" x="495.117188"/>
     <use xlink:href="#DejaVuSans-6e" x="556.298828"/>
     <use xlink:href="#DejaVuSans-68" x="619.677734"/>
     <use xlink:href="#DejaVuSans-61" x="683.056641"/>
     <use xlink:href="#DejaVuSans-75" x="744.335938"/>
     <use xlink:href="#DejaVuSans-73" x="807.714844"/>
     <use xlink:href="#DejaVuSans-65" x="859.814453"/>
     <use xlink:href="#DejaVuSans-6e" x="921.337891"/>
     <use xlink:href="#DejaVuSans-5f" x="984.716797"/>
     <use xlink:href="#DejaVuSans-4e" x="1034.716797"/>
     <use xlink:href="#DejaVuSans-6f" x="1109.521484"/>
     <use xlink:href="#DejaVuSans-72" x="1170.703125"/>
     <use xlink:href="#DejaVuSans-64" x="1210.066406"/>
    </g>
   </g>
  </g>
 </g>
 <defs>
  <clipPath id="p3c001b1790">
   <rect x="90" y="149.544081" width="558" height="428.111838"/>
  </clipPath>
 </defs>
</svg>
