<?xml version="1.0" encoding="utf-8" standalone="no"?>
<!DOCTYPE svg PUBLIC "-//W3C//DTD SVG 1.1//EN"
  "http://www.w3.org/Graphics/SVG/1.1/DTD/svg11.dtd">
<svg xmlns:xlink="http://www.w3.org/1999/xlink" width="720pt" height="720pt" viewBox="0 0 720 720" xmlns="http://www.w3.org/2000/svg" version="1.1">
 <metadata>
  <rdf:RDF xmlns:dc="http://purl.org/dc/elements/1.1/" xmlns:cc="http://creativecommons.org/ns#" xmlns:rdf="http://www.w3.org/1999/02/22-rdf-syntax-ns#">
   <cc:Work>
    <dc:type rdf:resource="http://purl.org/dc/dcmitype/StillImage"/>
    <dc:date>2024-10-17T11:36:12.233204</dc:date>
    <dc:format>image/svg+xml</dc:format>
    <dc:creator>
     <cc:Agent>
      <dc:title>Matplotlib v3.9.2, https://matplotlib.org/</dc:title>
     </cc:Agent>
    </dc:creator>
   </cc:Work>
  </rdf:RDF>
 </metadata>
 <defs>
  <style type="text/css">*{stroke-linejoin: round; stroke-linecap: butt}</style>
 </defs>
 <g id="figure_1">
  <g id="patch_1">
   <path d="M 0 720 
L 720 720 
L 720 0 
L 0 0 
z
" style="fill: #ffffff"/>
  </g>
  <g id="axes_1">
   <g id="patch_2">
    <path d="M 90 578.273927 
L 648 578.273927 
L 648 148.926073 
L 90 148.926073 
z
" style="fill: #ffffff"/>
   </g>
   <g id="PatchCollection_1">
    <path d="M 161.374607 423.212327 
L 161.081042 423.570658 
L 160.927435 423.758173 
L 160.630225 424.120997 
L 153.223788 433.161666 
L 139.29534 450.188783 
L 138.751273 450.846019 
L 138.634458 450.980552 
L 138.538496 451.09084 
L 138.448807 451.194177 
L 138.337502 451.322352 
L 138.124938 451.566982 
L 137.914914 451.808689 
L 137.78996 451.952462 
L 139.261346 452.269509 
L 139.990724 452.426676 
L 140.041163 452.449734 
L 140.930759 452.856978 
L 141.012564 452.894448 
L 140.738497 453.400366 
L 140.678563 454.141781 
L 140.659065 454.393469 
L 140.645502 454.645666 
L 140.637957 454.898032 
L 140.636516 455.150482 
L 140.641517 455.59901 
L 140.604218 455.823741 
L 140.609389 456.308721 
L 140.605574 456.773186 
L 140.598029 456.988846 
L 140.582262 457.203997 
L 140.558356 457.41847 
L 140.526312 457.631841 
L 140.486131 457.843855 
L 140.43798 458.054174 
L 140.251906 458.78974 
L 140.150603 459.123487 
L 140.112202 459.217245 
L 140.066933 459.307866 
L 140.014968 459.394927 
L 139.95673 459.477834 
L 139.892473 459.556163 
L 139.822451 459.629406 
L 139.747259 459.697308 
L 139.613489 460.303088 
L 139.060776 462.806912 
L 139.000503 463.079538 
L 138.186014 466.770761 
L 138.154649 466.913263 
L 138.043089 467.420707 
L 138.008587 467.576349 
L 137.994684 467.638826 
L 137.952044 467.830919 
L 137.931868 467.922133 
L 138.418968 468.02547 
L 138.959304 468.138302 
L 139.725896 468.298944 
L 141.096404 468.586067 
L 142.41325 468.862084 
L 143.752223 469.142594 
L 145.067883 469.418188 
L 145.46292 469.50101 
L 146.410076 469.699461 
L 149.928111 470.436553 
L 150.369772 470.520392 
L 150.788376 470.609064 
L 151.350583 470.728168 
L 151.641859 470.789882 
L 155.623681 471.539012 
L 156.982914 471.800109 
L 157.617855 471.911415 
L 158.309679 472.071379 
L 159.623304 472.370794 
L 161.035011 472.657323 
L 162.265941 472.921218 
L 163.592071 473.291671 
L 164.901203 473.57981 
L 165.649061 473.761307 
L 166.222458 473.900587 
L 167.53176 474.1822 
L 168.855982 474.472798 
L 169.346303 474.591648 
L 170.173762 474.758903 
L 171.515722 475.055041 
L 172.848231 475.325603 
L 174.212041 475.610861 
L 175.522191 475.888489 
L 175.789561 475.944777 
L 176.397376 476.072613 
L 176.843107 476.166371 
L 178.147238 476.440608 
L 179.480785 476.715608 
L 180.814332 477.0068 
L 182.11753 477.305875 
L 182.990426 477.485168 
L 183.459893 477.590709 
L 184.774536 477.85774 
L 186.106557 478.122991 
L 186.554831 478.207339 
L 187.447479 478.375357 
L 188.487715 478.586609 
L 188.736605 478.633233 
L 191.983709 479.291063 
L 192.835836 479.437549 
L 193.076419 479.48731 
L 193.549954 479.585307 
L 194.19634 479.719755 
L 194.892233 479.86463 
L 196.088534 480.113605 
L 197.491594 480.405645 
L 197.690977 480.446589 
L 199.186608 480.822383 
L 200.631291 481.14494 
L 202.111832 481.504373 
L 203.587966 481.872114 
L 205.055734 482.220948 
L 205.919871 482.416604 
L 206.507849 482.574364 
L 206.684042 482.62494 
L 208.370458 483.00509 
L 208.886464 483.140641 
L 210.054282 483.40657 
L 210.435671 483.497869 
L 211.77761 483.785331 
L 213.425576 484.162312 
L 215.150769 484.549635 
L 217.03491 484.960439 
L 218.449583 485.249172 
L 219.01586 485.364801 
L 221.162539 485.843593 
L 221.57843 485.926839 
L 223.364828 486.33917 
L 224.067418 486.49693 
L 226.443202 487.035369 
L 227.456599 487.258606 
L 227.902414 487.35355 
L 228.109082 487.437758 
L 228.721311 487.687212 
L 229.232146 487.846923 
L 231.260484 488.606818 
L 231.582871 488.727448 
L 232.221628 488.96676 
L 236.196667 490.457135 
L 237.495542 490.93279 
L 239.183605 491.532805 
L 240.831317 492.117731 
L 241.789602 492.507928 
L 243.01733 493.007836 
L 243.633113 492.676209 
L 245.030409 493.45806 
L 246.496454 494.278483 
L 256.606606 500.000926 
L 262.119408 502.683533 
L 263.031554 503.127229 
L 273.818374 508.382346 
L 280.447651 511.467055 
L 281.337454 511.879165 
L 292.610592 517.152402 
L 294.852979 518.2012 
L 299.046899 520.215296 
L 307.43296 524.291892 
L 320.421288 530.432684 
L 321.110145 530.758548 
L 321.790509 530.984474 
L 322.002115 531.054741 
L 322.647822 531.34678 
L 331.938315 535.224416 
L 335.788909 536.79168 
L 338.966076 538.109798 
L 341.031967 538.98812 
L 341.620115 539.238197 
L 342.010574 539.41537 
L 343.017749 539.846266 
L 345.328377 540.917698 
L 346.205512 541.326722 
L 348.585144 542.394764 
L 351.77545 543.847245 
L 354.712627 545.229197 
L 356.297947 545.967221 
L 356.802763 546.211449 
L 363.584347 549.240434 
L 369.340783 551.894219 
L 369.618411 552.58706 
L 370.058293 553.347209 
L 370.363471 553.65739 
L 370.709341 554.010634 
L 371.069791 554.888024 
L 372.063911 557.304871 
L 372.628238 556.91297 
L 373.180781 558.077143 
L 373.333964 558.758116 
L 375.425287 557.322249 
L 376.034712 557.008423 
L 376.48146 557.720338 
L 377.158194 557.256042 
L 378.956376 555.680641 
L 380.520032 554.339198 
L 380.774564 554.120838 
L 382.478818 552.6258 
L 383.095195 552.083175 
L 383.456408 551.766298 
L 384.012427 551.27674 
L 384.578618 550.923072 
L 385.7227 549.909878 
L 386.63137 549.104969 
L 388.033243 547.953427 
L 391.058329 545.466474 
L 392.00379 544.646984 
L 392.467745 544.244888 
L 393.390489 543.445172 
L 397.937823 539.536001 
L 398.096432 539.399942 
L 398.461629 539.050936 
L 398.590821 538.927508 
L 399.306212 538.244246 
L 399.45185 538.105135 
L 406.417137 531.273534 
L 408.793375 528.942903 
L 409.050573 528.656204 
L 409.327692 528.347041 
L 414.980622 522.911127 
L 417.684761 520.316259 
L 423.018525 514.992159 
L 423.468664 514.543801 
L 426.034201 511.976823 
L 431.165614 505.883418 
L 435.009342 501.176797 
L 437.69339 497.948428 
L 444.454289 489.563554 
L 445.379235 488.397008 
L 460.375216 469.845523 
L 462.024369 467.904501 
L 463.604094 466.045198 
L 463.63529 466.008492 
L 463.766093 465.816908 
L 464.132307 465.280556 
L 464.939082 464.31263 
L 465.341748 463.642169 
L 467.81624 460.553081 
L 467.938905 460.421176 
L 468.066402 460.294018 
L 468.198562 460.171692 
L 468.335214 460.054368 
L 468.460676 459.953659 
L 468.58936 459.857188 
L 468.721265 459.765041 
L 468.876737 459.72291 
L 469.032887 459.683491 
L 469.189715 459.646784 
L 469.316957 459.619149 
L 469.444624 459.593378 
L 469.572629 459.569388 
L 472.585508 459.372378 
L 472.626622 459.357966 
L 472.665193 459.337621 
L 472.700374 459.311766 
L 472.731315 459.281078 
L 472.757764 459.245813 
L 472.778703 459.206988 
L 472.793623 459.165449 
L 472.802185 459.122216 
L 472.800235 459.099582 
L 472.792606 459.078219 
L 472.77989 459.0594 
L 472.762935 459.044395 
L 472.734706 459.03719 
L 472.705714 459.034053 
L 472.676638 459.03507 
L 473.992382 458.890619 
L 474.384622 458.814155 
L 475.010408 458.70997 
L 475.2309 458.663261 
L 475.448679 458.599173 
L 475.665017 458.530338 
L 475.879829 458.456926 
L 476.116851 458.361557 
L 476.35133 458.259916 
L 476.583012 458.152086 
L 476.811727 458.038153 
L 478.217923 457.373287 
L 481.108984 456.000066 
L 483.371207 454.938637 
L 484.043448 454.625066 
L 484.489518 454.389485 
L 487.515282 452.354281 
L 487.678637 452.23365 
L 487.900146 452.071482 
L 488.373428 451.725019 
L 488.575016 451.487997 
L 488.632866 451.408257 
L 488.906813 451.030652 
L 490.51909 448.808187 
L 494.268043 444.039852 
L 494.564631 443.703607 
L 494.567288 443.700595 
L 494.949948 443.597851 
L 495.148992 443.544445 
L 501.353109 441.344784 
L 510.658183 438.055464 
L 512.469758 437.417132 
L 517.647711 435.540621 
L 517.717479 435.731103 
L 518.30427 435.5168 
L 522.11358 434.125269 
L 522.373152 434.030409 
L 526.130582 432.657952 
L 526.48264 432.529353 
L 527.364691 432.20722 
L 528.762156 431.696723 
L 530.65808 431.004137 
L 532.434136 430.355462 
L 534.639816 429.54979 
L 535.786379 429.130954 
L 535.920805 429.081849 
L 536.924589 428.715126 
L 538.259407 428.227687 
L 539.600414 427.73779 
L 540.870467 427.273834 
L 542.128991 426.814116 
L 543.4171 426.343631 
L 544.68427 425.880777 
L 545.9461 425.419787 
L 546.59859 425.181493 
L 547.260489 424.939724 
L 548.519945 424.479751 
L 549.790167 424.015795 
L 551.010204 423.570064 
L 552.298483 423.099495 
L 553.513265 422.655714 
L 553.829294 422.548393 
L 553.747998 422.405552 
L 557.332833 421.131261 
L 557.398361 421.300805 
L 558.7108 420.827099 
L 559.999757 420.361871 
L 561.29753 419.893591 
L 562.60183 419.422938 
L 563.876376 418.962965 
L 565.218485 418.478579 
L 566.520327 418.008773 
L 567.844549 417.530829 
L 569.155547 417.057801 
L 570.441537 416.59359 
L 571.769573 416.114375 
L 573.063023 415.647621 
L 574.373851 415.174509 
L 575.655009 414.712163 
L 576.960581 414.241 
L 578.271494 413.767888 
L 579.55689 413.304101 
L 581.265807 412.687301 
L 581.241393 412.507584 
L 582.390307 412.100255 
L 584.001397 411.529317 
L 584.443821 411.363418 
L 585.457524 410.983301 
L 594.253627 407.768919 
L 596.770165 406.803452 
L 600.264972 405.46253 
L 602.737091 404.409324 
L 603.298704 404.156365 
L 604.187792 403.660279 
L 606.008269 402.644458 
L 611.017272 399.797139 
L 615.216278 397.472608 
L 615.76221 395.276931 
L 614.246742 396.139824 
L 613.378254 396.634384 
L 614.022351 395.928742 
L 615.987703 393.777994 
L 616.0445 393.715941 
L 616.12639 393.48587 
L 616.961647 391.132009 
L 616.978686 391.085723 
L 617.690686 390.238936 
L 617.900242 389.962326 
L 620.052177 387.122212 
L 621.202108 385.165338 
L 622.636364 382.724839 
L 621.090887 379.39644 
L 620.248593 377.707614 
L 619.017536 375.239225 
L 618.253402 373.706804 
L 618.182702 373.565404 
L 617.660337 371.938377 
L 617.379742 371.064802 
L 616.03899 366.89021 
L 615.530867 366.094286 
L 614.555312 364.566527 
L 612.611577 361.522961 
L 611.1869 359.29168 
L 608.826257 355.594692 
L 605.80541 349.187038 
L 605.050855 347.586459 
L 603.708407 345.839395 
L 599.9425 340.941274 
L 599.809662 340.741721 
L 598.3554 338.899543 
L 597.875083 338.178473 
L 597.621954 337.79861 
L 597.039825 336.924696 
L 594.907811 333.725235 
L 594.211325 332.656939 
L 593.514161 331.587627 
L 592.723833 330.375473 
L 592.631347 330.233565 
L 591.802786 328.962664 
L 591.298054 328.188527 
L 591.254057 328.121134 
L 590.1733 326.644237 
L 590.141935 326.599563 
L 589.423832 325.905111 
L 588.516772 325.114444 
L 586.990539 323.549554 
L 585.686238 321.891585 
L 584.78062 320.762762 
L 582.859689 318.368295 
L 581.826404 317.253205 
L 579.590385 314.840494 
L 579.585882 314.835426 
L 578.472997 313.634547 
L 562.165001 298.115184 
L 562.13745 297.848237 
L 557.547305 293.992557 
L 555.946388 292.647989 
L 554.187879 290.420523 
L 552.699709 289.332475 
L 551.056405 288.16203 
L 546.907753 285.207135 
L 545.281573 283.816876 
L 541.845344 280.953535 
L 538.337737 278.259738 
L 538.213376 278.163353 
L 533.134098 274.252824 
L 532.916488 274.085485 
L 528.595664 271.112025 
L 524.257207 268.136955 
L 522.730381 267.01822 
L 521.202791 266.073183 
L 520.385929 265.567858 
L 511.538624 259.947989 
L 506.119918 256.506334 
L 506.821236 254.856249 
L 506.953904 254.544203 
L 495.451035 249.799604 
L 483.809648 244.998039 
L 483.634 244.925644 
L 482.273072 244.365216 
L 475.862451 241.720163 
L 475.291703 241.500631 
L 474.830353 241.323176 
L 473.562334 240.821496 
L 472.133504 240.264799 
L 470.799109 239.748369 
L 470.715016 239.71641 
L 469.317975 239.1737 
L 469.218537 239.135553 
L 467.874902 238.613103 
L 467.639745 238.520363 
L 466.452599 238.06073 
L 466.373761 238.030042 
L 466.05841 237.907038 
L 465.046996 237.514205 
L 464.01049 237.113488 
L 463.613079 236.962764 
L 462.191878 236.407423 
L 461.143759 235.99967 
L 460.679463 235.819106 
L 459.273775 235.275633 
L 457.792132 234.695878 
L 457.732876 234.6746 
L 457.563671 234.610767 
L 457.063941 234.411723 
L 457.006974 234.387224 
L 454.67439 233.468466 
L 453.656619 233.070207 
L 453.291252 232.925417 
L 452.915882 232.778253 
L 451.868101 232.367448 
L 451.502649 232.222488 
L 450.457157 231.811344 
L 450.241328 231.731828 
L 449.572223 231.467255 
L 449.020358 231.251256 
L 447.617044 230.703121 
L 446.192452 230.143457 
L 446.159476 230.130402 
L 444.793716 229.595576 
L 443.362935 229.034302 
L 442.952894 228.870268 
L 442.281076 228.607051 
L 441.919778 228.469212 
L 440.53842 227.924892 
L 439.176899 227.389981 
L 436.267951 226.251918 
L 436.085521 226.175115 
L 435.751605 226.04482 
L 435.415739 225.911644 
L 435.320285 225.876717 
L 432.323175 224.704746 
L 432.308019 224.698857 
L 432.231112 224.668972 
L 430.830765 224.131433 
L 429.410497 223.596353 
L 427.973274 223.050846 
L 426.543256 222.505423 
L 425.103151 221.960255 
L 423.673473 221.41212 
L 422.255408 220.868139 
L 420.82946 220.331194 
L 419.403003 219.785941 
L 417.971884 219.239416 
L 417.86007 219.197624 
L 416.550089 218.698826 
L 415.130499 218.159846 
L 413.707942 217.619594 
L 412.274194 217.07875 
L 410.855706 216.539685 
L 408.571951 215.670519 
L 407.769076 215.366442 
L 406.981884 215.067536 
L 404.005712 213.935577 
L 403.494961 213.731022 
L 402.070115 213.186448 
L 400.64671 212.655945 
L 400.161221 212.471312 
L 399.218727 212.109929 
L 397.794728 211.57239 
L 396.2089 210.969408 
L 395.481218 210.960592 
L 394.413431 210.947282 
L 393.91226 210.94067 
L 393.282828 210.941687 
L 387.599974 209.571943 
L 381.756138 208.351736 
L 375.82541 207.086431 
L 369.812963 205.805273 
L 368.662014 205.558671 
L 363.149806 205.81943 
L 361.620521 205.882754 
L 356.338044 206.142495 
L 355.426576 206.185644 
L 353.605421 206.270331 
L 351.804612 206.354086 
L 350.61967 206.410798 
L 349.997699 206.438688 
L 347.361207 206.559743 
L 346.387602 206.597975 
L 344.558818 206.688342 
L 342.793612 206.770062 
L 340.990175 206.851612 
L 338.968873 206.94164 
L 337.071763 207.024038 
L 333.046369 207.206468 
L 327.105384 207.471465 
L 321.148546 207.735105 
L 317.296172 207.916432 
L 310.824345 208.236022 
L 296.047245 208.965824 
L 294.728449 209.030929 
L 293.37498 209.097814 
L 292.053641 209.163003 
L 290.660414 209.231838 
L 287.725696 209.376798 
L 285.951674 209.464452 
L 283.790584 209.571265 
L 281.152397 202.806721 
L 274.170074 184.90442 
L 273.182142 182.380166 
L 272.700892 181.146735 
L 270.630508 175.839675 
L 267.817606 168.629993 
L 267.739786 168.441884 
L 267.222677 168.766052 
L 267.090941 168.84862 
L 266.762705 169.054361 
L 266.68997 169.099969 
L 248.216306 180.679557 
L 246.527057 181.658334 
L 244.344265 183.049525 
L 239.465048 186.092244 
L 230.933942 191.363191 
L 230.286963 191.768316 
L 229.617519 192.182342 
L 229.613436 192.18485 
L 222.183277 196.747903 
L 211.835509 203.179971 
L 207.587674 205.801967 
L 207.023602 206.150125 
L 205.281285 207.225541 
L 201.797074 209.362895 
L 196.348784 212.725712 
L 195.223861 213.428471 
L 195.050163 213.536979 
L 190.88303 216.092513 
L 189.830248 216.747461 
L 187.859386 218.005222 
L 174.711008 226.161636 
L 173.375766 226.963917 
L 170.128663 229.406874 
L 169.587055 230.040205 
L 167.434273 232.212909 
L 166.763218 232.890152 
L 161.559918 238.141602 
L 158.332482 242.280167 
L 157.305725 243.828017 
L 155.991336 245.809475 
L 155.402765 246.931686 
L 153.969696 249.663885 
L 153.659685 250.370882 
L 153.306102 251.224959 
L 153.109685 251.686288 
L 152.963708 252.02173 
L 152.821884 252.216028 
L 152.301385 252.928536 
L 152.169395 253.109184 
L 151.821491 254.049814 
L 151.837513 255.001717 
L 151.153573 257.331249 
L 150.813129 258.487708 
L 150.092398 260.862508 
L 149.53816 262.567356 
L 148.673486 265.33643 
L 148.152902 266.877923 
L 147.720141 268.231137 
L 145.910007 268.006576 
L 144.622322 271.973732 
L 143.979411 273.984267 
L 142.683927 278.035177 
L 142.485561 278.658675 
L 141.912418 280.372508 
L 141.319608 282.338623 
L 141.209574 282.636173 
L 137.372458 282.870991 
L 132.056497 283.147517 
L 130.141075 288.70813 
L 130.128444 288.744752 
L 130.06122 288.939812 
L 129.84039 289.580942 
L 123.362459 287.385519 
L 123.279807 287.894659 
L 123.24683 288.098366 
L 123.223688 288.241037 
L 123.179182 288.515105 
L 122.176839 292.790152 
L 122.127163 293.042433 
L 122.073333 293.252837 
L 121.370235 296.001397 
L 120.904922 297.597736 
L 120.42418 299.430251 
L 120.387559 299.617851 
L 120.144009 301.010484 
L 119.753634 302.939045 
L 119.638175 303.50939 
L 119.60291 303.683681 
L 119.585447 303.766843 
L 119.428365 304.515887 
L 119.216774 305.655984 
L 119.049858 306.829397 
L 118.856832 308.295527 
L 118.656601 309.344834 
L 118.606925 309.605169 
L 118.522492 310.562667 
L 118.470188 311.72133 
L 118.478834 313.234932 
L 118.714585 315.376271 
L 118.613283 317.35739 
L 118.158142 319.725409 
L 118.286572 322.700818 
L 118.34303 324.008594 
L 118.322261 324.348699 
L 119.433281 328.167419 
L 119.747616 330.805436 
L 120.127479 333.805514 
L 119.86121 333.836201 
L 120.681124 340.336596 
L 120.945104 340.312267 
L 121.048695 341.079198 
L 121.335309 341.021045 
L 121.802487 340.916606 
L 121.859962 341.369542 
L 121.870135 341.449482 
L 122.425645 341.643186 
L 122.427171 342.08383 
L 122.428188 342.366459 
L 122.069094 342.137321 
L 120.953411 342.016691 
L 120.607457 341.979306 
L 120.320589 341.94828 
L 120.194024 341.993972 
L 120.062713 342.044665 
L 119.930723 342.095444 
L 119.79441 342.148087 
L 119.407595 342.375784 
L 119.177101 347.741677 
L 119.155908 348.23488 
L 118.963984 352.704479 
L 118.951184 353.001095 
L 118.944741 353.17208 
L 118.940078 353.296017 
L 118.919733 353.83203 
L 118.917699 353.88586 
L 118.913121 354.008186 
L 118.902948 354.261654 
L 118.900151 354.332862 
L 118.633543 360.990848 
L 118.521305 363.794255 
L 118.518592 363.862835 
L 117.965795 363.752038 
L 117.836094 364.682156 
L 117.761155 365.097538 
L 117.493276 366.342837 
L 119.419633 366.493477 
L 119.371737 367.588645 
L 118.137882 370.775561 
L 117.630013 372.356387 
L 117.335431 373.962137 
L 116.723886 377.991769 
L 116.53103 379.261822 
L 116.613598 379.259194 
L 116.774919 379.254193 
L 116.738043 379.52631 
L 116.693029 379.857769 
L 116.456431 381.603476 
L 116.454397 381.618396 
L 117.987412 381.813796 
L 117.76497 383.564505 
L 116.158543 383.374023 
L 115.379319 389.342558 
L 115.363636 389.462341 
L 116.847908 389.832964 
L 117.44733 389.982671 
L 117.452331 389.983943 
L 117.979697 390.12424 
L 120.046013 390.380251 
L 124.14821 390.370587 
L 124.509847 390.36974 
L 126.109323 390.543946 
L 127.316221 390.75613 
L 128.221161 391.083095 
L 130.073936 391.655899 
L 131.000324 391.679296 
L 131.290583 391.623516 
L 132.002667 391.48644 
L 132.960674 391.169562 
L 133.114789 391.118699 
L 133.211853 391.086571 
L 133.292386 391.041303 
L 133.840303 390.733423 
L 134.189273 390.537334 
L 134.514882 390.452477 
L 134.646363 392.636879 
L 134.659757 392.859151 
L 134.654586 392.902131 
L 134.426295 394.746259 
L 134.458594 394.763552 
L 134.443504 394.948525 
L 134.396117 394.96141 
L 134.343219 395.35738 
L 134.284726 395.752586 
L 134.220639 396.146945 
L 134.150956 396.540287 
L 134.076018 396.934052 
L 133.9954 397.326716 
L 133.909272 397.718277 
L 133.817548 398.108482 
L 133.75948 398.310663 
L 133.699292 398.521406 
L 133.578746 398.85261 
L 133.473374 399.188137 
L 133.359865 399.561303 
L 133.200833 399.827826 
L 133.246186 399.865719 
L 135.029787 401.355755 
L 140.158572 405.721424 
L 141.781361 407.102697 
L 150.405292 414.193613 
L 150.990726 414.665284 
L 154.609809 417.644169 
L 161.374607 423.212327 
" clip-path="url(#pba7ea65a57)" style="fill: #d3d3d3"/>
   </g>
   <g id="PatchCollection_2">
    <path d="M 400.410398 300.499316 
L 400.410398 300.414544 
L 400.325626 300.414544 
L 400.325626 300.499316 
L 400.410398 300.499316 
" clip-path="url(#pba7ea65a57)" style="fill: #ff0000; fill-opacity: 0.7; stroke: #000000; stroke-opacity: 0.7; stroke-width: 0.5"/>
    <path d="M 270.433884 489.06463 
L 270.433884 488.979858 
L 270.349112 488.979858 
L 270.349112 489.06463 
L 270.433884 489.06463 
" clip-path="url(#pba7ea65a57)" style="fill: #ff0000; fill-opacity: 0.7; stroke: #000000; stroke-opacity: 0.7; stroke-width: 0.5"/>
    <path d="M 239.040484 458.208999 
L 239.040484 458.124227 
L 238.955713 458.124227 
L 238.955713 458.208999 
L 239.040484 458.208999 
" clip-path="url(#pba7ea65a57)" style="fill: #ff0000; fill-opacity: 0.7; stroke: #000000; stroke-opacity: 0.7; stroke-width: 0.5"/>
    <path d="M 289.076789 377.760106 
L 289.076789 377.675334 
L 288.992017 377.675334 
L 288.992017 377.760106 
L 289.076789 377.760106 
" clip-path="url(#pba7ea65a57)" style="fill: #ff0000; fill-opacity: 0.7; stroke: #000000; stroke-opacity: 0.7; stroke-width: 0.5"/>
    <path d="M 267.958769 465.364101 
L 267.958769 465.279329 
L 267.873997 465.279329 
L 267.873997 465.364101 
L 267.958769 465.364101 
" clip-path="url(#pba7ea65a57)" style="fill: #ff0000; fill-opacity: 0.7; stroke: #000000; stroke-opacity: 0.7; stroke-width: 0.5"/>
    <path d="M 375.265786 436.571115 
L 375.265786 436.486344 
L 375.181014 436.486344 
L 375.181014 436.571115 
L 375.265786 436.571115 
" clip-path="url(#pba7ea65a57)" style="fill: #ff0000; fill-opacity: 0.7; stroke: #000000; stroke-opacity: 0.7; stroke-width: 0.5"/>
    <path d="M 267.958769 465.364101 
L 267.958769 465.279329 
L 267.873997 465.279329 
L 267.873997 465.364101 
L 267.958769 465.364101 
" clip-path="url(#pba7ea65a57)" style="fill: #ff0000; fill-opacity: 0.7; stroke: #000000; stroke-opacity: 0.7; stroke-width: 0.5"/>
    <path d="M 267.958769 465.364101 
L 267.958769 465.279329 
L 267.873997 465.279329 
L 267.873997 465.364101 
L 267.958769 465.364101 
" clip-path="url(#pba7ea65a57)" style="fill: #ff0000; fill-opacity: 0.7; stroke: #000000; stroke-opacity: 0.7; stroke-width: 0.5"/>
    <path d="M 474.807504 440.246808 
L 474.807504 440.162036 
L 474.722732 440.162036 
L 474.722732 440.246808 
L 474.807504 440.246808 
" clip-path="url(#pba7ea65a57)" style="fill: #ff0000; fill-opacity: 0.7; stroke: #000000; stroke-opacity: 0.7; stroke-width: 0.5"/>
    <path d="M 257.814726 386.866064 
L 257.814726 386.781292 
L 257.729954 386.781292 
L 257.729954 386.866064 
L 257.814726 386.866064 
" clip-path="url(#pba7ea65a57)" style="fill: #ff0000; fill-opacity: 0.7; stroke: #000000; stroke-opacity: 0.7; stroke-width: 0.5"/>
    <path d="M 371.025629 284.380886 
L 371.025629 284.296114 
L 370.940857 284.296114 
L 370.940857 284.380886 
L 371.025629 284.380886 
" clip-path="url(#pba7ea65a57)" style="fill: #ff0000; fill-opacity: 0.7; stroke: #000000; stroke-opacity: 0.7; stroke-width: 0.5"/>
    <path d="M 362.573017 461.094871 
L 362.573017 461.010099 
L 362.488245 461.010099 
L 362.488245 461.094871 
L 362.573017 461.094871 
" clip-path="url(#pba7ea65a57)" style="fill: #ff0000; fill-opacity: 0.7; stroke: #000000; stroke-opacity: 0.7; stroke-width: 0.5"/>
    <path d="M 267.958862 465.364028 
L 267.958862 465.279256 
L 267.87409 465.279256 
L 267.87409 465.364028 
L 267.958862 465.364028 
" clip-path="url(#pba7ea65a57)" style="fill: #ff0000; fill-opacity: 0.7; stroke: #000000; stroke-opacity: 0.7; stroke-width: 0.5"/>
    <path d="M 312.863122 447.795759 
L 312.863122 447.710987 
L 312.77835 447.710987 
L 312.77835 447.795759 
L 312.863122 447.795759 
" clip-path="url(#pba7ea65a57)" style="fill: #ff0000; fill-opacity: 0.7; stroke: #000000; stroke-opacity: 0.7; stroke-width: 0.5"/>
    <path d="M 332.864105 427.507595 
L 332.864105 427.422823 
L 332.779334 427.422823 
L 332.779334 427.507595 
L 332.864105 427.507595 
" clip-path="url(#pba7ea65a57)" style="fill: #ff0000; fill-opacity: 0.7; stroke: #000000; stroke-opacity: 0.7; stroke-width: 0.5"/>
    <path d="M 289.076882 377.760032 
L 289.076882 377.67526 
L 288.99211 377.67526 
L 288.99211 377.760032 
L 289.076882 377.760032 
" clip-path="url(#pba7ea65a57)" style="fill: #ff0000; fill-opacity: 0.7; stroke: #000000; stroke-opacity: 0.7; stroke-width: 0.5"/>
    <path d="M 267.958862 465.364028 
L 267.958862 465.279256 
L 267.87409 465.279256 
L 267.87409 465.364028 
L 267.958862 465.364028 
" clip-path="url(#pba7ea65a57)" style="fill: #ff0000; fill-opacity: 0.7; stroke: #000000; stroke-opacity: 0.7; stroke-width: 0.5"/>
    <path d="M 211.262725 417.267372 
L 211.262725 417.182601 
L 211.177953 417.182601 
L 211.177953 417.267372 
L 211.262725 417.267372 
" clip-path="url(#pba7ea65a57)" style="fill: #ff0000; fill-opacity: 0.7; stroke: #000000; stroke-opacity: 0.7; stroke-width: 0.5"/>
    <path d="M 211.262725 417.267372 
L 211.262725 417.182601 
L 211.177953 417.182601 
L 211.177953 417.267372 
L 211.262725 417.267372 
" clip-path="url(#pba7ea65a57)" style="fill: #ff0000; fill-opacity: 0.7; stroke: #000000; stroke-opacity: 0.7; stroke-width: 0.5"/>
    <path d="M 324.887171 428.290623 
L 324.887171 428.205851 
L 324.8024 428.205851 
L 324.8024 428.290623 
L 324.887171 428.290623 
" clip-path="url(#pba7ea65a57)" style="fill: #ff0000; fill-opacity: 0.7; stroke: #000000; stroke-opacity: 0.7; stroke-width: 0.5"/>
    <path d="M 267.958862 465.364028 
L 267.958862 465.279256 
L 267.87409 465.279256 
L 267.87409 465.364028 
L 267.958862 465.364028 
" clip-path="url(#pba7ea65a57)" style="fill: #ff0000; fill-opacity: 0.7; stroke: #000000; stroke-opacity: 0.7; stroke-width: 0.5"/>
    <path d="M 290.060598 502.784624 
L 290.060598 502.699852 
L 289.975826 502.699852 
L 289.975826 502.784624 
L 290.060598 502.784624 
" clip-path="url(#pba7ea65a57)" style="fill: #ff0000; fill-opacity: 0.7; stroke: #000000; stroke-opacity: 0.7; stroke-width: 0.5"/>
    <path d="M 236.270625 407.07332 
L 236.270625 406.988548 
L 236.185853 406.988548 
L 236.185853 407.07332 
L 236.270625 407.07332 
" clip-path="url(#pba7ea65a57)" style="fill: #ff0000; fill-opacity: 0.7; stroke: #000000; stroke-opacity: 0.7; stroke-width: 0.5"/>
    <path d="M 211.262725 417.267363 
L 211.262725 417.182591 
L 211.177953 417.182591 
L 211.177953 417.267363 
L 211.262725 417.267363 
" clip-path="url(#pba7ea65a57)" style="fill: #ff0000; fill-opacity: 0.7; stroke: #000000; stroke-opacity: 0.7; stroke-width: 0.5"/>
    <path d="M 230.057485 404.065395 
L 230.057485 403.980623 
L 229.972713 403.980623 
L 229.972713 404.065395 
L 230.057485 404.065395 
" clip-path="url(#pba7ea65a57)" style="fill: #ff0000; fill-opacity: 0.7; stroke: #000000; stroke-opacity: 0.7; stroke-width: 0.5"/>
    <path d="M 239.040572 458.208916 
L 239.040572 458.124144 
L 238.9558 458.124144 
L 238.9558 458.208916 
L 239.040572 458.208916 
" clip-path="url(#pba7ea65a57)" style="fill: #ff0000; fill-opacity: 0.7; stroke: #000000; stroke-opacity: 0.7; stroke-width: 0.5"/>
    <path d="M 309.998852 439.668012 
L 309.998852 439.58324 
L 309.91408 439.58324 
L 309.91408 439.668012 
L 309.998852 439.668012 
" clip-path="url(#pba7ea65a57)" style="fill: #ff0000; fill-opacity: 0.7; stroke: #000000; stroke-opacity: 0.7; stroke-width: 0.5"/>
   </g>
   <g id="matplotlib.axis_1">
    <g id="xtick_1">
     <g id="line2d_1">
      <defs>
       <path id="m69c0660ed5" d="M 0 0 
L 0 3.5 
" style="stroke: #000000; stroke-width: 0.8"/>
      </defs>
      <g>
       <use xlink:href="#m69c0660ed5" x="119.219402" y="578.273927" style="stroke: #000000; stroke-width: 0.8"/>
      </g>
     </g>
     <g id="text_1">
      <!-- 397000 -->
      <g transform="translate(100.131902 592.872365) scale(0.1 -0.1)">
       <defs>
        <path id="DejaVuSans-33" d="M 2597 2516 
Q 3050 2419 3304 2112 
Q 3559 1806 3559 1356 
Q 3559 666 3084 287 
Q 2609 -91 1734 -91 
Q 1441 -91 1130 -33 
Q 819 25 488 141 
L 488 750 
Q 750 597 1062 519 
Q 1375 441 1716 441 
Q 2309 441 2620 675 
Q 2931 909 2931 1356 
Q 2931 1769 2642 2001 
Q 2353 2234 1838 2234 
L 1294 2234 
L 1294 2753 
L 1863 2753 
Q 2328 2753 2575 2939 
Q 2822 3125 2822 3475 
Q 2822 3834 2567 4026 
Q 2313 4219 1838 4219 
Q 1578 4219 1281 4162 
Q 984 4106 628 3988 
L 628 4550 
Q 988 4650 1302 4700 
Q 1616 4750 1894 4750 
Q 2613 4750 3031 4423 
Q 3450 4097 3450 3541 
Q 3450 3153 3228 2886 
Q 3006 2619 2597 2516 
z
" transform="scale(0.015625)"/>
        <path id="DejaVuSans-39" d="M 703 97 
L 703 672 
Q 941 559 1184 500 
Q 1428 441 1663 441 
Q 2288 441 2617 861 
Q 2947 1281 2994 2138 
Q 2813 1869 2534 1725 
Q 2256 1581 1919 1581 
Q 1219 1581 811 2004 
Q 403 2428 403 3163 
Q 403 3881 828 4315 
Q 1253 4750 1959 4750 
Q 2769 4750 3195 4129 
Q 3622 3509 3622 2328 
Q 3622 1225 3098 567 
Q 2575 -91 1691 -91 
Q 1453 -91 1209 -44 
Q 966 3 703 97 
z
M 1959 2075 
Q 2384 2075 2632 2365 
Q 2881 2656 2881 3163 
Q 2881 3666 2632 3958 
Q 2384 4250 1959 4250 
Q 1534 4250 1286 3958 
Q 1038 3666 1038 3163 
Q 1038 2656 1286 2365 
Q 1534 2075 1959 2075 
z
" transform="scale(0.015625)"/>
        <path id="DejaVuSans-37" d="M 525 4666 
L 3525 4666 
L 3525 4397 
L 1831 0 
L 1172 0 
L 2766 4134 
L 525 4134 
L 525 4666 
z
" transform="scale(0.015625)"/>
        <path id="DejaVuSans-30" d="M 2034 4250 
Q 1547 4250 1301 3770 
Q 1056 3291 1056 2328 
Q 1056 1369 1301 889 
Q 1547 409 2034 409 
Q 2525 409 2770 889 
Q 3016 1369 3016 2328 
Q 3016 3291 2770 3770 
Q 2525 4250 2034 4250 
z
M 2034 4750 
Q 2819 4750 3233 4129 
Q 3647 3509 3647 2328 
Q 3647 1150 3233 529 
Q 2819 -91 2034 -91 
Q 1250 -91 836 529 
Q 422 1150 422 2328 
Q 422 3509 836 4129 
Q 1250 4750 2034 4750 
z
" transform="scale(0.015625)"/>
       </defs>
       <use xlink:href="#DejaVuSans-33"/>
       <use xlink:href="#DejaVuSans-39" x="63.623047"/>
       <use xlink:href="#DejaVuSans-37" x="127.246094"/>
       <use xlink:href="#DejaVuSans-30" x="190.869141"/>
       <use xlink:href="#DejaVuSans-30" x="254.492188"/>
       <use xlink:href="#DejaVuSans-30" x="318.115234"/>
      </g>
     </g>
    </g>
    <g id="xtick_2">
     <g id="line2d_2">
      <g>
       <use xlink:href="#m69c0660ed5" x="203.99131" y="578.273927" style="stroke: #000000; stroke-width: 0.8"/>
      </g>
     </g>
     <g id="text_2">
      <!-- 398000 -->
      <g transform="translate(184.90381 592.872365) scale(0.1 -0.1)">
       <defs>
        <path id="DejaVuSans-38" d="M 2034 2216 
Q 1584 2216 1326 1975 
Q 1069 1734 1069 1313 
Q 1069 891 1326 650 
Q 1584 409 2034 409 
Q 2484 409 2743 651 
Q 3003 894 3003 1313 
Q 3003 1734 2745 1975 
Q 2488 2216 2034 2216 
z
M 1403 2484 
Q 997 2584 770 2862 
Q 544 3141 544 3541 
Q 544 4100 942 4425 
Q 1341 4750 2034 4750 
Q 2731 4750 3128 4425 
Q 3525 4100 3525 3541 
Q 3525 3141 3298 2862 
Q 3072 2584 2669 2484 
Q 3125 2378 3379 2068 
Q 3634 1759 3634 1313 
Q 3634 634 3220 271 
Q 2806 -91 2034 -91 
Q 1263 -91 848 271 
Q 434 634 434 1313 
Q 434 1759 690 2068 
Q 947 2378 1403 2484 
z
M 1172 3481 
Q 1172 3119 1398 2916 
Q 1625 2713 2034 2713 
Q 2441 2713 2670 2916 
Q 2900 3119 2900 3481 
Q 2900 3844 2670 4047 
Q 2441 4250 2034 4250 
Q 1625 4250 1398 4047 
Q 1172 3844 1172 3481 
z
" transform="scale(0.015625)"/>
       </defs>
       <use xlink:href="#DejaVuSans-33"/>
       <use xlink:href="#DejaVuSans-39" x="63.623047"/>
       <use xlink:href="#DejaVuSans-38" x="127.246094"/>
       <use xlink:href="#DejaVuSans-30" x="190.869141"/>
       <use xlink:href="#DejaVuSans-30" x="254.492188"/>
       <use xlink:href="#DejaVuSans-30" x="318.115234"/>
      </g>
     </g>
    </g>
    <g id="xtick_3">
     <g id="line2d_3">
      <g>
       <use xlink:href="#m69c0660ed5" x="288.763219" y="578.273927" style="stroke: #000000; stroke-width: 0.8"/>
      </g>
     </g>
     <g id="text_3">
      <!-- 399000 -->
      <g transform="translate(269.675719 592.872365) scale(0.1 -0.1)">
       <use xlink:href="#DejaVuSans-33"/>
       <use xlink:href="#DejaVuSans-39" x="63.623047"/>
       <use xlink:href="#DejaVuSans-39" x="127.246094"/>
       <use xlink:href="#DejaVuSans-30" x="190.869141"/>
       <use xlink:href="#DejaVuSans-30" x="254.492188"/>
       <use xlink:href="#DejaVuSans-30" x="318.115234"/>
      </g>
     </g>
    </g>
    <g id="xtick_4">
     <g id="line2d_4">
      <g>
       <use xlink:href="#m69c0660ed5" x="373.535127" y="578.273927" style="stroke: #000000; stroke-width: 0.8"/>
      </g>
     </g>
     <g id="text_4">
      <!-- 400000 -->
      <g transform="translate(354.447627 592.872365) scale(0.1 -0.1)">
       <defs>
        <path id="DejaVuSans-34" d="M 2419 4116 
L 825 1625 
L 2419 1625 
L 2419 4116 
z
M 2253 4666 
L 3047 4666 
L 3047 1625 
L 3713 1625 
L 3713 1100 
L 3047 1100 
L 3047 0 
L 2419 0 
L 2419 1100 
L 313 1100 
L 313 1709 
L 2253 4666 
z
" transform="scale(0.015625)"/>
       </defs>
       <use xlink:href="#DejaVuSans-34"/>
       <use xlink:href="#DejaVuSans-30" x="63.623047"/>
       <use xlink:href="#DejaVuSans-30" x="127.246094"/>
       <use xlink:href="#DejaVuSans-30" x="190.869141"/>
       <use xlink:href="#DejaVuSans-30" x="254.492188"/>
       <use xlink:href="#DejaVuSans-30" x="318.115234"/>
      </g>
     </g>
    </g>
    <g id="xtick_5">
     <g id="line2d_5">
      <g>
       <use xlink:href="#m69c0660ed5" x="458.307036" y="578.273927" style="stroke: #000000; stroke-width: 0.8"/>
      </g>
     </g>
     <g id="text_5">
      <!-- 401000 -->
      <g transform="translate(439.219536 592.872365) scale(0.1 -0.1)">
       <defs>
        <path id="DejaVuSans-31" d="M 794 531 
L 1825 531 
L 1825 4091 
L 703 3866 
L 703 4441 
L 1819 4666 
L 2450 4666 
L 2450 531 
L 3481 531 
L 3481 0 
L 794 0 
L 794 531 
z
" transform="scale(0.015625)"/>
       </defs>
       <use xlink:href="#DejaVuSans-34"/>
       <use xlink:href="#DejaVuSans-30" x="63.623047"/>
       <use xlink:href="#DejaVuSans-31" x="127.246094"/>
       <use xlink:href="#DejaVuSans-30" x="190.869141"/>
       <use xlink:href="#DejaVuSans-30" x="254.492188"/>
       <use xlink:href="#DejaVuSans-30" x="318.115234"/>
      </g>
     </g>
    </g>
    <g id="xtick_6">
     <g id="line2d_6">
      <g>
       <use xlink:href="#m69c0660ed5" x="543.078945" y="578.273927" style="stroke: #000000; stroke-width: 0.8"/>
      </g>
     </g>
     <g id="text_6">
      <!-- 402000 -->
      <g transform="translate(523.991445 592.872365) scale(0.1 -0.1)">
       <defs>
        <path id="DejaVuSans-32" d="M 1228 531 
L 3431 531 
L 3431 0 
L 469 0 
L 469 531 
Q 828 903 1448 1529 
Q 2069 2156 2228 2338 
Q 2531 2678 2651 2914 
Q 2772 3150 2772 3378 
Q 2772 3750 2511 3984 
Q 2250 4219 1831 4219 
Q 1534 4219 1204 4116 
Q 875 4013 500 3803 
L 500 4441 
Q 881 4594 1212 4672 
Q 1544 4750 1819 4750 
Q 2544 4750 2975 4387 
Q 3406 4025 3406 3419 
Q 3406 3131 3298 2873 
Q 3191 2616 2906 2266 
Q 2828 2175 2409 1742 
Q 1991 1309 1228 531 
z
" transform="scale(0.015625)"/>
       </defs>
       <use xlink:href="#DejaVuSans-34"/>
       <use xlink:href="#DejaVuSans-30" x="63.623047"/>
       <use xlink:href="#DejaVuSans-32" x="127.246094"/>
       <use xlink:href="#DejaVuSans-30" x="190.869141"/>
       <use xlink:href="#DejaVuSans-30" x="254.492188"/>
       <use xlink:href="#DejaVuSans-30" x="318.115234"/>
      </g>
     </g>
    </g>
    <g id="xtick_7">
     <g id="line2d_7">
      <g>
       <use xlink:href="#m69c0660ed5" x="627.850853" y="578.273927" style="stroke: #000000; stroke-width: 0.8"/>
      </g>
     </g>
     <g id="text_7">
      <!-- 403000 -->
      <g transform="translate(608.763353 592.872365) scale(0.1 -0.1)">
       <use xlink:href="#DejaVuSans-34"/>
       <use xlink:href="#DejaVuSans-30" x="63.623047"/>
       <use xlink:href="#DejaVuSans-33" x="127.246094"/>
       <use xlink:href="#DejaVuSans-30" x="190.869141"/>
       <use xlink:href="#DejaVuSans-30" x="254.492188"/>
       <use xlink:href="#DejaVuSans-30" x="318.115234"/>
      </g>
     </g>
    </g>
   </g>
   <g id="matplotlib.axis_2">
    <g id="ytick_1">
     <g id="line2d_8">
      <defs>
       <path id="mdd5c2e863f" d="M 0 0 
L -3.5 0 
" style="stroke: #000000; stroke-width: 0.8"/>
      </defs>
      <g>
       <use xlink:href="#mdd5c2e863f" x="90" y="544.080379" style="stroke: #000000; stroke-width: 0.8"/>
      </g>
     </g>
     <g id="text_8">
      <!-- 5.824 -->
      <g transform="translate(54.371875 547.879597) scale(0.1 -0.1)">
       <defs>
        <path id="DejaVuSans-35" d="M 691 4666 
L 3169 4666 
L 3169 4134 
L 1269 4134 
L 1269 2991 
Q 1406 3038 1543 3061 
Q 1681 3084 1819 3084 
Q 2600 3084 3056 2656 
Q 3513 2228 3513 1497 
Q 3513 744 3044 326 
Q 2575 -91 1722 -91 
Q 1428 -91 1123 -41 
Q 819 9 494 109 
L 494 744 
Q 775 591 1075 516 
Q 1375 441 1709 441 
Q 2250 441 2565 725 
Q 2881 1009 2881 1497 
Q 2881 1984 2565 2268 
Q 2250 2553 1709 2553 
Q 1456 2553 1204 2497 
Q 953 2441 691 2322 
L 691 4666 
z
" transform="scale(0.015625)"/>
        <path id="DejaVuSans-2e" d="M 684 794 
L 1344 794 
L 1344 0 
L 684 0 
L 684 794 
z
" transform="scale(0.015625)"/>
       </defs>
       <use xlink:href="#DejaVuSans-35"/>
       <use xlink:href="#DejaVuSans-2e" x="63.623047"/>
       <use xlink:href="#DejaVuSans-38" x="95.410156"/>
       <use xlink:href="#DejaVuSans-32" x="159.033203"/>
       <use xlink:href="#DejaVuSans-34" x="222.65625"/>
      </g>
     </g>
    </g>
    <g id="ytick_2">
     <g id="line2d_9">
      <g>
       <use xlink:href="#mdd5c2e863f" x="90" y="459.30847" style="stroke: #000000; stroke-width: 0.8"/>
      </g>
     </g>
     <g id="text_9">
      <!-- 5.825 -->
      <g transform="translate(54.371875 463.107689) scale(0.1 -0.1)">
       <use xlink:href="#DejaVuSans-35"/>
       <use xlink:href="#DejaVuSans-2e" x="63.623047"/>
       <use xlink:href="#DejaVuSans-38" x="95.410156"/>
       <use xlink:href="#DejaVuSans-32" x="159.033203"/>
       <use xlink:href="#DejaVuSans-35" x="222.65625"/>
      </g>
     </g>
    </g>
    <g id="ytick_3">
     <g id="line2d_10">
      <g>
       <use xlink:href="#mdd5c2e863f" x="90" y="374.536562" style="stroke: #000000; stroke-width: 0.8"/>
      </g>
     </g>
     <g id="text_10">
      <!-- 5.826 -->
      <g transform="translate(54.371875 378.33578) scale(0.1 -0.1)">
       <defs>
        <path id="DejaVuSans-36" d="M 2113 2584 
Q 1688 2584 1439 2293 
Q 1191 2003 1191 1497 
Q 1191 994 1439 701 
Q 1688 409 2113 409 
Q 2538 409 2786 701 
Q 3034 994 3034 1497 
Q 3034 2003 2786 2293 
Q 2538 2584 2113 2584 
z
M 3366 4563 
L 3366 3988 
Q 3128 4100 2886 4159 
Q 2644 4219 2406 4219 
Q 1781 4219 1451 3797 
Q 1122 3375 1075 2522 
Q 1259 2794 1537 2939 
Q 1816 3084 2150 3084 
Q 2853 3084 3261 2657 
Q 3669 2231 3669 1497 
Q 3669 778 3244 343 
Q 2819 -91 2113 -91 
Q 1303 -91 875 529 
Q 447 1150 447 2328 
Q 447 3434 972 4092 
Q 1497 4750 2381 4750 
Q 2619 4750 2861 4703 
Q 3103 4656 3366 4563 
z
" transform="scale(0.015625)"/>
       </defs>
       <use xlink:href="#DejaVuSans-35"/>
       <use xlink:href="#DejaVuSans-2e" x="63.623047"/>
       <use xlink:href="#DejaVuSans-38" x="95.410156"/>
       <use xlink:href="#DejaVuSans-32" x="159.033203"/>
       <use xlink:href="#DejaVuSans-36" x="222.65625"/>
      </g>
     </g>
    </g>
    <g id="ytick_4">
     <g id="line2d_11">
      <g>
       <use xlink:href="#mdd5c2e863f" x="90" y="289.764653" style="stroke: #000000; stroke-width: 0.8"/>
      </g>
     </g>
     <g id="text_11">
      <!-- 5.827 -->
      <g transform="translate(54.371875 293.563872) scale(0.1 -0.1)">
       <use xlink:href="#DejaVuSans-35"/>
       <use xlink:href="#DejaVuSans-2e" x="63.623047"/>
       <use xlink:href="#DejaVuSans-38" x="95.410156"/>
       <use xlink:href="#DejaVuSans-32" x="159.033203"/>
       <use xlink:href="#DejaVuSans-37" x="222.65625"/>
      </g>
     </g>
    </g>
    <g id="ytick_5">
     <g id="line2d_12">
      <g>
       <use xlink:href="#mdd5c2e863f" x="90" y="204.992744" style="stroke: #000000; stroke-width: 0.8"/>
      </g>
     </g>
     <g id="text_12">
      <!-- 5.828 -->
      <g transform="translate(54.371875 208.791963) scale(0.1 -0.1)">
       <use xlink:href="#DejaVuSans-35"/>
       <use xlink:href="#DejaVuSans-2e" x="63.623047"/>
       <use xlink:href="#DejaVuSans-38" x="95.410156"/>
       <use xlink:href="#DejaVuSans-32" x="159.033203"/>
       <use xlink:href="#DejaVuSans-38" x="222.65625"/>
      </g>
     </g>
    </g>
    <g id="text_13">
     <!-- 1e6 -->
     <g transform="translate(90 145.926073) scale(0.1 -0.1)">
      <defs>
       <path id="DejaVuSans-65" d="M 3597 1894 
L 3597 1613 
L 953 1613 
Q 991 1019 1311 708 
Q 1631 397 2203 397 
Q 2534 397 2845 478 
Q 3156 559 3463 722 
L 3463 178 
Q 3153 47 2828 -22 
Q 2503 -91 2169 -91 
Q 1331 -91 842 396 
Q 353 884 353 1716 
Q 353 2575 817 3079 
Q 1281 3584 2069 3584 
Q 2775 3584 3186 3129 
Q 3597 2675 3597 1894 
z
M 3022 2063 
Q 3016 2534 2758 2815 
Q 2500 3097 2075 3097 
Q 1594 3097 1305 2825 
Q 1016 2553 972 2059 
L 3022 2063 
z
" transform="scale(0.015625)"/>
      </defs>
      <use xlink:href="#DejaVuSans-31"/>
      <use xlink:href="#DejaVuSans-65" x="63.623047"/>
      <use xlink:href="#DejaVuSans-36" x="125.146484"/>
     </g>
    </g>
   </g>
   <g id="patch_3">
    <path d="M 90 578.273927 
L 90 148.926073 
" style="fill: none; stroke: #000000; stroke-width: 0.8; stroke-linejoin: miter; stroke-linecap: square"/>
   </g>
   <g id="patch_4">
    <path d="M 648 578.273927 
L 648 148.926073 
" style="fill: none; stroke: #000000; stroke-width: 0.8; stroke-linejoin: miter; stroke-linecap: square"/>
   </g>
   <g id="patch_5">
    <path d="M 90 578.273927 
L 648 578.273927 
" style="fill: none; stroke: #000000; stroke-width: 0.8; stroke-linejoin: miter; stroke-linecap: square"/>
   </g>
   <g id="patch_6">
    <path d="M 90 148.926073 
L 648 148.926073 
" style="fill: none; stroke: #000000; stroke-width: 0.8; stroke-linejoin: miter; stroke-linecap: square"/>
   </g>
   <g id="text_14">
    <!-- Hohenschönhausen_Nord -->
    <g transform="translate(267.350525 361.705317) scale(0.12 -0.12)">
     <defs>
      <path id="DejaVuSans-48" d="M 628 4666 
L 1259 4666 
L 1259 2753 
L 3553 2753 
L 3553 4666 
L 4184 4666 
L 4184 0 
L 3553 0 
L 3553 2222 
L 1259 2222 
L 1259 0 
L 628 0 
L 628 4666 
z
" transform="scale(0.015625)"/>
      <path id="DejaVuSans-6f" d="M 1959 3097 
Q 1497 3097 1228 2736 
Q 959 2375 959 1747 
Q 959 1119 1226 758 
Q 1494 397 1959 397 
Q 2419 397 2687 759 
Q 2956 1122 2956 1747 
Q 2956 2369 2687 2733 
Q 2419 3097 1959 3097 
z
M 1959 3584 
Q 2709 3584 3137 3096 
Q 3566 2609 3566 1747 
Q 3566 888 3137 398 
Q 2709 -91 1959 -91 
Q 1206 -91 779 398 
Q 353 888 353 1747 
Q 353 2609 779 3096 
Q 1206 3584 1959 3584 
z
" transform="scale(0.015625)"/>
      <path id="DejaVuSans-68" d="M 3513 2113 
L 3513 0 
L 2938 0 
L 2938 2094 
Q 2938 2591 2744 2837 
Q 2550 3084 2163 3084 
Q 1697 3084 1428 2787 
Q 1159 2491 1159 1978 
L 1159 0 
L 581 0 
L 581 4863 
L 1159 4863 
L 1159 2956 
Q 1366 3272 1645 3428 
Q 1925 3584 2291 3584 
Q 2894 3584 3203 3211 
Q 3513 2838 3513 2113 
z
" transform="scale(0.015625)"/>
      <path id="DejaVuSans-6e" d="M 3513 2113 
L 3513 0 
L 2938 0 
L 2938 2094 
Q 2938 2591 2744 2837 
Q 2550 3084 2163 3084 
Q 1697 3084 1428 2787 
Q 1159 2491 1159 1978 
L 1159 0 
L 581 0 
L 581 3500 
L 1159 3500 
L 1159 2956 
Q 1366 3272 1645 3428 
Q 1925 3584 2291 3584 
Q 2894 3584 3203 3211 
Q 3513 2838 3513 2113 
z
" transform="scale(0.015625)"/>
      <path id="DejaVuSans-73" d="M 2834 3397 
L 2834 2853 
Q 2591 2978 2328 3040 
Q 2066 3103 1784 3103 
Q 1356 3103 1142 2972 
Q 928 2841 928 2578 
Q 928 2378 1081 2264 
Q 1234 2150 1697 2047 
L 1894 2003 
Q 2506 1872 2764 1633 
Q 3022 1394 3022 966 
Q 3022 478 2636 193 
Q 2250 -91 1575 -91 
Q 1294 -91 989 -36 
Q 684 19 347 128 
L 347 722 
Q 666 556 975 473 
Q 1284 391 1588 391 
Q 1994 391 2212 530 
Q 2431 669 2431 922 
Q 2431 1156 2273 1281 
Q 2116 1406 1581 1522 
L 1381 1569 
Q 847 1681 609 1914 
Q 372 2147 372 2553 
Q 372 3047 722 3315 
Q 1072 3584 1716 3584 
Q 2034 3584 2315 3537 
Q 2597 3491 2834 3397 
z
" transform="scale(0.015625)"/>
      <path id="DejaVuSans-63" d="M 3122 3366 
L 3122 2828 
Q 2878 2963 2633 3030 
Q 2388 3097 2138 3097 
Q 1578 3097 1268 2742 
Q 959 2388 959 1747 
Q 959 1106 1268 751 
Q 1578 397 2138 397 
Q 2388 397 2633 464 
Q 2878 531 3122 666 
L 3122 134 
Q 2881 22 2623 -34 
Q 2366 -91 2075 -91 
Q 1284 -91 818 406 
Q 353 903 353 1747 
Q 353 2603 823 3093 
Q 1294 3584 2113 3584 
Q 2378 3584 2631 3529 
Q 2884 3475 3122 3366 
z
" transform="scale(0.015625)"/>
      <path id="DejaVuSans-f6" d="M 1959 3097 
Q 1497 3097 1228 2736 
Q 959 2375 959 1747 
Q 959 1119 1226 758 
Q 1494 397 1959 397 
Q 2419 397 2687 759 
Q 2956 1122 2956 1747 
Q 2956 2369 2687 2733 
Q 2419 3097 1959 3097 
z
M 1959 3584 
Q 2709 3584 3137 3096 
Q 3566 2609 3566 1747 
Q 3566 888 3137 398 
Q 2709 -91 1959 -91 
Q 1206 -91 779 398 
Q 353 888 353 1747 
Q 353 2609 779 3096 
Q 1206 3584 1959 3584 
z
M 2254 4850 
L 2888 4850 
L 2888 4219 
L 2254 4219 
L 2254 4850 
z
M 1032 4850 
L 1666 4850 
L 1666 4219 
L 1032 4219 
L 1032 4850 
z
" transform="scale(0.015625)"/>
      <path id="DejaVuSans-61" d="M 2194 1759 
Q 1497 1759 1228 1600 
Q 959 1441 959 1056 
Q 959 750 1161 570 
Q 1363 391 1709 391 
Q 2188 391 2477 730 
Q 2766 1069 2766 1631 
L 2766 1759 
L 2194 1759 
z
M 3341 1997 
L 3341 0 
L 2766 0 
L 2766 531 
Q 2569 213 2275 61 
Q 1981 -91 1556 -91 
Q 1019 -91 701 211 
Q 384 513 384 1019 
Q 384 1609 779 1909 
Q 1175 2209 1959 2209 
L 2766 2209 
L 2766 2266 
Q 2766 2663 2505 2880 
Q 2244 3097 1772 3097 
Q 1472 3097 1187 3025 
Q 903 2953 641 2809 
L 641 3341 
Q 956 3463 1253 3523 
Q 1550 3584 1831 3584 
Q 2591 3584 2966 3190 
Q 3341 2797 3341 1997 
z
" transform="scale(0.015625)"/>
      <path id="DejaVuSans-75" d="M 544 1381 
L 544 3500 
L 1119 3500 
L 1119 1403 
Q 1119 906 1312 657 
Q 1506 409 1894 409 
Q 2359 409 2629 706 
Q 2900 1003 2900 1516 
L 2900 3500 
L 3475 3500 
L 3475 0 
L 2900 0 
L 2900 538 
Q 2691 219 2414 64 
Q 2138 -91 1772 -91 
Q 1169 -91 856 284 
Q 544 659 544 1381 
z
M 1991 3584 
L 1991 3584 
z
" transform="scale(0.015625)"/>
      <path id="DejaVuSans-5f" d="M 3263 -1063 
L 3263 -1509 
L -63 -1509 
L -63 -1063 
L 3263 -1063 
z
" transform="scale(0.015625)"/>
      <path id="DejaVuSans-4e" d="M 628 4666 
L 1478 4666 
L 3547 763 
L 3547 4666 
L 4159 4666 
L 4159 0 
L 3309 0 
L 1241 3903 
L 1241 0 
L 628 0 
L 628 4666 
z
" transform="scale(0.015625)"/>
      <path id="DejaVuSans-72" d="M 2631 2963 
Q 2534 3019 2420 3045 
Q 2306 3072 2169 3072 
Q 1681 3072 1420 2755 
Q 1159 2438 1159 1844 
L 1159 0 
L 581 0 
L 581 3500 
L 1159 3500 
L 1159 2956 
Q 1341 3275 1631 3429 
Q 1922 3584 2338 3584 
Q 2397 3584 2469 3576 
Q 2541 3569 2628 3553 
L 2631 2963 
z
" transform="scale(0.015625)"/>
      <path id="DejaVuSans-64" d="M 2906 2969 
L 2906 4863 
L 3481 4863 
L 3481 0 
L 2906 0 
L 2906 525 
Q 2725 213 2448 61 
Q 2172 -91 1784 -91 
Q 1150 -91 751 415 
Q 353 922 353 1747 
Q 353 2572 751 3078 
Q 1150 3584 1784 3584 
Q 2172 3584 2448 3432 
Q 2725 3281 2906 2969 
z
M 947 1747 
Q 947 1113 1208 752 
Q 1469 391 1925 391 
Q 2381 391 2643 752 
Q 2906 1113 2906 1747 
Q 2906 2381 2643 2742 
Q 2381 3103 1925 3103 
Q 1469 3103 1208 2742 
Q 947 2381 947 1747 
z
" transform="scale(0.015625)"/>
     </defs>
     <use xlink:href="#DejaVuSans-48"/>
     <use xlink:href="#DejaVuSans-6f" x="75.195312"/>
     <use xlink:href="#DejaVuSans-68" x="136.376953"/>
     <use xlink:href="#DejaVuSans-65" x="199.755859"/>
     <use xlink:href="#DejaVuSans-6e" x="261.279297"/>
     <use xlink:href="#DejaVuSans-73" x="324.658203"/>
     <use xlink:href="#DejaVuSans-63" x="376.757812"/>
     <use xlink:href="#DejaVuSans-68" x="431.738281"/>
     <use xlink:href="#DejaVuSans-f6" x="495.117188"/>
     <use xlink:href="#DejaVuSans-6e" x="556.298828"/>
     <use xlink:href="#DejaVuSans-68" x="619.677734"/>
     <use xlink:href="#DejaVuSans-61" x="683.056641"/>
     <use xlink:href="#DejaVuSans-75" x="744.335938"/>
     <use xlink:href="#DejaVuSans-73" x="807.714844"/>
     <use xlink:href="#DejaVuSans-65" x="859.814453"/>
     <use xlink:href="#DejaVuSans-6e" x="921.337891"/>
     <use xlink:href="#DejaVuSans-5f" x="984.716797"/>
     <use xlink:href="#DejaVuSans-4e" x="1034.716797"/>
     <use xlink:href="#DejaVuSans-6f" x="1109.521484"/>
     <use xlink:href="#DejaVuSans-72" x="1170.703125"/>
     <use xlink:href="#DejaVuSans-64" x="1210.066406"/>
    </g>
   </g>
  </g>
 </g>
 <defs>
  <clipPath id="pba7ea65a57">
   <rect x="90" y="148.926073" width="558" height="429.347854"/>
  </clipPath>
 </defs>
</svg>
