<?xml version="1.0" encoding="utf-8" standalone="no"?>
<!DOCTYPE svg PUBLIC "-//W3C//DTD SVG 1.1//EN"
  "http://www.w3.org/Graphics/SVG/1.1/DTD/svg11.dtd">
<svg xmlns:xlink="http://www.w3.org/1999/xlink" width="720pt" height="720pt" viewBox="0 0 720 720" xmlns="http://www.w3.org/2000/svg" version="1.1">
 <metadata>
  <rdf:RDF xmlns:dc="http://purl.org/dc/elements/1.1/" xmlns:cc="http://creativecommons.org/ns#" xmlns:rdf="http://www.w3.org/1999/02/22-rdf-syntax-ns#">
   <cc:Work>
    <dc:type rdf:resource="http://purl.org/dc/dcmitype/StillImage"/>
    <dc:date>2024-10-22T09:54:09.333773</dc:date>
    <dc:format>image/svg+xml</dc:format>
    <dc:creator>
     <cc:Agent>
      <dc:title>Matplotlib v3.9.2, https://matplotlib.org/</dc:title>
     </cc:Agent>
    </dc:creator>
   </cc:Work>
  </rdf:RDF>
 </metadata>
 <defs>
  <style type="text/css">*{stroke-linejoin: round; stroke-linecap: butt}</style>
 </defs>
 <g id="figure_1">
  <g id="patch_1">
   <path d="M 0 720 
L 720 720 
L 720 0 
L 0 0 
z
" style="fill: #ffffff"/>
  </g>
  <g id="axes_1">
   <g id="patch_2">
    <path d="M 101.077191 640.8 
L 636.922809 640.8 
L 636.922809 86.4 
L 101.077191 86.4 
z
" style="fill: #ffffff"/>
   </g>
   <g id="PatchCollection_1">
    <path d="M 179.402803 564.860382 
L 179.436725 564.922899 
L 179.476959 564.98152 
L 179.523041 565.035653 
L 179.574433 565.084628 
L 179.634401 565.12642 
L 179.696995 565.164164 
L 179.761912 565.197715 
L 179.828847 565.226927 
L 179.919306 565.240895 
L 180.010545 565.248663 
L 180.102114 565.250318 
L 180.193485 565.245718 
L 180.284436 565.235018 
L 180.34502 565.22409 
L 180.404049 565.206709 
L 180.460926 565.183112 
L 180.514906 565.153539 
L 180.565467 565.118304 
L 180.611943 565.077871 
L 180.672537 565.006394 
L 180.728934 564.931606 
L 180.780984 564.853662 
L 180.82847 564.772868 
L 180.909023 564.627174 
L 180.944639 564.531383 
L 180.974128 564.433527 
L 180.997195 564.333989 
L 181.013849 564.233144 
L 181.024023 564.131448 
L 181.022136 564.024109 
L 181.013417 563.917132 
L 180.997876 563.810969 
L 180.975594 563.705995 
L 180.946655 563.60266 
L 180.911144 563.501417 
L 180.765739 563.021105 
L 180.557177 562.298788 
L 180.482515 562.010639 
L 180.453927 561.146088 
L 180.62579 560.881859 
L 180.870132 560.531288 
L 181.351988 559.907044 
L 182.985113 557.444106 
L 183.525037 556.535421 
L 184.438455 552.526471 
L 184.577239 551.91747 
L 184.746463 551.174777 
L 186.376142 541.917897 
L 186.502656 541.055328 
L 186.509522 540.98024 
L 186.52453 540.906423 
L 186.547469 540.834637 
L 186.577981 540.765716 
L 186.615859 540.700646 
L 186.660589 540.64004 
L 186.711586 540.58474 
L 186.768335 540.535282 
L 186.830098 540.492361 
L 187.006409 540.40012 
L 186.980306 540.100828 
L 190.593927 538.234919 
L 191.664655 537.685002 
L 194.281048 536.340146 
L 195.242913 535.8454 
L 196.586352 535.15483 
L 197.924832 534.456445 
L 199.268125 533.765586 
L 200.484784 533.124814 
L 200.817877 532.924896 
L 203.347217 531.411034 
L 204.221139 530.887963 
L 205.530109 530.101363 
L 206.839086 529.314842 
L 208.476783 528.330839 
L 210.448996 527.1457 
L 210.619517 527.301968 
L 212.728086 528.962933 
L 216.582702 532.060102 
L 217.591931 532.86898 
L 219.726895 534.583831 
L 221.467213 535.981702 
L 222.702865 535.464972 
L 223.593945 535.095736 
L 224.995572 534.51067 
L 226.840514 533.742172 
L 228.671524 532.979536 
L 229.712646 532.545531 
L 231.377627 531.851476 
L 233.394653 531.010706 
L 234.502732 530.533246 
L 234.679749 530.457076 
L 235.676779 530.027574 
L 236.850379 529.521914 
L 238.024508 529.016247 
L 239.129844 528.540138 
L 240.234733 528.064115 
L 243.542864 526.639138 
L 244.264882 526.328168 
L 245.34605 527.143702 
L 249.3464 530.161438 
L 250.548896 530.967594 
L 251.924009 532.050344 
L 257.462744 536.236548 
L 260.329042 538.527792 
L 262.561899 540.329875 
L 263.451136 541.112197 
L 266.278952 543.673887 
L 267.246144 544.303281 
L 270.880388 547.168936 
L 275.833812 551.44016 
L 283.003328 557.622716 
L 289.512426 562.419773 
L 291.982083 564.558315 
L 296.801024 568.771063 
L 297.472327 569.39424 
L 297.645893 569.555389 
L 298.417977 570.369034 
L 300.367934 572.379621 
L 305.440635 576.321662 
L 307.048179 577.871972 
L 311.788008 582.531642 
L 312.033066 582.772543 
L 312.178758 582.44464 
L 312.319162 582.111411 
L 313.509245 583.368554 
L 313.573435 583.419594 
L 313.666239 583.493387 
L 315.106721 584.638289 
L 317.097387 586.220554 
L 318.480838 587.320205 
L 319.801723 588.367464 
L 322.872286 590.801959 
L 323.570507 591.352422 
L 323.84224 591.566572 
L 325.479891 592.881417 
L 326.819899 593.956003 
L 327.934677 594.854824 
L 329.029307 595.733983 
L 329.627811 596.191911 
L 331.208165 596.036829 
L 333.246109 595.824242 
L 334.418458 595.71019 
L 337.388227 595.396084 
L 338.093248 595.317646 
L 339.009428 595.219432 
L 339.635342 595.239726 
L 341.177843 595.280567 
L 342.702725 595.319645 
L 344.766912 595.349642 
L 345.936764 595.394703 
L 348.211496 595.439494 
L 348.61036 595.450399 
L 350.200625 595.493747 
L 351.602682 595.519403 
L 352.176667 595.527904 
L 353.104818 595.563714 
L 356.725661 595.659813 
L 356.690434 597.112707 
L 355.708651 609.017378 
L 355.699992 609.122131 
L 355.687078 609.279222 
L 355.647339 609.761221 
L 355.590092 610.45454 
L 356.990332 610.901234 
L 371.642904 615.576179 
L 371.717527 615.6 
L 372.664381 614.335828 
L 371.98891 614.14308 
L 373.132303 612.633598 
L 374.000261 611.431803 
L 375.932212 608.826353 
L 376.285873 608.349238 
L 376.639156 607.871979 
L 377.922563 606.141669 
L 378.909775 604.812567 
L 380.216836 603.048858 
L 381.207542 601.713059 
L 381.814439 600.928624 
L 381.900203 600.957284 
L 391.059544 588.611003 
L 391.956559 587.401907 
L 392.763981 586.313675 
L 393.571333 585.225446 
L 394.378616 584.137295 
L 395.682709 582.383729 
L 397.024512 580.569646 
L 398.122997 579.090516 
L 396.750137 578.070217 
L 396.389298 577.796423 
L 395.002696 576.761464 
L 394.373578 576.295498 
L 392.842676 575.150443 
L 392.233851 574.983822 
L 390.154786 574.409047 
L 389.835968 574.321153 
L 389.612114 574.25933 
L 389.113407 574.121512 
L 387.687816 573.729851 
L 386.600835 573.431512 
L 386.045702 573.278722 
L 385.290767 573.072322 
L 383.914414 572.693603 
L 383.792321 572.659684 
L 383.138449 572.480072 
L 383.413151 570.752773 
L 383.458709 570.596488 
L 383.697043 568.967539 
L 383.933643 567.47963 
L 384.111416 566.361882 
L 384.347824 564.87556 
L 384.584703 563.386289 
L 384.666185 562.954915 
L 384.821777 561.895279 
L 384.90142 561.465978 
L 385.127556 559.972766 
L 385.16492 559.737615 
L 385.354443 558.546198 
L 385.363049 558.485332 
L 385.531676 557.431176 
L 385.826418 555.567767 
L 385.999086 554.445821 
L 386.270937 552.737054 
L 386.389296 551.993703 
L 386.442406 551.713383 
L 386.507103 551.249005 
L 386.546526 550.999638 
L 386.677809 550.22467 
L 386.742645 549.759686 
L 386.913128 548.735355 
L 387.105846 547.490341 
L 387.148293 547.245818 
L 387.233439 546.706999 
L 387.349035 545.980139 
L 387.354403 545.946406 
L 387.383908 545.760042 
L 387.586662 544.47766 
L 387.620498 544.2701 
L 387.823833 542.986576 
L 387.856222 542.781985 
L 387.942006 542.241043 
L 388.059854 541.498154 
L 388.094564 541.293065 
L 388.296224 540.008293 
L 388.330959 539.804485 
L 388.551378 538.403983 
L 388.566633 538.317352 
L 388.803231 536.827411 
L 388.805713 536.811755 
L 389.037689 535.339397 
L 389.055498 535.225193 
L 389.275511 533.850337 
L 389.32708 533.516662 
L 389.502195 532.352595 
L 389.618517 531.678958 
L 389.747376 530.87086 
L 389.942615 529.638844 
L 389.989538 529.341226 
L 390.496839 528.647549 
L 391.355855 527.479979 
L 392.03979 526.55036 
L 392.247697 526.267818 
L 392.942813 525.31348 
L 393.139983 525.055048 
L 393.834249 524.09922 
L 394.037025 523.823338 
L 394.72584 522.884884 
L 394.925181 522.629804 
L 395.613269 521.676662 
L 395.81688 521.416826 
L 396.505118 520.463457 
L 396.754806 520.144674 
L 397.396311 519.25102 
L 398.091528 518.324212 
L 398.288172 518.037819 
L 399.179965 516.824696 
L 399.429066 516.502458 
L 400.066126 515.627293 
L 400.754479 514.690669 
L 400.95917 514.41219 
L 401.702565 513.409513 
L 401.850966 513.19832 
L 402.63855 512.135905 
L 402.743272 511.983312 
L 403.574838 510.862144 
L 403.635951 510.767846 
L 404.510619 509.588998 
L 404.528563 509.552459 
L 405.423843 508.330916 
L 405.446844 508.315167 
L 406.383078 507.04149 
L 407.386384 505.678078 
L 407.727333 505.21347 
L 408.051524 504.771699 
L 409.519672 502.769975 
L 409.882156 502.267163 
L 410.559622 501.360099 
L 410.773641 501.053623 
L 411.518543 500.05629 
L 411.660319 499.851865 
L 412.389373 498.874594 
L 412.553745 498.63701 
L 413.187773 497.773087 
L 413.449945 497.417581 
L 413.992244 496.682322 
L 414.345204 496.203676 
L 414.797162 495.591024 
L 415.236883 494.990973 
L 415.621338 494.476661 
L 416.130853 493.767974 
L 416.423699 493.384812 
L 417.068548 492.492185 
L 417.226138 492.292888 
L 417.996598 491.230608 
L 418.657713 490.331188 
L 418.667898 490.317345 
L 419.364696 489.369284 
L 420.008677 488.489498 
L 420.425315 487.93167 
L 420.990615 487.155414 
L 421.537423 486.418497 
L 421.973622 485.821765 
L 422.44306 485.186242 
L 422.956157 484.486695 
L 423.264951 484.067869 
L 423.938576 483.153062 
L 424.021197 483.038977 
L 424.920916 481.818831 
L 425.357089 481.224139 
L 425.903496 480.484974 
L 426.15887 480.130437 
L 426.877204 479.150687 
L 427.855119 477.819866 
L 427.938816 477.706893 
L 428.829066 476.493422 
L 428.838244 476.481936 
L 429.81888 475.147222 
L 430.613482 474.065959 
L 431.504003 472.853998 
L 432.176957 471.945177 
L 433.023224 470.793182 
L 433.862171 469.651283 
L 434.070941 469.375234 
L 434.699802 468.51107 
L 434.959894 468.162633 
L 435.538906 467.368946 
L 435.848411 466.950495 
L 436.376034 466.229425 
L 436.738829 465.735231 
L 437.213608 465.08937 
L 437.628658 464.520357 
L 438.049722 463.951305 
L 438.520837 463.306195 
L 438.890384 462.807048 
L 439.413802 462.085611 
L 439.728561 461.666233 
L 440.307229 460.87716 
L 440.567107 460.52481 
L 441.165256 459.704451 
L 441.404562 459.385068 
L 442.270015 458.207167 
L 442.434752 457.982937 
L 442.937685 457.298392 
L 444.940207 454.565296 
L 445.832529 453.352206 
L 446.724674 452.137386 
L 447.615812 450.924699 
L 448.507715 449.712377 
L 449.401358 448.500326 
L 450.293565 447.28755 
L 451.185773 446.07455 
L 452.077992 444.861779 
L 452.970064 443.648937 
L 453.862291 442.436019 
L 454.754452 441.223255 
L 456.699078 438.579778 
L 457.372247 437.663988 
L 459.089344 435.326325 
L 459.982809 434.117094 
L 460.874005 432.902931 
L 461.764704 431.68599 
L 464.933693 427.374987 
L 465.098453 427.15054 
L 465.655105 426.396161 
L 463.890566 426.036592 
L 463.518636 425.960652 
L 454.054881 424.031441 
L 450.955231 423.254842 
L 445.885229 421.635754 
L 444.058549 420.76125 
L 443.355 420.42888 
L 436.502815 416.658141 
L 436.616335 416.301648 
L 438.73564 409.649808 
L 438.764554 409.553116 
L 441.350505 403.081567 
L 441.591657 402.477349 
L 442.398343 400.458387 
L 445.444609 392.693422 
L 446.574439 389.312238 
L 446.681385 388.98875 
L 448.388198 383.82163 
L 449.639689 379.208825 
L 450.591999 375.792133 
L 451.819511 370.324337 
L 451.822386 370.309428 
L 451.913085 369.842381 
L 452.091866 368.928847 
L 452.852407 364.838013 
L 455.043822 351.966725 
L 456.095638 346.295161 
L 456.831326 342.3287 
L 457.126743 340.755274 
L 457.350639 339.44328 
L 457.466221 338.903675 
L 457.65741 338.020446 
L 458.928856 332.097158 
L 460.748745 324.25006 
L 461.479559 321.403223 
L 461.484593 321.387066 
L 461.713099 320.658612 
L 461.76289 320.500146 
L 461.81246 320.34191 
L 461.816073 320.330153 
L 462.048693 319.588577 
L 463.041732 316.422468 
L 463.538297 314.917004 
L 463.746788 314.274893 
L 464.007452 313.484827 
L 464.365278 312.39273 
L 464.610276 311.641042 
L 464.89579 310.987588 
L 465.498926 309.604742 
L 466.10067 308.223657 
L 466.702492 306.842496 
L 467.304319 305.461337 
L 467.616427 304.762137 
L 468.38348 302.995011 
L 468.834604 301.955586 
L 469.713226 299.931401 
L 469.873733 299.562564 
L 470.625361 297.829669 
L 471.044859 296.863084 
L 471.591847 295.602867 
L 472.138406 294.343563 
L 472.37839 293.79059 
L 472.674241 293.085747 
L 473.212481 291.807752 
L 473.750511 290.530366 
L 474.418968 288.943306 
L 475.844754 285.591888 
L 475.849508 285.580789 
L 475.979482 285.275045 
L 476.185483 284.789678 
L 476.278649 284.569841 
L 476.288369 284.546959 
L 477.631934 281.375968 
L 477.977771 280.569064 
L 478.248501 279.98648 
L 478.889923 278.606549 
L 479.530549 277.228067 
L 480.172409 275.846924 
L 480.741063 274.623484 
L 482.426277 271.207523 
L 482.679237 270.694802 
L 482.764043 270.529717 
L 482.932486 270.181472 
L 483.115107 269.811318 
L 484.230811 267.783575 
L 484.536452 267.236451 
L 485.271934 265.920198 
L 486.007134 264.60463 
L 486.740136 263.291895 
L 487.475521 261.977608 
L 488.211886 260.659158 
L 488.433434 260.262781 
L 489.059267 259.404204 
L 489.954038 258.177007 
L 490.561771 257.343433 
L 491.687871 255.79893 
L 493.645202 253.114106 
L 493.819118 252.875626 
L 494.422834 252.047488 
L 494.584799 251.825371 
L 494.985978 251.277427 
L 495.068274 251.162234 
L 496.598765 248.775064 
L 497.56897 247.628572 
L 499.795809 245.027201 
L 500.192965 244.5843 
L 500.802436 243.904459 
L 500.818718 243.886355 
L 501.462967 243.167928 
L 502.415162 242.105941 
L 503.341428 241.072799 
L 504.414855 240.017194 
L 504.816214 239.621195 
L 504.886541 239.553132 
L 506.043753 238.432608 
L 507.223728 237.290167 
L 508.038483 236.501643 
L 508.395343 236.138839 
L 509.546596 234.96837 
L 510.697934 233.797979 
L 511.849278 232.627516 
L 512.590986 231.873487 
L 513.001317 231.457647 
L 515.102293 229.32859 
L 515.689786 228.733264 
L 516.321642 228.092914 
L 516.576148 227.786492 
L 517.397413 226.797822 
L 518.174326 225.862547 
L 518.968602 224.906286 
L 519.361549 224.433249 
L 519.847009 223.891508 
L 520.048538 223.667751 
L 521.323486 222.24653 
L 522.590336 220.834213 
L 523.857273 219.421975 
L 525.124734 218.009128 
L 525.322789 217.788305 
L 526.351483 216.759171 
L 527.691557 215.418633 
L 529.032672 214.076949 
L 530.373799 212.735345 
L 530.684585 212.424404 
L 531.552736 211.765904 
L 533.063569 210.619875 
L 534.574412 209.473853 
L 536.085857 208.327373 
L 538.730426 206.321377 
L 538.752081 206.304758 
L 539.065679 206.066912 
L 539.252512 205.925505 
L 539.65907 205.617797 
L 540.786178 204.762391 
L 541.882435 203.930417 
L 543.087293 203.016399 
L 544.293066 202.102745 
L 545.321633 201.322876 
L 545.498462 201.188725 
L 546.703535 200.273207 
L 547.780684 199.455861 
L 547.909479 199.359713 
L 549.113834 198.445423 
L 550.198282 197.623574 
L 551.282965 196.801949 
L 553.559501 195.07594 
L 553.661334 195.006163 
L 553.782249 194.914916 
L 553.90976 194.818341 
L 554.389462 194.494972 
L 554.517246 194.40895 
L 554.740783 194.261936 
L 554.853617 194.18102 
L 556.395328 193.137812 
L 557.641908 192.294918 
L 558.890309 191.448527 
L 559.217093 191.226587 
L 560.346265 190.460858 
L 561.806317 189.47048 
L 562.136266 189.248635 
L 562.299718 189.138721 
L 562.69215 188.874835 
L 562.786878 188.811152 
L 563.976767 188.004708 
L 565.122401 187.229109 
L 565.563191 186.931971 
L 566.304243 186.442428 
L 566.375243 186.39314 
L 567.543027 185.614721 
L 567.626162 185.554573 
L 568.793625 184.778878 
L 568.877262 184.717365 
L 570.039924 183.946137 
L 570.29569 183.775908 
L 571.383953 183.048908 
L 571.766825 182.792073 
L 572.433203 182.347601 
L 573.183799 181.844396 
L 573.665303 181.523131 
L 575.761657 180.121327 
L 577.580689 178.907354 
L 577.862757 178.718993 
L 578.050009 178.593938 
L 578.245068 178.467906 
L 578.524678 178.280874 
L 579.986343 177.303282 
L 580.036426 177.269846 
L 580.938486 176.665799 
L 581.288536 176.431379 
L 581.892387 176.02557 
L 582.540387 175.594807 
L 582.837909 175.395756 
L 583.771123 174.771452 
L 583.79456 174.757441 
L 584.984718 173.960562 
L 585.613046 173.539598 
L 586.546476 172.918313 
L 587.443368 172.318451 
L 587.475257 172.297722 
L 587.998353 171.942143 
L 589.344372 171.046075 
L 589.458639 170.964615 
L 590.845146 170.036503 
L 591.314555 169.730718 
L 592.207984 169.125804 
L 593.247831 168.428428 
L 593.550836 168.232374 
L 594.185352 167.799245 
L 594.829939 167.361404 
L 595.032874 167.217364 
L 595.122197 167.149642 
L 596.075367 166.431045 
L 596.502107 166.107967 
L 597.020024 165.67521 
L 597.452656 165.312813 
L 597.972704 164.877227 
L 597.99115 164.861727 
L 598.516298 164.356374 
L 599.089784 163.79221 
L 599.866031 163.03779 
L 600.62912 162.283693 
L 601.686827 161.237644 
L 602.761593 160.170016 
L 603.914068 159.040771 
L 604.430116 158.530619 
L 604.531277 158.423621 
L 604.944024 158.010556 
L 607.06222 155.89521 
L 607.972066 154.983892 
L 608.583573 154.370927 
L 608.697263 154.257814 
L 610.572746 152.432263 
L 610.773198 152.238738 
L 612.522936 150.447285 
L 612.56619 150.40629 
L 612.389731 149.836813 
L 612.086432 149.17454 
L 611.107799 147.952462 
L 610.481488 146.754134 
L 610.17005 145.511559 
L 609.893129 143.262311 
L 608.948866 139.599622 
L 608.901455 139.035434 
L 608.471476 137.933284 
L 607.738953 135.282335 
L 606.764909 129.733693 
L 606.444935 128.960968 
L 606.188306 127.158335 
L 606.060066 126.257018 
L 605.978309 125.537234 
L 604.448189 117.765295 
L 604.386941 117.765306 
L 599.845223 117.821675 
L 597.521971 117.852593 
L 596.955404 117.857589 
L 596.386346 117.866252 
L 594.621282 117.886617 
L 593.169593 117.898121 
L 592.885533 117.901391 
L 591.66519 117.951785 
L 590.161699 118.013959 
L 589.920653 118.023893 
L 588.657843 118.105026 
L 588.322615 118.128333 
L 587.148768 118.186544 
L 585.647866 118.262412 
L 585.136505 118.286376 
L 583.182081 118.251598 
L 582.564566 118.211724 
L 581.658915 118.158241 
L 580.375619 118.084756 
L 579.467889 118.028753 
L 578.539669 117.975549 
L 577.958229 117.957704 
L 577.078953 117.930658 
L 576.533525 117.947505 
L 575.108593 117.997713 
L 574.196035 118.029885 
L 573.686804 118.079312 
L 572.191085 118.223151 
L 570.690859 118.367382 
L 569.345128 118.500505 
L 567.997069 118.629831 
L 567.738994 118.654576 
L 566.923534 118.732751 
L 566.500168 118.790757 
L 565.158621 118.974488 
L 564.521881 119.061607 
L 563.814281 119.14968 
L 562.471074 119.316938 
L 561.706123 119.412199 
L 561.197269 119.405083 
L 560.776998 119.399096 
L 559.897167 119.378509 
L 558.607137 119.339234 
L 557.849189 119.318024 
L 557.080065 119.294688 
L 554.091257 119.198881 
L 553.524883 119.18592 
L 552.958492 119.168058 
L 550.221761 119.085041 
L 550.060134 119.08084 
L 548.806522 118.901042 
L 548.651717 118.87937 
L 547.39051 118.699946 
L 547.23707 118.678853 
L 545.978299 118.496974 
L 545.819498 118.474927 
L 544.562383 118.293098 
L 544.402513 118.270241 
L 543.148278 118.089645 
L 542.985308 118.065943 
L 541.734249 117.886271 
L 541.569672 117.861167 
L 541.394414 117.836265 
L 540.318226 117.713102 
L 540.149024 117.694194 
L 538.898501 117.551243 
L 538.731411 117.532597 
L 537.482453 117.388943 
L 537.312276 117.370205 
L 536.929427 117.325613 
L 536.084912 117.017886 
L 535.422328 116.781986 
L 533.401109 116.047328 
L 533.298224 116.009831 
L 533.162162 115.960592 
L 532.961397 115.88769 
L 532.176971 115.602742 
L 531.999314 115.538302 
L 531.890521 115.49873 
L 531.662253 115.41579 
L 527.164078 113.853326 
L 526.924213 113.770004 
L 526.724793 113.700699 
L 525.28637 113.477942 
L 523.806003 113.241505 
L 522.053184 112.961655 
L 521.5999 112.897144 
L 521.355335 112.860062 
L 521.121996 112.851798 
L 517.045308 112.635898 
L 516.936642 112.627243 
L 515.080787 112.562462 
L 513.574977 112.50201 
L 512.443699 112.459596 
L 512.059974 112.444905 
L 510.751361 112.395442 
L 510.555818 112.388431 
L 509.306242 112.341401 
L 509.124155 112.329688 
L 507.689383 112.297701 
L 507.362703 112.291513 
L 506.243174 112.261714 
L 505.560479 112.253892 
L 504.889077 112.230399 
L 501.768183 112.15682 
L 501.617823 112.155745 
L 501.308947 112.156011 
L 500.73032 112.156408 
L 497.661459 112.23261 
L 496.9956 112.251705 
L 496.459376 112.262163 
L 495.489878 112.279925 
L 494.923451 112.288846 
L 493.984984 112.30821 
L 493.411935 112.317033 
L 492.479263 112.336442 
L 491.900642 112.345147 
L 490.970971 112.36405 
L 490.385845 112.374917 
L 489.582813 112.389915 
L 489.428092 112.38101 
L 488.878854 112.347841 
L 488.037878 112.302033 
L 487.373219 112.261102 
L 486.643607 112.219368 
L 485.246054 112.138279 
L 482.576425 111.982482 
L 481.967898 111.949619 
L 481.324305 111.912597 
L 478.981703 111.797444 
L 477.620442 111.729719 
L 476.473655 111.671348 
L 476.028993 111.649407 
L 475.053558 111.6 
L 474.519636 111.668582 
L 471.525756 112.052808 
L 470.618924 112.169203 
L 467.991017 112.500428 
L 467.315507 112.593882 
L 466.64864 112.678879 
L 466.089551 112.753306 
L 466.046814 112.757437 
L 465.817996 112.789312 
L 465.071036 112.908259 
L 464.865034 112.940983 
L 464.787097 112.953776 
L 463.524619 113.1553 
L 463.085065 113.224214 
L 462.25763 113.341079 
L 461.591876 113.436998 
L 460.979251 113.52527 
L 460.090384 113.652282 
L 459.300049 113.765281 
L 458.613311 113.8656 
L 458.478423 113.882797 
L 457.562768 114.013644 
L 457.122705 114.079408 
L 456.231163 114.204068 
L 454.149112 114.499809 
L 452.567134 114.727893 
L 452.413021 114.755036 
L 450.820744 114.979554 
L 450.635674 115.004949 
L 450.437322 115.329573 
L 450.347834 115.276838 
L 448.748386 114.287581 
L 446.709225 113.026368 
L 446.379845 113.400923 
L 445.748091 114.113927 
L 445.089635 114.85896 
L 445.181678 115.450026 
L 445.47157 117.313975 
L 445.828316 119.60788 
L 447.282382 120.49833 
L 446.96444 121.019175 
L 445.358983 123.649266 
L 445.286495 123.758626 
L 442.961835 122.339483 
L 441.909718 123.337324 
L 441.660782 123.577034 
L 440.462749 124.715879 
L 439.324157 125.798926 
L 438.184819 126.881991 
L 437.159838 127.85731 
L 436.134771 128.831804 
L 435.114304 129.802594 
L 434.0908 130.775631 
L 433.124492 131.693664 
L 432.159508 132.613862 
L 431.194499 133.532479 
L 430.229495 134.451098 
L 429.26286 135.370732 
L 428.297196 136.289746 
L 427.27411 137.263096 
L 425.702316 138.758335 
L 424.378927 140.018017 
L 423.1955 141.143973 
L 423.128244 141.227299 
L 423.016364 141.377307 
L 421.567767 139.53322 
L 420.12116 137.691588 
L 418.331475 139.098587 
L 416.752993 140.339506 
L 415.413655 141.392392 
L 414.153048 142.383375 
L 412.962794 143.319101 
L 411.670253 144.335287 
L 411.111092 143.855131 
L 408.23303 141.3834 
L 403.798924 137.613924 
L 402.920821 137.26085 
L 394.376462 133.890198 
L 393.693444 133.639489 
L 392.727609 132.26535 
L 392.524865 131.968236 
L 390.849784 129.618894 
L 389.472553 130.726441 
L 389.23869 130.914396 
L 388.243526 131.714645 
L 387.016582 132.701228 
L 385.780235 133.695462 
L 384.549971 134.684833 
L 384.331378 134.860508 
L 383.331714 135.664325 
L 383.212047 135.760657 
L 383.065407 135.878621 
L 382.983528 135.944441 
L 381.733419 136.949661 
L 380.505546 137.937039 
L 379.133858 139.040145 
L 377.283885 140.527831 
L 376.541116 140.331464 
L 376.285436 140.263928 
L 375.439366 140.040297 
L 373.70336 139.581446 
L 373.419621 139.506384 
L 372.347078 139.22801 
L 372.104879 139.169114 
L 368.309144 138.246385 
L 367.004876 137.929969 
L 365.543204 137.574444 
L 364.081604 137.218848 
L 362.620475 136.864456 
L 361.161231 136.506489 
L 359.699927 136.151131 
L 358.235596 135.795008 
L 356.7698 135.441105 
L 355.309949 135.083475 
L 353.848018 134.727398 
L 352.385701 134.370958 
L 350.929901 134.020957 
L 347.85292 133.274482 
L 347.471169 133.181882 
L 347.369219 133.157148 
L 346.90527 133.044588 
L 346.533143 132.951652 
L 343.675948 132.23768 
L 342.215527 131.879132 
L 341.973757 131.81957 
L 340.757672 131.521144 
L 339.296332 131.162097 
L 337.834398 130.803596 
L 336.372609 130.444947 
L 334.910745 130.086455 
L 333.971791 129.855747 
L 333.449394 129.727432 
L 333.432679 129.722931 
L 331.987657 129.368046 
L 330.523741 129.008933 
L 329.063216 128.650288 
L 327.60269 128.291725 
L 326.142438 127.93188 
L 325.409741 127.753291 
L 324.681629 127.57454 
L 322.84532 127.160704 
L 322.625106 127.111141 
L 320.863377 126.713888 
L 319.029408 126.300931 
L 318.596455 126.203248 
L 318.143844 126.100669 
L 317.976366 126.813095 
L 317.83746 127.403867 
L 317.538881 127.364049 
L 315.751092 127.121226 
L 313.664798 126.838671 
L 312.001941 126.613193 
L 310.476313 126.406545 
L 310.610094 125.742124 
L 309.417454 125.568818 
L 305.481244 124.995797 
L 305.260398 125.135143 
L 305.185874 125.688625 
L 304.785334 127.632487 
L 304.455704 129.232336 
L 304.346451 129.763618 
L 304.250108 130.23212 
L 304.226978 130.343112 
L 303.586614 133.453391 
L 303.282797 134.928774 
L 302.978841 136.404613 
L 302.671997 137.882695 
L 302.368363 139.359357 
L 302.065824 140.834189 
L 301.762641 142.310617 
L 301.458612 143.785931 
L 301.15466 145.261244 
L 301.002685 145.998938 
L 300.926698 146.367785 
L 300.850711 146.736632 
L 300.546842 148.212095 
L 300.243129 149.687706 
L 299.938747 151.163631 
L 299.634737 152.639248 
L 299.330574 154.114567 
L 299.026414 155.589961 
L 298.722179 157.065207 
L 298.617387 157.574037 
L 298.418024 158.540602 
L 297.844723 161.32158 
L 297.621252 162.433691 
L 296.858274 166.124947 
L 296.549038 167.620802 
L 296.248 169.077589 
L 295.876814 170.873206 
L 295.638761 172.024934 
L 295.335244 173.493156 
L 295.028644 174.976896 
L 294.723829 176.451705 
L 294.415854 177.941882 
L 294.113236 179.405564 
L 293.803207 180.905961 
L 293.504658 182.350336 
L 293.200956 183.819846 
L 292.458223 187.483875 
L 292.230782 188.583626 
L 291.812879 190.536969 
L 291.501128 192.044566 
L 291.196892 193.516803 
L 290.891421 194.995021 
L 290.588153 196.462565 
L 290.282265 197.9423 
L 289.979827 199.405907 
L 289.676837 200.871938 
L 289.376467 202.325552 
L 289.079938 203.775397 
L 288.766269 205.256718 
L 288.566177 206.287774 
L 288.149016 208.412953 
L 286.921355 214.421716 
L 286.796615 214.924304 
L 286.304425 215.462868 
L 286.025551 215.76789 
L 285.829178 215.982854 
L 285.503926 216.401963 
L 285.289768 216.9676 
L 285.227299 217.132446 
L 284.907217 217.217415 
L 283.658096 217.548995 
L 265.527826 222.896194 
L 265.383321 222.942455 
L 265.294267 222.618528 
L 264.891176 221.81296 
L 264.553503 220.91344 
L 263.936066 219.268374 
L 263.80674 218.923896 
L 263.559243 219.120737 
L 263.492334 219.172475 
L 262.905297 219.624554 
L 261.129007 220.992781 
L 259.480865 222.262215 
L 259.07844 222.54864 
L 258.857863 222.705654 
L 258.085407 223.307883 
L 257.772308 223.549806 
L 249.377922 230.020338 
L 244.457924 233.813716 
L 243.463597 234.58064 
L 242.469277 235.347718 
L 241.474959 236.114723 
L 240.480646 236.881731 
L 239.486337 237.648741 
L 238.492032 238.415754 
L 236.156345 240.217658 
L 231.756295 243.610926 
L 231.582895 243.744618 
L 231.443072 243.852422 
L 230.843638 244.316635 
L 226.001563 248.052179 
L 225.184559 248.678805 
L 224.108644 249.538854 
L 223.035522 250.360772 
L 221.959544 251.186369 
L 220.873109 252.030875 
L 219.503894 253.068786 
L 218.969986 253.489878 
L 218.766924 253.648382 
L 217.208359 254.864441 
L 214.386186 257.043743 
L 215.058482 257.075206 
L 214.46767 257.528191 
L 213.363394 258.370131 
L 213.291436 258.425011 
L 212.122663 259.341443 
L 211.870705 259.541482 
L 210.823291 260.329073 
L 210.729135 260.421792 
L 208.971177 262.163993 
L 208.504904 262.063554 
L 207.772634 261.899972 
L 207.410247 261.846271 
L 205.507379 261.535832 
L 204.674697 261.395351 
L 203.836411 261.275945 
L 201.392381 260.981715 
L 198.221881 260.735332 
L 195.726813 260.554124 
L 195.752222 258.809222 
L 193.982287 258.78064 
L 193.857464 258.770967 
L 193.765259 258.782731 
L 193.690652 259.008847 
L 193.29656 260.589945 
L 193.333811 260.590943 
L 193.326559 260.681119 
L 190.295636 260.514311 
L 190.276442 260.505944 
L 189.982044 260.494198 
L 189.697844 260.477047 
L 187.255211 260.334898 
L 186.981522 260.328249 
L 186.899618 260.317051 
L 185.196754 260.252724 
L 184.626477 260.233925 
L 184.247224 260.2636 
L 183.460288 260.238988 
L 182.329918 260.17239 
L 180.293464 260.08091 
L 180.296598 259.930793 
L 179.955436 259.927748 
L 179.586818 259.924567 
L 178.725451 259.916972 
L 178.608466 260.5249 
L 178.549016 260.833838 
L 178.428297 260.875892 
L 178.163001 263.805774 
L 178.7134 265.834855 
L 178.924494 266.607864 
L 179.020529 267.007942 
L 179.066539 267.190036 
L 179.33857 268.26534 
L 179.387994 268.460412 
L 179.341307 268.774415 
L 179.328268 268.864631 
L 179.330642 268.992771 
L 179.336736 269.332497 
L 179.345987 269.840085 
L 179.352387 270.195338 
L 179.464124 271.656686 
L 179.39277 272.420018 
L 179.788968 275.313798 
L 180.30807 279.105321 
L 180.820237 282.219023 
L 181.601986 283.036381 
L 183.265008 284.779524 
L 186.043816 288.428224 
L 186.723583 289.590776 
L 188.211765 292.136468 
L 188.44463 292.534813 
L 188.621593 292.752472 
L 188.789771 292.959372 
L 189.160726 293.297008 
L 190.53235 294.545415 
L 192.657216 296.468882 
L 195.597547 299.131189 
L 197.351648 301.769302 
L 199.062599 304.451784 
L 199.178403 304.657762 
L 200.759598 307.470399 
L 200.837371 307.608738 
L 201.624465 308.534766 
L 203.199503 310.327316 
L 204.664218 311.994391 
L 205.148923 312.565586 
L 205.410296 313.050102 
L 206.048913 314.48179 
L 206.364841 315.190236 
L 206.620278 315.878235 
L 206.889251 316.558577 
L 207.125363 316.997747 
L 207.443529 317.632706 
L 207.560892 318.010503 
L 208.098833 319.160585 
L 208.274738 319.547859 
L 208.351633 319.948247 
L 208.752788 323.574664 
L 208.766718 323.698203 
L 208.787613 323.889242 
L 208.843055 323.995389 
L 208.875831 324.058141 
L 209.052423 325.477007 
L 209.124202 325.808425 
L 209.215026 325.811233 
L 209.542722 325.824826 
L 209.565845 325.907164 
L 210.163403 328.055515 
L 210.157896 328.256089 
L 209.985498 329.338977 
L 209.675045 330.388016 
L 209.220285 331.379655 
L 208.673949 332.229345 
L 207.927059 333.138638 
L 206.846851 334.271261 
L 206.33086 334.88973 
L 205.901941 335.572762 
L 205.582467 336.314711 
L 205.359079 337.086208 
L 205.261495 337.880406 
L 205.221674 338.506519 
L 204.883676 343.824214 
L 204.795243 344.843087 
L 204.640466 345.845626 
L 204.416063 346.840792 
L 204.285822 347.285157 
L 204.128656 347.821217 
L 204.098341 347.905927 
L 203.928267 348.381159 
L 203.87338 348.534529 
L 203.787121 348.775414 
L 203.384424 349.712873 
L 202.912603 350.61867 
L 202.465715 351.430852 
L 202.204274 351.944842 
L 201.960518 352.471001 
L 201.742378 353.007286 
L 201.442764 353.813544 
L 200.41831 356.570727 
L 200.097209 357.305912 
L 199.999867 357.528784 
L 199.498563 358.448666 
L 199.233787 358.811615 
L 198.87799 359.299044 
L 198.192323 360.08164 
L 197.427717 360.796047 
L 196.78994 361.275892 
L 195.692268 361.957639 
L 194.746344 362.402597 
L 194.652416 362.440347 
L 194.670481 362.961486 
L 193.092026 363.096675 
L 191.517415 363.239938 
L 189.944246 363.376167 
L 188.899583 363.464697 
L 187.83894 363.56267 
L 186.414379 363.680893 
L 183.101032 363.961681 
L 181.083203 364.132696 
L 181.094203 364.507916 
L 178.828842 364.390293 
L 178.717064 364.384439 
L 178.583252 364.01595 
L 178.548746 363.920946 
L 178.184587 363.864067 
L 177.434334 363.781887 
L 176.673375 363.789879 
L 175.914706 363.856868 
L 175.171908 364.007996 
L 174.442731 364.23592 
L 174.115373 364.378967 
L 173.744133 364.531178 
L 173.078062 364.901046 
L 172.447773 365.331359 
L 171.875617 365.8268 
L 171.346011 366.371241 
L 170.871261 366.967227 
L 170.470317 367.614759 
L 170.122161 368.292838 
L 169.251272 370.248306 
L 168.867934 370.995933 
L 168.735623 371.232911 
L 168.624165 371.422351 
L 168.509965 371.610036 
L 168.392951 371.796043 
L 167.848109 372.493711 
L 167.259294 373.150026 
L 166.592895 373.738434 
L 165.879227 374.267082 
L 165.121983 374.725112 
L 163.962177 375.347599 
L 163.210514 375.783354 
L 162.475579 376.258893 
L 161.73751 376.743167 
L 161.070101 377.294884 
L 160.415638 377.862406 
L 159.777578 378.464591 
L 159.175285 379.092156 
L 158.602952 379.751778 
L 158.063735 380.443392 
L 157.554087 381.154854 
L 157.081985 381.890379 
L 156.652825 382.652876 
L 156.251996 383.429664 
L 155.892591 384.22516 
L 155.573772 385.0387 
L 155.290184 385.861946 
L 154.465377 388.476701 
L 154.307622 388.9768 
L 155.20917 389.299122 
L 155.008219 390.039073 
L 154.356818 392.197879 
L 153.521307 395.202011 
L 152.208711 399.581055 
L 151.142675 402.84193 
L 151.097812 402.964751 
L 151.060357 403.093457 
L 151.030059 403.226621 
L 151.00614 403.36305 
L 150.989198 403.498663 
L 150.978842 403.632712 
L 150.973721 403.765375 
L 150.974709 403.895201 
L 150.981964 404.022566 
L 150.995575 404.148145 
L 151.015556 404.272693 
L 151.236632 406.357979 
L 151.855844 412.1414 
L 152.240032 413.993309 
L 152.332066 414.339848 
L 152.432789 414.688551 
L 152.53928 415.032389 
L 152.651143 415.370314 
L 152.770498 415.706959 
L 152.89947 416.047108 
L 153.123381 416.34827 
L 153.352148 416.644133 
L 153.588017 416.94174 
L 153.817492 417.201169 
L 154.043463 417.435482 
L 154.291631 417.701175 
L 154.549222 417.968114 
L 154.931331 418.342366 
L 154.955799 418.366842 
L 155.325719 418.736885 
L 155.708888 419.077336 
L 156.099272 419.436721 
L 156.269473 419.614912 
L 156.432181 419.790538 
L 156.586197 419.925844 
L 156.73576 420.109724 
L 157.014666 420.492967 
L 157.1437 420.691884 
L 157.265455 420.895318 
L 157.379851 421.103046 
L 157.486732 421.314694 
L 157.586018 421.530112 
L 157.899261 422.327247 
L 157.963125 422.576396 
L 158.017561 422.827769 
L 158.062484 423.080989 
L 158.090934 423.286632 
L 158.123471 423.591773 
L 158.139519 423.848508 
L 158.145876 424.105662 
L 158.142461 424.362859 
L 158.129416 424.619719 
L 158.106734 424.875942 
L 158.074335 425.131151 
L 158.060871 425.225976 
L 157.941692 425.719981 
L 157.701381 426.70803 
L 157.509153 427.03719 
L 157.876329 427.126743 
L 158.036032 427.165721 
L 158.311143 427.227741 
L 158.226712 427.669178 
L 158.041774 428.63637 
L 158.001744 428.845719 
L 157.902552 429.364481 
L 156.817471 429.104498 
L 156.378403 430.436904 
L 156.316199 430.625672 
L 156.204486 430.964648 
L 156.09944 431.283359 
L 156.037203 432.962119 
L 155.983079 433.502713 
L 155.959662 433.736857 
L 155.733481 434.362685 
L 155.480769 434.973659 
L 154.563566 436.453154 
L 153.389514 437.546258 
L 153.170743 437.873414 
L 152.957532 438.20423 
L 152.749728 438.538483 
L 152.547556 438.876243 
L 152.351013 439.217284 
L 151.944339 440.276811 
L 151.243254 442.472658 
L 150.813871 443.672287 
L 149.408212 447.338363 
L 148.708608 448.64969 
L 147.94616 450.341102 
L 146.877779 452.064317 
L 145.775803 453.472107 
L 145.138402 454.221496 
L 144.999015 454.407127 
L 144.865807 454.597309 
L 144.738847 454.791665 
L 144.618283 454.990193 
L 144.504336 455.192509 
L 144.397 455.398464 
L 144.2965 455.607903 
L 144.284924 455.643799 
L 143.598266 457.773169 
L 143.02543 460.784697 
L 142.406817 464.12039 
L 142.122797 465.680812 
L 141.978356 466.461561 
L 141.349935 469.858307 
L 140.944527 471.984947 
L 140.846039 472.440014 
L 140.742869 472.894044 
L 140.635092 473.346959 
L 140.522558 473.798762 
L 140.40549 474.249374 
L 140.110172 475.28385 
L 139.946769 475.831676 
L 139.531257 477.025765 
L 139.455463 477.225891 
L 139.218429 477.851418 
L 139.092195 478.184431 
L 138.874028 478.695949 
L 138.417612 479.668323 
L 137.88569 480.761517 
L 137.184192 482.192196 
L 136.030672 484.706777 
L 135.500009 485.718048 
L 134.838202 486.992306 
L 133.541995 489.743494 
L 132.940013 490.948321 
L 132.405305 492.050464 
L 132.102977 492.600386 
L 131.764021 493.080988 
L 131.293266 493.620697 
L 129.257506 495.718189 
L 128.798255 496.234975 
L 128.367537 496.772909 
L 127.601602 497.83918 
L 127.559967 497.91157 
L 127.52509 497.987444 
L 127.497186 498.066196 
L 127.476467 498.147141 
L 127.46322 498.229672 
L 127.457507 498.313033 
L 127.459313 498.396545 
L 127.468702 498.479604 
L 127.485584 498.561458 
L 127.622177 498.964033 
L 127.667133 499.33586 
L 127.697075 499.629039 
L 127.558544 501.020379 
L 127.53635 501.478075 
L 127.547689 501.648113 
L 127.645522 502.980822 
L 127.562831 503.359495 
L 127.495132 507.52695 
L 127.648946 510.166813 
L 127.331959 512.186441 
L 126.916637 515.501222 
L 126.972343 516.604788 
L 126.648584 518.09295 
L 126.068943 520.132902 
L 126.206031 520.412934 
L 126.001645 521.439123 
L 125.882401 522.039914 
L 126.108557 522.718038 
L 126.101946 524.264644 
L 126.295135 525.903252 
L 126.518136 529.583675 
L 126.485071 530.452016 
L 126.448322 531.32028 
L 126.407886 532.188316 
L 126.392868 532.49227 
L 126.3774 532.796233 
L 126.361479 533.10013 
L 126.515226 533.65204 
L 126.663894 533.815114 
L 126.646282 534.064075 
L 126.567659 534.230554 
L 126.575581 535.266908 
L 126.650785 537.096232 
L 126.249728 537.126179 
L 126.253499 537.187483 
L 125.80287 537.196326 
L 125.813825 537.464473 
L 125.757586 537.467254 
L 125.43381 537.482916 
L 125.493917 538.084501 
L 125.560474 538.268517 
L 126.414001 538.231726 
L 126.460895 538.74701 
L 126.461812 539.361841 
L 126.519211 539.739755 
L 126.588516 540.131605 
L 126.660449 540.491058 
L 126.744129 540.863999 
L 126.836561 541.234879 
L 126.937592 541.603477 
L 127.047217 541.969641 
L 127.165355 542.333071 
L 127.292006 542.693693 
L 127.427011 543.051131 
L 127.570295 543.405388 
L 127.735191 543.742776 
L 127.908124 544.076158 
L 128.08894 544.405311 
L 128.277481 544.729936 
L 128.473825 545.050032 
L 128.677663 545.365304 
L 128.888992 545.675525 
L 129.10766 545.980699 
L 129.333512 546.280451 
L 129.605586 546.648578 
L 129.883659 547.012211 
L 130.167651 547.371128 
L 130.753014 548.074816 
L 131.136165 548.461766 
L 131.234702 548.507607 
L 131.364059 548.591667 
L 131.401177 548.689858 
L 131.523081 548.894638 
L 136.41341 553.257624 
L 139.333989 555.882775 
L 143.682429 559.767235 
L 144.255837 560.27947 
L 144.522222 560.554974 
L 144.781967 560.836792 
L 145.034995 561.124778 
L 145.281 561.418709 
L 145.519982 561.718511 
L 145.751708 562.023887 
L 145.976102 562.334762 
L 146.193087 562.650988 
L 146.40243 562.972268 
L 146.604053 563.298452 
L 146.797806 563.629468 
L 146.98368 563.964939 
L 147.161525 564.304867 
L 147.331183 564.64888 
L 147.469774 564.94578 
L 147.601587 565.245831 
L 147.726693 565.54873 
L 147.844864 565.854407 
L 147.956098 566.162709 
L 148.06039 566.473413 
L 148.157663 566.786442 
L 148.24784 567.101649 
L 148.330838 567.418733 
L 148.897304 570.762969 
L 149.494613 574.729133 
L 149.648276 575.872679 
L 149.66987 576.033691 
L 149.710662 576.337137 
L 149.738011 576.587841 
L 149.757185 576.839387 
L 149.768328 577.091394 
L 149.771357 577.343562 
L 149.76627 577.595741 
L 149.752987 577.847631 
L 149.731651 578.099002 
L 149.702257 578.349478 
L 149.616013 578.674152 
L 149.521607 578.996575 
L 149.419186 579.316444 
L 149.30867 579.633608 
L 149.190132 579.947916 
L 149.063791 580.259061 
L 148.929644 580.566893 
L 148.822321 580.797007 
L 149.234478 581.172736 
L 149.398479 581.322243 
L 149.529937 581.44118 
L 150.002541 581.155193 
L 150.263425 580.997384 
L 150.715979 580.723485 
L 151.631669 580.148331 
L 151.68051 580.117575 
L 152.625663 579.523439 
L 154.062908 578.651684 
L 154.432057 578.427631 
L 154.51119 578.37433 
L 156.687052 576.906229 
L 157.516508 576.488213 
L 157.830621 576.281696 
L 157.946571 576.201613 
L 158.348047 575.924326 
L 159.351898 575.279878 
L 160.651777 574.418493 
L 162.440519 573.233043 
L 162.775815 573.00673 
L 163.300743 572.66724 
L 164.486475 571.957814 
L 165.103523 571.571632 
L 165.228981 571.493133 
L 165.365575 571.407627 
L 165.82814 571.118165 
L 167.001517 570.383808 
L 168.621804 569.358422 
L 170.594607 568.014704 
L 170.676893 567.960967 
L 170.823075 567.865422 
L 171.019906 567.736771 
L 171.113618 567.675569 
L 170.848366 567.444814 
L 171.389047 567.091676 
L 174.193605 565.260202 
L 175.135199 564.649531 
L 176.455606 563.785006 
L 177.554873 563.120545 
L 178.339907 562.61546 
L 178.611774 563.205241 
L 179.30879 564.627661 
L 179.402803 564.860382 
" clip-path="url(#p8fdb6ca8c3)" style="fill: #d3d3d3"/>
   </g>
   <g id="matplotlib.axis_1">
    <g id="xtick_1">
     <g id="line2d_1">
      <defs>
       <path id="m3d9f00e75d" d="M 0 0 
L 0 3.5 
" style="stroke: #000000; stroke-width: 0.8"/>
      </defs>
      <g>
       <use xlink:href="#m3d9f00e75d" x="109.819032" y="640.8" style="stroke: #000000; stroke-width: 0.8"/>
      </g>
     </g>
     <g id="text_1">
      <!-- 13.56 -->
      <g transform="translate(95.50497 655.398438) scale(0.1 -0.1)">
       <defs>
        <path id="DejaVuSans-31" d="M 794 531 
L 1825 531 
L 1825 4091 
L 703 3866 
L 703 4441 
L 1819 4666 
L 2450 4666 
L 2450 531 
L 3481 531 
L 3481 0 
L 794 0 
L 794 531 
z
" transform="scale(0.015625)"/>
        <path id="DejaVuSans-33" d="M 2597 2516 
Q 3050 2419 3304 2112 
Q 3559 1806 3559 1356 
Q 3559 666 3084 287 
Q 2609 -91 1734 -91 
Q 1441 -91 1130 -33 
Q 819 25 488 141 
L 488 750 
Q 750 597 1062 519 
Q 1375 441 1716 441 
Q 2309 441 2620 675 
Q 2931 909 2931 1356 
Q 2931 1769 2642 2001 
Q 2353 2234 1838 2234 
L 1294 2234 
L 1294 2753 
L 1863 2753 
Q 2328 2753 2575 2939 
Q 2822 3125 2822 3475 
Q 2822 3834 2567 4026 
Q 2313 4219 1838 4219 
Q 1578 4219 1281 4162 
Q 984 4106 628 3988 
L 628 4550 
Q 988 4650 1302 4700 
Q 1616 4750 1894 4750 
Q 2613 4750 3031 4423 
Q 3450 4097 3450 3541 
Q 3450 3153 3228 2886 
Q 3006 2619 2597 2516 
z
" transform="scale(0.015625)"/>
        <path id="DejaVuSans-2e" d="M 684 794 
L 1344 794 
L 1344 0 
L 684 0 
L 684 794 
z
" transform="scale(0.015625)"/>
        <path id="DejaVuSans-35" d="M 691 4666 
L 3169 4666 
L 3169 4134 
L 1269 4134 
L 1269 2991 
Q 1406 3038 1543 3061 
Q 1681 3084 1819 3084 
Q 2600 3084 3056 2656 
Q 3513 2228 3513 1497 
Q 3513 744 3044 326 
Q 2575 -91 1722 -91 
Q 1428 -91 1123 -41 
Q 819 9 494 109 
L 494 744 
Q 775 591 1075 516 
Q 1375 441 1709 441 
Q 2250 441 2565 725 
Q 2881 1009 2881 1497 
Q 2881 1984 2565 2268 
Q 2250 2553 1709 2553 
Q 1456 2553 1204 2497 
Q 953 2441 691 2322 
L 691 4666 
z
" transform="scale(0.015625)"/>
        <path id="DejaVuSans-36" d="M 2113 2584 
Q 1688 2584 1439 2293 
Q 1191 2003 1191 1497 
Q 1191 994 1439 701 
Q 1688 409 2113 409 
Q 2538 409 2786 701 
Q 3034 994 3034 1497 
Q 3034 2003 2786 2293 
Q 2538 2584 2113 2584 
z
M 3366 4563 
L 3366 3988 
Q 3128 4100 2886 4159 
Q 2644 4219 2406 4219 
Q 1781 4219 1451 3797 
Q 1122 3375 1075 2522 
Q 1259 2794 1537 2939 
Q 1816 3084 2150 3084 
Q 2853 3084 3261 2657 
Q 3669 2231 3669 1497 
Q 3669 778 3244 343 
Q 2819 -91 2113 -91 
Q 1303 -91 875 529 
Q 447 1150 447 2328 
Q 447 3434 972 4092 
Q 1497 4750 2381 4750 
Q 2619 4750 2861 4703 
Q 3103 4656 3366 4563 
z
" transform="scale(0.015625)"/>
       </defs>
       <use xlink:href="#DejaVuSans-31"/>
       <use xlink:href="#DejaVuSans-33" x="63.623047"/>
       <use xlink:href="#DejaVuSans-2e" x="127.246094"/>
       <use xlink:href="#DejaVuSans-35" x="159.033203"/>
       <use xlink:href="#DejaVuSans-36" x="222.65625"/>
      </g>
     </g>
    </g>
    <g id="xtick_2">
     <g id="line2d_2">
      <g>
       <use xlink:href="#m3d9f00e75d" x="211.898087" y="640.8" style="stroke: #000000; stroke-width: 0.8"/>
      </g>
     </g>
     <g id="text_2">
      <!-- 13.58 -->
      <g transform="translate(197.584025 655.398438) scale(0.1 -0.1)">
       <defs>
        <path id="DejaVuSans-38" d="M 2034 2216 
Q 1584 2216 1326 1975 
Q 1069 1734 1069 1313 
Q 1069 891 1326 650 
Q 1584 409 2034 409 
Q 2484 409 2743 651 
Q 3003 894 3003 1313 
Q 3003 1734 2745 1975 
Q 2488 2216 2034 2216 
z
M 1403 2484 
Q 997 2584 770 2862 
Q 544 3141 544 3541 
Q 544 4100 942 4425 
Q 1341 4750 2034 4750 
Q 2731 4750 3128 4425 
Q 3525 4100 3525 3541 
Q 3525 3141 3298 2862 
Q 3072 2584 2669 2484 
Q 3125 2378 3379 2068 
Q 3634 1759 3634 1313 
Q 3634 634 3220 271 
Q 2806 -91 2034 -91 
Q 1263 -91 848 271 
Q 434 634 434 1313 
Q 434 1759 690 2068 
Q 947 2378 1403 2484 
z
M 1172 3481 
Q 1172 3119 1398 2916 
Q 1625 2713 2034 2713 
Q 2441 2713 2670 2916 
Q 2900 3119 2900 3481 
Q 2900 3844 2670 4047 
Q 2441 4250 2034 4250 
Q 1625 4250 1398 4047 
Q 1172 3844 1172 3481 
z
" transform="scale(0.015625)"/>
       </defs>
       <use xlink:href="#DejaVuSans-31"/>
       <use xlink:href="#DejaVuSans-33" x="63.623047"/>
       <use xlink:href="#DejaVuSans-2e" x="127.246094"/>
       <use xlink:href="#DejaVuSans-35" x="159.033203"/>
       <use xlink:href="#DejaVuSans-38" x="222.65625"/>
      </g>
     </g>
    </g>
    <g id="xtick_3">
     <g id="line2d_3">
      <g>
       <use xlink:href="#m3d9f00e75d" x="313.977142" y="640.8" style="stroke: #000000; stroke-width: 0.8"/>
      </g>
     </g>
     <g id="text_3">
      <!-- 13.60 -->
      <g transform="translate(299.66308 655.398438) scale(0.1 -0.1)">
       <defs>
        <path id="DejaVuSans-30" d="M 2034 4250 
Q 1547 4250 1301 3770 
Q 1056 3291 1056 2328 
Q 1056 1369 1301 889 
Q 1547 409 2034 409 
Q 2525 409 2770 889 
Q 3016 1369 3016 2328 
Q 3016 3291 2770 3770 
Q 2525 4250 2034 4250 
z
M 2034 4750 
Q 2819 4750 3233 4129 
Q 3647 3509 3647 2328 
Q 3647 1150 3233 529 
Q 2819 -91 2034 -91 
Q 1250 -91 836 529 
Q 422 1150 422 2328 
Q 422 3509 836 4129 
Q 1250 4750 2034 4750 
z
" transform="scale(0.015625)"/>
       </defs>
       <use xlink:href="#DejaVuSans-31"/>
       <use xlink:href="#DejaVuSans-33" x="63.623047"/>
       <use xlink:href="#DejaVuSans-2e" x="127.246094"/>
       <use xlink:href="#DejaVuSans-36" x="159.033203"/>
       <use xlink:href="#DejaVuSans-30" x="222.65625"/>
      </g>
     </g>
    </g>
    <g id="xtick_4">
     <g id="line2d_4">
      <g>
       <use xlink:href="#m3d9f00e75d" x="416.056197" y="640.8" style="stroke: #000000; stroke-width: 0.8"/>
      </g>
     </g>
     <g id="text_4">
      <!-- 13.62 -->
      <g transform="translate(401.742135 655.398438) scale(0.1 -0.1)">
       <defs>
        <path id="DejaVuSans-32" d="M 1228 531 
L 3431 531 
L 3431 0 
L 469 0 
L 469 531 
Q 828 903 1448 1529 
Q 2069 2156 2228 2338 
Q 2531 2678 2651 2914 
Q 2772 3150 2772 3378 
Q 2772 3750 2511 3984 
Q 2250 4219 1831 4219 
Q 1534 4219 1204 4116 
Q 875 4013 500 3803 
L 500 4441 
Q 881 4594 1212 4672 
Q 1544 4750 1819 4750 
Q 2544 4750 2975 4387 
Q 3406 4025 3406 3419 
Q 3406 3131 3298 2873 
Q 3191 2616 2906 2266 
Q 2828 2175 2409 1742 
Q 1991 1309 1228 531 
z
" transform="scale(0.015625)"/>
       </defs>
       <use xlink:href="#DejaVuSans-31"/>
       <use xlink:href="#DejaVuSans-33" x="63.623047"/>
       <use xlink:href="#DejaVuSans-2e" x="127.246094"/>
       <use xlink:href="#DejaVuSans-36" x="159.033203"/>
       <use xlink:href="#DejaVuSans-32" x="222.65625"/>
      </g>
     </g>
    </g>
    <g id="xtick_5">
     <g id="line2d_5">
      <g>
       <use xlink:href="#m3d9f00e75d" x="518.135252" y="640.8" style="stroke: #000000; stroke-width: 0.8"/>
      </g>
     </g>
     <g id="text_5">
      <!-- 13.64 -->
      <g transform="translate(503.82119 655.398438) scale(0.1 -0.1)">
       <defs>
        <path id="DejaVuSans-34" d="M 2419 4116 
L 825 1625 
L 2419 1625 
L 2419 4116 
z
M 2253 4666 
L 3047 4666 
L 3047 1625 
L 3713 1625 
L 3713 1100 
L 3047 1100 
L 3047 0 
L 2419 0 
L 2419 1100 
L 313 1100 
L 313 1709 
L 2253 4666 
z
" transform="scale(0.015625)"/>
       </defs>
       <use xlink:href="#DejaVuSans-31"/>
       <use xlink:href="#DejaVuSans-33" x="63.623047"/>
       <use xlink:href="#DejaVuSans-2e" x="127.246094"/>
       <use xlink:href="#DejaVuSans-36" x="159.033203"/>
       <use xlink:href="#DejaVuSans-34" x="222.65625"/>
      </g>
     </g>
    </g>
    <g id="xtick_6">
     <g id="line2d_6">
      <g>
       <use xlink:href="#m3d9f00e75d" x="620.214307" y="640.8" style="stroke: #000000; stroke-width: 0.8"/>
      </g>
     </g>
     <g id="text_6">
      <!-- 13.66 -->
      <g transform="translate(605.900245 655.398438) scale(0.1 -0.1)">
       <use xlink:href="#DejaVuSans-31"/>
       <use xlink:href="#DejaVuSans-33" x="63.623047"/>
       <use xlink:href="#DejaVuSans-2e" x="127.246094"/>
       <use xlink:href="#DejaVuSans-36" x="159.033203"/>
       <use xlink:href="#DejaVuSans-36" x="222.65625"/>
      </g>
     </g>
    </g>
   </g>
   <g id="matplotlib.axis_2">
    <g id="ytick_1">
     <g id="line2d_7">
      <defs>
       <path id="m92fc7dc84d" d="M 0 0 
L -3.5 0 
" style="stroke: #000000; stroke-width: 0.8"/>
      </defs>
      <g>
       <use xlink:href="#m92fc7dc84d" x="101.077191" y="619.601861" style="stroke: #000000; stroke-width: 0.8"/>
      </g>
     </g>
     <g id="text_7">
      <!-- 52.47 -->
      <g transform="translate(65.449066 623.40108) scale(0.1 -0.1)">
       <defs>
        <path id="DejaVuSans-37" d="M 525 4666 
L 3525 4666 
L 3525 4397 
L 1831 0 
L 1172 0 
L 2766 4134 
L 525 4134 
L 525 4666 
z
" transform="scale(0.015625)"/>
       </defs>
       <use xlink:href="#DejaVuSans-35"/>
       <use xlink:href="#DejaVuSans-32" x="63.623047"/>
       <use xlink:href="#DejaVuSans-2e" x="127.246094"/>
       <use xlink:href="#DejaVuSans-34" x="159.033203"/>
       <use xlink:href="#DejaVuSans-37" x="222.65625"/>
      </g>
     </g>
    </g>
    <g id="ytick_2">
     <g id="line2d_8">
      <g>
       <use xlink:href="#m92fc7dc84d" x="101.077191" y="535.734589" style="stroke: #000000; stroke-width: 0.8"/>
      </g>
     </g>
     <g id="text_8">
      <!-- 52.48 -->
      <g transform="translate(65.449066 539.533808) scale(0.1 -0.1)">
       <use xlink:href="#DejaVuSans-35"/>
       <use xlink:href="#DejaVuSans-32" x="63.623047"/>
       <use xlink:href="#DejaVuSans-2e" x="127.246094"/>
       <use xlink:href="#DejaVuSans-34" x="159.033203"/>
       <use xlink:href="#DejaVuSans-38" x="222.65625"/>
      </g>
     </g>
    </g>
    <g id="ytick_3">
     <g id="line2d_9">
      <g>
       <use xlink:href="#m92fc7dc84d" x="101.077191" y="451.867318" style="stroke: #000000; stroke-width: 0.8"/>
      </g>
     </g>
     <g id="text_9">
      <!-- 52.49 -->
      <g transform="translate(65.449066 455.666536) scale(0.1 -0.1)">
       <defs>
        <path id="DejaVuSans-39" d="M 703 97 
L 703 672 
Q 941 559 1184 500 
Q 1428 441 1663 441 
Q 2288 441 2617 861 
Q 2947 1281 2994 2138 
Q 2813 1869 2534 1725 
Q 2256 1581 1919 1581 
Q 1219 1581 811 2004 
Q 403 2428 403 3163 
Q 403 3881 828 4315 
Q 1253 4750 1959 4750 
Q 2769 4750 3195 4129 
Q 3622 3509 3622 2328 
Q 3622 1225 3098 567 
Q 2575 -91 1691 -91 
Q 1453 -91 1209 -44 
Q 966 3 703 97 
z
M 1959 2075 
Q 2384 2075 2632 2365 
Q 2881 2656 2881 3163 
Q 2881 3666 2632 3958 
Q 2384 4250 1959 4250 
Q 1534 4250 1286 3958 
Q 1038 3666 1038 3163 
Q 1038 2656 1286 2365 
Q 1534 2075 1959 2075 
z
" transform="scale(0.015625)"/>
       </defs>
       <use xlink:href="#DejaVuSans-35"/>
       <use xlink:href="#DejaVuSans-32" x="63.623047"/>
       <use xlink:href="#DejaVuSans-2e" x="127.246094"/>
       <use xlink:href="#DejaVuSans-34" x="159.033203"/>
       <use xlink:href="#DejaVuSans-39" x="222.65625"/>
      </g>
     </g>
    </g>
    <g id="ytick_4">
     <g id="line2d_10">
      <g>
       <use xlink:href="#m92fc7dc84d" x="101.077191" y="368.000046" style="stroke: #000000; stroke-width: 0.8"/>
      </g>
     </g>
     <g id="text_10">
      <!-- 52.50 -->
      <g transform="translate(65.449066 371.799265) scale(0.1 -0.1)">
       <use xlink:href="#DejaVuSans-35"/>
       <use xlink:href="#DejaVuSans-32" x="63.623047"/>
       <use xlink:href="#DejaVuSans-2e" x="127.246094"/>
       <use xlink:href="#DejaVuSans-35" x="159.033203"/>
       <use xlink:href="#DejaVuSans-30" x="222.65625"/>
      </g>
     </g>
    </g>
    <g id="ytick_5">
     <g id="line2d_11">
      <g>
       <use xlink:href="#m92fc7dc84d" x="101.077191" y="284.132774" style="stroke: #000000; stroke-width: 0.8"/>
      </g>
     </g>
     <g id="text_11">
      <!-- 52.51 -->
      <g transform="translate(65.449066 287.931993) scale(0.1 -0.1)">
       <use xlink:href="#DejaVuSans-35"/>
       <use xlink:href="#DejaVuSans-32" x="63.623047"/>
       <use xlink:href="#DejaVuSans-2e" x="127.246094"/>
       <use xlink:href="#DejaVuSans-35" x="159.033203"/>
       <use xlink:href="#DejaVuSans-31" x="222.65625"/>
      </g>
     </g>
    </g>
    <g id="ytick_6">
     <g id="line2d_12">
      <g>
       <use xlink:href="#m92fc7dc84d" x="101.077191" y="200.265503" style="stroke: #000000; stroke-width: 0.8"/>
      </g>
     </g>
     <g id="text_12">
      <!-- 52.52 -->
      <g transform="translate(65.449066 204.064721) scale(0.1 -0.1)">
       <use xlink:href="#DejaVuSans-35"/>
       <use xlink:href="#DejaVuSans-32" x="63.623047"/>
       <use xlink:href="#DejaVuSans-2e" x="127.246094"/>
       <use xlink:href="#DejaVuSans-35" x="159.033203"/>
       <use xlink:href="#DejaVuSans-32" x="222.65625"/>
      </g>
     </g>
    </g>
    <g id="ytick_7">
     <g id="line2d_13">
      <g>
       <use xlink:href="#m92fc7dc84d" x="101.077191" y="116.398231" style="stroke: #000000; stroke-width: 0.8"/>
      </g>
     </g>
     <g id="text_13">
      <!-- 52.53 -->
      <g transform="translate(65.449066 120.19745) scale(0.1 -0.1)">
       <use xlink:href="#DejaVuSans-35"/>
       <use xlink:href="#DejaVuSans-32" x="63.623047"/>
       <use xlink:href="#DejaVuSans-2e" x="127.246094"/>
       <use xlink:href="#DejaVuSans-35" x="159.033203"/>
       <use xlink:href="#DejaVuSans-33" x="222.65625"/>
      </g>
     </g>
    </g>
   </g>
   <g id="LineCollection_1">
    <path d="M 309.904698 126.33818 
L 310.118044 125.364481 
L 310.470216 123.678749 
L 310.586586 123.115161 
L 310.924979 121.426913 
L 310.952029 121.260855 
L 311.187832 120.080004 
L 311.46957 118.811092 
L 311.919739 116.526548 
" clip-path="url(#p8fdb6ca8c3)" style="fill: none; stroke: #ff0000; stroke-opacity: 0.7; stroke-width: 0.5"/>
    <path d="M 352.136335 247.86605 
L 353.906896 252.192763 
L 352.72431 252.032576 
L 350.411709 251.717235 
L 349.310786 251.562081 
L 352.136335 247.86605 
" clip-path="url(#p8fdb6ca8c3)" style="fill: none; stroke: #ff0000; stroke-opacity: 0.7; stroke-width: 0.5"/>
    <path d="M 382.062851 375.293983 
L 381.553987 375.34598 
L 381.375349 375.42817 
L 381.115558 375.570745 
L 380.198377 376.250908 
L 379.009156 377.439307 
L 378.421181 378.17063 
L 370.395726 385.913256 
L 369.476504 386.799734 
L 368.976827 387.28197 
L 368.039741 388.18606 
L 367.645205 388.566817 
L 363.830511 392.246913 
L 362.364656 393.696978 
" clip-path="url(#p8fdb6ca8c3)" style="fill: none; stroke: #ff0000; stroke-opacity: 0.7; stroke-width: 0.5"/>
   </g>
   <g id="patch_3">
    <path d="M 101.077191 640.8 
L 101.077191 86.4 
" style="fill: none; stroke: #000000; stroke-width: 0.8; stroke-linejoin: miter; stroke-linecap: square"/>
   </g>
   <g id="patch_4">
    <path d="M 636.922809 640.8 
L 636.922809 86.4 
" style="fill: none; stroke: #000000; stroke-width: 0.8; stroke-linejoin: miter; stroke-linecap: square"/>
   </g>
   <g id="patch_5">
    <path d="M 101.077191 640.8 
L 636.922809 640.8 
" style="fill: none; stroke: #000000; stroke-width: 0.8; stroke-linejoin: miter; stroke-linecap: square"/>
   </g>
   <g id="patch_6">
    <path d="M 101.077191 86.4 
L 636.922809 86.4 
" style="fill: none; stroke: #000000; stroke-width: 0.8; stroke-linejoin: miter; stroke-linecap: square"/>
   </g>
   <g id="text_14">
    <!-- Kaulsdorf_Mahlsdorf -->
    <g transform="translate(280.917072 347.137267) scale(0.12 -0.12)">
     <defs>
      <path id="DejaVuSans-4b" d="M 628 4666 
L 1259 4666 
L 1259 2694 
L 3353 4666 
L 4166 4666 
L 1850 2491 
L 4331 0 
L 3500 0 
L 1259 2247 
L 1259 0 
L 628 0 
L 628 4666 
z
" transform="scale(0.015625)"/>
      <path id="DejaVuSans-61" d="M 2194 1759 
Q 1497 1759 1228 1600 
Q 959 1441 959 1056 
Q 959 750 1161 570 
Q 1363 391 1709 391 
Q 2188 391 2477 730 
Q 2766 1069 2766 1631 
L 2766 1759 
L 2194 1759 
z
M 3341 1997 
L 3341 0 
L 2766 0 
L 2766 531 
Q 2569 213 2275 61 
Q 1981 -91 1556 -91 
Q 1019 -91 701 211 
Q 384 513 384 1019 
Q 384 1609 779 1909 
Q 1175 2209 1959 2209 
L 2766 2209 
L 2766 2266 
Q 2766 2663 2505 2880 
Q 2244 3097 1772 3097 
Q 1472 3097 1187 3025 
Q 903 2953 641 2809 
L 641 3341 
Q 956 3463 1253 3523 
Q 1550 3584 1831 3584 
Q 2591 3584 2966 3190 
Q 3341 2797 3341 1997 
z
" transform="scale(0.015625)"/>
      <path id="DejaVuSans-75" d="M 544 1381 
L 544 3500 
L 1119 3500 
L 1119 1403 
Q 1119 906 1312 657 
Q 1506 409 1894 409 
Q 2359 409 2629 706 
Q 2900 1003 2900 1516 
L 2900 3500 
L 3475 3500 
L 3475 0 
L 2900 0 
L 2900 538 
Q 2691 219 2414 64 
Q 2138 -91 1772 -91 
Q 1169 -91 856 284 
Q 544 659 544 1381 
z
M 1991 3584 
L 1991 3584 
z
" transform="scale(0.015625)"/>
      <path id="DejaVuSans-6c" d="M 603 4863 
L 1178 4863 
L 1178 0 
L 603 0 
L 603 4863 
z
" transform="scale(0.015625)"/>
      <path id="DejaVuSans-73" d="M 2834 3397 
L 2834 2853 
Q 2591 2978 2328 3040 
Q 2066 3103 1784 3103 
Q 1356 3103 1142 2972 
Q 928 2841 928 2578 
Q 928 2378 1081 2264 
Q 1234 2150 1697 2047 
L 1894 2003 
Q 2506 1872 2764 1633 
Q 3022 1394 3022 966 
Q 3022 478 2636 193 
Q 2250 -91 1575 -91 
Q 1294 -91 989 -36 
Q 684 19 347 128 
L 347 722 
Q 666 556 975 473 
Q 1284 391 1588 391 
Q 1994 391 2212 530 
Q 2431 669 2431 922 
Q 2431 1156 2273 1281 
Q 2116 1406 1581 1522 
L 1381 1569 
Q 847 1681 609 1914 
Q 372 2147 372 2553 
Q 372 3047 722 3315 
Q 1072 3584 1716 3584 
Q 2034 3584 2315 3537 
Q 2597 3491 2834 3397 
z
" transform="scale(0.015625)"/>
      <path id="DejaVuSans-64" d="M 2906 2969 
L 2906 4863 
L 3481 4863 
L 3481 0 
L 2906 0 
L 2906 525 
Q 2725 213 2448 61 
Q 2172 -91 1784 -91 
Q 1150 -91 751 415 
Q 353 922 353 1747 
Q 353 2572 751 3078 
Q 1150 3584 1784 3584 
Q 2172 3584 2448 3432 
Q 2725 3281 2906 2969 
z
M 947 1747 
Q 947 1113 1208 752 
Q 1469 391 1925 391 
Q 2381 391 2643 752 
Q 2906 1113 2906 1747 
Q 2906 2381 2643 2742 
Q 2381 3103 1925 3103 
Q 1469 3103 1208 2742 
Q 947 2381 947 1747 
z
" transform="scale(0.015625)"/>
      <path id="DejaVuSans-6f" d="M 1959 3097 
Q 1497 3097 1228 2736 
Q 959 2375 959 1747 
Q 959 1119 1226 758 
Q 1494 397 1959 397 
Q 2419 397 2687 759 
Q 2956 1122 2956 1747 
Q 2956 2369 2687 2733 
Q 2419 3097 1959 3097 
z
M 1959 3584 
Q 2709 3584 3137 3096 
Q 3566 2609 3566 1747 
Q 3566 888 3137 398 
Q 2709 -91 1959 -91 
Q 1206 -91 779 398 
Q 353 888 353 1747 
Q 353 2609 779 3096 
Q 1206 3584 1959 3584 
z
" transform="scale(0.015625)"/>
      <path id="DejaVuSans-72" d="M 2631 2963 
Q 2534 3019 2420 3045 
Q 2306 3072 2169 3072 
Q 1681 3072 1420 2755 
Q 1159 2438 1159 1844 
L 1159 0 
L 581 0 
L 581 3500 
L 1159 3500 
L 1159 2956 
Q 1341 3275 1631 3429 
Q 1922 3584 2338 3584 
Q 2397 3584 2469 3576 
Q 2541 3569 2628 3553 
L 2631 2963 
z
" transform="scale(0.015625)"/>
      <path id="DejaVuSans-66" d="M 2375 4863 
L 2375 4384 
L 1825 4384 
Q 1516 4384 1395 4259 
Q 1275 4134 1275 3809 
L 1275 3500 
L 2222 3500 
L 2222 3053 
L 1275 3053 
L 1275 0 
L 697 0 
L 697 3053 
L 147 3053 
L 147 3500 
L 697 3500 
L 697 3744 
Q 697 4328 969 4595 
Q 1241 4863 1831 4863 
L 2375 4863 
z
" transform="scale(0.015625)"/>
      <path id="DejaVuSans-5f" d="M 3263 -1063 
L 3263 -1509 
L -63 -1509 
L -63 -1063 
L 3263 -1063 
z
" transform="scale(0.015625)"/>
      <path id="DejaVuSans-4d" d="M 628 4666 
L 1569 4666 
L 2759 1491 
L 3956 4666 
L 4897 4666 
L 4897 0 
L 4281 0 
L 4281 4097 
L 3078 897 
L 2444 897 
L 1241 4097 
L 1241 0 
L 628 0 
L 628 4666 
z
" transform="scale(0.015625)"/>
      <path id="DejaVuSans-68" d="M 3513 2113 
L 3513 0 
L 2938 0 
L 2938 2094 
Q 2938 2591 2744 2837 
Q 2550 3084 2163 3084 
Q 1697 3084 1428 2787 
Q 1159 2491 1159 1978 
L 1159 0 
L 581 0 
L 581 4863 
L 1159 4863 
L 1159 2956 
Q 1366 3272 1645 3428 
Q 1925 3584 2291 3584 
Q 2894 3584 3203 3211 
Q 3513 2838 3513 2113 
z
" transform="scale(0.015625)"/>
     </defs>
     <use xlink:href="#DejaVuSans-4b"/>
     <use xlink:href="#DejaVuSans-61" x="63.826172"/>
     <use xlink:href="#DejaVuSans-75" x="125.105469"/>
     <use xlink:href="#DejaVuSans-6c" x="188.484375"/>
     <use xlink:href="#DejaVuSans-73" x="216.267578"/>
     <use xlink:href="#DejaVuSans-64" x="268.367188"/>
     <use xlink:href="#DejaVuSans-6f" x="331.84375"/>
     <use xlink:href="#DejaVuSans-72" x="393.025391"/>
     <use xlink:href="#DejaVuSans-66" x="434.138672"/>
     <use xlink:href="#DejaVuSans-5f" x="469.34375"/>
     <use xlink:href="#DejaVuSans-4d" x="519.34375"/>
     <use xlink:href="#DejaVuSans-61" x="605.623047"/>
     <use xlink:href="#DejaVuSans-68" x="666.902344"/>
     <use xlink:href="#DejaVuSans-6c" x="730.28125"/>
     <use xlink:href="#DejaVuSans-73" x="758.064453"/>
     <use xlink:href="#DejaVuSans-64" x="810.164062"/>
     <use xlink:href="#DejaVuSans-6f" x="873.640625"/>
     <use xlink:href="#DejaVuSans-72" x="934.822266"/>
     <use xlink:href="#DejaVuSans-66" x="975.935547"/>
    </g>
   </g>
  </g>
 </g>
 <defs>
  <clipPath id="p8fdb6ca8c3">
   <rect x="101.077191" y="86.4" width="535.845617" height="554.4"/>
  </clipPath>
 </defs>
</svg>
