<?xml version="1.0" encoding="utf-8" standalone="no"?>
<!DOCTYPE svg PUBLIC "-//W3C//DTD SVG 1.1//EN"
  "http://www.w3.org/Graphics/SVG/1.1/DTD/svg11.dtd">
<svg xmlns:xlink="http://www.w3.org/1999/xlink" width="460.8pt" height="345.6pt" viewBox="0 0 460.8 345.6" xmlns="http://www.w3.org/2000/svg" version="1.1">
 <metadata>
  <rdf:RDF xmlns:dc="http://purl.org/dc/elements/1.1/" xmlns:cc="http://creativecommons.org/ns#" xmlns:rdf="http://www.w3.org/1999/02/22-rdf-syntax-ns#">
   <cc:Work>
    <dc:type rdf:resource="http://purl.org/dc/dcmitype/StillImage"/>
    <dc:date>2024-10-17T11:33:15.311524</dc:date>
    <dc:format>image/svg+xml</dc:format>
    <dc:creator>
     <cc:Agent>
      <dc:title>Matplotlib v3.9.2, https://matplotlib.org/</dc:title>
     </cc:Agent>
    </dc:creator>
   </cc:Work>
  </rdf:RDF>
 </metadata>
 <defs>
  <style type="text/css">*{stroke-linejoin: round; stroke-linecap: butt}</style>
 </defs>
 <g id="figure_1">
  <g id="patch_1">
   <path d="M 0 345.6 
L 460.8 345.6 
L 460.8 0 
L 0 0 
z
" style="fill: #ffffff"/>
  </g>
  <g id="axes_1">
   <g id="patch_2">
    <path d="M 107.519198 307.584 
L 364.800802 307.584 
L 364.800802 41.472 
L 107.519198 41.472 
z
" style="fill: #ffffff"/>
   </g>
   <g id="PatchCollection_1">
    <path d="M 145.126558 271.132983 
L 145.142845 271.162991 
L 145.162163 271.19113 
L 145.184289 271.217113 
L 145.208965 271.240621 
L 145.237758 271.260682 
L 145.267812 271.278799 
L 145.298981 271.294903 
L 145.331119 271.308925 
L 145.374552 271.315629 
L 145.41836 271.319358 
L 145.462326 271.320153 
L 145.506197 271.317944 
L 145.549866 271.312809 
L 145.578955 271.307563 
L 145.607297 271.29922 
L 145.634606 271.287894 
L 145.660524 271.273699 
L 145.684801 271.256786 
L 145.707116 271.237378 
L 145.73621 271.203069 
L 145.763288 271.167171 
L 145.78828 271.129758 
L 145.811079 271.090977 
L 145.849756 271.021044 
L 145.866857 270.975064 
L 145.881016 270.928093 
L 145.892091 270.880315 
L 145.900087 270.831909 
L 145.904972 270.783095 
L 145.904066 270.731573 
L 145.89988 270.680223 
L 145.892418 270.629265 
L 145.88172 270.578877 
L 145.867825 270.529277 
L 145.850775 270.48068 
L 145.78096 270.25013 
L 145.68082 269.903418 
L 145.644972 269.765107 
L 145.631246 269.350122 
L 145.713764 269.223292 
L 145.831083 269.055018 
L 146.062442 268.755381 
L 146.846573 267.573171 
L 147.105813 267.137002 
L 147.544382 265.212706 
L 147.611018 264.920386 
L 147.692269 264.563893 
L 148.474746 260.12059 
L 148.53549 259.706557 
L 148.538787 259.670515 
L 148.545993 259.635083 
L 148.557007 259.600626 
L 148.571657 259.567544 
L 148.589844 259.53631 
L 148.61132 259.507219 
L 148.635806 259.480675 
L 148.663054 259.456935 
L 148.692709 259.436333 
L 148.777363 259.392058 
L 148.76483 259.248397 
L 150.499879 258.352761 
L 151.013979 258.088801 
L 152.270218 257.44327 
L 152.732049 257.205792 
L 153.377089 256.874318 
L 154.019749 256.539094 
L 154.664719 256.207481 
L 155.248887 255.899911 
L 155.408819 255.80395 
L 156.62326 255.077296 
L 157.042866 254.826222 
L 157.671356 254.448654 
L 158.29985 254.071124 
L 159.086176 253.598803 
L 160.033117 253.029936 
L 160.114991 253.104944 
L 161.127402 253.902208 
L 162.978163 255.388849 
L 163.462735 255.77711 
L 164.487819 256.600239 
L 165.323418 257.271217 
L 165.916706 257.023186 
L 166.34455 256.845953 
L 167.017528 256.565122 
L 167.903361 256.196242 
L 168.782505 255.830177 
L 169.282391 255.621855 
L 170.081817 255.288709 
L 171.050274 254.885139 
L 171.582308 254.655958 
L 171.667302 254.619396 
L 172.146017 254.413235 
L 172.709511 254.170519 
L 173.273259 253.927799 
L 173.803976 253.699266 
L 174.334479 253.470775 
L 175.922849 252.786786 
L 176.26952 252.63752 
L 176.788633 253.028977 
L 178.709367 254.47749 
L 179.286735 254.864445 
L 179.946983 255.384165 
L 182.606358 257.393543 
L 183.982587 258.49334 
L 185.054673 259.35834 
L 185.481632 259.733855 
L 186.839384 260.963466 
L 187.303772 261.265575 
L 189.048723 262.641089 
L 191.427067 264.691277 
L 194.869447 267.658904 
L 197.994734 269.961491 
L 199.180518 270.987991 
L 201.494291 273.01011 
L 201.816611 273.309235 
L 201.899947 273.386587 
L 202.270657 273.777136 
L 203.206912 274.742218 
L 205.642525 276.634398 
L 206.414373 277.378546 
L 208.690161 279.615188 
L 208.807823 279.73082 
L 208.877776 279.573427 
L 208.94519 279.413477 
L 209.516597 280.016906 
L 209.547418 280.041405 
L 209.591977 280.076826 
L 210.283612 280.626379 
L 211.239413 281.385866 
L 211.903665 281.913698 
L 212.537876 282.416382 
L 214.01218 283.58494 
L 214.347425 283.849163 
L 214.477895 283.951954 
L 215.264199 284.58308 
L 215.907592 285.098881 
L 216.442843 285.530316 
L 216.96842 285.952312 
L 217.255786 286.172117 
L 218.01458 286.097678 
L 218.993081 285.995636 
L 219.555974 285.940891 
L 220.981882 285.79012 
L 221.320392 285.75247 
L 221.760288 285.705328 
L 222.060815 285.715069 
L 222.801434 285.734672 
L 223.533593 285.753429 
L 224.524694 285.767828 
L 225.086388 285.789457 
L 226.178581 285.810957 
L 226.370092 285.816192 
L 227.133644 285.836998 
L 227.80683 285.849313 
L 228.082423 285.853394 
L 228.528067 285.870583 
L 230.266583 285.91671 
L 230.249669 286.614099 
L 229.778275 292.328341 
L 229.774117 292.378623 
L 229.767916 292.454027 
L 229.748836 292.685386 
L 229.72135 293.018179 
L 230.393663 293.232592 
L 237.428968 295.476566 
L 237.464797 295.488 
L 237.919421 294.881198 
L 237.595099 294.788678 
L 238.144089 294.064127 
L 238.560832 293.487266 
L 239.488441 292.23665 
L 239.658248 292.007634 
L 239.827874 291.77855 
L 240.444091 290.948001 
L 240.918092 290.310032 
L 241.545666 289.463452 
L 242.021345 288.822268 
L 242.312741 288.44574 
L 242.35392 288.459497 
L 246.751698 282.533281 
L 247.182392 281.952915 
L 247.570068 281.430564 
L 247.957711 280.908214 
L 248.345321 280.385902 
L 248.97147 279.54419 
L 249.615725 278.67343 
L 250.143153 277.963447 
L 249.483987 277.473704 
L 249.310733 277.342283 
L 248.644968 276.845503 
L 248.342902 276.621839 
L 247.607853 276.072212 
L 247.315531 275.992234 
L 246.317286 275.716343 
L 246.164209 275.674153 
L 246.056727 275.644479 
L 245.817277 275.578326 
L 245.132792 275.390328 
L 244.610888 275.247126 
L 244.344345 275.173787 
L 243.98187 275.074715 
L 243.321026 274.892929 
L 243.262404 274.876648 
L 242.948453 274.790434 
L 243.080349 273.961331 
L 243.102223 273.886314 
L 243.216657 273.104419 
L 243.330258 272.390222 
L 243.415615 271.853703 
L 243.529124 271.140269 
L 243.642859 270.425419 
L 243.681982 270.218359 
L 243.756688 269.709734 
L 243.794928 269.503669 
L 243.903506 268.786928 
L 243.921445 268.674055 
L 244.012443 268.102175 
L 244.016575 268.072959 
L 244.09754 267.566965 
L 244.239058 266.672528 
L 244.321963 266.133994 
L 244.45249 265.313786 
L 244.509319 264.956977 
L 244.534819 264.822424 
L 244.565883 264.599522 
L 244.584812 264.479826 
L 244.647846 264.107842 
L 244.678977 263.884649 
L 244.760832 263.392971 
L 244.853364 262.795364 
L 244.873745 262.677992 
L 244.914627 262.419359 
L 244.970129 262.070467 
L 244.972707 262.054275 
L 244.986873 261.96482 
L 245.084224 261.349277 
L 245.10047 261.249648 
L 245.198099 260.633557 
L 245.213651 260.535353 
L 245.254839 260.2757 
L 245.311423 259.919114 
L 245.328088 259.820671 
L 245.424914 259.20398 
L 245.441592 259.106153 
L 245.547424 258.433912 
L 245.554748 258.392329 
L 245.668349 257.677157 
L 245.66954 257.669642 
L 245.780922 256.96291 
L 245.789473 256.908093 
L 245.89511 256.248162 
L 245.91987 256.087998 
L 246.00395 255.529246 
L 246.059801 255.2059 
L 246.121672 254.818013 
L 246.215414 254.226645 
L 246.237944 254.083788 
L 246.48152 253.750824 
L 246.893969 253.19039 
L 247.222354 252.744173 
L 247.322179 252.608553 
L 247.655933 252.15047 
L 247.750603 252.026423 
L 248.083948 251.567626 
L 248.181309 251.435202 
L 248.512038 250.984744 
L 248.60775 250.862306 
L 248.938129 250.404798 
L 249.035891 250.280077 
L 249.366343 249.822459 
L 249.486228 249.669444 
L 249.794241 249.24049 
L 250.128044 248.795622 
L 250.22246 248.658153 
L 250.650647 248.075854 
L 250.770251 247.92118 
L 251.07613 247.501101 
L 251.406637 247.051521 
L 251.504917 246.917851 
L 251.861852 246.436566 
L 251.933105 246.335194 
L 252.311257 245.825235 
L 252.361538 245.75199 
L 252.760807 245.213829 
L 252.79015 245.168566 
L 253.210114 244.602719 
L 253.21873 244.585181 
L 253.648591 243.99884 
L 253.659635 243.99128 
L 254.109159 243.379915 
L 254.590888 242.725478 
L 254.754591 242.502465 
L 254.910249 242.290415 
L 255.615167 241.329588 
L 255.789211 241.088238 
L 256.114491 240.652847 
L 256.21725 240.505739 
L 256.574908 240.027019 
L 256.642981 239.928895 
L 256.99303 239.459805 
L 257.071951 239.345765 
L 257.376374 238.931082 
L 257.502254 238.760439 
L 257.762634 238.407515 
L 257.932104 238.177764 
L 258.149108 237.883691 
L 258.360237 237.595667 
L 258.544829 237.348797 
L 258.789469 237.008627 
L 258.930076 236.82471 
L 259.239695 236.396249 
L 259.31536 236.300586 
L 259.68529 235.790692 
L 260.002718 235.35897 
L 260.007608 235.352325 
L 260.34217 234.897257 
L 260.651372 234.474959 
L 260.851417 234.207201 
L 261.122841 233.834599 
L 261.385386 233.480879 
L 261.594823 233.194447 
L 261.820219 232.889396 
L 262.066579 232.553613 
L 262.214843 232.352577 
L 262.538279 231.91347 
L 262.577948 231.858709 
L 263.009941 231.273039 
L 263.219365 230.987587 
L 263.481718 230.632788 
L 263.604333 230.46261 
L 263.949235 229.99233 
L 264.418773 229.353536 
L 264.458959 229.299308 
L 264.886405 228.716842 
L 264.890811 228.711329 
L 265.361655 228.070667 
L 265.743177 227.551661 
L 266.170753 226.969919 
L 266.493865 226.533685 
L 266.900193 225.980728 
L 267.303006 225.432616 
L 267.403245 225.300112 
L 267.705188 224.885314 
L 267.830069 224.718064 
L 268.108076 224.337094 
L 268.256682 224.136237 
L 268.510016 223.790124 
L 268.684208 223.552911 
L 268.91217 223.242898 
L 269.111452 222.969771 
L 269.313622 222.696626 
L 269.539824 222.386974 
L 269.717259 222.147383 
L 269.968573 221.801093 
L 270.119702 221.599792 
L 270.397545 221.221037 
L 270.522323 221.051909 
L 270.809519 220.658136 
L 270.92442 220.504833 
L 271.339959 219.93944 
L 271.419056 219.83181 
L 271.660535 219.503228 
L 272.622029 218.191342 
L 273.050469 217.609059 
L 273.478825 217.025945 
L 273.906697 216.443856 
L 274.334937 215.861941 
L 274.764012 215.280156 
L 275.192397 214.698024 
L 275.620783 214.115784 
L 276.049174 213.533654 
L 276.477495 212.95149 
L 276.90589 212.369289 
L 277.334253 211.787163 
L 278.267948 210.518294 
L 278.591165 210.078714 
L 279.415614 208.956636 
L 279.844603 208.376205 
L 280.272503 207.793407 
L 280.700164 207.209275 
L 282.221727 205.139994 
L 282.300835 205.032259 
L 282.568106 204.670157 
L 281.720879 204.497564 
L 281.5423 204.461113 
L 276.99836 203.535092 
L 275.51009 203.162324 
L 273.075773 202.385162 
L 272.198708 201.9654 
L 271.860905 201.805862 
L 268.570888 199.995908 
L 268.625394 199.824791 
L 269.64296 196.631908 
L 269.656843 196.585496 
L 270.898464 193.479152 
L 271.014252 193.189128 
L 271.401575 192.220026 
L 272.864213 188.492843 
L 273.406691 186.869874 
L 273.45804 186.7146 
L 274.277552 184.234382 
L 274.878444 182.020236 
L 275.335687 180.380224 
L 275.925067 177.755682 
L 275.926447 177.748525 
L 275.969996 177.524343 
L 276.055836 177.085847 
L 276.421003 175.122246 
L 277.473192 168.944028 
L 277.978211 166.221677 
L 278.331446 164.317776 
L 278.473288 163.562532 
L 278.580789 162.932774 
L 278.636285 162.673764 
L 278.728083 162.249814 
L 279.338557 159.406636 
L 280.21236 155.640029 
L 280.563255 154.273547 
L 280.565671 154.265792 
L 280.675387 153.916134 
L 280.699293 153.84007 
L 280.723094 153.764117 
L 280.724829 153.758474 
L 280.836519 153.402517 
L 281.313318 151.882785 
L 281.55174 151.160162 
L 281.651845 150.851949 
L 281.777 150.472717 
L 281.948807 149.948511 
L 282.066441 149.5877 
L 282.203528 149.274042 
L 282.493118 148.610276 
L 282.782041 147.947355 
L 283.071 147.284398 
L 283.359962 146.621442 
L 283.509818 146.285826 
L 283.878112 145.437605 
L 284.094715 144.938681 
L 284.516578 143.967072 
L 284.593644 143.790031 
L 284.954532 142.958241 
L 285.15595 142.49428 
L 285.418582 141.889376 
L 285.681007 141.28491 
L 285.796233 141.019483 
L 285.938283 140.681158 
L 286.196715 140.067721 
L 286.455045 139.454575 
L 286.775999 138.692787 
L 287.460578 137.084106 
L 287.46286 137.078779 
L 287.525266 136.932022 
L 287.624176 136.699046 
L 287.668908 136.593524 
L 287.673576 136.582541 
L 288.318677 135.060465 
L 288.484727 134.673151 
L 288.614716 134.39351 
L 288.922689 133.731144 
L 289.23028 133.069472 
L 289.538463 132.406524 
L 289.811498 131.819272 
L 290.620639 130.179611 
L 290.742095 129.933505 
L 290.782814 129.854264 
L 290.86369 129.687107 
L 290.951374 129.509432 
L 291.48707 128.536116 
L 291.633821 128.273497 
L 291.986956 127.641695 
L 292.339956 127.010222 
L 292.691901 126.38011 
L 293.044989 125.749252 
L 293.398548 125.116396 
L 293.504923 124.926135 
L 293.805411 124.514018 
L 294.235027 123.924964 
L 294.526825 123.524848 
L 295.067512 122.783486 
L 296.007308 121.494771 
L 296.090812 121.3803 
L 296.380681 120.982794 
L 296.458447 120.876178 
L 296.651069 120.613165 
L 296.690583 120.557872 
L 297.425435 119.412031 
L 297.891271 118.861715 
L 298.960468 117.613056 
L 299.151159 117.400464 
L 299.443791 117.07414 
L 299.451609 117.065451 
L 299.76094 116.720606 
L 300.218127 116.210852 
L 300.662866 115.714943 
L 301.178263 115.208253 
L 301.370972 115.018174 
L 301.404739 114.985504 
L 301.960364 114.447652 
L 302.526918 113.89928 
L 302.918116 113.520789 
L 303.089459 113.346643 
L 303.642224 112.784818 
L 304.195028 112.22303 
L 304.747836 111.661208 
L 305.103961 111.299274 
L 305.300977 111.099671 
L 306.309743 110.077723 
L 306.591823 109.791967 
L 306.895203 109.484599 
L 307.017402 109.337516 
L 307.411725 108.862954 
L 307.784753 108.414023 
L 308.166118 107.955017 
L 308.354788 107.72796 
L 308.587877 107.467924 
L 308.684639 107.36052 
L 309.296794 106.678334 
L 309.905062 106.000422 
L 310.51337 105.322548 
L 311.121931 104.644382 
L 311.217025 104.538386 
L 311.710943 104.044402 
L 312.354368 103.400944 
L 312.998293 102.756936 
L 313.642223 102.112966 
L 313.791445 101.963714 
L 314.20828 101.647634 
L 314.933693 101.09754 
L 315.659111 100.547449 
L 316.384819 99.997139 
L 317.654585 99.034261 
L 317.664983 99.026284 
L 317.815554 98.912118 
L 317.90526 98.844242 
L 318.100465 98.696543 
L 318.641636 98.285948 
L 319.167995 97.8866 
L 319.746497 97.447872 
L 320.325438 97.009318 
L 320.819296 96.634981 
L 320.904199 96.570588 
L 321.482804 96.13114 
L 321.999988 95.738813 
L 322.061827 95.692662 
L 322.640088 95.253803 
L 323.160776 94.859315 
L 323.681577 94.464936 
L 324.774636 93.636451 
L 324.82353 93.602958 
L 324.881587 93.55916 
L 324.94281 93.512804 
L 325.173135 93.357587 
L 325.234489 93.316296 
L 325.341819 93.245729 
L 325.395995 93.20689 
L 326.136234 92.70615 
L 326.734768 92.301561 
L 327.334177 91.895293 
L 327.49108 91.788762 
L 328.033242 91.421212 
L 328.734273 90.94583 
L 328.892695 90.839345 
L 328.971175 90.786586 
L 329.159598 90.659921 
L 329.205081 90.629353 
L 329.776396 90.24226 
L 330.326462 89.869972 
L 330.538103 89.727346 
L 330.893913 89.492366 
L 330.928003 89.468707 
L 331.488704 89.095066 
L 331.528621 89.066195 
L 332.089168 88.693862 
L 332.129326 88.664335 
L 332.687568 88.294146 
L 332.810372 88.212436 
L 333.332892 87.863476 
L 333.516724 87.740195 
L 333.83668 87.526848 
L 334.197072 87.28531 
L 334.428262 87.131103 
L 335.434808 86.458237 
L 336.3082 85.87553 
L 336.443633 85.785117 
L 336.53354 85.72509 
L 336.627196 85.664595 
L 336.761449 85.57482 
L 337.463254 85.105575 
L 337.487301 85.089526 
L 337.920417 84.799583 
L 338.088491 84.687062 
L 338.378425 84.492274 
L 338.689556 84.285507 
L 338.832409 84.189963 
L 339.280483 83.890297 
L 339.291736 83.883572 
L 339.86318 83.50107 
L 340.164866 83.299007 
L 340.613045 83.00079 
L 341.04368 82.712856 
L 341.058991 82.702906 
L 341.310151 82.532229 
L 341.95643 82.102116 
L 342.011295 82.063015 
L 342.677014 81.617521 
L 342.902397 81.470745 
L 343.331369 81.180386 
L 343.830642 80.845645 
L 343.976128 80.75154 
L 344.280785 80.543637 
L 344.590277 80.333474 
L 344.687715 80.264335 
L 344.730603 80.231828 
L 345.188259 79.886902 
L 345.393154 79.731824 
L 345.641828 79.524101 
L 345.849552 79.35015 
L 346.099249 79.141069 
L 346.108105 79.133629 
L 346.360251 78.891059 
L 346.635605 78.620261 
L 347.008313 78.258139 
L 347.374704 77.896173 
L 347.882552 77.394069 
L 348.398592 76.881608 
L 348.951943 76.33957 
L 349.199719 76.094697 
L 349.24829 76.043338 
L 349.446467 75.845067 
L 350.463501 74.829701 
L 350.900355 74.392268 
L 351.193965 74.098045 
L 351.248552 74.043751 
L 352.149049 73.167486 
L 352.245295 73.074594 
L 353.085416 72.214697 
L 353.106184 72.195019 
L 353.021459 71.92167 
L 352.875832 71.603779 
L 352.40595 71.017182 
L 352.105232 70.441984 
L 351.955698 69.845548 
L 351.822737 68.765909 
L 351.369357 67.007819 
L 351.346594 66.737008 
L 351.140143 66.207976 
L 350.788428 64.935521 
L 350.320749 62.272172 
L 350.167117 61.901265 
L 350.043899 61.036001 
L 349.982325 60.603368 
L 349.94307 60.257872 
L 349.208396 56.527341 
L 349.178989 56.527347 
L 346.998323 56.554404 
L 345.882833 56.569244 
L 345.610801 56.571643 
L 345.337573 56.575801 
L 344.490092 56.585576 
L 343.793077 56.591098 
L 343.656688 56.592667 
L 343.070751 56.616857 
L 342.348863 56.6467 
L 342.233126 56.651468 
L 341.626799 56.690412 
L 341.465842 56.7016 
L 340.90223 56.729541 
L 340.181585 56.765958 
L 339.93606 56.777461 
L 338.99766 56.760767 
L 338.701165 56.741628 
L 338.266325 56.715955 
L 337.650162 56.680683 
L 337.214323 56.653802 
L 336.768646 56.628264 
L 336.489473 56.619698 
L 336.067296 56.606716 
L 335.805414 56.614802 
L 335.121245 56.638902 
L 334.683088 56.654345 
L 334.438586 56.67807 
L 333.720429 56.747112 
L 333.000109 56.816343 
L 332.353967 56.880242 
L 331.706709 56.942319 
L 331.582796 56.954196 
L 331.19126 56.99172 
L 330.987985 57.019563 
L 330.343852 57.107754 
L 330.038128 57.149571 
L 329.69838 57.191846 
L 329.05345 57.27213 
L 328.686166 57.317855 
L 328.441844 57.31444 
L 328.240054 57.311566 
L 327.817612 57.301685 
L 327.198215 57.282833 
L 326.834293 57.272652 
L 326.465005 57.26145 
L 325.029954 57.215463 
L 324.758015 57.209241 
L 324.486067 57.200668 
L 323.172049 57.16082 
L 323.094446 57.158803 
L 322.492535 57.0725 
L 322.418206 57.062098 
L 321.812649 56.975974 
L 321.738976 56.965849 
L 321.134588 56.878548 
L 321.058341 56.867965 
L 320.454748 56.780687 
L 320.377988 56.769716 
L 319.775778 56.683029 
L 319.697529 56.671652 
L 319.096845 56.58541 
L 319.017824 56.57336 
L 318.933676 56.561407 
L 318.416953 56.502289 
L 318.335713 56.493213 
L 317.735285 56.424597 
L 317.655058 56.415647 
L 317.055382 56.346693 
L 316.973673 56.337699 
L 316.789851 56.316294 
L 316.384364 56.168585 
L 316.066231 56.055353 
L 315.09576 55.702718 
L 315.046361 55.684719 
L 314.981032 55.661084 
L 314.884636 55.626091 
L 314.508001 55.489316 
L 314.422701 55.458385 
L 314.370464 55.43939 
L 314.260864 55.399579 
L 312.101104 54.649596 
L 311.985935 54.609602 
L 311.890185 54.576336 
L 311.199539 54.469412 
L 310.488753 54.355922 
L 309.647153 54.221595 
L 309.429513 54.190629 
L 309.312087 54.17283 
L 309.200051 54.168863 
L 307.242665 54.065231 
L 307.19049 54.061077 
L 306.299417 54.029982 
L 305.576415 54.000965 
L 305.033242 53.980606 
L 304.849 53.973555 
L 304.220681 53.949812 
L 304.126793 53.946447 
L 303.52682 53.923872 
L 303.439392 53.91825 
L 302.750499 53.902897 
L 302.593646 53.899926 
L 302.056114 53.885623 
L 301.728324 53.881868 
L 301.405956 53.870592 
L 299.907486 53.835274 
L 299.835292 53.834758 
L 299.686988 53.834885 
L 299.409165 53.835076 
L 297.935679 53.871653 
L 297.615972 53.880818 
L 297.358509 53.885838 
L 296.893013 53.894364 
L 296.621048 53.898646 
L 296.170451 53.907941 
L 295.895306 53.912176 
L 295.447492 53.921492 
L 295.169673 53.92567 
L 294.723299 53.934744 
L 294.442356 53.93996 
L 294.056787 53.947159 
L 293.982499 53.942885 
L 293.718787 53.926964 
L 293.315 53.904976 
L 292.99587 53.885329 
L 292.645553 53.865297 
L 291.97453 53.826374 
L 290.692731 53.751591 
L 290.400552 53.735817 
L 290.091536 53.718047 
L 288.966757 53.662773 
L 288.313159 53.630265 
L 287.762539 53.602247 
L 287.549038 53.591715 
L 287.080692 53.568 
L 286.824334 53.60092 
L 285.386848 53.785348 
L 284.951441 53.841217 
L 283.689674 54.000205 
L 283.365334 54.045063 
L 283.045144 54.085862 
L 282.776702 54.121587 
L 282.756182 54.12357 
L 282.646317 54.13887 
L 282.287671 54.195964 
L 282.188761 54.211672 
L 282.15134 54.217813 
L 281.545172 54.314544 
L 281.334124 54.347623 
L 280.936839 54.403718 
L 280.617183 54.449759 
L 280.323036 54.49213 
L 279.896254 54.553096 
L 279.516782 54.607335 
L 279.187051 54.655488 
L 279.122285 54.663743 
L 278.682642 54.726549 
L 278.471349 54.758116 
L 278.043283 54.817953 
L 277.043604 54.959908 
L 276.284031 55.069389 
L 276.210035 55.082417 
L 275.445518 55.190186 
L 275.356657 55.202376 
L 275.261421 55.358195 
L 275.218454 55.332882 
L 274.450493 54.858039 
L 273.471407 54.252657 
L 273.313258 54.432443 
L 273.009927 54.774685 
L 272.693775 55.132301 
L 272.737969 55.416013 
L 272.877158 56.310708 
L 273.048447 57.411783 
L 273.746604 57.839198 
L 273.593947 58.089204 
L 272.8231 59.351647 
L 272.788296 59.404141 
L 271.672131 58.722952 
L 271.166966 59.201916 
L 271.047441 59.316976 
L 270.472216 59.863622 
L 269.925531 60.383485 
L 269.378488 60.903356 
L 268.886352 61.371509 
L 268.394175 61.839266 
L 267.904207 62.305245 
L 267.412781 62.772303 
L 266.948816 63.212959 
L 266.485488 63.654654 
L 266.022147 64.09559 
L 265.558809 64.536527 
L 265.094687 64.977951 
L 264.631032 65.419078 
L 264.139806 65.886286 
L 263.385123 66.604001 
L 262.749709 67.208648 
L 262.181497 67.749107 
L 262.149205 67.789104 
L 262.095486 67.861107 
L 261.399955 66.975945 
L 260.705379 66.091962 
L 259.846078 66.767322 
L 259.088183 67.362963 
L 258.445112 67.868348 
L 257.839842 68.34402 
L 257.268352 68.793169 
L 256.64775 69.280938 
L 256.379274 69.050463 
L 254.997397 67.864032 
L 252.8684 66.054684 
L 252.446787 65.885208 
L 248.344287 64.267295 
L 248.016342 64.146955 
L 247.552605 63.487368 
L 247.455259 63.344753 
L 246.650983 62.217069 
L 245.989718 62.748692 
L 245.877431 62.83891 
L 245.399611 63.223029 
L 244.810505 63.69659 
L 244.216884 64.173822 
L 243.626183 64.64872 
L 243.521228 64.733044 
L 243.041247 65.118876 
L 242.98379 65.165115 
L 242.913383 65.221738 
L 242.874069 65.253332 
L 242.27384 65.735837 
L 241.684288 66.209779 
L 241.025684 66.73927 
L 240.137435 67.453359 
L 239.780801 67.359103 
L 239.658039 67.326685 
L 239.251805 67.219343 
L 238.418278 66.999094 
L 238.282042 66.963064 
L 237.76707 66.829445 
L 237.650781 66.801175 
L 235.828291 66.358265 
L 235.202059 66.206385 
L 234.50025 66.035733 
L 233.798475 65.865047 
L 233.096927 65.694939 
L 232.396283 65.523114 
L 231.694651 65.352543 
L 230.991565 65.181604 
L 230.287776 65.011731 
L 229.586841 64.840068 
L 228.884908 64.669151 
L 228.182789 64.49806 
L 227.483799 64.33006 
L 226.006414 63.971751 
L 225.823119 63.927304 
L 225.774169 63.915431 
L 225.551408 63.861402 
L 225.372735 63.816793 
L 224.000877 63.474087 
L 223.299669 63.301984 
L 223.183585 63.273393 
L 222.599692 63.130149 
L 221.898043 62.957807 
L 221.196108 62.785726 
L 220.494242 62.613574 
L 219.792341 62.441499 
L 219.341511 62.330759 
L 219.090686 62.269168 
L 219.082661 62.267007 
L 218.388846 62.096662 
L 217.685959 61.924288 
L 216.984701 61.752138 
L 216.283443 61.580028 
L 215.582315 61.407302 
L 215.230517 61.32158 
L 214.88092 61.235779 
L 213.999232 61.037138 
L 213.893499 61.013348 
L 213.04762 60.822666 
L 212.167056 60.624447 
L 211.959177 60.577559 
L 211.74186 60.528321 
L 211.661447 60.870285 
L 211.594752 61.153856 
L 211.451392 61.134743 
L 210.593001 61.018188 
L 209.591285 60.882562 
L 208.792879 60.774333 
L 208.060361 60.675142 
L 208.124595 60.35622 
L 207.55196 60.273033 
L 205.662023 59.997983 
L 205.555986 60.064869 
L 205.520204 60.33054 
L 205.327887 61.263594 
L 205.169619 62.031521 
L 205.117162 62.286537 
L 205.070904 62.511418 
L 205.059798 62.564694 
L 204.752333 64.057627 
L 204.606458 64.765811 
L 204.460516 65.474214 
L 204.313187 66.183693 
L 204.1674 66.892491 
L 204.022139 67.600411 
L 203.876568 68.309096 
L 203.730591 69.017247 
L 203.584651 69.725397 
L 203.511682 70.07949 
L 203.475197 70.256537 
L 203.438713 70.433584 
L 203.292813 71.141806 
L 203.146987 71.850099 
L 203.000841 72.558543 
L 202.854873 73.266839 
L 202.708832 73.974992 
L 202.562792 74.683181 
L 202.416717 75.391299 
L 202.366402 75.635538 
L 202.270679 76.099489 
L 201.995413 77.434358 
L 201.888116 77.968172 
L 201.521779 79.739975 
L 201.373302 80.457985 
L 201.228761 81.157243 
L 201.050539 82.019139 
L 200.93624 82.571968 
L 200.790509 83.276715 
L 200.643298 83.98891 
L 200.496944 84.696818 
L 200.349072 85.412103 
L 200.203773 86.114671 
L 200.054915 86.834861 
L 199.911569 87.528161 
L 199.765749 88.233526 
L 199.409133 89.99226 
L 199.299929 90.520141 
L 199.099277 91.457745 
L 198.949592 92.181392 
L 198.803516 92.888065 
L 198.656847 93.59761 
L 198.511235 94.302031 
L 198.364365 95.012304 
L 198.219152 95.714835 
L 198.073674 96.41853 
L 197.929454 97.116265 
L 197.787078 97.812191 
L 197.636473 98.523225 
L 197.5404 99.018131 
L 197.340104 100.038217 
L 196.750654 102.922424 
L 196.690761 103.163666 
L 196.45444 103.422177 
L 196.320541 103.568587 
L 196.226255 103.67177 
L 196.070087 103.872942 
L 195.967261 104.144448 
L 195.937268 104.223574 
L 195.783583 104.264359 
L 195.183828 104.423518 
L 186.478737 106.990173 
L 186.409355 107.012378 
L 186.366596 106.856893 
L 186.173055 106.470221 
L 186.010925 106.038451 
L 185.714467 105.248819 
L 185.652373 105.08347 
L 185.533539 105.177954 
L 185.501413 105.202788 
L 185.219553 105.419786 
L 184.366683 106.076535 
L 183.575342 106.685863 
L 183.382121 106.823347 
L 183.276213 106.898714 
L 182.905325 107.187784 
L 182.754993 107.303907 
L 178.724501 110.409762 
L 176.362207 112.230583 
L 175.88479 112.598707 
L 175.407376 112.966905 
L 174.929963 113.335067 
L 174.452552 113.703231 
L 173.975143 114.071396 
L 173.497736 114.439562 
L 172.376277 115.304476 
L 170.263631 116.933245 
L 170.180374 116.997417 
L 170.113239 117.049163 
L 169.825427 117.271985 
L 167.500546 119.065046 
L 167.108269 119.365827 
L 166.591678 119.77865 
L 166.076428 120.173171 
L 165.559806 120.569457 
L 165.038164 120.97482 
L 164.380747 121.473017 
L 164.124396 121.675142 
L 164.026898 121.751223 
L 163.278566 122.334932 
L 161.923524 123.380996 
L 162.246321 123.396099 
L 161.962648 123.613532 
L 161.43244 124.017663 
L 161.39789 124.044005 
L 160.836714 124.483893 
L 160.715738 124.579911 
L 160.212831 124.957955 
L 160.167623 125.00246 
L 159.323555 125.838717 
L 159.099678 125.790506 
L 158.748085 125.711987 
L 158.574088 125.68621 
L 157.660442 125.537199 
L 157.260637 125.469769 
L 156.858142 125.412454 
L 155.684662 125.271223 
L 154.162374 125.15296 
L 152.964389 125.065979 
L 152.976589 124.228427 
L 152.12677 124.214707 
L 152.066838 124.210064 
L 152.022566 124.215711 
L 151.986744 124.324247 
L 151.797524 125.083174 
L 151.81541 125.083653 
L 151.811928 125.126937 
L 150.356657 125.046869 
L 150.347441 125.042853 
L 150.206088 125.037215 
L 150.069632 125.028982 
L 148.896823 124.960751 
L 148.765414 124.957559 
L 148.726088 124.952184 
L 147.908473 124.921307 
L 147.63466 124.912284 
L 147.452564 124.926528 
L 147.074724 124.914714 
L 146.531986 124.882747 
L 145.554201 124.838837 
L 145.555706 124.766781 
L 145.3919 124.765319 
L 145.214911 124.763792 
L 144.801333 124.760147 
L 144.745164 125.051952 
L 144.71662 125.200242 
L 144.658657 125.220428 
L 144.531278 126.626772 
L 144.795547 127.60073 
L 144.896902 127.971775 
L 144.943013 128.163812 
L 144.965104 128.251217 
L 145.095717 128.767363 
L 145.119447 128.860998 
L 145.097031 129.011719 
L 145.09077 129.055023 
L 145.091911 129.11653 
L 145.094836 129.279598 
L 145.099278 129.523241 
L 145.102351 129.693762 
L 145.156001 130.395209 
L 145.121741 130.761608 
L 145.311972 132.150623 
L 145.561214 133.970554 
L 145.807127 135.465131 
L 146.182477 135.857463 
L 146.980962 136.694172 
L 148.315182 138.445548 
L 148.641566 139.003573 
L 149.356104 140.225505 
L 149.467912 140.41671 
L 149.55288 140.521187 
L 149.633629 140.620499 
L 149.811739 140.782564 
L 150.470313 141.381799 
L 151.490549 142.305063 
L 152.902323 143.582971 
L 153.744539 144.849265 
L 154.566038 146.136856 
L 154.62164 146.235726 
L 155.380837 147.585792 
L 155.418179 147.652194 
L 155.796095 148.096688 
L 156.552336 148.957112 
L 157.255606 149.757308 
L 157.488333 150.031481 
L 157.613829 150.264049 
L 157.920455 150.951259 
L 158.072145 151.291313 
L 158.194791 151.621553 
L 158.323936 151.948117 
L 158.437303 152.158919 
L 158.590068 152.463699 
L 158.646419 152.645041 
L 158.904707 153.197081 
L 158.989166 153.382973 
L 159.026086 153.575158 
L 159.218697 155.315839 
L 159.225386 155.375137 
L 159.235418 155.466836 
L 159.262038 155.517787 
L 159.277775 155.547908 
L 159.362565 156.228963 
L 159.397029 156.388044 
L 159.440637 156.389392 
L 159.597977 156.395917 
L 159.60908 156.435439 
L 159.895992 157.466647 
L 159.893348 157.562923 
L 159.810572 158.082709 
L 159.661511 158.586248 
L 159.443162 159.062235 
L 159.180844 159.470085 
L 158.822231 159.906546 
L 158.303578 160.450205 
L 158.05583 160.74707 
L 157.849888 161.074926 
L 157.696496 161.431061 
L 157.589238 161.80138 
L 157.542384 162.182595 
L 157.523264 162.483129 
L 157.360977 165.035623 
L 157.318517 165.524682 
L 157.244202 166.0059 
L 157.136457 166.48358 
L 157.073923 166.696875 
L 156.998461 166.954184 
L 156.983905 166.994845 
L 156.902246 167.222957 
L 156.875892 167.296574 
L 156.834476 167.412199 
L 156.641124 167.862179 
L 156.414583 168.296962 
L 156.200014 168.686809 
L 156.074485 168.933524 
L 155.957448 169.18608 
L 155.85271 169.443497 
L 155.708853 169.830501 
L 155.21697 171.153949 
L 155.062797 171.506838 
L 155.016059 171.613816 
L 154.775362 172.05536 
L 154.648232 172.229575 
L 154.477399 172.463541 
L 154.148182 172.839187 
L 153.781063 173.182103 
L 153.47484 173.412428 
L 152.947802 173.739667 
L 152.493625 173.953247 
L 152.448527 173.971366 
L 152.4572 174.221513 
L 151.699319 174.286404 
L 150.943283 174.35517 
L 150.18794 174.42056 
L 149.686354 174.463055 
L 149.177095 174.510082 
L 148.493105 174.566829 
L 146.90223 174.701607 
L 145.933387 174.783694 
L 145.938669 174.9638 
L 144.850976 174.907341 
L 144.797306 174.904531 
L 144.733058 174.727656 
L 144.71649 174.682054 
L 144.541642 174.654752 
L 144.181415 174.615306 
L 143.816047 174.619142 
L 143.451779 174.651296 
L 143.095131 174.723838 
L 142.745023 174.833242 
L 142.587845 174.901904 
L 142.409597 174.974966 
L 142.089788 175.152502 
L 141.787161 175.359052 
L 141.512445 175.596864 
L 141.258159 175.858196 
L 141.030212 176.144269 
L 140.837703 176.455084 
L 140.670539 176.780562 
L 140.252389 177.719187 
L 140.068332 178.078048 
L 140.004804 178.191797 
L 139.951289 178.282729 
L 139.896457 178.372817 
L 139.840273 178.4621 
L 139.578672 178.796981 
L 139.295958 179.112013 
L 138.975992 179.394449 
L 138.63333 179.648199 
L 138.269747 179.868054 
L 137.712876 180.166848 
L 137.351971 180.37601 
L 136.999099 180.604269 
L 136.644721 180.83672 
L 136.324271 181.101544 
L 136.010036 181.373955 
L 135.703677 181.663004 
L 135.414491 181.964235 
L 135.13969 182.280853 
L 134.88079 182.612828 
L 134.636087 182.95433 
L 134.409412 183.307382 
L 134.203354 183.67338 
L 134.010899 184.046239 
L 133.838335 184.428077 
L 133.685256 184.818576 
L 133.549094 185.213734 
L 133.15307 186.468817 
L 133.077325 186.708864 
L 133.510196 186.863579 
L 133.413711 187.218755 
L 133.100947 188.254982 
L 132.699783 189.696965 
L 132.069551 191.798906 
L 131.557704 193.364126 
L 131.536163 193.42308 
L 131.51818 193.484859 
L 131.503632 193.548778 
L 131.492148 193.614264 
L 131.484013 193.679358 
L 131.47904 193.743702 
L 131.476582 193.80738 
L 131.477056 193.869697 
L 131.48054 193.930832 
L 131.487075 193.99111 
L 131.496668 194.050893 
L 131.602816 195.05183 
L 131.900126 197.827872 
L 132.08459 198.716788 
L 132.12878 198.883127 
L 132.177141 199.050504 
L 132.228271 199.215547 
L 132.281981 199.377751 
L 132.339289 199.53934 
L 132.401214 199.702612 
L 132.508722 199.84717 
L 132.618563 199.989184 
L 132.731813 200.132035 
L 132.841994 200.256561 
L 132.950492 200.369031 
L 133.069648 200.496564 
L 133.193327 200.624695 
L 133.376794 200.804336 
L 133.388542 200.816084 
L 133.566156 200.993705 
L 133.750131 201.157121 
L 133.937571 201.329626 
L 134.019291 201.415158 
L 134.097414 201.499458 
L 134.171363 201.564405 
L 134.243175 201.652668 
L 134.377089 201.836624 
L 134.439043 201.932104 
L 134.497503 202.029753 
L 134.552429 202.129462 
L 134.603747 202.231053 
L 134.651419 202.334454 
L 134.801819 202.717079 
L 134.832483 202.83667 
L 134.85862 202.957329 
L 134.88019 203.078875 
L 134.89385 203.177583 
L 134.909472 203.324051 
L 134.917177 203.447284 
L 134.92023 203.570718 
L 134.91859 203.694172 
L 134.912326 203.817465 
L 134.901436 203.940452 
L 134.88588 204.062952 
L 134.879415 204.108468 
L 134.822192 204.345591 
L 134.706809 204.819854 
L 134.614513 204.977851 
L 134.790809 205.020837 
L 134.867489 205.039546 
L 134.999581 205.069316 
L 134.959042 205.281205 
L 134.870246 205.745458 
L 134.851026 205.845945 
L 134.803399 206.094951 
L 134.282407 205.970159 
L 134.071593 206.609714 
L 134.041726 206.700322 
L 133.988088 206.863031 
L 133.937651 207.016012 
L 133.907769 207.821817 
L 133.881781 208.081302 
L 133.870538 208.193692 
L 133.761939 208.494089 
L 133.640602 208.787356 
L 133.200214 209.497514 
L 132.636504 210.022204 
L 132.531463 210.179239 
L 132.429091 210.33803 
L 132.329316 210.498472 
L 132.232245 210.660597 
L 132.137877 210.824297 
L 131.942616 211.332869 
L 131.605996 212.386876 
L 131.399831 212.962698 
L 130.724916 214.722414 
L 130.389008 215.351851 
L 130.022925 216.163729 
L 129.509951 216.990872 
L 128.980847 217.666611 
L 128.674804 218.026318 
L 128.607879 218.115421 
L 128.54392 218.206708 
L 128.482961 218.299999 
L 128.425074 218.395292 
L 128.370363 218.492404 
L 128.318827 218.591263 
L 128.270572 218.691793 
L 128.265014 218.709023 
L 127.935321 219.731121 
L 127.660279 221.176655 
L 127.363258 222.777787 
L 127.226888 223.52679 
L 127.157536 223.901549 
L 126.855805 225.531987 
L 126.661152 226.552775 
L 126.613863 226.771207 
L 126.564328 226.989141 
L 126.512579 227.20654 
L 126.458547 227.423406 
L 126.402338 227.6397 
L 126.260543 228.136248 
L 126.182087 228.399205 
L 125.982583 228.972367 
L 125.94619 229.068428 
L 125.832381 229.368681 
L 125.771771 229.528527 
L 125.66702 229.774055 
L 125.447875 230.240795 
L 125.192478 230.765528 
L 124.855659 231.452254 
L 124.301807 232.659253 
L 124.047014 233.144663 
L 123.729253 233.756307 
L 123.10689 235.076877 
L 122.817854 235.655194 
L 122.561119 236.184223 
L 122.415958 236.448185 
L 122.253212 236.678874 
L 122.027183 236.937934 
L 121.04973 237.944731 
L 120.829225 238.192788 
L 120.622419 238.450996 
L 120.254663 238.962807 
L 120.234672 238.997554 
L 120.217926 239.033973 
L 120.204528 239.071774 
L 120.19458 239.110628 
L 120.18822 239.150243 
L 120.185476 239.190256 
L 120.186344 239.230342 
L 120.190852 239.27021 
L 120.198958 239.3095 
L 120.264541 239.502736 
L 120.286127 239.681213 
L 120.300503 239.821939 
L 120.233989 240.489782 
L 120.223332 240.709476 
L 120.228777 240.791094 
L 120.27575 241.430795 
L 120.236047 241.612558 
L 120.203542 243.612936 
L 120.277394 244.88007 
L 120.125196 245.849492 
L 119.925783 247.440586 
L 119.952529 247.970298 
L 119.797079 248.684616 
L 119.51877 249.663793 
L 119.584591 249.798208 
L 119.486457 250.290779 
L 119.429203 250.579159 
L 119.53779 250.904658 
L 119.534616 251.647029 
L 119.627374 252.433561 
L 119.734446 254.200164 
L 119.71857 254.616968 
L 119.700925 255.033734 
L 119.68151 255.450392 
L 119.6743 255.59629 
L 119.666873 255.742192 
L 119.659228 255.888063 
L 119.733049 256.152979 
L 119.80443 256.231255 
L 119.795974 256.350756 
L 119.758224 256.430666 
L 119.762028 256.928116 
L 119.798136 257.806191 
L 119.605572 257.820566 
L 119.607383 257.849992 
L 119.391017 257.854237 
L 119.396277 257.982947 
L 119.369274 257.984282 
L 119.213816 257.9918 
L 119.242676 258.280561 
L 119.274633 258.368888 
L 119.684446 258.351228 
L 119.706962 258.598565 
L 119.707402 258.893684 
L 119.734962 259.075082 
L 119.768238 259.263171 
L 119.802776 259.435708 
L 119.842954 259.614719 
L 119.887335 259.792742 
L 119.935844 259.969669 
L 119.988479 260.145428 
L 120.045202 260.319874 
L 120.106013 260.492972 
L 120.170834 260.664543 
L 120.239631 260.834586 
L 120.318804 260.996533 
L 120.401836 261.156556 
L 120.488653 261.314549 
L 120.57918 261.470369 
L 120.673453 261.624016 
L 120.771324 261.775346 
L 120.872791 261.924252 
L 120.977783 262.070735 
L 121.086224 262.214616 
L 121.216858 262.391317 
L 121.350372 262.565862 
L 121.486728 262.738141 
L 121.767785 263.075911 
L 121.951752 263.261648 
L 121.999064 263.283651 
L 122.061173 263.324 
L 122.078996 263.371132 
L 122.137526 263.469426 
L 124.485575 265.563659 
L 125.887866 266.823732 
L 127.975732 268.688273 
L 128.251048 268.934146 
L 128.378951 269.066387 
L 128.503665 269.20166 
L 128.625154 269.339893 
L 128.743272 269.48098 
L 128.858017 269.624885 
L 128.969278 269.771466 
L 129.077019 269.920686 
L 129.181202 270.072474 
L 129.281716 270.226689 
L 129.378524 270.383257 
L 129.471552 270.542145 
L 129.560798 270.703171 
L 129.646189 270.866336 
L 129.727649 271.031462 
L 129.794192 271.173974 
L 129.857481 271.317999 
L 129.91755 271.463391 
L 129.974289 271.610115 
L 130.027697 271.758101 
L 130.077771 271.907238 
L 130.124476 272.057492 
L 130.167774 272.208791 
L 130.207625 272.360992 
L 130.479608 273.966225 
L 130.766401 275.869984 
L 130.840181 276.418886 
L 130.850549 276.496171 
L 130.870135 276.641826 
L 130.883266 276.762164 
L 130.892473 276.882906 
L 130.897823 277.003869 
L 130.899277 277.12491 
L 130.896835 277.245956 
L 130.890457 277.366863 
L 130.880213 277.487521 
L 130.8661 277.607749 
L 130.82469 277.763593 
L 130.779362 277.918356 
L 130.730185 278.071893 
L 130.677122 278.224132 
L 130.620207 278.375 
L 130.559546 278.524349 
L 130.495136 278.672109 
L 130.443606 278.782563 
L 130.641499 278.962913 
L 130.720243 279.034677 
L 130.783362 279.091766 
L 131.010278 278.954493 
L 131.13554 278.878744 
L 131.352829 278.747273 
L 131.79249 278.471199 
L 131.81594 278.456436 
L 132.269747 278.171251 
L 132.959828 277.752808 
L 133.137072 277.645263 
L 133.175067 277.619678 
L 134.219788 276.91499 
L 134.618044 276.714342 
L 134.768863 276.615214 
L 134.824535 276.576774 
L 135.0173 276.443676 
L 135.499291 276.134341 
L 136.123416 275.720877 
L 136.982265 275.15186 
L 137.143255 275.04323 
L 137.395294 274.880275 
L 137.964613 274.539751 
L 138.260883 274.354383 
L 138.321121 274.316704 
L 138.386705 274.275661 
L 138.608802 274.136719 
L 139.172188 273.784228 
L 139.950155 273.292043 
L 140.897379 272.647058 
L 140.936888 272.621264 
L 141.007076 272.575402 
L 141.101583 272.51365 
L 141.146578 272.484273 
L 141.019219 272.373511 
L 141.278823 272.204005 
L 142.625407 271.324897 
L 143.077505 271.031775 
L 143.711487 270.616803 
L 144.239291 270.297861 
L 144.616218 270.055421 
L 144.746752 270.338516 
L 145.081418 271.021277 
L 145.126558 271.132983 
" clip-path="url(#pd87ea99d19)" style="fill: #1f77b4"/>
   </g>
   <g id="matplotlib.axis_1">
    <g id="xtick_1">
     <g id="line2d_1">
      <defs>
       <path id="m00d8146935" d="M 0 0 
L 0 3.5 
" style="stroke: #000000; stroke-width: 0.8"/>
      </defs>
      <g>
       <use xlink:href="#m00d8146935" x="111.716517" y="307.584" style="stroke: #000000; stroke-width: 0.8"/>
      </g>
     </g>
     <g id="text_1">
      <!-- 13.56 -->
      <g transform="translate(97.402454 322.182437) scale(0.1 -0.1)">
       <defs>
        <path id="DejaVuSans-31" d="M 794 531 
L 1825 531 
L 1825 4091 
L 703 3866 
L 703 4441 
L 1819 4666 
L 2450 4666 
L 2450 531 
L 3481 531 
L 3481 0 
L 794 0 
L 794 531 
z
" transform="scale(0.015625)"/>
        <path id="DejaVuSans-33" d="M 2597 2516 
Q 3050 2419 3304 2112 
Q 3559 1806 3559 1356 
Q 3559 666 3084 287 
Q 2609 -91 1734 -91 
Q 1441 -91 1130 -33 
Q 819 25 488 141 
L 488 750 
Q 750 597 1062 519 
Q 1375 441 1716 441 
Q 2309 441 2620 675 
Q 2931 909 2931 1356 
Q 2931 1769 2642 2001 
Q 2353 2234 1838 2234 
L 1294 2234 
L 1294 2753 
L 1863 2753 
Q 2328 2753 2575 2939 
Q 2822 3125 2822 3475 
Q 2822 3834 2567 4026 
Q 2313 4219 1838 4219 
Q 1578 4219 1281 4162 
Q 984 4106 628 3988 
L 628 4550 
Q 988 4650 1302 4700 
Q 1616 4750 1894 4750 
Q 2613 4750 3031 4423 
Q 3450 4097 3450 3541 
Q 3450 3153 3228 2886 
Q 3006 2619 2597 2516 
z
" transform="scale(0.015625)"/>
        <path id="DejaVuSans-2e" d="M 684 794 
L 1344 794 
L 1344 0 
L 684 0 
L 684 794 
z
" transform="scale(0.015625)"/>
        <path id="DejaVuSans-35" d="M 691 4666 
L 3169 4666 
L 3169 4134 
L 1269 4134 
L 1269 2991 
Q 1406 3038 1543 3061 
Q 1681 3084 1819 3084 
Q 2600 3084 3056 2656 
Q 3513 2228 3513 1497 
Q 3513 744 3044 326 
Q 2575 -91 1722 -91 
Q 1428 -91 1123 -41 
Q 819 9 494 109 
L 494 744 
Q 775 591 1075 516 
Q 1375 441 1709 441 
Q 2250 441 2565 725 
Q 2881 1009 2881 1497 
Q 2881 1984 2565 2268 
Q 2250 2553 1709 2553 
Q 1456 2553 1204 2497 
Q 953 2441 691 2322 
L 691 4666 
z
" transform="scale(0.015625)"/>
        <path id="DejaVuSans-36" d="M 2113 2584 
Q 1688 2584 1439 2293 
Q 1191 2003 1191 1497 
Q 1191 994 1439 701 
Q 1688 409 2113 409 
Q 2538 409 2786 701 
Q 3034 994 3034 1497 
Q 3034 2003 2786 2293 
Q 2538 2584 2113 2584 
z
M 3366 4563 
L 3366 3988 
Q 3128 4100 2886 4159 
Q 2644 4219 2406 4219 
Q 1781 4219 1451 3797 
Q 1122 3375 1075 2522 
Q 1259 2794 1537 2939 
Q 1816 3084 2150 3084 
Q 2853 3084 3261 2657 
Q 3669 2231 3669 1497 
Q 3669 778 3244 343 
Q 2819 -91 2113 -91 
Q 1303 -91 875 529 
Q 447 1150 447 2328 
Q 447 3434 972 4092 
Q 1497 4750 2381 4750 
Q 2619 4750 2861 4703 
Q 3103 4656 3366 4563 
z
" transform="scale(0.015625)"/>
       </defs>
       <use xlink:href="#DejaVuSans-31"/>
       <use xlink:href="#DejaVuSans-33" x="63.623047"/>
       <use xlink:href="#DejaVuSans-2e" x="127.246094"/>
       <use xlink:href="#DejaVuSans-35" x="159.033203"/>
       <use xlink:href="#DejaVuSans-36" x="222.65625"/>
      </g>
     </g>
    </g>
    <g id="xtick_2">
     <g id="line2d_2">
      <g>
       <use xlink:href="#m00d8146935" x="160.728885" y="307.584" style="stroke: #000000; stroke-width: 0.8"/>
      </g>
     </g>
     <g id="text_2">
      <!-- 13.58 -->
      <g transform="translate(146.414823 322.182437) scale(0.1 -0.1)">
       <defs>
        <path id="DejaVuSans-38" d="M 2034 2216 
Q 1584 2216 1326 1975 
Q 1069 1734 1069 1313 
Q 1069 891 1326 650 
Q 1584 409 2034 409 
Q 2484 409 2743 651 
Q 3003 894 3003 1313 
Q 3003 1734 2745 1975 
Q 2488 2216 2034 2216 
z
M 1403 2484 
Q 997 2584 770 2862 
Q 544 3141 544 3541 
Q 544 4100 942 4425 
Q 1341 4750 2034 4750 
Q 2731 4750 3128 4425 
Q 3525 4100 3525 3541 
Q 3525 3141 3298 2862 
Q 3072 2584 2669 2484 
Q 3125 2378 3379 2068 
Q 3634 1759 3634 1313 
Q 3634 634 3220 271 
Q 2806 -91 2034 -91 
Q 1263 -91 848 271 
Q 434 634 434 1313 
Q 434 1759 690 2068 
Q 947 2378 1403 2484 
z
M 1172 3481 
Q 1172 3119 1398 2916 
Q 1625 2713 2034 2713 
Q 2441 2713 2670 2916 
Q 2900 3119 2900 3481 
Q 2900 3844 2670 4047 
Q 2441 4250 2034 4250 
Q 1625 4250 1398 4047 
Q 1172 3844 1172 3481 
z
" transform="scale(0.015625)"/>
       </defs>
       <use xlink:href="#DejaVuSans-31"/>
       <use xlink:href="#DejaVuSans-33" x="63.623047"/>
       <use xlink:href="#DejaVuSans-2e" x="127.246094"/>
       <use xlink:href="#DejaVuSans-35" x="159.033203"/>
       <use xlink:href="#DejaVuSans-38" x="222.65625"/>
      </g>
     </g>
    </g>
    <g id="xtick_3">
     <g id="line2d_3">
      <g>
       <use xlink:href="#m00d8146935" x="209.741254" y="307.584" style="stroke: #000000; stroke-width: 0.8"/>
      </g>
     </g>
     <g id="text_3">
      <!-- 13.60 -->
      <g transform="translate(195.427192 322.182437) scale(0.1 -0.1)">
       <defs>
        <path id="DejaVuSans-30" d="M 2034 4250 
Q 1547 4250 1301 3770 
Q 1056 3291 1056 2328 
Q 1056 1369 1301 889 
Q 1547 409 2034 409 
Q 2525 409 2770 889 
Q 3016 1369 3016 2328 
Q 3016 3291 2770 3770 
Q 2525 4250 2034 4250 
z
M 2034 4750 
Q 2819 4750 3233 4129 
Q 3647 3509 3647 2328 
Q 3647 1150 3233 529 
Q 2819 -91 2034 -91 
Q 1250 -91 836 529 
Q 422 1150 422 2328 
Q 422 3509 836 4129 
Q 1250 4750 2034 4750 
z
" transform="scale(0.015625)"/>
       </defs>
       <use xlink:href="#DejaVuSans-31"/>
       <use xlink:href="#DejaVuSans-33" x="63.623047"/>
       <use xlink:href="#DejaVuSans-2e" x="127.246094"/>
       <use xlink:href="#DejaVuSans-36" x="159.033203"/>
       <use xlink:href="#DejaVuSans-30" x="222.65625"/>
      </g>
     </g>
    </g>
    <g id="xtick_4">
     <g id="line2d_4">
      <g>
       <use xlink:href="#m00d8146935" x="258.753623" y="307.584" style="stroke: #000000; stroke-width: 0.8"/>
      </g>
     </g>
     <g id="text_4">
      <!-- 13.62 -->
      <g transform="translate(244.439561 322.182437) scale(0.1 -0.1)">
       <defs>
        <path id="DejaVuSans-32" d="M 1228 531 
L 3431 531 
L 3431 0 
L 469 0 
L 469 531 
Q 828 903 1448 1529 
Q 2069 2156 2228 2338 
Q 2531 2678 2651 2914 
Q 2772 3150 2772 3378 
Q 2772 3750 2511 3984 
Q 2250 4219 1831 4219 
Q 1534 4219 1204 4116 
Q 875 4013 500 3803 
L 500 4441 
Q 881 4594 1212 4672 
Q 1544 4750 1819 4750 
Q 2544 4750 2975 4387 
Q 3406 4025 3406 3419 
Q 3406 3131 3298 2873 
Q 3191 2616 2906 2266 
Q 2828 2175 2409 1742 
Q 1991 1309 1228 531 
z
" transform="scale(0.015625)"/>
       </defs>
       <use xlink:href="#DejaVuSans-31"/>
       <use xlink:href="#DejaVuSans-33" x="63.623047"/>
       <use xlink:href="#DejaVuSans-2e" x="127.246094"/>
       <use xlink:href="#DejaVuSans-36" x="159.033203"/>
       <use xlink:href="#DejaVuSans-32" x="222.65625"/>
      </g>
     </g>
    </g>
    <g id="xtick_5">
     <g id="line2d_5">
      <g>
       <use xlink:href="#m00d8146935" x="307.765992" y="307.584" style="stroke: #000000; stroke-width: 0.8"/>
      </g>
     </g>
     <g id="text_5">
      <!-- 13.64 -->
      <g transform="translate(293.451929 322.182437) scale(0.1 -0.1)">
       <defs>
        <path id="DejaVuSans-34" d="M 2419 4116 
L 825 1625 
L 2419 1625 
L 2419 4116 
z
M 2253 4666 
L 3047 4666 
L 3047 1625 
L 3713 1625 
L 3713 1100 
L 3047 1100 
L 3047 0 
L 2419 0 
L 2419 1100 
L 313 1100 
L 313 1709 
L 2253 4666 
z
" transform="scale(0.015625)"/>
       </defs>
       <use xlink:href="#DejaVuSans-31"/>
       <use xlink:href="#DejaVuSans-33" x="63.623047"/>
       <use xlink:href="#DejaVuSans-2e" x="127.246094"/>
       <use xlink:href="#DejaVuSans-36" x="159.033203"/>
       <use xlink:href="#DejaVuSans-34" x="222.65625"/>
      </g>
     </g>
    </g>
    <g id="xtick_6">
     <g id="line2d_6">
      <g>
       <use xlink:href="#m00d8146935" x="356.778361" y="307.584" style="stroke: #000000; stroke-width: 0.8"/>
      </g>
     </g>
     <g id="text_6">
      <!-- 13.66 -->
      <g transform="translate(342.464298 322.182437) scale(0.1 -0.1)">
       <use xlink:href="#DejaVuSans-31"/>
       <use xlink:href="#DejaVuSans-33" x="63.623047"/>
       <use xlink:href="#DejaVuSans-2e" x="127.246094"/>
       <use xlink:href="#DejaVuSans-36" x="159.033203"/>
       <use xlink:href="#DejaVuSans-36" x="222.65625"/>
      </g>
     </g>
    </g>
   </g>
   <g id="matplotlib.axis_2">
    <g id="ytick_1">
     <g id="line2d_7">
      <defs>
       <path id="m0df7fc422d" d="M 0 0 
L -3.5 0 
" style="stroke: #000000; stroke-width: 0.8"/>
      </defs>
      <g>
       <use xlink:href="#m0df7fc422d" x="107.519198" y="297.408893" style="stroke: #000000; stroke-width: 0.8"/>
      </g>
     </g>
     <g id="text_7">
      <!-- 52.47 -->
      <g transform="translate(71.891073 301.208112) scale(0.1 -0.1)">
       <defs>
        <path id="DejaVuSans-37" d="M 525 4666 
L 3525 4666 
L 3525 4397 
L 1831 0 
L 1172 0 
L 2766 4134 
L 525 4134 
L 525 4666 
z
" transform="scale(0.015625)"/>
       </defs>
       <use xlink:href="#DejaVuSans-35"/>
       <use xlink:href="#DejaVuSans-32" x="63.623047"/>
       <use xlink:href="#DejaVuSans-2e" x="127.246094"/>
       <use xlink:href="#DejaVuSans-34" x="159.033203"/>
       <use xlink:href="#DejaVuSans-37" x="222.65625"/>
      </g>
     </g>
    </g>
    <g id="ytick_2">
     <g id="line2d_8">
      <g>
       <use xlink:href="#m0df7fc422d" x="107.519198" y="257.152603" style="stroke: #000000; stroke-width: 0.8"/>
      </g>
     </g>
     <g id="text_8">
      <!-- 52.48 -->
      <g transform="translate(71.891073 260.951822) scale(0.1 -0.1)">
       <use xlink:href="#DejaVuSans-35"/>
       <use xlink:href="#DejaVuSans-32" x="63.623047"/>
       <use xlink:href="#DejaVuSans-2e" x="127.246094"/>
       <use xlink:href="#DejaVuSans-34" x="159.033203"/>
       <use xlink:href="#DejaVuSans-38" x="222.65625"/>
      </g>
     </g>
    </g>
    <g id="ytick_3">
     <g id="line2d_9">
      <g>
       <use xlink:href="#m0df7fc422d" x="107.519198" y="216.896312" style="stroke: #000000; stroke-width: 0.8"/>
      </g>
     </g>
     <g id="text_9">
      <!-- 52.49 -->
      <g transform="translate(71.891073 220.695531) scale(0.1 -0.1)">
       <defs>
        <path id="DejaVuSans-39" d="M 703 97 
L 703 672 
Q 941 559 1184 500 
Q 1428 441 1663 441 
Q 2288 441 2617 861 
Q 2947 1281 2994 2138 
Q 2813 1869 2534 1725 
Q 2256 1581 1919 1581 
Q 1219 1581 811 2004 
Q 403 2428 403 3163 
Q 403 3881 828 4315 
Q 1253 4750 1959 4750 
Q 2769 4750 3195 4129 
Q 3622 3509 3622 2328 
Q 3622 1225 3098 567 
Q 2575 -91 1691 -91 
Q 1453 -91 1209 -44 
Q 966 3 703 97 
z
M 1959 2075 
Q 2384 2075 2632 2365 
Q 2881 2656 2881 3163 
Q 2881 3666 2632 3958 
Q 2384 4250 1959 4250 
Q 1534 4250 1286 3958 
Q 1038 3666 1038 3163 
Q 1038 2656 1286 2365 
Q 1534 2075 1959 2075 
z
" transform="scale(0.015625)"/>
       </defs>
       <use xlink:href="#DejaVuSans-35"/>
       <use xlink:href="#DejaVuSans-32" x="63.623047"/>
       <use xlink:href="#DejaVuSans-2e" x="127.246094"/>
       <use xlink:href="#DejaVuSans-34" x="159.033203"/>
       <use xlink:href="#DejaVuSans-39" x="222.65625"/>
      </g>
     </g>
    </g>
    <g id="ytick_4">
     <g id="line2d_10">
      <g>
       <use xlink:href="#m0df7fc422d" x="107.519198" y="176.640022" style="stroke: #000000; stroke-width: 0.8"/>
      </g>
     </g>
     <g id="text_10">
      <!-- 52.50 -->
      <g transform="translate(71.891073 180.439241) scale(0.1 -0.1)">
       <use xlink:href="#DejaVuSans-35"/>
       <use xlink:href="#DejaVuSans-32" x="63.623047"/>
       <use xlink:href="#DejaVuSans-2e" x="127.246094"/>
       <use xlink:href="#DejaVuSans-35" x="159.033203"/>
       <use xlink:href="#DejaVuSans-30" x="222.65625"/>
      </g>
     </g>
    </g>
    <g id="ytick_5">
     <g id="line2d_11">
      <g>
       <use xlink:href="#m0df7fc422d" x="107.519198" y="136.383732" style="stroke: #000000; stroke-width: 0.8"/>
      </g>
     </g>
     <g id="text_11">
      <!-- 52.51 -->
      <g transform="translate(71.891073 140.18295) scale(0.1 -0.1)">
       <use xlink:href="#DejaVuSans-35"/>
       <use xlink:href="#DejaVuSans-32" x="63.623047"/>
       <use xlink:href="#DejaVuSans-2e" x="127.246094"/>
       <use xlink:href="#DejaVuSans-35" x="159.033203"/>
       <use xlink:href="#DejaVuSans-31" x="222.65625"/>
      </g>
     </g>
    </g>
    <g id="ytick_6">
     <g id="line2d_12">
      <g>
       <use xlink:href="#m0df7fc422d" x="107.519198" y="96.127441" style="stroke: #000000; stroke-width: 0.8"/>
      </g>
     </g>
     <g id="text_12">
      <!-- 52.52 -->
      <g transform="translate(71.891073 99.92666) scale(0.1 -0.1)">
       <use xlink:href="#DejaVuSans-35"/>
       <use xlink:href="#DejaVuSans-32" x="63.623047"/>
       <use xlink:href="#DejaVuSans-2e" x="127.246094"/>
       <use xlink:href="#DejaVuSans-35" x="159.033203"/>
       <use xlink:href="#DejaVuSans-32" x="222.65625"/>
      </g>
     </g>
    </g>
    <g id="ytick_7">
     <g id="line2d_13">
      <g>
       <use xlink:href="#m0df7fc422d" x="107.519198" y="55.871151" style="stroke: #000000; stroke-width: 0.8"/>
      </g>
     </g>
     <g id="text_13">
      <!-- 52.53 -->
      <g transform="translate(71.891073 59.67037) scale(0.1 -0.1)">
       <use xlink:href="#DejaVuSans-35"/>
       <use xlink:href="#DejaVuSans-32" x="63.623047"/>
       <use xlink:href="#DejaVuSans-2e" x="127.246094"/>
       <use xlink:href="#DejaVuSans-35" x="159.033203"/>
       <use xlink:href="#DejaVuSans-33" x="222.65625"/>
      </g>
     </g>
    </g>
   </g>
   <g id="patch_3">
    <path d="M 107.519198 307.584 
L 107.519198 41.472 
" style="fill: none; stroke: #000000; stroke-width: 0.8; stroke-linejoin: miter; stroke-linecap: square"/>
   </g>
   <g id="patch_4">
    <path d="M 364.800802 307.584 
L 364.800802 41.472 
" style="fill: none; stroke: #000000; stroke-width: 0.8; stroke-linejoin: miter; stroke-linecap: square"/>
   </g>
   <g id="patch_5">
    <path d="M 107.519198 307.584 
L 364.800802 307.584 
" style="fill: none; stroke: #000000; stroke-width: 0.8; stroke-linejoin: miter; stroke-linecap: square"/>
   </g>
   <g id="patch_6">
    <path d="M 107.519198 41.472 
L 364.800802 41.472 
" style="fill: none; stroke: #000000; stroke-width: 0.8; stroke-linejoin: miter; stroke-linecap: square"/>
   </g>
   <g id="text_14">
    <!-- Kaulsdorf_Mahlsdorf -->
    <g transform="translate(162.328734 168.260963) scale(0.12 -0.12)">
     <defs>
      <path id="DejaVuSans-4b" d="M 628 4666 
L 1259 4666 
L 1259 2694 
L 3353 4666 
L 4166 4666 
L 1850 2491 
L 4331 0 
L 3500 0 
L 1259 2247 
L 1259 0 
L 628 0 
L 628 4666 
z
" transform="scale(0.015625)"/>
      <path id="DejaVuSans-61" d="M 2194 1759 
Q 1497 1759 1228 1600 
Q 959 1441 959 1056 
Q 959 750 1161 570 
Q 1363 391 1709 391 
Q 2188 391 2477 730 
Q 2766 1069 2766 1631 
L 2766 1759 
L 2194 1759 
z
M 3341 1997 
L 3341 0 
L 2766 0 
L 2766 531 
Q 2569 213 2275 61 
Q 1981 -91 1556 -91 
Q 1019 -91 701 211 
Q 384 513 384 1019 
Q 384 1609 779 1909 
Q 1175 2209 1959 2209 
L 2766 2209 
L 2766 2266 
Q 2766 2663 2505 2880 
Q 2244 3097 1772 3097 
Q 1472 3097 1187 3025 
Q 903 2953 641 2809 
L 641 3341 
Q 956 3463 1253 3523 
Q 1550 3584 1831 3584 
Q 2591 3584 2966 3190 
Q 3341 2797 3341 1997 
z
" transform="scale(0.015625)"/>
      <path id="DejaVuSans-75" d="M 544 1381 
L 544 3500 
L 1119 3500 
L 1119 1403 
Q 1119 906 1312 657 
Q 1506 409 1894 409 
Q 2359 409 2629 706 
Q 2900 1003 2900 1516 
L 2900 3500 
L 3475 3500 
L 3475 0 
L 2900 0 
L 2900 538 
Q 2691 219 2414 64 
Q 2138 -91 1772 -91 
Q 1169 -91 856 284 
Q 544 659 544 1381 
z
M 1991 3584 
L 1991 3584 
z
" transform="scale(0.015625)"/>
      <path id="DejaVuSans-6c" d="M 603 4863 
L 1178 4863 
L 1178 0 
L 603 0 
L 603 4863 
z
" transform="scale(0.015625)"/>
      <path id="DejaVuSans-73" d="M 2834 3397 
L 2834 2853 
Q 2591 2978 2328 3040 
Q 2066 3103 1784 3103 
Q 1356 3103 1142 2972 
Q 928 2841 928 2578 
Q 928 2378 1081 2264 
Q 1234 2150 1697 2047 
L 1894 2003 
Q 2506 1872 2764 1633 
Q 3022 1394 3022 966 
Q 3022 478 2636 193 
Q 2250 -91 1575 -91 
Q 1294 -91 989 -36 
Q 684 19 347 128 
L 347 722 
Q 666 556 975 473 
Q 1284 391 1588 391 
Q 1994 391 2212 530 
Q 2431 669 2431 922 
Q 2431 1156 2273 1281 
Q 2116 1406 1581 1522 
L 1381 1569 
Q 847 1681 609 1914 
Q 372 2147 372 2553 
Q 372 3047 722 3315 
Q 1072 3584 1716 3584 
Q 2034 3584 2315 3537 
Q 2597 3491 2834 3397 
z
" transform="scale(0.015625)"/>
      <path id="DejaVuSans-64" d="M 2906 2969 
L 2906 4863 
L 3481 4863 
L 3481 0 
L 2906 0 
L 2906 525 
Q 2725 213 2448 61 
Q 2172 -91 1784 -91 
Q 1150 -91 751 415 
Q 353 922 353 1747 
Q 353 2572 751 3078 
Q 1150 3584 1784 3584 
Q 2172 3584 2448 3432 
Q 2725 3281 2906 2969 
z
M 947 1747 
Q 947 1113 1208 752 
Q 1469 391 1925 391 
Q 2381 391 2643 752 
Q 2906 1113 2906 1747 
Q 2906 2381 2643 2742 
Q 2381 3103 1925 3103 
Q 1469 3103 1208 2742 
Q 947 2381 947 1747 
z
" transform="scale(0.015625)"/>
      <path id="DejaVuSans-6f" d="M 1959 3097 
Q 1497 3097 1228 2736 
Q 959 2375 959 1747 
Q 959 1119 1226 758 
Q 1494 397 1959 397 
Q 2419 397 2687 759 
Q 2956 1122 2956 1747 
Q 2956 2369 2687 2733 
Q 2419 3097 1959 3097 
z
M 1959 3584 
Q 2709 3584 3137 3096 
Q 3566 2609 3566 1747 
Q 3566 888 3137 398 
Q 2709 -91 1959 -91 
Q 1206 -91 779 398 
Q 353 888 353 1747 
Q 353 2609 779 3096 
Q 1206 3584 1959 3584 
z
" transform="scale(0.015625)"/>
      <path id="DejaVuSans-72" d="M 2631 2963 
Q 2534 3019 2420 3045 
Q 2306 3072 2169 3072 
Q 1681 3072 1420 2755 
Q 1159 2438 1159 1844 
L 1159 0 
L 581 0 
L 581 3500 
L 1159 3500 
L 1159 2956 
Q 1341 3275 1631 3429 
Q 1922 3584 2338 3584 
Q 2397 3584 2469 3576 
Q 2541 3569 2628 3553 
L 2631 2963 
z
" transform="scale(0.015625)"/>
      <path id="DejaVuSans-66" d="M 2375 4863 
L 2375 4384 
L 1825 4384 
Q 1516 4384 1395 4259 
Q 1275 4134 1275 3809 
L 1275 3500 
L 2222 3500 
L 2222 3053 
L 1275 3053 
L 1275 0 
L 697 0 
L 697 3053 
L 147 3053 
L 147 3500 
L 697 3500 
L 697 3744 
Q 697 4328 969 4595 
Q 1241 4863 1831 4863 
L 2375 4863 
z
" transform="scale(0.015625)"/>
      <path id="DejaVuSans-5f" d="M 3263 -1063 
L 3263 -1509 
L -63 -1509 
L -63 -1063 
L 3263 -1063 
z
" transform="scale(0.015625)"/>
      <path id="DejaVuSans-4d" d="M 628 4666 
L 1569 4666 
L 2759 1491 
L 3956 4666 
L 4897 4666 
L 4897 0 
L 4281 0 
L 4281 4097 
L 3078 897 
L 2444 897 
L 1241 4097 
L 1241 0 
L 628 0 
L 628 4666 
z
" transform="scale(0.015625)"/>
      <path id="DejaVuSans-68" d="M 3513 2113 
L 3513 0 
L 2938 0 
L 2938 2094 
Q 2938 2591 2744 2837 
Q 2550 3084 2163 3084 
Q 1697 3084 1428 2787 
Q 1159 2491 1159 1978 
L 1159 0 
L 581 0 
L 581 4863 
L 1159 4863 
L 1159 2956 
Q 1366 3272 1645 3428 
Q 1925 3584 2291 3584 
Q 2894 3584 3203 3211 
Q 3513 2838 3513 2113 
z
" transform="scale(0.015625)"/>
     </defs>
     <use xlink:href="#DejaVuSans-4b"/>
     <use xlink:href="#DejaVuSans-61" x="63.826172"/>
     <use xlink:href="#DejaVuSans-75" x="125.105469"/>
     <use xlink:href="#DejaVuSans-6c" x="188.484375"/>
     <use xlink:href="#DejaVuSans-73" x="216.267578"/>
     <use xlink:href="#DejaVuSans-64" x="268.367188"/>
     <use xlink:href="#DejaVuSans-6f" x="331.84375"/>
     <use xlink:href="#DejaVuSans-72" x="393.025391"/>
     <use xlink:href="#DejaVuSans-66" x="434.138672"/>
     <use xlink:href="#DejaVuSans-5f" x="469.34375"/>
     <use xlink:href="#DejaVuSans-4d" x="519.34375"/>
     <use xlink:href="#DejaVuSans-61" x="605.623047"/>
     <use xlink:href="#DejaVuSans-68" x="666.902344"/>
     <use xlink:href="#DejaVuSans-6c" x="730.28125"/>
     <use xlink:href="#DejaVuSans-73" x="758.064453"/>
     <use xlink:href="#DejaVuSans-64" x="810.164062"/>
     <use xlink:href="#DejaVuSans-6f" x="873.640625"/>
     <use xlink:href="#DejaVuSans-72" x="934.822266"/>
     <use xlink:href="#DejaVuSans-66" x="975.935547"/>
    </g>
   </g>
  </g>
 </g>
 <defs>
  <clipPath id="pd87ea99d19">
   <rect x="107.519198" y="41.472" width="257.281604" height="266.112"/>
  </clipPath>
 </defs>
</svg>
