<?xml version="1.0" encoding="utf-8" standalone="no"?>
<!DOCTYPE svg PUBLIC "-//W3C//DTD SVG 1.1//EN"
  "http://www.w3.org/Graphics/SVG/1.1/DTD/svg11.dtd">
<svg xmlns:xlink="http://www.w3.org/1999/xlink" width="460.8pt" height="345.6pt" viewBox="0 0 460.8 345.6" xmlns="http://www.w3.org/2000/svg" version="1.1">
 <metadata>
  <rdf:RDF xmlns:dc="http://purl.org/dc/elements/1.1/" xmlns:cc="http://creativecommons.org/ns#" xmlns:rdf="http://www.w3.org/1999/02/22-rdf-syntax-ns#">
   <cc:Work>
    <dc:type rdf:resource="http://purl.org/dc/dcmitype/StillImage"/>
    <dc:date>2024-10-17T11:33:14.665129</dc:date>
    <dc:format>image/svg+xml</dc:format>
    <dc:creator>
     <cc:Agent>
      <dc:title>Matplotlib v3.9.2, https://matplotlib.org/</dc:title>
     </cc:Agent>
    </dc:creator>
   </cc:Work>
  </rdf:RDF>
 </metadata>
 <defs>
  <style type="text/css">*{stroke-linejoin: round; stroke-linecap: butt}</style>
 </defs>
 <g id="figure_1">
  <g id="patch_1">
   <path d="M 0 345.6 
L 460.8 345.6 
L 460.8 0 
L 0 0 
z
" style="fill: #ffffff"/>
  </g>
  <g id="axes_1">
   <g id="patch_2">
    <path d="M 57.6 284.220998 
L 414.72 284.220998 
L 414.72 64.835002 
L 57.6 64.835002 
z
" style="fill: #ffffff"/>
   </g>
   <g id="PatchCollection_1">
    <path d="M 298.068813 218.487867 
L 299.011718 217.469621 
L 303.144044 218.355999 
L 304.736934 218.697253 
L 306.32982 219.038429 
L 307.923557 219.380431 
L 309.189444 219.65231 
L 311.232228 220.090194 
L 313.274925 220.52809 
L 314.546757 220.800692 
L 315.811863 221.071687 
L 317.854551 221.509605 
L 319.897318 221.947533 
L 321.940015 222.38631 
L 323.98269 222.824259 
L 326.028724 223.263067 
L 328.074836 223.701883 
L 330.117499 224.139863 
L 331.400149 224.415046 
L 332.259678 224.598462 
L 342.21469 226.729038 
L 343.677901 227.042282 
L 345.273269 227.385315 
L 346.86947 227.728336 
L 348.912094 228.166411 
L 350.422114 228.491223 
L 351.933806 228.816088 
L 353.97652 229.255024 
L 356.02251 229.69482 
L 358.924647 230.321442 
L 359.336831 230.410715 
L 367.242904 232.108437 
L 369.820039 232.66188 
L 372.558265 233.249779 
L 373.90934 233.813116 
L 373.913101 233.814649 
L 375.138245 234.313922 
L 383.261167 238.216752 
L 383.268697 238.201667 
L 384.94209 239.006263 
L 385.077682 239.07119 
L 386.6549 239.847639 
L 386.882458 239.955063 
L 388.670501 240.800333 
L 388.939241 240.384058 
L 389.18543 240.003315 
L 390.367929 238.174172 
L 390.614848 237.792239 
L 390.674711 237.673411 
L 393.774283 231.530004 
L 395.719903 227.673628 
L 395.804378 227.506232 
L 398.487273 224.700468 
L 397.782641 222.834989 
L 397.190904 221.282465 
L 396.59997 219.732523 
L 396.430792 219.288361 
L 396.362789 219.110049 
L 396.034279 218.24783 
L 396.025038 218.222718 
L 395.992442 218.227035 
L 395.990738 218.217852 
L 395.977425 218.21697 
L 395.965504 218.21086 
L 395.95692 218.20057 
L 395.953046 218.187746 
L 395.943868 218.188617 
L 395.919833 217.959973 
L 395.919814 217.959135 
L 395.922388 217.958325 
L 395.91761 217.946191 
L 395.594066 217.097107 
L 395.507192 217.108228 
L 395.505479 217.094854 
L 395.485433 217.095711 
L 395.485397 217.07484 
L 395.443604 217.079107 
L 395.442753 217.070743 
L 395.429332 217.06869 
L 395.417561 217.061822 
L 395.409051 217.051112 
L 395.405007 217.038124 
L 395.396667 217.039061 
L 395.373477 216.807045 
L 395.38349 216.806156 
L 395.384693 216.792299 
L 395.390268 216.77952 
L 395.399659 216.769256 
L 395.411802 216.762536 
L 395.41097 216.75501 
L 395.452743 216.749822 
L 395.453475 216.729688 
L 395.019077 215.569702 
L 394.92812 215.327853 
L 394.908784 215.276809 
L 394.748841 214.849965 
L 394.679809 214.666731 
L 394.408661 213.943576 
L 394.294229 213.637279 
L 394.102266 213.125971 
L 394.035685 212.947797 
L 393.762112 212.217068 
L 393.736578 212.15015 
L 393.648439 211.914945 
L 392.898362 209.926412 
L 392.173448 207.995669 
L 391.599331 206.474956 
L 391.345284 205.808177 
L 390.749022 204.242099 
L 390.633762 203.940263 
L 390.366042 203.236986 
L 389.946268 202.135612 
L 389.859006 201.90634 
L 389.509891 200.989925 
L 388.883866 199.347804 
L 388.764784 199.035658 
L 388.747163 198.990528 
L 388.222282 197.612581 
L 388.128373 197.366103 
L 387.549187 195.840477 
L 386.938696 194.205982 
L 386.604017 193.334936 
L 386.504837 193.07684 
L 386.170072 192.205796 
L 385.422453 190.229796 
L 384.508152 187.814531 
L 384.35907 187.422826 
L 383.690608 185.66538 
L 383.541607 185.273673 
L 382.692046 183.0409 
L 382.411418 182.302873 
L 382.335231 182.102614 
L 382.0648 181.391355 
L 381.50407 179.916717 
L 381.39383 179.627179 
L 380.81458 178.104833 
L 380.777514 178.00774 
L 380.046607 176.072038 
L 379.58274 174.876084 
L 379.147587 173.754689 
L 379.047329 173.493601 
L 379.03982 173.475157 
L 378.482506 172.050824 
L 378.016092 170.838163 
L 377.46109 169.347646 
L 377.397971 169.179373 
L 376.813841 167.710702 
L 376.773451 167.606977 
L 376.25056 166.251214 
L 376.226968 166.189284 
L 376.168044 166.037013 
L 375.857416 165.23192 
L 375.849787 165.211802 
L 375.799304 165.086254 
L 375.720174 164.885474 
L 375.713435 164.867851 
L 375.583814 164.537332 
L 375.498798 164.319749 
L 375.417986 164.114731 
L 374.889206 162.734707 
L 374.73513 162.329619 
L 374.661864 162.137093 
L 374.250972 161.055826 
L 373.901546 160.136078 
L 373.831678 159.953704 
L 373.715477 159.648205 
L 373.327216 158.627214 
L 372.279766 155.872146 
L 372.252005 155.799327 
L 370.398229 152.864794 
L 370.050283 152.18215 
L 369.83186 151.790713 
L 369.803278 151.726294 
L 369.109447 149.900191 
L 369.075718 149.810655 
L 369.058762 149.757883 
L 369.048378 149.703543 
L 369.044579 149.64822 
L 369.047553 149.592916 
L 369.05242 149.540085 
L 369.060533 149.452062 
L 366.331608 149.113097 
L 365.920444 149.112562 
L 365.298651 149.142885 
L 364.553306 149.197798 
L 364.217104 149.237363 
L 364.083792 149.247749 
L 362.531357 149.390452 
L 361.482749 149.499889 
L 360.917959 149.563503 
L 360.354893 149.637138 
L 359.866154 149.706459 
L 359.479404 149.767004 
L 358.985636 149.84725 
L 358.458535 149.944238 
L 357.903956 150.065637 
L 357.49643 150.174083 
L 356.994573 150.328021 
L 356.572133 150.473342 
L 356.123847 150.648904 
L 355.758176 150.809156 
L 355.353438 151.003042 
L 354.963693 151.201879 
L 354.476458 151.4814 
L 354.164683 151.670522 
L 350.493481 153.897496 
L 350.141399 154.113029 
L 349.78762 154.315942 
L 349.424631 154.502965 
L 349.037395 154.690101 
L 348.625904 154.873078 
L 348.159258 155.053746 
L 347.759356 155.193133 
L 347.348452 155.314991 
L 346.940134 155.425141 
L 346.444838 155.54215 
L 346.266959 155.575399 
L 345.47502 155.689963 
L 342.510216 156.141004 
L 341.974713 156.227972 
L 341.572917 156.284506 
L 339.274068 156.571624 
L 339.182741 156.58303 
L 338.20195 156.718277 
L 336.917053 156.8997 
L 336.563662 156.944277 
L 336.094942 156.991728 
L 335.572776 157.038512 
L 335.182575 157.063196 
L 334.685286 157.081353 
L 334.378627 157.08735 
L 333.770233 157.087418 
L 333.308867 157.081232 
L 332.875903 157.069978 
L 332.109413 157.025332 
L 331.705587 156.992985 
L 330.964096 156.913927 
L 330.282665 156.832122 
L 329.546895 156.727961 
L 328.847904 156.611843 
L 328.270947 156.508879 
L 327.877937 156.432124 
L 327.611139 156.375974 
L 325.845685 155.98487 
L 325.404959 155.878992 
L 325.093759 155.796161 
L 324.786768 155.703179 
L 320.148211 154.240818 
L 318.510225 153.726315 
L 316.889913 153.217212 
L 313.799745 152.2465 
L 313.278718 152.082559 
L 311.394663 151.489776 
L 309.769233 150.976874 
L 308.720756 150.646294 
L 307.190137 150.16358 
L 306.464346 149.936022 
L 305.819742 149.704408 
L 305.110429 149.511358 
L 303.659908 149.066704 
L 302.554025 148.730786 
L 301.717477 148.486152 
L 301.063379 148.302116 
L 300.064598 148.030392 
L 299.680702 147.927645 
L 299.051738 147.768705 
L 298.581677 147.652859 
L 297.461735 147.381389 
L 296.87631 147.244122 
L 295.809176 147.012814 
L 295.250537 146.899684 
L 294.732033 146.794051 
L 288.384021 145.586955 
L 285.429463 145.019575 
L 285.058926 145.200871 
L 282.959491 144.935031 
L 282.867093 144.771947 
L 282.723296 144.75426 
L 280.185767 144.442562 
L 277.842967 144.149029 
L 277.846277 144.124731 
L 277.369705 144.066724 
L 276.751855 143.991562 
L 273.324656 143.579922 
L 269.418597 143.132074 
L 268.576587 143.031636 
L 267.778177 142.932747 
L 267.278971 142.864775 
L 266.895133 142.80313 
L 264.778729 142.455363 
L 264.170771 142.355022 
L 263.696641 142.267722 
L 262.632029 142.064943 
L 261.890236 141.909738 
L 259.651304 141.417441 
L 259.366063 141.348753 
L 258.511291 141.14032 
L 257.776903 140.953274 
L 257.325181 140.835727 
L 257.12361 140.784461 
L 256.43767 140.598939 
L 256.176706 140.527702 
L 255.570235 140.35869 
L 254.808105 140.13488 
L 253.678766 139.792406 
L 252.546779 139.43239 
L 252.449751 139.400849 
L 251.909333 139.231633 
L 251.460016 139.083108 
L 250.881024 138.87879 
L 249.785623 138.456696 
L 249.087725 138.173212 
L 248.655773 137.966803 
L 247.182426 137.213216 
L 245.790153 136.469484 
L 245.167346 136.152234 
L 244.441637 135.817742 
L 244.43922 135.844535 
L 244.097752 135.691525 
L 244.091916 135.714957 
L 243.533711 135.483029 
L 242.96808 135.266942 
L 242.43675 135.074316 
L 240.992782 134.636528 
L 240.162888 134.397069 
L 239.428425 134.192454 
L 238.619524 133.979689 
L 237.792319 133.778733 
L 236.985127 133.590326 
L 236.193095 133.406864 
L 235.398442 133.225893 
L 234.923441 133.130263 
L 234.446592 133.000225 
L 233.811103 132.892494 
L 233.302636 132.811191 
L 233.149647 132.786517 
L 232.841914 132.737291 
L 232.296683 132.653538 
L 232.039873 132.617969 
L 231.728903 132.574899 
L 231.409519 132.535741 
L 230.954649 132.484429 
L 230.590993 132.443659 
L 230.267263 132.410764 
L 228.881168 132.269923 
L 228.732866 132.256797 
L 228.359515 132.22379 
L 227.800198 132.176149 
L 227.242563 132.132746 
L 226.697543 132.092584 
L 226.273694 132.063805 
L 225.655054 132.022183 
L 225.531368 132.01421 
L 225.232969 132.012644 
L 224.672092 132.007792 
L 224.116359 132.016238 
L 223.552192 132.036523 
L 222.804249 132.088064 
L 222.40109 132.207947 
L 222.202061 132.267874 
L 222.001398 132.32197 
L 221.799185 132.370317 
L 221.595754 132.41274 
L 221.39119 132.44932 
L 220.569335 132.587304 
L 219.151133 132.825415 
L 217.265685 133.141983 
L 213.201138 133.898085 
L 211.491867 134.216063 
L 210.965821 134.284635 
L 210.760095 134.306494 
L 210.668828 134.316159 
L 210.17587 134.368486 
L 210.091692 134.377323 
L 210.101237 134.471996 
L 210.020139 134.480177 
L 208.674993 134.615318 
L 207.34912 134.74844 
L 207.24875 134.758644 
L 207.238405 134.65812 
L 207.014208 134.680394 
L 207.024677 134.703714 
L 207.028667 134.728939 
L 207.025887 134.7544 
L 207.01655 134.778246 
L 207.001284 134.798704 
L 206.981231 134.814491 
L 205.80156 134.93396 
L 205.78239 134.921731 
L 205.766721 134.905233 
L 205.755657 134.885279 
L 205.7499 134.863278 
L 205.749645 134.840484 
L 205.200067 134.896177 
L 205.213216 135.072902 
L 204.22406 135.141781 
L 204.221947 135.31006 
L 203.781589 135.328529 
L 203.341031 135.338035 
L 202.90036 135.338658 
L 202.459658 135.330397 
L 202.019342 135.31316 
L 201.579414 135.287028 
L 201.14004 135.252 
L 200.701558 135.208151 
L 200.263964 135.155397 
L 199.827595 135.093815 
L 199.840415 134.895708 
L 197.388015 134.431992 
L 197.434838 134.221222 
L 196.522357 134.044552 
L 193.640638 133.307367 
L 192.830125 133.048172 
L 192.016315 132.778498 
L 191.765557 132.700703 
L 191.347913 132.571136 
L 190.938861 132.433611 
L 190.621772 132.324945 
L 190.251927 132.197929 
L 189.955714 132.09173 
L 189.632687 131.971798 
L 189.543985 131.938912 
L 189.24855 131.830098 
L 188.390815 131.498659 
L 186.235846 130.652914 
L 183.780425 129.69513 
L 181.464747 128.78704 
L 178.759939 127.750461 
L 178.451906 127.605726 
L 177.850078 127.354746 
L 176.539403 126.81621 
L 175.413723 126.34998 
L 175.139222 126.235258 
L 174.160816 125.845529 
L 173.201492 125.468658 
L 171.903875 124.958893 
L 171.292661 124.73785 
L 170.382478 124.408688 
L 169.556347 124.109925 
L 168.936538 123.908062 
L 168.313454 123.716836 
L 167.687178 123.536244 
L 167.057879 123.366366 
L 166.425894 123.207278 
L 165.791222 123.058981 
L 165.154116 122.921553 
L 164.514828 122.794988 
L 163.873441 122.679367 
L 163.230125 122.574688 
L 162.585215 122.481027 
L 161.938794 122.398381 
L 161.29103 122.326747 
L 160.801867 122.440825 
L 159.98601 122.494057 
L 159.376229 122.533844 
L 158.818393 122.538485 
L 158.260728 122.550835 
L 157.703232 122.570727 
L 157.146075 122.598323 
L 156.589422 122.633452 
L 156.033191 122.676284 
L 155.800124 122.687217 
L 155.569349 122.722156 
L 155.098697 122.796262 
L 154.626772 122.862098 
L 154.153828 122.919744 
L 153.679861 122.96903 
L 153.205207 123.010034 
L 152.729865 123.042672 
L 152.254087 123.067022 
L 151.777872 123.083084 
L 151.328674 122.994683 
L 149.452018 123.142127 
L 149.024297 123.142852 
L 148.596663 123.132512 
L 148.169451 123.111098 
L 147.742914 123.078772 
L 147.317385 123.035443 
L 146.893115 122.981106 
L 146.470357 122.915838 
L 146.049363 122.839718 
L 145.630551 122.752736 
L 145.214091 122.655057 
L 144.800233 122.54659 
L 143.923469 122.264645 
L 143.593139 122.319578 
L 142.006734 121.823982 
L 141.464449 121.6231 
L 141.170813 121.539511 
L 139.92168 121.179339 
L 139.162856 120.958268 
L 138.708463 120.817358 
L 138.274982 120.658039 
L 137.911349 120.507615 
L 137.44545 120.30059 
L 137.355877 120.259018 
L 137.204382 120.185813 
L 136.876132 120.009292 
L 135.484426 119.190564 
L 135.226215 119.034765 
L 134.947292 118.861494 
L 134.807339 118.769756 
L 134.502352 118.545438 
L 134.268631 118.3854 
L 134.3973 118.122739 
L 134.047965 117.893551 
L 133.725427 117.673484 
L 133.288011 117.357427 
L 132.86235 117.047226 
L 132.561541 116.822899 
L 132.421556 116.711129 
L 132.287433 116.595959 
L 132.049217 116.36226 
L 131.844579 116.149263 
L 131.609654 115.887075 
L 131.429212 115.679066 
L 131.299929 115.526151 
L 131.116111 115.298101 
L 130.937326 115.063316 
L 130.765926 114.825934 
L 130.603048 114.599425 
L 130.467782 114.399704 
L 130.309806 114.160595 
L 130.157714 113.92655 
L 129.983738 113.641448 
L 129.836592 113.385582 
L 129.696119 113.136439 
L 129.56914 112.899818 
L 129.378064 112.523399 
L 129.15674 112.073478 
L 128.87895 111.499682 
L 128.712194 111.145013 
L 128.472118 110.612195 
L 128.296085 110.205597 
L 128.101423 109.751389 
L 127.931994 109.337266 
L 127.73471 108.844474 
L 127.54075 108.343309 
L 127.384691 107.93249 
L 127.214332 107.480668 
L 127.050605 107.026266 
L 126.923956 106.666502 
L 126.766928 106.208764 
L 126.628397 105.785312 
L 126.537135 105.500779 
L 126.351145 104.888957 
L 126.275856 104.645472 
L 126.152574 104.275575 
L 126.026005 103.915726 
L 125.936527 103.669711 
L 125.809992 103.337523 
L 125.697871 103.051448 
L 125.580659 102.769512 
L 125.458502 102.483411 
L 125.3109 102.106853 
L 125.212934 101.803108 
L 125.118577 101.593163 
L 124.894635 101.123941 
L 124.72716 100.786053 
L 124.594127 100.525932 
L 124.451976 100.25076 
L 124.369486 100.092685 
L 124.264299 99.899581 
L 124.086895 99.585137 
L 123.755659 99.026631 
L 123.548861 98.688037 
L 123.373994 98.412178 
L 123.241253 98.209888 
L 122.94806 97.785312 
L 122.753217 97.513759 
L 122.414726 97.053238 
L 121.894636 96.492777 
L 121.257759 95.806468 
L 120.62241 95.04543 
L 120.577052 94.984424 
L 120.410527 94.938889 
L 120.18901 94.660143 
L 119.977147 94.401716 
L 119.761342 94.14648 
L 119.541846 93.894512 
L 119.318577 93.645814 
L 119.088705 93.397349 
L 118.855149 93.152404 
L 118.617827 92.911065 
L 118.376905 92.673327 
L 118.13247 92.439274 
L 117.449841 91.804118 
L 116.928978 91.325541 
L 114.27266 88.884896 
L 113.706142 88.364354 
L 112.56295 87.367382 
L 112.249462 87.08644 
L 111.437786 86.358815 
L 110.721527 85.716718 
L 111.133425 83.218015 
L 110.900071 83.452333 
L 110.535689 83.463656 
L 110.230406 83.190745 
L 110.201892 83.164901 
L 110.195306 83.173264 
L 110.083788 83.074858 
L 110.091209 83.066392 
L 109.765917 82.777672 
L 109.755876 82.788627 
L 109.64272 82.684307 
L 109.653494 82.672497 
L 109.055637 82.119181 
L 109.045595 82.130053 
L 108.929853 82.022354 
L 108.939896 82.011482 
L 108.790503 81.85031 
L 108.478396 81.504545 
L 108.470017 81.511272 
L 108.089776 81.047598 
L 107.996449 80.913912 
L 107.42331 80.027852 
L 107.319851 79.848964 
L 106.753054 78.865695 
L 106.291293 78.057089 
L 105.980837 77.491003 
L 105.970038 77.512873 
L 105.946676 77.507869 
L 105.473051 76.644125 
L 105.47622 76.613961 
L 105.489574 76.590441 
L 105.068037 75.82284 
L 105.058887 75.828746 
L 104.432589 74.807092 
L 104.301221 75.109388 
L 103.9372 75.944516 
L 103.688897 76.513996 
L 103.659071 76.582398 
L 103.612627 76.689063 
L 103.566337 76.795138 
L 103.508513 76.927626 
L 103.170267 77.703748 
L 102.7672 78.628443 
L 102.680273 78.827891 
L 102.625793 78.952844 
L 102.476825 79.286887 
L 102.452465 79.341671 
L 101.154832 82.251201 
L 100.506476 83.391413 
L 100.018134 84.249973 
L 98.60556 86.758755 
L 96.366794 90.735334 
L 93.061463 96.607625 
L 92.753325 97.155581 
L 92.282343 97.992552 
L 92.116512 98.28641 
L 92.073545 98.376401 
L 92.030916 98.466552 
L 91.98871 98.556945 
L 91.92828 98.688488 
L 91.86878 98.820512 
L 91.810295 98.953017 
L 91.742679 99.188913 
L 91.678682 99.425818 
L 91.618221 99.663732 
L 91.465303 100.49041 
L 91.048652 102.756417 
L 90.728855 104.49517 
L 90.216263 107.280113 
L 89.175228 112.939882 
L 89.045996 113.640711 
L 89.036339 113.69466 
L 89.016513 113.798378 
L 88.993661 113.90141 
L 88.967867 114.003754 
L 88.934095 114.12321 
L 88.896197 114.241419 
L 88.854337 114.358208 
L 88.808179 114.473502 
L 88.794909 114.504398 
L 88.781553 114.535211 
L 88.767607 114.565786 
L 88.704764 114.694031 
L 88.635657 114.818897 
L 88.560363 114.940131 
L 88.47904 115.05731 
L 88.391938 115.170345 
L 87.748406 115.982389 
L 87.293533 116.556637 
L 87.116359 116.576487 
L 86.853749 116.909587 
L 86.179284 117.76634 
L 86.005548 117.987119 
L 85.991018 118.12542 
L 86.015452 118.178095 
L 84.967447 119.503151 
L 84.898083 119.590555 
L 84.569761 120.005948 
L 83.262622 121.658081 
L 82.156011 123.05723 
L 81.284953 124.158425 
L 82.417306 125.038246 
L 82.359709 125.540305 
L 81.988365 128.763724 
L 81.696291 131.248047 
L 79.8206 133.681043 
L 78.356264 135.549913 
L 77.970862 136.047577 
L 76.461439 137.996686 
L 76.260388 141.516256 
L 76.255896 141.595235 
L 76.218484 142.250402 
L 76.21445 142.319982 
L 75.995573 146.150351 
L 75.969166 146.63712 
L 75.774513 150.225029 
L 75.764904 150.403454 
L 75.665285 152.238491 
L 75.610989 153.238887 
L 75.333711 158.232026 
L 75.145648 161.618529 
L 75.041079 163.500871 
L 74.954418 165.061013 
L 74.968126 165.131281 
L 75.119517 165.90866 
L 75.674861 168.760216 
L 75.902358 169.927993 
L 75.911051 169.97239 
L 75.158698 172.235794 
L 74.823632 173.243724 
L 74.637659 173.803178 
L 74.3687 174.483205 
L 73.832727 175.795855 
L 74.072813 175.875161 
L 74.445494 175.998236 
L 74.509686 176.019498 
L 74.806636 176.117633 
L 74.829465 176.125163 
L 75.017152 176.187131 
L 75.47997 176.340018 
L 76.149596 176.561146 
L 76.621851 176.717257 
L 76.631622 176.720473 
L 77.360722 176.961296 
L 77.563327 177.028543 
L 79.218317 177.575563 
L 79.636463 176.257875 
L 81.391857 176.833896 
L 83.139683 177.408251 
L 84.880843 177.980166 
L 86.628641 178.553699 
L 89.848951 179.618244 
L 90.077482 179.693378 
L 90.029929 181.147183 
L 91.422152 181.607738 
L 91.874686 181.757439 
L 92.227142 181.87403 
L 93.426536 182.27072 
L 94.131762 182.506748 
L 94.97889 182.784247 
L 95.418027 182.929561 
L 95.820102 183.06272 
L 95.922705 183.096696 
L 96.684644 183.348798 
L 96.906277 183.422163 
L 98.303372 183.884392 
L 100.005407 184.447531 
L 100.381616 184.572059 
L 100.521024 184.617946 
L 101.159128 184.829098 
L 101.426584 184.917609 
L 102.395489 185.238223 
L 104.553662 185.952438 
L 105.49207 186.26302 
L 105.863558 186.385982 
L 106.26891 186.520168 
L 106.593813 186.62767 
L 106.816705 186.701431 
L 107.13546 186.806977 
L 108.16745 187.148478 
L 108.289004 187.188651 
L 109.006368 187.426107 
L 110.521536 187.927456 
L 111.504664 188.2528 
L 112.3141 188.520959 
L 112.349817 188.532811 
L 112.386461 188.544976 
L 112.748497 188.664219 
L 112.793901 188.679289 
L 114.759479 189.330006 
L 115.168782 189.465452 
L 115.290927 189.50595 
L 116.778875 189.998463 
L 117.461525 190.224479 
L 117.791814 190.333796 
L 118.265642 190.490674 
L 118.388544 190.531407 
L 118.610672 190.604857 
L 118.824376 190.675479 
L 119.217842 190.805753 
L 119.839243 191.011192 
L 120.213583 191.134942 
L 120.484398 191.224479 
L 120.314211 193.493034 
L 119.704945 194.544156 
L 118.656909 196.352367 
L 118.095401 197.321946 
L 117.48583 198.373917 
L 117.350201 198.607991 
L 116.124957 200.72272 
L 115.158885 202.389192 
L 115.041767 202.594852 
L 114.906239 205.448883 
L 114.88405 205.950391 
L 114.831446 207.138255 
L 114.823069 207.327547 
L 114.78497 208.189349 
L 114.763076 208.685402 
L 114.737322 209.266454 
L 114.610285 212.144771 
L 114.033123 212.217975 
L 110.849865 212.621983 
L 110.818108 212.626304 
L 107.778427 218.470539 
L 107.558824 218.89243 
L 106.917891 220.123753 
L 106.600594 220.733433 
L 106.516765 220.894672 
L 105.160422 223.502423 
L 104.034926 225.66364 
L 103.99422 226.129188 
L 103.898558 227.226156 
L 103.842836 227.864383 
L 104.48231 227.920018 
L 104.871822 227.953804 
L 107.5967 228.188848 
L 107.59083 229.252858 
L 107.584415 230.426604 
L 107.578639 231.461274 
L 107.577245 231.711935 
L 107.573154 232.464252 
L 107.567894 233.343167 
L 107.557479 233.5942 
L 107.54015 234.0101 
L 107.537805 234.062039 
L 107.532444 234.191918 
L 107.523908 234.388842 
L 107.483074 235.37007 
L 107.475283 235.544345 
L 107.452995 236.085672 
L 107.410454 237.080267 
L 107.375029 237.937483 
L 107.3465 238.617845 
L 107.32484 239.116408 
L 107.299578 239.722597 
L 107.298631 239.74743 
L 107.280801 240.159653 
L 107.249259 240.925499 
L 107.217571 241.666201 
L 107.172417 242.741659 
L 107.154279 243.173671 
L 107.144267 243.409104 
L 107.134691 243.637905 
L 107.091077 244.677704 
L 107.066303 245.260914 
L 107.041879 245.84856 
L 107.026264 246.22536 
L 107.016991 246.44158 
L 106.960626 247.777226 
L 106.924385 248.635299 
L 106.923995 248.644025 
L 106.881016 249.659921 
L 106.83195 250.818033 
L 106.786945 251.881418 
L 102.583128 251.840051 
L 102.301518 251.837694 
L 95.824862 251.775066 
L 93.609784 251.753556 
L 93.288904 251.752177 
L 93.077898 252.331888 
L 93.397059 252.334898 
L 92.901051 253.850563 
L 92.871279 253.924413 
L 93.379264 253.930195 
L 94.945468 253.945249 
L 99.802451 253.992064 
L 100.764952 254.001417 
L 102.423807 254.017591 
L 104.078398 254.033785 
L 105.686662 254.049355 
L 106.878941 254.060994 
L 108.354841 254.075288 
L 108.719741 254.07887 
L 108.815648 254.079807 
L 110.234431 254.093217 
L 111.288987 254.1032 
L 112.353827 254.113288 
L 113.431377 254.123512 
L 114.384089 254.132531 
L 114.594717 254.134569 
L 114.833607 254.136892 
L 115.794183 254.146157 
L 116.842555 254.156293 
L 117.898537 254.166512 
L 118.969987 254.176888 
L 119.001009 254.177194 
L 120.008493 254.18692 
L 122.388291 254.210644 
L 122.948937 254.216198 
L 123.9382 254.226092 
L 124.358285 254.230205 
L 124.496587 254.231615 
L 126.128689 254.247818 
L 126.248008 254.248986 
L 126.694769 254.253423 
L 128.17402 254.268131 
L 128.297438 254.269375 
L 130.346617 254.28978 
L 130.597966 254.292251 
L 132.316611 254.309379 
L 132.62373 254.312356 
L 132.878674 254.314831 
L 134.866965 254.333947 
L 135.160707 254.336808 
L 135.324677 254.338398 
L 147.578475 254.454828 
L 148.539337 254.465755 
L 152.074742 254.498973 
L 152.577854 254.503764 
L 153.607151 254.513334 
L 153.721034 254.51438 
L 154.375068 254.520478 
L 156.354581 254.539728 
L 159.530361 254.569769 
L 159.622504 254.570634 
L 160.349949 254.577273 
L 160.934248 254.582684 
L 162.555365 254.597602 
L 163.447794 254.606328 
L 165.539252 254.626045 
L 166.151819 254.632002 
L 166.302162 254.633575 
L 169.116223 254.660237 
L 172.508063 254.692407 
L 172.760329 254.6948 
L 172.982589 254.697446 
L 173.074064 254.698329 
L 173.427084 254.701565 
L 174.679714 254.713223 
L 175.702403 254.722661 
L 176.306499 254.734942 
L 176.325625 253.43627 
L 176.355943 251.289398 
L 176.377725 249.74976 
L 176.433813 245.758298 
L 176.501712 245.75904 
L 177.173351 245.766708 
L 177.401448 245.768471 
L 179.195922 245.788122 
L 179.569785 245.792238 
L 190.10174 245.907861 
L 190.441653 245.911572 
L 203.222969 246.052323 
L 203.81123 246.058712 
L 204.362116 246.064847 
L 207.320896 246.097006 
L 207.364383 246.097712 
L 208.993832 246.117574 
L 210.832152 246.139234 
L 212.67049 246.161741 
L 217.87125 246.225256 
L 219.458066 246.245273 
L 221.630618 246.270928 
L 221.617241 248.868214 
L 221.610408 250.377087 
L 221.608913 250.705537 
L 221.598413 252.889682 
L 221.592276 254.117064 
L 221.592331 254.119577 
L 221.58392 255.919182 
L 221.574628 257.720566 
L 221.565566 259.588836 
L 221.554295 261.809881 
L 223.13158 261.80615 
L 223.817155 262.526662 
L 226.051354 262.60696 
L 227.431699 262.656671 
L 239.580957 263.094281 
L 255.548166 263.668802 
L 256.862574 264.525863 
L 256.952079 264.539885 
L 257.889102 264.687726 
L 258.778229 264.835795 
L 259.666168 264.990681 
L 260.552838 265.152471 
L 261.43832 265.321079 
L 262.322447 265.496509 
L 263.212947 265.680433 
L 264.10201 265.871264 
L 264.989555 266.069088 
L 265.87558 266.273821 
L 266.759917 266.485467 
L 267.642649 266.70394 
L 268.523698 266.929577 
L 269.402891 267.162047 
L 270.280312 267.401431 
L 271.155877 267.647648 
L 272.029419 267.900702 
L 272.901018 268.160506 
L 273.770675 268.42706 
L 274.638223 268.70037 
L 275.503661 268.980433 
L 276.366907 269.267253 
L 277.227792 269.560833 
L 278.086483 269.861085 
L 289.178264 273.789739 
L 289.690943 273.96079 
L 290.549933 274.248908 
L 290.688932 272.721103 
L 292.009424 258.260023 
L 292.272176 255.372984 
L 292.371666 254.286877 
L 292.554451 252.28652 
L 292.650536 251.455894 
L 292.795014 250.628557 
L 292.980572 249.802742 
L 293.21455 248.985244 
L 293.366043 248.522295 
L 293.531736 248.070181 
L 293.858581 247.282481 
L 294.224785 246.520651 
L 294.62946 245.782195 
L 295.069285 245.072049 
L 296.592989 242.743383 
L 299.365273 238.525008 
L 299.67669 238.049977 
L 302.663996 233.494015 
L 302.517924 232.983412 
L 301.09824 227.984357 
L 299.56443 222.583556 
L 299.509532 222.390972 
L 299.126032 221.03323 
L 298.7665 220.955595 
L 298.068813 218.487867 
" clip-path="url(#pee6550d8cd)" style="fill: #1f77b4"/>
   </g>
   <g id="matplotlib.axis_1">
    <g id="xtick_1">
     <g id="line2d_1">
      <defs>
       <path id="mbae905c927" d="M 0 0 
L 0 3.5 
" style="stroke: #000000; stroke-width: 0.8"/>
      </defs>
      <g>
       <use xlink:href="#mbae905c927" x="83.963021" y="284.220998" style="stroke: #000000; stroke-width: 0.8"/>
      </g>
     </g>
     <g id="text_1">
      <!-- 13.37 -->
      <g transform="translate(69.648959 298.819436) scale(0.1 -0.1)">
       <defs>
        <path id="DejaVuSans-31" d="M 794 531 
L 1825 531 
L 1825 4091 
L 703 3866 
L 703 4441 
L 1819 4666 
L 2450 4666 
L 2450 531 
L 3481 531 
L 3481 0 
L 794 0 
L 794 531 
z
" transform="scale(0.015625)"/>
        <path id="DejaVuSans-33" d="M 2597 2516 
Q 3050 2419 3304 2112 
Q 3559 1806 3559 1356 
Q 3559 666 3084 287 
Q 2609 -91 1734 -91 
Q 1441 -91 1130 -33 
Q 819 25 488 141 
L 488 750 
Q 750 597 1062 519 
Q 1375 441 1716 441 
Q 2309 441 2620 675 
Q 2931 909 2931 1356 
Q 2931 1769 2642 2001 
Q 2353 2234 1838 2234 
L 1294 2234 
L 1294 2753 
L 1863 2753 
Q 2328 2753 2575 2939 
Q 2822 3125 2822 3475 
Q 2822 3834 2567 4026 
Q 2313 4219 1838 4219 
Q 1578 4219 1281 4162 
Q 984 4106 628 3988 
L 628 4550 
Q 988 4650 1302 4700 
Q 1616 4750 1894 4750 
Q 2613 4750 3031 4423 
Q 3450 4097 3450 3541 
Q 3450 3153 3228 2886 
Q 3006 2619 2597 2516 
z
" transform="scale(0.015625)"/>
        <path id="DejaVuSans-2e" d="M 684 794 
L 1344 794 
L 1344 0 
L 684 0 
L 684 794 
z
" transform="scale(0.015625)"/>
        <path id="DejaVuSans-37" d="M 525 4666 
L 3525 4666 
L 3525 4397 
L 1831 0 
L 1172 0 
L 2766 4134 
L 525 4134 
L 525 4666 
z
" transform="scale(0.015625)"/>
       </defs>
       <use xlink:href="#DejaVuSans-31"/>
       <use xlink:href="#DejaVuSans-33" x="63.623047"/>
       <use xlink:href="#DejaVuSans-2e" x="127.246094"/>
       <use xlink:href="#DejaVuSans-33" x="159.033203"/>
       <use xlink:href="#DejaVuSans-37" x="222.65625"/>
      </g>
     </g>
    </g>
    <g id="xtick_2">
     <g id="line2d_2">
      <g>
       <use xlink:href="#mbae905c927" x="140.725076" y="284.220998" style="stroke: #000000; stroke-width: 0.8"/>
      </g>
     </g>
     <g id="text_2">
      <!-- 13.38 -->
      <g transform="translate(126.411014 298.819436) scale(0.1 -0.1)">
       <defs>
        <path id="DejaVuSans-38" d="M 2034 2216 
Q 1584 2216 1326 1975 
Q 1069 1734 1069 1313 
Q 1069 891 1326 650 
Q 1584 409 2034 409 
Q 2484 409 2743 651 
Q 3003 894 3003 1313 
Q 3003 1734 2745 1975 
Q 2488 2216 2034 2216 
z
M 1403 2484 
Q 997 2584 770 2862 
Q 544 3141 544 3541 
Q 544 4100 942 4425 
Q 1341 4750 2034 4750 
Q 2731 4750 3128 4425 
Q 3525 4100 3525 3541 
Q 3525 3141 3298 2862 
Q 3072 2584 2669 2484 
Q 3125 2378 3379 2068 
Q 3634 1759 3634 1313 
Q 3634 634 3220 271 
Q 2806 -91 2034 -91 
Q 1263 -91 848 271 
Q 434 634 434 1313 
Q 434 1759 690 2068 
Q 947 2378 1403 2484 
z
M 1172 3481 
Q 1172 3119 1398 2916 
Q 1625 2713 2034 2713 
Q 2441 2713 2670 2916 
Q 2900 3119 2900 3481 
Q 2900 3844 2670 4047 
Q 2441 4250 2034 4250 
Q 1625 4250 1398 4047 
Q 1172 3844 1172 3481 
z
" transform="scale(0.015625)"/>
       </defs>
       <use xlink:href="#DejaVuSans-31"/>
       <use xlink:href="#DejaVuSans-33" x="63.623047"/>
       <use xlink:href="#DejaVuSans-2e" x="127.246094"/>
       <use xlink:href="#DejaVuSans-33" x="159.033203"/>
       <use xlink:href="#DejaVuSans-38" x="222.65625"/>
      </g>
     </g>
    </g>
    <g id="xtick_3">
     <g id="line2d_3">
      <g>
       <use xlink:href="#mbae905c927" x="197.487131" y="284.220998" style="stroke: #000000; stroke-width: 0.8"/>
      </g>
     </g>
     <g id="text_3">
      <!-- 13.39 -->
      <g transform="translate(183.173069 298.819436) scale(0.1 -0.1)">
       <defs>
        <path id="DejaVuSans-39" d="M 703 97 
L 703 672 
Q 941 559 1184 500 
Q 1428 441 1663 441 
Q 2288 441 2617 861 
Q 2947 1281 2994 2138 
Q 2813 1869 2534 1725 
Q 2256 1581 1919 1581 
Q 1219 1581 811 2004 
Q 403 2428 403 3163 
Q 403 3881 828 4315 
Q 1253 4750 1959 4750 
Q 2769 4750 3195 4129 
Q 3622 3509 3622 2328 
Q 3622 1225 3098 567 
Q 2575 -91 1691 -91 
Q 1453 -91 1209 -44 
Q 966 3 703 97 
z
M 1959 2075 
Q 2384 2075 2632 2365 
Q 2881 2656 2881 3163 
Q 2881 3666 2632 3958 
Q 2384 4250 1959 4250 
Q 1534 4250 1286 3958 
Q 1038 3666 1038 3163 
Q 1038 2656 1286 2365 
Q 1534 2075 1959 2075 
z
" transform="scale(0.015625)"/>
       </defs>
       <use xlink:href="#DejaVuSans-31"/>
       <use xlink:href="#DejaVuSans-33" x="63.623047"/>
       <use xlink:href="#DejaVuSans-2e" x="127.246094"/>
       <use xlink:href="#DejaVuSans-33" x="159.033203"/>
       <use xlink:href="#DejaVuSans-39" x="222.65625"/>
      </g>
     </g>
    </g>
    <g id="xtick_4">
     <g id="line2d_4">
      <g>
       <use xlink:href="#mbae905c927" x="254.249186" y="284.220998" style="stroke: #000000; stroke-width: 0.8"/>
      </g>
     </g>
     <g id="text_4">
      <!-- 13.40 -->
      <g transform="translate(239.935124 298.819436) scale(0.1 -0.1)">
       <defs>
        <path id="DejaVuSans-34" d="M 2419 4116 
L 825 1625 
L 2419 1625 
L 2419 4116 
z
M 2253 4666 
L 3047 4666 
L 3047 1625 
L 3713 1625 
L 3713 1100 
L 3047 1100 
L 3047 0 
L 2419 0 
L 2419 1100 
L 313 1100 
L 313 1709 
L 2253 4666 
z
" transform="scale(0.015625)"/>
        <path id="DejaVuSans-30" d="M 2034 4250 
Q 1547 4250 1301 3770 
Q 1056 3291 1056 2328 
Q 1056 1369 1301 889 
Q 1547 409 2034 409 
Q 2525 409 2770 889 
Q 3016 1369 3016 2328 
Q 3016 3291 2770 3770 
Q 2525 4250 2034 4250 
z
M 2034 4750 
Q 2819 4750 3233 4129 
Q 3647 3509 3647 2328 
Q 3647 1150 3233 529 
Q 2819 -91 2034 -91 
Q 1250 -91 836 529 
Q 422 1150 422 2328 
Q 422 3509 836 4129 
Q 1250 4750 2034 4750 
z
" transform="scale(0.015625)"/>
       </defs>
       <use xlink:href="#DejaVuSans-31"/>
       <use xlink:href="#DejaVuSans-33" x="63.623047"/>
       <use xlink:href="#DejaVuSans-2e" x="127.246094"/>
       <use xlink:href="#DejaVuSans-34" x="159.033203"/>
       <use xlink:href="#DejaVuSans-30" x="222.65625"/>
      </g>
     </g>
    </g>
    <g id="xtick_5">
     <g id="line2d_5">
      <g>
       <use xlink:href="#mbae905c927" x="311.011241" y="284.220998" style="stroke: #000000; stroke-width: 0.8"/>
      </g>
     </g>
     <g id="text_5">
      <!-- 13.41 -->
      <g transform="translate(296.697178 298.819436) scale(0.1 -0.1)">
       <use xlink:href="#DejaVuSans-31"/>
       <use xlink:href="#DejaVuSans-33" x="63.623047"/>
       <use xlink:href="#DejaVuSans-2e" x="127.246094"/>
       <use xlink:href="#DejaVuSans-34" x="159.033203"/>
       <use xlink:href="#DejaVuSans-31" x="222.65625"/>
      </g>
     </g>
    </g>
    <g id="xtick_6">
     <g id="line2d_6">
      <g>
       <use xlink:href="#mbae905c927" x="367.773296" y="284.220998" style="stroke: #000000; stroke-width: 0.8"/>
      </g>
     </g>
     <g id="text_6">
      <!-- 13.42 -->
      <g transform="translate(353.459233 298.819436) scale(0.1 -0.1)">
       <defs>
        <path id="DejaVuSans-32" d="M 1228 531 
L 3431 531 
L 3431 0 
L 469 0 
L 469 531 
Q 828 903 1448 1529 
Q 2069 2156 2228 2338 
Q 2531 2678 2651 2914 
Q 2772 3150 2772 3378 
Q 2772 3750 2511 3984 
Q 2250 4219 1831 4219 
Q 1534 4219 1204 4116 
Q 875 4013 500 3803 
L 500 4441 
Q 881 4594 1212 4672 
Q 1544 4750 1819 4750 
Q 2544 4750 2975 4387 
Q 3406 4025 3406 3419 
Q 3406 3131 3298 2873 
Q 3191 2616 2906 2266 
Q 2828 2175 2409 1742 
Q 1991 1309 1228 531 
z
" transform="scale(0.015625)"/>
       </defs>
       <use xlink:href="#DejaVuSans-31"/>
       <use xlink:href="#DejaVuSans-33" x="63.623047"/>
       <use xlink:href="#DejaVuSans-2e" x="127.246094"/>
       <use xlink:href="#DejaVuSans-34" x="159.033203"/>
       <use xlink:href="#DejaVuSans-32" x="222.65625"/>
      </g>
     </g>
    </g>
   </g>
   <g id="matplotlib.axis_2">
    <g id="ytick_1">
     <g id="line2d_7">
      <defs>
       <path id="m07148474ee" d="M 0 0 
L -3.5 0 
" style="stroke: #000000; stroke-width: 0.8"/>
      </defs>
      <g>
       <use xlink:href="#m07148474ee" x="57.6" y="253.463382" style="stroke: #000000; stroke-width: 0.8"/>
      </g>
     </g>
     <g id="text_7">
      <!-- 52.485 -->
      <g transform="translate(15.609375 257.262601) scale(0.1 -0.1)">
       <defs>
        <path id="DejaVuSans-35" d="M 691 4666 
L 3169 4666 
L 3169 4134 
L 1269 4134 
L 1269 2991 
Q 1406 3038 1543 3061 
Q 1681 3084 1819 3084 
Q 2600 3084 3056 2656 
Q 3513 2228 3513 1497 
Q 3513 744 3044 326 
Q 2575 -91 1722 -91 
Q 1428 -91 1123 -41 
Q 819 9 494 109 
L 494 744 
Q 775 591 1075 516 
Q 1375 441 1709 441 
Q 2250 441 2565 725 
Q 2881 1009 2881 1497 
Q 2881 1984 2565 2268 
Q 2250 2553 1709 2553 
Q 1456 2553 1204 2497 
Q 953 2441 691 2322 
L 691 4666 
z
" transform="scale(0.015625)"/>
       </defs>
       <use xlink:href="#DejaVuSans-35"/>
       <use xlink:href="#DejaVuSans-32" x="63.623047"/>
       <use xlink:href="#DejaVuSans-2e" x="127.246094"/>
       <use xlink:href="#DejaVuSans-34" x="159.033203"/>
       <use xlink:href="#DejaVuSans-38" x="222.65625"/>
       <use xlink:href="#DejaVuSans-35" x="286.279297"/>
      </g>
     </g>
    </g>
    <g id="ytick_2">
     <g id="line2d_8">
      <g>
       <use xlink:href="#m07148474ee" x="57.6" y="206.849373" style="stroke: #000000; stroke-width: 0.8"/>
      </g>
     </g>
     <g id="text_8">
      <!-- 52.490 -->
      <g transform="translate(15.609375 210.648591) scale(0.1 -0.1)">
       <use xlink:href="#DejaVuSans-35"/>
       <use xlink:href="#DejaVuSans-32" x="63.623047"/>
       <use xlink:href="#DejaVuSans-2e" x="127.246094"/>
       <use xlink:href="#DejaVuSans-34" x="159.033203"/>
       <use xlink:href="#DejaVuSans-39" x="222.65625"/>
       <use xlink:href="#DejaVuSans-30" x="286.279297"/>
      </g>
     </g>
    </g>
    <g id="ytick_3">
     <g id="line2d_9">
      <g>
       <use xlink:href="#m07148474ee" x="57.6" y="160.235363" style="stroke: #000000; stroke-width: 0.8"/>
      </g>
     </g>
     <g id="text_9">
      <!-- 52.495 -->
      <g transform="translate(15.609375 164.034582) scale(0.1 -0.1)">
       <use xlink:href="#DejaVuSans-35"/>
       <use xlink:href="#DejaVuSans-32" x="63.623047"/>
       <use xlink:href="#DejaVuSans-2e" x="127.246094"/>
       <use xlink:href="#DejaVuSans-34" x="159.033203"/>
       <use xlink:href="#DejaVuSans-39" x="222.65625"/>
       <use xlink:href="#DejaVuSans-35" x="286.279297"/>
      </g>
     </g>
    </g>
    <g id="ytick_4">
     <g id="line2d_10">
      <g>
       <use xlink:href="#m07148474ee" x="57.6" y="113.621354" style="stroke: #000000; stroke-width: 0.8"/>
      </g>
     </g>
     <g id="text_10">
      <!-- 52.500 -->
      <g transform="translate(15.609375 117.420573) scale(0.1 -0.1)">
       <use xlink:href="#DejaVuSans-35"/>
       <use xlink:href="#DejaVuSans-32" x="63.623047"/>
       <use xlink:href="#DejaVuSans-2e" x="127.246094"/>
       <use xlink:href="#DejaVuSans-35" x="159.033203"/>
       <use xlink:href="#DejaVuSans-30" x="222.65625"/>
       <use xlink:href="#DejaVuSans-30" x="286.279297"/>
      </g>
     </g>
    </g>
    <g id="ytick_5">
     <g id="line2d_11">
      <g>
       <use xlink:href="#m07148474ee" x="57.6" y="67.007345" style="stroke: #000000; stroke-width: 0.8"/>
      </g>
     </g>
     <g id="text_11">
      <!-- 52.505 -->
      <g transform="translate(15.609375 70.806564) scale(0.1 -0.1)">
       <use xlink:href="#DejaVuSans-35"/>
       <use xlink:href="#DejaVuSans-32" x="63.623047"/>
       <use xlink:href="#DejaVuSans-2e" x="127.246094"/>
       <use xlink:href="#DejaVuSans-35" x="159.033203"/>
       <use xlink:href="#DejaVuSans-30" x="222.65625"/>
       <use xlink:href="#DejaVuSans-35" x="286.279297"/>
      </g>
     </g>
    </g>
   </g>
   <g id="patch_3">
    <path d="M 57.6 284.220998 
L 57.6 64.835002 
" style="fill: none; stroke: #000000; stroke-width: 0.8; stroke-linejoin: miter; stroke-linecap: square"/>
   </g>
   <g id="patch_4">
    <path d="M 414.72 284.220998 
L 414.72 64.835002 
" style="fill: none; stroke: #000000; stroke-width: 0.8; stroke-linejoin: miter; stroke-linecap: square"/>
   </g>
   <g id="patch_5">
    <path d="M 57.6 284.220998 
L 414.72 284.220998 
" style="fill: none; stroke: #000000; stroke-width: 0.8; stroke-linejoin: miter; stroke-linecap: square"/>
   </g>
   <g id="patch_6">
    <path d="M 57.6 64.835002 
L 414.72 64.835002 
" style="fill: none; stroke: #000000; stroke-width: 0.8; stroke-linejoin: miter; stroke-linecap: square"/>
   </g>
   <g id="text_12">
    <!-- Kreuzberg_Süd -->
    <g transform="translate(175.489401 191.423762) scale(0.12 -0.12)">
     <defs>
      <path id="DejaVuSans-4b" d="M 628 4666 
L 1259 4666 
L 1259 2694 
L 3353 4666 
L 4166 4666 
L 1850 2491 
L 4331 0 
L 3500 0 
L 1259 2247 
L 1259 0 
L 628 0 
L 628 4666 
z
" transform="scale(0.015625)"/>
      <path id="DejaVuSans-72" d="M 2631 2963 
Q 2534 3019 2420 3045 
Q 2306 3072 2169 3072 
Q 1681 3072 1420 2755 
Q 1159 2438 1159 1844 
L 1159 0 
L 581 0 
L 581 3500 
L 1159 3500 
L 1159 2956 
Q 1341 3275 1631 3429 
Q 1922 3584 2338 3584 
Q 2397 3584 2469 3576 
Q 2541 3569 2628 3553 
L 2631 2963 
z
" transform="scale(0.015625)"/>
      <path id="DejaVuSans-65" d="M 3597 1894 
L 3597 1613 
L 953 1613 
Q 991 1019 1311 708 
Q 1631 397 2203 397 
Q 2534 397 2845 478 
Q 3156 559 3463 722 
L 3463 178 
Q 3153 47 2828 -22 
Q 2503 -91 2169 -91 
Q 1331 -91 842 396 
Q 353 884 353 1716 
Q 353 2575 817 3079 
Q 1281 3584 2069 3584 
Q 2775 3584 3186 3129 
Q 3597 2675 3597 1894 
z
M 3022 2063 
Q 3016 2534 2758 2815 
Q 2500 3097 2075 3097 
Q 1594 3097 1305 2825 
Q 1016 2553 972 2059 
L 3022 2063 
z
" transform="scale(0.015625)"/>
      <path id="DejaVuSans-75" d="M 544 1381 
L 544 3500 
L 1119 3500 
L 1119 1403 
Q 1119 906 1312 657 
Q 1506 409 1894 409 
Q 2359 409 2629 706 
Q 2900 1003 2900 1516 
L 2900 3500 
L 3475 3500 
L 3475 0 
L 2900 0 
L 2900 538 
Q 2691 219 2414 64 
Q 2138 -91 1772 -91 
Q 1169 -91 856 284 
Q 544 659 544 1381 
z
M 1991 3584 
L 1991 3584 
z
" transform="scale(0.015625)"/>
      <path id="DejaVuSans-7a" d="M 353 3500 
L 3084 3500 
L 3084 2975 
L 922 459 
L 3084 459 
L 3084 0 
L 275 0 
L 275 525 
L 2438 3041 
L 353 3041 
L 353 3500 
z
" transform="scale(0.015625)"/>
      <path id="DejaVuSans-62" d="M 3116 1747 
Q 3116 2381 2855 2742 
Q 2594 3103 2138 3103 
Q 1681 3103 1420 2742 
Q 1159 2381 1159 1747 
Q 1159 1113 1420 752 
Q 1681 391 2138 391 
Q 2594 391 2855 752 
Q 3116 1113 3116 1747 
z
M 1159 2969 
Q 1341 3281 1617 3432 
Q 1894 3584 2278 3584 
Q 2916 3584 3314 3078 
Q 3713 2572 3713 1747 
Q 3713 922 3314 415 
Q 2916 -91 2278 -91 
Q 1894 -91 1617 61 
Q 1341 213 1159 525 
L 1159 0 
L 581 0 
L 581 4863 
L 1159 4863 
L 1159 2969 
z
" transform="scale(0.015625)"/>
      <path id="DejaVuSans-67" d="M 2906 1791 
Q 2906 2416 2648 2759 
Q 2391 3103 1925 3103 
Q 1463 3103 1205 2759 
Q 947 2416 947 1791 
Q 947 1169 1205 825 
Q 1463 481 1925 481 
Q 2391 481 2648 825 
Q 2906 1169 2906 1791 
z
M 3481 434 
Q 3481 -459 3084 -895 
Q 2688 -1331 1869 -1331 
Q 1566 -1331 1297 -1286 
Q 1028 -1241 775 -1147 
L 775 -588 
Q 1028 -725 1275 -790 
Q 1522 -856 1778 -856 
Q 2344 -856 2625 -561 
Q 2906 -266 2906 331 
L 2906 616 
Q 2728 306 2450 153 
Q 2172 0 1784 0 
Q 1141 0 747 490 
Q 353 981 353 1791 
Q 353 2603 747 3093 
Q 1141 3584 1784 3584 
Q 2172 3584 2450 3431 
Q 2728 3278 2906 2969 
L 2906 3500 
L 3481 3500 
L 3481 434 
z
" transform="scale(0.015625)"/>
      <path id="DejaVuSans-5f" d="M 3263 -1063 
L 3263 -1509 
L -63 -1509 
L -63 -1063 
L 3263 -1063 
z
" transform="scale(0.015625)"/>
      <path id="DejaVuSans-53" d="M 3425 4513 
L 3425 3897 
Q 3066 4069 2747 4153 
Q 2428 4238 2131 4238 
Q 1616 4238 1336 4038 
Q 1056 3838 1056 3469 
Q 1056 3159 1242 3001 
Q 1428 2844 1947 2747 
L 2328 2669 
Q 3034 2534 3370 2195 
Q 3706 1856 3706 1288 
Q 3706 609 3251 259 
Q 2797 -91 1919 -91 
Q 1588 -91 1214 -16 
Q 841 59 441 206 
L 441 856 
Q 825 641 1194 531 
Q 1563 422 1919 422 
Q 2459 422 2753 634 
Q 3047 847 3047 1241 
Q 3047 1584 2836 1778 
Q 2625 1972 2144 2069 
L 1759 2144 
Q 1053 2284 737 2584 
Q 422 2884 422 3419 
Q 422 4038 858 4394 
Q 1294 4750 2059 4750 
Q 2388 4750 2728 4690 
Q 3069 4631 3425 4513 
z
" transform="scale(0.015625)"/>
      <path id="DejaVuSans-fc" d="M 544 1381 
L 544 3500 
L 1119 3500 
L 1119 1403 
Q 1119 906 1312 657 
Q 1506 409 1894 409 
Q 2359 409 2629 706 
Q 2900 1003 2900 1516 
L 2900 3500 
L 3475 3500 
L 3475 0 
L 2900 0 
L 2900 538 
Q 2691 219 2414 64 
Q 2138 -91 1772 -91 
Q 1169 -91 856 284 
Q 544 659 544 1381 
z
M 1991 3584 
L 1991 3584 
z
M 2278 4850 
L 2912 4850 
L 2912 4219 
L 2278 4219 
L 2278 4850 
z
M 1056 4850 
L 1690 4850 
L 1690 4219 
L 1056 4219 
L 1056 4850 
z
" transform="scale(0.015625)"/>
      <path id="DejaVuSans-64" d="M 2906 2969 
L 2906 4863 
L 3481 4863 
L 3481 0 
L 2906 0 
L 2906 525 
Q 2725 213 2448 61 
Q 2172 -91 1784 -91 
Q 1150 -91 751 415 
Q 353 922 353 1747 
Q 353 2572 751 3078 
Q 1150 3584 1784 3584 
Q 2172 3584 2448 3432 
Q 2725 3281 2906 2969 
z
M 947 1747 
Q 947 1113 1208 752 
Q 1469 391 1925 391 
Q 2381 391 2643 752 
Q 2906 1113 2906 1747 
Q 2906 2381 2643 2742 
Q 2381 3103 1925 3103 
Q 1469 3103 1208 2742 
Q 947 2381 947 1747 
z
" transform="scale(0.015625)"/>
     </defs>
     <use xlink:href="#DejaVuSans-4b"/>
     <use xlink:href="#DejaVuSans-72" x="65.576172"/>
     <use xlink:href="#DejaVuSans-65" x="104.439453"/>
     <use xlink:href="#DejaVuSans-75" x="165.962891"/>
     <use xlink:href="#DejaVuSans-7a" x="229.341797"/>
     <use xlink:href="#DejaVuSans-62" x="281.832031"/>
     <use xlink:href="#DejaVuSans-65" x="345.308594"/>
     <use xlink:href="#DejaVuSans-72" x="406.832031"/>
     <use xlink:href="#DejaVuSans-67" x="446.195312"/>
     <use xlink:href="#DejaVuSans-5f" x="509.671875"/>
     <use xlink:href="#DejaVuSans-53" x="559.671875"/>
     <use xlink:href="#DejaVuSans-fc" x="623.148438"/>
     <use xlink:href="#DejaVuSans-64" x="686.527344"/>
    </g>
   </g>
  </g>
 </g>
 <defs>
  <clipPath id="pee6550d8cd">
   <rect x="57.6" y="64.835002" width="357.12" height="219.385997"/>
  </clipPath>
 </defs>
</svg>
