<?xml version="1.0" encoding="utf-8" standalone="no"?>
<!DOCTYPE svg PUBLIC "-//W3C//DTD SVG 1.1//EN"
  "http://www.w3.org/Graphics/SVG/1.1/DTD/svg11.dtd">
<svg xmlns:xlink="http://www.w3.org/1999/xlink" width="720pt" height="720pt" viewBox="0 0 720 720" xmlns="http://www.w3.org/2000/svg" version="1.1">
 <metadata>
  <rdf:RDF xmlns:dc="http://purl.org/dc/elements/1.1/" xmlns:cc="http://creativecommons.org/ns#" xmlns:rdf="http://www.w3.org/1999/02/22-rdf-syntax-ns#">
   <cc:Work>
    <dc:type rdf:resource="http://purl.org/dc/dcmitype/StillImage"/>
    <dc:date>2024-10-17T11:36:14.963224</dc:date>
    <dc:format>image/svg+xml</dc:format>
    <dc:creator>
     <cc:Agent>
      <dc:title>Matplotlib v3.9.2, https://matplotlib.org/</dc:title>
     </cc:Agent>
    </dc:creator>
   </cc:Work>
  </rdf:RDF>
 </metadata>
 <defs>
  <style type="text/css">*{stroke-linejoin: round; stroke-linecap: butt}</style>
 </defs>
 <g id="figure_1">
  <g id="patch_1">
   <path d="M 0 720 
L 720 720 
L 720 0 
L 0 0 
z
" style="fill: #ffffff"/>
  </g>
  <g id="axes_1">
   <g id="patch_2">
    <path d="M 90 558.716042 
L 648 558.716042 
L 648 168.483958 
L 90 168.483958 
z
" style="fill: #ffffff"/>
   </g>
   <g id="PatchCollection_1">
    <path d="M 206.193508 295.236604 
L 208.328115 297.654345 
L 208.66714 298.038657 
L 213.478092 298.682202 
L 218.500833 302.828403 
L 220.334065 306.875135 
L 234.629622 316.277971 
L 236.635736 322.715847 
L 244.776822 327.780102 
L 252.540156 332.875716 
L 247.826876 340.995417 
L 248.059153 341.154461 
L 248.506903 341.488903 
L 249.033366 341.985444 
L 249.68976 342.742746 
L 250.863003 344.134428 
L 251.785639 345.399054 
L 253.671167 348.086631 
L 257.164388 353.218278 
L 259.180655 356.314967 
L 259.88638 357.509685 
L 260.635146 359.206696 
L 262.650694 364.652298 
L 264.22631 368.909291 
L 264.428934 369.633616 
L 264.961058 371.297739 
L 264.904539 372.232506 
L 265.18363 373.061153 
L 265.335127 373.034106 
L 266.25327 377.055049 
L 266.792852 379.34915 
L 268.095577 384.63984 
L 278.570659 383.571638 
L 283.163801 383.101335 
L 283.564557 383.00474 
L 284.235598 383.294254 
L 284.492674 383.288324 
L 284.523674 383.456084 
L 285.742923 383.214193 
L 286.739061 383.184631 
L 288.867917 383.399385 
L 290.547406 383.479896 
L 291.494572 383.708129 
L 293.128415 384.202783 
L 293.912224 384.657901 
L 295.97252 385.599137 
L 299.637006 387.174663 
L 301.222416 387.811289 
L 301.907744 388.055247 
L 302.689756 388.322567 
L 303.995357 388.692412 
L 304.862192 388.988306 
L 306.631447 389.641016 
L 307.147756 389.798174 
L 309.204638 390.302712 
L 309.595779 390.37837 
L 311.393248 390.681183 
L 312.540972 390.899802 
L 312.818446 390.955422 
L 313.606299 391.004933 
L 315.034821 391.083107 
L 315.09745 391.259403 
L 315.972014 394.179617 
L 316.419045 395.692154 
L 317.034555 397.774914 
L 317.083526 397.932251 
L 319.681877 406.258439 
L 322.628418 415.594873 
L 322.85674 416.31812 
L 322.909216 416.484173 
L 326.46309 427.806233 
L 328.961701 435.858721 
L 339.449813 452.279091 
L 339.46383 452.315213 
L 349.061743 467.33249 
L 349.791729 468.490727 
L 350.349462 468.343454 
L 350.82965 468.232842 
L 352.683458 467.818248 
L 353.503659 467.630361 
L 368.124224 464.382265 
L 370.825623 463.798003 
L 371.453279 463.662253 
L 379.139427 461.999837 
L 381.20161 461.565385 
L 381.854231 461.482808 
L 382.507839 461.409486 
L 383.162526 461.345329 
L 383.818022 461.290428 
L 384.474237 461.244691 
L 385.13099 461.20821 
L 385.788193 461.180984 
L 386.445756 461.163012 
L 387.103498 461.154297 
L 387.76124 461.154836 
L 388.347637 461.173885 
L 388.933674 461.202908 
L 389.519083 461.241906 
L 390.103772 461.290787 
L 390.687563 461.349552 
L 391.270186 461.418292 
L 391.851641 461.496826 
L 392.431658 461.585243 
L 393.112942 461.705111 
L 393.79198 461.837108 
L 394.468592 461.981236 
L 395.142508 462.137495 
L 395.813459 462.305794 
L 396.481265 462.486134 
L 397.145836 462.678335 
L 397.806813 462.882397 
L 398.464016 463.09832 
L 399.117265 463.326014 
L 399.766291 463.565299 
L 400.410915 463.816265 
L 401.050955 464.078643 
L 401.686233 464.352523 
L 402.249897 464.617596 
L 402.809427 464.891566 
L 403.364464 465.174341 
L 403.915009 465.465832 
L 404.460881 465.765949 
L 405.001901 466.074603 
L 412.760202 470.574386 
L 418.835331 474.152341 
L 419.655083 474.635044 
L 420.584458 475.182444 
L 423.45552 476.886643 
L 424.308608 477.392979 
L 424.36324 477.425327 
L 425.71296 478.389566 
L 427.824294 475.353798 
L 430.408268 471.627042 
L 432.812441 467.845205 
L 433.670111 467.079187 
L 433.790158 467.191956 
L 434.038249 467.422165 
L 434.051458 467.435015 
L 434.445205 467.803692 
L 434.686197 468.027522 
L 438.759346 471.830835 
L 441.525906 474.989434 
L 443.12147 477.026907 
L 446.128304 480.869307 
L 447.424649 482.628947 
L 450.165241 486.392544 
L 457.274786 496.174481 
L 460.478584 500.812192 
L 465.618497 508.572021 
L 468.416866 512.796037 
L 469.035251 513.729456 
L 473.227009 519.615889 
L 478.227287 526.735138 
L 488.028723 540.622123 
L 488.279779 540.97822 
L 491.277897 537.435937 
L 492.152011 536.403138 
L 492.402618 536.548075 
L 497.941939 529.725349 
L 502.387089 524.22233 
L 509.060386 515.972878 
L 510.891281 513.71481 
L 514.216743 509.495915 
L 518.722995 503.987774 
L 518.934605 503.72917 
L 519.106588 503.518998 
L 523.416057 498.250502 
L 529.707647 490.611888 
L 532.35452 487.399644 
L 536.397388 482.493086 
L 536.707389 482.116951 
L 536.995196 481.767683 
L 537.017421 481.740398 
L 537.320833 481.367916 
L 539.302236 478.935618 
L 540.009309 478.08199 
L 542.917571 474.510415 
L 543.106357 474.254327 
L 543.376912 473.880169 
L 544.991525 471.871719 
L 545.101329 471.735228 
L 547.809124 473.813855 
L 558.444328 481.908756 
L 559.512081 482.121084 
L 560.683796 482.323798 
L 562.370294 482.643863 
L 562.946088 482.753128 
L 563.414325 482.841995 
L 564.189867 482.993581 
L 574.543555 485.017486 
L 578.180186 485.713955 
L 579.879173 486.039322 
L 583.369519 486.707757 
L 585.099147 487.040402 
L 590.445189 488.076526 
L 596.902923 489.358314 
L 597.431632 489.455717 
L 595.522653 485.715573 
L 594.710269 484.123783 
L 594.680707 484.066815 
L 594.569915 483.852509 
L 595.495699 483.8735 
L 595.699398 483.878118 
L 596.105006 483.887194 
L 599.446282 483.964469 
L 601.873728 484.020629 
L 608.13333 485.591213 
L 608.853162 485.763466 
L 612.444686 486.228468 
L 616.132354 486.70596 
L 622.636364 486.555722 
L 619.30614 485.533076 
L 618.030192 479.106792 
L 616.810494 473.146858 
L 615.568332 467.149993 
L 614.334975 460.993545 
L 613.620265 457.482891 
L 612.979505 454.259146 
L 612.69071 452.731244 
L 612.408923 452.171444 
L 609.406672 446.261829 
L 606.777231 441.05749 
L 604.678926 436.865013 
L 603.935102 435.378983 
L 603.635524 434.795731 
L 601.707495 431.042467 
L 601.662118 430.952073 
L 601.009048 429.651325 
L 600.633003 428.90238 
L 598.565698 424.831567 
L 595.100242 424.737578 
L 595.180932 421.511048 
L 595.184886 421.357125 
L 595.208967 420.395582 
L 595.216874 420.107954 
L 595.674329 403.658561 
L 595.686279 403.229681 
L 595.847929 397.421512 
L 598.078951 397.789201 
L 600.636867 391.506416 
L 601.062423 390.531574 
L 603.347897 385.297492 
L 608.298305 378.309971 
L 609.476669 373.938861 
L 610.367317 370.990883 
L 610.001875 367.954397 
L 609.42671 366.23627 
L 609.018227 365.016572 
L 608.909951 364.723373 
L 608.34494 363.19565 
L 606.946159 359.412825 
L 605.933488 356.674209 
L 605.701301 356.046299 
L 605.594104 355.756425 
L 604.908866 353.903336 
L 603.268195 349.466272 
L 602.826555 348.271823 
L 602.254625 346.725321 
L 599.31096 338.765024 
L 596.642252 331.549898 
L 591.254967 315.640087 
L 589.709183 311.075159 
L 587.568825 304.755084 
L 584.494869 299.338237 
L 580.369065 292.067581 
L 580.357841 292.04781 
L 579.28415 290.156624 
L 579.280344 290.145135 
L 578.759484 290.091299 
L 579.237605 289.362841 
L 579.148069 288.169322 
L 579.110729 287.671581 
L 579.098059 287.527812 
L 578.734953 283.411173 
L 577.883663 273.756651 
L 577.868207 273.581613 
L 577.746903 272.206644 
L 577.589655 272.195412 
L 577.653722 271.149405 
L 577.324312 267.414742 
L 575.842955 266.382122 
L 574.298609 265.305564 
L 574.102814 265.169073 
L 574.066242 265.034111 
L 573.478947 262.868773 
L 575.232567 260.09134 
L 571.222316 252.477077 
L 568.656673 248.089524 
L 567.154918 245.576985 
L 566.96128 245.222864 
L 566.164801 243.804406 
L 564.556657 240.822372 
L 564.439486 240.607977 
L 563.790999 239.420626 
L 563.425017 239.346316 
L 561.33083 238.919402 
L 558.34989 239.907643 
L 558.099014 239.854808 
L 556.485209 240.458727 
L 554.73159 241.115031 
L 554.637062 241.150794 
L 552.905547 241.806739 
L 550.822876 242.604386 
L 550.539292 242.713021 
L 548.859624 243.356476 
L 548.253459 243.588573 
L 543.68296 245.339317 
L 541.508997 246.172098 
L 539.288758 247.021771 
L 537.13618 247.845476 
L 534.995373 248.659297 
L 533.782863 249.120256 
L 529.088453 250.940099 
L 527.951961 251.354602 
L 525.59622 252.253966 
L 524.886721 252.5185 
L 523.085029 253.193584 
L 521.755438 253.700549 
L 518.386396 254.984674 
L 513.691358 256.774415 
L 512.395462 257.268351 
L 509.160665 258.501437 
L 507.795401 259.021791 
L 504.667711 260.214083 
L 501.208185 261.532802 
L 500.791256 261.691756 
L 499.679384 262.115605 
L 496.492749 263.330271 
L 495.758091 263.61035 
L 491.231172 265.335935 
L 488.284901 266.459039 
L 488.018839 266.560486 
L 487.390299 266.79995 
L 485.921971 267.399915 
L 485.203756 267.693383 
L 481.436655 269.232787 
L 479.878741 269.869503 
L 477.688783 270.707316 
L 473.887447 272.161807 
L 473.771534 272.206015 
L 472.214338 272.801937 
L 471.571422 273.058205 
L 468.369422 274.334422 
L 466.765861 274.9883 
L 465.702332 275.421943 
L 463.756062 276.215367 
L 463.660366 276.254454 
L 463.578687 276.291385 
L 463.32224 276.407658 
L 460.638526 277.29498 
L 460.377856 277.341795 
L 459.567269 277.487451 
L 452.968642 280.019219 
L 446.060373 282.655579 
L 445.08634 283.024615 
L 443.070253 283.788566 
L 442.791521 283.894506 
L 437.8616 285.768172 
L 437.748921 285.814268 
L 435.772011 286.57202 
L 435.510801 286.672029 
L 434.7402 286.967384 
L 433.550424 287.414864 
L 433.29802 287.509661 
L 432.962679 287.645613 
L 431.317605 288.290146 
L 430.284177 288.699258 
L 429.848019 288.849497 
L 426.207255 290.220691 
L 426.024848 290.289431 
L 425.796525 290.388631 
L 425.668211 290.444431 
L 424.085767 291.047721 
L 423.781965 291.162826 
L 422.01954 291.830272 
L 421.363954 292.099479 
L 420.716995 292.384681 
L 418.459466 293.228154 
L 418.216137 293.319088 
L 418.187923 293.329601 
L 418.066528 293.374978 
L 415.983498 294.153126 
L 415.163926 294.460342 
L 414.753287 294.631427 
L 412.570428 295.45028 
L 412.261684 295.566104 
L 410.663335 296.165619 
L 404.8779 298.345424 
L 404.831425 298.362932 
L 401.631511 299.568446 
L 398.421784 300.777811 
L 395.559707 301.856077 
L 395.235059 301.981426 
L 393.913824 302.471228 
L 391.645333 303.345971 
L 390.482962 303.784286 
L 388.74381 304.440051 
L 388.404695 304.568005 
L 386.085705 305.323959 
L 385.720442 305.449218 
L 385.119579 305.655436 
L 384.802838 305.764161 
L 384.483043 305.858779 
L 382.51979 306.295836 
L 380.631657 306.729928 
L 377.554916 307.408966 
L 375.073646 307.814753 
L 374.06421 307.979908 
L 373.107429 308.110917 
L 370.668481 308.44473 
L 370.75645 308.825987 
L 369.952783 308.713937 
L 365.494693 308.913776 
L 362.987649 308.871561 
L 361.300329 308.843149 
L 359.478958 308.726697 
L 358.275344 308.64987 
L 357.832716 308.621566 
L 356.631977 308.544829 
L 356.346327 308.502956 
L 354.728299 308.272747 
L 352.090951 307.879719 
L 351.889136 307.843687 
L 349.098494 307.346157 
L 348.674466 308.741253 
L 348.440662 308.651218 
L 347.580026 308.320011 
L 345.747064 307.614555 
L 345.204517 307.405641 
L 341.738971 306.070838 
L 340.853984 305.730016 
L 340.350254 305.524517 
L 339.721536 305.275348 
L 339.916612 304.651571 
L 340.355196 303.249107 
L 340.64516 302.322068 
L 340.761703 301.949347 
L 340.837002 301.706288 
L 339.42681 301.212352 
L 337.976542 300.70404 
L 337.029465 300.33114 
L 336.076997 299.956353 
L 333.415927 298.905762 
L 331.946431 298.32305 
L 331.845793 298.283154 
L 330.218061 297.637812 
L 328.731671 297.04845 
L 327.051464 296.38936 
L 325.422025 295.752823 
L 323.781533 295.03973 
L 322.051905 294.287191 
L 320.251201 293.493677 
L 318.507286 292.736375 
L 316.702718 291.86289 
L 314.908844 290.994077 
L 313.158818 290.041699 
L 313.036076 289.974667 
L 311.527852 289.154466 
L 310.475015 288.581817 
L 309.516706 288.039809 
L 308.558487 287.499598 
L 307.89176 287.123013 
L 306.752662 286.480816 
L 306.547701 286.365262 
L 305.359183 285.69485 
L 305.208136 284.241887 
L 305.159794 283.776795 
L 305.027976 282.512439 
L 304.345973 282.534813 
L 303.280017 282.825406 
L 301.948808 283.340277 
L 301.616163 282.75433 
L 300.24389 282.675437 
L 299.408684 282.762327 
L 298.645451 282.056961 
L 298.243258 281.685319 
L 297.165172 280.689091 
L 292.011742 275.692035 
L 291.586135 275.279342 
L 289.585413 273.545401 
L 287.401296 271.988925 
L 287.111332 271.796274 
L 284.980679 270.380961 
L 280.773736 267.868691 
L 278.513151 266.543323 
L 271.742182 262.459931 
L 266.314102 259.148936 
L 265.601728 258.714485 
L 262.086222 256.44204 
L 261.775592 256.241392 
L 261.453909 256.033467 
L 257.750066 253.417145 
L 251.323063 249.156558 
L 249.013059 247.654174 
L 242.639609 243.612834 
L 237.349548 240.207671 
L 233.211344 237.505447 
L 232.535451 236.983926 
L 229.193635 234.536801 
L 229.088415 234.457369 
L 224.364802 231.034055 
L 219.693755 227.607956 
L 217.450693 226.354831 
L 215.377187 224.895219 
L 213.245636 223.129738 
L 210.975886 221.39373 
L 209.794736 220.543698 
L 208.777662 219.800233 
L 204.079838 216.610184 
L 201.394956 214.749097 
L 201.122245 214.658343 
L 199.188106 213.272772 
L 199.09205 213.214995 
L 198.002013 212.559589 
L 197.729931 212.396052 
L 195.207148 210.879112 
L 194.601163 210.514928 
L 191.193843 208.404402 
L 190.0206 207.682144 
L 188.633052 207.038329 
L 185.868109 205.125755 
L 184.892279 204.530553 
L 183.426646 203.825367 
L 181.723705 202.598121 
L 179.772134 201.483643 
L 178.783184 200.918902 
L 175.634019 199.459918 
L 171.823428 198.0659 
L 171.168561 197.973259 
L 171.069361 198.394951 
L 168.299386 197.833444 
L 167.88057 197.866062 
L 163.951908 196.593978 
L 162.985243 196.304194 
L 160.759972 195.605478 
L 158.061432 194.743134 
L 157.44116 196.524519 
L 155.828883 196.02663 
L 155.47036 196.502325 
L 155.262524 196.75446 
L 154.632188 196.730738 
L 152.632095 196.234106 
L 152.366482 196.168153 
L 150.980102 195.823916 
L 150.787452 195.673678 
L 149.660125 194.794352 
L 148.192515 193.867942 
L 147.924566 193.783748 
L 139.645911 191.193304 
L 138.482103 190.830647 
L 124.648852 186.528097 
L 123.664126 186.22178 
L 123.609943 186.453517 
L 123.376409 187.442197 
L 123.247287 187.989058 
L 123.166686 188.329969 
L 123.155814 188.809528 
L 123.138022 189.600795 
L 122.852102 189.801083 
L 122.644446 189.948985 
L 122.482706 190.565843 
L 122.318181 191.185397 
L 121.733581 193.39072 
L 121.657833 193.356934 
L 120.504448 197.781598 
L 119.513702 201.596502 
L 119.460777 202.016846 
L 119.181955 203.166996 
L 118.491056 206.142201 
L 118.344232 206.772806 
L 117.328776 211.128101 
L 116.706437 211.111838 
L 116.688555 211.107884 
L 116.04537 213.510709 
L 115.625745 215.075093 
L 115.363636 216.14644 
L 117.09623 216.601738 
L 117.287532 216.652057 
L 119.305237 217.182114 
L 120.468416 217.487892 
L 120.824244 217.581881 
L 121.337408 217.716485 
L 121.345675 217.718641 
L 121.526914 217.765905 
L 121.990478 217.88757 
L 122.678411 218.068179 
L 122.786597 218.097202 
L 122.798386 218.100301 
L 137.888069 222.066299 
L 142.717441 223.335148 
L 151.298999 233.055354 
L 199.702618 287.884089 
L 206.193508 295.236604 
" clip-path="url(#p423024781a)" style="fill: #d3d3d3"/>
   </g>
   <g id="PatchCollection_2">
    <path d="M 470.018901 307.00267 
L 470.018901 306.912815 
L 469.929046 306.912815 
L 469.929046 307.00267 
L 470.018901 307.00267 
" clip-path="url(#p423024781a)" style="fill: #ff0000; fill-opacity: 0.7; stroke: #000000; stroke-opacity: 0.7; stroke-width: 0.5"/>
    <path d="M 166.68309 204.523364 
L 166.68309 204.433509 
L 166.593235 204.433509 
L 166.593235 204.523364 
L 166.68309 204.523364 
" clip-path="url(#p423024781a)" style="fill: #ff0000; fill-opacity: 0.7; stroke: #000000; stroke-opacity: 0.7; stroke-width: 0.5"/>
    <path d="M 457.007067 425.70658 
L 457.007067 425.616725 
L 456.917212 425.616725 
L 456.917212 425.70658 
L 457.007067 425.70658 
" clip-path="url(#p423024781a)" style="fill: #ff0000; fill-opacity: 0.7; stroke: #000000; stroke-opacity: 0.7; stroke-width: 0.5"/>
    <path d="M 461.398784 403.605583 
L 461.398784 403.515728 
L 461.308929 403.515728 
L 461.308929 403.605583 
L 461.398784 403.605583 
" clip-path="url(#p423024781a)" style="fill: #ff0000; fill-opacity: 0.7; stroke: #000000; stroke-opacity: 0.7; stroke-width: 0.5"/>
   </g>
   <g id="matplotlib.axis_1">
    <g id="xtick_1">
     <g id="line2d_1">
      <defs>
       <path id="mc0151d8604" d="M 0 0 
L 0 3.5 
" style="stroke: #000000; stroke-width: 0.8"/>
      </defs>
      <g>
       <use xlink:href="#mc0151d8604" x="111.375311" y="558.716042" style="stroke: #000000; stroke-width: 0.8"/>
      </g>
     </g>
     <g id="text_1">
      <!-- 396000 -->
      <g transform="translate(92.287811 573.31448) scale(0.1 -0.1)">
       <defs>
        <path id="DejaVuSans-33" d="M 2597 2516 
Q 3050 2419 3304 2112 
Q 3559 1806 3559 1356 
Q 3559 666 3084 287 
Q 2609 -91 1734 -91 
Q 1441 -91 1130 -33 
Q 819 25 488 141 
L 488 750 
Q 750 597 1062 519 
Q 1375 441 1716 441 
Q 2309 441 2620 675 
Q 2931 909 2931 1356 
Q 2931 1769 2642 2001 
Q 2353 2234 1838 2234 
L 1294 2234 
L 1294 2753 
L 1863 2753 
Q 2328 2753 2575 2939 
Q 2822 3125 2822 3475 
Q 2822 3834 2567 4026 
Q 2313 4219 1838 4219 
Q 1578 4219 1281 4162 
Q 984 4106 628 3988 
L 628 4550 
Q 988 4650 1302 4700 
Q 1616 4750 1894 4750 
Q 2613 4750 3031 4423 
Q 3450 4097 3450 3541 
Q 3450 3153 3228 2886 
Q 3006 2619 2597 2516 
z
" transform="scale(0.015625)"/>
        <path id="DejaVuSans-39" d="M 703 97 
L 703 672 
Q 941 559 1184 500 
Q 1428 441 1663 441 
Q 2288 441 2617 861 
Q 2947 1281 2994 2138 
Q 2813 1869 2534 1725 
Q 2256 1581 1919 1581 
Q 1219 1581 811 2004 
Q 403 2428 403 3163 
Q 403 3881 828 4315 
Q 1253 4750 1959 4750 
Q 2769 4750 3195 4129 
Q 3622 3509 3622 2328 
Q 3622 1225 3098 567 
Q 2575 -91 1691 -91 
Q 1453 -91 1209 -44 
Q 966 3 703 97 
z
M 1959 2075 
Q 2384 2075 2632 2365 
Q 2881 2656 2881 3163 
Q 2881 3666 2632 3958 
Q 2384 4250 1959 4250 
Q 1534 4250 1286 3958 
Q 1038 3666 1038 3163 
Q 1038 2656 1286 2365 
Q 1534 2075 1959 2075 
z
" transform="scale(0.015625)"/>
        <path id="DejaVuSans-36" d="M 2113 2584 
Q 1688 2584 1439 2293 
Q 1191 2003 1191 1497 
Q 1191 994 1439 701 
Q 1688 409 2113 409 
Q 2538 409 2786 701 
Q 3034 994 3034 1497 
Q 3034 2003 2786 2293 
Q 2538 2584 2113 2584 
z
M 3366 4563 
L 3366 3988 
Q 3128 4100 2886 4159 
Q 2644 4219 2406 4219 
Q 1781 4219 1451 3797 
Q 1122 3375 1075 2522 
Q 1259 2794 1537 2939 
Q 1816 3084 2150 3084 
Q 2853 3084 3261 2657 
Q 3669 2231 3669 1497 
Q 3669 778 3244 343 
Q 2819 -91 2113 -91 
Q 1303 -91 875 529 
Q 447 1150 447 2328 
Q 447 3434 972 4092 
Q 1497 4750 2381 4750 
Q 2619 4750 2861 4703 
Q 3103 4656 3366 4563 
z
" transform="scale(0.015625)"/>
        <path id="DejaVuSans-30" d="M 2034 4250 
Q 1547 4250 1301 3770 
Q 1056 3291 1056 2328 
Q 1056 1369 1301 889 
Q 1547 409 2034 409 
Q 2525 409 2770 889 
Q 3016 1369 3016 2328 
Q 3016 3291 2770 3770 
Q 2525 4250 2034 4250 
z
M 2034 4750 
Q 2819 4750 3233 4129 
Q 3647 3509 3647 2328 
Q 3647 1150 3233 529 
Q 2819 -91 2034 -91 
Q 1250 -91 836 529 
Q 422 1150 422 2328 
Q 422 3509 836 4129 
Q 1250 4750 2034 4750 
z
" transform="scale(0.015625)"/>
       </defs>
       <use xlink:href="#DejaVuSans-33"/>
       <use xlink:href="#DejaVuSans-39" x="63.623047"/>
       <use xlink:href="#DejaVuSans-36" x="127.246094"/>
       <use xlink:href="#DejaVuSans-30" x="190.869141"/>
       <use xlink:href="#DejaVuSans-30" x="254.492188"/>
       <use xlink:href="#DejaVuSans-30" x="318.115234"/>
      </g>
     </g>
    </g>
    <g id="xtick_2">
     <g id="line2d_2">
      <g>
       <use xlink:href="#mc0151d8604" x="201.23079" y="558.716042" style="stroke: #000000; stroke-width: 0.8"/>
      </g>
     </g>
     <g id="text_2">
      <!-- 397000 -->
      <g transform="translate(182.14329 573.31448) scale(0.1 -0.1)">
       <defs>
        <path id="DejaVuSans-37" d="M 525 4666 
L 3525 4666 
L 3525 4397 
L 1831 0 
L 1172 0 
L 2766 4134 
L 525 4134 
L 525 4666 
z
" transform="scale(0.015625)"/>
       </defs>
       <use xlink:href="#DejaVuSans-33"/>
       <use xlink:href="#DejaVuSans-39" x="63.623047"/>
       <use xlink:href="#DejaVuSans-37" x="127.246094"/>
       <use xlink:href="#DejaVuSans-30" x="190.869141"/>
       <use xlink:href="#DejaVuSans-30" x="254.492188"/>
       <use xlink:href="#DejaVuSans-30" x="318.115234"/>
      </g>
     </g>
    </g>
    <g id="xtick_3">
     <g id="line2d_3">
      <g>
       <use xlink:href="#mc0151d8604" x="291.086269" y="558.716042" style="stroke: #000000; stroke-width: 0.8"/>
      </g>
     </g>
     <g id="text_3">
      <!-- 398000 -->
      <g transform="translate(271.998769 573.31448) scale(0.1 -0.1)">
       <defs>
        <path id="DejaVuSans-38" d="M 2034 2216 
Q 1584 2216 1326 1975 
Q 1069 1734 1069 1313 
Q 1069 891 1326 650 
Q 1584 409 2034 409 
Q 2484 409 2743 651 
Q 3003 894 3003 1313 
Q 3003 1734 2745 1975 
Q 2488 2216 2034 2216 
z
M 1403 2484 
Q 997 2584 770 2862 
Q 544 3141 544 3541 
Q 544 4100 942 4425 
Q 1341 4750 2034 4750 
Q 2731 4750 3128 4425 
Q 3525 4100 3525 3541 
Q 3525 3141 3298 2862 
Q 3072 2584 2669 2484 
Q 3125 2378 3379 2068 
Q 3634 1759 3634 1313 
Q 3634 634 3220 271 
Q 2806 -91 2034 -91 
Q 1263 -91 848 271 
Q 434 634 434 1313 
Q 434 1759 690 2068 
Q 947 2378 1403 2484 
z
M 1172 3481 
Q 1172 3119 1398 2916 
Q 1625 2713 2034 2713 
Q 2441 2713 2670 2916 
Q 2900 3119 2900 3481 
Q 2900 3844 2670 4047 
Q 2441 4250 2034 4250 
Q 1625 4250 1398 4047 
Q 1172 3844 1172 3481 
z
" transform="scale(0.015625)"/>
       </defs>
       <use xlink:href="#DejaVuSans-33"/>
       <use xlink:href="#DejaVuSans-39" x="63.623047"/>
       <use xlink:href="#DejaVuSans-38" x="127.246094"/>
       <use xlink:href="#DejaVuSans-30" x="190.869141"/>
       <use xlink:href="#DejaVuSans-30" x="254.492188"/>
       <use xlink:href="#DejaVuSans-30" x="318.115234"/>
      </g>
     </g>
    </g>
    <g id="xtick_4">
     <g id="line2d_4">
      <g>
       <use xlink:href="#mc0151d8604" x="380.941748" y="558.716042" style="stroke: #000000; stroke-width: 0.8"/>
      </g>
     </g>
     <g id="text_4">
      <!-- 399000 -->
      <g transform="translate(361.854248 573.31448) scale(0.1 -0.1)">
       <use xlink:href="#DejaVuSans-33"/>
       <use xlink:href="#DejaVuSans-39" x="63.623047"/>
       <use xlink:href="#DejaVuSans-39" x="127.246094"/>
       <use xlink:href="#DejaVuSans-30" x="190.869141"/>
       <use xlink:href="#DejaVuSans-30" x="254.492188"/>
       <use xlink:href="#DejaVuSans-30" x="318.115234"/>
      </g>
     </g>
    </g>
    <g id="xtick_5">
     <g id="line2d_5">
      <g>
       <use xlink:href="#mc0151d8604" x="470.797227" y="558.716042" style="stroke: #000000; stroke-width: 0.8"/>
      </g>
     </g>
     <g id="text_5">
      <!-- 400000 -->
      <g transform="translate(451.709727 573.31448) scale(0.1 -0.1)">
       <defs>
        <path id="DejaVuSans-34" d="M 2419 4116 
L 825 1625 
L 2419 1625 
L 2419 4116 
z
M 2253 4666 
L 3047 4666 
L 3047 1625 
L 3713 1625 
L 3713 1100 
L 3047 1100 
L 3047 0 
L 2419 0 
L 2419 1100 
L 313 1100 
L 313 1709 
L 2253 4666 
z
" transform="scale(0.015625)"/>
       </defs>
       <use xlink:href="#DejaVuSans-34"/>
       <use xlink:href="#DejaVuSans-30" x="63.623047"/>
       <use xlink:href="#DejaVuSans-30" x="127.246094"/>
       <use xlink:href="#DejaVuSans-30" x="190.869141"/>
       <use xlink:href="#DejaVuSans-30" x="254.492188"/>
       <use xlink:href="#DejaVuSans-30" x="318.115234"/>
      </g>
     </g>
    </g>
    <g id="xtick_6">
     <g id="line2d_6">
      <g>
       <use xlink:href="#mc0151d8604" x="560.652706" y="558.716042" style="stroke: #000000; stroke-width: 0.8"/>
      </g>
     </g>
     <g id="text_6">
      <!-- 401000 -->
      <g transform="translate(541.565206 573.31448) scale(0.1 -0.1)">
       <defs>
        <path id="DejaVuSans-31" d="M 794 531 
L 1825 531 
L 1825 4091 
L 703 3866 
L 703 4441 
L 1819 4666 
L 2450 4666 
L 2450 531 
L 3481 531 
L 3481 0 
L 794 0 
L 794 531 
z
" transform="scale(0.015625)"/>
       </defs>
       <use xlink:href="#DejaVuSans-34"/>
       <use xlink:href="#DejaVuSans-30" x="63.623047"/>
       <use xlink:href="#DejaVuSans-31" x="127.246094"/>
       <use xlink:href="#DejaVuSans-30" x="190.869141"/>
       <use xlink:href="#DejaVuSans-30" x="254.492188"/>
       <use xlink:href="#DejaVuSans-30" x="318.115234"/>
      </g>
     </g>
    </g>
   </g>
   <g id="matplotlib.axis_2">
    <g id="ytick_1">
     <g id="line2d_7">
      <defs>
       <path id="mdf2d892c6f" d="M 0 0 
L -3.5 0 
" style="stroke: #000000; stroke-width: 0.8"/>
      </defs>
      <g>
       <use xlink:href="#mdf2d892c6f" x="90" y="550.010684" style="stroke: #000000; stroke-width: 0.8"/>
      </g>
     </g>
     <g id="text_7">
      <!-- 5.8140 -->
      <g transform="translate(48.009375 553.809902) scale(0.1 -0.1)">
       <defs>
        <path id="DejaVuSans-35" d="M 691 4666 
L 3169 4666 
L 3169 4134 
L 1269 4134 
L 1269 2991 
Q 1406 3038 1543 3061 
Q 1681 3084 1819 3084 
Q 2600 3084 3056 2656 
Q 3513 2228 3513 1497 
Q 3513 744 3044 326 
Q 2575 -91 1722 -91 
Q 1428 -91 1123 -41 
Q 819 9 494 109 
L 494 744 
Q 775 591 1075 516 
Q 1375 441 1709 441 
Q 2250 441 2565 725 
Q 2881 1009 2881 1497 
Q 2881 1984 2565 2268 
Q 2250 2553 1709 2553 
Q 1456 2553 1204 2497 
Q 953 2441 691 2322 
L 691 4666 
z
" transform="scale(0.015625)"/>
        <path id="DejaVuSans-2e" d="M 684 794 
L 1344 794 
L 1344 0 
L 684 0 
L 684 794 
z
" transform="scale(0.015625)"/>
       </defs>
       <use xlink:href="#DejaVuSans-35"/>
       <use xlink:href="#DejaVuSans-2e" x="63.623047"/>
       <use xlink:href="#DejaVuSans-38" x="95.410156"/>
       <use xlink:href="#DejaVuSans-31" x="159.033203"/>
       <use xlink:href="#DejaVuSans-34" x="222.65625"/>
       <use xlink:href="#DejaVuSans-30" x="286.279297"/>
      </g>
     </g>
    </g>
    <g id="ytick_2">
     <g id="line2d_8">
      <g>
       <use xlink:href="#mdf2d892c6f" x="90" y="505.082944" style="stroke: #000000; stroke-width: 0.8"/>
      </g>
     </g>
     <g id="text_8">
      <!-- 5.8145 -->
      <g transform="translate(48.009375 508.882163) scale(0.1 -0.1)">
       <use xlink:href="#DejaVuSans-35"/>
       <use xlink:href="#DejaVuSans-2e" x="63.623047"/>
       <use xlink:href="#DejaVuSans-38" x="95.410156"/>
       <use xlink:href="#DejaVuSans-31" x="159.033203"/>
       <use xlink:href="#DejaVuSans-34" x="222.65625"/>
       <use xlink:href="#DejaVuSans-35" x="286.279297"/>
      </g>
     </g>
    </g>
    <g id="ytick_3">
     <g id="line2d_9">
      <g>
       <use xlink:href="#mdf2d892c6f" x="90" y="460.155205" style="stroke: #000000; stroke-width: 0.8"/>
      </g>
     </g>
     <g id="text_9">
      <!-- 5.8150 -->
      <g transform="translate(48.009375 463.954423) scale(0.1 -0.1)">
       <use xlink:href="#DejaVuSans-35"/>
       <use xlink:href="#DejaVuSans-2e" x="63.623047"/>
       <use xlink:href="#DejaVuSans-38" x="95.410156"/>
       <use xlink:href="#DejaVuSans-31" x="159.033203"/>
       <use xlink:href="#DejaVuSans-35" x="222.65625"/>
       <use xlink:href="#DejaVuSans-30" x="286.279297"/>
      </g>
     </g>
    </g>
    <g id="ytick_4">
     <g id="line2d_10">
      <g>
       <use xlink:href="#mdf2d892c6f" x="90" y="415.227465" style="stroke: #000000; stroke-width: 0.8"/>
      </g>
     </g>
     <g id="text_10">
      <!-- 5.8155 -->
      <g transform="translate(48.009375 419.026684) scale(0.1 -0.1)">
       <use xlink:href="#DejaVuSans-35"/>
       <use xlink:href="#DejaVuSans-2e" x="63.623047"/>
       <use xlink:href="#DejaVuSans-38" x="95.410156"/>
       <use xlink:href="#DejaVuSans-31" x="159.033203"/>
       <use xlink:href="#DejaVuSans-35" x="222.65625"/>
       <use xlink:href="#DejaVuSans-35" x="286.279297"/>
      </g>
     </g>
    </g>
    <g id="ytick_5">
     <g id="line2d_11">
      <g>
       <use xlink:href="#mdf2d892c6f" x="90" y="370.299726" style="stroke: #000000; stroke-width: 0.8"/>
      </g>
     </g>
     <g id="text_11">
      <!-- 5.8160 -->
      <g transform="translate(48.009375 374.098944) scale(0.1 -0.1)">
       <use xlink:href="#DejaVuSans-35"/>
       <use xlink:href="#DejaVuSans-2e" x="63.623047"/>
       <use xlink:href="#DejaVuSans-38" x="95.410156"/>
       <use xlink:href="#DejaVuSans-31" x="159.033203"/>
       <use xlink:href="#DejaVuSans-36" x="222.65625"/>
       <use xlink:href="#DejaVuSans-30" x="286.279297"/>
      </g>
     </g>
    </g>
    <g id="ytick_6">
     <g id="line2d_12">
      <g>
       <use xlink:href="#mdf2d892c6f" x="90" y="325.371986" style="stroke: #000000; stroke-width: 0.8"/>
      </g>
     </g>
     <g id="text_12">
      <!-- 5.8165 -->
      <g transform="translate(48.009375 329.171205) scale(0.1 -0.1)">
       <use xlink:href="#DejaVuSans-35"/>
       <use xlink:href="#DejaVuSans-2e" x="63.623047"/>
       <use xlink:href="#DejaVuSans-38" x="95.410156"/>
       <use xlink:href="#DejaVuSans-31" x="159.033203"/>
       <use xlink:href="#DejaVuSans-36" x="222.65625"/>
       <use xlink:href="#DejaVuSans-35" x="286.279297"/>
      </g>
     </g>
    </g>
    <g id="ytick_7">
     <g id="line2d_13">
      <g>
       <use xlink:href="#mdf2d892c6f" x="90" y="280.444246" style="stroke: #000000; stroke-width: 0.8"/>
      </g>
     </g>
     <g id="text_13">
      <!-- 5.8170 -->
      <g transform="translate(48.009375 284.243465) scale(0.1 -0.1)">
       <use xlink:href="#DejaVuSans-35"/>
       <use xlink:href="#DejaVuSans-2e" x="63.623047"/>
       <use xlink:href="#DejaVuSans-38" x="95.410156"/>
       <use xlink:href="#DejaVuSans-31" x="159.033203"/>
       <use xlink:href="#DejaVuSans-37" x="222.65625"/>
       <use xlink:href="#DejaVuSans-30" x="286.279297"/>
      </g>
     </g>
    </g>
    <g id="ytick_8">
     <g id="line2d_14">
      <g>
       <use xlink:href="#mdf2d892c6f" x="90" y="235.516507" style="stroke: #000000; stroke-width: 0.8"/>
      </g>
     </g>
     <g id="text_14">
      <!-- 5.8175 -->
      <g transform="translate(48.009375 239.315726) scale(0.1 -0.1)">
       <use xlink:href="#DejaVuSans-35"/>
       <use xlink:href="#DejaVuSans-2e" x="63.623047"/>
       <use xlink:href="#DejaVuSans-38" x="95.410156"/>
       <use xlink:href="#DejaVuSans-31" x="159.033203"/>
       <use xlink:href="#DejaVuSans-37" x="222.65625"/>
       <use xlink:href="#DejaVuSans-35" x="286.279297"/>
      </g>
     </g>
    </g>
    <g id="ytick_9">
     <g id="line2d_15">
      <g>
       <use xlink:href="#mdf2d892c6f" x="90" y="190.588767" style="stroke: #000000; stroke-width: 0.8"/>
      </g>
     </g>
     <g id="text_15">
      <!-- 5.8180 -->
      <g transform="translate(48.009375 194.387986) scale(0.1 -0.1)">
       <use xlink:href="#DejaVuSans-35"/>
       <use xlink:href="#DejaVuSans-2e" x="63.623047"/>
       <use xlink:href="#DejaVuSans-38" x="95.410156"/>
       <use xlink:href="#DejaVuSans-31" x="159.033203"/>
       <use xlink:href="#DejaVuSans-38" x="222.65625"/>
       <use xlink:href="#DejaVuSans-30" x="286.279297"/>
      </g>
     </g>
    </g>
    <g id="text_16">
     <!-- 1e6 -->
     <g transform="translate(90 165.483958) scale(0.1 -0.1)">
      <defs>
       <path id="DejaVuSans-65" d="M 3597 1894 
L 3597 1613 
L 953 1613 
Q 991 1019 1311 708 
Q 1631 397 2203 397 
Q 2534 397 2845 478 
Q 3156 559 3463 722 
L 3463 178 
Q 3153 47 2828 -22 
Q 2503 -91 2169 -91 
Q 1331 -91 842 396 
Q 353 884 353 1716 
Q 353 2575 817 3079 
Q 1281 3584 2069 3584 
Q 2775 3584 3186 3129 
Q 3597 2675 3597 1894 
z
M 3022 2063 
Q 3016 2534 2758 2815 
Q 2500 3097 2075 3097 
Q 1594 3097 1305 2825 
Q 1016 2553 972 2059 
L 3022 2063 
z
" transform="scale(0.015625)"/>
      </defs>
      <use xlink:href="#DejaVuSans-31"/>
      <use xlink:href="#DejaVuSans-65" x="63.623047"/>
      <use xlink:href="#DejaVuSans-36" x="125.146484"/>
     </g>
    </g>
   </g>
   <g id="patch_3">
    <path d="M 90 558.716042 
L 90 168.483958 
" style="fill: none; stroke: #000000; stroke-width: 0.8; stroke-linejoin: miter; stroke-linecap: square"/>
   </g>
   <g id="patch_4">
    <path d="M 648 558.716042 
L 648 168.483958 
" style="fill: none; stroke: #000000; stroke-width: 0.8; stroke-linejoin: miter; stroke-linecap: square"/>
   </g>
   <g id="patch_5">
    <path d="M 90 558.716042 
L 648 558.716042 
" style="fill: none; stroke: #000000; stroke-width: 0.8; stroke-linejoin: miter; stroke-linecap: square"/>
   </g>
   <g id="patch_6">
    <path d="M 90 168.483958 
L 648 168.483958 
" style="fill: none; stroke: #000000; stroke-width: 0.8; stroke-linejoin: miter; stroke-linecap: square"/>
   </g>
   <g id="text_17">
    <!-- Lichtenberg_Süd -->
    <g transform="translate(373.860424 365.70975) scale(0.12 -0.12)">
     <defs>
      <path id="DejaVuSans-4c" d="M 628 4666 
L 1259 4666 
L 1259 531 
L 3531 531 
L 3531 0 
L 628 0 
L 628 4666 
z
" transform="scale(0.015625)"/>
      <path id="DejaVuSans-69" d="M 603 3500 
L 1178 3500 
L 1178 0 
L 603 0 
L 603 3500 
z
M 603 4863 
L 1178 4863 
L 1178 4134 
L 603 4134 
L 603 4863 
z
" transform="scale(0.015625)"/>
      <path id="DejaVuSans-63" d="M 3122 3366 
L 3122 2828 
Q 2878 2963 2633 3030 
Q 2388 3097 2138 3097 
Q 1578 3097 1268 2742 
Q 959 2388 959 1747 
Q 959 1106 1268 751 
Q 1578 397 2138 397 
Q 2388 397 2633 464 
Q 2878 531 3122 666 
L 3122 134 
Q 2881 22 2623 -34 
Q 2366 -91 2075 -91 
Q 1284 -91 818 406 
Q 353 903 353 1747 
Q 353 2603 823 3093 
Q 1294 3584 2113 3584 
Q 2378 3584 2631 3529 
Q 2884 3475 3122 3366 
z
" transform="scale(0.015625)"/>
      <path id="DejaVuSans-68" d="M 3513 2113 
L 3513 0 
L 2938 0 
L 2938 2094 
Q 2938 2591 2744 2837 
Q 2550 3084 2163 3084 
Q 1697 3084 1428 2787 
Q 1159 2491 1159 1978 
L 1159 0 
L 581 0 
L 581 4863 
L 1159 4863 
L 1159 2956 
Q 1366 3272 1645 3428 
Q 1925 3584 2291 3584 
Q 2894 3584 3203 3211 
Q 3513 2838 3513 2113 
z
" transform="scale(0.015625)"/>
      <path id="DejaVuSans-74" d="M 1172 4494 
L 1172 3500 
L 2356 3500 
L 2356 3053 
L 1172 3053 
L 1172 1153 
Q 1172 725 1289 603 
Q 1406 481 1766 481 
L 2356 481 
L 2356 0 
L 1766 0 
Q 1100 0 847 248 
Q 594 497 594 1153 
L 594 3053 
L 172 3053 
L 172 3500 
L 594 3500 
L 594 4494 
L 1172 4494 
z
" transform="scale(0.015625)"/>
      <path id="DejaVuSans-6e" d="M 3513 2113 
L 3513 0 
L 2938 0 
L 2938 2094 
Q 2938 2591 2744 2837 
Q 2550 3084 2163 3084 
Q 1697 3084 1428 2787 
Q 1159 2491 1159 1978 
L 1159 0 
L 581 0 
L 581 3500 
L 1159 3500 
L 1159 2956 
Q 1366 3272 1645 3428 
Q 1925 3584 2291 3584 
Q 2894 3584 3203 3211 
Q 3513 2838 3513 2113 
z
" transform="scale(0.015625)"/>
      <path id="DejaVuSans-62" d="M 3116 1747 
Q 3116 2381 2855 2742 
Q 2594 3103 2138 3103 
Q 1681 3103 1420 2742 
Q 1159 2381 1159 1747 
Q 1159 1113 1420 752 
Q 1681 391 2138 391 
Q 2594 391 2855 752 
Q 3116 1113 3116 1747 
z
M 1159 2969 
Q 1341 3281 1617 3432 
Q 1894 3584 2278 3584 
Q 2916 3584 3314 3078 
Q 3713 2572 3713 1747 
Q 3713 922 3314 415 
Q 2916 -91 2278 -91 
Q 1894 -91 1617 61 
Q 1341 213 1159 525 
L 1159 0 
L 581 0 
L 581 4863 
L 1159 4863 
L 1159 2969 
z
" transform="scale(0.015625)"/>
      <path id="DejaVuSans-72" d="M 2631 2963 
Q 2534 3019 2420 3045 
Q 2306 3072 2169 3072 
Q 1681 3072 1420 2755 
Q 1159 2438 1159 1844 
L 1159 0 
L 581 0 
L 581 3500 
L 1159 3500 
L 1159 2956 
Q 1341 3275 1631 3429 
Q 1922 3584 2338 3584 
Q 2397 3584 2469 3576 
Q 2541 3569 2628 3553 
L 2631 2963 
z
" transform="scale(0.015625)"/>
      <path id="DejaVuSans-67" d="M 2906 1791 
Q 2906 2416 2648 2759 
Q 2391 3103 1925 3103 
Q 1463 3103 1205 2759 
Q 947 2416 947 1791 
Q 947 1169 1205 825 
Q 1463 481 1925 481 
Q 2391 481 2648 825 
Q 2906 1169 2906 1791 
z
M 3481 434 
Q 3481 -459 3084 -895 
Q 2688 -1331 1869 -1331 
Q 1566 -1331 1297 -1286 
Q 1028 -1241 775 -1147 
L 775 -588 
Q 1028 -725 1275 -790 
Q 1522 -856 1778 -856 
Q 2344 -856 2625 -561 
Q 2906 -266 2906 331 
L 2906 616 
Q 2728 306 2450 153 
Q 2172 0 1784 0 
Q 1141 0 747 490 
Q 353 981 353 1791 
Q 353 2603 747 3093 
Q 1141 3584 1784 3584 
Q 2172 3584 2450 3431 
Q 2728 3278 2906 2969 
L 2906 3500 
L 3481 3500 
L 3481 434 
z
" transform="scale(0.015625)"/>
      <path id="DejaVuSans-5f" d="M 3263 -1063 
L 3263 -1509 
L -63 -1509 
L -63 -1063 
L 3263 -1063 
z
" transform="scale(0.015625)"/>
      <path id="DejaVuSans-53" d="M 3425 4513 
L 3425 3897 
Q 3066 4069 2747 4153 
Q 2428 4238 2131 4238 
Q 1616 4238 1336 4038 
Q 1056 3838 1056 3469 
Q 1056 3159 1242 3001 
Q 1428 2844 1947 2747 
L 2328 2669 
Q 3034 2534 3370 2195 
Q 3706 1856 3706 1288 
Q 3706 609 3251 259 
Q 2797 -91 1919 -91 
Q 1588 -91 1214 -16 
Q 841 59 441 206 
L 441 856 
Q 825 641 1194 531 
Q 1563 422 1919 422 
Q 2459 422 2753 634 
Q 3047 847 3047 1241 
Q 3047 1584 2836 1778 
Q 2625 1972 2144 2069 
L 1759 2144 
Q 1053 2284 737 2584 
Q 422 2884 422 3419 
Q 422 4038 858 4394 
Q 1294 4750 2059 4750 
Q 2388 4750 2728 4690 
Q 3069 4631 3425 4513 
z
" transform="scale(0.015625)"/>
      <path id="DejaVuSans-fc" d="M 544 1381 
L 544 3500 
L 1119 3500 
L 1119 1403 
Q 1119 906 1312 657 
Q 1506 409 1894 409 
Q 2359 409 2629 706 
Q 2900 1003 2900 1516 
L 2900 3500 
L 3475 3500 
L 3475 0 
L 2900 0 
L 2900 538 
Q 2691 219 2414 64 
Q 2138 -91 1772 -91 
Q 1169 -91 856 284 
Q 544 659 544 1381 
z
M 1991 3584 
L 1991 3584 
z
M 2278 4850 
L 2912 4850 
L 2912 4219 
L 2278 4219 
L 2278 4850 
z
M 1056 4850 
L 1690 4850 
L 1690 4219 
L 1056 4219 
L 1056 4850 
z
" transform="scale(0.015625)"/>
      <path id="DejaVuSans-64" d="M 2906 2969 
L 2906 4863 
L 3481 4863 
L 3481 0 
L 2906 0 
L 2906 525 
Q 2725 213 2448 61 
Q 2172 -91 1784 -91 
Q 1150 -91 751 415 
Q 353 922 353 1747 
Q 353 2572 751 3078 
Q 1150 3584 1784 3584 
Q 2172 3584 2448 3432 
Q 2725 3281 2906 2969 
z
M 947 1747 
Q 947 1113 1208 752 
Q 1469 391 1925 391 
Q 2381 391 2643 752 
Q 2906 1113 2906 1747 
Q 2906 2381 2643 2742 
Q 2381 3103 1925 3103 
Q 1469 3103 1208 2742 
Q 947 2381 947 1747 
z
" transform="scale(0.015625)"/>
     </defs>
     <use xlink:href="#DejaVuSans-4c"/>
     <use xlink:href="#DejaVuSans-69" x="55.712891"/>
     <use xlink:href="#DejaVuSans-63" x="83.496094"/>
     <use xlink:href="#DejaVuSans-68" x="138.476562"/>
     <use xlink:href="#DejaVuSans-74" x="201.855469"/>
     <use xlink:href="#DejaVuSans-65" x="241.064453"/>
     <use xlink:href="#DejaVuSans-6e" x="302.587891"/>
     <use xlink:href="#DejaVuSans-62" x="365.966797"/>
     <use xlink:href="#DejaVuSans-65" x="429.443359"/>
     <use xlink:href="#DejaVuSans-72" x="490.966797"/>
     <use xlink:href="#DejaVuSans-67" x="530.330078"/>
     <use xlink:href="#DejaVuSans-5f" x="593.806641"/>
     <use xlink:href="#DejaVuSans-53" x="643.806641"/>
     <use xlink:href="#DejaVuSans-fc" x="707.283203"/>
     <use xlink:href="#DejaVuSans-64" x="770.662109"/>
    </g>
   </g>
  </g>
 </g>
 <defs>
  <clipPath id="p423024781a">
   <rect x="90" y="168.483958" width="558" height="390.232084"/>
  </clipPath>
 </defs>
</svg>
