<?xml version="1.0" encoding="utf-8" standalone="no"?>
<!DOCTYPE svg PUBLIC "-//W3C//DTD SVG 1.1//EN"
  "http://www.w3.org/Graphics/SVG/1.1/DTD/svg11.dtd">
<svg xmlns:xlink="http://www.w3.org/1999/xlink" width="460.8pt" height="345.6pt" viewBox="0 0 460.8 345.6" xmlns="http://www.w3.org/2000/svg" version="1.1">
 <metadata>
  <rdf:RDF xmlns:dc="http://purl.org/dc/elements/1.1/" xmlns:cc="http://creativecommons.org/ns#" xmlns:rdf="http://www.w3.org/1999/02/22-rdf-syntax-ns#">
   <cc:Work>
    <dc:type rdf:resource="http://purl.org/dc/dcmitype/StillImage"/>
    <dc:date>2024-10-17T11:33:16.795132</dc:date>
    <dc:format>image/svg+xml</dc:format>
    <dc:creator>
     <cc:Agent>
      <dc:title>Matplotlib v3.9.2, https://matplotlib.org/</dc:title>
     </cc:Agent>
    </dc:creator>
   </cc:Work>
  </rdf:RDF>
 </metadata>
 <defs>
  <style type="text/css">*{stroke-linejoin: round; stroke-linecap: butt}</style>
 </defs>
 <g id="figure_1">
  <g id="patch_1">
   <path d="M 0 345.6 
L 460.8 345.6 
L 460.8 0 
L 0 0 
z
" style="fill: #ffffff"/>
  </g>
  <g id="axes_1">
   <g id="patch_2">
    <path d="M 57.6 295.70586 
L 414.72 295.70586 
L 414.72 53.35014 
L 57.6 53.35014 
z
" style="fill: #ffffff"/>
   </g>
   <g id="PatchCollection_1">
    <path d="M 132.399524 132.441387 
L 133.783095 133.947232 
L 134.002841 134.186598 
L 137.057225 134.530916 
L 140.292188 137.095218 
L 141.506516 139.638861 
L 150.681541 145.415819 
L 152.036864 149.474625 
L 157.257785 152.580318 
L 162.239867 155.711019 
L 159.36352 160.926254 
L 159.512666 161.024102 
L 159.800537 161.2304 
L 160.14038 161.538522 
L 160.565925 162.010399 
L 161.327045 162.878 
L 161.927836 163.668296 
L 163.156985 165.348831 
L 165.436143 168.559069 
L 166.753416 170.497511 
L 167.215942 171.246328 
L 167.712347 172.313331 
L 169.060155 175.742407 
L 170.113755 178.423026 
L 170.251582 178.879999 
L 170.610392 179.929005 
L 170.586958 180.522954 
L 170.774564 181.045118 
L 170.870104 181.025949 
L 171.504373 183.56548 
L 171.876209 185.014171 
L 172.770652 188.354396 
L 179.387142 187.537991 
L 182.288346 187.178845 
L 182.540747 187.112252 
L 182.969322 187.287114 
L 183.131971 187.279955 
L 183.153803 187.386006 
L 183.922387 187.216399 
L 184.552541 187.184484 
L 185.90291 187.292659 
L 186.967067 187.32158 
L 187.569617 187.453915 
L 188.61033 187.746261 
L 189.112461 188.024736 
L 190.428987 188.594863 
L 192.769277 189.54636 
L 193.781187 189.929459 
L 194.218196 190.07524 
L 194.716711 190.234573 
L 195.547995 190.452067 
L 196.100576 190.628417 
L 197.229059 191.019313 
L 197.557938 191.112243 
L 198.866534 191.405326 
L 199.115112 191.448187 
L 200.256851 191.616678 
L 200.986208 191.7403 
L 201.162574 191.771943 
L 201.661919 191.792989 
L 202.56717 191.823792 
L 202.609128 191.934846 
L 203.201047 193.776503 
L 203.503863 194.730477 
L 203.920805 196.044097 
L 203.953867 196.143299 
L 205.707807 201.392915 
L 207.695318 207.279068 
L 207.849321 207.735039 
L 207.884713 207.839726 
L 210.282564 214.977994 
L 211.969549 220.055277 
L 218.82261 230.337931 
L 218.831954 230.36067 
L 225.102781 239.764765 
L 225.579913 240.490216 
L 225.93096 240.389444 
L 226.233411 240.312954 
L 227.401214 240.025553 
L 227.917841 239.89557 
L 237.128418 237.642866 
L 238.830454 237.236751 
L 239.225914 237.142394 
L 244.068655 235.98693 
L 245.368114 235.684279 
L 245.78007 235.623348 
L 246.192773 235.568279 
L 246.606278 235.519012 
L 247.020415 235.475609 
L 247.435127 235.438014 
L 247.850301 235.406285 
L 248.26588 235.380425 
L 248.681806 235.360433 
L 249.097968 235.346314 
L 249.514249 235.338068 
L 249.885619 235.342501 
L 250.25689 235.353269 
L 250.627894 235.370375 
L 250.998571 235.393763 
L 251.368808 235.423437 
L 251.738436 235.459455 
L 252.107451 235.501704 
L 252.475686 235.550246 
L 252.908419 235.617424 
L 253.339889 235.692331 
L 253.769981 235.774968 
L 254.198524 235.865338 
L 254.625347 235.96339 
L 255.050337 236.069123 
L 255.473432 236.182427 
L 255.894407 236.303306 
L 256.313148 236.431761 
L 256.729539 236.567738 
L 257.143407 236.711127 
L 257.554641 236.861987 
L 257.963122 237.020149 
L 258.368738 237.185673 
L 258.728915 237.346543 
L 259.086592 237.513112 
L 259.44154 237.685328 
L 259.793757 237.863135 
L 260.143128 238.046477 
L 260.48954 238.2353 
L 265.458031 240.989835 
L 269.34924 243.18136 
L 269.874297 243.477022 
L 270.46957 243.812315 
L 272.30867 244.85647 
L 272.855125 245.166701 
L 272.890119 245.186519 
L 273.756809 245.780883 
L 275.053644 243.826919 
L 276.640663 241.428312 
L 278.113203 238.997095 
L 278.646081 238.499833 
L 278.723517 238.569837 
L 278.88351 238.712708 
L 278.892036 238.72069 
L 279.146006 238.949541 
L 279.301424 239.088455 
L 281.928472 241.449175 
L 283.720233 243.417736 
L 284.756381 244.690027 
L 286.709007 247.089435 
L 287.552171 248.189302 
L 289.335238 250.542174 
L 293.960905 256.657735 
L 296.048283 259.559371 
L 299.401137 264.417289 
L 301.226502 267.061679 
L 301.629868 267.646035 
L 304.358375 271.327407 
L 307.614327 275.780716 
L 313.995395 284.466948 
L 314.158841 284.689691 
L 316.010407 282.403028 
L 316.550244 281.736324 
L 316.710689 281.825069 
L 320.128163 277.423846 
L 322.870309 273.874266 
L 326.987249 268.553096 
L 328.116874 267.096523 
L 330.167135 264.376352 
L 332.948137 260.822833 
L 333.078733 260.655997 
L 333.184874 260.520407 
L 335.844492 257.121529 
L 339.728187 252.193097 
L 341.362116 250.12056 
L 343.857845 246.954872 
L 344.049217 246.712192 
L 344.226888 246.486846 
L 344.240604 246.469246 
L 344.427853 246.228968 
L 345.650679 244.659964 
L 346.087237 244.109165 
L 347.882089 241.805274 
L 347.99829 241.640335 
L 348.16473 241.399418 
L 349.160887 240.104115 
L 349.228633 240.016087 
L 350.968931 241.300476 
L 357.803135 246.301289 
L 358.481593 246.422359 
L 359.225722 246.535997 
L 360.297137 246.717519 
L 360.662933 246.779488 
L 360.960399 246.829889 
L 361.453149 246.91616 
L 368.031461 248.068095 
L 370.341832 248.463595 
L 371.421205 248.648365 
L 373.638632 249.027971 
L 374.737485 249.216981 
L 378.133981 249.806266 
L 382.237133 250.537317 
L 382.572971 250.592388 
L 381.317278 248.243185 
L 380.782898 247.243374 
L 380.763464 247.207599 
L 380.690621 247.073011 
L 381.276787 247.074521 
L 381.40576 247.074854 
L 381.662572 247.07544 
L 383.778139 247.081869 
L 385.315105 247.086562 
L 389.296558 248.003516 
L 389.754303 248.103662 
L 392.033159 248.353024 
L 394.373017 248.609108 
L 398.487273 248.431022 
L 396.366715 247.824394 
L 395.477668 243.762405 
L 394.630113 239.995658 
L 393.767848 236.205763 
L 392.909107 232.314485 
L 392.412191 230.095668 
L 391.965715 228.057988 
L 391.763531 227.092035 
L 391.578075 226.740366 
L 389.602834 223.02827 
L 387.872467 219.759017 
L 386.491096 217.125149 
L 386.001412 216.191573 
L 385.804383 215.825251 
L 384.536334 213.467954 
L 384.506463 213.411167 
L 384.076565 212.594021 
L 383.829024 212.123524 
L 382.468746 209.566492 
L 380.274082 209.551054 
L 380.284094 207.502422 
L 380.284638 207.40469 
L 380.287643 206.794174 
L 380.288988 206.611541 
L 380.3692 196.166689 
L 380.371307 195.894363 
L 380.399709 192.206356 
L 381.816605 192.411233 
L 383.355825 188.391464 
L 383.612801 187.767389 
L 384.992949 184.416626 
L 388.037792 179.919148 
L 388.728167 177.130165 
L 389.254508 175.247989 
L 388.984582 173.325648 
L 388.598645 172.242628 
L 388.324557 171.473795 
L 388.252288 171.289107 
L 387.875194 170.326793 
L 386.941614 167.943985 
L 386.265723 166.218929 
L 386.110753 165.823409 
L 386.039205 165.640817 
L 385.581848 164.473557 
L 384.486775 161.678654 
L 384.191996 160.926272 
L 383.810255 159.952133 
L 381.845421 154.937968 
L 380.064075 150.393206 
L 376.450785 140.365407 
L 375.413969 137.488187 
L 373.978324 133.50473 
L 371.963063 130.106411 
L 369.258137 125.545108 
L 369.250778 125.532705 
L 368.546851 124.346266 
L 368.544295 124.339023 
L 368.213829 124.311519 
L 368.507254 123.843116 
L 368.435336 123.08684 
L 368.405344 122.771446 
L 368.395488 122.68037 
L 368.11306 120.072547 
L 367.450854 113.956563 
L 367.438835 113.845679 
L 367.344481 112.97466 
L 367.244773 112.969543 
L 367.271989 112.304915 
L 367.01575 109.939069 
L 366.064607 109.302708 
L 365.073016 108.639273 
L 364.9473 108.55516 
L 364.92242 108.469979 
L 364.522907 107.103347 
L 365.597811 105.318316 
L 362.961317 100.537546 
L 361.280698 97.786006 
L 360.297672 96.210754 
L 360.170533 95.988506 
L 359.648067 95.098538 
L 358.591655 93.226709 
L 358.514719 93.092153 
L 358.088908 92.346957 
L 357.856213 92.304488 
L 356.524681 92.060401 
L 354.649743 92.725761 
L 354.490209 92.695448 
L 353.476051 93.099393 
L 352.374035 93.53838 
L 352.314636 93.562288 
L 351.226615 94.000768 
L 349.918057 94.533684 
L 349.739879 94.606264 
L 348.684537 95.036162 
L 348.30368 95.191233 
L 345.432034 96.36095 
L 344.066141 96.917361 
L 342.671168 97.485094 
L 341.318712 98.035485 
L 339.973587 98.579458 
L 339.211738 98.887573 
L 336.262596 100.102828 
L 335.548293 100.380494 
L 334.068195 100.981547 
L 333.62234 101.158553 
L 332.490189 101.610154 
L 331.654813 101.948993 
L 329.538062 102.807287 
L 326.588219 104.003548 
L 325.774026 104.333702 
L 323.741657 105.157921 
L 322.883886 105.505742 
L 320.918828 106.302711 
L 318.745297 107.184207 
L 318.483352 107.29046 
L 317.784795 107.573785 
L 315.782732 108.38575 
L 315.321171 108.572974 
L 312.477074 109.7265 
L 310.626052 110.477291 
L 310.458897 110.545107 
L 310.064012 110.705195 
L 309.142046 111.104912 
L 308.691078 111.300431 
L 306.325726 112.326047 
L 305.347522 112.750258 
L 303.971728 113.310264 
L 301.583638 114.282476 
L 301.510817 114.312031 
L 300.532556 114.710361 
L 300.128796 114.881312 
L 298.117904 115.732662 
L 297.111045 116.168384 
L 296.443267 116.457351 
L 295.221229 116.986074 
L 295.161144 117.012119 
L 295.109906 117.036613 
L 294.949038 117.113724 
L 293.261304 117.711599 
L 293.096865 117.744686 
L 292.585523 117.847626 
L 288.440346 119.539859 
L 284.100526 121.302547 
L 283.488601 121.549383 
L 282.222024 122.060366 
L 282.04692 122.131215 
L 278.949864 123.384287 
L 278.87912 123.415004 
L 277.637284 123.921564 
L 277.473198 123.988425 
L 276.989131 124.185873 
L 276.241642 124.485311 
L 276.083065 124.54875 
L 275.872512 124.639385 
L 274.839316 125.069795 
L 274.190323 125.342857 
L 273.916125 125.44387 
L 271.628827 126.361389 
L 271.514232 126.407384 
L 271.370961 126.473308 
L 271.290446 126.510388 
L 270.296381 126.913827 
L 270.105529 126.990826 
L 268.998349 127.437326 
L 268.586774 127.616698 
L 268.180869 127.806109 
L 266.762518 128.37077 
L 266.609642 128.431645 
L 266.591915 128.438684 
L 266.515646 128.469061 
L 265.206933 128.990002 
L 264.692033 129.195637 
L 264.43427 129.309556 
L 263.06289 129.857639 
L 262.868923 129.935163 
L 261.864764 130.336445 
L 258.230231 131.795169 
L 258.201035 131.806886 
L 256.190796 132.613642 
L 254.174406 133.422983 
L 252.376422 134.144605 
L 252.172516 134.228389 
L 251.342404 134.556466 
L 249.917589 135.141199 
L 249.18739 135.434534 
L 248.094861 135.873399 
L 247.881831 135.959029 
L 246.423512 136.469055 
L 246.193894 136.553317 
L 245.816171 136.692035 
L 245.617058 136.765171 
L 245.415827 136.829395 
L 244.178578 137.132411 
L 242.988851 137.432569 
L 241.049809 137.903719 
L 239.484204 138.193687 
L 238.847282 138.3117 
L 238.243251 138.407357 
L 236.703506 138.651112 
L 236.764177 138.891907 
L 236.25391 138.831318 
L 233.434098 139.016502 
L 231.846335 139.022547 
L 230.77772 139.026621 
L 229.623086 138.976584 
L 228.860073 138.943603 
L 228.579475 138.931442 
L 227.818282 138.898483 
L 227.636889 138.875655 
L 226.609504 138.750775 
L 224.934654 138.535942 
L 224.806413 138.515723 
L 223.033142 138.236594 
L 222.782949 139.127487 
L 222.633749 139.073418 
L 222.084545 138.874525 
L 220.91486 138.450895 
L 220.568637 138.325438 
L 218.357111 137.523863 
L 217.792358 137.319197 
L 217.470753 137.195402 
L 217.069444 137.045535 
L 217.184775 136.647124 
L 217.444072 135.751359 
L 217.615506 135.159252 
L 217.684407 134.921193 
L 217.728895 134.765959 
L 216.829618 134.471025 
L 215.904778 134.167498 
L 215.300287 133.943296 
L 214.692356 133.717968 
L 212.993828 133.086229 
L 212.05583 132.735753 
L 211.991591 132.711758 
L 210.952588 132.323621 
L 210.003802 131.969154 
L 208.93139 131.57299 
L 207.891413 131.190475 
L 206.84343 130.759526 
L 205.738493 130.304721 
L 204.588015 129.824854 
L 203.473963 129.367225 
L 202.31998 128.836668 
L 201.172825 128.308941 
L 200.052329 127.727611 
L 199.973737 127.686689 
L 199.008064 127.186057 
L 198.333959 126.836525 
L 197.720104 126.505194 
L 197.106327 126.175003 
L 196.679252 125.94481 
L 195.949613 125.552285 
L 195.818327 125.481656 
L 195.057024 125.071881 
L 194.942282 124.151823 
L 194.905557 123.857313 
L 194.805469 123.056692 
L 194.373964 123.079882 
L 193.702894 123.278347 
L 192.866835 123.622638 
L 192.648517 123.255184 
L 191.778647 123.223218 
L 191.250993 123.289375 
L 190.758481 122.85182 
L 190.498947 122.621282 
L 189.803258 122.003302 
L 186.474614 118.900196 
L 186.199708 118.643922 
L 184.910118 117.569985 
L 183.50674 116.611095 
L 183.320611 116.49267 
L 181.952934 115.622663 
L 179.256174 114.083982 
L 177.807393 113.272793 
L 173.466411 110.771045 
L 169.985828 108.741746 
L 169.529038 108.475477 
L 167.273108 107.07995 
L 167.073774 106.956735 
L 166.867347 106.829047 
L 164.487594 105.217815 
L 160.361816 102.59927 
L 158.879287 101.676503 
L 154.790219 99.196465 
L 151.395501 97.105811 
L 148.739403 95.445972 
L 148.304517 95.124 
L 146.156037 93.615488 
L 146.088358 93.56648 
L 143.051944 91.456881 
L 140.048731 89.344848 
L 138.611764 88.579479 
L 137.279412 87.680823 
L 135.90623 86.588846 
L 134.445921 85.517419 
L 133.686698 84.99373 
L 133.032786 84.535484 
L 130.015608 82.573714 
L 128.290719 81.428481 
L 128.116825 81.374526 
L 126.87364 80.521049 
L 126.812046 80.485665 
L 126.113082 80.08429 
L 125.938615 79.984141 
L 124.320923 79.055163 
L 123.932346 78.832141 
L 121.746616 77.538299 
L 120.994058 77.095624 
L 120.106837 76.705593 
L 118.330488 75.528819 
L 117.704622 75.164144 
L 116.767127 74.736221 
L 115.672394 73.980178 
L 114.421716 73.299025 
L 113.787939 72.953865 
L 111.774287 72.070114 
L 109.342644 71.236455 
L 108.926716 71.186427 
L 108.869528 71.455357 
L 107.107958 71.136098 
L 106.84318 71.162402 
L 104.338377 70.407745 
L 103.722367 70.236796 
L 102.303882 69.823201 
L 100.583507 69.312119 
L 100.214541 70.450881 
L 99.186914 70.156532 
L 98.966242 70.463209 
L 98.838004 70.625996 
L 98.438529 70.619392 
L 97.165334 70.331046 
L 96.996254 70.292754 
L 96.113727 70.092894 
L 95.989722 70.000137 
L 95.264078 69.457243 
L 94.322317 68.889037 
L 94.151511 68.839202 
L 88.874356 67.30643 
L 88.132512 67.091918 
L 79.314836 64.547452 
L 78.687139 64.366309 
L 78.655938 64.514096 
L 78.52132 65.144642 
L 78.446892 65.493411 
L 78.400427 65.710834 
L 78.399978 66.015303 
L 78.399332 66.517672 
L 78.22096 66.648618 
L 78.091446 66.745268 
L 77.997304 67.138895 
L 77.901434 67.53427 
L 77.560838 68.941607 
L 77.512417 68.921186 
L 76.841439 71.744545 
L 76.265275 74.178771 
L 76.237405 74.446229 
L 76.076287 75.179853 
L 75.678735 77.077182 
L 75.594229 77.479333 
L 75.009697 80.256821 
L 74.6154 80.254875 
L 74.604024 80.252607 
L 74.229014 81.78607 
L 73.98431 82.784458 
L 73.832727 83.467851 
L 74.935945 83.73346 
L 75.057756 83.762818 
L 76.342511 84.072038 
L 77.083156 84.250433 
L 77.309733 84.305291 
L 77.636482 84.383806 
L 77.641745 84.385063 
L 77.757142 84.412618 
L 78.05231 84.48359 
L 78.490342 84.588951 
L 78.559236 84.605914 
L 78.566743 84.607721 
L 88.174863 86.921729 
L 91.249852 87.662102 
L 96.81379 93.715346 
L 128.192275 127.862047 
L 132.399524 132.441387 
" clip-path="url(#pe33701fd91)" style="fill: #1f77b4"/>
   </g>
   <g id="matplotlib.axis_1">
    <g id="xtick_1">
     <g id="line2d_1">
      <defs>
       <path id="meb2dce30a8" d="M 0 0 
L 0 3.5 
" style="stroke: #000000; stroke-width: 0.8"/>
      </defs>
      <g>
       <use xlink:href="#meb2dce30a8" x="117.985664" y="295.70586" style="stroke: #000000; stroke-width: 0.8"/>
      </g>
     </g>
     <g id="text_1">
      <!-- 13.48 -->
      <g transform="translate(103.671602 310.304297) scale(0.1 -0.1)">
       <defs>
        <path id="DejaVuSans-31" d="M 794 531 
L 1825 531 
L 1825 4091 
L 703 3866 
L 703 4441 
L 1819 4666 
L 2450 4666 
L 2450 531 
L 3481 531 
L 3481 0 
L 794 0 
L 794 531 
z
" transform="scale(0.015625)"/>
        <path id="DejaVuSans-33" d="M 2597 2516 
Q 3050 2419 3304 2112 
Q 3559 1806 3559 1356 
Q 3559 666 3084 287 
Q 2609 -91 1734 -91 
Q 1441 -91 1130 -33 
Q 819 25 488 141 
L 488 750 
Q 750 597 1062 519 
Q 1375 441 1716 441 
Q 2309 441 2620 675 
Q 2931 909 2931 1356 
Q 2931 1769 2642 2001 
Q 2353 2234 1838 2234 
L 1294 2234 
L 1294 2753 
L 1863 2753 
Q 2328 2753 2575 2939 
Q 2822 3125 2822 3475 
Q 2822 3834 2567 4026 
Q 2313 4219 1838 4219 
Q 1578 4219 1281 4162 
Q 984 4106 628 3988 
L 628 4550 
Q 988 4650 1302 4700 
Q 1616 4750 1894 4750 
Q 2613 4750 3031 4423 
Q 3450 4097 3450 3541 
Q 3450 3153 3228 2886 
Q 3006 2619 2597 2516 
z
" transform="scale(0.015625)"/>
        <path id="DejaVuSans-2e" d="M 684 794 
L 1344 794 
L 1344 0 
L 684 0 
L 684 794 
z
" transform="scale(0.015625)"/>
        <path id="DejaVuSans-34" d="M 2419 4116 
L 825 1625 
L 2419 1625 
L 2419 4116 
z
M 2253 4666 
L 3047 4666 
L 3047 1625 
L 3713 1625 
L 3713 1100 
L 3047 1100 
L 3047 0 
L 2419 0 
L 2419 1100 
L 313 1100 
L 313 1709 
L 2253 4666 
z
" transform="scale(0.015625)"/>
        <path id="DejaVuSans-38" d="M 2034 2216 
Q 1584 2216 1326 1975 
Q 1069 1734 1069 1313 
Q 1069 891 1326 650 
Q 1584 409 2034 409 
Q 2484 409 2743 651 
Q 3003 894 3003 1313 
Q 3003 1734 2745 1975 
Q 2488 2216 2034 2216 
z
M 1403 2484 
Q 997 2584 770 2862 
Q 544 3141 544 3541 
Q 544 4100 942 4425 
Q 1341 4750 2034 4750 
Q 2731 4750 3128 4425 
Q 3525 4100 3525 3541 
Q 3525 3141 3298 2862 
Q 3072 2584 2669 2484 
Q 3125 2378 3379 2068 
Q 3634 1759 3634 1313 
Q 3634 634 3220 271 
Q 2806 -91 2034 -91 
Q 1263 -91 848 271 
Q 434 634 434 1313 
Q 434 1759 690 2068 
Q 947 2378 1403 2484 
z
M 1172 3481 
Q 1172 3119 1398 2916 
Q 1625 2713 2034 2713 
Q 2441 2713 2670 2916 
Q 2900 3119 2900 3481 
Q 2900 3844 2670 4047 
Q 2441 4250 2034 4250 
Q 1625 4250 1398 4047 
Q 1172 3844 1172 3481 
z
" transform="scale(0.015625)"/>
       </defs>
       <use xlink:href="#DejaVuSans-31"/>
       <use xlink:href="#DejaVuSans-33" x="63.623047"/>
       <use xlink:href="#DejaVuSans-2e" x="127.246094"/>
       <use xlink:href="#DejaVuSans-34" x="159.033203"/>
       <use xlink:href="#DejaVuSans-38" x="222.65625"/>
      </g>
     </g>
    </g>
    <g id="xtick_2">
     <g id="line2d_2">
      <g>
       <use xlink:href="#meb2dce30a8" x="195.261861" y="295.70586" style="stroke: #000000; stroke-width: 0.8"/>
      </g>
     </g>
     <g id="text_2">
      <!-- 13.50 -->
      <g transform="translate(180.947798 310.304297) scale(0.1 -0.1)">
       <defs>
        <path id="DejaVuSans-35" d="M 691 4666 
L 3169 4666 
L 3169 4134 
L 1269 4134 
L 1269 2991 
Q 1406 3038 1543 3061 
Q 1681 3084 1819 3084 
Q 2600 3084 3056 2656 
Q 3513 2228 3513 1497 
Q 3513 744 3044 326 
Q 2575 -91 1722 -91 
Q 1428 -91 1123 -41 
Q 819 9 494 109 
L 494 744 
Q 775 591 1075 516 
Q 1375 441 1709 441 
Q 2250 441 2565 725 
Q 2881 1009 2881 1497 
Q 2881 1984 2565 2268 
Q 2250 2553 1709 2553 
Q 1456 2553 1204 2497 
Q 953 2441 691 2322 
L 691 4666 
z
" transform="scale(0.015625)"/>
        <path id="DejaVuSans-30" d="M 2034 4250 
Q 1547 4250 1301 3770 
Q 1056 3291 1056 2328 
Q 1056 1369 1301 889 
Q 1547 409 2034 409 
Q 2525 409 2770 889 
Q 3016 1369 3016 2328 
Q 3016 3291 2770 3770 
Q 2525 4250 2034 4250 
z
M 2034 4750 
Q 2819 4750 3233 4129 
Q 3647 3509 3647 2328 
Q 3647 1150 3233 529 
Q 2819 -91 2034 -91 
Q 1250 -91 836 529 
Q 422 1150 422 2328 
Q 422 3509 836 4129 
Q 1250 4750 2034 4750 
z
" transform="scale(0.015625)"/>
       </defs>
       <use xlink:href="#DejaVuSans-31"/>
       <use xlink:href="#DejaVuSans-33" x="63.623047"/>
       <use xlink:href="#DejaVuSans-2e" x="127.246094"/>
       <use xlink:href="#DejaVuSans-35" x="159.033203"/>
       <use xlink:href="#DejaVuSans-30" x="222.65625"/>
      </g>
     </g>
    </g>
    <g id="xtick_3">
     <g id="line2d_3">
      <g>
       <use xlink:href="#meb2dce30a8" x="272.538057" y="295.70586" style="stroke: #000000; stroke-width: 0.8"/>
      </g>
     </g>
     <g id="text_3">
      <!-- 13.52 -->
      <g transform="translate(258.223995 310.304297) scale(0.1 -0.1)">
       <defs>
        <path id="DejaVuSans-32" d="M 1228 531 
L 3431 531 
L 3431 0 
L 469 0 
L 469 531 
Q 828 903 1448 1529 
Q 2069 2156 2228 2338 
Q 2531 2678 2651 2914 
Q 2772 3150 2772 3378 
Q 2772 3750 2511 3984 
Q 2250 4219 1831 4219 
Q 1534 4219 1204 4116 
Q 875 4013 500 3803 
L 500 4441 
Q 881 4594 1212 4672 
Q 1544 4750 1819 4750 
Q 2544 4750 2975 4387 
Q 3406 4025 3406 3419 
Q 3406 3131 3298 2873 
Q 3191 2616 2906 2266 
Q 2828 2175 2409 1742 
Q 1991 1309 1228 531 
z
" transform="scale(0.015625)"/>
       </defs>
       <use xlink:href="#DejaVuSans-31"/>
       <use xlink:href="#DejaVuSans-33" x="63.623047"/>
       <use xlink:href="#DejaVuSans-2e" x="127.246094"/>
       <use xlink:href="#DejaVuSans-35" x="159.033203"/>
       <use xlink:href="#DejaVuSans-32" x="222.65625"/>
      </g>
     </g>
    </g>
    <g id="xtick_4">
     <g id="line2d_4">
      <g>
       <use xlink:href="#meb2dce30a8" x="349.814254" y="295.70586" style="stroke: #000000; stroke-width: 0.8"/>
      </g>
     </g>
     <g id="text_4">
      <!-- 13.54 -->
      <g transform="translate(335.500191 310.304297) scale(0.1 -0.1)">
       <use xlink:href="#DejaVuSans-31"/>
       <use xlink:href="#DejaVuSans-33" x="63.623047"/>
       <use xlink:href="#DejaVuSans-2e" x="127.246094"/>
       <use xlink:href="#DejaVuSans-35" x="159.033203"/>
       <use xlink:href="#DejaVuSans-34" x="222.65625"/>
      </g>
     </g>
    </g>
   </g>
   <g id="matplotlib.axis_2">
    <g id="ytick_1">
     <g id="line2d_5">
      <defs>
       <path id="m96773d763f" d="M 0 0 
L -3.5 0 
" style="stroke: #000000; stroke-width: 0.8"/>
      </defs>
      <g>
       <use xlink:href="#m96773d763f" x="57.6" y="271.604372" style="stroke: #000000; stroke-width: 0.8"/>
      </g>
     </g>
     <g id="text_5">
      <!-- 52.470 -->
      <g transform="translate(15.609375 275.403591) scale(0.1 -0.1)">
       <defs>
        <path id="DejaVuSans-37" d="M 525 4666 
L 3525 4666 
L 3525 4397 
L 1831 0 
L 1172 0 
L 2766 4134 
L 525 4134 
L 525 4666 
z
" transform="scale(0.015625)"/>
       </defs>
       <use xlink:href="#DejaVuSans-35"/>
       <use xlink:href="#DejaVuSans-32" x="63.623047"/>
       <use xlink:href="#DejaVuSans-2e" x="127.246094"/>
       <use xlink:href="#DejaVuSans-34" x="159.033203"/>
       <use xlink:href="#DejaVuSans-37" x="222.65625"/>
       <use xlink:href="#DejaVuSans-30" x="286.279297"/>
      </g>
     </g>
    </g>
    <g id="ytick_2">
     <g id="line2d_6">
      <g>
       <use xlink:href="#m96773d763f" x="57.6" y="239.87997" style="stroke: #000000; stroke-width: 0.8"/>
      </g>
     </g>
     <g id="text_6">
      <!-- 52.475 -->
      <g transform="translate(15.609375 243.679189) scale(0.1 -0.1)">
       <use xlink:href="#DejaVuSans-35"/>
       <use xlink:href="#DejaVuSans-32" x="63.623047"/>
       <use xlink:href="#DejaVuSans-2e" x="127.246094"/>
       <use xlink:href="#DejaVuSans-34" x="159.033203"/>
       <use xlink:href="#DejaVuSans-37" x="222.65625"/>
       <use xlink:href="#DejaVuSans-35" x="286.279297"/>
      </g>
     </g>
    </g>
    <g id="ytick_3">
     <g id="line2d_7">
      <g>
       <use xlink:href="#m96773d763f" x="57.6" y="208.155568" style="stroke: #000000; stroke-width: 0.8"/>
      </g>
     </g>
     <g id="text_7">
      <!-- 52.480 -->
      <g transform="translate(15.609375 211.954787) scale(0.1 -0.1)">
       <use xlink:href="#DejaVuSans-35"/>
       <use xlink:href="#DejaVuSans-32" x="63.623047"/>
       <use xlink:href="#DejaVuSans-2e" x="127.246094"/>
       <use xlink:href="#DejaVuSans-34" x="159.033203"/>
       <use xlink:href="#DejaVuSans-38" x="222.65625"/>
       <use xlink:href="#DejaVuSans-30" x="286.279297"/>
      </g>
     </g>
    </g>
    <g id="ytick_4">
     <g id="line2d_8">
      <g>
       <use xlink:href="#m96773d763f" x="57.6" y="176.431166" style="stroke: #000000; stroke-width: 0.8"/>
      </g>
     </g>
     <g id="text_8">
      <!-- 52.485 -->
      <g transform="translate(15.609375 180.230385) scale(0.1 -0.1)">
       <use xlink:href="#DejaVuSans-35"/>
       <use xlink:href="#DejaVuSans-32" x="63.623047"/>
       <use xlink:href="#DejaVuSans-2e" x="127.246094"/>
       <use xlink:href="#DejaVuSans-34" x="159.033203"/>
       <use xlink:href="#DejaVuSans-38" x="222.65625"/>
       <use xlink:href="#DejaVuSans-35" x="286.279297"/>
      </g>
     </g>
    </g>
    <g id="ytick_5">
     <g id="line2d_9">
      <g>
       <use xlink:href="#m96773d763f" x="57.6" y="144.706764" style="stroke: #000000; stroke-width: 0.8"/>
      </g>
     </g>
     <g id="text_9">
      <!-- 52.490 -->
      <g transform="translate(15.609375 148.505982) scale(0.1 -0.1)">
       <defs>
        <path id="DejaVuSans-39" d="M 703 97 
L 703 672 
Q 941 559 1184 500 
Q 1428 441 1663 441 
Q 2288 441 2617 861 
Q 2947 1281 2994 2138 
Q 2813 1869 2534 1725 
Q 2256 1581 1919 1581 
Q 1219 1581 811 2004 
Q 403 2428 403 3163 
Q 403 3881 828 4315 
Q 1253 4750 1959 4750 
Q 2769 4750 3195 4129 
Q 3622 3509 3622 2328 
Q 3622 1225 3098 567 
Q 2575 -91 1691 -91 
Q 1453 -91 1209 -44 
Q 966 3 703 97 
z
M 1959 2075 
Q 2384 2075 2632 2365 
Q 2881 2656 2881 3163 
Q 2881 3666 2632 3958 
Q 2384 4250 1959 4250 
Q 1534 4250 1286 3958 
Q 1038 3666 1038 3163 
Q 1038 2656 1286 2365 
Q 1534 2075 1959 2075 
z
" transform="scale(0.015625)"/>
       </defs>
       <use xlink:href="#DejaVuSans-35"/>
       <use xlink:href="#DejaVuSans-32" x="63.623047"/>
       <use xlink:href="#DejaVuSans-2e" x="127.246094"/>
       <use xlink:href="#DejaVuSans-34" x="159.033203"/>
       <use xlink:href="#DejaVuSans-39" x="222.65625"/>
       <use xlink:href="#DejaVuSans-30" x="286.279297"/>
      </g>
     </g>
    </g>
    <g id="ytick_6">
     <g id="line2d_10">
      <g>
       <use xlink:href="#m96773d763f" x="57.6" y="112.982361" style="stroke: #000000; stroke-width: 0.8"/>
      </g>
     </g>
     <g id="text_10">
      <!-- 52.495 -->
      <g transform="translate(15.609375 116.78158) scale(0.1 -0.1)">
       <use xlink:href="#DejaVuSans-35"/>
       <use xlink:href="#DejaVuSans-32" x="63.623047"/>
       <use xlink:href="#DejaVuSans-2e" x="127.246094"/>
       <use xlink:href="#DejaVuSans-34" x="159.033203"/>
       <use xlink:href="#DejaVuSans-39" x="222.65625"/>
       <use xlink:href="#DejaVuSans-35" x="286.279297"/>
      </g>
     </g>
    </g>
    <g id="ytick_7">
     <g id="line2d_11">
      <g>
       <use xlink:href="#m96773d763f" x="57.6" y="81.257959" style="stroke: #000000; stroke-width: 0.8"/>
      </g>
     </g>
     <g id="text_11">
      <!-- 52.500 -->
      <g transform="translate(15.609375 85.057178) scale(0.1 -0.1)">
       <use xlink:href="#DejaVuSans-35"/>
       <use xlink:href="#DejaVuSans-32" x="63.623047"/>
       <use xlink:href="#DejaVuSans-2e" x="127.246094"/>
       <use xlink:href="#DejaVuSans-35" x="159.033203"/>
       <use xlink:href="#DejaVuSans-30" x="222.65625"/>
       <use xlink:href="#DejaVuSans-30" x="286.279297"/>
      </g>
     </g>
    </g>
   </g>
   <g id="patch_3">
    <path d="M 57.6 295.70586 
L 57.6 53.35014 
" style="fill: none; stroke: #000000; stroke-width: 0.8; stroke-linejoin: miter; stroke-linecap: square"/>
   </g>
   <g id="patch_4">
    <path d="M 414.72 295.70586 
L 414.72 53.35014 
" style="fill: none; stroke: #000000; stroke-width: 0.8; stroke-linejoin: miter; stroke-linecap: square"/>
   </g>
   <g id="patch_5">
    <path d="M 57.6 295.70586 
L 414.72 295.70586 
" style="fill: none; stroke: #000000; stroke-width: 0.8; stroke-linejoin: miter; stroke-linecap: square"/>
   </g>
   <g id="patch_6">
    <path d="M 57.6 53.35014 
L 414.72 53.35014 
" style="fill: none; stroke: #000000; stroke-width: 0.8; stroke-linejoin: miter; stroke-linecap: square"/>
   </g>
   <g id="text_12">
    <!-- Lichtenberg_Süd -->
    <g transform="translate(221.052158 175.449362) scale(0.12 -0.12)">
     <defs>
      <path id="DejaVuSans-4c" d="M 628 4666 
L 1259 4666 
L 1259 531 
L 3531 531 
L 3531 0 
L 628 0 
L 628 4666 
z
" transform="scale(0.015625)"/>
      <path id="DejaVuSans-69" d="M 603 3500 
L 1178 3500 
L 1178 0 
L 603 0 
L 603 3500 
z
M 603 4863 
L 1178 4863 
L 1178 4134 
L 603 4134 
L 603 4863 
z
" transform="scale(0.015625)"/>
      <path id="DejaVuSans-63" d="M 3122 3366 
L 3122 2828 
Q 2878 2963 2633 3030 
Q 2388 3097 2138 3097 
Q 1578 3097 1268 2742 
Q 959 2388 959 1747 
Q 959 1106 1268 751 
Q 1578 397 2138 397 
Q 2388 397 2633 464 
Q 2878 531 3122 666 
L 3122 134 
Q 2881 22 2623 -34 
Q 2366 -91 2075 -91 
Q 1284 -91 818 406 
Q 353 903 353 1747 
Q 353 2603 823 3093 
Q 1294 3584 2113 3584 
Q 2378 3584 2631 3529 
Q 2884 3475 3122 3366 
z
" transform="scale(0.015625)"/>
      <path id="DejaVuSans-68" d="M 3513 2113 
L 3513 0 
L 2938 0 
L 2938 2094 
Q 2938 2591 2744 2837 
Q 2550 3084 2163 3084 
Q 1697 3084 1428 2787 
Q 1159 2491 1159 1978 
L 1159 0 
L 581 0 
L 581 4863 
L 1159 4863 
L 1159 2956 
Q 1366 3272 1645 3428 
Q 1925 3584 2291 3584 
Q 2894 3584 3203 3211 
Q 3513 2838 3513 2113 
z
" transform="scale(0.015625)"/>
      <path id="DejaVuSans-74" d="M 1172 4494 
L 1172 3500 
L 2356 3500 
L 2356 3053 
L 1172 3053 
L 1172 1153 
Q 1172 725 1289 603 
Q 1406 481 1766 481 
L 2356 481 
L 2356 0 
L 1766 0 
Q 1100 0 847 248 
Q 594 497 594 1153 
L 594 3053 
L 172 3053 
L 172 3500 
L 594 3500 
L 594 4494 
L 1172 4494 
z
" transform="scale(0.015625)"/>
      <path id="DejaVuSans-65" d="M 3597 1894 
L 3597 1613 
L 953 1613 
Q 991 1019 1311 708 
Q 1631 397 2203 397 
Q 2534 397 2845 478 
Q 3156 559 3463 722 
L 3463 178 
Q 3153 47 2828 -22 
Q 2503 -91 2169 -91 
Q 1331 -91 842 396 
Q 353 884 353 1716 
Q 353 2575 817 3079 
Q 1281 3584 2069 3584 
Q 2775 3584 3186 3129 
Q 3597 2675 3597 1894 
z
M 3022 2063 
Q 3016 2534 2758 2815 
Q 2500 3097 2075 3097 
Q 1594 3097 1305 2825 
Q 1016 2553 972 2059 
L 3022 2063 
z
" transform="scale(0.015625)"/>
      <path id="DejaVuSans-6e" d="M 3513 2113 
L 3513 0 
L 2938 0 
L 2938 2094 
Q 2938 2591 2744 2837 
Q 2550 3084 2163 3084 
Q 1697 3084 1428 2787 
Q 1159 2491 1159 1978 
L 1159 0 
L 581 0 
L 581 3500 
L 1159 3500 
L 1159 2956 
Q 1366 3272 1645 3428 
Q 1925 3584 2291 3584 
Q 2894 3584 3203 3211 
Q 3513 2838 3513 2113 
z
" transform="scale(0.015625)"/>
      <path id="DejaVuSans-62" d="M 3116 1747 
Q 3116 2381 2855 2742 
Q 2594 3103 2138 3103 
Q 1681 3103 1420 2742 
Q 1159 2381 1159 1747 
Q 1159 1113 1420 752 
Q 1681 391 2138 391 
Q 2594 391 2855 752 
Q 3116 1113 3116 1747 
z
M 1159 2969 
Q 1341 3281 1617 3432 
Q 1894 3584 2278 3584 
Q 2916 3584 3314 3078 
Q 3713 2572 3713 1747 
Q 3713 922 3314 415 
Q 2916 -91 2278 -91 
Q 1894 -91 1617 61 
Q 1341 213 1159 525 
L 1159 0 
L 581 0 
L 581 4863 
L 1159 4863 
L 1159 2969 
z
" transform="scale(0.015625)"/>
      <path id="DejaVuSans-72" d="M 2631 2963 
Q 2534 3019 2420 3045 
Q 2306 3072 2169 3072 
Q 1681 3072 1420 2755 
Q 1159 2438 1159 1844 
L 1159 0 
L 581 0 
L 581 3500 
L 1159 3500 
L 1159 2956 
Q 1341 3275 1631 3429 
Q 1922 3584 2338 3584 
Q 2397 3584 2469 3576 
Q 2541 3569 2628 3553 
L 2631 2963 
z
" transform="scale(0.015625)"/>
      <path id="DejaVuSans-67" d="M 2906 1791 
Q 2906 2416 2648 2759 
Q 2391 3103 1925 3103 
Q 1463 3103 1205 2759 
Q 947 2416 947 1791 
Q 947 1169 1205 825 
Q 1463 481 1925 481 
Q 2391 481 2648 825 
Q 2906 1169 2906 1791 
z
M 3481 434 
Q 3481 -459 3084 -895 
Q 2688 -1331 1869 -1331 
Q 1566 -1331 1297 -1286 
Q 1028 -1241 775 -1147 
L 775 -588 
Q 1028 -725 1275 -790 
Q 1522 -856 1778 -856 
Q 2344 -856 2625 -561 
Q 2906 -266 2906 331 
L 2906 616 
Q 2728 306 2450 153 
Q 2172 0 1784 0 
Q 1141 0 747 490 
Q 353 981 353 1791 
Q 353 2603 747 3093 
Q 1141 3584 1784 3584 
Q 2172 3584 2450 3431 
Q 2728 3278 2906 2969 
L 2906 3500 
L 3481 3500 
L 3481 434 
z
" transform="scale(0.015625)"/>
      <path id="DejaVuSans-5f" d="M 3263 -1063 
L 3263 -1509 
L -63 -1509 
L -63 -1063 
L 3263 -1063 
z
" transform="scale(0.015625)"/>
      <path id="DejaVuSans-53" d="M 3425 4513 
L 3425 3897 
Q 3066 4069 2747 4153 
Q 2428 4238 2131 4238 
Q 1616 4238 1336 4038 
Q 1056 3838 1056 3469 
Q 1056 3159 1242 3001 
Q 1428 2844 1947 2747 
L 2328 2669 
Q 3034 2534 3370 2195 
Q 3706 1856 3706 1288 
Q 3706 609 3251 259 
Q 2797 -91 1919 -91 
Q 1588 -91 1214 -16 
Q 841 59 441 206 
L 441 856 
Q 825 641 1194 531 
Q 1563 422 1919 422 
Q 2459 422 2753 634 
Q 3047 847 3047 1241 
Q 3047 1584 2836 1778 
Q 2625 1972 2144 2069 
L 1759 2144 
Q 1053 2284 737 2584 
Q 422 2884 422 3419 
Q 422 4038 858 4394 
Q 1294 4750 2059 4750 
Q 2388 4750 2728 4690 
Q 3069 4631 3425 4513 
z
" transform="scale(0.015625)"/>
      <path id="DejaVuSans-fc" d="M 544 1381 
L 544 3500 
L 1119 3500 
L 1119 1403 
Q 1119 906 1312 657 
Q 1506 409 1894 409 
Q 2359 409 2629 706 
Q 2900 1003 2900 1516 
L 2900 3500 
L 3475 3500 
L 3475 0 
L 2900 0 
L 2900 538 
Q 2691 219 2414 64 
Q 2138 -91 1772 -91 
Q 1169 -91 856 284 
Q 544 659 544 1381 
z
M 1991 3584 
L 1991 3584 
z
M 2278 4850 
L 2912 4850 
L 2912 4219 
L 2278 4219 
L 2278 4850 
z
M 1056 4850 
L 1690 4850 
L 1690 4219 
L 1056 4219 
L 1056 4850 
z
" transform="scale(0.015625)"/>
      <path id="DejaVuSans-64" d="M 2906 2969 
L 2906 4863 
L 3481 4863 
L 3481 0 
L 2906 0 
L 2906 525 
Q 2725 213 2448 61 
Q 2172 -91 1784 -91 
Q 1150 -91 751 415 
Q 353 922 353 1747 
Q 353 2572 751 3078 
Q 1150 3584 1784 3584 
Q 2172 3584 2448 3432 
Q 2725 3281 2906 2969 
z
M 947 1747 
Q 947 1113 1208 752 
Q 1469 391 1925 391 
Q 2381 391 2643 752 
Q 2906 1113 2906 1747 
Q 2906 2381 2643 2742 
Q 2381 3103 1925 3103 
Q 1469 3103 1208 2742 
Q 947 2381 947 1747 
z
" transform="scale(0.015625)"/>
     </defs>
     <use xlink:href="#DejaVuSans-4c"/>
     <use xlink:href="#DejaVuSans-69" x="55.712891"/>
     <use xlink:href="#DejaVuSans-63" x="83.496094"/>
     <use xlink:href="#DejaVuSans-68" x="138.476562"/>
     <use xlink:href="#DejaVuSans-74" x="201.855469"/>
     <use xlink:href="#DejaVuSans-65" x="241.064453"/>
     <use xlink:href="#DejaVuSans-6e" x="302.587891"/>
     <use xlink:href="#DejaVuSans-62" x="365.966797"/>
     <use xlink:href="#DejaVuSans-65" x="429.443359"/>
     <use xlink:href="#DejaVuSans-72" x="490.966797"/>
     <use xlink:href="#DejaVuSans-67" x="530.330078"/>
     <use xlink:href="#DejaVuSans-5f" x="593.806641"/>
     <use xlink:href="#DejaVuSans-53" x="643.806641"/>
     <use xlink:href="#DejaVuSans-fc" x="707.283203"/>
     <use xlink:href="#DejaVuSans-64" x="770.662109"/>
    </g>
   </g>
  </g>
 </g>
 <defs>
  <clipPath id="pe33701fd91">
   <rect x="57.6" y="53.35014" width="357.12" height="242.35572"/>
  </clipPath>
 </defs>
</svg>
