<?xml version="1.0" encoding="utf-8" standalone="no"?>
<!DOCTYPE svg PUBLIC "-//W3C//DTD SVG 1.1//EN"
  "http://www.w3.org/Graphics/SVG/1.1/DTD/svg11.dtd">
<svg xmlns:xlink="http://www.w3.org/1999/xlink" width="720pt" height="720pt" viewBox="0 0 720 720" xmlns="http://www.w3.org/2000/svg" version="1.1">
 <metadata>
  <rdf:RDF xmlns:dc="http://purl.org/dc/elements/1.1/" xmlns:cc="http://creativecommons.org/ns#" xmlns:rdf="http://www.w3.org/1999/02/22-rdf-syntax-ns#">
   <cc:Work>
    <dc:type rdf:resource="http://purl.org/dc/dcmitype/StillImage"/>
    <dc:date>2024-10-22T09:54:08.641985</dc:date>
    <dc:format>image/svg+xml</dc:format>
    <dc:creator>
     <cc:Agent>
      <dc:title>Matplotlib v3.9.2, https://matplotlib.org/</dc:title>
     </cc:Agent>
    </dc:creator>
   </cc:Work>
  </rdf:RDF>
 </metadata>
 <defs>
  <style type="text/css">*{stroke-linejoin: round; stroke-linecap: butt}</style>
 </defs>
 <g id="figure_1">
  <g id="patch_1">
   <path d="M 0 720 
L 720 720 
L 720 0 
L 0 0 
z
" style="fill: #ffffff"/>
  </g>
  <g id="axes_1">
   <g id="patch_2">
    <path d="M 90 634.834129 
L 648 634.834129 
L 648 92.365871 
L 90 92.365871 
z
" style="fill: #ffffff"/>
   </g>
   <g id="PatchCollection_1">
    <path d="M 347.382703 203.998118 
L 347.416023 204.91715 
L 345.798059 205.126509 
L 343.838305 205.363692 
L 338.00112 205.938193 
L 319.606658 207.711606 
L 307.493397 208.787446 
L 296.866581 209.816014 
L 296.117807 209.903667 
L 294.846027 210.028451 
L 293.924806 210.109556 
L 283.590344 211.074464 
L 283.41735 210.968949 
L 283.252173 210.858291 
L 283.156262 209.847178 
L 282.295297 209.94789 
L 281.556503 210.020771 
L 276.905297 210.479768 
L 276.050296 211.003899 
L 272.547305 213.15174 
L 270.756496 213.787911 
L 271.070291 212.993111 
L 270.309423 211.580604 
L 269.903756 210.82747 
L 267.549848 206.457044 
L 267.167758 205.667022 
L 266.036768 202.759775 
L 264.360722 198.452293 
L 263.957428 197.621826 
L 263.635485 196.958908 
L 263.281401 196.230053 
L 260.343003 190.486023 
L 258.648886 187.35953 
L 258.117752 186.378863 
L 255.353868 181.275012 
L 253.573326 177.806296 
L 252.859447 176.478163 
L 252.586142 176.036359 
L 251.511867 174.180553 
L 250.875268 173.040088 
L 247.6365 167.437224 
L 243.470237 160.230566 
L 243.210378 159.78208 
L 242.197126 158.029665 
L 241.931235 157.570047 
L 240.60204 155.273495 
L 240.56202 155.204288 
L 240.521877 155.134848 
L 240.24408 154.654858 
L 239.889313 154.041843 
L 239.059825 152.607718 
L 238.15804 151.049242 
L 238.042989 150.849222 
L 237.254079 149.477538 
L 236.825062 148.731798 
L 236.670474 148.463154 
L 237.29158 148.526544 
L 237.253357 148.436081 
L 236.994404 147.823879 
L 233.852894 140.395207 
L 230.596638 132.68438 
L 228.766171 128.323501 
L 228.671377 128.09733 
L 227.530188 125.378731 
L 227.021486 124.161229 
L 226.238326 122.286861 
L 225.316108 120.079609 
L 225.020961 119.373588 
L 225.224445 119.129462 
L 225.191886 118.965861 
L 224.806234 117.023519 
L 223.003181 119.328395 
L 222.676917 119.745588 
L 222.368153 120.140124 
L 222.084732 120.50259 
L 221.902079 120.73608 
L 219.60073 123.678029 
L 219.431669 123.894161 
L 218.981727 124.469625 
L 216.925704 127.097935 
L 216.526892 127.607711 
L 215.806665 128.528536 
L 215.474074 128.953691 
L 213.786738 131.100614 
L 213.376368 131.622847 
L 213.082094 131.997285 
L 211.861353 133.550728 
L 211.615338 133.863685 
L 210.474069 135.315751 
L 210.225178 135.632444 
L 210.013489 135.90188 
L 209.077472 137.092947 
L 208.871084 137.355751 
L 208.397029 137.958882 
L 207.630438 138.934401 
L 207.166862 139.524034 
L 205.560668 141.567787 
L 205.210894 142.012991 
L 204.509156 142.906055 
L 205.674332 143.688852 
L 206.192474 144.094959 
L 206.195477 144.097147 
L 206.269058 143.355313 
L 206.492995 143.390613 
L 206.995341 143.469892 
L 207.216314 143.5049 
L 205.418258 147.746513 
L 204.336072 150.299023 
L 204.239084 150.527732 
L 200.954079 158.277013 
L 200.676343 158.928483 
L 199.800486 160.929558 
L 199.487894 161.643885 
L 198.703424 163.436404 
L 197.483746 166.223241 
L 197.256667 166.742176 
L 197.081474 167.142298 
L 200.982614 169.945734 
L 201.428008 170.207228 
L 205.260881 171.71653 
L 206.130419 172.185805 
L 207.216977 172.911603 
L 208.029934 173.602091 
L 208.133035 173.7067 
L 208.229757 173.817252 
L 208.319853 173.93328 
L 208.402962 174.054435 
L 208.478837 174.180249 
L 209.516693 176.342579 
L 210.594803 178.814386 
L 213.350767 185.558046 
L 215.185515 190.247374 
L 215.435702 190.886662 
L 215.571412 191.258118 
L 215.695737 191.633609 
L 215.808664 192.012662 
L 215.910069 192.394923 
L 215.99971 192.780161 
L 215.598547 193.070575 
L 214.105481 194.151152 
L 214.099829 194.280834 
L 211.560497 196.17266 
L 209.175454 197.949788 
L 205.200838 200.911167 
L 205.136557 200.824462 
L 204.859349 201.036855 
L 205.082929 201.335434 
L 204.799484 201.549265 
L 204.49311 201.780534 
L 204.043414 201.342745 
L 203.960128 201.26889 
L 203.868323 201.206005 
L 203.769437 201.155005 
L 203.665024 201.116687 
L 203.556635 201.091613 
L 203.445937 201.080337 
L 203.33482 201.082821 
L 203.224706 201.099153 
L 203.1176 201.129052 
L 203.015031 201.172131 
L 202.918518 201.227528 
L 202.219216 201.7577 
L 202.139591 201.700363 
L 202.054249 201.652276 
L 201.96403 201.614012 
L 201.870123 201.585903 
L 201.77372 201.568397 
L 201.691024 201.449842 
L 200.104172 202.561612 
L 199.449569 203.007622 
L 198.788616 203.444166 
L 198.121671 203.871356 
L 197.448728 204.288954 
L 196.769906 204.696957 
L 196.085439 205.095244 
L 195.395327 205.483812 
L 194.699803 205.86254 
L 193.732871 206.38657 
L 185.632822 210.805223 
L 185.423788 210.919327 
L 182.165639 212.69681 
L 182.299459 213.368437 
L 182.162157 213.479945 
L 182.03346 213.601227 
L 181.913946 213.731679 
L 181.804308 213.870572 
L 181.70512 214.017067 
L 181.616961 214.170557 
L 181.540284 214.330084 
L 181.475425 214.494813 
L 181.438649 214.617572 
L 181.413886 214.743513 
L 181.401456 214.871088 
L 181.401459 214.999346 
L 181.413866 215.126984 
L 181.438652 215.252816 
L 181.475553 215.375546 
L 181.524195 215.494232 
L 174.934809 219.14494 
L 173.060075 220.183627 
L 172.82408 220.703947 
L 171.931591 223.271678 
L 171.387059 224.357581 
L 170.407792 226.310441 
L 167.74223 231.62616 
L 166.458419 234.186252 
L 164.887483 237.319209 
L 163.57931 239.928191 
L 161.544858 243.985458 
L 158.820241 249.419361 
L 158.519727 250.018709 
L 156.591079 253.865344 
L 156.28887 254.468167 
L 155.92733 255.189255 
L 154.573628 257.888965 
L 153.942101 259.148416 
L 151.282821 263.372584 
L 150.998978 263.476446 
L 150.081156 263.812448 
L 141.789223 266.847278 
L 130.298099 271.053492 
L 128.366617 271.751256 
L 126.517754 272.419179 
L 121.81805 274.124053 
L 121.182404 274.3546 
L 116.450545 276.069572 
L 115.778104 277.130324 
L 115.363636 277.784177 
L 115.603001 278.167849 
L 115.662625 278.263298 
L 118.508705 282.810921 
L 118.985518 283.54429 
L 120.722044 286.196578 
L 121.757612 287.774529 
L 122.56538 289.011944 
L 124.998071 292.738336 
L 128.175922 297.718793 
L 129.038236 299.020126 
L 131.269178 302.383161 
L 132.628516 304.009081 
L 133.266116 304.770667 
L 133.78043 305.35116 
L 135.631574 307.43988 
L 135.662953 307.475244 
L 135.985227 307.838895 
L 136.425263 308.335396 
L 136.472379 308.382395 
L 136.678243 308.587919 
L 137.19217 309.10062 
L 137.527545 309.435424 
L 138.795694 310.700939 
L 143.208611 314.098879 
L 147.970861 317.056955 
L 149.12901 317.650246 
L 149.574795 317.878738 
L 152.877678 319.570663 
L 155.827235 321.112265 
L 157.853699 322.171362 
L 162.782255 324.7551 
L 167.979988 327.366205 
L 169.725424 327.743941 
L 175.114006 328.910443 
L 176.616518 329.235656 
L 183.262673 330.592824 
L 185.392766 331.027815 
L 189.796178 332.040852 
L 194.18065 333.198588 
L 198.529053 334.74747 
L 202.780148 336.409171 
L 206.713301 338.481802 
L 206.801235 338.52814 
L 210.872699 340.79969 
L 214.736719 343.248864 
L 218.391336 345.911618 
L 220.962357 347.99597 
L 222.032045 348.863094 
L 222.937634 349.714149 
L 225.372946 352.002564 
L 228.480483 355.380057 
L 231.298078 359.020597 
L 234.045522 362.76731 
L 236.486184 366.656987 
L 237.834524 369.446006 
L 240.535009 373.683189 
L 242.987967 377.593969 
L 243.225185 377.954743 
L 244.306212 377.806271 
L 244.961895 380.012336 
L 245.608381 379.923229 
L 246.573929 379.798785 
L 249.291734 384.178598 
L 251.858174 388.373752 
L 250.808653 388.327969 
L 252.675166 391.985229 
L 253.532041 393.665352 
L 256.244885 398.768622 
L 259.747242 398.395905 
L 260.01992 399.172239 
L 264.155444 410.280994 
L 266.190499 415.73354 
L 266.25828 415.915008 
L 268.270931 421.265619 
L 269.35908 424.158371 
L 270.989586 428.262597 
L 271.769493 430.379767 
L 272.26659 431.676005 
L 272.301607 431.767012 
L 273.936753 436.031885 
L 274.273026 436.916409 
L 274.597506 437.819201 
L 276.316214 443.191235 
L 277.329491 446.872205 
L 277.850458 448.764663 
L 278.600668 450.388878 
L 278.795916 450.634032 
L 279.936442 452.066256 
L 284.662422 454.528712 
L 286.949142 455.624715 
L 288.231439 456.239245 
L 287.017368 458.818108 
L 286.120223 460.727644 
L 283.059375 459.233966 
L 278.642989 457.078623 
L 274.180491 454.902005 
L 273.305232 454.47495 
L 272.427161 458.366415 
L 272.004523 460.234514 
L 271.057424 464.434218 
L 270.211023 468.183482 
L 270.205189 468.209565 
L 270.106475 469.213895 
L 269.872561 471.594944 
L 269.702484 473.325052 
L 270.464 478.119199 
L 271.260449 478.257619 
L 271.57293 480.466479 
L 272.351973 485.970775 
L 272.429757 486.52116 
L 272.919348 490.61304 
L 273.371735 490.680987 
L 273.632615 490.720271 
L 273.741199 491.431097 
L 273.334012 491.505625 
L 274.136927 497.168496 
L 274.32127 498.468513 
L 274.576123 500.265608 
L 275.207717 504.720175 
L 276.33817 512.693062 
L 276.350106 512.777209 
L 275.50627 513.996098 
L 274.557843 514.637197 
L 272.834723 515.199512 
L 269.554279 523.416695 
L 263.285211 534.13768 
L 261.712208 536.834329 
L 257.853305 543.518104 
L 257.55506 543.578006 
L 257.365567 543.616043 
L 258.393353 544.057147 
L 257.833772 545.053232 
L 257.663576 545.356267 
L 256.615504 544.861068 
L 256.740921 545.86539 
L 250.681716 556.477639 
L 251.156541 556.939349 
L 253.425681 559.146175 
L 253.123124 559.320678 
L 249.799078 561.365792 
L 248.757497 562.006658 
L 248.450925 562.808791 
L 248.295456 563.747948 
L 248.576617 564.851145 
L 248.872145 565.161728 
L 249.343087 564.800746 
L 249.676863 565.053145 
L 251.628187 563.690646 
L 252.834438 562.955848 
L 255.284696 561.645368 
L 260.470137 559.44739 
L 263.111849 558.560927 
L 265.27308 557.981356 
L 265.469456 558.590157 
L 268.212823 557.71484 
L 269.09369 557.478072 
L 270.292987 557.236577 
L 272.13937 556.971663 
L 272.141192 557.445658 
L 273.457338 557.376066 
L 274.752354 557.307753 
L 276.901282 557.361599 
L 279.640153 557.58611 
L 280.862499 557.77148 
L 282.326492 557.993583 
L 284.366886 558.439388 
L 286.107773 558.8344 
L 286.109152 558.83484 
L 287.54922 559.294188 
L 292.553719 561.105492 
L 293.893257 561.665719 
L 296.705609 563.347013 
L 297.942482 564.112238 
L 299.215777 564.901114 
L 300.455732 565.678369 
L 301.790444 566.57809 
L 303.053729 567.419817 
L 305.248972 568.882327 
L 307.763046 570.590955 
L 311.194169 572.926389 
L 313.305069 574.573258 
L 315.080025 576.302732 
L 316.933132 578.287672 
L 318.45102 580.1474 
L 320.106315 582.439506 
L 321.291097 584.387822 
L 322.611515 586.593827 
L 323.624538 588.755582 
L 324.526081 590.921823 
L 325.208681 592.876705 
L 325.814763 594.739082 
L 326.789381 598.216477 
L 328.337033 604.168844 
L 329.476675 604.63166 
L 330.590924 605.083989 
L 330.687435 605.059314 
L 330.793725 605.584577 
L 330.915895 606.188317 
L 331.043398 606.706605 
L 331.0903 606.897649 
L 331.306928 607.777852 
L 331.362598 608.003798 
L 331.5844 608.905348 
L 331.636077 609.115613 
L 331.897143 610.176481 
L 333.149303 609.974542 
L 335.894879 608.754315 
L 337.890173 607.886314 
L 338.792609 607.389363 
L 341.317304 605.981782 
L 344.34988 604.276659 
L 344.630166 604.116423 
L 350.117342 600.728939 
L 356.356325 596.373362 
L 361.281487 592.50765 
L 366.428014 588.203243 
L 372.275727 583.158467 
L 373.283475 582.4435 
L 373.83337 581.989095 
L 376.01061 579.904881 
L 379.27945 576.982222 
L 382.632854 573.715232 
L 388.211563 568.809739 
L 390.303821 566.970011 
L 390.619814 567.279525 
L 395.76172 562.670009 
L 398.498532 560.250566 
L 399.4498 559.409618 
L 401.718161 557.855829 
L 409.17802 551.97516 
L 409.636578 551.559093 
L 415.104791 547.045515 
L 417.64147 545.044657 
L 418.35779 544.633979 
L 421.85049 541.916279 
L 423.107686 540.952598 
L 425.445001 539.310654 
L 426.872188 538.284534 
L 426.573034 537.931905 
L 426.831479 537.723967 
L 427.670373 536.975999 
L 427.94054 536.820994 
L 431.194471 533.83375 
L 432.288667 532.829035 
L 433.072892 533.693147 
L 433.144461 533.804144 
L 433.947207 535.048901 
L 434.367238 535.700212 
L 434.974629 535.084639 
L 435.468687 534.600758 
L 436.630147 533.596187 
L 437.984368 532.436931 
L 438.25097 532.741813 
L 438.584125 532.449415 
L 439.080723 532.013612 
L 438.788952 531.669189 
L 441.961336 528.832119 
L 442.882686 529.856845 
L 442.628168 530.082758 
L 442.735342 530.206526 
L 443.580291 531.183655 
L 443.85291 530.93579 
L 444.022031 531.12844 
L 444.312555 531.44705 
L 444.379143 531.403579 
L 445.45077 532.63036 
L 446.023233 532.107987 
L 444.932702 530.915738 
L 445.501291 530.41739 
L 445.068215 529.904864 
L 445.557574 528.630087 
L 445.814081 527.975976 
L 447.410028 523.905031 
L 447.955308 522.510789 
L 447.875231 522.411229 
L 449.029525 521.349697 
L 448.550039 520.805183 
L 449.283294 520.250695 
L 448.798476 519.795984 
L 448.444635 520.111685 
L 447.700584 519.286542 
L 457.935368 510.123552 
L 458.33602 510.525812 
L 459.489861 509.537331 
L 459.447759 509.507745 
L 462.451526 506.697065 
L 462.553208 506.789657 
L 464.168189 505.345635 
L 464.704117 504.832103 
L 463.845391 504.66757 
L 462.915785 504.510798 
L 446.892661 502.055919 
L 453.584567 498.308594 
L 453.671525 497.788059 
L 453.673075 497.772771 
L 453.676823 497.735792 
L 453.742279 497.329739 
L 456.804697 495.356343 
L 457.669704 494.802633 
L 458.234211 494.445128 
L 460.161026 493.224872 
L 461.033756 492.684163 
L 463.989413 490.73591 
L 476.699547 482.476973 
L 481.875759 479.113832 
L 487.278306 476.117646 
L 498.212206 470.698607 
L 509.578966 466.052781 
L 515.39585 464.115334 
L 519.547919 462.781342 
L 523.079561 461.375135 
L 526.663899 459.697355 
L 527.54679 459.150967 
L 528.843386 458.350394 
L 530.619263 457.253742 
L 530.964868 457.62993 
L 531.361627 458.061956 
L 531.695626 458.425701 
L 533.156775 460.016898 
L 533.925253 460.853616 
L 536.30815 460.732415 
L 541.576914 459.438274 
L 545.444804 459.139377 
L 546.916046 459.069215 
L 550.563921 458.89534 
L 566.134856 457.735317 
L 567.675379 457.625014 
L 568.332208 457.569481 
L 573.50984 457.612248 
L 577.119487 457.659929 
L 578.81893 457.666809 
L 584.183315 457.898677 
L 587.827451 458.05465 
L 595.661962 458.164084 
L 603.495214 458.414236 
L 610.22867 458.632489 
L 615.910956 458.791845 
L 617.048869 460.039863 
L 617.924321 433.324383 
L 617.962194 432.171065 
L 618.137895 426.805412 
L 618.147372 426.517527 
L 618.342113 420.574324 
L 618.357555 420.104125 
L 618.560201 414.108011 
L 618.568774 413.660356 
L 618.765606 407.651442 
L 618.775976 407.337816 
L 618.78617 407.183152 
L 619.175673 401.218638 
L 619.2044 400.779459 
L 619.275896 399.686022 
L 619.612296 395.87524 
L 619.755863 394.328812 
L 619.783877 394.028099 
L 619.847038 393.3477 
L 619.979958 391.916473 
L 620.082076 391.319907 
L 619.756389 391.321154 
L 619.879027 388.272222 
L 619.897117 387.821645 
L 620.391152 375.529952 
L 620.412227 375.005584 
L 620.733377 374.834212 
L 621.09682 366.750554 
L 621.177164 364.962426 
L 621.210947 364.209731 
L 621.581453 356.071995 
L 621.648839 356.112097 
L 622.233591 344.009864 
L 622.400111 340.510066 
L 622.489578 338.895882 
L 622.630678 336.066342 
L 622.624439 335.033299 
L 622.636364 333.535692 
L 622.60274 331.557167 
L 622.531413 329.140119 
L 622.451602 326.614784 
L 622.07299 320.228909 
L 621.761231 314.978314 
L 621.519468 310.918171 
L 621.477481 310.212671 
L 620.702996 307.929374 
L 620.076815 306.083312 
L 620.072014 297.904701 
L 620.062206 293.213675 
L 620.365592 292.911685 
L 619.792753 278.182659 
L 619.54037 272.2361 
L 619.507021 271.450291 
L 619.472382 270.63618 
L 619.460918 270.364965 
L 619.388991 268.670771 
L 618.225545 249.142121 
L 617.784646 241.22094 
L 617.976561 239.729944 
L 617.963737 239.334649 
L 617.837438 239.392367 
L 617.820304 238.930899 
L 617.787476 238.043731 
L 617.771728 237.621115 
L 617.760345 237.313508 
L 617.380889 237.124424 
L 617.358228 236.756951 
L 617.28794 235.617003 
L 617.240134 234.847377 
L 616.821681 228.075664 
L 616.461099 222.242167 
L 616.781217 221.536924 
L 616.742282 220.790586 
L 616.647346 219.68884 
L 616.381986 219.337384 
L 616.043617 216.743168 
L 615.858832 215.850829 
L 615.662741 214.960857 
L 615.455583 214.073365 
L 615.237246 213.188592 
L 615.007852 212.306773 
L 614.767281 211.427792 
L 614.642528 210.989638 
L 614.404159 210.177822 
L 614.156506 209.368924 
L 613.899331 208.56283 
L 613.632758 207.759892 
L 613.356789 206.960112 
L 613.071663 206.16372 
L 612.777143 205.370605 
L 612.47573 204.587469 
L 612.1654 203.807836 
L 611.846038 203.031827 
L 611.517647 202.259679 
L 611.180464 201.491386 
L 610.834253 200.726954 
L 610.479376 199.966731 
L 609.028944 196.773446 
L 609.017428 196.748198 
L 608.717464 196.088194 
L 608.366348 195.315567 
L 607.986497 194.479641 
L 604.35117 186.480105 
L 605.235823 186.296054 
L 604.071545 183.743627 
L 604.023149 183.678954 
L 603.966273 183.621805 
L 603.901885 183.573227 
L 603.831306 183.534141 
L 603.755972 183.505466 
L 603.677314 183.487645 
L 603.596992 183.481002 
L 602.992555 183.534464 
L 602.111145 181.811902 
L 599.219736 182.089572 
L 595.931599 182.450941 
L 592.605621 182.812279 
L 586.870956 183.494283 
L 586.743186 183.509601 
L 581.933677 184.101927 
L 581.004693 184.194587 
L 580.358574 184.26182 
L 578.954287 184.407948 
L 575.374294 184.827021 
L 569.164591 185.474793 
L 561.443431 186.374941 
L 556.373112 186.952007 
L 549.450907 187.749857 
L 547.293025 187.95773 
L 542.442387 188.519112 
L 535.531883 189.234504 
L 528.58266 190.113176 
L 527.104504 190.230819 
L 526.086624 190.370455 
L 525.060607 190.51121 
L 524.066876 190.629012 
L 523.525118 190.693112 
L 521.984673 190.875476 
L 521.750743 190.892774 
L 521.516218 190.909846 
L 520.195252 191.03942 
L 518.867557 191.16961 
L 516.935699 191.411552 
L 514.991136 191.610853 
L 513.485029 191.806397 
L 511.943047 191.93702 
L 511.989335 190.777121 
L 512.036291 189.598005 
L 511.321636 189.674002 
L 510.597777 189.751021 
L 510.297041 189.786186 
L 509.824754 189.841152 
L 506.666874 190.211469 
L 506.343002 190.248776 
L 505.513361 190.346134 
L 504.013581 190.521657 
L 504.023461 190.747857 
L 496.115194 191.519648 
L 487.772498 192.322985 
L 479.706928 192.858235 
L 476.130497 193.186695 
L 473.678394 193.427486 
L 469.348837 193.852664 
L 465.298574 194.223421 
L 465.328375 194.411511 
L 465.004381 194.44837 
L 464.035047 194.558619 
L 463.232087 194.649947 
L 462.974471 194.676889 
L 462.790375 194.696135 
L 460.948353 194.888622 
L 460.889431 194.853222 
L 460.744911 194.86465 
L 458.575796 195.035751 
L 457.792241 195.113488 
L 457.016338 195.189525 
L 455.525083 195.290199 
L 454.030912 195.392835 
L 453.751728 195.411933 
L 453.462247 195.436343 
L 449.076581 195.635218 
L 444.729905 195.832126 
L 443.557004 195.883529 
L 443.314959 195.894137 
L 441.956735 195.936832 
L 434.313168 196.293094 
L 433.576977 195.906986 
L 432.721488 195.442885 
L 431.972232 195.531913 
L 430.675489 195.528305 
L 430.132986 195.595708 
L 430.141204 196.229593 
L 428.71038 196.273006 
L 427.460982 196.31097 
L 426.819795 196.330417 
L 426.314412 196.607334 
L 425.104088 196.704348 
L 415.697327 197.458665 
L 413.115006 197.714563 
L 402.269136 198.788089 
L 402.250261 198.790381 
L 401.798706 198.829236 
L 400.35386 199.005845 
L 399.09649 199.159542 
L 385.267714 200.478788 
L 380.052505 200.763982 
L 374.29096 201.317207 
L 364.537725 202.253763 
L 364.150594 202.290938 
L 364.19095 202.354456 
L 364.298682 202.450223 
L 362.752217 202.555972 
L 362.694752 202.183312 
L 356.506636 202.780884 
L 356.009561 203.113875 
L 354.196254 203.298239 
L 349.761346 203.749173 
L 347.382703 203.998118 
" clip-path="url(#p395d99c765)" style="fill: #d3d3d3"/>
   </g>
   <g id="matplotlib.axis_1">
    <g id="xtick_1">
     <g id="line2d_1">
      <defs>
       <path id="mad9a3c86de" d="M 0 0 
L 0 3.5 
" style="stroke: #000000; stroke-width: 0.8"/>
      </defs>
      <g>
       <use xlink:href="#mad9a3c86de" x="145.872512" y="634.834129" style="stroke: #000000; stroke-width: 0.8"/>
      </g>
     </g>
     <g id="text_1">
      <!-- 13.46 -->
      <g transform="translate(131.55845 649.432566) scale(0.1 -0.1)">
       <defs>
        <path id="DejaVuSans-31" d="M 794 531 
L 1825 531 
L 1825 4091 
L 703 3866 
L 703 4441 
L 1819 4666 
L 2450 4666 
L 2450 531 
L 3481 531 
L 3481 0 
L 794 0 
L 794 531 
z
" transform="scale(0.015625)"/>
        <path id="DejaVuSans-33" d="M 2597 2516 
Q 3050 2419 3304 2112 
Q 3559 1806 3559 1356 
Q 3559 666 3084 287 
Q 2609 -91 1734 -91 
Q 1441 -91 1130 -33 
Q 819 25 488 141 
L 488 750 
Q 750 597 1062 519 
Q 1375 441 1716 441 
Q 2309 441 2620 675 
Q 2931 909 2931 1356 
Q 2931 1769 2642 2001 
Q 2353 2234 1838 2234 
L 1294 2234 
L 1294 2753 
L 1863 2753 
Q 2328 2753 2575 2939 
Q 2822 3125 2822 3475 
Q 2822 3834 2567 4026 
Q 2313 4219 1838 4219 
Q 1578 4219 1281 4162 
Q 984 4106 628 3988 
L 628 4550 
Q 988 4650 1302 4700 
Q 1616 4750 1894 4750 
Q 2613 4750 3031 4423 
Q 3450 4097 3450 3541 
Q 3450 3153 3228 2886 
Q 3006 2619 2597 2516 
z
" transform="scale(0.015625)"/>
        <path id="DejaVuSans-2e" d="M 684 794 
L 1344 794 
L 1344 0 
L 684 0 
L 684 794 
z
" transform="scale(0.015625)"/>
        <path id="DejaVuSans-34" d="M 2419 4116 
L 825 1625 
L 2419 1625 
L 2419 4116 
z
M 2253 4666 
L 3047 4666 
L 3047 1625 
L 3713 1625 
L 3713 1100 
L 3047 1100 
L 3047 0 
L 2419 0 
L 2419 1100 
L 313 1100 
L 313 1709 
L 2253 4666 
z
" transform="scale(0.015625)"/>
        <path id="DejaVuSans-36" d="M 2113 2584 
Q 1688 2584 1439 2293 
Q 1191 2003 1191 1497 
Q 1191 994 1439 701 
Q 1688 409 2113 409 
Q 2538 409 2786 701 
Q 3034 994 3034 1497 
Q 3034 2003 2786 2293 
Q 2538 2584 2113 2584 
z
M 3366 4563 
L 3366 3988 
Q 3128 4100 2886 4159 
Q 2644 4219 2406 4219 
Q 1781 4219 1451 3797 
Q 1122 3375 1075 2522 
Q 1259 2794 1537 2939 
Q 1816 3084 2150 3084 
Q 2853 3084 3261 2657 
Q 3669 2231 3669 1497 
Q 3669 778 3244 343 
Q 2819 -91 2113 -91 
Q 1303 -91 875 529 
Q 447 1150 447 2328 
Q 447 3434 972 4092 
Q 1497 4750 2381 4750 
Q 2619 4750 2861 4703 
Q 3103 4656 3366 4563 
z
" transform="scale(0.015625)"/>
       </defs>
       <use xlink:href="#DejaVuSans-31"/>
       <use xlink:href="#DejaVuSans-33" x="63.623047"/>
       <use xlink:href="#DejaVuSans-2e" x="127.246094"/>
       <use xlink:href="#DejaVuSans-34" x="159.033203"/>
       <use xlink:href="#DejaVuSans-36" x="222.65625"/>
      </g>
     </g>
    </g>
    <g id="xtick_2">
     <g id="line2d_2">
      <g>
       <use xlink:href="#mad9a3c86de" x="226.08505" y="634.834129" style="stroke: #000000; stroke-width: 0.8"/>
      </g>
     </g>
     <g id="text_2">
      <!-- 13.47 -->
      <g transform="translate(211.770988 649.432566) scale(0.1 -0.1)">
       <defs>
        <path id="DejaVuSans-37" d="M 525 4666 
L 3525 4666 
L 3525 4397 
L 1831 0 
L 1172 0 
L 2766 4134 
L 525 4134 
L 525 4666 
z
" transform="scale(0.015625)"/>
       </defs>
       <use xlink:href="#DejaVuSans-31"/>
       <use xlink:href="#DejaVuSans-33" x="63.623047"/>
       <use xlink:href="#DejaVuSans-2e" x="127.246094"/>
       <use xlink:href="#DejaVuSans-34" x="159.033203"/>
       <use xlink:href="#DejaVuSans-37" x="222.65625"/>
      </g>
     </g>
    </g>
    <g id="xtick_3">
     <g id="line2d_3">
      <g>
       <use xlink:href="#mad9a3c86de" x="306.297589" y="634.834129" style="stroke: #000000; stroke-width: 0.8"/>
      </g>
     </g>
     <g id="text_3">
      <!-- 13.48 -->
      <g transform="translate(291.983526 649.432566) scale(0.1 -0.1)">
       <defs>
        <path id="DejaVuSans-38" d="M 2034 2216 
Q 1584 2216 1326 1975 
Q 1069 1734 1069 1313 
Q 1069 891 1326 650 
Q 1584 409 2034 409 
Q 2484 409 2743 651 
Q 3003 894 3003 1313 
Q 3003 1734 2745 1975 
Q 2488 2216 2034 2216 
z
M 1403 2484 
Q 997 2584 770 2862 
Q 544 3141 544 3541 
Q 544 4100 942 4425 
Q 1341 4750 2034 4750 
Q 2731 4750 3128 4425 
Q 3525 4100 3525 3541 
Q 3525 3141 3298 2862 
Q 3072 2584 2669 2484 
Q 3125 2378 3379 2068 
Q 3634 1759 3634 1313 
Q 3634 634 3220 271 
Q 2806 -91 2034 -91 
Q 1263 -91 848 271 
Q 434 634 434 1313 
Q 434 1759 690 2068 
Q 947 2378 1403 2484 
z
M 1172 3481 
Q 1172 3119 1398 2916 
Q 1625 2713 2034 2713 
Q 2441 2713 2670 2916 
Q 2900 3119 2900 3481 
Q 2900 3844 2670 4047 
Q 2441 4250 2034 4250 
Q 1625 4250 1398 4047 
Q 1172 3844 1172 3481 
z
" transform="scale(0.015625)"/>
       </defs>
       <use xlink:href="#DejaVuSans-31"/>
       <use xlink:href="#DejaVuSans-33" x="63.623047"/>
       <use xlink:href="#DejaVuSans-2e" x="127.246094"/>
       <use xlink:href="#DejaVuSans-34" x="159.033203"/>
       <use xlink:href="#DejaVuSans-38" x="222.65625"/>
      </g>
     </g>
    </g>
    <g id="xtick_4">
     <g id="line2d_4">
      <g>
       <use xlink:href="#mad9a3c86de" x="386.510127" y="634.834129" style="stroke: #000000; stroke-width: 0.8"/>
      </g>
     </g>
     <g id="text_4">
      <!-- 13.49 -->
      <g transform="translate(372.196065 649.432566) scale(0.1 -0.1)">
       <defs>
        <path id="DejaVuSans-39" d="M 703 97 
L 703 672 
Q 941 559 1184 500 
Q 1428 441 1663 441 
Q 2288 441 2617 861 
Q 2947 1281 2994 2138 
Q 2813 1869 2534 1725 
Q 2256 1581 1919 1581 
Q 1219 1581 811 2004 
Q 403 2428 403 3163 
Q 403 3881 828 4315 
Q 1253 4750 1959 4750 
Q 2769 4750 3195 4129 
Q 3622 3509 3622 2328 
Q 3622 1225 3098 567 
Q 2575 -91 1691 -91 
Q 1453 -91 1209 -44 
Q 966 3 703 97 
z
M 1959 2075 
Q 2384 2075 2632 2365 
Q 2881 2656 2881 3163 
Q 2881 3666 2632 3958 
Q 2384 4250 1959 4250 
Q 1534 4250 1286 3958 
Q 1038 3666 1038 3163 
Q 1038 2656 1286 2365 
Q 1534 2075 1959 2075 
z
" transform="scale(0.015625)"/>
       </defs>
       <use xlink:href="#DejaVuSans-31"/>
       <use xlink:href="#DejaVuSans-33" x="63.623047"/>
       <use xlink:href="#DejaVuSans-2e" x="127.246094"/>
       <use xlink:href="#DejaVuSans-34" x="159.033203"/>
       <use xlink:href="#DejaVuSans-39" x="222.65625"/>
      </g>
     </g>
    </g>
    <g id="xtick_5">
     <g id="line2d_5">
      <g>
       <use xlink:href="#mad9a3c86de" x="466.722666" y="634.834129" style="stroke: #000000; stroke-width: 0.8"/>
      </g>
     </g>
     <g id="text_5">
      <!-- 13.50 -->
      <g transform="translate(452.408603 649.432566) scale(0.1 -0.1)">
       <defs>
        <path id="DejaVuSans-35" d="M 691 4666 
L 3169 4666 
L 3169 4134 
L 1269 4134 
L 1269 2991 
Q 1406 3038 1543 3061 
Q 1681 3084 1819 3084 
Q 2600 3084 3056 2656 
Q 3513 2228 3513 1497 
Q 3513 744 3044 326 
Q 2575 -91 1722 -91 
Q 1428 -91 1123 -41 
Q 819 9 494 109 
L 494 744 
Q 775 591 1075 516 
Q 1375 441 1709 441 
Q 2250 441 2565 725 
Q 2881 1009 2881 1497 
Q 2881 1984 2565 2268 
Q 2250 2553 1709 2553 
Q 1456 2553 1204 2497 
Q 953 2441 691 2322 
L 691 4666 
z
" transform="scale(0.015625)"/>
        <path id="DejaVuSans-30" d="M 2034 4250 
Q 1547 4250 1301 3770 
Q 1056 3291 1056 2328 
Q 1056 1369 1301 889 
Q 1547 409 2034 409 
Q 2525 409 2770 889 
Q 3016 1369 3016 2328 
Q 3016 3291 2770 3770 
Q 2525 4250 2034 4250 
z
M 2034 4750 
Q 2819 4750 3233 4129 
Q 3647 3509 3647 2328 
Q 3647 1150 3233 529 
Q 2819 -91 2034 -91 
Q 1250 -91 836 529 
Q 422 1150 422 2328 
Q 422 3509 836 4129 
Q 1250 4750 2034 4750 
z
" transform="scale(0.015625)"/>
       </defs>
       <use xlink:href="#DejaVuSans-31"/>
       <use xlink:href="#DejaVuSans-33" x="63.623047"/>
       <use xlink:href="#DejaVuSans-2e" x="127.246094"/>
       <use xlink:href="#DejaVuSans-35" x="159.033203"/>
       <use xlink:href="#DejaVuSans-30" x="222.65625"/>
      </g>
     </g>
    </g>
    <g id="xtick_6">
     <g id="line2d_6">
      <g>
       <use xlink:href="#mad9a3c86de" x="546.935204" y="634.834129" style="stroke: #000000; stroke-width: 0.8"/>
      </g>
     </g>
     <g id="text_6">
      <!-- 13.51 -->
      <g transform="translate(532.621141 649.432566) scale(0.1 -0.1)">
       <use xlink:href="#DejaVuSans-31"/>
       <use xlink:href="#DejaVuSans-33" x="63.623047"/>
       <use xlink:href="#DejaVuSans-2e" x="127.246094"/>
       <use xlink:href="#DejaVuSans-35" x="159.033203"/>
       <use xlink:href="#DejaVuSans-31" x="222.65625"/>
      </g>
     </g>
    </g>
    <g id="xtick_7">
     <g id="line2d_7">
      <g>
       <use xlink:href="#mad9a3c86de" x="627.147742" y="634.834129" style="stroke: #000000; stroke-width: 0.8"/>
      </g>
     </g>
     <g id="text_7">
      <!-- 13.52 -->
      <g transform="translate(612.83368 649.432566) scale(0.1 -0.1)">
       <defs>
        <path id="DejaVuSans-32" d="M 1228 531 
L 3431 531 
L 3431 0 
L 469 0 
L 469 531 
Q 828 903 1448 1529 
Q 2069 2156 2228 2338 
Q 2531 2678 2651 2914 
Q 2772 3150 2772 3378 
Q 2772 3750 2511 3984 
Q 2250 4219 1831 4219 
Q 1534 4219 1204 4116 
Q 875 4013 500 3803 
L 500 4441 
Q 881 4594 1212 4672 
Q 1544 4750 1819 4750 
Q 2544 4750 2975 4387 
Q 3406 4025 3406 3419 
Q 3406 3131 3298 2873 
Q 3191 2616 2906 2266 
Q 2828 2175 2409 1742 
Q 1991 1309 1228 531 
z
" transform="scale(0.015625)"/>
       </defs>
       <use xlink:href="#DejaVuSans-31"/>
       <use xlink:href="#DejaVuSans-33" x="63.623047"/>
       <use xlink:href="#DejaVuSans-2e" x="127.246094"/>
       <use xlink:href="#DejaVuSans-35" x="159.033203"/>
       <use xlink:href="#DejaVuSans-32" x="222.65625"/>
      </g>
     </g>
    </g>
   </g>
   <g id="matplotlib.axis_2">
    <g id="ytick_1">
     <g id="line2d_8">
      <defs>
       <path id="mac0a27c420" d="M 0 0 
L -3.5 0 
" style="stroke: #000000; stroke-width: 0.8"/>
      </defs>
      <g>
       <use xlink:href="#mac0a27c420" x="90" y="584.509209" style="stroke: #000000; stroke-width: 0.8"/>
      </g>
     </g>
     <g id="text_8">
      <!-- 52.505 -->
      <g transform="translate(48.009375 588.308428) scale(0.1 -0.1)">
       <use xlink:href="#DejaVuSans-35"/>
       <use xlink:href="#DejaVuSans-32" x="63.623047"/>
       <use xlink:href="#DejaVuSans-2e" x="127.246094"/>
       <use xlink:href="#DejaVuSans-35" x="159.033203"/>
       <use xlink:href="#DejaVuSans-30" x="222.65625"/>
       <use xlink:href="#DejaVuSans-35" x="286.279297"/>
      </g>
     </g>
    </g>
    <g id="ytick_2">
     <g id="line2d_9">
      <g>
       <use xlink:href="#mac0a27c420" x="90" y="518.588781" style="stroke: #000000; stroke-width: 0.8"/>
      </g>
     </g>
     <g id="text_9">
      <!-- 52.510 -->
      <g transform="translate(48.009375 522.388) scale(0.1 -0.1)">
       <use xlink:href="#DejaVuSans-35"/>
       <use xlink:href="#DejaVuSans-32" x="63.623047"/>
       <use xlink:href="#DejaVuSans-2e" x="127.246094"/>
       <use xlink:href="#DejaVuSans-35" x="159.033203"/>
       <use xlink:href="#DejaVuSans-31" x="222.65625"/>
       <use xlink:href="#DejaVuSans-30" x="286.279297"/>
      </g>
     </g>
    </g>
    <g id="ytick_3">
     <g id="line2d_10">
      <g>
       <use xlink:href="#mac0a27c420" x="90" y="452.668353" style="stroke: #000000; stroke-width: 0.8"/>
      </g>
     </g>
     <g id="text_10">
      <!-- 52.515 -->
      <g transform="translate(48.009375 456.467572) scale(0.1 -0.1)">
       <use xlink:href="#DejaVuSans-35"/>
       <use xlink:href="#DejaVuSans-32" x="63.623047"/>
       <use xlink:href="#DejaVuSans-2e" x="127.246094"/>
       <use xlink:href="#DejaVuSans-35" x="159.033203"/>
       <use xlink:href="#DejaVuSans-31" x="222.65625"/>
       <use xlink:href="#DejaVuSans-35" x="286.279297"/>
      </g>
     </g>
    </g>
    <g id="ytick_4">
     <g id="line2d_11">
      <g>
       <use xlink:href="#mac0a27c420" x="90" y="386.747925" style="stroke: #000000; stroke-width: 0.8"/>
      </g>
     </g>
     <g id="text_11">
      <!-- 52.520 -->
      <g transform="translate(48.009375 390.547144) scale(0.1 -0.1)">
       <use xlink:href="#DejaVuSans-35"/>
       <use xlink:href="#DejaVuSans-32" x="63.623047"/>
       <use xlink:href="#DejaVuSans-2e" x="127.246094"/>
       <use xlink:href="#DejaVuSans-35" x="159.033203"/>
       <use xlink:href="#DejaVuSans-32" x="222.65625"/>
       <use xlink:href="#DejaVuSans-30" x="286.279297"/>
      </g>
     </g>
    </g>
    <g id="ytick_5">
     <g id="line2d_12">
      <g>
       <use xlink:href="#mac0a27c420" x="90" y="320.827497" style="stroke: #000000; stroke-width: 0.8"/>
      </g>
     </g>
     <g id="text_12">
      <!-- 52.525 -->
      <g transform="translate(48.009375 324.626716) scale(0.1 -0.1)">
       <use xlink:href="#DejaVuSans-35"/>
       <use xlink:href="#DejaVuSans-32" x="63.623047"/>
       <use xlink:href="#DejaVuSans-2e" x="127.246094"/>
       <use xlink:href="#DejaVuSans-35" x="159.033203"/>
       <use xlink:href="#DejaVuSans-32" x="222.65625"/>
       <use xlink:href="#DejaVuSans-35" x="286.279297"/>
      </g>
     </g>
    </g>
    <g id="ytick_6">
     <g id="line2d_13">
      <g>
       <use xlink:href="#mac0a27c420" x="90" y="254.907069" style="stroke: #000000; stroke-width: 0.8"/>
      </g>
     </g>
     <g id="text_13">
      <!-- 52.530 -->
      <g transform="translate(48.009375 258.706288) scale(0.1 -0.1)">
       <use xlink:href="#DejaVuSans-35"/>
       <use xlink:href="#DejaVuSans-32" x="63.623047"/>
       <use xlink:href="#DejaVuSans-2e" x="127.246094"/>
       <use xlink:href="#DejaVuSans-35" x="159.033203"/>
       <use xlink:href="#DejaVuSans-33" x="222.65625"/>
       <use xlink:href="#DejaVuSans-30" x="286.279297"/>
      </g>
     </g>
    </g>
    <g id="ytick_7">
     <g id="line2d_14">
      <g>
       <use xlink:href="#mac0a27c420" x="90" y="188.986641" style="stroke: #000000; stroke-width: 0.8"/>
      </g>
     </g>
     <g id="text_14">
      <!-- 52.535 -->
      <g transform="translate(48.009375 192.78586) scale(0.1 -0.1)">
       <use xlink:href="#DejaVuSans-35"/>
       <use xlink:href="#DejaVuSans-32" x="63.623047"/>
       <use xlink:href="#DejaVuSans-2e" x="127.246094"/>
       <use xlink:href="#DejaVuSans-35" x="159.033203"/>
       <use xlink:href="#DejaVuSans-33" x="222.65625"/>
       <use xlink:href="#DejaVuSans-35" x="286.279297"/>
      </g>
     </g>
    </g>
    <g id="ytick_8">
     <g id="line2d_15">
      <g>
       <use xlink:href="#mac0a27c420" x="90" y="123.066213" style="stroke: #000000; stroke-width: 0.8"/>
      </g>
     </g>
     <g id="text_15">
      <!-- 52.540 -->
      <g transform="translate(48.009375 126.865432) scale(0.1 -0.1)">
       <use xlink:href="#DejaVuSans-35"/>
       <use xlink:href="#DejaVuSans-32" x="63.623047"/>
       <use xlink:href="#DejaVuSans-2e" x="127.246094"/>
       <use xlink:href="#DejaVuSans-35" x="159.033203"/>
       <use xlink:href="#DejaVuSans-34" x="222.65625"/>
       <use xlink:href="#DejaVuSans-30" x="286.279297"/>
      </g>
     </g>
    </g>
   </g>
   <g id="LineCollection_1">
    <path d="M 210.647345 216.144539 
L 210.101098 214.605956 
L 209.595759 213.180757 
L 208.263429 209.454934 
L 206.594206 205.222842 
L 205.881918 204.226126 
L 205.821759 204.111424 
L 205.277116 203.379707 
L 205.183267 203.237319 
" clip-path="url(#p395d99c765)" style="fill: none; stroke: #ff0000; stroke-opacity: 0.7; stroke-width: 0.5"/>
    <path d="M 518.993968 417.580228 
L 519.087817 416.707441 
L 521.188583 408.663831 
" clip-path="url(#p395d99c765)" style="fill: none; stroke: #ff0000; stroke-opacity: 0.7; stroke-width: 0.5"/>
    <path d="M 342.921832 272.447177 
L 343.565938 272.464316 
L 345.617775 272.53551 
L 347.539667 272.60143 
L 349.031621 272.652848 
L 349.935616 272.68449 
" clip-path="url(#p395d99c765)" style="fill: none; stroke: #ff0000; stroke-opacity: 0.7; stroke-width: 0.5"/>
    <path d="M 521.291255 408.18393 
L 521.324945 406.247188 
L 521.444461 404.847038 
L 521.621731 403.797585 
L 522.901923 401.114623 
L 523.838806 398.92211 
L 524.458046 397.473179 
L 524.90082 396.435591 
L 525.041994 396.105989 
L 525.49359 395.051262 
" clip-path="url(#p395d99c765)" style="fill: none; stroke: #ff0000; stroke-opacity: 0.7; stroke-width: 0.5"/>
    <path d="M 527.375376 398.720393 
L 533.234902 401.220096 
L 533.810828 401.467957 
L 536.855696 402.7745 
" clip-path="url(#p395d99c765)" style="fill: none; stroke: #ff0000; stroke-opacity: 0.7; stroke-width: 0.5"/>
    <path d="M 525.49359 395.051262 
L 525.59145 394.821859 
L 526.721644 392.163947 
L 526.805065 391.459917 
L 527.434734 389.980663 
" clip-path="url(#p395d99c765)" style="fill: none; stroke: #ff0000; stroke-opacity: 0.7; stroke-width: 0.5"/>
    <path d="M 526.721644 392.163947 
L 530.340032 393.747356 
" clip-path="url(#p395d99c765)" style="fill: none; stroke: #ff0000; stroke-opacity: 0.7; stroke-width: 0.5"/>
    <path d="M 521.188583 408.663831 
L 521.291255 408.18393 
" clip-path="url(#p395d99c765)" style="fill: none; stroke: #ff0000; stroke-opacity: 0.7; stroke-width: 0.5"/>
    <path d="M 524.458046 397.473179 
L 527.375376 398.720393 
" clip-path="url(#p395d99c765)" style="fill: none; stroke: #ff0000; stroke-opacity: 0.7; stroke-width: 0.5"/>
    <path d="M 217.523966 235.174448 
L 217.154988 234.192234 
L 217.0082 233.791438 
L 216.875849 233.440741 
L 216.820502 233.295716 
L 215.279619 229.296983 
" clip-path="url(#p395d99c765)" style="fill: none; stroke: #ff0000; stroke-opacity: 0.7; stroke-width: 0.5"/>
    <path d="M 215.279619 229.296983 
L 213.680181 224.554667 
L 212.065503 219.764889 
L 211.763904 219.091182 
" clip-path="url(#p395d99c765)" style="fill: none; stroke: #ff0000; stroke-opacity: 0.7; stroke-width: 0.5"/>
    <path d="M 211.763904 219.091182 
L 210.647345 216.144539 
" clip-path="url(#p395d99c765)" style="fill: none; stroke: #ff0000; stroke-opacity: 0.7; stroke-width: 0.5"/>
    <path d="M 334.736944 233.28385 
L 334.749778 233.861313 
L 334.532402 239.451365 
L 334.610208 240.260868 
L 334.734538 241.001814 
L 334.967956 241.748033 
L 335.281587 242.398009 
L 337.587698 245.840373 
" clip-path="url(#p395d99c765)" style="fill: none; stroke: #ff0000; stroke-opacity: 0.7; stroke-width: 0.5"/>
    <path d="M 326.60981 271.885534 
L 328.919931 271.948818 
" clip-path="url(#p395d99c765)" style="fill: none; stroke: #ff0000; stroke-opacity: 0.7; stroke-width: 0.5"/>
    <path d="M 328.919931 271.948818 
L 331.119359 272.008146 
L 337.872452 272.225684 
L 341.593512 272.397077 
L 342.921832 272.447177 
" clip-path="url(#p395d99c765)" style="fill: none; stroke: #ff0000; stroke-opacity: 0.7; stroke-width: 0.5"/>
    <path d="M 337.587698 245.840373 
L 337.951863 246.383558 
L 338.29437 246.974205 
L 338.493297 247.705921 
" clip-path="url(#p395d99c765)" style="fill: none; stroke: #ff0000; stroke-opacity: 0.7; stroke-width: 0.5"/>
   </g>
   <g id="patch_3">
    <path d="M 90 634.834129 
L 90 92.365871 
" style="fill: none; stroke: #000000; stroke-width: 0.8; stroke-linejoin: miter; stroke-linecap: square"/>
   </g>
   <g id="patch_4">
    <path d="M 648 634.834129 
L 648 92.365871 
" style="fill: none; stroke: #000000; stroke-width: 0.8; stroke-linejoin: miter; stroke-linecap: square"/>
   </g>
   <g id="patch_5">
    <path d="M 90 634.834129 
L 648 634.834129 
" style="fill: none; stroke: #000000; stroke-width: 0.8; stroke-linejoin: miter; stroke-linecap: square"/>
   </g>
   <g id="patch_6">
    <path d="M 90 92.365871 
L 648 92.365871 
" style="fill: none; stroke: #000000; stroke-width: 0.8; stroke-linejoin: miter; stroke-linecap: square"/>
   </g>
   <g id="text_16">
    <!-- Lichtenberg_Nord -->
    <g transform="translate(345.072511 351.370157) scale(0.12 -0.12)">
     <defs>
      <path id="DejaVuSans-4c" d="M 628 4666 
L 1259 4666 
L 1259 531 
L 3531 531 
L 3531 0 
L 628 0 
L 628 4666 
z
" transform="scale(0.015625)"/>
      <path id="DejaVuSans-69" d="M 603 3500 
L 1178 3500 
L 1178 0 
L 603 0 
L 603 3500 
z
M 603 4863 
L 1178 4863 
L 1178 4134 
L 603 4134 
L 603 4863 
z
" transform="scale(0.015625)"/>
      <path id="DejaVuSans-63" d="M 3122 3366 
L 3122 2828 
Q 2878 2963 2633 3030 
Q 2388 3097 2138 3097 
Q 1578 3097 1268 2742 
Q 959 2388 959 1747 
Q 959 1106 1268 751 
Q 1578 397 2138 397 
Q 2388 397 2633 464 
Q 2878 531 3122 666 
L 3122 134 
Q 2881 22 2623 -34 
Q 2366 -91 2075 -91 
Q 1284 -91 818 406 
Q 353 903 353 1747 
Q 353 2603 823 3093 
Q 1294 3584 2113 3584 
Q 2378 3584 2631 3529 
Q 2884 3475 3122 3366 
z
" transform="scale(0.015625)"/>
      <path id="DejaVuSans-68" d="M 3513 2113 
L 3513 0 
L 2938 0 
L 2938 2094 
Q 2938 2591 2744 2837 
Q 2550 3084 2163 3084 
Q 1697 3084 1428 2787 
Q 1159 2491 1159 1978 
L 1159 0 
L 581 0 
L 581 4863 
L 1159 4863 
L 1159 2956 
Q 1366 3272 1645 3428 
Q 1925 3584 2291 3584 
Q 2894 3584 3203 3211 
Q 3513 2838 3513 2113 
z
" transform="scale(0.015625)"/>
      <path id="DejaVuSans-74" d="M 1172 4494 
L 1172 3500 
L 2356 3500 
L 2356 3053 
L 1172 3053 
L 1172 1153 
Q 1172 725 1289 603 
Q 1406 481 1766 481 
L 2356 481 
L 2356 0 
L 1766 0 
Q 1100 0 847 248 
Q 594 497 594 1153 
L 594 3053 
L 172 3053 
L 172 3500 
L 594 3500 
L 594 4494 
L 1172 4494 
z
" transform="scale(0.015625)"/>
      <path id="DejaVuSans-65" d="M 3597 1894 
L 3597 1613 
L 953 1613 
Q 991 1019 1311 708 
Q 1631 397 2203 397 
Q 2534 397 2845 478 
Q 3156 559 3463 722 
L 3463 178 
Q 3153 47 2828 -22 
Q 2503 -91 2169 -91 
Q 1331 -91 842 396 
Q 353 884 353 1716 
Q 353 2575 817 3079 
Q 1281 3584 2069 3584 
Q 2775 3584 3186 3129 
Q 3597 2675 3597 1894 
z
M 3022 2063 
Q 3016 2534 2758 2815 
Q 2500 3097 2075 3097 
Q 1594 3097 1305 2825 
Q 1016 2553 972 2059 
L 3022 2063 
z
" transform="scale(0.015625)"/>
      <path id="DejaVuSans-6e" d="M 3513 2113 
L 3513 0 
L 2938 0 
L 2938 2094 
Q 2938 2591 2744 2837 
Q 2550 3084 2163 3084 
Q 1697 3084 1428 2787 
Q 1159 2491 1159 1978 
L 1159 0 
L 581 0 
L 581 3500 
L 1159 3500 
L 1159 2956 
Q 1366 3272 1645 3428 
Q 1925 3584 2291 3584 
Q 2894 3584 3203 3211 
Q 3513 2838 3513 2113 
z
" transform="scale(0.015625)"/>
      <path id="DejaVuSans-62" d="M 3116 1747 
Q 3116 2381 2855 2742 
Q 2594 3103 2138 3103 
Q 1681 3103 1420 2742 
Q 1159 2381 1159 1747 
Q 1159 1113 1420 752 
Q 1681 391 2138 391 
Q 2594 391 2855 752 
Q 3116 1113 3116 1747 
z
M 1159 2969 
Q 1341 3281 1617 3432 
Q 1894 3584 2278 3584 
Q 2916 3584 3314 3078 
Q 3713 2572 3713 1747 
Q 3713 922 3314 415 
Q 2916 -91 2278 -91 
Q 1894 -91 1617 61 
Q 1341 213 1159 525 
L 1159 0 
L 581 0 
L 581 4863 
L 1159 4863 
L 1159 2969 
z
" transform="scale(0.015625)"/>
      <path id="DejaVuSans-72" d="M 2631 2963 
Q 2534 3019 2420 3045 
Q 2306 3072 2169 3072 
Q 1681 3072 1420 2755 
Q 1159 2438 1159 1844 
L 1159 0 
L 581 0 
L 581 3500 
L 1159 3500 
L 1159 2956 
Q 1341 3275 1631 3429 
Q 1922 3584 2338 3584 
Q 2397 3584 2469 3576 
Q 2541 3569 2628 3553 
L 2631 2963 
z
" transform="scale(0.015625)"/>
      <path id="DejaVuSans-67" d="M 2906 1791 
Q 2906 2416 2648 2759 
Q 2391 3103 1925 3103 
Q 1463 3103 1205 2759 
Q 947 2416 947 1791 
Q 947 1169 1205 825 
Q 1463 481 1925 481 
Q 2391 481 2648 825 
Q 2906 1169 2906 1791 
z
M 3481 434 
Q 3481 -459 3084 -895 
Q 2688 -1331 1869 -1331 
Q 1566 -1331 1297 -1286 
Q 1028 -1241 775 -1147 
L 775 -588 
Q 1028 -725 1275 -790 
Q 1522 -856 1778 -856 
Q 2344 -856 2625 -561 
Q 2906 -266 2906 331 
L 2906 616 
Q 2728 306 2450 153 
Q 2172 0 1784 0 
Q 1141 0 747 490 
Q 353 981 353 1791 
Q 353 2603 747 3093 
Q 1141 3584 1784 3584 
Q 2172 3584 2450 3431 
Q 2728 3278 2906 2969 
L 2906 3500 
L 3481 3500 
L 3481 434 
z
" transform="scale(0.015625)"/>
      <path id="DejaVuSans-5f" d="M 3263 -1063 
L 3263 -1509 
L -63 -1509 
L -63 -1063 
L 3263 -1063 
z
" transform="scale(0.015625)"/>
      <path id="DejaVuSans-4e" d="M 628 4666 
L 1478 4666 
L 3547 763 
L 3547 4666 
L 4159 4666 
L 4159 0 
L 3309 0 
L 1241 3903 
L 1241 0 
L 628 0 
L 628 4666 
z
" transform="scale(0.015625)"/>
      <path id="DejaVuSans-6f" d="M 1959 3097 
Q 1497 3097 1228 2736 
Q 959 2375 959 1747 
Q 959 1119 1226 758 
Q 1494 397 1959 397 
Q 2419 397 2687 759 
Q 2956 1122 2956 1747 
Q 2956 2369 2687 2733 
Q 2419 3097 1959 3097 
z
M 1959 3584 
Q 2709 3584 3137 3096 
Q 3566 2609 3566 1747 
Q 3566 888 3137 398 
Q 2709 -91 1959 -91 
Q 1206 -91 779 398 
Q 353 888 353 1747 
Q 353 2609 779 3096 
Q 1206 3584 1959 3584 
z
" transform="scale(0.015625)"/>
      <path id="DejaVuSans-64" d="M 2906 2969 
L 2906 4863 
L 3481 4863 
L 3481 0 
L 2906 0 
L 2906 525 
Q 2725 213 2448 61 
Q 2172 -91 1784 -91 
Q 1150 -91 751 415 
Q 353 922 353 1747 
Q 353 2572 751 3078 
Q 1150 3584 1784 3584 
Q 2172 3584 2448 3432 
Q 2725 3281 2906 2969 
z
M 947 1747 
Q 947 1113 1208 752 
Q 1469 391 1925 391 
Q 2381 391 2643 752 
Q 2906 1113 2906 1747 
Q 2906 2381 2643 2742 
Q 2381 3103 1925 3103 
Q 1469 3103 1208 2742 
Q 947 2381 947 1747 
z
" transform="scale(0.015625)"/>
     </defs>
     <use xlink:href="#DejaVuSans-4c"/>
     <use xlink:href="#DejaVuSans-69" x="55.712891"/>
     <use xlink:href="#DejaVuSans-63" x="83.496094"/>
     <use xlink:href="#DejaVuSans-68" x="138.476562"/>
     <use xlink:href="#DejaVuSans-74" x="201.855469"/>
     <use xlink:href="#DejaVuSans-65" x="241.064453"/>
     <use xlink:href="#DejaVuSans-6e" x="302.587891"/>
     <use xlink:href="#DejaVuSans-62" x="365.966797"/>
     <use xlink:href="#DejaVuSans-65" x="429.443359"/>
     <use xlink:href="#DejaVuSans-72" x="490.966797"/>
     <use xlink:href="#DejaVuSans-67" x="530.330078"/>
     <use xlink:href="#DejaVuSans-5f" x="593.806641"/>
     <use xlink:href="#DejaVuSans-4e" x="643.806641"/>
     <use xlink:href="#DejaVuSans-6f" x="718.611328"/>
     <use xlink:href="#DejaVuSans-72" x="779.792969"/>
     <use xlink:href="#DejaVuSans-64" x="819.15625"/>
    </g>
   </g>
  </g>
 </g>
 <defs>
  <clipPath id="p395d99c765">
   <rect x="90" y="92.365871" width="558" height="542.468257"/>
  </clipPath>
 </defs>
</svg>
