<?xml version="1.0" encoding="utf-8" standalone="no"?>
<!DOCTYPE svg PUBLIC "-//W3C//DTD SVG 1.1//EN"
  "http://www.w3.org/Graphics/SVG/1.1/DTD/svg11.dtd">
<svg xmlns:xlink="http://www.w3.org/1999/xlink" width="720pt" height="720pt" viewBox="0 0 720 720" xmlns="http://www.w3.org/2000/svg" version="1.1">
 <metadata>
  <rdf:RDF xmlns:dc="http://purl.org/dc/elements/1.1/" xmlns:cc="http://creativecommons.org/ns#" xmlns:rdf="http://www.w3.org/1999/02/22-rdf-syntax-ns#">
   <cc:Work>
    <dc:type rdf:resource="http://purl.org/dc/dcmitype/StillImage"/>
    <dc:date>2024-10-22T09:54:08.781035</dc:date>
    <dc:format>image/svg+xml</dc:format>
    <dc:creator>
     <cc:Agent>
      <dc:title>Matplotlib v3.9.2, https://matplotlib.org/</dc:title>
     </cc:Agent>
    </dc:creator>
   </cc:Work>
  </rdf:RDF>
 </metadata>
 <defs>
  <style type="text/css">*{stroke-linejoin: round; stroke-linecap: butt}</style>
 </defs>
 <g id="figure_1">
  <g id="patch_1">
   <path d="M 0 720 
L 720 720 
L 720 0 
L 0 0 
z
" style="fill: #ffffff"/>
  </g>
  <g id="axes_1">
   <g id="patch_2">
    <path d="M 90 515.130897 
L 648 515.130897 
L 648 212.069103 
L 90 212.069103 
z
" style="fill: #ffffff"/>
   </g>
   <g id="PatchCollection_1">
    <path d="M 464.378046 234.605739 
L 464.388531 233.878529 
L 464.397952 233.09424 
L 461.870452 233.061596 
L 460.553632 233.065751 
L 460.512669 234.030536 
L 460.507933 234.494943 
L 460.238805 234.476199 
L 459.086329 234.428317 
L 459.12309 233.974401 
L 459.196534 232.316235 
L 459.379427 228.20944 
L 459.412025 227.196687 
L 454.41459 227.056608 
L 448.492676 226.864755 
L 441.603517 226.644863 
L 434.713252 226.548666 
L 431.508321 226.411561 
L 426.790472 226.20774 
L 425.295852 226.201692 
L 422.121254 226.159779 
L 417.56765 226.122185 
L 416.989984 226.171001 
L 415.635132 226.267961 
L 401.940865 227.287664 
L 398.732646 227.440506 
L 397.438724 227.502181 
L 394.037007 227.764922 
L 389.403255 228.902519 
L 387.307553 229.00906 
L 386.631696 228.273554 
L 385.34665 226.874834 
L 385.052906 226.555088 
L 384.703966 226.175322 
L 384.400015 225.844639 
L 382.838173 226.808636 
L 381.697847 227.512369 
L 380.921366 227.992664 
L 377.769026 229.467494 
L 374.663031 230.703601 
L 371.011386 231.876229 
L 365.895575 233.579316 
L 355.89878 237.663166 
L 346.282676 242.4267 
L 341.531264 245.060457 
L 336.97891 248.01678 
L 325.80065 255.276687 
L 323.20122 256.989273 
L 322.433675 257.464576 
L 320.739087 258.537225 
L 320.242617 258.851486 
L 319.481863 259.338217 
L 316.78854 261.072904 
L 316.730973 261.42984 
L 316.727676 261.462345 
L 316.726313 261.475784 
L 316.649836 261.933354 
L 310.764465 265.227389 
L 324.85642 267.385317 
L 325.673986 267.523126 
L 326.429215 267.667756 
L 325.957879 268.119169 
L 324.537542 269.388518 
L 324.448115 269.307126 
L 321.806374 271.777816 
L 321.843402 271.803823 
L 320.828625 272.672734 
L 320.476261 272.319133 
L 311.475013 280.373736 
L 312.129388 281.099066 
L 312.440583 280.821554 
L 312.866969 281.221261 
L 312.222088 281.708677 
L 312.643786 282.187325 
L 311.628611 283.12045 
L 311.699037 283.207966 
L 311.219477 284.433556 
L 309.815879 288.012066 
L 309.590287 288.587054 
L 309.159908 289.707629 
L 309.540788 290.158158 
L 309.040727 290.596224 
L 309.999823 291.644255 
L 309.496356 292.10344 
L 308.553885 291.025054 
L 308.495322 291.063267 
L 308.239814 290.783197 
L 308.091076 290.613851 
L 307.851314 290.831732 
L 307.108202 289.972801 
L 307.013944 289.864004 
L 307.237787 289.665418 
L 306.427481 288.764647 
L 303.637445 291.258535 
L 303.894051 291.561295 
L 303.457305 291.944382 
L 303.164303 292.20141 
L 302.929833 291.933408 
L 301.738828 292.952437 
L 300.717352 293.835491 
L 300.282839 294.26084 
L 299.748653 294.801951 
L 299.379246 294.229425 
L 298.673251 293.135238 
L 298.610307 293.037668 
L 297.9206 292.278082 
L 296.95828 293.161263 
L 294.096526 295.78716 
L 293.858921 295.923415 
L 293.121133 296.580906 
L 292.893837 296.763691 
L 293.156936 297.073665 
L 291.901759 297.975662 
L 289.846146 299.418991 
L 288.740472 300.266102 
L 285.668726 302.655059 
L 285.038739 303.016059 
L 282.80779 304.774887 
L 277.998628 308.742487 
L 277.595337 309.108225 
L 271.034569 314.277548 
L 269.039599 315.643385 
L 268.202982 316.382609 
L 265.796021 318.509388 
L 261.273837 322.561321 
L 260.995929 322.289246 
L 259.155838 323.906435 
L 254.249496 328.218543 
L 251.300257 331.090346 
L 248.425391 333.65947 
L 246.51056 335.49157 
L 246.02694 335.891009 
L 245.14065 336.519491 
L 239.997726 340.954033 
L 235.471478 344.737764 
L 231.139915 348.135867 
L 225.652879 351.964577 
L 220.827039 354.9423 
L 220.580534 355.083153 
L 217.913455 356.582019 
L 215.693046 357.819333 
L 214.899375 358.256172 
L 213.144561 359.019176 
L 210.729893 360.0918 
L 209.628648 360.269312 
L 209.399047 359.33677 
L 209.353599 359.15194 
L 209.158529 358.359445 
L 209.109569 358.16083 
L 208.919049 357.387099 
L 208.8778 357.219165 
L 208.765664 356.76357 
L 208.658218 356.232861 
L 208.564739 355.771136 
L 208.479859 355.792826 
L 207.499905 355.395212 
L 206.497616 354.98838 
L 205.136494 349.756032 
L 204.27934 346.699274 
L 203.746305 345.062177 
L 203.145975 343.343765 
L 202.35309 341.43956 
L 201.46216 339.539298 
L 200.300884 337.600139 
L 199.258897 335.887498 
L 197.803104 333.872653 
L 196.468157 332.237884 
L 194.838394 330.493049 
L 193.277363 328.972778 
L 191.420877 327.52512 
L 188.403285 325.472189 
L 186.192218 323.970242 
L 184.261554 322.684643 
L 183.150525 321.944734 
L 181.976677 321.153846 
L 180.886167 320.47061 
L 179.766333 319.77716 
L 178.678534 319.1045 
L 176.205137 317.62658 
L 175.027045 317.134121 
L 170.625707 315.541918 
L 169.359202 315.138134 
L 169.357989 315.137747 
L 167.82692 314.790518 
L 166.032443 314.398639 
L 164.744896 314.203402 
L 163.669872 314.040455 
L 161.2611 313.843102 
L 159.371169 313.795769 
L 158.232233 313.855818 
L 157.074715 313.916993 
L 157.073112 313.500334 
L 155.449262 313.733203 
L 154.394509 313.945486 
L 153.619807 314.153613 
L 151.207081 314.923049 
L 151.034374 314.387891 
L 149.133623 314.897354 
L 146.8103 315.676588 
L 142.249828 317.608691 
L 140.094884 318.760651 
L 139.034015 319.406565 
L 137.317872 320.604252 
L 137.024324 320.382383 
L 136.610142 320.6997 
L 136.350233 320.426687 
L 135.818164 320.84195 
L 135.738795 321.592827 
L 135.700492 321.954899 
L 133.27758 324.159358 
L 132.513086 324.854851 
L 132.324617 325.065789 
L 129.622799 328.321303 
L 128.908476 329.182039 
L 127.275648 331.73321 
L 127.017064 332.280848 
L 126.255568 333.624199 
L 126.208969 333.706359 
L 126.160423 333.770118 
L 125.837245 334.325379 
L 125.099513 335.592787 
L 124.77341 336.152175 
L 124.979843 336.501654 
L 125.675316 337.682267 
L 125.401045 338.166156 
L 125.391731 338.182818 
L 124.524437 339.708369 
L 121.915065 344.234031 
L 119.534027 348.603976 
L 118.810583 350.368747 
L 118.029278 352.277397 
L 115.363636 364.799726 
L 116.509678 365.130594 
L 132.608894 369.77821 
L 133.963344 370.170028 
L 143.598317 372.969724 
L 143.910171 373.060751 
L 145.629628 374.098613 
L 146.954501 375.09024 
L 147.180909 375.259665 
L 148.792216 375.624721 
L 149.100921 375.694665 
L 151.425506 376.221345 
L 152.154863 376.233409 
L 152.389 375.936067 
L 152.791899 375.375904 
L 154.668129 375.913551 
L 155.341784 373.833536 
L 158.482825 374.767057 
L 161.07268 375.522511 
L 162.197384 375.83476 
L 166.770625 377.213185 
L 167.254054 377.165139 
L 170.47031 377.748283 
L 170.574723 377.257068 
L 171.33412 377.348446 
L 175.773786 378.871174 
L 179.45029 380.485395 
L 180.607433 381.11585 
L 182.890907 382.360016 
L 184.889659 383.740974 
L 186.601327 384.522599 
L 187.744026 385.188699 
L 190.987265 387.338146 
L 192.607142 388.05056 
L 193.981154 388.859132 
L 197.971836 391.222409 
L 198.681296 391.629771 
L 201.634861 393.326603 
L 201.953401 393.509532 
L 203.229561 394.242666 
L 203.342019 394.307297 
L 205.611812 395.866222 
L 205.929307 395.964774 
L 209.07859 398.056609 
L 214.587319 401.639895 
L 215.781226 402.476908 
L 217.167406 403.433457 
L 219.833623 405.39048 
L 222.340763 407.385041 
L 224.773358 409.026487 
L 227.396955 410.424478 
L 232.880188 414.282229 
L 238.42404 418.135535 
L 238.547608 418.225052 
L 242.470278 420.980436 
L 243.264289 421.568537 
L 248.113763 424.600328 
L 254.311802 428.419029 
L 261.777577 432.948963 
L 264.484363 434.63445 
L 272.017162 439.417376 
L 276.362089 442.360385 
L 276.738982 442.593613 
L 277.102923 442.818673 
L 281.221775 445.367684 
L 282.055777 445.85404 
L 288.410588 449.560673 
L 296.336306 454.130261 
L 298.981474 455.611945 
L 303.905189 458.422436 
L 306.402278 460.011553 
L 306.74211 460.227863 
L 309.304382 461.979331 
L 311.658901 463.940939 
L 312.160822 464.40904 
L 318.238224 470.077043 
L 319.508404 471.20582 
L 319.982259 471.62691 
L 320.881482 472.42613 
L 321.844867 472.305289 
L 323.433066 472.363677 
L 323.831669 473.034855 
L 325.358136 472.405986 
L 326.583368 472.043479 
L 327.371206 472.001121 
L 327.553946 473.463503 
L 327.620996 474.001441 
L 327.830492 475.68198 
L 329.22047 476.430459 
L 329.460171 476.559467 
L 330.792339 477.276436 
L 331.572087 477.696898 
L 332.692713 478.30001 
L 333.813484 478.905206 
L 335.044257 479.543646 
L 336.807372 480.458079 
L 336.950865 480.532825 
L 338.996654 481.594659 
L 341.091118 482.558584 
L 343.198046 483.527676 
L 345.232071 484.363563 
L 347.332601 485.240068 
L 349.349983 486.070795 
L 351.263377 486.857948 
L 353.162156 487.556634 
L 355.120155 488.28025 
L 356.852437 488.927705 
L 358.749438 489.63666 
L 358.866724 489.680489 
L 360.579311 490.320654 
L 363.680465 491.474562 
L 364.790418 491.886135 
L 365.894092 492.295653 
L 367.582654 492.850064 
L 369.224545 493.388777 
L 369.143319 493.672321 
L 369.01752 494.10715 
L 368.704518 495.188668 
L 368.231097 496.824834 
L 368.020526 497.552555 
L 368.753231 497.826296 
L 369.340415 498.052415 
L 370.371534 498.426249 
L 374.409314 499.890373 
L 375.041444 500.119527 
L 377.177042 500.893312 
L 378.179773 501.256601 
L 378.45218 501.355361 
L 378.90898 499.728094 
L 382.146598 500.237939 
L 382.38074 500.27487 
L 385.438662 500.667276 
L 387.314452 500.895376 
L 387.645637 500.937073 
L 389.035413 500.997275 
L 389.547727 501.019487 
L 390.940828 501.079729 
L 393.048945 501.171124 
L 395.000011 501.163683 
L 397.898932 501.152641 
L 403.047314 500.814393 
L 403.978952 500.925061 
L 403.86818 500.485235 
L 406.67943 500.040003 
L 407.782263 499.86528 
L 408.945148 499.649722 
L 411.803614 499.120079 
L 415.343894 498.259496 
L 417.516084 497.71124 
L 419.77504 497.157764 
L 420.142446 497.040455 
L 420.505985 496.906867 
L 421.195627 496.653491 
L 421.614861 496.499581 
L 424.277444 495.567989 
L 424.66639 495.411581 
L 426.66112 494.609968 
L 427.994308 494.074174 
L 430.595719 493.006126 
L 432.111329 492.406874 
L 432.483619 492.253838 
L 435.766357 490.935753 
L 439.44786 489.457445 
L 443.118132 487.983859 
L 443.171438 487.962458 
L 449.807328 485.298012 
L 451.640711 484.565049 
L 451.994854 484.423445 
L 454.498704 483.422341 
L 454.969326 483.21426 
L 455.909425 482.838657 
L 458.298858 481.887127 
L 458.438108 481.831642 
L 458.470474 481.818785 
L 458.749595 481.707593 
L 461.339204 480.676207 
L 462.080301 480.330237 
L 462.83175 480.002603 
L 464.853227 479.187045 
L 465.201682 479.046402 
L 467.016634 478.309497 
L 467.163638 478.241768 
L 467.425221 478.121355 
L 467.634448 478.037342 
L 471.810571 476.36144 
L 472.311199 476.176933 
L 473.496122 475.678171 
L 475.382521 474.892001 
L 475.766947 474.726452 
L 476.056475 474.610576 
L 477.421232 474.063636 
L 478.305037 473.702985 
L 478.604622 473.58086 
L 480.871952 472.655598 
L 481.001116 472.599492 
L 486.655687 470.310684 
L 486.975391 470.181274 
L 489.287893 469.247934 
L 490.405138 468.797072 
L 498.328734 465.577421 
L 505.896953 462.48646 
L 506.830556 462.298434 
L 507.130787 462.237998 
L 510.212232 461.145944 
L 510.505944 461.005098 
L 510.599493 460.960357 
L 510.709196 460.912785 
L 512.94038 459.94704 
L 514.159601 459.419225 
L 515.997913 458.623355 
L 519.669377 457.068314 
L 520.406557 456.756062 
L 522.192656 456.02849 
L 522.325612 455.974506 
L 526.685761 454.198704 
L 529.197669 453.175819 
L 530.983663 452.400975 
L 535.302298 450.527628 
L 536.125669 450.1705 
L 537.808985 449.440394 
L 538.529963 449.147984 
L 538.835153 449.024113 
L 542.214727 447.65275 
L 547.407449 445.545769 
L 548.250162 445.203793 
L 551.905507 443.720691 
L 553.180924 443.203183 
L 553.65918 443.009105 
L 557.62759 441.399002 
L 561.215371 439.94329 
L 562.781479 439.307975 
L 566.492156 437.802492 
L 567.978702 437.199447 
L 573.364492 435.014405 
L 577.229232 433.446682 
L 578.754453 432.827773 
L 580.821522 432.002897 
L 581.635558 431.679585 
L 584.337906 430.581728 
L 585.642072 430.074554 
L 591.026583 427.854821 
L 592.417559 427.29203 
L 594.873472 426.298432 
L 597.342773 425.293111 
L 599.889699 424.256114 
L 602.383531 423.239797 
L 607.626551 421.10324 
L 608.321915 420.819994 
L 610.248748 420.03476 
L 610.574062 419.902189 
L 612.963214 418.928787 
L 614.94971 418.127878 
L 615.058159 418.084209 
L 617.070209 417.282374 
L 618.921847 416.544544 
L 619.213123 416.599913 
L 622.636364 415.384594 
L 622.579115 415.374095 
L 621.857593 415.241786 
L 621.043444 415.092598 
L 620.41695 414.977746 
L 617.380025 414.421052 
L 617.112993 414.372383 
L 615.284387 414.03609 
L 610.245311 413.144584 
L 609.46394 413.002877 
L 608.163737 412.766972 
L 606.895135 412.536681 
L 606.81169 412.521598 
L 605.409002 408.787847 
L 603.25063 402.994103 
L 601.352273 397.907396 
L 601.072766 397.158877 
L 598.689558 390.694195 
L 596.662386 385.234275 
L 594.603826 379.786775 
L 593.174748 376.041923 
L 591.410733 371.292213 
L 588.433613 363.378464 
L 585.8497 356.461946 
L 585.371926 355.183447 
L 583.654916 350.483345 
L 581.840289 345.670927 
L 580.020221 340.853312 
L 578.204606 335.97497 
L 576.51098 331.327454 
L 582.2879 326.063622 
L 582.881718 324.587977 
L 583.060887 324.170146 
L 584.244974 321.407636 
L 583.771757 314.368945 
L 582.987969 304.094739 
L 584.233141 303.625547 
L 583.972177 292.696665 
L 583.95902 292.159267 
L 583.87669 288.618292 
L 583.683218 280.25091 
L 583.67351 279.832645 
L 597.767041 280.810862 
L 596.792253 280.645382 
L 595.199622 280.523914 
L 595.380871 277.820554 
L 595.247875 273.625615 
L 595.020602 267.069888 
L 594.40419 263.466087 
L 593.267169 259.050627 
L 591.501437 255.362843 
L 591.01443 254.814541 
L 590.572264 254.319409 
L 588.589853 251.13598 
L 585.836449 247.875487 
L 584.25612 246.363064 
L 580.208904 243.12504 
L 580.143377 243.082401 
L 578.223576 241.811137 
L 576.077434 240.642221 
L 573.276539 239.448081 
L 571.104897 238.684308 
L 567.951037 237.77288 
L 562.811374 237.620251 
L 560.467082 237.751354 
L 559.895835 237.783412 
L 555.486086 237.164289 
L 553.75774 236.930055 
L 552.223897 236.890048 
L 549.588648 236.823111 
L 547.971682 236.780331 
L 547.802353 236.77649 
L 543.895623 236.503881 
L 541.544088 236.396187 
L 541.204236 236.371728 
L 541.197802 236.371265 
L 540.3391 236.336897 
L 538.908669 236.218755 
L 534.514508 235.877497 
L 528.748626 235.7802 
L 521.642507 235.76726 
L 517.146594 235.96944 
L 512.781108 235.939546 
L 506.306515 235.852838 
L 504.466714 235.833827 
L 503.896357 235.827898 
L 502.721092 235.799035 
L 501.526815 235.490375 
L 501.129975 235.387741 
L 500.440737 235.093849 
L 498.964902 234.891098 
L 496.668478 234.575857 
L 495.398648 234.401404 
L 494.595831 234.390559 
L 493.303564 234.441224 
L 493.238354 234.445062 
L 490.197053 234.62506 
L 487.03173 234.922343 
L 483.561077 235.248225 
L 483.558437 235.248473 
L 483.284045 235.241703 
L 482.141276 235.190444 
L 480.444432 235.141495 
L 479.759687 235.118977 
L 479.370382 235.095292 
L 475.807724 234.980777 
L 472.165793 234.858641 
L 472.119769 236.192184 
L 470.238139 236.135916 
L 470.207744 236.535621 
L 469.234038 236.520826 
L 469.24758 236.039254 
L 469.283965 234.753319 
L 466.433823 234.682476 
L 464.378046 234.605739 
" clip-path="url(#pa5f65de2de)" style="fill: #d3d3d3"/>
   </g>
   <g id="matplotlib.axis_1">
    <g id="xtick_1">
     <g id="line2d_1">
      <defs>
       <path id="mca38cce17f" d="M 0 0 
L 0 3.5 
" style="stroke: #000000; stroke-width: 0.8"/>
      </defs>
      <g>
       <use xlink:href="#mca38cce17f" x="116.569436" y="515.130897" style="stroke: #000000; stroke-width: 0.8"/>
      </g>
     </g>
     <g id="text_1">
      <!-- 13.47 -->
      <g transform="translate(102.255373 529.729335) scale(0.1 -0.1)">
       <defs>
        <path id="DejaVuSans-31" d="M 794 531 
L 1825 531 
L 1825 4091 
L 703 3866 
L 703 4441 
L 1819 4666 
L 2450 4666 
L 2450 531 
L 3481 531 
L 3481 0 
L 794 0 
L 794 531 
z
" transform="scale(0.015625)"/>
        <path id="DejaVuSans-33" d="M 2597 2516 
Q 3050 2419 3304 2112 
Q 3559 1806 3559 1356 
Q 3559 666 3084 287 
Q 2609 -91 1734 -91 
Q 1441 -91 1130 -33 
Q 819 25 488 141 
L 488 750 
Q 750 597 1062 519 
Q 1375 441 1716 441 
Q 2309 441 2620 675 
Q 2931 909 2931 1356 
Q 2931 1769 2642 2001 
Q 2353 2234 1838 2234 
L 1294 2234 
L 1294 2753 
L 1863 2753 
Q 2328 2753 2575 2939 
Q 2822 3125 2822 3475 
Q 2822 3834 2567 4026 
Q 2313 4219 1838 4219 
Q 1578 4219 1281 4162 
Q 984 4106 628 3988 
L 628 4550 
Q 988 4650 1302 4700 
Q 1616 4750 1894 4750 
Q 2613 4750 3031 4423 
Q 3450 4097 3450 3541 
Q 3450 3153 3228 2886 
Q 3006 2619 2597 2516 
z
" transform="scale(0.015625)"/>
        <path id="DejaVuSans-2e" d="M 684 794 
L 1344 794 
L 1344 0 
L 684 0 
L 684 794 
z
" transform="scale(0.015625)"/>
        <path id="DejaVuSans-34" d="M 2419 4116 
L 825 1625 
L 2419 1625 
L 2419 4116 
z
M 2253 4666 
L 3047 4666 
L 3047 1625 
L 3713 1625 
L 3713 1100 
L 3047 1100 
L 3047 0 
L 2419 0 
L 2419 1100 
L 313 1100 
L 313 1709 
L 2253 4666 
z
" transform="scale(0.015625)"/>
        <path id="DejaVuSans-37" d="M 525 4666 
L 3525 4666 
L 3525 4397 
L 1831 0 
L 1172 0 
L 2766 4134 
L 525 4134 
L 525 4666 
z
" transform="scale(0.015625)"/>
       </defs>
       <use xlink:href="#DejaVuSans-31"/>
       <use xlink:href="#DejaVuSans-33" x="63.623047"/>
       <use xlink:href="#DejaVuSans-2e" x="127.246094"/>
       <use xlink:href="#DejaVuSans-34" x="159.033203"/>
       <use xlink:href="#DejaVuSans-37" x="222.65625"/>
      </g>
     </g>
    </g>
    <g id="xtick_2">
     <g id="line2d_2">
      <g>
       <use xlink:href="#mca38cce17f" x="187.114451" y="515.130897" style="stroke: #000000; stroke-width: 0.8"/>
      </g>
     </g>
     <g id="text_2">
      <!-- 13.48 -->
      <g transform="translate(172.800388 529.729335) scale(0.1 -0.1)">
       <defs>
        <path id="DejaVuSans-38" d="M 2034 2216 
Q 1584 2216 1326 1975 
Q 1069 1734 1069 1313 
Q 1069 891 1326 650 
Q 1584 409 2034 409 
Q 2484 409 2743 651 
Q 3003 894 3003 1313 
Q 3003 1734 2745 1975 
Q 2488 2216 2034 2216 
z
M 1403 2484 
Q 997 2584 770 2862 
Q 544 3141 544 3541 
Q 544 4100 942 4425 
Q 1341 4750 2034 4750 
Q 2731 4750 3128 4425 
Q 3525 4100 3525 3541 
Q 3525 3141 3298 2862 
Q 3072 2584 2669 2484 
Q 3125 2378 3379 2068 
Q 3634 1759 3634 1313 
Q 3634 634 3220 271 
Q 2806 -91 2034 -91 
Q 1263 -91 848 271 
Q 434 634 434 1313 
Q 434 1759 690 2068 
Q 947 2378 1403 2484 
z
M 1172 3481 
Q 1172 3119 1398 2916 
Q 1625 2713 2034 2713 
Q 2441 2713 2670 2916 
Q 2900 3119 2900 3481 
Q 2900 3844 2670 4047 
Q 2441 4250 2034 4250 
Q 1625 4250 1398 4047 
Q 1172 3844 1172 3481 
z
" transform="scale(0.015625)"/>
       </defs>
       <use xlink:href="#DejaVuSans-31"/>
       <use xlink:href="#DejaVuSans-33" x="63.623047"/>
       <use xlink:href="#DejaVuSans-2e" x="127.246094"/>
       <use xlink:href="#DejaVuSans-34" x="159.033203"/>
       <use xlink:href="#DejaVuSans-38" x="222.65625"/>
      </g>
     </g>
    </g>
    <g id="xtick_3">
     <g id="line2d_3">
      <g>
       <use xlink:href="#mca38cce17f" x="257.659466" y="515.130897" style="stroke: #000000; stroke-width: 0.8"/>
      </g>
     </g>
     <g id="text_3">
      <!-- 13.49 -->
      <g transform="translate(243.345403 529.729335) scale(0.1 -0.1)">
       <defs>
        <path id="DejaVuSans-39" d="M 703 97 
L 703 672 
Q 941 559 1184 500 
Q 1428 441 1663 441 
Q 2288 441 2617 861 
Q 2947 1281 2994 2138 
Q 2813 1869 2534 1725 
Q 2256 1581 1919 1581 
Q 1219 1581 811 2004 
Q 403 2428 403 3163 
Q 403 3881 828 4315 
Q 1253 4750 1959 4750 
Q 2769 4750 3195 4129 
Q 3622 3509 3622 2328 
Q 3622 1225 3098 567 
Q 2575 -91 1691 -91 
Q 1453 -91 1209 -44 
Q 966 3 703 97 
z
M 1959 2075 
Q 2384 2075 2632 2365 
Q 2881 2656 2881 3163 
Q 2881 3666 2632 3958 
Q 2384 4250 1959 4250 
Q 1534 4250 1286 3958 
Q 1038 3666 1038 3163 
Q 1038 2656 1286 2365 
Q 1534 2075 1959 2075 
z
" transform="scale(0.015625)"/>
       </defs>
       <use xlink:href="#DejaVuSans-31"/>
       <use xlink:href="#DejaVuSans-33" x="63.623047"/>
       <use xlink:href="#DejaVuSans-2e" x="127.246094"/>
       <use xlink:href="#DejaVuSans-34" x="159.033203"/>
       <use xlink:href="#DejaVuSans-39" x="222.65625"/>
      </g>
     </g>
    </g>
    <g id="xtick_4">
     <g id="line2d_4">
      <g>
       <use xlink:href="#mca38cce17f" x="328.20448" y="515.130897" style="stroke: #000000; stroke-width: 0.8"/>
      </g>
     </g>
     <g id="text_4">
      <!-- 13.50 -->
      <g transform="translate(313.890418 529.729335) scale(0.1 -0.1)">
       <defs>
        <path id="DejaVuSans-35" d="M 691 4666 
L 3169 4666 
L 3169 4134 
L 1269 4134 
L 1269 2991 
Q 1406 3038 1543 3061 
Q 1681 3084 1819 3084 
Q 2600 3084 3056 2656 
Q 3513 2228 3513 1497 
Q 3513 744 3044 326 
Q 2575 -91 1722 -91 
Q 1428 -91 1123 -41 
Q 819 9 494 109 
L 494 744 
Q 775 591 1075 516 
Q 1375 441 1709 441 
Q 2250 441 2565 725 
Q 2881 1009 2881 1497 
Q 2881 1984 2565 2268 
Q 2250 2553 1709 2553 
Q 1456 2553 1204 2497 
Q 953 2441 691 2322 
L 691 4666 
z
" transform="scale(0.015625)"/>
        <path id="DejaVuSans-30" d="M 2034 4250 
Q 1547 4250 1301 3770 
Q 1056 3291 1056 2328 
Q 1056 1369 1301 889 
Q 1547 409 2034 409 
Q 2525 409 2770 889 
Q 3016 1369 3016 2328 
Q 3016 3291 2770 3770 
Q 2525 4250 2034 4250 
z
M 2034 4750 
Q 2819 4750 3233 4129 
Q 3647 3509 3647 2328 
Q 3647 1150 3233 529 
Q 2819 -91 2034 -91 
Q 1250 -91 836 529 
Q 422 1150 422 2328 
Q 422 3509 836 4129 
Q 1250 4750 2034 4750 
z
" transform="scale(0.015625)"/>
       </defs>
       <use xlink:href="#DejaVuSans-31"/>
       <use xlink:href="#DejaVuSans-33" x="63.623047"/>
       <use xlink:href="#DejaVuSans-2e" x="127.246094"/>
       <use xlink:href="#DejaVuSans-35" x="159.033203"/>
       <use xlink:href="#DejaVuSans-30" x="222.65625"/>
      </g>
     </g>
    </g>
    <g id="xtick_5">
     <g id="line2d_5">
      <g>
       <use xlink:href="#mca38cce17f" x="398.749495" y="515.130897" style="stroke: #000000; stroke-width: 0.8"/>
      </g>
     </g>
     <g id="text_5">
      <!-- 13.51 -->
      <g transform="translate(384.435433 529.729335) scale(0.1 -0.1)">
       <use xlink:href="#DejaVuSans-31"/>
       <use xlink:href="#DejaVuSans-33" x="63.623047"/>
       <use xlink:href="#DejaVuSans-2e" x="127.246094"/>
       <use xlink:href="#DejaVuSans-35" x="159.033203"/>
       <use xlink:href="#DejaVuSans-31" x="222.65625"/>
      </g>
     </g>
    </g>
    <g id="xtick_6">
     <g id="line2d_6">
      <g>
       <use xlink:href="#mca38cce17f" x="469.29451" y="515.130897" style="stroke: #000000; stroke-width: 0.8"/>
      </g>
     </g>
     <g id="text_6">
      <!-- 13.52 -->
      <g transform="translate(454.980448 529.729335) scale(0.1 -0.1)">
       <defs>
        <path id="DejaVuSans-32" d="M 1228 531 
L 3431 531 
L 3431 0 
L 469 0 
L 469 531 
Q 828 903 1448 1529 
Q 2069 2156 2228 2338 
Q 2531 2678 2651 2914 
Q 2772 3150 2772 3378 
Q 2772 3750 2511 3984 
Q 2250 4219 1831 4219 
Q 1534 4219 1204 4116 
Q 875 4013 500 3803 
L 500 4441 
Q 881 4594 1212 4672 
Q 1544 4750 1819 4750 
Q 2544 4750 2975 4387 
Q 3406 4025 3406 3419 
Q 3406 3131 3298 2873 
Q 3191 2616 2906 2266 
Q 2828 2175 2409 1742 
Q 1991 1309 1228 531 
z
" transform="scale(0.015625)"/>
       </defs>
       <use xlink:href="#DejaVuSans-31"/>
       <use xlink:href="#DejaVuSans-33" x="63.623047"/>
       <use xlink:href="#DejaVuSans-2e" x="127.246094"/>
       <use xlink:href="#DejaVuSans-35" x="159.033203"/>
       <use xlink:href="#DejaVuSans-32" x="222.65625"/>
      </g>
     </g>
    </g>
    <g id="xtick_7">
     <g id="line2d_7">
      <g>
       <use xlink:href="#mca38cce17f" x="539.839525" y="515.130897" style="stroke: #000000; stroke-width: 0.8"/>
      </g>
     </g>
     <g id="text_7">
      <!-- 13.53 -->
      <g transform="translate(525.525462 529.729335) scale(0.1 -0.1)">
       <use xlink:href="#DejaVuSans-31"/>
       <use xlink:href="#DejaVuSans-33" x="63.623047"/>
       <use xlink:href="#DejaVuSans-2e" x="127.246094"/>
       <use xlink:href="#DejaVuSans-35" x="159.033203"/>
       <use xlink:href="#DejaVuSans-33" x="222.65625"/>
      </g>
     </g>
    </g>
    <g id="xtick_8">
     <g id="line2d_8">
      <g>
       <use xlink:href="#mca38cce17f" x="610.38454" y="515.130897" style="stroke: #000000; stroke-width: 0.8"/>
      </g>
     </g>
     <g id="text_8">
      <!-- 13.54 -->
      <g transform="translate(596.070477 529.729335) scale(0.1 -0.1)">
       <use xlink:href="#DejaVuSans-31"/>
       <use xlink:href="#DejaVuSans-33" x="63.623047"/>
       <use xlink:href="#DejaVuSans-2e" x="127.246094"/>
       <use xlink:href="#DejaVuSans-35" x="159.033203"/>
       <use xlink:href="#DejaVuSans-34" x="222.65625"/>
      </g>
     </g>
    </g>
   </g>
   <g id="matplotlib.axis_2">
    <g id="ytick_1">
     <g id="line2d_9">
      <defs>
       <path id="m65b8faec64" d="M 0 0 
L -3.5 0 
" style="stroke: #000000; stroke-width: 0.8"/>
      </defs>
      <g>
       <use xlink:href="#m65b8faec64" x="90" y="511.546235" style="stroke: #000000; stroke-width: 0.8"/>
      </g>
     </g>
     <g id="text_9">
      <!-- 52.490 -->
      <g transform="translate(48.009375 515.345454) scale(0.1 -0.1)">
       <use xlink:href="#DejaVuSans-35"/>
       <use xlink:href="#DejaVuSans-32" x="63.623047"/>
       <use xlink:href="#DejaVuSans-2e" x="127.246094"/>
       <use xlink:href="#DejaVuSans-34" x="159.033203"/>
       <use xlink:href="#DejaVuSans-39" x="222.65625"/>
       <use xlink:href="#DejaVuSans-30" x="286.279297"/>
      </g>
     </g>
    </g>
    <g id="ytick_2">
     <g id="line2d_10">
      <g>
       <use xlink:href="#m65b8faec64" x="90" y="453.599771" style="stroke: #000000; stroke-width: 0.8"/>
      </g>
     </g>
     <g id="text_10">
      <!-- 52.495 -->
      <g transform="translate(48.009375 457.39899) scale(0.1 -0.1)">
       <use xlink:href="#DejaVuSans-35"/>
       <use xlink:href="#DejaVuSans-32" x="63.623047"/>
       <use xlink:href="#DejaVuSans-2e" x="127.246094"/>
       <use xlink:href="#DejaVuSans-34" x="159.033203"/>
       <use xlink:href="#DejaVuSans-39" x="222.65625"/>
       <use xlink:href="#DejaVuSans-35" x="286.279297"/>
      </g>
     </g>
    </g>
    <g id="ytick_3">
     <g id="line2d_11">
      <g>
       <use xlink:href="#m65b8faec64" x="90" y="395.653307" style="stroke: #000000; stroke-width: 0.8"/>
      </g>
     </g>
     <g id="text_11">
      <!-- 52.500 -->
      <g transform="translate(48.009375 399.452525) scale(0.1 -0.1)">
       <use xlink:href="#DejaVuSans-35"/>
       <use xlink:href="#DejaVuSans-32" x="63.623047"/>
       <use xlink:href="#DejaVuSans-2e" x="127.246094"/>
       <use xlink:href="#DejaVuSans-35" x="159.033203"/>
       <use xlink:href="#DejaVuSans-30" x="222.65625"/>
       <use xlink:href="#DejaVuSans-30" x="286.279297"/>
      </g>
     </g>
    </g>
    <g id="ytick_4">
     <g id="line2d_12">
      <g>
       <use xlink:href="#m65b8faec64" x="90" y="337.706843" style="stroke: #000000; stroke-width: 0.8"/>
      </g>
     </g>
     <g id="text_12">
      <!-- 52.505 -->
      <g transform="translate(48.009375 341.506061) scale(0.1 -0.1)">
       <use xlink:href="#DejaVuSans-35"/>
       <use xlink:href="#DejaVuSans-32" x="63.623047"/>
       <use xlink:href="#DejaVuSans-2e" x="127.246094"/>
       <use xlink:href="#DejaVuSans-35" x="159.033203"/>
       <use xlink:href="#DejaVuSans-30" x="222.65625"/>
       <use xlink:href="#DejaVuSans-35" x="286.279297"/>
      </g>
     </g>
    </g>
    <g id="ytick_5">
     <g id="line2d_13">
      <g>
       <use xlink:href="#m65b8faec64" x="90" y="279.760379" style="stroke: #000000; stroke-width: 0.8"/>
      </g>
     </g>
     <g id="text_13">
      <!-- 52.510 -->
      <g transform="translate(48.009375 283.559597) scale(0.1 -0.1)">
       <use xlink:href="#DejaVuSans-35"/>
       <use xlink:href="#DejaVuSans-32" x="63.623047"/>
       <use xlink:href="#DejaVuSans-2e" x="127.246094"/>
       <use xlink:href="#DejaVuSans-35" x="159.033203"/>
       <use xlink:href="#DejaVuSans-31" x="222.65625"/>
       <use xlink:href="#DejaVuSans-30" x="286.279297"/>
      </g>
     </g>
    </g>
    <g id="ytick_6">
     <g id="line2d_14">
      <g>
       <use xlink:href="#m65b8faec64" x="90" y="221.813915" style="stroke: #000000; stroke-width: 0.8"/>
      </g>
     </g>
     <g id="text_14">
      <!-- 52.515 -->
      <g transform="translate(48.009375 225.613133) scale(0.1 -0.1)">
       <use xlink:href="#DejaVuSans-35"/>
       <use xlink:href="#DejaVuSans-32" x="63.623047"/>
       <use xlink:href="#DejaVuSans-2e" x="127.246094"/>
       <use xlink:href="#DejaVuSans-35" x="159.033203"/>
       <use xlink:href="#DejaVuSans-31" x="222.65625"/>
       <use xlink:href="#DejaVuSans-35" x="286.279297"/>
      </g>
     </g>
    </g>
   </g>
   <g id="LineCollection_1">
    <path d="M 299.118771 326.512745 
L 299.903937 326.767709 
L 300.125448 326.841881 
L 306.212778 328.865371 
L 311.16151 330.509892 
L 312.111752 330.82628 
" clip-path="url(#pa5f65de2de)" style="fill: none; stroke: #ff0000; stroke-opacity: 0.7; stroke-width: 0.5"/>
    <path d="M 307.139034 303.695745 
L 307.952418 303.962299 
L 308.154882 304.028358 
L 310.343894 304.744576 
L 312.086355 305.314769 
L 314.636558 306.148039 
L 319.305227 307.675508 
L 320.20397 307.935108 
L 320.930584 308.159941 
L 324.337203 309.272513 
L 326.46484 309.966711 
L 327.915246 310.459256 
L 328.609409 310.695678 
L 329.484872 310.992364 
" clip-path="url(#pa5f65de2de)" style="fill: none; stroke: #ff0000; stroke-opacity: 0.7; stroke-width: 0.5"/>
    <path d="M 451.172201 355.620413 
L 451.445916 355.564784 
L 454.290291 354.996909 
L 462.704195 353.294442 
L 463.703818 353.092788 
L 464.484045 352.935173 
" clip-path="url(#pa5f65de2de)" style="fill: none; stroke: #ff0000; stroke-opacity: 0.7; stroke-width: 0.5"/>
    <path d="M 490.517978 291.606954 
L 492.680888 290.697194 
L 492.866421 290.471203 
L 493.160594 290.114253 
L 493.378578 289.398035 
L 493.391982 288.322548 
L 493.255124 287.046567 
L 493.123911 285.290789 
L 493.112623 285.13781 
L 492.984937 284.061165 
" clip-path="url(#pa5f65de2de)" style="fill: none; stroke: #ff0000; stroke-opacity: 0.7; stroke-width: 0.5"/>
    <path d="M 323.545688 296.65525 
L 324.315334 296.868493 
L 335.122125 299.866643 
L 335.728812 300.039323 
L 340.51388 301.372092 
L 340.995703 301.625897 
" clip-path="url(#pa5f65de2de)" style="fill: none; stroke: #ff0000; stroke-opacity: 0.7; stroke-width: 0.5"/>
    <path d="M 314.498995 283.628885 
L 316.07356 284.144608 
L 316.555382 284.262819 
L 317.387813 284.498082 
L 324.98269 286.637465 
L 325.568919 286.800874 
L 326.546673 287.072063 
" clip-path="url(#pa5f65de2de)" style="fill: none; stroke: #ff0000; stroke-opacity: 0.7; stroke-width: 0.5"/>
    <path d="M 359.26545 385.036356 
L 361.226602 384.526427 
L 363.256182 384.131232 
L 364.880128 384.081398 
L 366.068106 384.002591 
L 367.558722 383.911035 
L 370.204866 384.084875 
L 372.399521 384.538016 
L 372.731083 384.586691 
L 374.855193 385.190493 
L 377.546486 386.444455 
L 379.474481 387.823581 
L 380.527718 388.370595 
L 382.352012 389.369592 
L 385.009443 390.633984 
L 388.035118 391.797549 
L 388.697536 392.052513 
" clip-path="url(#pa5f65de2de)" style="fill: none; stroke: #ff0000; stroke-opacity: 0.7; stroke-width: 0.5"/>
    <path d="M 359.580081 386.446773 
L 359.796654 387.595271 
" clip-path="url(#pa5f65de2de)" style="fill: none; stroke: #ff0000; stroke-opacity: 0.7; stroke-width: 0.5"/>
    <path d="M 359.796654 387.595271 
L 359.826283 387.711164 
L 360.125394 388.884001 
L 359.294374 390.139121 
L 358.274998 391.77437 
L 356.16923 398.421989 
L 354.802067 402.022782 
L 353.924487 405.333843 
L 353.337553 408.63795 
L 351.733359 414.13707 
L 350.320343 417.844485 
L 350.181369 418.149283 
" clip-path="url(#pa5f65de2de)" style="fill: none; stroke: #ff0000; stroke-opacity: 0.7; stroke-width: 0.5"/>
    <path d="M 359.26545 385.036356 
L 359.580081 386.446773 
" clip-path="url(#pa5f65de2de)" style="fill: none; stroke: #ff0000; stroke-opacity: 0.7; stroke-width: 0.5"/>
    <path d="M 333.255503 332.587852 
L 336.844128 325.339908 
L 340.053221 318.856858 
L 341.567823 315.79149 
L 341.905733 315.115834 
L 342.326887 314.260544 
L 344.464401 309.920354 
L 345.27849 308.267721 
L 346.337371 306.116748 
L 346.9624 304.847721 
L 349.700957 299.287178 
L 350.25403 298.175765 
L 350.93479 296.781573 
L 351.662109 295.303938 
L 351.795439 295.016524 
L 353.977396 290.709942 
L 356.102212 286.509983 
L 356.203797 286.297899 
" clip-path="url(#pa5f65de2de)" style="fill: none; stroke: #ff0000; stroke-opacity: 0.7; stroke-width: 0.5"/>
    <path d="M 269.652824 316.716316 
L 268.536096 317.229721 
L 267.142127 318.504543 
L 265.725583 321.686963 
" clip-path="url(#pa5f65de2de)" style="fill: none; stroke: #ff0000; stroke-opacity: 0.7; stroke-width: 0.5"/>
    <path d="M 388.697536 392.052513 
L 389.421328 392.287776 
L 392.296037 393.224191 
L 395.098791 393.82104 
L 399.068359 394.423683 
L 403.963477 394.847851 
L 406.453716 394.828149 
L 409.930175 394.714574 
" clip-path="url(#pa5f65de2de)" style="fill: none; stroke: #ff0000; stroke-opacity: 0.7; stroke-width: 0.5"/>
    <path d="M 263.152806 328.348489 
L 260.185683 336.02176 
L 258.748681 339.737287 
L 258.422763 340.578669 
L 258.183615 341.206809 
L 254.078601 351.959355 
L 253.807002 352.72193 
" clip-path="url(#pa5f65de2de)" style="fill: none; stroke: #ff0000; stroke-opacity: 0.7; stroke-width: 0.5"/>
    <path d="M 423.5891 394.299677 
L 424.53652 394.94636 
L 425.395758 395.525825 
" clip-path="url(#pa5f65de2de)" style="fill: none; stroke: #ff0000; stroke-opacity: 0.7; stroke-width: 0.5"/>
    <path d="M 436.367624 398.335069 
L 437.679056 399.088373 
L 439.326988 400.125615 
" clip-path="url(#pa5f65de2de)" style="fill: none; stroke: #ff0000; stroke-opacity: 0.7; stroke-width: 0.5"/>
    <path d="M 425.395758 395.525825 
L 426.077929 395.894364 
L 428.421434 396.411246 
L 430.853826 396.980281 
L 436.367624 398.335069 
" clip-path="url(#pa5f65de2de)" style="fill: none; stroke: #ff0000; stroke-opacity: 0.7; stroke-width: 0.5"/>
    <path d="M 409.930175 394.714574 
L 413.380531 394.486265 
L 415.869359 394.175672 
L 418.651655 393.910277 
L 423.176412 394.09107 
L 423.5891 394.299677 
" clip-path="url(#pa5f65de2de)" style="fill: none; stroke: #ff0000; stroke-opacity: 0.7; stroke-width: 0.5"/>
    <path d="M 439.326988 400.125615 
L 440.254655 400.377102 
L 441.253572 400.677265 
L 443.175218 401.253253 
L 445.839704 401.983378 
L 450.269225 402.697279 
L 451.24063 403.308035 
" clip-path="url(#pa5f65de2de)" style="fill: none; stroke: #ff0000; stroke-opacity: 0.7; stroke-width: 0.5"/>
    <path d="M 345.667193 292.486581 
L 346.670343 292.740387 
L 347.542985 292.675487 
" clip-path="url(#pa5f65de2de)" style="fill: none; stroke: #ff0000; stroke-opacity: 0.7; stroke-width: 0.5"/>
    <path d="M 326.546673 287.072063 
L 327.638004 287.386133 
L 345.667193 292.486581 
" clip-path="url(#pa5f65de2de)" style="fill: none; stroke: #ff0000; stroke-opacity: 0.7; stroke-width: 0.5"/>
    <path d="M 312.111752 330.82628 
L 312.794627 331.045317 
L 316.379725 332.18918 
L 320.629357 333.545128 
L 321.387716 333.787344 
" clip-path="url(#pa5f65de2de)" style="fill: none; stroke: #ff0000; stroke-opacity: 0.7; stroke-width: 0.5"/>
    <path d="M 269.652824 316.716316 
L 270.53252 317.006048 
L 277.36551 319.256689 
L 279.566515 319.981019 
L 282.597834 320.978857 
" clip-path="url(#pa5f65de2de)" style="fill: none; stroke: #ff0000; stroke-opacity: 0.7; stroke-width: 0.5"/>
    <path d="M 253.807002 352.72193 
L 253.490255 353.519274 
L 250.507612 361.032612 
L 250.228959 361.733765 
" clip-path="url(#pa5f65de2de)" style="fill: none; stroke: #ff0000; stroke-opacity: 0.7; stroke-width: 0.5"/>
    <path d="M 321.387716 333.787344 
L 322.145369 334.031878 
L 326.627799 335.49097 
" clip-path="url(#pa5f65de2de)" style="fill: none; stroke: #ff0000; stroke-opacity: 0.7; stroke-width: 0.5"/>
    <path d="M 298.469051 300.851733 
L 299.30501 301.124081 
L 304.106303 302.700225 
L 306.062517 303.342272 
L 306.276268 303.412966 
L 307.139034 303.695745 
" clip-path="url(#pa5f65de2de)" style="fill: none; stroke: #ff0000; stroke-opacity: 0.7; stroke-width: 0.5"/>
    <path d="M 246.077385 370.942617 
L 246.332053 370.226398 
L 246.396249 370.086168 
L 247.903796 366.799444 
L 249.943252 362.35611 
L 250.228959 361.733765 
" clip-path="url(#pa5f65de2de)" style="fill: none; stroke: #ff0000; stroke-opacity: 0.7; stroke-width: 0.5"/>
    <path d="M 308.025079 387.162991 
L 307.845189 386.661174 
L 307.76759 386.44909 
L 307.725263 386.328562 
L 307.349258 385.231056 
L 307.765473 383.847294 
L 308.06529 383.248128 
" clip-path="url(#pa5f65de2de)" style="fill: none; stroke: #ff0000; stroke-opacity: 0.7; stroke-width: 0.5"/>
    <path d="M 449.139799 356.029515 
L 451.172201 355.620413 
" clip-path="url(#pa5f65de2de)" style="fill: none; stroke: #ff0000; stroke-opacity: 0.7; stroke-width: 0.5"/>
    <path d="M 464.484045 352.935173 
L 465.197961 352.791466 
L 465.348222 352.761334 
L 469.513905 351.92111 
" clip-path="url(#pa5f65de2de)" style="fill: none; stroke: #ff0000; stroke-opacity: 0.7; stroke-width: 0.5"/>
    <path d="M 331.099648 336.94079 
L 331.449551 336.233844 
L 333.255503 332.587852 
" clip-path="url(#pa5f65de2de)" style="fill: none; stroke: #ff0000; stroke-opacity: 0.7; stroke-width: 0.5"/>
    <path d="M 290.362018 323.548204 
L 291.27346 323.85532 
L 296.921294 325.7606 
L 298.018974 326.133775 
L 298.234842 326.206787 
L 299.118771 326.512745 
" clip-path="url(#pa5f65de2de)" style="fill: none; stroke: #ff0000; stroke-opacity: 0.7; stroke-width: 0.5"/>
    <path d="M 488.499685 315.718477 
L 488.306392 315.225932 
L 488.049608 310.856769 
L 487.869012 307.787924 
L 487.81822 307.07866 
L 487.799878 306.728663 
L 487.735682 305.514105 
L 487.537451 302.146257 
L 487.192486 296.285551 
L 487.133933 295.284236 
" clip-path="url(#pa5f65de2de)" style="fill: none; stroke: #ff0000; stroke-opacity: 0.7; stroke-width: 0.5"/>
    <path d="M 329.484872 310.992364 
L 329.875692 311.125641 
L 330.343405 311.284414 
L 334.339075 312.632249 
L 335.158103 312.903438 
L 337.95098 313.801608 
L 338.154855 313.866508 
" clip-path="url(#pa5f65de2de)" style="fill: none; stroke: #ff0000; stroke-opacity: 0.7; stroke-width: 0.5"/>
    <path d="M 282.597834 320.978857 
L 283.631318 321.309152 
L 284.403786 321.561799 
L 284.864445 321.706665 
" clip-path="url(#pa5f65de2de)" style="fill: none; stroke: #ff0000; stroke-opacity: 0.7; stroke-width: 0.5"/>
    <path d="M 284.864445 321.706665 
L 289.685491 323.321054 
L 290.362018 323.548204 
" clip-path="url(#pa5f65de2de)" style="fill: none; stroke: #ff0000; stroke-opacity: 0.7; stroke-width: 0.5"/>
    <path d="M 308.06529 383.248128 
L 312.590752 374.192254 
L 312.772758 373.828351 
L 318.915818 361.536747 
L 319.28618 360.796191 
" clip-path="url(#pa5f65de2de)" style="fill: none; stroke: #ff0000; stroke-opacity: 0.7; stroke-width: 0.5"/>
    <path d="M 319.28618 360.796191 
L 319.67065 360.020867 
L 330.780079 337.586314 
L 331.099648 336.94079 
" clip-path="url(#pa5f65de2de)" style="fill: none; stroke: #ff0000; stroke-opacity: 0.7; stroke-width: 0.5"/>
    <path d="M 265.725583 321.686963 
L 263.152806 328.348489 
" clip-path="url(#pa5f65de2de)" style="fill: none; stroke: #ff0000; stroke-opacity: 0.7; stroke-width: 0.5"/>
    <path d="M 487.133933 295.284236 
L 487.034465 293.803125 
L 487.70041 293.016212 
L 490.517978 291.606954 
" clip-path="url(#pa5f65de2de)" style="fill: none; stroke: #ff0000; stroke-opacity: 0.7; stroke-width: 0.5"/>
    <path d="M 350.181369 418.149283 
L 350.09742 418.321963 
L 349.696725 419.142485 
" clip-path="url(#pa5f65de2de)" style="fill: none; stroke: #ff0000; stroke-opacity: 0.7; stroke-width: 0.5"/>
    <path d="M 356.203797 286.297899 
L 356.34136 286.010484 
L 356.701139 285.258339 
" clip-path="url(#pa5f65de2de)" style="fill: none; stroke: #ff0000; stroke-opacity: 0.7; stroke-width: 0.5"/>
   </g>
   <g id="patch_3">
    <path d="M 90 515.130897 
L 90 212.069103 
" style="fill: none; stroke: #000000; stroke-width: 0.8; stroke-linejoin: miter; stroke-linecap: square"/>
   </g>
   <g id="patch_4">
    <path d="M 648 515.130897 
L 648 212.069103 
" style="fill: none; stroke: #000000; stroke-width: 0.8; stroke-linejoin: miter; stroke-linecap: square"/>
   </g>
   <g id="patch_5">
    <path d="M 90 515.130897 
L 648 515.130897 
" style="fill: none; stroke: #000000; stroke-width: 0.8; stroke-linejoin: miter; stroke-linecap: square"/>
   </g>
   <g id="patch_6">
    <path d="M 90 212.069103 
L 648 212.069103 
" style="fill: none; stroke: #000000; stroke-width: 0.8; stroke-linejoin: miter; stroke-linecap: square"/>
   </g>
   <g id="text_15">
    <!-- Lichtenberg_Mitte -->
    <g transform="translate(352.243067 361.911444) scale(0.12 -0.12)">
     <defs>
      <path id="DejaVuSans-4c" d="M 628 4666 
L 1259 4666 
L 1259 531 
L 3531 531 
L 3531 0 
L 628 0 
L 628 4666 
z
" transform="scale(0.015625)"/>
      <path id="DejaVuSans-69" d="M 603 3500 
L 1178 3500 
L 1178 0 
L 603 0 
L 603 3500 
z
M 603 4863 
L 1178 4863 
L 1178 4134 
L 603 4134 
L 603 4863 
z
" transform="scale(0.015625)"/>
      <path id="DejaVuSans-63" d="M 3122 3366 
L 3122 2828 
Q 2878 2963 2633 3030 
Q 2388 3097 2138 3097 
Q 1578 3097 1268 2742 
Q 959 2388 959 1747 
Q 959 1106 1268 751 
Q 1578 397 2138 397 
Q 2388 397 2633 464 
Q 2878 531 3122 666 
L 3122 134 
Q 2881 22 2623 -34 
Q 2366 -91 2075 -91 
Q 1284 -91 818 406 
Q 353 903 353 1747 
Q 353 2603 823 3093 
Q 1294 3584 2113 3584 
Q 2378 3584 2631 3529 
Q 2884 3475 3122 3366 
z
" transform="scale(0.015625)"/>
      <path id="DejaVuSans-68" d="M 3513 2113 
L 3513 0 
L 2938 0 
L 2938 2094 
Q 2938 2591 2744 2837 
Q 2550 3084 2163 3084 
Q 1697 3084 1428 2787 
Q 1159 2491 1159 1978 
L 1159 0 
L 581 0 
L 581 4863 
L 1159 4863 
L 1159 2956 
Q 1366 3272 1645 3428 
Q 1925 3584 2291 3584 
Q 2894 3584 3203 3211 
Q 3513 2838 3513 2113 
z
" transform="scale(0.015625)"/>
      <path id="DejaVuSans-74" d="M 1172 4494 
L 1172 3500 
L 2356 3500 
L 2356 3053 
L 1172 3053 
L 1172 1153 
Q 1172 725 1289 603 
Q 1406 481 1766 481 
L 2356 481 
L 2356 0 
L 1766 0 
Q 1100 0 847 248 
Q 594 497 594 1153 
L 594 3053 
L 172 3053 
L 172 3500 
L 594 3500 
L 594 4494 
L 1172 4494 
z
" transform="scale(0.015625)"/>
      <path id="DejaVuSans-65" d="M 3597 1894 
L 3597 1613 
L 953 1613 
Q 991 1019 1311 708 
Q 1631 397 2203 397 
Q 2534 397 2845 478 
Q 3156 559 3463 722 
L 3463 178 
Q 3153 47 2828 -22 
Q 2503 -91 2169 -91 
Q 1331 -91 842 396 
Q 353 884 353 1716 
Q 353 2575 817 3079 
Q 1281 3584 2069 3584 
Q 2775 3584 3186 3129 
Q 3597 2675 3597 1894 
z
M 3022 2063 
Q 3016 2534 2758 2815 
Q 2500 3097 2075 3097 
Q 1594 3097 1305 2825 
Q 1016 2553 972 2059 
L 3022 2063 
z
" transform="scale(0.015625)"/>
      <path id="DejaVuSans-6e" d="M 3513 2113 
L 3513 0 
L 2938 0 
L 2938 2094 
Q 2938 2591 2744 2837 
Q 2550 3084 2163 3084 
Q 1697 3084 1428 2787 
Q 1159 2491 1159 1978 
L 1159 0 
L 581 0 
L 581 3500 
L 1159 3500 
L 1159 2956 
Q 1366 3272 1645 3428 
Q 1925 3584 2291 3584 
Q 2894 3584 3203 3211 
Q 3513 2838 3513 2113 
z
" transform="scale(0.015625)"/>
      <path id="DejaVuSans-62" d="M 3116 1747 
Q 3116 2381 2855 2742 
Q 2594 3103 2138 3103 
Q 1681 3103 1420 2742 
Q 1159 2381 1159 1747 
Q 1159 1113 1420 752 
Q 1681 391 2138 391 
Q 2594 391 2855 752 
Q 3116 1113 3116 1747 
z
M 1159 2969 
Q 1341 3281 1617 3432 
Q 1894 3584 2278 3584 
Q 2916 3584 3314 3078 
Q 3713 2572 3713 1747 
Q 3713 922 3314 415 
Q 2916 -91 2278 -91 
Q 1894 -91 1617 61 
Q 1341 213 1159 525 
L 1159 0 
L 581 0 
L 581 4863 
L 1159 4863 
L 1159 2969 
z
" transform="scale(0.015625)"/>
      <path id="DejaVuSans-72" d="M 2631 2963 
Q 2534 3019 2420 3045 
Q 2306 3072 2169 3072 
Q 1681 3072 1420 2755 
Q 1159 2438 1159 1844 
L 1159 0 
L 581 0 
L 581 3500 
L 1159 3500 
L 1159 2956 
Q 1341 3275 1631 3429 
Q 1922 3584 2338 3584 
Q 2397 3584 2469 3576 
Q 2541 3569 2628 3553 
L 2631 2963 
z
" transform="scale(0.015625)"/>
      <path id="DejaVuSans-67" d="M 2906 1791 
Q 2906 2416 2648 2759 
Q 2391 3103 1925 3103 
Q 1463 3103 1205 2759 
Q 947 2416 947 1791 
Q 947 1169 1205 825 
Q 1463 481 1925 481 
Q 2391 481 2648 825 
Q 2906 1169 2906 1791 
z
M 3481 434 
Q 3481 -459 3084 -895 
Q 2688 -1331 1869 -1331 
Q 1566 -1331 1297 -1286 
Q 1028 -1241 775 -1147 
L 775 -588 
Q 1028 -725 1275 -790 
Q 1522 -856 1778 -856 
Q 2344 -856 2625 -561 
Q 2906 -266 2906 331 
L 2906 616 
Q 2728 306 2450 153 
Q 2172 0 1784 0 
Q 1141 0 747 490 
Q 353 981 353 1791 
Q 353 2603 747 3093 
Q 1141 3584 1784 3584 
Q 2172 3584 2450 3431 
Q 2728 3278 2906 2969 
L 2906 3500 
L 3481 3500 
L 3481 434 
z
" transform="scale(0.015625)"/>
      <path id="DejaVuSans-5f" d="M 3263 -1063 
L 3263 -1509 
L -63 -1509 
L -63 -1063 
L 3263 -1063 
z
" transform="scale(0.015625)"/>
      <path id="DejaVuSans-4d" d="M 628 4666 
L 1569 4666 
L 2759 1491 
L 3956 4666 
L 4897 4666 
L 4897 0 
L 4281 0 
L 4281 4097 
L 3078 897 
L 2444 897 
L 1241 4097 
L 1241 0 
L 628 0 
L 628 4666 
z
" transform="scale(0.015625)"/>
     </defs>
     <use xlink:href="#DejaVuSans-4c"/>
     <use xlink:href="#DejaVuSans-69" x="55.712891"/>
     <use xlink:href="#DejaVuSans-63" x="83.496094"/>
     <use xlink:href="#DejaVuSans-68" x="138.476562"/>
     <use xlink:href="#DejaVuSans-74" x="201.855469"/>
     <use xlink:href="#DejaVuSans-65" x="241.064453"/>
     <use xlink:href="#DejaVuSans-6e" x="302.587891"/>
     <use xlink:href="#DejaVuSans-62" x="365.966797"/>
     <use xlink:href="#DejaVuSans-65" x="429.443359"/>
     <use xlink:href="#DejaVuSans-72" x="490.966797"/>
     <use xlink:href="#DejaVuSans-67" x="530.330078"/>
     <use xlink:href="#DejaVuSans-5f" x="593.806641"/>
     <use xlink:href="#DejaVuSans-4d" x="643.806641"/>
     <use xlink:href="#DejaVuSans-69" x="730.085938"/>
     <use xlink:href="#DejaVuSans-74" x="757.869141"/>
     <use xlink:href="#DejaVuSans-74" x="797.078125"/>
     <use xlink:href="#DejaVuSans-65" x="836.287109"/>
    </g>
   </g>
  </g>
 </g>
 <defs>
  <clipPath id="pa5f65de2de">
   <rect x="90" y="212.069103" width="558" height="303.061795"/>
  </clipPath>
 </defs>
</svg>
