<?xml version="1.0" encoding="utf-8" standalone="no"?>
<!DOCTYPE svg PUBLIC "-//W3C//DTD SVG 1.1//EN"
  "http://www.w3.org/Graphics/SVG/1.1/DTD/svg11.dtd">
<svg xmlns:xlink="http://www.w3.org/1999/xlink" width="460.8pt" height="345.6pt" viewBox="0 0 460.8 345.6" xmlns="http://www.w3.org/2000/svg" version="1.1">
 <metadata>
  <rdf:RDF xmlns:dc="http://purl.org/dc/elements/1.1/" xmlns:cc="http://creativecommons.org/ns#" xmlns:rdf="http://www.w3.org/1999/02/22-rdf-syntax-ns#">
   <cc:Work>
    <dc:type rdf:resource="http://purl.org/dc/dcmitype/StillImage"/>
    <dc:date>2024-10-17T11:33:15.497407</dc:date>
    <dc:format>image/svg+xml</dc:format>
    <dc:creator>
     <cc:Agent>
      <dc:title>Matplotlib v3.9.2, https://matplotlib.org/</dc:title>
     </cc:Agent>
    </dc:creator>
   </cc:Work>
  </rdf:RDF>
 </metadata>
 <defs>
  <style type="text/css">*{stroke-linejoin: round; stroke-linecap: butt}</style>
 </defs>
 <g id="figure_1">
  <g id="patch_1">
   <path d="M 0 345.6 
L 460.8 345.6 
L 460.8 0 
L 0 0 
z
" style="fill: #ffffff"/>
  </g>
  <g id="axes_1">
   <g id="patch_2">
    <path d="M 116.907686 307.584 
L 355.412314 307.584 
L 355.412314 41.472 
L 116.907686 41.472 
z
" style="fill: #ffffff"/>
   </g>
   <g id="PatchCollection_1">
    <path d="M 302.980003 224.860435 
L 303.111322 224.241953 
L 303.504842 222.388351 
L 303.530366 222.219896 
L 303.716468 220.996645 
L 303.872942 219.954338 
L 304.333216 216.892702 
L 304.405731 216.224222 
L 304.418388 216.105588 
L 304.451154 215.809008 
L 304.831065 212.366916 
L 304.981231 211.005046 
L 305.241385 208.644315 
L 305.639164 207.007101 
L 305.849979 206.495329 
L 306.120353 205.838633 
L 306.121791 205.83514 
L 306.243561 205.538967 
L 307.406296 202.711098 
L 307.694591 202.011749 
L 308.890594 199.118606 
L 309.939377 196.43185 
L 311.184922 193.241115 
L 311.352591 192.811575 
L 311.596058 192.349513 
L 312.632386 189.918596 
L 312.633808 189.915262 
L 313.518134 187.410898 
L 313.688234 186.930109 
L 313.752305 186.611482 
L 313.863054 186.063304 
L 314.087434 184.947247 
L 314.095509 184.878429 
L 314.116812 184.689839 
L 314.308177 183.024209 
L 314.499731 182.013824 
L 314.547473 181.759926 
L 314.666248 181.13516 
L 314.853724 180.14379 
L 315.156148 179.412338 
L 315.331693 178.987848 
L 315.541887 178.478469 
L 315.927675 177.544007 
L 316.313525 176.609544 
L 316.698692 175.676223 
L 317.015789 174.909211 
L 317.073327 174.753637 
L 317.426556 173.807436 
L 317.538938 173.50572 
L 317.778017 172.864182 
L 318.128894 171.923849 
L 318.486209 170.963974 
L 318.526118 170.857139 
L 318.770848 170.200587 
L 318.850052 169.988651 
L 318.97385 169.656843 
L 319.17032 169.09592 
L 319.199671 169.012217 
L 319.488805 168.186558 
L 319.63013 167.782344 
L 319.769691 167.384041 
L 319.774663 167.265399 
L 319.794176 166.852065 
L 319.821845 166.230556 
L 319.837441 165.894906 
L 319.868491 165.211743 
L 319.888363 164.723058 
L 319.912667 164.158516 
L 319.93261 163.705425 
L 319.958242 163.166364 
L 319.976933 162.696689 
L 320.003885 162.023583 
L 320.019432 161.674882 
L 320.021072 161.636344 
L 320.189773 160.675292 
L 320.347393 159.778259 
L 320.364227 159.685103 
L 320.501622 158.901946 
L 320.504985 158.882592 
L 320.528295 158.750138 
L 320.541103 158.697294 
L 320.783091 157.718193 
L 320.785401 157.707523 
L 320.815236 157.586494 
L 321.025062 156.735534 
L 321.085823 156.489299 
L 321.267567 155.752863 
L 321.356452 155.393884 
L 321.534695 154.670516 
L 321.589048 154.450408 
L 321.624713 154.3038 
L 321.699907 154.022068 
L 321.821255 153.567394 
L 321.893766 153.295569 
L 322.002028 152.889058 
L 322.162868 152.286743 
L 322.958461 149.30063 
L 322.968386 149.262028 
L 323.137478 148.436765 
L 323.211031 148.109804 
L 323.302194 147.733037 
L 323.602433 146.454309 
L 323.742508 145.854766 
L 323.810411 145.564237 
L 323.914347 145.122168 
L 324.143318 144.1449 
L 324.422859 142.952947 
L 324.44943 142.839466 
L 324.537423 142.463778 
L 324.728886 141.64621 
L 324.828514 141.220789 
L 324.967008 140.629883 
L 324.9938 140.515685 
L 325.046998 140.288603 
L 325.340243 139.038388 
L 326.014968 136.1647 
L 326.042966 136.040686 
L 326.423323 134.422577 
L 326.663368 133.398972 
L 326.704288 133.224544 
L 326.893556 132.416993 
L 326.971841 132.084115 
L 327.091523 131.536458 
L 327.206027 131.052275 
L 327.326356 130.544885 
L 327.492276 129.841193 
L 327.679273 129.051372 
L 327.80195 128.532185 
L 327.909518 128.101369 
L 328.159741 127.101508 
L 328.429872 126.021536 
L 328.971246 123.858008 
L 329.230837 122.820746 
L 329.464717 121.884962 
L 329.48698 121.798925 
L 329.686309 120.996078 
L 329.87864 120.222277 
L 330.050534 119.528659 
L 330.063946 119.46275 
L 330.204895 118.90733 
L 330.352839 118.314559 
L 330.478519 117.807824 
L 330.598373 117.324177 
L 330.709999 116.875594 
L 330.81061 116.472638 
L 330.906451 116.086991 
L 330.99181 115.741619 
L 331.073044 115.405178 
L 331.101745 115.29954 
L 331.319214 114.416563 
L 331.909738 112.049542 
L 331.92436 111.990192 
L 331.939951 111.921031 
L 331.978674 111.748729 
L 331.979141 111.747137 
L 332.048947 111.508933 
L 332.14424 111.11434 
L 332.609174 109.279562 
L 332.998048 107.74445 
L 333.220936 106.878677 
L 333.440221 106.015832 
L 333.707501 104.966125 
L 333.878303 104.286713 
L 334.035022 103.664207 
L 334.139125 103.250022 
L 334.243168 102.835838 
L 334.273619 102.715391 
L 334.468177 102.290851 
L 335.012504 101.101568 
L 336.118275 98.684959 
L 336.662063 97.497472 
L 337.420559 95.683181 
L 338.349126 88.695441 
L 338.777367 86.0247 
L 341.29915 80.801104 
L 342.16106 74.848882 
L 342.693361 70.51642 
L 343.943081 66.669853 
L 344.126626 66.105437 
L 344.571194 64.753976 
L 344.365341 64.769413 
L 343.909388 64.650337 
L 343.111531 61.304249 
L 343.081855 61.181683 
L 343.051707 61.059245 
L 343.021147 60.936877 
L 342.990232 60.814515 
L 342.958905 60.692282 
L 342.927165 60.570117 
L 339.020599 59.715249 
L 337.807146 59.370788 
L 332.759821 57.938226 
L 331.799381 57.677685 
L 330.360123 57.21999 
L 328.816764 56.712744 
L 326.945582 56.455544 
L 325.219625 56.201445 
L 324.550599 56.126129 
L 323.592293 56.028238 
L 322.444362 55.92474 
L 321.399682 55.775664 
L 319.477449 55.472355 
L 317.296447 55.118052 
L 315.718193 54.872557 
L 315.040098 54.664989 
L 314.153973 54.371484 
L 313.471077 54.152992 
L 313.312905 54.102438 
L 312.426737 56.236346 
L 312.267338 56.620139 
L 311.495321 58.479228 
L 311.283946 58.801047 
L 308.830854 58.669292 
L 303.883205 57.778329 
L 303.529828 57.716137 
L 303.176033 57.656505 
L 302.821765 57.599553 
L 302.684066 57.578155 
L 302.546316 57.557115 
L 302.408518 57.53655 
L 301.932169 57.468476 
L 301.455215 57.405221 
L 300.977656 57.346727 
L 300.499491 57.292993 
L 300.013602 57.243405 
L 299.527229 57.198694 
L 299.040374 57.158977 
L 298.553214 57.124251 
L 298.065688 57.094458 
L 297.577917 57.069596 
L 297.0899 57.049722 
L 285.418872 56.632845 
L 276.426372 56.293947 
L 275.579043 56.281316 
L 274.95077 56.27195 
L 274.64178 56.255021 
L 268.898742 55.939796 
L 268.139808 55.898169 
L 265.177562 55.735445 
L 263.381056 55.648029 
L 258.87745 55.675447 
L 257.436092 55.684218 
L 252.666172 55.590409 
L 249.854381 55.525402 
L 247.721802 55.342882 
L 245.889662 55.27203 
L 245.620142 54.246969 
L 244.557042 53.638631 
L 244.433576 53.568 
L 243.692874 53.859794 
L 243.134114 54.024371 
L 242.554438 54.166754 
L 241.985093 54.297161 
L 241.811533 54.324705 
L 241.221076 54.400175 
L 240.621684 54.451878 
L 240.032425 54.469362 
L 239.453455 54.457015 
L 238.451022 54.418351 
L 238.074437 54.40487 
L 236.45422 54.346905 
L 235.557785 54.314783 
L 234.06023 54.179579 
L 233.823184 54.158179 
L 229.000234 55.294868 
L 225.755767 55.824065 
L 221.545237 56.55652 
L 219.101524 56.890721 
L 216.875536 57.253168 
L 216.236191 57.352565 
L 214.501189 57.490637 
L 213.312926 57.817753 
L 211.189134 58.418873 
L 209.051268 59.009706 
L 208.94692 58.732446 
L 208.917025 58.652968 
L 208.678999 58.020501 
L 208.669497 57.995323 
L 208.348457 57.142307 
L 208.124657 56.547786 
L 208.08431 56.440422 
L 207.867179 55.863609 
L 207.704362 55.431102 
L 190.726386 62.186602 
L 190.59143 62.240361 
L 190.73997 62.632907 
L 189.804984 63.036995 
L 189.622947 63.124324 
L 189.373423 63.244003 
L 188.282093 63.767443 
L 187.205346 64.329163 
L 184.711904 65.699171 
L 183.181221 66.571966 
L 181.702827 67.487314 
L 180.323889 68.431337 
L 179.954231 68.7128 
L 179.791142 68.836964 
L 179.271803 69.206873 
L 178.6854 69.624569 
L 178.321202 69.853704 
L 177.790243 70.198961 
L 176.258617 71.331066 
L 174.485618 72.973126 
L 173.604271 73.79787 
L 172.495156 74.858056 
L 171.807565 75.500637 
L 168.239638 78.633385 
L 164.347037 82.137295 
L 163.710085 82.768963 
L 162.107701 84.218591 
L 158.051703 87.886102 
L 157.711981 88.167392 
L 157.677288 88.196118 
L 157.62801 88.23698 
L 157.404093 88.424732 
L 157.095308 88.683643 
L 156.985554 88.780631 
L 154.439588 90.925577 
L 154.003745 91.47512 
L 153.31142 92.279752 
L 152.840961 92.711429 
L 148.768568 96.44749 
L 145.839733 99.056268 
L 143.038519 101.345326 
L 143.033578 101.349354 
L 142.96825 101.402744 
L 142.761744 101.57134 
L 142.864252 101.615409 
L 142.389929 102.307334 
L 142.423639 102.306036 
L 142.300864 102.549561 
L 141.970214 102.402512 
L 141.760081 102.541469 
L 141.606233 102.698549 
L 141.392268 102.916912 
L 140.790562 104.390196 
L 140.586436 104.876605 
L 140.336977 105.255774 
L 139.90314 105.703253 
L 139.746903 105.846151 
L 139.720474 105.829071 
L 139.618749 105.754136 
L 138.070854 106.829982 
L 135.639515 108.520436 
L 134.196078 109.523633 
L 134.090336 109.72679 
L 133.059172 110.557136 
L 130.892173 112.352215 
L 130.799511 112.418984 
L 130.779018 112.434102 
L 130.630566 112.543962 
L 130.581197 112.580441 
L 130.444177 112.64086 
L 129.685871 113.320744 
L 129.518816 112.916496 
L 129.458073 112.986575 
L 128.981259 113.487609 
L 128.751426 113.571435 
L 128.62155 113.670314 
L 128.428753 113.842406 
L 128.155919 114.110821 
L 128.176239 114.171821 
L 127.748806 114.571298 
L 127.917284 115.033177 
L 129.415991 119.140422 
L 129.733863 120.008553 
L 129.640099 120.091899 
L 130.846434 123.37185 
L 131.112263 123.430184 
L 131.362125 124.141402 
L 131.692674 125.081209 
L 132.11712 126.29997 
L 132.819495 128.306911 
L 133.163209 129.271872 
L 133.333519 129.750087 
L 133.609032 130.533576 
L 134.692802 133.471881 
L 135.176626 134.77105 
L 135.499858 135.64743 
L 135.628894 135.999211 
L 136.730548 138.989621 
L 136.808186 139.190931 
L 137.03507 139.779515 
L 137.812101 141.837813 
L 138.199743 142.865143 
L 138.359092 143.251773 
L 138.840231 144.459647 
L 139.301345 145.533011 
L 139.748078 146.561969 
L 139.745907 146.610013 
L 140.1377 147.64093 
L 140.537204 148.693742 
L 140.922358 149.708673 
L 141.060146 150.071233 
L 141.181572 150.390559 
L 141.315333 150.742531 
L 141.649176 151.621289 
L 141.782931 151.973024 
L 141.962902 152.516105 
L 142.264857 153.413917 
L 142.749863 154.889209 
L 143.146986 156.094486 
L 144.304469 159.525873 
L 145.536907 163.088633 
L 145.505033 163.110712 
L 145.834418 164.231387 
L 145.848808 164.294776 
L 146.25972 166.0526 
L 147.293492 169.155349 
L 147.356297 169.342523 
L 147.420187 169.514841 
L 147.957723 170.96801 
L 148.028798 171.159861 
L 148.090247 171.307911 
L 149.121114 174.11007 
L 149.650319 175.551447 
L 150.362814 177.469451 
L 151.247833 179.854123 
L 152.666605 183.634456 
L 152.685553 183.458898 
L 153.597422 185.918134 
L 154.095632 187.640713 
L 155.093781 190.411538 
L 156.372462 193.737657 
L 157.882092 197.501663 
L 158.256818 198.434866 
L 158.492531 199.022793 
L 158.648216 199.401745 
L 159.489932 201.445646 
L 159.889035 202.41609 
L 160.045322 202.795623 
L 160.245381 203.335057 
L 160.571399 204.213242 
L 160.880072 205.046435 
L 161.22401 205.974405 
L 161.684394 207.215593 
L 162.131004 208.420667 
L 162.193719 208.588862 
L 162.269736 208.856601 
L 162.496081 209.649772 
L 162.885928 211.017556 
L 163.191911 212.089716 
L 163.340381 212.611572 
L 163.510028 213.080564 
L 163.5733 213.249933 
L 165.403228 213.642029 
L 178.286132 216.40008 
L 177.720702 218.349393 
L 177.522718 218.853022 
L 179.026055 219.261584 
L 179.254534 219.32365 
L 185.019404 220.876486 
L 188.052312 221.696665 
L 189.99352 222.221613 
L 190.47909 222.35295 
L 190.701365 221.974079 
L 191.006567 221.453928 
L 191.309453 221.536161 
L 193.550434 222.144624 
L 195.627297 222.703816 
L 202.374003 224.526627 
L 203.519955 224.834065 
L 203.317482 225.821992 
L 203.403773 225.845277 
L 210.717128 227.818827 
L 211.161714 227.938823 
L 211.631121 228.061303 
L 211.901288 228.010156 
L 212.301474 227.940492 
L 220.327758 226.543787 
L 220.654098 226.486941 
L 221.570881 226.327351 
L 221.987337 226.254785 
L 222.225735 225.915444 
L 223.147474 225.755095 
L 228.369502 224.846654 
L 228.417781 225.136447 
L 228.438467 225.13278 
L 228.77637 225.374804 
L 231.237593 241.190887 
L 231.132319 241.354844 
L 231.166578 241.522562 
L 227.053626 242.912424 
L 226.770043 243.01019 
L 226.487724 243.111606 
L 226.206666 243.216494 
L 225.926521 243.325159 
L 225.647756 243.437353 
L 225.370431 243.553074 
L 225.292364 243.586264 
L 225.214422 243.619748 
L 225.136604 243.653466 
L 224.939581 243.740753 
L 224.743365 243.829743 
L 224.483015 243.951504 
L 224.27668 244.050024 
L 224.007076 244.183016 
L 223.739143 244.319292 
L 223.339493 244.526387 
L 219.18625 246.661502 
L 217.422589 247.581646 
L 217.126844 247.735994 
L 217.024909 247.789179 
L 214.139201 249.272276 
L 212.479431 250.138093 
L 212.201819 250.282903 
L 211.700926 250.544194 
L 211.694432 250.544814 
L 211.530958 250.631892 
L 210.370392 251.226441 
L 207.764855 252.575886 
L 210.206957 254.139554 
L 210.368718 254.235652 
L 210.676187 254.419071 
L 210.890879 254.609852 
L 210.918179 254.632258 
L 212.709384 256.249999 
L 213.018538 256.519761 
L 214.89226 258.159277 
L 215.567117 258.757161 
L 217.733947 260.80381 
L 218.42281 261.384709 
L 219.579358 262.302815 
L 219.847801 262.397212 
L 220.422919 262.79961 
L 221.11567 263.285514 
L 221.308428 263.429749 
L 221.504286 263.569761 
L 221.703066 263.705496 
L 221.904766 263.836835 
L 222.109266 263.96378 
L 222.316447 264.086276 
L 222.52619 264.204265 
L 222.798495 264.379467 
L 223.073601 264.550276 
L 223.351388 264.716634 
L 223.631855 264.878484 
L 223.914823 265.03577 
L 224.115039 265.148396 
L 224.316677 265.2585 
L 224.519678 265.366022 
L 224.72404 265.470903 
L 225.074076 265.651368 
L 225.424114 265.831951 
L 225.774037 266.012657 
L 226.075302 266.160221 
L 226.378323 266.304245 
L 226.68298 266.444733 
L 227.182337 266.678693 
L 227.37767 266.771379 
L 227.575032 266.859512 
L 227.774303 266.943092 
L 227.975484 267.022122 
L 228.178397 267.096545 
L 229.541593 267.634212 
L 229.6709 267.689519 
L 230.910332 268.219223 
L 231.778089 268.590182 
L 232.712915 268.989781 
L 233.64212 269.384111 
L 234.050901 269.578401 
L 234.45827 269.775749 
L 234.864053 269.976278 
L 235.268307 270.179866 
L 235.67103 270.386515 
L 237.312504 271.285049 
L 237.822628 271.591697 
L 238.611613 272.065883 
L 239.064114 272.33787 
L 239.348328 272.536017 
L 239.620446 272.722214 
L 239.891094 272.91153 
L 240.119802 273.09834 
L 241.285239 274.003492 
L 241.519867 274.201207 
L 241.751092 274.402854 
L 241.978854 274.608434 
L 242.203153 274.817889 
L 242.423808 275.031103 
L 242.564733 275.154321 
L 242.684797 275.283819 
L 242.807851 275.414792 
L 243.100831 275.712296 
L 243.216122 275.845341 
L 243.334836 275.975343 
L 243.456909 276.102126 
L 243.582283 276.225691 
L 246.240589 278.04124 
L 246.917593 278.50359 
L 247.595436 278.966515 
L 247.812542 279.110758 
L 248.755671 279.516512 
L 250.602442 280.311053 
L 252.323064 281.051286 
L 252.733134 281.227658 
L 253.003461 281.331148 
L 253.150348 281.387378 
L 252.855918 282.38788 
L 253.015946 282.850316 
L 254.065403 283.623969 
L 254.594489 284.013992 
L 255.165069 284.434653 
L 255.63618 284.78189 
L 255.923332 284.993574 
L 256.215477 285.209003 
L 256.493908 285.414238 
L 256.782802 285.62713 
L 257.078795 285.84544 
L 257.357767 286.051079 
L 257.642932 286.261266 
L 257.833862 286.401946 
L 257.848587 286.37771 
L 258.030742 286.51212 
L 258.215765 286.642491 
L 258.403711 286.768644 
L 258.594403 286.890583 
L 258.787721 287.008192 
L 259.152234 287.206114 
L 259.516692 287.404274 
L 259.880977 287.602617 
L 259.949599 287.584063 
L 260.807017 288.125662 
L 261.572645 288.689536 
L 261.820997 288.872367 
L 263.200915 289.887332 
L 264.059684 290.519975 
L 264.919172 291.153257 
L 265.781976 291.778815 
L 266.641305 292.410563 
L 267.49764 293.038169 
L 268.451699 293.738354 
L 268.976198 294.123285 
L 269.503575 294.509991 
L 270.350401 295.133485 
L 270.726125 295.408592 
L 270.913052 295.438253 
L 271.226595 295.488 
L 271.382932 295.437006 
L 271.521387 295.146853 
L 271.91449 294.323696 
L 272.385716 293.34165 
L 272.722218 292.623098 
L 272.843798 292.358889 
L 271.754139 291.59858 
L 273.064657 291.147538 
L 273.717763 290.922245 
L 274.000659 290.824243 
L 274.325764 290.7116 
L 274.723958 290.573722 
L 274.479098 289.862864 
L 274.256731 289.216943 
L 274.612145 288.454368 
L 274.656181 288.37247 
L 274.756586 288.191255 
L 275.249287 287.302175 
L 275.376261 287.073087 
L 275.73644 286.228658 
L 275.799307 286.442317 
L 275.872994 286.645057 
L 275.993598 286.976737 
L 277.708233 283.580781 
L 278.505014 282.000458 
L 286.107927 278.733749 
L 289.904689 277.101968 
L 295.07087 274.882551 
L 295.376657 274.751138 
L 297.386196 273.887548 
L 297.870997 271.745491 
L 298.087169 270.788948 
L 300.012694 262.270039 
L 294.098529 260.926229 
L 290.59864 260.131013 
L 288.480173 259.649783 
L 288.751573 259.055378 
L 289.120959 258.244281 
L 289.304817 257.841065 
L 289.539717 257.324474 
L 289.555029 257.297141 
L 290.220581 255.882076 
L 290.527266 255.234803 
L 291.191116 253.828024 
L 291.573589 253.016877 
L 291.696363 252.754371 
L 292.008881 252.092258 
L 292.121057 251.85354 
L 292.547043 250.952146 
L 292.682746 250.66948 
L 292.921641 250.100063 
L 293.019674 249.869133 
L 293.310319 249.183361 
L 293.487032 248.769508 
L 293.659045 248.365193 
L 293.663154 248.355669 
L 293.970275 247.671075 
L 294.088348 247.404462 
L 294.252194 247.037525 
L 294.326784 246.873025 
L 294.691481 246.057175 
L 294.751982 245.921819 
L 295.404803 244.56845 
L 295.868404 243.606429 
L 296.099922 243.125988 
L 296.250925 242.812433 
L 296.398431 242.506608 
L 296.693909 241.873057 
L 296.745033 241.763182 
L 296.868429 241.498944 
L 296.998224 241.221632 
L 297.132799 240.933061 
L 297.610376 239.909332 
L 297.793658 239.513846 
L 297.957589 239.161148 
L 298.138576 238.776926 
L 298.687289 237.600582 
L 298.691367 237.592305 
L 298.811241 237.334553 
L 298.848257 237.255602 
L 298.930449 237.062637 
L 299.210486 236.401785 
L 299.630319 235.415051 
L 299.703625 235.226851 
L 299.775824 235.042175 
L 300.241144 233.853085 
L 300.460596 233.291461 
L 300.620124 232.853967 
L 300.715714 232.592185 
L 300.735061 232.551831 
L 300.821262 232.304258 
L 301.183698 231.319448 
L 301.198936 231.27788 
L 301.5532 230.125895 
L 301.621755 229.904519 
L 301.920383 228.942419 
L 302.070918 228.4563 
L 302.159317 228.171422 
L 302.271158 227.81175 
L 302.309821 227.686549 
L 302.534148 226.964226 
L 302.627394 226.525707 
L 302.849528 225.474947 
L 302.980003 224.860435 
" clip-path="url(#p1504cb93dd)" style="fill: #1f77b4"/>
   </g>
   <g id="matplotlib.axis_1">
    <g id="xtick_1">
     <g id="line2d_1">
      <defs>
       <path id="mf2012bb787" d="M 0 0 
L 0 3.5 
" style="stroke: #000000; stroke-width: 0.8"/>
      </defs>
      <g>
       <use xlink:href="#mf2012bb787" x="117.110684" y="307.584" style="stroke: #000000; stroke-width: 0.8"/>
      </g>
     </g>
     <g id="text_1">
      <!-- 13.36 -->
      <g transform="translate(102.796622 322.182437) scale(0.1 -0.1)">
       <defs>
        <path id="DejaVuSans-31" d="M 794 531 
L 1825 531 
L 1825 4091 
L 703 3866 
L 703 4441 
L 1819 4666 
L 2450 4666 
L 2450 531 
L 3481 531 
L 3481 0 
L 794 0 
L 794 531 
z
" transform="scale(0.015625)"/>
        <path id="DejaVuSans-33" d="M 2597 2516 
Q 3050 2419 3304 2112 
Q 3559 1806 3559 1356 
Q 3559 666 3084 287 
Q 2609 -91 1734 -91 
Q 1441 -91 1130 -33 
Q 819 25 488 141 
L 488 750 
Q 750 597 1062 519 
Q 1375 441 1716 441 
Q 2309 441 2620 675 
Q 2931 909 2931 1356 
Q 2931 1769 2642 2001 
Q 2353 2234 1838 2234 
L 1294 2234 
L 1294 2753 
L 1863 2753 
Q 2328 2753 2575 2939 
Q 2822 3125 2822 3475 
Q 2822 3834 2567 4026 
Q 2313 4219 1838 4219 
Q 1578 4219 1281 4162 
Q 984 4106 628 3988 
L 628 4550 
Q 988 4650 1302 4700 
Q 1616 4750 1894 4750 
Q 2613 4750 3031 4423 
Q 3450 4097 3450 3541 
Q 3450 3153 3228 2886 
Q 3006 2619 2597 2516 
z
" transform="scale(0.015625)"/>
        <path id="DejaVuSans-2e" d="M 684 794 
L 1344 794 
L 1344 0 
L 684 0 
L 684 794 
z
" transform="scale(0.015625)"/>
        <path id="DejaVuSans-36" d="M 2113 2584 
Q 1688 2584 1439 2293 
Q 1191 2003 1191 1497 
Q 1191 994 1439 701 
Q 1688 409 2113 409 
Q 2538 409 2786 701 
Q 3034 994 3034 1497 
Q 3034 2003 2786 2293 
Q 2538 2584 2113 2584 
z
M 3366 4563 
L 3366 3988 
Q 3128 4100 2886 4159 
Q 2644 4219 2406 4219 
Q 1781 4219 1451 3797 
Q 1122 3375 1075 2522 
Q 1259 2794 1537 2939 
Q 1816 3084 2150 3084 
Q 2853 3084 3261 2657 
Q 3669 2231 3669 1497 
Q 3669 778 3244 343 
Q 2819 -91 2113 -91 
Q 1303 -91 875 529 
Q 447 1150 447 2328 
Q 447 3434 972 4092 
Q 1497 4750 2381 4750 
Q 2619 4750 2861 4703 
Q 3103 4656 3366 4563 
z
" transform="scale(0.015625)"/>
       </defs>
       <use xlink:href="#DejaVuSans-31"/>
       <use xlink:href="#DejaVuSans-33" x="63.623047"/>
       <use xlink:href="#DejaVuSans-2e" x="127.246094"/>
       <use xlink:href="#DejaVuSans-33" x="159.033203"/>
       <use xlink:href="#DejaVuSans-36" x="222.65625"/>
      </g>
     </g>
    </g>
    <g id="xtick_2">
     <g id="line2d_2">
      <g>
       <use xlink:href="#mf2012bb787" x="157.337087" y="307.584" style="stroke: #000000; stroke-width: 0.8"/>
      </g>
     </g>
     <g id="text_2">
      <!-- 13.37 -->
      <g transform="translate(143.023025 322.182437) scale(0.1 -0.1)">
       <defs>
        <path id="DejaVuSans-37" d="M 525 4666 
L 3525 4666 
L 3525 4397 
L 1831 0 
L 1172 0 
L 2766 4134 
L 525 4134 
L 525 4666 
z
" transform="scale(0.015625)"/>
       </defs>
       <use xlink:href="#DejaVuSans-31"/>
       <use xlink:href="#DejaVuSans-33" x="63.623047"/>
       <use xlink:href="#DejaVuSans-2e" x="127.246094"/>
       <use xlink:href="#DejaVuSans-33" x="159.033203"/>
       <use xlink:href="#DejaVuSans-37" x="222.65625"/>
      </g>
     </g>
    </g>
    <g id="xtick_3">
     <g id="line2d_3">
      <g>
       <use xlink:href="#mf2012bb787" x="197.56349" y="307.584" style="stroke: #000000; stroke-width: 0.8"/>
      </g>
     </g>
     <g id="text_3">
      <!-- 13.38 -->
      <g transform="translate(183.249428 322.182437) scale(0.1 -0.1)">
       <defs>
        <path id="DejaVuSans-38" d="M 2034 2216 
Q 1584 2216 1326 1975 
Q 1069 1734 1069 1313 
Q 1069 891 1326 650 
Q 1584 409 2034 409 
Q 2484 409 2743 651 
Q 3003 894 3003 1313 
Q 3003 1734 2745 1975 
Q 2488 2216 2034 2216 
z
M 1403 2484 
Q 997 2584 770 2862 
Q 544 3141 544 3541 
Q 544 4100 942 4425 
Q 1341 4750 2034 4750 
Q 2731 4750 3128 4425 
Q 3525 4100 3525 3541 
Q 3525 3141 3298 2862 
Q 3072 2584 2669 2484 
Q 3125 2378 3379 2068 
Q 3634 1759 3634 1313 
Q 3634 634 3220 271 
Q 2806 -91 2034 -91 
Q 1263 -91 848 271 
Q 434 634 434 1313 
Q 434 1759 690 2068 
Q 947 2378 1403 2484 
z
M 1172 3481 
Q 1172 3119 1398 2916 
Q 1625 2713 2034 2713 
Q 2441 2713 2670 2916 
Q 2900 3119 2900 3481 
Q 2900 3844 2670 4047 
Q 2441 4250 2034 4250 
Q 1625 4250 1398 4047 
Q 1172 3844 1172 3481 
z
" transform="scale(0.015625)"/>
       </defs>
       <use xlink:href="#DejaVuSans-31"/>
       <use xlink:href="#DejaVuSans-33" x="63.623047"/>
       <use xlink:href="#DejaVuSans-2e" x="127.246094"/>
       <use xlink:href="#DejaVuSans-33" x="159.033203"/>
       <use xlink:href="#DejaVuSans-38" x="222.65625"/>
      </g>
     </g>
    </g>
    <g id="xtick_4">
     <g id="line2d_4">
      <g>
       <use xlink:href="#mf2012bb787" x="237.789893" y="307.584" style="stroke: #000000; stroke-width: 0.8"/>
      </g>
     </g>
     <g id="text_4">
      <!-- 13.39 -->
      <g transform="translate(223.475831 322.182437) scale(0.1 -0.1)">
       <defs>
        <path id="DejaVuSans-39" d="M 703 97 
L 703 672 
Q 941 559 1184 500 
Q 1428 441 1663 441 
Q 2288 441 2617 861 
Q 2947 1281 2994 2138 
Q 2813 1869 2534 1725 
Q 2256 1581 1919 1581 
Q 1219 1581 811 2004 
Q 403 2428 403 3163 
Q 403 3881 828 4315 
Q 1253 4750 1959 4750 
Q 2769 4750 3195 4129 
Q 3622 3509 3622 2328 
Q 3622 1225 3098 567 
Q 2575 -91 1691 -91 
Q 1453 -91 1209 -44 
Q 966 3 703 97 
z
M 1959 2075 
Q 2384 2075 2632 2365 
Q 2881 2656 2881 3163 
Q 2881 3666 2632 3958 
Q 2384 4250 1959 4250 
Q 1534 4250 1286 3958 
Q 1038 3666 1038 3163 
Q 1038 2656 1286 2365 
Q 1534 2075 1959 2075 
z
" transform="scale(0.015625)"/>
       </defs>
       <use xlink:href="#DejaVuSans-31"/>
       <use xlink:href="#DejaVuSans-33" x="63.623047"/>
       <use xlink:href="#DejaVuSans-2e" x="127.246094"/>
       <use xlink:href="#DejaVuSans-33" x="159.033203"/>
       <use xlink:href="#DejaVuSans-39" x="222.65625"/>
      </g>
     </g>
    </g>
    <g id="xtick_5">
     <g id="line2d_5">
      <g>
       <use xlink:href="#mf2012bb787" x="278.016296" y="307.584" style="stroke: #000000; stroke-width: 0.8"/>
      </g>
     </g>
     <g id="text_5">
      <!-- 13.40 -->
      <g transform="translate(263.702233 322.182437) scale(0.1 -0.1)">
       <defs>
        <path id="DejaVuSans-34" d="M 2419 4116 
L 825 1625 
L 2419 1625 
L 2419 4116 
z
M 2253 4666 
L 3047 4666 
L 3047 1625 
L 3713 1625 
L 3713 1100 
L 3047 1100 
L 3047 0 
L 2419 0 
L 2419 1100 
L 313 1100 
L 313 1709 
L 2253 4666 
z
" transform="scale(0.015625)"/>
        <path id="DejaVuSans-30" d="M 2034 4250 
Q 1547 4250 1301 3770 
Q 1056 3291 1056 2328 
Q 1056 1369 1301 889 
Q 1547 409 2034 409 
Q 2525 409 2770 889 
Q 3016 1369 3016 2328 
Q 3016 3291 2770 3770 
Q 2525 4250 2034 4250 
z
M 2034 4750 
Q 2819 4750 3233 4129 
Q 3647 3509 3647 2328 
Q 3647 1150 3233 529 
Q 2819 -91 2034 -91 
Q 1250 -91 836 529 
Q 422 1150 422 2328 
Q 422 3509 836 4129 
Q 1250 4750 2034 4750 
z
" transform="scale(0.015625)"/>
       </defs>
       <use xlink:href="#DejaVuSans-31"/>
       <use xlink:href="#DejaVuSans-33" x="63.623047"/>
       <use xlink:href="#DejaVuSans-2e" x="127.246094"/>
       <use xlink:href="#DejaVuSans-34" x="159.033203"/>
       <use xlink:href="#DejaVuSans-30" x="222.65625"/>
      </g>
     </g>
    </g>
    <g id="xtick_6">
     <g id="line2d_6">
      <g>
       <use xlink:href="#mf2012bb787" x="318.242699" y="307.584" style="stroke: #000000; stroke-width: 0.8"/>
      </g>
     </g>
     <g id="text_6">
      <!-- 13.41 -->
      <g transform="translate(303.928636 322.182437) scale(0.1 -0.1)">
       <use xlink:href="#DejaVuSans-31"/>
       <use xlink:href="#DejaVuSans-33" x="63.623047"/>
       <use xlink:href="#DejaVuSans-2e" x="127.246094"/>
       <use xlink:href="#DejaVuSans-34" x="159.033203"/>
       <use xlink:href="#DejaVuSans-31" x="222.65625"/>
      </g>
     </g>
    </g>
   </g>
   <g id="matplotlib.axis_2">
    <g id="ytick_1">
     <g id="line2d_7">
      <defs>
       <path id="mb2ba37271f" d="M 0 0 
L -3.5 0 
" style="stroke: #000000; stroke-width: 0.8"/>
      </defs>
      <g>
       <use xlink:href="#mb2ba37271f" x="116.907686" y="306.898621" style="stroke: #000000; stroke-width: 0.8"/>
      </g>
     </g>
     <g id="text_7">
      <!-- 52.415 -->
      <g transform="translate(74.917061 310.697839) scale(0.1 -0.1)">
       <defs>
        <path id="DejaVuSans-35" d="M 691 4666 
L 3169 4666 
L 3169 4134 
L 1269 4134 
L 1269 2991 
Q 1406 3038 1543 3061 
Q 1681 3084 1819 3084 
Q 2600 3084 3056 2656 
Q 3513 2228 3513 1497 
Q 3513 744 3044 326 
Q 2575 -91 1722 -91 
Q 1428 -91 1123 -41 
Q 819 9 494 109 
L 494 744 
Q 775 591 1075 516 
Q 1375 441 1709 441 
Q 2250 441 2565 725 
Q 2881 1009 2881 1497 
Q 2881 1984 2565 2268 
Q 2250 2553 1709 2553 
Q 1456 2553 1204 2497 
Q 953 2441 691 2322 
L 691 4666 
z
" transform="scale(0.015625)"/>
        <path id="DejaVuSans-32" d="M 1228 531 
L 3431 531 
L 3431 0 
L 469 0 
L 469 531 
Q 828 903 1448 1529 
Q 2069 2156 2228 2338 
Q 2531 2678 2651 2914 
Q 2772 3150 2772 3378 
Q 2772 3750 2511 3984 
Q 2250 4219 1831 4219 
Q 1534 4219 1204 4116 
Q 875 4013 500 3803 
L 500 4441 
Q 881 4594 1212 4672 
Q 1544 4750 1819 4750 
Q 2544 4750 2975 4387 
Q 3406 4025 3406 3419 
Q 3406 3131 3298 2873 
Q 3191 2616 2906 2266 
Q 2828 2175 2409 1742 
Q 1991 1309 1228 531 
z
" transform="scale(0.015625)"/>
       </defs>
       <use xlink:href="#DejaVuSans-35"/>
       <use xlink:href="#DejaVuSans-32" x="63.623047"/>
       <use xlink:href="#DejaVuSans-2e" x="127.246094"/>
       <use xlink:href="#DejaVuSans-34" x="159.033203"/>
       <use xlink:href="#DejaVuSans-31" x="222.65625"/>
       <use xlink:href="#DejaVuSans-35" x="286.279297"/>
      </g>
     </g>
    </g>
    <g id="ytick_2">
     <g id="line2d_8">
      <g>
       <use xlink:href="#mb2ba37271f" x="116.907686" y="273.907782" style="stroke: #000000; stroke-width: 0.8"/>
      </g>
     </g>
     <g id="text_8">
      <!-- 52.420 -->
      <g transform="translate(74.917061 277.707001) scale(0.1 -0.1)">
       <use xlink:href="#DejaVuSans-35"/>
       <use xlink:href="#DejaVuSans-32" x="63.623047"/>
       <use xlink:href="#DejaVuSans-2e" x="127.246094"/>
       <use xlink:href="#DejaVuSans-34" x="159.033203"/>
       <use xlink:href="#DejaVuSans-32" x="222.65625"/>
       <use xlink:href="#DejaVuSans-30" x="286.279297"/>
      </g>
     </g>
    </g>
    <g id="ytick_3">
     <g id="line2d_9">
      <g>
       <use xlink:href="#mb2ba37271f" x="116.907686" y="240.916944" style="stroke: #000000; stroke-width: 0.8"/>
      </g>
     </g>
     <g id="text_9">
      <!-- 52.425 -->
      <g transform="translate(74.917061 244.716163) scale(0.1 -0.1)">
       <use xlink:href="#DejaVuSans-35"/>
       <use xlink:href="#DejaVuSans-32" x="63.623047"/>
       <use xlink:href="#DejaVuSans-2e" x="127.246094"/>
       <use xlink:href="#DejaVuSans-34" x="159.033203"/>
       <use xlink:href="#DejaVuSans-32" x="222.65625"/>
       <use xlink:href="#DejaVuSans-35" x="286.279297"/>
      </g>
     </g>
    </g>
    <g id="ytick_4">
     <g id="line2d_10">
      <g>
       <use xlink:href="#mb2ba37271f" x="116.907686" y="207.926106" style="stroke: #000000; stroke-width: 0.8"/>
      </g>
     </g>
     <g id="text_10">
      <!-- 52.430 -->
      <g transform="translate(74.917061 211.725325) scale(0.1 -0.1)">
       <use xlink:href="#DejaVuSans-35"/>
       <use xlink:href="#DejaVuSans-32" x="63.623047"/>
       <use xlink:href="#DejaVuSans-2e" x="127.246094"/>
       <use xlink:href="#DejaVuSans-34" x="159.033203"/>
       <use xlink:href="#DejaVuSans-33" x="222.65625"/>
       <use xlink:href="#DejaVuSans-30" x="286.279297"/>
      </g>
     </g>
    </g>
    <g id="ytick_5">
     <g id="line2d_11">
      <g>
       <use xlink:href="#mb2ba37271f" x="116.907686" y="174.935268" style="stroke: #000000; stroke-width: 0.8"/>
      </g>
     </g>
     <g id="text_11">
      <!-- 52.435 -->
      <g transform="translate(74.917061 178.734487) scale(0.1 -0.1)">
       <use xlink:href="#DejaVuSans-35"/>
       <use xlink:href="#DejaVuSans-32" x="63.623047"/>
       <use xlink:href="#DejaVuSans-2e" x="127.246094"/>
       <use xlink:href="#DejaVuSans-34" x="159.033203"/>
       <use xlink:href="#DejaVuSans-33" x="222.65625"/>
       <use xlink:href="#DejaVuSans-35" x="286.279297"/>
      </g>
     </g>
    </g>
    <g id="ytick_6">
     <g id="line2d_12">
      <g>
       <use xlink:href="#mb2ba37271f" x="116.907686" y="141.94443" style="stroke: #000000; stroke-width: 0.8"/>
      </g>
     </g>
     <g id="text_12">
      <!-- 52.440 -->
      <g transform="translate(74.917061 145.743649) scale(0.1 -0.1)">
       <use xlink:href="#DejaVuSans-35"/>
       <use xlink:href="#DejaVuSans-32" x="63.623047"/>
       <use xlink:href="#DejaVuSans-2e" x="127.246094"/>
       <use xlink:href="#DejaVuSans-34" x="159.033203"/>
       <use xlink:href="#DejaVuSans-34" x="222.65625"/>
       <use xlink:href="#DejaVuSans-30" x="286.279297"/>
      </g>
     </g>
    </g>
    <g id="ytick_7">
     <g id="line2d_13">
      <g>
       <use xlink:href="#mb2ba37271f" x="116.907686" y="108.953592" style="stroke: #000000; stroke-width: 0.8"/>
      </g>
     </g>
     <g id="text_13">
      <!-- 52.445 -->
      <g transform="translate(74.917061 112.752811) scale(0.1 -0.1)">
       <use xlink:href="#DejaVuSans-35"/>
       <use xlink:href="#DejaVuSans-32" x="63.623047"/>
       <use xlink:href="#DejaVuSans-2e" x="127.246094"/>
       <use xlink:href="#DejaVuSans-34" x="159.033203"/>
       <use xlink:href="#DejaVuSans-34" x="222.65625"/>
       <use xlink:href="#DejaVuSans-35" x="286.279297"/>
      </g>
     </g>
    </g>
    <g id="ytick_8">
     <g id="line2d_14">
      <g>
       <use xlink:href="#mb2ba37271f" x="116.907686" y="75.962754" style="stroke: #000000; stroke-width: 0.8"/>
      </g>
     </g>
     <g id="text_14">
      <!-- 52.450 -->
      <g transform="translate(74.917061 79.761972) scale(0.1 -0.1)">
       <use xlink:href="#DejaVuSans-35"/>
       <use xlink:href="#DejaVuSans-32" x="63.623047"/>
       <use xlink:href="#DejaVuSans-2e" x="127.246094"/>
       <use xlink:href="#DejaVuSans-34" x="159.033203"/>
       <use xlink:href="#DejaVuSans-35" x="222.65625"/>
       <use xlink:href="#DejaVuSans-30" x="286.279297"/>
      </g>
     </g>
    </g>
    <g id="ytick_9">
     <g id="line2d_15">
      <g>
       <use xlink:href="#mb2ba37271f" x="116.907686" y="42.971915" style="stroke: #000000; stroke-width: 0.8"/>
      </g>
     </g>
     <g id="text_15">
      <!-- 52.455 -->
      <g transform="translate(74.917061 46.771134) scale(0.1 -0.1)">
       <use xlink:href="#DejaVuSans-35"/>
       <use xlink:href="#DejaVuSans-32" x="63.623047"/>
       <use xlink:href="#DejaVuSans-2e" x="127.246094"/>
       <use xlink:href="#DejaVuSans-34" x="159.033203"/>
       <use xlink:href="#DejaVuSans-35" x="222.65625"/>
       <use xlink:href="#DejaVuSans-35" x="286.279297"/>
      </g>
     </g>
    </g>
   </g>
   <g id="patch_3">
    <path d="M 116.907686 307.584 
L 116.907686 41.472 
" style="fill: none; stroke: #000000; stroke-width: 0.8; stroke-linejoin: miter; stroke-linecap: square"/>
   </g>
   <g id="patch_4">
    <path d="M 355.412314 307.584 
L 355.412314 41.472 
" style="fill: none; stroke: #000000; stroke-width: 0.8; stroke-linejoin: miter; stroke-linecap: square"/>
   </g>
   <g id="patch_5">
    <path d="M 116.907686 307.584 
L 355.412314 307.584 
" style="fill: none; stroke: #000000; stroke-width: 0.8; stroke-linejoin: miter; stroke-linecap: square"/>
   </g>
   <g id="patch_6">
    <path d="M 116.907686 41.472 
L 355.412314 41.472 
" style="fill: none; stroke: #000000; stroke-width: 0.8; stroke-linejoin: miter; stroke-linecap: square"/>
   </g>
   <g id="text_16">
    <!-- Mariendorf -->
    <g transform="translate(208.879544 155.112637) scale(0.12 -0.12)">
     <defs>
      <path id="DejaVuSans-4d" d="M 628 4666 
L 1569 4666 
L 2759 1491 
L 3956 4666 
L 4897 4666 
L 4897 0 
L 4281 0 
L 4281 4097 
L 3078 897 
L 2444 897 
L 1241 4097 
L 1241 0 
L 628 0 
L 628 4666 
z
" transform="scale(0.015625)"/>
      <path id="DejaVuSans-61" d="M 2194 1759 
Q 1497 1759 1228 1600 
Q 959 1441 959 1056 
Q 959 750 1161 570 
Q 1363 391 1709 391 
Q 2188 391 2477 730 
Q 2766 1069 2766 1631 
L 2766 1759 
L 2194 1759 
z
M 3341 1997 
L 3341 0 
L 2766 0 
L 2766 531 
Q 2569 213 2275 61 
Q 1981 -91 1556 -91 
Q 1019 -91 701 211 
Q 384 513 384 1019 
Q 384 1609 779 1909 
Q 1175 2209 1959 2209 
L 2766 2209 
L 2766 2266 
Q 2766 2663 2505 2880 
Q 2244 3097 1772 3097 
Q 1472 3097 1187 3025 
Q 903 2953 641 2809 
L 641 3341 
Q 956 3463 1253 3523 
Q 1550 3584 1831 3584 
Q 2591 3584 2966 3190 
Q 3341 2797 3341 1997 
z
" transform="scale(0.015625)"/>
      <path id="DejaVuSans-72" d="M 2631 2963 
Q 2534 3019 2420 3045 
Q 2306 3072 2169 3072 
Q 1681 3072 1420 2755 
Q 1159 2438 1159 1844 
L 1159 0 
L 581 0 
L 581 3500 
L 1159 3500 
L 1159 2956 
Q 1341 3275 1631 3429 
Q 1922 3584 2338 3584 
Q 2397 3584 2469 3576 
Q 2541 3569 2628 3553 
L 2631 2963 
z
" transform="scale(0.015625)"/>
      <path id="DejaVuSans-69" d="M 603 3500 
L 1178 3500 
L 1178 0 
L 603 0 
L 603 3500 
z
M 603 4863 
L 1178 4863 
L 1178 4134 
L 603 4134 
L 603 4863 
z
" transform="scale(0.015625)"/>
      <path id="DejaVuSans-65" d="M 3597 1894 
L 3597 1613 
L 953 1613 
Q 991 1019 1311 708 
Q 1631 397 2203 397 
Q 2534 397 2845 478 
Q 3156 559 3463 722 
L 3463 178 
Q 3153 47 2828 -22 
Q 2503 -91 2169 -91 
Q 1331 -91 842 396 
Q 353 884 353 1716 
Q 353 2575 817 3079 
Q 1281 3584 2069 3584 
Q 2775 3584 3186 3129 
Q 3597 2675 3597 1894 
z
M 3022 2063 
Q 3016 2534 2758 2815 
Q 2500 3097 2075 3097 
Q 1594 3097 1305 2825 
Q 1016 2553 972 2059 
L 3022 2063 
z
" transform="scale(0.015625)"/>
      <path id="DejaVuSans-6e" d="M 3513 2113 
L 3513 0 
L 2938 0 
L 2938 2094 
Q 2938 2591 2744 2837 
Q 2550 3084 2163 3084 
Q 1697 3084 1428 2787 
Q 1159 2491 1159 1978 
L 1159 0 
L 581 0 
L 581 3500 
L 1159 3500 
L 1159 2956 
Q 1366 3272 1645 3428 
Q 1925 3584 2291 3584 
Q 2894 3584 3203 3211 
Q 3513 2838 3513 2113 
z
" transform="scale(0.015625)"/>
      <path id="DejaVuSans-64" d="M 2906 2969 
L 2906 4863 
L 3481 4863 
L 3481 0 
L 2906 0 
L 2906 525 
Q 2725 213 2448 61 
Q 2172 -91 1784 -91 
Q 1150 -91 751 415 
Q 353 922 353 1747 
Q 353 2572 751 3078 
Q 1150 3584 1784 3584 
Q 2172 3584 2448 3432 
Q 2725 3281 2906 2969 
z
M 947 1747 
Q 947 1113 1208 752 
Q 1469 391 1925 391 
Q 2381 391 2643 752 
Q 2906 1113 2906 1747 
Q 2906 2381 2643 2742 
Q 2381 3103 1925 3103 
Q 1469 3103 1208 2742 
Q 947 2381 947 1747 
z
" transform="scale(0.015625)"/>
      <path id="DejaVuSans-6f" d="M 1959 3097 
Q 1497 3097 1228 2736 
Q 959 2375 959 1747 
Q 959 1119 1226 758 
Q 1494 397 1959 397 
Q 2419 397 2687 759 
Q 2956 1122 2956 1747 
Q 2956 2369 2687 2733 
Q 2419 3097 1959 3097 
z
M 1959 3584 
Q 2709 3584 3137 3096 
Q 3566 2609 3566 1747 
Q 3566 888 3137 398 
Q 2709 -91 1959 -91 
Q 1206 -91 779 398 
Q 353 888 353 1747 
Q 353 2609 779 3096 
Q 1206 3584 1959 3584 
z
" transform="scale(0.015625)"/>
      <path id="DejaVuSans-66" d="M 2375 4863 
L 2375 4384 
L 1825 4384 
Q 1516 4384 1395 4259 
Q 1275 4134 1275 3809 
L 1275 3500 
L 2222 3500 
L 2222 3053 
L 1275 3053 
L 1275 0 
L 697 0 
L 697 3053 
L 147 3053 
L 147 3500 
L 697 3500 
L 697 3744 
Q 697 4328 969 4595 
Q 1241 4863 1831 4863 
L 2375 4863 
z
" transform="scale(0.015625)"/>
     </defs>
     <use xlink:href="#DejaVuSans-4d"/>
     <use xlink:href="#DejaVuSans-61" x="86.279297"/>
     <use xlink:href="#DejaVuSans-72" x="147.558594"/>
     <use xlink:href="#DejaVuSans-69" x="188.671875"/>
     <use xlink:href="#DejaVuSans-65" x="216.455078"/>
     <use xlink:href="#DejaVuSans-6e" x="277.978516"/>
     <use xlink:href="#DejaVuSans-64" x="341.357422"/>
     <use xlink:href="#DejaVuSans-6f" x="404.833984"/>
     <use xlink:href="#DejaVuSans-72" x="466.015625"/>
     <use xlink:href="#DejaVuSans-66" x="507.128906"/>
    </g>
   </g>
  </g>
 </g>
 <defs>
  <clipPath id="p1504cb93dd">
   <rect x="116.907686" y="41.472" width="238.504627" height="266.112"/>
  </clipPath>
 </defs>
</svg>
