<?xml version="1.0" encoding="utf-8" standalone="no"?>
<!DOCTYPE svg PUBLIC "-//W3C//DTD SVG 1.1//EN"
  "http://www.w3.org/Graphics/SVG/1.1/DTD/svg11.dtd">
<svg xmlns:xlink="http://www.w3.org/1999/xlink" width="720pt" height="720pt" viewBox="0 0 720 720" xmlns="http://www.w3.org/2000/svg" version="1.1">
 <metadata>
  <rdf:RDF xmlns:dc="http://purl.org/dc/elements/1.1/" xmlns:cc="http://creativecommons.org/ns#" xmlns:rdf="http://www.w3.org/1999/02/22-rdf-syntax-ns#">
   <cc:Work>
    <dc:type rdf:resource="http://purl.org/dc/dcmitype/StillImage"/>
    <dc:date>2024-10-17T11:38:36.356839</dc:date>
    <dc:format>image/svg+xml</dc:format>
    <dc:creator>
     <cc:Agent>
      <dc:title>Matplotlib v3.9.2, https://matplotlib.org/</dc:title>
     </cc:Agent>
    </dc:creator>
   </cc:Work>
  </rdf:RDF>
 </metadata>
 <defs>
  <style type="text/css">*{stroke-linejoin: round; stroke-linecap: butt}</style>
 </defs>
 <g id="figure_1">
  <g id="patch_1">
   <path d="M 0 720 
L 720 720 
L 720 0 
L 0 0 
z
" style="fill: #ffffff"/>
  </g>
  <g id="axes_1">
   <g id="patch_2">
    <path d="M 98.916723 640.8 
L 639.083277 640.8 
L 639.083277 86.4 
L 98.916723 86.4 
z
" style="fill: #ffffff"/>
   </g>
   <g id="PatchCollection_1">
    <path d="M 218.403789 199.84179 
L 217.80897 200.059022 
L 217.657546 200.114229 
L 217.446513 200.191036 
L 217.357254 200.243376 
L 216.748459 200.598293 
L 210.168307 204.517035 
L 207.804435 205.924876 
L 202.282596 209.213361 
L 198.83873 211.259066 
L 195.782711 213.107698 
L 195.562535 213.228116 
L 194.148524 213.997502 
L 193.585609 214.302719 
L 193.009927 214.590035 
L 187.040355 217.42043 
L 186.275699 217.74521 
L 185.727518 218.098191 
L 181.510593 220.478153 
L 181.337169 220.581196 
L 180.776931 220.898413 
L 180.766626 220.904312 
L 180.212396 221.221538 
L 180.038178 221.327162 
L 179.445548 221.655542 
L 178.1683 222.51761 
L 177.892906 222.683373 
L 175.96634 223.959347 
L 175.725846 224.119104 
L 173.798358 225.40271 
L 173.206043 225.796862 
L 173.14572 225.835482 
L 172.491265 226.252068 
L 171.835144 226.670316 
L 171.181609 227.086028 
L 170.529694 227.501705 
L 170.261158 227.672612 
L 169.850401 227.879144 
L 169.164146 228.224115 
L 168.30707 228.655077 
L 167.744125 228.942393 
L 167.167567 229.219515 
L 164.912295 230.304722 
L 163.775289 230.851175 
L 161.729294 231.850209 
L 160.428192 232.481828 
L 160.304937 232.545465 
L 159.045931 233.176381 
L 158.603395 233.398087 
L 156.390902 234.507046 
L 155.819431 234.793549 
L 155.253182 235.099663 
L 153.001032 236.307863 
L 152.966136 236.325062 
L 150.521007 237.637291 
L 149.295037 238.295154 
L 148.057188 238.959016 
L 146.81926 239.622969 
L 146.248847 239.929107 
L 144.696554 240.812702 
L 144.434795 240.962287 
L 142.311255 242.170928 
L 142.20414 242.231894 
L 141.388627 244.581176 
L 140.955417 244.467599 
L 140.676807 244.39421 
L 140.398515 244.319875 
L 140.120458 244.244594 
L 139.8434 244.168266 
L 139.566575 244.090993 
L 139.29007 244.012774 
L 138.732028 244.333841 
L 137.83153 244.954463 
L 136.832133 245.603748 
L 136.746296 245.65953 
L 133.818868 247.57742 
L 131.813446 248.890602 
L 130.866419 249.510769 
L 130.305274 249.878215 
L 129.88026 250.156522 
L 128.891104 250.801577 
L 126.037699 252.669648 
L 123.469748 254.35044 
L 124.280519 257.331886 
L 125.262421 260.942764 
L 125.282533 261.065557 
L 125.530408 262.579161 
L 125.518823 262.892478 
L 125.460389 264.492641 
L 125.438004 265.101404 
L 125.466737 266.331507 
L 125.487162 267.213302 
L 125.50684 268.095968 
L 125.533426 269.232248 
L 125.503431 269.832473 
L 125.461551 270.677006 
L 125.442463 271.023722 
L 125.416404 271.535195 
L 125.361245 272.678563 
L 125.301348 273.059528 
L 125.07525 274.491259 
L 124.764359 276.463744 
L 124.730388 276.703775 
L 124.667387 277.085046 
L 124.59473 277.524752 
L 125.402419 277.545488 
L 126.764673 277.572536 
L 126.977677 277.576869 
L 126.8411 281.331914 
L 126.685612 285.650117 
L 126.03918 300.084768 
L 125.299601 315.911544 
L 128.937631 319.627214 
L 133.242674 324.024088 
L 142.031414 332.831381 
L 142.732468 333.535192 
L 143.305391 334.11006 
L 147.749167 338.561215 
L 147.782476 338.594362 
L 150.98496 341.793101 
L 153.416163 344.247019 
L 154.151164 345.043603 
L 154.701534 345.624896 
L 156.082652 347.08378 
L 157.095044 348.135647 
L 158.12319 349.205946 
L 159.180482 350.306502 
L 160.245274 351.414833 
L 160.462538 351.675162 
L 161.385701 352.607876 
L 162.530052 353.764018 
L 163.985176 355.167166 
L 165.358481 356.521538 
L 167.555446 358.687919 
L 167.857925 358.986108 
L 167.927491 359.051141 
L 170.362795 361.353364 
L 170.955307 361.826347 
L 173.845509 364.135272 
L 174.129192 364.356763 
L 174.428528 364.595835 
L 177.043203 366.627583 
L 178.667766 367.897931 
L 179.230819 368.335296 
L 180.210836 369.099849 
L 180.929503 369.76309 
L 181.116233 369.935473 
L 181.398114 370.195697 
L 182.340645 371.110931 
L 183.418324 372.157696 
L 183.941448 372.664569 
L 186.339372 374.990458 
L 186.415268 375.071836 
L 187.384623 376.009787 
L 188.295375 376.911324 
L 189.179811 377.783653 
L 190.177105 378.762998 
L 191.133126 379.703654 
L 191.191379 379.762372 
L 192.1086 380.465433 
L 193.852585 381.802217 
L 194.896576 382.602414 
L 195.004521 382.684344 
L 196.211577 383.600067 
L 197.253115 384.390162 
L 198.316151 385.196596 
L 199.386033 386.008259 
L 200.403372 386.780122 
L 201.549803 387.649921 
L 202.51884 388.385051 
L 202.541747 388.403235 
L 203.568449 389.220248 
L 204.61172 390.050467 
L 205.69551 390.912908 
L 206.753264 391.754675 
L 207.788885 392.578756 
L 207.992365 392.740683 
L 208.786216 393.424126 
L 209.759349 394.284741 
L 210.492139 394.93225 
L 210.807075 395.218655 
L 211.802873 396.139831 
L 212.805803 397.067595 
L 213.808207 397.994946 
L 214.791288 398.90446 
L 215.76627 399.806473 
L 216.747426 400.714157 
L 217.031745 400.969573 
L 217.654176 401.496863 
L 218.502488 402.261426 
L 219.504054 403.164125 
L 219.833419 403.463703 
L 220.63757 403.990366 
L 220.958527 404.200877 
L 222.990247 405.53115 
L 223.248064 405.700134 
L 225.086319 406.761315 
L 227.074775 407.909032 
L 227.935468 408.510359 
L 230.47117 410.272438 
L 231.040567 410.672883 
L 231.666411 411.102175 
L 237.647285 415.324947 
L 242.54608 417.805012 
L 247.975321 420.498431 
L 256.409206 425.642229 
L 263.380973 429.901934 
L 271.858746 435.07836 
L 282.365752 441.492554 
L 292.782841 447.855143 
L 292.668452 448.48989 
L 290.394938 461.088689 
L 288.924467 469.10276 
L 287.29553 478.000972 
L 285.549565 487.757623 
L 284.473735 493.666683 
L 283.533402 498.871845 
L 286.852686 498.980406 
L 300.113019 500.056258 
L 311.331503 501.094397 
L 320.728803 501.403202 
L 326.980417 501.541241 
L 331.9148 501.434543 
L 332.344687 501.402328 
L 341.175889 500.737764 
L 343.040867 500.598249 
L 344.841149 500.460621 
L 346.481442 500.349143 
L 347.88256 500.253887 
L 353.287769 499.887204 
L 355.497527 499.733775 
L 359.301649 499.471668 
L 369.02493 498.709028 
L 373.336835 498.312081 
L 375.24431 498.136738 
L 378.038705 497.879804 
L 381.757199 497.473927 
L 382.086476 500.394029 
L 382.255534 502.081572 
L 382.435603 503.996161 
L 382.599436 505.935372 
L 382.812641 508.102906 
L 383.007317 510.349011 
L 383.206133 512.352356 
L 383.410066 514.574423 
L 383.494305 515.391019 
L 383.576208 516.184987 
L 383.783446 518.352826 
L 384.027765 520.924282 
L 384.194274 522.632041 
L 384.358313 524.339856 
L 384.522281 526.048442 
L 384.686232 527.756259 
L 384.851134 529.464823 
L 385.015101 531.173494 
L 385.178165 532.883809 
L 385.345049 534.677831 
L 385.623895 537.669191 
L 385.695369 538.43984 
L 385.747245 539.206315 
L 386.015762 543.177885 
L 386.209042 546.037226 
L 386.232294 546.382044 
L 386.43547 549.383979 
L 386.488223 550.163247 
L 386.541061 550.942513 
L 386.593795 551.720928 
L 386.653774 552.60689 
L 386.716444 553.537294 
L 386.748635 554.008413 
L 386.804116 554.83383 
L 386.966965 557.244221 
L 386.989363 557.565996 
L 387.118129 558.688219 
L 387.114818 558.700166 
L 386.625117 560.989844 
L 386.306438 562.474411 
L 386.734924 565.677506 
L 387.210547 569.147071 
L 387.167018 571.955929 
L 386.619188 576.036462 
L 386.372727 579.034014 
L 386.394237 582.661415 
L 386.336309 585.009861 
L 386.537586 587.295114 
L 387.199395 590.486588 
L 387.632922 593.561875 
L 388.317843 599.239471 
L 388.574776 599.254484 
L 394.615737 599.607243 
L 395.225464 599.624204 
L 395.782914 599.65711 
L 398.44508 599.799847 
L 401.372462 599.958633 
L 404.33473 600.116149 
L 407.228131 600.271293 
L 407.338646 600.277711 
L 410.216677 600.461918 
L 415.974822 600.824708 
L 419.56111 601.053074 
L 423.299418 601.312508 
L 426.908792 601.614735 
L 427.126789 601.632946 
L 427.360277 601.196568 
L 428.011638 601.236311 
L 428.821446 601.285683 
L 438.671476 601.885831 
L 445.245189 602.696156 
L 446.526569 602.85467 
L 452.771364 603.611602 
L 458.247561 604.118581 
L 459.547494 604.257675 
L 466.803348 605.404017 
L 469.195227 605.781935 
L 478.667714 607.465155 
L 479.341184 607.562144 
L 482.748234 607.978236 
L 490.827145 608.298917 
L 497.021363 608.86604 
L 503.039314 609.943235 
L 508.150219 610.890367 
L 512.694021 611.367979 
L 517.317526 610.69521 
L 519.45927 610.252446 
L 522.298557 609.828067 
L 523.827515 609.526779 
L 529.771842 608.589566 
L 529.748266 608.683615 
L 528.65881 613.03161 
L 543.669335 613.846006 
L 549.618257 614.169371 
L 552.37662 614.317466 
L 554.748422 614.44545 
L 557.639452 614.600917 
L 558.018283 614.622073 
L 558.123902 614.626844 
L 558.324789 614.638238 
L 559.843214 614.720489 
L 559.937287 614.730811 
L 560.265029 614.748391 
L 560.648844 614.763802 
L 560.918273 614.778476 
L 565.469891 615.025696 
L 566.213389 615.066794 
L 566.577116 615.08658 
L 567.320002 615.126925 
L 567.689697 615.147008 
L 568.478455 615.189936 
L 570.687332 615.310051 
L 571.534834 615.35614 
L 576.018918 615.6 
L 577.104396 612.686267 
L 577.262174 612.258637 
L 577.721509 611.013294 
L 579.316362 606.995945 
L 580.107675 605.073677 
L 580.882003 603.19244 
L 581.630122 601.347056 
L 582.365582 599.541924 
L 583.079911 597.775181 
L 584.554725 594.334731 
L 590.276172 580.935111 
L 591.272779 578.61051 
L 592.244488 576.34283 
L 593.195902 574.093192 
L 594.121882 571.903306 
L 595.026823 569.763849 
L 597.022964 565.16176 
L 597.345096 564.413654 
L 597.696188 563.594961 
L 597.917893 563.077622 
L 598.217506 562.378782 
L 598.364074 562.037077 
L 598.433787 561.874374 
L 598.809683 560.99757 
L 599.046154 560.446256 
L 599.733763 558.839171 
L 600.403581 557.271511 
L 601.040496 555.780848 
L 601.667829 554.315506 
L 602.29794 552.840624 
L 602.561526 552.223548 
L 602.935753 551.347553 
L 603.613738 549.758793 
L 604.230578 548.311452 
L 604.84243 546.87353 
L 605.447175 545.457205 
L 606.111322 543.901039 
L 606.790728 542.306019 
L 607.464633 540.724103 
L 608.118995 539.187373 
L 608.464681 538.388538 
L 608.795067 537.59892 
L 609.465373 536.027166 
L 610.134909 534.455002 
L 611.003441 532.381037 
L 611.082614 532.198485 
L 611.146132 532.052063 
L 611.196513 531.936165 
L 611.330964 531.651446 
L 611.567492 531.065886 
L 611.688666 530.765911 
L 612.763066 528.199992 
L 613.819585 525.73594 
L 614.530252 524.004697 
L 614.466542 520.257789 
L 614.399126 519.172003 
L 614.331109 518.023108 
L 614.304131 517.800334 
L 613.865769 515.537068 
L 613.531501 513.835703 
L 613.216659 512.173974 
L 612.90336 510.501023 
L 612.612029 508.823834 
L 612.458677 507.982418 
L 612.304677 507.134695 
L 611.987602 505.452944 
L 611.791526 504.417029 
L 611.58774 503.709022 
L 611.120906 502.062569 
L 610.758068 500.784722 
L 610.093524 498.443883 
L 609.925676 497.8024 
L 609.857348 497.527144 
L 609.734606 497.032959 
L 609.707164 496.922432 
L 609.567984 496.36164 
L 608.943233 493.845345 
L 608.5722 492.351492 
L 608.197416 490.84192 
L 607.824875 489.341609 
L 607.451492 487.837985 
L 607.080906 486.345576 
L 606.667844 484.682153 
L 606.25561 483.021701 
L 606.177947 482.709066 
L 605.837597 481.338485 
L 605.105639 478.39088 
L 602.056321 467.252203 
L 601.598649 465.580192 
L 601.221001 464.199922 
L 600.608527 461.963194 
L 599.017093 456.150313 
L 595.473312 443.342104 
L 593.673939 436.847473 
L 593.328971 435.601197 
L 593.200361 435.136699 
L 593.132585 434.891757 
L 592.613736 433.034802 
L 592.411614 432.30456 
L 592.203385 431.552158 
L 591.75679 429.95047 
L 591.25479 428.140212 
L 590.751245 426.329562 
L 590.247696 424.518998 
L 589.744229 422.708432 
L 589.240755 420.897782 
L 588.737193 419.08722 
L 588.233712 417.276657 
L 588.031158 416.546854 
L 587.732379 415.474931 
L 587.595874 414.984897 
L 587.226456 413.654343 
L 586.636004 411.532124 
L 586.500961 410.976288 
L 586.293646 410.286394 
L 585.435481 407.205263 
L 584.932505 405.399647 
L 584.430259 403.596492 
L 583.925895 401.78621 
L 583.425301 399.988915 
L 582.907332 398.129476 
L 582.401467 396.313505 
L 581.903101 394.525217 
L 581.449649 392.901909 
L 581.284474 392.308981 
L 581.109867 391.682008 
L 580.935173 391.055037 
L 580.168582 388.309048 
L 579.666927 386.499737 
L 579.414883 385.592076 
L 579.162733 384.683563 
L 578.659406 382.86831 
L 578.158646 381.061544 
L 577.615698 379.102039 
L 577.157213 377.460093 
L 577.153599 377.44715 
L 575.87715 372.710875 
L 574.264904 366.725751 
L 573.782003 364.930898 
L 573.56428 364.121315 
L 573.448016 363.689694 
L 573.331854 363.25884 
L 573.300854 363.146258 
L 573.21559 362.827219 
L 573.039149 362.172017 
L 572.862691 361.516047 
L 572.820534 361.360746 
L 572.746443 361.085195 
L 572.70623 360.937026 
L 572.630262 360.653573 
L 572.5141 360.222804 
L 572.339293 359.576194 
L 572.294576 359.40899 
L 571.632422 356.944309 
L 570.669375 353.377784 
L 570.519286 352.8216 
L 569.462658 348.915295 
L 569.351584 348.503207 
L 569.087222 347.529113 
L 568.562918 345.58843 
L 568.172933 344.144997 
L 567.783032 342.701649 
L 567.334577 341.058687 
L 567.279718 340.852586 
L 567.160971 340.406698 
L 567.060664 340.030052 
L 567.00135 339.807221 
L 566.279929 337.120914 
L 565.793461 335.306418 
L 565.306186 333.490232 
L 564.818839 331.674902 
L 564.331574 329.859572 
L 564.235941 329.503436 
L 563.844218 328.044244 
L 563.356944 326.228914 
L 562.870432 324.413569 
L 562.383149 322.598241 
L 562.139464 321.690578 
L 562.051612 320.742343 
L 561.914412 319.259036 
L 561.741272 317.386425 
L 561.568053 315.518087 
L 561.388787 313.587528 
L 561.429598 312.98975 
L 562.093289 305.629636 
L 562.341196 302.779181 
L 562.417722 302.029349 
L 562.502603 301.033679 
L 562.567378 300.744921 
L 562.945878 299.055133 
L 563.323426 297.364512 
L 563.701915 295.673957 
L 564.046746 294.131908 
L 566.41808 293.179223 
L 568.892394 292.18432 
L 569.434325 289.272421 
L 568.01385 288.815482 
L 566.205451 288.234998 
L 562.007055 286.887104 
L 561.53302 286.734867 
L 560.648542 286.348967 
L 560.401944 286.195161 
L 560.29262 286.122051 
L 559.883731 285.865975 
L 559.370116 285.544376 
L 558.186478 284.803138 
L 558.025243 284.706312 
L 556.67344 283.855591 
L 556.242429 283.589669 
L 554.783138 282.676141 
L 554.711405 282.626807 
L 553.315254 281.755803 
L 552.463599 281.223054 
L 551.843987 280.825294 
L 551.611852 280.670577 
L 550.393148 279.893829 
L 548.936245 278.958147 
L 548.243202 278.499993 
L 548.017959 278.368275 
L 546.989482 277.70882 
L 545.736589 276.897218 
L 543.01398 275.134522 
L 541.940348 274.437635 
L 541.698754 274.287231 
L 538.076601 271.952664 
L 535.385318 270.724457 
L 534.466598 270.299391 
L 531.353897 268.883766 
L 530.813068 268.636942 
L 530.276413 268.362778 
L 530.175776 268.309302 
L 526.786041 266.578559 
L 524.050777 265.182356 
L 521.955339 264.112886 
L 518.433472 262.920505 
L 518.389158 262.905253 
L 517.836499 262.71824 
L 517.282321 262.555178 
L 516.724711 262.391167 
L 514.69773 262.019095 
L 513.158371 261.736817 
L 513.045848 261.716663 
L 512.078784 261.653847 
L 511.563327 261.635829 
L 510.551126 261.582469 
L 509.96321 261.548369 
L 508.847906 261.488574 
L 508.364733 261.461904 
L 507.147158 261.394717 
L 506.768006 261.373612 
L 505.44479 261.29313 
L 505.169651 261.288865 
L 504.469244 261.251702 
L 503.910461 261.27898 
L 503.564679 261.314199 
L 502.201908 261.400221 
L 501.965199 261.426543 
L 500.486558 261.522387 
L 500.36647 261.538107 
L 499.201336 261.619348 
L 498.766258 261.690709 
L 497.856013 261.843713 
L 497.351122 261.926355 
L 496.654588 262.042014 
L 496.063701 262.140308 
L 495.599653 262.223672 
L 495.464243 262.248017 
L 494.283289 262.462442 
L 494.033017 262.507603 
L 493.110938 262.672667 
L 492.46808 262.787318 
L 491.893304 262.877831 
L 490.890368 263.07125 
L 490.577825 263.114031 
L 490.181148 263.198987 
L 489.319658 263.409869 
L 489.159606 263.437665 
L 487.667387 263.814531 
L 485.393631 264.371312 
L 484.641961 264.55287 
L 482.695153 265.031798 
L 482.319783 265.12432 
L 481.937547 265.218532 
L 480.92628 265.466654 
L 479.796613 265.745073 
L 479.46634 265.82635 
L 478.051584 266.174801 
L 477.12968 266.40131 
L 476.641052 266.521456 
L 475.141204 266.891531 
L 473.646413 267.258938 
L 471.445927 267.801105 
L 469.893254 268.183217 
L 468.718266 264.790739 
L 467.99277 262.688588 
L 467.57326 261.479343 
L 467.013636 259.864915 
L 466.399853 258.086836 
L 465.758593 256.230272 
L 465.147467 254.472636 
L 464.728773 253.262521 
L 464.362532 252.200807 
L 464.29297 251.999486 
L 463.756534 250.455957 
L 463.653539 250.159451 
L 463.12126 248.628391 
L 462.979402 248.213938 
L 462.112013 245.702386 
L 461.499086 243.937961 
L 460.884385 242.159057 
L 460.274885 240.384309 
L 459.661849 238.607931 
L 459.046328 236.827339 
L 458.516726 235.294 
L 458.433298 235.051733 
L 457.538362 232.460937 
L 457.329415 231.853739 
L 457.20218 231.492178 
L 457.077521 231.131414 
L 456.817069 230.376735 
L 456.47225 229.372123 
L 455.956462 227.882299 
L 455.42767 226.348092 
L 452.458858 217.750169 
L 452.285068 217.272623 
L 452.178884 216.980723 
L 452.088294 216.673101 
L 451.569274 217.888892 
L 451.386304 218.218727 
L 450.676319 219.498804 
L 450.531635 219.759714 
L 450.468179 219.877629 
L 449.956025 220.975567 
L 450.276458 221.905549 
L 450.629302 222.929026 
L 450.055503 223.127539 
L 449.587025 223.28972 
L 449.17937 223.430821 
L 448.238241 223.755193 
L 446.349778 224.404594 
L 447.919983 225.499269 
L 447.744786 225.87967 
L 447.259885 226.914226 
L 446.580845 228.328153 
L 446.014381 229.513315 
L 445.814868 229.931071 
L 445.589585 230.004491 
L 445.137768 229.932867 
L 444.868405 229.890161 
L 444.326986 229.494069 
L 443.106705 228.596376 
L 442.346753 228.039605 
L 441.590947 227.485391 
L 440.216144 226.47728 
L 438.982161 225.573668 
L 437.743864 224.664091 
L 436.500559 223.763427 
L 435.262032 222.851642 
L 434.024542 221.940777 
L 432.036073 220.479454 
L 431.678197 220.216218 
L 430.574924 219.404365 
L 429.339381 218.624583 
L 429.240495 218.651297 
L 428.71556 218.365727 
L 428.190373 218.08042 
L 427.665108 217.795458 
L 427.386537 217.626126 
L 427.111749 217.450561 
L 426.840917 217.268928 
L 426.574298 217.081223 
L 426.311812 216.887704 
L 426.290593 216.922599 
L 426.015462 216.72005 
L 425.604538 216.417427 
L 425.202538 216.121354 
L 424.776011 215.807035 
L 424.359714 215.500518 
L 423.958493 215.205026 
L 423.537511 214.894856 
L 423.123722 214.590079 
L 422.44485 214.090134 
L 421.622642 213.484476 
L 420.860226 212.922929 
L 419.347953 211.809042 
L 419.117352 211.143238 
L 419.541627 209.702737 
L 419.329962 209.621779 
L 418.94042 209.472776 
L 418.349507 209.21884 
L 415.870083 208.153069 
L 413.208877 207.009107 
L 411.849824 206.424912 
L 411.536972 206.217234 
L 410.560197 205.550725 
L 409.584631 204.885045 
L 405.754 202.271059 
L 405.573336 202.093153 
L 405.397428 201.910613 
L 405.226361 201.723439 
L 405.060226 201.531884 
L 404.63804 201.103544 
L 404.460718 200.914972 
L 404.287706 200.728525 
L 404.084632 200.551119 
L 403.766667 200.244137 
L 403.443452 199.942569 
L 403.115245 199.646579 
L 402.782049 199.356252 
L 402.443949 199.071588 
L 400.764549 197.768371 
L 400.434979 197.499404 
L 400.044974 197.226833 
L 399.652851 196.95875 
L 399.243297 196.673462 
L 398.591241 196.281862 
L 397.45431 195.59914 
L 396.719219 195.157634 
L 394.353848 193.863947 
L 393.773521 193.566418 
L 393.19099 193.273296 
L 392.606254 192.984579 
L 392.019233 192.700442 
L 391.430178 192.420707 
L 390.091189 191.852961 
L 388.744101 191.277627 
L 387.493659 190.743529 
L 385.707632 189.980872 
L 385.521299 189.901244 
L 383.556927 189.127122 
L 383.264529 189.01997 
L 382.974626 188.906185 
L 382.687475 188.785847 
L 382.403076 188.658956 
L 382.121601 188.525509 
L 381.402025 188.188659 
L 380.963012 187.986387 
L 380.526358 187.779024 
L 380.092232 187.566565 
L 379.587993 187.306389 
L 379.083586 187.046389 
L 378.579182 186.78656 
L 378.284696 186.635554 
L 377.992171 186.480747 
L 377.701609 186.322222 
L 377.413097 186.160065 
L 377.005339 185.933609 
L 376.601185 185.700581 
L 376.200892 185.461062 
L 375.804463 185.215135 
L 375.41207 184.962883 
L 375.10983 184.793005 
L 374.81128 184.616639 
L 374.516595 184.433866 
L 374.225945 184.244767 
L 373.939502 184.049339 
L 373.657269 183.847753 
L 373.379503 183.640087 
L 372.381246 182.940493 
L 371.552499 182.361131 
L 371.165672 182.225219 
L 369.49908 180.903351 
L 368.506425 180.066986 
L 365.384013 177.120267 
L 364.411541 176.259448 
L 361.711499 173.89891 
L 361.266005 173.510513 
L 358.684871 171.181326 
L 358.645531 171.149067 
L 358.33616 170.874385 
L 357.893095 170.610302 
L 357.659997 170.471943 
L 354.140916 168.220609 
L 357.895507 166.277709 
L 359.567888 165.421691 
L 359.803455 165.296318 
L 359.812813 165.295425 
L 360.534603 164.919224 
L 360.934643 164.71073 
L 363.326379 163.464147 
L 367.484699 161.328818 
L 367.631587 161.252243 
L 368.057756 161.030016 
L 370.5992 159.705214 
L 376.584043 156.631124 
L 377.159941 156.332954 
L 377.546034 156.136746 
L 377.934534 155.945268 
L 378.231864 155.803421 
L 378.60703 155.628113 
L 378.889778 155.499987 
L 379.173689 155.374312 
L 379.285825 155.325766 
L 379.39814 155.277557 
L 379.510634 155.229771 
L 379.910262 155.063158 
L 380.311963 154.901624 
L 380.715654 154.74517 
L 381.12066 154.594154 
L 381.527482 154.448138 
L 381.936127 154.307377 
L 387.86291 152.306286 
L 387.813543 152.064809 
L 387.965244 151.828747 
L 384.418609 129.057113 
L 383.931689 128.708652 
L 383.90188 128.713931 
L 383.83231 128.296693 
L 376.307344 129.604647 
L 374.979113 129.835513 
L 374.63558 130.324088 
L 374.035465 130.428568 
L 372.714376 130.658342 
L 372.244119 130.740187 
L 360.678206 132.751131 
L 360.101536 132.851432 
L 359.712224 132.925072 
L 359.035806 132.748728 
L 358.395155 132.575961 
L 347.856576 129.734488 
L 347.732231 129.700964 
L 348.023995 128.278568 
L 346.372673 127.835926 
L 336.650638 125.211485 
L 333.657868 124.406373 
L 330.428604 123.530322 
L 329.992144 123.411924 
L 329.552345 124.160827 
L 329.232047 124.706316 
L 328.532339 124.51722 
L 325.735047 123.761411 
L 321.364613 122.580537 
L 313.057409 120.3448 
L 312.728169 120.255438 
L 310.561853 119.6672 
L 310.847149 118.942086 
L 311.661936 116.13551 
L 293.09761 112.164531 
L 290.460676 111.6 
L 290.722272 112.328157 
L 290.256585 112.689216 
L 289.141434 113.519604 
L 287.859668 114.474365 
L 288.001235 114.885008 
L 288.165334 115.361083 
L 280.041569 121.437761 
L 278.982545 122.229497 
L 277.615882 123.25121 
L 276.420893 124.145877 
L 274.644575 125.47462 
L 273.157211 126.576122 
L 273.038366 126.659699 
L 272.915727 126.737638 
L 272.789543 126.809593 
L 272.660069 126.875558 
L 272.527641 126.93527 
L 272.392513 126.988636 
L 272.227013 127.044995 
L 272.058572 127.091854 
L 271.88778 127.129029 
L 271.715148 127.156423 
L 271.541184 127.173854 
L 271.36657 127.181391 
L 271.191816 127.178938 
L 271.017434 127.166482 
L 270.844023 127.144182 
L 270.672264 127.111937 
L 270.502503 127.069994 
L 270.335509 127.018423 
L 270.171627 126.957385 
L 269.407751 126.627109 
L 269.306391 126.862246 
L 268.474696 128.784383 
L 268.04537 129.777147 
L 267.965042 129.96184 
L 267.878818 130.161102 
L 267.711507 130.549258 
L 267.543345 130.937435 
L 267.375933 131.324825 
L 267.208605 131.712129 
L 267.041296 132.100286 
L 266.873052 132.488549 
L 266.670252 132.958826 
L 266.41582 133.547888 
L 266.147769 134.167284 
L 265.906262 134.725346 
L 265.652668 135.313621 
L 265.443121 135.798401 
L 265.274878 136.18658 
L 265.106741 136.575696 
L 264.93937 136.96471 
L 264.434856 138.131036 
L 264.267486 138.52005 
L 263.931089 139.296407 
L 263.763788 139.684651 
L 263.254993 140.861241 
L 262.585647 142.411402 
L 262.417494 142.799581 
L 262.082877 143.57513 
L 261.579106 144.739736 
L 261.411827 145.128749 
L 261.243659 145.516159 
L 260.907312 146.294226 
L 260.739968 146.684095 
L 260.235457 147.849573 
L 260.068095 148.238589 
L 259.899086 148.630204 
L 259.599857 149.322528 
L 259.44064 149.69086 
L 259.269677 150.086449 
L 259.107297 150.461942 
L 258.937223 150.855375 
L 258.76966 151.242944 
L 258.601452 151.63215 
L 258.433082 152.021701 
L 258.264224 152.412289 
L 258.009157 153.002396 
L 257.757739 153.584136 
L 257.585558 153.982316 
L 257.418567 154.368676 
L 257.251414 154.755382 
L 257.085233 155.139845 
L 256.912083 155.540353 
L 256.747282 155.92171 
L 256.57964 156.309367 
L 256.407709 156.7072 
L 256.240154 157.09494 
L 256.07389 157.479405 
L 255.90018 157.881464 
L 255.737971 158.256698 
L 255.568795 158.648063 
L 255.40351 159.030542 
L 255.229716 159.432603 
L 255.062727 159.818879 
L 254.692696 160.674845 
L 254.352811 161.461283 
L 253.677089 163.024502 
L 253.23763 164.041173 
L 252.798826 165.056548 
L 252.357833 166.076842 
L 251.915707 167.099724 
L 251.476254 168.116312 
L 251.040701 169.124269 
L 250.600441 170.142669 
L 250.161401 171.158394 
L 249.494058 172.702468 
L 249.009494 173.823605 
L 248.519262 174.957939 
L 248.082908 175.967541 
L 247.634968 177.003886 
L 246.758781 178.566794 
L 244.485115 183.167274 
L 244.406639 183.319899 
L 244.323071 183.469735 
L 244.234494 183.616695 
L 244.14116 183.760688 
L 244.042979 183.901375 
L 243.939944 184.038584 
L 243.832399 184.172308 
L 243.720506 184.302287 
L 243.604264 184.428435 
L 243.48384 184.550579 
L 243.359318 184.668716 
L 243.230866 184.782671 
L 243.098733 184.892182 
L 242.963005 184.997248 
L 242.82376 185.097611 
L 242.681255 185.193264 
L 242.535571 185.284035 
L 242.386961 185.369834 
L 242.235511 185.450657 
L 242.081472 185.526329 
L 233.943854 189.35695 
L 232.63483 189.972976 
L 232.073439 190.254019 
L 228.220373 192.056112 
L 227.026976 192.616314 
L 226.40437 192.907981 
L 225.197389 193.474219 
L 223.988275 194.382771 
L 222.757968 195.307611 
L 219.082211 198.072837 
L 218.780626 198.299302 
L 219.27567 199.462853 
L 218.408825 199.839951 
L 218.403789 199.84179 
" clip-path="url(#p3c31676790)" style="fill: #d3d3d3"/>
   </g>
   <g id="matplotlib.axis_1">
    <g id="xtick_1">
     <g id="line2d_1">
      <defs>
       <path id="m7c72a3db40" d="M 0 0 
L 0 3.5 
" style="stroke: #000000; stroke-width: 0.8"/>
      </defs>
      <g>
       <use xlink:href="#m7c72a3db40" x="107.57495" y="640.8" style="stroke: #000000; stroke-width: 0.8"/>
      </g>
     </g>
     <g id="text_1">
      <!-- 13.34 -->
      <g transform="translate(93.260888 655.398438) scale(0.1 -0.1)">
       <defs>
        <path id="DejaVuSans-31" d="M 794 531 
L 1825 531 
L 1825 4091 
L 703 3866 
L 703 4441 
L 1819 4666 
L 2450 4666 
L 2450 531 
L 3481 531 
L 3481 0 
L 794 0 
L 794 531 
z
" transform="scale(0.015625)"/>
        <path id="DejaVuSans-33" d="M 2597 2516 
Q 3050 2419 3304 2112 
Q 3559 1806 3559 1356 
Q 3559 666 3084 287 
Q 2609 -91 1734 -91 
Q 1441 -91 1130 -33 
Q 819 25 488 141 
L 488 750 
Q 750 597 1062 519 
Q 1375 441 1716 441 
Q 2309 441 2620 675 
Q 2931 909 2931 1356 
Q 2931 1769 2642 2001 
Q 2353 2234 1838 2234 
L 1294 2234 
L 1294 2753 
L 1863 2753 
Q 2328 2753 2575 2939 
Q 2822 3125 2822 3475 
Q 2822 3834 2567 4026 
Q 2313 4219 1838 4219 
Q 1578 4219 1281 4162 
Q 984 4106 628 3988 
L 628 4550 
Q 988 4650 1302 4700 
Q 1616 4750 1894 4750 
Q 2613 4750 3031 4423 
Q 3450 4097 3450 3541 
Q 3450 3153 3228 2886 
Q 3006 2619 2597 2516 
z
" transform="scale(0.015625)"/>
        <path id="DejaVuSans-2e" d="M 684 794 
L 1344 794 
L 1344 0 
L 684 0 
L 684 794 
z
" transform="scale(0.015625)"/>
        <path id="DejaVuSans-34" d="M 2419 4116 
L 825 1625 
L 2419 1625 
L 2419 4116 
z
M 2253 4666 
L 3047 4666 
L 3047 1625 
L 3713 1625 
L 3713 1100 
L 3047 1100 
L 3047 0 
L 2419 0 
L 2419 1100 
L 313 1100 
L 313 1709 
L 2253 4666 
z
" transform="scale(0.015625)"/>
       </defs>
       <use xlink:href="#DejaVuSans-31"/>
       <use xlink:href="#DejaVuSans-33" x="63.623047"/>
       <use xlink:href="#DejaVuSans-2e" x="127.246094"/>
       <use xlink:href="#DejaVuSans-33" x="159.033203"/>
       <use xlink:href="#DejaVuSans-34" x="222.65625"/>
      </g>
     </g>
    </g>
    <g id="xtick_2">
     <g id="line2d_2">
      <g>
       <use xlink:href="#m7c72a3db40" x="223.507826" y="640.8" style="stroke: #000000; stroke-width: 0.8"/>
      </g>
     </g>
     <g id="text_2">
      <!-- 13.36 -->
      <g transform="translate(209.193763 655.398438) scale(0.1 -0.1)">
       <defs>
        <path id="DejaVuSans-36" d="M 2113 2584 
Q 1688 2584 1439 2293 
Q 1191 2003 1191 1497 
Q 1191 994 1439 701 
Q 1688 409 2113 409 
Q 2538 409 2786 701 
Q 3034 994 3034 1497 
Q 3034 2003 2786 2293 
Q 2538 2584 2113 2584 
z
M 3366 4563 
L 3366 3988 
Q 3128 4100 2886 4159 
Q 2644 4219 2406 4219 
Q 1781 4219 1451 3797 
Q 1122 3375 1075 2522 
Q 1259 2794 1537 2939 
Q 1816 3084 2150 3084 
Q 2853 3084 3261 2657 
Q 3669 2231 3669 1497 
Q 3669 778 3244 343 
Q 2819 -91 2113 -91 
Q 1303 -91 875 529 
Q 447 1150 447 2328 
Q 447 3434 972 4092 
Q 1497 4750 2381 4750 
Q 2619 4750 2861 4703 
Q 3103 4656 3366 4563 
z
" transform="scale(0.015625)"/>
       </defs>
       <use xlink:href="#DejaVuSans-31"/>
       <use xlink:href="#DejaVuSans-33" x="63.623047"/>
       <use xlink:href="#DejaVuSans-2e" x="127.246094"/>
       <use xlink:href="#DejaVuSans-33" x="159.033203"/>
       <use xlink:href="#DejaVuSans-36" x="222.65625"/>
      </g>
     </g>
    </g>
    <g id="xtick_3">
     <g id="line2d_3">
      <g>
       <use xlink:href="#m7c72a3db40" x="339.440701" y="640.8" style="stroke: #000000; stroke-width: 0.8"/>
      </g>
     </g>
     <g id="text_3">
      <!-- 13.38 -->
      <g transform="translate(325.126639 655.398438) scale(0.1 -0.1)">
       <defs>
        <path id="DejaVuSans-38" d="M 2034 2216 
Q 1584 2216 1326 1975 
Q 1069 1734 1069 1313 
Q 1069 891 1326 650 
Q 1584 409 2034 409 
Q 2484 409 2743 651 
Q 3003 894 3003 1313 
Q 3003 1734 2745 1975 
Q 2488 2216 2034 2216 
z
M 1403 2484 
Q 997 2584 770 2862 
Q 544 3141 544 3541 
Q 544 4100 942 4425 
Q 1341 4750 2034 4750 
Q 2731 4750 3128 4425 
Q 3525 4100 3525 3541 
Q 3525 3141 3298 2862 
Q 3072 2584 2669 2484 
Q 3125 2378 3379 2068 
Q 3634 1759 3634 1313 
Q 3634 634 3220 271 
Q 2806 -91 2034 -91 
Q 1263 -91 848 271 
Q 434 634 434 1313 
Q 434 1759 690 2068 
Q 947 2378 1403 2484 
z
M 1172 3481 
Q 1172 3119 1398 2916 
Q 1625 2713 2034 2713 
Q 2441 2713 2670 2916 
Q 2900 3119 2900 3481 
Q 2900 3844 2670 4047 
Q 2441 4250 2034 4250 
Q 1625 4250 1398 4047 
Q 1172 3844 1172 3481 
z
" transform="scale(0.015625)"/>
       </defs>
       <use xlink:href="#DejaVuSans-31"/>
       <use xlink:href="#DejaVuSans-33" x="63.623047"/>
       <use xlink:href="#DejaVuSans-2e" x="127.246094"/>
       <use xlink:href="#DejaVuSans-33" x="159.033203"/>
       <use xlink:href="#DejaVuSans-38" x="222.65625"/>
      </g>
     </g>
    </g>
    <g id="xtick_4">
     <g id="line2d_4">
      <g>
       <use xlink:href="#m7c72a3db40" x="455.373576" y="640.8" style="stroke: #000000; stroke-width: 0.8"/>
      </g>
     </g>
     <g id="text_4">
      <!-- 13.40 -->
      <g transform="translate(441.059514 655.398438) scale(0.1 -0.1)">
       <defs>
        <path id="DejaVuSans-30" d="M 2034 4250 
Q 1547 4250 1301 3770 
Q 1056 3291 1056 2328 
Q 1056 1369 1301 889 
Q 1547 409 2034 409 
Q 2525 409 2770 889 
Q 3016 1369 3016 2328 
Q 3016 3291 2770 3770 
Q 2525 4250 2034 4250 
z
M 2034 4750 
Q 2819 4750 3233 4129 
Q 3647 3509 3647 2328 
Q 3647 1150 3233 529 
Q 2819 -91 2034 -91 
Q 1250 -91 836 529 
Q 422 1150 422 2328 
Q 422 3509 836 4129 
Q 1250 4750 2034 4750 
z
" transform="scale(0.015625)"/>
       </defs>
       <use xlink:href="#DejaVuSans-31"/>
       <use xlink:href="#DejaVuSans-33" x="63.623047"/>
       <use xlink:href="#DejaVuSans-2e" x="127.246094"/>
       <use xlink:href="#DejaVuSans-34" x="159.033203"/>
       <use xlink:href="#DejaVuSans-30" x="222.65625"/>
      </g>
     </g>
    </g>
    <g id="xtick_5">
     <g id="line2d_5">
      <g>
       <use xlink:href="#m7c72a3db40" x="571.306452" y="640.8" style="stroke: #000000; stroke-width: 0.8"/>
      </g>
     </g>
     <g id="text_5">
      <!-- 13.42 -->
      <g transform="translate(556.992389 655.398438) scale(0.1 -0.1)">
       <defs>
        <path id="DejaVuSans-32" d="M 1228 531 
L 3431 531 
L 3431 0 
L 469 0 
L 469 531 
Q 828 903 1448 1529 
Q 2069 2156 2228 2338 
Q 2531 2678 2651 2914 
Q 2772 3150 2772 3378 
Q 2772 3750 2511 3984 
Q 2250 4219 1831 4219 
Q 1534 4219 1204 4116 
Q 875 4013 500 3803 
L 500 4441 
Q 881 4594 1212 4672 
Q 1544 4750 1819 4750 
Q 2544 4750 2975 4387 
Q 3406 4025 3406 3419 
Q 3406 3131 3298 2873 
Q 3191 2616 2906 2266 
Q 2828 2175 2409 1742 
Q 1991 1309 1228 531 
z
" transform="scale(0.015625)"/>
       </defs>
       <use xlink:href="#DejaVuSans-31"/>
       <use xlink:href="#DejaVuSans-33" x="63.623047"/>
       <use xlink:href="#DejaVuSans-2e" x="127.246094"/>
       <use xlink:href="#DejaVuSans-34" x="159.033203"/>
       <use xlink:href="#DejaVuSans-32" x="222.65625"/>
      </g>
     </g>
    </g>
   </g>
   <g id="matplotlib.axis_2">
    <g id="ytick_1">
     <g id="line2d_6">
      <defs>
       <path id="m30f1b6ff5b" d="M 0 0 
L -3.5 0 
" style="stroke: #000000; stroke-width: 0.8"/>
      </defs>
      <g>
       <use xlink:href="#m30f1b6ff5b" x="98.916723" y="578.929431" style="stroke: #000000; stroke-width: 0.8"/>
      </g>
     </g>
     <g id="text_6">
      <!-- 52.38 -->
      <g transform="translate(63.288598 582.728649) scale(0.1 -0.1)">
       <defs>
        <path id="DejaVuSans-35" d="M 691 4666 
L 3169 4666 
L 3169 4134 
L 1269 4134 
L 1269 2991 
Q 1406 3038 1543 3061 
Q 1681 3084 1819 3084 
Q 2600 3084 3056 2656 
Q 3513 2228 3513 1497 
Q 3513 744 3044 326 
Q 2575 -91 1722 -91 
Q 1428 -91 1123 -41 
Q 819 9 494 109 
L 494 744 
Q 775 591 1075 516 
Q 1375 441 1709 441 
Q 2250 441 2565 725 
Q 2881 1009 2881 1497 
Q 2881 1984 2565 2268 
Q 2250 2553 1709 2553 
Q 1456 2553 1204 2497 
Q 953 2441 691 2322 
L 691 4666 
z
" transform="scale(0.015625)"/>
       </defs>
       <use xlink:href="#DejaVuSans-35"/>
       <use xlink:href="#DejaVuSans-32" x="63.623047"/>
       <use xlink:href="#DejaVuSans-2e" x="127.246094"/>
       <use xlink:href="#DejaVuSans-33" x="159.033203"/>
       <use xlink:href="#DejaVuSans-38" x="222.65625"/>
      </g>
     </g>
    </g>
    <g id="ytick_2">
     <g id="line2d_7">
      <g>
       <use xlink:href="#m30f1b6ff5b" x="98.916723" y="483.93052" style="stroke: #000000; stroke-width: 0.8"/>
      </g>
     </g>
     <g id="text_7">
      <!-- 52.39 -->
      <g transform="translate(63.288598 487.729738) scale(0.1 -0.1)">
       <defs>
        <path id="DejaVuSans-39" d="M 703 97 
L 703 672 
Q 941 559 1184 500 
Q 1428 441 1663 441 
Q 2288 441 2617 861 
Q 2947 1281 2994 2138 
Q 2813 1869 2534 1725 
Q 2256 1581 1919 1581 
Q 1219 1581 811 2004 
Q 403 2428 403 3163 
Q 403 3881 828 4315 
Q 1253 4750 1959 4750 
Q 2769 4750 3195 4129 
Q 3622 3509 3622 2328 
Q 3622 1225 3098 567 
Q 2575 -91 1691 -91 
Q 1453 -91 1209 -44 
Q 966 3 703 97 
z
M 1959 2075 
Q 2384 2075 2632 2365 
Q 2881 2656 2881 3163 
Q 2881 3666 2632 3958 
Q 2384 4250 1959 4250 
Q 1534 4250 1286 3958 
Q 1038 3666 1038 3163 
Q 1038 2656 1286 2365 
Q 1534 2075 1959 2075 
z
" transform="scale(0.015625)"/>
       </defs>
       <use xlink:href="#DejaVuSans-35"/>
       <use xlink:href="#DejaVuSans-32" x="63.623047"/>
       <use xlink:href="#DejaVuSans-2e" x="127.246094"/>
       <use xlink:href="#DejaVuSans-33" x="159.033203"/>
       <use xlink:href="#DejaVuSans-39" x="222.65625"/>
      </g>
     </g>
    </g>
    <g id="ytick_3">
     <g id="line2d_8">
      <g>
       <use xlink:href="#m30f1b6ff5b" x="98.916723" y="388.931609" style="stroke: #000000; stroke-width: 0.8"/>
      </g>
     </g>
     <g id="text_8">
      <!-- 52.40 -->
      <g transform="translate(63.288598 392.730827) scale(0.1 -0.1)">
       <use xlink:href="#DejaVuSans-35"/>
       <use xlink:href="#DejaVuSans-32" x="63.623047"/>
       <use xlink:href="#DejaVuSans-2e" x="127.246094"/>
       <use xlink:href="#DejaVuSans-34" x="159.033203"/>
       <use xlink:href="#DejaVuSans-30" x="222.65625"/>
      </g>
     </g>
    </g>
    <g id="ytick_4">
     <g id="line2d_9">
      <g>
       <use xlink:href="#m30f1b6ff5b" x="98.916723" y="293.932698" style="stroke: #000000; stroke-width: 0.8"/>
      </g>
     </g>
     <g id="text_9">
      <!-- 52.41 -->
      <g transform="translate(63.288598 297.731916) scale(0.1 -0.1)">
       <use xlink:href="#DejaVuSans-35"/>
       <use xlink:href="#DejaVuSans-32" x="63.623047"/>
       <use xlink:href="#DejaVuSans-2e" x="127.246094"/>
       <use xlink:href="#DejaVuSans-34" x="159.033203"/>
       <use xlink:href="#DejaVuSans-31" x="222.65625"/>
      </g>
     </g>
    </g>
    <g id="ytick_5">
     <g id="line2d_10">
      <g>
       <use xlink:href="#m30f1b6ff5b" x="98.916723" y="198.933787" style="stroke: #000000; stroke-width: 0.8"/>
      </g>
     </g>
     <g id="text_10">
      <!-- 52.42 -->
      <g transform="translate(63.288598 202.733005) scale(0.1 -0.1)">
       <use xlink:href="#DejaVuSans-35"/>
       <use xlink:href="#DejaVuSans-32" x="63.623047"/>
       <use xlink:href="#DejaVuSans-2e" x="127.246094"/>
       <use xlink:href="#DejaVuSans-34" x="159.033203"/>
       <use xlink:href="#DejaVuSans-32" x="222.65625"/>
      </g>
     </g>
    </g>
    <g id="ytick_6">
     <g id="line2d_11">
      <g>
       <use xlink:href="#m30f1b6ff5b" x="98.916723" y="103.934876" style="stroke: #000000; stroke-width: 0.8"/>
      </g>
     </g>
     <g id="text_11">
      <!-- 52.43 -->
      <g transform="translate(63.288598 107.734094) scale(0.1 -0.1)">
       <use xlink:href="#DejaVuSans-35"/>
       <use xlink:href="#DejaVuSans-32" x="63.623047"/>
       <use xlink:href="#DejaVuSans-2e" x="127.246094"/>
       <use xlink:href="#DejaVuSans-34" x="159.033203"/>
       <use xlink:href="#DejaVuSans-33" x="222.65625"/>
      </g>
     </g>
    </g>
   </g>
   <g id="LineCollection_1">
    <path d="M 387.876297 485.846648 
L 388.149899 486.428041 
L 389.744555 489.817602 
L 390.084239 490.538644 
L 390.429719 491.594082 
L 390.63434 492.58492 
L 390.784473 493.734407 
L 390.800124 495.965932 
L 390.805341 496.712623 
L 390.801283 497.446965 
L 390.700422 514.759566 
L 390.696364 515.406509 
" clip-path="url(#p3c31676790)" style="fill: none; stroke: #ff0000; stroke-opacity: 0.7; stroke-width: 0.5"/>
    <path d="M 400.026062 534.645688 
L 407.71589 534.661838 
L 407.700819 537.697053 
L 400.050988 537.650504 
L 400.026062 534.645688 
" clip-path="url(#p3c31676790)" style="fill: none; stroke: #ff0000; stroke-opacity: 0.7; stroke-width: 0.5"/>
    <path d="M 408.304829 515.430259 
L 408.309466 514.801366 
L 408.435833 497.372866 
L 408.44047 496.742073 
L 408.44105 496.021031 
L 408.445108 486.326392 
L 408.445108 485.850448 
" clip-path="url(#p3c31676790)" style="fill: none; stroke: #ff0000; stroke-opacity: 0.7; stroke-width: 0.5"/>
    <path d="M 372.62127 485.921697 
L 373.219483 485.918847 
L 378.612681 485.887497 
L 382.321373 485.887497 
L 387.333731 485.850448 
L 387.876297 485.846648 
L 388.739417 485.847598 
L 399.076572 485.859947 
L 399.637108 485.860897 
L 400.187209 485.859947 
L 407.979637 485.851398 
L 408.445108 485.850448 
L 409.019555 485.843798 
L 418.266361 485.735499 
L 418.766612 485.729799 
" clip-path="url(#p3c31676790)" style="fill: none; stroke: #ff0000; stroke-opacity: 0.7; stroke-width: 0.5"/>
    <path d="M 403.314498 288.063665 
L 404.709171 288.719157 
L 405.143919 288.711557 
L 406.05863 289.145702 
L 406.546127 289.633047 
L 411.178805 291.878821 
L 415.967412 294.199645 
" clip-path="url(#p3c31676790)" style="fill: none; stroke: #ff0000; stroke-opacity: 0.7; stroke-width: 0.5"/>
   </g>
   <g id="patch_3">
    <path d="M 98.916723 640.8 
L 98.916723 86.4 
" style="fill: none; stroke: #000000; stroke-width: 0.8; stroke-linejoin: miter; stroke-linecap: square"/>
   </g>
   <g id="patch_4">
    <path d="M 639.083277 640.8 
L 639.083277 86.4 
" style="fill: none; stroke: #000000; stroke-width: 0.8; stroke-linejoin: miter; stroke-linecap: square"/>
   </g>
   <g id="patch_5">
    <path d="M 98.916723 640.8 
L 639.083277 640.8 
" style="fill: none; stroke: #000000; stroke-width: 0.8; stroke-linejoin: miter; stroke-linecap: square"/>
   </g>
   <g id="patch_6">
    <path d="M 98.916723 86.4 
L 639.083277 86.4 
" style="fill: none; stroke: #000000; stroke-width: 0.8; stroke-linejoin: miter; stroke-linecap: square"/>
   </g>
   <g id="text_12">
    <!-- Marienfelde___Lichtenrade -->
    <g transform="translate(308.188002 373.905083) scale(0.12 -0.12)">
     <defs>
      <path id="DejaVuSans-4d" d="M 628 4666 
L 1569 4666 
L 2759 1491 
L 3956 4666 
L 4897 4666 
L 4897 0 
L 4281 0 
L 4281 4097 
L 3078 897 
L 2444 897 
L 1241 4097 
L 1241 0 
L 628 0 
L 628 4666 
z
" transform="scale(0.015625)"/>
      <path id="DejaVuSans-61" d="M 2194 1759 
Q 1497 1759 1228 1600 
Q 959 1441 959 1056 
Q 959 750 1161 570 
Q 1363 391 1709 391 
Q 2188 391 2477 730 
Q 2766 1069 2766 1631 
L 2766 1759 
L 2194 1759 
z
M 3341 1997 
L 3341 0 
L 2766 0 
L 2766 531 
Q 2569 213 2275 61 
Q 1981 -91 1556 -91 
Q 1019 -91 701 211 
Q 384 513 384 1019 
Q 384 1609 779 1909 
Q 1175 2209 1959 2209 
L 2766 2209 
L 2766 2266 
Q 2766 2663 2505 2880 
Q 2244 3097 1772 3097 
Q 1472 3097 1187 3025 
Q 903 2953 641 2809 
L 641 3341 
Q 956 3463 1253 3523 
Q 1550 3584 1831 3584 
Q 2591 3584 2966 3190 
Q 3341 2797 3341 1997 
z
" transform="scale(0.015625)"/>
      <path id="DejaVuSans-72" d="M 2631 2963 
Q 2534 3019 2420 3045 
Q 2306 3072 2169 3072 
Q 1681 3072 1420 2755 
Q 1159 2438 1159 1844 
L 1159 0 
L 581 0 
L 581 3500 
L 1159 3500 
L 1159 2956 
Q 1341 3275 1631 3429 
Q 1922 3584 2338 3584 
Q 2397 3584 2469 3576 
Q 2541 3569 2628 3553 
L 2631 2963 
z
" transform="scale(0.015625)"/>
      <path id="DejaVuSans-69" d="M 603 3500 
L 1178 3500 
L 1178 0 
L 603 0 
L 603 3500 
z
M 603 4863 
L 1178 4863 
L 1178 4134 
L 603 4134 
L 603 4863 
z
" transform="scale(0.015625)"/>
      <path id="DejaVuSans-65" d="M 3597 1894 
L 3597 1613 
L 953 1613 
Q 991 1019 1311 708 
Q 1631 397 2203 397 
Q 2534 397 2845 478 
Q 3156 559 3463 722 
L 3463 178 
Q 3153 47 2828 -22 
Q 2503 -91 2169 -91 
Q 1331 -91 842 396 
Q 353 884 353 1716 
Q 353 2575 817 3079 
Q 1281 3584 2069 3584 
Q 2775 3584 3186 3129 
Q 3597 2675 3597 1894 
z
M 3022 2063 
Q 3016 2534 2758 2815 
Q 2500 3097 2075 3097 
Q 1594 3097 1305 2825 
Q 1016 2553 972 2059 
L 3022 2063 
z
" transform="scale(0.015625)"/>
      <path id="DejaVuSans-6e" d="M 3513 2113 
L 3513 0 
L 2938 0 
L 2938 2094 
Q 2938 2591 2744 2837 
Q 2550 3084 2163 3084 
Q 1697 3084 1428 2787 
Q 1159 2491 1159 1978 
L 1159 0 
L 581 0 
L 581 3500 
L 1159 3500 
L 1159 2956 
Q 1366 3272 1645 3428 
Q 1925 3584 2291 3584 
Q 2894 3584 3203 3211 
Q 3513 2838 3513 2113 
z
" transform="scale(0.015625)"/>
      <path id="DejaVuSans-66" d="M 2375 4863 
L 2375 4384 
L 1825 4384 
Q 1516 4384 1395 4259 
Q 1275 4134 1275 3809 
L 1275 3500 
L 2222 3500 
L 2222 3053 
L 1275 3053 
L 1275 0 
L 697 0 
L 697 3053 
L 147 3053 
L 147 3500 
L 697 3500 
L 697 3744 
Q 697 4328 969 4595 
Q 1241 4863 1831 4863 
L 2375 4863 
z
" transform="scale(0.015625)"/>
      <path id="DejaVuSans-6c" d="M 603 4863 
L 1178 4863 
L 1178 0 
L 603 0 
L 603 4863 
z
" transform="scale(0.015625)"/>
      <path id="DejaVuSans-64" d="M 2906 2969 
L 2906 4863 
L 3481 4863 
L 3481 0 
L 2906 0 
L 2906 525 
Q 2725 213 2448 61 
Q 2172 -91 1784 -91 
Q 1150 -91 751 415 
Q 353 922 353 1747 
Q 353 2572 751 3078 
Q 1150 3584 1784 3584 
Q 2172 3584 2448 3432 
Q 2725 3281 2906 2969 
z
M 947 1747 
Q 947 1113 1208 752 
Q 1469 391 1925 391 
Q 2381 391 2643 752 
Q 2906 1113 2906 1747 
Q 2906 2381 2643 2742 
Q 2381 3103 1925 3103 
Q 1469 3103 1208 2742 
Q 947 2381 947 1747 
z
" transform="scale(0.015625)"/>
      <path id="DejaVuSans-5f" d="M 3263 -1063 
L 3263 -1509 
L -63 -1509 
L -63 -1063 
L 3263 -1063 
z
" transform="scale(0.015625)"/>
      <path id="DejaVuSans-4c" d="M 628 4666 
L 1259 4666 
L 1259 531 
L 3531 531 
L 3531 0 
L 628 0 
L 628 4666 
z
" transform="scale(0.015625)"/>
      <path id="DejaVuSans-63" d="M 3122 3366 
L 3122 2828 
Q 2878 2963 2633 3030 
Q 2388 3097 2138 3097 
Q 1578 3097 1268 2742 
Q 959 2388 959 1747 
Q 959 1106 1268 751 
Q 1578 397 2138 397 
Q 2388 397 2633 464 
Q 2878 531 3122 666 
L 3122 134 
Q 2881 22 2623 -34 
Q 2366 -91 2075 -91 
Q 1284 -91 818 406 
Q 353 903 353 1747 
Q 353 2603 823 3093 
Q 1294 3584 2113 3584 
Q 2378 3584 2631 3529 
Q 2884 3475 3122 3366 
z
" transform="scale(0.015625)"/>
      <path id="DejaVuSans-68" d="M 3513 2113 
L 3513 0 
L 2938 0 
L 2938 2094 
Q 2938 2591 2744 2837 
Q 2550 3084 2163 3084 
Q 1697 3084 1428 2787 
Q 1159 2491 1159 1978 
L 1159 0 
L 581 0 
L 581 4863 
L 1159 4863 
L 1159 2956 
Q 1366 3272 1645 3428 
Q 1925 3584 2291 3584 
Q 2894 3584 3203 3211 
Q 3513 2838 3513 2113 
z
" transform="scale(0.015625)"/>
      <path id="DejaVuSans-74" d="M 1172 4494 
L 1172 3500 
L 2356 3500 
L 2356 3053 
L 1172 3053 
L 1172 1153 
Q 1172 725 1289 603 
Q 1406 481 1766 481 
L 2356 481 
L 2356 0 
L 1766 0 
Q 1100 0 847 248 
Q 594 497 594 1153 
L 594 3053 
L 172 3053 
L 172 3500 
L 594 3500 
L 594 4494 
L 1172 4494 
z
" transform="scale(0.015625)"/>
     </defs>
     <use xlink:href="#DejaVuSans-4d"/>
     <use xlink:href="#DejaVuSans-61" x="86.279297"/>
     <use xlink:href="#DejaVuSans-72" x="147.558594"/>
     <use xlink:href="#DejaVuSans-69" x="188.671875"/>
     <use xlink:href="#DejaVuSans-65" x="216.455078"/>
     <use xlink:href="#DejaVuSans-6e" x="277.978516"/>
     <use xlink:href="#DejaVuSans-66" x="341.357422"/>
     <use xlink:href="#DejaVuSans-65" x="376.5625"/>
     <use xlink:href="#DejaVuSans-6c" x="438.085938"/>
     <use xlink:href="#DejaVuSans-64" x="465.869141"/>
     <use xlink:href="#DejaVuSans-65" x="529.345703"/>
     <use xlink:href="#DejaVuSans-5f" x="590.869141"/>
     <use xlink:href="#DejaVuSans-5f" x="640.869141"/>
     <use xlink:href="#DejaVuSans-5f" x="690.869141"/>
     <use xlink:href="#DejaVuSans-4c" x="740.869141"/>
     <use xlink:href="#DejaVuSans-69" x="796.582031"/>
     <use xlink:href="#DejaVuSans-63" x="824.365234"/>
     <use xlink:href="#DejaVuSans-68" x="879.345703"/>
     <use xlink:href="#DejaVuSans-74" x="942.724609"/>
     <use xlink:href="#DejaVuSans-65" x="981.933594"/>
     <use xlink:href="#DejaVuSans-6e" x="1043.457031"/>
     <use xlink:href="#DejaVuSans-72" x="1106.835938"/>
     <use xlink:href="#DejaVuSans-61" x="1147.949219"/>
     <use xlink:href="#DejaVuSans-64" x="1209.228516"/>
     <use xlink:href="#DejaVuSans-65" x="1272.705078"/>
    </g>
   </g>
  </g>
 </g>
 <defs>
  <clipPath id="p3c31676790">
   <rect x="98.916723" y="86.4" width="540.166555" height="554.4"/>
  </clipPath>
 </defs>
</svg>
