<?xml version="1.0" encoding="utf-8" standalone="no"?>
<!DOCTYPE svg PUBLIC "-//W3C//DTD SVG 1.1//EN"
  "http://www.w3.org/Graphics/SVG/1.1/DTD/svg11.dtd">
<svg xmlns:xlink="http://www.w3.org/1999/xlink" width="460.8pt" height="345.6pt" viewBox="0 0 460.8 345.6" xmlns="http://www.w3.org/2000/svg" version="1.1">
 <metadata>
  <rdf:RDF xmlns:dc="http://purl.org/dc/elements/1.1/" xmlns:cc="http://creativecommons.org/ns#" xmlns:rdf="http://www.w3.org/1999/02/22-rdf-syntax-ns#">
   <cc:Work>
    <dc:type rdf:resource="http://purl.org/dc/dcmitype/StillImage"/>
    <dc:date>2024-10-17T11:33:18.527343</dc:date>
    <dc:format>image/svg+xml</dc:format>
    <dc:creator>
     <cc:Agent>
      <dc:title>Matplotlib v3.9.2, https://matplotlib.org/</dc:title>
     </cc:Agent>
    </dc:creator>
   </cc:Work>
  </rdf:RDF>
 </metadata>
 <defs>
  <style type="text/css">*{stroke-linejoin: round; stroke-linecap: butt}</style>
 </defs>
 <g id="figure_1">
  <g id="patch_1">
   <path d="M 0 345.6 
L 460.8 345.6 
L 460.8 0 
L 0 0 
z
" style="fill: #ffffff"/>
  </g>
  <g id="axes_1">
   <g id="patch_2">
    <path d="M 147.668242 307.584 
L 324.651758 307.584 
L 324.651758 41.472 
L 147.668242 41.472 
z
" style="fill: #ffffff"/>
   </g>
   <g id="PatchCollection_1">
    <path d="M 161.214083 279.714297 
L 161.875333 279.739001 
L 162.792094 279.761808 
L 162.78039 280.175795 
L 162.776035 280.33083 
L 163.089231 280.335593 
L 163.099008 280.206914 
L 163.704243 280.225028 
L 163.719046 279.795715 
L 164.89049 279.835034 
L 166.036435 279.871901 
L 166.161656 279.879526 
L 166.381908 279.886775 
L 166.927705 279.902534 
L 167.295282 279.919036 
L 167.383541 279.921215 
L 167.38439 279.921135 
L 168.500741 279.816223 
L 169.518881 279.720517 
L 170.497129 279.662569 
L 170.518105 279.661334 
L 170.933768 279.645023 
L 171.191998 279.648514 
L 171.600444 279.704676 
L 172.339099 279.806164 
L 172.813808 279.871436 
L 173.035505 279.96605 
L 173.16315 279.999092 
L 173.547295 280.09846 
L 173.925323 280.107752 
L 174.108781 280.109661 
L 174.700562 280.115781 
L 176.783143 280.143695 
L 178.187321 280.153319 
L 179.633452 280.088231 
L 181.919166 280.092396 
L 183.773788 280.12372 
L 185.18719 280.233582 
L 185.647294 280.271617 
L 185.923499 280.282681 
L 185.925569 280.28283 
L 186.034884 280.290704 
L 186.791265 280.325374 
L 188.047883 280.413137 
L 188.102348 280.414373 
L 188.622452 280.428146 
L 189.470092 280.449695 
L 189.963459 280.462575 
L 190.519389 280.537983 
L 191.937805 280.7373 
L 192.121549 280.726979 
L 192.875601 280.684773 
L 194.528796 280.733909 
L 195.54325 281.02733 
L 196.241768 281.273215 
L 197.142688 281.65765 
L 197.833004 282.033965 
L 198.450517 282.443229 
L 198.471594 282.456956 
L 199.773399 283.499389 
L 200.281719 283.98629 
L 201.167363 285.035956 
L 201.805015 286.060813 
L 201.947239 286.220213 
L 202.103887 286.39673 
L 202.671843 287.583956 
L 203.037571 289.005447 
L 203.235842 290.165635 
L 203.308946 292.276152 
L 203.351724 293.626649 
L 203.293425 294.496954 
L 203.805702 294.536059 
L 204.119247 294.589333 
L 206.149022 294.7307 
L 207.077939 294.793796 
L 207.418827 294.816901 
L 208.037576 294.859829 
L 208.480459 294.895127 
L 209.02958 294.976455 
L 209.693965 295.014762 
L 210.031165 295.007924 
L 212.251745 295.157092 
L 214.858515 295.331128 
L 216.3641 295.435233 
L 217.0734 295.488 
L 217.130693 295.028773 
L 217.178958 294.641906 
L 217.183582 294.592467 
L 217.194943 294.48231 
L 217.259226 294.050693 
L 217.195339 294.042773 
L 217.611752 291.114552 
L 218.006425 291.040626 
L 217.956789 290.658389 
L 217.950686 290.345799 
L 217.975183 289.856387 
L 218.034976 289.277261 
L 218.105366 288.711759 
L 218.348304 286.857513 
L 218.344868 286.393031 
L 218.358338 286.182674 
L 218.509979 285.032282 
L 218.741988 283.383813 
L 218.756171 283.222678 
L 218.786693 282.990968 
L 218.810081 282.86185 
L 218.84585 282.503536 
L 218.901357 282.242938 
L 219.050014 281.659241 
L 219.080365 281.520182 
L 219.139852 281.084132 
L 219.117992 280.821969 
L 219.11132 280.581691 
L 219.129922 280.318601 
L 219.178483 279.961136 
L 219.195572 279.819699 
L 219.262479 279.303496 
L 219.322773 278.819262 
L 219.49145 277.575045 
L 219.527909 277.372885 
L 219.661098 276.634372 
L 219.991512 274.085209 
L 220.094266 273.292307 
L 220.148255 272.910177 
L 220.434307 272.029343 
L 220.619175 270.755079 
L 220.810219 270.770173 
L 220.855184 270.456457 
L 220.86486 270.375418 
L 220.940391 269.810267 
L 220.990079 269.443621 
L 221.026516 269.174793 
L 221.080751 268.774745 
L 221.169826 268.11791 
L 221.258688 267.46212 
L 221.301128 267.149125 
L 221.348605 266.798861 
L 221.36037 266.711943 
L 221.44528 266.085752 
L 221.530477 265.457174 
L 221.622634 264.777098 
L 221.712087 264.117237 
L 221.889015 262.812181 
L 221.955749 262.319901 
L 222.141797 260.947503 
L 222.231891 260.282732 
L 222.32237 259.615471 
L 222.414383 258.94459 
L 222.503607 258.289699 
L 222.593394 257.621144 
L 222.682955 256.95464 
L 222.773189 256.283291 
L 222.861876 255.623178 
L 222.950938 254.960005 
L 223.041755 254.284285 
L 223.130123 253.626493 
L 223.213314 253.007316 
L 223.378359 251.778951 
L 223.437867 251.336129 
L 223.516321 250.715807 
L 223.549198 250.502501 
L 225.207096 250.499726 
L 225.214545 250.440939 
L 225.279611 250.018133 
L 225.759747 246.412583 
L 226.326532 242.156594 
L 226.34608 241.978914 
L 226.365122 241.807651 
L 226.432185 241.304029 
L 226.519807 240.644745 
L 226.608812 239.975974 
L 226.867118 238.032263 
L 226.874292 237.977977 
L 226.96192 237.317151 
L 227.052136 236.641881 
L 227.216129 235.40727 
L 227.747144 235.267614 
L 227.813867 234.765072 
L 227.815895 234.7498 
L 227.882335 234.249446 
L 227.912645 234.021132 
L 228.013288 233.263367 
L 228.09222 232.668968 
L 228.173824 232.054354 
L 228.251568 231.469003 
L 228.33027 230.87642 
L 228.411066 230.268096 
L 228.488398 229.685538 
L 228.570209 229.069377 
L 228.648595 228.47925 
L 228.725903 227.897094 
L 228.848554 226.97361 
L 228.916679 226.460609 
L 229.015762 225.714684 
L 229.114812 224.96876 
L 229.194242 224.37046 
L 229.274086 223.769435 
L 229.353143 223.174129 
L 229.433013 222.572701 
L 229.51184 221.979245 
L 229.591621 221.378288 
L 229.671701 220.775515 
L 229.752301 220.168604 
L 229.820666 219.653921 
L 229.893301 219.106949 
L 230.360808 219.157473 
L 230.424413 218.668917 
L 230.523001 217.911129 
L 230.670626 216.824081 
L 230.758813 216.159825 
L 230.853544 215.488191 
L 230.941931 214.823863 
L 231.030147 214.159237 
L 231.117869 213.49499 
L 231.163453 213.150337 
L 231.205789 212.830605 
L 231.428941 211.113002 
L 231.485741 210.6852 
L 231.503773 210.554511 
L 231.359773 210.5393 
L 231.224466 210.524985 
L 231.206391 210.522867 
L 231.189018 210.517346 
L 231.17302 210.508611 
L 231.159004 210.496985 
L 231.147447 210.482861 
L 231.138761 210.4668 
L 231.133294 210.4494 
L 231.131258 210.431259 
L 231.1327 210.413049 
L 231.183244 210.030423 
L 231.208896 209.83132 
L 231.294028 209.212982 
L 231.320117 209.080792 
L 231.350237 208.949427 
L 231.384359 208.819088 
L 231.42245 208.68981 
L 231.464413 208.561796 
L 231.510318 208.435145 
L 231.560032 208.309927 
L 231.613559 208.186309 
L 231.670833 208.06436 
L 231.731757 207.94425 
L 231.796366 207.826078 
L 231.864528 207.709914 
L 231.920896 207.611197 
L 231.980784 207.514555 
L 232.044097 207.420159 
L 232.110735 207.328112 
L 232.180635 207.238514 
L 232.253696 207.15147 
L 232.329823 207.067148 
L 232.40895 206.985584 
L 232.490912 206.906948 
L 232.575678 206.831341 
L 232.663082 206.758802 
L 232.753025 206.689465 
L 232.845377 206.623434 
L 232.94007 206.560744 
L 233.039766 206.487219 
L 233.142043 206.417299 
L 233.246703 206.351087 
L 233.353679 206.288653 
L 233.462808 206.230068 
L 233.573956 206.175433 
L 233.686957 206.12482 
L 233.801679 206.078266 
L 233.91799 206.035872 
L 234.035756 205.997609 
L 234.154778 205.963614 
L 234.274956 205.93389 
L 234.39609 205.908507 
L 234.518081 205.887435 
L 234.601924 205.870955 
L 234.686367 205.857716 
L 234.771244 205.847756 
L 234.824797 205.843557 
L 234.856421 205.841078 
L 234.941798 205.837683 
L 235.027274 205.837607 
L 235.112648 205.840787 
L 237.513731 205.884712 
L 237.615852 205.678068 
L 237.662475 205.583708 
L 238.311843 205.545362 
L 238.624848 205.526895 
L 239.934111 205.449565 
L 240.52289 205.412814 
L 242.382551 205.306604 
L 242.714226 205.284784 
L 243.185755 205.24513 
L 243.887417 205.205186 
L 244.577389 205.161153 
L 245.246173 205.124927 
L 245.90646 205.087063 
L 245.969301 204.946303 
L 246.201139 204.83763 
L 246.962913 204.423597 
L 247.2193 204.350936 
L 247.310773 204.325013 
L 247.351255 204.274722 
L 247.804009 203.826503 
L 247.796628 203.919581 
L 247.906588 204.018626 
L 248.108154 204.145763 
L 248.330906 204.243464 
L 248.542746 204.322292 
L 248.806063 204.373712 
L 249.025644 204.388276 
L 249.243281 204.374847 
L 249.832182 204.338865 
L 249.885578 204.335582 
L 250.006072 204.328238 
L 250.643626 204.289305 
L 251.259628 204.251712 
L 251.862898 204.21488 
L 252.459286 204.178489 
L 253.060319 204.141807 
L 253.658278 204.105322 
L 254.259378 204.068609 
L 254.855901 204.032224 
L 255.462681 203.995167 
L 255.987898 203.963164 
L 256.329531 203.94228 
L 256.4394 203.935589 
L 256.547931 203.928958 
L 256.964681 203.90342 
L 257.087614 203.895898 
L 257.253418 203.885741 
L 257.31577 203.881946 
L 258.627904 203.801623 
L 259.292593 203.760941 
L 259.956714 203.720307 
L 260.634435 203.678834 
L 261.198145 203.644335 
L 261.289067 203.638763 
L 261.830458 203.602398 
L 262.665906 203.551613 
L 263.333329 203.51039 
L 264.003281 203.471836 
L 264.670898 203.430212 
L 265.883636 203.35468 
L 266.13393 203.235472 
L 266.217185 203.222877 
L 266.321155 203.207152 
L 266.407214 203.1942 
L 266.961019 203.11054 
L 267.10962 203.088123 
L 267.413317 203.043564 
L 268.611092 203.198804 
L 268.724994 202.706545 
L 268.840821 202.497267 
L 268.948671 202.302404 
L 269.170041 201.607776 
L 269.582971 200.681146 
L 270.109009 200.777801 
L 270.367263 200.823716 
L 270.38249 201.09942 
L 271.393355 201.469197 
L 272.048383 201.708959 
L 272.740444 201.962245 
L 273.275874 202.158569 
L 273.374922 202.179846 
L 274.028963 202.322625 
L 274.258831 202.373035 
L 274.672556 202.454846 
L 274.72799 202.468269 
L 275.313596 202.611977 
L 275.38507 202.629543 
L 276.048736 202.792299 
L 276.697843 202.951489 
L 277.085669 203.046735 
L 277.345605 203.110373 
L 277.900408 203.246282 
L 277.99819 203.272988 
L 278.635931 203.448009 
L 279.281845 203.62532 
L 279.355746 203.645591 
L 280.270933 203.897029 
L 280.584129 203.982828 
L 281.142348 204.144678 
L 281.536166 204.277654 
L 282.429417 204.579253 
L 282.470473 204.277642 
L 282.763206 204.340336 
L 283.361577 204.502639 
L 283.433594 204.496917 
L 283.917336 204.45848 
L 283.988317 204.452813 
L 284.58293 204.31594 
L 284.999886 204.219254 
L 285.23313 204.166262 
L 285.769505 204.04155 
L 286.591717 203.858748 
L 286.911339 203.788516 
L 286.996114 203.769796 
L 287.290218 203.705068 
L 287.547262 203.837882 
L 287.667688 203.900072 
L 288.159197 204.154005 
L 288.673934 204.563229 
L 289.072433 204.869826 
L 289.734389 205.259703 
L 290.190037 205.65534 
L 290.392003 205.860934 
L 290.813076 206.388585 
L 290.899445 206.496837 
L 291.086787 206.639388 
L 291.295366 207.041894 
L 291.89474 207.972385 
L 292.171617 208.472935 
L 292.348435 208.771276 
L 293.104608 210.33371 
L 293.531738 210.828409 
L 294.091484 211.371174 
L 294.32562 211.556345 
L 295.012142 212.011774 
L 295.329713 212.198821 
L 296.088427 212.581277 
L 296.495097 212.796321 
L 297.738801 213.397953 
L 299.241989 214.277259 
L 299.6248 214.490668 
L 300.096702 214.731706 
L 300.281682 214.82619 
L 301.625014 215.733513 
L 302.187685 216.086351 
L 302.522651 216.245193 
L 302.720984 216.355706 
L 302.91955 216.491743 
L 303.520605 216.746549 
L 304.377532 217.180378 
L 305.747828 217.797524 
L 306.376519 218.059847 
L 307.402184 218.660443 
L 307.457698 218.693768 
L 307.511135 218.730353 
L 307.562292 218.770104 
L 307.610932 218.812889 
L 307.656952 218.858511 
L 307.700148 218.906838 
L 307.740349 218.957672 
L 307.777451 219.010849 
L 307.811282 219.066136 
L 307.841707 219.123402 
L 307.868686 219.18238 
L 308.130153 219.016483 
L 308.34797 219.044508 
L 308.887221 218.811902 
L 309.002582 218.694775 
L 309.536515 218.48096 
L 309.904625 218.333806 
L 309.966645 218.268717 
L 310.027863 218.253324 
L 310.088254 218.234962 
L 310.218104 218.184742 
L 310.318821 218.132948 
L 310.37305 218.100584 
L 310.483912 218.069825 
L 310.527221 218.057199 
L 310.826846 217.815422 
L 311.039773 217.615302 
L 311.299417 217.340666 
L 311.411089 217.222909 
L 311.524635 217.106894 
L 311.63999 216.992721 
L 311.757121 216.880426 
L 311.876028 216.769974 
L 312.953654 215.496541 
L 313.005616 215.42682 
L 313.054525 215.354912 
L 313.100215 215.28092 
L 313.142689 215.204979 
L 313.181817 215.127292 
L 313.217534 215.047962 
L 313.249743 214.967123 
L 313.278447 214.884979 
L 313.303548 214.801663 
L 313.401804 214.508967 
L 313.430806 214.481494 
L 313.455375 214.261293 
L 313.461039 214.104259 
L 313.439506 213.924982 
L 313.402153 213.787008 
L 313.364801 213.649067 
L 313.356918 213.593169 
L 313.349035 213.537236 
L 313.342891 213.479593 
L 313.336714 213.421983 
L 312.712037 211.627461 
L 312.543895 211.144465 
L 312.37088 210.509707 
L 312.361356 210.039427 
L 312.371744 209.735542 
L 312.383548 209.550344 
L 312.392219 209.478756 
L 312.407199 209.355084 
L 312.433257 209.216267 
L 312.444198 209.146178 
L 312.489794 208.974841 
L 312.510219 208.9312 
L 312.561282 208.813662 
L 312.665507 208.550737 
L 312.680416 208.505628 
L 312.717848 208.392417 
L 312.789235 208.176428 
L 312.929454 207.752317 
L 312.991492 207.564657 
L 313.075897 207.3094 
L 313.863966 204.925624 
L 314.004538 204.500501 
L 314.01261 204.428993 
L 314.050789 204.437937 
L 314.144591 204.459845 
L 315.713169 204.826292 
L 315.778335 204.841517 
L 315.950377 204.881716 
L 315.955035 204.828959 
L 315.788562 204.786102 
L 315.725818 204.769923 
L 314.003684 204.326554 
L 313.983026 204.096205 
L 313.991737 202.793321 
L 313.994467 202.753248 
L 313.981759 202.494833 
L 313.932961 202.091308 
L 313.871877 201.762762 
L 313.812564 201.459843 
L 313.774021 201.267885 
L 313.702565 201.021178 
L 313.614267 200.716325 
L 313.519786 200.44905 
L 313.455557 200.303855 
L 313.314248 200.073158 
L 313.159304 199.819281 
L 312.437277 198.310811 
L 312.398601 198.230009 
L 312.157924 197.727205 
L 311.424704 196.138035 
L 311.411778 196.110011 
L 310.888341 194.975379 
L 310.731822 194.636231 
L 310.640773 194.438865 
L 309.772516 192.933234 
L 309.269874 192.159745 
L 308.757844 191.371783 
L 308.038517 190.264897 
L 308.020995 190.238071 
L 307.554316 189.519899 
L 307.489497 189.420205 
L 306.94303 188.713065 
L 306.565461 188.050538 
L 306.529525 187.992374 
L 306.490649 187.936146 
L 306.448936 187.881987 
L 306.404458 187.830097 
L 306.357382 187.780572 
L 306.307812 187.733545 
L 306.255851 187.689148 
L 306.201703 187.647545 
L 306.14547 187.608767 
L 305.642765 187.315551 
L 304.216312 186.388114 
L 303.823197 186.104386 
L 303.68347 186.003519 
L 303.618283 185.948447 
L 303.55519 185.890987 
L 303.494227 185.831203 
L 303.43553 185.769228 
L 303.379167 185.705127 
L 303.325205 185.638967 
L 303.273715 185.570845 
L 303.224764 185.500862 
L 302.623801 184.427159 
L 302.249788 183.853533 
L 302.101692 183.626367 
L 302.00667 183.344954 
L 301.880021 183.249164 
L 301.916563 183.251093 
L 301.90977 183.240798 
L 301.701105 182.924588 
L 301.789636 182.919321 
L 301.777268 182.906247 
L 301.726254 182.852273 
L 301.628665 182.731791 
L 301.525896 182.604837 
L 301.478884 182.546758 
L 301.427583 182.362133 
L 301.395472 182.224494 
L 301.332572 181.878377 
L 301.16902 180.673954 
L 300.978344 179.558994 
L 300.900286 178.83942 
L 300.822161 178.119847 
L 300.794843 177.868397 
L 300.767559 177.616946 
L 300.642644 176.523299 
L 300.593444 175.393574 
L 300.542148 174.216693 
L 300.996477 171.251466 
L 301.093145 170.997068 
L 301.286038 170.678951 
L 301.493266 170.327309 
L 301.516649 170.287735 
L 301.996782 169.472928 
L 302.786482 168.069317 
L 302.85054 167.955479 
L 303.615829 166.98394 
L 303.784421 166.760599 
L 303.999624 166.477268 
L 304.330017 166.013445 
L 304.489778 165.752608 
L 304.594055 165.495044 
L 305.276772 163.809226 
L 305.419291 163.457219 
L 305.433784 163.421511 
L 305.539501 163.066505 
L 305.594761 162.66563 
L 305.632378 162.392506 
L 305.713878 162.121705 
L 306.230116 160.94915 
L 306.24716 160.910406 
L 307.069574 159.04245 
L 307.188419 158.853368 
L 307.239695 158.771751 
L 307.556117 158.268258 
L 308.074045 157.495329 
L 308.722536 156.182614 
L 309.753205 152.894149 
L 310.769969 150.945743 
L 310.959859 150.576306 
L 311.096903 150.297406 
L 312.781365 147.375205 
L 312.798715 147.34511 
L 312.929746 147.11782 
L 313.115913 146.548901 
L 313.142837 146.342609 
L 313.176335 145.970913 
L 313.23705 145.654467 
L 313.435409 145.190372 
L 313.483395 145.005101 
L 313.654525 144.341312 
L 313.830557 143.409337 
L 313.937292 142.962707 
L 314.437021 141.461665 
L 314.543213 141.141274 
L 314.616201 140.825762 
L 314.663964 140.623858 
L 314.665518 140.40364 
L 314.649869 139.791152 
L 314.654387 139.431397 
L 314.661562 139.130595 
L 314.66001 138.775386 
L 314.716329 138.536851 
L 314.873019 138.164616 
L 315.050124 137.823076 
L 315.238352 137.37421 
L 315.499255 136.567841 
L 315.594485 136.357626 
L 315.869126 135.963185 
L 316.059131 135.435388 
L 316.309133 134.14941 
L 316.371446 133.341806 
L 316.575064 132.593958 
L 316.605267 132.272443 
L 316.581498 131.907104 
L 316.607053 131.524059 
L 316.522887 130.895673 
L 316.428855 130.543654 
L 316.525001 129.740821 
L 316.462915 128.964606 
L 316.524753 127.887514 
L 316.461233 127.382335 
L 316.478235 126.773869 
L 316.41542 126.015213 
L 316.26752 125.527322 
L 316.187893 124.02967 
L 315.949839 123.297867 
L 315.940782 122.8308 
L 315.624532 121.845289 
L 314.58115 119.954958 
L 314.297891 119.092817 
L 314.099058 118.246597 
L 313.97521 117.352815 
L 313.944197 117.25772 
L 313.642934 116.315762 
L 313.287787 115.756132 
L 311.865101 113.601498 
L 311.715421 113.374814 
L 311.395583 113.000332 
L 311.242017 112.855551 
L 311.13618 112.65237 
L 310.98707 112.500961 
L 310.535711 111.909347 
L 310.387437 111.728906 
L 310.027286 111.125068 
L 309.971058 110.928863 
L 309.624346 110.266126 
L 309.428755 109.695049 
L 308.997438 108.235143 
L 309.03893 106.751987 
L 308.99029 105.568882 
L 308.757639 102.994507 
L 308.428469 101.649229 
L 308.009186 99.730266 
L 307.891516 99.171444 
L 307.641522 98.015044 
L 307.634125 97.975842 
L 307.611073 97.14432 
L 307.585557 96.441658 
L 307.729283 94.972358 
L 307.726535 94.917533 
L 307.792896 94.598392 
L 307.867333 94.230942 
L 307.867501 94.230114 
L 307.888397 94.001431 
L 307.867476 93.666597 
L 307.723708 93.031875 
L 307.428439 92.230832 
L 307.233114 91.763674 
L 306.619844 90.227149 
L 306.476867 89.634913 
L 306.131 88.251493 
L 306.110145 87.957817 
L 306.110108 87.957684 
L 306.127566 87.738092 
L 306.227896 87.356862 
L 306.227864 87.356929 
L 306.264872 87.127024 
L 306.264839 87.127058 
L 306.2754 86.866477 
L 306.275432 86.866409 
L 306.058186 85.925395 
L 305.990389 85.378777 
L 306.023217 85.077403 
L 306.182695 84.256546 
L 306.658708 82.770209 
L 306.705673 82.569996 
L 306.72172 82.423559 
L 306.699251 80.581829 
L 306.695066 80.060829 
L 306.567493 79.052403 
L 306.535206 78.797294 
L 306.416154 78.479889 
L 306.295775 78.171667 
L 306.080637 77.536908 
L 306.098907 77.204993 
L 305.942928 77.026217 
L 305.967095 76.805588 
L 305.844535 76.652621 
L 305.707396 76.24792 
L 305.54495 75.857169 
L 305.635597 75.702421 
L 305.349641 74.702346 
L 304.749662 73.359489 
L 304.690609 73.018496 
L 304.577666 72.685239 
L 304.431164 72.129572 
L 304.276646 71.810484 
L 304.023392 71.117876 
L 303.933756 70.532308 
L 303.679672 70.034745 
L 303.686186 69.742141 
L 303.374926 69.076405 
L 303.220762 68.654531 
L 303.195908 68.415109 
L 303.120365 68.193022 
L 302.994133 67.988269 
L 302.910273 67.627337 
L 302.812545 67.412832 
L 302.572169 67.069943 
L 302.561242 66.861209 
L 302.466786 66.566099 
L 302.448843 66.51003 
L 302.441415 66.264663 
L 302.030874 66.262956 
L 301.729385 66.259336 
L 300.290072 66.246107 
L 299.568673 66.239465 
L 298.598414 66.230555 
L 297.032711 66.216191 
L 296.321154 66.209402 
L 295.613483 66.202775 
L 294.14831 66.18907 
L 293.981703 65.752154 
L 293.743074 65.126496 
L 293.584232 64.709957 
L 293.493981 64.404806 
L 293.256618 63.602142 
L 293.10158 63.077883 
L 292.984495 62.682021 
L 292.897578 62.388176 
L 292.401172 60.709649 
L 292.342793 60.515002 
L 292.0626 59.564818 
L 291.535422 59.163947 
L 290.384471 58.290119 
L 289.463547 57.590978 
L 289.300536 57.466733 
L 289.288536 57.457645 
L 287.778195 56.31041 
L 287.532263 56.085529 
L 287.217168 56.201188 
L 286.893221 56.289114 
L 286.89788 56.094093 
L 286.898433 56.071205 
L 284.690182 56.75607 
L 284.264627 56.887273 
L 283.913491 56.998855 
L 283.156578 57.232397 
L 282.67553 57.373258 
L 282.192943 57.51244 
L 281.537459 57.706878 
L 280.893922 57.894138 
L 280.349941 58.052725 
L 279.665439 58.252711 
L 279.447098 58.317859 
L 279.113663 58.287877 
L 278.37873 58.22182 
L 277.335956 58.128098 
L 276.404784 58.044376 
L 274.786939 57.896847 
L 274.654429 57.887974 
L 274.409672 57.860232 
L 274.170986 57.831329 
L 274.342418 58.890987 
L 273.860466 58.860479 
L 273.620032 58.846372 
L 273.009996 58.810596 
L 272.840761 57.713493 
L 272.540463 56.871689 
L 272.327663 56.266681 
L 271.437545 54.406215 
L 271.36277 54.249036 
L 271.150488 53.803995 
L 271.107653 53.714142 
L 271.078489 53.653469 
L 271.042941 53.568 
L 270.49575 54.544603 
L 270.05704 55.327677 
L 269.229619 56.46799 
L 269.149045 56.57905 
L 268.874555 56.919592 
L 268.86819 56.938034 
L 268.556857 57.875666 
L 268.526328 57.967315 
L 268.504389 57.992306 
L 267.745253 58.858482 
L 267.496472 59.142662 
L 267.835509 58.940211 
L 268.427114 58.586982 
L 268.228784 59.459771 
L 266.58908 60.412253 
L 264.633683 61.577913 
L 263.922869 61.994048 
L 263.575722 62.197272 
L 263.355963 62.301751 
L 262.388158 62.73781 
L 261.018828 63.295737 
L 260.032806 63.697455 
L 256.585123 65.038253 
L 256.187876 65.196605 
L 256.014501 65.265716 
L 255.382892 65.504263 
L 254.932477 65.674449 
L 254.943532 65.745343 
L 254.273664 66.002806 
L 253.76981 66.196405 
L 253.255955 66.393894 
L 252.744195 66.590572 
L 252.242006 66.783572 
L 251.728189 66.981066 
L 251.221184 67.175909 
L 250.700623 67.375956 
L 250.196546 67.569738 
L 249.682666 67.767206 
L 249.163604 67.966725 
L 248.653316 68.16285 
L 248.127246 68.365062 
L 247.62766 68.557084 
L 247.116412 68.753568 
L 246.607723 68.949064 
L 246.102493 69.143284 
L 245.588059 69.341044 
L 245.560847 69.2745 
L 244.155559 69.806924 
L 244.188785 69.86278 
L 244.06486 69.907734 
L 243.588751 70.092891 
L 243.083837 70.289227 
L 242.605671 70.475199 
L 242.107837 70.66878 
L 241.614223 70.860701 
L 241.354808 70.961578 
L 241.099081 71.061006 
L 240.60454 71.253351 
L 240.107906 71.446478 
L 239.603067 71.64279 
L 239.109825 71.834611 
L 238.612066 72.028201 
L 238.0865 72.232616 
L 237.563359 72.436011 
L 237.169959 72.589032 
L 237.117275 72.609522 
L 236.667918 72.784291 
L 235.803478 73.12048 
L 235.107416 73.391162 
L 234.36438 73.680169 
L 233.816698 73.893194 
L 233.471012 74.02762 
L 233.333037 74.081284 
L 231.860468 74.654013 
L 231.758741 74.693598 
L 230.265851 75.274298 
L 230.035885 75.363731 
L 230.006829 75.288941 
L 227.977461 76.07238 
L 227.267319 76.339287 
L 223.619833 77.714468 
L 221.187974 78.633988 
L 221.109817 78.6567 
L 220.959563 78.700391 
L 220.958538 78.701604 
L 220.844123 78.836969 
L 219.402029 80.752967 
L 218.78322 81.644918 
L 218.678077 81.796464 
L 218.655873 81.828467 
L 218.578177 81.923828 
L 218.394092 82.064647 
L 218.307935 82.13056 
L 218.244405 82.179579 
L 217.066094 83.008748 
L 216.89187 83.105492 
L 216.628979 83.234891 
L 215.744353 83.672801 
L 214.613965 84.239066 
L 214.064128 84.513287 
L 213.974745 84.560181 
L 213.884142 84.604684 
L 213.792385 84.646761 
L 213.699574 84.686378 
L 213.615356 84.717133 
L 213.5305 84.746089 
L 213.445036 84.773179 
L 213.358363 84.793417 
L 213.112147 84.839629 
L 212.957909 84.873009 
L 212.439633 84.940665 
L 212.451104 84.94003 
L 212.462574 84.941039 
L 212.473776 84.943663 
L 212.480589 84.949463 
L 212.485759 84.956805 
L 212.488942 84.965194 
L 212.489892 84.974131 
L 212.486857 84.9913 
L 212.481298 85.00785 
L 212.473342 85.023374 
L 212.463182 85.037535 
L 212.451212 85.04992 
L 212.43753 85.060429 
L 212.422465 85.068785 
L 212.406349 85.074814 
L 211.218502 85.176832 
L 211.16816 85.187345 
L 211.117966 85.19856 
L 211.067954 85.210508 
L 211.006334 85.226282 
L 210.945004 85.243123 
L 210.883964 85.261031 
L 210.832626 85.298535 
L 210.782595 85.337722 
L 210.733869 85.378561 
L 210.680859 85.426061 
L 210.629662 85.475504 
L 210.580344 85.52682 
L 210.532972 85.579976 
L 209.580769 86.821647 
L 209.427162 87.090067 
L 209.1164 87.479381 
L 208.976113 87.694463 
L 208.926005 87.771291 
L 208.913983 87.786059 
L 208.305207 88.534141 
L 207.669681 89.315105 
L 201.898248 96.773214 
L 201.542464 97.242054 
L 198.940782 100.612895 
L 197.907151 101.911406 
L 196.427622 103.803954 
L 194.450965 106.255399 
L 193.458877 107.291376 
L 193.284794 107.472341 
L 191.222181 109.621157 
L 190.17565 110.669301 
L 187.988038 112.864953 
L 187.881141 112.989473 
L 187.781927 113.104946 
L 186.86274 114.045953 
L 184.168457 116.804284 
L 184.112093 116.860482 
L 183.835226 117.13651 
L 183.785227 117.186373 
L 183.643892 117.327364 
L 183.582384 117.382461 
L 181.81903 118.965386 
L 181.461267 119.289153 
L 181.281384 119.451944 
L 180.914816 119.783717 
L 179.740872 120.791832 
L 179.196844 121.258635 
L 178.844688 121.584348 
L 178.401298 121.994349 
L 178.180679 122.138813 
L 177.965172 122.336945 
L 177.82516 122.465202 
L 177.586259 122.684812 
L 176.925668 123.289933 
L 176.826969 123.37836 
L 176.220637 123.921594 
L 175.523632 124.559266 
L 175.260284 124.748385 
L 175.364039 124.938439 
L 174.948055 125.168356 
L 175.767016 126.98941 
L 176.183501 128.020608 
L 176.317648 127.951408 
L 176.382292 128.107947 
L 176.233615 128.168756 
L 176.53234 128.866413 
L 176.934456 129.950169 
L 177.103061 130.129806 
L 177.838511 132.270251 
L 178.522121 134.408573 
L 179.088994 136.474012 
L 179.219877 136.529132 
L 179.182902 136.897675 
L 179.331597 137.505353 
L 179.777354 139.32732 
L 180.27532 141.664242 
L 180.380365 141.913547 
L 180.376078 141.972573 
L 180.359462 142.032623 
L 180.847114 144.195862 
L 180.702225 144.404287 
L 180.720054 144.486074 
L 181.380931 147.102051 
L 181.501005 147.07541 
L 181.555823 147.284214 
L 181.436754 147.310868 
L 181.960306 149.54751 
L 181.993477 149.598759 
L 182.440714 151.572294 
L 182.61409 152.399223 
L 182.683099 152.728365 
L 182.816779 153.365906 
L 182.777763 153.464856 
L 182.831969 153.711243 
L 182.862903 153.851667 
L 182.940303 153.927004 
L 182.99179 154.16969 
L 183.643346 157.124335 
L 183.757929 157.61638 
L 183.96697 158.512624 
L 183.984679 158.595219 
L 184.353469 160.047429 
L 184.720749 161.710534 
L 184.791075 162.025829 
L 184.80119 162.167854 
L 185.115374 163.803967 
L 185.503242 165.639511 
L 185.949183 167.212689 
L 186.507079 169.083877 
L 186.773201 169.09676 
L 186.7899 169.164314 
L 186.915461 171.33446 
L 186.842818 171.444964 
L 186.858933 171.516791 
L 186.903127 171.714039 
L 186.925208 171.812646 
L 187.203667 173.217429 
L 187.261459 173.410341 
L 187.357062 173.89818 
L 187.738386 175.844025 
L 188.308874 177.72818 
L 188.568386 178.647385 
L 189.792974 184.083431 
L 190.626017 184.878366 
L 189.064336 185.40457 
L 189.316227 186.153523 
L 189.278108 186.166276 
L 189.149356 186.209056 
L 188.892715 186.294363 
L 188.415795 186.452933 
L 188.735373 186.38583 
L 188.88243 186.585509 
L 188.945023 186.871881 
L 189.101717 187.544784 
L 187.973696 187.964066 
L 187.221958 188.266353 
L 186.837286 188.078671 
L 184.247998 189.153196 
L 183.685092 189.406724 
L 182.733559 189.809623 
L 182.622542 189.847383 
L 180.593468 190.517436 
L 177.509731 192.130012 
L 176.977699 192.424863 
L 175.442155 193.275849 
L 175.28643 193.36223 
L 175.093393 193.467994 
L 175.056904 193.398062 
L 174.946392 193.462049 
L 174.960798 193.487617 
L 173.955519 194.063285 
L 173.675006 194.223911 
L 173.165144 194.515872 
L 173.183824 194.552522 
L 171.21904 195.590975 
L 170.897922 195.732278 
L 170.719159 195.810951 
L 169.753355 196.221062 
L 169.143003 196.44103 
L 168.208705 196.743797 
L 167.31193 196.981761 
L 166.931108 197.079314 
L 166.855907 197.097866 
L 166.702954 197.131231 
L 166.301935 197.209644 
L 165.063589 197.407606 
L 164.586189 197.482762 
L 163.947884 197.554115 
L 163.732713 197.568367 
L 163.535115 197.581385 
L 162.346922 197.659722 
L 161.240966 197.824666 
L 160.998222 197.861562 
L 161.007963 197.883031 
L 160.897968 197.899953 
L 160.914079 197.935146 
L 160.961049 198.038002 
L 161.025791 198.180377 
L 161.095905 198.33351 
L 161.016326 198.344037 
L 159.704057 198.501227 
L 157.68025 198.737653 
L 157.459589 198.761452 
L 156.622464 198.849821 
L 155.712947 198.945836 
L 155.962287 199.433308 
L 156.133275 199.418179 
L 156.155997 199.420059 
L 156.178248 199.425102 
L 156.199559 199.433217 
L 156.219525 199.444278 
L 156.23774 199.458025 
L 156.253829 199.474198 
L 156.26752 199.4925 
L 156.596879 200.214817 
L 156.346622 200.266902 
L 157.37501 202.53071 
L 157.482466 202.767271 
L 157.581792 202.985919 
L 157.666648 203.172695 
L 157.669906 203.17984 
L 158.080215 204.083515 
L 158.180605 204.298653 
L 158.278544 204.514981 
L 158.373928 204.732402 
L 158.466826 204.950914 
L 158.55717 205.170519 
L 158.644958 205.391149 
L 158.730224 205.612771 
L 158.81354 205.837216 
L 158.894198 206.062589 
L 158.972267 206.288921 
L 159.047677 206.516146 
L 159.120428 206.744265 
L 159.190486 206.973177 
L 159.257918 207.202915 
L 159.293209 207.326909 
L 159.361263 207.575654 
L 159.426156 207.825202 
L 159.487921 208.075586 
L 159.546523 208.32674 
L 159.601995 208.578595 
L 159.654268 208.83112 
L 159.749989 209.565264 
L 159.825056 209.664723 
L 159.851912 209.976509 
L 159.862926 210.187717 
L 159.772369 210.387295 
L 159.874373 212.038131 
L 159.992748 213.954474 
L 160.006272 214.172273 
L 160.026155 214.494869 
L 160.032566 214.598861 
L 160.139909 214.652371 
L 160.143129 214.739421 
L 160.147584 214.859018 
L 160.156871 215.11008 
L 160.161718 215.240672 
L 160.197446 215.224338 
L 160.201074 215.336204 
L 160.146784 215.758144 
L 160.271508 217.999779 
L 160.600632 223.526239 
L 160.62098 224.005683 
L 160.624223 224.082435 
L 160.634022 224.312822 
L 160.643456 224.5352 
L 160.714852 226.218031 
L 160.876901 230.386234 
L 160.791076 230.471695 
L 160.793851 231.79922 
L 160.795209 234.113705 
L 160.972348 234.636127 
L 161.19144 235.282283 
L 161.203318 235.481934 
L 161.271709 236.630924 
L 161.359902 238.116802 
L 161.467007 239.923956 
L 161.489584 240.638607 
L 161.509762 241.322614 
L 161.519273 241.882521 
L 161.5159 242.306333 
L 161.517665 242.598676 
L 161.477749 243.399414 
L 161.452441 243.856216 
L 161.405334 244.846633 
L 161.239915 248.271473 
L 161.220852 248.260125 
L 161.116041 250.563042 
L 161.106484 250.776049 
L 161.083756 251.282076 
L 160.980942 253.56969 
L 160.890093 253.618187 
L 160.884131 253.766579 
L 160.744375 257.245035 
L 160.739257 257.372545 
L 160.704565 258.23537 
L 160.796697 258.235017 
L 160.76781 258.403841 
L 160.730208 258.808867 
L 160.712341 259.001415 
L 160.704416 259.086514 
L 160.663803 259.524142 
L 160.568639 260.602564 
L 160.548414 260.911999 
L 160.540288 261.036283 
L 160.430102 262.724195 
L 160.427218 262.767964 
L 160.424285 262.856718 
L 160.368603 264.557195 
L 160.366178 264.683878 
L 160.308852 266.380733 
L 160.304484 266.513796 
L 160.249394 268.195677 
L 160.246713 268.277147 
L 160.197009 269.795586 
L 160.186296 270.121966 
L 159.938641 277.682245 
L 159.61674 277.329065 
L 159.606255 277.655105 
L 159.547427 278.977226 
L 159.523803 279.511047 
L 159.511979 279.657178 
L 159.882678 279.672593 
L 159.969244 279.678627 
L 159.970767 279.529119 
L 159.983943 279.218521 
L 160.407504 279.217183 
L 161.220486 279.227692 
L 161.217456 279.480182 
L 161.214083 279.714297 
" clip-path="url(#pb1c17395d1)" style="fill: #1f77b4"/>
   </g>
   <g id="matplotlib.axis_1">
    <g id="xtick_1">
     <g id="line2d_1">
      <defs>
       <path id="mbd265d9456" d="M 0 0 
L 0 3.5 
" style="stroke: #000000; stroke-width: 0.8"/>
      </defs>
      <g>
       <use xlink:href="#mbd265d9456" x="162.795486" y="307.584" style="stroke: #000000; stroke-width: 0.8"/>
      </g>
     </g>
     <g id="text_1">
      <!-- 13.52 -->
      <g transform="translate(148.481423 322.182437) scale(0.1 -0.1)">
       <defs>
        <path id="DejaVuSans-31" d="M 794 531 
L 1825 531 
L 1825 4091 
L 703 3866 
L 703 4441 
L 1819 4666 
L 2450 4666 
L 2450 531 
L 3481 531 
L 3481 0 
L 794 0 
L 794 531 
z
" transform="scale(0.015625)"/>
        <path id="DejaVuSans-33" d="M 2597 2516 
Q 3050 2419 3304 2112 
Q 3559 1806 3559 1356 
Q 3559 666 3084 287 
Q 2609 -91 1734 -91 
Q 1441 -91 1130 -33 
Q 819 25 488 141 
L 488 750 
Q 750 597 1062 519 
Q 1375 441 1716 441 
Q 2309 441 2620 675 
Q 2931 909 2931 1356 
Q 2931 1769 2642 2001 
Q 2353 2234 1838 2234 
L 1294 2234 
L 1294 2753 
L 1863 2753 
Q 2328 2753 2575 2939 
Q 2822 3125 2822 3475 
Q 2822 3834 2567 4026 
Q 2313 4219 1838 4219 
Q 1578 4219 1281 4162 
Q 984 4106 628 3988 
L 628 4550 
Q 988 4650 1302 4700 
Q 1616 4750 1894 4750 
Q 2613 4750 3031 4423 
Q 3450 4097 3450 3541 
Q 3450 3153 3228 2886 
Q 3006 2619 2597 2516 
z
" transform="scale(0.015625)"/>
        <path id="DejaVuSans-2e" d="M 684 794 
L 1344 794 
L 1344 0 
L 684 0 
L 684 794 
z
" transform="scale(0.015625)"/>
        <path id="DejaVuSans-35" d="M 691 4666 
L 3169 4666 
L 3169 4134 
L 1269 4134 
L 1269 2991 
Q 1406 3038 1543 3061 
Q 1681 3084 1819 3084 
Q 2600 3084 3056 2656 
Q 3513 2228 3513 1497 
Q 3513 744 3044 326 
Q 2575 -91 1722 -91 
Q 1428 -91 1123 -41 
Q 819 9 494 109 
L 494 744 
Q 775 591 1075 516 
Q 1375 441 1709 441 
Q 2250 441 2565 725 
Q 2881 1009 2881 1497 
Q 2881 1984 2565 2268 
Q 2250 2553 1709 2553 
Q 1456 2553 1204 2497 
Q 953 2441 691 2322 
L 691 4666 
z
" transform="scale(0.015625)"/>
        <path id="DejaVuSans-32" d="M 1228 531 
L 3431 531 
L 3431 0 
L 469 0 
L 469 531 
Q 828 903 1448 1529 
Q 2069 2156 2228 2338 
Q 2531 2678 2651 2914 
Q 2772 3150 2772 3378 
Q 2772 3750 2511 3984 
Q 2250 4219 1831 4219 
Q 1534 4219 1204 4116 
Q 875 4013 500 3803 
L 500 4441 
Q 881 4594 1212 4672 
Q 1544 4750 1819 4750 
Q 2544 4750 2975 4387 
Q 3406 4025 3406 3419 
Q 3406 3131 3298 2873 
Q 3191 2616 2906 2266 
Q 2828 2175 2409 1742 
Q 1991 1309 1228 531 
z
" transform="scale(0.015625)"/>
       </defs>
       <use xlink:href="#DejaVuSans-31"/>
       <use xlink:href="#DejaVuSans-33" x="63.623047"/>
       <use xlink:href="#DejaVuSans-2e" x="127.246094"/>
       <use xlink:href="#DejaVuSans-35" x="159.033203"/>
       <use xlink:href="#DejaVuSans-32" x="222.65625"/>
      </g>
     </g>
    </g>
    <g id="xtick_2">
     <g id="line2d_2">
      <g>
       <use xlink:href="#mbd265d9456" x="208.177721" y="307.584" style="stroke: #000000; stroke-width: 0.8"/>
      </g>
     </g>
     <g id="text_2">
      <!-- 13.54 -->
      <g transform="translate(193.863659 322.182437) scale(0.1 -0.1)">
       <defs>
        <path id="DejaVuSans-34" d="M 2419 4116 
L 825 1625 
L 2419 1625 
L 2419 4116 
z
M 2253 4666 
L 3047 4666 
L 3047 1625 
L 3713 1625 
L 3713 1100 
L 3047 1100 
L 3047 0 
L 2419 0 
L 2419 1100 
L 313 1100 
L 313 1709 
L 2253 4666 
z
" transform="scale(0.015625)"/>
       </defs>
       <use xlink:href="#DejaVuSans-31"/>
       <use xlink:href="#DejaVuSans-33" x="63.623047"/>
       <use xlink:href="#DejaVuSans-2e" x="127.246094"/>
       <use xlink:href="#DejaVuSans-35" x="159.033203"/>
       <use xlink:href="#DejaVuSans-34" x="222.65625"/>
      </g>
     </g>
    </g>
    <g id="xtick_3">
     <g id="line2d_3">
      <g>
       <use xlink:href="#mbd265d9456" x="253.559957" y="307.584" style="stroke: #000000; stroke-width: 0.8"/>
      </g>
     </g>
     <g id="text_3">
      <!-- 13.56 -->
      <g transform="translate(239.245894 322.182437) scale(0.1 -0.1)">
       <defs>
        <path id="DejaVuSans-36" d="M 2113 2584 
Q 1688 2584 1439 2293 
Q 1191 2003 1191 1497 
Q 1191 994 1439 701 
Q 1688 409 2113 409 
Q 2538 409 2786 701 
Q 3034 994 3034 1497 
Q 3034 2003 2786 2293 
Q 2538 2584 2113 2584 
z
M 3366 4563 
L 3366 3988 
Q 3128 4100 2886 4159 
Q 2644 4219 2406 4219 
Q 1781 4219 1451 3797 
Q 1122 3375 1075 2522 
Q 1259 2794 1537 2939 
Q 1816 3084 2150 3084 
Q 2853 3084 3261 2657 
Q 3669 2231 3669 1497 
Q 3669 778 3244 343 
Q 2819 -91 2113 -91 
Q 1303 -91 875 529 
Q 447 1150 447 2328 
Q 447 3434 972 4092 
Q 1497 4750 2381 4750 
Q 2619 4750 2861 4703 
Q 3103 4656 3366 4563 
z
" transform="scale(0.015625)"/>
       </defs>
       <use xlink:href="#DejaVuSans-31"/>
       <use xlink:href="#DejaVuSans-33" x="63.623047"/>
       <use xlink:href="#DejaVuSans-2e" x="127.246094"/>
       <use xlink:href="#DejaVuSans-35" x="159.033203"/>
       <use xlink:href="#DejaVuSans-36" x="222.65625"/>
      </g>
     </g>
    </g>
    <g id="xtick_4">
     <g id="line2d_4">
      <g>
       <use xlink:href="#mbd265d9456" x="298.942193" y="307.584" style="stroke: #000000; stroke-width: 0.8"/>
      </g>
     </g>
     <g id="text_4">
      <!-- 13.58 -->
      <g transform="translate(284.62813 322.182437) scale(0.1 -0.1)">
       <defs>
        <path id="DejaVuSans-38" d="M 2034 2216 
Q 1584 2216 1326 1975 
Q 1069 1734 1069 1313 
Q 1069 891 1326 650 
Q 1584 409 2034 409 
Q 2484 409 2743 651 
Q 3003 894 3003 1313 
Q 3003 1734 2745 1975 
Q 2488 2216 2034 2216 
z
M 1403 2484 
Q 997 2584 770 2862 
Q 544 3141 544 3541 
Q 544 4100 942 4425 
Q 1341 4750 2034 4750 
Q 2731 4750 3128 4425 
Q 3525 4100 3525 3541 
Q 3525 3141 3298 2862 
Q 3072 2584 2669 2484 
Q 3125 2378 3379 2068 
Q 3634 1759 3634 1313 
Q 3634 634 3220 271 
Q 2806 -91 2034 -91 
Q 1263 -91 848 271 
Q 434 634 434 1313 
Q 434 1759 690 2068 
Q 947 2378 1403 2484 
z
M 1172 3481 
Q 1172 3119 1398 2916 
Q 1625 2713 2034 2713 
Q 2441 2713 2670 2916 
Q 2900 3119 2900 3481 
Q 2900 3844 2670 4047 
Q 2441 4250 2034 4250 
Q 1625 4250 1398 4047 
Q 1172 3844 1172 3481 
z
" transform="scale(0.015625)"/>
       </defs>
       <use xlink:href="#DejaVuSans-31"/>
       <use xlink:href="#DejaVuSans-33" x="63.623047"/>
       <use xlink:href="#DejaVuSans-2e" x="127.246094"/>
       <use xlink:href="#DejaVuSans-35" x="159.033203"/>
       <use xlink:href="#DejaVuSans-38" x="222.65625"/>
      </g>
     </g>
    </g>
   </g>
   <g id="matplotlib.axis_2">
    <g id="ytick_1">
     <g id="line2d_5">
      <defs>
       <path id="m37f5ba7c41" d="M 0 0 
L -3.5 0 
" style="stroke: #000000; stroke-width: 0.8"/>
      </defs>
      <g>
       <use xlink:href="#m37f5ba7c41" x="147.668242" y="294.251146" style="stroke: #000000; stroke-width: 0.8"/>
      </g>
     </g>
     <g id="text_5">
      <!-- 52.51 -->
      <g transform="translate(112.040117 298.050365) scale(0.1 -0.1)">
       <use xlink:href="#DejaVuSans-35"/>
       <use xlink:href="#DejaVuSans-32" x="63.623047"/>
       <use xlink:href="#DejaVuSans-2e" x="127.246094"/>
       <use xlink:href="#DejaVuSans-35" x="159.033203"/>
       <use xlink:href="#DejaVuSans-31" x="222.65625"/>
      </g>
     </g>
    </g>
    <g id="ytick_2">
     <g id="line2d_6">
      <g>
       <use xlink:href="#m37f5ba7c41" x="147.668242" y="256.941181" style="stroke: #000000; stroke-width: 0.8"/>
      </g>
     </g>
     <g id="text_6">
      <!-- 52.52 -->
      <g transform="translate(112.040117 260.740399) scale(0.1 -0.1)">
       <use xlink:href="#DejaVuSans-35"/>
       <use xlink:href="#DejaVuSans-32" x="63.623047"/>
       <use xlink:href="#DejaVuSans-2e" x="127.246094"/>
       <use xlink:href="#DejaVuSans-35" x="159.033203"/>
       <use xlink:href="#DejaVuSans-32" x="222.65625"/>
      </g>
     </g>
    </g>
    <g id="ytick_3">
     <g id="line2d_7">
      <g>
       <use xlink:href="#m37f5ba7c41" x="147.668242" y="219.631216" style="stroke: #000000; stroke-width: 0.8"/>
      </g>
     </g>
     <g id="text_7">
      <!-- 52.53 -->
      <g transform="translate(112.040117 223.430434) scale(0.1 -0.1)">
       <use xlink:href="#DejaVuSans-35"/>
       <use xlink:href="#DejaVuSans-32" x="63.623047"/>
       <use xlink:href="#DejaVuSans-2e" x="127.246094"/>
       <use xlink:href="#DejaVuSans-35" x="159.033203"/>
       <use xlink:href="#DejaVuSans-33" x="222.65625"/>
      </g>
     </g>
    </g>
    <g id="ytick_4">
     <g id="line2d_8">
      <g>
       <use xlink:href="#m37f5ba7c41" x="147.668242" y="182.32125" style="stroke: #000000; stroke-width: 0.8"/>
      </g>
     </g>
     <g id="text_8">
      <!-- 52.54 -->
      <g transform="translate(112.040117 186.120469) scale(0.1 -0.1)">
       <use xlink:href="#DejaVuSans-35"/>
       <use xlink:href="#DejaVuSans-32" x="63.623047"/>
       <use xlink:href="#DejaVuSans-2e" x="127.246094"/>
       <use xlink:href="#DejaVuSans-35" x="159.033203"/>
       <use xlink:href="#DejaVuSans-34" x="222.65625"/>
      </g>
     </g>
    </g>
    <g id="ytick_5">
     <g id="line2d_9">
      <g>
       <use xlink:href="#m37f5ba7c41" x="147.668242" y="145.011285" style="stroke: #000000; stroke-width: 0.8"/>
      </g>
     </g>
     <g id="text_9">
      <!-- 52.55 -->
      <g transform="translate(112.040117 148.810504) scale(0.1 -0.1)">
       <use xlink:href="#DejaVuSans-35"/>
       <use xlink:href="#DejaVuSans-32" x="63.623047"/>
       <use xlink:href="#DejaVuSans-2e" x="127.246094"/>
       <use xlink:href="#DejaVuSans-35" x="159.033203"/>
       <use xlink:href="#DejaVuSans-35" x="222.65625"/>
      </g>
     </g>
    </g>
    <g id="ytick_6">
     <g id="line2d_10">
      <g>
       <use xlink:href="#m37f5ba7c41" x="147.668242" y="107.70132" style="stroke: #000000; stroke-width: 0.8"/>
      </g>
     </g>
     <g id="text_10">
      <!-- 52.56 -->
      <g transform="translate(112.040117 111.500539) scale(0.1 -0.1)">
       <use xlink:href="#DejaVuSans-35"/>
       <use xlink:href="#DejaVuSans-32" x="63.623047"/>
       <use xlink:href="#DejaVuSans-2e" x="127.246094"/>
       <use xlink:href="#DejaVuSans-35" x="159.033203"/>
       <use xlink:href="#DejaVuSans-36" x="222.65625"/>
      </g>
     </g>
    </g>
    <g id="ytick_7">
     <g id="line2d_11">
      <g>
       <use xlink:href="#m37f5ba7c41" x="147.668242" y="70.391355" style="stroke: #000000; stroke-width: 0.8"/>
      </g>
     </g>
     <g id="text_11">
      <!-- 52.57 -->
      <g transform="translate(112.040117 74.190573) scale(0.1 -0.1)">
       <defs>
        <path id="DejaVuSans-37" d="M 525 4666 
L 3525 4666 
L 3525 4397 
L 1831 0 
L 1172 0 
L 2766 4134 
L 525 4134 
L 525 4666 
z
" transform="scale(0.015625)"/>
       </defs>
       <use xlink:href="#DejaVuSans-35"/>
       <use xlink:href="#DejaVuSans-32" x="63.623047"/>
       <use xlink:href="#DejaVuSans-2e" x="127.246094"/>
       <use xlink:href="#DejaVuSans-35" x="159.033203"/>
       <use xlink:href="#DejaVuSans-37" x="222.65625"/>
      </g>
     </g>
    </g>
   </g>
   <g id="patch_3">
    <path d="M 147.668242 307.584 
L 147.668242 41.472 
" style="fill: none; stroke: #000000; stroke-width: 0.8; stroke-linejoin: miter; stroke-linecap: square"/>
   </g>
   <g id="patch_4">
    <path d="M 324.651758 307.584 
L 324.651758 41.472 
" style="fill: none; stroke: #000000; stroke-width: 0.8; stroke-linejoin: miter; stroke-linecap: square"/>
   </g>
   <g id="patch_5">
    <path d="M 147.668242 307.584 
L 324.651758 307.584 
" style="fill: none; stroke: #000000; stroke-width: 0.8; stroke-linejoin: miter; stroke-linecap: square"/>
   </g>
   <g id="patch_6">
    <path d="M 147.668242 41.472 
L 324.651758 41.472 
" style="fill: none; stroke: #000000; stroke-width: 0.8; stroke-linejoin: miter; stroke-linecap: square"/>
   </g>
   <g id="text_12">
    <!-- Marzahn -->
    <g transform="translate(210.784097 167.864688) scale(0.12 -0.12)">
     <defs>
      <path id="DejaVuSans-4d" d="M 628 4666 
L 1569 4666 
L 2759 1491 
L 3956 4666 
L 4897 4666 
L 4897 0 
L 4281 0 
L 4281 4097 
L 3078 897 
L 2444 897 
L 1241 4097 
L 1241 0 
L 628 0 
L 628 4666 
z
" transform="scale(0.015625)"/>
      <path id="DejaVuSans-61" d="M 2194 1759 
Q 1497 1759 1228 1600 
Q 959 1441 959 1056 
Q 959 750 1161 570 
Q 1363 391 1709 391 
Q 2188 391 2477 730 
Q 2766 1069 2766 1631 
L 2766 1759 
L 2194 1759 
z
M 3341 1997 
L 3341 0 
L 2766 0 
L 2766 531 
Q 2569 213 2275 61 
Q 1981 -91 1556 -91 
Q 1019 -91 701 211 
Q 384 513 384 1019 
Q 384 1609 779 1909 
Q 1175 2209 1959 2209 
L 2766 2209 
L 2766 2266 
Q 2766 2663 2505 2880 
Q 2244 3097 1772 3097 
Q 1472 3097 1187 3025 
Q 903 2953 641 2809 
L 641 3341 
Q 956 3463 1253 3523 
Q 1550 3584 1831 3584 
Q 2591 3584 2966 3190 
Q 3341 2797 3341 1997 
z
" transform="scale(0.015625)"/>
      <path id="DejaVuSans-72" d="M 2631 2963 
Q 2534 3019 2420 3045 
Q 2306 3072 2169 3072 
Q 1681 3072 1420 2755 
Q 1159 2438 1159 1844 
L 1159 0 
L 581 0 
L 581 3500 
L 1159 3500 
L 1159 2956 
Q 1341 3275 1631 3429 
Q 1922 3584 2338 3584 
Q 2397 3584 2469 3576 
Q 2541 3569 2628 3553 
L 2631 2963 
z
" transform="scale(0.015625)"/>
      <path id="DejaVuSans-7a" d="M 353 3500 
L 3084 3500 
L 3084 2975 
L 922 459 
L 3084 459 
L 3084 0 
L 275 0 
L 275 525 
L 2438 3041 
L 353 3041 
L 353 3500 
z
" transform="scale(0.015625)"/>
      <path id="DejaVuSans-68" d="M 3513 2113 
L 3513 0 
L 2938 0 
L 2938 2094 
Q 2938 2591 2744 2837 
Q 2550 3084 2163 3084 
Q 1697 3084 1428 2787 
Q 1159 2491 1159 1978 
L 1159 0 
L 581 0 
L 581 4863 
L 1159 4863 
L 1159 2956 
Q 1366 3272 1645 3428 
Q 1925 3584 2291 3584 
Q 2894 3584 3203 3211 
Q 3513 2838 3513 2113 
z
" transform="scale(0.015625)"/>
      <path id="DejaVuSans-6e" d="M 3513 2113 
L 3513 0 
L 2938 0 
L 2938 2094 
Q 2938 2591 2744 2837 
Q 2550 3084 2163 3084 
Q 1697 3084 1428 2787 
Q 1159 2491 1159 1978 
L 1159 0 
L 581 0 
L 581 3500 
L 1159 3500 
L 1159 2956 
Q 1366 3272 1645 3428 
Q 1925 3584 2291 3584 
Q 2894 3584 3203 3211 
Q 3513 2838 3513 2113 
z
" transform="scale(0.015625)"/>
     </defs>
     <use xlink:href="#DejaVuSans-4d"/>
     <use xlink:href="#DejaVuSans-61" x="86.279297"/>
     <use xlink:href="#DejaVuSans-72" x="147.558594"/>
     <use xlink:href="#DejaVuSans-7a" x="188.671875"/>
     <use xlink:href="#DejaVuSans-61" x="241.162109"/>
     <use xlink:href="#DejaVuSans-68" x="302.441406"/>
     <use xlink:href="#DejaVuSans-6e" x="365.820312"/>
    </g>
   </g>
  </g>
 </g>
 <defs>
  <clipPath id="pb1c17395d1">
   <rect x="147.668242" y="41.472" width="176.983516" height="266.112"/>
  </clipPath>
 </defs>
</svg>
