<?xml version="1.0" encoding="utf-8" standalone="no"?>
<!DOCTYPE svg PUBLIC "-//W3C//DTD SVG 1.1//EN"
  "http://www.w3.org/Graphics/SVG/1.1/DTD/svg11.dtd">
<svg xmlns:xlink="http://www.w3.org/1999/xlink" width="720pt" height="720pt" viewBox="0 0 720 720" xmlns="http://www.w3.org/2000/svg" version="1.1">
 <metadata>
  <rdf:RDF xmlns:dc="http://purl.org/dc/elements/1.1/" xmlns:cc="http://creativecommons.org/ns#" xmlns:rdf="http://www.w3.org/1999/02/22-rdf-syntax-ns#">
   <cc:Work>
    <dc:type rdf:resource="http://purl.org/dc/dcmitype/StillImage"/>
    <dc:date>2024-10-17T11:36:17.981032</dc:date>
    <dc:format>image/svg+xml</dc:format>
    <dc:creator>
     <cc:Agent>
      <dc:title>Matplotlib v3.9.2, https://matplotlib.org/</dc:title>
     </cc:Agent>
    </dc:creator>
   </cc:Work>
  </rdf:RDF>
 </metadata>
 <defs>
  <style type="text/css">*{stroke-linejoin: round; stroke-linecap: butt}</style>
 </defs>
 <g id="figure_1">
  <g id="patch_1">
   <path d="M 0 720 
L 720 720 
L 720 0 
L 0 0 
z
" style="fill: #ffffff"/>
  </g>
  <g id="axes_1">
   <g id="patch_2">
    <path d="M 181.805477 640.8 
L 556.194523 640.8 
L 556.194523 86.4 
L 181.805477 86.4 
z
" style="fill: #ffffff"/>
   </g>
   <g id="PatchCollection_1">
    <path d="M 206.898409 580.205396 
L 208.285479 580.285564 
L 210.209013 580.372752 
L 210.166683 581.238591 
L 210.150888 581.562842 
L 210.808165 581.586289 
L 210.834209 581.317425 
L 212.103976 581.381377 
L 212.153467 580.483596 
L 214.610937 580.616273 
L 217.014986 580.742702 
L 217.277532 580.764043 
L 217.739584 580.788683 
L 218.884677 580.845123 
L 219.655607 580.895456 
L 219.840793 580.90381 
L 219.842579 580.90368 
L 222.190578 580.732102 
L 224.332011 580.575558 
L 226.388081 580.496303 
L 226.432166 580.494618 
L 227.305447 580.478331 
L 227.847386 580.496724 
L 228.702415 580.631787 
L 230.248697 580.875871 
L 231.24244 581.032837 
L 231.703791 581.240346 
L 231.970338 581.314968 
L 232.772506 581.539395 
L 233.565689 581.575057 
L 233.950733 581.58692 
L 235.192771 581.625109 
L 239.563457 581.772809 
L 242.510779 581.853117 
L 245.54936 581.778846 
L 250.347489 581.885408 
L 254.239485 582.0303 
L 257.2019 582.320645 
L 258.166159 582.419907 
L 258.745514 582.454866 
L 258.749852 582.455266 
L 258.978998 582.476417 
L 260.565364 582.581295 
L 263.199597 582.818639 
L 263.313881 582.823553 
L 264.405131 582.874588 
L 266.183633 582.955879 
L 267.218793 583.003896 
L 268.382629 583.185431 
L 271.351783 583.663068 
L 271.73795 583.649309 
L 273.322702 583.593149 
L 276.791114 583.766472 
L 278.908258 584.423749 
L 280.364194 584.968075 
L 282.23915 585.810959 
L 283.672341 586.62787 
L 284.951304 587.510627 
L 284.994968 587.540251 
L 287.683605 589.777155 
L 288.730068 590.817721 
L 290.544793 593.052028 
L 291.839972 595.223857 
L 292.131791 595.563482 
L 292.453163 595.93954 
L 293.595167 598.448186 
L 294.302707 601.43847 
L 294.66978 603.874811 
L 294.733802 608.294565 
L 294.766374 611.122548 
L 294.607092 612.941345 
L 295.680932 613.044959 
L 296.336946 613.169774 
L 300.592363 613.551869 
L 302.539905 613.723366 
L 303.254606 613.786195 
L 304.55182 613.902305 
L 305.480138 613.994975 
L 306.629549 614.188479 
L 308.022775 614.296841 
L 308.730998 614.296841 
L 313.386696 614.703199 
L 318.852142 615.177898 
L 322.008658 615.459538 
L 323.495577 615.6 
L 323.635243 614.641408 
L 323.752902 613.83386 
L 323.764696 613.730597 
L 323.793197 613.500553 
L 323.946372 612.600035 
L 323.812581 612.580757 
L 324.810387 606.470539 
L 325.642084 606.332544 
L 325.554007 605.530539 
L 325.554384 604.876129 
L 325.626464 603.852979 
L 325.776429 602.643581 
L 325.948067 601.463142 
L 326.536318 597.59307 
L 326.548702 596.620908 
L 326.585855 596.181267 
L 326.952738 593.780274 
L 327.509343 590.340365 
L 327.545917 590.003759 
L 327.619767 589.520155 
L 327.674312 589.250941 
L 327.764518 588.502615 
L 327.892037 587.959613 
L 328.228733 586.74441 
L 328.298314 586.454688 
L 328.441587 585.544688 
L 328.406757 584.995138 
L 328.402887 584.492028 
L 328.453034 583.942251 
L 328.570056 583.196242 
L 328.611895 582.900983 
L 328.774126 581.823563 
L 328.921123 580.812761 
L 329.327697 578.216143 
L 329.41276 577.794626 
L 329.723502 576.254784 
L 330.524618 570.934161 
L 330.773756 569.27921 
L 330.903203 568.481815 
L 331.540818 566.650603 
L 331.982615 563.991785 
L 332.383007 564.031453 
L 332.490623 563.376843 
L 332.51435 563.207663 
L 332.696728 562.028173 
L 332.816488 561.262999 
L 332.904308 560.701965 
L 333.035019 559.867084 
L 333.249689 558.4963 
L 333.463867 557.127692 
L 333.566148 556.474487 
L 333.680573 555.7435 
L 333.708933 555.562105 
L 333.913565 554.255273 
L 334.118898 552.943457 
L 334.341009 551.524165 
L 334.556591 550.147063 
L 334.982982 547.423467 
L 335.143809 546.396099 
L 335.592173 543.531963 
L 335.8093 542.144612 
L 336.027339 540.752066 
L 336.248748 539.352009 
L 336.463628 537.985297 
L 336.680264 536.590014 
L 336.896337 535.199012 
L 337.114026 533.797902 
L 337.327993 532.420239 
L 337.542874 531.036188 
L 337.761966 529.625952 
L 337.975162 528.253132 
L 338.175862 526.960901 
L 338.574033 524.397289 
L 338.717591 523.473114 
L 338.908393 522.178286 
L 338.986384 521.733292 
L 342.466239 521.797525 
L 342.48435 521.674816 
L 342.638719 520.79276 
L 343.798273 513.267735 
L 345.167021 504.385194 
L 345.215529 504.01419 
L 345.262703 503.656594 
L 345.424653 502.605498 
L 345.636304 501.22952 
L 345.851254 499.833745 
L 346.475187 495.777062 
L 346.492526 495.66376 
L 346.704247 494.284552 
L 346.922006 492.875229 
L 347.318141 490.298489 
L 348.438453 490.028643 
L 348.599631 488.979794 
L 348.60453 488.947919 
L 348.765021 487.903637 
L 348.838239 487.427123 
L 349.08134 485.845601 
L 349.272001 484.605037 
L 349.469121 483.322283 
L 349.656905 482.100603 
L 349.847005 480.86383 
L 350.042159 479.594203 
L 350.22896 478.378349 
L 350.426571 477.092366 
L 350.615899 475.860718 
L 350.802629 474.645707 
L 351.098871 472.718312 
L 351.263418 471.64763 
L 351.502728 470.090818 
L 351.741967 468.534006 
L 351.933822 467.285299 
L 352.12666 466.030906 
L 352.317602 464.788446 
L 352.51051 463.533211 
L 352.700891 462.294612 
L 352.893589 461.04036 
L 353.086988 459.782316 
L 353.281651 458.515638 
L 353.44676 457.441447 
L 353.622188 456.299864 
L 354.601119 456.42531 
L 354.755136 455.405594 
L 354.993885 453.823931 
L 355.349374 451.555297 
L 355.562359 450.168929 
L 355.789384 448.767397 
L 356.002791 447.380889 
L 356.215846 445.993749 
L 356.427848 444.607381 
L 356.537991 443.888047 
L 356.640271 443.220732 
L 357.180737 439.635718 
L 357.317906 438.742852 
L 357.361238 438.47012 
L 357.059713 438.43222 
L 356.776388 438.396558 
L 356.738551 438.391364 
L 356.702328 438.379079 
L 356.669123 438.360125 
L 356.640201 438.335204 
L 356.616544 438.305159 
L 356.598994 438.271182 
L 356.588254 438.234538 
L 356.584744 438.19649 
L 356.588534 438.158442 
L 356.710681 437.359853 
L 356.772878 436.944273 
L 356.977509 435.653868 
L 357.037811 435.378335 
L 357.106536 435.104698 
L 357.183615 434.833377 
L 357.268977 434.564443 
L 357.362413 434.298317 
L 357.464061 434.03521 
L 357.573643 433.775261 
L 357.691156 433.518823 
L 357.816462 433.266035 
L 357.94935 433.017248 
L 358.089889 432.772673 
L 358.237799 432.532451 
L 358.360227 432.328241 
L 358.489955 432.128524 
L 358.626774 431.93365 
L 358.770472 431.743831 
L 358.92091 431.559277 
L 359.077876 431.380198 
L 359.241159 431.206946 
L 359.410621 431.03959 
L 359.585909 430.878483 
L 359.766953 430.723833 
L 359.953403 430.575713 
L 360.145047 430.434401 
L 360.341605 430.30011 
L 360.542937 430.172908 
L 360.75522 430.023243 
L 360.972768 429.88123 
L 361.19516 429.747079 
L 361.422255 429.620931 
L 361.653702 429.502925 
L 361.889221 429.393274 
L 362.128461 429.292117 
L 362.37114 429.199524 
L 362.616979 429.115705 
L 362.865695 429.040592 
L 363.116869 428.974464 
L 363.370288 428.917322 
L 363.625533 428.869305 
L 363.882393 428.830345 
L 364.059015 428.799387 
L 364.23676 428.775238 
L 364.415277 428.757969 
L 364.527823 428.751437 
L 364.594285 428.74758 
L 364.773575 428.74407 
L 364.952934 428.74751 
L 365.131943 428.757759 
L 370.168329 428.950737 
L 370.391282 428.522591 
L 370.493071 428.327085 
L 371.857256 428.274155 
L 372.514814 428.248673 
L 375.265297 428.141899 
L 376.502281 428.089741 
L 380.408878 427.945622 
L 381.105747 427.913892 
L 382.096822 427.850712 
L 383.570799 427.796588 
L 385.020417 427.733409 
L 386.425248 427.685673 
L 387.812318 427.634147 
L 387.950068 427.342216 
L 388.441084 427.124524 
L 390.056839 426.29004 
L 390.597857 426.148737 
L 390.790879 426.098324 
L 390.877926 425.99478 
L 391.846686 425.075783 
L 391.827306 425.270257 
L 392.053891 425.48214 
L 392.471518 425.756652 
L 392.934831 425.970451 
L 393.376039 426.144299 
L 393.926405 426.262946 
L 394.386543 426.302629 
L 394.843771 426.283651 
L 396.080965 426.233037 
L 396.193144 426.228404 
L 396.446283 426.218085 
L 397.785688 426.163329 
L 399.079814 426.110469 
L 400.347194 426.058662 
L 401.600113 426.007486 
L 402.86279 425.95589 
L 404.119008 425.904574 
L 405.381825 425.852907 
L 406.635025 425.801732 
L 407.909776 425.749574 
L 409.01317 425.704576 
L 409.730889 425.675162 
L 409.961705 425.665756 
L 410.189712 425.656419 
L 411.065239 425.620407 
L 411.323503 425.609807 
L 411.671832 425.595486 
L 411.802824 425.590151 
L 414.559415 425.476919 
L 415.955821 425.419566 
L 417.351034 425.362284 
L 418.774819 425.303807 
L 419.959083 425.255159 
L 420.150095 425.247297 
L 421.287607 425.193805 
L 423.042732 425.122412 
L 424.444895 425.064006 
L 425.852253 425.011287 
L 427.254837 424.952038 
L 429.802654 424.844563 
L 430.3328 424.605534 
L 430.508018 424.582649 
L 430.726829 424.554078 
L 430.907944 424.530561 
L 432.073465 424.378579 
L 432.386203 424.337864 
L 433.025298 424.257275 
L 435.532119 424.632069 
L 435.791576 423.606667 
L 436.043311 423.173536 
L 436.277707 422.770241 
L 436.771068 421.325818 
L 437.676007 419.403863 
L 438.775753 419.628045 
L 439.315727 419.734889 
L 439.336225 420.312489 
L 441.441926 421.128417 
L 442.806392 421.65744 
L 444.248007 422.216297 
L 445.363335 422.649427 
L 445.570283 422.698076 
L 446.936715 423.024082 
L 447.416949 423.139139 
L 448.281665 423.327554 
L 448.397424 423.35795 
L 449.620227 423.683044 
L 449.769471 423.722776 
L 451.155278 424.090972 
L 452.510688 424.451095 
L 453.320508 424.666537 
L 453.86329 424.810516 
L 455.021791 425.11799 
L 455.225861 425.17794 
L 456.556771 425.570706 
L 457.90474 425.968596 
L 458.058968 426.014085 
L 459.968883 426.578278 
L 460.62251 426.770835 
L 461.787118 427.132713 
L 462.60796 427.427339 
L 464.469789 428.095568 
L 464.568419 427.46609 
L 465.180066 427.609437 
L 466.428914 427.973912 
L 466.580264 427.964927 
L 467.596891 427.904555 
L 467.746065 427.89564 
L 468.999405 427.633866 
L 469.878302 427.448821 
L 470.369908 427.347593 
L 471.50054 427.108845 
L 473.233342 426.760375 
L 473.906905 426.626645 
L 474.085563 426.590984 
L 474.705353 426.467714 
L 475.23922 426.756303 
L 475.48934 426.891437 
L 476.51018 427.443205 
L 477.57335 428.320908 
L 478.396859 428.979027 
L 479.769749 429.822333 
L 480.709509 430.669148 
L 481.124808 431.107754 
L 481.986576 432.2294 
L 482.163338 432.459514 
L 482.550558 432.765583 
L 482.971614 433.61654 
L 484.190908 435.588582 
L 484.751239 436.64754 
L 485.109958 437.279194 
L 486.632233 440.580181 
L 487.508111 441.633102 
L 488.660293 442.792094 
L 489.143967 443.189282 
L 490.565786 444.17074 
L 491.224467 444.575299 
L 492.800795 445.407022 
L 493.645294 445.873848 
L 496.230317 447.18426 
L 499.348434 449.086454 
L 500.142951 449.548857 
L 501.123285 450.072755 
L 501.507565 450.278117 
L 504.289138 452.2323 
L 505.455361 452.993893 
L 506.151739 453.340117 
L 506.563388 453.579567 
L 506.974476 453.872439 
L 508.225289 454.430454 
L 510.005686 455.373653 
L 512.855853 456.721622 
L 514.164369 457.296485 
L 516.292043 458.595595 
L 516.40717 458.66762 
L 516.517805 458.746383 
L 516.623525 458.831676 
L 516.72384 458.923216 
L 516.818539 459.020582 
L 516.907201 459.123495 
L 516.989474 459.231532 
L 517.065149 459.344342 
L 517.133875 459.461435 
L 517.195369 459.582529 
L 517.249563 459.707062 
L 517.80506 459.370654 
L 518.260996 459.438269 
L 519.402158 458.973689 
L 519.649049 458.733326 
L 520.778277 458.307848 
L 521.556788 458.015046 
L 521.689605 457.881386 
L 521.818702 457.851692 
L 521.946184 457.81575 
L 522.220734 457.715997 
L 522.434211 457.61175 
L 522.549338 457.546254 
L 522.783242 457.486444 
L 522.874642 457.461804 
L 523.513316 456.968162 
L 523.968348 456.558128 
L 524.524468 455.994075 
L 524.763637 455.752238 
L 525.006668 455.514122 
L 525.253419 455.279937 
L 525.50382 455.049753 
L 525.757872 454.8235 
L 528.071433 452.202886 
L 528.183331 452.059118 
L 528.288911 451.910646 
L 528.387822 451.757682 
L 528.480064 451.600505 
L 528.565356 451.439538 
L 528.643559 451.27499 
L 528.71446 451.107144 
L 528.778061 450.936419 
L 528.83415 450.763096 
L 529.05233 450.154608 
L 529.114316 450.098308 
L 529.174898 449.638502 
L 529.19322 449.310109 
L 529.155382 448.934051 
L 529.082656 448.643776 
L 529.009929 448.353572 
L 528.995679 448.236269 
L 528.981428 448.118895 
L 528.970898 447.998012 
L 528.960298 447.877199 
L 527.723034 444.096118 
L 527.390008 443.078438 
L 527.05298 441.742964 
L 527.052278 440.758417 
L 527.086536 440.122902 
L 527.118898 439.735823 
L 527.140028 439.586368 
L 527.176531 439.328175 
L 527.236903 439.038742 
L 527.262736 438.892517 
L 527.365438 438.535834 
L 527.410085 438.445347 
L 527.522053 438.201474 
L 527.751535 437.655533 
L 527.784669 437.561747 
L 527.867855 437.326368 
L 528.026506 436.877303 
L 528.338121 435.995528 
L 528.475993 435.60536 
L 528.663565 435.074652 
L 530.4149 430.118504 
L 530.727288 429.234623 
L 530.747154 429.085309 
L 530.826901 429.105597 
L 531.022827 429.155298 
L 534.299174 429.986599 
L 534.43529 430.021137 
L 534.794641 430.112326 
L 534.806575 430.002113 
L 534.459018 429.905589 
L 534.328026 429.869156 
L 530.732623 428.870569 
L 530.698716 428.387667 
L 530.77039 425.661473 
L 530.777761 425.577726 
L 530.761685 425.036418 
L 530.675831 424.189953 
L 530.561126 423.499893 
L 530.449087 422.863536 
L 530.37608 422.46024 
L 530.236258 421.941019 
L 530.063482 421.299423 
L 529.87619 420.736213 
L 529.747374 420.429722 
L 529.460329 419.941134 
L 529.145625 419.403477 
L 527.692484 416.217014 
L 527.614646 416.046331 
L 527.13027 414.984214 
L 525.656995 411.628402 
L 525.631021 411.569223 
L 524.579294 409.173247 
L 524.2648 408.457073 
L 524.081861 408.040299 
L 522.321891 404.853738 
L 521.299016 403.214371 
L 520.257046 401.544327 
L 518.793248 399.198333 
L 518.757587 399.141472 
L 517.807929 397.619338 
L 517.676025 397.408038 
L 516.55852 395.9057 
L 515.793557 394.503678 
L 515.72055 394.380478 
L 515.641295 394.261209 
L 515.556003 394.146152 
L 515.464813 394.035728 
L 515.368079 393.930148 
L 515.266009 393.829693 
L 515.158814 393.734643 
L 515.046916 393.645349 
L 514.930526 393.561882 
L 513.887854 392.92756 
L 510.933161 390.92793 
L 510.120041 390.317968 
L 509.83103 390.101122 
L 509.696528 389.983187 
L 509.566519 389.860338 
L 509.441073 389.732715 
L 509.32047 389.6006 
L 509.204852 389.464132 
L 509.094358 389.323453 
L 508.989129 389.178772 
L 508.889305 389.0303 
L 507.672609 386.758577 
L 506.911507 385.542723 
L 506.610141 385.061226 
L 506.422358 384.468392 
L 506.160584 384.262707 
L 506.237172 384.268253 
L 506.223342 384.246428 
L 505.798566 383.576087 
L 505.984524 383.568716 
L 505.959112 383.540847 
L 505.854304 383.42579 
L 505.654517 383.169632 
L 505.444129 382.899716 
L 505.347886 382.776235 
L 505.247851 382.387751 
L 505.186146 382.098389 
L 505.068422 381.371475 
L 504.774848 378.844226 
L 504.420692 376.503076 
L 504.286541 374.993999 
L 504.152249 373.484922 
L 504.105286 372.957584 
L 504.058393 372.430246 
L 503.841336 370.136411 
L 503.784615 367.770199 
L 503.725437 365.305217 
L 504.800611 359.118614 
L 505.013877 358.590223 
L 505.431634 357.932454 
L 505.88084 357.205118 
L 505.931523 357.123266 
L 506.9723 355.437919 
L 508.68671 352.533137 
L 508.825775 352.297548 
L 510.471179 350.295952 
L 510.834039 349.835515 
L 511.297145 349.251455 
L 512.009318 348.294427 
L 512.35519 347.755155 
L 512.584532 347.220446 
L 514.086027 343.720655 
L 514.399467 342.989879 
L 514.431338 342.915748 
L 514.667699 342.17718 
L 514.800095 341.340544 
L 514.890231 340.770525 
L 515.072329 340.207175 
L 516.203452 337.774625 
L 516.240798 337.694246 
L 518.042746 333.819029 
L 518.299816 333.428228 
L 518.410732 333.259539 
L 519.095176 332.218903 
L 520.213382 330.622709 
L 521.627619 327.902272 
L 523.924614 321.062884 
L 526.13737 317.02726 
L 526.550844 316.261946 
L 526.849753 315.683925 
L 530.50293 309.63786 
L 530.540557 309.575593 
L 530.824724 309.105328 
L 531.23855 307.922397 
L 531.303484 307.491794 
L 531.388987 306.715319 
L 531.529316 306.055585 
L 531.964412 305.092519 
L 532.072659 304.706773 
L 532.458826 303.324687 
L 532.866263 301.381568 
L 533.108451 300.451285 
L 534.218164 297.330571 
L 534.454034 296.664448 
L 534.620055 296.007171 
L 534.728513 295.586607 
L 534.740798 295.125818 
L 534.733076 293.843415 
L 534.757295 293.090737 
L 534.784673 292.46154 
L 534.795975 291.718128 
L 534.923878 291.221257 
L 535.267785 290.448712 
L 535.65325 289.741243 
L 536.066444 288.809626 
L 536.646712 287.132843 
L 536.855064 286.696835 
L 537.447266 285.882662 
L 537.86741 284.785937 
L 538.444449 282.105021 
L 538.608224 280.417498 
L 539.065924 278.860826 
L 539.142441 278.189228 
L 539.107552 277.423704 
L 539.176839 276.62315 
L 539.026051 275.304664 
L 538.843252 274.564131 
L 539.077788 272.88798 
L 538.979368 271.261038 
L 539.153182 269.009533 
L 539.040652 267.949732 
L 539.101234 266.677087 
L 539.000568 265.08686 
L 538.710364 264.059773 
L 538.604714 260.922351 
L 538.135431 259.381123 
L 538.135571 258.403315 
L 537.512692 256.32794 
L 535.401936 252.329171 
L 534.843219 250.513323 
L 534.460913 248.734259 
L 534.237819 246.858742 
L 534.176676 246.658463 
L 533.583491 244.674838 
L 532.86163 243.4891 
L 529.966402 238.921598 
L 529.661801 238.441061 
L 529.006419 237.644227 
L 528.690311 237.334929 
L 528.476695 236.905379 
L 528.170204 236.582391 
L 527.247924 235.325752 
L 526.944382 234.942042 
L 526.213887 233.66357 
L 526.104025 233.250657 
L 525.404137 231.849477 
L 525.017408 230.646329 
L 524.172839 227.573421 
L 524.320749 224.471309 
L 524.267328 221.99341 
L 523.885162 216.59641 
L 523.250138 213.767584 
L 522.449725 209.734488 
L 522.225929 208.560192 
L 521.749205 206.129889 
L 521.735305 206.047545 
L 521.721125 204.306459 
L 521.696485 202.834939 
L 522.058223 199.766032 
L 522.054713 199.651186 
L 522.206975 198.986046 
L 522.378156 198.220142 
L 522.378542 198.218416 
L 522.431754 197.740709 
L 522.401638 197.039136 
L 522.126246 195.704926 
L 521.54001 194.01642 
L 521.149632 193.03075 
L 519.926828 189.789994 
L 519.651366 188.544727 
L 518.982997 185.635383 
L 518.951337 185.019944 
L 518.951267 185.019664 
L 518.996897 184.56084 
L 519.222939 183.767166 
L 519.222868 183.767306 
L 519.309916 183.287704 
L 519.309846 183.287774 
L 519.342699 182.742886 
L 519.342769 182.742746 
L 518.925925 180.764527 
L 518.806235 179.617819 
L 518.887456 178.988482 
L 519.255581 177.277231 
L 520.31475 174.186351 
L 520.421453 173.769296 
L 520.461116 173.463508 
L 520.489687 169.608367 
L 520.502323 168.517889 
L 520.276281 166.40229 
L 520.219068 165.867089 
L 519.982496 165.197949 
L 519.742765 164.547972 
L 519.317778 163.210744 
L 519.369726 162.516893 
L 519.050038 162.136342 
L 519.109777 161.675623 
L 518.859095 161.35046 
L 518.588196 160.497888 
L 518.263664 159.673466 
L 518.460082 159.353357 
L 517.901645 157.248708 
L 516.698919 154.413776 
L 516.589127 153.697742 
L 516.366033 152.995677 
L 516.081726 151.826787 
L 515.770883 151.152662 
L 515.268396 149.692795 
L 515.10455 148.463674 
L 514.592305 147.411946 
L 514.617998 146.799878 
L 513.992802 145.393854 
L 513.686943 144.504638 
L 513.644683 144.002572 
L 513.495439 143.534693 
L 513.239211 143.101001 
L 513.078244 142.342215 
L 512.882177 141.889289 
L 512.392326 141.161812 
L 512.378005 140.72454 
L 512.192117 140.103065 
L 512.156807 139.98499 
L 512.151331 139.4712 
L 511.290687 139.450702 
L 510.658752 139.430695 
L 507.641721 139.343648 
L 506.129556 139.299984 
L 504.095739 139.241297 
L 500.813776 139.146598 
L 499.322249 139.103004 
L 497.838866 139.059902 
L 494.767642 138.970678 
L 494.436371 138.049452 
L 493.961893 136.730264 
L 493.646066 135.851999 
L 493.469444 135.209675 
L 493.004935 133.520116 
L 492.701533 132.416581 
L 492.472402 131.583314 
L 492.302309 130.964787 
L 491.330889 127.431581 
L 491.216535 127.021827 
L 490.668347 125.021775 
L 489.579695 124.161061 
L 487.202883 122.284771 
L 485.301111 120.783557 
L 484.964505 120.516799 
L 484.939725 120.497283 
L 481.820835 118.033916 
L 481.314557 117.55312 
L 480.649207 117.782111 
L 479.966448 117.952695 
L 479.984279 117.544767 
L 479.986385 117.496891 
L 475.328654 118.838612 
L 474.431084 119.095542 
L 473.69034 119.314494 
L 472.093865 119.771843 
L 471.079554 120.046673 
L 470.062084 120.317924 
L 468.679858 120.697632 
L 467.322973 121.06281 
L 466.175985 121.372108 
L 464.732685 121.762206 
L 464.272247 121.889478 
L 463.574465 121.81289 
L 462.036467 121.644131 
L 459.854248 121.404681 
L 457.905582 121.190783 
L 454.520006 120.814795 
L 454.242577 120.790717 
L 453.730613 120.722483 
L 453.231425 120.652073 
L 453.546831 122.876762 
L 452.537715 122.792874 
L 452.034245 122.753352 
L 450.756826 122.653107 
L 450.447598 120.350145 
L 449.853009 118.575996 
L 449.432023 117.301034 
L 447.643272 113.370569 
L 447.493045 113.038526 
L 447.066513 112.098346 
L 446.980449 111.908526 
L 446.921832 111.780342 
L 446.850861 111.6 
L 445.663157 113.620971 
L 444.710902 115.241454 
L 442.92889 117.593345 
L 442.755357 117.822405 
L 442.165752 118.523627 
L 442.151642 118.561956 
L 441.459968 120.511183 
L 441.392155 120.701704 
L 441.345121 120.75309 
L 439.717618 122.534119 
L 439.184243 123.118459 
L 439.903436 122.708916 
L 441.158391 121.994356 
L 440.706307 123.812591 
L 437.22912 125.737529 
L 433.081177 128.095386 
L 431.573645 128.936586 
L 430.837393 129.347393 
L 430.372322 129.556868 
L 428.325167 130.429025 
L 425.431127 131.539439 
L 423.347187 132.33894 
L 416.063156 135.000761 
L 415.223712 135.315536 
L 414.857341 135.452916 
L 413.523201 135.925709 
L 412.571789 136.263017 
L 412.592006 136.41184 
L 411.176856 136.922611 
L 410.112423 137.306672 
L 409.026859 137.698454 
L 407.945718 138.088623 
L 406.884794 138.47149 
L 405.799301 138.863273 
L 404.728198 139.249791 
L 403.628455 139.646628 
L 402.56353 140.03104 
L 401.477896 140.422753 
L 400.381311 140.818537 
L 399.303259 141.207582 
L 398.191862 141.608702 
L 397.136413 141.989604 
L 396.056325 142.379351 
L 394.981643 142.767132 
L 393.914261 143.152387 
L 392.827433 143.544661 
L 392.773169 143.404262 
L 389.804577 144.4595 
L 389.871898 144.577786 
L 389.610195 144.666658 
L 388.604237 145.034152 
L 387.537417 145.423829 
L 386.527107 145.792937 
L 385.475239 146.177139 
L 384.432286 146.558041 
L 383.88417 146.758249 
L 383.343845 146.95558 
L 382.298927 147.337324 
L 381.249586 147.720613 
L 380.182906 148.11022 
L 379.140725 148.490911 
L 378.088998 148.875113 
L 376.978514 149.280795 
L 375.873154 149.684442 
L 375.041923 149.988124 
L 374.930605 150.028788 
L 373.981139 150.375625 
L 372.154621 151.0428 
L 370.683873 151.579966 
L 369.113863 152.153495 
L 367.956626 152.576236 
L 367.226201 152.842994 
L 366.934663 152.949486 
L 363.823145 154.086014 
L 363.608194 154.164568 
L 360.453714 155.316891 
L 359.967793 155.494355 
L 359.910019 155.336617 
L 355.622169 156.890551 
L 354.122008 157.419152 
L 346.4165 160.14303 
L 341.278886 161.964564 
L 341.114058 162.00879 
L 340.797178 162.093871 
L 340.794978 162.096366 
L 340.549374 162.374809 
L 337.444875 166.323456 
L 336.109753 168.163874 
L 335.882898 168.476567 
L 335.834992 168.542599 
L 335.668058 168.738877 
L 335.276135 169.025782 
L 335.092704 169.160073 
L 334.95743 169.259967 
L 332.451802 170.945314 
L 332.082413 171.140399 
L 331.525732 171.400066 
L 329.65239 172.279033 
L 327.25831 173.416193 
L 326.093842 173.966767 
L 325.904444 174.061115 
L 325.712589 174.150409 
L 325.518418 174.234578 
L 325.32214 174.313552 
L 325.144255 174.374345 
L 324.965106 174.431347 
L 324.784764 174.484418 
L 324.602175 174.523097 
L 324.083963 174.609372 
L 323.75915 174.672692 
L 322.669585 174.792312 
L 322.693664 174.79147 
L 322.717672 174.794067 
L 322.741048 174.800034 
L 322.755088 174.812459 
L 322.765618 174.828044 
L 322.771936 174.845734 
L 322.773551 174.864477 
L 322.76646 174.900279 
L 322.754105 174.934677 
L 322.736766 174.966828 
L 322.714864 174.996031 
L 322.689241 175.021443 
L 322.660108 175.042854 
L 322.628168 175.059702 
L 322.594121 175.071636 
L 320.099164 175.234779 
L 319.993163 175.254645 
L 319.887442 175.275986 
L 319.782073 175.298871 
L 319.652204 175.329267 
L 319.522897 175.36191 
L 319.394151 175.396799 
L 319.284921 175.473106 
L 319.178358 175.552993 
L 319.074463 175.63639 
L 318.961302 175.733546 
L 318.851861 175.834844 
L 318.746281 175.940143 
L 318.644702 176.049373 
L 316.595582 178.607439 
L 316.262134 179.162646 
L 315.594047 179.964183 
L 315.290785 180.408335 
L 315.182468 180.566986 
L 315.156634 180.597382 
L 313.848468 182.137065 
L 312.482809 183.744421 
L 300.064674 199.106859 
L 299.298729 200.072873 
L 293.700045 207.016367 
L 291.477392 209.689771 
L 288.29441 213.587312 
L 284.0451 218.633245 
L 281.920585 220.758954 
L 281.547826 221.130238 
L 277.13095 225.539112 
L 274.891659 227.687916 
L 270.210482 232.189383 
L 269.981 232.4454 
L 269.768015 232.682814 
L 267.800258 234.612804 
L 262.032321 240.270036 
L 261.911718 240.385233 
L 261.319306 240.951041 
L 261.212322 241.053251 
L 260.909903 241.342262 
L 260.778559 241.454932 
L 257.012923 244.692107 
L 256.248801 245.35435 
L 255.864601 245.687324 
L 255.081667 246.365942 
L 252.576601 248.425382 
L 251.415714 249.378971 
L 250.663246 250.045514 
L 249.715835 250.884537 
L 249.246973 251.177409 
L 248.786535 251.582811 
L 248.487416 251.845216 
L 247.976996 252.294563 
L 246.565707 253.532599 
L 246.35493 253.713423 
L 245.06007 254.824268 
L 243.571 256.128854 
L 243.010598 256.513336 
L 243.220073 256.915509 
L 242.337807 257.378825 
L 243.977525 261.22484 
L 244.806931 263.40067 
L 245.091239 263.261605 
L 245.220125 263.591964 
L 244.905702 263.712847 
L 245.502396 265.185631 
L 246.299441 267.470832 
L 246.645383 267.85398 
L 248.096405 272.364784 
L 249.438828 276.868918 
L 250.539555 281.215525 
L 250.811718 281.336478 
L 250.718423 282.106145 
L 251.004345 283.384195 
L 251.86148 287.2161 
L 252.806153 292.127882 
L 253.015839 292.654097 
L 253.004326 292.777437 
L 252.96691 292.902392 
L 253.897403 297.450261 
L 253.584595 297.880232 
L 253.618501 298.05215 
L 254.893041 303.554871 
L 255.14604 303.504257 
L 255.252111 303.943565 
L 255.001219 303.994249 
L 256.003947 308.697258 
L 256.071338 308.805927 
L 256.925244 312.955063 
L 257.253637 314.69299 
L 257.384348 315.384735 
L 257.637557 316.724631 
L 257.551493 316.930034 
L 257.654686 317.447965 
L 257.713583 317.743154 
L 257.872725 317.904121 
L 257.970373 318.41419 
L 259.211077 324.625223 
L 259.43045 325.659822 
L 259.830727 327.544325 
L 259.864353 327.717928 
L 260.576034 330.772725 
L 261.275571 334.268796 
L 261.409652 334.931619 
L 261.424815 335.229264 
L 262.014139 338.666578 
L 262.749548 342.524387 
L 263.617985 345.835623 
L 264.708603 349.775283 
L 265.266337 349.813612 
L 265.298489 349.955696 
L 265.469424 354.502511 
L 265.312318 354.73066 
L 265.343065 354.881658 
L 265.427375 355.296326 
L 265.469494 355.503625 
L 265.993814 358.4553 
L 266.106835 358.861473 
L 266.286615 359.886455 
L 267.003702 363.974798 
L 268.120294 367.942118 
L 268.62559 369.876813 
L 270.9633 381.305066 
L 272.677218 383.004172 
L 269.378338 384.038701 
L 269.874928 385.616784 
L 269.79441 385.641845 
L 269.522457 385.725874 
L 268.980377 385.89344 
L 267.973016 386.204914 
L 268.646369 386.078134 
L 268.946401 386.502279 
L 269.065529 387.104239 
L 269.365632 388.519108 
L 266.981098 389.348374 
L 265.391011 389.948859 
L 264.591932 389.539667 
L 259.11357 391.67766 
L 257.921724 392.184149 
L 255.908125 392.986598 
L 255.673588 393.060869 
L 251.387774 394.376266 
L 244.84884 397.618846 
L 243.719963 398.213084 
L 240.461798 399.928126 
L 240.13137 400.102221 
L 239.721826 400.315276 
L 239.648257 400.167366 
L 239.413651 400.296533 
L 239.442784 400.350656 
L 237.308932 401.512246 
L 236.713501 401.836357 
L 235.631237 402.42547 
L 235.668864 402.50297 
L 231.501967 404.591824 
L 230.822156 404.873744 
L 230.443711 405.03071 
L 228.399715 405.84748 
L 227.109661 406.281594 
L 225.136355 406.875059 
L 223.244552 407.334514 
L 222.44133 407.522298 
L 222.282749 407.557889 
L 221.960394 407.621139 
L 221.115614 407.767996 
L 218.508829 408.129031 
L 217.503925 408.26578 
L 216.161572 408.387646 
L 215.709488 408.408214 
L 215.294328 408.426958 
L 212.797897 408.539768 
L 210.470295 408.837343 
L 209.959384 408.904103 
L 209.9789 408.949452 
L 209.747382 408.980129 
L 209.779674 409.05447 
L 209.873811 409.271737 
L 210.00354 409.572471 
L 210.144079 409.89595 
L 209.976653 409.914553 
L 207.216483 410.186997 
L 202.959942 410.594575 
L 202.495924 410.634869 
L 200.735654 410.783715 
L 198.823161 410.945431 
L 199.325367 411.97631 
L 199.684788 411.952021 
L 199.732384 411.956935 
L 199.778856 411.968447 
L 199.823222 411.986348 
L 199.864639 412.010356 
L 199.902266 412.03991 
L 199.93533 412.074449 
L 199.963269 412.113339 
L 200.623284 413.639123 
L 200.095946 413.737332 
L 202.156439 418.519105 
L 202.371741 419.018784 
L 202.570756 419.480626 
L 202.740779 419.875147 
L 202.747308 419.89024 
L 203.569413 421.799032 
L 203.770815 422.253573 
L 203.967022 422.710501 
L 204.157824 423.169605 
L 204.343361 423.630885 
L 204.523493 424.094342 
L 204.698219 424.559834 
L 204.867611 425.027292 
L 205.03279 425.500576 
L 205.192353 425.975686 
L 205.346441 426.452691 
L 205.494912 426.931451 
L 205.637768 427.411966 
L 205.774938 427.894025 
L 205.906562 428.377699 
L 205.975287 428.6387 
L 206.107402 429.162177 
L 206.232849 429.687199 
L 206.351696 430.213835 
L 206.463875 430.741945 
L 206.569455 431.271389 
L 206.668296 431.802096 
L 206.837616 433.342552 
L 206.990862 433.553922 
L 207.033824 434.207549 
L 207.047864 434.650016 
L 206.84927 435.063771 
L 206.992406 438.522847 
L 207.158498 442.538253 
L 207.177522 442.994619 
L 207.205391 443.67057 
L 207.214377 443.888468 
L 207.43733 444.00507 
L 207.440349 444.187378 
L 207.444561 444.437849 
L 207.453265 444.963643 
L 207.457828 445.237139 
L 207.533503 445.204497 
L 207.536311 445.438752 
L 207.404266 446.319404 
L 207.569726 451.015814 
L 208.023074 462.595136 
L 208.045187 463.599339 
L 208.048697 463.760095 
L 208.059367 464.242646 
L 208.069616 464.708419 
L 208.147186 468.233131 
L 208.308294 476.962849 
L 208.124512 477.137996 
L 208.073337 479.916208 
L 207.976812 484.759756 
L 208.326139 485.860647 
L 208.758202 487.222281 
L 208.774559 487.640599 
L 208.868766 490.048018 
L 208.990071 493.161291 
L 209.137279 496.947707 
L 209.153986 498.444218 
L 209.166973 499.876496 
L 209.162902 501.048616 
L 209.13763 501.935375 
L 209.128785 502.547233 
L 209.010639 504.221208 
L 208.937913 505.17606 
L 208.796531 507.246662 
L 208.302327 514.40665 
L 208.262805 514.38208 
L 207.943959 519.196847 
L 207.914756 519.642192 
L 207.845329 520.700167 
L 207.531327 525.482993 
L 207.338559 525.580571 
L 207.319676 525.890852 
L 206.876998 533.164142 
L 206.860782 533.43076 
L 206.75092 535.234884 
L 206.94432 535.238113 
L 206.876437 535.590164 
L 206.780123 536.436137 
L 206.734353 536.838309 
L 206.714066 537.016054 
L 206.61003 537.93012 
L 206.363981 540.182819 
L 206.308243 540.829496 
L 206.285849 541.089234 
L 205.982096 544.616754 
L 205.974164 544.708224 
L 205.964195 544.893831 
L 205.774306 548.449993 
L 205.763776 548.714995 
L 205.570587 552.263505 
L 205.555705 552.541776 
L 205.367852 556.059047 
L 205.358726 556.229421 
L 205.189194 559.404891 
L 205.15269 560.08744 
L 204.308191 575.898031 
L 203.647615 575.145072 
L 203.611603 575.826919 
L 203.431331 578.591161 
L 203.358815 579.707261 
L 203.327716 580.012558 
L 204.105245 580.060785 
L 204.28671 580.077142 
L 204.296328 579.764333 
L 204.337324 579.114919 
L 205.22654 579.130362 
L 206.932737 579.187364 
L 206.915538 579.715615 
L 206.898409 580.205396 
" clip-path="url(#p17afb33f12)" style="fill: #d3d3d3"/>
   </g>
   <g id="PatchCollection_2">
    <path d="M 406.769409 261.395841 
L 406.769409 261.325642 
L 406.699209 261.325642 
L 406.699209 261.395841 
L 406.769409 261.395841 
" clip-path="url(#p17afb33f12)" style="fill: #ff0000; fill-opacity: 0.7; stroke: #000000; stroke-opacity: 0.7; stroke-width: 0.5"/>
    <path d="M 400.212985 324.924448 
L 400.212985 324.854249 
L 400.142786 324.854249 
L 400.142786 324.924448 
L 400.212985 324.924448 
" clip-path="url(#p17afb33f12)" style="fill: #ff0000; fill-opacity: 0.7; stroke: #000000; stroke-opacity: 0.7; stroke-width: 0.5"/>
    <path d="M 352.838614 350.720738 
L 352.838614 350.650539 
L 352.768415 350.650539 
L 352.768415 350.720738 
L 352.838614 350.720738 
" clip-path="url(#p17afb33f12)" style="fill: #ff0000; fill-opacity: 0.7; stroke: #000000; stroke-opacity: 0.7; stroke-width: 0.5"/>
    <path d="M 459.804052 360.734732 
L 459.804052 360.664533 
L 459.733853 360.664533 
L 459.733853 360.734732 
L 459.804052 360.734732 
" clip-path="url(#p17afb33f12)" style="fill: #ff0000; fill-opacity: 0.7; stroke: #000000; stroke-opacity: 0.7; stroke-width: 0.5"/>
    <path d="M 462.198851 348.121279 
L 462.198851 348.05108 
L 462.128651 348.05108 
L 462.128651 348.121279 
L 462.198851 348.121279 
" clip-path="url(#p17afb33f12)" style="fill: #ff0000; fill-opacity: 0.7; stroke: #000000; stroke-opacity: 0.7; stroke-width: 0.5"/>
    <path d="M 328.253427 492.791803 
L 328.253427 492.721603 
L 328.183227 492.721603 
L 328.183227 492.791803 
L 328.253427 492.791803 
" clip-path="url(#p17afb33f12)" style="fill: #ff0000; fill-opacity: 0.7; stroke: #000000; stroke-opacity: 0.7; stroke-width: 0.5"/>
    <path d="M 369.231534 155.81864 
L 369.231534 155.748441 
L 369.161335 155.748441 
L 369.161335 155.81864 
L 369.231534 155.81864 
" clip-path="url(#p17afb33f12)" style="fill: #ff0000; fill-opacity: 0.7; stroke: #000000; stroke-opacity: 0.7; stroke-width: 0.5"/>
    <path d="M 392.68242 162.101843 
L 392.68242 162.031643 
L 392.612221 162.031643 
L 392.612221 162.101843 
L 392.68242 162.101843 
" clip-path="url(#p17afb33f12)" style="fill: #ff0000; fill-opacity: 0.7; stroke: #000000; stroke-opacity: 0.7; stroke-width: 0.5"/>
    <path d="M 441.609821 149.801808 
L 441.609821 149.731609 
L 441.539621 149.731609 
L 441.539621 149.801808 
L 441.609821 149.801808 
" clip-path="url(#p17afb33f12)" style="fill: #ff0000; fill-opacity: 0.7; stroke: #000000; stroke-opacity: 0.7; stroke-width: 0.5"/>
    <path d="M 362.578694 422.494478 
L 362.578694 422.424279 
L 362.508494 422.424279 
L 362.508494 422.494478 
L 362.578694 422.494478 
" clip-path="url(#p17afb33f12)" style="fill: #ff0000; fill-opacity: 0.7; stroke: #000000; stroke-opacity: 0.7; stroke-width: 0.5"/>
    <path d="M 301.586794 459.197836 
L 301.586794 459.127637 
L 301.516595 459.127637 
L 301.516595 459.197836 
L 301.586794 459.197836 
" clip-path="url(#p17afb33f12)" style="fill: #ff0000; fill-opacity: 0.7; stroke: #000000; stroke-opacity: 0.7; stroke-width: 0.5"/>
    <path d="M 321.496155 357.424016 
L 321.496155 357.353817 
L 321.425955 357.353817 
L 321.425955 357.424016 
L 321.496155 357.424016 
" clip-path="url(#p17afb33f12)" style="fill: #ff0000; fill-opacity: 0.7; stroke: #000000; stroke-opacity: 0.7; stroke-width: 0.5"/>
    <path d="M 462.035203 181.920678 
L 462.035203 181.850479 
L 461.965003 181.850479 
L 461.965003 181.920678 
L 462.035203 181.920678 
" clip-path="url(#p17afb33f12)" style="fill: #ff0000; fill-opacity: 0.7; stroke: #000000; stroke-opacity: 0.7; stroke-width: 0.5"/>
    <path d="M 362.578694 422.494478 
L 362.578694 422.424279 
L 362.508494 422.424279 
L 362.508494 422.494478 
L 362.578694 422.494478 
" clip-path="url(#p17afb33f12)" style="fill: #ff0000; fill-opacity: 0.7; stroke: #000000; stroke-opacity: 0.7; stroke-width: 0.5"/>
    <path d="M 497.350507 306.855557 
L 497.350507 306.785358 
L 497.280308 306.785358 
L 497.280308 306.855557 
L 497.350507 306.855557 
" clip-path="url(#p17afb33f12)" style="fill: #ff0000; fill-opacity: 0.7; stroke: #000000; stroke-opacity: 0.7; stroke-width: 0.5"/>
    <path d="M 483.313817 384.092276 
L 483.313817 384.022077 
L 483.243617 384.022077 
L 483.243617 384.092276 
L 483.313817 384.092276 
" clip-path="url(#p17afb33f12)" style="fill: #ff0000; fill-opacity: 0.7; stroke: #000000; stroke-opacity: 0.7; stroke-width: 0.5"/>
    <path d="M 483.313817 384.092276 
L 483.313817 384.022077 
L 483.243617 384.022077 
L 483.243617 384.092276 
L 483.313817 384.092276 
" clip-path="url(#p17afb33f12)" style="fill: #ff0000; fill-opacity: 0.7; stroke: #000000; stroke-opacity: 0.7; stroke-width: 0.5"/>
    <path d="M 483.313817 384.092276 
L 483.313817 384.022077 
L 483.243617 384.022077 
L 483.243617 384.092276 
L 483.313817 384.092276 
" clip-path="url(#p17afb33f12)" style="fill: #ff0000; fill-opacity: 0.7; stroke: #000000; stroke-opacity: 0.7; stroke-width: 0.5"/>
    <path d="M 483.313817 384.092276 
L 483.313817 384.022077 
L 483.243617 384.022077 
L 483.243617 384.092276 
L 483.313817 384.092276 
" clip-path="url(#p17afb33f12)" style="fill: #ff0000; fill-opacity: 0.7; stroke: #000000; stroke-opacity: 0.7; stroke-width: 0.5"/>
    <path d="M 419.699858 365.419947 
L 419.699858 365.349748 
L 419.629659 365.349748 
L 419.629659 365.419947 
L 419.699858 365.419947 
" clip-path="url(#p17afb33f12)" style="fill: #ff0000; fill-opacity: 0.7; stroke: #000000; stroke-opacity: 0.7; stroke-width: 0.5"/>
    <path d="M 456.949139 248.921936 
L 456.949139 248.851736 
L 456.878939 248.851736 
L 456.878939 248.921936 
L 456.949139 248.921936 
" clip-path="url(#p17afb33f12)" style="fill: #ff0000; fill-opacity: 0.7; stroke: #000000; stroke-opacity: 0.7; stroke-width: 0.5"/>
    <path d="M 428.602282 310.669418 
L 428.602282 310.599219 
L 428.532083 310.599219 
L 428.532083 310.669418 
L 428.602282 310.669418 
" clip-path="url(#p17afb33f12)" style="fill: #ff0000; fill-opacity: 0.7; stroke: #000000; stroke-opacity: 0.7; stroke-width: 0.5"/>
    <path d="M 406.769486 261.395773 
L 406.769486 261.325573 
L 406.699287 261.325573 
L 406.699287 261.395773 
L 406.769486 261.395773 
" clip-path="url(#p17afb33f12)" style="fill: #ff0000; fill-opacity: 0.7; stroke: #000000; stroke-opacity: 0.7; stroke-width: 0.5"/>
    <path d="M 456.949139 248.921936 
L 456.949139 248.851736 
L 456.878939 248.851736 
L 456.878939 248.921936 
L 456.949139 248.921936 
" clip-path="url(#p17afb33f12)" style="fill: #ff0000; fill-opacity: 0.7; stroke: #000000; stroke-opacity: 0.7; stroke-width: 0.5"/>
    <path d="M 321.931588 549.612733 
L 321.931588 549.542534 
L 321.861389 549.542534 
L 321.861389 549.612733 
L 321.931588 549.612733 
" clip-path="url(#p17afb33f12)" style="fill: #ff0000; fill-opacity: 0.7; stroke: #000000; stroke-opacity: 0.7; stroke-width: 0.5"/>
    <path d="M 290.9592 434.920131 
L 290.9592 434.849931 
L 290.889001 434.849931 
L 290.889001 434.920131 
L 290.9592 434.920131 
" clip-path="url(#p17afb33f12)" style="fill: #ff0000; fill-opacity: 0.7; stroke: #000000; stroke-opacity: 0.7; stroke-width: 0.5"/>
    <path d="M 456.949139 248.921936 
L 456.949139 248.851736 
L 456.878939 248.851736 
L 456.878939 248.921936 
L 456.949139 248.921936 
" clip-path="url(#p17afb33f12)" style="fill: #ff0000; fill-opacity: 0.7; stroke: #000000; stroke-opacity: 0.7; stroke-width: 0.5"/>
    <path d="M 390.555284 154.467793 
L 390.555284 154.397594 
L 390.485085 154.397594 
L 390.485085 154.467793 
L 390.555284 154.467793 
" clip-path="url(#p17afb33f12)" style="fill: #ff0000; fill-opacity: 0.7; stroke: #000000; stroke-opacity: 0.7; stroke-width: 0.5"/>
    <path d="M 321.496228 357.423947 
L 321.496228 357.353748 
L 321.426028 357.353748 
L 321.426028 357.423947 
L 321.496228 357.423947 
" clip-path="url(#p17afb33f12)" style="fill: #ff0000; fill-opacity: 0.7; stroke: #000000; stroke-opacity: 0.7; stroke-width: 0.5"/>
    <path d="M 321.496228 357.423947 
L 321.496228 357.353748 
L 321.426028 357.353748 
L 321.426028 357.423947 
L 321.496228 357.423947 
" clip-path="url(#p17afb33f12)" style="fill: #ff0000; fill-opacity: 0.7; stroke: #000000; stroke-opacity: 0.7; stroke-width: 0.5"/>
    <path d="M 450.708214 145.823269 
L 450.708214 145.753069 
L 450.638015 145.753069 
L 450.638015 145.823269 
L 450.708214 145.823269 
" clip-path="url(#p17afb33f12)" style="fill: #ff0000; fill-opacity: 0.7; stroke: #000000; stroke-opacity: 0.7; stroke-width: 0.5"/>
    <path d="M 355.819372 341.027145 
L 355.819372 340.956945 
L 355.749172 340.956945 
L 355.749172 341.027145 
L 355.819372 341.027145 
" clip-path="url(#p17afb33f12)" style="fill: #ff0000; fill-opacity: 0.7; stroke: #000000; stroke-opacity: 0.7; stroke-width: 0.5"/>
    <path d="M 446.163715 377.244801 
L 446.163715 377.174601 
L 446.093515 377.174601 
L 446.093515 377.244801 
L 446.163715 377.244801 
" clip-path="url(#p17afb33f12)" style="fill: #ff0000; fill-opacity: 0.7; stroke: #000000; stroke-opacity: 0.7; stroke-width: 0.5"/>
    <path d="M 450.708214 145.823277 
L 450.708214 145.753077 
L 450.638015 145.753077 
L 450.638015 145.823277 
L 450.708214 145.823277 
" clip-path="url(#p17afb33f12)" style="fill: #ff0000; fill-opacity: 0.7; stroke: #000000; stroke-opacity: 0.7; stroke-width: 0.5"/>
    <path d="M 422.417976 303.635549 
L 422.417976 303.56535 
L 422.347777 303.56535 
L 422.347777 303.635549 
L 422.417976 303.635549 
" clip-path="url(#p17afb33f12)" style="fill: #ff0000; fill-opacity: 0.7; stroke: #000000; stroke-opacity: 0.7; stroke-width: 0.5"/>
    <path d="M 321.496228 357.423947 
L 321.496228 357.353748 
L 321.426028 357.353748 
L 321.426028 357.423947 
L 321.496228 357.423947 
" clip-path="url(#p17afb33f12)" style="fill: #ff0000; fill-opacity: 0.7; stroke: #000000; stroke-opacity: 0.7; stroke-width: 0.5"/>
    <path d="M 351.608936 302.027171 
L 351.608936 301.956971 
L 351.538737 301.956971 
L 351.538737 302.027171 
L 351.608936 302.027171 
" clip-path="url(#p17afb33f12)" style="fill: #ff0000; fill-opacity: 0.7; stroke: #000000; stroke-opacity: 0.7; stroke-width: 0.5"/>
    <path d="M 290.9592 434.920131 
L 290.9592 434.849931 
L 290.889001 434.849931 
L 290.889001 434.920131 
L 290.9592 434.920131 
" clip-path="url(#p17afb33f12)" style="fill: #ff0000; fill-opacity: 0.7; stroke: #000000; stroke-opacity: 0.7; stroke-width: 0.5"/>
    <path d="M 240.699943 406.47897 
L 240.699943 406.40877 
L 240.629743 406.40877 
L 240.629743 406.47897 
L 240.699943 406.47897 
" clip-path="url(#p17afb33f12)" style="fill: #ff0000; fill-opacity: 0.7; stroke: #000000; stroke-opacity: 0.7; stroke-width: 0.5"/>
    <path d="M 367.890088 198.476408 
L 367.890088 198.406208 
L 367.819888 198.406208 
L 367.819888 198.476408 
L 367.890088 198.476408 
" clip-path="url(#p17afb33f12)" style="fill: #ff0000; fill-opacity: 0.7; stroke: #000000; stroke-opacity: 0.7; stroke-width: 0.5"/>
    <path d="M 461.998681 359.669721 
L 461.998681 359.599522 
L 461.928482 359.599522 
L 461.928482 359.669721 
L 461.998681 359.669721 
" clip-path="url(#p17afb33f12)" style="fill: #ff0000; fill-opacity: 0.7; stroke: #000000; stroke-opacity: 0.7; stroke-width: 0.5"/>
    <path d="M 324.230254 478.606324 
L 324.230254 478.536125 
L 324.160054 478.536125 
L 324.160054 478.606324 
L 324.230254 478.606324 
" clip-path="url(#p17afb33f12)" style="fill: #ff0000; fill-opacity: 0.7; stroke: #000000; stroke-opacity: 0.7; stroke-width: 0.5"/>
    <path d="M 299.447858 424.992999 
L 299.447858 424.922799 
L 299.377659 424.922799 
L 299.377659 424.992999 
L 299.447858 424.992999 
" clip-path="url(#p17afb33f12)" style="fill: #ff0000; fill-opacity: 0.7; stroke: #000000; stroke-opacity: 0.7; stroke-width: 0.5"/>
    <path d="M 251.132758 401.788663 
L 251.132758 401.718463 
L 251.062558 401.718463 
L 251.062558 401.788663 
L 251.132758 401.788663 
" clip-path="url(#p17afb33f12)" style="fill: #ff0000; fill-opacity: 0.7; stroke: #000000; stroke-opacity: 0.7; stroke-width: 0.5"/>
    <path d="M 321.496228 357.423947 
L 321.496228 357.353748 
L 321.426028 357.353748 
L 321.426028 357.423947 
L 321.496228 357.423947 
" clip-path="url(#p17afb33f12)" style="fill: #ff0000; fill-opacity: 0.7; stroke: #000000; stroke-opacity: 0.7; stroke-width: 0.5"/>
    <path d="M 442.549457 150.330736 
L 442.549457 150.260537 
L 442.479258 150.260537 
L 442.479258 150.330736 
L 442.549457 150.330736 
" clip-path="url(#p17afb33f12)" style="fill: #ff0000; fill-opacity: 0.7; stroke: #000000; stroke-opacity: 0.7; stroke-width: 0.5"/>
    <path d="M 300.519405 474.48523 
L 300.519405 474.41503 
L 300.449206 474.41503 
L 300.449206 474.48523 
L 300.519405 474.48523 
" clip-path="url(#p17afb33f12)" style="fill: #ff0000; fill-opacity: 0.7; stroke: #000000; stroke-opacity: 0.7; stroke-width: 0.5"/>
    <path d="M 427.96797 421.803667 
L 427.96797 421.733468 
L 427.897771 421.733468 
L 427.897771 421.803667 
L 427.96797 421.803667 
" clip-path="url(#p17afb33f12)" style="fill: #ff0000; fill-opacity: 0.7; stroke: #000000; stroke-opacity: 0.7; stroke-width: 0.5"/>
    <path d="M 321.931593 549.612718 
L 321.931593 549.542519 
L 321.861394 549.542519 
L 321.861394 549.612718 
L 321.931593 549.612718 
" clip-path="url(#p17afb33f12)" style="fill: #ff0000; fill-opacity: 0.7; stroke: #000000; stroke-opacity: 0.7; stroke-width: 0.5"/>
    <path d="M 441.609894 149.801732 
L 441.609894 149.731532 
L 441.539694 149.731532 
L 441.539694 149.801732 
L 441.609894 149.801732 
" clip-path="url(#p17afb33f12)" style="fill: #ff0000; fill-opacity: 0.7; stroke: #000000; stroke-opacity: 0.7; stroke-width: 0.5"/>
    <path d="M 411.375124 277.271395 
L 411.375124 277.201195 
L 411.304924 277.201195 
L 411.304924 277.271395 
L 411.375124 277.271395 
" clip-path="url(#p17afb33f12)" style="fill: #ff0000; fill-opacity: 0.7; stroke: #000000; stroke-opacity: 0.7; stroke-width: 0.5"/>
    <path d="M 214.687529 490.50201 
L 214.687529 490.43181 
L 214.617329 490.43181 
L 214.617329 490.50201 
L 214.687529 490.50201 
" clip-path="url(#p17afb33f12)" style="fill: #ff0000; fill-opacity: 0.7; stroke: #000000; stroke-opacity: 0.7; stroke-width: 0.5"/>
    <path d="M 391.824504 144.397144 
L 391.824504 144.326945 
L 391.754304 144.326945 
L 391.754304 144.397144 
L 391.824504 144.397144 
" clip-path="url(#p17afb33f12)" style="fill: #ff0000; fill-opacity: 0.7; stroke: #000000; stroke-opacity: 0.7; stroke-width: 0.5"/>
    <path d="M 209.847296 562.934219 
L 209.847296 562.864019 
L 209.777096 562.864019 
L 209.777096 562.934219 
L 209.847296 562.934219 
" clip-path="url(#p17afb33f12)" style="fill: #ff0000; fill-opacity: 0.7; stroke: #000000; stroke-opacity: 0.7; stroke-width: 0.5"/>
   </g>
   <g id="matplotlib.axis_1">
    <g id="xtick_1">
     <g id="line2d_1">
      <defs>
       <path id="mb6f99a76e3" d="M 0 0 
L 0 3.5 
" style="stroke: #000000; stroke-width: 0.8"/>
      </defs>
      <g>
       <use xlink:href="#mb6f99a76e3" x="240.570748" y="640.8" style="stroke: #000000; stroke-width: 0.8"/>
      </g>
     </g>
     <g id="text_1">
      <!-- 400000 -->
      <g transform="translate(221.483248 655.398438) scale(0.1 -0.1)">
       <defs>
        <path id="DejaVuSans-34" d="M 2419 4116 
L 825 1625 
L 2419 1625 
L 2419 4116 
z
M 2253 4666 
L 3047 4666 
L 3047 1625 
L 3713 1625 
L 3713 1100 
L 3047 1100 
L 3047 0 
L 2419 0 
L 2419 1100 
L 313 1100 
L 313 1709 
L 2253 4666 
z
" transform="scale(0.015625)"/>
        <path id="DejaVuSans-30" d="M 2034 4250 
Q 1547 4250 1301 3770 
Q 1056 3291 1056 2328 
Q 1056 1369 1301 889 
Q 1547 409 2034 409 
Q 2525 409 2770 889 
Q 3016 1369 3016 2328 
Q 3016 3291 2770 3770 
Q 2525 4250 2034 4250 
z
M 2034 4750 
Q 2819 4750 3233 4129 
Q 3647 3509 3647 2328 
Q 3647 1150 3233 529 
Q 2819 -91 2034 -91 
Q 1250 -91 836 529 
Q 422 1150 422 2328 
Q 422 3509 836 4129 
Q 1250 4750 2034 4750 
z
" transform="scale(0.015625)"/>
       </defs>
       <use xlink:href="#DejaVuSans-34"/>
       <use xlink:href="#DejaVuSans-30" x="63.623047"/>
       <use xlink:href="#DejaVuSans-30" x="127.246094"/>
       <use xlink:href="#DejaVuSans-30" x="190.869141"/>
       <use xlink:href="#DejaVuSans-30" x="254.492188"/>
       <use xlink:href="#DejaVuSans-30" x="318.115234"/>
      </g>
     </g>
    </g>
    <g id="xtick_2">
     <g id="line2d_2">
      <g>
       <use xlink:href="#mb6f99a76e3" x="310.770154" y="640.8" style="stroke: #000000; stroke-width: 0.8"/>
      </g>
     </g>
     <g id="text_2">
      <!-- 401000 -->
      <g transform="translate(291.682654 655.398438) scale(0.1 -0.1)">
       <defs>
        <path id="DejaVuSans-31" d="M 794 531 
L 1825 531 
L 1825 4091 
L 703 3866 
L 703 4441 
L 1819 4666 
L 2450 4666 
L 2450 531 
L 3481 531 
L 3481 0 
L 794 0 
L 794 531 
z
" transform="scale(0.015625)"/>
       </defs>
       <use xlink:href="#DejaVuSans-34"/>
       <use xlink:href="#DejaVuSans-30" x="63.623047"/>
       <use xlink:href="#DejaVuSans-31" x="127.246094"/>
       <use xlink:href="#DejaVuSans-30" x="190.869141"/>
       <use xlink:href="#DejaVuSans-30" x="254.492188"/>
       <use xlink:href="#DejaVuSans-30" x="318.115234"/>
      </g>
     </g>
    </g>
    <g id="xtick_3">
     <g id="line2d_3">
      <g>
       <use xlink:href="#mb6f99a76e3" x="380.96956" y="640.8" style="stroke: #000000; stroke-width: 0.8"/>
      </g>
     </g>
     <g id="text_3">
      <!-- 402000 -->
      <g transform="translate(361.88206 655.398438) scale(0.1 -0.1)">
       <defs>
        <path id="DejaVuSans-32" d="M 1228 531 
L 3431 531 
L 3431 0 
L 469 0 
L 469 531 
Q 828 903 1448 1529 
Q 2069 2156 2228 2338 
Q 2531 2678 2651 2914 
Q 2772 3150 2772 3378 
Q 2772 3750 2511 3984 
Q 2250 4219 1831 4219 
Q 1534 4219 1204 4116 
Q 875 4013 500 3803 
L 500 4441 
Q 881 4594 1212 4672 
Q 1544 4750 1819 4750 
Q 2544 4750 2975 4387 
Q 3406 4025 3406 3419 
Q 3406 3131 3298 2873 
Q 3191 2616 2906 2266 
Q 2828 2175 2409 1742 
Q 1991 1309 1228 531 
z
" transform="scale(0.015625)"/>
       </defs>
       <use xlink:href="#DejaVuSans-34"/>
       <use xlink:href="#DejaVuSans-30" x="63.623047"/>
       <use xlink:href="#DejaVuSans-32" x="127.246094"/>
       <use xlink:href="#DejaVuSans-30" x="190.869141"/>
       <use xlink:href="#DejaVuSans-30" x="254.492188"/>
       <use xlink:href="#DejaVuSans-30" x="318.115234"/>
      </g>
     </g>
    </g>
    <g id="xtick_4">
     <g id="line2d_4">
      <g>
       <use xlink:href="#mb6f99a76e3" x="451.168967" y="640.8" style="stroke: #000000; stroke-width: 0.8"/>
      </g>
     </g>
     <g id="text_4">
      <!-- 403000 -->
      <g transform="translate(432.081467 655.398438) scale(0.1 -0.1)">
       <defs>
        <path id="DejaVuSans-33" d="M 2597 2516 
Q 3050 2419 3304 2112 
Q 3559 1806 3559 1356 
Q 3559 666 3084 287 
Q 2609 -91 1734 -91 
Q 1441 -91 1130 -33 
Q 819 25 488 141 
L 488 750 
Q 750 597 1062 519 
Q 1375 441 1716 441 
Q 2309 441 2620 675 
Q 2931 909 2931 1356 
Q 2931 1769 2642 2001 
Q 2353 2234 1838 2234 
L 1294 2234 
L 1294 2753 
L 1863 2753 
Q 2328 2753 2575 2939 
Q 2822 3125 2822 3475 
Q 2822 3834 2567 4026 
Q 2313 4219 1838 4219 
Q 1578 4219 1281 4162 
Q 984 4106 628 3988 
L 628 4550 
Q 988 4650 1302 4700 
Q 1616 4750 1894 4750 
Q 2613 4750 3031 4423 
Q 3450 4097 3450 3541 
Q 3450 3153 3228 2886 
Q 3006 2619 2597 2516 
z
" transform="scale(0.015625)"/>
       </defs>
       <use xlink:href="#DejaVuSans-34"/>
       <use xlink:href="#DejaVuSans-30" x="63.623047"/>
       <use xlink:href="#DejaVuSans-33" x="127.246094"/>
       <use xlink:href="#DejaVuSans-30" x="190.869141"/>
       <use xlink:href="#DejaVuSans-30" x="254.492188"/>
       <use xlink:href="#DejaVuSans-30" x="318.115234"/>
      </g>
     </g>
    </g>
    <g id="xtick_5">
     <g id="line2d_5">
      <g>
       <use xlink:href="#mb6f99a76e3" x="521.368373" y="640.8" style="stroke: #000000; stroke-width: 0.8"/>
      </g>
     </g>
     <g id="text_5">
      <!-- 404000 -->
      <g transform="translate(502.280873 655.398438) scale(0.1 -0.1)">
       <use xlink:href="#DejaVuSans-34"/>
       <use xlink:href="#DejaVuSans-30" x="63.623047"/>
       <use xlink:href="#DejaVuSans-34" x="127.246094"/>
       <use xlink:href="#DejaVuSans-30" x="190.869141"/>
       <use xlink:href="#DejaVuSans-30" x="254.492188"/>
       <use xlink:href="#DejaVuSans-30" x="318.115234"/>
      </g>
     </g>
    </g>
   </g>
   <g id="matplotlib.axis_2">
    <g id="ytick_1">
     <g id="line2d_6">
      <defs>
       <path id="m5609f24bc9" d="M 0 0 
L -3.5 0 
" style="stroke: #000000; stroke-width: 0.8"/>
      </defs>
      <g>
       <use xlink:href="#m5609f24bc9" x="181.805477" y="596.215152" style="stroke: #000000; stroke-width: 0.8"/>
      </g>
     </g>
     <g id="text_6">
      <!-- 5.819 -->
      <g transform="translate(146.177352 600.01437) scale(0.1 -0.1)">
       <defs>
        <path id="DejaVuSans-35" d="M 691 4666 
L 3169 4666 
L 3169 4134 
L 1269 4134 
L 1269 2991 
Q 1406 3038 1543 3061 
Q 1681 3084 1819 3084 
Q 2600 3084 3056 2656 
Q 3513 2228 3513 1497 
Q 3513 744 3044 326 
Q 2575 -91 1722 -91 
Q 1428 -91 1123 -41 
Q 819 9 494 109 
L 494 744 
Q 775 591 1075 516 
Q 1375 441 1709 441 
Q 2250 441 2565 725 
Q 2881 1009 2881 1497 
Q 2881 1984 2565 2268 
Q 2250 2553 1709 2553 
Q 1456 2553 1204 2497 
Q 953 2441 691 2322 
L 691 4666 
z
" transform="scale(0.015625)"/>
        <path id="DejaVuSans-2e" d="M 684 794 
L 1344 794 
L 1344 0 
L 684 0 
L 684 794 
z
" transform="scale(0.015625)"/>
        <path id="DejaVuSans-38" d="M 2034 2216 
Q 1584 2216 1326 1975 
Q 1069 1734 1069 1313 
Q 1069 891 1326 650 
Q 1584 409 2034 409 
Q 2484 409 2743 651 
Q 3003 894 3003 1313 
Q 3003 1734 2745 1975 
Q 2488 2216 2034 2216 
z
M 1403 2484 
Q 997 2584 770 2862 
Q 544 3141 544 3541 
Q 544 4100 942 4425 
Q 1341 4750 2034 4750 
Q 2731 4750 3128 4425 
Q 3525 4100 3525 3541 
Q 3525 3141 3298 2862 
Q 3072 2584 2669 2484 
Q 3125 2378 3379 2068 
Q 3634 1759 3634 1313 
Q 3634 634 3220 271 
Q 2806 -91 2034 -91 
Q 1263 -91 848 271 
Q 434 634 434 1313 
Q 434 1759 690 2068 
Q 947 2378 1403 2484 
z
M 1172 3481 
Q 1172 3119 1398 2916 
Q 1625 2713 2034 2713 
Q 2441 2713 2670 2916 
Q 2900 3119 2900 3481 
Q 2900 3844 2670 4047 
Q 2441 4250 2034 4250 
Q 1625 4250 1398 4047 
Q 1172 3844 1172 3481 
z
" transform="scale(0.015625)"/>
        <path id="DejaVuSans-39" d="M 703 97 
L 703 672 
Q 941 559 1184 500 
Q 1428 441 1663 441 
Q 2288 441 2617 861 
Q 2947 1281 2994 2138 
Q 2813 1869 2534 1725 
Q 2256 1581 1919 1581 
Q 1219 1581 811 2004 
Q 403 2428 403 3163 
Q 403 3881 828 4315 
Q 1253 4750 1959 4750 
Q 2769 4750 3195 4129 
Q 3622 3509 3622 2328 
Q 3622 1225 3098 567 
Q 2575 -91 1691 -91 
Q 1453 -91 1209 -44 
Q 966 3 703 97 
z
M 1959 2075 
Q 2384 2075 2632 2365 
Q 2881 2656 2881 3163 
Q 2881 3666 2632 3958 
Q 2384 4250 1959 4250 
Q 1534 4250 1286 3958 
Q 1038 3666 1038 3163 
Q 1038 2656 1286 2365 
Q 1534 2075 1959 2075 
z
" transform="scale(0.015625)"/>
       </defs>
       <use xlink:href="#DejaVuSans-35"/>
       <use xlink:href="#DejaVuSans-2e" x="63.623047"/>
       <use xlink:href="#DejaVuSans-38" x="95.410156"/>
       <use xlink:href="#DejaVuSans-31" x="159.033203"/>
       <use xlink:href="#DejaVuSans-39" x="222.65625"/>
      </g>
     </g>
    </g>
    <g id="ytick_2">
     <g id="line2d_7">
      <g>
       <use xlink:href="#m5609f24bc9" x="181.805477" y="526.015745" style="stroke: #000000; stroke-width: 0.8"/>
      </g>
     </g>
     <g id="text_7">
      <!-- 5.820 -->
      <g transform="translate(146.177352 529.814964) scale(0.1 -0.1)">
       <use xlink:href="#DejaVuSans-35"/>
       <use xlink:href="#DejaVuSans-2e" x="63.623047"/>
       <use xlink:href="#DejaVuSans-38" x="95.410156"/>
       <use xlink:href="#DejaVuSans-32" x="159.033203"/>
       <use xlink:href="#DejaVuSans-30" x="222.65625"/>
      </g>
     </g>
    </g>
    <g id="ytick_3">
     <g id="line2d_8">
      <g>
       <use xlink:href="#m5609f24bc9" x="181.805477" y="455.816339" style="stroke: #000000; stroke-width: 0.8"/>
      </g>
     </g>
     <g id="text_8">
      <!-- 5.821 -->
      <g transform="translate(146.177352 459.615558) scale(0.1 -0.1)">
       <use xlink:href="#DejaVuSans-35"/>
       <use xlink:href="#DejaVuSans-2e" x="63.623047"/>
       <use xlink:href="#DejaVuSans-38" x="95.410156"/>
       <use xlink:href="#DejaVuSans-32" x="159.033203"/>
       <use xlink:href="#DejaVuSans-31" x="222.65625"/>
      </g>
     </g>
    </g>
    <g id="ytick_4">
     <g id="line2d_9">
      <g>
       <use xlink:href="#m5609f24bc9" x="181.805477" y="385.616933" style="stroke: #000000; stroke-width: 0.8"/>
      </g>
     </g>
     <g id="text_9">
      <!-- 5.822 -->
      <g transform="translate(146.177352 389.416152) scale(0.1 -0.1)">
       <use xlink:href="#DejaVuSans-35"/>
       <use xlink:href="#DejaVuSans-2e" x="63.623047"/>
       <use xlink:href="#DejaVuSans-38" x="95.410156"/>
       <use xlink:href="#DejaVuSans-32" x="159.033203"/>
       <use xlink:href="#DejaVuSans-32" x="222.65625"/>
      </g>
     </g>
    </g>
    <g id="ytick_5">
     <g id="line2d_10">
      <g>
       <use xlink:href="#m5609f24bc9" x="181.805477" y="315.417527" style="stroke: #000000; stroke-width: 0.8"/>
      </g>
     </g>
     <g id="text_10">
      <!-- 5.823 -->
      <g transform="translate(146.177352 319.216745) scale(0.1 -0.1)">
       <use xlink:href="#DejaVuSans-35"/>
       <use xlink:href="#DejaVuSans-2e" x="63.623047"/>
       <use xlink:href="#DejaVuSans-38" x="95.410156"/>
       <use xlink:href="#DejaVuSans-32" x="159.033203"/>
       <use xlink:href="#DejaVuSans-33" x="222.65625"/>
      </g>
     </g>
    </g>
    <g id="ytick_6">
     <g id="line2d_11">
      <g>
       <use xlink:href="#m5609f24bc9" x="181.805477" y="245.21812" style="stroke: #000000; stroke-width: 0.8"/>
      </g>
     </g>
     <g id="text_11">
      <!-- 5.824 -->
      <g transform="translate(146.177352 249.017339) scale(0.1 -0.1)">
       <use xlink:href="#DejaVuSans-35"/>
       <use xlink:href="#DejaVuSans-2e" x="63.623047"/>
       <use xlink:href="#DejaVuSans-38" x="95.410156"/>
       <use xlink:href="#DejaVuSans-32" x="159.033203"/>
       <use xlink:href="#DejaVuSans-34" x="222.65625"/>
      </g>
     </g>
    </g>
    <g id="ytick_7">
     <g id="line2d_12">
      <g>
       <use xlink:href="#m5609f24bc9" x="181.805477" y="175.018714" style="stroke: #000000; stroke-width: 0.8"/>
      </g>
     </g>
     <g id="text_12">
      <!-- 5.825 -->
      <g transform="translate(146.177352 178.817933) scale(0.1 -0.1)">
       <use xlink:href="#DejaVuSans-35"/>
       <use xlink:href="#DejaVuSans-2e" x="63.623047"/>
       <use xlink:href="#DejaVuSans-38" x="95.410156"/>
       <use xlink:href="#DejaVuSans-32" x="159.033203"/>
       <use xlink:href="#DejaVuSans-35" x="222.65625"/>
      </g>
     </g>
    </g>
    <g id="ytick_8">
     <g id="line2d_13">
      <g>
       <use xlink:href="#m5609f24bc9" x="181.805477" y="104.819308" style="stroke: #000000; stroke-width: 0.8"/>
      </g>
     </g>
     <g id="text_13">
      <!-- 5.826 -->
      <g transform="translate(146.177352 108.618526) scale(0.1 -0.1)">
       <defs>
        <path id="DejaVuSans-36" d="M 2113 2584 
Q 1688 2584 1439 2293 
Q 1191 2003 1191 1497 
Q 1191 994 1439 701 
Q 1688 409 2113 409 
Q 2538 409 2786 701 
Q 3034 994 3034 1497 
Q 3034 2003 2786 2293 
Q 2538 2584 2113 2584 
z
M 3366 4563 
L 3366 3988 
Q 3128 4100 2886 4159 
Q 2644 4219 2406 4219 
Q 1781 4219 1451 3797 
Q 1122 3375 1075 2522 
Q 1259 2794 1537 2939 
Q 1816 3084 2150 3084 
Q 2853 3084 3261 2657 
Q 3669 2231 3669 1497 
Q 3669 778 3244 343 
Q 2819 -91 2113 -91 
Q 1303 -91 875 529 
Q 447 1150 447 2328 
Q 447 3434 972 4092 
Q 1497 4750 2381 4750 
Q 2619 4750 2861 4703 
Q 3103 4656 3366 4563 
z
" transform="scale(0.015625)"/>
       </defs>
       <use xlink:href="#DejaVuSans-35"/>
       <use xlink:href="#DejaVuSans-2e" x="63.623047"/>
       <use xlink:href="#DejaVuSans-38" x="95.410156"/>
       <use xlink:href="#DejaVuSans-32" x="159.033203"/>
       <use xlink:href="#DejaVuSans-36" x="222.65625"/>
      </g>
     </g>
    </g>
    <g id="text_14">
     <!-- 1e6 -->
     <g transform="translate(181.805477 83.4) scale(0.1 -0.1)">
      <defs>
       <path id="DejaVuSans-65" d="M 3597 1894 
L 3597 1613 
L 953 1613 
Q 991 1019 1311 708 
Q 1631 397 2203 397 
Q 2534 397 2845 478 
Q 3156 559 3463 722 
L 3463 178 
Q 3153 47 2828 -22 
Q 2503 -91 2169 -91 
Q 1331 -91 842 396 
Q 353 884 353 1716 
Q 353 2575 817 3079 
Q 1281 3584 2069 3584 
Q 2775 3584 3186 3129 
Q 3597 2675 3597 1894 
z
M 3022 2063 
Q 3016 2534 2758 2815 
Q 2500 3097 2075 3097 
Q 1594 3097 1305 2825 
Q 1016 2553 972 2059 
L 3022 2063 
z
" transform="scale(0.015625)"/>
      </defs>
      <use xlink:href="#DejaVuSans-31"/>
      <use xlink:href="#DejaVuSans-65" x="63.623047"/>
      <use xlink:href="#DejaVuSans-36" x="125.146484"/>
     </g>
    </g>
   </g>
   <g id="patch_3">
    <path d="M 181.805477 640.8 
L 181.805477 86.4 
" style="fill: none; stroke: #000000; stroke-width: 0.8; stroke-linejoin: miter; stroke-linecap: square"/>
   </g>
   <g id="patch_4">
    <path d="M 556.194523 640.8 
L 556.194523 86.4 
" style="fill: none; stroke: #000000; stroke-width: 0.8; stroke-linejoin: miter; stroke-linecap: square"/>
   </g>
   <g id="patch_5">
    <path d="M 181.805477 640.8 
L 556.194523 640.8 
" style="fill: none; stroke: #000000; stroke-width: 0.8; stroke-linejoin: miter; stroke-linecap: square"/>
   </g>
   <g id="patch_6">
    <path d="M 181.805477 86.4 
L 556.194523 86.4 
" style="fill: none; stroke: #000000; stroke-width: 0.8; stroke-linejoin: miter; stroke-linecap: square"/>
   </g>
   <g id="text_15">
    <!-- Marzahn -->
    <g transform="translate(344.067209 345.75708) scale(0.12 -0.12)">
     <defs>
      <path id="DejaVuSans-4d" d="M 628 4666 
L 1569 4666 
L 2759 1491 
L 3956 4666 
L 4897 4666 
L 4897 0 
L 4281 0 
L 4281 4097 
L 3078 897 
L 2444 897 
L 1241 4097 
L 1241 0 
L 628 0 
L 628 4666 
z
" transform="scale(0.015625)"/>
      <path id="DejaVuSans-61" d="M 2194 1759 
Q 1497 1759 1228 1600 
Q 959 1441 959 1056 
Q 959 750 1161 570 
Q 1363 391 1709 391 
Q 2188 391 2477 730 
Q 2766 1069 2766 1631 
L 2766 1759 
L 2194 1759 
z
M 3341 1997 
L 3341 0 
L 2766 0 
L 2766 531 
Q 2569 213 2275 61 
Q 1981 -91 1556 -91 
Q 1019 -91 701 211 
Q 384 513 384 1019 
Q 384 1609 779 1909 
Q 1175 2209 1959 2209 
L 2766 2209 
L 2766 2266 
Q 2766 2663 2505 2880 
Q 2244 3097 1772 3097 
Q 1472 3097 1187 3025 
Q 903 2953 641 2809 
L 641 3341 
Q 956 3463 1253 3523 
Q 1550 3584 1831 3584 
Q 2591 3584 2966 3190 
Q 3341 2797 3341 1997 
z
" transform="scale(0.015625)"/>
      <path id="DejaVuSans-72" d="M 2631 2963 
Q 2534 3019 2420 3045 
Q 2306 3072 2169 3072 
Q 1681 3072 1420 2755 
Q 1159 2438 1159 1844 
L 1159 0 
L 581 0 
L 581 3500 
L 1159 3500 
L 1159 2956 
Q 1341 3275 1631 3429 
Q 1922 3584 2338 3584 
Q 2397 3584 2469 3576 
Q 2541 3569 2628 3553 
L 2631 2963 
z
" transform="scale(0.015625)"/>
      <path id="DejaVuSans-7a" d="M 353 3500 
L 3084 3500 
L 3084 2975 
L 922 459 
L 3084 459 
L 3084 0 
L 275 0 
L 275 525 
L 2438 3041 
L 353 3041 
L 353 3500 
z
" transform="scale(0.015625)"/>
      <path id="DejaVuSans-68" d="M 3513 2113 
L 3513 0 
L 2938 0 
L 2938 2094 
Q 2938 2591 2744 2837 
Q 2550 3084 2163 3084 
Q 1697 3084 1428 2787 
Q 1159 2491 1159 1978 
L 1159 0 
L 581 0 
L 581 4863 
L 1159 4863 
L 1159 2956 
Q 1366 3272 1645 3428 
Q 1925 3584 2291 3584 
Q 2894 3584 3203 3211 
Q 3513 2838 3513 2113 
z
" transform="scale(0.015625)"/>
      <path id="DejaVuSans-6e" d="M 3513 2113 
L 3513 0 
L 2938 0 
L 2938 2094 
Q 2938 2591 2744 2837 
Q 2550 3084 2163 3084 
Q 1697 3084 1428 2787 
Q 1159 2491 1159 1978 
L 1159 0 
L 581 0 
L 581 3500 
L 1159 3500 
L 1159 2956 
Q 1366 3272 1645 3428 
Q 1925 3584 2291 3584 
Q 2894 3584 3203 3211 
Q 3513 2838 3513 2113 
z
" transform="scale(0.015625)"/>
     </defs>
     <use xlink:href="#DejaVuSans-4d"/>
     <use xlink:href="#DejaVuSans-61" x="86.279297"/>
     <use xlink:href="#DejaVuSans-72" x="147.558594"/>
     <use xlink:href="#DejaVuSans-7a" x="188.671875"/>
     <use xlink:href="#DejaVuSans-61" x="241.162109"/>
     <use xlink:href="#DejaVuSans-68" x="302.441406"/>
     <use xlink:href="#DejaVuSans-6e" x="365.820312"/>
    </g>
   </g>
  </g>
 </g>
 <defs>
  <clipPath id="p17afb33f12">
   <rect x="181.805477" y="86.4" width="374.389046" height="554.4"/>
  </clipPath>
 </defs>
</svg>
