<?xml version="1.0" encoding="utf-8" standalone="no"?>
<!DOCTYPE svg PUBLIC "-//W3C//DTD SVG 1.1//EN"
  "http://www.w3.org/Graphics/SVG/1.1/DTD/svg11.dtd">
<svg xmlns:xlink="http://www.w3.org/1999/xlink" width="460.8pt" height="345.6pt" viewBox="0 0 460.8 345.6" xmlns="http://www.w3.org/2000/svg" version="1.1">
 <metadata>
  <rdf:RDF xmlns:dc="http://purl.org/dc/elements/1.1/" xmlns:cc="http://creativecommons.org/ns#" xmlns:rdf="http://www.w3.org/1999/02/22-rdf-syntax-ns#">
   <cc:Work>
    <dc:type rdf:resource="http://purl.org/dc/dcmitype/StillImage"/>
    <dc:date>2024-10-17T11:33:16.631618</dc:date>
    <dc:format>image/svg+xml</dc:format>
    <dc:creator>
     <cc:Agent>
      <dc:title>Matplotlib v3.9.2, https://matplotlib.org/</dc:title>
     </cc:Agent>
    </dc:creator>
   </cc:Work>
  </rdf:RDF>
 </metadata>
 <defs>
  <style type="text/css">*{stroke-linejoin: round; stroke-linecap: butt}</style>
 </defs>
 <g id="figure_1">
  <g id="patch_1">
   <path d="M 0 345.6 
L 460.8 345.6 
L 460.8 0 
L 0 0 
z
" style="fill: #ffffff"/>
  </g>
  <g id="axes_1">
   <g id="patch_2">
    <path d="M 57.6 303.928851 
L 414.72 303.928851 
L 414.72 45.127149 
L 57.6 45.127149 
z
" style="fill: #ffffff"/>
   </g>
   <g id="PatchCollection_1">
    <path d="M 192.40066 266.640781 
L 192.404915 266.656095 
L 192.494161 266.97728 
L 192.553571 267.191153 
L 192.585658 267.30668 
L 192.605841 267.381139 
L 192.634594 267.484985 
L 192.708813 267.752923 
L 193.016295 268.862621 
L 193.248658 269.701944 
L 193.526187 270.702369 
L 194.547523 274.383443 
L 195.182577 276.674308 
L 195.405594 277.477576 
L 195.958866 278.265905 
L 197.189007 280.018837 
L 197.432418 280.359633 
L 197.681293 280.70814 
L 198.20739 281.444845 
L 198.450997 282.983908 
L 199.331415 283.906152 
L 200.028556 284.636523 
L 200.192448 284.808712 
L 201.251594 285.918868 
L 201.563106 286.245566 
L 202.388466 287.110225 
L 201.401692 290.294741 
L 201.278454 290.690815 
L 202.240051 290.59174 
L 201.753053 292.165138 
L 203.89768 291.942586 
L 204.088927 291.921491 
L 204.57587 291.865941 
L 204.85225 291.834689 
L 206.342209 291.665166 
L 206.762814 291.617333 
L 207.394679 291.545638 
L 208.788564 291.386951 
L 209.718968 291.281085 
L 210.753322 291.163445 
L 212.555521 290.958841 
L 212.542907 290.886742 
L 212.034177 287.960791 
L 212.011043 287.737548 
L 211.992495 287.513814 
L 211.978615 287.289742 
L 211.969327 287.065487 
L 211.965088 286.840808 
L 211.965521 286.616022 
L 211.970632 286.391357 
L 211.980343 286.166818 
L 211.993754 285.943191 
L 212.011847 285.719918 
L 212.034548 285.497077 
L 212.061783 285.274745 
L 212.088443 285.09085 
L 212.118182 284.907499 
L 212.151073 284.724613 
L 212.187121 284.542345 
L 212.197549 284.492538 
L 212.208208 284.442803 
L 212.219099 284.393139 
L 212.227792 284.354515 
L 212.236639 284.315964 
L 212.245641 284.277487 
L 212.257088 284.228655 
L 212.268764 284.179818 
L 212.280672 284.131053 
L 212.299544 284.055154 
L 212.31903 283.979318 
L 212.339058 283.903699 
L 212.376569 283.768505 
L 212.415857 283.633885 
L 212.45684 283.499686 
L 212.527481 283.282116 
L 212.602679 283.066054 
L 212.682437 282.851655 
L 212.766679 282.638997 
L 212.855408 282.428156 
L 212.951939 282.213369 
L 213.053043 282.000782 
L 213.158795 281.790394 
L 213.269124 281.582436 
L 213.301088 281.522679 
L 213.333363 281.463147 
L 213.366027 281.403835 
L 213.388961 281.364652 
L 213.412126 281.32554 
L 213.435447 281.286578 
L 213.503729 281.169809 
L 213.57341 281.053853 
L 213.644566 280.938784 
L 213.783001 280.726642 
L 213.92634 280.517769 
L 214.074508 280.312319 
L 214.227433 280.110447 
L 214.385117 279.912232 
L 214.547332 279.717754 
L 214.836953 279.378169 
L 215.179186 278.976892 
L 216.327537 277.630701 
L 216.352185 277.60608 
L 216.380143 277.585454 
L 216.410962 277.569297 
L 216.443886 277.558009 
L 216.478075 277.551764 
L 216.512918 277.550653 
L 216.547578 277.554925 
L 216.581207 277.564369 
L 216.612958 277.578775 
L 216.642212 277.597927 
L 217.988438 278.639567 
L 218.442899 278.991183 
L 218.586843 279.102518 
L 219.797373 278.976382 
L 220.266098 278.927607 
L 230.043413 277.909074 
L 230.484311 277.863182 
L 232.781461 277.623912 
L 234.048881 277.491901 
L 238.390288 277.039758 
L 238.617503 277.016085 
L 239.048389 276.971279 
L 239.209323 276.954588 
L 239.295574 276.942843 
L 239.380857 276.925588 
L 239.464863 276.902829 
L 239.547215 276.874729 
L 239.626698 276.841777 
L 239.703919 276.803805 
L 239.778577 276.760974 
L 239.85037 276.713521 
L 239.918994 276.66153 
L 239.998742 276.5933 
L 240.074403 276.520629 
L 240.145751 276.443677 
L 240.212562 276.36268 
L 240.274613 276.277951 
L 240.331604 276.189802 
L 240.369351 276.12469 
L 240.404303 276.058028 
L 240.436542 275.989968 
L 240.445356 275.969939 
L 240.453862 275.94984 
L 240.462214 275.929668 
L 240.573776 275.654295 
L 241.248391 275.58398 
L 241.678818 275.53911 
L 241.722244 275.534653 
L 242.710697 275.431607 
L 243.429734 275.356738 
L 243.691507 275.32943 
L 243.538594 273.851037 
L 243.50778 273.552582 
L 243.4829 273.312547 
L 244.174266 273.240622 
L 244.457601 273.211128 
L 244.547563 274.081806 
L 245.271341 274.006371 
L 248.842987 273.63407 
L 249.754 273.539124 
L 250.196018 273.096009 
L 251.311706 271.977607 
L 251.727058 271.561311 
L 251.12349 271.139463 
L 250.653017 270.810614 
L 250.339238 270.591283 
L 246.505049 267.912648 
L 246.221159 267.714266 
L 246.510767 267.298127 
L 246.572129 267.209956 
L 246.96573 266.64346 
L 247.092594 266.460923 
L 247.18468 266.328426 
L 247.410448 265.869148 
L 248.035533 264.580428 
L 248.281622 264.044529 
L 250.380368 259.272444 
L 250.763361 259.099573 
L 252.197237 258.6996 
L 253.141675 258.590062 
L 253.218339 258.581154 
L 255.093609 258.363627 
L 259.898053 257.806347 
L 260.036022 257.790423 
L 260.121982 256.255437 
L 261.095796 256.317765 
L 261.221692 254.208894 
L 260.870055 254.187996 
L 260.885209 253.938742 
L 260.96065 252.701393 
L 261.000418 252.049897 
L 260.394373 252.01386 
L 260.520756 249.409548 
L 260.58091 248.170707 
L 260.586925 248.048152 
L 260.61219 247.526783 
L 260.649824 246.751613 
L 261.629044 246.804597 
L 262.651331 245.440697 
L 264.841179 242.51884 
L 265.591938 241.517209 
L 265.919113 241.555867 
L 267.483417 241.740703 
L 274.207444 242.535575 
L 275.251354 242.658964 
L 274.685797 241.854586 
L 276.048464 242.015503 
L 276.672869 242.819119 
L 276.980871 243.050285 
L 277.150027 243.242368 
L 277.547716 243.709704 
L 277.850507 244.048576 
L 278.490208 244.71017 
L 279.141046 245.35614 
L 279.810683 245.986312 
L 280.49903 246.596844 
L 281.890687 247.802201 
L 282.755645 248.427904 
L 283.492548 248.983538 
L 285.464719 250.440737 
L 285.913445 250.794205 
L 286.659515 251.416235 
L 287.230843 251.937243 
L 289.613639 254.095896 
L 290.956673 255.356191 
L 291.38819 255.795872 
L 293.283361 257.408566 
L 294.425879 258.2777 
L 295.287836 258.941924 
L 295.381326 259.008948 
L 296.7425 260.057521 
L 296.929566 260.195411 
L 298.071893 261.056875 
L 298.126297 261.090213 
L 299.04307 261.637923 
L 299.963671 262.185547 
L 300.045146 262.229793 
L 300.034965 262.287661 
L 300.035053 262.291501 
L 300.410216 262.444306 
L 300.785118 262.585589 
L 301.213899 262.737169 
L 301.642419 262.877229 
L 301.931579 262.955153 
L 302.224569 263.032991 
L 302.517297 263.099307 
L 303.934715 263.420421 
L 304.015578 263.437786 
L 305.178827 263.703233 
L 306.060838 263.902103 
L 306.284104 263.946955 
L 306.503452 263.988053 
L 306.722539 264.017631 
L 306.949112 264.039354 
L 307.248626 264.067096 
L 307.551795 264.08707 
L 307.851047 264.103291 
L 308.307673 264.131289 
L 308.760294 264.151695 
L 309.059285 264.156396 
L 309.358275 264.161097 
L 309.661009 264.161872 
L 309.963568 264.154965 
L 310.262122 264.140466 
L 310.564594 264.12972 
L 310.866805 264.107453 
L 311.168928 264.081345 
L 311.470964 264.051398 
L 311.772913 264.017611 
L 312.07077 263.97239 
L 312.372545 263.930923 
L 312.826817 263.855237 
L 313.27726 263.77964 
L 313.769744 263.699241 
L 313.849823 263.682045 
L 314.26571 263.603394 
L 314.616751 263.537751 
L 314.704489 263.52038 
L 315.139177 263.425932 
L 315.485953 263.341175 
L 315.821326 263.260521 
L 316.259496 263.150626 
L 316.68992 263.037065 
L 317.147153 262.922894 
L 317.600295 262.79729 
L 317.885881 262.717773 
L 318.17521 262.634329 
L 318.460447 262.539451 
L 319.316335 262.262499 
L 320.251869 261.949152 
L 321.096183 261.668626 
L 321.525826 261.520508 
L 321.95164 261.372478 
L 322.377367 261.220608 
L 322.75731 261.077467 
L 323.076409 260.954925 
L 323.399339 260.832295 
L 323.718265 260.702073 
L 324.029358 260.564344 
L 324.344194 260.422688 
L 324.655025 260.273439 
L 324.962115 260.128118 
L 325.268856 259.967436 
L 325.571768 259.806841 
L 325.870676 259.638654 
L 326.165754 259.470553 
L 326.460572 259.290932 
L 326.755477 259.115151 
L 327.042374 258.924184 
L 327.212371 258.816569 
L 327.801226 258.422765 
L 328.377895 257.998502 
L 329.085744 257.444454 
L 329.735275 256.853314 
L 330.723767 255.8318 
L 332.107022 254.305642 
L 332.642099 253.736323 
L 333.154198 253.167529 
L 334.816112 251.42371 
L 335.881405 250.408147 
L 336.252216 250.07845 
L 336.448438 249.895742 
L 336.78514 249.619118 
L 337.042803 249.40577 
L 337.649182 248.938579 
L 338.267399 248.48649 
L 339.000172 248.016426 
L 339.688463 247.612695 
L 340.366308 247.25531 
L 341.06809 246.939648 
L 341.762127 246.620321 
L 342.464172 246.316183 
L 343.166044 246.004365 
L 343.872008 245.703982 
L 344.696011 245.370179 
L 346.768215 244.48161 
L 347.668358 244.12543 
L 347.83275 244.083636 
L 348.011795 244.061432 
L 349.176052 244.031135 
L 349.570464 244.018332 
L 349.643322 244.020519 
L 349.71975 244.011098 
L 349.796092 243.997836 
L 349.868516 243.980821 
L 349.940767 243.956126 
L 350.009101 243.927677 
L 353.091541 242.635804 
L 353.182596 242.595313 
L 353.250843 242.563024 
L 353.311257 242.523229 
L 353.371671 242.483434 
L 353.428169 242.439885 
L 353.480749 242.392583 
L 353.537073 242.341354 
L 354.152198 241.751038 
L 354.30968 241.597611 
L 355.017871 240.886071 
L 355.386357 240.743224 
L 355.731602 240.589377 
L 356.353844 240.313973 
L 356.642159 240.184474 
L 356.934217 240.051048 
L 357.218614 239.917795 
L 357.502839 239.776863 
L 357.787151 239.63977 
L 358.071376 239.498838 
L 358.291096 239.386266 
L 358.503155 239.273868 
L 358.722876 239.161297 
L 358.934936 239.048899 
L 359.302211 238.852291 
L 359.665656 238.655769 
L 360.429897 238.219615 
L 360.698283 238.05599 
L 360.966843 237.900046 
L 361.235317 237.740262 
L 361.503877 237.584318 
L 361.749891 237.448098 
L 361.9919 237.304284 
L 362.23391 237.16047 
L 362.475921 237.016657 
L 362.691467 236.888813 
L 362.906926 236.757129 
L 363.122386 236.625445 
L 363.334102 236.497689 
L 363.538158 236.370106 
L 363.742128 236.238683 
L 363.942267 236.107347 
L 364.142407 235.976011 
L 364.749707 235.547267 
L 365.111426 235.273944 
L 365.472713 234.98142 
L 365.807621 234.708705 
L 366.13461 234.424643 
L 366.600199 233.999116 
L 367.121162 233.480118 
L 367.521466 233.048388 
L 367.689755 232.863983 
L 367.85021 232.672072 
L 368.010665 232.480161 
L 368.16346 232.288424 
L 368.689231 231.642522 
L 369.165557 231.013112 
L 369.534445 230.547515 
L 369.612628 230.445843 
L 370.022005 229.906324 
L 370.245239 229.609249 
L 370.449148 229.304927 
L 370.652972 228.996764 
L 370.845132 228.681182 
L 371.033376 228.361846 
L 371.206125 228.035176 
L 371.378875 227.708507 
L 371.559459 227.389345 
L 371.751621 227.073763 
L 371.947699 226.761934 
L 372.151525 226.453773 
L 372.363186 226.153118 
L 372.99828 225.256148 
L 373.600117 224.384589 
L 374.232453 223.468868 
L 374.292991 223.365545 
L 374.610276 222.824022 
L 374.812081 222.463729 
L 374.99054 222.15891 
L 375.175841 221.858317 
L 375.367749 221.561877 
L 375.566351 221.269897 
L 375.771339 220.982459 
L 375.982796 220.699717 
L 376.153668 220.486671 
L 376.329538 220.277739 
L 376.510331 220.072999 
L 376.695821 219.872609 
L 376.88601 219.676648 
L 377.125843 219.442214 
L 377.2057 219.367018 
L 377.392104 219.196962 
L 377.582204 219.03105 
L 377.775772 218.869362 
L 377.972884 218.711898 
L 378.241007 218.515171 
L 378.513479 218.324417 
L 378.810937 218.126476 
L 379.070566 217.961308 
L 379.354952 217.789035 
L 379.773064 217.551105 
L 380.152235 217.343567 
L 380.468939 217.176865 
L 380.788368 217.015403 
L 381.110448 216.859339 
L 381.435025 216.708674 
L 381.762101 216.563409 
L 382.060798 216.442631 
L 382.312722 216.345229 
L 382.414198 216.307583 
L 382.515837 216.270395 
L 382.860618 216.148937 
L 383.24275 216.022672 
L 383.556501 215.924629 
L 383.907299 215.821863 
L 384.478548 215.672151 
L 384.731344 215.614944 
L 385.020063 215.552789 
L 385.238476 215.507643 
L 385.575253 215.445924 
L 385.91317 215.390635 
L 386.252004 215.342011 
L 386.591827 215.299897 
L 386.932337 215.264453 
L 387.273608 215.235525 
L 387.294192 210.093812 
L 387.501682 208.738238 
L 387.502369 208.731307 
L 387.663237 208.512576 
L 387.670733 208.229151 
L 387.633169 206.787903 
L 387.624929 203.63524 
L 387.619498 201.530544 
L 387.645522 201.409691 
L 387.628387 201.20682 
L 387.641586 200.795317 
L 387.638585 199.033684 
L 387.586628 198.042928 
L 387.621403 198.000952 
L 387.23079 197.605764 
L 386.926124 197.292142 
L 386.004278 196.343202 
L 385.675371 196.007084 
L 385.676772 195.861582 
L 385.574201 195.758854 
L 385.428601 195.757076 
L 383.847672 194.231328 
L 383.86802 193.082016 
L 383.846528 193.073895 
L 383.847694 192.986111 
L 383.890798 189.061442 
L 383.891493 188.853941 
L 383.885653 188.563902 
L 383.896478 186.150608 
L 383.897354 185.995436 
L 383.90077 183.603749 
L 384.029918 183.470419 
L 386.397787 183.48632 
L 386.4389 183.542025 
L 386.571503 183.541716 
L 386.605808 183.482229 
L 386.826585 183.482922 
L 388.340917 183.49186 
L 389.04269 183.499275 
L 390.01997 183.483479 
L 390.166141 183.486629 
L 390.658114 183.497407 
L 391.370346 183.492679 
L 392.135605 183.497434 
L 392.910176 183.490224 
L 393.094859 183.491352 
L 395.869143 183.51073 
L 395.924087 183.489509 
L 396.051643 183.455657 
L 396.229886 183.296478 
L 396.40271 183.131503 
L 396.570039 182.960813 
L 396.731574 182.784644 
L 396.887165 182.60323 
L 397.036662 182.416728 
L 397.179917 182.225295 
L 397.316706 182.029244 
L 397.446956 181.82873 
L 397.570519 181.623987 
L 397.717559 181.365613 
L 397.859941 181.104654 
L 397.99759 180.841113 
L 398.130511 180.575219 
L 398.258624 180.306899 
L 398.318505 179.956203 
L 398.369385 179.604097 
L 398.411116 179.250815 
L 398.443857 178.896506 
L 398.481931 178.186048 
L 398.487273 177.830283 
L 398.483494 177.47457 
L 398.470597 177.118987 
L 398.422972 176.459723 
L 398.348184 175.853866 
L 398.2991 175.552585 
L 398.242228 175.252709 
L 398.177572 174.954393 
L 398.105214 174.657864 
L 398.025159 174.363353 
L 397.865137 173.812369 
L 397.414328 172.610484 
L 397.059837 171.665394 
L 397.036287 171.586568 
L 397.009746 171.531224 
L 396.96927 171.425399 
L 396.810278 171.107927 
L 396.715989 170.933926 
L 396.635308 170.782133 
L 396.56605 170.65767 
L 396.519537 170.583412 
L 396.339258 170.277256 
L 396.111576 169.851591 
L 395.974582 169.539703 
L 395.765782 169.216288 
L 395.329573 168.389596 
L 394.76861 167.568337 
L 394.312455 166.94912 
L 393.506332 165.875277 
L 390.914532 162.473016 
L 390.179138 161.44315 
L 390.034349 161.246316 
L 389.888046 161.033302 
L 389.673871 160.709934 
L 389.441223 160.338955 
L 387.157854 156.611142 
L 385.528642 153.931787 
L 385.127015 153.250333 
L 384.909686 152.889385 
L 384.750913 152.616484 
L 384.706717 152.539792 
L 384.568176 152.300707 
L 384.274431 151.787181 
L 384.253611 151.75115 
L 383.965304 151.237452 
L 383.75011 150.848918 
L 383.532609 150.4464 
L 383.344424 150.093016 
L 383.148395 149.694317 
L 382.037734 147.188597 
L 381.285085 145.412117 
L 381.100791 144.97642 
L 379.649771 141.717327 
L 378.461072 139.139074 
L 378.256232 138.720673 
L 378.20477 138.583592 
L 377.179123 136.362982 
L 375.199033 132.691311 
L 374.658147 132.030466 
L 374.34373 131.698027 
L 374.210766 131.470631 
L 373.956984 130.996859 
L 373.563755 130.319299 
L 373.192212 129.692352 
L 372.917014 129.237893 
L 372.499305 128.56965 
L 370.695224 125.67969 
L 370.254151 125.328738 
L 369.074037 123.448929 
L 367.189638 120.436776 
L 366.23698 118.904313 
L 363.183012 114.025669 
L 362.206746 112.532252 
L 360.034577 109.418309 
L 360.055519 109.310172 
L 358.372352 106.876991 
L 357.117495 105.101274 
L 356.568638 104.295332 
L 359.268423 102.907087 
L 358.997489 102.520996 
L 359.034707 102.502092 
L 358.942114 102.377551 
L 357.500146 100.437939 
L 357.331762 100.192856 
L 357.287432 100.120935 
L 357.250218 100.04501 
L 357.220596 99.965762 
L 357.198816 99.884031 
L 357.185046 99.800582 
L 357.179461 99.716254 
L 357.18215 99.631663 
L 357.192983 99.547808 
L 357.218888 99.459154 
L 357.250896 99.372514 
L 357.288786 99.288353 
L 357.332492 99.207057 
L 357.381713 99.12894 
L 357.438407 99.05242 
L 357.500411 98.980161 
L 357.567351 98.912554 
L 357.639003 98.849912 
L 357.714914 98.792553 
L 357.794785 98.74079 
L 357.907325 98.702887 
L 357.868517 98.512267 
L 357.650012 97.95256 
L 357.598103 97.809882 
L 356.803697 97.988828 
L 356.533806 98.049437 
L 356.509804 98.052672 
L 356.503362 98.052163 
L 356.48561 98.050762 
L 356.462375 98.043835 
L 356.441102 98.032099 
L 356.074583 97.786288 
L 356.054594 97.770297 
L 356.037374 97.751323 
L 356.023396 97.729892 
L 356.012899 97.706462 
L 355.935414 97.490592 
L 355.868897 97.305443 
L 355.792474 97.095851 
L 355.713543 96.887238 
L 355.632255 96.679523 
L 355.593633 96.588799 
L 355.55333 96.505107 
L 355.509313 96.423342 
L 355.461738 96.34358 
L 355.404587 96.252243 
L 355.248959 96.003525 
L 355.200208 95.929399 
L 355.148058 95.857579 
L 355.09267 95.788292 
L 355.034196 95.72161 
L 354.648293 95.31033 
L 354.460258 95.115336 
L 354.030561 94.771292 
L 352.68663 93.972637 
L 351.673043 93.372816 
L 348.595012 91.570452 
L 343.980232 88.847612 
L 341.883678 87.617091 
L 341.80481 87.570932 
L 341.415909 87.343242 
L 341.447904 87.290029 
L 341.039482 87.094213 
L 340.903366 87.032296 
L 340.764627 86.976433 
L 340.623648 86.926615 
L 340.480585 86.882992 
L 340.335824 86.845632 
L 340.189595 86.81453 
L 340.042132 86.789912 
L 339.934022 86.77631 
L 339.825405 86.767407 
L 339.71651 86.763197 
L 339.607492 86.763679 
L 338.961137 86.824564 
L 338.778062 86.85255 
L 338.596395 86.888496 
L 338.416437 86.932242 
L 338.238572 86.983779 
L 338.063029 87.043024 
L 337.851355 87.138671 
L 337.641536 87.238426 
L 337.433722 87.342054 
L 337.22784 87.449712 
L 337.024039 87.561241 
L 336.884125 87.653258 
L 335.807606 88.565785 
L 335.698914 88.651713 
L 335.584369 88.729782 
L 335.464651 88.799439 
L 335.340292 88.860518 
L 335.21197 88.912543 
L 335.080219 88.955347 
L 334.945877 88.988682 
L 334.809402 89.012459 
L 334.671708 89.026427 
L 334.533257 89.030654 
L 334.394964 89.024964 
L 334.257293 89.0095 
L 334.121165 88.984318 
L 334.064659 88.97085 
L 333.952992 88.938964 
L 333.770638 88.876872 
L 333.590957 88.807573 
L 333.414105 88.73114 
L 333.240469 88.647718 
L 333.07028 88.557455 
L 332.9167 88.472654 
L 332.13343 88.033555 
L 331.291293 87.561524 
L 331.070337 87.440372 
L 331.047609 87.411842 
L 331.027754 87.381555 
L 331.011731 87.351182 
L 330.995621 87.316968 
L 330.979511 87.282754 
L 330.971064 87.248365 
L 330.962618 87.213977 
L 330.954171 87.179588 
L 330.949469 87.141272 
L 330.944854 87.106796 
L 330.947816 87.068306 
L 330.950864 87.033656 
L 330.953825 86.995165 
L 330.960705 86.960428 
L 330.967585 86.92569 
L 330.970634 86.89104 
L 330.973682 86.85639 
L 330.972899 86.821827 
L 330.968284 86.787351 
L 330.959837 86.752963 
L 330.95139 86.718574 
L 330.939199 86.688113 
L 330.930753 86.653725 
L 330.914643 86.619511 
L 330.869011 86.635919 
L 330.836704 86.56365 
L 330.563003 86.327816 
L 330.020301 86.063525 
L 323.955782 83.373711 
L 323.638272 83.234937 
L 322.867573 82.891321 
L 319.445307 81.424711 
L 318.667024 81.085118 
L 316.382417 80.084417 
L 315.542123 79.715507 
L 314.697997 79.346686 
L 312.15385 78.228976 
L 311.693073 78.028162 
L 311.75516 77.892265 
L 307.565562 76.066724 
L 307.61459 76.031024 
L 307.57052 75.9475 
L 307.418296 75.997082 
L 307.201448 75.902132 
L 307.284874 75.861805 
L 307.228873 75.759341 
L 307.046518 75.832665 
L 307.000013 75.810673 
L 306.647219 75.638139 
L 306.294687 75.477126 
L 305.942066 75.312272 
L 305.585789 75.155188 
L 305.229685 75.005784 
L 304.865918 74.856556 
L 304.50607 74.71108 
L 304.142477 74.569533 
L 303.778971 74.431827 
L 303.408063 74.305817 
L 303.040899 74.17588 
L 302.673822 74.049783 
L 302.299256 73.931542 
L 301.92861 73.817054 
L 301.557962 73.702567 
L 301.179913 73.599776 
L 300.805696 73.496898 
L 300.427821 73.401789 
L 300.049947 73.30668 
L 299.672159 73.215412 
L 299.290714 73.131912 
L 298.909356 73.052253 
L 298.527998 72.972594 
L 298.14699 72.908297 
L 297.762062 72.840248 
L 297.377221 72.776039 
L 296.992468 72.715671 
L 296.604058 72.663072 
L 296.265635 72.617015 
L 295.923643 72.582567 
L 295.577819 72.548207 
L 295.236002 72.52144 
L 294.89044 72.498602 
L 294.548885 72.483356 
L 294.203498 72.468199 
L 293.862118 72.460635 
L 293.516993 72.456999 
L 293.172043 72.461044 
L 292.827093 72.46509 
L 292.482493 72.484497 
L 292.137805 72.500064 
L 291.797124 72.523225 
L 291.199975 72.563778 
L 290.171056 72.668001 
L 289.727354 72.712731 
L 289.402263 72.747064 
L 289.073603 72.793006 
L 288.748687 72.83502 
L 288.420202 72.888643 
L 288.095636 72.946019 
L 287.77499 73.007148 
L 287.092248 73.161093 
L 286.905365 73.203793 
L 286.718481 73.246492 
L 286.22663 73.365333 
L 285.921836 73.449154 
L 285.616955 73.529136 
L 285.308418 73.616886 
L 285.0038 73.708389 
L 282.593002 74.578146 
L 280.372578 75.389766 
L 273.332111 77.83724 
L 272.324411 78.198461 
L 272.240726 78.227275 
L 271.905987 78.342533 
L 271.567241 78.450199 
L 271.23224 78.553936 
L 270.889575 78.65785 
L 270.550566 78.753995 
L 270.203719 78.842636 
L 269.868368 78.931014 
L 269.529097 79.015639 
L 269.185907 79.096513 
L 268.846461 79.173458 
L 268.499352 79.25058 
L 268.159731 79.319845 
L 267.816191 79.385359 
L 267.472476 79.443192 
L 267.075291 79.509936 
L 266.681764 79.568912 
L 266.284229 79.620296 
L 265.890527 79.671593 
L 265.492817 79.715297 
L 265.095019 79.755162 
L 264.697134 79.791186 
L 264.299074 79.81953 
L 260.640494 79.8228 
L 259.943521 79.800376 
L 259.597964 79.777569 
L 259.248576 79.754852 
L 258.902755 79.720525 
L 258.560679 79.682271 
L 258.214683 79.640265 
L 257.240342 79.447467 
L 257.155605 79.430201 
L 253.273909 78.674045 
L 252.337704 78.472699 
L 252.245216 78.45177 
L 248.842819 77.700018 
L 247.76814 77.478812 
L 246.6958 77.254278 
L 246.693372 77.253769 
L 245.903382 77.075974 
L 245.668327 77.023744 
L 235.193283 74.628915 
L 222.787017 71.783236 
L 222.455456 71.702507 
L 222.123983 71.625618 
L 221.796342 71.548641 
L 221.468524 71.463984 
L 221.140882 71.387008 
L 220.812976 71.298511 
L 220.48899 71.213767 
L 220.161171 71.129111 
L 219.837008 71.036686 
L 219.50919 70.952031 
L 218.813823 70.72216 
L 217.960382 70.453671 
L 217.867625 70.42123 
L 217.060076 70.147843 
L 216.669447 69.999319 
L 213.360822 68.496472 
L 213.27956 68.463767 
L 204.468496 64.425303 
L 204.387055 64.384919 
L 195.399182 60.335383 
L 194.829792 60.083431 
L 194.33642 59.802826 
L 194.255242 59.773965 
L 194.174154 59.748945 
L 194.093153 59.727764 
L 194.008409 59.710513 
L 193.927674 59.700853 
L 193.843284 59.698963 
L 193.566856 59.682303 
L 193.293907 59.650194 
L 193.024524 59.606476 
L 192.753618 59.544276 
L 192.750867 59.543645 
L 189.271513 58.214076 
L 188.938722 58.160245 
L 188.834818 58.143439 
L 188.746418 58.133958 
L 186.160194 57.874912 
L 185.802852 57.840919 
L 185.445599 57.810768 
L 185.084513 57.780705 
L 184.723605 57.758323 
L 184.362697 57.735942 
L 184.001877 57.717401 
L 183.694881 57.705299 
L 183.387885 57.693197 
L 183.081066 57.688776 
L 182.774159 57.680515 
L 182.46734 57.676094 
L 182.156866 57.679443 
L 181.807896 57.675999 
L 181.459192 57.684077 
L 181.110665 57.699835 
L 180.762138 57.715593 
L 180.413788 57.739033 
L 180.065615 57.770153 
L 179.732682 57.797078 
L 179.403669 57.827755 
L 179.074833 57.866113 
L 178.745998 57.904471 
L 175.270236 58.307781 
L 175.159288 58.318038 
L 174.341033 58.413853 
L 174.336936 58.402421 
L 174.332838 58.390989 
L 174.324908 58.379646 
L 174.317067 58.372143 
L 174.312969 58.360711 
L 174.301296 58.353297 
L 174.297198 58.341865 
L 174.289357 58.334363 
L 174.277684 58.326949 
L 174.269932 58.323286 
L 174.258259 58.315872 
L 174.246674 58.312298 
L 174.23509 58.308724 
L 174.223417 58.30131 
L 174.211833 58.297737 
L 174.196416 58.294252 
L 173.821776 58.341361 
L 170.114141 58.830784 
L 166.358759 59.244505 
L 165.114903 59.33869 
L 164.765934 59.335262 
L 164.420709 59.327905 
L 164.075306 59.312868 
L 163.725894 59.29024 
L 163.380314 59.267523 
L 163.038388 59.237037 
L 162.692453 59.19896 
L 162.346428 59.157042 
L 162.027227 59.114503 
L 161.711503 59.056513 
L 161.391858 58.994773 
L 161.075689 58.917583 
L 160.767096 58.836374 
L 160.458147 58.739805 
L 160.400225 58.721939 
L 160.311203 58.685583 
L 160.00582 58.577404 
L 159.70409 58.461457 
L 159.402272 58.341669 
L 159.104197 58.217952 
L 158.809864 58.090307 
L 158.515443 57.958821 
L 156.512422 56.891073 
L 156.512026 56.890862 
L 156.379113 58.911545 
L 156.235614 61.098088 
L 156.215496 61.405173 
L 156.200458 61.633526 
L 156.136911 62.602347 
L 156.130989 62.691088 
L 156.120731 62.844328 
L 155.920399 65.842231 
L 155.627343 70.400429 
L 155.705694 70.631915 
L 155.735901 70.721277 
L 155.876396 71.136673 
L 158.229381 73.955689 
L 158.296963 74.036576 
L 159.313948 75.255026 
L 159.409605 75.369612 
L 159.864466 75.914418 
L 160.348058 76.491525 
L 160.652371 76.855858 
L 160.981202 77.249285 
L 161.034671 77.31344 
L 161.16731 77.472276 
L 161.193331 77.503332 
L 161.696995 78.10641 
L 161.945635 78.404181 
L 162.136863 78.633124 
L 162.690363 79.295909 
L 162.733578 79.3477 
L 162.821659 79.453086 
L 162.838773 79.473668 
L 163.174635 79.876232 
L 164.683316 81.682686 
L 165.01757 82.082215 
L 165.32411 82.450419 
L 165.472512 82.627948 
L 165.981042 83.236452 
L 165.72418 83.385655 
L 165.464924 83.530764 
L 165.203506 83.67185 
L 164.93992 83.80876 
L 164.674247 83.94157 
L 164.406483 84.070201 
L 164.136783 84.194651 
L 163.865145 84.314843 
L 163.591645 84.430775 
L 163.316436 84.542443 
L 163.040128 84.64968 
L 162.762112 84.752653 
L 162.482614 84.851204 
L 162.201558 84.945411 
L 161.919097 85.035193 
L 161.634921 85.120405 
L 161.349492 85.201189 
L 161.06281 85.277546 
L 160.774951 85.349396 
L 160.486068 85.416736 
L 159.556293 85.634286 
L 154.206599 86.886056 
L 154.223809 86.960504 
L 154.231798 87.010884 
L 154.231674 87.061836 
L 154.223561 87.112205 
L 154.207583 87.160606 
L 154.184171 87.205874 
L 154.153913 87.246845 
L 154.117551 87.282502 
L 154.075985 87.311901 
L 154.030348 87.334402 
L 153.9817 87.349364 
L 153.262772 87.516691 
L 152.931284 87.59494 
L 151.681591 87.886649 
L 150.388737 88.188509 
L 150.058763 88.26588 
L 149.447849 88.409033 
L 149.341392 88.434024 
L 149.290251 88.440669 
L 149.238696 88.439332 
L 149.187958 88.430214 
L 149.139265 88.413441 
L 149.093626 88.38945 
L 149.052124 88.358678 
L 149.015853 88.32202 
L 148.985596 88.280227 
L 148.961991 88.234284 
L 148.945674 88.185251 
L 148.93162 88.124638 
L 148.912109 88.040254 
L 148.818002 88.062191 
L 128.460976 92.820677 
L 119.205007 94.985119 
L 112.670367 96.513196 
L 73.832727 105.596995 
L 74.849532 109.965939 
L 75.858208 114.296423 
L 76.65488 117.717097 
L 78.397732 125.198229 
L 79.740787 130.960533 
L 80.986885 133.833062 
L 81.649786 134.736538 
L 81.704016 134.988388 
L 81.712547 135.028008 
L 81.766181 135.276503 
L 81.827646 135.561701 
L 81.925485 136.016032 
L 81.990217 136.316369 
L 82.084009 136.751737 
L 82.148741 137.052074 
L 82.207196 137.32328 
L 82.25113 137.527355 
L 82.242115 137.568141 
L 82.495489 137.502494 
L 83.749121 137.175264 
L 83.987944 137.113495 
L 84.062175 137.4465 
L 84.140594 137.505372 
L 85.787663 137.1551 
L 86.496179 137.003563 
L 87.291576 136.836467 
L 92.211738 135.805881 
L 95.848728 135.00902 
L 103.05718 133.483334 
L 103.852568 133.671152 
L 105.56035 133.269752 
L 103.152503 136.058238 
L 104.470501 140.379107 
L 103.949911 141.009661 
L 103.638545 141.386956 
L 103.38325 141.696314 
L 102.759182 142.452627 
L 102.593211 142.587838 
L 102.286625 142.83761 
L 101.537501 143.44792 
L 100.8771 143.647332 
L 100.961791 143.916621 
L 101.164658 144.559926 
L 101.487874 145.585035 
L 101.57155 145.850275 
L 99.20533 146.578706 
L 97.467605 147.113627 
L 97.012282 147.253842 
L 94.455866 148.040775 
L 94.136789 148.138921 
L 90.721666 149.190655 
L 89.997656 149.413323 
L 89.731482 149.495248 
L 88.0923 150.152168 
L 87.139712 150.53358 
L 86.4983 150.790439 
L 85.572067 150.993414 
L 84.907817 151.138614 
L 83.927041 151.353092 
L 83.996591 151.67614 
L 84.208672 152.660322 
L 84.393295 153.517087 
L 84.526708 154.136344 
L 84.573642 154.354181 
L 87.780152 169.226319 
L 91.017567 184.241927 
L 91.907273 188.368754 
L 92.059201 189.073187 
L 92.067963 189.113711 
L 92.19888 189.720426 
L 92.305033 190.212374 
L 92.313542 190.251905 
L 92.469327 190.973923 
L 94.201664 199.013517 
L 94.254793 199.257569 
L 97.016019 212.066276 
L 100.878281 229.983995 
L 101.058274 230.81903 
L 101.117466 230.869441 
L 101.332113 231.052543 
L 101.533152 231.223975 
L 101.6671 231.338188 
L 107.036142 235.917175 
L 107.273088 235.618928 
L 107.322603 235.556448 
L 109.60238 232.684825 
L 109.699861 232.562359 
L 111.985106 229.706838 
L 112.132948 229.521873 
L 112.023605 225.613614 
L 111.981027 224.064608 
L 111.953903 223.088441 
L 111.928804 222.95493 
L 111.787792 222.586131 
L 111.745707 222.222936 
L 111.732976 222.117031 
L 111.685609 221.605723 
L 111.660699 221.338494 
L 111.757853 220.75972 
L 112.009931 218.974444 
L 112.015047 218.907622 
L 112.368999 216.406752 
L 112.646421 214.448518 
L 112.671216 214.324754 
L 112.729727 214.035673 
L 112.984826 212.772655 
L 113.441903 211.447364 
L 114.180438 209.835087 
L 115.103705 208.242707 
L 115.531725 207.642608 
L 115.859253 207.184179 
L 116.146297 206.781256 
L 117.328977 205.463547 
L 117.739474 205.072422 
L 118.539878 204.307868 
L 119.861634 203.281475 
L 121.2628 202.363817 
L 122.745644 201.550231 
L 123.778761 201.10878 
L 123.821578 201.090952 
L 124.253664 200.906356 
L 125.616107 200.426645 
L 127.211743 200.020501 
L 128.837727 199.736305 
L 130.94483 199.434755 
L 133.118924 199.209042 
L 135.394865 198.988961 
L 136.794472 198.977651 
L 138.302662 199.074248 
L 139.848831 199.308137 
L 141.443975 199.690897 
L 143.111178 200.276092 
L 144.795563 200.934899 
L 145.464123 201.237029 
L 145.986968 201.505971 
L 147.097113 202.086622 
L 148.636059 202.966535 
L 150.654929 204.298374 
L 151.872616 205.115148 
L 152.24382 205.403147 
L 153.030232 206.045825 
L 154.037358 206.892629 
L 154.388755 207.209217 
L 154.467183 207.279553 
L 155.80852 208.724454 
L 157.147445 210.171568 
L 158.484111 211.62089 
L 159.032793 212.216156 
L 159.857749 213.10832 
L 161.042029 214.392205 
L 161.301891 214.678726 
L 161.556949 214.969662 
L 161.807045 215.264786 
L 162.052178 215.564099 
L 162.292194 215.867526 
L 162.527166 216.174913 
L 162.590746 216.259582 
L 162.65395 216.344567 
L 162.716701 216.42987 
L 162.99483 216.810489 
L 163.309894 217.24389 
L 163.334335 217.226878 
L 163.363423 217.211986 
L 163.395204 217.204178 
L 163.427849 217.203881 
L 163.459747 217.211056 
L 163.489128 217.225436 
L 163.514439 217.246135 
L 163.619931 217.406524 
L 163.805259 217.688475 
L 164.13904 218.196161 
L 164.438053 218.650968 
L 164.646733 218.968342 
L 164.751749 219.128128 
L 164.760781 219.160808 
L 164.76187 219.194673 
L 164.754894 219.227802 
L 164.740346 219.25834 
L 164.718955 219.28458 
L 164.691988 219.305033 
L 164.669835 219.318227 
L 164.687012 219.394905 
L 165.17459 220.239352 
L 165.613329 221.103146 
L 165.901362 221.693944 
L 165.962275 221.819174 
L 166.229033 222.408084 
L 166.296163 222.560296 
L 166.609381 223.299208 
L 166.763853 223.752093 
L 166.992428 224.400293 
L 167.154719 224.916317 
L 167.322642 225.516974 
L 167.476434 226.156305 
L 167.479946 226.172284 
L 167.602391 226.778453 
L 167.755689 227.369843 
L 167.850445 227.663043 
L 167.991516 228.641179 
L 168.05189 228.978903 
L 168.137251 230.372612 
L 168.156581 231.153618 
L 168.139129 231.954843 
L 168.071546 233.018125 
L 167.980377 233.959385 
L 167.833387 235.102126 
L 167.507207 236.819304 
L 167.325928 237.631939 
L 167.267889 237.89664 
L 167.206379 238.177021 
L 167.062497 238.763627 
L 166.863941 239.471843 
L 166.710396 240.134522 
L 166.648734 240.418211 
L 166.576893 240.828703 
L 166.36542 242.116029 
L 166.234084 242.787875 
L 166.198089 242.971606 
L 166.186026 243.030059 
L 166.110448 243.451242 
L 166.00423 244.082314 
L 165.970659 244.291348 
L 165.91062 244.794705 
L 165.83664 245.417882 
L 165.790001 246.0103 
L 165.773641 246.689313 
L 165.780639 247.274569 
L 165.803035 247.686947 
L 165.830125 247.944139 
L 165.839044 248.051595 
L 165.885651 248.589823 
L 166.011662 249.616261 
L 166.09595 250.176592 
L 166.186388 250.571791 
L 166.287612 250.956135 
L 166.320876 251.045888 
L 166.574874 251.899678 
L 166.661209 252.223427 
L 166.71324 252.379141 
L 166.947812 252.985781 
L 167.190372 253.662935 
L 167.212086 253.730441 
L 167.700723 254.84214 
L 168.580922 256.53901 
L 169.375614 257.742357 
L 169.857655 258.359472 
L 170.398173 259.033174 
L 170.991556 259.719636 
L 171.141567 259.880378 
L 172.090864 260.869585 
L 172.34844 261.111979 
L 172.601466 261.349792 
L 172.852901 261.58841 
L 173.248936 261.969299 
L 173.52353 262.238504 
L 173.632679 262.345556 
L 174.077858 262.753893 
L 174.265455 262.912919 
L 174.591308 263.185009 
L 174.854893 263.388996 
L 174.987849 263.488273 
L 175.10541 263.584603 
L 175.160725 263.620437 
L 175.589268 263.89906 
L 176.013128 264.160733 
L 176.517533 264.439059 
L 177.715752 265.063942 
L 178.471868 265.460236 
L 179.547307 266.021883 
L 180.066088 266.262456 
L 180.585493 266.466974 
L 181.560462 266.809405 
L 181.996191 266.971216 
L 182.355703 267.217788 
L 183.864537 267.381407 
L 183.878602 267.359871 
L 183.897513 267.34245 
L 183.920146 267.330245 
L 183.945064 267.324058 
L 183.968399 267.322365 
L 184.583707 267.368668 
L 185.196978 267.409718 
L 186.421852 267.482636 
L 186.610115 267.491187 
L 186.796273 267.498172 
L 186.979526 267.502152 
L 187.195069 267.507305 
L 187.407739 267.507452 
L 187.620292 267.502531 
L 187.832733 267.492771 
L 188.04483 267.478024 
L 188.344257 267.455108 
L 188.643061 267.425059 
L 188.941012 267.387961 
L 189.23811 267.343736 
L 189.533973 267.29247 
L 189.828601 267.234162 
L 190.473752 267.095429 
L 191.11753 266.950274 
L 191.759857 266.798698 
L 192.40066 266.640781 
" clip-path="url(#p7b65dab99f)" style="fill: #1f77b4"/>
   </g>
   <g id="matplotlib.axis_1">
    <g id="xtick_1">
     <g id="line2d_1">
      <defs>
       <path id="m687505aae2" d="M 0 0 
L 0 3.5 
" style="stroke: #000000; stroke-width: 0.8"/>
      </defs>
      <g>
       <use xlink:href="#m687505aae2" x="66.485965" y="303.928851" style="stroke: #000000; stroke-width: 0.8"/>
      </g>
     </g>
     <g id="text_1">
      <!-- 13.31 -->
      <g transform="translate(52.171903 318.527289) scale(0.1 -0.1)">
       <defs>
        <path id="DejaVuSans-31" d="M 794 531 
L 1825 531 
L 1825 4091 
L 703 3866 
L 703 4441 
L 1819 4666 
L 2450 4666 
L 2450 531 
L 3481 531 
L 3481 0 
L 794 0 
L 794 531 
z
" transform="scale(0.015625)"/>
        <path id="DejaVuSans-33" d="M 2597 2516 
Q 3050 2419 3304 2112 
Q 3559 1806 3559 1356 
Q 3559 666 3084 287 
Q 2609 -91 1734 -91 
Q 1441 -91 1130 -33 
Q 819 25 488 141 
L 488 750 
Q 750 597 1062 519 
Q 1375 441 1716 441 
Q 2309 441 2620 675 
Q 2931 909 2931 1356 
Q 2931 1769 2642 2001 
Q 2353 2234 1838 2234 
L 1294 2234 
L 1294 2753 
L 1863 2753 
Q 2328 2753 2575 2939 
Q 2822 3125 2822 3475 
Q 2822 3834 2567 4026 
Q 2313 4219 1838 4219 
Q 1578 4219 1281 4162 
Q 984 4106 628 3988 
L 628 4550 
Q 988 4650 1302 4700 
Q 1616 4750 1894 4750 
Q 2613 4750 3031 4423 
Q 3450 4097 3450 3541 
Q 3450 3153 3228 2886 
Q 3006 2619 2597 2516 
z
" transform="scale(0.015625)"/>
        <path id="DejaVuSans-2e" d="M 684 794 
L 1344 794 
L 1344 0 
L 684 0 
L 684 794 
z
" transform="scale(0.015625)"/>
       </defs>
       <use xlink:href="#DejaVuSans-31"/>
       <use xlink:href="#DejaVuSans-33" x="63.623047"/>
       <use xlink:href="#DejaVuSans-2e" x="127.246094"/>
       <use xlink:href="#DejaVuSans-33" x="159.033203"/>
       <use xlink:href="#DejaVuSans-31" x="222.65625"/>
      </g>
     </g>
    </g>
    <g id="xtick_2">
     <g id="line2d_2">
      <g>
       <use xlink:href="#m687505aae2" x="118.483773" y="303.928851" style="stroke: #000000; stroke-width: 0.8"/>
      </g>
     </g>
     <g id="text_2">
      <!-- 13.32 -->
      <g transform="translate(104.16971 318.527289) scale(0.1 -0.1)">
       <defs>
        <path id="DejaVuSans-32" d="M 1228 531 
L 3431 531 
L 3431 0 
L 469 0 
L 469 531 
Q 828 903 1448 1529 
Q 2069 2156 2228 2338 
Q 2531 2678 2651 2914 
Q 2772 3150 2772 3378 
Q 2772 3750 2511 3984 
Q 2250 4219 1831 4219 
Q 1534 4219 1204 4116 
Q 875 4013 500 3803 
L 500 4441 
Q 881 4594 1212 4672 
Q 1544 4750 1819 4750 
Q 2544 4750 2975 4387 
Q 3406 4025 3406 3419 
Q 3406 3131 3298 2873 
Q 3191 2616 2906 2266 
Q 2828 2175 2409 1742 
Q 1991 1309 1228 531 
z
" transform="scale(0.015625)"/>
       </defs>
       <use xlink:href="#DejaVuSans-31"/>
       <use xlink:href="#DejaVuSans-33" x="63.623047"/>
       <use xlink:href="#DejaVuSans-2e" x="127.246094"/>
       <use xlink:href="#DejaVuSans-33" x="159.033203"/>
       <use xlink:href="#DejaVuSans-32" x="222.65625"/>
      </g>
     </g>
    </g>
    <g id="xtick_3">
     <g id="line2d_3">
      <g>
       <use xlink:href="#m687505aae2" x="170.48158" y="303.928851" style="stroke: #000000; stroke-width: 0.8"/>
      </g>
     </g>
     <g id="text_3">
      <!-- 13.33 -->
      <g transform="translate(156.167518 318.527289) scale(0.1 -0.1)">
       <use xlink:href="#DejaVuSans-31"/>
       <use xlink:href="#DejaVuSans-33" x="63.623047"/>
       <use xlink:href="#DejaVuSans-2e" x="127.246094"/>
       <use xlink:href="#DejaVuSans-33" x="159.033203"/>
       <use xlink:href="#DejaVuSans-33" x="222.65625"/>
      </g>
     </g>
    </g>
    <g id="xtick_4">
     <g id="line2d_4">
      <g>
       <use xlink:href="#m687505aae2" x="222.479388" y="303.928851" style="stroke: #000000; stroke-width: 0.8"/>
      </g>
     </g>
     <g id="text_4">
      <!-- 13.34 -->
      <g transform="translate(208.165325 318.527289) scale(0.1 -0.1)">
       <defs>
        <path id="DejaVuSans-34" d="M 2419 4116 
L 825 1625 
L 2419 1625 
L 2419 4116 
z
M 2253 4666 
L 3047 4666 
L 3047 1625 
L 3713 1625 
L 3713 1100 
L 3047 1100 
L 3047 0 
L 2419 0 
L 2419 1100 
L 313 1100 
L 313 1709 
L 2253 4666 
z
" transform="scale(0.015625)"/>
       </defs>
       <use xlink:href="#DejaVuSans-31"/>
       <use xlink:href="#DejaVuSans-33" x="63.623047"/>
       <use xlink:href="#DejaVuSans-2e" x="127.246094"/>
       <use xlink:href="#DejaVuSans-33" x="159.033203"/>
       <use xlink:href="#DejaVuSans-34" x="222.65625"/>
      </g>
     </g>
    </g>
    <g id="xtick_5">
     <g id="line2d_5">
      <g>
       <use xlink:href="#m687505aae2" x="274.477195" y="303.928851" style="stroke: #000000; stroke-width: 0.8"/>
      </g>
     </g>
     <g id="text_5">
      <!-- 13.35 -->
      <g transform="translate(260.163133 318.527289) scale(0.1 -0.1)">
       <defs>
        <path id="DejaVuSans-35" d="M 691 4666 
L 3169 4666 
L 3169 4134 
L 1269 4134 
L 1269 2991 
Q 1406 3038 1543 3061 
Q 1681 3084 1819 3084 
Q 2600 3084 3056 2656 
Q 3513 2228 3513 1497 
Q 3513 744 3044 326 
Q 2575 -91 1722 -91 
Q 1428 -91 1123 -41 
Q 819 9 494 109 
L 494 744 
Q 775 591 1075 516 
Q 1375 441 1709 441 
Q 2250 441 2565 725 
Q 2881 1009 2881 1497 
Q 2881 1984 2565 2268 
Q 2250 2553 1709 2553 
Q 1456 2553 1204 2497 
Q 953 2441 691 2322 
L 691 4666 
z
" transform="scale(0.015625)"/>
       </defs>
       <use xlink:href="#DejaVuSans-31"/>
       <use xlink:href="#DejaVuSans-33" x="63.623047"/>
       <use xlink:href="#DejaVuSans-2e" x="127.246094"/>
       <use xlink:href="#DejaVuSans-33" x="159.033203"/>
       <use xlink:href="#DejaVuSans-35" x="222.65625"/>
      </g>
     </g>
    </g>
    <g id="xtick_6">
     <g id="line2d_6">
      <g>
       <use xlink:href="#m687505aae2" x="326.475003" y="303.928851" style="stroke: #000000; stroke-width: 0.8"/>
      </g>
     </g>
     <g id="text_6">
      <!-- 13.36 -->
      <g transform="translate(312.16094 318.527289) scale(0.1 -0.1)">
       <defs>
        <path id="DejaVuSans-36" d="M 2113 2584 
Q 1688 2584 1439 2293 
Q 1191 2003 1191 1497 
Q 1191 994 1439 701 
Q 1688 409 2113 409 
Q 2538 409 2786 701 
Q 3034 994 3034 1497 
Q 3034 2003 2786 2293 
Q 2538 2584 2113 2584 
z
M 3366 4563 
L 3366 3988 
Q 3128 4100 2886 4159 
Q 2644 4219 2406 4219 
Q 1781 4219 1451 3797 
Q 1122 3375 1075 2522 
Q 1259 2794 1537 2939 
Q 1816 3084 2150 3084 
Q 2853 3084 3261 2657 
Q 3669 2231 3669 1497 
Q 3669 778 3244 343 
Q 2819 -91 2113 -91 
Q 1303 -91 875 529 
Q 447 1150 447 2328 
Q 447 3434 972 4092 
Q 1497 4750 2381 4750 
Q 2619 4750 2861 4703 
Q 3103 4656 3366 4563 
z
" transform="scale(0.015625)"/>
       </defs>
       <use xlink:href="#DejaVuSans-31"/>
       <use xlink:href="#DejaVuSans-33" x="63.623047"/>
       <use xlink:href="#DejaVuSans-2e" x="127.246094"/>
       <use xlink:href="#DejaVuSans-33" x="159.033203"/>
       <use xlink:href="#DejaVuSans-36" x="222.65625"/>
      </g>
     </g>
    </g>
    <g id="xtick_7">
     <g id="line2d_7">
      <g>
       <use xlink:href="#m687505aae2" x="378.47281" y="303.928851" style="stroke: #000000; stroke-width: 0.8"/>
      </g>
     </g>
     <g id="text_7">
      <!-- 13.37 -->
      <g transform="translate(364.158748 318.527289) scale(0.1 -0.1)">
       <defs>
        <path id="DejaVuSans-37" d="M 525 4666 
L 3525 4666 
L 3525 4397 
L 1831 0 
L 1172 0 
L 2766 4134 
L 525 4134 
L 525 4666 
z
" transform="scale(0.015625)"/>
       </defs>
       <use xlink:href="#DejaVuSans-31"/>
       <use xlink:href="#DejaVuSans-33" x="63.623047"/>
       <use xlink:href="#DejaVuSans-2e" x="127.246094"/>
       <use xlink:href="#DejaVuSans-33" x="159.033203"/>
       <use xlink:href="#DejaVuSans-37" x="222.65625"/>
      </g>
     </g>
    </g>
   </g>
   <g id="matplotlib.axis_2">
    <g id="ytick_1">
     <g id="line2d_8">
      <defs>
       <path id="mfcdd6b3015" d="M 0 0 
L -3.5 0 
" style="stroke: #000000; stroke-width: 0.8"/>
      </defs>
      <g>
       <use xlink:href="#mfcdd6b3015" x="57.6" y="281.78588" style="stroke: #000000; stroke-width: 0.8"/>
      </g>
     </g>
     <g id="text_8">
      <!-- 52.515 -->
      <g transform="translate(15.609375 285.585098) scale(0.1 -0.1)">
       <use xlink:href="#DejaVuSans-35"/>
       <use xlink:href="#DejaVuSans-32" x="63.623047"/>
       <use xlink:href="#DejaVuSans-2e" x="127.246094"/>
       <use xlink:href="#DejaVuSans-35" x="159.033203"/>
       <use xlink:href="#DejaVuSans-31" x="222.65625"/>
       <use xlink:href="#DejaVuSans-35" x="286.279297"/>
      </g>
     </g>
    </g>
    <g id="ytick_2">
     <g id="line2d_9">
      <g>
       <use xlink:href="#mfcdd6b3015" x="57.6" y="239.051226" style="stroke: #000000; stroke-width: 0.8"/>
      </g>
     </g>
     <g id="text_9">
      <!-- 52.520 -->
      <g transform="translate(15.609375 242.850445) scale(0.1 -0.1)">
       <defs>
        <path id="DejaVuSans-30" d="M 2034 4250 
Q 1547 4250 1301 3770 
Q 1056 3291 1056 2328 
Q 1056 1369 1301 889 
Q 1547 409 2034 409 
Q 2525 409 2770 889 
Q 3016 1369 3016 2328 
Q 3016 3291 2770 3770 
Q 2525 4250 2034 4250 
z
M 2034 4750 
Q 2819 4750 3233 4129 
Q 3647 3509 3647 2328 
Q 3647 1150 3233 529 
Q 2819 -91 2034 -91 
Q 1250 -91 836 529 
Q 422 1150 422 2328 
Q 422 3509 836 4129 
Q 1250 4750 2034 4750 
z
" transform="scale(0.015625)"/>
       </defs>
       <use xlink:href="#DejaVuSans-35"/>
       <use xlink:href="#DejaVuSans-32" x="63.623047"/>
       <use xlink:href="#DejaVuSans-2e" x="127.246094"/>
       <use xlink:href="#DejaVuSans-35" x="159.033203"/>
       <use xlink:href="#DejaVuSans-32" x="222.65625"/>
       <use xlink:href="#DejaVuSans-30" x="286.279297"/>
      </g>
     </g>
    </g>
    <g id="ytick_3">
     <g id="line2d_10">
      <g>
       <use xlink:href="#mfcdd6b3015" x="57.6" y="196.316573" style="stroke: #000000; stroke-width: 0.8"/>
      </g>
     </g>
     <g id="text_10">
      <!-- 52.525 -->
      <g transform="translate(15.609375 200.115792) scale(0.1 -0.1)">
       <use xlink:href="#DejaVuSans-35"/>
       <use xlink:href="#DejaVuSans-32" x="63.623047"/>
       <use xlink:href="#DejaVuSans-2e" x="127.246094"/>
       <use xlink:href="#DejaVuSans-35" x="159.033203"/>
       <use xlink:href="#DejaVuSans-32" x="222.65625"/>
       <use xlink:href="#DejaVuSans-35" x="286.279297"/>
      </g>
     </g>
    </g>
    <g id="ytick_4">
     <g id="line2d_11">
      <g>
       <use xlink:href="#mfcdd6b3015" x="57.6" y="153.58192" style="stroke: #000000; stroke-width: 0.8"/>
      </g>
     </g>
     <g id="text_11">
      <!-- 52.530 -->
      <g transform="translate(15.609375 157.381139) scale(0.1 -0.1)">
       <use xlink:href="#DejaVuSans-35"/>
       <use xlink:href="#DejaVuSans-32" x="63.623047"/>
       <use xlink:href="#DejaVuSans-2e" x="127.246094"/>
       <use xlink:href="#DejaVuSans-35" x="159.033203"/>
       <use xlink:href="#DejaVuSans-33" x="222.65625"/>
       <use xlink:href="#DejaVuSans-30" x="286.279297"/>
      </g>
     </g>
    </g>
    <g id="ytick_5">
     <g id="line2d_12">
      <g>
       <use xlink:href="#mfcdd6b3015" x="57.6" y="110.847267" style="stroke: #000000; stroke-width: 0.8"/>
      </g>
     </g>
     <g id="text_12">
      <!-- 52.535 -->
      <g transform="translate(15.609375 114.646486) scale(0.1 -0.1)">
       <use xlink:href="#DejaVuSans-35"/>
       <use xlink:href="#DejaVuSans-32" x="63.623047"/>
       <use xlink:href="#DejaVuSans-2e" x="127.246094"/>
       <use xlink:href="#DejaVuSans-35" x="159.033203"/>
       <use xlink:href="#DejaVuSans-33" x="222.65625"/>
       <use xlink:href="#DejaVuSans-35" x="286.279297"/>
      </g>
     </g>
    </g>
    <g id="ytick_6">
     <g id="line2d_13">
      <g>
       <use xlink:href="#mfcdd6b3015" x="57.6" y="68.112614" style="stroke: #000000; stroke-width: 0.8"/>
      </g>
     </g>
     <g id="text_13">
      <!-- 52.540 -->
      <g transform="translate(15.609375 71.911832) scale(0.1 -0.1)">
       <use xlink:href="#DejaVuSans-35"/>
       <use xlink:href="#DejaVuSans-32" x="63.623047"/>
       <use xlink:href="#DejaVuSans-2e" x="127.246094"/>
       <use xlink:href="#DejaVuSans-35" x="159.033203"/>
       <use xlink:href="#DejaVuSans-34" x="222.65625"/>
       <use xlink:href="#DejaVuSans-30" x="286.279297"/>
      </g>
     </g>
    </g>
   </g>
   <g id="patch_3">
    <path d="M 57.6 303.928851 
L 57.6 45.127149 
" style="fill: none; stroke: #000000; stroke-width: 0.8; stroke-linejoin: miter; stroke-linecap: square"/>
   </g>
   <g id="patch_4">
    <path d="M 414.72 303.928851 
L 414.72 45.127149 
" style="fill: none; stroke: #000000; stroke-width: 0.8; stroke-linejoin: miter; stroke-linecap: square"/>
   </g>
   <g id="patch_5">
    <path d="M 57.6 303.928851 
L 414.72 303.928851 
" style="fill: none; stroke: #000000; stroke-width: 0.8; stroke-linejoin: miter; stroke-linecap: square"/>
   </g>
   <g id="patch_6">
    <path d="M 57.6 45.127149 
L 414.72 45.127149 
" style="fill: none; stroke: #000000; stroke-width: 0.8; stroke-linejoin: miter; stroke-linecap: square"/>
   </g>
   <g id="text_14">
    <!-- Moabit -->
    <g transform="translate(218.561438 168.687299) scale(0.12 -0.12)">
     <defs>
      <path id="DejaVuSans-4d" d="M 628 4666 
L 1569 4666 
L 2759 1491 
L 3956 4666 
L 4897 4666 
L 4897 0 
L 4281 0 
L 4281 4097 
L 3078 897 
L 2444 897 
L 1241 4097 
L 1241 0 
L 628 0 
L 628 4666 
z
" transform="scale(0.015625)"/>
      <path id="DejaVuSans-6f" d="M 1959 3097 
Q 1497 3097 1228 2736 
Q 959 2375 959 1747 
Q 959 1119 1226 758 
Q 1494 397 1959 397 
Q 2419 397 2687 759 
Q 2956 1122 2956 1747 
Q 2956 2369 2687 2733 
Q 2419 3097 1959 3097 
z
M 1959 3584 
Q 2709 3584 3137 3096 
Q 3566 2609 3566 1747 
Q 3566 888 3137 398 
Q 2709 -91 1959 -91 
Q 1206 -91 779 398 
Q 353 888 353 1747 
Q 353 2609 779 3096 
Q 1206 3584 1959 3584 
z
" transform="scale(0.015625)"/>
      <path id="DejaVuSans-61" d="M 2194 1759 
Q 1497 1759 1228 1600 
Q 959 1441 959 1056 
Q 959 750 1161 570 
Q 1363 391 1709 391 
Q 2188 391 2477 730 
Q 2766 1069 2766 1631 
L 2766 1759 
L 2194 1759 
z
M 3341 1997 
L 3341 0 
L 2766 0 
L 2766 531 
Q 2569 213 2275 61 
Q 1981 -91 1556 -91 
Q 1019 -91 701 211 
Q 384 513 384 1019 
Q 384 1609 779 1909 
Q 1175 2209 1959 2209 
L 2766 2209 
L 2766 2266 
Q 2766 2663 2505 2880 
Q 2244 3097 1772 3097 
Q 1472 3097 1187 3025 
Q 903 2953 641 2809 
L 641 3341 
Q 956 3463 1253 3523 
Q 1550 3584 1831 3584 
Q 2591 3584 2966 3190 
Q 3341 2797 3341 1997 
z
" transform="scale(0.015625)"/>
      <path id="DejaVuSans-62" d="M 3116 1747 
Q 3116 2381 2855 2742 
Q 2594 3103 2138 3103 
Q 1681 3103 1420 2742 
Q 1159 2381 1159 1747 
Q 1159 1113 1420 752 
Q 1681 391 2138 391 
Q 2594 391 2855 752 
Q 3116 1113 3116 1747 
z
M 1159 2969 
Q 1341 3281 1617 3432 
Q 1894 3584 2278 3584 
Q 2916 3584 3314 3078 
Q 3713 2572 3713 1747 
Q 3713 922 3314 415 
Q 2916 -91 2278 -91 
Q 1894 -91 1617 61 
Q 1341 213 1159 525 
L 1159 0 
L 581 0 
L 581 4863 
L 1159 4863 
L 1159 2969 
z
" transform="scale(0.015625)"/>
      <path id="DejaVuSans-69" d="M 603 3500 
L 1178 3500 
L 1178 0 
L 603 0 
L 603 3500 
z
M 603 4863 
L 1178 4863 
L 1178 4134 
L 603 4134 
L 603 4863 
z
" transform="scale(0.015625)"/>
      <path id="DejaVuSans-74" d="M 1172 4494 
L 1172 3500 
L 2356 3500 
L 2356 3053 
L 1172 3053 
L 1172 1153 
Q 1172 725 1289 603 
Q 1406 481 1766 481 
L 2356 481 
L 2356 0 
L 1766 0 
Q 1100 0 847 248 
Q 594 497 594 1153 
L 594 3053 
L 172 3053 
L 172 3500 
L 594 3500 
L 594 4494 
L 1172 4494 
z
" transform="scale(0.015625)"/>
     </defs>
     <use xlink:href="#DejaVuSans-4d"/>
     <use xlink:href="#DejaVuSans-6f" x="86.279297"/>
     <use xlink:href="#DejaVuSans-61" x="147.460938"/>
     <use xlink:href="#DejaVuSans-62" x="208.740234"/>
     <use xlink:href="#DejaVuSans-69" x="272.216797"/>
     <use xlink:href="#DejaVuSans-74" x="300"/>
    </g>
   </g>
  </g>
 </g>
 <defs>
  <clipPath id="p7b65dab99f">
   <rect x="57.6" y="45.127149" width="357.12" height="258.801703"/>
  </clipPath>
 </defs>
</svg>
