<?xml version="1.0" encoding="utf-8" standalone="no"?>
<!DOCTYPE svg PUBLIC "-//W3C//DTD SVG 1.1//EN"
  "http://www.w3.org/Graphics/SVG/1.1/DTD/svg11.dtd">
<svg xmlns:xlink="http://www.w3.org/1999/xlink" width="460.8pt" height="345.6pt" viewBox="0 0 460.8 345.6" xmlns="http://www.w3.org/2000/svg" version="1.1">
 <metadata>
  <rdf:RDF xmlns:dc="http://purl.org/dc/elements/1.1/" xmlns:cc="http://creativecommons.org/ns#" xmlns:rdf="http://www.w3.org/1999/02/22-rdf-syntax-ns#">
   <cc:Work>
    <dc:type rdf:resource="http://purl.org/dc/dcmitype/StillImage"/>
    <dc:date>2024-10-17T11:33:17.377527</dc:date>
    <dc:format>image/svg+xml</dc:format>
    <dc:creator>
     <cc:Agent>
      <dc:title>Matplotlib v3.9.2, https://matplotlib.org/</dc:title>
     </cc:Agent>
    </dc:creator>
   </cc:Work>
  </rdf:RDF>
 </metadata>
 <defs>
  <style type="text/css">*{stroke-linejoin: round; stroke-linecap: butt}</style>
 </defs>
 <g id="figure_1">
  <g id="patch_1">
   <path d="M 0 345.6 
L 460.8 345.6 
L 460.8 0 
L 0 0 
z
" style="fill: #ffffff"/>
  </g>
  <g id="axes_1">
   <g id="patch_2">
    <path d="M 57.6 287.640526 
L 414.72 287.640526 
L 414.72 61.415474 
L 57.6 61.415474 
z
" style="fill: #ffffff"/>
   </g>
   <g id="PatchCollection_1">
    <path d="M 355.630322 206.005164 
L 357.681664 203.073692 
L 358.177355 202.350068 
L 358.386904 202.10518 
L 362.775314 196.102688 
L 364.1619 194.245949 
L 366.257361 191.475674 
L 367.299465 190.087484 
L 368.405799 188.402667 
L 369.784152 186.201676 
L 371.460047 182.778971 
L 372.313772 180.983526 
L 372.447606 180.702329 
L 372.678922 180.03622 
L 372.861697 179.509896 
L 372.978921 179.217475 
L 373.38978 178.194248 
L 376.202236 171.186108 
L 377.237558 168.852038 
L 377.667036 167.827872 
L 380.359583 161.393025 
L 380.888836 160.06166 
L 382.960213 155.274118 
L 385.86899 148.488041 
L 388.628658 141.873704 
L 390.116806 138.306863 
L 391.549521 134.90518 
L 396.221359 123.542073 
L 397.407672 120.761186 
L 396.759181 121.879337 
L 397.73523 119.588791 
L 398.487273 117.823699 
L 398.185435 117.817781 
L 395.964285 117.774972 
L 392.559297 117.709295 
L 383.03804 117.526652 
L 381.715497 118.613235 
L 380.326815 117.987754 
L 378.872725 117.530011 
L 377.376553 117.236253 
L 377.175542 117.221264 
L 375.858368 117.120416 
L 363.837106 116.875572 
L 363.350818 116.852053 
L 363.102896 116.840664 
L 359.404819 116.66388 
L 356.810653 116.538932 
L 354.110451 116.408294 
L 354.019034 116.402518 
L 351.058727 116.260618 
L 350.047842 116.212823 
L 350.083778 115.557895 
L 349.908072 115.549846 
L 348.604623 115.490815 
L 345.18349 115.335867 
L 342.682414 115.221975 
L 341.14778 115.129926 
L 339.49831 115.027845 
L 337.848837 114.925682 
L 336.786224 114.861126 
L 335.309421 114.77136 
L 334.146022 114.706223 
L 333.483303 114.658228 
L 331.073442 114.506916 
L 329.115085 114.383901 
L 328.951519 114.374015 
L 328.613125 114.352579 
L 328.127584 114.324941 
L 327.440366 114.285406 
L 327.061991 114.262352 
L 317.952336 113.700395 
L 310.531393 113.23691 
L 301.971603 112.717716 
L 301.9478 113.106592 
L 290.062046 112.372453 
L 281.893592 111.862608 
L 278.637213 111.66134 
L 275.675748 111.478996 
L 271.332874 111.23565 
L 261.885733 110.706608 
L 261.910325 110.308116 
L 259.468973 110.564148 
L 257.329015 110.966369 
L 254.795512 111.695302 
L 254.467106 111.802967 
L 254.289906 111.863116 
L 254.19958 111.893798 
L 254.100919 112.478298 
L 253.679563 112.60458 
L 252.882033 112.857855 
L 252.090718 113.124161 
L 251.727557 113.249372 
L 251.456714 113.141404 
L 250.628526 113.122802 
L 241.267206 116.345358 
L 239.703717 116.884116 
L 238.392079 117.335539 
L 227.78619 120.984294 
L 227.042026 121.241014 
L 224.330008 122.176514 
L 223.136539 122.588283 
L 220.257989 123.581197 
L 217.597445 124.498372 
L 216.472795 124.886159 
L 214.658994 125.511631 
L 214.385387 125.605941 
L 214.228845 125.610068 
L 212.637634 123.880533 
L 212.612021 123.852687 
L 212.525367 123.933274 
L 212.410103 123.972912 
L 212.245709 124.029382 
L 211.253665 123.235608 
L 211.216457 123.195468 
L 210.837872 122.787329 
L 207.86559 119.580682 
L 207.604418 119.298937 
L 207.086172 118.739715 
L 206.496367 118.103463 
L 206.058517 117.631099 
L 204.400443 115.842338 
L 203.930465 115.335303 
L 203.898164 115.300459 
L 199.64008 110.758402 
L 199.295829 110.391176 
L 199.063519 110.142789 
L 199.622639 109.880778 
L 199.305321 109.463049 
L 199.048156 109.124508 
L 199.233231 109.074098 
L 198.925315 108.750695 
L 197.709117 107.475133 
L 196.502086 106.208784 
L 195.294981 104.943312 
L 194.087027 103.675246 
L 192.882579 102.412424 
L 192.22135 101.718525 
L 191.677214 101.147881 
L 191.007955 100.824448 
L 190.694226 100.676598 
L 190.147692 100.611665 
L 188.198989 100.743257 
L 187.157075 100.813363 
L 186.725921 100.842419 
L 186.564564 100.853296 
L 185.955457 100.894311 
L 188.937883 98.794389 
L 189.634059 98.304244 
L 188.687306 96.887812 
L 187.718642 95.438391 
L 186.722837 93.94808 
L 185.753314 92.49598 
L 183.554301 89.205793 
L 183.401162 88.976172 
L 183.368801 88.927549 
L 183.019582 88.379717 
L 182.98966 88.334963 
L 182.838419 88.108438 
L 182.814818 88.073657 
L 181.419118 85.98689 
L 181.056635 85.445297 
L 180.450442 84.539144 
L 179.482564 83.092341 
L 179.078166 82.488043 
L 178.514787 81.64641 
L 178.074833 80.987196 
L 177.914738 80.746748 
L 177.602044 80.277801 
L 177.546005 80.198673 
L 176.742868 78.998324 
L 176.577304 78.751024 
L 176.185515 78.165539 
L 175.608596 77.303289 
L 175.415714 77.014839 
L 174.639862 75.854773 
L 173.961283 74.841181 
L 173.097754 73.551256 
L 172.659 72.895771 
L 172.572389 72.766584 
L 172.200959 72.211599 
L 169.283094 73.521438 
L 168.892192 72.357907 
L 168.670632 71.698431 
L 167.835315 72.073199 
L 165.76621 73.00214 
L 164.29785 73.661092 
L 164.178897 73.714785 
L 164.059941 73.76839 
L 163.224722 74.143253 
L 162.591674 74.427346 
L 161.857055 74.756445 
L 161.123412 75.086307 
L 161.004459 75.140001 
L 160.885485 75.192736 
L 159.536113 75.798882 
L 158.186814 76.404246 
L 158.06786 76.457854 
L 157.948908 76.511548 
L 156.48066 77.170525 
L 156.011545 77.38105 
L 155.012328 77.829422 
L 154.893377 77.883117 
L 154.774406 77.935941 
L 153.227192 78.630951 
L 151.771089 79.076306 
L 150.565256 79.444777 
L 150.317486 79.520474 
L 149.732938 79.699227 
L 149.48577 79.774561 
L 148.319442 80.131307 
L 146.90508 80.563413 
L 145.490654 80.996397 
L 144.076297 81.428512 
L 142.661943 81.860632 
L 141.562089 82.197276 
L 139.297433 82.94849 
L 138.245078 83.400925 
L 136.709831 84.061962 
L 135.178098 84.720393 
L 133.647326 85.378807 
L 132.112943 86.038968 
L 130.979872 86.526616 
L 129.919421 87.019646 
L 129.322468 87.297194 
L 129.126305 87.391331 
L 127.115655 88.349895 
L 125.402856 89.166872 
L 123.821105 89.91888 
L 122.237571 90.672592 
L 118.898649 92.436115 
L 118.424584 92.645577 
L 116.791262 93.544741 
L 114.767885 94.612781 
L 113.633107 95.216615 
L 112.385829 95.877846 
L 110.149268 97.055279 
L 109.385831 97.448118 
L 109.086288 97.602239 
L 109.004989 97.635358 
L 107.945598 98.066663 
L 105.527276 99.07564 
L 104.19332 99.623164 
L 101.599745 100.654649 
L 101.08522 100.94628 
L 99.968154 101.37415 
L 99.292614 101.657409 
L 96.222812 103.005838 
L 95.038587 103.524344 
L 93.530077 104.189486 
L 92.097973 104.820945 
L 89.310407 106.096815 
L 87.655051 106.634265 
L 86.000131 107.171537 
L 83.939779 107.840478 
L 83.561009 107.962448 
L 82.187223 108.407606 
L 78.852774 109.489142 
L 76.942264 110.111617 
L 75.040039 110.730854 
L 74.651223 110.855894 
L 74.636134 110.860746 
L 74.498622 110.908792 
L 73.832727 111.141449 
L 74.283644 111.716453 
L 74.687842 112.231882 
L 76.01697 111.798209 
L 76.079216 111.877877 
L 76.132402 111.945893 
L 76.15161 111.97109 
L 83.720184 122.159476 
L 84.383064 123.053093 
L 85.551783 124.628454 
L 87.724057 127.761991 
L 87.439084 127.927329 
L 87.307239 128.001929 
L 87.369301 128.088843 
L 87.437569 128.184509 
L 88.596318 129.822566 
L 90.240007 132.146439 
L 90.819028 133.12131 
L 90.876867 133.22132 
L 91.156323 133.691763 
L 92.008534 135.122309 
L 92.466683 135.891091 
L 92.967908 136.581238 
L 93.990528 137.990982 
L 95.028942 139.421643 
L 96.019446 140.854209 
L 97.010902 142.286841 
L 98.723279 144.762579 
L 99.135446 145.358072 
L 99.503783 145.890911 
L 99.845912 146.385545 
L 100.429584 147.228782 
L 102.746563 150.578165 
L 102.513062 151.102254 
L 102.528748 151.125789 
L 102.496731 151.148516 
L 102.613914 151.316316 
L 103.152459 152.08783 
L 103.774202 152.978536 
L 104.318746 151.764309 
L 105.457471 153.501445 
L 106.499006 155.088983 
L 107.30301 156.226813 
L 109.705333 159.632602 
L 110.929232 161.359833 
L 115.167755 167.372546 
L 116.17906 168.799876 
L 117.184168 170.222905 
L 117.562071 170.757456 
L 118.26457 171.752783 
L 118.296797 171.780557 
L 118.932855 172.698576 
L 119.255996 173.025057 
L 120.559885 174.343017 
L 121.957144 175.755721 
L 123.09699 176.794712 
L 123.626117 177.277168 
L 123.806017 177.441162 
L 124.01089 177.627778 
L 125.167788 178.682166 
L 126.081706 179.441093 
L 127.061658 180.275162 
L 128.323164 181.361321 
L 128.755503 181.733597 
L 128.929086 181.865378 
L 129.325313 182.192437 
L 129.598704 182.467657 
L 131.224791 184.104833 
L 132.126374 185.01252 
L 133.642527 186.505542 
L 134.476791 187.28291 
L 135.533629 188.271698 
L 137.698068 190.296865 
L 138.709001 191.242589 
L 139.633675 192.107887 
L 139.757105 192.223304 
L 141.395147 193.756005 
L 141.950583 194.275644 
L 142.568445 194.85376 
L 143.640542 195.856956 
L 143.705144 195.911632 
L 143.787369 196.653012 
L 144.678025 197.502877 
L 145.282999 198.080147 
L 145.611892 198.393691 
L 145.6491 198.350872 
L 145.665689 198.364706 
L 145.683123 198.381224 
L 146.116053 197.912983 
L 146.190147 197.922779 
L 147.484701 198.092257 
L 147.966637 197.911604 
L 148.194692 198.180037 
L 149.309618 199.494527 
L 149.943977 200.241754 
L 150.422231 200.660003 
L 151.878085 201.973141 
L 152.90287 202.88831 
L 153.943194 203.817253 
L 154.993819 204.755467 
L 154.793624 204.925486 
L 154.594365 205.094525 
L 160.348276 210.222732 
L 165.289037 214.683091 
L 165.529814 214.231354 
L 167.954079 216.474312 
L 167.990175 216.507931 
L 172.574214 220.754896 
L 174.126524 222.182047 
L 174.233346 222.280257 
L 174.734338 222.429609 
L 174.530009 223.554764 
L 174.770907 223.80416 
L 175.695013 224.639717 
L 176.847893 225.681951 
L 179.001802 227.629327 
L 184.411748 232.557856 
L 188.535573 236.33116 
L 188.968257 236.727039 
L 194.761278 241.833784 
L 197.45894 244.142127 
L 201.037848 247.42953 
L 202.962619 249.129002 
L 209.469118 255.087496 
L 209.969747 255.276412 
L 210.825755 256.042872 
L 212.12598 257.21701 
L 213.351845 258.323953 
L 214.648858 259.495206 
L 216.014171 260.728043 
L 217.73906 262.285729 
L 219.014106 263.437089 
L 219.473349 263.85184 
L 219.695421 264.052411 
L 219.993768 264.30932 
L 220.503191 264.791914 
L 221.467489 265.624029 
L 223.473846 267.406239 
L 224.829946 268.611228 
L 225.259718 268.993081 
L 225.396256 269.120694 
L 227.603177 271.446707 
L 232.791965 276.096135 
L 233.68969 276.891252 
L 234.023115 277.222119 
L 234.171744 277.357569 
L 234.267241 277.322578 
L 234.330216 277.299498 
L 234.558479 277.215837 
L 236.263036 276.591295 
L 236.352668 276.558445 
L 237.481822 276.144609 
L 240.556495 275.056058 
L 249.728686 272.298081 
L 253.28545 271.500194 
L 256.127059 270.938108 
L 258.915154 270.462837 
L 260.678501 270.289057 
L 261.270015 270.230756 
L 270.316945 269.453444 
L 271.63755 269.399664 
L 273.011088 269.343891 
L 275.21 269.441162 
L 275.987787 269.475528 
L 276.64767 269.504743 
L 279.293119 269.621739 
L 282.112633 269.558834 
L 284.998967 269.270597 
L 285.154763 269.255086 
L 295.790187 268.193156 
L 299.418098 267.841769 
L 302.356905 267.557163 
L 305.758179 267.062367 
L 306.617598 266.937135 
L 307.905529 266.750145 
L 309.311812 266.377023 
L 311.316645 265.844767 
L 311.374765 265.764589 
L 311.495898 265.59758 
L 312.06993 264.805909 
L 312.209621 264.613268 
L 312.590061 264.088563 
L 312.980205 263.554479 
L 314.139539 261.976554 
L 314.513634 261.467261 
L 316.851806 258.283939 
L 322.410151 250.589725 
L 325.144485 246.924139 
L 328.995065 241.761047 
L 332.801583 236.657434 
L 332.788314 236.359333 
L 333.162173 236.106857 
L 335.450313 232.953304 
L 337.133218 230.633889 
L 338.116465 229.278975 
L 338.334492 228.979193 
L 339.854542 226.828088 
L 340.749955 225.562491 
L 341.031804 225.176301 
L 344.038874 221.057171 
L 348.945361 214.377832 
L 349.57103 213.52817 
L 353.220351 208.576951 
L 353.729197 207.885558 
L 353.773271 207.826116 
L 354.120483 207.261486 
L 354.419139 206.775818 
L 354.461402 206.682398 
L 354.611824 206.670524 
L 355.239231 206.563653 
L 355.630322 206.005164 
" clip-path="url(#pf5cc904337)" style="fill: #1f77b4"/>
   </g>
   <g id="matplotlib.axis_1">
    <g id="xtick_1">
     <g id="line2d_1">
      <defs>
       <path id="m77a0af381b" d="M 0 0 
L 0 3.5 
" style="stroke: #000000; stroke-width: 0.8"/>
      </defs>
      <g>
       <use xlink:href="#m77a0af381b" x="71.794167" y="287.640526" style="stroke: #000000; stroke-width: 0.8"/>
      </g>
     </g>
     <g id="text_1">
      <!-- 13.32 -->
      <g transform="translate(57.480104 302.238964) scale(0.1 -0.1)">
       <defs>
        <path id="DejaVuSans-31" d="M 794 531 
L 1825 531 
L 1825 4091 
L 703 3866 
L 703 4441 
L 1819 4666 
L 2450 4666 
L 2450 531 
L 3481 531 
L 3481 0 
L 794 0 
L 794 531 
z
" transform="scale(0.015625)"/>
        <path id="DejaVuSans-33" d="M 2597 2516 
Q 3050 2419 3304 2112 
Q 3559 1806 3559 1356 
Q 3559 666 3084 287 
Q 2609 -91 1734 -91 
Q 1441 -91 1130 -33 
Q 819 25 488 141 
L 488 750 
Q 750 597 1062 519 
Q 1375 441 1716 441 
Q 2309 441 2620 675 
Q 2931 909 2931 1356 
Q 2931 1769 2642 2001 
Q 2353 2234 1838 2234 
L 1294 2234 
L 1294 2753 
L 1863 2753 
Q 2328 2753 2575 2939 
Q 2822 3125 2822 3475 
Q 2822 3834 2567 4026 
Q 2313 4219 1838 4219 
Q 1578 4219 1281 4162 
Q 984 4106 628 3988 
L 628 4550 
Q 988 4650 1302 4700 
Q 1616 4750 1894 4750 
Q 2613 4750 3031 4423 
Q 3450 4097 3450 3541 
Q 3450 3153 3228 2886 
Q 3006 2619 2597 2516 
z
" transform="scale(0.015625)"/>
        <path id="DejaVuSans-2e" d="M 684 794 
L 1344 794 
L 1344 0 
L 684 0 
L 684 794 
z
" transform="scale(0.015625)"/>
        <path id="DejaVuSans-32" d="M 1228 531 
L 3431 531 
L 3431 0 
L 469 0 
L 469 531 
Q 828 903 1448 1529 
Q 2069 2156 2228 2338 
Q 2531 2678 2651 2914 
Q 2772 3150 2772 3378 
Q 2772 3750 2511 3984 
Q 2250 4219 1831 4219 
Q 1534 4219 1204 4116 
Q 875 4013 500 3803 
L 500 4441 
Q 881 4594 1212 4672 
Q 1544 4750 1819 4750 
Q 2544 4750 2975 4387 
Q 3406 4025 3406 3419 
Q 3406 3131 3298 2873 
Q 3191 2616 2906 2266 
Q 2828 2175 2409 1742 
Q 1991 1309 1228 531 
z
" transform="scale(0.015625)"/>
       </defs>
       <use xlink:href="#DejaVuSans-31"/>
       <use xlink:href="#DejaVuSans-33" x="63.623047"/>
       <use xlink:href="#DejaVuSans-2e" x="127.246094"/>
       <use xlink:href="#DejaVuSans-33" x="159.033203"/>
       <use xlink:href="#DejaVuSans-32" x="222.65625"/>
      </g>
     </g>
    </g>
    <g id="xtick_2">
     <g id="line2d_2">
      <g>
       <use xlink:href="#m77a0af381b" x="130.71816" y="287.640526" style="stroke: #000000; stroke-width: 0.8"/>
      </g>
     </g>
     <g id="text_2">
      <!-- 13.33 -->
      <g transform="translate(116.404098 302.238964) scale(0.1 -0.1)">
       <use xlink:href="#DejaVuSans-31"/>
       <use xlink:href="#DejaVuSans-33" x="63.623047"/>
       <use xlink:href="#DejaVuSans-2e" x="127.246094"/>
       <use xlink:href="#DejaVuSans-33" x="159.033203"/>
       <use xlink:href="#DejaVuSans-33" x="222.65625"/>
      </g>
     </g>
    </g>
    <g id="xtick_3">
     <g id="line2d_3">
      <g>
       <use xlink:href="#m77a0af381b" x="189.642154" y="287.640526" style="stroke: #000000; stroke-width: 0.8"/>
      </g>
     </g>
     <g id="text_3">
      <!-- 13.34 -->
      <g transform="translate(175.328091 302.238964) scale(0.1 -0.1)">
       <defs>
        <path id="DejaVuSans-34" d="M 2419 4116 
L 825 1625 
L 2419 1625 
L 2419 4116 
z
M 2253 4666 
L 3047 4666 
L 3047 1625 
L 3713 1625 
L 3713 1100 
L 3047 1100 
L 3047 0 
L 2419 0 
L 2419 1100 
L 313 1100 
L 313 1709 
L 2253 4666 
z
" transform="scale(0.015625)"/>
       </defs>
       <use xlink:href="#DejaVuSans-31"/>
       <use xlink:href="#DejaVuSans-33" x="63.623047"/>
       <use xlink:href="#DejaVuSans-2e" x="127.246094"/>
       <use xlink:href="#DejaVuSans-33" x="159.033203"/>
       <use xlink:href="#DejaVuSans-34" x="222.65625"/>
      </g>
     </g>
    </g>
    <g id="xtick_4">
     <g id="line2d_4">
      <g>
       <use xlink:href="#m77a0af381b" x="248.566147" y="287.640526" style="stroke: #000000; stroke-width: 0.8"/>
      </g>
     </g>
     <g id="text_4">
      <!-- 13.35 -->
      <g transform="translate(234.252085 302.238964) scale(0.1 -0.1)">
       <defs>
        <path id="DejaVuSans-35" d="M 691 4666 
L 3169 4666 
L 3169 4134 
L 1269 4134 
L 1269 2991 
Q 1406 3038 1543 3061 
Q 1681 3084 1819 3084 
Q 2600 3084 3056 2656 
Q 3513 2228 3513 1497 
Q 3513 744 3044 326 
Q 2575 -91 1722 -91 
Q 1428 -91 1123 -41 
Q 819 9 494 109 
L 494 744 
Q 775 591 1075 516 
Q 1375 441 1709 441 
Q 2250 441 2565 725 
Q 2881 1009 2881 1497 
Q 2881 1984 2565 2268 
Q 2250 2553 1709 2553 
Q 1456 2553 1204 2497 
Q 953 2441 691 2322 
L 691 4666 
z
" transform="scale(0.015625)"/>
       </defs>
       <use xlink:href="#DejaVuSans-31"/>
       <use xlink:href="#DejaVuSans-33" x="63.623047"/>
       <use xlink:href="#DejaVuSans-2e" x="127.246094"/>
       <use xlink:href="#DejaVuSans-33" x="159.033203"/>
       <use xlink:href="#DejaVuSans-35" x="222.65625"/>
      </g>
     </g>
    </g>
    <g id="xtick_5">
     <g id="line2d_5">
      <g>
       <use xlink:href="#m77a0af381b" x="307.490141" y="287.640526" style="stroke: #000000; stroke-width: 0.8"/>
      </g>
     </g>
     <g id="text_5">
      <!-- 13.36 -->
      <g transform="translate(293.176078 302.238964) scale(0.1 -0.1)">
       <defs>
        <path id="DejaVuSans-36" d="M 2113 2584 
Q 1688 2584 1439 2293 
Q 1191 2003 1191 1497 
Q 1191 994 1439 701 
Q 1688 409 2113 409 
Q 2538 409 2786 701 
Q 3034 994 3034 1497 
Q 3034 2003 2786 2293 
Q 2538 2584 2113 2584 
z
M 3366 4563 
L 3366 3988 
Q 3128 4100 2886 4159 
Q 2644 4219 2406 4219 
Q 1781 4219 1451 3797 
Q 1122 3375 1075 2522 
Q 1259 2794 1537 2939 
Q 1816 3084 2150 3084 
Q 2853 3084 3261 2657 
Q 3669 2231 3669 1497 
Q 3669 778 3244 343 
Q 2819 -91 2113 -91 
Q 1303 -91 875 529 
Q 447 1150 447 2328 
Q 447 3434 972 4092 
Q 1497 4750 2381 4750 
Q 2619 4750 2861 4703 
Q 3103 4656 3366 4563 
z
" transform="scale(0.015625)"/>
       </defs>
       <use xlink:href="#DejaVuSans-31"/>
       <use xlink:href="#DejaVuSans-33" x="63.623047"/>
       <use xlink:href="#DejaVuSans-2e" x="127.246094"/>
       <use xlink:href="#DejaVuSans-33" x="159.033203"/>
       <use xlink:href="#DejaVuSans-36" x="222.65625"/>
      </g>
     </g>
    </g>
    <g id="xtick_6">
     <g id="line2d_6">
      <g>
       <use xlink:href="#m77a0af381b" x="366.414135" y="287.640526" style="stroke: #000000; stroke-width: 0.8"/>
      </g>
     </g>
     <g id="text_6">
      <!-- 13.37 -->
      <g transform="translate(352.100072 302.238964) scale(0.1 -0.1)">
       <defs>
        <path id="DejaVuSans-37" d="M 525 4666 
L 3525 4666 
L 3525 4397 
L 1831 0 
L 1172 0 
L 2766 4134 
L 525 4134 
L 525 4666 
z
" transform="scale(0.015625)"/>
       </defs>
       <use xlink:href="#DejaVuSans-31"/>
       <use xlink:href="#DejaVuSans-33" x="63.623047"/>
       <use xlink:href="#DejaVuSans-2e" x="127.246094"/>
       <use xlink:href="#DejaVuSans-33" x="159.033203"/>
       <use xlink:href="#DejaVuSans-37" x="222.65625"/>
      </g>
     </g>
    </g>
   </g>
   <g id="matplotlib.axis_2">
    <g id="ytick_1">
     <g id="line2d_7">
      <defs>
       <path id="m5b37934133" d="M 0 0 
L -3.5 0 
" style="stroke: #000000; stroke-width: 0.8"/>
      </defs>
      <g>
       <use xlink:href="#m5b37934133" x="57.6" y="278.16467" style="stroke: #000000; stroke-width: 0.8"/>
      </g>
     </g>
     <g id="text_7">
      <!-- 52.590 -->
      <g transform="translate(15.609375 281.963888) scale(0.1 -0.1)">
       <defs>
        <path id="DejaVuSans-39" d="M 703 97 
L 703 672 
Q 941 559 1184 500 
Q 1428 441 1663 441 
Q 2288 441 2617 861 
Q 2947 1281 2994 2138 
Q 2813 1869 2534 1725 
Q 2256 1581 1919 1581 
Q 1219 1581 811 2004 
Q 403 2428 403 3163 
Q 403 3881 828 4315 
Q 1253 4750 1959 4750 
Q 2769 4750 3195 4129 
Q 3622 3509 3622 2328 
Q 3622 1225 3098 567 
Q 2575 -91 1691 -91 
Q 1453 -91 1209 -44 
Q 966 3 703 97 
z
M 1959 2075 
Q 2384 2075 2632 2365 
Q 2881 2656 2881 3163 
Q 2881 3666 2632 3958 
Q 2384 4250 1959 4250 
Q 1534 4250 1286 3958 
Q 1038 3666 1038 3163 
Q 1038 2656 1286 2365 
Q 1534 2075 1959 2075 
z
" transform="scale(0.015625)"/>
        <path id="DejaVuSans-30" d="M 2034 4250 
Q 1547 4250 1301 3770 
Q 1056 3291 1056 2328 
Q 1056 1369 1301 889 
Q 1547 409 2034 409 
Q 2525 409 2770 889 
Q 3016 1369 3016 2328 
Q 3016 3291 2770 3770 
Q 2525 4250 2034 4250 
z
M 2034 4750 
Q 2819 4750 3233 4129 
Q 3647 3509 3647 2328 
Q 3647 1150 3233 529 
Q 2819 -91 2034 -91 
Q 1250 -91 836 529 
Q 422 1150 422 2328 
Q 422 3509 836 4129 
Q 1250 4750 2034 4750 
z
" transform="scale(0.015625)"/>
       </defs>
       <use xlink:href="#DejaVuSans-35"/>
       <use xlink:href="#DejaVuSans-32" x="63.623047"/>
       <use xlink:href="#DejaVuSans-2e" x="127.246094"/>
       <use xlink:href="#DejaVuSans-35" x="159.033203"/>
       <use xlink:href="#DejaVuSans-39" x="222.65625"/>
       <use xlink:href="#DejaVuSans-30" x="286.279297"/>
      </g>
     </g>
    </g>
    <g id="ytick_2">
     <g id="line2d_8">
      <g>
       <use xlink:href="#m5b37934133" x="57.6" y="229.656886" style="stroke: #000000; stroke-width: 0.8"/>
      </g>
     </g>
     <g id="text_8">
      <!-- 52.595 -->
      <g transform="translate(15.609375 233.456105) scale(0.1 -0.1)">
       <use xlink:href="#DejaVuSans-35"/>
       <use xlink:href="#DejaVuSans-32" x="63.623047"/>
       <use xlink:href="#DejaVuSans-2e" x="127.246094"/>
       <use xlink:href="#DejaVuSans-35" x="159.033203"/>
       <use xlink:href="#DejaVuSans-39" x="222.65625"/>
       <use xlink:href="#DejaVuSans-35" x="286.279297"/>
      </g>
     </g>
    </g>
    <g id="ytick_3">
     <g id="line2d_9">
      <g>
       <use xlink:href="#m5b37934133" x="57.6" y="181.149102" style="stroke: #000000; stroke-width: 0.8"/>
      </g>
     </g>
     <g id="text_9">
      <!-- 52.600 -->
      <g transform="translate(15.609375 184.948321) scale(0.1 -0.1)">
       <use xlink:href="#DejaVuSans-35"/>
       <use xlink:href="#DejaVuSans-32" x="63.623047"/>
       <use xlink:href="#DejaVuSans-2e" x="127.246094"/>
       <use xlink:href="#DejaVuSans-36" x="159.033203"/>
       <use xlink:href="#DejaVuSans-30" x="222.65625"/>
       <use xlink:href="#DejaVuSans-30" x="286.279297"/>
      </g>
     </g>
    </g>
    <g id="ytick_4">
     <g id="line2d_10">
      <g>
       <use xlink:href="#m5b37934133" x="57.6" y="132.641319" style="stroke: #000000; stroke-width: 0.8"/>
      </g>
     </g>
     <g id="text_10">
      <!-- 52.605 -->
      <g transform="translate(15.609375 136.440538) scale(0.1 -0.1)">
       <use xlink:href="#DejaVuSans-35"/>
       <use xlink:href="#DejaVuSans-32" x="63.623047"/>
       <use xlink:href="#DejaVuSans-2e" x="127.246094"/>
       <use xlink:href="#DejaVuSans-36" x="159.033203"/>
       <use xlink:href="#DejaVuSans-30" x="222.65625"/>
       <use xlink:href="#DejaVuSans-35" x="286.279297"/>
      </g>
     </g>
    </g>
    <g id="ytick_5">
     <g id="line2d_11">
      <g>
       <use xlink:href="#m5b37934133" x="57.6" y="84.133535" style="stroke: #000000; stroke-width: 0.8"/>
      </g>
     </g>
     <g id="text_11">
      <!-- 52.610 -->
      <g transform="translate(15.609375 87.932754) scale(0.1 -0.1)">
       <use xlink:href="#DejaVuSans-35"/>
       <use xlink:href="#DejaVuSans-32" x="63.623047"/>
       <use xlink:href="#DejaVuSans-2e" x="127.246094"/>
       <use xlink:href="#DejaVuSans-36" x="159.033203"/>
       <use xlink:href="#DejaVuSans-31" x="222.65625"/>
       <use xlink:href="#DejaVuSans-30" x="286.279297"/>
      </g>
     </g>
    </g>
   </g>
   <g id="patch_3">
    <path d="M 57.6 287.640526 
L 57.6 61.415474 
" style="fill: none; stroke: #000000; stroke-width: 0.8; stroke-linejoin: miter; stroke-linecap: square"/>
   </g>
   <g id="patch_4">
    <path d="M 414.72 287.640526 
L 414.72 61.415474 
" style="fill: none; stroke: #000000; stroke-width: 0.8; stroke-linejoin: miter; stroke-linecap: square"/>
   </g>
   <g id="patch_5">
    <path d="M 57.6 287.640526 
L 414.72 287.640526 
" style="fill: none; stroke: #000000; stroke-width: 0.8; stroke-linejoin: miter; stroke-linecap: square"/>
   </g>
   <g id="patch_6">
    <path d="M 57.6 61.415474 
L 414.72 61.415474 
" style="fill: none; stroke: #000000; stroke-width: 0.8; stroke-linejoin: miter; stroke-linecap: square"/>
   </g>
   <g id="text_12">
    <!-- Märkisches_Viertel -->
    <g transform="translate(185.137552 174.940397) scale(0.12 -0.12)">
     <defs>
      <path id="DejaVuSans-4d" d="M 628 4666 
L 1569 4666 
L 2759 1491 
L 3956 4666 
L 4897 4666 
L 4897 0 
L 4281 0 
L 4281 4097 
L 3078 897 
L 2444 897 
L 1241 4097 
L 1241 0 
L 628 0 
L 628 4666 
z
" transform="scale(0.015625)"/>
      <path id="DejaVuSans-e4" d="M 2194 1759 
Q 1497 1759 1228 1600 
Q 959 1441 959 1056 
Q 959 750 1161 570 
Q 1363 391 1709 391 
Q 2188 391 2477 730 
Q 2766 1069 2766 1631 
L 2766 1759 
L 2194 1759 
z
M 3341 1997 
L 3341 0 
L 2766 0 
L 2766 531 
Q 2569 213 2275 61 
Q 1981 -91 1556 -91 
Q 1019 -91 701 211 
Q 384 513 384 1019 
Q 384 1609 779 1909 
Q 1175 2209 1959 2209 
L 2766 2209 
L 2766 2266 
Q 2766 2663 2505 2880 
Q 2244 3097 1772 3097 
Q 1472 3097 1187 3025 
Q 903 2953 641 2809 
L 641 3341 
Q 956 3463 1253 3523 
Q 1550 3584 1831 3584 
Q 2591 3584 2966 3190 
Q 3341 2797 3341 1997 
z
M 2150 4850 
L 2784 4850 
L 2784 4219 
L 2150 4219 
L 2150 4850 
z
M 928 4850 
L 1562 4850 
L 1562 4219 
L 928 4219 
L 928 4850 
z
" transform="scale(0.015625)"/>
      <path id="DejaVuSans-72" d="M 2631 2963 
Q 2534 3019 2420 3045 
Q 2306 3072 2169 3072 
Q 1681 3072 1420 2755 
Q 1159 2438 1159 1844 
L 1159 0 
L 581 0 
L 581 3500 
L 1159 3500 
L 1159 2956 
Q 1341 3275 1631 3429 
Q 1922 3584 2338 3584 
Q 2397 3584 2469 3576 
Q 2541 3569 2628 3553 
L 2631 2963 
z
" transform="scale(0.015625)"/>
      <path id="DejaVuSans-6b" d="M 581 4863 
L 1159 4863 
L 1159 1991 
L 2875 3500 
L 3609 3500 
L 1753 1863 
L 3688 0 
L 2938 0 
L 1159 1709 
L 1159 0 
L 581 0 
L 581 4863 
z
" transform="scale(0.015625)"/>
      <path id="DejaVuSans-69" d="M 603 3500 
L 1178 3500 
L 1178 0 
L 603 0 
L 603 3500 
z
M 603 4863 
L 1178 4863 
L 1178 4134 
L 603 4134 
L 603 4863 
z
" transform="scale(0.015625)"/>
      <path id="DejaVuSans-73" d="M 2834 3397 
L 2834 2853 
Q 2591 2978 2328 3040 
Q 2066 3103 1784 3103 
Q 1356 3103 1142 2972 
Q 928 2841 928 2578 
Q 928 2378 1081 2264 
Q 1234 2150 1697 2047 
L 1894 2003 
Q 2506 1872 2764 1633 
Q 3022 1394 3022 966 
Q 3022 478 2636 193 
Q 2250 -91 1575 -91 
Q 1294 -91 989 -36 
Q 684 19 347 128 
L 347 722 
Q 666 556 975 473 
Q 1284 391 1588 391 
Q 1994 391 2212 530 
Q 2431 669 2431 922 
Q 2431 1156 2273 1281 
Q 2116 1406 1581 1522 
L 1381 1569 
Q 847 1681 609 1914 
Q 372 2147 372 2553 
Q 372 3047 722 3315 
Q 1072 3584 1716 3584 
Q 2034 3584 2315 3537 
Q 2597 3491 2834 3397 
z
" transform="scale(0.015625)"/>
      <path id="DejaVuSans-63" d="M 3122 3366 
L 3122 2828 
Q 2878 2963 2633 3030 
Q 2388 3097 2138 3097 
Q 1578 3097 1268 2742 
Q 959 2388 959 1747 
Q 959 1106 1268 751 
Q 1578 397 2138 397 
Q 2388 397 2633 464 
Q 2878 531 3122 666 
L 3122 134 
Q 2881 22 2623 -34 
Q 2366 -91 2075 -91 
Q 1284 -91 818 406 
Q 353 903 353 1747 
Q 353 2603 823 3093 
Q 1294 3584 2113 3584 
Q 2378 3584 2631 3529 
Q 2884 3475 3122 3366 
z
" transform="scale(0.015625)"/>
      <path id="DejaVuSans-68" d="M 3513 2113 
L 3513 0 
L 2938 0 
L 2938 2094 
Q 2938 2591 2744 2837 
Q 2550 3084 2163 3084 
Q 1697 3084 1428 2787 
Q 1159 2491 1159 1978 
L 1159 0 
L 581 0 
L 581 4863 
L 1159 4863 
L 1159 2956 
Q 1366 3272 1645 3428 
Q 1925 3584 2291 3584 
Q 2894 3584 3203 3211 
Q 3513 2838 3513 2113 
z
" transform="scale(0.015625)"/>
      <path id="DejaVuSans-65" d="M 3597 1894 
L 3597 1613 
L 953 1613 
Q 991 1019 1311 708 
Q 1631 397 2203 397 
Q 2534 397 2845 478 
Q 3156 559 3463 722 
L 3463 178 
Q 3153 47 2828 -22 
Q 2503 -91 2169 -91 
Q 1331 -91 842 396 
Q 353 884 353 1716 
Q 353 2575 817 3079 
Q 1281 3584 2069 3584 
Q 2775 3584 3186 3129 
Q 3597 2675 3597 1894 
z
M 3022 2063 
Q 3016 2534 2758 2815 
Q 2500 3097 2075 3097 
Q 1594 3097 1305 2825 
Q 1016 2553 972 2059 
L 3022 2063 
z
" transform="scale(0.015625)"/>
      <path id="DejaVuSans-5f" d="M 3263 -1063 
L 3263 -1509 
L -63 -1509 
L -63 -1063 
L 3263 -1063 
z
" transform="scale(0.015625)"/>
      <path id="DejaVuSans-56" d="M 1831 0 
L 50 4666 
L 709 4666 
L 2188 738 
L 3669 4666 
L 4325 4666 
L 2547 0 
L 1831 0 
z
" transform="scale(0.015625)"/>
      <path id="DejaVuSans-74" d="M 1172 4494 
L 1172 3500 
L 2356 3500 
L 2356 3053 
L 1172 3053 
L 1172 1153 
Q 1172 725 1289 603 
Q 1406 481 1766 481 
L 2356 481 
L 2356 0 
L 1766 0 
Q 1100 0 847 248 
Q 594 497 594 1153 
L 594 3053 
L 172 3053 
L 172 3500 
L 594 3500 
L 594 4494 
L 1172 4494 
z
" transform="scale(0.015625)"/>
      <path id="DejaVuSans-6c" d="M 603 4863 
L 1178 4863 
L 1178 0 
L 603 0 
L 603 4863 
z
" transform="scale(0.015625)"/>
     </defs>
     <use xlink:href="#DejaVuSans-4d"/>
     <use xlink:href="#DejaVuSans-e4" x="86.279297"/>
     <use xlink:href="#DejaVuSans-72" x="147.558594"/>
     <use xlink:href="#DejaVuSans-6b" x="188.671875"/>
     <use xlink:href="#DejaVuSans-69" x="246.582031"/>
     <use xlink:href="#DejaVuSans-73" x="274.365234"/>
     <use xlink:href="#DejaVuSans-63" x="326.464844"/>
     <use xlink:href="#DejaVuSans-68" x="381.445312"/>
     <use xlink:href="#DejaVuSans-65" x="444.824219"/>
     <use xlink:href="#DejaVuSans-73" x="506.347656"/>
     <use xlink:href="#DejaVuSans-5f" x="558.447266"/>
     <use xlink:href="#DejaVuSans-56" x="608.447266"/>
     <use xlink:href="#DejaVuSans-69" x="674.605469"/>
     <use xlink:href="#DejaVuSans-65" x="702.388672"/>
     <use xlink:href="#DejaVuSans-72" x="763.912109"/>
     <use xlink:href="#DejaVuSans-74" x="805.025391"/>
     <use xlink:href="#DejaVuSans-65" x="844.234375"/>
     <use xlink:href="#DejaVuSans-6c" x="905.757812"/>
    </g>
   </g>
  </g>
 </g>
 <defs>
  <clipPath id="pf5cc904337">
   <rect x="57.6" y="61.415474" width="357.12" height="226.225053"/>
  </clipPath>
 </defs>
</svg>
