<?xml version="1.0" encoding="utf-8" standalone="no"?>
<!DOCTYPE svg PUBLIC "-//W3C//DTD SVG 1.1//EN"
  "http://www.w3.org/Graphics/SVG/1.1/DTD/svg11.dtd">
<svg xmlns:xlink="http://www.w3.org/1999/xlink" width="720pt" height="720pt" viewBox="0 0 720 720" xmlns="http://www.w3.org/2000/svg" version="1.1">
 <metadata>
  <rdf:RDF xmlns:dc="http://purl.org/dc/elements/1.1/" xmlns:cc="http://creativecommons.org/ns#" xmlns:rdf="http://www.w3.org/1999/02/22-rdf-syntax-ns#">
   <cc:Work>
    <dc:type rdf:resource="http://purl.org/dc/dcmitype/StillImage"/>
    <dc:date>2024-10-17T11:36:15.894241</dc:date>
    <dc:format>image/svg+xml</dc:format>
    <dc:creator>
     <cc:Agent>
      <dc:title>Matplotlib v3.9.2, https://matplotlib.org/</dc:title>
     </cc:Agent>
    </dc:creator>
   </cc:Work>
  </rdf:RDF>
 </metadata>
 <defs>
  <style type="text/css">*{stroke-linejoin: round; stroke-linecap: butt}</style>
 </defs>
 <g id="figure_1">
  <g id="patch_1">
   <path d="M 0 720 
L 720 720 
L 720 0 
L 0 0 
z
" style="fill: #ffffff"/>
  </g>
  <g id="axes_1">
   <g id="patch_2">
    <path d="M 90 541.302938 
L 648 541.302938 
L 648 185.897062 
L 90 185.897062 
z
" style="fill: #ffffff"/>
   </g>
   <g id="PatchCollection_1">
    <path d="M 552.527579 418.193544 
L 555.838451 413.694251 
L 556.63903 412.583236 
L 556.975314 412.208725 
L 564.048565 403.002548 
L 566.282023 400.155834 
L 569.656016 395.909435 
L 571.334307 393.781269 
L 573.123467 391.192755 
L 575.356109 387.808831 
L 578.096985 382.530045 
L 579.495039 379.760057 
L 579.714195 379.326234 
L 580.099323 378.295553 
L 580.403631 377.481162 
L 580.597212 377.029247 
L 581.275629 375.447951 
L 585.919666 364.61749 
L 587.620538 361.013866 
L 588.328067 359.431754 
L 592.764239 349.491111 
L 593.638549 347.433413 
L 597.045464 340.039931 
L 601.831795 329.559085 
L 606.378836 319.34079 
L 608.83077 313.83047 
L 611.190198 308.575763 
L 618.893165 291.018672 
L 620.845435 286.723436 
L 619.792371 288.444442 
L 621.398698 284.906523 
L 622.636364 282.180203 
L 622.164723 282.160342 
L 618.694007 282.015326 
L 613.373458 281.792905 
L 598.495756 281.172304 
L 596.390037 282.820258 
L 594.241194 281.795762 
L 591.984202 281.030553 
L 589.655654 280.519598 
L 589.341952 280.489125 
L 587.286431 280.285342 
L 568.50283 279.478777 
L 567.74347 279.424907 
L 567.356308 279.398379 
L 561.581532 278.9919 
L 557.530617 278.70527 
L 553.314146 278.405988 
L 553.171443 278.393745 
L 548.548765 278.067664 
L 546.97019 277.957338 
L 547.049499 276.937195 
L 546.775112 276.918422 
L 544.739589 276.780208 
L 539.397002 276.417397 
L 535.491239 276.151173 
L 533.095489 275.953239 
L 530.520578 275.735579 
L 527.945667 275.517784 
L 526.28683 275.379434 
L 523.981408 275.187077 
L 522.16504 275.044238 
L 521.13075 274.945884 
L 517.368915 274.624428 
L 514.311888 274.3631 
L 514.056546 274.341879 
L 513.528314 274.296442 
L 512.770276 274.23611 
L 511.69739 274.150066 
L 511.106717 274.100685 
L 496.886073 272.900837 
L 485.30183 271.914296 
L 471.939309 270.800151 
L 471.888295 271.405789 
L 453.334189 269.837689 
L 440.583155 268.751432 
L 435.499855 268.321419 
L 430.876905 267.9314 
L 424.096677 267.39691 
L 409.34753 266.234473 
L 409.400176 265.613871 
L 405.574675 265.92594 
L 402.215102 266.476755 
L 398.228669 267.523017 
L 397.711456 267.679187 
L 397.432308 267.766659 
L 397.290013 267.811279 
L 397.114933 268.719327 
L 396.451752 268.901209 
L 395.195993 269.267693 
L 393.949485 269.654719 
L 393.377313 269.837008 
L 392.957774 269.658936 
L 391.663789 269.600304 
L 376.914777 274.291137 
L 374.451417 275.075391 
L 372.384876 275.73245 
L 355.674753 281.042932 
L 354.502249 281.416626 
L 350.229186 282.778358 
L 348.348745 283.377738 
L 343.813266 284.822997 
L 339.621282 286.157929 
L 337.849262 286.722347 
L 334.991393 287.632708 
L 334.560292 287.769969 
L 334.315425 287.770786 
L 331.889882 285.016305 
L 331.85084 284.971957 
L 331.71249 285.094527 
L 331.53088 285.152207 
L 331.271866 285.234373 
L 329.749474 283.960793 
L 329.692746 283.896856 
L 329.115541 283.246734 
L 324.584007 278.138947 
L 324.185827 277.690161 
L 323.395723 276.79939 
L 322.496517 275.785913 
L 321.828983 275.033491 
L 319.301141 272.184193 
L 318.584633 271.376541 
L 318.535388 271.321038 
L 312.041927 264.08427 
L 311.516959 263.499174 
L 311.162719 263.103442 
L 312.046144 262.71492 
L 311.565093 262.052028 
L 311.175234 261.5148 
L 311.466353 261.442836 
L 310.996617 260.927392 
L 309.141207 258.894316 
L 307.299808 256.875933 
L 305.458273 254.85891 
L 303.615514 252.837807 
L 301.77806 250.825001 
L 300.769344 249.719019 
L 299.939246 248.809475 
L 298.904683 248.28097 
L 298.419575 248.039096 
L 297.567574 247.918159 
L 294.516669 248.053244 
L 292.885448 248.125072 
L 292.210431 248.154864 
L 291.95781 248.166019 
L 291.00419 248.208054 
L 295.741684 245.040429 
L 296.84753 244.301067 
L 295.418459 242.057951 
L 293.956332 239.762596 
L 292.453258 237.402488 
L 290.989906 235.102916 
L 287.670736 229.892421 
L 287.439609 229.528794 
L 287.390771 229.451797 
L 286.86458 228.584832 
L 286.819415 228.513957 
L 286.591145 228.155227 
L 286.555503 228.100132 
L 284.448832 224.795381 
L 283.90169 223.937667 
L 282.986705 222.502611 
L 281.525802 220.211337 
L 280.915403 219.254316 
L 280.065035 217.921424 
L 279.401038 216.877475 
L 279.159436 216.496707 
L 278.687523 215.75408 
L 278.602772 215.628654 
L 277.390545 213.727671 
L 277.140644 213.33602 
L 276.549291 212.408791 
L 275.678517 211.04325 
L 275.387398 210.586437 
L 274.21639 208.749255 
L 273.192166 207.144017 
L 271.888794 205.101147 
L 271.226565 204.063048 
L 271.095834 203.858448 
L 270.535225 202.979512 
L 265.927238 204.917089 
L 265.358097 203.088371 
L 265.035515 202.051875 
L 263.716363 202.606226 
L 260.44875 203.980337 
L 258.129861 204.955043 
L 257.941994 205.034489 
L 257.754126 205.113799 
L 256.43511 205.668286 
L 255.435373 206.088505 
L 254.275248 206.575246 
L 253.11662 207.063211 
L 252.928753 207.142657 
L 252.740886 207.220606 
L 250.609864 208.117227 
L 248.478978 209.012623 
L 248.29111 209.091933 
L 248.103243 209.171379 
L 245.78449 210.146085 
L 245.043632 210.457474 
L 243.465601 211.120655 
L 243.277733 211.200101 
L 243.089866 211.278186 
L 240.646367 212.306219 
L 238.354277 212.948178 
L 236.456151 213.479267 
L 236.066132 213.588369 
L 235.145977 213.846023 
L 234.756911 213.954581 
L 232.920953 214.468801 
L 230.694569 215.091579 
L 228.468049 215.715718 
L 226.241665 216.338496 
L 224.015282 216.961274 
L 222.283937 217.446518 
L 218.716907 218.536176 
L 217.055621 219.20371 
L 214.631983 220.179097 
L 212.213923 221.150538 
L 209.797359 222.121979 
L 207.375082 223.096005 
L 205.586329 223.815506 
L 203.910896 224.546025 
L 202.96775 224.957265 
L 202.657721 225.096975 
L 199.480166 226.519108 
L 196.773299 227.731199 
L 194.273616 228.846703 
L 191.771077 229.964793 
L 186.488074 232.594119 
L 185.739462 232.903603 
L 183.153804 234.246698 
L 179.952305 235.839013 
L 178.156615 236.739579 
L 176.182988 237.725576 
L 172.644254 239.480727 
L 171.436652 240.065687 
L 170.962835 240.295182 
L 170.834552 240.343883 
L 169.162927 240.978088 
L 165.346133 242.463886 
L 163.241094 243.269362 
L 159.149505 244.783863 
L 158.334642 245.219998 
L 156.572961 245.846722 
L 155.506702 246.263947 
L 150.659154 248.255395 
L 148.789188 249.021012 
L 146.406981 250.003526 
L 144.145424 250.936279 
L 139.741629 252.824747 
L 137.134477 253.602743 
L 134.528006 254.380468 
L 131.282975 255.34878 
L 130.686453 255.52522 
L 128.522782 256.169492 
L 123.271068 257.734872 
L 120.261926 258.636118 
L 117.265844 259.532603 
L 116.653497 259.713452 
L 116.629734 259.72047 
L 116.413027 259.790393 
L 115.363636 260.12899 
L 116.047627 261.042172 
L 116.660751 261.860742 
L 118.754226 261.232795 
L 118.848636 261.359309 
L 118.929306 261.467323 
L 118.958418 261.507318 
L 130.419956 277.67234 
L 131.423774 279.090119 
L 133.193617 281.58953 
L 136.475769 286.555525 
L 136.024278 286.803017 
L 135.815461 286.914568 
L 135.909327 287.052373 
L 136.012579 287.204055 
L 137.764601 289.800868 
L 140.249864 293.48489 
L 141.119685 295.026327 
L 141.206477 295.184402 
L 141.626288 295.928253 
L 142.906669 298.190279 
L 143.595017 299.405907 
L 144.353561 300.500462 
L 145.901119 302.736232 
L 147.47262 305.005196 
L 148.969165 307.275384 
L 150.467206 309.545708 
L 153.054496 313.469019 
L 153.677275 314.412709 
L 154.233803 315.257091 
L 154.750744 316.040937 
L 155.632672 317.37723 
L 159.133588 322.684991 
L 158.749556 323.493868 
L 158.773226 323.531143 
L 158.722348 323.565424 
L 158.899469 323.831377 
L 159.713465 325.054167 
L 160.653215 326.465865 
L 161.54852 324.59196 
L 163.265853 327.342495 
L 164.836674 329.85619 
L 166.052438 331.659906 
L 169.684902 337.058676 
L 171.535823 339.796832 
L 177.944805 349.327867 
L 179.474271 351.590573 
L 180.994214 353.846341 
L 181.565706 354.693716 
L 182.62802 356.271475 
L 182.677402 356.315959 
L 183.63864 357.77074 
L 184.132047 358.291626 
L 186.12295 360.394353 
L 188.256421 362.648216 
L 190.000961 364.30991 
L 190.81079 365.081513 
L 191.08613 365.343792 
L 191.399695 365.642258 
L 193.170355 367.328574 
L 194.571809 368.54529 
L 196.073796 369.881583 
L 198.006883 371.621226 
L 198.669384 372.217477 
L 198.936017 372.429287 
L 199.543695 372.95371 
L 199.961193 373.392838 
L 202.444415 376.005023 
L 203.821247 377.453275 
L 206.137824 379.836646 
L 207.414124 381.079209 
L 209.03079 382.659553 
L 212.341798 385.896284 
L 213.888268 387.407793 
L 215.302782 388.790747 
L 215.491602 388.975213 
L 217.997406 391.424834 
L 218.847094 392.255341 
L 219.79228 393.179305 
L 221.432344 394.782639 
L 221.531379 394.870247 
L 221.633197 396.029458 
L 222.995113 397.387094 
L 223.920192 398.309266 
L 224.423121 398.810155 
L 224.482841 398.744721 
L 224.50828 398.766895 
L 224.534943 398.793286 
L 225.228733 398.078683 
L 225.344228 398.09664 
L 227.362203 398.407757 
L 228.122243 398.143437 
L 228.469138 398.570321 
L 230.164977 400.660668 
L 231.129888 401.848953 
L 231.862584 402.518527 
L 234.091553 404.619077 
L 235.660878 406.083381 
L 237.254009 407.569723 
L 238.86292 409.070893 
L 238.543777 409.328819 
L 238.22613 409.585249 
L 247.038072 417.790874 
L 254.602826 424.925478 
L 254.995565 424.229648 
L 258.705434 427.815179 
L 258.760665 427.868914 
L 265.775557 434.657711 
L 268.151465 436.939433 
L 268.314962 437.096449 
L 269.092959 437.347438 
L 268.733004 439.094835 
L 269.100713 439.492472 
L 270.515635 440.828901 
L 272.280853 442.4959 
L 275.578802 445.610606 
L 283.861015 453.491918 
L 290.173819 459.525166 
L 290.836184 460.158147 
L 299.711384 468.330987 
L 303.846913 472.028068 
L 309.325401 477.283727 
L 312.274278 480.003382 
L 322.23519 489.529927 
L 323.011282 489.842541 
L 324.322408 491.068643 
L 326.313584 492.9465 
L 328.190896 494.716888 
L 330.177175 496.590119 
L 332.268066 498.561842 
L 334.909635 501.05309 
L 336.862312 502.894489 
L 337.565624 503.557806 
L 337.905717 503.878581 
L 338.363074 504.289958 
L 339.142431 505.06088 
L 340.620611 506.393228 
L 343.69437 509.244703 
L 345.771929 511.172621 
L 346.430349 511.783564 
L 346.639302 511.987484 
L 350.00731 515.694224 
L 357.955416 523.131375 
L 359.330888 524.403594 
L 359.840483 524.931554 
L 360.068073 525.148125 
L 360.218666 525.096975 
L 360.317973 525.063238 
L 360.677928 524.940941 
L 363.365886 524.027996 
L 363.507228 523.979974 
L 365.287818 523.375017 
L 370.134958 521.787464 
L 384.57707 517.814499 
L 390.167652 516.697362 
L 394.631439 515.922358 
L 399.008434 515.280807 
L 401.772165 515.072806 
L 402.699258 515.003019 
L 416.874601 514.11388 
L 418.941685 514.07715 
L 421.091616 514.039196 
L 424.526827 514.269371 
L 425.74191 514.350721 
L 426.7728 514.419828 
L 430.905608 514.696663 
L 435.317021 514.699112 
L 439.840936 514.352489 
L 440.085123 514.333852 
L 456.754571 513.0566 
L 462.440379 512.637741 
L 467.046189 512.298465 
L 472.382654 511.647799 
L 473.731055 511.483058 
L 475.75175 511.237239 
L 477.964122 510.705334 
L 481.118144 509.946518 
L 481.211873 509.823541 
L 481.407223 509.567383 
L 482.332955 508.353115 
L 482.558233 508.057643 
L 483.171761 507.252847 
L 483.800796 506.433767 
L 485.669675 504.014074 
L 486.272727 503.233085 
L 490.041909 498.351528 
L 499.006348 486.549217 
L 503.411911 480.929523 
L 509.615886 473.013929 
L 515.748712 465.189481 
L 515.738509 464.724098 
L 516.332039 464.343602 
L 520.021503 459.506529 
L 522.735036 455.948885 
L 524.320413 453.870646 
L 524.671933 453.41084 
L 527.124819 450.109899 
L 528.569669 448.167833 
L 529.024033 447.575527 
L 533.871581 441.257962 
L 541.77942 431.014773 
L 542.787728 429.711809 
L 548.668614 422.119168 
L 549.488645 421.058894 
L 549.559657 420.967749 
L 550.122483 420.09945 
L 550.606599 419.35258 
L 550.675978 419.208381 
L 550.911594 419.195185 
L 551.896367 419.050714 
L 552.527579 418.193544 
" clip-path="url(#pe8ceb77b2f)" style="fill: #d3d3d3"/>
   </g>
   <g id="PatchCollection_2">
    <path d="M 272.926589 366.474941 
L 272.926589 366.338904 
L 272.790552 366.338904 
L 272.790552 366.474941 
L 272.926589 366.474941 
" clip-path="url(#pe8ceb77b2f)" style="fill: #ff0000; fill-opacity: 0.7; stroke: #000000; stroke-opacity: 0.7; stroke-width: 0.5"/>
    <path d="M 463.282952 436.696179 
L 463.282952 436.560142 
L 463.146915 436.560142 
L 463.146915 436.696179 
L 463.282952 436.696179 
" clip-path="url(#pe8ceb77b2f)" style="fill: #ff0000; fill-opacity: 0.7; stroke: #000000; stroke-opacity: 0.7; stroke-width: 0.5"/>
    <path d="M 428.393292 423.508086 
L 428.393292 423.372049 
L 428.257255 423.372049 
L 428.257255 423.508086 
L 428.393292 423.508086 
" clip-path="url(#pe8ceb77b2f)" style="fill: #ff0000; fill-opacity: 0.7; stroke: #000000; stroke-opacity: 0.7; stroke-width: 0.5"/>
    <path d="M 350.310271 429.578118 
L 350.310271 429.442081 
L 350.174234 429.442081 
L 350.174234 429.578118 
L 350.310271 429.578118 
" clip-path="url(#pe8ceb77b2f)" style="fill: #ff0000; fill-opacity: 0.7; stroke: #000000; stroke-opacity: 0.7; stroke-width: 0.5"/>
    <path d="M 306.595625 378.439527 
L 306.595625 378.30349 
L 306.459588 378.30349 
L 306.459588 378.439527 
L 306.595625 378.439527 
" clip-path="url(#pe8ceb77b2f)" style="fill: #ff0000; fill-opacity: 0.7; stroke: #000000; stroke-opacity: 0.7; stroke-width: 0.5"/>
    <path d="M 449.955966 296.77592 
L 449.955966 296.639883 
L 449.819928 296.639883 
L 449.819928 296.77592 
L 449.955966 296.77592 
" clip-path="url(#pe8ceb77b2f)" style="fill: #ff0000; fill-opacity: 0.7; stroke: #000000; stroke-opacity: 0.7; stroke-width: 0.5"/>
    <path d="M 260.162137 254.097715 
L 260.162137 253.961678 
L 260.0261 253.961678 
L 260.0261 254.097715 
L 260.162137 254.097715 
" clip-path="url(#pe8ceb77b2f)" style="fill: #ff0000; fill-opacity: 0.7; stroke: #000000; stroke-opacity: 0.7; stroke-width: 0.5"/>
    <path d="M 428.393142 423.508219 
L 428.393142 423.372182 
L 428.257105 423.372182 
L 428.257105 423.508219 
L 428.393142 423.508219 
" clip-path="url(#pe8ceb77b2f)" style="fill: #ff0000; fill-opacity: 0.7; stroke: #000000; stroke-opacity: 0.7; stroke-width: 0.5"/>
    <path d="M 389.509782 403.540506 
L 389.509782 403.404469 
L 389.373745 403.404469 
L 389.373745 403.540506 
L 389.509782 403.540506 
" clip-path="url(#pe8ceb77b2f)" style="fill: #ff0000; fill-opacity: 0.7; stroke: #000000; stroke-opacity: 0.7; stroke-width: 0.5"/>
    <path d="M 416.513725 424.844038 
L 416.513725 424.708 
L 416.377688 424.708 
L 416.377688 424.844038 
L 416.513725 424.844038 
" clip-path="url(#pe8ceb77b2f)" style="fill: #ff0000; fill-opacity: 0.7; stroke: #000000; stroke-opacity: 0.7; stroke-width: 0.5"/>
    <path d="M 209.099762 243.713271 
L 209.099762 243.577234 
L 208.963725 243.577234 
L 208.963725 243.713271 
L 209.099762 243.713271 
" clip-path="url(#pe8ceb77b2f)" style="fill: #ff0000; fill-opacity: 0.7; stroke: #000000; stroke-opacity: 0.7; stroke-width: 0.5"/>
    <path d="M 205.234579 353.82778 
L 205.234579 353.691743 
L 205.098542 353.691743 
L 205.098542 353.82778 
L 205.234579 353.82778 
" clip-path="url(#pe8ceb77b2f)" style="fill: #ff0000; fill-opacity: 0.7; stroke: #000000; stroke-opacity: 0.7; stroke-width: 0.5"/>
    <path d="M 254.666509 232.896231 
L 254.666509 232.760194 
L 254.530472 232.760194 
L 254.530472 232.896231 
L 254.666509 232.896231 
" clip-path="url(#pe8ceb77b2f)" style="fill: #ff0000; fill-opacity: 0.7; stroke: #000000; stroke-opacity: 0.7; stroke-width: 0.5"/>
    <path d="M 283.593979 357.442264 
L 283.593979 357.306227 
L 283.457942 357.306227 
L 283.457942 357.442264 
L 283.593979 357.442264 
" clip-path="url(#pe8ceb77b2f)" style="fill: #ff0000; fill-opacity: 0.7; stroke: #000000; stroke-opacity: 0.7; stroke-width: 0.5"/>
    <path d="M 214.986576 230.818858 
L 214.986576 230.68282 
L 214.850539 230.68282 
L 214.850539 230.818858 
L 214.986576 230.818858 
" clip-path="url(#pe8ceb77b2f)" style="fill: #ff0000; fill-opacity: 0.7; stroke: #000000; stroke-opacity: 0.7; stroke-width: 0.5"/>
    <path d="M 242.436544 358.847096 
L 242.436544 358.711058 
L 242.300506 358.711058 
L 242.300506 358.847096 
L 242.436544 358.847096 
" clip-path="url(#pe8ceb77b2f)" style="fill: #ff0000; fill-opacity: 0.7; stroke: #000000; stroke-opacity: 0.7; stroke-width: 0.5"/>
    <path d="M 286.855575 288.629327 
L 286.855575 288.49329 
L 286.719537 288.49329 
L 286.719537 288.629327 
L 286.855575 288.629327 
" clip-path="url(#pe8ceb77b2f)" style="fill: #ff0000; fill-opacity: 0.7; stroke: #000000; stroke-opacity: 0.7; stroke-width: 0.5"/>
    <path d="M 169.247251 255.975404 
L 169.247251 255.839367 
L 169.111214 255.839367 
L 169.111214 255.975404 
L 169.247251 255.975404 
" clip-path="url(#pe8ceb77b2f)" style="fill: #ff0000; fill-opacity: 0.7; stroke: #000000; stroke-opacity: 0.7; stroke-width: 0.5"/>
    <path d="M 153.705713 270.845798 
L 153.705713 270.709761 
L 153.569676 270.709761 
L 153.569676 270.845798 
L 153.705713 270.845798 
" clip-path="url(#pe8ceb77b2f)" style="fill: #ff0000; fill-opacity: 0.7; stroke: #000000; stroke-opacity: 0.7; stroke-width: 0.5"/>
    <path d="M 350.310271 429.578118 
L 350.310271 429.442081 
L 350.174234 429.442081 
L 350.174234 429.578118 
L 350.310271 429.578118 
" clip-path="url(#pe8ceb77b2f)" style="fill: #ff0000; fill-opacity: 0.7; stroke: #000000; stroke-opacity: 0.7; stroke-width: 0.5"/>
    <path d="M 352.355644 430.536108 
L 352.355644 430.40007 
L 352.219606 430.40007 
L 352.219606 430.536108 
L 352.355644 430.536108 
" clip-path="url(#pe8ceb77b2f)" style="fill: #ff0000; fill-opacity: 0.7; stroke: #000000; stroke-opacity: 0.7; stroke-width: 0.5"/>
    <path d="M 299.762798 371.753512 
L 299.762798 371.617474 
L 299.626761 371.617474 
L 299.626761 371.753512 
L 299.762798 371.753512 
" clip-path="url(#pe8ceb77b2f)" style="fill: #ff0000; fill-opacity: 0.7; stroke: #000000; stroke-opacity: 0.7; stroke-width: 0.5"/>
    <path d="M 254.666509 232.896231 
L 254.666509 232.760194 
L 254.530472 232.760194 
L 254.530472 232.896231 
L 254.666509 232.896231 
" clip-path="url(#pe8ceb77b2f)" style="fill: #ff0000; fill-opacity: 0.7; stroke: #000000; stroke-opacity: 0.7; stroke-width: 0.5"/>
    <path d="M 205.234579 353.82778 
L 205.234579 353.691743 
L 205.098542 353.691743 
L 205.098542 353.82778 
L 205.234579 353.82778 
" clip-path="url(#pe8ceb77b2f)" style="fill: #ff0000; fill-opacity: 0.7; stroke: #000000; stroke-opacity: 0.7; stroke-width: 0.5"/>
    <path d="M 433.848174 425.155587 
L 433.848174 425.01955 
L 433.712136 425.01955 
L 433.712136 425.155587 
L 433.848174 425.155587 
" clip-path="url(#pe8ceb77b2f)" style="fill: #ff0000; fill-opacity: 0.7; stroke: #000000; stroke-opacity: 0.7; stroke-width: 0.5"/>
    <path d="M 169.247251 255.975389 
L 169.247251 255.839351 
L 169.111214 255.839351 
L 169.111214 255.975389 
L 169.247251 255.975389 
" clip-path="url(#pe8ceb77b2f)" style="fill: #ff0000; fill-opacity: 0.7; stroke: #000000; stroke-opacity: 0.7; stroke-width: 0.5"/>
    <path d="M 433.848174 425.155587 
L 433.848174 425.01955 
L 433.712136 425.01955 
L 433.712136 425.155587 
L 433.848174 425.155587 
" clip-path="url(#pe8ceb77b2f)" style="fill: #ff0000; fill-opacity: 0.7; stroke: #000000; stroke-opacity: 0.7; stroke-width: 0.5"/>
    <path d="M 254.666509 232.896231 
L 254.666509 232.760194 
L 254.530472 232.760194 
L 254.530472 232.896231 
L 254.666509 232.896231 
" clip-path="url(#pe8ceb77b2f)" style="fill: #ff0000; fill-opacity: 0.7; stroke: #000000; stroke-opacity: 0.7; stroke-width: 0.5"/>
    <path d="M 343.278096 383.406414 
L 343.278096 383.270377 
L 343.142059 383.270377 
L 343.142059 383.406414 
L 343.278096 383.406414 
" clip-path="url(#pe8ceb77b2f)" style="fill: #ff0000; fill-opacity: 0.7; stroke: #000000; stroke-opacity: 0.7; stroke-width: 0.5"/>
   </g>
   <g id="matplotlib.axis_1">
    <g id="xtick_1">
     <g id="line2d_1">
      <defs>
       <path id="m58b6cde538" d="M 0 0 
L 0 3.5 
" style="stroke: #000000; stroke-width: 0.8"/>
      </defs>
      <g>
       <use xlink:href="#m58b6cde538" x="147.773126" y="541.302938" style="stroke: #000000; stroke-width: 0.8"/>
      </g>
     </g>
     <g id="text_1">
      <!-- 386500 -->
      <g transform="translate(128.685626 555.901375) scale(0.1 -0.1)">
       <defs>
        <path id="DejaVuSans-33" d="M 2597 2516 
Q 3050 2419 3304 2112 
Q 3559 1806 3559 1356 
Q 3559 666 3084 287 
Q 2609 -91 1734 -91 
Q 1441 -91 1130 -33 
Q 819 25 488 141 
L 488 750 
Q 750 597 1062 519 
Q 1375 441 1716 441 
Q 2309 441 2620 675 
Q 2931 909 2931 1356 
Q 2931 1769 2642 2001 
Q 2353 2234 1838 2234 
L 1294 2234 
L 1294 2753 
L 1863 2753 
Q 2328 2753 2575 2939 
Q 2822 3125 2822 3475 
Q 2822 3834 2567 4026 
Q 2313 4219 1838 4219 
Q 1578 4219 1281 4162 
Q 984 4106 628 3988 
L 628 4550 
Q 988 4650 1302 4700 
Q 1616 4750 1894 4750 
Q 2613 4750 3031 4423 
Q 3450 4097 3450 3541 
Q 3450 3153 3228 2886 
Q 3006 2619 2597 2516 
z
" transform="scale(0.015625)"/>
        <path id="DejaVuSans-38" d="M 2034 2216 
Q 1584 2216 1326 1975 
Q 1069 1734 1069 1313 
Q 1069 891 1326 650 
Q 1584 409 2034 409 
Q 2484 409 2743 651 
Q 3003 894 3003 1313 
Q 3003 1734 2745 1975 
Q 2488 2216 2034 2216 
z
M 1403 2484 
Q 997 2584 770 2862 
Q 544 3141 544 3541 
Q 544 4100 942 4425 
Q 1341 4750 2034 4750 
Q 2731 4750 3128 4425 
Q 3525 4100 3525 3541 
Q 3525 3141 3298 2862 
Q 3072 2584 2669 2484 
Q 3125 2378 3379 2068 
Q 3634 1759 3634 1313 
Q 3634 634 3220 271 
Q 2806 -91 2034 -91 
Q 1263 -91 848 271 
Q 434 634 434 1313 
Q 434 1759 690 2068 
Q 947 2378 1403 2484 
z
M 1172 3481 
Q 1172 3119 1398 2916 
Q 1625 2713 2034 2713 
Q 2441 2713 2670 2916 
Q 2900 3119 2900 3481 
Q 2900 3844 2670 4047 
Q 2441 4250 2034 4250 
Q 1625 4250 1398 4047 
Q 1172 3844 1172 3481 
z
" transform="scale(0.015625)"/>
        <path id="DejaVuSans-36" d="M 2113 2584 
Q 1688 2584 1439 2293 
Q 1191 2003 1191 1497 
Q 1191 994 1439 701 
Q 1688 409 2113 409 
Q 2538 409 2786 701 
Q 3034 994 3034 1497 
Q 3034 2003 2786 2293 
Q 2538 2584 2113 2584 
z
M 3366 4563 
L 3366 3988 
Q 3128 4100 2886 4159 
Q 2644 4219 2406 4219 
Q 1781 4219 1451 3797 
Q 1122 3375 1075 2522 
Q 1259 2794 1537 2939 
Q 1816 3084 2150 3084 
Q 2853 3084 3261 2657 
Q 3669 2231 3669 1497 
Q 3669 778 3244 343 
Q 2819 -91 2113 -91 
Q 1303 -91 875 529 
Q 447 1150 447 2328 
Q 447 3434 972 4092 
Q 1497 4750 2381 4750 
Q 2619 4750 2861 4703 
Q 3103 4656 3366 4563 
z
" transform="scale(0.015625)"/>
        <path id="DejaVuSans-35" d="M 691 4666 
L 3169 4666 
L 3169 4134 
L 1269 4134 
L 1269 2991 
Q 1406 3038 1543 3061 
Q 1681 3084 1819 3084 
Q 2600 3084 3056 2656 
Q 3513 2228 3513 1497 
Q 3513 744 3044 326 
Q 2575 -91 1722 -91 
Q 1428 -91 1123 -41 
Q 819 9 494 109 
L 494 744 
Q 775 591 1075 516 
Q 1375 441 1709 441 
Q 2250 441 2565 725 
Q 2881 1009 2881 1497 
Q 2881 1984 2565 2268 
Q 2250 2553 1709 2553 
Q 1456 2553 1204 2497 
Q 953 2441 691 2322 
L 691 4666 
z
" transform="scale(0.015625)"/>
        <path id="DejaVuSans-30" d="M 2034 4250 
Q 1547 4250 1301 3770 
Q 1056 3291 1056 2328 
Q 1056 1369 1301 889 
Q 1547 409 2034 409 
Q 2525 409 2770 889 
Q 3016 1369 3016 2328 
Q 3016 3291 2770 3770 
Q 2525 4250 2034 4250 
z
M 2034 4750 
Q 2819 4750 3233 4129 
Q 3647 3509 3647 2328 
Q 3647 1150 3233 529 
Q 2819 -91 2034 -91 
Q 1250 -91 836 529 
Q 422 1150 422 2328 
Q 422 3509 836 4129 
Q 1250 4750 2034 4750 
z
" transform="scale(0.015625)"/>
       </defs>
       <use xlink:href="#DejaVuSans-33"/>
       <use xlink:href="#DejaVuSans-38" x="63.623047"/>
       <use xlink:href="#DejaVuSans-36" x="127.246094"/>
       <use xlink:href="#DejaVuSans-35" x="190.869141"/>
       <use xlink:href="#DejaVuSans-30" x="254.492188"/>
       <use xlink:href="#DejaVuSans-30" x="318.115234"/>
      </g>
     </g>
    </g>
    <g id="xtick_2">
     <g id="line2d_2">
      <g>
       <use xlink:href="#m58b6cde538" x="215.7917" y="541.302938" style="stroke: #000000; stroke-width: 0.8"/>
      </g>
     </g>
     <g id="text_2">
      <!-- 387000 -->
      <g transform="translate(196.7042 555.901375) scale(0.1 -0.1)">
       <defs>
        <path id="DejaVuSans-37" d="M 525 4666 
L 3525 4666 
L 3525 4397 
L 1831 0 
L 1172 0 
L 2766 4134 
L 525 4134 
L 525 4666 
z
" transform="scale(0.015625)"/>
       </defs>
       <use xlink:href="#DejaVuSans-33"/>
       <use xlink:href="#DejaVuSans-38" x="63.623047"/>
       <use xlink:href="#DejaVuSans-37" x="127.246094"/>
       <use xlink:href="#DejaVuSans-30" x="190.869141"/>
       <use xlink:href="#DejaVuSans-30" x="254.492188"/>
       <use xlink:href="#DejaVuSans-30" x="318.115234"/>
      </g>
     </g>
    </g>
    <g id="xtick_3">
     <g id="line2d_3">
      <g>
       <use xlink:href="#m58b6cde538" x="283.810273" y="541.302938" style="stroke: #000000; stroke-width: 0.8"/>
      </g>
     </g>
     <g id="text_3">
      <!-- 387500 -->
      <g transform="translate(264.722773 555.901375) scale(0.1 -0.1)">
       <use xlink:href="#DejaVuSans-33"/>
       <use xlink:href="#DejaVuSans-38" x="63.623047"/>
       <use xlink:href="#DejaVuSans-37" x="127.246094"/>
       <use xlink:href="#DejaVuSans-35" x="190.869141"/>
       <use xlink:href="#DejaVuSans-30" x="254.492188"/>
       <use xlink:href="#DejaVuSans-30" x="318.115234"/>
      </g>
     </g>
    </g>
    <g id="xtick_4">
     <g id="line2d_4">
      <g>
       <use xlink:href="#m58b6cde538" x="351.828847" y="541.302938" style="stroke: #000000; stroke-width: 0.8"/>
      </g>
     </g>
     <g id="text_4">
      <!-- 388000 -->
      <g transform="translate(332.741347 555.901375) scale(0.1 -0.1)">
       <use xlink:href="#DejaVuSans-33"/>
       <use xlink:href="#DejaVuSans-38" x="63.623047"/>
       <use xlink:href="#DejaVuSans-38" x="127.246094"/>
       <use xlink:href="#DejaVuSans-30" x="190.869141"/>
       <use xlink:href="#DejaVuSans-30" x="254.492188"/>
       <use xlink:href="#DejaVuSans-30" x="318.115234"/>
      </g>
     </g>
    </g>
    <g id="xtick_5">
     <g id="line2d_5">
      <g>
       <use xlink:href="#m58b6cde538" x="419.847421" y="541.302938" style="stroke: #000000; stroke-width: 0.8"/>
      </g>
     </g>
     <g id="text_5">
      <!-- 388500 -->
      <g transform="translate(400.759921 555.901375) scale(0.1 -0.1)">
       <use xlink:href="#DejaVuSans-33"/>
       <use xlink:href="#DejaVuSans-38" x="63.623047"/>
       <use xlink:href="#DejaVuSans-38" x="127.246094"/>
       <use xlink:href="#DejaVuSans-35" x="190.869141"/>
       <use xlink:href="#DejaVuSans-30" x="254.492188"/>
       <use xlink:href="#DejaVuSans-30" x="318.115234"/>
      </g>
     </g>
    </g>
    <g id="xtick_6">
     <g id="line2d_6">
      <g>
       <use xlink:href="#m58b6cde538" x="487.865994" y="541.302938" style="stroke: #000000; stroke-width: 0.8"/>
      </g>
     </g>
     <g id="text_6">
      <!-- 389000 -->
      <g transform="translate(468.778494 555.901375) scale(0.1 -0.1)">
       <defs>
        <path id="DejaVuSans-39" d="M 703 97 
L 703 672 
Q 941 559 1184 500 
Q 1428 441 1663 441 
Q 2288 441 2617 861 
Q 2947 1281 2994 2138 
Q 2813 1869 2534 1725 
Q 2256 1581 1919 1581 
Q 1219 1581 811 2004 
Q 403 2428 403 3163 
Q 403 3881 828 4315 
Q 1253 4750 1959 4750 
Q 2769 4750 3195 4129 
Q 3622 3509 3622 2328 
Q 3622 1225 3098 567 
Q 2575 -91 1691 -91 
Q 1453 -91 1209 -44 
Q 966 3 703 97 
z
M 1959 2075 
Q 2384 2075 2632 2365 
Q 2881 2656 2881 3163 
Q 2881 3666 2632 3958 
Q 2384 4250 1959 4250 
Q 1534 4250 1286 3958 
Q 1038 3666 1038 3163 
Q 1038 2656 1286 2365 
Q 1534 2075 1959 2075 
z
" transform="scale(0.015625)"/>
       </defs>
       <use xlink:href="#DejaVuSans-33"/>
       <use xlink:href="#DejaVuSans-38" x="63.623047"/>
       <use xlink:href="#DejaVuSans-39" x="127.246094"/>
       <use xlink:href="#DejaVuSans-30" x="190.869141"/>
       <use xlink:href="#DejaVuSans-30" x="254.492188"/>
       <use xlink:href="#DejaVuSans-30" x="318.115234"/>
      </g>
     </g>
    </g>
    <g id="xtick_7">
     <g id="line2d_7">
      <g>
       <use xlink:href="#m58b6cde538" x="555.884568" y="541.302938" style="stroke: #000000; stroke-width: 0.8"/>
      </g>
     </g>
     <g id="text_7">
      <!-- 389500 -->
      <g transform="translate(536.797068 555.901375) scale(0.1 -0.1)">
       <use xlink:href="#DejaVuSans-33"/>
       <use xlink:href="#DejaVuSans-38" x="63.623047"/>
       <use xlink:href="#DejaVuSans-39" x="127.246094"/>
       <use xlink:href="#DejaVuSans-35" x="190.869141"/>
       <use xlink:href="#DejaVuSans-30" x="254.492188"/>
       <use xlink:href="#DejaVuSans-30" x="318.115234"/>
      </g>
     </g>
    </g>
    <g id="xtick_8">
     <g id="line2d_8">
      <g>
       <use xlink:href="#m58b6cde538" x="623.903141" y="541.302938" style="stroke: #000000; stroke-width: 0.8"/>
      </g>
     </g>
     <g id="text_8">
      <!-- 390000 -->
      <g transform="translate(604.815641 555.901375) scale(0.1 -0.1)">
       <use xlink:href="#DejaVuSans-33"/>
       <use xlink:href="#DejaVuSans-39" x="63.623047"/>
       <use xlink:href="#DejaVuSans-30" x="127.246094"/>
       <use xlink:href="#DejaVuSans-30" x="190.869141"/>
       <use xlink:href="#DejaVuSans-30" x="254.492188"/>
       <use xlink:href="#DejaVuSans-30" x="318.115234"/>
      </g>
     </g>
    </g>
   </g>
   <g id="matplotlib.axis_2">
    <g id="ytick_1">
     <g id="line2d_9">
      <defs>
       <path id="m8b2929592d" d="M 0 0 
L -3.5 0 
" style="stroke: #000000; stroke-width: 0.8"/>
      </defs>
      <g>
       <use xlink:href="#m8b2929592d" x="90" y="518.968519" style="stroke: #000000; stroke-width: 0.8"/>
      </g>
     </g>
     <g id="text_9">
      <!-- 5.8280 -->
      <g transform="translate(48.009375 522.767738) scale(0.1 -0.1)">
       <defs>
        <path id="DejaVuSans-2e" d="M 684 794 
L 1344 794 
L 1344 0 
L 684 0 
L 684 794 
z
" transform="scale(0.015625)"/>
        <path id="DejaVuSans-32" d="M 1228 531 
L 3431 531 
L 3431 0 
L 469 0 
L 469 531 
Q 828 903 1448 1529 
Q 2069 2156 2228 2338 
Q 2531 2678 2651 2914 
Q 2772 3150 2772 3378 
Q 2772 3750 2511 3984 
Q 2250 4219 1831 4219 
Q 1534 4219 1204 4116 
Q 875 4013 500 3803 
L 500 4441 
Q 881 4594 1212 4672 
Q 1544 4750 1819 4750 
Q 2544 4750 2975 4387 
Q 3406 4025 3406 3419 
Q 3406 3131 3298 2873 
Q 3191 2616 2906 2266 
Q 2828 2175 2409 1742 
Q 1991 1309 1228 531 
z
" transform="scale(0.015625)"/>
       </defs>
       <use xlink:href="#DejaVuSans-35"/>
       <use xlink:href="#DejaVuSans-2e" x="63.623047"/>
       <use xlink:href="#DejaVuSans-38" x="95.410156"/>
       <use xlink:href="#DejaVuSans-32" x="159.033203"/>
       <use xlink:href="#DejaVuSans-38" x="222.65625"/>
       <use xlink:href="#DejaVuSans-30" x="286.279297"/>
      </g>
     </g>
    </g>
    <g id="ytick_2">
     <g id="line2d_10">
      <g>
       <use xlink:href="#m8b2929592d" x="90" y="450.949945" style="stroke: #000000; stroke-width: 0.8"/>
      </g>
     </g>
     <g id="text_10">
      <!-- 5.8285 -->
      <g transform="translate(48.009375 454.749164) scale(0.1 -0.1)">
       <use xlink:href="#DejaVuSans-35"/>
       <use xlink:href="#DejaVuSans-2e" x="63.623047"/>
       <use xlink:href="#DejaVuSans-38" x="95.410156"/>
       <use xlink:href="#DejaVuSans-32" x="159.033203"/>
       <use xlink:href="#DejaVuSans-38" x="222.65625"/>
       <use xlink:href="#DejaVuSans-35" x="286.279297"/>
      </g>
     </g>
    </g>
    <g id="ytick_3">
     <g id="line2d_11">
      <g>
       <use xlink:href="#m8b2929592d" x="90" y="382.931372" style="stroke: #000000; stroke-width: 0.8"/>
      </g>
     </g>
     <g id="text_11">
      <!-- 5.8290 -->
      <g transform="translate(48.009375 386.73059) scale(0.1 -0.1)">
       <use xlink:href="#DejaVuSans-35"/>
       <use xlink:href="#DejaVuSans-2e" x="63.623047"/>
       <use xlink:href="#DejaVuSans-38" x="95.410156"/>
       <use xlink:href="#DejaVuSans-32" x="159.033203"/>
       <use xlink:href="#DejaVuSans-39" x="222.65625"/>
       <use xlink:href="#DejaVuSans-30" x="286.279297"/>
      </g>
     </g>
    </g>
    <g id="ytick_4">
     <g id="line2d_12">
      <g>
       <use xlink:href="#m8b2929592d" x="90" y="314.912798" style="stroke: #000000; stroke-width: 0.8"/>
      </g>
     </g>
     <g id="text_12">
      <!-- 5.8295 -->
      <g transform="translate(48.009375 318.712017) scale(0.1 -0.1)">
       <use xlink:href="#DejaVuSans-35"/>
       <use xlink:href="#DejaVuSans-2e" x="63.623047"/>
       <use xlink:href="#DejaVuSans-38" x="95.410156"/>
       <use xlink:href="#DejaVuSans-32" x="159.033203"/>
       <use xlink:href="#DejaVuSans-39" x="222.65625"/>
       <use xlink:href="#DejaVuSans-35" x="286.279297"/>
      </g>
     </g>
    </g>
    <g id="ytick_5">
     <g id="line2d_13">
      <g>
       <use xlink:href="#m8b2929592d" x="90" y="246.894224" style="stroke: #000000; stroke-width: 0.8"/>
      </g>
     </g>
     <g id="text_13">
      <!-- 5.8300 -->
      <g transform="translate(48.009375 250.693443) scale(0.1 -0.1)">
       <use xlink:href="#DejaVuSans-35"/>
       <use xlink:href="#DejaVuSans-2e" x="63.623047"/>
       <use xlink:href="#DejaVuSans-38" x="95.410156"/>
       <use xlink:href="#DejaVuSans-33" x="159.033203"/>
       <use xlink:href="#DejaVuSans-30" x="222.65625"/>
       <use xlink:href="#DejaVuSans-30" x="286.279297"/>
      </g>
     </g>
    </g>
    <g id="text_14">
     <!-- 1e6 -->
     <g transform="translate(90 182.897062) scale(0.1 -0.1)">
      <defs>
       <path id="DejaVuSans-31" d="M 794 531 
L 1825 531 
L 1825 4091 
L 703 3866 
L 703 4441 
L 1819 4666 
L 2450 4666 
L 2450 531 
L 3481 531 
L 3481 0 
L 794 0 
L 794 531 
z
" transform="scale(0.015625)"/>
       <path id="DejaVuSans-65" d="M 3597 1894 
L 3597 1613 
L 953 1613 
Q 991 1019 1311 708 
Q 1631 397 2203 397 
Q 2534 397 2845 478 
Q 3156 559 3463 722 
L 3463 178 
Q 3153 47 2828 -22 
Q 2503 -91 2169 -91 
Q 1331 -91 842 396 
Q 353 884 353 1716 
Q 353 2575 817 3079 
Q 1281 3584 2069 3584 
Q 2775 3584 3186 3129 
Q 3597 2675 3597 1894 
z
M 3022 2063 
Q 3016 2534 2758 2815 
Q 2500 3097 2075 3097 
Q 1594 3097 1305 2825 
Q 1016 2553 972 2059 
L 3022 2063 
z
" transform="scale(0.015625)"/>
      </defs>
      <use xlink:href="#DejaVuSans-31"/>
      <use xlink:href="#DejaVuSans-65" x="63.623047"/>
      <use xlink:href="#DejaVuSans-36" x="125.146484"/>
     </g>
    </g>
   </g>
   <g id="patch_3">
    <path d="M 90 541.302938 
L 90 185.897062 
" style="fill: none; stroke: #000000; stroke-width: 0.8; stroke-linejoin: miter; stroke-linecap: square"/>
   </g>
   <g id="patch_4">
    <path d="M 648 541.302938 
L 648 185.897062 
" style="fill: none; stroke: #000000; stroke-width: 0.8; stroke-linejoin: miter; stroke-linecap: square"/>
   </g>
   <g id="patch_5">
    <path d="M 90 541.302938 
L 648 541.302938 
" style="fill: none; stroke: #000000; stroke-width: 0.8; stroke-linejoin: miter; stroke-linecap: square"/>
   </g>
   <g id="patch_6">
    <path d="M 90 185.897062 
L 648 185.897062 
" style="fill: none; stroke: #000000; stroke-width: 0.8; stroke-linejoin: miter; stroke-linecap: square"/>
   </g>
   <g id="text_15">
    <!-- Märkisches_Viertel -->
    <g transform="translate(318.744117 363.908298) scale(0.12 -0.12)">
     <defs>
      <path id="DejaVuSans-4d" d="M 628 4666 
L 1569 4666 
L 2759 1491 
L 3956 4666 
L 4897 4666 
L 4897 0 
L 4281 0 
L 4281 4097 
L 3078 897 
L 2444 897 
L 1241 4097 
L 1241 0 
L 628 0 
L 628 4666 
z
" transform="scale(0.015625)"/>
      <path id="DejaVuSans-e4" d="M 2194 1759 
Q 1497 1759 1228 1600 
Q 959 1441 959 1056 
Q 959 750 1161 570 
Q 1363 391 1709 391 
Q 2188 391 2477 730 
Q 2766 1069 2766 1631 
L 2766 1759 
L 2194 1759 
z
M 3341 1997 
L 3341 0 
L 2766 0 
L 2766 531 
Q 2569 213 2275 61 
Q 1981 -91 1556 -91 
Q 1019 -91 701 211 
Q 384 513 384 1019 
Q 384 1609 779 1909 
Q 1175 2209 1959 2209 
L 2766 2209 
L 2766 2266 
Q 2766 2663 2505 2880 
Q 2244 3097 1772 3097 
Q 1472 3097 1187 3025 
Q 903 2953 641 2809 
L 641 3341 
Q 956 3463 1253 3523 
Q 1550 3584 1831 3584 
Q 2591 3584 2966 3190 
Q 3341 2797 3341 1997 
z
M 2150 4850 
L 2784 4850 
L 2784 4219 
L 2150 4219 
L 2150 4850 
z
M 928 4850 
L 1562 4850 
L 1562 4219 
L 928 4219 
L 928 4850 
z
" transform="scale(0.015625)"/>
      <path id="DejaVuSans-72" d="M 2631 2963 
Q 2534 3019 2420 3045 
Q 2306 3072 2169 3072 
Q 1681 3072 1420 2755 
Q 1159 2438 1159 1844 
L 1159 0 
L 581 0 
L 581 3500 
L 1159 3500 
L 1159 2956 
Q 1341 3275 1631 3429 
Q 1922 3584 2338 3584 
Q 2397 3584 2469 3576 
Q 2541 3569 2628 3553 
L 2631 2963 
z
" transform="scale(0.015625)"/>
      <path id="DejaVuSans-6b" d="M 581 4863 
L 1159 4863 
L 1159 1991 
L 2875 3500 
L 3609 3500 
L 1753 1863 
L 3688 0 
L 2938 0 
L 1159 1709 
L 1159 0 
L 581 0 
L 581 4863 
z
" transform="scale(0.015625)"/>
      <path id="DejaVuSans-69" d="M 603 3500 
L 1178 3500 
L 1178 0 
L 603 0 
L 603 3500 
z
M 603 4863 
L 1178 4863 
L 1178 4134 
L 603 4134 
L 603 4863 
z
" transform="scale(0.015625)"/>
      <path id="DejaVuSans-73" d="M 2834 3397 
L 2834 2853 
Q 2591 2978 2328 3040 
Q 2066 3103 1784 3103 
Q 1356 3103 1142 2972 
Q 928 2841 928 2578 
Q 928 2378 1081 2264 
Q 1234 2150 1697 2047 
L 1894 2003 
Q 2506 1872 2764 1633 
Q 3022 1394 3022 966 
Q 3022 478 2636 193 
Q 2250 -91 1575 -91 
Q 1294 -91 989 -36 
Q 684 19 347 128 
L 347 722 
Q 666 556 975 473 
Q 1284 391 1588 391 
Q 1994 391 2212 530 
Q 2431 669 2431 922 
Q 2431 1156 2273 1281 
Q 2116 1406 1581 1522 
L 1381 1569 
Q 847 1681 609 1914 
Q 372 2147 372 2553 
Q 372 3047 722 3315 
Q 1072 3584 1716 3584 
Q 2034 3584 2315 3537 
Q 2597 3491 2834 3397 
z
" transform="scale(0.015625)"/>
      <path id="DejaVuSans-63" d="M 3122 3366 
L 3122 2828 
Q 2878 2963 2633 3030 
Q 2388 3097 2138 3097 
Q 1578 3097 1268 2742 
Q 959 2388 959 1747 
Q 959 1106 1268 751 
Q 1578 397 2138 397 
Q 2388 397 2633 464 
Q 2878 531 3122 666 
L 3122 134 
Q 2881 22 2623 -34 
Q 2366 -91 2075 -91 
Q 1284 -91 818 406 
Q 353 903 353 1747 
Q 353 2603 823 3093 
Q 1294 3584 2113 3584 
Q 2378 3584 2631 3529 
Q 2884 3475 3122 3366 
z
" transform="scale(0.015625)"/>
      <path id="DejaVuSans-68" d="M 3513 2113 
L 3513 0 
L 2938 0 
L 2938 2094 
Q 2938 2591 2744 2837 
Q 2550 3084 2163 3084 
Q 1697 3084 1428 2787 
Q 1159 2491 1159 1978 
L 1159 0 
L 581 0 
L 581 4863 
L 1159 4863 
L 1159 2956 
Q 1366 3272 1645 3428 
Q 1925 3584 2291 3584 
Q 2894 3584 3203 3211 
Q 3513 2838 3513 2113 
z
" transform="scale(0.015625)"/>
      <path id="DejaVuSans-5f" d="M 3263 -1063 
L 3263 -1509 
L -63 -1509 
L -63 -1063 
L 3263 -1063 
z
" transform="scale(0.015625)"/>
      <path id="DejaVuSans-56" d="M 1831 0 
L 50 4666 
L 709 4666 
L 2188 738 
L 3669 4666 
L 4325 4666 
L 2547 0 
L 1831 0 
z
" transform="scale(0.015625)"/>
      <path id="DejaVuSans-74" d="M 1172 4494 
L 1172 3500 
L 2356 3500 
L 2356 3053 
L 1172 3053 
L 1172 1153 
Q 1172 725 1289 603 
Q 1406 481 1766 481 
L 2356 481 
L 2356 0 
L 1766 0 
Q 1100 0 847 248 
Q 594 497 594 1153 
L 594 3053 
L 172 3053 
L 172 3500 
L 594 3500 
L 594 4494 
L 1172 4494 
z
" transform="scale(0.015625)"/>
      <path id="DejaVuSans-6c" d="M 603 4863 
L 1178 4863 
L 1178 0 
L 603 0 
L 603 4863 
z
" transform="scale(0.015625)"/>
     </defs>
     <use xlink:href="#DejaVuSans-4d"/>
     <use xlink:href="#DejaVuSans-e4" x="86.279297"/>
     <use xlink:href="#DejaVuSans-72" x="147.558594"/>
     <use xlink:href="#DejaVuSans-6b" x="188.671875"/>
     <use xlink:href="#DejaVuSans-69" x="246.582031"/>
     <use xlink:href="#DejaVuSans-73" x="274.365234"/>
     <use xlink:href="#DejaVuSans-63" x="326.464844"/>
     <use xlink:href="#DejaVuSans-68" x="381.445312"/>
     <use xlink:href="#DejaVuSans-65" x="444.824219"/>
     <use xlink:href="#DejaVuSans-73" x="506.347656"/>
     <use xlink:href="#DejaVuSans-5f" x="558.447266"/>
     <use xlink:href="#DejaVuSans-56" x="608.447266"/>
     <use xlink:href="#DejaVuSans-69" x="674.605469"/>
     <use xlink:href="#DejaVuSans-65" x="702.388672"/>
     <use xlink:href="#DejaVuSans-72" x="763.912109"/>
     <use xlink:href="#DejaVuSans-74" x="805.025391"/>
     <use xlink:href="#DejaVuSans-65" x="844.234375"/>
     <use xlink:href="#DejaVuSans-6c" x="905.757812"/>
    </g>
   </g>
  </g>
 </g>
 <defs>
  <clipPath id="pe8ceb77b2f">
   <rect x="90" y="185.897062" width="558" height="355.405876"/>
  </clipPath>
 </defs>
</svg>
