<?xml version="1.0" encoding="utf-8" standalone="no"?>
<!DOCTYPE svg PUBLIC "-//W3C//DTD SVG 1.1//EN"
  "http://www.w3.org/Graphics/SVG/1.1/DTD/svg11.dtd">
<svg xmlns:xlink="http://www.w3.org/1999/xlink" width="720pt" height="720pt" viewBox="0 0 720 720" xmlns="http://www.w3.org/2000/svg" version="1.1">
 <metadata>
  <rdf:RDF xmlns:dc="http://purl.org/dc/elements/1.1/" xmlns:cc="http://creativecommons.org/ns#" xmlns:rdf="http://www.w3.org/1999/02/22-rdf-syntax-ns#">
   <cc:Work>
    <dc:type rdf:resource="http://purl.org/dc/dcmitype/StillImage"/>
    <dc:date>2024-10-17T11:36:14.447979</dc:date>
    <dc:format>image/svg+xml</dc:format>
    <dc:creator>
     <cc:Agent>
      <dc:title>Matplotlib v3.9.2, https://matplotlib.org/</dc:title>
     </cc:Agent>
    </dc:creator>
   </cc:Work>
  </rdf:RDF>
 </metadata>
 <defs>
  <style type="text/css">*{stroke-linejoin: round; stroke-linecap: butt}</style>
 </defs>
 <g id="figure_1">
  <g id="patch_1">
   <path d="M 0 720 
L 720 720 
L 720 0 
L 0 0 
z
" style="fill: #ffffff"/>
  </g>
  <g id="axes_1">
   <g id="patch_2">
    <path d="M 182.194808 640.8 
L 555.805192 640.8 
L 555.805192 86.4 
L 182.194808 86.4 
z
" style="fill: #ffffff"/>
   </g>
   <g id="PatchCollection_1">
    <path d="M 233.035927 389.796096 
L 233.138113 389.871973 
L 233.518907 390.0877 
L 233.896579 390.301658 
L 233.825402 390.401892 
L 234.335055 391.761087 
L 238.03588 392.300407 
L 239.781358 392.806763 
L 240.868543 393.117108 
L 242.57764 393.810807 
L 245.690066 395.323648 
L 245.820089 395.339336 
L 245.875944 395.345929 
L 246.048813 395.367354 
L 246.391639 395.409842 
L 246.591557 395.43432 
L 247.360705 395.826281 
L 248.173011 396.239667 
L 248.991666 396.656961 
L 249.804705 397.070836 
L 250.463181 397.406514 
L 251.670866 398.129514 
L 252.990872 398.919234 
L 253.382222 399.106821 
L 257.194451 400.934342 
L 262.393772 403.629963 
L 265.408528 405.307927 
L 265.760691 405.491977 
L 265.291142 406.63483 
L 265.238889 406.732805 
L 264.502215 408.110924 
L 264.472426 408.145657 
L 264.438852 408.176729 
L 264.401921 408.20371 
L 264.362059 408.226174 
L 264.192358 408.252606 
L 264.155488 408.323111 
L 264.111537 408.405092 
L 264.070576 408.459665 
L 262.389682 409.222648 
L 262.340481 409.252499 
L 262.294698 409.287354 
L 262.252761 409.326789 
L 262.21522 409.370435 
L 262.182439 409.417743 
L 262.092766 409.564065 
L 261.58934 410.417942 
L 261.551554 410.488142 
L 261.074927 411.342446 
L 260.840458 412.122338 
L 260.666057 412.608549 
L 260.718005 412.858156 
L 261.061436 413.27075 
L 262.090508 414.004432 
L 262.506947 414.337363 
L 264.078756 415.377545 
L 265.660089 416.466378 
L 266.896586 417.317691 
L 266.928085 417.339423 
L 266.964589 417.368968 
L 266.99682 417.403091 
L 267.024167 417.441182 
L 267.046265 417.48257 
L 267.062625 417.526582 
L 267.072941 417.572365 
L 267.077092 417.619124 
L 267.074956 417.666005 
L 267.075322 418.523545 
L 267.076604 421.745239 
L 266.98748 422.458838 
L 266.851781 422.856903 
L 263.45361 430.519208 
L 262.506458 432.905949 
L 262.306968 433.589758 
L 262.156679 434.393885 
L 262.135985 434.703925 
L 262.181279 435.85661 
L 262.295187 437.269218 
L 262.438151 437.884109 
L 262.695937 438.434783 
L 262.733113 438.504739 
L 262.775111 438.571948 
L 262.821626 438.636104 
L 262.872475 438.696843 
L 262.927414 438.753918 
L 262.986199 438.807026 
L 263.048586 438.855983 
L 263.114147 438.900423 
L 264.247908 439.806065 
L 266.663278 441.606604 
L 267.024717 441.974453 
L 267.487915 442.235841 
L 267.737644 442.459443 
L 271.0238 444.980541 
L 272.163605 445.892531 
L 273.033293 446.617467 
L 273.179781 446.739573 
L 273.319189 446.855778 
L 273.473294 446.984234 
L 273.614391 447.175832 
L 273.758295 447.371242 
L 273.887258 447.546363 
L 274.034223 447.732627 
L 274.136549 447.919997 
L 274.242276 448.103257 
L 274.349814 448.289657 
L 274.416947 448.406022 
L 274.374907 448.473512 
L 274.283219 448.612692 
L 274.106925 448.87292 
L 273.900782 449.177222 
L 273.723084 449.431469 
L 272.736498 450.018036 
L 270.905864 451.10632 
L 269.814833 451.754968 
L 267.979499 452.846121 
L 270.145628 454.407859 
L 270.285296 454.508458 
L 271.637715 455.482469 
L 272.724595 456.264314 
L 273.818983 457.051532 
L 274.794825 457.755669 
L 275.770728 458.459867 
L 277.03146 459.11871 
L 276.93202 459.300863 
L 278.198978 459.966238 
L 278.295061 459.782314 
L 279.921382 460.638083 
L 280.625458 461.008556 
L 281.329473 461.378419 
L 281.491422 461.46388 
L 282.863253 462.185841 
L 283.011894 462.264038 
L 284.533648 463.064502 
L 286.021523 463.847019 
L 287.247094 464.491761 
L 287.468315 464.608293 
L 287.70901 464.733798 
L 289.648485 465.744801 
L 291.716889 466.777844 
L 291.488773 467.403192 
L 291.352881 467.775719 
L 290.929666 469.135525 
L 290.86789 469.347895 
L 289.626082 473.043348 
L 288.595362 476.23623 
L 287.838788 478.533725 
L 287.435108 480.278104 
L 285.93362 485.953199 
L 285.520233 487.715281 
L 285.085725 489.267313 
L 284.552938 491.0706 
L 283.606153 494.232044 
L 282.917032 495.986007 
L 282.564994 496.762237 
L 282.250644 497.773222 
L 282.065597 498.368353 
L 281.865069 498.768005 
L 281.276548 499.865262 
L 280.94319 500.574283 
L 280.812801 500.851359 
L 280.78991 500.899156 
L 280.38983 501.666351 
L 280.048658 502.320677 
L 279.612136 502.873304 
L 279.493284 503.023593 
L 278.919597 503.629206 
L 278.741045 503.817708 
L 278.212591 504.375646 
L 277.44387 505.187464 
L 277.029018 505.625146 
L 276.603667 506.06936 
L 276.03847 506.659657 
L 275.336342 507.392967 
L 275.127024 507.613578 
L 274.501022 508.274313 
L 274.185366 508.599126 
L 273.214469 509.605184 
L 271.579968 511.298959 
L 271.073306 511.824971 
L 267.514835 515.536112 
L 266.714249 516.371248 
L 265.242978 517.906065 
L 264.694136 518.478593 
L 263.613544 519.605883 
L 263.30973 520.004925 
L 262.921493 520.624944 
L 262.580443 521.306007 
L 261.8818 523.041535 
L 261.825457 523.239743 
L 261.796339 523.341808 
L 261.780956 523.395954 
L 261.869661 523.648585 
L 261.942782 523.856832 
L 263.141494 525.730258 
L 263.31907 526.22117 
L 263.371567 526.811644 
L 263.458127 529.601211 
L 263.59108 533.294039 
L 263.681546 535.661795 
L 263.710481 536.419223 
L 263.714265 536.519762 
L 263.73795 537.139232 
L 263.844166 539.946379 
L 263.847768 540.041668 
L 263.89764 541.550664 
L 263.932984 542.621673 
L 263.939699 542.827206 
L 264.169833 544.476358 
L 264.20823 544.66657 
L 264.270738 544.953597 
L 264.382326 545.285979 
L 264.558925 545.811991 
L 264.589507 545.902945 
L 264.663248 546.122153 
L 264.897533 546.675634 
L 265.434411 547.394178 
L 266.694532 548.825465 
L 267.29923 549.418625 
L 267.895869 549.133857 
L 268.026136 549.489863 
L 268.097984 549.694115 
L 268.339289 550.278484 
L 268.408818 550.46424 
L 268.445566 550.568075 
L 268.480971 550.61343 
L 268.941178 551.706414 
L 269.136212 552.147088 
L 269.297978 552.520796 
L 269.660759 553.526 
L 270.336328 555.416518 
L 270.757528 556.546678 
L 271.142042 557.58747 
L 271.561899 558.709877 
L 271.785868 559.305173 
L 271.872 559.534087 
L 272.463756 561.119448 
L 272.918957 562.384087 
L 273.393388 563.623636 
L 273.907149 565.059582 
L 273.950776 565.179392 
L 274.088673 565.551086 
L 274.101859 565.587895 
L 274.181215 565.808873 
L 274.602111 566.953133 
L 274.983388 567.989836 
L 275.129466 568.386985 
L 275.544195 569.514703 
L 275.965701 570.66049 
L 276.386596 571.804934 
L 276.803096 572.937108 
L 277.225944 574.086924 
L 277.730286 575.458145 
L 277.781135 575.595615 
L 277.94406 576.035677 
L 278.029521 576.266788 
L 276.296618 576.52372 
L 275.330238 576.615591 
L 275.198933 576.628044 
L 275.06598 576.941868 
L 274.507066 577.780362 
L 274.304096 578.363572 
L 273.97965 579.764399 
L 273.997108 580.193291 
L 273.961337 580.197259 
L 273.905421 580.203424 
L 273.909694 581.966056 
L 274.022869 582.443233 
L 274.088429 582.616902 
L 274.51085 583.736135 
L 274.509019 583.878427 
L 274.512621 584.02072 
L 274.521655 584.162768 
L 274.536123 584.304328 
L 274.548087 584.391925 
L 274.565301 584.478668 
L 274.587704 584.56419 
L 274.615235 584.648186 
L 274.64771 584.730412 
L 274.656195 584.769358 
L 274.668465 584.807204 
L 274.684519 584.843647 
L 274.704114 584.87832 
L 274.727067 584.910856 
L 274.752278 584.953037 
L 274.777367 584.99528 
L 274.802333 585.037583 
L 274.872289 585.157716 
L 274.941146 585.278522 
L 275.008905 585.399876 
L 275.17299 585.682386 
L 275.335732 585.96575 
L 275.497131 586.249846 
L 275.647908 586.510624 
L 275.797709 586.771951 
L 275.946655 587.033828 
L 275.984258 587.100243 
L 276.021922 587.166659 
L 276.059647 587.233013 
L 276.157133 587.403569 
L 276.255047 587.57388 
L 276.353449 587.743947 
L 276.451546 587.93068 
L 276.545431 588.119609 
L 276.635104 588.310492 
L 276.720504 588.50339 
L 277.194385 589.684277 
L 277.26544 589.880166 
L 277.339668 590.074833 
L 277.417011 590.268341 
L 277.489103 590.395556 
L 277.564003 590.521123 
L 277.641651 590.64498 
L 277.721984 590.767128 
L 277.780097 590.831834 
L 277.842118 590.892817 
L 277.907801 590.949892 
L 277.976841 591.002756 
L 278.048994 591.051286 
L 278.124017 591.095298 
L 280.641513 592.299076 
L 281.737427 593.084645 
L 281.796273 593.127803 
L 281.856401 593.169252 
L 281.91775 593.208808 
L 284.043346 594.346293 
L 284.21323 594.414418 
L 284.398742 594.48712 
L 284.584009 594.560434 
L 284.768971 594.634479 
L 285.221547 594.819197 
L 286.458106 595.276963 
L 287.252038 595.600249 
L 287.531007 595.680582 
L 289.325442 596.192005 
L 289.583168 596.35725 
L 290.889255 597.164795 
L 291.170544 597.343713 
L 291.233114 597.41141 
L 291.837933 597.990286 
L 292.440005 598.816571 
L 293.261224 599.655431 
L 294.244879 600.453148 
L 295.650162 601.604368 
L 296.353811 602.371807 
L 296.611964 602.577707 
L 297.029929 602.927547 
L 297.504664 603.274641 
L 297.72027 603.377804 
L 298.386579 603.868533 
L 299.067562 604.370067 
L 299.130742 604.404312 
L 299.307463 604.443624 
L 300.247289 604.157758 
L 300.690221 604.263729 
L 301.741024 604.395644 
L 301.97653 604.448325 
L 302.425261 604.628281 
L 303.06988 604.982639 
L 303.421125 605.233955 
L 303.622141 605.349449 
L 304.146322 605.777303 
L 304.385918 605.930095 
L 304.563798 606.056089 
L 304.979688 606.479609 
L 305.406565 606.673239 
L 305.882217 606.893362 
L 306.392601 607.102436 
L 306.985395 607.335683 
L 307.37998 607.473703 
L 307.803622 607.592494 
L 308.123918 607.66483 
L 308.469668 607.714947 
L 308.982068 607.959243 
L 309.999907 608.065276 
L 310.499732 607.95845 
L 311.157781 607.90113 
L 311.687028 607.869326 
L 311.684465 607.819209 
L 312.43414 607.830624 
L 313.008315 607.874698 
L 313.402718 607.910408 
L 314.101239 607.89411 
L 314.220762 608.045925 
L 314.372699 608.159344 
L 314.503577 608.297302 
L 315.187569 608.982699 
L 315.458786 609.171445 
L 315.706012 609.483622 
L 316.638635 609.726087 
L 317.269764 610.073791 
L 317.793578 610.340551 
L 318.174856 610.518554 
L 319.188118 611.020881 
L 319.379916 611.084366 
L 319.809724 611.116903 
L 321.381656 611.713603 
L 321.569914 611.875979 
L 321.772456 611.990252 
L 322.290899 612.095369 
L 322.38979 612.231801 
L 322.430322 612.287839 
L 322.876917 613.371545 
L 322.891995 613.400297 
L 322.936373 613.447178 
L 322.964209 613.463843 
L 322.994609 613.475136 
L 323.026535 613.480691 
L 323.05901 613.480325 
L 323.090813 613.474098 
L 323.120969 613.462134 
L 323.194221 613.424958 
L 323.358856 613.341512 
L 323.392857 613.334919 
L 323.427346 613.331806 
L 323.461958 613.332233 
L 323.496326 613.33614 
L 323.530144 613.343587 
L 323.92418 613.512678 
L 324.176717 613.716441 
L 324.198021 614.052974 
L 324.211695 614.083129 
L 324.404348 614.508908 
L 324.473754 614.646439 
L 324.582046 614.711145 
L 324.612201 614.553897 
L 324.910887 614.709009 
L 324.9046 614.7822 
L 325.657266 615.322008 
L 325.79669 615.430726 
L 325.97866 615.6 
L 325.993311 615.534561 
L 326.039399 615.328295 
L 326.19622 614.146065 
L 327.731037 613.90476 
L 327.688551 613.57189 
L 327.667124 613.253487 
L 327.660349 612.937159 
L 327.679638 612.628096 
L 327.720232 612.324282 
L 327.785671 612.026451 
L 327.903241 611.655123 
L 327.987786 611.447392 
L 328.125561 611.166775 
L 328.286472 610.892079 
L 328.480163 610.62538 
L 328.559703 610.550602 
L 328.758644 610.309297 
L 328.972235 610.103824 
L 329.357114 609.797447 
L 329.715806 609.558767 
L 330.054964 609.386563 
L 330.145858 609.340414 
L 331.84299 608.787237 
L 332.498353 608.567847 
L 332.066592 607.292526 
L 331.740742 606.30417 
L 331.397494 605.263195 
L 331.359159 605.146968 
L 331.32235 605.035197 
L 330.980689 603.999044 
L 330.728091 603.223914 
L 330.511814 602.561225 
L 330.309393 601.941511 
L 331.830781 601.380827 
L 331.916791 601.348901 
L 331.979544 601.325643 
L 333.578335 600.735963 
L 335.533742 600.014489 
L 335.452249 599.775504 
L 335.194218 599.028942 
L 334.807202 597.907023 
L 334.793345 597.865879 
L 333.344844 593.669381 
L 333.322319 593.603637 
L 334.63744 593.167237 
L 334.355053 592.395037 
L 334.466091 592.361035 
L 336.738558 591.666238 
L 336.80357 591.646338 
L 337.12008 591.549584 
L 337.295153 591.496049 
L 338.895348 591.006785 
L 339.88175 590.70523 
L 340.878835 590.400378 
L 341.865482 590.098701 
L 342.095555 590.028379 
L 341.1412 586.708893 
L 340.796549 585.404027 
L 340.401963 583.879465 
L 340.328162 583.585968 
L 340.365032 583.562588 
L 340.965578 583.181554 
L 342.000449 582.526191 
L 341.987874 582.483827 
L 346.861772 580.944492 
L 347.633057 580.700929 
L 347.630738 580.693603 
L 347.716748 580.667172 
L 347.833402 580.62908 
L 348.027276 580.568708 
L 348.141061 580.533242 
L 348.169508 580.524391 
L 348.950376 580.277958 
L 348.978884 580.268863 
L 351.457861 579.47609 
L 352.16035 579.255113 
L 352.142892 579.217205 
L 352.127631 579.178381 
L 352.114629 579.138764 
L 352.104007 579.098414 
L 352.095705 579.057515 
L 352.089845 579.016188 
L 352.086426 578.974618 
L 352.085389 578.932986 
L 352.086854 578.891293 
L 352.0907 578.849723 
L 352.096987 578.808518 
L 352.105655 578.76768 
L 352.116704 578.727453 
L 352.130073 578.687957 
L 352.145761 578.649256 
L 352.163647 578.611592 
L 352.183669 578.574966 
L 352.214313 578.528695 
L 352.24691 578.483706 
L 352.2814 578.440182 
L 352.317659 578.398123 
L 352.355751 578.357712 
L 352.39549 578.318888 
L 352.436816 578.281896 
L 352.47973 578.246613 
L 352.524109 578.213222 
L 352.56983 578.181785 
L 352.616895 578.152239 
L 352.66518 578.124831 
L 352.714564 578.099437 
L 352.764986 578.076179 
L 352.816385 578.055119 
L 352.868638 578.036257 
L 352.921624 578.019653 
L 352.97522 578.005308 
L 352.958677 577.945119 
L 353.460333 577.789275 
L 353.479989 577.845801 
L 353.535233 577.828343 
L 353.591027 577.812898 
L 353.647431 577.799652 
L 353.704263 577.788481 
L 353.761461 577.779508 
L 353.818964 577.772732 
L 353.876711 577.768093 
L 353.93458 577.765651 
L 353.992449 577.765407 
L 354.050319 577.76736 
L 354.108066 577.771511 
L 354.16563 577.777798 
L 354.22295 577.786345 
L 354.279903 577.796966 
L 354.320009 577.806367 
L 354.359626 577.817843 
L 354.398572 577.831517 
L 354.436663 577.847205 
L 354.4739 577.864969 
L 354.510099 577.884747 
L 354.545138 577.906478 
L 354.578956 577.930041 
L 354.611492 577.955435 
L 354.642563 577.982477 
L 354.672169 578.011229 
L 354.700127 578.041568 
L 354.726376 578.07331 
L 354.750915 578.106518 
L 354.773623 578.140946 
L 354.794378 578.176535 
L 354.81318 578.213222 
L 354.830028 578.250886 
L 354.844739 578.289404 
L 354.857375 578.328655 
L 354.867875 578.368578 
L 354.876177 578.408927 
L 355.996142 578.062811 
L 358.114475 577.407264 
L 358.123143 577.431865 
L 360.582159 576.673582 
L 361.171717 576.515602 
L 361.260353 576.488742 
L 361.370414 576.454741 
L 361.518078 576.409264 
L 360.952693 574.732337 
L 360.946406 574.713658 
L 361.062938 574.693452 
L 360.945368 574.367968 
L 360.892138 574.220609 
L 360.702354 573.695452 
L 360.126103 571.902725 
L 360.069882 571.727775 
L 359.906773 571.220442 
L 359.422271 569.416911 
L 359.376977 569.248248 
L 359.235844 568.722907 
L 358.861525 566.898194 
L 358.829477 566.742289 
L 358.493494 564.744273 
L 358.349309 563.607399 
L 359.651123 563.419812 
L 360.077573 563.358341 
L 360.071408 563.275444 
L 360.102113 563.270988 
L 363.279001 562.806508 
L 364.672441 562.602745 
L 364.708579 562.691136 
L 364.879806 562.664765 
L 365.70426 562.538038 
L 365.689915 562.451418 
L 365.847529 562.427122 
L 366.796207 562.281106 
L 369.034978 561.953669 
L 370.337036 561.756315 
L 370.564607 561.722497 
L 371.582141 561.571475 
L 372.647717 561.413556 
L 372.667556 561.459094 
L 373.882078 561.267723 
L 374.746882 561.115785 
L 375.97465 560.863492 
L 376.394396 560.7642 
L 376.756556 560.678531 
L 377.173728 560.579823 
L 377.923892 560.232424 
L 379.063391 559.704459 
L 380.058279 559.24358 
L 381.38976 558.626675 
L 382.470169 558.116473 
L 383.88583 557.464833 
L 384.870279 557.005847 
L 386.35504 556.322282 
L 387.529151 555.774721 
L 388.672924 555.247122 
L 388.819795 555.179364 
L 389.22781 554.990312 
L 389.321878 554.950572 
L 389.648338 554.806266 
L 391.038177 554.169154 
L 392.158448 553.660112 
L 393.383042 553.117313 
L 395.206168 552.266 
L 395.325447 552.213198 
L 395.516269 552.128713 
L 395.82515 551.991732 
L 397.740634 551.086212 
L 398.863774 550.544329 
L 399.412861 550.2794 
L 401.129221 549.499203 
L 402.880682 548.670659 
L 403.552955 548.352622 
L 404.771811 547.776493 
L 407.940275 546.278241 
L 408.354089 546.082535 
L 408.71156 545.913079 
L 408.772237 545.884327 
L 410.727644 544.962387 
L 415.44698 542.737778 
L 416.443088 542.265179 
L 418.658541 541.225607 
L 419.318605 540.914408 
L 420.471778 540.370266 
L 421.467031 539.899498 
L 422.026801 539.633714 
L 422.51521 539.40297 
L 422.5942 539.366039 
L 423.161355 539.097874 
L 423.692678 538.847413 
L 424.223696 538.59628 
L 424.772966 538.336967 
L 424.861235 538.295274 
L 426.425109 537.556525 
L 426.585226 537.480892 
L 426.745404 537.404588 
L 427.023842 537.270307 
L 427.161843 537.203755 
L 427.424086 537.079226 
L 427.560457 537.014398 
L 427.712272 536.942305 
L 429.489555 536.098318 
L 429.59986 536.046064 
L 430.477849 535.630419 
L 431.527859 535.133403 
L 432.081829 534.880316 
L 433.948113 533.995979 
L 434.098219 533.871267 
L 434.770979 533.319494 
L 435.187662 532.977101 
L 438.919375 529.910152 
L 442.010436 527.37123 
L 442.247712 527.156235 
L 443.344298 526.274339 
L 444.278997 525.511539 
L 445.190559 524.751303 
L 447.92708 522.494219 
L 448.810624 521.773356 
L 449.668896 521.066716 
L 451.231549 519.779857 
L 451.513692 519.54838 
L 451.738881 519.391987 
L 451.998255 519.158923 
L 453.516835 517.912109 
L 453.592468 517.850089 
L 454.326639 517.24942 
L 455.057635 516.651133 
L 456.003571 516.862719 
L 456.756358 517.031101 
L 457.142027 515.306893 
L 457.398471 514.234175 
L 457.609803 513.330975 
L 457.778528 512.621772 
L 457.987541 511.710758 
L 458.20571 510.800721 
L 458.610917 509.041996 
L 459.021801 507.258427 
L 459.29961 506.052634 
L 459.441598 505.451111 
L 459.722764 504.259541 
L 460.056977 502.84266 
L 460.552285 500.741237 
L 460.836137 499.535139 
L 461.230722 497.855282 
L 461.595213 496.299771 
L 462.083744 494.230579 
L 462.971684 490.469382 
L 463.036927 490.199594 
L 463.36108 490.488611 
L 464.653372 491.656251 
L 467.566002 494.426223 
L 470.106939 496.831826 
L 473.128471 499.704962 
L 473.338888 499.904269 
L 473.948896 500.554138 
L 474.890676 501.313398 
L 475.825557 502.000137 
L 476.928492 502.600195 
L 477.758928 502.885696 
L 478.189041 502.992705 
L 478.323642 503.026218 
L 478.269252 503.213072 
L 477.289015 505.771773 
L 477.175474 506.125215 
L 477.094469 506.377569 
L 476.970307 506.619484 
L 476.381298 507.403283 
L 475.843809 507.946631 
L 474.914849 508.885664 
L 474.782263 509.009887 
L 473.980456 509.883115 
L 474.006155 509.945502 
L 474.17372 510.350953 
L 474.238853 510.508689 
L 474.347327 510.397712 
L 474.432422 510.603917 
L 474.65633 511.145312 
L 475.583808 513.344129 
L 475.851806 513.983286 
L 476.381969 515.660396 
L 477.322528 519.908659 
L 477.378505 520.164676 
L 478.114812 523.536842 
L 478.55347 525.37938 
L 478.584542 525.509891 
L 478.677267 525.922179 
L 478.599558 526.100487 
L 478.380229 526.603669 
L 478.359352 526.671427 
L 478.297576 526.871772 
L 478.290495 526.87226 
L 477.967147 526.892649 
L 478.021842 527.114725 
L 478.118169 527.506014 
L 478.321932 527.548378 
L 479.180387 528.161011 
L 479.682898 528.519581 
L 479.822565 528.32473 
L 480.20891 528.382416 
L 480.60789 528.188359 
L 480.691886 528.073353 
L 481.848539 526.489823 
L 482.770357 525.211693 
L 483.384333 524.360441 
L 484.632124 522.630346 
L 485.19525 521.829699 
L 485.582877 521.278537 
L 486.442125 520.056934 
L 487.252966 518.904127 
L 488.217759 517.532357 
L 489.824974 515.151171 
L 490.939385 513.499944 
L 491.105606 513.252962 
L 491.696813 512.374118 
L 491.882324 512.104489 
L 492.65483 510.981776 
L 493.887482 509.190332 
L 494.676225 508.043996 
L 495.220917 507.252322 
L 495.238314 507.227294 
L 495.606834 506.696643 
L 496.136264 505.934454 
L 497.254215 504.324858 
L 498.158392 503.022983 
L 498.622323 502.354983 
L 498.728538 501.90845 
L 498.49639 501.431639 
L 498.737903 501.071076 
L 498.833472 500.928396 
L 498.957757 500.764678 
L 499.042546 500.764128 
L 499.528636 500.734095 
L 499.876096 500.418439 
L 500.378606 499.712592 
L 500.451919 499.770278 
L 500.804812 499.235415 
L 500.748713 499.192563 
L 501.482944 498.160317 
L 501.749827 497.785143 
L 503.519967 495.296582 
L 504.003554 494.564304 
L 505.884488 491.71583 
L 508.245285 488.214312 
L 510.206858 485.066847 
L 511.242827 483.404632 
L 511.524421 482.952787 
L 511.678678 482.67565 
L 513.430322 479.528246 
L 514.515432 477.326406 
L 515.69229 474.908838 
L 517.041962 472.12269 
L 517.0734 472.030636 
L 517.411581 471.039472 
L 517.78303 469.951005 
L 517.846882 469.763968 
L 517.9006 469.606598 
L 518.325219 468.372725 
L 518.366118 468.253812 
L 519.062198 466.231318 
L 519.216699 465.782526 
L 519.357831 465.372497 
L 519.89825 463.801786 
L 520.037368 463.397494 
L 520.159333 463.042893 
L 520.346736 462.498506 
L 520.712204 461.436471 
L 520.98922 460.631368 
L 521.074925 460.382494 
L 521.21154 460.131971 
L 521.74384 458.330394 
L 522.329491 456.34831 
L 522.694043 455.114254 
L 522.717362 455.03734 
L 523.135754 453.659648 
L 523.562326 452.255281 
L 524.407352 449.473161 
L 524.792231 448.17153 
L 525.449182 445.950278 
L 525.9089 444.395561 
L 525.975377 444.170615 
L 526.023601 444.01117 
L 526.182192 443.486623 
L 526.280472 443.161627 
L 526.612793 442.063332 
L 526.943283 440.970836 
L 527.143139 440.402338 
L 527.180376 440.277382 
L 527.197112 440.221193 
L 527.221031 440.140888 
L 527.231042 440.107253 
L 527.340493 439.673295 
L 527.384444 439.532223 
L 527.420582 439.416241 
L 527.833175 438.090864 
L 527.9364 437.75958 
L 528.075579 437.312498 
L 528.278366 436.661102 
L 528.376096 436.347216 
L 528.478527 436.018131 
L 528.573389 435.713462 
L 528.651097 435.463917 
L 528.969562 434.491371 
L 530.627809 429.427078 
L 530.862216 428.755416 
L 530.906106 428.629667 
L 531.507995 426.460546 
L 532.170501 424.073073 
L 532.320241 423.533448 
L 532.637057 422.592523 
L 533.063751 421.297241 
L 533.661794 419.283048 
L 533.876728 418.519882 
L 533.989537 418.119437 
L 534.353417 416.940931 
L 534.71742 415.762058 
L 535.028315 414.591426 
L 535.355386 413.390029 
L 535.402694 413.213247 
L 535.666158 412.229225 
L 535.950987 411.054076 
L 536.253031 409.856707 
L 536.543842 408.683634 
L 536.828244 407.494079 
L 537.10239 406.303364 
L 537.421648 404.950334 
L 537.748414 403.107491 
L 537.821605 402.815459 
L 537.898276 402.50957 
L 538.038737 401.949618 
L 538.383206 400.294361 
L 538.448766 400.093223 
L 538.474344 400.014782 
L 538.294082 399.491578 
L 538.295364 399.477843 
L 538.307163 399.354792 
L 538.311296 399.311683 
L 538.354515 398.859472 
L 538.440281 397.96201 
L 538.528733 397.036652 
L 538.663273 395.628805 
L 538.675543 395.500613 
L 538.734389 394.831454 
L 538.783895 391.750343 
L 538.791037 391.304115 
L 538.822902 389.320262 
L 537.889852 389.665097 
L 536.506361 390.176519 
L 536.12722 390.616338 
L 536.090106 389.506322 
L 535.801858 384.917498 
L 535.777013 384.685898 
L 535.442068 381.561447 
L 534.807215 378.023974 
L 533.708065 372.927451 
L 533.442526 372.13651 
L 532.584803 369.551866 
L 532.477245 369.22919 
L 532.427982 369.081098 
L 532.196444 368.385507 
L 532.141383 368.233997 
L 531.802286 367.300886 
L 531.768529 367.213838 
L 531.71884 367.085707 
L 531.539372 366.622509 
L 530.980091 365.179135 
L 529.243159 361.205995 
L 527.080997 357.026833 
L 525.050995 353.638979 
L 522.84476 350.423389 
L 522.595641 350.060363 
L 519.746556 346.340371 
L 519.31565 345.856601 
L 518.579648 344.987768 
L 516.721362 342.805707 
L 516.249983 342.237758 
L 515.986794 341.938043 
L 515.803084 341.728838 
L 515.280734 341.198431 
L 512.366883 338.018368 
L 512.171971 337.805692 
L 510.706987 336.206902 
L 506.732504 332.023955 
L 505.471162 330.662562 
L 504.733939 329.867104 
L 503.750467 328.805985 
L 502.986874 328.037019 
L 502.635324 327.682967 
L 502.410989 327.442516 
L 501.949805 326.94727 
L 501.598317 326.569716 
L 499.22232 324.016754 
L 498.903367 323.659283 
L 498.538022 323.269459 
L 497.426602 322.083627 
L 496.992155 321.620124 
L 496.198345 320.773145 
L 495.162986 319.668379 
L 494.734888 319.211652 
L 494.275596 318.726051 
L 493.602653 318.014649 
L 492.935752 317.309474 
L 490.702048 314.948128 
L 490.586309 314.825613 
L 490.407024 314.636073 
L 489.711799 313.901109 
L 485.644897 309.616342 
L 485.52281 309.475637 
L 480.433367 304.000643 
L 475.87018 299.380015 
L 471.926158 295.138466 
L 470.292633 293.369547 
L 468.969454 291.936856 
L 465.058517 287.335151 
L 463.533772 285.508484 
L 461.764365 282.87702 
L 461.643682 282.692058 
L 460.929656 281.598402 
L 460.268859 280.586117 
L 459.466198 279.356579 
L 459.19077 278.934646 
L 459.153045 278.876899 
L 457.837984 276.552483 
L 457.027387 274.024122 
L 455.704879 271.224727 
L 454.911008 269.341412 
L 454.430046 268.200447 
L 453.451152 265.309304 
L 453.224437 265.353866 
L 452.205987 265.210536 
L 451.564785 261.540904 
L 450.770304 257.65353 
L 450.522833 256.370029 
L 449.272662 249.886535 
L 449.18891 249.148214 
L 448.893948 246.550202 
L 448.572554 240.407575 
L 448.407065 235.594232 
L 448.354873 234.497219 
L 449.182928 234.477746 
L 449.209787 234.476891 
L 449.102351 231.242195 
L 448.12602 230.010825 
L 448.13011 228.833478 
L 448.150682 223.364833 
L 448.09263 220.74338 
L 447.994655 216.369978 
L 448.086403 214.53446 
L 448.094095 214.386246 
L 448.067175 212.469175 
L 448.005826 208.094002 
L 447.935931 199.94225 
L 447.741629 193.514855 
L 447.546107 191.539609 
L 442.829701 195.959831 
L 438.113234 200.380115 
L 437.996153 201.124724 
L 437.517022 200.673551 
L 437.294091 200.463684 
L 436.879667 200.073371 
L 436.728218 199.930774 
L 436.367451 199.591066 
L 427.307187 191.059501 
L 427.231188 190.994307 
L 426.803823 190.601186 
L 426.106583 189.961145 
L 425.341098 189.257924 
L 424.476538 188.464541 
L 423.562595 187.624826 
L 420.874421 185.385994 
L 416.991931 182.148673 
L 412.119375 178.22742 
L 408.221685 175.090332 
L 407.592082 174.624936 
L 406.350274 173.471153 
L 405.34739 172.042551 
L 404.135493 170.318621 
L 402.892891 168.657993 
L 400.449868 165.229178 
L 397.841295 161.850907 
L 397.154922 160.998679 
L 397.556344 160.353937 
L 398.857303 158.103751 
L 399.271606 157.379286 
L 399.276245 156.34411 
L 399.28821 154.805691 
L 399.300296 153.269531 
L 398.007333 152.380676 
L 394.740833 152.62076 
L 394.601593 152.47511 
L 390.944292 147.670069 
L 390.145721 146.620182 
L 389.882501 146.273882 
L 389.370224 145.599412 
L 389.184774 145.650078 
L 389.005794 145.698974 
L 388.313194 145.888148 
L 376.408914 149.138776 
L 376.347809 149.15538 
L 375.921969 149.270753 
L 375.868556 149.285281 
L 375.774855 149.310919 
L 375.459809 149.397723 
L 375.315319 149.438012 
L 374.652814 149.618151 
L 374.587863 149.636098 
L 374.3139 149.711121 
L 373.877561 149.8304 
L 373.729896 149.871116 
L 373.433774 149.952914 
L 371.739084 150.414647 
L 371.047278 150.604431 
L 369.491217 148.198157 
L 368.150701 146.12463 
L 367.055031 144.432321 
L 366.50979 143.589188 
L 365.876647 142.607791 
L 364.276635 141.549052 
L 358.373971 137.638176 
L 354.889362 135.460815 
L 352.245323 133.197321 
L 343.434911 124.893326 
L 343.262219 124.730645 
L 342.947845 124.4355 
L 342.192492 123.721779 
L 341.128687 122.720177 
L 340.563973 122.187938 
L 337.999168 119.669099 
L 336.340005 118.039665 
L 330.655022 112.831248 
L 330.812392 111.650361 
L 330.284976 111.611598 
L 330.244077 111.608607 
L 330.127606 111.6 
L 329.39838 112.086639 
L 328.500063 112.26452 
L 328.035034 112.535309 
L 327.112666 113.361899 
L 326.905484 113.851835 
L 326.198356 114.654008 
L 326.056735 115.586936 
L 324.285496 117.381615 
L 323.540643 117.337237 
L 322.987161 117.242924 
L 321.880015 117.288219 
L 320.659877 117.22571 
L 319.557126 117.174922 
L 319.375766 117.166559 
L 318.239379 116.785403 
L 316.729224 116.321411 
L 316.510199 116.470663 
L 316.494572 116.60093 
L 316.371692 117.623104 
L 315.783293 118.94262 
L 314.906891 120.598304 
L 314.159718 121.670106 
L 313.935322 122.120546 
L 313.646098 123.289591 
L 313.810122 123.550613 
L 313.972681 123.809193 
L 313.946432 124.088467 
L 313.706287 124.662277 
L 313.133577 125.26093 
L 313.018021 125.315442 
L 312.41192 125.601309 
L 311.952568 125.657103 
L 311.664686 125.69202 
L 311.530024 125.708379 
L 310.945838 126.409831 
L 310.788407 126.831641 
L 310.68274 126.99829 
L 310.637568 127.561905 
L 310.833762 127.673615 
L 310.870815 127.694736 
L 311.124329 127.887328 
L 311.27474 128.133211 
L 311.145633 128.377263 
L 310.850427 128.75671 
L 310.490453 128.946006 
L 310.036228 129.161306 
L 309.727348 129.703861 
L 310.722541 130.754176 
L 310.14281 131.410516 
L 309.751277 131.367358 
L 309.336547 131.321698 
L 309.263845 130.94689 
L 309.367069 130.340484 
L 309.256275 130.570008 
L 308.998305 131.083811 
L 308.806995 131.413324 
L 309.46712 131.638392 
L 309.647442 131.720739 
L 309.74908 131.92786 
L 309.45137 132.353211 
L 309.168434 132.507407 
L 307.988462 132.824162 
L 307.901903 132.948141 
L 307.358859 133.618399 
L 307.30099 133.739143 
L 307.459154 134.228163 
L 307.527095 134.801423 
L 307.441329 134.9475 
L 307.301906 135.050053 
L 307.156988 135.092906 
L 306.762708 134.983699 
L 306.404688 134.705829 
L 306.14568 134.658398 
L 305.881301 134.86735 
L 305.394723 135.127456 
L 305.447037 135.508246 
L 305.687793 136.138581 
L 306.801288 136.997403 
L 307.002365 137.272282 
L 307.071711 137.511816 
L 306.996749 137.674497 
L 306.852503 137.771434 
L 306.38784 137.883083 
L 306.222473 137.823993 
L 306.05967 137.662105 
L 305.998688 137.363358 
L 305.786073 136.973596 
L 305.55307 137.096049 
L 305.52615 137.244568 
L 305.780335 137.81563 
L 305.759092 138.029343 
L 305.617715 138.327114 
L 305.525356 138.445721 
L 305.270621 138.580078 
L 305.031087 138.675062 
L 304.972119 138.857948 
L 305.150488 139.290808 
L 305.245349 139.464904 
L 305.45247 139.363327 
L 305.817816 139.219509 
L 306.055031 139.183432 
L 306.32875 139.270236 
L 306.431608 139.450681 
L 306.418423 139.70627 
L 306.359821 139.954656 
L 306.247501 140.15378 
L 305.968105 140.200723 
L 305.901934 140.21696 
L 305.668259 140.352782 
L 304.95521 140.752861 
L 304.862423 140.804931 
L 304.565202 141.276859 
L 304.680331 141.364823 
L 305.592199 141.307075 
L 305.819647 141.340039 
L 306.163078 141.423302 
L 306.464633 141.419273 
L 306.689822 141.54661 
L 306.823813 142.011029 
L 306.778091 142.254471 
L 306.434905 142.367523 
L 306.020968 142.391025 
L 305.730218 142.323633 
L 305.499718 142.267473 
L 305.033162 142.089898 
L 304.568804 142.13159 
L 304.524609 142.135619 
L 303.659011 142.497851 
L 303.53198 142.668712 
L 303.992797 142.870888 
L 304.307172 143.041688 
L 304.775742 143.089424 
L 305.342409 143.108226 
L 305.589208 143.101389 
L 305.846872 143.101022 
L 306.099593 142.960439 
L 306.325759 142.686659 
L 306.583485 142.598939 
L 306.775589 142.614567 
L 306.868985 143.15529 
L 306.573962 143.492617 
L 306.49662 143.792951 
L 306.591115 144.294301 
L 306.648801 144.778865 
L 306.557053 145.164599 
L 306.428373 145.372513 
L 306.381675 145.427819 
L 305.961939 145.447597 
L 305.4203 145.019437 
L 305.309567 144.835574 
L 305.387886 144.52645 
L 305.536283 144.333858 
L 305.574923 144.274645 
L 305.604774 143.900448 
L 305.454851 143.789105 
L 305.409801 144.226787 
L 305.115815 144.380678 
L 304.847346 144.348264 
L 303.779267 143.905027 
L 303.508722 143.594559 
L 302.805257 143.212061 
L 302.68439 143.235013 
L 302.749219 143.938967 
L 302.823875 144.655007 
L 302.644407 145.753119 
L 302.440094 145.868309 
L 302.223756 145.818558 
L 301.880813 145.505588 
L 301.836923 145.675594 
L 302.005586 146.462262 
L 301.626262 147.214624 
L 301.395762 147.487915 
L 301.108796 147.646567 
L 300.772935 148.311637 
L 300.33684 148.733203 
L 300.080884 149.256957 
L 299.936333 149.456081 
L 299.948603 149.486236 
L 300.437073 149.5789 
L 300.712257 149.626392 
L 300.800221 149.765693 
L 300.936104 150.045822 
L 300.864073 150.495713 
L 300.475592 150.906841 
L 300.340197 150.958423 
L 299.631115 150.823089 
L 298.858365 150.424353 
L 298.444368 150.394686 
L 297.744993 150.67457 
L 297.925681 150.933334 
L 298.427825 151.227442 
L 298.910069 151.50989 
L 299.460682 152.012522 
L 299.549561 152.355038 
L 299.519467 152.49147 
L 299.381936 152.62485 
L 299.05462 152.771171 
L 298.814475 152.931289 
L 298.613459 152.998925 
L 298.468542 153.010889 
L 298.315811 152.909008 
L 298.185483 152.674601 
L 298.056559 152.526204 
L 297.949977 152.590238 
L 298.041786 153.35487 
L 298.070599 153.635426 
L 298.250128 153.777047 
L 298.378136 153.975865 
L 298.299573 154.235056 
L 298.145621 154.395662 
L 298.621639 154.388703 
L 298.833765 154.446938 
L 298.973188 154.67634 
L 298.971113 154.847811 
L 298.934365 154.940414 
L 298.707283 155.094183 
L 298.127797 155.1291 
L 297.909627 155.205221 
L 297.73663 155.337258 
L 297.602151 155.718963 
L 297.357916 156.089253 
L 297.20256 156.540975 
L 297.29089 156.838746 
L 297.417372 157.019129 
L 297.752928 156.840882 
L 298.117114 156.68455 
L 298.376488 156.66819 
L 298.500589 156.742541 
L 298.599297 156.850588 
L 298.643431 157.017786 
L 298.57494 157.281494 
L 298.199523 157.718993 
L 297.923179 157.854693 
L 297.727839 158.074633 
L 297.403515 157.957551 
L 296.221713 157.530918 
L 296.519544 156.86414 
L 295.598458 156.850222 
L 295.569401 157.279785 
L 295.656999 157.818738 
L 295.670184 158.850069 
L 296.876099 159.073488 
L 297.169841 159.153882 
L 296.952892 159.786354 
L 296.572163 160.291062 
L 296.568257 160.435125 
L 296.850522 160.530841 
L 297.200118 160.648533 
L 297.326417 160.73491 
L 297.451556 160.915843 
L 297.497278 161.050505 
L 297.402599 161.286865 
L 297.380319 161.508941 
L 297.607278 161.479457 
L 297.868728 161.324102 
L 298.079999 161.284118 
L 298.364951 161.277342 
L 298.566883 161.446433 
L 298.59307 161.624985 
L 298.468175 161.915674 
L 298.172603 162.276198 
L 297.894061 162.484905 
L 297.73901 162.966478 
L 297.552278 163.605176 
L 297.403149 163.764927 
L 297.106599 163.709927 
L 296.693945 163.472651 
L 296.489449 163.535037 
L 296.557452 163.740998 
L 296.852658 163.922663 
L 297.289913 164.244485 
L 297.62376 164.549214 
L 298.111742 165.201098 
L 298.631711 166.206119 
L 298.703864 166.438511 
L 298.672671 166.536669 
L 298.550096 166.679145 
L 298.327714 166.917764 
L 298.379723 167.332127 
L 298.930092 167.539675 
L 299.282191 167.830059 
L 298.75862 168.145166 
L 298.269479 168.50514 
L 297.745725 169.001241 
L 297.358953 169.424455 
L 297.02181 169.892171 
L 296.614467 170.352988 
L 296.253577 170.738417 
L 296.206635 171.014883 
L 296.155114 171.269801 
L 295.944331 171.368692 
L 295.337009 171.294646 
L 295.169322 171.343725 
L 295.085387 171.418442 
L 295.123845 171.59089 
L 295.222735 171.800391 
L 295.478569 172.15011 
L 295.627515 172.435366 
L 296.007938 172.645234 
L 296.182462 172.81292 
L 296.328294 172.980546 
L 296.380914 173.150735 
L 296.190702 173.486658 
L 295.696616 173.601236 
L 294.999499 173.831187 
L 294.924477 174.025611 
L 294.993089 174.311905 
L 295.485772 174.547472 
L 295.627149 174.634581 
L 295.234578 174.793722 
L 294.734509 174.66376 
L 294.49766 174.754593 
L 294.280162 175.039849 
L 294.405362 175.209001 
L 294.992601 175.129156 
L 295.506954 175.073972 
L 295.8571 174.998034 
L 295.840679 175.459829 
L 295.257042 176.411619 
L 294.763322 176.811454 
L 294.585258 177.216722 
L 294.582816 177.532073 
L 294.240301 178.32161 
L 293.842297 179.021413 
L 293.695304 179.170359 
L 293.467001 179.401714 
L 293.17326 179.507319 
L 292.672581 179.687398 
L 292.615566 179.802709 
L 292.670139 179.93438 
L 292.759812 180.014103 
L 292.949902 180.18301 
L 293.425003 180.605248 
L 293.694816 181.020161 
L 293.688162 181.446367 
L 293.627302 181.566806 
L 293.460592 181.707389 
L 293.246085 181.72906 
L 292.889469 181.708 
L 292.409911 181.529752 
L 292.091691 181.643416 
L 292.080092 181.779787 
L 292.851377 182.556932 
L 293.03933 182.692143 
L 293.181257 182.902255 
L 293.193832 183.085019 
L 293.133521 183.254476 
L 292.905218 183.350315 
L 292.601954 183.387429 
L 292.172757 183.439926 
L 290.85678 183.341036 
L 290.71754 183.407879 
L 290.160518 183.913075 
L 289.588906 184.418088 
L 289.384471 184.572406 
L 289.431963 184.80779 
L 289.491725 184.957896 
L 289.54001 185.285455 
L 289.547458 185.462359 
L 289.490626 185.676439 
L 289.402357 185.896379 
L 289.214893 186.063943 
L 289.030907 186.217529 
L 288.799064 186.303783 
L 288.399534 186.321974 
L 287.866258 186.199216 
L 287.741241 186.155448 
L 287.42003 186.043005 
L 287.21352 185.970669 
L 286.761492 185.742183 
L 286.517379 185.730279 
L 286.340841 185.831184 
L 286.151484 185.983671 
L 285.984286 186.156424 
L 285.719174 186.325698 
L 285.346931 186.544722 
L 285.127296 186.64111 
L 284.649447 186.898653 
L 284.437382 187.130374 
L 284.354302 187.263693 
L 284.177215 187.372228 
L 284.158535 187.383643 
L 284.133935 187.39048 
L 283.962097 187.438216 
L 283.725676 187.460741 
L 283.441457 187.394997 
L 283.16725 187.23952 
L 282.88474 187.112915 
L 282.67591 187.112183 
L 282.505294 187.243976 
L 282.398406 187.431807 
L 282.348961 187.599127 
L 282.309771 187.782502 
L 282.125847 188.003723 
L 281.989903 188.121843 
L 281.882528 188.134601 
L 281.703121 188.054695 
L 281.543614 187.824744 
L 281.405656 187.725548 
L 281.268979 187.729516 
L 281.231193 187.912097 
L 281.241082 188.076121 
L 281.457115 188.427793 
L 281.472071 188.619469 
L 281.482509 188.753887 
L 281.307681 188.978222 
L 281.113318 189.050071 
L 280.955704 189.011735 
L 280.837707 188.949715 
L 280.79693 188.928289 
L 280.574853 188.729043 
L 280.265424 188.688205 
L 279.974368 188.981824 
L 279.713163 189.256581 
L 279.257961 189.614601 
L 278.861789 189.917072 
L 278.75771 189.978115 
L 278.711622 190.005157 
L 278.687448 190.011506 
L 278.610595 190.031772 
L 278.452858 189.998321 
L 278.012673 189.76544 
L 277.802928 189.678453 
L 277.578043 189.739984 
L 277.434042 189.78009 
L 277.282715 189.862682 
L 276.987386 190.04978 
L 276.495009 190.246707 
L 276.216895 190.385764 
L 275.97852 190.599721 
L 275.996223 190.671875 
L 276.034009 190.737924 
L 276.085957 190.828818 
L 276.239054 190.951454 
L 276.304614 191.004013 
L 276.425236 191.156255 
L 276.441047 191.237138 
L 276.451607 191.517938 
L 276.393555 191.684587 
L 276.33129 191.77896 
L 276.228432 191.903428 
L 276.016367 192.059883 
L 275.8861 192.115005 
L 275.743319 192.138934 
L 275.550178 192.118179 
L 275.419911 192.067574 
L 275.301914 191.992857 
L 275.188739 191.894943 
L 275.019892 191.665419 
L 274.921612 191.483021 
L 274.835907 191.142887 
L 274.802394 191.009995 
L 274.710707 190.908113 
L 274.682322 190.876554 
L 274.597105 190.830039 
L 274.329185 190.887053 
L 274.23591 190.948219 
L 274.20197 190.9705 
L 274.119989 191.207776 
L 274.083485 191.313381 
L 273.91122 191.863261 
L 273.782662 192.08784 
L 273.614121 192.200771 
L 273.425497 192.176842 
L 273.29175 192.114516 
L 273.164719 191.969782 
L 273.032865 191.591129 
L 272.938308 191.366855 
L 272.851504 191.256977 
L 272.714706 191.180673 
L 272.564966 191.23317 
L 272.504289 191.398415 
L 272.486586 191.651501 
L 272.436225 191.980953 
L 272.285753 192.259495 
L 272.008066 192.446715 
L 271.775612 192.508919 
L 271.523258 192.556716 
L 271.265655 192.394645 
L 271.118051 192.210721 
L 271.009028 192.041692 
L 270.890847 191.894088 
L 270.747883 191.576845 
L 270.731646 191.357394 
L 270.819426 191.154973 
L 271.040587 191.004135 
L 271.184467 190.799639 
L 271.185932 190.711797 
L 271.186847 190.656309 
L 271.008173 190.527873 
L 270.736774 190.577074 
L 270.672189 190.604727 
L 270.445108 190.701908 
L 270.06383 190.792253 
L 269.646719 190.88394 
L 269.381424 190.807819 
L 269.214714 190.667541 
L 269.123515 190.368 
L 269.095557 190.276191 
L 269.015346 190.006439 
L 268.983481 189.899308 
L 268.86872 189.601049 
L 268.701338 189.419018 
L 268.524678 189.439162 
L 268.33758 189.572176 
L 268.254561 189.708303 
L 268.183262 189.849435 
L 268.140776 189.933431 
L 268.070331 190.056434 
L 268.015026 190.153005 
L 267.829637 190.434843 
L 267.631917 190.832664 
L 267.404102 191.210462 
L 267.136182 191.331389 
L 266.934433 191.371189 
L 266.691541 191.271994 
L 266.548883 191.174385 
L 266.41593 191.0208 
L 266.244886 190.85525 
L 266.027205 190.733773 
L 265.621937 190.59142 
L 265.235897 190.546858 
L 264.864997 190.592457 
L 264.608919 190.813557 
L 264.290333 190.749766 
L 264.123257 190.644466 
L 264.049028 190.529338 
L 263.982674 190.426419 
L 263.915221 190.58208 
L 263.891658 190.63647 
L 263.84966 190.904695 
L 263.718844 191.33493 
L 263.290257 191.517328 
L 262.847569 191.133852 
L 262.765466 191.062737 
L 262.606875 190.990888 
L 262.417823 190.905183 
L 262.446941 191.098264 
L 262.475692 191.289269 
L 262.509755 191.363559 
L 262.862098 192.132463 
L 263.187521 192.553908 
L 263.345685 193.050375 
L 263.398609 193.483356 
L 262.848912 193.935079 
L 265.947909 195.400123 
L 266.555109 199.008955 
L 263.188314 200.441769 
L 261.238218 201.271656 
L 259.978097 201.957358 
L 258.55273 202.733038 
L 257.568525 203.259965 
L 257.007352 203.560544 
L 256.762507 203.660289 
L 255.965828 203.98559 
L 255.332867 204.244048 
L 255.16689 204.31144 
L 255.142229 204.321451 
L 255.111218 204.335979 
L 254.959098 204.407339 
L 254.601932 204.276706 
L 254.485156 204.233976 
L 255.034609 205.129362 
L 255.018066 205.144501 
L 254.908554 205.244734 
L 254.774624 205.34741 
L 254.608098 205.499896 
L 252.066184 207.821565 
L 251.286903 206.881372 
L 249.28089 204.494998 
L 249.023653 205.148103 
L 248.173133 206.069616 
L 247.32762 206.917754 
L 247.186243 207.151917 
L 246.431073 208.402638 
L 244.901384 210.93625 
L 244.951928 211.668039 
L 245.045874 212.153518 
L 245.081828 212.339884 
L 244.576083 213.097007 
L 243.595357 212.601883 
L 243.17489 212.270051 
L 242.613472 212.579785 
L 242.349337 213.011485 
L 242.025074 213.295887 
L 241.77156 213.461864 
L 241.662842 213.533041 
L 241.147939 214.070285 
L 241.076091 214.357678 
L 241.045203 214.481352 
L 241.121386 214.972386 
L 241.437469 214.889123 
L 241.976788 214.616075 
L 242.243304 214.716187 
L 242.675554 215.547599 
L 242.749233 215.660225 
L 242.759733 215.753499 
L 242.450791 216.570384 
L 242.105773 216.849963 
L 242.059319 216.876273 
L 241.079937 217.241679 
L 240.821296 217.286852 
L 240.518214 217.203832 
L 240.270378 217.173799 
L 240.121737 217.45698 
L 240.317259 217.627535 
L 241.206785 218.168015 
L 241.437103 218.336312 
L 241.557603 218.554237 
L 241.511881 218.863911 
L 241.347674 219.109489 
L 241.124071 219.192447 
L 240.877211 219.237497 
L 240.388924 219.387787 
L 239.70542 219.304889 
L 239.614709 219.454568 
L 239.723245 219.748676 
L 239.873656 220.156263 
L 239.940682 220.665855 
L 239.42462 221.377195 
L 239.176112 221.71971 
L 239.075634 221.767751 
L 238.659744 221.966753 
L 238.383217 222.06424 
L 237.964275 222.354013 
L 237.494301 222.679131 
L 236.991181 222.847734 
L 236.93496 222.866535 
L 236.999849 223.101552 
L 237.283945 223.51848 
L 237.541061 223.717482 
L 237.857266 223.873143 
L 238.641309 223.911722 
L 238.697774 223.973315 
L 239.053231 224.533817 
L 239.069102 224.695582 
L 238.929618 224.973696 
L 238.599494 225.172698 
L 238.500726 225.423526 
L 238.250386 226.050443 
L 238.278161 226.199511 
L 238.438828 227.06401 
L 238.692891 228.248926 
L 238.711204 228.346962 
L 239.385369 229.616423 
L 239.468205 229.779836 
L 239.490547 230.246636 
L 239.754987 230.996861 
L 240.234423 231.98192 
L 240.741695 233.693092 
L 241.326126 234.177534 
L 241.54283 234.573584 
L 241.620233 235.116749 
L 241.464572 235.490763 
L 241.144826 235.839993 
L 241.02512 236.639602 
L 240.897722 236.822611 
L 240.760618 237.025703 
L 241.444672 237.869019 
L 241.550094 238.385447 
L 240.807011 239.602228 
L 239.733622 239.238408 
L 239.142293 238.90389 
L 238.906604 238.961881 
L 238.814734 239.158441 
L 238.80631 239.3666 
L 238.858319 239.447787 
L 239.781053 240.129033 
L 240.060144 241.361502 
L 237.79256 241.03614 
L 237.481604 240.328035 
L 237.126758 240.031364 
L 236.86128 239.950786 
L 236.794865 239.952617 
L 236.729609 239.989244 
L 236.562899 240.310332 
L 236.566013 240.329866 
L 237.26606 241.124653 
L 237.560778 241.416441 
L 238.336031 242.300351 
L 238.725671 243.179378 
L 238.737758 244.840372 
L 237.983016 245.123004 
L 236.996675 244.588263 
L 236.6074 244.581548 
L 236.057215 244.301358 
L 235.93061 243.824608 
L 235.011905 242.722773 
L 234.959103 242.715447 
L 234.727626 242.959011 
L 234.046197 243.186093 
L 233.908422 243.828881 
L 233.44211 244.889818 
L 233.209534 245.719399 
L 232.073453 247.462192 
L 231.469 247.247929 
L 231.411925 247.874236 
L 231.185087 248.823462 
L 229.611568 247.758253 
L 229.672673 248.744716 
L 229.394009 249.397272 
L 229.064923 249.380851 
L 228.67107 249.361256 
L 228.110264 248.785005 
L 227.680029 248.615304 
L 227.327869 248.449266 
L 226.952024 248.506036 
L 226.340184 249.082287 
L 225.892369 249.81603 
L 225.473916 250.028462 
L 225.275952 250.184733 
L 224.54349 250.858043 
L 223.779225 250.11026 
L 223.577599 250.005265 
L 223.435245 249.930792 
L 223.380184 249.953988 
L 223.119711 250.338563 
L 222.66982 250.842172 
L 221.811793 251.982465 
L 220.962494 251.755993 
L 219.964616 251.585071 
L 218.868457 251.033848 
L 218.791237 251.097944 
L 218.811625 251.955484 
L 218.820355 252.322477 
L 218.330358 252.653333 
L 217.131525 252.331634 
L 216.754276 252.135684 
L 216.237481 251.299388 
L 215.951553 251.164482 
L 215.678933 251.099165 
L 215.551718 251.130297 
L 215.383055 251.233461 
L 215.242289 251.361652 
L 215.0862 251.562485 
L 214.753757 252.075861 
L 214.091069 253.231415 
L 213.997855 253.395012 
L 213.85367 253.492071 
L 213.381865 253.649747 
L 212.909999 253.15157 
L 213.107596 254.828314 
L 212.643666 255.171379 
L 211.681131 255.601125 
L 211.601225 255.70612 
L 211.40497 256.878766 
L 210.94049 257.298135 
L 210.687038 258.201579 
L 210.19698 258.644145 
L 210.265654 259.599476 
L 210.002068 260.255083 
L 208.4526 260.088434 
L 208.408771 260.139101 
L 208.354137 260.369845 
L 208.535009 261.472902 
L 207.35516 262.46669 
L 205.884621 263.113752 
L 204.829362 262.473405 
L 204.684445 262.430064 
L 204.387407 262.546047 
L 203.558924 263.073463 
L 202.411245 262.110196 
L 202.345135 260.134217 
L 201.886026 260.381443 
L 200.838458 260.922289 
L 200.752021 261.046207 
L 200.747931 261.450071 
L 200.495638 261.822254 
L 200.231014 261.74833 
L 199.52059 261.06745 
L 199.352232 261.120375 
L 199.249129 261.510016 
L 199.367554 262.970299 
L 199.428658 263.736395 
L 199.177098 263.893033 
L 199.231244 264.542903 
L 199.463514 264.400183 
L 199.993006 264.19355 
L 200.322824 264.790678 
L 200.733586 266.777401 
L 202.644553 272.073537 
L 203.082296 273.286167 
L 203.801755 274.70433 
L 205.356778 277.826828 
L 205.792141 278.682963 
L 205.899211 278.893747 
L 206.242092 279.544837 
L 206.489441 280.01768 
L 208.850726 284.613708 
L 209.073474 285.032162 
L 209.460673 285.759434 
L 209.884865 286.755115 
L 210.24258 287.6165 
L 210.487181 288.009987 
L 210.68014 288.423862 
L 211.853762 290.931102 
L 212.862812 293.009146 
L 215.48396 298.738691 
L 217.477641 303.343632 
L 218.879201 306.926459 
L 220.977083 312.376852 
L 222.155224 315.541593 
L 223.054578 318.124161 
L 223.535173 319.523157 
L 223.647371 319.848824 
L 223.955397 320.567612 
L 224.024742 320.740426 
L 225.838529 325.272969 
L 225.863557 325.336271 
L 227.860351 330.325175 
L 227.983171 330.584305 
L 228.030904 330.685061 
L 228.055874 330.737768 
L 228.146768 330.929445 
L 228.157816 330.952824 
L 231.820245 340.819289 
L 233.69074 347.566125 
L 234.863509 355.907967 
L 234.918814 356.301331 
L 235.712502 361.94688 
L 235.71885 362.147225 
L 235.806082 364.884661 
L 235.764633 369.593009 
L 235.724161 374.215896 
L 235.314193 379.524546 
L 234.894519 384.957542 
L 232.997591 389.435817 
L 233.035927 389.796096 
" clip-path="url(#p054ab129b0)" style="fill: #d3d3d3"/>
   </g>
   <g id="PatchCollection_2">
    <path d="M 442.839544 392.121138 
L 442.839544 392.060094 
L 442.778501 392.060094 
L 442.778501 392.121138 
L 442.839544 392.121138 
" clip-path="url(#p054ab129b0)" style="fill: #ff0000; fill-opacity: 0.7; stroke: #000000; stroke-opacity: 0.7; stroke-width: 0.5"/>
    <path d="M 334.530928 571.347099 
L 334.530928 571.286055 
L 334.469884 571.286055 
L 334.469884 571.347099 
L 334.530928 571.347099 
" clip-path="url(#p054ab129b0)" style="fill: #ff0000; fill-opacity: 0.7; stroke: #000000; stroke-opacity: 0.7; stroke-width: 0.5"/>
    <path d="M 320.349765 589.021337 
L 320.349765 588.960293 
L 320.288722 588.960293 
L 320.288722 589.021337 
L 320.349765 589.021337 
" clip-path="url(#p054ab129b0)" style="fill: #ff0000; fill-opacity: 0.7; stroke: #000000; stroke-opacity: 0.7; stroke-width: 0.5"/>
    <path d="M 367.825451 540.667149 
L 367.825451 540.606106 
L 367.764407 540.606106 
L 367.764407 540.667149 
L 367.825451 540.667149 
" clip-path="url(#p054ab129b0)" style="fill: #ff0000; fill-opacity: 0.7; stroke: #000000; stroke-opacity: 0.7; stroke-width: 0.5"/>
    <path d="M 294.13525 314.877326 
L 294.13525 314.816283 
L 294.074207 314.816283 
L 294.074207 314.877326 
L 294.13525 314.877326 
" clip-path="url(#p054ab129b0)" style="fill: #ff0000; fill-opacity: 0.7; stroke: #000000; stroke-opacity: 0.7; stroke-width: 0.5"/>
    <path d="M 339.816851 481.309775 
L 339.816851 481.248731 
L 339.755807 481.248731 
L 339.755807 481.309775 
L 339.816851 481.309775 
" clip-path="url(#p054ab129b0)" style="fill: #ff0000; fill-opacity: 0.7; stroke: #000000; stroke-opacity: 0.7; stroke-width: 0.5"/>
    <path d="M 497.488168 350.043424 
L 497.488168 349.982381 
L 497.427125 349.982381 
L 497.427125 350.043424 
L 497.488168 350.043424 
" clip-path="url(#p054ab129b0)" style="fill: #ff0000; fill-opacity: 0.7; stroke: #000000; stroke-opacity: 0.7; stroke-width: 0.5"/>
    <path d="M 471.204922 352.107491 
L 471.204922 352.046447 
L 471.143878 352.046447 
L 471.143878 352.107491 
L 471.204922 352.107491 
" clip-path="url(#p054ab129b0)" style="fill: #ff0000; fill-opacity: 0.7; stroke: #000000; stroke-opacity: 0.7; stroke-width: 0.5"/>
    <path d="M 470.160954 393.024442 
L 470.160954 392.963398 
L 470.09991 392.963398 
L 470.09991 393.024442 
L 470.160954 393.024442 
" clip-path="url(#p054ab129b0)" style="fill: #ff0000; fill-opacity: 0.7; stroke: #000000; stroke-opacity: 0.7; stroke-width: 0.5"/>
    <path d="M 328.072729 571.312878 
L 328.072729 571.251834 
L 328.011685 571.251834 
L 328.011685 571.312878 
L 328.072729 571.312878 
" clip-path="url(#p054ab129b0)" style="fill: #ff0000; fill-opacity: 0.7; stroke: #000000; stroke-opacity: 0.7; stroke-width: 0.5"/>
    <path d="M 336.334385 520.865927 
L 336.334385 520.804884 
L 336.273341 520.804884 
L 336.273341 520.865927 
L 336.334385 520.865927 
" clip-path="url(#p054ab129b0)" style="fill: #ff0000; fill-opacity: 0.7; stroke: #000000; stroke-opacity: 0.7; stroke-width: 0.5"/>
    <path d="M 290.491375 409.999369 
L 290.491375 409.938325 
L 290.430331 409.938325 
L 290.430331 409.999369 
L 290.491375 409.999369 
" clip-path="url(#p054ab129b0)" style="fill: #ff0000; fill-opacity: 0.7; stroke: #000000; stroke-opacity: 0.7; stroke-width: 0.5"/>
    <path d="M 334.546616 571.348343 
L 334.546616 571.287299 
L 334.485572 571.287299 
L 334.485572 571.348343 
L 334.546616 571.348343 
" clip-path="url(#p054ab129b0)" style="fill: #ff0000; fill-opacity: 0.7; stroke: #000000; stroke-opacity: 0.7; stroke-width: 0.5"/>
    <path d="M 336.159964 508.006311 
L 336.159964 507.945267 
L 336.098921 507.945267 
L 336.098921 508.006311 
L 336.159964 508.006311 
" clip-path="url(#p054ab129b0)" style="fill: #ff0000; fill-opacity: 0.7; stroke: #000000; stroke-opacity: 0.7; stroke-width: 0.5"/>
    <path d="M 340.394951 572.498056 
L 340.394951 572.437013 
L 340.333908 572.437013 
L 340.333908 572.498056 
L 340.394951 572.498056 
" clip-path="url(#p054ab129b0)" style="fill: #ff0000; fill-opacity: 0.7; stroke: #000000; stroke-opacity: 0.7; stroke-width: 0.5"/>
    <path d="M 334.546616 571.348343 
L 334.546616 571.287299 
L 334.485572 571.287299 
L 334.485572 571.348343 
L 334.546616 571.348343 
" clip-path="url(#p054ab129b0)" style="fill: #ff0000; fill-opacity: 0.7; stroke: #000000; stroke-opacity: 0.7; stroke-width: 0.5"/>
    <path d="M 431.909653 440.555045 
L 431.909653 440.494001 
L 431.848609 440.494001 
L 431.848609 440.555045 
L 431.909653 440.555045 
" clip-path="url(#p054ab129b0)" style="fill: #ff0000; fill-opacity: 0.7; stroke: #000000; stroke-opacity: 0.7; stroke-width: 0.5"/>
    <path d="M 398.130415 529.79766 
L 398.130415 529.736617 
L 398.069372 529.736617 
L 398.069372 529.79766 
L 398.130415 529.79766 
" clip-path="url(#p054ab129b0)" style="fill: #ff0000; fill-opacity: 0.7; stroke: #000000; stroke-opacity: 0.7; stroke-width: 0.5"/>
    <path d="M 497.488168 350.043424 
L 497.488168 349.982381 
L 497.427125 349.982381 
L 497.427125 350.043424 
L 497.488168 350.043424 
" clip-path="url(#p054ab129b0)" style="fill: #ff0000; fill-opacity: 0.7; stroke: #000000; stroke-opacity: 0.7; stroke-width: 0.5"/>
    <path d="M 339.820958 526.426603 
L 339.820958 526.36556 
L 339.759914 526.36556 
L 339.759914 526.426603 
L 339.820958 526.426603 
" clip-path="url(#p054ab129b0)" style="fill: #ff0000; fill-opacity: 0.7; stroke: #000000; stroke-opacity: 0.7; stroke-width: 0.5"/>
   </g>
   <g id="matplotlib.axis_1">
    <g id="xtick_1">
     <g id="line2d_1">
      <defs>
       <path id="mb6c8da9b4a" d="M 0 0 
L 0 3.5 
" style="stroke: #000000; stroke-width: 0.8"/>
      </defs>
      <g>
       <use xlink:href="#mb6c8da9b4a" x="232.10074" y="640.8" style="stroke: #000000; stroke-width: 0.8"/>
      </g>
     </g>
     <g id="text_1">
      <!-- 390000 -->
      <g transform="translate(213.01324 655.398438) scale(0.1 -0.1)">
       <defs>
        <path id="DejaVuSans-33" d="M 2597 2516 
Q 3050 2419 3304 2112 
Q 3559 1806 3559 1356 
Q 3559 666 3084 287 
Q 2609 -91 1734 -91 
Q 1441 -91 1130 -33 
Q 819 25 488 141 
L 488 750 
Q 750 597 1062 519 
Q 1375 441 1716 441 
Q 2309 441 2620 675 
Q 2931 909 2931 1356 
Q 2931 1769 2642 2001 
Q 2353 2234 1838 2234 
L 1294 2234 
L 1294 2753 
L 1863 2753 
Q 2328 2753 2575 2939 
Q 2822 3125 2822 3475 
Q 2822 3834 2567 4026 
Q 2313 4219 1838 4219 
Q 1578 4219 1281 4162 
Q 984 4106 628 3988 
L 628 4550 
Q 988 4650 1302 4700 
Q 1616 4750 1894 4750 
Q 2613 4750 3031 4423 
Q 3450 4097 3450 3541 
Q 3450 3153 3228 2886 
Q 3006 2619 2597 2516 
z
" transform="scale(0.015625)"/>
        <path id="DejaVuSans-39" d="M 703 97 
L 703 672 
Q 941 559 1184 500 
Q 1428 441 1663 441 
Q 2288 441 2617 861 
Q 2947 1281 2994 2138 
Q 2813 1869 2534 1725 
Q 2256 1581 1919 1581 
Q 1219 1581 811 2004 
Q 403 2428 403 3163 
Q 403 3881 828 4315 
Q 1253 4750 1959 4750 
Q 2769 4750 3195 4129 
Q 3622 3509 3622 2328 
Q 3622 1225 3098 567 
Q 2575 -91 1691 -91 
Q 1453 -91 1209 -44 
Q 966 3 703 97 
z
M 1959 2075 
Q 2384 2075 2632 2365 
Q 2881 2656 2881 3163 
Q 2881 3666 2632 3958 
Q 2384 4250 1959 4250 
Q 1534 4250 1286 3958 
Q 1038 3666 1038 3163 
Q 1038 2656 1286 2365 
Q 1534 2075 1959 2075 
z
" transform="scale(0.015625)"/>
        <path id="DejaVuSans-30" d="M 2034 4250 
Q 1547 4250 1301 3770 
Q 1056 3291 1056 2328 
Q 1056 1369 1301 889 
Q 1547 409 2034 409 
Q 2525 409 2770 889 
Q 3016 1369 3016 2328 
Q 3016 3291 2770 3770 
Q 2525 4250 2034 4250 
z
M 2034 4750 
Q 2819 4750 3233 4129 
Q 3647 3509 3647 2328 
Q 3647 1150 3233 529 
Q 2819 -91 2034 -91 
Q 1250 -91 836 529 
Q 422 1150 422 2328 
Q 422 3509 836 4129 
Q 1250 4750 2034 4750 
z
" transform="scale(0.015625)"/>
       </defs>
       <use xlink:href="#DejaVuSans-33"/>
       <use xlink:href="#DejaVuSans-39" x="63.623047"/>
       <use xlink:href="#DejaVuSans-30" x="127.246094"/>
       <use xlink:href="#DejaVuSans-30" x="190.869141"/>
       <use xlink:href="#DejaVuSans-30" x="254.492188"/>
       <use xlink:href="#DejaVuSans-30" x="318.115234"/>
      </g>
     </g>
    </g>
    <g id="xtick_2">
     <g id="line2d_2">
      <g>
       <use xlink:href="#mb6c8da9b4a" x="293.144264" y="640.8" style="stroke: #000000; stroke-width: 0.8"/>
      </g>
     </g>
     <g id="text_2">
      <!-- 391000 -->
      <g transform="translate(274.056764 655.398438) scale(0.1 -0.1)">
       <defs>
        <path id="DejaVuSans-31" d="M 794 531 
L 1825 531 
L 1825 4091 
L 703 3866 
L 703 4441 
L 1819 4666 
L 2450 4666 
L 2450 531 
L 3481 531 
L 3481 0 
L 794 0 
L 794 531 
z
" transform="scale(0.015625)"/>
       </defs>
       <use xlink:href="#DejaVuSans-33"/>
       <use xlink:href="#DejaVuSans-39" x="63.623047"/>
       <use xlink:href="#DejaVuSans-31" x="127.246094"/>
       <use xlink:href="#DejaVuSans-30" x="190.869141"/>
       <use xlink:href="#DejaVuSans-30" x="254.492188"/>
       <use xlink:href="#DejaVuSans-30" x="318.115234"/>
      </g>
     </g>
    </g>
    <g id="xtick_3">
     <g id="line2d_3">
      <g>
       <use xlink:href="#mb6c8da9b4a" x="354.187789" y="640.8" style="stroke: #000000; stroke-width: 0.8"/>
      </g>
     </g>
     <g id="text_3">
      <!-- 392000 -->
      <g transform="translate(335.100289 655.398438) scale(0.1 -0.1)">
       <defs>
        <path id="DejaVuSans-32" d="M 1228 531 
L 3431 531 
L 3431 0 
L 469 0 
L 469 531 
Q 828 903 1448 1529 
Q 2069 2156 2228 2338 
Q 2531 2678 2651 2914 
Q 2772 3150 2772 3378 
Q 2772 3750 2511 3984 
Q 2250 4219 1831 4219 
Q 1534 4219 1204 4116 
Q 875 4013 500 3803 
L 500 4441 
Q 881 4594 1212 4672 
Q 1544 4750 1819 4750 
Q 2544 4750 2975 4387 
Q 3406 4025 3406 3419 
Q 3406 3131 3298 2873 
Q 3191 2616 2906 2266 
Q 2828 2175 2409 1742 
Q 1991 1309 1228 531 
z
" transform="scale(0.015625)"/>
       </defs>
       <use xlink:href="#DejaVuSans-33"/>
       <use xlink:href="#DejaVuSans-39" x="63.623047"/>
       <use xlink:href="#DejaVuSans-32" x="127.246094"/>
       <use xlink:href="#DejaVuSans-30" x="190.869141"/>
       <use xlink:href="#DejaVuSans-30" x="254.492188"/>
       <use xlink:href="#DejaVuSans-30" x="318.115234"/>
      </g>
     </g>
    </g>
    <g id="xtick_4">
     <g id="line2d_4">
      <g>
       <use xlink:href="#mb6c8da9b4a" x="415.231313" y="640.8" style="stroke: #000000; stroke-width: 0.8"/>
      </g>
     </g>
     <g id="text_4">
      <!-- 393000 -->
      <g transform="translate(396.143813 655.398438) scale(0.1 -0.1)">
       <use xlink:href="#DejaVuSans-33"/>
       <use xlink:href="#DejaVuSans-39" x="63.623047"/>
       <use xlink:href="#DejaVuSans-33" x="127.246094"/>
       <use xlink:href="#DejaVuSans-30" x="190.869141"/>
       <use xlink:href="#DejaVuSans-30" x="254.492188"/>
       <use xlink:href="#DejaVuSans-30" x="318.115234"/>
      </g>
     </g>
    </g>
    <g id="xtick_5">
     <g id="line2d_5">
      <g>
       <use xlink:href="#mb6c8da9b4a" x="476.274838" y="640.8" style="stroke: #000000; stroke-width: 0.8"/>
      </g>
     </g>
     <g id="text_5">
      <!-- 394000 -->
      <g transform="translate(457.187338 655.398438) scale(0.1 -0.1)">
       <defs>
        <path id="DejaVuSans-34" d="M 2419 4116 
L 825 1625 
L 2419 1625 
L 2419 4116 
z
M 2253 4666 
L 3047 4666 
L 3047 1625 
L 3713 1625 
L 3713 1100 
L 3047 1100 
L 3047 0 
L 2419 0 
L 2419 1100 
L 313 1100 
L 313 1709 
L 2253 4666 
z
" transform="scale(0.015625)"/>
       </defs>
       <use xlink:href="#DejaVuSans-33"/>
       <use xlink:href="#DejaVuSans-39" x="63.623047"/>
       <use xlink:href="#DejaVuSans-34" x="127.246094"/>
       <use xlink:href="#DejaVuSans-30" x="190.869141"/>
       <use xlink:href="#DejaVuSans-30" x="254.492188"/>
       <use xlink:href="#DejaVuSans-30" x="318.115234"/>
      </g>
     </g>
    </g>
    <g id="xtick_6">
     <g id="line2d_6">
      <g>
       <use xlink:href="#mb6c8da9b4a" x="537.318362" y="640.8" style="stroke: #000000; stroke-width: 0.8"/>
      </g>
     </g>
     <g id="text_6">
      <!-- 395000 -->
      <g transform="translate(518.230862 655.398438) scale(0.1 -0.1)">
       <defs>
        <path id="DejaVuSans-35" d="M 691 4666 
L 3169 4666 
L 3169 4134 
L 1269 4134 
L 1269 2991 
Q 1406 3038 1543 3061 
Q 1681 3084 1819 3084 
Q 2600 3084 3056 2656 
Q 3513 2228 3513 1497 
Q 3513 744 3044 326 
Q 2575 -91 1722 -91 
Q 1428 -91 1123 -41 
Q 819 9 494 109 
L 494 744 
Q 775 591 1075 516 
Q 1375 441 1709 441 
Q 2250 441 2565 725 
Q 2881 1009 2881 1497 
Q 2881 1984 2565 2268 
Q 2250 2553 1709 2553 
Q 1456 2553 1204 2497 
Q 953 2441 691 2322 
L 691 4666 
z
" transform="scale(0.015625)"/>
       </defs>
       <use xlink:href="#DejaVuSans-33"/>
       <use xlink:href="#DejaVuSans-39" x="63.623047"/>
       <use xlink:href="#DejaVuSans-35" x="127.246094"/>
       <use xlink:href="#DejaVuSans-30" x="190.869141"/>
       <use xlink:href="#DejaVuSans-30" x="254.492188"/>
       <use xlink:href="#DejaVuSans-30" x="318.115234"/>
      </g>
     </g>
    </g>
   </g>
   <g id="matplotlib.axis_2">
    <g id="ytick_1">
     <g id="line2d_7">
      <defs>
       <path id="m886b4036c1" d="M 0 0 
L -3.5 0 
" style="stroke: #000000; stroke-width: 0.8"/>
      </defs>
      <g>
       <use xlink:href="#m886b4036c1" x="182.194808" y="621.449015" style="stroke: #000000; stroke-width: 0.8"/>
      </g>
     </g>
     <g id="text_7">
      <!-- 5.826 -->
      <g transform="translate(146.566683 625.248234) scale(0.1 -0.1)">
       <defs>
        <path id="DejaVuSans-2e" d="M 684 794 
L 1344 794 
L 1344 0 
L 684 0 
L 684 794 
z
" transform="scale(0.015625)"/>
        <path id="DejaVuSans-38" d="M 2034 2216 
Q 1584 2216 1326 1975 
Q 1069 1734 1069 1313 
Q 1069 891 1326 650 
Q 1584 409 2034 409 
Q 2484 409 2743 651 
Q 3003 894 3003 1313 
Q 3003 1734 2745 1975 
Q 2488 2216 2034 2216 
z
M 1403 2484 
Q 997 2584 770 2862 
Q 544 3141 544 3541 
Q 544 4100 942 4425 
Q 1341 4750 2034 4750 
Q 2731 4750 3128 4425 
Q 3525 4100 3525 3541 
Q 3525 3141 3298 2862 
Q 3072 2584 2669 2484 
Q 3125 2378 3379 2068 
Q 3634 1759 3634 1313 
Q 3634 634 3220 271 
Q 2806 -91 2034 -91 
Q 1263 -91 848 271 
Q 434 634 434 1313 
Q 434 1759 690 2068 
Q 947 2378 1403 2484 
z
M 1172 3481 
Q 1172 3119 1398 2916 
Q 1625 2713 2034 2713 
Q 2441 2713 2670 2916 
Q 2900 3119 2900 3481 
Q 2900 3844 2670 4047 
Q 2441 4250 2034 4250 
Q 1625 4250 1398 4047 
Q 1172 3844 1172 3481 
z
" transform="scale(0.015625)"/>
        <path id="DejaVuSans-36" d="M 2113 2584 
Q 1688 2584 1439 2293 
Q 1191 2003 1191 1497 
Q 1191 994 1439 701 
Q 1688 409 2113 409 
Q 2538 409 2786 701 
Q 3034 994 3034 1497 
Q 3034 2003 2786 2293 
Q 2538 2584 2113 2584 
z
M 3366 4563 
L 3366 3988 
Q 3128 4100 2886 4159 
Q 2644 4219 2406 4219 
Q 1781 4219 1451 3797 
Q 1122 3375 1075 2522 
Q 1259 2794 1537 2939 
Q 1816 3084 2150 3084 
Q 2853 3084 3261 2657 
Q 3669 2231 3669 1497 
Q 3669 778 3244 343 
Q 2819 -91 2113 -91 
Q 1303 -91 875 529 
Q 447 1150 447 2328 
Q 447 3434 972 4092 
Q 1497 4750 2381 4750 
Q 2619 4750 2861 4703 
Q 3103 4656 3366 4563 
z
" transform="scale(0.015625)"/>
       </defs>
       <use xlink:href="#DejaVuSans-35"/>
       <use xlink:href="#DejaVuSans-2e" x="63.623047"/>
       <use xlink:href="#DejaVuSans-38" x="95.410156"/>
       <use xlink:href="#DejaVuSans-32" x="159.033203"/>
       <use xlink:href="#DejaVuSans-36" x="222.65625"/>
      </g>
     </g>
    </g>
    <g id="ytick_2">
     <g id="line2d_8">
      <g>
       <use xlink:href="#m886b4036c1" x="182.194808" y="499.361966" style="stroke: #000000; stroke-width: 0.8"/>
      </g>
     </g>
     <g id="text_8">
      <!-- 5.828 -->
      <g transform="translate(146.566683 503.161185) scale(0.1 -0.1)">
       <use xlink:href="#DejaVuSans-35"/>
       <use xlink:href="#DejaVuSans-2e" x="63.623047"/>
       <use xlink:href="#DejaVuSans-38" x="95.410156"/>
       <use xlink:href="#DejaVuSans-32" x="159.033203"/>
       <use xlink:href="#DejaVuSans-38" x="222.65625"/>
      </g>
     </g>
    </g>
    <g id="ytick_3">
     <g id="line2d_9">
      <g>
       <use xlink:href="#m886b4036c1" x="182.194808" y="377.274917" style="stroke: #000000; stroke-width: 0.8"/>
      </g>
     </g>
     <g id="text_9">
      <!-- 5.830 -->
      <g transform="translate(146.566683 381.074136) scale(0.1 -0.1)">
       <use xlink:href="#DejaVuSans-35"/>
       <use xlink:href="#DejaVuSans-2e" x="63.623047"/>
       <use xlink:href="#DejaVuSans-38" x="95.410156"/>
       <use xlink:href="#DejaVuSans-33" x="159.033203"/>
       <use xlink:href="#DejaVuSans-30" x="222.65625"/>
      </g>
     </g>
    </g>
    <g id="ytick_4">
     <g id="line2d_10">
      <g>
       <use xlink:href="#m886b4036c1" x="182.194808" y="255.187868" style="stroke: #000000; stroke-width: 0.8"/>
      </g>
     </g>
     <g id="text_10">
      <!-- 5.832 -->
      <g transform="translate(146.566683 258.987087) scale(0.1 -0.1)">
       <use xlink:href="#DejaVuSans-35"/>
       <use xlink:href="#DejaVuSans-2e" x="63.623047"/>
       <use xlink:href="#DejaVuSans-38" x="95.410156"/>
       <use xlink:href="#DejaVuSans-33" x="159.033203"/>
       <use xlink:href="#DejaVuSans-32" x="222.65625"/>
      </g>
     </g>
    </g>
    <g id="ytick_5">
     <g id="line2d_11">
      <g>
       <use xlink:href="#m886b4036c1" x="182.194808" y="133.100819" style="stroke: #000000; stroke-width: 0.8"/>
      </g>
     </g>
     <g id="text_11">
      <!-- 5.834 -->
      <g transform="translate(146.566683 136.900038) scale(0.1 -0.1)">
       <use xlink:href="#DejaVuSans-35"/>
       <use xlink:href="#DejaVuSans-2e" x="63.623047"/>
       <use xlink:href="#DejaVuSans-38" x="95.410156"/>
       <use xlink:href="#DejaVuSans-33" x="159.033203"/>
       <use xlink:href="#DejaVuSans-34" x="222.65625"/>
      </g>
     </g>
    </g>
    <g id="text_12">
     <!-- 1e6 -->
     <g transform="translate(182.194808 83.4) scale(0.1 -0.1)">
      <defs>
       <path id="DejaVuSans-65" d="M 3597 1894 
L 3597 1613 
L 953 1613 
Q 991 1019 1311 708 
Q 1631 397 2203 397 
Q 2534 397 2845 478 
Q 3156 559 3463 722 
L 3463 178 
Q 3153 47 2828 -22 
Q 2503 -91 2169 -91 
Q 1331 -91 842 396 
Q 353 884 353 1716 
Q 353 2575 817 3079 
Q 1281 3584 2069 3584 
Q 2775 3584 3186 3129 
Q 3597 2675 3597 1894 
z
M 3022 2063 
Q 3016 2534 2758 2815 
Q 2500 3097 2075 3097 
Q 1594 3097 1305 2825 
Q 1016 2553 972 2059 
L 3022 2063 
z
" transform="scale(0.015625)"/>
      </defs>
      <use xlink:href="#DejaVuSans-31"/>
      <use xlink:href="#DejaVuSans-65" x="63.623047"/>
      <use xlink:href="#DejaVuSans-36" x="125.146484"/>
     </g>
    </g>
   </g>
   <g id="patch_3">
    <path d="M 182.194808 640.8 
L 182.194808 86.4 
" style="fill: none; stroke: #000000; stroke-width: 0.8; stroke-linejoin: miter; stroke-linecap: square"/>
   </g>
   <g id="patch_4">
    <path d="M 555.805192 640.8 
L 555.805192 86.4 
" style="fill: none; stroke: #000000; stroke-width: 0.8; stroke-linejoin: miter; stroke-linecap: square"/>
   </g>
   <g id="patch_5">
    <path d="M 182.194808 640.8 
L 555.805192 640.8 
" style="fill: none; stroke: #000000; stroke-width: 0.8; stroke-linejoin: miter; stroke-linecap: square"/>
   </g>
   <g id="patch_6">
    <path d="M 182.194808 86.4 
L 555.805192 86.4 
" style="fill: none; stroke: #000000; stroke-width: 0.8; stroke-linejoin: miter; stroke-linecap: square"/>
   </g>
   <g id="text_13">
    <!-- Nrdliches_Pankow -->
    <g transform="translate(309.057727 367.39492) scale(0.12 -0.12)">
     <defs>
      <path id="DejaVuSans-4e" d="M 628 4666 
L 1478 4666 
L 3547 763 
L 3547 4666 
L 4159 4666 
L 4159 0 
L 3309 0 
L 1241 3903 
L 1241 0 
L 628 0 
L 628 4666 
z
" transform="scale(0.015625)"/>
      <path id="DejaVuSans-f6" d="M 1959 3097 
Q 1497 3097 1228 2736 
Q 959 2375 959 1747 
Q 959 1119 1226 758 
Q 1494 397 1959 397 
Q 2419 397 2687 759 
Q 2956 1122 2956 1747 
Q 2956 2369 2687 2733 
Q 2419 3097 1959 3097 
z
M 1959 3584 
Q 2709 3584 3137 3096 
Q 3566 2609 3566 1747 
Q 3566 888 3137 398 
Q 2709 -91 1959 -91 
Q 1206 -91 779 398 
Q 353 888 353 1747 
Q 353 2609 779 3096 
Q 1206 3584 1959 3584 
z
M 2254 4850 
L 2888 4850 
L 2888 4219 
L 2254 4219 
L 2254 4850 
z
M 1032 4850 
L 1666 4850 
L 1666 4219 
L 1032 4219 
L 1032 4850 
z
" transform="scale(0.015625)"/>
      <path id="DejaVuSans-72" d="M 2631 2963 
Q 2534 3019 2420 3045 
Q 2306 3072 2169 3072 
Q 1681 3072 1420 2755 
Q 1159 2438 1159 1844 
L 1159 0 
L 581 0 
L 581 3500 
L 1159 3500 
L 1159 2956 
Q 1341 3275 1631 3429 
Q 1922 3584 2338 3584 
Q 2397 3584 2469 3576 
Q 2541 3569 2628 3553 
L 2631 2963 
z
" transform="scale(0.015625)"/>
      <path id="DejaVuSans-64" d="M 2906 2969 
L 2906 4863 
L 3481 4863 
L 3481 0 
L 2906 0 
L 2906 525 
Q 2725 213 2448 61 
Q 2172 -91 1784 -91 
Q 1150 -91 751 415 
Q 353 922 353 1747 
Q 353 2572 751 3078 
Q 1150 3584 1784 3584 
Q 2172 3584 2448 3432 
Q 2725 3281 2906 2969 
z
M 947 1747 
Q 947 1113 1208 752 
Q 1469 391 1925 391 
Q 2381 391 2643 752 
Q 2906 1113 2906 1747 
Q 2906 2381 2643 2742 
Q 2381 3103 1925 3103 
Q 1469 3103 1208 2742 
Q 947 2381 947 1747 
z
" transform="scale(0.015625)"/>
      <path id="DejaVuSans-6c" d="M 603 4863 
L 1178 4863 
L 1178 0 
L 603 0 
L 603 4863 
z
" transform="scale(0.015625)"/>
      <path id="DejaVuSans-69" d="M 603 3500 
L 1178 3500 
L 1178 0 
L 603 0 
L 603 3500 
z
M 603 4863 
L 1178 4863 
L 1178 4134 
L 603 4134 
L 603 4863 
z
" transform="scale(0.015625)"/>
      <path id="DejaVuSans-63" d="M 3122 3366 
L 3122 2828 
Q 2878 2963 2633 3030 
Q 2388 3097 2138 3097 
Q 1578 3097 1268 2742 
Q 959 2388 959 1747 
Q 959 1106 1268 751 
Q 1578 397 2138 397 
Q 2388 397 2633 464 
Q 2878 531 3122 666 
L 3122 134 
Q 2881 22 2623 -34 
Q 2366 -91 2075 -91 
Q 1284 -91 818 406 
Q 353 903 353 1747 
Q 353 2603 823 3093 
Q 1294 3584 2113 3584 
Q 2378 3584 2631 3529 
Q 2884 3475 3122 3366 
z
" transform="scale(0.015625)"/>
      <path id="DejaVuSans-68" d="M 3513 2113 
L 3513 0 
L 2938 0 
L 2938 2094 
Q 2938 2591 2744 2837 
Q 2550 3084 2163 3084 
Q 1697 3084 1428 2787 
Q 1159 2491 1159 1978 
L 1159 0 
L 581 0 
L 581 4863 
L 1159 4863 
L 1159 2956 
Q 1366 3272 1645 3428 
Q 1925 3584 2291 3584 
Q 2894 3584 3203 3211 
Q 3513 2838 3513 2113 
z
" transform="scale(0.015625)"/>
      <path id="DejaVuSans-73" d="M 2834 3397 
L 2834 2853 
Q 2591 2978 2328 3040 
Q 2066 3103 1784 3103 
Q 1356 3103 1142 2972 
Q 928 2841 928 2578 
Q 928 2378 1081 2264 
Q 1234 2150 1697 2047 
L 1894 2003 
Q 2506 1872 2764 1633 
Q 3022 1394 3022 966 
Q 3022 478 2636 193 
Q 2250 -91 1575 -91 
Q 1294 -91 989 -36 
Q 684 19 347 128 
L 347 722 
Q 666 556 975 473 
Q 1284 391 1588 391 
Q 1994 391 2212 530 
Q 2431 669 2431 922 
Q 2431 1156 2273 1281 
Q 2116 1406 1581 1522 
L 1381 1569 
Q 847 1681 609 1914 
Q 372 2147 372 2553 
Q 372 3047 722 3315 
Q 1072 3584 1716 3584 
Q 2034 3584 2315 3537 
Q 2597 3491 2834 3397 
z
" transform="scale(0.015625)"/>
      <path id="DejaVuSans-5f" d="M 3263 -1063 
L 3263 -1509 
L -63 -1509 
L -63 -1063 
L 3263 -1063 
z
" transform="scale(0.015625)"/>
      <path id="DejaVuSans-50" d="M 1259 4147 
L 1259 2394 
L 2053 2394 
Q 2494 2394 2734 2622 
Q 2975 2850 2975 3272 
Q 2975 3691 2734 3919 
Q 2494 4147 2053 4147 
L 1259 4147 
z
M 628 4666 
L 2053 4666 
Q 2838 4666 3239 4311 
Q 3641 3956 3641 3272 
Q 3641 2581 3239 2228 
Q 2838 1875 2053 1875 
L 1259 1875 
L 1259 0 
L 628 0 
L 628 4666 
z
" transform="scale(0.015625)"/>
      <path id="DejaVuSans-61" d="M 2194 1759 
Q 1497 1759 1228 1600 
Q 959 1441 959 1056 
Q 959 750 1161 570 
Q 1363 391 1709 391 
Q 2188 391 2477 730 
Q 2766 1069 2766 1631 
L 2766 1759 
L 2194 1759 
z
M 3341 1997 
L 3341 0 
L 2766 0 
L 2766 531 
Q 2569 213 2275 61 
Q 1981 -91 1556 -91 
Q 1019 -91 701 211 
Q 384 513 384 1019 
Q 384 1609 779 1909 
Q 1175 2209 1959 2209 
L 2766 2209 
L 2766 2266 
Q 2766 2663 2505 2880 
Q 2244 3097 1772 3097 
Q 1472 3097 1187 3025 
Q 903 2953 641 2809 
L 641 3341 
Q 956 3463 1253 3523 
Q 1550 3584 1831 3584 
Q 2591 3584 2966 3190 
Q 3341 2797 3341 1997 
z
" transform="scale(0.015625)"/>
      <path id="DejaVuSans-6e" d="M 3513 2113 
L 3513 0 
L 2938 0 
L 2938 2094 
Q 2938 2591 2744 2837 
Q 2550 3084 2163 3084 
Q 1697 3084 1428 2787 
Q 1159 2491 1159 1978 
L 1159 0 
L 581 0 
L 581 3500 
L 1159 3500 
L 1159 2956 
Q 1366 3272 1645 3428 
Q 1925 3584 2291 3584 
Q 2894 3584 3203 3211 
Q 3513 2838 3513 2113 
z
" transform="scale(0.015625)"/>
      <path id="DejaVuSans-6b" d="M 581 4863 
L 1159 4863 
L 1159 1991 
L 2875 3500 
L 3609 3500 
L 1753 1863 
L 3688 0 
L 2938 0 
L 1159 1709 
L 1159 0 
L 581 0 
L 581 4863 
z
" transform="scale(0.015625)"/>
      <path id="DejaVuSans-6f" d="M 1959 3097 
Q 1497 3097 1228 2736 
Q 959 2375 959 1747 
Q 959 1119 1226 758 
Q 1494 397 1959 397 
Q 2419 397 2687 759 
Q 2956 1122 2956 1747 
Q 2956 2369 2687 2733 
Q 2419 3097 1959 3097 
z
M 1959 3584 
Q 2709 3584 3137 3096 
Q 3566 2609 3566 1747 
Q 3566 888 3137 398 
Q 2709 -91 1959 -91 
Q 1206 -91 779 398 
Q 353 888 353 1747 
Q 353 2609 779 3096 
Q 1206 3584 1959 3584 
z
" transform="scale(0.015625)"/>
      <path id="DejaVuSans-77" d="M 269 3500 
L 844 3500 
L 1563 769 
L 2278 3500 
L 2956 3500 
L 3675 769 
L 4391 3500 
L 4966 3500 
L 4050 0 
L 3372 0 
L 2619 2869 
L 1863 0 
L 1184 0 
L 269 3500 
z
" transform="scale(0.015625)"/>
     </defs>
     <use xlink:href="#DejaVuSans-4e"/>
     <use xlink:href="#DejaVuSans-f6" x="74.804688"/>
     <use xlink:href="#DejaVuSans-72" x="135.986328"/>
     <use xlink:href="#DejaVuSans-64" x="175.349609"/>
     <use xlink:href="#DejaVuSans-6c" x="238.826172"/>
     <use xlink:href="#DejaVuSans-69" x="266.609375"/>
     <use xlink:href="#DejaVuSans-63" x="294.392578"/>
     <use xlink:href="#DejaVuSans-68" x="349.373047"/>
     <use xlink:href="#DejaVuSans-65" x="412.751953"/>
     <use xlink:href="#DejaVuSans-73" x="474.275391"/>
     <use xlink:href="#DejaVuSans-5f" x="526.375"/>
     <use xlink:href="#DejaVuSans-50" x="576.375"/>
     <use xlink:href="#DejaVuSans-61" x="632.177734"/>
     <use xlink:href="#DejaVuSans-6e" x="693.457031"/>
     <use xlink:href="#DejaVuSans-6b" x="756.835938"/>
     <use xlink:href="#DejaVuSans-6f" x="811.121094"/>
     <use xlink:href="#DejaVuSans-77" x="872.302734"/>
    </g>
   </g>
  </g>
 </g>
 <defs>
  <clipPath id="p054ab129b0">
   <rect x="182.194808" y="86.4" width="373.610385" height="554.4"/>
  </clipPath>
 </defs>
</svg>
