<?xml version="1.0" encoding="utf-8" standalone="no"?>
<!DOCTYPE svg PUBLIC "-//W3C//DTD SVG 1.1//EN"
  "http://www.w3.org/Graphics/SVG/1.1/DTD/svg11.dtd">
<svg xmlns:xlink="http://www.w3.org/1999/xlink" width="720pt" height="720pt" viewBox="0 0 720 720" xmlns="http://www.w3.org/2000/svg" version="1.1">
 <metadata>
  <rdf:RDF xmlns:dc="http://purl.org/dc/elements/1.1/" xmlns:cc="http://creativecommons.org/ns#" xmlns:rdf="http://www.w3.org/1999/02/22-rdf-syntax-ns#">
   <cc:Work>
    <dc:type rdf:resource="http://purl.org/dc/dcmitype/StillImage"/>
    <dc:date>2024-10-17T11:36:12.930175</dc:date>
    <dc:format>image/svg+xml</dc:format>
    <dc:creator>
     <cc:Agent>
      <dc:title>Matplotlib v3.9.2, https://matplotlib.org/</dc:title>
     </cc:Agent>
    </dc:creator>
   </cc:Work>
  </rdf:RDF>
 </metadata>
 <defs>
  <style type="text/css">*{stroke-linejoin: round; stroke-linecap: butt}</style>
 </defs>
 <g id="figure_1">
  <g id="patch_1">
   <path d="M 0 720 
L 720 720 
L 720 0 
L 0 0 
z
" style="fill: #ffffff"/>
  </g>
  <g id="axes_1">
   <g id="patch_2">
    <path d="M 90 607.295162 
L 648 607.295162 
L 648 119.904838 
L 90 119.904838 
z
" style="fill: #ffffff"/>
   </g>
   <g id="PatchCollection_1">
    <path d="M 124.676847 142.058944 
L 124.452744 142.073662 
L 124.229751 142.099873 
L 124.008269 142.137374 
L 123.789106 142.186167 
L 123.572665 142.246149 
L 123.359652 142.317019 
L 123.150469 142.398777 
L 122.945723 142.49112 
L 119.156444 145.022582 
L 118.967423 145.49609 
L 119.344456 149.76916 
L 119.143641 149.747587 
L 119.120152 155.441687 
L 119.113801 157.006473 
L 119.114607 157.222814 
L 119.132148 162.058106 
L 119.030228 167.082721 
L 119.757881 174.815923 
L 120.414462 179.725916 
L 120.874462 182.550637 
L 121.070439 183.754117 
L 121.177601 184.412614 
L 121.22599 184.709502 
L 121.260568 184.982094 
L 121.267927 185.04006 
L 121.282646 185.156195 
L 121.298171 185.279587 
L 121.306034 185.341183 
L 121.375795 185.891307 
L 121.45967 186.553937 
L 121.522374 187.049019 
L 121.745972 188.81331 
L 122.174015 192.191583 
L 122.854287 196.127139 
L 123.75352 202.140003 
L 124.234489 206.884969 
L 124.224206 207.188712 
L 124.214226 207.485499 
L 124.156663 209.192631 
L 123.837395 211.67278 
L 123.490908 213.705933 
L 122.857513 216.138802 
L 122.188129 218.483159 
L 122.172806 218.531951 
L 121.970478 219.173007 
L 121.593143 220.369431 
L 120.898355 222.381213 
L 120.234918 223.584894 
L 119.616544 224.619315 
L 118.946656 225.67672 
L 118.466797 226.338946 
L 118.023834 226.944013 
L 117.751846 227.292718 
L 117.027217 228.196084 
L 115.363636 230.269965 
L 117.85931 229.955738 
L 118.385946 229.889304 
L 121.595159 229.485052 
L 123.952117 229.188265 
L 126.133261 228.913555 
L 127.166069 228.783509 
L 127.558122 228.742076 
L 128.505946 228.64187 
L 129.446209 228.54247 
L 129.667388 231.132503 
L 130.096741 236.159437 
L 130.739915 243.690916 
L 130.810079 244.385402 
L 130.858267 244.862238 
L 130.897079 245.246025 
L 130.937706 245.647252 
L 130.979542 246.061786 
L 131.023496 246.496483 
L 131.064526 246.903355 
L 131.110395 247.3565 
L 131.238324 248.622181 
L 131.274313 248.977841 
L 131.294475 249.060002 
L 131.613038 250.354615 
L 131.822825 251.206971 
L 132.085841 252.27476 
L 132.141388 252.500173 
L 132.192499 252.707844 
L 133.178429 256.715277 
L 133.243754 256.980914 
L 133.68702 258.782606 
L 133.783193 259.173853 
L 133.789444 259.19845 
L 133.793375 259.215084 
L 135.234164 265.071288 
L 135.452218 265.957416 
L 135.742251 267.136399 
L 137.942952 276.082557 
L 137.978538 276.225305 
L 137.987208 276.297083 
L 131.597513 277.114457 
L 131.470592 277.130688 
L 131.500432 277.363057 
L 131.233686 277.397332 
L 130.459056 277.42193 
L 130.885183 279.139344 
L 131.097189 280.024262 
L 132.223044 284.736968 
L 133.224197 288.927676 
L 133.35011 289.547058 
L 134.256803 294.006427 
L 134.408322 295.107987 
L 134.729606 297.419782 
L 134.905117 298.682842 
L 135.271767 301.382456 
L 135.689728 304.418677 
L 136.093678 307.695031 
L 136.32524 309.473334 
L 136.561843 311.289845 
L 136.777175 312.943144 
L 136.819617 313.102626 
L 136.947445 313.582789 
L 137.104105 314.170919 
L 137.299073 314.903209 
L 137.900914 317.163994 
L 138.465455 319.33173 
L 140.938648 328.92086 
L 141.502483 330.573553 
L 144.515922 339.179475 
L 146.105407 343.744392 
L 146.223859 344.084427 
L 146.367212 344.496139 
L 146.568229 345.073382 
L 146.790215 345.710708 
L 146.882558 345.976143 
L 146.88659 345.987636 
L 148.174449 349.67439 
L 152.96478 347.57833 
L 153.26439 347.447377 
L 154.407081 346.947355 
L 157.479998 345.60274 
L 157.733033 346.482113 
L 157.866204 346.945036 
L 158.040304 347.550305 
L 158.174181 348.015547 
L 158.430241 348.904094 
L 159.398025 348.48089 
L 160.832161 347.855963 
L 163.008566 346.898462 
L 168.736741 344.887991 
L 168.953182 344.826294 
L 172.301211 343.871111 
L 173.365068 343.56757 
L 173.589776 343.503353 
L 174.091209 343.360303 
L 175.417275 342.98206 
L 175.627164 342.922078 
L 175.735434 342.891331 
L 175.832414 342.863608 
L 176.017302 342.810783 
L 177.363228 342.426895 
L 177.435912 342.406027 
L 177.744192 342.31812 
L 181.932883 341.123007 
L 182.20598 341.045181 
L 184.267562 340.45695 
L 184.843495 340.292729 
L 186.31987 339.87144 
L 190.216613 338.759597 
L 190.621772 338.643967 
L 190.910394 338.561605 
L 191.289846 338.453334 
L 191.627865 338.356959 
L 192.354207 338.477024 
L 193.218862 338.619873 
L 193.820803 338.719475 
L 195.138401 338.937226 
L 195.410692 338.982288 
L 196.363153 339.139654 
L 202.924831 340.224278 
L 203.636052 340.341824 
L 203.887474 340.383459 
L 204.737612 340.523888 
L 205.220597 340.60373 
L 205.445809 340.64103 
L 206.496359 340.814627 
L 207.616871 340.999816 
L 207.850148 341.038427 
L 209.002416 341.228959 
L 210.771546 341.521311 
L 212.597231 341.823139 
L 214.850051 342.195534 
L 215.141798 342.243722 
L 216.98577 342.416376 
L 220.372269 342.733461 
L 223.112107 343.527044 
L 223.172694 343.544585 
L 223.4096 343.613136 
L 224.556021 343.945308 
L 226.115767 344.397143 
L 226.315473 344.454907 
L 227.438204 344.780123 
L 228.72203 345.152014 
L 230.590358 345.693167 
L 230.733408 345.7346 
L 232.751944 346.830717 
L 235.353066 348.243279 
L 237.409507 348.816288 
L 237.636937 348.879698 
L 238.796262 349.202595 
L 239.327736 349.350787 
L 239.57311 349.419137 
L 240.663985 349.723082 
L 241.830064 350.047894 
L 242.039448 350.106364 
L 242.506606 350.236511 
L 244.620811 350.82565 
L 244.729284 350.855792 
L 245.113877 350.96235 
L 246.240136 351.274258 
L 246.598317 351.373456 
L 246.777156 351.423257 
L 249.412452 352.156051 
L 250.837616 352.552339 
L 251.437743 352.719181 
L 251.67606 352.785514 
L 252.509866 353.017379 
L 253.903778 353.404997 
L 255.640044 353.88778 
L 255.818378 353.937379 
L 256.508731 354.118032 
L 257.603336 354.404436 
L 258.348529 354.599606 
L 258.56124 354.65858 
L 258.867325 354.743509 
L 259.807169 355.004285 
L 260.4211 355.174631 
L 261.793136 355.555293 
L 263.458733 356.01741 
L 263.551076 356.043117 
L 263.772053 356.10441 
L 265.097817 356.472268 
L 266.367429 356.824602 
L 266.608065 356.891339 
L 266.668954 356.908275 
L 266.760188 356.933579 
L 266.974008 356.992856 
L 268.285558 357.356783 
L 269.644387 357.733816 
L 269.845505 357.789665 
L 269.93563 357.814666 
L 270.039364 357.843397 
L 270.295726 357.914569 
L 272.183309 358.438282 
L 272.700166 358.581736 
L 272.933039 358.646356 
L 273.982077 358.937397 
L 278.022073 360.058413 
L 282.603725 361.338006 
L 282.729235 361.372886 
L 284.511268 361.869178 
L 284.706539 361.923414 
L 284.833964 361.959001 
L 286.170615 362.331194 
L 287.310383 362.648547 
L 288.010817 362.843515 
L 290.488647 363.528424 
L 290.991089 363.659781 
L 291.158233 363.706557 
L 292.980188 364.216055 
L 294.19879 364.556897 
L 296.24525 365.129301 
L 296.411185 365.175674 
L 296.618452 364.643594 
L 297.249024 363.023765 
L 297.373626 362.70359 
L 298.217514 360.535854 
L 298.336874 360.220316 
L 298.842037 358.885479 
L 299.345084 357.555884 
L 299.537027 357.048806 
L 299.62685 356.811598 
L 300.13786 355.461035 
L 300.661673 354.0767 
L 300.753008 353.835157 
L 300.799684 353.711966 
L 301.210185 352.627039 
L 301.29648 352.399106 
L 301.515945 351.81894 
L 302.024939 350.474123 
L 302.104882 350.262621 
L 302.396629 349.49162 
L 302.902699 348.154263 
L 302.991715 347.918769 
L 303.281647 347.152908 
L 304.406596 344.179895 
L 304.464663 344.026562 
L 305.239999 341.955503 
L 306.394687 338.941561 
L 307.463383 336.152225 
L 307.505219 336.043148 
L 307.769646 335.352896 
L 307.961086 334.853176 
L 308.223396 334.168469 
L 308.258881 334.075824 
L 309.343001 331.246566 
L 310.456659 328.339383 
L 310.710098 327.678063 
L 310.91051 327.155157 
L 311.192478 326.419036 
L 312.144334 323.934653 
L 313.084194 321.481522 
L 313.30507 320.905186 
L 313.546231 320.275647 
L 313.880095 319.404112 
L 314.083935 318.872234 
L 314.167709 318.653474 
L 315.313323 315.663323 
L 316.414481 312.789306 
L 317.149089 310.857568 
L 318.302366 307.835359 
L 319.246762 308.421776 
L 321.650496 309.925169 
L 322.575436 310.477007 
L 324.0007 311.328658 
L 330.62599 315.062491 
L 337.242107 318.798138 
L 337.742532 319.145331 
L 340.375006 320.969503 
L 343.770518 322.695385 
L 347.506083 325.504692 
L 349.85153 327.26857 
L 356.306047 331.285379 
L 356.647896 331.492444 
L 359.565867 333.251594 
L 361.03458 334.150424 
L 363.843474 336.98704 
L 363.84055 337.350866 
L 366.309106 339.792909 
L 371.721641 343.47432 
L 372.452016 343.972124 
L 374.671972 345.334885 
L 375.17018 345.641754 
L 378.146318 347.469455 
L 378.501374 347.687509 
L 380.027449 348.626159 
L 380.314457 348.803989 
L 380.572432 348.96206 
L 380.634935 349.00057 
L 380.859441 349.138983 
L 384.60275 351.441907 
L 385.703706 352.120062 
L 388.888018 354.080833 
L 386.027107 357.944006 
L 384.929478 359.416551 
L 385.081803 359.620289 
L 383.53711 361.700953 
L 382.768799 362.735849 
L 382.435115 363.185264 
L 381.57298 364.346504 
L 381.297867 364.717085 
L 381.052292 365.047846 
L 374.941742 373.278146 
L 374.327804 374.104997 
L 372.101094 377.10412 
L 368.418096 382.064957 
L 367.226989 383.669327 
L 363.420068 388.796769 
L 362.345727 390.243808 
L 358.942856 394.827376 
L 358.754944 395.080311 
L 358.174879 395.856857 
L 357.508216 396.749033 
L 357.248931 397.096326 
L 356.875729 397.595743 
L 356.652836 397.894244 
L 355.344916 399.644825 
L 356.648199 400.461998 
L 358.087879 401.364759 
L 359.550745 402.281937 
L 359.670509 402.380731 
L 361.867379 404.191093 
L 362.836171 404.989515 
L 363.01874 405.139925 
L 363.374804 405.433385 
L 363.750728 405.743177 
L 363.939244 405.898526 
L 364.864285 406.660858 
L 365.821585 407.449703 
L 365.979858 407.580153 
L 366.361528 407.894682 
L 366.767392 408.229173 
L 366.9549 408.383716 
L 367.899901 409.16248 
L 368.813752 409.915638 
L 368.997631 410.067257 
L 369.401479 410.400034 
L 369.790609 410.720714 
L 369.977916 410.874954 
L 370.903158 411.637488 
L 371.843018 412.412118 
L 372.013287 412.552346 
L 372.405442 412.875546 
L 372.795277 413.19683 
L 372.982181 413.350869 
L 373.907322 414.113302 
L 374.843754 414.885009 
L 375.009991 415.02191 
L 375.409303 415.350957 
L 375.797022 415.670527 
L 375.962049 415.806521 
L 376.914308 416.591233 
L 377.106353 416.749607 
L 377.146375 416.782572 
L 377.337311 416.939938 
L 377.499415 417.073512 
L 377.807694 417.327555 
L 377.972016 417.463045 
L 378.155089 417.613858 
L 378.18261 417.636641 
L 378.245314 417.688257 
L 378.371227 417.79189 
L 378.395825 417.812254 
L 378.78808 418.13505 
L 378.968128 418.283041 
L 379.896798 419.047288 
L 380.874865 419.852162 
L 381.03707 419.985636 
L 381.431442 420.310247 
L 382.927979 421.541752 
L 384.055851 422.469817 
L 384.256566 422.634945 
L 385.604306 423.743966 
L 386.045757 424.110816 
L 386.52272 424.507117 
L 386.889241 424.811653 
L 387.353375 425.197356 
L 388.017214 425.743146 
L 390.172752 427.515502 
L 390.611179 427.876001 
L 392.339581 429.297233 
L 392.787181 429.665293 
L 394.976188 431.46507 
L 395.607164 431.983843 
L 396.072003 432.36148 
L 396.933835 433.061309 
L 397.344337 433.394691 
L 401.787374 437.057553 
L 402.493957 437.64024 
L 411.583972 445.134015 
L 412.865682 446.190715 
L 414.923232 448.967248 
L 419.675355 456.499836 
L 421.115237 457.711683 
L 421.393374 458.153941 
L 425.99418 465.469281 
L 427.340005 467.609194 
L 446.113913 497.459796 
L 448.914035 501.911805 
L 449.296209 503.39181 
L 449.389056 503.753418 
L 451.875254 507.706817 
L 453.444576 510.202289 
L 458.654583 507.789381 
L 463.390778 505.595031 
L 463.714079 505.445226 
L 468.42981 503.260856 
L 469.607482 502.715772 
L 470.526776 502.290854 
L 470.777493 502.175022 
L 471.702433 501.747584 
L 472.43936 501.406642 
L 472.67556 501.297262 
L 473.441622 500.942005 
L 474.778777 500.321514 
L 476.378948 499.578437 
L 476.620693 499.466134 
L 477.569459 499.025221 
L 478.338107 498.668014 
L 478.447789 498.630714 
L 480.782568 497.836425 
L 482.778624 497.157363 
L 486.208915 495.990377 
L 488.070589 495.383092 
L 489.604326 498.439173 
L 489.900307 499.197876 
L 489.918553 499.244551 
L 492.250309 505.222132 
L 492.581876 506.073076 
L 494.706969 511.522609 
L 495.512347 513.588224 
L 497.719702 519.249359 
L 498.709664 521.787878 
L 500.888893 527.37532 
L 503.73438 534.670398 
L 504.035301 535.442307 
L 504.088529 535.578905 
L 504.454674 536.51937 
L 505.289489 538.660693 
L 505.825198 540.034141 
L 508.790348 547.636591 
L 510.334871 551.597248 
L 510.677326 552.475412 
L 511.217168 553.859847 
L 511.546819 554.704844 
L 512.724608 555.258883 
L 513.958619 555.839369 
L 512.167814 559.632681 
L 511.954599 560.085322 
L 511.412539 561.234162 
L 508.696392 566.98764 
L 507.754214 568.982788 
L 519.867849 572.886487 
L 520.449024 573.072887 
L 524.909502 574.503494 
L 527.826162 575.439018 
L 528.474174 575.64679 
L 531.043137 576.470818 
L 532.630102 576.979812 
L 533.861507 577.374184 
L 534.63392 577.621775 
L 535.406433 577.870375 
L 536.178846 578.117866 
L 537.118706 578.418988 
L 537.550479 578.5573 
L 539.49502 579.182529 
L 540.111982 579.380623 
L 540.716243 579.574482 
L 542.155721 580.03549 
L 542.647174 580.192452 
L 542.852526 580.257879 
L 543.175423 580.360907 
L 543.983523 580.619386 
L 544.30763 580.723222 
L 548.290869 582.00231 
L 548.580398 582.09556 
L 548.591487 582.098786 
L 551.333038 582.977655 
L 552.495892 583.350454 
L 553.979727 583.82618 
L 555.514673 584.319145 
L 556.926328 584.771383 
L 557.58059 584.981372 
L 558.078495 585.141056 
L 558.520954 585.091961 
L 558.752823 585.066101 
L 562.172626 584.684686 
L 565.315304 584.334166 
L 566.244579 584.230936 
L 566.592074 584.192124 
L 567.961892 584.039798 
L 576.748265 583.059816 
L 577.846297 582.937633 
L 586.905363 581.928516 
L 588.936803 581.702095 
L 597.712086 580.723927 
L 603.594199 580.068758 
L 606.113563 579.787092 
L 607.96314 579.581337 
L 611.597674 579.176682 
L 612.392439 579.087994 
L 612.392669 579.087969 
L 615.916412 578.687145 
L 616.721891 578.595407 
L 617.822443 578.470099 
L 617.946844 578.455985 
L 619.392371 578.291361 
L 619.546611 578.27382 
L 622.054685 577.988223 
L 622.636364 577.9108 
L 620.615207 574.540592 
L 618.388899 570.888315 
L 617.289456 568.492041 
L 615.278481 565.139979 
L 613.003381 561.90395 
L 610.666585 558.756937 
L 608.077863 555.828381 
L 606.042693 553.838173 
L 605.285906 553.09802 
L 604.389496 552.341232 
L 602.234966 550.5221 
L 599.166989 548.191454 
L 595.916645 546.038638 
L 592.486252 544.033106 
L 592.412116 543.992106 
L 589.096084 542.158226 
L 585.501571 540.668039 
L 581.822076 539.272011 
L 578.104776 538.207952 
L 574.368725 537.26658 
L 572.560468 536.858014 
L 566.918499 535.58324 
L 565.643343 535.279396 
L 561.070158 534.18953 
L 559.588844 533.836591 
L 555.204579 531.52157 
L 551.049356 529.234676 
L 549.340814 528.297135 
L 546.854011 526.932458 
L 544.068708 525.433501 
L 543.692784 525.231073 
L 542.716129 524.705445 
L 538.709602 522.103113 
L 535.008936 519.133023 
L 533.950724 518.033681 
L 533.670873 517.742842 
L 533.242024 517.297459 
L 533.070242 517.118923 
L 533.030926 517.078095 
L 532.664781 516.647834 
L 532.396624 516.332699 
L 532.370514 516.302053 
L 530.830225 514.491994 
L 530.402283 513.988947 
L 529.872521 513.329644 
L 528.743137 511.922123 
L 526.90223 509.021391 
L 526.190707 507.898963 
L 523.571943 503.605428 
L 521.565706 500.391981 
L 520.899548 499.324898 
L 520.045377 497.964052 
L 518.613157 495.676754 
L 518.219995 495.044367 
L 515.876344 491.124942 
L 515.827249 491.04268 
L 515.630164 490.71202 
L 515.995401 490.163508 
L 516.587968 489.273651 
L 520.653166 487.901413 
L 521.199258 487.716929 
L 525.236835 486.352656 
L 526.825159 485.818301 
L 528.484457 485.260068 
L 538.357167 481.892077 
L 545.481169 479.461931 
L 546.269712 479.192866 
L 546.513573 479.109697 
L 548.857224 475.565591 
L 549.418438 474.505968 
L 550.621414 472.234598 
L 550.942699 471.627918 
L 551.211259 471.120739 
L 552.925144 467.884407 
L 553.192192 467.380151 
L 555.613367 462.808379 
L 557.421208 459.394822 
L 558.583658 457.199766 
L 559.979586 454.563864 
L 561.120362 452.409939 
L 563.488914 447.937566 
L 564.359055 446.294527 
L 564.842904 445.380901 
L 565.650198 443.213367 
L 565.860792 442.775142 
L 567.477697 441.92581 
L 573.160809 438.940599 
L 573.121493 438.83878 
L 573.092258 438.733735 
L 573.073406 438.626271 
L 573.06514 438.517496 
L 573.067458 438.408418 
L 573.080362 438.300148 
L 573.10375 438.19349 
L 573.13732 438.089755 
L 573.195589 437.950838 
L 573.263838 437.816558 
L 573.341765 437.687621 
L 573.428966 437.564833 
L 573.524938 437.448699 
L 573.629176 437.339924 
L 573.741076 437.239113 
L 573.860134 437.14677 
L 573.758214 436.573157 
L 576.567712 435.120573 
L 576.747962 435.027323 
L 583.732542 431.416277 
L 584.566248 430.988134 
L 585.165972 430.678644 
L 585.76126 430.360687 
L 586.351911 430.034362 
L 586.937925 429.69967 
L 587.519099 429.356711 
L 588.095334 429.005486 
L 588.666629 428.646196 
L 589.232683 428.278741 
L 590.605424 427.361967 
L 590.673774 427.46429 
L 590.755632 427.480924 
L 590.835172 427.50653 
L 590.911385 427.540704 
L 590.983263 427.583146 
L 591.050101 427.63335 
L 591.655773 427.195125 
L 591.739042 427.14976 
L 591.827252 427.11498 
L 591.919091 427.091491 
L 592.013248 427.079596 
L 592.10801 427.079495 
L 592.202167 427.091088 
L 592.294107 427.114375 
L 592.382417 427.148853 
L 592.465788 427.194016 
L 592.542908 427.249159 
L 592.612568 427.313477 
L 592.987988 427.693937 
L 593.253322 427.5028 
L 593.498797 427.326078 
L 593.313607 427.068103 
L 593.553739 426.892491 
L 593.606967 426.967393 
L 597.048448 424.520814 
L 599.113559 423.052605 
L 601.312244 421.489633 
L 601.319402 421.379447 
L 602.611595 420.487472 
L 602.958788 420.247744 
L 602.889329 419.918495 
L 602.809789 419.591566 
L 602.72037 419.267156 
L 602.621172 418.94557 
L 602.512196 418.627209 
L 602.310473 418.079 
L 600.831174 414.057755 
L 598.603758 408.272723 
L 597.729426 406.151058 
L 596.883824 404.293315 
L 596.821422 404.184943 
L 596.75277 404.080402 
L 596.678069 403.980096 
L 596.597622 403.884325 
L 596.51163 403.793495 
L 595.831157 403.191553 
L 594.918113 402.55463 
L 594.18542 402.139793 
L 590.945661 400.786811 
L 590.570745 400.556357 
L 587.296207 398.101511 
L 587.452766 397.7644 
L 587.655698 397.327183 
L 588.745665 394.979197 
L 589.446704 393.46895 
L 589.726051 392.867109 
L 590.508746 391.181148 
L 590.757245 390.632132 
L 593.697193 384.101201 
L 593.783991 383.90845 
L 594.752481 381.757247 
L 596.361624 378.182494 
L 596.173914 378.148722 
L 595.747182 378.072207 
L 595.556952 378.038133 
L 595.480839 378.667696 
L 595.478319 378.665781 
L 595.044026 378.311028 
L 594.065051 377.624203 
L 593.997508 377.576419 
L 592.829816 376.749568 
L 592.223842 376.320517 
L 591.331464 375.688634 
L 590.486568 375.090524 
L 589.509005 374.382831 
L 588.576706 373.7076 
L 587.922343 373.233688 
L 587.299332 372.78256 
L 586.318039 372.071944 
L 585.39814 371.405685 
L 584.650929 370.864734 
L 583.705323 370.179825 
L 583.661572 370.14817 
L 583.409242 369.967013 
L 582.449119 369.27787 
L 582.36716 369.218996 
L 574.30965 363.435275 
L 574.13192 363.308556 
L 572.335067 362.027149 
L 569.824171 360.236647 
L 569.584443 360.065672 
L 567.071228 358.27396 
L 566.749036 358.044515 
L 565.813209 357.378054 
L 565.560779 357.188126 
L 564.294594 356.235161 
L 563.185574 355.400649 
L 561.985924 354.497686 
L 560.714094 353.540588 
L 560.469527 353.366084 
L 559.34841 352.565948 
L 551.765214 346.900579 
L 547.856878 343.980693 
L 547.151504 343.46071 
L 545.303339 342.092909 
L 531.612215 332.155578 
L 530.852 331.604748 
L 529.874437 330.890805 
L 528.805438 330.110126 
L 514.078483 319.570954 
L 511.573938 317.77642 
L 515.47804 313.69983 
L 515.395678 313.545186 
L 515.234783 313.243459 
L 515.011891 312.825195 
L 514.583646 312.021732 
L 514.023843 310.971686 
L 512.906052 308.874518 
L 512.557247 308.220054 
L 511.872741 306.935925 
L 509.729603 308.049784 
L 509.210326 307.110529 
L 509.145505 306.993488 
L 508.937532 306.617363 
L 508.571992 305.956346 
L 508.033863 304.983017 
L 507.879018 304.703065 
L 507.479101 304.916179 
L 507.042086 305.149254 
L 506.643782 305.361562 
L 505.086758 306.191638 
L 503.329322 307.128373 
L 503.24575 307.172931 
L 502.7547 307.434636 
L 501.762621 307.96349 
L 501.47289 307.720133 
L 501.061481 307.374452 
L 500.625777 307.008307 
L 500.472746 306.879773 
L 500.172632 306.627544 
L 498.542217 305.197139 
L 496.970475 304.15415 
L 496.632557 303.929846 
L 496.331334 303.729837 
L 495.550655 303.211467 
L 495.254674 303.014886 
L 491.717624 300.666598 
L 491.338172 300.414571 
L 490.84813 300.089254 
L 489.726307 299.344463 
L 489.351291 299.09546 
L 488.74451 298.69262 
L 488.611843 298.604511 
L 488.337839 298.422649 
L 488.277857 298.382828 
L 488.25215 298.365691 
L 485.927048 296.821369 
L 485.639434 296.618638 
L 483.973636 295.444091 
L 481.005663 293.35166 
L 480.404024 292.927448 
L 480.247666 292.817161 
L 479.808635 292.507672 
L 479.78192 292.488921 
L 478.77492 291.782539 
L 478.370064 291.498555 
L 477.422341 290.833707 
L 477.056296 290.576841 
L 476.459597 290.158275 
L 474.718896 288.922232 
L 472.356494 287.244437 
L 472.025935 287.027089 
L 471.906978 286.945533 
L 471.739128 286.830508 
L 470.669827 286.097714 
L 470.485545 285.971398 
L 470.474052 285.963433 
L 469.990866 285.624407 
L 466.813206 283.394974 
L 466.546159 283.207164 
L 464.635893 281.863859 
L 464.268639 281.605581 
L 464.211782 281.497814 
L 462.780268 278.78449 
L 461.795043 277.943324 
L 460.451637 276.794987 
L 458.964017 275.533174 
L 457.377813 277.389772 
L 455.655762 276.351621 
L 454.445024 275.62165 
L 453.214627 274.879883 
L 452.028285 274.164529 
L 450.304419 273.12527 
L 448.925427 272.293883 
L 447.818955 271.631381 
L 446.659904 270.927997 
L 445.017191 269.93753 
L 443.36455 268.945689 
L 441.281676 267.686239 
L 439.673005 266.715614 
L 437.585817 265.457192 
L 437.109486 265.170083 
L 434.107036 263.359822 
L 428.556389 260.016732 
L 425.079322 258.483197 
L 424.768522 258.346095 
L 417.045099 254.939595 
L 416.889346 254.870841 
L 416.646896 254.763982 
L 416.577941 254.733537 
L 415.800387 254.43302 
L 415.764131 254.419003 
L 414.729473 254.01899 
L 413.338082 253.351218 
L 412.082684 252.773774 
L 410.254176 251.932507 
L 408.445629 251.098196 
L 407.113615 250.476395 
L 406.031411 249.971433 
L 401.335338 247.774664 
L 400.973326 247.605301 
L 400.241842 247.263049 
L 400.095768 247.194699 
L 397.31248 245.892726 
L 395.272472 244.939459 
L 393.536004 244.148799 
L 392.585963 243.716119 
L 387.517495 241.407953 
L 386.683184 241.027896 
L 385.364275 240.426963 
L 383.835781 239.73036 
L 381.145341 238.504399 
L 380.418192 238.173033 
L 379.422684 237.719284 
L 377.696097 236.910377 
L 375.348615 235.894002 
L 374.574891 235.55064 
L 372.818665 234.769255 
L 371.062439 233.988878 
L 369.306213 233.207493 
L 369.119764 233.14906 
L 368.678968 233.008089 
L 367.454944 232.683884 
L 365.490824 232.200191 
L 361.936435 231.299849 
L 359.814567 230.762326 
L 357.730202 230.234278 
L 356.651366 229.928737 
L 355.705012 229.55068 
L 355.534037 229.476785 
L 353.766823 228.694191 
L 353.622865 228.629974 
L 351.830548 227.837903 
L 350.347116 227.182633 
L 349.240314 226.70489 
L 347.173288 225.781563 
L 346.273349 225.327813 
L 344.954037 224.662562 
L 344.952065 224.661566 
L 343.725556 224.041769 
L 343.199122 223.745688 
L 342.708475 223.469869 
L 342.008243 225.819367 
L 341.765087 225.654441 
L 341.7418 225.638613 
L 340.203023 224.595019 
L 339.682335 224.241879 
L 338.265236 223.280647 
L 337.536978 222.786674 
L 337.515909 222.772359 
L 337.162869 222.533034 
L 333.907586 220.325175 
L 333.702133 220.185753 
L 330.602098 218.083242 
L 330.338478 217.904403 
L 329.00969 217.003255 
L 327.684833 216.104728 
L 325.510948 214.630369 
L 324.910619 214.310899 
L 324.402835 214.040625 
L 323.810974 213.725491 
L 322.247498 213.388681 
L 319.111575 212.749339 
L 318.373639 212.598929 
L 313.368178 211.578522 
L 312.251093 211.350689 
L 309.620231 210.814375 
L 307.892751 210.462126 
L 307.758355 210.434721 
L 302.853201 209.434678 
L 302.325557 209.32812 
L 301.282668 209.117627 
L 300.774582 209.015103 
L 296.387696 208.123733 
L 294.60163 207.760713 
L 292.839456 207.402734 
L 291.613797 207.15363 
L 289.652723 206.755125 
L 288.984247 206.619232 
L 288.407104 206.501787 
L 287.754959 206.369221 
L 283.827166 205.571101 
L 280.634586 204.922282 
L 280.121762 204.794051 
L 279.977602 204.763102 
L 279.406609 204.640113 
L 279.211742 204.598175 
L 278.72049 204.498473 
L 276.132071 203.972543 
L 274.92132 203.726586 
L 268.161258 202.353319 
L 264.730563 201.656313 
L 264.031944 201.514371 
L 263.450366 201.396221 
L 263.319312 201.369607 
L 262.833303 201.270913 
L 257.757979 200.239718 
L 255.363419 199.753306 
L 252.845567 199.241792 
L 250.443949 198.753867 
L 248.053522 198.269471 
L 245.654627 197.78084 
L 243.215911 197.285456 
L 239.790055 196.589458 
L 239.902862 195.843457 
L 239.930283 195.667643 
L 240.286045 193.385487 
L 240.581925 191.087604 
L 240.592913 191.00262 
L 240.59503 190.485057 
L 240.601179 188.966341 
L 240.586259 188.744457 
L 240.484541 187.228765 
L 240.374254 185.585649 
L 240.343003 185.118391 
L 240.281822 184.2071 
L 240.207715 183.103282 
L 240.169507 182.551645 
L 240.042284 180.714367 
L 239.912339 178.836865 
L 239.883507 178.419508 
L 239.70739 175.875244 
L 239.62785 174.727008 
L 239.470081 172.448581 
L 239.397296 171.497532 
L 239.345782 170.798207 
L 239.206864 168.954779 
L 239.178839 168.581779 
L 239.143555 168.11321 
L 239.124099 167.85463 
L 239.007057 166.299623 
L 238.989214 166.063221 
L 238.902214 164.907626 
L 238.700693 162.421933 
L 238.638997 161.728253 
L 238.514697 160.12788 
L 238.479615 159.694595 
L 238.315898 159.250322 
L 237.638046 157.411229 
L 237.263836 157.572627 
L 236.811195 157.767999 
L 232.855276 157.227249 
L 231.967636 157.132588 
L 230.806295 157.096699 
L 230.652256 157.091961 
L 229.726005 157.063331 
L 229.48537 157.055871 
L 228.542587 157.026837 
L 228.253159 157.017865 
L 227.289709 156.988126 
L 227.059054 156.980968 
L 226.324143 156.958286 
L 225.325813 156.856366 
L 216.270174 155.932031 
L 215.668635 155.869932 
L 214.935841 155.794525 
L 214.592076 155.759342 
L 212.900873 155.587661 
L 212.502469 155.547841 
L 211.199791 155.415476 
L 210.791507 155.373741 
L 210.097524 155.302367 
L 209.473203 155.23815 
L 208.869951 155.176353 
L 208.119313 155.099636 
L 207.812646 155.068385 
L 206.475088 154.932088 
L 205.11525 154.793473 
L 204.775719 154.758794 
L 204.083854 154.688126 
L 203.804003 154.659496 
L 203.464976 154.624817 
L 202.83269 154.560096 
L 202.105945 154.485597 
L 201.761675 154.450414 
L 200.451739 154.316537 
L 199.111257 154.179938 
L 198.770617 154.145159 
L 198.053247 154.072172 
L 197.447676 154.010374 
L 196.814886 153.945755 
L 196.136127 153.876195 
L 195.831879 153.845045 
L 194.437463 153.701994 
L 194.437766 153.210541 
L 194.145717 153.179995 
L 186.849026 152.420385 
L 185.677402 152.292961 
L 184.27724 152.147188 
L 183.49525 152.065834 
L 182.783425 151.991637 
L 182.039239 151.914214 
L 181.376004 151.845159 
L 180.760151 151.780942 
L 179.904569 151.691926 
L 179.303938 151.629423 
L 178.701996 151.566719 
L 178.099752 151.503914 
L 177.516964 151.443226 
L 176.886594 151.377598 
L 176.270236 151.313482 
L 175.174321 151.199364 
L 174.153914 151.09311 
L 173.867006 151.063169 
L 172.754558 150.947337 
L 171.747155 150.842393 
L 170.340642 150.696016 
L 169.262973 150.583712 
L 168.178753 150.470905 
L 166.386134 150.284203 
L 165.381553 150.179662 
L 164.586357 150.096796 
L 163.573914 149.991448 
L 163.348601 149.967859 
L 162.437876 149.873096 
L 161.207278 149.744966 
L 159.891595 149.607964 
L 159.124122 149.528021 
L 158.761606 149.478523 
L 158.039901 149.380031 
L 156.272183 149.138891 
L 156.196373 149.128507 
L 156.069149 149.100583 
L 155.4289 148.960153 
L 154.106664 148.670322 
L 153.294028 148.492088 
L 152.457399 148.308613 
L 151.3387 148.06334 
L 150.150745 147.802844 
L 149.077412 147.56735 
L 148.192191 147.373289 
L 147.676746 147.26028 
L 147.394778 147.198483 
L 146.389794 146.97801 
L 143.076645 146.251466 
L 142.744675 146.178781 
L 142.526217 146.130795 
L 142.441234 146.112145 
L 141.650373 145.938751 
L 138.210807 145.184383 
L 137.70766 145.074096 
L 136.97416 144.899693 
L 136.880708 144.877414 
L 135.553936 144.561775 
L 135.447278 144.536472 
L 134.903303 144.40703 
L 134.438262 144.296542 
L 131.458999 143.587942 
L 131.414844 143.577357 
L 129.734957 143.175647 
L 129.734024 143.175424 
L 128.961409 143.004953 
L 128.683776 142.943559 
L 125.659148 142.275889 
L 124.676847 142.058944 
" clip-path="url(#p1be1e3fa11)" style="fill: #d3d3d3"/>
   </g>
   <g id="PatchCollection_2">
    <path d="M 214.577515 269.909567 
L 214.577515 269.808756 
L 214.476704 269.808756 
L 214.476704 269.909567 
L 214.577515 269.909567 
" clip-path="url(#p1be1e3fa11)" style="fill: #ff0000; fill-opacity: 0.7; stroke: #000000; stroke-opacity: 0.7; stroke-width: 0.5"/>
    <path d="M 176.969687 228.482132 
L 176.969687 228.381321 
L 176.868876 228.381321 
L 176.868876 228.482132 
L 176.969687 228.482132 
" clip-path="url(#p1be1e3fa11)" style="fill: #ff0000; fill-opacity: 0.7; stroke: #000000; stroke-opacity: 0.7; stroke-width: 0.5"/>
    <path d="M 225.5467 264.243718 
L 225.5467 264.142908 
L 225.44589 264.142908 
L 225.44589 264.243718 
L 225.5467 264.243718 
" clip-path="url(#p1be1e3fa11)" style="fill: #ff0000; fill-opacity: 0.7; stroke: #000000; stroke-opacity: 0.7; stroke-width: 0.5"/>
    <path d="M 347.926949 227.86775 
L 347.926949 227.766939 
L 347.826138 227.766939 
L 347.826138 227.86775 
L 347.926949 227.86775 
" clip-path="url(#p1be1e3fa11)" style="fill: #ff0000; fill-opacity: 0.7; stroke: #000000; stroke-opacity: 0.7; stroke-width: 0.5"/>
    <path d="M 327.737343 272.768155 
L 327.737343 272.667344 
L 327.636532 272.667344 
L 327.636532 272.768155 
L 327.737343 272.768155 
" clip-path="url(#p1be1e3fa11)" style="fill: #ff0000; fill-opacity: 0.7; stroke: #000000; stroke-opacity: 0.7; stroke-width: 0.5"/>
    <path d="M 151.065562 348.146158 
L 151.065562 348.045347 
L 150.964751 348.045347 
L 150.964751 348.146158 
L 151.065562 348.146158 
" clip-path="url(#p1be1e3fa11)" style="fill: #ff0000; fill-opacity: 0.7; stroke: #000000; stroke-opacity: 0.7; stroke-width: 0.5"/>
    <path d="M 237.538891 214.706967 
L 237.538891 214.606156 
L 237.43808 214.606156 
L 237.43808 214.706967 
L 237.538891 214.706967 
" clip-path="url(#p1be1e3fa11)" style="fill: #ff0000; fill-opacity: 0.7; stroke: #000000; stroke-opacity: 0.7; stroke-width: 0.5"/>
    <path d="M 325.493467 222.04656 
L 325.493467 221.945749 
L 325.392656 221.945749 
L 325.392656 222.04656 
L 325.493467 222.04656 
" clip-path="url(#p1be1e3fa11)" style="fill: #ff0000; fill-opacity: 0.7; stroke: #000000; stroke-opacity: 0.7; stroke-width: 0.5"/>
    <path d="M 271.807216 312.023046 
L 271.807216 311.922235 
L 271.706405 311.922235 
L 271.706405 312.023046 
L 271.807216 312.023046 
" clip-path="url(#p1be1e3fa11)" style="fill: #ff0000; fill-opacity: 0.7; stroke: #000000; stroke-opacity: 0.7; stroke-width: 0.5"/>
    <path d="M 513.100342 476.18531 
L 513.100342 476.084499 
L 512.999531 476.084499 
L 512.999531 476.18531 
L 513.100342 476.18531 
" clip-path="url(#p1be1e3fa11)" style="fill: #ff0000; fill-opacity: 0.7; stroke: #000000; stroke-opacity: 0.7; stroke-width: 0.5"/>
    <path d="M 552.369947 539.224416 
L 552.369947 539.123605 
L 552.269136 539.123605 
L 552.269136 539.224416 
L 552.369947 539.224416 
" clip-path="url(#p1be1e3fa11)" style="fill: #ff0000; fill-opacity: 0.7; stroke: #000000; stroke-opacity: 0.7; stroke-width: 0.5"/>
    <path d="M 190.285074 261.190874 
L 190.285074 261.090063 
L 190.184263 261.090063 
L 190.184263 261.190874 
L 190.285074 261.190874 
" clip-path="url(#p1be1e3fa11)" style="fill: #ff0000; fill-opacity: 0.7; stroke: #000000; stroke-opacity: 0.7; stroke-width: 0.5"/>
    <path d="M 552.369947 539.224416 
L 552.369947 539.123605 
L 552.269136 539.123605 
L 552.269136 539.224416 
L 552.369947 539.224416 
" clip-path="url(#p1be1e3fa11)" style="fill: #ff0000; fill-opacity: 0.7; stroke: #000000; stroke-opacity: 0.7; stroke-width: 0.5"/>
    <path d="M 230.572484 224.449711 
L 230.572484 224.3489 
L 230.471673 224.3489 
L 230.471673 224.449711 
L 230.572484 224.449711 
" clip-path="url(#p1be1e3fa11)" style="fill: #ff0000; fill-opacity: 0.7; stroke: #000000; stroke-opacity: 0.7; stroke-width: 0.5"/>
    <path d="M 151.131378 348.233106 
L 151.131378 348.132295 
L 151.030567 348.132295 
L 151.030567 348.233106 
L 151.131378 348.233106 
" clip-path="url(#p1be1e3fa11)" style="fill: #ff0000; fill-opacity: 0.7; stroke: #000000; stroke-opacity: 0.7; stroke-width: 0.5"/>
    <path d="M 236.761498 220.327705 
L 236.761498 220.226894 
L 236.660688 220.226894 
L 236.660688 220.327705 
L 236.761498 220.327705 
" clip-path="url(#p1be1e3fa11)" style="fill: #ff0000; fill-opacity: 0.7; stroke: #000000; stroke-opacity: 0.7; stroke-width: 0.5"/>
    <path d="M 238.934477 309.162137 
L 238.934477 309.061326 
L 238.833666 309.061326 
L 238.833666 309.162137 
L 238.934477 309.162137 
" clip-path="url(#p1be1e3fa11)" style="fill: #ff0000; fill-opacity: 0.7; stroke: #000000; stroke-opacity: 0.7; stroke-width: 0.5"/>
    <path d="M 441.201014 473.435527 
L 441.201014 473.334717 
L 441.100203 473.334717 
L 441.100203 473.435527 
L 441.201014 473.435527 
" clip-path="url(#p1be1e3fa11)" style="fill: #ff0000; fill-opacity: 0.7; stroke: #000000; stroke-opacity: 0.7; stroke-width: 0.5"/>
    <path d="M 233.754961 243.917195 
L 233.754961 243.816385 
L 233.65415 243.816385 
L 233.65415 243.917195 
L 233.754961 243.917195 
" clip-path="url(#p1be1e3fa11)" style="fill: #ff0000; fill-opacity: 0.7; stroke: #000000; stroke-opacity: 0.7; stroke-width: 0.5"/>
    <path d="M 298.940193 358.239925 
L 298.940193 358.139114 
L 298.839382 358.139114 
L 298.839382 358.239925 
L 298.940193 358.239925 
" clip-path="url(#p1be1e3fa11)" style="fill: #ff0000; fill-opacity: 0.7; stroke: #000000; stroke-opacity: 0.7; stroke-width: 0.5"/>
    <path d="M 151.131378 348.233106 
L 151.131378 348.132295 
L 151.030567 348.132295 
L 151.030567 348.233106 
L 151.131378 348.233106 
" clip-path="url(#p1be1e3fa11)" style="fill: #ff0000; fill-opacity: 0.7; stroke: #000000; stroke-opacity: 0.7; stroke-width: 0.5"/>
    <path d="M 268.319654 337.560461 
L 268.319654 337.45965 
L 268.218844 337.45965 
L 268.218844 337.560461 
L 268.319654 337.560461 
" clip-path="url(#p1be1e3fa11)" style="fill: #ff0000; fill-opacity: 0.7; stroke: #000000; stroke-opacity: 0.7; stroke-width: 0.5"/>
    <path d="M 222.550201 312.394206 
L 222.550201 312.293395 
L 222.44939 312.293395 
L 222.44939 312.394206 
L 222.550201 312.394206 
" clip-path="url(#p1be1e3fa11)" style="fill: #ff0000; fill-opacity: 0.7; stroke: #000000; stroke-opacity: 0.7; stroke-width: 0.5"/>
    <path d="M 234.106232 240.794997 
L 234.106232 240.694187 
L 234.005422 240.694187 
L 234.005422 240.794997 
L 234.106232 240.794997 
" clip-path="url(#p1be1e3fa11)" style="fill: #ff0000; fill-opacity: 0.7; stroke: #000000; stroke-opacity: 0.7; stroke-width: 0.5"/>
    <path d="M 275.96378 322.165741 
L 275.96378 322.06493 
L 275.862969 322.06493 
L 275.862969 322.165741 
L 275.96378 322.165741 
" clip-path="url(#p1be1e3fa11)" style="fill: #ff0000; fill-opacity: 0.7; stroke: #000000; stroke-opacity: 0.7; stroke-width: 0.5"/>
    <path d="M 306.518267 271.977664 
L 306.518267 271.876853 
L 306.417456 271.876853 
L 306.417456 271.977664 
L 306.518267 271.977664 
" clip-path="url(#p1be1e3fa11)" style="fill: #ff0000; fill-opacity: 0.7; stroke: #000000; stroke-opacity: 0.7; stroke-width: 0.5"/>
    <path d="M 198.240068 268.646832 
L 198.240068 268.546021 
L 198.139257 268.546021 
L 198.139257 268.646832 
L 198.240068 268.646832 
" clip-path="url(#p1be1e3fa11)" style="fill: #ff0000; fill-opacity: 0.7; stroke: #000000; stroke-opacity: 0.7; stroke-width: 0.5"/>
    <path d="M 271.807216 312.023046 
L 271.807216 311.922235 
L 271.706405 311.922235 
L 271.706405 312.023046 
L 271.807216 312.023046 
" clip-path="url(#p1be1e3fa11)" style="fill: #ff0000; fill-opacity: 0.7; stroke: #000000; stroke-opacity: 0.7; stroke-width: 0.5"/>
    <path d="M 166.673117 226.255636 
L 166.673117 226.154825 
L 166.572306 226.154825 
L 166.572306 226.255636 
L 166.673117 226.255636 
" clip-path="url(#p1be1e3fa11)" style="fill: #ff0000; fill-opacity: 0.7; stroke: #000000; stroke-opacity: 0.7; stroke-width: 0.5"/>
    <path d="M 412.913375 322.01061 
L 412.913375 321.909799 
L 412.812564 321.909799 
L 412.812564 322.01061 
L 412.913375 322.01061 
" clip-path="url(#p1be1e3fa11)" style="fill: #ff0000; fill-opacity: 0.7; stroke: #000000; stroke-opacity: 0.7; stroke-width: 0.5"/>
    <path d="M 301.864014 309.454542 
L 301.864014 309.353731 
L 301.763203 309.353731 
L 301.763203 309.454542 
L 301.864014 309.454542 
" clip-path="url(#p1be1e3fa11)" style="fill: #ff0000; fill-opacity: 0.7; stroke: #000000; stroke-opacity: 0.7; stroke-width: 0.5"/>
    <path d="M 350.983963 317.653339 
L 350.983963 317.552528 
L 350.883152 317.552528 
L 350.883152 317.653339 
L 350.983963 317.653339 
" clip-path="url(#p1be1e3fa11)" style="fill: #ff0000; fill-opacity: 0.7; stroke: #000000; stroke-opacity: 0.7; stroke-width: 0.5"/>
    <path d="M 237.382844 343.513395 
L 237.382844 343.412584 
L 237.282034 343.412584 
L 237.282034 343.513395 
L 237.382844 343.513395 
" clip-path="url(#p1be1e3fa11)" style="fill: #ff0000; fill-opacity: 0.7; stroke: #000000; stroke-opacity: 0.7; stroke-width: 0.5"/>
    <path d="M 227.207046 250.694246 
L 227.207046 250.593436 
L 227.106235 250.593436 
L 227.106235 250.694246 
L 227.207046 250.694246 
" clip-path="url(#p1be1e3fa11)" style="fill: #ff0000; fill-opacity: 0.7; stroke: #000000; stroke-opacity: 0.7; stroke-width: 0.5"/>
    <path d="M 225.5467 264.243718 
L 225.5467 264.142908 
L 225.44589 264.142908 
L 225.44589 264.243718 
L 225.5467 264.243718 
" clip-path="url(#p1be1e3fa11)" style="fill: #ff0000; fill-opacity: 0.7; stroke: #000000; stroke-opacity: 0.7; stroke-width: 0.5"/>
    <path d="M 234.106232 240.794997 
L 234.106232 240.694187 
L 234.005422 240.694187 
L 234.005422 240.794997 
L 234.106232 240.794997 
" clip-path="url(#p1be1e3fa11)" style="fill: #ff0000; fill-opacity: 0.7; stroke: #000000; stroke-opacity: 0.7; stroke-width: 0.5"/>
    <path d="M 248.773219 311.505505 
L 248.773219 311.404695 
L 248.672408 311.404695 
L 248.672408 311.505505 
L 248.773219 311.505505 
" clip-path="url(#p1be1e3fa11)" style="fill: #ff0000; fill-opacity: 0.7; stroke: #000000; stroke-opacity: 0.7; stroke-width: 0.5"/>
    <path d="M 279.172471 318.774649 
L 279.172471 318.673838 
L 279.071661 318.673838 
L 279.071661 318.774649 
L 279.172471 318.774649 
" clip-path="url(#p1be1e3fa11)" style="fill: #ff0000; fill-opacity: 0.7; stroke: #000000; stroke-opacity: 0.7; stroke-width: 0.5"/>
    <path d="M 234.106232 240.794997 
L 234.106232 240.694187 
L 234.005422 240.694187 
L 234.005422 240.794997 
L 234.106232 240.794997 
" clip-path="url(#p1be1e3fa11)" style="fill: #ff0000; fill-opacity: 0.7; stroke: #000000; stroke-opacity: 0.7; stroke-width: 0.5"/>
    <path d="M 292.5032 325.819306 
L 292.5032 325.718495 
L 292.402389 325.718495 
L 292.402389 325.819306 
L 292.5032 325.819306 
" clip-path="url(#p1be1e3fa11)" style="fill: #ff0000; fill-opacity: 0.7; stroke: #000000; stroke-opacity: 0.7; stroke-width: 0.5"/>
    <path d="M 231.450788 261.929216 
L 231.450788 261.828406 
L 231.349978 261.828406 
L 231.349978 261.929216 
L 231.450788 261.929216 
" clip-path="url(#p1be1e3fa11)" style="fill: #ff0000; fill-opacity: 0.7; stroke: #000000; stroke-opacity: 0.7; stroke-width: 0.5"/>
    <path d="M 293.682546 321.722595 
L 293.682546 321.621784 
L 293.581735 321.621784 
L 293.581735 321.722595 
L 293.682546 321.722595 
" clip-path="url(#p1be1e3fa11)" style="fill: #ff0000; fill-opacity: 0.7; stroke: #000000; stroke-opacity: 0.7; stroke-width: 0.5"/>
    <path d="M 217.018123 229.477219 
L 217.018123 229.376408 
L 216.917312 229.376408 
L 216.917312 229.477219 
L 217.018123 229.477219 
" clip-path="url(#p1be1e3fa11)" style="fill: #ff0000; fill-opacity: 0.7; stroke: #000000; stroke-opacity: 0.7; stroke-width: 0.5"/>
    <path d="M 415.024706 334.596828 
L 415.024706 334.496017 
L 414.923895 334.496017 
L 414.923895 334.596828 
L 415.024706 334.596828 
" clip-path="url(#p1be1e3fa11)" style="fill: #ff0000; fill-opacity: 0.7; stroke: #000000; stroke-opacity: 0.7; stroke-width: 0.5"/>
    <path d="M 290.561224 241.599066 
L 290.561224 241.498255 
L 290.460414 241.498255 
L 290.460414 241.599066 
L 290.561224 241.599066 
" clip-path="url(#p1be1e3fa11)" style="fill: #ff0000; fill-opacity: 0.7; stroke: #000000; stroke-opacity: 0.7; stroke-width: 0.5"/>
    <path d="M 210.08023 267.11101 
L 210.08023 267.010199 
L 209.979419 267.010199 
L 209.979419 267.11101 
L 210.08023 267.11101 
" clip-path="url(#p1be1e3fa11)" style="fill: #ff0000; fill-opacity: 0.7; stroke: #000000; stroke-opacity: 0.7; stroke-width: 0.5"/>
    <path d="M 284.425838 241.378892 
L 284.425838 241.278081 
L 284.325028 241.278081 
L 284.325028 241.378892 
L 284.425838 241.378892 
" clip-path="url(#p1be1e3fa11)" style="fill: #ff0000; fill-opacity: 0.7; stroke: #000000; stroke-opacity: 0.7; stroke-width: 0.5"/>
    <path d="M 274.937068 307.303563 
L 274.937068 307.202752 
L 274.836257 307.202752 
L 274.836257 307.303563 
L 274.937068 307.303563 
" clip-path="url(#p1be1e3fa11)" style="fill: #ff0000; fill-opacity: 0.7; stroke: #000000; stroke-opacity: 0.7; stroke-width: 0.5"/>
    <path d="M 233.261588 194.805081 
L 233.261588 194.70427 
L 233.160777 194.70427 
L 233.160777 194.805081 
L 233.261588 194.805081 
" clip-path="url(#p1be1e3fa11)" style="fill: #ff0000; fill-opacity: 0.7; stroke: #000000; stroke-opacity: 0.7; stroke-width: 0.5"/>
    <path d="M 281.003957 355.615919 
L 281.003957 355.515108 
L 280.903146 355.515108 
L 280.903146 355.615919 
L 281.003957 355.615919 
" clip-path="url(#p1be1e3fa11)" style="fill: #ff0000; fill-opacity: 0.7; stroke: #000000; stroke-opacity: 0.7; stroke-width: 0.5"/>
    <path d="M 446.603398 288.346828 
L 446.603398 288.246017 
L 446.502588 288.246017 
L 446.502588 288.346828 
L 446.603398 288.346828 
" clip-path="url(#p1be1e3fa11)" style="fill: #ff0000; fill-opacity: 0.7; stroke: #000000; stroke-opacity: 0.7; stroke-width: 0.5"/>
    <path d="M 367.998602 401.701622 
L 367.998602 401.600811 
L 367.897791 401.600811 
L 367.897791 401.701622 
L 367.998602 401.701622 
" clip-path="url(#p1be1e3fa11)" style="fill: #ff0000; fill-opacity: 0.7; stroke: #000000; stroke-opacity: 0.7; stroke-width: 0.5"/>
    <path d="M 562.00089 580.685037 
L 562.00089 580.584226 
L 561.900079 580.584226 
L 561.900079 580.685037 
L 562.00089 580.685037 
" clip-path="url(#p1be1e3fa11)" style="fill: #ff0000; fill-opacity: 0.7; stroke: #000000; stroke-opacity: 0.7; stroke-width: 0.5"/>
    <path d="M 365.476504 399.616171 
L 365.476504 399.51536 
L 365.375693 399.51536 
L 365.375693 399.616171 
L 365.476504 399.616171 
" clip-path="url(#p1be1e3fa11)" style="fill: #ff0000; fill-opacity: 0.7; stroke: #000000; stroke-opacity: 0.7; stroke-width: 0.5"/>
    <path d="M 225.546805 264.243631 
L 225.546805 264.14282 
L 225.445994 264.14282 
L 225.445994 264.243631 
L 225.546805 264.243631 
" clip-path="url(#p1be1e3fa11)" style="fill: #ff0000; fill-opacity: 0.7; stroke: #000000; stroke-opacity: 0.7; stroke-width: 0.5"/>
    <path d="M 214.577635 269.909379 
L 214.577635 269.808568 
L 214.476824 269.808568 
L 214.476824 269.909379 
L 214.577635 269.909379 
" clip-path="url(#p1be1e3fa11)" style="fill: #ff0000; fill-opacity: 0.7; stroke: #000000; stroke-opacity: 0.7; stroke-width: 0.5"/>
    <path d="M 233.718389 243.677048 
L 233.718389 243.576237 
L 233.617578 243.576237 
L 233.617578 243.677048 
L 233.718389 243.677048 
" clip-path="url(#p1be1e3fa11)" style="fill: #ff0000; fill-opacity: 0.7; stroke: #000000; stroke-opacity: 0.7; stroke-width: 0.5"/>
    <path d="M 231.086239 326.385217 
L 231.086239 326.284406 
L 230.985428 326.284406 
L 230.985428 326.385217 
L 231.086239 326.385217 
" clip-path="url(#p1be1e3fa11)" style="fill: #ff0000; fill-opacity: 0.7; stroke: #000000; stroke-opacity: 0.7; stroke-width: 0.5"/>
    <path d="M 192.258701 220.918388 
L 192.258701 220.817577 
L 192.157891 220.817577 
L 192.157891 220.918388 
L 192.258701 220.918388 
" clip-path="url(#p1be1e3fa11)" style="fill: #ff0000; fill-opacity: 0.7; stroke: #000000; stroke-opacity: 0.7; stroke-width: 0.5"/>
    <path d="M 258.89636 326.733917 
L 258.89636 326.633106 
L 258.795549 326.633106 
L 258.795549 326.733917 
L 258.89636 326.733917 
" clip-path="url(#p1be1e3fa11)" style="fill: #ff0000; fill-opacity: 0.7; stroke: #000000; stroke-opacity: 0.7; stroke-width: 0.5"/>
    <path d="M 255.422001 238.946342 
L 255.422001 238.845532 
L 255.32119 238.845532 
L 255.32119 238.946342 
L 255.422001 238.946342 
" clip-path="url(#p1be1e3fa11)" style="fill: #ff0000; fill-opacity: 0.7; stroke: #000000; stroke-opacity: 0.7; stroke-width: 0.5"/>
    <path d="M 233.261692 194.804994 
L 233.261692 194.704183 
L 233.160881 194.704183 
L 233.160881 194.804994 
L 233.261692 194.804994 
" clip-path="url(#p1be1e3fa11)" style="fill: #ff0000; fill-opacity: 0.7; stroke: #000000; stroke-opacity: 0.7; stroke-width: 0.5"/>
    <path d="M 552.354632 539.272359 
L 552.354632 539.171548 
L 552.253821 539.171548 
L 552.253821 539.272359 
L 552.354632 539.272359 
" clip-path="url(#p1be1e3fa11)" style="fill: #ff0000; fill-opacity: 0.7; stroke: #000000; stroke-opacity: 0.7; stroke-width: 0.5"/>
    <path d="M 207.681561 267.426344 
L 207.681561 267.325533 
L 207.580751 267.325533 
L 207.580751 267.426344 
L 207.681561 267.426344 
" clip-path="url(#p1be1e3fa11)" style="fill: #ff0000; fill-opacity: 0.7; stroke: #000000; stroke-opacity: 0.7; stroke-width: 0.5"/>
    <path d="M 572.773038 552.434284 
L 572.773038 552.333473 
L 572.672227 552.333473 
L 572.672227 552.434284 
L 572.773038 552.434284 
" clip-path="url(#p1be1e3fa11)" style="fill: #ff0000; fill-opacity: 0.7; stroke: #000000; stroke-opacity: 0.7; stroke-width: 0.5"/>
    <path d="M 278.097963 327.31991 
L 278.097963 327.2191 
L 277.997152 327.2191 
L 277.997152 327.31991 
L 278.097963 327.31991 
" clip-path="url(#p1be1e3fa11)" style="fill: #ff0000; fill-opacity: 0.7; stroke: #000000; stroke-opacity: 0.7; stroke-width: 0.5"/>
    <path d="M 239.142194 204.121213 
L 239.142194 204.020402 
L 239.041383 204.020402 
L 239.041383 204.121213 
L 239.142194 204.121213 
" clip-path="url(#p1be1e3fa11)" style="fill: #ff0000; fill-opacity: 0.7; stroke: #000000; stroke-opacity: 0.7; stroke-width: 0.5"/>
    <path d="M 552.354632 539.272359 
L 552.354632 539.171548 
L 552.253821 539.171548 
L 552.253821 539.272359 
L 552.354632 539.272359 
" clip-path="url(#p1be1e3fa11)" style="fill: #ff0000; fill-opacity: 0.7; stroke: #000000; stroke-opacity: 0.7; stroke-width: 0.5"/>
    <path d="M 221.043371 332.326127 
L 221.043371 332.225316 
L 220.94256 332.225316 
L 220.94256 332.326127 
L 221.043371 332.326127 
" clip-path="url(#p1be1e3fa11)" style="fill: #ff0000; fill-opacity: 0.7; stroke: #000000; stroke-opacity: 0.7; stroke-width: 0.5"/>
    <path d="M 226.042437 201.477029 
L 226.042437 201.376218 
L 225.941626 201.376218 
L 225.941626 201.477029 
L 226.042437 201.477029 
" clip-path="url(#p1be1e3fa11)" style="fill: #ff0000; fill-opacity: 0.7; stroke: #000000; stroke-opacity: 0.7; stroke-width: 0.5"/>
    <path d="M 271.12723 254.291776 
L 271.12723 254.190965 
L 271.026419 254.190965 
L 271.026419 254.291776 
L 271.12723 254.291776 
" clip-path="url(#p1be1e3fa11)" style="fill: #ff0000; fill-opacity: 0.7; stroke: #000000; stroke-opacity: 0.7; stroke-width: 0.5"/>
    <path d="M 207.681561 267.426344 
L 207.681561 267.325533 
L 207.580751 267.325533 
L 207.580751 267.426344 
L 207.681561 267.426344 
" clip-path="url(#p1be1e3fa11)" style="fill: #ff0000; fill-opacity: 0.7; stroke: #000000; stroke-opacity: 0.7; stroke-width: 0.5"/>
    <path d="M 238.88188 337.340877 
L 238.88188 337.240066 
L 238.781069 337.240066 
L 238.781069 337.340877 
L 238.88188 337.340877 
" clip-path="url(#p1be1e3fa11)" style="fill: #ff0000; fill-opacity: 0.7; stroke: #000000; stroke-opacity: 0.7; stroke-width: 0.5"/>
    <path d="M 195.370461 272.359705 
L 195.370461 272.258894 
L 195.269651 272.258894 
L 195.269651 272.359705 
L 195.370461 272.359705 
" clip-path="url(#p1be1e3fa11)" style="fill: #ff0000; fill-opacity: 0.7; stroke: #000000; stroke-opacity: 0.7; stroke-width: 0.5"/>
    <path d="M 175.178984 276.26598 
L 175.178984 276.165169 
L 175.078173 276.165169 
L 175.078173 276.26598 
L 175.178984 276.26598 
" clip-path="url(#p1be1e3fa11)" style="fill: #ff0000; fill-opacity: 0.7; stroke: #000000; stroke-opacity: 0.7; stroke-width: 0.5"/>
    <path d="M 235.066445 193.628595 
L 235.066445 193.527784 
L 234.965634 193.527784 
L 234.965634 193.628595 
L 235.066445 193.628595 
" clip-path="url(#p1be1e3fa11)" style="fill: #ff0000; fill-opacity: 0.7; stroke: #000000; stroke-opacity: 0.7; stroke-width: 0.5"/>
    <path d="M 248.738445 257.179975 
L 248.738445 257.079164 
L 248.637634 257.079164 
L 248.637634 257.179975 
L 248.738445 257.179975 
" clip-path="url(#p1be1e3fa11)" style="fill: #ff0000; fill-opacity: 0.7; stroke: #000000; stroke-opacity: 0.7; stroke-width: 0.5"/>
    <path d="M 297.324209 338.627119 
L 297.324209 338.526308 
L 297.223398 338.526308 
L 297.223398 338.627119 
L 297.324209 338.627119 
" clip-path="url(#p1be1e3fa11)" style="fill: #ff0000; fill-opacity: 0.7; stroke: #000000; stroke-opacity: 0.7; stroke-width: 0.5"/>
    <path d="M 235.881594 341.665211 
L 235.881594 341.5644 
L 235.780783 341.5644 
L 235.780783 341.665211 
L 235.881594 341.665211 
" clip-path="url(#p1be1e3fa11)" style="fill: #ff0000; fill-opacity: 0.7; stroke: #000000; stroke-opacity: 0.7; stroke-width: 0.5"/>
    <path d="M 194.140407 272.516078 
L 194.140407 272.415267 
L 194.039596 272.415267 
L 194.039596 272.516078 
L 194.140407 272.516078 
" clip-path="url(#p1be1e3fa11)" style="fill: #ff0000; fill-opacity: 0.7; stroke: #000000; stroke-opacity: 0.7; stroke-width: 0.5"/>
    <path d="M 289.778114 358.033812 
L 289.778114 357.933001 
L 289.677304 357.933001 
L 289.677304 358.033812 
L 289.778114 358.033812 
" clip-path="url(#p1be1e3fa11)" style="fill: #ff0000; fill-opacity: 0.7; stroke: #000000; stroke-opacity: 0.7; stroke-width: 0.5"/>
    <path d="M 490.846862 499.435158 
L 490.846862 499.334347 
L 490.746052 499.334347 
L 490.746052 499.435158 
L 490.846862 499.435158 
" clip-path="url(#p1be1e3fa11)" style="fill: #ff0000; fill-opacity: 0.7; stroke: #000000; stroke-opacity: 0.7; stroke-width: 0.5"/>
    <path d="M 314.588086 317.070674 
L 314.588086 316.969863 
L 314.487275 316.969863 
L 314.487275 317.070674 
L 314.588086 317.070674 
" clip-path="url(#p1be1e3fa11)" style="fill: #ff0000; fill-opacity: 0.7; stroke: #000000; stroke-opacity: 0.7; stroke-width: 0.5"/>
    <path d="M 289.778114 358.033812 
L 289.778114 357.933001 
L 289.677304 357.933001 
L 289.677304 358.033812 
L 289.778114 358.033812 
" clip-path="url(#p1be1e3fa11)" style="fill: #ff0000; fill-opacity: 0.7; stroke: #000000; stroke-opacity: 0.7; stroke-width: 0.5"/>
    <path d="M 319.489592 300.040494 
L 319.489592 299.939684 
L 319.388781 299.939684 
L 319.388781 300.040494 
L 319.489592 300.040494 
" clip-path="url(#p1be1e3fa11)" style="fill: #ff0000; fill-opacity: 0.7; stroke: #000000; stroke-opacity: 0.7; stroke-width: 0.5"/>
    <path d="M 225.161364 193.837113 
L 225.161364 193.736302 
L 225.060553 193.736302 
L 225.060553 193.837113 
L 225.161364 193.837113 
" clip-path="url(#p1be1e3fa11)" style="fill: #ff0000; fill-opacity: 0.7; stroke: #000000; stroke-opacity: 0.7; stroke-width: 0.5"/>
    <path d="M 519.665527 432.301298 
L 519.665527 432.200487 
L 519.564716 432.200487 
L 519.564716 432.301298 
L 519.665527 432.301298 
" clip-path="url(#p1be1e3fa11)" style="fill: #ff0000; fill-opacity: 0.7; stroke: #000000; stroke-opacity: 0.7; stroke-width: 0.5"/>
    <path d="M 288.071122 357.562653 
L 288.071122 357.461843 
L 287.970311 357.461843 
L 287.970311 357.562653 
L 288.071122 357.562653 
" clip-path="url(#p1be1e3fa11)" style="fill: #ff0000; fill-opacity: 0.7; stroke: #000000; stroke-opacity: 0.7; stroke-width: 0.5"/>
    <path d="M 428.523333 459.469601 
L 428.523333 459.36879 
L 428.422523 459.36879 
L 428.422523 459.469601 
L 428.523333 459.469601 
" clip-path="url(#p1be1e3fa11)" style="fill: #ff0000; fill-opacity: 0.7; stroke: #000000; stroke-opacity: 0.7; stroke-width: 0.5"/>
    <path d="M 339.921334 299.541421 
L 339.921334 299.44061 
L 339.820523 299.44061 
L 339.820523 299.541421 
L 339.921334 299.541421 
" clip-path="url(#p1be1e3fa11)" style="fill: #ff0000; fill-opacity: 0.7; stroke: #000000; stroke-opacity: 0.7; stroke-width: 0.5"/>
    <path d="M 490.142969 382.412497 
L 490.142969 382.311686 
L 490.042158 382.311686 
L 490.042158 382.412497 
L 490.142969 382.412497 
" clip-path="url(#p1be1e3fa11)" style="fill: #ff0000; fill-opacity: 0.7; stroke: #000000; stroke-opacity: 0.7; stroke-width: 0.5"/>
    <path d="M 286.421886 306.217543 
L 286.421886 306.116732 
L 286.321075 306.116732 
L 286.321075 306.217543 
L 286.421886 306.217543 
" clip-path="url(#p1be1e3fa11)" style="fill: #ff0000; fill-opacity: 0.7; stroke: #000000; stroke-opacity: 0.7; stroke-width: 0.5"/>
    <path d="M 257.118116 288.741116 
L 257.118116 288.640305 
L 257.017305 288.640305 
L 257.017305 288.741116 
L 257.118116 288.741116 
" clip-path="url(#p1be1e3fa11)" style="fill: #ff0000; fill-opacity: 0.7; stroke: #000000; stroke-opacity: 0.7; stroke-width: 0.5"/>
    <path d="M 239.643905 295.072661 
L 239.643905 294.97185 
L 239.543095 294.97185 
L 239.543095 295.072661 
L 239.643905 295.072661 
" clip-path="url(#p1be1e3fa11)" style="fill: #ff0000; fill-opacity: 0.7; stroke: #000000; stroke-opacity: 0.7; stroke-width: 0.5"/>
    <path d="M 265.579811 351.323879 
L 265.579811 351.223068 
L 265.479 351.223068 
L 265.479 351.323879 
L 265.579811 351.323879 
" clip-path="url(#p1be1e3fa11)" style="fill: #ff0000; fill-opacity: 0.7; stroke: #000000; stroke-opacity: 0.7; stroke-width: 0.5"/>
    <path d="M 244.18527 218.898319 
L 244.18527 218.797508 
L 244.084459 218.797508 
L 244.084459 218.898319 
L 244.18527 218.898319 
" clip-path="url(#p1be1e3fa11)" style="fill: #ff0000; fill-opacity: 0.7; stroke: #000000; stroke-opacity: 0.7; stroke-width: 0.5"/>
    <path d="M 339.635512 297.382643 
L 339.635512 297.281832 
L 339.534701 297.281832 
L 339.534701 297.382643 
L 339.635512 297.382643 
" clip-path="url(#p1be1e3fa11)" style="fill: #ff0000; fill-opacity: 0.7; stroke: #000000; stroke-opacity: 0.7; stroke-width: 0.5"/>
    <path d="M 215.430076 229.238801 
L 215.430076 229.13799 
L 215.329265 229.13799 
L 215.329265 229.238801 
L 215.430076 229.238801 
" clip-path="url(#p1be1e3fa11)" style="fill: #ff0000; fill-opacity: 0.7; stroke: #000000; stroke-opacity: 0.7; stroke-width: 0.5"/>
    <path d="M 250.569496 276.52564 
L 250.569496 276.42483 
L 250.468685 276.42483 
L 250.468685 276.52564 
L 250.569496 276.52564 
" clip-path="url(#p1be1e3fa11)" style="fill: #ff0000; fill-opacity: 0.7; stroke: #000000; stroke-opacity: 0.7; stroke-width: 0.5"/>
    <path d="M 289.778114 358.033812 
L 289.778114 357.933001 
L 289.677304 357.933001 
L 289.677304 358.033812 
L 289.778114 358.033812 
" clip-path="url(#p1be1e3fa11)" style="fill: #ff0000; fill-opacity: 0.7; stroke: #000000; stroke-opacity: 0.7; stroke-width: 0.5"/>
    <path d="M 552.354632 539.272359 
L 552.354632 539.171548 
L 552.253821 539.171548 
L 552.253821 539.272359 
L 552.354632 539.272359 
" clip-path="url(#p1be1e3fa11)" style="fill: #ff0000; fill-opacity: 0.7; stroke: #000000; stroke-opacity: 0.7; stroke-width: 0.5"/>
    <path d="M 250.700333 242.894063 
L 250.700333 242.793252 
L 250.599522 242.793252 
L 250.599522 242.894063 
L 250.700333 242.894063 
" clip-path="url(#p1be1e3fa11)" style="fill: #ff0000; fill-opacity: 0.7; stroke: #000000; stroke-opacity: 0.7; stroke-width: 0.5"/>
    <path d="M 288.071122 357.562653 
L 288.071122 357.461843 
L 287.970311 357.461843 
L 287.970311 357.562653 
L 288.071122 357.562653 
" clip-path="url(#p1be1e3fa11)" style="fill: #ff0000; fill-opacity: 0.7; stroke: #000000; stroke-opacity: 0.7; stroke-width: 0.5"/>
    <path d="M 412.913486 322.010512 
L 412.913486 321.909701 
L 412.812675 321.909701 
L 412.812675 322.010512 
L 412.913486 322.010512 
" clip-path="url(#p1be1e3fa11)" style="fill: #ff0000; fill-opacity: 0.7; stroke: #000000; stroke-opacity: 0.7; stroke-width: 0.5"/>
    <path d="M 161.272354 273.352496 
L 161.272354 273.251685 
L 161.171543 273.251685 
L 161.171543 273.352496 
L 161.272354 273.352496 
" clip-path="url(#p1be1e3fa11)" style="fill: #ff0000; fill-opacity: 0.7; stroke: #000000; stroke-opacity: 0.7; stroke-width: 0.5"/>
    <path d="M 215.946569 233.452778 
L 215.946569 233.351967 
L 215.845758 233.351967 
L 215.845758 233.452778 
L 215.946569 233.452778 
" clip-path="url(#p1be1e3fa11)" style="fill: #ff0000; fill-opacity: 0.7; stroke: #000000; stroke-opacity: 0.7; stroke-width: 0.5"/>
    <path d="M 319.489592 300.040494 
L 319.489592 299.939684 
L 319.388781 299.939684 
L 319.388781 300.040494 
L 319.489592 300.040494 
" clip-path="url(#p1be1e3fa11)" style="fill: #ff0000; fill-opacity: 0.7; stroke: #000000; stroke-opacity: 0.7; stroke-width: 0.5"/>
    <path d="M 552.354632 539.272359 
L 552.354632 539.171548 
L 552.253821 539.171548 
L 552.253821 539.272359 
L 552.354632 539.272359 
" clip-path="url(#p1be1e3fa11)" style="fill: #ff0000; fill-opacity: 0.7; stroke: #000000; stroke-opacity: 0.7; stroke-width: 0.5"/>
    <path d="M 268.319759 337.560362 
L 268.319759 337.459552 
L 268.218948 337.459552 
L 268.218948 337.560362 
L 268.319759 337.560362 
" clip-path="url(#p1be1e3fa11)" style="fill: #ff0000; fill-opacity: 0.7; stroke: #000000; stroke-opacity: 0.7; stroke-width: 0.5"/>
    <path d="M 234.721723 321.075217 
L 234.721723 320.974406 
L 234.620913 320.974406 
L 234.620913 321.075217 
L 234.721723 321.075217 
" clip-path="url(#p1be1e3fa11)" style="fill: #ff0000; fill-opacity: 0.7; stroke: #000000; stroke-opacity: 0.7; stroke-width: 0.5"/>
    <path d="M 225.743693 262.719723 
L 225.743693 262.618912 
L 225.642882 262.618912 
L 225.642882 262.719723 
L 225.743693 262.719723 
" clip-path="url(#p1be1e3fa11)" style="fill: #ff0000; fill-opacity: 0.7; stroke: #000000; stroke-opacity: 0.7; stroke-width: 0.5"/>
    <path d="M 232.611394 252.625819 
L 232.611394 252.525008 
L 232.510583 252.525008 
L 232.510583 252.625819 
L 232.611394 252.625819 
" clip-path="url(#p1be1e3fa11)" style="fill: #ff0000; fill-opacity: 0.7; stroke: #000000; stroke-opacity: 0.7; stroke-width: 0.5"/>
    <path d="M 230.659446 194.502605 
L 230.659446 194.401795 
L 230.558635 194.401795 
L 230.558635 194.502605 
L 230.659446 194.502605 
" clip-path="url(#p1be1e3fa11)" style="fill: #ff0000; fill-opacity: 0.7; stroke: #000000; stroke-opacity: 0.7; stroke-width: 0.5"/>
    <path d="M 177.081077 285.03331 
L 177.081077 284.932499 
L 176.980266 284.932499 
L 176.980266 285.03331 
L 177.081077 285.03331 
" clip-path="url(#p1be1e3fa11)" style="fill: #ff0000; fill-opacity: 0.7; stroke: #000000; stroke-opacity: 0.7; stroke-width: 0.5"/>
    <path d="M 415.013684 334.552033 
L 415.013684 334.451222 
L 414.912874 334.451222 
L 414.912874 334.552033 
L 415.013684 334.552033 
" clip-path="url(#p1be1e3fa11)" style="fill: #ff0000; fill-opacity: 0.7; stroke: #000000; stroke-opacity: 0.7; stroke-width: 0.5"/>
    <path d="M 474.031566 500.519792 
L 474.031566 500.418981 
L 473.930755 500.418981 
L 473.930755 500.519792 
L 474.031566 500.519792 
" clip-path="url(#p1be1e3fa11)" style="fill: #ff0000; fill-opacity: 0.7; stroke: #000000; stroke-opacity: 0.7; stroke-width: 0.5"/>
    <path d="M 217.740798 269.507376 
L 217.740798 269.406565 
L 217.639987 269.406565 
L 217.639987 269.507376 
L 217.740798 269.507376 
" clip-path="url(#p1be1e3fa11)" style="fill: #ff0000; fill-opacity: 0.7; stroke: #000000; stroke-opacity: 0.7; stroke-width: 0.5"/>
    <path d="M 211.511814 270.298956 
L 211.511814 270.198145 
L 211.411004 270.198145 
L 211.411004 270.298956 
L 211.511814 270.298956 
" clip-path="url(#p1be1e3fa11)" style="fill: #ff0000; fill-opacity: 0.7; stroke: #000000; stroke-opacity: 0.7; stroke-width: 0.5"/>
    <path d="M 458.452763 503.103868 
L 458.452763 503.003057 
L 458.351952 503.003057 
L 458.351952 503.103868 
L 458.452763 503.103868 
" clip-path="url(#p1be1e3fa11)" style="fill: #ff0000; fill-opacity: 0.7; stroke: #000000; stroke-opacity: 0.7; stroke-width: 0.5"/>
    <path d="M 225.447196 295.269925 
L 225.447196 295.169114 
L 225.346386 295.169114 
L 225.346386 295.269925 
L 225.447196 295.269925 
" clip-path="url(#p1be1e3fa11)" style="fill: #ff0000; fill-opacity: 0.7; stroke: #000000; stroke-opacity: 0.7; stroke-width: 0.5"/>
    <path d="M 435.734507 288.8148 
L 435.734507 288.713989 
L 435.633696 288.713989 
L 435.633696 288.8148 
L 435.734507 288.8148 
" clip-path="url(#p1be1e3fa11)" style="fill: #ff0000; fill-opacity: 0.7; stroke: #000000; stroke-opacity: 0.7; stroke-width: 0.5"/>
    <path d="M 226.042437 201.477029 
L 226.042437 201.376218 
L 225.941626 201.376218 
L 225.941626 201.477029 
L 226.042437 201.477029 
" clip-path="url(#p1be1e3fa11)" style="fill: #ff0000; fill-opacity: 0.7; stroke: #000000; stroke-opacity: 0.7; stroke-width: 0.5"/>
    <path d="M 267.2125 328.378611 
L 267.2125 328.2778 
L 267.111689 328.2778 
L 267.111689 328.378611 
L 267.2125 328.378611 
" clip-path="url(#p1be1e3fa11)" style="fill: #ff0000; fill-opacity: 0.7; stroke: #000000; stroke-opacity: 0.7; stroke-width: 0.5"/>
    <path d="M 178.414637 227.918084 
L 178.414637 227.817273 
L 178.313826 227.817273 
L 178.313826 227.918084 
L 178.414637 227.918084 
" clip-path="url(#p1be1e3fa11)" style="fill: #ff0000; fill-opacity: 0.7; stroke: #000000; stroke-opacity: 0.7; stroke-width: 0.5"/>
    <path d="M 453.152985 373.981247 
L 453.152985 373.880436 
L 453.052174 373.880436 
L 453.052174 373.981247 
L 453.152985 373.981247 
" clip-path="url(#p1be1e3fa11)" style="fill: #ff0000; fill-opacity: 0.7; stroke: #000000; stroke-opacity: 0.7; stroke-width: 0.5"/>
    <path d="M 290.561336 241.598978 
L 290.561336 241.498167 
L 290.460525 241.498167 
L 290.460525 241.598978 
L 290.561336 241.598978 
" clip-path="url(#p1be1e3fa11)" style="fill: #ff0000; fill-opacity: 0.7; stroke: #000000; stroke-opacity: 0.7; stroke-width: 0.5"/>
    <path d="M 253.829222 318.759802 
L 253.829222 318.658991 
L 253.728411 318.658991 
L 253.728411 318.759802 
L 253.829222 318.759802 
" clip-path="url(#p1be1e3fa11)" style="fill: #ff0000; fill-opacity: 0.7; stroke: #000000; stroke-opacity: 0.7; stroke-width: 0.5"/>
    <path d="M 225.161371 193.83709 
L 225.161371 193.736279 
L 225.06056 193.736279 
L 225.06056 193.83709 
L 225.161371 193.83709 
" clip-path="url(#p1be1e3fa11)" style="fill: #ff0000; fill-opacity: 0.7; stroke: #000000; stroke-opacity: 0.7; stroke-width: 0.5"/>
    <path d="M 587.755052 567.984242 
L 587.755052 567.883432 
L 587.654241 567.883432 
L 587.654241 567.984242 
L 587.755052 567.984242 
" clip-path="url(#p1be1e3fa11)" style="fill: #ff0000; fill-opacity: 0.7; stroke: #000000; stroke-opacity: 0.7; stroke-width: 0.5"/>
    <path d="M 314.104409 280.489199 
L 314.104409 280.388388 
L 314.003599 280.388388 
L 314.003599 280.489199 
L 314.104409 280.489199 
" clip-path="url(#p1be1e3fa11)" style="fill: #ff0000; fill-opacity: 0.7; stroke: #000000; stroke-opacity: 0.7; stroke-width: 0.5"/>
    <path d="M 155.681966 173.953498 
L 155.681966 173.852687 
L 155.581155 173.852687 
L 155.581155 173.953498 
L 155.681966 173.953498 
" clip-path="url(#p1be1e3fa11)" style="fill: #ff0000; fill-opacity: 0.7; stroke: #000000; stroke-opacity: 0.7; stroke-width: 0.5"/>
    <path d="M 302.642083 348.457179 
L 302.642083 348.356368 
L 302.541272 348.356368 
L 302.541272 348.457179 
L 302.642083 348.457179 
" clip-path="url(#p1be1e3fa11)" style="fill: #ff0000; fill-opacity: 0.7; stroke: #000000; stroke-opacity: 0.7; stroke-width: 0.5"/>
   </g>
   <g id="matplotlib.axis_1">
    <g id="xtick_1">
     <g id="line2d_1">
      <defs>
       <path id="me0103116f2" d="M 0 0 
L 0 3.5 
" style="stroke: #000000; stroke-width: 0.8"/>
      </defs>
      <g>
       <use xlink:href="#me0103116f2" x="185.738594" y="607.295162" style="stroke: #000000; stroke-width: 0.8"/>
      </g>
     </g>
     <g id="text_1">
      <!-- 392000 -->
      <g transform="translate(166.651094 621.893599) scale(0.1 -0.1)">
       <defs>
        <path id="DejaVuSans-33" d="M 2597 2516 
Q 3050 2419 3304 2112 
Q 3559 1806 3559 1356 
Q 3559 666 3084 287 
Q 2609 -91 1734 -91 
Q 1441 -91 1130 -33 
Q 819 25 488 141 
L 488 750 
Q 750 597 1062 519 
Q 1375 441 1716 441 
Q 2309 441 2620 675 
Q 2931 909 2931 1356 
Q 2931 1769 2642 2001 
Q 2353 2234 1838 2234 
L 1294 2234 
L 1294 2753 
L 1863 2753 
Q 2328 2753 2575 2939 
Q 2822 3125 2822 3475 
Q 2822 3834 2567 4026 
Q 2313 4219 1838 4219 
Q 1578 4219 1281 4162 
Q 984 4106 628 3988 
L 628 4550 
Q 988 4650 1302 4700 
Q 1616 4750 1894 4750 
Q 2613 4750 3031 4423 
Q 3450 4097 3450 3541 
Q 3450 3153 3228 2886 
Q 3006 2619 2597 2516 
z
" transform="scale(0.015625)"/>
        <path id="DejaVuSans-39" d="M 703 97 
L 703 672 
Q 941 559 1184 500 
Q 1428 441 1663 441 
Q 2288 441 2617 861 
Q 2947 1281 2994 2138 
Q 2813 1869 2534 1725 
Q 2256 1581 1919 1581 
Q 1219 1581 811 2004 
Q 403 2428 403 3163 
Q 403 3881 828 4315 
Q 1253 4750 1959 4750 
Q 2769 4750 3195 4129 
Q 3622 3509 3622 2328 
Q 3622 1225 3098 567 
Q 2575 -91 1691 -91 
Q 1453 -91 1209 -44 
Q 966 3 703 97 
z
M 1959 2075 
Q 2384 2075 2632 2365 
Q 2881 2656 2881 3163 
Q 2881 3666 2632 3958 
Q 2384 4250 1959 4250 
Q 1534 4250 1286 3958 
Q 1038 3666 1038 3163 
Q 1038 2656 1286 2365 
Q 1534 2075 1959 2075 
z
" transform="scale(0.015625)"/>
        <path id="DejaVuSans-32" d="M 1228 531 
L 3431 531 
L 3431 0 
L 469 0 
L 469 531 
Q 828 903 1448 1529 
Q 2069 2156 2228 2338 
Q 2531 2678 2651 2914 
Q 2772 3150 2772 3378 
Q 2772 3750 2511 3984 
Q 2250 4219 1831 4219 
Q 1534 4219 1204 4116 
Q 875 4013 500 3803 
L 500 4441 
Q 881 4594 1212 4672 
Q 1544 4750 1819 4750 
Q 2544 4750 2975 4387 
Q 3406 4025 3406 3419 
Q 3406 3131 3298 2873 
Q 3191 2616 2906 2266 
Q 2828 2175 2409 1742 
Q 1991 1309 1228 531 
z
" transform="scale(0.015625)"/>
        <path id="DejaVuSans-30" d="M 2034 4250 
Q 1547 4250 1301 3770 
Q 1056 3291 1056 2328 
Q 1056 1369 1301 889 
Q 1547 409 2034 409 
Q 2525 409 2770 889 
Q 3016 1369 3016 2328 
Q 3016 3291 2770 3770 
Q 2525 4250 2034 4250 
z
M 2034 4750 
Q 2819 4750 3233 4129 
Q 3647 3509 3647 2328 
Q 3647 1150 3233 529 
Q 2819 -91 2034 -91 
Q 1250 -91 836 529 
Q 422 1150 422 2328 
Q 422 3509 836 4129 
Q 1250 4750 2034 4750 
z
" transform="scale(0.015625)"/>
       </defs>
       <use xlink:href="#DejaVuSans-33"/>
       <use xlink:href="#DejaVuSans-39" x="63.623047"/>
       <use xlink:href="#DejaVuSans-32" x="127.246094"/>
       <use xlink:href="#DejaVuSans-30" x="190.869141"/>
       <use xlink:href="#DejaVuSans-30" x="254.492188"/>
       <use xlink:href="#DejaVuSans-30" x="318.115234"/>
      </g>
     </g>
    </g>
    <g id="xtick_2">
     <g id="line2d_2">
      <g>
       <use xlink:href="#me0103116f2" x="286.549462" y="607.295162" style="stroke: #000000; stroke-width: 0.8"/>
      </g>
     </g>
     <g id="text_2">
      <!-- 393000 -->
      <g transform="translate(267.461962 621.893599) scale(0.1 -0.1)">
       <use xlink:href="#DejaVuSans-33"/>
       <use xlink:href="#DejaVuSans-39" x="63.623047"/>
       <use xlink:href="#DejaVuSans-33" x="127.246094"/>
       <use xlink:href="#DejaVuSans-30" x="190.869141"/>
       <use xlink:href="#DejaVuSans-30" x="254.492188"/>
       <use xlink:href="#DejaVuSans-30" x="318.115234"/>
      </g>
     </g>
    </g>
    <g id="xtick_3">
     <g id="line2d_3">
      <g>
       <use xlink:href="#me0103116f2" x="387.36033" y="607.295162" style="stroke: #000000; stroke-width: 0.8"/>
      </g>
     </g>
     <g id="text_3">
      <!-- 394000 -->
      <g transform="translate(368.27283 621.893599) scale(0.1 -0.1)">
       <defs>
        <path id="DejaVuSans-34" d="M 2419 4116 
L 825 1625 
L 2419 1625 
L 2419 4116 
z
M 2253 4666 
L 3047 4666 
L 3047 1625 
L 3713 1625 
L 3713 1100 
L 3047 1100 
L 3047 0 
L 2419 0 
L 2419 1100 
L 313 1100 
L 313 1709 
L 2253 4666 
z
" transform="scale(0.015625)"/>
       </defs>
       <use xlink:href="#DejaVuSans-33"/>
       <use xlink:href="#DejaVuSans-39" x="63.623047"/>
       <use xlink:href="#DejaVuSans-34" x="127.246094"/>
       <use xlink:href="#DejaVuSans-30" x="190.869141"/>
       <use xlink:href="#DejaVuSans-30" x="254.492188"/>
       <use xlink:href="#DejaVuSans-30" x="318.115234"/>
      </g>
     </g>
    </g>
    <g id="xtick_4">
     <g id="line2d_4">
      <g>
       <use xlink:href="#me0103116f2" x="488.171199" y="607.295162" style="stroke: #000000; stroke-width: 0.8"/>
      </g>
     </g>
     <g id="text_4">
      <!-- 395000 -->
      <g transform="translate(469.083699 621.893599) scale(0.1 -0.1)">
       <defs>
        <path id="DejaVuSans-35" d="M 691 4666 
L 3169 4666 
L 3169 4134 
L 1269 4134 
L 1269 2991 
Q 1406 3038 1543 3061 
Q 1681 3084 1819 3084 
Q 2600 3084 3056 2656 
Q 3513 2228 3513 1497 
Q 3513 744 3044 326 
Q 2575 -91 1722 -91 
Q 1428 -91 1123 -41 
Q 819 9 494 109 
L 494 744 
Q 775 591 1075 516 
Q 1375 441 1709 441 
Q 2250 441 2565 725 
Q 2881 1009 2881 1497 
Q 2881 1984 2565 2268 
Q 2250 2553 1709 2553 
Q 1456 2553 1204 2497 
Q 953 2441 691 2322 
L 691 4666 
z
" transform="scale(0.015625)"/>
       </defs>
       <use xlink:href="#DejaVuSans-33"/>
       <use xlink:href="#DejaVuSans-39" x="63.623047"/>
       <use xlink:href="#DejaVuSans-35" x="127.246094"/>
       <use xlink:href="#DejaVuSans-30" x="190.869141"/>
       <use xlink:href="#DejaVuSans-30" x="254.492188"/>
       <use xlink:href="#DejaVuSans-30" x="318.115234"/>
      </g>
     </g>
    </g>
    <g id="xtick_5">
     <g id="line2d_5">
      <g>
       <use xlink:href="#me0103116f2" x="588.982067" y="607.295162" style="stroke: #000000; stroke-width: 0.8"/>
      </g>
     </g>
     <g id="text_5">
      <!-- 396000 -->
      <g transform="translate(569.894567 621.893599) scale(0.1 -0.1)">
       <defs>
        <path id="DejaVuSans-36" d="M 2113 2584 
Q 1688 2584 1439 2293 
Q 1191 2003 1191 1497 
Q 1191 994 1439 701 
Q 1688 409 2113 409 
Q 2538 409 2786 701 
Q 3034 994 3034 1497 
Q 3034 2003 2786 2293 
Q 2538 2584 2113 2584 
z
M 3366 4563 
L 3366 3988 
Q 3128 4100 2886 4159 
Q 2644 4219 2406 4219 
Q 1781 4219 1451 3797 
Q 1122 3375 1075 2522 
Q 1259 2794 1537 2939 
Q 1816 3084 2150 3084 
Q 2853 3084 3261 2657 
Q 3669 2231 3669 1497 
Q 3669 778 3244 343 
Q 2819 -91 2113 -91 
Q 1303 -91 875 529 
Q 447 1150 447 2328 
Q 447 3434 972 4092 
Q 1497 4750 2381 4750 
Q 2619 4750 2861 4703 
Q 3103 4656 3366 4563 
z
" transform="scale(0.015625)"/>
       </defs>
       <use xlink:href="#DejaVuSans-33"/>
       <use xlink:href="#DejaVuSans-39" x="63.623047"/>
       <use xlink:href="#DejaVuSans-36" x="127.246094"/>
       <use xlink:href="#DejaVuSans-30" x="190.869141"/>
       <use xlink:href="#DejaVuSans-30" x="254.492188"/>
       <use xlink:href="#DejaVuSans-30" x="318.115234"/>
      </g>
     </g>
    </g>
   </g>
   <g id="matplotlib.axis_2">
    <g id="ytick_1">
     <g id="line2d_6">
      <defs>
       <path id="m704a773411" d="M 0 0 
L -3.5 0 
" style="stroke: #000000; stroke-width: 0.8"/>
      </defs>
      <g>
       <use xlink:href="#m704a773411" x="90" y="583.041481" style="stroke: #000000; stroke-width: 0.8"/>
      </g>
     </g>
     <g id="text_6">
      <!-- 5.820 -->
      <g transform="translate(54.371875 586.8407) scale(0.1 -0.1)">
       <defs>
        <path id="DejaVuSans-2e" d="M 684 794 
L 1344 794 
L 1344 0 
L 684 0 
L 684 794 
z
" transform="scale(0.015625)"/>
        <path id="DejaVuSans-38" d="M 2034 2216 
Q 1584 2216 1326 1975 
Q 1069 1734 1069 1313 
Q 1069 891 1326 650 
Q 1584 409 2034 409 
Q 2484 409 2743 651 
Q 3003 894 3003 1313 
Q 3003 1734 2745 1975 
Q 2488 2216 2034 2216 
z
M 1403 2484 
Q 997 2584 770 2862 
Q 544 3141 544 3541 
Q 544 4100 942 4425 
Q 1341 4750 2034 4750 
Q 2731 4750 3128 4425 
Q 3525 4100 3525 3541 
Q 3525 3141 3298 2862 
Q 3072 2584 2669 2484 
Q 3125 2378 3379 2068 
Q 3634 1759 3634 1313 
Q 3634 634 3220 271 
Q 2806 -91 2034 -91 
Q 1263 -91 848 271 
Q 434 634 434 1313 
Q 434 1759 690 2068 
Q 947 2378 1403 2484 
z
M 1172 3481 
Q 1172 3119 1398 2916 
Q 1625 2713 2034 2713 
Q 2441 2713 2670 2916 
Q 2900 3119 2900 3481 
Q 2900 3844 2670 4047 
Q 2441 4250 2034 4250 
Q 1625 4250 1398 4047 
Q 1172 3844 1172 3481 
z
" transform="scale(0.015625)"/>
       </defs>
       <use xlink:href="#DejaVuSans-35"/>
       <use xlink:href="#DejaVuSans-2e" x="63.623047"/>
       <use xlink:href="#DejaVuSans-38" x="95.410156"/>
       <use xlink:href="#DejaVuSans-32" x="159.033203"/>
       <use xlink:href="#DejaVuSans-30" x="222.65625"/>
      </g>
     </g>
    </g>
    <g id="ytick_2">
     <g id="line2d_7">
      <g>
       <use xlink:href="#m704a773411" x="90" y="482.230613" style="stroke: #000000; stroke-width: 0.8"/>
      </g>
     </g>
     <g id="text_7">
      <!-- 5.821 -->
      <g transform="translate(54.371875 486.029832) scale(0.1 -0.1)">
       <defs>
        <path id="DejaVuSans-31" d="M 794 531 
L 1825 531 
L 1825 4091 
L 703 3866 
L 703 4441 
L 1819 4666 
L 2450 4666 
L 2450 531 
L 3481 531 
L 3481 0 
L 794 0 
L 794 531 
z
" transform="scale(0.015625)"/>
       </defs>
       <use xlink:href="#DejaVuSans-35"/>
       <use xlink:href="#DejaVuSans-2e" x="63.623047"/>
       <use xlink:href="#DejaVuSans-38" x="95.410156"/>
       <use xlink:href="#DejaVuSans-32" x="159.033203"/>
       <use xlink:href="#DejaVuSans-31" x="222.65625"/>
      </g>
     </g>
    </g>
    <g id="ytick_3">
     <g id="line2d_8">
      <g>
       <use xlink:href="#m704a773411" x="90" y="381.419745" style="stroke: #000000; stroke-width: 0.8"/>
      </g>
     </g>
     <g id="text_8">
      <!-- 5.822 -->
      <g transform="translate(54.371875 385.218964) scale(0.1 -0.1)">
       <use xlink:href="#DejaVuSans-35"/>
       <use xlink:href="#DejaVuSans-2e" x="63.623047"/>
       <use xlink:href="#DejaVuSans-38" x="95.410156"/>
       <use xlink:href="#DejaVuSans-32" x="159.033203"/>
       <use xlink:href="#DejaVuSans-32" x="222.65625"/>
      </g>
     </g>
    </g>
    <g id="ytick_4">
     <g id="line2d_9">
      <g>
       <use xlink:href="#m704a773411" x="90" y="280.608877" style="stroke: #000000; stroke-width: 0.8"/>
      </g>
     </g>
     <g id="text_9">
      <!-- 5.823 -->
      <g transform="translate(54.371875 284.408095) scale(0.1 -0.1)">
       <use xlink:href="#DejaVuSans-35"/>
       <use xlink:href="#DejaVuSans-2e" x="63.623047"/>
       <use xlink:href="#DejaVuSans-38" x="95.410156"/>
       <use xlink:href="#DejaVuSans-32" x="159.033203"/>
       <use xlink:href="#DejaVuSans-33" x="222.65625"/>
      </g>
     </g>
    </g>
    <g id="ytick_5">
     <g id="line2d_10">
      <g>
       <use xlink:href="#m704a773411" x="90" y="179.798009" style="stroke: #000000; stroke-width: 0.8"/>
      </g>
     </g>
     <g id="text_10">
      <!-- 5.824 -->
      <g transform="translate(54.371875 183.597227) scale(0.1 -0.1)">
       <use xlink:href="#DejaVuSans-35"/>
       <use xlink:href="#DejaVuSans-2e" x="63.623047"/>
       <use xlink:href="#DejaVuSans-38" x="95.410156"/>
       <use xlink:href="#DejaVuSans-32" x="159.033203"/>
       <use xlink:href="#DejaVuSans-34" x="222.65625"/>
      </g>
     </g>
    </g>
    <g id="text_11">
     <!-- 1e6 -->
     <g transform="translate(90 116.904838) scale(0.1 -0.1)">
      <defs>
       <path id="DejaVuSans-65" d="M 3597 1894 
L 3597 1613 
L 953 1613 
Q 991 1019 1311 708 
Q 1631 397 2203 397 
Q 2534 397 2845 478 
Q 3156 559 3463 722 
L 3463 178 
Q 3153 47 2828 -22 
Q 2503 -91 2169 -91 
Q 1331 -91 842 396 
Q 353 884 353 1716 
Q 353 2575 817 3079 
Q 1281 3584 2069 3584 
Q 2775 3584 3186 3129 
Q 3597 2675 3597 1894 
z
M 3022 2063 
Q 3016 2534 2758 2815 
Q 2500 3097 2075 3097 
Q 1594 3097 1305 2825 
Q 1016 2553 972 2059 
L 3022 2063 
z
" transform="scale(0.015625)"/>
      </defs>
      <use xlink:href="#DejaVuSans-31"/>
      <use xlink:href="#DejaVuSans-65" x="63.623047"/>
      <use xlink:href="#DejaVuSans-36" x="125.146484"/>
     </g>
    </g>
   </g>
   <g id="patch_3">
    <path d="M 90 607.295162 
L 90 119.904838 
" style="fill: none; stroke: #000000; stroke-width: 0.8; stroke-linejoin: miter; stroke-linecap: square"/>
   </g>
   <g id="patch_4">
    <path d="M 648 607.295162 
L 648 119.904838 
" style="fill: none; stroke: #000000; stroke-width: 0.8; stroke-linejoin: miter; stroke-linecap: square"/>
   </g>
   <g id="patch_5">
    <path d="M 90 607.295162 
L 648 607.295162 
" style="fill: none; stroke: #000000; stroke-width: 0.8; stroke-linejoin: miter; stroke-linecap: square"/>
   </g>
   <g id="patch_6">
    <path d="M 90 119.904838 
L 648 119.904838 
" style="fill: none; stroke: #000000; stroke-width: 0.8; stroke-linejoin: miter; stroke-linecap: square"/>
   </g>
   <g id="text_12">
    <!-- Nrdlicher_Prenzlauer_Berg -->
    <g transform="translate(282.583084 339.124964) scale(0.12 -0.12)">
     <defs>
      <path id="DejaVuSans-4e" d="M 628 4666 
L 1478 4666 
L 3547 763 
L 3547 4666 
L 4159 4666 
L 4159 0 
L 3309 0 
L 1241 3903 
L 1241 0 
L 628 0 
L 628 4666 
z
" transform="scale(0.015625)"/>
      <path id="DejaVuSans-f6" d="M 1959 3097 
Q 1497 3097 1228 2736 
Q 959 2375 959 1747 
Q 959 1119 1226 758 
Q 1494 397 1959 397 
Q 2419 397 2687 759 
Q 2956 1122 2956 1747 
Q 2956 2369 2687 2733 
Q 2419 3097 1959 3097 
z
M 1959 3584 
Q 2709 3584 3137 3096 
Q 3566 2609 3566 1747 
Q 3566 888 3137 398 
Q 2709 -91 1959 -91 
Q 1206 -91 779 398 
Q 353 888 353 1747 
Q 353 2609 779 3096 
Q 1206 3584 1959 3584 
z
M 2254 4850 
L 2888 4850 
L 2888 4219 
L 2254 4219 
L 2254 4850 
z
M 1032 4850 
L 1666 4850 
L 1666 4219 
L 1032 4219 
L 1032 4850 
z
" transform="scale(0.015625)"/>
      <path id="DejaVuSans-72" d="M 2631 2963 
Q 2534 3019 2420 3045 
Q 2306 3072 2169 3072 
Q 1681 3072 1420 2755 
Q 1159 2438 1159 1844 
L 1159 0 
L 581 0 
L 581 3500 
L 1159 3500 
L 1159 2956 
Q 1341 3275 1631 3429 
Q 1922 3584 2338 3584 
Q 2397 3584 2469 3576 
Q 2541 3569 2628 3553 
L 2631 2963 
z
" transform="scale(0.015625)"/>
      <path id="DejaVuSans-64" d="M 2906 2969 
L 2906 4863 
L 3481 4863 
L 3481 0 
L 2906 0 
L 2906 525 
Q 2725 213 2448 61 
Q 2172 -91 1784 -91 
Q 1150 -91 751 415 
Q 353 922 353 1747 
Q 353 2572 751 3078 
Q 1150 3584 1784 3584 
Q 2172 3584 2448 3432 
Q 2725 3281 2906 2969 
z
M 947 1747 
Q 947 1113 1208 752 
Q 1469 391 1925 391 
Q 2381 391 2643 752 
Q 2906 1113 2906 1747 
Q 2906 2381 2643 2742 
Q 2381 3103 1925 3103 
Q 1469 3103 1208 2742 
Q 947 2381 947 1747 
z
" transform="scale(0.015625)"/>
      <path id="DejaVuSans-6c" d="M 603 4863 
L 1178 4863 
L 1178 0 
L 603 0 
L 603 4863 
z
" transform="scale(0.015625)"/>
      <path id="DejaVuSans-69" d="M 603 3500 
L 1178 3500 
L 1178 0 
L 603 0 
L 603 3500 
z
M 603 4863 
L 1178 4863 
L 1178 4134 
L 603 4134 
L 603 4863 
z
" transform="scale(0.015625)"/>
      <path id="DejaVuSans-63" d="M 3122 3366 
L 3122 2828 
Q 2878 2963 2633 3030 
Q 2388 3097 2138 3097 
Q 1578 3097 1268 2742 
Q 959 2388 959 1747 
Q 959 1106 1268 751 
Q 1578 397 2138 397 
Q 2388 397 2633 464 
Q 2878 531 3122 666 
L 3122 134 
Q 2881 22 2623 -34 
Q 2366 -91 2075 -91 
Q 1284 -91 818 406 
Q 353 903 353 1747 
Q 353 2603 823 3093 
Q 1294 3584 2113 3584 
Q 2378 3584 2631 3529 
Q 2884 3475 3122 3366 
z
" transform="scale(0.015625)"/>
      <path id="DejaVuSans-68" d="M 3513 2113 
L 3513 0 
L 2938 0 
L 2938 2094 
Q 2938 2591 2744 2837 
Q 2550 3084 2163 3084 
Q 1697 3084 1428 2787 
Q 1159 2491 1159 1978 
L 1159 0 
L 581 0 
L 581 4863 
L 1159 4863 
L 1159 2956 
Q 1366 3272 1645 3428 
Q 1925 3584 2291 3584 
Q 2894 3584 3203 3211 
Q 3513 2838 3513 2113 
z
" transform="scale(0.015625)"/>
      <path id="DejaVuSans-5f" d="M 3263 -1063 
L 3263 -1509 
L -63 -1509 
L -63 -1063 
L 3263 -1063 
z
" transform="scale(0.015625)"/>
      <path id="DejaVuSans-50" d="M 1259 4147 
L 1259 2394 
L 2053 2394 
Q 2494 2394 2734 2622 
Q 2975 2850 2975 3272 
Q 2975 3691 2734 3919 
Q 2494 4147 2053 4147 
L 1259 4147 
z
M 628 4666 
L 2053 4666 
Q 2838 4666 3239 4311 
Q 3641 3956 3641 3272 
Q 3641 2581 3239 2228 
Q 2838 1875 2053 1875 
L 1259 1875 
L 1259 0 
L 628 0 
L 628 4666 
z
" transform="scale(0.015625)"/>
      <path id="DejaVuSans-6e" d="M 3513 2113 
L 3513 0 
L 2938 0 
L 2938 2094 
Q 2938 2591 2744 2837 
Q 2550 3084 2163 3084 
Q 1697 3084 1428 2787 
Q 1159 2491 1159 1978 
L 1159 0 
L 581 0 
L 581 3500 
L 1159 3500 
L 1159 2956 
Q 1366 3272 1645 3428 
Q 1925 3584 2291 3584 
Q 2894 3584 3203 3211 
Q 3513 2838 3513 2113 
z
" transform="scale(0.015625)"/>
      <path id="DejaVuSans-7a" d="M 353 3500 
L 3084 3500 
L 3084 2975 
L 922 459 
L 3084 459 
L 3084 0 
L 275 0 
L 275 525 
L 2438 3041 
L 353 3041 
L 353 3500 
z
" transform="scale(0.015625)"/>
      <path id="DejaVuSans-61" d="M 2194 1759 
Q 1497 1759 1228 1600 
Q 959 1441 959 1056 
Q 959 750 1161 570 
Q 1363 391 1709 391 
Q 2188 391 2477 730 
Q 2766 1069 2766 1631 
L 2766 1759 
L 2194 1759 
z
M 3341 1997 
L 3341 0 
L 2766 0 
L 2766 531 
Q 2569 213 2275 61 
Q 1981 -91 1556 -91 
Q 1019 -91 701 211 
Q 384 513 384 1019 
Q 384 1609 779 1909 
Q 1175 2209 1959 2209 
L 2766 2209 
L 2766 2266 
Q 2766 2663 2505 2880 
Q 2244 3097 1772 3097 
Q 1472 3097 1187 3025 
Q 903 2953 641 2809 
L 641 3341 
Q 956 3463 1253 3523 
Q 1550 3584 1831 3584 
Q 2591 3584 2966 3190 
Q 3341 2797 3341 1997 
z
" transform="scale(0.015625)"/>
      <path id="DejaVuSans-75" d="M 544 1381 
L 544 3500 
L 1119 3500 
L 1119 1403 
Q 1119 906 1312 657 
Q 1506 409 1894 409 
Q 2359 409 2629 706 
Q 2900 1003 2900 1516 
L 2900 3500 
L 3475 3500 
L 3475 0 
L 2900 0 
L 2900 538 
Q 2691 219 2414 64 
Q 2138 -91 1772 -91 
Q 1169 -91 856 284 
Q 544 659 544 1381 
z
M 1991 3584 
L 1991 3584 
z
" transform="scale(0.015625)"/>
      <path id="DejaVuSans-42" d="M 1259 2228 
L 1259 519 
L 2272 519 
Q 2781 519 3026 730 
Q 3272 941 3272 1375 
Q 3272 1813 3026 2020 
Q 2781 2228 2272 2228 
L 1259 2228 
z
M 1259 4147 
L 1259 2741 
L 2194 2741 
Q 2656 2741 2882 2914 
Q 3109 3088 3109 3444 
Q 3109 3797 2882 3972 
Q 2656 4147 2194 4147 
L 1259 4147 
z
M 628 4666 
L 2241 4666 
Q 2963 4666 3353 4366 
Q 3744 4066 3744 3513 
Q 3744 3084 3544 2831 
Q 3344 2578 2956 2516 
Q 3422 2416 3680 2098 
Q 3938 1781 3938 1306 
Q 3938 681 3513 340 
Q 3088 0 2303 0 
L 628 0 
L 628 4666 
z
" transform="scale(0.015625)"/>
      <path id="DejaVuSans-67" d="M 2906 1791 
Q 2906 2416 2648 2759 
Q 2391 3103 1925 3103 
Q 1463 3103 1205 2759 
Q 947 2416 947 1791 
Q 947 1169 1205 825 
Q 1463 481 1925 481 
Q 2391 481 2648 825 
Q 2906 1169 2906 1791 
z
M 3481 434 
Q 3481 -459 3084 -895 
Q 2688 -1331 1869 -1331 
Q 1566 -1331 1297 -1286 
Q 1028 -1241 775 -1147 
L 775 -588 
Q 1028 -725 1275 -790 
Q 1522 -856 1778 -856 
Q 2344 -856 2625 -561 
Q 2906 -266 2906 331 
L 2906 616 
Q 2728 306 2450 153 
Q 2172 0 1784 0 
Q 1141 0 747 490 
Q 353 981 353 1791 
Q 353 2603 747 3093 
Q 1141 3584 1784 3584 
Q 2172 3584 2450 3431 
Q 2728 3278 2906 2969 
L 2906 3500 
L 3481 3500 
L 3481 434 
z
" transform="scale(0.015625)"/>
     </defs>
     <use xlink:href="#DejaVuSans-4e"/>
     <use xlink:href="#DejaVuSans-f6" x="74.804688"/>
     <use xlink:href="#DejaVuSans-72" x="135.986328"/>
     <use xlink:href="#DejaVuSans-64" x="175.349609"/>
     <use xlink:href="#DejaVuSans-6c" x="238.826172"/>
     <use xlink:href="#DejaVuSans-69" x="266.609375"/>
     <use xlink:href="#DejaVuSans-63" x="294.392578"/>
     <use xlink:href="#DejaVuSans-68" x="349.373047"/>
     <use xlink:href="#DejaVuSans-65" x="412.751953"/>
     <use xlink:href="#DejaVuSans-72" x="474.275391"/>
     <use xlink:href="#DejaVuSans-5f" x="515.388672"/>
     <use xlink:href="#DejaVuSans-50" x="565.388672"/>
     <use xlink:href="#DejaVuSans-72" x="623.941406"/>
     <use xlink:href="#DejaVuSans-65" x="662.804688"/>
     <use xlink:href="#DejaVuSans-6e" x="724.328125"/>
     <use xlink:href="#DejaVuSans-7a" x="787.707031"/>
     <use xlink:href="#DejaVuSans-6c" x="840.197266"/>
     <use xlink:href="#DejaVuSans-61" x="867.980469"/>
     <use xlink:href="#DejaVuSans-75" x="929.259766"/>
     <use xlink:href="#DejaVuSans-65" x="992.638672"/>
     <use xlink:href="#DejaVuSans-72" x="1054.162109"/>
     <use xlink:href="#DejaVuSans-5f" x="1095.275391"/>
     <use xlink:href="#DejaVuSans-42" x="1145.275391"/>
     <use xlink:href="#DejaVuSans-65" x="1213.878906"/>
     <use xlink:href="#DejaVuSans-72" x="1275.402344"/>
     <use xlink:href="#DejaVuSans-67" x="1314.765625"/>
    </g>
   </g>
  </g>
 </g>
 <defs>
  <clipPath id="p1be1e3fa11">
   <rect x="90" y="119.904838" width="558" height="487.390324"/>
  </clipPath>
 </defs>
</svg>
