<?xml version="1.0" encoding="utf-8" standalone="no"?>
<!DOCTYPE svg PUBLIC "-//W3C//DTD SVG 1.1//EN"
  "http://www.w3.org/Graphics/SVG/1.1/DTD/svg11.dtd">
<svg xmlns:xlink="http://www.w3.org/1999/xlink" width="720pt" height="720pt" viewBox="0 0 720 720" xmlns="http://www.w3.org/2000/svg" version="1.1">
 <metadata>
  <rdf:RDF xmlns:dc="http://purl.org/dc/elements/1.1/" xmlns:cc="http://creativecommons.org/ns#" xmlns:rdf="http://www.w3.org/1999/02/22-rdf-syntax-ns#">
   <cc:Work>
    <dc:type rdf:resource="http://purl.org/dc/dcmitype/StillImage"/>
    <dc:date>2024-10-22T09:54:11.256298</dc:date>
    <dc:format>image/svg+xml</dc:format>
    <dc:creator>
     <cc:Agent>
      <dc:title>Matplotlib v3.9.2, https://matplotlib.org/</dc:title>
     </cc:Agent>
    </dc:creator>
   </cc:Work>
  </rdf:RDF>
 </metadata>
 <defs>
  <style type="text/css">*{stroke-linejoin: round; stroke-linecap: butt}</style>
 </defs>
 <g id="figure_1">
  <g id="patch_1">
   <path d="M 0 720 
L 720 720 
L 720 0 
L 0 0 
z
" style="fill: #ffffff"/>
  </g>
  <g id="axes_1">
   <g id="patch_2">
    <path d="M 181.08014 640.8 
L 556.91986 640.8 
L 556.91986 86.4 
L 181.08014 86.4 
z
" style="fill: #ffffff"/>
   </g>
   <g id="PatchCollection_1">
    <path d="M 234.783128 391.915507 
L 234.886766 391.989068 
L 235.271457 392.196177 
L 235.652994 392.401588 
L 235.584247 392.503405 
L 236.123165 393.85086 
L 239.82685 394.30676 
L 241.57933 394.773738 
L 242.67076 395.059563 
L 244.391145 395.714684 
L 247.529706 397.157249 
L 247.659754 397.170012 
L 247.715616 397.175347 
L 247.888532 397.192882 
L 248.231451 397.227655 
L 248.431416 397.247635 
L 249.207423 397.622233 
L 250.026957 398.017285 
L 250.85291 398.416103 
L 251.673182 398.811632 
L 252.337526 399.132453 
L 253.558374 399.828187 
L 254.892748 400.588111 
L 255.287314 400.766875 
L 259.130851 402.508471 
L 264.377345 405.086946 
L 267.421983 406.697006 
L 267.777366 406.873129 
L 267.334565 408.02629 
L 267.284636 408.125417 
L 266.580656 409.519788 
L 266.551719 409.555183 
L 266.518926 409.587001 
L 266.482692 409.614805 
L 266.443435 409.638158 
L 266.274757 409.668389 
L 266.239558 409.739707 
L 266.197552 409.822659 
L 266.157917 409.878139 
L 264.498377 410.678664 
L 264.449969 410.709612 
L 264.405083 410.745488 
L 264.364136 410.785855 
L 264.327666 410.830335 
L 264.296028 410.87837 
L 264.209857 411.026674 
L 263.72682 411.891678 
L 263.690702 411.962712 
L 263.234407 412.827544 
L 263.017989 413.612547 
L 262.854914 414.102578 
L 262.912314 414.350972 
L 263.264095 414.755785 
L 264.306938 415.466251 
L 264.729754 415.789782 
L 266.320786 416.794528 
L 267.922394 417.847712 
L 269.174736 418.671155 
L 269.206639 418.692177 
L 269.243709 418.720898 
L 269.27662 418.754293 
L 269.304748 418.791764 
L 269.327714 418.832649 
L 269.345015 418.876286 
L 269.356328 418.921829 
L 269.361514 418.968487 
L 269.360431 419.015407 
L 269.379964 419.872777 
L 269.453255 423.093835 
L 269.380313 423.809296 
L 269.253864 424.210327 
L 266.035874 431.947347 
L 265.144588 434.354871 
L 264.960917 435.043024 
L 264.829009 435.850368 
L 264.815304 436.160814 
L 264.886259 437.312266 
L 265.031459 438.722054 
L 265.187796 439.333624 
L 265.457215 439.878414 
L 265.495856 439.947524 
L 265.539246 440.013778 
L 265.587072 440.07688 
L 265.639145 440.136467 
L 265.695215 440.1923 
L 265.755032 440.24408 
L 265.818347 440.29163 
L 265.884728 440.334591 
L 267.035731 441.214649 
L 269.484931 442.960724 
L 269.853629 443.320405 
L 270.321436 443.571368 
L 270.575497 443.789334 
L 273.90921 446.236363 
L 275.066336 447.122665 
L 275.949885 447.827998 
L 276.098707 447.946803 
L 276.240337 448.059865 
L 276.396897 448.184848 
L 276.541894 448.373252 
L 276.689775 448.565405 
L 276.822302 448.737607 
L 276.973031 448.920547 
L 277.079266 449.105592 
L 277.188801 449.286452 
L 277.300211 449.47041 
L 277.369762 449.585252 
L 277.329341 449.65367 
L 277.241006 449.794875 
L 277.070994 450.059 
L 276.872197 450.367859 
L 276.700652 450.626035 
L 275.729812 451.234574 
L 273.928403 452.363636 
L 272.854797 453.036592 
L 271.048786 454.168645 
L 273.243955 455.681579 
L 273.385492 455.779033 
L 274.756006 456.722582 
L 275.857401 457.479952 
L 276.966399 458.242528 
L 277.955312 458.924697 
L 278.944282 459.606929 
L 280.216291 460.237446 
L 280.121186 460.421791 
L 281.399544 461.058704 
L 281.491262 460.872665 
L 283.132248 461.691909 
L 283.842669 462.046573 
L 284.553014 462.400629 
L 284.716427 462.482454 
L 286.100615 463.17362 
L 286.250594 463.248481 
L 287.786039 464.014793 
L 289.287289 464.763926 
L 290.523876 465.381175 
L 290.747089 465.492745 
L 290.989921 465.612852 
L 292.946608 466.580363 
L 295.032349 467.567045 
L 294.818779 468.197369 
L 294.691553 468.572861 
L 294.299773 469.941862 
L 294.242895 470.155572 
L 293.086786 473.878064 
L 292.130017 477.093368 
L 291.42671 479.407333 
L 291.063003 481.160405 
L 289.692123 486.867986 
L 289.319151 488.638976 
L 288.920442 490.200427 
L 288.429332 492.015283 
L 287.555666 495.197296 
L 286.907584 496.966333 
L 286.573845 497.750285 
L 286.282919 498.768109 
L 286.111662 499.367265 
L 285.920613 499.771324 
L 285.358226 500.881531 
L 285.041622 501.597871 
L 284.917782 501.877811 
L 284.896021 501.926111 
L 284.514187 502.702106 
L 284.188577 503.363937 
L 283.765624 503.92622 
L 283.650463 504.079138 
L 283.091921 504.697464 
L 282.918084 504.889924 
L 282.403586 505.459574 
L 281.655174 506.28843 
L 281.251274 506.735308 
L 280.837052 507.188952 
L 280.286646 507.791781 
L 279.602896 508.540659 
L 279.399102 508.765911 
L 278.789645 509.440527 
L 278.482145 509.772342 
L 277.536496 510.799936 
L 275.944517 512.529973 
L 275.451062 513.067227 
L 271.98577 516.857344 
L 271.206165 517.710254 
L 269.773462 519.27774 
L 269.239011 519.862456 
L 268.18676 521.013747 
L 267.892751 521.419521 
L 267.519504 522.048124 
L 267.194672 522.736703 
L 266.536863 524.487565 
L 266.485115 524.686999 
L 266.458363 524.789697 
L 266.444236 524.844177 
L 266.538327 525.094774 
L 266.615888 525.301343 
L 267.852942 527.147559 
L 268.040964 527.634401 
L 268.106501 528.223589 
L 268.255134 531.010698 
L 268.470201 534.699861 
L 268.613298 537.06515 
L 268.659068 537.82179 
L 268.665088 537.922225 
L 268.702541 538.541049 
L 268.871153 541.345296 
L 268.876872 541.440487 
L 268.960306 542.948085 
L 269.01947 544.018104 
L 269.030756 544.223449 
L 269.297039 545.867139 
L 269.339569 546.056456 
L 269.408301 546.342029 
L 269.526977 546.67185 
L 269.714794 547.193808 
L 269.747317 547.284061 
L 269.825732 547.501576 
L 270.071674 548.049708 
L 270.622982 548.756093 
L 271.911265 550.158896 
L 272.52738 550.738407 
L 273.11586 550.440333 
L 273.253681 550.793357 
L 273.329872 550.995962 
L 273.583493 551.574822 
L 273.656958 551.758987 
L 273.695913 551.86198 
L 273.732224 551.906534 
L 274.215435 552.989015 
L 274.419715 553.425241 
L 274.589331 553.79526 
L 274.973447 554.792158 
L 275.689155 556.667208 
L 276.134293 557.787734 
L 276.540858 558.81973 
L 276.984478 559.932536 
L 277.221044 560.522712 
L 277.31202 560.749656 
L 277.937335 562.321487 
L 278.419352 563.57571 
L 278.919976 564.804419 
L 279.464185 566.22861 
L 279.510351 566.347422 
L 279.656114 566.715964 
L 279.670079 566.752471 
L 279.75412 566.971633 
L 280.199237 568.106271 
L 280.602458 569.134257 
L 280.75694 569.528066 
L 281.195534 570.646304 
L 281.641283 571.782457 
L 282.086389 572.917281 
L 282.526838 574.039936 
L 282.974005 575.180089 
L 283.507343 576.539785 
L 283.561098 576.676094 
L 283.733324 577.112434 
L 283.82367 577.341593 
L 282.101879 577.637215 
L 281.140552 577.750675 
L 281.009933 577.766062 
L 280.884391 578.082802 
L 280.345911 578.93364 
L 280.156577 579.521282 
L 279.864378 580.929108 
L 279.891345 581.357531 
L 279.855774 581.362298 
L 279.80017 581.369713 
L 279.843733 583.131926 
L 279.967194 583.606485 
L 280.036422 583.778656 
L 280.482476 584.888237 
L 280.483823 585.030545 
L 280.490585 585.172731 
L 280.502759 585.314551 
L 280.520337 585.455761 
L 280.534217 585.543075 
L 280.553311 585.629417 
L 280.57755 585.714423 
L 280.606867 585.797788 
L 280.641074 585.879272 
L 280.650401 585.918021 
L 280.663476 585.955587 
L 280.680292 585.991664 
L 280.700599 586.025892 
L 280.724205 586.057909 
L 280.750277 586.099519 
L 280.776229 586.141192 
L 280.80206 586.182929 
L 280.874475 586.301477 
L 280.945809 586.42072 
L 281.016061 586.540537 
L 281.185929 586.819326 
L 281.354477 587.099 
L 281.521702 587.379436 
L 281.677819 587.636795 
L 281.832974 587.894725 
L 281.98729 588.153224 
L 282.026255 588.218787 
L 282.06528 588.284348 
L 282.104366 588.349847 
L 282.205347 588.518192 
L 282.306749 588.686283 
L 282.408632 588.854119 
L 282.510583 589.038624 
L 282.608383 589.225421 
L 282.702028 589.414265 
L 282.791458 589.605218 
L 283.290164 590.775297 
L 283.36536 590.969561 
L 283.443693 591.162534 
L 283.525104 591.354278 
L 283.599804 591.479858 
L 283.677266 591.603728 
L 283.757428 591.725827 
L 283.84023 591.846158 
L 283.899602 591.909553 
L 283.962785 591.969138 
L 284.029533 592.024736 
L 284.099533 592.076047 
L 284.17254 592.122955 
L 284.248306 592.165282 
L 286.784668 593.312589 
L 287.894613 594.073534 
L 287.954234 594.11537 
L 288.015094 594.155468 
L 288.07713 594.193646 
L 290.221326 595.283455 
L 290.392188 595.347774 
L 290.57873 595.416322 
L 290.765043 595.485485 
L 290.951067 595.555388 
L 291.406321 595.729969 
L 292.64915 596.160048 
L 293.447759 596.465556 
L 293.727631 596.539649 
L 295.527753 597.010938 
L 295.788337 597.170403 
L 297.108239 597.948666 
L 297.392614 598.121278 
L 297.45649 598.187568 
L 298.07226 598.75285 
L 298.69079 599.565559 
L 299.528045 600.385956 
L 300.526301 601.161598 
L 301.95269 602.281284 
L 302.671147 603.032903 
L 302.933051 603.233012 
L 303.357454 603.573476 
L 303.838385 603.909928 
L 304.055593 604.008269 
L 304.730675 604.484063 
L 305.42062 604.970336 
L 305.484358 605.003168 
L 305.661387 605.038536 
L 306.59186 604.731786 
L 307.035729 604.827874 
L 308.086102 604.936364 
L 308.322025 604.983791 
L 308.773316 605.153723 
L 309.42374 605.493665 
L 309.779439 605.737116 
L 309.982375 605.848115 
L 310.514374 606.264224 
L 310.756594 606.411655 
L 310.936701 606.533667 
L 311.360657 606.947854 
L 311.790463 607.131949 
L 312.269474 607.341447 
L 312.782862 607.539126 
L 313.378929 607.759141 
L 313.775311 607.888357 
L 314.20023 607.997701 
L 314.521103 608.062899 
L 314.866856 608.105315 
L 315.38303 608.33817 
L 316.399956 608.421545 
L 316.895809 608.303622 
L 317.550477 608.231679 
L 318.077322 608.188113 
L 318.073655 608.138062 
L 318.82118 608.132808 
L 319.394491 608.164109 
L 319.78842 608.191046 
L 320.48434 608.159223 
L 320.606844 608.308355 
L 320.760808 608.418377 
L 320.894322 608.553402 
L 321.591306 609.223476 
L 321.865833 609.406162 
L 322.119182 609.71279 
L 323.054181 609.934489 
L 323.690984 610.26811 
L 324.219023 610.523187 
L 324.603017 610.692689 
L 325.624144 611.172422 
L 325.816732 611.231636 
L 326.245877 611.254622 
L 327.825962 611.816313 
L 328.017208 611.97448 
L 328.221628 612.084237 
L 328.740728 612.177826 
L 328.84232 612.312039 
L 328.883962 612.367168 
L 329.3531 613.440769 
L 329.368766 613.469181 
L 329.414039 613.515069 
L 329.442154 613.531113 
L 329.472705 613.541729 
L 329.504651 613.546575 
L 329.537013 613.545488 
L 329.568577 613.538556 
L 329.59837 613.525925 
L 329.670564 613.48713 
L 329.832821 613.400044 
L 329.866567 613.392698 
L 329.900877 613.38882 
L 329.935386 613.388479 
L 329.969729 613.391622 
L 330.003603 613.398317 
L 330.400111 613.558633 
L 330.656342 613.756756 
L 330.685023 614.092757 
L 330.69932 614.122604 
L 330.900771 614.544032 
L 330.972997 614.679998 
L 331.08237 614.74229 
L 331.108949 614.584401 
L 331.410103 614.732857 
L 331.405455 614.806175 
L 332.167633 615.329187 
L 332.309011 615.434793 
L 332.494138 615.6 
L 332.507293 615.534248 
L 332.54867 615.326996 
L 332.678837 614.141495 
L 334.203369 613.866186 
L 334.153659 613.534317 
L 334.125261 613.216445 
L 334.111512 612.900323 
L 334.123906 612.590886 
L 334.157651 612.286226 
L 334.216293 611.986995 
L 334.325274 611.613125 
L 334.404954 611.403556 
L 334.536081 611.119932 
L 334.690401 610.841716 
L 334.877572 610.570768 
L 334.955203 610.494239 
L 335.14817 610.248564 
L 335.356532 610.038391 
L 335.733403 609.723532 
L 336.085667 609.47694 
L 336.41993 609.297247 
L 336.509512 609.249091 
L 338.188975 608.658386 
L 338.837389 608.424508 
L 338.378829 607.158981 
L 338.032178 606.178022 
L 337.667021 605.144838 
L 337.626239 605.029482 
L 337.587077 604.918547 
L 337.223605 603.890151 
L 336.954679 603.120757 
L 336.724442 602.46298 
L 336.508967 601.847863 
L 338.01312 601.253548 
L 338.098151 601.219721 
L 338.16019 601.195076 
L 339.740867 600.570063 
L 341.674122 599.805386 
L 341.587609 599.568249 
L 341.313905 598.827534 
L 340.903332 597.714388 
L 340.88861 597.673558 
L 339.351968 593.509898 
L 339.328061 593.444665 
L 340.629392 592.979196 
L 340.330834 592.213389 
L 340.440771 592.176933 
L 342.690734 591.431908 
L 342.755101 591.410571 
L 343.068478 591.306823 
L 343.241818 591.249419 
L 344.826174 590.7248 
L 345.802817 590.401455 
L 346.790038 590.074582 
L 347.766926 589.751116 
L 347.994725 589.675713 
L 346.970098 586.377934 
L 346.597722 585.080927 
L 346.170714 583.565368 
L 346.090664 583.273557 
L 346.126903 583.249365 
L 346.717164 582.855101 
L 347.734343 582.176943 
L 347.720873 582.134865 
L 352.545635 580.48795 
L 353.309151 580.227369 
L 353.306677 580.220097 
L 353.391837 580.191767 
L 353.507288 580.151103 
L 353.699228 580.086453 
L 353.811878 580.048477 
L 353.84004 580.038998 
L 354.613049 579.77534 
L 354.641267 579.765616 
L 357.095069 578.918174 
L 357.790508 578.681708 
L 357.772268 578.644192 
L 357.756199 578.605713 
L 357.742364 578.56639 
L 357.730886 578.526282 
L 357.721708 578.485573 
L 357.714956 578.444383 
L 357.710632 578.402896 
L 357.70868 578.361294 
L 357.709221 578.319576 
L 357.712139 578.277928 
L 357.717499 578.236592 
L 357.72524 578.195569 
L 357.735368 578.155104 
L 357.747825 578.11532 
L 357.762612 578.076279 
L 357.779612 578.038226 
L 357.798765 578.001164 
L 357.828294 577.954224 
L 357.859799 577.908522 
L 357.893222 577.864243 
L 357.928443 577.82139 
L 357.965525 577.780144 
L 358.004286 577.740449 
L 358.044669 577.70255 
L 358.086672 577.666324 
L 358.130177 577.631959 
L 358.175065 577.599516 
L 358.221332 577.568936 
L 358.268864 577.540465 
L 358.317536 577.513984 
L 358.367289 577.489616 
L 358.418064 577.467424 
L 358.46974 577.44741 
L 358.522195 577.429638 
L 358.575309 577.414111 
L 358.557492 577.354298 
L 359.054159 577.187395 
L 359.074999 577.243477 
L 359.129688 577.224801 
L 359.184969 577.208127 
L 359.240906 577.193636 
L 359.297316 577.181211 
L 359.354138 577.170975 
L 359.411314 577.16293 
L 359.46878 577.157016 
L 359.526416 577.153296 
L 359.584101 577.151773 
L 359.641834 577.152447 
L 359.699494 577.155321 
L 359.757018 577.160336 
L 359.814348 577.167614 
L 359.871359 577.176975 
L 359.911548 577.185488 
L 359.951295 577.196087 
L 359.990422 577.208898 
L 360.02874 577.223742 
L 360.066253 577.240679 
L 360.102775 577.259654 
L 360.138184 577.280608 
L 360.172417 577.303419 
L 360.205412 577.32809 
L 360.236982 577.354441 
L 360.26713 577.382534 
L 360.29567 577.412249 
L 360.322536 577.443407 
L 360.347731 577.476066 
L 360.371127 577.509987 
L 360.392602 577.545111 
L 360.412153 577.581376 
L 360.429779 577.618661 
L 360.445293 577.656848 
L 360.458755 577.695813 
L 360.470101 577.735497 
L 360.479266 577.775656 
L 361.588136 577.404858 
L 363.685471 576.702639 
L 363.694654 576.727044 
L 366.129368 575.914601 
L 366.713626 575.743634 
L 366.801396 575.714824 
L 366.910369 575.678399 
L 367.056576 575.62967 
L 366.456031 573.965513 
L 366.449352 573.946976 
L 366.56508 573.924202 
L 366.440709 573.601369 
L 366.3844 573.455211 
L 366.183643 572.934333 
L 365.569707 571.154639 
L 365.509807 570.980959 
L 365.336033 570.477316 
L 364.813316 568.684794 
L 364.764447 568.51716 
L 364.612182 567.995027 
L 364.198836 566.178896 
L 364.163453 566.023726 
L 363.784504 564.033476 
L 363.615725 562.899983 
L 364.909439 562.683683 
L 365.333236 562.612808 
L 365.325264 562.530061 
L 365.355777 562.524928 
L 368.512761 561.990407 
L 369.897475 561.755933 
L 369.935447 561.843512 
L 370.105572 561.813368 
L 370.924728 561.668476 
L 370.908521 561.582186 
L 371.065121 561.554418 
L 372.007699 561.387503 
L 374.232457 561.010753 
L 375.526216 560.784729 
L 375.752351 560.7459 
L 376.763472 560.572477 
L 377.822338 560.391102 
L 377.843118 560.436195 
L 379.049743 560.218097 
L 379.908581 560.047133 
L 381.127078 559.76784 
L 381.543369 559.659321 
L 381.902548 559.56569 
L 382.316285 559.457813 
L 383.056544 559.093955 
L 384.180996 558.540993 
L 385.16275 558.058293 
L 386.476658 557.412188 
L 387.542601 556.878299 
L 388.939682 556.195625 
L 389.911087 555.715062 
L 391.376371 554.998959 
L 392.534932 554.425675 
L 393.663687 553.87302 
L 393.808629 553.802045 
L 394.21127 553.604057 
L 394.304183 553.562256 
L 394.626497 553.410798 
L 395.998185 552.743251 
L 397.103929 552.209679 
L 398.312947 551.640069 
L 400.111946 550.748857 
L 400.22971 550.693444 
L 400.418109 550.604783 
L 400.723061 550.461042 
L 402.61297 549.513619 
L 403.720879 548.947174 
L 404.262521 548.670238 
L 405.956666 547.852508 
L 407.684758 546.985679 
L 408.348064 546.65295 
L 409.550676 546.050186 
L 412.676924 544.48272 
L 413.085227 544.277977 
L 413.437928 544.100714 
L 413.497796 544.070637 
L 415.427231 543.106002 
L 420.083946 540.778402 
L 421.066779 540.284074 
L 423.252971 539.196186 
L 423.904288 538.870594 
L 425.042173 538.301312 
L 426.024211 537.80885 
L 426.576527 537.530866 
L 427.058459 537.289478 
L 427.13641 537.250825 
L 427.69604 536.970302 
L 428.220331 536.708263 
L 428.744303 536.44556 
L 429.286297 536.174281 
L 429.373396 536.130665 
L 430.916549 535.357852 
L 431.074545 535.278731 
L 431.232588 535.198939 
L 431.507279 535.058595 
L 431.643421 534.989037 
L 431.902177 534.858797 
L 432.036733 534.791 
L 432.18653 534.715601 
L 433.940185 533.832918 
L 434.049027 533.778263 
L 434.915376 533.343506 
L 435.95147 532.823636 
L 436.498299 532.558493 
L 438.339841 531.633548 
L 438.486791 531.50558 
L 439.145564 530.939211 
L 439.553571 530.587778 
L 443.207611 527.439898 
L 446.234425 524.833971 
L 446.466335 524.613837 
L 447.540552 523.708176 
L 448.455948 522.925124 
L 449.348336 522.145142 
L 452.027867 519.828793 
L 452.893191 519.088799 
L 453.73363 518.363579 
L 455.263818 517.042897 
L 455.54012 516.805314 
L 455.761263 516.644043 
L 456.014828 516.405369 
L 457.501959 515.125696 
L 457.576028 515.062039 
L 458.295045 514.445488 
L 459.010952 513.831387 
L 459.95876 514.022352 
L 460.713036 514.174326 
L 461.060183 512.442008 
L 461.292614 511.363886 
L 461.483744 510.456236 
L 461.636597 509.743478 
L 461.825245 508.828066 
L 462.023047 507.913431 
L 462.388941 506.146179 
L 462.759961 504.353963 
L 463.010822 503.142325 
L 463.139357 502.537812 
L 463.393878 501.340321 
L 463.69641 499.916403 
L 464.144736 497.804551 
L 464.401627 496.592477 
L 464.758667 494.904314 
L 465.088398 493.341131 
L 465.530685 491.261654 
L 466.334581 487.481767 
L 466.393793 487.210605 
L 466.723309 487.492527 
L 468.037314 488.631885 
L 471.001841 491.338111 
L 473.587773 493.68813 
L 476.663028 496.495197 
L 476.877168 496.689904 
L 477.499525 497.326428 
L 478.455084 498.065126 
L 479.402189 498.731469 
L 480.514994 499.307501 
L 481.349261 499.574942 
L 481.780474 499.672605 
L 481.915419 499.703193 
L 481.865225 499.891197 
L 480.943113 502.470745 
L 480.83754 502.826593 
L 480.762225 503.080663 
L 480.643648 503.325233 
L 480.073269 504.121683 
L 479.549065 504.676605 
L 478.643066 505.635642 
L 478.513545 505.762723 
L 477.732921 506.653209 
L 477.759897 506.715028 
L 477.93576 507.116777 
L 478.004121 507.273074 
L 478.109885 507.159761 
L 478.1992 507.364086 
L 478.434185 507.900534 
L 479.406596 510.078871 
L 479.687658 510.712111 
L 480.252588 512.377448 
L 481.282345 516.604624 
L 481.343699 516.859385 
L 482.150816 520.215039 
L 482.628053 522.047767 
L 482.661856 522.177583 
L 482.763228 522.587794 
L 482.689601 522.767759 
L 482.48179 523.275616 
L 482.46244 523.343816 
L 482.405176 523.545468 
L 482.398126 523.54611 
L 482.076158 523.573508 
L 482.135497 523.794362 
L 482.240007 524.183499 
L 482.444094 524.221438 
L 483.313301 524.815357 
L 483.822102 525.162974 
L 483.95715 524.965126 
L 484.343618 525.014427 
L 484.737242 524.811751 
L 484.818508 524.694943 
L 485.937569 523.086595 
L 486.829089 521.788693 
L 487.42289 520.924273 
L 488.629688 519.167418 
L 489.17389 518.3547 
L 489.548491 517.795229 
L 490.378873 516.55521 
L 491.162481 515.385026 
L 492.094875 513.992582 
L 493.646065 511.576979 
L 494.721641 509.901892 
L 494.882056 509.651352 
L 495.452604 508.759853 
L 495.631766 508.486251 
L 496.377839 507.347001 
L 497.568324 505.52917 
L 498.330093 504.365953 
L 498.856159 503.562623 
L 498.872967 503.537222 
L 499.228994 502.998684 
L 499.740483 502.225165 
L 500.820554 500.591648 
L 501.694102 499.270429 
L 502.142319 498.592505 
L 502.238607 498.143746 
L 501.996831 497.67203 
L 502.229889 497.306303 
L 502.322113 497.16158 
L 502.442517 496.9952 
L 502.527056 496.992818 
L 503.011131 496.95228 
L 503.350808 496.629163 
L 503.836688 495.912567 
L 503.911039 495.96866 
L 504.25141 495.426254 
L 504.194545 495.38462 
L 504.904466 494.33667 
L 505.162513 493.955788 
L 506.874068 491.429373 
L 507.340525 490.686764 
L 509.15485 487.798113 
L 511.43368 484.246172 
L 513.322063 481.056861 
L 514.319396 479.372551 
L 514.590489 478.914701 
L 514.738357 478.634279 
L 516.417457 475.449578 
L 517.452222 473.224678 
L 518.57386 470.78211 
L 519.859934 467.967296 
L 519.889307 467.874579 
L 520.205254 466.87628 
L 520.552289 465.779976 
L 520.611945 465.591592 
L 520.662134 465.433088 
L 521.059071 464.190256 
L 521.097303 464.07048 
L 521.748015 462.0333 
L 521.89245 461.581248 
L 522.024387 461.168241 
L 522.529581 459.58613 
L 522.659634 459.178904 
L 522.773648 458.821729 
L 522.948846 458.27339 
L 523.290503 457.203646 
L 523.54947 456.3927 
L 523.629596 456.142018 
L 523.76046 455.888591 
L 524.252614 454.075827 
L 524.794103 452.081437 
L 525.131163 450.839721 
L 525.152767 450.762316 
L 525.540441 449.375828 
L 525.935703 447.962492 
L 526.718714 445.162608 
L 527.074611 443.852892 
L 527.682111 441.617841 
L 528.107223 440.053468 
L 528.168693 439.827127 
L 528.213365 439.666668 
L 528.360273 439.138788 
L 528.451314 438.811727 
L 528.759173 437.706449 
L 529.065333 436.607009 
L 529.252457 436.034297 
L 529.286913 435.908558 
L 529.302398 435.852019 
L 529.32453 435.771211 
L 529.333792 435.737366 
L 529.433637 435.301119 
L 529.474444 435.159124 
L 529.507997 435.042381 
L 529.89105 433.70833 
L 529.986891 433.374876 
L 530.116107 432.924867 
L 530.304377 432.269209 
L 530.395114 431.953268 
L 530.490212 431.622029 
L 530.578284 431.315367 
L 530.650432 431.064188 
L 530.947187 430.08494 
L 532.492418 424.985752 
L 532.711803 424.309152 
L 532.75288 424.182477 
L 533.30666 422.000746 
L 533.916221 419.599393 
L 534.053996 419.056631 
L 534.349807 418.109037 
L 534.747614 416.804779 
L 535.30091 414.778038 
L 535.498921 414.010368 
L 535.60285 413.607559 
L 535.940519 412.42141 
L 536.278305 411.234894 
L 536.563296 410.057759 
L 536.863765 408.849516 
L 536.907162 408.671745 
L 537.14885 407.682211 
L 537.40775 406.501122 
L 537.683347 405.297446 
L 537.948264 404.118304 
L 538.206435 402.92282 
L 538.454354 401.726398 
L 538.743792 400.366716 
L 539.030215 398.517137 
L 539.09696 398.223578 
L 539.166879 397.916088 
L 539.294981 397.353204 
L 539.603093 395.690803 
L 539.664178 395.488286 
L 539.688009 395.409308 
L 539.49697 394.890062 
L 539.497954 394.876302 
L 539.507085 394.753016 
L 539.510283 394.709825 
L 539.543696 394.256756 
L 539.61 393.357592 
L 539.678386 392.430477 
L 539.782398 391.01996 
L 539.791888 390.891525 
L 539.836236 390.221206 
L 539.819534 387.139517 
L 539.817087 386.693205 
L 539.806321 384.70898 
L 538.882939 385.073821 
L 537.513792 385.614914 
L 537.145012 386.062817 
L 537.084169 384.953775 
L 536.698145 380.371876 
L 536.66839 380.140848 
L 536.267196 377.024096 
L 535.55794 373.500841 
L 534.352005 368.428775 
L 534.070115 367.643673 
L 533.158929 365.077899 
L 533.044695 364.757589 
L 532.99237 364.610581 
L 532.746441 363.920084 
L 532.688256 363.769783 
L 532.329921 362.844119 
L 532.294374 362.757812 
L 532.24205 362.630771 
L 532.053057 362.17151 
L 531.464091 360.740405 
L 529.645878 356.805297 
L 527.39895 352.673371 
L 525.300827 349.329797 
L 523.030537 346.162274 
L 522.774183 345.804677 
L 519.851609 342.146717 
L 519.411279 341.672319 
L 518.658262 340.819503 
L 516.757245 338.677885 
L 516.274713 338.1202 
L 516.005669 337.826213 
L 515.817873 337.621007 
L 515.28529 337.101959 
L 512.309552 333.985317 
L 512.110499 333.776885 
L 510.614377 332.209992 
L 506.558668 328.113599 
L 505.270793 326.779693 
L 504.518063 326.000302 
L 503.513898 324.96062 
L 502.735419 324.208293 
L 502.377014 323.861901 
L 502.14799 323.626342 
L 501.677147 323.141152 
L 501.318293 322.771262 
L 498.892468 320.270123 
L 498.566505 319.919613 
L 498.193552 319.537759 
L 497.058986 318.376177 
L 496.615489 317.922154 
L 495.805139 317.092499 
L 494.748198 316.010332 
L 494.311175 315.56295 
L 493.842403 315.087375 
L 493.155567 314.390665 
L 492.474893 313.700051 
L 490.195044 311.387487 
L 490.07691 311.267501 
L 489.89392 311.081877 
L 489.184324 310.362101 
L 485.033601 306.166211 
L 484.908734 306.028177 
L 479.711781 300.664512 
L 475.05829 296.143733 
L 471.030726 291.988588 
L 469.362303 290.255474 
L 468.010845 288.851792 
L 464.008279 284.33593 
L 462.447069 282.542752 
L 460.624205 279.950247 
L 460.499755 279.767944 
L 459.763457 278.690019 
L 459.082041 277.692293 
L 458.254328 276.480442 
L 457.970302 276.064579 
L 457.9314 276.007664 
L 456.568537 273.712287 
L 455.704641 271.202014 
L 454.323976 268.431912 
L 453.490769 266.566219 
L 452.985971 265.435932 
L 451.946172 262.56662 
L 451.720887 262.616116 
L 450.701391 262.495014 
L 449.981623 258.839992 
L 449.104126 254.97061 
L 448.829211 253.692727 
L 447.440369 247.237615 
L 447.340706 246.501248 
L 446.989751 243.910117 
L 446.53521 237.775559 
L 446.265206 232.966656 
L 446.18922 231.870971 
L 447.015251 231.833435 
L 447.042039 231.831994 
L 446.864361 228.600199 
L 445.863084 227.390345 
L 445.84152 226.213112 
L 445.742924 220.744962 
L 445.627874 218.125228 
L 445.434806 213.75472 
L 445.486394 211.917518 
L 445.490842 211.769162 
L 445.422205 209.853009 
L 445.265648 205.479932 
L 445.018265 197.331118 
L 444.684259 190.909079 
L 444.446043 188.938443 
L 439.834474 193.460882 
L 435.222985 197.983453 
L 435.122366 198.730491 
L 434.634262 198.289871 
L 434.407157 198.084913 
L 433.984968 197.703729 
L 433.830682 197.564467 
L 433.463156 197.232707 
L 424.232881 188.900876 
L 424.155593 188.837357 
L 423.720398 188.453664 
L 423.010413 187.829004 
L 422.230919 187.142671 
L 421.350552 186.368366 
L 420.419871 185.548821 
L 417.687494 183.369291 
L 413.741007 180.217665 
L 408.79112 176.404012 
L 404.831472 173.353057 
L 404.19276 172.901572 
L 402.927806 171.775272 
L 401.895324 170.368959 
L 400.6477 168.671967 
L 399.3708 167.038947 
L 396.856703 163.664457 
L 394.178391 160.344165 
L 393.474464 159.50719 
L 393.861042 158.853733 
L 395.11038 156.575335 
L 395.508074 155.841889 
L 395.489973 154.806797 
L 395.468132 153.268393 
L 395.446463 151.732243 
L 394.136135 150.871989 
L 390.88036 151.183906 
L 390.738151 151.041347 
L 386.981292 146.317697 
L 386.160951 145.285587 
L 385.890549 144.945148 
L 385.364281 144.282085 
L 385.18025 144.336827 
L 385.002641 144.389657 
L 384.315344 144.594054 
L 372.502332 148.106598 
L 372.441695 148.124547 
L 372.019105 148.249298 
L 371.966101 148.265002 
L 371.87312 148.292704 
L 371.560511 148.386446 
L 371.417149 148.429917 
L 370.759716 148.624649 
L 370.69527 148.644027 
L 370.423416 148.725084 
L 369.990432 148.853975 
L 369.843911 148.897944 
L 369.550085 148.986266 
L 367.868399 149.48534 
L 367.181931 149.69037 
L 365.575378 147.318914 
L 364.19133 145.27539 
L 363.06012 143.607608 
L 362.497167 142.776683 
L 361.8434 141.809463 
L 360.222636 140.786296 
L 354.243208 137.00673 
L 350.716118 134.906919 
L 348.026286 132.702411 
L 339.046127 124.595292 
L 338.870105 124.436473 
L 338.54969 124.148357 
L 337.77972 123.45153 
L 336.6954 122.473723 
L 336.119782 121.954117 
L 333.503174 119.492689 
L 331.810477 117.900406 
L 326.018771 112.81929 
L 326.149684 111.635129 
L 325.622222 111.608098 
L 325.581319 111.606016 
L 325.464837 111.6 
L 324.747542 112.102759 
L 323.854564 112.30058 
L 323.396268 112.581659 
L 322.493687 113.428605 
L 322.297708 113.923056 
L 321.609497 114.740805 
L 321.48882 115.676706 
L 319.760218 117.510449 
L 319.015544 117.482653 
L 318.460833 117.400676 
L 317.356425 117.470602 
L 316.136807 117.435266 
L 315.034652 117.409039 
L 314.853389 117.404716 
L 313.710305 117.048938 
L 312.192189 116.618671 
L 311.976827 116.772773 
L 311.964122 116.903363 
L 311.864173 117.928079 
L 311.306053 119.260451 
L 310.467868 120.935345 
L 309.745724 122.023591 
L 309.531706 122.478945 
L 309.268955 123.654211 
L 309.438528 123.911528 
L 309.606583 124.166437 
L 309.58659 124.446243 
L 309.359596 125.025293 
L 308.80112 125.636596 
L 308.686962 125.693673 
L 308.088189 125.992994 
L 307.630811 126.059016 
L 307.344166 126.100343 
L 307.210083 126.119701 
L 306.642444 126.834041 
L 306.494655 127.259281 
L 306.392868 127.428254 
L 306.360316 127.992768 
L 306.558682 128.100082 
L 306.596147 128.120373 
L 306.853542 128.307277 
L 307.009186 128.54976 
L 306.885718 128.796644 
L 306.599433 129.182599 
L 306.244251 129.379884 
L 305.79555 129.60527 
L 305.499246 130.154608 
L 306.51622 131.182534 
L 305.952037 131.851673 
L 305.560175 131.817253 
L 305.145098 131.780849 
L 305.064167 131.407735 
L 305.153722 130.799143 
L 305.048218 131.031093 
L 304.802105 131.550551 
L 304.618441 131.884267 
L 305.282511 132.094571 
L 305.464376 132.172882 
L 305.570461 132.377697 
L 305.282704 132.809605 
L 305.003658 132.97008 
L 303.832651 133.313089 
L 303.748993 133.438975 
L 303.221758 134.121217 
L 303.166672 134.243228 
L 303.33547 134.728627 
L 303.416069 135.300261 
L 303.333696 135.448223 
L 303.196784 135.553867 
L 303.053057 135.599943 
L 302.656985 135.499552 
L 302.293358 135.229722 
L 302.033715 135.188078 
L 301.77442 135.402888 
L 301.294429 135.6738 
L 301.355141 136.05335 
L 301.609548 136.678193 
L 302.740356 137.51201 
L 302.947228 137.782351 
L 303.021795 138.020293 
L 302.950579 138.184615 
L 302.808729 138.284751 
L 302.347313 138.406743 
L 302.1809 138.351353 
L 302.014757 138.193129 
L 301.947219 137.895799 
L 301.72627 137.510855 
L 301.496375 137.638483 
L 301.472808 137.787574 
L 301.739299 138.352856 
L 301.722852 138.567002 
L 301.58834 138.867869 
L 301.498775 138.988515 
L 301.247451 139.128529 
L 301.010425 139.228839 
L 300.955629 139.413006 
L 301.143349 139.841803 
L 301.241934 140.013749 
L 301.446451 139.907571 
L 301.807993 139.755629 
L 302.044015 139.714267 
L 302.319219 139.794949 
L 302.425928 139.973064 
L 302.418457 140.228899 
L 302.365485 140.478544 
L 302.257785 140.680136 
L 301.979894 140.733302 
L 301.914193 140.751013 
L 301.683928 140.892022 
L 300.980966 141.307933 
L 300.889492 141.362063 
L 300.603276 141.840532 
L 300.720174 141.92591 
L 301.629252 141.847829 
L 301.85706 141.875712 
L 302.20178 141.951298 
L 302.502748 141.940543 
L 302.730402 142.062832 
L 302.874516 142.524174 
L 302.834292 142.768588 
L 302.49419 142.889275 
L 302.081461 142.922006 
L 301.78969 142.861113 
L 301.558319 142.810106 
L 301.088578 142.642974 
L 300.625915 142.69502 
L 300.581883 142.700034 
L 299.725787 143.081512 
L 299.602773 143.255175 
L 300.067333 143.447029 
L 300.384993 143.610781 
L 300.853852 143.648053 
L 301.42 143.654207 
L 301.666239 143.641865 
L 301.923469 143.635751 
L 302.172639 143.489557 
L 302.392333 143.210784 
L 302.647679 143.117332 
L 302.839814 143.128671 
L 302.9451 143.667208 
L 302.658078 144.011051 
L 302.587553 144.313052 
L 302.693059 144.812199 
L 302.761442 145.295383 
L 302.678438 145.68309 
L 302.554603 145.893835 
L 302.509214 145.950171 
L 302.090617 145.979309 
L 301.54034 145.563315 
L 301.425695 145.381958 
L 301.496997 145.071145 
L 301.640857 144.875279 
L 301.678115 144.815216 
L 301.699579 144.440425 
L 301.547425 144.332448 
L 301.5122 144.771051 
L 301.22213 144.931471 
L 300.953384 144.905053 
L 299.8772 144.485734 
L 299.600185 144.181364 
L 298.88936 143.814638 
L 298.769206 143.840284 
L 298.849615 144.542656 
L 298.940105 145.256893 
L 298.785408 146.3588 
L 298.584003 146.478527 
L 298.366916 146.433615 
L 298.017568 146.128359 
L 297.97754 146.299313 
L 298.163457 147.082065 
L 297.801534 147.842749 
L 297.57751 148.121134 
L 297.29456 148.286162 
L 296.974086 148.958601 
L 296.548118 149.389823 
L 296.304268 149.919191 
L 296.164399 150.121504 
L 296.17732 150.15138 
L 296.667037 150.23312 
L 296.942819 150.274459 
L 297.03374 150.41177 
L 297.17564 150.688811 
L 297.113758 151.140224 
L 296.735095 151.559946 
L 296.601078 151.614541 
L 295.890171 151.495065 
L 295.109829 151.113661 
L 294.695866 151.093245 
L 294.003908 151.388696 
L 294.190063 151.643374 
L 294.697921 151.92621 
L 295.185652 152.197835 
L 295.746544 152.688075 
L 295.84291 153.02854 
L 295.815908 153.165618 
L 295.681583 153.302044 
L 295.358082 153.455646 
L 295.121913 153.621095 
L 294.922744 153.693207 
L 294.778338 153.708406 
L 294.623593 153.609955 
L 294.488258 153.378503 
L 294.356243 153.233014 
L 294.251268 153.299417 
L 294.359975 154.061851 
L 294.394995 154.341709 
L 294.577378 154.479294 
L 294.709604 154.675215 
L 294.636953 154.936111 
L 294.486844 155.100124 
L 294.9619 155.082535 
L 295.174965 155.136023 
L 295.319268 155.362267 
L 295.321019 155.533751 
L 295.286398 155.627157 
L 295.063129 155.785967 
L 294.485405 155.833819 
L 294.269303 155.914798 
L 294.099543 156.050674 
L 293.973805 156.435309 
L 293.738243 156.810983 
L 293.593226 157.266088 
L 293.688046 157.561828 
L 293.818336 157.739352 
L 294.149346 157.553645 
L 294.509426 157.389209 
L 294.767994 157.36706 
L 294.893542 157.438625 
L 294.994491 157.544447 
L 295.042278 157.710627 
L 294.979784 157.975814 
L 294.614762 158.421613 
L 294.341915 158.563459 
L 294.151813 158.787719 
L 293.825431 158.677904 
L 292.636128 158.277751 
L 292.91858 157.604447 
L 291.998751 157.611109 
L 291.979327 158.041239 
L 292.078798 158.578132 
L 292.114967 159.608969 
L 293.323804 159.805406 
L 293.618836 159.879224 
L 293.416364 160.51642 
L 293.047545 161.029536 
L 293.046858 161.173658 
L 293.330774 161.263051 
L 293.682396 161.372911 
L 293.810404 161.45645 
L 293.939364 161.634554 
L 293.98801 161.768169 
L 293.898765 162.006598 
L 293.881475 162.22913 
L 294.107388 162.194582 
L 294.364924 162.033417 
L 294.574941 161.988723 
L 294.859252 161.975585 
L 295.064608 162.140134 
L 295.094731 162.318067 
L 294.976533 162.611489 
L 294.689507 162.978544 
L 294.416098 163.193432 
L 294.272053 163.678375 
L 294.099886 164.321121 
L 293.954576 164.484172 
L 293.657312 164.435806 
L 293.240077 164.207793 
L 293.037326 164.274735 
L 293.109804 164.479137 
L 293.408553 164.654174 
L 293.85223 164.966167 
L 294.192296 165.263382 
L 294.693971 165.904242 
L 295.235448 166.897459 
L 295.312658 167.128196 
L 295.283707 167.227031 
L 295.164521 167.372217 
L 294.947846 167.615756 
L 295.009003 168.028879 
L 295.563043 168.224097 
L 295.921004 168.506564 
L 295.405369 168.833301 
L 294.925105 169.204128 
L 294.413325 169.71183 
L 294.036665 170.143602 
L 293.71054 170.618757 
L 293.314185 171.088585 
L 292.962522 171.482001 
L 292.921828 171.759463 
L 292.876083 172.015482 
L 292.667874 172.119063 
L 292.059964 172.058598 
L 291.893665 172.111414 
L 291.811544 172.187992 
L 291.853781 172.359548 
L 291.957171 172.5668 
L 292.220357 172.910736 
L 292.375405 173.19261 
L 292.759841 173.393939 
L 292.937798 173.557695 
L 293.087114 173.722031 
L 293.143436 173.891012 
L 292.961051 174.231119 
L 292.470389 174.356713 
L 291.779627 174.602193 
L 291.709073 174.798256 
L 291.783952 175.082962 
L 292.281021 175.307477 
L 292.424092 175.391411 
L 292.035762 175.559291 
L 291.533676 175.440527 
L 291.29927 175.536634 
L 291.088519 175.826695 
L 291.217272 175.993017 
L 291.801694 175.900067 
L 292.313909 175.833403 
L 292.661744 175.749658 
L 292.655651 176.21173 
L 292.094274 177.176376 
L 291.610346 177.587165 
L 291.441638 177.996333 
L 291.446235 178.311678 
L 291.12194 179.108717 
L 290.740254 179.817278 
L 290.596846 179.969481 
L 290.37411 180.205893 
L 290.083248 180.318042 
L 289.587477 180.509275 
L 289.533137 180.625838 
L 289.590551 180.756264 
L 289.681843 180.833967 
L 289.875363 180.998594 
L 290.359039 181.410134 
L 290.637627 181.818938 
L 290.640493 182.245211 
L 290.582429 182.366987 
L 290.419153 182.511268 
L 290.205512 182.537728 
L 289.849063 182.524641 
L 289.366384 182.357146 
L 289.051269 182.477899 
L 289.042735 182.614504 
L 289.829982 183.374262 
L 290.020615 183.505247 
L 290.166975 183.712147 
L 290.183605 183.894595 
L 290.127183 184.065367 
L 289.901427 184.166289 
L 289.599535 184.210174 
L 289.172278 184.272253 
L 287.856453 184.202797 
L 287.718954 184.272739 
L 287.174207 184.790291 
L 286.614894 185.307987 
L 286.414271 185.466846 
L 286.466932 185.701123 
L 286.529937 185.849864 
L 286.585448 186.176281 
L 286.596831 186.352984 
L 286.54488 186.568293 
L 286.46168 186.790165 
L 286.278293 186.961888 
L 286.098068 187.119558 
L 285.868568 187.21098 
L 285.470165 187.238102 
L 284.935109 187.127293 
L 284.80934 187.086329 
L 284.486197 186.981092 
L 284.278443 186.913388 
L 283.822128 186.695057 
L 283.578188 186.688616 
L 283.404222 186.793451 
L 283.218611 186.950144 
L 283.055573 187.126604 
L 282.794719 187.301776 
L 282.428039 187.529085 
L 282.210954 187.630368 
L 281.73972 187.898553 
L 281.533215 188.134974 
L 281.453263 188.270127 
L 281.27892 188.382604 
L 281.260529 188.394435 
L 281.236126 188.401821 
L 281.065665 188.453393 
L 280.830174 188.481204 
L 280.545 188.421833 
L 280.267814 188.272522 
L 279.982986 188.152264 
L 279.774517 188.156206 
L 279.607154 188.291792 
L 279.504657 188.481979 
L 279.45904 188.650374 
L 279.424019 188.83459 
L 279.245371 189.059886 
L 279.112313 189.181025 
L 279.005416 189.196184 
L 278.824548 189.12031 
L 278.660191 188.893974 
L 278.520265 188.797885 
L 278.383925 188.804912 
L 278.350288 188.988304 
L 278.363825 189.152075 
L 278.587327 189.498843 
L 278.606539 189.690147 
L 278.619963 189.824306 
L 278.450464 190.052511 
L 278.25806 190.128696 
L 278.099874 190.093897 
L 277.980705 190.03453 
L 277.939523 190.014021 
L 277.713396 189.819785 
L 277.403614 189.785883 
L 277.119649 190.085962 
L 276.86506 190.366514 
L 276.418688 190.734658 
L 276.029997 191.045942 
L 275.927471 191.109304 
L 275.882072 191.137373 
L 275.858085 191.144262 
L 275.781824 191.166246 
L 275.623626 191.136333 
L 275.179033 190.913355 
L 274.967723 190.831083 
L 274.744623 190.89764 
L 274.60178 190.940963 
L 274.452575 191.026928 
L 274.161967 191.220606 
L 273.674889 191.428524 
L 273.40039 191.573784 
L 273.167234 191.793041 
L 273.186519 191.864783 
L 273.225713 191.929973 
L 273.2796 192.019686 
L 273.435161 192.138869 
L 273.501778 192.189948 
L 273.625585 192.339459 
L 273.643176 192.419972 
L 273.659997 192.700481 
L 273.605778 192.868398 
L 273.545738 192.964148 
L 273.445851 193.090896 
L 273.237672 193.252071 
L 273.108875 193.310101 
L 272.96689 193.337224 
L 272.773637 193.320801 
L 272.642475 193.273124 
L 272.523022 193.201065 
L 272.407864 193.105706 
L 272.234191 192.88001 
L 272.132009 192.699849 
L 272.038851 192.361701 
L 272.002427 192.229586 
L 271.908627 192.129779 
L 271.879587 192.098861 
L 271.793485 192.054265 
L 271.527328 192.117272 
L 271.435592 192.180516 
L 271.402212 192.203553 
L 271.325688 192.44262 
L 271.291614 192.549023 
L 271.131966 193.102657 
L 271.008667 193.330074 
L 270.84296 193.44676 
L 270.654145 193.427063 
L 270.519248 193.367747 
L 270.389209 193.225888 
L 270.249123 192.850263 
L 270.14972 192.628152 
L 270.060616 192.520241 
L 269.922359 192.447018 
L 269.774067 192.502861 
L 269.717198 192.669434 
L 269.705191 192.922868 
L 269.662295 193.253385 
L 269.518331 193.535245 
L 269.24534 193.728654 
L 269.014703 193.796056 
L 268.76388 193.849501 
L 268.503119 193.693237 
L 268.351669 193.512658 
L 268.239061 193.346106 
L 268.117792 193.201181 
L 267.967988 192.887204 
L 267.946868 192.66816 
L 268.029957 192.463811 
L 268.247339 192.308043 
L 268.386379 192.100361 
L 268.385875 192.012504 
L 268.385547 191.957005 
L 268.204323 191.832601 
L 267.934519 191.887877 
L 267.870671 191.916972 
L 267.646178 192.019226 
L 267.267617 192.118102 
L 266.853319 192.219125 
L 266.586803 192.148968 
L 266.417255 192.012456 
L 266.319516 191.715019 
L 266.289553 191.623854 
L 266.203448 191.355954 
L 266.169242 191.249558 
L 266.048011 190.953932 
L 265.876858 190.775689 
L 265.70097 190.799792 
L 265.51719 190.936976 
L 265.43737 191.074939 
L 265.369361 191.217643 
L 265.328833 191.302576 
L 265.261271 191.427134 
L 265.208229 191.524927 
L 265.029489 191.810868 
L 264.841038 192.213047 
L 264.622099 192.595882 
L 264.357376 192.722796 
L 264.156886 192.767114 
L 263.912215 192.673387 
L 263.76763 192.578998 
L 263.63148 192.428425 
L 263.457039 192.266745 
L 263.237034 192.150176 
L 262.829315 192.016943 
L 262.44298 191.981052 
L 262.073777 192.034966 
L 261.823119 192.261769 
L 261.503684 192.205141 
L 261.334553 192.103611 
L 261.25788 191.990171 
L 261.18934 191.888761 
L 261.125498 192.045906 
L 261.103197 192.100814 
L 261.067286 192.369929 
L 260.946348 192.803016 
L 260.522631 192.994998 
L 260.072157 192.621535 
L 259.988609 192.552276 
L 259.828697 192.484002 
L 259.638069 192.402557 
L 259.671461 192.594947 
L 259.704441 192.785269 
L 259.740106 192.85878 
L 260.109039 193.619625 
L 260.443311 194.033682 
L 260.612311 194.526502 
L 260.674842 194.958211 
L 260.136275 195.422184 
L 263.262409 196.817396 
L 263.949322 200.411902 
L 260.62086 201.919986 
L 258.692982 202.793488 
L 257.450574 203.50735 
L 256.045252 204.31489 
L 255.074698 204.863822 
L 254.521313 205.176948 
L 254.279162 205.282174 
L 253.491267 205.625311 
L 252.865287 205.897941 
L 252.701131 205.96905 
L 252.676741 205.979613 
L 252.646114 205.994835 
L 252.495879 206.0696 
L 252.13645 205.947019 
L 252.018934 205.906921 
L 252.587447 206.789784 
L 252.571275 206.805292 
L 252.464216 206.907967 
L 252.332841 207.013631 
L 252.170047 207.169831 
L 249.685003 209.54818 
L 248.886084 208.625692 
L 246.830258 206.284897 
L 246.588167 206.94366 
L 245.759935 207.884123 
L 244.935057 208.751115 
L 244.799205 208.988413 
L 244.07355 210.255878 
L 242.603666 212.823414 
L 242.670555 213.553922 
L 242.77523 214.037191 
L 242.815304 214.222711 
L 242.327529 214.991067 
L 241.337542 214.518114 
L 240.910415 214.195812 
L 240.357025 214.518124 
L 240.103093 214.955686 
L 239.785839 215.247332 
L 239.536538 215.418984 
L 239.429626 215.492595 
L 238.92778 216.041327 
L 238.862529 216.330281 
L 238.83448 216.454626 
L 238.921555 216.943848 
L 239.235164 216.853484 
L 239.767318 216.568347 
L 240.035576 216.662438 
L 240.485686 217.483956 
L 240.561756 217.5949 
L 240.574332 217.68792 
L 240.28434 218.511599 
L 239.946265 218.79889 
L 239.900491 218.826241 
L 238.931197 219.213627 
L 238.674066 219.264614 
L 238.369699 219.188436 
L 238.121662 219.16399 
L 237.979672 219.450463 
L 238.178654 219.616581 
L 239.078625 220.136923 
L 239.312283 220.300001 
L 239.43745 220.515171 
L 239.398777 220.825813 
L 239.240405 221.07504 
L 239.019097 221.163016 
L 238.773724 221.213616 
L 238.289754 221.374871 
L 237.6057 221.307383 
L 237.518529 221.459076 
L 237.633468 221.750681 
L 237.792753 222.154801 
L 237.871106 222.662782 
L 237.372032 223.385604 
L 237.131704 223.733649 
L 237.032501 223.783944 
L 236.621889 223.992274 
L 236.348088 224.09597 
L 235.936472 224.395124 
L 235.474718 224.730765 
L 234.976363 224.910669 
L 234.920673 224.930734 
L 234.990723 225.164243 
L 235.283646 225.574687 
L 235.544739 225.767857 
L 235.863832 225.916364 
L 236.647223 225.937275 
L 236.704964 225.997584 
L 237.072334 226.549968 
L 237.091812 226.711344 
L 236.958851 226.992545 
L 236.633843 227.198944 
L 236.540907 227.451947 
L 236.305151 228.084379 
L 236.336224 228.232793 
L 236.516016 229.093501 
L 236.796227 230.272461 
L 236.816709 230.370065 
L 237.518097 231.624092 
L 237.604445 231.785608 
L 237.637237 232.251812 
L 237.918025 232.995934 
L 238.418664 233.970003 
L 238.9634 235.669416 
L 239.557567 236.140603 
L 239.782745 236.531697 
L 239.872202 237.073013 
L 239.725254 237.450457 
L 239.413989 237.806818 
L 239.312491 238.608965 
L 239.189458 238.794806 
L 239.057191 239.000944 
L 239.758842 239.828694 
L 239.87566 240.342647 
L 239.161401 241.575918 
L 238.081969 241.23634 
L 237.484296 240.915205 
L 237.25038 240.978493 
L 237.163111 241.177083 
L 237.159383 241.38539 
L 237.213114 241.465391 
L 238.149326 242.125722 
L 238.455563 243.351664 
L 236.18519 243.077436 
L 235.858933 242.376475 
L 235.498122 242.087856 
L 235.231361 242.013275 
L 235.165119 242.016602 
L 235.100817 242.054691 
L 234.941661 242.379473 
L 234.945207 242.398932 
L 235.661731 243.177792 
L 235.962422 243.462883 
L 236.756 244.329157 
L 237.164624 245.199235 
L 237.214027 246.85963 
L 236.467155 247.159205 
L 235.470771 246.646788 
L 235.082127 246.648844 
L 234.526744 246.381105 
L 234.389672 245.907302 
L 233.448024 244.826384 
L 233.395162 244.820251 
L 233.169628 245.068983 
L 232.494672 245.311377 
L 232.371634 245.957143 
L 231.930127 247.028381 
L 231.716684 247.863041 
L 230.622107 249.631099 
L 230.014052 249.430506 
L 229.971186 250.057976 
L 229.76617 251.01213 
L 228.171855 249.982613 
L 228.255042 250.967503 
L 227.991632 251.626214 
L 227.662843 251.617218 
L 227.269347 251.60651 
L 226.696701 251.043023 
L 226.263515 250.883061 
L 225.908328 250.725 
L 225.534522 250.790238 
L 224.936898 251.380179 
L 224.506516 252.123881 
L 224.093696 252.345713 
L 223.899653 252.506421 
L 223.183845 253.196127 
L 222.404285 252.465742 
L 222.200702 252.365319 
L 222.056959 252.294074 
L 222.002532 252.318509 
L 221.751253 252.708886 
L 221.313623 253.222552 
L 220.483036 254.38199 
L 219.630362 254.17474 
L 218.63066 254.026386 
L 217.524304 253.50003 
L 217.448686 253.565858 
L 217.488367 254.422766 
L 217.505353 254.78949 
L 217.023815 255.131348 
L 215.82017 254.836796 
L 215.43927 254.649409 
L 214.904665 253.824956 
L 214.616276 253.696538 
L 214.342736 253.637395 
L 214.216483 253.671396 
L 214.05049 253.778351 
L 213.912901 253.909698 
L 213.761661 254.114019 
L 213.441476 254.634806 
L 212.806209 255.805108 
L 212.716877 255.970779 
L 212.575177 256.071078 
L 212.107892 256.239387 
L 211.625748 255.751978 
L 211.860778 257.42392 
L 211.405539 257.777404 
L 210.454674 258.228828 
L 210.377302 258.335608 
L 210.207916 259.512458 
L 209.753856 259.942246 
L 209.521317 260.851242 
L 209.042258 261.304802 
L 209.132356 262.258389 
L 208.884114 262.919827 
L 207.334083 262.788259 
L 207.291488 262.839906 
L 207.242177 263.071841 
L 207.447582 264.170585 
L 206.292617 265.190867 
L 204.839742 265.871073 
L 203.772207 265.254737 
L 203.626611 265.214685 
L 203.332809 265.337368 
L 202.517962 265.883432 
L 201.350896 264.946341 
L 201.240267 262.972256 
L 200.787694 263.229828 
L 199.754518 263.794288 
L 199.67106 263.920139 
L 199.676108 264.324014 
L 199.432751 264.701836 
L 199.167005 264.63392 
L 198.442658 263.969269 
L 198.275845 264.025996 
L 198.181766 264.417895 
L 198.332961 265.875202 
L 198.411259 266.63976 
L 198.163764 266.802065 
L 198.23249 267.450577 
L 198.46105 267.302624 
L 198.984769 267.08404 
L 199.327399 267.673578 
L 199.782214 269.650599 
L 201.808868 274.902404 
L 202.273088 276.10488 
L 203.023069 277.506474 
L 204.64533 280.593153 
L 205.099103 281.439266 
L 205.210706 281.647584 
L 205.567562 282.290786 
L 205.825061 282.757938 
L 208.285063 287.299634 
L 208.516778 287.712966 
L 208.919561 288.431337 
L 209.365312 289.417227 
L 209.741697 290.270352 
L 209.99465 290.658229 
L 210.196532 291.067659 
L 211.42419 293.547868 
L 212.47793 295.602689 
L 215.222576 301.271866 
L 217.315687 305.830858 
L 218.794894 309.381326 
L 221.010907 314.783281 
L 222.257691 317.920806 
L 223.213182 320.482571 
L 223.724196 321.870447 
L 223.843473 322.193518 
L 224.166986 322.905215 
L 224.240065 323.07643 
L 226.151767 327.567167 
L 226.178163 327.629892 
L 228.282663 332.572788 
L 228.411031 332.829098 
L 228.460921 332.928758 
L 228.48702 332.980892 
L 228.582018 333.170482 
L 228.593567 333.193608 
L 232.469443 342.975594 
L 234.48724 349.678974 
L 235.844717 357.99278 
L 235.908731 358.384823 
L 236.827378 364.011403 
L 236.838213 364.211567 
L 236.986739 366.946508 
L 237.051173 371.654877 
L 237.11466 376.277781 
L 236.824961 381.594636 
L 236.528382 387.036032 
L 234.736792 391.556162 
L 234.783128 391.915507 
" clip-path="url(#p0e152afd6b)" style="fill: #d3d3d3"/>
   </g>
   <g id="matplotlib.axis_1">
    <g id="xtick_1">
     <g id="line2d_1">
      <defs>
       <path id="m92e7d07aa2" d="M 0 0 
L 0 3.5 
" style="stroke: #000000; stroke-width: 0.8"/>
      </defs>
      <g>
       <use xlink:href="#m92e7d07aa2" x="252.155239" y="640.8" style="stroke: #000000; stroke-width: 0.8"/>
      </g>
     </g>
     <g id="text_1">
      <!-- 13.38 -->
      <g transform="translate(237.841176 655.398438) scale(0.1 -0.1)">
       <defs>
        <path id="DejaVuSans-31" d="M 794 531 
L 1825 531 
L 1825 4091 
L 703 3866 
L 703 4441 
L 1819 4666 
L 2450 4666 
L 2450 531 
L 3481 531 
L 3481 0 
L 794 0 
L 794 531 
z
" transform="scale(0.015625)"/>
        <path id="DejaVuSans-33" d="M 2597 2516 
Q 3050 2419 3304 2112 
Q 3559 1806 3559 1356 
Q 3559 666 3084 287 
Q 2609 -91 1734 -91 
Q 1441 -91 1130 -33 
Q 819 25 488 141 
L 488 750 
Q 750 597 1062 519 
Q 1375 441 1716 441 
Q 2309 441 2620 675 
Q 2931 909 2931 1356 
Q 2931 1769 2642 2001 
Q 2353 2234 1838 2234 
L 1294 2234 
L 1294 2753 
L 1863 2753 
Q 2328 2753 2575 2939 
Q 2822 3125 2822 3475 
Q 2822 3834 2567 4026 
Q 2313 4219 1838 4219 
Q 1578 4219 1281 4162 
Q 984 4106 628 3988 
L 628 4550 
Q 988 4650 1302 4700 
Q 1616 4750 1894 4750 
Q 2613 4750 3031 4423 
Q 3450 4097 3450 3541 
Q 3450 3153 3228 2886 
Q 3006 2619 2597 2516 
z
" transform="scale(0.015625)"/>
        <path id="DejaVuSans-2e" d="M 684 794 
L 1344 794 
L 1344 0 
L 684 0 
L 684 794 
z
" transform="scale(0.015625)"/>
        <path id="DejaVuSans-38" d="M 2034 2216 
Q 1584 2216 1326 1975 
Q 1069 1734 1069 1313 
Q 1069 891 1326 650 
Q 1584 409 2034 409 
Q 2484 409 2743 651 
Q 3003 894 3003 1313 
Q 3003 1734 2745 1975 
Q 2488 2216 2034 2216 
z
M 1403 2484 
Q 997 2584 770 2862 
Q 544 3141 544 3541 
Q 544 4100 942 4425 
Q 1341 4750 2034 4750 
Q 2731 4750 3128 4425 
Q 3525 4100 3525 3541 
Q 3525 3141 3298 2862 
Q 3072 2584 2669 2484 
Q 3125 2378 3379 2068 
Q 3634 1759 3634 1313 
Q 3634 634 3220 271 
Q 2806 -91 2034 -91 
Q 1263 -91 848 271 
Q 434 634 434 1313 
Q 434 1759 690 2068 
Q 947 2378 1403 2484 
z
M 1172 3481 
Q 1172 3119 1398 2916 
Q 1625 2713 2034 2713 
Q 2441 2713 2670 2916 
Q 2900 3119 2900 3481 
Q 2900 3844 2670 4047 
Q 2441 4250 2034 4250 
Q 1625 4250 1398 4047 
Q 1172 3844 1172 3481 
z
" transform="scale(0.015625)"/>
       </defs>
       <use xlink:href="#DejaVuSans-31"/>
       <use xlink:href="#DejaVuSans-33" x="63.623047"/>
       <use xlink:href="#DejaVuSans-2e" x="127.246094"/>
       <use xlink:href="#DejaVuSans-33" x="159.033203"/>
       <use xlink:href="#DejaVuSans-38" x="222.65625"/>
      </g>
     </g>
    </g>
    <g id="xtick_2">
     <g id="line2d_2">
      <g>
       <use xlink:href="#m92e7d07aa2" x="334.6573" y="640.8" style="stroke: #000000; stroke-width: 0.8"/>
      </g>
     </g>
     <g id="text_2">
      <!-- 13.40 -->
      <g transform="translate(320.343237 655.398438) scale(0.1 -0.1)">
       <defs>
        <path id="DejaVuSans-34" d="M 2419 4116 
L 825 1625 
L 2419 1625 
L 2419 4116 
z
M 2253 4666 
L 3047 4666 
L 3047 1625 
L 3713 1625 
L 3713 1100 
L 3047 1100 
L 3047 0 
L 2419 0 
L 2419 1100 
L 313 1100 
L 313 1709 
L 2253 4666 
z
" transform="scale(0.015625)"/>
        <path id="DejaVuSans-30" d="M 2034 4250 
Q 1547 4250 1301 3770 
Q 1056 3291 1056 2328 
Q 1056 1369 1301 889 
Q 1547 409 2034 409 
Q 2525 409 2770 889 
Q 3016 1369 3016 2328 
Q 3016 3291 2770 3770 
Q 2525 4250 2034 4250 
z
M 2034 4750 
Q 2819 4750 3233 4129 
Q 3647 3509 3647 2328 
Q 3647 1150 3233 529 
Q 2819 -91 2034 -91 
Q 1250 -91 836 529 
Q 422 1150 422 2328 
Q 422 3509 836 4129 
Q 1250 4750 2034 4750 
z
" transform="scale(0.015625)"/>
       </defs>
       <use xlink:href="#DejaVuSans-31"/>
       <use xlink:href="#DejaVuSans-33" x="63.623047"/>
       <use xlink:href="#DejaVuSans-2e" x="127.246094"/>
       <use xlink:href="#DejaVuSans-34" x="159.033203"/>
       <use xlink:href="#DejaVuSans-30" x="222.65625"/>
      </g>
     </g>
    </g>
    <g id="xtick_3">
     <g id="line2d_3">
      <g>
       <use xlink:href="#m92e7d07aa2" x="417.159361" y="640.8" style="stroke: #000000; stroke-width: 0.8"/>
      </g>
     </g>
     <g id="text_3">
      <!-- 13.42 -->
      <g transform="translate(402.845299 655.398438) scale(0.1 -0.1)">
       <defs>
        <path id="DejaVuSans-32" d="M 1228 531 
L 3431 531 
L 3431 0 
L 469 0 
L 469 531 
Q 828 903 1448 1529 
Q 2069 2156 2228 2338 
Q 2531 2678 2651 2914 
Q 2772 3150 2772 3378 
Q 2772 3750 2511 3984 
Q 2250 4219 1831 4219 
Q 1534 4219 1204 4116 
Q 875 4013 500 3803 
L 500 4441 
Q 881 4594 1212 4672 
Q 1544 4750 1819 4750 
Q 2544 4750 2975 4387 
Q 3406 4025 3406 3419 
Q 3406 3131 3298 2873 
Q 3191 2616 2906 2266 
Q 2828 2175 2409 1742 
Q 1991 1309 1228 531 
z
" transform="scale(0.015625)"/>
       </defs>
       <use xlink:href="#DejaVuSans-31"/>
       <use xlink:href="#DejaVuSans-33" x="63.623047"/>
       <use xlink:href="#DejaVuSans-2e" x="127.246094"/>
       <use xlink:href="#DejaVuSans-34" x="159.033203"/>
       <use xlink:href="#DejaVuSans-32" x="222.65625"/>
      </g>
     </g>
    </g>
    <g id="xtick_4">
     <g id="line2d_4">
      <g>
       <use xlink:href="#m92e7d07aa2" x="499.661422" y="640.8" style="stroke: #000000; stroke-width: 0.8"/>
      </g>
     </g>
     <g id="text_4">
      <!-- 13.44 -->
      <g transform="translate(485.34736 655.398438) scale(0.1 -0.1)">
       <use xlink:href="#DejaVuSans-31"/>
       <use xlink:href="#DejaVuSans-33" x="63.623047"/>
       <use xlink:href="#DejaVuSans-2e" x="127.246094"/>
       <use xlink:href="#DejaVuSans-34" x="159.033203"/>
       <use xlink:href="#DejaVuSans-34" x="222.65625"/>
      </g>
     </g>
    </g>
   </g>
   <g id="matplotlib.axis_2">
    <g id="ytick_1">
     <g id="line2d_5">
      <defs>
       <path id="ma60d32388a" d="M 0 0 
L -3.5 0 
" style="stroke: #000000; stroke-width: 0.8"/>
      </defs>
      <g>
       <use xlink:href="#ma60d32388a" x="181.08014" y="575.42324" style="stroke: #000000; stroke-width: 0.8"/>
      </g>
     </g>
     <g id="text_5">
      <!-- 52.58 -->
      <g transform="translate(145.452015 579.222458) scale(0.1 -0.1)">
       <defs>
        <path id="DejaVuSans-35" d="M 691 4666 
L 3169 4666 
L 3169 4134 
L 1269 4134 
L 1269 2991 
Q 1406 3038 1543 3061 
Q 1681 3084 1819 3084 
Q 2600 3084 3056 2656 
Q 3513 2228 3513 1497 
Q 3513 744 3044 326 
Q 2575 -91 1722 -91 
Q 1428 -91 1123 -41 
Q 819 9 494 109 
L 494 744 
Q 775 591 1075 516 
Q 1375 441 1709 441 
Q 2250 441 2565 725 
Q 2881 1009 2881 1497 
Q 2881 1984 2565 2268 
Q 2250 2553 1709 2553 
Q 1456 2553 1204 2497 
Q 953 2441 691 2322 
L 691 4666 
z
" transform="scale(0.015625)"/>
       </defs>
       <use xlink:href="#DejaVuSans-35"/>
       <use xlink:href="#DejaVuSans-32" x="63.623047"/>
       <use xlink:href="#DejaVuSans-2e" x="127.246094"/>
       <use xlink:href="#DejaVuSans-35" x="159.033203"/>
       <use xlink:href="#DejaVuSans-38" x="222.65625"/>
      </g>
     </g>
    </g>
    <g id="ytick_2">
     <g id="line2d_6">
      <g>
       <use xlink:href="#ma60d32388a" x="181.08014" y="507.507692" style="stroke: #000000; stroke-width: 0.8"/>
      </g>
     </g>
     <g id="text_6">
      <!-- 52.59 -->
      <g transform="translate(145.452015 511.30691) scale(0.1 -0.1)">
       <defs>
        <path id="DejaVuSans-39" d="M 703 97 
L 703 672 
Q 941 559 1184 500 
Q 1428 441 1663 441 
Q 2288 441 2617 861 
Q 2947 1281 2994 2138 
Q 2813 1869 2534 1725 
Q 2256 1581 1919 1581 
Q 1219 1581 811 2004 
Q 403 2428 403 3163 
Q 403 3881 828 4315 
Q 1253 4750 1959 4750 
Q 2769 4750 3195 4129 
Q 3622 3509 3622 2328 
Q 3622 1225 3098 567 
Q 2575 -91 1691 -91 
Q 1453 -91 1209 -44 
Q 966 3 703 97 
z
M 1959 2075 
Q 2384 2075 2632 2365 
Q 2881 2656 2881 3163 
Q 2881 3666 2632 3958 
Q 2384 4250 1959 4250 
Q 1534 4250 1286 3958 
Q 1038 3666 1038 3163 
Q 1038 2656 1286 2365 
Q 1534 2075 1959 2075 
z
" transform="scale(0.015625)"/>
       </defs>
       <use xlink:href="#DejaVuSans-35"/>
       <use xlink:href="#DejaVuSans-32" x="63.623047"/>
       <use xlink:href="#DejaVuSans-2e" x="127.246094"/>
       <use xlink:href="#DejaVuSans-35" x="159.033203"/>
       <use xlink:href="#DejaVuSans-39" x="222.65625"/>
      </g>
     </g>
    </g>
    <g id="ytick_3">
     <g id="line2d_7">
      <g>
       <use xlink:href="#ma60d32388a" x="181.08014" y="439.592144" style="stroke: #000000; stroke-width: 0.8"/>
      </g>
     </g>
     <g id="text_7">
      <!-- 52.60 -->
      <g transform="translate(145.452015 443.391362) scale(0.1 -0.1)">
       <defs>
        <path id="DejaVuSans-36" d="M 2113 2584 
Q 1688 2584 1439 2293 
Q 1191 2003 1191 1497 
Q 1191 994 1439 701 
Q 1688 409 2113 409 
Q 2538 409 2786 701 
Q 3034 994 3034 1497 
Q 3034 2003 2786 2293 
Q 2538 2584 2113 2584 
z
M 3366 4563 
L 3366 3988 
Q 3128 4100 2886 4159 
Q 2644 4219 2406 4219 
Q 1781 4219 1451 3797 
Q 1122 3375 1075 2522 
Q 1259 2794 1537 2939 
Q 1816 3084 2150 3084 
Q 2853 3084 3261 2657 
Q 3669 2231 3669 1497 
Q 3669 778 3244 343 
Q 2819 -91 2113 -91 
Q 1303 -91 875 529 
Q 447 1150 447 2328 
Q 447 3434 972 4092 
Q 1497 4750 2381 4750 
Q 2619 4750 2861 4703 
Q 3103 4656 3366 4563 
z
" transform="scale(0.015625)"/>
       </defs>
       <use xlink:href="#DejaVuSans-35"/>
       <use xlink:href="#DejaVuSans-32" x="63.623047"/>
       <use xlink:href="#DejaVuSans-2e" x="127.246094"/>
       <use xlink:href="#DejaVuSans-36" x="159.033203"/>
       <use xlink:href="#DejaVuSans-30" x="222.65625"/>
      </g>
     </g>
    </g>
    <g id="ytick_4">
     <g id="line2d_8">
      <g>
       <use xlink:href="#ma60d32388a" x="181.08014" y="371.676596" style="stroke: #000000; stroke-width: 0.8"/>
      </g>
     </g>
     <g id="text_8">
      <!-- 52.61 -->
      <g transform="translate(145.452015 375.475814) scale(0.1 -0.1)">
       <use xlink:href="#DejaVuSans-35"/>
       <use xlink:href="#DejaVuSans-32" x="63.623047"/>
       <use xlink:href="#DejaVuSans-2e" x="127.246094"/>
       <use xlink:href="#DejaVuSans-36" x="159.033203"/>
       <use xlink:href="#DejaVuSans-31" x="222.65625"/>
      </g>
     </g>
    </g>
    <g id="ytick_5">
     <g id="line2d_9">
      <g>
       <use xlink:href="#ma60d32388a" x="181.08014" y="303.761047" style="stroke: #000000; stroke-width: 0.8"/>
      </g>
     </g>
     <g id="text_9">
      <!-- 52.62 -->
      <g transform="translate(145.452015 307.560266) scale(0.1 -0.1)">
       <use xlink:href="#DejaVuSans-35"/>
       <use xlink:href="#DejaVuSans-32" x="63.623047"/>
       <use xlink:href="#DejaVuSans-2e" x="127.246094"/>
       <use xlink:href="#DejaVuSans-36" x="159.033203"/>
       <use xlink:href="#DejaVuSans-32" x="222.65625"/>
      </g>
     </g>
    </g>
    <g id="ytick_6">
     <g id="line2d_10">
      <g>
       <use xlink:href="#ma60d32388a" x="181.08014" y="235.845499" style="stroke: #000000; stroke-width: 0.8"/>
      </g>
     </g>
     <g id="text_10">
      <!-- 52.63 -->
      <g transform="translate(145.452015 239.644718) scale(0.1 -0.1)">
       <use xlink:href="#DejaVuSans-35"/>
       <use xlink:href="#DejaVuSans-32" x="63.623047"/>
       <use xlink:href="#DejaVuSans-2e" x="127.246094"/>
       <use xlink:href="#DejaVuSans-36" x="159.033203"/>
       <use xlink:href="#DejaVuSans-33" x="222.65625"/>
      </g>
     </g>
    </g>
    <g id="ytick_7">
     <g id="line2d_11">
      <g>
       <use xlink:href="#ma60d32388a" x="181.08014" y="167.929951" style="stroke: #000000; stroke-width: 0.8"/>
      </g>
     </g>
     <g id="text_11">
      <!-- 52.64 -->
      <g transform="translate(145.452015 171.72917) scale(0.1 -0.1)">
       <use xlink:href="#DejaVuSans-35"/>
       <use xlink:href="#DejaVuSans-32" x="63.623047"/>
       <use xlink:href="#DejaVuSans-2e" x="127.246094"/>
       <use xlink:href="#DejaVuSans-36" x="159.033203"/>
       <use xlink:href="#DejaVuSans-34" x="222.65625"/>
      </g>
     </g>
    </g>
    <g id="ytick_8">
     <g id="line2d_12">
      <g>
       <use xlink:href="#ma60d32388a" x="181.08014" y="100.014403" style="stroke: #000000; stroke-width: 0.8"/>
      </g>
     </g>
     <g id="text_12">
      <!-- 52.65 -->
      <g transform="translate(145.452015 103.813622) scale(0.1 -0.1)">
       <use xlink:href="#DejaVuSans-35"/>
       <use xlink:href="#DejaVuSans-32" x="63.623047"/>
       <use xlink:href="#DejaVuSans-2e" x="127.246094"/>
       <use xlink:href="#DejaVuSans-36" x="159.033203"/>
       <use xlink:href="#DejaVuSans-35" x="222.65625"/>
      </g>
     </g>
    </g>
   </g>
   <g id="LineCollection_1">
    <path d="M 386.729301 537.212594 
L 386.88193 537.551493 
L 389.782702 543.989887 
L 394.176349 553.451202 
" clip-path="url(#p0e152afd6b)" style="fill: none; stroke: #ff0000; stroke-opacity: 0.7; stroke-width: 0.5"/>
    <path d="M 366.911068 540.26336 
L 366.550122 540.393758 
L 359.277565 543.123284 
" clip-path="url(#p0e152afd6b)" style="fill: none; stroke: #ff0000; stroke-opacity: 0.7; stroke-width: 0.5"/>
    <path d="M 391.123361 535.007376 
L 387.688387 526.562757 
L 386.750751 524.369085 
L 386.185612 523.042694 
" clip-path="url(#p0e152afd6b)" style="fill: none; stroke: #ff0000; stroke-opacity: 0.7; stroke-width: 0.5"/>
    <path d="M 483.163485 409.424057 
L 489.660522 408.488181 
" clip-path="url(#p0e152afd6b)" style="fill: none; stroke: #ff0000; stroke-opacity: 0.7; stroke-width: 0.5"/>
    <path d="M 448.54892 453.744385 
L 441.834078 452.578276 
L 434.160148 451.314367 
" clip-path="url(#p0e152afd6b)" style="fill: none; stroke: #ff0000; stroke-opacity: 0.7; stroke-width: 0.5"/>
    <path d="M 395.406455 359.969993 
L 401.662174 352.039494 
" clip-path="url(#p0e152afd6b)" style="fill: none; stroke: #ff0000; stroke-opacity: 0.7; stroke-width: 0.5"/>
    <path d="M 437.963081 336.164235 
L 444.515395 341.466401 
L 447.44298 343.814242 
L 447.81919 343.823071 
L 449.661461 341.529563 
" clip-path="url(#p0e152afd6b)" style="fill: none; stroke: #ff0000; stroke-opacity: 0.7; stroke-width: 0.5"/>
    <path d="M 413.896817 442.858202 
L 414.03542 442.334573 
L 417.655198 441.13926 
L 418.782177 441.009541 
L 421.068721 441.271016 
" clip-path="url(#p0e152afd6b)" style="fill: none; stroke: #ff0000; stroke-opacity: 0.7; stroke-width: 0.5"/>
    <path d="M 491.44628 399.231292 
L 495.603146 400.291453 
L 494.526081 404.104911 
L 496.305238 405.988889 
L 496.237587 407.639237 
L 496.139409 409.01996 
L 492.954005 408.547947 
L 492.993193 409.128624 
L 490.082933 408.693286 
L 491.26725 400.483654 
L 491.44628 399.231292 
" clip-path="url(#p0e152afd6b)" style="fill: none; stroke: #ff0000; stroke-opacity: 0.7; stroke-width: 0.5"/>
    <path d="M 379.562347 507.385444 
L 379.102398 506.283853 
L 378.123098 503.779128 
L 377.560022 501.35726 
L 377.413993 500.709345 
" clip-path="url(#p0e152afd6b)" style="fill: none; stroke: #ff0000; stroke-opacity: 0.7; stroke-width: 0.5"/>
    <path d="M 386.185612 523.042694 
L 386.021846 522.647426 
L 385.357704 520.927804 
" clip-path="url(#p0e152afd6b)" style="fill: none; stroke: #ff0000; stroke-opacity: 0.7; stroke-width: 0.5"/>
    <path d="M 385.357704 520.927804 
L 385.226526 520.635767 
L 384.468744 518.950103 
L 383.640011 516.933011 
L 383.526571 516.656595 
L 383.136336 515.706457 
L 382.638849 514.557326 
L 382.599248 514.46564 
L 381.632736 512.234614 
L 380.760277 510.220239 
" clip-path="url(#p0e152afd6b)" style="fill: none; stroke: #ff0000; stroke-opacity: 0.7; stroke-width: 0.5"/>
    <path d="M 376.420256 496.299589 
L 376.284127 495.562026 
L 376.263914 495.47034 
L 376.247001 495.381371 
L 375.025971 488.905623 
L 374.559009 486.430101 
L 374.613048 486.238579 
" clip-path="url(#p0e152afd6b)" style="fill: none; stroke: #ff0000; stroke-opacity: 0.7; stroke-width: 0.5"/>
    <path d="M 380.760277 510.220239 
L 380.356017 509.384877 
L 379.562347 507.385444 
" clip-path="url(#p0e152afd6b)" style="fill: none; stroke: #ff0000; stroke-opacity: 0.7; stroke-width: 0.5"/>
    <path d="M 377.413993 500.709345 
L 376.420256 496.299589 
" clip-path="url(#p0e152afd6b)" style="fill: none; stroke: #ff0000; stroke-opacity: 0.7; stroke-width: 0.5"/>
    <path d="M 394.176349 553.451202 
L 394.272464 553.657665 
L 394.474594 554.092324 
" clip-path="url(#p0e152afd6b)" style="fill: none; stroke: #ff0000; stroke-opacity: 0.7; stroke-width: 0.5"/>
   </g>
   <g id="patch_3">
    <path d="M 181.08014 640.8 
L 181.08014 86.4 
" style="fill: none; stroke: #000000; stroke-width: 0.8; stroke-linejoin: miter; stroke-linecap: square"/>
   </g>
   <g id="patch_4">
    <path d="M 556.91986 640.8 
L 556.91986 86.4 
" style="fill: none; stroke: #000000; stroke-width: 0.8; stroke-linejoin: miter; stroke-linecap: square"/>
   </g>
   <g id="patch_5">
    <path d="M 181.08014 640.8 
L 556.91986 640.8 
" style="fill: none; stroke: #000000; stroke-width: 0.8; stroke-linejoin: miter; stroke-linecap: square"/>
   </g>
   <g id="patch_6">
    <path d="M 181.08014 86.4 
L 556.91986 86.4 
" style="fill: none; stroke: #000000; stroke-width: 0.8; stroke-linejoin: miter; stroke-linecap: square"/>
   </g>
   <g id="text_13">
    <!-- Nrdliches_Pankow -->
    <g transform="translate(309.902916 366.514225) scale(0.12 -0.12)">
     <defs>
      <path id="DejaVuSans-4e" d="M 628 4666 
L 1478 4666 
L 3547 763 
L 3547 4666 
L 4159 4666 
L 4159 0 
L 3309 0 
L 1241 3903 
L 1241 0 
L 628 0 
L 628 4666 
z
" transform="scale(0.015625)"/>
      <path id="DejaVuSans-f6" d="M 1959 3097 
Q 1497 3097 1228 2736 
Q 959 2375 959 1747 
Q 959 1119 1226 758 
Q 1494 397 1959 397 
Q 2419 397 2687 759 
Q 2956 1122 2956 1747 
Q 2956 2369 2687 2733 
Q 2419 3097 1959 3097 
z
M 1959 3584 
Q 2709 3584 3137 3096 
Q 3566 2609 3566 1747 
Q 3566 888 3137 398 
Q 2709 -91 1959 -91 
Q 1206 -91 779 398 
Q 353 888 353 1747 
Q 353 2609 779 3096 
Q 1206 3584 1959 3584 
z
M 2254 4850 
L 2888 4850 
L 2888 4219 
L 2254 4219 
L 2254 4850 
z
M 1032 4850 
L 1666 4850 
L 1666 4219 
L 1032 4219 
L 1032 4850 
z
" transform="scale(0.015625)"/>
      <path id="DejaVuSans-72" d="M 2631 2963 
Q 2534 3019 2420 3045 
Q 2306 3072 2169 3072 
Q 1681 3072 1420 2755 
Q 1159 2438 1159 1844 
L 1159 0 
L 581 0 
L 581 3500 
L 1159 3500 
L 1159 2956 
Q 1341 3275 1631 3429 
Q 1922 3584 2338 3584 
Q 2397 3584 2469 3576 
Q 2541 3569 2628 3553 
L 2631 2963 
z
" transform="scale(0.015625)"/>
      <path id="DejaVuSans-64" d="M 2906 2969 
L 2906 4863 
L 3481 4863 
L 3481 0 
L 2906 0 
L 2906 525 
Q 2725 213 2448 61 
Q 2172 -91 1784 -91 
Q 1150 -91 751 415 
Q 353 922 353 1747 
Q 353 2572 751 3078 
Q 1150 3584 1784 3584 
Q 2172 3584 2448 3432 
Q 2725 3281 2906 2969 
z
M 947 1747 
Q 947 1113 1208 752 
Q 1469 391 1925 391 
Q 2381 391 2643 752 
Q 2906 1113 2906 1747 
Q 2906 2381 2643 2742 
Q 2381 3103 1925 3103 
Q 1469 3103 1208 2742 
Q 947 2381 947 1747 
z
" transform="scale(0.015625)"/>
      <path id="DejaVuSans-6c" d="M 603 4863 
L 1178 4863 
L 1178 0 
L 603 0 
L 603 4863 
z
" transform="scale(0.015625)"/>
      <path id="DejaVuSans-69" d="M 603 3500 
L 1178 3500 
L 1178 0 
L 603 0 
L 603 3500 
z
M 603 4863 
L 1178 4863 
L 1178 4134 
L 603 4134 
L 603 4863 
z
" transform="scale(0.015625)"/>
      <path id="DejaVuSans-63" d="M 3122 3366 
L 3122 2828 
Q 2878 2963 2633 3030 
Q 2388 3097 2138 3097 
Q 1578 3097 1268 2742 
Q 959 2388 959 1747 
Q 959 1106 1268 751 
Q 1578 397 2138 397 
Q 2388 397 2633 464 
Q 2878 531 3122 666 
L 3122 134 
Q 2881 22 2623 -34 
Q 2366 -91 2075 -91 
Q 1284 -91 818 406 
Q 353 903 353 1747 
Q 353 2603 823 3093 
Q 1294 3584 2113 3584 
Q 2378 3584 2631 3529 
Q 2884 3475 3122 3366 
z
" transform="scale(0.015625)"/>
      <path id="DejaVuSans-68" d="M 3513 2113 
L 3513 0 
L 2938 0 
L 2938 2094 
Q 2938 2591 2744 2837 
Q 2550 3084 2163 3084 
Q 1697 3084 1428 2787 
Q 1159 2491 1159 1978 
L 1159 0 
L 581 0 
L 581 4863 
L 1159 4863 
L 1159 2956 
Q 1366 3272 1645 3428 
Q 1925 3584 2291 3584 
Q 2894 3584 3203 3211 
Q 3513 2838 3513 2113 
z
" transform="scale(0.015625)"/>
      <path id="DejaVuSans-65" d="M 3597 1894 
L 3597 1613 
L 953 1613 
Q 991 1019 1311 708 
Q 1631 397 2203 397 
Q 2534 397 2845 478 
Q 3156 559 3463 722 
L 3463 178 
Q 3153 47 2828 -22 
Q 2503 -91 2169 -91 
Q 1331 -91 842 396 
Q 353 884 353 1716 
Q 353 2575 817 3079 
Q 1281 3584 2069 3584 
Q 2775 3584 3186 3129 
Q 3597 2675 3597 1894 
z
M 3022 2063 
Q 3016 2534 2758 2815 
Q 2500 3097 2075 3097 
Q 1594 3097 1305 2825 
Q 1016 2553 972 2059 
L 3022 2063 
z
" transform="scale(0.015625)"/>
      <path id="DejaVuSans-73" d="M 2834 3397 
L 2834 2853 
Q 2591 2978 2328 3040 
Q 2066 3103 1784 3103 
Q 1356 3103 1142 2972 
Q 928 2841 928 2578 
Q 928 2378 1081 2264 
Q 1234 2150 1697 2047 
L 1894 2003 
Q 2506 1872 2764 1633 
Q 3022 1394 3022 966 
Q 3022 478 2636 193 
Q 2250 -91 1575 -91 
Q 1294 -91 989 -36 
Q 684 19 347 128 
L 347 722 
Q 666 556 975 473 
Q 1284 391 1588 391 
Q 1994 391 2212 530 
Q 2431 669 2431 922 
Q 2431 1156 2273 1281 
Q 2116 1406 1581 1522 
L 1381 1569 
Q 847 1681 609 1914 
Q 372 2147 372 2553 
Q 372 3047 722 3315 
Q 1072 3584 1716 3584 
Q 2034 3584 2315 3537 
Q 2597 3491 2834 3397 
z
" transform="scale(0.015625)"/>
      <path id="DejaVuSans-5f" d="M 3263 -1063 
L 3263 -1509 
L -63 -1509 
L -63 -1063 
L 3263 -1063 
z
" transform="scale(0.015625)"/>
      <path id="DejaVuSans-50" d="M 1259 4147 
L 1259 2394 
L 2053 2394 
Q 2494 2394 2734 2622 
Q 2975 2850 2975 3272 
Q 2975 3691 2734 3919 
Q 2494 4147 2053 4147 
L 1259 4147 
z
M 628 4666 
L 2053 4666 
Q 2838 4666 3239 4311 
Q 3641 3956 3641 3272 
Q 3641 2581 3239 2228 
Q 2838 1875 2053 1875 
L 1259 1875 
L 1259 0 
L 628 0 
L 628 4666 
z
" transform="scale(0.015625)"/>
      <path id="DejaVuSans-61" d="M 2194 1759 
Q 1497 1759 1228 1600 
Q 959 1441 959 1056 
Q 959 750 1161 570 
Q 1363 391 1709 391 
Q 2188 391 2477 730 
Q 2766 1069 2766 1631 
L 2766 1759 
L 2194 1759 
z
M 3341 1997 
L 3341 0 
L 2766 0 
L 2766 531 
Q 2569 213 2275 61 
Q 1981 -91 1556 -91 
Q 1019 -91 701 211 
Q 384 513 384 1019 
Q 384 1609 779 1909 
Q 1175 2209 1959 2209 
L 2766 2209 
L 2766 2266 
Q 2766 2663 2505 2880 
Q 2244 3097 1772 3097 
Q 1472 3097 1187 3025 
Q 903 2953 641 2809 
L 641 3341 
Q 956 3463 1253 3523 
Q 1550 3584 1831 3584 
Q 2591 3584 2966 3190 
Q 3341 2797 3341 1997 
z
" transform="scale(0.015625)"/>
      <path id="DejaVuSans-6e" d="M 3513 2113 
L 3513 0 
L 2938 0 
L 2938 2094 
Q 2938 2591 2744 2837 
Q 2550 3084 2163 3084 
Q 1697 3084 1428 2787 
Q 1159 2491 1159 1978 
L 1159 0 
L 581 0 
L 581 3500 
L 1159 3500 
L 1159 2956 
Q 1366 3272 1645 3428 
Q 1925 3584 2291 3584 
Q 2894 3584 3203 3211 
Q 3513 2838 3513 2113 
z
" transform="scale(0.015625)"/>
      <path id="DejaVuSans-6b" d="M 581 4863 
L 1159 4863 
L 1159 1991 
L 2875 3500 
L 3609 3500 
L 1753 1863 
L 3688 0 
L 2938 0 
L 1159 1709 
L 1159 0 
L 581 0 
L 581 4863 
z
" transform="scale(0.015625)"/>
      <path id="DejaVuSans-6f" d="M 1959 3097 
Q 1497 3097 1228 2736 
Q 959 2375 959 1747 
Q 959 1119 1226 758 
Q 1494 397 1959 397 
Q 2419 397 2687 759 
Q 2956 1122 2956 1747 
Q 2956 2369 2687 2733 
Q 2419 3097 1959 3097 
z
M 1959 3584 
Q 2709 3584 3137 3096 
Q 3566 2609 3566 1747 
Q 3566 888 3137 398 
Q 2709 -91 1959 -91 
Q 1206 -91 779 398 
Q 353 888 353 1747 
Q 353 2609 779 3096 
Q 1206 3584 1959 3584 
z
" transform="scale(0.015625)"/>
      <path id="DejaVuSans-77" d="M 269 3500 
L 844 3500 
L 1563 769 
L 2278 3500 
L 2956 3500 
L 3675 769 
L 4391 3500 
L 4966 3500 
L 4050 0 
L 3372 0 
L 2619 2869 
L 1863 0 
L 1184 0 
L 269 3500 
z
" transform="scale(0.015625)"/>
     </defs>
     <use xlink:href="#DejaVuSans-4e"/>
     <use xlink:href="#DejaVuSans-f6" x="74.804688"/>
     <use xlink:href="#DejaVuSans-72" x="135.986328"/>
     <use xlink:href="#DejaVuSans-64" x="175.349609"/>
     <use xlink:href="#DejaVuSans-6c" x="238.826172"/>
     <use xlink:href="#DejaVuSans-69" x="266.609375"/>
     <use xlink:href="#DejaVuSans-63" x="294.392578"/>
     <use xlink:href="#DejaVuSans-68" x="349.373047"/>
     <use xlink:href="#DejaVuSans-65" x="412.751953"/>
     <use xlink:href="#DejaVuSans-73" x="474.275391"/>
     <use xlink:href="#DejaVuSans-5f" x="526.375"/>
     <use xlink:href="#DejaVuSans-50" x="576.375"/>
     <use xlink:href="#DejaVuSans-61" x="632.177734"/>
     <use xlink:href="#DejaVuSans-6e" x="693.457031"/>
     <use xlink:href="#DejaVuSans-6b" x="756.835938"/>
     <use xlink:href="#DejaVuSans-6f" x="811.121094"/>
     <use xlink:href="#DejaVuSans-77" x="872.302734"/>
    </g>
   </g>
  </g>
 </g>
 <defs>
  <clipPath id="p0e152afd6b">
   <rect x="181.08014" y="86.4" width="375.83972" height="554.4"/>
  </clipPath>
 </defs>
</svg>
