<?xml version="1.0" encoding="utf-8" standalone="no"?>
<!DOCTYPE svg PUBLIC "-//W3C//DTD SVG 1.1//EN"
  "http://www.w3.org/Graphics/SVG/1.1/DTD/svg11.dtd">
<svg xmlns:xlink="http://www.w3.org/1999/xlink" width="720pt" height="720pt" viewBox="0 0 720 720" xmlns="http://www.w3.org/2000/svg" version="1.1">
 <metadata>
  <rdf:RDF xmlns:dc="http://purl.org/dc/elements/1.1/" xmlns:cc="http://creativecommons.org/ns#" xmlns:rdf="http://www.w3.org/1999/02/22-rdf-syntax-ns#">
   <cc:Work>
    <dc:type rdf:resource="http://purl.org/dc/dcmitype/StillImage"/>
    <dc:date>2024-10-17T11:38:36.552828</dc:date>
    <dc:format>image/svg+xml</dc:format>
    <dc:creator>
     <cc:Agent>
      <dc:title>Matplotlib v3.9.2, https://matplotlib.org/</dc:title>
     </cc:Agent>
    </dc:creator>
   </cc:Work>
  </rdf:RDF>
 </metadata>
 <defs>
  <style type="text/css">*{stroke-linejoin: round; stroke-linecap: butt}</style>
 </defs>
 <g id="figure_1">
  <g id="patch_1">
   <path d="M 0 720 
L 720 720 
L 720 0 
L 0 0 
z
" style="fill: #ffffff"/>
  </g>
  <g id="axes_1">
   <g id="patch_2">
    <path d="M 179.066039 640.8 
L 558.933961 640.8 
L 558.933961 86.4 
L 179.066039 86.4 
z
" style="fill: #ffffff"/>
   </g>
   <g id="PatchCollection_1">
    <path d="M 224.492814 428.824951 
L 224.746601 428.86814 
L 224.377133 429.461555 
L 224.50187 430.185944 
L 224.551222 430.218828 
L 225.525063 430.873852 
L 225.895721 430.948188 
L 224.8172 432.511242 
L 224.927857 432.600679 
L 221.51897 437.512474 
L 222.630786 438.359977 
L 223.792972 439.245395 
L 222.458199 441.247904 
L 222.363985 441.389267 
L 222.314978 441.462777 
L 222.929161 441.930331 
L 222.055057 443.207108 
L 222.061712 444.238455 
L 222.171516 444.315847 
L 222.818387 444.771675 
L 223.426289 445.200098 
L 224.023633 445.621016 
L 224.037585 445.764154 
L 224.038428 445.77292 
L 224.323963 448.703183 
L 224.377682 449.254799 
L 224.412651 449.613755 
L 225.990161 451.172333 
L 225.928807 452.366304 
L 225.754035 454.423785 
L 225.680304 454.372813 
L 223.970875 456.13383 
L 221.824656 458.498199 
L 220.327332 460.820589 
L 220.020221 461.296931 
L 218.583229 461.367785 
L 218.622978 462.257723 
L 216.935315 463.939569 
L 216.786994 464.087424 
L 215.971293 464.900367 
L 212.785023 468.119547 
L 211.383132 469.379024 
L 211.516299 469.50612 
L 209.760028 471.426823 
L 209.62242 471.577005 
L 209.586087 471.616674 
L 208.027695 473.317053 
L 208.013044 473.33304 
L 208.021928 473.689812 
L 208.028053 474.020158 
L 208.030842 474.260105 
L 208.031824 474.350489 
L 208.034352 474.680782 
L 208.034593 475.011124 
L 208.030192 475.208879 
L 208.025355 475.42572 
L 208.020305 475.653842 
L 208.014987 475.893704 
L 208.009406 476.145504 
L 208.00358 476.410159 
L 207.99739 476.68813 
L 207.994384 476.823704 
L 207.992996 476.886212 
L 207.967615 477.397334 
L 207.951333 477.725349 
L 207.928497 478.185018 
L 207.857991 479.065497 
L 207.69644 480.756493 
L 207.480245 482.558324 
L 207.452503 482.789536 
L 207.257215 484.236082 
L 207.01271 485.993196 
L 206.913483 486.706284 
L 206.876651 486.924611 
L 206.866515 486.984621 
L 206.982027 487.624698 
L 206.631356 489.966626 
L 206.456207 491.136077 
L 206.282345 492.301566 
L 206.041086 493.912226 
L 205.888082 494.945423 
L 205.413696 498.149521 
L 205.675147 498.203797 
L 205.185408 501.621623 
L 204.939245 503.343054 
L 204.76944 504.346031 
L 204.580128 505.464235 
L 204.516342 505.877728 
L 204.417293 506.519806 
L 204.353471 506.933824 
L 204.266439 507.498019 
L 204.41786 507.575414 
L 203.969747 509.275951 
L 203.604432 510.057717 
L 203.588704 510.067829 
L 203.565882 510.082357 
L 203.408821 510.413383 
L 203.28413 510.353893 
L 203.158961 510.410844 
L 203.096773 510.596028 
L 202.981306 511.397641 
L 202.872701 512.039732 
L 202.754125 512.881732 
L 202.675988 513.397875 
L 202.424052 515.099243 
L 202.391411 515.383889 
L 202.325441 515.798151 
L 202.27281 516.137386 
L 202.246023 516.303375 
L 202.270246 516.314252 
L 202.613682 516.49372 
L 202.507354 517.189388 
L 202.474565 517.404022 
L 202.448185 517.576689 
L 202.383877 517.998192 
L 202.343296 518.263344 
L 202.262501 518.792395 
L 202.229198 519.010448 
L 202.149544 519.53187 
L 202.118462 519.734797 
L 202.051288 520.174784 
L 201.83372 521.598483 
L 201.706771 521.687598 
L 201.33938 521.945601 
L 201.310617 522.143953 
L 201.129609 523.391092 
L 200.792905 525.711545 
L 200.567566 527.264499 
L 200.545855 527.414316 
L 200.407107 528.35916 
L 200.353425 528.722084 
L 200.353405 528.722217 
L 200.273292 529.260299 
L 199.952486 531.415527 
L 199.561109 534.054286 
L 199.468739 534.677075 
L 199.35599 535.437591 
L 199.709548 535.49424 
L 199.362468 538.036969 
L 198.985737 537.861183 
L 198.51461 540.88153 
L 198.458747 541.24011 
L 197.957969 544.450439 
L 197.837779 545.235113 
L 197.717772 546.019192 
L 197.589343 546.857739 
L 197.473629 547.613732 
L 197.418116 547.976303 
L 197.338966 548.493192 
L 197.138045 549.902239 
L 197.036078 550.617154 
L 196.966733 551.100984 
L 196.872696 551.753707 
L 196.760425 552.532702 
L 196.642535 553.350761 
L 196.522656 554.182565 
L 196.332763 555.500377 
L 196.602153 557.470677 
L 196.836753 559.172424 
L 197.152952 561.465691 
L 197.227432 562.006164 
L 197.388555 563.174759 
L 197.632143 564.941672 
L 197.92247 567.00415 
L 197.959725 567.269109 
L 198.194334 568.935849 
L 198.42056 570.81846 
L 198.577691 572.125537 
L 198.712264 573.24561 
L 199.184459 576.575683 
L 199.360204 577.789391 
L 200.18617 578.17111 
L 199.857159 578.216523 
L 199.962393 578.963883 
L 200.075327 579.767979 
L 200.090413 579.875886 
L 200.156919 580.350517 
L 200.300429 581.238647 
L 200.469119 582.272225 
L 200.499217 582.463587 
L 200.631967 583.3077 
L 200.661402 583.303058 
L 200.824767 584.305153 
L 201.038101 585.631457 
L 201.101499 586.02329 
L 201.168206 586.435113 
L 201.179594 586.505142 
L 201.243945 586.901741 
L 201.16838 586.909555 
L 201.409025 588.214742 
L 201.667882 589.618525 
L 201.837583 590.635889 
L 202.122629 592.568943 
L 202.155944 592.574508 
L 202.166889 592.642188 
L 202.660531 595.687078 
L 202.274683 595.756283 
L 202.502781 597.236524 
L 202.8084 599.142513 
L 203.228685 601.650314 
L 203.534071 603.473705 
L 203.603437 603.887961 
L 203.667099 604.268185 
L 203.781809 604.953256 
L 203.929517 605.885285 
L 204.208073 607.643967 
L 204.267509 608.019236 
L 204.284082 608.123505 
L 204.42083 608.9872 
L 204.61738 610.228057 
L 204.752833 611.083324 
L 205.138604 611.020483 
L 205.527883 613.410828 
L 205.835186 615.305638 
L 205.882997 615.6 
L 206.291597 615.532531 
L 206.973836 615.420014 
L 214.554726 610.951677 
L 215.921421 610.146177 
L 217.988959 608.927526 
L 218.558119 608.564837 
L 218.728913 608.456023 
L 219.568482 607.965043 
L 221.070124 607.08687 
L 221.80827 606.655208 
L 222.534849 606.31646 
L 223.743913 605.752773 
L 223.842796 605.624025 
L 223.967435 605.568273 
L 225.090034 605.066356 
L 227.025425 604.202757 
L 227.316975 604.072896 
L 227.628778 603.93381 
L 233.53264 600.333141 
L 234.10182 599.785475 
L 238.005357 596.02964 
L 238.296421 595.749605 
L 239.509871 594.592672 
L 239.978131 594.269584 
L 240.047857 594.221391 
L 240.547343 593.876712 
L 245.807659 590.246731 
L 246.861977 589.495614 
L 246.88772 589.477289 
L 247.685719 588.908813 
L 250.00881 587.253779 
L 250.145631 587.15634 
L 250.773419 586.709047 
L 251.915424 585.838367 
L 252.950783 585.049068 
L 253.327255 584.762081 
L 254.216878 584.083857 
L 255.257069 583.290855 
L 257.593189 581.572658 
L 258.983154 580.529127 
L 260.640703 579.284636 
L 261.547485 578.603766 
L 261.649864 578.527008 
L 262.316336 578.026584 
L 264.06137 576.716493 
L 267.715671 574.338104 
L 269.806158 572.960581 
L 270.406706 572.565905 
L 270.623405 572.453831 
L 273.142433 571.150841 
L 274.811006 570.286883 
L 278.055543 568.350292 
L 279.134276 567.706796 
L 281.756887 566.014121 
L 281.949415 565.889859 
L 282.184806 565.737924 
L 283.26405 565.041328 
L 285.721505 563.485862 
L 288.288203 561.861318 
L 287.785501 561.17712 
L 287.084079 560.152114 
L 286.673602 559.502443 
L 286.320805 558.943112 
L 285.511095 557.452427 
L 285.664418 556.652288 
L 285.836006 555.779643 
L 286.564242 555.951942 
L 287.162877 556.093277 
L 288.617705 556.43759 
L 289.99929 556.764413 
L 290.697716 556.927269 
L 291.756553 557.154465 
L 292.79949 557.405149 
L 293.418161 557.844354 
L 293.553596 557.732935 
L 294.732195 556.763546 
L 295.096313 556.464027 
L 295.538457 556.100283 
L 295.650631 556.007263 
L 296.49928 555.302967 
L 296.569011 555.245083 
L 297.333865 554.610055 
L 297.948089 554.100147 
L 298.050502 554.015075 
L 298.856525 553.346121 
L 298.916753 553.296114 
L 299.759057 552.596945 
L 300.534864 552.079169 
L 300.715528 551.958649 
L 301.585859 551.377804 
L 301.75106 551.267582 
L 302.310129 550.894512 
L 302.542466 550.739379 
L 302.68486 550.6444 
L 303.303142 550.231769 
L 303.656097 549.996223 
L 304.05918 549.727211 
L 304.652467 549.331315 
L 304.937705 549.140889 
L 305.559089 548.726361 
L 305.652642 548.663837 
L 306.15605 548.327897 
L 306.28498 548.241928 
L 306.632011 548.010315 
L 306.978721 547.778905 
L 307.490443 547.437413 
L 307.596821 547.366418 
L 308.391727 546.835991 
L 308.549265 546.730855 
L 309.339018 546.203819 
L 309.850488 545.862532 
L 310.463055 545.453775 
L 311.055778 545.058296 
L 311.932653 544.473078 
L 312.402442 544.159702 
L 312.985826 543.770393 
L 313.05921 543.71864 
L 313.95144 543.043699 
L 314.890867 542.332977 
L 315.189926 542.106797 
L 315.749264 541.683658 
L 316.556405 541.073073 
L 316.965381 540.763765 
L 317.075742 540.680166 
L 317.309783 540.503177 
L 318.303636 539.751371 
L 318.441012 539.64746 
L 318.977654 539.241466 
L 319.089062 539.203802 
L 320.118573 538.848386 
L 320.902996 538.578088 
L 321.188 538.479923 
L 321.789279 538.27276 
L 322.877589 537.8978 
L 323.166608 537.877499 
L 323.455499 537.857266 
L 324.905558 537.767722 
L 325.10573 537.755099 
L 325.712088 537.724645 
L 326.223176 537.707184 
L 326.387095 537.701568 
L 327.088357 537.677668 
L 327.525583 537.662713 
L 327.558825 537.661606 
L 329.023846 537.611619 
L 329.556486 537.593439 
L 330.313324 537.567633 
L 331.021573 537.54346 
L 331.670656 537.650166 
L 331.875867 537.683854 
L 332.815028 537.838296 
L 333.78337 537.997426 
L 334.03134 538.038131 
L 334.209007 538.067364 
L 334.724166 538.152035 
L 334.766139 538.158937 
L 335.224437 538.234273 
L 335.410104 538.264777 
L 335.705388 538.320728 
L 336.595502 538.489213 
L 336.703049 538.509525 
L 337.560486 538.671895 
L 337.77394 538.712229 
L 337.806159 538.718356 
L 338.031099 538.760935 
L 338.789055 538.904396 
L 339.10494 538.96417 
L 339.733496 539.083133 
L 340.290529 539.188616 
L 340.725905 539.271006 
L 341.369552 539.392861 
L 341.71293 539.457819 
L 342.660586 539.637282 
L 343.452658 539.787169 
L 343.920449 539.875754 
L 344.336925 539.95462 
L 345.049336 540.089434 
L 345.290017 540.144006 
L 345.767768 540.25231 
L 346.484557 540.414829 
L 346.808967 540.488392 
L 347.822976 540.718242 
L 348.867128 540.954989 
L 349.044763 540.995179 
L 349.899258 541.188916 
L 350.718554 541.374689 
L 350.838663 541.401883 
L 351.783977 541.616235 
L 352.310516 541.735634 
L 352.673077 541.817828 
L 353.648858 542.039008 
L 354.581385 542.242234 
L 355.511151 542.444801 
L 356.42227 542.643311 
L 357.339495 542.843201 
L 358.220017 543.035093 
L 358.742447 543.148952 
L 358.892681 543.182259 
L 359.233438 543.207235 
L 359.506515 543.227232 
L 359.634676 543.236689 
L 359.742742 543.258156 
L 360.281586 543.365199 
L 360.416518 543.391884 
L 360.574485 543.423125 
L 360.876703 543.482885 
L 371.145826 545.514499 
L 371.95534 545.674639 
L 372.220147 545.727078 
L 373.688493 546.017603 
L 373.704376 546.020804 
L 374.329803 546.144491 
L 374.916379 546.26055 
L 375.529928 546.382 
L 376.106331 546.496049 
L 376.590571 546.590821 
L 379.158499 547.090218 
L 379.194263 547.097192 
L 379.515023 547.159525 
L 381.10032 547.46785 
L 381.503041 547.546141 
L 381.550289 547.555362 
L 383.523931 547.939149 
L 384.287704 548.087773 
L 385.40209 548.304461 
L 386.153849 548.450592 
L 386.373156 548.493259 
L 386.400587 548.498641 
L 386.62593 548.542425 
L 386.812494 548.578775 
L 387.133255 548.641312 
L 389.381132 549.079288 
L 389.419981 549.086919 
L 389.804736 549.162586 
L 389.864584 549.174294 
L 390.559473 549.303455 
L 391.186281 549.419963 
L 391.356869 549.451869 
L 391.680265 549.512387 
L 392.486242 549.660724 
L 392.692509 549.69869 
L 394.870376 550.099382 
L 394.941 550.110796 
L 396.826776 550.438842 
L 399.346611 550.885731 
L 399.843127 550.974509 
L 400.479124 551.089106 
L 404.722157 551.853668 
L 405.294255 551.956716 
L 407.952634 552.435807 
L 409.601121 552.827176 
L 411.318045 553.179144 
L 412.184438 553.221291 
L 412.434856 553.233422 
L 412.747243 553.277413 
L 414.201357 553.482085 
L 414.371708 553.506011 
L 414.674722 553.548694 
L 414.799783 553.566367 
L 415.208257 553.623796 
L 415.503131 553.652296 
L 415.656347 553.675667 
L 416.586075 553.817771 
L 417.931189 554.004249 
L 420.567207 554.369651 
L 422.921546 554.8121 
L 424.636122 555.134427 
L 426.645214 555.512027 
L 427.169302 555.610557 
L 427.793181 555.727825 
L 428.341543 555.830892 
L 428.449667 555.851223 
L 431.276766 556.382731 
L 433.889641 556.873882 
L 434.283885 556.948026 
L 434.835195 557.051631 
L 435.987349 557.268222 
L 436.252539 557.318084 
L 436.335863 557.333763 
L 437.311916 557.529428 
L 438.462401 557.760093 
L 439.060088 557.878395 
L 439.562175 557.978327 
L 440.135727 558.092552 
L 440.707525 558.204192 
L 441.969473 558.45579 
L 442.331592 558.52518 
L 443.191912 558.690067 
L 443.249804 558.702154 
L 443.421578 558.738127 
L 444.421944 558.93435 
L 445.753686 559.198717 
L 446.02302 559.240633 
L 446.426296 559.303259 
L 446.440365 559.232422 
L 446.47011 559.083241 
L 446.479811 559.03472 
L 446.503875 558.913848 
L 446.581619 558.519779 
L 446.60348 558.409115 
L 447.171304 555.542554 
L 447.213332 555.330834 
L 447.598682 553.38639 
L 447.69195 552.915947 
L 447.748791 552.862237 
L 447.801561 552.804482 
L 447.849806 552.74289 
L 447.89334 552.677856 
L 447.931972 552.609714 
L 447.965387 552.538928 
L 447.993459 552.465829 
L 448.066115 552.206196 
L 448.197586 551.634579 
L 448.231283 551.471219 
L 448.258813 551.306678 
L 448.28005 551.141221 
L 448.294998 550.975045 
L 448.303664 550.808476 
L 448.305986 550.641648 
L 448.301405 550.282553 
L 448.289567 549.907745 
L 448.31467 549.733422 
L 448.303553 549.386789 
L 448.300576 549.191621 
L 448.302303 548.996418 
L 448.308671 548.801249 
L 448.31962 548.606377 
L 448.353798 548.032287 
L 448.556795 547.636758 
L 448.493152 547.609123 
L 447.801058 547.308773 
L 447.761817 547.291768 
L 447.197233 547.182127 
L 446.058286 546.960955 
L 446.152243 546.847787 
L 446.310167 546.657535 
L 446.470002 546.464981 
L 446.553695 546.364093 
L 446.621133 546.282756 
L 446.693293 546.195944 
L 446.781129 546.090051 
L 447.189729 545.573166 
L 457.647357 532.18503 
L 463.208762 525.076462 
L 463.431938 524.79118 
L 463.547282 524.64374 
L 463.767722 524.361991 
L 458.464531 520.167463 
L 455.627333 517.923487 
L 455.16854 517.568384 
L 448.407712 512.227103 
L 447.134723 511.185738 
L 443.111414 507.894421 
L 441.712694 506.771619 
L 441.677128 506.743065 
L 441.795368 506.534457 
L 441.876797 506.244153 
L 441.952565 505.983076 
L 442.040097 505.725095 
L 442.083066 505.561211 
L 442.124541 505.403981 
L 442.188904 505.10086 
L 442.248933 504.796782 
L 442.304698 504.491941 
L 442.356068 504.186341 
L 442.403395 503.881154 
L 442.446393 503.575272 
L 442.485066 503.268825 
L 442.519414 502.96188 
L 442.555726 502.951149 
L 442.564357 502.80792 
L 442.539185 502.795077 
L 442.685231 501.36585 
L 442.68852 501.332543 
L 442.674594 501.160944 
L 442.537854 499.474534 
L 442.288287 499.545422 
L 442.022519 499.702674 
L 441.605238 499.949575 
L 441.543906 499.985877 
L 441.469621 500.012291 
L 441.351671 500.054115 
L 440.618485 500.314641 
L 440.071915 500.432183 
L 439.849121 500.480022 
L 439.134788 500.477005 
L 437.69759 500.064369 
L 436.99486 499.826349 
L 436.061277 499.681971 
L 434.825754 499.573342 
L 434.547059 499.579884 
L 431.385705 499.654147 
L 429.789065 499.489906 
L 429.380352 499.390047 
L 429.376477 499.389145 
L 428.912078 499.283187 
L 427.762148 499.020879 
L 427.772288 498.928031 
L 428.275869 494.301651 
L 429.517036 494.422722 
L 429.660037 493.065798 
L 428.475364 492.93973 
L 428.47669 492.928164 
L 428.630679 491.574875 
L 428.659987 491.317924 
L 428.683987 491.106976 
L 428.559737 491.113471 
L 428.496144 491.116847 
L 428.624148 490.131953 
L 429.030016 487.00708 
L 429.230973 485.761035 
L 429.59672 484.530781 
L 430.495924 482.047194 
L 430.515052 481.199848 
L 429.027902 481.114785 
L 429.214137 480.147803 
L 429.265147 479.825491 
L 429.350003 479.104397 
L 429.777864 479.181038 
L 429.778841 479.127981 
L 429.819812 476.959117 
L 429.917155 471.808146 
L 429.918154 471.753056 
L 429.921878 471.55696 
L 429.923419 471.462327 
L 429.924113 471.420683 
L 429.931087 471.006014 
L 429.932668 470.910135 
L 429.934856 470.777858 
L 429.939905 470.548365 
L 430.015232 467.090236 
L 430.023556 466.708645 
L 430.114055 462.557052 
L 430.408504 462.374741 
L 430.512716 462.331827 
L 430.613626 462.290426 
L 430.714015 462.249101 
L 430.810825 462.211719 
L 431.032441 462.23103 
L 431.299701 462.254293 
L 432.161603 462.329371 
L 432.442105 462.500647 
L 432.436731 462.282191 
L 432.4284 461.941597 
L 431.99708 461.800911 
L 431.987941 461.739283 
L 431.936285 461.390099 
L 431.57789 461.478439 
L 431.357919 461.528059 
L 431.265617 460.936908 
L 431.062542 460.960014 
L 430.324984 455.948562 
L 430.529723 455.920503 
L 430.188196 453.60763 
L 429.903054 451.573563 
L 428.984635 448.639792 
L 428.995118 448.376553 
L 428.930352 447.366561 
L 428.783013 445.068662 
L 429.09537 443.230768 
L 429.141269 441.697712 
L 428.924754 440.046299 
L 428.893496 438.876425 
L 428.914988 437.979927 
L 428.964514 437.238405 
L 428.998577 437.036357 
L 429.135874 436.22198 
L 429.260845 435.085517 
L 429.370446 434.17575 
L 429.515026 433.291007 
L 429.623943 432.709436 
L 429.636053 432.644868 
L 429.660405 432.509567 
L 429.740141 432.066809 
L 430.00973 430.569672 
L 430.174846 429.489199 
L 430.200029 429.343587 
L 430.540842 427.919223 
L 430.873602 426.677672 
L 431.370949 424.541583 
L 431.409027 424.378064 
L 431.443223 424.182242 
L 432.146465 420.861306 
L 432.176321 420.648727 
L 432.191844 420.538065 
L 432.213956 420.380062 
L 432.269402 419.985151 
L 437.298732 421.576752 
L 437.45856 421.077565 
L 437.507216 420.925689 
L 437.516359 420.897175 
L 438.90269 416.567652 
L 442.996215 416.267432 
L 445.950397 416.023539 
L 446.030398 415.791744 
L 446.455523 414.262301 
L 446.86958 412.928192 
L 447.012395 412.443004 
L 447.945439 409.290595 
L 448.408485 407.726004 
L 449.336901 404.638468 
L 450.736002 404.782651 
L 451.047705 403.729586 
L 451.424067 402.529556 
L 452.045817 400.375017 
L 452.445486 399.048168 
L 452.962664 397.200742 
L 453.206398 396.30127 
L 453.695954 394.489435 
L 453.668189 393.753873 
L 453.921173 393.021117 
L 454.020005 392.879333 
L 454.409746 392.320113 
L 454.515939 392.167619 
L 454.623049 391.905952 
L 454.767007 391.546156 
L 455.025775 390.880214 
L 455.253333 390.328672 
L 456.313938 388.19342 
L 456.749538 387.316399 
L 457.730813 385.7634 
L 458.497359 384.550251 
L 460.918661 381.298783 
L 464.845376 377.155042 
L 465.3518 376.620655 
L 466.976452 374.906264 
L 467.383791 374.407923 
L 469.847814 372.466911 
L 470.864322 371.825121 
L 480.87015 365.307424 
L 482.369432 364.303305 
L 483.170584 363.78001 
L 486.342336 361.73723 
L 486.474512 361.650547 
L 487.33053 361.089138 
L 491.477146 358.401681 
L 494.129177 356.693258 
L 495.455259 355.833842 
L 495.884577 355.555613 
L 499.117648 353.460282 
L 506.992897 348.321491 
L 512.648724 344.674599 
L 512.651832 344.672595 
L 513.161372 344.341777 
L 513.653733 344.018202 
L 520.147277 339.806521 
L 523.860772 337.376067 
L 525.521599 336.265601 
L 526.808479 335.481869 
L 540.86823 326.2344 
L 540.923587 326.19798 
L 541.173406 326.03368 
L 541.273669 325.967743 
L 541.667237 325.708873 
L 541.644248 325.650283 
L 541.298914 324.775647 
L 541.226808 324.593519 
L 541.203764 324.535455 
L 541.178996 324.457235 
L 528.901508 296.163214 
L 528.584606 295.433012 
L 520.153953 276.007514 
L 514.489572 262.957396 
L 514.360421 262.659838 
L 514.194517 262.277625 
L 514.027531 262.293631 
L 509.963156 262.68396 
L 508.104322 262.862478 
L 504.585045 263.200519 
L 503.954642 263.261024 
L 504.515342 259.896833 
L 506.006457 251.085052 
L 506.267432 249.719088 
L 506.497462 248.516353 
L 506.728009 247.322654 
L 506.956041 246.121141 
L 507.187283 244.92297 
L 507.417872 243.724747 
L 507.649167 242.522642 
L 507.912144 241.26802 
L 508.174288 240.017283 
L 508.438106 238.762053 
L 508.700044 237.510666 
L 508.963226 236.25604 
L 509.225177 234.998818 
L 509.486406 233.75079 
L 509.752248 232.47913 
L 510.972846 226.902055 
L 511.633128 223.884763 
L 512.022887 222.103106 
L 512.026824 222.084799 
L 512.133187 221.599684 
L 512.137043 221.580657 
L 512.821241 219.502306 
L 513.582267 217.254788 
L 514.110438 215.695042 
L 514.774607 213.734657 
L 515.032979 213.052715 
L 515.113026 212.843557 
L 515.712842 211.261537 
L 515.985864 210.541398 
L 516.304482 209.701388 
L 516.494151 209.201229 
L 516.99921 207.869257 
L 517.398892 206.815152 
L 517.877238 205.554278 
L 518.261254 204.542523 
L 519.108091 202.309292 
L 519.156921 202.178143 
L 519.744582 200.601236 
L 519.909941 200.158621 
L 519.935276 200.080604 
L 520.363254 198.752998 
L 520.369729 198.733983 
L 520.679941 197.77156 
L 520.74952 197.552591 
L 520.933615 196.972374 
L 521.559219 195.003566 
L 521.630943 194.777062 
L 521.632714 194.771469 
L 522.023234 193.3469 
L 522.31369 192.289506 
L 522.550997 191.397964 
L 522.608535 191.213402 
L 522.957889 190.115643 
L 523.303165 189.013577 
L 523.643844 187.894759 
L 523.99517 186.768705 
L 524.078229 186.50232 
L 524.36035 185.698546 
L 524.725558 184.657952 
L 525.078595 183.6519 
L 525.425833 182.662619 
L 525.590772 182.192679 
L 526.025423 180.954231 
L 526.459394 179.717569 
L 526.929883 178.37709 
L 527.153205 177.740796 
L 527.354331 177.210905 
L 527.523382 176.765464 
L 527.860992 175.875968 
L 528.291664 174.741384 
L 528.74833 173.538211 
L 531.057986 167.483065 
L 531.186232 167.164476 
L 533.023994 162.575912 
L 533.226652 162.100078 
L 533.337819 161.639127 
L 533.354388 161.5767 
L 533.371623 161.511702 
L 533.393415 161.429761 
L 533.754406 160.928213 
L 534.309759 160.156591 
L 535.14126 159.471532 
L 539.182062 157.065815 
L 539.532726 156.78535 
L 539.668085 156.67699 
L 536.177142 155.086044 
L 534.396134 154.560864 
L 534.031741 154.45339 
L 533.705 154.359884 
L 533.006689 154.062095 
L 532.022463 153.642355 
L 531.174692 153.280943 
L 527.023866 151.511092 
L 524.646014 150.497274 
L 524.169371 150.29401 
L 521.175482 149.108442 
L 516.525172 147.266861 
L 513.391026 146.025814 
L 511.965397 145.461286 
L 510.9397 145.142385 
L 509.401415 144.664198 
L 505.741552 143.261392 
L 503.887663 142.550738 
L 502.847553 142.159592 
L 501.823139 141.774415 
L 500.813362 141.394705 
L 499.77707 141.004997 
L 498.46163 140.539905 
L 498.312181 140.496157 
L 491.812575 138.285912 
L 490.928621 137.985283 
L 490.742007 137.904096 
L 490.614494 137.848617 
L 490.123593 137.635082 
L 488.33703 136.830147 
L 486.588857 136.046577 
L 485.306358 135.471827 
L 484.117272 134.679637 
L 483.632845 134.463223 
L 483.166185 134.254698 
L 482.689624 134.041833 
L 482.162982 133.806598 
L 482.087052 133.774165 
L 481.06816 133.618259 
L 473.976562 130.366692 
L 468.924549 127.955035 
L 464.213618 125.207387 
L 459.243502 122.014816 
L 458.13981 121.199883 
L 452.110112 116.747611 
L 446.338133 112.746627 
L 445.533851 112.18805 
L 445.201736 111.957339 
L 445.30091 111.619202 
L 445.250837 111.6 
L 444.841351 111.854405 
L 444.100556 112.277853 
L 442.550284 112.973323 
L 442.329539 113.072314 
L 442.061912 113.166919 
L 441.74784 113.277975 
L 440.430422 113.618796 
L 440.166601 113.660942 
L 439.705479 113.749862 
L 439.498593 113.776516 
L 439.291083 113.798397 
L 439.083212 113.815566 
L 438.874916 113.828024 
L 438.666453 113.8357 
L 437.2988 113.847513 
L 435.566928 113.829259 
L 435.476704 113.830114 
L 434.293248 113.645117 
L 434.047894 113.606963 
L 432.84069 113.55916 
L 432.815102 113.562257 
L 432.268614 113.627817 
L 432.202413 113.731615 
L 429.536262 113.505838 
L 429.416299 113.505357 
L 428.554576 113.502126 
L 427.416962 113.642137 
L 426.695829 113.782986 
L 426.361169 113.84834 
L 425.312402 114.151947 
L 424.320414 114.485365 
L 422.080709 115.456824 
L 421.999461 115.411603 
L 421.883781 115.347247 
L 421.511132 115.532003 
L 420.280074 116.149831 
L 420.296911 116.206575 
L 414.066607 118.96572 
L 407.777401 121.772127 
L 403.370874 123.691787 
L 402.594572 124.193116 
L 402.136393 124.413929 
L 401.701107 124.544379 
L 400.439838 125.224812 
L 399.195631 126.015613 
L 394.047407 129.444084 
L 393.827681 129.590027 
L 389.77482 132.253851 
L 388.631847 133.005176 
L 387.777343 133.624633 
L 387.225193 134.146867 
L 387.030121 134.316481 
L 386.301616 135.063854 
L 385.714611 135.719717 
L 385.670898 135.775256 
L 385.348982 136.184296 
L 384.850273 136.816387 
L 383.978016 137.921947 
L 382.554433 139.711006 
L 382.068233 140.296748 
L 381.936238 140.570899 
L 381.144915 141.545465 
L 380.900934 141.846059 
L 379.988351 143.045121 
L 379.096044 144.16325 
L 378.859287 144.461856 
L 378.904556 144.516813 
L 375.496793 148.83389 
L 372.095005 153.135274 
L 368.748123 157.374295 
L 368.698788 157.435922 
L 368.472254 157.718912 
L 368.270325 157.974302 
L 365.885829 160.990512 
L 364.822443 162.160516 
L 363.722412 163.30836 
L 362.508585 164.467617 
L 361.162548 165.572142 
L 357.272319 168.557689 
L 353.244328 171.655053 
L 349.948384 174.320479 
L 349.891784 174.366252 
L 345.23132 177.902841 
L 342.768003 179.948368 
L 342.221998 180.370611 
L 341.768594 180.721245 
L 338.401414 183.237321 
L 336.912407 184.367432 
L 335.978266 185.076388 
L 334.997901 185.878706 
L 334.046366 186.698046 
L 333.114571 187.550071 
L 330.759017 189.895342 
L 329.885392 190.765207 
L 328.427076 192.21731 
L 328.142578 192.500655 
L 326.080642 194.554488 
L 324.859778 195.770619 
L 324.695916 195.940127 
L 323.766125 196.901882 
L 321.96257 198.767554 
L 320.709367 200.063851 
L 319.384294 201.434532 
L 318.996221 201.820609 
L 318.69149 202.123802 
L 318.028861 202.783056 
L 317.644699 203.165249 
L 316.44917 204.354711 
L 315.811405 204.989245 
L 315.624907 205.185861 
L 313.77248 207.138773 
L 313.604939 207.080881 
L 312.631089 208.004543 
L 310.763874 209.775475 
L 310.335112 210.182171 
L 309.874498 210.619709 
L 309.842044 210.714155 
L 309.088015 211.475238 
L 309.042998 211.52072 
L 309.029393 211.533075 
L 308.910555 211.641441 
L 308.792427 211.749333 
L 308.253231 212.406018 
L 308.225243 212.440186 
L 307.966828 212.754943 
L 307.954085 212.770464 
L 307.413555 213.428818 
L 307.1348 213.831964 
L 306.414595 214.873437 
L 306.326567 215.021262 
L 305.743386 216 
L 305.686174 216.096028 
L 305.595491 216.248172 
L 305.409772 216.559896 
L 304.501963 218.340444 
L 304.456061 218.451372 
L 304.214875 219.035045 
L 303.765465 220.122552 
L 303.261802 221.681932 
L 303.225421 221.809766 
L 302.488325 224.39943 
L 302.120145 225.692878 
L 300.982355 229.681521 
L 301.069447 229.743565 
L 300.623924 231.288783 
L 300.509941 231.684125 
L 300.207334 232.733993 
L 299.996784 233.464252 
L 299.867762 233.911709 
L 299.798778 234.151038 
L 299.498424 235.192926 
L 299.500125 235.525398 
L 299.501017 235.704286 
L 299.281459 236.017398 
L 298.927491 237.258623 
L 298.536221 238.19325 
L 298.329425 238.687225 
L 297.755631 239.649125 
L 296.967437 240.420152 
L 296.851068 240.496543 
L 296.092063 240.993633 
L 296.103623 243.123946 
L 296.10625 243.603116 
L 296.124184 246.911692 
L 296.076566 247.631363 
L 296.066376 247.769254 
L 295.954696 249.283619 
L 295.881268 250.278992 
L 295.810076 251.244356 
L 295.7742 251.730781 
L 295.770765 251.777153 
L 295.760962 251.909515 
L 295.759905 251.924288 
L 295.965029 252.481763 
L 295.93944 252.566556 
L 295.873852 252.783983 
L 295.543025 254.568777 
L 295.405479 255.173103 
L 295.330405 255.503231 
L 295.258738 255.818404 
L 294.951199 257.804156 
L 294.640422 259.263942 
L 294.374226 260.54845 
L 294.097021 261.83195 
L 293.812573 263.097906 
L 293.516658 264.390201 
L 293.238669 265.658247 
L 292.979163 266.720634 
L 292.932567 266.911494 
L 292.609946 268.208693 
L 292.303944 269.472492 
L 291.941255 270.746365 
L 291.578691 272.019842 
L 291.4671 272.452308 
L 291.25449 273.276497 
L 290.660403 275.452455 
L 290.233267 276.852738 
L 289.915647 277.870097 
L 289.767715 278.452819 
L 289.113213 281.03097 
L 288.518606 283.373329 
L 288.4745 283.50933 
L 288.238941 284.235745 
L 286.579788 289.710355 
L 286.261155 290.761699 
L 286.183688 291.031371 
L 286.089122 291.360611 
L 285.987013 291.716237 
L 285.889587 292.055439 
L 285.687436 292.759369 
L 285.548694 293.24251 
L 285.445787 293.600513 
L 285.034493 295.032783 
L 284.998467 295.158121 
L 284.954651 295.310571 
L 284.847446 295.778935 
L 284.8375 295.815273 
L 284.813736 295.902029 
L 284.797109 295.962732 
L 284.760114 296.097727 
L 284.559194 296.712605 
L 284.230463 297.89299 
L 283.899906 299.079643 
L 283.802153 299.430784 
L 283.644415 299.997528 
L 283.596449 300.169801 
L 283.530447 300.412807 
L 283.073993 302.092355 
L 282.421706 304.49196 
L 282.039569 305.898102 
L 281.198832 308.904125 
L 280.774428 310.421516 
L 280.358173 311.910083 
L 280.334977 311.993187 
L 279.973067 313.326323 
L 279.391656 315.467548 
L 278.863219 317.413775 
L 278.722706 317.68586 
L 278.636672 317.954999 
L 278.358613 318.82565 
L 277.991767 319.974153 
L 277.803654 320.562863 
L 277.681234 320.946334 
L 277.541593 321.383542 
L 276.999153 323.082135 
L 276.857489 323.525549 
L 276.702405 324.010882 
L 276.003719 326.198048 
L 275.962669 326.326642 
L 275.536467 327.660977 
L 275.482579 327.83115 
L 275.418524 328.033404 
L 275.045904 329.210422 
L 274.706663 330.28222 
L 274.675126 330.381763 
L 273.294236 333.403815 
L 272.089905 336.026215 
L 270.978852 338.414921 
L 269.175959 341.834092 
L 269.01719 342.13516 
L 268.72611 342.626719 
L 267.655248 344.435035 
L 265.627645 347.859156 
L 263.180807 351.672605 
L 261.232721 354.77393 
L 260.731874 355.571213 
L 258.894134 358.283633 
L 258.617062 358.692557 
L 257.854803 359.817662 
L 257.91586 359.86236 
L 257.550395 360.4447 
L 257.470563 360.384478 
L 256.948861 361.153833 
L 256.584141 361.500739 
L 256.064378 361.544261 
L 255.973607 361.546819 
L 255.844325 361.725448 
L 255.745302 361.880826 
L 255.495062 362.27348 
L 255.754663 362.779925 
L 255.651276 363.261723 
L 255.170014 363.989559 
L 254.232064 365.408052 
L 253.072364 367.161835 
L 252.523166 367.992303 
L 252.14089 368.570491 
L 252.122843 368.597761 
L 251.557993 369.460236 
L 250.740062 370.709094 
L 249.461808 372.66076 
L 248.660732 373.883888 
L 248.468361 374.177632 
L 247.855749 375.134767 
L 247.683507 375.403753 
L 246.528635 377.202167 
L 244.863083 379.795617 
L 243.861947 381.290578 
L 243.020568 382.546915 
L 242.128965 383.87823 
L 241.726747 384.478891 
L 241.142424 385.351445 
L 239.846655 387.237646 
L 239.209076 388.165708 
L 238.251828 389.559168 
L 237.050264 391.285928 
L 236.963007 391.411336 
L 236.540363 391.628934 
L 236.125402 391.576003 
L 235.980398 391.788417 
L 236.171545 392.113297 
L 236.13986 392.498484 
L 235.811506 392.943027 
L 235.116988 393.84631 
L 233.911987 395.433912 
L 233.148243 396.440123 
L 232.845965 396.892821 
L 232.091819 398.022009 
L 230.681136 400.134367 
L 229.863043 401.359357 
L 226.067552 406.835835 
L 225.269698 408.088127 
L 223.494621 410.874 
L 222.53789 412.375603 
L 220.959246 414.789824 
L 220.062734 416.160907 
L 219.915859 416.385563 
L 218.98898 417.803005 
L 218.866793 417.993362 
L 218.620843 418.376534 
L 216.94259 420.991326 
L 216.361905 421.895906 
L 215.465151 423.293165 
L 215.340958 423.912252 
L 215.228443 424.472933 
L 215.150038 424.863993 
L 214.670189 425.069887 
L 214.236693 425.884593 
L 214.351237 426.044609 
L 215.41519 427.530951 
L 215.479171 427.620354 
L 215.536477 427.700396 
L 215.74639 427.63957 
L 216.169921 427.516919 
L 217.360579 427.617223 
L 218.007316 427.7031 
L 218.212508 427.738092 
L 218.597623 427.803582 
L 218.875084 427.870041 
L 220.68846 428.172864 
L 221.315992 428.277654 
L 221.63868 428.331461 
L 223.201078 428.592368 
L 223.965746 428.735346 
L 224.489771 428.824433 
L 224.492814 428.824951 
" clip-path="url(#p7703a7fbed)" style="fill: #d3d3d3"/>
    <path d="M 540.199459 156.899258 
L 539.44094 157.486386 
L 535.424149 159.879837 
L 534.673273 160.511524 
L 533.98221 161.421616 
L 534.918456 160.68083 
L 541.158116 157.281651 
L 540.199459 156.899258 
" clip-path="url(#p7703a7fbed)" style="fill: #d3d3d3"/>
   </g>
   <g id="matplotlib.axis_1">
    <g id="xtick_1">
     <g id="line2d_1">
      <defs>
       <path id="m2314c171aa" d="M 0 0 
L 0 3.5 
" style="stroke: #000000; stroke-width: 0.8"/>
      </defs>
      <g>
       <use xlink:href="#m2314c171aa" x="208.695205" y="640.8" style="stroke: #000000; stroke-width: 0.8"/>
      </g>
     </g>
     <g id="text_1">
      <!-- 13.43 -->
      <g transform="translate(194.381142 655.398438) scale(0.1 -0.1)">
       <defs>
        <path id="DejaVuSans-31" d="M 794 531 
L 1825 531 
L 1825 4091 
L 703 3866 
L 703 4441 
L 1819 4666 
L 2450 4666 
L 2450 531 
L 3481 531 
L 3481 0 
L 794 0 
L 794 531 
z
" transform="scale(0.015625)"/>
        <path id="DejaVuSans-33" d="M 2597 2516 
Q 3050 2419 3304 2112 
Q 3559 1806 3559 1356 
Q 3559 666 3084 287 
Q 2609 -91 1734 -91 
Q 1441 -91 1130 -33 
Q 819 25 488 141 
L 488 750 
Q 750 597 1062 519 
Q 1375 441 1716 441 
Q 2309 441 2620 675 
Q 2931 909 2931 1356 
Q 2931 1769 2642 2001 
Q 2353 2234 1838 2234 
L 1294 2234 
L 1294 2753 
L 1863 2753 
Q 2328 2753 2575 2939 
Q 2822 3125 2822 3475 
Q 2822 3834 2567 4026 
Q 2313 4219 1838 4219 
Q 1578 4219 1281 4162 
Q 984 4106 628 3988 
L 628 4550 
Q 988 4650 1302 4700 
Q 1616 4750 1894 4750 
Q 2613 4750 3031 4423 
Q 3450 4097 3450 3541 
Q 3450 3153 3228 2886 
Q 3006 2619 2597 2516 
z
" transform="scale(0.015625)"/>
        <path id="DejaVuSans-2e" d="M 684 794 
L 1344 794 
L 1344 0 
L 684 0 
L 684 794 
z
" transform="scale(0.015625)"/>
        <path id="DejaVuSans-34" d="M 2419 4116 
L 825 1625 
L 2419 1625 
L 2419 4116 
z
M 2253 4666 
L 3047 4666 
L 3047 1625 
L 3713 1625 
L 3713 1100 
L 3047 1100 
L 3047 0 
L 2419 0 
L 2419 1100 
L 313 1100 
L 313 1709 
L 2253 4666 
z
" transform="scale(0.015625)"/>
       </defs>
       <use xlink:href="#DejaVuSans-31"/>
       <use xlink:href="#DejaVuSans-33" x="63.623047"/>
       <use xlink:href="#DejaVuSans-2e" x="127.246094"/>
       <use xlink:href="#DejaVuSans-34" x="159.033203"/>
       <use xlink:href="#DejaVuSans-33" x="222.65625"/>
      </g>
     </g>
    </g>
    <g id="xtick_2">
     <g id="line2d_2">
      <g>
       <use xlink:href="#m2314c171aa" x="252.987475" y="640.8" style="stroke: #000000; stroke-width: 0.8"/>
      </g>
     </g>
     <g id="text_2">
      <!-- 13.44 -->
      <g transform="translate(238.673412 655.398438) scale(0.1 -0.1)">
       <use xlink:href="#DejaVuSans-31"/>
       <use xlink:href="#DejaVuSans-33" x="63.623047"/>
       <use xlink:href="#DejaVuSans-2e" x="127.246094"/>
       <use xlink:href="#DejaVuSans-34" x="159.033203"/>
       <use xlink:href="#DejaVuSans-34" x="222.65625"/>
      </g>
     </g>
    </g>
    <g id="xtick_3">
     <g id="line2d_3">
      <g>
       <use xlink:href="#m2314c171aa" x="297.279745" y="640.8" style="stroke: #000000; stroke-width: 0.8"/>
      </g>
     </g>
     <g id="text_3">
      <!-- 13.45 -->
      <g transform="translate(282.965682 655.398438) scale(0.1 -0.1)">
       <defs>
        <path id="DejaVuSans-35" d="M 691 4666 
L 3169 4666 
L 3169 4134 
L 1269 4134 
L 1269 2991 
Q 1406 3038 1543 3061 
Q 1681 3084 1819 3084 
Q 2600 3084 3056 2656 
Q 3513 2228 3513 1497 
Q 3513 744 3044 326 
Q 2575 -91 1722 -91 
Q 1428 -91 1123 -41 
Q 819 9 494 109 
L 494 744 
Q 775 591 1075 516 
Q 1375 441 1709 441 
Q 2250 441 2565 725 
Q 2881 1009 2881 1497 
Q 2881 1984 2565 2268 
Q 2250 2553 1709 2553 
Q 1456 2553 1204 2497 
Q 953 2441 691 2322 
L 691 4666 
z
" transform="scale(0.015625)"/>
       </defs>
       <use xlink:href="#DejaVuSans-31"/>
       <use xlink:href="#DejaVuSans-33" x="63.623047"/>
       <use xlink:href="#DejaVuSans-2e" x="127.246094"/>
       <use xlink:href="#DejaVuSans-34" x="159.033203"/>
       <use xlink:href="#DejaVuSans-35" x="222.65625"/>
      </g>
     </g>
    </g>
    <g id="xtick_4">
     <g id="line2d_4">
      <g>
       <use xlink:href="#m2314c171aa" x="341.572015" y="640.8" style="stroke: #000000; stroke-width: 0.8"/>
      </g>
     </g>
     <g id="text_4">
      <!-- 13.46 -->
      <g transform="translate(327.257952 655.398438) scale(0.1 -0.1)">
       <defs>
        <path id="DejaVuSans-36" d="M 2113 2584 
Q 1688 2584 1439 2293 
Q 1191 2003 1191 1497 
Q 1191 994 1439 701 
Q 1688 409 2113 409 
Q 2538 409 2786 701 
Q 3034 994 3034 1497 
Q 3034 2003 2786 2293 
Q 2538 2584 2113 2584 
z
M 3366 4563 
L 3366 3988 
Q 3128 4100 2886 4159 
Q 2644 4219 2406 4219 
Q 1781 4219 1451 3797 
Q 1122 3375 1075 2522 
Q 1259 2794 1537 2939 
Q 1816 3084 2150 3084 
Q 2853 3084 3261 2657 
Q 3669 2231 3669 1497 
Q 3669 778 3244 343 
Q 2819 -91 2113 -91 
Q 1303 -91 875 529 
Q 447 1150 447 2328 
Q 447 3434 972 4092 
Q 1497 4750 2381 4750 
Q 2619 4750 2861 4703 
Q 3103 4656 3366 4563 
z
" transform="scale(0.015625)"/>
       </defs>
       <use xlink:href="#DejaVuSans-31"/>
       <use xlink:href="#DejaVuSans-33" x="63.623047"/>
       <use xlink:href="#DejaVuSans-2e" x="127.246094"/>
       <use xlink:href="#DejaVuSans-34" x="159.033203"/>
       <use xlink:href="#DejaVuSans-36" x="222.65625"/>
      </g>
     </g>
    </g>
    <g id="xtick_5">
     <g id="line2d_5">
      <g>
       <use xlink:href="#m2314c171aa" x="385.864285" y="640.8" style="stroke: #000000; stroke-width: 0.8"/>
      </g>
     </g>
     <g id="text_5">
      <!-- 13.47 -->
      <g transform="translate(371.550222 655.398438) scale(0.1 -0.1)">
       <defs>
        <path id="DejaVuSans-37" d="M 525 4666 
L 3525 4666 
L 3525 4397 
L 1831 0 
L 1172 0 
L 2766 4134 
L 525 4134 
L 525 4666 
z
" transform="scale(0.015625)"/>
       </defs>
       <use xlink:href="#DejaVuSans-31"/>
       <use xlink:href="#DejaVuSans-33" x="63.623047"/>
       <use xlink:href="#DejaVuSans-2e" x="127.246094"/>
       <use xlink:href="#DejaVuSans-34" x="159.033203"/>
       <use xlink:href="#DejaVuSans-37" x="222.65625"/>
      </g>
     </g>
    </g>
    <g id="xtick_6">
     <g id="line2d_6">
      <g>
       <use xlink:href="#m2314c171aa" x="430.156555" y="640.8" style="stroke: #000000; stroke-width: 0.8"/>
      </g>
     </g>
     <g id="text_6">
      <!-- 13.48 -->
      <g transform="translate(415.842493 655.398438) scale(0.1 -0.1)">
       <defs>
        <path id="DejaVuSans-38" d="M 2034 2216 
Q 1584 2216 1326 1975 
Q 1069 1734 1069 1313 
Q 1069 891 1326 650 
Q 1584 409 2034 409 
Q 2484 409 2743 651 
Q 3003 894 3003 1313 
Q 3003 1734 2745 1975 
Q 2488 2216 2034 2216 
z
M 1403 2484 
Q 997 2584 770 2862 
Q 544 3141 544 3541 
Q 544 4100 942 4425 
Q 1341 4750 2034 4750 
Q 2731 4750 3128 4425 
Q 3525 4100 3525 3541 
Q 3525 3141 3298 2862 
Q 3072 2584 2669 2484 
Q 3125 2378 3379 2068 
Q 3634 1759 3634 1313 
Q 3634 634 3220 271 
Q 2806 -91 2034 -91 
Q 1263 -91 848 271 
Q 434 634 434 1313 
Q 434 1759 690 2068 
Q 947 2378 1403 2484 
z
M 1172 3481 
Q 1172 3119 1398 2916 
Q 1625 2713 2034 2713 
Q 2441 2713 2670 2916 
Q 2900 3119 2900 3481 
Q 2900 3844 2670 4047 
Q 2441 4250 2034 4250 
Q 1625 4250 1398 4047 
Q 1172 3844 1172 3481 
z
" transform="scale(0.015625)"/>
       </defs>
       <use xlink:href="#DejaVuSans-31"/>
       <use xlink:href="#DejaVuSans-33" x="63.623047"/>
       <use xlink:href="#DejaVuSans-2e" x="127.246094"/>
       <use xlink:href="#DejaVuSans-34" x="159.033203"/>
       <use xlink:href="#DejaVuSans-38" x="222.65625"/>
      </g>
     </g>
    </g>
    <g id="xtick_7">
     <g id="line2d_7">
      <g>
       <use xlink:href="#m2314c171aa" x="474.448825" y="640.8" style="stroke: #000000; stroke-width: 0.8"/>
      </g>
     </g>
     <g id="text_7">
      <!-- 13.49 -->
      <g transform="translate(460.134763 655.398438) scale(0.1 -0.1)">
       <defs>
        <path id="DejaVuSans-39" d="M 703 97 
L 703 672 
Q 941 559 1184 500 
Q 1428 441 1663 441 
Q 2288 441 2617 861 
Q 2947 1281 2994 2138 
Q 2813 1869 2534 1725 
Q 2256 1581 1919 1581 
Q 1219 1581 811 2004 
Q 403 2428 403 3163 
Q 403 3881 828 4315 
Q 1253 4750 1959 4750 
Q 2769 4750 3195 4129 
Q 3622 3509 3622 2328 
Q 3622 1225 3098 567 
Q 2575 -91 1691 -91 
Q 1453 -91 1209 -44 
Q 966 3 703 97 
z
M 1959 2075 
Q 2384 2075 2632 2365 
Q 2881 2656 2881 3163 
Q 2881 3666 2632 3958 
Q 2384 4250 1959 4250 
Q 1534 4250 1286 3958 
Q 1038 3666 1038 3163 
Q 1038 2656 1286 2365 
Q 1534 2075 1959 2075 
z
" transform="scale(0.015625)"/>
       </defs>
       <use xlink:href="#DejaVuSans-31"/>
       <use xlink:href="#DejaVuSans-33" x="63.623047"/>
       <use xlink:href="#DejaVuSans-2e" x="127.246094"/>
       <use xlink:href="#DejaVuSans-34" x="159.033203"/>
       <use xlink:href="#DejaVuSans-39" x="222.65625"/>
      </g>
     </g>
    </g>
    <g id="xtick_8">
     <g id="line2d_8">
      <g>
       <use xlink:href="#m2314c171aa" x="518.741095" y="640.8" style="stroke: #000000; stroke-width: 0.8"/>
      </g>
     </g>
     <g id="text_8">
      <!-- 13.50 -->
      <g transform="translate(504.427033 655.398438) scale(0.1 -0.1)">
       <defs>
        <path id="DejaVuSans-30" d="M 2034 4250 
Q 1547 4250 1301 3770 
Q 1056 3291 1056 2328 
Q 1056 1369 1301 889 
Q 1547 409 2034 409 
Q 2525 409 2770 889 
Q 3016 1369 3016 2328 
Q 3016 3291 2770 3770 
Q 2525 4250 2034 4250 
z
M 2034 4750 
Q 2819 4750 3233 4129 
Q 3647 3509 3647 2328 
Q 3647 1150 3233 529 
Q 2819 -91 2034 -91 
Q 1250 -91 836 529 
Q 422 1150 422 2328 
Q 422 3509 836 4129 
Q 1250 4750 2034 4750 
z
" transform="scale(0.015625)"/>
       </defs>
       <use xlink:href="#DejaVuSans-31"/>
       <use xlink:href="#DejaVuSans-33" x="63.623047"/>
       <use xlink:href="#DejaVuSans-2e" x="127.246094"/>
       <use xlink:href="#DejaVuSans-35" x="159.033203"/>
       <use xlink:href="#DejaVuSans-30" x="222.65625"/>
      </g>
     </g>
    </g>
   </g>
   <g id="matplotlib.axis_2">
    <g id="ytick_1">
     <g id="line2d_9">
      <defs>
       <path id="m4e2edcb22a" d="M 0 0 
L -3.5 0 
" style="stroke: #000000; stroke-width: 0.8"/>
      </defs>
      <g>
       <use xlink:href="#m4e2edcb22a" x="179.066039" y="591.580576" style="stroke: #000000; stroke-width: 0.8"/>
      </g>
     </g>
     <g id="text_9">
      <!-- 52.56 -->
      <g transform="translate(143.437914 595.379795) scale(0.1 -0.1)">
       <defs>
        <path id="DejaVuSans-32" d="M 1228 531 
L 3431 531 
L 3431 0 
L 469 0 
L 469 531 
Q 828 903 1448 1529 
Q 2069 2156 2228 2338 
Q 2531 2678 2651 2914 
Q 2772 3150 2772 3378 
Q 2772 3750 2511 3984 
Q 2250 4219 1831 4219 
Q 1534 4219 1204 4116 
Q 875 4013 500 3803 
L 500 4441 
Q 881 4594 1212 4672 
Q 1544 4750 1819 4750 
Q 2544 4750 2975 4387 
Q 3406 4025 3406 3419 
Q 3406 3131 3298 2873 
Q 3191 2616 2906 2266 
Q 2828 2175 2409 1742 
Q 1991 1309 1228 531 
z
" transform="scale(0.015625)"/>
       </defs>
       <use xlink:href="#DejaVuSans-35"/>
       <use xlink:href="#DejaVuSans-32" x="63.623047"/>
       <use xlink:href="#DejaVuSans-2e" x="127.246094"/>
       <use xlink:href="#DejaVuSans-35" x="159.033203"/>
       <use xlink:href="#DejaVuSans-36" x="222.65625"/>
      </g>
     </g>
    </g>
    <g id="ytick_2">
     <g id="line2d_10">
      <g>
       <use xlink:href="#m4e2edcb22a" x="179.066039" y="518.664812" style="stroke: #000000; stroke-width: 0.8"/>
      </g>
     </g>
     <g id="text_10">
      <!-- 52.57 -->
      <g transform="translate(143.437914 522.46403) scale(0.1 -0.1)">
       <use xlink:href="#DejaVuSans-35"/>
       <use xlink:href="#DejaVuSans-32" x="63.623047"/>
       <use xlink:href="#DejaVuSans-2e" x="127.246094"/>
       <use xlink:href="#DejaVuSans-35" x="159.033203"/>
       <use xlink:href="#DejaVuSans-37" x="222.65625"/>
      </g>
     </g>
    </g>
    <g id="ytick_3">
     <g id="line2d_11">
      <g>
       <use xlink:href="#m4e2edcb22a" x="179.066039" y="445.749047" style="stroke: #000000; stroke-width: 0.8"/>
      </g>
     </g>
     <g id="text_11">
      <!-- 52.58 -->
      <g transform="translate(143.437914 449.548266) scale(0.1 -0.1)">
       <use xlink:href="#DejaVuSans-35"/>
       <use xlink:href="#DejaVuSans-32" x="63.623047"/>
       <use xlink:href="#DejaVuSans-2e" x="127.246094"/>
       <use xlink:href="#DejaVuSans-35" x="159.033203"/>
       <use xlink:href="#DejaVuSans-38" x="222.65625"/>
      </g>
     </g>
    </g>
    <g id="ytick_4">
     <g id="line2d_12">
      <g>
       <use xlink:href="#m4e2edcb22a" x="179.066039" y="372.833282" style="stroke: #000000; stroke-width: 0.8"/>
      </g>
     </g>
     <g id="text_12">
      <!-- 52.59 -->
      <g transform="translate(143.437914 376.632501) scale(0.1 -0.1)">
       <use xlink:href="#DejaVuSans-35"/>
       <use xlink:href="#DejaVuSans-32" x="63.623047"/>
       <use xlink:href="#DejaVuSans-2e" x="127.246094"/>
       <use xlink:href="#DejaVuSans-35" x="159.033203"/>
       <use xlink:href="#DejaVuSans-39" x="222.65625"/>
      </g>
     </g>
    </g>
    <g id="ytick_5">
     <g id="line2d_13">
      <g>
       <use xlink:href="#m4e2edcb22a" x="179.066039" y="299.917517" style="stroke: #000000; stroke-width: 0.8"/>
      </g>
     </g>
     <g id="text_13">
      <!-- 52.60 -->
      <g transform="translate(143.437914 303.716736) scale(0.1 -0.1)">
       <use xlink:href="#DejaVuSans-35"/>
       <use xlink:href="#DejaVuSans-32" x="63.623047"/>
       <use xlink:href="#DejaVuSans-2e" x="127.246094"/>
       <use xlink:href="#DejaVuSans-36" x="159.033203"/>
       <use xlink:href="#DejaVuSans-30" x="222.65625"/>
      </g>
     </g>
    </g>
    <g id="ytick_6">
     <g id="line2d_14">
      <g>
       <use xlink:href="#m4e2edcb22a" x="179.066039" y="227.001753" style="stroke: #000000; stroke-width: 0.8"/>
      </g>
     </g>
     <g id="text_14">
      <!-- 52.61 -->
      <g transform="translate(143.437914 230.800971) scale(0.1 -0.1)">
       <use xlink:href="#DejaVuSans-35"/>
       <use xlink:href="#DejaVuSans-32" x="63.623047"/>
       <use xlink:href="#DejaVuSans-2e" x="127.246094"/>
       <use xlink:href="#DejaVuSans-36" x="159.033203"/>
       <use xlink:href="#DejaVuSans-31" x="222.65625"/>
      </g>
     </g>
    </g>
    <g id="ytick_7">
     <g id="line2d_15">
      <g>
       <use xlink:href="#m4e2edcb22a" x="179.066039" y="154.085988" style="stroke: #000000; stroke-width: 0.8"/>
      </g>
     </g>
     <g id="text_15">
      <!-- 52.62 -->
      <g transform="translate(143.437914 157.885207) scale(0.1 -0.1)">
       <use xlink:href="#DejaVuSans-35"/>
       <use xlink:href="#DejaVuSans-32" x="63.623047"/>
       <use xlink:href="#DejaVuSans-2e" x="127.246094"/>
       <use xlink:href="#DejaVuSans-36" x="159.033203"/>
       <use xlink:href="#DejaVuSans-32" x="222.65625"/>
      </g>
     </g>
    </g>
   </g>
   <g id="LineCollection_1">
    <path d="M 393.086583 172.60003 
L 392.714527 172.982108 
L 386.457358 182.022934 
L 386.141997 182.461887 
L 385.441737 183.501666 
L 384.839362 184.399259 
L 384.21927 185.334768 
L 383.405178 186.56194 
" clip-path="url(#p7703a7fbed)" style="fill: none; stroke: #ff0000; stroke-opacity: 0.7; stroke-width: 0.5"/>
    <path d="M 404.534806 223.261903 
L 394.721853 215.925848 
L 390.641206 212.92026 
L 384.938134 208.632813 
L 379.19697 204.413907 
L 377.058096 202.788615 
" clip-path="url(#p7703a7fbed)" style="fill: none; stroke: #ff0000; stroke-opacity: 0.7; stroke-width: 0.5"/>
    <path d="M 360.56144 371.83944 
L 371.21063 374.026913 
L 383.973448 376.829066 
L 384.26622 377.097396 
" clip-path="url(#p7703a7fbed)" style="fill: none; stroke: #ff0000; stroke-opacity: 0.7; stroke-width: 0.5"/>
    <path d="M 378.336814 194.01539 
L 376.249319 197.943362 
L 374.719907 200.600413 
L 372.673161 203.782457 
L 371.803261 205.085461 
L 369.485003 208.601459 
L 368.627062 209.781966 
L 366.694148 212.36683 
L 363.402346 216.769483 
L 362.000496 218.340818 
L 361.199249 218.61644 
L 359.957736 218.919769 
L 358.934142 219.580386 
L 358.488119 220.021526 
L 354.72549 225.631665 
L 350.355172 231.704819 
L 349.844482 232.599496 
" clip-path="url(#p7703a7fbed)" style="fill: none; stroke: #ff0000; stroke-opacity: 0.7; stroke-width: 0.5"/>
    <path d="M 383.405178 186.56194 
L 381.307053 189.676902 
L 380.690948 190.259499 
L 378.810298 192.21437 
L 378.664134 192.390827 
L 378.595481 192.473221 
L 378.429385 192.888112 
" clip-path="url(#p7703a7fbed)" style="fill: none; stroke: #ff0000; stroke-opacity: 0.7; stroke-width: 0.5"/>
    <path d="M 346.75421 237.952242 
L 343.559852 235.544564 
" clip-path="url(#p7703a7fbed)" style="fill: none; stroke: #ff0000; stroke-opacity: 0.7; stroke-width: 0.5"/>
    <path d="M 349.844482 232.599496 
L 349.448509 233.168968 
" clip-path="url(#p7703a7fbed)" style="fill: none; stroke: #ff0000; stroke-opacity: 0.7; stroke-width: 0.5"/>
    <path d="M 349.448509 233.168968 
L 349.020646 233.784377 
L 346.75421 237.952242 
L 344.175072 241.764278 
L 343.058463 242.097503 
L 342.584093 242.532811 
L 341.234065 244.225915 
L 340.444777 244.648097 
" clip-path="url(#p7703a7fbed)" style="fill: none; stroke: #ff0000; stroke-opacity: 0.7; stroke-width: 0.5"/>
    <path d="M 378.839531 193.026652 
L 378.70001 193.332169 
L 378.336814 194.01539 
" clip-path="url(#p7703a7fbed)" style="fill: none; stroke: #ff0000; stroke-opacity: 0.7; stroke-width: 0.5"/>
    <path d="M 230.452011 499.306405 
L 238.655382 483.803785 
L 238.797117 483.536184 
" clip-path="url(#p7703a7fbed)" style="fill: none; stroke: #ff0000; stroke-opacity: 0.7; stroke-width: 0.5"/>
   </g>
   <g id="patch_3">
    <path d="M 179.066039 640.8 
L 179.066039 86.4 
" style="fill: none; stroke: #000000; stroke-width: 0.8; stroke-linejoin: miter; stroke-linecap: square"/>
   </g>
   <g id="patch_4">
    <path d="M 558.933961 640.8 
L 558.933961 86.4 
" style="fill: none; stroke: #000000; stroke-width: 0.8; stroke-linejoin: miter; stroke-linecap: square"/>
   </g>
   <g id="patch_5">
    <path d="M 179.066039 640.8 
L 558.933961 640.8 
" style="fill: none; stroke: #000000; stroke-width: 0.8; stroke-linejoin: miter; stroke-linecap: square"/>
   </g>
   <g id="patch_6">
    <path d="M 179.066039 86.4 
L 558.933961 86.4 
" style="fill: none; stroke: #000000; stroke-width: 0.8; stroke-linejoin: miter; stroke-linecap: square"/>
   </g>
   <g id="text_16">
    <!-- Nrdliches_Weiensee -->
    <g transform="translate(302.131716 360.32654) scale(0.12 -0.12)">
     <defs>
      <path id="DejaVuSans-4e" d="M 628 4666 
L 1478 4666 
L 3547 763 
L 3547 4666 
L 4159 4666 
L 4159 0 
L 3309 0 
L 1241 3903 
L 1241 0 
L 628 0 
L 628 4666 
z
" transform="scale(0.015625)"/>
      <path id="DejaVuSans-f6" d="M 1959 3097 
Q 1497 3097 1228 2736 
Q 959 2375 959 1747 
Q 959 1119 1226 758 
Q 1494 397 1959 397 
Q 2419 397 2687 759 
Q 2956 1122 2956 1747 
Q 2956 2369 2687 2733 
Q 2419 3097 1959 3097 
z
M 1959 3584 
Q 2709 3584 3137 3096 
Q 3566 2609 3566 1747 
Q 3566 888 3137 398 
Q 2709 -91 1959 -91 
Q 1206 -91 779 398 
Q 353 888 353 1747 
Q 353 2609 779 3096 
Q 1206 3584 1959 3584 
z
M 2254 4850 
L 2888 4850 
L 2888 4219 
L 2254 4219 
L 2254 4850 
z
M 1032 4850 
L 1666 4850 
L 1666 4219 
L 1032 4219 
L 1032 4850 
z
" transform="scale(0.015625)"/>
      <path id="DejaVuSans-72" d="M 2631 2963 
Q 2534 3019 2420 3045 
Q 2306 3072 2169 3072 
Q 1681 3072 1420 2755 
Q 1159 2438 1159 1844 
L 1159 0 
L 581 0 
L 581 3500 
L 1159 3500 
L 1159 2956 
Q 1341 3275 1631 3429 
Q 1922 3584 2338 3584 
Q 2397 3584 2469 3576 
Q 2541 3569 2628 3553 
L 2631 2963 
z
" transform="scale(0.015625)"/>
      <path id="DejaVuSans-64" d="M 2906 2969 
L 2906 4863 
L 3481 4863 
L 3481 0 
L 2906 0 
L 2906 525 
Q 2725 213 2448 61 
Q 2172 -91 1784 -91 
Q 1150 -91 751 415 
Q 353 922 353 1747 
Q 353 2572 751 3078 
Q 1150 3584 1784 3584 
Q 2172 3584 2448 3432 
Q 2725 3281 2906 2969 
z
M 947 1747 
Q 947 1113 1208 752 
Q 1469 391 1925 391 
Q 2381 391 2643 752 
Q 2906 1113 2906 1747 
Q 2906 2381 2643 2742 
Q 2381 3103 1925 3103 
Q 1469 3103 1208 2742 
Q 947 2381 947 1747 
z
" transform="scale(0.015625)"/>
      <path id="DejaVuSans-6c" d="M 603 4863 
L 1178 4863 
L 1178 0 
L 603 0 
L 603 4863 
z
" transform="scale(0.015625)"/>
      <path id="DejaVuSans-69" d="M 603 3500 
L 1178 3500 
L 1178 0 
L 603 0 
L 603 3500 
z
M 603 4863 
L 1178 4863 
L 1178 4134 
L 603 4134 
L 603 4863 
z
" transform="scale(0.015625)"/>
      <path id="DejaVuSans-63" d="M 3122 3366 
L 3122 2828 
Q 2878 2963 2633 3030 
Q 2388 3097 2138 3097 
Q 1578 3097 1268 2742 
Q 959 2388 959 1747 
Q 959 1106 1268 751 
Q 1578 397 2138 397 
Q 2388 397 2633 464 
Q 2878 531 3122 666 
L 3122 134 
Q 2881 22 2623 -34 
Q 2366 -91 2075 -91 
Q 1284 -91 818 406 
Q 353 903 353 1747 
Q 353 2603 823 3093 
Q 1294 3584 2113 3584 
Q 2378 3584 2631 3529 
Q 2884 3475 3122 3366 
z
" transform="scale(0.015625)"/>
      <path id="DejaVuSans-68" d="M 3513 2113 
L 3513 0 
L 2938 0 
L 2938 2094 
Q 2938 2591 2744 2837 
Q 2550 3084 2163 3084 
Q 1697 3084 1428 2787 
Q 1159 2491 1159 1978 
L 1159 0 
L 581 0 
L 581 4863 
L 1159 4863 
L 1159 2956 
Q 1366 3272 1645 3428 
Q 1925 3584 2291 3584 
Q 2894 3584 3203 3211 
Q 3513 2838 3513 2113 
z
" transform="scale(0.015625)"/>
      <path id="DejaVuSans-65" d="M 3597 1894 
L 3597 1613 
L 953 1613 
Q 991 1019 1311 708 
Q 1631 397 2203 397 
Q 2534 397 2845 478 
Q 3156 559 3463 722 
L 3463 178 
Q 3153 47 2828 -22 
Q 2503 -91 2169 -91 
Q 1331 -91 842 396 
Q 353 884 353 1716 
Q 353 2575 817 3079 
Q 1281 3584 2069 3584 
Q 2775 3584 3186 3129 
Q 3597 2675 3597 1894 
z
M 3022 2063 
Q 3016 2534 2758 2815 
Q 2500 3097 2075 3097 
Q 1594 3097 1305 2825 
Q 1016 2553 972 2059 
L 3022 2063 
z
" transform="scale(0.015625)"/>
      <path id="DejaVuSans-73" d="M 2834 3397 
L 2834 2853 
Q 2591 2978 2328 3040 
Q 2066 3103 1784 3103 
Q 1356 3103 1142 2972 
Q 928 2841 928 2578 
Q 928 2378 1081 2264 
Q 1234 2150 1697 2047 
L 1894 2003 
Q 2506 1872 2764 1633 
Q 3022 1394 3022 966 
Q 3022 478 2636 193 
Q 2250 -91 1575 -91 
Q 1294 -91 989 -36 
Q 684 19 347 128 
L 347 722 
Q 666 556 975 473 
Q 1284 391 1588 391 
Q 1994 391 2212 530 
Q 2431 669 2431 922 
Q 2431 1156 2273 1281 
Q 2116 1406 1581 1522 
L 1381 1569 
Q 847 1681 609 1914 
Q 372 2147 372 2553 
Q 372 3047 722 3315 
Q 1072 3584 1716 3584 
Q 2034 3584 2315 3537 
Q 2597 3491 2834 3397 
z
" transform="scale(0.015625)"/>
      <path id="DejaVuSans-5f" d="M 3263 -1063 
L 3263 -1509 
L -63 -1509 
L -63 -1063 
L 3263 -1063 
z
" transform="scale(0.015625)"/>
      <path id="DejaVuSans-57" d="M 213 4666 
L 850 4666 
L 1831 722 
L 2809 4666 
L 3519 4666 
L 4500 722 
L 5478 4666 
L 6119 4666 
L 4947 0 
L 4153 0 
L 3169 4050 
L 2175 0 
L 1381 0 
L 213 4666 
z
" transform="scale(0.015625)"/>
      <path id="DejaVuSans-df" d="M 581 3553 
Q 581 4178 954 4520 
Q 1328 4863 2009 4863 
Q 2659 4863 3001 4500 
Q 3344 4138 3353 3438 
Q 2881 3413 2618 3233 
Q 2356 3053 2356 2753 
Q 2356 2606 2447 2479 
Q 2538 2353 2741 2222 
L 2919 2106 
Q 3438 1775 3588 1553 
Q 3738 1331 3738 1019 
Q 3738 481 3386 195 
Q 3034 -91 2375 -91 
Q 2175 -91 1962 -52 
Q 1750 -13 1522 63 
L 1522 575 
Q 1772 481 1990 436 
Q 2209 391 2413 391 
Q 2775 391 2962 539 
Q 3150 688 3150 972 
Q 3150 1169 3058 1300 
Q 2966 1431 2650 1625 
L 2363 1797 
Q 2063 1981 1927 2192 
Q 1791 2403 1791 2688 
Q 1791 3084 2052 3353 
Q 2313 3622 2784 3713 
Q 2759 4034 2554 4209 
Q 2350 4384 1997 4384 
Q 1591 4384 1378 4167 
Q 1166 3950 1166 3541 
L 1166 0 
L 581 0 
L 581 3553 
z
" transform="scale(0.015625)"/>
      <path id="DejaVuSans-6e" d="M 3513 2113 
L 3513 0 
L 2938 0 
L 2938 2094 
Q 2938 2591 2744 2837 
Q 2550 3084 2163 3084 
Q 1697 3084 1428 2787 
Q 1159 2491 1159 1978 
L 1159 0 
L 581 0 
L 581 3500 
L 1159 3500 
L 1159 2956 
Q 1366 3272 1645 3428 
Q 1925 3584 2291 3584 
Q 2894 3584 3203 3211 
Q 3513 2838 3513 2113 
z
" transform="scale(0.015625)"/>
     </defs>
     <use xlink:href="#DejaVuSans-4e"/>
     <use xlink:href="#DejaVuSans-f6" x="74.804688"/>
     <use xlink:href="#DejaVuSans-72" x="135.986328"/>
     <use xlink:href="#DejaVuSans-64" x="175.349609"/>
     <use xlink:href="#DejaVuSans-6c" x="238.826172"/>
     <use xlink:href="#DejaVuSans-69" x="266.609375"/>
     <use xlink:href="#DejaVuSans-63" x="294.392578"/>
     <use xlink:href="#DejaVuSans-68" x="349.373047"/>
     <use xlink:href="#DejaVuSans-65" x="412.751953"/>
     <use xlink:href="#DejaVuSans-73" x="474.275391"/>
     <use xlink:href="#DejaVuSans-5f" x="526.375"/>
     <use xlink:href="#DejaVuSans-57" x="576.375"/>
     <use xlink:href="#DejaVuSans-65" x="669.376953"/>
     <use xlink:href="#DejaVuSans-69" x="730.900391"/>
     <use xlink:href="#DejaVuSans-df" x="758.683594"/>
     <use xlink:href="#DejaVuSans-65" x="821.671875"/>
     <use xlink:href="#DejaVuSans-6e" x="883.195312"/>
     <use xlink:href="#DejaVuSans-73" x="946.574219"/>
     <use xlink:href="#DejaVuSans-65" x="998.673828"/>
     <use xlink:href="#DejaVuSans-65" x="1060.197266"/>
    </g>
   </g>
  </g>
 </g>
 <defs>
  <clipPath id="p7703a7fbed">
   <rect x="179.066039" y="86.4" width="379.867921" height="554.4"/>
  </clipPath>
 </defs>
</svg>
