<?xml version="1.0" encoding="utf-8" standalone="no"?>
<!DOCTYPE svg PUBLIC "-//W3C//DTD SVG 1.1//EN"
  "http://www.w3.org/Graphics/SVG/1.1/DTD/svg11.dtd">
<svg xmlns:xlink="http://www.w3.org/1999/xlink" width="720pt" height="720pt" viewBox="0 0 720 720" xmlns="http://www.w3.org/2000/svg" version="1.1">
 <metadata>
  <rdf:RDF xmlns:dc="http://purl.org/dc/elements/1.1/" xmlns:cc="http://creativecommons.org/ns#" xmlns:rdf="http://www.w3.org/1999/02/22-rdf-syntax-ns#">
   <cc:Work>
    <dc:type rdf:resource="http://purl.org/dc/dcmitype/StillImage"/>
    <dc:date>2024-10-17T11:38:37.714082</dc:date>
    <dc:format>image/svg+xml</dc:format>
    <dc:creator>
     <cc:Agent>
      <dc:title>Matplotlib v3.9.2, https://matplotlib.org/</dc:title>
     </cc:Agent>
    </dc:creator>
   </cc:Work>
  </rdf:RDF>
 </metadata>
 <defs>
  <style type="text/css">*{stroke-linejoin: round; stroke-linecap: butt}</style>
 </defs>
 <g id="figure_1">
  <g id="patch_1">
   <path d="M 0 720 
L 720 720 
L 720 0 
L 0 0 
z
" style="fill: #ffffff"/>
  </g>
  <g id="axes_1">
   <g id="patch_2">
    <path d="M 90 599.21382 
L 648 599.21382 
L 648 127.98618 
L 90 127.98618 
z
" style="fill: #ffffff"/>
   </g>
   <g id="PatchCollection_1">
    <path d="M 122.612693 149.405618 
L 122.392085 149.425074 
L 122.172821 149.455858 
L 121.955296 149.497762 
L 121.740303 149.550769 
L 121.528239 149.61477 
L 121.319792 149.689452 
L 121.115361 149.774804 
L 120.915534 149.870516 
L 117.235338 152.45434 
L 117.059366 152.926238 
L 117.524649 157.139062 
L 117.326207 157.122158 
L 117.427764 162.747519 
L 117.455774 164.293414 
L 117.461308 164.507105 
L 117.584499 169.283204 
L 117.59407 174.248945 
L 118.480735 181.872126 
L 119.235493 186.707997 
L 119.750796 189.48827 
L 119.970332 190.672814 
L 120.090386 191.320951 
L 120.144586 191.613167 
L 120.18464 191.881685 
L 120.193164 191.938785 
L 120.210215 192.053184 
L 120.228221 192.174735 
L 120.237321 192.235409 
L 120.318133 192.777313 
L 120.41532 193.430044 
L 120.487971 193.917729 
L 120.74701 195.655658 
L 121.24291 198.983455 
L 121.999635 202.856225 
L 123.01765 208.776239 
L 123.595602 213.452951 
L 123.592114 213.753226 
L 123.588771 214.046623 
L 123.569392 215.734256 
L 123.308967 218.191246 
L 123.011931 220.207274 
L 122.440841 222.624449 
L 121.832345 224.954979 
L 121.818309 225.003514 
L 121.632908 225.641213 
L 121.287161 226.831364 
L 120.646354 228.833922 
L 120.018765 230.037521 
L 119.431891 231.072929 
L 118.794746 232.132173 
L 118.336258 232.796875 
L 117.912888 233.404304 
L 117.652431 233.754736 
L 116.957964 234.663018 
L 115.363636 236.748189 
L 117.816666 236.383012 
L 118.334301 236.30583 
L 121.488679 235.836085 
L 123.805371 235.491209 
L 125.949255 235.172008 
L 126.96442 235.020898 
L 127.349951 234.971373 
L 128.282004 234.851606 
L 129.206623 234.732802 
L 129.481283 237.286491 
L 130.014427 242.242884 
L 130.813083 249.668682 
L 130.897427 250.353185 
L 130.95535 250.823166 
L 131.001998 251.201435 
L 131.050815 251.596893 
L 131.101116 252.00547 
L 131.153944 252.433917 
L 131.203282 252.834943 
L 131.258402 253.281572 
L 131.41217 254.529058 
L 131.455419 254.879606 
L 131.477089 254.960325 
L 131.819382 256.232215 
L 132.044793 257.069609 
L 132.327376 258.118649 
L 132.387053 258.340104 
L 132.44197 258.544129 
L 133.501341 262.481229 
L 133.571534 262.742204 
L 134.047811 264.512276 
L 134.151154 264.896658 
L 134.157852 264.92082 
L 134.162091 264.937165 
L 135.710154 270.690595 
L 135.944436 271.561171 
L 136.256061 272.719465 
L 138.62055 281.508643 
L 138.658742 281.648876 
L 138.668855 281.71959 
L 132.389171 282.667004 
L 132.264436 282.685818 
L 132.298926 282.914708 
L 132.036777 282.954412 
L 131.273856 282.995687 
L 131.731388 284.682879 
L 131.959682 285.552391 
L 133.172319 290.183123 
L 134.250621 294.300939 
L 134.388253 294.910032 
L 135.379311 299.295315 
L 135.552715 300.380162 
L 135.919877 302.65681 
L 136.120453 303.900667 
L 136.540794 306.559426 
L 137.019055 309.549576 
L 137.488747 312.777245 
L 137.755811 314.528855 
L 138.028676 316.318098 
L 138.27701 317.946579 
L 138.322321 318.103193 
L 138.458787 318.574718 
L 138.626026 319.152267 
L 138.834167 319.871383 
L 139.476672 322.091501 
L 140.080379 324.220519 
L 142.727114 333.638915 
L 143.31885 335.259173 
L 146.476382 343.694513 
L 148.142386 348.169152 
L 148.266536 348.502462 
L 148.416789 348.906032 
L 148.627478 349.471859 
L 148.860142 350.09658 
L 148.956934 350.356768 
L 148.961158 350.368033 
L 150.31072 353.981793 
L 154.985561 351.806449 
L 155.277952 351.670537 
L 156.393101 351.15161 
L 159.391962 349.756168 
L 159.660487 350.619321 
L 159.801813 351.073706 
L 159.986575 351.667812 
L 160.128646 352.124472 
L 160.400348 352.996621 
L 161.344814 352.557413 
L 162.744445 351.908745 
L 164.868296 350.915334 
L 170.469292 348.8042 
L 170.68124 348.738528 
L 173.959748 347.721867 
L 175.001516 347.398796 
L 175.221556 347.330456 
L 175.712579 347.178201 
L 177.011118 346.775618 
L 177.216647 346.711785 
L 177.322673 346.679049 
L 177.417639 346.649547 
L 177.598687 346.59333 
L 178.916677 346.184742 
L 178.98785 346.162542 
L 179.289732 346.068978 
L 183.391491 344.797028 
L 183.658923 344.714192 
L 185.677727 344.088157 
L 186.241712 343.913375 
L 187.687456 343.465021 
L 191.503367 342.281761 
L 191.900122 342.158707 
L 192.182757 342.071057 
L 192.554339 341.955833 
L 192.885349 341.853265 
L 193.603741 341.956045 
L 194.458931 342.07832 
L 195.054286 342.163598 
L 196.35746 342.350001 
L 196.626771 342.388585 
L 197.568804 342.523293 
L 204.058638 343.45187 
L 204.76207 343.552507 
L 205.01074 343.588164 
L 205.851566 343.708385 
L 206.329261 343.776746 
L 206.552008 343.808692 
L 207.591051 343.957319 
L 208.69929 344.115878 
L 208.930012 344.148944 
L 210.06966 344.312093 
L 211.819408 344.56241 
L 213.625092 344.820864 
L 215.853229 345.139747 
L 216.141778 345.181006 
L 217.962678 345.311475 
L 221.306802 345.551103 
L 224.023994 346.275511 
L 224.084081 346.291522 
L 224.319026 346.354094 
L 225.455971 346.657325 
L 227.002821 347.069789 
L 227.200874 347.122514 
L 228.314319 347.419395 
L 229.587526 347.758889 
L 231.440396 348.2529 
L 231.582263 348.290724 
L 233.595168 349.329703 
L 236.189024 350.668648 
L 238.227941 351.190072 
L 238.453433 351.247777 
L 239.602874 351.5416 
L 240.12982 351.676462 
L 240.373102 351.738658 
L 241.454676 352.015248 
L 242.610811 352.310823 
L 242.818412 352.364042 
L 243.281586 352.482476 
L 245.377761 353.018612 
L 245.485306 353.046036 
L 245.866606 353.14296 
L 246.983216 353.426662 
L 247.338328 353.51689 
L 247.51564 353.562209 
L 250.128417 354.228979 
L 251.541398 354.589568 
L 252.136394 354.741379 
L 252.372675 354.801742 
L 253.199353 355.012724 
L 254.581347 355.365434 
L 256.302763 355.804742 
L 256.479572 355.849875 
L 257.163776 356.013382 
L 258.248628 356.2726 
L 258.987186 356.449261 
L 259.198073 356.502913 
L 259.501535 356.580182 
L 260.433325 356.817441 
L 261.041994 356.972425 
L 262.402269 357.318759 
L 264.053586 357.739209 
L 264.145139 357.762605 
L 264.364222 357.818371 
L 265.678617 358.153069 
L 266.937342 358.473649 
L 267.175913 358.534368 
L 267.236281 358.549781 
L 267.326732 358.572803 
L 267.538717 358.626733 
L 268.839016 358.957863 
L 270.186188 359.30092 
L 270.385581 359.35174 
L 270.474933 359.374488 
L 270.577776 359.400627 
L 270.831939 359.465389 
L 272.703322 359.941914 
L 273.215745 360.072448 
L 273.446619 360.131247 
L 274.486651 360.396068 
L 278.491959 361.416128 
L 283.034431 362.581168 
L 283.158863 362.612913 
L 284.925621 363.064678 
L 285.119215 363.114038 
L 285.245549 363.146439 
L 286.570739 363.485241 
L 287.700732 363.774123 
L 288.395157 363.951597 
L 290.851622 364.574686 
L 291.349568 364.6936 
L 291.515284 364.736199 
L 293.32165 365.20018 
L 294.529826 365.51058 
L 296.558774 366.031869 
L 296.723287 366.074099 
L 296.91608 365.54401 
L 297.502597 363.930251 
L 297.618492 363.611276 
L 298.403429 361.451664 
L 298.514259 361.137383 
L 298.983337 359.807862 
L 299.450444 358.483566 
L 299.628681 357.978506 
L 299.712091 357.742241 
L 300.186599 356.39706 
L 300.672999 355.018241 
L 300.757807 354.777662 
L 300.801152 354.654961 
L 301.182336 353.574358 
L 301.26247 353.347332 
L 301.466258 352.769479 
L 301.938913 351.430019 
L 302.013142 351.219363 
L 302.284057 350.451434 
L 302.753995 349.119407 
L 302.83665 348.884854 
L 303.10589 348.122044 
L 304.150528 345.160884 
L 304.204453 345.008161 
L 304.923972 342.94554 
L 305.997059 339.943311 
L 306.990246 337.164816 
L 307.029129 337.056161 
L 307.274873 336.368593 
L 307.452787 335.870817 
L 307.696565 335.188772 
L 307.729543 335.096487 
L 308.737092 332.278227 
L 309.772085 329.382352 
L 310.00763 328.723603 
L 310.193893 328.202729 
L 310.455946 327.469473 
L 311.340592 324.994754 
L 312.214097 322.551166 
L 312.419384 321.977071 
L 312.64352 321.349982 
L 312.953813 320.48184 
L 313.143268 319.952031 
L 313.221126 319.734123 
L 314.285884 316.75561 
L 315.309335 313.89278 
L 315.991802 311.968681 
L 317.063454 308.95834 
L 318.006791 309.517295 
L 320.408053 310.950668 
L 321.331465 311.475891 
L 322.754399 312.286515 
L 329.363967 315.832429 
L 335.964438 319.380424 
L 336.465062 319.712642 
L 339.098525 321.458076 
L 342.481843 323.090033 
L 346.223479 325.784977 
L 348.572716 327.477066 
L 355.019655 331.306542 
L 355.360979 331.503757 
L 358.274274 333.178937 
L 359.740912 334.035346 
L 362.569733 336.777276 
L 362.574635 337.136747 
L 365.059587 339.496207 
L 370.472226 343.016908 
L 371.202631 343.493018 
L 373.419458 344.791672 
L 373.916984 345.084142 
L 376.888921 346.825909 
L 377.243474 347.033712 
L 378.767417 347.928289 
L 379.054051 348.097815 
L 379.311652 348.248444 
L 379.374069 348.285148 
L 379.598267 348.417074 
L 383.336325 350.61191 
L 384.435747 351.25827 
L 387.615596 353.127104 
L 384.878767 357.004588 
L 383.82855 358.482744 
L 383.983007 358.680749 
L 382.505226 360.769211 
L 381.770201 361.807988 
L 381.450973 362.25909 
L 380.626194 363.424687 
L 380.363003 363.796658 
L 380.128068 364.12866 
L 374.282406 372.389887 
L 373.695091 373.219849 
L 371.564962 376.230263 
L 368.041774 381.209791 
L 366.902366 382.820211 
L 363.260724 387.967011 
L 362.23304 389.419518 
L 358.977998 394.020414 
L 358.798248 394.274308 
L 358.243286 395.053869 
L 357.605471 395.949514 
L 357.357412 396.298153 
L 357.00036 396.799513 
L 356.787117 397.099171 
L 355.53581 398.856559 
L 356.837498 399.635847 
L 358.275414 400.496762 
L 359.73648 401.371425 
L 359.856603 401.466451 
L 362.06002 403.207718 
L 363.031696 403.975673 
L 363.214807 404.120342 
L 363.57193 404.402605 
L 363.948971 404.700575 
L 364.138047 404.849997 
L 365.065834 405.583242 
L 366.025972 406.341988 
L 366.184714 406.467461 
L 366.567515 406.769991 
L 366.974582 407.091721 
L 367.162646 407.240369 
L 368.110443 407.989424 
L 369.026997 408.713854 
L 369.211421 408.859693 
L 369.616461 409.179775 
L 370.00674 409.488223 
L 370.194596 409.636578 
L 371.122568 410.370029 
L 372.065199 411.11512 
L 372.235968 411.249997 
L 372.629277 411.560872 
L 373.02026 411.869905 
L 373.207714 412.01807 
L 374.135575 412.75143 
L 375.074757 413.493712 
L 375.24148 413.625391 
L 375.641963 413.941891 
L 376.03082 414.249279 
L 376.196331 414.380087 
L 377.151379 415.134881 
L 377.343989 415.28722 
L 377.384127 415.318928 
L 377.575622 415.470295 
L 377.7382 415.598777 
L 378.047382 415.843136 
L 378.212186 415.973462 
L 378.395792 416.118525 
L 378.423397 416.140442 
L 378.486283 416.190088 
L 378.612561 416.289768 
L 378.637233 416.309358 
L 379.030625 416.619838 
L 379.211191 416.762177 
L 380.142549 417.497265 
L 381.123445 418.271432 
L 381.286118 418.399814 
L 381.681631 418.712043 
L 383.182487 419.896569 
L 384.313608 420.789232 
L 384.514899 420.948061 
L 385.866516 422.014782 
L 386.309312 422.367734 
L 386.787727 422.749021 
L 387.155362 423.042019 
L 387.620908 423.413111 
L 388.286641 423.938075 
L 390.44832 425.642814 
L 390.887993 425.989562 
L 392.621308 427.356583 
L 393.070179 427.710606 
L 395.265387 429.441739 
L 395.898146 429.940727 
L 396.364202 430.303845 
L 397.228281 430.97676 
L 397.639853 431.297322 
L 402.095603 434.820792 
L 402.804206 435.381313 
L 411.920008 442.590052 
L 413.205333 443.606574 
L 415.291661 446.305507 
L 420.13398 453.645312 
L 421.578397 454.81175 
L 421.861837 455.242709 
L 426.550267 462.371198 
L 427.921698 464.456461 
L 447.051565 493.545154 
L 449.904578 497.883596 
L 450.312465 499.337516 
L 450.411601 499.692763 
L 452.944714 503.545338 
L 454.543631 505.977175 
L 459.62515 503.48284 
L 464.24457 501.214525 
L 464.5599 501.059673 
L 469.159416 498.801697 
L 470.308082 498.238233 
L 471.204748 497.798962 
L 471.449294 497.679216 
L 472.35147 497.237338 
L 473.070254 496.884897 
L 473.300636 496.771833 
L 474.047821 496.404634 
L 475.352021 495.763306 
L 476.912747 494.995305 
L 477.148532 494.879237 
L 478.073907 494.423554 
L 478.823605 494.054381 
L 478.930872 494.015208 
L 481.214247 493.181054 
L 483.166361 492.467918 
L 486.521151 491.242394 
L 488.342407 490.603033 
L 489.917976 493.589551 
L 490.225595 494.33278 
L 490.244558 494.378503 
L 492.667982 500.234186 
L 493.0126 501.067786 
L 495.221215 506.406218 
L 496.058241 508.429726 
L 498.352294 513.975467 
L 499.381114 516.462242 
L 501.645828 521.935797 
L 504.602846 529.082193 
L 504.915565 529.838374 
L 504.970882 529.97219 
L 505.351407 530.893503 
L 506.218943 532.991198 
L 506.775631 534.336658 
L 509.856854 541.784203 
L 511.461813 545.664173 
L 511.817664 546.524447 
L 512.378625 547.880681 
L 512.721162 548.708462 
L 513.893037 549.230891 
L 515.120849 549.778262 
L 513.436726 553.563407 
L 513.236235 554.015064 
L 512.726486 555.161426 
L 510.172211 560.902531 
L 509.286184 562.893398 
L 521.30078 566.493809 
L 521.87718 566.665676 
L 526.300999 567.984769 
L 529.193678 568.847398 
L 529.836359 569.038977 
L 532.384189 569.798816 
L 533.958095 570.268165 
L 535.179352 570.631785 
L 535.945403 570.860086 
L 536.711574 571.089382 
L 537.477622 571.317586 
L 538.409735 571.595242 
L 538.837948 571.722775 
L 540.766504 572.299434 
L 541.378388 572.482122 
L 541.977671 572.660896 
L 543.405273 573.08598 
L 543.892662 573.230684 
L 544.096312 573.29099 
L 544.416536 573.385966 
L 545.21796 573.624286 
L 545.539393 573.720034 
L 549.489817 574.899713 
L 549.776966 574.985736 
L 549.787957 574.988689 
L 552.50688 575.799177 
L 553.660133 576.142975 
L 555.131716 576.5817 
L 556.654003 577.036384 
L 558.053989 577.453432 
L 558.702851 577.647109 
L 559.196643 577.794382 
L 559.63144 577.736573 
L 559.859291 577.706148 
L 563.21984 577.257424 
L 566.30807 576.845071 
L 567.221255 576.723556 
L 567.562729 576.677909 
L 568.908827 576.498636 
L 577.543016 575.345928 
L 578.622039 575.202167 
L 587.524275 574.015128 
L 589.520551 573.748833 
L 598.143956 572.598516 
L 603.924299 571.828033 
L 606.400058 571.497011 
L 608.217646 571.255017 
L 611.789319 570.779175 
L 612.570335 570.674926 
L 612.570561 570.674896 
L 616.03319 570.205188 
L 616.824697 570.097709 
L 617.906161 569.950895 
L 618.028405 569.93435 
L 619.448861 569.741483 
L 619.600428 569.720928 
L 622.065005 569.386339 
L 622.636364 569.297691 
L 620.575174 566.010601 
L 618.30599 562.449162 
L 617.172996 560.104934 
L 615.122139 556.835582 
L 612.813495 553.686393 
L 610.445906 550.626445 
L 607.834681 547.787593 
L 605.788318 545.864134 
L 605.027363 545.148805 
L 604.128518 544.41997 
L 601.968122 542.66803 
L 598.897192 540.42993 
L 595.650304 538.371349 
L 592.229104 536.462065 
L 592.155214 536.423117 
L 588.850235 534.681029 
L 585.278092 533.284335 
L 581.624183 531.982468 
L 577.939967 531.009368 
L 574.239834 530.157889 
L 572.449944 529.792271 
L 566.865263 528.651543 
L 565.602721 528.378195 
L 561.074762 527.397726 
L 559.608094 527.080231 
L 555.240504 524.885545 
L 551.0991 522.71386 
L 549.396287 521.823668 
L 546.917812 520.52792 
L 544.14244 519.105822 
L 543.767853 518.91377 
L 542.794675 518.415097 
L 538.793015 515.928774 
L 535.084896 513.072736 
L 534.019286 512.009045 
L 533.737475 511.727635 
L 533.305629 511.2967 
L 533.132643 511.123953 
L 533.093052 511.084449 
L 532.723296 510.66713 
L 532.452493 510.361473 
L 532.426126 510.331749 
L 530.870633 508.576138 
L 530.438461 508.088222 
L 529.902694 507.448093 
L 528.760459 506.081474 
L 526.885826 503.254774 
L 526.161235 502.160978 
L 523.490926 497.974802 
L 521.446766 494.842693 
L 520.768008 493.802621 
L 519.897834 492.476321 
L 518.438653 490.247019 
L 518.037992 489.630608 
L 515.646467 485.808237 
L 515.596366 485.728011 
L 515.395231 485.405526 
L 515.743502 484.85595 
L 516.308546 483.964366 
L 520.284668 482.522897 
L 520.818793 482.329118 
L 524.767897 480.896137 
L 526.321473 480.334733 
L 527.944473 479.748249 
L 537.600321 476.21284 
L 544.567929 473.662003 
L 545.339163 473.379587 
L 545.577673 473.292289 
L 547.812233 469.74179 
L 548.342898 468.683195 
L 549.480396 466.414034 
L 549.784194 465.807945 
L 550.038136 465.30126 
L 551.658755 462.068085 
L 551.911273 461.564321 
L 554.200735 456.997015 
L 555.910259 453.586799 
L 557.009501 451.393896 
L 558.329538 448.760582 
L 559.40831 446.608773 
L 561.648148 442.140803 
L 562.471013 440.499384 
L 562.928577 439.58666 
L 563.678524 437.42843 
L 563.876828 436.99109 
L 565.452144 436.118053 
L 570.989123 433.049558 
L 570.94825 432.9498 
L 570.917242 432.846644 
L 570.896414 432.740879 
L 570.885989 432.633597 
L 570.885987 432.525793 
L 570.896431 432.418564 
L 570.91724 432.312708 
L 570.948142 432.209526 
L 571.002642 432.071068 
L 571.067073 431.936982 
L 571.141152 431.807971 
L 571.224498 431.684839 
L 571.316625 431.568096 
L 571.417052 431.458449 
L 571.525194 431.356509 
L 571.640567 431.262784 
L 571.52812 430.698268 
L 574.265902 429.204257 
L 574.44155 429.108351 
L 581.24792 425.394383 
L 582.060422 424.953925 
L 582.644862 424.635597 
L 583.224754 424.308997 
L 583.799904 423.974229 
L 584.370309 423.631293 
L 584.935774 423.280294 
L 585.4962 422.921232 
L 586.051591 422.554308 
L 586.601646 422.179428 
L 587.935057 421.244962 
L 588.004546 421.34461 
L 588.085552 421.359324 
L 588.164461 421.382951 
L 588.240271 421.415112 
L 588.311983 421.45553 
L 588.37889 421.503723 
L 588.966505 421.058103 
L 589.047604 421.011541 
L 589.133791 420.975332 
L 589.223791 420.950201 
L 589.316318 420.936474 
L 589.409688 420.934386 
L 589.502707 420.943863 
L 589.593785 420.964939 
L 589.681522 420.997146 
L 589.764614 421.040012 
L 589.841757 421.092869 
L 589.911742 421.154945 
L 590.289615 421.522915 
L 590.547057 421.328529 
L 590.785232 421.1488 
L 590.597361 420.897839 
L 590.830296 420.719318 
L 590.88431 420.792195 
L 594.224131 418.303096 
L 596.228253 416.809383 
L 598.362022 415.219265 
L 598.36677 415.110265 
L 599.621375 414.202018 
L 599.958468 413.957919 
L 599.883143 413.634119 
L 599.797934 413.31282 
L 599.703042 412.994218 
L 599.598575 412.67861 
L 599.484539 412.366394 
L 599.27431 411.82906 
L 597.732594 407.887584 
L 595.416791 402.2194 
L 594.510869 400.141796 
L 593.638772 398.324314 
L 593.575015 398.218565 
L 593.50518 398.116731 
L 593.429473 398.019208 
L 593.348199 397.926286 
L 593.261564 397.83836 
L 592.578447 397.25799 
L 591.665426 396.647943 
L 590.934764 396.253507 
L 587.714049 394.984909 
L 587.339789 394.765118 
L 584.06171 392.408772 
L 584.208922 392.072462 
L 584.399734 391.636287 
L 585.424614 389.293893 
L 586.083795 387.787244 
L 586.346462 387.186838 
L 587.082434 385.504894 
L 587.315812 384.95732 
L 590.07616 378.443891 
L 590.157658 378.251657 
L 591.067006 376.10622 
L 592.57789 372.541058 
L 592.392209 372.511633 
L 591.970093 372.444997 
L 591.781922 372.415327 
L 591.720093 373.038853 
L 591.71757 373.037014 
L 591.282181 372.695673 
L 590.303098 372.037716 
L 590.235539 371.991928 
L 589.067554 371.199605 
L 588.461427 370.788473 
L 587.568822 370.18298 
L 586.723711 369.609854 
L 585.74557 368.931262 
L 584.81271 368.283789 
L 584.157952 367.829361 
L 583.534566 367.396783 
L 582.552678 366.715388 
L 581.632217 366.076524 
L 580.884554 365.557824 
L 579.938365 364.90108 
L 579.894587 364.870728 
L 579.642135 364.697067 
L 578.681549 364.036448 
L 578.599549 363.98001 
L 570.53804 358.435744 
L 570.360238 358.314298 
L 568.562643 357.086208 
L 566.050698 355.370221 
L 565.810868 355.206361 
L 563.296593 353.489242 
L 562.974269 353.269357 
L 562.038057 352.630667 
L 561.785309 352.448354 
L 560.517522 351.533589 
L 559.407099 350.732535 
L 558.205922 349.865771 
L 556.932473 348.94705 
L 556.687794 348.779811 
L 555.566158 348.012981 
L 547.974043 342.57603 
L 544.061044 339.773916 
L 543.354971 339.275108 
L 541.504854 337.962855 
L 527.803073 328.434884 
L 527.042271 327.906784 
L 526.063832 327.22214 
L 524.993873 326.473502 
L 510.257906 316.373369 
L 507.751721 314.653572 
L 511.513383 310.543884 
L 511.428948 310.392858 
L 511.264015 310.098194 
L 511.03552 309.689717 
L 510.596515 308.905057 
L 510.022649 307.879588 
L 508.87676 305.831501 
L 508.519183 305.192354 
L 507.817466 303.938282 
L 505.728781 305.08396 
L 505.197179 304.167086 
L 505.130824 304.052836 
L 504.917915 303.685674 
L 504.5437 303.040411 
L 503.992795 302.090277 
L 503.834276 301.816998 
L 503.44463 302.035988 
L 503.018844 302.275482 
L 502.630772 302.493642 
L 501.113753 303.346598 
L 499.401474 304.309164 
L 499.320049 304.354951 
L 498.841617 304.623875 
L 497.875034 305.167314 
L 497.584348 304.933043 
L 497.171579 304.600267 
L 496.734432 304.247789 
L 496.580896 304.124055 
L 496.279787 303.881241 
L 494.642695 302.502716 
L 493.071605 301.50567 
L 492.733825 301.291245 
L 492.432723 301.100043 
L 491.652357 300.6045 
L 491.356494 300.416574 
L 487.820848 298.171721 
L 487.441542 297.930793 
L 486.951693 297.619809 
L 485.830305 296.907832 
L 485.455433 296.669799 
L 484.848887 296.284709 
L 484.71627 296.200481 
L 484.442373 296.026634 
L 484.382413 295.988568 
L 484.356715 295.972183 
L 482.032483 294.495895 
L 481.744729 294.301722 
L 480.078103 293.176751 
L 477.108642 291.172663 
L 476.506697 290.766362 
L 476.350259 290.66073 
L 475.911005 290.36431 
L 475.884278 290.346354 
L 474.87684 289.669909 
L 474.471807 289.397961 
L 473.523667 288.761292 
L 473.157459 288.515311 
L 472.560495 288.114486 
L 470.818701 286.930389 
L 468.454796 285.323105 
L 468.124395 285.115412 
L 468.005424 285.037372 
L 467.837555 284.927306 
L 466.768131 284.22611 
L 466.583827 284.10524 
L 466.572331 284.097616 
L 466.08892 283.772964 
L 462.909774 281.638078 
L 462.64259 281.458219 
L 460.731352 280.1718 
L 460.363909 279.92446 
L 460.305585 279.819209 
L 458.837148 277.169233 
L 457.848263 276.359214 
L 456.499832 275.253367 
L 455.006847 274.03849 
L 453.482841 275.906276 
L 451.763538 274.917342 
L 450.554726 274.221978 
L 449.326284 273.515383 
L 448.141821 272.833947 
L 446.420684 271.843975 
L 445.043869 271.05202 
L 443.939238 270.421104 
L 442.781913 269.750924 
L 441.141777 268.807445 
L 439.491821 267.862825 
L 437.412121 266.663011 
L 435.805939 265.738426 
L 433.721991 264.539735 
L 433.2464 264.266258 
L 430.24859 262.541941 
L 424.706541 259.357742 
L 421.246753 257.916967 
L 420.937496 257.788157 
L 413.252377 254.587796 
L 413.097394 254.523202 
L 412.856146 254.422815 
L 412.787532 254.394211 
L 412.014732 254.11394 
L 411.978698 254.100867 
L 410.950361 253.727797 
L 409.564702 253.097838 
L 408.315008 252.55421 
L 406.494798 251.762205 
L 404.694404 250.976653 
L 403.368236 250.390855 
L 402.290783 249.915145 
L 397.615187 247.845405 
L 397.254751 247.685838 
L 396.526451 247.363377 
L 396.381012 247.29898 
L 393.609837 246.072325 
L 391.578718 245.174258 
L 389.850256 244.430341 
L 388.904589 244.023238 
L 383.85944 241.851555 
L 383.028961 241.493971 
L 381.716105 240.928568 
L 380.194617 240.273148 
L 377.516504 239.119686 
L 376.792684 238.807918 
L 375.801731 238.381 
L 374.082569 237.618903 
L 371.746958 236.665167 
L 370.976967 236.342555 
L 369.229165 235.608297 
L 367.481379 234.875042 
L 365.733566 234.140797 
L 365.548535 234.087071 
L 365.111029 233.957264 
L 363.897581 233.663242 
L 361.95121 233.227546 
L 358.428396 232.414387 
L 356.325372 231.928921 
L 354.259512 231.452021 
L 353.189563 231.173347 
L 352.248645 230.820197 
L 352.078532 230.750871 
L 350.319825 230.015723 
L 350.17655 229.955377 
L 348.392891 229.211414 
L 346.916627 228.595962 
L 345.815409 228.147796 
L 343.758141 227.28009 
L 342.861339 226.851187 
L 341.546621 226.222366 
L 341.544655 226.221424 
L 340.322386 225.635515 
L 339.797125 225.354344 
L 339.307575 225.092421 
L 338.667745 227.428434 
L 338.424528 227.270738 
L 338.401234 227.255603 
L 336.862067 226.257765 
L 336.341245 225.920108 
L 334.923777 225.001022 
L 334.195327 224.528709 
L 334.174252 224.515021 
L 333.821122 224.286195 
L 330.564963 222.175171 
L 330.359453 222.041863 
L 327.258559 220.03159 
L 326.994863 219.860597 
L 325.6657 218.998991 
L 324.340463 218.139894 
L 322.165943 216.730242 
L 321.567321 216.427578 
L 321.060978 216.17152 
L 320.470795 215.872958 
L 318.922398 215.573909 
L 315.817492 215.009878 
L 315.086856 214.877193 
L 310.130889 213.977043 
L 309.024845 213.776057 
L 306.419989 213.302977 
L 304.709579 212.992257 
L 304.576512 212.968084 
L 299.719821 212.085995 
L 299.197411 211.992116 
L 298.16487 211.806683 
L 297.661825 211.716368 
L 293.318326 210.930513 
L 291.549919 210.610465 
L 289.805169 210.294886 
L 288.591625 210.075279 
L 286.649936 209.723974 
L 285.988064 209.604173 
L 285.416622 209.500624 
L 284.770921 209.383758 
L 280.881939 208.680213 
L 277.720896 208.108291 
L 277.212618 207.992705 
L 277.069846 207.965249 
L 276.504343 207.8561 
L 276.311349 207.818886 
L 275.824952 207.731018 
L 273.262094 207.267456 
L 272.0633 207.050677 
L 265.369974 205.840372 
L 261.973134 205.226105 
L 261.281408 205.101015 
L 260.705568 204.996894 
L 260.575807 204.973441 
L 260.094594 204.886472 
L 255.069331 203.977744 
L 252.698386 203.549129 
L 250.205359 203.098402 
L 247.827416 202.66847 
L 245.460576 202.241792 
L 243.085293 201.811128 
L 240.670607 201.374666 
L 237.278498 200.761464 
L 237.373543 200.022082 
L 237.396765 199.847809 
L 237.698037 197.585668 
L 237.939942 195.309291 
L 237.948933 195.225101 
L 237.939812 194.713783 
L 237.912986 193.213391 
L 237.893473 192.994527 
L 237.760379 191.499463 
L 237.616078 189.87871 
L 237.575152 189.417809 
L 237.495106 188.518921 
L 237.398148 187.430127 
L 237.348537 186.886023 
L 237.183332 185.073836 
L 237.014572 183.221973 
L 236.97711 182.810314 
L 236.748392 180.300793 
L 236.645112 179.168239 
L 236.440235 176.920928 
L 236.347884 175.983017 
L 236.281953 175.29331 
L 236.105079 173.475302 
L 236.069372 173.107443 
L 236.024439 172.645335 
L 235.999658 172.39032 
L 235.850594 170.856753 
L 235.827883 170.623612 
L 235.717086 169.48395 
L 235.464578 167.032842 
L 235.38873 166.348932 
L 235.231524 164.770709 
L 235.187553 164.343451 
L 235.016532 163.908131 
L 234.308445 162.106106 
L 233.943035 162.273667 
L 233.501042 162.476491 
L 229.589466 162.028216 
L 228.712354 161.953985 
L 227.566693 161.943759 
L 227.414734 161.942425 
L 226.500989 161.934264 
L 226.263602 161.932123 
L 225.33355 161.923926 
L 225.048029 161.921351 
L 224.097588 161.912908 
L 223.870046 161.91085 
L 223.145058 161.904414 
L 222.158666 161.82543 
L 213.211299 161.109228 
L 212.616937 161.060968 
L 211.892889 161.00242 
L 211.553232 160.975143 
L 209.882266 160.842345 
L 209.488643 160.811678 
L 208.201549 160.70927 
L 207.798145 160.676927 
L 207.112446 160.621524 
L 206.495576 160.571677 
L 205.89953 160.523762 
L 205.157862 160.464317 
L 204.854862 160.440121 
L 203.533295 160.334601 
L 202.189714 160.227279 
L 201.854241 160.200415 
L 201.170644 160.145672 
L 200.894136 160.123484 
L 200.559159 160.09661 
L 199.934426 160.046446 
L 199.216359 159.988681 
L 198.876203 159.961424 
L 197.581917 159.857709 
L 196.257459 159.751974 
L 195.920889 159.725038 
L 195.212097 159.668569 
L 194.613762 159.620718 
L 193.988533 159.570673 
L 193.317878 159.51675 
L 193.017265 159.492609 
L 191.639494 159.381688 
L 191.629103 158.896203 
L 191.340527 158.872394 
L 184.130683 158.281116 
L 182.972883 158.180797 
L 181.589384 158.067341 
L 180.816701 158.004037 
L 180.113344 157.946273 
L 179.378015 157.88603 
L 178.722672 157.832287 
L 178.114144 157.782291 
L 177.268744 157.71303 
L 176.67526 157.664396 
L 176.08048 157.615593 
L 175.4854 157.566698 
L 174.909546 157.519469 
L 174.286675 157.468401 
L 173.677652 157.418521 
L 172.594776 157.329718 
L 171.586508 157.247037 
L 171.303012 157.223725 
L 170.203798 157.133596 
L 169.208378 157.051931 
L 167.818598 156.938056 
L 166.753747 156.85066 
L 165.682425 156.762912 
L 163.911128 156.61765 
L 162.918498 156.536334 
L 162.132758 156.471854 
L 161.132358 156.389917 
L 160.909723 156.371539 
L 160.00983 156.297837 
L 158.793868 156.198167 
L 157.493832 156.091598 
L 156.735485 156.029408 
L 156.377024 155.988439 
L 155.663392 155.906927 
L 153.915448 155.707382 
L 153.840485 155.698783 
L 153.714455 155.67398 
L 153.080208 155.549263 
L 151.770372 155.291881 
L 150.965354 155.133594 
L 150.136568 154.970654 
L 149.028357 154.752843 
L 147.851537 154.521512 
L 146.78826 154.312373 
L 145.911337 154.140048 
L 145.400722 154.039696 
L 145.121397 153.984823 
L 144.125828 153.789031 
L 140.843718 153.143868 
L 140.51486 153.079337 
L 140.298447 153.036719 
L 140.214259 153.020157 
L 139.430806 152.866192 
L 136.023449 152.196344 
L 135.525014 152.098422 
L 134.798085 151.942212 
L 134.705469 151.922251 
L 133.390579 151.639525 
L 133.284877 151.616866 
L 132.745772 151.500921 
L 132.284898 151.401968 
L 129.332309 150.767291 
L 129.288548 150.757802 
L 127.623651 150.397809 
L 127.622726 150.397609 
L 126.857318 150.246152 
L 126.582271 150.191593 
L 123.585841 149.598378 
L 122.612693 149.405618 
" clip-path="url(#pb9433f8fc5)" style="fill: #d3d3d3"/>
   </g>
   <g id="matplotlib.axis_1">
    <g id="xtick_1">
     <g id="line2d_1">
      <defs>
       <path id="m573ba827b1" d="M 0 0 
L 0 3.5 
" style="stroke: #000000; stroke-width: 0.8"/>
      </defs>
      <g>
       <use xlink:href="#m573ba827b1" x="136.621887" y="599.21382" style="stroke: #000000; stroke-width: 0.8"/>
      </g>
     </g>
     <g id="text_1">
      <!-- 13.40 -->
      <g transform="translate(122.307824 613.812257) scale(0.1 -0.1)">
       <defs>
        <path id="DejaVuSans-31" d="M 794 531 
L 1825 531 
L 1825 4091 
L 703 3866 
L 703 4441 
L 1819 4666 
L 2450 4666 
L 2450 531 
L 3481 531 
L 3481 0 
L 794 0 
L 794 531 
z
" transform="scale(0.015625)"/>
        <path id="DejaVuSans-33" d="M 2597 2516 
Q 3050 2419 3304 2112 
Q 3559 1806 3559 1356 
Q 3559 666 3084 287 
Q 2609 -91 1734 -91 
Q 1441 -91 1130 -33 
Q 819 25 488 141 
L 488 750 
Q 750 597 1062 519 
Q 1375 441 1716 441 
Q 2309 441 2620 675 
Q 2931 909 2931 1356 
Q 2931 1769 2642 2001 
Q 2353 2234 1838 2234 
L 1294 2234 
L 1294 2753 
L 1863 2753 
Q 2328 2753 2575 2939 
Q 2822 3125 2822 3475 
Q 2822 3834 2567 4026 
Q 2313 4219 1838 4219 
Q 1578 4219 1281 4162 
Q 984 4106 628 3988 
L 628 4550 
Q 988 4650 1302 4700 
Q 1616 4750 1894 4750 
Q 2613 4750 3031 4423 
Q 3450 4097 3450 3541 
Q 3450 3153 3228 2886 
Q 3006 2619 2597 2516 
z
" transform="scale(0.015625)"/>
        <path id="DejaVuSans-2e" d="M 684 794 
L 1344 794 
L 1344 0 
L 684 0 
L 684 794 
z
" transform="scale(0.015625)"/>
        <path id="DejaVuSans-34" d="M 2419 4116 
L 825 1625 
L 2419 1625 
L 2419 4116 
z
M 2253 4666 
L 3047 4666 
L 3047 1625 
L 3713 1625 
L 3713 1100 
L 3047 1100 
L 3047 0 
L 2419 0 
L 2419 1100 
L 313 1100 
L 313 1709 
L 2253 4666 
z
" transform="scale(0.015625)"/>
        <path id="DejaVuSans-30" d="M 2034 4250 
Q 1547 4250 1301 3770 
Q 1056 3291 1056 2328 
Q 1056 1369 1301 889 
Q 1547 409 2034 409 
Q 2525 409 2770 889 
Q 3016 1369 3016 2328 
Q 3016 3291 2770 3770 
Q 2525 4250 2034 4250 
z
M 2034 4750 
Q 2819 4750 3233 4129 
Q 3647 3509 3647 2328 
Q 3647 1150 3233 529 
Q 2819 -91 2034 -91 
Q 1250 -91 836 529 
Q 422 1150 422 2328 
Q 422 3509 836 4129 
Q 1250 4750 2034 4750 
z
" transform="scale(0.015625)"/>
       </defs>
       <use xlink:href="#DejaVuSans-31"/>
       <use xlink:href="#DejaVuSans-33" x="63.623047"/>
       <use xlink:href="#DejaVuSans-2e" x="127.246094"/>
       <use xlink:href="#DejaVuSans-34" x="159.033203"/>
       <use xlink:href="#DejaVuSans-30" x="222.65625"/>
      </g>
     </g>
    </g>
    <g id="xtick_2">
     <g id="line2d_2">
      <g>
       <use xlink:href="#m573ba827b1" x="204.023482" y="599.21382" style="stroke: #000000; stroke-width: 0.8"/>
      </g>
     </g>
     <g id="text_2">
      <!-- 13.41 -->
      <g transform="translate(189.709419 613.812257) scale(0.1 -0.1)">
       <use xlink:href="#DejaVuSans-31"/>
       <use xlink:href="#DejaVuSans-33" x="63.623047"/>
       <use xlink:href="#DejaVuSans-2e" x="127.246094"/>
       <use xlink:href="#DejaVuSans-34" x="159.033203"/>
       <use xlink:href="#DejaVuSans-31" x="222.65625"/>
      </g>
     </g>
    </g>
    <g id="xtick_3">
     <g id="line2d_3">
      <g>
       <use xlink:href="#m573ba827b1" x="271.425077" y="599.21382" style="stroke: #000000; stroke-width: 0.8"/>
      </g>
     </g>
     <g id="text_3">
      <!-- 13.42 -->
      <g transform="translate(257.111015 613.812257) scale(0.1 -0.1)">
       <defs>
        <path id="DejaVuSans-32" d="M 1228 531 
L 3431 531 
L 3431 0 
L 469 0 
L 469 531 
Q 828 903 1448 1529 
Q 2069 2156 2228 2338 
Q 2531 2678 2651 2914 
Q 2772 3150 2772 3378 
Q 2772 3750 2511 3984 
Q 2250 4219 1831 4219 
Q 1534 4219 1204 4116 
Q 875 4013 500 3803 
L 500 4441 
Q 881 4594 1212 4672 
Q 1544 4750 1819 4750 
Q 2544 4750 2975 4387 
Q 3406 4025 3406 3419 
Q 3406 3131 3298 2873 
Q 3191 2616 2906 2266 
Q 2828 2175 2409 1742 
Q 1991 1309 1228 531 
z
" transform="scale(0.015625)"/>
       </defs>
       <use xlink:href="#DejaVuSans-31"/>
       <use xlink:href="#DejaVuSans-33" x="63.623047"/>
       <use xlink:href="#DejaVuSans-2e" x="127.246094"/>
       <use xlink:href="#DejaVuSans-34" x="159.033203"/>
       <use xlink:href="#DejaVuSans-32" x="222.65625"/>
      </g>
     </g>
    </g>
    <g id="xtick_4">
     <g id="line2d_4">
      <g>
       <use xlink:href="#m573ba827b1" x="338.826672" y="599.21382" style="stroke: #000000; stroke-width: 0.8"/>
      </g>
     </g>
     <g id="text_4">
      <!-- 13.43 -->
      <g transform="translate(324.51261 613.812257) scale(0.1 -0.1)">
       <use xlink:href="#DejaVuSans-31"/>
       <use xlink:href="#DejaVuSans-33" x="63.623047"/>
       <use xlink:href="#DejaVuSans-2e" x="127.246094"/>
       <use xlink:href="#DejaVuSans-34" x="159.033203"/>
       <use xlink:href="#DejaVuSans-33" x="222.65625"/>
      </g>
     </g>
    </g>
    <g id="xtick_5">
     <g id="line2d_5">
      <g>
       <use xlink:href="#m573ba827b1" x="406.228268" y="599.21382" style="stroke: #000000; stroke-width: 0.8"/>
      </g>
     </g>
     <g id="text_5">
      <!-- 13.44 -->
      <g transform="translate(391.914205 613.812257) scale(0.1 -0.1)">
       <use xlink:href="#DejaVuSans-31"/>
       <use xlink:href="#DejaVuSans-33" x="63.623047"/>
       <use xlink:href="#DejaVuSans-2e" x="127.246094"/>
       <use xlink:href="#DejaVuSans-34" x="159.033203"/>
       <use xlink:href="#DejaVuSans-34" x="222.65625"/>
      </g>
     </g>
    </g>
    <g id="xtick_6">
     <g id="line2d_6">
      <g>
       <use xlink:href="#m573ba827b1" x="473.629863" y="599.21382" style="stroke: #000000; stroke-width: 0.8"/>
      </g>
     </g>
     <g id="text_6">
      <!-- 13.45 -->
      <g transform="translate(459.3158 613.812257) scale(0.1 -0.1)">
       <defs>
        <path id="DejaVuSans-35" d="M 691 4666 
L 3169 4666 
L 3169 4134 
L 1269 4134 
L 1269 2991 
Q 1406 3038 1543 3061 
Q 1681 3084 1819 3084 
Q 2600 3084 3056 2656 
Q 3513 2228 3513 1497 
Q 3513 744 3044 326 
Q 2575 -91 1722 -91 
Q 1428 -91 1123 -41 
Q 819 9 494 109 
L 494 744 
Q 775 591 1075 516 
Q 1375 441 1709 441 
Q 2250 441 2565 725 
Q 2881 1009 2881 1497 
Q 2881 1984 2565 2268 
Q 2250 2553 1709 2553 
Q 1456 2553 1204 2497 
Q 953 2441 691 2322 
L 691 4666 
z
" transform="scale(0.015625)"/>
       </defs>
       <use xlink:href="#DejaVuSans-31"/>
       <use xlink:href="#DejaVuSans-33" x="63.623047"/>
       <use xlink:href="#DejaVuSans-2e" x="127.246094"/>
       <use xlink:href="#DejaVuSans-34" x="159.033203"/>
       <use xlink:href="#DejaVuSans-35" x="222.65625"/>
      </g>
     </g>
    </g>
    <g id="xtick_7">
     <g id="line2d_7">
      <g>
       <use xlink:href="#m573ba827b1" x="541.031458" y="599.21382" style="stroke: #000000; stroke-width: 0.8"/>
      </g>
     </g>
     <g id="text_7">
      <!-- 13.46 -->
      <g transform="translate(526.717396 613.812257) scale(0.1 -0.1)">
       <defs>
        <path id="DejaVuSans-36" d="M 2113 2584 
Q 1688 2584 1439 2293 
Q 1191 2003 1191 1497 
Q 1191 994 1439 701 
Q 1688 409 2113 409 
Q 2538 409 2786 701 
Q 3034 994 3034 1497 
Q 3034 2003 2786 2293 
Q 2538 2584 2113 2584 
z
M 3366 4563 
L 3366 3988 
Q 3128 4100 2886 4159 
Q 2644 4219 2406 4219 
Q 1781 4219 1451 3797 
Q 1122 3375 1075 2522 
Q 1259 2794 1537 2939 
Q 1816 3084 2150 3084 
Q 2853 3084 3261 2657 
Q 3669 2231 3669 1497 
Q 3669 778 3244 343 
Q 2819 -91 2113 -91 
Q 1303 -91 875 529 
Q 447 1150 447 2328 
Q 447 3434 972 4092 
Q 1497 4750 2381 4750 
Q 2619 4750 2861 4703 
Q 3103 4656 3366 4563 
z
" transform="scale(0.015625)"/>
       </defs>
       <use xlink:href="#DejaVuSans-31"/>
       <use xlink:href="#DejaVuSans-33" x="63.623047"/>
       <use xlink:href="#DejaVuSans-2e" x="127.246094"/>
       <use xlink:href="#DejaVuSans-34" x="159.033203"/>
       <use xlink:href="#DejaVuSans-36" x="222.65625"/>
      </g>
     </g>
    </g>
    <g id="xtick_8">
     <g id="line2d_8">
      <g>
       <use xlink:href="#m573ba827b1" x="608.433053" y="599.21382" style="stroke: #000000; stroke-width: 0.8"/>
      </g>
     </g>
     <g id="text_8">
      <!-- 13.47 -->
      <g transform="translate(594.118991 613.812257) scale(0.1 -0.1)">
       <defs>
        <path id="DejaVuSans-37" d="M 525 4666 
L 3525 4666 
L 3525 4397 
L 1831 0 
L 1172 0 
L 2766 4134 
L 525 4134 
L 525 4666 
z
" transform="scale(0.015625)"/>
       </defs>
       <use xlink:href="#DejaVuSans-31"/>
       <use xlink:href="#DejaVuSans-33" x="63.623047"/>
       <use xlink:href="#DejaVuSans-2e" x="127.246094"/>
       <use xlink:href="#DejaVuSans-34" x="159.033203"/>
       <use xlink:href="#DejaVuSans-37" x="222.65625"/>
      </g>
     </g>
    </g>
   </g>
   <g id="matplotlib.axis_2">
    <g id="ytick_1">
     <g id="line2d_9">
      <defs>
       <path id="ma3030fd5b1" d="M 0 0 
L -3.5 0 
" style="stroke: #000000; stroke-width: 0.8"/>
      </defs>
      <g>
       <use xlink:href="#ma3030fd5b1" x="90" y="576.991778" style="stroke: #000000; stroke-width: 0.8"/>
      </g>
     </g>
     <g id="text_9">
      <!-- 52.520 -->
      <g transform="translate(48.009375 580.790996) scale(0.1 -0.1)">
       <use xlink:href="#DejaVuSans-35"/>
       <use xlink:href="#DejaVuSans-32" x="63.623047"/>
       <use xlink:href="#DejaVuSans-2e" x="127.246094"/>
       <use xlink:href="#DejaVuSans-35" x="159.033203"/>
       <use xlink:href="#DejaVuSans-32" x="222.65625"/>
       <use xlink:href="#DejaVuSans-30" x="286.279297"/>
      </g>
     </g>
    </g>
    <g id="ytick_2">
     <g id="line2d_10">
      <g>
       <use xlink:href="#ma3030fd5b1" x="90" y="521.584314" style="stroke: #000000; stroke-width: 0.8"/>
      </g>
     </g>
     <g id="text_10">
      <!-- 52.525 -->
      <g transform="translate(48.009375 525.383533) scale(0.1 -0.1)">
       <use xlink:href="#DejaVuSans-35"/>
       <use xlink:href="#DejaVuSans-32" x="63.623047"/>
       <use xlink:href="#DejaVuSans-2e" x="127.246094"/>
       <use xlink:href="#DejaVuSans-35" x="159.033203"/>
       <use xlink:href="#DejaVuSans-32" x="222.65625"/>
       <use xlink:href="#DejaVuSans-35" x="286.279297"/>
      </g>
     </g>
    </g>
    <g id="ytick_3">
     <g id="line2d_11">
      <g>
       <use xlink:href="#ma3030fd5b1" x="90" y="466.176851" style="stroke: #000000; stroke-width: 0.8"/>
      </g>
     </g>
     <g id="text_11">
      <!-- 52.530 -->
      <g transform="translate(48.009375 469.97607) scale(0.1 -0.1)">
       <use xlink:href="#DejaVuSans-35"/>
       <use xlink:href="#DejaVuSans-32" x="63.623047"/>
       <use xlink:href="#DejaVuSans-2e" x="127.246094"/>
       <use xlink:href="#DejaVuSans-35" x="159.033203"/>
       <use xlink:href="#DejaVuSans-33" x="222.65625"/>
       <use xlink:href="#DejaVuSans-30" x="286.279297"/>
      </g>
     </g>
    </g>
    <g id="ytick_4">
     <g id="line2d_12">
      <g>
       <use xlink:href="#ma3030fd5b1" x="90" y="410.769388" style="stroke: #000000; stroke-width: 0.8"/>
      </g>
     </g>
     <g id="text_12">
      <!-- 52.535 -->
      <g transform="translate(48.009375 414.568607) scale(0.1 -0.1)">
       <use xlink:href="#DejaVuSans-35"/>
       <use xlink:href="#DejaVuSans-32" x="63.623047"/>
       <use xlink:href="#DejaVuSans-2e" x="127.246094"/>
       <use xlink:href="#DejaVuSans-35" x="159.033203"/>
       <use xlink:href="#DejaVuSans-33" x="222.65625"/>
       <use xlink:href="#DejaVuSans-35" x="286.279297"/>
      </g>
     </g>
    </g>
    <g id="ytick_5">
     <g id="line2d_13">
      <g>
       <use xlink:href="#ma3030fd5b1" x="90" y="355.361925" style="stroke: #000000; stroke-width: 0.8"/>
      </g>
     </g>
     <g id="text_13">
      <!-- 52.540 -->
      <g transform="translate(48.009375 359.161143) scale(0.1 -0.1)">
       <use xlink:href="#DejaVuSans-35"/>
       <use xlink:href="#DejaVuSans-32" x="63.623047"/>
       <use xlink:href="#DejaVuSans-2e" x="127.246094"/>
       <use xlink:href="#DejaVuSans-35" x="159.033203"/>
       <use xlink:href="#DejaVuSans-34" x="222.65625"/>
       <use xlink:href="#DejaVuSans-30" x="286.279297"/>
      </g>
     </g>
    </g>
    <g id="ytick_6">
     <g id="line2d_14">
      <g>
       <use xlink:href="#ma3030fd5b1" x="90" y="299.954461" style="stroke: #000000; stroke-width: 0.8"/>
      </g>
     </g>
     <g id="text_14">
      <!-- 52.545 -->
      <g transform="translate(48.009375 303.75368) scale(0.1 -0.1)">
       <use xlink:href="#DejaVuSans-35"/>
       <use xlink:href="#DejaVuSans-32" x="63.623047"/>
       <use xlink:href="#DejaVuSans-2e" x="127.246094"/>
       <use xlink:href="#DejaVuSans-35" x="159.033203"/>
       <use xlink:href="#DejaVuSans-34" x="222.65625"/>
       <use xlink:href="#DejaVuSans-35" x="286.279297"/>
      </g>
     </g>
    </g>
    <g id="ytick_7">
     <g id="line2d_15">
      <g>
       <use xlink:href="#ma3030fd5b1" x="90" y="244.546998" style="stroke: #000000; stroke-width: 0.8"/>
      </g>
     </g>
     <g id="text_15">
      <!-- 52.550 -->
      <g transform="translate(48.009375 248.346217) scale(0.1 -0.1)">
       <use xlink:href="#DejaVuSans-35"/>
       <use xlink:href="#DejaVuSans-32" x="63.623047"/>
       <use xlink:href="#DejaVuSans-2e" x="127.246094"/>
       <use xlink:href="#DejaVuSans-35" x="159.033203"/>
       <use xlink:href="#DejaVuSans-35" x="222.65625"/>
       <use xlink:href="#DejaVuSans-30" x="286.279297"/>
      </g>
     </g>
    </g>
    <g id="ytick_8">
     <g id="line2d_16">
      <g>
       <use xlink:href="#ma3030fd5b1" x="90" y="189.139535" style="stroke: #000000; stroke-width: 0.8"/>
      </g>
     </g>
     <g id="text_16">
      <!-- 52.555 -->
      <g transform="translate(48.009375 192.938754) scale(0.1 -0.1)">
       <use xlink:href="#DejaVuSans-35"/>
       <use xlink:href="#DejaVuSans-32" x="63.623047"/>
       <use xlink:href="#DejaVuSans-2e" x="127.246094"/>
       <use xlink:href="#DejaVuSans-35" x="159.033203"/>
       <use xlink:href="#DejaVuSans-35" x="222.65625"/>
       <use xlink:href="#DejaVuSans-35" x="286.279297"/>
      </g>
     </g>
    </g>
    <g id="ytick_9">
     <g id="line2d_17">
      <g>
       <use xlink:href="#ma3030fd5b1" x="90" y="133.732072" style="stroke: #000000; stroke-width: 0.8"/>
      </g>
     </g>
     <g id="text_17">
      <!-- 52.560 -->
      <g transform="translate(48.009375 137.531291) scale(0.1 -0.1)">
       <use xlink:href="#DejaVuSans-35"/>
       <use xlink:href="#DejaVuSans-32" x="63.623047"/>
       <use xlink:href="#DejaVuSans-2e" x="127.246094"/>
       <use xlink:href="#DejaVuSans-35" x="159.033203"/>
       <use xlink:href="#DejaVuSans-36" x="222.65625"/>
       <use xlink:href="#DejaVuSans-30" x="286.279297"/>
      </g>
     </g>
    </g>
   </g>
   <g id="LineCollection_1">
    <path d="M 384.568091 357.991563 
L 382.723309 356.925523 
L 380.879202 355.876106 
L 380.451202 355.633421 
L 378.976455 354.792336 
L 378.860524 354.726955 
L 376.500794 353.383878 
L 376.303981 353.271955 
L 374.670167 352.342218 
L 373.121278 351.460131 
L 370.564062 350.005131 
L 370.444761 349.937534 
L 368.804206 349.003364 
" clip-path="url(#pb9433f8fc5)" style="fill: none; stroke: #ff0000; stroke-opacity: 0.7; stroke-width: 0.5"/>
    <path d="M 376.574936 375.565702 
L 377.273216 376.056612 
L 377.93173 376.526467 
" clip-path="url(#pb9433f8fc5)" style="fill: none; stroke: #ff0000; stroke-opacity: 0.7; stroke-width: 0.5"/>
    <path d="M 401.760216 391.281475 
L 401.639567 390.808295 
L 401.671246 390.664236 
L 401.737973 390.359495 
L 405.597389 385.467016 
L 405.88789 385.09911 
" clip-path="url(#pb9433f8fc5)" style="fill: none; stroke: #ff0000; stroke-opacity: 0.7; stroke-width: 0.5"/>
    <path d="M 272.252769 223.458918 
L 272.583037 222.878248 
L 275.500178 217.738651 
L 276.507831 216.005506 
L 277.172411 214.863004 
L 277.379334 214.489558 
L 277.595693 213.540982 
L 277.64894 213.307162 
L 277.797898 212.654462 
L 277.87204 212.328667 
" clip-path="url(#pb9433f8fc5)" style="fill: none; stroke: #ff0000; stroke-opacity: 0.7; stroke-width: 0.5"/>
    <path d="M 517.211734 513.740834 
L 516.466273 514.048899 
L 513.280199 515.332136 
L 512.30355 515.7488 
L 510.087386 516.692943 
L 507.325942 517.833229 
L 506.749659 518.070373 
" clip-path="url(#pb9433f8fc5)" style="fill: none; stroke: #ff0000; stroke-opacity: 0.7; stroke-width: 0.5"/>
    <path d="M 384.064601 381.355782 
L 386.560482 383.331612 
L 386.720898 383.459049 
L 387.994114 384.669148 
" clip-path="url(#pb9433f8fc5)" style="fill: none; stroke: #ff0000; stroke-opacity: 0.7; stroke-width: 0.5"/>
    <path d="M 377.93173 376.526467 
L 378.727743 377.138166 
" clip-path="url(#pb9433f8fc5)" style="fill: none; stroke: #ff0000; stroke-opacity: 0.7; stroke-width: 0.5"/>
    <path d="M 273.598779 223.160826 
L 273.861645 222.727539 
L 273.914218 222.637779 
L 273.956681 222.566858 
L 275.87493 219.3499 
L 275.924134 219.274546 
L 275.978729 219.183678 
L 276.267208 218.696092 
L 277.990667 219.572638 
L 278.777243 219.969356 
L 278.946421 220.076846 
L 280.68336 221.184995 
L 280.581584 221.342353 
L 278.999668 223.827931 
L 278.83386 224.079481 
L 278.561558 224.500578 
L 278.187479 225.022516 
L 276.540858 224.345437 
L 276.322477 224.259002 
L 273.598779 223.160826 
" clip-path="url(#pb9433f8fc5)" style="fill: none; stroke: #ff0000; stroke-opacity: 0.7; stroke-width: 0.5"/>
    <path d="M 505.291088 514.4434 
L 505.860632 514.214014 
L 511.808822 511.821519 
L 515.00231 510.475118 
L 515.724855 510.178134 
" clip-path="url(#pb9433f8fc5)" style="fill: none; stroke: #ff0000; stroke-opacity: 0.7; stroke-width: 0.5"/>
    <path d="M 526.633129 543.656431 
L 526.816462 543.197658 
L 527.319952 541.939908 
L 529.777414 535.847304 
L 531.107247 532.562749 
L 532.069068 530.185769 
L 532.368331 529.433336 
" clip-path="url(#pb9433f8fc5)" style="fill: none; stroke: #ff0000; stroke-opacity: 0.7; stroke-width: 0.5"/>
    <path d="M 408.803009 396.829978 
L 408.302889 396.435477 
L 401.760216 391.281475 
" clip-path="url(#pb9433f8fc5)" style="fill: none; stroke: #ff0000; stroke-opacity: 0.7; stroke-width: 0.5"/>
    <path d="M 387.942215 297.067733 
L 386.296942 299.914568 
L 389.234977 301.541331 
L 387.942215 297.067733 
" clip-path="url(#pb9433f8fc5)" style="fill: none; stroke: #ff0000; stroke-opacity: 0.7; stroke-width: 0.5"/>
    <path d="M 281.0844 362.21472 
L 281.184154 362.086174 
L 281.280538 361.90333 
L 281.840646 360.856129 
" clip-path="url(#pb9433f8fc5)" style="fill: none; stroke: #ff0000; stroke-opacity: 0.7; stroke-width: 0.5"/>
    <path d="M 385.63371 358.607694 
L 384.8013 358.130082 
L 384.568091 357.991563 
" clip-path="url(#pb9433f8fc5)" style="fill: none; stroke: #ff0000; stroke-opacity: 0.7; stroke-width: 0.5"/>
    <path d="M 378.727743 377.138166 
L 378.927925 377.295523 
L 382.956519 380.478128 
" clip-path="url(#pb9433f8fc5)" style="fill: none; stroke: #ff0000; stroke-opacity: 0.7; stroke-width: 0.5"/>
    <path d="M 382.956519 380.478128 
L 384.064601 381.355782 
" clip-path="url(#pb9433f8fc5)" style="fill: none; stroke: #ff0000; stroke-opacity: 0.7; stroke-width: 0.5"/>
    <path d="M 389.015248 385.697511 
L 389.883381 386.608409 
L 390.63019 387.409601 
" clip-path="url(#pb9433f8fc5)" style="fill: none; stroke: #ff0000; stroke-opacity: 0.7; stroke-width: 0.5"/>
    <path d="M 387.994114 384.669148 
L 389.015248 385.697511 
" clip-path="url(#pb9433f8fc5)" style="fill: none; stroke: #ff0000; stroke-opacity: 0.7; stroke-width: 0.5"/>
    <path d="M 422.044726 453.344483 
L 420.943384 454.147891 
L 420.67917 454.419387 
" clip-path="url(#pb9433f8fc5)" style="fill: none; stroke: #ff0000; stroke-opacity: 0.7; stroke-width: 0.5"/>
   </g>
   <g id="patch_3">
    <path d="M 90 599.21382 
L 90 127.98618 
" style="fill: none; stroke: #000000; stroke-width: 0.8; stroke-linejoin: miter; stroke-linecap: square"/>
   </g>
   <g id="patch_4">
    <path d="M 648 599.21382 
L 648 127.98618 
" style="fill: none; stroke: #000000; stroke-width: 0.8; stroke-linejoin: miter; stroke-linecap: square"/>
   </g>
   <g id="patch_5">
    <path d="M 90 599.21382 
L 648 599.21382 
" style="fill: none; stroke: #000000; stroke-width: 0.8; stroke-linejoin: miter; stroke-linecap: square"/>
   </g>
   <g id="patch_6">
    <path d="M 90 127.98618 
L 648 127.98618 
" style="fill: none; stroke: #000000; stroke-width: 0.8; stroke-linejoin: miter; stroke-linecap: square"/>
   </g>
   <g id="text_18">
    <!-- Nrdlicher_Prenzlauer_Berg -->
    <g transform="translate(281.225855 338.898126) scale(0.12 -0.12)">
     <defs>
      <path id="DejaVuSans-4e" d="M 628 4666 
L 1478 4666 
L 3547 763 
L 3547 4666 
L 4159 4666 
L 4159 0 
L 3309 0 
L 1241 3903 
L 1241 0 
L 628 0 
L 628 4666 
z
" transform="scale(0.015625)"/>
      <path id="DejaVuSans-f6" d="M 1959 3097 
Q 1497 3097 1228 2736 
Q 959 2375 959 1747 
Q 959 1119 1226 758 
Q 1494 397 1959 397 
Q 2419 397 2687 759 
Q 2956 1122 2956 1747 
Q 2956 2369 2687 2733 
Q 2419 3097 1959 3097 
z
M 1959 3584 
Q 2709 3584 3137 3096 
Q 3566 2609 3566 1747 
Q 3566 888 3137 398 
Q 2709 -91 1959 -91 
Q 1206 -91 779 398 
Q 353 888 353 1747 
Q 353 2609 779 3096 
Q 1206 3584 1959 3584 
z
M 2254 4850 
L 2888 4850 
L 2888 4219 
L 2254 4219 
L 2254 4850 
z
M 1032 4850 
L 1666 4850 
L 1666 4219 
L 1032 4219 
L 1032 4850 
z
" transform="scale(0.015625)"/>
      <path id="DejaVuSans-72" d="M 2631 2963 
Q 2534 3019 2420 3045 
Q 2306 3072 2169 3072 
Q 1681 3072 1420 2755 
Q 1159 2438 1159 1844 
L 1159 0 
L 581 0 
L 581 3500 
L 1159 3500 
L 1159 2956 
Q 1341 3275 1631 3429 
Q 1922 3584 2338 3584 
Q 2397 3584 2469 3576 
Q 2541 3569 2628 3553 
L 2631 2963 
z
" transform="scale(0.015625)"/>
      <path id="DejaVuSans-64" d="M 2906 2969 
L 2906 4863 
L 3481 4863 
L 3481 0 
L 2906 0 
L 2906 525 
Q 2725 213 2448 61 
Q 2172 -91 1784 -91 
Q 1150 -91 751 415 
Q 353 922 353 1747 
Q 353 2572 751 3078 
Q 1150 3584 1784 3584 
Q 2172 3584 2448 3432 
Q 2725 3281 2906 2969 
z
M 947 1747 
Q 947 1113 1208 752 
Q 1469 391 1925 391 
Q 2381 391 2643 752 
Q 2906 1113 2906 1747 
Q 2906 2381 2643 2742 
Q 2381 3103 1925 3103 
Q 1469 3103 1208 2742 
Q 947 2381 947 1747 
z
" transform="scale(0.015625)"/>
      <path id="DejaVuSans-6c" d="M 603 4863 
L 1178 4863 
L 1178 0 
L 603 0 
L 603 4863 
z
" transform="scale(0.015625)"/>
      <path id="DejaVuSans-69" d="M 603 3500 
L 1178 3500 
L 1178 0 
L 603 0 
L 603 3500 
z
M 603 4863 
L 1178 4863 
L 1178 4134 
L 603 4134 
L 603 4863 
z
" transform="scale(0.015625)"/>
      <path id="DejaVuSans-63" d="M 3122 3366 
L 3122 2828 
Q 2878 2963 2633 3030 
Q 2388 3097 2138 3097 
Q 1578 3097 1268 2742 
Q 959 2388 959 1747 
Q 959 1106 1268 751 
Q 1578 397 2138 397 
Q 2388 397 2633 464 
Q 2878 531 3122 666 
L 3122 134 
Q 2881 22 2623 -34 
Q 2366 -91 2075 -91 
Q 1284 -91 818 406 
Q 353 903 353 1747 
Q 353 2603 823 3093 
Q 1294 3584 2113 3584 
Q 2378 3584 2631 3529 
Q 2884 3475 3122 3366 
z
" transform="scale(0.015625)"/>
      <path id="DejaVuSans-68" d="M 3513 2113 
L 3513 0 
L 2938 0 
L 2938 2094 
Q 2938 2591 2744 2837 
Q 2550 3084 2163 3084 
Q 1697 3084 1428 2787 
Q 1159 2491 1159 1978 
L 1159 0 
L 581 0 
L 581 4863 
L 1159 4863 
L 1159 2956 
Q 1366 3272 1645 3428 
Q 1925 3584 2291 3584 
Q 2894 3584 3203 3211 
Q 3513 2838 3513 2113 
z
" transform="scale(0.015625)"/>
      <path id="DejaVuSans-65" d="M 3597 1894 
L 3597 1613 
L 953 1613 
Q 991 1019 1311 708 
Q 1631 397 2203 397 
Q 2534 397 2845 478 
Q 3156 559 3463 722 
L 3463 178 
Q 3153 47 2828 -22 
Q 2503 -91 2169 -91 
Q 1331 -91 842 396 
Q 353 884 353 1716 
Q 353 2575 817 3079 
Q 1281 3584 2069 3584 
Q 2775 3584 3186 3129 
Q 3597 2675 3597 1894 
z
M 3022 2063 
Q 3016 2534 2758 2815 
Q 2500 3097 2075 3097 
Q 1594 3097 1305 2825 
Q 1016 2553 972 2059 
L 3022 2063 
z
" transform="scale(0.015625)"/>
      <path id="DejaVuSans-5f" d="M 3263 -1063 
L 3263 -1509 
L -63 -1509 
L -63 -1063 
L 3263 -1063 
z
" transform="scale(0.015625)"/>
      <path id="DejaVuSans-50" d="M 1259 4147 
L 1259 2394 
L 2053 2394 
Q 2494 2394 2734 2622 
Q 2975 2850 2975 3272 
Q 2975 3691 2734 3919 
Q 2494 4147 2053 4147 
L 1259 4147 
z
M 628 4666 
L 2053 4666 
Q 2838 4666 3239 4311 
Q 3641 3956 3641 3272 
Q 3641 2581 3239 2228 
Q 2838 1875 2053 1875 
L 1259 1875 
L 1259 0 
L 628 0 
L 628 4666 
z
" transform="scale(0.015625)"/>
      <path id="DejaVuSans-6e" d="M 3513 2113 
L 3513 0 
L 2938 0 
L 2938 2094 
Q 2938 2591 2744 2837 
Q 2550 3084 2163 3084 
Q 1697 3084 1428 2787 
Q 1159 2491 1159 1978 
L 1159 0 
L 581 0 
L 581 3500 
L 1159 3500 
L 1159 2956 
Q 1366 3272 1645 3428 
Q 1925 3584 2291 3584 
Q 2894 3584 3203 3211 
Q 3513 2838 3513 2113 
z
" transform="scale(0.015625)"/>
      <path id="DejaVuSans-7a" d="M 353 3500 
L 3084 3500 
L 3084 2975 
L 922 459 
L 3084 459 
L 3084 0 
L 275 0 
L 275 525 
L 2438 3041 
L 353 3041 
L 353 3500 
z
" transform="scale(0.015625)"/>
      <path id="DejaVuSans-61" d="M 2194 1759 
Q 1497 1759 1228 1600 
Q 959 1441 959 1056 
Q 959 750 1161 570 
Q 1363 391 1709 391 
Q 2188 391 2477 730 
Q 2766 1069 2766 1631 
L 2766 1759 
L 2194 1759 
z
M 3341 1997 
L 3341 0 
L 2766 0 
L 2766 531 
Q 2569 213 2275 61 
Q 1981 -91 1556 -91 
Q 1019 -91 701 211 
Q 384 513 384 1019 
Q 384 1609 779 1909 
Q 1175 2209 1959 2209 
L 2766 2209 
L 2766 2266 
Q 2766 2663 2505 2880 
Q 2244 3097 1772 3097 
Q 1472 3097 1187 3025 
Q 903 2953 641 2809 
L 641 3341 
Q 956 3463 1253 3523 
Q 1550 3584 1831 3584 
Q 2591 3584 2966 3190 
Q 3341 2797 3341 1997 
z
" transform="scale(0.015625)"/>
      <path id="DejaVuSans-75" d="M 544 1381 
L 544 3500 
L 1119 3500 
L 1119 1403 
Q 1119 906 1312 657 
Q 1506 409 1894 409 
Q 2359 409 2629 706 
Q 2900 1003 2900 1516 
L 2900 3500 
L 3475 3500 
L 3475 0 
L 2900 0 
L 2900 538 
Q 2691 219 2414 64 
Q 2138 -91 1772 -91 
Q 1169 -91 856 284 
Q 544 659 544 1381 
z
M 1991 3584 
L 1991 3584 
z
" transform="scale(0.015625)"/>
      <path id="DejaVuSans-42" d="M 1259 2228 
L 1259 519 
L 2272 519 
Q 2781 519 3026 730 
Q 3272 941 3272 1375 
Q 3272 1813 3026 2020 
Q 2781 2228 2272 2228 
L 1259 2228 
z
M 1259 4147 
L 1259 2741 
L 2194 2741 
Q 2656 2741 2882 2914 
Q 3109 3088 3109 3444 
Q 3109 3797 2882 3972 
Q 2656 4147 2194 4147 
L 1259 4147 
z
M 628 4666 
L 2241 4666 
Q 2963 4666 3353 4366 
Q 3744 4066 3744 3513 
Q 3744 3084 3544 2831 
Q 3344 2578 2956 2516 
Q 3422 2416 3680 2098 
Q 3938 1781 3938 1306 
Q 3938 681 3513 340 
Q 3088 0 2303 0 
L 628 0 
L 628 4666 
z
" transform="scale(0.015625)"/>
      <path id="DejaVuSans-67" d="M 2906 1791 
Q 2906 2416 2648 2759 
Q 2391 3103 1925 3103 
Q 1463 3103 1205 2759 
Q 947 2416 947 1791 
Q 947 1169 1205 825 
Q 1463 481 1925 481 
Q 2391 481 2648 825 
Q 2906 1169 2906 1791 
z
M 3481 434 
Q 3481 -459 3084 -895 
Q 2688 -1331 1869 -1331 
Q 1566 -1331 1297 -1286 
Q 1028 -1241 775 -1147 
L 775 -588 
Q 1028 -725 1275 -790 
Q 1522 -856 1778 -856 
Q 2344 -856 2625 -561 
Q 2906 -266 2906 331 
L 2906 616 
Q 2728 306 2450 153 
Q 2172 0 1784 0 
Q 1141 0 747 490 
Q 353 981 353 1791 
Q 353 2603 747 3093 
Q 1141 3584 1784 3584 
Q 2172 3584 2450 3431 
Q 2728 3278 2906 2969 
L 2906 3500 
L 3481 3500 
L 3481 434 
z
" transform="scale(0.015625)"/>
     </defs>
     <use xlink:href="#DejaVuSans-4e"/>
     <use xlink:href="#DejaVuSans-f6" x="74.804688"/>
     <use xlink:href="#DejaVuSans-72" x="135.986328"/>
     <use xlink:href="#DejaVuSans-64" x="175.349609"/>
     <use xlink:href="#DejaVuSans-6c" x="238.826172"/>
     <use xlink:href="#DejaVuSans-69" x="266.609375"/>
     <use xlink:href="#DejaVuSans-63" x="294.392578"/>
     <use xlink:href="#DejaVuSans-68" x="349.373047"/>
     <use xlink:href="#DejaVuSans-65" x="412.751953"/>
     <use xlink:href="#DejaVuSans-72" x="474.275391"/>
     <use xlink:href="#DejaVuSans-5f" x="515.388672"/>
     <use xlink:href="#DejaVuSans-50" x="565.388672"/>
     <use xlink:href="#DejaVuSans-72" x="623.941406"/>
     <use xlink:href="#DejaVuSans-65" x="662.804688"/>
     <use xlink:href="#DejaVuSans-6e" x="724.328125"/>
     <use xlink:href="#DejaVuSans-7a" x="787.707031"/>
     <use xlink:href="#DejaVuSans-6c" x="840.197266"/>
     <use xlink:href="#DejaVuSans-61" x="867.980469"/>
     <use xlink:href="#DejaVuSans-75" x="929.259766"/>
     <use xlink:href="#DejaVuSans-65" x="992.638672"/>
     <use xlink:href="#DejaVuSans-72" x="1054.162109"/>
     <use xlink:href="#DejaVuSans-5f" x="1095.275391"/>
     <use xlink:href="#DejaVuSans-42" x="1145.275391"/>
     <use xlink:href="#DejaVuSans-65" x="1213.878906"/>
     <use xlink:href="#DejaVuSans-72" x="1275.402344"/>
     <use xlink:href="#DejaVuSans-67" x="1314.765625"/>
    </g>
   </g>
  </g>
 </g>
 <defs>
  <clipPath id="pb9433f8fc5">
   <rect x="90" y="127.98618" width="558" height="471.22764"/>
  </clipPath>
 </defs>
</svg>
