<?xml version="1.0" encoding="utf-8" standalone="no"?>
<!DOCTYPE svg PUBLIC "-//W3C//DTD SVG 1.1//EN"
  "http://www.w3.org/Graphics/SVG/1.1/DTD/svg11.dtd">
<svg xmlns:xlink="http://www.w3.org/1999/xlink" width="460.8pt" height="345.6pt" viewBox="0 0 460.8 345.6" xmlns="http://www.w3.org/2000/svg" version="1.1">
 <metadata>
  <rdf:RDF xmlns:dc="http://purl.org/dc/elements/1.1/" xmlns:cc="http://creativecommons.org/ns#" xmlns:rdf="http://www.w3.org/1999/02/22-rdf-syntax-ns#">
   <cc:Work>
    <dc:type rdf:resource="http://purl.org/dc/dcmitype/StillImage"/>
    <dc:date>2024-10-17T11:33:16.451198</dc:date>
    <dc:format>image/svg+xml</dc:format>
    <dc:creator>
     <cc:Agent>
      <dc:title>Matplotlib v3.9.2, https://matplotlib.org/</dc:title>
     </cc:Agent>
    </dc:creator>
   </cc:Work>
  </rdf:RDF>
 </metadata>
 <defs>
  <style type="text/css">*{stroke-linejoin: round; stroke-linecap: butt}</style>
 </defs>
 <g id="figure_1">
  <g id="patch_1">
   <path d="M 0 345.6 
L 460.8 345.6 
L 460.8 0 
L 0 0 
z
" style="fill: #ffffff"/>
  </g>
  <g id="axes_1">
   <g id="patch_2">
    <path d="M 145.983187 307.584 
L 326.336813 307.584 
L 326.336813 41.472 
L 145.983187 41.472 
z
" style="fill: #ffffff"/>
   </g>
   <g id="PatchCollection_1">
    <path d="M 171.753557 188.119444 
L 171.803289 188.154753 
L 171.98789 188.254165 
L 172.170978 188.352762 
L 172.137989 188.401635 
L 172.396598 189.048413 
L 174.17388 189.267245 
L 175.01484 189.491394 
L 175.538583 189.62859 
L 176.364141 189.943048 
L 177.870237 190.63548 
L 177.932643 190.641606 
L 177.95945 190.644167 
L 178.042427 190.652583 
L 178.206983 190.669275 
L 178.30294 190.678865 
L 178.675321 190.858672 
L 179.06859 191.048297 
L 179.464938 191.239729 
L 179.858561 191.429583 
L 180.177359 191.583577 
L 180.763205 191.91753 
L 181.403529 192.282294 
L 181.592869 192.3681 
L 183.437261 193.204066 
L 185.954888 194.441734 
L 187.415914 195.214563 
L 187.586451 195.299102 
L 187.373965 195.852619 
L 187.350005 195.9002 
L 187.012187 196.569498 
L 186.998302 196.586488 
L 186.982565 196.60176 
L 186.965178 196.615106 
L 186.946339 196.626316 
L 186.865396 196.640827 
L 186.848505 196.67506 
L 186.828348 196.714876 
L 186.809328 196.741507 
L 186.012967 197.125759 
L 185.989738 197.140614 
L 185.968199 197.157834 
L 185.948549 197.17721 
L 185.931049 197.198561 
L 185.915866 197.221617 
L 185.874516 197.292804 
L 185.642722 197.708006 
L 185.62539 197.742102 
L 185.406428 198.157221 
L 185.302576 198.534022 
L 185.224321 198.769237 
L 185.251866 198.888467 
L 185.420674 199.082777 
L 185.921102 199.423801 
L 186.123998 199.579095 
L 186.887484 200.061373 
L 187.656045 200.566902 
L 188.257005 200.962155 
L 188.272314 200.972245 
L 188.290103 200.986031 
L 188.305895 201.002061 
L 188.319393 201.020047 
L 188.330414 201.039671 
L 188.338716 201.060618 
L 188.344145 201.082478 
L 188.346633 201.104874 
L 188.346114 201.127396 
L 188.355487 201.538933 
L 188.390657 203.085041 
L 188.355655 203.428462 
L 188.294975 203.620957 
L 186.750764 207.334726 
L 186.323064 208.490338 
L 186.234926 208.820651 
L 186.171627 209.208177 
L 186.165051 209.357191 
L 186.1991 209.909887 
L 186.268776 210.586586 
L 186.343798 210.880139 
L 186.473083 211.141639 
L 186.491626 211.174811 
L 186.512448 211.206614 
L 186.535398 211.236902 
L 186.560386 211.265504 
L 186.587292 211.292304 
L 186.615996 211.317159 
L 186.64638 211.339982 
L 186.678234 211.360604 
L 187.230564 211.783032 
L 188.405858 212.621148 
L 188.582784 212.793795 
L 188.80727 212.914257 
L 188.929185 213.01888 
L 190.52893 214.193454 
L 191.084198 214.618879 
L 191.508185 214.957439 
L 191.5796 215.014465 
L 191.647564 215.068735 
L 191.722692 215.128727 
L 191.792271 215.219161 
L 191.863235 215.311394 
L 191.92683 215.394051 
L 191.99916 215.481863 
L 192.050139 215.570684 
L 192.102701 215.657497 
L 192.156164 215.745797 
L 192.189539 215.800921 
L 192.170142 215.833762 
L 192.127753 215.90154 
L 192.04617 216.02832 
L 191.950773 216.176572 
L 191.868454 216.300497 
L 191.402579 216.592595 
L 190.538139 217.134545 
L 190.02295 217.457564 
L 189.156302 218.00095 
L 190.209694 218.727158 
L 190.277614 218.773936 
L 190.93528 219.226839 
L 191.463805 219.590377 
L 191.995978 219.956414 
L 192.470526 220.283855 
L 192.945102 220.611326 
L 193.555499 220.913974 
L 193.50986 221.00246 
L 194.123304 221.308178 
L 194.167317 221.218879 
L 194.954774 221.612116 
L 195.295683 221.782355 
L 195.636555 221.952302 
L 195.714972 221.991578 
L 196.3792 222.323338 
L 196.45117 222.359271 
L 197.187982 222.7271 
L 197.908384 223.086684 
L 198.501783 223.382964 
L 198.608896 223.436517 
L 198.725424 223.494169 
L 199.664376 223.958574 
L 200.665258 224.432182 
L 200.562772 224.734737 
L 200.50172 224.914973 
L 200.313717 225.572094 
L 200.286423 225.674674 
L 199.731643 227.461471 
L 199.27252 229.004817 
L 198.935025 230.11552 
L 198.760494 230.956995 
L 198.102652 233.696633 
L 197.923674 234.546709 
L 197.732346 235.296205 
L 197.496678 236.167336 
L 197.077433 237.694702 
L 196.766439 238.54384 
L 196.606288 238.920137 
L 196.466682 239.408692 
L 196.384501 239.696287 
L 196.292823 239.890236 
L 196.022951 240.423135 
L 195.871023 240.766978 
L 195.811596 240.901349 
L 195.801153 240.924533 
L 195.617923 241.297011 
L 195.461673 241.61469 
L 195.258711 241.884586 
L 195.203449 241.957986 
L 194.935423 242.254783 
L 194.852004 242.347163 
L 194.605112 242.620595 
L 194.245973 243.018446 
L 194.052154 243.232948 
L 193.853382 243.450697 
L 193.58926 243.740055 
L 193.26115 244.099516 
L 193.163355 244.207637 
L 192.870896 244.531453 
L 192.723337 244.690724 
L 192.26955 245.183969 
L 191.505609 246.014387 
L 191.268816 246.272269 
L 189.605931 248.091525 
L 189.231823 248.500922 
L 188.544315 249.253315 
L 188.287848 249.533979 
L 187.782906 250.086598 
L 187.64182 250.28137 
L 187.462711 250.5831 
L 187.306834 250.913617 
L 186.991172 251.754031 
L 186.96634 251.849759 
L 186.953503 251.899055 
L 186.946724 251.925205 
L 186.991875 252.045491 
L 187.029094 252.144645 
L 187.622717 253.030828 
L 187.712943 253.264512 
L 187.744392 253.547323 
L 187.815717 254.885135 
L 187.91892 256.655933 
L 187.987588 257.791272 
L 188.009552 258.154459 
L 188.01244 258.202668 
L 188.030413 258.499704 
L 188.111325 259.845742 
L 188.114069 259.891434 
L 188.154106 260.615081 
L 188.182497 261.12869 
L 188.187913 261.227255 
L 188.315694 262.016227 
L 188.336103 262.107099 
L 188.369085 262.244174 
L 188.426034 262.402488 
L 188.516162 262.653028 
L 188.531768 262.696349 
L 188.569397 262.800757 
L 188.687417 263.06386 
L 188.951972 263.402925 
L 189.570179 264.07627 
L 189.865833 264.354435 
L 190.148226 264.21136 
L 190.214362 264.380811 
L 190.250923 264.478062 
L 190.372628 264.755915 
L 190.407882 264.844314 
L 190.426575 264.89375 
L 190.443999 264.915136 
L 190.675877 265.434727 
L 190.773905 265.644116 
L 190.855298 265.821725 
L 191.039623 266.300236 
L 191.383069 267.20026 
L 191.596676 267.738112 
L 191.791774 268.23347 
L 192.004653 268.767617 
L 192.118174 269.050902 
L 192.161831 269.159835 
L 192.461899 269.914314 
L 192.693204 270.516341 
L 192.933438 271.106121 
L 193.194587 271.789733 
L 193.21674 271.846763 
L 193.286687 272.023662 
L 193.293389 272.041186 
L 193.333717 272.146384 
L 193.547315 272.69101 
L 193.740808 273.184443 
L 193.814939 273.373472 
L 194.025406 273.910226 
L 194.239307 274.455579 
L 194.4529 275.000295 
L 194.664257 275.539169 
L 194.878838 276.086443 
L 195.13477 276.739097 
L 195.160566 276.804525 
L 195.243212 277.013968 
L 195.286566 277.123964 
L 194.460333 277.265863 
L 193.999022 277.320324 
L 193.936342 277.32771 
L 193.876099 277.479745 
L 193.617699 277.888147 
L 193.526844 278.170215 
L 193.386627 278.845972 
L 193.399567 279.051615 
L 193.382498 279.053903 
L 193.355815 279.057462 
L 193.37672 279.903325 
L 193.435965 280.131113 
L 193.469185 280.213755 
L 193.683232 280.746354 
L 193.683879 280.814661 
L 193.687124 280.882911 
L 193.692965 280.950984 
L 193.701401 281.018765 
L 193.708061 281.060676 
L 193.717224 281.10212 
L 193.728856 281.142923 
L 193.742924 281.182938 
L 193.759339 281.222051 
L 193.763814 281.24065 
L 193.770088 281.258682 
L 193.778158 281.275999 
L 193.787903 281.292428 
L 193.79923 281.307796 
L 193.811742 281.327769 
L 193.824195 281.347772 
L 193.836591 281.367806 
L 193.87134 281.424709 
L 193.905571 281.481946 
L 193.939283 281.539458 
L 194.020797 281.673277 
L 194.101678 281.80752 
L 194.181924 281.942129 
L 194.25684 282.065662 
L 194.331294 282.189468 
L 194.405345 282.313548 
L 194.424043 282.345018 
L 194.44277 282.376487 
L 194.461526 282.407926 
L 194.509984 282.488732 
L 194.558644 282.569416 
L 194.607534 282.649977 
L 194.656457 282.73854 
L 194.703388 282.828202 
L 194.748325 282.918847 
L 194.79124 283.010505 
L 195.030553 283.572142 
L 195.066638 283.665389 
L 195.104227 283.758016 
L 195.143294 283.850054 
L 195.17914 283.910332 
L 195.216311 283.969789 
L 195.254779 284.028397 
L 195.294513 284.086156 
L 195.323003 284.116585 
L 195.353323 284.145186 
L 195.385353 284.171873 
L 195.418944 284.196502 
L 195.453978 284.219018 
L 195.490336 284.239336 
L 196.707455 284.790043 
L 197.240083 285.155296 
L 197.268693 285.175377 
L 197.297898 285.194625 
L 197.327667 285.21295 
L 198.356599 285.736059 
L 198.438591 285.766932 
L 198.528106 285.799835 
L 198.617512 285.833033 
L 198.706779 285.866586 
L 198.925241 285.950385 
L 199.521635 286.156823 
L 199.904863 286.303467 
L 200.039164 286.339031 
L 200.902986 286.56525 
L 201.028032 286.641794 
L 201.661412 287.01536 
L 201.797874 287.098214 
L 201.828526 287.130033 
L 202.124015 287.401368 
L 202.420828 287.791468 
L 202.8226 288.185259 
L 203.301632 288.557567 
L 203.986111 289.095016 
L 204.330876 289.455793 
L 204.456555 289.551846 
L 204.660213 289.715268 
L 204.890996 289.876765 
L 204.995228 289.923969 
L 205.319178 290.15235 
L 205.650261 290.385761 
L 205.680847 290.401521 
L 205.765798 290.418497 
L 206.212302 290.271257 
L 206.425301 290.317379 
L 206.929342 290.369455 
L 207.042554 290.392219 
L 207.259114 290.473787 
L 207.571232 290.636959 
L 207.741921 290.753816 
L 207.839304 290.807095 
L 208.094593 291.006827 
L 208.210826 291.077594 
L 208.297254 291.13616 
L 208.500697 291.33497 
L 208.706948 291.423335 
L 208.93681 291.523895 
L 209.183169 291.61878 
L 209.469203 291.724388 
L 209.659414 291.786411 
L 209.863319 291.838896 
L 210.017296 291.870191 
L 210.183212 291.890551 
L 210.430907 292.002322 
L 210.918898 292.042342 
L 211.156842 291.985739 
L 211.470997 291.951206 
L 211.723813 291.930294 
L 211.722054 291.90627 
L 212.080767 291.903748 
L 212.355881 291.918772 
L 212.544915 291.931702 
L 212.878865 291.916427 
L 212.937651 291.98801 
L 213.011533 292.040821 
L 213.075603 292.105633 
L 213.410063 292.427269 
L 213.5418 292.514958 
L 213.663374 292.662139 
L 214.112051 292.768555 
L 214.417632 292.928693 
L 214.671022 293.05113 
L 214.855288 293.132491 
L 215.345295 293.362762 
L 215.437712 293.391185 
L 215.643645 293.402218 
L 216.401878 293.67183 
L 216.493651 293.747751 
L 216.591746 293.800434 
L 216.840845 293.845357 
L 216.889596 293.909779 
L 216.909579 293.936241 
L 217.134703 294.451569 
L 217.142221 294.465207 
L 217.163946 294.487233 
L 217.177437 294.494934 
L 217.192098 294.50003 
L 217.207428 294.502356 
L 217.222958 294.501834 
L 217.238104 294.498507 
L 217.252401 294.492444 
L 217.287044 294.473822 
L 217.364906 294.432021 
L 217.3811 294.428495 
L 217.397564 294.426633 
L 217.414124 294.42647 
L 217.430604 294.427979 
L 217.446859 294.431192 
L 217.637131 294.508144 
L 217.760088 294.603243 
L 217.773851 294.764523 
L 217.780712 294.77885 
L 217.877382 294.981135 
L 217.912041 295.046399 
L 217.964525 295.076299 
L 217.97728 295.000512 
L 218.121794 295.071771 
L 218.119564 295.106964 
L 218.485309 295.35801 
L 218.553152 295.408701 
L 218.641988 295.488 
L 218.648301 295.456439 
L 218.668157 295.356958 
L 218.73062 294.787917 
L 219.462194 294.655769 
L 219.43834 294.496472 
L 219.424713 294.343893 
L 219.418115 294.192155 
L 219.424062 294.043625 
L 219.440256 293.897388 
L 219.468396 293.753758 
L 219.520693 293.5743 
L 219.558929 293.473707 
L 219.621852 293.337567 
L 219.695906 293.204024 
L 219.785723 293.073969 
L 219.822976 293.037235 
L 219.915575 292.919311 
L 220.015561 292.818428 
L 220.196409 292.667296 
L 220.36545 292.548931 
L 220.525852 292.462678 
L 220.56884 292.439563 
L 221.374761 292.156025 
L 221.685914 292.043764 
L 221.465866 291.436311 
L 221.299519 290.96545 
L 221.124292 290.469522 
L 221.104722 290.414151 
L 221.085929 290.360902 
L 220.91151 289.867272 
L 220.782461 289.497963 
L 220.671978 289.18223 
L 220.568578 288.886974 
L 221.290374 288.601703 
L 221.331178 288.585466 
L 221.360948 288.573637 
L 222.119465 288.27363 
L 223.047173 287.906586 
L 223.005658 287.792759 
L 222.874316 287.437216 
L 222.677295 286.902906 
L 222.670231 286.883308 
L 221.932845 284.884751 
L 221.921372 284.853439 
L 222.54584 284.630014 
L 222.402572 284.262427 
L 222.455327 284.244928 
L 223.535013 283.887316 
L 223.565901 283.877074 
L 223.716281 283.827275 
L 223.799461 283.799721 
L 224.559744 283.547904 
L 225.028404 283.392699 
L 225.50214 283.235799 
L 225.970918 283.080536 
L 226.080231 283.044342 
L 225.588545 281.461409 
L 225.409853 280.838845 
L 225.204946 280.111377 
L 225.166532 279.971307 
L 225.183922 279.959695 
L 225.46717 279.770449 
L 225.955282 279.444933 
L 225.948818 279.424735 
L 228.264069 278.634216 
L 228.630456 278.509137 
L 228.629269 278.505646 
L 228.670135 278.492048 
L 228.725536 278.472529 
L 228.817642 278.441498 
L 228.871699 278.423269 
L 228.885214 278.418719 
L 229.256156 278.292163 
L 229.269697 278.287496 
L 230.447199 277.880724 
L 230.780918 277.76722 
L 230.772166 277.749212 
L 230.764454 277.730742 
L 230.757815 277.711867 
L 230.752308 277.692615 
L 230.747904 277.673075 
L 230.744663 277.653304 
L 230.742588 277.63339 
L 230.741652 277.613421 
L 230.741912 277.593397 
L 230.743312 277.573405 
L 230.745884 277.553564 
L 230.749598 277.533873 
L 230.754459 277.51445 
L 230.760436 277.495354 
L 230.767532 277.476614 
L 230.77569 277.458349 
L 230.784881 277.440559 
L 230.799051 277.418027 
L 230.814169 277.396091 
L 230.830208 277.374837 
L 230.847109 277.354267 
L 230.864904 277.334469 
L 230.883504 277.315416 
L 230.902882 277.297224 
L 230.923038 277.279836 
L 230.943915 277.26334 
L 230.965455 277.247768 
L 230.987657 277.233089 
L 231.010466 277.219423 
L 231.033822 277.206712 
L 231.057697 277.195016 
L 231.082063 277.184363 
L 231.10686 277.174757 
L 231.132032 277.166226 
L 231.15752 277.158773 
L 231.14897 277.130063 
L 231.387305 277.04995 
L 231.397305 277.076869 
L 231.423549 277.067904 
L 231.450076 277.059901 
L 231.476919 277.052945 
L 231.503988 277.046981 
L 231.531255 277.042068 
L 231.558692 277.038206 
L 231.586268 277.035367 
L 231.613926 277.033582 
L 231.641607 277.032851 
L 231.669311 277.033175 
L 231.69698 277.034554 
L 231.724584 277.036961 
L 231.752096 277.040455 
L 231.779453 277.044948 
L 231.798739 277.049034 
L 231.817812 277.054122 
L 231.836588 277.060271 
L 231.854975 277.067396 
L 231.872977 277.075526 
L 231.890502 277.084634 
L 231.907494 277.094692 
L 231.923921 277.105641 
L 231.939754 277.117483 
L 231.954904 277.130132 
L 231.969371 277.143616 
L 231.983066 277.15788 
L 231.995959 277.172835 
L 232.008049 277.188512 
L 232.019276 277.204794 
L 232.029581 277.221653 
L 232.038963 277.239061 
L 232.047421 277.256957 
L 232.054866 277.275287 
L 232.061326 277.29399 
L 232.066771 277.313038 
L 232.071169 277.332315 
L 232.60328 277.154332 
L 233.609725 276.817267 
L 233.614132 276.828981 
L 234.782474 276.439009 
L 235.062841 276.356945 
L 235.104959 276.343115 
L 235.157252 276.325631 
L 235.227412 276.302242 
L 234.93923 275.503446 
L 234.936025 275.494548 
L 234.991559 275.483617 
L 234.931877 275.328657 
L 234.904856 275.258501 
L 234.808519 275.00848 
L 234.51391 274.154227 
L 234.485167 274.070861 
L 234.401778 273.829112 
L 234.150942 272.968701 
L 234.127492 272.888237 
L 234.054424 272.637613 
L 233.856073 271.76587 
L 233.839094 271.691388 
L 233.657248 270.736069 
L 233.576256 270.191992 
L 234.197069 270.088168 
L 234.400436 270.054148 
L 234.39661 270.014429 
L 234.411253 270.011965 
L 235.92619 269.755395 
L 236.59067 269.642848 
L 236.608891 269.684886 
L 236.690529 269.670417 
L 237.083616 269.600868 
L 237.075839 269.559449 
L 237.150986 269.546121 
L 237.6033 269.466001 
L 238.670891 269.285162 
L 239.291725 269.17667 
L 239.40024 269.158032 
L 239.885445 269.074789 
L 240.393562 268.987729 
L 240.403533 269.009374 
L 240.982555 268.904686 
L 241.394684 268.822624 
L 241.979402 268.688563 
L 242.179167 268.636474 
L 242.351526 268.591531 
L 242.550065 268.53975 
L 242.905292 268.365099 
L 243.444881 268.099677 
L 243.915994 267.867981 
L 244.546497 267.55785 
L 245.058009 267.301584 
L 245.728425 266.9739 
L 246.194571 266.74323 
L 246.897715 266.3995 
L 247.453671 266.124324 
L 247.995325 265.85905 
L 248.064879 265.824982 
L 248.258093 265.729947 
L 248.302679 265.709883 
L 248.457348 265.637183 
L 249.115578 265.31676 
L 249.646189 265.060646 
L 250.226359 264.787233 
L 251.089641 264.359451 
L 251.146153 264.332853 
L 251.236559 264.290296 
L 251.382896 264.2213 
L 252.289804 263.766537 
L 252.821455 263.494643 
L 253.081371 263.361714 
L 253.894338 262.969204 
L 254.723595 262.553126 
L 255.041895 262.393416 
L 255.61899 262.10409 
L 257.119178 261.351705 
L 257.31511 261.253429 
L 257.48436 261.168343 
L 257.513089 261.153906 
L 258.438964 260.690881 
L 260.673574 259.573633 
L 261.145205 259.336356 
L 262.194289 258.814169 
L 262.506836 258.657885 
L 263.052871 258.38463 
L 263.52412 258.148248 
L 263.789159 258.014816 
L 264.020423 257.898949 
L 264.057829 257.880396 
L 264.326378 257.745745 
L 264.577969 257.619966 
L 264.829407 257.493869 
L 265.089492 257.363655 
L 265.131288 257.342719 
L 265.871799 256.971769 
L 265.947616 256.933791 
L 266.023456 256.895491 
L 266.155271 256.828125 
L 266.220602 256.794738 
L 266.344771 256.732223 
L 266.40934 256.69968 
L 266.481223 256.663489 
L 267.322746 256.239801 
L 267.374976 256.213566 
L 267.79071 256.004883 
L 268.287899 255.755345 
L 268.550305 255.628077 
L 269.434003 255.184103 
L 269.504519 255.122678 
L 269.820644 254.850821 
L 270.016433 254.682134 
L 271.769892 253.171151 
L 273.222364 251.920306 
L 273.333651 251.814642 
L 273.849133 251.379924 
L 274.288403 251.004059 
L 274.716632 250.629668 
L 276.002454 249.517821 
L 276.417696 249.162624 
L 276.820996 248.814518 
L 277.555285 248.180591 
L 277.687874 248.066551 
L 277.793993 247.98914 
L 277.915671 247.874577 
L 278.629298 247.260334 
L 278.664842 247.229779 
L 279.009875 246.933834 
L 279.353416 246.639066 
L 279.80824 246.730729 
L 280.170193 246.803676 
L 280.336778 245.972164 
L 280.448314 245.454665 
L 280.540031 245.018993 
L 280.613381 244.676869 
L 280.703907 244.237472 
L 280.798826 243.798447 
L 280.974407 242.950166 
L 281.152448 242.089902 
L 281.272828 241.508316 
L 281.334508 241.21815 
L 281.456644 240.643354 
L 281.60182 239.959873 
L 281.816957 238.946184 
L 281.940232 238.364389 
L 282.111564 237.554071 
L 282.269791 236.803743 
L 282.482031 235.805594 
L 282.867795 233.991248 
L 282.896209 233.86109 
L 283.054334 233.996413 
L 283.684883 234.543305 
L 285.107466 235.842293 
L 286.348373 236.970303 
L 287.824091 238.317694 
L 287.92685 238.411154 
L 288.2255 238.716686 
L 288.684042 239.071261 
L 289.138528 239.391105 
L 289.672528 239.667601 
L 290.072867 239.795972 
L 290.279792 239.84285 
L 290.344548 239.857533 
L 290.320461 239.947774 
L 289.877969 241.185958 
L 289.827308 241.356765 
L 289.791166 241.478718 
L 289.734265 241.596112 
L 289.460558 241.978408 
L 289.209009 242.24477 
L 288.774249 242.705108 
L 288.712096 242.766107 
L 288.337499 243.19354 
L 288.350444 243.223213 
L 288.434835 243.416053 
L 288.467639 243.491076 
L 288.518392 243.436685 
L 288.561251 243.534761 
L 288.674014 243.792257 
L 289.140643 244.837858 
L 289.275515 245.141813 
L 289.546607 245.941175 
L 290.040756 247.970219 
L 290.070197 248.092505 
L 290.457508 249.703219 
L 290.686518 250.582928 
L 290.702739 250.64524 
L 290.751385 250.842141 
L 290.716054 250.928524 
L 290.616332 251.172296 
L 290.607046 251.205032 
L 290.579567 251.301825 
L 290.576184 251.302133 
L 290.421682 251.315284 
L 290.450157 251.421294 
L 290.500307 251.60808 
L 290.598242 251.62629 
L 291.015347 251.911371 
L 291.259505 252.078227 
L 291.32431 251.98326 
L 291.509764 252.006925 
L 291.698652 251.909641 
L 291.737649 251.853573 
L 292.274651 251.081566 
L 292.702463 250.458573 
L 292.98741 250.043651 
L 293.566514 249.200361 
L 293.827659 248.810256 
L 294.007418 248.54171 
L 294.405893 247.946501 
L 294.781921 247.384812 
L 295.229348 246.71644 
L 295.973715 245.55695 
L 296.48985 244.752908 
L 296.566828 244.632649 
L 296.840616 244.204729 
L 296.92659 244.073401 
L 297.284607 243.52656 
L 297.855883 242.654002 
L 298.221432 242.095657 
L 298.473874 241.710059 
L 298.48194 241.697867 
L 298.652786 241.439368 
L 298.898234 241.068079 
L 299.416526 240.283991 
L 299.835714 239.649806 
L 300.050799 239.324402 
L 300.097005 239.108998 
L 299.980984 238.882575 
L 300.092821 238.707025 
L 300.137076 238.637558 
L 300.194855 238.557696 
L 300.235422 238.556552 
L 300.467715 238.537095 
L 300.630715 238.381998 
L 300.863874 238.038032 
L 300.899552 238.064957 
L 301.062886 237.804602 
L 301.035598 237.784618 
L 301.376266 237.281602 
L 301.500095 237.098778 
L 302.321416 235.886099 
L 302.545254 235.529647 
L 303.415892 234.143094 
L 304.50943 232.438163 
L 305.415606 230.907293 
L 305.894194 230.098824 
L 306.024283 229.879057 
L 306.09524 229.744454 
L 306.900988 228.215798 
L 307.397539 227.147846 
L 307.935778 225.975413 
L 308.552924 224.624302 
L 308.567019 224.579798 
L 308.718632 224.100615 
L 308.885163 223.574389 
L 308.91379 223.483964 
L 308.937874 223.407882 
L 309.128352 222.811323 
L 309.146698 222.753831 
L 309.458954 221.775984 
L 309.528264 221.558999 
L 309.591576 221.360756 
L 309.834003 220.601342 
L 309.896411 220.405874 
L 309.951123 220.23443 
L 310.035195 219.971227 
L 310.199145 219.45775 
L 310.323415 219.068496 
L 310.361865 218.948169 
L 310.424663 218.826524 
L 310.660832 217.956397 
L 310.920676 216.99909 
L 311.08242 216.403066 
L 311.092787 216.365912 
L 311.27882 215.700397 
L 311.468494 215.021996 
L 311.844236 213.678052 
L 312.01502 213.049388 
L 312.30654 211.976564 
L 312.510537 211.225665 
L 312.540035 211.117021 
L 312.561472 211.04 
L 312.631968 210.786618 
L 312.675656 210.629629 
L 312.823388 210.099095 
L 312.970304 209.571364 
L 313.060099 209.296462 
L 313.076633 209.236108 
L 313.084064 209.208969 
L 313.094685 209.170181 
L 313.099129 209.153936 
L 313.147042 208.944537 
L 313.166624 208.876379 
L 313.182725 208.820343 
L 313.36654 208.179998 
L 313.412531 208.019941 
L 313.474538 207.803936 
L 313.564883 207.48922 
L 313.608424 207.337569 
L 313.654059 207.178574 
L 313.696322 207.031376 
L 313.730943 206.91081 
L 313.873347 206.440771 
L 314.614854 203.993161 
L 314.72013 203.668393 
L 314.739842 203.607589 
L 315.005583 202.560358 
L 315.298092 201.407708 
L 315.364206 201.147183 
L 315.506157 200.692338 
L 315.697052 200.066294 
L 315.962561 199.093458 
L 316.05758 198.724977 
L 316.107453 198.531628 
L 316.269489 197.962277 
L 316.431582 197.392749 
L 316.56834 196.827725 
L 316.712526 196.247768 
L 316.733351 196.162437 
L 316.849329 195.687462 
L 316.973567 195.120539 
L 317.105818 194.542774 
L 317.232943 193.976786 
L 317.356831 193.402954 
L 317.475799 192.828671 
L 317.614691 192.176024 
L 317.752137 191.288226 
L 317.784166 191.147317 
L 317.817718 190.999722 
L 317.87919 190.729538 
L 318.027043 189.931585 
L 318.056355 189.834377 
L 318.067791 189.796468 
L 317.976118 189.54723 
L 317.97659 189.540625 
L 317.980971 189.481448 
L 317.982506 189.460716 
L 317.99854 189.243243 
L 318.030357 188.811644 
L 318.063174 188.366629 
L 318.113086 187.689581 
L 318.11764 187.627932 
L 318.138921 187.306179 
L 318.130906 185.826968 
L 318.129732 185.612739 
L 318.124565 184.66031 
L 317.681464 184.835434 
L 317.024453 185.095159 
L 316.847488 185.310152 
L 316.818291 184.777812 
L 316.63305 182.5785 
L 316.618772 182.467607 
L 316.426251 180.971566 
L 316.085902 179.280404 
L 315.507211 176.845812 
L 315.371941 176.468963 
L 314.934692 175.237391 
L 314.879875 175.083643 
L 314.854765 175.013079 
L 314.736752 174.68164 
L 314.708831 174.609496 
L 314.536877 174.165177 
L 314.519819 174.12375 
L 314.49471 174.06277 
L 314.404019 173.842325 
L 314.121393 173.155394 
L 313.24889 171.266542 
L 312.17066 169.283218 
L 311.163837 167.678302 
L 310.074396 166.157892 
L 309.95138 165.986245 
L 308.548929 164.230424 
L 308.337628 164.002713 
L 307.976279 163.593361 
L 307.064041 162.565385 
L 306.832489 162.297696 
L 306.703383 162.156582 
L 306.613266 162.058083 
L 306.357696 161.80894 
L 304.929734 160.312952 
L 304.834214 160.212905 
L 304.116272 159.460796 
L 302.170066 157.494528 
L 301.552055 156.854252 
L 301.190844 156.480145 
L 300.708977 155.981098 
L 300.335409 155.619981 
L 300.163422 155.453713 
L 300.053521 155.340644 
L 299.827578 155.107753 
L 299.655375 154.930206 
L 298.491298 153.729659 
L 298.334879 153.561414 
L 298.15591 153.378124 
L 297.611468 152.820565 
L 297.398648 152.602634 
L 297.009786 152.2044 
L 296.502594 151.684959 
L 296.29288 151.470216 
L 296.067931 151.24194 
L 295.738341 150.907519 
L 295.411706 150.576025 
L 294.317679 149.465994 
L 294.26099 149.408401 
L 294.173179 149.319301 
L 293.832666 148.973808 
L 291.840865 146.959781 
L 291.780945 146.893525 
L 289.287091 144.318966 
L 287.054028 142.148992 
L 285.121327 140.154522 
L 284.320704 139.322628 
L 283.672182 138.64886 
L 281.751476 136.481247 
L 281.002301 135.620521 
L 280.127566 134.376119 
L 280.067846 134.288613 
L 279.71452 133.771209 
L 279.38753 133.292301 
L 278.990337 132.710612 
L 278.854041 132.510998 
L 278.835374 132.483679 
L 278.181379 131.381898 
L 277.766822 130.176967 
L 277.104285 128.847318 
L 276.704455 127.951785 
L 276.462218 127.409247 
L 275.963251 126.031977 
L 275.855144 126.055736 
L 275.36592 125.997607 
L 275.020527 124.243196 
L 274.599443 122.385893 
L 274.46752 121.772509 
L 273.801059 118.674055 
L 273.753234 118.320599 
L 273.584821 117.076856 
L 273.366701 114.132269 
L 273.237135 111.823995 
L 273.200672 111.298066 
L 273.597058 111.280049 
L 273.609913 111.279357 
L 273.524651 109.728096 
L 273.04417 109.147365 
L 273.033821 108.582294 
L 272.986508 105.957582 
L 272.9313 104.70011 
L 272.838652 102.602266 
L 272.863408 101.720408 
L 272.865542 101.649198 
L 272.832606 100.729444 
L 272.757479 98.630368 
L 272.638768 94.718937 
L 272.478489 91.636358 
L 272.364176 90.690453 
L 270.151229 92.861223 
L 267.938322 95.032057 
L 267.890038 95.390636 
L 267.655812 95.179138 
L 267.546832 95.080758 
L 267.344236 94.89779 
L 267.2702 94.830944 
L 267.093835 94.671699 
L 262.664517 90.67242 
L 262.627429 90.641931 
L 262.418593 90.457759 
L 262.077894 90.157922 
L 261.703839 89.828482 
L 261.281379 89.456816 
L 260.834774 89.063434 
L 259.523592 88.01726 
L 257.629798 86.504479 
L 255.254504 84.673926 
L 253.354393 83.209467 
L 253.047895 82.992754 
L 252.440884 82.45213 
L 251.945428 81.7771 
L 251.346733 80.962544 
L 250.733989 80.178695 
L 249.527553 78.558939 
L 248.242316 76.965199 
L 247.904523 76.563451 
L 248.09003 76.249792 
L 248.689548 75.156161 
L 248.880389 74.804107 
L 248.871702 74.307263 
L 248.861222 73.568828 
L 248.850823 72.831477 
L 248.222039 72.418555 
L 246.659695 72.568275 
L 246.591453 72.499847 
L 244.788655 70.232494 
L 244.394999 69.737082 
L 244.265242 69.573671 
L 244.012702 69.255401 
L 243.924392 69.281677 
L 243.839163 69.307035 
L 243.50935 69.405146 
L 237.840659 71.091167 
L 237.811561 71.099783 
L 237.608773 71.159663 
L 237.583338 71.167201 
L 237.53872 71.180498 
L 237.388709 71.225494 
L 237.319914 71.24636 
L 237.004432 71.339832 
L 236.973506 71.349133 
L 236.843052 71.38804 
L 236.635277 71.449908 
L 236.564966 71.471013 
L 236.423969 71.513408 
L 235.61698 71.752963 
L 235.287566 71.851378 
L 234.516632 70.713079 
L 233.852471 69.732187 
L 233.309639 68.931652 
L 233.039495 68.532808 
L 232.725773 68.068542 
L 231.94802 67.577422 
L 229.078681 65.76323 
L 227.386142 64.755321 
L 226.095376 63.697157 
L 221.786081 59.80574 
L 221.701614 59.729507 
L 221.547857 59.591211 
L 221.178372 59.256734 
L 220.658042 58.787387 
L 220.38182 58.537976 
L 219.126193 57.356491 
L 218.313921 56.592195 
L 215.534664 54.153259 
L 215.597485 53.584862 
L 215.344372 53.571887 
L 215.324745 53.570888 
L 215.268849 53.568 
L 214.924641 53.809324 
L 214.496129 53.904278 
L 214.276207 54.039196 
L 213.843087 54.445731 
L 213.749043 54.683067 
L 213.418792 55.075586 
L 213.360883 55.524819 
L 212.531382 56.405016 
L 212.174036 56.391674 
L 211.907848 56.352324 
L 211.377877 56.385889 
L 210.792621 56.368928 
L 210.263732 56.356339 
L 210.17675 56.354264 
L 209.628219 56.18349 
L 208.899723 55.976962 
L 208.796378 56.050931 
L 208.790281 56.113614 
L 208.742319 56.605478 
L 208.474495 57.245017 
L 208.072276 58.048965 
L 207.725742 58.571323 
L 207.623042 58.789894 
L 207.496956 59.354021 
L 207.578328 59.477534 
L 207.658973 59.59989 
L 207.649379 59.734196 
L 207.540451 60.012141 
L 207.272456 60.305566 
L 207.217676 60.332963 
L 206.930343 60.476637 
L 206.710862 60.508327 
L 206.57331 60.528165 
L 206.508968 60.537457 
L 206.236576 60.88034 
L 206.165657 61.084455 
L 206.116812 61.165562 
L 206.101191 61.436529 
L 206.196381 61.488039 
L 206.214359 61.497779 
L 206.337875 61.587493 
L 206.412564 61.703885 
L 206.353316 61.822389 
L 206.215936 62.007647 
L 206.045496 62.102344 
L 205.830178 62.21053 
L 205.687991 62.474212 
L 206.176005 62.967616 
L 205.905271 63.288803 
L 205.717229 63.272282 
L 205.518047 63.254808 
L 205.479211 63.075713 
L 205.522185 62.783589 
L 205.471557 62.894925 
L 205.353455 63.144264 
L 205.265321 63.304448 
L 205.583987 63.405394 
L 205.671258 63.442983 
L 205.722165 63.541294 
L 205.584079 63.74861 
L 205.450174 63.825639 
L 204.888245 63.990283 
L 204.8481 64.050708 
L 204.595096 64.378184 
L 204.568662 64.43675 
L 204.649664 64.669741 
L 204.68834 64.944125 
L 204.648812 65.015147 
L 204.583112 65.065856 
L 204.514142 65.087973 
L 204.32408 65.039785 
L 204.149587 64.910266 
L 204.024992 64.890277 
L 203.900565 64.993386 
L 203.670232 65.123424 
L 203.699366 65.305608 
L 203.821448 65.605533 
L 204.364087 66.005765 
L 204.463358 66.135528 
L 204.499141 66.249741 
L 204.464967 66.328615 
L 204.396897 66.37668 
L 204.175478 66.435237 
L 204.095622 66.40865 
L 204.015895 66.332702 
L 203.983486 66.189984 
L 203.877459 66.00521 
L 203.76714 66.066472 
L 203.75583 66.138035 
L 203.883711 66.409371 
L 203.875819 66.512161 
L 203.811271 66.656577 
L 203.768291 66.714487 
L 203.647689 66.781694 
L 203.533948 66.829843 
L 203.507653 66.918243 
L 203.597734 67.124065 
L 203.645041 67.2066 
L 203.743183 67.155634 
L 203.916675 67.082702 
L 204.029935 67.062848 
L 204.161996 67.101575 
L 204.213203 67.187071 
L 204.209618 67.309871 
L 204.184198 67.429701 
L 204.132516 67.526465 
L 203.999165 67.551985 
L 203.967637 67.560486 
L 203.857141 67.62817 
L 203.519811 67.827808 
L 203.475916 67.85379 
L 203.33857 68.083456 
L 203.394665 68.124437 
L 203.830903 68.086958 
L 203.940221 68.100342 
L 204.105641 68.136623 
L 204.250066 68.131461 
L 204.35931 68.190159 
L 204.428466 68.411603 
L 204.409164 68.528922 
L 204.24596 68.586852 
L 204.047904 68.602563 
L 203.907892 68.573334 
L 203.796865 68.548851 
L 203.571451 68.468627 
L 203.349434 68.493609 
L 203.328304 68.496016 
L 202.91749 68.679126 
L 202.85846 68.762484 
L 203.081388 68.854574 
L 203.233823 68.933175 
L 203.458813 68.951065 
L 203.73049 68.954019 
L 203.848652 68.948095 
L 203.972089 68.94516 
L 204.091658 68.874987 
L 204.197082 68.741176 
L 204.319614 68.696319 
L 204.411814 68.701762 
L 204.462337 68.96026 
L 204.324604 69.125304 
L 204.290762 69.270265 
L 204.341391 69.509856 
L 204.374206 69.741784 
L 204.334374 69.927883 
L 204.27495 70.029041 
L 204.253169 70.056082 
L 204.052298 70.070068 
L 203.788237 69.870391 
L 203.733222 69.78334 
L 203.767438 69.63415 
L 203.836472 69.540134 
L 203.854351 69.511304 
L 203.864651 69.331404 
L 203.791637 69.279575 
L 203.774733 69.490104 
L 203.635538 69.567106 
L 203.506575 69.554426 
L 202.990149 69.353152 
L 202.857218 69.207055 
L 202.516116 69.031026 
L 202.458457 69.043336 
L 202.497043 69.380475 
L 202.540467 69.723308 
L 202.466232 70.252224 
L 202.369584 70.309693 
L 202.265411 70.288135 
L 202.09777 70.141612 
L 202.078562 70.22367 
L 202.167777 70.599391 
L 201.994102 70.96452 
L 201.8866 71.098144 
L 201.750821 71.177358 
L 201.597036 71.500129 
L 201.392627 71.707115 
L 201.275611 71.961212 
L 201.208492 72.058322 
L 201.214693 72.072662 
L 201.449693 72.111898 
L 201.582032 72.13174 
L 201.625662 72.197649 
L 201.693755 72.330629 
L 201.66406 72.547307 
L 201.482351 72.748774 
L 201.418041 72.774979 
L 201.076899 72.717631 
L 200.702438 72.534557 
L 200.50379 72.524758 
L 200.171741 72.666574 
L 200.261071 72.788819 
L 200.504776 72.924581 
L 200.738823 73.054961 
L 201.007977 73.290276 
L 201.05422 73.453699 
L 201.041263 73.519497 
L 200.976804 73.584981 
L 200.821567 73.65871 
L 200.708236 73.738126 
L 200.612661 73.772739 
L 200.543366 73.780035 
L 200.469109 73.732778 
L 200.404165 73.621681 
L 200.340815 73.551847 
L 200.290442 73.58372 
L 200.342606 73.949688 
L 200.359411 74.08402 
L 200.446931 74.150061 
L 200.510382 74.244103 
L 200.47552 74.369333 
L 200.403487 74.448059 
L 200.631451 74.439617 
L 200.733695 74.465291 
L 200.802941 74.573888 
L 200.803781 74.656201 
L 200.787167 74.701036 
L 200.680028 74.777264 
L 200.402796 74.800233 
L 200.299096 74.839103 
L 200.217633 74.904323 
L 200.157296 75.088948 
L 200.044257 75.269272 
L 199.974668 75.487722 
L 200.020169 75.629678 
L 200.082691 75.714889 
L 200.241532 75.62575 
L 200.414323 75.54682 
L 200.538402 75.536189 
L 200.598648 75.57054 
L 200.647091 75.621335 
L 200.670022 75.701101 
L 200.640033 75.828391 
L 200.464871 76.042374 
L 200.33394 76.11046 
L 200.242716 76.218105 
L 200.086096 76.165394 
L 199.515387 75.97332 
L 199.650926 75.650135 
L 199.20953 75.653332 
L 199.200208 75.859795 
L 199.247941 76.117503 
L 199.265298 76.612305 
L 199.845381 76.706595 
L 199.986957 76.742028 
L 199.889797 77.047882 
L 199.712812 77.294177 
L 199.712483 77.363356 
L 199.848725 77.406264 
L 200.017457 77.458997 
L 200.078885 77.499096 
L 200.140768 77.584586 
L 200.164112 77.648721 
L 200.121286 77.763167 
L 200.112989 77.869982 
L 200.221398 77.8534 
L 200.344981 77.77604 
L 200.445762 77.754587 
L 200.582194 77.748281 
L 200.680737 77.827264 
L 200.695193 77.912672 
L 200.638473 78.053515 
L 200.500738 78.229701 
L 200.369538 78.332847 
L 200.300416 78.56562 
L 200.217798 78.874138 
L 200.148068 78.952403 
L 200.00542 78.929187 
L 199.805203 78.81974 
L 199.707909 78.851873 
L 199.742689 78.949986 
L 199.886049 79.034004 
L 200.098956 79.18376 
L 200.262143 79.326423 
L 200.50288 79.634036 
L 200.762718 80.11078 
L 200.799769 80.221534 
L 200.785876 80.268975 
L 200.728683 80.338664 
L 200.624707 80.455563 
L 200.654055 80.653862 
L 200.919921 80.747567 
L 201.091695 80.883151 
L 200.844258 81.039984 
L 200.613794 81.217981 
L 200.368207 81.461678 
L 200.18746 81.668929 
L 200.030963 81.897004 
L 199.840765 82.122521 
L 199.672013 82.311361 
L 199.652485 82.444542 
L 199.630533 82.567432 
L 199.53062 82.61715 
L 199.238903 82.588127 
L 199.159102 82.613479 
L 199.119695 82.650236 
L 199.139963 82.732583 
L 199.189577 82.832064 
L 199.315871 82.997153 
L 199.390274 83.132453 
L 199.574753 83.229091 
L 199.660149 83.307693 
L 199.7318 83.386575 
L 199.758828 83.467686 
L 199.671307 83.630937 
L 199.435854 83.691222 
L 199.104379 83.809053 
L 199.070522 83.903163 
L 199.106454 84.039822 
L 199.344982 84.147589 
L 199.413637 84.187877 
L 199.22729 84.26846 
L 198.986355 84.211453 
L 198.873871 84.257584 
L 198.772738 84.396814 
L 198.834523 84.476648 
L 199.114968 84.432032 
L 199.360764 84.400033 
L 199.527679 84.359836 
L 199.524755 84.58163 
L 199.255368 85.044661 
L 199.023146 85.241839 
L 198.942188 85.43824 
L 198.944394 85.589606 
L 198.788775 85.972184 
L 198.605617 86.312294 
L 198.536799 86.385351 
L 198.429916 86.498828 
L 198.29034 86.55266 
L 198.052435 86.644452 
L 198.026359 86.700402 
L 198.05391 86.763007 
L 198.097718 86.800304 
L 198.190582 86.879325 
L 198.422683 87.076864 
L 198.556369 87.27309 
L 198.557745 87.477701 
L 198.529881 87.536154 
L 198.45153 87.605409 
L 198.349011 87.618109 
L 198.177962 87.611828 
L 197.94634 87.53143 
L 197.795126 87.589392 
L 197.791031 87.654962 
L 198.168805 88.019646 
L 198.260285 88.082519 
L 198.330518 88.181831 
L 198.338498 88.269406 
L 198.311423 88.351376 
L 198.20309 88.399819 
L 198.058221 88.420883 
L 197.853194 88.450682 
L 197.221771 88.417342 
L 197.15579 88.450915 
L 196.894383 88.69934 
L 196.625986 88.947834 
L 196.529714 89.024086 
L 196.554984 89.136539 
L 196.585218 89.207935 
L 196.611856 89.364615 
L 196.617318 89.449432 
L 196.592389 89.552781 
L 196.552464 89.659279 
L 196.464462 89.741706 
L 196.377978 89.817388 
L 196.267848 89.861271 
L 196.076667 89.874289 
L 195.81991 89.8211 
L 195.759558 89.801438 
L 195.604492 89.750924 
L 195.504797 89.718426 
L 195.285826 89.613627 
L 195.168767 89.610536 
L 195.085286 89.660856 
L 194.996218 89.736069 
L 194.91798 89.82077 
L 194.792805 89.904852 
L 194.616847 90.013961 
L 194.512674 90.062577 
L 194.286544 90.191305 
L 194.187449 90.304788 
L 194.149082 90.369661 
L 194.065421 90.42365 
L 194.056596 90.429329 
L 194.044885 90.432874 
L 193.963087 90.457628 
L 193.850082 90.470978 
L 193.713236 90.44248 
L 193.580223 90.37081 
L 193.443543 90.313087 
L 193.343505 90.314979 
L 193.263193 90.38006 
L 193.214008 90.47135 
L 193.192118 90.552179 
L 193.175312 90.640603 
L 193.089585 90.748745 
L 193.025734 90.806892 
L 192.974438 90.814169 
L 192.887645 90.777749 
L 192.808775 90.669107 
L 192.741629 90.622985 
L 192.676204 90.626358 
L 192.660063 90.714386 
L 192.666559 90.792996 
L 192.77381 90.959444 
L 192.783029 91.051271 
L 192.789471 91.115667 
L 192.708134 91.225205 
L 192.615805 91.261774 
L 192.539897 91.24507 
L 192.482711 91.216574 
L 192.462949 91.20673 
L 192.354438 91.113497 
L 192.205784 91.097224 
L 192.069518 91.241262 
L 191.947348 91.375927 
L 191.733149 91.552636 
L 191.546628 91.702052 
L 191.497429 91.732466 
L 191.475644 91.745939 
L 191.464133 91.749246 
L 191.427538 91.759798 
L 191.351623 91.74544 
L 191.138277 91.63841 
L 191.036877 91.59892 
L 190.929818 91.630867 
L 190.861272 91.651662 
L 190.789673 91.692926 
L 190.650219 91.785891 
L 190.416486 91.885691 
L 190.284763 91.955416 
L 190.172879 92.060659 
L 190.182133 92.095096 
L 190.200941 92.126387 
L 190.226799 92.169449 
L 190.301448 92.226657 
L 190.333416 92.251175 
L 190.392827 92.32294 
L 190.401268 92.361586 
L 190.40934 92.496231 
L 190.383322 92.576831 
L 190.354511 92.622791 
L 190.306578 92.68363 
L 190.206679 92.760994 
L 190.144874 92.788848 
L 190.07674 92.801868 
L 189.984003 92.793984 
L 189.921063 92.7711 
L 189.863742 92.736511 
L 189.808481 92.690739 
L 189.72514 92.582405 
L 189.676107 92.495928 
L 189.631403 92.333617 
L 189.613924 92.270201 
L 189.568913 92.222294 
L 189.554977 92.207453 
L 189.51366 92.186047 
L 189.385939 92.216291 
L 189.341918 92.246648 
L 189.3259 92.257706 
L 189.289179 92.372458 
L 189.272827 92.423531 
L 189.196217 92.689275 
L 189.13705 92.798435 
L 189.057533 92.854445 
L 188.966926 92.84499 
L 188.902193 92.816518 
L 188.839792 92.748426 
L 188.772569 92.568126 
L 188.724869 92.461513 
L 188.68211 92.409716 
L 188.615765 92.374568 
L 188.544605 92.401373 
L 188.517315 92.481328 
L 188.511553 92.602977 
L 188.490969 92.761625 
L 188.421885 92.896918 
L 188.290885 92.989754 
L 188.18021 93.022107 
L 188.059848 93.047761 
L 187.934717 92.972754 
L 187.862041 92.886076 
L 187.808004 92.806131 
L 187.749811 92.736567 
L 187.677924 92.585858 
L 187.667789 92.480717 
L 187.707661 92.382629 
L 187.811976 92.307861 
L 187.878697 92.208173 
L 187.878455 92.166002 
L 187.878298 92.139363 
L 187.791334 92.079648 
L 187.661864 92.106181 
L 187.631225 92.120147 
L 187.523498 92.169229 
L 187.341838 92.216689 
L 187.14303 92.26518 
L 187.015137 92.231505 
L 186.933777 92.165979 
L 186.886875 92.023209 
L 186.872496 91.97945 
L 186.831177 91.850858 
L 186.814763 91.799788 
L 186.756588 91.657887 
L 186.674457 91.572331 
L 186.590054 91.5839 
L 186.501864 91.649749 
L 186.463561 91.715971 
L 186.430925 91.784469 
L 186.411477 91.825236 
L 186.379056 91.885025 
L 186.353603 91.931965 
L 186.267831 92.069217 
L 186.1774 92.262262 
L 186.072338 92.446023 
L 185.945306 92.506942 
L 185.849097 92.528215 
L 185.731687 92.483226 
L 185.662305 92.437919 
L 185.596971 92.365644 
L 185.513262 92.288037 
L 185.407689 92.232084 
L 185.212037 92.168133 
L 185.026647 92.150905 
L 184.849478 92.176784 
L 184.729196 92.285649 
L 184.575909 92.258468 
L 184.494748 92.209733 
L 184.457955 92.155282 
L 184.425065 92.106605 
L 184.394429 92.182035 
L 184.383728 92.208391 
L 184.366495 92.337566 
L 184.308461 92.545448 
L 184.105132 92.637599 
L 183.888964 92.458337 
L 183.848872 92.425092 
L 183.772135 92.392321 
L 183.680659 92.353227 
L 183.696683 92.445574 
L 183.712509 92.536929 
L 183.729623 92.572214 
L 183.906662 92.93742 
L 184.067069 93.136167 
L 184.148167 93.372721 
L 184.178174 93.579941 
L 183.919732 93.802648 
L 185.419865 94.47235 
L 185.749493 96.197713 
L 184.152269 96.921593 
L 183.227141 97.340874 
L 182.630949 97.683528 
L 181.95658 98.071147 
L 181.490841 98.334634 
L 181.225289 98.484935 
L 181.109088 98.535443 
L 180.731002 98.700149 
L 180.430614 98.831012 
L 180.351841 98.865144 
L 180.340137 98.870214 
L 180.32544 98.877521 
L 180.253347 98.913408 
L 180.080869 98.854569 
L 180.024476 98.835322 
L 180.297288 99.259096 
L 180.289527 99.26654 
L 180.238153 99.315824 
L 180.175111 99.366543 
L 180.096991 99.441519 
L 178.904497 100.583126 
L 178.52112 100.140332 
L 177.534594 99.016751 
L 177.418422 99.332957 
L 177.02098 99.784379 
L 176.625147 100.200535 
L 176.559956 100.314438 
L 176.211737 100.922822 
L 175.506386 102.155239 
L 175.538484 102.505882 
L 175.588715 102.737852 
L 175.607945 102.826901 
L 175.373877 103.195712 
L 174.898813 102.968695 
L 174.693849 102.81399 
L 174.428294 102.9687 
L 174.30644 103.178729 
L 174.1542 103.318719 
L 174.034568 103.401112 
L 173.983265 103.436446 
L 173.742445 103.699837 
L 173.711133 103.838535 
L 173.697673 103.898221 
L 173.739458 104.133047 
L 173.889949 104.089672 
L 174.145312 103.952807 
L 174.274041 103.99797 
L 174.490035 104.392299 
L 174.526538 104.445552 
L 174.532573 104.490202 
L 174.393415 104.885567 
L 174.231183 105.023467 
L 174.209218 105.036596 
L 173.744084 105.222541 
L 173.620695 105.247015 
L 173.474639 105.210449 
L 173.355614 105.198715 
L 173.287478 105.336222 
L 173.382963 105.415959 
L 173.81483 105.665723 
L 173.926955 105.744001 
L 173.987019 105.847282 
L 173.968461 105.99639 
L 173.892463 106.116019 
L 173.786265 106.158248 
L 173.668518 106.182536 
L 173.436276 106.259938 
L 173.10802 106.227544 
L 173.066189 106.300356 
L 173.121345 106.440327 
L 173.197781 106.634304 
L 173.23538 106.878135 
L 172.99589 107.22509 
L 172.880565 107.392152 
L 172.83296 107.416293 
L 172.63592 107.516292 
L 172.504532 107.566066 
L 172.30701 107.70966 
L 172.085429 107.870767 
L 171.846284 107.957121 
L 171.81956 107.966752 
L 171.853175 108.078837 
L 171.99374 108.27585 
L 172.11903 108.368571 
L 172.272153 108.439855 
L 172.648077 108.449892 
L 172.675785 108.47884 
L 172.852075 108.743985 
L 172.861421 108.821445 
L 172.797618 108.956422 
L 172.641657 109.055493 
L 172.597059 109.176935 
L 172.483928 109.480502 
L 172.498838 109.55174 
L 172.585115 109.964881 
L 172.719579 110.530781 
L 172.729408 110.577631 
L 173.065982 111.179564 
L 173.107418 111.257092 
L 173.123154 111.48087 
L 173.257895 111.838048 
L 173.498136 112.305601 
L 173.759538 113.12132 
L 174.04466 113.34749 
L 174.152715 113.535214 
L 174.195643 113.795046 
L 174.125127 113.97622 
L 173.975761 114.147272 
L 173.927055 114.532303 
L 173.868016 114.621507 
L 173.804545 114.720453 
L 174.141245 115.117773 
L 174.197302 115.36447 
L 173.854552 115.956441 
L 173.336567 115.793443 
L 173.049762 115.639298 
L 172.937513 115.669676 
L 172.895635 115.765 
L 172.893847 115.864987 
L 172.919631 115.903388 
L 173.368889 116.220347 
L 173.515843 116.808799 
L 172.426362 116.677169 
L 172.269801 116.340708 
L 172.09666 116.202171 
L 171.96865 116.166372 
L 171.936862 116.167969 
L 171.906006 116.186252 
L 171.829632 116.342147 
L 171.831333 116.351488 
L 172.175171 116.72534 
L 172.319463 116.862184 
L 172.700276 117.277995 
L 172.896361 117.695633 
L 172.920069 118.492622 
L 172.561668 118.636419 
L 172.083535 118.390458 
L 171.897037 118.391445 
L 171.630526 118.26293 
L 171.56475 118.035505 
L 171.112883 117.516665 
L 171.087516 117.51372 
L 170.979289 117.633112 
L 170.655399 117.749461 
L 170.596357 118.059429 
L 170.384492 118.573623 
L 170.282067 118.97426 
L 169.756814 119.822928 
L 169.465028 119.726643 
L 169.444458 120.027828 
L 169.346077 120.485822 
L 168.581015 119.991654 
L 168.620934 120.464401 
L 168.494532 120.780583 
L 168.336757 120.776265 
L 168.14793 120.771125 
L 167.873135 120.500651 
L 167.665263 120.423869 
L 167.49482 120.348 
L 167.315442 120.379314 
L 167.028662 120.662486 
L 166.822135 121.019463 
L 166.624035 121.125942 
L 166.53092 121.203082 
L 166.187427 121.534141 
L 165.813341 121.183556 
L 165.715647 121.135353 
L 165.64667 121.101156 
L 165.620552 121.112884 
L 165.499971 121.300265 
L 165.289966 121.546825 
L 164.891394 122.103355 
L 164.482222 122.003875 
L 164.002497 121.932665 
L 163.471591 121.680015 
L 163.435305 121.711612 
L 163.454347 122.122928 
L 163.462498 122.298955 
L 163.231423 122.463047 
L 162.653831 122.321662 
L 162.471049 122.231716 
L 162.214509 121.835979 
L 162.076121 121.774338 
L 161.944858 121.74595 
L 161.884272 121.76227 
L 161.804618 121.813608 
L 161.738593 121.876655 
L 161.666018 121.974729 
L 161.512371 122.224707 
L 161.207527 122.786452 
L 161.164659 122.865974 
L 161.096661 122.914117 
L 160.872426 122.994906 
L 160.641061 122.760949 
L 160.753844 123.563481 
L 160.535389 123.733154 
L 160.079099 123.949837 
L 160.041971 124.001092 
L 159.960688 124.56598 
L 159.742799 124.772278 
L 159.63121 125.208596 
L 159.401325 125.426305 
L 159.444561 125.884027 
L 159.325437 126.201517 
L 158.581626 126.138364 
L 158.561186 126.163155 
L 158.537523 126.274484 
L 158.63609 126.801881 
L 158.081859 127.291616 
L 157.384671 127.618115 
L 156.872394 127.322274 
L 156.802527 127.303049 
L 156.661541 127.361937 
L 156.270521 127.624047 
L 155.710483 127.174244 
L 155.657396 126.226683 
L 155.440221 126.350317 
L 154.944432 126.621258 
L 154.904383 126.681667 
L 154.906805 126.875527 
L 154.790026 127.056881 
L 154.662503 127.024282 
L 154.314912 126.705249 
L 154.234863 126.732478 
L 154.189718 126.920589 
L 154.262271 127.620097 
L 154.299844 127.987085 
L 154.181079 128.064991 
L 154.214058 128.376277 
L 154.323737 128.30526 
L 154.575053 128.200339 
L 154.739471 128.483318 
L 154.957722 129.432288 
L 155.930249 131.953154 
L 156.153014 132.530343 
L 156.512906 133.203107 
L 157.291378 134.684714 
L 157.50913 135.090848 
L 157.562684 135.190841 
L 157.733928 135.499577 
L 157.857494 135.72381 
L 159.037971 137.903824 
L 159.149164 138.102224 
L 159.342447 138.447042 
L 159.556349 138.920269 
L 159.736964 139.329769 
L 159.858348 139.51595 
L 159.955225 139.712476 
L 160.544339 140.902976 
L 161.049996 141.889291 
L 162.367065 144.610496 
L 163.371483 146.798812 
L 164.081308 148.503037 
L 165.144702 151.095975 
L 165.742995 152.601987 
L 166.201505 153.831634 
L 166.446724 154.497814 
L 166.503961 154.652889 
L 166.659205 154.994503 
L 166.694274 155.076687 
L 167.611639 157.23224 
L 167.624306 157.262348 
L 168.634189 159.634938 
L 168.695789 159.757967 
L 168.719729 159.805804 
L 168.732253 159.830828 
L 168.77784 159.921831 
L 168.783382 159.932932 
L 170.643292 164.628285 
L 171.611569 167.845908 
L 172.26298 171.836534 
L 172.293698 172.024715 
L 172.734528 174.725474 
L 172.739727 174.821552 
L 172.811 176.134324 
L 172.84192 178.394341 
L 172.872385 180.613335 
L 172.733368 183.165425 
L 172.591049 185.777295 
L 171.731322 187.946958 
L 171.753557 188.119444 
" clip-path="url(#p85b6dd9c3c)" style="fill: #1f77b4"/>
   </g>
   <g id="matplotlib.axis_1">
    <g id="xtick_1">
     <g id="line2d_1">
      <defs>
       <path id="m4ed4ce3ff8" d="M 0 0 
L 0 3.5 
" style="stroke: #000000; stroke-width: 0.8"/>
      </defs>
      <g>
       <use xlink:href="#m4ed4ce3ff8" x="180.089885" y="307.584" style="stroke: #000000; stroke-width: 0.8"/>
      </g>
     </g>
     <g id="text_1">
      <!-- 13.38 -->
      <g transform="translate(165.775822 322.182437) scale(0.1 -0.1)">
       <defs>
        <path id="DejaVuSans-31" d="M 794 531 
L 1825 531 
L 1825 4091 
L 703 3866 
L 703 4441 
L 1819 4666 
L 2450 4666 
L 2450 531 
L 3481 531 
L 3481 0 
L 794 0 
L 794 531 
z
" transform="scale(0.015625)"/>
        <path id="DejaVuSans-33" d="M 2597 2516 
Q 3050 2419 3304 2112 
Q 3559 1806 3559 1356 
Q 3559 666 3084 287 
Q 2609 -91 1734 -91 
Q 1441 -91 1130 -33 
Q 819 25 488 141 
L 488 750 
Q 750 597 1062 519 
Q 1375 441 1716 441 
Q 2309 441 2620 675 
Q 2931 909 2931 1356 
Q 2931 1769 2642 2001 
Q 2353 2234 1838 2234 
L 1294 2234 
L 1294 2753 
L 1863 2753 
Q 2328 2753 2575 2939 
Q 2822 3125 2822 3475 
Q 2822 3834 2567 4026 
Q 2313 4219 1838 4219 
Q 1578 4219 1281 4162 
Q 984 4106 628 3988 
L 628 4550 
Q 988 4650 1302 4700 
Q 1616 4750 1894 4750 
Q 2613 4750 3031 4423 
Q 3450 4097 3450 3541 
Q 3450 3153 3228 2886 
Q 3006 2619 2597 2516 
z
" transform="scale(0.015625)"/>
        <path id="DejaVuSans-2e" d="M 684 794 
L 1344 794 
L 1344 0 
L 684 0 
L 684 794 
z
" transform="scale(0.015625)"/>
        <path id="DejaVuSans-38" d="M 2034 2216 
Q 1584 2216 1326 1975 
Q 1069 1734 1069 1313 
Q 1069 891 1326 650 
Q 1584 409 2034 409 
Q 2484 409 2743 651 
Q 3003 894 3003 1313 
Q 3003 1734 2745 1975 
Q 2488 2216 2034 2216 
z
M 1403 2484 
Q 997 2584 770 2862 
Q 544 3141 544 3541 
Q 544 4100 942 4425 
Q 1341 4750 2034 4750 
Q 2731 4750 3128 4425 
Q 3525 4100 3525 3541 
Q 3525 3141 3298 2862 
Q 3072 2584 2669 2484 
Q 3125 2378 3379 2068 
Q 3634 1759 3634 1313 
Q 3634 634 3220 271 
Q 2806 -91 2034 -91 
Q 1263 -91 848 271 
Q 434 634 434 1313 
Q 434 1759 690 2068 
Q 947 2378 1403 2484 
z
M 1172 3481 
Q 1172 3119 1398 2916 
Q 1625 2713 2034 2713 
Q 2441 2713 2670 2916 
Q 2900 3119 2900 3481 
Q 2900 3844 2670 4047 
Q 2441 4250 2034 4250 
Q 1625 4250 1398 4047 
Q 1172 3844 1172 3481 
z
" transform="scale(0.015625)"/>
       </defs>
       <use xlink:href="#DejaVuSans-31"/>
       <use xlink:href="#DejaVuSans-33" x="63.623047"/>
       <use xlink:href="#DejaVuSans-2e" x="127.246094"/>
       <use xlink:href="#DejaVuSans-33" x="159.033203"/>
       <use xlink:href="#DejaVuSans-38" x="222.65625"/>
      </g>
     </g>
    </g>
    <g id="xtick_2">
     <g id="line2d_2">
      <g>
       <use xlink:href="#m4ed4ce3ff8" x="219.680021" y="307.584" style="stroke: #000000; stroke-width: 0.8"/>
      </g>
     </g>
     <g id="text_2">
      <!-- 13.40 -->
      <g transform="translate(205.365959 322.182437) scale(0.1 -0.1)">
       <defs>
        <path id="DejaVuSans-34" d="M 2419 4116 
L 825 1625 
L 2419 1625 
L 2419 4116 
z
M 2253 4666 
L 3047 4666 
L 3047 1625 
L 3713 1625 
L 3713 1100 
L 3047 1100 
L 3047 0 
L 2419 0 
L 2419 1100 
L 313 1100 
L 313 1709 
L 2253 4666 
z
" transform="scale(0.015625)"/>
        <path id="DejaVuSans-30" d="M 2034 4250 
Q 1547 4250 1301 3770 
Q 1056 3291 1056 2328 
Q 1056 1369 1301 889 
Q 1547 409 2034 409 
Q 2525 409 2770 889 
Q 3016 1369 3016 2328 
Q 3016 3291 2770 3770 
Q 2525 4250 2034 4250 
z
M 2034 4750 
Q 2819 4750 3233 4129 
Q 3647 3509 3647 2328 
Q 3647 1150 3233 529 
Q 2819 -91 2034 -91 
Q 1250 -91 836 529 
Q 422 1150 422 2328 
Q 422 3509 836 4129 
Q 1250 4750 2034 4750 
z
" transform="scale(0.015625)"/>
       </defs>
       <use xlink:href="#DejaVuSans-31"/>
       <use xlink:href="#DejaVuSans-33" x="63.623047"/>
       <use xlink:href="#DejaVuSans-2e" x="127.246094"/>
       <use xlink:href="#DejaVuSans-34" x="159.033203"/>
       <use xlink:href="#DejaVuSans-30" x="222.65625"/>
      </g>
     </g>
    </g>
    <g id="xtick_3">
     <g id="line2d_3">
      <g>
       <use xlink:href="#m4ed4ce3ff8" x="259.270158" y="307.584" style="stroke: #000000; stroke-width: 0.8"/>
      </g>
     </g>
     <g id="text_3">
      <!-- 13.42 -->
      <g transform="translate(244.956096 322.182437) scale(0.1 -0.1)">
       <defs>
        <path id="DejaVuSans-32" d="M 1228 531 
L 3431 531 
L 3431 0 
L 469 0 
L 469 531 
Q 828 903 1448 1529 
Q 2069 2156 2228 2338 
Q 2531 2678 2651 2914 
Q 2772 3150 2772 3378 
Q 2772 3750 2511 3984 
Q 2250 4219 1831 4219 
Q 1534 4219 1204 4116 
Q 875 4013 500 3803 
L 500 4441 
Q 881 4594 1212 4672 
Q 1544 4750 1819 4750 
Q 2544 4750 2975 4387 
Q 3406 4025 3406 3419 
Q 3406 3131 3298 2873 
Q 3191 2616 2906 2266 
Q 2828 2175 2409 1742 
Q 1991 1309 1228 531 
z
" transform="scale(0.015625)"/>
       </defs>
       <use xlink:href="#DejaVuSans-31"/>
       <use xlink:href="#DejaVuSans-33" x="63.623047"/>
       <use xlink:href="#DejaVuSans-2e" x="127.246094"/>
       <use xlink:href="#DejaVuSans-34" x="159.033203"/>
       <use xlink:href="#DejaVuSans-32" x="222.65625"/>
      </g>
     </g>
    </g>
    <g id="xtick_4">
     <g id="line2d_4">
      <g>
       <use xlink:href="#m4ed4ce3ff8" x="298.860295" y="307.584" style="stroke: #000000; stroke-width: 0.8"/>
      </g>
     </g>
     <g id="text_4">
      <!-- 13.44 -->
      <g transform="translate(284.546233 322.182437) scale(0.1 -0.1)">
       <use xlink:href="#DejaVuSans-31"/>
       <use xlink:href="#DejaVuSans-33" x="63.623047"/>
       <use xlink:href="#DejaVuSans-2e" x="127.246094"/>
       <use xlink:href="#DejaVuSans-34" x="159.033203"/>
       <use xlink:href="#DejaVuSans-34" x="222.65625"/>
      </g>
     </g>
    </g>
   </g>
   <g id="matplotlib.axis_2">
    <g id="ytick_1">
     <g id="line2d_5">
      <defs>
       <path id="m65ebdebf92" d="M 0 0 
L -3.5 0 
" style="stroke: #000000; stroke-width: 0.8"/>
      </defs>
      <g>
       <use xlink:href="#m65ebdebf92" x="145.983187" y="276.203155" style="stroke: #000000; stroke-width: 0.8"/>
      </g>
     </g>
     <g id="text_5">
      <!-- 52.58 -->
      <g transform="translate(110.355062 280.002374) scale(0.1 -0.1)">
       <defs>
        <path id="DejaVuSans-35" d="M 691 4666 
L 3169 4666 
L 3169 4134 
L 1269 4134 
L 1269 2991 
Q 1406 3038 1543 3061 
Q 1681 3084 1819 3084 
Q 2600 3084 3056 2656 
Q 3513 2228 3513 1497 
Q 3513 744 3044 326 
Q 2575 -91 1722 -91 
Q 1428 -91 1123 -41 
Q 819 9 494 109 
L 494 744 
Q 775 591 1075 516 
Q 1375 441 1709 441 
Q 2250 441 2565 725 
Q 2881 1009 2881 1497 
Q 2881 1984 2565 2268 
Q 2250 2553 1709 2553 
Q 1456 2553 1204 2497 
Q 953 2441 691 2322 
L 691 4666 
z
" transform="scale(0.015625)"/>
       </defs>
       <use xlink:href="#DejaVuSans-35"/>
       <use xlink:href="#DejaVuSans-32" x="63.623047"/>
       <use xlink:href="#DejaVuSans-2e" x="127.246094"/>
       <use xlink:href="#DejaVuSans-35" x="159.033203"/>
       <use xlink:href="#DejaVuSans-38" x="222.65625"/>
      </g>
     </g>
    </g>
    <g id="ytick_2">
     <g id="line2d_6">
      <g>
       <use xlink:href="#m65ebdebf92" x="145.983187" y="243.603692" style="stroke: #000000; stroke-width: 0.8"/>
      </g>
     </g>
     <g id="text_6">
      <!-- 52.59 -->
      <g transform="translate(110.355062 247.402911) scale(0.1 -0.1)">
       <defs>
        <path id="DejaVuSans-39" d="M 703 97 
L 703 672 
Q 941 559 1184 500 
Q 1428 441 1663 441 
Q 2288 441 2617 861 
Q 2947 1281 2994 2138 
Q 2813 1869 2534 1725 
Q 2256 1581 1919 1581 
Q 1219 1581 811 2004 
Q 403 2428 403 3163 
Q 403 3881 828 4315 
Q 1253 4750 1959 4750 
Q 2769 4750 3195 4129 
Q 3622 3509 3622 2328 
Q 3622 1225 3098 567 
Q 2575 -91 1691 -91 
Q 1453 -91 1209 -44 
Q 966 3 703 97 
z
M 1959 2075 
Q 2384 2075 2632 2365 
Q 2881 2656 2881 3163 
Q 2881 3666 2632 3958 
Q 2384 4250 1959 4250 
Q 1534 4250 1286 3958 
Q 1038 3666 1038 3163 
Q 1038 2656 1286 2365 
Q 1534 2075 1959 2075 
z
" transform="scale(0.015625)"/>
       </defs>
       <use xlink:href="#DejaVuSans-35"/>
       <use xlink:href="#DejaVuSans-32" x="63.623047"/>
       <use xlink:href="#DejaVuSans-2e" x="127.246094"/>
       <use xlink:href="#DejaVuSans-35" x="159.033203"/>
       <use xlink:href="#DejaVuSans-39" x="222.65625"/>
      </g>
     </g>
    </g>
    <g id="ytick_3">
     <g id="line2d_7">
      <g>
       <use xlink:href="#m65ebdebf92" x="145.983187" y="211.004229" style="stroke: #000000; stroke-width: 0.8"/>
      </g>
     </g>
     <g id="text_7">
      <!-- 52.60 -->
      <g transform="translate(110.355062 214.803448) scale(0.1 -0.1)">
       <defs>
        <path id="DejaVuSans-36" d="M 2113 2584 
Q 1688 2584 1439 2293 
Q 1191 2003 1191 1497 
Q 1191 994 1439 701 
Q 1688 409 2113 409 
Q 2538 409 2786 701 
Q 3034 994 3034 1497 
Q 3034 2003 2786 2293 
Q 2538 2584 2113 2584 
z
M 3366 4563 
L 3366 3988 
Q 3128 4100 2886 4159 
Q 2644 4219 2406 4219 
Q 1781 4219 1451 3797 
Q 1122 3375 1075 2522 
Q 1259 2794 1537 2939 
Q 1816 3084 2150 3084 
Q 2853 3084 3261 2657 
Q 3669 2231 3669 1497 
Q 3669 778 3244 343 
Q 2819 -91 2113 -91 
Q 1303 -91 875 529 
Q 447 1150 447 2328 
Q 447 3434 972 4092 
Q 1497 4750 2381 4750 
Q 2619 4750 2861 4703 
Q 3103 4656 3366 4563 
z
" transform="scale(0.015625)"/>
       </defs>
       <use xlink:href="#DejaVuSans-35"/>
       <use xlink:href="#DejaVuSans-32" x="63.623047"/>
       <use xlink:href="#DejaVuSans-2e" x="127.246094"/>
       <use xlink:href="#DejaVuSans-36" x="159.033203"/>
       <use xlink:href="#DejaVuSans-30" x="222.65625"/>
      </g>
     </g>
    </g>
    <g id="ytick_4">
     <g id="line2d_8">
      <g>
       <use xlink:href="#m65ebdebf92" x="145.983187" y="178.404766" style="stroke: #000000; stroke-width: 0.8"/>
      </g>
     </g>
     <g id="text_8">
      <!-- 52.61 -->
      <g transform="translate(110.355062 182.203985) scale(0.1 -0.1)">
       <use xlink:href="#DejaVuSans-35"/>
       <use xlink:href="#DejaVuSans-32" x="63.623047"/>
       <use xlink:href="#DejaVuSans-2e" x="127.246094"/>
       <use xlink:href="#DejaVuSans-36" x="159.033203"/>
       <use xlink:href="#DejaVuSans-31" x="222.65625"/>
      </g>
     </g>
    </g>
    <g id="ytick_5">
     <g id="line2d_9">
      <g>
       <use xlink:href="#m65ebdebf92" x="145.983187" y="145.805303" style="stroke: #000000; stroke-width: 0.8"/>
      </g>
     </g>
     <g id="text_9">
      <!-- 52.62 -->
      <g transform="translate(110.355062 149.604522) scale(0.1 -0.1)">
       <use xlink:href="#DejaVuSans-35"/>
       <use xlink:href="#DejaVuSans-32" x="63.623047"/>
       <use xlink:href="#DejaVuSans-2e" x="127.246094"/>
       <use xlink:href="#DejaVuSans-36" x="159.033203"/>
       <use xlink:href="#DejaVuSans-32" x="222.65625"/>
      </g>
     </g>
    </g>
    <g id="ytick_6">
     <g id="line2d_10">
      <g>
       <use xlink:href="#m65ebdebf92" x="145.983187" y="113.20584" style="stroke: #000000; stroke-width: 0.8"/>
      </g>
     </g>
     <g id="text_10">
      <!-- 52.63 -->
      <g transform="translate(110.355062 117.005058) scale(0.1 -0.1)">
       <use xlink:href="#DejaVuSans-35"/>
       <use xlink:href="#DejaVuSans-32" x="63.623047"/>
       <use xlink:href="#DejaVuSans-2e" x="127.246094"/>
       <use xlink:href="#DejaVuSans-36" x="159.033203"/>
       <use xlink:href="#DejaVuSans-33" x="222.65625"/>
      </g>
     </g>
    </g>
    <g id="ytick_7">
     <g id="line2d_11">
      <g>
       <use xlink:href="#m65ebdebf92" x="145.983187" y="80.606377" style="stroke: #000000; stroke-width: 0.8"/>
      </g>
     </g>
     <g id="text_11">
      <!-- 52.64 -->
      <g transform="translate(110.355062 84.405595) scale(0.1 -0.1)">
       <use xlink:href="#DejaVuSans-35"/>
       <use xlink:href="#DejaVuSans-32" x="63.623047"/>
       <use xlink:href="#DejaVuSans-2e" x="127.246094"/>
       <use xlink:href="#DejaVuSans-36" x="159.033203"/>
       <use xlink:href="#DejaVuSans-34" x="222.65625"/>
      </g>
     </g>
    </g>
    <g id="ytick_8">
     <g id="line2d_12">
      <g>
       <use xlink:href="#m65ebdebf92" x="145.983187" y="48.006914" style="stroke: #000000; stroke-width: 0.8"/>
      </g>
     </g>
     <g id="text_12">
      <!-- 52.65 -->
      <g transform="translate(110.355062 51.806132) scale(0.1 -0.1)">
       <use xlink:href="#DejaVuSans-35"/>
       <use xlink:href="#DejaVuSans-32" x="63.623047"/>
       <use xlink:href="#DejaVuSans-2e" x="127.246094"/>
       <use xlink:href="#DejaVuSans-36" x="159.033203"/>
       <use xlink:href="#DejaVuSans-35" x="222.65625"/>
      </g>
     </g>
    </g>
   </g>
   <g id="patch_3">
    <path d="M 145.983187 307.584 
L 145.983187 41.472 
" style="fill: none; stroke: #000000; stroke-width: 0.8; stroke-linejoin: miter; stroke-linecap: square"/>
   </g>
   <g id="patch_4">
    <path d="M 326.336813 307.584 
L 326.336813 41.472 
" style="fill: none; stroke: #000000; stroke-width: 0.8; stroke-linejoin: miter; stroke-linecap: square"/>
   </g>
   <g id="patch_5">
    <path d="M 145.983187 307.584 
L 326.336813 307.584 
" style="fill: none; stroke: #000000; stroke-width: 0.8; stroke-linejoin: miter; stroke-linecap: square"/>
   </g>
   <g id="patch_6">
    <path d="M 145.983187 41.472 
L 326.336813 41.472 
" style="fill: none; stroke: #000000; stroke-width: 0.8; stroke-linejoin: miter; stroke-linecap: square"/>
   </g>
   <g id="text_13">
    <!-- Nrdliches_Pankow -->
    <g transform="translate(178.025918 177.561903) scale(0.12 -0.12)">
     <defs>
      <path id="DejaVuSans-4e" d="M 628 4666 
L 1478 4666 
L 3547 763 
L 3547 4666 
L 4159 4666 
L 4159 0 
L 3309 0 
L 1241 3903 
L 1241 0 
L 628 0 
L 628 4666 
z
" transform="scale(0.015625)"/>
      <path id="DejaVuSans-f6" d="M 1959 3097 
Q 1497 3097 1228 2736 
Q 959 2375 959 1747 
Q 959 1119 1226 758 
Q 1494 397 1959 397 
Q 2419 397 2687 759 
Q 2956 1122 2956 1747 
Q 2956 2369 2687 2733 
Q 2419 3097 1959 3097 
z
M 1959 3584 
Q 2709 3584 3137 3096 
Q 3566 2609 3566 1747 
Q 3566 888 3137 398 
Q 2709 -91 1959 -91 
Q 1206 -91 779 398 
Q 353 888 353 1747 
Q 353 2609 779 3096 
Q 1206 3584 1959 3584 
z
M 2254 4850 
L 2888 4850 
L 2888 4219 
L 2254 4219 
L 2254 4850 
z
M 1032 4850 
L 1666 4850 
L 1666 4219 
L 1032 4219 
L 1032 4850 
z
" transform="scale(0.015625)"/>
      <path id="DejaVuSans-72" d="M 2631 2963 
Q 2534 3019 2420 3045 
Q 2306 3072 2169 3072 
Q 1681 3072 1420 2755 
Q 1159 2438 1159 1844 
L 1159 0 
L 581 0 
L 581 3500 
L 1159 3500 
L 1159 2956 
Q 1341 3275 1631 3429 
Q 1922 3584 2338 3584 
Q 2397 3584 2469 3576 
Q 2541 3569 2628 3553 
L 2631 2963 
z
" transform="scale(0.015625)"/>
      <path id="DejaVuSans-64" d="M 2906 2969 
L 2906 4863 
L 3481 4863 
L 3481 0 
L 2906 0 
L 2906 525 
Q 2725 213 2448 61 
Q 2172 -91 1784 -91 
Q 1150 -91 751 415 
Q 353 922 353 1747 
Q 353 2572 751 3078 
Q 1150 3584 1784 3584 
Q 2172 3584 2448 3432 
Q 2725 3281 2906 2969 
z
M 947 1747 
Q 947 1113 1208 752 
Q 1469 391 1925 391 
Q 2381 391 2643 752 
Q 2906 1113 2906 1747 
Q 2906 2381 2643 2742 
Q 2381 3103 1925 3103 
Q 1469 3103 1208 2742 
Q 947 2381 947 1747 
z
" transform="scale(0.015625)"/>
      <path id="DejaVuSans-6c" d="M 603 4863 
L 1178 4863 
L 1178 0 
L 603 0 
L 603 4863 
z
" transform="scale(0.015625)"/>
      <path id="DejaVuSans-69" d="M 603 3500 
L 1178 3500 
L 1178 0 
L 603 0 
L 603 3500 
z
M 603 4863 
L 1178 4863 
L 1178 4134 
L 603 4134 
L 603 4863 
z
" transform="scale(0.015625)"/>
      <path id="DejaVuSans-63" d="M 3122 3366 
L 3122 2828 
Q 2878 2963 2633 3030 
Q 2388 3097 2138 3097 
Q 1578 3097 1268 2742 
Q 959 2388 959 1747 
Q 959 1106 1268 751 
Q 1578 397 2138 397 
Q 2388 397 2633 464 
Q 2878 531 3122 666 
L 3122 134 
Q 2881 22 2623 -34 
Q 2366 -91 2075 -91 
Q 1284 -91 818 406 
Q 353 903 353 1747 
Q 353 2603 823 3093 
Q 1294 3584 2113 3584 
Q 2378 3584 2631 3529 
Q 2884 3475 3122 3366 
z
" transform="scale(0.015625)"/>
      <path id="DejaVuSans-68" d="M 3513 2113 
L 3513 0 
L 2938 0 
L 2938 2094 
Q 2938 2591 2744 2837 
Q 2550 3084 2163 3084 
Q 1697 3084 1428 2787 
Q 1159 2491 1159 1978 
L 1159 0 
L 581 0 
L 581 4863 
L 1159 4863 
L 1159 2956 
Q 1366 3272 1645 3428 
Q 1925 3584 2291 3584 
Q 2894 3584 3203 3211 
Q 3513 2838 3513 2113 
z
" transform="scale(0.015625)"/>
      <path id="DejaVuSans-65" d="M 3597 1894 
L 3597 1613 
L 953 1613 
Q 991 1019 1311 708 
Q 1631 397 2203 397 
Q 2534 397 2845 478 
Q 3156 559 3463 722 
L 3463 178 
Q 3153 47 2828 -22 
Q 2503 -91 2169 -91 
Q 1331 -91 842 396 
Q 353 884 353 1716 
Q 353 2575 817 3079 
Q 1281 3584 2069 3584 
Q 2775 3584 3186 3129 
Q 3597 2675 3597 1894 
z
M 3022 2063 
Q 3016 2534 2758 2815 
Q 2500 3097 2075 3097 
Q 1594 3097 1305 2825 
Q 1016 2553 972 2059 
L 3022 2063 
z
" transform="scale(0.015625)"/>
      <path id="DejaVuSans-73" d="M 2834 3397 
L 2834 2853 
Q 2591 2978 2328 3040 
Q 2066 3103 1784 3103 
Q 1356 3103 1142 2972 
Q 928 2841 928 2578 
Q 928 2378 1081 2264 
Q 1234 2150 1697 2047 
L 1894 2003 
Q 2506 1872 2764 1633 
Q 3022 1394 3022 966 
Q 3022 478 2636 193 
Q 2250 -91 1575 -91 
Q 1294 -91 989 -36 
Q 684 19 347 128 
L 347 722 
Q 666 556 975 473 
Q 1284 391 1588 391 
Q 1994 391 2212 530 
Q 2431 669 2431 922 
Q 2431 1156 2273 1281 
Q 2116 1406 1581 1522 
L 1381 1569 
Q 847 1681 609 1914 
Q 372 2147 372 2553 
Q 372 3047 722 3315 
Q 1072 3584 1716 3584 
Q 2034 3584 2315 3537 
Q 2597 3491 2834 3397 
z
" transform="scale(0.015625)"/>
      <path id="DejaVuSans-5f" d="M 3263 -1063 
L 3263 -1509 
L -63 -1509 
L -63 -1063 
L 3263 -1063 
z
" transform="scale(0.015625)"/>
      <path id="DejaVuSans-50" d="M 1259 4147 
L 1259 2394 
L 2053 2394 
Q 2494 2394 2734 2622 
Q 2975 2850 2975 3272 
Q 2975 3691 2734 3919 
Q 2494 4147 2053 4147 
L 1259 4147 
z
M 628 4666 
L 2053 4666 
Q 2838 4666 3239 4311 
Q 3641 3956 3641 3272 
Q 3641 2581 3239 2228 
Q 2838 1875 2053 1875 
L 1259 1875 
L 1259 0 
L 628 0 
L 628 4666 
z
" transform="scale(0.015625)"/>
      <path id="DejaVuSans-61" d="M 2194 1759 
Q 1497 1759 1228 1600 
Q 959 1441 959 1056 
Q 959 750 1161 570 
Q 1363 391 1709 391 
Q 2188 391 2477 730 
Q 2766 1069 2766 1631 
L 2766 1759 
L 2194 1759 
z
M 3341 1997 
L 3341 0 
L 2766 0 
L 2766 531 
Q 2569 213 2275 61 
Q 1981 -91 1556 -91 
Q 1019 -91 701 211 
Q 384 513 384 1019 
Q 384 1609 779 1909 
Q 1175 2209 1959 2209 
L 2766 2209 
L 2766 2266 
Q 2766 2663 2505 2880 
Q 2244 3097 1772 3097 
Q 1472 3097 1187 3025 
Q 903 2953 641 2809 
L 641 3341 
Q 956 3463 1253 3523 
Q 1550 3584 1831 3584 
Q 2591 3584 2966 3190 
Q 3341 2797 3341 1997 
z
" transform="scale(0.015625)"/>
      <path id="DejaVuSans-6e" d="M 3513 2113 
L 3513 0 
L 2938 0 
L 2938 2094 
Q 2938 2591 2744 2837 
Q 2550 3084 2163 3084 
Q 1697 3084 1428 2787 
Q 1159 2491 1159 1978 
L 1159 0 
L 581 0 
L 581 3500 
L 1159 3500 
L 1159 2956 
Q 1366 3272 1645 3428 
Q 1925 3584 2291 3584 
Q 2894 3584 3203 3211 
Q 3513 2838 3513 2113 
z
" transform="scale(0.015625)"/>
      <path id="DejaVuSans-6b" d="M 581 4863 
L 1159 4863 
L 1159 1991 
L 2875 3500 
L 3609 3500 
L 1753 1863 
L 3688 0 
L 2938 0 
L 1159 1709 
L 1159 0 
L 581 0 
L 581 4863 
z
" transform="scale(0.015625)"/>
      <path id="DejaVuSans-6f" d="M 1959 3097 
Q 1497 3097 1228 2736 
Q 959 2375 959 1747 
Q 959 1119 1226 758 
Q 1494 397 1959 397 
Q 2419 397 2687 759 
Q 2956 1122 2956 1747 
Q 2956 2369 2687 2733 
Q 2419 3097 1959 3097 
z
M 1959 3584 
Q 2709 3584 3137 3096 
Q 3566 2609 3566 1747 
Q 3566 888 3137 398 
Q 2709 -91 1959 -91 
Q 1206 -91 779 398 
Q 353 888 353 1747 
Q 353 2609 779 3096 
Q 1206 3584 1959 3584 
z
" transform="scale(0.015625)"/>
      <path id="DejaVuSans-77" d="M 269 3500 
L 844 3500 
L 1563 769 
L 2278 3500 
L 2956 3500 
L 3675 769 
L 4391 3500 
L 4966 3500 
L 4050 0 
L 3372 0 
L 2619 2869 
L 1863 0 
L 1184 0 
L 269 3500 
z
" transform="scale(0.015625)"/>
     </defs>
     <use xlink:href="#DejaVuSans-4e"/>
     <use xlink:href="#DejaVuSans-f6" x="74.804688"/>
     <use xlink:href="#DejaVuSans-72" x="135.986328"/>
     <use xlink:href="#DejaVuSans-64" x="175.349609"/>
     <use xlink:href="#DejaVuSans-6c" x="238.826172"/>
     <use xlink:href="#DejaVuSans-69" x="266.609375"/>
     <use xlink:href="#DejaVuSans-63" x="294.392578"/>
     <use xlink:href="#DejaVuSans-68" x="349.373047"/>
     <use xlink:href="#DejaVuSans-65" x="412.751953"/>
     <use xlink:href="#DejaVuSans-73" x="474.275391"/>
     <use xlink:href="#DejaVuSans-5f" x="526.375"/>
     <use xlink:href="#DejaVuSans-50" x="576.375"/>
     <use xlink:href="#DejaVuSans-61" x="632.177734"/>
     <use xlink:href="#DejaVuSans-6e" x="693.457031"/>
     <use xlink:href="#DejaVuSans-6b" x="756.835938"/>
     <use xlink:href="#DejaVuSans-6f" x="811.121094"/>
     <use xlink:href="#DejaVuSans-77" x="872.302734"/>
    </g>
   </g>
  </g>
 </g>
 <defs>
  <clipPath id="p85b6dd9c3c">
   <rect x="145.983187" y="41.472" width="180.353626" height="266.112"/>
  </clipPath>
 </defs>
</svg>
