<?xml version="1.0" encoding="utf-8" standalone="no"?>
<!DOCTYPE svg PUBLIC "-//W3C//DTD SVG 1.1//EN"
  "http://www.w3.org/Graphics/SVG/1.1/DTD/svg11.dtd">
<svg xmlns:xlink="http://www.w3.org/1999/xlink" width="720pt" height="720pt" viewBox="0 0 720 720" xmlns="http://www.w3.org/2000/svg" version="1.1">
 <metadata>
  <rdf:RDF xmlns:dc="http://purl.org/dc/elements/1.1/" xmlns:cc="http://creativecommons.org/ns#" xmlns:rdf="http://www.w3.org/1999/02/22-rdf-syntax-ns#">
   <cc:Work>
    <dc:type rdf:resource="http://purl.org/dc/dcmitype/StillImage"/>
    <dc:date>2024-10-17T11:36:11.622900</dc:date>
    <dc:format>image/svg+xml</dc:format>
    <dc:creator>
     <cc:Agent>
      <dc:title>Matplotlib v3.9.2, https://matplotlib.org/</dc:title>
     </cc:Agent>
    </dc:creator>
   </cc:Work>
  </rdf:RDF>
 </metadata>
 <defs>
  <style type="text/css">*{stroke-linejoin: round; stroke-linecap: butt}</style>
 </defs>
 <g id="figure_1">
  <g id="patch_1">
   <path d="M 0 720 
L 720 720 
L 720 0 
L 0 0 
z
" style="fill: #ffffff"/>
  </g>
  <g id="axes_1">
   <g id="patch_2">
    <path d="M 172.197502 640.8 
L 565.802498 640.8 
L 565.802498 86.4 
L 172.197502 86.4 
z
" style="fill: #ffffff"/>
   </g>
   <g id="PatchCollection_1">
    <path d="M 221.408166 427.313 
L 221.66433 427.362217 
L 221.277 427.953611 
L 221.387477 428.6882 
L 221.436754 428.722509 
L 222.408987 429.405702 
L 222.782872 429.488957 
L 221.655919 431.044371 
L 221.766064 431.137163 
L 218.204653 436.024492 
L 219.312465 436.905191 
L 220.470482 437.825299 
L 219.074225 439.819043 
L 218.97567 439.959788 
L 218.924406 440.032975 
L 219.536399 440.51886 
L 218.622781 441.789539 
L 218.606885 442.831648 
L 218.716435 442.912253 
L 219.361808 443.387011 
L 219.968304 443.833222 
L 220.564267 444.271618 
L 220.575262 444.416536 
L 220.575924 444.425411 
L 220.800918 447.392117 
L 220.843241 447.950593 
L 220.870794 448.314013 
L 222.434884 449.923341 
L 222.34653 451.128251 
L 222.124318 453.203064 
L 222.050733 453.149945 
L 220.280128 454.891474 
L 218.053708 457.23294 
L 216.48564 459.546268 
L 216.164016 460.020751 
L 214.706494 460.06069 
L 214.727225 460.960663 
L 212.980331 462.622646 
L 212.826803 462.768756 
L 211.982466 463.572095 
L 208.683337 466.75419 
L 207.23522 467.995727 
L 207.367355 468.127066 
L 205.545618 470.028813 
L 205.402886 470.177506 
L 205.365199 470.216782 
L 203.748784 471.900291 
L 203.733588 471.916118 
L 203.734743 472.276759 
L 203.733683 472.610639 
L 203.731233 472.853118 
L 203.730239 472.944453 
L 203.725537 473.278201 
L 203.718516 473.611948 
L 203.709707 473.811641 
L 203.700037 474.030607 
L 203.689903 474.260965 
L 203.67924 474.503179 
L 203.668046 474.757447 
L 203.656323 475.024697 
L 203.643938 475.305392 
L 203.63791 475.442296 
L 203.635129 475.505416 
L 203.598171 476.021238 
L 203.574459 476.35227 
L 203.54121 476.816166 
L 203.450405 477.704151 
L 203.249521 479.408986 
L 202.990828 481.224592 
L 202.957632 481.457571 
L 202.727936 482.914696 
L 202.441536 484.684499 
L 202.325306 485.402736 
L 202.283182 485.622497 
L 202.271591 485.682901 
L 202.374559 486.332113 
L 201.967715 488.690407 
L 201.764512 489.868028 
L 201.5627 491.041676 
L 201.2828 492.663588 
L 201.10503 493.704041 
L 200.55384 496.930645 
L 200.81758 496.991248 
L 200.246122 500.43344 
L 199.958803 502.167153 
L 199.764666 503.176705 
L 199.548225 504.302238 
L 199.474489 504.718578 
L 199.359991 505.365078 
L 199.286208 505.781948 
L 199.1856 506.350028 
L 199.33734 506.431561 
L 198.845825 508.139709 
L 198.458429 508.921456 
L 198.442268 508.931325 
L 198.418821 508.945498 
L 198.252378 509.276464 
L 198.12733 509.213609 
L 197.999236 509.268384 
L 197.932142 509.454101 
L 197.79749 510.261414 
L 197.673303 510.907715 
L 197.534612 511.755762 
L 197.444071 512.275492 
L 197.151322 513.988805 
L 197.111979 514.27566 
L 197.03601 514.692729 
L 196.975208 515.034292 
L 196.94441 515.201398 
L 196.968717 515.212923 
L 197.312797 515.401819 
L 197.189737 516.102299 
L 197.151785 516.318417 
L 197.121252 516.492278 
L 197.046806 516.916699 
L 196.999847 517.183684 
L 196.906326 517.716395 
L 196.867778 517.935957 
L 196.775582 518.460986 
L 196.739618 518.665314 
L 196.66186 519.108347 
L 196.410043 520.541892 
L 196.279431 520.629121 
L 195.90144 520.881667 
L 195.867926 521.081426 
L 195.65704 522.337401 
L 195.264743 524.674298 
L 195.002195 526.238256 
L 194.976894 526.389135 
L 194.815485 527.340637 
L 194.753093 527.70611 
L 194.75307 527.706245 
L 194.660036 528.248095 
L 194.287476 530.418415 
L 193.832746 533.075683 
L 193.725423 533.702841 
L 193.594414 534.468692 
L 193.951476 534.533733 
L 193.543746 537.09496 
L 193.165821 536.909045 
L 192.62185 539.950064 
L 192.557339 540.311099 
L 191.979125 543.543399 
L 191.840036 544.333492 
L 191.701146 545.122989 
L 191.552519 545.967326 
L 191.418596 546.728541 
L 191.35435 547.093617 
L 191.26275 547.614076 
L 191.028086 549.033182 
L 190.909 549.753201 
L 190.828063 550.240476 
L 190.718381 550.897838 
L 190.587439 551.682367 
L 190.449939 552.506239 
L 190.310121 553.343953 
L 190.088638 554.671129 
L 190.318268 556.667654 
L 190.518556 558.392095 
L 190.788522 560.715944 
L 190.852106 561.263624 
L 190.989671 562.447803 
L 191.197643 564.238278 
L 191.44648 566.328391 
L 191.478404 566.596899 
L 191.679487 568.285971 
L 191.867324 570.19295 
L 191.997803 571.516947 
L 192.109538 572.651517 
L 192.514817 576.026284 
L 192.666226 577.256362 
L 193.494998 577.66025 
L 193.160522 577.698864 
L 193.250731 578.456238 
L 193.347498 579.271101 
L 193.360413 579.380452 
L 193.417373 579.861436 
L 193.543282 580.761872 
L 193.691512 581.80981 
L 193.717806 582.003806 
L 193.83378 582.859536 
L 193.863717 582.855496 
L 194.007244 583.871509 
L 194.194286 585.21617 
L 194.249921 585.613435 
L 194.308471 586.030967 
L 194.318473 586.101969 
L 194.374969 586.504069 
L 194.298205 586.510295 
L 194.513396 587.834225 
L 194.74488 589.258167 
L 194.8945 590.289745 
L 195.140887 592.248982 
L 195.174533 592.25534 
L 195.184137 592.323958 
L 195.617499 595.411075 
L 195.22487 595.472473 
L 195.423503 596.97298 
L 195.691349 598.905326 
L 196.062187 601.448207 
L 196.331623 603.297099 
L 196.392822 603.717149 
L 196.448987 604.102691 
L 196.550191 604.797342 
L 196.679412 605.742221 
L 196.923083 607.525145 
L 196.975076 607.905587 
L 196.989581 608.011295 
L 197.109197 608.886894 
L 197.281138 610.144857 
L 197.399629 611.011912 
L 197.792059 610.956939 
L 198.134086 613.380468 
L 198.403919 615.301554 
L 198.445911 615.6 
L 198.861588 615.540854 
L 199.555643 615.442233 
L 207.338477 611.095101 
L 208.741556 610.311432 
L 210.864123 609.125797 
L 211.449026 608.771914 
L 211.624543 608.665743 
L 212.486366 608.188203 
L 214.027805 607.334063 
L 214.78551 606.914213 
L 215.529449 606.587976 
L 216.767398 606.045104 
L 216.870457 605.917208 
L 216.998021 605.863626 
L 218.146964 605.381251 
L 220.127726 604.551353 
L 220.426106 604.42657 
L 220.745216 604.292912 
L 226.808576 600.785017 
L 227.39752 600.244225 
L 231.436537 596.535511 
L 231.737698 596.258989 
L 232.993011 595.116802 
L 233.474723 594.800672 
L 233.546453 594.753514 
L 234.060288 594.416256 
L 239.471652 590.864382 
L 240.556746 590.128667 
L 240.583239 590.110718 
L 241.404527 589.553897 
L 243.795404 587.93278 
L 243.936215 587.837338 
L 244.582318 587.399207 
L 245.758879 586.544604 
L 246.825561 585.769877 
L 247.213421 585.488189 
L 248.129952 584.822481 
L 249.201601 584.044112 
L 251.606983 582.359411 
L 253.038608 581.335582 
L 254.745828 580.114578 
L 255.679779 579.446552 
L 255.785221 579.371246 
L 256.47166 578.880261 
L 258.268957 577.594878 
L 262.024695 575.271957 
L 264.173557 573.925971 
L 264.790848 573.540363 
L 265.012927 573.431873 
L 267.594488 572.170533 
L 269.30449 571.334144 
L 272.635146 569.448492 
L 273.742494 568.821928 
L 276.437446 567.169085 
L 276.635284 567.047747 
L 276.877167 566.899385 
L 277.986171 566.219173 
L 280.510706 564.701312 
L 283.147439 563.116027 
L 282.652811 562.413825 
L 281.964187 561.362974 
L 281.562286 560.697664 
L 281.216881 560.124881 
L 280.428643 558.601193 
L 280.601435 557.796164 
L 280.794315 556.91828 
L 281.52864 557.108236 
L 282.132287 557.264082 
L 283.59928 557.643663 
L 284.992423 558.00397 
L 285.696745 558.183726 
L 286.764949 558.436339 
L 287.81653 558.712331 
L 288.434019 559.169537 
L 288.573705 559.059922 
L 289.789278 558.106234 
L 290.164818 557.811564 
L 290.620832 557.453707 
L 290.736541 557.362173 
L 291.611942 556.669112 
L 291.683871 556.612151 
L 292.472838 555.987243 
L 293.106422 555.485463 
L 293.212063 555.401744 
L 294.043486 554.743455 
L 294.105612 554.694244 
L 294.974456 554.006216 
L 295.771966 553.499998 
L 295.957684 553.38217 
L 296.852358 552.814288 
L 297.022179 552.706527 
L 297.596883 552.341783 
L 297.835719 552.190109 
L 297.982093 552.097251 
L 298.617665 551.693826 
L 298.980489 551.463534 
L 299.394842 551.200523 
L 300.004715 550.813458 
L 300.297928 550.627277 
L 300.936678 550.221997 
L 301.032849 550.160864 
L 301.550327 549.832415 
L 301.682859 549.748366 
L 302.039589 549.521915 
L 302.395989 549.295664 
L 302.922011 548.961783 
L 303.031361 548.892371 
L 303.848477 548.373767 
L 304.010417 548.270974 
L 304.822234 547.755682 
L 305.347991 547.422 
L 305.977667 547.02235 
L 306.586944 546.635683 
L 307.488308 546.063496 
L 307.971212 545.757103 
L 308.570886 545.376462 
L 308.646379 545.325771 
L 309.565241 544.663266 
L 310.532705 543.965634 
L 310.840688 543.743621 
L 311.416716 543.328275 
L 312.247939 542.728933 
L 312.669115 542.425321 
L 312.78277 542.343258 
L 313.023792 542.169529 
L 314.04729 541.431562 
L 314.188763 541.329563 
L 314.741411 540.93104 
L 314.855133 540.895406 
L 315.906183 540.558678 
L 316.707006 540.302622 
L 316.997967 540.209631 
L 317.611814 540.013382 
L 318.722871 539.658175 
L 319.016217 539.643935 
L 319.30943 539.629761 
L 320.780927 539.570748 
L 320.984064 539.562336 
L 321.599235 539.544718 
L 322.117574 539.538161 
L 322.283819 539.536042 
L 322.995028 539.5271 
L 323.438458 539.52147 
L 323.47217 539.521073 
L 324.957974 539.502329 
L 325.49817 539.495507 
L 326.265743 539.485837 
L 326.984039 539.476763 
L 327.639547 539.598632 
L 327.84679 539.637113 
L 328.795245 539.813491 
L 329.773175 539.995235 
L 330.023601 540.04173 
L 330.203026 540.075111 
L 330.723286 540.171812 
L 330.765675 540.179693 
L 331.228511 540.26573 
L 331.416016 540.300568 
L 331.714065 540.36349 
L 332.612514 540.552982 
L 332.72107 540.575832 
L 333.586536 540.758437 
L 333.801992 540.803806 
L 333.834512 540.810694 
L 334.061559 540.858581 
L 334.826615 541.019924 
L 335.145461 541.087151 
L 335.779906 541.220941 
L 336.342157 541.339564 
L 336.781613 541.432224 
L 337.431292 541.56926 
L 337.777889 541.642315 
L 338.734425 541.844127 
L 339.533923 542.01269 
L 340.006097 542.112304 
L 340.426478 542.20099 
L 341.145569 542.352597 
L 341.388312 542.412935 
L 341.870157 542.532685 
L 342.59309 542.712375 
L 342.92028 542.793709 
L 343.942983 543.047844 
L 344.996087 543.309597 
L 345.175247 543.354039 
L 346.03707 543.568237 
L 346.863392 543.773625 
L 346.984532 543.803695 
L 347.937955 544.040676 
L 348.469011 544.172678 
L 348.834683 544.26355 
L 349.818838 544.508082 
L 350.759545 544.733539 
L 351.697469 544.958267 
L 352.616584 545.178492 
L 353.541858 545.40024 
L 354.430108 545.613112 
L 354.957123 545.739418 
L 355.108664 545.77631 
L 355.453473 545.808897 
L 355.729797 545.834993 
L 355.859481 545.847312 
L 355.96854 545.871332 
L 356.512339 545.991104 
L 356.648514 546.020975 
L 356.807936 546.055946 
L 357.112939 546.122841 
L 367.476738 548.39675 
L 368.293721 548.575976 
L 368.560971 548.634659 
L 370.042867 548.959796 
L 370.058895 548.963373 
L 370.690095 549.1018 
L 371.282085 549.231683 
L 371.901297 549.367593 
L 372.483021 549.495223 
L 372.971754 549.601395 
L 375.563581 550.161196 
L 375.599678 550.169011 
L 375.923424 550.238887 
L 377.52348 550.58449 
L 377.929951 550.672249 
L 377.977639 550.682581 
L 379.969661 551.112764 
L 380.740546 551.27934 
L 381.865314 551.522216 
L 382.624078 551.68601 
L 382.845429 551.73383 
L 382.873114 551.739858 
L 383.100558 551.788936 
L 383.288858 551.82967 
L 383.612605 551.899744 
L 385.881414 552.39053 
L 385.920624 552.399074 
L 386.308948 552.483786 
L 386.369352 552.4969 
L 387.070847 552.642318 
L 387.703615 552.773489 
L 387.87582 552.809387 
L 388.202282 552.877475 
L 389.015954 553.044647 
L 389.22419 553.087433 
L 391.422859 553.539009 
L 391.494192 553.552057 
L 393.398389 553.923955 
L 395.942661 554.429511 
L 396.443978 554.529854 
L 397.086106 554.659273 
L 401.370053 555.522686 
L 401.94767 555.639057 
L 404.631694 556.180048 
L 406.294074 556.61076 
L 408.026662 557.003124 
L 408.903851 557.064257 
L 409.15739 557.081875 
L 409.473056 557.133007 
L 410.942434 557.370916 
L 411.114574 557.398734 
L 411.420768 557.448342 
L 411.547141 557.468874 
L 411.959905 557.535637 
L 412.258151 557.570741 
L 412.412938 557.597631 
L 413.352187 557.761094 
L 414.711486 557.978272 
L 417.375308 558.403818 
L 419.752011 558.901162 
L 421.482876 559.263456 
L 423.511061 559.687876 
L 424.04013 559.798618 
L 424.669939 559.930421 
L 425.223514 560.046263 
L 425.332666 560.069113 
L 428.186643 560.666468 
L 430.82437 561.218453 
L 431.222363 561.301774 
L 431.778919 561.418212 
L 432.942035 561.661618 
L 433.209749 561.717651 
L 433.293865 561.735269 
L 434.278947 561.953771 
L 435.440077 562.211351 
L 436.043326 562.343618 
L 436.550075 562.455287 
L 437.128951 562.582918 
L 437.706104 562.7079 
L 438.979764 562.988992 
L 439.345303 563.066816 
L 440.21375 563.251738 
L 440.272167 563.265184 
L 440.445499 563.305188 
L 441.45522 563.52475 
L 442.799351 563.820216 
L 443.071436 563.868301 
L 443.478835 563.940163 
L 443.494598 563.868897 
L 443.527913 563.718813 
L 443.538776 563.669999 
L 443.565732 563.548396 
L 443.652895 563.151925 
L 443.677401 563.040588 
L 444.313767 560.156607 
L 444.360859 559.943602 
L 444.792698 557.987346 
L 444.897213 557.514045 
L 444.955962 557.460993 
L 445.01067 557.403767 
L 445.060875 557.342568 
L 445.106377 557.277792 
L 445.146977 557.209771 
L 445.182346 557.138968 
L 445.212349 557.065714 
L 445.291498 556.804955 
L 445.436879 556.230252 
L 445.474499 556.065928 
L 445.505894 555.90028 
L 445.53093 555.733571 
L 445.549608 555.566002 
L 445.561927 555.397903 
L 445.567822 555.229406 
L 445.570802 554.866516 
L 445.566762 554.487597 
L 445.595904 554.312014 
L 445.591997 553.961575 
L 445.593123 553.764334 
L 445.599017 553.567158 
L 445.609615 553.370115 
L 445.624848 553.17347 
L 445.671675 552.594196 
L 445.885806 552.198918 
L 445.821891 552.169643 
L 445.126843 551.85146 
L 445.087434 551.833445 
L 444.517566 551.710649 
L 443.367961 551.462938 
L 443.465588 551.350607 
L 443.629681 551.16176 
L 443.795759 550.970628 
L 443.882723 550.870484 
L 443.952798 550.789746 
L 444.027773 550.703577 
L 444.119042 550.598465 
L 444.544125 550.084962 
L 455.426528 536.781546 
L 461.213234 529.718002 
L 461.445446 529.434525 
L 461.56546 529.288018 
L 461.794825 529.008051 
L 456.509437 524.657607 
L 453.68182 522.330182 
L 453.224415 521.961662 
L 446.486472 516.421475 
L 445.218575 515.342276 
L 441.211416 511.931346 
L 439.817875 510.767169 
L 439.782441 510.737563 
L 439.906694 510.529327 
L 439.99538 510.237769 
L 440.077707 509.975619 
L 440.17189 509.716847 
L 440.218916 509.552192 
L 440.264285 509.394227 
L 440.335949 509.089356 
L 440.403242 508.783426 
L 440.46623 508.476636 
L 440.524779 508.168984 
L 440.579223 507.861663 
L 440.629295 507.553547 
L 440.674996 507.244769 
L 440.716325 506.935395 
L 440.753349 506.925328 
L 440.765139 506.780807 
L 440.739904 506.767296 
L 440.918269 505.326465 
L 440.92231 505.292884 
L 440.911845 505.119222 
L 440.809117 503.412531 
L 440.554717 503.478831 
L 440.282064 503.632037 
L 439.853972 503.872585 
L 439.791051 503.907954 
L 439.715214 503.933056 
L 439.594803 503.972796 
L 438.846304 504.220374 
L 438.289948 504.327473 
L 438.063166 504.371054 
L 437.339373 504.352774 
L 435.891786 503.905238 
L 435.184749 503.649778 
L 434.241791 503.483997 
L 432.992108 503.347888 
L 432.709558 503.34855 
L 429.50448 503.356101 
L 427.890052 503.156077 
L 427.478017 503.046462 
L 427.474109 503.045468 
L 427.005776 502.928501 
L 425.846103 502.638931 
L 425.858357 502.545344 
L 426.46717 497.882081 
L 427.722284 498.030906 
L 427.896079 496.663064 
L 426.698323 496.510397 
L 426.699912 496.49874 
L 426.884768 495.134805 
L 426.919938 494.875834 
L 426.948749 494.663227 
L 426.822708 494.667134 
L 426.758197 494.669188 
L 426.908877 493.676886 
L 427.386682 490.528503 
L 427.616841 489.273919 
L 428.013643 488.038807 
L 428.977663 485.548846 
L 429.015085 484.693183 
L 427.510007 484.575487 
L 427.719303 483.602525 
L 427.777853 483.277983 
L 427.87919 482.551276 
L 428.311095 482.637842 
L 428.313214 482.58426 
L 428.400907 480.393936 
L 428.609209 475.192001 
L 428.611395 475.136366 
L 428.619343 474.938329 
L 428.622919 474.842755 
L 428.624509 474.800697 
L 428.640405 474.381906 
L 428.644048 474.285074 
L 428.649081 474.151482 
L 428.659083 473.919733 
L 428.809034 470.427601 
L 428.825592 470.042258 
L 429.00568 465.849846 
L 429.3079 465.671944 
L 429.414403 465.630813 
L 429.517528 465.59114 
L 429.620122 465.551532 
L 429.719008 465.515833 
L 429.943141 465.540074 
L 430.213437 465.569283 
L 431.085129 465.663532 
L 431.365692 465.84256 
L 431.364897 465.621739 
L 431.363705 465.277461 
L 430.92968 465.126118 
L 430.921732 465.063661 
L 430.876826 464.709778 
L 430.511817 464.791377 
L 430.287883 464.836813 
L 430.206946 464.237603 
L 430.000697 464.256612 
L 429.360092 459.177804 
L 429.56813 459.153828 
L 429.27134 456.809844 
L 429.025748 454.748742 
L 428.157699 451.765147 
L 428.173926 451.49942 
L 428.129815 450.477645 
L 428.029472 448.152935 
L 428.385077 446.302784 
L 428.464225 444.75492 
L 428.280031 443.081876 
L 428.273276 441.899287 
L 428.314141 440.994015 
L 428.380109 440.245914 
L 428.418922 440.042513 
L 428.575364 439.222681 
L 428.726177 438.077183 
L 428.856589 437.160387 
L 429.021907 436.26962 
L 429.144636 435.684385 
L 429.15828 435.619411 
L 429.185833 435.483236 
L 429.276042 435.037621 
L 429.581045 433.530822 
L 429.771332 432.442747 
L 429.799945 432.296173 
L 430.175552 430.864416 
L 430.539104 429.617184 
L 431.08844 427.469713 
L 431.130498 427.305323 
L 431.169311 427.108214 
L 431.952449 423.768087 
L 431.987221 423.553955 
L 432.005303 423.442485 
L 432.031068 423.283328 
L 432.095645 422.885533 
L 437.156901 424.600833 
L 437.329438 424.099914 
L 437.38196 423.947512 
L 437.391829 423.918899 
L 438.888362 419.574349 
L 443.041764 419.358298 
L 446.039731 419.174832 
L 446.125702 418.942355 
L 446.588869 417.406214 
L 447.036669 416.067183 
L 447.191654 415.58004 
L 448.203826 412.415033 
L 448.706137 410.844186 
L 449.712215 407.744617 
L 451.126487 407.920068 
L 451.464606 406.862792 
L 451.871343 405.658412 
L 452.546919 403.494913 
L 452.97995 402.162902 
L 453.543062 400.307453 
L 453.809053 399.403903 
L 454.343421 397.583822 
L 454.330903 396.840092 
L 454.602723 396.105172 
L 454.705847 395.964029 
L 455.112518 395.407342 
L 455.223325 395.255536 
L 455.337379 394.993452 
L 455.49084 394.633012 
L 455.767098 393.965715 
L 456.009312 393.413333 
L 457.128979 391.278645 
L 457.588835 390.401854 
L 458.615776 388.853725 
L 459.41799 387.644378 
L 461.93961 384.410886 
L 466.004988 380.307888 
L 466.529288 379.778753 
L 468.211273 378.081203 
L 468.634435 377.586376 
L 471.171422 375.677675 
L 472.214657 375.050847 
L 482.487584 368.678179 
L 484.027434 367.695481 
L 484.849981 367.183765 
L 488.105793 365.187107 
L 488.241504 365.102329 
L 489.120415 364.553258 
L 493.377206 361.925863 
L 496.099446 360.255932 
L 497.460732 359.415701 
L 497.901446 359.143682 
L 501.220312 357.095098 
L 509.305102 352.069674 
L 515.110341 348.504526 
L 515.113532 348.502566 
L 515.636573 348.179085 
L 516.142063 347.862557 
L 522.807481 343.744326 
L 526.61965 341.367027 
L 528.325082 340.280078 
L 529.644906 339.515353 
L 544.07852 330.468132 
L 544.135348 330.432499 
L 544.391802 330.271752 
L 544.494728 330.207241 
L 544.898749 329.953966 
L 544.876693 329.89429 
L 544.545263 329.003391 
L 544.47605 328.817872 
L 544.453928 328.758726 
L 544.430482 328.679181 
L 532.589821 299.835597 
L 532.284222 299.091205 
L 524.154791 279.288087 
L 518.693356 265.984142 
L 518.568838 265.680795 
L 518.408885 265.291147 
L 518.239461 265.303797 
L 514.115732 265.612443 
L 512.22975 265.753585 
L 508.659066 266.020835 
L 508.019454 266.068655 
L 508.658072 262.681635 
L 510.353503 253.810528 
L 510.646517 252.435996 
L 510.90476 251.225721 
L 511.163333 250.024587 
L 511.419522 248.815505 
L 511.67889 247.609867 
L 511.937596 246.404162 
L 512.197097 245.19455 
L 512.48978 243.932548 
L 512.781536 242.674453 
L 513.075081 241.411855 
L 513.366638 240.153098 
L 513.65952 238.891095 
L 513.95121 237.626444 
L 514.241972 236.371064 
L 514.537901 235.091908 
L 515.891106 229.483104 
L 516.623113 226.448642 
L 517.055216 224.656842 
L 517.059588 224.638429 
L 517.177482 224.150558 
L 517.181788 224.131416 
L 517.918232 222.046072 
L 518.73601 219.791437 
L 519.30356 218.22675 
L 520.01722 216.260162 
L 520.293146 215.576638 
L 520.378587 215.36701 
L 521.019125 213.781328 
L 521.310683 213.059521 
L 521.650921 212.217568 
L 521.853462 211.716251 
L 522.392796 210.381194 
L 522.819601 209.324646 
L 523.33039 208.060855 
L 523.740438 207.046763 
L 524.644716 204.808354 
L 524.696908 204.676882 
L 525.324995 203.0961 
L 525.501704 202.652406 
L 525.528992 202.574119 
L 525.990172 201.241843 
L 525.997127 201.222768 
L 526.331404 200.256959 
L 526.406446 200.037198 
L 526.605013 199.454878 
L 527.279727 197.478951 
L 527.357098 197.251623 
L 527.359008 197.24601 
L 527.78429 195.814981 
L 528.100552 194.752803 
L 528.359523 193.857069 
L 528.42165 193.671816 
L 528.798383 192.570097 
L 529.171075 191.463941 
L 529.539463 190.340763 
L 529.918779 189.210497 
L 530.008458 188.943115 
L 530.310944 188.136994 
L 530.702513 187.093362 
L 531.081034 186.084369 
L 531.45333 185.0922 
L 531.630172 184.620886 
L 532.096187 183.37882 
L 532.561473 182.138542 
L 533.065903 180.794146 
L 533.305335 180.155991 
L 533.520062 179.624869 
L 533.700547 179.178393 
L 534.060987 178.286832 
L 534.520776 177.149612 
L 535.008316 175.943643 
L 537.47344 169.874652 
L 537.609946 169.555476 
L 539.566533 164.958248 
L 539.781658 164.481768 
L 539.903858 164.018402 
L 539.921939 163.95568 
L 539.94075 163.890374 
L 539.964527 163.808047 
L 540.340465 163.308915 
L 540.918811 162.541011 
L 541.774872 161.866362 
L 545.915623 159.520722 
L 546.27646 159.24473 
L 546.415748 159.138095 
L 542.915403 157.457434 
L 541.123604 156.88942 
L 540.757004 156.773181 
L 540.428224 156.671845 
L 539.727612 156.356311 
L 538.740145 155.911557 
L 537.889582 155.528598 
L 533.72512 153.653213 
L 531.339475 152.578914 
L 530.861274 152.363525 
L 527.855689 151.102715 
L 523.187261 149.144207 
L 520.040931 147.824317 
L 518.60977 147.223915 
L 517.578258 146.8801 
L 516.031255 146.364543 
L 512.356255 144.870063 
L 510.494712 144.112954 
L 509.450152 143.695819 
L 508.421356 143.285042 
L 507.407263 142.880094 
L 506.366545 142.464483 
L 505.044867 141.966808 
L 504.894518 141.919452 
L 498.362295 139.549041 
L 497.473912 139.226619 
L 497.286738 139.140649 
L 497.158842 139.0819 
L 496.666466 138.855781 
L 494.87513 138.004754 
L 493.12221 137.176114 
L 491.836231 136.568294 
L 490.649403 135.742767 
L 490.16365 135.513866 
L 489.695715 135.29331 
L 489.217851 135.068159 
L 488.689769 134.819347 
L 488.613601 134.784972 
L 487.5856 134.605878 
L 480.476487 131.170508 
L 475.414105 128.626832 
L 470.704149 125.750866 
L 465.741381 122.419813 
L 464.641583 121.573025 
L 458.633262 116.946654 
L 452.876361 112.781596 
L 452.074214 112.200137 
L 451.742983 111.959976 
L 451.850546 111.620466 
L 451.800275 111.6 
L 451.380424 111.848307 
L 450.62166 112.260342 
L 449.037831 112.929957 
L 448.812308 113.025267 
L 448.539429 113.115145 
L 448.219192 113.220654 
L 446.878571 113.536916 
L 446.610659 113.573874 
L 446.142061 113.653883 
L 445.932103 113.676403 
L 445.721614 113.694087 
L 445.510861 113.707002 
L 445.299777 113.715149 
L 445.088626 113.71846 
L 443.704159 113.70124 
L 441.951702 113.645869 
L 441.860367 113.644809 
L 440.666518 113.432665 
L 440.419005 113.388885 
L 439.1982 113.314837 
L 439.172237 113.31742 
L 438.617735 113.371996 
L 438.548521 113.475452 
L 435.854894 113.190452 
L 435.733489 113.187405 
L 434.8614 113.165747 
L 433.707026 113.282913 
L 432.974158 113.409815 
L 432.634052 113.468696 
L 431.566112 113.753034 
L 430.555 114.0687 
L 428.267447 115.00232 
L 428.186179 114.954897 
L 428.07047 114.887406 
L 427.689366 115.066102 
L 426.430212 115.663987 
L 426.446041 115.721676 
L 420.081321 118.376027 
L 413.655865 121.076741 
L 409.154807 122.921792 
L 408.358356 123.411651 
L 407.889891 123.624921 
L 407.446527 123.747386 
L 406.155382 124.407794 
L 404.87914 125.18007 
L 399.594944 128.533444 
L 399.369421 128.676176 
L 395.210191 131.280455 
L 394.037205 132.014978 
L 393.159023 132.622467 
L 392.588956 133.138223 
L 392.387873 133.305395 
L 391.634473 134.044819 
L 391.026256 134.694829 
L 390.98082 134.750001 
L 390.646212 135.15634 
L 390.127873 135.784228 
L 389.221276 136.882437 
L 387.741963 138.659334 
L 387.237268 139.240661 
L 387.097782 139.514799 
L 386.275897 140.482396 
L 386.02249 140.780841 
L 385.073041 141.972637 
L 384.145846 143.083098 
L 383.899791 143.379689 
L 383.944432 143.436186 
L 380.402361 147.724437 
L 376.866581 151.996926 
L 373.38763 156.207552 
L 373.336366 156.268751 
L 373.100974 156.549778 
L 372.891082 156.80345 
L 370.412513 159.799364 
L 369.310927 160.958507 
L 368.172714 162.094468 
L 366.919057 163.239503 
L 365.532735 164.326386 
L 361.530477 167.258783 
L 357.386282 170.301126 
L 353.992372 172.922841 
L 353.934089 172.967863 
L 349.140017 176.440191 
L 346.602236 178.45354 
L 346.040393 178.868327 
L 345.573837 179.212768 
L 342.110848 181.681932 
L 340.579078 182.791466 
L 339.618105 183.487508 
L 338.608317 184.276872 
L 337.627341 185.084053 
L 336.665639 185.924681 
L 334.23032 188.243099 
L 333.327102 189.103001 
L 331.819375 190.538468 
L 331.525235 190.818567 
L 329.393395 192.848871 
L 328.131128 194.051065 
L 327.961571 194.218767 
L 326.999472 195.17027 
L 325.133226 197.016049 
L 323.836452 198.298518 
L 322.465297 199.654571 
L 322.064058 200.036205 
L 321.748988 200.335909 
L 321.063875 200.987575 
L 320.666676 201.365367 
L 319.43057 202.541135 
L 318.771155 203.16836 
L 318.578086 203.362953 
L 316.660378 205.295762 
L 316.492014 205.233636 
L 315.486068 206.145663 
L 313.557298 207.894279 
L 313.114399 208.29585 
L 312.638581 208.727887 
L 312.603677 208.8226 
L 311.823784 209.575139 
L 311.777222 209.620111 
L 311.763181 209.632298 
L 311.640517 209.739198 
L 311.518582 209.845634 
L 310.95845 210.497366 
L 310.929374 210.531277 
L 310.660923 210.84366 
L 310.647685 210.859064 
L 310.086163 211.512452 
L 309.795201 211.913691 
L 309.043458 212.950237 
L 308.951129 213.097671 
L 308.339468 214.073812 
L 308.279461 214.169585 
L 308.18435 214.321325 
L 307.989559 214.632222 
L 307.031831 216.411371 
L 306.982951 216.522444 
L 306.7261 217.106883 
L 306.2475 218.195819 
L 305.703728 219.760307 
L 305.664121 219.888667 
L 304.861642 222.488972 
L 304.460801 223.787734 
L 303.222245 227.792707 
L 303.309076 227.857284 
L 302.82445 229.408724 
L 302.700462 229.805658 
L 302.371284 230.859755 
L 302.14225 231.592954 
L 302.001903 232.042212 
L 301.926861 232.282505 
L 301.600134 233.328588 
L 301.594636 233.664522 
L 301.591656 233.845271 
L 301.362556 234.156831 
L 300.977213 235.403136 
L 300.560757 236.338874 
L 300.340648 236.833437 
L 299.73879 237.792754 
L 298.923992 238.554566 
L 298.804508 238.62921 
L 298.025211 239.114896 
L 297.990637 241.267401 
L 297.982888 241.751563 
L 297.929173 245.094605 
L 297.865325 245.82065 
L 297.852012 245.959739 
L 297.706034 247.487269 
L 297.610063 248.491295 
L 297.517006 249.465051 
L 297.470113 249.955705 
L 297.465628 250.002479 
L 297.452826 250.135991 
L 297.451435 250.150893 
L 297.647021 250.718576 
L 297.619269 250.803685 
L 297.548135 251.021923 
L 297.174383 252.817895 
L 297.021981 253.42545 
L 296.938792 253.757343 
L 296.859379 254.074201 
L 296.504834 256.073707 
L 296.158436 257.54176 
L 295.860984 258.8337 
L 295.552404 260.124381 
L 295.236871 261.39718 
L 294.90915 262.696339 
L 294.600107 263.971389 
L 294.314246 265.039064 
L 294.262915 265.230875 
L 293.908039 266.534405 
L 293.570715 267.804554 
L 293.175768 269.083645 
L 292.780953 270.362338 
L 292.658555 270.796826 
L 292.425349 271.62487 
L 291.776465 273.810292 
L 291.313496 275.215689 
L 290.969747 276.236603 
L 290.807278 276.822102 
L 290.088452 279.412539 
L 289.435395 281.76606 
L 289.387774 281.9025 
L 289.133439 282.631261 
L 287.334221 288.126078 
L 286.988684 289.181301 
L 286.90437 289.452061 
L 286.801444 289.78263 
L 286.690305 290.139691 
L 286.584266 290.480261 
L 286.36424 291.187033 
L 286.213229 291.672123 
L 286.101229 292.031569 
L 285.653561 293.469619 
L 285.614351 293.595461 
L 285.566663 293.748526 
L 285.447907 294.219375 
L 285.437045 294.25587 
L 285.411093 294.343002 
L 285.392934 294.403967 
L 285.352532 294.539545 
L 285.135685 295.156373 
L 284.7771 296.341744 
L 284.416528 297.533407 
L 284.309893 297.886031 
L 284.13782 298.455171 
L 284.085496 298.628171 
L 284.013368 298.872239 
L 283.514568 300.559126 
L 282.801769 302.96921 
L 282.38417 304.381495 
L 281.467308 307.400127 
L 281.004472 308.923882 
L 280.550512 310.418694 
L 280.525211 310.502147 
L 280.129667 311.841112 
L 279.494229 313.991696 
L 278.916677 315.946428 
L 278.768448 316.218248 
L 278.675457 316.48828 
L 278.374892 317.361826 
L 277.978355 318.514147 
L 277.77502 319.104812 
L 277.642687 319.489559 
L 277.491742 319.92822 
L 276.905382 321.63246 
L 276.752251 322.077346 
L 276.584616 322.564291 
L 275.829362 324.758721 
L 275.784985 324.887742 
L 275.324269 326.226509 
L 275.265984 326.397257 
L 275.196705 326.600195 
L 274.793677 327.781194 
L 274.426747 328.856619 
L 274.392637 328.956498 
L 272.928226 331.979502 
L 271.651322 334.602591 
L 270.473965 336.991613 
L 268.573411 340.406583 
L 268.40604 340.707281 
L 268.100508 341.197537 
L 266.976468 343.00106 
L 264.848139 346.416096 
L 262.286647 350.215284 
L 260.245811 353.305911 
L 259.721114 354.100442 
L 257.800491 356.80056 
L 257.510921 357.207627 
L 256.714271 358.327626 
L 256.775139 358.374122 
L 256.392246 358.954455 
L 256.312701 358.891865 
L 255.767471 359.657716 
L 255.390473 360.000207 
L 254.86306 360.032793 
L 254.771063 360.033389 
L 254.636212 360.211026 
L 254.532518 360.365835 
L 254.270474 360.757051 
L 254.522358 361.274396 
L 254.407113 361.75889 
L 253.903742 362.483677 
L 252.9227 363.896227 
L 251.70971 365.642657 
L 251.135272 366.469641 
L 250.735424 367.045404 
L 250.716547 367.07256 
L 250.125551 367.931535 
L 249.269755 369.175323 
L 247.932313 371.119061 
L 247.094135 372.337217 
L 246.892854 372.629768 
L 246.251388 373.583324 
L 246.071035 373.851302 
L 244.861887 375.642903 
L 243.11804 378.226518 
L 242.071228 379.714904 
L 241.191456 380.965713 
L 240.259161 382.291167 
L 239.838582 382.889184 
L 239.227583 383.757895 
L 237.873716 385.635069 
L 237.207545 386.558687 
L 236.207361 387.945473 
L 234.95238 389.663621 
L 234.861243 389.788404 
L 234.428345 389.998959 
L 234.009156 389.936368 
L 233.857615 390.147784 
L 234.044127 390.480207 
L 234.003593 390.868663 
L 233.661235 391.310569 
L 232.937905 392.207893 
L 231.682459 393.785363 
L 230.886737 394.785149 
L 230.570607 395.235864 
L 229.781905 396.360102 
L 228.306567 398.463197 
L 227.45097 399.68281 
L 223.485935 405.132191 
L 222.650208 406.379821 
L 220.79085 409.155312 
L 219.78868 410.651316 
L 218.136433 413.055638 
L 217.198111 414.421096 
L 217.044384 414.644831 
L 216.07427 416.056453 
L 215.946307 416.246079 
L 215.688728 416.627779 
L 213.931105 419.232521 
L 213.322954 420.13362 
L 212.383771 421.525506 
L 212.244351 422.148228 
L 212.118045 422.712201 
L 212.030021 423.105559 
L 211.539367 423.302999 
L 211.082294 424.116538 
L 211.194821 424.280725 
L 212.240046 425.805809 
L 212.302901 425.897542 
L 212.359199 425.979671 
L 212.573197 425.922843 
L 213.00497 425.80826 
L 214.209018 425.935824 
L 214.86234 426.03683 
L 215.069451 426.076702 
L 215.458172 426.151346 
L 215.737807 426.2246 
L 217.568287 426.570468 
L 218.201739 426.690151 
L 218.527472 426.751615 
L 220.104611 427.049597 
L 220.876158 427.210875 
L 221.405095 427.31241 
L 221.408166 427.313 
" clip-path="url(#pc99930d891)" style="fill: #d3d3d3"/>
    <path d="M 546.948973 159.373811 
L 546.168858 159.951064 
L 542.052667 162.284819 
L 541.279339 162.90724 
L 540.560714 163.812192 
L 541.523977 163.083444 
L 547.911362 159.780271 
L 546.948973 159.373811 
" clip-path="url(#pc99930d891)" style="fill: #d3d3d3"/>
   </g>
   <g id="PatchCollection_2">
    <path d="M 251.59883 532.836492 
L 251.59883 532.770259 
L 251.532597 532.770259 
L 251.532597 532.836492 
L 251.59883 532.836492 
" clip-path="url(#pc99930d891)" style="fill: #ff0000; fill-opacity: 0.7; stroke: #000000; stroke-opacity: 0.7; stroke-width: 0.5"/>
    <path d="M 270.674391 560.402385 
L 270.674391 560.336152 
L 270.608158 560.336152 
L 270.608158 560.402385 
L 270.674391 560.402385 
" clip-path="url(#pc99930d891)" style="fill: #ff0000; fill-opacity: 0.7; stroke: #000000; stroke-opacity: 0.7; stroke-width: 0.5"/>
    <path d="M 412.851585 228.304603 
L 412.851585 228.23837 
L 412.785352 228.23837 
L 412.785352 228.304603 
L 412.851585 228.304603 
" clip-path="url(#pc99930d891)" style="fill: #ff0000; fill-opacity: 0.7; stroke: #000000; stroke-opacity: 0.7; stroke-width: 0.5"/>
    <path d="M 239.561445 497.900974 
L 239.561445 497.834741 
L 239.495212 497.834741 
L 239.495212 497.900974 
L 239.561445 497.900974 
" clip-path="url(#pc99930d891)" style="fill: #ff0000; fill-opacity: 0.7; stroke: #000000; stroke-opacity: 0.7; stroke-width: 0.5"/>
    <path d="M 481.948357 175.353614 
L 481.948357 175.287381 
L 481.882124 175.287381 
L 481.882124 175.353614 
L 481.948357 175.353614 
" clip-path="url(#pc99930d891)" style="fill: #ff0000; fill-opacity: 0.7; stroke: #000000; stroke-opacity: 0.7; stroke-width: 0.5"/>
    <path d="M 271.017451 488.694443 
L 271.017451 488.62821 
L 270.951219 488.62821 
L 270.951219 488.694443 
L 271.017451 488.694443 
" clip-path="url(#pc99930d891)" style="fill: #ff0000; fill-opacity: 0.7; stroke: #000000; stroke-opacity: 0.7; stroke-width: 0.5"/>
    <path d="M 391.909324 189.671797 
L 391.909324 189.605564 
L 391.843091 189.605564 
L 391.843091 189.671797 
L 391.909324 189.671797 
" clip-path="url(#pc99930d891)" style="fill: #ff0000; fill-opacity: 0.7; stroke: #000000; stroke-opacity: 0.7; stroke-width: 0.5"/>
    <path d="M 229.260738 444.942942 
L 229.260738 444.876709 
L 229.194505 444.876709 
L 229.194505 444.942942 
L 229.260738 444.942942 
" clip-path="url(#pc99930d891)" style="fill: #ff0000; fill-opacity: 0.7; stroke: #000000; stroke-opacity: 0.7; stroke-width: 0.5"/>
    <path d="M 278.042736 559.503769 
L 278.042736 559.437536 
L 277.976503 559.437536 
L 277.976503 559.503769 
L 278.042736 559.503769 
" clip-path="url(#pc99930d891)" style="fill: #ff0000; fill-opacity: 0.7; stroke: #000000; stroke-opacity: 0.7; stroke-width: 0.5"/>
    <path d="M 391.941689 193.068919 
L 391.941689 193.002686 
L 391.875456 193.002686 
L 391.875456 193.068919 
L 391.941689 193.068919 
" clip-path="url(#pc99930d891)" style="fill: #ff0000; fill-opacity: 0.7; stroke: #000000; stroke-opacity: 0.7; stroke-width: 0.5"/>
    <path d="M 480.481789 174.309841 
L 480.481789 174.243608 
L 480.415556 174.243608 
L 480.415556 174.309841 
L 480.481789 174.309841 
" clip-path="url(#pc99930d891)" style="fill: #ff0000; fill-opacity: 0.7; stroke: #000000; stroke-opacity: 0.7; stroke-width: 0.5"/>
    <path d="M 470.203008 165.671977 
L 470.203008 165.605744 
L 470.136775 165.605744 
L 470.136775 165.671977 
L 470.203008 165.671977 
" clip-path="url(#pc99930d891)" style="fill: #ff0000; fill-opacity: 0.7; stroke: #000000; stroke-opacity: 0.7; stroke-width: 0.5"/>
    <path d="M 387.257664 193.772675 
L 387.257664 193.706442 
L 387.191431 193.706442 
L 387.191431 193.772675 
L 387.257664 193.772675 
" clip-path="url(#pc99930d891)" style="fill: #ff0000; fill-opacity: 0.7; stroke: #000000; stroke-opacity: 0.7; stroke-width: 0.5"/>
    <path d="M 324.003499 347.988626 
L 324.003499 347.922393 
L 323.937266 347.922393 
L 323.937266 347.988626 
L 324.003499 347.988626 
" clip-path="url(#pc99930d891)" style="fill: #ff0000; fill-opacity: 0.7; stroke: #000000; stroke-opacity: 0.7; stroke-width: 0.5"/>
    <path d="M 278.054553 558.229847 
L 278.054553 558.163615 
L 277.98832 558.163615 
L 277.98832 558.229847 
L 278.054553 558.229847 
" clip-path="url(#pc99930d891)" style="fill: #ff0000; fill-opacity: 0.7; stroke: #000000; stroke-opacity: 0.7; stroke-width: 0.5"/>
    <path d="M 401.009667 549.28953 
L 401.009667 549.223297 
L 400.943434 549.223297 
L 400.943434 549.28953 
L 401.009667 549.28953 
" clip-path="url(#pc99930d891)" style="fill: #ff0000; fill-opacity: 0.7; stroke: #000000; stroke-opacity: 0.7; stroke-width: 0.5"/>
    <path d="M 278.464167 556.29737 
L 278.464167 556.231137 
L 278.397934 556.231137 
L 278.397934 556.29737 
L 278.464167 556.29737 
" clip-path="url(#pc99930d891)" style="fill: #ff0000; fill-opacity: 0.7; stroke: #000000; stroke-opacity: 0.7; stroke-width: 0.5"/>
    <path d="M 307.55112 360.00462 
L 307.55112 359.938387 
L 307.484887 359.938387 
L 307.484887 360.00462 
L 307.55112 360.00462 
" clip-path="url(#pc99930d891)" style="fill: #ff0000; fill-opacity: 0.7; stroke: #000000; stroke-opacity: 0.7; stroke-width: 0.5"/>
    <path d="M 277.171749 558.797295 
L 277.171749 558.731062 
L 277.105516 558.731062 
L 277.105516 558.797295 
L 277.171749 558.797295 
" clip-path="url(#pc99930d891)" style="fill: #ff0000; fill-opacity: 0.7; stroke: #000000; stroke-opacity: 0.7; stroke-width: 0.5"/>
    <path d="M 435.808575 234.154546 
L 435.808575 234.088313 
L 435.742343 234.088313 
L 435.742343 234.154546 
L 435.808575 234.154546 
" clip-path="url(#pc99930d891)" style="fill: #ff0000; fill-opacity: 0.7; stroke: #000000; stroke-opacity: 0.7; stroke-width: 0.5"/>
    <path d="M 294.534027 311.772729 
L 294.534027 311.706497 
L 294.467794 311.706497 
L 294.467794 311.772729 
L 294.534027 311.772729 
" clip-path="url(#pc99930d891)" style="fill: #ff0000; fill-opacity: 0.7; stroke: #000000; stroke-opacity: 0.7; stroke-width: 0.5"/>
   </g>
   <g id="matplotlib.axis_1">
    <g id="xtick_1">
     <g id="line2d_1">
      <defs>
       <path id="mbd6a0b6de3" d="M 0 0 
L 0 3.5 
" style="stroke: #000000; stroke-width: 0.8"/>
      </defs>
      <g>
       <use xlink:href="#mbd6a0b6de3" x="230.15983" y="640.8" style="stroke: #000000; stroke-width: 0.8"/>
      </g>
     </g>
     <g id="text_1">
      <!-- 394000 -->
      <g transform="translate(211.07233 655.398438) scale(0.1 -0.1)">
       <defs>
        <path id="DejaVuSans-33" d="M 2597 2516 
Q 3050 2419 3304 2112 
Q 3559 1806 3559 1356 
Q 3559 666 3084 287 
Q 2609 -91 1734 -91 
Q 1441 -91 1130 -33 
Q 819 25 488 141 
L 488 750 
Q 750 597 1062 519 
Q 1375 441 1716 441 
Q 2309 441 2620 675 
Q 2931 909 2931 1356 
Q 2931 1769 2642 2001 
Q 2353 2234 1838 2234 
L 1294 2234 
L 1294 2753 
L 1863 2753 
Q 2328 2753 2575 2939 
Q 2822 3125 2822 3475 
Q 2822 3834 2567 4026 
Q 2313 4219 1838 4219 
Q 1578 4219 1281 4162 
Q 984 4106 628 3988 
L 628 4550 
Q 988 4650 1302 4700 
Q 1616 4750 1894 4750 
Q 2613 4750 3031 4423 
Q 3450 4097 3450 3541 
Q 3450 3153 3228 2886 
Q 3006 2619 2597 2516 
z
" transform="scale(0.015625)"/>
        <path id="DejaVuSans-39" d="M 703 97 
L 703 672 
Q 941 559 1184 500 
Q 1428 441 1663 441 
Q 2288 441 2617 861 
Q 2947 1281 2994 2138 
Q 2813 1869 2534 1725 
Q 2256 1581 1919 1581 
Q 1219 1581 811 2004 
Q 403 2428 403 3163 
Q 403 3881 828 4315 
Q 1253 4750 1959 4750 
Q 2769 4750 3195 4129 
Q 3622 3509 3622 2328 
Q 3622 1225 3098 567 
Q 2575 -91 1691 -91 
Q 1453 -91 1209 -44 
Q 966 3 703 97 
z
M 1959 2075 
Q 2384 2075 2632 2365 
Q 2881 2656 2881 3163 
Q 2881 3666 2632 3958 
Q 2384 4250 1959 4250 
Q 1534 4250 1286 3958 
Q 1038 3666 1038 3163 
Q 1038 2656 1286 2365 
Q 1534 2075 1959 2075 
z
" transform="scale(0.015625)"/>
        <path id="DejaVuSans-34" d="M 2419 4116 
L 825 1625 
L 2419 1625 
L 2419 4116 
z
M 2253 4666 
L 3047 4666 
L 3047 1625 
L 3713 1625 
L 3713 1100 
L 3047 1100 
L 3047 0 
L 2419 0 
L 2419 1100 
L 313 1100 
L 313 1709 
L 2253 4666 
z
" transform="scale(0.015625)"/>
        <path id="DejaVuSans-30" d="M 2034 4250 
Q 1547 4250 1301 3770 
Q 1056 3291 1056 2328 
Q 1056 1369 1301 889 
Q 1547 409 2034 409 
Q 2525 409 2770 889 
Q 3016 1369 3016 2328 
Q 3016 3291 2770 3770 
Q 2525 4250 2034 4250 
z
M 2034 4750 
Q 2819 4750 3233 4129 
Q 3647 3509 3647 2328 
Q 3647 1150 3233 529 
Q 2819 -91 2034 -91 
Q 1250 -91 836 529 
Q 422 1150 422 2328 
Q 422 3509 836 4129 
Q 1250 4750 2034 4750 
z
" transform="scale(0.015625)"/>
       </defs>
       <use xlink:href="#DejaVuSans-33"/>
       <use xlink:href="#DejaVuSans-39" x="63.623047"/>
       <use xlink:href="#DejaVuSans-34" x="127.246094"/>
       <use xlink:href="#DejaVuSans-30" x="190.869141"/>
       <use xlink:href="#DejaVuSans-30" x="254.492188"/>
       <use xlink:href="#DejaVuSans-30" x="318.115234"/>
      </g>
     </g>
    </g>
    <g id="xtick_2">
     <g id="line2d_2">
      <g>
       <use xlink:href="#mbd6a0b6de3" x="296.392768" y="640.8" style="stroke: #000000; stroke-width: 0.8"/>
      </g>
     </g>
     <g id="text_2">
      <!-- 395000 -->
      <g transform="translate(277.305268 655.398438) scale(0.1 -0.1)">
       <defs>
        <path id="DejaVuSans-35" d="M 691 4666 
L 3169 4666 
L 3169 4134 
L 1269 4134 
L 1269 2991 
Q 1406 3038 1543 3061 
Q 1681 3084 1819 3084 
Q 2600 3084 3056 2656 
Q 3513 2228 3513 1497 
Q 3513 744 3044 326 
Q 2575 -91 1722 -91 
Q 1428 -91 1123 -41 
Q 819 9 494 109 
L 494 744 
Q 775 591 1075 516 
Q 1375 441 1709 441 
Q 2250 441 2565 725 
Q 2881 1009 2881 1497 
Q 2881 1984 2565 2268 
Q 2250 2553 1709 2553 
Q 1456 2553 1204 2497 
Q 953 2441 691 2322 
L 691 4666 
z
" transform="scale(0.015625)"/>
       </defs>
       <use xlink:href="#DejaVuSans-33"/>
       <use xlink:href="#DejaVuSans-39" x="63.623047"/>
       <use xlink:href="#DejaVuSans-35" x="127.246094"/>
       <use xlink:href="#DejaVuSans-30" x="190.869141"/>
       <use xlink:href="#DejaVuSans-30" x="254.492188"/>
       <use xlink:href="#DejaVuSans-30" x="318.115234"/>
      </g>
     </g>
    </g>
    <g id="xtick_3">
     <g id="line2d_3">
      <g>
       <use xlink:href="#mbd6a0b6de3" x="362.625705" y="640.8" style="stroke: #000000; stroke-width: 0.8"/>
      </g>
     </g>
     <g id="text_3">
      <!-- 396000 -->
      <g transform="translate(343.538205 655.398438) scale(0.1 -0.1)">
       <defs>
        <path id="DejaVuSans-36" d="M 2113 2584 
Q 1688 2584 1439 2293 
Q 1191 2003 1191 1497 
Q 1191 994 1439 701 
Q 1688 409 2113 409 
Q 2538 409 2786 701 
Q 3034 994 3034 1497 
Q 3034 2003 2786 2293 
Q 2538 2584 2113 2584 
z
M 3366 4563 
L 3366 3988 
Q 3128 4100 2886 4159 
Q 2644 4219 2406 4219 
Q 1781 4219 1451 3797 
Q 1122 3375 1075 2522 
Q 1259 2794 1537 2939 
Q 1816 3084 2150 3084 
Q 2853 3084 3261 2657 
Q 3669 2231 3669 1497 
Q 3669 778 3244 343 
Q 2819 -91 2113 -91 
Q 1303 -91 875 529 
Q 447 1150 447 2328 
Q 447 3434 972 4092 
Q 1497 4750 2381 4750 
Q 2619 4750 2861 4703 
Q 3103 4656 3366 4563 
z
" transform="scale(0.015625)"/>
       </defs>
       <use xlink:href="#DejaVuSans-33"/>
       <use xlink:href="#DejaVuSans-39" x="63.623047"/>
       <use xlink:href="#DejaVuSans-36" x="127.246094"/>
       <use xlink:href="#DejaVuSans-30" x="190.869141"/>
       <use xlink:href="#DejaVuSans-30" x="254.492188"/>
       <use xlink:href="#DejaVuSans-30" x="318.115234"/>
      </g>
     </g>
    </g>
    <g id="xtick_4">
     <g id="line2d_4">
      <g>
       <use xlink:href="#mbd6a0b6de3" x="428.858642" y="640.8" style="stroke: #000000; stroke-width: 0.8"/>
      </g>
     </g>
     <g id="text_4">
      <!-- 397000 -->
      <g transform="translate(409.771142 655.398438) scale(0.1 -0.1)">
       <defs>
        <path id="DejaVuSans-37" d="M 525 4666 
L 3525 4666 
L 3525 4397 
L 1831 0 
L 1172 0 
L 2766 4134 
L 525 4134 
L 525 4666 
z
" transform="scale(0.015625)"/>
       </defs>
       <use xlink:href="#DejaVuSans-33"/>
       <use xlink:href="#DejaVuSans-39" x="63.623047"/>
       <use xlink:href="#DejaVuSans-37" x="127.246094"/>
       <use xlink:href="#DejaVuSans-30" x="190.869141"/>
       <use xlink:href="#DejaVuSans-30" x="254.492188"/>
       <use xlink:href="#DejaVuSans-30" x="318.115234"/>
      </g>
     </g>
    </g>
    <g id="xtick_5">
     <g id="line2d_5">
      <g>
       <use xlink:href="#mbd6a0b6de3" x="495.09158" y="640.8" style="stroke: #000000; stroke-width: 0.8"/>
      </g>
     </g>
     <g id="text_5">
      <!-- 398000 -->
      <g transform="translate(476.00408 655.398438) scale(0.1 -0.1)">
       <defs>
        <path id="DejaVuSans-38" d="M 2034 2216 
Q 1584 2216 1326 1975 
Q 1069 1734 1069 1313 
Q 1069 891 1326 650 
Q 1584 409 2034 409 
Q 2484 409 2743 651 
Q 3003 894 3003 1313 
Q 3003 1734 2745 1975 
Q 2488 2216 2034 2216 
z
M 1403 2484 
Q 997 2584 770 2862 
Q 544 3141 544 3541 
Q 544 4100 942 4425 
Q 1341 4750 2034 4750 
Q 2731 4750 3128 4425 
Q 3525 4100 3525 3541 
Q 3525 3141 3298 2862 
Q 3072 2584 2669 2484 
Q 3125 2378 3379 2068 
Q 3634 1759 3634 1313 
Q 3634 634 3220 271 
Q 2806 -91 2034 -91 
Q 1263 -91 848 271 
Q 434 634 434 1313 
Q 434 1759 690 2068 
Q 947 2378 1403 2484 
z
M 1172 3481 
Q 1172 3119 1398 2916 
Q 1625 2713 2034 2713 
Q 2441 2713 2670 2916 
Q 2900 3119 2900 3481 
Q 2900 3844 2670 4047 
Q 2441 4250 2034 4250 
Q 1625 4250 1398 4047 
Q 1172 3844 1172 3481 
z
" transform="scale(0.015625)"/>
       </defs>
       <use xlink:href="#DejaVuSans-33"/>
       <use xlink:href="#DejaVuSans-39" x="63.623047"/>
       <use xlink:href="#DejaVuSans-38" x="127.246094"/>
       <use xlink:href="#DejaVuSans-30" x="190.869141"/>
       <use xlink:href="#DejaVuSans-30" x="254.492188"/>
       <use xlink:href="#DejaVuSans-30" x="318.115234"/>
      </g>
     </g>
    </g>
    <g id="xtick_6">
     <g id="line2d_6">
      <g>
       <use xlink:href="#mbd6a0b6de3" x="561.324517" y="640.8" style="stroke: #000000; stroke-width: 0.8"/>
      </g>
     </g>
     <g id="text_6">
      <!-- 399000 -->
      <g transform="translate(542.237017 655.398438) scale(0.1 -0.1)">
       <use xlink:href="#DejaVuSans-33"/>
       <use xlink:href="#DejaVuSans-39" x="63.623047"/>
       <use xlink:href="#DejaVuSans-39" x="127.246094"/>
       <use xlink:href="#DejaVuSans-30" x="190.869141"/>
       <use xlink:href="#DejaVuSans-30" x="254.492188"/>
       <use xlink:href="#DejaVuSans-30" x="318.115234"/>
      </g>
     </g>
    </g>
   </g>
   <g id="matplotlib.axis_2">
    <g id="ytick_1">
     <g id="line2d_7">
      <defs>
       <path id="m80cbc23b6d" d="M 0 0 
L -3.5 0 
" style="stroke: #000000; stroke-width: 0.8"/>
      </defs>
      <g>
       <use xlink:href="#m80cbc23b6d" x="172.197502" y="623.44318" style="stroke: #000000; stroke-width: 0.8"/>
      </g>
     </g>
     <g id="text_7">
      <!-- 5.824 -->
      <g transform="translate(136.569377 627.242399) scale(0.1 -0.1)">
       <defs>
        <path id="DejaVuSans-2e" d="M 684 794 
L 1344 794 
L 1344 0 
L 684 0 
L 684 794 
z
" transform="scale(0.015625)"/>
        <path id="DejaVuSans-32" d="M 1228 531 
L 3431 531 
L 3431 0 
L 469 0 
L 469 531 
Q 828 903 1448 1529 
Q 2069 2156 2228 2338 
Q 2531 2678 2651 2914 
Q 2772 3150 2772 3378 
Q 2772 3750 2511 3984 
Q 2250 4219 1831 4219 
Q 1534 4219 1204 4116 
Q 875 4013 500 3803 
L 500 4441 
Q 881 4594 1212 4672 
Q 1544 4750 1819 4750 
Q 2544 4750 2975 4387 
Q 3406 4025 3406 3419 
Q 3406 3131 3298 2873 
Q 3191 2616 2906 2266 
Q 2828 2175 2409 1742 
Q 1991 1309 1228 531 
z
" transform="scale(0.015625)"/>
       </defs>
       <use xlink:href="#DejaVuSans-35"/>
       <use xlink:href="#DejaVuSans-2e" x="63.623047"/>
       <use xlink:href="#DejaVuSans-38" x="95.410156"/>
       <use xlink:href="#DejaVuSans-32" x="159.033203"/>
       <use xlink:href="#DejaVuSans-34" x="222.65625"/>
      </g>
     </g>
    </g>
    <g id="ytick_2">
     <g id="line2d_8">
      <g>
       <use xlink:href="#m80cbc23b6d" x="172.197502" y="557.210243" style="stroke: #000000; stroke-width: 0.8"/>
      </g>
     </g>
     <g id="text_8">
      <!-- 5.825 -->
      <g transform="translate(136.569377 561.009462) scale(0.1 -0.1)">
       <use xlink:href="#DejaVuSans-35"/>
       <use xlink:href="#DejaVuSans-2e" x="63.623047"/>
       <use xlink:href="#DejaVuSans-38" x="95.410156"/>
       <use xlink:href="#DejaVuSans-32" x="159.033203"/>
       <use xlink:href="#DejaVuSans-35" x="222.65625"/>
      </g>
     </g>
    </g>
    <g id="ytick_3">
     <g id="line2d_9">
      <g>
       <use xlink:href="#m80cbc23b6d" x="172.197502" y="490.977306" style="stroke: #000000; stroke-width: 0.8"/>
      </g>
     </g>
     <g id="text_9">
      <!-- 5.826 -->
      <g transform="translate(136.569377 494.776524) scale(0.1 -0.1)">
       <use xlink:href="#DejaVuSans-35"/>
       <use xlink:href="#DejaVuSans-2e" x="63.623047"/>
       <use xlink:href="#DejaVuSans-38" x="95.410156"/>
       <use xlink:href="#DejaVuSans-32" x="159.033203"/>
       <use xlink:href="#DejaVuSans-36" x="222.65625"/>
      </g>
     </g>
    </g>
    <g id="ytick_4">
     <g id="line2d_10">
      <g>
       <use xlink:href="#m80cbc23b6d" x="172.197502" y="424.744368" style="stroke: #000000; stroke-width: 0.8"/>
      </g>
     </g>
     <g id="text_10">
      <!-- 5.827 -->
      <g transform="translate(136.569377 428.543587) scale(0.1 -0.1)">
       <use xlink:href="#DejaVuSans-35"/>
       <use xlink:href="#DejaVuSans-2e" x="63.623047"/>
       <use xlink:href="#DejaVuSans-38" x="95.410156"/>
       <use xlink:href="#DejaVuSans-32" x="159.033203"/>
       <use xlink:href="#DejaVuSans-37" x="222.65625"/>
      </g>
     </g>
    </g>
    <g id="ytick_5">
     <g id="line2d_11">
      <g>
       <use xlink:href="#m80cbc23b6d" x="172.197502" y="358.511431" style="stroke: #000000; stroke-width: 0.8"/>
      </g>
     </g>
     <g id="text_11">
      <!-- 5.828 -->
      <g transform="translate(136.569377 362.31065) scale(0.1 -0.1)">
       <use xlink:href="#DejaVuSans-35"/>
       <use xlink:href="#DejaVuSans-2e" x="63.623047"/>
       <use xlink:href="#DejaVuSans-38" x="95.410156"/>
       <use xlink:href="#DejaVuSans-32" x="159.033203"/>
       <use xlink:href="#DejaVuSans-38" x="222.65625"/>
      </g>
     </g>
    </g>
    <g id="ytick_6">
     <g id="line2d_12">
      <g>
       <use xlink:href="#m80cbc23b6d" x="172.197502" y="292.278494" style="stroke: #000000; stroke-width: 0.8"/>
      </g>
     </g>
     <g id="text_12">
      <!-- 5.829 -->
      <g transform="translate(136.569377 296.077712) scale(0.1 -0.1)">
       <use xlink:href="#DejaVuSans-35"/>
       <use xlink:href="#DejaVuSans-2e" x="63.623047"/>
       <use xlink:href="#DejaVuSans-38" x="95.410156"/>
       <use xlink:href="#DejaVuSans-32" x="159.033203"/>
       <use xlink:href="#DejaVuSans-39" x="222.65625"/>
      </g>
     </g>
    </g>
    <g id="ytick_7">
     <g id="line2d_13">
      <g>
       <use xlink:href="#m80cbc23b6d" x="172.197502" y="226.045556" style="stroke: #000000; stroke-width: 0.8"/>
      </g>
     </g>
     <g id="text_13">
      <!-- 5.830 -->
      <g transform="translate(136.569377 229.844775) scale(0.1 -0.1)">
       <use xlink:href="#DejaVuSans-35"/>
       <use xlink:href="#DejaVuSans-2e" x="63.623047"/>
       <use xlink:href="#DejaVuSans-38" x="95.410156"/>
       <use xlink:href="#DejaVuSans-33" x="159.033203"/>
       <use xlink:href="#DejaVuSans-30" x="222.65625"/>
      </g>
     </g>
    </g>
    <g id="ytick_8">
     <g id="line2d_14">
      <g>
       <use xlink:href="#m80cbc23b6d" x="172.197502" y="159.812619" style="stroke: #000000; stroke-width: 0.8"/>
      </g>
     </g>
     <g id="text_14">
      <!-- 5.831 -->
      <g transform="translate(136.569377 163.611838) scale(0.1 -0.1)">
       <defs>
        <path id="DejaVuSans-31" d="M 794 531 
L 1825 531 
L 1825 4091 
L 703 3866 
L 703 4441 
L 1819 4666 
L 2450 4666 
L 2450 531 
L 3481 531 
L 3481 0 
L 794 0 
L 794 531 
z
" transform="scale(0.015625)"/>
       </defs>
       <use xlink:href="#DejaVuSans-35"/>
       <use xlink:href="#DejaVuSans-2e" x="63.623047"/>
       <use xlink:href="#DejaVuSans-38" x="95.410156"/>
       <use xlink:href="#DejaVuSans-33" x="159.033203"/>
       <use xlink:href="#DejaVuSans-31" x="222.65625"/>
      </g>
     </g>
    </g>
    <g id="ytick_9">
     <g id="line2d_15">
      <g>
       <use xlink:href="#m80cbc23b6d" x="172.197502" y="93.579682" style="stroke: #000000; stroke-width: 0.8"/>
      </g>
     </g>
     <g id="text_15">
      <!-- 5.832 -->
      <g transform="translate(136.569377 97.378901) scale(0.1 -0.1)">
       <use xlink:href="#DejaVuSans-35"/>
       <use xlink:href="#DejaVuSans-2e" x="63.623047"/>
       <use xlink:href="#DejaVuSans-38" x="95.410156"/>
       <use xlink:href="#DejaVuSans-33" x="159.033203"/>
       <use xlink:href="#DejaVuSans-32" x="222.65625"/>
      </g>
     </g>
    </g>
    <g id="text_16">
     <!-- 1e6 -->
     <g transform="translate(172.197502 83.4) scale(0.1 -0.1)">
      <defs>
       <path id="DejaVuSans-65" d="M 3597 1894 
L 3597 1613 
L 953 1613 
Q 991 1019 1311 708 
Q 1631 397 2203 397 
Q 2534 397 2845 478 
Q 3156 559 3463 722 
L 3463 178 
Q 3153 47 2828 -22 
Q 2503 -91 2169 -91 
Q 1331 -91 842 396 
Q 353 884 353 1716 
Q 353 2575 817 3079 
Q 1281 3584 2069 3584 
Q 2775 3584 3186 3129 
Q 3597 2675 3597 1894 
z
M 3022 2063 
Q 3016 2534 2758 2815 
Q 2500 3097 2075 3097 
Q 1594 3097 1305 2825 
Q 1016 2553 972 2059 
L 3022 2063 
z
" transform="scale(0.015625)"/>
      </defs>
      <use xlink:href="#DejaVuSans-31"/>
      <use xlink:href="#DejaVuSans-65" x="63.623047"/>
      <use xlink:href="#DejaVuSans-36" x="125.146484"/>
     </g>
    </g>
   </g>
   <g id="patch_3">
    <path d="M 172.197502 640.8 
L 172.197502 86.4 
" style="fill: none; stroke: #000000; stroke-width: 0.8; stroke-linejoin: miter; stroke-linecap: square"/>
   </g>
   <g id="patch_4">
    <path d="M 565.802498 640.8 
L 565.802498 86.4 
" style="fill: none; stroke: #000000; stroke-width: 0.8; stroke-linejoin: miter; stroke-linecap: square"/>
   </g>
   <g id="patch_5">
    <path d="M 172.197502 640.8 
L 565.802498 640.8 
" style="fill: none; stroke: #000000; stroke-width: 0.8; stroke-linejoin: miter; stroke-linecap: square"/>
   </g>
   <g id="patch_6">
    <path d="M 172.197502 86.4 
L 565.802498 86.4 
" style="fill: none; stroke: #000000; stroke-width: 0.8; stroke-linejoin: miter; stroke-linecap: square"/>
   </g>
   <g id="text_17">
    <!-- Nrdliches_Weiensee -->
    <g transform="translate(302.448197 361.26999) scale(0.12 -0.12)">
     <defs>
      <path id="DejaVuSans-4e" d="M 628 4666 
L 1478 4666 
L 3547 763 
L 3547 4666 
L 4159 4666 
L 4159 0 
L 3309 0 
L 1241 3903 
L 1241 0 
L 628 0 
L 628 4666 
z
" transform="scale(0.015625)"/>
      <path id="DejaVuSans-f6" d="M 1959 3097 
Q 1497 3097 1228 2736 
Q 959 2375 959 1747 
Q 959 1119 1226 758 
Q 1494 397 1959 397 
Q 2419 397 2687 759 
Q 2956 1122 2956 1747 
Q 2956 2369 2687 2733 
Q 2419 3097 1959 3097 
z
M 1959 3584 
Q 2709 3584 3137 3096 
Q 3566 2609 3566 1747 
Q 3566 888 3137 398 
Q 2709 -91 1959 -91 
Q 1206 -91 779 398 
Q 353 888 353 1747 
Q 353 2609 779 3096 
Q 1206 3584 1959 3584 
z
M 2254 4850 
L 2888 4850 
L 2888 4219 
L 2254 4219 
L 2254 4850 
z
M 1032 4850 
L 1666 4850 
L 1666 4219 
L 1032 4219 
L 1032 4850 
z
" transform="scale(0.015625)"/>
      <path id="DejaVuSans-72" d="M 2631 2963 
Q 2534 3019 2420 3045 
Q 2306 3072 2169 3072 
Q 1681 3072 1420 2755 
Q 1159 2438 1159 1844 
L 1159 0 
L 581 0 
L 581 3500 
L 1159 3500 
L 1159 2956 
Q 1341 3275 1631 3429 
Q 1922 3584 2338 3584 
Q 2397 3584 2469 3576 
Q 2541 3569 2628 3553 
L 2631 2963 
z
" transform="scale(0.015625)"/>
      <path id="DejaVuSans-64" d="M 2906 2969 
L 2906 4863 
L 3481 4863 
L 3481 0 
L 2906 0 
L 2906 525 
Q 2725 213 2448 61 
Q 2172 -91 1784 -91 
Q 1150 -91 751 415 
Q 353 922 353 1747 
Q 353 2572 751 3078 
Q 1150 3584 1784 3584 
Q 2172 3584 2448 3432 
Q 2725 3281 2906 2969 
z
M 947 1747 
Q 947 1113 1208 752 
Q 1469 391 1925 391 
Q 2381 391 2643 752 
Q 2906 1113 2906 1747 
Q 2906 2381 2643 2742 
Q 2381 3103 1925 3103 
Q 1469 3103 1208 2742 
Q 947 2381 947 1747 
z
" transform="scale(0.015625)"/>
      <path id="DejaVuSans-6c" d="M 603 4863 
L 1178 4863 
L 1178 0 
L 603 0 
L 603 4863 
z
" transform="scale(0.015625)"/>
      <path id="DejaVuSans-69" d="M 603 3500 
L 1178 3500 
L 1178 0 
L 603 0 
L 603 3500 
z
M 603 4863 
L 1178 4863 
L 1178 4134 
L 603 4134 
L 603 4863 
z
" transform="scale(0.015625)"/>
      <path id="DejaVuSans-63" d="M 3122 3366 
L 3122 2828 
Q 2878 2963 2633 3030 
Q 2388 3097 2138 3097 
Q 1578 3097 1268 2742 
Q 959 2388 959 1747 
Q 959 1106 1268 751 
Q 1578 397 2138 397 
Q 2388 397 2633 464 
Q 2878 531 3122 666 
L 3122 134 
Q 2881 22 2623 -34 
Q 2366 -91 2075 -91 
Q 1284 -91 818 406 
Q 353 903 353 1747 
Q 353 2603 823 3093 
Q 1294 3584 2113 3584 
Q 2378 3584 2631 3529 
Q 2884 3475 3122 3366 
z
" transform="scale(0.015625)"/>
      <path id="DejaVuSans-68" d="M 3513 2113 
L 3513 0 
L 2938 0 
L 2938 2094 
Q 2938 2591 2744 2837 
Q 2550 3084 2163 3084 
Q 1697 3084 1428 2787 
Q 1159 2491 1159 1978 
L 1159 0 
L 581 0 
L 581 4863 
L 1159 4863 
L 1159 2956 
Q 1366 3272 1645 3428 
Q 1925 3584 2291 3584 
Q 2894 3584 3203 3211 
Q 3513 2838 3513 2113 
z
" transform="scale(0.015625)"/>
      <path id="DejaVuSans-73" d="M 2834 3397 
L 2834 2853 
Q 2591 2978 2328 3040 
Q 2066 3103 1784 3103 
Q 1356 3103 1142 2972 
Q 928 2841 928 2578 
Q 928 2378 1081 2264 
Q 1234 2150 1697 2047 
L 1894 2003 
Q 2506 1872 2764 1633 
Q 3022 1394 3022 966 
Q 3022 478 2636 193 
Q 2250 -91 1575 -91 
Q 1294 -91 989 -36 
Q 684 19 347 128 
L 347 722 
Q 666 556 975 473 
Q 1284 391 1588 391 
Q 1994 391 2212 530 
Q 2431 669 2431 922 
Q 2431 1156 2273 1281 
Q 2116 1406 1581 1522 
L 1381 1569 
Q 847 1681 609 1914 
Q 372 2147 372 2553 
Q 372 3047 722 3315 
Q 1072 3584 1716 3584 
Q 2034 3584 2315 3537 
Q 2597 3491 2834 3397 
z
" transform="scale(0.015625)"/>
      <path id="DejaVuSans-5f" d="M 3263 -1063 
L 3263 -1509 
L -63 -1509 
L -63 -1063 
L 3263 -1063 
z
" transform="scale(0.015625)"/>
      <path id="DejaVuSans-57" d="M 213 4666 
L 850 4666 
L 1831 722 
L 2809 4666 
L 3519 4666 
L 4500 722 
L 5478 4666 
L 6119 4666 
L 4947 0 
L 4153 0 
L 3169 4050 
L 2175 0 
L 1381 0 
L 213 4666 
z
" transform="scale(0.015625)"/>
      <path id="DejaVuSans-df" d="M 581 3553 
Q 581 4178 954 4520 
Q 1328 4863 2009 4863 
Q 2659 4863 3001 4500 
Q 3344 4138 3353 3438 
Q 2881 3413 2618 3233 
Q 2356 3053 2356 2753 
Q 2356 2606 2447 2479 
Q 2538 2353 2741 2222 
L 2919 2106 
Q 3438 1775 3588 1553 
Q 3738 1331 3738 1019 
Q 3738 481 3386 195 
Q 3034 -91 2375 -91 
Q 2175 -91 1962 -52 
Q 1750 -13 1522 63 
L 1522 575 
Q 1772 481 1990 436 
Q 2209 391 2413 391 
Q 2775 391 2962 539 
Q 3150 688 3150 972 
Q 3150 1169 3058 1300 
Q 2966 1431 2650 1625 
L 2363 1797 
Q 2063 1981 1927 2192 
Q 1791 2403 1791 2688 
Q 1791 3084 2052 3353 
Q 2313 3622 2784 3713 
Q 2759 4034 2554 4209 
Q 2350 4384 1997 4384 
Q 1591 4384 1378 4167 
Q 1166 3950 1166 3541 
L 1166 0 
L 581 0 
L 581 3553 
z
" transform="scale(0.015625)"/>
      <path id="DejaVuSans-6e" d="M 3513 2113 
L 3513 0 
L 2938 0 
L 2938 2094 
Q 2938 2591 2744 2837 
Q 2550 3084 2163 3084 
Q 1697 3084 1428 2787 
Q 1159 2491 1159 1978 
L 1159 0 
L 581 0 
L 581 3500 
L 1159 3500 
L 1159 2956 
Q 1366 3272 1645 3428 
Q 1925 3584 2291 3584 
Q 2894 3584 3203 3211 
Q 3513 2838 3513 2113 
z
" transform="scale(0.015625)"/>
     </defs>
     <use xlink:href="#DejaVuSans-4e"/>
     <use xlink:href="#DejaVuSans-f6" x="74.804688"/>
     <use xlink:href="#DejaVuSans-72" x="135.986328"/>
     <use xlink:href="#DejaVuSans-64" x="175.349609"/>
     <use xlink:href="#DejaVuSans-6c" x="238.826172"/>
     <use xlink:href="#DejaVuSans-69" x="266.609375"/>
     <use xlink:href="#DejaVuSans-63" x="294.392578"/>
     <use xlink:href="#DejaVuSans-68" x="349.373047"/>
     <use xlink:href="#DejaVuSans-65" x="412.751953"/>
     <use xlink:href="#DejaVuSans-73" x="474.275391"/>
     <use xlink:href="#DejaVuSans-5f" x="526.375"/>
     <use xlink:href="#DejaVuSans-57" x="576.375"/>
     <use xlink:href="#DejaVuSans-65" x="669.376953"/>
     <use xlink:href="#DejaVuSans-69" x="730.900391"/>
     <use xlink:href="#DejaVuSans-df" x="758.683594"/>
     <use xlink:href="#DejaVuSans-65" x="821.671875"/>
     <use xlink:href="#DejaVuSans-6e" x="883.195312"/>
     <use xlink:href="#DejaVuSans-73" x="946.574219"/>
     <use xlink:href="#DejaVuSans-65" x="998.673828"/>
     <use xlink:href="#DejaVuSans-65" x="1060.197266"/>
    </g>
   </g>
  </g>
 </g>
 <defs>
  <clipPath id="pc99930d891">
   <rect x="172.197502" y="86.4" width="393.604995" height="554.4"/>
  </clipPath>
 </defs>
</svg>
