<?xml version="1.0" encoding="utf-8" standalone="no"?>
<!DOCTYPE svg PUBLIC "-//W3C//DTD SVG 1.1//EN"
  "http://www.w3.org/Graphics/SVG/1.1/DTD/svg11.dtd">
<svg xmlns:xlink="http://www.w3.org/1999/xlink" width="460.8pt" height="345.6pt" viewBox="0 0 460.8 345.6" xmlns="http://www.w3.org/2000/svg" version="1.1">
 <metadata>
  <rdf:RDF xmlns:dc="http://purl.org/dc/elements/1.1/" xmlns:cc="http://creativecommons.org/ns#" xmlns:rdf="http://www.w3.org/1999/02/22-rdf-syntax-ns#">
   <cc:Work>
    <dc:type rdf:resource="http://purl.org/dc/dcmitype/StillImage"/>
    <dc:date>2024-10-17T11:33:18.178050</dc:date>
    <dc:format>image/svg+xml</dc:format>
    <dc:creator>
     <cc:Agent>
      <dc:title>Matplotlib v3.9.2, https://matplotlib.org/</dc:title>
     </cc:Agent>
    </dc:creator>
   </cc:Work>
  </rdf:RDF>
 </metadata>
 <defs>
  <style type="text/css">*{stroke-linejoin: round; stroke-linecap: butt}</style>
 </defs>
 <g id="figure_1">
  <g id="patch_1">
   <path d="M 0 345.6 
L 460.8 345.6 
L 460.8 0 
L 0 0 
z
" style="fill: #ffffff"/>
  </g>
  <g id="axes_1">
   <g id="patch_2">
    <path d="M 82.387797 307.584 
L 389.932203 307.584 
L 389.932203 41.472 
L 82.387797 41.472 
z
" style="fill: #ffffff"/>
   </g>
   <g id="PatchCollection_1">
    <path d="M 316.199063 276.305528 
L 316.445492 276.296773 
L 316.781078 276.284714 
L 317.843692 276.24667 
L 318.797288 276.211564 
L 319.217372 276.227022 
L 319.619442 276.241757 
L 319.956363 276.254106 
L 320.226994 276.264103 
L 320.520894 274.41783 
L 321.188356 270.192441 
L 321.499555 268.222801 
L 321.646279 267.293828 
L 321.936524 265.456132 
L 322.083321 264.527293 
L 322.305753 263.1189 
L 322.363359 262.753899 
L 322.626567 261.087964 
L 322.689517 260.689346 
L 322.960616 258.973294 
L 323.022502 258.581563 
L 323.051703 258.397117 
L 323.102017 258.078549 
L 323.381125 256.311564 
L 323.621731 254.78855 
L 323.660806 254.53981 
L 323.793118 253.698878 
L 323.822177 253.514096 
L 323.996521 252.426328 
L 324.139094 251.538283 
L 324.31728 250.398112 
L 324.496238 249.25609 
L 324.653329 248.253845 
L 324.844398 247.044421 
L 324.899997 246.692443 
L 324.944998 246.405725 
L 325.057227 245.690263 
L 325.097987 245.430394 
L 325.11254 245.337612 
L 325.331307 243.951998 
L 325.523659 242.733101 
L 325.908864 240.29326 
L 326.146771 238.784849 
L 326.411506 237.112905 
L 326.527151 236.383302 
L 326.573043 236.090857 
L 326.748553 234.972694 
L 326.828186 234.465399 
L 327.248141 234.874875 
L 327.595032 234.805976 
L 328.260716 234.681383 
L 330.424989 234.276327 
L 331.752922 234.027842 
L 332.153348 233.952918 
L 332.88962 233.815126 
L 333.083871 233.777731 
L 336.012583 233.227222 
L 338.653785 232.731175 
L 338.839543 232.604901 
L 339.213087 232.352103 
L 340.930744 231.189199 
L 343.304526 229.582145 
L 345.911703 227.817193 
L 346.301009 227.553653 
L 346.381915 227.498907 
L 347.773597 226.556777 
L 350.898371 224.441534 
L 350.994296 224.376531 
L 351.941487 223.735542 
L 352.696557 223.224498 
L 353.064174 222.97545 
L 354.212097 222.807943 
L 354.515337 222.87132 
L 355.841518 223.148447 
L 356.773569 223.343245 
L 357.892368 223.577068 
L 359.967788 224.010789 
L 361.081884 224.243572 
L 361.34046 224.29763 
L 362.263381 224.490542 
L 363.785558 224.808691 
L 364.744218 225.009031 
L 365.152982 225.094511 
L 365.838345 225.237046 
L 366.389251 225.351682 
L 369.46171 225.991132 
L 369.617409 226.023518 
L 370.03116 225.493732 
L 370.054227 225.464543 
L 370.064224 225.451891 
L 370.067672 225.447527 
L 370.310775 225.138848 
L 370.542983 224.842984 
L 370.670829 224.683713 
L 370.793916 224.542011 
L 370.904894 224.419469 
L 371.026125 224.28569 
L 371.078046 224.228473 
L 371.712642 223.528163 
L 371.768198 223.466857 
L 371.906428 223.314353 
L 371.815632 223.232612 
L 372.134174 222.705573 
L 372.200861 222.635932 
L 374.871387 219.848125 
L 375.94186 218.986211 
L 375.952911 218.977335 
L 375.856389 218.881929 
L 375.478608 218.508272 
L 374.373503 217.416977 
L 370.749379 213.83817 
L 369.032529 212.142788 
L 370.617924 210.372464 
L 371.278746 209.634537 
L 370.102277 208.560209 
L 369.117096 207.667697 
L 368.102021 206.753775 
L 367.106688 205.834998 
L 366.127688 204.952955 
L 365.712813 204.579394 
L 365.085692 204.014711 
L 364.141085 203.155955 
L 364.099857 203.118423 
L 363.878848 202.932458 
L 362.86504 201.994608 
L 361.88371 201.103321 
L 360.863101 200.201368 
L 359.870032 199.285619 
L 358.812424 198.344823 
L 357.825789 197.444563 
L 356.849163 196.564872 
L 355.869165 195.646668 
L 354.870932 194.749734 
L 352.874667 192.941399 
L 351.791149 191.974166 
L 350.803203 191.086729 
L 349.825424 190.190438 
L 348.82029 189.29857 
L 347.481778 188.067141 
L 346.035744 189.201277 
L 345.001728 190.012326 
L 343.608981 190.42256 
L 343.451894 190.377444 
L 343.198457 190.290876 
L 341.810322 189.843974 
L 340.296108 189.356838 
L 338.670691 188.834027 
L 337.82504 188.561917 
L 337.391777 188.422803 
L 334.582426 187.506018 
L 334.509638 187.484828 
L 334.169308 187.385954 
L 333.306572 187.095692 
L 331.87848 186.621059 
L 331.556614 185.020424 
L 331.110914 185.113014 
L 330.365224 184.357563 
L 329.97769 182.31005 
L 328.898844 182.526294 
L 328.782428 181.901322 
L 328.352046 179.59068 
L 328.090094 179.644822 
L 326.847728 179.901514 
L 326.360086 177.613159 
L 325.288538 177.835094 
L 324.862321 178.382678 
L 324.501327 177.991579 
L 322.402283 175.710411 
L 320.998233 174.17482 
L 317.001394 169.84254 
L 317.182288 169.595016 
L 317.208325 169.559302 
L 317.33033 169.375547 
L 317.080708 169.390488 
L 316.679055 168.955356 
L 316.17661 168.411033 
L 316.111242 168.340216 
L 316.100197 168.328236 
L 315.192117 167.343777 
L 314.133447 166.275481 
L 311.026052 163.139861 
L 309.092409 161.507366 
L 307.026385 159.992835 
L 304.082114 158.025144 
L 301.136593 156.06369 
L 298.039839 153.862173 
L 297.833681 154.218581 
L 292.826519 150.611848 
L 288.144252 146.448779 
L 283.471201 142.287876 
L 280.628742 139.714881 
L 278.821348 138.078884 
L 278.989512 137.679299 
L 275.376506 134.416737 
L 272.866951 132.150426 
L 272.390045 131.71921 
L 272.192137 131.540119 
L 271.7339 131.125262 
L 271.472948 130.888967 
L 270.365067 129.886134 
L 267.726887 127.501298 
L 265.736866 125.540741 
L 265.499034 125.263092 
L 263.082056 122.441758 
L 261.257059 120.380386 
L 260.187826 119.321062 
L 260.063926 119.198863 
L 259.898608 119.034665 
L 259.239133 120.664746 
L 258.48895 120.140838 
L 258.190051 119.923898 
L 257.325291 119.297557 
L 255.02547 117.158692 
L 251.438199 113.89458 
L 244.701401 107.777749 
L 241.385909 104.774164 
L 237.875993 101.602943 
L 238.038357 100.985031 
L 236.026711 98.603486 
L 234.37673 97.918679 
L 232.599991 97.340998 
L 232.593546 97.338903 
L 231.455217 96.978484 
L 227.468939 93.302554 
L 225.811322 91.774036 
L 223.597606 89.772297 
L 221.913556 88.248615 
L 221.674885 88.032233 
L 220.774052 87.218676 
L 219.195064 85.725151 
L 216.345179 83.030439 
L 215.842646 82.554979 
L 213.652553 80.559968 
L 213.352019 80.286032 
L 211.938448 78.997752 
L 210.818553 77.97725 
L 210.004192 77.283566 
L 207.69353 75.314183 
L 205.488263 73.434058 
L 205.212902 73.19135 
L 205.806305 72.786339 
L 204.135539 71.189674 
L 201.91598 69.493484 
L 198.984331 66.778439 
L 198.830216 66.64126 
L 198.047193 65.944645 
L 197.222385 65.17595 
L 196.332285 64.398426 
L 194.59188 62.799194 
L 195.18065 60.308468 
L 192.162334 60.554891 
L 191.570542 60.603254 
L 189.362401 58.564177 
L 186.520147 55.939594 
L 185.60361 55.099179 
L 184.797175 54.359648 
L 184.386789 53.983287 
L 184.331223 53.931228 
L 184.215382 53.825722 
L 183.95551 53.568 
L 183.85675 53.978202 
L 180.845731 55.277822 
L 180.608251 55.050571 
L 178.209373 56.108405 
L 178.195886 56.114558 
L 178.193863 56.115451 
L 175.811255 57.16624 
L 174.897872 57.569286 
L 169.863454 59.569765 
L 163.561677 62.075923 
L 157.255921 64.561164 
L 155.107803 65.411052 
L 151.112003 66.989525 
L 150.720095 67.11468 
L 149.741989 67.383402 
L 149.41167 67.474389 
L 149.538457 67.746229 
L 149.870262 68.457895 
L 150.552365 69.922043 
L 151.976629 72.977711 
L 152.15363 73.357987 
L 153.013693 75.20382 
L 153.739115 76.76067 
L 154.530548 78.458682 
L 154.695917 78.813884 
L 155.22308 79.91234 
L 155.727786 81.02497 
L 156.487729 82.654478 
L 157.277746 84.351102 
L 157.995291 85.888439 
L 158.766785 87.543708 
L 159.11733 88.296804 
L 159.122391 88.307627 
L 159.835529 89.836848 
L 163.784526 98.313257 
L 163.895907 98.549854 
L 164.076507 98.937527 
L 166.232811 103.565197 
L 167.016754 105.246697 
L 167.249169 105.745218 
L 167.34591 105.952598 
L 168.286963 107.970883 
L 168.341642 107.966771 
L 168.396366 107.970539 
L 168.449977 107.981943 
L 168.501456 108.00087 
L 168.549708 108.026937 
L 168.593842 108.059621 
L 168.632891 108.098198 
L 168.666091 108.141869 
L 168.692815 108.189902 
L 168.712429 108.241223 
L 168.724639 108.294822 
L 168.729149 108.349685 
L 168.725796 108.404524 
L 168.714828 108.458384 
L 168.696288 108.510176 
L 168.670624 108.558735 
L 168.638291 108.603235 
L 168.60008 108.642639 
L 173.405666 118.949694 
L 173.691918 119.565204 
L 174.208436 120.672155 
L 174.49543 121.287648 
L 174.789861 121.920093 
L 174.918336 122.199377 
L 175.03859 122.454187 
L 175.492944 123.43103 
L 175.40363 123.470725 
L 174.00155 124.080623 
L 173.84732 124.15388 
L 173.693821 124.226441 
L 170.994222 125.506224 
L 167.412705 127.203662 
L 166.980726 127.4084 
L 166.559944 127.607785 
L 165.788393 127.973487 
L 163.392879 129.108882 
L 162.617246 129.476587 
L 161.943939 129.795668 
L 161.19278 130.151602 
L 159.493261 130.957094 
L 157.6573 131.8275 
L 156.298613 132.470446 
L 154.586551 133.280669 
L 152.422589 134.288915 
L 151.710944 134.564058 
L 150.784749 134.891644 
L 149.638637 135.279885 
L 149.112818 135.438163 
L 148.51795 135.588592 
L 148.084735 135.694253 
L 148.099193 135.742363 
L 148.25566 136.251049 
L 148.278319 136.325672 
L 148.351723 136.562389 
L 148.379903 136.664134 
L 146.291044 137.475825 
L 144.123304 138.285732 
L 137.797303 140.649345 
L 137.469532 140.853685 
L 135.405269 141.365176 
L 135.173767 141.417069 
L 133.66367 141.75657 
L 129.206119 141.976927 
L 123.13141 142.190344 
L 118.825593 142.40889 
L 118.616997 142.419294 
L 118.605028 142.485205 
L 118.251055 142.896108 
L 118.174149 142.985402 
L 117.951105 143.43927 
L 117.915862 143.439407 
L 117.715028 144.538976 
L 117.945338 145.023584 
L 117.942036 145.041265 
L 117.837342 145.601842 
L 117.80687 145.764798 
L 117.74452 146.0986 
L 117.712026 146.272566 
L 117.58561 146.945557 
L 117.554212 147.112475 
L 117.461245 147.607562 
L 117.667677 147.647487 
L 117.493882 148.558564 
L 117.435457 148.864374 
L 117.1732 150.239452 
L 117.066017 150.794048 
L 117.020728 151.028688 
L 116.957567 151.355399 
L 116.902391 151.646254 
L 116.74961 152.451464 
L 116.512901 153.699711 
L 116.495917 153.789111 
L 116.468123 153.935903 
L 116.416994 154.20234 
L 116.361276 154.493208 
L 116.298023 154.824678 
L 116.238578 155.136151 
L 115.831157 157.266937 
L 115.775505 157.557668 
L 115.602456 158.468322 
L 115.303527 160.033611 
L 114.926207 161.999684 
L 114.724928 163.067332 
L 114.680471 163.299711 
L 114.459083 164.404926 
L 114.243591 165.480713 
L 114.171791 165.811702 
L 114.041418 166.409505 
L 113.241191 170.132765 
L 113.054172 170.998426 
L 113.0412 171.058993 
L 112.983016 171.330827 
L 112.809488 172.13489 
L 112.751831 172.40311 
L 112.530032 172.389772 
L 112.329748 173.314852 
L 112.17094 174.048863 
L 112.015801 174.7656 
L 111.948549 175.076168 
L 111.849453 175.534098 
L 111.782082 175.845348 
L 111.626635 176.563383 
L 111.467831 177.297395 
L 111.235346 178.371748 
L 111.190829 179.652912 
L 111.17338 179.73383 
L 111.143459 179.87048 
L 110.97487 180.653231 
L 110.879921 181.093943 
L 110.629737 182.255743 
L 110.405806 183.295179 
L 110.039427 184.995888 
L 109.946382 185.427928 
L 109.776631 186.215938 
L 109.744128 186.366916 
L 109.686945 186.632 
L 109.512719 187.43744 
L 109.456214 187.702509 
L 108.778762 190.838821 
L 108.646542 191.458548 
L 108.191197 193.579179 
L 107.980204 194.559002 
L 107.815194 195.372858 
L 107.711559 195.806607 
L 107.418465 197.161039 
L 107.207361 198.135837 
L 107.168512 198.325962 
L 106.99027 199.144814 
L 106.743178 200.295607 
L 106.565726 201.113354 
L 106.50552 201.39699 
L 106.402158 201.874929 
L 106.216456 202.737438 
L 106.072844 203.400507 
L 105.929111 204.067111 
L 105.713418 205.065866 
L 105.657218 205.326308 
L 105.580496 205.689958 
L 105.502356 206.059688 
L 104.895217 208.868723 
L 104.862277 209.021138 
L 104.102057 212.830738 
L 104.060032 212.936007 
L 104.021904 213.042749 
L 103.987868 213.150619 
L 103.95779 213.259688 
L 103.931803 213.369817 
L 102.8771 218.236262 
L 102.645556 219.304961 
L 102.434674 219.258288 
L 102.179604 220.470148 
L 102.275745 220.63071 
L 102.00674 222.251441 
L 101.948903 222.51994 
L 101.833411 223.053128 
L 101.804016 223.188748 
L 101.768151 223.355228 
L 101.625215 224.014546 
L 101.613089 224.070474 
L 101.523537 224.485585 
L 101.518012 224.510445 
L 101.473964 224.709932 
L 101.273852 225.6164 
L 101.070808 225.568594 
L 100.890476 226.363174 
L 100.842132 226.58685 
L 100.717708 227.162539 
L 100.408785 228.629966 
L 99.924141 230.84784 
L 100.138388 230.893822 
L 99.989406 231.581547 
L 99.921685 231.894303 
L 99.917334 231.914244 
L 99.856926 232.191568 
L 99.58264 233.450826 
L 99.525665 233.712511 
L 99.370559 234.425449 
L 99.275542 234.861887 
L 99.203788 235.193625 
L 98.915298 236.527137 
L 98.843545 236.858876 
L 98.689177 237.57139 
L 98.570387 238.11974 
L 98.340544 239.181677 
L 98.297194 239.381896 
L 98.23074 239.687761 
L 98.022708 240.649586 
L 97.708397 242.11157 
L 97.413832 243.439721 
L 97.395229 243.526103 
L 97.349329 243.739087 
L 97.22949 244.294596 
L 97.083123 244.97307 
L 96.875324 245.931716 
L 96.829343 246.14409 
L 96.824991 246.163963 
L 96.820709 246.183902 
L 96.78189 246.363089 
L 96.596352 247.218875 
L 96.367089 248.281955 
L 96.456523 248.281576 
L 96.43183 248.538367 
L 96.420334 248.867755 
L 96.433155 249.190939 
L 96.45579 249.428557 
L 96.469061 249.5161 
L 96.528601 249.837723 
L 96.611849 250.153155 
L 96.717399 250.46311 
L 96.832351 250.734254 
L 96.845336 250.76541 
L 96.954998 250.977701 
L 96.995501 251.056119 
L 97.031542 251.114461 
L 97.167336 251.33457 
L 97.294632 251.512412 
L 97.358769 251.601967 
L 97.369636 251.61476 
L 97.572456 251.853016 
L 97.919018 252.177347 
L 98.354989 252.58528 
L 100.317544 254.414749 
L 100.318009 254.41433 
L 100.370223 254.462989 
L 101.306882 255.335585 
L 102.290649 256.253089 
L 103.071084 256.980521 
L 103.847472 257.706009 
L 104.627902 258.433512 
L 104.459325 258.612789 
L 105.269651 259.364603 
L 105.437603 259.184662 
L 106.152301 259.850574 
L 106.353325 260.037851 
L 106.49131 260.168363 
L 106.890365 260.53959 
L 107.786419 261.553859 
L 107.78422 261.678791 
L 109.254626 263.044599 
L 109.489064 263.261882 
L 109.626647 263.389754 
L 110.136119 263.862922 
L 110.657775 264.347426 
L 111.197525 264.849721 
L 111.34521 264.692946 
L 111.591999 264.922921 
L 111.614782 264.944203 
L 111.832283 265.147 
L 113.502131 266.703812 
L 113.71582 266.90303 
L 113.73971 266.925306 
L 113.982203 267.151305 
L 114.645687 266.569951 
L 116.62613 264.834959 
L 117.792532 263.813298 
L 118.852343 262.885019 
L 120.270211 261.642973 
L 126.857246 255.872848 
L 128.139482 254.74982 
L 132.678606 250.773845 
L 134.276248 249.374421 
L 136.315083 247.588602 
L 138.17641 248.217414 
L 138.302884 248.260149 
L 140.701782 249.070534 
L 140.947012 249.1534 
L 142.562136 249.699053 
L 142.794935 249.777655 
L 142.863636 249.800936 
L 142.95446 249.831588 
L 143.374716 249.973601 
L 144.233597 250.263865 
L 144.929469 250.499054 
L 145.129149 250.5666 
L 145.225437 250.599097 
L 146.583785 251.058226 
L 147.018721 251.205273 
L 147.512658 251.372226 
L 147.963231 251.524552 
L 149.246796 251.958445 
L 150.835608 252.495505 
L 151.156565 252.603945 
L 151.188592 252.614757 
L 151.284812 252.647324 
L 152.596025 253.09058 
L 152.770568 253.14947 
L 152.928932 253.203094 
L 153.848299 253.513797 
L 154.022777 253.572826 
L 154.181752 253.626572 
L 155.09784 253.936199 
L 155.272318 253.995228 
L 155.433956 254.049865 
L 156.348745 254.359118 
L 156.524519 254.418526 
L 156.682331 254.471825 
L 157.60026 254.782164 
L 157.774737 254.841194 
L 157.935759 254.895575 
L 161.699911 256.168054 
L 163.650884 256.827829 
L 163.746009 256.860018 
L 164.131556 256.990287 
L 164.997639 257.28302 
L 165.786151 257.549752 
L 165.977491 257.614446 
L 166.927503 257.935894 
L 167.16432 258.015916 
L 169.341782 258.752518 
L 169.439364 258.785535 
L 169.633843 258.851245 
L 170.425759 259.118997 
L 170.538091 259.157043 
L 171.378012 259.441086 
L 171.755157 259.568637 
L 173.790078 260.256706 
L 174.028053 260.337114 
L 176.060713 261.024502 
L 176.156928 261.057077 
L 176.253211 261.08965 
L 180.931497 262.671741 
L 181.127201 262.737906 
L 181.191253 262.759603 
L 182.647292 263.25217 
L 189.638576 265.617098 
L 189.745652 266.084064 
L 189.765889 266.172131 
L 190.418189 266.383277 
L 191.077179 266.596716 
L 191.366126 266.690234 
L 191.604253 266.685653 
L 192.32845 266.671617 
L 192.464444 266.668972 
L 192.899246 266.660491 
L 193.298699 266.652889 
L 193.549965 266.648076 
L 194.754823 266.624989 
L 194.883031 266.622592 
L 195.204392 266.616376 
L 195.744856 266.606222 
L 202.234075 266.484225 
L 203.316695 266.463835 
L 209.599692 266.345825 
L 210.043238 266.337506 
L 210.693125 266.324192 
L 211.703846 266.303369 
L 211.84275 266.300529 
L 213.271109 266.273842 
L 215.336677 266.235261 
L 216.341563 266.217031 
L 217.374355 266.19837 
L 218.376472 266.18055 
L 219.39478 266.162566 
L 220.404754 266.14464 
L 221.419607 266.126673 
L 222.42281 266.108908 
L 223.418291 266.091254 
L 223.592829 266.088149 
L 224.069971 266.079285 
L 224.491507 266.07142 
L 224.971561 266.062491 
L 225.92817 266.045665 
L 226.064034 266.04324 
L 227.011227 266.026565 
L 227.225183 266.022765 
L 228.12591 266.108119 
L 228.41592 266.135536 
L 230.034032 266.288763 
L 230.162094 266.300855 
L 231.149734 266.394424 
L 231.184296 266.397712 
L 231.442731 266.422115 
L 233.365041 266.604154 
L 233.501592 266.617072 
L 234.949332 266.754101 
L 235.484672 266.804803 
L 236.590523 266.909484 
L 236.961268 266.944579 
L 237.955283 267.038634 
L 238.330034 267.074115 
L 238.966818 267.134399 
L 239.337562 267.169497 
L 240.165285 267.247851 
L 240.168397 267.25063 
L 240.581745 267.619792 
L 240.762269 268.977475 
L 240.80254 269.280401 
L 240.907509 270.070029 
L 240.947846 270.372886 
L 241.043511 271.09288 
L 241.063447 271.242989 
L 241.098151 271.503578 
L 241.219702 272.418049 
L 241.245756 272.61388 
L 241.455933 274.194966 
L 241.641734 275.57957 
L 241.743528 276.345898 
L 241.820539 276.924655 
L 241.902938 277.543783 
L 241.923841 277.700732 
L 242.119296 277.64926 
L 242.785676 277.473791 
L 243.323684 277.332096 
L 245.12845 276.856807 
L 245.331314 276.803333 
L 245.937283 276.643787 
L 246.331562 276.539887 
L 246.860818 276.400571 
L 247.361177 276.268708 
L 248.557156 275.953793 
L 249.662402 275.665273 
L 251.642998 275.14457 
L 252.924465 274.807545 
L 254.222235 274.466282 
L 254.86608 274.297397 
L 255.047601 274.249782 
L 255.27755 274.189447 
L 255.82356 274.047658 
L 256.586602 273.849499 
L 257.500932 273.612026 
L 257.846013 273.52244 
L 258.412165 273.375373 
L 259.077876 273.202534 
L 259.73611 273.031565 
L 260.257002 272.896402 
L 262.088712 272.421001 
L 262.253674 272.378115 
L 262.267586 272.498943 
L 262.466494 274.227395 
L 262.602154 275.405922 
L 262.774156 276.900376 
L 263.127789 279.973792 
L 263.166551 280.309845 
L 263.191899 280.528999 
L 263.257533 281.097691 
L 263.286097 281.345241 
L 263.407751 282.399001 
L 263.466793 282.909888 
L 263.523412 283.400514 
L 263.689718 284.841151 
L 263.766634 285.507426 
L 263.891098 286.586738 
L 264.649022 293.169641 
L 264.915977 295.488 
L 265.284721 295.445105 
L 265.787799 295.386587 
L 266.320339 295.324616 
L 266.815309 295.267032 
L 267.213381 295.220754 
L 268.010198 295.12805 
L 269.083053 295.003327 
L 272.049435 294.658208 
L 273.091418 293.772005 
L 273.690617 293.262278 
L 275.152131 292.019162 
L 275.772744 291.491355 
L 277.296628 290.195196 
L 277.497054 290.024798 
L 282.007623 286.188439 
L 282.42224 285.835718 
L 282.929931 285.403975 
L 283.166591 285.20266 
L 283.289723 285.095643 
L 283.585497 284.838701 
L 283.730625 284.712569 
L 284.274575 284.248141 
L 285.371787 283.311398 
L 285.822576 282.876805 
L 285.903478 282.798875 
L 286.234817 282.47949 
L 286.368991 282.350156 
L 286.449826 282.272227 
L 286.734372 281.997877 
L 287.034645 281.708835 
L 287.106154 281.800366 
L 288.461563 280.378236 
L 288.426363 280.379645 
L 288.929651 279.835973 
L 288.925046 279.709769 
L 288.923537 279.660816 
L 290.069348 278.419892 
L 291.218541 277.175294 
L 291.952125 277.148762 
L 292.315777 277.135614 
L 292.992995 277.11113 
L 293.550494 277.090967 
L 294.631961 277.053848 
L 295.348174 277.029143 
L 295.499961 277.023941 
L 295.554866 277.022019 
L 296.465578 276.990266 
L 297.006645 276.971499 
L 297.382388 276.958512 
L 297.406693 276.957691 
L 297.535934 276.953204 
L 297.58468 276.951557 
L 297.800581 276.944158 
L 297.930501 276.939724 
L 297.956906 276.938855 
L 298.071929 276.934825 
L 298.194334 276.930629 
L 298.298731 276.927112 
L 298.477597 276.920891 
L 298.524921 276.919277 
L 298.671699 276.914258 
L 298.745358 276.911708 
L 298.867221 276.907524 
L 299.084476 276.900095 
L 299.132543 276.898396 
L 299.272618 276.893597 
L 299.419462 276.888509 
L 299.46577 276.886918 
L 299.6814 276.879526 
L 299.809966 276.875123 
L 299.8776 276.872778 
L 299.989374 276.868891 
L 300.013004 276.868152 
L 300.028574 276.867596 
L 300.075966 276.865981 
L 300.204532 276.861578 
L 300.223555 276.860876 
L 300.695904 276.844417 
L 300.844035 276.8393 
L 301.243944 276.825364 
L 302.257642 276.79055 
L 304.288952 276.720231 
L 304.320908 276.719169 
L 304.482986 276.713602 
L 305.811769 276.668007 
L 306.560884 276.64204 
L 306.729732 276.636254 
L 307.338028 276.61517 
L 307.747621 276.600954 
L 307.957224 276.593704 
L 308.334322 276.580699 
L 308.756643 276.566062 
L 308.964283 276.558857 
L 309.367985 276.544845 
L 310.179193 276.517211 
L 310.348445 276.511282 
L 310.382364 276.510108 
L 311.413365 276.473368 
L 312.435024 276.436979 
L 312.645233 276.429514 
L 313.094154 276.41367 
L 313.299488 276.406384 
L 313.717604 276.391508 
L 313.918943 276.384312 
L 314.933473 276.350266 
L 315.237855 276.33959 
L 315.519421 276.329633 
L 315.870788 276.317286 
L 316.199063 276.305528 
" clip-path="url(#pa01ffda052)" style="fill: #1f77b4"/>
   </g>
   <g id="matplotlib.axis_1">
    <g id="xtick_1">
     <g id="line2d_1">
      <defs>
       <path id="m93d8aedd2d" d="M 0 0 
L 0 3.5 
" style="stroke: #000000; stroke-width: 0.8"/>
      </defs>
      <g>
       <use xlink:href="#m93d8aedd2d" x="103.699392" y="307.584" style="stroke: #000000; stroke-width: 0.8"/>
      </g>
     </g>
     <g id="text_1">
      <!-- 13.33 -->
      <g transform="translate(89.38533 322.182437) scale(0.1 -0.1)">
       <defs>
        <path id="DejaVuSans-31" d="M 794 531 
L 1825 531 
L 1825 4091 
L 703 3866 
L 703 4441 
L 1819 4666 
L 2450 4666 
L 2450 531 
L 3481 531 
L 3481 0 
L 794 0 
L 794 531 
z
" transform="scale(0.015625)"/>
        <path id="DejaVuSans-33" d="M 2597 2516 
Q 3050 2419 3304 2112 
Q 3559 1806 3559 1356 
Q 3559 666 3084 287 
Q 2609 -91 1734 -91 
Q 1441 -91 1130 -33 
Q 819 25 488 141 
L 488 750 
Q 750 597 1062 519 
Q 1375 441 1716 441 
Q 2309 441 2620 675 
Q 2931 909 2931 1356 
Q 2931 1769 2642 2001 
Q 2353 2234 1838 2234 
L 1294 2234 
L 1294 2753 
L 1863 2753 
Q 2328 2753 2575 2939 
Q 2822 3125 2822 3475 
Q 2822 3834 2567 4026 
Q 2313 4219 1838 4219 
Q 1578 4219 1281 4162 
Q 984 4106 628 3988 
L 628 4550 
Q 988 4650 1302 4700 
Q 1616 4750 1894 4750 
Q 2613 4750 3031 4423 
Q 3450 4097 3450 3541 
Q 3450 3153 3228 2886 
Q 3006 2619 2597 2516 
z
" transform="scale(0.015625)"/>
        <path id="DejaVuSans-2e" d="M 684 794 
L 1344 794 
L 1344 0 
L 684 0 
L 684 794 
z
" transform="scale(0.015625)"/>
       </defs>
       <use xlink:href="#DejaVuSans-31"/>
       <use xlink:href="#DejaVuSans-33" x="63.623047"/>
       <use xlink:href="#DejaVuSans-2e" x="127.246094"/>
       <use xlink:href="#DejaVuSans-33" x="159.033203"/>
       <use xlink:href="#DejaVuSans-33" x="222.65625"/>
      </g>
     </g>
    </g>
    <g id="xtick_2">
     <g id="line2d_2">
      <g>
       <use xlink:href="#m93d8aedd2d" x="149.624814" y="307.584" style="stroke: #000000; stroke-width: 0.8"/>
      </g>
     </g>
     <g id="text_2">
      <!-- 13.34 -->
      <g transform="translate(135.310752 322.182437) scale(0.1 -0.1)">
       <defs>
        <path id="DejaVuSans-34" d="M 2419 4116 
L 825 1625 
L 2419 1625 
L 2419 4116 
z
M 2253 4666 
L 3047 4666 
L 3047 1625 
L 3713 1625 
L 3713 1100 
L 3047 1100 
L 3047 0 
L 2419 0 
L 2419 1100 
L 313 1100 
L 313 1709 
L 2253 4666 
z
" transform="scale(0.015625)"/>
       </defs>
       <use xlink:href="#DejaVuSans-31"/>
       <use xlink:href="#DejaVuSans-33" x="63.623047"/>
       <use xlink:href="#DejaVuSans-2e" x="127.246094"/>
       <use xlink:href="#DejaVuSans-33" x="159.033203"/>
       <use xlink:href="#DejaVuSans-34" x="222.65625"/>
      </g>
     </g>
    </g>
    <g id="xtick_3">
     <g id="line2d_3">
      <g>
       <use xlink:href="#m93d8aedd2d" x="195.550236" y="307.584" style="stroke: #000000; stroke-width: 0.8"/>
      </g>
     </g>
     <g id="text_3">
      <!-- 13.35 -->
      <g transform="translate(181.236174 322.182437) scale(0.1 -0.1)">
       <defs>
        <path id="DejaVuSans-35" d="M 691 4666 
L 3169 4666 
L 3169 4134 
L 1269 4134 
L 1269 2991 
Q 1406 3038 1543 3061 
Q 1681 3084 1819 3084 
Q 2600 3084 3056 2656 
Q 3513 2228 3513 1497 
Q 3513 744 3044 326 
Q 2575 -91 1722 -91 
Q 1428 -91 1123 -41 
Q 819 9 494 109 
L 494 744 
Q 775 591 1075 516 
Q 1375 441 1709 441 
Q 2250 441 2565 725 
Q 2881 1009 2881 1497 
Q 2881 1984 2565 2268 
Q 2250 2553 1709 2553 
Q 1456 2553 1204 2497 
Q 953 2441 691 2322 
L 691 4666 
z
" transform="scale(0.015625)"/>
       </defs>
       <use xlink:href="#DejaVuSans-31"/>
       <use xlink:href="#DejaVuSans-33" x="63.623047"/>
       <use xlink:href="#DejaVuSans-2e" x="127.246094"/>
       <use xlink:href="#DejaVuSans-33" x="159.033203"/>
       <use xlink:href="#DejaVuSans-35" x="222.65625"/>
      </g>
     </g>
    </g>
    <g id="xtick_4">
     <g id="line2d_4">
      <g>
       <use xlink:href="#m93d8aedd2d" x="241.475659" y="307.584" style="stroke: #000000; stroke-width: 0.8"/>
      </g>
     </g>
     <g id="text_4">
      <!-- 13.36 -->
      <g transform="translate(227.161596 322.182437) scale(0.1 -0.1)">
       <defs>
        <path id="DejaVuSans-36" d="M 2113 2584 
Q 1688 2584 1439 2293 
Q 1191 2003 1191 1497 
Q 1191 994 1439 701 
Q 1688 409 2113 409 
Q 2538 409 2786 701 
Q 3034 994 3034 1497 
Q 3034 2003 2786 2293 
Q 2538 2584 2113 2584 
z
M 3366 4563 
L 3366 3988 
Q 3128 4100 2886 4159 
Q 2644 4219 2406 4219 
Q 1781 4219 1451 3797 
Q 1122 3375 1075 2522 
Q 1259 2794 1537 2939 
Q 1816 3084 2150 3084 
Q 2853 3084 3261 2657 
Q 3669 2231 3669 1497 
Q 3669 778 3244 343 
Q 2819 -91 2113 -91 
Q 1303 -91 875 529 
Q 447 1150 447 2328 
Q 447 3434 972 4092 
Q 1497 4750 2381 4750 
Q 2619 4750 2861 4703 
Q 3103 4656 3366 4563 
z
" transform="scale(0.015625)"/>
       </defs>
       <use xlink:href="#DejaVuSans-31"/>
       <use xlink:href="#DejaVuSans-33" x="63.623047"/>
       <use xlink:href="#DejaVuSans-2e" x="127.246094"/>
       <use xlink:href="#DejaVuSans-33" x="159.033203"/>
       <use xlink:href="#DejaVuSans-36" x="222.65625"/>
      </g>
     </g>
    </g>
    <g id="xtick_5">
     <g id="line2d_5">
      <g>
       <use xlink:href="#m93d8aedd2d" x="287.401081" y="307.584" style="stroke: #000000; stroke-width: 0.8"/>
      </g>
     </g>
     <g id="text_5">
      <!-- 13.37 -->
      <g transform="translate(273.087018 322.182437) scale(0.1 -0.1)">
       <defs>
        <path id="DejaVuSans-37" d="M 525 4666 
L 3525 4666 
L 3525 4397 
L 1831 0 
L 1172 0 
L 2766 4134 
L 525 4134 
L 525 4666 
z
" transform="scale(0.015625)"/>
       </defs>
       <use xlink:href="#DejaVuSans-31"/>
       <use xlink:href="#DejaVuSans-33" x="63.623047"/>
       <use xlink:href="#DejaVuSans-2e" x="127.246094"/>
       <use xlink:href="#DejaVuSans-33" x="159.033203"/>
       <use xlink:href="#DejaVuSans-37" x="222.65625"/>
      </g>
     </g>
    </g>
    <g id="xtick_6">
     <g id="line2d_6">
      <g>
       <use xlink:href="#m93d8aedd2d" x="333.326503" y="307.584" style="stroke: #000000; stroke-width: 0.8"/>
      </g>
     </g>
     <g id="text_6">
      <!-- 13.38 -->
      <g transform="translate(319.01244 322.182437) scale(0.1 -0.1)">
       <defs>
        <path id="DejaVuSans-38" d="M 2034 2216 
Q 1584 2216 1326 1975 
Q 1069 1734 1069 1313 
Q 1069 891 1326 650 
Q 1584 409 2034 409 
Q 2484 409 2743 651 
Q 3003 894 3003 1313 
Q 3003 1734 2745 1975 
Q 2488 2216 2034 2216 
z
M 1403 2484 
Q 997 2584 770 2862 
Q 544 3141 544 3541 
Q 544 4100 942 4425 
Q 1341 4750 2034 4750 
Q 2731 4750 3128 4425 
Q 3525 4100 3525 3541 
Q 3525 3141 3298 2862 
Q 3072 2584 2669 2484 
Q 3125 2378 3379 2068 
Q 3634 1759 3634 1313 
Q 3634 634 3220 271 
Q 2806 -91 2034 -91 
Q 1263 -91 848 271 
Q 434 634 434 1313 
Q 434 1759 690 2068 
Q 947 2378 1403 2484 
z
M 1172 3481 
Q 1172 3119 1398 2916 
Q 1625 2713 2034 2713 
Q 2441 2713 2670 2916 
Q 2900 3119 2900 3481 
Q 2900 3844 2670 4047 
Q 2441 4250 2034 4250 
Q 1625 4250 1398 4047 
Q 1172 3844 1172 3481 
z
" transform="scale(0.015625)"/>
       </defs>
       <use xlink:href="#DejaVuSans-31"/>
       <use xlink:href="#DejaVuSans-33" x="63.623047"/>
       <use xlink:href="#DejaVuSans-2e" x="127.246094"/>
       <use xlink:href="#DejaVuSans-33" x="159.033203"/>
       <use xlink:href="#DejaVuSans-38" x="222.65625"/>
      </g>
     </g>
    </g>
    <g id="xtick_7">
     <g id="line2d_7">
      <g>
       <use xlink:href="#m93d8aedd2d" x="379.251925" y="307.584" style="stroke: #000000; stroke-width: 0.8"/>
      </g>
     </g>
     <g id="text_7">
      <!-- 13.39 -->
      <g transform="translate(364.937863 322.182437) scale(0.1 -0.1)">
       <defs>
        <path id="DejaVuSans-39" d="M 703 97 
L 703 672 
Q 941 559 1184 500 
Q 1428 441 1663 441 
Q 2288 441 2617 861 
Q 2947 1281 2994 2138 
Q 2813 1869 2534 1725 
Q 2256 1581 1919 1581 
Q 1219 1581 811 2004 
Q 403 2428 403 3163 
Q 403 3881 828 4315 
Q 1253 4750 1959 4750 
Q 2769 4750 3195 4129 
Q 3622 3509 3622 2328 
Q 3622 1225 3098 567 
Q 2575 -91 1691 -91 
Q 1453 -91 1209 -44 
Q 966 3 703 97 
z
M 1959 2075 
Q 2384 2075 2632 2365 
Q 2881 2656 2881 3163 
Q 2881 3666 2632 3958 
Q 2384 4250 1959 4250 
Q 1534 4250 1286 3958 
Q 1038 3666 1038 3163 
Q 1038 2656 1286 2365 
Q 1534 2075 1959 2075 
z
" transform="scale(0.015625)"/>
       </defs>
       <use xlink:href="#DejaVuSans-31"/>
       <use xlink:href="#DejaVuSans-33" x="63.623047"/>
       <use xlink:href="#DejaVuSans-2e" x="127.246094"/>
       <use xlink:href="#DejaVuSans-33" x="159.033203"/>
       <use xlink:href="#DejaVuSans-39" x="222.65625"/>
      </g>
     </g>
    </g>
   </g>
   <g id="matplotlib.axis_2">
    <g id="ytick_1">
     <g id="line2d_8">
      <defs>
       <path id="mca51d83b75" d="M 0 0 
L -3.5 0 
" style="stroke: #000000; stroke-width: 0.8"/>
      </defs>
      <g>
       <use xlink:href="#mca51d83b75" x="82.387797" y="281.264583" style="stroke: #000000; stroke-width: 0.8"/>
      </g>
     </g>
     <g id="text_8">
      <!-- 52.560 -->
      <g transform="translate(40.397172 285.063802) scale(0.1 -0.1)">
       <defs>
        <path id="DejaVuSans-32" d="M 1228 531 
L 3431 531 
L 3431 0 
L 469 0 
L 469 531 
Q 828 903 1448 1529 
Q 2069 2156 2228 2338 
Q 2531 2678 2651 2914 
Q 2772 3150 2772 3378 
Q 2772 3750 2511 3984 
Q 2250 4219 1831 4219 
Q 1534 4219 1204 4116 
Q 875 4013 500 3803 
L 500 4441 
Q 881 4594 1212 4672 
Q 1544 4750 1819 4750 
Q 2544 4750 2975 4387 
Q 3406 4025 3406 3419 
Q 3406 3131 3298 2873 
Q 3191 2616 2906 2266 
Q 2828 2175 2409 1742 
Q 1991 1309 1228 531 
z
" transform="scale(0.015625)"/>
        <path id="DejaVuSans-30" d="M 2034 4250 
Q 1547 4250 1301 3770 
Q 1056 3291 1056 2328 
Q 1056 1369 1301 889 
Q 1547 409 2034 409 
Q 2525 409 2770 889 
Q 3016 1369 3016 2328 
Q 3016 3291 2770 3770 
Q 2525 4250 2034 4250 
z
M 2034 4750 
Q 2819 4750 3233 4129 
Q 3647 3509 3647 2328 
Q 3647 1150 3233 529 
Q 2819 -91 2034 -91 
Q 1250 -91 836 529 
Q 422 1150 422 2328 
Q 422 3509 836 4129 
Q 1250 4750 2034 4750 
z
" transform="scale(0.015625)"/>
       </defs>
       <use xlink:href="#DejaVuSans-35"/>
       <use xlink:href="#DejaVuSans-32" x="63.623047"/>
       <use xlink:href="#DejaVuSans-2e" x="127.246094"/>
       <use xlink:href="#DejaVuSans-35" x="159.033203"/>
       <use xlink:href="#DejaVuSans-36" x="222.65625"/>
       <use xlink:href="#DejaVuSans-30" x="286.279297"/>
      </g>
     </g>
    </g>
    <g id="ytick_2">
     <g id="line2d_9">
      <g>
       <use xlink:href="#mca51d83b75" x="82.387797" y="243.480469" style="stroke: #000000; stroke-width: 0.8"/>
      </g>
     </g>
     <g id="text_9">
      <!-- 52.565 -->
      <g transform="translate(40.397172 247.279688) scale(0.1 -0.1)">
       <use xlink:href="#DejaVuSans-35"/>
       <use xlink:href="#DejaVuSans-32" x="63.623047"/>
       <use xlink:href="#DejaVuSans-2e" x="127.246094"/>
       <use xlink:href="#DejaVuSans-35" x="159.033203"/>
       <use xlink:href="#DejaVuSans-36" x="222.65625"/>
       <use xlink:href="#DejaVuSans-35" x="286.279297"/>
      </g>
     </g>
    </g>
    <g id="ytick_3">
     <g id="line2d_10">
      <g>
       <use xlink:href="#mca51d83b75" x="82.387797" y="205.696356" style="stroke: #000000; stroke-width: 0.8"/>
      </g>
     </g>
     <g id="text_10">
      <!-- 52.570 -->
      <g transform="translate(40.397172 209.495574) scale(0.1 -0.1)">
       <use xlink:href="#DejaVuSans-35"/>
       <use xlink:href="#DejaVuSans-32" x="63.623047"/>
       <use xlink:href="#DejaVuSans-2e" x="127.246094"/>
       <use xlink:href="#DejaVuSans-35" x="159.033203"/>
       <use xlink:href="#DejaVuSans-37" x="222.65625"/>
       <use xlink:href="#DejaVuSans-30" x="286.279297"/>
      </g>
     </g>
    </g>
    <g id="ytick_4">
     <g id="line2d_11">
      <g>
       <use xlink:href="#mca51d83b75" x="82.387797" y="167.912242" style="stroke: #000000; stroke-width: 0.8"/>
      </g>
     </g>
     <g id="text_11">
      <!-- 52.575 -->
      <g transform="translate(40.397172 171.711461) scale(0.1 -0.1)">
       <use xlink:href="#DejaVuSans-35"/>
       <use xlink:href="#DejaVuSans-32" x="63.623047"/>
       <use xlink:href="#DejaVuSans-2e" x="127.246094"/>
       <use xlink:href="#DejaVuSans-35" x="159.033203"/>
       <use xlink:href="#DejaVuSans-37" x="222.65625"/>
       <use xlink:href="#DejaVuSans-35" x="286.279297"/>
      </g>
     </g>
    </g>
    <g id="ytick_5">
     <g id="line2d_12">
      <g>
       <use xlink:href="#mca51d83b75" x="82.387797" y="130.128129" style="stroke: #000000; stroke-width: 0.8"/>
      </g>
     </g>
     <g id="text_12">
      <!-- 52.580 -->
      <g transform="translate(40.397172 133.927347) scale(0.1 -0.1)">
       <use xlink:href="#DejaVuSans-35"/>
       <use xlink:href="#DejaVuSans-32" x="63.623047"/>
       <use xlink:href="#DejaVuSans-2e" x="127.246094"/>
       <use xlink:href="#DejaVuSans-35" x="159.033203"/>
       <use xlink:href="#DejaVuSans-38" x="222.65625"/>
       <use xlink:href="#DejaVuSans-30" x="286.279297"/>
      </g>
     </g>
    </g>
    <g id="ytick_6">
     <g id="line2d_13">
      <g>
       <use xlink:href="#mca51d83b75" x="82.387797" y="92.344015" style="stroke: #000000; stroke-width: 0.8"/>
      </g>
     </g>
     <g id="text_13">
      <!-- 52.585 -->
      <g transform="translate(40.397172 96.143234) scale(0.1 -0.1)">
       <use xlink:href="#DejaVuSans-35"/>
       <use xlink:href="#DejaVuSans-32" x="63.623047"/>
       <use xlink:href="#DejaVuSans-2e" x="127.246094"/>
       <use xlink:href="#DejaVuSans-35" x="159.033203"/>
       <use xlink:href="#DejaVuSans-38" x="222.65625"/>
       <use xlink:href="#DejaVuSans-35" x="286.279297"/>
      </g>
     </g>
    </g>
    <g id="ytick_7">
     <g id="line2d_14">
      <g>
       <use xlink:href="#mca51d83b75" x="82.387797" y="54.559901" style="stroke: #000000; stroke-width: 0.8"/>
      </g>
     </g>
     <g id="text_14">
      <!-- 52.590 -->
      <g transform="translate(40.397172 58.35912) scale(0.1 -0.1)">
       <use xlink:href="#DejaVuSans-35"/>
       <use xlink:href="#DejaVuSans-32" x="63.623047"/>
       <use xlink:href="#DejaVuSans-2e" x="127.246094"/>
       <use xlink:href="#DejaVuSans-35" x="159.033203"/>
       <use xlink:href="#DejaVuSans-39" x="222.65625"/>
       <use xlink:href="#DejaVuSans-30" x="286.279297"/>
      </g>
     </g>
    </g>
   </g>
   <g id="patch_3">
    <path d="M 82.387797 307.584 
L 82.387797 41.472 
" style="fill: none; stroke: #000000; stroke-width: 0.8; stroke-linejoin: miter; stroke-linecap: square"/>
   </g>
   <g id="patch_4">
    <path d="M 389.932203 307.584 
L 389.932203 41.472 
" style="fill: none; stroke: #000000; stroke-width: 0.8; stroke-linejoin: miter; stroke-linecap: square"/>
   </g>
   <g id="patch_5">
    <path d="M 82.387797 307.584 
L 389.932203 307.584 
" style="fill: none; stroke: #000000; stroke-width: 0.8; stroke-linejoin: miter; stroke-linecap: square"/>
   </g>
   <g id="patch_6">
    <path d="M 82.387797 41.472 
L 389.932203 41.472 
" style="fill: none; stroke: #000000; stroke-width: 0.8; stroke-linejoin: miter; stroke-linecap: square"/>
   </g>
   <g id="text_15">
    <!-- Reinickendorf_Ost -->
    <g transform="translate(167.108823 192.948522) scale(0.12 -0.12)">
     <defs>
      <path id="DejaVuSans-52" d="M 2841 2188 
Q 3044 2119 3236 1894 
Q 3428 1669 3622 1275 
L 4263 0 
L 3584 0 
L 2988 1197 
Q 2756 1666 2539 1819 
Q 2322 1972 1947 1972 
L 1259 1972 
L 1259 0 
L 628 0 
L 628 4666 
L 2053 4666 
Q 2853 4666 3247 4331 
Q 3641 3997 3641 3322 
Q 3641 2881 3436 2590 
Q 3231 2300 2841 2188 
z
M 1259 4147 
L 1259 2491 
L 2053 2491 
Q 2509 2491 2742 2702 
Q 2975 2913 2975 3322 
Q 2975 3731 2742 3939 
Q 2509 4147 2053 4147 
L 1259 4147 
z
" transform="scale(0.015625)"/>
      <path id="DejaVuSans-65" d="M 3597 1894 
L 3597 1613 
L 953 1613 
Q 991 1019 1311 708 
Q 1631 397 2203 397 
Q 2534 397 2845 478 
Q 3156 559 3463 722 
L 3463 178 
Q 3153 47 2828 -22 
Q 2503 -91 2169 -91 
Q 1331 -91 842 396 
Q 353 884 353 1716 
Q 353 2575 817 3079 
Q 1281 3584 2069 3584 
Q 2775 3584 3186 3129 
Q 3597 2675 3597 1894 
z
M 3022 2063 
Q 3016 2534 2758 2815 
Q 2500 3097 2075 3097 
Q 1594 3097 1305 2825 
Q 1016 2553 972 2059 
L 3022 2063 
z
" transform="scale(0.015625)"/>
      <path id="DejaVuSans-69" d="M 603 3500 
L 1178 3500 
L 1178 0 
L 603 0 
L 603 3500 
z
M 603 4863 
L 1178 4863 
L 1178 4134 
L 603 4134 
L 603 4863 
z
" transform="scale(0.015625)"/>
      <path id="DejaVuSans-6e" d="M 3513 2113 
L 3513 0 
L 2938 0 
L 2938 2094 
Q 2938 2591 2744 2837 
Q 2550 3084 2163 3084 
Q 1697 3084 1428 2787 
Q 1159 2491 1159 1978 
L 1159 0 
L 581 0 
L 581 3500 
L 1159 3500 
L 1159 2956 
Q 1366 3272 1645 3428 
Q 1925 3584 2291 3584 
Q 2894 3584 3203 3211 
Q 3513 2838 3513 2113 
z
" transform="scale(0.015625)"/>
      <path id="DejaVuSans-63" d="M 3122 3366 
L 3122 2828 
Q 2878 2963 2633 3030 
Q 2388 3097 2138 3097 
Q 1578 3097 1268 2742 
Q 959 2388 959 1747 
Q 959 1106 1268 751 
Q 1578 397 2138 397 
Q 2388 397 2633 464 
Q 2878 531 3122 666 
L 3122 134 
Q 2881 22 2623 -34 
Q 2366 -91 2075 -91 
Q 1284 -91 818 406 
Q 353 903 353 1747 
Q 353 2603 823 3093 
Q 1294 3584 2113 3584 
Q 2378 3584 2631 3529 
Q 2884 3475 3122 3366 
z
" transform="scale(0.015625)"/>
      <path id="DejaVuSans-6b" d="M 581 4863 
L 1159 4863 
L 1159 1991 
L 2875 3500 
L 3609 3500 
L 1753 1863 
L 3688 0 
L 2938 0 
L 1159 1709 
L 1159 0 
L 581 0 
L 581 4863 
z
" transform="scale(0.015625)"/>
      <path id="DejaVuSans-64" d="M 2906 2969 
L 2906 4863 
L 3481 4863 
L 3481 0 
L 2906 0 
L 2906 525 
Q 2725 213 2448 61 
Q 2172 -91 1784 -91 
Q 1150 -91 751 415 
Q 353 922 353 1747 
Q 353 2572 751 3078 
Q 1150 3584 1784 3584 
Q 2172 3584 2448 3432 
Q 2725 3281 2906 2969 
z
M 947 1747 
Q 947 1113 1208 752 
Q 1469 391 1925 391 
Q 2381 391 2643 752 
Q 2906 1113 2906 1747 
Q 2906 2381 2643 2742 
Q 2381 3103 1925 3103 
Q 1469 3103 1208 2742 
Q 947 2381 947 1747 
z
" transform="scale(0.015625)"/>
      <path id="DejaVuSans-6f" d="M 1959 3097 
Q 1497 3097 1228 2736 
Q 959 2375 959 1747 
Q 959 1119 1226 758 
Q 1494 397 1959 397 
Q 2419 397 2687 759 
Q 2956 1122 2956 1747 
Q 2956 2369 2687 2733 
Q 2419 3097 1959 3097 
z
M 1959 3584 
Q 2709 3584 3137 3096 
Q 3566 2609 3566 1747 
Q 3566 888 3137 398 
Q 2709 -91 1959 -91 
Q 1206 -91 779 398 
Q 353 888 353 1747 
Q 353 2609 779 3096 
Q 1206 3584 1959 3584 
z
" transform="scale(0.015625)"/>
      <path id="DejaVuSans-72" d="M 2631 2963 
Q 2534 3019 2420 3045 
Q 2306 3072 2169 3072 
Q 1681 3072 1420 2755 
Q 1159 2438 1159 1844 
L 1159 0 
L 581 0 
L 581 3500 
L 1159 3500 
L 1159 2956 
Q 1341 3275 1631 3429 
Q 1922 3584 2338 3584 
Q 2397 3584 2469 3576 
Q 2541 3569 2628 3553 
L 2631 2963 
z
" transform="scale(0.015625)"/>
      <path id="DejaVuSans-66" d="M 2375 4863 
L 2375 4384 
L 1825 4384 
Q 1516 4384 1395 4259 
Q 1275 4134 1275 3809 
L 1275 3500 
L 2222 3500 
L 2222 3053 
L 1275 3053 
L 1275 0 
L 697 0 
L 697 3053 
L 147 3053 
L 147 3500 
L 697 3500 
L 697 3744 
Q 697 4328 969 4595 
Q 1241 4863 1831 4863 
L 2375 4863 
z
" transform="scale(0.015625)"/>
      <path id="DejaVuSans-5f" d="M 3263 -1063 
L 3263 -1509 
L -63 -1509 
L -63 -1063 
L 3263 -1063 
z
" transform="scale(0.015625)"/>
      <path id="DejaVuSans-4f" d="M 2522 4238 
Q 1834 4238 1429 3725 
Q 1025 3213 1025 2328 
Q 1025 1447 1429 934 
Q 1834 422 2522 422 
Q 3209 422 3611 934 
Q 4013 1447 4013 2328 
Q 4013 3213 3611 3725 
Q 3209 4238 2522 4238 
z
M 2522 4750 
Q 3503 4750 4090 4092 
Q 4678 3434 4678 2328 
Q 4678 1225 4090 567 
Q 3503 -91 2522 -91 
Q 1538 -91 948 565 
Q 359 1222 359 2328 
Q 359 3434 948 4092 
Q 1538 4750 2522 4750 
z
" transform="scale(0.015625)"/>
      <path id="DejaVuSans-73" d="M 2834 3397 
L 2834 2853 
Q 2591 2978 2328 3040 
Q 2066 3103 1784 3103 
Q 1356 3103 1142 2972 
Q 928 2841 928 2578 
Q 928 2378 1081 2264 
Q 1234 2150 1697 2047 
L 1894 2003 
Q 2506 1872 2764 1633 
Q 3022 1394 3022 966 
Q 3022 478 2636 193 
Q 2250 -91 1575 -91 
Q 1294 -91 989 -36 
Q 684 19 347 128 
L 347 722 
Q 666 556 975 473 
Q 1284 391 1588 391 
Q 1994 391 2212 530 
Q 2431 669 2431 922 
Q 2431 1156 2273 1281 
Q 2116 1406 1581 1522 
L 1381 1569 
Q 847 1681 609 1914 
Q 372 2147 372 2553 
Q 372 3047 722 3315 
Q 1072 3584 1716 3584 
Q 2034 3584 2315 3537 
Q 2597 3491 2834 3397 
z
" transform="scale(0.015625)"/>
      <path id="DejaVuSans-74" d="M 1172 4494 
L 1172 3500 
L 2356 3500 
L 2356 3053 
L 1172 3053 
L 1172 1153 
Q 1172 725 1289 603 
Q 1406 481 1766 481 
L 2356 481 
L 2356 0 
L 1766 0 
Q 1100 0 847 248 
Q 594 497 594 1153 
L 594 3053 
L 172 3053 
L 172 3500 
L 594 3500 
L 594 4494 
L 1172 4494 
z
" transform="scale(0.015625)"/>
     </defs>
     <use xlink:href="#DejaVuSans-52"/>
     <use xlink:href="#DejaVuSans-65" x="64.982422"/>
     <use xlink:href="#DejaVuSans-69" x="126.505859"/>
     <use xlink:href="#DejaVuSans-6e" x="154.289062"/>
     <use xlink:href="#DejaVuSans-69" x="217.667969"/>
     <use xlink:href="#DejaVuSans-63" x="245.451172"/>
     <use xlink:href="#DejaVuSans-6b" x="300.431641"/>
     <use xlink:href="#DejaVuSans-65" x="354.716797"/>
     <use xlink:href="#DejaVuSans-6e" x="416.240234"/>
     <use xlink:href="#DejaVuSans-64" x="479.619141"/>
     <use xlink:href="#DejaVuSans-6f" x="543.095703"/>
     <use xlink:href="#DejaVuSans-72" x="604.277344"/>
     <use xlink:href="#DejaVuSans-66" x="645.390625"/>
     <use xlink:href="#DejaVuSans-5f" x="680.595703"/>
     <use xlink:href="#DejaVuSans-4f" x="730.595703"/>
     <use xlink:href="#DejaVuSans-73" x="809.306641"/>
     <use xlink:href="#DejaVuSans-74" x="861.40625"/>
    </g>
   </g>
  </g>
 </g>
 <defs>
  <clipPath id="pa01ffda052">
   <rect x="82.387797" y="41.472" width="307.544405" height="266.112"/>
  </clipPath>
 </defs>
</svg>
