<?xml version="1.0" encoding="utf-8" standalone="no"?>
<!DOCTYPE svg PUBLIC "-//W3C//DTD SVG 1.1//EN"
  "http://www.w3.org/Graphics/SVG/1.1/DTD/svg11.dtd">
<svg xmlns:xlink="http://www.w3.org/1999/xlink" width="720pt" height="720pt" viewBox="0 0 720 720" xmlns="http://www.w3.org/2000/svg" version="1.1">
 <metadata>
  <rdf:RDF xmlns:dc="http://purl.org/dc/elements/1.1/" xmlns:cc="http://creativecommons.org/ns#" xmlns:rdf="http://www.w3.org/1999/02/22-rdf-syntax-ns#">
   <cc:Work>
    <dc:type rdf:resource="http://purl.org/dc/dcmitype/StillImage"/>
    <dc:date>2024-10-17T11:36:14.126278</dc:date>
    <dc:format>image/svg+xml</dc:format>
    <dc:creator>
     <cc:Agent>
      <dc:title>Matplotlib v3.9.2, https://matplotlib.org/</dc:title>
     </cc:Agent>
    </dc:creator>
   </cc:Work>
  </rdf:RDF>
 </metadata>
 <defs>
  <style type="text/css">*{stroke-linejoin: round; stroke-linecap: butt}</style>
 </defs>
 <g id="figure_1">
  <g id="patch_1">
   <path d="M 0 720 
L 720 720 
L 720 0 
L 0 0 
z
" style="fill: #ffffff"/>
  </g>
  <g id="axes_1">
   <g id="patch_2">
    <path d="M 99.886282 640.8 
L 638.113718 640.8 
L 638.113718 86.4 
L 99.886282 86.4 
z
" style="fill: #ffffff"/>
   </g>
   <g id="PatchCollection_1">
    <path d="M 128.79086 289.337092 
L 129.079708 292.109075 
L 129.334322 294.552518 
L 128.230463 294.416075 
L 127.911583 312.873961 
L 127.865589 315.537964 
L 127.860585 315.805462 
L 127.816708 318.313777 
L 127.80189 319.19113 
L 127.743387 322.581224 
L 127.17202 355.70277 
L 127.065791 361.856168 
L 128.173884 361.87522 
L 126.508666 368.825914 
L 126.198638 370.119908 
L 125.924983 371.26726 
L 125.864748 374.084641 
L 125.294151 400.801263 
L 125.555298 402.345434 
L 125.952503 404.693829 
L 126.583334 408.371242 
L 126.47672 413.370554 
L 125.009527 418.507078 
L 124.929855 422.286294 
L 124.708737 432.754096 
L 124.642536 435.895745 
L 124.532488 441.832765 
L 124.532458 441.834376 
L 124.410063 447.529181 
L 124.351165 450.262237 
L 127.443944 449.899899 
L 130.519585 449.560235 
L 133.59715 449.239238 
L 136.67664 448.936716 
L 139.757861 448.652861 
L 142.840815 448.387481 
L 145.925308 448.14096 
L 149.011149 447.912914 
L 149.21283 448.017988 
L 149.350812 449.49134 
L 154.625319 449.049296 
L 158.365854 448.504679 
L 159.368872 448.363041 
L 160.374393 448.240839 
L 161.38203 448.138266 
L 162.391399 448.05513 
L 163.402307 447.991624 
L 164.414371 447.947746 
L 165.427011 447.923691 
L 166.439844 447.919072 
L 166.448312 448.128451 
L 185.851291 448.52989 
L 186.806968 448.567416 
L 188.324774 448.388443 
L 189.69844 448.363233 
L 192.190013 448.262777 
L 196.786731 447.66062 
L 199.82831 447.65196 
L 200.806695 447.70161 
L 201.783349 447.776279 
L 202.757885 447.87558 
L 203.729535 447.999899 
L 204.697722 448.148658 
L 205.661866 448.32205 
L 206.621392 448.519883 
L 207.575337 448.742155 
L 207.717101 448.779013 
L 208.137082 453.981637 
L 210.395396 456.29021 
L 211.934659 457.863729 
L 212.575431 457.909709 
L 213.934074 458.003333 
L 215.050529 458.073972 
L 215.700066 458.115068 
L 216.337232 458.153547 
L 217.517339 458.22048 
L 218.721856 458.285215 
L 219.670848 458.33275 
L 220.305704 458.36455 
L 221.497761 458.416468 
L 222.431056 458.457116 
L 223.274283 458.465891 
L 224.588801 458.484121 
L 225.537405 458.511494 
L 226.833436 458.54474 
L 227.883745 458.568815 
L 229.53222 458.597795 
L 230.608487 458.612247 
L 232.377632 458.628789 
L 233.79199 458.635897 
L 234.890336 458.636207 
L 235.626175 458.634357 
L 235.98566 458.63301 
L 236.262972 458.620886 
L 237.742097 458.558726 
L 239.032242 458.510038 
L 241.22341 458.439988 
L 242.475066 458.402077 
L 242.486613 458.400345 
L 243.778874 458.344151 
L 243.825831 458.341457 
L 244.605229 458.294501 
L 246.637438 457.584575 
L 246.935919 457.466991 
L 247.827512 457.130022 
L 248.993531 456.693366 
L 251.333651 455.816976 
L 251.358861 455.807354 
L 252.527573 455.368197 
L 253.719379 454.929039 
L 256.021973 454.056883 
L 257.206081 453.615609 
L 258.429063 453.153935 
L 260.508998 452.364145 
L 262.906658 451.451383 
L 264.29418 450.935055 
L 265.681894 450.416996 
L 266.377579 450.1622 
L 268.800025 449.172983 
L 272.240195 447.768196 
L 273.515329 447.249174 
L 273.933318 447.079054 
L 275.201524 446.608528 
L 276.922551 445.969614 
L 278.159966 445.51025 
L 279.310397 445.076481 
L 281.730766 444.167568 
L 282.89486 443.72995 
L 284.023929 443.34487 
L 286.478168 442.507738 
L 287.680174 442.097447 
L 289.610003 441.440636 
L 292.00189 440.612164 
L 293.098821 440.229393 
L 293.645939 440.028289 
L 294.423413 439.742702 
L 295.36177 439.398035 
L 296.708879 438.902876 
L 297.790607 438.507019 
L 300.15151 437.636209 
L 301.714156 437.073503 
L 302.863624 436.633576 
L 304.949333 435.824349 
L 306.021439 435.414635 
L 307.106438 434.996069 
L 309.265276 434.130456 
L 310.34277 433.710736 
L 311.506479 433.257145 
L 313.849678 432.314169 
L 314.981441 431.858846 
L 316.18922 431.389283 
L 318.087488 430.642023 
L 319.422088 430.125695 
L 320.49939 428.881545 
L 320.871769 428.509743 
L 321.716406 427.554643 
L 322.491378 426.672287 
L 323.613327 425.472398 
L 324.064993 424.877169 
L 324.089626 424.895451 
L 324.112334 424.868894 
L 324.147359 424.893334 
L 324.466624 424.482658 
L 324.427173 424.451867 
L 324.446994 424.423386 
L 324.421977 424.403949 
L 325.157883 423.424216 
L 329.663383 419.103462 
L 330.324813 419.606511 
L 331.422706 420.441718 
L 332.006966 420.886072 
L 332.146488 420.992301 
L 332.743065 421.446084 
L 332.880855 421.550773 
L 333.477816 422.004941 
L 333.628115 422.119445 
L 334.310907 422.638852 
L 334.453893 422.74739 
L 334.80722 423.016235 
L 334.968488 423.136705 
L 335.057012 423.200981 
L 335.149001 423.260061 
L 335.24426 423.313946 
L 335.342214 423.362442 
L 335.443055 423.405164 
L 335.54582 423.442113 
L 335.825056 423.78043 
L 338.888958 427.906623 
L 340.282061 429.809895 
L 342.067749 432.249315 
L 342.925857 433.421877 
L 343.798206 434.575772 
L 344.003953 434.848944 
L 344.89225 436.018717 
L 346.992777 438.859769 
L 347.177716 439.114564 
L 350.7591 443.593892 
L 351.229241 444.162757 
L 364.209207 459.821159 
L 366.016237 462.003842 
L 368.788798 465.352771 
L 369.323985 465.999191 
L 370.592961 467.530661 
L 370.798684 467.780261 
L 373.234833 470.718881 
L 373.91493 471.533304 
L 377.821737 476.210849 
L 382.001237 481.261544 
L 383.007719 482.477598 
L 384.865574 484.723035 
L 386.768268 487.020047 
L 388.823763 489.433295 
L 390.312703 491.298656 
L 390.71087 491.779381 
L 391.247981 492.432728 
L 392.697662 494.195901 
L 397.477972 498.198545 
L 399.899496 500.243263 
L 403.163154 502.998676 
L 405.517322 504.939475 
L 406.109665 505.427898 
L 414.592407 512.421699 
L 416.914629 514.353068 
L 418.808278 515.928415 
L 420.104004 517.006102 
L 422.404566 518.919709 
L 426.086705 521.982512 
L 426.111145 521.50756 
L 432.724677 527.005302 
L 434.808077 528.737106 
L 435.176607 529.039821 
L 435.549179 529.337724 
L 435.925792 529.630431 
L 436.306446 529.917943 
L 436.690949 530.200258 
L 437.079301 530.477378 
L 437.47131 530.749109 
L 437.866975 531.015451 
L 438.266296 531.276405 
L 438.669082 531.531779 
L 439.075524 531.781763 
L 439.485044 532.026167 
L 440.817335 532.803834 
L 440.901433 532.849635 
L 440.988225 532.889471 
L 441.077711 532.923342 
L 441.169315 532.950861 
L 441.262458 532.97203 
L 448.946556 535.887172 
L 460.969691 540.843761 
L 463.155855 541.745362 
L 464.58456 542.810155 
L 465.119362 543.819716 
L 466.259208 544.464404 
L 466.806519 544.784053 
L 468.088581 545.532468 
L 470.05459 546.721195 
L 472.378544 548.202822 
L 473.275333 548.794395 
L 473.946001 549.576872 
L 474.418836 550.14285 
L 477.089338 552.270226 
L 483.171578 557.11546 
L 485.293849 558.806104 
L 489.941744 562.45155 
L 490.2183 562.642091 
L 491.474959 563.640106 
L 491.702621 562.107867 
L 492.059027 558.67274 
L 493.085716 558.780702 
L 494.727072 558.951977 
L 494.751897 558.947551 
L 495.820539 558.416405 
L 499.111909 556.80103 
L 500.088755 559.134799 
L 502.064578 563.853912 
L 502.72139 565.434647 
L 503.688806 567.281148 
L 504.998003 569.370705 
L 505.490275 570.196675 
L 507.169542 573.072174 
L 507.556932 573.638152 
L 510.863698 577.951401 
L 510.963191 578.076682 
L 511.178921 578.269511 
L 511.169106 578.280865 
L 513.419355 580.367151 
L 515.700394 582.856222 
L 520.411617 587.683489 
L 521.075164 588.513885 
L 523.116995 591.339156 
L 522.949569 591.537951 
L 523.069846 591.651108 
L 523.671234 592.208426 
L 524.279742 592.758046 
L 524.895371 593.299583 
L 533.668703 600.745436 
L 534.026456 601.060467 
L 534.378051 601.382426 
L 534.723104 601.711313 
L 535.061613 602.046935 
L 535.373949 602.368702 
L 535.680513 602.696241 
L 535.980725 603.02917 
L 536.27478 603.367871 
L 538.778285 606.518565 
L 539.895037 607.962665 
L 542.007401 609.727075 
L 542.556346 610.034326 
L 543.129829 610.322029 
L 543.706007 610.60396 
L 544.285071 610.880117 
L 544.866445 611.150886 
L 545.450512 611.415689 
L 546.037274 611.674719 
L 546.623074 611.934326 
L 547.210606 612.189699 
L 547.800062 612.440646 
L 548.391827 612.687744 
L 548.985325 612.930609 
L 549.580746 613.169047 
L 550.176938 613.404021 
L 550.774669 613.635339 
L 551.373748 613.863 
L 551.97475 614.087775 
L 552.5771 614.308893 
L 553.180605 614.526547 
L 554.157258 614.893923 
L 555.137376 615.251676 
L 556.120958 615.6 
L 556.346502 615.597113 
L 561.977222 615.453935 
L 564.279431 615.375995 
L 565.83688 596.591531 
L 565.156975 596.408325 
L 563.683624 596.370798 
L 559.477952 595.311393 
L 558.215903 594.992899 
L 554.64241 594.091683 
L 549.736819 592.395481 
L 549.273991 592.250186 
L 548.833486 592.035803 
L 548.404721 591.812183 
L 547.976148 591.588563 
L 544.996152 589.825006 
L 542.280381 588.133808 
L 539.333871 586.134314 
L 536.218394 583.912163 
L 534.225443 582.454206 
L 532.213248 580.91119 
L 530.553033 579.563312 
L 528.94651 578.037615 
L 526.560974 575.271425 
L 526.091795 574.650408 
L 525.405347 573.709934 
L 524.524723 572.459817 
L 520.227063 567.132388 
L 519.279276 565.765458 
L 518.927488 565.373257 
L 518.229879 564.583275 
L 517.23475 562.780459 
L 517.134295 562.597637 
L 516.704567 561.819778 
L 513.984948 556.889939 
L 510.873512 549.674826 
L 510.178982 548.063877 
L 508.802045 544.383577 
L 508.221441 542.854417 
L 508.009945 541.611036 
L 507.544342 539.007277 
L 507.454936 538.507298 
L 507.191095 537.01374 
L 507.138173 536.652715 
L 507.236512 530.899407 
L 507.283084 529.492064 
L 507.343126 528.085106 
L 507.416447 526.678917 
L 507.499006 525.334695 
L 507.593688 523.991436 
L 507.70088 522.648946 
L 507.801528 521.506791 
L 507.911221 520.365405 
L 508.029574 519.224982 
L 508.156972 518.08552 
L 509.731549 504.907144 
L 509.905134 503.471127 
L 510.19457 501.10214 
L 511.05364 494.069657 
L 518.341689 475.3156 
L 519.337971 471.99594 
L 519.187095 471.933396 
L 521.097102 467.02434 
L 520.992028 466.983735 
L 526.512478 452.87008 
L 532.672227 437.080046 
L 538.806189 421.305984 
L 540.136362 417.916467 
L 542.600416 411.63721 
L 543.404255 409.59307 
L 545.946248 403.129259 
L 552.924077 385.198669 
L 559.85418 367.247873 
L 565.10848 353.633419 
L 568.569586 344.662832 
L 570.304277 340.164067 
L 572.142108 335.399622 
L 572.672685 334.02414 
L 575.500073 326.694716 
L 577.333488 321.959245 
L 577.078884 321.586866 
L 577.846159 321.62266 
L 578.26511 320.642735 
L 578.340548 320.462992 
L 578.420219 320.27305 
L 578.492578 320.105047 
L 579.712866 316.651061 
L 578.978307 316.627583 
L 579.494057 315.307609 
L 580.232658 315.32743 
L 585.330693 315.491778 
L 600.236832 315.971541 
L 600.884983 315.991555 
L 610.560108 316.304469 
L 610.718682 313.865433 
L 610.891497 311.209128 
L 611.04295 308.879015 
L 611.044297 308.859001 
L 611.17208 306.890876 
L 611.370875 303.827359 
L 611.403398 303.331431 
L 611.458822 302.467164 
L 611.545422 301.119286 
L 611.632599 299.781608 
L 611.786746 297.396648 
L 611.820617 296.871854 
L 611.855834 296.331856 
L 611.919918 295.340961 
L 612.079454 292.874213 
L 612.190686 291.175317 
L 612.302881 289.418688 
L 612.365233 288.47321 
L 612.368697 288.416247 
L 612.458184 287.025839 
L 612.533814 285.882336 
L 612.634655 284.321807 
L 612.760513 282.355606 
L 612.90985 280.074375 
L 612.989137 278.832726 
L 613.016079 278.433019 
L 613.160797 276.182386 
L 613.190626 275.73072 
L 613.209678 275.432817 
L 613.21776 275.313694 
L 613.27915 274.359748 
L 613.316099 273.783956 
L 613.37364 271.766372 
L 613.421943 270.03938 
L 613.438109 269.463972 
L 613.504887 267.088827 
L 613.580325 264.394418 
L 613.648835 261.951918 
L 607.38863 261.271051 
L 606.493765 261.17329 
L 605.024647 261.012406 
L 604.477529 260.951979 
L 599.920646 260.445851 
L 600.234522 259.624308 
L 592.693217 258.815273 
L 580.091981 257.461044 
L 573.678783 256.771709 
L 568.82111 256.250378 
L 568.152752 256.183793 
L 567.959346 256.162431 
L 566.395738 255.990579 
L 566.291058 255.97564 
L 565.819945 255.908405 
L 564.980504 255.767729 
L 564.169738 255.605883 
L 563.856823 255.557195 
L 551.689163 252.872793 
L 546.847271 251.800495 
L 543.503748 251.060162 
L 539.460286 250.172563 
L 539.234377 250.114877 
L 535.391269 250.024428 
L 535.027358 250.015576 
L 532.081232 249.942255 
L 527.859394 249.835064 
L 524.970616 249.760973 
L 522.204618 249.694772 
L 518.488523 249.6049 
L 514.137171 249.492321 
L 510.808466 249.416498 
L 507.494387 249.336249 
L 504.355432 249.259271 
L 501.239571 249.182678 
L 498.295946 249.089728 
L 495.269764 249.005822 
L 493.662856 248.961368 
L 489.953352 248.884646 
L 489.764324 248.853214 
L 486.190446 248.754298 
L 483.239763 248.680219 
L 483.202177 248.679275 
L 479.884632 248.004921 
L 479.438739 247.89465 
L 479.388126 247.811322 
L 479.326929 247.735691 
L 478.846588 247.279984 
L 468.406115 237.428406 
L 463.577246 233.549749 
L 461.829284 232.145747 
L 458.816242 228.943722 
L 455.794417 225.739882 
L 452.986727 222.819383 
L 452.558346 222.370026 
L 448.913841 218.541929 
L 447.736468 217.306438 
L 447.430674 216.985056 
L 445.745634 215.214764 
L 442.423665 211.725945 
L 439.990018 209.170481 
L 439.568565 208.727475 
L 437.046586 206.078867 
L 440.892773 202.217092 
L 440.743244 202.117791 
L 440.688974 202.045625 
L 440.034606 201.405442 
L 438.502425 199.754578 
L 439.212544 198.525631 
L 441.069244 195.312007 
L 440.282918 194.860341 
L 433.489065 191.413283 
L 431.922571 192.45787 
L 426.802212 193.396997 
L 424.941663 193.7382 
L 422.177396 194.24529 
L 408.596235 196.736286 
L 405.886238 197.233369 
L 400.7526 198.185005 
L 399.767094 198.365902 
L 389.511943 200.24762 
L 384.1747 201.225621 
L 381.29362 201.672091 
L 380.479197 201.789867 
L 373.282367 202.779991 
L 370.275236 203.193746 
L 366.512185 203.711421 
L 366.100932 203.767999 
L 360.07089 203.940236 
L 359.595553 204.006822 
L 354.859313 204.668637 
L 354.82679 205.368364 
L 352.335216 205.73343 
L 348.732856 206.260727 
L 343.322869 207.047631 
L 342.762665 207.12865 
L 340.685019 207.422618 
L 338.37494 207.749474 
L 337.971193 207.80663 
L 335.156313 208.204989 
L 333.308466 208.466328 
L 332.465946 208.585451 
L 329.490761 209.006326 
L 328.492168 209.145463 
L 321.549557 210.164262 
L 314.917935 211.096461 
L 310.056413 211.760393 
L 306.244289 212.301353 
L 305.64598 212.386221 
L 301.403936 212.983182 
L 297.967848 213.452938 
L 296.374796 213.677328 
L 294.789827 213.900371 
L 289.64599 214.622421 
L 283.657131 215.459168 
L 283.146962 215.530372 
L 279.626583 216.022451 
L 276.408341 216.47277 
L 275.774622 216.561487 
L 272.208057 217.059147 
L 268.273731 217.607805 
L 258.757372 218.9349 
L 256.546575 219.243003 
L 255.321476 219.4137 
L 251.894817 219.891154 
L 248.468159 220.368608 
L 248.373476 219.683699 
L 248.301117 219.686394 
L 247.731868 219.7066 
L 241.410466 219.928681 
L 237.128008 220.080134 
L 237.181315 219.001485 
L 237.779431 206.048846 
L 238.053664 200.132923 
L 238.287291 195.13034 
L 238.622913 187.90907 
L 239.006262 179.676506 
L 239.234116 174.679503 
L 239.32264 172.729468 
L 239.547607 167.832729 
L 239.657878 165.448155 
L 239.863793 161.048499 
L 239.955781 159.098848 
L 240.192872 154.096073 
L 240.247911 152.549015 
L 240.320655 151.363367 
L 240.520219 147.097845 
L 239.751405 147.063782 
L 239.906515 143.747586 
L 240.230784 136.736465 
L 242.281467 131.418851 
L 242.463135 131.061867 
L 243.861433 128.313766 
L 246.38091 123.360256 
L 247.117586 121.912692 
L 247.542695 121.076522 
L 248.991029 118.229313 
L 249.371106 117.482052 
L 249.757726 116.722283 
L 250.464958 115.332067 
L 250.519227 115.226031 
L 250.88872 114.499362 
L 241.183189 114.768976 
L 239.177922 114.706624 
L 238.516299 114.686225 
L 237.533295 114.655819 
L 235.733751 114.60001 
L 231.565413 114.470688 
L 230.977304 114.452791 
L 230.359558 114.433931 
L 229.882682 114.419498 
L 227.527552 114.348101 
L 227.082621 114.33463 
L 225.792091 114.295371 
L 224.461533 114.255343 
L 223.863417 114.237446 
L 220.589751 114.138529 
L 218.466516 114.069827 
L 216.116582 113.994004 
L 215.537902 113.975337 
L 214.428078 113.940312 
L 211.303556 113.842358 
L 210.583623 113.81965 
L 201.069766 113.523286 
L 201.066687 113.586792 
L 199.644141 113.54253 
L 199.451119 113.536757 
L 196.305621 113.702066 
L 195.10554 113.765958 
L 191.315547 115.437334 
L 189.109946 115.369594 
L 189.007758 115.366323 
L 186.21347 115.578781 
L 184.49456 115.709643 
L 184.38198 115.706179 
L 182.347847 115.644019 
L 180.625857 115.655566 
L 177.592362 115.688281 
L 177.40877 115.682123 
L 175.435064 115.615345 
L 174.934517 115.606878 
L 170.295846 115.466778 
L 170.167293 115.462545 
L 168.084279 115.395959 
L 164.78752 115.215831 
L 163.89939 115.168105 
L 163.680581 115.160985 
L 161.828115 115.101712 
L 161.687823 115.097093 
L 160.293951 114.924471 
L 157.516214 114.573261 
L 154.995306 114.423261 
L 148.307573 112.585506 
L 148.057011 112.349762 
L 147.607973 111.927384 
L 143.075404 111.733556 
L 139.077187 111.6 
L 137.64752 112.205429 
L 137.237037 112.379014 
L 137.203552 112.806817 
L 137.039782 114.889639 
L 135.770036 114.770323 
L 135.622816 116.124167 
L 135.502539 117.230143 
L 134.936946 122.431906 
L 131.872082 150.839342 
L 131.643266 152.960075 
L 132.907431 152.736263 
L 132.469043 156.993703 
L 131.990627 163.8297 
L 131.607471 169.302039 
L 131.264536 174.291536 
L 131.106154 176.525042 
L 130.83654 180.319846 
L 131.195833 180.725711 
L 134.484702 184.438341 
L 135.881461 186.015228 
L 136.518258 186.734006 
L 134.306499 190.592125 
L 133.689908 191.667887 
L 129.945524 192.96496 
L 129.825439 193.004988 
L 129.67514 193.066378 
L 129.532732 193.144125 
L 129.400138 193.237461 
L 129.278706 193.345229 
L 129.170167 193.465892 
L 129.079141 193.594829 
L 129.002933 193.733004 
L 128.942121 193.878684 
L 128.897474 194.030138 
L 128.869762 194.185632 
L 128.696562 195.506184 
L 128.517589 197.121174 
L 128.353819 198.553535 
L 128.227191 199.846182 
L 128.189087 200.336144 
L 128.091903 201.496582 
L 128.002417 202.657212 
L 127.939487 203.641178 
L 127.878483 204.619564 
L 127.833451 205.575049 
L 127.782261 206.547853 
L 127.740885 207.509111 
L 127.703166 208.47826 
L 127.69085 208.553698 
L 127.692197 208.630098 
L 127.707015 208.705151 
L 127.734919 208.776355 
L 127.77514 208.841402 
L 127.824406 208.896825 
L 127.882716 208.943012 
L 127.947955 208.978422 
L 128.018389 209.0019 
L 128.59168 209.109091 
L 128.576092 209.428163 
L 128.532023 213.273965 
L 128.534332 213.743144 
L 128.537603 214.340875 
L 127.768982 214.364931 
L 127.731455 214.371089 
L 127.696815 214.386869 
L 127.667564 214.411117 
L 127.645433 214.442101 
L 127.632154 214.477703 
L 127.62869 214.515614 
L 127.629652 215.188784 
L 127.641392 216.193534 
L 127.666794 217.179233 
L 127.691812 218.191873 
L 127.725297 219.162368 
L 127.764171 220.15615 
L 127.820172 221.257892 
L 127.880215 222.351936 
L 127.951226 223.469459 
L 128.031476 224.615848 
L 128.12077 225.789564 
L 128.219878 226.957507 
L 128.317447 227.992664 
L 128.413092 228.931598 
L 128.534332 230.053932 
L 128.690019 231.473207 
L 128.841088 232.640188 
L 129.028528 234.112 
L 129.057202 234.259219 
L 129.100887 234.40259 
L 129.159198 234.540765 
L 129.231557 234.672012 
L 129.315655 234.794984 
L 129.411877 234.908526 
L 129.519453 235.011676 
L 129.637036 235.103087 
L 130.141625 235.449101 
L 130.448765 238.332875 
L 130.549933 239.283196 
L 130.627738 240.014066 
L 130.992997 243.443804 
L 130.98299 243.67262 
L 130.856362 243.664153 
L 130.729926 243.674929 
L 130.606569 243.704758 
L 130.489179 243.752869 
L 130.380448 243.818108 
L 130.282686 243.898934 
L 130.198396 243.993809 
L 130.061375 246.804455 
L 129.917042 246.797527 
L 129.155734 262.696869 
L 129.065093 264.591481 
L 128.912869 267.739866 
L 128.674816 272.660852 
L 127.882909 289.215852 
L 128.79086 289.337092 
" clip-path="url(#p0f7afb3652)" style="fill: #d3d3d3"/>
   </g>
   <g id="PatchCollection_2">
    <path d="M 169.248102 207.50126 
L 169.248102 207.308816 
L 169.055657 207.308816 
L 169.055657 207.50126 
L 169.248102 207.50126 
" clip-path="url(#p0f7afb3652)" style="fill: #ff0000; fill-opacity: 0.7; stroke: #000000; stroke-opacity: 0.7; stroke-width: 0.5"/>
    <path d="M 500.003288 523.480936 
L 500.003288 523.288492 
L 499.810844 523.288492 
L 499.810844 523.480936 
L 500.003288 523.480936 
" clip-path="url(#p0f7afb3652)" style="fill: #ff0000; fill-opacity: 0.7; stroke: #000000; stroke-opacity: 0.7; stroke-width: 0.5"/>
    <path d="M 362.508832 275.105991 
L 362.508832 274.913547 
L 362.316388 274.913547 
L 362.316388 275.105991 
L 362.508832 275.105991 
" clip-path="url(#p0f7afb3652)" style="fill: #ff0000; fill-opacity: 0.7; stroke: #000000; stroke-opacity: 0.7; stroke-width: 0.5"/>
    <path d="M 234.000813 306.228928 
L 234.000813 306.036484 
L 233.808369 306.036484 
L 233.808369 306.228928 
L 234.000813 306.228928 
" clip-path="url(#p0f7afb3652)" style="fill: #ff0000; fill-opacity: 0.7; stroke: #000000; stroke-opacity: 0.7; stroke-width: 0.5"/>
    <path d="M 500.003288 523.480936 
L 500.003288 523.288492 
L 499.810844 523.288492 
L 499.810844 523.480936 
L 500.003288 523.480936 
" clip-path="url(#p0f7afb3652)" style="fill: #ff0000; fill-opacity: 0.7; stroke: #000000; stroke-opacity: 0.7; stroke-width: 0.5"/>
    <path d="M 468.168355 388.720322 
L 468.168355 388.527878 
L 467.975911 388.527878 
L 467.975911 388.720322 
L 468.168355 388.720322 
" clip-path="url(#p0f7afb3652)" style="fill: #ff0000; fill-opacity: 0.7; stroke: #000000; stroke-opacity: 0.7; stroke-width: 0.5"/>
    <path d="M 379.470742 252.749235 
L 379.470742 252.556791 
L 379.278298 252.556791 
L 379.278298 252.749235 
L 379.470742 252.749235 
" clip-path="url(#p0f7afb3652)" style="fill: #ff0000; fill-opacity: 0.7; stroke: #000000; stroke-opacity: 0.7; stroke-width: 0.5"/>
    <path d="M 448.651132 332.880653 
L 448.651132 332.688209 
L 448.458688 332.688209 
L 448.458688 332.880653 
L 448.651132 332.880653 
" clip-path="url(#p0f7afb3652)" style="fill: #ff0000; fill-opacity: 0.7; stroke: #000000; stroke-opacity: 0.7; stroke-width: 0.5"/>
    <path d="M 371.758415 280.498025 
L 371.758415 280.305581 
L 371.565971 280.305581 
L 371.565971 280.498025 
L 371.758415 280.498025 
" clip-path="url(#p0f7afb3652)" style="fill: #ff0000; fill-opacity: 0.7; stroke: #000000; stroke-opacity: 0.7; stroke-width: 0.5"/>
    <path d="M 265.866208 303.624882 
L 265.866208 303.432438 
L 265.673764 303.432438 
L 265.673764 303.624882 
L 265.866208 303.624882 
" clip-path="url(#p0f7afb3652)" style="fill: #ff0000; fill-opacity: 0.7; stroke: #000000; stroke-opacity: 0.7; stroke-width: 0.5"/>
    <path d="M 403.783383 259.166702 
L 403.783383 258.974258 
L 403.590939 258.974258 
L 403.590939 259.166702 
L 403.783383 259.166702 
" clip-path="url(#p0f7afb3652)" style="fill: #ff0000; fill-opacity: 0.7; stroke: #000000; stroke-opacity: 0.7; stroke-width: 0.5"/>
    <path d="M 449.605041 303.815406 
L 449.605041 303.622962 
L 449.412597 303.622962 
L 449.412597 303.815406 
L 449.605041 303.815406 
" clip-path="url(#p0f7afb3652)" style="fill: #ff0000; fill-opacity: 0.7; stroke: #000000; stroke-opacity: 0.7; stroke-width: 0.5"/>
    <path d="M 187.400044 314.804049 
L 187.400044 314.611605 
L 187.2076 314.611605 
L 187.2076 314.804049 
L 187.400044 314.804049 
" clip-path="url(#p0f7afb3652)" style="fill: #ff0000; fill-opacity: 0.7; stroke: #000000; stroke-opacity: 0.7; stroke-width: 0.5"/>
    <path d="M 396.275474 255.52977 
L 396.275474 255.337326 
L 396.08303 255.337326 
L 396.08303 255.52977 
L 396.275474 255.52977 
" clip-path="url(#p0f7afb3652)" style="fill: #ff0000; fill-opacity: 0.7; stroke: #000000; stroke-opacity: 0.7; stroke-width: 0.5"/>
    <path d="M 426.521486 402.334625 
L 426.521486 402.142181 
L 426.329042 402.142181 
L 426.329042 402.334625 
L 426.521486 402.334625 
" clip-path="url(#p0f7afb3652)" style="fill: #ff0000; fill-opacity: 0.7; stroke: #000000; stroke-opacity: 0.7; stroke-width: 0.5"/>
    <path d="M 244.792733 318.634077 
L 244.792733 318.441633 
L 244.600289 318.441633 
L 244.600289 318.634077 
L 244.792733 318.634077 
" clip-path="url(#p0f7afb3652)" style="fill: #ff0000; fill-opacity: 0.7; stroke: #000000; stroke-opacity: 0.7; stroke-width: 0.5"/>
    <path d="M 335.152649 316.239477 
L 335.152649 316.047033 
L 334.960205 316.047033 
L 334.960205 316.239477 
L 335.152649 316.239477 
" clip-path="url(#p0f7afb3652)" style="fill: #ff0000; fill-opacity: 0.7; stroke: #000000; stroke-opacity: 0.7; stroke-width: 0.5"/>
    <path d="M 283.99157 302.001503 
L 283.99157 301.809059 
L 283.799126 301.809059 
L 283.799126 302.001503 
L 283.99157 302.001503 
" clip-path="url(#p0f7afb3652)" style="fill: #ff0000; fill-opacity: 0.7; stroke: #000000; stroke-opacity: 0.7; stroke-width: 0.5"/>
    <path d="M 240.935604 320.266819 
L 240.935604 320.074375 
L 240.74316 320.074375 
L 240.74316 320.266819 
L 240.935604 320.266819 
" clip-path="url(#p0f7afb3652)" style="fill: #ff0000; fill-opacity: 0.7; stroke: #000000; stroke-opacity: 0.7; stroke-width: 0.5"/>
    <path d="M 362.508832 275.105991 
L 362.508832 274.913547 
L 362.316388 274.913547 
L 362.316388 275.105991 
L 362.508832 275.105991 
" clip-path="url(#p0f7afb3652)" style="fill: #ff0000; fill-opacity: 0.7; stroke: #000000; stroke-opacity: 0.7; stroke-width: 0.5"/>
    <path d="M 396.275474 255.52977 
L 396.275474 255.337326 
L 396.08303 255.337326 
L 396.08303 255.52977 
L 396.275474 255.52977 
" clip-path="url(#p0f7afb3652)" style="fill: #ff0000; fill-opacity: 0.7; stroke: #000000; stroke-opacity: 0.7; stroke-width: 0.5"/>
    <path d="M 139.024065 241.759433 
L 139.024065 241.566989 
L 138.831621 241.566989 
L 138.831621 241.759433 
L 139.024065 241.759433 
" clip-path="url(#p0f7afb3652)" style="fill: #ff0000; fill-opacity: 0.7; stroke: #000000; stroke-opacity: 0.7; stroke-width: 0.5"/>
    <path d="M 511.114874 319.505942 
L 511.114874 319.313498 
L 510.92243 319.313498 
L 510.92243 319.505942 
L 511.114874 319.505942 
" clip-path="url(#p0f7afb3652)" style="fill: #ff0000; fill-opacity: 0.7; stroke: #000000; stroke-opacity: 0.7; stroke-width: 0.5"/>
    <path d="M 194.843695 233.870565 
L 194.843695 233.678121 
L 194.651251 233.678121 
L 194.651251 233.870565 
L 194.843695 233.870565 
" clip-path="url(#p0f7afb3652)" style="fill: #ff0000; fill-opacity: 0.7; stroke: #000000; stroke-opacity: 0.7; stroke-width: 0.5"/>
    <path d="M 302.327709 287.390409 
L 302.327709 287.197965 
L 302.135265 287.197965 
L 302.135265 287.390409 
L 302.327709 287.390409 
" clip-path="url(#p0f7afb3652)" style="fill: #ff0000; fill-opacity: 0.7; stroke: #000000; stroke-opacity: 0.7; stroke-width: 0.5"/>
    <path d="M 447.135673 379.057374 
L 447.135673 378.86493 
L 446.943229 378.86493 
L 446.943229 379.057374 
L 447.135673 379.057374 
" clip-path="url(#p0f7afb3652)" style="fill: #ff0000; fill-opacity: 0.7; stroke: #000000; stroke-opacity: 0.7; stroke-width: 0.5"/>
    <path d="M 463.929245 287.797944 
L 463.929245 287.6055 
L 463.736801 287.6055 
L 463.736801 287.797944 
L 463.929245 287.797944 
" clip-path="url(#p0f7afb3652)" style="fill: #ff0000; fill-opacity: 0.7; stroke: #000000; stroke-opacity: 0.7; stroke-width: 0.5"/>
    <path d="M 227.374522 443.718505 
L 227.374522 443.526061 
L 227.182078 443.526061 
L 227.182078 443.718505 
L 227.374522 443.718505 
" clip-path="url(#p0f7afb3652)" style="fill: #ff0000; fill-opacity: 0.7; stroke: #000000; stroke-opacity: 0.7; stroke-width: 0.5"/>
    <path d="M 244.792715 318.634269 
L 244.792715 318.441825 
L 244.600271 318.441825 
L 244.600271 318.634269 
L 244.792715 318.634269 
" clip-path="url(#p0f7afb3652)" style="fill: #ff0000; fill-opacity: 0.7; stroke: #000000; stroke-opacity: 0.7; stroke-width: 0.5"/>
    <path d="M 396.06157 283.390923 
L 396.06157 283.198479 
L 395.869125 283.198479 
L 395.869125 283.390923 
L 396.06157 283.390923 
" clip-path="url(#p0f7afb3652)" style="fill: #ff0000; fill-opacity: 0.7; stroke: #000000; stroke-opacity: 0.7; stroke-width: 0.5"/>
    <path d="M 420.448064 230.736425 
L 420.448064 230.543981 
L 420.25562 230.543981 
L 420.25562 230.736425 
L 420.448064 230.736425 
" clip-path="url(#p0f7afb3652)" style="fill: #ff0000; fill-opacity: 0.7; stroke: #000000; stroke-opacity: 0.7; stroke-width: 0.5"/>
    <path d="M 406.078624 276.498621 
L 406.078624 276.306177 
L 405.886179 276.306177 
L 405.886179 276.498621 
L 406.078624 276.498621 
" clip-path="url(#p0f7afb3652)" style="fill: #ff0000; fill-opacity: 0.7; stroke: #000000; stroke-opacity: 0.7; stroke-width: 0.5"/>
    <path d="M 368.748627 304.298331 
L 368.748627 304.105887 
L 368.556183 304.105887 
L 368.556183 304.298331 
L 368.748627 304.298331 
" clip-path="url(#p0f7afb3652)" style="fill: #ff0000; fill-opacity: 0.7; stroke: #000000; stroke-opacity: 0.7; stroke-width: 0.5"/>
    <path d="M 500.436374 523.270635 
L 500.436374 523.078191 
L 500.24393 523.078191 
L 500.24393 523.270635 
L 500.436374 523.270635 
" clip-path="url(#p0f7afb3652)" style="fill: #ff0000; fill-opacity: 0.7; stroke: #000000; stroke-opacity: 0.7; stroke-width: 0.5"/>
    <path d="M 483.142569 311.873478 
L 483.142569 311.681034 
L 482.950125 311.681034 
L 482.950125 311.873478 
L 483.142569 311.873478 
" clip-path="url(#p0f7afb3652)" style="fill: #ff0000; fill-opacity: 0.7; stroke: #000000; stroke-opacity: 0.7; stroke-width: 0.5"/>
    <path d="M 403.783596 259.166514 
L 403.783596 258.97407 
L 403.591152 258.97407 
L 403.591152 259.166514 
L 403.783596 259.166514 
" clip-path="url(#p0f7afb3652)" style="fill: #ff0000; fill-opacity: 0.7; stroke: #000000; stroke-opacity: 0.7; stroke-width: 0.5"/>
    <path d="M 291.223744 233.184039 
L 291.223744 232.991595 
L 291.0313 232.991595 
L 291.0313 233.184039 
L 291.223744 233.184039 
" clip-path="url(#p0f7afb3652)" style="fill: #ff0000; fill-opacity: 0.7; stroke: #000000; stroke-opacity: 0.7; stroke-width: 0.5"/>
    <path d="M 331.95346 279.253505 
L 331.95346 279.061061 
L 331.761016 279.061061 
L 331.761016 279.253505 
L 331.95346 279.253505 
" clip-path="url(#p0f7afb3652)" style="fill: #ff0000; fill-opacity: 0.7; stroke: #000000; stroke-opacity: 0.7; stroke-width: 0.5"/>
    <path d="M 235.957151 301.216396 
L 235.957151 301.023952 
L 235.764707 301.023952 
L 235.764707 301.216396 
L 235.957151 301.216396 
" clip-path="url(#p0f7afb3652)" style="fill: #ff0000; fill-opacity: 0.7; stroke: #000000; stroke-opacity: 0.7; stroke-width: 0.5"/>
    <path d="M 295.699578 389.410873 
L 295.699578 389.218429 
L 295.507134 389.218429 
L 295.507134 389.410873 
L 295.699578 389.410873 
" clip-path="url(#p0f7afb3652)" style="fill: #ff0000; fill-opacity: 0.7; stroke: #000000; stroke-opacity: 0.7; stroke-width: 0.5"/>
    <path d="M 386.551833 389.588838 
L 386.551833 389.396394 
L 386.359389 389.396394 
L 386.359389 389.588838 
L 386.551833 389.588838 
" clip-path="url(#p0f7afb3652)" style="fill: #ff0000; fill-opacity: 0.7; stroke: #000000; stroke-opacity: 0.7; stroke-width: 0.5"/>
    <path d="M 431.04973 212.588364 
L 431.04973 212.39592 
L 430.857286 212.39592 
L 430.857286 212.588364 
L 431.04973 212.588364 
" clip-path="url(#p0f7afb3652)" style="fill: #ff0000; fill-opacity: 0.7; stroke: #000000; stroke-opacity: 0.7; stroke-width: 0.5"/>
    <path d="M 352.013548 318.348591 
L 352.013548 318.156147 
L 351.821104 318.156147 
L 351.821104 318.348591 
L 352.013548 318.348591 
" clip-path="url(#p0f7afb3652)" style="fill: #ff0000; fill-opacity: 0.7; stroke: #000000; stroke-opacity: 0.7; stroke-width: 0.5"/>
    <path d="M 410.51089 397.170729 
L 410.51089 396.978285 
L 410.318446 396.978285 
L 410.318446 397.170729 
L 410.51089 397.170729 
" clip-path="url(#p0f7afb3652)" style="fill: #ff0000; fill-opacity: 0.7; stroke: #000000; stroke-opacity: 0.7; stroke-width: 0.5"/>
    <path d="M 555.965151 256.900108 
L 555.965151 256.707664 
L 555.772707 256.707664 
L 555.772707 256.900108 
L 555.965151 256.900108 
" clip-path="url(#p0f7afb3652)" style="fill: #ff0000; fill-opacity: 0.7; stroke: #000000; stroke-opacity: 0.7; stroke-width: 0.5"/>
    <path d="M 463.282298 523.832302 
L 463.282298 523.639858 
L 463.089854 523.639858 
L 463.089854 523.832302 
L 463.282298 523.832302 
" clip-path="url(#p0f7afb3652)" style="fill: #ff0000; fill-opacity: 0.7; stroke: #000000; stroke-opacity: 0.7; stroke-width: 0.5"/>
    <path d="M 327.765389 417.153916 
L 327.765389 416.961472 
L 327.572945 416.961472 
L 327.572945 417.153916 
L 327.765389 417.153916 
" clip-path="url(#p0f7afb3652)" style="fill: #ff0000; fill-opacity: 0.7; stroke: #000000; stroke-opacity: 0.7; stroke-width: 0.5"/>
    <path d="M 368.100093 208.117349 
L 368.100093 207.924905 
L 367.907649 207.924905 
L 367.907649 208.117349 
L 368.100093 208.117349 
" clip-path="url(#p0f7afb3652)" style="fill: #ff0000; fill-opacity: 0.7; stroke: #000000; stroke-opacity: 0.7; stroke-width: 0.5"/>
    <path d="M 429.274138 215.629619 
L 429.274138 215.437175 
L 429.081693 215.437175 
L 429.081693 215.629619 
L 429.274138 215.629619 
" clip-path="url(#p0f7afb3652)" style="fill: #ff0000; fill-opacity: 0.7; stroke: #000000; stroke-opacity: 0.7; stroke-width: 0.5"/>
    <path d="M 406.078824 276.498432 
L 406.078824 276.305988 
L 405.88638 276.305988 
L 405.88638 276.498432 
L 406.078824 276.498432 
" clip-path="url(#p0f7afb3652)" style="fill: #ff0000; fill-opacity: 0.7; stroke: #000000; stroke-opacity: 0.7; stroke-width: 0.5"/>
    <path d="M 290.754572 229.924896 
L 290.754572 229.732452 
L 290.562128 229.732452 
L 290.562128 229.924896 
L 290.754572 229.924896 
" clip-path="url(#p0f7afb3652)" style="fill: #ff0000; fill-opacity: 0.7; stroke: #000000; stroke-opacity: 0.7; stroke-width: 0.5"/>
    <path d="M 422.953417 209.979347 
L 422.953417 209.786903 
L 422.760973 209.786903 
L 422.760973 209.979347 
L 422.953417 209.979347 
" clip-path="url(#p0f7afb3652)" style="fill: #ff0000; fill-opacity: 0.7; stroke: #000000; stroke-opacity: 0.7; stroke-width: 0.5"/>
    <path d="M 431.04973 212.588364 
L 431.04973 212.39592 
L 430.857286 212.39592 
L 430.857286 212.588364 
L 431.04973 212.588364 
" clip-path="url(#p0f7afb3652)" style="fill: #ff0000; fill-opacity: 0.7; stroke: #000000; stroke-opacity: 0.7; stroke-width: 0.5"/>
    <path d="M 379.757847 285.240694 
L 379.757847 285.04825 
L 379.565403 285.04825 
L 379.565403 285.240694 
L 379.757847 285.240694 
" clip-path="url(#p0f7afb3652)" style="fill: #ff0000; fill-opacity: 0.7; stroke: #000000; stroke-opacity: 0.7; stroke-width: 0.5"/>
    <path d="M 216.766354 354.555098 
L 216.766354 354.362654 
L 216.57391 354.362654 
L 216.57391 354.555098 
L 216.766354 354.555098 
" clip-path="url(#p0f7afb3652)" style="fill: #ff0000; fill-opacity: 0.7; stroke: #000000; stroke-opacity: 0.7; stroke-width: 0.5"/>
    <path d="M 431.04973 212.588364 
L 431.04973 212.39592 
L 430.857286 212.39592 
L 430.857286 212.588364 
L 431.04973 212.588364 
" clip-path="url(#p0f7afb3652)" style="fill: #ff0000; fill-opacity: 0.7; stroke: #000000; stroke-opacity: 0.7; stroke-width: 0.5"/>
    <path d="M 272.926357 387.913508 
L 272.926357 387.721064 
L 272.733913 387.721064 
L 272.733913 387.913508 
L 272.926357 387.913508 
" clip-path="url(#p0f7afb3652)" style="fill: #ff0000; fill-opacity: 0.7; stroke: #000000; stroke-opacity: 0.7; stroke-width: 0.5"/>
    <path d="M 281.417566 391.978424 
L 281.417566 391.78598 
L 281.225122 391.78598 
L 281.225122 391.978424 
L 281.417566 391.978424 
" clip-path="url(#p0f7afb3652)" style="fill: #ff0000; fill-opacity: 0.7; stroke: #000000; stroke-opacity: 0.7; stroke-width: 0.5"/>
    <path d="M 201.173885 270.55445 
L 201.173885 270.362006 
L 200.981441 270.362006 
L 200.981441 270.55445 
L 201.173885 270.55445 
" clip-path="url(#p0f7afb3652)" style="fill: #ff0000; fill-opacity: 0.7; stroke: #000000; stroke-opacity: 0.7; stroke-width: 0.5"/>
    <path d="M 330.88259 336.131166 
L 330.88259 335.938722 
L 330.690146 335.938722 
L 330.690146 336.131166 
L 330.88259 336.131166 
" clip-path="url(#p0f7afb3652)" style="fill: #ff0000; fill-opacity: 0.7; stroke: #000000; stroke-opacity: 0.7; stroke-width: 0.5"/>
    <path d="M 447.803011 358.726195 
L 447.803011 358.533751 
L 447.610567 358.533751 
L 447.610567 358.726195 
L 447.803011 358.726195 
" clip-path="url(#p0f7afb3652)" style="fill: #ff0000; fill-opacity: 0.7; stroke: #000000; stroke-opacity: 0.7; stroke-width: 0.5"/>
    <path d="M 403.783596 259.166514 
L 403.783596 258.97407 
L 403.591152 258.97407 
L 403.591152 259.166514 
L 403.783596 259.166514 
" clip-path="url(#p0f7afb3652)" style="fill: #ff0000; fill-opacity: 0.7; stroke: #000000; stroke-opacity: 0.7; stroke-width: 0.5"/>
    <path d="M 236.877788 287.021541 
L 236.877788 286.829097 
L 236.685344 286.829097 
L 236.685344 287.021541 
L 236.877788 287.021541 
" clip-path="url(#p0f7afb3652)" style="fill: #ff0000; fill-opacity: 0.7; stroke: #000000; stroke-opacity: 0.7; stroke-width: 0.5"/>
    <path d="M 130.372214 289.244179 
L 130.372214 289.051735 
L 130.17977 289.051735 
L 130.17977 289.244179 
L 130.372214 289.244179 
" clip-path="url(#p0f7afb3652)" style="fill: #ff0000; fill-opacity: 0.7; stroke: #000000; stroke-opacity: 0.7; stroke-width: 0.5"/>
    <path d="M 426.300053 409.463371 
L 426.300053 409.270927 
L 426.107609 409.270927 
L 426.107609 409.463371 
L 426.300053 409.463371 
" clip-path="url(#p0f7afb3652)" style="fill: #ff0000; fill-opacity: 0.7; stroke: #000000; stroke-opacity: 0.7; stroke-width: 0.5"/>
    <path d="M 236.042713 310.98697 
L 236.042713 310.794526 
L 235.850269 310.794526 
L 235.850269 310.98697 
L 236.042713 310.98697 
" clip-path="url(#p0f7afb3652)" style="fill: #ff0000; fill-opacity: 0.7; stroke: #000000; stroke-opacity: 0.7; stroke-width: 0.5"/>
    <path d="M 425.341211 205.752013 
L 425.341211 205.559569 
L 425.148767 205.559569 
L 425.148767 205.752013 
L 425.341211 205.752013 
" clip-path="url(#p0f7afb3652)" style="fill: #ff0000; fill-opacity: 0.7; stroke: #000000; stroke-opacity: 0.7; stroke-width: 0.5"/>
    <path d="M 131.865304 209.176299 
L 131.865304 208.983855 
L 131.67286 208.983855 
L 131.67286 209.176299 
L 131.865304 209.176299 
" clip-path="url(#p0f7afb3652)" style="fill: #ff0000; fill-opacity: 0.7; stroke: #000000; stroke-opacity: 0.7; stroke-width: 0.5"/>
    <path d="M 321.390709 423.310186 
L 321.390709 423.117742 
L 321.198265 423.117742 
L 321.198265 423.310186 
L 321.390709 423.310186 
" clip-path="url(#p0f7afb3652)" style="fill: #ff0000; fill-opacity: 0.7; stroke: #000000; stroke-opacity: 0.7; stroke-width: 0.5"/>
    <path d="M 264.007451 387.079136 
L 264.007451 386.886692 
L 263.815007 386.886692 
L 263.815007 387.079136 
L 264.007451 387.079136 
" clip-path="url(#p0f7afb3652)" style="fill: #ff0000; fill-opacity: 0.7; stroke: #000000; stroke-opacity: 0.7; stroke-width: 0.5"/>
    <path d="M 227.328813 217.154396 
L 227.328813 216.961952 
L 227.136369 216.961952 
L 227.136369 217.154396 
L 227.328813 217.154396 
" clip-path="url(#p0f7afb3652)" style="fill: #ff0000; fill-opacity: 0.7; stroke: #000000; stroke-opacity: 0.7; stroke-width: 0.5"/>
    <path d="M 283.53881 375.805141 
L 283.53881 375.612697 
L 283.346366 375.612697 
L 283.346366 375.805141 
L 283.53881 375.805141 
" clip-path="url(#p0f7afb3652)" style="fill: #ff0000; fill-opacity: 0.7; stroke: #000000; stroke-opacity: 0.7; stroke-width: 0.5"/>
    <path d="M 281.443161 380.099303 
L 281.443161 379.906859 
L 281.250717 379.906859 
L 281.250717 380.099303 
L 281.443161 380.099303 
" clip-path="url(#p0f7afb3652)" style="fill: #ff0000; fill-opacity: 0.7; stroke: #000000; stroke-opacity: 0.7; stroke-width: 0.5"/>
    <path d="M 286.506941 395.74492 
L 286.506941 395.552476 
L 286.314497 395.552476 
L 286.314497 395.74492 
L 286.506941 395.74492 
" clip-path="url(#p0f7afb3652)" style="fill: #ff0000; fill-opacity: 0.7; stroke: #000000; stroke-opacity: 0.7; stroke-width: 0.5"/>
    <path d="M 290.771985 369.295529 
L 290.771985 369.103085 
L 290.579541 369.103085 
L 290.579541 369.295529 
L 290.771985 369.295529 
" clip-path="url(#p0f7afb3652)" style="fill: #ff0000; fill-opacity: 0.7; stroke: #000000; stroke-opacity: 0.7; stroke-width: 0.5"/>
    <path d="M 425.953967 221.315222 
L 425.953967 221.122778 
L 425.761523 221.122778 
L 425.761523 221.315222 
L 425.953967 221.315222 
" clip-path="url(#p0f7afb3652)" style="fill: #ff0000; fill-opacity: 0.7; stroke: #000000; stroke-opacity: 0.7; stroke-width: 0.5"/>
    <path d="M 321.390709 423.310186 
L 321.390709 423.117742 
L 321.198265 423.117742 
L 321.198265 423.310186 
L 321.390709 423.310186 
" clip-path="url(#p0f7afb3652)" style="fill: #ff0000; fill-opacity: 0.7; stroke: #000000; stroke-opacity: 0.7; stroke-width: 0.5"/>
    <path d="M 281.443161 380.099303 
L 281.443161 379.906859 
L 281.250717 379.906859 
L 281.250717 380.099303 
L 281.443161 380.099303 
" clip-path="url(#p0f7afb3652)" style="fill: #ff0000; fill-opacity: 0.7; stroke: #000000; stroke-opacity: 0.7; stroke-width: 0.5"/>
    <path d="M 227.328813 217.154396 
L 227.328813 216.961952 
L 227.136369 216.961952 
L 227.136369 217.154396 
L 227.328813 217.154396 
" clip-path="url(#p0f7afb3652)" style="fill: #ff0000; fill-opacity: 0.7; stroke: #000000; stroke-opacity: 0.7; stroke-width: 0.5"/>
    <path d="M 258.887718 393.182929 
L 258.887718 392.990485 
L 258.695274 392.990485 
L 258.695274 393.182929 
L 258.887718 393.182929 
" clip-path="url(#p0f7afb3652)" style="fill: #ff0000; fill-opacity: 0.7; stroke: #000000; stroke-opacity: 0.7; stroke-width: 0.5"/>
    <path d="M 381.446465 282.808015 
L 381.446465 282.615571 
L 381.254021 282.615571 
L 381.254021 282.808015 
L 381.446465 282.808015 
" clip-path="url(#p0f7afb3652)" style="fill: #ff0000; fill-opacity: 0.7; stroke: #000000; stroke-opacity: 0.7; stroke-width: 0.5"/>
    <path d="M 240.396467 118.586372 
L 240.396467 118.393928 
L 240.204023 118.393928 
L 240.204023 118.586372 
L 240.396467 118.586372 
" clip-path="url(#p0f7afb3652)" style="fill: #ff0000; fill-opacity: 0.7; stroke: #000000; stroke-opacity: 0.7; stroke-width: 0.5"/>
    <path d="M 364.010012 278.205307 
L 364.010012 278.012863 
L 363.817568 278.012863 
L 363.817568 278.205307 
L 364.010012 278.205307 
" clip-path="url(#p0f7afb3652)" style="fill: #ff0000; fill-opacity: 0.7; stroke: #000000; stroke-opacity: 0.7; stroke-width: 0.5"/>
    <path d="M 258.887718 393.182908 
L 258.887718 392.990464 
L 258.695274 392.990464 
L 258.695274 393.182908 
L 258.887718 393.182908 
" clip-path="url(#p0f7afb3652)" style="fill: #ff0000; fill-opacity: 0.7; stroke: #000000; stroke-opacity: 0.7; stroke-width: 0.5"/>
    <path d="M 323.164673 410.497249 
L 323.164673 410.304805 
L 322.972229 410.304805 
L 322.972229 410.497249 
L 323.164673 410.497249 
" clip-path="url(#p0f7afb3652)" style="fill: #ff0000; fill-opacity: 0.7; stroke: #000000; stroke-opacity: 0.7; stroke-width: 0.5"/>
    <path d="M 339.263744 315.780068 
L 339.263744 315.587624 
L 339.0713 315.587624 
L 339.0713 315.780068 
L 339.263744 315.780068 
" clip-path="url(#p0f7afb3652)" style="fill: #ff0000; fill-opacity: 0.7; stroke: #000000; stroke-opacity: 0.7; stroke-width: 0.5"/>
    <path d="M 286.785609 385.726495 
L 286.785609 385.534051 
L 286.593165 385.534051 
L 286.593165 385.726495 
L 286.785609 385.726495 
" clip-path="url(#p0f7afb3652)" style="fill: #ff0000; fill-opacity: 0.7; stroke: #000000; stroke-opacity: 0.7; stroke-width: 0.5"/>
    <path d="M 379.757847 285.240673 
L 379.757847 285.048229 
L 379.565403 285.048229 
L 379.565403 285.240673 
L 379.757847 285.240673 
" clip-path="url(#p0f7afb3652)" style="fill: #ff0000; fill-opacity: 0.7; stroke: #000000; stroke-opacity: 0.7; stroke-width: 0.5"/>
    <path d="M 258.887718 393.182908 
L 258.887718 392.990464 
L 258.695274 392.990464 
L 258.695274 393.182908 
L 258.887718 393.182908 
" clip-path="url(#p0f7afb3652)" style="fill: #ff0000; fill-opacity: 0.7; stroke: #000000; stroke-opacity: 0.7; stroke-width: 0.5"/>
    <path d="M 287.823058 399.410102 
L 287.823058 399.217658 
L 287.630614 399.217658 
L 287.630614 399.410102 
L 287.823058 399.410102 
" clip-path="url(#p0f7afb3652)" style="fill: #ff0000; fill-opacity: 0.7; stroke: #000000; stroke-opacity: 0.7; stroke-width: 0.5"/>
    <path d="M 443.452197 343.066762 
L 443.452197 342.874318 
L 443.259753 342.874318 
L 443.259753 343.066762 
L 443.452197 343.066762 
" clip-path="url(#p0f7afb3652)" style="fill: #ff0000; fill-opacity: 0.7; stroke: #000000; stroke-opacity: 0.7; stroke-width: 0.5"/>
    <path d="M 168.87873 299.996521 
L 168.87873 299.804077 
L 168.686286 299.804077 
L 168.686286 299.996521 
L 168.87873 299.996521 
" clip-path="url(#p0f7afb3652)" style="fill: #ff0000; fill-opacity: 0.7; stroke: #000000; stroke-opacity: 0.7; stroke-width: 0.5"/>
    <path d="M 228.958487 260.832755 
L 228.958487 260.640311 
L 228.766043 260.640311 
L 228.766043 260.832755 
L 228.958487 260.832755 
" clip-path="url(#p0f7afb3652)" style="fill: #ff0000; fill-opacity: 0.7; stroke: #000000; stroke-opacity: 0.7; stroke-width: 0.5"/>
    <path d="M 345.987553 226.835942 
L 345.987553 226.643498 
L 345.795109 226.643498 
L 345.795109 226.835942 
L 345.987553 226.835942 
" clip-path="url(#p0f7afb3652)" style="fill: #ff0000; fill-opacity: 0.7; stroke: #000000; stroke-opacity: 0.7; stroke-width: 0.5"/>
    <path d="M 373.42426 283.424658 
L 373.42426 283.232214 
L 373.231816 283.232214 
L 373.231816 283.424658 
L 373.42426 283.424658 
" clip-path="url(#p0f7afb3652)" style="fill: #ff0000; fill-opacity: 0.7; stroke: #000000; stroke-opacity: 0.7; stroke-width: 0.5"/>
    <path d="M 420.819881 213.611812 
L 420.819881 213.419367 
L 420.627437 213.419367 
L 420.627437 213.611812 
L 420.819881 213.611812 
" clip-path="url(#p0f7afb3652)" style="fill: #ff0000; fill-opacity: 0.7; stroke: #000000; stroke-opacity: 0.7; stroke-width: 0.5"/>
    <path d="M 358.293881 313.010242 
L 358.293881 312.817798 
L 358.101437 312.817798 
L 358.101437 313.010242 
L 358.293881 313.010242 
" clip-path="url(#p0f7afb3652)" style="fill: #ff0000; fill-opacity: 0.7; stroke: #000000; stroke-opacity: 0.7; stroke-width: 0.5"/>
    <path d="M 374.578593 299.421584 
L 374.578593 299.22914 
L 374.386148 299.22914 
L 374.386148 299.421584 
L 374.578593 299.421584 
" clip-path="url(#p0f7afb3652)" style="fill: #ff0000; fill-opacity: 0.7; stroke: #000000; stroke-opacity: 0.7; stroke-width: 0.5"/>
    <path d="M 288.690056 422.753975 
L 288.690056 422.561531 
L 288.497612 422.561531 
L 288.497612 422.753975 
L 288.690056 422.753975 
" clip-path="url(#p0f7afb3652)" style="fill: #ff0000; fill-opacity: 0.7; stroke: #000000; stroke-opacity: 0.7; stroke-width: 0.5"/>
    <path d="M 321.442907 297.549738 
L 321.442907 297.357294 
L 321.250463 297.357294 
L 321.250463 297.549738 
L 321.442907 297.549738 
" clip-path="url(#p0f7afb3652)" style="fill: #ff0000; fill-opacity: 0.7; stroke: #000000; stroke-opacity: 0.7; stroke-width: 0.5"/>
    <path d="M 408.534429 251.024983 
L 408.534429 250.832539 
L 408.341985 250.832539 
L 408.341985 251.024983 
L 408.534429 251.024983 
" clip-path="url(#p0f7afb3652)" style="fill: #ff0000; fill-opacity: 0.7; stroke: #000000; stroke-opacity: 0.7; stroke-width: 0.5"/>
    <path d="M 283.118207 383.047937 
L 283.118207 382.855493 
L 282.925763 382.855493 
L 282.925763 383.047937 
L 283.118207 383.047937 
" clip-path="url(#p0f7afb3652)" style="fill: #ff0000; fill-opacity: 0.7; stroke: #000000; stroke-opacity: 0.7; stroke-width: 0.5"/>
   </g>
   <g id="matplotlib.axis_1">
    <g id="xtick_1">
     <g id="line2d_1">
      <defs>
       <path id="m65276168c2" d="M 0 0 
L 0 3.5 
" style="stroke: #000000; stroke-width: 0.8"/>
      </defs>
      <g>
       <use xlink:href="#m65276168c2" x="112.084984" y="640.8" style="stroke: #000000; stroke-width: 0.8"/>
      </g>
     </g>
     <g id="text_1">
      <!-- 387000 -->
      <g transform="translate(92.997484 655.398438) scale(0.1 -0.1)">
       <defs>
        <path id="DejaVuSans-33" d="M 2597 2516 
Q 3050 2419 3304 2112 
Q 3559 1806 3559 1356 
Q 3559 666 3084 287 
Q 2609 -91 1734 -91 
Q 1441 -91 1130 -33 
Q 819 25 488 141 
L 488 750 
Q 750 597 1062 519 
Q 1375 441 1716 441 
Q 2309 441 2620 675 
Q 2931 909 2931 1356 
Q 2931 1769 2642 2001 
Q 2353 2234 1838 2234 
L 1294 2234 
L 1294 2753 
L 1863 2753 
Q 2328 2753 2575 2939 
Q 2822 3125 2822 3475 
Q 2822 3834 2567 4026 
Q 2313 4219 1838 4219 
Q 1578 4219 1281 4162 
Q 984 4106 628 3988 
L 628 4550 
Q 988 4650 1302 4700 
Q 1616 4750 1894 4750 
Q 2613 4750 3031 4423 
Q 3450 4097 3450 3541 
Q 3450 3153 3228 2886 
Q 3006 2619 2597 2516 
z
" transform="scale(0.015625)"/>
        <path id="DejaVuSans-38" d="M 2034 2216 
Q 1584 2216 1326 1975 
Q 1069 1734 1069 1313 
Q 1069 891 1326 650 
Q 1584 409 2034 409 
Q 2484 409 2743 651 
Q 3003 894 3003 1313 
Q 3003 1734 2745 1975 
Q 2488 2216 2034 2216 
z
M 1403 2484 
Q 997 2584 770 2862 
Q 544 3141 544 3541 
Q 544 4100 942 4425 
Q 1341 4750 2034 4750 
Q 2731 4750 3128 4425 
Q 3525 4100 3525 3541 
Q 3525 3141 3298 2862 
Q 3072 2584 2669 2484 
Q 3125 2378 3379 2068 
Q 3634 1759 3634 1313 
Q 3634 634 3220 271 
Q 2806 -91 2034 -91 
Q 1263 -91 848 271 
Q 434 634 434 1313 
Q 434 1759 690 2068 
Q 947 2378 1403 2484 
z
M 1172 3481 
Q 1172 3119 1398 2916 
Q 1625 2713 2034 2713 
Q 2441 2713 2670 2916 
Q 2900 3119 2900 3481 
Q 2900 3844 2670 4047 
Q 2441 4250 2034 4250 
Q 1625 4250 1398 4047 
Q 1172 3844 1172 3481 
z
" transform="scale(0.015625)"/>
        <path id="DejaVuSans-37" d="M 525 4666 
L 3525 4666 
L 3525 4397 
L 1831 0 
L 1172 0 
L 2766 4134 
L 525 4134 
L 525 4666 
z
" transform="scale(0.015625)"/>
        <path id="DejaVuSans-30" d="M 2034 4250 
Q 1547 4250 1301 3770 
Q 1056 3291 1056 2328 
Q 1056 1369 1301 889 
Q 1547 409 2034 409 
Q 2525 409 2770 889 
Q 3016 1369 3016 2328 
Q 3016 3291 2770 3770 
Q 2525 4250 2034 4250 
z
M 2034 4750 
Q 2819 4750 3233 4129 
Q 3647 3509 3647 2328 
Q 3647 1150 3233 529 
Q 2819 -91 2034 -91 
Q 1250 -91 836 529 
Q 422 1150 422 2328 
Q 422 3509 836 4129 
Q 1250 4750 2034 4750 
z
" transform="scale(0.015625)"/>
       </defs>
       <use xlink:href="#DejaVuSans-33"/>
       <use xlink:href="#DejaVuSans-38" x="63.623047"/>
       <use xlink:href="#DejaVuSans-37" x="127.246094"/>
       <use xlink:href="#DejaVuSans-30" x="190.869141"/>
       <use xlink:href="#DejaVuSans-30" x="254.492188"/>
       <use xlink:href="#DejaVuSans-30" x="318.115234"/>
      </g>
     </g>
    </g>
    <g id="xtick_2">
     <g id="line2d_2">
      <g>
       <use xlink:href="#m65276168c2" x="208.307009" y="640.8" style="stroke: #000000; stroke-width: 0.8"/>
      </g>
     </g>
     <g id="text_2">
      <!-- 387500 -->
      <g transform="translate(189.219509 655.398438) scale(0.1 -0.1)">
       <defs>
        <path id="DejaVuSans-35" d="M 691 4666 
L 3169 4666 
L 3169 4134 
L 1269 4134 
L 1269 2991 
Q 1406 3038 1543 3061 
Q 1681 3084 1819 3084 
Q 2600 3084 3056 2656 
Q 3513 2228 3513 1497 
Q 3513 744 3044 326 
Q 2575 -91 1722 -91 
Q 1428 -91 1123 -41 
Q 819 9 494 109 
L 494 744 
Q 775 591 1075 516 
Q 1375 441 1709 441 
Q 2250 441 2565 725 
Q 2881 1009 2881 1497 
Q 2881 1984 2565 2268 
Q 2250 2553 1709 2553 
Q 1456 2553 1204 2497 
Q 953 2441 691 2322 
L 691 4666 
z
" transform="scale(0.015625)"/>
       </defs>
       <use xlink:href="#DejaVuSans-33"/>
       <use xlink:href="#DejaVuSans-38" x="63.623047"/>
       <use xlink:href="#DejaVuSans-37" x="127.246094"/>
       <use xlink:href="#DejaVuSans-35" x="190.869141"/>
       <use xlink:href="#DejaVuSans-30" x="254.492188"/>
       <use xlink:href="#DejaVuSans-30" x="318.115234"/>
      </g>
     </g>
    </g>
    <g id="xtick_3">
     <g id="line2d_3">
      <g>
       <use xlink:href="#m65276168c2" x="304.529035" y="640.8" style="stroke: #000000; stroke-width: 0.8"/>
      </g>
     </g>
     <g id="text_3">
      <!-- 388000 -->
      <g transform="translate(285.441535 655.398438) scale(0.1 -0.1)">
       <use xlink:href="#DejaVuSans-33"/>
       <use xlink:href="#DejaVuSans-38" x="63.623047"/>
       <use xlink:href="#DejaVuSans-38" x="127.246094"/>
       <use xlink:href="#DejaVuSans-30" x="190.869141"/>
       <use xlink:href="#DejaVuSans-30" x="254.492188"/>
       <use xlink:href="#DejaVuSans-30" x="318.115234"/>
      </g>
     </g>
    </g>
    <g id="xtick_4">
     <g id="line2d_4">
      <g>
       <use xlink:href="#m65276168c2" x="400.75106" y="640.8" style="stroke: #000000; stroke-width: 0.8"/>
      </g>
     </g>
     <g id="text_4">
      <!-- 388500 -->
      <g transform="translate(381.66356 655.398438) scale(0.1 -0.1)">
       <use xlink:href="#DejaVuSans-33"/>
       <use xlink:href="#DejaVuSans-38" x="63.623047"/>
       <use xlink:href="#DejaVuSans-38" x="127.246094"/>
       <use xlink:href="#DejaVuSans-35" x="190.869141"/>
       <use xlink:href="#DejaVuSans-30" x="254.492188"/>
       <use xlink:href="#DejaVuSans-30" x="318.115234"/>
      </g>
     </g>
    </g>
    <g id="xtick_5">
     <g id="line2d_5">
      <g>
       <use xlink:href="#m65276168c2" x="496.973086" y="640.8" style="stroke: #000000; stroke-width: 0.8"/>
      </g>
     </g>
     <g id="text_5">
      <!-- 389000 -->
      <g transform="translate(477.885586 655.398438) scale(0.1 -0.1)">
       <defs>
        <path id="DejaVuSans-39" d="M 703 97 
L 703 672 
Q 941 559 1184 500 
Q 1428 441 1663 441 
Q 2288 441 2617 861 
Q 2947 1281 2994 2138 
Q 2813 1869 2534 1725 
Q 2256 1581 1919 1581 
Q 1219 1581 811 2004 
Q 403 2428 403 3163 
Q 403 3881 828 4315 
Q 1253 4750 1959 4750 
Q 2769 4750 3195 4129 
Q 3622 3509 3622 2328 
Q 3622 1225 3098 567 
Q 2575 -91 1691 -91 
Q 1453 -91 1209 -44 
Q 966 3 703 97 
z
M 1959 2075 
Q 2384 2075 2632 2365 
Q 2881 2656 2881 3163 
Q 2881 3666 2632 3958 
Q 2384 4250 1959 4250 
Q 1534 4250 1286 3958 
Q 1038 3666 1038 3163 
Q 1038 2656 1286 2365 
Q 1534 2075 1959 2075 
z
" transform="scale(0.015625)"/>
       </defs>
       <use xlink:href="#DejaVuSans-33"/>
       <use xlink:href="#DejaVuSans-38" x="63.623047"/>
       <use xlink:href="#DejaVuSans-39" x="127.246094"/>
       <use xlink:href="#DejaVuSans-30" x="190.869141"/>
       <use xlink:href="#DejaVuSans-30" x="254.492188"/>
       <use xlink:href="#DejaVuSans-30" x="318.115234"/>
      </g>
     </g>
    </g>
    <g id="xtick_6">
     <g id="line2d_6">
      <g>
       <use xlink:href="#m65276168c2" x="593.195111" y="640.8" style="stroke: #000000; stroke-width: 0.8"/>
      </g>
     </g>
     <g id="text_6">
      <!-- 389500 -->
      <g transform="translate(574.107611 655.398438) scale(0.1 -0.1)">
       <use xlink:href="#DejaVuSans-33"/>
       <use xlink:href="#DejaVuSans-38" x="63.623047"/>
       <use xlink:href="#DejaVuSans-39" x="127.246094"/>
       <use xlink:href="#DejaVuSans-35" x="190.869141"/>
       <use xlink:href="#DejaVuSans-30" x="254.492188"/>
       <use xlink:href="#DejaVuSans-30" x="318.115234"/>
      </g>
     </g>
    </g>
   </g>
   <g id="matplotlib.axis_2">
    <g id="ytick_1">
     <g id="line2d_7">
      <defs>
       <path id="m58587757a3" d="M 0 0 
L -3.5 0 
" style="stroke: #000000; stroke-width: 0.8"/>
      </defs>
      <g>
       <use xlink:href="#m58587757a3" x="99.886282" y="555.93544" style="stroke: #000000; stroke-width: 0.8"/>
      </g>
     </g>
     <g id="text_7">
      <!-- 5.8150 -->
      <g transform="translate(57.895657 559.734659) scale(0.1 -0.1)">
       <defs>
        <path id="DejaVuSans-2e" d="M 684 794 
L 1344 794 
L 1344 0 
L 684 0 
L 684 794 
z
" transform="scale(0.015625)"/>
        <path id="DejaVuSans-31" d="M 794 531 
L 1825 531 
L 1825 4091 
L 703 3866 
L 703 4441 
L 1819 4666 
L 2450 4666 
L 2450 531 
L 3481 531 
L 3481 0 
L 794 0 
L 794 531 
z
" transform="scale(0.015625)"/>
       </defs>
       <use xlink:href="#DejaVuSans-35"/>
       <use xlink:href="#DejaVuSans-2e" x="63.623047"/>
       <use xlink:href="#DejaVuSans-38" x="95.410156"/>
       <use xlink:href="#DejaVuSans-31" x="159.033203"/>
       <use xlink:href="#DejaVuSans-35" x="222.65625"/>
       <use xlink:href="#DejaVuSans-30" x="286.279297"/>
      </g>
     </g>
    </g>
    <g id="ytick_2">
     <g id="line2d_8">
      <g>
       <use xlink:href="#m58587757a3" x="99.886282" y="459.713415" style="stroke: #000000; stroke-width: 0.8"/>
      </g>
     </g>
     <g id="text_8">
      <!-- 5.8155 -->
      <g transform="translate(57.895657 463.512633) scale(0.1 -0.1)">
       <use xlink:href="#DejaVuSans-35"/>
       <use xlink:href="#DejaVuSans-2e" x="63.623047"/>
       <use xlink:href="#DejaVuSans-38" x="95.410156"/>
       <use xlink:href="#DejaVuSans-31" x="159.033203"/>
       <use xlink:href="#DejaVuSans-35" x="222.65625"/>
       <use xlink:href="#DejaVuSans-35" x="286.279297"/>
      </g>
     </g>
    </g>
    <g id="ytick_3">
     <g id="line2d_9">
      <g>
       <use xlink:href="#m58587757a3" x="99.886282" y="363.491389" style="stroke: #000000; stroke-width: 0.8"/>
      </g>
     </g>
     <g id="text_9">
      <!-- 5.8160 -->
      <g transform="translate(57.895657 367.290608) scale(0.1 -0.1)">
       <defs>
        <path id="DejaVuSans-36" d="M 2113 2584 
Q 1688 2584 1439 2293 
Q 1191 2003 1191 1497 
Q 1191 994 1439 701 
Q 1688 409 2113 409 
Q 2538 409 2786 701 
Q 3034 994 3034 1497 
Q 3034 2003 2786 2293 
Q 2538 2584 2113 2584 
z
M 3366 4563 
L 3366 3988 
Q 3128 4100 2886 4159 
Q 2644 4219 2406 4219 
Q 1781 4219 1451 3797 
Q 1122 3375 1075 2522 
Q 1259 2794 1537 2939 
Q 1816 3084 2150 3084 
Q 2853 3084 3261 2657 
Q 3669 2231 3669 1497 
Q 3669 778 3244 343 
Q 2819 -91 2113 -91 
Q 1303 -91 875 529 
Q 447 1150 447 2328 
Q 447 3434 972 4092 
Q 1497 4750 2381 4750 
Q 2619 4750 2861 4703 
Q 3103 4656 3366 4563 
z
" transform="scale(0.015625)"/>
       </defs>
       <use xlink:href="#DejaVuSans-35"/>
       <use xlink:href="#DejaVuSans-2e" x="63.623047"/>
       <use xlink:href="#DejaVuSans-38" x="95.410156"/>
       <use xlink:href="#DejaVuSans-31" x="159.033203"/>
       <use xlink:href="#DejaVuSans-36" x="222.65625"/>
       <use xlink:href="#DejaVuSans-30" x="286.279297"/>
      </g>
     </g>
    </g>
    <g id="ytick_4">
     <g id="line2d_10">
      <g>
       <use xlink:href="#m58587757a3" x="99.886282" y="267.269364" style="stroke: #000000; stroke-width: 0.8"/>
      </g>
     </g>
     <g id="text_10">
      <!-- 5.8165 -->
      <g transform="translate(57.895657 271.068582) scale(0.1 -0.1)">
       <use xlink:href="#DejaVuSans-35"/>
       <use xlink:href="#DejaVuSans-2e" x="63.623047"/>
       <use xlink:href="#DejaVuSans-38" x="95.410156"/>
       <use xlink:href="#DejaVuSans-31" x="159.033203"/>
       <use xlink:href="#DejaVuSans-36" x="222.65625"/>
       <use xlink:href="#DejaVuSans-35" x="286.279297"/>
      </g>
     </g>
    </g>
    <g id="ytick_5">
     <g id="line2d_11">
      <g>
       <use xlink:href="#m58587757a3" x="99.886282" y="171.047338" style="stroke: #000000; stroke-width: 0.8"/>
      </g>
     </g>
     <g id="text_11">
      <!-- 5.8170 -->
      <g transform="translate(57.895657 174.846557) scale(0.1 -0.1)">
       <use xlink:href="#DejaVuSans-35"/>
       <use xlink:href="#DejaVuSans-2e" x="63.623047"/>
       <use xlink:href="#DejaVuSans-38" x="95.410156"/>
       <use xlink:href="#DejaVuSans-31" x="159.033203"/>
       <use xlink:href="#DejaVuSans-37" x="222.65625"/>
       <use xlink:href="#DejaVuSans-30" x="286.279297"/>
      </g>
     </g>
    </g>
    <g id="text_12">
     <!-- 1e6 -->
     <g transform="translate(99.886282 83.4) scale(0.1 -0.1)">
      <defs>
       <path id="DejaVuSans-65" d="M 3597 1894 
L 3597 1613 
L 953 1613 
Q 991 1019 1311 708 
Q 1631 397 2203 397 
Q 2534 397 2845 478 
Q 3156 559 3463 722 
L 3463 178 
Q 3153 47 2828 -22 
Q 2503 -91 2169 -91 
Q 1331 -91 842 396 
Q 353 884 353 1716 
Q 353 2575 817 3079 
Q 1281 3584 2069 3584 
Q 2775 3584 3186 3129 
Q 3597 2675 3597 1894 
z
M 3022 2063 
Q 3016 2534 2758 2815 
Q 2500 3097 2075 3097 
Q 1594 3097 1305 2825 
Q 1016 2553 972 2059 
L 3022 2063 
z
" transform="scale(0.015625)"/>
      </defs>
      <use xlink:href="#DejaVuSans-31"/>
      <use xlink:href="#DejaVuSans-65" x="63.623047"/>
      <use xlink:href="#DejaVuSans-36" x="125.146484"/>
     </g>
    </g>
   </g>
   <g id="patch_3">
    <path d="M 99.886282 640.8 
L 99.886282 86.4 
" style="fill: none; stroke: #000000; stroke-width: 0.8; stroke-linejoin: miter; stroke-linecap: square"/>
   </g>
   <g id="patch_4">
    <path d="M 638.113718 640.8 
L 638.113718 86.4 
" style="fill: none; stroke: #000000; stroke-width: 0.8; stroke-linejoin: miter; stroke-linecap: square"/>
   </g>
   <g id="patch_5">
    <path d="M 99.886282 640.8 
L 638.113718 640.8 
" style="fill: none; stroke: #000000; stroke-width: 0.8; stroke-linejoin: miter; stroke-linecap: square"/>
   </g>
   <g id="patch_6">
    <path d="M 99.886282 86.4 
L 638.113718 86.4 
" style="fill: none; stroke: #000000; stroke-width: 0.8; stroke-linejoin: miter; stroke-linecap: square"/>
   </g>
   <g id="text_13">
    <!-- Schneberg_Sd -->
    <g transform="translate(292.278538 336.133061) scale(0.12 -0.12)">
     <defs>
      <path id="DejaVuSans-53" d="M 3425 4513 
L 3425 3897 
Q 3066 4069 2747 4153 
Q 2428 4238 2131 4238 
Q 1616 4238 1336 4038 
Q 1056 3838 1056 3469 
Q 1056 3159 1242 3001 
Q 1428 2844 1947 2747 
L 2328 2669 
Q 3034 2534 3370 2195 
Q 3706 1856 3706 1288 
Q 3706 609 3251 259 
Q 2797 -91 1919 -91 
Q 1588 -91 1214 -16 
Q 841 59 441 206 
L 441 856 
Q 825 641 1194 531 
Q 1563 422 1919 422 
Q 2459 422 2753 634 
Q 3047 847 3047 1241 
Q 3047 1584 2836 1778 
Q 2625 1972 2144 2069 
L 1759 2144 
Q 1053 2284 737 2584 
Q 422 2884 422 3419 
Q 422 4038 858 4394 
Q 1294 4750 2059 4750 
Q 2388 4750 2728 4690 
Q 3069 4631 3425 4513 
z
" transform="scale(0.015625)"/>
      <path id="DejaVuSans-63" d="M 3122 3366 
L 3122 2828 
Q 2878 2963 2633 3030 
Q 2388 3097 2138 3097 
Q 1578 3097 1268 2742 
Q 959 2388 959 1747 
Q 959 1106 1268 751 
Q 1578 397 2138 397 
Q 2388 397 2633 464 
Q 2878 531 3122 666 
L 3122 134 
Q 2881 22 2623 -34 
Q 2366 -91 2075 -91 
Q 1284 -91 818 406 
Q 353 903 353 1747 
Q 353 2603 823 3093 
Q 1294 3584 2113 3584 
Q 2378 3584 2631 3529 
Q 2884 3475 3122 3366 
z
" transform="scale(0.015625)"/>
      <path id="DejaVuSans-68" d="M 3513 2113 
L 3513 0 
L 2938 0 
L 2938 2094 
Q 2938 2591 2744 2837 
Q 2550 3084 2163 3084 
Q 1697 3084 1428 2787 
Q 1159 2491 1159 1978 
L 1159 0 
L 581 0 
L 581 4863 
L 1159 4863 
L 1159 2956 
Q 1366 3272 1645 3428 
Q 1925 3584 2291 3584 
Q 2894 3584 3203 3211 
Q 3513 2838 3513 2113 
z
" transform="scale(0.015625)"/>
      <path id="DejaVuSans-f6" d="M 1959 3097 
Q 1497 3097 1228 2736 
Q 959 2375 959 1747 
Q 959 1119 1226 758 
Q 1494 397 1959 397 
Q 2419 397 2687 759 
Q 2956 1122 2956 1747 
Q 2956 2369 2687 2733 
Q 2419 3097 1959 3097 
z
M 1959 3584 
Q 2709 3584 3137 3096 
Q 3566 2609 3566 1747 
Q 3566 888 3137 398 
Q 2709 -91 1959 -91 
Q 1206 -91 779 398 
Q 353 888 353 1747 
Q 353 2609 779 3096 
Q 1206 3584 1959 3584 
z
M 2254 4850 
L 2888 4850 
L 2888 4219 
L 2254 4219 
L 2254 4850 
z
M 1032 4850 
L 1666 4850 
L 1666 4219 
L 1032 4219 
L 1032 4850 
z
" transform="scale(0.015625)"/>
      <path id="DejaVuSans-6e" d="M 3513 2113 
L 3513 0 
L 2938 0 
L 2938 2094 
Q 2938 2591 2744 2837 
Q 2550 3084 2163 3084 
Q 1697 3084 1428 2787 
Q 1159 2491 1159 1978 
L 1159 0 
L 581 0 
L 581 3500 
L 1159 3500 
L 1159 2956 
Q 1366 3272 1645 3428 
Q 1925 3584 2291 3584 
Q 2894 3584 3203 3211 
Q 3513 2838 3513 2113 
z
" transform="scale(0.015625)"/>
      <path id="DejaVuSans-62" d="M 3116 1747 
Q 3116 2381 2855 2742 
Q 2594 3103 2138 3103 
Q 1681 3103 1420 2742 
Q 1159 2381 1159 1747 
Q 1159 1113 1420 752 
Q 1681 391 2138 391 
Q 2594 391 2855 752 
Q 3116 1113 3116 1747 
z
M 1159 2969 
Q 1341 3281 1617 3432 
Q 1894 3584 2278 3584 
Q 2916 3584 3314 3078 
Q 3713 2572 3713 1747 
Q 3713 922 3314 415 
Q 2916 -91 2278 -91 
Q 1894 -91 1617 61 
Q 1341 213 1159 525 
L 1159 0 
L 581 0 
L 581 4863 
L 1159 4863 
L 1159 2969 
z
" transform="scale(0.015625)"/>
      <path id="DejaVuSans-72" d="M 2631 2963 
Q 2534 3019 2420 3045 
Q 2306 3072 2169 3072 
Q 1681 3072 1420 2755 
Q 1159 2438 1159 1844 
L 1159 0 
L 581 0 
L 581 3500 
L 1159 3500 
L 1159 2956 
Q 1341 3275 1631 3429 
Q 1922 3584 2338 3584 
Q 2397 3584 2469 3576 
Q 2541 3569 2628 3553 
L 2631 2963 
z
" transform="scale(0.015625)"/>
      <path id="DejaVuSans-67" d="M 2906 1791 
Q 2906 2416 2648 2759 
Q 2391 3103 1925 3103 
Q 1463 3103 1205 2759 
Q 947 2416 947 1791 
Q 947 1169 1205 825 
Q 1463 481 1925 481 
Q 2391 481 2648 825 
Q 2906 1169 2906 1791 
z
M 3481 434 
Q 3481 -459 3084 -895 
Q 2688 -1331 1869 -1331 
Q 1566 -1331 1297 -1286 
Q 1028 -1241 775 -1147 
L 775 -588 
Q 1028 -725 1275 -790 
Q 1522 -856 1778 -856 
Q 2344 -856 2625 -561 
Q 2906 -266 2906 331 
L 2906 616 
Q 2728 306 2450 153 
Q 2172 0 1784 0 
Q 1141 0 747 490 
Q 353 981 353 1791 
Q 353 2603 747 3093 
Q 1141 3584 1784 3584 
Q 2172 3584 2450 3431 
Q 2728 3278 2906 2969 
L 2906 3500 
L 3481 3500 
L 3481 434 
z
" transform="scale(0.015625)"/>
      <path id="DejaVuSans-5f" d="M 3263 -1063 
L 3263 -1509 
L -63 -1509 
L -63 -1063 
L 3263 -1063 
z
" transform="scale(0.015625)"/>
      <path id="DejaVuSans-fc" d="M 544 1381 
L 544 3500 
L 1119 3500 
L 1119 1403 
Q 1119 906 1312 657 
Q 1506 409 1894 409 
Q 2359 409 2629 706 
Q 2900 1003 2900 1516 
L 2900 3500 
L 3475 3500 
L 3475 0 
L 2900 0 
L 2900 538 
Q 2691 219 2414 64 
Q 2138 -91 1772 -91 
Q 1169 -91 856 284 
Q 544 659 544 1381 
z
M 1991 3584 
L 1991 3584 
z
M 2278 4850 
L 2912 4850 
L 2912 4219 
L 2278 4219 
L 2278 4850 
z
M 1056 4850 
L 1690 4850 
L 1690 4219 
L 1056 4219 
L 1056 4850 
z
" transform="scale(0.015625)"/>
      <path id="DejaVuSans-64" d="M 2906 2969 
L 2906 4863 
L 3481 4863 
L 3481 0 
L 2906 0 
L 2906 525 
Q 2725 213 2448 61 
Q 2172 -91 1784 -91 
Q 1150 -91 751 415 
Q 353 922 353 1747 
Q 353 2572 751 3078 
Q 1150 3584 1784 3584 
Q 2172 3584 2448 3432 
Q 2725 3281 2906 2969 
z
M 947 1747 
Q 947 1113 1208 752 
Q 1469 391 1925 391 
Q 2381 391 2643 752 
Q 2906 1113 2906 1747 
Q 2906 2381 2643 2742 
Q 2381 3103 1925 3103 
Q 1469 3103 1208 2742 
Q 947 2381 947 1747 
z
" transform="scale(0.015625)"/>
     </defs>
     <use xlink:href="#DejaVuSans-53"/>
     <use xlink:href="#DejaVuSans-63" x="63.476562"/>
     <use xlink:href="#DejaVuSans-68" x="118.457031"/>
     <use xlink:href="#DejaVuSans-f6" x="181.835938"/>
     <use xlink:href="#DejaVuSans-6e" x="243.017578"/>
     <use xlink:href="#DejaVuSans-65" x="306.396484"/>
     <use xlink:href="#DejaVuSans-62" x="367.919922"/>
     <use xlink:href="#DejaVuSans-65" x="431.396484"/>
     <use xlink:href="#DejaVuSans-72" x="492.919922"/>
     <use xlink:href="#DejaVuSans-67" x="532.283203"/>
     <use xlink:href="#DejaVuSans-5f" x="595.759766"/>
     <use xlink:href="#DejaVuSans-53" x="645.759766"/>
     <use xlink:href="#DejaVuSans-fc" x="709.236328"/>
     <use xlink:href="#DejaVuSans-64" x="772.615234"/>
    </g>
   </g>
  </g>
 </g>
 <defs>
  <clipPath id="p0f7afb3652">
   <rect x="99.886282" y="86.4" width="538.227437" height="554.4"/>
  </clipPath>
 </defs>
</svg>
