<?xml version="1.0" encoding="utf-8" standalone="no"?>
<!DOCTYPE svg PUBLIC "-//W3C//DTD SVG 1.1//EN"
  "http://www.w3.org/Graphics/SVG/1.1/DTD/svg11.dtd">
<svg xmlns:xlink="http://www.w3.org/1999/xlink" width="720pt" height="720pt" viewBox="0 0 720 720" xmlns="http://www.w3.org/2000/svg" version="1.1">
 <metadata>
  <rdf:RDF xmlns:dc="http://purl.org/dc/elements/1.1/" xmlns:cc="http://creativecommons.org/ns#" xmlns:rdf="http://www.w3.org/1999/02/22-rdf-syntax-ns#">
   <cc:Work>
    <dc:type rdf:resource="http://purl.org/dc/dcmitype/StillImage"/>
    <dc:date>2024-10-22T09:54:10.266213</dc:date>
    <dc:format>image/svg+xml</dc:format>
    <dc:creator>
     <cc:Agent>
      <dc:title>Matplotlib v3.9.2, https://matplotlib.org/</dc:title>
     </cc:Agent>
    </dc:creator>
   </cc:Work>
  </rdf:RDF>
 </metadata>
 <defs>
  <style type="text/css">*{stroke-linejoin: round; stroke-linecap: butt}</style>
 </defs>
 <g id="figure_1">
  <g id="patch_1">
   <path d="M 0 720 
L 720 720 
L 720 0 
L 0 0 
z
" style="fill: #ffffff"/>
  </g>
  <g id="axes_1">
   <g id="patch_2">
    <path d="M 90 563.310273 
L 648 563.310273 
L 648 163.889727 
L 90 163.889727 
z
" style="fill: #ffffff"/>
   </g>
   <g id="PatchCollection_1">
    <path d="M 172.482702 183.597714 
L 171.587203 184.959914 
L 171.506842 185.082138 
L 171.293221 185.407168 
L 170.843111 186.092689 
L 170.355292 186.835469 
L 170.066989 187.274239 
L 169.906276 187.519067 
L 166.813934 192.22069 
L 166.384306 192.873845 
L 165.836441 193.707436 
L 165.778781 193.795152 
L 165.230547 194.629132 
L 164.785001 195.306767 
L 164.393637 195.901892 
L 163.672971 196.99806 
L 159.448559 203.422413 
L 158.8112 204.392304 
L 157.385991 206.559595 
L 156.710367 207.587139 
L 156.033833 208.616224 
L 155.594886 209.283649 
L 155.563771 209.331072 
L 155.145338 209.967836 
L 154.776873 210.528452 
L 153.624438 212.281825 
L 153.594429 212.327894 
L 153.479482 212.50294 
L 153.129312 213.035225 
L 149.960479 217.855057 
L 148.418357 220.200682 
L 147.34738 221.829628 
L 146.451955 223.191566 
L 146.269717 223.468732 
L 144.856581 225.617979 
L 144.117061 226.740798 
L 141.204057 231.164971 
L 139.605148 233.592993 
L 136.484263 238.350061 
L 136.402814 238.474022 
L 136.131558 238.886588 
L 127.372353 252.206766 
L 126.942788 252.860318 
L 124.622163 256.389337 
L 122.753455 259.231444 
L 122.348042 259.847607 
L 120.255505 263.029996 
L 119.694015 263.885385 
L 118.112402 266.29463 
L 117.501867 267.22463 
L 115.363636 271.796753 
L 119.131191 274.270665 
L 122.331966 276.372629 
L 125.82225 278.676584 
L 126.645045 279.219405 
L 127.136997 279.542594 
L 128.429758 280.391646 
L 132.253012 282.902108 
L 132.392436 282.993444 
L 133.253266 283.559697 
L 133.374426 283.639303 
L 134.025998 284.067415 
L 134.161583 284.156562 
L 134.959704 284.681163 
L 135.156239 284.809724 
L 138.006943 286.682487 
L 140.367815 288.233721 
L 140.012791 289.221419 
L 139.086401 291.797787 
L 140.108794 295.085052 
L 141.230035 298.690171 
L 140.146666 301.73039 
L 130.679897 328.295286 
L 129.596235 331.336285 
L 128.169223 336.176959 
L 128.068803 336.629065 
L 126.959418 341.642023 
L 126.191232 341.462291 
L 125.612933 344.066336 
L 124.512357 349.05783 
L 123.398361 354.066532 
L 122.283725 359.079808 
L 121.173248 364.067548 
L 119.947253 369.583121 
L 119.587802 371.159129 
L 120.587642 371.225285 
L 120.507716 373.954533 
L 119.294088 373.873567 
L 119.374857 376.136406 
L 119.535682 380.639316 
L 119.488367 380.640788 
L 119.633876 384.716098 
L 119.779387 388.791598 
L 119.922745 392.806391 
L 120.054662 396.504564 
L 121.237579 396.461879 
L 121.241835 396.581205 
L 121.290631 397.971786 
L 121.30816 398.471104 
L 121.520931 409.095378 
L 121.920756 408.914891 
L 123.313285 408.285435 
L 127.249012 408.326369 
L 131.711698 408.414626 
L 132.16294 408.820931 
L 132.414733 409.047706 
L 139.034466 410.708126 
L 141.517455 410.798851 
L 144.257617 411.082166 
L 145.632551 411.220772 
L 145.770648 411.222145 
L 147.594097 411.238582 
L 147.809481 411.240641 
L 148.684135 411.267563 
L 151.93094 411.370432 
L 153.981323 411.388866 
L 154.107865 411.390126 
L 158.673685 411.423127 
L 159.166221 411.420132 
L 161.109092 411.441249 
L 161.289814 411.443161 
L 164.272858 411.342159 
L 165.966367 411.291756 
L 167.968571 411.306964 
L 168.079384 411.307829 
L 169.767168 411.139849 
L 172.510865 410.867053 
L 172.611452 410.867965 
L 174.782441 410.884807 
L 178.472577 409.150875 
L 179.651552 409.060699 
L 182.741779 408.826473 
L 182.931768 408.827796 
L 184.332007 408.839238 
L 184.333601 408.776546 
L 193.698273 408.853456 
L 194.406923 408.859558 
L 197.482464 408.885454 
L 198.574896 408.894883 
L 199.144516 408.900199 
L 201.45766 408.921808 
L 203.547659 408.94153 
L 206.769922 408.965032 
L 207.358643 408.969154 
L 208.668305 408.978538 
L 209.938576 408.988069 
L 210.376521 408.991293 
L 212.694677 409.008448 
L 213.164066 409.011899 
L 213.772116 409.016531 
L 214.350993 409.020884 
L 218.453957 409.054185 
L 220.225277 409.068546 
L 221.192862 409.076313 
L 221.844105 409.081477 
L 223.817925 409.097648 
L 233.358379 408.61253 
L 233.011311 409.337427 
L 232.96032 409.443213 
L 232.295997 410.830048 
L 231.93283 411.587972 
L 231.575817 412.333413 
L 230.215371 415.173698 
L 229.816071 416.007829 
L 229.124088 417.45188 
L 226.757542 422.393343 
L 225.444107 425.134775 
L 225.273464 425.490893 
L 223.376268 430.780807 
L 223.215347 437.701642 
L 223.137527 440.975173 
L 223.894487 440.991389 
L 223.794337 445.202033 
L 223.74951 446.372818 
L 223.730243 447.89958 
L 223.6098 452.838061 
L 223.563265 454.762646 
L 223.459893 459.105701 
L 223.405179 461.459567 
L 223.294274 466.293215 
L 223.251155 468.218101 
L 223.139671 473.150682 
L 222.948174 481.277291 
L 222.780828 488.405608 
L 222.663795 493.343823 
L 222.527411 499.183579 
L 222.231074 511.969405 
L 222.202956 513.034241 
L 226.411371 512.788138 
L 232.623517 512.426359 
L 233.182923 512.393577 
L 233.254028 512.389286 
L 233.362577 513.062521 
L 236.721969 512.514331 
L 240.081365 511.966154 
L 241.282417 511.770174 
L 243.44982 511.416451 
L 252.779386 509.893059 
L 256.636497 509.263274 
L 260.133063 508.692087 
L 260.754337 508.590312 
L 263.909392 508.073678 
L 267.360668 507.509063 
L 267.860825 507.427347 
L 273.732145 506.467231 
L 278.774962 505.639295 
L 280.328793 505.383639 
L 281.890545 505.126475 
L 285.259443 504.585839 
L 289.418161 503.901626 
L 290.004703 503.804462 
L 293.741851 503.185174 
L 298.508347 502.421012 
L 305.009761 501.352498 
L 311.815114 500.191637 
L 312.794131 500.031968 
L 315.710854 499.550013 
L 316.536821 499.413594 
L 318.348362 499.114325 
L 321.107931 498.658195 
L 321.503745 498.592754 
L 323.768437 498.218494 
L 325.805264 497.881896 
L 326.354423 497.789408 
L 331.65765 496.891823 
L 335.188853 496.29089 
L 337.631205 495.874906 
L 337.647507 495.184188 
L 342.290913 494.425153 
L 342.756929 494.348814 
L 348.683808 494.043507 
L 349.08702 493.978478 
L 352.776507 493.383491 
L 355.724852 492.907965 
L 362.781009 491.770044 
L 363.579386 491.635626 
L 366.403035 491.130704 
L 371.630519 490.046542 
L 381.674751 487.960962 
L 382.639989 487.76048 
L 387.667846 486.706973 
L 390.322125 486.15605 
L 403.624109 483.39535 
L 406.331561 482.83339 
L 408.153874 482.455258 
L 413.169009 481.41452 
L 414.686401 480.349391 
L 421.445454 483.596378 
L 422.228926 484.024157 
L 420.474532 487.234627 
L 419.803542 488.462371 
L 421.347364 490.055964 
L 422.005254 490.672591 
L 422.060241 490.742539 
L 422.209526 490.837111 
L 418.512889 494.731252 
L 421.052478 497.286546 
L 421.47688 497.713954 
L 423.927497 500.179386 
L 427.272621 503.545313 
L 428.969411 505.253266 
L 429.277339 505.563333 
L 430.462884 506.755288 
L 434.132752 510.448582 
L 434.564098 510.882103 
L 437.390666 513.69916 
L 440.434141 516.790837 
L 443.468917 519.88093 
L 445.219362 521.226312 
L 450.055068 524.943046 
L 460.542847 534.42423 
L 461.025414 534.862865 
L 461.087286 534.936076 
L 461.13892 535.017115 
L 461.57991 535.115889 
L 464.857717 535.706747 
L 464.894703 535.706838 
L 467.798329 535.713978 
L 471.315415 535.731702 
L 471.502023 535.758476 
L 475.152001 535.751299 
L 476.733374 535.759258 
L 479.711471 535.77444 
L 482.608574 535.800393 
L 485.674708 535.806381 
L 488.763562 535.812243 
L 492.024722 535.817435 
L 495.300168 535.817948 
L 499.5822 535.83191 
L 503.238955 535.837664 
L 505.960769 535.841273 
L 508.803512 535.849934 
L 512.958047 535.861532 
L 515.857175 535.868177 
L 516.215276 535.868797 
L 519.996961 535.872356 
L 520.220424 535.924207 
L 524.216866 536.709381 
L 527.521645 537.364943 
L 532.307427 538.314501 
L 544.333812 540.690709 
L 544.642641 540.731757 
L 545.443614 540.873309 
L 546.272318 540.99335 
L 546.737145 541.049166 
L 546.840428 541.061568 
L 548.382034 541.196239 
L 548.572721 541.213 
L 549.231522 541.26379 
L 554.02056 541.669805 
L 560.343163 542.206921 
L 572.766365 543.262187 
L 580.20108 543.892404 
L 579.91059 544.709495 
L 584.403439 545.107359 
L 584.942861 545.154794 
L 585.069072 543.709168 
L 585.285748 541.224464 
L 585.37795 540.169967 
L 587.927223 535.27467 
L 590.999369 529.367943 
L 591.189243 529.002725 
L 591.907928 527.621759 
L 593.359656 524.832734 
L 593.857061 523.877123 
L 600.742005 510.639548 
L 600.813935 510.629761 
L 608.024085 509.714654 
L 609.331369 509.548843 
L 609.619109 503.029267 
L 609.677444 501.713145 
L 609.727033 500.589553 
L 609.813329 498.637516 
L 609.832303 498.208755 
L 609.951452 495.518167 
L 610.001711 494.382218 
L 610.308684 487.91765 
L 610.57396 487.451817 
L 612.762135 483.677149 
L 615.537338 478.887149 
L 615.844542 478.356958 
L 617.225234 475.974173 
L 618.497061 473.778014 
L 620.870884 469.682298 
L 622.250887 467.301436 
L 622.636364 462.163011 
L 622.022961 461.960204 
L 621.175074 461.679903 
L 619.767586 461.214571 
L 618.876377 460.91949 
L 618.392333 460.759526 
L 617.889208 460.593157 
L 617.610833 460.500895 
L 616.537602 460.145556 
L 615.78949 459.897946 
L 614.243273 459.386006 
L 610.873037 458.27043 
L 610.596378 458.1787 
L 609.669296 457.871906 
L 605.21722 456.397988 
L 605.114378 456.363855 
L 604.294359 456.093763 
L 604.21136 456.066206 
L 604.13046 456.039362 
L 602.297068 455.431965 
L 600.070264 454.695038 
L 596.638374 453.55945 
L 595.013528 453.021597 
L 594.738208 452.930601 
L 592.400728 452.157079 
L 591.67874 451.918011 
L 591.173884 451.750937 
L 590.437971 451.507438 
L 589.519841 451.2035 
L 588.678412 450.924981 
L 586.552899 450.221494 
L 581.664589 448.60375 
L 579.469998 447.877537 
L 578.864204 447.677054 
L 577.418885 447.198781 
L 577.103121 447.094844 
L 576.251 446.812781 
L 572.395854 445.537232 
L 569.231403 444.490255 
L 568.7294 444.324077 
L 567.003592 443.75305 
L 566.771193 443.676092 
L 565.860485 443.374478 
L 564.865829 443.045333 
L 562.947066 442.416779 
L 561.349714 441.882161 
L 558.63306 440.983632 
L 557.834738 440.719545 
L 556.809741 440.380463 
L 553.656323 439.337276 
L 553.764034 436.044312 
L 553.246404 435.874129 
L 545.952332 433.462864 
L 541.993532 432.163776 
L 538.049766 430.86835 
L 534.090902 429.567398 
L 530.114897 428.262673 
L 529.167785 431.247322 
L 525.419198 430.008287 
L 524.960293 429.855967 
L 523.308866 429.310486 
L 523.286733 429.303203 
L 522.217066 428.949602 
L 520.700348 428.448731 
L 519.652056 428.102433 
L 519.226939 427.962071 
L 519.175231 427.945015 
L 518.502635 427.722732 
L 518.357237 427.674573 
L 517.513108 427.3958 
L 516.969307 427.216168 
L 518.183298 424.242928 
L 518.792495 422.702623 
L 519.213727 421.435423 
L 519.97266 419.152397 
L 521.676756 414.025637 
L 521.657066 413.925076 
L 521.141781 411.279984 
L 519.883914 404.821022 
L 519.54101 403.060209 
L 519.509961 402.901047 
L 519.706251 399.367224 
L 519.943101 395.103595 
L 520.369067 387.432944 
L 520.99711 376.123156 
L 521.120092 373.857195 
L 521.345731 369.700715 
L 521.367494 369.296572 
L 521.808389 361.169723 
L 521.868199 360.067159 
L 522.363962 351.391121 
L 522.373099 351.233517 
L 522.457838 349.749522 
L 522.468011 349.57063 
L 522.923397 341.598574 
L 526.342272 337.183713 
L 527.215217 336.056471 
L 530.531971 331.82336 
L 534.780451 326.312463 
L 535.442004 320.68531 
L 536.283108 313.384054 
L 536.413565 312.246856 
L 533.848762 310.254004 
L 532.107374 312.467173 
L 531.635048 313.066822 
L 525.938179 312.327374 
L 524.407626 312.128692 
L 524.012039 312.040251 
L 522.214195 311.638396 
L 521.385137 311.453071 
L 515.777421 310.199413 
L 515.200794 310.070649 
L 514.030588 309.80895 
L 511.717589 309.291769 
L 511.320671 309.203174 
L 511.241475 309.185412 
L 510.259921 308.965769 
L 509.354516 308.763198 
L 508.45254 308.5615 
L 506.181622 308.054391 
L 505.767944 307.961811 
L 505.659818 307.937871 
L 505.580244 307.920118 
L 505.181414 307.830809 
L 504.717862 307.727209 
L 503.689472 307.497053 
L 502.848412 307.308978 
L 501.791849 307.072628 
L 500.792397 306.849034 
L 495.911666 305.758435 
L 492.427294 304.979654 
L 488.353863 304.084192 
L 487.934473 303.99042 
L 487.195457 303.825676 
L 484.537678 303.232086 
L 483.598961 303.022701 
L 483.179952 302.929113 
L 481.752731 302.610251 
L 479.759723 302.165062 
L 479.323964 302.067868 
L 479.200602 302.04029 
L 479.113222 302.020818 
L 478.727148 301.934649 
L 476.657811 301.472972 
L 475.293221 301.168267 
L 473.431185 300.752395 
L 472.03861 300.441496 
L 467.978273 299.54051 
L 467.743548 299.488311 
L 463.89707 298.630142 
L 463.761531 298.600185 
L 463.289021 298.49453 
L 463.106834 298.45386 
L 462.164682 298.243815 
L 461.121058 298.011015 
L 459.996339 297.760311 
L 459.061983 297.551612 
L 458.927962 297.52181 
L 458.445176 297.414113 
L 458.318199 297.38586 
L 456.92733 297.075514 
L 456.431408 296.964888 
L 455.088516 296.665417 
L 454.160065 296.458297 
L 452.653261 296.122302 
L 452.077951 295.993927 
L 450.489474 295.639666 
L 443.971869 293.509635 
L 441.747602 292.464119 
L 441.613586 292.401093 
L 439.769725 291.534329 
L 439.576549 291.44341 
L 438.052795 290.727337 
L 435.178735 289.376693 
L 434.968519 289.277808 
L 429.868234 286.880401 
L 429.097061 286.517837 
L 424.405306 284.312423 
L 421.937277 283.152507 
L 416.051586 280.386487 
L 411.422382 278.202497 
L 408.753587 276.936117 
L 405.516669 275.399976 
L 402.637636 274.059798 
L 402.229489 273.869738 
L 399.381843 272.544234 
L 398.607234 272.181584 
L 398.234862 272.007229 
L 394.152939 270.096412 
L 392.933773 269.525553 
L 386.89895 266.706156 
L 386.353894 266.451442 
L 384.731559 265.693656 
L 384.426005 265.550819 
L 384.026257 265.363993 
L 383.561615 265.147129 
L 383.264868 265.008458 
L 382.784903 264.78416 
L 380.981629 263.932915 
L 380.459681 263.686601 
L 380.118269 263.524648 
L 379.767022 263.371652 
L 379.725946 263.289429 
L 379.672168 263.215089 
L 379.607048 263.150122 
L 379.532532 263.09676 
L 379.450344 263.055915 
L 374.77626 261.197228 
L 374.54497 261.105103 
L 367.262175 258.204367 
L 360.614351 255.557094 
L 353.322301 252.653071 
L 351.331834 251.860458 
L 350.977631 251.719502 
L 348.837301 250.867472 
L 343.978965 248.933404 
L 339.417866 247.109907 
L 336.800876 246.072474 
L 330.126856 243.413866 
L 321.546582 239.996335 
L 317.297605 238.315992 
L 312.089612 236.255663 
L 300.635094 231.709835 
L 300.65974 232.500623 
L 299.83685 232.175424 
L 294.956003 230.243267 
L 285.397413 226.458106 
L 272.911129 221.502222 
L 267.480628 219.345665 
L 266.269044 218.864413 
L 264.916958 218.327527 
L 259.049611 215.997436 
L 246.137771 210.859147 
L 187.58738 187.631348 
L 173.504742 182.045206 
L 172.482702 183.597714 
" clip-path="url(#pc19262774d)" style="fill: #d3d3d3"/>
   </g>
   <g id="matplotlib.axis_1">
    <g id="xtick_1">
     <g id="line2d_1">
      <defs>
       <path id="mc7be0eb14d" d="M 0 0 
L 0 3.5 
" style="stroke: #000000; stroke-width: 0.8"/>
      </defs>
      <g>
       <use xlink:href="#mc7be0eb14d" x="154.212753" y="563.310273" style="stroke: #000000; stroke-width: 0.8"/>
      </g>
     </g>
     <g id="text_1">
      <!-- 13.340 -->
      <g transform="translate(136.71744 577.908711) scale(0.1 -0.1)">
       <defs>
        <path id="DejaVuSans-31" d="M 794 531 
L 1825 531 
L 1825 4091 
L 703 3866 
L 703 4441 
L 1819 4666 
L 2450 4666 
L 2450 531 
L 3481 531 
L 3481 0 
L 794 0 
L 794 531 
z
" transform="scale(0.015625)"/>
        <path id="DejaVuSans-33" d="M 2597 2516 
Q 3050 2419 3304 2112 
Q 3559 1806 3559 1356 
Q 3559 666 3084 287 
Q 2609 -91 1734 -91 
Q 1441 -91 1130 -33 
Q 819 25 488 141 
L 488 750 
Q 750 597 1062 519 
Q 1375 441 1716 441 
Q 2309 441 2620 675 
Q 2931 909 2931 1356 
Q 2931 1769 2642 2001 
Q 2353 2234 1838 2234 
L 1294 2234 
L 1294 2753 
L 1863 2753 
Q 2328 2753 2575 2939 
Q 2822 3125 2822 3475 
Q 2822 3834 2567 4026 
Q 2313 4219 1838 4219 
Q 1578 4219 1281 4162 
Q 984 4106 628 3988 
L 628 4550 
Q 988 4650 1302 4700 
Q 1616 4750 1894 4750 
Q 2613 4750 3031 4423 
Q 3450 4097 3450 3541 
Q 3450 3153 3228 2886 
Q 3006 2619 2597 2516 
z
" transform="scale(0.015625)"/>
        <path id="DejaVuSans-2e" d="M 684 794 
L 1344 794 
L 1344 0 
L 684 0 
L 684 794 
z
" transform="scale(0.015625)"/>
        <path id="DejaVuSans-34" d="M 2419 4116 
L 825 1625 
L 2419 1625 
L 2419 4116 
z
M 2253 4666 
L 3047 4666 
L 3047 1625 
L 3713 1625 
L 3713 1100 
L 3047 1100 
L 3047 0 
L 2419 0 
L 2419 1100 
L 313 1100 
L 313 1709 
L 2253 4666 
z
" transform="scale(0.015625)"/>
        <path id="DejaVuSans-30" d="M 2034 4250 
Q 1547 4250 1301 3770 
Q 1056 3291 1056 2328 
Q 1056 1369 1301 889 
Q 1547 409 2034 409 
Q 2525 409 2770 889 
Q 3016 1369 3016 2328 
Q 3016 3291 2770 3770 
Q 2525 4250 2034 4250 
z
M 2034 4750 
Q 2819 4750 3233 4129 
Q 3647 3509 3647 2328 
Q 3647 1150 3233 529 
Q 2819 -91 2034 -91 
Q 1250 -91 836 529 
Q 422 1150 422 2328 
Q 422 3509 836 4129 
Q 1250 4750 2034 4750 
z
" transform="scale(0.015625)"/>
       </defs>
       <use xlink:href="#DejaVuSans-31"/>
       <use xlink:href="#DejaVuSans-33" x="63.623047"/>
       <use xlink:href="#DejaVuSans-2e" x="127.246094"/>
       <use xlink:href="#DejaVuSans-33" x="159.033203"/>
       <use xlink:href="#DejaVuSans-34" x="222.65625"/>
       <use xlink:href="#DejaVuSans-30" x="286.279297"/>
      </g>
     </g>
    </g>
    <g id="xtick_2">
     <g id="line2d_2">
      <g>
       <use xlink:href="#mc7be0eb14d" x="218.496402" y="563.310273" style="stroke: #000000; stroke-width: 0.8"/>
      </g>
     </g>
     <g id="text_2">
      <!-- 13.345 -->
      <g transform="translate(201.001089 577.908711) scale(0.1 -0.1)">
       <defs>
        <path id="DejaVuSans-35" d="M 691 4666 
L 3169 4666 
L 3169 4134 
L 1269 4134 
L 1269 2991 
Q 1406 3038 1543 3061 
Q 1681 3084 1819 3084 
Q 2600 3084 3056 2656 
Q 3513 2228 3513 1497 
Q 3513 744 3044 326 
Q 2575 -91 1722 -91 
Q 1428 -91 1123 -41 
Q 819 9 494 109 
L 494 744 
Q 775 591 1075 516 
Q 1375 441 1709 441 
Q 2250 441 2565 725 
Q 2881 1009 2881 1497 
Q 2881 1984 2565 2268 
Q 2250 2553 1709 2553 
Q 1456 2553 1204 2497 
Q 953 2441 691 2322 
L 691 4666 
z
" transform="scale(0.015625)"/>
       </defs>
       <use xlink:href="#DejaVuSans-31"/>
       <use xlink:href="#DejaVuSans-33" x="63.623047"/>
       <use xlink:href="#DejaVuSans-2e" x="127.246094"/>
       <use xlink:href="#DejaVuSans-33" x="159.033203"/>
       <use xlink:href="#DejaVuSans-34" x="222.65625"/>
       <use xlink:href="#DejaVuSans-35" x="286.279297"/>
      </g>
     </g>
    </g>
    <g id="xtick_3">
     <g id="line2d_3">
      <g>
       <use xlink:href="#mc7be0eb14d" x="282.78005" y="563.310273" style="stroke: #000000; stroke-width: 0.8"/>
      </g>
     </g>
     <g id="text_3">
      <!-- 13.350 -->
      <g transform="translate(265.284738 577.908711) scale(0.1 -0.1)">
       <use xlink:href="#DejaVuSans-31"/>
       <use xlink:href="#DejaVuSans-33" x="63.623047"/>
       <use xlink:href="#DejaVuSans-2e" x="127.246094"/>
       <use xlink:href="#DejaVuSans-33" x="159.033203"/>
       <use xlink:href="#DejaVuSans-35" x="222.65625"/>
       <use xlink:href="#DejaVuSans-30" x="286.279297"/>
      </g>
     </g>
    </g>
    <g id="xtick_4">
     <g id="line2d_4">
      <g>
       <use xlink:href="#mc7be0eb14d" x="347.063699" y="563.310273" style="stroke: #000000; stroke-width: 0.8"/>
      </g>
     </g>
     <g id="text_4">
      <!-- 13.355 -->
      <g transform="translate(329.568387 577.908711) scale(0.1 -0.1)">
       <use xlink:href="#DejaVuSans-31"/>
       <use xlink:href="#DejaVuSans-33" x="63.623047"/>
       <use xlink:href="#DejaVuSans-2e" x="127.246094"/>
       <use xlink:href="#DejaVuSans-33" x="159.033203"/>
       <use xlink:href="#DejaVuSans-35" x="222.65625"/>
       <use xlink:href="#DejaVuSans-35" x="286.279297"/>
      </g>
     </g>
    </g>
    <g id="xtick_5">
     <g id="line2d_5">
      <g>
       <use xlink:href="#mc7be0eb14d" x="411.347348" y="563.310273" style="stroke: #000000; stroke-width: 0.8"/>
      </g>
     </g>
     <g id="text_5">
      <!-- 13.360 -->
      <g transform="translate(393.852036 577.908711) scale(0.1 -0.1)">
       <defs>
        <path id="DejaVuSans-36" d="M 2113 2584 
Q 1688 2584 1439 2293 
Q 1191 2003 1191 1497 
Q 1191 994 1439 701 
Q 1688 409 2113 409 
Q 2538 409 2786 701 
Q 3034 994 3034 1497 
Q 3034 2003 2786 2293 
Q 2538 2584 2113 2584 
z
M 3366 4563 
L 3366 3988 
Q 3128 4100 2886 4159 
Q 2644 4219 2406 4219 
Q 1781 4219 1451 3797 
Q 1122 3375 1075 2522 
Q 1259 2794 1537 2939 
Q 1816 3084 2150 3084 
Q 2853 3084 3261 2657 
Q 3669 2231 3669 1497 
Q 3669 778 3244 343 
Q 2819 -91 2113 -91 
Q 1303 -91 875 529 
Q 447 1150 447 2328 
Q 447 3434 972 4092 
Q 1497 4750 2381 4750 
Q 2619 4750 2861 4703 
Q 3103 4656 3366 4563 
z
" transform="scale(0.015625)"/>
       </defs>
       <use xlink:href="#DejaVuSans-31"/>
       <use xlink:href="#DejaVuSans-33" x="63.623047"/>
       <use xlink:href="#DejaVuSans-2e" x="127.246094"/>
       <use xlink:href="#DejaVuSans-33" x="159.033203"/>
       <use xlink:href="#DejaVuSans-36" x="222.65625"/>
       <use xlink:href="#DejaVuSans-30" x="286.279297"/>
      </g>
     </g>
    </g>
    <g id="xtick_6">
     <g id="line2d_6">
      <g>
       <use xlink:href="#mc7be0eb14d" x="475.630997" y="563.310273" style="stroke: #000000; stroke-width: 0.8"/>
      </g>
     </g>
     <g id="text_6">
      <!-- 13.365 -->
      <g transform="translate(458.135684 577.908711) scale(0.1 -0.1)">
       <use xlink:href="#DejaVuSans-31"/>
       <use xlink:href="#DejaVuSans-33" x="63.623047"/>
       <use xlink:href="#DejaVuSans-2e" x="127.246094"/>
       <use xlink:href="#DejaVuSans-33" x="159.033203"/>
       <use xlink:href="#DejaVuSans-36" x="222.65625"/>
       <use xlink:href="#DejaVuSans-35" x="286.279297"/>
      </g>
     </g>
    </g>
    <g id="xtick_7">
     <g id="line2d_7">
      <g>
       <use xlink:href="#mc7be0eb14d" x="539.914646" y="563.310273" style="stroke: #000000; stroke-width: 0.8"/>
      </g>
     </g>
     <g id="text_7">
      <!-- 13.370 -->
      <g transform="translate(522.419333 577.908711) scale(0.1 -0.1)">
       <defs>
        <path id="DejaVuSans-37" d="M 525 4666 
L 3525 4666 
L 3525 4397 
L 1831 0 
L 1172 0 
L 2766 4134 
L 525 4134 
L 525 4666 
z
" transform="scale(0.015625)"/>
       </defs>
       <use xlink:href="#DejaVuSans-31"/>
       <use xlink:href="#DejaVuSans-33" x="63.623047"/>
       <use xlink:href="#DejaVuSans-2e" x="127.246094"/>
       <use xlink:href="#DejaVuSans-33" x="159.033203"/>
       <use xlink:href="#DejaVuSans-37" x="222.65625"/>
       <use xlink:href="#DejaVuSans-30" x="286.279297"/>
      </g>
     </g>
    </g>
    <g id="xtick_8">
     <g id="line2d_8">
      <g>
       <use xlink:href="#mc7be0eb14d" x="604.198295" y="563.310273" style="stroke: #000000; stroke-width: 0.8"/>
      </g>
     </g>
     <g id="text_8">
      <!-- 13.375 -->
      <g transform="translate(586.702982 577.908711) scale(0.1 -0.1)">
       <use xlink:href="#DejaVuSans-31"/>
       <use xlink:href="#DejaVuSans-33" x="63.623047"/>
       <use xlink:href="#DejaVuSans-2e" x="127.246094"/>
       <use xlink:href="#DejaVuSans-33" x="159.033203"/>
       <use xlink:href="#DejaVuSans-37" x="222.65625"/>
       <use xlink:href="#DejaVuSans-35" x="286.279297"/>
      </g>
     </g>
    </g>
   </g>
   <g id="matplotlib.axis_2">
    <g id="ytick_1">
     <g id="line2d_9">
      <defs>
       <path id="me0a585a811" d="M 0 0 
L -3.5 0 
" style="stroke: #000000; stroke-width: 0.8"/>
      </defs>
      <g>
       <use xlink:href="#me0a585a811" x="90" y="550.346312" style="stroke: #000000; stroke-width: 0.8"/>
      </g>
     </g>
     <g id="text_9">
      <!-- 52.4875 -->
      <g transform="translate(41.646875 554.14553) scale(0.1 -0.1)">
       <defs>
        <path id="DejaVuSans-32" d="M 1228 531 
L 3431 531 
L 3431 0 
L 469 0 
L 469 531 
Q 828 903 1448 1529 
Q 2069 2156 2228 2338 
Q 2531 2678 2651 2914 
Q 2772 3150 2772 3378 
Q 2772 3750 2511 3984 
Q 2250 4219 1831 4219 
Q 1534 4219 1204 4116 
Q 875 4013 500 3803 
L 500 4441 
Q 881 4594 1212 4672 
Q 1544 4750 1819 4750 
Q 2544 4750 2975 4387 
Q 3406 4025 3406 3419 
Q 3406 3131 3298 2873 
Q 3191 2616 2906 2266 
Q 2828 2175 2409 1742 
Q 1991 1309 1228 531 
z
" transform="scale(0.015625)"/>
        <path id="DejaVuSans-38" d="M 2034 2216 
Q 1584 2216 1326 1975 
Q 1069 1734 1069 1313 
Q 1069 891 1326 650 
Q 1584 409 2034 409 
Q 2484 409 2743 651 
Q 3003 894 3003 1313 
Q 3003 1734 2745 1975 
Q 2488 2216 2034 2216 
z
M 1403 2484 
Q 997 2584 770 2862 
Q 544 3141 544 3541 
Q 544 4100 942 4425 
Q 1341 4750 2034 4750 
Q 2731 4750 3128 4425 
Q 3525 4100 3525 3541 
Q 3525 3141 3298 2862 
Q 3072 2584 2669 2484 
Q 3125 2378 3379 2068 
Q 3634 1759 3634 1313 
Q 3634 634 3220 271 
Q 2806 -91 2034 -91 
Q 1263 -91 848 271 
Q 434 634 434 1313 
Q 434 1759 690 2068 
Q 947 2378 1403 2484 
z
M 1172 3481 
Q 1172 3119 1398 2916 
Q 1625 2713 2034 2713 
Q 2441 2713 2670 2916 
Q 2900 3119 2900 3481 
Q 2900 3844 2670 4047 
Q 2441 4250 2034 4250 
Q 1625 4250 1398 4047 
Q 1172 3844 1172 3481 
z
" transform="scale(0.015625)"/>
       </defs>
       <use xlink:href="#DejaVuSans-35"/>
       <use xlink:href="#DejaVuSans-32" x="63.623047"/>
       <use xlink:href="#DejaVuSans-2e" x="127.246094"/>
       <use xlink:href="#DejaVuSans-34" x="159.033203"/>
       <use xlink:href="#DejaVuSans-38" x="222.65625"/>
       <use xlink:href="#DejaVuSans-37" x="286.279297"/>
       <use xlink:href="#DejaVuSans-35" x="349.902344"/>
      </g>
     </g>
    </g>
    <g id="ytick_2">
     <g id="line2d_10">
      <g>
       <use xlink:href="#me0a585a811" x="90" y="497.554419" style="stroke: #000000; stroke-width: 0.8"/>
      </g>
     </g>
     <g id="text_10">
      <!-- 52.4900 -->
      <g transform="translate(41.646875 501.353638) scale(0.1 -0.1)">
       <defs>
        <path id="DejaVuSans-39" d="M 703 97 
L 703 672 
Q 941 559 1184 500 
Q 1428 441 1663 441 
Q 2288 441 2617 861 
Q 2947 1281 2994 2138 
Q 2813 1869 2534 1725 
Q 2256 1581 1919 1581 
Q 1219 1581 811 2004 
Q 403 2428 403 3163 
Q 403 3881 828 4315 
Q 1253 4750 1959 4750 
Q 2769 4750 3195 4129 
Q 3622 3509 3622 2328 
Q 3622 1225 3098 567 
Q 2575 -91 1691 -91 
Q 1453 -91 1209 -44 
Q 966 3 703 97 
z
M 1959 2075 
Q 2384 2075 2632 2365 
Q 2881 2656 2881 3163 
Q 2881 3666 2632 3958 
Q 2384 4250 1959 4250 
Q 1534 4250 1286 3958 
Q 1038 3666 1038 3163 
Q 1038 2656 1286 2365 
Q 1534 2075 1959 2075 
z
" transform="scale(0.015625)"/>
       </defs>
       <use xlink:href="#DejaVuSans-35"/>
       <use xlink:href="#DejaVuSans-32" x="63.623047"/>
       <use xlink:href="#DejaVuSans-2e" x="127.246094"/>
       <use xlink:href="#DejaVuSans-34" x="159.033203"/>
       <use xlink:href="#DejaVuSans-39" x="222.65625"/>
       <use xlink:href="#DejaVuSans-30" x="286.279297"/>
       <use xlink:href="#DejaVuSans-30" x="349.902344"/>
      </g>
     </g>
    </g>
    <g id="ytick_3">
     <g id="line2d_11">
      <g>
       <use xlink:href="#me0a585a811" x="90" y="444.762527" style="stroke: #000000; stroke-width: 0.8"/>
      </g>
     </g>
     <g id="text_11">
      <!-- 52.4925 -->
      <g transform="translate(41.646875 448.561746) scale(0.1 -0.1)">
       <use xlink:href="#DejaVuSans-35"/>
       <use xlink:href="#DejaVuSans-32" x="63.623047"/>
       <use xlink:href="#DejaVuSans-2e" x="127.246094"/>
       <use xlink:href="#DejaVuSans-34" x="159.033203"/>
       <use xlink:href="#DejaVuSans-39" x="222.65625"/>
       <use xlink:href="#DejaVuSans-32" x="286.279297"/>
       <use xlink:href="#DejaVuSans-35" x="349.902344"/>
      </g>
     </g>
    </g>
    <g id="ytick_4">
     <g id="line2d_12">
      <g>
       <use xlink:href="#me0a585a811" x="90" y="391.970634" style="stroke: #000000; stroke-width: 0.8"/>
      </g>
     </g>
     <g id="text_12">
      <!-- 52.4950 -->
      <g transform="translate(41.646875 395.769853) scale(0.1 -0.1)">
       <use xlink:href="#DejaVuSans-35"/>
       <use xlink:href="#DejaVuSans-32" x="63.623047"/>
       <use xlink:href="#DejaVuSans-2e" x="127.246094"/>
       <use xlink:href="#DejaVuSans-34" x="159.033203"/>
       <use xlink:href="#DejaVuSans-39" x="222.65625"/>
       <use xlink:href="#DejaVuSans-35" x="286.279297"/>
       <use xlink:href="#DejaVuSans-30" x="349.902344"/>
      </g>
     </g>
    </g>
    <g id="ytick_5">
     <g id="line2d_13">
      <g>
       <use xlink:href="#me0a585a811" x="90" y="339.178742" style="stroke: #000000; stroke-width: 0.8"/>
      </g>
     </g>
     <g id="text_13">
      <!-- 52.4975 -->
      <g transform="translate(41.646875 342.977961) scale(0.1 -0.1)">
       <use xlink:href="#DejaVuSans-35"/>
       <use xlink:href="#DejaVuSans-32" x="63.623047"/>
       <use xlink:href="#DejaVuSans-2e" x="127.246094"/>
       <use xlink:href="#DejaVuSans-34" x="159.033203"/>
       <use xlink:href="#DejaVuSans-39" x="222.65625"/>
       <use xlink:href="#DejaVuSans-37" x="286.279297"/>
       <use xlink:href="#DejaVuSans-35" x="349.902344"/>
      </g>
     </g>
    </g>
    <g id="ytick_6">
     <g id="line2d_14">
      <g>
       <use xlink:href="#me0a585a811" x="90" y="286.38685" style="stroke: #000000; stroke-width: 0.8"/>
      </g>
     </g>
     <g id="text_14">
      <!-- 52.5000 -->
      <g transform="translate(41.646875 290.186068) scale(0.1 -0.1)">
       <use xlink:href="#DejaVuSans-35"/>
       <use xlink:href="#DejaVuSans-32" x="63.623047"/>
       <use xlink:href="#DejaVuSans-2e" x="127.246094"/>
       <use xlink:href="#DejaVuSans-35" x="159.033203"/>
       <use xlink:href="#DejaVuSans-30" x="222.65625"/>
       <use xlink:href="#DejaVuSans-30" x="286.279297"/>
       <use xlink:href="#DejaVuSans-30" x="349.902344"/>
      </g>
     </g>
    </g>
    <g id="ytick_7">
     <g id="line2d_15">
      <g>
       <use xlink:href="#me0a585a811" x="90" y="233.594957" style="stroke: #000000; stroke-width: 0.8"/>
      </g>
     </g>
     <g id="text_15">
      <!-- 52.5025 -->
      <g transform="translate(41.646875 237.394176) scale(0.1 -0.1)">
       <use xlink:href="#DejaVuSans-35"/>
       <use xlink:href="#DejaVuSans-32" x="63.623047"/>
       <use xlink:href="#DejaVuSans-2e" x="127.246094"/>
       <use xlink:href="#DejaVuSans-35" x="159.033203"/>
       <use xlink:href="#DejaVuSans-30" x="222.65625"/>
       <use xlink:href="#DejaVuSans-32" x="286.279297"/>
       <use xlink:href="#DejaVuSans-35" x="349.902344"/>
      </g>
     </g>
    </g>
    <g id="ytick_8">
     <g id="line2d_16">
      <g>
       <use xlink:href="#me0a585a811" x="90" y="180.803065" style="stroke: #000000; stroke-width: 0.8"/>
      </g>
     </g>
     <g id="text_16">
      <!-- 52.5050 -->
      <g transform="translate(41.646875 184.602284) scale(0.1 -0.1)">
       <use xlink:href="#DejaVuSans-35"/>
       <use xlink:href="#DejaVuSans-32" x="63.623047"/>
       <use xlink:href="#DejaVuSans-2e" x="127.246094"/>
       <use xlink:href="#DejaVuSans-35" x="159.033203"/>
       <use xlink:href="#DejaVuSans-30" x="222.65625"/>
       <use xlink:href="#DejaVuSans-35" x="286.279297"/>
       <use xlink:href="#DejaVuSans-30" x="349.902344"/>
      </g>
     </g>
    </g>
   </g>
   <g id="LineCollection_1">
    <path d="M 165.759382 375.560803 
L 165.472677 382.307606 
L 165.572959 383.162835 
" clip-path="url(#pc19262774d)" style="fill: none; stroke: #ff0000; stroke-opacity: 0.7; stroke-width: 0.5"/>
    <path d="M 178.024702 368.448679 
L 177.511718 368.531034 
L 176.015195 369.063176 
L 170.133241 372.370061 
L 167.336902 373.998163 
L 166.017802 375.30529 
L 165.998517 375.324295 
L 165.759382 375.560803 
" clip-path="url(#pc19262774d)" style="fill: none; stroke: #ff0000; stroke-opacity: 0.7; stroke-width: 0.5"/>
    <path d="M 165.572959 383.162835 
L 166.111656 383.416236 
L 168.635432 383.754104 
L 177.225013 384.607221 
L 178.18284 384.763485 
" clip-path="url(#pc19262774d)" style="fill: none; stroke: #ff0000; stroke-opacity: 0.7; stroke-width: 0.5"/>
    <path d="M 178.18284 384.763485 
L 178.71768 384.484744 
L 190.938001 377.879423 
" clip-path="url(#pc19262774d)" style="fill: none; stroke: #ff0000; stroke-opacity: 0.7; stroke-width: 0.5"/>
    <path d="M 348.485654 286.695154 
L 350.060603 285.814586 
L 350.640441 284.781976 
L 350.889862 284.306849 
L 351.566126 283.580433 
L 364.250576 276.846299 
L 372.689733 272.346318 
" clip-path="url(#pc19262774d)" style="fill: none; stroke: #ff0000; stroke-opacity: 0.7; stroke-width: 0.5"/>
    <path d="M 167.221192 375.672721 
L 166.742922 376.519503 
L 166.714637 376.886935 
L 166.469073 380.033332 
L 166.723636 381.160967 
L 166.862489 381.448154 
L 166.997485 381.724784 
L 167.452613 382.233698 
L 168.035023 382.672926 
L 168.987707 382.907322 
L 177.300868 383.54716 
L 178.101842 383.492257 
L 178.884817 383.401454 
L 179.795074 383.036135 
L 186.177154 379.625778 
L 187.331689 379.068296 
L 188.059379 378.595281 
L 188.342228 378.312316 
L 188.879639 377.77595 
L 189.1882 377.229026 
L 189.406765 376.684214 
L 189.60733 375.881777 
L 189.897892 371.495827 
L 189.843894 370.858101 
L 189.498048 370.385085 
L 189.042919 370.093674 
L 188.551792 369.966974 
L 179.072525 369.363034 
L 178.811534 369.346141 
L 178.014417 369.40738 
L 176.191332 369.926852 
L 168.987707 374.099523 
L 167.743175 374.971645 
L 167.221192 375.672721 
" clip-path="url(#pc19262774d)" style="fill: none; stroke: #ff0000; stroke-opacity: 0.7; stroke-width: 0.5"/>
    <path d="M 275.504427 461.875547 
L 277.11409 459.197942 
L 282.543487 465.623771 
L 288.859998 465.946857 
L 290.922217 464.232177 
L 291.674336 465.140197 
L 292.453454 468.96233 
L 290.481231 470.607326 
L 290.350093 475.075631 
L 292.051038 477.180972 
L 296.530323 477.383693 
L 296.320758 481.429664 
L 296.153621 483.089441 
L 296.143335 484.231857 
L 295.911914 484.785116 
L 295.499213 485.21801 
L 294.905232 485.458741 
L 294.633955 485.524203 
L 294.402534 485.579106 
L 293.445993 485.617116 
L 292.240032 482.92473 
L 288.050024 477.930617 
L 283.84973 479.52282 
L 283.53474 480.534313 
L 281.819653 480.052851 
L 280.000425 479.529155 
L 281.019964 478.684485 
L 280.25756 477.791246 
L 279.424444 476.830434 
L 278.848462 474.340768 
L 280.793686 472.746453 
L 281.035392 469.255853 
L 278.736609 466.508563 
L 275.307719 466.329071 
L 275.504427 461.875547 
" clip-path="url(#pc19262774d)" style="fill: none; stroke: #ff0000; stroke-opacity: 0.7; stroke-width: 0.5"/>
    <path d="M 495.836633 344.728226 
L 497.828141 338.203148 
L 495.381505 336.131594 
L 492.937441 335.588893 
L 497.393583 315.494187 
L 496.669749 314.313761 
L 493.389998 313.595791 
L 490.637372 312.993963 
L 491.5322 309.038795 
L 494.997089 309.81378 
L 494.562531 311.74174 
L 495.531929 311.957131 
L 495.333935 312.934837 
L 497.779285 313.498654 
L 504.147223 314.90503 
L 504.320789 313.965334 
L 510.998575 315.445619 
L 512.681521 315.823609 
L 524.678135 318.423082 
L 524.868415 319.109376 
L 524.625423 319.987833 
L 524.681992 320.454514 
L 524.345146 321.275956 
L 524.140724 323.497438 
L 523.766593 324.111936 
L 523.207325 325.102312 
L 523.113471 327.211876 
L 522.329211 328.835755 
L 522.091361 330.696141 
L 521.596377 332.339024 
L 521.127106 333.494111 
L 520.895685 334.919492 
L 520.981825 334.940609 
L 520.869972 335.422071 
L 520.718262 336.078802 
L 513.458067 334.372568 
L 509.90061 338.897889 
L 505.422611 338.374194 
L 499.464802 345.912876 
L 495.836633 344.728226 
" clip-path="url(#pc19262774d)" style="fill: none; stroke: #ff0000; stroke-opacity: 0.7; stroke-width: 0.5"/>
    <path d="M 190.938001 377.879423 
L 190.729722 377.155118 
L 190.704009 375.790975 
L 190.925145 370.623705 
L 190.947001 370.123238 
L 190.941858 369.493958 
" clip-path="url(#pc19262774d)" style="fill: none; stroke: #ff0000; stroke-opacity: 0.7; stroke-width: 0.5"/>
    <path d="M 190.941858 369.493958 
L 178.024702 368.448679 
" clip-path="url(#pc19262774d)" style="fill: none; stroke: #ff0000; stroke-opacity: 0.7; stroke-width: 0.5"/>
    <path d="M 345.509321 355.732168 
L 350.794722 389.162106 
L 355.789562 378.711423 
L 361.980077 375.649493 
L 362.203784 371.542284 
L 352.637092 368.024232 
L 353.564062 365.253714 
L 348.828928 363.460901 
L 346.81685 355.770178 
L 345.509321 355.732168 
" clip-path="url(#pc19262774d)" style="fill: none; stroke: #ff0000; stroke-opacity: 0.7; stroke-width: 0.5"/>
    <path d="M 372.689733 272.346318 
L 378.331266 269.408977 
L 379.017815 269.113343 
L 379.802076 269.041546 
L 382.589415 269.757404 
" clip-path="url(#pc19262774d)" style="fill: none; stroke: #ff0000; stroke-opacity: 0.7; stroke-width: 0.5"/>
    <path d="M 577.106594 543.724097 
L 575.688496 543.504482 
L 572.434458 543.24897 
L 572.854873 539.602106 
L 573.644276 523.255624 
L 573.671275 522.0034 
L 576.24905 472.771793 
L 576.423901 467.631975 
L 576.930456 452.687646 
L 578.385838 453.160661 
L 579.312808 453.462631 
L 587.937103 456.262713 
L 603.00519 461.157577 
L 603.030903 461.862877 
L 603.105472 463.875304 
L 603.054046 467.154736 
L 602.192645 470.552422 
L 600.23585 476.215936 
L 597.812357 482.966963 
L 595.450576 489.639859 
L 592.920371 496.642175 
L 590.399166 503.659274 
L 589.694618 505.616797 
L 586.579432 514.283114 
L 584.816774 519.509511 
L 583.711096 524.205878 
L 582.962834 526.65331 
L 578.181416 539.977984 
L 581.340315 540.21238 
L 580.273206 543.82968 
L 579.346236 543.890919 
L 578.802396 543.838127 
L 577.106594 543.724097 
" clip-path="url(#pc19262774d)" style="fill: none; stroke: #ff0000; stroke-opacity: 0.7; stroke-width: 0.5"/>
    <path d="M 387.59454 398.540058 
L 389.215773 397.401864 
L 389.63876 397.448321 
L 391.972256 397.689052 
L 392.176678 395.94692 
L 391.193138 395.830778 
L 391.599411 392.352848 
L 392.622807 392.473213 
L 392.850371 390.534695 
L 393.259215 390.581152 
L 393.401925 390.598045 
L 394.318609 388.349111 
L 394.21447 386.452826 
L 394.542317 383.9885 
L 395.19801 380.85055 
L 394.611743 379.178103 
L 393.697629 378.056803 
L 392.490382 377.24592 
L 392.490382 376.798245 
L 391.860403 376.722224 
L 389.928036 376.485717 
L 387.59454 398.540058 
" clip-path="url(#pc19262774d)" style="fill: none; stroke: #ff0000; stroke-opacity: 0.7; stroke-width: 0.5"/>
    <path d="M 341.242172 291.195135 
L 342.229569 290.168861 
L 348.485654 286.695154 
" clip-path="url(#pc19262774d)" style="fill: none; stroke: #ff0000; stroke-opacity: 0.7; stroke-width: 0.5"/>
   </g>
   <g id="patch_3">
    <path d="M 90 563.310273 
L 90 163.889727 
" style="fill: none; stroke: #000000; stroke-width: 0.8; stroke-linejoin: miter; stroke-linecap: square"/>
   </g>
   <g id="patch_4">
    <path d="M 648 563.310273 
L 648 163.889727 
" style="fill: none; stroke: #000000; stroke-width: 0.8; stroke-linejoin: miter; stroke-linecap: square"/>
   </g>
   <g id="patch_5">
    <path d="M 90 563.310273 
L 648 563.310273 
" style="fill: none; stroke: #000000; stroke-width: 0.8; stroke-linejoin: miter; stroke-linecap: square"/>
   </g>
   <g id="patch_6">
    <path d="M 90 163.889727 
L 648 163.889727 
" style="fill: none; stroke: #000000; stroke-width: 0.8; stroke-linejoin: miter; stroke-linecap: square"/>
   </g>
   <g id="text_17">
    <!-- Schöneberg_Nord -->
    <g transform="translate(291.205944 379.755988) scale(0.12 -0.12)">
     <defs>
      <path id="DejaVuSans-53" d="M 3425 4513 
L 3425 3897 
Q 3066 4069 2747 4153 
Q 2428 4238 2131 4238 
Q 1616 4238 1336 4038 
Q 1056 3838 1056 3469 
Q 1056 3159 1242 3001 
Q 1428 2844 1947 2747 
L 2328 2669 
Q 3034 2534 3370 2195 
Q 3706 1856 3706 1288 
Q 3706 609 3251 259 
Q 2797 -91 1919 -91 
Q 1588 -91 1214 -16 
Q 841 59 441 206 
L 441 856 
Q 825 641 1194 531 
Q 1563 422 1919 422 
Q 2459 422 2753 634 
Q 3047 847 3047 1241 
Q 3047 1584 2836 1778 
Q 2625 1972 2144 2069 
L 1759 2144 
Q 1053 2284 737 2584 
Q 422 2884 422 3419 
Q 422 4038 858 4394 
Q 1294 4750 2059 4750 
Q 2388 4750 2728 4690 
Q 3069 4631 3425 4513 
z
" transform="scale(0.015625)"/>
      <path id="DejaVuSans-63" d="M 3122 3366 
L 3122 2828 
Q 2878 2963 2633 3030 
Q 2388 3097 2138 3097 
Q 1578 3097 1268 2742 
Q 959 2388 959 1747 
Q 959 1106 1268 751 
Q 1578 397 2138 397 
Q 2388 397 2633 464 
Q 2878 531 3122 666 
L 3122 134 
Q 2881 22 2623 -34 
Q 2366 -91 2075 -91 
Q 1284 -91 818 406 
Q 353 903 353 1747 
Q 353 2603 823 3093 
Q 1294 3584 2113 3584 
Q 2378 3584 2631 3529 
Q 2884 3475 3122 3366 
z
" transform="scale(0.015625)"/>
      <path id="DejaVuSans-68" d="M 3513 2113 
L 3513 0 
L 2938 0 
L 2938 2094 
Q 2938 2591 2744 2837 
Q 2550 3084 2163 3084 
Q 1697 3084 1428 2787 
Q 1159 2491 1159 1978 
L 1159 0 
L 581 0 
L 581 4863 
L 1159 4863 
L 1159 2956 
Q 1366 3272 1645 3428 
Q 1925 3584 2291 3584 
Q 2894 3584 3203 3211 
Q 3513 2838 3513 2113 
z
" transform="scale(0.015625)"/>
      <path id="DejaVuSans-f6" d="M 1959 3097 
Q 1497 3097 1228 2736 
Q 959 2375 959 1747 
Q 959 1119 1226 758 
Q 1494 397 1959 397 
Q 2419 397 2687 759 
Q 2956 1122 2956 1747 
Q 2956 2369 2687 2733 
Q 2419 3097 1959 3097 
z
M 1959 3584 
Q 2709 3584 3137 3096 
Q 3566 2609 3566 1747 
Q 3566 888 3137 398 
Q 2709 -91 1959 -91 
Q 1206 -91 779 398 
Q 353 888 353 1747 
Q 353 2609 779 3096 
Q 1206 3584 1959 3584 
z
M 2254 4850 
L 2888 4850 
L 2888 4219 
L 2254 4219 
L 2254 4850 
z
M 1032 4850 
L 1666 4850 
L 1666 4219 
L 1032 4219 
L 1032 4850 
z
" transform="scale(0.015625)"/>
      <path id="DejaVuSans-6e" d="M 3513 2113 
L 3513 0 
L 2938 0 
L 2938 2094 
Q 2938 2591 2744 2837 
Q 2550 3084 2163 3084 
Q 1697 3084 1428 2787 
Q 1159 2491 1159 1978 
L 1159 0 
L 581 0 
L 581 3500 
L 1159 3500 
L 1159 2956 
Q 1366 3272 1645 3428 
Q 1925 3584 2291 3584 
Q 2894 3584 3203 3211 
Q 3513 2838 3513 2113 
z
" transform="scale(0.015625)"/>
      <path id="DejaVuSans-65" d="M 3597 1894 
L 3597 1613 
L 953 1613 
Q 991 1019 1311 708 
Q 1631 397 2203 397 
Q 2534 397 2845 478 
Q 3156 559 3463 722 
L 3463 178 
Q 3153 47 2828 -22 
Q 2503 -91 2169 -91 
Q 1331 -91 842 396 
Q 353 884 353 1716 
Q 353 2575 817 3079 
Q 1281 3584 2069 3584 
Q 2775 3584 3186 3129 
Q 3597 2675 3597 1894 
z
M 3022 2063 
Q 3016 2534 2758 2815 
Q 2500 3097 2075 3097 
Q 1594 3097 1305 2825 
Q 1016 2553 972 2059 
L 3022 2063 
z
" transform="scale(0.015625)"/>
      <path id="DejaVuSans-62" d="M 3116 1747 
Q 3116 2381 2855 2742 
Q 2594 3103 2138 3103 
Q 1681 3103 1420 2742 
Q 1159 2381 1159 1747 
Q 1159 1113 1420 752 
Q 1681 391 2138 391 
Q 2594 391 2855 752 
Q 3116 1113 3116 1747 
z
M 1159 2969 
Q 1341 3281 1617 3432 
Q 1894 3584 2278 3584 
Q 2916 3584 3314 3078 
Q 3713 2572 3713 1747 
Q 3713 922 3314 415 
Q 2916 -91 2278 -91 
Q 1894 -91 1617 61 
Q 1341 213 1159 525 
L 1159 0 
L 581 0 
L 581 4863 
L 1159 4863 
L 1159 2969 
z
" transform="scale(0.015625)"/>
      <path id="DejaVuSans-72" d="M 2631 2963 
Q 2534 3019 2420 3045 
Q 2306 3072 2169 3072 
Q 1681 3072 1420 2755 
Q 1159 2438 1159 1844 
L 1159 0 
L 581 0 
L 581 3500 
L 1159 3500 
L 1159 2956 
Q 1341 3275 1631 3429 
Q 1922 3584 2338 3584 
Q 2397 3584 2469 3576 
Q 2541 3569 2628 3553 
L 2631 2963 
z
" transform="scale(0.015625)"/>
      <path id="DejaVuSans-67" d="M 2906 1791 
Q 2906 2416 2648 2759 
Q 2391 3103 1925 3103 
Q 1463 3103 1205 2759 
Q 947 2416 947 1791 
Q 947 1169 1205 825 
Q 1463 481 1925 481 
Q 2391 481 2648 825 
Q 2906 1169 2906 1791 
z
M 3481 434 
Q 3481 -459 3084 -895 
Q 2688 -1331 1869 -1331 
Q 1566 -1331 1297 -1286 
Q 1028 -1241 775 -1147 
L 775 -588 
Q 1028 -725 1275 -790 
Q 1522 -856 1778 -856 
Q 2344 -856 2625 -561 
Q 2906 -266 2906 331 
L 2906 616 
Q 2728 306 2450 153 
Q 2172 0 1784 0 
Q 1141 0 747 490 
Q 353 981 353 1791 
Q 353 2603 747 3093 
Q 1141 3584 1784 3584 
Q 2172 3584 2450 3431 
Q 2728 3278 2906 2969 
L 2906 3500 
L 3481 3500 
L 3481 434 
z
" transform="scale(0.015625)"/>
      <path id="DejaVuSans-5f" d="M 3263 -1063 
L 3263 -1509 
L -63 -1509 
L -63 -1063 
L 3263 -1063 
z
" transform="scale(0.015625)"/>
      <path id="DejaVuSans-4e" d="M 628 4666 
L 1478 4666 
L 3547 763 
L 3547 4666 
L 4159 4666 
L 4159 0 
L 3309 0 
L 1241 3903 
L 1241 0 
L 628 0 
L 628 4666 
z
" transform="scale(0.015625)"/>
      <path id="DejaVuSans-6f" d="M 1959 3097 
Q 1497 3097 1228 2736 
Q 959 2375 959 1747 
Q 959 1119 1226 758 
Q 1494 397 1959 397 
Q 2419 397 2687 759 
Q 2956 1122 2956 1747 
Q 2956 2369 2687 2733 
Q 2419 3097 1959 3097 
z
M 1959 3584 
Q 2709 3584 3137 3096 
Q 3566 2609 3566 1747 
Q 3566 888 3137 398 
Q 2709 -91 1959 -91 
Q 1206 -91 779 398 
Q 353 888 353 1747 
Q 353 2609 779 3096 
Q 1206 3584 1959 3584 
z
" transform="scale(0.015625)"/>
      <path id="DejaVuSans-64" d="M 2906 2969 
L 2906 4863 
L 3481 4863 
L 3481 0 
L 2906 0 
L 2906 525 
Q 2725 213 2448 61 
Q 2172 -91 1784 -91 
Q 1150 -91 751 415 
Q 353 922 353 1747 
Q 353 2572 751 3078 
Q 1150 3584 1784 3584 
Q 2172 3584 2448 3432 
Q 2725 3281 2906 2969 
z
M 947 1747 
Q 947 1113 1208 752 
Q 1469 391 1925 391 
Q 2381 391 2643 752 
Q 2906 1113 2906 1747 
Q 2906 2381 2643 2742 
Q 2381 3103 1925 3103 
Q 1469 3103 1208 2742 
Q 947 2381 947 1747 
z
" transform="scale(0.015625)"/>
     </defs>
     <use xlink:href="#DejaVuSans-53"/>
     <use xlink:href="#DejaVuSans-63" x="63.476562"/>
     <use xlink:href="#DejaVuSans-68" x="118.457031"/>
     <use xlink:href="#DejaVuSans-f6" x="181.835938"/>
     <use xlink:href="#DejaVuSans-6e" x="243.017578"/>
     <use xlink:href="#DejaVuSans-65" x="306.396484"/>
     <use xlink:href="#DejaVuSans-62" x="367.919922"/>
     <use xlink:href="#DejaVuSans-65" x="431.396484"/>
     <use xlink:href="#DejaVuSans-72" x="492.919922"/>
     <use xlink:href="#DejaVuSans-67" x="532.283203"/>
     <use xlink:href="#DejaVuSans-5f" x="595.759766"/>
     <use xlink:href="#DejaVuSans-4e" x="645.759766"/>
     <use xlink:href="#DejaVuSans-6f" x="720.564453"/>
     <use xlink:href="#DejaVuSans-72" x="781.746094"/>
     <use xlink:href="#DejaVuSans-64" x="821.109375"/>
    </g>
   </g>
  </g>
 </g>
 <defs>
  <clipPath id="pc19262774d">
   <rect x="90" y="163.889727" width="558" height="399.420546"/>
  </clipPath>
 </defs>
</svg>
