<?xml version="1.0" encoding="utf-8" standalone="no"?>
<!DOCTYPE svg PUBLIC "-//W3C//DTD SVG 1.1//EN"
  "http://www.w3.org/Graphics/SVG/1.1/DTD/svg11.dtd">
<svg xmlns:xlink="http://www.w3.org/1999/xlink" width="720pt" height="720pt" viewBox="0 0 720 720" xmlns="http://www.w3.org/2000/svg" version="1.1">
 <metadata>
  <rdf:RDF xmlns:dc="http://purl.org/dc/elements/1.1/" xmlns:cc="http://creativecommons.org/ns#" xmlns:rdf="http://www.w3.org/1999/02/22-rdf-syntax-ns#">
   <cc:Work>
    <dc:type rdf:resource="http://purl.org/dc/dcmitype/StillImage"/>
    <dc:date>2024-10-22T09:54:10.942557</dc:date>
    <dc:format>image/svg+xml</dc:format>
    <dc:creator>
     <cc:Agent>
      <dc:title>Matplotlib v3.9.2, https://matplotlib.org/</dc:title>
     </cc:Agent>
    </dc:creator>
   </cc:Work>
  </rdf:RDF>
 </metadata>
 <defs>
  <style type="text/css">*{stroke-linejoin: round; stroke-linecap: butt}</style>
 </defs>
 <g id="figure_1">
  <g id="patch_1">
   <path d="M 0 720 
L 720 720 
L 720 0 
L 0 0 
z
" style="fill: #ffffff"/>
  </g>
  <g id="axes_1">
   <g id="patch_2">
    <path d="M 91.057886 640.8 
L 646.942114 640.8 
L 646.942114 86.4 
L 91.057886 86.4 
z
" style="fill: #ffffff"/>
   </g>
   <g id="PatchCollection_1">
    <path d="M 119.335432 292.993348 
L 119.694013 295.811812 
L 120.010092 298.296227 
L 118.884573 298.183069 
L 118.992508 317.003084 
L 119.008116 319.719352 
L 119.009291 319.992106 
L 119.023406 322.549646 
L 119.028881 323.444203 
L 119.048769 326.900807 
L 119.243279 360.672159 
L 119.279331 366.946283 
L 120.406326 366.939696 
L 118.87609 374.063022 
L 118.591195 375.389155 
L 118.339844 376.564974 
L 118.344563 379.437903 
L 118.389911 406.681259 
L 118.691543 408.248972 
L 119.150318 410.633168 
L 119.877707 414.366437 
L 119.886344 419.46431 
L 118.515034 424.733963 
L 118.522505 428.587665 
L 118.542751 439.261791 
L 118.548992 442.46536 
L 118.576092 448.519041 
L 118.576099 448.520684 
L 118.584978 454.327785 
L 118.589077 457.114739 
L 121.724594 456.672861 
L 124.843222 456.254506 
L 127.964246 455.855142 
L 131.087662 455.474572 
L 134.213277 455.112998 
L 137.341087 454.770222 
L 140.470906 454.446643 
L 143.602529 454.141872 
L 143.810008 454.244238 
L 143.984723 455.742667 
L 149.336259 455.168502 
L 153.126023 454.525766 
L 154.142345 454.357903 
L 155.161666 454.209794 
L 156.183598 454.081642 
L 157.207744 453.973261 
L 158.233915 453.884852 
L 159.261718 453.816423 
L 160.290572 453.768185 
L 161.320075 453.739753 
L 161.333574 453.952958 
L 181.067352 453.907838 
L 182.039737 453.923722 
L 183.57851 453.705793 
L 184.974345 453.647956 
L 187.504851 453.487276 
L 192.163675 452.766016 
L 195.255444 452.686052 
L 196.251197 452.713776 
L 197.245774 452.767039 
L 198.238772 452.84546 
L 199.22942 452.949448 
L 200.217116 453.078427 
L 201.201278 453.232609 
L 202.181314 453.41181 
L 203.156247 453.616052 
L 203.301219 453.650304 
L 203.849467 458.943094 
L 206.199005 461.243242 
L 207.80044 462.811022 
L 208.452894 462.842909 
L 209.836215 462.906578 
L 210.972803 462.952482 
L 211.634053 462.979188 
L 212.282666 463.003517 
L 213.483873 463.04416 
L 214.709843 463.081992 
L 215.675655 463.108268 
L 216.321764 463.125846 
L 217.534769 463.15091 
L 218.484464 463.170535 
L 219.341858 463.15978 
L 220.678566 463.147652 
L 221.643515 463.153392 
L 222.96178 463.157005 
L 224.030042 463.15701 
L 225.706487 463.148046 
L 226.800912 463.137641 
L 228.599736 463.113188 
L 230.037679 463.087405 
L 231.154218 463.062076 
L 231.902198 463.04301 
L 232.267605 463.033244 
L 232.549227 463.014412 
L 234.051396 462.916526 
L 235.361771 462.836783 
L 237.587591 462.714239 
L 238.859091 462.646384 
L 238.870788 462.644349 
L 240.183141 462.556914 
L 240.230812 462.553072 
L 241.022024 462.487023 
L 243.071362 461.716026 
L 243.372049 461.589218 
L 244.270565 461.224966 
L 245.445731 460.75271 
L 247.804213 459.804875 
L 247.829617 459.79448 
L 249.007467 459.319616 
L 250.208795 458.844214 
L 252.529237 457.901581 
L 253.722694 457.424206 
L 254.955195 456.925134 
L 257.051215 456.071655 
L 259.467368 455.085435 
L 260.86587 454.52683 
L 262.264529 453.966456 
L 262.965816 453.690543 
L 265.4054 452.625836 
L 268.869917 451.113856 
L 270.154118 450.555137 
L 270.575079 450.372005 
L 271.853367 449.862878 
L 273.588067 449.171575 
L 274.835316 448.674546 
L 275.994734 448.205633 
L 278.434101 447.222854 
L 279.607323 446.749704 
L 280.746162 446.330918 
L 283.221638 445.420524 
L 284.43404 444.974349 
L 286.380607 444.259964 
L 288.79291 443.359863 
L 289.899139 442.94419 
L 290.450659 442.72648 
L 291.234392 442.4173 
L 292.180306 442.044158 
L 293.538254 441.508117 
L 294.628729 441.079465 
L 297.008567 440.136955 
L 298.584065 439.527057 
L 299.742385 439.051917 
L 301.843902 438.17859 
L 302.924281 437.73605 
L 304.017563 437.284188 
L 306.192122 436.351698 
L 307.27775 435.898838 
L 308.450239 435.409452 
L 310.810432 434.393833 
L 311.950408 433.903429 
L 313.167332 433.396743 
L 315.079762 432.590963 
L 316.424529 432.033669 
L 317.490847 430.740547 
L 317.860782 430.352937 
L 318.697281 429.359835 
L 319.464649 428.442495 
L 320.57739 427.193451 
L 321.022748 426.576277 
L 321.048214 426.594338 
L 321.070683 426.566742 
L 321.106856 426.590838 
L 321.421896 426.164844 
L 321.381076 426.134378 
L 321.400566 426.104888 
L 321.374682 426.085659 
L 322.100082 425.069982 
L 326.580193 420.561417 
L 327.264272 421.058759 
L 328.399763 421.884499 
L 329.004028 422.323812 
L 329.148329 422.42884 
L 329.765333 422.877479 
L 329.907838 422.980978 
L 330.525241 423.430001 
L 330.68069 423.543212 
L 331.38686 424.056733 
L 331.534737 424.164035 
L 331.900163 424.429835 
L 332.066901 424.548872 
L 332.158385 424.612327 
L 332.25327 424.670405 
L 332.351361 424.723111 
L 332.452066 424.770262 
L 332.555571 424.811462 
L 332.660899 424.846733 
L 332.952614 425.185064 
L 336.163021 429.319371 
L 337.623357 431.226858 
L 339.495213 433.671681 
L 340.394732 434.846846 
L 341.308293 436.002655 
L 341.523784 436.276299 
L 342.453924 437.447923 
L 344.655121 440.294794 
L 344.84903 440.550192 
L 348.593578 445.032446 
L 349.084691 445.601328 
L 362.642367 461.259399 
L 364.529854 463.442104 
L 367.425843 466.791076 
L 367.984852 467.437504 
L 369.310281 468.968972 
L 369.525186 469.218598 
L 372.069666 472.157193 
L 372.779866 472.971496 
L 376.85955 477.648344 
L 381.225029 482.699209 
L 382.276286 483.915303 
L 384.2168 486.160831 
L 386.204078 488.457891 
L 388.349361 490.869883 
L 389.906045 492.736592 
L 390.321908 493.21733 
L 390.883003 493.870789 
L 392.397407 495.634259 
L 397.349241 499.603076 
L 399.858032 501.630998 
L 403.239282 504.363778 
L 405.67718 506.287358 
L 406.29059 506.771451 
L 415.074957 513.703281 
L 417.480116 515.61802 
L 419.441399 517.17982 
L 420.783394 518.248235 
L 423.166103 520.145388 
L 426.979702 523.181868 
L 426.993584 522.697218 
L 433.843099 528.147655 
L 436.000819 529.864565 
L 436.382411 530.164576 
L 436.768001 530.45959 
L 437.157578 530.749214 
L 437.551143 531.03345 
L 437.948501 531.312301 
L 438.34965 531.585767 
L 438.754392 531.853656 
L 439.162726 532.115969 
L 439.574653 532.372706 
L 439.989971 532.623675 
L 440.408882 532.869067 
L 440.830794 533.1087 
L 442.202991 533.870511 
L 442.289532 533.915248 
L 442.378675 533.953843 
L 442.470418 533.986295 
L 442.564167 534.012226 
L 442.659334 534.031648 
L 450.537359 536.825194 
L 462.872945 541.599258 
L 465.115918 542.467694 
L 466.592701 543.51996 
L 467.159573 544.536582 
L 468.333055 545.16734 
L 468.896748 545.480496 
L 470.217177 546.213693 
L 472.24296 547.379878 
L 474.639327 548.836335 
L 475.564515 549.418578 
L 476.264249 550.200617 
L 476.757906 550.766562 
L 479.521381 552.873197 
L 485.815327 557.671223 
L 488.011454 559.345404 
L 492.819756 562.953715 
L 493.105248 563.141541 
L 494.405555 564.129758 
L 494.601715 562.562802 
L 494.884965 559.053396 
L 495.931044 559.13975 
L 497.603368 559.276461 
L 497.6285 559.271377 
L 498.702522 558.70537 
L 502.010945 556.983026 
L 503.057548 559.339149 
L 505.174418 564.103455 
L 505.878388 565.699446 
L 506.904183 567.559152 
L 508.282968 569.658711 
L 508.802329 570.489217 
L 510.575331 573.381305 
L 510.982105 573.949237 
L 514.442409 578.269219 
L 514.546418 578.394616 
L 514.770128 578.586181 
L 514.760413 578.59798 
L 517.095616 580.672531 
L 519.471362 583.15691 
L 524.370946 587.968473 
L 525.064476 588.799554 
L 527.204764 591.632128 
L 527.039153 591.838602 
L 527.164006 591.951165 
L 527.788077 592.50535 
L 528.419209 593.051526 
L 529.057392 593.589299 
L 538.14583 600.976337 
L 538.516691 601.289191 
L 538.881452 601.609248 
L 539.239722 601.936517 
L 539.591495 602.270802 
L 539.916347 602.591567 
L 540.235464 602.918349 
L 540.54825 603.25077 
L 540.854908 603.589217 
L 543.471839 606.742884 
L 544.64007 608.189056 
L 546.827603 609.938789 
L 547.39261 610.239316 
L 547.982109 610.519357 
L 548.574213 610.793452 
L 549.169119 611.061597 
L 549.766248 611.324196 
L 550.365979 611.580654 
L 550.968315 611.831165 
L 551.569686 612.082288 
L 552.17272 612.329056 
L 552.777608 612.571269 
L 553.384754 612.809506 
L 553.993564 613.043388 
L 554.604228 613.272715 
L 555.215595 613.498494 
L 555.828442 613.720512 
L 556.442574 613.938772 
L 557.058596 614.154046 
L 557.675903 614.365563 
L 558.294304 614.573523 
L 559.295411 614.925502 
L 560.299817 615.267596 
L 561.307528 615.6 
L 561.536707 615.591871 
L 567.256546 615.316473 
L 569.594749 615.184109 
L 570.747168 596.002555 
L 570.051892 595.831454 
L 568.553471 595.827074 
L 564.254403 594.843987 
L 562.964314 594.548386 
L 559.31143 593.712016 
L 554.286313 592.096026 
L 553.812546 591.958583 
L 553.359884 591.750211 
L 552.918941 591.532154 
L 552.478194 591.314093 
L 549.408755 589.58518 
L 546.609534 587.923948 
L 543.568694 585.953809 
L 540.350986 583.76063 
L 538.291794 582.320512 
L 536.211081 580.794146 
L 534.492613 579.45857 
L 532.824631 577.940524 
L 530.336326 575.176069 
L 529.845165 574.553914 
L 529.125823 573.611163 
L 528.201996 572.357286 
L 523.711229 567.026397 
L 522.716436 565.655014 
L 522.349846 565.263375 
L 521.622602 564.474271 
L 520.569667 562.659713 
L 520.463357 562.475689 
L 520.00868 561.692773 
L 517.130987 556.730793 
L 513.802466 549.448633 
L 513.059462 547.822712 
L 511.575231 544.103374 
L 510.949904 542.55819 
L 510.706338 541.295773 
L 510.1732 538.652675 
L 510.070825 538.145142 
L 509.768297 536.628944 
L 509.706202 536.262196 
L 509.673893 530.395983 
L 509.688878 528.960502 
L 509.717565 527.525103 
L 509.759767 526.090182 
L 509.812784 524.718207 
L 509.878147 523.346934 
L 509.956243 521.976156 
L 510.032294 520.809717 
L 510.117558 519.643853 
L 510.211646 518.47877 
L 510.314951 517.31446 
L 511.612571 503.846363 
L 511.756012 502.378729 
L 511.995771 499.957515 
L 512.707377 492.769993 
L 519.684962 473.487329 
L 520.621453 470.080874 
L 520.466641 470.020603 
L 522.295476 464.973137 
L 522.187727 464.934171 
L 527.47539 450.421929 
L 533.374617 434.186376 
L 539.248189 417.967732 
L 540.522637 414.482409 
L 542.883478 408.025675 
L 543.653752 405.923721 
L 546.089634 399.277097 
L 552.772057 380.841113 
L 559.405745 362.385677 
L 564.435374 348.388557 
L 567.748506 339.165868 
L 569.408994 334.540702 
L 571.168269 329.642378 
L 571.67617 328.228246 
L 574.382754 320.692872 
L 576.138252 315.82419 
L 575.870852 315.450501 
L 576.651782 315.469349 
L 577.055274 314.460949 
L 577.127853 314.276016 
L 577.204502 314.08059 
L 577.27422 313.907692 
L 578.435737 310.359236 
L 577.688348 310.352188 
L 578.182467 308.994976 
L 578.933881 308.998204 
L 584.120997 309.048565 
L 599.287579 309.195188 
L 599.947036 309.200706 
L 609.79124 309.297553 
L 609.896632 306.807969 
L 610.01153 304.096611 
L 610.112176 301.718209 
L 610.113088 301.697778 
L 610.197955 299.688869 
L 610.329947 296.561871 
L 610.351661 296.055658 
L 610.388228 295.173498 
L 610.445422 293.79771 
L 610.503437 292.432303 
L 610.605569 289.997938 
L 610.627993 289.462273 
L 610.651438 288.911081 
L 610.693912 287.899659 
L 610.799652 285.381809 
L 610.873857 283.647686 
L 610.947719 281.854698 
L 610.989471 280.889606 
L 610.991689 280.831467 
L 611.050846 279.412264 
L 611.101567 278.245034 
L 611.168375 276.652179 
L 611.251332 274.645275 
L 611.350951 272.316743 
L 611.403143 271.049394 
L 611.421387 270.641383 
L 611.517011 268.344143 
L 611.537 267.883106 
L 611.549552 267.579036 
L 611.555043 267.457437 
L 611.595625 266.483736 
L 611.620013 265.896022 
L 611.632332 263.838316 
L 611.641911 262.077 
L 611.645175 261.490155 
L 611.658701 259.067799 
L 611.673723 256.319839 
L 611.687468 253.828792 
L 605.306539 253.278509 
L 604.394407 253.199409 
L 602.896932 253.069157 
L 602.339241 253.020128 
L 597.694234 252.608893 
L 597.994563 251.764343 
L 590.308059 251.112945 
L 577.464126 250.022215 
L 570.927398 249.467048 
L 565.976171 249.047387 
L 565.295059 248.994891 
L 565.097914 248.977567 
L 563.504099 248.83837 
L 563.397318 248.825551 
L 562.916749 248.767859 
L 562.059979 248.643784 
L 561.23188 248.497474 
L 560.912593 248.455047 
L 548.478915 245.998982 
L 543.531054 245.017512 
L 540.114354 244.339918 
L 535.982566 243.528356 
L 535.751536 243.474763 
L 531.841778 243.471084 
L 531.471549 243.470443 
L 528.474237 243.463575 
L 524.179002 243.451587 
L 521.239986 243.442635 
L 518.425992 243.438905 
L 514.645396 243.432958 
L 510.218347 243.418526 
L 506.831972 243.417996 
L 503.460367 243.41263 
L 500.266904 243.40657 
L 497.096931 243.400381 
L 494.101713 243.373556 
L 491.022758 243.357864 
L 489.38783 243.349637 
L 485.614239 243.357055 
L 485.421311 243.329381 
L 481.785113 243.311062 
L 478.783152 243.303682 
L 478.744913 243.303588 
L 475.356098 242.692873 
L 474.900173 242.590779 
L 474.846791 242.507017 
L 474.782823 242.431346 
L 474.283913 241.977969 
L 463.440949 232.178149 
L 458.441474 228.336506 
L 456.631748 226.945909 
L 453.494194 223.751967 
L 450.347646 220.556388 
L 447.425353 217.644657 
L 446.979398 217.196566 
L 443.185245 213.379151 
L 441.959549 212.147138 
L 441.641193 211.82665 
L 439.886938 210.061297 
L 436.428526 206.582251 
L 433.894916 204.033962 
L 433.45614 203.592191 
L 430.830543 200.95102 
L 434.652373 196.926008 
L 434.498033 196.828257 
L 434.441183 196.755959 
L 433.761013 196.118609 
L 432.164907 194.47146 
L 432.858621 193.202454 
L 434.672431 189.88409 
L 433.862425 189.441934 
L 426.874466 186.085825 
L 425.305685 187.18675 
L 420.120704 188.262464 
L 418.236676 188.653304 
L 415.437532 189.23415 
L 401.685055 192.08763 
L 398.940885 192.657067 
L 393.742751 193.74598 
L 392.744824 193.9532 
L 382.360427 196.108871 
L 376.955907 197.229468 
L 374.036631 197.751359 
L 373.211215 197.890295 
L 365.91609 199.066458 
L 362.867894 199.557965 
L 359.053458 200.172948 
L 358.636589 200.240162 
L 352.508988 200.55573 
L 352.027189 200.634635 
L 347.226527 201.419178 
L 347.209673 202.13311 
L 344.684607 202.563074 
L 341.033814 203.184203 
L 335.550985 204.111953 
L 334.983228 204.207549 
L 332.87742 204.555459 
L 330.536031 204.942297 
L 330.126812 205.009937 
L 327.273786 205.481396 
L 325.400894 205.790723 
L 324.546954 205.931727 
L 321.531452 206.429879 
L 320.519279 206.594914 
L 313.483452 207.794788 
L 306.761857 208.899212 
L 301.833936 209.689055 
L 297.970223 210.329156 
L 297.363818 210.429585 
L 293.064258 211.136793 
L 289.581267 211.695598 
L 287.966624 211.961405 
L 286.36017 212.225652 
L 281.14657 213.081413 
L 275.076408 214.073796 
L 274.559312 214.158258 
L 270.991154 214.741848 
L 267.729248 215.275845 
L 267.086933 215.381041 
L 263.47195 215.971423 
L 259.484212 216.622374 
L 249.838685 218.196963 
L 247.59788 218.562573 
L 246.356152 218.765139 
L 242.882985 219.33174 
L 239.409822 219.898352 
L 239.297597 219.202492 
L 239.224084 219.206927 
L 238.645732 219.24081 
L 232.223203 219.614748 
L 227.872263 219.869122 
L 227.901333 218.768499 
L 228.207706 205.552978 
L 228.348709 199.516964 
L 228.469706 194.412789 
L 228.642719 187.044909 
L 228.840701 178.645187 
L 228.95596 173.546836 
L 229.000539 171.55726 
L 229.115201 166.561167 
L 229.171768 164.128193 
L 229.27864 159.639181 
L 229.326752 157.649916 
L 229.451274 152.545466 
L 229.471193 150.967393 
L 229.517538 149.757262 
L 229.62108 145.40511 
L 228.838484 145.388349 
L 228.918939 142.004804 
L 229.085311 134.851379 
L 231.046759 129.383686 
L 231.22318 129.015599 
L 232.581097 126.182035 
L 235.02779 121.074504 
L 235.743208 119.581921 
L 236.156031 118.719758 
L 237.562551 115.784019 
L 237.931654 115.013525 
L 238.30712 114.23013 
L 238.993942 112.796688 
L 239.04666 112.687346 
L 239.405481 111.938088 
L 229.541925 112.439508 
L 227.501259 112.422794 
L 226.82796 112.417457 
L 225.827606 112.409429 
L 223.996297 112.394585 
L 219.754381 112.360165 
L 219.155899 112.355666 
L 218.527256 112.350878 
L 218.041971 112.347311 
L 215.645307 112.329579 
L 215.19253 112.326247 
L 213.879239 112.316396 
L 212.525223 112.306697 
L 211.916565 112.302436 
L 208.585175 112.278144 
L 206.424395 112.25776 
L 204.032912 112.235424 
L 203.444001 112.22993 
L 202.314572 112.220184 
L 199.134873 112.193417 
L 198.402223 112.18711 
L 188.720402 112.107615 
L 188.718753 112.172414 
L 187.271094 112.160588 
L 187.07467 112.159221 
L 183.879787 112.401318 
L 182.660885 112.494524 
L 178.845777 114.286729 
L 176.601264 114.269321 
L 176.49727 114.268379 
L 173.660654 114.550342 
L 171.91571 114.723968 
L 171.801144 114.723074 
L 169.731132 114.707355 
L 167.980269 114.759452 
L 164.8962 114.863848 
L 164.709357 114.861872 
L 162.700688 114.840045 
L 162.191472 114.843141 
L 157.471023 114.809031 
L 157.340196 114.807728 
L 155.220373 114.788675 
L 151.86361 114.682349 
L 150.959334 114.654522 
L 150.736656 114.652394 
L 148.851453 114.635404 
L 148.708679 114.633985 
L 147.287181 114.490721 
L 144.454219 114.197885 
L 141.88714 114.104111 
L 135.043219 112.387889 
L 134.782898 112.153493 
L 134.316375 111.733532 
L 129.702552 111.64231 
L 125.633536 111.6 
L 124.193847 112.25061 
L 123.780481 112.437162 
L 123.756446 112.87397 
L 123.638674 115.000652 
L 122.344647 114.908843 
L 122.226639 116.292152 
L 122.130224 117.4222 
L 121.676871 122.737174 
L 119.225449 151.76232 
L 119.042435 153.929169 
L 120.322698 153.671384 
L 119.976609 158.02091 
L 119.650201 164.999473 
L 119.388731 170.585943 
L 119.156854 175.679351 
L 119.048106 177.959485 
L 118.862813 181.833526 
L 119.237665 182.238755 
L 122.668879 185.945527 
L 124.126087 187.519933 
L 124.790439 188.237578 
L 122.631754 192.221725 
L 122.029968 193.332626 
L 118.252907 194.742501 
L 118.131737 194.786117 
L 117.980345 194.852214 
L 117.83736 194.934798 
L 117.704719 195.033039 
L 117.583766 195.145729 
L 117.476226 195.271257 
L 117.386687 195.404808 
L 117.312431 195.547427 
L 117.254007 195.697333 
L 117.212155 195.852745 
L 117.187618 196.011877 
L 117.042428 197.361865 
L 116.898264 199.012086 
L 116.765282 200.47581 
L 116.666795 201.796265 
L 116.639524 202.296535 
L 116.567881 203.48155 
L 116.504069 204.666579 
L 116.463125 205.670928 
L 116.424007 206.669543 
L 116.400594 207.644442 
L 116.371325 208.637139 
L 116.351765 209.617836 
L 116.336108 210.60649 
L 116.325351 210.683667 
L 116.32851 210.761503 
L 116.345335 210.83765 
L 116.375377 210.909568 
L 116.417797 210.974919 
L 116.46919 211.030252 
L 116.529562 211.075957 
L 116.596728 211.110515 
L 116.668897 211.132791 
L 117.254341 211.228585 
L 117.245962 211.554153 
L 117.291213 215.474879 
L 117.304548 215.953017 
L 117.321872 216.562156 
L 116.54089 216.604716 
L 116.502877 216.611873 
L 116.468024 216.62877 
L 116.438848 216.65417 
L 116.417071 216.686269 
L 116.404402 216.722867 
L 116.401768 216.761588 
L 116.418511 217.447668 
L 116.453978 218.471447 
L 116.502891 219.475487 
L 116.552044 220.506996 
L 116.608819 221.495352 
L 116.671619 222.507314 
L 116.754363 223.628909 
L 116.841035 224.742564 
L 116.93941 225.87989 
L 117.047853 227.046421 
L 117.166133 228.240592 
L 117.294258 229.428648 
L 117.417706 230.481403 
L 117.536945 231.436132 
L 117.686503 232.577184 
L 117.87804 234.020073 
L 118.058972 235.205929 
L 118.284025 236.70162 
L 118.316628 236.850995 
L 118.364403 236.996095 
L 118.426928 237.135556 
L 118.503576 237.267626 
L 118.591965 237.390986 
L 118.692462 237.504451 
L 118.80426 237.607058 
L 118.925958 237.697466 
L 119.447121 238.038285 
L 119.826941 240.970257 
L 119.952058 241.936463 
L 120.048282 242.679549 
L 120.499974 246.166611 
L 120.495157 246.400058 
L 120.366205 246.394399 
L 120.2379 246.408351 
L 120.113171 246.441648 
L 119.994937 246.493438 
L 119.885908 246.562482 
L 119.788398 246.647156 
L 119.704915 246.745832 
L 119.631404 249.613695 
L 119.484487 249.610021 
L 119.08268 265.832711 
L 119.03488 267.765852 
L 118.953822 270.9783 
L 118.827 275.999423 
L 118.409449 292.891089 
L 119.335432 292.993348 
" clip-path="url(#pc06beb6794)" style="fill: #d3d3d3"/>
   </g>
   <g id="matplotlib.axis_1">
    <g id="xtick_1">
     <g id="line2d_1">
      <defs>
       <path id="m853eb6d11c" d="M 0 0 
L 0 3.5 
" style="stroke: #000000; stroke-width: 0.8"/>
      </defs>
      <g>
       <use xlink:href="#m853eb6d11c" x="91.118746" y="640.8" style="stroke: #000000; stroke-width: 0.8"/>
      </g>
     </g>
     <g id="text_1">
      <!-- 13.335 -->
      <g transform="translate(73.623434 655.398438) scale(0.1 -0.1)">
       <defs>
        <path id="DejaVuSans-31" d="M 794 531 
L 1825 531 
L 1825 4091 
L 703 3866 
L 703 4441 
L 1819 4666 
L 2450 4666 
L 2450 531 
L 3481 531 
L 3481 0 
L 794 0 
L 794 531 
z
" transform="scale(0.015625)"/>
        <path id="DejaVuSans-33" d="M 2597 2516 
Q 3050 2419 3304 2112 
Q 3559 1806 3559 1356 
Q 3559 666 3084 287 
Q 2609 -91 1734 -91 
Q 1441 -91 1130 -33 
Q 819 25 488 141 
L 488 750 
Q 750 597 1062 519 
Q 1375 441 1716 441 
Q 2309 441 2620 675 
Q 2931 909 2931 1356 
Q 2931 1769 2642 2001 
Q 2353 2234 1838 2234 
L 1294 2234 
L 1294 2753 
L 1863 2753 
Q 2328 2753 2575 2939 
Q 2822 3125 2822 3475 
Q 2822 3834 2567 4026 
Q 2313 4219 1838 4219 
Q 1578 4219 1281 4162 
Q 984 4106 628 3988 
L 628 4550 
Q 988 4650 1302 4700 
Q 1616 4750 1894 4750 
Q 2613 4750 3031 4423 
Q 3450 4097 3450 3541 
Q 3450 3153 3228 2886 
Q 3006 2619 2597 2516 
z
" transform="scale(0.015625)"/>
        <path id="DejaVuSans-2e" d="M 684 794 
L 1344 794 
L 1344 0 
L 684 0 
L 684 794 
z
" transform="scale(0.015625)"/>
        <path id="DejaVuSans-35" d="M 691 4666 
L 3169 4666 
L 3169 4134 
L 1269 4134 
L 1269 2991 
Q 1406 3038 1543 3061 
Q 1681 3084 1819 3084 
Q 2600 3084 3056 2656 
Q 3513 2228 3513 1497 
Q 3513 744 3044 326 
Q 2575 -91 1722 -91 
Q 1428 -91 1123 -41 
Q 819 9 494 109 
L 494 744 
Q 775 591 1075 516 
Q 1375 441 1709 441 
Q 2250 441 2565 725 
Q 2881 1009 2881 1497 
Q 2881 1984 2565 2268 
Q 2250 2553 1709 2553 
Q 1456 2553 1204 2497 
Q 953 2441 691 2322 
L 691 4666 
z
" transform="scale(0.015625)"/>
       </defs>
       <use xlink:href="#DejaVuSans-31"/>
       <use xlink:href="#DejaVuSans-33" x="63.623047"/>
       <use xlink:href="#DejaVuSans-2e" x="127.246094"/>
       <use xlink:href="#DejaVuSans-33" x="159.033203"/>
       <use xlink:href="#DejaVuSans-33" x="222.65625"/>
       <use xlink:href="#DejaVuSans-35" x="286.279297"/>
      </g>
     </g>
    </g>
    <g id="xtick_2">
     <g id="line2d_2">
      <g>
       <use xlink:href="#m853eb6d11c" x="157.579463" y="640.8" style="stroke: #000000; stroke-width: 0.8"/>
      </g>
     </g>
     <g id="text_2">
      <!-- 13.340 -->
      <g transform="translate(140.084151 655.398438) scale(0.1 -0.1)">
       <defs>
        <path id="DejaVuSans-34" d="M 2419 4116 
L 825 1625 
L 2419 1625 
L 2419 4116 
z
M 2253 4666 
L 3047 4666 
L 3047 1625 
L 3713 1625 
L 3713 1100 
L 3047 1100 
L 3047 0 
L 2419 0 
L 2419 1100 
L 313 1100 
L 313 1709 
L 2253 4666 
z
" transform="scale(0.015625)"/>
        <path id="DejaVuSans-30" d="M 2034 4250 
Q 1547 4250 1301 3770 
Q 1056 3291 1056 2328 
Q 1056 1369 1301 889 
Q 1547 409 2034 409 
Q 2525 409 2770 889 
Q 3016 1369 3016 2328 
Q 3016 3291 2770 3770 
Q 2525 4250 2034 4250 
z
M 2034 4750 
Q 2819 4750 3233 4129 
Q 3647 3509 3647 2328 
Q 3647 1150 3233 529 
Q 2819 -91 2034 -91 
Q 1250 -91 836 529 
Q 422 1150 422 2328 
Q 422 3509 836 4129 
Q 1250 4750 2034 4750 
z
" transform="scale(0.015625)"/>
       </defs>
       <use xlink:href="#DejaVuSans-31"/>
       <use xlink:href="#DejaVuSans-33" x="63.623047"/>
       <use xlink:href="#DejaVuSans-2e" x="127.246094"/>
       <use xlink:href="#DejaVuSans-33" x="159.033203"/>
       <use xlink:href="#DejaVuSans-34" x="222.65625"/>
       <use xlink:href="#DejaVuSans-30" x="286.279297"/>
      </g>
     </g>
    </g>
    <g id="xtick_3">
     <g id="line2d_3">
      <g>
       <use xlink:href="#m853eb6d11c" x="224.04018" y="640.8" style="stroke: #000000; stroke-width: 0.8"/>
      </g>
     </g>
     <g id="text_3">
      <!-- 13.345 -->
      <g transform="translate(206.544867 655.398438) scale(0.1 -0.1)">
       <use xlink:href="#DejaVuSans-31"/>
       <use xlink:href="#DejaVuSans-33" x="63.623047"/>
       <use xlink:href="#DejaVuSans-2e" x="127.246094"/>
       <use xlink:href="#DejaVuSans-33" x="159.033203"/>
       <use xlink:href="#DejaVuSans-34" x="222.65625"/>
       <use xlink:href="#DejaVuSans-35" x="286.279297"/>
      </g>
     </g>
    </g>
    <g id="xtick_4">
     <g id="line2d_4">
      <g>
       <use xlink:href="#m853eb6d11c" x="290.500897" y="640.8" style="stroke: #000000; stroke-width: 0.8"/>
      </g>
     </g>
     <g id="text_4">
      <!-- 13.350 -->
      <g transform="translate(273.005584 655.398438) scale(0.1 -0.1)">
       <use xlink:href="#DejaVuSans-31"/>
       <use xlink:href="#DejaVuSans-33" x="63.623047"/>
       <use xlink:href="#DejaVuSans-2e" x="127.246094"/>
       <use xlink:href="#DejaVuSans-33" x="159.033203"/>
       <use xlink:href="#DejaVuSans-35" x="222.65625"/>
       <use xlink:href="#DejaVuSans-30" x="286.279297"/>
      </g>
     </g>
    </g>
    <g id="xtick_5">
     <g id="line2d_5">
      <g>
       <use xlink:href="#m853eb6d11c" x="356.961614" y="640.8" style="stroke: #000000; stroke-width: 0.8"/>
      </g>
     </g>
     <g id="text_5">
      <!-- 13.355 -->
      <g transform="translate(339.466301 655.398438) scale(0.1 -0.1)">
       <use xlink:href="#DejaVuSans-31"/>
       <use xlink:href="#DejaVuSans-33" x="63.623047"/>
       <use xlink:href="#DejaVuSans-2e" x="127.246094"/>
       <use xlink:href="#DejaVuSans-33" x="159.033203"/>
       <use xlink:href="#DejaVuSans-35" x="222.65625"/>
       <use xlink:href="#DejaVuSans-35" x="286.279297"/>
      </g>
     </g>
    </g>
    <g id="xtick_6">
     <g id="line2d_6">
      <g>
       <use xlink:href="#m853eb6d11c" x="423.42233" y="640.8" style="stroke: #000000; stroke-width: 0.8"/>
      </g>
     </g>
     <g id="text_6">
      <!-- 13.360 -->
      <g transform="translate(405.927018 655.398438) scale(0.1 -0.1)">
       <defs>
        <path id="DejaVuSans-36" d="M 2113 2584 
Q 1688 2584 1439 2293 
Q 1191 2003 1191 1497 
Q 1191 994 1439 701 
Q 1688 409 2113 409 
Q 2538 409 2786 701 
Q 3034 994 3034 1497 
Q 3034 2003 2786 2293 
Q 2538 2584 2113 2584 
z
M 3366 4563 
L 3366 3988 
Q 3128 4100 2886 4159 
Q 2644 4219 2406 4219 
Q 1781 4219 1451 3797 
Q 1122 3375 1075 2522 
Q 1259 2794 1537 2939 
Q 1816 3084 2150 3084 
Q 2853 3084 3261 2657 
Q 3669 2231 3669 1497 
Q 3669 778 3244 343 
Q 2819 -91 2113 -91 
Q 1303 -91 875 529 
Q 447 1150 447 2328 
Q 447 3434 972 4092 
Q 1497 4750 2381 4750 
Q 2619 4750 2861 4703 
Q 3103 4656 3366 4563 
z
" transform="scale(0.015625)"/>
       </defs>
       <use xlink:href="#DejaVuSans-31"/>
       <use xlink:href="#DejaVuSans-33" x="63.623047"/>
       <use xlink:href="#DejaVuSans-2e" x="127.246094"/>
       <use xlink:href="#DejaVuSans-33" x="159.033203"/>
       <use xlink:href="#DejaVuSans-36" x="222.65625"/>
       <use xlink:href="#DejaVuSans-30" x="286.279297"/>
      </g>
     </g>
    </g>
    <g id="xtick_7">
     <g id="line2d_7">
      <g>
       <use xlink:href="#m853eb6d11c" x="489.883047" y="640.8" style="stroke: #000000; stroke-width: 0.8"/>
      </g>
     </g>
     <g id="text_7">
      <!-- 13.365 -->
      <g transform="translate(472.387735 655.398438) scale(0.1 -0.1)">
       <use xlink:href="#DejaVuSans-31"/>
       <use xlink:href="#DejaVuSans-33" x="63.623047"/>
       <use xlink:href="#DejaVuSans-2e" x="127.246094"/>
       <use xlink:href="#DejaVuSans-33" x="159.033203"/>
       <use xlink:href="#DejaVuSans-36" x="222.65625"/>
       <use xlink:href="#DejaVuSans-35" x="286.279297"/>
      </g>
     </g>
    </g>
    <g id="xtick_8">
     <g id="line2d_8">
      <g>
       <use xlink:href="#m853eb6d11c" x="556.343764" y="640.8" style="stroke: #000000; stroke-width: 0.8"/>
      </g>
     </g>
     <g id="text_8">
      <!-- 13.370 -->
      <g transform="translate(538.848452 655.398438) scale(0.1 -0.1)">
       <defs>
        <path id="DejaVuSans-37" d="M 525 4666 
L 3525 4666 
L 3525 4397 
L 1831 0 
L 1172 0 
L 2766 4134 
L 525 4134 
L 525 4666 
z
" transform="scale(0.015625)"/>
       </defs>
       <use xlink:href="#DejaVuSans-31"/>
       <use xlink:href="#DejaVuSans-33" x="63.623047"/>
       <use xlink:href="#DejaVuSans-2e" x="127.246094"/>
       <use xlink:href="#DejaVuSans-33" x="159.033203"/>
       <use xlink:href="#DejaVuSans-37" x="222.65625"/>
       <use xlink:href="#DejaVuSans-30" x="286.279297"/>
      </g>
     </g>
    </g>
    <g id="xtick_9">
     <g id="line2d_9">
      <g>
       <use xlink:href="#m853eb6d11c" x="622.804481" y="640.8" style="stroke: #000000; stroke-width: 0.8"/>
      </g>
     </g>
     <g id="text_9">
      <!-- 13.375 -->
      <g transform="translate(605.309169 655.398438) scale(0.1 -0.1)">
       <use xlink:href="#DejaVuSans-31"/>
       <use xlink:href="#DejaVuSans-33" x="63.623047"/>
       <use xlink:href="#DejaVuSans-2e" x="127.246094"/>
       <use xlink:href="#DejaVuSans-33" x="159.033203"/>
       <use xlink:href="#DejaVuSans-37" x="222.65625"/>
       <use xlink:href="#DejaVuSans-35" x="286.279297"/>
      </g>
     </g>
    </g>
   </g>
   <g id="matplotlib.axis_2">
    <g id="ytick_1">
     <g id="line2d_10">
      <defs>
       <path id="md62480a072" d="M 0 0 
L -3.5 0 
" style="stroke: #000000; stroke-width: 0.8"/>
      </defs>
      <g>
       <use xlink:href="#md62480a072" x="91.057886" y="640.397716" style="stroke: #000000; stroke-width: 0.8"/>
      </g>
     </g>
     <g id="text_10">
      <!-- 52.470 -->
      <g transform="translate(49.067261 644.196935) scale(0.1 -0.1)">
       <defs>
        <path id="DejaVuSans-32" d="M 1228 531 
L 3431 531 
L 3431 0 
L 469 0 
L 469 531 
Q 828 903 1448 1529 
Q 2069 2156 2228 2338 
Q 2531 2678 2651 2914 
Q 2772 3150 2772 3378 
Q 2772 3750 2511 3984 
Q 2250 4219 1831 4219 
Q 1534 4219 1204 4116 
Q 875 4013 500 3803 
L 500 4441 
Q 881 4594 1212 4672 
Q 1544 4750 1819 4750 
Q 2544 4750 2975 4387 
Q 3406 4025 3406 3419 
Q 3406 3131 3298 2873 
Q 3191 2616 2906 2266 
Q 2828 2175 2409 1742 
Q 1991 1309 1228 531 
z
" transform="scale(0.015625)"/>
       </defs>
       <use xlink:href="#DejaVuSans-35"/>
       <use xlink:href="#DejaVuSans-32" x="63.623047"/>
       <use xlink:href="#DejaVuSans-2e" x="127.246094"/>
       <use xlink:href="#DejaVuSans-34" x="159.033203"/>
       <use xlink:href="#DejaVuSans-37" x="222.65625"/>
       <use xlink:href="#DejaVuSans-30" x="286.279297"/>
      </g>
     </g>
    </g>
    <g id="ytick_2">
     <g id="line2d_11">
      <g>
       <use xlink:href="#md62480a072" x="91.057886" y="531.265554" style="stroke: #000000; stroke-width: 0.8"/>
      </g>
     </g>
     <g id="text_11">
      <!-- 52.475 -->
      <g transform="translate(49.067261 535.064773) scale(0.1 -0.1)">
       <use xlink:href="#DejaVuSans-35"/>
       <use xlink:href="#DejaVuSans-32" x="63.623047"/>
       <use xlink:href="#DejaVuSans-2e" x="127.246094"/>
       <use xlink:href="#DejaVuSans-34" x="159.033203"/>
       <use xlink:href="#DejaVuSans-37" x="222.65625"/>
       <use xlink:href="#DejaVuSans-35" x="286.279297"/>
      </g>
     </g>
    </g>
    <g id="ytick_3">
     <g id="line2d_12">
      <g>
       <use xlink:href="#md62480a072" x="91.057886" y="422.133391" style="stroke: #000000; stroke-width: 0.8"/>
      </g>
     </g>
     <g id="text_12">
      <!-- 52.480 -->
      <g transform="translate(49.067261 425.93261) scale(0.1 -0.1)">
       <defs>
        <path id="DejaVuSans-38" d="M 2034 2216 
Q 1584 2216 1326 1975 
Q 1069 1734 1069 1313 
Q 1069 891 1326 650 
Q 1584 409 2034 409 
Q 2484 409 2743 651 
Q 3003 894 3003 1313 
Q 3003 1734 2745 1975 
Q 2488 2216 2034 2216 
z
M 1403 2484 
Q 997 2584 770 2862 
Q 544 3141 544 3541 
Q 544 4100 942 4425 
Q 1341 4750 2034 4750 
Q 2731 4750 3128 4425 
Q 3525 4100 3525 3541 
Q 3525 3141 3298 2862 
Q 3072 2584 2669 2484 
Q 3125 2378 3379 2068 
Q 3634 1759 3634 1313 
Q 3634 634 3220 271 
Q 2806 -91 2034 -91 
Q 1263 -91 848 271 
Q 434 634 434 1313 
Q 434 1759 690 2068 
Q 947 2378 1403 2484 
z
M 1172 3481 
Q 1172 3119 1398 2916 
Q 1625 2713 2034 2713 
Q 2441 2713 2670 2916 
Q 2900 3119 2900 3481 
Q 2900 3844 2670 4047 
Q 2441 4250 2034 4250 
Q 1625 4250 1398 4047 
Q 1172 3844 1172 3481 
z
" transform="scale(0.015625)"/>
       </defs>
       <use xlink:href="#DejaVuSans-35"/>
       <use xlink:href="#DejaVuSans-32" x="63.623047"/>
       <use xlink:href="#DejaVuSans-2e" x="127.246094"/>
       <use xlink:href="#DejaVuSans-34" x="159.033203"/>
       <use xlink:href="#DejaVuSans-38" x="222.65625"/>
       <use xlink:href="#DejaVuSans-30" x="286.279297"/>
      </g>
     </g>
    </g>
    <g id="ytick_4">
     <g id="line2d_13">
      <g>
       <use xlink:href="#md62480a072" x="91.057886" y="313.001229" style="stroke: #000000; stroke-width: 0.8"/>
      </g>
     </g>
     <g id="text_13">
      <!-- 52.485 -->
      <g transform="translate(49.067261 316.800448) scale(0.1 -0.1)">
       <use xlink:href="#DejaVuSans-35"/>
       <use xlink:href="#DejaVuSans-32" x="63.623047"/>
       <use xlink:href="#DejaVuSans-2e" x="127.246094"/>
       <use xlink:href="#DejaVuSans-34" x="159.033203"/>
       <use xlink:href="#DejaVuSans-38" x="222.65625"/>
       <use xlink:href="#DejaVuSans-35" x="286.279297"/>
      </g>
     </g>
    </g>
    <g id="ytick_5">
     <g id="line2d_14">
      <g>
       <use xlink:href="#md62480a072" x="91.057886" y="203.869066" style="stroke: #000000; stroke-width: 0.8"/>
      </g>
     </g>
     <g id="text_14">
      <!-- 52.490 -->
      <g transform="translate(49.067261 207.668285) scale(0.1 -0.1)">
       <defs>
        <path id="DejaVuSans-39" d="M 703 97 
L 703 672 
Q 941 559 1184 500 
Q 1428 441 1663 441 
Q 2288 441 2617 861 
Q 2947 1281 2994 2138 
Q 2813 1869 2534 1725 
Q 2256 1581 1919 1581 
Q 1219 1581 811 2004 
Q 403 2428 403 3163 
Q 403 3881 828 4315 
Q 1253 4750 1959 4750 
Q 2769 4750 3195 4129 
Q 3622 3509 3622 2328 
Q 3622 1225 3098 567 
Q 2575 -91 1691 -91 
Q 1453 -91 1209 -44 
Q 966 3 703 97 
z
M 1959 2075 
Q 2384 2075 2632 2365 
Q 2881 2656 2881 3163 
Q 2881 3666 2632 3958 
Q 2384 4250 1959 4250 
Q 1534 4250 1286 3958 
Q 1038 3666 1038 3163 
Q 1038 2656 1286 2365 
Q 1534 2075 1959 2075 
z
" transform="scale(0.015625)"/>
       </defs>
       <use xlink:href="#DejaVuSans-35"/>
       <use xlink:href="#DejaVuSans-32" x="63.623047"/>
       <use xlink:href="#DejaVuSans-2e" x="127.246094"/>
       <use xlink:href="#DejaVuSans-34" x="159.033203"/>
       <use xlink:href="#DejaVuSans-39" x="222.65625"/>
       <use xlink:href="#DejaVuSans-30" x="286.279297"/>
      </g>
     </g>
    </g>
    <g id="ytick_6">
     <g id="line2d_15">
      <g>
       <use xlink:href="#md62480a072" x="91.057886" y="94.736904" style="stroke: #000000; stroke-width: 0.8"/>
      </g>
     </g>
     <g id="text_15">
      <!-- 52.495 -->
      <g transform="translate(49.067261 98.536123) scale(0.1 -0.1)">
       <use xlink:href="#DejaVuSans-35"/>
       <use xlink:href="#DejaVuSans-32" x="63.623047"/>
       <use xlink:href="#DejaVuSans-2e" x="127.246094"/>
       <use xlink:href="#DejaVuSans-34" x="159.033203"/>
       <use xlink:href="#DejaVuSans-39" x="222.65625"/>
       <use xlink:href="#DejaVuSans-35" x="286.279297"/>
      </g>
     </g>
    </g>
   </g>
   <g id="LineCollection_1">
    <path d="M 466.958088 537.946625 
L 468.157039 535.240147 
L 468.659482 534.039693 
L 469.055588 533.138262 
L 469.817228 531.795936 
L 470.508419 531.341946 
L 471.815037 530.811564 
L 474.062738 529.969064 
" clip-path="url(#pc06beb6794)" style="fill: none; stroke: #ff0000; stroke-opacity: 0.7; stroke-width: 0.5"/>
    <path d="M 474.062738 529.969064 
L 475.647162 529.410307 
L 479.108436 526.928642 
L 481.171377 521.736133 
L 481.191315 520.777953 
L 480.664946 520.149352 
L 478.162035 519.276294 
" clip-path="url(#pc06beb6794)" style="fill: none; stroke: #ff0000; stroke-opacity: 0.7; stroke-width: 0.5"/>
    <path d="M 448.382317 535.384202 
L 450.530328 531.872329 
L 462.744478 511.28782 
L 463.324016 510.327457 
L 464.986863 507.575144 
" clip-path="url(#pc06beb6794)" style="fill: none; stroke: #ff0000; stroke-opacity: 0.7; stroke-width: 0.5"/>
    <path d="M 463.443645 506.592954 
L 461.8446 509.41293 
L 454.735962 521.45239 
L 452.746128 524.030091 
" clip-path="url(#pc06beb6794)" style="fill: none; stroke: #ff0000; stroke-opacity: 0.7; stroke-width: 0.5"/>
    <path d="M 425.725859 484.190304 
L 427.544224 485.327461 
L 428.478662 485.825104 
L 432.422441 488.16708 
L 433.651964 488.898266 
L 438.204523 491.602561 
L 449.022999 498.017349 
" clip-path="url(#pc06beb6794)" style="fill: none; stroke: #ff0000; stroke-opacity: 0.7; stroke-width: 0.5"/>
    <path d="M 486.820537 513.308948 
L 485.596331 516.724784 
L 484.990209 516.484694 
L 484.510363 516.294804 
L 484.348199 516.705141 
L 483.945447 516.537077 
L 482.822261 519.367965 
L 484.047796 519.854695 
L 483.726126 520.732117 
L 482.936573 520.413452 
L 482.475336 520.227927 
L 481.784144 519.985653 
L 479.904635 519.298121 
L 477.339252 518.359584 
L 477.999871 516.42358 
L 478.180644 515.939033 
L 478.345467 515.500322 
L 478.447816 515.231856 
L 478.519594 515.039784 
L 481.632614 506.688991 
L 481.845288 505.944709 
L 479.904635 500.832959 
L 478.986148 498.338198 
L 477.776563 495.158086 
L 477.303363 493.979459 
L 477.453564 493.662976 
L 477.694152 493.243908 
L 479.045963 492.942704 
L 479.399534 493.80703 
L 480.520062 496.751416 
L 480.845719 497.657213 
L 481.188656 498.506261 
L 482.152337 501.038127 
L 482.6375 502.312791 
L 486.820537 513.308948 
" clip-path="url(#pc06beb6794)" style="fill: none; stroke: #ff0000; stroke-opacity: 0.7; stroke-width: 0.5"/>
    <path d="M 383.979224 459.443495 
L 386.10198 460.700698 
L 393.907126 465.327901 
L 395.110065 466.041626 
L 395.874363 466.495615 
L 404.185941 471.421841 
L 404.381335 471.537521 
L 416.035886 478.445587 
L 422.768357 482.437642 
L 423.71077 483.048782 
L 425.725859 484.190304 
" clip-path="url(#pc06beb6794)" style="fill: none; stroke: #ff0000; stroke-opacity: 0.7; stroke-width: 0.5"/>
    <path d="M 377.630897 455.881421 
L 377.113832 455.602043 
L 376.256489 455.097852 
L 366.751277 449.49719 
L 366.462838 449.326944 
L 359.140196 445.022771 
L 358.702884 444.78268 
L 357.497287 444.221741 
L 355.561951 443.510199 
L 353.65187 443.060575 
L 351.720521 442.80084 
L 350.03109 442.724448 
L 348.527749 442.831397 
L 347.475011 442.960173 
" clip-path="url(#pc06beb6794)" style="fill: none; stroke: #ff0000; stroke-opacity: 0.7; stroke-width: 0.5"/>
    <path d="M 454.422267 501.232383 
L 455.165298 501.673277 
L 460.876932 505.065104 
L 461.64123 505.521277 
L 463.443645 506.592954 
" clip-path="url(#pc06beb6794)" style="fill: none; stroke: #ff0000; stroke-opacity: 0.7; stroke-width: 0.5"/>
    <path d="M 478.162035 519.276294 
L 474.706078 528.631103 
L 474.062738 529.969064 
" clip-path="url(#pc06beb6794)" style="fill: none; stroke: #ff0000; stroke-opacity: 0.7; stroke-width: 0.5"/>
    <path d="M 524.834738 402.415392 
L 512.317527 398.947172 
L 510.075142 398.720177 
L 507.977642 398.181064 
L 507.5071 397.906051 
" clip-path="url(#pc06beb6794)" style="fill: none; stroke: #ff0000; stroke-opacity: 0.7; stroke-width: 0.5"/>
    <path d="M 429.110039 430.824677 
L 432.223059 432.66901 
L 442.290528 438.625444 
L 451.71067 443.800491 
L 460.785216 450.112695 
L 466.213728 453.786084 
L 467.120252 455.117496 
L 467.146836 459.858197 
L 459.825524 453.347372 
L 457.638966 452.208033 
L 453.422698 450.509936 
L 448.29326 447.716153 
L 442.124376 443.844144 
L 439.103072 442.028185 
L 433.453911 438.926648 
L 427.965585 435.74872 
L 428.190222 431.344146 
L 429.110039 430.824677 
" clip-path="url(#pc06beb6794)" style="fill: none; stroke: #ff0000; stroke-opacity: 0.7; stroke-width: 0.5"/>
    <path d="M 504.459212 397.460792 
L 504.221282 397.196692 
L 493.759036 394.385448 
L 485.918001 392.220266 
L 471.393676 392.056567 
" clip-path="url(#pc06beb6794)" style="fill: none; stroke: #ff0000; stroke-opacity: 0.7; stroke-width: 0.5"/>
    <path d="M 471.393676 392.056567 
L 471.31924 399.704549 
L 485.689376 399.82896 
L 489.444407 399.78749 
L 489.380604 394.202106 
L 489.440419 392.161334 
L 487.501095 391.227163 
L 471.397664 391.176962 
L 471.393676 392.056567 
" clip-path="url(#pc06beb6794)" style="fill: none; stroke: #ff0000; stroke-opacity: 0.7; stroke-width: 0.5"/>
    <path d="M 594.795277 251.590378 
L 593.329153 251.363384 
L 589.964912 251.099284 
L 590.399565 247.329859 
L 591.215702 230.434017 
L 591.243616 229.13971 
L 593.908691 178.253565 
L 594.089464 172.941012 
L 594.613174 157.494445 
L 596.117845 157.983357 
L 597.076208 158.295475 
L 605.992578 161.18966 
L 621.57097 166.249027 
L 621.597554 166.97803 
L 621.674649 169.058089 
L 621.62148 172.447734 
L 620.730907 175.959607 
L 618.707842 181.813456 
L 616.202273 188.791367 
L 613.760507 195.68852 
L 611.144613 202.926165 
L 608.538024 210.179088 
L 607.809614 212.202398 
L 604.588928 221.159966 
L 602.766575 226.562008 
L 601.623451 231.416207 
L 600.849848 233.94589 
L 595.9065 247.718369 
L 599.172379 247.960643 
L 598.069131 251.699511 
L 597.110768 251.762807 
L 596.54851 251.708241 
L 594.795277 251.590378 
" clip-path="url(#pc06beb6794)" style="fill: none; stroke: #ff0000; stroke-opacity: 0.7; stroke-width: 0.5"/>
    <path d="M 452.746128 524.030091 
L 450.147514 528.142191 
L 446.393813 534.13573 
" clip-path="url(#pc06beb6794)" style="fill: none; stroke: #ff0000; stroke-opacity: 0.7; stroke-width: 0.5"/>
    <path d="M 470.667925 392.043471 
L 469.825203 392.028193 
L 469.656393 392.023828 
L 469.18718 392.015097 
" clip-path="url(#pc06beb6794)" style="fill: none; stroke: #ff0000; stroke-opacity: 0.7; stroke-width: 0.5"/>
    <path d="M 449.022999 498.017349 
L 452.45503 500.060303 
L 454.422267 501.232383 
" clip-path="url(#pc06beb6794)" style="fill: none; stroke: #ff0000; stroke-opacity: 0.7; stroke-width: 0.5"/>
    <path d="M 383.979224 459.443495 
L 377.630897 455.881421 
" clip-path="url(#pc06beb6794)" style="fill: none; stroke: #ff0000; stroke-opacity: 0.7; stroke-width: 0.5"/>
    <path d="M 471.393676 392.056567 
L 470.667925 392.043471 
" clip-path="url(#pc06beb6794)" style="fill: none; stroke: #ff0000; stroke-opacity: 0.7; stroke-width: 0.5"/>
    <path d="M 446.393813 534.13573 
L 445.947197 534.836358 
L 445.306515 535.777077 
L 444.409296 537.093211 
" clip-path="url(#pc06beb6794)" style="fill: none; stroke: #ff0000; stroke-opacity: 0.7; stroke-width: 0.5"/>
    <path d="M 446.687569 538.143063 
L 447.635299 536.599934 
L 448.152363 535.757434 
L 448.382317 535.384202 
" clip-path="url(#pc06beb6794)" style="fill: none; stroke: #ff0000; stroke-opacity: 0.7; stroke-width: 0.5"/>
    <path d="M 464.407325 543.669515 
L 464.905781 542.562915 
L 465.388286 541.491237 
" clip-path="url(#pc06beb6794)" style="fill: none; stroke: #ff0000; stroke-opacity: 0.7; stroke-width: 0.5"/>
    <path d="M 465.388286 541.491237 
L 466.958088 537.946625 
" clip-path="url(#pc06beb6794)" style="fill: none; stroke: #ff0000; stroke-opacity: 0.7; stroke-width: 0.5"/>
    <path d="M 347.475011 442.960173 
L 346.976555 443.069305 
L 346.399676 443.219908 
L 345.134264 443.51893 
" clip-path="url(#pc06beb6794)" style="fill: none; stroke: #ff0000; stroke-opacity: 0.7; stroke-width: 0.5"/>
   </g>
   <g id="patch_3">
    <path d="M 91.057886 640.8 
L 91.057886 86.4 
" style="fill: none; stroke: #000000; stroke-width: 0.8; stroke-linejoin: miter; stroke-linecap: square"/>
   </g>
   <g id="patch_4">
    <path d="M 646.942114 640.8 
L 646.942114 86.4 
" style="fill: none; stroke: #000000; stroke-width: 0.8; stroke-linejoin: miter; stroke-linecap: square"/>
   </g>
   <g id="patch_5">
    <path d="M 91.057886 640.8 
L 646.942114 640.8 
" style="fill: none; stroke: #000000; stroke-width: 0.8; stroke-linejoin: miter; stroke-linecap: square"/>
   </g>
   <g id="patch_6">
    <path d="M 91.057886 86.4 
L 646.942114 86.4 
" style="fill: none; stroke: #000000; stroke-width: 0.8; stroke-linejoin: miter; stroke-linecap: square"/>
   </g>
   <g id="text_16">
    <!-- Schöneberg_Süd -->
    <g transform="translate(287.403487 335.638519) scale(0.12 -0.12)">
     <defs>
      <path id="DejaVuSans-53" d="M 3425 4513 
L 3425 3897 
Q 3066 4069 2747 4153 
Q 2428 4238 2131 4238 
Q 1616 4238 1336 4038 
Q 1056 3838 1056 3469 
Q 1056 3159 1242 3001 
Q 1428 2844 1947 2747 
L 2328 2669 
Q 3034 2534 3370 2195 
Q 3706 1856 3706 1288 
Q 3706 609 3251 259 
Q 2797 -91 1919 -91 
Q 1588 -91 1214 -16 
Q 841 59 441 206 
L 441 856 
Q 825 641 1194 531 
Q 1563 422 1919 422 
Q 2459 422 2753 634 
Q 3047 847 3047 1241 
Q 3047 1584 2836 1778 
Q 2625 1972 2144 2069 
L 1759 2144 
Q 1053 2284 737 2584 
Q 422 2884 422 3419 
Q 422 4038 858 4394 
Q 1294 4750 2059 4750 
Q 2388 4750 2728 4690 
Q 3069 4631 3425 4513 
z
" transform="scale(0.015625)"/>
      <path id="DejaVuSans-63" d="M 3122 3366 
L 3122 2828 
Q 2878 2963 2633 3030 
Q 2388 3097 2138 3097 
Q 1578 3097 1268 2742 
Q 959 2388 959 1747 
Q 959 1106 1268 751 
Q 1578 397 2138 397 
Q 2388 397 2633 464 
Q 2878 531 3122 666 
L 3122 134 
Q 2881 22 2623 -34 
Q 2366 -91 2075 -91 
Q 1284 -91 818 406 
Q 353 903 353 1747 
Q 353 2603 823 3093 
Q 1294 3584 2113 3584 
Q 2378 3584 2631 3529 
Q 2884 3475 3122 3366 
z
" transform="scale(0.015625)"/>
      <path id="DejaVuSans-68" d="M 3513 2113 
L 3513 0 
L 2938 0 
L 2938 2094 
Q 2938 2591 2744 2837 
Q 2550 3084 2163 3084 
Q 1697 3084 1428 2787 
Q 1159 2491 1159 1978 
L 1159 0 
L 581 0 
L 581 4863 
L 1159 4863 
L 1159 2956 
Q 1366 3272 1645 3428 
Q 1925 3584 2291 3584 
Q 2894 3584 3203 3211 
Q 3513 2838 3513 2113 
z
" transform="scale(0.015625)"/>
      <path id="DejaVuSans-f6" d="M 1959 3097 
Q 1497 3097 1228 2736 
Q 959 2375 959 1747 
Q 959 1119 1226 758 
Q 1494 397 1959 397 
Q 2419 397 2687 759 
Q 2956 1122 2956 1747 
Q 2956 2369 2687 2733 
Q 2419 3097 1959 3097 
z
M 1959 3584 
Q 2709 3584 3137 3096 
Q 3566 2609 3566 1747 
Q 3566 888 3137 398 
Q 2709 -91 1959 -91 
Q 1206 -91 779 398 
Q 353 888 353 1747 
Q 353 2609 779 3096 
Q 1206 3584 1959 3584 
z
M 2254 4850 
L 2888 4850 
L 2888 4219 
L 2254 4219 
L 2254 4850 
z
M 1032 4850 
L 1666 4850 
L 1666 4219 
L 1032 4219 
L 1032 4850 
z
" transform="scale(0.015625)"/>
      <path id="DejaVuSans-6e" d="M 3513 2113 
L 3513 0 
L 2938 0 
L 2938 2094 
Q 2938 2591 2744 2837 
Q 2550 3084 2163 3084 
Q 1697 3084 1428 2787 
Q 1159 2491 1159 1978 
L 1159 0 
L 581 0 
L 581 3500 
L 1159 3500 
L 1159 2956 
Q 1366 3272 1645 3428 
Q 1925 3584 2291 3584 
Q 2894 3584 3203 3211 
Q 3513 2838 3513 2113 
z
" transform="scale(0.015625)"/>
      <path id="DejaVuSans-65" d="M 3597 1894 
L 3597 1613 
L 953 1613 
Q 991 1019 1311 708 
Q 1631 397 2203 397 
Q 2534 397 2845 478 
Q 3156 559 3463 722 
L 3463 178 
Q 3153 47 2828 -22 
Q 2503 -91 2169 -91 
Q 1331 -91 842 396 
Q 353 884 353 1716 
Q 353 2575 817 3079 
Q 1281 3584 2069 3584 
Q 2775 3584 3186 3129 
Q 3597 2675 3597 1894 
z
M 3022 2063 
Q 3016 2534 2758 2815 
Q 2500 3097 2075 3097 
Q 1594 3097 1305 2825 
Q 1016 2553 972 2059 
L 3022 2063 
z
" transform="scale(0.015625)"/>
      <path id="DejaVuSans-62" d="M 3116 1747 
Q 3116 2381 2855 2742 
Q 2594 3103 2138 3103 
Q 1681 3103 1420 2742 
Q 1159 2381 1159 1747 
Q 1159 1113 1420 752 
Q 1681 391 2138 391 
Q 2594 391 2855 752 
Q 3116 1113 3116 1747 
z
M 1159 2969 
Q 1341 3281 1617 3432 
Q 1894 3584 2278 3584 
Q 2916 3584 3314 3078 
Q 3713 2572 3713 1747 
Q 3713 922 3314 415 
Q 2916 -91 2278 -91 
Q 1894 -91 1617 61 
Q 1341 213 1159 525 
L 1159 0 
L 581 0 
L 581 4863 
L 1159 4863 
L 1159 2969 
z
" transform="scale(0.015625)"/>
      <path id="DejaVuSans-72" d="M 2631 2963 
Q 2534 3019 2420 3045 
Q 2306 3072 2169 3072 
Q 1681 3072 1420 2755 
Q 1159 2438 1159 1844 
L 1159 0 
L 581 0 
L 581 3500 
L 1159 3500 
L 1159 2956 
Q 1341 3275 1631 3429 
Q 1922 3584 2338 3584 
Q 2397 3584 2469 3576 
Q 2541 3569 2628 3553 
L 2631 2963 
z
" transform="scale(0.015625)"/>
      <path id="DejaVuSans-67" d="M 2906 1791 
Q 2906 2416 2648 2759 
Q 2391 3103 1925 3103 
Q 1463 3103 1205 2759 
Q 947 2416 947 1791 
Q 947 1169 1205 825 
Q 1463 481 1925 481 
Q 2391 481 2648 825 
Q 2906 1169 2906 1791 
z
M 3481 434 
Q 3481 -459 3084 -895 
Q 2688 -1331 1869 -1331 
Q 1566 -1331 1297 -1286 
Q 1028 -1241 775 -1147 
L 775 -588 
Q 1028 -725 1275 -790 
Q 1522 -856 1778 -856 
Q 2344 -856 2625 -561 
Q 2906 -266 2906 331 
L 2906 616 
Q 2728 306 2450 153 
Q 2172 0 1784 0 
Q 1141 0 747 490 
Q 353 981 353 1791 
Q 353 2603 747 3093 
Q 1141 3584 1784 3584 
Q 2172 3584 2450 3431 
Q 2728 3278 2906 2969 
L 2906 3500 
L 3481 3500 
L 3481 434 
z
" transform="scale(0.015625)"/>
      <path id="DejaVuSans-5f" d="M 3263 -1063 
L 3263 -1509 
L -63 -1509 
L -63 -1063 
L 3263 -1063 
z
" transform="scale(0.015625)"/>
      <path id="DejaVuSans-fc" d="M 544 1381 
L 544 3500 
L 1119 3500 
L 1119 1403 
Q 1119 906 1312 657 
Q 1506 409 1894 409 
Q 2359 409 2629 706 
Q 2900 1003 2900 1516 
L 2900 3500 
L 3475 3500 
L 3475 0 
L 2900 0 
L 2900 538 
Q 2691 219 2414 64 
Q 2138 -91 1772 -91 
Q 1169 -91 856 284 
Q 544 659 544 1381 
z
M 1991 3584 
L 1991 3584 
z
M 2278 4850 
L 2912 4850 
L 2912 4219 
L 2278 4219 
L 2278 4850 
z
M 1056 4850 
L 1690 4850 
L 1690 4219 
L 1056 4219 
L 1056 4850 
z
" transform="scale(0.015625)"/>
      <path id="DejaVuSans-64" d="M 2906 2969 
L 2906 4863 
L 3481 4863 
L 3481 0 
L 2906 0 
L 2906 525 
Q 2725 213 2448 61 
Q 2172 -91 1784 -91 
Q 1150 -91 751 415 
Q 353 922 353 1747 
Q 353 2572 751 3078 
Q 1150 3584 1784 3584 
Q 2172 3584 2448 3432 
Q 2725 3281 2906 2969 
z
M 947 1747 
Q 947 1113 1208 752 
Q 1469 391 1925 391 
Q 2381 391 2643 752 
Q 2906 1113 2906 1747 
Q 2906 2381 2643 2742 
Q 2381 3103 1925 3103 
Q 1469 3103 1208 2742 
Q 947 2381 947 1747 
z
" transform="scale(0.015625)"/>
     </defs>
     <use xlink:href="#DejaVuSans-53"/>
     <use xlink:href="#DejaVuSans-63" x="63.476562"/>
     <use xlink:href="#DejaVuSans-68" x="118.457031"/>
     <use xlink:href="#DejaVuSans-f6" x="181.835938"/>
     <use xlink:href="#DejaVuSans-6e" x="243.017578"/>
     <use xlink:href="#DejaVuSans-65" x="306.396484"/>
     <use xlink:href="#DejaVuSans-62" x="367.919922"/>
     <use xlink:href="#DejaVuSans-65" x="431.396484"/>
     <use xlink:href="#DejaVuSans-72" x="492.919922"/>
     <use xlink:href="#DejaVuSans-67" x="532.283203"/>
     <use xlink:href="#DejaVuSans-5f" x="595.759766"/>
     <use xlink:href="#DejaVuSans-53" x="645.759766"/>
     <use xlink:href="#DejaVuSans-fc" x="709.236328"/>
     <use xlink:href="#DejaVuSans-64" x="772.615234"/>
    </g>
   </g>
  </g>
 </g>
 <defs>
  <clipPath id="pc06beb6794">
   <rect x="91.057886" y="86.4" width="555.884227" height="554.4"/>
  </clipPath>
 </defs>
</svg>
