<?xml version="1.0" encoding="utf-8" standalone="no"?>
<!DOCTYPE svg PUBLIC "-//W3C//DTD SVG 1.1//EN"
  "http://www.w3.org/Graphics/SVG/1.1/DTD/svg11.dtd">
<svg xmlns:xlink="http://www.w3.org/1999/xlink" width="460.8pt" height="345.6pt" viewBox="0 0 460.8 345.6" xmlns="http://www.w3.org/2000/svg" version="1.1">
 <metadata>
  <rdf:RDF xmlns:dc="http://purl.org/dc/elements/1.1/" xmlns:cc="http://creativecommons.org/ns#" xmlns:rdf="http://www.w3.org/1999/02/22-rdf-syntax-ns#">
   <cc:Work>
    <dc:type rdf:resource="http://purl.org/dc/dcmitype/StillImage"/>
    <dc:date>2024-10-17T11:33:15.812229</dc:date>
    <dc:format>image/svg+xml</dc:format>
    <dc:creator>
     <cc:Agent>
      <dc:title>Matplotlib v3.9.2, https://matplotlib.org/</dc:title>
     </cc:Agent>
    </dc:creator>
   </cc:Work>
  </rdf:RDF>
 </metadata>
 <defs>
  <style type="text/css">*{stroke-linejoin: round; stroke-linecap: butt}</style>
 </defs>
 <g id="figure_1">
  <g id="patch_1">
   <path d="M 0 345.6 
L 460.8 345.6 
L 460.8 0 
L 0 0 
z
" style="fill: #ffffff"/>
  </g>
  <g id="axes_1">
   <g id="patch_2">
    <path d="M 57.6 302.348476 
L 414.72 302.348476 
L 414.72 46.707524 
L 57.6 46.707524 
z
" style="fill: #ffffff"/>
   </g>
   <g id="PatchCollection_1">
    <path d="M 110.388929 59.321219 
L 109.81581 60.193067 
L 109.764379 60.271294 
L 109.627661 60.479322 
L 109.339591 60.918076 
L 109.027387 61.393477 
L 108.842873 61.674303 
L 108.740017 61.831 
L 106.760918 64.840178 
L 106.485956 65.258216 
L 106.135322 65.791739 
L 106.09842 65.84788 
L 105.74755 66.381652 
L 105.462401 66.815358 
L 105.211928 67.196256 
L 104.750701 67.897836 
L 102.047078 72.009611 
L 101.639168 72.630371 
L 100.727034 74.017501 
L 100.294635 74.67516 
L 99.861653 75.333804 
L 99.580727 75.760976 
L 99.560813 75.791328 
L 99.293016 76.198876 
L 99.057199 76.557687 
L 98.319641 77.679897 
L 98.300434 77.709383 
L 98.226868 77.821417 
L 98.00276 78.162096 
L 95.974706 81.24693 
L 94.987749 82.748199 
L 94.302323 83.790773 
L 93.729251 84.662454 
L 93.612619 84.839848 
L 92.708212 86.215429 
L 92.234919 86.934067 
L 90.370597 89.765668 
L 89.347295 91.319674 
L 87.349928 94.364338 
L 87.297801 94.443677 
L 87.124197 94.707732 
L 81.518306 103.233039 
L 81.243385 103.651332 
L 79.758184 105.910008 
L 78.562211 107.72904 
L 78.302747 108.123403 
L 76.963523 110.160226 
L 76.60417 110.7077 
L 75.591937 112.249688 
L 75.201195 112.844916 
L 73.832727 115.77121 
L 76.243962 117.354587 
L 78.292458 118.699905 
L 80.52624 120.174504 
L 81.052829 120.521926 
L 81.367678 120.728777 
L 82.195045 121.272195 
L 84.641928 122.878965 
L 84.731159 122.937423 
L 85.28209 123.299841 
L 85.359633 123.350791 
L 85.776639 123.624796 
L 85.863413 123.681852 
L 86.374211 124.017613 
L 86.499993 124.099896 
L 88.324444 125.298519 
L 89.835402 126.291355 
L 89.608187 126.92351 
L 89.015297 128.572462 
L 89.669628 130.676409 
L 90.387222 132.983792 
L 89.693866 134.929622 
L 83.635134 151.93194 
L 82.94159 153.878269 
L 82.028303 156.976443 
L 81.964034 157.265804 
L 81.254027 160.474246 
L 80.762389 160.359212 
L 80.392277 162.025878 
L 79.687908 165.220581 
L 78.974951 168.426299 
L 78.261584 171.634944 
L 77.550879 174.827244 
L 76.766242 178.357374 
L 76.536193 179.366066 
L 77.176091 179.408408 
L 77.124938 181.155207 
L 76.348216 181.103386 
L 76.399909 182.55167 
L 76.502837 185.433666 
L 76.472555 185.434608 
L 76.56568 188.042927 
L 76.658808 190.651367 
L 76.750557 193.220953 
L 76.834984 195.587893 
L 77.592051 195.560573 
L 77.594775 195.636946 
L 77.626004 196.526958 
L 77.637223 196.846537 
L 77.773396 203.646386 
L 78.029284 203.530869 
L 78.920502 203.127999 
L 81.439368 203.154198 
L 84.295487 203.210684 
L 84.584282 203.470732 
L 84.745429 203.615875 
L 88.982058 204.678593 
L 90.571171 204.736659 
L 92.324875 204.917989 
L 93.204833 205.006701 
L 93.293215 205.00758 
L 94.460222 205.0181 
L 94.598068 205.019418 
L 95.157846 205.036649 
L 97.235802 205.102488 
L 98.548047 205.114286 
L 98.629034 205.115093 
L 101.551159 205.136214 
L 101.866381 205.134297 
L 103.109819 205.147813 
L 103.225481 205.149036 
L 105.134629 205.084393 
L 106.218475 205.052133 
L 107.499885 205.061867 
L 107.570806 205.06242 
L 108.650988 204.954908 
L 110.406954 204.780311 
L 110.47133 204.780894 
L 111.860762 204.791673 
L 114.222449 203.681906 
L 114.976993 203.624191 
L 116.954738 203.474279 
L 117.076332 203.475126 
L 117.972484 203.482449 
L 117.973505 203.442324 
L 123.966895 203.491549 
L 124.420431 203.495454 
L 126.388777 203.512029 
L 127.087934 203.518063 
L 127.45249 203.521466 
L 128.932903 203.535296 
L 130.270502 203.547919 
L 132.33275 203.562961 
L 132.709531 203.565599 
L 133.547715 203.571605 
L 134.360689 203.577705 
L 134.640974 203.579768 
L 136.124593 203.590748 
L 136.425002 203.592957 
L 136.814154 203.595922 
L 137.184636 203.598708 
L 139.810532 203.620022 
L 140.944177 203.629213 
L 141.563432 203.634184 
L 141.980227 203.637489 
L 143.243472 203.647839 
L 149.349362 203.337349 
L 149.127239 203.801305 
L 149.094605 203.869011 
L 148.669438 204.756626 
L 148.437011 205.24172 
L 148.208523 205.718824 
L 147.337838 207.53669 
L 147.082285 208.070559 
L 146.639417 208.994794 
L 145.124827 212.157477 
L 144.284228 213.912074 
L 144.175017 214.14 
L 142.960812 217.525702 
L 142.857822 221.95524 
L 142.808017 224.050397 
L 143.292472 224.060776 
L 143.228376 226.755712 
L 143.199687 227.505049 
L 143.187356 228.482222 
L 143.110272 231.642996 
L 143.080489 232.874787 
L 143.014332 235.65447 
L 142.979315 237.161014 
L 142.908335 240.254692 
L 142.880739 241.486676 
L 142.809389 244.643673 
L 142.686832 249.844943 
L 142.57973 254.407277 
L 142.504829 257.56788 
L 142.417543 261.305497 
L 142.227887 269.488803 
L 142.209892 270.170329 
L 144.903278 270.012816 
L 148.879051 269.781267 
L 149.237071 269.760285 
L 149.282578 269.757539 
L 149.352049 270.188429 
L 151.50206 269.837572 
L 153.652073 269.486722 
L 154.420747 269.361289 
L 155.807884 269.134896 
L 161.778807 268.15988 
L 164.247358 267.756799 
L 166.48516 267.391223 
L 166.882776 267.326083 
L 168.902011 266.995423 
L 171.110827 266.634052 
L 171.430928 266.581752 
L 175.188573 265.967249 
L 178.415976 265.437345 
L 179.410428 265.273718 
L 180.409949 265.109126 
L 182.566044 264.763103 
L 185.227623 264.325186 
L 185.60301 264.262998 
L 187.994784 263.866636 
L 191.045342 263.377549 
L 195.206247 262.693669 
L 199.561673 261.950684 
L 200.188244 261.84849 
L 202.054947 261.540025 
L 202.583565 261.452713 
L 203.742952 261.261172 
L 205.509076 260.969235 
L 205.762397 260.927351 
L 207.2118 260.687814 
L 208.515369 260.472381 
L 208.866831 260.413186 
L 212.260896 259.838705 
L 214.520866 259.45409 
L 216.083971 259.187848 
L 216.094405 258.745768 
L 219.066184 258.259963 
L 219.364435 258.211104 
L 223.157637 258.015698 
L 223.415693 257.974078 
L 225.776964 257.593269 
L 227.663905 257.288918 
L 232.179846 256.560615 
L 232.690807 256.474584 
L 234.497943 256.151419 
L 237.843532 255.457523 
L 244.271841 254.12269 
L 244.889593 253.994376 
L 248.107422 253.3201 
L 249.80616 252.967493 
L 258.31943 251.200563 
L 260.052199 250.840892 
L 261.218479 250.598877 
L 264.428166 249.932774 
L 265.399297 249.251059 
L 269.725091 251.329227 
L 270.226513 251.603019 
L 269.103701 253.657814 
L 268.674267 254.443607 
L 269.662313 255.463553 
L 270.083363 255.858213 
L 270.118554 255.902981 
L 270.214096 255.96351 
L 267.848249 258.455875 
L 269.473586 260.091339 
L 269.745203 260.364893 
L 271.313598 261.942843 
L 273.454478 264.097135 
L 274.540423 265.190275 
L 274.737497 265.388728 
L 275.496246 266.151614 
L 277.844961 268.515431 
L 278.121023 268.792897 
L 279.930026 270.595897 
L 281.87785 272.574662 
L 283.820107 274.552413 
L 284.940392 275.413497 
L 288.035243 277.792317 
L 294.747422 283.860554 
L 295.056265 284.141294 
L 295.095863 284.188151 
L 295.128909 284.240018 
L 295.411142 284.303236 
L 297.508939 284.681403 
L 297.53261 284.681461 
L 299.39093 284.686031 
L 301.641866 284.697375 
L 301.761295 284.714511 
L 304.097281 284.709918 
L 305.109359 284.715012 
L 307.015341 284.724729 
L 308.869487 284.741339 
L 310.831813 284.745172 
L 312.808679 284.748924 
L 314.895822 284.752247 
L 316.992108 284.752575 
L 319.732608 284.761511 
L 322.072931 284.765194 
L 323.814892 284.767504 
L 325.634248 284.773047 
L 328.29315 284.78047 
L 330.148592 284.784723 
L 330.377777 284.78512 
L 332.798055 284.787398 
L 332.941071 284.820584 
L 335.498794 285.323119 
L 337.613853 285.742698 
L 340.676753 286.350443 
L 348.37364 287.871286 
L 348.57129 287.897558 
L 349.083913 287.988156 
L 349.614283 288.064985 
L 349.911772 288.100709 
L 349.977874 288.108647 
L 350.964502 288.19484 
L 351.086541 288.205568 
L 351.508174 288.238075 
L 354.573158 288.497937 
L 358.619624 288.841707 
L 366.570473 289.517108 
L 371.328691 289.920466 
L 371.142777 290.443428 
L 374.018201 290.698073 
L 374.363431 290.728432 
L 374.444206 289.803189 
L 374.582879 288.212905 
L 374.641888 287.537996 
L 376.273423 284.404861 
L 378.239596 280.624381 
L 378.361115 280.390631 
L 378.821074 279.506772 
L 379.75018 277.721714 
L 380.068519 277.110094 
L 384.474883 268.637655 
L 384.520919 268.631391 
L 389.135415 268.045696 
L 389.972076 267.939572 
L 390.15623 263.766851 
L 390.193564 262.924494 
L 390.225301 262.205361 
L 390.28053 260.956 
L 390.292674 260.681581 
L 390.368929 258.959525 
L 390.401095 258.232484 
L 390.597558 254.094969 
L 390.767334 253.796822 
L 392.167766 251.380923 
L 393.943896 248.315182 
L 394.140507 247.975843 
L 395.02415 246.450791 
L 395.838119 245.045184 
L 397.357366 242.423805 
L 398.240568 240.899983 
L 398.487273 237.611239 
L 398.094695 237.481437 
L 397.552047 237.302036 
L 396.651255 237.004209 
L 396.080881 236.815349 
L 395.771093 236.712967 
L 395.449093 236.606486 
L 395.270933 236.547436 
L 394.584066 236.320009 
L 394.105274 236.16153 
L 393.115694 235.833874 
L 390.958744 235.119872 
L 390.781682 235.061163 
L 390.188349 234.864805 
L 387.339021 233.921454 
L 387.273202 233.899608 
L 386.74839 233.726741 
L 386.69527 233.709104 
L 386.643494 233.691923 
L 385.470124 233.303171 
L 384.044969 232.831516 
L 381.848559 232.104706 
L 380.808658 231.760464 
L 380.632453 231.702224 
L 379.136466 231.207147 
L 378.674393 231.054137 
L 378.351286 230.947204 
L 377.880302 230.791357 
L 377.292698 230.596828 
L 376.754184 230.418568 
L 375.393855 229.968316 
L 372.265337 228.932911 
L 370.860798 228.468113 
L 370.47309 228.339799 
L 369.548086 228.03369 
L 369.345997 227.967167 
L 368.80064 227.786638 
L 366.333347 226.97025 
L 364.308098 226.300153 
L 363.986816 226.193795 
L 362.882299 225.82832 
L 362.733563 225.779065 
L 362.15071 225.586023 
L 361.514131 225.37536 
L 360.286122 224.973068 
L 359.263817 224.630896 
L 357.525158 224.055811 
L 357.014232 223.886788 
L 356.358234 223.669765 
L 354.340047 223.002094 
L 354.408982 220.8945 
L 354.077698 220.785578 
L 349.409492 219.242297 
L 346.875861 218.410842 
L 344.35185 217.581732 
L 341.818177 216.749084 
L 339.273534 215.914021 
L 338.667382 217.824285 
L 336.268287 217.031266 
L 335.974587 216.933776 
L 334.917674 216.584653 
L 334.903509 216.579991 
L 334.218922 216.353676 
L 333.248223 216.033104 
L 332.577316 215.811463 
L 332.305241 215.721627 
L 332.272148 215.710711 
L 331.841686 215.568443 
L 331.748631 215.53762 
L 331.208389 215.359197 
L 330.860357 215.244227 
L 331.637311 213.341266 
L 332.027197 212.355425 
L 332.296786 211.544379 
L 332.782502 210.083175 
L 333.873124 206.801898 
L 333.860522 206.737535 
L 333.53074 205.044598 
L 332.725705 200.910672 
L 332.506246 199.7837 
L 332.486375 199.681831 
L 332.612001 197.42008 
L 332.763584 194.691231 
L 333.036203 189.781788 
L 333.43815 182.54319 
L 333.516859 181.092908 
L 333.661268 178.432638 
L 333.675196 178.173974 
L 333.957369 172.972551 
L 333.995648 172.266877 
L 334.312935 166.713957 
L 334.318784 166.613086 
L 334.373016 165.663285 
L 334.379527 165.548789 
L 334.670974 160.446437 
L 336.859054 157.620796 
L 337.417739 156.899328 
L 339.540461 154.190011 
L 342.259488 150.662874 
L 342.682883 147.06133 
L 343.221189 142.388311 
L 343.304682 141.660471 
L 341.663208 140.384986 
L 340.548719 141.80148 
L 340.246431 142.185273 
L 336.600434 141.712004 
L 335.620881 141.584842 
L 335.367705 141.528237 
L 334.217085 141.271038 
L 333.686488 141.152424 
L 330.097549 140.350047 
L 329.728508 140.267634 
L 328.979576 140.100139 
L 327.499257 139.769128 
L 327.245229 139.712424 
L 327.194544 139.701056 
L 326.56635 139.560478 
L 325.98689 139.430827 
L 325.409625 139.301734 
L 323.956238 138.977169 
L 323.691484 138.917915 
L 323.622284 138.902593 
L 323.571356 138.891231 
L 323.316105 138.83407 
L 323.019432 138.767763 
L 322.361262 138.620456 
L 321.822984 138.500083 
L 321.146784 138.348812 
L 320.507134 138.205705 
L 317.383466 137.50769 
L 315.153468 137.009247 
L 312.546473 136.436124 
L 312.278063 136.376108 
L 311.805093 136.270667 
L 310.104114 135.890751 
L 309.503335 135.756739 
L 309.235169 135.69684 
L 308.321748 135.492759 
L 307.046223 135.207824 
L 306.767337 135.145618 
L 306.688385 135.127967 
L 306.632462 135.115504 
L 306.385375 135.060353 
L 305.060999 134.764866 
L 304.187661 134.569846 
L 302.995958 134.303676 
L 302.10471 134.104691 
L 299.506095 133.528034 
L 299.355871 133.494625 
L 296.894125 132.945372 
L 296.80738 132.926198 
L 296.504973 132.858575 
L 296.388373 132.832546 
L 295.785396 132.698111 
L 295.117477 132.549111 
L 294.397657 132.388654 
L 293.799669 132.25508 
L 293.713896 132.236006 
L 293.404913 132.167077 
L 293.323647 132.148994 
L 292.433491 131.950363 
L 292.116101 131.87956 
L 291.256651 131.687889 
L 290.662442 131.555326 
L 289.698087 131.340279 
L 289.329889 131.258116 
L 288.313263 131.031378 
L 284.141996 129.668095 
L 282.718465 128.998934 
L 282.632695 128.958596 
L 281.452624 128.403841 
L 281.328991 128.34565 
L 280.353789 127.887342 
L 278.51439 127.02289 
L 278.379852 126.959601 
L 275.11567 125.42519 
L 274.622119 125.193138 
L 271.619396 123.781608 
L 270.039857 123.039228 
L 266.273015 121.268893 
L 263.310325 119.871075 
L 261.602296 119.060554 
L 259.530668 118.077379 
L 257.688087 117.219625 
L 257.426873 117.097981 
L 255.60438 116.24962 
L 255.10863 116.017513 
L 254.870312 115.90592 
L 252.257881 114.682941 
L 251.477615 114.317574 
L 247.615328 112.513077 
L 247.266492 112.350053 
L 246.228198 111.865047 
L 246.032643 111.773627 
L 245.776805 111.654053 
L 245.479434 111.515253 
L 245.289515 111.4265 
L 244.982338 111.282943 
L 243.828243 110.738121 
L 243.494196 110.580473 
L 243.275692 110.476818 
L 243.050894 110.378896 
L 243.024605 110.32627 
L 242.990188 110.278691 
L 242.948511 110.23711 
L 242.90082 110.202957 
L 242.84822 110.176815 
L 239.856806 108.9872 
L 239.708781 108.928238 
L 235.047792 107.071681 
L 230.793185 105.377348 
L 226.126273 103.518687 
L 224.852374 103.011391 
L 224.625684 102.921176 
L 223.255873 102.375851 
L 220.146538 101.137991 
L 217.227434 99.970898 
L 215.552561 99.306911 
L 211.281188 97.605323 
L 205.789813 95.418002 
L 203.070467 94.342533 
L 199.737352 93.023862 
L 192.40646 90.114397 
L 192.422234 90.620525 
L 191.895584 90.412388 
L 188.771842 89.17575 
L 182.654344 86.753136 
L 174.663122 83.581223 
L 171.187602 82.200963 
L 170.412188 81.892948 
L 169.546853 81.549325 
L 165.791751 80.057998 
L 157.528173 76.769341 
L 120.055923 61.902864 
L 111.043035 58.327568 
L 110.388929 59.321219 
" clip-path="url(#pd4f615e94c)" style="fill: #1f77b4"/>
   </g>
   <g id="matplotlib.axis_1">
    <g id="xtick_1">
     <g id="line2d_1">
      <defs>
       <path id="m1cd37a2d07" d="M 0 0 
L 0 3.5 
" style="stroke: #000000; stroke-width: 0.8"/>
      </defs>
      <g>
       <use xlink:href="#m1cd37a2d07" x="98.696162" y="302.348476" style="stroke: #000000; stroke-width: 0.8"/>
      </g>
     </g>
     <g id="text_1">
      <!-- 13.340 -->
      <g transform="translate(81.200849 316.946913) scale(0.1 -0.1)">
       <defs>
        <path id="DejaVuSans-31" d="M 794 531 
L 1825 531 
L 1825 4091 
L 703 3866 
L 703 4441 
L 1819 4666 
L 2450 4666 
L 2450 531 
L 3481 531 
L 3481 0 
L 794 0 
L 794 531 
z
" transform="scale(0.015625)"/>
        <path id="DejaVuSans-33" d="M 2597 2516 
Q 3050 2419 3304 2112 
Q 3559 1806 3559 1356 
Q 3559 666 3084 287 
Q 2609 -91 1734 -91 
Q 1441 -91 1130 -33 
Q 819 25 488 141 
L 488 750 
Q 750 597 1062 519 
Q 1375 441 1716 441 
Q 2309 441 2620 675 
Q 2931 909 2931 1356 
Q 2931 1769 2642 2001 
Q 2353 2234 1838 2234 
L 1294 2234 
L 1294 2753 
L 1863 2753 
Q 2328 2753 2575 2939 
Q 2822 3125 2822 3475 
Q 2822 3834 2567 4026 
Q 2313 4219 1838 4219 
Q 1578 4219 1281 4162 
Q 984 4106 628 3988 
L 628 4550 
Q 988 4650 1302 4700 
Q 1616 4750 1894 4750 
Q 2613 4750 3031 4423 
Q 3450 4097 3450 3541 
Q 3450 3153 3228 2886 
Q 3006 2619 2597 2516 
z
" transform="scale(0.015625)"/>
        <path id="DejaVuSans-2e" d="M 684 794 
L 1344 794 
L 1344 0 
L 684 0 
L 684 794 
z
" transform="scale(0.015625)"/>
        <path id="DejaVuSans-34" d="M 2419 4116 
L 825 1625 
L 2419 1625 
L 2419 4116 
z
M 2253 4666 
L 3047 4666 
L 3047 1625 
L 3713 1625 
L 3713 1100 
L 3047 1100 
L 3047 0 
L 2419 0 
L 2419 1100 
L 313 1100 
L 313 1709 
L 2253 4666 
z
" transform="scale(0.015625)"/>
        <path id="DejaVuSans-30" d="M 2034 4250 
Q 1547 4250 1301 3770 
Q 1056 3291 1056 2328 
Q 1056 1369 1301 889 
Q 1547 409 2034 409 
Q 2525 409 2770 889 
Q 3016 1369 3016 2328 
Q 3016 3291 2770 3770 
Q 2525 4250 2034 4250 
z
M 2034 4750 
Q 2819 4750 3233 4129 
Q 3647 3509 3647 2328 
Q 3647 1150 3233 529 
Q 2819 -91 2034 -91 
Q 1250 -91 836 529 
Q 422 1150 422 2328 
Q 422 3509 836 4129 
Q 1250 4750 2034 4750 
z
" transform="scale(0.015625)"/>
       </defs>
       <use xlink:href="#DejaVuSans-31"/>
       <use xlink:href="#DejaVuSans-33" x="63.623047"/>
       <use xlink:href="#DejaVuSans-2e" x="127.246094"/>
       <use xlink:href="#DejaVuSans-33" x="159.033203"/>
       <use xlink:href="#DejaVuSans-34" x="222.65625"/>
       <use xlink:href="#DejaVuSans-30" x="286.279297"/>
      </g>
     </g>
    </g>
    <g id="xtick_2">
     <g id="line2d_2">
      <g>
       <use xlink:href="#m1cd37a2d07" x="139.837697" y="302.348476" style="stroke: #000000; stroke-width: 0.8"/>
      </g>
     </g>
     <g id="text_2">
      <!-- 13.345 -->
      <g transform="translate(122.342384 316.946913) scale(0.1 -0.1)">
       <defs>
        <path id="DejaVuSans-35" d="M 691 4666 
L 3169 4666 
L 3169 4134 
L 1269 4134 
L 1269 2991 
Q 1406 3038 1543 3061 
Q 1681 3084 1819 3084 
Q 2600 3084 3056 2656 
Q 3513 2228 3513 1497 
Q 3513 744 3044 326 
Q 2575 -91 1722 -91 
Q 1428 -91 1123 -41 
Q 819 9 494 109 
L 494 744 
Q 775 591 1075 516 
Q 1375 441 1709 441 
Q 2250 441 2565 725 
Q 2881 1009 2881 1497 
Q 2881 1984 2565 2268 
Q 2250 2553 1709 2553 
Q 1456 2553 1204 2497 
Q 953 2441 691 2322 
L 691 4666 
z
" transform="scale(0.015625)"/>
       </defs>
       <use xlink:href="#DejaVuSans-31"/>
       <use xlink:href="#DejaVuSans-33" x="63.623047"/>
       <use xlink:href="#DejaVuSans-2e" x="127.246094"/>
       <use xlink:href="#DejaVuSans-33" x="159.033203"/>
       <use xlink:href="#DejaVuSans-34" x="222.65625"/>
       <use xlink:href="#DejaVuSans-35" x="286.279297"/>
      </g>
     </g>
    </g>
    <g id="xtick_3">
     <g id="line2d_3">
      <g>
       <use xlink:href="#m1cd37a2d07" x="180.979232" y="302.348476" style="stroke: #000000; stroke-width: 0.8"/>
      </g>
     </g>
     <g id="text_3">
      <!-- 13.350 -->
      <g transform="translate(163.48392 316.946913) scale(0.1 -0.1)">
       <use xlink:href="#DejaVuSans-31"/>
       <use xlink:href="#DejaVuSans-33" x="63.623047"/>
       <use xlink:href="#DejaVuSans-2e" x="127.246094"/>
       <use xlink:href="#DejaVuSans-33" x="159.033203"/>
       <use xlink:href="#DejaVuSans-35" x="222.65625"/>
       <use xlink:href="#DejaVuSans-30" x="286.279297"/>
      </g>
     </g>
    </g>
    <g id="xtick_4">
     <g id="line2d_4">
      <g>
       <use xlink:href="#m1cd37a2d07" x="222.120767" y="302.348476" style="stroke: #000000; stroke-width: 0.8"/>
      </g>
     </g>
     <g id="text_4">
      <!-- 13.355 -->
      <g transform="translate(204.625455 316.946913) scale(0.1 -0.1)">
       <use xlink:href="#DejaVuSans-31"/>
       <use xlink:href="#DejaVuSans-33" x="63.623047"/>
       <use xlink:href="#DejaVuSans-2e" x="127.246094"/>
       <use xlink:href="#DejaVuSans-33" x="159.033203"/>
       <use xlink:href="#DejaVuSans-35" x="222.65625"/>
       <use xlink:href="#DejaVuSans-35" x="286.279297"/>
      </g>
     </g>
    </g>
    <g id="xtick_5">
     <g id="line2d_5">
      <g>
       <use xlink:href="#m1cd37a2d07" x="263.262303" y="302.348476" style="stroke: #000000; stroke-width: 0.8"/>
      </g>
     </g>
     <g id="text_5">
      <!-- 13.360 -->
      <g transform="translate(245.76699 316.946913) scale(0.1 -0.1)">
       <defs>
        <path id="DejaVuSans-36" d="M 2113 2584 
Q 1688 2584 1439 2293 
Q 1191 2003 1191 1497 
Q 1191 994 1439 701 
Q 1688 409 2113 409 
Q 2538 409 2786 701 
Q 3034 994 3034 1497 
Q 3034 2003 2786 2293 
Q 2538 2584 2113 2584 
z
M 3366 4563 
L 3366 3988 
Q 3128 4100 2886 4159 
Q 2644 4219 2406 4219 
Q 1781 4219 1451 3797 
Q 1122 3375 1075 2522 
Q 1259 2794 1537 2939 
Q 1816 3084 2150 3084 
Q 2853 3084 3261 2657 
Q 3669 2231 3669 1497 
Q 3669 778 3244 343 
Q 2819 -91 2113 -91 
Q 1303 -91 875 529 
Q 447 1150 447 2328 
Q 447 3434 972 4092 
Q 1497 4750 2381 4750 
Q 2619 4750 2861 4703 
Q 3103 4656 3366 4563 
z
" transform="scale(0.015625)"/>
       </defs>
       <use xlink:href="#DejaVuSans-31"/>
       <use xlink:href="#DejaVuSans-33" x="63.623047"/>
       <use xlink:href="#DejaVuSans-2e" x="127.246094"/>
       <use xlink:href="#DejaVuSans-33" x="159.033203"/>
       <use xlink:href="#DejaVuSans-36" x="222.65625"/>
       <use xlink:href="#DejaVuSans-30" x="286.279297"/>
      </g>
     </g>
    </g>
    <g id="xtick_6">
     <g id="line2d_6">
      <g>
       <use xlink:href="#m1cd37a2d07" x="304.403838" y="302.348476" style="stroke: #000000; stroke-width: 0.8"/>
      </g>
     </g>
     <g id="text_6">
      <!-- 13.365 -->
      <g transform="translate(286.908525 316.946913) scale(0.1 -0.1)">
       <use xlink:href="#DejaVuSans-31"/>
       <use xlink:href="#DejaVuSans-33" x="63.623047"/>
       <use xlink:href="#DejaVuSans-2e" x="127.246094"/>
       <use xlink:href="#DejaVuSans-33" x="159.033203"/>
       <use xlink:href="#DejaVuSans-36" x="222.65625"/>
       <use xlink:href="#DejaVuSans-35" x="286.279297"/>
      </g>
     </g>
    </g>
    <g id="xtick_7">
     <g id="line2d_7">
      <g>
       <use xlink:href="#m1cd37a2d07" x="345.545373" y="302.348476" style="stroke: #000000; stroke-width: 0.8"/>
      </g>
     </g>
     <g id="text_7">
      <!-- 13.370 -->
      <g transform="translate(328.050061 316.946913) scale(0.1 -0.1)">
       <defs>
        <path id="DejaVuSans-37" d="M 525 4666 
L 3525 4666 
L 3525 4397 
L 1831 0 
L 1172 0 
L 2766 4134 
L 525 4134 
L 525 4666 
z
" transform="scale(0.015625)"/>
       </defs>
       <use xlink:href="#DejaVuSans-31"/>
       <use xlink:href="#DejaVuSans-33" x="63.623047"/>
       <use xlink:href="#DejaVuSans-2e" x="127.246094"/>
       <use xlink:href="#DejaVuSans-33" x="159.033203"/>
       <use xlink:href="#DejaVuSans-37" x="222.65625"/>
       <use xlink:href="#DejaVuSans-30" x="286.279297"/>
      </g>
     </g>
    </g>
    <g id="xtick_8">
     <g id="line2d_8">
      <g>
       <use xlink:href="#m1cd37a2d07" x="386.686908" y="302.348476" style="stroke: #000000; stroke-width: 0.8"/>
      </g>
     </g>
     <g id="text_8">
      <!-- 13.375 -->
      <g transform="translate(369.191596 316.946913) scale(0.1 -0.1)">
       <use xlink:href="#DejaVuSans-31"/>
       <use xlink:href="#DejaVuSans-33" x="63.623047"/>
       <use xlink:href="#DejaVuSans-2e" x="127.246094"/>
       <use xlink:href="#DejaVuSans-33" x="159.033203"/>
       <use xlink:href="#DejaVuSans-37" x="222.65625"/>
       <use xlink:href="#DejaVuSans-35" x="286.279297"/>
      </g>
     </g>
    </g>
   </g>
   <g id="matplotlib.axis_2">
    <g id="ytick_1">
     <g id="line2d_9">
      <defs>
       <path id="m4acd86deef" d="M 0 0 
L -3.5 0 
" style="stroke: #000000; stroke-width: 0.8"/>
      </defs>
      <g>
       <use xlink:href="#m4acd86deef" x="57.6" y="294.051157" style="stroke: #000000; stroke-width: 0.8"/>
      </g>
     </g>
     <g id="text_9">
      <!-- 52.4875 -->
      <g transform="translate(9.246875 297.850376) scale(0.1 -0.1)">
       <defs>
        <path id="DejaVuSans-32" d="M 1228 531 
L 3431 531 
L 3431 0 
L 469 0 
L 469 531 
Q 828 903 1448 1529 
Q 2069 2156 2228 2338 
Q 2531 2678 2651 2914 
Q 2772 3150 2772 3378 
Q 2772 3750 2511 3984 
Q 2250 4219 1831 4219 
Q 1534 4219 1204 4116 
Q 875 4013 500 3803 
L 500 4441 
Q 881 4594 1212 4672 
Q 1544 4750 1819 4750 
Q 2544 4750 2975 4387 
Q 3406 4025 3406 3419 
Q 3406 3131 3298 2873 
Q 3191 2616 2906 2266 
Q 2828 2175 2409 1742 
Q 1991 1309 1228 531 
z
" transform="scale(0.015625)"/>
        <path id="DejaVuSans-38" d="M 2034 2216 
Q 1584 2216 1326 1975 
Q 1069 1734 1069 1313 
Q 1069 891 1326 650 
Q 1584 409 2034 409 
Q 2484 409 2743 651 
Q 3003 894 3003 1313 
Q 3003 1734 2745 1975 
Q 2488 2216 2034 2216 
z
M 1403 2484 
Q 997 2584 770 2862 
Q 544 3141 544 3541 
Q 544 4100 942 4425 
Q 1341 4750 2034 4750 
Q 2731 4750 3128 4425 
Q 3525 4100 3525 3541 
Q 3525 3141 3298 2862 
Q 3072 2584 2669 2484 
Q 3125 2378 3379 2068 
Q 3634 1759 3634 1313 
Q 3634 634 3220 271 
Q 2806 -91 2034 -91 
Q 1263 -91 848 271 
Q 434 634 434 1313 
Q 434 1759 690 2068 
Q 947 2378 1403 2484 
z
M 1172 3481 
Q 1172 3119 1398 2916 
Q 1625 2713 2034 2713 
Q 2441 2713 2670 2916 
Q 2900 3119 2900 3481 
Q 2900 3844 2670 4047 
Q 2441 4250 2034 4250 
Q 1625 4250 1398 4047 
Q 1172 3844 1172 3481 
z
" transform="scale(0.015625)"/>
       </defs>
       <use xlink:href="#DejaVuSans-35"/>
       <use xlink:href="#DejaVuSans-32" x="63.623047"/>
       <use xlink:href="#DejaVuSans-2e" x="127.246094"/>
       <use xlink:href="#DejaVuSans-34" x="159.033203"/>
       <use xlink:href="#DejaVuSans-38" x="222.65625"/>
       <use xlink:href="#DejaVuSans-37" x="286.279297"/>
       <use xlink:href="#DejaVuSans-35" x="349.902344"/>
      </g>
     </g>
    </g>
    <g id="ytick_2">
     <g id="line2d_10">
      <g>
       <use xlink:href="#m4acd86deef" x="57.6" y="260.262786" style="stroke: #000000; stroke-width: 0.8"/>
      </g>
     </g>
     <g id="text_10">
      <!-- 52.4900 -->
      <g transform="translate(9.246875 264.062005) scale(0.1 -0.1)">
       <defs>
        <path id="DejaVuSans-39" d="M 703 97 
L 703 672 
Q 941 559 1184 500 
Q 1428 441 1663 441 
Q 2288 441 2617 861 
Q 2947 1281 2994 2138 
Q 2813 1869 2534 1725 
Q 2256 1581 1919 1581 
Q 1219 1581 811 2004 
Q 403 2428 403 3163 
Q 403 3881 828 4315 
Q 1253 4750 1959 4750 
Q 2769 4750 3195 4129 
Q 3622 3509 3622 2328 
Q 3622 1225 3098 567 
Q 2575 -91 1691 -91 
Q 1453 -91 1209 -44 
Q 966 3 703 97 
z
M 1959 2075 
Q 2384 2075 2632 2365 
Q 2881 2656 2881 3163 
Q 2881 3666 2632 3958 
Q 2384 4250 1959 4250 
Q 1534 4250 1286 3958 
Q 1038 3666 1038 3163 
Q 1038 2656 1286 2365 
Q 1534 2075 1959 2075 
z
" transform="scale(0.015625)"/>
       </defs>
       <use xlink:href="#DejaVuSans-35"/>
       <use xlink:href="#DejaVuSans-32" x="63.623047"/>
       <use xlink:href="#DejaVuSans-2e" x="127.246094"/>
       <use xlink:href="#DejaVuSans-34" x="159.033203"/>
       <use xlink:href="#DejaVuSans-39" x="222.65625"/>
       <use xlink:href="#DejaVuSans-30" x="286.279297"/>
       <use xlink:href="#DejaVuSans-30" x="349.902344"/>
      </g>
     </g>
    </g>
    <g id="ytick_3">
     <g id="line2d_11">
      <g>
       <use xlink:href="#m4acd86deef" x="57.6" y="226.474415" style="stroke: #000000; stroke-width: 0.8"/>
      </g>
     </g>
     <g id="text_11">
      <!-- 52.4925 -->
      <g transform="translate(9.246875 230.273634) scale(0.1 -0.1)">
       <use xlink:href="#DejaVuSans-35"/>
       <use xlink:href="#DejaVuSans-32" x="63.623047"/>
       <use xlink:href="#DejaVuSans-2e" x="127.246094"/>
       <use xlink:href="#DejaVuSans-34" x="159.033203"/>
       <use xlink:href="#DejaVuSans-39" x="222.65625"/>
       <use xlink:href="#DejaVuSans-32" x="286.279297"/>
       <use xlink:href="#DejaVuSans-35" x="349.902344"/>
      </g>
     </g>
    </g>
    <g id="ytick_4">
     <g id="line2d_12">
      <g>
       <use xlink:href="#m4acd86deef" x="57.6" y="192.686044" style="stroke: #000000; stroke-width: 0.8"/>
      </g>
     </g>
     <g id="text_12">
      <!-- 52.4950 -->
      <g transform="translate(9.246875 196.485263) scale(0.1 -0.1)">
       <use xlink:href="#DejaVuSans-35"/>
       <use xlink:href="#DejaVuSans-32" x="63.623047"/>
       <use xlink:href="#DejaVuSans-2e" x="127.246094"/>
       <use xlink:href="#DejaVuSans-34" x="159.033203"/>
       <use xlink:href="#DejaVuSans-39" x="222.65625"/>
       <use xlink:href="#DejaVuSans-35" x="286.279297"/>
       <use xlink:href="#DejaVuSans-30" x="349.902344"/>
      </g>
     </g>
    </g>
    <g id="ytick_5">
     <g id="line2d_13">
      <g>
       <use xlink:href="#m4acd86deef" x="57.6" y="158.897673" style="stroke: #000000; stroke-width: 0.8"/>
      </g>
     </g>
     <g id="text_13">
      <!-- 52.4975 -->
      <g transform="translate(9.246875 162.696892) scale(0.1 -0.1)">
       <use xlink:href="#DejaVuSans-35"/>
       <use xlink:href="#DejaVuSans-32" x="63.623047"/>
       <use xlink:href="#DejaVuSans-2e" x="127.246094"/>
       <use xlink:href="#DejaVuSans-34" x="159.033203"/>
       <use xlink:href="#DejaVuSans-39" x="222.65625"/>
       <use xlink:href="#DejaVuSans-37" x="286.279297"/>
       <use xlink:href="#DejaVuSans-35" x="349.902344"/>
      </g>
     </g>
    </g>
    <g id="ytick_6">
     <g id="line2d_14">
      <g>
       <use xlink:href="#m4acd86deef" x="57.6" y="125.109302" style="stroke: #000000; stroke-width: 0.8"/>
      </g>
     </g>
     <g id="text_14">
      <!-- 52.5000 -->
      <g transform="translate(9.246875 128.908521) scale(0.1 -0.1)">
       <use xlink:href="#DejaVuSans-35"/>
       <use xlink:href="#DejaVuSans-32" x="63.623047"/>
       <use xlink:href="#DejaVuSans-2e" x="127.246094"/>
       <use xlink:href="#DejaVuSans-35" x="159.033203"/>
       <use xlink:href="#DejaVuSans-30" x="222.65625"/>
       <use xlink:href="#DejaVuSans-30" x="286.279297"/>
       <use xlink:href="#DejaVuSans-30" x="349.902344"/>
      </g>
     </g>
    </g>
    <g id="ytick_7">
     <g id="line2d_15">
      <g>
       <use xlink:href="#m4acd86deef" x="57.6" y="91.320932" style="stroke: #000000; stroke-width: 0.8"/>
      </g>
     </g>
     <g id="text_15">
      <!-- 52.5025 -->
      <g transform="translate(9.246875 95.12015) scale(0.1 -0.1)">
       <use xlink:href="#DejaVuSans-35"/>
       <use xlink:href="#DejaVuSans-32" x="63.623047"/>
       <use xlink:href="#DejaVuSans-2e" x="127.246094"/>
       <use xlink:href="#DejaVuSans-35" x="159.033203"/>
       <use xlink:href="#DejaVuSans-30" x="222.65625"/>
       <use xlink:href="#DejaVuSans-32" x="286.279297"/>
       <use xlink:href="#DejaVuSans-35" x="349.902344"/>
      </g>
     </g>
    </g>
    <g id="ytick_8">
     <g id="line2d_16">
      <g>
       <use xlink:href="#m4acd86deef" x="57.6" y="57.532561" style="stroke: #000000; stroke-width: 0.8"/>
      </g>
     </g>
     <g id="text_16">
      <!-- 52.5050 -->
      <g transform="translate(9.246875 61.331779) scale(0.1 -0.1)">
       <use xlink:href="#DejaVuSans-35"/>
       <use xlink:href="#DejaVuSans-32" x="63.623047"/>
       <use xlink:href="#DejaVuSans-2e" x="127.246094"/>
       <use xlink:href="#DejaVuSans-35" x="159.033203"/>
       <use xlink:href="#DejaVuSans-30" x="222.65625"/>
       <use xlink:href="#DejaVuSans-35" x="286.279297"/>
       <use xlink:href="#DejaVuSans-30" x="349.902344"/>
      </g>
     </g>
    </g>
   </g>
   <g id="patch_3">
    <path d="M 57.6 302.348476 
L 57.6 46.707524 
" style="fill: none; stroke: #000000; stroke-width: 0.8; stroke-linejoin: miter; stroke-linecap: square"/>
   </g>
   <g id="patch_4">
    <path d="M 414.72 302.348476 
L 414.72 46.707524 
" style="fill: none; stroke: #000000; stroke-width: 0.8; stroke-linejoin: miter; stroke-linecap: square"/>
   </g>
   <g id="patch_5">
    <path d="M 57.6 302.348476 
L 414.72 302.348476 
" style="fill: none; stroke: #000000; stroke-width: 0.8; stroke-linejoin: miter; stroke-linecap: square"/>
   </g>
   <g id="patch_6">
    <path d="M 57.6 46.707524 
L 414.72 46.707524 
" style="fill: none; stroke: #000000; stroke-width: 0.8; stroke-linejoin: miter; stroke-linecap: square"/>
   </g>
   <g id="text_17">
    <!-- Schöneberg_Nord -->
    <g transform="translate(167.263567 186.000192) scale(0.12 -0.12)">
     <defs>
      <path id="DejaVuSans-53" d="M 3425 4513 
L 3425 3897 
Q 3066 4069 2747 4153 
Q 2428 4238 2131 4238 
Q 1616 4238 1336 4038 
Q 1056 3838 1056 3469 
Q 1056 3159 1242 3001 
Q 1428 2844 1947 2747 
L 2328 2669 
Q 3034 2534 3370 2195 
Q 3706 1856 3706 1288 
Q 3706 609 3251 259 
Q 2797 -91 1919 -91 
Q 1588 -91 1214 -16 
Q 841 59 441 206 
L 441 856 
Q 825 641 1194 531 
Q 1563 422 1919 422 
Q 2459 422 2753 634 
Q 3047 847 3047 1241 
Q 3047 1584 2836 1778 
Q 2625 1972 2144 2069 
L 1759 2144 
Q 1053 2284 737 2584 
Q 422 2884 422 3419 
Q 422 4038 858 4394 
Q 1294 4750 2059 4750 
Q 2388 4750 2728 4690 
Q 3069 4631 3425 4513 
z
" transform="scale(0.015625)"/>
      <path id="DejaVuSans-63" d="M 3122 3366 
L 3122 2828 
Q 2878 2963 2633 3030 
Q 2388 3097 2138 3097 
Q 1578 3097 1268 2742 
Q 959 2388 959 1747 
Q 959 1106 1268 751 
Q 1578 397 2138 397 
Q 2388 397 2633 464 
Q 2878 531 3122 666 
L 3122 134 
Q 2881 22 2623 -34 
Q 2366 -91 2075 -91 
Q 1284 -91 818 406 
Q 353 903 353 1747 
Q 353 2603 823 3093 
Q 1294 3584 2113 3584 
Q 2378 3584 2631 3529 
Q 2884 3475 3122 3366 
z
" transform="scale(0.015625)"/>
      <path id="DejaVuSans-68" d="M 3513 2113 
L 3513 0 
L 2938 0 
L 2938 2094 
Q 2938 2591 2744 2837 
Q 2550 3084 2163 3084 
Q 1697 3084 1428 2787 
Q 1159 2491 1159 1978 
L 1159 0 
L 581 0 
L 581 4863 
L 1159 4863 
L 1159 2956 
Q 1366 3272 1645 3428 
Q 1925 3584 2291 3584 
Q 2894 3584 3203 3211 
Q 3513 2838 3513 2113 
z
" transform="scale(0.015625)"/>
      <path id="DejaVuSans-f6" d="M 1959 3097 
Q 1497 3097 1228 2736 
Q 959 2375 959 1747 
Q 959 1119 1226 758 
Q 1494 397 1959 397 
Q 2419 397 2687 759 
Q 2956 1122 2956 1747 
Q 2956 2369 2687 2733 
Q 2419 3097 1959 3097 
z
M 1959 3584 
Q 2709 3584 3137 3096 
Q 3566 2609 3566 1747 
Q 3566 888 3137 398 
Q 2709 -91 1959 -91 
Q 1206 -91 779 398 
Q 353 888 353 1747 
Q 353 2609 779 3096 
Q 1206 3584 1959 3584 
z
M 2254 4850 
L 2888 4850 
L 2888 4219 
L 2254 4219 
L 2254 4850 
z
M 1032 4850 
L 1666 4850 
L 1666 4219 
L 1032 4219 
L 1032 4850 
z
" transform="scale(0.015625)"/>
      <path id="DejaVuSans-6e" d="M 3513 2113 
L 3513 0 
L 2938 0 
L 2938 2094 
Q 2938 2591 2744 2837 
Q 2550 3084 2163 3084 
Q 1697 3084 1428 2787 
Q 1159 2491 1159 1978 
L 1159 0 
L 581 0 
L 581 3500 
L 1159 3500 
L 1159 2956 
Q 1366 3272 1645 3428 
Q 1925 3584 2291 3584 
Q 2894 3584 3203 3211 
Q 3513 2838 3513 2113 
z
" transform="scale(0.015625)"/>
      <path id="DejaVuSans-65" d="M 3597 1894 
L 3597 1613 
L 953 1613 
Q 991 1019 1311 708 
Q 1631 397 2203 397 
Q 2534 397 2845 478 
Q 3156 559 3463 722 
L 3463 178 
Q 3153 47 2828 -22 
Q 2503 -91 2169 -91 
Q 1331 -91 842 396 
Q 353 884 353 1716 
Q 353 2575 817 3079 
Q 1281 3584 2069 3584 
Q 2775 3584 3186 3129 
Q 3597 2675 3597 1894 
z
M 3022 2063 
Q 3016 2534 2758 2815 
Q 2500 3097 2075 3097 
Q 1594 3097 1305 2825 
Q 1016 2553 972 2059 
L 3022 2063 
z
" transform="scale(0.015625)"/>
      <path id="DejaVuSans-62" d="M 3116 1747 
Q 3116 2381 2855 2742 
Q 2594 3103 2138 3103 
Q 1681 3103 1420 2742 
Q 1159 2381 1159 1747 
Q 1159 1113 1420 752 
Q 1681 391 2138 391 
Q 2594 391 2855 752 
Q 3116 1113 3116 1747 
z
M 1159 2969 
Q 1341 3281 1617 3432 
Q 1894 3584 2278 3584 
Q 2916 3584 3314 3078 
Q 3713 2572 3713 1747 
Q 3713 922 3314 415 
Q 2916 -91 2278 -91 
Q 1894 -91 1617 61 
Q 1341 213 1159 525 
L 1159 0 
L 581 0 
L 581 4863 
L 1159 4863 
L 1159 2969 
z
" transform="scale(0.015625)"/>
      <path id="DejaVuSans-72" d="M 2631 2963 
Q 2534 3019 2420 3045 
Q 2306 3072 2169 3072 
Q 1681 3072 1420 2755 
Q 1159 2438 1159 1844 
L 1159 0 
L 581 0 
L 581 3500 
L 1159 3500 
L 1159 2956 
Q 1341 3275 1631 3429 
Q 1922 3584 2338 3584 
Q 2397 3584 2469 3576 
Q 2541 3569 2628 3553 
L 2631 2963 
z
" transform="scale(0.015625)"/>
      <path id="DejaVuSans-67" d="M 2906 1791 
Q 2906 2416 2648 2759 
Q 2391 3103 1925 3103 
Q 1463 3103 1205 2759 
Q 947 2416 947 1791 
Q 947 1169 1205 825 
Q 1463 481 1925 481 
Q 2391 481 2648 825 
Q 2906 1169 2906 1791 
z
M 3481 434 
Q 3481 -459 3084 -895 
Q 2688 -1331 1869 -1331 
Q 1566 -1331 1297 -1286 
Q 1028 -1241 775 -1147 
L 775 -588 
Q 1028 -725 1275 -790 
Q 1522 -856 1778 -856 
Q 2344 -856 2625 -561 
Q 2906 -266 2906 331 
L 2906 616 
Q 2728 306 2450 153 
Q 2172 0 1784 0 
Q 1141 0 747 490 
Q 353 981 353 1791 
Q 353 2603 747 3093 
Q 1141 3584 1784 3584 
Q 2172 3584 2450 3431 
Q 2728 3278 2906 2969 
L 2906 3500 
L 3481 3500 
L 3481 434 
z
" transform="scale(0.015625)"/>
      <path id="DejaVuSans-5f" d="M 3263 -1063 
L 3263 -1509 
L -63 -1509 
L -63 -1063 
L 3263 -1063 
z
" transform="scale(0.015625)"/>
      <path id="DejaVuSans-4e" d="M 628 4666 
L 1478 4666 
L 3547 763 
L 3547 4666 
L 4159 4666 
L 4159 0 
L 3309 0 
L 1241 3903 
L 1241 0 
L 628 0 
L 628 4666 
z
" transform="scale(0.015625)"/>
      <path id="DejaVuSans-6f" d="M 1959 3097 
Q 1497 3097 1228 2736 
Q 959 2375 959 1747 
Q 959 1119 1226 758 
Q 1494 397 1959 397 
Q 2419 397 2687 759 
Q 2956 1122 2956 1747 
Q 2956 2369 2687 2733 
Q 2419 3097 1959 3097 
z
M 1959 3584 
Q 2709 3584 3137 3096 
Q 3566 2609 3566 1747 
Q 3566 888 3137 398 
Q 2709 -91 1959 -91 
Q 1206 -91 779 398 
Q 353 888 353 1747 
Q 353 2609 779 3096 
Q 1206 3584 1959 3584 
z
" transform="scale(0.015625)"/>
      <path id="DejaVuSans-64" d="M 2906 2969 
L 2906 4863 
L 3481 4863 
L 3481 0 
L 2906 0 
L 2906 525 
Q 2725 213 2448 61 
Q 2172 -91 1784 -91 
Q 1150 -91 751 415 
Q 353 922 353 1747 
Q 353 2572 751 3078 
Q 1150 3584 1784 3584 
Q 2172 3584 2448 3432 
Q 2725 3281 2906 2969 
z
M 947 1747 
Q 947 1113 1208 752 
Q 1469 391 1925 391 
Q 2381 391 2643 752 
Q 2906 1113 2906 1747 
Q 2906 2381 2643 2742 
Q 2381 3103 1925 3103 
Q 1469 3103 1208 2742 
Q 947 2381 947 1747 
z
" transform="scale(0.015625)"/>
     </defs>
     <use xlink:href="#DejaVuSans-53"/>
     <use xlink:href="#DejaVuSans-63" x="63.476562"/>
     <use xlink:href="#DejaVuSans-68" x="118.457031"/>
     <use xlink:href="#DejaVuSans-f6" x="181.835938"/>
     <use xlink:href="#DejaVuSans-6e" x="243.017578"/>
     <use xlink:href="#DejaVuSans-65" x="306.396484"/>
     <use xlink:href="#DejaVuSans-62" x="367.919922"/>
     <use xlink:href="#DejaVuSans-65" x="431.396484"/>
     <use xlink:href="#DejaVuSans-72" x="492.919922"/>
     <use xlink:href="#DejaVuSans-67" x="532.283203"/>
     <use xlink:href="#DejaVuSans-5f" x="595.759766"/>
     <use xlink:href="#DejaVuSans-4e" x="645.759766"/>
     <use xlink:href="#DejaVuSans-6f" x="720.564453"/>
     <use xlink:href="#DejaVuSans-72" x="781.746094"/>
     <use xlink:href="#DejaVuSans-64" x="821.109375"/>
    </g>
   </g>
  </g>
 </g>
 <defs>
  <clipPath id="pd4f615e94c">
   <rect x="57.6" y="46.707524" width="357.12" height="255.640951"/>
  </clipPath>
 </defs>
</svg>
