<?xml version="1.0" encoding="utf-8" standalone="no"?>
<!DOCTYPE svg PUBLIC "-//W3C//DTD SVG 1.1//EN"
  "http://www.w3.org/Graphics/SVG/1.1/DTD/svg11.dtd">
<svg xmlns:xlink="http://www.w3.org/1999/xlink" width="720pt" height="720pt" viewBox="0 0 720 720" xmlns="http://www.w3.org/2000/svg" version="1.1">
 <metadata>
  <rdf:RDF xmlns:dc="http://purl.org/dc/elements/1.1/" xmlns:cc="http://creativecommons.org/ns#" xmlns:rdf="http://www.w3.org/1999/02/22-rdf-syntax-ns#">
   <cc:Work>
    <dc:type rdf:resource="http://purl.org/dc/dcmitype/StillImage"/>
    <dc:date>2024-10-22T09:54:12.271683</dc:date>
    <dc:format>image/svg+xml</dc:format>
    <dc:creator>
     <cc:Agent>
      <dc:title>Matplotlib v3.9.2, https://matplotlib.org/</dc:title>
     </cc:Agent>
    </dc:creator>
   </cc:Work>
  </rdf:RDF>
 </metadata>
 <defs>
  <style type="text/css">*{stroke-linejoin: round; stroke-linecap: butt}</style>
 </defs>
 <g id="figure_1">
  <g id="patch_1">
   <path d="M 0 720 
L 720 720 
L 720 0 
L 0 0 
z
" style="fill: #ffffff"/>
  </g>
  <g id="axes_1">
   <g id="patch_2">
    <path d="M 97.507212 640.8 
L 640.492788 640.8 
L 640.492788 86.4 
L 97.507212 86.4 
z
" style="fill: #ffffff"/>
   </g>
   <g id="PatchCollection_1">
    <path d="M 218.254806 483.171854 
L 224.82562 485.991749 
L 225.230463 485.952041 
L 226.194108 486.336375 
L 226.417696 485.714112 
L 226.475195 485.737694 
L 227.600496 486.198286 
L 227.927212 486.332036 
L 228.048152 486.381542 
L 228.721034 486.669648 
L 229.323695 486.927689 
L 230.952153 487.624317 
L 232.811259 488.419953 
L 233.326274 488.642724 
L 233.288747 488.724332 
L 233.590285 488.853321 
L 233.796216 488.941398 
L 235.080927 489.491106 
L 236.365754 490.040816 
L 236.408682 490.059178 
L 237.138782 490.401061 
L 237.567712 490.273721 
L 237.762146 490.35583 
L 238.908589 490.840555 
L 239.059428 490.904321 
L 239.077651 490.91249 
L 240.391945 491.466997 
L 240.714341 491.603062 
L 241.713683 492.004412 
L 243.036104 492.53549 
L 243.047319 492.540007 
L 243.919492 492.890249 
L 244.071274 492.955392 
L 244.478892 493.39663 
L 244.960931 493.918429 
L 245.609858 494.196118 
L 246.654012 494.640492 
L 247.668547 495.072309 
L 248.654688 495.492023 
L 249.517512 495.859246 
L 250.363043 496.219129 
L 252.274317 497.0335 
L 252.966629 497.438727 
L 258.239991 499.7619 
L 262.279755 501.547957 
L 262.415868 501.595933 
L 262.553443 501.639371 
L 262.692476 501.678149 
L 262.832665 501.712276 
L 262.973888 501.741754 
L 263.116021 501.766465 
L 263.748501 502.052277 
L 264.342099 502.321324 
L 265.621941 502.901211 
L 267.234947 503.576659 
L 267.810541 503.817648 
L 267.985198 503.890734 
L 270.481963 504.919564 
L 273.364004 506.107178 
L 273.475816 506.151973 
L 273.478896 506.153206 
L 273.591956 506.203539 
L 275.453345 506.93426 
L 277.711521 507.919326 
L 280.74023 509.507193 
L 280.832795 509.55287 
L 281.208437 509.738234 
L 281.58086 509.928048 
L 282.719027 510.455847 
L 284.371855 511.095573 
L 286.983435 512.080819 
L 287.589982 512.271248 
L 290.158914 513.070732 
L 292.779693 513.625234 
L 294.675584 514.114074 
L 295.212995 514.257135 
L 295.693912 514.372806 
L 296.173506 514.49368 
L 296.776281 514.663782 
L 298.171611 515.061146 
L 298.138581 515.174026 
L 299.19032 515.370372 
L 299.334762 515.398022 
L 300.071654 515.740433 
L 301.382545 516.082916 
L 302.824098 516.469523 
L 304.10405 516.799971 
L 305.175968 517.118436 
L 306.61118 517.545233 
L 307.268775 517.73557 
L 307.691529 517.866056 
L 308.456561 518.069715 
L 309.723192 518.406364 
L 310.926754 518.741031 
L 312.169107 519.072407 
L 313.167999 519.345741 
L 314.68758 519.619492 
L 317.059761 520.325519 
L 317.092635 520.333011 
L 318.851773 520.733968 
L 319.114138 520.757786 
L 319.166495 520.520299 
L 319.200313 520.403825 
L 319.208904 520.381347 
L 319.222104 520.361246 
L 319.239207 520.344391 
L 319.259443 520.331532 
L 319.281978 520.323237 
L 319.306943 520.319928 
L 319.332048 520.322211 
L 319.377639 520.343132 
L 319.395789 520.360613 
L 319.607418 520.479319 
L 320.153534 520.742504 
L 320.693473 521.015761 
L 321.21701 521.321668 
L 321.707504 521.678589 
L 322.172849 522.031527 
L 322.283111 522.159128 
L 322.377618 522.371485 
L 322.688445 522.458059 
L 323.449976 522.677719 
L 323.750165 522.753738 
L 323.932708 522.815507 
L 323.992307 522.362558 
L 324.174866 522.413278 
L 324.3402 522.459143 
L 324.504924 522.504902 
L 324.67026 522.550827 
L 324.835595 522.596754 
L 325.000868 522.64262 
L 325.190146 522.695238 
L 325.380399 522.748042 
L 325.49498 522.7799 
L 326.140865 522.959254 
L 327.216588 523.250029 
L 329.374342 523.834291 
L 330.336741 524.095166 
L 331.237189 524.33815 
L 334.157402 525.127143 
L 336.349978 525.720122 
L 338.489047 526.298415 
L 344.076161 527.883216 
L 345.907566 528.402558 
L 346.060982 528.445026 
L 347.079438 528.719926 
L 348.155934 529.011792 
L 349.22462 529.301852 
L 350.346607 529.606139 
L 350.350032 529.568649 
L 357.288551 531.426655 
L 360.102829 532.21225 
L 363.610964 533.157852 
L 366.6844 533.986484 
L 366.853421 534.025164 
L 367.134853 534.401597 
L 367.217417 534.424332 
L 367.214982 534.431205 
L 369.676826 534.954456 
L 369.862755 534.985353 
L 371.328132 535.311116 
L 371.619923 535.379732 
L 371.752702 535.351575 
L 371.757188 535.356328 
L 371.826959 535.340461 
L 376.840437 536.513555 
L 378.645858 536.978103 
L 380.297211 537.40299 
L 382.089232 537.843872 
L 383.593218 538.215921 
L 385.248967 538.625581 
L 386.673492 538.977991 
L 388.09045 539.340755 
L 388.325044 539.399634 
L 388.360223 539.326984 
L 388.402044 539.257998 
L 388.450156 539.193234 
L 388.50421 539.133308 
L 388.563555 539.078783 
L 388.647906 539.017608 
L 388.696337 538.987625 
L 388.768522 538.951875 
L 388.843793 538.923102 
L 389.514185 538.99883 
L 389.610034 539.009681 
L 390.229402 539.164722 
L 390.529459 539.336419 
L 390.560674 539.415855 
L 391.461071 539.553806 
L 392.601202 539.74285 
L 393.130384 539.839525 
L 393.658553 539.941761 
L 394.185584 540.049439 
L 394.71148 540.162682 
L 395.236239 540.281427 
L 395.759678 540.405619 
L 396.281796 540.535259 
L 396.802535 540.670346 
L 398.210986 541.040609 
L 399.103905 541.275412 
L 399.101093 541.303703 
L 399.177666 541.32471 
L 399.431036 541.392493 
L 399.745207 541.476739 
L 400.14451 541.583814 
L 400.401851 541.652836 
L 400.478164 541.673121 
L 400.490264 541.645206 
L 403.935513 542.552112 
L 403.933337 542.576738 
L 404.012344 542.598051 
L 404.53814 542.73929 
L 404.61641 542.760256 
L 404.626039 542.737816 
L 405.188333 542.900523 
L 405.562109 542.97922 
L 408.824784 543.76675 
L 409.845232 544.019008 
L 409.925376 544.04224 
L 410.621317 544.263036 
L 410.609589 544.296172 
L 412.315228 544.837075 
L 414.049365 545.387735 
L 415.87298 545.966576 
L 416.175865 546.062691 
L 416.163121 546.103759 
L 416.400951 546.188366 
L 417.461447 546.589387 
L 418.427344 546.954639 
L 418.515073 546.98784 
L 418.847926 547.113679 
L 420.29213 547.754305 
L 421.843339 548.442408 
L 422.234353 548.615861 
L 423.040998 548.986901 
L 423.284216 549.103528 
L 424.140218 549.514 
L 424.450841 549.665519 
L 424.611384 549.705296 
L 424.679425 549.739417 
L 425.85125 550.327801 
L 426.929347 550.888184 
L 426.961813 550.815849 
L 427.248366 550.972534 
L 427.660771 551.169012 
L 427.729195 551.035508 
L 427.8998 551.165472 
L 428.446087 551.446672 
L 429.211865 551.833809 
L 429.42602 551.947055 
L 429.841466 552.165963 
L 430.937033 552.728868 
L 433.002582 553.791519 
L 433.565511 554.080673 
L 433.193919 554.431907 
L 432.800671 554.818621 
L 432.134263 555.485172 
L 431.442663 556.199427 
L 431.28251 556.363198 
L 430.854343 556.344821 
L 430.63737 556.644677 
L 429.947193 557.598504 
L 428.855259 559.107341 
L 427.749376 560.635287 
L 426.935496 561.7598 
L 426.262201 562.690079 
L 426.385934 562.888783 
L 425.815632 563.635771 
L 426.055271 563.812786 
L 426.494576 564.137293 
L 426.622022 564.234094 
L 426.682162 564.279847 
L 427.736029 565.08016 
L 428.74249 565.761665 
L 428.833904 565.833641 
L 430.208648 566.916416 
L 431.668852 568.078499 
L 433.122526 569.249145 
L 434.570564 570.427724 
L 435.694795 571.352872 
L 436.815973 572.282358 
L 437.932975 573.217364 
L 439.046127 574.156303 
L 440.799379 575.653103 
L 440.989158 575.816168 
L 441.178758 575.97936 
L 441.36824 576.142737 
L 441.557367 576.306427 
L 441.746436 576.47024 
L 441.935326 576.634179 
L 444.876573 579.183975 
L 445.955094 580.118973 
L 446.027285 580.181459 
L 446.099535 580.243883 
L 446.171903 580.306182 
L 446.456268 580.54991 
L 447.028237 581.033577 
L 447.315846 581.273698 
L 447.604514 581.512516 
L 447.89424 581.75003 
L 448.133915 581.944881 
L 448.345339 582.115561 
L 448.769835 582.454874 
L 449.063491 582.687061 
L 449.653856 583.147528 
L 449.883851 583.304184 
L 450.359723 583.629201 
L 450.585337 583.783293 
L 451.336759 584.295583 
L 451.785228 584.601765 
L 452.299316 584.952474 
L 452.408548 585.026994 
L 452.64132 585.185711 
L 452.867244 585.339734 
L 452.996889 585.428098 
L 453.491908 585.765479 
L 453.824013 585.983515 
L 454.065448 586.142018 
L 454.428678 586.380446 
L 455.189655 586.879979 
L 456.126356 587.494892 
L 456.166207 587.51993 
L 456.293649 587.600201 
L 456.950862 588.013588 
L 459.073426 589.318056 
L 459.211344 589.397824 
L 459.568132 589.604123 
L 459.842551 589.762783 
L 460.608644 590.188004 
L 460.65855 590.215104 
L 461.661561 590.758747 
L 461.974312 590.920348 
L 462.107841 590.989462 
L 462.724497 591.308141 
L 464.67408 592.283847 
L 465.027586 592.460676 
L 465.661954 592.760249 
L 466.837897 593.307152 
L 466.873976 593.323937 
L 466.875376 593.324588 
L 467.805373 593.673007 
L 468.651064 593.989844 
L 469.682766 594.358252 
L 469.970035 594.448424 
L 471.128405 594.812169 
L 471.326457 594.874392 
L 472.290465 595.148701 
L 473.370606 595.455768 
L 474.270465 595.656626 
L 474.494357 595.70702 
L 476.733413 596.206521 
L 476.984024 596.260998 
L 478.800938 596.598269 
L 481.311979 597.060707 
L 481.52553 597.099989 
L 481.5456 597.102472 
L 481.690655 597.100759 
L 481.902527 597.096537 
L 482.11441 597.090307 
L 482.326184 597.082074 
L 482.545779 597.071397 
L 482.572905 597.069872 
L 482.852311 597.052846 
L 483.131448 597.032299 
L 483.410378 597.008231 
L 483.688918 596.980705 
L 483.789125 596.970009 
L 483.889261 596.95889 
L 483.989386 596.947345 
L 485.630054 596.57228 
L 485.801717 596.538162 
L 486.8809 596.408502 
L 486.99122 596.380041 
L 487.260902 596.307915 
L 487.529713 596.232466 
L 487.797593 596.153634 
L 488.064422 596.071544 
L 488.419508 595.956371 
L 488.772569 595.835289 
L 489.123605 595.708297 
L 489.472497 595.575459 
L 489.819124 595.436839 
L 490.163427 595.292439 
L 490.505286 595.142382 
L 490.844581 594.986673 
L 491.181251 594.825311 
L 491.515236 594.6583 
L 491.846358 594.485826 
L 492.174614 594.307767 
L 492.499649 594.124436 
L 492.821642 593.935768 
L 493.140411 593.741706 
L 493.455957 593.542373 
L 493.768161 593.33777 
L 494.076904 593.128023 
L 494.788993 592.625299 
L 495.5031 592.125568 
L 496.219281 591.628767 
L 496.899794 591.160827 
L 497.582072 590.695522 
L 498.266177 590.232909 
L 498.952107 589.772929 
L 499.310393 589.543351 
L 499.671266 589.317846 
L 500.034667 589.096474 
L 500.400473 588.87918 
L 500.768745 588.666021 
L 501.139623 588.457663 
L 501.512849 588.253566 
L 501.888363 588.053732 
L 502.266167 587.858219 
L 502.646078 587.666974 
L 503.028832 587.480402 
L 503.413696 587.298219 
L 503.800609 587.120425 
L 504.189512 586.947144 
L 504.580345 586.778316 
L 504.973171 586.614122 
L 505.367868 586.454444 
L 505.764315 586.299346 
L 506.162573 586.148886 
L 506.562522 586.003008 
L 506.898087 585.884752 
L 507.234824 585.769751 
L 507.572673 585.658069 
L 507.911691 585.54952 
L 508.2517 585.444293 
L 508.592699 585.342325 
L 508.934451 585.243807 
L 509.277134 585.148671 
L 509.620689 585.05692 
L 509.965237 584.968551 
L 510.310594 584.883507 
L 510.656764 584.80191 
L 510.899108 584.74678 
L 511.141855 584.693283 
L 511.384948 584.641481 
L 511.661109 584.595491 
L 511.72955 584.745421 
L 511.996561 585.430576 
L 512.064316 585.604424 
L 512.147538 585.817971 
L 512.26743 586.171649 
L 512.405444 586.579374 
L 512.14737 586.630938 
L 511.889711 586.684559 
L 511.632465 586.740238 
L 512.238243 588.316654 
L 512.785911 590.7692 
L 512.996295 593.808524 
L 512.762466 595.87958 
L 512.655641 596.828375 
L 511.265536 601.356183 
L 510.945134 601.708577 
L 510.708852 601.967968 
L 510.38454 602.324047 
L 510.176864 602.827284 
L 510.286883 602.845852 
L 510.396794 602.864969 
L 510.506597 602.884577 
L 510.591075 602.900066 
L 510.675439 602.915862 
L 510.759811 602.931962 
L 510.87301 602.954101 
L 510.986041 602.976791 
L 511.098965 603.000092 
L 511.243966 603.030872 
L 511.388809 603.062629 
L 511.533434 603.095364 
L 511.608194 603.112675 
L 511.682961 603.130229 
L 511.757612 603.148029 
L 511.807811 603.160169 
L 511.858013 603.17243 
L 511.908218 603.184814 
L 512.086488 603.229672 
L 512.26443 603.275999 
L 512.441984 603.323795 
L 512.468478 603.331108 
L 512.494972 603.338421 
L 512.521466 603.345734 
L 512.569207 603.359029 
L 512.801844 603.425292 
L 513.033694 603.494068 
L 513.264877 603.565353 
L 513.579773 603.662913 
L 513.895624 603.75747 
L 514.212312 603.849026 
L 514.529835 603.937582 
L 514.87004 604.028801 
L 515.21113 604.116593 
L 515.553045 604.200959 
L 515.895845 604.281837 
L 516.339384 604.381211 
L 516.784114 604.474778 
L 517.230096 604.562537 
L 517.677148 604.644493 
L 518.125208 604.720585 
L 518.574217 604.790878 
L 519.06519 604.863906 
L 519.556781 604.932479 
L 520.048987 604.996477 
L 520.541747 605.055901 
L 521.035064 605.110811 
L 521.335975 605.140243 
L 521.637026 605.167907 
L 521.938278 605.193925 
L 522.500664 605.239349 
L 523.063452 605.278925 
L 523.626641 605.312593 
L 524.19017 605.340355 
L 524.753918 605.362213 
L 525.317885 605.378167 
L 526.335565 605.401666 
L 527.349977 605.620904 
L 530.787889 606.364092 
L 531.913416 606.607429 
L 532.817418 606.410973 
L 533.800853 606.197359 
L 534.932501 605.950175 
L 535.035335 605.583643 
L 535.451931 604.094517 
L 535.516101 603.864989 
L 538.085243 604.091474 
L 538.836179 604.151141 
L 543.699376 604.57258 
L 546.836342 604.844411 
L 547.342872 605.10035 
L 547.98624 605.425421 
L 548.243094 605.555158 
L 551.244989 605.051209 
L 554.263073 604.529499 
L 555.200342 604.373652 
L 557.292239 604.024212 
L 557.40651 604.005959 
L 558.855567 603.774976 
L 559.093153 603.773645 
L 562.93075 603.725999 
L 564.806483 603.524901 
L 566.471477 603.346862 
L 569.02107 603.147635 
L 569.524441 603.107807 
L 569.527171 603.157672 
L 570.979364 603.082306 
L 570.986339 603.216848 
L 570.993543 603.355764 
L 573.079022 603.247253 
L 574.238482 603.186859 
L 574.697766 603.171596 
L 576.009643 603.150536 
L 576.147821 603.150375 
L 576.866524 603.148954 
L 577.148312 603.152637 
L 577.429947 603.162467 
L 577.711307 603.178446 
L 577.992271 603.200578 
L 578.272655 603.228806 
L 578.552401 603.263192 
L 578.831265 603.303683 
L 579.109245 603.350216 
L 579.386097 603.402737 
L 579.661762 603.461309 
L 579.93612 603.525934 
L 580.208984 603.596495 
L 580.480235 603.672996 
L 580.74975 603.755438 
L 581.017467 603.843703 
L 581.283144 603.937856 
L 581.819924 604.137404 
L 582.278474 604.326398 
L 583.360127 604.769211 
L 583.422175 604.795 
L 583.449432 604.806376 
L 584.004238 603.393187 
L 584.654992 604.048584 
L 584.934132 604.040662 
L 585.225999 604.084854 
L 585.526394 604.118195 
L 585.825139 604.165991 
L 586.122017 604.224293 
L 586.416397 604.299564 
L 586.701122 604.396723 
L 586.987015 604.494523 
L 587.167913 604.558216 
L 587.348017 604.62418 
L 587.527269 604.692475 
L 587.705605 604.763043 
L 587.883085 604.835822 
L 588.059589 604.910814 
L 590.133655 605.80785 
L 592.30238 606.74589 
L 593.35651 606.900158 
L 593.663654 607.041843 
L 593.970391 607.184267 
L 594.276843 607.327429 
L 594.569215 607.465035 
L 594.861239 607.60332 
L 595.152975 607.74228 
L 595.444121 607.881864 
L 595.734979 608.022123 
L 596.025431 608.163123 
L 596.315776 608.304734 
L 596.605835 608.447082 
L 596.895486 608.590109 
L 599.085317 609.675107 
L 599.184979 609.724431 
L 599.419022 609.839686 
L 599.653526 609.953957 
L 599.888552 610.067242 
L 600.123799 610.179671 
L 600.359506 610.291054 
L 600.595734 610.401452 
L 600.832422 610.510805 
L 601.069569 610.619113 
L 601.307119 610.726499 
L 601.545184 610.832657 
L 601.783708 610.937769 
L 602.022633 611.041899 
L 602.262143 611.145163 
L 602.502054 611.247445 
L 602.742363 611.348683 
L 602.983074 611.448999 
L 603.224183 611.548211 
L 603.465692 611.64644 
L 603.664795 611.726121 
L 603.864185 611.805125 
L 604.06386 611.883393 
L 605.37825 612.410255 
L 605.639806 612.515174 
L 607.758758 613.364894 
L 608.016211 613.468151 
L 608.144906 613.51975 
L 608.39642 613.620658 
L 608.52291 613.671338 
L 608.793709 613.779927 
L 608.931834 613.835371 
L 609.378533 614.01454 
L 609.389744 613.979296 
L 609.40432 613.945247 
L 609.422087 613.912823 
L 609.451752 613.870987 
L 609.486736 613.833461 
L 609.52639 613.80099 
L 609.57006 613.774139 
L 609.616909 613.753352 
L 609.666098 613.739077 
L 609.716723 613.731518 
L 609.767939 613.730817 
L 609.818776 613.736998 
L 609.868321 613.749961 
L 610.187823 613.851768 
L 610.506645 613.955539 
L 610.824848 614.061332 
L 610.926383 614.095531 
L 611.027801 614.129915 
L 611.129225 614.164543 
L 611.742982 614.374736 
L 612.163269 614.519886 
L 612.58242 614.668227 
L 613.000494 614.819696 
L 613.41737 614.974297 
L 613.818481 615.126363 
L 614.218512 615.281376 
L 614.617399 615.439275 
L 615.015141 615.6 
L 615.130873 615.316504 
L 615.356145 614.764259 
L 615.472907 614.478244 
L 615.698131 613.926427 
L 615.763663 613.765729 
L 615.811625 613.648155 
L 615.52884 613.229617 
L 615.519024 612.165289 
L 615.513454 611.950188 
L 615.500432 611.73533 
L 615.480029 611.521137 
L 615.452248 611.307733 
L 615.417037 611.095483 
L 615.374521 610.884505 
L 615.324769 610.675163 
L 615.267787 610.4677 
L 615.20364 610.262358 
L 614.999848 609.648251 
L 614.927597 609.426199 
L 614.85733 609.20349 
L 614.789109 608.980123 
L 614.723903 608.768604 
L 614.660503 608.556553 
L 614.598909 608.343973 
L 614.30662 607.197549 
L 614.077439 606.035782 
L 613.901761 604.86517 
L 613.782795 603.687947 
L 613.720746 602.505019 
L 613.706583 602.095386 
L 613.676965 601.302853 
L 613.673701 601.215597 
L 613.619973 599.883096 
L 613.596866 599.309411 
L 613.580215 598.902211 
L 613.448119 595.893274 
L 613.439447 595.755488 
L 613.42551 595.618134 
L 613.406434 595.481393 
L 613.382225 595.345506 
L 613.352825 595.210597 
L 613.318363 595.076967 
L 613.2789 594.944675 
L 613.229069 594.799864 
L 613.172689 594.657524 
L 613.109887 594.517955 
L 613.04073 594.381338 
L 612.96547 594.248094 
L 612.884172 594.118403 
L 612.797087 593.992623 
L 612.704282 593.870997 
L 612.606063 593.7537 
L 612.50256 593.641031 
L 612.393961 593.533231 
L 612.280573 593.430535 
L 612.162645 593.333118 
L 612.040365 593.241282 
L 611.914038 593.155139 
L 611.783913 593.074867 
L 611.650235 593.000642 
L 611.513314 592.932699 
L 611.417127 592.889308 
L 611.319675 592.848745 
L 611.221141 592.811066 
L 611.121523 592.776212 
L 610.992245 592.735938 
L 610.861569 592.700564 
L 610.729618 592.670086 
L 610.596695 592.644559 
L 610.213264 592.577881 
L 610.254383 592.453113 
L 610.405363 591.995058 
L 611.606289 588.352385 
L 611.768215 587.860432 
L 612.502792 585.628682 
L 604.973615 579.710976 
L 602.613748 577.856349 
L 602.452574 577.729602 
L 599.267402 575.224839 
L 594.81963 571.727329 
L 594.306468 571.323804 
L 593.218137 570.468035 
L 592.734484 570.088727 
L 592.003842 569.521991 
L 591.580177 569.193401 
L 587.691807 566.17733 
L 585.744379 564.666839 
L 584.955324 564.045656 
L 584.161383 563.430738 
L 583.362621 562.822143 
L 582.559098 562.219871 
L 581.750873 561.623919 
L 580.938013 561.034468 
L 580.120515 560.451398 
L 579.298441 559.874828 
L 578.471914 559.304816 
L 577.640874 558.741302 
L 576.805443 558.184406 
L 576.508904 557.990054 
L 575.965682 557.634126 
L 575.121594 557.090523 
L 574.273238 556.553595 
L 573.62832 556.200406 
L 572.979396 555.854614 
L 572.326588 555.516218 
L 571.67002 555.185334 
L 571.00975 554.861842 
L 570.345904 554.545979 
L 569.678479 554.237626 
L 569.315206 554.074839 
L 569.007602 553.936961 
L 568.333393 553.643921 
L 567.655852 553.358567 
L 566.975163 553.080954 
L 566.291386 552.811081 
L 565.604585 552.549009 
L 564.91482 552.294795 
L 564.222276 552.048497 
L 563.527012 551.810052 
L 562.829028 551.57952 
L 562.087116 551.321659 
L 561.079031 550.97711 
L 560.201401 550.683728 
L 559.322015 550.3955 
L 558.440997 550.112545 
L 557.661137 549.867128 
L 550.450911 547.678451 
L 549.819281 549.390737 
L 546.443196 549.676043 
L 538.064281 550.366591 
L 537.143406 550.444629 
L 533.865714 550.705927 
L 531.121134 550.915675 
L 528.321707 551.071043 
L 525.20684 551.179564 
L 521.019168 551.294113 
L 514.994433 551.315673 
L 510.992523 551.046366 
L 507.346777 550.519799 
L 503.487518 549.751328 
L 501.442209 549.276593 
L 498.255418 548.455764 
L 494.448632 547.328474 
L 490.774375 546.060677 
L 487.840305 544.922428 
L 485.154337 543.715931 
L 484.017822 543.181417 
L 483.166873 542.766852 
L 482.048293 542.189693 
L 481.04498 541.630113 
L 480.096178 541.064143 
L 478.922133 540.32927 
L 476.573267 538.725806 
L 474.346468 537.273625 
L 472.972026 536.479132 
L 472.120938 536.046362 
L 471.124412 535.620509 
L 468.749128 534.710225 
L 467.298059 534.299165 
L 465.805357 534.028161 
L 464.598196 533.871009 
L 463.082188 533.764273 
L 461.676372 533.746725 
L 460.927489 533.8491 
L 460.49892 533.921127 
L 460.071474 533.99927 
L 459.645151 534.083588 
L 459.22007 534.174019 
L 458.796355 534.27056 
L 458.374064 534.373208 
L 455.087875 535.253428 
L 453.423603 533.185793 
L 454.128089 532.14516 
L 454.833947 530.880438 
L 455.497623 529.570059 
L 455.919118 528.663221 
L 456.87331 526.446288 
L 457.346973 525.311605 
L 457.715837 524.277326 
L 457.994206 523.360369 
L 458.064973 523.041317 
L 458.309675 521.731822 
L 458.461751 520.720699 
L 458.669193 518.650378 
L 458.73749 517.138308 
L 458.665319 515.849167 
L 458.480148 514.410243 
L 458.206789 513.182122 
L 458.086554 512.583131 
L 457.858707 511.449242 
L 457.553253 510.316493 
L 456.824331 507.613303 
L 456.417828 506.105934 
L 455.415294 502.438101 
L 455.059592 501.109067 
L 454.998907 500.882447 
L 454.725356 499.630554 
L 454.696615 499.417796 
L 454.549142 498.326793 
L 454.479619 497.179842 
L 454.480843 497.033299 
L 454.486758 496.331548 
L 454.743151 494.105102 
L 454.981763 492.946223 
L 455.020015 492.817977 
L 455.250995 492.044027 
L 455.579136 491.313759 
L 455.93423 490.716622 
L 456.113504 490.478008 
L 456.596008 489.835553 
L 457.174183 489.259868 
L 457.609301 488.90584 
L 458.305289 488.448377 
L 459.032902 488.094737 
L 459.849579 487.795748 
L 460.850996 487.488578 
L 461.999828 487.020286 
L 462.913374 486.510228 
L 463.585396 485.953813 
L 464.100116 485.433362 
L 464.574248 484.826816 
L 464.694962 484.67239 
L 464.951895 484.247631 
L 465.138977 483.895037 
L 465.244939 483.701007 
L 467.835136 483.954527 
L 468.403057 484.010539 
L 471.951927 484.339957 
L 472.626087 484.392304 
L 479.109826 484.969878 
L 479.60302 485.013838 
L 481.638039 485.195135 
L 482.035277 485.067173 
L 482.431601 484.936557 
L 482.827132 484.803286 
L 482.895397 484.77976 
L 483.221688 484.667364 
L 483.854572 484.443184 
L 484.484983 484.212134 
L 485.112862 483.974336 
L 485.738211 483.729791 
L 486.360908 483.478561 
L 486.980833 483.22059 
L 487.597985 482.955938 
L 488.212246 482.68467 
L 488.823556 482.406846 
L 489.431914 482.122406 
L 490.03714 481.831417 
L 490.349175 481.674437 
L 490.467555 481.613503 
L 490.659744 481.514576 
L 490.968847 481.35177 
L 491.276363 481.186146 
L 491.97036 480.805079 
L 492.661819 480.419454 
L 493.350742 480.029271 
L 493.984853 479.664592 
L 494.037127 479.63453 
L 494.720919 479.235355 
L 495.402052 478.831624 
L 496.080531 478.423461 
L 496.529273 478.147306 
L 496.974103 477.864923 
L 497.41502 477.576373 
L 497.851967 477.281719 
L 498.284703 476.981088 
L 498.713288 476.674417 
L 499.137603 476.361832 
L 499.55759 476.043395 
L 499.973129 475.719168 
L 500.384099 475.389217 
L 500.790501 475.05354 
L 502.118088 473.951876 
L 502.438674 473.683279 
L 502.754325 473.408844 
L 503.064861 473.128636 
L 503.370223 472.842779 
L 503.670291 472.551275 
L 503.965011 472.25437 
L 504.254197 471.952006 
L 504.537797 471.644428 
L 504.815689 471.33164 
L 505.087814 471.013765 
L 505.354057 470.690987 
L 505.614357 470.363308 
L 505.868597 470.030914 
L 506.066672 469.762917 
L 506.260795 469.492037 
L 506.450967 469.218336 
L 506.637128 468.941876 
L 506.874388 468.555348 
L 507.105061 468.164848 
L 507.329027 467.770439 
L 507.546289 467.372303 
L 507.756788 466.970442 
L 507.960407 466.565103 
L 508.157089 466.156346 
L 508.346836 465.744295 
L 508.529527 465.329012 
L 508.70517 464.910741 
L 508.873642 464.489485 
L 509.034949 464.065425 
L 509.314646 463.339457 
L 510.124776 461.236712 
L 510.467437 460.347534 
L 511.008937 458.94196 
L 511.544512 457.5518 
L 512.262177 455.689145 
L 512.381779 455.396817 
L 512.495806 455.102254 
L 512.604322 454.805578 
L 512.707207 454.506912 
L 512.804527 454.206376 
L 512.896161 453.904035 
L 512.982052 453.600011 
L 513.053022 453.330657 
L 513.119536 453.060196 
L 513.181595 452.78863 
L 513.239141 452.51608 
L 513.292115 452.242609 
L 513.319616 452.09037 
L 513.345656 451.937924 
L 513.370295 451.785209 
L 513.412693 451.498558 
L 513.45016 451.211239 
L 513.4827 450.923311 
L 513.510251 450.634838 
L 513.532878 450.345939 
L 513.550462 450.056678 
L 513.552917 450.008449 
L 513.553155 450.003399 
L 513.55519 449.960225 
L 513.557341 449.912003 
L 513.559372 449.863785 
L 513.561281 449.81557 
L 513.563007 449.767298 
L 513.537084 449.529469 
L 513.238911 446.79836 
L 513.125876 445.763163 
L 512.285609 438.066705 
L 511.855297 434.125419 
L 511.671452 432.441589 
L 510.514559 420.958255 
L 509.835256 414.215937 
L 509.848517 413.531341 
L 509.869914 412.84697 
L 509.899386 412.162826 
L 509.936938 411.47915 
L 509.982512 410.795946 
L 510.03623 410.113331 
L 510.097974 409.43143 
L 510.167806 408.750242 
L 510.24567 408.07001 
L 510.331565 407.390675 
L 510.425498 406.71248 
L 510.527407 406.035425 
L 510.637356 405.359632 
L 510.755226 404.685164 
L 510.88108 404.01214 
L 511.014922 403.340683 
L 511.105111 402.909929 
L 511.198592 402.479823 
L 511.295369 402.050487 
L 511.455673 401.366943 
L 511.622631 400.685059 
L 511.796305 400.004834 
L 511.976635 399.32633 
L 512.163564 398.64967 
L 512.357153 397.974853 
L 512.557405 397.302 
L 512.7642 396.631175 
L 512.977537 395.962378 
L 513.558636 394.182957 
L 514.057863 392.654306 
L 514.578586 391.160644 
L 515.438239 388.713316 
L 517.343896 383.432068 
L 519.13993 378.448021 
L 519.851652 376.511825 
L 520.493064 375.112202 
L 521.460614 373.449829 
L 522.347644 372.167735 
L 523.563158 370.559951 
L 524.785991 369.09163 
L 526.263181 367.565288 
L 527.482723 366.449076 
L 528.801175 365.357193 
L 529.991159 364.442846 
L 531.252465 363.585984 
L 532.166819 362.974925 
L 533.174781 362.172114 
L 534.106442 361.234406 
L 534.800142 360.310282 
L 535.38437 359.195271 
L 535.728332 358.361378 
L 535.996817 357.233219 
L 536.128424 356.118343 
L 536.110407 354.989391 
L 535.955931 354.069181 
L 534.948479 351.16552 
L 534.864322 350.958013 
L 534.779297 350.727476 
L 534.702094 350.494253 
L 534.632659 350.258528 
L 534.57124 350.020599 
L 534.517723 349.780711 
L 534.472298 349.539225 
L 534.435031 349.296322 
L 534.405868 349.052307 
L 534.384877 348.807422 
L 534.372063 348.561971 
L 534.367497 348.316256 
L 534.371183 348.07052 
L 534.383068 347.825069 
L 534.403159 347.580146 
L 534.4314 347.335995 
L 534.467862 347.09298 
L 534.512367 346.851287 
L 534.564983 346.611219 
L 534.625595 346.373083 
L 535.68441 343.324349 
L 537.073594 339.323468 
L 537.168324 339.016316 
L 537.255535 338.706915 
L 537.33517 338.395451 
L 537.407236 338.082167 
L 537.471613 337.767186 
L 537.52837 337.450751 
L 537.577388 337.133046 
L 537.618671 336.814194 
L 537.652224 336.494437 
L 537.677931 336.173962 
L 537.695918 335.852946 
L 537.706009 335.531638 
L 537.708326 335.210096 
L 537.702817 334.888685 
L 537.689483 334.567407 
L 537.668332 334.246624 
L 537.639427 333.926398 
L 537.602714 333.607032 
L 537.55558 333.271016 
L 537.49986 332.936305 
L 537.435499 332.603146 
L 537.362684 332.271714 
L 537.281362 331.942317 
L 537.191598 331.615135 
L 537.093457 331.290348 
L 536.987066 330.968197 
L 536.872368 330.648865 
L 536.749554 330.332653 
L 536.618626 330.019681 
L 536.479773 329.710189 
L 536.332999 329.404419 
L 536.178369 329.102492 
L 536.016071 328.804646 
L 535.846231 328.511121 
L 535.668853 328.222039 
L 535.484125 327.937639 
L 535.292173 327.658099 
L 534.801977 327.016371 
L 534.306896 326.378473 
L 533.80699 325.744344 
L 533.302261 325.114105 
L 532.792649 324.487758 
L 532.278335 323.865299 
L 531.469672 322.634001 
L 530.844805 321.198694 
L 530.54135 319.407165 
L 530.271614 314.836324 
L 529.530457 310.91058 
L 528.283106 307.709796 
L 525.19848 301.144404 
L 523.688139 298.112932 
L 523.259995 296.172561 
L 523.184611 294.29167 
L 523.464518 290.625276 
L 523.525163 288.757026 
L 523.335376 286.921103 
L 522.759294 285.104375 
L 520.966086 281.854378 
L 517.99587 277.944238 
L 510.269297 272.964762 
L 502.858655 265.424646 
L 498.936956 260.263531 
L 497.186965 257.961128 
L 493.475588 248.610769 
L 493.698123 240.751074 
L 494.915051 232.238334 
L 493.986951 228.84685 
L 492.409378 225.64326 
L 490.387269 222.482312 
L 486.084261 218.699157 
L 484.495308 216.817774 
L 483.07825 214.869191 
L 482.164387 212.526201 
L 482.007161 209.425816 
L 482.7918 206.549794 
L 485.219256 203.162326 
L 487.204965 200.087967 
L 491.163496 188.159453 
L 476.782873 185.276218 
L 476.476624 185.215335 
L 473.525714 184.623212 
L 469.863973 183.896603 
L 465.83153 183.089177 
L 461.702803 182.832172 
L 457.095804 182.548867 
L 453.517667 182.324076 
L 449.7988 182.087932 
L 448.931048 186.074341 
L 448.092666 189.993123 
L 447.20993 194.107874 
L 441.720508 192.382349 
L 440.323818 191.323353 
L 438.938154 190.420087 
L 435.938598 188.680938 
L 434.040227 187.595321 
L 430.704597 185.780378 
L 430.229724 185.521835 
L 430.124278 185.442181 
L 430.028773 185.369151 
L 428.706415 184.377138 
L 428.323279 184.089122 
L 428.156648 183.963923 
L 427.835333 183.722715 
L 427.733151 183.644926 
L 427.062382 183.14448 
L 426.6779 182.856196 
L 425.84027 182.226365 
L 425.73736 182.165745 
L 423.342863 180.739966 
L 421.03801 179.425695 
L 420.690699 179.3454 
L 416.17808 178.302332 
L 415.91151 178.255601 
L 413.358491 177.807508 
L 410.798813 176.231362 
L 409.250717 175.791782 
L 405.756969 174.353102 
L 402.082822 173.715583 
L 399.340966 173.318685 
L 395.892637 172.529131 
L 393.935279 172.241664 
L 392.3757 171.786708 
L 390.553407 171.180105 
L 388.502875 170.581555 
L 385.62834 169.805689 
L 384.50317 168.961696 
L 382.013671 167.89357 
L 381.288678 167.092262 
L 379.653493 165.742324 
L 376.892186 163.37944 
L 374.846037 161.62946 
L 372.673286 160.653005 
L 370.326127 159.558102 
L 370.229836 159.512783 
L 369.217869 158.980003 
L 368.675566 158.692847 
L 367.6026 158.158992 
L 364.947751 156.838275 
L 360.49215 153.820451 
L 358.870962 151.531177 
L 357.057873 149.737858 
L 356.753249 149.391393 
L 355.748855 148.249189 
L 351.428371 146.121453 
L 348.291635 145.236583 
L 345.222208 144.770727 
L 342.365703 143.857373 
L 338.282845 141.875871 
L 335.545009 140.377065 
L 330.515274 138.083651 
L 328.363042 137.839253 
L 324.412801 137.812573 
L 322.286588 137.331523 
L 320.023718 137.087981 
L 319.387956 137.003923 
L 318.458924 136.873656 
L 315.682388 136.54768 
L 314.217106 136.027674 
L 311.306432 135.05195 
L 309.92134 134.05354 
L 308.353675 132.209771 
L 306.572232 130.251258 
L 304.324704 128.551026 
L 302.287632 127.752148 
L 301.666654 127.507069 
L 298.924628 126.382922 
L 296.537076 125.180091 
L 293.680849 124.715247 
L 290.484762 124.145041 
L 288.787247 123.749055 
L 287.569692 123.671656 
L 284.150325 120.665641 
L 280.72722 117.673019 
L 277.168218 114.602828 
L 273.721511 111.6 
L 273.088487 111.846093 
L 269.30072 112.812939 
L 268.826546 112.933535 
L 264.582726 114.013521 
L 260.54428 115.04125 
L 256.341132 116.111012 
L 252.113879 117.186984 
L 249.44851 117.865453 
L 247.653743 118.322312 
L 243.055287 119.495428 
L 242.986197 119.513009 
L 239.633473 122.839628 
L 236.403788 126.042043 
L 234.571327 127.865994 
L 234.338813 128.097407 
L 233.177851 129.252975 
L 230.831292 131.58294 
L 230.44549 131.965893 
L 230.241992 132.168041 
L 229.958062 132.449918 
L 223.167844 142.963035 
L 222.769019 143.502941 
L 222.74695 143.532822 
L 221.001994 145.894988 
L 211.021769 158.423126 
L 210.247441 159.118302 
L 209.057065 159.826429 
L 208.874339 159.935066 
L 194.550864 168.456053 
L 191.280431 170.495589 
L 188.462897 172.258496 
L 187.251447 173.089987 
L 186.568443 173.415465 
L 181.558874 175.130675 
L 180.506324 175.436816 
L 179.915026 175.604368 
L 174.113595 176.703251 
L 172.370195 177.033471 
L 170.996353 177.321674 
L 170.133975 177.504401 
L 169.610218 177.684156 
L 169.148872 177.84229 
L 166.471948 178.760528 
L 165.399724 179.289342 
L 164.212748 179.874831 
L 158.319118 185.615246 
L 156.564084 187.324868 
L 156.364532 187.518938 
L 156.164329 187.713634 
L 155.21458 188.523034 
L 154.231687 188.913889 
L 149.567024 190.12662 
L 144.648199 191.406044 
L 142.665205 191.921887 
L 141.375712 191.93916 
L 137.431521 191.993465 
L 136.864283 191.934172 
L 136.134335 191.858913 
L 134.165726 191.287666 
L 128.797787 189.730016 
L 127.441661 189.336485 
L 127.066773 190.826562 
L 125.986543 195.119812 
L 125.311655 197.802139 
L 125.254955 198.027427 
L 129.009925 198.61982 
L 125.922207 208.919601 
L 125.101998 211.655701 
L 125.003543 211.984615 
L 123.330038 217.579138 
L 124.888841 217.521272 
L 127.196855 217.15955 
L 127.398009 217.11558 
L 129.821662 216.584107 
L 131.258918 216.898847 
L 131.537845 217.133965 
L 132.772482 218.172856 
L 133.784214 219.978021 
L 134.779533 223.028762 
L 135.019642 223.810011 
L 136.14919 227.485957 
L 137.157227 232.504356 
L 137.859202 234.778766 
L 138.100394 235.560355 
L 138.604248 237.193282 
L 139.483248 238.844085 
L 140.223143 240.233757 
L 141.888022 241.3907 
L 142.430349 241.459953 
L 144.479282 240.907971 
L 146.707497 240.306835 
L 148.563217 239.806721 
L 150.035636 239.410092 
L 151.223859 239.087673 
L 152.09661 238.850795 
L 153.932988 238.353284 
L 154.187338 238.639661 
L 154.630662 238.521076 
L 156.514904 238.017233 
L 158.851462 237.100531 
L 161.686264 235.632707 
L 162.623355 235.147453 
L 163.691677 235.299534 
L 165.75569 235.593544 
L 167.12995 235.7893 
L 169.363166 236.107484 
L 171.312886 234.778312 
L 173.033589 233.306063 
L 174.47175 232.693987 
L 175.276566 232.351831 
L 175.682438 232.166736 
L 179.619601 230.37534 
L 180.356405 230.039149 
L 181.201476 229.654187 
L 181.649029 229.514977 
L 185.124767 228.437718 
L 185.196786 228.414756 
L 187.507942 228.208998 
L 188.632818 228.109137 
L 189.197767 227.56496 
L 191.069888 225.764141 
L 191.88531 224.977779 
L 193.392426 224.317249 
L 194.004731 224.051567 
L 196.998749 222.739145 
L 207.443472 218.160996 
L 212.358614 216.000592 
L 212.617431 216.680887 
L 213.015742 217.851081 
L 213.123606 218.167912 
L 213.492411 219.264727 
L 216.400767 221.186736 
L 219.061572 223.773251 
L 219.503687 224.946039 
L 219.348196 227.54821 
L 220.526435 231.023731 
L 221.91178 234.883606 
L 222.410685 235.745311 
L 223.527009 237.673683 
L 224.689564 240.653342 
L 225.888993 243.727483 
L 226.95149 245.870115 
L 227.054376 248.201944 
L 227.11447 249.562621 
L 227.147026 250.299579 
L 228.173719 252.413089 
L 228.401834 252.882901 
L 228.439327 253.200326 
L 228.694441 255.365743 
L 228.758303 255.907399 
L 228.559326 257.4424 
L 228.478308 258.067992 
L 228.159468 260.52796 
L 228.500506 262.552202 
L 228.680404 263.620248 
L 229.069815 267.33602 
L 228.350654 269.985976 
L 229.152682 274.040751 
L 228.211237 275.635424 
L 228.233739 276.691818 
L 228.286313 277.40953 
L 228.310709 277.741887 
L 228.357605 278.665009 
L 228.555369 282.794035 
L 228.547841 284.354779 
L 227.778839 285.508595 
L 226.974331 286.849917 
L 226.486182 287.663852 
L 225.380476 289.578704 
L 225.836757 292.745145 
L 225.751526 295.328424 
L 225.744563 295.540435 
L 224.993652 299.784609 
L 223.789565 303.252693 
L 222.93701 304.198295 
L 221.599906 305.004902 
L 220.013084 305.96219 
L 219.165277 306.473374 
L 219.144075 308.169124 
L 218.836236 312.112499 
L 218.452513 313.001311 
L 218.2338 313.524133 
L 215.490224 320.082723 
L 215.216666 321.393345 
L 215.122696 321.843144 
L 214.342388 325.582458 
L 214.212412 326.204631 
L 214.073523 326.566242 
L 213.415445 328.279761 
L 213.144147 328.717759 
L 212.892475 329.121072 
L 212.023154 330.453035 
L 211.894967 330.656425 
L 211.22983 331.711766 
L 211.068809 331.96721 
L 210.34011 333.123445 
L 209.968151 333.713588 
L 209.695243 334.130951 
L 209.081688 335.069476 
L 208.794416 335.508862 
L 208.498616 335.961178 
L 207.867671 336.812817 
L 207.252394 337.643376 
L 206.691613 338.400341 
L 206.295842 338.934601 
L 206.177171 339.215415 
L 205.799026 340.110668 
L 205.420665 340.732121 
L 204.992867 341.432574 
L 204.834455 341.692333 
L 204.549897 342.158961 
L 204.509886 342.22458 
L 204.350673 342.640118 
L 204.240551 342.927646 
L 203.967618 343.639441 
L 203.749893 344.208471 
L 203.706356 344.657463 
L 203.588599 345.868906 
L 203.465442 347.137232 
L 203.499479 348.609878 
L 203.553035 350.924791 
L 203.473819 353.168922 
L 203.431276 353.568989 
L 203.356651 354.268261 
L 203.324858 354.566849 
L 203.215436 355.594222 
L 203.163035 356.085589 
L 203.182298 356.685742 
L 203.202676 357.319924 
L 203.118653 357.893907 
L 202.907348 359.33577 
L 202.673014 360.935077 
L 202.63366 361.203754 
L 202.633175 361.207127 
L 202.416475 362.714372 
L 202.202528 364.2021 
L 201.124809 365.326413 
L 200.148519 366.158012 
L 199.88479 366.382657 
L 199.366129 366.824667 
L 199.110421 367.042537 
L 197.596394 368.182176 
L 196.797109 369.706273 
L 196.682385 369.924893 
L 197.158804 370.524094 
L 197.589391 371.065847 
L 197.79568 371.325157 
L 197.872918 372.006408 
L 198.612274 378.527721 
L 199.8302 379.700875 
L 201.027089 383.363351 
L 201.11651 384.695539 
L 201.44904 389.651696 
L 201.336069 394.006147 
L 201.579013 395.459853 
L 201.828335 396.951833 
L 201.857387 397.107633 
L 202.35443 399.7713 
L 202.422299 400.134954 
L 202.803229 402.176878 
L 202.552451 408.27193 
L 202.515907 408.394327 
L 202.469077 408.550986 
L 202.328497 409.029298 
L 202.277546 409.202727 
L 202.249581 409.297656 
L 202.222723 409.388421 
L 202.116928 409.746693 
L 202.051779 409.96744 
L 202.017556 410.08333 
L 201.80319 410.795689 
L 201.242452 412.708716 
L 199.891863 413.936279 
L 198.887365 416.018686 
L 198.095851 417.749003 
L 197.619578 418.790148 
L 197.505403 419.275567 
L 197.180809 420.655035 
L 196.903533 421.833068 
L 196.255551 422.650873 
L 195.788284 423.240572 
L 194.375632 424.597968 
L 192.684149 424.897919 
L 191.695781 424.432102 
L 190.281359 427.190227 
L 190.199024 427.350723 
L 186.050556 427.602356 
L 184.279907 426.82425 
L 183.369238 426.424148 
L 179.833896 425.410575 
L 178.865502 425.134892 
L 178.458491 425.017684 
L 176.68369 424.936231 
L 174.425716 424.831208 
L 172.509943 424.849883 
L 167.102646 424.501497 
L 166.971503 424.493029 
L 166.793139 424.481464 
L 166.496029 424.462207 
L 165.933669 424.426395 
L 163.687205 424.25979 
L 159.315147 423.703823 
L 157.732947 423.353481 
L 153.518726 420.940898 
L 149.997269 418.995206 
L 149.107357 418.057271 
L 147.885205 416.76906 
L 147.397174 416.254534 
L 146.837463 415.539219 
L 146.361525 414.931571 
L 146.17128 414.687936 
L 145.958938 414.361553 
L 145.805983 414.12644 
L 145.654939 413.894866 
L 145.359233 413.441587 
L 143.420666 410.470074 
L 141.916881 408.343381 
L 140.011211 406.471864 
L 138.006704 404.598971 
L 136.731788 403.2828 
L 135.911773 402.416438 
L 135.448338 402.075904 
L 134.988653 401.756075 
L 133.7666 401.011825 
L 133.640829 401.249124 
L 133.303648 402.323497 
L 132.720987 404.177077 
L 131.863799 406.908783 
L 131.68296 407.484696 
L 131.38566 408.465407 
L 131.362245 408.543013 
L 131.326457 408.660655 
L 130.967822 410.056713 
L 130.929951 410.204089 
L 130.491056 411.912412 
L 130.052226 413.620673 
L 129.667689 415.117333 
L 129.612362 415.328658 
L 129.165938 417.033834 
L 128.815629 418.371049 
L 128.67046 418.718816 
L 128.605045 418.875484 
L 128.008345 421.23947 
L 127.761551 422.57205 
L 127.490629 423.752844 
L 127.473773 423.811851 
L 126.819098 426.225333 
L 124.876094 433.415251 
L 124.330067 435.484596 
L 123.567128 438.372982 
L 123.383187 439.041062 
L 122.809427 441.041312 
L 122.785552 441.124404 
L 122.705799 441.401868 
L 122.622895 441.691214 
L 122.595109 441.798979 
L 122.287905 442.851664 
L 122.264269 442.932256 
L 122.188375 443.2058 
L 122.996756 443.548822 
L 123.101256 443.289933 
L 123.369187 442.648861 
L 123.798295 442.506512 
L 124.055856 442.421051 
L 124.843 442.756249 
L 128.624659 444.366636 
L 129.488385 444.73445 
L 129.542388 444.757447 
L 129.615154 444.737431 
L 129.797892 444.67691 
L 130.243177 444.866892 
L 133.963971 446.457642 
L 134.847321 446.835617 
L 135.494582 447.341242 
L 137.947539 448.394124 
L 139.401946 449.022214 
L 140.936536 449.675782 
L 142.40559 450.300709 
L 143.308626 450.687807 
L 143.856425 450.922771 
L 144.19769 451.069553 
L 145.088441 451.450955 
L 145.704508 451.715047 
L 146.321064 451.979311 
L 147.679136 452.54848 
L 149.427868 453.291935 
L 150.236574 453.637528 
L 151.04534 453.983121 
L 152.66378 454.672161 
L 153.748606 455.153716 
L 154.284589 455.382801 
L 154.822227 455.612574 
L 155.911377 456.076204 
L 157.046593 456.562061 
L 157.882958 456.919973 
L 159.255122 457.50723 
L 159.684437 457.69104 
L 160.366278 457.973226 
L 160.708362 458.114776 
L 161.318477 458.372608 
L 163.240906 459.181618 
L 163.774144 459.405987 
L 164.321381 459.636867 
L 164.913622 459.88635 
L 165.171435 459.992317 
L 166.141768 460.392036 
L 166.671201 460.610122 
L 167.126627 460.797646 
L 168.114553 461.204701 
L 169.102814 461.613089 
L 169.134397 461.626382 
L 169.622722 461.833677 
L 170.140055 462.053238 
L 171.086154 462.454694 
L 172.248135 462.947702 
L 173.409506 463.440729 
L 174.104093 463.731314 
L 175.336288 464.244718 
L 175.946709 464.498923 
L 176.568703 464.759763 
L 177.554077 465.174761 
L 177.802433 465.269488 
L 179.037018 465.772506 
L 180.270829 466.276279 
L 181.508445 466.779594 
L 181.783591 466.89717 
L 182.788526 467.320924 
L 185.987737 468.670712 
L 187.449178 469.275926 
L 187.935368 469.476677 
L 187.990562 469.500007 
L 188.193839 469.630681 
L 188.895068 470.081462 
L 189.885044 470.488049 
L 190.162906 470.610124 
L 191.439844 471.16027 
L 192.555826 471.643413 
L 193.666742 472.123101 
L 194.318224 472.404384 
L 194.782905 472.597064 
L 195.343823 472.831115 
L 195.902514 473.063582 
L 197.020314 473.530638 
L 198.145344 474.000675 
L 198.531574 474.162053 
L 199.460614 474.601503 
L 200.26693 474.96493 
L 200.432931 475.039781 
L 201.561561 475.548966 
L 202.543689 475.99162 
L 203.737362 476.530157 
L 204.339375 476.801483 
L 205.442907 477.278608 
L 205.869131 477.462382 
L 207.005464 477.953326 
L 208.140566 478.443698 
L 209.255132 478.925844 
L 210.239528 479.351314 
L 211.3734 479.841487 
L 211.902976 480.070233 
L 213.432699 480.731171 
L 216.439633 482.030883 
L 217.391561 482.442311 
L 218.254806 483.171854 
" clip-path="url(#p7c1cf54015)" style="fill: #d3d3d3"/>
   </g>
   <g id="matplotlib.axis_1">
    <g id="xtick_1">
     <g id="line2d_1">
      <defs>
       <path id="m5da540551a" d="M 0 0 
L 0 3.5 
" style="stroke: #000000; stroke-width: 0.8"/>
      </defs>
      <g>
       <use xlink:href="#m5da540551a" x="172.831065" y="640.8" style="stroke: #000000; stroke-width: 0.8"/>
      </g>
     </g>
     <g id="text_1">
      <!-- 13.14 -->
      <g transform="translate(158.517003 655.398438) scale(0.1 -0.1)">
       <defs>
        <path id="DejaVuSans-31" d="M 794 531 
L 1825 531 
L 1825 4091 
L 703 3866 
L 703 4441 
L 1819 4666 
L 2450 4666 
L 2450 531 
L 3481 531 
L 3481 0 
L 794 0 
L 794 531 
z
" transform="scale(0.015625)"/>
        <path id="DejaVuSans-33" d="M 2597 2516 
Q 3050 2419 3304 2112 
Q 3559 1806 3559 1356 
Q 3559 666 3084 287 
Q 2609 -91 1734 -91 
Q 1441 -91 1130 -33 
Q 819 25 488 141 
L 488 750 
Q 750 597 1062 519 
Q 1375 441 1716 441 
Q 2309 441 2620 675 
Q 2931 909 2931 1356 
Q 2931 1769 2642 2001 
Q 2353 2234 1838 2234 
L 1294 2234 
L 1294 2753 
L 1863 2753 
Q 2328 2753 2575 2939 
Q 2822 3125 2822 3475 
Q 2822 3834 2567 4026 
Q 2313 4219 1838 4219 
Q 1578 4219 1281 4162 
Q 984 4106 628 3988 
L 628 4550 
Q 988 4650 1302 4700 
Q 1616 4750 1894 4750 
Q 2613 4750 3031 4423 
Q 3450 4097 3450 3541 
Q 3450 3153 3228 2886 
Q 3006 2619 2597 2516 
z
" transform="scale(0.015625)"/>
        <path id="DejaVuSans-2e" d="M 684 794 
L 1344 794 
L 1344 0 
L 684 0 
L 684 794 
z
" transform="scale(0.015625)"/>
        <path id="DejaVuSans-34" d="M 2419 4116 
L 825 1625 
L 2419 1625 
L 2419 4116 
z
M 2253 4666 
L 3047 4666 
L 3047 1625 
L 3713 1625 
L 3713 1100 
L 3047 1100 
L 3047 0 
L 2419 0 
L 2419 1100 
L 313 1100 
L 313 1709 
L 2253 4666 
z
" transform="scale(0.015625)"/>
       </defs>
       <use xlink:href="#DejaVuSans-31"/>
       <use xlink:href="#DejaVuSans-33" x="63.623047"/>
       <use xlink:href="#DejaVuSans-2e" x="127.246094"/>
       <use xlink:href="#DejaVuSans-31" x="159.033203"/>
       <use xlink:href="#DejaVuSans-34" x="222.65625"/>
      </g>
     </g>
    </g>
    <g id="xtick_2">
     <g id="line2d_2">
      <g>
       <use xlink:href="#m5da540551a" x="255.090592" y="640.8" style="stroke: #000000; stroke-width: 0.8"/>
      </g>
     </g>
     <g id="text_2">
      <!-- 13.16 -->
      <g transform="translate(240.77653 655.398438) scale(0.1 -0.1)">
       <defs>
        <path id="DejaVuSans-36" d="M 2113 2584 
Q 1688 2584 1439 2293 
Q 1191 2003 1191 1497 
Q 1191 994 1439 701 
Q 1688 409 2113 409 
Q 2538 409 2786 701 
Q 3034 994 3034 1497 
Q 3034 2003 2786 2293 
Q 2538 2584 2113 2584 
z
M 3366 4563 
L 3366 3988 
Q 3128 4100 2886 4159 
Q 2644 4219 2406 4219 
Q 1781 4219 1451 3797 
Q 1122 3375 1075 2522 
Q 1259 2794 1537 2939 
Q 1816 3084 2150 3084 
Q 2853 3084 3261 2657 
Q 3669 2231 3669 1497 
Q 3669 778 3244 343 
Q 2819 -91 2113 -91 
Q 1303 -91 875 529 
Q 447 1150 447 2328 
Q 447 3434 972 4092 
Q 1497 4750 2381 4750 
Q 2619 4750 2861 4703 
Q 3103 4656 3366 4563 
z
" transform="scale(0.015625)"/>
       </defs>
       <use xlink:href="#DejaVuSans-31"/>
       <use xlink:href="#DejaVuSans-33" x="63.623047"/>
       <use xlink:href="#DejaVuSans-2e" x="127.246094"/>
       <use xlink:href="#DejaVuSans-31" x="159.033203"/>
       <use xlink:href="#DejaVuSans-36" x="222.65625"/>
      </g>
     </g>
    </g>
    <g id="xtick_3">
     <g id="line2d_3">
      <g>
       <use xlink:href="#m5da540551a" x="337.350119" y="640.8" style="stroke: #000000; stroke-width: 0.8"/>
      </g>
     </g>
     <g id="text_3">
      <!-- 13.18 -->
      <g transform="translate(323.036057 655.398438) scale(0.1 -0.1)">
       <defs>
        <path id="DejaVuSans-38" d="M 2034 2216 
Q 1584 2216 1326 1975 
Q 1069 1734 1069 1313 
Q 1069 891 1326 650 
Q 1584 409 2034 409 
Q 2484 409 2743 651 
Q 3003 894 3003 1313 
Q 3003 1734 2745 1975 
Q 2488 2216 2034 2216 
z
M 1403 2484 
Q 997 2584 770 2862 
Q 544 3141 544 3541 
Q 544 4100 942 4425 
Q 1341 4750 2034 4750 
Q 2731 4750 3128 4425 
Q 3525 4100 3525 3541 
Q 3525 3141 3298 2862 
Q 3072 2584 2669 2484 
Q 3125 2378 3379 2068 
Q 3634 1759 3634 1313 
Q 3634 634 3220 271 
Q 2806 -91 2034 -91 
Q 1263 -91 848 271 
Q 434 634 434 1313 
Q 434 1759 690 2068 
Q 947 2378 1403 2484 
z
M 1172 3481 
Q 1172 3119 1398 2916 
Q 1625 2713 2034 2713 
Q 2441 2713 2670 2916 
Q 2900 3119 2900 3481 
Q 2900 3844 2670 4047 
Q 2441 4250 2034 4250 
Q 1625 4250 1398 4047 
Q 1172 3844 1172 3481 
z
" transform="scale(0.015625)"/>
       </defs>
       <use xlink:href="#DejaVuSans-31"/>
       <use xlink:href="#DejaVuSans-33" x="63.623047"/>
       <use xlink:href="#DejaVuSans-2e" x="127.246094"/>
       <use xlink:href="#DejaVuSans-31" x="159.033203"/>
       <use xlink:href="#DejaVuSans-38" x="222.65625"/>
      </g>
     </g>
    </g>
    <g id="xtick_4">
     <g id="line2d_4">
      <g>
       <use xlink:href="#m5da540551a" x="419.609646" y="640.8" style="stroke: #000000; stroke-width: 0.8"/>
      </g>
     </g>
     <g id="text_4">
      <!-- 13.20 -->
      <g transform="translate(405.295584 655.398438) scale(0.1 -0.1)">
       <defs>
        <path id="DejaVuSans-32" d="M 1228 531 
L 3431 531 
L 3431 0 
L 469 0 
L 469 531 
Q 828 903 1448 1529 
Q 2069 2156 2228 2338 
Q 2531 2678 2651 2914 
Q 2772 3150 2772 3378 
Q 2772 3750 2511 3984 
Q 2250 4219 1831 4219 
Q 1534 4219 1204 4116 
Q 875 4013 500 3803 
L 500 4441 
Q 881 4594 1212 4672 
Q 1544 4750 1819 4750 
Q 2544 4750 2975 4387 
Q 3406 4025 3406 3419 
Q 3406 3131 3298 2873 
Q 3191 2616 2906 2266 
Q 2828 2175 2409 1742 
Q 1991 1309 1228 531 
z
" transform="scale(0.015625)"/>
        <path id="DejaVuSans-30" d="M 2034 4250 
Q 1547 4250 1301 3770 
Q 1056 3291 1056 2328 
Q 1056 1369 1301 889 
Q 1547 409 2034 409 
Q 2525 409 2770 889 
Q 3016 1369 3016 2328 
Q 3016 3291 2770 3770 
Q 2525 4250 2034 4250 
z
M 2034 4750 
Q 2819 4750 3233 4129 
Q 3647 3509 3647 2328 
Q 3647 1150 3233 529 
Q 2819 -91 2034 -91 
Q 1250 -91 836 529 
Q 422 1150 422 2328 
Q 422 3509 836 4129 
Q 1250 4750 2034 4750 
z
" transform="scale(0.015625)"/>
       </defs>
       <use xlink:href="#DejaVuSans-31"/>
       <use xlink:href="#DejaVuSans-33" x="63.623047"/>
       <use xlink:href="#DejaVuSans-2e" x="127.246094"/>
       <use xlink:href="#DejaVuSans-32" x="159.033203"/>
       <use xlink:href="#DejaVuSans-30" x="222.65625"/>
      </g>
     </g>
    </g>
    <g id="xtick_5">
     <g id="line2d_5">
      <g>
       <use xlink:href="#m5da540551a" x="501.869173" y="640.8" style="stroke: #000000; stroke-width: 0.8"/>
      </g>
     </g>
     <g id="text_5">
      <!-- 13.22 -->
      <g transform="translate(487.555111 655.398438) scale(0.1 -0.1)">
       <use xlink:href="#DejaVuSans-31"/>
       <use xlink:href="#DejaVuSans-33" x="63.623047"/>
       <use xlink:href="#DejaVuSans-2e" x="127.246094"/>
       <use xlink:href="#DejaVuSans-32" x="159.033203"/>
       <use xlink:href="#DejaVuSans-32" x="222.65625"/>
      </g>
     </g>
    </g>
    <g id="xtick_6">
     <g id="line2d_6">
      <g>
       <use xlink:href="#m5da540551a" x="584.1287" y="640.8" style="stroke: #000000; stroke-width: 0.8"/>
      </g>
     </g>
     <g id="text_6">
      <!-- 13.24 -->
      <g transform="translate(569.814638 655.398438) scale(0.1 -0.1)">
       <use xlink:href="#DejaVuSans-31"/>
       <use xlink:href="#DejaVuSans-33" x="63.623047"/>
       <use xlink:href="#DejaVuSans-2e" x="127.246094"/>
       <use xlink:href="#DejaVuSans-32" x="159.033203"/>
       <use xlink:href="#DejaVuSans-34" x="222.65625"/>
      </g>
     </g>
    </g>
   </g>
   <g id="matplotlib.axis_2">
    <g id="ytick_1">
     <g id="line2d_7">
      <defs>
       <path id="m2f350f60af" d="M 0 0 
L -3.5 0 
" style="stroke: #000000; stroke-width: 0.8"/>
      </defs>
      <g>
       <use xlink:href="#m2f350f60af" x="97.507212" y="576.945322" style="stroke: #000000; stroke-width: 0.8"/>
      </g>
     </g>
     <g id="text_7">
      <!-- 52.53 -->
      <g transform="translate(61.879087 580.74454) scale(0.1 -0.1)">
       <defs>
        <path id="DejaVuSans-35" d="M 691 4666 
L 3169 4666 
L 3169 4134 
L 1269 4134 
L 1269 2991 
Q 1406 3038 1543 3061 
Q 1681 3084 1819 3084 
Q 2600 3084 3056 2656 
Q 3513 2228 3513 1497 
Q 3513 744 3044 326 
Q 2575 -91 1722 -91 
Q 1428 -91 1123 -41 
Q 819 9 494 109 
L 494 744 
Q 775 591 1075 516 
Q 1375 441 1709 441 
Q 2250 441 2565 725 
Q 2881 1009 2881 1497 
Q 2881 1984 2565 2268 
Q 2250 2553 1709 2553 
Q 1456 2553 1204 2497 
Q 953 2441 691 2322 
L 691 4666 
z
" transform="scale(0.015625)"/>
       </defs>
       <use xlink:href="#DejaVuSans-35"/>
       <use xlink:href="#DejaVuSans-32" x="63.623047"/>
       <use xlink:href="#DejaVuSans-2e" x="127.246094"/>
       <use xlink:href="#DejaVuSans-35" x="159.033203"/>
       <use xlink:href="#DejaVuSans-33" x="222.65625"/>
      </g>
     </g>
    </g>
    <g id="ytick_2">
     <g id="line2d_8">
      <g>
       <use xlink:href="#m2f350f60af" x="97.507212" y="509.30343" style="stroke: #000000; stroke-width: 0.8"/>
      </g>
     </g>
     <g id="text_8">
      <!-- 52.54 -->
      <g transform="translate(61.879087 513.102648) scale(0.1 -0.1)">
       <use xlink:href="#DejaVuSans-35"/>
       <use xlink:href="#DejaVuSans-32" x="63.623047"/>
       <use xlink:href="#DejaVuSans-2e" x="127.246094"/>
       <use xlink:href="#DejaVuSans-35" x="159.033203"/>
       <use xlink:href="#DejaVuSans-34" x="222.65625"/>
      </g>
     </g>
    </g>
    <g id="ytick_3">
     <g id="line2d_9">
      <g>
       <use xlink:href="#m2f350f60af" x="97.507212" y="441.661538" style="stroke: #000000; stroke-width: 0.8"/>
      </g>
     </g>
     <g id="text_9">
      <!-- 52.55 -->
      <g transform="translate(61.879087 445.460756) scale(0.1 -0.1)">
       <use xlink:href="#DejaVuSans-35"/>
       <use xlink:href="#DejaVuSans-32" x="63.623047"/>
       <use xlink:href="#DejaVuSans-2e" x="127.246094"/>
       <use xlink:href="#DejaVuSans-35" x="159.033203"/>
       <use xlink:href="#DejaVuSans-35" x="222.65625"/>
      </g>
     </g>
    </g>
    <g id="ytick_4">
     <g id="line2d_10">
      <g>
       <use xlink:href="#m2f350f60af" x="97.507212" y="374.019646" style="stroke: #000000; stroke-width: 0.8"/>
      </g>
     </g>
     <g id="text_10">
      <!-- 52.56 -->
      <g transform="translate(61.879087 377.818864) scale(0.1 -0.1)">
       <use xlink:href="#DejaVuSans-35"/>
       <use xlink:href="#DejaVuSans-32" x="63.623047"/>
       <use xlink:href="#DejaVuSans-2e" x="127.246094"/>
       <use xlink:href="#DejaVuSans-35" x="159.033203"/>
       <use xlink:href="#DejaVuSans-36" x="222.65625"/>
      </g>
     </g>
    </g>
    <g id="ytick_5">
     <g id="line2d_11">
      <g>
       <use xlink:href="#m2f350f60af" x="97.507212" y="306.377754" style="stroke: #000000; stroke-width: 0.8"/>
      </g>
     </g>
     <g id="text_11">
      <!-- 52.57 -->
      <g transform="translate(61.879087 310.176972) scale(0.1 -0.1)">
       <defs>
        <path id="DejaVuSans-37" d="M 525 4666 
L 3525 4666 
L 3525 4397 
L 1831 0 
L 1172 0 
L 2766 4134 
L 525 4134 
L 525 4666 
z
" transform="scale(0.015625)"/>
       </defs>
       <use xlink:href="#DejaVuSans-35"/>
       <use xlink:href="#DejaVuSans-32" x="63.623047"/>
       <use xlink:href="#DejaVuSans-2e" x="127.246094"/>
       <use xlink:href="#DejaVuSans-35" x="159.033203"/>
       <use xlink:href="#DejaVuSans-37" x="222.65625"/>
      </g>
     </g>
    </g>
    <g id="ytick_6">
     <g id="line2d_12">
      <g>
       <use xlink:href="#m2f350f60af" x="97.507212" y="238.735862" style="stroke: #000000; stroke-width: 0.8"/>
      </g>
     </g>
     <g id="text_12">
      <!-- 52.58 -->
      <g transform="translate(61.879087 242.53508) scale(0.1 -0.1)">
       <use xlink:href="#DejaVuSans-35"/>
       <use xlink:href="#DejaVuSans-32" x="63.623047"/>
       <use xlink:href="#DejaVuSans-2e" x="127.246094"/>
       <use xlink:href="#DejaVuSans-35" x="159.033203"/>
       <use xlink:href="#DejaVuSans-38" x="222.65625"/>
      </g>
     </g>
    </g>
    <g id="ytick_7">
     <g id="line2d_13">
      <g>
       <use xlink:href="#m2f350f60af" x="97.507212" y="171.09397" style="stroke: #000000; stroke-width: 0.8"/>
      </g>
     </g>
     <g id="text_13">
      <!-- 52.59 -->
      <g transform="translate(61.879087 174.893188) scale(0.1 -0.1)">
       <defs>
        <path id="DejaVuSans-39" d="M 703 97 
L 703 672 
Q 941 559 1184 500 
Q 1428 441 1663 441 
Q 2288 441 2617 861 
Q 2947 1281 2994 2138 
Q 2813 1869 2534 1725 
Q 2256 1581 1919 1581 
Q 1219 1581 811 2004 
Q 403 2428 403 3163 
Q 403 3881 828 4315 
Q 1253 4750 1959 4750 
Q 2769 4750 3195 4129 
Q 3622 3509 3622 2328 
Q 3622 1225 3098 567 
Q 2575 -91 1691 -91 
Q 1453 -91 1209 -44 
Q 966 3 703 97 
z
M 1959 2075 
Q 2384 2075 2632 2365 
Q 2881 2656 2881 3163 
Q 2881 3666 2632 3958 
Q 2384 4250 1959 4250 
Q 1534 4250 1286 3958 
Q 1038 3666 1038 3163 
Q 1038 2656 1286 2365 
Q 1534 2075 1959 2075 
z
" transform="scale(0.015625)"/>
       </defs>
       <use xlink:href="#DejaVuSans-35"/>
       <use xlink:href="#DejaVuSans-32" x="63.623047"/>
       <use xlink:href="#DejaVuSans-2e" x="127.246094"/>
       <use xlink:href="#DejaVuSans-35" x="159.033203"/>
       <use xlink:href="#DejaVuSans-39" x="222.65625"/>
      </g>
     </g>
    </g>
    <g id="ytick_8">
     <g id="line2d_14">
      <g>
       <use xlink:href="#m2f350f60af" x="97.507212" y="103.452078" style="stroke: #000000; stroke-width: 0.8"/>
      </g>
     </g>
     <g id="text_14">
      <!-- 52.60 -->
      <g transform="translate(61.879087 107.251296) scale(0.1 -0.1)">
       <use xlink:href="#DejaVuSans-35"/>
       <use xlink:href="#DejaVuSans-32" x="63.623047"/>
       <use xlink:href="#DejaVuSans-2e" x="127.246094"/>
       <use xlink:href="#DejaVuSans-36" x="159.033203"/>
       <use xlink:href="#DejaVuSans-30" x="222.65625"/>
      </g>
     </g>
    </g>
   </g>
   <g id="LineCollection_1">
    <path d="M 427.713444 528.047674 
L 430.054961 529.453949 
" clip-path="url(#p7c1cf54015)" style="fill: none; stroke: #ff0000; stroke-opacity: 0.7; stroke-width: 0.5"/>
    <path d="M 422.884398 469.597639 
L 424.138445 468.391584 
L 425.304473 467.378985 
L 425.426629 467.304579 
L 429.218382 464.987168 
" clip-path="url(#p7c1cf54015)" style="fill: none; stroke: #ff0000; stroke-opacity: 0.7; stroke-width: 0.5"/>
    <path d="M 434.883595 442.073477 
L 435.442549 450.877069 
" clip-path="url(#p7c1cf54015)" style="fill: none; stroke: #ff0000; stroke-opacity: 0.7; stroke-width: 0.5"/>
    <path d="M 436.393469 512.695671 
L 436.098569 512.439984 
L 435.71853 512.488686 
L 434.918967 512.830954 
L 432.090062 515.178804 
L 430.898121 516.238753 
L 430.054961 517.063984 
L 429.513693 517.744461 
L 429.333545 517.990678 
L 429.264858 518.213896 
L 429.243882 518.671155 
L 428.870424 519.584997 
L 427.590054 521.870617 
" clip-path="url(#p7c1cf54015)" style="fill: none; stroke: #ff0000; stroke-opacity: 0.7; stroke-width: 0.5"/>
    <path d="M 454.839757 470.363345 
L 459.42408 471.851467 
L 459.910234 472.016513 
L 460.389396 472.157208 
L 464.347724 473.463373 
" clip-path="url(#p7c1cf54015)" style="fill: none; stroke: #ff0000; stroke-opacity: 0.7; stroke-width: 0.5"/>
    <path d="M 443.432828 540.142721 
L 446.372783 544.319608 
L 446.425018 544.44001 
" clip-path="url(#p7c1cf54015)" style="fill: none; stroke: #ff0000; stroke-opacity: 0.7; stroke-width: 0.5"/>
    <path d="M 426.886324 521.439061 
L 425.631044 523.72874 
L 425.181907 524.834008 
L 424.502854 526.955934 
" clip-path="url(#p7c1cf54015)" style="fill: none; stroke: #ff0000; stroke-opacity: 0.7; stroke-width: 0.5"/>
    <path d="M 431.02439 530.287974 
L 433.615565 532.167742 
L 434.700157 532.852278 
L 437.370712 534.814569 
L 437.523304 534.918738 
L 437.82314 535.146691 
" clip-path="url(#p7c1cf54015)" style="fill: none; stroke: #ff0000; stroke-opacity: 0.7; stroke-width: 0.5"/>
    <path d="M 437.82314 535.146691 
L 438.174799 535.398995 
L 438.411706 535.569453 
L 439.209213 536.141703 
L 439.806005 536.603697 
L 440.998357 537.525656 
L 442.094877 538.542314 
L 443.065128 539.706431 
" clip-path="url(#p7c1cf54015)" style="fill: none; stroke: #ff0000; stroke-opacity: 0.7; stroke-width: 0.5"/>
    <path d="M 432.122966 336.962035 
L 432.230726 336.711084 
L 433.181234 335.327131 
L 435.375507 331.154302 
L 435.883049 330.264135 
L 436.471615 329.850167 
L 437.612966 329.341499 
L 438.227034 328.894387 
L 438.626815 328.351899 
L 438.912667 327.755297 
L 439.121606 327.183723 
L 439.23389 326.344287 
L 439.108033 325.23496 
L 439.054153 324.486841 
L 439.179599 323.868594 
L 439.538662 323.34234 
L 440.824378 322.066614 
" clip-path="url(#p7c1cf54015)" style="fill: none; stroke: #ff0000; stroke-opacity: 0.7; stroke-width: 0.5"/>
    <path d="M 425.136664 520.290502 
L 425.353829 519.946205 
L 427.232225 516.971991 
L 428.246074 515.828167 
L 429.421563 514.702605 
L 431.596505 512.887773 
L 433.873448 511.244076 
L 434.506435 510.483104 
" clip-path="url(#p7c1cf54015)" style="fill: none; stroke: #ff0000; stroke-opacity: 0.7; stroke-width: 0.5"/>
    <path d="M 461.458769 467.138856 
L 459.977275 471.804794 
L 459.910234 472.016513 
" clip-path="url(#p7c1cf54015)" style="fill: none; stroke: #ff0000; stroke-opacity: 0.7; stroke-width: 0.5"/>
    <path d="M 443.065128 539.706431 
L 443.432828 540.142721 
" clip-path="url(#p7c1cf54015)" style="fill: none; stroke: #ff0000; stroke-opacity: 0.7; stroke-width: 0.5"/>
    <path d="M 471.263694 461.22222 
L 471.208169 461.44882 
L 471.014859 461.39606 
L 470.926018 461.710594 
L 470.620013 462.856448 
L 469.159084 467.216644 
L 468.926289 467.510887 
L 468.634679 467.580558 
L 467.244082 467.181471 
" clip-path="url(#p7c1cf54015)" style="fill: none; stroke: #ff0000; stroke-opacity: 0.7; stroke-width: 0.5"/>
    <path d="M 471.595611 460.06622 
L 471.465641 460.520097 
L 471.355824 460.901597 
L 471.263694 461.22222 
" clip-path="url(#p7c1cf54015)" style="fill: none; stroke: #ff0000; stroke-opacity: 0.7; stroke-width: 0.5"/>
    <path d="M 430.054961 529.453949 
L 431.162174 530.158101 
" clip-path="url(#p7c1cf54015)" style="fill: none; stroke: #ff0000; stroke-opacity: 0.7; stroke-width: 0.5"/>
    <path d="M 462.517861 348.041101 
L 464.288908 348.3624 
L 464.727763 348.440864 
L 464.529929 349.496078 
" clip-path="url(#p7c1cf54015)" style="fill: none; stroke: #ff0000; stroke-opacity: 0.7; stroke-width: 0.5"/>
    <path d="M 466.629192 345.961789 
L 468.060508 346.217475 
L 471.678693 346.862779 
" clip-path="url(#p7c1cf54015)" style="fill: none; stroke: #ff0000; stroke-opacity: 0.7; stroke-width: 0.5"/>
    <path d="M 471.431503 348.3509 
L 476.612619 349.460227 
L 479.850354 350.196171 
L 480.06752 350.24555 
L 480.59069 350.3646 
" clip-path="url(#p7c1cf54015)" style="fill: none; stroke: #ff0000; stroke-opacity: 0.7; stroke-width: 0.5"/>
    <path d="M 465.57956 351.445517 
L 470.6159 352.535228 
" clip-path="url(#p7c1cf54015)" style="fill: none; stroke: #ff0000; stroke-opacity: 0.7; stroke-width: 0.5"/>
    <path d="M 478.024604 341.627296 
L 477.89957 342.312509 
L 477.851037 342.579018 
L 477.409303 345.003303 
L 476.900528 347.79556 
L 476.612619 349.460227 
L 476.142506 351.988681 
L 475.78221 353.660113 
" clip-path="url(#p7c1cf54015)" style="fill: none; stroke: #ff0000; stroke-opacity: 0.7; stroke-width: 0.5"/>
    <path d="M 472.829915 340.718866 
L 472.699945 341.412872 
L 472.657993 341.63609 
L 472.209267 344.031289 
L 472.194049 344.113136 
L 471.678693 346.862779 
L 471.431503 348.3509 
L 470.933833 350.837416 
L 470.6159 352.535228 
" clip-path="url(#p7c1cf54015)" style="fill: none; stroke: #ff0000; stroke-opacity: 0.7; stroke-width: 0.5"/>
    <path d="M 471.678693 346.862779 
L 476.900528 347.79556 
L 480.780298 348.491596 
L 481.024609 348.535563 
L 481.580272 348.634996 
" clip-path="url(#p7c1cf54015)" style="fill: none; stroke: #ff0000; stroke-opacity: 0.7; stroke-width: 0.5"/>
    <path d="M 467.699388 339.8057 
L 467.578878 340.499706 
L 467.524587 340.811535 
L 466.629192 345.961789 
L 466.604925 346.106542 
L 466.399277 347.261866 
L 465.893792 349.750411 
L 465.57956 351.445517 
" clip-path="url(#p7c1cf54015)" style="fill: none; stroke: #ff0000; stroke-opacity: 0.7; stroke-width: 0.5"/>
    <path d="M 462.405165 348.72496 
L 462.337301 349.107813 
L 463.326883 349.271507 
L 464.529929 349.496078 
L 465.893792 349.750411 
" clip-path="url(#p7c1cf54015)" style="fill: none; stroke: #ff0000; stroke-opacity: 0.7; stroke-width: 0.5"/>
    <path d="M 462.779446 346.542833 
L 463.615203 346.708555 
L 466.399277 347.261866 
L 467.939998 347.574371 
L 471.431503 348.3509 
" clip-path="url(#p7c1cf54015)" style="fill: none; stroke: #ff0000; stroke-opacity: 0.7; stroke-width: 0.5"/>
    <path d="M 464.049533 339.185424 
L 463.991129 339.531074 
L 463.93437 339.899722 
L 463.886659 340.195994 
L 463.841005 340.478737 
L 463.387344 342.8922 
L 462.980159 345.424036 
L 462.779446 346.542833 
L 462.517861 348.041101 
L 462.405165 348.72496 
" clip-path="url(#p7c1cf54015)" style="fill: none; stroke: #ff0000; stroke-opacity: 0.7; stroke-width: 0.5"/>
    <path d="M 466.604925 346.106542 
L 464.782054 345.763598 
L 464.183205 345.650636 
L 462.980159 345.424036 
" clip-path="url(#p7c1cf54015)" style="fill: none; stroke: #ff0000; stroke-opacity: 0.7; stroke-width: 0.5"/>
    <path d="M 466.660862 468.907692 
L 466.124941 468.734528 
" clip-path="url(#p7c1cf54015)" style="fill: none; stroke: #ff0000; stroke-opacity: 0.7; stroke-width: 0.5"/>
    <path d="M 467.244082 467.181471 
L 466.660862 468.907692 
" clip-path="url(#p7c1cf54015)" style="fill: none; stroke: #ff0000; stroke-opacity: 0.7; stroke-width: 0.5"/>
    <path d="M 424.502854 526.955934 
L 424.287334 527.771019 
L 424.176284 529.199616 
L 424.22564 531.529879 
" clip-path="url(#p7c1cf54015)" style="fill: none; stroke: #ff0000; stroke-opacity: 0.7; stroke-width: 0.5"/>
    <path d="M 471.696379 459.588668 
L 471.595611 460.06622 
" clip-path="url(#p7c1cf54015)" style="fill: none; stroke: #ff0000; stroke-opacity: 0.7; stroke-width: 0.5"/>
   </g>
   <g id="patch_3">
    <path d="M 97.507212 640.8 
L 97.507212 86.4 
" style="fill: none; stroke: #000000; stroke-width: 0.8; stroke-linejoin: miter; stroke-linecap: square"/>
   </g>
   <g id="patch_4">
    <path d="M 640.492788 640.8 
L 640.492788 86.4 
" style="fill: none; stroke: #000000; stroke-width: 0.8; stroke-linejoin: miter; stroke-linecap: square"/>
   </g>
   <g id="patch_5">
    <path d="M 97.507212 640.8 
L 640.492788 640.8 
" style="fill: none; stroke: #000000; stroke-width: 0.8; stroke-linejoin: miter; stroke-linecap: square"/>
   </g>
   <g id="patch_6">
    <path d="M 97.507212 86.4 
L 640.492788 86.4 
" style="fill: none; stroke: #000000; stroke-width: 0.8; stroke-linejoin: miter; stroke-linecap: square"/>
   </g>
   <g id="text_15">
    <!-- Spandau_Mitte___Nord -->
    <g transform="translate(288.861775 355.076612) scale(0.12 -0.12)">
     <defs>
      <path id="DejaVuSans-53" d="M 3425 4513 
L 3425 3897 
Q 3066 4069 2747 4153 
Q 2428 4238 2131 4238 
Q 1616 4238 1336 4038 
Q 1056 3838 1056 3469 
Q 1056 3159 1242 3001 
Q 1428 2844 1947 2747 
L 2328 2669 
Q 3034 2534 3370 2195 
Q 3706 1856 3706 1288 
Q 3706 609 3251 259 
Q 2797 -91 1919 -91 
Q 1588 -91 1214 -16 
Q 841 59 441 206 
L 441 856 
Q 825 641 1194 531 
Q 1563 422 1919 422 
Q 2459 422 2753 634 
Q 3047 847 3047 1241 
Q 3047 1584 2836 1778 
Q 2625 1972 2144 2069 
L 1759 2144 
Q 1053 2284 737 2584 
Q 422 2884 422 3419 
Q 422 4038 858 4394 
Q 1294 4750 2059 4750 
Q 2388 4750 2728 4690 
Q 3069 4631 3425 4513 
z
" transform="scale(0.015625)"/>
      <path id="DejaVuSans-70" d="M 1159 525 
L 1159 -1331 
L 581 -1331 
L 581 3500 
L 1159 3500 
L 1159 2969 
Q 1341 3281 1617 3432 
Q 1894 3584 2278 3584 
Q 2916 3584 3314 3078 
Q 3713 2572 3713 1747 
Q 3713 922 3314 415 
Q 2916 -91 2278 -91 
Q 1894 -91 1617 61 
Q 1341 213 1159 525 
z
M 3116 1747 
Q 3116 2381 2855 2742 
Q 2594 3103 2138 3103 
Q 1681 3103 1420 2742 
Q 1159 2381 1159 1747 
Q 1159 1113 1420 752 
Q 1681 391 2138 391 
Q 2594 391 2855 752 
Q 3116 1113 3116 1747 
z
" transform="scale(0.015625)"/>
      <path id="DejaVuSans-61" d="M 2194 1759 
Q 1497 1759 1228 1600 
Q 959 1441 959 1056 
Q 959 750 1161 570 
Q 1363 391 1709 391 
Q 2188 391 2477 730 
Q 2766 1069 2766 1631 
L 2766 1759 
L 2194 1759 
z
M 3341 1997 
L 3341 0 
L 2766 0 
L 2766 531 
Q 2569 213 2275 61 
Q 1981 -91 1556 -91 
Q 1019 -91 701 211 
Q 384 513 384 1019 
Q 384 1609 779 1909 
Q 1175 2209 1959 2209 
L 2766 2209 
L 2766 2266 
Q 2766 2663 2505 2880 
Q 2244 3097 1772 3097 
Q 1472 3097 1187 3025 
Q 903 2953 641 2809 
L 641 3341 
Q 956 3463 1253 3523 
Q 1550 3584 1831 3584 
Q 2591 3584 2966 3190 
Q 3341 2797 3341 1997 
z
" transform="scale(0.015625)"/>
      <path id="DejaVuSans-6e" d="M 3513 2113 
L 3513 0 
L 2938 0 
L 2938 2094 
Q 2938 2591 2744 2837 
Q 2550 3084 2163 3084 
Q 1697 3084 1428 2787 
Q 1159 2491 1159 1978 
L 1159 0 
L 581 0 
L 581 3500 
L 1159 3500 
L 1159 2956 
Q 1366 3272 1645 3428 
Q 1925 3584 2291 3584 
Q 2894 3584 3203 3211 
Q 3513 2838 3513 2113 
z
" transform="scale(0.015625)"/>
      <path id="DejaVuSans-64" d="M 2906 2969 
L 2906 4863 
L 3481 4863 
L 3481 0 
L 2906 0 
L 2906 525 
Q 2725 213 2448 61 
Q 2172 -91 1784 -91 
Q 1150 -91 751 415 
Q 353 922 353 1747 
Q 353 2572 751 3078 
Q 1150 3584 1784 3584 
Q 2172 3584 2448 3432 
Q 2725 3281 2906 2969 
z
M 947 1747 
Q 947 1113 1208 752 
Q 1469 391 1925 391 
Q 2381 391 2643 752 
Q 2906 1113 2906 1747 
Q 2906 2381 2643 2742 
Q 2381 3103 1925 3103 
Q 1469 3103 1208 2742 
Q 947 2381 947 1747 
z
" transform="scale(0.015625)"/>
      <path id="DejaVuSans-75" d="M 544 1381 
L 544 3500 
L 1119 3500 
L 1119 1403 
Q 1119 906 1312 657 
Q 1506 409 1894 409 
Q 2359 409 2629 706 
Q 2900 1003 2900 1516 
L 2900 3500 
L 3475 3500 
L 3475 0 
L 2900 0 
L 2900 538 
Q 2691 219 2414 64 
Q 2138 -91 1772 -91 
Q 1169 -91 856 284 
Q 544 659 544 1381 
z
M 1991 3584 
L 1991 3584 
z
" transform="scale(0.015625)"/>
      <path id="DejaVuSans-5f" d="M 3263 -1063 
L 3263 -1509 
L -63 -1509 
L -63 -1063 
L 3263 -1063 
z
" transform="scale(0.015625)"/>
      <path id="DejaVuSans-4d" d="M 628 4666 
L 1569 4666 
L 2759 1491 
L 3956 4666 
L 4897 4666 
L 4897 0 
L 4281 0 
L 4281 4097 
L 3078 897 
L 2444 897 
L 1241 4097 
L 1241 0 
L 628 0 
L 628 4666 
z
" transform="scale(0.015625)"/>
      <path id="DejaVuSans-69" d="M 603 3500 
L 1178 3500 
L 1178 0 
L 603 0 
L 603 3500 
z
M 603 4863 
L 1178 4863 
L 1178 4134 
L 603 4134 
L 603 4863 
z
" transform="scale(0.015625)"/>
      <path id="DejaVuSans-74" d="M 1172 4494 
L 1172 3500 
L 2356 3500 
L 2356 3053 
L 1172 3053 
L 1172 1153 
Q 1172 725 1289 603 
Q 1406 481 1766 481 
L 2356 481 
L 2356 0 
L 1766 0 
Q 1100 0 847 248 
Q 594 497 594 1153 
L 594 3053 
L 172 3053 
L 172 3500 
L 594 3500 
L 594 4494 
L 1172 4494 
z
" transform="scale(0.015625)"/>
      <path id="DejaVuSans-65" d="M 3597 1894 
L 3597 1613 
L 953 1613 
Q 991 1019 1311 708 
Q 1631 397 2203 397 
Q 2534 397 2845 478 
Q 3156 559 3463 722 
L 3463 178 
Q 3153 47 2828 -22 
Q 2503 -91 2169 -91 
Q 1331 -91 842 396 
Q 353 884 353 1716 
Q 353 2575 817 3079 
Q 1281 3584 2069 3584 
Q 2775 3584 3186 3129 
Q 3597 2675 3597 1894 
z
M 3022 2063 
Q 3016 2534 2758 2815 
Q 2500 3097 2075 3097 
Q 1594 3097 1305 2825 
Q 1016 2553 972 2059 
L 3022 2063 
z
" transform="scale(0.015625)"/>
      <path id="DejaVuSans-4e" d="M 628 4666 
L 1478 4666 
L 3547 763 
L 3547 4666 
L 4159 4666 
L 4159 0 
L 3309 0 
L 1241 3903 
L 1241 0 
L 628 0 
L 628 4666 
z
" transform="scale(0.015625)"/>
      <path id="DejaVuSans-6f" d="M 1959 3097 
Q 1497 3097 1228 2736 
Q 959 2375 959 1747 
Q 959 1119 1226 758 
Q 1494 397 1959 397 
Q 2419 397 2687 759 
Q 2956 1122 2956 1747 
Q 2956 2369 2687 2733 
Q 2419 3097 1959 3097 
z
M 1959 3584 
Q 2709 3584 3137 3096 
Q 3566 2609 3566 1747 
Q 3566 888 3137 398 
Q 2709 -91 1959 -91 
Q 1206 -91 779 398 
Q 353 888 353 1747 
Q 353 2609 779 3096 
Q 1206 3584 1959 3584 
z
" transform="scale(0.015625)"/>
      <path id="DejaVuSans-72" d="M 2631 2963 
Q 2534 3019 2420 3045 
Q 2306 3072 2169 3072 
Q 1681 3072 1420 2755 
Q 1159 2438 1159 1844 
L 1159 0 
L 581 0 
L 581 3500 
L 1159 3500 
L 1159 2956 
Q 1341 3275 1631 3429 
Q 1922 3584 2338 3584 
Q 2397 3584 2469 3576 
Q 2541 3569 2628 3553 
L 2631 2963 
z
" transform="scale(0.015625)"/>
     </defs>
     <use xlink:href="#DejaVuSans-53"/>
     <use xlink:href="#DejaVuSans-70" x="63.476562"/>
     <use xlink:href="#DejaVuSans-61" x="126.953125"/>
     <use xlink:href="#DejaVuSans-6e" x="188.232422"/>
     <use xlink:href="#DejaVuSans-64" x="251.611328"/>
     <use xlink:href="#DejaVuSans-61" x="315.087891"/>
     <use xlink:href="#DejaVuSans-75" x="376.367188"/>
     <use xlink:href="#DejaVuSans-5f" x="439.746094"/>
     <use xlink:href="#DejaVuSans-4d" x="489.746094"/>
     <use xlink:href="#DejaVuSans-69" x="576.025391"/>
     <use xlink:href="#DejaVuSans-74" x="603.808594"/>
     <use xlink:href="#DejaVuSans-74" x="643.017578"/>
     <use xlink:href="#DejaVuSans-65" x="682.226562"/>
     <use xlink:href="#DejaVuSans-5f" x="743.75"/>
     <use xlink:href="#DejaVuSans-5f" x="793.75"/>
     <use xlink:href="#DejaVuSans-5f" x="843.75"/>
     <use xlink:href="#DejaVuSans-4e" x="893.75"/>
     <use xlink:href="#DejaVuSans-6f" x="968.554688"/>
     <use xlink:href="#DejaVuSans-72" x="1029.736328"/>
     <use xlink:href="#DejaVuSans-64" x="1069.099609"/>
    </g>
   </g>
  </g>
 </g>
 <defs>
  <clipPath id="p7c1cf54015">
   <rect x="97.507212" y="86.4" width="542.985575" height="554.4"/>
  </clipPath>
 </defs>
</svg>
