<?xml version="1.0" encoding="utf-8" standalone="no"?>
<!DOCTYPE svg PUBLIC "-//W3C//DTD SVG 1.1//EN"
  "http://www.w3.org/Graphics/SVG/1.1/DTD/svg11.dtd">
<svg xmlns:xlink="http://www.w3.org/1999/xlink" width="460.8pt" height="345.6pt" viewBox="0 0 460.8 345.6" xmlns="http://www.w3.org/2000/svg" version="1.1">
 <metadata>
  <rdf:RDF xmlns:dc="http://purl.org/dc/elements/1.1/" xmlns:cc="http://creativecommons.org/ns#" xmlns:rdf="http://www.w3.org/1999/02/22-rdf-syntax-ns#">
   <cc:Work>
    <dc:type rdf:resource="http://purl.org/dc/dcmitype/StillImage"/>
    <dc:date>2024-10-17T11:33:17.807149</dc:date>
    <dc:format>image/svg+xml</dc:format>
    <dc:creator>
     <cc:Agent>
      <dc:title>Matplotlib v3.9.2, https://matplotlib.org/</dc:title>
     </cc:Agent>
    </dc:creator>
   </cc:Work>
  </rdf:RDF>
 </metadata>
 <defs>
  <style type="text/css">*{stroke-linejoin: round; stroke-linecap: butt}</style>
 </defs>
 <g id="figure_1">
  <g id="patch_1">
   <path d="M 0 345.6 
L 460.8 345.6 
L 460.8 0 
L 0 0 
z
" style="fill: #ffffff"/>
  </g>
  <g id="axes_1">
   <g id="patch_2">
    <path d="M 57.6 297.512013 
L 414.72 297.512013 
L 414.72 51.543987 
L 57.6 51.543987 
z
" style="fill: #ffffff"/>
   </g>
   <g id="PatchCollection_1">
    <path d="M 214.438272 79.587893 
L 213.309404 81.500387 
L 212.602014 82.699359 
L 212.494462 82.881718 
L 212.090152 83.567047 
L 210.96209 85.477967 
L 210.822542 85.713786 
L 209.749386 87.532229 
L 209.744319 87.540818 
L 208.61727 89.451392 
L 208.091114 90.342527 
L 207.991145 90.511964 
L 207.745006 90.928806 
L 206.104973 89.390257 
L 204.53629 88.468691 
L 204.465581 88.427072 
L 198.121188 84.705146 
L 193.029556 81.71208 
L 187.156019 78.258684 
L 186.0906 77.638917 
L 183.947051 76.382416 
L 182.46055 75.50253 
L 180.975645 74.620967 
L 179.493235 73.751771 
L 177.348165 72.498712 
L 176.286668 71.876001 
L 174.264868 70.684732 
L 172.779992 69.813068 
L 171.292611 68.939823 
L 169.985305 68.171032 
L 168.675519 67.408801 
L 167.771076 66.871769 
L 166.484063 66.836947 
L 163.81241 66.761202 
L 162.142282 66.7132 
L 161.335153 66.685384 
L 159.58714 66.636987 
L 157.234603 66.571363 
L 155.142098 66.522796 
L 153.800954 66.485741 
L 146.791624 66.290598 
L 145.033761 66.242248 
L 141.708346 66.149679 
L 139.73724 66.095642 
L 128.500225 65.78341 
L 124.93116 65.68714 
L 123.725354 65.651294 
L 115.491299 65.423354 
L 114.437294 65.394178 
L 114.239234 65.392075 
L 114.041159 65.396387 
L 113.843314 65.407026 
L 113.645945 65.423987 
L 113.500663 65.440057 
L 113.35579 65.459571 
L 113.211491 65.482609 
L 112.989446 65.525232 
L 112.769067 65.575959 
L 112.55068 65.6347 
L 112.334612 65.701363 
L 112.121109 65.775944 
L 111.910322 65.857946 
L 111.702669 65.947605 
L 111.498472 66.04475 
L 111.297897 66.149376 
L 111.101265 66.26123 
L 110.953541 66.351952 
L 110.808375 66.446809 
L 110.666009 66.545631 
L 110.526364 66.6485 
L 110.409927 66.740216 
L 110.295853 66.834674 
L 110.183978 66.931958 
L 110.144255 67.431036 
L 109.75363 67.187541 
L 109.366569 66.938536 
L 108.982989 66.684021 
L 108.603057 66.424075 
L 108.226857 66.158779 
L 108.104176 66.070859 
L 107.981811 65.982355 
L 107.859923 65.893265 
L 107.737244 65.801891 
L 107.614964 65.710014 
L 107.492921 65.617803 
L 107.359283 65.513938 
L 107.228913 65.405966 
L 107.101897 65.294051 
L 106.383339 64.642099 
L 106.1714 64.449768 
L 105.539529 65.398457 
L 104.515692 66.935414 
L 104.477224 66.995942 
L 103.776024 68.099397 
L 103.236751 68.58881 
L 102.308634 69.43104 
L 101.471325 70.190955 
L 100.515735 71.058178 
L 100.333567 71.223402 
L 98.786831 72.624525 
L 97.132026 74.123592 
L 97.088887 74.159722 
L 97.044983 74.194719 
L 97.000153 74.228751 
L 96.915978 74.296192 
L 96.830277 74.361531 
L 96.743052 74.42485 
L 96.624079 74.506103 
L 96.502553 74.583468 
L 96.378555 74.656861 
L 96.25233 74.726277 
L 96.119113 74.784425 
L 95.984157 74.838337 
L 95.847538 74.887847 
L 95.709339 74.932953 
L 95.530775 74.981886 
L 95.350038 75.022069 
L 95.167616 75.05341 
L 94.983921 75.075899 
L 94.79928 75.089527 
L 94.614184 75.094202 
L 94.429205 75.089827 
L 94.24451 75.076564 
L 94.060754 75.054314 
L 93.878268 75.023234 
L 93.770428 75.001505 
L 93.662015 74.983325 
L 93.553028 74.968696 
L 93.443629 74.95753 
L 93.248581 74.950679 
L 93.05336 74.954029 
L 92.858706 74.967565 
L 92.664943 74.991113 
L 92.472646 75.024743 
L 92.282388 75.068359 
L 92.094575 75.121787 
L 92.00967 75.150811 
L 91.728569 75.257531 
L 91.551352 75.339495 
L 91.378616 75.430566 
L 90.937672 75.698837 
L 90.213017 76.140974 
L 88.861307 76.882651 
L 88.628141 77.003763 
L 86.61116 77.894724 
L 85.01806 78.542162 
L 83.641126 83.023308 
L 83.221136 84.389783 
L 82.735646 85.969245 
L 81.91745 88.62964 
L 81.379922 90.390357 
L 80.818836 92.213559 
L 80.733901 92.490167 
L 80.167561 94.56195 
L 79.734736 96.094204 
L 79.52994 96.886828 
L 79.327868 97.680128 
L 79.128438 98.474107 
L 79.012975 98.92916 
L 78.904445 99.385942 
L 78.802926 99.844286 
L 78.708501 100.30419 
L 78.66985 100.496808 
L 78.631862 100.689658 
L 78.594613 100.882572 
L 78.568285 101.012724 
L 78.542615 101.142943 
L 78.517605 101.273311 
L 78.464747 101.598593 
L 78.414527 101.924388 
L 78.366941 102.250533 
L 78.31891 102.606706 
L 78.272936 102.963161 
L 78.228937 103.319815 
L 78.192317 103.564117 
L 78.172494 103.71624 
L 78.007293 105.116862 
L 77.796361 106.912259 
L 77.643966 108.242921 
L 77.399881 110.339368 
L 77.048379 113.356835 
L 76.911819 114.557592 
L 76.851175 115.086362 
L 76.162235 121.093828 
L 76.132044 121.356729 
L 76.104971 121.58115 
L 76.082889 121.776915 
L 75.912316 123.252343 
L 75.742551 124.723721 
L 75.485092 127.008576 
L 75.460283 127.228009 
L 75.231098 129.164474 
L 74.979089 131.194822 
L 74.684734 133.823746 
L 74.353848 136.626817 
L 74.067036 139.116823 
L 73.832727 141.15103 
L 73.976309 141.340347 
L 74.481733 143.061814 
L 77.474586 142.183688 
L 82.227782 140.789155 
L 88.186111 139.041171 
L 90.642518 138.32058 
L 90.307743 140.333699 
L 89.175055 147.700193 
L 89.041284 148.800297 
L 88.782554 150.928171 
L 88.750224 151.08585 
L 88.858986 151.214555 
L 90.20092 152.802645 
L 92.230678 155.20483 
L 93.02769 156.148111 
L 93.061694 156.188352 
L 93.092828 156.225206 
L 93.292879 156.461809 
L 93.406282 156.596163 
L 94.269776 157.618073 
L 94.660516 158.080563 
L 100.143759 167.008066 
L 101.603469 168.353033 
L 101.708864 168.450321 
L 101.324412 168.765863 
L 100.862686 169.1449 
L 98.342676 171.213164 
L 98.64989 171.679428 
L 99.199592 172.513879 
L 99.32249 172.700236 
L 99.397423 172.814029 
L 100.823331 174.978354 
L 101.394792 175.845605 
L 102.175313 177.030429 
L 104.394963 180.399594 
L 106.095225 182.577816 
L 106.294215 182.815602 
L 106.661474 183.25431 
L 106.689721 183.350366 
L 106.722572 183.460953 
L 106.783827 183.667263 
L 106.98764 184.164496 
L 107.120689 184.406544 
L 107.211675 184.572104 
L 107.243039 184.629514 
L 107.542525 185.043248 
L 107.830034 185.344507 
L 107.898374 185.425559 
L 108.313941 185.76905 
L 110.726086 187.417237 
L 110.977687 187.58956 
L 112.947303 188.934787 
L 113.300934 189.176601 
L 114.065865 189.530003 
L 115.466705 190.192135 
L 115.858567 190.37787 
L 116.989666 191.212212 
L 118.174934 192.086574 
L 119.329015 192.943 
L 119.979616 193.417769 
L 121.046522 194.884842 
L 122.21249 196.488096 
L 123.171096 196.137832 
L 124.347198 196.9835 
L 126.038099 198.199343 
L 132.511858 194.957346 
L 133.501046 194.450704 
L 133.307874 194.074188 
L 136.853096 192.256046 
L 136.890296 192.22598 
L 136.932516 192.203609 
L 136.9783 192.189874 
L 137.025768 192.185063 
L 137.07337 192.189543 
L 137.119132 192.203112 
L 137.161484 192.225233 
L 137.198849 192.255118 
L 137.229803 192.291569 
L 137.253169 192.333295 
L 137.268174 192.378836 
L 137.274118 192.426316 
L 137.158146 193.118719 
L 136.206644 198.79749 
L 136.094258 199.531013 
L 136.094794 199.564638 
L 136.001665 200.057479 
L 135.810769 201.238678 
L 135.778133 202.812179 
L 135.744227 203.629237 
L 135.692087 206.635378 
L 135.682303 207.198727 
L 135.680392 207.314076 
L 135.662518 208.344262 
L 135.641326 209.305853 
L 135.610385 210.701751 
L 135.580168 212.068847 
L 135.571628 212.538906 
L 135.563387 212.92383 
L 135.570761 213.089213 
L 135.533401 215.485834 
L 135.492571 216.294335 
L 135.270506 217.263665 
L 135.889434 217.056334 
L 137.138252 215.373966 
L 137.286148 215.257424 
L 137.287944 214.911385 
L 137.327477 214.960547 
L 137.615308 215.348093 
L 137.866154 215.344532 
L 137.998341 215.219147 
L 138.131202 215.094485 
L 138.264651 214.970469 
L 138.416278 214.841503 
L 138.569006 214.713993 
L 138.722998 214.587934 
L 145.079219 209.637648 
L 146.606402 208.448437 
L 148.014098 207.352078 
L 148.395727 207.042157 
L 150.028222 205.720721 
L 150.055443 205.762523 
L 151.835917 208.478414 
L 150.984805 209.123082 
L 151.918963 210.546456 
L 152.764848 211.835451 
L 153.224211 213.598306 
L 153.801717 215.814527 
L 154.396207 217.183081 
L 154.632935 217.627316 
L 155.338738 218.950867 
L 157.868 223.694376 
L 158.673881 225.205715 
L 158.82769 225.121201 
L 160.512069 226.575621 
L 159.903308 227.242336 
L 161.085247 228.335503 
L 161.687752 229.669586 
L 162.044658 230.320691 
L 162.5652 232.948728 
L 162.748004 234.164134 
L 162.788643 234.434507 
L 163.006106 235.796896 
L 164.312353 239.564193 
L 163.699802 240.070451 
L 163.549349 240.196912 
L 163.393149 240.316105 
L 163.231529 240.42794 
L 163.06489 240.531997 
L 162.893637 240.628102 
L 162.718012 240.716085 
L 162.538504 240.795769 
L 162.355435 240.866901 
L 162.169294 240.929387 
L 161.980406 240.983054 
L 162.273043 242.177395 
L 163.513474 244.758878 
L 164.517553 246.847397 
L 165.110468 248.080879 
L 165.48526 248.860527 
L 166.710129 250.829012 
L 167.503411 252.112026 
L 167.620784 252.349113 
L 168.509589 254.218518 
L 169.223301 255.710478 
L 169.724352 256.753986 
L 171.139014 259.680227 
L 172.322716 262.168643 
L 173.039737 263.666619 
L 173.749337 265.148978 
L 175.345507 268.527622 
L 176.018901 269.92768 
L 177.201438 269.989952 
L 178.128609 270.038779 
L 179.549699 268.778963 
L 180.016245 268.368897 
L 180.372727 268.777657 
L 183.213788 272.036239 
L 183.814669 272.625515 
L 184.106946 272.911174 
L 185.740967 274.513099 
L 188.024846 276.752026 
L 193.018832 281.648009 
L 193.748923 282.364242 
L 194.268557 282.874014 
L 194.639801 282.534572 
L 195.478201 281.805765 
L 195.841131 281.490237 
L 196.627413 280.816001 
L 197.060227 280.444865 
L 197.49109 280.075402 
L 197.838974 279.802057 
L 198.271018 279.462586 
L 198.645782 279.180501 
L 199.057176 278.870845 
L 199.177791 278.788651 
L 199.413093 278.628345 
L 199.663417 278.457804 
L 200.094916 278.132596 
L 200.521688 277.810951 
L 200.938732 277.496639 
L 201.394195 277.153372 
L 201.782025 276.889565 
L 202.238047 276.579373 
L 203.077002 276.008708 
L 203.690071 275.606864 
L 203.773922 275.554832 
L 205.227282 274.667085 
L 204.737732 274.067133 
L 206.77032 272.774718 
L 208.413032 271.753549 
L 209.075517 271.395636 
L 211.874194 269.794335 
L 214.261553 268.647607 
L 216.057852 267.872435 
L 217.244468 267.412083 
L 218.7113 266.843013 
L 219.256977 266.576318 
L 219.358925 266.526419 
L 219.40905 266.501983 
L 219.805168 266.308332 
L 220.003475 266.090563 
L 220.416624 266.433073 
L 220.335864 266.185171 
L 221.098558 265.918138 
L 221.406271 265.810344 
L 221.38398 265.718583 
L 221.437152 265.701807 
L 221.674659 265.626151 
L 221.912513 265.55131 
L 222.150551 265.477369 
L 222.570913 265.353313 
L 222.991727 265.231139 
L 223.41316 265.110842 
L 223.815492 265.005216 
L 224.218554 264.902781 
L 224.622512 264.803616 
L 225.0272 264.707642 
L 225.15998 264.675206 
L 225.29294 264.643424 
L 225.426079 264.612295 
L 225.852543 264.507429 
L 226.279646 264.405344 
L 226.707469 264.306039 
L 226.83947 264.275349 
L 226.971564 264.24515 
L 227.103836 264.215523 
L 227.383969 264.06396 
L 227.469942 264.143061 
L 229.940733 263.635088 
L 231.330564 263.425193 
L 234.281222 263.018897 
L 235.491933 262.81645 
L 235.510927 262.84348 
L 235.571607 262.83928 
L 236.787105 262.755732 
L 236.851319 262.609252 
L 240.216943 262.378367 
L 240.494623 262.369561 
L 241.358727 262.3421 
L 243.157333 262.252575 
L 244.102567 262.807253 
L 244.217838 262.616005 
L 244.307913 262.68457 
L 244.530117 262.31041 
L 246.042896 262.242802 
L 247.445656 262.273801 
L 248.459168 262.330574 
L 249.503879 262.399459 
L 254.935997 262.865024 
L 256.749321 263.066526 
L 256.969939 263.083722 
L 258.16545 263.151287 
L 258.361797 263.183108 
L 258.39434 263.20374 
L 258.414405 263.095209 
L 259.425727 263.424861 
L 261.663902 263.654743 
L 267.257885 264.245123 
L 267.305962 264.184881 
L 270.703033 264.366963 
L 271.989664 264.459692 
L 272.623222 264.429221 
L 273.248456 264.357657 
L 273.55599 264.2629 
L 273.870796 264.188373 
L 274.210948 264.182018 
L 274.89239 264.411849 
L 275.579353 264.643544 
L 275.629976 264.579873 
L 275.818079 264.663623 
L 276.036011 264.760585 
L 283.036344 265.645053 
L 284.898405 265.941703 
L 288.228751 266.291434 
L 288.788174 266.283008 
L 289.72433 266.400961 
L 293.408908 266.55343 
L 294.124956 266.583108 
L 294.771466 266.609862 
L 298.510892 266.973304 
L 298.969564 267.042459 
L 299.5056 267.123325 
L 299.777444 267.164288 
L 300.54821 267.313042 
L 301.682402 267.612672 
L 302.267279 267.76718 
L 304.383991 268.326347 
L 307.488802 269.188609 
L 307.707888 269.239588 
L 308.022404 269.260085 
L 308.720597 269.305496 
L 308.986596 269.385171 
L 309.815068 269.633366 
L 309.822255 269.635586 
L 309.829521 269.637722 
L 309.836705 269.63986 
L 310.344474 269.83727 
L 310.854018 270.029787 
L 311.365419 270.217493 
L 311.625337 270.311043 
L 311.885564 270.403764 
L 312.146017 270.495658 
L 312.494702 270.619001 
L 312.84447 270.739523 
L 313.195078 270.857312 
L 314.393049 271.34344 
L 314.922195 271.662003 
L 315.471619 271.931085 
L 316.532035 272.186804 
L 317.212835 272.350976 
L 319.91474 273.250206 
L 320.399201 273.4114 
L 322.508434 274.263867 
L 323.171856 274.536679 
L 324.916951 275.145674 
L 325.494537 275.26181 
L 326.0565 275.460679 
L 326.080599 275.469207 
L 326.542779 275.631823 
L 326.144728 276.131274 
L 326.545257 276.392268 
L 326.986507 276.543509 
L 327.750803 276.805477 
L 329.001812 277.234345 
L 329.104122 277.09186 
L 329.302462 276.815587 
L 329.726584 276.964545 
L 329.728502 276.965218 
L 331.021271 277.398399 
L 331.614119 277.569133 
L 332.852491 277.925928 
L 338.23616 279.47703 
L 339.471464 279.832929 
L 341.633622 280.603193 
L 347.314383 282.386127 
L 348.783449 282.812129 
L 350.308076 283.254301 
L 350.46436 283.299583 
L 350.538169 283.321007 
L 350.926758 283.422088 
L 351.272063 283.484428 
L 352.206608 283.65315 
L 352.224371 283.294247 
L 352.560904 283.483038 
L 353.156278 283.823495 
L 353.170743 283.835666 
L 354.628848 284.285131 
L 356.35649 284.801315 
L 358.30941 285.298876 
L 358.613394 285.376318 
L 361.067266 285.975541 
L 362.55592 286.239538 
L 363.901366 286.315182 
L 365.209301 286.331648 
L 366.225318 286.260115 
L 367.26806 286.245956 
L 368.392813 286.220719 
L 371.194606 286.003869 
L 374.48134 285.56191 
L 377.605666 284.81831 
L 377.584789 285.156639 
L 379.111005 284.700381 
L 380.943448 284.065679 
L 382.555068 283.41101 
L 385.978155 281.770065 
L 386.177342 281.674571 
L 389.319156 279.693403 
L 389.361029 279.66276 
L 391.727368 277.930027 
L 395.210929 274.730517 
L 396.409732 273.629501 
L 397.023541 273.052267 
L 397.612538 272.498461 
L 398.487273 271.67556 
L 398.342645 271.198878 
L 398.088215 270.360191 
L 397.014443 266.794121 
L 395.302088 261.699037 
L 393.496608 256.452201 
L 392.579204 254.417814 
L 391.501033 251.397458 
L 391.412933 251.150512 
L 391.913603 250.853578 
L 391.867912 250.780846 
L 391.663706 250.455778 
L 391.492319 250.181509 
L 391.172236 249.669283 
L 391.062787 249.33433 
L 390.843029 248.662717 
L 390.492995 248.439576 
L 390.005727 246.555703 
L 389.582457 245.383419 
L 388.610913 242.68756 
L 387.680922 239.697233 
L 386.285693 235.287375 
L 386.213568 235.061615 
L 384.602181 230.27195 
L 384.39913 229.67258 
L 383.618894 227.52431 
L 382.217813 224.881011 
L 381.771639 223.49263 
L 380.834604 220.633821 
L 379.641653 217.059244 
L 379.409489 216.363082 
L 378.402083 214.204945 
L 378.294652 213.963624 
L 377.558208 212.813126 
L 377.138628 211.528181 
L 376.825103 210.557785 
L 376.716089 209.913675 
L 376.49962 209.012784 
L 375.262936 205.393982 
L 373.661216 201.074488 
L 373.556603 201.160348 
L 372.018506 197.217151 
L 370.959372 194.384423 
L 369.916704 191.598365 
L 370.111817 190.489561 
L 367.935561 185.157125 
L 367.960491 184.588999 
L 366.740756 181.387795 
L 365.615731 178.07349 
L 365.460634 177.601417 
L 365.459821 177.598955 
L 365.225159 176.887986 
L 365.133059 176.607253 
L 364.291919 173.790872 
L 363.567887 170.702064 
L 362.771325 170.612991 
L 360.168913 170.421777 
L 358.796782 170.322489 
L 357.547877 170.338988 
L 357.480461 170.339869 
L 357.099427 170.344949 
L 353.953407 170.405757 
L 352.871178 170.428333 
L 352.78768 168.295546 
L 352.170878 167.156918 
L 351.622432 165.885717 
L 350.935825 164.058504 
L 349.987695 160.74201 
L 347.859323 157.783431 
L 345.886238 156.874341 
L 343.260619 157.311771 
L 340.554378 158.968585 
L 337.579832 160.147227 
L 334.635814 160.518473 
L 334.436991 161.485922 
L 327.443793 160.121068 
L 324.321118 160.064871 
L 324.329253 159.20171 
L 324.333337 158.4236 
L 324.334466 157.645392 
L 324.332643 156.867252 
L 324.327974 156.086628 
L 324.320268 155.30599 
L 324.309693 154.525419 
L 324.239283 149.633913 
L 324.127472 141.861402 
L 320.521781 141.857255 
L 320.198276 141.529694 
L 320.000729 141.519583 
L 319.803548 141.503953 
L 319.606894 141.482636 
L 319.525519 141.472411 
L 319.444285 141.461197 
L 319.363195 141.449074 
L 319.247598 141.427626 
L 319.132449 141.404277 
L 319.017664 141.378863 
L 318.784958 141.327285 
L 318.554123 141.267769 
L 318.325485 141.200308 
L 318.099215 141.125144 
L 317.87572 141.042185 
L 317.799799 141.012098 
L 317.724269 140.981179 
L 317.649047 140.949348 
L 317.55363 140.90622 
L 317.458919 140.861677 
L 317.36483 140.81564 
L 317.22379 140.743457 
L 317.084398 140.668029 
L 316.946741 140.589517 
L 316.810899 140.50784 
L 316.609776 140.380616 
L 316.413094 140.246628 
L 316.2211 140.105954 
L 316.034045 139.958834 
L 315.852015 139.805431 
L 316.746103 138.369202 
L 317.312505 137.457878 
L 317.255445 137.380644 
L 316.8374 136.786237 
L 301.34259 114.843123 
L 300.664217 114.239315 
L 299.351839 113.071198 
L 298.395777 111.943816 
L 296.542246 109.758278 
L 295.160073 108.128487 
L 293.336275 105.978138 
L 291.842173 104.216382 
L 291.053548 103.286663 
L 289.68842 101.851497 
L 287.604954 99.722853 
L 286.850962 98.96629 
L 285.658075 97.76938 
L 285.06835 97.177804 
L 284.197783 96.304429 
L 284.160158 96.26664 
L 283.962215 96.068301 
L 282.320558 94.423635 
L 280.607858 92.705028 
L 279.333422 91.4244 
L 277.447956 89.529754 
L 277.24848 89.329233 
L 276.011354 88.084578 
L 275.364452 87.433742 
L 274.734564 86.802478 
L 273.920369 85.984738 
L 273.68083 85.744185 
L 271.879001 83.938682 
L 270.694534 82.751491 
L 270.657162 82.714109 
L 270.506324 82.563051 
L 270.375659 82.432199 
L 269.533266 81.588607 
L 268.335134 80.389402 
L 268.116354 80.170497 
L 268.068229 80.118724 
L 267.617671 79.668795 
L 267.595066 79.359507 
L 267.467979 77.804675 
L 267.342191 76.2457 
L 267.218241 74.698938 
L 267.093777 73.144127 
L 266.967015 71.585751 
L 266.876501 70.473447 
L 265.255122 72.190551 
L 262.043734 69.808911 
L 261.368488 69.144911 
L 261.286272 69.084468 
L 260.953879 68.839155 
L 260.706231 68.642879 
L 260.53743 68.438944 
L 260.364605 68.238475 
L 260.187676 68.041555 
L 260.00673 67.848346 
L 259.798742 67.635365 
L 259.585938 67.4271 
L 259.368491 67.223877 
L 259.146399 67.025697 
L 258.662522 66.623178 
L 258.641978 66.607615 
L 258.555301 66.54234 
L 258.469211 66.477627 
L 258.140143 66.227141 
L 257.837158 66.00122 
L 257.808605 65.97992 
L 257.4746 65.736045 
L 257.374317 65.664341 
L 257.150557 65.50436 
L 257.133377 65.492338 
L 256.824288 65.275769 
L 256.573832 65.103904 
L 256.495793 65.050356 
L 256.243417 64.880673 
L 256.165238 64.828115 
L 256.190575 64.795126 
L 256.026982 64.693055 
L 255.666942 64.462613 
L 254.496704 63.713578 
L 252.950768 62.724352 
L 252.829385 62.916477 
L 252.786933 62.983169 
L 251.38998 65.187701 
L 250.623217 66.401627 
L 249.614691 67.71103 
L 248.703302 68.894334 
L 247.787865 70.083326 
L 245.957008 72.461398 
L 245.148516 73.525877 
L 244.910224 73.840041 
L 243.986408 73.144228 
L 240.856861 73.807224 
L 239.36298 74.124016 
L 238.981948 74.204458 
L 237.858454 74.441717 
L 235.879293 74.862183 
L 234.351805 75.187419 
L 233.06625 75.456649 
L 231.780522 75.729013 
L 230.49724 76.000583 
L 229.165634 76.283145 
L 225.844391 76.986389 
L 223.618776 80.280269 
L 222.667456 81.688176 
L 221.486018 83.439599 
L 221.329964 82.778444 
L 219.075851 81.503757 
L 217.677086 80.712916 
L 216.2858 79.926348 
L 216.12541 80.212241 
L 215.65688 79.946188 
L 215.658464 79.943684 
L 214.841318 79.476898 
L 214.438272 79.587893 
" clip-path="url(#pcaffe98d39)" style="fill: #1f77b4"/>
   </g>
   <g id="matplotlib.axis_1">
    <g id="xtick_1">
     <g id="line2d_1">
      <defs>
       <path id="mdc85b7bd2b" d="M 0 0 
L 0 3.5 
" style="stroke: #000000; stroke-width: 0.8"/>
      </defs>
      <g>
       <use xlink:href="#mdc85b7bd2b" x="106.497147" y="297.512013" style="stroke: #000000; stroke-width: 0.8"/>
      </g>
     </g>
     <g id="text_1">
      <!-- 13.31 -->
      <g transform="translate(92.183084 312.110451) scale(0.1 -0.1)">
       <defs>
        <path id="DejaVuSans-31" d="M 794 531 
L 1825 531 
L 1825 4091 
L 703 3866 
L 703 4441 
L 1819 4666 
L 2450 4666 
L 2450 531 
L 3481 531 
L 3481 0 
L 794 0 
L 794 531 
z
" transform="scale(0.015625)"/>
        <path id="DejaVuSans-33" d="M 2597 2516 
Q 3050 2419 3304 2112 
Q 3559 1806 3559 1356 
Q 3559 666 3084 287 
Q 2609 -91 1734 -91 
Q 1441 -91 1130 -33 
Q 819 25 488 141 
L 488 750 
Q 750 597 1062 519 
Q 1375 441 1716 441 
Q 2309 441 2620 675 
Q 2931 909 2931 1356 
Q 2931 1769 2642 2001 
Q 2353 2234 1838 2234 
L 1294 2234 
L 1294 2753 
L 1863 2753 
Q 2328 2753 2575 2939 
Q 2822 3125 2822 3475 
Q 2822 3834 2567 4026 
Q 2313 4219 1838 4219 
Q 1578 4219 1281 4162 
Q 984 4106 628 3988 
L 628 4550 
Q 988 4650 1302 4700 
Q 1616 4750 1894 4750 
Q 2613 4750 3031 4423 
Q 3450 4097 3450 3541 
Q 3450 3153 3228 2886 
Q 3006 2619 2597 2516 
z
" transform="scale(0.015625)"/>
        <path id="DejaVuSans-2e" d="M 684 794 
L 1344 794 
L 1344 0 
L 684 0 
L 684 794 
z
" transform="scale(0.015625)"/>
       </defs>
       <use xlink:href="#DejaVuSans-31"/>
       <use xlink:href="#DejaVuSans-33" x="63.623047"/>
       <use xlink:href="#DejaVuSans-2e" x="127.246094"/>
       <use xlink:href="#DejaVuSans-33" x="159.033203"/>
       <use xlink:href="#DejaVuSans-31" x="222.65625"/>
      </g>
     </g>
    </g>
    <g id="xtick_2">
     <g id="line2d_2">
      <g>
       <use xlink:href="#mdc85b7bd2b" x="162.237415" y="297.512013" style="stroke: #000000; stroke-width: 0.8"/>
      </g>
     </g>
     <g id="text_2">
      <!-- 13.32 -->
      <g transform="translate(147.923352 312.110451) scale(0.1 -0.1)">
       <defs>
        <path id="DejaVuSans-32" d="M 1228 531 
L 3431 531 
L 3431 0 
L 469 0 
L 469 531 
Q 828 903 1448 1529 
Q 2069 2156 2228 2338 
Q 2531 2678 2651 2914 
Q 2772 3150 2772 3378 
Q 2772 3750 2511 3984 
Q 2250 4219 1831 4219 
Q 1534 4219 1204 4116 
Q 875 4013 500 3803 
L 500 4441 
Q 881 4594 1212 4672 
Q 1544 4750 1819 4750 
Q 2544 4750 2975 4387 
Q 3406 4025 3406 3419 
Q 3406 3131 3298 2873 
Q 3191 2616 2906 2266 
Q 2828 2175 2409 1742 
Q 1991 1309 1228 531 
z
" transform="scale(0.015625)"/>
       </defs>
       <use xlink:href="#DejaVuSans-31"/>
       <use xlink:href="#DejaVuSans-33" x="63.623047"/>
       <use xlink:href="#DejaVuSans-2e" x="127.246094"/>
       <use xlink:href="#DejaVuSans-33" x="159.033203"/>
       <use xlink:href="#DejaVuSans-32" x="222.65625"/>
      </g>
     </g>
    </g>
    <g id="xtick_3">
     <g id="line2d_3">
      <g>
       <use xlink:href="#mdc85b7bd2b" x="217.977683" y="297.512013" style="stroke: #000000; stroke-width: 0.8"/>
      </g>
     </g>
     <g id="text_3">
      <!-- 13.33 -->
      <g transform="translate(203.663621 312.110451) scale(0.1 -0.1)">
       <use xlink:href="#DejaVuSans-31"/>
       <use xlink:href="#DejaVuSans-33" x="63.623047"/>
       <use xlink:href="#DejaVuSans-2e" x="127.246094"/>
       <use xlink:href="#DejaVuSans-33" x="159.033203"/>
       <use xlink:href="#DejaVuSans-33" x="222.65625"/>
      </g>
     </g>
    </g>
    <g id="xtick_4">
     <g id="line2d_4">
      <g>
       <use xlink:href="#mdc85b7bd2b" x="273.717952" y="297.512013" style="stroke: #000000; stroke-width: 0.8"/>
      </g>
     </g>
     <g id="text_4">
      <!-- 13.34 -->
      <g transform="translate(259.403889 312.110451) scale(0.1 -0.1)">
       <defs>
        <path id="DejaVuSans-34" d="M 2419 4116 
L 825 1625 
L 2419 1625 
L 2419 4116 
z
M 2253 4666 
L 3047 4666 
L 3047 1625 
L 3713 1625 
L 3713 1100 
L 3047 1100 
L 3047 0 
L 2419 0 
L 2419 1100 
L 313 1100 
L 313 1709 
L 2253 4666 
z
" transform="scale(0.015625)"/>
       </defs>
       <use xlink:href="#DejaVuSans-31"/>
       <use xlink:href="#DejaVuSans-33" x="63.623047"/>
       <use xlink:href="#DejaVuSans-2e" x="127.246094"/>
       <use xlink:href="#DejaVuSans-33" x="159.033203"/>
       <use xlink:href="#DejaVuSans-34" x="222.65625"/>
      </g>
     </g>
    </g>
    <g id="xtick_5">
     <g id="line2d_5">
      <g>
       <use xlink:href="#mdc85b7bd2b" x="329.45822" y="297.512013" style="stroke: #000000; stroke-width: 0.8"/>
      </g>
     </g>
     <g id="text_5">
      <!-- 13.35 -->
      <g transform="translate(315.144158 312.110451) scale(0.1 -0.1)">
       <defs>
        <path id="DejaVuSans-35" d="M 691 4666 
L 3169 4666 
L 3169 4134 
L 1269 4134 
L 1269 2991 
Q 1406 3038 1543 3061 
Q 1681 3084 1819 3084 
Q 2600 3084 3056 2656 
Q 3513 2228 3513 1497 
Q 3513 744 3044 326 
Q 2575 -91 1722 -91 
Q 1428 -91 1123 -41 
Q 819 9 494 109 
L 494 744 
Q 775 591 1075 516 
Q 1375 441 1709 441 
Q 2250 441 2565 725 
Q 2881 1009 2881 1497 
Q 2881 1984 2565 2268 
Q 2250 2553 1709 2553 
Q 1456 2553 1204 2497 
Q 953 2441 691 2322 
L 691 4666 
z
" transform="scale(0.015625)"/>
       </defs>
       <use xlink:href="#DejaVuSans-31"/>
       <use xlink:href="#DejaVuSans-33" x="63.623047"/>
       <use xlink:href="#DejaVuSans-2e" x="127.246094"/>
       <use xlink:href="#DejaVuSans-33" x="159.033203"/>
       <use xlink:href="#DejaVuSans-35" x="222.65625"/>
      </g>
     </g>
    </g>
    <g id="xtick_6">
     <g id="line2d_6">
      <g>
       <use xlink:href="#mdc85b7bd2b" x="385.198489" y="297.512013" style="stroke: #000000; stroke-width: 0.8"/>
      </g>
     </g>
     <g id="text_6">
      <!-- 13.36 -->
      <g transform="translate(370.884426 312.110451) scale(0.1 -0.1)">
       <defs>
        <path id="DejaVuSans-36" d="M 2113 2584 
Q 1688 2584 1439 2293 
Q 1191 2003 1191 1497 
Q 1191 994 1439 701 
Q 1688 409 2113 409 
Q 2538 409 2786 701 
Q 3034 994 3034 1497 
Q 3034 2003 2786 2293 
Q 2538 2584 2113 2584 
z
M 3366 4563 
L 3366 3988 
Q 3128 4100 2886 4159 
Q 2644 4219 2406 4219 
Q 1781 4219 1451 3797 
Q 1122 3375 1075 2522 
Q 1259 2794 1537 2939 
Q 1816 3084 2150 3084 
Q 2853 3084 3261 2657 
Q 3669 2231 3669 1497 
Q 3669 778 3244 343 
Q 2819 -91 2113 -91 
Q 1303 -91 875 529 
Q 447 1150 447 2328 
Q 447 3434 972 4092 
Q 1497 4750 2381 4750 
Q 2619 4750 2861 4703 
Q 3103 4656 3366 4563 
z
" transform="scale(0.015625)"/>
       </defs>
       <use xlink:href="#DejaVuSans-31"/>
       <use xlink:href="#DejaVuSans-33" x="63.623047"/>
       <use xlink:href="#DejaVuSans-2e" x="127.246094"/>
       <use xlink:href="#DejaVuSans-33" x="159.033203"/>
       <use xlink:href="#DejaVuSans-36" x="222.65625"/>
      </g>
     </g>
    </g>
   </g>
   <g id="matplotlib.axis_2">
    <g id="ytick_1">
     <g id="line2d_7">
      <defs>
       <path id="m417e86c44b" d="M 0 0 
L -3.5 0 
" style="stroke: #000000; stroke-width: 0.8"/>
      </defs>
      <g>
       <use xlink:href="#m417e86c44b" x="57.6" y="267.768936" style="stroke: #000000; stroke-width: 0.8"/>
      </g>
     </g>
     <g id="text_7">
      <!-- 52.445 -->
      <g transform="translate(15.609375 271.568155) scale(0.1 -0.1)">
       <use xlink:href="#DejaVuSans-35"/>
       <use xlink:href="#DejaVuSans-32" x="63.623047"/>
       <use xlink:href="#DejaVuSans-2e" x="127.246094"/>
       <use xlink:href="#DejaVuSans-34" x="159.033203"/>
       <use xlink:href="#DejaVuSans-34" x="222.65625"/>
       <use xlink:href="#DejaVuSans-35" x="286.279297"/>
      </g>
     </g>
    </g>
    <g id="ytick_2">
     <g id="line2d_8">
      <g>
       <use xlink:href="#m417e86c44b" x="57.6" y="222.033831" style="stroke: #000000; stroke-width: 0.8"/>
      </g>
     </g>
     <g id="text_8">
      <!-- 52.450 -->
      <g transform="translate(15.609375 225.83305) scale(0.1 -0.1)">
       <defs>
        <path id="DejaVuSans-30" d="M 2034 4250 
Q 1547 4250 1301 3770 
Q 1056 3291 1056 2328 
Q 1056 1369 1301 889 
Q 1547 409 2034 409 
Q 2525 409 2770 889 
Q 3016 1369 3016 2328 
Q 3016 3291 2770 3770 
Q 2525 4250 2034 4250 
z
M 2034 4750 
Q 2819 4750 3233 4129 
Q 3647 3509 3647 2328 
Q 3647 1150 3233 529 
Q 2819 -91 2034 -91 
Q 1250 -91 836 529 
Q 422 1150 422 2328 
Q 422 3509 836 4129 
Q 1250 4750 2034 4750 
z
" transform="scale(0.015625)"/>
       </defs>
       <use xlink:href="#DejaVuSans-35"/>
       <use xlink:href="#DejaVuSans-32" x="63.623047"/>
       <use xlink:href="#DejaVuSans-2e" x="127.246094"/>
       <use xlink:href="#DejaVuSans-34" x="159.033203"/>
       <use xlink:href="#DejaVuSans-35" x="222.65625"/>
       <use xlink:href="#DejaVuSans-30" x="286.279297"/>
      </g>
     </g>
    </g>
    <g id="ytick_3">
     <g id="line2d_9">
      <g>
       <use xlink:href="#m417e86c44b" x="57.6" y="176.298726" style="stroke: #000000; stroke-width: 0.8"/>
      </g>
     </g>
     <g id="text_9">
      <!-- 52.455 -->
      <g transform="translate(15.609375 180.097945) scale(0.1 -0.1)">
       <use xlink:href="#DejaVuSans-35"/>
       <use xlink:href="#DejaVuSans-32" x="63.623047"/>
       <use xlink:href="#DejaVuSans-2e" x="127.246094"/>
       <use xlink:href="#DejaVuSans-34" x="159.033203"/>
       <use xlink:href="#DejaVuSans-35" x="222.65625"/>
       <use xlink:href="#DejaVuSans-35" x="286.279297"/>
      </g>
     </g>
    </g>
    <g id="ytick_4">
     <g id="line2d_10">
      <g>
       <use xlink:href="#m417e86c44b" x="57.6" y="130.563621" style="stroke: #000000; stroke-width: 0.8"/>
      </g>
     </g>
     <g id="text_10">
      <!-- 52.460 -->
      <g transform="translate(15.609375 134.36284) scale(0.1 -0.1)">
       <use xlink:href="#DejaVuSans-35"/>
       <use xlink:href="#DejaVuSans-32" x="63.623047"/>
       <use xlink:href="#DejaVuSans-2e" x="127.246094"/>
       <use xlink:href="#DejaVuSans-34" x="159.033203"/>
       <use xlink:href="#DejaVuSans-36" x="222.65625"/>
       <use xlink:href="#DejaVuSans-30" x="286.279297"/>
      </g>
     </g>
    </g>
    <g id="ytick_5">
     <g id="line2d_11">
      <g>
       <use xlink:href="#m417e86c44b" x="57.6" y="84.828516" style="stroke: #000000; stroke-width: 0.8"/>
      </g>
     </g>
     <g id="text_11">
      <!-- 52.465 -->
      <g transform="translate(15.609375 88.627735) scale(0.1 -0.1)">
       <use xlink:href="#DejaVuSans-35"/>
       <use xlink:href="#DejaVuSans-32" x="63.623047"/>
       <use xlink:href="#DejaVuSans-2e" x="127.246094"/>
       <use xlink:href="#DejaVuSans-34" x="159.033203"/>
       <use xlink:href="#DejaVuSans-36" x="222.65625"/>
       <use xlink:href="#DejaVuSans-35" x="286.279297"/>
      </g>
     </g>
    </g>
   </g>
   <g id="patch_3">
    <path d="M 57.6 297.512013 
L 57.6 51.543987 
" style="fill: none; stroke: #000000; stroke-width: 0.8; stroke-linejoin: miter; stroke-linecap: square"/>
   </g>
   <g id="patch_4">
    <path d="M 414.72 297.512013 
L 414.72 51.543987 
" style="fill: none; stroke: #000000; stroke-width: 0.8; stroke-linejoin: miter; stroke-linecap: square"/>
   </g>
   <g id="patch_5">
    <path d="M 57.6 297.512013 
L 414.72 297.512013 
" style="fill: none; stroke: #000000; stroke-width: 0.8; stroke-linejoin: miter; stroke-linecap: square"/>
   </g>
   <g id="patch_6">
    <path d="M 57.6 51.543987 
L 414.72 51.543987 
" style="fill: none; stroke: #000000; stroke-width: 0.8; stroke-linejoin: miter; stroke-linecap: square"/>
   </g>
   <g id="text_12">
    <!-- Steglitz -->
    <g transform="translate(209.100386 177.715723) scale(0.12 -0.12)">
     <defs>
      <path id="DejaVuSans-53" d="M 3425 4513 
L 3425 3897 
Q 3066 4069 2747 4153 
Q 2428 4238 2131 4238 
Q 1616 4238 1336 4038 
Q 1056 3838 1056 3469 
Q 1056 3159 1242 3001 
Q 1428 2844 1947 2747 
L 2328 2669 
Q 3034 2534 3370 2195 
Q 3706 1856 3706 1288 
Q 3706 609 3251 259 
Q 2797 -91 1919 -91 
Q 1588 -91 1214 -16 
Q 841 59 441 206 
L 441 856 
Q 825 641 1194 531 
Q 1563 422 1919 422 
Q 2459 422 2753 634 
Q 3047 847 3047 1241 
Q 3047 1584 2836 1778 
Q 2625 1972 2144 2069 
L 1759 2144 
Q 1053 2284 737 2584 
Q 422 2884 422 3419 
Q 422 4038 858 4394 
Q 1294 4750 2059 4750 
Q 2388 4750 2728 4690 
Q 3069 4631 3425 4513 
z
" transform="scale(0.015625)"/>
      <path id="DejaVuSans-74" d="M 1172 4494 
L 1172 3500 
L 2356 3500 
L 2356 3053 
L 1172 3053 
L 1172 1153 
Q 1172 725 1289 603 
Q 1406 481 1766 481 
L 2356 481 
L 2356 0 
L 1766 0 
Q 1100 0 847 248 
Q 594 497 594 1153 
L 594 3053 
L 172 3053 
L 172 3500 
L 594 3500 
L 594 4494 
L 1172 4494 
z
" transform="scale(0.015625)"/>
      <path id="DejaVuSans-65" d="M 3597 1894 
L 3597 1613 
L 953 1613 
Q 991 1019 1311 708 
Q 1631 397 2203 397 
Q 2534 397 2845 478 
Q 3156 559 3463 722 
L 3463 178 
Q 3153 47 2828 -22 
Q 2503 -91 2169 -91 
Q 1331 -91 842 396 
Q 353 884 353 1716 
Q 353 2575 817 3079 
Q 1281 3584 2069 3584 
Q 2775 3584 3186 3129 
Q 3597 2675 3597 1894 
z
M 3022 2063 
Q 3016 2534 2758 2815 
Q 2500 3097 2075 3097 
Q 1594 3097 1305 2825 
Q 1016 2553 972 2059 
L 3022 2063 
z
" transform="scale(0.015625)"/>
      <path id="DejaVuSans-67" d="M 2906 1791 
Q 2906 2416 2648 2759 
Q 2391 3103 1925 3103 
Q 1463 3103 1205 2759 
Q 947 2416 947 1791 
Q 947 1169 1205 825 
Q 1463 481 1925 481 
Q 2391 481 2648 825 
Q 2906 1169 2906 1791 
z
M 3481 434 
Q 3481 -459 3084 -895 
Q 2688 -1331 1869 -1331 
Q 1566 -1331 1297 -1286 
Q 1028 -1241 775 -1147 
L 775 -588 
Q 1028 -725 1275 -790 
Q 1522 -856 1778 -856 
Q 2344 -856 2625 -561 
Q 2906 -266 2906 331 
L 2906 616 
Q 2728 306 2450 153 
Q 2172 0 1784 0 
Q 1141 0 747 490 
Q 353 981 353 1791 
Q 353 2603 747 3093 
Q 1141 3584 1784 3584 
Q 2172 3584 2450 3431 
Q 2728 3278 2906 2969 
L 2906 3500 
L 3481 3500 
L 3481 434 
z
" transform="scale(0.015625)"/>
      <path id="DejaVuSans-6c" d="M 603 4863 
L 1178 4863 
L 1178 0 
L 603 0 
L 603 4863 
z
" transform="scale(0.015625)"/>
      <path id="DejaVuSans-69" d="M 603 3500 
L 1178 3500 
L 1178 0 
L 603 0 
L 603 3500 
z
M 603 4863 
L 1178 4863 
L 1178 4134 
L 603 4134 
L 603 4863 
z
" transform="scale(0.015625)"/>
      <path id="DejaVuSans-7a" d="M 353 3500 
L 3084 3500 
L 3084 2975 
L 922 459 
L 3084 459 
L 3084 0 
L 275 0 
L 275 525 
L 2438 3041 
L 353 3041 
L 353 3500 
z
" transform="scale(0.015625)"/>
     </defs>
     <use xlink:href="#DejaVuSans-53"/>
     <use xlink:href="#DejaVuSans-74" x="63.476562"/>
     <use xlink:href="#DejaVuSans-65" x="102.685547"/>
     <use xlink:href="#DejaVuSans-67" x="164.208984"/>
     <use xlink:href="#DejaVuSans-6c" x="227.685547"/>
     <use xlink:href="#DejaVuSans-69" x="255.46875"/>
     <use xlink:href="#DejaVuSans-74" x="283.251953"/>
     <use xlink:href="#DejaVuSans-7a" x="322.460938"/>
    </g>
   </g>
  </g>
 </g>
 <defs>
  <clipPath id="pcaffe98d39">
   <rect x="57.6" y="51.543987" width="357.12" height="245.968026"/>
  </clipPath>
 </defs>
</svg>
