<?xml version="1.0" encoding="utf-8" standalone="no"?>
<!DOCTYPE svg PUBLIC "-//W3C//DTD SVG 1.1//EN"
  "http://www.w3.org/Graphics/SVG/1.1/DTD/svg11.dtd">
<svg xmlns:xlink="http://www.w3.org/1999/xlink" width="720pt" height="720pt" viewBox="0 0 720 720" xmlns="http://www.w3.org/2000/svg" version="1.1">
 <metadata>
  <rdf:RDF xmlns:dc="http://purl.org/dc/elements/1.1/" xmlns:cc="http://creativecommons.org/ns#" xmlns:rdf="http://www.w3.org/1999/02/22-rdf-syntax-ns#">
   <cc:Work>
    <dc:type rdf:resource="http://purl.org/dc/dcmitype/StillImage"/>
    <dc:date>2024-10-17T11:38:40.907137</dc:date>
    <dc:format>image/svg+xml</dc:format>
    <dc:creator>
     <cc:Agent>
      <dc:title>Matplotlib v3.9.2, https://matplotlib.org/</dc:title>
     </cc:Agent>
    </dc:creator>
   </cc:Work>
  </rdf:RDF>
 </metadata>
 <defs>
  <style type="text/css">*{stroke-linejoin: round; stroke-linecap: butt}</style>
 </defs>
 <g id="figure_1">
  <g id="patch_1">
   <path d="M 0 720 
L 720 720 
L 720 0 
L 0 0 
z
" style="fill: #ffffff"/>
  </g>
  <g id="axes_1">
   <g id="patch_2">
    <path d="M 90 554.450972 
L 648 554.450972 
L 648 172.749028 
L 90 172.749028 
z
" style="fill: #ffffff"/>
   </g>
   <g id="PatchCollection_1">
    <path d="M 337.016374 216.26856 
L 335.26452 219.236437 
L 334.166742 221.097044 
L 333.999835 221.380035 
L 333.372399 222.443554 
L 331.621795 225.408987 
L 331.405234 225.77494 
L 329.739836 228.596864 
L 329.731973 228.610193 
L 327.982941 231.575089 
L 327.166416 232.957985 
L 327.011277 233.220923 
L 326.629301 233.867794 
L 324.084184 231.480218 
L 321.649792 230.050098 
L 321.540062 229.985512 
L 311.694393 224.209696 
L 303.792846 219.56495 
L 294.677884 214.205847 
L 293.024493 213.24407 
L 289.697986 211.294186 
L 287.391131 209.928748 
L 285.086752 208.560708 
L 282.786246 207.211858 
L 279.457378 205.267316 
L 277.810074 204.300971 
L 274.672504 202.452318 
L 272.36817 201.099638 
L 270.05995 199.744506 
L 268.031181 198.551469 
L 265.998565 197.368611 
L 264.594987 196.535226 
L 262.597712 196.481188 
L 258.451655 196.363644 
L 255.859835 196.289153 
L 254.607276 196.245987 
L 251.894589 196.170884 
L 248.243758 196.069045 
L 244.996464 195.993678 
L 242.915184 195.936175 
L 232.03762 195.633344 
L 229.309648 195.558313 
L 224.149037 195.414661 
L 221.090138 195.330805 
L 203.65176 194.846272 
L 198.113038 194.696876 
L 196.241785 194.64125 
L 183.463607 194.287524 
L 181.82793 194.242248 
L 181.520566 194.238984 
L 181.21318 194.245675 
L 180.906151 194.262186 
L 180.59986 194.288507 
L 180.374401 194.313444 
L 180.149577 194.343727 
L 179.925644 194.379477 
L 179.581059 194.445623 
L 179.23906 194.524343 
L 178.900152 194.615498 
L 178.564843 194.718949 
L 178.233513 194.834686 
L 177.9064 194.96194 
L 177.584149 195.101076 
L 177.267263 195.251829 
L 176.955996 195.414192 
L 176.65085 195.58777 
L 176.4216 195.728556 
L 176.196321 195.875758 
L 175.975388 196.029113 
L 175.758677 196.188749 
L 175.577983 196.331078 
L 175.400954 196.47766 
L 175.227339 196.628629 
L 175.165694 197.403116 
L 174.559496 197.025253 
L 173.958827 196.638837 
L 173.363562 196.243872 
L 172.773957 195.840479 
L 172.190143 195.428782 
L 171.999759 195.292345 
L 171.809864 195.155002 
L 171.620711 195.016749 
L 171.430329 194.874951 
L 171.240565 194.732373 
L 171.051171 194.589276 
L 170.843782 194.428095 
L 170.641464 194.260541 
L 170.444353 194.086867 
L 169.329244 193.075145 
L 169.000343 192.776678 
L 168.019762 194.248887 
L 166.430901 196.633992 
L 166.371204 196.727922 
L 165.283032 198.440302 
L 164.446151 199.199791 
L 163.005835 200.506794 
L 161.706441 201.686057 
L 160.22349 203.031844 
L 159.940789 203.288245 
L 157.540457 205.462557 
L 154.972416 207.788863 
L 154.90547 207.844931 
L 154.837336 207.899241 
L 154.767767 207.952053 
L 154.637139 208.056711 
L 154.504142 208.158106 
L 154.368779 208.256366 
L 154.184148 208.382457 
L 153.995556 208.502515 
L 153.803127 208.616409 
L 153.607243 208.724131 
L 153.400508 208.814367 
L 153.191073 208.89803 
L 152.979059 208.974861 
L 152.764592 209.044859 
L 152.487485 209.120794 
L 152.207003 209.183152 
L 151.923909 209.231788 
L 151.638838 209.266686 
L 151.3523 209.287836 
L 151.065055 209.29509 
L 150.777991 209.288302 
L 150.491369 209.267719 
L 150.206203 209.233191 
L 149.92301 209.18496 
L 149.755656 209.15124 
L 149.587412 209.123028 
L 149.418279 209.100325 
L 149.248506 209.082998 
L 148.945817 209.072366 
L 148.64286 209.077565 
L 148.340783 209.09857 
L 148.040087 209.135114 
L 147.741668 209.187302 
L 147.446412 209.254987 
L 147.154951 209.337898 
L 147.023189 209.382938 
L 146.586957 209.54855 
L 146.31194 209.675745 
L 146.043876 209.817072 
L 145.359588 210.233385 
L 144.235018 210.919508 
L 142.137342 212.07047 
L 141.775499 212.258416 
L 138.645407 213.641041 
L 136.173124 214.645758 
L 134.036304 221.59976 
L 133.384533 223.720304 
L 132.631117 226.17137 
L 131.361382 230.299864 
L 130.527211 233.032209 
L 129.656477 235.861519 
L 129.52467 236.290768 
L 128.645785 239.505835 
L 127.974096 241.883641 
L 127.656279 243.113663 
L 127.34269 244.344735 
L 127.033202 245.576859 
L 126.854018 246.283027 
L 126.685593 246.991878 
L 126.528049 247.703152 
L 126.381514 248.416848 
L 126.321533 248.71576 
L 126.262579 249.01503 
L 126.204774 249.314401 
L 126.163917 249.516376 
L 126.12408 249.718455 
L 126.085268 249.920765 
L 126.00324 250.425548 
L 125.925305 250.931129 
L 125.851458 251.437252 
L 125.776919 251.989975 
L 125.705574 252.543133 
L 125.637293 253.096603 
L 125.580464 253.475718 
L 125.5497 253.711788 
L 125.293331 255.885324 
L 124.965992 258.671485 
L 124.729495 260.736453 
L 124.350707 263.989795 
L 123.805222 268.672408 
L 123.593298 270.535785 
L 123.499186 271.356349 
L 122.430042 280.678948 
L 122.383189 281.086928 
L 122.341176 281.435193 
L 122.306908 281.738988 
L 122.0422 284.028609 
L 121.778747 286.311947 
L 121.379205 289.857665 
L 121.340704 290.198189 
L 120.985039 293.203264 
L 120.593954 296.35403 
L 120.137153 300.433689 
L 119.623661 304.783595 
L 119.178566 308.647674 
L 118.81495 311.804429 
L 119.03777 312.098218 
L 119.822123 314.769651 
L 124.466639 313.406945 
L 131.842978 311.242859 
L 141.089526 308.530274 
L 144.901549 307.412035 
L 144.382021 310.536066 
L 142.624237 321.967654 
L 142.416642 323.674834 
L 142.015127 326.976944 
L 141.964955 327.221637 
L 142.13374 327.421366 
L 144.216246 329.885821 
L 147.366164 333.613616 
L 148.603024 335.077433 
L 148.655792 335.13988 
L 148.704109 335.197072 
L 149.014561 335.564242 
L 149.190549 335.772737 
L 150.530578 337.358573 
L 151.136956 338.076281 
L 159.646232 351.930299 
L 161.911511 354.017466 
L 162.07507 354.168441 
L 161.478451 354.65811 
L 160.761913 355.246314 
L 156.851187 358.45592 
L 157.327942 359.179485 
L 158.181009 360.474415 
L 158.371729 360.763611 
L 158.488016 360.940199 
L 160.700839 364.298875 
L 161.587672 365.644707 
L 162.798938 367.483358 
L 166.243545 372.711749 
L 168.882129 376.091991 
L 169.190936 376.460996 
L 169.760873 377.141799 
L 169.804709 377.290862 
L 169.855691 377.462475 
L 169.95075 377.782634 
L 170.267041 378.554258 
L 170.473516 378.929876 
L 170.614713 379.186798 
L 170.663387 379.27589 
L 171.12815 379.917937 
L 171.574327 380.385442 
L 171.680381 380.511221 
L 172.325287 381.044262 
L 176.068619 383.601977 
L 176.459073 383.869394 
L 179.515659 385.956965 
L 180.064448 386.332221 
L 181.25152 386.880643 
L 183.425442 387.908163 
L 184.03356 388.196393 
L 185.788878 389.491154 
L 187.628258 390.84802 
L 189.419242 392.177053 
L 190.428889 392.913816 
L 192.084588 395.190473 
L 193.894018 397.67846 
L 195.381649 397.134906 
L 197.206806 398.447244 
L 199.830862 400.334033 
L 209.87729 395.302986 
L 211.412381 394.516761 
L 211.112603 393.932471 
L 216.614324 391.111013 
L 216.672054 391.064355 
L 216.737573 391.02964 
L 216.808624 391.008325 
L 216.882288 391.000859 
L 216.95616 391.007811 
L 217.027178 391.028869 
L 217.092903 391.063196 
L 217.150887 391.109574 
L 217.198924 391.166139 
L 217.235185 391.230892 
L 217.258471 391.301564 
L 217.267695 391.375245 
L 217.087723 392.44974 
L 215.611115 401.262259 
L 215.436706 402.400566 
L 215.437538 402.452747 
L 215.293015 403.217554 
L 214.996769 405.050582 
L 214.946122 407.492397 
L 214.893505 408.760335 
L 214.812589 413.425373 
L 214.797407 414.299597 
L 214.794442 414.478601 
L 214.766703 416.07728 
L 214.733816 417.569511 
L 214.685799 419.735716 
L 214.638906 421.857224 
L 214.625654 422.586679 
L 214.612864 423.184016 
L 214.624308 423.440664 
L 214.566331 427.159825 
L 214.502967 428.414486 
L 214.158351 429.918728 
L 215.118847 429.596983 
L 217.056848 426.986225 
L 217.286364 426.805372 
L 217.289152 426.268375 
L 217.350502 426.344667 
L 217.797178 426.946074 
L 218.186458 426.940548 
L 218.391595 426.745971 
L 218.597777 426.552517 
L 218.804873 426.360063 
L 219.040179 426.159931 
L 219.277192 425.962055 
L 219.516167 425.766432 
L 229.380192 418.084403 
L 231.75018 416.238943 
L 233.93474 414.537574 
L 234.526978 414.056627 
L 237.060397 412.005975 
L 237.10264 412.070845 
L 239.865704 416.285462 
L 238.544889 417.28588 
L 239.994581 419.494723 
L 241.307283 421.495031 
L 242.020154 424.230693 
L 242.916368 427.669903 
L 243.838939 429.793674 
L 244.20631 430.483054 
L 245.301625 432.536988 
L 249.226708 439.898134 
L 250.47733 442.243484 
L 250.716022 442.112331 
L 253.329958 444.369353 
L 252.38524 445.403984 
L 254.219454 447.1004 
L 255.154464 449.170677 
L 255.708335 450.181085 
L 256.516148 454.259367 
L 256.799837 456.145476 
L 256.862903 456.565051 
L 257.200377 458.679255 
L 259.227502 464.52548 
L 258.276903 465.31111 
L 258.043419 465.507356 
L 257.801017 465.692324 
L 257.550205 465.865875 
L 257.291602 466.027354 
L 257.025839 466.176493 
L 256.753293 466.313027 
L 256.47472 466.436684 
L 256.19062 466.54707 
L 255.901754 466.644037 
L 255.608625 466.727321 
L 256.062758 468.58074 
L 257.987746 472.586778 
L 259.545945 475.827816 
L 260.466072 477.741977 
L 261.0477 478.951863 
L 262.948536 482.006629 
L 264.179606 483.997656 
L 264.361754 484.365575 
L 265.741063 487.266585 
L 266.84865 489.581861 
L 267.626216 491.201214 
L 269.821587 495.74226 
L 271.658538 499.603872 
L 272.771261 501.928484 
L 273.872468 504.228861 
L 276.349514 509.471961 
L 277.394533 511.644621 
L 279.229677 511.741257 
L 280.668524 511.817028 
L 282.873871 509.862002 
L 283.597889 509.225647 
L 284.151102 509.859975 
L 288.560057 514.916758 
L 289.492547 515.831218 
L 289.946122 516.274513 
L 292.481909 518.760437 
L 296.026191 522.234885 
L 303.776204 529.832646 
L 304.90921 530.944121 
L 305.715613 531.735204 
L 306.291735 531.208446 
L 307.592823 530.077457 
L 308.156044 529.587809 
L 309.37625 528.541506 
L 310.04792 527.965564 
L 310.716565 527.392219 
L 311.256435 526.968032 
L 311.92691 526.441229 
L 312.508495 526.003478 
L 313.146924 525.522944 
L 313.334103 525.395392 
L 313.699261 525.146623 
L 314.087731 524.881973 
L 314.757362 524.377302 
L 315.419655 523.878162 
L 316.066853 523.390401 
L 316.773673 522.857708 
L 317.375534 522.448322 
L 318.08322 521.966955 
L 319.385168 521.081377 
L 320.336572 520.457782 
L 320.466698 520.377036 
L 322.722122 518.999399 
L 321.962405 518.068372 
L 325.116715 516.062756 
L 327.665989 514.47807 
L 328.69408 513.922649 
L 333.037261 511.437691 
L 336.74213 509.658159 
L 339.529751 508.455219 
L 341.371224 507.740829 
L 343.647556 506.857725 
L 344.494376 506.443859 
L 344.652586 506.366424 
L 344.730372 506.328502 
L 345.345096 506.027988 
L 345.652842 505.690046 
L 346.293996 506.221565 
L 346.168667 505.836863 
L 347.352269 505.422472 
L 347.829798 505.255192 
L 347.795206 505.112795 
L 347.877722 505.086762 
L 348.246301 504.969356 
L 348.615419 504.853215 
L 348.984824 504.738471 
L 349.63717 504.545956 
L 350.29022 504.356362 
L 350.944228 504.169681 
L 351.568595 504.005767 
L 352.194095 503.846805 
L 352.820984 503.692916 
L 353.449007 503.54398 
L 353.655065 503.493645 
L 353.8614 503.444324 
L 354.068014 503.396019 
L 354.729831 503.233283 
L 355.392639 503.074864 
L 356.056565 502.920759 
L 356.261413 502.873133 
L 356.466406 502.82627 
L 356.671674 502.780293 
L 357.106404 502.545092 
L 357.239824 502.667844 
L 361.074168 501.879553 
L 363.231003 501.553831 
L 367.810039 500.923326 
L 369.688904 500.609161 
L 369.718381 500.651107 
L 369.812548 500.64459 
L 371.698842 500.514937 
L 371.798495 500.287624 
L 377.021502 499.929328 
L 377.452426 499.915664 
L 378.793402 499.873048 
L 381.584604 499.734121 
L 383.051483 500.594889 
L 383.230368 500.298104 
L 383.370154 500.404506 
L 383.714985 499.823871 
L 386.06262 499.718954 
L 388.23952 499.767059 
L 389.812357 499.855161 
L 391.433612 499.96206 
L 399.863549 500.68454 
L 402.677592 500.997238 
L 403.019961 501.023923 
L 404.875239 501.128774 
L 405.179944 501.178154 
L 405.230447 501.210172 
L 405.261584 501.04175 
L 406.831023 501.553316 
L 410.30438 501.910055 
L 418.98551 502.826227 
L 419.060118 502.732742 
L 424.331929 503.015302 
L 426.328612 503.159203 
L 427.31181 503.111917 
L 428.282092 503.000861 
L 428.759345 502.853815 
L 429.247882 502.738161 
L 429.775755 502.728298 
L 430.833263 503.084959 
L 431.899339 503.444511 
L 431.977901 503.345705 
L 432.269811 503.475671 
L 432.608013 503.62614 
L 443.471615 504.998689 
L 446.361291 505.45904 
L 451.529552 506.001765 
L 452.397703 505.988689 
L 453.850495 506.171734 
L 459.568479 506.40834 
L 460.679691 506.454395 
L 461.68299 506.495913 
L 467.486091 507.059915 
L 468.197889 507.167233 
L 469.029747 507.292724 
L 469.451613 507.356291 
L 470.647741 507.587133 
L 472.407859 508.05211 
L 473.315512 508.29188 
L 476.600372 509.159617 
L 481.418633 510.497705 
L 481.758626 510.576816 
L 482.246714 510.608624 
L 483.330217 510.679094 
L 483.743014 510.802736 
L 485.028694 511.187894 
L 485.039847 511.191339 
L 485.051123 511.194654 
L 485.062272 511.197972 
L 485.850263 511.50432 
L 486.641008 511.803075 
L 487.434637 512.094363 
L 487.837995 512.239538 
L 488.241833 512.383426 
L 488.646023 512.52603 
L 489.187135 512.717438 
L 489.72993 512.904468 
L 490.274027 513.087257 
L 492.133122 513.841649 
L 492.954288 514.336006 
L 493.806921 514.753576 
L 495.452549 515.150411 
L 496.509062 515.405179 
L 500.702064 516.800636 
L 501.453884 517.050783 
L 504.727139 518.37367 
L 505.756682 518.79703 
L 508.464842 519.74209 
L 509.36118 519.922314 
L 510.233273 520.230926 
L 510.270672 520.24416 
L 510.987914 520.496514 
L 510.370192 521.27158 
L 510.99176 521.676599 
L 511.676522 521.9113 
L 512.862609 522.317832 
L 514.804012 522.983364 
L 514.962784 522.762251 
L 515.270582 522.333521 
L 515.928764 522.564679 
L 515.93174 522.565724 
L 517.937948 523.23795 
L 518.857972 523.5029 
L 520.779762 524.056587 
L 529.134513 526.463644 
L 531.051544 527.01594 
L 534.40693 528.211263 
L 543.222729 530.978084 
L 545.502527 531.639168 
L 547.868549 532.325347 
L 548.111081 532.395617 
L 548.225623 532.428864 
L 548.828662 532.585725 
L 549.36453 532.682467 
L 550.814821 532.944295 
L 550.842389 532.387337 
L 551.364644 532.68031 
L 552.288585 533.208643 
L 552.311033 533.22753 
L 554.573822 533.925026 
L 557.254897 534.726058 
L 560.285574 535.498191 
L 560.757316 535.618368 
L 564.565404 536.548265 
L 566.875601 536.957944 
L 568.963558 537.075331 
L 570.993302 537.100884 
L 572.570027 536.989876 
L 574.188227 536.967904 
L 575.933696 536.92874 
L 580.281713 536.592225 
L 585.382295 535.906377 
L 590.23084 534.752431 
L 590.198441 535.277463 
L 592.56693 534.569425 
L 595.41064 533.584472 
L 597.911665 532.568534 
L 603.223849 530.022057 
L 603.532961 529.873866 
L 608.408645 526.799418 
L 608.473626 526.751866 
L 612.145874 524.062949 
L 617.551906 519.097835 
L 619.412292 517.389239 
L 620.364843 516.493466 
L 621.278889 515.634051 
L 622.636364 514.357045 
L 622.411921 513.617312 
L 622.017078 512.315808 
L 620.350724 506.781852 
L 617.693373 498.87512 
L 614.891504 490.732894 
L 613.467813 487.57586 
L 611.794633 482.888763 
L 611.657913 482.505544 
L 612.434888 482.044751 
L 612.363981 481.931882 
L 612.04708 481.427431 
L 611.78111 481.00181 
L 611.284383 480.206919 
L 611.114532 479.687128 
L 610.773497 478.644894 
L 610.230289 478.298616 
L 609.474113 475.375154 
L 608.817254 473.555963 
L 607.309545 469.372433 
L 605.86632 464.731938 
L 603.701107 457.888562 
L 603.589178 457.53822 
L 601.088516 450.105447 
L 600.773408 449.175323 
L 599.562583 445.841562 
L 597.388289 441.739596 
L 596.695885 439.585056 
L 595.241729 435.148655 
L 593.390425 429.601499 
L 593.030137 428.52117 
L 591.466775 425.172097 
L 591.300057 424.797606 
L 590.15719 423.012222 
L 589.506058 421.018199 
L 589.019508 419.512304 
L 588.850333 418.512751 
L 588.514401 417.114716 
L 586.595229 411.498931 
L 584.109569 404.795785 
L 583.947224 404.929026 
L 581.560298 398.809833 
L 579.916661 394.413904 
L 578.298576 390.090401 
L 578.601366 388.369719 
L 575.224101 380.094655 
L 575.262788 379.213017 
L 573.36992 374.245275 
L 571.624028 369.102017 
L 571.383337 368.369438 
L 571.382076 368.365617 
L 571.017911 367.26231 
L 570.874985 366.826659 
L 569.569646 362.456098 
L 568.446043 357.662777 
L 567.209882 357.52455 
L 563.171278 357.227816 
L 561.041911 357.073739 
L 559.103773 357.099343 
L 558.999153 357.10071 
L 558.407837 357.108592 
L 553.525626 357.202956 
L 551.846148 357.237991 
L 551.71657 353.928256 
L 550.759373 352.161293 
L 549.908258 350.188598 
L 548.842733 347.353063 
L 547.371359 342.20641 
L 544.068404 337.615181 
L 541.006434 336.204423 
L 536.931816 336.883243 
L 532.732085 339.454346 
L 528.115978 341.283404 
L 523.547246 341.859517 
L 523.2387 343.360839 
L 512.386171 341.24281 
L 507.540187 341.155601 
L 507.552811 339.816118 
L 507.559149 338.608618 
L 507.560901 337.400967 
L 507.558072 336.193422 
L 507.550826 334.982021 
L 507.538869 333.770601 
L 507.522458 332.559283 
L 507.41319 324.968468 
L 507.239674 312.906809 
L 501.644113 312.900374 
L 501.142075 312.392054 
L 500.835508 312.376362 
L 500.529509 312.352107 
L 500.224327 312.319027 
L 500.098044 312.30316 
L 499.97198 312.285757 
L 499.846139 312.266944 
L 499.666747 312.233661 
L 499.488051 312.197427 
L 499.30992 312.157989 
L 498.948791 312.077949 
L 498.590564 311.98559 
L 498.235748 311.8809 
L 497.884607 311.764258 
L 497.537772 311.63552 
L 497.419953 311.588829 
L 497.30274 311.540848 
L 497.186005 311.491452 
L 497.03793 311.424524 
L 496.890951 311.355401 
L 496.744938 311.283959 
L 496.526061 311.171943 
L 496.309744 311.05489 
L 496.096118 310.933054 
L 495.885309 310.806303 
L 495.573193 310.608872 
L 495.267968 310.400946 
L 494.970017 310.182643 
L 494.679733 309.954337 
L 494.397247 309.71628 
L 495.784753 307.48749 
L 496.663736 306.073264 
L 496.575186 305.95341 
L 495.926435 305.030988 
L 471.880515 270.978882 
L 470.827769 270.041872 
L 468.79113 268.229145 
L 467.307447 266.479634 
L 464.431009 263.088039 
L 462.286057 260.558871 
L 459.455762 257.221883 
L 457.137111 254.487926 
L 455.913267 253.045156 
L 453.794768 250.818014 
L 450.561501 247.514708 
L 449.391404 246.340647 
L 447.540199 244.48324 
L 446.625023 243.56521 
L 445.274017 242.209876 
L 445.215627 242.151234 
L 444.908446 241.843445 
L 442.360809 239.291192 
L 439.702922 236.624198 
L 437.725163 234.636873 
L 434.799167 231.696694 
L 434.489606 231.385519 
L 432.569749 229.454018 
L 431.565841 228.444028 
L 430.588338 227.46441 
L 429.324813 226.195413 
L 428.953081 225.822113 
L 426.156877 223.020269 
L 424.31874 221.177945 
L 424.260743 221.119934 
L 424.026662 220.885516 
L 423.823887 220.682456 
L 422.516603 219.373339 
L 420.657259 217.51237 
L 420.317741 217.172665 
L 420.243058 217.092322 
L 419.54385 216.394107 
L 419.50877 215.914143 
L 419.311548 213.501298 
L 419.116341 211.082026 
L 418.923987 208.681705 
L 418.730836 206.268895 
L 418.534117 203.850551 
L 418.393651 202.124438 
L 415.877482 204.789101 
L 410.893828 201.093187 
L 409.845935 200.062769 
L 409.718346 199.96897 
L 409.202517 199.588286 
L 408.818199 199.283697 
L 408.556241 198.967225 
L 408.288039 198.656129 
L 408.013469 198.350541 
L 407.732664 198.050713 
L 407.409894 197.720201 
L 407.079651 197.397009 
L 406.742201 197.08164 
L 406.397544 196.774096 
L 405.64663 196.149454 
L 405.614748 196.125302 
L 405.480236 196.024006 
L 405.346636 195.923582 
L 404.835965 195.534869 
L 404.365773 195.184277 
L 404.321462 195.151222 
L 403.803129 194.77277 
L 403.647503 194.661496 
L 403.300258 194.413232 
L 403.273596 194.394575 
L 402.79393 194.058497 
L 402.405255 193.79179 
L 402.28415 193.708692 
L 401.892495 193.445373 
L 401.771171 193.363811 
L 401.810491 193.312618 
L 401.556616 193.15422 
L 400.997881 192.796612 
L 399.181825 191.634232 
L 396.782734 190.099116 
L 396.594363 190.397263 
L 396.528484 190.500758 
L 394.360595 193.921829 
L 393.170679 195.805643 
L 391.605579 197.837621 
L 390.191223 199.673914 
L 388.770583 201.519034 
L 385.929332 205.209412 
L 384.674659 206.861308 
L 384.304861 207.348838 
L 382.871219 206.269052 
L 378.014572 207.297912 
L 375.696263 207.789521 
L 375.104951 207.914354 
L 373.361435 208.282541 
L 370.290036 208.935036 
L 367.919575 209.439748 
L 365.924561 209.857549 
L 363.92928 210.280212 
L 361.937793 210.701645 
L 359.871315 211.140135 
L 354.71718 212.231453 
L 351.263317 217.343013 
L 349.786993 219.527854 
L 347.953556 222.245775 
L 347.71138 221.219771 
L 344.213291 219.241666 
L 342.042591 218.014411 
L 339.883496 216.793787 
L 339.634592 217.237445 
L 338.907496 216.824575 
L 338.909953 216.82069 
L 337.64185 216.096314 
L 337.016374 216.26856 
" clip-path="url(#p597a0b73af)" style="fill: #d3d3d3"/>
   </g>
   <g id="matplotlib.axis_1">
    <g id="xtick_1">
     <g id="line2d_1">
      <defs>
       <path id="m336b331b63" d="M 0 0 
L 0 3.5 
" style="stroke: #000000; stroke-width: 0.8"/>
      </defs>
      <g>
       <use xlink:href="#m336b331b63" x="169.505859" y="554.450972" style="stroke: #000000; stroke-width: 0.8"/>
      </g>
     </g>
     <g id="text_1">
      <!-- 13.31 -->
      <g transform="translate(155.191796 569.04941) scale(0.1 -0.1)">
       <defs>
        <path id="DejaVuSans-31" d="M 794 531 
L 1825 531 
L 1825 4091 
L 703 3866 
L 703 4441 
L 1819 4666 
L 2450 4666 
L 2450 531 
L 3481 531 
L 3481 0 
L 794 0 
L 794 531 
z
" transform="scale(0.015625)"/>
        <path id="DejaVuSans-33" d="M 2597 2516 
Q 3050 2419 3304 2112 
Q 3559 1806 3559 1356 
Q 3559 666 3084 287 
Q 2609 -91 1734 -91 
Q 1441 -91 1130 -33 
Q 819 25 488 141 
L 488 750 
Q 750 597 1062 519 
Q 1375 441 1716 441 
Q 2309 441 2620 675 
Q 2931 909 2931 1356 
Q 2931 1769 2642 2001 
Q 2353 2234 1838 2234 
L 1294 2234 
L 1294 2753 
L 1863 2753 
Q 2328 2753 2575 2939 
Q 2822 3125 2822 3475 
Q 2822 3834 2567 4026 
Q 2313 4219 1838 4219 
Q 1578 4219 1281 4162 
Q 984 4106 628 3988 
L 628 4550 
Q 988 4650 1302 4700 
Q 1616 4750 1894 4750 
Q 2613 4750 3031 4423 
Q 3450 4097 3450 3541 
Q 3450 3153 3228 2886 
Q 3006 2619 2597 2516 
z
" transform="scale(0.015625)"/>
        <path id="DejaVuSans-2e" d="M 684 794 
L 1344 794 
L 1344 0 
L 684 0 
L 684 794 
z
" transform="scale(0.015625)"/>
       </defs>
       <use xlink:href="#DejaVuSans-31"/>
       <use xlink:href="#DejaVuSans-33" x="63.623047"/>
       <use xlink:href="#DejaVuSans-2e" x="127.246094"/>
       <use xlink:href="#DejaVuSans-33" x="159.033203"/>
       <use xlink:href="#DejaVuSans-31" x="222.65625"/>
      </g>
     </g>
    </g>
    <g id="xtick_2">
     <g id="line2d_2">
      <g>
       <use xlink:href="#m336b331b63" x="256.007469" y="554.450972" style="stroke: #000000; stroke-width: 0.8"/>
      </g>
     </g>
     <g id="text_2">
      <!-- 13.32 -->
      <g transform="translate(241.693406 569.04941) scale(0.1 -0.1)">
       <defs>
        <path id="DejaVuSans-32" d="M 1228 531 
L 3431 531 
L 3431 0 
L 469 0 
L 469 531 
Q 828 903 1448 1529 
Q 2069 2156 2228 2338 
Q 2531 2678 2651 2914 
Q 2772 3150 2772 3378 
Q 2772 3750 2511 3984 
Q 2250 4219 1831 4219 
Q 1534 4219 1204 4116 
Q 875 4013 500 3803 
L 500 4441 
Q 881 4594 1212 4672 
Q 1544 4750 1819 4750 
Q 2544 4750 2975 4387 
Q 3406 4025 3406 3419 
Q 3406 3131 3298 2873 
Q 3191 2616 2906 2266 
Q 2828 2175 2409 1742 
Q 1991 1309 1228 531 
z
" transform="scale(0.015625)"/>
       </defs>
       <use xlink:href="#DejaVuSans-31"/>
       <use xlink:href="#DejaVuSans-33" x="63.623047"/>
       <use xlink:href="#DejaVuSans-2e" x="127.246094"/>
       <use xlink:href="#DejaVuSans-33" x="159.033203"/>
       <use xlink:href="#DejaVuSans-32" x="222.65625"/>
      </g>
     </g>
    </g>
    <g id="xtick_3">
     <g id="line2d_3">
      <g>
       <use xlink:href="#m336b331b63" x="342.509079" y="554.450972" style="stroke: #000000; stroke-width: 0.8"/>
      </g>
     </g>
     <g id="text_3">
      <!-- 13.33 -->
      <g transform="translate(328.195016 569.04941) scale(0.1 -0.1)">
       <use xlink:href="#DejaVuSans-31"/>
       <use xlink:href="#DejaVuSans-33" x="63.623047"/>
       <use xlink:href="#DejaVuSans-2e" x="127.246094"/>
       <use xlink:href="#DejaVuSans-33" x="159.033203"/>
       <use xlink:href="#DejaVuSans-33" x="222.65625"/>
      </g>
     </g>
    </g>
    <g id="xtick_4">
     <g id="line2d_4">
      <g>
       <use xlink:href="#m336b331b63" x="429.010688" y="554.450972" style="stroke: #000000; stroke-width: 0.8"/>
      </g>
     </g>
     <g id="text_4">
      <!-- 13.34 -->
      <g transform="translate(414.696626 569.04941) scale(0.1 -0.1)">
       <defs>
        <path id="DejaVuSans-34" d="M 2419 4116 
L 825 1625 
L 2419 1625 
L 2419 4116 
z
M 2253 4666 
L 3047 4666 
L 3047 1625 
L 3713 1625 
L 3713 1100 
L 3047 1100 
L 3047 0 
L 2419 0 
L 2419 1100 
L 313 1100 
L 313 1709 
L 2253 4666 
z
" transform="scale(0.015625)"/>
       </defs>
       <use xlink:href="#DejaVuSans-31"/>
       <use xlink:href="#DejaVuSans-33" x="63.623047"/>
       <use xlink:href="#DejaVuSans-2e" x="127.246094"/>
       <use xlink:href="#DejaVuSans-33" x="159.033203"/>
       <use xlink:href="#DejaVuSans-34" x="222.65625"/>
      </g>
     </g>
    </g>
    <g id="xtick_5">
     <g id="line2d_5">
      <g>
       <use xlink:href="#m336b331b63" x="515.512298" y="554.450972" style="stroke: #000000; stroke-width: 0.8"/>
      </g>
     </g>
     <g id="text_5">
      <!-- 13.35 -->
      <g transform="translate(501.198236 569.04941) scale(0.1 -0.1)">
       <defs>
        <path id="DejaVuSans-35" d="M 691 4666 
L 3169 4666 
L 3169 4134 
L 1269 4134 
L 1269 2991 
Q 1406 3038 1543 3061 
Q 1681 3084 1819 3084 
Q 2600 3084 3056 2656 
Q 3513 2228 3513 1497 
Q 3513 744 3044 326 
Q 2575 -91 1722 -91 
Q 1428 -91 1123 -41 
Q 819 9 494 109 
L 494 744 
Q 775 591 1075 516 
Q 1375 441 1709 441 
Q 2250 441 2565 725 
Q 2881 1009 2881 1497 
Q 2881 1984 2565 2268 
Q 2250 2553 1709 2553 
Q 1456 2553 1204 2497 
Q 953 2441 691 2322 
L 691 4666 
z
" transform="scale(0.015625)"/>
       </defs>
       <use xlink:href="#DejaVuSans-31"/>
       <use xlink:href="#DejaVuSans-33" x="63.623047"/>
       <use xlink:href="#DejaVuSans-2e" x="127.246094"/>
       <use xlink:href="#DejaVuSans-33" x="159.033203"/>
       <use xlink:href="#DejaVuSans-35" x="222.65625"/>
      </g>
     </g>
    </g>
    <g id="xtick_6">
     <g id="line2d_6">
      <g>
       <use xlink:href="#m336b331b63" x="602.013908" y="554.450972" style="stroke: #000000; stroke-width: 0.8"/>
      </g>
     </g>
     <g id="text_6">
      <!-- 13.36 -->
      <g transform="translate(587.699846 569.04941) scale(0.1 -0.1)">
       <defs>
        <path id="DejaVuSans-36" d="M 2113 2584 
Q 1688 2584 1439 2293 
Q 1191 2003 1191 1497 
Q 1191 994 1439 701 
Q 1688 409 2113 409 
Q 2538 409 2786 701 
Q 3034 994 3034 1497 
Q 3034 2003 2786 2293 
Q 2538 2584 2113 2584 
z
M 3366 4563 
L 3366 3988 
Q 3128 4100 2886 4159 
Q 2644 4219 2406 4219 
Q 1781 4219 1451 3797 
Q 1122 3375 1075 2522 
Q 1259 2794 1537 2939 
Q 1816 3084 2150 3084 
Q 2853 3084 3261 2657 
Q 3669 2231 3669 1497 
Q 3669 778 3244 343 
Q 2819 -91 2113 -91 
Q 1303 -91 875 529 
Q 447 1150 447 2328 
Q 447 3434 972 4092 
Q 1497 4750 2381 4750 
Q 2619 4750 2861 4703 
Q 3103 4656 3366 4563 
z
" transform="scale(0.015625)"/>
       </defs>
       <use xlink:href="#DejaVuSans-31"/>
       <use xlink:href="#DejaVuSans-33" x="63.623047"/>
       <use xlink:href="#DejaVuSans-2e" x="127.246094"/>
       <use xlink:href="#DejaVuSans-33" x="159.033203"/>
       <use xlink:href="#DejaVuSans-36" x="222.65625"/>
      </g>
     </g>
    </g>
   </g>
   <g id="matplotlib.axis_2">
    <g id="ytick_1">
     <g id="line2d_7">
      <defs>
       <path id="m94d67c0db7" d="M 0 0 
L -3.5 0 
" style="stroke: #000000; stroke-width: 0.8"/>
      </defs>
      <g>
       <use xlink:href="#m94d67c0db7" x="90" y="508.294606" style="stroke: #000000; stroke-width: 0.8"/>
      </g>
     </g>
     <g id="text_7">
      <!-- 52.445 -->
      <g transform="translate(48.009375 512.093825) scale(0.1 -0.1)">
       <use xlink:href="#DejaVuSans-35"/>
       <use xlink:href="#DejaVuSans-32" x="63.623047"/>
       <use xlink:href="#DejaVuSans-2e" x="127.246094"/>
       <use xlink:href="#DejaVuSans-34" x="159.033203"/>
       <use xlink:href="#DejaVuSans-34" x="222.65625"/>
       <use xlink:href="#DejaVuSans-35" x="286.279297"/>
      </g>
     </g>
    </g>
    <g id="ytick_2">
     <g id="line2d_8">
      <g>
       <use xlink:href="#m94d67c0db7" x="90" y="437.321241" style="stroke: #000000; stroke-width: 0.8"/>
      </g>
     </g>
     <g id="text_8">
      <!-- 52.450 -->
      <g transform="translate(48.009375 441.12046) scale(0.1 -0.1)">
       <defs>
        <path id="DejaVuSans-30" d="M 2034 4250 
Q 1547 4250 1301 3770 
Q 1056 3291 1056 2328 
Q 1056 1369 1301 889 
Q 1547 409 2034 409 
Q 2525 409 2770 889 
Q 3016 1369 3016 2328 
Q 3016 3291 2770 3770 
Q 2525 4250 2034 4250 
z
M 2034 4750 
Q 2819 4750 3233 4129 
Q 3647 3509 3647 2328 
Q 3647 1150 3233 529 
Q 2819 -91 2034 -91 
Q 1250 -91 836 529 
Q 422 1150 422 2328 
Q 422 3509 836 4129 
Q 1250 4750 2034 4750 
z
" transform="scale(0.015625)"/>
       </defs>
       <use xlink:href="#DejaVuSans-35"/>
       <use xlink:href="#DejaVuSans-32" x="63.623047"/>
       <use xlink:href="#DejaVuSans-2e" x="127.246094"/>
       <use xlink:href="#DejaVuSans-34" x="159.033203"/>
       <use xlink:href="#DejaVuSans-35" x="222.65625"/>
       <use xlink:href="#DejaVuSans-30" x="286.279297"/>
      </g>
     </g>
    </g>
    <g id="ytick_3">
     <g id="line2d_9">
      <g>
       <use xlink:href="#m94d67c0db7" x="90" y="366.347876" style="stroke: #000000; stroke-width: 0.8"/>
      </g>
     </g>
     <g id="text_9">
      <!-- 52.455 -->
      <g transform="translate(48.009375 370.147095) scale(0.1 -0.1)">
       <use xlink:href="#DejaVuSans-35"/>
       <use xlink:href="#DejaVuSans-32" x="63.623047"/>
       <use xlink:href="#DejaVuSans-2e" x="127.246094"/>
       <use xlink:href="#DejaVuSans-34" x="159.033203"/>
       <use xlink:href="#DejaVuSans-35" x="222.65625"/>
       <use xlink:href="#DejaVuSans-35" x="286.279297"/>
      </g>
     </g>
    </g>
    <g id="ytick_4">
     <g id="line2d_10">
      <g>
       <use xlink:href="#m94d67c0db7" x="90" y="295.374511" style="stroke: #000000; stroke-width: 0.8"/>
      </g>
     </g>
     <g id="text_10">
      <!-- 52.460 -->
      <g transform="translate(48.009375 299.17373) scale(0.1 -0.1)">
       <use xlink:href="#DejaVuSans-35"/>
       <use xlink:href="#DejaVuSans-32" x="63.623047"/>
       <use xlink:href="#DejaVuSans-2e" x="127.246094"/>
       <use xlink:href="#DejaVuSans-34" x="159.033203"/>
       <use xlink:href="#DejaVuSans-36" x="222.65625"/>
       <use xlink:href="#DejaVuSans-30" x="286.279297"/>
      </g>
     </g>
    </g>
    <g id="ytick_5">
     <g id="line2d_11">
      <g>
       <use xlink:href="#m94d67c0db7" x="90" y="224.401146" style="stroke: #000000; stroke-width: 0.8"/>
      </g>
     </g>
     <g id="text_11">
      <!-- 52.465 -->
      <g transform="translate(48.009375 228.200365) scale(0.1 -0.1)">
       <use xlink:href="#DejaVuSans-35"/>
       <use xlink:href="#DejaVuSans-32" x="63.623047"/>
       <use xlink:href="#DejaVuSans-2e" x="127.246094"/>
       <use xlink:href="#DejaVuSans-34" x="159.033203"/>
       <use xlink:href="#DejaVuSans-36" x="222.65625"/>
       <use xlink:href="#DejaVuSans-35" x="286.279297"/>
      </g>
     </g>
    </g>
   </g>
   <g id="LineCollection_1">
    <path d="M 357.745472 482.907434 
L 360.754863 484.938691 
L 362.705474 486.38087 
L 364.030679 487.559028 
L 364.482218 487.960737 
L 364.916456 488.426323 
L 365.741681 489.485245 
L 366.565176 490.686114 
L 367.144737 491.818849 
L 368.582394 495.383132 
L 368.876499 495.659928 
" clip-path="url(#p597a0b73af)" style="fill: none; stroke: #ff0000; stroke-opacity: 0.7; stroke-width: 0.5"/>
    <path d="M 168.676309 364.962476 
L 163.476697 368.685739 
L 156.052264 358.854508 
L 162.022605 354.10639 
L 161.151533 353.329942 
L 162.166197 352.563429 
L 162.769114 352.45413 
L 164.693774 350.466876 
L 164.785466 350.306476 
L 165.199809 350.570497 
L 165.832136 350.975045 
L 166.328655 351.274553 
L 166.750783 351.5769 
L 166.535394 351.960156 
L 166.726562 352.092166 
L 167.172911 354.148974 
L 170.788678 358.972324 
L 176.703658 355.38675 
L 177.052259 356.313662 
L 177.214017 360.224294 
L 178.035783 361.287475 
L 177.555699 361.64802 
L 175.548861 363.152655 
L 177.859319 366.299614 
L 176.615426 367.21801 
L 175.768576 367.843995 
L 172.467674 370.245734 
L 168.676309 364.962476 
" clip-path="url(#p597a0b73af)" style="fill: none; stroke: #ff0000; stroke-opacity: 0.7; stroke-width: 0.5"/>
    <path d="M 346.90336 476.258649 
L 337.595787 471.191151 
L 327.431848 465.778722 
L 325.936235 466.21024 
L 324.621411 465.156995 
L 324.348931 465.076085 
L 322.027227 464.340801 
L 321.486592 464.26557 
L 321.088685 464.373449 
L 320.559295 464.90433 
L 317.170162 462.983791 
" clip-path="url(#p597a0b73af)" style="fill: none; stroke: #ff0000; stroke-opacity: 0.7; stroke-width: 0.5"/>
    <path d="M 353.690277 319.46713 
L 353.197218 314.148386 
" clip-path="url(#p597a0b73af)" style="fill: none; stroke: #ff0000; stroke-opacity: 0.7; stroke-width: 0.5"/>
    <path d="M 377.137403 258.650053 
L 377.177194 259.493217 
L 377.218715 260.342058 
L 376.494696 261.338524 
L 365.836833 276.881691 
L 365.387889 277.537485 
" clip-path="url(#p597a0b73af)" style="fill: none; stroke: #ff0000; stroke-opacity: 0.7; stroke-width: 0.5"/>
    <path d="M 146.383114 304.846617 
L 144.989573 305.834566 
L 143.929928 306.257567 
L 133.118957 309.42156 
L 130.555049 310.172458 
L 129.472914 310.488999 
L 124.257732 312.014926 
L 121.48276 312.826862 
L 118.065082 313.827586 
L 117.493306 313.997922 
L 115.363636 314.618229 
" clip-path="url(#p597a0b73af)" style="fill: none; stroke: #ff0000; stroke-opacity: 0.7; stroke-width: 0.5"/>
    <path d="M 355.834652 291.874105 
L 355.374463 292.676104 
L 354.68937 293.895426 
L 353.670381 296.666227 
L 353.026809 299.438446 
L 352.719729 301.066575 
L 352.559701 302.409391 
L 352.485309 304.073007 
" clip-path="url(#p597a0b73af)" style="fill: none; stroke: #ff0000; stroke-opacity: 0.7; stroke-width: 0.5"/>
    <path d="M 365.387889 277.537485 
L 364.975277 278.154953 
L 356.221314 291.259476 
L 355.834652 291.874105 
" clip-path="url(#p597a0b73af)" style="fill: none; stroke: #ff0000; stroke-opacity: 0.7; stroke-width: 0.5"/>
    <path d="M 353.630591 320.643868 
L 353.680762 319.603399 
L 353.690277 319.46713 
" clip-path="url(#p597a0b73af)" style="fill: none; stroke: #ff0000; stroke-opacity: 0.7; stroke-width: 0.5"/>
    <path d="M 348.052967 476.217484 
L 356.230829 481.852769 
" clip-path="url(#p597a0b73af)" style="fill: none; stroke: #ff0000; stroke-opacity: 0.7; stroke-width: 0.5"/>
    <path d="M 356.230829 481.852769 
L 356.31041 481.906709 
L 356.969553 482.368036 
L 357.661566 482.849235 
L 357.745472 482.907434 
" clip-path="url(#p597a0b73af)" style="fill: none; stroke: #ff0000; stroke-opacity: 0.7; stroke-width: 0.5"/>
    <path d="M 347.666305 476.038631 
L 348.052967 476.217484 
" clip-path="url(#p597a0b73af)" style="fill: none; stroke: #ff0000; stroke-opacity: 0.7; stroke-width: 0.5"/>
   </g>
   <g id="patch_3">
    <path d="M 90 554.450972 
L 90 172.749028 
" style="fill: none; stroke: #000000; stroke-width: 0.8; stroke-linejoin: miter; stroke-linecap: square"/>
   </g>
   <g id="patch_4">
    <path d="M 648 554.450972 
L 648 172.749028 
" style="fill: none; stroke: #000000; stroke-width: 0.8; stroke-linejoin: miter; stroke-linecap: square"/>
   </g>
   <g id="patch_5">
    <path d="M 90 554.450972 
L 648 554.450972 
" style="fill: none; stroke: #000000; stroke-width: 0.8; stroke-linejoin: miter; stroke-linecap: square"/>
   </g>
   <g id="patch_6">
    <path d="M 90 172.749028 
L 648 172.749028 
" style="fill: none; stroke: #000000; stroke-width: 0.8; stroke-linejoin: miter; stroke-linecap: square"/>
   </g>
   <g id="text_12">
    <!-- Steglitz -->
    <g transform="translate(341.148181 366.719557) scale(0.12 -0.12)">
     <defs>
      <path id="DejaVuSans-53" d="M 3425 4513 
L 3425 3897 
Q 3066 4069 2747 4153 
Q 2428 4238 2131 4238 
Q 1616 4238 1336 4038 
Q 1056 3838 1056 3469 
Q 1056 3159 1242 3001 
Q 1428 2844 1947 2747 
L 2328 2669 
Q 3034 2534 3370 2195 
Q 3706 1856 3706 1288 
Q 3706 609 3251 259 
Q 2797 -91 1919 -91 
Q 1588 -91 1214 -16 
Q 841 59 441 206 
L 441 856 
Q 825 641 1194 531 
Q 1563 422 1919 422 
Q 2459 422 2753 634 
Q 3047 847 3047 1241 
Q 3047 1584 2836 1778 
Q 2625 1972 2144 2069 
L 1759 2144 
Q 1053 2284 737 2584 
Q 422 2884 422 3419 
Q 422 4038 858 4394 
Q 1294 4750 2059 4750 
Q 2388 4750 2728 4690 
Q 3069 4631 3425 4513 
z
" transform="scale(0.015625)"/>
      <path id="DejaVuSans-74" d="M 1172 4494 
L 1172 3500 
L 2356 3500 
L 2356 3053 
L 1172 3053 
L 1172 1153 
Q 1172 725 1289 603 
Q 1406 481 1766 481 
L 2356 481 
L 2356 0 
L 1766 0 
Q 1100 0 847 248 
Q 594 497 594 1153 
L 594 3053 
L 172 3053 
L 172 3500 
L 594 3500 
L 594 4494 
L 1172 4494 
z
" transform="scale(0.015625)"/>
      <path id="DejaVuSans-65" d="M 3597 1894 
L 3597 1613 
L 953 1613 
Q 991 1019 1311 708 
Q 1631 397 2203 397 
Q 2534 397 2845 478 
Q 3156 559 3463 722 
L 3463 178 
Q 3153 47 2828 -22 
Q 2503 -91 2169 -91 
Q 1331 -91 842 396 
Q 353 884 353 1716 
Q 353 2575 817 3079 
Q 1281 3584 2069 3584 
Q 2775 3584 3186 3129 
Q 3597 2675 3597 1894 
z
M 3022 2063 
Q 3016 2534 2758 2815 
Q 2500 3097 2075 3097 
Q 1594 3097 1305 2825 
Q 1016 2553 972 2059 
L 3022 2063 
z
" transform="scale(0.015625)"/>
      <path id="DejaVuSans-67" d="M 2906 1791 
Q 2906 2416 2648 2759 
Q 2391 3103 1925 3103 
Q 1463 3103 1205 2759 
Q 947 2416 947 1791 
Q 947 1169 1205 825 
Q 1463 481 1925 481 
Q 2391 481 2648 825 
Q 2906 1169 2906 1791 
z
M 3481 434 
Q 3481 -459 3084 -895 
Q 2688 -1331 1869 -1331 
Q 1566 -1331 1297 -1286 
Q 1028 -1241 775 -1147 
L 775 -588 
Q 1028 -725 1275 -790 
Q 1522 -856 1778 -856 
Q 2344 -856 2625 -561 
Q 2906 -266 2906 331 
L 2906 616 
Q 2728 306 2450 153 
Q 2172 0 1784 0 
Q 1141 0 747 490 
Q 353 981 353 1791 
Q 353 2603 747 3093 
Q 1141 3584 1784 3584 
Q 2172 3584 2450 3431 
Q 2728 3278 2906 2969 
L 2906 3500 
L 3481 3500 
L 3481 434 
z
" transform="scale(0.015625)"/>
      <path id="DejaVuSans-6c" d="M 603 4863 
L 1178 4863 
L 1178 0 
L 603 0 
L 603 4863 
z
" transform="scale(0.015625)"/>
      <path id="DejaVuSans-69" d="M 603 3500 
L 1178 3500 
L 1178 0 
L 603 0 
L 603 3500 
z
M 603 4863 
L 1178 4863 
L 1178 4134 
L 603 4134 
L 603 4863 
z
" transform="scale(0.015625)"/>
      <path id="DejaVuSans-7a" d="M 353 3500 
L 3084 3500 
L 3084 2975 
L 922 459 
L 3084 459 
L 3084 0 
L 275 0 
L 275 525 
L 2438 3041 
L 353 3041 
L 353 3500 
z
" transform="scale(0.015625)"/>
     </defs>
     <use xlink:href="#DejaVuSans-53"/>
     <use xlink:href="#DejaVuSans-74" x="63.476562"/>
     <use xlink:href="#DejaVuSans-65" x="102.685547"/>
     <use xlink:href="#DejaVuSans-67" x="164.208984"/>
     <use xlink:href="#DejaVuSans-6c" x="227.685547"/>
     <use xlink:href="#DejaVuSans-69" x="255.46875"/>
     <use xlink:href="#DejaVuSans-74" x="283.251953"/>
     <use xlink:href="#DejaVuSans-7a" x="322.460938"/>
    </g>
   </g>
  </g>
 </g>
 <defs>
  <clipPath id="p597a0b73af">
   <rect x="90" y="172.749028" width="558" height="381.701944"/>
  </clipPath>
 </defs>
</svg>
