<?xml version="1.0" encoding="utf-8" standalone="no"?>
<!DOCTYPE svg PUBLIC "-//W3C//DTD SVG 1.1//EN"
  "http://www.w3.org/Graphics/SVG/1.1/DTD/svg11.dtd">
<svg xmlns:xlink="http://www.w3.org/1999/xlink" width="720pt" height="720pt" viewBox="0 0 720 720" xmlns="http://www.w3.org/2000/svg" version="1.1">
 <metadata>
  <rdf:RDF xmlns:dc="http://purl.org/dc/elements/1.1/" xmlns:cc="http://creativecommons.org/ns#" xmlns:rdf="http://www.w3.org/1999/02/22-rdf-syntax-ns#">
   <cc:Work>
    <dc:type rdf:resource="http://purl.org/dc/dcmitype/StillImage"/>
    <dc:date>2024-10-17T11:36:17.610034</dc:date>
    <dc:format>image/svg+xml</dc:format>
    <dc:creator>
     <cc:Agent>
      <dc:title>Matplotlib v3.9.2, https://matplotlib.org/</dc:title>
     </cc:Agent>
    </dc:creator>
   </cc:Work>
  </rdf:RDF>
 </metadata>
 <defs>
  <style type="text/css">*{stroke-linejoin: round; stroke-linecap: butt}</style>
 </defs>
 <g id="figure_1">
  <g id="patch_1">
   <path d="M 0 720 
L 720 720 
L 720 0 
L 0 0 
z
" style="fill: #ffffff"/>
  </g>
  <g id="axes_1">
   <g id="patch_2">
    <path d="M 90 562.926645 
L 648 562.926645 
L 648 164.273355 
L 90 164.273355 
z
" style="fill: #ffffff"/>
   </g>
   <g id="PatchCollection_1">
    <path d="M 271.388268 215.753525 
L 270.342241 214.979018 
L 268.560863 214.511486 
L 266.751324 214.083561 
L 265.558204 213.779054 
L 263.198218 213.168693 
L 260.713131 212.525683 
L 259.690553 212.26168 
L 258.446607 211.939894 
L 258.119868 213.42703 
L 257.827158 214.790749 
L 259.162434 217.371878 
L 259.74755 218.342172 
L 260.428371 219.469207 
L 261.5949 221.24935 
L 262.432799 222.43888 
L 257.966172 225.124354 
L 253.68961 227.695609 
L 251.810956 228.847889 
L 251.401207 229.099214 
L 251.066069 229.304762 
L 246.50082 232.104679 
L 244.624971 233.166077 
L 238.982839 236.360372 
L 236.086095 237.777216 
L 231.71293 239.913927 
L 231.336728 240.097708 
L 230.291037 240.750928 
L 226.650865 243.031029 
L 220.288642 246.966059 
L 217.24402 249.143497 
L 216.081194 249.975226 
L 215.902574 250.102795 
L 214.320461 251.234431 
L 211.428429 253.302812 
L 209.003256 255.037178 
L 204.928539 257.891062 
L 203.113166 259.209621 
L 201.560561 260.337329 
L 200.903526 260.81451 
L 199.096567 262.126897 
L 197.103471 263.574596 
L 196.008973 264.31679 
L 195.770439 264.478468 
L 191.720293 267.224641 
L 190.329031 268.167895 
L 190.284151 268.198301 
L 188.446001 269.444603 
L 179.27915 275.461478 
L 178.408713 276.032794 
L 178.287202 276.112679 
L 177.471181 276.648203 
L 175.344681 278.583068 
L 174.834514 279.051497 
L 167.992418 285.334059 
L 166.994747 286.250161 
L 156.723413 292.192536 
L 156.18284 292.418953 
L 155.677385 292.630335 
L 152.321973 294.036184 
L 150.375664 294.853326 
L 150.159569 294.944095 
L 149.984988 295.160751 
L 147.887902 296.080376 
L 146.627669 296.633021 
L 145.344117 297.344248 
L 142.732918 298.791161 
L 141.27299 299.600113 
L 140.975664 299.779968 
L 139.984838 300.379445 
L 136.389209 302.387912 
L 134.012393 303.715446 
L 120.82827 311.07949 
L 119.652541 311.246554 
L 118.948382 311.346748 
L 115.363636 315.251035 
L 115.592824 316.408498 
L 115.883453 317.876258 
L 116.022018 318.834883 
L 116.635852 323.08222 
L 116.770495 324.013859 
L 116.630022 324.093745 
L 117.139853 327.722472 
L 117.252612 328.623539 
L 117.294575 328.958901 
L 117.43213 330.057887 
L 117.443574 330.139455 
L 117.481049 330.403122 
L 117.763004 332.394086 
L 118.02308 334.316273 
L 118.066052 334.633907 
L 118.083667 334.76417 
L 118.090175 334.813201 
L 118.128098 335.104693 
L 118.386492 337.085896 
L 118.487704 337.800686 
L 118.667549 339.070802 
L 118.999208 341.513253 
L 119.082011 342.124063 
L 119.368005 344.118842 
L 119.430724 344.549236 
L 119.824092 347.24952 
L 119.901622 347.78179 
L 119.967707 347.781005 
L 120.02605 348.249995 
L 119.965014 348.280064 
L 120.057353 349.038639 
L 120.321805 350.813733 
L 120.5379 352.595672 
L 120.778566 354.344287 
L 121.156451 357.010575 
L 121.262815 357.760062 
L 121.637089 360.359092 
L 121.741679 361.09438 
L 122.039679 363.196534 
L 122.29033 364.962764 
L 122.611891 367.303789 
L 122.619858 367.357532 
L 122.6598 367.627033 
L 122.954209 369.617773 
L 123.320089 372.091752 
L 122.975976 373.238198 
L 123.522047 373.545173 
L 124.107948 373.874701 
L 125.473005 374.56451 
L 125.4752 374.56562 
L 126.943544 375.306018 
L 127.945141 375.811024 
L 130.245661 376.838652 
L 131.47749 377.370361 
L 133.128492 378.099652 
L 135.123272 378.981196 
L 135.283491 379.052667 
L 137.250333 379.923665 
L 137.440622 380.005906 
L 138.493878 380.426669 
L 139.69458 380.766725 
L 142.014398 381.354421 
L 144.375955 381.952665 
L 148.331854 382.95471 
L 150.517844 383.493042 
L 151.880135 383.85387 
L 152.370724 384.010764 
L 152.578235 384.075799 
L 154.532847 384.94545 
L 156.487459 385.81398 
L 158.442071 386.683631 
L 159.303196 387.06578 
L 161.915853 388.196966 
L 163.837478 389.097248 
L 164.94544 389.602254 
L 165.754728 389.971051 
L 168.749085 391.335498 
L 170.450241 392.110791 
L 171.918135 392.779607 
L 172.846691 393.202596 
L 178.487701 395.771495 
L 179.54506 396.253052 
L 181.477682 397.133025 
L 183.748133 398.193975 
L 186.845825 399.643021 
L 187.0084 399.719091 
L 187.822514 400.100006 
L 188.225419 400.288499 
L 193.451967 402.733419 
L 194.656419 403.295422 
L 196.138899 403.987463 
L 198.151743 404.916019 
L 200.186801 405.852316 
L 201.584011 406.49499 
L 203.132576 407.238194 
L 204.28411 407.683393 
L 204.324462 407.698994 
L 205.18985 408.033458 
L 205.266594 408.067342 
L 205.536431 408.186272 
L 205.709778 408.262792 
L 214.305651 412.054095 
L 214.651559 412.206685 
L 218.521402 413.913451 
L 224.699058 417.634181 
L 228.040669 419.648932 
L 228.570808 419.968473 
L 230.893768 421.369049 
L 232.684157 422.449316 
L 235.002315 423.851036 
L 236.841641 424.954917 
L 238.669917 426.057268 
L 239.959896 426.840108 
L 241.191357 427.577447 
L 242.726122 428.502749 
L 244.644718 429.659405 
L 245.965071 430.455566 
L 247.334456 431.281123 
L 248.681961 432.093554 
L 250.598538 433.248975 
L 252.363921 431.182654 
L 254.019586 432.587003 
L 255.514745 433.865058 
L 256.611262 434.801243 
L 258.204482 437.821069 
L 258.267762 437.941009 
L 258.676502 438.228462 
L 260.802553 439.723508 
L 261.099767 439.932534 
L 264.63638 442.413807 
L 265.174148 442.791131 
L 265.186939 442.799995 
L 265.392038 442.940579 
L 266.582128 443.756151 
L 266.768939 443.88417 
L 266.901334 443.974938 
L 267.269233 444.216839 
L 269.898495 446.08416 
L 271.835829 447.459827 
L 272.499932 447.925676 
L 272.907326 448.211558 
L 273.962105 448.951508 
L 274.412694 449.267572 
L 275.533446 450.053747 
L 275.563179 450.074616 
L 276.051804 450.419066 
L 276.225824 450.541811 
L 276.895425 451.013943 
L 280.198665 453.342738 
L 282.052635 454.649964 
L 282.372738 454.875595 
L 284.960486 456.594366 
L 284.989097 456.61344 
L 285.055855 456.657758 
L 285.360811 456.860164 
L 285.508464 456.958226 
L 286.183788 457.406572 
L 286.601167 457.683702 
L 287.849713 458.512626 
L 288.395111 458.87469 
L 288.817426 459.155187 
L 292.754027 461.768742 
L 293.083442 461.987529 
L 293.952308 462.564454 
L 294.287558 462.787056 
L 294.663647 463.036698 
L 296.412936 464.197505 
L 298.227524 465.789491 
L 298.561539 466.070212 
L 298.731857 466.213265 
L 299.216779 466.620771 
L 299.674662 467.0055 
L 299.997121 467.276347 
L 301.101267 466.687753 
L 301.647787 466.396486 
L 301.740799 466.346894 
L 303.696758 465.304344 
L 305.429666 464.380501 
L 305.872962 464.144211 
L 306.359343 463.884808 
L 306.804435 463.64762 
L 306.976772 463.959195 
L 307.575689 465.042473 
L 307.982521 465.778159 
L 308.213987 466.196772 
L 308.28613 466.327035 
L 308.864065 467.372389 
L 311.249296 466.132707 
L 312.011124 467.561893 
L 312.399332 468.290286 
L 313.64339 470.624354 
L 314.266429 471.793015 
L 314.743049 472.687238 
L 314.99112 473.15275 
L 315.170189 473.48856 
L 315.261855 473.660673 
L 310.916739 478.197761 
L 313.704202 480.195008 
L 330.094737 491.924701 
L 331.284491 492.793567 
L 332.372481 493.588157 
L 333.218571 494.201211 
L 348.456265 505.261077 
L 350.513202 506.783388 
L 351.298256 507.362109 
L 355.648084 510.611829 
L 364.087888 516.917167 
L 365.335649 517.807688 
L 365.607843 518.001903 
L 367.023341 519.067117 
L 368.358504 520.07208 
L 369.592801 521.00086 
L 371.002016 522.061474 
L 371.282961 522.272856 
L 372.324501 523.014601 
L 372.683088 523.269965 
L 375.480199 525.264071 
L 375.747008 525.45436 
L 378.541539 527.44712 
L 380.541367 528.873276 
L 380.739173 529.01431 
L 389.706872 535.451369 
L 389.798089 535.516893 
L 390.866669 536.283883 
L 391.147502 536.485504 
L 391.196196 536.520734 
L 392.248619 537.283012 
L 393.080236 537.885069 
L 394.104048 538.62659 
L 395.196189 539.417478 
L 395.889577 539.919567 
L 396.617858 540.447013 
L 397.655471 541.198519 
L 398.743461 541.986153 
L 399.683797 542.651828 
L 400.67698 543.355089 
L 401.351406 543.832606 
L 402.651002 544.752859 
L 402.726175 544.806041 
L 403.409801 543.974874 
L 403.750549 543.560524 
L 405.315271 541.658421 
L 405.76687 541.109658 
L 406.513664 540.201746 
L 406.975473 539.640417 
L 407.176533 539.395824 
L 408.088372 538.287301 
L 408.294593 538.036537 
L 408.537054 537.741792 
L 409.64883 536.390359 
L 409.888486 536.099092 
L 411.077679 534.6533 
L 411.364347 534.304811 
L 411.76411 533.818767 
L 413.40782 531.820622 
L 413.73185 531.424897 
L 414.43354 530.567812 
L 414.822084 530.093324 
L 416.825166 527.646945 
L 417.263526 527.111309 
L 417.428233 526.910137 
L 419.670298 524.171818 
L 419.848245 523.954489 
L 420.124366 523.617108 
L 420.425171 523.249882 
L 420.743029 522.861562 
L 422.499611 520.716212 
L 421.919207 517.807127 
L 421.083328 513.797709 
L 420.94207 513.120254 
L 420.848833 512.672806 
L 420.685247 511.887864 
L 420.677169 511.849268 
L 420.615908 511.532195 
L 420.054354 508.628382 
L 417.894419 498.21635 
L 415.246531 485.111103 
L 414.24628 480.210155 
L 413.481984 476.331449 
L 410.976476 464.016304 
L 408.130334 450.04062 
L 408.085567 449.788734 
L 407.933201 448.991675 
L 407.75402 448.094086 
L 407.721931 447.948116 
L 407.378827 446.25919 
L 406.97682 444.262391 
L 406.804819 443.578653 
L 406.569763 442.550801 
L 406.147335 440.399056 
L 406.026273 439.842327 
L 405.829813 438.938903 
L 404.617395 433.363866 
L 404.482196 432.665206 
L 403.931301 429.82041 
L 403.717001 428.714243 
L 403.446042 427.314229 
L 403.387586 427.012751 
L 403.037751 425.261443 
L 403.323969 424.936404 
L 403.451988 424.790994 
L 404.559837 423.532911 
L 404.828329 423.228068 
L 405.732874 422.200889 
L 406.405056 422.305795 
L 413.71861 423.447304 
L 414.072373 424.166385 
L 414.555612 423.515184 
L 414.934843 423.806115 
L 420.286044 427.911575 
L 420.484299 428.063716 
L 422.161332 429.350297 
L 424.690401 429.77093 
L 425.099141 429.83881 
L 436.25101 430.384432 
L 438.304357 430.503363 
L 438.418463 430.509982 
L 441.72361 430.664368 
L 441.731642 430.664755 
L 444.522853 430.799343 
L 445.798664 430.831544 
L 446.139972 430.840183 
L 448.267706 430.893702 
L 450.443238 431.011959 
L 452.480316 431.122699 
L 454.057492 431.208307 
L 454.391731 431.226483 
L 457.864054 431.415201 
L 461.25335 431.599431 
L 461.635835 431.620188 
L 475.3115 432.363279 
L 479.846456 432.597325 
L 487.511866 432.99305 
L 492.517046 433.345915 
L 498.965662 433.832183 
L 503.286767 429.047025 
L 505.309484 426.806979 
L 504.437813 425.392716 
L 503.656237 423.891722 
L 502.907311 422.385232 
L 502.750794 422.06367 
L 502.273277 420.863818 
L 501.666843 419.279798 
L 501.109441 417.659314 
L 500.674783 416.0404 
L 500.285117 414.453799 
L 497.655855 412.309684 
L 497.608619 412.271087 
L 497.11876 411.871772 
L 497.628927 411.242226 
L 500.286576 407.962997 
L 502.791186 409.904931 
L 504.135886 408.277826 
L 505.003742 408.936881 
L 504.992747 410.178359 
L 514.400938 410.045067 
L 515.00984 409.953625 
L 515.593497 409.827626 
L 516.15247 409.638571 
L 516.674194 409.44615 
L 517.196254 409.233646 
L 517.655932 408.997468 
L 518.165201 408.679273 
L 518.634528 408.357599 
L 519.121021 408.033233 
L 519.58025 407.614508 
L 519.982931 407.166274 
L 523.056724 403.669268 
L 523.391862 403.268046 
L 529.7248 395.687234 
L 530.136906 395.193897 
L 530.439506 394.831607 
L 531.683452 393.428227 
L 531.835369 393.251178 
L 532.182623 392.846477 
L 533.184108 391.677255 
L 534.472036 390.173794 
L 541.048446 382.564035 
L 541.411408 382.143963 
L 543.641132 379.563956 
L 543.941375 379.216477 
L 546.068998 376.786591 
L 546.560203 376.865243 
L 547.034467 377.034438 
L 547.218024 376.821485 
L 548.220855 375.671337 
L 548.793853 375.004653 
L 549.46682 374.327085 
L 549.489597 374.338866 
L 551.596462 374.965159 
L 555.5334 376.135615 
L 567.313806 379.637895 
L 568.667146 380.040239 
L 568.871908 380.099929 
L 570.70658 380.635453 
L 581.486062 383.781726 
L 583.087361 384.396238 
L 593.026026 388.210542 
L 598.114907 390.174916 
L 604.786012 392.749986 
L 607.153291 393.663844 
L 607.755349 393.89632 
L 608.087905 394.024563 
L 609.575659 394.598907 
L 612.171599 395.626759 
L 612.280095 395.788325 
L 613.117096 393.00075 
L 613.704119 391.045801 
L 614.467407 388.504278 
L 615.071708 386.491996 
L 615.457447 385.206985 
L 616.183148 382.786749 
L 616.732472 380.954994 
L 616.837827 380.603588 
L 617.314222 379.044028 
L 618.4674 375.269329 
L 619.280952 372.606407 
L 620.56686 368.307069 
L 621.642957 363.937718 
L 622.204511 360.743535 
L 622.543575 357.542172 
L 622.636364 354.241401 
L 622.570615 350.778727 
L 622.371463 348.082482 
L 622.29427 347.038362 
L 621.760878 343.317744 
L 620.985024 339.848338 
L 619.975012 336.381625 
L 618.72972 333.020603 
L 617.428328 330.074829 
L 617.289202 329.759999 
L 617.169037 329.527524 
L 615.629672 326.548987 
L 614.728268 324.984265 
L 614.394478 324.405096 
L 611.438717 319.274477 
L 608.140975 313.474258 
L 607.493814 312.321193 
L 607.222966 311.838626 
L 603.725735 305.660858 
L 599.529395 298.252944 
L 598.699798 296.668476 
L 598.581429 296.442508 
L 598.544446 296.371909 
L 598.448361 296.18849 
L 598.398994 296.091887 
L 597.7451 294.812823 
L 597.015809 293.51446 
L 595.886867 291.473231 
L 595.19505 290.274613 
L 594.991634 289.888313 
L 594.635179 289.319242 
L 593.533164 287.240426 
L 593.127454 286.564766 
L 592.284618 285.21008 
L 592.148409 285.033367 
L 591.911894 284.734806 
L 590.829177 282.973176 
L 589.158764 280.917473 
L 587.506303 279.178843 
L 587.254754 278.938177 
L 585.271419 277.128862 
L 583.133699 275.528349 
L 582.890115 275.372841 
L 582.502469 275.125219 
L 582.010927 274.811399 
L 581.77733 274.654658 
L 580.908912 274.072011 
L 579.491171 273.301767 
L 577.609375 272.313185 
L 577.140497 272.067021 
L 575.988666 271.461934 
L 572.613395 269.689645 
L 572.408296 269.581934 
L 571.872323 269.300428 
L 569.262584 267.94462 
L 567.819261 267.194796 
L 566.450101 266.483457 
L 562.990793 264.686147 
L 560.710805 263.579308 
L 558.359234 262.64503 
L 555.939447 261.98059 
L 553.385469 261.327818 
L 550.10725 260.706014 
L 549.920103 260.670447 
L 546.395159 260.001855 
L 545.195195 257.550652 
L 544.862862 256.87185 
L 544.949143 256.548157 
L 545.44652 253.90588 
L 546.00123 250.957973 
L 546.577257 250.502783 
L 547.061843 250.11985 
L 547.67254 249.595097 
L 548.12672 249.20487 
L 548.852196 244.989568 
L 549.326011 242.601981 
L 549.784791 240.154929 
L 550.422416 236.76137 
L 550.647599 235.784681 
L 551.001137 233.82042 
L 551.404266 231.808699 
L 551.780917 229.710809 
L 552.179895 227.630534 
L 551.794381 227.548854 
L 551.05028 227.391215 
L 550.496243 227.273855 
L 549.911688 227.16289 
L 545.255445 226.187323 
L 544.00185 225.924666 
L 543.479005 225.815048 
L 541.737682 225.450291 
L 539.965505 225.079026 
L 538.222612 224.713707 
L 536.408697 224.33369 
L 535.394084 224.121074 
L 534.67893 223.971737 
L 534.034237 223.834967 
L 533.344103 223.713232 
L 532.883192 223.631776 
L 530.606233 223.131257 
L 528.895765 222.759319 
L 528.602141 222.691551 
L 528.503182 222.668775 
L 527.032034 222.355516 
L 526.412809 222.223683 
L 524.25523 221.747512 
L 523.277531 221.535793 
L 522.296915 221.319586 
L 521.438484 221.13042 
L 520.416579 220.906359 
L 518.449625 220.470018 
L 516.780895 220.099875 
L 516.638402 220.07003 
L 516.184896 219.97511 
L 514.214576 219.56278 
L 513.271771 219.365535 
L 512.597569 219.224389 
L 508.129259 218.289326 
L 503.294621 217.277407 
L 503.109718 217.238698 
L 502.171961 217.042463 
L 501.105065 216.819188 
L 500.208822 216.631592 
L 496.773076 215.912623 
L 493.84099 215.298896 
L 489.814855 214.456397 
L 485.302338 213.735521 
L 482.999686 213.367622 
L 481.408597 213.090715 
L 481.146389 213.045163 
L 480.641159 212.985697 
L 479.941937 212.872601 
L 479.727862 212.83782 
L 479.209168 212.753783 
L 478.917564 212.70666 
L 476.428437 212.303642 
L 475.893699 212.217025 
L 475.464203 212.18718 
L 473.978244 212.083621 
L 471.04324 211.418956 
L 468.227167 210.689328 
L 463.68043 209.77289 
L 462.701946 209.575757 
L 455.44494 208.113136 
L 454.357174 207.8939 
L 453.507943 207.723919 
L 449.197945 206.867507 
L 445.972235 206.237512 
L 445.851397 206.215408 
L 442.126852 205.450438 
L 441.774099 205.377958 
L 440.395739 205.094769 
L 439.842712 204.979429 
L 439.550996 204.918617 
L 438.479087 204.696413 
L 437.290755 204.450075 
L 437.188429 204.42786 
L 436.530609 204.284358 
L 436.464187 204.269884 
L 432.620824 203.438493 
L 432.072397 203.319787 
L 431.753416 203.250784 
L 431.368126 203.167645 
L 431.321227 203.157435 
L 430.946259 203.076428 
L 429.660912 202.798961 
L 427.755555 202.387528 
L 426.449675 202.105349 
L 423.07519 201.376619 
L 422.994407 201.359116 
L 422.305844 201.210453 
L 419.59535 200.625 
L 419.046923 200.506631 
L 418.985775 200.493391 
L 414.595218 199.545088 
L 413.767305 199.365234 
L 412.781864 199.149027 
L 411.732919 198.918796 
L 410.730088 198.698774 
L 409.660835 198.464279 
L 409.633683 198.45822 
L 407.123351 197.907437 
L 406.67063 197.808029 
L 405.28666 197.50442 
L 387.730381 193.652417 
L 387.213707 193.539096 
L 386.943644 193.479856 
L 386.712964 193.429254 
L 385.791769 193.226361 
L 385.607022 193.185671 
L 385.387337 193.164802 
L 384.919245 193.120596 
L 384.335139 193.065394 
L 384.078428 193.002899 
L 383.185664 192.788936 
L 381.680968 192.42833 
L 380.113554 192.052689 
L 378.556573 191.679629 
L 376.967729 191.298939 
L 375.374172 190.917015 
L 373.707013 190.502777 
L 373.087564 190.348841 
L 372.187955 190.125229 
L 370.572856 189.723782 
L 370.367645 189.672844 
L 368.967855 189.324916 
L 367.507927 188.962066 
L 367.204429 188.886781 
L 365.420471 188.443372 
L 363.688013 188.012866 
L 363.133751 187.875086 
L 361.909103 187.570691 
L 361.092859 187.367836 
L 360.681651 187.265623 
L 359.46351 187.0088 
L 358.751386 186.858566 
L 357.951522 186.68982 
L 356.597172 186.404274 
L 354.9768 186.062405 
L 354.389664 185.93865 
L 353.289108 185.706511 
L 352.54467 185.549545 
L 351.592216 185.348597 
L 350.517466 185.121956 
L 349.977341 185.008075 
L 348.681335 184.734759 
L 348.296718 184.653639 
L 348.241629 184.64197 
L 347.876647 184.565114 
L 346.410547 184.255783 
L 346.226654 184.217074 
L 344.70468 183.896074 
L 344.199786 183.789485 
L 343.882152 183.730469 
L 343.098108 183.584723 
L 343.0263 183.571371 
L 342.14498 183.407561 
L 341.841034 183.351013 
L 341.416811 183.27225 
L 339.760199 182.964377 
L 338.153515 182.665592 
L 337.802445 182.600404 
L 336.692015 182.393959 
L 335.475221 182.40933 
L 334.174952 182.425711 
L 333.25986 182.437268 
L 330.742908 182.46902 
L 330.685799 182.469693 
L 329.934629 182.47923 
L 328.72984 182.494377 
L 328.448222 182.497967 
L 327.570155 182.509075 
L 326.528055 182.53892 
L 326.183942 182.553169 
L 323.691225 182.653138 
L 323.194522 182.677148 
L 322.697594 182.701271 
L 320.815462 183.302992 
L 319.775605 183.635437 
L 319.282717 183.792964 
L 317.926123 184.226723 
L 316.145643 184.797141 
L 315.952998 184.857504 
L 315.016813 185.532603 
L 314.777157 185.705389 
L 313.043352 186.955506 
L 312.635061 187.249803 
L 312.442528 187.388817 
L 311.729057 187.903135 
L 310.320964 188.918421 
L 309.345173 189.622018 
L 308.823449 189.998108 
L 307.184564 191.179896 
L 305.628013 192.30218 
L 305.500126 192.388051 
L 304.48428 193.032856 
L 303.66624 193.551887 
L 302.139329 194.521171 
L 301.107214 195.176186 
L 300.040542 195.853193 
L 299.149909 196.41845 
L 297.774691 197.291355 
L 297.500365 197.465487 
L 296.116171 198.344002 
L 295.930931 198.461586 
L 295.039849 199.02718 
L 294.436108 199.41045 
L 293.831807 199.794057 
L 293.607297 199.936437 
L 292.730689 200.49283 
L 292.567777 200.59639 
L 291.485734 201.282933 
L 290.98903 201.598323 
L 289.955905 202.254012 
L 289.253991 202.699553 
L 288.639367 203.089667 
L 287.562709 203.773069 
L 287.31475 203.930371 
L 286.910162 204.187306 
L 285.936614 204.805184 
L 285.648937 204.987731 
L 284.133358 205.949722 
L 283.818753 206.149324 
L 282.46777 207.006858 
L 280.995948 208.172377 
L 280.890706 208.25574 
L 279.482277 209.370882 
L 279.30332 209.512701 
L 278.230028 210.362718 
L 276.893518 211.421312 
L 276.77167 211.517803 
L 275.288741 212.691849 
L 275.09273 212.846908 
L 274.320243 213.453117 
L 273.684077 213.952289 
L 271.624895 215.567836 
L 271.388268 215.753525 
" clip-path="url(#pce0ace9907)" style="fill: #d3d3d3"/>
   </g>
   <g id="PatchCollection_2">
    <path d="M 357.090768 225.804443 
L 357.090768 225.692244 
L 356.978569 225.692244 
L 356.978569 225.804443 
L 357.090768 225.804443 
" clip-path="url(#pce0ace9907)" style="fill: #ff0000; fill-opacity: 0.7; stroke: #000000; stroke-opacity: 0.7; stroke-width: 0.5"/>
    <path d="M 123.177963 341.585569 
L 123.177963 341.47337 
L 123.065764 341.47337 
L 123.065764 341.585569 
L 123.177963 341.585569 
" clip-path="url(#pce0ace9907)" style="fill: #ff0000; fill-opacity: 0.7; stroke: #000000; stroke-opacity: 0.7; stroke-width: 0.5"/>
    <path d="M 538.737225 352.195754 
L 538.737225 352.083555 
L 538.625027 352.083555 
L 538.625027 352.195754 
L 538.737225 352.195754 
" clip-path="url(#pce0ace9907)" style="fill: #ff0000; fill-opacity: 0.7; stroke: #000000; stroke-opacity: 0.7; stroke-width: 0.5"/>
    <path d="M 354.841182 314.329385 
L 354.841182 314.217186 
L 354.728983 314.217186 
L 354.728983 314.329385 
L 354.841182 314.329385 
" clip-path="url(#pce0ace9907)" style="fill: #ff0000; fill-opacity: 0.7; stroke: #000000; stroke-opacity: 0.7; stroke-width: 0.5"/>
    <path d="M 257.456143 287.199613 
L 257.456143 287.087414 
L 257.343945 287.087414 
L 257.343945 287.199613 
L 257.456143 287.199613 
" clip-path="url(#pce0ace9907)" style="fill: #ff0000; fill-opacity: 0.7; stroke: #000000; stroke-opacity: 0.7; stroke-width: 0.5"/>
    <path d="M 362.891916 227.999775 
L 362.891916 227.887577 
L 362.779717 227.887577 
L 362.779717 227.999775 
L 362.891916 227.999775 
" clip-path="url(#pce0ace9907)" style="fill: #ff0000; fill-opacity: 0.7; stroke: #000000; stroke-opacity: 0.7; stroke-width: 0.5"/>
    <path d="M 319.723974 404.679551 
L 319.723974 404.567352 
L 319.611776 404.567352 
L 319.611776 404.679551 
L 319.723974 404.679551 
" clip-path="url(#pce0ace9907)" style="fill: #ff0000; fill-opacity: 0.7; stroke: #000000; stroke-opacity: 0.7; stroke-width: 0.5"/>
    <path d="M 460.990266 361.867305 
L 460.990266 361.755106 
L 460.878068 361.755106 
L 460.878068 361.867305 
L 460.990266 361.867305 
" clip-path="url(#pce0ace9907)" style="fill: #ff0000; fill-opacity: 0.7; stroke: #000000; stroke-opacity: 0.7; stroke-width: 0.5"/>
    <path d="M 272.993395 414.853955 
L 272.993395 414.741756 
L 272.881196 414.741756 
L 272.881196 414.853955 
L 272.993395 414.853955 
" clip-path="url(#pce0ace9907)" style="fill: #ff0000; fill-opacity: 0.7; stroke: #000000; stroke-opacity: 0.7; stroke-width: 0.5"/>
    <path d="M 357.257755 239.62997 
L 357.257755 239.517771 
L 357.145557 239.517771 
L 357.145557 239.62997 
L 357.257755 239.62997 
" clip-path="url(#pce0ace9907)" style="fill: #ff0000; fill-opacity: 0.7; stroke: #000000; stroke-opacity: 0.7; stroke-width: 0.5"/>
    <path d="M 370.158638 401.110421 
L 370.158638 400.998222 
L 370.046439 400.998222 
L 370.046439 401.110421 
L 370.158638 401.110421 
" clip-path="url(#pce0ace9907)" style="fill: #ff0000; fill-opacity: 0.7; stroke: #000000; stroke-opacity: 0.7; stroke-width: 0.5"/>
    <path d="M 123.594554 344.552399 
L 123.594554 344.4402 
L 123.482356 344.4402 
L 123.482356 344.552399 
L 123.594554 344.552399 
" clip-path="url(#pce0ace9907)" style="fill: #ff0000; fill-opacity: 0.7; stroke: #000000; stroke-opacity: 0.7; stroke-width: 0.5"/>
    <path d="M 187.2829 329.08425 
L 187.2829 328.972051 
L 187.170701 328.972051 
L 187.170701 329.08425 
L 187.2829 329.08425 
" clip-path="url(#pce0ace9907)" style="fill: #ff0000; fill-opacity: 0.7; stroke: #000000; stroke-opacity: 0.7; stroke-width: 0.5"/>
    <path d="M 272.993395 414.853955 
L 272.993395 414.741756 
L 272.881196 414.741756 
L 272.881196 414.853955 
L 272.993395 414.853955 
" clip-path="url(#pce0ace9907)" style="fill: #ff0000; fill-opacity: 0.7; stroke: #000000; stroke-opacity: 0.7; stroke-width: 0.5"/>
    <path d="M 130.1129 372.642005 
L 130.1129 372.529807 
L 130.000701 372.529807 
L 130.000701 372.642005 
L 130.1129 372.642005 
" clip-path="url(#pce0ace9907)" style="fill: #ff0000; fill-opacity: 0.7; stroke: #000000; stroke-opacity: 0.7; stroke-width: 0.5"/>
    <path d="M 333.323334 400.210254 
L 333.323334 400.098056 
L 333.211136 400.098056 
L 333.211136 400.210254 
L 333.323334 400.210254 
" clip-path="url(#pce0ace9907)" style="fill: #ff0000; fill-opacity: 0.7; stroke: #000000; stroke-opacity: 0.7; stroke-width: 0.5"/>
    <path d="M 172.417262 319.598697 
L 172.417262 319.486498 
L 172.305063 319.486498 
L 172.305063 319.598697 
L 172.417262 319.598697 
" clip-path="url(#pce0ace9907)" style="fill: #ff0000; fill-opacity: 0.7; stroke: #000000; stroke-opacity: 0.7; stroke-width: 0.5"/>
    <path d="M 289.13357 414.941572 
L 289.13357 414.829374 
L 289.021371 414.829374 
L 289.021371 414.941572 
L 289.13357 414.941572 
" clip-path="url(#pce0ace9907)" style="fill: #ff0000; fill-opacity: 0.7; stroke: #000000; stroke-opacity: 0.7; stroke-width: 0.5"/>
    <path d="M 353.693051 274.951329 
L 353.693051 274.839131 
L 353.580853 274.839131 
L 353.580853 274.951329 
L 353.693051 274.951329 
" clip-path="url(#pce0ace9907)" style="fill: #ff0000; fill-opacity: 0.7; stroke: #000000; stroke-opacity: 0.7; stroke-width: 0.5"/>
    <path d="M 445.6245 254.073327 
L 445.6245 253.961129 
L 445.512302 253.961129 
L 445.512302 254.073327 
L 445.6245 254.073327 
" clip-path="url(#pce0ace9907)" style="fill: #ff0000; fill-opacity: 0.7; stroke: #000000; stroke-opacity: 0.7; stroke-width: 0.5"/>
    <path d="M 333.27958 248.445656 
L 333.27958 248.333457 
L 333.167381 248.333457 
L 333.167381 248.445656 
L 333.27958 248.445656 
" clip-path="url(#pce0ace9907)" style="fill: #ff0000; fill-opacity: 0.7; stroke: #000000; stroke-opacity: 0.7; stroke-width: 0.5"/>
    <path d="M 407.566584 363.056764 
L 407.566584 362.944566 
L 407.454386 362.944566 
L 407.454386 363.056764 
L 407.566584 363.056764 
" clip-path="url(#pce0ace9907)" style="fill: #ff0000; fill-opacity: 0.7; stroke: #000000; stroke-opacity: 0.7; stroke-width: 0.5"/>
    <path d="M 392.605875 439.655654 
L 392.605875 439.543455 
L 392.493676 439.543455 
L 392.493676 439.655654 
L 392.605875 439.655654 
" clip-path="url(#pce0ace9907)" style="fill: #ff0000; fill-opacity: 0.7; stroke: #000000; stroke-opacity: 0.7; stroke-width: 0.5"/>
    <path d="M 193.473305 332.476378 
L 193.473305 332.36418 
L 193.361106 332.36418 
L 193.361106 332.476378 
L 193.473305 332.476378 
" clip-path="url(#pce0ace9907)" style="fill: #ff0000; fill-opacity: 0.7; stroke: #000000; stroke-opacity: 0.7; stroke-width: 0.5"/>
    <path d="M 259.831226 402.903264 
L 259.831226 402.791066 
L 259.719028 402.791066 
L 259.719028 402.903264 
L 259.831226 402.903264 
" clip-path="url(#pce0ace9907)" style="fill: #ff0000; fill-opacity: 0.7; stroke: #000000; stroke-opacity: 0.7; stroke-width: 0.5"/>
    <path d="M 177.677224 335.717245 
L 177.677224 335.605046 
L 177.565025 335.605046 
L 177.565025 335.717245 
L 177.677224 335.717245 
" clip-path="url(#pce0ace9907)" style="fill: #ff0000; fill-opacity: 0.7; stroke: #000000; stroke-opacity: 0.7; stroke-width: 0.5"/>
    <path d="M 353.677904 274.963004 
L 353.677904 274.850805 
L 353.565705 274.850805 
L 353.565705 274.963004 
L 353.677904 274.963004 
" clip-path="url(#pce0ace9907)" style="fill: #ff0000; fill-opacity: 0.7; stroke: #000000; stroke-opacity: 0.7; stroke-width: 0.5"/>
    <path d="M 378.341578 239.967924 
L 378.341578 239.855726 
L 378.22938 239.855726 
L 378.22938 239.967924 
L 378.341578 239.967924 
" clip-path="url(#pce0ace9907)" style="fill: #ff0000; fill-opacity: 0.7; stroke: #000000; stroke-opacity: 0.7; stroke-width: 0.5"/>
    <path d="M 181.081261 334.229538 
L 181.081261 334.117339 
L 180.969062 334.117339 
L 180.969062 334.229538 
L 181.081261 334.229538 
" clip-path="url(#pce0ace9907)" style="fill: #ff0000; fill-opacity: 0.7; stroke: #000000; stroke-opacity: 0.7; stroke-width: 0.5"/>
    <path d="M 342.860387 400.870895 
L 342.860387 400.758697 
L 342.748188 400.758697 
L 342.748188 400.870895 
L 342.860387 400.870895 
" clip-path="url(#pce0ace9907)" style="fill: #ff0000; fill-opacity: 0.7; stroke: #000000; stroke-opacity: 0.7; stroke-width: 0.5"/>
    <path d="M 481.124609 267.780717 
L 481.124609 267.668519 
L 481.012411 267.668519 
L 481.012411 267.780717 
L 481.124609 267.780717 
" clip-path="url(#pce0ace9907)" style="fill: #ff0000; fill-opacity: 0.7; stroke: #000000; stroke-opacity: 0.7; stroke-width: 0.5"/>
    <path d="M 209.521758 381.205518 
L 209.521758 381.093319 
L 209.40956 381.093319 
L 209.40956 381.205518 
L 209.521758 381.205518 
" clip-path="url(#pce0ace9907)" style="fill: #ff0000; fill-opacity: 0.7; stroke: #000000; stroke-opacity: 0.7; stroke-width: 0.5"/>
    <path d="M 319.996656 411.479589 
L 319.996656 411.36739 
L 319.884457 411.36739 
L 319.884457 411.479589 
L 319.996656 411.479589 
" clip-path="url(#pce0ace9907)" style="fill: #ff0000; fill-opacity: 0.7; stroke: #000000; stroke-opacity: 0.7; stroke-width: 0.5"/>
    <path d="M 163.714596 352.115336 
L 163.714596 352.003138 
L 163.602397 352.003138 
L 163.602397 352.115336 
L 163.714596 352.115336 
" clip-path="url(#pce0ace9907)" style="fill: #ff0000; fill-opacity: 0.7; stroke: #000000; stroke-opacity: 0.7; stroke-width: 0.5"/>
    <path d="M 479.968743 363.630141 
L 479.968743 363.517942 
L 479.856545 363.517942 
L 479.856545 363.630141 
L 479.968743 363.630141 
" clip-path="url(#pce0ace9907)" style="fill: #ff0000; fill-opacity: 0.7; stroke: #000000; stroke-opacity: 0.7; stroke-width: 0.5"/>
    <path d="M 401.011509 373.562006 
L 401.011509 373.449807 
L 400.89931 373.449807 
L 400.89931 373.562006 
L 401.011509 373.562006 
" clip-path="url(#pce0ace9907)" style="fill: #ff0000; fill-opacity: 0.7; stroke: #000000; stroke-opacity: 0.7; stroke-width: 0.5"/>
    <path d="M 287.464981 420.171777 
L 287.464981 420.059578 
L 287.352783 420.059578 
L 287.352783 420.171777 
L 287.464981 420.171777 
" clip-path="url(#pce0ace9907)" style="fill: #ff0000; fill-opacity: 0.7; stroke: #000000; stroke-opacity: 0.7; stroke-width: 0.5"/>
    <path d="M 292.191315 413.907617 
L 292.191315 413.795418 
L 292.079116 413.795418 
L 292.079116 413.907617 
L 292.191315 413.907617 
" clip-path="url(#pce0ace9907)" style="fill: #ff0000; fill-opacity: 0.7; stroke: #000000; stroke-opacity: 0.7; stroke-width: 0.5"/>
    <path d="M 503.437483 365.52588 
L 503.437483 365.413682 
L 503.325284 365.413682 
L 503.325284 365.52588 
L 503.437483 365.52588 
" clip-path="url(#pce0ace9907)" style="fill: #ff0000; fill-opacity: 0.7; stroke: #000000; stroke-opacity: 0.7; stroke-width: 0.5"/>
   </g>
   <g id="matplotlib.axis_1">
    <g id="xtick_1">
     <g id="line2d_1">
      <defs>
       <path id="m554c62a2c2" d="M 0 0 
L 0 3.5 
" style="stroke: #000000; stroke-width: 0.8"/>
      </defs>
      <g>
       <use xlink:href="#m554c62a2c2" x="172.671773" y="562.926645" style="stroke: #000000; stroke-width: 0.8"/>
      </g>
     </g>
     <g id="text_1">
      <!-- 394000 -->
      <g transform="translate(153.584273 577.525083) scale(0.1 -0.1)">
       <defs>
        <path id="DejaVuSans-33" d="M 2597 2516 
Q 3050 2419 3304 2112 
Q 3559 1806 3559 1356 
Q 3559 666 3084 287 
Q 2609 -91 1734 -91 
Q 1441 -91 1130 -33 
Q 819 25 488 141 
L 488 750 
Q 750 597 1062 519 
Q 1375 441 1716 441 
Q 2309 441 2620 675 
Q 2931 909 2931 1356 
Q 2931 1769 2642 2001 
Q 2353 2234 1838 2234 
L 1294 2234 
L 1294 2753 
L 1863 2753 
Q 2328 2753 2575 2939 
Q 2822 3125 2822 3475 
Q 2822 3834 2567 4026 
Q 2313 4219 1838 4219 
Q 1578 4219 1281 4162 
Q 984 4106 628 3988 
L 628 4550 
Q 988 4650 1302 4700 
Q 1616 4750 1894 4750 
Q 2613 4750 3031 4423 
Q 3450 4097 3450 3541 
Q 3450 3153 3228 2886 
Q 3006 2619 2597 2516 
z
" transform="scale(0.015625)"/>
        <path id="DejaVuSans-39" d="M 703 97 
L 703 672 
Q 941 559 1184 500 
Q 1428 441 1663 441 
Q 2288 441 2617 861 
Q 2947 1281 2994 2138 
Q 2813 1869 2534 1725 
Q 2256 1581 1919 1581 
Q 1219 1581 811 2004 
Q 403 2428 403 3163 
Q 403 3881 828 4315 
Q 1253 4750 1959 4750 
Q 2769 4750 3195 4129 
Q 3622 3509 3622 2328 
Q 3622 1225 3098 567 
Q 2575 -91 1691 -91 
Q 1453 -91 1209 -44 
Q 966 3 703 97 
z
M 1959 2075 
Q 2384 2075 2632 2365 
Q 2881 2656 2881 3163 
Q 2881 3666 2632 3958 
Q 2384 4250 1959 4250 
Q 1534 4250 1286 3958 
Q 1038 3666 1038 3163 
Q 1038 2656 1286 2365 
Q 1534 2075 1959 2075 
z
" transform="scale(0.015625)"/>
        <path id="DejaVuSans-34" d="M 2419 4116 
L 825 1625 
L 2419 1625 
L 2419 4116 
z
M 2253 4666 
L 3047 4666 
L 3047 1625 
L 3713 1625 
L 3713 1100 
L 3047 1100 
L 3047 0 
L 2419 0 
L 2419 1100 
L 313 1100 
L 313 1709 
L 2253 4666 
z
" transform="scale(0.015625)"/>
        <path id="DejaVuSans-30" d="M 2034 4250 
Q 1547 4250 1301 3770 
Q 1056 3291 1056 2328 
Q 1056 1369 1301 889 
Q 1547 409 2034 409 
Q 2525 409 2770 889 
Q 3016 1369 3016 2328 
Q 3016 3291 2770 3770 
Q 2525 4250 2034 4250 
z
M 2034 4750 
Q 2819 4750 3233 4129 
Q 3647 3509 3647 2328 
Q 3647 1150 3233 529 
Q 2819 -91 2034 -91 
Q 1250 -91 836 529 
Q 422 1150 422 2328 
Q 422 3509 836 4129 
Q 1250 4750 2034 4750 
z
" transform="scale(0.015625)"/>
       </defs>
       <use xlink:href="#DejaVuSans-33"/>
       <use xlink:href="#DejaVuSans-39" x="63.623047"/>
       <use xlink:href="#DejaVuSans-34" x="127.246094"/>
       <use xlink:href="#DejaVuSans-30" x="190.869141"/>
       <use xlink:href="#DejaVuSans-30" x="254.492188"/>
       <use xlink:href="#DejaVuSans-30" x="318.115234"/>
      </g>
     </g>
    </g>
    <g id="xtick_2">
     <g id="line2d_2">
      <g>
       <use xlink:href="#m554c62a2c2" x="284.870391" y="562.926645" style="stroke: #000000; stroke-width: 0.8"/>
      </g>
     </g>
     <g id="text_2">
      <!-- 395000 -->
      <g transform="translate(265.782891 577.525083) scale(0.1 -0.1)">
       <defs>
        <path id="DejaVuSans-35" d="M 691 4666 
L 3169 4666 
L 3169 4134 
L 1269 4134 
L 1269 2991 
Q 1406 3038 1543 3061 
Q 1681 3084 1819 3084 
Q 2600 3084 3056 2656 
Q 3513 2228 3513 1497 
Q 3513 744 3044 326 
Q 2575 -91 1722 -91 
Q 1428 -91 1123 -41 
Q 819 9 494 109 
L 494 744 
Q 775 591 1075 516 
Q 1375 441 1709 441 
Q 2250 441 2565 725 
Q 2881 1009 2881 1497 
Q 2881 1984 2565 2268 
Q 2250 2553 1709 2553 
Q 1456 2553 1204 2497 
Q 953 2441 691 2322 
L 691 4666 
z
" transform="scale(0.015625)"/>
       </defs>
       <use xlink:href="#DejaVuSans-33"/>
       <use xlink:href="#DejaVuSans-39" x="63.623047"/>
       <use xlink:href="#DejaVuSans-35" x="127.246094"/>
       <use xlink:href="#DejaVuSans-30" x="190.869141"/>
       <use xlink:href="#DejaVuSans-30" x="254.492188"/>
       <use xlink:href="#DejaVuSans-30" x="318.115234"/>
      </g>
     </g>
    </g>
    <g id="xtick_3">
     <g id="line2d_3">
      <g>
       <use xlink:href="#m554c62a2c2" x="397.069009" y="562.926645" style="stroke: #000000; stroke-width: 0.8"/>
      </g>
     </g>
     <g id="text_3">
      <!-- 396000 -->
      <g transform="translate(377.981509 577.525083) scale(0.1 -0.1)">
       <defs>
        <path id="DejaVuSans-36" d="M 2113 2584 
Q 1688 2584 1439 2293 
Q 1191 2003 1191 1497 
Q 1191 994 1439 701 
Q 1688 409 2113 409 
Q 2538 409 2786 701 
Q 3034 994 3034 1497 
Q 3034 2003 2786 2293 
Q 2538 2584 2113 2584 
z
M 3366 4563 
L 3366 3988 
Q 3128 4100 2886 4159 
Q 2644 4219 2406 4219 
Q 1781 4219 1451 3797 
Q 1122 3375 1075 2522 
Q 1259 2794 1537 2939 
Q 1816 3084 2150 3084 
Q 2853 3084 3261 2657 
Q 3669 2231 3669 1497 
Q 3669 778 3244 343 
Q 2819 -91 2113 -91 
Q 1303 -91 875 529 
Q 447 1150 447 2328 
Q 447 3434 972 4092 
Q 1497 4750 2381 4750 
Q 2619 4750 2861 4703 
Q 3103 4656 3366 4563 
z
" transform="scale(0.015625)"/>
       </defs>
       <use xlink:href="#DejaVuSans-33"/>
       <use xlink:href="#DejaVuSans-39" x="63.623047"/>
       <use xlink:href="#DejaVuSans-36" x="127.246094"/>
       <use xlink:href="#DejaVuSans-30" x="190.869141"/>
       <use xlink:href="#DejaVuSans-30" x="254.492188"/>
       <use xlink:href="#DejaVuSans-30" x="318.115234"/>
      </g>
     </g>
    </g>
    <g id="xtick_4">
     <g id="line2d_4">
      <g>
       <use xlink:href="#m554c62a2c2" x="509.267626" y="562.926645" style="stroke: #000000; stroke-width: 0.8"/>
      </g>
     </g>
     <g id="text_4">
      <!-- 397000 -->
      <g transform="translate(490.180126 577.525083) scale(0.1 -0.1)">
       <defs>
        <path id="DejaVuSans-37" d="M 525 4666 
L 3525 4666 
L 3525 4397 
L 1831 0 
L 1172 0 
L 2766 4134 
L 525 4134 
L 525 4666 
z
" transform="scale(0.015625)"/>
       </defs>
       <use xlink:href="#DejaVuSans-33"/>
       <use xlink:href="#DejaVuSans-39" x="63.623047"/>
       <use xlink:href="#DejaVuSans-37" x="127.246094"/>
       <use xlink:href="#DejaVuSans-30" x="190.869141"/>
       <use xlink:href="#DejaVuSans-30" x="254.492188"/>
       <use xlink:href="#DejaVuSans-30" x="318.115234"/>
      </g>
     </g>
    </g>
    <g id="xtick_5">
     <g id="line2d_5">
      <g>
       <use xlink:href="#m554c62a2c2" x="621.466244" y="562.926645" style="stroke: #000000; stroke-width: 0.8"/>
      </g>
     </g>
     <g id="text_5">
      <!-- 398000 -->
      <g transform="translate(602.378744 577.525083) scale(0.1 -0.1)">
       <defs>
        <path id="DejaVuSans-38" d="M 2034 2216 
Q 1584 2216 1326 1975 
Q 1069 1734 1069 1313 
Q 1069 891 1326 650 
Q 1584 409 2034 409 
Q 2484 409 2743 651 
Q 3003 894 3003 1313 
Q 3003 1734 2745 1975 
Q 2488 2216 2034 2216 
z
M 1403 2484 
Q 997 2584 770 2862 
Q 544 3141 544 3541 
Q 544 4100 942 4425 
Q 1341 4750 2034 4750 
Q 2731 4750 3128 4425 
Q 3525 4100 3525 3541 
Q 3525 3141 3298 2862 
Q 3072 2584 2669 2484 
Q 3125 2378 3379 2068 
Q 3634 1759 3634 1313 
Q 3634 634 3220 271 
Q 2806 -91 2034 -91 
Q 1263 -91 848 271 
Q 434 634 434 1313 
Q 434 1759 690 2068 
Q 947 2378 1403 2484 
z
M 1172 3481 
Q 1172 3119 1398 2916 
Q 1625 2713 2034 2713 
Q 2441 2713 2670 2916 
Q 2900 3119 2900 3481 
Q 2900 3844 2670 4047 
Q 2441 4250 2034 4250 
Q 1625 4250 1398 4047 
Q 1172 3844 1172 3481 
z
" transform="scale(0.015625)"/>
       </defs>
       <use xlink:href="#DejaVuSans-33"/>
       <use xlink:href="#DejaVuSans-39" x="63.623047"/>
       <use xlink:href="#DejaVuSans-38" x="127.246094"/>
       <use xlink:href="#DejaVuSans-30" x="190.869141"/>
       <use xlink:href="#DejaVuSans-30" x="254.492188"/>
       <use xlink:href="#DejaVuSans-30" x="318.115234"/>
      </g>
     </g>
    </g>
   </g>
   <g id="matplotlib.axis_2">
    <g id="ytick_1">
     <g id="line2d_6">
      <defs>
       <path id="md5428e6237" d="M 0 0 
L -3.5 0 
" style="stroke: #000000; stroke-width: 0.8"/>
      </defs>
      <g>
       <use xlink:href="#md5428e6237" x="90" y="549.030333" style="stroke: #000000; stroke-width: 0.8"/>
      </g>
     </g>
     <g id="text_6">
      <!-- 5.8220 -->
      <g transform="translate(48.009375 552.829552) scale(0.1 -0.1)">
       <defs>
        <path id="DejaVuSans-2e" d="M 684 794 
L 1344 794 
L 1344 0 
L 684 0 
L 684 794 
z
" transform="scale(0.015625)"/>
        <path id="DejaVuSans-32" d="M 1228 531 
L 3431 531 
L 3431 0 
L 469 0 
L 469 531 
Q 828 903 1448 1529 
Q 2069 2156 2228 2338 
Q 2531 2678 2651 2914 
Q 2772 3150 2772 3378 
Q 2772 3750 2511 3984 
Q 2250 4219 1831 4219 
Q 1534 4219 1204 4116 
Q 875 4013 500 3803 
L 500 4441 
Q 881 4594 1212 4672 
Q 1544 4750 1819 4750 
Q 2544 4750 2975 4387 
Q 3406 4025 3406 3419 
Q 3406 3131 3298 2873 
Q 3191 2616 2906 2266 
Q 2828 2175 2409 1742 
Q 1991 1309 1228 531 
z
" transform="scale(0.015625)"/>
       </defs>
       <use xlink:href="#DejaVuSans-35"/>
       <use xlink:href="#DejaVuSans-2e" x="63.623047"/>
       <use xlink:href="#DejaVuSans-38" x="95.410156"/>
       <use xlink:href="#DejaVuSans-32" x="159.033203"/>
       <use xlink:href="#DejaVuSans-32" x="222.65625"/>
       <use xlink:href="#DejaVuSans-30" x="286.279297"/>
      </g>
     </g>
    </g>
    <g id="ytick_2">
     <g id="line2d_7">
      <g>
       <use xlink:href="#md5428e6237" x="90" y="492.931024" style="stroke: #000000; stroke-width: 0.8"/>
      </g>
     </g>
     <g id="text_7">
      <!-- 5.8225 -->
      <g transform="translate(48.009375 496.730243) scale(0.1 -0.1)">
       <use xlink:href="#DejaVuSans-35"/>
       <use xlink:href="#DejaVuSans-2e" x="63.623047"/>
       <use xlink:href="#DejaVuSans-38" x="95.410156"/>
       <use xlink:href="#DejaVuSans-32" x="159.033203"/>
       <use xlink:href="#DejaVuSans-32" x="222.65625"/>
       <use xlink:href="#DejaVuSans-35" x="286.279297"/>
      </g>
     </g>
    </g>
    <g id="ytick_3">
     <g id="line2d_8">
      <g>
       <use xlink:href="#md5428e6237" x="90" y="436.831715" style="stroke: #000000; stroke-width: 0.8"/>
      </g>
     </g>
     <g id="text_8">
      <!-- 5.8230 -->
      <g transform="translate(48.009375 440.630934) scale(0.1 -0.1)">
       <use xlink:href="#DejaVuSans-35"/>
       <use xlink:href="#DejaVuSans-2e" x="63.623047"/>
       <use xlink:href="#DejaVuSans-38" x="95.410156"/>
       <use xlink:href="#DejaVuSans-32" x="159.033203"/>
       <use xlink:href="#DejaVuSans-33" x="222.65625"/>
       <use xlink:href="#DejaVuSans-30" x="286.279297"/>
      </g>
     </g>
    </g>
    <g id="ytick_4">
     <g id="line2d_9">
      <g>
       <use xlink:href="#md5428e6237" x="90" y="380.732406" style="stroke: #000000; stroke-width: 0.8"/>
      </g>
     </g>
     <g id="text_9">
      <!-- 5.8235 -->
      <g transform="translate(48.009375 384.531625) scale(0.1 -0.1)">
       <use xlink:href="#DejaVuSans-35"/>
       <use xlink:href="#DejaVuSans-2e" x="63.623047"/>
       <use xlink:href="#DejaVuSans-38" x="95.410156"/>
       <use xlink:href="#DejaVuSans-32" x="159.033203"/>
       <use xlink:href="#DejaVuSans-33" x="222.65625"/>
       <use xlink:href="#DejaVuSans-35" x="286.279297"/>
      </g>
     </g>
    </g>
    <g id="ytick_5">
     <g id="line2d_10">
      <g>
       <use xlink:href="#md5428e6237" x="90" y="324.633097" style="stroke: #000000; stroke-width: 0.8"/>
      </g>
     </g>
     <g id="text_10">
      <!-- 5.8240 -->
      <g transform="translate(48.009375 328.432316) scale(0.1 -0.1)">
       <use xlink:href="#DejaVuSans-35"/>
       <use xlink:href="#DejaVuSans-2e" x="63.623047"/>
       <use xlink:href="#DejaVuSans-38" x="95.410156"/>
       <use xlink:href="#DejaVuSans-32" x="159.033203"/>
       <use xlink:href="#DejaVuSans-34" x="222.65625"/>
       <use xlink:href="#DejaVuSans-30" x="286.279297"/>
      </g>
     </g>
    </g>
    <g id="ytick_6">
     <g id="line2d_11">
      <g>
       <use xlink:href="#md5428e6237" x="90" y="268.533788" style="stroke: #000000; stroke-width: 0.8"/>
      </g>
     </g>
     <g id="text_11">
      <!-- 5.8245 -->
      <g transform="translate(48.009375 272.333007) scale(0.1 -0.1)">
       <use xlink:href="#DejaVuSans-35"/>
       <use xlink:href="#DejaVuSans-2e" x="63.623047"/>
       <use xlink:href="#DejaVuSans-38" x="95.410156"/>
       <use xlink:href="#DejaVuSans-32" x="159.033203"/>
       <use xlink:href="#DejaVuSans-34" x="222.65625"/>
       <use xlink:href="#DejaVuSans-35" x="286.279297"/>
      </g>
     </g>
    </g>
    <g id="ytick_7">
     <g id="line2d_12">
      <g>
       <use xlink:href="#md5428e6237" x="90" y="212.43448" style="stroke: #000000; stroke-width: 0.8"/>
      </g>
     </g>
     <g id="text_12">
      <!-- 5.8250 -->
      <g transform="translate(48.009375 216.233698) scale(0.1 -0.1)">
       <use xlink:href="#DejaVuSans-35"/>
       <use xlink:href="#DejaVuSans-2e" x="63.623047"/>
       <use xlink:href="#DejaVuSans-38" x="95.410156"/>
       <use xlink:href="#DejaVuSans-32" x="159.033203"/>
       <use xlink:href="#DejaVuSans-35" x="222.65625"/>
       <use xlink:href="#DejaVuSans-30" x="286.279297"/>
      </g>
     </g>
    </g>
    <g id="text_13">
     <!-- 1e6 -->
     <g transform="translate(90 161.273355) scale(0.1 -0.1)">
      <defs>
       <path id="DejaVuSans-31" d="M 794 531 
L 1825 531 
L 1825 4091 
L 703 3866 
L 703 4441 
L 1819 4666 
L 2450 4666 
L 2450 531 
L 3481 531 
L 3481 0 
L 794 0 
L 794 531 
z
" transform="scale(0.015625)"/>
       <path id="DejaVuSans-65" d="M 3597 1894 
L 3597 1613 
L 953 1613 
Q 991 1019 1311 708 
Q 1631 397 2203 397 
Q 2534 397 2845 478 
Q 3156 559 3463 722 
L 3463 178 
Q 3153 47 2828 -22 
Q 2503 -91 2169 -91 
Q 1331 -91 842 396 
Q 353 884 353 1716 
Q 353 2575 817 3079 
Q 1281 3584 2069 3584 
Q 2775 3584 3186 3129 
Q 3597 2675 3597 1894 
z
M 3022 2063 
Q 3016 2534 2758 2815 
Q 2500 3097 2075 3097 
Q 1594 3097 1305 2825 
Q 1016 2553 972 2059 
L 3022 2063 
z
" transform="scale(0.015625)"/>
      </defs>
      <use xlink:href="#DejaVuSans-31"/>
      <use xlink:href="#DejaVuSans-65" x="63.623047"/>
      <use xlink:href="#DejaVuSans-36" x="125.146484"/>
     </g>
    </g>
   </g>
   <g id="patch_3">
    <path d="M 90 562.926645 
L 90 164.273355 
" style="fill: none; stroke: #000000; stroke-width: 0.8; stroke-linejoin: miter; stroke-linecap: square"/>
   </g>
   <g id="patch_4">
    <path d="M 648 562.926645 
L 648 164.273355 
" style="fill: none; stroke: #000000; stroke-width: 0.8; stroke-linejoin: miter; stroke-linecap: square"/>
   </g>
   <g id="patch_5">
    <path d="M 90 562.926645 
L 648 562.926645 
" style="fill: none; stroke: #000000; stroke-width: 0.8; stroke-linejoin: miter; stroke-linecap: square"/>
   </g>
   <g id="patch_6">
    <path d="M 90 164.273355 
L 648 164.273355 
" style="fill: none; stroke: #000000; stroke-width: 0.8; stroke-linejoin: miter; stroke-linecap: square"/>
   </g>
   <g id="text_14">
    <!-- Südliches_Weißensee -->
    <g transform="translate(306.306813 337.912925) scale(0.12 -0.12)">
     <defs>
      <path id="DejaVuSans-53" d="M 3425 4513 
L 3425 3897 
Q 3066 4069 2747 4153 
Q 2428 4238 2131 4238 
Q 1616 4238 1336 4038 
Q 1056 3838 1056 3469 
Q 1056 3159 1242 3001 
Q 1428 2844 1947 2747 
L 2328 2669 
Q 3034 2534 3370 2195 
Q 3706 1856 3706 1288 
Q 3706 609 3251 259 
Q 2797 -91 1919 -91 
Q 1588 -91 1214 -16 
Q 841 59 441 206 
L 441 856 
Q 825 641 1194 531 
Q 1563 422 1919 422 
Q 2459 422 2753 634 
Q 3047 847 3047 1241 
Q 3047 1584 2836 1778 
Q 2625 1972 2144 2069 
L 1759 2144 
Q 1053 2284 737 2584 
Q 422 2884 422 3419 
Q 422 4038 858 4394 
Q 1294 4750 2059 4750 
Q 2388 4750 2728 4690 
Q 3069 4631 3425 4513 
z
" transform="scale(0.015625)"/>
      <path id="DejaVuSans-fc" d="M 544 1381 
L 544 3500 
L 1119 3500 
L 1119 1403 
Q 1119 906 1312 657 
Q 1506 409 1894 409 
Q 2359 409 2629 706 
Q 2900 1003 2900 1516 
L 2900 3500 
L 3475 3500 
L 3475 0 
L 2900 0 
L 2900 538 
Q 2691 219 2414 64 
Q 2138 -91 1772 -91 
Q 1169 -91 856 284 
Q 544 659 544 1381 
z
M 1991 3584 
L 1991 3584 
z
M 2278 4850 
L 2912 4850 
L 2912 4219 
L 2278 4219 
L 2278 4850 
z
M 1056 4850 
L 1690 4850 
L 1690 4219 
L 1056 4219 
L 1056 4850 
z
" transform="scale(0.015625)"/>
      <path id="DejaVuSans-64" d="M 2906 2969 
L 2906 4863 
L 3481 4863 
L 3481 0 
L 2906 0 
L 2906 525 
Q 2725 213 2448 61 
Q 2172 -91 1784 -91 
Q 1150 -91 751 415 
Q 353 922 353 1747 
Q 353 2572 751 3078 
Q 1150 3584 1784 3584 
Q 2172 3584 2448 3432 
Q 2725 3281 2906 2969 
z
M 947 1747 
Q 947 1113 1208 752 
Q 1469 391 1925 391 
Q 2381 391 2643 752 
Q 2906 1113 2906 1747 
Q 2906 2381 2643 2742 
Q 2381 3103 1925 3103 
Q 1469 3103 1208 2742 
Q 947 2381 947 1747 
z
" transform="scale(0.015625)"/>
      <path id="DejaVuSans-6c" d="M 603 4863 
L 1178 4863 
L 1178 0 
L 603 0 
L 603 4863 
z
" transform="scale(0.015625)"/>
      <path id="DejaVuSans-69" d="M 603 3500 
L 1178 3500 
L 1178 0 
L 603 0 
L 603 3500 
z
M 603 4863 
L 1178 4863 
L 1178 4134 
L 603 4134 
L 603 4863 
z
" transform="scale(0.015625)"/>
      <path id="DejaVuSans-63" d="M 3122 3366 
L 3122 2828 
Q 2878 2963 2633 3030 
Q 2388 3097 2138 3097 
Q 1578 3097 1268 2742 
Q 959 2388 959 1747 
Q 959 1106 1268 751 
Q 1578 397 2138 397 
Q 2388 397 2633 464 
Q 2878 531 3122 666 
L 3122 134 
Q 2881 22 2623 -34 
Q 2366 -91 2075 -91 
Q 1284 -91 818 406 
Q 353 903 353 1747 
Q 353 2603 823 3093 
Q 1294 3584 2113 3584 
Q 2378 3584 2631 3529 
Q 2884 3475 3122 3366 
z
" transform="scale(0.015625)"/>
      <path id="DejaVuSans-68" d="M 3513 2113 
L 3513 0 
L 2938 0 
L 2938 2094 
Q 2938 2591 2744 2837 
Q 2550 3084 2163 3084 
Q 1697 3084 1428 2787 
Q 1159 2491 1159 1978 
L 1159 0 
L 581 0 
L 581 4863 
L 1159 4863 
L 1159 2956 
Q 1366 3272 1645 3428 
Q 1925 3584 2291 3584 
Q 2894 3584 3203 3211 
Q 3513 2838 3513 2113 
z
" transform="scale(0.015625)"/>
      <path id="DejaVuSans-73" d="M 2834 3397 
L 2834 2853 
Q 2591 2978 2328 3040 
Q 2066 3103 1784 3103 
Q 1356 3103 1142 2972 
Q 928 2841 928 2578 
Q 928 2378 1081 2264 
Q 1234 2150 1697 2047 
L 1894 2003 
Q 2506 1872 2764 1633 
Q 3022 1394 3022 966 
Q 3022 478 2636 193 
Q 2250 -91 1575 -91 
Q 1294 -91 989 -36 
Q 684 19 347 128 
L 347 722 
Q 666 556 975 473 
Q 1284 391 1588 391 
Q 1994 391 2212 530 
Q 2431 669 2431 922 
Q 2431 1156 2273 1281 
Q 2116 1406 1581 1522 
L 1381 1569 
Q 847 1681 609 1914 
Q 372 2147 372 2553 
Q 372 3047 722 3315 
Q 1072 3584 1716 3584 
Q 2034 3584 2315 3537 
Q 2597 3491 2834 3397 
z
" transform="scale(0.015625)"/>
      <path id="DejaVuSans-5f" d="M 3263 -1063 
L 3263 -1509 
L -63 -1509 
L -63 -1063 
L 3263 -1063 
z
" transform="scale(0.015625)"/>
      <path id="DejaVuSans-57" d="M 213 4666 
L 850 4666 
L 1831 722 
L 2809 4666 
L 3519 4666 
L 4500 722 
L 5478 4666 
L 6119 4666 
L 4947 0 
L 4153 0 
L 3169 4050 
L 2175 0 
L 1381 0 
L 213 4666 
z
" transform="scale(0.015625)"/>
      <path id="DejaVuSans-df" d="M 581 3553 
Q 581 4178 954 4520 
Q 1328 4863 2009 4863 
Q 2659 4863 3001 4500 
Q 3344 4138 3353 3438 
Q 2881 3413 2618 3233 
Q 2356 3053 2356 2753 
Q 2356 2606 2447 2479 
Q 2538 2353 2741 2222 
L 2919 2106 
Q 3438 1775 3588 1553 
Q 3738 1331 3738 1019 
Q 3738 481 3386 195 
Q 3034 -91 2375 -91 
Q 2175 -91 1962 -52 
Q 1750 -13 1522 63 
L 1522 575 
Q 1772 481 1990 436 
Q 2209 391 2413 391 
Q 2775 391 2962 539 
Q 3150 688 3150 972 
Q 3150 1169 3058 1300 
Q 2966 1431 2650 1625 
L 2363 1797 
Q 2063 1981 1927 2192 
Q 1791 2403 1791 2688 
Q 1791 3084 2052 3353 
Q 2313 3622 2784 3713 
Q 2759 4034 2554 4209 
Q 2350 4384 1997 4384 
Q 1591 4384 1378 4167 
Q 1166 3950 1166 3541 
L 1166 0 
L 581 0 
L 581 3553 
z
" transform="scale(0.015625)"/>
      <path id="DejaVuSans-6e" d="M 3513 2113 
L 3513 0 
L 2938 0 
L 2938 2094 
Q 2938 2591 2744 2837 
Q 2550 3084 2163 3084 
Q 1697 3084 1428 2787 
Q 1159 2491 1159 1978 
L 1159 0 
L 581 0 
L 581 3500 
L 1159 3500 
L 1159 2956 
Q 1366 3272 1645 3428 
Q 1925 3584 2291 3584 
Q 2894 3584 3203 3211 
Q 3513 2838 3513 2113 
z
" transform="scale(0.015625)"/>
     </defs>
     <use xlink:href="#DejaVuSans-53"/>
     <use xlink:href="#DejaVuSans-fc" x="63.476562"/>
     <use xlink:href="#DejaVuSans-64" x="126.855469"/>
     <use xlink:href="#DejaVuSans-6c" x="190.332031"/>
     <use xlink:href="#DejaVuSans-69" x="218.115234"/>
     <use xlink:href="#DejaVuSans-63" x="245.898438"/>
     <use xlink:href="#DejaVuSans-68" x="300.878906"/>
     <use xlink:href="#DejaVuSans-65" x="364.257812"/>
     <use xlink:href="#DejaVuSans-73" x="425.78125"/>
     <use xlink:href="#DejaVuSans-5f" x="477.880859"/>
     <use xlink:href="#DejaVuSans-57" x="527.880859"/>
     <use xlink:href="#DejaVuSans-65" x="620.882812"/>
     <use xlink:href="#DejaVuSans-69" x="682.40625"/>
     <use xlink:href="#DejaVuSans-df" x="710.189453"/>
     <use xlink:href="#DejaVuSans-65" x="773.177734"/>
     <use xlink:href="#DejaVuSans-6e" x="834.701172"/>
     <use xlink:href="#DejaVuSans-73" x="898.080078"/>
     <use xlink:href="#DejaVuSans-65" x="950.179688"/>
     <use xlink:href="#DejaVuSans-65" x="1011.703125"/>
    </g>
   </g>
  </g>
 </g>
 <defs>
  <clipPath id="pce0ace9907">
   <rect x="90" y="164.273355" width="558" height="398.65329"/>
  </clipPath>
 </defs>
</svg>
