<?xml version="1.0" encoding="utf-8" standalone="no"?>
<!DOCTYPE svg PUBLIC "-//W3C//DTD SVG 1.1//EN"
  "http://www.w3.org/Graphics/SVG/1.1/DTD/svg11.dtd">
<svg xmlns:xlink="http://www.w3.org/1999/xlink" width="720pt" height="720pt" viewBox="0 0 720 720" xmlns="http://www.w3.org/2000/svg" version="1.1">
 <metadata>
  <rdf:RDF xmlns:dc="http://purl.org/dc/elements/1.1/" xmlns:cc="http://creativecommons.org/ns#" xmlns:rdf="http://www.w3.org/1999/02/22-rdf-syntax-ns#">
   <cc:Work>
    <dc:type rdf:resource="http://purl.org/dc/dcmitype/StillImage"/>
    <dc:date>2024-10-17T11:36:16.433393</dc:date>
    <dc:format>image/svg+xml</dc:format>
    <dc:creator>
     <cc:Agent>
      <dc:title>Matplotlib v3.9.2, https://matplotlib.org/</dc:title>
     </cc:Agent>
    </dc:creator>
   </cc:Work>
  </rdf:RDF>
 </metadata>
 <defs>
  <style type="text/css">*{stroke-linejoin: round; stroke-linecap: butt}</style>
 </defs>
 <g id="figure_1">
  <g id="patch_1">
   <path d="M 0 720 
L 720 720 
L 720 0 
L 0 0 
z
" style="fill: #ffffff"/>
  </g>
  <g id="axes_1">
   <g id="patch_2">
    <path d="M 103.032435 640.8 
L 634.967565 640.8 
L 634.967565 86.4 
L 103.032435 86.4 
z
" style="fill: #ffffff"/>
   </g>
   <g id="PatchCollection_1">
    <path d="M 597.080935 342.704342 
L 596.625824 342.603 
L 595.442373 341.771384 
L 595.38239 341.729621 
L 595.247912 340.835442 
L 595.71939 340.115568 
L 595.407574 340.055659 
L 595.403835 340.054941 
L 594.759988 339.931347 
L 593.820822 339.735032 
L 591.90105 339.372314 
L 591.504551 339.297497 
L 590.733482 339.151813 
L 588.505331 338.730804 
L 588.164945 338.641636 
L 587.691774 338.550775 
L 587.439669 338.502241 
L 586.644413 338.379292 
L 585.178785 338.224014 
L 584.65321 338.36349 
L 584.39272 338.432664 
L 584.324192 338.332693 
L 584.247681 338.221031 
L 582.975381 336.364623 
L 582.838408 336.164766 
L 583.394781 335.174486 
L 583.992029 334.934152 
L 584.099175 334.455337 
L 584.252922 333.768841 
L 584.422631 333.010832 
L 585.565851 331.31656 
L 586.306123 330.219698 
L 588.44559 327.049075 
L 588.759127 326.584452 
L 588.914891 326.353629 
L 590.095762 324.635332 
L 590.282885 324.362991 
L 591.425058 322.700887 
L 593.436255 319.774227 
L 594.656147 317.953217 
L 596.919449 314.574751 
L 597.936738 313.056074 
L 602.763176 306.422815 
L 603.804651 304.938241 
L 605.600507 302.37825 
L 606.560554 301.009772 
L 606.945363 300.461139 
L 607.913956 299.244149 
L 609.442147 297.323974 
L 610.32262 296.231707 
L 610.739355 295.693797 
L 610.788696 295.220948 
L 610.561664 294.816307 
L 609.897984 294.342733 
L 608.764196 293.53361 
L 608.49508 293.477658 
L 608.367858 292.960871 
L 608.295621 292.667568 
L 608.722676 292.64064 
L 608.732028 292.639995 
L 608.813617 292.375394 
L 608.84119 292.285903 
L 609.130865 291.621336 
L 609.233497 291.385839 
L 609.111032 290.841318 
L 609.069995 290.668948 
L 608.490645 288.235453 
L 607.518182 283.78173 
L 607.444252 283.443602 
L 606.202028 277.832792 
L 605.501825 275.617782 
L 605.147872 274.773628 
L 603.922924 271.869583 
L 603.627202 271.154547 
L 603.514815 270.882205 
L 603.37155 271.028776 
L 603.285526 270.820449 
L 603.064218 270.284957 
L 603.030276 270.202562 
L 604.089247 269.049264 
L 604.264358 268.885198 
L 605.491264 267.644989 
L 606.201141 266.927372 
L 606.979063 265.892185 
L 607.143048 265.57268 
L 607.250034 265.239389 
L 607.399991 264.772587 
L 608.694619 261.393234 
L 608.766453 261.14645 
L 608.588682 261.102189 
L 608.020619 260.960858 
L 606.923837 260.583789 
L 605.467158 259.791274 
L 604.232432 258.884277 
L 602.988595 257.8815 
L 602.182939 257.023198 
L 601.905035 256.759967 
L 597.914405 252.96533 
L 594.558513 249.788177 
L 590.711714 246.129791 
L 589.004945 244.587653 
L 588.576827 244.205939 
L 588.490658 244.562257 
L 587.317929 249.529783 
L 586.672711 252.262628 
L 586.191317 254.317039 
L 585.670176 256.535676 
L 585.295284 258.128606 
L 584.641117 260.90402 
L 584.199711 262.775338 
L 583.828366 264.34908 
L 583.640839 265.143529 
L 583.273928 266.736056 
L 582.731261 269.091671 
L 582.196092 271.414472 
L 581.907949 272.616385 
L 581.631899 273.819588 
L 581.40906 274.756255 
L 581.129947 275.949139 
L 580.791254 277.36591 
L 580.281888 279.643124 
L 579.28766 279.420736 
L 578.038334 279.141288 
L 577.072885 279.931464 
L 576.103244 280.724785 
L 576.003353 280.806697 
L 573.997719 282.453402 
L 573.655156 282.761217 
L 573.357741 282.96777 
L 572.985106 283.273489 
L 570.921263 284.973082 
L 569.787717 285.906363 
L 568.620794 286.858428 
L 565.006589 289.839428 
L 563.80266 290.843495 
L 562.568175 291.850948 
L 561.119881 293.015694 
L 560.806503 293.299645 
L 556.724046 296.652876 
L 551.79546 300.703488 
L 551.245134 301.155697 
L 550.356598 301.88444 
L 550.158349 302.049151 
L 547.693491 303.217122 
L 546.961846 303.551381 
L 545.575067 304.207806 
L 544.41548 304.756761 
L 544.269796 304.825774 
L 541.922486 305.940454 
L 541.721979 306.035668 
L 541.541869 306.121289 
L 541.195517 306.285758 
L 541.013255 306.373656 
L 540.645513 306.551004 
L 540.433961 306.651782 
L 540.222489 306.751673 
L 538.157034 307.72736 
L 538.040454 307.782425 
L 537.315017 308.124908 
L 536.613686 308.456587 
L 535.911952 308.787379 
L 535.162893 309.141551 
L 535.058568 309.190328 
L 534.413511 309.495079 
L 533.674207 309.846107 
L 532.359745 310.467864 
L 530.836714 311.186529 
L 529.964948 311.59754 
L 527.038933 312.970534 
L 525.723343 313.594709 
L 519.490373 316.532818 
L 516.907807 317.750453 
L 516.827669 317.788426 
L 516.355547 318.012232 
L 515.80901 318.270707 
L 511.624323 320.249494 
L 510.014543 321.010404 
L 509.126653 321.430445 
L 506.813445 322.524728 
L 504.546596 323.555158 
L 503.821401 323.905058 
L 502.338036 324.62074 
L 499.808197 325.816687 
L 499.40025 325.997603 
L 499.148225 326.109183 
L 498.99069 326.178922 
L 496.582832 327.303276 
L 494.965474 328.020167 
L 493.485898 328.692475 
L 491.650296 329.533927 
L 491.219129 329.724517 
L 491.094891 329.777002 
L 490.556013 330.026689 
L 490.362036 330.116179 
L 488.851421 330.812995 
L 487.300737 331.536175 
L 485.339767 332.43898 
L 484.039576 333.045177 
L 482.16987 333.905818 
L 480.742941 334.579657 
L 478.984413 335.394423 
L 477.670436 336.003119 
L 476.165464 336.700419 
L 475.1747 337.159239 
L 474.623729 337.289605 
L 474.145413 337.402752 
L 473.591041 337.53389 
L 471.96949 337.8671 
L 470.827318 338.067769 
L 469.223262 338.320519 
L 469.19706 338.260375 
L 467.789722 338.468944 
L 466.445833 338.668403 
L 466.145274 338.713067 
L 464.425606 338.973718 
L 461.468793 339.406175 
L 460.215846 339.599023 
L 460.00768 339.631111 
L 460.026627 339.745513 
L 458.937745 339.912885 
L 458.711601 339.947713 
L 458.663872 339.830973 
L 456.823513 340.100089 
L 452.627701 340.713542 
L 452.587148 340.719427 
L 452.595291 340.828912 
L 452.032065 340.910098 
L 450.31272 341.15785 
L 450.503149 342.659355 
L 450.946893 345.298194 
L 450.989219 345.504103 
L 451.483594 347.914057 
L 451.669992 348.60789 
L 451.729813 348.830649 
L 452.36971 351.212626 
L 452.585132 351.882676 
L 452.659385 352.113739 
L 453.420457 354.481447 
L 453.671111 355.175038 
L 453.741414 355.36966 
L 453.896692 355.799536 
L 453.742784 355.826222 
L 453.751088 355.850893 
L 454.49781 358.06566 
L 454.302785 358.125724 
L 454.157423 358.17063 
L 454.04036 358.206104 
L 453.261713 358.414754 
L 450.014015 359.416241 
L 450.002567 359.38375 
L 447.204821 360.24955 
L 445.725649 360.706677 
L 445.714684 360.653386 
L 445.700817 360.600659 
L 445.684128 360.548819 
L 445.664699 360.497946 
L 445.642447 360.448203 
L 445.617615 360.399749 
L 445.590204 360.352746 
L 445.560212 360.307275 
L 445.527802 360.263417 
L 445.493135 360.221493 
L 445.45621 360.181424 
L 445.417108 360.143451 
L 445.376072 360.107736 
L 445.3331 360.074197 
L 445.288436 360.043077 
L 445.242159 360.014375 
L 445.19435 359.988254 
L 445.14517 359.964793 
L 445.094862 359.944073 
L 445.043425 359.926014 
L 444.991102 359.910857 
L 444.938133 359.898441 
L 444.862912 359.884413 
L 444.787208 359.873126 
L 444.711182 359.864822 
L 444.634913 359.859339 
L 444.558484 359.856759 
L 444.482054 359.857082 
L 444.405624 359.860307 
L 444.329356 359.866434 
L 444.25341 359.875383 
L 444.177867 359.887235 
L 444.102808 359.901988 
L 444.028313 359.919483 
L 443.954625 359.939881 
L 443.881662 359.962939 
L 443.855701 359.888283 
L 443.19315 360.094111 
L 443.214998 360.173604 
L 443.144212 360.19255 
L 443.074232 360.214479 
L 443.00522 360.239392 
L 442.937336 360.267206 
L 442.870742 360.297923 
L 442.805519 360.331462 
L 442.741747 360.367661 
L 442.679587 360.406682 
L 442.619201 360.448203 
L 442.560589 360.492303 
L 442.503912 360.538902 
L 442.449331 360.587759 
L 442.396846 360.639035 
L 442.346538 360.692407 
L 442.298648 360.747955 
L 442.253097 360.805439 
L 442.210045 360.864857 
L 442.169572 360.925969 
L 442.143128 360.974342 
L 442.119506 361.024086 
L 442.098786 361.0752 
L 442.08113 361.127363 
L 442.066537 361.180493 
L 442.055089 361.234429 
L 442.046785 361.288849 
L 442.041706 361.343752 
L 442.039771 361.398817 
L 442.041141 361.453801 
L 442.045656 361.508705 
L 442.053396 361.563286 
L 442.064361 361.617303 
L 442.078389 361.670594 
L 442.095561 361.722918 
L 442.115717 361.774193 
L 442.138775 361.824259 
L 441.210976 362.116111 
L 437.936916 363.16315 
L 437.899265 363.175162 
L 436.867948 363.500633 
L 436.830378 363.512324 
L 436.680099 363.559165 
L 436.424043 363.6389 
L 436.269975 363.689208 
L 436.156378 363.724118 
L 436.159442 363.733792 
L 435.140782 364.055474 
L 428.703678 366.08852 
L 428.720286 366.144472 
L 427.3535 367.01003 
L 426.560341 367.513272 
L 426.511645 367.544151 
L 426.609117 367.931781 
L 427.130258 369.945317 
L 427.58545 371.668693 
L 428.845895 376.052839 
L 428.54203 376.145715 
L 427.238937 376.544149 
L 425.922056 376.946776 
L 424.619285 377.345049 
L 422.505859 377.991234 
L 422.274635 378.06194 
L 421.85661 378.189726 
L 421.770747 378.216008 
L 418.769431 379.133648 
L 418.622779 379.178555 
L 418.995737 380.198423 
L 417.258816 380.77479 
L 417.288565 380.86162 
L 419.201646 386.404062 
L 419.219947 386.458402 
L 419.73109 387.940154 
L 420.07188 388.926161 
L 420.17951 389.241797 
L 417.596945 390.194668 
L 415.485373 390.973477 
L 415.402494 391.004194 
L 415.288897 391.04636 
L 413.279554 391.786873 
L 413.546897 392.605348 
L 413.832541 393.480581 
L 414.166155 394.504319 
L 414.617396 395.872797 
L 414.666011 396.020416 
L 414.716642 396.173921 
L 415.16998 397.548768 
L 415.60034 398.85412 
L 416.17058 400.538475 
L 415.305022 400.828231 
L 413.063568 401.558827 
L 412.943522 401.619778 
L 412.495586 401.847212 
L 412.021851 402.162445 
L 411.513529 402.567087 
L 411.231432 402.83846 
L 410.968685 403.157159 
L 410.863635 403.255921 
L 410.607821 403.608159 
L 410.395301 403.970958 
L 410.213337 404.341577 
L 410.101676 404.615934 
L 409.946398 405.106358 
L 409.859971 405.499713 
L 409.806357 405.900969 
L 409.780881 406.309158 
L 409.78983 406.726941 
L 409.818128 407.147466 
L 409.874241 407.587098 
L 407.847161 407.905797 
L 407.640043 409.467204 
L 407.579174 409.739626 
L 407.559824 409.826052 
L 407.31949 409.602487 
L 407.135349 409.4589 
L 406.14128 408.745959 
L 406.149584 408.649293 
L 405.7551 408.444433 
L 405.715273 408.652115 
L 405.572249 408.566656 
L 405.480582 408.385014 
L 405.226139 407.822675 
L 405.20808 407.782848 
L 405.179943 407.338379 
L 404.846409 407.069263 
L 404.325994 406.84594 
L 404.281329 406.836104 
L 404.235939 406.830944 
L 404.190227 406.83038 
L 404.144675 406.834491 
L 404.099769 406.843198 
L 403.882331 406.953409 
L 403.785585 407.002508 
L 403.745757 407.018309 
L 403.703753 407.026533 
L 403.660862 407.027017 
L 403.618697 407.01968 
L 403.578547 407.004765 
L 403.541784 406.982755 
L 403.483171 406.920837 
L 403.463258 406.882864 
L 402.873427 405.451582 
L 402.819894 405.377571 
L 402.689286 405.19738 
L 402.004563 405.058549 
L 401.737059 404.907625 
L 401.488421 404.69317 
L 399.412323 403.90509 
L 398.844663 403.862118 
L 398.591349 403.778271 
L 397.253104 403.114833 
L 396.749539 402.879739 
L 396.057721 402.52742 
L 395.22417 402.068197 
L 393.992426 401.747967 
L 393.665907 401.335666 
L 393.307704 401.086382 
L 392.404334 400.181158 
L 392.23148 399.998952 
L 392.030812 399.849157 
L 391.872954 399.64865 
L 390.950396 399.670176 
L 390.429497 399.623012 
L 389.671166 399.564803 
L 388.681047 399.549726 
L 388.684433 399.615917 
L 387.98544 399.657921 
L 387.116335 399.733625 
L 386.456202 399.874714 
L 385.11191 399.734673 
L 384.435168 399.412024 
L 383.978525 399.345833 
L 383.555501 399.250296 
L 382.995985 399.093406 
L 382.474844 398.911119 
L 381.691923 398.603063 
L 381.017842 398.326932 
L 380.389636 398.036209 
L 379.825846 397.780476 
L 379.276568 397.22112 
L 379.041635 397.054716 
L 378.725194 396.852919 
L 378.032892 396.28784 
L 377.767404 396.135303 
L 377.303505 395.803382 
L 376.452136 395.335371 
L 375.859484 395.097697 
L 375.548444 395.02812 
L 374.160616 394.853896 
L 373.575623 394.713936 
L 372.334366 395.091489 
L 372.100965 395.039569 
L 372.017521 394.99434 
L 371.118127 394.331948 
L 370.238113 393.683829 
L 369.953356 393.547577 
L 369.326358 393.089161 
L 368.774339 392.627116 
L 368.433388 392.355178 
L 367.504058 391.341597 
L 365.648058 389.821147 
L 364.348915 388.767578 
L 363.264307 387.65967 
L 362.469132 386.56837 
L 361.670329 385.803831 
L 361.587691 385.714422 
L 361.216185 385.478118 
L 359.491196 384.41157 
L 359.15081 384.193326 
L 356.780844 383.517874 
L 356.412402 383.411776 
L 355.363832 382.984801 
L 353.730671 382.380217 
L 353.132939 382.136255 
L 352.888655 382.03846 
L 352.643967 381.941633 
L 352.398956 381.845612 
L 352.174585 381.755638 
L 349.367246 380.253327 
L 349.28622 380.201084 
L 349.206808 380.146342 
L 349.129088 380.089342 
L 347.681681 379.051817 
L 344.356748 377.46195 
L 344.257663 377.403822 
L 344.162368 377.339727 
L 344.071184 377.269909 
L 343.984435 377.194527 
L 343.902523 377.113986 
L 343.825771 377.028526 
L 343.719672 376.867202 
L 343.617121 376.70362 
L 343.518198 376.53778 
L 343.422983 376.369764 
L 343.320835 376.114192 
L 343.222799 375.857088 
L 343.128955 375.598372 
L 342.503086 374.038739 
L 342.390296 373.783973 
L 342.271862 373.531868 
L 342.147865 373.282343 
L 342.018306 373.03572 
L 341.888343 372.811107 
L 341.759025 372.586172 
L 341.630272 372.360914 
L 341.580447 372.273278 
L 341.530703 372.185561 
L 341.48104 372.097844 
L 341.284323 371.751976 
L 341.086476 371.406833 
L 340.88734 371.062415 
L 340.674175 370.687201 
L 340.459237 370.312953 
L 340.242525 369.939834 
L 340.153034 369.779558 
L 340.062093 369.620007 
L 339.9697 369.461343 
L 339.936725 369.405472 
L 339.90359 369.349681 
L 339.870293 369.293971 
L 339.839979 369.251 
L 339.814099 369.205206 
L 339.792896 369.157075 
L 339.776691 369.107089 
L 339.765484 369.055653 
L 339.722593 368.947055 
L 339.686233 368.836119 
L 339.656644 368.723167 
L 339.633909 368.608603 
L 339.618107 368.492911 
L 339.599 368.305948 
L 339.587068 368.118341 
L 339.582311 367.930411 
L 339.58473 367.742481 
L 339.026825 366.264276 
L 338.940237 366.034906 
L 338.790764 365.404684 
L 338.78512 363.076723 
L 338.85897 363.06858 
L 338.906215 363.063339 
L 338.883157 362.496889 
L 339.311663 360.646775 
L 339.579731 359.876512 
L 340.317906 358.769088 
L 340.493501 358.35461 
L 340.666919 358.338163 
L 341.943246 358.216827 
L 344.231945 357.877489 
L 344.119074 357.572254 
L 343.903894 356.991049 
L 343.836735 356.809489 
L 343.170636 354.998476 
L 342.612167 353.479879 
L 342.062083 351.984582 
L 341.506194 350.473081 
L 340.949499 348.959805 
L 340.401753 347.470394 
L 340.208825 346.945867 
L 339.705259 345.576663 
L 339.149371 344.065403 
L 339.044562 343.773551 
L 339.027148 343.724936 
L 338.845022 343.234028 
L 338.787402 343.075792 
L 338.108863 341.179295 
L 337.482268 339.542184 
L 336.88107 337.871938 
L 336.09952 335.778103 
L 335.985762 335.47577 
L 335.68996 334.689544 
L 335.135441 333.207147 
L 334.627603 331.832541 
L 334.071311 330.339905 
L 333.179067 327.843041 
L 332.699931 326.515438 
L 332.486282 326.02187 
L 332.228695 325.439859 
L 331.620885 323.996322 
L 331.574125 323.93642 
L 331.52559 323.799282 
L 331.433762 323.553949 
L 331.115063 322.782154 
L 331.020171 322.512393 
L 330.848123 322.042205 
L 330.060123 322.418307 
L 329.261482 321.634903 
L 327.597201 319.744558 
L 326.88813 318.795556 
L 326.578703 318.064556 
L 326.481311 317.775042 
L 326.44092 317.654915 
L 326.20768 316.960195 
L 326.060303 316.521208 
L 325.977746 316.142124 
L 325.927035 315.890905 
L 325.62309 313.712821 
L 325.614222 313.441366 
L 325.567541 312.026853 
L 325.501673 310.033876 
L 325.496916 309.908025 
L 325.356634 306.20054 
L 325.325353 305.382388 
L 325.320354 305.249604 
L 325.282139 304.249245 
L 325.162658 301.122078 
L 324.987063 296.244848 
L 324.872741 292.560583 
L 324.803406 291.780726 
L 324.568876 291.132363 
L 322.985701 288.658073 
L 322.889128 288.383035 
L 322.771972 288.049377 
L 322.792289 287.977865 
L 322.830746 287.843065 
L 322.90516 287.581285 
L 323.827879 285.28912 
L 324.278314 284.38962 
L 324.791071 283.570743 
L 325.192326 283.043716 
L 326.619498 281.554869 
L 327.34437 280.798715 
L 329.287522 278.771636 
L 330.34488 277.668646 
L 335.044661 272.767229 
L 335.713824 272.072509 
L 337.872559 269.83549 
L 339.154853 268.506758 
L 339.571749 268.077768 
L 340.398528 267.205115 
L 340.674981 266.913747 
L 341.602302 265.945243 
L 342.348775 265.16562 
L 342.91055 264.578933 
L 343.458457 264.000873 
L 344.47373 262.928681 
L 345.171675 262.191795 
L 345.407494 261.942835 
L 346.16518 261.142983 
L 346.322151 260.944492 
L 346.89868 260.214621 
L 347.349276 259.350433 
L 347.877673 258.337176 
L 347.907906 258.274048 
L 348.080115 257.908105 
L 348.520392 256.97168 
L 349.297669 255.522499 
L 349.562512 254.994667 
L 349.806909 254.20866 
L 350.222081 252.873421 
L 350.687028 251.848231 
L 351.59717 249.531718 
L 352.847618 245.356303 
L 353.551287 242.974648 
L 354.125155 240.924832 
L 354.671127 238.597597 
L 356.654187 231.102328 
L 357.187341 228.798473 
L 358.18657 225.764101 
L 359.547873 221.547166 
L 361.187967 216.66647 
L 361.269557 216.385985 
L 361.828509 214.590049 
L 362.007986 214.098041 
L 362.309266 213.272126 
L 359.577461 211.907754 
L 357.015938 210.572492 
L 356.698046 210.406733 
L 356.405871 210.252826 
L 354.787223 209.401296 
L 352.822141 208.367802 
L 350.812315 207.310605 
L 350.616 207.207328 
L 348.804181 206.253812 
L 348.590291 206.140941 
L 347.660477 205.652452 
L 346.730583 205.163157 
L 344.58265 204.032917 
L 344.455751 204.275831 
L 342.782441 203.397051 
L 342.913774 203.156475 
L 341.248688 202.286321 
L 339.959783 201.356265 
L 338.670959 200.42629 
L 337.225568 199.386588 
L 335.790092 198.353981 
L 334.003911 197.067576 
L 333.819448 196.934711 
L 330.958575 194.872077 
L 333.382557 193.430958 
L 334.823515 192.574269 
L 337.241289 191.136939 
L 338.544302 190.362242 
L 338.778993 190.026451 
L 339.051254 189.62455 
L 339.28409 189.280859 
L 339.405184 189.09704 
L 339.460708 189.007904 
L 339.372043 188.854216 
L 339.230015 188.608033 
L 339.090379 188.365996 
L 338.955233 188.118531 
L 338.761132 187.872526 
L 338.590807 187.641239 
L 338.400748 187.383155 
L 338.214397 187.130105 
L 338.010866 186.96045 
L 337.826746 186.806975 
L 337.633274 186.645705 
L 336.484651 185.68826 
L 334.979277 184.483767 
L 330.639151 181.154077 
L 330.309326 180.858759 
L 329.697566 180.513535 
L 329.220203 180.027707 
L 326.030151 177.649679 
L 324.532758 176.453571 
L 324.44617 176.394878 
L 324.363774 176.330219 
L 324.286135 176.260078 
L 324.213575 176.184697 
L 324.146417 176.104478 
L 324.084983 176.019744 
L 324.029515 175.930979 
L 323.980416 175.838586 
L 323.639949 175.111295 
L 323.451132 174.299189 
L 323.300692 172.433515 
L 323.24087 170.911129 
L 323.268201 170.50165 
L 323.466692 169.439616 
L 323.730165 168.536488 
L 324.981097 165.384247 
L 329.469164 155.264408 
L 329.648387 154.738672 
L 329.766095 153.7962 
L 329.764402 149.541212 
L 329.763918 148.408633 
L 329.76674 148.346715 
L 329.761258 148.284959 
L 329.747632 148.224492 
L 329.726026 148.166364 
L 329.696841 148.111702 
L 329.660722 148.061394 
L 329.618153 148.016326 
L 329.569941 147.977305 
L 329.52834 147.948604 
L 327.895261 146.824249 
L 325.806747 145.386194 
L 323.73081 144.012394 
L 323.180807 143.572682 
L 321.821681 142.603686 
L 321.368101 142.058761 
L 321.299492 141.729098 
L 321.529829 141.086943 
L 321.839498 140.056916 
L 322.468995 138.928611 
L 322.5189 138.835896 
L 323.18379 137.708155 
L 323.302224 137.514904 
L 323.345518 137.452422 
L 323.3951 137.394777 
L 323.450487 137.342695 
L 323.510954 137.29666 
L 323.575935 137.257236 
L 325.795944 136.249541 
L 325.850041 136.177465 
L 325.908089 136.06919 
L 325.956785 135.976071 
L 326.180914 135.941162 
L 326.23356 135.911493 
L 326.282336 135.875858 
L 326.326678 135.834821 
L 326.366022 135.788947 
L 327.338969 133.968824 
L 327.407981 133.839426 
L 328.028129 132.330026 
L 327.563017 132.086945 
L 323.581337 129.870807 
L 316.714436 126.310618 
L 311.67951 123.896956 
L 311.162642 123.649204 
L 309.419271 122.606197 
L 307.824245 121.65131 
L 306.954575 121.207969 
L 305.88077 120.661352 
L 304.799548 120.11022 
L 303.726711 119.564247 
L 302.710873 119.046573 
L 302.446836 119.014244 
L 301.994055 118.958129 
L 301.765741 118.929833 
L 301.691972 118.921125 
L 301.520247 118.900406 
L 297.409571 116.90235 
L 295.152316 115.986161 
L 293.716437 115.576279 
L 291.411131 114.907519 
L 286.52334 114.195223 
L 285.850227 112.400093 
L 285.944232 112.267712 
L 285.445428 111.98513 
L 284.942503 111.700213 
L 284.807542 111.6 
L 284.73087 111.771806 
L 284.284869 112.761118 
L 283.710437 114.035188 
L 282.82166 115.975035 
L 282.088161 117.590781 
L 281.136176 119.687518 
L 281.760271 118.667569 
L 280.603264 121.213129 
L 276.038122 131.618289 
L 274.639814 134.732476 
L 273.186682 137.998152 
L 270.491891 144.053995 
L 267.655285 150.265439 
L 265.636187 154.647166 
L 265.118029 155.866655 
L 262.488945 161.757948 
L 262.06963 162.695583 
L 261.061613 164.83126 
L 258.309338 171.249903 
L 257.907276 172.187053 
L 257.79255 172.45488 
L 257.612203 172.937526 
L 257.383958 173.548356 
L 257.254076 173.80546 
L 256.425523 175.447086 
L 254.801151 178.575543 
L 253.477982 180.581016 
L 252.417641 182.115092 
L 251.423007 183.376343 
L 249.423419 185.89296 
L 248.099767 187.580056 
L 243.907824 193.036072 
L 243.708527 193.258024 
L 243.234066 193.916464 
L 241.271887 196.582957 
L 240.897801 197.090957 
L 240.314178 197.176577 
L 240.17454 197.184398 
L 240.133423 197.269857 
L 239.846513 197.712487 
L 239.512956 198.227082 
L 239.470871 198.281099 
L 238.984882 198.909467 
L 235.499591 203.409225 
L 234.902021 204.181422 
L 230.215462 210.252019 
L 227.342577 213.996107 
L 227.073299 214.347135 
L 226.217013 215.498095 
L 224.763317 217.454389 
L 224.554989 217.726891 
L 223.61542 218.958554 
L 222.007253 221.066981 
L 219.820703 223.933659 
L 219.468949 224.159159 
L 219.474995 224.434967 
L 215.840393 229.072104 
L 212.163625 233.763258 
L 209.552681 237.093754 
L 204.239931 244.08836 
L 202.006136 246.981401 
L 201.648739 247.444252 
L 200.541153 248.878276 
L 200.168357 249.363702 
L 199.804752 249.840662 
L 199.671241 250.015773 
L 199.122609 250.735405 
L 199.006835 250.887216 
L 198.951287 250.960098 
L 197.082065 251.409808 
L 195.770909 251.72504 
L 194.573349 251.870724 
L 193.774224 251.968358 
L 190.611583 252.353973 
L 187.881962 252.555044 
L 184.512284 252.803279 
L 174.633183 253.56024 
L 174.488466 253.571285 
L 171.807381 253.77671 
L 169.192969 253.775259 
L 166.743672 253.611193 
L 166.132718 253.570237 
L 165.412602 253.522025 
L 163.376735 253.385612 
L 162.102584 253.408106 
L 160.877533 253.429874 
L 152.476556 253.956819 
L 151.927117 253.998178 
L 150.289199 254.12145 
L 147.695186 254.501663 
L 145.049735 254.960967 
L 141.736492 255.623035 
L 133.177415 257.977601 
L 130.304772 258.91846 
L 129.24951 259.276987 
L 129.165744 259.305446 
L 127.572733 259.846501 
L 127.359407 259.91898 
L 127.300553 259.938974 
L 127.211304 259.969288 
L 127.275963 260.032576 
L 127.753729 260.490348 
L 128.692573 261.389848 
L 129.759605 262.412055 
L 133.068092 265.6038 
L 135.638483 268.083492 
L 136.343523 268.042214 
L 139.939427 267.831952 
L 139.171663 270.771431 
L 141.197856 272.716437 
L 142.23522 273.663262 
L 143.195186 274.597833 
L 144.107425 275.445735 
L 144.28697 275.612703 
L 147.699539 278.914095 
L 150.292989 280.987129 
L 152.236544 282.927137 
L 151.519895 283.3916 
L 151.84077 283.68708 
L 154.412291 285.977955 
L 157.10676 288.377589 
L 158.056406 289.222831 
L 159.360548 290.464168 
L 161.006689 292.031218 
L 161.356669 292.364429 
L 163.907147 294.791152 
L 164.491899 295.368971 
L 167.808125 298.643837 
L 169.645501 300.458881 
L 170.694797 301.448678 
L 170.972781 301.711909 
L 172.934315 303.565571 
L 175.51285 306.00084 
L 177.442861 307.8595 
L 182.084271 312.329347 
L 183.428321 312.787844 
L 183.435929 312.790505 
L 185.533362 313.524084 
L 187.477159 314.381338 
L 189.805282 317.261722 
L 189.595503 317.990545 
L 193.684249 321.84847 
L 197.546367 325.50218 
L 205.393713 332.942465 
L 209.572272 336.912536 
L 212.249971 339.512596 
L 213.261617 340.27915 
L 213.611274 340.544639 
L 214.489409 341.186551 
L 215.31764 339.270085 
L 215.509843 339.469383 
L 215.653914 339.617727 
L 216.897106 340.903568 
L 219.012225 343.39882 
L 221.811019 346.811792 
L 222.086423 347.147664 
L 224.400598 349.527707 
L 227.474313 352.428649 
L 228.765072 353.64846 
L 229.069098 353.935877 
L 229.602977 354.440491 
L 229.833556 354.658331 
L 230.389203 355.182858 
L 233.313203 357.939648 
L 237.522962 361.908268 
L 237.312216 362.377891 
L 239.418064 364.367804 
L 242.729936 367.49739 
L 248.17668 372.560373 
L 253.634469 377.626097 
L 259.493756 382.040314 
L 259.748521 381.622934 
L 263.373127 384.31837 
L 266.824314 386.724857 
L 270.273889 389.138681 
L 272.690937 390.991214 
L 274.947387 392.98016 
L 278.559899 396.784149 
L 279.790675 398.080148 
L 280.844566 399.272628 
L 280.857385 399.28714 
L 280.93325 399.372922 
L 281.516387 400.032273 
L 281.982546 400.559356 
L 282.27988 400.548311 
L 282.129842 400.763088 
L 282.097916 400.80477 
L 281.876125 401.093638 
L 286.514875 406.341326 
L 288.144085 408.201035 
L 290.58016 410.964032 
L 290.999153 411.437767 
L 291.520777 410.799402 
L 292.801377 410.564711 
L 293.320422 413.293122 
L 294.805157 413.021748 
L 295.118213 412.964507 
L 295.568567 415.71783 
L 295.690387 416.462535 
L 296.979534 416.234778 
L 297.385949 418.674723 
L 298.252878 419.591073 
L 298.785548 419.493118 
L 299.125773 421.401038 
L 300.811982 422.002398 
L 301.830561 422.369873 
L 302.232784 422.496288 
L 302.318808 422.523377 
L 305.636405 423.686269 
L 306.148113 423.862912 
L 307.146858 424.208378 
L 309.06655 424.872139 
L 310.854908 425.49059 
L 312.494357 426.057928 
L 312.793545 426.167412 
L 312.979217 426.225138 
L 314.646965 425.775509 
L 315.898622 424.840696 
L 317.649007 423.533491 
L 319.208559 425.0304 
L 320.380562 426.115492 
L 321.519912 427.205099 
L 322.671598 428.284466 
L 323.934865 429.461064 
L 326.261616 431.66003 
L 327.425315 432.750927 
L 328.566762 433.866575 
L 329.705225 434.936429 
L 330.855057 436.030954 
L 332.088251 437.175464 
L 333.245339 438.288532 
L 334.435562 439.385959 
L 335.579346 440.46968 
L 336.76054 441.609514 
L 337.01853 441.836062 
L 337.066581 441.881694 
L 338.167555 442.92583 
L 338.898636 443.612569 
L 339.382288 444.066874 
L 340.523573 445.13955 
L 341.683321 446.256246 
L 342.866691 447.367701 
L 344.015071 448.452954 
L 345.38621 449.759031 
L 344.580474 450.617091 
L 342.647399 452.675614 
L 344.644971 454.733007 
L 348.861745 459.075955 
L 350.147586 460.400252 
L 350.587137 460.853671 
L 350.699444 460.969444 
L 350.686061 460.979683 
L 349.389658 461.973994 
L 346.138575 465.21105 
L 346.057389 465.291913 
L 345.664437 465.908833 
L 345.770294 466.00824 
L 345.874941 466.106196 
L 346.037797 466.25841 
L 346.329569 466.531155 
L 346.387858 466.585575 
L 346.843534 466.314765 
L 347.160137 466.126593 
L 349.104176 468.369337 
L 349.316051 468.680941 
L 349.268887 469.164754 
L 349.07785 469.376778 
L 349.075877 469.378967 
L 347.812208 470.664485 
L 348.004411 470.842015 
L 348.563041 471.357915 
L 348.678411 471.464578 
L 348.466133 472.056505 
L 349.850333 473.417082 
L 356.345324 479.801057 
L 357.615605 481.049651 
L 358.19173 482.862195 
L 358.062573 483.021343 
L 358.014845 483.080117 
L 359.736932 484.660631 
L 359.93502 484.440775 
L 361.4333 484.731981 
L 362.762999 486.021531 
L 369.562742 492.616171 
L 370.930011 494.068416 
L 371.315384 494.491117 
L 372.084518 495.474706 
L 372.248181 495.70085 
L 372.381691 495.885314 
L 372.066701 496.156123 
L 372.314452 496.440074 
L 373.110514 497.449381 
L 373.713406 498.213678 
L 373.8137 498.340738 
L 374.154731 498.772953 
L 374.977479 500.026867 
L 375.826267 501.314401 
L 376.312338 502.065073 
L 376.67038 502.617979 
L 377.484985 503.95574 
L 377.648728 504.233483 
L 378.162129 505.104201 
L 378.192846 505.156283 
L 378.283466 505.313335 
L 378.358122 505.442491 
L 378.914575 506.430433 
L 379.632837 507.780046 
L 380.250966 508.911576 
L 380.348035 509.094992 
L 381.014779 510.417515 
L 381.949833 512.189185 
L 382.050369 512.45306 
L 385.608864 519.351968 
L 386.615188 522.397304 
L 387.203003 524.158412 
L 387.723338 526.075443 
L 388.115 528.006179 
L 388.781583 531.882244 
L 389.250158 535.35915 
L 389.278456 535.566913 
L 389.391085 536.453997 
L 389.484446 537.238772 
L 389.933268 540.892401 
L 390.764159 546.460723 
L 390.958378 549.803151 
L 391.071007 550.185945 
L 391.080278 550.217548 
L 391.122847 550.362104 
L 391.369711 551.200895 
L 391.417198 551.362623 
L 391.568364 550.983941 
L 394.598785 548.959442 
L 394.762528 548.885592 
L 394.929819 548.820207 
L 395.100173 548.76353 
L 395.273269 548.71556 
L 395.448541 548.676539 
L 395.625668 548.646548 
L 395.804004 548.625586 
L 395.983226 548.613815 
L 396.768807 548.787314 
L 399.18771 549.321273 
L 399.409743 549.370372 
L 400.02763 549.506704 
L 400.028377 549.506882 
L 401.371842 549.828144 
L 401.407154 549.836609 
L 403.789777 550.403302 
L 404.161686 550.491663 
L 404.596723 550.595182 
L 404.682021 550.615418 
L 405.743088 550.867846 
L 405.817824 550.885663 
L 406.40443 551.025139 
L 406.806815 551.11334 
L 409.557558 551.716634 
L 410.190037 551.855304 
L 410.258002 551.870219 
L 410.43271 551.908596 
L 410.698198 551.966724 
L 413.347841 552.547767 
L 414.151562 552.724087 
L 414.377062 552.773509 
L 414.789282 552.863886 
L 415.497225 553.019083 
L 416.355607 553.207416 
L 417.305657 553.415744 
L 418.20032 553.611897 
L 418.869402 553.758629 
L 419.519296 553.901169 
L 420.576735 554.132957 
L 421.088765 554.245264 
L 421.19051 554.267596 
L 421.251138 554.2759 
L 422.664846 554.468748 
L 423.242019 554.547516 
L 423.531936 554.587101 
L 424.145711 554.651035 
L 425.197909 554.7606 
L 426.182062 554.86307 
L 426.910402 554.938855 
L 427.090592 554.957721 
L 427.900279 555.041971 
L 428.536226 555.108242 
L 429.339624 555.191847 
L 430.773245 555.341159 
L 431.640335 555.431375 
L 432.502185 555.521188 
L 433.627023 555.638251 
L 434.432679 555.722179 
L 435.322343 555.814814 
L 435.551793 555.838758 
L 436.36785 555.923734 
L 437.244292 556.014998 
L 437.737215 556.066274 
L 438.241344 556.118759 
L 438.70742 556.167293 
L 439.189056 556.217521 
L 439.670451 556.267668 
L 440.150797 556.317653 
L 440.835036 556.388842 
L 441.327556 556.440199 
L 441.857968 556.495425 
L 442.45312 556.557342 
L 443.022392 556.61668 
L 443.647777 556.681742 
L 444.767537 556.798322 
L 445.704526 556.900228 
L 451.539948 557.507715 
L 451.77351 557.532143 
L 451.773269 557.925176 
L 452.888433 558.039579 
L 453.13175 558.064491 
L 453.674578 558.12012 
L 454.180642 558.171799 
L 454.664939 558.22122 
L 455.238645 558.27959 
L 455.511067 558.307405 
L 456.583098 558.416648 
L 457.630701 558.523714 
L 457.906025 558.551851 
L 458.487229 558.611431 
L 458.992891 558.66319 
L 459.264023 558.690924 
L 459.48783 558.713821 
L 460.041139 558.770337 
L 460.312674 558.798071 
L 461.400184 558.908926 
L 462.469877 559.017927 
L 462.715129 559.04292 
L 463.315441 559.104273 
L 463.797883 559.153694 
L 464.297176 559.205051 
L 464.852178 559.262131 
L 465.178697 559.295509 
L 466.220495 559.401365 
L 466.539113 559.433211 
L 467.891628 559.57051 
L 468.166549 559.598647 
L 468.752591 559.658953 
L 469.233662 559.708616 
L 476.475778 560.447839 
L 477.274178 560.529348 
L 477.861913 560.547488 
L 478.046376 560.553212 
L 478.816881 560.576996 
L 479.048347 560.584171 
L 479.802324 560.60739 
L 479.994769 560.613356 
L 480.735524 560.636253 
L 480.858714 560.640042 
L 481.78748 560.668744 
L 482.497357 560.744448 
L 485.661046 561.176904 
L 486.023039 561.020659 
L 486.322308 560.891583 
L 486.864411 562.362371 
L 486.995341 562.717672 
L 487.023397 563.064185 
L 487.122804 564.34406 
L 487.172145 564.89882 
L 487.333308 566.886718 
L 487.402885 567.810888 
L 487.417155 567.999947 
L 487.510758 569.243542 
L 487.526318 569.450337 
L 487.554535 569.825068 
L 487.576948 570.12337 
L 487.688045 571.597624 
L 487.729243 572.156899 
L 487.787452 572.917487 
L 487.913626 574.739626 
L 487.977237 575.657911 
L 488.118083 577.69265 
L 488.141141 578.026425 
L 488.245063 579.52793 
L 488.346808 580.997266 
L 488.377364 581.43843 
L 488.43663 582.321192 
L 488.485558 583.049984 
L 488.510551 583.423667 
L 488.598752 584.737725 
L 488.680099 585.949878 
L 488.692032 586.127327 
L 488.687114 587.341898 
L 488.685421 587.755811 
L 488.676633 587.823775 
L 488.440007 589.661474 
L 488.155492 591.486596 
L 488.133563 591.6272 
L 488.043347 592.223803 
L 490.783125 592.780418 
L 492.733453 593.176595 
L 494.651935 593.56737 
L 496.563644 593.954758 
L 498.484303 594.344969 
L 500.497919 594.754045 
L 502.412934 595.143046 
L 506.47185 595.967729 
L 506.860529 596.046658 
L 506.965337 596.067942 
L 507.430446 596.162431 
L 507.989156 596.275947 
L 510.732805 596.833368 
L 516.139067 597.931619 
L 517.107347 598.128319 
L 519.177398 598.548924 
L 519.570269 598.628659 
L 519.726112 598.662198 
L 520.182755 598.760557 
L 520.298044 598.785308 
L 520.708169 598.887859 
L 523.261388 599.406743 
L 526.402583 600.045027 
L 526.924127 600.151045 
L 527.385688 600.24497 
L 527.920293 600.353648 
L 529.488633 600.672347 
L 530.468836 600.871564 
L 531.878109 601.157853 
L 533.30649 601.448173 
L 536.814838 602.161033 
L 537.221173 602.243026 
L 538.055208 602.411364 
L 538.477184 602.496582 
L 542.40001 603.296352 
L 542.507491 603.318269 
L 543.889018 603.599975 
L 545.993011 604.028884 
L 546.886384 604.21109 
L 550.889429 605.027146 
L 551.479582 605.147434 
L 553.987492 605.658739 
L 555.237859 605.928097 
L 555.711191 606.180122 
L 556.117284 606.39627 
L 556.597388 606.651761 
L 558.335922 607.830858 
L 559.395456 608.549442 
L 560.458135 609.270122 
L 560.668962 609.413146 
L 563.14817 611.094599 
L 563.312478 611.206099 
L 565.915844 612.971802 
L 566.198182 613.163199 
L 566.215032 613.174647 
L 566.797446 613.569695 
L 567.93075 614.338426 
L 568.347162 614.620845 
L 569.577777 615.455445 
L 569.596401 615.468102 
L 569.790861 615.6 
L 570.350862 613.721023 
L 570.59813 612.897227 
L 570.335221 611.119511 
L 570.123669 609.689035 
L 570.094967 609.49538 
L 570.089243 609.456762 
L 569.858181 607.774584 
L 569.678071 606.505432 
L 569.463939 604.994897 
L 569.388784 604.466544 
L 569.119844 602.598972 
L 569.043414 602.060417 
L 568.771879 600.144515 
L 568.598945 598.88802 
L 568.443667 597.607581 
L 568.253641 596.33206 
L 568.187289 595.786975 
L 568.231147 595.765368 
L 568.189224 595.428368 
L 568.141738 595.428932 
L 568.086028 595.046461 
L 567.803367 593.106131 
L 567.758299 592.796865 
L 567.552794 591.363486 
L 567.493295 590.924579 
L 567.254976 589.169518 
L 567.125745 588.256857 
L 567.053018 587.743234 
L 566.867345 586.31961 
L 566.840095 586.110154 
L 566.835419 586.074922 
L 566.822761 585.98132 
L 566.791883 585.753079 
L 566.605001 584.371863 
L 566.402398 582.941225 
L 566.37547 582.751763 
L 566.367247 582.693151 
L 566.268404 581.903458 
L 566.238251 581.662479 
L 566.157226 581.015003 
L 565.79088 578.407525 
L 565.891819 578.350122 
L 565.795069 577.680679 
L 565.353989 574.62869 
L 565.254421 573.939855 
L 565.045585 572.885174 
L 564.880899 572.053461 
L 567.456773 569.247976 
L 567.405658 568.884693 
L 567.077204 566.546251 
L 566.660872 563.59621 
L 566.183187 563.663126 
L 566.038954 562.607703 
L 565.829659 561.076449 
L 565.684056 560.010626 
L 565.666399 559.881953 
L 565.603111 559.41886 
L 565.306503 557.248596 
L 565.149209 556.098442 
L 565.026019 555.252878 
L 564.957651 554.783577 
L 564.883156 554.272272 
L 564.555186 552.021708 
L 564.103783 548.926387 
L 563.777748 546.574239 
L 563.535962 544.747747 
L 564.01389 544.67301 
L 563.48638 540.915217 
L 563.474689 540.831693 
L 563.433733 540.823953 
L 563.133819 538.439073 
L 562.951694 537.183385 
L 562.66992 535.450092 
L 562.407979 533.838538 
L 562.50142 533.830959 
L 562.43265 533.341503 
L 562.420476 533.255076 
L 562.349206 532.746835 
L 562.281483 532.263264 
L 562.053807 530.626476 
L 561.879099 529.389734 
L 561.842658 529.394652 
L 561.701488 528.353015 
L 561.669482 528.116873 
L 561.489049 526.841271 
L 561.335787 525.745215 
L 561.266452 525.159737 
L 561.250731 525.026631 
L 561.132942 524.034738 
L 561.023135 523.112825 
L 561.430276 523.065822 
L 560.421452 522.574189 
L 560.237151 521.076877 
L 559.743824 516.968942 
L 559.607815 515.587887 
L 559.44899 513.976252 
L 559.220345 511.654983 
L 558.975577 509.59896 
L 558.936717 509.272118 
L 558.63382 506.727929 
L 558.380667 504.548473 
L 558.213215 503.107032 
L 558.135818 502.440369 
L 557.807202 499.611664 
L 557.563401 497.512589 
L 557.283885 495.082318 
L 557.553485 493.466814 
L 557.723678 492.447107 
L 557.891049 491.444249 
L 558.050439 490.489281 
L 558.183949 489.689107 
L 558.282469 489.095971 
L 558.427428 488.219529 
L 558.713072 486.492121 
L 558.824572 485.858594 
L 558.902775 485.414205 
L 559.065793 484.487616 
L 559.246709 483.459846 
L 559.415773 482.498832 
L 559.58508 481.537091 
L 560.28891 477.602575 
L 560.367436 477.163104 
L 561.029584 473.461424 
L 561.489614 473.687731 
L 561.985923 470.570077 
L 561.55129 470.490906 
L 561.71076 469.558673 
L 561.841399 468.795266 
L 562.394919 465.560707 
L 562.848417 462.918885 
L 562.961663 462.259318 
L 562.961691 462.259155 
L 563.037637 461.814282 
L 563.234113 460.656066 
L 563.264911 460.472409 
L 563.584497 458.568681 
L 564.062021 455.724094 
L 564.318721 454.195258 
L 564.359516 453.952102 
L 564.819626 453.644691 
L 564.978613 453.538511 
L 565.285138 451.793528 
L 565.379788 451.254247 
L 565.423566 451.005528 
L 565.535792 450.366437 
L 565.582714 450.099175 
L 565.696552 449.450732 
L 565.753713 449.125745 
L 565.844332 448.609119 
L 565.881499 448.397486 
L 565.927695 448.134417 
L 566.077491 447.281758 
L 565.65866 447.051824 
L 565.629071 447.037796 
L 565.666561 446.834386 
L 565.740572 446.418619 
L 565.833045 445.910942 
L 565.880935 445.561768 
L 566.237284 443.476237 
L 566.347494 442.843596 
L 566.516317 441.811311 
L 566.667483 441.024602 
L 566.831388 440.0419 
L 566.913058 439.815835 
L 567.068981 439.749161 
L 567.221195 439.825671 
L 567.423798 439.422803 
L 567.452339 439.40555 
L 567.47201 439.393537 
L 567.943569 438.441955 
L 568.541865 436.362713 
L 568.35716 436.263467 
L 568.479624 435.571972 
L 568.569437 435.064537 
L 568.70881 434.277585 
L 568.798565 433.770796 
L 569.062028 432.40074 
L 569.298341 431.171864 
L 569.64808 429.061501 
L 570.343686 424.871494 
L 570.02265 424.797725 
L 570.693586 420.870142 
L 570.909976 419.60365 
L 571.250684 417.629378 
L 571.49634 416.200756 
L 571.743688 414.767296 
L 572.23892 411.896664 
L 572.113582 411.106411 
L 572.127691 411.032884 
L 572.178966 410.76538 
L 572.320447 409.891106 
L 572.669068 407.736813 
L 572.948665 405.963128 
L 572.989072 405.679534 
L 573.303966 403.469489 
L 573.548493 401.394278 
L 573.659026 400.313378 
L 573.699498 399.748702 
L 573.728361 399.345753 
L 573.773348 398.717868 
L 573.776734 398.641035 
L 573.78407 398.47439 
L 573.799147 398.132714 
L 573.813417 397.807404 
L 573.827042 397.497896 
L 573.840022 397.203061 
L 573.852357 396.922658 
L 573.864128 396.656121 
L 573.874851 396.413046 
L 573.883397 396.006791 
L 573.889121 395.600537 
L 573.89033 395.489359 
L 573.893313 395.194202 
L 573.894603 394.787786 
L 573.893197 394.348797 
L 573.911695 394.329531 
L 575.879276 392.28028 
L 575.92515 392.232471 
L 576.09889 392.051474 
L 578.316399 389.736574 
L 578.155558 389.576701 
L 579.918278 388.065441 
L 583.934142 384.192036 
L 584.961912 383.214171 
L 585.148794 383.036319 
L 587.2752 381.01327 
L 587.249965 379.917778 
L 589.024133 379.869163 
L 589.41563 379.291599 
L 591.324361 376.475701 
L 594.03447 373.625551 
L 596.189739 371.505675 
L 596.27931 371.570334 
L 596.549797 369.044769 
L 596.657347 367.578093 
L 594.753458 365.619138 
L 594.719919 365.176765 
L 594.668401 364.49696 
L 594.394528 360.885738 
L 594.393722 360.874935 
L 594.380339 360.698534 
L 593.654902 360.164897 
L 592.916646 359.621746 
L 592.131065 359.043847 
L 591.997716 358.94573 
L 592.017065 357.677223 
L 593.129165 356.13049 
L 592.384218 355.539047 
L 592.446619 355.449959 
L 592.566585 355.278637 
L 594.266178 352.851753 
L 592.856582 351.731752 
L 591.508098 350.659721 
L 595.843225 344.710621 
L 595.709151 344.597669 
L 597.080935 342.704342 
" clip-path="url(#p0a33694f3d)" style="fill: #d3d3d3"/>
   </g>
   <g id="PatchCollection_2">
    <path d="M 454.569201 446.102731 
L 454.569201 446.022109 
L 454.488579 446.022109 
L 454.488579 446.102731 
L 454.569201 446.102731 
" clip-path="url(#p0a33694f3d)" style="fill: #ff0000; fill-opacity: 0.7; stroke: #000000; stroke-opacity: 0.7; stroke-width: 0.5"/>
    <path d="M 471.715922 459.820501 
L 471.715922 459.739879 
L 471.6353 459.739879 
L 471.6353 459.820501 
L 471.715922 459.820501 
" clip-path="url(#p0a33694f3d)" style="fill: #ff0000; fill-opacity: 0.7; stroke: #000000; stroke-opacity: 0.7; stroke-width: 0.5"/>
    <path d="M 552.012289 388.566427 
L 552.012289 388.485805 
L 551.931667 388.485805 
L 551.931667 388.566427 
L 552.012289 388.566427 
" clip-path="url(#p0a33694f3d)" style="fill: #ff0000; fill-opacity: 0.7; stroke: #000000; stroke-opacity: 0.7; stroke-width: 0.5"/>
    <path d="M 431.867267 448.530034 
L 431.867267 448.449412 
L 431.786645 448.449412 
L 431.786645 448.530034 
L 431.867267 448.530034 
" clip-path="url(#p0a33694f3d)" style="fill: #ff0000; fill-opacity: 0.7; stroke: #000000; stroke-opacity: 0.7; stroke-width: 0.5"/>
    <path d="M 467.789619 443.405859 
L 467.789619 443.325237 
L 467.708997 443.325237 
L 467.708997 443.405859 
L 467.789619 443.405859 
" clip-path="url(#p0a33694f3d)" style="fill: #ff0000; fill-opacity: 0.7; stroke: #000000; stroke-opacity: 0.7; stroke-width: 0.5"/>
    <path d="M 489.263293 430.623806 
L 489.263293 430.543184 
L 489.182671 430.543184 
L 489.182671 430.623806 
L 489.263293 430.623806 
" clip-path="url(#p0a33694f3d)" style="fill: #ff0000; fill-opacity: 0.7; stroke: #000000; stroke-opacity: 0.7; stroke-width: 0.5"/>
    <path d="M 374.892554 490.060274 
L 374.892554 489.979652 
L 374.811932 489.979652 
L 374.811932 490.060274 
L 374.892554 490.060274 
" clip-path="url(#p0a33694f3d)" style="fill: #ff0000; fill-opacity: 0.7; stroke: #000000; stroke-opacity: 0.7; stroke-width: 0.5"/>
    <path d="M 438.366645 489.672337 
L 438.366645 489.591715 
L 438.286023 489.591715 
L 438.286023 489.672337 
L 438.366645 489.672337 
" clip-path="url(#p0a33694f3d)" style="fill: #ff0000; fill-opacity: 0.7; stroke: #000000; stroke-opacity: 0.7; stroke-width: 0.5"/>
    <path d="M 483.761317 549.778744 
L 483.761317 549.698122 
L 483.680695 549.698122 
L 483.680695 549.778744 
L 483.761317 549.778744 
" clip-path="url(#p0a33694f3d)" style="fill: #ff0000; fill-opacity: 0.7; stroke: #000000; stroke-opacity: 0.7; stroke-width: 0.5"/>
    <path d="M 479.004793 486.934316 
L 479.004793 486.853694 
L 478.924171 486.853694 
L 478.924171 486.934316 
L 479.004793 486.934316 
" clip-path="url(#p0a33694f3d)" style="fill: #ff0000; fill-opacity: 0.7; stroke: #000000; stroke-opacity: 0.7; stroke-width: 0.5"/>
    <path d="M 293.684662 236.093462 
L 293.684662 236.01284 
L 293.60404 236.01284 
L 293.60404 236.093462 
L 293.684662 236.093462 
" clip-path="url(#p0a33694f3d)" style="fill: #ff0000; fill-opacity: 0.7; stroke: #000000; stroke-opacity: 0.7; stroke-width: 0.5"/>
    <path d="M 404.899076 459.630339 
L 404.899076 459.549717 
L 404.818454 459.549717 
L 404.818454 459.630339 
L 404.899076 459.630339 
" clip-path="url(#p0a33694f3d)" style="fill: #ff0000; fill-opacity: 0.7; stroke: #000000; stroke-opacity: 0.7; stroke-width: 0.5"/>
    <path d="M 500.61581 431.101731 
L 500.61581 431.021109 
L 500.535188 431.021109 
L 500.535188 431.101731 
L 500.61581 431.101731 
" clip-path="url(#p0a33694f3d)" style="fill: #ff0000; fill-opacity: 0.7; stroke: #000000; stroke-opacity: 0.7; stroke-width: 0.5"/>
    <path d="M 476.236866 511.591495 
L 476.236866 511.510873 
L 476.156244 511.510873 
L 476.156244 511.591495 
L 476.236866 511.591495 
" clip-path="url(#p0a33694f3d)" style="fill: #ff0000; fill-opacity: 0.7; stroke: #000000; stroke-opacity: 0.7; stroke-width: 0.5"/>
    <path d="M 456.129542 483.763969 
L 456.129542 483.683347 
L 456.04892 483.683347 
L 456.04892 483.763969 
L 456.129542 483.763969 
" clip-path="url(#p0a33694f3d)" style="fill: #ff0000; fill-opacity: 0.7; stroke: #000000; stroke-opacity: 0.7; stroke-width: 0.5"/>
    <path d="M 431.86735 448.529965 
L 431.86735 448.449343 
L 431.786728 448.449343 
L 431.786728 448.529965 
L 431.86735 448.529965 
" clip-path="url(#p0a33694f3d)" style="fill: #ff0000; fill-opacity: 0.7; stroke: #000000; stroke-opacity: 0.7; stroke-width: 0.5"/>
    <path d="M 406.844625 442.410117 
L 406.844625 442.329495 
L 406.764003 442.329495 
L 406.764003 442.410117 
L 406.844625 442.410117 
" clip-path="url(#p0a33694f3d)" style="fill: #ff0000; fill-opacity: 0.7; stroke: #000000; stroke-opacity: 0.7; stroke-width: 0.5"/>
    <path d="M 477.414867 537.213242 
L 477.414867 537.13262 
L 477.334245 537.13262 
L 477.334245 537.213242 
L 477.414867 537.213242 
" clip-path="url(#p0a33694f3d)" style="fill: #ff0000; fill-opacity: 0.7; stroke: #000000; stroke-opacity: 0.7; stroke-width: 0.5"/>
    <path d="M 433.304554 490.537104 
L 433.304554 490.456482 
L 433.223932 490.456482 
L 433.223932 490.537104 
L 433.304554 490.537104 
" clip-path="url(#p0a33694f3d)" style="fill: #ff0000; fill-opacity: 0.7; stroke: #000000; stroke-opacity: 0.7; stroke-width: 0.5"/>
    <path d="M 279.939425 212.276292 
L 279.939425 212.19567 
L 279.858803 212.19567 
L 279.858803 212.276292 
L 279.939425 212.276292 
" clip-path="url(#p0a33694f3d)" style="fill: #ff0000; fill-opacity: 0.7; stroke: #000000; stroke-opacity: 0.7; stroke-width: 0.5"/>
    <path d="M 471.714939 459.820667 
L 471.714939 459.740045 
L 471.634317 459.740045 
L 471.634317 459.820667 
L 471.714939 459.820667 
" clip-path="url(#p0a33694f3d)" style="fill: #ff0000; fill-opacity: 0.7; stroke: #000000; stroke-opacity: 0.7; stroke-width: 0.5"/>
    <path d="M 471.716011 459.820431 
L 471.716011 459.739809 
L 471.635389 459.739809 
L 471.635389 459.820431 
L 471.716011 459.820431 
" clip-path="url(#p0a33694f3d)" style="fill: #ff0000; fill-opacity: 0.7; stroke: #000000; stroke-opacity: 0.7; stroke-width: 0.5"/>
    <path d="M 492.278494 422.208449 
L 492.278494 422.127827 
L 492.197872 422.127827 
L 492.197872 422.208449 
L 492.278494 422.208449 
" clip-path="url(#p0a33694f3d)" style="fill: #ff0000; fill-opacity: 0.7; stroke: #000000; stroke-opacity: 0.7; stroke-width: 0.5"/>
    <path d="M 242.039439 291.851504 
L 242.039439 291.770882 
L 241.958817 291.770882 
L 241.958817 291.851504 
L 242.039439 291.851504 
" clip-path="url(#p0a33694f3d)" style="fill: #ff0000; fill-opacity: 0.7; stroke: #000000; stroke-opacity: 0.7; stroke-width: 0.5"/>
    <path d="M 237.360106 289.109265 
L 237.360106 289.028643 
L 237.279484 289.028643 
L 237.279484 289.109265 
L 237.360106 289.109265 
" clip-path="url(#p0a33694f3d)" style="fill: #ff0000; fill-opacity: 0.7; stroke: #000000; stroke-opacity: 0.7; stroke-width: 0.5"/>
    <path d="M 463.714858 436.266895 
L 463.714858 436.186273 
L 463.634236 436.186273 
L 463.634236 436.266895 
L 463.714858 436.266895 
" clip-path="url(#p0a33694f3d)" style="fill: #ff0000; fill-opacity: 0.7; stroke: #000000; stroke-opacity: 0.7; stroke-width: 0.5"/>
    <path d="M 451.010341 447.437949 
L 451.010341 447.357327 
L 450.929719 447.357327 
L 450.929719 447.437949 
L 451.010341 447.437949 
" clip-path="url(#p0a33694f3d)" style="fill: #ff0000; fill-opacity: 0.7; stroke: #000000; stroke-opacity: 0.7; stroke-width: 0.5"/>
    <path d="M 471.347481 458.598906 
L 471.347481 458.518284 
L 471.266859 458.518284 
L 471.266859 458.598906 
L 471.347481 458.598906 
" clip-path="url(#p0a33694f3d)" style="fill: #ff0000; fill-opacity: 0.7; stroke: #000000; stroke-opacity: 0.7; stroke-width: 0.5"/>
    <path d="M 403.680544 485.836733 
L 403.680544 485.756111 
L 403.599922 485.756111 
L 403.599922 485.836733 
L 403.680544 485.836733 
" clip-path="url(#p0a33694f3d)" style="fill: #ff0000; fill-opacity: 0.7; stroke: #000000; stroke-opacity: 0.7; stroke-width: 0.5"/>
    <path d="M 320.332177 253.015081 
L 320.332177 252.934459 
L 320.251555 252.934459 
L 320.251555 253.015081 
L 320.332177 253.015081 
" clip-path="url(#p0a33694f3d)" style="fill: #ff0000; fill-opacity: 0.7; stroke: #000000; stroke-opacity: 0.7; stroke-width: 0.5"/>
    <path d="M 477.643289 466.381764 
L 477.643289 466.301142 
L 477.562667 466.301142 
L 477.562667 466.381764 
L 477.643289 466.381764 
" clip-path="url(#p0a33694f3d)" style="fill: #ff0000; fill-opacity: 0.7; stroke: #000000; stroke-opacity: 0.7; stroke-width: 0.5"/>
    <path d="M 565.194096 612.308668 
L 565.194096 612.228046 
L 565.113474 612.228046 
L 565.113474 612.308668 
L 565.194096 612.308668 
" clip-path="url(#p0a33694f3d)" style="fill: #ff0000; fill-opacity: 0.7; stroke: #000000; stroke-opacity: 0.7; stroke-width: 0.5"/>
    <path d="M 467.395058 447.923716 
L 467.395058 447.843094 
L 467.314436 447.843094 
L 467.314436 447.923716 
L 467.395058 447.923716 
" clip-path="url(#p0a33694f3d)" style="fill: #ff0000; fill-opacity: 0.7; stroke: #000000; stroke-opacity: 0.7; stroke-width: 0.5"/>
    <path d="M 530.706452 530.809217 
L 530.706452 530.728595 
L 530.62583 530.728595 
L 530.62583 530.809217 
L 530.706452 530.809217 
" clip-path="url(#p0a33694f3d)" style="fill: #ff0000; fill-opacity: 0.7; stroke: #000000; stroke-opacity: 0.7; stroke-width: 0.5"/>
    <path d="M 478.666449 417.847003 
L 478.666449 417.766381 
L 478.585827 417.766381 
L 478.585827 417.847003 
L 478.666449 417.847003 
" clip-path="url(#p0a33694f3d)" style="fill: #ff0000; fill-opacity: 0.7; stroke: #000000; stroke-opacity: 0.7; stroke-width: 0.5"/>
    <path d="M 396.914022 472.905267 
L 396.914022 472.824645 
L 396.8334 472.824645 
L 396.8334 472.905267 
L 396.914022 472.905267 
" clip-path="url(#p0a33694f3d)" style="fill: #ff0000; fill-opacity: 0.7; stroke: #000000; stroke-opacity: 0.7; stroke-width: 0.5"/>
    <path d="M 391.178367 481.879667 
L 391.178367 481.799045 
L 391.097744 481.799045 
L 391.097744 481.879667 
L 391.178367 481.879667 
" clip-path="url(#p0a33694f3d)" style="fill: #ff0000; fill-opacity: 0.7; stroke: #000000; stroke-opacity: 0.7; stroke-width: 0.5"/>
    <path d="M 278.993832 213.753805 
L 278.993832 213.673183 
L 278.91321 213.673183 
L 278.91321 213.753805 
L 278.993832 213.753805 
" clip-path="url(#p0a33694f3d)" style="fill: #ff0000; fill-opacity: 0.7; stroke: #000000; stroke-opacity: 0.7; stroke-width: 0.5"/>
    <path d="M 566.888882 588.926919 
L 566.888882 588.846297 
L 566.80826 588.846297 
L 566.80826 588.926919 
L 566.888882 588.926919 
" clip-path="url(#p0a33694f3d)" style="fill: #ff0000; fill-opacity: 0.7; stroke: #000000; stroke-opacity: 0.7; stroke-width: 0.5"/>
    <path d="M 446.927268 486.529586 
L 446.927268 486.448964 
L 446.846646 486.448964 
L 446.846646 486.529586 
L 446.927268 486.529586 
" clip-path="url(#p0a33694f3d)" style="fill: #ff0000; fill-opacity: 0.7; stroke: #000000; stroke-opacity: 0.7; stroke-width: 0.5"/>
    <path d="M 482.112478 545.793198 
L 482.112478 545.712576 
L 482.031856 545.712576 
L 482.031856 545.793198 
L 482.112478 545.793198 
" clip-path="url(#p0a33694f3d)" style="fill: #ff0000; fill-opacity: 0.7; stroke: #000000; stroke-opacity: 0.7; stroke-width: 0.5"/>
    <path d="M 428.64778 456.003047 
L 428.64778 455.922425 
L 428.567158 455.922425 
L 428.567158 456.003047 
L 428.64778 456.003047 
" clip-path="url(#p0a33694f3d)" style="fill: #ff0000; fill-opacity: 0.7; stroke: #000000; stroke-opacity: 0.7; stroke-width: 0.5"/>
    <path d="M 446.927268 486.529586 
L 446.927268 486.448964 
L 446.846646 486.448964 
L 446.846646 486.529586 
L 446.927268 486.529586 
" clip-path="url(#p0a33694f3d)" style="fill: #ff0000; fill-opacity: 0.7; stroke: #000000; stroke-opacity: 0.7; stroke-width: 0.5"/>
    <path d="M 232.341147 298.992771 
L 232.341147 298.912149 
L 232.260525 298.912149 
L 232.260525 298.992771 
L 232.341147 298.992771 
" clip-path="url(#p0a33694f3d)" style="fill: #ff0000; fill-opacity: 0.7; stroke: #000000; stroke-opacity: 0.7; stroke-width: 0.5"/>
    <path d="M 477.643289 466.381755 
L 477.643289 466.301133 
L 477.562667 466.301133 
L 477.562667 466.381755 
L 477.643289 466.381755 
" clip-path="url(#p0a33694f3d)" style="fill: #ff0000; fill-opacity: 0.7; stroke: #000000; stroke-opacity: 0.7; stroke-width: 0.5"/>
    <path d="M 326.906371 246.94001 
L 326.906371 246.859388 
L 326.825749 246.859388 
L 326.825749 246.94001 
L 326.906371 246.94001 
" clip-path="url(#p0a33694f3d)" style="fill: #ff0000; fill-opacity: 0.7; stroke: #000000; stroke-opacity: 0.7; stroke-width: 0.5"/>
    <path d="M 402.73303 420.673202 
L 402.73303 420.59258 
L 402.652408 420.59258 
L 402.652408 420.673202 
L 402.73303 420.673202 
" clip-path="url(#p0a33694f3d)" style="fill: #ff0000; fill-opacity: 0.7; stroke: #000000; stroke-opacity: 0.7; stroke-width: 0.5"/>
    <path d="M 470.311822 434.522852 
L 470.311822 434.44223 
L 470.2312 434.44223 
L 470.2312 434.522852 
L 470.311822 434.522852 
" clip-path="url(#p0a33694f3d)" style="fill: #ff0000; fill-opacity: 0.7; stroke: #000000; stroke-opacity: 0.7; stroke-width: 0.5"/>
   </g>
   <g id="matplotlib.axis_1">
    <g id="xtick_1">
     <g id="line2d_1">
      <defs>
       <path id="mcb8ad23bf6" d="M 0 0 
L 0 3.5 
" style="stroke: #000000; stroke-width: 0.8"/>
      </defs>
      <g>
       <use xlink:href="#mcb8ad23bf6" x="122.32835" y="640.8" style="stroke: #000000; stroke-width: 0.8"/>
      </g>
     </g>
     <g id="text_1">
      <!-- 388000 -->
      <g transform="translate(103.24085 655.398438) scale(0.1 -0.1)">
       <defs>
        <path id="DejaVuSans-33" d="M 2597 2516 
Q 3050 2419 3304 2112 
Q 3559 1806 3559 1356 
Q 3559 666 3084 287 
Q 2609 -91 1734 -91 
Q 1441 -91 1130 -33 
Q 819 25 488 141 
L 488 750 
Q 750 597 1062 519 
Q 1375 441 1716 441 
Q 2309 441 2620 675 
Q 2931 909 2931 1356 
Q 2931 1769 2642 2001 
Q 2353 2234 1838 2234 
L 1294 2234 
L 1294 2753 
L 1863 2753 
Q 2328 2753 2575 2939 
Q 2822 3125 2822 3475 
Q 2822 3834 2567 4026 
Q 2313 4219 1838 4219 
Q 1578 4219 1281 4162 
Q 984 4106 628 3988 
L 628 4550 
Q 988 4650 1302 4700 
Q 1616 4750 1894 4750 
Q 2613 4750 3031 4423 
Q 3450 4097 3450 3541 
Q 3450 3153 3228 2886 
Q 3006 2619 2597 2516 
z
" transform="scale(0.015625)"/>
        <path id="DejaVuSans-38" d="M 2034 2216 
Q 1584 2216 1326 1975 
Q 1069 1734 1069 1313 
Q 1069 891 1326 650 
Q 1584 409 2034 409 
Q 2484 409 2743 651 
Q 3003 894 3003 1313 
Q 3003 1734 2745 1975 
Q 2488 2216 2034 2216 
z
M 1403 2484 
Q 997 2584 770 2862 
Q 544 3141 544 3541 
Q 544 4100 942 4425 
Q 1341 4750 2034 4750 
Q 2731 4750 3128 4425 
Q 3525 4100 3525 3541 
Q 3525 3141 3298 2862 
Q 3072 2584 2669 2484 
Q 3125 2378 3379 2068 
Q 3634 1759 3634 1313 
Q 3634 634 3220 271 
Q 2806 -91 2034 -91 
Q 1263 -91 848 271 
Q 434 634 434 1313 
Q 434 1759 690 2068 
Q 947 2378 1403 2484 
z
M 1172 3481 
Q 1172 3119 1398 2916 
Q 1625 2713 2034 2713 
Q 2441 2713 2670 2916 
Q 2900 3119 2900 3481 
Q 2900 3844 2670 4047 
Q 2441 4250 2034 4250 
Q 1625 4250 1398 4047 
Q 1172 3844 1172 3481 
z
" transform="scale(0.015625)"/>
        <path id="DejaVuSans-30" d="M 2034 4250 
Q 1547 4250 1301 3770 
Q 1056 3291 1056 2328 
Q 1056 1369 1301 889 
Q 1547 409 2034 409 
Q 2525 409 2770 889 
Q 3016 1369 3016 2328 
Q 3016 3291 2770 3770 
Q 2525 4250 2034 4250 
z
M 2034 4750 
Q 2819 4750 3233 4129 
Q 3647 3509 3647 2328 
Q 3647 1150 3233 529 
Q 2819 -91 2034 -91 
Q 1250 -91 836 529 
Q 422 1150 422 2328 
Q 422 3509 836 4129 
Q 1250 4750 2034 4750 
z
" transform="scale(0.015625)"/>
       </defs>
       <use xlink:href="#DejaVuSans-33"/>
       <use xlink:href="#DejaVuSans-38" x="63.623047"/>
       <use xlink:href="#DejaVuSans-38" x="127.246094"/>
       <use xlink:href="#DejaVuSans-30" x="190.869141"/>
       <use xlink:href="#DejaVuSans-30" x="254.492188"/>
       <use xlink:href="#DejaVuSans-30" x="318.115234"/>
      </g>
     </g>
    </g>
    <g id="xtick_2">
     <g id="line2d_2">
      <g>
       <use xlink:href="#mcb8ad23bf6" x="202.950381" y="640.8" style="stroke: #000000; stroke-width: 0.8"/>
      </g>
     </g>
     <g id="text_2">
      <!-- 389000 -->
      <g transform="translate(183.862881 655.398438) scale(0.1 -0.1)">
       <defs>
        <path id="DejaVuSans-39" d="M 703 97 
L 703 672 
Q 941 559 1184 500 
Q 1428 441 1663 441 
Q 2288 441 2617 861 
Q 2947 1281 2994 2138 
Q 2813 1869 2534 1725 
Q 2256 1581 1919 1581 
Q 1219 1581 811 2004 
Q 403 2428 403 3163 
Q 403 3881 828 4315 
Q 1253 4750 1959 4750 
Q 2769 4750 3195 4129 
Q 3622 3509 3622 2328 
Q 3622 1225 3098 567 
Q 2575 -91 1691 -91 
Q 1453 -91 1209 -44 
Q 966 3 703 97 
z
M 1959 2075 
Q 2384 2075 2632 2365 
Q 2881 2656 2881 3163 
Q 2881 3666 2632 3958 
Q 2384 4250 1959 4250 
Q 1534 4250 1286 3958 
Q 1038 3666 1038 3163 
Q 1038 2656 1286 2365 
Q 1534 2075 1959 2075 
z
" transform="scale(0.015625)"/>
       </defs>
       <use xlink:href="#DejaVuSans-33"/>
       <use xlink:href="#DejaVuSans-38" x="63.623047"/>
       <use xlink:href="#DejaVuSans-39" x="127.246094"/>
       <use xlink:href="#DejaVuSans-30" x="190.869141"/>
       <use xlink:href="#DejaVuSans-30" x="254.492188"/>
       <use xlink:href="#DejaVuSans-30" x="318.115234"/>
      </g>
     </g>
    </g>
    <g id="xtick_3">
     <g id="line2d_3">
      <g>
       <use xlink:href="#mcb8ad23bf6" x="283.572412" y="640.8" style="stroke: #000000; stroke-width: 0.8"/>
      </g>
     </g>
     <g id="text_3">
      <!-- 390000 -->
      <g transform="translate(264.484912 655.398438) scale(0.1 -0.1)">
       <use xlink:href="#DejaVuSans-33"/>
       <use xlink:href="#DejaVuSans-39" x="63.623047"/>
       <use xlink:href="#DejaVuSans-30" x="127.246094"/>
       <use xlink:href="#DejaVuSans-30" x="190.869141"/>
       <use xlink:href="#DejaVuSans-30" x="254.492188"/>
       <use xlink:href="#DejaVuSans-30" x="318.115234"/>
      </g>
     </g>
    </g>
    <g id="xtick_4">
     <g id="line2d_4">
      <g>
       <use xlink:href="#mcb8ad23bf6" x="364.194443" y="640.8" style="stroke: #000000; stroke-width: 0.8"/>
      </g>
     </g>
     <g id="text_4">
      <!-- 391000 -->
      <g transform="translate(345.106943 655.398438) scale(0.1 -0.1)">
       <defs>
        <path id="DejaVuSans-31" d="M 794 531 
L 1825 531 
L 1825 4091 
L 703 3866 
L 703 4441 
L 1819 4666 
L 2450 4666 
L 2450 531 
L 3481 531 
L 3481 0 
L 794 0 
L 794 531 
z
" transform="scale(0.015625)"/>
       </defs>
       <use xlink:href="#DejaVuSans-33"/>
       <use xlink:href="#DejaVuSans-39" x="63.623047"/>
       <use xlink:href="#DejaVuSans-31" x="127.246094"/>
       <use xlink:href="#DejaVuSans-30" x="190.869141"/>
       <use xlink:href="#DejaVuSans-30" x="254.492188"/>
       <use xlink:href="#DejaVuSans-30" x="318.115234"/>
      </g>
     </g>
    </g>
    <g id="xtick_5">
     <g id="line2d_5">
      <g>
       <use xlink:href="#mcb8ad23bf6" x="444.816474" y="640.8" style="stroke: #000000; stroke-width: 0.8"/>
      </g>
     </g>
     <g id="text_5">
      <!-- 392000 -->
      <g transform="translate(425.728974 655.398438) scale(0.1 -0.1)">
       <defs>
        <path id="DejaVuSans-32" d="M 1228 531 
L 3431 531 
L 3431 0 
L 469 0 
L 469 531 
Q 828 903 1448 1529 
Q 2069 2156 2228 2338 
Q 2531 2678 2651 2914 
Q 2772 3150 2772 3378 
Q 2772 3750 2511 3984 
Q 2250 4219 1831 4219 
Q 1534 4219 1204 4116 
Q 875 4013 500 3803 
L 500 4441 
Q 881 4594 1212 4672 
Q 1544 4750 1819 4750 
Q 2544 4750 2975 4387 
Q 3406 4025 3406 3419 
Q 3406 3131 3298 2873 
Q 3191 2616 2906 2266 
Q 2828 2175 2409 1742 
Q 1991 1309 1228 531 
z
" transform="scale(0.015625)"/>
       </defs>
       <use xlink:href="#DejaVuSans-33"/>
       <use xlink:href="#DejaVuSans-39" x="63.623047"/>
       <use xlink:href="#DejaVuSans-32" x="127.246094"/>
       <use xlink:href="#DejaVuSans-30" x="190.869141"/>
       <use xlink:href="#DejaVuSans-30" x="254.492188"/>
       <use xlink:href="#DejaVuSans-30" x="318.115234"/>
      </g>
     </g>
    </g>
    <g id="xtick_6">
     <g id="line2d_6">
      <g>
       <use xlink:href="#mcb8ad23bf6" x="525.438505" y="640.8" style="stroke: #000000; stroke-width: 0.8"/>
      </g>
     </g>
     <g id="text_6">
      <!-- 393000 -->
      <g transform="translate(506.351005 655.398438) scale(0.1 -0.1)">
       <use xlink:href="#DejaVuSans-33"/>
       <use xlink:href="#DejaVuSans-39" x="63.623047"/>
       <use xlink:href="#DejaVuSans-33" x="127.246094"/>
       <use xlink:href="#DejaVuSans-30" x="190.869141"/>
       <use xlink:href="#DejaVuSans-30" x="254.492188"/>
       <use xlink:href="#DejaVuSans-30" x="318.115234"/>
      </g>
     </g>
    </g>
    <g id="xtick_7">
     <g id="line2d_7">
      <g>
       <use xlink:href="#mcb8ad23bf6" x="606.060536" y="640.8" style="stroke: #000000; stroke-width: 0.8"/>
      </g>
     </g>
     <g id="text_7">
      <!-- 394000 -->
      <g transform="translate(586.973036 655.398438) scale(0.1 -0.1)">
       <defs>
        <path id="DejaVuSans-34" d="M 2419 4116 
L 825 1625 
L 2419 1625 
L 2419 4116 
z
M 2253 4666 
L 3047 4666 
L 3047 1625 
L 3713 1625 
L 3713 1100 
L 3047 1100 
L 3047 0 
L 2419 0 
L 2419 1100 
L 313 1100 
L 313 1709 
L 2253 4666 
z
" transform="scale(0.015625)"/>
       </defs>
       <use xlink:href="#DejaVuSans-33"/>
       <use xlink:href="#DejaVuSans-39" x="63.623047"/>
       <use xlink:href="#DejaVuSans-34" x="127.246094"/>
       <use xlink:href="#DejaVuSans-30" x="190.869141"/>
       <use xlink:href="#DejaVuSans-30" x="254.492188"/>
       <use xlink:href="#DejaVuSans-30" x="318.115234"/>
      </g>
     </g>
    </g>
   </g>
   <g id="matplotlib.axis_2">
    <g id="ytick_1">
     <g id="line2d_8">
      <defs>
       <path id="m401eb88680" d="M 0 0 
L -3.5 0 
" style="stroke: #000000; stroke-width: 0.8"/>
      </defs>
      <g>
       <use xlink:href="#m401eb88680" x="103.032435" y="578.795085" style="stroke: #000000; stroke-width: 0.8"/>
      </g>
     </g>
     <g id="text_8">
      <!-- 5.824 -->
      <g transform="translate(67.40431 582.594304) scale(0.1 -0.1)">
       <defs>
        <path id="DejaVuSans-35" d="M 691 4666 
L 3169 4666 
L 3169 4134 
L 1269 4134 
L 1269 2991 
Q 1406 3038 1543 3061 
Q 1681 3084 1819 3084 
Q 2600 3084 3056 2656 
Q 3513 2228 3513 1497 
Q 3513 744 3044 326 
Q 2575 -91 1722 -91 
Q 1428 -91 1123 -41 
Q 819 9 494 109 
L 494 744 
Q 775 591 1075 516 
Q 1375 441 1709 441 
Q 2250 441 2565 725 
Q 2881 1009 2881 1497 
Q 2881 1984 2565 2268 
Q 2250 2553 1709 2553 
Q 1456 2553 1204 2497 
Q 953 2441 691 2322 
L 691 4666 
z
" transform="scale(0.015625)"/>
        <path id="DejaVuSans-2e" d="M 684 794 
L 1344 794 
L 1344 0 
L 684 0 
L 684 794 
z
" transform="scale(0.015625)"/>
       </defs>
       <use xlink:href="#DejaVuSans-35"/>
       <use xlink:href="#DejaVuSans-2e" x="63.623047"/>
       <use xlink:href="#DejaVuSans-38" x="95.410156"/>
       <use xlink:href="#DejaVuSans-32" x="159.033203"/>
       <use xlink:href="#DejaVuSans-34" x="222.65625"/>
      </g>
     </g>
    </g>
    <g id="ytick_2">
     <g id="line2d_9">
      <g>
       <use xlink:href="#m401eb88680" x="103.032435" y="498.173054" style="stroke: #000000; stroke-width: 0.8"/>
      </g>
     </g>
     <g id="text_9">
      <!-- 5.825 -->
      <g transform="translate(67.40431 501.972273) scale(0.1 -0.1)">
       <use xlink:href="#DejaVuSans-35"/>
       <use xlink:href="#DejaVuSans-2e" x="63.623047"/>
       <use xlink:href="#DejaVuSans-38" x="95.410156"/>
       <use xlink:href="#DejaVuSans-32" x="159.033203"/>
       <use xlink:href="#DejaVuSans-35" x="222.65625"/>
      </g>
     </g>
    </g>
    <g id="ytick_3">
     <g id="line2d_10">
      <g>
       <use xlink:href="#m401eb88680" x="103.032435" y="417.551023" style="stroke: #000000; stroke-width: 0.8"/>
      </g>
     </g>
     <g id="text_10">
      <!-- 5.826 -->
      <g transform="translate(67.40431 421.350242) scale(0.1 -0.1)">
       <defs>
        <path id="DejaVuSans-36" d="M 2113 2584 
Q 1688 2584 1439 2293 
Q 1191 2003 1191 1497 
Q 1191 994 1439 701 
Q 1688 409 2113 409 
Q 2538 409 2786 701 
Q 3034 994 3034 1497 
Q 3034 2003 2786 2293 
Q 2538 2584 2113 2584 
z
M 3366 4563 
L 3366 3988 
Q 3128 4100 2886 4159 
Q 2644 4219 2406 4219 
Q 1781 4219 1451 3797 
Q 1122 3375 1075 2522 
Q 1259 2794 1537 2939 
Q 1816 3084 2150 3084 
Q 2853 3084 3261 2657 
Q 3669 2231 3669 1497 
Q 3669 778 3244 343 
Q 2819 -91 2113 -91 
Q 1303 -91 875 529 
Q 447 1150 447 2328 
Q 447 3434 972 4092 
Q 1497 4750 2381 4750 
Q 2619 4750 2861 4703 
Q 3103 4656 3366 4563 
z
" transform="scale(0.015625)"/>
       </defs>
       <use xlink:href="#DejaVuSans-35"/>
       <use xlink:href="#DejaVuSans-2e" x="63.623047"/>
       <use xlink:href="#DejaVuSans-38" x="95.410156"/>
       <use xlink:href="#DejaVuSans-32" x="159.033203"/>
       <use xlink:href="#DejaVuSans-36" x="222.65625"/>
      </g>
     </g>
    </g>
    <g id="ytick_4">
     <g id="line2d_11">
      <g>
       <use xlink:href="#m401eb88680" x="103.032435" y="336.928993" style="stroke: #000000; stroke-width: 0.8"/>
      </g>
     </g>
     <g id="text_11">
      <!-- 5.827 -->
      <g transform="translate(67.40431 340.728211) scale(0.1 -0.1)">
       <defs>
        <path id="DejaVuSans-37" d="M 525 4666 
L 3525 4666 
L 3525 4397 
L 1831 0 
L 1172 0 
L 2766 4134 
L 525 4134 
L 525 4666 
z
" transform="scale(0.015625)"/>
       </defs>
       <use xlink:href="#DejaVuSans-35"/>
       <use xlink:href="#DejaVuSans-2e" x="63.623047"/>
       <use xlink:href="#DejaVuSans-38" x="95.410156"/>
       <use xlink:href="#DejaVuSans-32" x="159.033203"/>
       <use xlink:href="#DejaVuSans-37" x="222.65625"/>
      </g>
     </g>
    </g>
    <g id="ytick_5">
     <g id="line2d_12">
      <g>
       <use xlink:href="#m401eb88680" x="103.032435" y="256.306962" style="stroke: #000000; stroke-width: 0.8"/>
      </g>
     </g>
     <g id="text_12">
      <!-- 5.828 -->
      <g transform="translate(67.40431 260.10618) scale(0.1 -0.1)">
       <use xlink:href="#DejaVuSans-35"/>
       <use xlink:href="#DejaVuSans-2e" x="63.623047"/>
       <use xlink:href="#DejaVuSans-38" x="95.410156"/>
       <use xlink:href="#DejaVuSans-32" x="159.033203"/>
       <use xlink:href="#DejaVuSans-38" x="222.65625"/>
      </g>
     </g>
    </g>
    <g id="ytick_6">
     <g id="line2d_13">
      <g>
       <use xlink:href="#m401eb88680" x="103.032435" y="175.684931" style="stroke: #000000; stroke-width: 0.8"/>
      </g>
     </g>
     <g id="text_13">
      <!-- 5.829 -->
      <g transform="translate(67.40431 179.484149) scale(0.1 -0.1)">
       <use xlink:href="#DejaVuSans-35"/>
       <use xlink:href="#DejaVuSans-2e" x="63.623047"/>
       <use xlink:href="#DejaVuSans-38" x="95.410156"/>
       <use xlink:href="#DejaVuSans-32" x="159.033203"/>
       <use xlink:href="#DejaVuSans-39" x="222.65625"/>
      </g>
     </g>
    </g>
    <g id="ytick_7">
     <g id="line2d_14">
      <g>
       <use xlink:href="#m401eb88680" x="103.032435" y="95.0629" style="stroke: #000000; stroke-width: 0.8"/>
      </g>
     </g>
     <g id="text_14">
      <!-- 5.830 -->
      <g transform="translate(67.40431 98.862118) scale(0.1 -0.1)">
       <use xlink:href="#DejaVuSans-35"/>
       <use xlink:href="#DejaVuSans-2e" x="63.623047"/>
       <use xlink:href="#DejaVuSans-38" x="95.410156"/>
       <use xlink:href="#DejaVuSans-33" x="159.033203"/>
       <use xlink:href="#DejaVuSans-30" x="222.65625"/>
      </g>
     </g>
    </g>
    <g id="text_15">
     <!-- 1e6 -->
     <g transform="translate(103.032435 83.4) scale(0.1 -0.1)">
      <defs>
       <path id="DejaVuSans-65" d="M 3597 1894 
L 3597 1613 
L 953 1613 
Q 991 1019 1311 708 
Q 1631 397 2203 397 
Q 2534 397 2845 478 
Q 3156 559 3463 722 
L 3463 178 
Q 3153 47 2828 -22 
Q 2503 -91 2169 -91 
Q 1331 -91 842 396 
Q 353 884 353 1716 
Q 353 2575 817 3079 
Q 1281 3584 2069 3584 
Q 2775 3584 3186 3129 
Q 3597 2675 3597 1894 
z
M 3022 2063 
Q 3016 2534 2758 2815 
Q 2500 3097 2075 3097 
Q 1594 3097 1305 2825 
Q 1016 2553 972 2059 
L 3022 2063 
z
" transform="scale(0.015625)"/>
      </defs>
      <use xlink:href="#DejaVuSans-31"/>
      <use xlink:href="#DejaVuSans-65" x="63.623047"/>
      <use xlink:href="#DejaVuSans-36" x="125.146484"/>
     </g>
    </g>
   </g>
   <g id="patch_3">
    <path d="M 103.032435 640.8 
L 103.032435 86.4 
" style="fill: none; stroke: #000000; stroke-width: 0.8; stroke-linejoin: miter; stroke-linecap: square"/>
   </g>
   <g id="patch_4">
    <path d="M 634.967565 640.8 
L 634.967565 86.4 
" style="fill: none; stroke: #000000; stroke-width: 0.8; stroke-linejoin: miter; stroke-linecap: square"/>
   </g>
   <g id="patch_5">
    <path d="M 103.032435 640.8 
L 634.967565 640.8 
" style="fill: none; stroke: #000000; stroke-width: 0.8; stroke-linejoin: miter; stroke-linecap: square"/>
   </g>
   <g id="patch_6">
    <path d="M 103.032435 86.4 
L 634.967565 86.4 
" style="fill: none; stroke: #000000; stroke-width: 0.8; stroke-linejoin: miter; stroke-linecap: square"/>
   </g>
   <g id="text_16">
    <!-- Sdliches_Pankow -->
    <g transform="translate(344.868348 379.606328) scale(0.12 -0.12)">
     <defs>
      <path id="DejaVuSans-53" d="M 3425 4513 
L 3425 3897 
Q 3066 4069 2747 4153 
Q 2428 4238 2131 4238 
Q 1616 4238 1336 4038 
Q 1056 3838 1056 3469 
Q 1056 3159 1242 3001 
Q 1428 2844 1947 2747 
L 2328 2669 
Q 3034 2534 3370 2195 
Q 3706 1856 3706 1288 
Q 3706 609 3251 259 
Q 2797 -91 1919 -91 
Q 1588 -91 1214 -16 
Q 841 59 441 206 
L 441 856 
Q 825 641 1194 531 
Q 1563 422 1919 422 
Q 2459 422 2753 634 
Q 3047 847 3047 1241 
Q 3047 1584 2836 1778 
Q 2625 1972 2144 2069 
L 1759 2144 
Q 1053 2284 737 2584 
Q 422 2884 422 3419 
Q 422 4038 858 4394 
Q 1294 4750 2059 4750 
Q 2388 4750 2728 4690 
Q 3069 4631 3425 4513 
z
" transform="scale(0.015625)"/>
      <path id="DejaVuSans-fc" d="M 544 1381 
L 544 3500 
L 1119 3500 
L 1119 1403 
Q 1119 906 1312 657 
Q 1506 409 1894 409 
Q 2359 409 2629 706 
Q 2900 1003 2900 1516 
L 2900 3500 
L 3475 3500 
L 3475 0 
L 2900 0 
L 2900 538 
Q 2691 219 2414 64 
Q 2138 -91 1772 -91 
Q 1169 -91 856 284 
Q 544 659 544 1381 
z
M 1991 3584 
L 1991 3584 
z
M 2278 4850 
L 2912 4850 
L 2912 4219 
L 2278 4219 
L 2278 4850 
z
M 1056 4850 
L 1690 4850 
L 1690 4219 
L 1056 4219 
L 1056 4850 
z
" transform="scale(0.015625)"/>
      <path id="DejaVuSans-64" d="M 2906 2969 
L 2906 4863 
L 3481 4863 
L 3481 0 
L 2906 0 
L 2906 525 
Q 2725 213 2448 61 
Q 2172 -91 1784 -91 
Q 1150 -91 751 415 
Q 353 922 353 1747 
Q 353 2572 751 3078 
Q 1150 3584 1784 3584 
Q 2172 3584 2448 3432 
Q 2725 3281 2906 2969 
z
M 947 1747 
Q 947 1113 1208 752 
Q 1469 391 1925 391 
Q 2381 391 2643 752 
Q 2906 1113 2906 1747 
Q 2906 2381 2643 2742 
Q 2381 3103 1925 3103 
Q 1469 3103 1208 2742 
Q 947 2381 947 1747 
z
" transform="scale(0.015625)"/>
      <path id="DejaVuSans-6c" d="M 603 4863 
L 1178 4863 
L 1178 0 
L 603 0 
L 603 4863 
z
" transform="scale(0.015625)"/>
      <path id="DejaVuSans-69" d="M 603 3500 
L 1178 3500 
L 1178 0 
L 603 0 
L 603 3500 
z
M 603 4863 
L 1178 4863 
L 1178 4134 
L 603 4134 
L 603 4863 
z
" transform="scale(0.015625)"/>
      <path id="DejaVuSans-63" d="M 3122 3366 
L 3122 2828 
Q 2878 2963 2633 3030 
Q 2388 3097 2138 3097 
Q 1578 3097 1268 2742 
Q 959 2388 959 1747 
Q 959 1106 1268 751 
Q 1578 397 2138 397 
Q 2388 397 2633 464 
Q 2878 531 3122 666 
L 3122 134 
Q 2881 22 2623 -34 
Q 2366 -91 2075 -91 
Q 1284 -91 818 406 
Q 353 903 353 1747 
Q 353 2603 823 3093 
Q 1294 3584 2113 3584 
Q 2378 3584 2631 3529 
Q 2884 3475 3122 3366 
z
" transform="scale(0.015625)"/>
      <path id="DejaVuSans-68" d="M 3513 2113 
L 3513 0 
L 2938 0 
L 2938 2094 
Q 2938 2591 2744 2837 
Q 2550 3084 2163 3084 
Q 1697 3084 1428 2787 
Q 1159 2491 1159 1978 
L 1159 0 
L 581 0 
L 581 4863 
L 1159 4863 
L 1159 2956 
Q 1366 3272 1645 3428 
Q 1925 3584 2291 3584 
Q 2894 3584 3203 3211 
Q 3513 2838 3513 2113 
z
" transform="scale(0.015625)"/>
      <path id="DejaVuSans-73" d="M 2834 3397 
L 2834 2853 
Q 2591 2978 2328 3040 
Q 2066 3103 1784 3103 
Q 1356 3103 1142 2972 
Q 928 2841 928 2578 
Q 928 2378 1081 2264 
Q 1234 2150 1697 2047 
L 1894 2003 
Q 2506 1872 2764 1633 
Q 3022 1394 3022 966 
Q 3022 478 2636 193 
Q 2250 -91 1575 -91 
Q 1294 -91 989 -36 
Q 684 19 347 128 
L 347 722 
Q 666 556 975 473 
Q 1284 391 1588 391 
Q 1994 391 2212 530 
Q 2431 669 2431 922 
Q 2431 1156 2273 1281 
Q 2116 1406 1581 1522 
L 1381 1569 
Q 847 1681 609 1914 
Q 372 2147 372 2553 
Q 372 3047 722 3315 
Q 1072 3584 1716 3584 
Q 2034 3584 2315 3537 
Q 2597 3491 2834 3397 
z
" transform="scale(0.015625)"/>
      <path id="DejaVuSans-5f" d="M 3263 -1063 
L 3263 -1509 
L -63 -1509 
L -63 -1063 
L 3263 -1063 
z
" transform="scale(0.015625)"/>
      <path id="DejaVuSans-50" d="M 1259 4147 
L 1259 2394 
L 2053 2394 
Q 2494 2394 2734 2622 
Q 2975 2850 2975 3272 
Q 2975 3691 2734 3919 
Q 2494 4147 2053 4147 
L 1259 4147 
z
M 628 4666 
L 2053 4666 
Q 2838 4666 3239 4311 
Q 3641 3956 3641 3272 
Q 3641 2581 3239 2228 
Q 2838 1875 2053 1875 
L 1259 1875 
L 1259 0 
L 628 0 
L 628 4666 
z
" transform="scale(0.015625)"/>
      <path id="DejaVuSans-61" d="M 2194 1759 
Q 1497 1759 1228 1600 
Q 959 1441 959 1056 
Q 959 750 1161 570 
Q 1363 391 1709 391 
Q 2188 391 2477 730 
Q 2766 1069 2766 1631 
L 2766 1759 
L 2194 1759 
z
M 3341 1997 
L 3341 0 
L 2766 0 
L 2766 531 
Q 2569 213 2275 61 
Q 1981 -91 1556 -91 
Q 1019 -91 701 211 
Q 384 513 384 1019 
Q 384 1609 779 1909 
Q 1175 2209 1959 2209 
L 2766 2209 
L 2766 2266 
Q 2766 2663 2505 2880 
Q 2244 3097 1772 3097 
Q 1472 3097 1187 3025 
Q 903 2953 641 2809 
L 641 3341 
Q 956 3463 1253 3523 
Q 1550 3584 1831 3584 
Q 2591 3584 2966 3190 
Q 3341 2797 3341 1997 
z
" transform="scale(0.015625)"/>
      <path id="DejaVuSans-6e" d="M 3513 2113 
L 3513 0 
L 2938 0 
L 2938 2094 
Q 2938 2591 2744 2837 
Q 2550 3084 2163 3084 
Q 1697 3084 1428 2787 
Q 1159 2491 1159 1978 
L 1159 0 
L 581 0 
L 581 3500 
L 1159 3500 
L 1159 2956 
Q 1366 3272 1645 3428 
Q 1925 3584 2291 3584 
Q 2894 3584 3203 3211 
Q 3513 2838 3513 2113 
z
" transform="scale(0.015625)"/>
      <path id="DejaVuSans-6b" d="M 581 4863 
L 1159 4863 
L 1159 1991 
L 2875 3500 
L 3609 3500 
L 1753 1863 
L 3688 0 
L 2938 0 
L 1159 1709 
L 1159 0 
L 581 0 
L 581 4863 
z
" transform="scale(0.015625)"/>
      <path id="DejaVuSans-6f" d="M 1959 3097 
Q 1497 3097 1228 2736 
Q 959 2375 959 1747 
Q 959 1119 1226 758 
Q 1494 397 1959 397 
Q 2419 397 2687 759 
Q 2956 1122 2956 1747 
Q 2956 2369 2687 2733 
Q 2419 3097 1959 3097 
z
M 1959 3584 
Q 2709 3584 3137 3096 
Q 3566 2609 3566 1747 
Q 3566 888 3137 398 
Q 2709 -91 1959 -91 
Q 1206 -91 779 398 
Q 353 888 353 1747 
Q 353 2609 779 3096 
Q 1206 3584 1959 3584 
z
" transform="scale(0.015625)"/>
      <path id="DejaVuSans-77" d="M 269 3500 
L 844 3500 
L 1563 769 
L 2278 3500 
L 2956 3500 
L 3675 769 
L 4391 3500 
L 4966 3500 
L 4050 0 
L 3372 0 
L 2619 2869 
L 1863 0 
L 1184 0 
L 269 3500 
z
" transform="scale(0.015625)"/>
     </defs>
     <use xlink:href="#DejaVuSans-53"/>
     <use xlink:href="#DejaVuSans-fc" x="63.476562"/>
     <use xlink:href="#DejaVuSans-64" x="126.855469"/>
     <use xlink:href="#DejaVuSans-6c" x="190.332031"/>
     <use xlink:href="#DejaVuSans-69" x="218.115234"/>
     <use xlink:href="#DejaVuSans-63" x="245.898438"/>
     <use xlink:href="#DejaVuSans-68" x="300.878906"/>
     <use xlink:href="#DejaVuSans-65" x="364.257812"/>
     <use xlink:href="#DejaVuSans-73" x="425.78125"/>
     <use xlink:href="#DejaVuSans-5f" x="477.880859"/>
     <use xlink:href="#DejaVuSans-50" x="527.880859"/>
     <use xlink:href="#DejaVuSans-61" x="583.683594"/>
     <use xlink:href="#DejaVuSans-6e" x="644.962891"/>
     <use xlink:href="#DejaVuSans-6b" x="708.341797"/>
     <use xlink:href="#DejaVuSans-6f" x="762.626953"/>
     <use xlink:href="#DejaVuSans-77" x="823.808594"/>
    </g>
   </g>
  </g>
 </g>
 <defs>
  <clipPath id="p0a33694f3d">
   <rect x="103.032435" y="86.4" width="531.935131" height="554.4"/>
  </clipPath>
 </defs>
</svg>
