<?xml version="1.0" encoding="utf-8" standalone="no"?>
<!DOCTYPE svg PUBLIC "-//W3C//DTD SVG 1.1//EN"
  "http://www.w3.org/Graphics/SVG/1.1/DTD/svg11.dtd">
<svg xmlns:xlink="http://www.w3.org/1999/xlink" width="460.8pt" height="345.6pt" viewBox="0 0 460.8 345.6" xmlns="http://www.w3.org/2000/svg" version="1.1">
 <metadata>
  <rdf:RDF xmlns:dc="http://purl.org/dc/elements/1.1/" xmlns:cc="http://creativecommons.org/ns#" xmlns:rdf="http://www.w3.org/1999/02/22-rdf-syntax-ns#">
   <cc:Work>
    <dc:type rdf:resource="http://purl.org/dc/dcmitype/StillImage"/>
    <dc:date>2024-10-17T11:33:17.741613</dc:date>
    <dc:format>image/svg+xml</dc:format>
    <dc:creator>
     <cc:Agent>
      <dc:title>Matplotlib v3.9.2, https://matplotlib.org/</dc:title>
     </cc:Agent>
    </dc:creator>
   </cc:Work>
  </rdf:RDF>
 </metadata>
 <defs>
  <style type="text/css">*{stroke-linejoin: round; stroke-linecap: butt}</style>
 </defs>
 <g id="figure_1">
  <g id="patch_1">
   <path d="M 0 345.6 
L 460.8 345.6 
L 460.8 0 
L 0 0 
z
" style="fill: #ffffff"/>
  </g>
  <g id="axes_1">
   <g id="patch_2">
    <path d="M 106.961046 307.584 
L 365.358954 307.584 
L 365.358954 41.472 
L 106.961046 41.472 
z
" style="fill: #ffffff"/>
   </g>
   <g id="PatchCollection_1">
    <path d="M 347.465728 162.546653 
L 347.243969 162.502195 
L 346.661335 162.110445 
L 346.631809 162.090778 
L 346.55718 161.657544 
L 346.778228 161.30264 
L 346.626391 161.27681 
L 346.62457 161.276501 
L 346.311054 161.22322 
L 345.853565 161.13771 
L 344.918806 160.981669 
L 344.725747 160.949489 
L 344.350304 160.886817 
L 343.265389 160.705708 
L 343.099389 160.665961 
L 342.86898 160.626794 
L 342.746217 160.605865 
L 342.359284 160.554505 
L 341.646932 160.494516 
L 341.39354 160.56787 
L 341.267952 160.604249 
L 341.233667 160.556378 
L 341.195388 160.502909 
L 340.558842 159.613973 
L 340.490312 159.518273 
L 340.749666 159.031022 
L 341.036752 158.907883 
L 341.083661 158.674002 
L 341.150976 158.338676 
L 341.225279 157.968419 
L 341.761793 157.132762 
L 342.109208 156.59176 
L 343.113281 155.027934 
L 343.260429 154.79877 
L 343.333531 154.684924 
L 343.888069 153.837195 
L 343.975942 153.702835 
L 344.512311 152.882832 
L 345.45679 151.438961 
L 346.029187 150.540899 
L 347.091188 148.874754 
L 347.568532 148.125797 
L 349.839316 144.850483 
L 350.328768 144.117855 
L 351.172758 142.854518 
L 351.623951 142.179185 
L 351.8048 141.908441 
L 352.261736 141.306657 
L 352.982669 140.357161 
L 353.398189 139.816936 
L 353.594638 139.551068 
L 353.613595 139.3207 
L 353.499234 139.126399 
L 353.172384 138.903194 
L 352.614011 138.521837 
L 352.482907 138.497477 
L 352.415771 138.247611 
L 352.377652 138.1058 
L 352.584482 138.088208 
L 352.589011 138.087796 
L 352.625797 137.958315 
L 352.638227 137.914524 
L 352.771724 137.588428 
L 352.819021 137.472872 
L 352.7539 137.209475 
L 352.732185 137.12612 
L 352.425612 135.949322 
L 351.907125 133.794652 
L 351.867712 133.63107 
L 351.206203 130.916794 
L 350.843295 129.847478 
L 350.662744 129.440874 
L 350.038074 128.042161 
L 349.88712 127.697706 
L 349.829745 127.566509 
L 349.761803 127.639267 
L 349.717888 127.538909 
L 349.604915 127.280945 
L 349.587586 127.241251 
L 350.089054 126.669468 
L 350.172257 126.58787 
L 350.754264 125.972071 
L 351.09101 125.615755 
L 351.457417 125.104353 
L 351.53359 124.947314 
L 351.581972 124.784175 
L 351.649792 124.555685 
L 352.24215 122.899353 
L 352.274394 122.778635 
L 352.187706 122.758995 
L 351.910698 122.696285 
L 351.374771 122.524561 
L 350.659913 122.15469 
L 350.051498 121.72683 
L 349.437654 121.252511 
L 349.037856 120.843798 
L 348.900294 120.718776 
L 346.924771 118.916354 
L 345.263586 117.407404 
L 343.359194 115.669732 
L 342.515087 114.938148 
L 342.303407 114.757125 
L 342.26537 114.931239 
L 341.748953 117.358311 
L 341.464831 118.693546 
L 341.253014 119.697268 
L 341.023654 120.78124 
L 340.858628 121.559514 
L 340.570627 122.915538 
L 340.376282 123.829838 
L 340.21278 124.598748 
L 340.13021 124.986907 
L 339.969058 125.764902 
L 339.730718 126.915686 
L 339.49567 128.050442 
L 339.368604 128.63773 
L 339.247417 129.225517 
L 339.149225 129.68318 
L 339.026445 130.265984 
L 338.877133 130.958248 
L 338.654128 132.070572 
L 338.169586 131.972989 
L 337.56072 131.85037 
L 337.100827 132.244685 
L 336.638935 132.640574 
L 336.591354 132.681448 
L 335.636031 133.503128 
L 335.473143 133.65638 
L 335.331082 133.759933 
L 335.153587 133.912486 
L 334.170605 134.760497 
L 333.630713 135.226162 
L 333.074835 135.701314 
L 331.353522 137.188645 
L 330.780258 137.689472 
L 330.192214 138.192271 
L 329.502144 138.773797 
L 329.353167 138.915146 
L 327.408762 140.588415 
L 325.061432 142.609674 
L 324.799331 142.83533 
L 324.37614 143.198996 
L 324.28174 143.281165 
L 323.098746 143.875073 
L 322.747467 144.045322 
L 322.081887 144.379131 
L 321.52535 144.658289 
L 321.455431 144.693383 
L 320.328895 145.260155 
L 320.232666 145.308569 
L 320.146228 145.352102 
L 319.980005 145.435729 
L 319.892548 145.480392 
L 319.716089 145.570507 
L 319.614563 145.621742 
L 319.513068 145.672545 
L 318.521757 146.16877 
L 318.465805 146.196776 
L 318.117632 146.370965 
L 317.781035 146.539647 
L 317.444235 146.707902 
L 317.084732 146.888027 
L 317.034657 146.912846 
L 316.725067 147.067841 
L 316.370263 147.246335 
L 315.739409 147.562545 
L 315.008439 147.928082 
L 314.590037 148.137146 
L 313.185643 148.83568 
L 312.554277 149.153089 
L 309.562835 150.647645 
L 308.323379 151.267038 
L 308.284921 151.28635 
L 308.058348 151.400171 
L 307.796057 151.531637 
L 305.787776 152.53811 
L 305.015226 152.925145 
L 304.589124 153.138791 
L 303.479009 153.695383 
L 302.390702 154.220449 
L 302.042754 154.398269 
L 301.331041 154.761985 
L 300.116977 155.370327 
L 299.921077 155.462623 
L 299.800051 155.519552 
L 299.7244 155.555133 
L 298.568736 156.127382 
L 297.792071 156.493129 
L 297.081749 156.835736 
L 296.200585 157.26437 
L 295.993533 157.361621 
L 295.933846 157.388461 
L 295.675193 157.51559 
L 295.582083 157.561163 
L 294.856978 157.916024 
L 294.112727 158.28413 
L 293.171438 158.743941 
L 292.547414 159.052511 
L 291.649939 159.490857 
L 290.965185 159.833668 
L 290.121139 160.248533 
L 289.490467 160.558475 
L 288.768127 160.913533 
L 288.292589 161.147167 
L 288.026807 161.216435 
L 287.796073 161.276555 
L 287.528651 161.346236 
L 286.745897 161.52557 
L 286.194185 161.635346 
L 285.419057 161.775388 
L 285.405708 161.746433 
L 284.7255 161.862894 
L 284.075963 161.97425 
L 283.930695 161.999182 
L 283.099593 162.144312 
L 281.670424 162.386224 
L 281.064918 162.4934 
L 280.964319 162.51123 
L 280.97473 162.566637 
L 280.44851 162.659672 
L 280.339223 162.679028 
L 280.31483 162.622793 
L 279.4253 162.773349 
L 277.397275 163.116566 
L 277.377673 163.119862 
L 277.382794 163.172994 
L 277.11055 163.218503 
L 276.279477 163.35739 
L 276.387899 164.085207 
L 276.631334 165.363149 
L 276.654063 165.462784 
L 276.919594 166.628925 
L 277.017408 166.964188 
L 277.048801 167.071826 
L 277.384591 168.222806 
L 277.496222 168.546197 
L 277.534701 168.657716 
L 277.92909 169.800461 
L 278.058055 170.134917 
L 278.094227 170.228766 
L 278.174122 170.436057 
L 278.09978 170.45068 
L 278.10407 170.462583 
L 278.489856 171.531141 
L 278.395933 171.56243 
L 278.32593 171.585818 
L 278.269547 171.604317 
L 277.894224 171.714095 
L 276.33018 172.235766 
L 276.324281 172.220096 
L 274.976968 172.670991 
L 274.264637 172.909081 
L 274.258749 172.883295 
L 274.251461 172.857814 
L 274.242813 172.832795 
L 274.232847 172.808275 
L 274.221524 172.784334 
L 274.208964 172.761048 
L 274.195169 172.738495 
L 274.18014 172.716714 
L 274.163955 172.695744 
L 274.146696 172.675738 
L 274.128362 172.656657 
L 274.108995 172.638619 
L 274.088715 172.621699 
L 274.067519 172.605858 
L 274.045528 172.59121 
L 274.022782 172.577756 
L 273.99932 172.565572 
L 273.975222 172.554696 
L 273.950607 172.545165 
L 273.925472 172.536939 
L 273.899939 172.530134 
L 273.874122 172.524668 
L 273.837498 172.518657 
L 273.80067 172.513983 
L 273.763716 172.510764 
L 273.726676 172.508918 
L 273.689589 172.508485 
L 273.652533 172.509463 
L 273.615508 172.511852 
L 273.578592 172.515649 
L 273.541863 172.520815 
L 273.50536 172.527388 
L 273.469123 172.535366 
L 273.433189 172.54467 
L 273.397677 172.555377 
L 273.362546 172.567369 
L 273.349158 172.531358 
L 273.030102 172.638527 
L 273.041548 172.676933 
L 273.007428 172.686903 
L 272.973731 172.698314 
L 272.940535 172.711165 
L 272.907917 172.725415 
L 272.875956 172.741062 
L 272.84469 172.758065 
L 272.814156 172.776346 
L 272.784434 172.795982 
L 272.755598 172.816813 
L 272.727651 172.83888 
L 272.700668 172.86214 
L 272.674727 172.886475 
L 272.649827 172.911964 
L 272.626006 172.938447 
L 272.60338 172.965963 
L 272.581909 172.994395 
L 272.561671 173.02374 
L 272.542701 173.05388 
L 272.530398 173.077678 
L 272.519477 173.102112 
L 272.509978 173.127181 
L 272.501976 173.152726 
L 272.49547 173.178708 
L 272.490497 173.205049 
L 272.487053 173.231591 
L 272.485179 173.258334 
L 272.484831 173.285121 
L 272.486085 173.311833 
L 272.488863 173.338472 
L 272.493201 173.36492 
L 272.499096 173.391059 
L 272.50647 173.416813 
L 272.515357 173.442062 
L 272.52568 173.46677 
L 272.537397 173.490859 
L 272.090652 173.642694 
L 270.514346 174.186838 
L 270.496219 174.193082 
L 269.999644 174.362377 
L 269.981552 174.368463 
L 269.909187 174.392848 
L 269.785886 174.434359 
L 269.711721 174.46047 
L 269.657014 174.478661 
L 269.658604 174.48333 
L 269.168127 174.65065 
L 266.068732 175.708136 
L 266.077385 175.735155 
L 265.423956 176.170601 
L 265.044776 176.423758 
L 265.021497 176.439292 
L 265.072921 176.626664 
L 265.347227 177.599807 
L 265.58644 178.432617 
L 266.244653 180.550126 
L 266.098316 180.598542 
L 265.47077 180.80624 
L 264.836586 181.016126 
L 264.209198 181.223747 
L 263.191418 181.560605 
L 263.080066 181.597464 
L 262.878754 181.664081 
L 262.837405 181.677782 
L 261.392044 182.156163 
L 261.321422 182.179572 
L 261.513213 182.671298 
L 260.677247 182.970176 
L 260.692604 183.012062 
L 261.679733 185.685555 
L 261.68919 185.711771 
L 261.95294 186.426524 
L 262.128765 186.902138 
L 262.184341 187.054405 
L 260.94243 187.545404 
L 259.927015 187.946726 
L 259.887161 187.962551 
L 259.832538 187.984271 
L 258.86628 188.365882 
L 259.0047 188.760849 
L 259.152602 189.183209 
L 259.325359 189.677238 
L 259.558851 190.337573 
L 259.584008 190.408804 
L 259.610206 190.482875 
L 259.844781 191.146283 
L 260.067466 191.776159 
L 260.362043 192.588755 
L 259.945506 192.738929 
L 258.86663 193.118221 
L 258.809083 193.149142 
L 258.594355 193.264524 
L 258.368063 193.422861 
L 258.125964 193.625032 
L 257.992113 193.759985 
L 257.868153 193.917733 
L 257.818283 193.966872 
L 257.698046 194.140848 
L 257.598912 194.319491 
L 257.514676 194.501606 
L 257.46349 194.636172 
L 257.393482 194.876234 
L 257.355811 195.06837 
L 257.334133 195.263993 
L 257.326172 195.462683 
L 257.335004 195.665665 
L 257.353246 195.869771 
L 257.38518 196.082865 
L 256.405831 196.259641 
L 256.322213 197.020853 
L 256.295632 197.15393 
L 256.287181 197.19615 
L 256.168257 197.09007 
L 256.077436 197.022261 
L 255.587819 196.686433 
L 255.590805 196.639356 
L 255.397346 196.544032 
L 255.380271 196.645413 
L 255.31001 196.605415 
L 255.263613 196.518111 
L 255.134202 196.247511 
L 255.125018 196.228347 
L 255.106594 196.0126 
L 254.941992 195.885385 
L 254.687279 195.782446 
L 254.665518 195.778147 
L 254.643457 195.776129 
L 254.621288 195.776347 
L 254.599248 195.778838 
L 254.57757 195.783555 
L 254.473337 195.839473 
L 254.42696 195.864383 
L 254.407821 195.872494 
L 254.387545 195.876944 
L 254.366755 195.877642 
L 254.346234 195.874531 
L 254.326607 195.867714 
L 254.308547 195.857412 
L 254.279463 195.827947 
L 254.2694 195.809704 
L 253.968029 195.120343 
L 253.941278 195.084945 
L 253.876017 194.998767 
L 253.54255 194.938673 
L 253.411232 194.868198 
L 253.288377 194.766639 
L 252.273341 194.405976 
L 251.997661 194.391217 
L 251.873944 194.353195 
L 251.217979 194.045158 
L 250.971304 193.93632 
L 250.632095 193.772535 
L 250.223017 193.558317 
L 249.62238 193.415963 
L 249.459631 193.219077 
L 249.283276 193.101774 
L 248.835539 192.671519 
L 248.74977 192.584819 
L 248.650865 192.514174 
L 248.572169 192.418416 
L 248.125115 192.438849 
L 247.872058 192.421553 
L 247.503766 192.401454 
L 247.023561 192.404828 
L 247.025917 192.436966 
L 246.687475 192.46494 
L 246.266921 192.511135 
L 245.948388 192.586853 
L 245.295122 192.533318 
L 244.963535 192.383801 
L 244.741426 192.356566 
L 244.535299 192.314702 
L 244.262335 192.244492 
L 244.007702 192.161523 
L 243.624792 192.02025 
L 243.294995 191.89332 
L 242.987281 191.758801 
L 242.711177 191.640594 
L 242.438831 191.374644 
L 242.323131 191.2963 
L 242.167531 191.201634 
L 241.825778 190.93445 
L 241.695413 190.863177 
L 241.466915 190.706857 
L 241.049087 190.488579 
L 240.75918 190.379466 
L 240.607625 190.349013 
L 239.932873 190.279351 
L 239.647735 190.217653 
L 239.050005 190.414618 
L 238.936283 190.391908 
L 238.895338 190.370827 
L 238.452122 190.05859 
L 238.018454 189.753082 
L 237.878921 189.689937 
L 237.569974 189.4739 
L 237.29734 189.255288 
L 237.129095 189.126798 
L 236.667563 188.644182 
L 235.75126 187.92523 
L 235.109988 187.427189 
L 234.572141 186.900411 
L 234.174801 186.378569 
L 233.779235 186.015601 
L 233.738201 185.973036 
L 233.555521 185.862202 
L 232.707625 185.362478 
L 232.540227 185.260085 
L 231.383841 184.95747 
L 231.204053 184.909894 
L 230.691032 184.713727 
L 229.892648 184.437573 
L 229.600195 184.325474 
L 229.480695 184.28059 
L 229.361009 184.23618 
L 229.241176 184.192165 
L 229.131415 184.150866 
L 227.753998 183.451098 
L 227.714147 183.426583 
L 227.67505 183.400836 
L 227.63675 183.373974 
L 226.923729 182.88537 
L 225.294388 182.148682 
L 225.245716 182.121504 
L 225.198817 182.091384 
L 225.153849 182.058437 
L 225.110971 182.022738 
L 225.070383 181.984478 
L 225.032242 181.943772 
L 224.979051 181.866507 
L 224.927555 181.788107 
L 224.877794 181.708571 
L 224.829807 181.627935 
L 224.77751 181.504816 
L 224.727189 181.380908 
L 224.678884 181.25617 
L 224.358519 180.504861 
L 224.301069 180.38225 
L 224.240912 180.260993 
L 224.178086 180.141051 
L 224.112594 180.02258 
L 224.047145 179.914812 
L 223.982005 179.80688 
L 223.917135 179.698785 
L 223.892027 179.656728 
L 223.866957 179.614631 
L 223.841926 179.572534 
L 223.742795 179.406551 
L 223.643124 179.240934 
L 223.542836 179.075683 
L 223.435411 178.895614 
L 223.327137 178.716036 
L 223.218015 178.537025 
L 223.172886 178.46009 
L 223.127062 178.383524 
L 223.080543 178.307404 
L 223.063949 178.280605 
L 223.047278 178.253846 
L 223.030529 178.227129 
L 223.015365 178.206571 
L 223.00232 178.184593 
L 222.991517 178.161427 
L 222.983118 178.137306 
L 222.977126 178.112426 
L 222.955152 178.060104 
L 222.936319 178.006576 
L 222.920748 177.951993 
L 222.908482 177.896553 
L 222.899565 177.840489 
L 222.888273 177.749817 
L 222.880453 177.658754 
L 222.876109 177.567457 
L 222.875244 177.476081 
L 222.588702 176.763617 
L 222.54423 176.653065 
L 222.46492 176.348351 
L 222.436935 175.216831 
L 222.472655 175.21207 
L 222.495506 175.209009 
L 222.478182 174.933918 
L 222.665889 174.029951 
L 222.787515 173.652625 
L 223.133431 173.1063 
L 223.214079 172.902921 
L 223.297987 172.893041 
L 223.915538 172.820188 
L 225.021604 172.630369 
L 224.963567 172.483226 
L 224.85293 172.203051 
L 224.818398 172.115527 
L 224.475785 171.242464 
L 224.188528 170.51037 
L 223.905587 169.789511 
L 223.619654 169.060839 
L 223.333308 168.331314 
L 223.051558 167.613292 
L 222.952319 167.360426 
L 222.693293 166.700355 
L 222.407353 165.971802 
L 222.353366 165.831078 
L 222.344395 165.807636 
L 222.250757 165.570995 
L 222.221101 165.494706 
L 221.871505 164.580231 
L 221.549907 163.791275 
L 221.240263 162.985936 
L 220.838565 161.976661 
L 220.780122 161.83094 
L 220.628154 161.451987 
L 220.343175 160.737453 
L 220.082001 160.074807 
L 219.796047 159.355315 
L 219.336282 158.151343 
L 219.089528 157.511233 
L 218.980567 157.273644 
L 218.84934 156.993542 
L 218.538928 156.298479 
L 218.515602 156.269871 
L 218.490578 156.203739 
L 218.443384 156.085487 
L 218.28046 155.7138 
L 218.231516 155.583707 
L 218.14298 155.35703 
L 217.764945 155.548423 
L 217.369156 155.176319 
L 216.541572 154.275577 
L 216.187416 153.822005 
L 216.029424 153.470049 
L 215.979051 153.330383 
L 215.958159 153.272431 
L 215.837506 152.937281 
L 215.761269 152.725502 
L 215.717116 152.542135 
L 215.689795 152.420575 
L 215.518737 151.365159 
L 215.511487 151.233306 
L 215.47348 150.546246 
L 215.419883 149.578214 
L 215.416209 149.517092 
L 215.307894 147.716481 
L 215.283834 147.319133 
L 215.279967 147.254644 
L 215.250565 146.768805 
L 215.15864 145.250048 
L 215.020483 142.881231 
L 214.925002 141.091624 
L 214.882902 140.713306 
L 214.762118 140.400704 
L 213.967442 139.215246 
L 213.917618 139.082607 
L 213.857174 138.921699 
L 213.86625 138.886717 
L 213.883434 138.820775 
L 213.916677 138.692718 
L 214.339249 137.568487 
L 214.547919 137.126349 
L 214.78769 136.722722 
L 214.97656 136.462174 
L 215.652519 135.722928 
L 215.995847 135.347482 
L 216.916205 134.340997 
L 217.417018 133.793342 
L 219.643098 131.359702 
L 219.96009 131.01473 
L 220.982767 129.903871 
L 221.590245 129.244051 
L 221.787781 129.030992 
L 222.179292 128.59782 
L 222.310208 128.453185 
L 222.749444 127.97233 
L 223.103021 127.585252 
L 223.369115 127.293967 
L 223.628577 127.007026 
L 224.109352 126.474816 
L 224.439862 126.109043 
L 224.551534 125.985464 
L 224.910337 125.588436 
L 224.984316 125.490247 
L 225.256018 125.129205 
L 225.465188 124.704242 
L 225.710475 124.205974 
L 225.724454 124.174961 
L 225.804008 123.995211 
L 226.007392 123.535248 
L 226.368666 122.822382 
L 226.491395 122.562935 
L 226.601409 122.178216 
L 226.788298 121.52467 
L 227.00269 121.021293 
L 227.419013 119.885392 
L 227.98025 117.842217 
L 228.295736 116.676895 
L 228.551864 115.674285 
L 228.791459 114.537129 
L 229.672103 110.872283 
L 229.905745 109.746633 
L 230.357545 108.260833 
L 230.972167 106.196281 
L 231.714843 103.806063 
L 231.751381 103.66884 
L 232.003058 102.789802 
L 232.084787 102.548698 
L 232.221983 102.143967 
L 230.882117 101.510416 
L 229.625155 100.889176 
L 229.469161 100.812055 
L 229.325771 100.740416 
L 228.531396 100.344079 
L 227.567003 99.86306 
L 226.580644 99.37101 
L 226.484298 99.322942 
L 225.595105 98.879143 
L 225.49013 98.826603 
L 225.033809 98.599263 
L 224.577439 98.371533 
L 223.523282 97.845495 
L 223.464362 97.964951 
L 222.643153 97.555988 
L 222.704249 97.43762 
L 221.887119 97.032764 
L 221.251811 96.594702 
L 220.61654 96.15668 
L 219.904128 95.667028 
L 219.196599 95.18072 
L 218.31619 94.574866 
L 218.225267 94.512291 
L 216.815106 93.540834 
L 217.975275 92.813941 
L 218.664952 92.381834 
L 219.822165 91.656862 
L 220.445826 91.266118 
L 220.556025 91.100343 
L 220.683731 90.902024 
L 220.792946 90.732429 
L 220.849691 90.641761 
L 220.875658 90.59783 
L 220.830978 90.52409 
L 220.759409 90.40597 
L 220.689045 90.28984 
L 220.6208 90.171022 
L 220.523973 90.053556 
L 220.438839 89.942985 
L 220.343841 89.819603 
L 220.250696 89.698628 
L 220.150123 89.618377 
L 220.059141 89.545779 
L 219.963538 89.469494 
L 219.395953 89.016599 
L 218.652623 88.447503 
L 216.511068 86.876262 
L 216.347861 86.736306 
L 216.047345 86.575162 
L 215.810496 86.344211 
L 214.237147 85.223053 
L 213.49775 84.657967 
L 213.455108 84.630381 
L 213.414434 84.59985 
L 213.376008 84.566602 
L 213.339989 84.530751 
L 213.306538 84.49249 
L 213.275815 84.451972 
L 213.247942 84.40943 
L 213.223119 84.365055 
L 213.050046 84.015244 
L 212.949616 83.622554 
L 212.856341 82.717327 
L 212.810759 81.977978 
L 212.819563 81.77864 
L 212.9043 81.260243 
L 213.022289 80.818379 
L 213.594845 79.272504 
L 215.66206 74.304552 
L 215.74329 74.04705 
L 215.790148 73.587651 
L 215.743066 71.519405 
L 215.730518 70.968887 
L 215.731214 70.938759 
L 215.727883 70.9088 
L 215.720615 70.879557 
L 215.709501 70.851537 
L 215.694748 70.825285 
L 215.676678 70.801225 
L 215.655537 70.779782 
L 215.631723 70.76134 
L 215.611229 70.747842 
L 214.806733 70.219107 
L 213.777871 69.542857 
L 212.755803 68.897708 
L 212.484188 68.689968 
L 211.814273 68.233777 
L 211.588291 67.973846 
L 211.551418 67.814351 
L 211.656177 67.499702 
L 211.795202 66.99565 
L 212.088323 66.440341 
L 212.111525 66.394729 
L 212.421825 65.839309 
L 212.47718 65.744082 
L 212.497504 65.713239 
L 212.520932 65.684679 
L 212.547236 65.658759 
L 212.576071 65.635723 
L 212.607168 65.615851 
L 213.673245 65.101833 
L 213.698706 65.066209 
L 213.72569 65.012946 
L 213.748302 64.967152 
L 213.85666 64.947741 
L 213.881878 64.932745 
L 213.905155 64.914892 
L 213.926221 64.894462 
L 213.94481 64.871735 
L 214.397041 63.976408 
L 214.429116 63.912758 
L 214.713568 63.172311 
L 214.485272 63.059223 
L 212.529418 62.025401 
L 209.159106 60.369758 
L 206.690044 59.251476 
L 206.436577 59.136692 
L 205.579384 58.648743 
L 204.79512 58.202012 
L 204.36835 57.996012 
L 203.841413 57.742042 
L 203.310826 57.485961 
L 202.784363 57.232297 
L 202.285861 56.991767 
L 202.157405 56.978938 
L 201.937117 56.95661 
L 201.826037 56.945351 
L 201.790151 56.941925 
L 201.706609 56.93373 
L 199.690419 56.007457 
L 198.585255 55.586803 
L 197.884128 55.403274 
L 196.758347 55.103427 
L 194.379125 54.810693 
L 194.032928 53.94549 
L 194.07709 53.880113 
L 193.831993 53.748218 
L 193.58487 53.615234 
L 193.518294 53.568 
L 193.482973 53.65235 
L 193.277396 54.138117 
L 193.012622 54.763705 
L 192.602615 55.716355 
L 192.264406 56.509767 
L 191.825456 57.539372 
L 192.117096 57.036761 
L 191.583585 58.286775 
L 189.48256 63.394512 
L 188.838237 64.923575 
L 188.168985 66.526876 
L 186.927903 69.500033 
L 185.619764 72.550387 
L 184.688222 74.702396 
L 184.450205 75.300847 
L 183.239309 78.193322 
L 183.046164 78.653687 
L 182.580557 79.702856 
L 181.315736 82.853027 
L 181.130964 83.31297 
L 181.078245 83.444414 
L 180.996048 83.680997 
L 180.89202 83.980414 
L 180.831832 84.106813 
L 180.447893 84.913869 
L 179.694207 86.452381 
L 179.074333 87.441731 
L 178.576791 88.199059 
L 178.108134 88.823053 
L 177.16576 90.068296 
L 176.542183 90.902904 
L 174.568621 93.601035 
L 174.474382 93.711113 
L 174.25146 94.036383 
L 173.328927 95.354085 
L 173.153046 95.605127 
L 172.870887 95.653166 
L 172.803239 95.658503 
L 172.784232 95.700496 
L 172.64992 95.918804 
L 172.493772 96.172607 
L 172.473951 96.199326 
L 172.245112 96.510108 
L 170.603934 98.73569 
L 170.322557 99.117615 
L 168.116005 102.11999 
L 166.763661 103.971546 
L 166.636908 104.14514 
L 166.234221 104.714028 
L 165.550622 105.680954 
L 165.452571 105.815706 
L 165.010384 106.424743 
L 164.253545 107.467324 
L 163.22452 108.884852 
L 163.056388 108.99834 
L 163.062355 109.132337 
L 161.350482 111.42642 
L 159.618794 113.74724 
L 158.389105 115.394928 
L 155.889399 118.853491 
L 154.837873 120.2844 
L 154.669634 120.513328 
L 154.148257 121.222608 
L 153.972801 121.46268 
L 153.801709 121.698536 
L 153.738887 121.785128 
L 153.480732 122.140986 
L 153.426256 122.216057 
L 153.400118 122.252097 
L 152.498502 122.491347 
L 151.866067 122.659066 
L 151.286856 122.743118 
L 150.900357 122.79941 
L 149.370732 123.021822 
L 148.049087 123.149753 
L 146.417538 123.307702 
L 141.63456 123.785042 
L 141.564495 123.792014 
L 140.266449 123.921577 
L 138.998453 123.949853 
L 137.808738 123.897263 
L 137.511975 123.884131 
L 137.162188 123.868683 
L 136.17329 123.82496 
L 135.55558 123.850029 
L 134.961676 123.874204 
L 130.893078 124.223607 
L 130.627061 124.249813 
L 129.834047 124.327928 
L 128.58018 124.541563 
L 127.302248 124.794222 
L 125.702695 125.152873 
L 121.577764 126.392589 
L 120.195018 126.881895 
L 119.687214 127.067915 
L 119.646904 127.082681 
L 118.880328 127.363414 
L 118.777674 127.40102 
L 118.749353 127.411394 
L 118.706405 127.427123 
L 118.738467 127.457165 
L 118.975264 127.674354 
L 119.440584 128.10112 
L 119.969434 128.586104 
L 121.60944 130.100691 
L 122.883557 131.277395 
L 123.225026 131.249485 
L 124.966622 131.10728 
L 124.626896 132.544621 
L 125.631126 133.467501 
L 126.144721 133.916192 
L 126.620643 134.359788 
L 127.072454 134.761788 
L 127.16138 134.840951 
L 128.852968 136.407741 
L 130.133673 137.386573 
L 131.09772 138.307971 
L 130.755322 138.541694 
L 130.914207 138.681755 
L 132.186666 139.766731 
L 133.519939 140.903217 
L 133.989832 141.303526 
L 134.636022 141.892434 
L 135.451665 142.635871 
L 135.625076 142.793953 
L 136.888779 143.945227 
L 137.178745 144.219604 
L 138.823155 145.77466 
L 139.734245 146.636539 
L 140.254033 147.106024 
L 140.391749 147.230893 
L 141.363461 148.110175 
L 142.640795 149.265332 
L 143.597255 150.147404 
L 145.897373 152.268699 
L 146.554199 152.476688 
L 146.557918 152.477897 
L 147.583112 152.811263 
L 148.535166 153.20645 
L 149.695904 154.580784 
L 149.602218 154.937367 
L 151.627471 156.767405 
L 153.54054 158.500704 
L 157.427733 162.030586 
L 159.497621 163.91423 
L 160.824638 165.148519 
L 161.323612 165.509966 
L 161.496079 165.635157 
L 161.928942 165.937492 
L 162.309465 164.99681 
L 162.404855 165.091565 
L 162.476346 165.162083 
L 163.093303 165.773395 
L 164.146343 166.962965 
L 165.540961 168.591091 
L 165.678192 168.751316 
L 166.826452 169.882708 
L 168.348705 171.258942 
L 168.987963 171.837654 
L 169.138535 171.974014 
L 169.402942 172.213418 
L 169.517136 172.316768 
L 169.792315 172.565612 
L 171.240351 173.873448 
L 173.325088 175.756197 
L 173.228056 175.986789 
L 174.270939 176.930885 
L 175.911063 178.4157 
L 178.607455 180.816861 
L 181.309165 183.219272 
L 184.198343 185.300634 
L 184.317298 185.094959 
L 186.104153 186.365404 
L 187.803745 187.497313 
L 189.502616 188.632823 
L 190.69473 189.506824 
L 191.810459 190.448898 
L 193.603454 192.258392 
L 194.214316 192.874881 
L 194.738286 193.442989 
L 194.74466 193.449903 
L 194.782377 193.49077 
L 195.072293 193.804886 
L 195.30405 194.055991 
L 195.448084 194.047369 
L 195.377686 194.153409 
L 195.362663 194.174019 
L 195.258285 194.316859 
L 197.564497 196.816918 
L 198.374646 197.703072 
L 199.585814 199.019482 
L 199.794111 199.245176 
L 200.040042 198.929177 
L 200.658334 198.801104 
L 200.939709 200.121661 
L 201.656565 199.973529 
L 201.807713 199.942285 
L 202.056048 201.275704 
L 202.123221 201.636361 
L 202.745725 201.511571 
L 202.969335 202.693144 
L 203.399605 203.129097 
L 203.656778 203.075665 
L 203.842497 203.999355 
L 204.666519 204.273254 
L 205.164326 204.440758 
L 205.360699 204.497816 
L 205.402698 204.510044 
L 207.023719 205.039099 
L 207.273716 205.119379 
L 207.761664 205.276407 
L 208.699544 205.57811 
L 209.57326 205.859225 
L 210.374226 206.117121 
L 210.520461 206.167078 
L 210.611102 206.193113 
L 211.414729 205.956376 
L 212.011366 205.488339 
L 212.845741 204.833855 
L 213.618074 205.544484 
L 214.198045 206.059161 
L 214.762233 206.57639 
L 215.332286 207.088509 
L 215.957486 207.646677 
L 217.109348 208.690225 
L 217.685338 209.207825 
L 218.250806 209.737699 
L 218.814328 210.245349 
L 219.383625 210.764868 
L 219.993875 211.307779 
L 220.566884 211.836237 
L 221.155785 212.356733 
L 221.722021 212.871074 
L 222.306997 213.412286 
L 222.434522 213.519602 
L 222.45831 213.541261 
L 223.003357 214.036829 
L 223.365211 214.362695 
L 223.604598 214.578268 
L 224.16949 215.087275 
L 224.743806 215.61748 
L 225.329513 216.144883 
L 225.897971 216.659931 
L 226.576805 217.2799 
L 226.195504 217.705741 
L 225.280717 218.727354 
L 226.271355 219.70572 
L 228.362507 221.770967 
L 229.000163 222.400728 
L 229.218146 222.616356 
L 229.27384 222.671413 
L 229.267463 222.676535 
L 228.649791 223.173926 
L 227.108874 224.782705 
L 227.070394 224.822893 
L 226.886593 225.127035 
L 226.938983 225.174206 
L 226.990772 225.220684 
L 227.071364 225.292904 
L 227.215753 225.422313 
L 227.244598 225.448132 
L 227.462554 225.311548 
L 227.613989 225.216643 
L 228.580637 226.285699 
L 228.686716 226.434865 
L 228.669091 226.67055 
L 228.578782 226.775685 
L 228.57785 226.776771 
L 227.979212 227.415359 
L 228.074303 227.499567 
L 228.350679 227.744273 
L 228.407759 227.794868 
L 228.311267 228.084899 
L 228.996973 228.731228 
L 232.214403 231.763905 
L 232.843651 232.35705 
L 233.142516 233.231853 
L 233.081632 233.310612 
L 233.059132 233.339699 
L 233.910963 234.08929 
L 234.004605 233.980274 
L 234.734009 234.105583 
L 235.392486 234.718001 
L 238.759707 237.84989 
L 239.438126 238.541 
L 239.629486 238.742296 
L 240.012916 239.212077 
L 240.094686 239.320231 
L 240.161392 239.40845 
L 240.011635 239.543497 
L 240.134789 239.678839 
L 240.531545 240.160831 
L 240.832023 240.525818 
L 240.882008 240.586495 
L 241.051974 240.792897 
L 241.4643 241.393502 
L 241.889608 242.010168 
L 242.133309 242.369799 
L 242.31282 242.634685 
L 242.722096 243.276137 
L 242.804459 243.409373 
L 243.062699 243.827062 
L 243.07815 243.852046 
L 243.123767 243.927406 
L 243.161346 243.98938 
L 243.441717 244.463585 
L 243.804415 245.111843 
L 244.116225 245.655178 
L 244.165252 245.743284 
L 244.502683 246.378933 
L 244.975003 247.230005 
L 245.026577 247.357184 
L 246.82571 250.672177 
L 247.346277 252.141597 
L 247.650156 252.991294 
L 247.923006 253.917514 
L 248.133637 254.851786 
L 248.498468 256.728687 
L 248.763025 258.413701 
L 248.778978 258.514386 
L 248.843121 258.944369 
L 248.896822 259.324829 
L 249.153702 261.09596 
L 249.616367 263.793672 
L 249.746489 265.416284 
L 249.805197 265.601138 
L 249.81003 265.6164 
L 249.832218 265.686207 
L 249.960892 266.091266 
L 249.985648 266.169367 
L 250.054833 265.983662 
L 251.501726 264.966858 
L 251.580289 264.929193 
L 251.660663 264.895604 
L 251.742615 264.866215 
L 251.825989 264.841029 
L 251.910515 264.820169 
L 251.996037 264.803679 
L 252.082241 264.791564 
L 252.168975 264.783908 
L 252.551574 264.859764 
L 253.729641 265.09321 
L 253.837777 265.114681 
L 254.138703 265.174283 
L 254.139066 265.174362 
L 254.793631 265.316029 
L 254.810836 265.319763 
L 255.971666 265.569526 
L 256.152862 265.608466 
L 256.364815 265.654094 
L 256.406372 265.663011 
L 256.92333 265.774271 
L 256.959742 265.782126 
L 257.245539 265.843599 
L 257.441502 265.882134 
L 258.781127 266.145737 
L 259.089147 266.206327 
L 259.122246 266.212844 
L 259.20733 266.229616 
L 259.336622 266.25501 
L 260.627006 266.5089 
L 261.01842 266.585949 
L 261.128239 266.607543 
L 261.32899 266.647034 
L 261.673758 266.714849 
L 262.091793 266.797151 
L 262.554467 266.888186 
L 262.990168 266.9739 
L 263.31601 267.038022 
L 263.632509 267.100312 
L 264.147479 267.201599 
L 264.396837 267.250678 
L 264.446387 267.260439 
L 264.475859 267.263823 
L 265.163075 267.342349 
L 265.443644 267.374427 
L 265.584575 267.390549 
L 265.882724 267.415022 
L 266.393842 267.45696 
L 266.871906 267.496183 
L 267.225704 267.525187 
L 267.313235 267.532419 
L 267.706549 267.564663 
L 268.015468 267.590038 
L 268.405727 267.622038 
L 269.102124 267.679202 
L 269.523321 267.713734 
L 269.941974 267.748126 
L 270.488375 267.792939 
L 270.879731 267.825077 
L 271.311894 267.860545 
L 271.423353 267.869719 
L 271.81976 267.902256 
L 272.2455 267.937202 
L 272.484941 267.956831 
L 272.729827 267.976928 
L 272.956228 267.995514 
L 273.190188 268.014756 
L 273.424029 268.033961 
L 273.657361 268.0531 
L 273.989736 268.080356 
L 274.228983 268.100031 
L 274.486635 268.12118 
L 274.775735 268.144887 
L 275.052264 268.167619 
L 275.356049 268.192531 
L 275.899981 268.237179 
L 276.355178 268.276657 
L 279.189775 268.509341 
L 279.303231 268.51871 
L 279.307317 268.709762 
L 279.848996 268.753412 
L 279.967184 268.762912 
L 280.230857 268.784132 
L 280.47667 268.803826 
L 280.711909 268.822657 
L 280.990575 268.844879 
L 281.1229 268.855479 
L 281.643619 268.897089 
L 282.152476 268.937904 
L 282.286211 268.94863 
L 282.568523 268.971362 
L 282.814141 268.991103 
L 282.94584 269.001679 
L 283.054551 269.01041 
L 283.323311 269.031953 
L 283.455205 269.042525 
L 283.983443 269.084759 
L 284.503025 269.126284 
L 284.622152 269.135806 
L 284.913743 269.159199 
L 285.148083 269.178055 
L 285.390609 269.197671 
L 285.660196 269.219473 
L 285.818798 269.232201 
L 286.324827 269.272502 
L 286.479582 269.28457 
L 287.136534 269.33683 
L 287.270072 269.347564 
L 287.554736 269.370604 
L 287.788414 269.389596 
L 291.30613 269.67144 
L 291.693936 269.702523 
L 291.97897 269.705056 
L 292.06843 269.705866 
L 292.442102 269.709188 
L 292.554356 269.710201 
L 292.920012 269.713427 
L 293.013343 269.71427 
L 293.372587 269.717481 
L 293.432331 269.718006 
L 293.882755 269.72203 
L 294.227598 269.751242 
L 295.765459 269.927651 
L 295.939232 269.847834 
L 296.082895 269.781894 
L 296.361285 270.49104 
L 296.428522 270.66235 
L 296.44581 270.830487 
L 296.507617 271.451561 
L 296.537437 271.720698 
L 296.636712 272.685276 
L 296.680272 273.133763 
L 296.689202 273.225511 
L 296.747807 273.829011 
L 296.75755 273.929366 
L 296.775215 274.111218 
L 296.789254 274.255981 
L 296.858793 274.971416 
L 296.884714 275.242835 
L 296.921023 275.611928 
L 297.001572 276.496306 
L 297.042177 276.941996 
L 297.132099 277.929561 
L 297.146827 278.09156 
L 297.213176 278.820318 
L 297.278128 279.533463 
L 297.297632 279.747582 
L 297.335752 280.176052 
L 297.367223 280.529789 
L 297.383313 280.711166 
L 297.440046 281.348977 
L 297.492373 281.937324 
L 297.500044 282.023453 
L 297.510591 282.613898 
L 297.514177 282.815116 
L 297.510642 282.848247 
L 297.415536 283.744063 
L 297.297089 284.634277 
L 297.287959 284.702858 
L 297.250592 284.993825 
L 298.584221 285.235136 
L 299.533571 285.406896 
L 300.467429 285.576374 
L 301.397968 285.744283 
L 302.332872 285.913473 
L 303.313022 286.090847 
L 304.245175 286.259518 
L 306.22089 286.617127 
L 306.410082 286.651352 
L 306.461098 286.660581 
L 306.687493 286.701556 
L 306.95945 286.750782 
L 308.29494 286.992513 
L 310.926465 287.4688 
L 311.397779 287.554109 
L 312.405384 287.736533 
L 312.596614 287.771111 
L 312.672491 287.785756 
L 312.894822 287.828709 
L 312.950953 287.839514 
L 313.150786 287.885 
L 314.393571 288.110067 
L 315.92255 288.386931 
L 316.176412 288.432921 
L 316.401078 288.47367 
L 316.661297 288.520815 
L 317.424685 288.659063 
L 317.901798 288.745485 
L 318.587758 288.869673 
L 319.283019 288.995621 
L 320.990694 289.304876 
L 321.188469 289.340418 
L 321.59442 289.413391 
L 321.799809 289.450334 
L 323.709249 289.79746 
L 323.761565 289.806973 
L 324.434024 289.92925 
L 325.45814 290.11542 
L 325.892989 290.194513 
L 327.84146 290.548746 
L 328.128714 290.600962 
L 329.349428 290.822923 
L 329.958191 290.940607 
L 330.190225 291.058099 
L 330.389297 291.158865 
L 330.624649 291.277971 
L 331.479576 291.832708 
L 332.000602 292.170786 
L 332.523171 292.509851 
L 332.626845 292.577141 
L 333.845982 293.368238 
L 333.92678 293.420699 
L 335.20696 294.251444 
L 335.345795 294.341493 
L 335.354081 294.34688 
L 335.640476 294.532748 
L 336.197763 294.894433 
L 336.402527 295.02731 
L 337.007661 295.419986 
L 337.016819 295.425942 
L 337.112441 295.488 
L 337.363995 294.568715 
L 337.475131 294.165657 
L 337.328985 293.304299 
L 337.211387 292.611189 
L 337.195436 292.517359 
L 337.192255 292.498647 
L 337.062547 291.683393 
L 336.961884 291.06837 
L 336.842188 290.336372 
L 336.800197 290.080337 
L 336.650174 289.175365 
L 336.607457 288.914384 
L 336.455666 287.985947 
L 336.35861 287.377001 
L 336.269857 286.756229 
L 336.164316 286.138216 
L 336.126412 285.873954 
L 336.147438 285.862988 
L 336.123567 285.699617 
L 336.100561 285.700394 
L 336.069529 285.515066 
L 335.912083 284.574873 
L 335.886981 284.425017 
L 335.77227 283.730433 
L 335.738807 283.517713 
L 335.6048 282.667109 
L 335.532545 282.224837 
L 335.491882 281.975937 
L 335.386883 281.285886 
L 335.371467 281.184359 
L 335.36883 281.167282 
L 335.361708 281.121917 
L 335.344336 281.011297 
L 335.239197 280.341873 
L 335.125918 279.648592 
L 335.110869 279.55678 
L 335.106265 279.528376 
L 335.050032 279.145557 
L 335.032877 279.028737 
L 334.986779 278.714861 
L 334.781725 277.451257 
L 334.830037 277.422286 
L 334.776086 277.097897 
L 334.53012 275.619011 
L 334.474597 275.285226 
L 334.362259 274.774762 
L 334.273669 274.372214 
L 335.492424 272.981221 
L 335.46382 272.805172 
L 335.279965 271.671945 
L 335.047066 270.242353 
L 334.816265 270.279936 
L 334.735225 269.768428 
L 334.617632 269.026309 
L 334.535818 268.50976 
L 334.525903 268.447399 
L 334.490343 268.222962 
L 334.323688 267.171149 
L 334.235316 266.613731 
L 334.166687 266.204011 
L 334.128599 265.976611 
L 334.087098 265.728857 
L 333.904391 264.638343 
L 333.652941 263.138504 
L 333.470093 261.998591 
L 333.333626 261.113304 
L 333.564473 261.071915 
L 333.269134 259.25086 
L 333.262586 259.210383 
L 333.242655 259.207054 
L 333.072115 258.050954 
L 332.970586 257.442501 
L 332.815716 256.602941 
L 332.671742 255.822349 
L 332.716951 255.817675 
L 332.678451 255.580482 
L 332.671638 255.538599 
L 332.631728 255.292301 
L 332.593798 255.057957 
L 332.466163 254.264736 
L 332.368425 253.665414 
L 332.350814 253.66819 
L 332.271392 253.163352 
L 332.253385 253.048904 
L 332.15246 252.430753 
L 332.0666 251.89959 
L 332.026811 251.615728 
L 332.017785 251.551192 
L 331.950218 251.070286 
L 331.887259 250.623314 
L 332.084101 250.596153 
L 331.589938 250.367859 
L 331.484793 249.641978 
L 331.202286 247.650363 
L 331.121772 246.980482 
L 331.027764 246.19876 
L 330.892416 245.072828 
L 330.752053 244.076002 
L 330.729764 243.917538 
L 330.556066 242.684034 
L 330.410331 241.627297 
L 330.313934 240.928397 
L 330.269374 240.605156 
L 330.080197 239.233624 
L 329.939839 238.215861 
L 329.778667 237.037485 
L 329.892277 236.249343 
L 329.963999 235.751866 
L 330.034531 235.26261 
L 330.1017 234.796718 
L 330.157961 234.406344 
L 330.19945 234.11698 
L 330.260454 233.689412 
L 330.380663 232.846704 
L 330.428017 232.537569 
L 330.461229 232.320726 
L 330.530459 231.86859 
L 330.607297 231.367081 
L 330.679095 230.898147 
L 330.751003 230.428857 
L 331.05061 228.508859 
L 331.084032 228.294403 
L 331.3659 226.488026 
L 331.591292 226.593159 
L 331.798945 225.072431 
L 331.587417 225.038551 
L 331.654873 224.583709 
L 331.710137 224.211238 
L 331.944291 222.633078 
L 332.136225 221.344102 
L 332.184155 221.022292 
L 332.184167 221.022212 
L 332.216284 220.805158 
L 332.299295 220.240076 
L 332.312284 220.150476 
L 332.447101 219.221702 
L 332.648546 217.83391 
L 332.75684 217.088035 
L 332.774048 216.969406 
L 332.993853 216.815102 
L 333.069805 216.761806 
L 333.199972 215.910335 
L 333.240162 215.647192 
L 333.258757 215.525828 
L 333.306413 215.213982 
L 333.326337 215.083571 
L 333.374676 214.767162 
L 333.398955 214.608582 
L 333.437429 214.356494 
L 333.453212 214.253227 
L 333.472829 214.124862 
L 333.536444 213.708804 
L 333.330971 213.60147 
L 333.316479 213.594964 
L 333.332505 213.495691 
L 333.363994 213.292806 
L 333.403462 213.045048 
L 333.422991 212.87481 
L 333.57372 211.857275 
L 333.620468 211.548585 
L 333.691411 211.045011 
L 333.756387 210.660996 
L 333.82547 210.181576 
L 333.862676 210.070823 
L 333.937563 210.036762 
L 334.012163 210.072342 
L 334.10613 209.874365 
L 334.119784 209.865676 
L 334.129194 209.859629 
L 334.347756 209.392079 
L 334.615856 208.375039 
L 334.525263 208.328752 
L 334.577333 207.991325 
L 334.615516 207.743713 
L 334.674776 207.359706 
L 334.712938 207.112408 
L 334.826201 206.443645 
L 334.927792 205.843795 
L 335.075068 204.81426 
L 335.368071 202.770163 
L 335.211649 202.737703 
L 335.495467 200.82143 
L 335.587007 200.203507 
L 335.731348 199.240221 
L 335.835367 198.543178 
L 335.940156 197.843765 
L 336.149957 196.44313 
L 336.080848 196.06032 
L 336.086912 196.024429 
L 336.108948 195.893855 
L 336.168314 195.467379 
L 336.314598 194.416503 
L 336.431435 193.551369 
L 336.448033 193.413088 
L 336.577379 192.335468 
L 336.674033 191.324135 
L 336.716215 190.797548 
L 336.729878 190.522634 
L 336.739619 190.326458 
L 336.754804 190.020772 
L 336.755635 189.983388 
L 336.757433 189.902305 
L 336.761136 189.736059 
L 336.764622 189.577777 
L 336.767961 189.427184 
L 336.771143 189.283729 
L 336.774164 189.147297 
L 336.777058 189.01761 
L 336.779691 188.89934 
L 336.779547 188.701772 
L 336.778034 188.504234 
L 336.777447 188.450178 
L 336.775778 188.306673 
L 336.772114 188.109104 
L 336.766799 187.895729 
L 336.775564 187.886168 
L 337.707926 186.869224 
L 337.729663 186.845499 
L 337.811992 186.755679 
L 338.862742 185.606966 
L 338.78307 185.530954 
L 339.6218 184.777699 
L 341.528096 182.852407 
L 342.016117 182.366211 
L 342.104855 182.277783 
L 343.114558 181.271923 
L 343.090777 180.739678 
L 343.950507 180.697303 
L 344.134247 180.412417 
L 345.030073 179.023467 
L 346.314122 177.609411 
L 347.336847 176.556201 
L 347.380959 176.586685 
L 347.485523 175.356169 
L 347.52223 174.642092 
L 346.57843 173.709955 
L 346.557509 173.495274 
L 346.525369 173.165369 
L 346.354539 171.412869 
L 346.354034 171.407626 
L 346.345687 171.32202 
L 345.988305 171.070282 
L 345.624607 170.814056 
L 345.237594 170.541439 
L 345.171899 170.495153 
L 345.167918 169.878336 
L 345.690881 169.114735 
L 345.323425 168.835105 
L 345.352745 168.791141 
L 345.409112 168.706596 
L 346.207686 167.508957 
L 345.512368 166.979416 
L 344.847185 166.472551 
L 346.88667 163.534957 
L 346.820466 163.481468 
L 347.465728 162.546653 
" clip-path="url(#p2b7f786fce)" style="fill: #1f77b4"/>
   </g>
   <g id="matplotlib.axis_1">
    <g id="xtick_1">
     <g id="line2d_1">
      <defs>
       <path id="m7058a40181" d="M 0 0 
L 0 3.5 
" style="stroke: #000000; stroke-width: 0.8"/>
      </defs>
      <g>
       <use xlink:href="#m7058a40181" x="151.679258" y="307.584" style="stroke: #000000; stroke-width: 0.8"/>
      </g>
     </g>
     <g id="text_1">
      <!-- 13.36 -->
      <g transform="translate(137.365195 322.182437) scale(0.1 -0.1)">
       <defs>
        <path id="DejaVuSans-31" d="M 794 531 
L 1825 531 
L 1825 4091 
L 703 3866 
L 703 4441 
L 1819 4666 
L 2450 4666 
L 2450 531 
L 3481 531 
L 3481 0 
L 794 0 
L 794 531 
z
" transform="scale(0.015625)"/>
        <path id="DejaVuSans-33" d="M 2597 2516 
Q 3050 2419 3304 2112 
Q 3559 1806 3559 1356 
Q 3559 666 3084 287 
Q 2609 -91 1734 -91 
Q 1441 -91 1130 -33 
Q 819 25 488 141 
L 488 750 
Q 750 597 1062 519 
Q 1375 441 1716 441 
Q 2309 441 2620 675 
Q 2931 909 2931 1356 
Q 2931 1769 2642 2001 
Q 2353 2234 1838 2234 
L 1294 2234 
L 1294 2753 
L 1863 2753 
Q 2328 2753 2575 2939 
Q 2822 3125 2822 3475 
Q 2822 3834 2567 4026 
Q 2313 4219 1838 4219 
Q 1578 4219 1281 4162 
Q 984 4106 628 3988 
L 628 4550 
Q 988 4650 1302 4700 
Q 1616 4750 1894 4750 
Q 2613 4750 3031 4423 
Q 3450 4097 3450 3541 
Q 3450 3153 3228 2886 
Q 3006 2619 2597 2516 
z
" transform="scale(0.015625)"/>
        <path id="DejaVuSans-2e" d="M 684 794 
L 1344 794 
L 1344 0 
L 684 0 
L 684 794 
z
" transform="scale(0.015625)"/>
        <path id="DejaVuSans-36" d="M 2113 2584 
Q 1688 2584 1439 2293 
Q 1191 2003 1191 1497 
Q 1191 994 1439 701 
Q 1688 409 2113 409 
Q 2538 409 2786 701 
Q 3034 994 3034 1497 
Q 3034 2003 2786 2293 
Q 2538 2584 2113 2584 
z
M 3366 4563 
L 3366 3988 
Q 3128 4100 2886 4159 
Q 2644 4219 2406 4219 
Q 1781 4219 1451 3797 
Q 1122 3375 1075 2522 
Q 1259 2794 1537 2939 
Q 1816 3084 2150 3084 
Q 2853 3084 3261 2657 
Q 3669 2231 3669 1497 
Q 3669 778 3244 343 
Q 2819 -91 2113 -91 
Q 1303 -91 875 529 
Q 447 1150 447 2328 
Q 447 3434 972 4092 
Q 1497 4750 2381 4750 
Q 2619 4750 2861 4703 
Q 3103 4656 3366 4563 
z
" transform="scale(0.015625)"/>
       </defs>
       <use xlink:href="#DejaVuSans-31"/>
       <use xlink:href="#DejaVuSans-33" x="63.623047"/>
       <use xlink:href="#DejaVuSans-2e" x="127.246094"/>
       <use xlink:href="#DejaVuSans-33" x="159.033203"/>
       <use xlink:href="#DejaVuSans-36" x="222.65625"/>
      </g>
     </g>
    </g>
    <g id="xtick_2">
     <g id="line2d_2">
      <g>
       <use xlink:href="#m7058a40181" x="204.67802" y="307.584" style="stroke: #000000; stroke-width: 0.8"/>
      </g>
     </g>
     <g id="text_2">
      <!-- 13.38 -->
      <g transform="translate(190.363957 322.182437) scale(0.1 -0.1)">
       <defs>
        <path id="DejaVuSans-38" d="M 2034 2216 
Q 1584 2216 1326 1975 
Q 1069 1734 1069 1313 
Q 1069 891 1326 650 
Q 1584 409 2034 409 
Q 2484 409 2743 651 
Q 3003 894 3003 1313 
Q 3003 1734 2745 1975 
Q 2488 2216 2034 2216 
z
M 1403 2484 
Q 997 2584 770 2862 
Q 544 3141 544 3541 
Q 544 4100 942 4425 
Q 1341 4750 2034 4750 
Q 2731 4750 3128 4425 
Q 3525 4100 3525 3541 
Q 3525 3141 3298 2862 
Q 3072 2584 2669 2484 
Q 3125 2378 3379 2068 
Q 3634 1759 3634 1313 
Q 3634 634 3220 271 
Q 2806 -91 2034 -91 
Q 1263 -91 848 271 
Q 434 634 434 1313 
Q 434 1759 690 2068 
Q 947 2378 1403 2484 
z
M 1172 3481 
Q 1172 3119 1398 2916 
Q 1625 2713 2034 2713 
Q 2441 2713 2670 2916 
Q 2900 3119 2900 3481 
Q 2900 3844 2670 4047 
Q 2441 4250 2034 4250 
Q 1625 4250 1398 4047 
Q 1172 3844 1172 3481 
z
" transform="scale(0.015625)"/>
       </defs>
       <use xlink:href="#DejaVuSans-31"/>
       <use xlink:href="#DejaVuSans-33" x="63.623047"/>
       <use xlink:href="#DejaVuSans-2e" x="127.246094"/>
       <use xlink:href="#DejaVuSans-33" x="159.033203"/>
       <use xlink:href="#DejaVuSans-38" x="222.65625"/>
      </g>
     </g>
    </g>
    <g id="xtick_3">
     <g id="line2d_3">
      <g>
       <use xlink:href="#m7058a40181" x="257.676782" y="307.584" style="stroke: #000000; stroke-width: 0.8"/>
      </g>
     </g>
     <g id="text_3">
      <!-- 13.40 -->
      <g transform="translate(243.362719 322.182437) scale(0.1 -0.1)">
       <defs>
        <path id="DejaVuSans-34" d="M 2419 4116 
L 825 1625 
L 2419 1625 
L 2419 4116 
z
M 2253 4666 
L 3047 4666 
L 3047 1625 
L 3713 1625 
L 3713 1100 
L 3047 1100 
L 3047 0 
L 2419 0 
L 2419 1100 
L 313 1100 
L 313 1709 
L 2253 4666 
z
" transform="scale(0.015625)"/>
        <path id="DejaVuSans-30" d="M 2034 4250 
Q 1547 4250 1301 3770 
Q 1056 3291 1056 2328 
Q 1056 1369 1301 889 
Q 1547 409 2034 409 
Q 2525 409 2770 889 
Q 3016 1369 3016 2328 
Q 3016 3291 2770 3770 
Q 2525 4250 2034 4250 
z
M 2034 4750 
Q 2819 4750 3233 4129 
Q 3647 3509 3647 2328 
Q 3647 1150 3233 529 
Q 2819 -91 2034 -91 
Q 1250 -91 836 529 
Q 422 1150 422 2328 
Q 422 3509 836 4129 
Q 1250 4750 2034 4750 
z
" transform="scale(0.015625)"/>
       </defs>
       <use xlink:href="#DejaVuSans-31"/>
       <use xlink:href="#DejaVuSans-33" x="63.623047"/>
       <use xlink:href="#DejaVuSans-2e" x="127.246094"/>
       <use xlink:href="#DejaVuSans-34" x="159.033203"/>
       <use xlink:href="#DejaVuSans-30" x="222.65625"/>
      </g>
     </g>
    </g>
    <g id="xtick_4">
     <g id="line2d_4">
      <g>
       <use xlink:href="#m7058a40181" x="310.675544" y="307.584" style="stroke: #000000; stroke-width: 0.8"/>
      </g>
     </g>
     <g id="text_4">
      <!-- 13.42 -->
      <g transform="translate(296.361481 322.182437) scale(0.1 -0.1)">
       <defs>
        <path id="DejaVuSans-32" d="M 1228 531 
L 3431 531 
L 3431 0 
L 469 0 
L 469 531 
Q 828 903 1448 1529 
Q 2069 2156 2228 2338 
Q 2531 2678 2651 2914 
Q 2772 3150 2772 3378 
Q 2772 3750 2511 3984 
Q 2250 4219 1831 4219 
Q 1534 4219 1204 4116 
Q 875 4013 500 3803 
L 500 4441 
Q 881 4594 1212 4672 
Q 1544 4750 1819 4750 
Q 2544 4750 2975 4387 
Q 3406 4025 3406 3419 
Q 3406 3131 3298 2873 
Q 3191 2616 2906 2266 
Q 2828 2175 2409 1742 
Q 1991 1309 1228 531 
z
" transform="scale(0.015625)"/>
       </defs>
       <use xlink:href="#DejaVuSans-31"/>
       <use xlink:href="#DejaVuSans-33" x="63.623047"/>
       <use xlink:href="#DejaVuSans-2e" x="127.246094"/>
       <use xlink:href="#DejaVuSans-34" x="159.033203"/>
       <use xlink:href="#DejaVuSans-32" x="222.65625"/>
      </g>
     </g>
    </g>
    <g id="xtick_5">
     <g id="line2d_5">
      <g>
       <use xlink:href="#m7058a40181" x="363.674306" y="307.584" style="stroke: #000000; stroke-width: 0.8"/>
      </g>
     </g>
     <g id="text_5">
      <!-- 13.44 -->
      <g transform="translate(349.360243 322.182437) scale(0.1 -0.1)">
       <use xlink:href="#DejaVuSans-31"/>
       <use xlink:href="#DejaVuSans-33" x="63.623047"/>
       <use xlink:href="#DejaVuSans-2e" x="127.246094"/>
       <use xlink:href="#DejaVuSans-34" x="159.033203"/>
       <use xlink:href="#DejaVuSans-34" x="222.65625"/>
      </g>
     </g>
    </g>
   </g>
   <g id="matplotlib.axis_2">
    <g id="ytick_1">
     <g id="line2d_6">
      <defs>
       <path id="m6a4fb47468" d="M 0 0 
L -3.5 0 
" style="stroke: #000000; stroke-width: 0.8"/>
      </defs>
      <g>
       <use xlink:href="#m6a4fb47468" x="106.961046" y="302.224619" style="stroke: #000000; stroke-width: 0.8"/>
      </g>
     </g>
     <g id="text_6">
      <!-- 52.55 -->
      <g transform="translate(71.332921 306.023837) scale(0.1 -0.1)">
       <defs>
        <path id="DejaVuSans-35" d="M 691 4666 
L 3169 4666 
L 3169 4134 
L 1269 4134 
L 1269 2991 
Q 1406 3038 1543 3061 
Q 1681 3084 1819 3084 
Q 2600 3084 3056 2656 
Q 3513 2228 3513 1497 
Q 3513 744 3044 326 
Q 2575 -91 1722 -91 
Q 1428 -91 1123 -41 
Q 819 9 494 109 
L 494 744 
Q 775 591 1075 516 
Q 1375 441 1709 441 
Q 2250 441 2565 725 
Q 2881 1009 2881 1497 
Q 2881 1984 2565 2268 
Q 2250 2553 1709 2553 
Q 1456 2553 1204 2497 
Q 953 2441 691 2322 
L 691 4666 
z
" transform="scale(0.015625)"/>
       </defs>
       <use xlink:href="#DejaVuSans-35"/>
       <use xlink:href="#DejaVuSans-32" x="63.623047"/>
       <use xlink:href="#DejaVuSans-2e" x="127.246094"/>
       <use xlink:href="#DejaVuSans-35" x="159.033203"/>
       <use xlink:href="#DejaVuSans-35" x="222.65625"/>
      </g>
     </g>
    </g>
    <g id="ytick_2">
     <g id="line2d_7">
      <g>
       <use xlink:href="#m6a4fb47468" x="106.961046" y="258.615943" style="stroke: #000000; stroke-width: 0.8"/>
      </g>
     </g>
     <g id="text_7">
      <!-- 52.56 -->
      <g transform="translate(71.332921 262.415162) scale(0.1 -0.1)">
       <use xlink:href="#DejaVuSans-35"/>
       <use xlink:href="#DejaVuSans-32" x="63.623047"/>
       <use xlink:href="#DejaVuSans-2e" x="127.246094"/>
       <use xlink:href="#DejaVuSans-35" x="159.033203"/>
       <use xlink:href="#DejaVuSans-36" x="222.65625"/>
      </g>
     </g>
    </g>
    <g id="ytick_3">
     <g id="line2d_8">
      <g>
       <use xlink:href="#m6a4fb47468" x="106.961046" y="215.007267" style="stroke: #000000; stroke-width: 0.8"/>
      </g>
     </g>
     <g id="text_8">
      <!-- 52.57 -->
      <g transform="translate(71.332921 218.806486) scale(0.1 -0.1)">
       <defs>
        <path id="DejaVuSans-37" d="M 525 4666 
L 3525 4666 
L 3525 4397 
L 1831 0 
L 1172 0 
L 2766 4134 
L 525 4134 
L 525 4666 
z
" transform="scale(0.015625)"/>
       </defs>
       <use xlink:href="#DejaVuSans-35"/>
       <use xlink:href="#DejaVuSans-32" x="63.623047"/>
       <use xlink:href="#DejaVuSans-2e" x="127.246094"/>
       <use xlink:href="#DejaVuSans-35" x="159.033203"/>
       <use xlink:href="#DejaVuSans-37" x="222.65625"/>
      </g>
     </g>
    </g>
    <g id="ytick_4">
     <g id="line2d_9">
      <g>
       <use xlink:href="#m6a4fb47468" x="106.961046" y="171.398591" style="stroke: #000000; stroke-width: 0.8"/>
      </g>
     </g>
     <g id="text_9">
      <!-- 52.58 -->
      <g transform="translate(71.332921 175.19781) scale(0.1 -0.1)">
       <use xlink:href="#DejaVuSans-35"/>
       <use xlink:href="#DejaVuSans-32" x="63.623047"/>
       <use xlink:href="#DejaVuSans-2e" x="127.246094"/>
       <use xlink:href="#DejaVuSans-35" x="159.033203"/>
       <use xlink:href="#DejaVuSans-38" x="222.65625"/>
      </g>
     </g>
    </g>
    <g id="ytick_5">
     <g id="line2d_10">
      <g>
       <use xlink:href="#m6a4fb47468" x="106.961046" y="127.789916" style="stroke: #000000; stroke-width: 0.8"/>
      </g>
     </g>
     <g id="text_10">
      <!-- 52.59 -->
      <g transform="translate(71.332921 131.589134) scale(0.1 -0.1)">
       <defs>
        <path id="DejaVuSans-39" d="M 703 97 
L 703 672 
Q 941 559 1184 500 
Q 1428 441 1663 441 
Q 2288 441 2617 861 
Q 2947 1281 2994 2138 
Q 2813 1869 2534 1725 
Q 2256 1581 1919 1581 
Q 1219 1581 811 2004 
Q 403 2428 403 3163 
Q 403 3881 828 4315 
Q 1253 4750 1959 4750 
Q 2769 4750 3195 4129 
Q 3622 3509 3622 2328 
Q 3622 1225 3098 567 
Q 2575 -91 1691 -91 
Q 1453 -91 1209 -44 
Q 966 3 703 97 
z
M 1959 2075 
Q 2384 2075 2632 2365 
Q 2881 2656 2881 3163 
Q 2881 3666 2632 3958 
Q 2384 4250 1959 4250 
Q 1534 4250 1286 3958 
Q 1038 3666 1038 3163 
Q 1038 2656 1286 2365 
Q 1534 2075 1959 2075 
z
" transform="scale(0.015625)"/>
       </defs>
       <use xlink:href="#DejaVuSans-35"/>
       <use xlink:href="#DejaVuSans-32" x="63.623047"/>
       <use xlink:href="#DejaVuSans-2e" x="127.246094"/>
       <use xlink:href="#DejaVuSans-35" x="159.033203"/>
       <use xlink:href="#DejaVuSans-39" x="222.65625"/>
      </g>
     </g>
    </g>
    <g id="ytick_6">
     <g id="line2d_11">
      <g>
       <use xlink:href="#m6a4fb47468" x="106.961046" y="84.18124" style="stroke: #000000; stroke-width: 0.8"/>
      </g>
     </g>
     <g id="text_11">
      <!-- 52.60 -->
      <g transform="translate(71.332921 87.980459) scale(0.1 -0.1)">
       <use xlink:href="#DejaVuSans-35"/>
       <use xlink:href="#DejaVuSans-32" x="63.623047"/>
       <use xlink:href="#DejaVuSans-2e" x="127.246094"/>
       <use xlink:href="#DejaVuSans-36" x="159.033203"/>
       <use xlink:href="#DejaVuSans-30" x="222.65625"/>
      </g>
     </g>
    </g>
   </g>
   <g id="patch_3">
    <path d="M 106.961046 307.584 
L 106.961046 41.472 
" style="fill: none; stroke: #000000; stroke-width: 0.8; stroke-linejoin: miter; stroke-linecap: square"/>
   </g>
   <g id="patch_4">
    <path d="M 365.358954 307.584 
L 365.358954 41.472 
" style="fill: none; stroke: #000000; stroke-width: 0.8; stroke-linejoin: miter; stroke-linecap: square"/>
   </g>
   <g id="patch_5">
    <path d="M 106.961046 307.584 
L 365.358954 307.584 
" style="fill: none; stroke: #000000; stroke-width: 0.8; stroke-linejoin: miter; stroke-linecap: square"/>
   </g>
   <g id="patch_6">
    <path d="M 106.961046 41.472 
L 365.358954 41.472 
" style="fill: none; stroke: #000000; stroke-width: 0.8; stroke-linejoin: miter; stroke-linecap: square"/>
   </g>
   <g id="text_12">
    <!-- Sdliches_Pankow -->
    <g transform="translate(197.522297 184.207387) scale(0.12 -0.12)">
     <defs>
      <path id="DejaVuSans-53" d="M 3425 4513 
L 3425 3897 
Q 3066 4069 2747 4153 
Q 2428 4238 2131 4238 
Q 1616 4238 1336 4038 
Q 1056 3838 1056 3469 
Q 1056 3159 1242 3001 
Q 1428 2844 1947 2747 
L 2328 2669 
Q 3034 2534 3370 2195 
Q 3706 1856 3706 1288 
Q 3706 609 3251 259 
Q 2797 -91 1919 -91 
Q 1588 -91 1214 -16 
Q 841 59 441 206 
L 441 856 
Q 825 641 1194 531 
Q 1563 422 1919 422 
Q 2459 422 2753 634 
Q 3047 847 3047 1241 
Q 3047 1584 2836 1778 
Q 2625 1972 2144 2069 
L 1759 2144 
Q 1053 2284 737 2584 
Q 422 2884 422 3419 
Q 422 4038 858 4394 
Q 1294 4750 2059 4750 
Q 2388 4750 2728 4690 
Q 3069 4631 3425 4513 
z
" transform="scale(0.015625)"/>
      <path id="DejaVuSans-fc" d="M 544 1381 
L 544 3500 
L 1119 3500 
L 1119 1403 
Q 1119 906 1312 657 
Q 1506 409 1894 409 
Q 2359 409 2629 706 
Q 2900 1003 2900 1516 
L 2900 3500 
L 3475 3500 
L 3475 0 
L 2900 0 
L 2900 538 
Q 2691 219 2414 64 
Q 2138 -91 1772 -91 
Q 1169 -91 856 284 
Q 544 659 544 1381 
z
M 1991 3584 
L 1991 3584 
z
M 2278 4850 
L 2912 4850 
L 2912 4219 
L 2278 4219 
L 2278 4850 
z
M 1056 4850 
L 1690 4850 
L 1690 4219 
L 1056 4219 
L 1056 4850 
z
" transform="scale(0.015625)"/>
      <path id="DejaVuSans-64" d="M 2906 2969 
L 2906 4863 
L 3481 4863 
L 3481 0 
L 2906 0 
L 2906 525 
Q 2725 213 2448 61 
Q 2172 -91 1784 -91 
Q 1150 -91 751 415 
Q 353 922 353 1747 
Q 353 2572 751 3078 
Q 1150 3584 1784 3584 
Q 2172 3584 2448 3432 
Q 2725 3281 2906 2969 
z
M 947 1747 
Q 947 1113 1208 752 
Q 1469 391 1925 391 
Q 2381 391 2643 752 
Q 2906 1113 2906 1747 
Q 2906 2381 2643 2742 
Q 2381 3103 1925 3103 
Q 1469 3103 1208 2742 
Q 947 2381 947 1747 
z
" transform="scale(0.015625)"/>
      <path id="DejaVuSans-6c" d="M 603 4863 
L 1178 4863 
L 1178 0 
L 603 0 
L 603 4863 
z
" transform="scale(0.015625)"/>
      <path id="DejaVuSans-69" d="M 603 3500 
L 1178 3500 
L 1178 0 
L 603 0 
L 603 3500 
z
M 603 4863 
L 1178 4863 
L 1178 4134 
L 603 4134 
L 603 4863 
z
" transform="scale(0.015625)"/>
      <path id="DejaVuSans-63" d="M 3122 3366 
L 3122 2828 
Q 2878 2963 2633 3030 
Q 2388 3097 2138 3097 
Q 1578 3097 1268 2742 
Q 959 2388 959 1747 
Q 959 1106 1268 751 
Q 1578 397 2138 397 
Q 2388 397 2633 464 
Q 2878 531 3122 666 
L 3122 134 
Q 2881 22 2623 -34 
Q 2366 -91 2075 -91 
Q 1284 -91 818 406 
Q 353 903 353 1747 
Q 353 2603 823 3093 
Q 1294 3584 2113 3584 
Q 2378 3584 2631 3529 
Q 2884 3475 3122 3366 
z
" transform="scale(0.015625)"/>
      <path id="DejaVuSans-68" d="M 3513 2113 
L 3513 0 
L 2938 0 
L 2938 2094 
Q 2938 2591 2744 2837 
Q 2550 3084 2163 3084 
Q 1697 3084 1428 2787 
Q 1159 2491 1159 1978 
L 1159 0 
L 581 0 
L 581 4863 
L 1159 4863 
L 1159 2956 
Q 1366 3272 1645 3428 
Q 1925 3584 2291 3584 
Q 2894 3584 3203 3211 
Q 3513 2838 3513 2113 
z
" transform="scale(0.015625)"/>
      <path id="DejaVuSans-65" d="M 3597 1894 
L 3597 1613 
L 953 1613 
Q 991 1019 1311 708 
Q 1631 397 2203 397 
Q 2534 397 2845 478 
Q 3156 559 3463 722 
L 3463 178 
Q 3153 47 2828 -22 
Q 2503 -91 2169 -91 
Q 1331 -91 842 396 
Q 353 884 353 1716 
Q 353 2575 817 3079 
Q 1281 3584 2069 3584 
Q 2775 3584 3186 3129 
Q 3597 2675 3597 1894 
z
M 3022 2063 
Q 3016 2534 2758 2815 
Q 2500 3097 2075 3097 
Q 1594 3097 1305 2825 
Q 1016 2553 972 2059 
L 3022 2063 
z
" transform="scale(0.015625)"/>
      <path id="DejaVuSans-73" d="M 2834 3397 
L 2834 2853 
Q 2591 2978 2328 3040 
Q 2066 3103 1784 3103 
Q 1356 3103 1142 2972 
Q 928 2841 928 2578 
Q 928 2378 1081 2264 
Q 1234 2150 1697 2047 
L 1894 2003 
Q 2506 1872 2764 1633 
Q 3022 1394 3022 966 
Q 3022 478 2636 193 
Q 2250 -91 1575 -91 
Q 1294 -91 989 -36 
Q 684 19 347 128 
L 347 722 
Q 666 556 975 473 
Q 1284 391 1588 391 
Q 1994 391 2212 530 
Q 2431 669 2431 922 
Q 2431 1156 2273 1281 
Q 2116 1406 1581 1522 
L 1381 1569 
Q 847 1681 609 1914 
Q 372 2147 372 2553 
Q 372 3047 722 3315 
Q 1072 3584 1716 3584 
Q 2034 3584 2315 3537 
Q 2597 3491 2834 3397 
z
" transform="scale(0.015625)"/>
      <path id="DejaVuSans-5f" d="M 3263 -1063 
L 3263 -1509 
L -63 -1509 
L -63 -1063 
L 3263 -1063 
z
" transform="scale(0.015625)"/>
      <path id="DejaVuSans-50" d="M 1259 4147 
L 1259 2394 
L 2053 2394 
Q 2494 2394 2734 2622 
Q 2975 2850 2975 3272 
Q 2975 3691 2734 3919 
Q 2494 4147 2053 4147 
L 1259 4147 
z
M 628 4666 
L 2053 4666 
Q 2838 4666 3239 4311 
Q 3641 3956 3641 3272 
Q 3641 2581 3239 2228 
Q 2838 1875 2053 1875 
L 1259 1875 
L 1259 0 
L 628 0 
L 628 4666 
z
" transform="scale(0.015625)"/>
      <path id="DejaVuSans-61" d="M 2194 1759 
Q 1497 1759 1228 1600 
Q 959 1441 959 1056 
Q 959 750 1161 570 
Q 1363 391 1709 391 
Q 2188 391 2477 730 
Q 2766 1069 2766 1631 
L 2766 1759 
L 2194 1759 
z
M 3341 1997 
L 3341 0 
L 2766 0 
L 2766 531 
Q 2569 213 2275 61 
Q 1981 -91 1556 -91 
Q 1019 -91 701 211 
Q 384 513 384 1019 
Q 384 1609 779 1909 
Q 1175 2209 1959 2209 
L 2766 2209 
L 2766 2266 
Q 2766 2663 2505 2880 
Q 2244 3097 1772 3097 
Q 1472 3097 1187 3025 
Q 903 2953 641 2809 
L 641 3341 
Q 956 3463 1253 3523 
Q 1550 3584 1831 3584 
Q 2591 3584 2966 3190 
Q 3341 2797 3341 1997 
z
" transform="scale(0.015625)"/>
      <path id="DejaVuSans-6e" d="M 3513 2113 
L 3513 0 
L 2938 0 
L 2938 2094 
Q 2938 2591 2744 2837 
Q 2550 3084 2163 3084 
Q 1697 3084 1428 2787 
Q 1159 2491 1159 1978 
L 1159 0 
L 581 0 
L 581 3500 
L 1159 3500 
L 1159 2956 
Q 1366 3272 1645 3428 
Q 1925 3584 2291 3584 
Q 2894 3584 3203 3211 
Q 3513 2838 3513 2113 
z
" transform="scale(0.015625)"/>
      <path id="DejaVuSans-6b" d="M 581 4863 
L 1159 4863 
L 1159 1991 
L 2875 3500 
L 3609 3500 
L 1753 1863 
L 3688 0 
L 2938 0 
L 1159 1709 
L 1159 0 
L 581 0 
L 581 4863 
z
" transform="scale(0.015625)"/>
      <path id="DejaVuSans-6f" d="M 1959 3097 
Q 1497 3097 1228 2736 
Q 959 2375 959 1747 
Q 959 1119 1226 758 
Q 1494 397 1959 397 
Q 2419 397 2687 759 
Q 2956 1122 2956 1747 
Q 2956 2369 2687 2733 
Q 2419 3097 1959 3097 
z
M 1959 3584 
Q 2709 3584 3137 3096 
Q 3566 2609 3566 1747 
Q 3566 888 3137 398 
Q 2709 -91 1959 -91 
Q 1206 -91 779 398 
Q 353 888 353 1747 
Q 353 2609 779 3096 
Q 1206 3584 1959 3584 
z
" transform="scale(0.015625)"/>
      <path id="DejaVuSans-77" d="M 269 3500 
L 844 3500 
L 1563 769 
L 2278 3500 
L 2956 3500 
L 3675 769 
L 4391 3500 
L 4966 3500 
L 4050 0 
L 3372 0 
L 2619 2869 
L 1863 0 
L 1184 0 
L 269 3500 
z
" transform="scale(0.015625)"/>
     </defs>
     <use xlink:href="#DejaVuSans-53"/>
     <use xlink:href="#DejaVuSans-fc" x="63.476562"/>
     <use xlink:href="#DejaVuSans-64" x="126.855469"/>
     <use xlink:href="#DejaVuSans-6c" x="190.332031"/>
     <use xlink:href="#DejaVuSans-69" x="218.115234"/>
     <use xlink:href="#DejaVuSans-63" x="245.898438"/>
     <use xlink:href="#DejaVuSans-68" x="300.878906"/>
     <use xlink:href="#DejaVuSans-65" x="364.257812"/>
     <use xlink:href="#DejaVuSans-73" x="425.78125"/>
     <use xlink:href="#DejaVuSans-5f" x="477.880859"/>
     <use xlink:href="#DejaVuSans-50" x="527.880859"/>
     <use xlink:href="#DejaVuSans-61" x="583.683594"/>
     <use xlink:href="#DejaVuSans-6e" x="644.962891"/>
     <use xlink:href="#DejaVuSans-6b" x="708.341797"/>
     <use xlink:href="#DejaVuSans-6f" x="762.626953"/>
     <use xlink:href="#DejaVuSans-77" x="823.808594"/>
    </g>
   </g>
  </g>
 </g>
 <defs>
  <clipPath id="p2b7f786fce">
   <rect x="106.961046" y="41.472" width="258.397909" height="266.112"/>
  </clipPath>
 </defs>
</svg>
