<?xml version="1.0" encoding="utf-8" standalone="no"?>
<!DOCTYPE svg PUBLIC "-//W3C//DTD SVG 1.1//EN"
  "http://www.w3.org/Graphics/SVG/1.1/DTD/svg11.dtd">
<svg xmlns:xlink="http://www.w3.org/1999/xlink" width="720pt" height="720pt" viewBox="0 0 720 720" xmlns="http://www.w3.org/2000/svg" version="1.1">
 <metadata>
  <rdf:RDF xmlns:dc="http://purl.org/dc/elements/1.1/" xmlns:cc="http://creativecommons.org/ns#" xmlns:rdf="http://www.w3.org/1999/02/22-rdf-syntax-ns#">
   <cc:Work>
    <dc:type rdf:resource="http://purl.org/dc/dcmitype/StillImage"/>
    <dc:date>2024-10-22T09:54:09.607483</dc:date>
    <dc:format>image/svg+xml</dc:format>
    <dc:creator>
     <cc:Agent>
      <dc:title>Matplotlib v3.9.2, https://matplotlib.org/</dc:title>
     </cc:Agent>
    </dc:creator>
   </cc:Work>
  </rdf:RDF>
 </metadata>
 <defs>
  <style type="text/css">*{stroke-linejoin: round; stroke-linecap: butt}</style>
 </defs>
 <g id="figure_1">
  <g id="patch_1">
   <path d="M 0 720 
L 720 720 
L 720 0 
L 0 0 
z
" style="fill: #ffffff"/>
  </g>
  <g id="axes_1">
   <g id="patch_2">
    <path d="M 90 591.817818 
L 648 591.817818 
L 648 135.382182 
L 90 135.382182 
z
" style="fill: #ffffff"/>
   </g>
   <g id="PatchCollection_1">
    <path d="M 586.999402 469.793867 
L 587.193682 469.580065 
L 587.383936 469.362764 
L 587.570239 469.142111 
L 587.75259 468.918104 
L 587.930849 468.690894 
L 588.105012 468.460407 
L 588.158655 468.387689 
L 588.211925 468.314685 
L 588.264751 468.241399 
L 588.396799 468.054335 
L 588.526172 467.865354 
L 588.652871 467.67453 
L 588.774143 467.486031 
L 588.89282 467.295907 
L 589.008826 467.104085 
L 589.122166 466.910713 
L 589.154482 466.854397 
L 589.186576 466.79794 
L 589.218447 466.741341 
L 589.234448 466.712674 
L 589.250448 466.684007 
L 589.266375 466.655341 
L 589.358775 466.48562 
L 589.449176 466.314773 
L 589.53321 466.1511 
L 589.537433 466.142876 
L 589.659278 465.896968 
L 589.776911 465.649032 
L 589.890258 465.39907 
L 589.999396 465.147227 
L 590.10418 464.893579 
L 590.211228 464.620893 
L 590.313337 464.346343 
L 590.41036 464.069932 
L 590.502372 463.791732 
L 590.589304 463.511964 
L 591.217526 461.422064 
L 591.392228 460.389778 
L 591.887072 460.433097 
L 594.632494 460.677337 
L 600.594005 461.207209 
L 604.479416 461.553097 
L 605.778731 461.67957 
L 606.869138 461.785828 
L 607.433948 461.839786 
L 607.959393 461.891874 
L 609.088337 462.002229 
L 610.148709 462.105529 
L 611.29537 462.217313 
L 611.841985 462.27148 
L 612.473663 462.860766 
L 613.985289 464.270937 
L 614.053259 464.33438 
L 614.113981 464.390881 
L 614.253652 464.521052 
L 616.147798 466.283448 
L 616.610681 465.869766 
L 616.901741 465.595533 
L 617.112463 465.491687 
L 617.350863 465.374224 
L 617.65654 465.223608 
L 618.361541 464.584111 
L 618.099977 464.340286 
L 618.074208 464.316254 
L 617.843713 464.101323 
L 616.042537 462.421719 
L 615.80793 462.202927 
L 615.783356 462.179967 
L 615.517157 461.931853 
L 615.357857 462.100993 
L 614.775658 461.559081 
L 614.212975 461.036362 
L 613.663436 460.525874 
L 613.515032 460.387915 
L 613.262156 460.153495 
L 611.676108 458.679961 
L 611.67848 458.545175 
L 610.711954 457.450907 
L 610.281515 457.0504 
L 610.132677 456.909594 
L 609.915844 456.707546 
L 609.144937 455.989111 
L 608.963776 456.183245 
L 608.08972 455.372132 
L 608.271555 455.178716 
L 607.429748 454.393832 
L 606.592299 453.611121 
L 605.750486 452.826315 
L 604.689349 451.836445 
L 603.679024 450.895023 
L 603.622704 450.842527 
L 603.622202 450.842978 
L 601.505299 448.869212 
L 601.035041 448.429105 
L 600.661223 448.079193 
L 600.442451 447.822145 
L 600.43073 447.808343 
L 600.361549 447.711724 
L 600.224241 447.519855 
L 600.077767 447.282385 
L 600.038891 447.219442 
L 599.995203 447.134839 
L 599.876917 446.905804 
L 599.862911 446.87219 
L 599.738918 446.57966 
L 599.625067 446.245258 
L 599.535272 445.904947 
L 599.471049 445.557956 
L 599.456734 445.463508 
L 599.43232 445.207148 
L 599.41849 444.858474 
L 599.43089 444.503106 
L 599.457525 444.226061 
L 599.361057 444.22647 
L 599.608351 443.079541 
L 599.808481 442.156256 
L 599.850353 441.962936 
L 599.854972 441.941424 
L 599.859666 441.919984 
L 599.909263 441.690859 
L 600.133405 440.656602 
L 600.291283 439.924614 
L 600.420548 439.32529 
L 600.470057 439.095507 
L 600.490123 439.002313 
L 600.807855 437.569405 
L 601.146885 435.992109 
L 601.371278 434.954422 
L 601.442959 434.624433 
L 601.489718 434.408422 
L 601.737638 433.262726 
L 601.86577 432.671126 
L 602.032278 431.902413 
L 602.109674 431.544509 
L 602.420853 430.105818 
L 602.49825 429.747914 
L 602.600741 429.277053 
L 602.768045 428.507883 
L 602.8295 428.225558 
L 603.125358 426.866978 
L 603.190517 426.567781 
L 603.19521 426.546267 
L 603.268258 426.208842 
L 603.428957 425.466875 
L 603.19786 425.417266 
L 603.720619 423.024461 
L 604.053838 421.441292 
L 604.188048 420.820197 
L 604.240193 420.578879 
L 604.434709 419.721627 
L 604.653721 419.773204 
L 604.869571 418.79524 
L 604.917083 418.580018 
L 604.923042 418.553198 
L 605.019638 418.105345 
L 605.032717 418.045006 
L 605.186895 417.333685 
L 605.225581 417.154074 
L 605.257288 417.007758 
L 605.381862 416.432515 
L 605.444248 416.142839 
L 605.734409 414.394275 
L 605.630707 414.221049 
L 605.905838 412.913605 
L 606.133305 412.96396 
L 606.383059 411.810969 
L 607.520711 406.56069 
L 607.548742 406.441875 
L 607.581185 406.324203 
L 607.617898 406.207826 
L 607.659024 406.092665 
L 607.704354 405.979092 
L 608.524363 401.869016 
L 608.559894 401.704579 
L 609.214782 398.673987 
L 609.299068 398.275095 
L 609.381824 397.882762 
L 609.442443 397.601778 
L 609.6751 396.524248 
L 609.830138 395.805066 
L 609.985044 395.089699 
L 610.185351 394.15916 
L 610.296842 393.643525 
L 610.361783 393.337518 
L 610.553192 392.455272 
L 610.819716 391.213712 
L 611.011976 390.330275 
L 611.05388 390.125154 
L 611.281587 389.07347 
L 611.597732 387.612209 
L 611.709517 387.144249 
L 611.887505 386.266201 
L 612.115092 385.209096 
L 612.606248 382.921204 
L 612.748867 382.252597 
L 613.479599 378.868913 
L 613.540547 378.582937 
L 613.728476 377.71397 
L 613.790156 377.427977 
L 613.825216 377.265091 
L 614.008316 376.414927 
L 614.108679 375.948811 
L 614.503872 374.113961 
L 614.745415 372.992542 
L 615.015276 371.739106 
L 615.117692 371.263634 
L 615.29954 370.419144 
L 615.331814 370.271717 
L 615.350635 370.184416 
L 615.398653 368.802202 
L 615.649422 367.643111 
L 615.820716 366.851206 
L 615.988388 366.076537 
L 616.061058 365.740737 
L 616.167947 365.246688 
L 616.240488 364.911625 
L 616.407828 364.138356 
L 616.579126 363.346451 
L 616.795162 362.348407 
L 617.034405 362.362797 
L 617.096596 362.073421 
L 617.283772 361.205939 
L 617.346532 360.912665 
L 617.360523 360.847321 
L 617.562251 359.913383 
L 618.425413 355.896456 
L 618.56604 355.251502 
L 618.643487 354.894407 
L 618.875926 353.733768 
L 619.114725 352.541382 
L 619.162679 352.290674 
L 619.379788 351.138817 
L 619.786783 349.017673 
L 620.109222 347.328924 
L 620.29588 346.346444 
L 620.355909 346.032782 
L 620.795373 343.733933 
L 620.859493 343.397893 
L 620.927721 343.04028 
L 620.98782 342.72647 
L 621.042971 342.439017 
L 621.07295 342.280648 
L 621.091271 342.184197 
L 621.346596 340.837496 
L 621.511392 339.968776 
L 621.570908 339.65498 
L 621.639036 339.302501 
L 621.687887 339.049353 
L 621.803499 338.451015 
L 622.086382 336.96748 
L 622.149402 336.637549 
L 622.336865 335.654612 
L 622.114198 335.611539 
L 622.214477 335.077403 
L 622.248344 334.897319 
L 622.384702 334.171246 
L 622.419752 333.983559 
L 622.487006 333.623429 
L 622.519874 333.44762 
L 622.632802 332.842828 
L 622.636364 332.823753 
L 622.38794 332.300922 
L 622.604569 331.114627 
L 621.844254 331.150988 
L 621.331843 331.175494 
L 621.4177 330.707152 
L 621.444068 330.563307 
L 620.880835 330.599304 
L 619.581193 330.694667 
L 615.939006 330.830206 
L 612.15948 331.005399 
L 609.91937 330.953876 
L 608.053053 331.15758 
L 606.268395 331.37032 
L 603.146568 331.645498 
L 600.917552 331.545614 
L 600.205604 331.505345 
L 599.464885 331.463474 
L 597.345898 331.629124 
L 594.391931 331.622367 
L 591.904023 332.097682 
L 591.13058 331.731638 
L 590.746867 331.610744 
L 588.852412 330.677102 
L 586.585172 329.681482 
L 584.756749 328.87871 
L 584.492353 328.761056 
L 582.553956 327.898182 
L 581.465324 327.419427 
L 580.603115 327.461131 
L 578.446137 327.565544 
L 577.064237 327.632338 
L 576.553311 327.657071 
L 575.993016 327.684201 
L 574.91727 328.143224 
L 574.656568 328.254417 
L 572.779901 329.05516 
L 571.674697 329.526681 
L 571.31375 329.583916 
L 570.903781 329.648966 
L 569.016518 329.948217 
L 567.123566 330.247904 
L 565.090975 330.569772 
L 563.065525 330.890458 
L 561.037312 331.211661 
L 560.078022 331.363583 
L 559.003043 331.536388 
L 558.489302 331.619049 
L 557.550614 331.767051 
L 557.050235 331.875429 
L 557.046846 331.876163 
L 556.957807 331.895542 
L 555.505656 332.20728 
L 554.991015 332.326692 
L 553.271043 332.688091 
L 553.092003 332.732665 
L 550.299555 333.339417 
L 548.765252 333.670622 
L 544.935145 334.49747 
L 541.814522 334.573261 
L 541.004024 334.592959 
L 539.052897 334.627848 
L 538.457136 334.638421 
L 537.081015 334.663086 
L 536.642452 334.670862 
L 536.584746 334.676245 
L 536.447025 334.937716 
L 536.291789 335.231924 
L 536.007718 335.770389 
L 535.99677 335.771231 
L 535.987997 335.771217 
L 535.97967 335.809236 
L 535.004999 335.849139 
L 535.032737 335.724828 
L 535.109892 335.368014 
L 534.295483 335.404899 
L 534.012065 335.842632 
L 533.268381 335.878614 
L 532.573097 335.912255 
L 533.215588 334.92015 
L 532.822495 334.943358 
L 518.447378 335.791075 
L 514.581831 335.991901 
L 511.118796 336.14703 
L 510.464224 336.184394 
L 510.381186 336.075583 
L 505.397542 336.25725 
L 505.026888 336.211277 
L 500.895942 335.70195 
L 500.127198 335.540508 
L 499.407527 335.389129 
L 499.184405 335.330382 
L 498.715282 335.181908 
L 497.718061 334.923587 
L 497.111429 334.766401 
L 496.349002 334.5689 
L 495.459014 334.334744 
L 495.067559 334.165535 
L 494.113114 333.739013 
L 491.609956 332.62046 
L 490.313412 332.041101 
L 490.159339 331.958891 
L 488.821053 331.227023 
L 482.542605 327.825509 
L 481.444467 327.230951 
L 481.352978 327.181411 
L 479.704425 326.28875 
L 479.260174 326.048159 
L 478.422094 325.594013 
L 477.576762 325.136227 
L 477.345603 325.405423 
L 475.128116 324.192578 
L 473.412485 323.25445 
L 469.32844 321.020658 
L 469.363335 320.980984 
L 465.153781 318.638634 
L 464.697359 318.385008 
L 464.588746 318.293158 
L 464.22101 317.980335 
L 464.122876 317.895715 
L 463.403802 317.641256 
L 463.096194 317.472741 
L 460.90575 316.27298 
L 460.877804 316.25678 
L 460.326859 315.935608 
L 457.680494 314.392805 
L 455.451244 313.161227 
L 455.386613 313.584175 
L 454.332698 313.055067 
L 451.508996 311.488207 
L 452.411005 310.936819 
L 449.500139 309.342715 
L 448.191878 308.626268 
L 446.974648 307.959717 
L 443.605962 306.115023 
L 443.084634 305.829534 
L 442.251531 305.373375 
L 440.082723 304.18569 
L 437.723671 302.763337 
L 436.553704 301.9694 
L 436.882816 301.591202 
L 436.448451 301.322794 
L 436.155523 301.129911 
L 434.389018 299.82336 
L 434.182279 299.639064 
L 432.444183 297.996853 
L 431.074423 296.632534 
L 430.183798 295.52808 
L 429.594756 294.797287 
L 429.244071 294.828254 
L 428.718115 294.874592 
L 428.578416 294.699412 
L 428.503988 294.578233 
L 427.842564 293.603829 
L 427.739412 293.421918 
L 428.232521 293.377896 
L 429.158816 293.294427 
L 428.971864 292.839616 
L 427.934087 290.312324 
L 427.497 289.226428 
L 426.439118 286.655419 
L 425.161442 283.530551 
L 423.503495 279.484483 
L 423.204423 278.753784 
L 423.135359 278.585066 
L 422.770971 277.695823 
L 422.51741 277.077883 
L 418.464306 267.186904 
L 417.875916 265.926572 
L 417.230719 264.546274 
L 417.062584 264.18661 
L 416.869732 263.774314 
L 416.776611 263.816329 
L 416.397108 263.987489 
L 416.207619 264.073355 
L 416.131938 264.107626 
L 415.691464 264.307283 
L 415.64733 264.327317 
L 415.557252 264.368087 
L 415.402275 264.438327 
L 415.271233 264.503308 
L 413.216568 259.499799 
L 411.285331 254.797003 
L 408.002898 246.847515 
L 407.724693 246.970251 
L 407.563735 246.584095 
L 407.163983 245.625044 
L 407.040102 245.675397 
L 407.012067 245.611649 
L 406.886202 245.325443 
L 404.445801 239.776301 
L 402.129339 234.509159 
L 401.786156 233.739989 
L 401.389307 232.850541 
L 400.016657 230.011988 
L 399.599385 229.108412 
L 399.201802 228.187143 
L 398.993718 227.670763 
L 398.834278 227.275201 
L 398.492278 226.360307 
L 396.582877 220.967465 
L 396.528482 220.81387 
L 396.521013 220.79191 
L 396.115103 219.646461 
L 396.110591 219.628903 
L 393.683439 213.815766 
L 393.681078 213.810007 
L 392.56982 211.099281 
L 391.652518 209.099793 
L 391.492253 208.750362 
L 391.486308 208.737162 
L 391.191567 208.086507 
L 390.822966 207.272825 
L 390.21109 205.755291 
L 390.139055 205.576681 
L 390.013316 205.622339 
L 389.713849 204.803493 
L 389.396399 203.935743 
L 389.369105 203.845717 
L 389.191266 203.378468 
L 388.843853 202.410053 
L 388.978877 202.361095 
L 388.92175 202.197451 
L 388.883458 202.087822 
L 388.680223 201.505799 
L 387.069013 196.892593 
L 386.956 196.941467 
L 386.913219 196.913971 
L 386.868261 196.890266 
L 386.821349 196.870566 
L 386.759903 196.851725 
L 386.696718 196.839743 
L 386.632675 196.834746 
L 386.568434 196.83679 
L 386.504797 196.845856 
L 386.44257 196.861927 
L 386.382477 196.88469 
L 386.32517 196.913911 
L 386.113723 197.037261 
L 385.269507 194.733452 
L 385.437882 194.638104 
L 385.765256 194.446823 
L 385.77441 194.228455 
L 385.76883 194.172071 
L 385.759679 194.116212 
L 385.747031 194.06095 
L 385.730968 194.006649 
L 385.59508 193.612438 
L 385.455854 193.219333 
L 385.313149 192.827557 
L 385.187343 192.482219 
L 385.058638 192.137976 
L 384.927104 191.794754 
L 384.792671 191.452701 
L 384.701783 191.225721 
L 384.609517 190.999288 
L 384.516092 190.773322 
L 384.421526 190.548557 
L 384.325655 190.324335 
L 384.228554 190.100656 
L 384.130005 189.877598 
L 384.030226 189.655156 
L 383.929289 189.433182 
L 383.825451 189.212302 
L 383.720312 188.99204 
L 383.614017 188.772392 
L 383.507218 188.553123 
L 383.397961 188.335012 
L 383.28632 188.118204 
L 383.174534 187.901473 
L 383.062387 187.684897 
L 382.949877 187.468476 
L 382.820236 187.223655 
L 382.689151 186.979603 
L 382.556764 186.73624 
L 382.06938 185.853489 
L 381.97796 185.901116 
L 381.95315 185.856261 
L 379.144505 180.778459 
L 375.21602 173.680632 
L 373.324978 170.264092 
L 371.671695 167.283467 
L 371.416499 166.822398 
L 366.197464 157.385954 
L 365.921198 156.906847 
L 365.472807 156.129256 
L 365.345653 156.442 
L 364.909868 157.661032 
L 364.780024 158.023613 
L 364.555187 158.402684 
L 363.570985 160.066137 
L 362.073094 161.767232 
L 360.894648 163.013329 
L 359.811637 164.021553 
L 358.108731 165.413999 
L 357.566504 165.857376 
L 352.735724 169.402555 
L 351.620258 170.351619 
L 349.7993 172.049209 
L 348.36001 174.065117 
L 348.227746 174.223979 
L 347.243534 175.400306 
L 347.20677 175.361603 
L 346.738256 176.016892 
L 346.174874 176.804872 
L 345.698583 177.47168 
L 345.018502 178.352724 
L 344.492274 179.034261 
L 344.155431 179.470522 
L 342.843773 181.314356 
L 342.06884 180.540148 
L 339.109063 176.759566 
L 338.88221 176.387271 
L 338.680932 176.056879 
L 338.150647 174.819108 
L 336.669865 173.208576 
L 336.093139 172.581364 
L 336.063601 172.600252 
L 335.122055 171.631178 
L 333.663338 172.747375 
L 331.164932 174.659225 
L 330.099179 175.227527 
L 327.500459 176.591596 
L 326.119044 177.316729 
L 324.660745 178.188558 
L 318.628569 181.794936 
L 317.597123 182.36773 
L 315.494346 183.426393 
L 313.939189 184.09938 
L 312.640022 184.670852 
L 311.19047 185.022003 
L 309.038793 185.179444 
L 308.512694 185.198473 
L 308.138225 185.2055 
L 306.935928 185.15695 
L 302.011927 184.958157 
L 301.630398 184.957517 
L 301.248915 184.964867 
L 300.867621 184.980129 
L 300.486811 185.00337 
L 300.106484 185.034516 
L 299.72693 185.073562 
L 299.3483 185.120575 
L 298.970661 185.175408 
L 298.597333 185.226986 
L 298.22514 185.286234 
L 297.854228 185.353148 
L 297.484816 185.427723 
L 297.116978 185.509958 
L 296.750929 185.5997 
L 296.532669 185.642341 
L 296.315725 185.691035 
L 296.100168 185.745706 
L 295.886215 185.806276 
L 295.674013 185.872742 
L 295.463706 185.945027 
L 295.25544 186.023127 
L 294.874585 186.14812 
L 294.49625 186.280603 
L 294.120656 186.42057 
L 293.747874 186.568021 
L 293.37812 186.722802 
L 293.011469 186.884913 
L 292.648062 187.054203 
L 292.264353 187.240037 
L 291.884335 187.433331 
L 291.508074 187.633866 
L 291.135718 187.841638 
L 290.767485 188.056641 
L 290.403444 188.278654 
L 290.04374 188.507673 
L 289.747321 188.691625 
L 289.455084 188.88222 
L 289.167172 189.079309 
L 288.88373 189.282814 
L 288.604902 189.492659 
L 288.330831 189.708693 
L 288.061659 189.930767 
L 288.005181 189.972885 
L 287.016789 190.95904 
L 286.225826 191.777084 
L 283.845427 194.239019 
L 275.22071 204.569325 
L 275.26651 204.57334 
L 275.311991 204.58507 
L 275.354946 204.604265 
L 275.394043 204.630296 
L 275.924445 204.998449 
L 276.337105 205.28192 
L 276.880552 205.657382 
L 277.403479 206.031142 
L 278.279297 206.642318 
L 278.860015 207.037995 
L 279.314776 207.226185 
L 280.081784 207.421283 
L 280.745706 207.764229 
L 280.97214 207.900352 
L 281.15842 208.012336 
L 281.350575 208.127852 
L 281.445578 208.184964 
L 281.876117 208.531052 
L 282.487201 208.872784 
L 283.098111 209.362667 
L 283.159334 209.428875 
L 283.032947 209.636855 
L 282.848385 210.217471 
L 283.627585 210.580181 
L 284.16814 210.831807 
L 284.417368 210.855117 
L 284.471046 210.806175 
L 286.148625 211.986221 
L 286.259988 211.902902 
L 286.407673 211.961648 
L 286.548136 212.024235 
L 286.685209 212.097898 
L 286.818802 212.178976 
L 286.948916 212.267468 
L 287.071809 212.359799 
L 287.191311 212.463208 
L 287.307245 212.570367 
L 287.412304 212.681455 
L 287.49517 212.782082 
L 287.581514 212.875294 
L 287.671514 212.968419 
L 287.76508 213.057792 
L 287.86578 213.139663 
L 287.966393 213.217871 
L 288.160922 213.400105 
L 288.34823 213.586179 
L 288.531971 213.776003 
L 288.708579 213.97333 
L 288.881619 214.174408 
L 288.971969 214.282185 
L 289.065975 214.389874 
L 289.163459 214.490149 
L 289.26451 214.586673 
L 289.369127 214.679445 
L 289.480966 214.768379 
L 289.908994 215.080597 
L 289.983583 215.141107 
L 290.054604 215.205368 
L 290.122059 215.27338 
L 290.182292 215.345232 
L 290.340888 215.553989 
L 290.442729 215.683481 
L 290.548137 215.809221 
L 290.657112 215.93121 
L 290.773308 216.049361 
L 291.777271 217.351957 
L 292.105686 217.780198 
L 292.726072 219.09937 
L 293.078926 220.241731 
L 293.134396 220.419988 
L 293.538166 221.245918 
L 294.41203 222.613964 
L 294.647665 222.9858 
L 294.672316 223.098826 
L 294.707087 223.328894 
L 294.785343 223.847463 
L 294.889743 224.54133 
L 295.136462 225.070502 
L 295.196727 225.29629 
L 295.637872 226.766392 
L 295.77458 227.587762 
L 295.81722 227.993569 
L 295.940254 229.159794 
L 295.954907 229.313378 
L 295.908255 229.655362 
L 295.870811 229.923822 
L 295.825965 230.951149 
L 295.752409 232.001159 
L 295.331355 233.198816 
L 294.27531 234.906568 
L 293.904058 235.435966 
L 293.701636 235.686409 
L 293.491291 235.911387 
L 293.255276 236.133319 
L 292.718573 236.47245 
L 292.354739 236.701128 
L 292.068318 236.803324 
L 291.111225 236.994986 
L 290.831059 237.053051 
L 290.732705 237.593014 
L 290.561587 237.971569 
L 290.545458 238.030435 
L 290.5364 238.112078 
L 290.540517 238.178473 
L 290.559865 238.261871 
L 290.590534 238.337621 
L 290.607695 238.362204 
L 290.647877 238.447395 
L 290.739552 238.608232 
L 290.803406 238.706243 
L 291.270858 239.118274 
L 291.536684 239.437331 
L 291.961716 239.632016 
L 292.018544 239.667342 
L 292.093626 239.704502 
L 292.162219 239.73332 
L 292.236981 239.761532 
L 292.30815 239.784274 
L 292.383131 239.801223 
L 292.582215 239.865673 
L 292.765039 239.942717 
L 292.950777 240.026484 
L 293.113503 240.117103 
L 293.294574 240.227841 
L 293.451645 240.339663 
L 293.539486 240.432582 
L 293.62824 240.515871 
L 293.727561 240.60007 
L 293.828739 240.671749 
L 293.929889 240.737652 
L 294.035802 240.795832 
L 294.153236 240.853955 
L 294.270613 240.900528 
L 294.391812 240.943232 
L 294.519674 240.974354 
L 294.645597 241.001635 
L 294.768586 241.018345 
L 294.902114 241.030189 
L 295.042296 241.028526 
L 295.158454 241.023133 
L 295.279365 241.008091 
L 295.406964 240.98628 
L 295.543152 240.953838 
L 295.672424 240.910635 
L 295.826323 240.850417 
L 295.924624 240.821461 
L 296.068417 240.803664 
L 296.200973 240.810593 
L 296.320353 240.832767 
L 296.381018 240.849543 
L 297.015742 240.952639 
L 297.091401 240.938977 
L 297.202972 240.913751 
L 297.242634 240.894577 
L 297.272792 240.86786 
L 297.297223 240.831684 
L 297.310296 240.795564 
L 297.319544 240.751873 
L 297.423534 240.724787 
L 297.557852 240.70514 
L 297.656237 240.693264 
L 297.733846 240.690979 
L 297.938256 240.68047 
L 298.083923 240.65887 
L 298.355652 240.61085 
L 298.630583 240.565057 
L 298.80833 240.522423 
L 298.991595 240.447502 
L 299.146474 240.37462 
L 299.487399 240.203916 
L 299.886686 239.98951 
L 300.171795 239.83628 
L 300.330507 239.772868 
L 300.487383 239.720851 
L 300.64244 239.684023 
L 300.784284 239.654852 
L 301.429154 239.513114 
L 301.712847 239.456674 
L 301.979703 239.420153 
L 302.219911 239.393425 
L 302.757501 239.377465 
L 302.985454 239.360305 
L 303.364949 239.323206 
L 303.6109 239.289722 
L 303.650618 239.281934 
L 304.246837 239.313563 
L 304.433105 239.562178 
L 305.106049 239.579065 
L 306.12221 239.607737 
L 307.020574 239.62688 
L 307.602684 239.644223 
L 308.420289 239.660398 
L 308.889731 239.344457 
L 309.352924 239.03242 
L 309.57377 238.882448 
L 310.066664 238.546159 
L 310.663232 238.139944 
L 310.720218 238.085404 
L 310.763768 238.050755 
L 310.787551 238.018291 
L 310.938034 237.71391 
L 310.934438 237.617933 
L 312.214801 236.550432 
L 312.288355 236.478072 
L 312.340995 236.432486 
L 312.376552 236.402038 
L 312.463602 236.332821 
L 312.491565 236.313516 
L 312.518459 236.294932 
L 312.555149 236.269493 
L 312.564592 236.263535 
L 312.588109 236.24873 
L 312.645655 236.21244 
L 312.727903 236.148083 
L 312.793213 236.091513 
L 312.806205 236.080522 
L 312.879809 236.002773 
L 312.900417 235.977772 
L 312.922467 235.955272 
L 312.945772 235.933661 
L 312.973368 235.912387 
L 312.996876 235.89579 
L 313.000974 235.893262 
L 313.009528 235.888383 
L 313.017904 235.883506 
L 313.023607 235.880253 
L 313.030378 235.876279 
L 313.038756 235.871759 
L 313.046424 235.868497 
L 313.051777 235.866858 
L 313.06052 235.863949 
L 313.071053 235.861747 
L 313.241546 235.852557 
L 313.606222 235.755778 
L 313.918967 235.558694 
L 314.214803 235.22345 
L 314.849008 235.714161 
L 314.654892 235.960821 
L 314.562763 236.077888 
L 314.975755 236.416537 
L 315.114979 236.320312 
L 315.389037 236.130897 
L 315.389222 236.130769 
L 315.896434 236.522703 
L 317.310321 237.615252 
L 317.804114 237.99683 
L 314.755579 239.413199 
L 314.724326 239.421312 
L 314.685161 239.435082 
L 314.651139 239.449762 
L 314.623181 239.463009 
L 314.602693 239.47575 
L 314.586862 239.485659 
L 314.561258 239.502639 
L 314.536139 239.523362 
L 314.50591 239.549727 
L 314.478035 239.579826 
L 314.454357 239.6085 
L 314.436269 239.634338 
L 314.422201 239.656272 
L 314.414733 239.668152 
L 314.401915 239.693156 
L 314.384559 239.730774 
L 314.371917 239.766678 
L 314.362641 239.801212 
L 314.355435 239.844866 
L 314.349571 239.937837 
L 314.356714 240.022105 
L 314.393086 240.135736 
L 314.452288 240.239814 
L 314.551227 240.339899 
L 315.463109 240.978693 
L 315.945642 241.315986 
L 316.47568 241.689101 
L 318.919388 243.532934 
L 319.011977 243.412257 
L 318.968715 243.36473 
L 319.690459 242.359644 
L 320.52538 241.205145 
L 321.567091 240.952048 
L 322.127705 241.361339 
L 322.038411 241.485574 
L 320.823756 243.191988 
L 320.650118 243.432314 
L 320.352508 243.850761 
L 320.299524 243.82982 
L 320.196395 243.996013 
L 322.159992 245.491886 
L 323.087216 246.405125 
L 323.391131 246.70136 
L 324.106866 247.404878 
L 326.428338 251.004948 
L 326.398642 251.065159 
L 326.421573 251.170077 
L 326.971444 252.133066 
L 327.225598 252.604542 
L 327.491204 253.108011 
L 327.756902 253.630457 
L 327.975062 254.071691 
L 328.302836 254.776828 
L 328.513137 255.249316 
L 328.855458 256.04626 
L 329.440355 257.428614 
L 329.793437 258.264377 
L 330.845554 260.757568 
L 332.231867 264.03797 
L 333.33127 266.632593 
L 334.501024 269.404384 
L 335.984557 272.913197 
L 337.099852 275.549214 
L 337.028061 275.646742 
L 336.910874 275.832835 
L 336.832324 275.99047 
L 336.762613 276.153362 
L 336.713924 276.289648 
L 336.6533 276.509035 
L 333.343513 280.914106 
L 333.268001 280.971015 
L 333.197802 281.033199 
L 333.083842 281.157437 
L 332.999776 281.267394 
L 332.908875 281.421556 
L 332.847926 281.572258 
L 332.809695 281.685304 
L 332.783868 281.810878 
L 332.770371 281.934625 
L 332.767612 282.091889 
L 332.78424 282.249059 
L 332.825611 282.420243 
L 332.8632 282.538439 
L 332.923804 282.677724 
L 332.993332 282.790555 
L 333.018134 282.830284 
L 333.101941 282.936142 
L 333.204668 283.04001 
L 333.307293 283.123004 
L 333.423168 283.205934 
L 333.561713 283.279264 
L 333.703951 283.3336 
L 333.836632 283.369006 
L 333.955979 283.387399 
L 334.062094 283.409652 
L 334.136103 283.447243 
L 334.187416 283.48874 
L 334.252145 283.564329 
L 334.290354 283.636253 
L 334.315341 283.713934 
L 334.323374 283.808777 
L 334.316126 283.87523 
L 334.29944 283.947422 
L 334.242292 284.262711 
L 334.22557 284.327312 
L 334.215412 284.42237 
L 334.211156 284.477297 
L 334.219659 284.570766 
L 334.246784 284.711983 
L 334.252864 284.879393 
L 334.244239 284.913418 
L 334.240113 284.981929 
L 334.238386 285.016095 
L 334.231026 285.059776 
L 334.218062 285.118667 
L 334.199345 285.162404 
L 334.152382 285.236642 
L 334.099639 285.290034 
L 334.052519 285.332012 
L 333.989719 285.41232 
L 333.950984 285.472935 
L 333.923065 285.556361 
L 333.880239 285.695737 
L 333.820539 285.896747 
L 333.76088 286.084906 
L 333.714296 286.236945 
L 333.648895 286.441135 
L 333.449547 287.069408 
L 333.281632 287.573106 
L 333.182546 287.827875 
L 332.937888 288.465908 
L 332.767698 288.934334 
L 332.597781 289.415269 
L 332.545584 289.58062 
L 332.495354 289.761142 
L 332.439297 289.91133 
L 332.30662 290.264942 
L 332.19379 290.495062 
L 332.108697 290.638823 
L 331.985689 290.832011 
L 331.864843 291.067182 
L 331.691399 291.427415 
L 331.54936 291.801946 
L 331.461569 292.043377 
L 331.344809 292.422525 
L 331.18795 292.969229 
L 331.025866 293.529469 
L 330.82676 294.234471 
L 330.716958 294.62023 
L 330.597831 295.034501 
L 330.46936 295.473486 
L 330.389289 295.811571 
L 330.337668 296.028244 
L 330.293507 296.288438 
L 330.253298 296.58277 
L 330.226228 296.854265 
L 330.218024 297.299838 
L 330.233937 297.658829 
L 330.262316 298.043912 
L 330.364104 298.782572 
L 330.434013 299.094366 
L 330.522731 299.431712 
L 330.634024 299.740482 
L 330.758558 300.047291 
L 331.010791 300.53375 
L 331.092905 300.681364 
L 331.251685 301.02406 
L 331.293799 301.120633 
L 331.345368 301.215263 
L 331.400676 301.300386 
L 331.461663 301.385482 
L 331.570147 301.506399 
L 331.684244 301.614007 
L 331.758739 301.671054 
L 331.99947 301.85336 
L 332.611568 302.114592 
L 333.051262 302.22617 
L 333.476147 302.274842 
L 333.697819 302.29869 
L 334.919092 302.413528 
L 334.725808 304.385846 
L 334.08049 304.342065 
L 333.486102 304.301741 
L 333.300845 304.351986 
L 332.472962 304.597038 
L 332.095118 304.746904 
L 331.522721 304.98122 
L 331.084456 305.161745 
L 330.925774 305.227042 
L 330.816351 305.301587 
L 330.65814 305.463662 
L 330.49836 305.632551 
L 330.351258 305.802946 
L 330.220602 305.98944 
L 330.133347 306.143693 
L 329.985333 306.455632 
L 329.764508 306.974772 
L 329.644812 307.271391 
L 329.525542 307.6553 
L 329.370096 307.995741 
L 329.20912 308.366571 
L 329.149338 308.528164 
L 329.032601 308.887701 
L 328.970388 309.09454 
L 328.891304 309.493998 
L 328.782962 310.251125 
L 328.698848 310.856887 
L 328.615451 311.471849 
L 328.553986 311.81401 
L 328.466802 312.418646 
L 328.413558 312.903948 
L 328.396085 313.201964 
L 328.246796 314.415292 
L 328.079752 316.643947 
L 328.02108 317.420372 
L 328.021599 317.526638 
L 328.018425 317.651898 
L 328.071255 318.217658 
L 328.12286 318.916264 
L 328.179164 319.560141 
L 328.218196 319.80095 
L 328.405571 320.57427 
L 328.741815 321.988265 
L 328.78235 322.149366 
L 328.863095 322.405152 
L 328.959074 322.67984 
L 329.167955 323.206361 
L 329.313403 323.53394 
L 329.456804 323.829286 
L 329.519911 323.96181 
L 329.695595 324.279751 
L 329.834984 324.529555 
L 330.010547 324.822828 
L 330.189812 325.099003 
L 330.50839 325.56621 
L 330.744538 325.906574 
L 330.961877 326.228107 
L 331.328058 326.7975 
L 331.625661 327.281135 
L 331.70961 327.41426 
L 331.858247 327.620374 
L 332.025821 327.828293 
L 332.282719 328.11168 
L 332.651508 328.440063 
L 332.706673 328.496722 
L 332.843759 328.663043 
L 332.910501 328.768962 
L 332.965916 328.876856 
L 333.074677 329.052825 
L 333.207977 329.222939 
L 333.300448 329.318734 
L 333.426817 329.464765 
L 333.503021 329.570831 
L 333.558307 329.648192 
L 333.670852 329.827917 
L 333.775984 330.039937 
L 333.951966 330.43034 
L 334.098028 330.803232 
L 334.204744 331.119071 
L 334.125839 331.924449 
L 334.115193 333.237662 
L 333.999011 333.477332 
L 333.966228 333.538909 
L 333.88098 333.672905 
L 333.7817 333.805212 
L 333.439538 334.100409 
L 333.401143 334.135749 
L 333.228938 334.232382 
L 333.003638 334.315653 
L 332.773087 334.400708 
L 332.540083 334.431728 
L 332.51554 334.431848 
L 331.887295 334.297829 
L 331.731682 334.073117 
L 331.493017 333.819907 
L 331.472846 333.788391 
L 331.456779 333.771099 
L 331.437632 333.756926 
L 331.411196 333.739525 
L 331.383709 333.727628 
L 331.351563 333.722195 
L 331.124098 333.749525 
L 331.081199 333.741142 
L 331.015952 333.719977 
L 330.983279 333.701739 
L 329.974234 333.25177 
L 329.984731 333.188897 
L 329.396092 332.994654 
L 329.344746 333.098886 
L 329.039629 333.002901 
L 329.017336 332.862204 
L 328.445618 332.815392 
L 328.444592 332.878198 
L 328.237368 332.86603 
L 328.222248 332.697028 
L 327.231831 332.693332 
L 327.228378 332.870982 
L 326.972956 332.876577 
L 326.980726 332.686191 
L 326.14804 332.667193 
L 326.179491 333.112255 
L 325.90928 333.131152 
L 325.891173 332.852999 
L 325.238117 332.856501 
L 325.176888 332.65577 
L 324.495321 332.705074 
L 324.541087 333.311462 
L 324.06603 333.343901 
L 322.879583 333.425258 
L 321.787019 333.499803 
L 319.38728 333.66401 
L 316.71279 333.629494 
L 314.275249 333.598444 
L 313.476028 332.684521 
L 313.318576 332.499795 
L 313.200181 332.368297 
L 312.814715 331.926402 
L 312.844443 331.728211 
L 312.851365 331.678923 
L 312.85325 331.646077 
L 312.850446 331.596323 
L 312.839412 331.537888 
L 312.81865 331.478475 
L 312.795912 331.433438 
L 312.776312 331.402238 
L 312.719005 331.299908 
L 312.66676 331.186266 
L 312.637627 331.11243 
L 312.619617 331.06952 
L 312.580634 330.94709 
L 312.549352 330.829752 
L 312.527645 330.71655 
L 312.497002 330.590922 
L 312.459624 330.48285 
L 312.417669 330.380445 
L 312.363932 330.275532 
L 312.303554 330.173217 
L 312.232453 330.075574 
L 312.1596 329.985891 
L 312.123598 329.949129 
L 312.023802 329.843931 
L 311.963377 329.770525 
L 311.9136 329.703896 
L 311.706495 329.379705 
L 311.581499 329.18837 
L 311.451568 328.99097 
L 311.414819 328.943566 
L 311.287822 328.785528 
L 311.110658 328.604971 
L 311.028371 328.571806 
L 310.921834 328.698815 
L 310.760647 328.561364 
L 310.871324 328.382269 
L 310.395437 328.157935 
L 310.377383 328.181733 
L 310.350384 328.20816 
L 310.308033 328.239197 
L 310.257517 328.264835 
L 310.211483 328.279628 
L 310.164485 328.287963 
L 310.125608 328.289969 
L 310.083092 328.287459 
L 310.043263 328.279497 
L 309.996158 328.26341 
L 309.95627 328.243661 
L 309.91362 328.213952 
L 309.894549 328.197727 
L 309.866421 328.178826 
L 309.818372 328.154584 
L 309.75948 328.132209 
L 309.696116 328.11983 
L 309.650874 328.114614 
L 309.572136 328.102312 
L 309.485246 328.087329 
L 309.248022 328.028665 
L 309.195483 328.010792 
L 309.13749 327.987506 
L 309.098101 327.967239 
L 309.042269 327.933578 
L 308.997802 327.902065 
L 308.74999 327.7138 
L 308.697338 327.673261 
L 308.680062 327.654306 
L 308.645555 327.625464 
L 308.601114 327.599391 
L 308.568487 327.585046 
L 308.534065 327.57343 
L 308.488796 327.562775 
L 308.452606 327.559327 
L 308.411012 327.560441 
L 308.357698 327.568865 
L 308.324288 327.579004 
L 308.288182 327.592784 
L 308.262924 327.605602 
L 308.155647 327.674135 
L 308.074957 327.734027 
L 308.006991 327.787301 
L 307.947562 327.839276 
L 307.855763 327.97557 
L 307.765755 328.125488 
L 307.630739 328.349282 
L 307.286925 329.024859 
L 307.21667 329.182177 
L 306.970682 329.097761 
L 307.037139 328.986205 
L 307.010475 328.897484 
L 306.991973 328.813255 
L 306.985315 328.747101 
L 306.981192 328.644667 
L 306.9919 328.615601 
L 306.993498 328.572979 
L 306.989778 328.552144 
L 306.979687 328.52318 
L 306.962349 328.491533 
L 306.945073 328.472579 
L 306.92148 328.456376 
L 306.885232 328.441142 
L 306.755817 328.421838 
L 306.633699 328.415191 
L 306.502557 328.412216 
L 306.399501 328.419982 
L 306.285617 328.432334 
L 306.165456 328.455598 
L 306.106756 328.47221 
L 306.049839 328.483373 
L 305.992916 328.493629 
L 305.924216 328.49941 
L 305.854575 328.497943 
L 305.745174 328.488624 
L 305.488722 328.440052 
L 305.216015 328.392297 
L 305.154772 328.389532 
L 305.099652 328.386737 
L 304.975539 328.399301 
L 304.899971 328.410508 
L 304.727412 328.469854 
L 304.641191 328.511442 
L 304.543358 328.567528 
L 304.479282 328.610819 
L 304.350539 328.720848 
L 304.23422 328.792913 
L 304.143668 328.842693 
L 304.007818 328.887188 
L 303.785748 328.983608 
L 303.583241 329.10376 
L 303.404533 329.230292 
L 303.145873 329.355056 
L 302.980315 329.428999 
L 302.885522 329.463189 
L 302.713739 329.500153 
L 302.490317 329.50417 
L 302.380392 329.486835 
L 302.313026 329.484101 
L 302.199861 329.50615 
L 302.111218 329.534216 
L 302.047202 329.577151 
L 301.949557 329.654728 
L 301.843078 329.790312 
L 301.759088 329.862365 
L 301.690617 329.913848 
L 301.537837 329.972927 
L 301.360151 330.020323 
L 301.155023 330.04734 
L 301.112655 330.045642 
L 301.051458 330.052086 
L 300.962913 330.085124 
L 300.865139 330.138958 
L 300.815189 330.191248 
L 300.685663 330.343135 
L 300.542475 330.511963 
L 300.392985 330.617068 
L 300.035565 330.77232 
L 299.686318 330.892428 
L 299.293714 331.001887 
L 299.008374 331.065967 
L 298.515705 331.138194 
L 298.299919 331.179736 
L 298.102035 331.236271 
L 297.856636 331.300204 
L 297.165649 331.59928 
L 297.082668 331.671043 
L 297.010311 331.806098 
L 296.943431 331.990957 
L 296.828746 332.323025 
L 296.783298 332.418403 
L 296.69255 332.591542 
L 296.549297 332.766415 
L 296.400008 332.911423 
L 295.901175 333.365916 
L 295.747777 333.497868 
L 295.674609 333.559622 
L 295.57715 333.661399 
L 295.438967 333.851977 
L 295.27541 334.202171 
L 295.084937 334.530104 
L 294.823218 334.727182 
L 294.585989 334.814787 
L 294.273169 334.929444 
L 294.102116 335.007035 
L 293.897617 335.130834 
L 293.723778 335.263688 
L 293.588097 335.384156 
L 293.406866 335.559937 
L 293.297345 335.698608 
L 293.045973 335.969163 
L 292.880113 336.136552 
L 292.792491 336.203349 
L 292.417738 336.379941 
L 292.247517 336.139237 
L 291.006132 337.229071 
L 287.823483 340.04009 
L 287.756103 339.971369 
L 285.570368 341.932619 
L 285.626355 342.001735 
L 284.681519 342.859799 
L 284.049984 343.427353 
L 283.706165 343.732396 
L 282.453399 344.868727 
L 280.300912 346.8101 
L 279.918434 347.152446 
L 279.819992 347.089344 
L 279.150885 347.696666 
L 279.230294 347.801719 
L 278.4285 348.481303 
L 278.38702 349.117556 
L 278.356307 349.342936 
L 278.335189 349.471673 
L 278.37113 349.511804 
L 278.349283 349.883783 
L 278.312631 350.510126 
L 278.278655 351.059721 
L 278.243282 351.631104 
L 278.061037 351.616382 
L 277.975386 351.629092 
L 277.903954 351.66865 
L 277.850293 351.712597 
L 277.810805 351.774184 
L 277.759258 351.872666 
L 277.707603 351.949661 
L 277.664993 351.998987 
L 277.591787 352.051536 
L 277.390534 352.209092 
L 277.223981 352.370836 
L 277.183352 352.419409 
L 277.06779 352.557565 
L 276.906858 352.819277 
L 276.794704 353.040841 
L 276.673213 353.231757 
L 276.603278 353.31012 
L 276.539262 353.379766 
L 276.392957 353.50635 
L 276.217367 353.614654 
L 275.965565 353.741785 
L 275.714912 353.906216 
L 275.445909 354.13118 
L 275.282762 354.322284 
L 274.926828 354.766078 
L 274.806443 354.891396 
L 274.683201 355.019001 
L 274.436435 355.256593 
L 274.139433 355.503938 
L 273.977202 355.640327 
L 273.783458 355.783449 
L 273.591798 355.917719 
L 273.298094 356.094968 
L 272.870511 356.347967 
L 272.496489 356.591737 
L 272.055731 356.889595 
L 271.494633 357.282392 
L 270.969203 357.580414 
L 269.972496 358.364845 
L 269.808319 358.555817 
L 269.723873 358.67069 
L 269.186335 359.264669 
L 268.902045 359.584133 
L 268.496416 360.046766 
L 268.208358 360.357994 
L 267.702734 360.938454 
L 267.112231 361.658122 
L 266.858889 361.924414 
L 266.656633 362.150254 
L 266.417687 362.445314 
L 266.336676 362.5165 
L 266.272674 362.587813 
L 266.138285 362.740152 
L 265.9218 362.998967 
L 265.834271 363.077276 
L 265.713767 363.170172 
L 265.521214 363.287671 
L 265.314571 363.399364 
L 265.071173 363.513918 
L 264.772469 363.631895 
L 263.398974 364.104717 
L 262.310897 364.482029 
L 262.046978 364.411706 
L 261.901909 364.420293 
L 261.752289 364.440081 
L 261.553796 364.489595 
L 261.38191 364.518114 
L 261.185962 364.517033 
L 261.011999 364.274605 
L 260.148835 364.68811 
L 259.536942 364.981244 
L 258.996108 365.240337 
L 258.956722 365.168079 
L 258.851369 365.213455 
L 258.787758 365.119047 
L 258.699035 365.15877 
L 258.646512 365.22743 
L 258.596433 365.28553 
L 257.817594 365.860625 
L 257.423786 366.160843 
L 257.089588 366.39887 
L 255.496383 367.585035 
L 255.066386 368.236715 
L 254.272968 369.454631 
L 253.989496 369.930875 
L 253.343199 371.089812 
L 253.001322 371.755408 
L 252.861385 372.091136 
L 252.809218 372.373592 
L 252.505446 373.248588 
L 252.563653 373.275165 
L 252.564223 373.387142 
L 252.712111 373.480448 
L 252.659431 373.659911 
L 252.577754 373.783819 
L 252.395883 373.66126 
L 252.28045 373.800705 
L 252.25415 373.899382 
L 252.170065 374.056559 
L 252.035682 373.981126 
L 251.829543 373.852285 
L 251.510868 374.431731 
L 251.338713 374.835738 
L 251.017217 375.737698 
L 251.760112 376.007122 
L 251.64573 376.352604 
L 251.584243 376.558961 
L 251.402294 377.670728 
L 251.398374 377.778248 
L 251.416698 377.867738 
L 251.117122 377.811043 
L 251.017009 378.326661 
L 251.41497 378.405247 
L 251.43897 378.732104 
L 251.418347 379.068147 
L 251.357112 379.323774 
L 251.286646 379.521218 
L 251.154147 379.817522 
L 251.097174 380.032815 
L 251.071332 380.221072 
L 251.063288 380.395801 
L 251.086261 380.5211 
L 251.118054 380.623958 
L 251.110033 380.803166 
L 249.916317 380.598763 
L 249.768716 381.437125 
L 249.987819 381.480793 
L 249.944681 381.781119 
L 250.820975 381.933399 
L 251.035542 381.963653 
L 251.071801 382.066489 
L 251.07677 382.165005 
L 251.041652 382.286123 
L 250.993476 382.474495 
L 250.945619 382.725573 
L 250.814628 383.317495 
L 250.448031 383.256666 
L 250.382901 383.624292 
L 250.758431 383.685076 
L 250.754375 383.765721 
L 250.853763 383.984692 
L 250.845788 384.172858 
L 250.806181 384.289519 
L 250.583915 384.501179 
L 250.526303 384.591058 
L 250.486673 384.70324 
L 250.443672 385.03044 
L 250.405434 385.415845 
L 250.370842 385.639981 
L 250.358149 385.778901 
L 250.258131 386.312435 
L 250.171513 386.8459 
L 250.141775 387.146157 
L 250.134235 387.419425 
L 250.148685 387.625393 
L 250.172001 387.817878 
L 250.141396 387.947931 
L 249.95345 387.881707 
L 249.398501 387.674031 
L 249.257576 388.068921 
L 248.980113 387.967324 
L 248.518191 389.358237 
L 249.256547 389.61872 
L 249.182578 390.004309 
L 249.069573 390.618535 
L 248.990452 390.869775 
L 248.804222 391.13948 
L 248.694108 391.444629 
L 248.611161 391.821305 
L 248.417689 392.422507 
L 248.422534 393.372067 
L 248.361052 393.578424 
L 248.237586 393.8926 
L 247.981125 394.404542 
L 247.734171 395.028414 
L 247.51035 395.80894 
L 247.481988 396.37794 
L 247.55228 397.02258 
L 247.514047 397.407985 
L 247.364103 397.785006 
L 247.10831 398.426841 
L 246.800634 399.404881 
L 246.566924 399.997332 
L 246.221711 400.621711 
L 245.761307 401.430328 
L 245.571739 401.919532 
L 245.431533 402.453274 
L 245.307912 402.736097 
L 245.073452 403.180741 
L 244.905005 403.43244 
L 244.487738 403.940733 
L 243.794763 405.561279 
L 243.44081 406.221538 
L 243.130745 406.72928 
L 242.372636 407.839539 
L 240.902177 410.270345 
L 240.64544 410.724065 
L 240.562001 411.002204 
L 240.527279 411.199466 
L 240.523478 411.329382 
L 240.542285 411.512931 
L 240.538812 412.14635 
L 240.462621 412.395488 
L 239.74673 413.873042 
L 239.501034 414.397133 
L 239.4909 414.95084 
L 239.674879 415.276099 
L 239.875883 415.569373 
L 240.100824 416.012298 
L 240.15163 416.339016 
L 240.152709 416.549532 
L 240.100651 416.849905 
L 240.065562 416.975503 
L 239.89809 417.415326 
L 239.784582 417.926537 
L 239.76814 418.20433 
L 239.651957 419.064931 
L 239.54209 419.414873 
L 239.36099 419.809975 
L 239.290677 420.034296 
L 239.295833 420.168645 
L 239.385733 420.280161 
L 239.502111 420.328831 
L 239.618052 420.2924 
L 239.693543 420.206907 
L 239.826156 419.937472 
L 239.917997 419.556269 
L 239.926149 419.403935 
L 239.938814 419.260536 
L 239.928412 418.973922 
L 239.890752 418.597866 
L 239.884954 418.338103 
L 239.923912 418.096027 
L 239.998416 417.817934 
L 240.152673 417.414013 
L 240.15954 417.010852 
L 240.234252 416.773071 
L 240.385328 416.62 
L 240.550813 416.663939 
L 240.632012 416.820292 
L 240.670703 417.397906 
L 240.603579 418.244816 
L 240.580705 419.010873 
L 240.488275 420.14906 
L 240.358026 420.879837 
L 239.9254 421.871965 
L 239.703738 422.195608 
L 239.593687 422.509718 
L 239.564031 422.823413 
L 239.494384 423.177627 
L 239.269198 423.684935 
L 239.078824 424.012897 
L 238.515581 424.7907 
L 238.257479 424.975678 
L 237.932245 425.134127 
L 237.602339 425.252288 
L 237.258942 425.352603 
L 236.907164 425.560461 
L 236.627077 425.812741 
L 236.3111 426.033853 
L 235.861273 426.282532 
L 235.424569 426.477393 
L 235.014848 426.707948 
L 234.783984 426.977892 
L 234.695948 427.229181 
L 234.728962 427.569428 
L 234.819898 427.8825 
L 234.856733 428.09731 
L 234.840502 428.415416 
L 234.704352 428.864037 
L 234.504707 429.124862 
L 234.273615 429.350015 
L 233.948663 429.562217 
L 234.049246 430.014094 
L 234.059491 430.269354 
L 234.074663 430.614172 
L 234.000511 430.959452 
L 233.778975 431.305495 
L 233.609997 431.449702 
L 233.427597 431.589501 
L 233.084622 431.770442 
L 233.048877 432.316275 
L 233.03483 432.509764 
L 233.013812 432.765186 
L 233.00594 432.971269 
L 232.975875 433.204342 
L 232.941229 433.415042 
L 232.872121 433.872276 
L 232.666244 434.657197 
L 232.393584 435.482777 
L 232.067355 436.313114 
L 231.828674 436.798101 
L 231.696051 437.063059 
L 231.199558 437.786778 
L 230.991058 438.061088 
L 230.636146 438.524282 
L 230.591716 438.569304 
L 230.360632 438.79446 
L 230.111777 439.037625 
L 230.013961 439.123237 
L 229.331849 439.35969 
L 228.773679 439.380501 
L 228.134404 439.26288 
L 227.508873 439.212375 
L 227.018019 439.295549 
L 226.398434 439.531683 
L 225.876896 439.726996 
L 225.305676 439.815068 
L 224.453348 439.953874 
L 224.011784 440.068149 
L 223.668451 440.177435 
L 223.281292 440.448199 
L 222.899225 440.839875 
L 222.570172 441.119296 
L 222.138492 441.417169 
L 221.817863 441.598005 
L 221.661921 441.670484 
L 221.185096 441.87453 
L 220.87333 442.041883 
L 220.446212 442.35765 
L 219.854173 442.906076 
L 219.343916 443.356914 
L 218.868192 443.799212 
L 218.476597 444.074484 
L 217.973654 444.408567 
L 216.829823 445.175922 
L 215.779716 445.925023 
L 215.543883 446.098658 
L 214.540163 446.623502 
L 213.857829 446.886869 
L 213.467538 447.030027 
L 212.164864 447.305592 
L 210.755383 447.653389 
L 210.218801 447.761977 
L 210.201438 447.689664 
L 209.615491 447.705511 
L 209.246003 447.69893 
L 208.812774 447.684165 
L 208.590769 447.65716 
L 208.502426 447.617648 
L 208.302153 447.486668 
L 208.212045 447.308262 
L 208.215025 447.065482 
L 208.277479 446.82665 
L 208.268342 446.703186 
L 208.071894 446.491265 
L 207.722638 446.292923 
L 207.586106 446.170128 
L 207.440592 445.953682 
L 207.223176 445.79298 
L 207.159212 445.742207 
L 206.859354 445.807622 
L 206.798638 445.816503 
L 207.057493 446.594544 
L 206.332633 446.845372 
L 206.15626 446.411878 
L 205.897646 446.494157 
L 205.725518 446.060641 
L 205.318478 446.182031 
L 204.975023 446.281793 
L 204.382361 446.638405 
L 204.078127 446.929617 
L 203.744279 447.24228 
L 203.647768 447.464257 
L 203.551256 447.686233 
L 203.446363 447.929549 
L 203.39176 448.044829 
L 203.007535 448.468492 
L 202.588627 448.75605 
L 202.24551 448.919698 
L 201.859104 448.92599 
L 201.675905 448.81196 
L 201.483945 448.646869 
L 201.427961 448.498098 
L 201.380492 448.353541 
L 201.316594 448.315546 
L 201.2573 448.345671 
L 201.03402 448.687568 
L 200.578665 449.170642 
L 200.35831 449.402382 
L 200.168289 449.607816 
L 200.236522 449.662824 
L 200.381348 449.747241 
L 200.454006 449.836298 
L 200.561126 450.018872 
L 200.646634 450.129156 
L 200.851467 450.319733 
L 200.794335 450.762972 
L 200.951241 451.533028 
L 201.042957 452.018074 
L 201.117509 452.469137 
L 201.214875 453.222471 
L 201.265508 453.971792 
L 201.328835 454.712528 
L 201.280196 455.155722 
L 201.08718 455.599676 
L 200.863972 455.95435 
L 200.695677 456.253367 
L 200.67692 456.726217 
L 200.648266 456.930801 
L 200.573369 457.225068 
L 200.514478 457.331853 
L 200.303899 457.665166 
L 200.127335 458.006817 
L 200.042988 458.117996 
L 199.979605 458.177956 
L 199.865199 458.225408 
L 199.780294 458.230114 
L 199.708329 458.273083 
L 199.573517 458.478227 
L 199.493327 458.572348 
L 199.349486 458.675322 
L 199.086971 458.821512 
L 198.989506 458.860357 
L 198.709583 458.929959 
L 198.450757 458.969654 
L 198.166609 459.039297 
L 197.980283 459.138237 
L 197.811167 459.279676 
L 197.710125 459.446311 
L 197.537879 459.800718 
L 197.466272 459.91183 
L 197.381836 460.005974 
L 197.111299 460.237405 
L 196.848898 460.404892 
L 196.489033 460.611223 
L 196.010249 460.813924 
L 195.760029 460.874871 
L 195.369591 460.919523 
L 195.038423 460.92979 
L 194.817525 460.913921 
L 194.39258 460.856539 
L 193.750826 460.753454 
L 193.257939 460.696433 
L 192.833173 460.677366 
L 192.851457 460.924293 
L 191.305864 460.945245 
L 191.273484 461.247807 
L 191.006112 461.177266 
L 191.0006 461.0363 
L 190.714083 461.034551 
L 190.724838 460.773931 
L 190.161956 460.730161 
L 190.03892 460.621039 
L 189.771733 460.595931 
L 189.738466 460.902637 
L 189.230293 460.88349 
L 188.855155 460.847488 
L 188.655713 460.874099 
L 188.532726 460.904564 
L 188.401337 460.952109 
L 187.666724 460.956003 
L 181.471504 461.018717 
L 180.059335 461.208276 
L 179.999146 461.357985 
L 179.729909 461.403416 
L 179.575363 461.177194 
L 179.206092 461.273642 
L 179.129354 461.294157 
L 179.146733 461.421405 
L 178.850053 461.550326 
L 178.363322 461.753983 
L 178.38749 461.901301 
L 178.215611 462.032662 
L 177.394514 462.543861 
L 177.460075 462.800978 
L 177.203365 462.906229 
L 177.108714 462.698968 
L 176.027408 463.390179 
L 175.425158 463.529681 
L 174.14557 464.049469 
L 173.804575 463.376759 
L 173.493288 463.271188 
L 171.003185 464.041485 
L 170.972726 464.029621 
L 170.78023 464.078309 
L 170.664074 464.110469 
L 170.587913 464.134322 
L 170.402989 464.193821 
L 170.141905 464.277172 
L 169.97542 464.343551 
L 169.845189 464.398047 
L 169.650289 464.498107 
L 169.596753 464.550729 
L 169.251043 464.91104 
L 168.696179 465.536694 
L 168.359199 465.955436 
L 168.314394 465.916214 
L 168.303705 465.927471 
L 168.275111 465.953826 
L 168.25008 465.97643 
L 168.182738 466.062376 
L 168.157796 466.088642 
L 168.136418 466.111156 
L 167.965835 466.309583 
L 167.944457 466.332097 
L 167.748933 466.55679 
L 167.699228 466.616648 
L 167.638745 466.684101 
L 167.706175 466.752091 
L 167.589751 466.923537 
L 167.51858 466.851973 
L 167.229168 467.423491 
L 167.172693 467.505506 
L 166.997845 467.612064 
L 166.496853 468.271558 
L 164.988868 469.935073 
L 164.95544 469.931902 
L 164.915384 469.938819 
L 164.875399 469.95914 
L 164.855568 469.999459 
L 164.849136 470.046408 
L 164.862732 470.089899 
L 164.471732 470.698541 
L 164.445415 470.775756 
L 164.415936 470.8865 
L 164.369735 470.993982 
L 164.330179 471.094726 
L 164.310455 471.155151 
L 164.271007 471.276001 
L 164.029598 471.95239 
L 163.732939 472.547393 
L 163.612048 473.001779 
L 163.511087 473.377156 
L 163.383334 473.852147 
L 163.174253 474.629526 
L 163.13842 474.762753 
L 163.097619 474.904805 
L 163.030724 475.115109 
L 162.965898 475.310008 
L 162.644702 476.275675 
L 162.594926 476.511362 
L 162.537165 476.723796 
L 162.455512 476.973951 
L 162.289597 477.363207 
L 162.185658 477.574181 
L 162.100654 477.698153 
L 162.020818 477.787191 
L 161.954002 477.846484 
L 161.876864 477.900739 
L 161.822684 477.955621 
L 161.797171 478.016628 
L 161.79753 478.083753 
L 161.827564 478.193682 
L 161.881784 478.277681 
L 161.181964 479.046962 
L 161.06512 478.978867 
L 160.841274 479.185792 
L 160.925006 479.328447 
L 160.716362 479.503601 
L 160.790704 479.602344 
L 160.411107 479.97819 
L 160.256182 479.890618 
L 158.897962 481.026124 
L 158.801822 481.069603 
L 158.687072 481.137348 
L 158.588427 481.213063 
L 158.447253 481.345393 
L 158.349927 481.477379 
L 158.301363 481.553942 
L 158.243809 481.626767 
L 158.11217 481.760705 
L 158.030309 481.816988 
L 157.810664 482.01096 
L 157.571544 482.222131 
L 157.459919 482.710297 
L 156.684134 486.103035 
L 156.52492 486.235924 
L 156.500917 486.238243 
L 156.331687 486.254594 
L 156.262173 486.401878 
L 155.156146 486.769606 
L 154.735776 486.903723 
L 154.426905 486.938674 
L 154.147168 487.065041 
L 153.885177 487.130898 
L 153.665729 487.143091 
L 153.396655 487.13622 
L 153.137029 487.333225 
L 152.106674 488.182264 
L 151.684813 488.533899 
L 149.904914 489.616449 
L 149.786011 489.517614 
L 149.192905 490.048134 
L 148.797603 490.620279 
L 148.436314 490.980692 
L 146.782499 490.728873 
L 146.5191 490.931113 
L 146.306226 490.984871 
L 146.090613 490.905447 
L 145.867621 490.839105 
L 145.580245 490.902499 
L 145.01827 490.819923 
L 144.51414 490.745849 
L 144.259475 490.766059 
L 143.314435 490.598331 
L 142.825409 490.597179 
L 142.774477 490.533605 
L 142.641777 490.394784 
L 142.176804 490.085665 
L 142.120511 490.044108 
L 141.677381 489.720495 
L 141.34888 489.468145 
L 141.005819 489.095783 
L 140.474982 488.924875 
L 140.421938 488.941331 
L 139.984222 488.731387 
L 140.123853 488.618018 
L 140.156498 488.487015 
L 140.087208 488.446409 
L 139.847225 488.527845 
L 139.50924 488.549134 
L 139.192284 488.483201 
L 138.725253 488.34028 
L 138.703666 488.324329 
L 138.685887 488.314486 
L 138.653434 488.297742 
L 138.625472 488.286697 
L 138.611647 488.282028 
L 138.596334 488.277553 
L 138.574807 488.272596 
L 138.560844 488.270637 
L 138.530476 488.267537 
L 138.518344 488.267048 
L 138.495965 488.267256 
L 138.473557 488.268914 
L 138.453816 488.271592 
L 138.432408 488.275817 
L 138.410331 488.281669 
L 138.385499 488.283283 
L 138.352141 488.282178 
L 138.309956 488.275315 
L 138.269282 488.26251 
L 138.215488 488.234593 
L 137.431041 487.783223 
L 137.060513 487.463457 
L 136.669958 487.26293 
L 136.282578 486.94818 
L 135.351998 486.192078 
L 135.089233 485.900258 
L 134.75551 485.529636 
L 134.555883 485.206597 
L 134.371892 484.93092 
L 134.113185 484.543296 
L 133.796704 484.06911 
L 133.939139 483.97448 
L 133.753133 483.72756 
L 133.445163 483.318735 
L 133.345202 483.088724 
L 133.208402 482.773945 
L 132.934121 482.142824 
L 132.841757 481.971766 
L 132.748399 481.798869 
L 132.570208 481.468861 
L 132.36974 480.870348 
L 132.343303 480.821317 
L 132.168152 480.496475 
L 132.057143 479.988397 
L 131.972724 479.386614 
L 131.834822 478.903373 
L 131.753289 478.700184 
L 131.643355 478.426218 
L 131.51953 478.117635 
L 131.437092 477.746408 
L 131.421613 477.571902 
L 131.395027 477.259032 
L 131.354384 476.813968 
L 131.15736 476.231776 
L 131.026362 475.944337 
L 130.824108 475.690697 
L 130.647657 475.238586 
L 130.450326 474.963452 
L 130.192783 474.536401 
L 130.028482 474.142836 
L 129.863886 473.937053 
L 129.90671 473.904234 
L 129.687759 473.357256 
L 129.500179 473.009562 
L 129.169139 472.496219 
L 129.133863 472.427065 
L 128.647278 471.463484 
L 128.570133 471.202367 
L 128.461153 470.899156 
L 128.467663 470.588751 
L 128.417509 470.594154 
L 128.405222 470.421955 
L 128.378639 470.134804 
L 128.375204 469.694119 
L 128.377495 469.661954 
L 128.371544 469.626636 
L 128.356125 469.586636 
L 128.332525 469.554613 
L 128.271597 469.497778 
L 128.292965 469.463755 
L 127.895633 469.184885 
L 127.732349 469.065893 
L 127.590725 468.966436 
L 127.281962 468.759799 
L 126.996947 468.596271 
L 126.749246 468.448261 
L 126.533067 468.331524 
L 126.157789 468.144906 
L 125.194917 467.645087 
L 124.982763 467.547983 
L 124.614347 467.364366 
L 124.578265 467.420971 
L 124.442307 467.36199 
L 124.456382 467.320922 
L 124.387652 467.293784 
L 124.261991 467.247304 
L 124.183421 467.212359 
L 124.0776 467.210974 
L 123.77695 467.055394 
L 123.513924 466.972327 
L 123.113246 466.799609 
L 122.981856 466.780676 
L 122.351601 466.550257 
L 122.33418 466.58966 
L 122.222331 466.560793 
L 122.159125 466.661122 
L 122.07775 466.638234 
L 122.098747 466.508822 
L 122.090459 466.453423 
L 122.060789 466.402487 
L 122.025172 466.36323 
L 121.562211 466.244065 
L 121.12866 466.152108 
L 120.54472 466.056138 
L 120.344411 466.069939 
L 120.103442 466.079124 
L 119.699764 466.075445 
L 119.392228 466.094822 
L 118.792821 466.131526 
L 117.854699 466.219227 
L 117.492823 466.348307 
L 116.71329 466.398453 
L 116.678879 466.326239 
L 116.142974 466.379972 
L 115.990557 466.457459 
L 115.896858 466.522831 
L 115.768126 466.631633 
L 115.614223 466.795603 
L 115.548151 466.896199 
L 115.484167 467.020367 
L 115.416672 467.219238 
L 115.374769 467.439586 
L 115.363636 467.553637 
L 115.369459 467.586529 
L 115.422234 468.008301 
L 115.508793 468.414954 
L 115.861948 468.074493 
L 116.431914 467.711692 
L 117.798743 469.740924 
L 118.570059 470.660834 
L 121.878707 474.606811 
L 127.528942 479.992375 
L 130.982091 482.874836 
L 134.554022 485.850442 
L 134.498623 485.868295 
L 136.980479 487.896694 
L 140.880864 491.084508 
L 146.908662 496.011174 
L 151.873897 500.062331 
L 152.209905 500.338153 
L 153.227867 500.027917 
L 154.734504 501.062501 
L 155.881719 501.850354 
L 156.046774 501.984271 
L 156.147463 502.103856 
L 156.244104 502.273314 
L 156.22334 504.122697 
L 157.121963 504.857778 
L 158.025807 505.597352 
L 164.697159 511.044634 
L 166.174544 512.250046 
L 167.037234 512.954583 
L 166.966114 512.214266 
L 168.550651 513.511337 
L 169.692795 514.445233 
L 171.030883 515.540009 
L 172.324159 516.598355 
L 173.635029 517.671302 
L 174.953941 518.750802 
L 176.238469 519.801898 
L 195.788998 535.801193 
L 197.118056 536.88881 
L 198.481624 538.004765 
L 199.842209 539.1186 
L 201.192543 540.222867 
L 203.255042 541.911105 
L 206.047316 544.19624 
L 206.201353 544.320332 
L 206.26626 544.372557 
L 206.955658 544.927764 
L 207.098515 545.042818 
L 207.358598 545.25244 
L 208.243968 545.995082 
L 213.90527 550.464697 
L 219.768189 554.266612 
L 225.77409 557.649516 
L 231.995148 560.284874 
L 238.797947 562.447713 
L 245.378915 563.952364 
L 252.466922 564.79597 
L 255.974022 564.997818 
L 261.332597 565.239349 
L 263.278457 565.326864 
L 266.930484 565.454796 
L 274.235281 565.71156 
L 281.465972 565.894906 
L 287.325182 566.055253 
L 290.523356 566.142401 
L 306.193204 566.519153 
L 309.953975 566.609649 
L 311.244603 566.658945 
L 311.71718 566.680052 
L 312.635639 566.718145 
L 313.050939 566.736453 
L 313.020792 566.254473 
L 312.987401 565.997539 
L 316.032679 566.144378 
L 318.065506 566.242783 
L 319.762346 566.324497 
L 320.393313 566.926554 
L 338.025423 567.458416 
L 338.661627 567.478054 
L 338.833961 567.483086 
L 339.663718 567.509081 
L 348.705104 567.785267 
L 349.252608 567.801918 
L 354.796464 567.971145 
L 355.388066 567.989535 
L 369.116966 568.40187 
L 376.436274 568.673137 
L 376.499081 568.67501 
L 383.70554 568.861963 
L 391.039844 569.060895 
L 398.316473 569.268316 
L 412.050921 569.642002 
L 430.103831 570.107577 
L 434.927799 570.228201 
L 438.682148 570.322627 
L 438.974431 570.329996 
L 439.715811 570.348642 
L 439.975048 570.355108 
L 440.529639 570.369019 
L 440.827624 570.376547 
L 443.082176 570.433248 
L 459.417236 570.863514 
L 461.105822 570.913695 
L 462.177988 570.936666 
L 462.357663 570.940264 
L 462.62368 570.946147 
L 463.240441 570.95987 
L 463.414431 570.964043 
L 463.645206 570.968853 
L 464.645417 571.007972 
L 465.84732 571.054866 
L 466.066064 571.063847 
L 466.239606 571.070744 
L 467.173656 569.171162 
L 467.806312 567.884627 
L 470.096033 563.228428 
L 470.613469 562.181095 
L 471.13505 561.135864 
L 471.660847 560.092733 
L 472.190789 559.051705 
L 472.724883 558.013145 
L 473.263195 556.976759 
L 473.805654 555.942548 
L 474.352186 554.910515 
L 474.90263 553.880076 
L 475.45722 552.851812 
L 476.015885 551.825799 
L 476.578698 550.802035 
L 477.38068 549.357953 
L 477.41961 549.288716 
L 477.903216 548.43608 
L 478.5438 547.30075 
L 478.869151 546.732159 
L 479.867123 544.991861 
L 481.922977 541.406722 
L 484.670434 536.616239 
L 485.105732 535.857264 
L 486.477821 533.464859 
L 486.905373 532.719333 
L 487.470028 531.734248 
L 491.381789 524.914042 
L 491.486822 524.730949 
L 493.821161 520.661241 
L 493.946557 520.439479 
L 494.061904 520.235583 
L 494.150689 520.078639 
L 494.233001 519.933101 
L 494.108685 519.860524 
L 494.835532 518.606789 
L 495.106731 518.138961 
L 495.411718 517.612942 
L 495.760255 517.011789 
L 497.57355 513.884222 
L 499.111593 511.231475 
L 500.177333 509.393322 
L 501.546335 507.032278 
L 505.232516 500.674803 
L 506.326209 498.788658 
L 506.561683 498.382595 
L 507.002799 498.18611 
L 507.429741 497.995971 
L 509.309573 497.158658 
L 509.653269 497.005589 
L 511.581717 496.146695 
L 514.823423 494.702948 
L 515.045974 494.603821 
L 516.634451 493.900203 
L 519.472617 492.642999 
L 519.716435 492.537512 
L 520.552439 492.175937 
L 521.51025 491.776026 
L 521.80127 491.654479 
L 522.59684 491.329482 
L 522.677338 491.296587 
L 523.289471 491.046485 
L 523.486294 490.96578 
L 526.686356 489.697287 
L 527.018074 489.565848 
L 527.095046 489.535308 
L 531.742181 487.694893 
L 533.943034 486.823654 
L 534.413503 486.637365 
L 535.779728 486.096495 
L 542.572034 483.407789 
L 543.139347 483.187066 
L 544.280002 482.756477 
L 545.042931 482.484339 
L 545.579052 482.301807 
L 546.201749 482.089836 
L 546.65775 481.934543 
L 546.831115 481.87859 
L 547.47264 481.671678 
L 548.633268 481.320243 
L 548.666076 481.310532 
L 549.165801 481.165509 
L 549.79838 480.985493 
L 550.333256 480.840382 
L 550.921311 480.68472 
L 551.507931 480.536495 
L 552.098271 480.391117 
L 552.687174 480.25303 
L 553.280457 480.117847 
L 553.919024 479.97523 
L 554.513796 479.847491 
L 557.116045 479.294096 
L 559.210839 478.848671 
L 562.972902 478.045613 
L 564.239678 477.775189 
L 564.240161 477.775086 
L 565.781879 477.446039 
L 570.872404 476.359611 
L 573.491093 475.800748 
L 574.626693 475.556345 
L 575.221488 475.444767 
L 575.821583 475.34113 
L 576.471253 475.24169 
L 577.074326 475.168773 
L 578.105301 474.679348 
L 578.272535 474.64547 
L 578.439436 474.609841 
L 578.60593 474.572462 
L 578.887164 474.509759 
L 579.167256 474.441952 
L 579.446063 474.369118 
L 579.723584 474.291255 
L 579.9996 474.20837 
L 580.274328 474.12031 
L 580.54748 474.027376 
L 580.818911 473.929498 
L 581.088548 473.826751 
L 581.356246 473.719137 
L 581.622153 473.606801 
L 581.885904 473.489677 
L 582.14757 473.367764 
L 582.40701 473.241212 
L 582.664149 473.109948 
L 582.889027 472.989992 
L 583.112069 472.866487 
L 583.333056 472.739438 
L 583.55199 472.608918 
L 583.672332 472.535158 
L 583.791993 472.460388 
L 583.910972 472.384535 
L 583.969298 472.346892 
L 584.027472 472.308959 
L 584.085421 472.270811 
L 584.341165 472.098165 
L 584.593578 471.920539 
L 584.842519 471.738156 
L 585.087914 471.550944 
L 585.31397 471.371294 
L 585.536718 471.187615 
L 585.756159 470.999982 
L 585.97222 470.808395 
L 586.184829 470.612931 
L 586.393991 470.413736 
L 586.599484 470.210741 
L 586.801311 470.004093 
L 586.999402 469.793867 
" clip-path="url(#pf4edec39d7)" style="fill: #d3d3d3"/>
   </g>
   <g id="matplotlib.axis_1">
    <g id="xtick_1">
     <g id="line2d_1">
      <defs>
       <path id="m1fd251a149" d="M 0 0 
L 0 3.5 
" style="stroke: #000000; stroke-width: 0.8"/>
      </defs>
      <g>
       <use xlink:href="#m1fd251a149" x="161.434294" y="591.817818" style="stroke: #000000; stroke-width: 0.8"/>
      </g>
     </g>
     <g id="text_1">
      <!-- 13.24 -->
      <g transform="translate(147.120231 606.416256) scale(0.1 -0.1)">
       <defs>
        <path id="DejaVuSans-31" d="M 794 531 
L 1825 531 
L 1825 4091 
L 703 3866 
L 703 4441 
L 1819 4666 
L 2450 4666 
L 2450 531 
L 3481 531 
L 3481 0 
L 794 0 
L 794 531 
z
" transform="scale(0.015625)"/>
        <path id="DejaVuSans-33" d="M 2597 2516 
Q 3050 2419 3304 2112 
Q 3559 1806 3559 1356 
Q 3559 666 3084 287 
Q 2609 -91 1734 -91 
Q 1441 -91 1130 -33 
Q 819 25 488 141 
L 488 750 
Q 750 597 1062 519 
Q 1375 441 1716 441 
Q 2309 441 2620 675 
Q 2931 909 2931 1356 
Q 2931 1769 2642 2001 
Q 2353 2234 1838 2234 
L 1294 2234 
L 1294 2753 
L 1863 2753 
Q 2328 2753 2575 2939 
Q 2822 3125 2822 3475 
Q 2822 3834 2567 4026 
Q 2313 4219 1838 4219 
Q 1578 4219 1281 4162 
Q 984 4106 628 3988 
L 628 4550 
Q 988 4650 1302 4700 
Q 1616 4750 1894 4750 
Q 2613 4750 3031 4423 
Q 3450 4097 3450 3541 
Q 3450 3153 3228 2886 
Q 3006 2619 2597 2516 
z
" transform="scale(0.015625)"/>
        <path id="DejaVuSans-2e" d="M 684 794 
L 1344 794 
L 1344 0 
L 684 0 
L 684 794 
z
" transform="scale(0.015625)"/>
        <path id="DejaVuSans-32" d="M 1228 531 
L 3431 531 
L 3431 0 
L 469 0 
L 469 531 
Q 828 903 1448 1529 
Q 2069 2156 2228 2338 
Q 2531 2678 2651 2914 
Q 2772 3150 2772 3378 
Q 2772 3750 2511 3984 
Q 2250 4219 1831 4219 
Q 1534 4219 1204 4116 
Q 875 4013 500 3803 
L 500 4441 
Q 881 4594 1212 4672 
Q 1544 4750 1819 4750 
Q 2544 4750 2975 4387 
Q 3406 4025 3406 3419 
Q 3406 3131 3298 2873 
Q 3191 2616 2906 2266 
Q 2828 2175 2409 1742 
Q 1991 1309 1228 531 
z
" transform="scale(0.015625)"/>
        <path id="DejaVuSans-34" d="M 2419 4116 
L 825 1625 
L 2419 1625 
L 2419 4116 
z
M 2253 4666 
L 3047 4666 
L 3047 1625 
L 3713 1625 
L 3713 1100 
L 3047 1100 
L 3047 0 
L 2419 0 
L 2419 1100 
L 313 1100 
L 313 1709 
L 2253 4666 
z
" transform="scale(0.015625)"/>
       </defs>
       <use xlink:href="#DejaVuSans-31"/>
       <use xlink:href="#DejaVuSans-33" x="63.623047"/>
       <use xlink:href="#DejaVuSans-2e" x="127.246094"/>
       <use xlink:href="#DejaVuSans-32" x="159.033203"/>
       <use xlink:href="#DejaVuSans-34" x="222.65625"/>
      </g>
     </g>
    </g>
    <g id="xtick_2">
     <g id="line2d_2">
      <g>
       <use xlink:href="#m1fd251a149" x="260.5089" y="591.817818" style="stroke: #000000; stroke-width: 0.8"/>
      </g>
     </g>
     <g id="text_2">
      <!-- 13.26 -->
      <g transform="translate(246.194837 606.416256) scale(0.1 -0.1)">
       <defs>
        <path id="DejaVuSans-36" d="M 2113 2584 
Q 1688 2584 1439 2293 
Q 1191 2003 1191 1497 
Q 1191 994 1439 701 
Q 1688 409 2113 409 
Q 2538 409 2786 701 
Q 3034 994 3034 1497 
Q 3034 2003 2786 2293 
Q 2538 2584 2113 2584 
z
M 3366 4563 
L 3366 3988 
Q 3128 4100 2886 4159 
Q 2644 4219 2406 4219 
Q 1781 4219 1451 3797 
Q 1122 3375 1075 2522 
Q 1259 2794 1537 2939 
Q 1816 3084 2150 3084 
Q 2853 3084 3261 2657 
Q 3669 2231 3669 1497 
Q 3669 778 3244 343 
Q 2819 -91 2113 -91 
Q 1303 -91 875 529 
Q 447 1150 447 2328 
Q 447 3434 972 4092 
Q 1497 4750 2381 4750 
Q 2619 4750 2861 4703 
Q 3103 4656 3366 4563 
z
" transform="scale(0.015625)"/>
       </defs>
       <use xlink:href="#DejaVuSans-31"/>
       <use xlink:href="#DejaVuSans-33" x="63.623047"/>
       <use xlink:href="#DejaVuSans-2e" x="127.246094"/>
       <use xlink:href="#DejaVuSans-32" x="159.033203"/>
       <use xlink:href="#DejaVuSans-36" x="222.65625"/>
      </g>
     </g>
    </g>
    <g id="xtick_3">
     <g id="line2d_3">
      <g>
       <use xlink:href="#m1fd251a149" x="359.583506" y="591.817818" style="stroke: #000000; stroke-width: 0.8"/>
      </g>
     </g>
     <g id="text_3">
      <!-- 13.28 -->
      <g transform="translate(345.269444 606.416256) scale(0.1 -0.1)">
       <defs>
        <path id="DejaVuSans-38" d="M 2034 2216 
Q 1584 2216 1326 1975 
Q 1069 1734 1069 1313 
Q 1069 891 1326 650 
Q 1584 409 2034 409 
Q 2484 409 2743 651 
Q 3003 894 3003 1313 
Q 3003 1734 2745 1975 
Q 2488 2216 2034 2216 
z
M 1403 2484 
Q 997 2584 770 2862 
Q 544 3141 544 3541 
Q 544 4100 942 4425 
Q 1341 4750 2034 4750 
Q 2731 4750 3128 4425 
Q 3525 4100 3525 3541 
Q 3525 3141 3298 2862 
Q 3072 2584 2669 2484 
Q 3125 2378 3379 2068 
Q 3634 1759 3634 1313 
Q 3634 634 3220 271 
Q 2806 -91 2034 -91 
Q 1263 -91 848 271 
Q 434 634 434 1313 
Q 434 1759 690 2068 
Q 947 2378 1403 2484 
z
M 1172 3481 
Q 1172 3119 1398 2916 
Q 1625 2713 2034 2713 
Q 2441 2713 2670 2916 
Q 2900 3119 2900 3481 
Q 2900 3844 2670 4047 
Q 2441 4250 2034 4250 
Q 1625 4250 1398 4047 
Q 1172 3844 1172 3481 
z
" transform="scale(0.015625)"/>
       </defs>
       <use xlink:href="#DejaVuSans-31"/>
       <use xlink:href="#DejaVuSans-33" x="63.623047"/>
       <use xlink:href="#DejaVuSans-2e" x="127.246094"/>
       <use xlink:href="#DejaVuSans-32" x="159.033203"/>
       <use xlink:href="#DejaVuSans-38" x="222.65625"/>
      </g>
     </g>
    </g>
    <g id="xtick_4">
     <g id="line2d_4">
      <g>
       <use xlink:href="#m1fd251a149" x="458.658112" y="591.817818" style="stroke: #000000; stroke-width: 0.8"/>
      </g>
     </g>
     <g id="text_4">
      <!-- 13.30 -->
      <g transform="translate(444.34405 606.416256) scale(0.1 -0.1)">
       <defs>
        <path id="DejaVuSans-30" d="M 2034 4250 
Q 1547 4250 1301 3770 
Q 1056 3291 1056 2328 
Q 1056 1369 1301 889 
Q 1547 409 2034 409 
Q 2525 409 2770 889 
Q 3016 1369 3016 2328 
Q 3016 3291 2770 3770 
Q 2525 4250 2034 4250 
z
M 2034 4750 
Q 2819 4750 3233 4129 
Q 3647 3509 3647 2328 
Q 3647 1150 3233 529 
Q 2819 -91 2034 -91 
Q 1250 -91 836 529 
Q 422 1150 422 2328 
Q 422 3509 836 4129 
Q 1250 4750 2034 4750 
z
" transform="scale(0.015625)"/>
       </defs>
       <use xlink:href="#DejaVuSans-31"/>
       <use xlink:href="#DejaVuSans-33" x="63.623047"/>
       <use xlink:href="#DejaVuSans-2e" x="127.246094"/>
       <use xlink:href="#DejaVuSans-33" x="159.033203"/>
       <use xlink:href="#DejaVuSans-30" x="222.65625"/>
      </g>
     </g>
    </g>
    <g id="xtick_5">
     <g id="line2d_5">
      <g>
       <use xlink:href="#m1fd251a149" x="557.732718" y="591.817818" style="stroke: #000000; stroke-width: 0.8"/>
      </g>
     </g>
     <g id="text_5">
      <!-- 13.32 -->
      <g transform="translate(543.418656 606.416256) scale(0.1 -0.1)">
       <use xlink:href="#DejaVuSans-31"/>
       <use xlink:href="#DejaVuSans-33" x="63.623047"/>
       <use xlink:href="#DejaVuSans-2e" x="127.246094"/>
       <use xlink:href="#DejaVuSans-33" x="159.033203"/>
       <use xlink:href="#DejaVuSans-32" x="222.65625"/>
      </g>
     </g>
    </g>
   </g>
   <g id="matplotlib.axis_2">
    <g id="ytick_1">
     <g id="line2d_6">
      <defs>
       <path id="mc3af72d4ac" d="M 0 0 
L -3.5 0 
" style="stroke: #000000; stroke-width: 0.8"/>
      </defs>
      <g>
       <use xlink:href="#mc3af72d4ac" x="90" y="561.339107" style="stroke: #000000; stroke-width: 0.8"/>
      </g>
     </g>
     <g id="text_6">
      <!-- 52.55 -->
      <g transform="translate(54.371875 565.138326) scale(0.1 -0.1)">
       <defs>
        <path id="DejaVuSans-35" d="M 691 4666 
L 3169 4666 
L 3169 4134 
L 1269 4134 
L 1269 2991 
Q 1406 3038 1543 3061 
Q 1681 3084 1819 3084 
Q 2600 3084 3056 2656 
Q 3513 2228 3513 1497 
Q 3513 744 3044 326 
Q 2575 -91 1722 -91 
Q 1428 -91 1123 -41 
Q 819 9 494 109 
L 494 744 
Q 775 591 1075 516 
Q 1375 441 1709 441 
Q 2250 441 2565 725 
Q 2881 1009 2881 1497 
Q 2881 1984 2565 2268 
Q 2250 2553 1709 2553 
Q 1456 2553 1204 2497 
Q 953 2441 691 2322 
L 691 4666 
z
" transform="scale(0.015625)"/>
       </defs>
       <use xlink:href="#DejaVuSans-35"/>
       <use xlink:href="#DejaVuSans-32" x="63.623047"/>
       <use xlink:href="#DejaVuSans-2e" x="127.246094"/>
       <use xlink:href="#DejaVuSans-35" x="159.033203"/>
       <use xlink:href="#DejaVuSans-35" x="222.65625"/>
      </g>
     </g>
    </g>
    <g id="ytick_2">
     <g id="line2d_7">
      <g>
       <use xlink:href="#mc3af72d4ac" x="90" y="479.810552" style="stroke: #000000; stroke-width: 0.8"/>
      </g>
     </g>
     <g id="text_7">
      <!-- 52.56 -->
      <g transform="translate(54.371875 483.609771) scale(0.1 -0.1)">
       <use xlink:href="#DejaVuSans-35"/>
       <use xlink:href="#DejaVuSans-32" x="63.623047"/>
       <use xlink:href="#DejaVuSans-2e" x="127.246094"/>
       <use xlink:href="#DejaVuSans-35" x="159.033203"/>
       <use xlink:href="#DejaVuSans-36" x="222.65625"/>
      </g>
     </g>
    </g>
    <g id="ytick_3">
     <g id="line2d_8">
      <g>
       <use xlink:href="#mc3af72d4ac" x="90" y="398.281997" style="stroke: #000000; stroke-width: 0.8"/>
      </g>
     </g>
     <g id="text_8">
      <!-- 52.57 -->
      <g transform="translate(54.371875 402.081215) scale(0.1 -0.1)">
       <defs>
        <path id="DejaVuSans-37" d="M 525 4666 
L 3525 4666 
L 3525 4397 
L 1831 0 
L 1172 0 
L 2766 4134 
L 525 4134 
L 525 4666 
z
" transform="scale(0.015625)"/>
       </defs>
       <use xlink:href="#DejaVuSans-35"/>
       <use xlink:href="#DejaVuSans-32" x="63.623047"/>
       <use xlink:href="#DejaVuSans-2e" x="127.246094"/>
       <use xlink:href="#DejaVuSans-35" x="159.033203"/>
       <use xlink:href="#DejaVuSans-37" x="222.65625"/>
      </g>
     </g>
    </g>
    <g id="ytick_4">
     <g id="line2d_9">
      <g>
       <use xlink:href="#mc3af72d4ac" x="90" y="316.753441" style="stroke: #000000; stroke-width: 0.8"/>
      </g>
     </g>
     <g id="text_9">
      <!-- 52.58 -->
      <g transform="translate(54.371875 320.55266) scale(0.1 -0.1)">
       <use xlink:href="#DejaVuSans-35"/>
       <use xlink:href="#DejaVuSans-32" x="63.623047"/>
       <use xlink:href="#DejaVuSans-2e" x="127.246094"/>
       <use xlink:href="#DejaVuSans-35" x="159.033203"/>
       <use xlink:href="#DejaVuSans-38" x="222.65625"/>
      </g>
     </g>
    </g>
    <g id="ytick_5">
     <g id="line2d_10">
      <g>
       <use xlink:href="#mc3af72d4ac" x="90" y="235.224886" style="stroke: #000000; stroke-width: 0.8"/>
      </g>
     </g>
     <g id="text_10">
      <!-- 52.59 -->
      <g transform="translate(54.371875 239.024105) scale(0.1 -0.1)">
       <defs>
        <path id="DejaVuSans-39" d="M 703 97 
L 703 672 
Q 941 559 1184 500 
Q 1428 441 1663 441 
Q 2288 441 2617 861 
Q 2947 1281 2994 2138 
Q 2813 1869 2534 1725 
Q 2256 1581 1919 1581 
Q 1219 1581 811 2004 
Q 403 2428 403 3163 
Q 403 3881 828 4315 
Q 1253 4750 1959 4750 
Q 2769 4750 3195 4129 
Q 3622 3509 3622 2328 
Q 3622 1225 3098 567 
Q 2575 -91 1691 -91 
Q 1453 -91 1209 -44 
Q 966 3 703 97 
z
M 1959 2075 
Q 2384 2075 2632 2365 
Q 2881 2656 2881 3163 
Q 2881 3666 2632 3958 
Q 2384 4250 1959 4250 
Q 1534 4250 1286 3958 
Q 1038 3666 1038 3163 
Q 1038 2656 1286 2365 
Q 1534 2075 1959 2075 
z
" transform="scale(0.015625)"/>
       </defs>
       <use xlink:href="#DejaVuSans-35"/>
       <use xlink:href="#DejaVuSans-32" x="63.623047"/>
       <use xlink:href="#DejaVuSans-2e" x="127.246094"/>
       <use xlink:href="#DejaVuSans-35" x="159.033203"/>
       <use xlink:href="#DejaVuSans-39" x="222.65625"/>
      </g>
     </g>
    </g>
    <g id="ytick_6">
     <g id="line2d_11">
      <g>
       <use xlink:href="#mc3af72d4ac" x="90" y="153.696331" style="stroke: #000000; stroke-width: 0.8"/>
      </g>
     </g>
     <g id="text_11">
      <!-- 52.60 -->
      <g transform="translate(54.371875 157.49555) scale(0.1 -0.1)">
       <use xlink:href="#DejaVuSans-35"/>
       <use xlink:href="#DejaVuSans-32" x="63.623047"/>
       <use xlink:href="#DejaVuSans-2e" x="127.246094"/>
       <use xlink:href="#DejaVuSans-36" x="159.033203"/>
       <use xlink:href="#DejaVuSans-30" x="222.65625"/>
      </g>
     </g>
    </g>
   </g>
   <g id="LineCollection_1">
    <path d="M 364.390606 204.398939 
L 363.888298 203.492342 
" clip-path="url(#pf4edec39d7)" style="fill: none; stroke: #ff0000; stroke-opacity: 0.7; stroke-width: 0.5"/>
    <path d="M 332.162627 218.401469 
L 330.591304 213.663029 
L 330.040449 207.944616 
L 330.13457 205.350378 
" clip-path="url(#pf4edec39d7)" style="fill: none; stroke: #ff0000; stroke-opacity: 0.7; stroke-width: 0.5"/>
    <path d="M 561.636753 395.328217 
L 556.481902 394.177849 
L 556.045973 394.08083 
L 555.692772 394.001748 
L 552.943947 393.388653 
L 552.139462 393.20929 
L 551.488046 393.064169 
L 551.246799 393.01036 
L 547.387843 392.149419 
" clip-path="url(#pf4edec39d7)" style="fill: none; stroke: #ff0000; stroke-opacity: 0.7; stroke-width: 0.5"/>
    <path d="M 583.983526 400.224007 
L 583.541158 400.122911 
L 583.147336 400.032415 
L 580.353433 399.400568 
L 580.228103 399.495957 
L 579.003541 399.222836 
L 578.897036 399.078531 
L 577.693775 398.812748 
L 577.507019 398.889384 
L 576.425124 398.64806 
L 576.362707 398.518429 
L 575.729621 398.3782 
L 575.261493 398.388799 
L 574.476822 398.214328 
L 573.739212 398.04964 
L 573.43109 397.870277 
L 572.765804 397.723526 
L 572.505238 397.774889 
L 571.006239 397.440622 
L 570.743196 397.27675 
L 569.308595 396.959604 
L 569.049515 397.004444 
L 567.15719 396.587833 
L 566.1605 396.360369 
L 565.971267 396.22177 
L 564.570848 395.924191 
L 562.605208 395.491274 
L 562.327799 395.492905 
L 561.636753 395.328217 
" clip-path="url(#pf4edec39d7)" style="fill: none; stroke: #ff0000; stroke-opacity: 0.7; stroke-width: 0.5"/>
    <path d="M 353.017337 202.211528 
L 352.399111 202.505846 
L 352.209383 202.696623 
L 350.499851 204.41443 
L 348.777439 206.146096 
L 348.462877 206.445306 
L 346.156915 208.642501 
L 342.253376 212.361833 
L 342.089903 212.517553 
L 341.802586 212.785782 
L 340.174791 214.305474 
L 339.479782 214.742467 
L 336.521415 216.169217 
L 334.851017 217.017929 
L 332.162627 218.401469 
" clip-path="url(#pf4edec39d7)" style="fill: none; stroke: #ff0000; stroke-opacity: 0.7; stroke-width: 0.5"/>
    <path d="M 362.903496 203.648061 
L 363.400355 204.526124 
" clip-path="url(#pf4edec39d7)" style="fill: none; stroke: #ff0000; stroke-opacity: 0.7; stroke-width: 0.5"/>
    <path d="M 354.552002 193.571132 
L 354.426177 193.478189 
L 353.465154 192.766445 
L 350.276438 189.1531 
L 347.087721 185.540569 
L 346.382806 184.594023 
L 343.547786 180.673314 
" clip-path="url(#pf4edec39d7)" style="fill: none; stroke: #ff0000; stroke-opacity: 0.7; stroke-width: 0.5"/>
    <path d="M 367.141908 212.144152 
L 366.688146 210.337479 
" clip-path="url(#pf4edec39d7)" style="fill: none; stroke: #ff0000; stroke-opacity: 0.7; stroke-width: 0.5"/>
    <path d="M 366.004036 211.013351 
L 366.406279 212.726266 
" clip-path="url(#pf4edec39d7)" style="fill: none; stroke: #ff0000; stroke-opacity: 0.7; stroke-width: 0.5"/>
    <path d="M 366.406279 212.726266 
L 366.70053 213.921475 
L 367.250394 216.144758 
L 367.935 218.955863 
L 368.226279 220.076065 
L 369.242785 223.259755 
" clip-path="url(#pf4edec39d7)" style="fill: none; stroke: #ff0000; stroke-opacity: 0.7; stroke-width: 0.5"/>
    <path d="M 370.605061 224.569919 
L 370.30536 223.779908 
L 369.452823 221.369108 
L 369.136775 220.207326 
L 368.853917 219.167837 
L 368.396688 217.287789 
L 368.075191 215.958058 
L 367.141908 212.144152 
" clip-path="url(#pf4edec39d7)" style="fill: none; stroke: #ff0000; stroke-opacity: 0.7; stroke-width: 0.5"/>
    <path d="M 343.426419 198.201139 
L 341.994791 198.66259 
L 341.282445 199.282207 
L 340.527001 200.739938 
" clip-path="url(#pf4edec39d7)" style="fill: none; stroke: #ff0000; stroke-opacity: 0.7; stroke-width: 0.5"/>
    <path d="M 343.426419 198.201139 
L 344.178396 198.694386 
" clip-path="url(#pf4edec39d7)" style="fill: none; stroke: #ff0000; stroke-opacity: 0.7; stroke-width: 0.5"/>
    <path d="M 547.387843 392.149419 
L 546.138513 391.872222 
L 543.020635 391.180044 
L 540.711701 390.668045 
L 539.48813 390.396555 
L 538.362642 390.147077 
L 532.725792 388.896429 
L 531.302586 388.580099 
L 530.656124 388.436608 
L 525.168877 387.219387 
L 524.108779 386.731031 
" clip-path="url(#pf4edec39d7)" style="fill: none; stroke: #ff0000; stroke-opacity: 0.7; stroke-width: 0.5"/>
    <path d="M 354.552002 193.571132 
L 357.263179 195.9216 
" clip-path="url(#pf4edec39d7)" style="fill: none; stroke: #ff0000; stroke-opacity: 0.7; stroke-width: 0.5"/>
    <path d="M 603.125731 403.818601 
L 602.38168 403.652283 
L 599.971195 403.114194 
L 598.214107 402.721227 
L 596.957346 402.440768 
L 592.522766 401.450196 
L 587.641361 400.36016 
L 585.757952 399.971268 
" clip-path="url(#pf4edec39d7)" style="fill: none; stroke: #ff0000; stroke-opacity: 0.7; stroke-width: 0.5"/>
    <path d="M 369.242785 223.259755 
L 369.489481 224.064442 
L 369.674255 224.605792 
L 370.741784 227.151113 
L 370.852252 227.420158 
L 371.122725 228.02673 
" clip-path="url(#pf4edec39d7)" style="fill: none; stroke: #ff0000; stroke-opacity: 0.7; stroke-width: 0.5"/>
    <path d="M 366.688146 210.337479 
L 366.463247 209.366474 
L 366.104597 207.941355 
" clip-path="url(#pf4edec39d7)" style="fill: none; stroke: #ff0000; stroke-opacity: 0.7; stroke-width: 0.5"/>
    <path d="M 508.698714 383.180462 
L 508.30836 383.092412 
L 506.810848 382.784234 
L 506.059367 382.621992 
L 505.48523 382.492361 
L 504.181903 382.193967 
L 503.77223 382.094502 
L 502.619992 381.814044 
L 502.393606 381.758604 
L 501.599028 381.565382 
L 501.142294 381.453688 
L 500.351679 381.362376 
L 499.745342 381.292261 
L 498.649577 381.189535 
L 498.119528 381.139803 
" clip-path="url(#pf4edec39d7)" style="fill: none; stroke: #ff0000; stroke-opacity: 0.7; stroke-width: 0.5"/>
    <path d="M 365.892577 210.606524 
L 366.004036 211.013351 
" clip-path="url(#pf4edec39d7)" style="fill: none; stroke: #ff0000; stroke-opacity: 0.7; stroke-width: 0.5"/>
    <path d="M 517.761564 385.283899 
L 516.639544 385.023823 
L 516.119898 384.903161 
L 515.72459 384.811033 
L 511.152297 383.749532 
L 508.698714 383.180462 
" clip-path="url(#pf4edec39d7)" style="fill: none; stroke: #ff0000; stroke-opacity: 0.7; stroke-width: 0.5"/>
    <path d="M 524.108779 386.731031 
L 521.956878 386.240229 
L 519.691042 385.724153 
L 518.845936 385.530931 
L 517.761564 385.283899 
" clip-path="url(#pf4edec39d7)" style="fill: none; stroke: #ff0000; stroke-opacity: 0.7; stroke-width: 0.5"/>
    <path d="M 365.568108 206.668694 
L 365.366986 206.206427 
L 364.944433 205.325104 
L 364.7874 205.059321 
L 364.390606 204.398939 
" clip-path="url(#pf4edec39d7)" style="fill: none; stroke: #ff0000; stroke-opacity: 0.7; stroke-width: 0.5"/>
    <path d="M 358.954878 197.933725 
L 360.016462 199.382487 
L 360.921013 200.607046 
" clip-path="url(#pf4edec39d7)" style="fill: none; stroke: #ff0000; stroke-opacity: 0.7; stroke-width: 0.5"/>
    <path d="M 366.039207 206.538249 
L 365.918832 205.483269 
" clip-path="url(#pf4edec39d7)" style="fill: none; stroke: #ff0000; stroke-opacity: 0.7; stroke-width: 0.5"/>
    <path d="M 360.921013 200.607046 
L 362.194122 202.516445 
L 362.36453 202.800164 
L 362.903496 203.648061 
" clip-path="url(#pf4edec39d7)" style="fill: none; stroke: #ff0000; stroke-opacity: 0.7; stroke-width: 0.5"/>
    <path d="M 358.227175 196.294186 
L 354.552002 193.571132 
" clip-path="url(#pf4edec39d7)" style="fill: none; stroke: #ff0000; stroke-opacity: 0.7; stroke-width: 0.5"/>
    <path d="M 357.621829 196.347995 
L 358.0211 196.714058 
L 358.954878 197.933725 
" clip-path="url(#pf4edec39d7)" style="fill: none; stroke: #ff0000; stroke-opacity: 0.7; stroke-width: 0.5"/>
    <path d="M 365.912887 205.010404 
L 366.012457 204.706302 
L 366.169491 204.447856 
L 366.411728 204.167398 
" clip-path="url(#pf4edec39d7)" style="fill: none; stroke: #ff0000; stroke-opacity: 0.7; stroke-width: 0.5"/>
    <path d="M 363.888298 203.492342 
L 363.370633 202.5727 
L 361.877083 200.354308 
L 361.675962 200.060805 
L 360.86355 198.930004 
L 358.227175 196.294186 
" clip-path="url(#pf4edec39d7)" style="fill: none; stroke: #ff0000; stroke-opacity: 0.7; stroke-width: 0.5"/>
    <path d="M 311.409965 227.096489 
L 310.401881 227.561202 
" clip-path="url(#pf4edec39d7)" style="fill: none; stroke: #ff0000; stroke-opacity: 0.7; stroke-width: 0.5"/>
    <path d="M 340.516598 201.017135 
L 340.031133 213.059718 
L 340.005373 213.705424 
L 340.174791 214.305474 
" clip-path="url(#pf4edec39d7)" style="fill: none; stroke: #ff0000; stroke-opacity: 0.7; stroke-width: 0.5"/>
    <path d="M 365.049947 208.044081 
L 365.479436 209.230322 
L 365.892577 210.606524 
" clip-path="url(#pf4edec39d7)" style="fill: none; stroke: #ff0000; stroke-opacity: 0.7; stroke-width: 0.5"/>
    <path d="M 305.406539 229.855415 
L 305.16876 229.702142 
L 305.015194 229.568435 
L 304.947824 229.477123 
L 304.861133 229.402932 
L 304.760077 229.350754 
L 304.603044 229.320588 
L 304.44502 229.341786 
L 304.362788 229.376028 
L 304.288482 229.424129 
L 304.186435 229.531747 
L 304.122037 229.665454 
L 304.101727 229.768995 
L 304.104699 229.874167 
L 304.138384 229.998906 
L 304.203278 230.109785 
L 304.319195 230.216587 
L 304.463349 230.28181 
" clip-path="url(#pf4edec39d7)" style="fill: none; stroke: #ff0000; stroke-opacity: 0.7; stroke-width: 0.5"/>
    <path d="M 585.757952 399.971268 
L 585.385432 400.135141 
L 585.115949 400.24765 
L 584.976749 400.278631 
L 584.62652 400.307981 
L 583.983526 400.224007 
" clip-path="url(#pf4edec39d7)" style="fill: none; stroke: #ff0000; stroke-opacity: 0.7; stroke-width: 0.5"/>
    <path d="M 332.162627 218.401469 
L 319.914529 223.056749 
L 311.583345 227.014145 
L 311.409965 227.096489 
" clip-path="url(#pf4edec39d7)" style="fill: none; stroke: #ff0000; stroke-opacity: 0.7; stroke-width: 0.5"/>
    <path d="M 365.918832 205.483269 
L 365.894558 205.252543 
L 365.912887 205.010404 
" clip-path="url(#pf4edec39d7)" style="fill: none; stroke: #ff0000; stroke-opacity: 0.7; stroke-width: 0.5"/>
    <path d="M 310.401881 227.561202 
L 309.81635 227.834323 
L 309.203573 228.133532 
L 305.406539 229.855415 
L 304.463349 230.28181 
" clip-path="url(#pf4edec39d7)" style="fill: none; stroke: #ff0000; stroke-opacity: 0.7; stroke-width: 0.5"/>
    <path d="M 344.221988 197.712783 
L 344.178396 198.694386 
L 351.889372 202.34605 
L 352.233656 202.426764 
L 352.399111 202.505846 
" clip-path="url(#pf4edec39d7)" style="fill: none; stroke: #ff0000; stroke-opacity: 0.7; stroke-width: 0.5"/>
    <path d="M 343.547786 180.673314 
L 343.091547 180.042283 
L 339.208813 175.167691 
L 338.578699 174.376864 
" clip-path="url(#pf4edec39d7)" style="fill: none; stroke: #ff0000; stroke-opacity: 0.7; stroke-width: 0.5"/>
    <path d="M 357.263179 195.9216 
L 357.621829 196.347995 
" clip-path="url(#pf4edec39d7)" style="fill: none; stroke: #ff0000; stroke-opacity: 0.7; stroke-width: 0.5"/>
    <path d="M 363.400355 204.526124 
L 363.747612 205.160416 
" clip-path="url(#pf4edec39d7)" style="fill: none; stroke: #ff0000; stroke-opacity: 0.7; stroke-width: 0.5"/>
    <path d="M 363.747612 205.160416 
L 364.389615 206.464873 
L 364.778978 207.348642 
L 365.049947 208.044081 
" clip-path="url(#pf4edec39d7)" style="fill: none; stroke: #ff0000; stroke-opacity: 0.7; stroke-width: 0.5"/>
    <path d="M 366.104597 207.941355 
L 366.039207 206.538249 
" clip-path="url(#pf4edec39d7)" style="fill: none; stroke: #ff0000; stroke-opacity: 0.7; stroke-width: 0.5"/>
    <path d="M 366.104597 207.941355 
L 365.568108 206.668694 
" clip-path="url(#pf4edec39d7)" style="fill: none; stroke: #ff0000; stroke-opacity: 0.7; stroke-width: 0.5"/>
    <path d="M 371.960897 227.728335 
L 371.750363 227.327215 
L 371.637913 227.11198 
L 371.552709 226.949738 
L 370.605061 224.569919 
" clip-path="url(#pf4edec39d7)" style="fill: none; stroke: #ff0000; stroke-opacity: 0.7; stroke-width: 0.5"/>
    <path d="M 606.344169 404.613504 
L 605.519373 404.638778 
L 605.141899 404.55888 
L 604.395867 404.335492 
L 603.812813 404.111288 
L 603.125731 403.818601 
" clip-path="url(#pf4edec39d7)" style="fill: none; stroke: #ff0000; stroke-opacity: 0.7; stroke-width: 0.5"/>
   </g>
   <g id="patch_3">
    <path d="M 90 591.817818 
L 90 135.382182 
" style="fill: none; stroke: #000000; stroke-width: 0.8; stroke-linejoin: miter; stroke-linecap: square"/>
   </g>
   <g id="patch_4">
    <path d="M 648 591.817818 
L 648 135.382182 
" style="fill: none; stroke: #000000; stroke-width: 0.8; stroke-linejoin: miter; stroke-linecap: square"/>
   </g>
   <g id="patch_5">
    <path d="M 90 591.817818 
L 648 591.817818 
" style="fill: none; stroke: #000000; stroke-width: 0.8; stroke-linejoin: miter; stroke-linecap: square"/>
   </g>
   <g id="patch_6">
    <path d="M 90 135.382182 
L 648 135.382182 
" style="fill: none; stroke: #000000; stroke-width: 0.8; stroke-linejoin: miter; stroke-linecap: square"/>
   </g>
   <g id="text_12">
    <!-- Tegel -->
    <g transform="translate(373.61081 418.412789) scale(0.12 -0.12)">
     <defs>
      <path id="DejaVuSans-54" d="M -19 4666 
L 3928 4666 
L 3928 4134 
L 2272 4134 
L 2272 0 
L 1638 0 
L 1638 4134 
L -19 4134 
L -19 4666 
z
" transform="scale(0.015625)"/>
      <path id="DejaVuSans-65" d="M 3597 1894 
L 3597 1613 
L 953 1613 
Q 991 1019 1311 708 
Q 1631 397 2203 397 
Q 2534 397 2845 478 
Q 3156 559 3463 722 
L 3463 178 
Q 3153 47 2828 -22 
Q 2503 -91 2169 -91 
Q 1331 -91 842 396 
Q 353 884 353 1716 
Q 353 2575 817 3079 
Q 1281 3584 2069 3584 
Q 2775 3584 3186 3129 
Q 3597 2675 3597 1894 
z
M 3022 2063 
Q 3016 2534 2758 2815 
Q 2500 3097 2075 3097 
Q 1594 3097 1305 2825 
Q 1016 2553 972 2059 
L 3022 2063 
z
" transform="scale(0.015625)"/>
      <path id="DejaVuSans-67" d="M 2906 1791 
Q 2906 2416 2648 2759 
Q 2391 3103 1925 3103 
Q 1463 3103 1205 2759 
Q 947 2416 947 1791 
Q 947 1169 1205 825 
Q 1463 481 1925 481 
Q 2391 481 2648 825 
Q 2906 1169 2906 1791 
z
M 3481 434 
Q 3481 -459 3084 -895 
Q 2688 -1331 1869 -1331 
Q 1566 -1331 1297 -1286 
Q 1028 -1241 775 -1147 
L 775 -588 
Q 1028 -725 1275 -790 
Q 1522 -856 1778 -856 
Q 2344 -856 2625 -561 
Q 2906 -266 2906 331 
L 2906 616 
Q 2728 306 2450 153 
Q 2172 0 1784 0 
Q 1141 0 747 490 
Q 353 981 353 1791 
Q 353 2603 747 3093 
Q 1141 3584 1784 3584 
Q 2172 3584 2450 3431 
Q 2728 3278 2906 2969 
L 2906 3500 
L 3481 3500 
L 3481 434 
z
" transform="scale(0.015625)"/>
      <path id="DejaVuSans-6c" d="M 603 4863 
L 1178 4863 
L 1178 0 
L 603 0 
L 603 4863 
z
" transform="scale(0.015625)"/>
     </defs>
     <use xlink:href="#DejaVuSans-54"/>
     <use xlink:href="#DejaVuSans-65" x="44.083984"/>
     <use xlink:href="#DejaVuSans-67" x="105.607422"/>
     <use xlink:href="#DejaVuSans-65" x="169.083984"/>
     <use xlink:href="#DejaVuSans-6c" x="230.607422"/>
    </g>
   </g>
  </g>
 </g>
 <defs>
  <clipPath id="pf4edec39d7">
   <rect x="90" y="135.382182" width="558" height="456.435636"/>
  </clipPath>
 </defs>
</svg>
