<?xml version="1.0" encoding="utf-8" standalone="no"?>
<!DOCTYPE svg PUBLIC "-//W3C//DTD SVG 1.1//EN"
  "http://www.w3.org/Graphics/SVG/1.1/DTD/svg11.dtd">
<svg xmlns:xlink="http://www.w3.org/1999/xlink" width="460.8pt" height="345.6pt" viewBox="0 0 460.8 345.6" xmlns="http://www.w3.org/2000/svg" version="1.1">
 <metadata>
  <rdf:RDF xmlns:dc="http://purl.org/dc/elements/1.1/" xmlns:cc="http://creativecommons.org/ns#" xmlns:rdf="http://www.w3.org/1999/02/22-rdf-syntax-ns#">
   <cc:Work>
    <dc:type rdf:resource="http://purl.org/dc/dcmitype/StillImage"/>
    <dc:date>2024-10-17T11:33:15.433934</dc:date>
    <dc:format>image/svg+xml</dc:format>
    <dc:creator>
     <cc:Agent>
      <dc:title>Matplotlib v3.9.2, https://matplotlib.org/</dc:title>
     </cc:Agent>
    </dc:creator>
   </cc:Work>
  </rdf:RDF>
 </metadata>
 <defs>
  <style type="text/css">*{stroke-linejoin: round; stroke-linecap: butt}</style>
 </defs>
 <g id="figure_1">
  <g id="patch_1">
   <path d="M 0 345.6 
L 460.8 345.6 
L 460.8 0 
L 0 0 
z
" style="fill: #ffffff"/>
  </g>
  <g id="axes_1">
   <g id="patch_2">
    <path d="M 73.463149 307.584 
L 398.856851 307.584 
L 398.856851 41.472 
L 73.463149 41.472 
z
" style="fill: #ffffff"/>
   </g>
   <g id="PatchCollection_1">
    <path d="M 363.284789 236.441357 
L 363.398082 236.316705 
L 363.509027 236.190014 
L 363.617668 236.061369 
L 363.724006 235.930768 
L 363.827956 235.798299 
L 363.929518 235.66392 
L 363.960799 235.621524 
L 363.991863 235.578961 
L 364.022668 235.536234 
L 364.099671 235.427171 
L 364.175114 235.316991 
L 364.248998 235.205737 
L 364.319717 235.095838 
L 364.388922 234.984991 
L 364.456571 234.873155 
L 364.522664 234.760415 
L 364.541509 234.727581 
L 364.560224 234.694665 
L 364.57881 234.661667 
L 364.58814 234.644954 
L 364.59747 234.62824 
L 364.606758 234.611527 
L 364.660641 234.512576 
L 364.713357 234.412968 
L 364.762361 234.317544 
L 364.764824 234.312749 
L 364.835877 234.169379 
L 364.904474 234.024827 
L 364.970571 233.879093 
L 365.034214 233.732263 
L 365.095318 233.584381 
L 365.157743 233.425399 
L 365.217287 233.26533 
L 365.273865 233.104177 
L 365.327521 232.94198 
L 365.378215 232.778869 
L 365.744558 231.560412 
L 365.846434 230.958566 
L 366.134999 230.983822 
L 367.735972 231.12622 
L 371.212385 231.435147 
L 373.478134 231.636807 
L 374.23582 231.710543 
L 374.871683 231.772494 
L 375.201048 231.803953 
L 375.507458 231.834321 
L 376.165793 231.898661 
L 376.784141 231.958887 
L 377.452809 232.024059 
L 377.771563 232.05564 
L 378.139922 232.399207 
L 379.021416 233.221367 
L 379.061052 233.258356 
L 379.096461 233.291297 
L 379.17791 233.36719 
L 380.282468 234.394706 
L 380.552394 234.15352 
L 380.722124 233.993636 
L 380.845005 233.933091 
L 380.984026 233.864608 
L 381.16228 233.776795 
L 381.573396 233.403955 
L 381.420866 233.261799 
L 381.40584 233.247788 
L 381.271428 233.122479 
L 380.221085 232.143233 
L 380.084276 232.015672 
L 380.069945 232.002285 
L 379.914714 231.85763 
L 379.821819 231.956242 
L 379.482314 231.640295 
L 379.154189 231.335539 
L 378.833729 231.037913 
L 378.747189 230.95748 
L 378.599726 230.820808 
L 377.674833 229.961706 
L 377.676217 229.883122 
L 377.112594 229.24514 
L 376.861586 229.011636 
L 376.774793 228.929543 
L 376.648348 228.811744 
L 376.198799 228.392881 
L 376.093156 228.506065 
L 375.583457 228.033169 
L 375.689493 227.920403 
L 375.198599 227.462798 
L 374.710247 227.006461 
L 374.219349 226.548901 
L 373.600555 225.971785 
L 373.011391 225.422916 
L 372.978548 225.392309 
L 372.978256 225.392572 
L 371.743799 224.241824 
L 371.469571 223.985231 
L 371.251582 223.781225 
L 371.124007 223.63136 
L 371.117172 223.623313 
L 371.076829 223.566982 
L 370.996759 223.455119 
L 370.911344 223.316669 
L 370.888674 223.279971 
L 370.863197 223.230646 
L 370.794219 223.097113 
L 370.786052 223.077515 
L 370.713747 222.906964 
L 370.647355 222.712001 
L 370.594992 222.513591 
L 370.557541 222.311288 
L 370.549193 222.256223 
L 370.534956 222.10676 
L 370.526891 221.903475 
L 370.534122 221.696287 
L 370.549655 221.534764 
L 370.4934 221.535003 
L 370.637607 220.866318 
L 370.754311 220.328023 
L 370.778729 220.215313 
L 370.781423 220.202771 
L 370.78416 220.190271 
L 370.813082 220.056686 
L 370.943789 219.453691 
L 371.035854 219.026926 
L 371.111234 218.677507 
L 371.140105 218.543539 
L 371.151807 218.489204 
L 371.33709 217.653788 
L 371.534793 216.73419 
L 371.665645 216.129195 
L 371.707446 215.936804 
L 371.734713 215.810865 
L 371.879286 215.142899 
L 371.954005 214.797983 
L 372.051103 214.349807 
L 372.096236 214.141141 
L 372.277698 213.302353 
L 372.322831 213.093687 
L 372.382598 212.819165 
L 372.48016 212.370721 
L 372.515998 212.20612 
L 372.688525 211.414038 
L 372.726522 211.239599 
L 372.729258 211.227056 
L 372.771856 211.03033 
L 372.865566 210.597747 
L 372.730804 210.568823 
L 373.035647 209.173766 
L 373.229962 208.250744 
L 373.308225 207.888631 
L 373.338633 207.747938 
L 373.452063 207.248141 
L 373.579779 207.278212 
L 373.70565 206.708037 
L 373.733356 206.582558 
L 373.736831 206.566921 
L 373.793161 206.305813 
L 373.800788 206.270635 
L 373.890695 205.855919 
L 373.913255 205.751201 
L 373.931744 205.665896 
L 374.004389 205.330517 
L 374.040769 205.161629 
L 374.209974 204.142178 
L 374.149501 204.041183 
L 374.309942 203.278915 
L 374.442588 203.308273 
L 374.58823 202.636054 
L 375.251644 199.575026 
L 375.26799 199.505754 
L 375.286909 199.437149 
L 375.308317 199.369298 
L 375.3323 199.302157 
L 375.358734 199.235942 
L 375.836916 196.839677 
L 375.857636 196.743807 
L 376.239529 194.976904 
L 376.28868 194.744342 
L 376.336938 194.515603 
L 376.372288 194.351783 
L 376.50796 193.72356 
L 376.598369 193.304261 
L 376.688702 192.887186 
L 376.805509 192.344662 
L 376.870525 192.044035 
L 376.908394 191.865626 
L 377.020013 191.351258 
L 377.175434 190.627401 
L 377.28755 190.112337 
L 377.311986 189.992747 
L 377.444772 189.379592 
L 377.629129 188.527645 
L 377.694316 188.254814 
L 377.798108 187.742893 
L 377.930824 187.126578 
L 378.217238 185.792686 
L 378.300405 185.402874 
L 378.726526 183.430112 
L 378.762068 183.263382 
L 378.871657 182.756754 
L 378.907625 182.590014 
L 378.92807 182.495048 
L 379.034844 181.999384 
L 379.09337 181.727628 
L 379.323824 180.65787 
L 379.464678 180.004058 
L 379.622045 179.273278 
L 379.681768 178.996067 
L 379.787812 178.503711 
L 379.806632 178.417757 
L 379.817607 178.366859 
L 379.845609 177.560998 
L 379.991843 176.885223 
L 380.091732 176.423524 
L 380.189509 175.971875 
L 380.231886 175.776097 
L 380.294217 175.488056 
L 380.336519 175.292706 
L 380.434102 174.841874 
L 380.533993 174.380175 
L 380.659973 173.798294 
L 380.799486 173.806684 
L 380.835752 173.637971 
L 380.944902 173.13221 
L 380.9815 172.961225 
L 380.98966 172.923128 
L 381.107295 172.378621 
L 381.610642 170.036665 
L 381.692648 169.660642 
L 381.73781 169.452448 
L 381.873356 168.77577 
L 382.01261 168.080583 
L 382.040573 167.934414 
L 382.167179 167.262857 
L 382.404515 166.026183 
L 382.592543 165.041605 
L 382.701392 164.468798 
L 382.736397 164.285926 
L 382.992667 162.945647 
L 383.030058 162.749728 
L 383.069845 162.541231 
L 383.104892 162.358274 
L 383.137052 162.190682 
L 383.154535 162.09835 
L 383.165218 162.042116 
L 383.314109 161.25696 
L 383.410209 160.750478 
L 383.444915 160.567528 
L 383.484643 160.362024 
L 383.513131 160.214434 
L 383.580549 159.865589 
L 383.74551 159.000656 
L 383.78226 158.808299 
L 383.891578 158.235225 
L 383.761731 158.210112 
L 383.820208 157.898699 
L 383.839957 157.793707 
L 383.919473 157.37039 
L 383.939912 157.260965 
L 383.979131 157.051001 
L 383.998298 156.9485 
L 384.064151 156.595893 
L 384.066228 156.584772 
L 383.921362 156.27995 
L 384.047687 155.588314 
L 383.604315 155.609513 
L 383.305506 155.623801 
L 383.355573 155.350747 
L 383.370949 155.266882 
L 383.042504 155.28787 
L 382.284627 155.343468 
L 380.160712 155.42249 
L 377.956709 155.524632 
L 376.650404 155.494592 
L 375.562075 155.613357 
L 374.521364 155.737389 
L 372.700894 155.897824 
L 371.401058 155.839589 
L 370.985891 155.816111 
L 370.553946 155.7917 
L 369.318274 155.888277 
L 367.59569 155.884337 
L 366.144884 156.161457 
L 365.693856 155.948045 
L 365.470096 155.877561 
L 364.365358 155.333228 
L 363.043234 154.752759 
L 361.977002 154.284726 
L 361.822822 154.216131 
L 360.692459 153.713056 
L 360.057631 153.433932 
L 359.55484 153.458246 
L 358.297014 153.519121 
L 357.491169 153.558063 
L 357.193226 153.572483 
L 356.866494 153.588301 
L 356.23918 153.855921 
L 356.087154 153.920749 
L 354.992789 154.387599 
L 354.348297 154.662507 
L 354.137814 154.695876 
L 353.898743 154.733801 
L 352.798199 154.908271 
L 351.694338 155.082996 
L 350.509047 155.270652 
L 349.32792 155.457619 
L 348.145182 155.644887 
L 347.58578 155.733461 
L 346.958913 155.83421 
L 346.659328 155.882403 
L 346.111939 155.968692 
L 345.820147 156.031878 
L 345.818171 156.032306 
L 345.766248 156.043605 
L 344.919437 156.225355 
L 344.619328 156.294975 
L 343.616338 156.505678 
L 343.511933 156.531666 
L 341.883537 156.885415 
L 340.988819 157.078515 
L 338.755319 157.560586 
L 336.93555 157.604773 
L 336.462914 157.616258 
L 335.325128 157.636599 
L 334.977714 157.642763 
L 334.175239 157.657144 
L 333.919495 157.661677 
L 333.885844 157.664815 
L 333.805533 157.817259 
L 333.715008 157.988788 
L 333.549354 158.302725 
L 333.54297 158.303217 
L 333.537854 158.303208 
L 333.532998 158.325374 
L 332.964626 158.348639 
L 332.980801 158.276162 
L 333.025793 158.068132 
L 332.550876 158.089637 
L 332.385603 158.344845 
L 331.95193 158.365823 
L 331.546479 158.385437 
L 331.921143 157.807017 
L 331.691914 157.820548 
L 323.309168 158.314786 
L 321.055002 158.431872 
L 319.035558 158.522315 
L 318.653848 158.5441 
L 318.605425 158.480661 
L 315.699249 158.586576 
L 315.483105 158.559773 
L 313.074173 158.262824 
L 312.625886 158.1687 
L 312.206215 158.080442 
L 312.076103 158.046192 
L 311.802537 157.959628 
L 311.221015 157.809021 
L 310.867262 157.717379 
L 310.422658 157.602231 
L 309.903668 157.465713 
L 309.675394 157.367061 
L 309.118816 157.118389 
L 307.659117 156.466248 
L 306.903047 156.128469 
L 306.8132 156.080538 
L 306.032788 155.653843 
L 302.371556 153.670686 
L 301.731185 153.324046 
L 301.677834 153.295163 
L 300.716492 152.774722 
L 300.45743 152.634452 
L 299.96871 152.369675 
L 299.475761 152.102776 
L 299.340962 152.259723 
L 298.047851 151.552608 
L 297.047392 151.005658 
L 294.665811 149.703308 
L 294.686159 149.680178 
L 292.231388 148.314536 
L 291.965229 148.166667 
L 291.901892 148.113116 
L 291.68745 147.930733 
L 291.630223 147.881398 
L 291.210901 147.733043 
L 291.031521 147.634795 
L 289.754179 146.935308 
L 289.737883 146.925863 
L 289.416603 146.738613 
L 287.873395 145.839124 
L 286.573423 145.121088 
L 286.535734 145.367676 
L 285.921151 145.059194 
L 284.27453 144.14568 
L 284.80053 143.824209 
L 283.103079 142.894811 
L 282.340176 142.477107 
L 281.630357 142.088493 
L 279.665932 141.012996 
L 279.361924 140.84655 
L 278.876105 140.580599 
L 277.611381 139.888152 
L 276.235717 139.058889 
L 275.553458 138.596007 
L 275.745378 138.375509 
L 275.492081 138.219021 
L 275.321262 138.106566 
L 274.291138 137.344818 
L 274.170579 137.237369 
L 273.157021 136.279925 
L 272.358255 135.484496 
L 271.838893 134.840576 
L 271.495398 134.414507 
L 271.290899 134.432561 
L 270.984191 134.459578 
L 270.902726 134.357444 
L 270.859324 134.286794 
L 270.47362 133.718695 
L 270.413467 133.612637 
L 270.70102 133.586971 
L 271.241182 133.538307 
L 271.132163 133.273142 
L 270.526991 131.799675 
L 270.272106 131.166574 
L 269.65521 129.667619 
L 268.910143 127.845753 
L 267.943323 125.486806 
L 267.768921 125.060792 
L 267.728647 124.962426 
L 267.516157 124.443978 
L 267.368294 124.083706 
L 265.004756 118.317048 
L 264.66164 117.582247 
L 264.285398 116.777502 
L 264.187352 116.56781 
L 264.074891 116.327433 
L 264.020588 116.351929 
L 263.799284 116.451718 
L 263.688785 116.50178 
L 263.644652 116.521761 
L 263.387793 116.638165 
L 263.362056 116.649846 
L 263.309528 116.673615 
L 263.219154 116.714567 
L 263.142738 116.752452 
L 261.944575 113.835296 
L 260.818388 111.093463 
L 258.90426 106.458737 
L 258.742027 106.530295 
L 258.648166 106.305157 
L 258.415053 105.74601 
L 258.342813 105.775367 
L 258.326465 105.7382 
L 258.253067 105.571335 
L 256.829965 102.336064 
L 255.479137 99.265205 
L 255.279012 98.816762 
L 255.047592 98.298194 
L 254.247142 96.643255 
L 254.003812 96.116451 
L 253.771965 95.57933 
L 253.650622 95.278269 
L 253.557645 95.047648 
L 253.358211 94.514245 
L 252.244757 91.370099 
L 252.213037 91.28055 
L 252.208682 91.267747 
L 251.971978 90.599925 
L 251.969347 90.589688 
L 250.553971 87.200502 
L 250.552594 87.197144 
L 249.904572 85.616731 
L 249.369653 84.450986 
L 249.276196 84.24726 
L 249.272729 84.239565 
L 249.100853 83.860218 
L 248.885906 83.385824 
L 248.529095 82.501068 
L 248.487088 82.396935 
L 248.413764 82.423554 
L 248.239133 81.946149 
L 248.054014 81.440231 
L 248.038097 81.387744 
L 247.934392 81.115328 
L 247.731801 80.550721 
L 247.810539 80.522178 
L 247.777226 80.426769 
L 247.754896 80.362853 
L 247.636381 80.023521 
L 246.696815 77.33392 
L 246.630913 77.362415 
L 246.605965 77.346385 
L 246.579748 77.332564 
L 246.552392 77.321078 
L 246.51656 77.310094 
L 246.479715 77.303108 
L 246.442368 77.300194 
L 246.404906 77.301386 
L 246.367797 77.306672 
L 246.33151 77.316041 
L 246.296467 77.329313 
L 246.263049 77.346349 
L 246.139745 77.418265 
L 245.647447 76.075094 
L 245.745633 76.019504 
L 245.936539 75.907983 
L 245.941877 75.78067 
L 245.938623 75.747797 
L 245.933287 75.71523 
L 245.925911 75.683011 
L 245.916544 75.651352 
L 245.837302 75.421518 
L 245.756113 75.192329 
L 245.672896 74.963915 
L 245.599533 74.762576 
L 245.524479 74.561875 
L 245.447776 74.361769 
L 245.369383 74.162344 
L 245.316382 74.03001 
L 245.262578 73.897994 
L 245.208098 73.766251 
L 245.152952 73.635208 
L 245.097046 73.504482 
L 245.040422 73.374072 
L 244.982954 73.244025 
L 244.924769 73.114336 
L 244.865908 72.98492 
L 244.805356 72.856142 
L 244.744044 72.727725 
L 244.682059 72.599665 
L 244.61978 72.471826 
L 244.556068 72.344663 
L 244.490965 72.218259 
L 244.425778 72.0919 
L 244.36038 71.965631 
L 244.294771 71.839453 
L 244.219172 71.696718 
L 244.14273 71.554429 
L 244.06553 71.412544 
L 243.781315 70.897881 
L 243.728004 70.925648 
L 243.713536 70.899496 
L 242.075696 67.939027 
L 239.784828 63.800838 
L 238.68208 61.80892 
L 237.71798 60.07115 
L 237.569164 59.802336 
L 234.525721 54.300682 
L 234.364618 54.021352 
L 234.103142 53.568 
L 234.028994 53.750336 
L 233.774869 54.461059 
L 233.699151 54.672452 
L 233.568039 54.893458 
L 232.994109 55.863288 
L 232.120625 56.855064 
L 231.433422 57.581566 
L 230.801872 58.169382 
L 229.808835 58.981209 
L 229.492639 59.239708 
L 226.675604 61.306625 
L 226.025128 61.85995 
L 224.963249 62.849682 
L 224.123937 64.025001 
L 224.046809 64.117621 
L 223.472873 64.803445 
L 223.451434 64.78088 
L 223.178223 65.162929 
L 222.849691 65.622338 
L 222.571946 66.011102 
L 222.175361 66.524769 
L 221.868495 66.922121 
L 221.672068 67.17647 
L 220.907184 68.251466 
L 220.455287 67.800086 
L 218.729314 65.595923 
L 218.597026 65.378867 
L 218.479653 65.186241 
L 218.170421 64.464594 
L 217.306914 63.525618 
L 216.9706 63.15994 
L 216.953375 63.170952 
L 216.404319 62.605961 
L 215.553679 63.256728 
L 214.096751 64.371379 
L 213.475265 64.702711 
L 211.95984 65.497993 
L 211.154278 65.920762 
L 210.303881 66.429057 
L 206.786261 68.531655 
L 206.184781 68.865606 
L 204.958561 69.48283 
L 204.051682 69.875196 
L 203.294083 70.208377 
L 202.448787 70.413106 
L 201.194052 70.504897 
L 200.887261 70.515992 
L 200.668892 70.520089 
L 199.967781 70.491783 
L 197.096385 70.375882 
L 196.8739 70.375509 
L 196.65144 70.379794 
L 196.429092 70.388692 
L 196.207025 70.402242 
L 195.98524 70.420401 
L 195.763906 70.443166 
L 195.54311 70.470575 
L 195.322893 70.502544 
L 195.105189 70.532615 
L 194.888147 70.567158 
L 194.671853 70.606171 
L 194.456433 70.64965 
L 194.241931 70.697594 
L 194.028472 70.749916 
L 193.901195 70.774776 
L 193.774686 70.803166 
L 193.648985 70.835041 
L 193.52422 70.870354 
L 193.400476 70.909105 
L 193.277837 70.951249 
L 193.156388 70.996783 
L 192.934295 71.069657 
L 192.713672 71.146897 
L 192.494647 71.228501 
L 192.277262 71.314468 
L 192.061643 71.404709 
L 191.847833 71.499223 
L 191.635915 71.597923 
L 191.412158 71.706268 
L 191.190552 71.818963 
L 190.971139 71.93588 
L 190.754002 72.057015 
L 190.53927 72.182366 
L 190.326981 72.311805 
L 190.117223 72.445328 
L 189.944368 72.552576 
L 189.773952 72.663697 
L 189.606058 72.778604 
L 189.440771 72.897252 
L 189.278175 73.019596 
L 189.118352 73.145549 
L 188.961387 73.275023 
L 188.928452 73.299579 
L 188.352078 73.874529 
L 187.890834 74.351467 
L 186.502721 75.786829 
L 181.473279 81.809624 
L 181.499987 81.811965 
L 181.526509 81.818804 
L 181.551558 81.829994 
L 181.574357 81.845171 
L 181.883657 82.059812 
L 182.124297 82.225082 
L 182.441204 82.443985 
L 182.746145 82.661895 
L 183.256872 83.018224 
L 183.595514 83.248913 
L 183.860704 83.358632 
L 184.307979 83.472378 
L 184.695141 83.672323 
L 184.827184 83.751686 
L 184.935812 83.816975 
L 185.047866 83.884323 
L 185.103266 83.917621 
L 185.354332 84.119397 
L 185.710681 84.318635 
L 186.066929 84.604248 
L 186.102631 84.642848 
L 186.028929 84.764105 
L 185.921303 85.102617 
L 186.375688 85.314085 
L 186.690909 85.460788 
L 186.836244 85.474379 
L 186.867546 85.445845 
L 187.845815 86.133837 
L 187.910755 86.08526 
L 187.996876 86.119511 
L 188.078787 86.156 
L 188.158719 86.198947 
L 188.236623 86.246217 
L 188.312498 86.29781 
L 188.384162 86.351641 
L 188.453849 86.411931 
L 188.521455 86.474407 
L 188.582719 86.539174 
L 188.631042 86.597841 
L 188.681394 86.652186 
L 188.733876 86.70648 
L 188.788439 86.758587 
L 188.847161 86.806319 
L 188.905832 86.851916 
L 189.019271 86.958163 
L 189.128499 87.066648 
L 189.235646 87.177319 
L 189.338633 87.292365 
L 189.43954 87.409598 
L 189.492227 87.472435 
L 189.547046 87.53522 
L 189.603893 87.593682 
L 189.66282 87.649958 
L 189.723827 87.704046 
L 189.789045 87.755896 
L 190.038647 87.937926 
L 190.082142 87.973205 
L 190.123558 88.01067 
L 190.162894 88.050323 
L 190.198019 88.092214 
L 190.290502 88.213924 
L 190.34989 88.289421 
L 190.411358 88.36273 
L 190.474906 88.433853 
L 190.542665 88.502737 
L 191.128119 89.262179 
L 191.319632 89.511853 
L 191.681406 90.280959 
L 191.887169 90.946981 
L 191.919517 91.050909 
L 192.154972 91.532444 
L 192.66456 92.330045 
L 192.801969 92.546833 
L 192.816344 92.61273 
L 192.83662 92.746865 
L 192.882255 93.049202 
L 192.943135 93.453742 
L 193.087007 93.76226 
L 193.12215 93.8939 
L 193.379401 94.751001 
L 193.459121 95.229878 
L 193.483986 95.466472 
L 193.555733 96.146407 
L 193.564277 96.23595 
L 193.537073 96.435335 
L 193.515238 96.591852 
L 193.489086 97.190807 
L 193.446192 97.802986 
L 193.200657 98.501246 
L 192.584832 99.496903 
L 192.36834 99.805553 
L 192.250299 99.951567 
L 192.127637 100.082734 
L 191.990007 100.212125 
L 191.677032 100.409847 
L 191.464865 100.54317 
L 191.297841 100.602753 
L 190.739719 100.714497 
L 190.576342 100.748349 
L 190.518988 101.06316 
L 190.419202 101.283866 
L 190.409796 101.318186 
L 190.404514 101.365785 
L 190.406915 101.404495 
L 190.418197 101.453118 
L 190.436082 101.497282 
L 190.446089 101.511615 
L 190.469521 101.561283 
L 190.52298 101.655054 
L 190.560216 101.712197 
L 190.832808 101.95242 
L 190.987822 102.138437 
L 191.235677 102.251943 
L 191.268816 102.272539 
L 191.312599 102.294204 
L 191.352599 102.311005 
L 191.396196 102.327453 
L 191.437697 102.340713 
L 191.481422 102.350594 
L 191.597517 102.38817 
L 191.704129 102.433088 
L 191.81244 102.481926 
L 191.907333 102.534759 
L 192.012923 102.599322 
L 192.104518 102.664516 
L 192.155742 102.71869 
L 192.207498 102.76725 
L 192.265417 102.81634 
L 192.324418 102.85813 
L 192.383403 102.896553 
L 192.445165 102.930473 
L 192.513646 102.96436 
L 192.582094 102.991513 
L 192.65277 103.016411 
L 192.727332 103.034555 
L 192.800763 103.050461 
L 192.872483 103.060203 
L 192.950349 103.067108 
L 193.032095 103.066139 
L 193.099831 103.062994 
L 193.17034 103.054225 
L 193.244748 103.041508 
L 193.324165 103.022594 
L 193.39955 102.997406 
L 193.489295 102.962297 
L 193.546618 102.945416 
L 193.63047 102.935039 
L 193.707769 102.939079 
L 193.777385 102.952007 
L 193.812761 102.961788 
L 194.182896 103.021895 
L 194.227016 103.01393 
L 194.292078 102.999223 
L 194.315206 102.988044 
L 194.332792 102.972467 
L 194.347039 102.951375 
L 194.354663 102.930317 
L 194.360056 102.904844 
L 194.420697 102.889052 
L 194.499023 102.877598 
L 194.556396 102.870673 
L 194.601653 102.869341 
L 194.720853 102.863215 
L 194.805798 102.850621 
L 194.964255 102.822625 
L 195.124579 102.795926 
L 195.228231 102.771069 
L 195.335101 102.727389 
L 195.425417 102.684897 
L 195.624225 102.585373 
L 195.857066 102.46037 
L 196.023325 102.371033 
L 196.115877 102.334063 
L 196.207358 102.303735 
L 196.297779 102.282264 
L 196.380494 102.265257 
L 196.756545 102.18262 
L 196.921979 102.149715 
L 197.077594 102.128422 
L 197.21767 102.112839 
L 197.531161 102.103534 
L 197.664091 102.093529 
L 197.885391 102.0719 
L 198.028815 102.052378 
L 198.051976 102.047837 
L 198.399657 102.066278 
L 198.508278 102.211226 
L 198.9007 102.221071 
L 199.493267 102.237788 
L 200.017142 102.248948 
L 200.356595 102.25906 
L 200.833376 102.26849 
L 201.107128 102.084289 
L 201.377235 101.902365 
L 201.50602 101.814928 
L 201.793447 101.618864 
L 202.141332 101.382032 
L 202.174563 101.350234 
L 202.199959 101.330033 
L 202.213828 101.311106 
L 202.301581 101.133645 
L 202.299484 101.077688 
L 203.046118 100.455312 
L 203.089011 100.413124 
L 203.119707 100.386547 
L 203.140442 100.368795 
L 203.191205 100.32844 
L 203.207511 100.317184 
L 203.223194 100.30635 
L 203.24459 100.291518 
L 203.250096 100.288045 
L 203.26381 100.279413 
L 203.297367 100.258255 
L 203.34533 100.220734 
L 203.383415 100.187752 
L 203.390991 100.181344 
L 203.433913 100.136015 
L 203.44593 100.121438 
L 203.458788 100.10832 
L 203.472378 100.09572 
L 203.488471 100.083317 
L 203.50218 100.073641 
L 203.504569 100.072167 
L 203.509558 100.069323 
L 203.514442 100.066479 
L 203.517767 100.064583 
L 203.521716 100.062265 
L 203.526601 100.05963 
L 203.531073 100.057728 
L 203.534195 100.056773 
L 203.539293 100.055077 
L 203.545436 100.053793 
L 203.644857 100.048435 
L 203.857516 99.992011 
L 204.03989 99.877107 
L 204.212405 99.681652 
L 204.582237 99.967747 
L 204.46904 100.111555 
L 204.415315 100.179808 
L 204.656149 100.377248 
L 204.737336 100.321147 
L 204.897151 100.210713 
L 204.897259 100.210639 
L 205.193036 100.439145 
L 206.017534 101.076125 
L 206.305486 101.298593 
L 204.527754 102.124368 
L 204.50953 102.129098 
L 204.486691 102.137126 
L 204.466851 102.145685 
L 204.450548 102.153408 
L 204.4386 102.160836 
L 204.429369 102.166614 
L 204.414438 102.176513 
L 204.39979 102.188595 
L 204.382162 102.203967 
L 204.365907 102.221515 
L 204.352099 102.238233 
L 204.341551 102.253296 
L 204.333348 102.266084 
L 204.328993 102.273011 
L 204.321518 102.287589 
L 204.311397 102.309521 
L 204.304025 102.330453 
L 204.298616 102.350588 
L 204.294413 102.376039 
L 204.290994 102.430243 
L 204.29516 102.479373 
L 204.31637 102.545623 
L 204.350893 102.606302 
L 204.408588 102.664654 
L 204.940346 103.037085 
L 205.221731 103.233734 
L 205.530819 103.451269 
L 206.95585 104.526264 
L 207.009843 104.455906 
L 206.984615 104.428197 
L 207.405494 103.84221 
L 207.892373 103.169112 
L 208.499839 103.021551 
L 208.826757 103.260176 
L 208.774686 103.332608 
L 208.066368 104.327485 
L 207.965113 104.4676 
L 207.791564 104.711564 
L 207.760666 104.699355 
L 207.700527 104.796249 
L 208.845585 105.668376 
L 209.386289 106.200814 
L 209.563515 106.373525 
L 209.980891 106.783692 
L 211.33464 108.882612 
L 211.317323 108.917716 
L 211.330695 108.978885 
L 211.651349 109.540329 
L 211.799557 109.81521 
L 211.954443 110.108744 
L 212.109383 110.413341 
L 212.236601 110.67059 
L 212.42774 111.081701 
L 212.550376 111.357172 
L 212.749998 111.821808 
L 213.091076 112.62775 
L 213.296974 113.115018 
L 213.910508 114.568603 
L 214.718927 116.48115 
L 215.360035 117.993872 
L 216.042169 119.609887 
L 216.907281 121.655602 
L 217.557657 123.192458 
L 217.515793 123.249319 
L 217.447456 123.357815 
L 217.40165 123.44972 
L 217.360999 123.544689 
L 217.332606 123.624147 
L 217.297254 123.752055 
L 215.367175 126.320308 
L 215.323141 126.353487 
L 215.282205 126.389742 
L 215.21575 126.462175 
L 215.166727 126.526282 
L 215.113719 126.616162 
L 215.078177 126.704025 
L 215.055883 126.769933 
L 215.040822 126.843146 
L 215.032951 126.915293 
L 215.031342 127.006981 
L 215.041039 127.098615 
L 215.065165 127.198419 
L 215.087084 127.267329 
L 215.122425 127.348536 
L 215.16297 127.414319 
L 215.177433 127.437482 
L 215.226304 127.499199 
L 215.286209 127.559757 
L 215.346054 127.608144 
L 215.413626 127.656494 
L 215.494417 127.699247 
L 215.577362 127.730926 
L 215.654734 127.751569 
L 215.72433 127.762292 
L 215.786211 127.775266 
L 215.829369 127.797182 
L 215.859291 127.821376 
L 215.897037 127.865446 
L 215.919319 127.907379 
L 215.93389 127.952669 
L 215.938574 128.007965 
L 215.934347 128.046708 
L 215.924617 128.088798 
L 215.891292 128.272618 
L 215.88154 128.310282 
L 215.875617 128.365703 
L 215.873135 128.397726 
L 215.878094 128.452221 
L 215.893911 128.534554 
L 215.897457 128.632157 
L 215.892427 128.651995 
L 215.890021 128.691938 
L 215.889014 128.711857 
L 215.884722 128.737325 
L 215.877162 128.771659 
L 215.866248 128.797159 
L 215.838861 128.840441 
L 215.808105 128.87157 
L 215.780627 128.896044 
L 215.744005 128.942865 
L 215.721418 128.978205 
L 215.705137 129.026844 
L 215.680163 129.108104 
L 215.645349 129.225297 
L 215.61056 129.334998 
L 215.583394 129.42364 
L 215.545256 129.542687 
L 215.429008 129.908984 
L 215.33109 130.202651 
L 215.273308 130.351187 
L 215.130638 130.723174 
L 215.031392 130.996277 
L 214.932307 131.276673 
L 214.901869 131.373076 
L 214.872577 131.478324 
L 214.839888 131.565887 
L 214.762518 131.77205 
L 214.696722 131.906216 
L 214.647101 131.990031 
L 214.57537 132.102664 
L 214.504899 132.239774 
L 214.403756 132.449798 
L 214.320928 132.668158 
L 214.269733 132.808917 
L 214.201645 133.029969 
L 214.110174 133.348709 
L 214.015656 133.675342 
L 213.899548 134.086373 
L 213.835518 134.311279 
L 213.76605 134.552808 
L 213.691133 134.808746 
L 213.64444 135.005857 
L 213.614338 135.132182 
L 213.588586 135.283881 
L 213.565138 135.455483 
L 213.549353 135.613771 
L 213.544568 135.873549 
L 213.553848 136.082849 
L 213.570397 136.307361 
L 213.629754 136.738016 
L 213.670521 136.919798 
L 213.722256 137.116479 
L 213.787156 137.296499 
L 213.859777 137.475375 
L 214.006865 137.758991 
L 214.054749 137.845053 
L 214.14734 138.044853 
L 214.171899 138.101157 
L 214.201971 138.156328 
L 214.234224 138.205957 
L 214.269788 138.255569 
L 214.333049 138.326067 
L 214.399585 138.388804 
L 214.443025 138.422064 
L 214.583406 138.528353 
L 214.940347 138.680657 
L 215.196751 138.745709 
L 215.44452 138.774086 
L 215.573786 138.78799 
L 216.285963 138.854943 
L 216.173251 140.004848 
L 215.796938 139.979323 
L 215.450325 139.955813 
L 215.342294 139.985107 
L 214.859519 140.127978 
L 214.639183 140.215353 
L 214.305393 140.351964 
L 214.049822 140.457214 
L 213.957288 140.495284 
L 213.893479 140.538745 
L 213.801219 140.633238 
L 213.708045 140.731704 
L 213.622263 140.831048 
L 213.546072 140.939779 
L 213.49519 141.029711 
L 213.408876 141.211578 
L 213.280104 141.514248 
L 213.210304 141.687184 
L 213.140753 141.911011 
L 213.050106 142.109496 
L 212.956234 142.325698 
L 212.921372 142.41991 
L 212.853298 142.629528 
L 212.817019 142.75012 
L 212.770901 142.983013 
L 212.707723 143.424434 
L 212.658672 143.777607 
L 212.61004 144.136143 
L 212.574197 144.335631 
L 212.523356 144.688147 
L 212.492307 144.971088 
L 212.482118 145.144838 
L 212.395061 145.852235 
L 212.297651 147.15159 
L 212.263437 147.604263 
L 212.263739 147.666218 
L 212.261888 147.739248 
L 212.292696 148.069098 
L 212.322789 148.476401 
L 212.355622 148.851795 
L 212.378383 148.992192 
L 212.487649 149.443055 
L 212.683728 150.267444 
L 212.707366 150.36137 
L 212.754451 150.510499 
L 212.810421 150.670648 
L 212.932228 150.977621 
L 213.017046 151.168607 
L 213.100669 151.3408 
L 213.137469 151.418065 
L 213.239918 151.603431 
L 213.321202 151.749073 
L 213.42358 151.920057 
L 213.528117 152.081073 
L 213.713893 152.353465 
L 213.851601 152.551905 
L 213.978341 152.739365 
L 214.191877 153.071334 
L 214.365422 153.353304 
L 214.414376 153.430919 
L 214.501053 153.551088 
L 214.598772 153.672309 
L 214.748581 153.83753 
L 214.963637 154.028984 
L 214.995806 154.062018 
L 215.075747 154.158987 
L 215.114668 154.22074 
L 215.146982 154.283645 
L 215.210405 154.386238 
L 215.288138 154.485418 
L 215.342062 154.541269 
L 215.415753 154.626408 
L 215.460191 154.688247 
L 215.492431 154.73335 
L 215.558061 154.838134 
L 215.619367 154.961746 
L 215.72199 155.18936 
L 215.807165 155.406764 
L 215.869396 155.590905 
L 215.823383 156.060458 
L 215.817175 156.82609 
L 215.749424 156.965823 
L 215.730307 157.001724 
L 215.680595 157.079846 
L 215.622701 157.156984 
L 215.423172 157.32909 
L 215.400782 157.349695 
L 215.300361 157.406034 
L 215.168979 157.454583 
L 215.034535 157.504171 
L 214.89866 157.522257 
L 214.884349 157.522327 
L 214.517992 157.444191 
L 214.427247 157.313179 
L 214.288072 157.165552 
L 214.276309 157.147177 
L 214.266939 157.137096 
L 214.255774 157.128832 
L 214.240358 157.118687 
L 214.224329 157.111751 
L 214.205584 157.108584 
L 214.072939 157.124518 
L 214.047923 157.11963 
L 214.009875 157.10729 
L 213.990822 157.096657 
L 213.402404 156.834315 
L 213.408525 156.797659 
L 213.065265 156.684411 
L 213.035323 156.745181 
L 212.857396 156.689219 
L 212.844396 156.60719 
L 212.511003 156.579897 
L 212.510404 156.616515 
L 212.389563 156.60942 
L 212.380746 156.510889 
L 211.803192 156.508734 
L 211.801178 156.612308 
L 211.652231 156.61557 
L 211.656761 156.50457 
L 211.171187 156.493494 
L 211.189527 156.752975 
L 211.031956 156.763993 
L 211.021396 156.601823 
L 210.640572 156.603865 
L 210.604866 156.486834 
L 210.207415 156.515579 
L 210.234103 156.869117 
L 209.957078 156.88803 
L 209.26521 156.935463 
L 208.628088 156.978924 
L 207.228698 157.07466 
L 205.669088 157.054537 
L 204.247654 157.036434 
L 203.781593 156.503597 
L 203.689777 156.395898 
L 203.620735 156.319232 
L 203.395954 156.061597 
L 203.413289 155.946047 
L 203.417326 155.917311 
L 203.418425 155.898161 
L 203.41679 155.869154 
L 203.410356 155.835085 
L 203.398248 155.800446 
L 203.384989 155.774188 
L 203.373559 155.755998 
L 203.340141 155.696337 
L 203.309675 155.630081 
L 203.292686 155.587033 
L 203.282184 155.562016 
L 203.259451 155.490636 
L 203.241209 155.422226 
L 203.228551 155.356227 
L 203.210681 155.282983 
L 203.188885 155.219974 
L 203.164419 155.16027 
L 203.133083 155.099103 
L 203.097874 155.039452 
L 203.056412 154.982523 
L 203.013928 154.930236 
L 202.992933 154.908803 
L 202.934738 154.84747 
L 202.899502 154.804673 
L 202.870475 154.765827 
L 202.749703 154.576816 
L 202.676813 154.465264 
L 202.601044 154.350175 
L 202.579614 154.322538 
L 202.505557 154.230398 
L 202.402245 154.12513 
L 202.35426 154.105794 
L 202.292134 154.179843 
L 202.198139 154.099706 
L 202.262679 153.995289 
L 201.985169 153.864498 
L 201.974641 153.878373 
L 201.958896 153.89378 
L 201.9342 153.911875 
L 201.904742 153.926823 
L 201.877898 153.935448 
L 201.850491 153.940307 
L 201.82782 153.941476 
L 201.803028 153.940013 
L 201.779801 153.935371 
L 201.752332 153.925992 
L 201.729072 153.914478 
L 201.704201 153.897157 
L 201.69308 153.887697 
L 201.676677 153.876678 
L 201.648658 153.862544 
L 201.614315 153.849499 
L 201.577365 153.842282 
L 201.550982 153.839241 
L 201.505067 153.832068 
L 201.454398 153.823333 
L 201.316062 153.789131 
L 201.285424 153.77871 
L 201.251606 153.765134 
L 201.228637 153.753318 
L 201.196079 153.733693 
L 201.170148 153.71532 
L 201.025638 153.605557 
L 200.994935 153.581922 
L 200.984861 153.570871 
L 200.964738 153.554055 
L 200.938823 153.538854 
L 200.919797 153.530491 
L 200.899724 153.523718 
L 200.873325 153.517506 
L 200.852221 153.515496 
L 200.827966 153.516145 
L 200.796876 153.521057 
L 200.777393 153.526968 
L 200.756339 153.535002 
L 200.74161 153.542476 
L 200.679052 153.582432 
L 200.631998 153.61735 
L 200.592364 153.64841 
L 200.557708 153.678713 
L 200.504176 153.758175 
L 200.451689 153.84558 
L 200.372955 153.976057 
L 200.172463 154.369933 
L 200.131494 154.461654 
L 199.988048 154.412437 
L 200.026802 154.347398 
L 200.011253 154.295671 
L 200.000463 154.246564 
L 199.996581 154.207994 
L 199.994177 154.148273 
L 200.000421 154.131327 
L 200.001353 154.106477 
L 199.999183 154.09433 
L 199.993299 154.077444 
L 199.983188 154.058993 
L 199.973114 154.047942 
L 199.959356 154.038495 
L 199.938218 154.029614 
L 199.862751 154.018359 
L 199.791539 154.014484 
L 199.715064 154.012749 
L 199.654968 154.017277 
L 199.588557 154.024478 
L 199.518486 154.038042 
L 199.484256 154.047727 
L 199.451064 154.054235 
L 199.417871 154.060215 
L 199.377808 154.063585 
L 199.337198 154.06273 
L 199.273402 154.057296 
L 199.123854 154.028978 
L 198.964826 154.001136 
L 198.929113 153.999524 
L 198.89697 153.997894 
L 198.824594 154.005219 
L 198.780527 154.011753 
L 198.679901 154.046354 
L 198.629622 154.0706 
L 198.572571 154.1033 
L 198.535206 154.128539 
L 198.46013 154.192688 
L 198.3923 154.234704 
L 198.339495 154.263727 
L 198.260275 154.289668 
L 198.130776 154.345883 
L 198.012686 154.415934 
L 197.908474 154.489705 
L 197.757638 154.562445 
L 197.661094 154.605556 
L 197.605816 154.625489 
L 197.505642 154.64704 
L 197.375355 154.649382 
L 197.311253 154.639276 
L 197.271969 154.637682 
L 197.205978 154.650537 
L 197.154286 154.6669 
L 197.116955 154.691932 
L 197.060015 154.737161 
L 196.997922 154.81621 
L 196.948944 154.858218 
L 196.909016 154.888233 
L 196.819923 154.922678 
L 196.716307 154.950311 
L 196.596688 154.966062 
L 196.571981 154.965072 
L 196.536294 154.968829 
L 196.48466 154.988091 
L 196.427644 155.019477 
L 196.398516 155.049964 
L 196.322984 155.138517 
L 196.239485 155.236948 
L 196.152311 155.298226 
L 195.943884 155.388742 
L 195.740223 155.458767 
L 195.511279 155.522584 
L 195.344885 155.559944 
L 195.057589 155.602054 
L 194.931755 155.626274 
L 194.81636 155.659235 
L 194.673257 155.69651 
L 194.270313 155.870878 
L 194.221923 155.912717 
L 194.179729 155.991457 
L 194.140728 156.099234 
L 194.07385 156.292837 
L 194.047348 156.348444 
L 193.994429 156.449388 
L 193.910892 156.551343 
L 193.823835 156.635885 
L 193.532944 156.900865 
L 193.443491 156.977796 
L 193.400824 157.0138 
L 193.343991 157.073138 
L 193.263411 157.184249 
L 193.168033 157.38842 
L 193.05696 157.579612 
L 192.904341 157.694513 
L 192.766003 157.745589 
L 192.583584 157.812436 
L 192.483836 157.857673 
L 192.364584 157.929851 
L 192.26321 158.007308 
L 192.184089 158.077543 
L 192.078405 158.180027 
L 192.014539 158.260876 
L 191.867953 158.418615 
L 191.771233 158.516207 
L 191.720137 158.555151 
L 191.501603 158.658108 
L 191.40234 158.517772 
L 190.678435 159.153169 
L 188.822496 160.792055 
L 188.783204 160.751989 
L 187.508608 161.895441 
L 187.541256 161.935737 
L 186.990282 162.436008 
L 186.622007 162.766904 
L 186.421511 162.944751 
L 185.69097 163.607257 
L 184.435762 164.73912 
L 184.212723 164.938715 
L 184.155317 164.901925 
L 183.765133 165.256007 
L 183.811439 165.317255 
L 183.343879 165.713467 
L 183.31969 166.084417 
L 183.30178 166.215819 
L 183.289465 166.290875 
L 183.310424 166.314273 
L 183.297684 166.531144 
L 183.276311 166.896316 
L 183.256498 167.216742 
L 183.23587 167.549871 
L 183.129596 167.541287 
L 183.079648 167.548697 
L 183.037994 167.571761 
L 183.006701 167.597383 
L 182.983675 167.63329 
L 182.953615 167.690706 
L 182.923493 167.735597 
L 182.898645 167.764355 
L 182.855955 167.794992 
L 182.738596 167.886851 
L 182.641472 167.981151 
L 182.61778 168.00947 
L 182.550391 168.090018 
L 182.456544 168.242602 
L 182.391143 168.371778 
L 182.320296 168.483087 
L 182.279514 168.528774 
L 182.242183 168.569379 
L 182.156867 168.643181 
L 182.054473 168.706324 
L 181.907636 168.780444 
L 181.76147 168.876311 
L 181.604602 169.00747 
L 181.509464 169.118888 
L 181.301904 169.377629 
L 181.231702 169.450692 
L 181.159834 169.525089 
L 181.015935 169.66361 
L 180.84274 169.807818 
L 180.748136 169.887336 
L 180.635156 169.970779 
L 180.523391 170.049061 
L 180.352119 170.152402 
L 180.102777 170.299905 
L 179.884669 170.442028 
L 179.627644 170.615686 
L 179.300444 170.844696 
L 178.994043 171.018449 
L 178.412821 171.475789 
L 178.317082 171.58713 
L 178.267838 171.654104 
L 177.954377 172.000407 
L 177.788595 172.186661 
L 177.552055 172.456387 
L 177.384076 172.637839 
L 177.089225 172.97626 
L 176.744878 173.395843 
L 176.597143 173.551096 
L 176.479199 173.682766 
L 176.339859 173.854793 
L 176.292618 173.896295 
L 176.255296 173.937873 
L 176.176928 174.02669 
L 176.050686 174.177584 
L 175.999644 174.223241 
L 175.929373 174.277401 
L 175.817087 174.345905 
L 175.696585 174.411025 
L 175.554649 174.477812 
L 175.380462 174.546596 
L 174.579518 174.822261 
L 173.945014 175.042242 
L 173.791112 175.001242 
L 173.706516 175.006249 
L 173.619266 175.017786 
L 173.503516 175.046654 
L 173.403282 175.063281 
L 173.289016 175.06265 
L 173.187571 174.921309 
L 172.684223 175.162392 
L 172.327402 175.333295 
L 172.012018 175.484353 
L 171.989051 175.442224 
L 171.927615 175.468679 
L 171.890521 175.413638 
L 171.838783 175.436797 
L 171.808154 175.476827 
L 171.778951 175.510701 
L 171.324776 175.845994 
L 171.09513 176.021028 
L 170.900245 176.159803 
L 169.971179 176.851363 
L 169.720429 177.231307 
L 169.257753 177.941379 
L 169.092449 178.219039 
L 168.715565 178.894725 
L 168.516202 179.282782 
L 168.434599 179.478519 
L 168.404178 179.643197 
L 168.227036 180.153339 
L 168.260979 180.168834 
L 168.261311 180.234119 
L 168.347551 180.288518 
L 168.316831 180.393149 
L 168.269201 180.46539 
L 168.163145 180.393936 
L 168.095831 180.475235 
L 168.080494 180.532766 
L 168.031461 180.624403 
L 167.953096 180.580424 
L 167.832887 180.505307 
L 167.647055 180.843137 
L 167.546664 181.078682 
L 167.359186 181.604545 
L 167.7924 181.761625 
L 167.725698 181.963048 
L 167.689843 182.083359 
L 167.58374 182.731543 
L 167.581455 182.79423 
L 167.59214 182.846404 
L 167.417444 182.81335 
L 167.359064 183.113967 
L 167.591132 183.159784 
L 167.605128 183.350349 
L 167.593102 183.546269 
L 167.557393 183.695305 
L 167.516301 183.81042 
L 167.439036 183.983172 
L 167.405812 184.108692 
L 167.390742 184.21845 
L 167.386052 184.320321 
L 167.399448 184.393373 
L 167.417988 184.453342 
L 167.413311 184.557824 
L 166.717204 184.438652 
L 166.631131 184.927436 
L 166.758899 184.952895 
L 166.733744 185.127992 
L 167.244748 185.216774 
L 167.369871 185.234413 
L 167.391016 185.294368 
L 167.393913 185.351806 
L 167.373435 185.42242 
L 167.345341 185.532245 
L 167.317434 185.678629 
L 167.241047 186.023733 
L 167.027269 185.988268 
L 166.989289 186.202602 
L 167.208277 186.23804 
L 167.205911 186.285058 
L 167.263869 186.412723 
L 167.259218 186.522428 
L 167.236121 186.590444 
L 167.106508 186.713847 
L 167.072913 186.766248 
L 167.049803 186.831653 
L 167.024727 187.022417 
L 167.002429 187.247117 
L 166.982256 187.377793 
L 166.974855 187.458786 
L 166.91653 187.769848 
L 166.866019 188.08087 
L 166.848678 188.255927 
L 166.844281 188.415248 
L 166.852708 188.535332 
L 166.866304 188.647555 
L 166.848457 188.723379 
L 166.738858 188.684768 
L 166.415243 188.563689 
L 166.333064 188.793919 
L 166.171263 188.734685 
L 165.901896 189.545618 
L 166.332463 189.697485 
L 166.289329 189.922292 
L 166.223431 190.280399 
L 166.177292 190.426877 
L 166.068693 190.584122 
L 166.004481 190.76203 
L 165.956111 190.981641 
L 165.843289 191.332154 
L 165.846115 191.885769 
L 165.810262 192.00608 
L 165.738263 192.189251 
L 165.58871 192.487724 
L 165.444701 192.851456 
L 165.314181 193.306519 
L 165.297642 193.638259 
L 165.338632 194.014098 
L 165.316337 194.238798 
L 165.228898 194.458609 
L 165.079734 194.832813 
L 164.900315 195.403032 
L 164.764029 195.748444 
L 164.562721 196.11247 
L 164.294239 196.583912 
L 164.183694 196.869129 
L 164.101934 197.180312 
L 164.029845 197.345204 
L 163.893121 197.604441 
L 163.794893 197.751188 
L 163.551567 198.047533 
L 163.147463 198.992347 
L 162.941058 199.377293 
L 162.760246 199.673318 
L 162.31816 200.320623 
L 161.460672 201.737836 
L 161.310958 202.002365 
L 161.262301 202.164526 
L 161.242053 202.279534 
L 161.239837 202.355278 
L 161.250804 202.462291 
L 161.248778 202.831588 
L 161.204348 202.976841 
L 160.786882 203.838287 
L 160.643606 204.143844 
L 160.637697 204.466667 
L 160.744982 204.656301 
L 160.862197 204.827286 
L 160.993369 205.085521 
L 161.022996 205.276005 
L 161.023626 205.39874 
L 160.993268 205.573864 
L 160.972807 205.64709 
L 160.875146 205.903517 
L 160.808955 206.201564 
L 160.799367 206.363524 
L 160.731616 206.865273 
L 160.667547 207.069297 
L 160.561941 207.29965 
L 160.520938 207.430434 
L 160.523944 207.508762 
L 160.576369 207.573778 
L 160.644234 207.602155 
L 160.711844 207.580914 
L 160.755866 207.53107 
L 160.833198 207.373984 
L 160.886755 207.151734 
L 160.891509 207.06292 
L 160.898894 206.979315 
L 160.892828 206.812213 
L 160.870867 206.592964 
L 160.867486 206.441516 
L 160.890204 206.300381 
L 160.933651 206.138246 
L 161.023605 205.902752 
L 161.027609 205.6677 
L 161.071176 205.529068 
L 161.159276 205.439824 
L 161.255777 205.465442 
L 161.303127 205.556599 
L 161.32569 205.893361 
L 161.286547 206.387128 
L 161.273208 206.833756 
L 161.219309 207.497344 
L 161.143355 207.923403 
L 160.891072 208.501835 
L 160.761811 208.690526 
L 160.697636 208.873659 
L 160.680342 209.05655 
L 160.639728 209.263065 
L 160.508413 209.558837 
L 160.397397 209.750046 
L 160.068946 210.203522 
L 159.918436 210.311368 
L 159.728778 210.403748 
L 159.536395 210.472638 
L 159.336146 210.531124 
L 159.131009 210.65231 
L 158.967679 210.799395 
L 158.783419 210.928308 
L 158.521105 211.073293 
L 158.266445 211.186901 
L 158.027519 211.32132 
L 157.892892 211.478703 
L 157.841555 211.62521 
L 157.860806 211.823581 
L 157.913835 212.006109 
L 157.935315 212.131348 
L 157.92585 212.316811 
L 157.846455 212.578367 
L 157.730034 212.730433 
L 157.595274 212.861703 
L 157.405781 212.985421 
L 157.464435 213.248875 
L 157.470409 213.397698 
L 157.479257 213.598734 
L 157.436016 213.80004 
L 157.306828 214.00179 
L 157.20829 214.085867 
L 157.101925 214.167372 
L 156.901921 214.272865 
L 156.881077 214.591097 
L 156.872885 214.703906 
L 156.860629 214.852822 
L 156.856038 214.972973 
L 156.838506 215.10886 
L 156.818303 215.231703 
L 156.778003 215.49828 
L 156.657947 215.955907 
L 156.498948 216.437238 
L 156.308709 216.921342 
L 156.169524 217.2041 
L 156.092186 217.358577 
L 155.80266 217.780521 
L 155.681075 217.940449 
L 155.47411 218.210502 
L 155.448201 218.236751 
L 155.313446 218.368022 
L 155.168328 218.509792 
L 155.111287 218.559706 
L 154.713518 218.697563 
L 154.388026 218.709697 
L 154.015237 218.64112 
L 153.650463 218.611675 
L 153.364225 218.660167 
L 153.002919 218.797839 
L 152.698787 218.911711 
L 152.365685 218.963059 
L 151.868655 219.043985 
L 151.611161 219.11061 
L 151.410949 219.174326 
L 151.185179 219.332188 
L 150.96238 219.560544 
L 150.770495 219.723452 
L 150.518764 219.897118 
L 150.331791 220.00255 
L 150.240855 220.044807 
L 149.962798 220.16377 
L 149.780994 220.261341 
L 149.531923 220.44544 
L 149.18668 220.765184 
L 148.889127 221.028032 
L 148.611712 221.285902 
L 148.383356 221.446392 
L 148.090069 221.641169 
L 147.423052 222.088554 
L 146.810689 222.525297 
L 146.673165 222.626529 
L 146.087853 222.932525 
L 145.689954 223.086074 
L 145.462359 223.169538 
L 144.702715 223.330199 
L 143.880785 223.532972 
L 143.567882 223.596281 
L 143.557757 223.554121 
L 143.216066 223.56336 
L 143.000602 223.559523 
L 142.747967 223.550915 
L 142.618507 223.53517 
L 142.56699 223.512134 
L 142.450202 223.43577 
L 142.397656 223.331755 
L 142.399394 223.190209 
L 142.435814 223.050965 
L 142.430486 222.978983 
L 142.315928 222.855428 
L 142.112262 222.73979 
L 142.032644 222.668198 
L 141.947789 222.542005 
L 141.821005 222.448312 
L 141.783704 222.418711 
L 141.608844 222.456849 
L 141.573438 222.462027 
L 141.724388 222.915642 
L 141.30169 223.06188 
L 141.19884 222.809144 
L 141.048031 222.857114 
L 140.947656 222.604365 
L 140.710293 222.675138 
L 140.51001 222.733301 
L 140.164403 222.941214 
L 139.986991 223.110997 
L 139.792311 223.293286 
L 139.736031 223.422704 
L 139.679751 223.552121 
L 139.618583 223.693979 
L 139.586741 223.76119 
L 139.362684 224.008195 
L 139.1184 224.175847 
L 138.918314 224.271257 
L 138.692984 224.274926 
L 138.586153 224.208444 
L 138.474213 224.112192 
L 138.441566 224.025455 
L 138.413885 223.941176 
L 138.376624 223.919024 
L 138.342046 223.936588 
L 138.211842 224.135921 
L 137.946305 224.417563 
L 137.817807 224.552673 
L 137.706998 224.672445 
L 137.746787 224.704516 
L 137.831241 224.753734 
L 137.873611 224.805656 
L 137.936077 224.9121 
L 137.985941 224.976398 
L 138.105388 225.087509 
L 138.072072 225.345927 
L 138.163571 225.794887 
L 138.217054 226.077679 
L 138.260528 226.340659 
L 138.317307 226.779869 
L 138.346833 227.216739 
L 138.383762 227.648605 
L 138.355398 227.906997 
L 138.242842 228.165832 
L 138.11268 228.372614 
L 138.01454 228.546948 
L 138.003602 228.82263 
L 137.986892 228.941907 
L 137.943217 229.113471 
L 137.908875 229.175729 
L 137.786077 229.370057 
L 137.683116 229.569248 
L 137.633929 229.634067 
L 137.596968 229.669025 
L 137.530253 229.696691 
L 137.480741 229.699435 
L 137.438775 229.724487 
L 137.36016 229.84409 
L 137.313398 229.898964 
L 137.229519 229.959001 
L 137.076435 230.044233 
L 137.019599 230.06688 
L 136.856364 230.10746 
L 136.705431 230.130603 
L 136.539732 230.171206 
L 136.431078 230.22889 
L 136.332459 230.311352 
L 136.273537 230.408504 
L 136.173093 230.615131 
L 136.131336 230.679912 
L 136.082098 230.7348 
L 135.924336 230.86973 
L 135.771319 230.967378 
L 135.561466 231.087674 
L 135.282266 231.205853 
L 135.136352 231.241386 
L 134.908671 231.267419 
L 134.715553 231.273405 
L 134.586738 231.264153 
L 134.338934 231.230698 
L 133.9647 231.170598 
L 133.677277 231.137353 
L 133.429577 231.126237 
L 133.440239 231.2702 
L 132.538938 231.282416 
L 132.520056 231.458816 
L 132.36414 231.417689 
L 132.360925 231.335503 
L 132.193845 231.334483 
L 132.200117 231.182536 
L 131.871876 231.157017 
L 131.800129 231.093396 
L 131.64432 231.078758 
L 131.624921 231.257574 
L 131.328583 231.246411 
L 131.109825 231.225421 
L 130.993521 231.240936 
L 130.921803 231.258698 
L 130.845184 231.286418 
L 130.4168 231.288688 
L 126.804101 231.325251 
L 125.980605 231.435768 
L 125.945506 231.523052 
L 125.788503 231.54954 
L 125.69838 231.417647 
L 125.483042 231.473878 
L 125.438293 231.485839 
L 125.448428 231.560027 
L 125.275421 231.635191 
L 124.991587 231.753928 
L 125.005681 231.839817 
L 124.905451 231.916404 
L 124.426634 232.214444 
L 124.464865 232.364349 
L 124.315166 232.425713 
L 124.259972 232.304875 
L 123.629416 232.707866 
L 123.278218 232.789199 
L 122.532035 233.092247 
L 122.333187 232.700042 
L 122.151662 232.638492 
L 120.699576 233.087592 
L 120.681814 233.080675 
L 120.569562 233.109061 
L 120.501826 233.127811 
L 120.457413 233.141718 
L 120.349576 233.176407 
L 120.197327 233.225003 
L 120.100242 233.263703 
L 120.024299 233.295475 
L 119.910644 233.353812 
L 119.879425 233.384492 
L 119.677827 233.594561 
L 119.354262 233.959331 
L 119.157755 234.203467 
L 119.131627 234.1806 
L 119.125394 234.187163 
L 119.108719 234.202529 
L 119.094123 234.215707 
L 119.054853 234.265815 
L 119.040308 234.281129 
L 119.027841 234.294255 
L 118.928367 234.409942 
L 118.915901 234.423069 
L 118.801882 234.554069 
L 118.772897 234.588968 
L 118.737627 234.628295 
L 118.776948 234.667934 
L 118.709057 234.767891 
L 118.667554 234.726168 
L 118.498785 235.059375 
L 118.465852 235.107192 
L 118.363891 235.169318 
L 118.071741 235.553817 
L 117.19237 236.523683 
L 117.172877 236.521834 
L 117.149518 236.525867 
L 117.126202 236.537714 
L 117.114637 236.561221 
L 117.110887 236.588594 
L 117.118815 236.61395 
L 116.890806 236.968801 
L 116.87546 237.01382 
L 116.858269 237.078386 
L 116.831327 237.14105 
L 116.808261 237.199786 
L 116.796759 237.235015 
L 116.773755 237.305474 
L 116.632979 237.699823 
L 116.459984 238.046723 
L 116.389488 238.31164 
L 116.330613 238.530493 
L 116.256115 238.807423 
L 116.13419 239.260652 
L 116.113295 239.338327 
L 116.089502 239.421146 
L 116.050493 239.543758 
L 116.01269 239.657388 
L 115.825387 240.220393 
L 115.79636 240.357804 
L 115.762677 240.481658 
L 115.715062 240.627503 
L 115.61831 240.854448 
L 115.557698 240.977451 
L 115.508129 241.049729 
L 115.461573 241.10164 
L 115.42261 241.136209 
L 115.377627 241.167841 
L 115.346033 241.199839 
L 115.331155 241.235407 
L 115.331364 241.274543 
L 115.348879 241.338633 
L 115.380497 241.387607 
L 114.972402 241.836114 
L 114.904265 241.796414 
L 114.773731 241.917055 
L 114.822558 242.000226 
L 114.700889 242.102345 
L 114.744241 242.159914 
L 114.522882 242.379041 
L 114.432538 242.327984 
L 113.640502 242.990009 
L 113.584439 243.015358 
L 113.517523 243.054855 
L 113.459999 243.098999 
L 113.377674 243.17615 
L 113.32092 243.253101 
L 113.2926 243.297739 
L 113.259037 243.340197 
L 113.182273 243.418286 
L 113.134536 243.4511 
L 113.006452 243.56419 
L 112.867011 243.687307 
L 112.801917 243.971919 
L 112.349524 245.94996 
L 112.25668 246.027437 
L 112.242683 246.028789 
L 112.143997 246.038322 
L 112.103461 246.124192 
L 111.458489 246.338585 
L 111.213353 246.416778 
L 111.033237 246.437156 
L 110.870111 246.510831 
L 110.717332 246.549226 
L 110.589363 246.556335 
L 110.432455 246.552329 
L 110.281055 246.667188 
L 109.680211 247.162196 
L 109.434206 247.367207 
L 108.39627 247.998357 
L 108.326933 247.940735 
L 107.981068 248.250039 
L 107.75055 248.583612 
L 107.539867 248.793741 
L 106.575457 248.646925 
L 106.421858 248.764835 
L 106.297722 248.796178 
L 106.171989 248.749872 
L 106.041952 248.711193 
L 105.874371 248.748152 
L 105.546659 248.700009 
L 105.252679 248.656822 
L 105.104173 248.668605 
L 104.55308 248.570816 
L 104.267908 248.570145 
L 104.238208 248.533079 
L 104.160824 248.452143 
L 103.889679 248.271921 
L 103.856852 248.247692 
L 103.598444 248.059018 
L 103.406881 247.911893 
L 103.206827 247.694798 
L 102.897273 247.595155 
L 102.866341 247.604749 
L 102.61109 247.482346 
L 102.692515 247.41625 
L 102.711552 247.339873 
L 102.671146 247.316198 
L 102.531201 247.363677 
L 102.334108 247.376089 
L 102.149277 247.337649 
L 101.876931 247.254323 
L 101.864343 247.245023 
L 101.853976 247.239284 
L 101.835051 247.229522 
L 101.818745 247.223083 
L 101.810683 247.220361 
L 101.801753 247.217751 
L 101.7892 247.214861 
L 101.781057 247.213719 
L 101.763349 247.211912 
L 101.756274 247.211627 
L 101.743224 247.211748 
L 101.730157 247.212715 
L 101.718645 247.214276 
L 101.706161 247.21674 
L 101.693287 247.220151 
L 101.678806 247.221092 
L 101.659354 247.220448 
L 101.634754 247.216447 
L 101.611035 247.208981 
L 101.579666 247.192705 
L 101.122221 246.929546 
L 100.90615 246.743116 
L 100.678401 246.626204 
L 100.452503 246.442698 
L 99.909842 246.001874 
L 99.756612 245.831736 
L 99.562004 245.615656 
L 99.445593 245.427317 
L 99.3383 245.266591 
L 99.187437 245.040597 
L 99.002883 244.764137 
L 99.085944 244.708966 
L 98.977475 244.565006 
L 98.797885 244.326652 
L 98.739594 244.19255 
L 98.659819 244.009027 
L 98.499874 243.64107 
L 98.446013 243.54134 
L 98.391572 243.440537 
L 98.287661 243.248134 
L 98.17076 242.899189 
L 98.155343 242.870602 
L 98.053205 242.681212 
L 97.988471 242.384992 
L 97.939243 242.034139 
L 97.858826 241.752399 
L 97.81128 241.633935 
L 97.747173 241.474207 
L 97.674966 241.294296 
L 97.626893 241.077863 
L 97.617866 240.976122 
L 97.602363 240.793712 
L 97.578662 240.53423 
L 97.463769 240.194799 
L 97.387378 240.027216 
L 97.269435 239.879338 
L 97.166539 239.615747 
L 97.051467 239.455338 
L 96.901282 239.206358 
L 96.805472 238.976901 
L 96.709489 238.856925 
L 96.734461 238.837791 
L 96.606781 238.518891 
L 96.497396 238.316178 
L 96.304352 238.016888 
L 96.283781 237.976569 
L 96.000033 237.41478 
L 95.955046 237.262543 
L 95.891495 237.085764 
L 95.895291 236.904791 
L 95.866044 236.907941 
L 95.858879 236.807546 
L 95.843377 236.64013 
L 95.841374 236.383202 
L 95.84271 236.364449 
L 95.83924 236.343858 
L 95.830249 236.320537 
L 95.816487 236.301866 
L 95.780957 236.26873 
L 95.793418 236.248894 
L 95.561716 236.086307 
L 95.466498 236.016932 
L 95.383911 235.958946 
L 95.203858 235.838473 
L 95.037654 235.743132 
L 94.893209 235.656839 
L 94.767146 235.588778 
L 94.548305 235.479976 
L 93.986813 235.188571 
L 93.863097 235.131957 
L 93.648258 235.024904 
L 93.627217 235.057906 
L 93.547934 235.023519 
L 93.556141 234.999575 
L 93.516062 234.983753 
L 93.442784 234.956655 
L 93.396966 234.936281 
L 93.335258 234.935473 
L 93.159935 234.844767 
L 93.006554 234.796337 
L 92.772901 234.695638 
L 92.696282 234.6846 
L 92.328753 234.550261 
L 92.318595 234.573233 
L 92.253371 234.556404 
L 92.216513 234.614898 
L 92.16906 234.601554 
L 92.181303 234.526103 
L 92.176471 234.493805 
L 92.159168 234.464108 
L 92.138399 234.44122 
L 91.868427 234.371744 
L 91.615604 234.318131 
L 91.275084 234.262179 
L 91.158275 234.270225 
L 91.017756 234.27558 
L 90.782354 234.273435 
L 90.603017 234.284732 
L 90.253477 234.306131 
L 89.706417 234.357263 
L 89.495392 234.43252 
L 89.040813 234.461756 
L 89.020747 234.419654 
L 88.708237 234.450981 
L 88.619356 234.496158 
L 88.564717 234.534271 
L 88.489648 234.597705 
L 88.3999 234.693303 
L 88.36137 234.751952 
L 88.324058 234.824345 
L 88.2847 234.940291 
L 88.260264 235.068759 
L 88.253772 235.135253 
L 88.257168 235.15443 
L 88.287943 235.400333 
L 88.338419 235.63742 
L 88.544359 235.438924 
L 88.876731 235.227403 
L 89.673787 236.41049 
L 90.123575 236.946818 
L 92.052989 239.247409 
L 95.347883 242.387311 
L 97.361562 244.067849 
L 99.444508 245.802692 
L 99.412202 245.813101 
L 100.859479 246.995702 
L 103.133961 248.854268 
L 106.649028 251.726623 
L 109.544469 254.088536 
L 109.74041 254.249346 
L 110.334027 254.068472 
L 111.212611 254.671657 
L 111.881602 255.130993 
L 111.977852 255.209069 
L 112.036569 255.27879 
L 112.092924 255.377588 
L 112.080816 256.455819 
L 112.604841 256.884387 
L 113.131911 257.315575 
L 117.022262 260.49146 
L 117.883789 261.194241 
L 118.38686 261.605002 
L 118.345387 261.173381 
L 119.269399 261.929602 
L 119.935431 262.474083 
L 120.715728 263.112362 
L 121.469893 263.729401 
L 122.234317 264.354953 
L 123.003431 264.984325 
L 123.752494 265.597137 
L 135.153245 274.925077 
L 135.928276 275.559182 
L 136.723431 276.209809 
L 137.516846 276.859198 
L 138.304284 277.50301 
L 139.507016 278.48729 
L 141.13531 279.819574 
L 141.225135 279.891922 
L 141.262986 279.922371 
L 141.665003 280.246069 
L 141.748309 280.313148 
L 141.899975 280.435362 
L 142.416272 280.868339 
L 145.717619 283.474222 
L 149.136539 285.690822 
L 152.638837 287.663129 
L 156.266602 289.199601 
L 160.233606 290.460584 
L 164.07125 291.337828 
L 168.204571 291.829669 
L 170.249711 291.947351 
L 173.374525 292.088169 
L 174.50924 292.139192 
L 176.638893 292.213779 
L 180.898633 292.363478 
L 185.115159 292.470373 
L 188.531915 292.563858 
L 190.396907 292.614668 
L 199.534667 292.834323 
L 201.727733 292.887084 
L 202.480354 292.915824 
L 202.755934 292.92813 
L 203.291527 292.950339 
L 203.533706 292.961013 
L 203.516126 292.680008 
L 203.496654 292.530211 
L 205.272486 292.615821 
L 206.457915 292.673193 
L 207.447415 292.720834 
L 207.815359 293.071846 
L 218.097398 293.381934 
L 218.468395 293.393383 
L 218.56889 293.396316 
L 219.052757 293.411472 
L 224.325177 293.572495 
L 224.64445 293.582203 
L 227.87731 293.680866 
L 228.222298 293.691588 
L 236.228208 293.931988 
L 240.49641 294.090143 
L 240.533035 294.091235 
L 244.73543 294.200232 
L 249.012377 294.316214 
L 253.255691 294.437145 
L 261.264836 294.655012 
L 271.792261 294.926453 
L 274.605324 294.996779 
L 276.794645 295.051832 
L 276.965088 295.056128 
L 277.397419 295.066999 
L 277.548591 295.070769 
L 277.871996 295.078879 
L 278.045764 295.083268 
L 279.36049 295.116326 
L 288.886163 295.36718 
L 289.87085 295.396437 
L 290.496076 295.40983 
L 290.600852 295.411928 
L 290.755978 295.415357 
L 291.115638 295.423358 
L 291.217099 295.425791 
L 291.351674 295.428596 
L 291.934939 295.451403 
L 292.63582 295.478743 
L 292.76338 295.483979 
L 292.864579 295.488 
L 293.409264 294.380502 
L 293.778193 293.630424 
L 295.113427 290.915758 
L 295.415166 290.305139 
L 295.719322 289.695747 
L 296.025937 289.087579 
L 296.334969 288.480637 
L 296.646422 287.875133 
L 296.960335 287.270897 
L 297.276666 286.66793 
L 297.595372 286.066232 
L 297.91636 285.465463 
L 298.239765 284.865963 
L 298.565547 284.267775 
L 298.893747 283.670898 
L 299.361417 282.828966 
L 299.384119 282.7886 
L 299.66613 282.291494 
L 300.039682 281.629571 
L 300.229408 281.298071 
L 300.811368 280.283438 
L 302.010225 278.193224 
L 303.612385 275.400267 
L 303.866225 274.957768 
L 304.66635 273.562943 
L 304.915673 273.128285 
L 305.244948 272.553959 
L 307.526063 268.577629 
L 307.587313 268.470882 
L 308.948566 266.098153 
L 309.02169 265.968861 
L 309.088953 265.849985 
L 309.140728 265.758483 
L 309.188727 265.673631 
L 309.116233 265.631317 
L 309.540089 264.900362 
L 309.698236 264.627608 
L 309.876087 264.320928 
L 310.079334 263.970442 
L 311.136745 262.147002 
L 312.033643 260.600392 
L 312.655122 259.528709 
L 313.453445 258.152168 
L 315.603015 254.445621 
L 316.240795 253.345957 
L 316.37811 253.109213 
L 316.635343 252.994658 
L 316.884311 252.883803 
L 317.980522 252.395631 
L 318.180946 252.306388 
L 319.305506 251.805634 
L 321.195884 250.963898 
L 321.325663 250.906105 
L 322.251972 250.49588 
L 323.907028 249.762903 
L 324.049209 249.701401 
L 324.536719 249.490595 
L 325.09526 249.257438 
L 325.264966 249.186574 
L 325.728897 248.997093 
L 325.775838 248.977914 
L 326.132799 248.8321 
L 326.247575 248.785047 
L 328.113669 248.045488 
L 328.307107 247.968856 
L 328.351993 247.95105 
L 331.061937 246.878048 
L 332.345349 246.370096 
L 332.619699 246.261486 
L 333.416403 245.946147 
L 337.377288 244.378572 
L 337.708112 244.249886 
L 338.373277 243.998843 
L 338.818174 243.840181 
L 339.130809 243.733761 
L 339.49393 243.610177 
L 339.759844 243.519637 
L 339.86094 243.487015 
L 340.235041 243.366381 
L 340.911853 243.161487 
L 340.930985 243.155826 
L 341.222396 243.071274 
L 341.59128 242.96632 
L 341.903189 242.881718 
L 342.246109 242.790963 
L 342.588192 242.704545 
L 342.932445 242.619786 
L 343.275859 242.539278 
L 343.621828 242.460464 
L 343.994204 242.377315 
L 344.341041 242.302841 
L 345.858523 241.980199 
L 347.080088 241.720506 
L 349.273908 241.252306 
L 350.012619 241.094643 
L 350.012901 241.094582 
L 350.911943 240.902741 
L 353.880446 240.26933 
L 355.407515 239.9435 
L 356.069732 239.801008 
L 356.416583 239.735955 
L 356.766524 239.675533 
L 357.145375 239.617557 
L 357.497052 239.575045 
L 358.098258 239.289699 
L 358.195779 239.269948 
L 358.293106 239.249175 
L 358.390196 239.227383 
L 358.554196 239.190826 
L 358.717529 239.151293 
L 358.880114 239.108828 
L 359.041948 239.063433 
L 359.202905 239.015109 
L 359.36311 238.963768 
L 359.522397 238.909586 
L 359.68068 238.85252 
L 359.837917 238.792616 
L 359.994023 238.729875 
L 360.149085 238.664381 
L 360.302889 238.596095 
L 360.455478 238.525017 
L 360.606769 238.451234 
L 360.756717 238.374705 
L 360.887853 238.304768 
L 361.017919 238.232761 
L 361.146786 238.158689 
L 361.274455 238.082593 
L 361.344632 238.03959 
L 361.414412 237.995997 
L 361.483793 237.951773 
L 361.517806 237.929826 
L 361.551729 237.90771 
L 361.585522 237.88547 
L 361.734657 237.784813 
L 361.88185 237.681253 
L 362.027018 237.57492 
L 362.170118 237.465771 
L 362.301942 237.361031 
L 362.431835 237.253942 
L 362.559801 237.144548 
L 362.685795 237.032849 
L 362.809777 236.918889 
L 362.931748 236.802754 
L 363.05158 236.684403 
L 363.169274 236.563923 
L 363.284789 236.441357 
" clip-path="url(#p06ba0cce6b)" style="fill: #1f77b4"/>
   </g>
   <g id="matplotlib.axis_1">
    <g id="xtick_1">
     <g id="line2d_1">
      <defs>
       <path id="me86f8e19fb" d="M 0 0 
L 0 3.5 
" style="stroke: #000000; stroke-width: 0.8"/>
      </defs>
      <g>
       <use xlink:href="#me86f8e19fb" x="115.119546" y="307.584" style="stroke: #000000; stroke-width: 0.8"/>
      </g>
     </g>
     <g id="text_1">
      <!-- 13.24 -->
      <g transform="translate(100.805483 322.182437) scale(0.1 -0.1)">
       <defs>
        <path id="DejaVuSans-31" d="M 794 531 
L 1825 531 
L 1825 4091 
L 703 3866 
L 703 4441 
L 1819 4666 
L 2450 4666 
L 2450 531 
L 3481 531 
L 3481 0 
L 794 0 
L 794 531 
z
" transform="scale(0.015625)"/>
        <path id="DejaVuSans-33" d="M 2597 2516 
Q 3050 2419 3304 2112 
Q 3559 1806 3559 1356 
Q 3559 666 3084 287 
Q 2609 -91 1734 -91 
Q 1441 -91 1130 -33 
Q 819 25 488 141 
L 488 750 
Q 750 597 1062 519 
Q 1375 441 1716 441 
Q 2309 441 2620 675 
Q 2931 909 2931 1356 
Q 2931 1769 2642 2001 
Q 2353 2234 1838 2234 
L 1294 2234 
L 1294 2753 
L 1863 2753 
Q 2328 2753 2575 2939 
Q 2822 3125 2822 3475 
Q 2822 3834 2567 4026 
Q 2313 4219 1838 4219 
Q 1578 4219 1281 4162 
Q 984 4106 628 3988 
L 628 4550 
Q 988 4650 1302 4700 
Q 1616 4750 1894 4750 
Q 2613 4750 3031 4423 
Q 3450 4097 3450 3541 
Q 3450 3153 3228 2886 
Q 3006 2619 2597 2516 
z
" transform="scale(0.015625)"/>
        <path id="DejaVuSans-2e" d="M 684 794 
L 1344 794 
L 1344 0 
L 684 0 
L 684 794 
z
" transform="scale(0.015625)"/>
        <path id="DejaVuSans-32" d="M 1228 531 
L 3431 531 
L 3431 0 
L 469 0 
L 469 531 
Q 828 903 1448 1529 
Q 2069 2156 2228 2338 
Q 2531 2678 2651 2914 
Q 2772 3150 2772 3378 
Q 2772 3750 2511 3984 
Q 2250 4219 1831 4219 
Q 1534 4219 1204 4116 
Q 875 4013 500 3803 
L 500 4441 
Q 881 4594 1212 4672 
Q 1544 4750 1819 4750 
Q 2544 4750 2975 4387 
Q 3406 4025 3406 3419 
Q 3406 3131 3298 2873 
Q 3191 2616 2906 2266 
Q 2828 2175 2409 1742 
Q 1991 1309 1228 531 
z
" transform="scale(0.015625)"/>
        <path id="DejaVuSans-34" d="M 2419 4116 
L 825 1625 
L 2419 1625 
L 2419 4116 
z
M 2253 4666 
L 3047 4666 
L 3047 1625 
L 3713 1625 
L 3713 1100 
L 3047 1100 
L 3047 0 
L 2419 0 
L 2419 1100 
L 313 1100 
L 313 1709 
L 2253 4666 
z
" transform="scale(0.015625)"/>
       </defs>
       <use xlink:href="#DejaVuSans-31"/>
       <use xlink:href="#DejaVuSans-33" x="63.623047"/>
       <use xlink:href="#DejaVuSans-2e" x="127.246094"/>
       <use xlink:href="#DejaVuSans-32" x="159.033203"/>
       <use xlink:href="#DejaVuSans-34" x="222.65625"/>
      </g>
     </g>
    </g>
    <g id="xtick_2">
     <g id="line2d_2">
      <g>
       <use xlink:href="#me86f8e19fb" x="172.894192" y="307.584" style="stroke: #000000; stroke-width: 0.8"/>
      </g>
     </g>
     <g id="text_2">
      <!-- 13.26 -->
      <g transform="translate(158.58013 322.182437) scale(0.1 -0.1)">
       <defs>
        <path id="DejaVuSans-36" d="M 2113 2584 
Q 1688 2584 1439 2293 
Q 1191 2003 1191 1497 
Q 1191 994 1439 701 
Q 1688 409 2113 409 
Q 2538 409 2786 701 
Q 3034 994 3034 1497 
Q 3034 2003 2786 2293 
Q 2538 2584 2113 2584 
z
M 3366 4563 
L 3366 3988 
Q 3128 4100 2886 4159 
Q 2644 4219 2406 4219 
Q 1781 4219 1451 3797 
Q 1122 3375 1075 2522 
Q 1259 2794 1537 2939 
Q 1816 3084 2150 3084 
Q 2853 3084 3261 2657 
Q 3669 2231 3669 1497 
Q 3669 778 3244 343 
Q 2819 -91 2113 -91 
Q 1303 -91 875 529 
Q 447 1150 447 2328 
Q 447 3434 972 4092 
Q 1497 4750 2381 4750 
Q 2619 4750 2861 4703 
Q 3103 4656 3366 4563 
z
" transform="scale(0.015625)"/>
       </defs>
       <use xlink:href="#DejaVuSans-31"/>
       <use xlink:href="#DejaVuSans-33" x="63.623047"/>
       <use xlink:href="#DejaVuSans-2e" x="127.246094"/>
       <use xlink:href="#DejaVuSans-32" x="159.033203"/>
       <use xlink:href="#DejaVuSans-36" x="222.65625"/>
      </g>
     </g>
    </g>
    <g id="xtick_3">
     <g id="line2d_3">
      <g>
       <use xlink:href="#me86f8e19fb" x="230.668839" y="307.584" style="stroke: #000000; stroke-width: 0.8"/>
      </g>
     </g>
     <g id="text_3">
      <!-- 13.28 -->
      <g transform="translate(216.354777 322.182437) scale(0.1 -0.1)">
       <defs>
        <path id="DejaVuSans-38" d="M 2034 2216 
Q 1584 2216 1326 1975 
Q 1069 1734 1069 1313 
Q 1069 891 1326 650 
Q 1584 409 2034 409 
Q 2484 409 2743 651 
Q 3003 894 3003 1313 
Q 3003 1734 2745 1975 
Q 2488 2216 2034 2216 
z
M 1403 2484 
Q 997 2584 770 2862 
Q 544 3141 544 3541 
Q 544 4100 942 4425 
Q 1341 4750 2034 4750 
Q 2731 4750 3128 4425 
Q 3525 4100 3525 3541 
Q 3525 3141 3298 2862 
Q 3072 2584 2669 2484 
Q 3125 2378 3379 2068 
Q 3634 1759 3634 1313 
Q 3634 634 3220 271 
Q 2806 -91 2034 -91 
Q 1263 -91 848 271 
Q 434 634 434 1313 
Q 434 1759 690 2068 
Q 947 2378 1403 2484 
z
M 1172 3481 
Q 1172 3119 1398 2916 
Q 1625 2713 2034 2713 
Q 2441 2713 2670 2916 
Q 2900 3119 2900 3481 
Q 2900 3844 2670 4047 
Q 2441 4250 2034 4250 
Q 1625 4250 1398 4047 
Q 1172 3844 1172 3481 
z
" transform="scale(0.015625)"/>
       </defs>
       <use xlink:href="#DejaVuSans-31"/>
       <use xlink:href="#DejaVuSans-33" x="63.623047"/>
       <use xlink:href="#DejaVuSans-2e" x="127.246094"/>
       <use xlink:href="#DejaVuSans-32" x="159.033203"/>
       <use xlink:href="#DejaVuSans-38" x="222.65625"/>
      </g>
     </g>
    </g>
    <g id="xtick_4">
     <g id="line2d_4">
      <g>
       <use xlink:href="#me86f8e19fb" x="288.443486" y="307.584" style="stroke: #000000; stroke-width: 0.8"/>
      </g>
     </g>
     <g id="text_4">
      <!-- 13.30 -->
      <g transform="translate(274.129423 322.182437) scale(0.1 -0.1)">
       <defs>
        <path id="DejaVuSans-30" d="M 2034 4250 
Q 1547 4250 1301 3770 
Q 1056 3291 1056 2328 
Q 1056 1369 1301 889 
Q 1547 409 2034 409 
Q 2525 409 2770 889 
Q 3016 1369 3016 2328 
Q 3016 3291 2770 3770 
Q 2525 4250 2034 4250 
z
M 2034 4750 
Q 2819 4750 3233 4129 
Q 3647 3509 3647 2328 
Q 3647 1150 3233 529 
Q 2819 -91 2034 -91 
Q 1250 -91 836 529 
Q 422 1150 422 2328 
Q 422 3509 836 4129 
Q 1250 4750 2034 4750 
z
" transform="scale(0.015625)"/>
       </defs>
       <use xlink:href="#DejaVuSans-31"/>
       <use xlink:href="#DejaVuSans-33" x="63.623047"/>
       <use xlink:href="#DejaVuSans-2e" x="127.246094"/>
       <use xlink:href="#DejaVuSans-33" x="159.033203"/>
       <use xlink:href="#DejaVuSans-30" x="222.65625"/>
      </g>
     </g>
    </g>
    <g id="xtick_5">
     <g id="line2d_5">
      <g>
       <use xlink:href="#me86f8e19fb" x="346.218132" y="307.584" style="stroke: #000000; stroke-width: 0.8"/>
      </g>
     </g>
     <g id="text_5">
      <!-- 13.32 -->
      <g transform="translate(331.90407 322.182437) scale(0.1 -0.1)">
       <use xlink:href="#DejaVuSans-31"/>
       <use xlink:href="#DejaVuSans-33" x="63.623047"/>
       <use xlink:href="#DejaVuSans-2e" x="127.246094"/>
       <use xlink:href="#DejaVuSans-33" x="159.033203"/>
       <use xlink:href="#DejaVuSans-32" x="222.65625"/>
      </g>
     </g>
    </g>
   </g>
   <g id="matplotlib.axis_2">
    <g id="ytick_1">
     <g id="line2d_6">
      <defs>
       <path id="m3f0fc4b529" d="M 0 0 
L -3.5 0 
" style="stroke: #000000; stroke-width: 0.8"/>
      </defs>
      <g>
       <use xlink:href="#m3f0fc4b529" x="73.463149" y="289.814242" style="stroke: #000000; stroke-width: 0.8"/>
      </g>
     </g>
     <g id="text_6">
      <!-- 52.55 -->
      <g transform="translate(37.835024 293.613461) scale(0.1 -0.1)">
       <defs>
        <path id="DejaVuSans-35" d="M 691 4666 
L 3169 4666 
L 3169 4134 
L 1269 4134 
L 1269 2991 
Q 1406 3038 1543 3061 
Q 1681 3084 1819 3084 
Q 2600 3084 3056 2656 
Q 3513 2228 3513 1497 
Q 3513 744 3044 326 
Q 2575 -91 1722 -91 
Q 1428 -91 1123 -41 
Q 819 9 494 109 
L 494 744 
Q 775 591 1075 516 
Q 1375 441 1709 441 
Q 2250 441 2565 725 
Q 2881 1009 2881 1497 
Q 2881 1984 2565 2268 
Q 2250 2553 1709 2553 
Q 1456 2553 1204 2497 
Q 953 2441 691 2322 
L 691 4666 
z
" transform="scale(0.015625)"/>
       </defs>
       <use xlink:href="#DejaVuSans-35"/>
       <use xlink:href="#DejaVuSans-32" x="63.623047"/>
       <use xlink:href="#DejaVuSans-2e" x="127.246094"/>
       <use xlink:href="#DejaVuSans-35" x="159.033203"/>
       <use xlink:href="#DejaVuSans-35" x="222.65625"/>
      </g>
     </g>
    </g>
    <g id="ytick_2">
     <g id="line2d_7">
      <g>
       <use xlink:href="#m3f0fc4b529" x="73.463149" y="242.281304" style="stroke: #000000; stroke-width: 0.8"/>
      </g>
     </g>
     <g id="text_7">
      <!-- 52.56 -->
      <g transform="translate(37.835024 246.080523) scale(0.1 -0.1)">
       <use xlink:href="#DejaVuSans-35"/>
       <use xlink:href="#DejaVuSans-32" x="63.623047"/>
       <use xlink:href="#DejaVuSans-2e" x="127.246094"/>
       <use xlink:href="#DejaVuSans-35" x="159.033203"/>
       <use xlink:href="#DejaVuSans-36" x="222.65625"/>
      </g>
     </g>
    </g>
    <g id="ytick_3">
     <g id="line2d_8">
      <g>
       <use xlink:href="#m3f0fc4b529" x="73.463149" y="194.748366" style="stroke: #000000; stroke-width: 0.8"/>
      </g>
     </g>
     <g id="text_8">
      <!-- 52.57 -->
      <g transform="translate(37.835024 198.547584) scale(0.1 -0.1)">
       <defs>
        <path id="DejaVuSans-37" d="M 525 4666 
L 3525 4666 
L 3525 4397 
L 1831 0 
L 1172 0 
L 2766 4134 
L 525 4134 
L 525 4666 
z
" transform="scale(0.015625)"/>
       </defs>
       <use xlink:href="#DejaVuSans-35"/>
       <use xlink:href="#DejaVuSans-32" x="63.623047"/>
       <use xlink:href="#DejaVuSans-2e" x="127.246094"/>
       <use xlink:href="#DejaVuSans-35" x="159.033203"/>
       <use xlink:href="#DejaVuSans-37" x="222.65625"/>
      </g>
     </g>
    </g>
    <g id="ytick_4">
     <g id="line2d_9">
      <g>
       <use xlink:href="#m3f0fc4b529" x="73.463149" y="147.215428" style="stroke: #000000; stroke-width: 0.8"/>
      </g>
     </g>
     <g id="text_9">
      <!-- 52.58 -->
      <g transform="translate(37.835024 151.014646) scale(0.1 -0.1)">
       <use xlink:href="#DejaVuSans-35"/>
       <use xlink:href="#DejaVuSans-32" x="63.623047"/>
       <use xlink:href="#DejaVuSans-2e" x="127.246094"/>
       <use xlink:href="#DejaVuSans-35" x="159.033203"/>
       <use xlink:href="#DejaVuSans-38" x="222.65625"/>
      </g>
     </g>
    </g>
    <g id="ytick_5">
     <g id="line2d_10">
      <g>
       <use xlink:href="#m3f0fc4b529" x="73.463149" y="99.682489" style="stroke: #000000; stroke-width: 0.8"/>
      </g>
     </g>
     <g id="text_10">
      <!-- 52.59 -->
      <g transform="translate(37.835024 103.481708) scale(0.1 -0.1)">
       <defs>
        <path id="DejaVuSans-39" d="M 703 97 
L 703 672 
Q 941 559 1184 500 
Q 1428 441 1663 441 
Q 2288 441 2617 861 
Q 2947 1281 2994 2138 
Q 2813 1869 2534 1725 
Q 2256 1581 1919 1581 
Q 1219 1581 811 2004 
Q 403 2428 403 3163 
Q 403 3881 828 4315 
Q 1253 4750 1959 4750 
Q 2769 4750 3195 4129 
Q 3622 3509 3622 2328 
Q 3622 1225 3098 567 
Q 2575 -91 1691 -91 
Q 1453 -91 1209 -44 
Q 966 3 703 97 
z
M 1959 2075 
Q 2384 2075 2632 2365 
Q 2881 2656 2881 3163 
Q 2881 3666 2632 3958 
Q 2384 4250 1959 4250 
Q 1534 4250 1286 3958 
Q 1038 3666 1038 3163 
Q 1038 2656 1286 2365 
Q 1534 2075 1959 2075 
z
" transform="scale(0.015625)"/>
       </defs>
       <use xlink:href="#DejaVuSans-35"/>
       <use xlink:href="#DejaVuSans-32" x="63.623047"/>
       <use xlink:href="#DejaVuSans-2e" x="127.246094"/>
       <use xlink:href="#DejaVuSans-35" x="159.033203"/>
       <use xlink:href="#DejaVuSans-39" x="222.65625"/>
      </g>
     </g>
    </g>
    <g id="ytick_6">
     <g id="line2d_11">
      <g>
       <use xlink:href="#m3f0fc4b529" x="73.463149" y="52.149551" style="stroke: #000000; stroke-width: 0.8"/>
      </g>
     </g>
     <g id="text_11">
      <!-- 52.60 -->
      <g transform="translate(37.835024 55.94877) scale(0.1 -0.1)">
       <use xlink:href="#DejaVuSans-35"/>
       <use xlink:href="#DejaVuSans-32" x="63.623047"/>
       <use xlink:href="#DejaVuSans-2e" x="127.246094"/>
       <use xlink:href="#DejaVuSans-36" x="159.033203"/>
       <use xlink:href="#DejaVuSans-30" x="222.65625"/>
      </g>
     </g>
    </g>
   </g>
   <g id="patch_3">
    <path d="M 73.463149 307.584 
L 73.463149 41.472 
" style="fill: none; stroke: #000000; stroke-width: 0.8; stroke-linejoin: miter; stroke-linecap: square"/>
   </g>
   <g id="patch_4">
    <path d="M 398.856851 307.584 
L 398.856851 41.472 
" style="fill: none; stroke: #000000; stroke-width: 0.8; stroke-linejoin: miter; stroke-linecap: square"/>
   </g>
   <g id="patch_5">
    <path d="M 73.463149 307.584 
L 398.856851 307.584 
" style="fill: none; stroke: #000000; stroke-width: 0.8; stroke-linejoin: miter; stroke-linecap: square"/>
   </g>
   <g id="patch_6">
    <path d="M 73.463149 41.472 
L 398.856851 41.472 
" style="fill: none; stroke: #000000; stroke-width: 0.8; stroke-linejoin: miter; stroke-linecap: square"/>
   </g>
   <g id="text_12">
    <!-- Tegel -->
    <g transform="translate(232.385651 207.865778) scale(0.12 -0.12)">
     <defs>
      <path id="DejaVuSans-54" d="M -19 4666 
L 3928 4666 
L 3928 4134 
L 2272 4134 
L 2272 0 
L 1638 0 
L 1638 4134 
L -19 4134 
L -19 4666 
z
" transform="scale(0.015625)"/>
      <path id="DejaVuSans-65" d="M 3597 1894 
L 3597 1613 
L 953 1613 
Q 991 1019 1311 708 
Q 1631 397 2203 397 
Q 2534 397 2845 478 
Q 3156 559 3463 722 
L 3463 178 
Q 3153 47 2828 -22 
Q 2503 -91 2169 -91 
Q 1331 -91 842 396 
Q 353 884 353 1716 
Q 353 2575 817 3079 
Q 1281 3584 2069 3584 
Q 2775 3584 3186 3129 
Q 3597 2675 3597 1894 
z
M 3022 2063 
Q 3016 2534 2758 2815 
Q 2500 3097 2075 3097 
Q 1594 3097 1305 2825 
Q 1016 2553 972 2059 
L 3022 2063 
z
" transform="scale(0.015625)"/>
      <path id="DejaVuSans-67" d="M 2906 1791 
Q 2906 2416 2648 2759 
Q 2391 3103 1925 3103 
Q 1463 3103 1205 2759 
Q 947 2416 947 1791 
Q 947 1169 1205 825 
Q 1463 481 1925 481 
Q 2391 481 2648 825 
Q 2906 1169 2906 1791 
z
M 3481 434 
Q 3481 -459 3084 -895 
Q 2688 -1331 1869 -1331 
Q 1566 -1331 1297 -1286 
Q 1028 -1241 775 -1147 
L 775 -588 
Q 1028 -725 1275 -790 
Q 1522 -856 1778 -856 
Q 2344 -856 2625 -561 
Q 2906 -266 2906 331 
L 2906 616 
Q 2728 306 2450 153 
Q 2172 0 1784 0 
Q 1141 0 747 490 
Q 353 981 353 1791 
Q 353 2603 747 3093 
Q 1141 3584 1784 3584 
Q 2172 3584 2450 3431 
Q 2728 3278 2906 2969 
L 2906 3500 
L 3481 3500 
L 3481 434 
z
" transform="scale(0.015625)"/>
      <path id="DejaVuSans-6c" d="M 603 4863 
L 1178 4863 
L 1178 0 
L 603 0 
L 603 4863 
z
" transform="scale(0.015625)"/>
     </defs>
     <use xlink:href="#DejaVuSans-54"/>
     <use xlink:href="#DejaVuSans-65" x="44.083984"/>
     <use xlink:href="#DejaVuSans-67" x="105.607422"/>
     <use xlink:href="#DejaVuSans-65" x="169.083984"/>
     <use xlink:href="#DejaVuSans-6c" x="230.607422"/>
    </g>
   </g>
  </g>
 </g>
 <defs>
  <clipPath id="p06ba0cce6b">
   <rect x="73.463149" y="41.472" width="325.393701" height="266.112"/>
  </clipPath>
 </defs>
</svg>
