<?xml version="1.0" encoding="utf-8" standalone="no"?>
<!DOCTYPE svg PUBLIC "-//W3C//DTD SVG 1.1//EN"
  "http://www.w3.org/Graphics/SVG/1.1/DTD/svg11.dtd">
<svg xmlns:xlink="http://www.w3.org/1999/xlink" width="720pt" height="720pt" viewBox="0 0 720 720" xmlns="http://www.w3.org/2000/svg" version="1.1">
 <metadata>
  <rdf:RDF xmlns:dc="http://purl.org/dc/elements/1.1/" xmlns:cc="http://creativecommons.org/ns#" xmlns:rdf="http://www.w3.org/1999/02/22-rdf-syntax-ns#">
   <cc:Work>
    <dc:type rdf:resource="http://purl.org/dc/dcmitype/StillImage"/>
    <dc:date>2024-10-17T11:38:36.646465</dc:date>
    <dc:format>image/svg+xml</dc:format>
    <dc:creator>
     <cc:Agent>
      <dc:title>Matplotlib v3.9.2, https://matplotlib.org/</dc:title>
     </cc:Agent>
    </dc:creator>
   </cc:Work>
  </rdf:RDF>
 </metadata>
 <defs>
  <style type="text/css">*{stroke-linejoin: round; stroke-linecap: butt}</style>
 </defs>
 <g id="figure_1">
  <g id="patch_1">
   <path d="M 0 720 
L 720 720 
L 720 0 
L 0 0 
z
" style="fill: #ffffff"/>
  </g>
  <g id="axes_1">
   <g id="patch_2">
    <path d="M 90 632.939584 
L 648 632.939584 
L 648 94.260416 
L 90 94.260416 
z
" style="fill: #ffffff"/>
   </g>
   <g id="PatchCollection_1">
    <path d="M 163.189531 603.468577 
L 163.489626 603.189823 
L 163.820056 604.314196 
L 163.898995 604.582114 
L 164.920274 608.053561 
L 164.964912 608.205291 
L 165.054268 608.454167 
L 165.814865 607.74279 
L 165.778706 607.634163 
L 166.264201 607.156176 
L 166.607275 606.849719 
L 166.838383 606.673638 
L 167.247361 606.524364 
L 168.095827 605.632135 
L 168.203916 605.507342 
L 168.501184 606.227215 
L 169.850552 605.016497 
L 170.094374 604.908903 
L 170.182223 604.843943 
L 170.446386 604.648308 
L 170.482853 604.621385 
L 170.647741 604.502485 
L 174.503812 601.305857 
L 176.338719 599.827199 
L 176.526882 599.465422 
L 179.09541 597.678958 
L 183.421862 594.668642 
L 186.176267 592.752805 
L 186.357281 592.886248 
L 186.404312 592.916663 
L 186.682327 592.662195 
L 187.45432 591.865335 
L 187.89822 591.190122 
L 188.261453 590.323937 
L 189.33216 587.700353 
L 189.712901 587.3115 
L 189.986665 587.031775 
L 190.360588 586.784324 
L 190.948963 587.046186 
L 191.167435 586.612522 
L 191.10745 586.614834 
L 191.951486 585.382673 
L 191.769077 585.304195 
L 192.136545 585.003964 
L 192.252793 584.908888 
L 192.261584 584.901716 
L 197.246212 580.825423 
L 202.457934 576.179783 
L 209.704564 569.526707 
L 210.541723 568.757988 
L 211.773684 567.325121 
L 212.549245 566.34651 
L 217.079669 562.526848 
L 217.274971 562.354136 
L 217.824439 561.893073 
L 218.222891 561.558731 
L 218.310578 561.485964 
L 218.372312 561.434809 
L 218.976831 560.933896 
L 226.194287 554.402892 
L 229.045653 551.821434 
L 230.179078 550.696576 
L 237.105777 544.456909 
L 243.454734 538.878196 
L 244.678268 537.733905 
L 246.651885 535.845955 
L 248.220201 534.377273 
L 251.375168 531.453138 
L 254.100624 529.437116 
L 255.04544 528.822292 
L 255.693513 528.414253 
L 256.736989 527.670433 
L 257.661128 527.011709 
L 257.951338 526.7906 
L 258.609125 526.289379 
L 261.062881 524.608288 
L 263.693613 522.978262 
L 266.417391 521.424013 
L 270.854352 518.984339 
L 272.770372 517.984044 
L 274.712342 517.051916 
L 275.156357 516.838794 
L 275.480283 516.683281 
L 277.144047 515.963692 
L 276.879727 515.264657 
L 277.119875 515.168924 
L 307.331375 503.138913 
L 307.6211 503.90911 
L 308.007474 504.936284 
L 308.079269 505.127474 
L 308.477512 506.186181 
L 309.048787 507.705208 
L 309.065695 507.750045 
L 309.48925 508.876326 
L 309.542448 509.017858 
L 309.72813 509.511594 
L 313.532361 508.459456 
L 317.311547 507.388998 
L 319.426005 506.806477 
L 322.513359 506.560603 
L 323.651042 506.3836 
L 327.612081 505.738164 
L 331.960554 505.143028 
L 339.45299 503.838692 
L 345.226366 502.896312 
L 353.808576 500.872128 
L 354.230388 500.910236 
L 356.895214 501.151003 
L 358.490378 501.208206 
L 361.373477 501.311427 
L 362.043593 501.335435 
L 363.827374 501.404287 
L 364.857624 501.426274 
L 365.906183 501.395138 
L 366.972772 501.303067 
L 368.023463 501.168672 
L 368.332303 501.119622 
L 369.345425 500.887397 
L 370.376932 500.633846 
L 371.371218 500.340772 
L 372.689263 499.821153 
L 372.908964 499.94693 
L 374.8007 501.030241 
L 375.280298 502.855643 
L 378.540505 502.981814 
L 382.335328 503.306842 
L 387.338775 503.422604 
L 395.826621 503.589657 
L 398.391448 503.574036 
L 406.405402 503.525211 
L 409.602198 503.68088 
L 414.873374 503.970654 
L 416.223861 504.044782 
L 426.443324 504.606127 
L 426.993157 504.636273 
L 428.111138 504.652951 
L 429.618921 504.675446 
L 445.620647 505.278945 
L 466.388684 506.021309 
L 467.257087 506.056699 
L 468.125054 506.100974 
L 468.992582 506.154028 
L 469.85946 506.215867 
L 470.725796 506.286593 
L 471.591274 506.366214 
L 472.455889 506.454519 
L 473.306761 506.550207 
L 474.156555 506.654372 
L 475.005271 506.767014 
L 475.852912 506.888238 
L 476.098118 506.92486 
L 476.343238 506.962328 
L 476.588266 507.000433 
L 477.21867 507.101851 
L 477.84823 507.208041 
L 478.477048 507.318792 
L 487.281153 508.905394 
L 491.646314 509.14002 
L 492.022446 508.566934 
L 493.396214 505.256319 
L 493.679856 504.572871 
L 495.256749 500.772866 
L 495.53821 500.862891 
L 496.753391 501.251976 
L 498.330207 501.774642 
L 499.536845 502.144272 
L 502.345274 502.581442 
L 506.226262 503.212377 
L 509.646784 503.752501 
L 511.505742 504.017972 
L 513.548433 504.202277 
L 515.253691 504.376598 
L 516.444192 504.510719 
L 519.51545 504.963212 
L 522.84513 505.421228 
L 525.591463 506.324518 
L 528.152555 507.139569 
L 529.861612 507.603532 
L 538.843085 510.1546 
L 541.002367 510.768006 
L 547.953916 512.290332 
L 548.010396 512.507881 
L 548.066141 512.72555 
L 548.121153 512.943448 
L 548.175533 513.161359 
L 548.229179 513.379392 
L 548.281987 513.597654 
L 549.701735 519.556276 
L 550.513081 519.768324 
L 550.879388 519.740834 
L 552.967928 513.387639 
L 559.022345 513.831444 
L 563.298548 504.802658 
L 563.885703 503.565453 
L 566.724049 497.571316 
L 566.897751 497.20863 
L 567.152126 496.666267 
L 567.354162 496.245382 
L 567.39924 496.196642 
L 568.215994 494.608312 
L 570.737782 489.836797 
L 572.56101 485.966869 
L 573.161765 484.699163 
L 573.529947 483.81952 
L 573.872945 483.002338 
L 574.707525 481.007425 
L 577.069079 475.370532 
L 578.020824 473.099754 
L 578.692321 471.494872 
L 579.242476 470.180848 
L 580.722399 466.649885 
L 580.845471 466.356031 
L 581.078001 465.800949 
L 581.147053 465.633891 
L 581.69294 464.68412 
L 581.919134 464.290603 
L 583.633508 461.308086 
L 584.175304 460.363584 
L 585.578156 460.840042 
L 590.749044 461.400883 
L 595.843045 461.5955 
L 600.874363 461.988883 
L 606.117577 462.09339 
L 611.018608 462.178916 
L 613.968592 461.993257 
L 616.113199 461.858492 
L 622.636364 460.978696 
L 611.260398 449.192584 
L 610.503344 448.448179 
L 609.713645 447.748226 
L 609.588084 447.648713 
L 609.286221 447.409473 
L 608.64882 446.901211 
L 607.785706 446.294353 
L 606.901723 445.730845 
L 605.273109 444.757351 
L 603.402922 443.639448 
L 596.194214 439.341123 
L 595.285993 438.797815 
L 594.517092 438.33851 
L 590.429726 435.892549 
L 586.540242 433.56515 
L 581.116126 430.313645 
L 579.961058 429.62745 
L 581.039878 426.835709 
L 581.271987 426.236372 
L 583.79872 419.708906 
L 585.156811 416.202498 
L 585.811245 414.501759 
L 595.696825 416.758603 
L 598.749615 417.45538 
L 598.26769 414.212929 
L 597.857625 411.464482 
L 597.232955 407.260624 
L 597.150281 406.710653 
L 589.72547 404.387622 
L 590.146843 403.314661 
L 590.253487 400.790702 
L 590.28607 400.032519 
L 590.641115 395.987336 
L 590.799264 394.178095 
L 590.877845 393.29192 
L 590.930948 392.692071 
L 590.829555 391.894028 
L 590.617588 390.225696 
L 589.208384 388.513641 
L 587.847256 381.116981 
L 587.677349 375.757356 
L 587.407346 367.352299 
L 587.23338 361.845601 
L 587.222361 360.935346 
L 587.21008 359.920746 
L 586.727031 354.495827 
L 586.648719 353.600623 
L 586.407595 353.638233 
L 585.485374 353.774963 
L 584.734013 353.894429 
L 584.67363 353.903992 
L 584.264407 353.969479 
L 582.984023 354.174279 
L 582.438079 354.261673 
L 580.927412 354.50343 
L 578.437638 354.901775 
L 575.928335 355.303201 
L 573.456527 355.698746 
L 572.712327 355.817755 
L 570.962325 356.096484 
L 568.451839 356.496282 
L 565.607323 356.954345 
L 562.287894 357.446513 
L 561.075921 357.62747 
L 560.572291 357.70276 
L 557.249378 358.199052 
L 556.470249 358.315472 
L 553.274075 358.795694 
L 553.19346 358.226775 
L 553.143944 357.875328 
L 552.949818 356.44262 
L 552.478363 352.962384 
L 552.477735 352.957753 
L 552.454082 352.786812 
L 552.316388 351.780934 
L 552.025854 349.674222 
L 550.971161 341.916276 
L 547.25921 314.672979 
L 545.405762 301.05826 
L 544.084899 293.114228 
L 543.856003 291.737224 
L 542.95111 286.294472 
L 542.826466 285.54471 
L 538.531562 259.712615 
L 537.472272 253.341806 
L 533.556055 229.790524 
L 532.953454 226.166882 
L 529.711923 206.674 
L 528.998043 202.381022 
L 526.841281 203.499954 
L 512.736802 210.818538 
L 510.747277 211.850814 
L 510.362724 213.952211 
L 509.537436 213.804761 
L 485.714466 209.385829 
L 481.767878 208.653479 
L 481.50424 208.595182 
L 481.234383 208.527303 
L 480.972834 208.448993 
L 480.713427 208.357852 
L 480.451833 208.258309 
L 480.206018 208.142993 
L 479.855655 207.96132 
L 480.098957 206.55943 
L 480.773057 202.67689 
L 481.138608 200.574518 
L 477.11195 185.356351 
L 476.18187 178.188576 
L 475.849582 175.621588 
L 476.487774 172.769765 
L 476.752743 169.464954 
L 476.832844 168.45428 
L 477.193172 163.960238 
L 477.37973 163.982946 
L 477.905754 158.15687 
L 478.225926 154.653497 
L 477.142679 154.290373 
L 476.496154 154.07479 
L 462.508633 149.123377 
L 461.425763 148.744959 
L 460.340126 148.374951 
L 459.251512 148.013463 
L 458.160133 147.660489 
L 457.066094 147.316029 
L 455.969395 146.980081 
L 454.870246 146.652641 
L 453.768649 146.333709 
L 452.664499 146.023394 
L 451.558009 145.72169 
L 450.449284 145.4287 
L 449.338219 145.144322 
L 448.225032 144.868974 
L 447.10982 144.602229 
L 445.99248 144.344197 
L 444.873223 144.094873 
L 443.752051 143.854363 
L 442.629068 143.622557 
L 441.514121 143.401457 
L 440.397465 143.188955 
L 439.279312 142.985046 
L 438.159558 142.789837 
L 437.038306 142.603221 
L 435.856654 142.416892 
L 435.743781 142.399219 
L 434.08622 141.319037 
L 413.950439 140.594949 
L 398.629364 140.043414 
L 396.888652 139.980762 
L 394.071169 139.87956 
L 393.20661 138.971475 
L 391.217543 138.976177 
L 391.231756 136.176921 
L 391.243184 133.822278 
L 391.254902 131.551933 
L 391.265509 129.283831 
L 391.265439 129.280663 
L 391.273178 127.733753 
L 391.28642 124.981003 
L 391.288304 124.567046 
L 391.296921 122.665363 
L 391.31379 119.391917 
L 388.574049 119.359583 
L 386.572961 119.334355 
L 380.014436 119.254306 
L 377.696161 119.225939 
L 375.37791 119.19864 
L 373.323058 119.173607 
L 373.268218 119.172718 
L 369.536988 119.132187 
L 368.842281 119.124454 
L 368.100443 119.116402 
L 351.982298 118.939009 
L 351.553644 118.934331 
L 338.272103 118.788608 
L 337.800635 118.783421 
L 335.537677 118.758654 
L 335.25003 118.756432 
L 334.403046 118.746768 
L 334.317421 118.745833 
L 334.24669 123.776405 
L 334.219222 125.716862 
L 334.180988 128.422636 
L 334.156869 130.059396 
L 333.39506 130.043918 
L 332.105378 130.032023 
L 330.525723 130.01733 
L 330.08054 130.013251 
L 329.965183 130.012138 
L 329.684897 130.008803 
L 329.366771 130.005788 
L 325.089421 129.965242 
L 321.540691 129.93164 
L 321.351098 129.929657 
L 320.578608 129.922149 
L 317.941131 129.897299 
L 316.815715 129.886302 
L 314.771372 129.8675 
L 314.03453 129.860681 
L 313.11717 129.852313 
L 313.000971 129.851223 
L 308.996087 129.813361 
L 306.499782 129.789099 
L 305.674998 129.781414 
L 305.531383 129.780095 
L 304.233367 129.768035 
L 303.598907 129.761996 
L 299.140511 129.720131 
L 297.928797 129.706359 
L 282.47589 129.559618 
L 282.269112 129.557614 
L 281.898683 129.554009 
L 279.391308 129.529916 
L 279.069805 129.526797 
L 278.682505 129.523045 
L 276.515173 129.501457 
L 276.198204 129.498343 
L 273.614044 129.472626 
L 273.458406 129.471059 
L 271.592965 129.452521 
L 271.029568 129.446929 
L 270.879098 129.445458 
L 268.820902 129.425037 
L 268.646494 129.42326 
L 268.116736 129.418076 
L 266.869205 129.405606 
L 266.162192 129.398606 
L 263.161097 129.368705 
L 261.890589 129.356448 
L 261.851469 129.356062 
L 260.500294 129.342985 
L 259.168626 129.330105 
L 257.846554 129.31733 
L 256.635201 129.305654 
L 256.333943 129.302726 
L 256.068327 129.300157 
L 254.86689 129.28879 
L 253.508023 129.275905 
L 252.165183 129.26319 
L 250.835314 129.250608 
L 249.046128 129.233707 
L 248.925182 129.232527 
L 248.465018 129.228011 
L 246.603803 129.209997 
L 245.100256 129.195327 
L 243.072121 129.175704 
L 240.985564 129.155295 
L 238.893631 129.13491 
L 237.679848 129.123122 
L 231.55485 129.064119 
L 229.579755 129.045147 
L 228.93915 129.037859 
L 228.897873 129.143063 
L 228.858787 129.242619 
L 228.641498 129.785471 
L 228.220952 129.775325 
L 228.364952 129.976493 
L 227.41958 132.597453 
L 225.962028 136.653976 
L 225.688512 137.415247 
L 224.741106 140.052165 
L 223.846899 142.542033 
L 222.062707 147.50689 
L 219.354147 155.041968 
L 215.781768 164.977095 
L 212.183143 174.901751 
L 210.87137 178.479832 
L 210.456562 179.611378 
L 209.185199 183.087236 
L 208.498883 184.963492 
L 205.335841 193.694485 
L 202.158984 202.434581 
L 199.311467 210.246966 
L 199.369492 210.267942 
L 198.384626 212.985148 
L 198.467996 213.017594 
L 197.963676 214.851393 
L 194.2061 225.231842 
L 193.822886 229.101105 
L 193.69377 230.404519 
L 193.616525 231.194591 
L 192.917729 238.444881 
L 192.862097 239.071665 
L 192.811429 239.698864 
L 192.765513 240.326484 
L 192.724557 240.954415 
L 192.682501 241.692346 
L 192.647302 242.430545 
L 192.618751 243.169121 
L 192.596024 243.941583 
L 192.580576 244.714302 
L 192.572506 245.487065 
L 192.589905 248.645028 
L 192.623345 248.842459 
L 192.786262 249.658675 
L 192.841393 249.931896 
L 193.128499 251.354756 
L 193.259665 252.034354 
L 193.596416 252.866174 
L 194.395705 254.868407 
L 194.795829 255.743691 
L 196.588307 259.663901 
L 198.138005 262.335086 
L 198.382858 262.756555 
L 198.440108 262.85562 
L 199.007135 263.832453 
L 199.398772 264.257251 
L 199.596188 264.468082 
L 200.131905 265.20634 
L 202.550277 268.076121 
L 203.047777 268.751121 
L 203.435158 269.258633 
L 203.699658 269.593558 
L 205.039662 271.081749 
L 205.937905 271.89896 
L 206.863336 272.617941 
L 207.983843 273.439631 
L 209.092761 274.214891 
L 210.825564 275.395546 
L 212.46312 276.456132 
L 213.970559 277.350424 
L 215.623517 278.281151 
L 215.860868 278.39854 
L 216.098325 278.515927 
L 216.342093 278.6281 
L 216.597227 278.70209 
L 219.303357 279.572026 
L 221.270511 280.02227 
L 221.965251 280.181401 
L 224.280389 280.710627 
L 225.08732 280.712985 
L 225.461741 280.805094 
L 224.841139 291.131112 
L 223.581968 291.202368 
L 220.501715 291.350623 
L 220.378297 291.354999 
L 219.835624 291.176056 
L 219.29473 290.991896 
L 218.755613 290.802415 
L 218.422591 290.690464 
L 218.090159 290.576598 
L 217.758418 290.460709 
L 217.427695 290.343213 
L 217.097664 290.223694 
L 216.76843 290.10215 
L 216.439575 289.978697 
L 216.111718 289.852791 
L 215.784757 289.72454 
L 215.459012 289.59415 
L 215.134266 289.461307 
L 214.810415 289.32612 
L 214.486044 289.191262 
L 214.163077 289.053203 
L 213.841511 288.911838 
L 213.521141 288.767487 
L 213.202281 288.619933 
L 212.884823 288.469179 
L 212.580555 288.307396 
L 211.402523 287.365461 
L 210.773406 286.586942 
L 209.364134 284.889227 
L 209.198992 284.70703 
L 209.030551 284.528078 
L 208.8587 284.352161 
L 208.68376 284.179483 
L 208.494322 283.999528 
L 208.301387 283.823349 
L 208.104955 283.651052 
L 207.905239 283.482633 
L 203.010925 279.505964 
L 202.66725 279.216464 
L 202.327373 278.922441 
L 201.991297 278.624107 
L 201.924061 278.563511 
L 202.013246 278.452359 
L 200.860656 276.927498 
L 200.487176 276.480101 
L 197.848648 273.88989 
L 196.569259 272.552472 
L 195.311703 271.435678 
L 195.316935 271.429326 
L 195.196463 271.326201 
L 195.140451 271.258695 
L 193.277006 268.933117 
L 193.057949 268.627381 
L 192.103151 267.070482 
L 191.823464 266.623395 
L 191.08096 265.493138 
L 190.528547 264.492001 
L 190.149445 263.632831 
L 189.009466 261.068059 
L 188.445848 259.799686 
L 186.664194 260.726876 
L 186.08581 261.031575 
L 186.072276 261.034312 
L 185.171695 260.960716 
L 184.608359 260.914229 
L 184.455823 262.80345 
L 184.350187 263.64699 
L 183.649945 263.115003 
L 183.496201 263.01389 
L 180.90683 261.071426 
L 179.72417 260.170163 
L 176.334748 257.587239 
L 174.846559 256.453173 
L 174.580715 256.148507 
L 174.203893 255.727511 
L 174.169987 255.824015 
L 174.061958 256.131489 
L 173.964652 256.408441 
L 173.851716 256.729883 
L 173.597257 257.454211 
L 173.553135 257.493245 
L 173.380833 257.645948 
L 173.276941 257.737957 
L 171.983803 258.883672 
L 172.048412 259.881605 
L 172.135611 261.51057 
L 171.220178 263.213861 
L 171.259823 263.237892 
L 171.275956 263.205621 
L 171.473717 263.314592 
L 171.641061 263.406823 
L 172.131783 263.677328 
L 172.299553 263.76976 
L 172.915567 264.109259 
L 169.999112 272.120412 
L 167.206634 279.518668 
L 164.421532 286.922688 
L 161.626039 294.376403 
L 159.748907 299.684525 
L 158.76098 302.478264 
L 155.514385 312.688618 
L 152.286945 322.976104 
L 150.074896 329.750524 
L 147.026904 338.608917 
L 143.139027 349.680806 
L 142.902943 350.353646 
L 140.286444 357.809964 
L 139.454224 360.112138 
L 138.492145 362.773573 
L 136.732463 367.747386 
L 134.986646 372.722476 
L 133.202146 377.686304 
L 131.330203 382.61674 
L 129.435675 387.539459 
L 128.535305 389.872661 
L 127.501453 392.452632 
L 125.41633 397.298576 
L 124.326634 399.867995 
L 123.339065 402.256969 
L 122.130283 405.242498 
L 121.637856 406.480164 
L 120.634923 409.198579 
L 120.112096 410.777119 
L 119.257981 410.752868 
L 119.260836 410.739386 
L 118.462573 410.696958 
L 118.425603 410.822886 
L 118.38804 410.950517 
L 118.314181 411.201314 
L 117.748196 413.124821 
L 117.697715 413.296062 
L 117.405134 414.290203 
L 118.430578 414.593565 
L 117.742444 417.518207 
L 117.604734 418.103137 
L 117.434908 418.958196 
L 116.674222 422.789451 
L 116.636671 423.107878 
L 116.316044 425.832178 
L 116.143898 430.446674 
L 116.120549 432.411891 
L 116.112174 433.268336 
L 116.082336 436.739357 
L 116.077072 437.301192 
L 116.07686 437.324333 
L 116.064888 438.602491 
L 116.01136 444.297567 
L 116.131421 451.281252 
L 116.143822 451.999356 
L 116.680555 452.21023 
L 117.333531 452.376193 
L 117.388534 454.121994 
L 116.747228 453.959461 
L 116.086881 454.09734 
L 115.551804 454.570011 
L 115.363636 455.414713 
L 115.396084 455.646709 
L 115.596569 457.080599 
L 115.810721 458.968134 
L 115.859197 459.52568 
L 115.975493 460.861763 
L 116.091906 462.760086 
L 116.109198 463.684404 
L 116.089455 464.606293 
L 116.031706 465.524717 
L 116.857747 471.868668 
L 117.323549 473.648303 
L 118.346485 473.762722 
L 119.276278 477.73046 
L 120.356459 481.348253 
L 120.474732 481.708868 
L 120.776082 482.622146 
L 120.777126 482.625309 
L 120.9763 483.231712 
L 122.421044 487.489115 
L 123.987412 491.601232 
L 123.955397 492.33102 
L 126.750119 499.180819 
L 126.499557 500.605137 
L 127.838539 504.183977 
L 129.198666 507.822768 
L 131.173871 512.888015 
L 131.308214 512.777723 
L 133.365123 518.326345 
L 134.953257 522.974889 
L 135.231244 524.132132 
L 135.371238 524.959526 
L 135.773864 526.206052 
L 136.312682 527.856632 
L 137.258416 529.334509 
L 137.396376 529.644498 
L 138.690075 532.41674 
L 138.988217 533.310997 
L 140.52019 537.902733 
L 141.723519 541.575025 
L 142.29649 543.358475 
L 144.095741 546.753935 
L 145.097711 549.513502 
L 145.358466 550.283424 
L 147.42779 556.436006 
L 147.520412 556.726007 
L 149.312148 562.390705 
L 150.506432 566.23194 
L 151.754076 569.694915 
L 152.297634 571.200776 
L 152.923377 573.620712 
L 153.372887 573.907348 
L 153.655097 574.770071 
L 153.795651 575.200336 
L 154.206698 575.858318 
L 154.42679 576.210632 
L 154.689029 576.628198 
L 154.747705 576.721627 
L 154.10475 577.103055 
L 154.217888 577.420269 
L 155.602461 581.300079 
L 156.78058 583.913357 
L 159.099156 590.653198 
L 161.298141 597.198106 
L 162.677066 601.778914 
L 163.003802 602.856253 
L 163.189531 603.468577 
" clip-path="url(#p7efe721a7f)" style="fill: #d3d3d3"/>
   </g>
   <g id="matplotlib.axis_1">
    <g id="xtick_1">
     <g id="line2d_1">
      <defs>
       <path id="mabe9b0a51e" d="M 0 0 
L 0 3.5 
" style="stroke: #000000; stroke-width: 0.8"/>
      </defs>
      <g>
       <use xlink:href="#mabe9b0a51e" x="146.124238" y="632.939584" style="stroke: #000000; stroke-width: 0.8"/>
      </g>
     </g>
     <g id="text_1">
      <!-- 13.36 -->
      <g transform="translate(131.810175 647.538022) scale(0.1 -0.1)">
       <defs>
        <path id="DejaVuSans-31" d="M 794 531 
L 1825 531 
L 1825 4091 
L 703 3866 
L 703 4441 
L 1819 4666 
L 2450 4666 
L 2450 531 
L 3481 531 
L 3481 0 
L 794 0 
L 794 531 
z
" transform="scale(0.015625)"/>
        <path id="DejaVuSans-33" d="M 2597 2516 
Q 3050 2419 3304 2112 
Q 3559 1806 3559 1356 
Q 3559 666 3084 287 
Q 2609 -91 1734 -91 
Q 1441 -91 1130 -33 
Q 819 25 488 141 
L 488 750 
Q 750 597 1062 519 
Q 1375 441 1716 441 
Q 2309 441 2620 675 
Q 2931 909 2931 1356 
Q 2931 1769 2642 2001 
Q 2353 2234 1838 2234 
L 1294 2234 
L 1294 2753 
L 1863 2753 
Q 2328 2753 2575 2939 
Q 2822 3125 2822 3475 
Q 2822 3834 2567 4026 
Q 2313 4219 1838 4219 
Q 1578 4219 1281 4162 
Q 984 4106 628 3988 
L 628 4550 
Q 988 4650 1302 4700 
Q 1616 4750 1894 4750 
Q 2613 4750 3031 4423 
Q 3450 4097 3450 3541 
Q 3450 3153 3228 2886 
Q 3006 2619 2597 2516 
z
" transform="scale(0.015625)"/>
        <path id="DejaVuSans-2e" d="M 684 794 
L 1344 794 
L 1344 0 
L 684 0 
L 684 794 
z
" transform="scale(0.015625)"/>
        <path id="DejaVuSans-36" d="M 2113 2584 
Q 1688 2584 1439 2293 
Q 1191 2003 1191 1497 
Q 1191 994 1439 701 
Q 1688 409 2113 409 
Q 2538 409 2786 701 
Q 3034 994 3034 1497 
Q 3034 2003 2786 2293 
Q 2538 2584 2113 2584 
z
M 3366 4563 
L 3366 3988 
Q 3128 4100 2886 4159 
Q 2644 4219 2406 4219 
Q 1781 4219 1451 3797 
Q 1122 3375 1075 2522 
Q 1259 2794 1537 2939 
Q 1816 3084 2150 3084 
Q 2853 3084 3261 2657 
Q 3669 2231 3669 1497 
Q 3669 778 3244 343 
Q 2819 -91 2113 -91 
Q 1303 -91 875 529 
Q 447 1150 447 2328 
Q 447 3434 972 4092 
Q 1497 4750 2381 4750 
Q 2619 4750 2861 4703 
Q 3103 4656 3366 4563 
z
" transform="scale(0.015625)"/>
       </defs>
       <use xlink:href="#DejaVuSans-31"/>
       <use xlink:href="#DejaVuSans-33" x="63.623047"/>
       <use xlink:href="#DejaVuSans-2e" x="127.246094"/>
       <use xlink:href="#DejaVuSans-33" x="159.033203"/>
       <use xlink:href="#DejaVuSans-36" x="222.65625"/>
      </g>
     </g>
    </g>
    <g id="xtick_2">
     <g id="line2d_2">
      <g>
       <use xlink:href="#mabe9b0a51e" x="217.705207" y="632.939584" style="stroke: #000000; stroke-width: 0.8"/>
      </g>
     </g>
     <g id="text_2">
      <!-- 13.37 -->
      <g transform="translate(203.391144 647.538022) scale(0.1 -0.1)">
       <defs>
        <path id="DejaVuSans-37" d="M 525 4666 
L 3525 4666 
L 3525 4397 
L 1831 0 
L 1172 0 
L 2766 4134 
L 525 4134 
L 525 4666 
z
" transform="scale(0.015625)"/>
       </defs>
       <use xlink:href="#DejaVuSans-31"/>
       <use xlink:href="#DejaVuSans-33" x="63.623047"/>
       <use xlink:href="#DejaVuSans-2e" x="127.246094"/>
       <use xlink:href="#DejaVuSans-33" x="159.033203"/>
       <use xlink:href="#DejaVuSans-37" x="222.65625"/>
      </g>
     </g>
    </g>
    <g id="xtick_3">
     <g id="line2d_3">
      <g>
       <use xlink:href="#mabe9b0a51e" x="289.286176" y="632.939584" style="stroke: #000000; stroke-width: 0.8"/>
      </g>
     </g>
     <g id="text_3">
      <!-- 13.38 -->
      <g transform="translate(274.972113 647.538022) scale(0.1 -0.1)">
       <defs>
        <path id="DejaVuSans-38" d="M 2034 2216 
Q 1584 2216 1326 1975 
Q 1069 1734 1069 1313 
Q 1069 891 1326 650 
Q 1584 409 2034 409 
Q 2484 409 2743 651 
Q 3003 894 3003 1313 
Q 3003 1734 2745 1975 
Q 2488 2216 2034 2216 
z
M 1403 2484 
Q 997 2584 770 2862 
Q 544 3141 544 3541 
Q 544 4100 942 4425 
Q 1341 4750 2034 4750 
Q 2731 4750 3128 4425 
Q 3525 4100 3525 3541 
Q 3525 3141 3298 2862 
Q 3072 2584 2669 2484 
Q 3125 2378 3379 2068 
Q 3634 1759 3634 1313 
Q 3634 634 3220 271 
Q 2806 -91 2034 -91 
Q 1263 -91 848 271 
Q 434 634 434 1313 
Q 434 1759 690 2068 
Q 947 2378 1403 2484 
z
M 1172 3481 
Q 1172 3119 1398 2916 
Q 1625 2713 2034 2713 
Q 2441 2713 2670 2916 
Q 2900 3119 2900 3481 
Q 2900 3844 2670 4047 
Q 2441 4250 2034 4250 
Q 1625 4250 1398 4047 
Q 1172 3844 1172 3481 
z
" transform="scale(0.015625)"/>
       </defs>
       <use xlink:href="#DejaVuSans-31"/>
       <use xlink:href="#DejaVuSans-33" x="63.623047"/>
       <use xlink:href="#DejaVuSans-2e" x="127.246094"/>
       <use xlink:href="#DejaVuSans-33" x="159.033203"/>
       <use xlink:href="#DejaVuSans-38" x="222.65625"/>
      </g>
     </g>
    </g>
    <g id="xtick_4">
     <g id="line2d_4">
      <g>
       <use xlink:href="#mabe9b0a51e" x="360.867145" y="632.939584" style="stroke: #000000; stroke-width: 0.8"/>
      </g>
     </g>
     <g id="text_4">
      <!-- 13.39 -->
      <g transform="translate(346.553083 647.538022) scale(0.1 -0.1)">
       <defs>
        <path id="DejaVuSans-39" d="M 703 97 
L 703 672 
Q 941 559 1184 500 
Q 1428 441 1663 441 
Q 2288 441 2617 861 
Q 2947 1281 2994 2138 
Q 2813 1869 2534 1725 
Q 2256 1581 1919 1581 
Q 1219 1581 811 2004 
Q 403 2428 403 3163 
Q 403 3881 828 4315 
Q 1253 4750 1959 4750 
Q 2769 4750 3195 4129 
Q 3622 3509 3622 2328 
Q 3622 1225 3098 567 
Q 2575 -91 1691 -91 
Q 1453 -91 1209 -44 
Q 966 3 703 97 
z
M 1959 2075 
Q 2384 2075 2632 2365 
Q 2881 2656 2881 3163 
Q 2881 3666 2632 3958 
Q 2384 4250 1959 4250 
Q 1534 4250 1286 3958 
Q 1038 3666 1038 3163 
Q 1038 2656 1286 2365 
Q 1534 2075 1959 2075 
z
" transform="scale(0.015625)"/>
       </defs>
       <use xlink:href="#DejaVuSans-31"/>
       <use xlink:href="#DejaVuSans-33" x="63.623047"/>
       <use xlink:href="#DejaVuSans-2e" x="127.246094"/>
       <use xlink:href="#DejaVuSans-33" x="159.033203"/>
       <use xlink:href="#DejaVuSans-39" x="222.65625"/>
      </g>
     </g>
    </g>
    <g id="xtick_5">
     <g id="line2d_5">
      <g>
       <use xlink:href="#mabe9b0a51e" x="432.448114" y="632.939584" style="stroke: #000000; stroke-width: 0.8"/>
      </g>
     </g>
     <g id="text_5">
      <!-- 13.40 -->
      <g transform="translate(418.134052 647.538022) scale(0.1 -0.1)">
       <defs>
        <path id="DejaVuSans-34" d="M 2419 4116 
L 825 1625 
L 2419 1625 
L 2419 4116 
z
M 2253 4666 
L 3047 4666 
L 3047 1625 
L 3713 1625 
L 3713 1100 
L 3047 1100 
L 3047 0 
L 2419 0 
L 2419 1100 
L 313 1100 
L 313 1709 
L 2253 4666 
z
" transform="scale(0.015625)"/>
        <path id="DejaVuSans-30" d="M 2034 4250 
Q 1547 4250 1301 3770 
Q 1056 3291 1056 2328 
Q 1056 1369 1301 889 
Q 1547 409 2034 409 
Q 2525 409 2770 889 
Q 3016 1369 3016 2328 
Q 3016 3291 2770 3770 
Q 2525 4250 2034 4250 
z
M 2034 4750 
Q 2819 4750 3233 4129 
Q 3647 3509 3647 2328 
Q 3647 1150 3233 529 
Q 2819 -91 2034 -91 
Q 1250 -91 836 529 
Q 422 1150 422 2328 
Q 422 3509 836 4129 
Q 1250 4750 2034 4750 
z
" transform="scale(0.015625)"/>
       </defs>
       <use xlink:href="#DejaVuSans-31"/>
       <use xlink:href="#DejaVuSans-33" x="63.623047"/>
       <use xlink:href="#DejaVuSans-2e" x="127.246094"/>
       <use xlink:href="#DejaVuSans-34" x="159.033203"/>
       <use xlink:href="#DejaVuSans-30" x="222.65625"/>
      </g>
     </g>
    </g>
    <g id="xtick_6">
     <g id="line2d_6">
      <g>
       <use xlink:href="#mabe9b0a51e" x="504.029083" y="632.939584" style="stroke: #000000; stroke-width: 0.8"/>
      </g>
     </g>
     <g id="text_6">
      <!-- 13.41 -->
      <g transform="translate(489.715021 647.538022) scale(0.1 -0.1)">
       <use xlink:href="#DejaVuSans-31"/>
       <use xlink:href="#DejaVuSans-33" x="63.623047"/>
       <use xlink:href="#DejaVuSans-2e" x="127.246094"/>
       <use xlink:href="#DejaVuSans-34" x="159.033203"/>
       <use xlink:href="#DejaVuSans-31" x="222.65625"/>
      </g>
     </g>
    </g>
    <g id="xtick_7">
     <g id="line2d_7">
      <g>
       <use xlink:href="#mabe9b0a51e" x="575.610053" y="632.939584" style="stroke: #000000; stroke-width: 0.8"/>
      </g>
     </g>
     <g id="text_7">
      <!-- 13.42 -->
      <g transform="translate(561.29599 647.538022) scale(0.1 -0.1)">
       <defs>
        <path id="DejaVuSans-32" d="M 1228 531 
L 3431 531 
L 3431 0 
L 469 0 
L 469 531 
Q 828 903 1448 1529 
Q 2069 2156 2228 2338 
Q 2531 2678 2651 2914 
Q 2772 3150 2772 3378 
Q 2772 3750 2511 3984 
Q 2250 4219 1831 4219 
Q 1534 4219 1204 4116 
Q 875 4013 500 3803 
L 500 4441 
Q 881 4594 1212 4672 
Q 1544 4750 1819 4750 
Q 2544 4750 2975 4387 
Q 3406 4025 3406 3419 
Q 3406 3131 3298 2873 
Q 3191 2616 2906 2266 
Q 2828 2175 2409 1742 
Q 1991 1309 1228 531 
z
" transform="scale(0.015625)"/>
       </defs>
       <use xlink:href="#DejaVuSans-31"/>
       <use xlink:href="#DejaVuSans-33" x="63.623047"/>
       <use xlink:href="#DejaVuSans-2e" x="127.246094"/>
       <use xlink:href="#DejaVuSans-34" x="159.033203"/>
       <use xlink:href="#DejaVuSans-32" x="222.65625"/>
      </g>
     </g>
    </g>
    <g id="xtick_8">
     <g id="line2d_8">
      <g>
       <use xlink:href="#mabe9b0a51e" x="647.191022" y="632.939584" style="stroke: #000000; stroke-width: 0.8"/>
      </g>
     </g>
     <g id="text_8">
      <!-- 13.43 -->
      <g transform="translate(632.876959 647.538022) scale(0.1 -0.1)">
       <use xlink:href="#DejaVuSans-31"/>
       <use xlink:href="#DejaVuSans-33" x="63.623047"/>
       <use xlink:href="#DejaVuSans-2e" x="127.246094"/>
       <use xlink:href="#DejaVuSans-34" x="159.033203"/>
       <use xlink:href="#DejaVuSans-33" x="222.65625"/>
      </g>
     </g>
    </g>
   </g>
   <g id="matplotlib.axis_2">
    <g id="ytick_1">
     <g id="line2d_9">
      <defs>
       <path id="md09089e786" d="M 0 0 
L -3.5 0 
" style="stroke: #000000; stroke-width: 0.8"/>
      </defs>
      <g>
       <use xlink:href="#md09089e786" x="90" y="539.701121" style="stroke: #000000; stroke-width: 0.8"/>
      </g>
     </g>
     <g id="text_9">
      <!-- 52.45 -->
      <g transform="translate(54.371875 543.50034) scale(0.1 -0.1)">
       <defs>
        <path id="DejaVuSans-35" d="M 691 4666 
L 3169 4666 
L 3169 4134 
L 1269 4134 
L 1269 2991 
Q 1406 3038 1543 3061 
Q 1681 3084 1819 3084 
Q 2600 3084 3056 2656 
Q 3513 2228 3513 1497 
Q 3513 744 3044 326 
Q 2575 -91 1722 -91 
Q 1428 -91 1123 -41 
Q 819 9 494 109 
L 494 744 
Q 775 591 1075 516 
Q 1375 441 1709 441 
Q 2250 441 2565 725 
Q 2881 1009 2881 1497 
Q 2881 1984 2565 2268 
Q 2250 2553 1709 2553 
Q 1456 2553 1204 2497 
Q 953 2441 691 2322 
L 691 4666 
z
" transform="scale(0.015625)"/>
       </defs>
       <use xlink:href="#DejaVuSans-35"/>
       <use xlink:href="#DejaVuSans-32" x="63.623047"/>
       <use xlink:href="#DejaVuSans-2e" x="127.246094"/>
       <use xlink:href="#DejaVuSans-34" x="159.033203"/>
       <use xlink:href="#DejaVuSans-35" x="222.65625"/>
      </g>
     </g>
    </g>
    <g id="ytick_2">
     <g id="line2d_10">
      <g>
       <use xlink:href="#md09089e786" x="90" y="422.202745" style="stroke: #000000; stroke-width: 0.8"/>
      </g>
     </g>
     <g id="text_10">
      <!-- 52.46 -->
      <g transform="translate(54.371875 426.001964) scale(0.1 -0.1)">
       <use xlink:href="#DejaVuSans-35"/>
       <use xlink:href="#DejaVuSans-32" x="63.623047"/>
       <use xlink:href="#DejaVuSans-2e" x="127.246094"/>
       <use xlink:href="#DejaVuSans-34" x="159.033203"/>
       <use xlink:href="#DejaVuSans-36" x="222.65625"/>
      </g>
     </g>
    </g>
    <g id="ytick_3">
     <g id="line2d_11">
      <g>
       <use xlink:href="#md09089e786" x="90" y="304.70437" style="stroke: #000000; stroke-width: 0.8"/>
      </g>
     </g>
     <g id="text_11">
      <!-- 52.47 -->
      <g transform="translate(54.371875 308.503589) scale(0.1 -0.1)">
       <use xlink:href="#DejaVuSans-35"/>
       <use xlink:href="#DejaVuSans-32" x="63.623047"/>
       <use xlink:href="#DejaVuSans-2e" x="127.246094"/>
       <use xlink:href="#DejaVuSans-34" x="159.033203"/>
       <use xlink:href="#DejaVuSans-37" x="222.65625"/>
      </g>
     </g>
    </g>
    <g id="ytick_4">
     <g id="line2d_12">
      <g>
       <use xlink:href="#md09089e786" x="90" y="187.205994" style="stroke: #000000; stroke-width: 0.8"/>
      </g>
     </g>
     <g id="text_12">
      <!-- 52.48 -->
      <g transform="translate(54.371875 191.005213) scale(0.1 -0.1)">
       <use xlink:href="#DejaVuSans-35"/>
       <use xlink:href="#DejaVuSans-32" x="63.623047"/>
       <use xlink:href="#DejaVuSans-2e" x="127.246094"/>
       <use xlink:href="#DejaVuSans-34" x="159.033203"/>
       <use xlink:href="#DejaVuSans-38" x="222.65625"/>
      </g>
     </g>
    </g>
   </g>
   <g id="LineCollection_1">
    <path d="M 315.524896 484.885779 
L 311.128393 484.317087 
L 301.82573 483.130353 
L 295.780001 482.25734 
L 294.820101 482.043493 
" clip-path="url(#p7efe721a7f)" style="fill: none; stroke: #ff0000; stroke-opacity: 0.7; stroke-width: 0.5"/>
    <path d="M 160.501275 447.516596 
L 160.540645 446.986678 
L 160.73964 444.475738 
L 160.892823 442.065846 
L 161.013079 441.03891 
L 161.36311 440.024899 
L 161.977991 439.055537 
L 162.42394 438.647818 
L 163.36523 437.845304 
L 165.645084 435.824332 
L 167.569896 434.046582 
L 167.728806 433.739911 
L 169.066654 433.282842 
" clip-path="url(#p7efe721a7f)" style="fill: none; stroke: #ff0000; stroke-opacity: 0.7; stroke-width: 0.5"/>
    <path d="M 317.995871 373.083725 
L 319.756763 373.221198 
L 327.667176 372.021539 
" clip-path="url(#p7efe721a7f)" style="fill: none; stroke: #ff0000; stroke-opacity: 0.7; stroke-width: 0.5"/>
    <path d="M 320.952165 429.871864 
L 321.838337 429.988188 
" clip-path="url(#p7efe721a7f)" style="fill: none; stroke: #ff0000; stroke-opacity: 0.7; stroke-width: 0.5"/>
    <path d="M 212.010225 179.15853 
L 220.735229 179.216105 
L 222.355822 179.20318 
L 222.952808 179.112706 
L 223.656448 178.85656 
L 224.423081 178.348967 
L 225.158933 177.974147 
L 225.763792 177.809649 
L 226.405874 177.701551 
L 228.331402 177.718 
L 228.924808 177.71565 
L 229.838181 177.913048 
L 230.033597 178.11162 
L 230.11162 178.245568 
L 230.382912 178.709687 
" clip-path="url(#p7efe721a7f)" style="fill: none; stroke: #ff0000; stroke-opacity: 0.7; stroke-width: 0.5"/>
    <path d="M 216.134004 414.846172 
L 217.189108 414.98012 
L 217.355176 415.00127 
L 217.997257 415.081169 
L 226.962058 416.301977 
L 236.194571 417.672008 
L 236.901075 417.776582 
L 237.514524 417.86823 
L 252.050472 420.021976 
L 252.532927 420.087775 
L 258.993826 420.966663 
L 262.324488 421.407281 
" clip-path="url(#p7efe721a7f)" style="fill: none; stroke: #ff0000; stroke-opacity: 0.7; stroke-width: 0.5"/>
    <path d="M 294.820101 482.043493 
L 293.012681 480.778036 
L 287.824493 477.013388 
L 287.518126 476.791316 
" clip-path="url(#p7efe721a7f)" style="fill: none; stroke: #ff0000; stroke-opacity: 0.7; stroke-width: 0.5"/>
    <path d="M 257.417613 274.840983 
L 259.230759 272.327692 
L 259.443354 272.327692 
L 259.919367 271.695551 
L 262.082544 268.842691 
" clip-path="url(#p7efe721a7f)" style="fill: none; stroke: #ff0000; stroke-opacity: 0.7; stroke-width: 0.5"/>
    <path d="M 323.29 430.183235 
L 328.244834 430.869426 
L 328.808176 430.9458 
L 331.409429 431.25482 
L 332.048647 431.331194 
L 332.763741 431.448693 
L 338.915409 432.458004 
L 339.585407 432.554352 
" clip-path="url(#p7efe721a7f)" style="fill: none; stroke: #ff0000; stroke-opacity: 0.7; stroke-width: 0.5"/>
    <path d="M 263.46692 421.572954 
L 264.093254 421.663428 
L 264.689523 421.749202 
" clip-path="url(#p7efe721a7f)" style="fill: none; stroke: #ff0000; stroke-opacity: 0.7; stroke-width: 0.5"/>
    <path d="M 265.718858 421.89725 
L 281.458081 424.174368 
L 282.194649 424.278942 
L 282.795929 424.364716 
L 300.245222 426.831006 
L 301.004696 426.93793 
" clip-path="url(#p7efe721a7f)" style="fill: none; stroke: #ff0000; stroke-opacity: 0.7; stroke-width: 0.5"/>
    <path d="M 302.283848 427.127102 
L 308.192141 428.002465 
L 318.982973 429.599268 
" clip-path="url(#p7efe721a7f)" style="fill: none; stroke: #ff0000; stroke-opacity: 0.7; stroke-width: 0.5"/>
    <path d="M 259.919367 271.695551 
L 259.202842 271.707301 
L 258.964477 272.321817 
L 259.230759 272.327692 
" clip-path="url(#p7efe721a7f)" style="fill: none; stroke: #ff0000; stroke-opacity: 0.7; stroke-width: 0.5"/>
    <path d="M 327.667176 372.021539 
L 327.995017 371.966315 
L 328.872599 371.838242 
" clip-path="url(#p7efe721a7f)" style="fill: none; stroke: #ff0000; stroke-opacity: 0.7; stroke-width: 0.5"/>
    <path d="M 319.49764 429.670942 
L 319.831923 429.716767 
L 320.952165 429.871864 
" clip-path="url(#p7efe721a7f)" style="fill: none; stroke: #ff0000; stroke-opacity: 0.7; stroke-width: 0.5"/>
    <path d="M 321.838337 429.988188 
L 322.977906 430.125661 
L 323.29 430.183235 
" clip-path="url(#p7efe721a7f)" style="fill: none; stroke: #ff0000; stroke-opacity: 0.7; stroke-width: 0.5"/>
    <path d="M 318.289353 485.045577 
L 317.320147 485.038527 
" clip-path="url(#p7efe721a7f)" style="fill: none; stroke: #ff0000; stroke-opacity: 0.7; stroke-width: 0.5"/>
    <path d="M 317.320147 485.038527 
L 316.855586 485.037352 
L 315.524896 484.885779 
" clip-path="url(#p7efe721a7f)" style="fill: none; stroke: #ff0000; stroke-opacity: 0.7; stroke-width: 0.5"/>
    <path d="M 211.817672 179.092731 
L 211.889253 179.117406 
L 212.010225 179.15853 
" clip-path="url(#p7efe721a7f)" style="fill: none; stroke: #ff0000; stroke-opacity: 0.7; stroke-width: 0.5"/>
    <path d="M 301.004696 426.93793 
L 301.608124 427.027229 
L 302.283848 427.127102 
" clip-path="url(#p7efe721a7f)" style="fill: none; stroke: #ff0000; stroke-opacity: 0.7; stroke-width: 0.5"/>
    <path d="M 318.982973 429.599268 
L 319.49764 429.670942 
" clip-path="url(#p7efe721a7f)" style="fill: none; stroke: #ff0000; stroke-opacity: 0.7; stroke-width: 0.5"/>
    <path d="M 211.474799 178.976408 
L 211.817672 179.092731 
" clip-path="url(#p7efe721a7f)" style="fill: none; stroke: #ff0000; stroke-opacity: 0.7; stroke-width: 0.5"/>
    <path d="M 262.324488 421.407281 
L 262.67953 421.458981 
L 263.46692 421.572954 
" clip-path="url(#p7efe721a7f)" style="fill: none; stroke: #ff0000; stroke-opacity: 0.7; stroke-width: 0.5"/>
    <path d="M 264.689523 421.749202 
L 265.505546 421.8667 
L 265.718858 421.89725 
" clip-path="url(#p7efe721a7f)" style="fill: none; stroke: #ff0000; stroke-opacity: 0.7; stroke-width: 0.5"/>
   </g>
   <g id="patch_3">
    <path d="M 90 632.939584 
L 90 94.260416 
" style="fill: none; stroke: #000000; stroke-width: 0.8; stroke-linejoin: miter; stroke-linecap: square"/>
   </g>
   <g id="patch_4">
    <path d="M 648 632.939584 
L 648 94.260416 
" style="fill: none; stroke: #000000; stroke-width: 0.8; stroke-linejoin: miter; stroke-linecap: square"/>
   </g>
   <g id="patch_5">
    <path d="M 90 632.939584 
L 648 632.939584 
" style="fill: none; stroke: #000000; stroke-width: 0.8; stroke-linejoin: miter; stroke-linecap: square"/>
   </g>
   <g id="patch_6">
    <path d="M 90 94.260416 
L 648 94.260416 
" style="fill: none; stroke: #000000; stroke-width: 0.8; stroke-linejoin: miter; stroke-linecap: square"/>
   </g>
   <g id="text_13">
    <!-- Tempelhof -->
    <g transform="translate(314.607684 353.265077) scale(0.12 -0.12)">
     <defs>
      <path id="DejaVuSans-54" d="M -19 4666 
L 3928 4666 
L 3928 4134 
L 2272 4134 
L 2272 0 
L 1638 0 
L 1638 4134 
L -19 4134 
L -19 4666 
z
" transform="scale(0.015625)"/>
      <path id="DejaVuSans-65" d="M 3597 1894 
L 3597 1613 
L 953 1613 
Q 991 1019 1311 708 
Q 1631 397 2203 397 
Q 2534 397 2845 478 
Q 3156 559 3463 722 
L 3463 178 
Q 3153 47 2828 -22 
Q 2503 -91 2169 -91 
Q 1331 -91 842 396 
Q 353 884 353 1716 
Q 353 2575 817 3079 
Q 1281 3584 2069 3584 
Q 2775 3584 3186 3129 
Q 3597 2675 3597 1894 
z
M 3022 2063 
Q 3016 2534 2758 2815 
Q 2500 3097 2075 3097 
Q 1594 3097 1305 2825 
Q 1016 2553 972 2059 
L 3022 2063 
z
" transform="scale(0.015625)"/>
      <path id="DejaVuSans-6d" d="M 3328 2828 
Q 3544 3216 3844 3400 
Q 4144 3584 4550 3584 
Q 5097 3584 5394 3201 
Q 5691 2819 5691 2113 
L 5691 0 
L 5113 0 
L 5113 2094 
Q 5113 2597 4934 2840 
Q 4756 3084 4391 3084 
Q 3944 3084 3684 2787 
Q 3425 2491 3425 1978 
L 3425 0 
L 2847 0 
L 2847 2094 
Q 2847 2600 2669 2842 
Q 2491 3084 2119 3084 
Q 1678 3084 1418 2786 
Q 1159 2488 1159 1978 
L 1159 0 
L 581 0 
L 581 3500 
L 1159 3500 
L 1159 2956 
Q 1356 3278 1631 3431 
Q 1906 3584 2284 3584 
Q 2666 3584 2933 3390 
Q 3200 3197 3328 2828 
z
" transform="scale(0.015625)"/>
      <path id="DejaVuSans-70" d="M 1159 525 
L 1159 -1331 
L 581 -1331 
L 581 3500 
L 1159 3500 
L 1159 2969 
Q 1341 3281 1617 3432 
Q 1894 3584 2278 3584 
Q 2916 3584 3314 3078 
Q 3713 2572 3713 1747 
Q 3713 922 3314 415 
Q 2916 -91 2278 -91 
Q 1894 -91 1617 61 
Q 1341 213 1159 525 
z
M 3116 1747 
Q 3116 2381 2855 2742 
Q 2594 3103 2138 3103 
Q 1681 3103 1420 2742 
Q 1159 2381 1159 1747 
Q 1159 1113 1420 752 
Q 1681 391 2138 391 
Q 2594 391 2855 752 
Q 3116 1113 3116 1747 
z
" transform="scale(0.015625)"/>
      <path id="DejaVuSans-6c" d="M 603 4863 
L 1178 4863 
L 1178 0 
L 603 0 
L 603 4863 
z
" transform="scale(0.015625)"/>
      <path id="DejaVuSans-68" d="M 3513 2113 
L 3513 0 
L 2938 0 
L 2938 2094 
Q 2938 2591 2744 2837 
Q 2550 3084 2163 3084 
Q 1697 3084 1428 2787 
Q 1159 2491 1159 1978 
L 1159 0 
L 581 0 
L 581 4863 
L 1159 4863 
L 1159 2956 
Q 1366 3272 1645 3428 
Q 1925 3584 2291 3584 
Q 2894 3584 3203 3211 
Q 3513 2838 3513 2113 
z
" transform="scale(0.015625)"/>
      <path id="DejaVuSans-6f" d="M 1959 3097 
Q 1497 3097 1228 2736 
Q 959 2375 959 1747 
Q 959 1119 1226 758 
Q 1494 397 1959 397 
Q 2419 397 2687 759 
Q 2956 1122 2956 1747 
Q 2956 2369 2687 2733 
Q 2419 3097 1959 3097 
z
M 1959 3584 
Q 2709 3584 3137 3096 
Q 3566 2609 3566 1747 
Q 3566 888 3137 398 
Q 2709 -91 1959 -91 
Q 1206 -91 779 398 
Q 353 888 353 1747 
Q 353 2609 779 3096 
Q 1206 3584 1959 3584 
z
" transform="scale(0.015625)"/>
      <path id="DejaVuSans-66" d="M 2375 4863 
L 2375 4384 
L 1825 4384 
Q 1516 4384 1395 4259 
Q 1275 4134 1275 3809 
L 1275 3500 
L 2222 3500 
L 2222 3053 
L 1275 3053 
L 1275 0 
L 697 0 
L 697 3053 
L 147 3053 
L 147 3500 
L 697 3500 
L 697 3744 
Q 697 4328 969 4595 
Q 1241 4863 1831 4863 
L 2375 4863 
z
" transform="scale(0.015625)"/>
     </defs>
     <use xlink:href="#DejaVuSans-54"/>
     <use xlink:href="#DejaVuSans-65" x="44.083984"/>
     <use xlink:href="#DejaVuSans-6d" x="105.607422"/>
     <use xlink:href="#DejaVuSans-70" x="203.019531"/>
     <use xlink:href="#DejaVuSans-65" x="266.496094"/>
     <use xlink:href="#DejaVuSans-6c" x="328.019531"/>
     <use xlink:href="#DejaVuSans-68" x="355.802734"/>
     <use xlink:href="#DejaVuSans-6f" x="419.181641"/>
     <use xlink:href="#DejaVuSans-66" x="480.363281"/>
    </g>
   </g>
  </g>
 </g>
 <defs>
  <clipPath id="p7efe721a7f">
   <rect x="90" y="94.260416" width="558" height="538.679168"/>
  </clipPath>
 </defs>
</svg>
