<?xml version="1.0" encoding="utf-8" standalone="no"?>
<!DOCTYPE svg PUBLIC "-//W3C//DTD SVG 1.1//EN"
  "http://www.w3.org/Graphics/SVG/1.1/DTD/svg11.dtd">
<svg xmlns:xlink="http://www.w3.org/1999/xlink" width="720pt" height="720pt" viewBox="0 0 720 720" xmlns="http://www.w3.org/2000/svg" version="1.1">
 <metadata>
  <rdf:RDF xmlns:dc="http://purl.org/dc/elements/1.1/" xmlns:cc="http://creativecommons.org/ns#" xmlns:rdf="http://www.w3.org/1999/02/22-rdf-syntax-ns#">
   <cc:Work>
    <dc:type rdf:resource="http://purl.org/dc/dcmitype/StillImage"/>
    <dc:date>2024-10-22T09:54:09.478692</dc:date>
    <dc:format>image/svg+xml</dc:format>
    <dc:creator>
     <cc:Agent>
      <dc:title>Matplotlib v3.9.2, https://matplotlib.org/</dc:title>
     </cc:Agent>
    </dc:creator>
   </cc:Work>
  </rdf:RDF>
 </metadata>
 <defs>
  <style type="text/css">*{stroke-linejoin: round; stroke-linecap: butt}</style>
 </defs>
 <g id="figure_1">
  <g id="patch_1">
   <path d="M 0 720 
L 720 720 
L 720 0 
L 0 0 
z
" style="fill: #ffffff"/>
  </g>
  <g id="axes_1">
   <g id="patch_2">
    <path d="M 150.263874 640.8 
L 587.736126 640.8 
L 587.736126 86.4 
L 150.263874 86.4 
z
" style="fill: #ffffff"/>
   </g>
   <g id="PatchCollection_1">
    <path d="M 548.183621 536.455044 
L 549.121823 535.694817 
L 550.180226 534.687774 
L 562.791267 522.690113 
L 563.010669 522.485703 
L 563.772127 521.775903 
L 563.628529 521.621431 
L 562.607963 520.961096 
L 561.886455 520.176019 
L 561.887663 520.150667 
L 561.890753 520.048399 
L 561.987785 519.956558 
L 560.031314 517.83476 
L 558.777376 516.474573 
L 556.887498 514.425242 
L 563.37903 508.564011 
L 563.65387 508.316386 
L 564.800597 507.28105 
L 566.240388 505.981223 
L 567.851024 504.543223 
L 565.679869 502.141856 
L 565.735411 502.091604 
L 565.856077 501.982589 
L 564.919883 500.945091 
L 564.288114 500.232178 
L 564.050809 499.969545 
L 563.014633 498.822805 
L 562.596705 498.360343 
L 559.886495 495.37047 
L 559.540661 494.988919 
L 559.304868 494.728881 
L 558.65949 494.012803 
L 558.177136 493.477663 
L 556.830568 491.985702 
L 556.8158 491.999562 
L 555.95949 491.052176 
L 553.117257 487.901068 
L 549.865732 484.268497 
L 547.236683 481.361946 
L 545.384972 479.325399 
L 544.339215 478.175207 
L 542.036994 475.621713 
L 541.751414 475.310773 
L 541.441806 474.966044 
L 540.985579 474.461095 
L 538.89845 472.151059 
L 536.5775 469.578632 
L 531.557958 464.01599 
L 530.365356 462.693801 
L 530.012191 462.290878 
L 527.002047 458.934562 
L 525.82758 457.637281 
L 523.175683 454.708247 
L 521.736314 453.369857 
L 520.996464 452.551865 
L 519.391644 452.400303 
L 517.751795 452.247557 
L 517.548296 452.229729 
L 514.654117 448.941886 
L 512.315517 446.496999 
L 511.324631 445.515277 
L 511.26344 445.454624 
L 509.525786 443.802825 
L 509.183623 443.481822 
L 508.869276 443.186214 
L 507.821082 442.200694 
L 506.309678 440.779625 
L 503.400631 438.060011 
L 501.212682 435.903946 
L 499.508575 434.142144 
L 498.896855 433.487855 
L 497.733151 432.218919 
L 496.1899 430.52543 
L 496.078932 430.403661 
L 495.248779 429.48014 
L 495.532052 429.017767 
L 494.324089 427.635398 
L 492.923633 426.088666 
L 491.157771 424.156966 
L 490.48978 423.621921 
L 487.935672 420.764206 
L 487.498781 420.476009 
L 487.3491 420.377341 
L 487.127659 420.129341 
L 486.837256 420.411955 
L 485.667055 419.114032 
L 484.482826 417.807449 
L 485.026163 417.834029 
L 484.916996 417.711245 
L 484.384923 417.462882 
L 484.043697 417.106326 
L 483.704555 417.13079 
L 483.298404 417.227952 
L 482.88108 417.448721 
L 482.513894 417.74532 
L 481.44285 416.536149 
L 481.420076 416.558031 
L 480.9429 417.016685 
L 480.641359 417.30657 
L 479.905842 418.055817 
L 479.072816 418.845968 
L 478.826194 419.079907 
L 478.431861 419.453899 
L 477.990609 419.872544 
L 477.600407 420.242614 
L 477.153088 420.66695 
L 476.706645 421.090374 
L 476.32114 421.456127 
L 476.235668 421.536563 
L 475.585295 421.965164 
L 475.486159 422.057267 
L 474.119279 423.314557 
L 474.025496 423.220368 
L 473.996632 423.159757 
L 471.205136 420.099287 
L 470.756345 419.618014 
L 470.059708 418.87088 
L 470.955392 417.735889 
L 471.073994 417.585435 
L 470.927499 417.462149 
L 469.861658 416.56519 
L 469.273985 416.070549 
L 468.162894 415.135518 
L 467.887556 414.903869 
L 467.608669 414.676515 
L 465.939116 413.312767 
L 465.819703 413.213226 
L 465.222605 412.577504 
L 464.943882 412.280882 
L 464.862498 412.194369 
L 464.028153 411.306451 
L 463.26678 410.496267 
L 462.687807 409.880128 
L 462.090383 409.244738 
L 461.585494 408.707654 
L 461.574643 408.694895 
L 461.400918 408.510394 
L 460.987393 408.070553 
L 459.941608 406.958184 
L 459.138755 406.104803 
L 458.865231 405.813387 
L 457.651323 404.519993 
L 457.070748 403.901531 
L 457.012005 403.827471 
L 455.612467 402.061189 
L 453.403039 399.272842 
L 453.025278 398.796069 
L 452.395585 398.132074 
L 451.774433 397.477176 
L 451.194813 396.865997 
L 450.605474 396.244532 
L 449.84327 395.440857 
L 449.263356 394.828153 
L 448.35704 393.872695 
L 445.578293 390.682416 
L 444.960509 389.973147 
L 444.218156 389.121759 
L 443.632861 388.453533 
L 443.124523 387.873122 
L 442.62814 387.306471 
L 442.148349 386.758727 
L 441.508258 386.029157 
L 440.423425 384.784504 
L 439.727505 383.996105 
L 439.067778 383.242963 
L 438.838526 382.98128 
L 438.645594 382.760799 
L 438.026289 382.053189 
L 437.403977 381.342125 
L 436.789499 380.639917 
L 436.214157 379.982562 
L 435.862915 379.581304 
L 435.123059 378.736203 
L 434.952403 378.541292 
L 434.694918 378.281223 
L 434.386872 377.929914 
L 434.105309 377.588352 
L 434.075649 377.554624 
L 434.039851 377.513988 
L 433.882932 377.335612 
L 433.240901 376.606674 
L 432.879737 376.213365 
L 428.837105 371.629414 
L 426.895238 369.328607 
L 424.374978 365.977903 
L 422.817514 364.399257 
L 422.412998 363.977891 
L 418.302244 359.695458 
L 414.118936 356.253151 
L 413.075709 355.430936 
L 412.893227 355.091801 
L 412.18475 354.562308 
L 412.365992 354.3749 
L 412.002343 354.061039 
L 409.081367 351.539984 
L 406.948405 349.699123 
L 406.41357 349.237584 
L 405.888706 348.823039 
L 404.049189 347.09944 
L 403.910146 346.969249 
L 403.861336 346.92351 
L 403.82708 346.891408 
L 404.120298 346.457219 
L 404.844138 345.288281 
L 405.125681 344.800726 
L 405.245722 344.571636 
L 405.001636 344.313062 
L 405.030869 344.281896 
L 405.102885 344.223084 
L 405.177263 344.167356 
L 405.264217 344.108936 
L 405.352286 344.052027 
L 405.441283 343.996762 
L 405.837488 343.442405 
L 407.804684 340.047582 
L 409.418879 337.289239 
L 410.009628 336.243974 
L 410.749183 334.990937 
L 410.817605 334.906362 
L 410.871613 334.588641 
L 411.535884 333.435922 
L 412.1981 332.286779 
L 412.684055 331.89928 
L 412.885374 331.559744 
L 413.2726 330.851317 
L 413.712508 330.06824 
L 414.176799 329.230289 
L 414.729756 328.290011 
L 415.000425 327.722872 
L 415.277117 327.221422 
L 415.325478 327.245996 
L 415.36645 327.166664 
L 415.500155 326.932089 
L 418.202888 322.148612 
L 420.868326 317.470316 
L 422.333591 314.897237 
L 422.40984 314.780523 
L 422.491979 314.667844 
L 422.57982 314.559394 
L 422.672796 314.455507 
L 422.770853 314.35663 
L 422.873545 314.262773 
L 422.98107 314.174316 
L 423.092983 314.091332 
L 423.208753 314.037369 
L 423.326868 313.988857 
L 423.447079 313.945994 
L 423.569131 313.908849 
L 423.692833 313.877426 
L 423.817803 313.851732 
L 423.94379 313.83203 
L 424.256559 313.810609 
L 424.405583 313.781856 
L 424.555844 313.760433 
L 424.706898 313.746476 
L 424.858554 313.740054 
L 425.010365 313.741048 
L 425.161886 313.749659 
L 425.312671 313.765832 
L 425.462589 313.789379 
L 425.628995 313.826589 
L 425.793573 313.871001 
L 425.956012 313.923004 
L 426.115859 313.982353 
L 426.272983 314.048858 
L 426.427062 314.122334 
L 426.577707 314.202533 
L 426.724595 314.28927 
L 426.867535 314.38255 
L 427.128517 314.617596 
L 427.279492 314.765568 
L 427.456218 314.907152 
L 426.547161 313.101554 
L 425.896582 312.112243 
L 425.299271 310.870405 
L 424.932461 310.233606 
L 423.914626 308.875942 
L 423.46183 308.431276 
L 421.860014 307.235829 
L 420.937854 306.547622 
L 420.277571 306.211347 
L 419.559729 305.94861 
L 418.781486 305.662447 
L 418.583269 305.457822 
L 418.386759 305.212484 
L 418.181737 305.325489 
L 417.83008 305.514914 
L 417.745255 305.353782 
L 417.801527 305.298244 
L 417.416283 304.567563 
L 417.195382 304.684098 
L 416.830066 303.991378 
L 416.391519 304.227579 
L 416.159135 303.791117 
L 415.696 302.871021 
L 415.514496 302.543505 
L 414.905622 301.337616 
L 413.852314 299.274115 
L 414.67626 298.868948 
L 413.570559 296.658159 
L 412.243598 297.314313 
L 411.823156 296.410856 
L 411.782173 296.409985 
L 411.613558 295.972258 
L 411.479538 295.624182 
L 410.947224 294.189011 
L 410.987788 294.172814 
L 410.939191 294.008241 
L 410.549649 292.688476 
L 410.108047 291.191228 
L 409.284387 287.95539 
L 409.240799 287.61778 
L 408.989982 285.67512 
L 408.746142 283.786516 
L 408.336091 280.610627 
L 407.858731 276.913501 
L 407.744005 270.856822 
L 408.254988 268.375955 
L 409.012022 264.700201 
L 409.654483 261.580975 
L 409.813557 260.806765 
L 410.93815 256.576882 
L 412.185276 251.88625 
L 412.543822 249.550753 
L 412.67986 247.047279 
L 412.637877 245.374244 
L 411.990312 241.408979 
L 410.83195 234.317008 
L 410.616967 233.082473 
L 410.436038 231.893525 
L 410.411327 231.708754 
L 410.387929 231.599427 
L 410.265368 230.867683 
L 410.039721 229.490773 
L 409.88927 228.547335 
L 409.662922 227.201331 
L 409.064717 224.479105 
L 407.650306 219.034094 
L 407.630005 218.957129 
L 407.362937 217.943217 
L 406.592854 215.020432 
L 406.438879 214.436131 
L 405.435623 210.691243 
L 405.018551 209.067046 
L 404.307122 206.219855 
L 404.199959 206.241346 
L 403.989529 205.655923 
L 404.015815 204.990018 
L 403.613353 203.813927 
L 403.458759 203.301593 
L 402.276985 200.296221 
L 400.765211 196.451718 
L 400.208416 195.25545 
L 399.689622 194.415914 
L 398.212097 192.242634 
L 395.65567 188.643481 
L 394.27699 186.759351 
L 393.60311 185.873312 
L 392.749396 184.900604 
L 392.272083 184.371559 
L 391.890896 184.026109 
L 391.568004 183.794818 
L 391.400714 183.685116 
L 387.766143 182.315031 
L 385.876952 181.771196 
L 384.656151 181.424102 
L 381.843477 180.89428 
L 377.728062 181.225576 
L 374.194556 182.223111 
L 374.033767 182.287247 
L 370.758739 183.977496 
L 369.446851 184.945307 
L 368.909215 185.34208 
L 367.915951 186.076854 
L 366.933521 186.79842 
L 366.239108 187.32545 
L 365.193662 188.091582 
L 364.477129 188.601428 
L 362.780138 189.880271 
L 361.023537 191.204445 
L 359.25803 192.523251 
L 357.799861 193.625368 
L 354.42999 184.975054 
L 354.250401 184.513925 
L 353.898319 183.686623 
L 352.287163 182.323396 
L 351.500126 182.043467 
L 350.467615 181.676358 
L 349.060996 181.184936 
L 348.763802 181.087843 
L 347.378239 180.626685 
L 347.021664 180.528799 
L 345.614474 180.241687 
L 345.237436 180.172441 
L 344.376598 180.123376 
L 343.420639 180.186201 
L 342.48726 180.272473 
L 341.694585 180.642183 
L 341.069285 181.968822 
L 339.057341 186.605017 
L 338.857762 186.259762 
L 338.249373 185.007961 
L 336.936772 182.307157 
L 336.643864 181.691669 
L 336.492588 181.303376 
L 336.258561 180.686325 
L 336.065418 180.064701 
L 335.910549 179.438944 
L 335.777716 178.810866 
L 335.688748 178.341181 
L 335.088391 174.529484 
L 334.958767 174.157236 
L 334.734842 173.853815 
L 332.210666 170.43396 
L 329.032874 166.758167 
L 328.21725 165.814824 
L 325.231239 163.180539 
L 318.063984 158.147654 
L 311.670534 156.428832 
L 306.066153 154.921154 
L 297.267987 150.054269 
L 297.138218 149.98245 
L 295.130812 148.849996 
L 294.92427 148.770344 
L 290.689487 147.089934 
L 289.827034 146.75548 
L 288.906049 146.391382 
L 282.505452 142.470585 
L 276.584251 138.877211 
L 272.979778 136.1086 
L 272.721284 135.910021 
L 272.178773 135.513598 
L 272.068679 134.565463 
L 272.082705 134.5706 
L 273.138803 133.163069 
L 274.451786 131.393818 
L 275.40285 130.095856 
L 275.472798 129.989601 
L 275.529957 129.876328 
L 275.575614 129.753515 
L 275.570869 129.626275 
L 275.546376 129.501056 
L 275.503337 129.380324 
L 275.442486 129.268607 
L 275.360597 129.170322 
L 274.943758 128.816241 
L 274.808168 128.701066 
L 274.820273 128.681876 
L 274.485965 128.41283 
L 274.506325 128.38854 
L 274.226998 128.18163 
L 274.058904 128.057116 
L 272.97552 127.234364 
L 272.642266 127.048123 
L 272.337351 126.876629 
L 272.11793 126.753647 
L 271.803568 127.132139 
L 271.559613 127.425984 
L 271.464346 127.392263 
L 270.431278 127.040216 
L 270.430533 127.039963 
L 268.259357 126.272792 
L 268.196982 126.251737 
L 266.657972 125.743169 
L 265.383757 124.921446 
L 260.547362 121.802112 
L 256.196606 119.007037 
L 256.072042 118.949835 
L 255.923818 118.893905 
L 255.191985 118.654611 
L 251.081279 117.313427 
L 242.35903 114.466828 
L 238.424507 113.189321 
L 236.948644 112.710181 
L 236.81932 113.085062 
L 232.60123 111.730368 
L 230.622311 111.884298 
L 229.501964 111.971463 
L 226.823263 111.604208 
L 226.72434 111.6 
L 226.625393 111.606601 
L 226.529097 111.617751 
L 225.915595 111.769455 
L 225.306572 111.936479 
L 224.698817 112.106099 
L 224.093644 112.285898 
L 223.494309 112.484888 
L 222.894924 112.68452 
L 222.297478 112.891147 
L 221.702012 113.115704 
L 221.613413 113.152337 
L 221.524765 113.189674 
L 221.438118 113.234004 
L 221.304922 113.30786 
L 221.12901 113.405402 
L 220.537711 113.764824 
L 220.273877 113.915679 
L 220.182808 113.974111 
L 219.58215 114.430057 
L 219.239466 114.700034 
L 218.908215 114.937403 
L 218.772681 115.08985 
L 217.780983 116.118317 
L 218.000303 116.223291 
L 216.248617 118.369717 
L 216.193744 118.436838 
L 216.014978 118.612537 
L 215.487908 119.15931 
L 215.209299 119.448336 
L 214.905377 119.855378 
L 214.798061 119.974794 
L 214.382033 120.465347 
L 209.915864 125.959128 
L 209.509491 126.461568 
L 205.797051 131.025929 
L 205.653369 131.20267 
L 205.402871 131.477137 
L 205.129844 131.716209 
L 204.828265 131.915922 
L 204.493748 132.083087 
L 204.170003 132.207744 
L 203.809846 132.32244 
L 203.460874 132.410993 
L 203.108821 132.471918 
L 202.745874 132.519072 
L 202.378985 132.534268 
L 202.011477 132.538476 
L 201.919872 132.523949 
L 201.558982 132.452801 
L 199.985975 132.142605 
L 199.410933 131.951292 
L 199.076157 131.868455 
L 198.732952 131.830123 
L 198.167039 131.808233 
L 196.854014 131.947959 
L 196.631038 132.005469 
L 195.390128 132.473671 
L 194.824216 132.808291 
L 194.273165 133.154104 
L 193.736445 133.557683 
L 193.201018 134.039201 
L 192.080452 135.448136 
L 191.380711 136.327958 
L 187.812978 140.844323 
L 187.74847 140.925984 
L 187.06375 141.793526 
L 187.054304 141.805499 
L 182.940564 147.0102 
L 182.385333 147.711606 
L 181.048414 149.406488 
L 179.756749 151.064836 
L 175.718371 156.24818 
L 175.376665 156.684157 
L 175.172417 156.946136 
L 175.005391 157.15205 
L 174.792611 157.403213 
L 174.591435 157.627007 
L 174.361174 157.872664 
L 174.133951 158.102266 
L 173.900547 158.326438 
L 173.620553 158.580719 
L 173.339726 158.822994 
L 173.089071 159.025666 
L 172.874364 159.193215 
L 172.624436 159.3763 
L 171.795962 160.287602 
L 171.170188 161.214537 
L 170.872093 162.035308 
L 170.600252 162.990016 
L 170.552042 163.255784 
L 170.31992 164.657981 
L 170.282057 164.926914 
L 170.148976 166.150058 
L 170.409851 166.380161 
L 171.521778 167.312525 
L 171.536529 167.324614 
L 171.730884 167.486507 
L 172.301251 167.96063 
L 172.640128 168.249999 
L 173.412498 168.897492 
L 173.755097 169.184863 
L 173.970731 169.365677 
L 174.296166 169.638645 
L 174.356936 169.689009 
L 175.225233 170.41617 
L 176.152377 171.199432 
L 177.002091 171.917726 
L 178.40614 173.092978 
L 180.204636 174.604829 
L 180.520777 174.870586 
L 180.67563 175.000784 
L 180.7121 175.031463 
L 180.823135 175.124744 
L 181.750167 175.904123 
L 181.778314 175.927691 
L 181.931537 176.05639 
L 182.11187 176.207912 
L 182.25047 176.324454 
L 182.391018 176.442554 
L 182.503287 176.536897 
L 182.64247 176.653875 
L 182.787502 176.775716 
L 183.110268 177.04696 
L 183.254781 177.168429 
L 183.393315 177.28491 
L 183.508379 177.381623 
L 183.659977 177.509014 
L 183.947768 177.750891 
L 183.962135 177.762988 
L 184.149551 177.920434 
L 185.12604 178.741543 
L 189.974953 182.814084 
L 190.8956 183.586593 
L 192.161185 182.244742 
L 194.317566 179.959031 
L 199.800761 174.146512 
L 200.946779 172.93161 
L 202.02995 173.844107 
L 203.809151 175.342822 
L 204.540352 175.95866 
L 208.62906 179.402333 
L 209.167412 179.851692 
L 209.456892 179.533281 
L 209.962107 180.021026 
L 212.440868 182.415373 
L 216.390391 186.229135 
L 216.90031 185.781015 
L 219.451194 187.950204 
L 219.909127 188.330761 
L 220.383871 188.72529 
L 221.55185 189.716555 
L 221.996824 190.09324 
L 222.430897 190.461716 
L 223.326543 191.222129 
L 223.532039 191.396542 
L 223.6302 191.47969 
L 223.64483 191.492232 
L 224.223464 191.982644 
L 225.513497 193.077154 
L 226.799699 194.169064 
L 227.361039 194.645144 
L 227.385285 194.665665 
L 227.480003 194.746074 
L 227.724758 194.953802 
L 227.977776 195.168835 
L 227.992597 195.181372 
L 228.088354 195.262655 
L 228.651051 195.73973 
L 230.035504 196.914227 
L 230.136718 196.999997 
L 230.731219 197.4991 
L 231.06492 197.780264 
L 232.042282 198.603162 
L 232.833055 199.269978 
L 233.62381 199.936092 
L 234.753967 200.887796 
L 237.225254 202.969741 
L 238.697985 204.210307 
L 241.266394 206.3745 
L 242.027126 205.428505 
L 243.229279 203.934464 
L 244.43878 202.431253 
L 246.126142 200.334133 
L 246.528512 199.834255 
L 247.73077 198.340167 
L 248.092602 197.890599 
L 248.953875 196.820437 
L 250.228477 195.236611 
L 250.630807 195.704877 
L 251.032548 196.172517 
L 252.073352 197.384074 
L 252.155239 197.479731 
L 252.198634 197.494345 
L 252.201834 197.491782 
L 252.244237 197.540699 
L 252.841935 198.230562 
L 254.484783 200.127293 
L 255.690572 201.513587 
L 255.700784 201.504606 
L 255.98282 201.830649 
L 256.351903 202.25806 
L 256.409866 202.207445 
L 258.19001 204.262373 
L 260.743475 207.21565 
L 263.430547 210.307315 
L 263.336307 211.479317 
L 263.579363 211.76194 
L 265.837171 214.368201 
L 266.633508 215.290113 
L 268.579817 217.545452 
L 270.145996 219.351545 
L 272.5216 222.091253 
L 273.733 223.503207 
L 274.457689 224.347294 
L 274.621383 224.536191 
L 275.252656 225.264139 
L 275.48288 225.529584 
L 276.130114 226.276062 
L 278.410166 228.905924 
L 279.680281 230.371462 
L 280.671547 231.514838 
L 283.433724 234.7005 
L 284.157661 235.535671 
L 284.227999 235.617383 
L 288.459029 240.511108 
L 291.065667 243.525859 
L 293.153598 245.932062 
L 293.557088 246.397064 
L 301.85454 256.003092 
L 304.135015 258.643428 
L 304.052223 259.300758 
L 303.936793 260.195298 
L 303.818199 261.100139 
L 303.723389 261.792646 
L 303.311754 264.938091 
L 303.07108 266.198957 
L 302.910677 267.039641 
L 301.557493 273.364235 
L 299.94795 279.358947 
L 299.860949 280.722085 
L 299.9963 281.667265 
L 300.326648 282.82039 
L 300.76682 284.061557 
L 301.41709 285.398102 
L 301.860225 286.274939 
L 302.089629 286.728867 
L 302.172208 286.871212 
L 302.208492 286.939581 
L 304.197715 290.380911 
L 305.889656 293.310819 
L 307.528848 295.90166 
L 309.54691 299.091504 
L 310.207253 300.134669 
L 311.166503 301.651505 
L 311.78401 302.627593 
L 312.097556 303.123659 
L 313.150942 304.75427 
L 314.293558 306.522998 
L 314.434966 306.744559 
L 315.024281 307.667654 
L 315.54445 308.48291 
L 317.58763 311.727981 
L 322.968265 320.276322 
L 323.200509 320.646011 
L 323.451853 321.047083 
L 323.453569 321.049797 
L 323.489021 321.106289 
L 323.533921 321.168622 
L 323.603512 321.265233 
L 323.608244 321.271785 
L 325.838043 324.367199 
L 325.916842 324.476499 
L 328.435066 327.221414 
L 329.174934 328.183884 
L 334.784384 336.987067 
L 335.059422 337.417964 
L 335.381878 337.925505 
L 335.711688 338.43692 
L 337.791069 341.696707 
L 338.115806 342.392177 
L 338.39787 343.434243 
L 338.431151 344.107341 
L 338.43923 344.303587 
L 338.702011 350.586362 
L 336.506249 355.898428 
L 334.555453 360.618069 
L 333.751753 362.562438 
L 333.539747 363.068352 
L 333.142666 364.016009 
L 332.843174 364.73077 
L 332.642837 364.987511 
L 329.88007 368.484831 
L 326.778155 372.411412 
L 326.416596 373.385153 
L 325.025688 377.13159 
L 325.024328 377.135288 
L 324.971746 377.278237 
L 324.80945 377.72017 
L 324.760631 377.852638 
L 324.538147 378.456573 
L 324.335594 378.977004 
L 324.279981 379.12004 
L 324.071196 379.580738 
L 323.232837 382.657998 
L 323.110774 384.647004 
L 323.107044 384.700104 
L 323.11262 384.910409 
L 323.118168 385.116366 
L 323.118252 385.119432 
L 323.176859 387.26771 
L 323.177714 387.298456 
L 323.180276 387.39063 
L 323.188559 387.696176 
L 316.295081 387.376413 
L 311.249963 387.093779 
L 310.793507 387.128018 
L 309.86764 387.090346 
L 309.414843 387.031898 
L 309.106266 387.018488 
L 296.829175 386.483878 
L 278.960576 385.715088 
L 270.659396 385.358278 
L 264.875664 385.109804 
L 261.151217 384.949892 
L 256.488773 384.7497 
L 252.319299 384.600879 
L 252.091007 384.59246 
L 251.410638 384.560134 
L 251.045257 384.542497 
L 246.778685 384.339608 
L 246.478241 384.552563 
L 246.305861 384.180242 
L 245.844316 384.19409 
L 245.485142 384.372039 
L 245.286823 384.623742 
L 245.201429 384.930142 
L 245.225756 385.251652 
L 245.386062 385.629093 
L 246.125847 387.073362 
L 246.3106 387.559393 
L 246.549024 388.361125 
L 247.199915 389.978006 
L 247.228808 390.049725 
L 247.444252 390.584283 
L 247.673224 391.152067 
L 253.088162 402.199397 
L 253.566832 403.24665 
L 254.039778 404.006916 
L 258.444215 414.677619 
L 259.868736 418.130809 
L 260.226053 419.091443 
L 260.425083 419.627001 
L 260.77964 420.580979 
L 261.161312 421.502399 
L 261.235403 421.681371 
L 261.496937 422.313003 
L 264.140607 428.698958 
L 264.407299 429.342762 
L 264.575744 429.688187 
L 264.674932 429.847756 
L 264.790032 430.011847 
L 265.712064 431.217286 
L 266.041191 431.864108 
L 267.155826 434.517685 
L 267.893294 436.166594 
L 268.28396 436.966757 
L 269.425236 439.31469 
L 269.515426 439.735788 
L 269.660033 440.533273 
L 269.742455 440.894927 
L 269.763654 440.965213 
L 269.821498 441.157453 
L 269.823814 441.344739 
L 269.864261 441.486567 
L 270.227799 441.258217 
L 270.466105 441.658736 
L 270.702594 442.056204 
L 271.052128 441.880216 
L 271.35403 442.04448 
L 271.581078 442.3751 
L 272.553207 444.336761 
L 273.466535 445.98334 
L 274.616175 447.82373 
L 275.277254 448.679535 
L 276.015518 449.584352 
L 276.605452 450.273403 
L 277.156975 450.907565 
L 278.047089 451.867032 
L 278.808777 452.686163 
L 279.692396 453.610469 
L 279.708409 453.625797 
L 280.489349 454.406013 
L 280.694134 454.61061 
L 281.656786 455.527097 
L 282.646865 456.432002 
L 283.571596 457.220682 
L 284.229454 457.793942 
L 284.928689 458.369648 
L 287.595964 460.492454 
L 291.065147 463.250858 
L 293.445694 465.148219 
L 299.541291 470.00667 
L 302.4398 472.317013 
L 309.788202 478.172784 
L 312.360607 480.221894 
L 313.428115 481.071784 
L 316.293539 483.356158 
L 321.180191 487.226776 
L 322.058665 487.917285 
L 322.425145 488.211219 
L 323.5596 489.105713 
L 327.063916 491.879184 
L 328.169629 492.754539 
L 328.375783 492.896707 
L 328.569806 493.013933 
L 328.823744 493.14505 
L 329.084011 493.243605 
L 329.335266 493.322973 
L 329.691158 493.435432 
L 329.990966 493.552404 
L 330.258304 493.681 
L 330.584411 493.896361 
L 331.543011 494.666237 
L 336.422006 498.554139 
L 336.705477 498.798421 
L 337.018412 499.097596 
L 337.355879 499.562929 
L 337.486281 499.751219 
L 337.845122 500.378237 
L 337.962815 500.583808 
L 337.988354 500.627912 
L 338.068988 500.772226 
L 338.170629 500.908806 
L 338.312274 501.055605 
L 338.337308 501.081683 
L 338.477791 501.227804 
L 338.693885 501.227333 
L 339.292038 501.705583 
L 339.560734 501.899396 
L 339.814154 502.082339 
L 340.957991 502.909093 
L 341.258068 503.176309 
L 352.004295 511.79299 
L 352.146647 511.907098 
L 354.106368 513.478323 
L 354.144689 513.517874 
L 355.451396 514.565552 
L 356.689117 515.559108 
L 358.038547 516.641202 
L 359.335633 517.681296 
L 360.624427 518.715621 
L 361.914425 519.749991 
L 362.045935 519.855185 
L 362.896788 520.53558 
L 363.205705 520.77596 
L 363.431651 520.942359 
L 363.515912 521.004864 
L 363.757023 521.122016 
L 364.040853 521.239101 
L 364.523004 521.415205 
L 365.055539 521.619351 
L 365.081704 521.629546 
L 365.528934 521.852436 
L 365.834631 522.076193 
L 370.27456 525.614152 
L 375.950082 530.136768 
L 383.886152 536.461168 
L 384.267185 536.773672 
L 384.385933 536.88215 
L 384.634241 537.113077 
L 384.670688 537.160921 
L 384.866829 537.418845 
L 385.288155 538.132102 
L 385.368044 538.278938 
L 385.546967 538.533707 
L 385.655537 538.655574 
L 385.954256 538.910069 
L 386.832472 539.617392 
L 386.907835 539.67862 
L 386.981194 539.738546 
L 387.907289 540.494948 
L 389.903668 542.092555 
L 391.799839 543.600174 
L 393.727233 545.138489 
L 393.820397 545.212713 
L 394.821721 546.010284 
L 395.626484 546.651886 
L 395.921983 546.887207 
L 396.579957 547.411515 
L 397.018399 547.760376 
L 397.528945 548.167274 
L 398.336284 548.80755 
L 398.436447 548.890455 
L 399.330587 549.602853 
L 399.645869 549.851578 
L 400.947116 550.890541 
L 401.190231 551.08443 
L 402.256672 551.934004 
L 403.024377 552.545636 
L 403.565568 552.976783 
L 404.874455 554.019568 
L 404.917184 554.05398 
L 406.233067 555.102508 
L 406.762766 555.524115 
L 407.576423 556.172725 
L 407.899266 556.390152 
L 408.18569 556.5424 
L 408.544685 556.689422 
L 409.110926 556.884623 
L 409.290741 556.956529 
L 409.660599 557.104796 
L 409.999981 557.311327 
L 410.330531 557.556226 
L 414.488071 560.868346 
L 415.320811 561.531672 
L 419.044322 564.504595 
L 419.475192 564.933402 
L 419.601654 565.085991 
L 420.777569 566.669891 
L 420.787406 566.683117 
L 420.964081 566.920812 
L 421.253026 567.072443 
L 421.829238 567.531672 
L 422.150817 567.7753 
L 421.991822 567.938576 
L 422.503541 568.312935 
L 422.538078 568.336775 
L 422.885722 568.576918 
L 423.282977 568.746887 
L 423.951766 568.948356 
L 424.550453 569.129477 
L 425.056078 569.329937 
L 425.321481 569.511675 
L 425.909817 569.984282 
L 426.748952 570.654029 
L 427.584844 571.321223 
L 428.484557 572.038193 
L 429.344681 572.724522 
L 429.776061 573.068332 
L 430.228439 573.428717 
L 430.65918 573.772542 
L 431.109694 574.132264 
L 431.63356 574.549429 
L 431.976183 574.821794 
L 432.789115 575.471124 
L 432.958812 575.606381 
L 433.758356 576.243584 
L 434.801623 577.075395 
L 434.929208 577.178079 
L 435.491974 577.627124 
L 437.106923 578.914391 
L 439.307626 580.669171 
L 442.754397 583.413978 
L 444.789741 585.036194 
L 447.117973 586.89244 
L 449.021244 588.409401 
L 450.680103 589.73241 
L 451.586702 590.454547 
L 454.212766 592.546873 
L 456.627625 594.47021 
L 457.539357 595.189188 
L 458.501434 595.932324 
L 459.4998 596.673495 
L 460.598943 597.476475 
L 460.653151 597.51475 
L 461.622759 598.197171 
L 462.638277 598.908256 
L 462.98904 599.135906 
L 463.707873 599.605176 
L 464.773693 600.28299 
L 465.978436 601.030204 
L 467.454876 601.924017 
L 468.859222 602.728508 
L 469.323495 603.005174 
L 470.330451 603.571211 
L 470.361708 603.587769 
L 471.094387 603.968826 
L 472.098734 604.488873 
L 473.094082 604.996126 
L 473.167446 605.033047 
L 473.79683 605.35101 
L 473.951086 605.431348 
L 474.985959 605.917387 
L 475.635675 606.213635 
L 476.40592 606.565274 
L 477.454058 607.03026 
L 478.600496 607.560884 
L 479.881319 608.101591 
L 481.058918 608.585531 
L 481.458613 608.729365 
L 482.8088 609.199639 
L 484.172953 609.667328 
L 485.552446 610.124793 
L 486.697942 610.498832 
L 488.454637 611.023481 
L 489.827617 611.415733 
L 491.306992 611.808482 
L 492.737288 612.16426 
L 494.098621 612.489423 
L 495.379663 612.766168 
L 496.094135 612.929944 
L 497.717349 613.231751 
L 499.193967 613.506272 
L 500.527166 613.734378 
L 501.958448 613.939939 
L 503.308107 614.103439 
L 504.726604 614.270005 
L 505.85701 614.39422 
L 506.380155 614.441397 
L 506.984215 614.496056 
L 509.239306 614.708103 
L 512.260933 614.987355 
L 515.591534 615.295654 
L 517.333566 615.40235 
L 517.907138 615.528074 
L 518.123227 615.6 
L 518.056547 615.271792 
L 517.948061 614.737922 
L 517.774808 613.885334 
L 517.774106 613.88215 
L 517.659791 613.318851 
L 517.415359 612.114483 
L 517.42552 612.10014 
L 517.435486 612.085608 
L 517.445258 612.070953 
L 517.189829 610.811999 
L 516.168118 605.780536 
L 516.155287 605.717225 
L 515.888965 604.343423 
L 515.621064 602.961491 
L 515.586422 602.791498 
L 515.24564 601.10885 
L 514.824579 599.035019 
L 514.492761 597.401562 
L 514.22063 596.059489 
L 512.325824 586.72643 
L 511.747464 583.87932 
L 511.611313 583.209405 
L 511.568285 582.997373 
L 510.096648 575.755317 
L 509.607421 573.347306 
L 509.543773 573.03426 
L 509.801173 572.789632 
L 512.908828 569.836457 
L 513.05173 569.700805 
L 513.694369 569.090156 
L 513.850652 568.941629 
L 517.65526 565.326339 
L 517.851633 565.139703 
L 518.900738 564.142847 
L 519.099426 563.95399 
L 520.303951 562.8094 
L 520.460927 562.660223 
L 521.100345 562.052726 
L 521.257198 561.903744 
L 527.756755 555.727935 
L 527.914316 555.578941 
L 528.554817 554.97003 
L 528.710192 554.823257 
L 530.921795 552.721064 
L 531.804363 551.882511 
L 531.961288 551.733405 
L 532.602001 551.124754 
L 532.75805 550.976433 
L 535.895534 547.99557 
L 536.037577 547.86065 
L 536.679433 547.250961 
L 536.8216 547.115847 
L 538.401914 545.614482 
L 538.542083 545.481328 
L 539.382221 544.683128 
L 539.522515 544.549844 
L 541.904352 542.2871 
L 542.046212 542.152314 
L 542.689403 541.541331 
L 542.832014 541.405827 
L 546.918768 537.523537 
L 546.971436 537.473532 
L 547.129814 537.323061 
L 547.140636 537.312798 
L 547.165593 537.289106 
L 547.233091 537.225267 
L 548.183621 536.455044 
" clip-path="url(#p2579496c15)" style="fill: #d3d3d3"/>
   </g>
   <g id="matplotlib.axis_1">
    <g id="xtick_1">
     <g id="line2d_1">
      <defs>
       <path id="mce3133de23" d="M 0 0 
L 0 3.5 
" style="stroke: #000000; stroke-width: 0.8"/>
      </defs>
      <g>
       <use xlink:href="#mce3133de23" x="171.63474" y="640.8" style="stroke: #000000; stroke-width: 0.8"/>
      </g>
     </g>
     <g id="text_1">
      <!-- 13.44 -->
      <g transform="translate(157.320677 655.398438) scale(0.1 -0.1)">
       <defs>
        <path id="DejaVuSans-31" d="M 794 531 
L 1825 531 
L 1825 4091 
L 703 3866 
L 703 4441 
L 1819 4666 
L 2450 4666 
L 2450 531 
L 3481 531 
L 3481 0 
L 794 0 
L 794 531 
z
" transform="scale(0.015625)"/>
        <path id="DejaVuSans-33" d="M 2597 2516 
Q 3050 2419 3304 2112 
Q 3559 1806 3559 1356 
Q 3559 666 3084 287 
Q 2609 -91 1734 -91 
Q 1441 -91 1130 -33 
Q 819 25 488 141 
L 488 750 
Q 750 597 1062 519 
Q 1375 441 1716 441 
Q 2309 441 2620 675 
Q 2931 909 2931 1356 
Q 2931 1769 2642 2001 
Q 2353 2234 1838 2234 
L 1294 2234 
L 1294 2753 
L 1863 2753 
Q 2328 2753 2575 2939 
Q 2822 3125 2822 3475 
Q 2822 3834 2567 4026 
Q 2313 4219 1838 4219 
Q 1578 4219 1281 4162 
Q 984 4106 628 3988 
L 628 4550 
Q 988 4650 1302 4700 
Q 1616 4750 1894 4750 
Q 2613 4750 3031 4423 
Q 3450 4097 3450 3541 
Q 3450 3153 3228 2886 
Q 3006 2619 2597 2516 
z
" transform="scale(0.015625)"/>
        <path id="DejaVuSans-2e" d="M 684 794 
L 1344 794 
L 1344 0 
L 684 0 
L 684 794 
z
" transform="scale(0.015625)"/>
        <path id="DejaVuSans-34" d="M 2419 4116 
L 825 1625 
L 2419 1625 
L 2419 4116 
z
M 2253 4666 
L 3047 4666 
L 3047 1625 
L 3713 1625 
L 3713 1100 
L 3047 1100 
L 3047 0 
L 2419 0 
L 2419 1100 
L 313 1100 
L 313 1709 
L 2253 4666 
z
" transform="scale(0.015625)"/>
       </defs>
       <use xlink:href="#DejaVuSans-31"/>
       <use xlink:href="#DejaVuSans-33" x="63.623047"/>
       <use xlink:href="#DejaVuSans-2e" x="127.246094"/>
       <use xlink:href="#DejaVuSans-34" x="159.033203"/>
       <use xlink:href="#DejaVuSans-34" x="222.65625"/>
      </g>
     </g>
    </g>
    <g id="xtick_2">
     <g id="line2d_2">
      <g>
       <use xlink:href="#mce3133de23" x="258.311905" y="640.8" style="stroke: #000000; stroke-width: 0.8"/>
      </g>
     </g>
     <g id="text_2">
      <!-- 13.46 -->
      <g transform="translate(243.997843 655.398438) scale(0.1 -0.1)">
       <defs>
        <path id="DejaVuSans-36" d="M 2113 2584 
Q 1688 2584 1439 2293 
Q 1191 2003 1191 1497 
Q 1191 994 1439 701 
Q 1688 409 2113 409 
Q 2538 409 2786 701 
Q 3034 994 3034 1497 
Q 3034 2003 2786 2293 
Q 2538 2584 2113 2584 
z
M 3366 4563 
L 3366 3988 
Q 3128 4100 2886 4159 
Q 2644 4219 2406 4219 
Q 1781 4219 1451 3797 
Q 1122 3375 1075 2522 
Q 1259 2794 1537 2939 
Q 1816 3084 2150 3084 
Q 2853 3084 3261 2657 
Q 3669 2231 3669 1497 
Q 3669 778 3244 343 
Q 2819 -91 2113 -91 
Q 1303 -91 875 529 
Q 447 1150 447 2328 
Q 447 3434 972 4092 
Q 1497 4750 2381 4750 
Q 2619 4750 2861 4703 
Q 3103 4656 3366 4563 
z
" transform="scale(0.015625)"/>
       </defs>
       <use xlink:href="#DejaVuSans-31"/>
       <use xlink:href="#DejaVuSans-33" x="63.623047"/>
       <use xlink:href="#DejaVuSans-2e" x="127.246094"/>
       <use xlink:href="#DejaVuSans-34" x="159.033203"/>
       <use xlink:href="#DejaVuSans-36" x="222.65625"/>
      </g>
     </g>
    </g>
    <g id="xtick_3">
     <g id="line2d_3">
      <g>
       <use xlink:href="#mce3133de23" x="344.989071" y="640.8" style="stroke: #000000; stroke-width: 0.8"/>
      </g>
     </g>
     <g id="text_3">
      <!-- 13.48 -->
      <g transform="translate(330.675008 655.398438) scale(0.1 -0.1)">
       <defs>
        <path id="DejaVuSans-38" d="M 2034 2216 
Q 1584 2216 1326 1975 
Q 1069 1734 1069 1313 
Q 1069 891 1326 650 
Q 1584 409 2034 409 
Q 2484 409 2743 651 
Q 3003 894 3003 1313 
Q 3003 1734 2745 1975 
Q 2488 2216 2034 2216 
z
M 1403 2484 
Q 997 2584 770 2862 
Q 544 3141 544 3541 
Q 544 4100 942 4425 
Q 1341 4750 2034 4750 
Q 2731 4750 3128 4425 
Q 3525 4100 3525 3541 
Q 3525 3141 3298 2862 
Q 3072 2584 2669 2484 
Q 3125 2378 3379 2068 
Q 3634 1759 3634 1313 
Q 3634 634 3220 271 
Q 2806 -91 2034 -91 
Q 1263 -91 848 271 
Q 434 634 434 1313 
Q 434 1759 690 2068 
Q 947 2378 1403 2484 
z
M 1172 3481 
Q 1172 3119 1398 2916 
Q 1625 2713 2034 2713 
Q 2441 2713 2670 2916 
Q 2900 3119 2900 3481 
Q 2900 3844 2670 4047 
Q 2441 4250 2034 4250 
Q 1625 4250 1398 4047 
Q 1172 3844 1172 3481 
z
" transform="scale(0.015625)"/>
       </defs>
       <use xlink:href="#DejaVuSans-31"/>
       <use xlink:href="#DejaVuSans-33" x="63.623047"/>
       <use xlink:href="#DejaVuSans-2e" x="127.246094"/>
       <use xlink:href="#DejaVuSans-34" x="159.033203"/>
       <use xlink:href="#DejaVuSans-38" x="222.65625"/>
      </g>
     </g>
    </g>
    <g id="xtick_4">
     <g id="line2d_4">
      <g>
       <use xlink:href="#mce3133de23" x="431.666236" y="640.8" style="stroke: #000000; stroke-width: 0.8"/>
      </g>
     </g>
     <g id="text_4">
      <!-- 13.50 -->
      <g transform="translate(417.352174 655.398438) scale(0.1 -0.1)">
       <defs>
        <path id="DejaVuSans-35" d="M 691 4666 
L 3169 4666 
L 3169 4134 
L 1269 4134 
L 1269 2991 
Q 1406 3038 1543 3061 
Q 1681 3084 1819 3084 
Q 2600 3084 3056 2656 
Q 3513 2228 3513 1497 
Q 3513 744 3044 326 
Q 2575 -91 1722 -91 
Q 1428 -91 1123 -41 
Q 819 9 494 109 
L 494 744 
Q 775 591 1075 516 
Q 1375 441 1709 441 
Q 2250 441 2565 725 
Q 2881 1009 2881 1497 
Q 2881 1984 2565 2268 
Q 2250 2553 1709 2553 
Q 1456 2553 1204 2497 
Q 953 2441 691 2322 
L 691 4666 
z
" transform="scale(0.015625)"/>
        <path id="DejaVuSans-30" d="M 2034 4250 
Q 1547 4250 1301 3770 
Q 1056 3291 1056 2328 
Q 1056 1369 1301 889 
Q 1547 409 2034 409 
Q 2525 409 2770 889 
Q 3016 1369 3016 2328 
Q 3016 3291 2770 3770 
Q 2525 4250 2034 4250 
z
M 2034 4750 
Q 2819 4750 3233 4129 
Q 3647 3509 3647 2328 
Q 3647 1150 3233 529 
Q 2819 -91 2034 -91 
Q 1250 -91 836 529 
Q 422 1150 422 2328 
Q 422 3509 836 4129 
Q 1250 4750 2034 4750 
z
" transform="scale(0.015625)"/>
       </defs>
       <use xlink:href="#DejaVuSans-31"/>
       <use xlink:href="#DejaVuSans-33" x="63.623047"/>
       <use xlink:href="#DejaVuSans-2e" x="127.246094"/>
       <use xlink:href="#DejaVuSans-35" x="159.033203"/>
       <use xlink:href="#DejaVuSans-30" x="222.65625"/>
      </g>
     </g>
    </g>
    <g id="xtick_5">
     <g id="line2d_5">
      <g>
       <use xlink:href="#mce3133de23" x="518.343402" y="640.8" style="stroke: #000000; stroke-width: 0.8"/>
      </g>
     </g>
     <g id="text_5">
      <!-- 13.52 -->
      <g transform="translate(504.029339 655.398438) scale(0.1 -0.1)">
       <defs>
        <path id="DejaVuSans-32" d="M 1228 531 
L 3431 531 
L 3431 0 
L 469 0 
L 469 531 
Q 828 903 1448 1529 
Q 2069 2156 2228 2338 
Q 2531 2678 2651 2914 
Q 2772 3150 2772 3378 
Q 2772 3750 2511 3984 
Q 2250 4219 1831 4219 
Q 1534 4219 1204 4116 
Q 875 4013 500 3803 
L 500 4441 
Q 881 4594 1212 4672 
Q 1544 4750 1819 4750 
Q 2544 4750 2975 4387 
Q 3406 4025 3406 3419 
Q 3406 3131 3298 2873 
Q 3191 2616 2906 2266 
Q 2828 2175 2409 1742 
Q 1991 1309 1228 531 
z
" transform="scale(0.015625)"/>
       </defs>
       <use xlink:href="#DejaVuSans-31"/>
       <use xlink:href="#DejaVuSans-33" x="63.623047"/>
       <use xlink:href="#DejaVuSans-2e" x="127.246094"/>
       <use xlink:href="#DejaVuSans-35" x="159.033203"/>
       <use xlink:href="#DejaVuSans-32" x="222.65625"/>
      </g>
     </g>
    </g>
   </g>
   <g id="matplotlib.axis_2">
    <g id="ytick_1">
     <g id="line2d_6">
      <defs>
       <path id="m5a3eba3609" d="M 0 0 
L -3.5 0 
" style="stroke: #000000; stroke-width: 0.8"/>
      </defs>
      <g>
       <use xlink:href="#m5a3eba3609" x="150.263874" y="592.31378" style="stroke: #000000; stroke-width: 0.8"/>
      </g>
     </g>
     <g id="text_6">
      <!-- 52.43 -->
      <g transform="translate(114.635749 596.112998) scale(0.1 -0.1)">
       <use xlink:href="#DejaVuSans-35"/>
       <use xlink:href="#DejaVuSans-32" x="63.623047"/>
       <use xlink:href="#DejaVuSans-2e" x="127.246094"/>
       <use xlink:href="#DejaVuSans-34" x="159.033203"/>
       <use xlink:href="#DejaVuSans-33" x="222.65625"/>
      </g>
     </g>
    </g>
    <g id="ytick_2">
     <g id="line2d_7">
      <g>
       <use xlink:href="#m5a3eba3609" x="150.263874" y="521.17826" style="stroke: #000000; stroke-width: 0.8"/>
      </g>
     </g>
     <g id="text_7">
      <!-- 52.44 -->
      <g transform="translate(114.635749 524.977479) scale(0.1 -0.1)">
       <use xlink:href="#DejaVuSans-35"/>
       <use xlink:href="#DejaVuSans-32" x="63.623047"/>
       <use xlink:href="#DejaVuSans-2e" x="127.246094"/>
       <use xlink:href="#DejaVuSans-34" x="159.033203"/>
       <use xlink:href="#DejaVuSans-34" x="222.65625"/>
      </g>
     </g>
    </g>
    <g id="ytick_3">
     <g id="line2d_8">
      <g>
       <use xlink:href="#m5a3eba3609" x="150.263874" y="450.04274" style="stroke: #000000; stroke-width: 0.8"/>
      </g>
     </g>
     <g id="text_8">
      <!-- 52.45 -->
      <g transform="translate(114.635749 453.841959) scale(0.1 -0.1)">
       <use xlink:href="#DejaVuSans-35"/>
       <use xlink:href="#DejaVuSans-32" x="63.623047"/>
       <use xlink:href="#DejaVuSans-2e" x="127.246094"/>
       <use xlink:href="#DejaVuSans-34" x="159.033203"/>
       <use xlink:href="#DejaVuSans-35" x="222.65625"/>
      </g>
     </g>
    </g>
    <g id="ytick_4">
     <g id="line2d_9">
      <g>
       <use xlink:href="#m5a3eba3609" x="150.263874" y="378.907221" style="stroke: #000000; stroke-width: 0.8"/>
      </g>
     </g>
     <g id="text_9">
      <!-- 52.46 -->
      <g transform="translate(114.635749 382.706439) scale(0.1 -0.1)">
       <use xlink:href="#DejaVuSans-35"/>
       <use xlink:href="#DejaVuSans-32" x="63.623047"/>
       <use xlink:href="#DejaVuSans-2e" x="127.246094"/>
       <use xlink:href="#DejaVuSans-34" x="159.033203"/>
       <use xlink:href="#DejaVuSans-36" x="222.65625"/>
      </g>
     </g>
    </g>
    <g id="ytick_5">
     <g id="line2d_10">
      <g>
       <use xlink:href="#m5a3eba3609" x="150.263874" y="307.771701" style="stroke: #000000; stroke-width: 0.8"/>
      </g>
     </g>
     <g id="text_10">
      <!-- 52.47 -->
      <g transform="translate(114.635749 311.57092) scale(0.1 -0.1)">
       <defs>
        <path id="DejaVuSans-37" d="M 525 4666 
L 3525 4666 
L 3525 4397 
L 1831 0 
L 1172 0 
L 2766 4134 
L 525 4134 
L 525 4666 
z
" transform="scale(0.015625)"/>
       </defs>
       <use xlink:href="#DejaVuSans-35"/>
       <use xlink:href="#DejaVuSans-32" x="63.623047"/>
       <use xlink:href="#DejaVuSans-2e" x="127.246094"/>
       <use xlink:href="#DejaVuSans-34" x="159.033203"/>
       <use xlink:href="#DejaVuSans-37" x="222.65625"/>
      </g>
     </g>
    </g>
    <g id="ytick_6">
     <g id="line2d_11">
      <g>
       <use xlink:href="#m5a3eba3609" x="150.263874" y="236.636181" style="stroke: #000000; stroke-width: 0.8"/>
      </g>
     </g>
     <g id="text_11">
      <!-- 52.48 -->
      <g transform="translate(114.635749 240.4354) scale(0.1 -0.1)">
       <use xlink:href="#DejaVuSans-35"/>
       <use xlink:href="#DejaVuSans-32" x="63.623047"/>
       <use xlink:href="#DejaVuSans-2e" x="127.246094"/>
       <use xlink:href="#DejaVuSans-34" x="159.033203"/>
       <use xlink:href="#DejaVuSans-38" x="222.65625"/>
      </g>
     </g>
    </g>
    <g id="ytick_7">
     <g id="line2d_12">
      <g>
       <use xlink:href="#m5a3eba3609" x="150.263874" y="165.500662" style="stroke: #000000; stroke-width: 0.8"/>
      </g>
     </g>
     <g id="text_12">
      <!-- 52.49 -->
      <g transform="translate(114.635749 169.299881) scale(0.1 -0.1)">
       <defs>
        <path id="DejaVuSans-39" d="M 703 97 
L 703 672 
Q 941 559 1184 500 
Q 1428 441 1663 441 
Q 2288 441 2617 861 
Q 2947 1281 2994 2138 
Q 2813 1869 2534 1725 
Q 2256 1581 1919 1581 
Q 1219 1581 811 2004 
Q 403 2428 403 3163 
Q 403 3881 828 4315 
Q 1253 4750 1959 4750 
Q 2769 4750 3195 4129 
Q 3622 3509 3622 2328 
Q 3622 1225 3098 567 
Q 2575 -91 1691 -91 
Q 1453 -91 1209 -44 
Q 966 3 703 97 
z
M 1959 2075 
Q 2384 2075 2632 2365 
Q 2881 2656 2881 3163 
Q 2881 3666 2632 3958 
Q 2384 4250 1959 4250 
Q 1534 4250 1286 3958 
Q 1038 3666 1038 3163 
Q 1038 2656 1286 2365 
Q 1534 2075 1959 2075 
z
" transform="scale(0.015625)"/>
       </defs>
       <use xlink:href="#DejaVuSans-35"/>
       <use xlink:href="#DejaVuSans-32" x="63.623047"/>
       <use xlink:href="#DejaVuSans-2e" x="127.246094"/>
       <use xlink:href="#DejaVuSans-34" x="159.033203"/>
       <use xlink:href="#DejaVuSans-39" x="222.65625"/>
      </g>
     </g>
    </g>
    <g id="ytick_8">
     <g id="line2d_13">
      <g>
       <use xlink:href="#m5a3eba3609" x="150.263874" y="94.365142" style="stroke: #000000; stroke-width: 0.8"/>
      </g>
     </g>
     <g id="text_13">
      <!-- 52.50 -->
      <g transform="translate(114.635749 98.164361) scale(0.1 -0.1)">
       <use xlink:href="#DejaVuSans-35"/>
       <use xlink:href="#DejaVuSans-32" x="63.623047"/>
       <use xlink:href="#DejaVuSans-2e" x="127.246094"/>
       <use xlink:href="#DejaVuSans-35" x="159.033203"/>
       <use xlink:href="#DejaVuSans-30" x="222.65625"/>
      </g>
     </g>
    </g>
   </g>
   <g id="LineCollection_1">
    <path d="M 238.883652 124.948436 
L 239.050072 124.458312 
L 240.214147 120.94564 
L 240.250551 120.836092 
L 240.294756 120.703068 
L 241.478766 117.133488 
L 241.611816 116.732284 
" clip-path="url(#p2579496c15)" style="fill: none; stroke: #ff0000; stroke-opacity: 0.7; stroke-width: 0.5"/>
    <path d="M 246.122496 118.352039 
L 244.827105 122.265204 
L 243.603657 125.983458 
L 243.441571 126.469314 
" clip-path="url(#p2579496c15)" style="fill: none; stroke: #ff0000; stroke-opacity: 0.7; stroke-width: 0.5"/>
    <path d="M 339.708264 500.531175 
L 340.05844 500.068795 
L 340.74059 499.168219 
L 341.001054 498.823923 
" clip-path="url(#p2579496c15)" style="fill: none; stroke: #ff0000; stroke-opacity: 0.7; stroke-width: 0.5"/>
    <path d="M 473.823843 565.130763 
L 474.2997 564.842665 
L 476.681155 563.428491 
L 477.136644 562.917026 
L 477.257125 562.617546 
L 477.317799 562.212073 
L 477.793657 553.165058 
L 478.090526 547.516186 
L 478.134731 546.729427 
L 478.163768 545.843079 
L 478.745372 534.474911 
L 478.75404 534.301341 
L 478.772675 533.877373 
L 478.886656 533.333898 
L 479.010171 532.776195 
L 479.592208 530.152006 
L 479.703588 529.649789 
L 479.805867 529.187408 
L 480.164277 527.57192 
L 480.3528 526.720428 
L 480.829091 524.572847 
L 481.031482 523.704282 
L 481.268544 522.687756 
L 481.621754 521.171858 
L 481.707564 520.810489 
L 481.824578 520.332459 
" clip-path="url(#p2579496c15)" style="fill: none; stroke: #ff0000; stroke-opacity: 0.7; stroke-width: 0.5"/>
    <path d="M 236.888777 115.127466 
L 237.38457 115.318109 
L 237.463447 115.34443 
" clip-path="url(#p2579496c15)" style="fill: none; stroke: #ff0000; stroke-opacity: 0.7; stroke-width: 0.5"/>
    <path d="M 237.463447 115.34443 
L 241.230436 116.607085 
L 241.611816 116.732284 
" clip-path="url(#p2579496c15)" style="fill: none; stroke: #ff0000; stroke-opacity: 0.7; stroke-width: 0.5"/>
    <path d="M 481.824578 520.332459 
L 482.003567 520.380831 
L 482.187322 520.358067 
L 482.348542 520.265591 
L 482.462089 520.119052 
L 482.511062 519.940502 
L 482.487659 519.756261 
L 482.395781 519.594783 
L 482.249296 519.481678 
L 482.103245 519.441842 
L 482.070308 519.432594 
L 481.886553 519.456069 
L 481.725333 519.547834 
L 481.611786 519.694373 
L 481.562813 519.873635 
L 481.586216 520.057164 
L 481.678094 520.218642 
L 481.824578 520.332459 
" clip-path="url(#p2579496c15)" style="fill: none; stroke: #ff0000; stroke-opacity: 0.7; stroke-width: 0.5"/>
   </g>
   <g id="patch_3">
    <path d="M 150.263874 640.8 
L 150.263874 86.4 
" style="fill: none; stroke: #000000; stroke-width: 0.8; stroke-linejoin: miter; stroke-linecap: square"/>
   </g>
   <g id="patch_4">
    <path d="M 587.736126 640.8 
L 587.736126 86.4 
" style="fill: none; stroke: #000000; stroke-width: 0.8; stroke-linejoin: miter; stroke-linecap: square"/>
   </g>
   <g id="patch_5">
    <path d="M 150.263874 640.8 
L 587.736126 640.8 
" style="fill: none; stroke: #000000; stroke-width: 0.8; stroke-linejoin: miter; stroke-linecap: square"/>
   </g>
   <g id="patch_6">
    <path d="M 150.263874 86.4 
L 587.736126 86.4 
" style="fill: none; stroke: #000000; stroke-width: 0.8; stroke-linejoin: miter; stroke-linecap: square"/>
   </g>
   <g id="text_14">
    <!-- Treptow-Köpenick_1 -->
    <g transform="translate(319.748299 380.627334) scale(0.12 -0.12)">
     <defs>
      <path id="DejaVuSans-54" d="M -19 4666 
L 3928 4666 
L 3928 4134 
L 2272 4134 
L 2272 0 
L 1638 0 
L 1638 4134 
L -19 4134 
L -19 4666 
z
" transform="scale(0.015625)"/>
      <path id="DejaVuSans-72" d="M 2631 2963 
Q 2534 3019 2420 3045 
Q 2306 3072 2169 3072 
Q 1681 3072 1420 2755 
Q 1159 2438 1159 1844 
L 1159 0 
L 581 0 
L 581 3500 
L 1159 3500 
L 1159 2956 
Q 1341 3275 1631 3429 
Q 1922 3584 2338 3584 
Q 2397 3584 2469 3576 
Q 2541 3569 2628 3553 
L 2631 2963 
z
" transform="scale(0.015625)"/>
      <path id="DejaVuSans-65" d="M 3597 1894 
L 3597 1613 
L 953 1613 
Q 991 1019 1311 708 
Q 1631 397 2203 397 
Q 2534 397 2845 478 
Q 3156 559 3463 722 
L 3463 178 
Q 3153 47 2828 -22 
Q 2503 -91 2169 -91 
Q 1331 -91 842 396 
Q 353 884 353 1716 
Q 353 2575 817 3079 
Q 1281 3584 2069 3584 
Q 2775 3584 3186 3129 
Q 3597 2675 3597 1894 
z
M 3022 2063 
Q 3016 2534 2758 2815 
Q 2500 3097 2075 3097 
Q 1594 3097 1305 2825 
Q 1016 2553 972 2059 
L 3022 2063 
z
" transform="scale(0.015625)"/>
      <path id="DejaVuSans-70" d="M 1159 525 
L 1159 -1331 
L 581 -1331 
L 581 3500 
L 1159 3500 
L 1159 2969 
Q 1341 3281 1617 3432 
Q 1894 3584 2278 3584 
Q 2916 3584 3314 3078 
Q 3713 2572 3713 1747 
Q 3713 922 3314 415 
Q 2916 -91 2278 -91 
Q 1894 -91 1617 61 
Q 1341 213 1159 525 
z
M 3116 1747 
Q 3116 2381 2855 2742 
Q 2594 3103 2138 3103 
Q 1681 3103 1420 2742 
Q 1159 2381 1159 1747 
Q 1159 1113 1420 752 
Q 1681 391 2138 391 
Q 2594 391 2855 752 
Q 3116 1113 3116 1747 
z
" transform="scale(0.015625)"/>
      <path id="DejaVuSans-74" d="M 1172 4494 
L 1172 3500 
L 2356 3500 
L 2356 3053 
L 1172 3053 
L 1172 1153 
Q 1172 725 1289 603 
Q 1406 481 1766 481 
L 2356 481 
L 2356 0 
L 1766 0 
Q 1100 0 847 248 
Q 594 497 594 1153 
L 594 3053 
L 172 3053 
L 172 3500 
L 594 3500 
L 594 4494 
L 1172 4494 
z
" transform="scale(0.015625)"/>
      <path id="DejaVuSans-6f" d="M 1959 3097 
Q 1497 3097 1228 2736 
Q 959 2375 959 1747 
Q 959 1119 1226 758 
Q 1494 397 1959 397 
Q 2419 397 2687 759 
Q 2956 1122 2956 1747 
Q 2956 2369 2687 2733 
Q 2419 3097 1959 3097 
z
M 1959 3584 
Q 2709 3584 3137 3096 
Q 3566 2609 3566 1747 
Q 3566 888 3137 398 
Q 2709 -91 1959 -91 
Q 1206 -91 779 398 
Q 353 888 353 1747 
Q 353 2609 779 3096 
Q 1206 3584 1959 3584 
z
" transform="scale(0.015625)"/>
      <path id="DejaVuSans-77" d="M 269 3500 
L 844 3500 
L 1563 769 
L 2278 3500 
L 2956 3500 
L 3675 769 
L 4391 3500 
L 4966 3500 
L 4050 0 
L 3372 0 
L 2619 2869 
L 1863 0 
L 1184 0 
L 269 3500 
z
" transform="scale(0.015625)"/>
      <path id="DejaVuSans-2d" d="M 313 2009 
L 1997 2009 
L 1997 1497 
L 313 1497 
L 313 2009 
z
" transform="scale(0.015625)"/>
      <path id="DejaVuSans-4b" d="M 628 4666 
L 1259 4666 
L 1259 2694 
L 3353 4666 
L 4166 4666 
L 1850 2491 
L 4331 0 
L 3500 0 
L 1259 2247 
L 1259 0 
L 628 0 
L 628 4666 
z
" transform="scale(0.015625)"/>
      <path id="DejaVuSans-f6" d="M 1959 3097 
Q 1497 3097 1228 2736 
Q 959 2375 959 1747 
Q 959 1119 1226 758 
Q 1494 397 1959 397 
Q 2419 397 2687 759 
Q 2956 1122 2956 1747 
Q 2956 2369 2687 2733 
Q 2419 3097 1959 3097 
z
M 1959 3584 
Q 2709 3584 3137 3096 
Q 3566 2609 3566 1747 
Q 3566 888 3137 398 
Q 2709 -91 1959 -91 
Q 1206 -91 779 398 
Q 353 888 353 1747 
Q 353 2609 779 3096 
Q 1206 3584 1959 3584 
z
M 2254 4850 
L 2888 4850 
L 2888 4219 
L 2254 4219 
L 2254 4850 
z
M 1032 4850 
L 1666 4850 
L 1666 4219 
L 1032 4219 
L 1032 4850 
z
" transform="scale(0.015625)"/>
      <path id="DejaVuSans-6e" d="M 3513 2113 
L 3513 0 
L 2938 0 
L 2938 2094 
Q 2938 2591 2744 2837 
Q 2550 3084 2163 3084 
Q 1697 3084 1428 2787 
Q 1159 2491 1159 1978 
L 1159 0 
L 581 0 
L 581 3500 
L 1159 3500 
L 1159 2956 
Q 1366 3272 1645 3428 
Q 1925 3584 2291 3584 
Q 2894 3584 3203 3211 
Q 3513 2838 3513 2113 
z
" transform="scale(0.015625)"/>
      <path id="DejaVuSans-69" d="M 603 3500 
L 1178 3500 
L 1178 0 
L 603 0 
L 603 3500 
z
M 603 4863 
L 1178 4863 
L 1178 4134 
L 603 4134 
L 603 4863 
z
" transform="scale(0.015625)"/>
      <path id="DejaVuSans-63" d="M 3122 3366 
L 3122 2828 
Q 2878 2963 2633 3030 
Q 2388 3097 2138 3097 
Q 1578 3097 1268 2742 
Q 959 2388 959 1747 
Q 959 1106 1268 751 
Q 1578 397 2138 397 
Q 2388 397 2633 464 
Q 2878 531 3122 666 
L 3122 134 
Q 2881 22 2623 -34 
Q 2366 -91 2075 -91 
Q 1284 -91 818 406 
Q 353 903 353 1747 
Q 353 2603 823 3093 
Q 1294 3584 2113 3584 
Q 2378 3584 2631 3529 
Q 2884 3475 3122 3366 
z
" transform="scale(0.015625)"/>
      <path id="DejaVuSans-6b" d="M 581 4863 
L 1159 4863 
L 1159 1991 
L 2875 3500 
L 3609 3500 
L 1753 1863 
L 3688 0 
L 2938 0 
L 1159 1709 
L 1159 0 
L 581 0 
L 581 4863 
z
" transform="scale(0.015625)"/>
      <path id="DejaVuSans-5f" d="M 3263 -1063 
L 3263 -1509 
L -63 -1509 
L -63 -1063 
L 3263 -1063 
z
" transform="scale(0.015625)"/>
     </defs>
     <use xlink:href="#DejaVuSans-54"/>
     <use xlink:href="#DejaVuSans-72" x="46.333984"/>
     <use xlink:href="#DejaVuSans-65" x="85.197266"/>
     <use xlink:href="#DejaVuSans-70" x="146.720703"/>
     <use xlink:href="#DejaVuSans-74" x="210.197266"/>
     <use xlink:href="#DejaVuSans-6f" x="249.40625"/>
     <use xlink:href="#DejaVuSans-77" x="310.587891"/>
     <use xlink:href="#DejaVuSans-2d" x="392.375"/>
     <use xlink:href="#DejaVuSans-4b" x="428.458984"/>
     <use xlink:href="#DejaVuSans-f6" x="489.035156"/>
     <use xlink:href="#DejaVuSans-70" x="550.216797"/>
     <use xlink:href="#DejaVuSans-65" x="613.693359"/>
     <use xlink:href="#DejaVuSans-6e" x="675.216797"/>
     <use xlink:href="#DejaVuSans-69" x="738.595703"/>
     <use xlink:href="#DejaVuSans-63" x="766.378906"/>
     <use xlink:href="#DejaVuSans-6b" x="821.359375"/>
     <use xlink:href="#DejaVuSans-5f" x="879.269531"/>
     <use xlink:href="#DejaVuSans-31" x="929.269531"/>
    </g>
   </g>
  </g>
 </g>
 <defs>
  <clipPath id="p2579496c15">
   <rect x="150.263874" y="86.4" width="437.472253" height="554.4"/>
  </clipPath>
 </defs>
</svg>
