<?xml version="1.0" encoding="utf-8" standalone="no"?>
<!DOCTYPE svg PUBLIC "-//W3C//DTD SVG 1.1//EN"
  "http://www.w3.org/Graphics/SVG/1.1/DTD/svg11.dtd">
<svg xmlns:xlink="http://www.w3.org/1999/xlink" width="720pt" height="720pt" viewBox="0 0 720 720" xmlns="http://www.w3.org/2000/svg" version="1.1">
 <metadata>
  <rdf:RDF xmlns:dc="http://purl.org/dc/elements/1.1/" xmlns:cc="http://creativecommons.org/ns#" xmlns:rdf="http://www.w3.org/1999/02/22-rdf-syntax-ns#">
   <cc:Work>
    <dc:type rdf:resource="http://purl.org/dc/dcmitype/StillImage"/>
    <dc:date>2024-10-22T09:54:12.153945</dc:date>
    <dc:format>image/svg+xml</dc:format>
    <dc:creator>
     <cc:Agent>
      <dc:title>Matplotlib v3.9.2, https://matplotlib.org/</dc:title>
     </cc:Agent>
    </dc:creator>
   </cc:Work>
  </rdf:RDF>
 </metadata>
 <defs>
  <style type="text/css">*{stroke-linejoin: round; stroke-linecap: butt}</style>
 </defs>
 <g id="figure_1">
  <g id="patch_1">
   <path d="M 0 720 
L 720 720 
L 720 0 
L 0 0 
z
" style="fill: #ffffff"/>
  </g>
  <g id="axes_1">
   <g id="patch_2">
    <path d="M 134.739718 640.8 
L 603.260282 640.8 
L 603.260282 86.4 
L 134.739718 86.4 
z
" style="fill: #ffffff"/>
   </g>
   <g id="PatchCollection_1">
    <path d="M 330.954698 503.35964 
L 329.802929 504.292638 
L 329.72114 504.369969 
L 329.690899 504.398667 
L 329.677787 504.411099 
L 329.485878 504.59337 
L 329.42206 504.653943 
L 324.47009 509.356695 
L 324.297286 509.520836 
L 323.517924 510.260941 
L 323.34603 510.424212 
L 320.45993 513.165153 
L 320.289933 513.326605 
L 319.271928 514.293492 
L 319.102083 514.454786 
L 317.187198 516.273441 
L 317.014932 516.43711 
L 316.237188 517.175647 
L 316.065072 517.339081 
L 312.263344 520.949904 
L 312.074257 521.129569 
L 311.297898 521.866849 
L 311.10775 522.047467 
L 310.038332 523.063236 
L 307.358505 525.609695 
L 307.170235 525.787487 
L 306.394132 526.525082 
L 306.203214 526.705563 
L 298.327621 534.186535 
L 298.13756 534.367002 
L 297.36277 535.102885 
L 297.17256 535.283588 
L 295.713023 536.670069 
L 295.47227 536.898839 
L 294.201056 538.106365 
L 293.963109 538.332443 
L 289.353018 542.71177 
L 289.163649 542.891685 
L 288.384955 543.631386 
L 288.211799 543.795706 
L 284.446215 547.372989 
L 284.134321 547.669316 
L 284.211443 548.048519 
L 284.804246 550.965426 
L 286.587447 559.737981 
L 286.639585 559.994823 
L 286.804559 560.806314 
L 287.505365 564.255118 
L 289.801325 575.560576 
L 290.13107 577.186276 
L 290.533137 579.164939 
L 291.043343 581.677042 
L 291.456272 583.715293 
L 291.498249 583.921212 
L 291.822868 585.595194 
L 292.145574 587.259328 
L 292.16112 587.336018 
L 293.39914 593.430805 
L 293.708647 594.955819 
L 293.696806 594.973572 
L 293.68473 594.991174 
L 293.672417 595.008549 
L 293.968599 596.467441 
L 294.107115 597.149785 
L 294.107967 597.153642 
L 294.317899 598.186411 
L 294.449352 598.833107 
L 294.53015 599.230676 
L 294.774267 599.312434 
L 295.432513 599.680789 
L 295.529115 599.736446 
L 296.015115 600.017539 
L 296.268526 600.153494 
L 296.359708 600.185865 
L 296.557401 600.256027 
L 297.074863 600.394695 
L 297.190178 600.602827 
L 297.440436 600.671367 
L 297.458153 600.672863 
L 297.446002 600.81923 
L 297.43692 600.919205 
L 297.214312 603.405226 
L 298.081509 603.48008 
L 298.233154 603.526938 
L 298.360155 603.62652 
L 298.485725 603.773314 
L 298.919741 603.906957 
L 299.097939 603.998438 
L 299.291424 604.017709 
L 299.744175 604.062647 
L 301.020889 604.175897 
L 301.245729 604.217768 
L 301.909142 604.36685 
L 302.1031 604.409355 
L 302.479515 604.498475 
L 302.491806 604.533086 
L 302.558299 604.574333 
L 302.601077 604.58895 
L 302.694827 604.641259 
L 302.780463 604.674366 
L 302.977728 604.689687 
L 303.391797 604.73155 
L 303.743944 604.766936 
L 304.130912 604.805482 
L 304.270196 604.818119 
L 304.564282 604.84695 
L 305.062564 604.852223 
L 306.157766 604.96534 
L 307.555404 605.138111 
L 308.116712 605.204076 
L 308.75404 605.210377 
L 309.125409 605.2415 
L 309.206631 605.247582 
L 309.354345 605.294913 
L 309.405158 605.324861 
L 309.440216 605.339637 
L 309.478818 605.338846 
L 309.51742 605.338054 
L 309.687348 605.338444 
L 309.77243 605.344448 
L 310.039179 605.358348 
L 310.844468 605.458053 
L 311.122797 605.471716 
L 311.281223 605.476216 
L 311.91682 605.587149 
L 312.180102 605.620491 
L 312.411793 605.619616 
L 312.875254 605.62174 
L 313.195335 605.599685 
L 313.373062 605.603791 
L 313.634925 605.567435 
L 313.97281 605.471415 
L 314.30644 605.356114 
L 314.690016 605.228169 
L 314.966689 605.160521 
L 315.093524 605.130806 
L 315.193653 605.117133 
L 315.371144 605.109624 
L 315.56833 605.121079 
L 315.854537 605.142332 
L 316.13263 605.144383 
L 316.867803 605.214547 
L 317.52916 605.262982 
L 318.813271 605.360645 
L 320.983258 605.533146 
L 322.588867 605.678473 
L 323.366895 605.767142 
L 323.885186 605.806894 
L 324.573247 605.839299 
L 324.781619 605.831162 
L 324.9016 605.844202 
L 325.184826 605.874415 
L 325.211283 605.880477 
L 325.226724 605.880161 
L 326.30687 606.013013 
L 327.359285 606.111571 
L 328.957483 606.272572 
L 329.096765 606.285218 
L 329.102046 606.165024 
L 329.446391 606.19672 
L 329.49008 606.20101 
L 329.968777 606.248018 
L 329.959557 606.364419 
L 330.098839 606.377066 
L 330.315483 606.395879 
L 330.969115 606.444495 
L 331.40579 606.45881 
L 332.601109 606.558335 
L 332.914572 606.590665 
L 334.477945 606.748528 
L 336.640356 606.929021 
L 336.86968 607.001811 
L 336.971225 607.057843 
L 337.059215 607.207122 
L 337.095293 607.272238 
L 337.264646 607.814978 
L 337.369107 607.824465 
L 337.773101 609.272743 
L 338.105469 609.285323 
L 338.715046 607.924806 
L 338.734347 607.924412 
L 338.998753 607.44254 
L 339.073834 607.336416 
L 339.141982 607.26917 
L 339.183894 607.241198 
L 339.241404 607.220655 
L 339.333891 607.211018 
L 339.503897 607.215294 
L 340.006822 607.259256 
L 340.602628 607.312943 
L 341.515834 607.402762 
L 343.18713 607.550709 
L 345.276189 607.732749 
L 347.438747 607.921049 
L 348.293811 608.000449 
L 349.288156 608.092505 
L 351.481906 608.295687 
L 353.992581 608.511789 
L 355.784553 608.707691 
L 355.981893 608.726912 
L 357.266454 608.847938 
L 357.378713 608.861146 
L 358.980357 609.002834 
L 360.388285 609.113611 
L 361.614784 609.228088 
L 363.239194 609.349962 
L 363.672631 609.39537 
L 365.638538 609.599398 
L 367.778072 609.79603 
L 369.805189 609.971718 
L 371.360581 610.118274 
L 371.739739 610.153174 
L 374.455372 610.384613 
L 376.471137 610.572189 
L 378.022429 610.707233 
L 379.051424 610.79479 
L 381.457454 610.993832 
L 384.270205 611.254358 
L 386.742633 611.490823 
L 386.89743 611.50705 
L 390.031037 611.78435 
L 392.004014 611.957381 
L 394.371507 612.161161 
L 394.433426 612.167653 
L 396.379534 612.349 
L 398.755289 612.579755 
L 401.351849 612.84479 
L 402.118109 612.926111 
L 404.331497 613.148569 
L 406.629338 613.346088 
L 409.476564 613.594483 
L 409.805378 613.622692 
L 410.872961 613.709554 
L 412.87263 613.86666 
L 416.079699 614.150436 
L 417.503112 614.264986 
L 418.694527 614.364862 
L 420.143483 614.405304 
L 421.074556 614.425226 
L 421.075178 614.456203 
L 421.955292 614.43842 
L 422.442137 614.451826 
L 423.098453 614.470577 
L 423.156964 614.472249 
L 423.802309 614.494076 
L 424.302133 614.57695 
L 424.722294 614.731161 
L 425.519452 615.005593 
L 425.546706 615.016663 
L 425.998757 615.22059 
L 426.224588 615.312874 
L 426.457906 615.393385 
L 426.7841 615.483642 
L 427.252731 615.551654 
L 428.311808 615.6 
L 429.492622 615.556795 
L 430.33807 615.543605 
L 430.959242 615.515574 
L 431.437511 615.486553 
L 431.684172 615.462207 
L 431.850003 615.451113 
L 431.996688 615.448154 
L 432.510941 615.480389 
L 433.128952 615.487288 
L 433.360715 615.49036 
L 436.654561 615.288342 
L 440.359197 614.965734 
L 440.968015 614.899231 
L 442.335964 614.751577 
L 443.390622 614.579251 
L 444.903865 614.358952 
L 446.467601 614.153137 
L 448.269507 613.884426 
L 448.754415 613.801062 
L 449.181576 613.726608 
L 449.347021 613.696161 
L 449.387034 613.682365 
L 449.454408 613.659136 
L 449.626876 613.593684 
L 449.844892 613.488578 
L 449.963395 613.428086 
L 450.169365 613.29998 
L 450.558455 613.059723 
L 450.997727 612.818457 
L 451.227169 612.705374 
L 451.456921 612.60778 
L 451.709911 612.513592 
L 451.870877 612.452247 
L 452.005054 612.403061 
L 452.139231 612.353876 
L 452.312009 612.303914 
L 452.992938 612.173999 
L 454.654498 611.838416 
L 454.731392 611.821374 
L 454.992956 611.769628 
L 456.19269 611.51307 
L 456.527211 611.440488 
L 458.546847 611.051235 
L 460.127198 610.709562 
L 462.81164 610.155892 
L 463.757694 609.958689 
L 464.64214 609.770473 
L 467.684823 609.170903 
L 471.241465 608.394469 
L 471.3145 608.377508 
L 474.061358 607.853655 
L 474.264792 607.791467 
L 474.380136 607.76591 
L 474.518332 607.7244 
L 474.67112 607.639985 
L 474.769198 607.581306 
L 474.838525 607.289307 
L 474.850712 607.238161 
L 475.002991 607.205666 
L 475.778995 607.03995 
L 475.714526 606.921003 
L 478.92886 606.278106 
L 479.195093 606.569183 
L 482.212333 605.969677 
L 482.761429 606.083194 
L 482.769998 606.125633 
L 484.440216 605.741276 
L 501.199927 602.393656 
L 508.481197 600.920222 
L 510.192341 600.575836 
L 511.114244 600.455314 
L 513.261779 600.636339 
L 513.644591 600.555871 
L 514.669577 600.340408 
L 518.744457 599.483887 
L 522.813375 598.641319 
L 527.216673 597.748127 
L 528.265063 597.512479 
L 528.838912 597.253669 
L 529.80549 596.650333 
L 530.279294 596.417614 
L 530.884662 596.198002 
L 539.478281 594.490237 
L 547.183588 592.911962 
L 564.028347 589.462172 
L 565.717947 588.866053 
L 570.970271 587.852881 
L 572.0538 587.664914 
L 572.985765 587.503243 
L 572.581797 586.346308 
L 572.230852 585.392498 
L 573.280669 585.114566 
L 574.65506 584.536738 
L 575.528906 584.071092 
L 575.751755 583.922499 
L 575.976551 583.751169 
L 576.483357 583.309215 
L 577.284693 582.388837 
L 577.475394 582.172628 
L 578.039866 581.43823 
L 578.338199 580.866451 
L 579.014968 579.569769 
L 578.847397 578.142517 
L 578.602959 576.255347 
L 578.266363 573.492292 
L 578.207392 573.521892 
L 578.128193 572.919855 
L 578.012893 571.287656 
L 577.941178 570.041269 
L 577.695115 566.941268 
L 577.623831 566.199853 
L 577.503731 566.184875 
L 577.382772 564.30456 
L 577.267346 562.654467 
L 576.706951 562.981035 
L 576.599193 563.404862 
L 575.59751 563.916268 
L 575.223511 563.28133 
L 576.494853 562.565709 
L 577.110014 562.219462 
L 577.084441 562.148537 
L 576.990731 561.990871 
L 576.935323 561.891561 
L 576.471399 561.899814 
L 574.439974 559.825441 
L 574.101164 559.479485 
L 572.60513 557.951872 
L 572.082984 558.079123 
L 572.027851 557.817343 
L 572.398514 557.740817 
L 571.406825 556.728188 
L 570.477521 554.651375 
L 568.649414 550.122251 
L 568.378149 547.696397 
L 568.359142 545.280729 
L 570.026975 545.204685 
L 569.976549 544.542734 
L 568.383711 544.614348 
L 568.385418 544.46967 
L 568.201024 544.43815 
L 568.107916 544.072301 
L 568.088417 543.576618 
L 568.073296 543.201166 
L 568.070569 543.167964 
L 567.713456 543.157241 
L 567.668267 542.639754 
L 567.417904 542.086899 
L 567.332903 541.693464 
L 567.165144 541.216446 
L 567.152509 540.771218 
L 567.073206 539.859364 
L 566.985506 538.874232 
L 567.141921 538.86168 
L 567.176062 536.869907 
L 566.90065 536.418266 
L 566.834937 536.415694 
L 566.902584 535.481405 
L 567.060887 535.427444 
L 567.204205 534.460046 
L 567.340727 533.473103 
L 567.607374 533.036828 
L 568.604959 530.88651 
L 568.696497 530.894148 
L 569.541304 528.407288 
L 570.527783 526.954931 
L 571.568247 525.70542 
L 571.957061 525.376122 
L 572.208333 524.81759 
L 572.223311 524.373829 
L 572.444274 524.021825 
L 572.76457 523.99867 
L 572.985579 523.707792 
L 576.704713 519.176353 
L 577.574217 518.329237 
L 580.193691 515.385823 
L 580.590921 514.709747 
L 581.203615 513.959062 
L 581.606983 512.546161 
L 581.849615 512.55275 
L 581.963892 512.207975 
L 581.58629 511.93793 
L 581.662656 510.517939 
L 581.671857 509.057131 
L 581.589438 508.594302 
L 581.168054 507.473291 
L 580.664735 506.475847 
L 580.028193 505.472905 
L 579.847708 505.26404 
L 577.606695 503.522753 
L 576.470881 502.640176 
L 576.30879 502.514234 
L 574.705293 501.500149 
L 574.135928 500.716302 
L 573.895841 500.199807 
L 573.783669 499.234836 
L 570.440525 499.235659 
L 569.86163 499.235429 
L 568.666185 499.229441 
L 568.654036 499.138261 
L 568.644601 499.067172 
L 569.820679 499.113598 
L 570.177931 499.126044 
L 570.439954 499.12434 
L 573.770223 499.097353 
L 573.748993 498.886268 
L 573.701979 498.735039 
L 573.23693 497.846551 
L 573.142213 497.430684 
L 572.982505 497.002236 
L 573.06048 496.983725 
L 572.930295 496.332186 
L 572.394985 495.187255 
L 572.311136 495.201699 
L 572.277498 495.102113 
L 572.12956 494.729989 
L 571.77605 494.774411 
L 571.443412 493.819153 
L 571.125515 493.922216 
L 570.718964 492.925192 
L 570.190242 491.628904 
L 570.281998 490.764718 
L 569.742241 490.406632 
L 569.557317 490.039735 
L 568.116497 487.365275 
L 567.984818 487.120741 
L 567.507511 486.234982 
L 567.006376 485.304606 
L 566.803408 484.927996 
L 566.088071 483.600083 
L 565.976503 483.380408 
L 565.083716 481.622622 
L 564.658656 480.605286 
L 564.154618 479.399085 
L 562.212765 475.072056 
L 561.252373 471.882575 
L 560.772686 469.315133 
L 560.368422 469.130008 
L 560.22008 467.755532 
L 560.107745 465.625353 
L 559.847418 462.96896 
L 559.927142 460.743861 
L 559.906752 459.318736 
L 560.073705 458.381857 
L 559.589831 454.417016 
L 559.529466 453.903008 
L 558.774236 453.611967 
L 558.588922 452.639465 
L 558.486398 450.968051 
L 558.398134 449.431935 
L 558.675691 449.283798 
L 558.868795 449.260908 
L 562.578057 449.423093 
L 562.574191 448.768743 
L 562.390646 448.743485 
L 562.432277 448.652556 
L 562.560199 448.353138 
L 562.495296 448.188707 
L 562.445632 447.829281 
L 562.402286 447.547281 
L 562.66275 447.550871 
L 562.916721 447.554357 
L 563.769253 447.540475 
L 564.378314 447.530492 
L 564.548618 447.417103 
L 564.584976 447.372222 
L 564.61616 447.323569 
L 564.641561 447.271623 
L 564.661042 447.217237 
L 564.674226 447.160884 
L 564.681053 447.103495 
L 564.672005 445.770804 
L 564.671071 445.660732 
L 564.672863 445.622269 
L 564.669016 445.583918 
L 564.659471 445.546609 
L 564.644554 445.511112 
L 564.624511 445.478195 
L 564.59517 445.443991 
L 564.560377 445.415473 
L 564.521153 445.393395 
L 564.478747 445.378431 
L 564.434329 445.371177 
L 564.286087 445.063443 
L 564.155249 444.791933 
L 564.178638 443.376244 
L 564.00982 443.36518 
L 562.779399 443.400809 
L 562.539605 443.465917 
L 562.302127 443.538803 
L 562.067121 443.619466 
L 561.834816 443.707745 
L 561.605595 443.803556 
L 561.379536 443.906896 
L 561.157021 444.017527 
L 560.938205 444.135444 
L 558.761149 444.09178 
L 558.751492 444.667452 
L 558.335967 444.668723 
L 558.176032 444.669262 
L 558.386419 443.760109 
L 558.530516 442.064279 
L 558.952164 440.701196 
L 559.446473 439.284532 
L 559.578933 439.375571 
L 560.323024 437.729974 
L 560.585315 436.729225 
L 560.839383 435.899084 
L 561.065429 435.187801 
L 561.175294 434.697534 
L 561.333981 433.724794 
L 561.571046 432.244128 
L 562.005857 430.865603 
L 562.517749 429.24228 
L 562.604654 429.295796 
L 563.117308 427.83624 
L 563.231225 427.511998 
L 563.520589 426.688208 
L 564.046387 425.287429 
L 564.587459 423.845983 
L 565.103424 422.471276 
L 565.127737 422.399285 
L 565.623024 420.927991 
L 565.965087 420.55437 
L 566.12525 420.05536 
L 566.234091 419.69682 
L 566.304311 419.339047 
L 566.345618 419.082562 
L 566.384483 418.702168 
L 566.380818 418.516302 
L 566.385947 418.384494 
L 566.274078 417.805653 
L 565.93469 417.05313 
L 565.470946 416.264336 
L 565.327783 416.057992 
L 565.111086 415.845359 
L 564.851598 415.61808 
L 564.120124 415.16386 
L 563.680257 414.998263 
L 563.522059 415.009147 
L 563.492208 415.074585 
L 561.72952 414.401963 
L 561.303503 414.288311 
L 560.253417 414.033716 
L 559.694373 413.738084 
L 556.449341 412.022183 
L 556.308794 411.905584 
L 555.16245 410.90544 
L 554.273221 410.129598 
L 553.004901 409.136066 
L 552.942187 409.090826 
L 552.714045 408.886175 
L 552.643912 408.856577 
L 552.589687 408.849907 
L 552.536074 408.874213 
L 552.506094 408.921293 
L 552.435349 408.860718 
L 552.457911 408.829281 
L 552.472136 408.767019 
L 552.46227 408.658751 
L 552.421811 408.566585 
L 552.335311 408.490828 
L 552.043689 408.202215 
L 550.777873 406.608524 
L 548.659281 403.926992 
L 548.545289 403.793599 
L 547.280011 402.197429 
L 547.224703 402.107353 
L 547.259983 402.079446 
L 543.025453 394.852888 
L 541.025557 390.970277 
L 540.255101 389.350502 
L 540.091901 388.999767 
L 539.559526 387.855831 
L 539.456733 387.632735 
L 539.261204 387.190914 
L 539.040538 386.68955 
L 538.654355 385.669766 
L 537.772778 383.461929 
L 537.008635 381.737056 
L 536.421195 380.334449 
L 536.394124 380.282538 
L 535.901057 379.247684 
L 534.432351 376.31096 
L 533.417208 374.541429 
L 532.500539 373.436453 
L 531.559207 372.307875 
L 531.060859 371.955527 
L 530.958539 371.906438 
L 530.927359 371.89148 
L 530.593201 371.726482 
L 530.400377 371.623065 
L 530.232442 371.53344 
L 530.060261 371.424531 
L 529.876261 371.304236 
L 529.727485 371.206482 
L 529.606055 371.123678 
L 529.492196 371.032976 
L 529.36235 370.915477 
L 529.213727 370.825468 
L 529.084955 370.762179 
L 528.936716 370.691531 
L 528.769164 370.621267 
L 528.497013 370.537592 
L 528.263948 370.476381 
L 528.100719 370.429274 
L 527.937106 370.362806 
L 527.792576 370.284337 
L 527.639783 370.178916 
L 527.487604 370.104473 
L 527.359292 370.064418 
L 527.238858 370.031954 
L 526.970339 369.936587 
L 526.763929 369.855477 
L 526.61592 369.796446 
L 526.425114 369.722773 
L 526.19939 369.642048 
L 525.842029 369.548452 
L 525.212975 369.394416 
L 524.141427 369.140735 
L 523.233646 368.961268 
L 522.861831 368.918321 
L 522.385877 368.885197 
L 521.863725 368.860742 
L 521.430338 368.830645 
L 520.966202 368.808908 
L 520.498819 368.818227 
L 520.070831 368.865498 
L 519.66254 368.931745 
L 519.159066 369.069618 
L 518.822532 369.246773 
L 518.307374 369.574692 
L 518.066332 369.695712 
L 516.843212 370.177208 
L 516.394279 370.337239 
L 515.760708 370.539691 
L 515.320116 370.730546 
L 514.941884 370.753588 
L 514.239804 370.814082 
L 513.275218 370.887564 
L 512.592606 370.95542 
L 511.663631 371.070806 
L 511.08902 371.128762 
L 509.825303 371.316688 
L 509.251555 371.223554 
L 508.844131 371.138721 
L 508.189805 371.074314 
L 507.400594 371.028096 
L 506.597009 371.0364 
L 505.52698 371.053902 
L 504.584802 371.088221 
L 503.521805 371.070725 
L 502.010354 371.007731 
L 501.474282 371.002176 
L 499.720463 370.977737 
L 499.497785 370.976534 
L 498.556096 370.98103 
L 498.12529 371.002971 
L 497.349621 371.054741 
L 496.928343 371.10113 
L 495.826442 371.269056 
L 495.635678 371.298128 
L 495.523513 371.331886 
L 494.863605 371.530502 
L 494.105132 371.669636 
L 492.82721 371.772534 
L 492.697095 369.088317 
L 492.680396 368.742651 
L 492.619093 367.477729 
L 492.482558 364.660531 
L 492.466863 364.338086 
L 492.349891 361.924493 
L 492.322629 361.361983 
L 492.313056 361.164446 
L 491.12006 361.03829 
L 491.082843 357.749781 
L 490.731816 353.808246 
L 490.438542 351.086242 
L 491.338082 350.872304 
L 491.104198 349.416747 
L 491.08088 349.278225 
L 490.83072 347.793322 
L 491.340153 347.697594 
L 491.68439 347.631358 
L 492.841677 347.408701 
L 493.145138 347.243186 
L 493.415151 347.187192 
L 493.62136 347.090329 
L 493.870886 347.026301 
L 516.596062 341.516231 
L 519.109558 340.653704 
L 519.679699 340.636834 
L 520.099845 340.570583 
L 520.521241 340.512752 
L 520.943728 340.46319 
L 521.367079 340.422133 
L 521.791215 340.389429 
L 522.215827 340.36516 
L 522.640916 340.349326 
L 523.066174 340.342012 
L 523.491521 340.343064 
L 523.916726 340.352564 
L 517.346204 330.496425 
L 517.013848 329.998076 
L 515.030651 327.065182 
L 513.569043 324.889583 
L 512.768494 323.678211 
L 512.278969 322.451258 
L 506.255377 311.362159 
L 506.191268 311.243974 
L 505.945438 310.791554 
L 505.1407 309.310051 
L 504.140997 307.474049 
L 495.407508 291.434745 
L 494.056844 288.954464 
L 483.496819 269.563021 
L 483.405102 269.394647 
L 482.700164 268.100307 
L 482.114944 267.025766 
L 482.010785 266.8344 
L 482.055784 266.625557 
L 481.943899 266.407307 
L 481.615158 265.765977 
L 481.324392 265.551777 
L 481.21566 265.352135 
L 480.078468 263.262435 
L 479.866132 262.872347 
L 479.617184 262.406293 
L 478.858379 260.986214 
L 478.579152 260.463515 
L 477.532441 258.504721 
L 476.285621 256.227031 
L 475.758889 255.264904 
L 475.161786 254.17411 
L 474.83507 253.56932 
L 474.949654 253.507156 
L 474.485037 252.58404 
L 471.040286 246.323074 
L 469.065839 242.607772 
L 467.850655 240.348423 
L 467.595539 240.178306 
L 466.975905 238.808184 
L 466.27909 237.38393 
L 466.031152 236.756889 
L 465.937495 236.168413 
L 465.968258 235.711464 
L 466.114424 235.293119 
L 466.346061 234.936642 
L 466.615806 234.448472 
L 467.858289 232.820891 
L 467.721258 232.72559 
L 467.053584 232.245561 
L 467.298226 231.748068 
L 467.548393 231.874984 
L 468.020065 232.114363 
L 468.37424 231.271693 
L 467.82592 231.034627 
L 467.677357 230.97044 
L 467.566913 230.303124 
L 467.51952 230.016956 
L 467.440013 229.381249 
L 467.069362 229.229635 
L 466.504379 228.998484 
L 466.344346 228.932978 
L 465.841075 229.390884 
L 463.946099 228.808681 
L 462.945386 228.527562 
L 460.87906 227.708878 
L 460.446287 227.489878 
L 458.9852 226.750617 
L 456.79133 225.416526 
L 454.997278 223.976558 
L 454.466301 223.463742 
L 451.774903 221.54414 
L 450.333613 220.423649 
L 450.249783 220.358478 
L 449.734548 220.006808 
L 449.462032 219.77615 
L 448.238857 218.446206 
L 447.791815 217.79396 
L 446.938731 217.184984 
L 446.057997 216.43107 
L 445.252092 215.869492 
L 445.09263 215.771212 
L 443.611575 214.741729 
L 443.479553 214.627712 
L 441.970863 213.539214 
L 441.826991 213.374148 
L 440.471933 212.425114 
L 440.286756 212.309225 
L 438.78205 211.269933 
L 438.634289 211.146163 
L 437.336274 210.200949 
L 437.210241 210.085031 
L 434.964312 208.437557 
L 433.645082 207.469864 
L 433.467778 207.338169 
L 429.132585 204.220192 
L 428.959267 204.102286 
L 427.422743 203.056477 
L 427.233585 202.919911 
L 426.627039 202.482104 
L 421.932845 199.069304 
L 417.73463 196.032208 
L 417.250109 195.688406 
L 415.645401 194.515878 
L 413.152037 192.694116 
L 412.616056 192.302551 
L 411.604693 192.14822 
L 410.682586 191.983797 
L 401.39407 185.192264 
L 399.028792 183.447953 
L 398.936716 183.567502 
L 397.582818 185.326635 
L 397.356606 185.653821 
L 397.198674 185.877823 
L 394.759252 189.006704 
L 394.165916 189.754736 
L 392.503946 191.885579 
L 392.249451 192.211897 
L 392.23081 192.2358 
L 391.989333 192.541838 
L 391.729235 192.871419 
L 388.337235 197.170695 
L 386.116527 199.985378 
L 380.838111 206.678612 
L 377.223365 211.294581 
L 377.079107 211.478724 
L 376.901611 211.705301 
L 373.12189 216.531285 
L 370.335334 220.225511 
L 368.800037 222.203663 
L 363.204613 229.430269 
L 359.477701 234.250903 
L 354.832936 240.228143 
L 354.614872 240.107619 
L 353.881168 241.01306 
L 351.364664 244.118545 
L 351.142521 243.816041 
L 342.46987 232.019391 
L 338.044634 225.971415 
L 334.33626 220.971796 
L 333.788037 220.17819 
L 331.307142 216.586882 
L 326.750206 209.989412 
L 323.913203 206.048741 
L 317.626357 197.743283 
L 315.202951 194.547882 
L 314.056989 193.054167 
L 311.403131 189.795564 
L 309.994881 188.067684 
L 307.559658 185.394209 
L 303.989179 182.188149 
L 303.777947 181.999492 
L 303.432772 181.688693 
L 303.421184 181.677851 
L 303.203733 181.483821 
L 303.098488 181.388749 
L 302.374242 182.064074 
L 300.37288 185.365876 
L 298.215927 188.62339 
L 296.453371 191.277042 
L 295.275434 190.469844 
L 295.227872 190.442929 
L 294.485174 190.021609 
L 291.985611 188.603557 
L 291.176564 188.1482 
L 290.462947 187.746665 
L 285.174318 184.770387 
L 278.421532 181.029492 
L 277.950717 180.773054 
L 277.475879 180.524059 
L 276.997173 180.282582 
L 276.514756 180.048697 
L 276.028629 179.822482 
L 275.539104 179.604007 
L 274.987822 179.379212 
L 274.432646 179.164414 
L 273.87373 178.959533 
L 273.311232 178.764799 
L 272.745306 178.58013 
L 272.176187 178.405676 
L 271.60403 178.241513 
L 271.028991 178.087637 
L 270.451379 177.944041 
L 269.871275 177.810879 
L 269.288832 177.688148 
L 268.704285 177.57592 
L 268.117865 177.474191 
L 267.529727 177.382957 
L 267.029251 177.317033 
L 266.527714 177.259655 
L 266.025345 177.210739 
L 265.522148 177.17044 
L 265.018352 177.138677 
L 264.514113 177.115445 
L 264.009509 177.100822 
L 263.504773 177.094801 
L 262.938995 177.106 
L 262.373382 177.125175 
L 261.808086 177.152325 
L 261.243264 177.187446 
L 260.678992 177.230536 
L 260.115348 177.281594 
L 259.552485 177.340539 
L 258.990482 177.407447 
L 258.429568 177.482236 
L 257.869669 177.564985 
L 256.103546 177.976011 
L 249.521669 179.545231 
L 248.984191 179.673376 
L 246.670917 180.224915 
L 234.152618 183.28428 
L 233.45046 183.460809 
L 231.863272 183.851124 
L 231.452205 183.955003 
L 230.975088 184.09186 
L 230.326608 183.106636 
L 221.803789 170.335067 
L 221.791089 170.304185 
L 212.476943 156.339457 
L 210.184124 149.444072 
L 206.925152 139.74969 
L 206.877049 139.607516 
L 206.667741 138.988269 
L 203.966471 130.994367 
L 201.582653 123.864937 
L 201.537717 123.730212 
L 200.971042 121.946203 
L 200.559478 120.650625 
L 199.754988 118.149496 
L 199.697962 117.998676 
L 198.467615 117.956843 
L 197.788944 117.92826 
L 197.549242 117.885286 
L 196.557957 117.717397 
L 195.006194 117.488571 
L 194.668345 117.430363 
L 192.889805 117.03233 
L 192.442818 116.906124 
L 190.909071 116.375254 
L 190.158046 116.135756 
L 189.02823 115.840379 
L 188.350687 115.623992 
L 187.756739 115.426009 
L 186.381429 114.905728 
L 183.200689 113.613512 
L 181.411371 112.839231 
L 180.728913 112.461038 
L 179.314457 112.064008 
L 178.495518 111.884285 
L 177.049199 111.845008 
L 175.213882 111.698097 
L 174.357426 111.74144 
L 173.312827 111.971781 
L 173.283154 111.827755 
L 173.062095 111.837477 
L 172.479609 111.6 
L 172.136565 111.690439 
L 168.193475 112.178189 
L 159.200857 113.286937 
L 159.38743 113.994722 
L 160.320549 117.535193 
L 160.644159 118.76338 
L 160.668758 118.85661 
L 162.382617 125.452342 
L 163.10747 128.749869 
L 163.381738 130.38033 
L 163.564042 131.523149 
L 163.83746 133.191048 
L 163.98597 134.077435 
L 164.014321 134.209867 
L 164.044264 134.433686 
L 164.263497 135.8739 
L 164.523995 137.369336 
L 165.927596 145.960087 
L 166.712259 150.763349 
L 166.763131 152.789955 
L 166.598292 155.8225 
L 166.163837 158.651568 
L 164.652678 164.333494 
L 163.289996 169.457299 
L 163.097244 170.395126 
L 162.318766 174.173553 
L 161.401458 178.626122 
L 160.782294 181.631281 
L 160.921309 188.967947 
L 161.499733 193.446405 
L 161.996596 197.29347 
L 162.29206 199.581201 
L 162.595977 201.934413 
L 162.648794 202.343372 
L 163.646833 206.263054 
L 164.181927 208.076723 
L 164.653941 209.675401 
L 164.712826 209.874753 
L 164.663674 209.894374 
L 165.308685 211.632846 
L 165.471079 212.054483 
L 165.675392 212.584716 
L 165.725051 212.585772 
L 166.234506 213.680161 
L 167.842401 212.885338 
L 169.182192 215.563344 
L 168.183807 216.054137 
L 169.460113 218.553727 
L 170.197894 220.014462 
L 170.417824 220.411193 
L 170.97901 221.525738 
L 171.260593 222.05444 
L 171.791986 221.768321 
L 172.234644 222.607438 
L 172.502312 222.466274 
L 172.969117 223.351373 
L 172.900931 223.418648 
L 173.003715 223.613833 
L 173.429821 223.384377 
L 173.67825 223.247489 
L 173.916364 223.544676 
L 174.156546 223.792545 
L 175.099552 224.139185 
L 175.96937 224.457447 
L 176.769443 224.864789 
L 177.886835 225.698437 
L 179.827776 227.146524 
L 180.376434 227.685164 
L 181.609756 229.329748 
L 182.054226 230.101126 
L 182.777994 231.605408 
L 183.566308 232.803794 
L 184.667824 234.990977 
L 184.453683 234.819472 
L 184.270744 234.640228 
L 183.95451 234.355509 
L 183.781308 234.242516 
L 183.603321 234.137448 
L 183.420783 234.0403 
L 183.234084 233.951296 
L 183.043695 233.870737 
L 182.850006 233.798845 
L 182.653177 233.735852 
L 182.453756 233.682054 
L 182.252119 233.636981 
L 182.070463 233.608457 
L 181.887754 233.588866 
L 181.704154 233.578435 
L 181.520203 233.577231 
L 181.336439 233.585011 
L 181.153406 233.601917 
L 180.971333 233.627868 
L 180.790759 233.662697 
L 180.411772 233.688645 
L 180.259112 233.712511 
L 180.107685 233.743634 
L 179.957794 233.781698 
L 179.809902 233.826694 
L 179.664241 233.878615 
L 179.521118 233.937379 
L 179.380839 234.002747 
L 179.245232 234.103269 
L 179.114943 234.210419 
L 178.990511 234.324111 
L 178.871694 234.443884 
L 178.759033 234.569727 
L 178.652595 234.701095 
L 178.553066 234.837588 
L 178.460675 234.978968 
L 176.685195 238.095828 
L 173.455451 243.76281 
L 170.180516 249.557202 
L 170.018504 249.841351 
L 169.968858 249.937448 
L 169.910258 249.907681 
L 169.574987 250.515105 
L 169.247014 251.2021 
L 168.57699 252.341092 
L 168.014403 253.35613 
L 167.481361 254.304699 
L 167.012154 255.162841 
L 166.768214 255.574133 
L 166.179376 256.043524 
L 165.376961 257.43552 
L 164.572055 258.831849 
L 164.506613 259.216716 
L 164.423705 259.319164 
L 163.527578 260.837012 
L 162.81176 262.103178 
L 160.85582 265.444455 
L 158.472144 269.556722 
L 157.992058 270.228233 
L 157.884219 270.295178 
L 157.777504 270.364114 
L 157.672141 270.43488 
L 157.582017 270.502385 
L 157.494754 270.573626 
L 157.459332 270.611379 
L 157.755094 270.924598 
L 157.609638 271.202103 
L 157.26849 271.792695 
L 156.391404 273.208671 
L 156.036108 273.734619 
L 156.077616 273.773504 
L 156.13676 273.828911 
L 156.30524 273.986615 
L 158.534206 276.07447 
L 159.17019 276.576623 
L 159.818256 277.135701 
L 162.402792 279.365601 
L 165.942175 282.419442 
L 166.382813 282.799633 
L 166.163199 283.026647 
L 167.02167 283.66804 
L 167.242785 284.078845 
L 168.506876 285.074824 
L 173.575842 289.24461 
L 178.556893 294.432069 
L 179.047049 294.942485 
L 180.934248 296.854753 
L 183.988077 300.913577 
L 186.341062 303.700625 
L 191.239569 309.253325 
L 191.677196 309.729754 
L 192.455152 310.612741 
L 192.645293 310.828814 
L 192.68867 310.878038 
L 192.724609 310.918894 
L 193.065783 311.33264 
L 193.439046 311.758192 
L 193.751043 312.073223 
L 193.957829 312.309326 
L 194.854322 313.333027 
L 195.279927 313.819084 
L 195.977075 314.615361 
L 196.721645 315.465969 
L 197.475709 316.327306 
L 198.226128 317.184459 
L 198.459906 317.451536 
L 198.737694 317.768521 
L 199.537093 318.680828 
L 200.380348 319.635843 
L 201.694853 321.143534 
L 202.47046 322.027288 
L 203.051828 322.690789 
L 203.653301 323.377194 
L 204.269261 324.080266 
L 204.97847 324.889711 
L 205.877988 325.921027 
L 206.626564 326.780189 
L 209.993606 330.644685 
L 211.091801 331.802064 
L 211.79449 332.544254 
L 212.718062 333.517773 
L 213.43217 334.270576 
L 214.134503 335.010918 
L 214.88716 335.804218 
L 215.650167 336.608539 
L 216.107905 337.186071 
L 218.785097 340.563692 
L 220.480934 342.703251 
L 220.552114 342.792963 
L 221.255603 343.542127 
L 222.726511 345.108861 
L 223.057943 345.461862 
L 224.030769 346.495593 
L 225.29796 347.843043 
L 225.799033 348.375838 
L 226.009537 348.599331 
L 226.022686 348.614786 
L 226.634467 349.265375 
L 227.358372 350.035045 
L 228.059921 350.781395 
L 228.982486 351.762799 
L 229.993472 352.838365 
L 230.092087 352.943161 
L 230.429818 353.30247 
L 231.15333 354.072543 
L 231.298023 354.193119 
L 233.321042 355.845075 
L 233.658971 356.120477 
L 233.992602 356.401081 
L 235.338924 357.533717 
L 236.051016 358.132893 
L 237.342508 359.21941 
L 237.520018 359.368751 
L 237.376307 359.551001 
L 236.290995 360.925855 
L 237.135119 361.830884 
L 237.678924 362.413867 
L 241.061414 366.121121 
L 241.096389 366.194541 
L 241.210027 366.308636 
L 242.866292 364.785636 
L 242.986417 364.674068 
L 243.774482 364.154889 
L 243.87805 364.057454 
L 244.34517 363.614405 
L 244.886131 363.101497 
L 245.428153 362.587484 
L 245.900966 362.139206 
L 246.435635 361.632086 
L 246.913453 361.179057 
L 247.212289 360.895678 
L 248.221676 359.938541 
L 249.112911 359.030952 
L 249.478292 358.679804 
L 250.056492 358.124221 
L 250.084088 358.097715 
L 251.381885 359.562425 
L 251.826808 359.203145 
L 252.332486 358.93572 
L 252.824624 358.818024 
L 253.235565 358.788389 
L 253.649033 359.220298 
L 254.293754 359.521149 
L 254.426031 359.669882 
L 253.767664 359.637685 
L 255.202609 361.220394 
L 256.620556 362.792612 
L 256.972441 362.450272 
L 257.240763 362.750684 
L 257.422133 362.870204 
L 257.95152 363.219306 
L 261.046364 366.680956 
L 261.855776 367.329075 
L 263.995493 369.66901 
L 265.692442 371.542621 
L 267.156147 373.217132 
L 266.812901 373.777221 
L 267.818808 374.895913 
L 267.953268 375.043416 
L 269.823245 377.094798 
L 271.233319 378.631905 
L 271.974548 379.424468 
L 274.039435 381.558601 
L 276.6906 384.170317 
L 280.215528 387.464679 
L 282.046915 389.18607 
L 283.317024 390.379865 
L 283.697922 390.737945 
L 284.112525 391.126787 
L 286.218063 393.127668 
L 286.292208 393.201139 
L 287.492877 394.390333 
L 290.326587 397.351909 
L 293.833499 401.334588 
L 294.080081 401.356185 
L 296.067107 401.54121 
L 298.011686 401.724803 
L 298.908172 402.715666 
L 300.652273 404.336903 
L 303.865609 407.884944 
L 305.288725 409.456385 
L 308.936153 413.522008 
L 309.364088 414.010082 
L 310.809178 415.611696 
L 316.891419 422.349918 
L 319.703742 425.465989 
L 322.232742 428.264215 
L 322.785557 428.875877 
L 323.160713 429.29346 
L 323.506754 429.670112 
L 326.296384 432.763248 
L 327.563541 434.156516 
L 329.807281 436.623455 
L 332.992933 440.144262 
L 336.932845 444.544522 
L 340.376814 448.361568 
L 341.414415 449.50917 
L 341.432309 449.49238 
L 343.063962 451.299644 
L 343.648436 451.947879 
L 344.430449 452.815288 
L 344.716163 453.130281 
L 345.135213 453.592467 
L 348.419208 457.214205 
L 348.925617 457.774401 
L 350.181163 459.163487 
L 350.468709 459.481624 
L 351.234231 460.3452 
L 352.368629 461.601957 
L 352.222416 461.73401 
L 352.155116 461.794883 
L 354.785931 464.703742 
L 352.834304 466.445641 
L 351.089691 468.020167 
L 349.700188 469.274306 
L 349.367161 469.574262 
L 341.501292 476.674176 
L 343.791281 479.156601 
L 345.310693 480.804243 
L 347.681373 483.37445 
L 347.563798 483.485701 
L 347.560053 483.609582 
L 347.55859 483.640292 
L 348.432849 484.591282 
L 349.669482 485.391169 
L 349.843482 485.578286 
L 348.920814 486.438092 
L 348.654961 486.685701 
L 333.374008 501.218884 
L 332.091529 502.438751 
L 330.954698 503.35964 
" clip-path="url(#p69ba684f17)" style="fill: #d3d3d3"/>
   </g>
   <g id="matplotlib.axis_1">
    <g id="xtick_1">
     <g id="line2d_1">
      <defs>
       <path id="m68935bacb4" d="M 0 0 
L 0 3.5 
" style="stroke: #000000; stroke-width: 0.8"/>
      </defs>
      <g>
       <use xlink:href="#m68935bacb4" x="137.255263" y="640.8" style="stroke: #000000; stroke-width: 0.8"/>
      </g>
     </g>
     <g id="text_1">
      <!-- 13.49 -->
      <g transform="translate(122.941201 655.398438) scale(0.1 -0.1)">
       <defs>
        <path id="DejaVuSans-31" d="M 794 531 
L 1825 531 
L 1825 4091 
L 703 3866 
L 703 4441 
L 1819 4666 
L 2450 4666 
L 2450 531 
L 3481 531 
L 3481 0 
L 794 0 
L 794 531 
z
" transform="scale(0.015625)"/>
        <path id="DejaVuSans-33" d="M 2597 2516 
Q 3050 2419 3304 2112 
Q 3559 1806 3559 1356 
Q 3559 666 3084 287 
Q 2609 -91 1734 -91 
Q 1441 -91 1130 -33 
Q 819 25 488 141 
L 488 750 
Q 750 597 1062 519 
Q 1375 441 1716 441 
Q 2309 441 2620 675 
Q 2931 909 2931 1356 
Q 2931 1769 2642 2001 
Q 2353 2234 1838 2234 
L 1294 2234 
L 1294 2753 
L 1863 2753 
Q 2328 2753 2575 2939 
Q 2822 3125 2822 3475 
Q 2822 3834 2567 4026 
Q 2313 4219 1838 4219 
Q 1578 4219 1281 4162 
Q 984 4106 628 3988 
L 628 4550 
Q 988 4650 1302 4700 
Q 1616 4750 1894 4750 
Q 2613 4750 3031 4423 
Q 3450 4097 3450 3541 
Q 3450 3153 3228 2886 
Q 3006 2619 2597 2516 
z
" transform="scale(0.015625)"/>
        <path id="DejaVuSans-2e" d="M 684 794 
L 1344 794 
L 1344 0 
L 684 0 
L 684 794 
z
" transform="scale(0.015625)"/>
        <path id="DejaVuSans-34" d="M 2419 4116 
L 825 1625 
L 2419 1625 
L 2419 4116 
z
M 2253 4666 
L 3047 4666 
L 3047 1625 
L 3713 1625 
L 3713 1100 
L 3047 1100 
L 3047 0 
L 2419 0 
L 2419 1100 
L 313 1100 
L 313 1709 
L 2253 4666 
z
" transform="scale(0.015625)"/>
        <path id="DejaVuSans-39" d="M 703 97 
L 703 672 
Q 941 559 1184 500 
Q 1428 441 1663 441 
Q 2288 441 2617 861 
Q 2947 1281 2994 2138 
Q 2813 1869 2534 1725 
Q 2256 1581 1919 1581 
Q 1219 1581 811 2004 
Q 403 2428 403 3163 
Q 403 3881 828 4315 
Q 1253 4750 1959 4750 
Q 2769 4750 3195 4129 
Q 3622 3509 3622 2328 
Q 3622 1225 3098 567 
Q 2575 -91 1691 -91 
Q 1453 -91 1209 -44 
Q 966 3 703 97 
z
M 1959 2075 
Q 2384 2075 2632 2365 
Q 2881 2656 2881 3163 
Q 2881 3666 2632 3958 
Q 2384 4250 1959 4250 
Q 1534 4250 1286 3958 
Q 1038 3666 1038 3163 
Q 1038 2656 1286 2365 
Q 1534 2075 1959 2075 
z
" transform="scale(0.015625)"/>
       </defs>
       <use xlink:href="#DejaVuSans-31"/>
       <use xlink:href="#DejaVuSans-33" x="63.623047"/>
       <use xlink:href="#DejaVuSans-2e" x="127.246094"/>
       <use xlink:href="#DejaVuSans-34" x="159.033203"/>
       <use xlink:href="#DejaVuSans-39" x="222.65625"/>
      </g>
     </g>
    </g>
    <g id="xtick_2">
     <g id="line2d_2">
      <g>
       <use xlink:href="#m68935bacb4" x="189.769155" y="640.8" style="stroke: #000000; stroke-width: 0.8"/>
      </g>
     </g>
     <g id="text_2">
      <!-- 13.50 -->
      <g transform="translate(175.455092 655.398438) scale(0.1 -0.1)">
       <defs>
        <path id="DejaVuSans-35" d="M 691 4666 
L 3169 4666 
L 3169 4134 
L 1269 4134 
L 1269 2991 
Q 1406 3038 1543 3061 
Q 1681 3084 1819 3084 
Q 2600 3084 3056 2656 
Q 3513 2228 3513 1497 
Q 3513 744 3044 326 
Q 2575 -91 1722 -91 
Q 1428 -91 1123 -41 
Q 819 9 494 109 
L 494 744 
Q 775 591 1075 516 
Q 1375 441 1709 441 
Q 2250 441 2565 725 
Q 2881 1009 2881 1497 
Q 2881 1984 2565 2268 
Q 2250 2553 1709 2553 
Q 1456 2553 1204 2497 
Q 953 2441 691 2322 
L 691 4666 
z
" transform="scale(0.015625)"/>
        <path id="DejaVuSans-30" d="M 2034 4250 
Q 1547 4250 1301 3770 
Q 1056 3291 1056 2328 
Q 1056 1369 1301 889 
Q 1547 409 2034 409 
Q 2525 409 2770 889 
Q 3016 1369 3016 2328 
Q 3016 3291 2770 3770 
Q 2525 4250 2034 4250 
z
M 2034 4750 
Q 2819 4750 3233 4129 
Q 3647 3509 3647 2328 
Q 3647 1150 3233 529 
Q 2819 -91 2034 -91 
Q 1250 -91 836 529 
Q 422 1150 422 2328 
Q 422 3509 836 4129 
Q 1250 4750 2034 4750 
z
" transform="scale(0.015625)"/>
       </defs>
       <use xlink:href="#DejaVuSans-31"/>
       <use xlink:href="#DejaVuSans-33" x="63.623047"/>
       <use xlink:href="#DejaVuSans-2e" x="127.246094"/>
       <use xlink:href="#DejaVuSans-35" x="159.033203"/>
       <use xlink:href="#DejaVuSans-30" x="222.65625"/>
      </g>
     </g>
    </g>
    <g id="xtick_3">
     <g id="line2d_3">
      <g>
       <use xlink:href="#m68935bacb4" x="242.283047" y="640.8" style="stroke: #000000; stroke-width: 0.8"/>
      </g>
     </g>
     <g id="text_3">
      <!-- 13.51 -->
      <g transform="translate(227.968984 655.398438) scale(0.1 -0.1)">
       <use xlink:href="#DejaVuSans-31"/>
       <use xlink:href="#DejaVuSans-33" x="63.623047"/>
       <use xlink:href="#DejaVuSans-2e" x="127.246094"/>
       <use xlink:href="#DejaVuSans-35" x="159.033203"/>
       <use xlink:href="#DejaVuSans-31" x="222.65625"/>
      </g>
     </g>
    </g>
    <g id="xtick_4">
     <g id="line2d_4">
      <g>
       <use xlink:href="#m68935bacb4" x="294.796938" y="640.8" style="stroke: #000000; stroke-width: 0.8"/>
      </g>
     </g>
     <g id="text_4">
      <!-- 13.52 -->
      <g transform="translate(280.482876 655.398438) scale(0.1 -0.1)">
       <defs>
        <path id="DejaVuSans-32" d="M 1228 531 
L 3431 531 
L 3431 0 
L 469 0 
L 469 531 
Q 828 903 1448 1529 
Q 2069 2156 2228 2338 
Q 2531 2678 2651 2914 
Q 2772 3150 2772 3378 
Q 2772 3750 2511 3984 
Q 2250 4219 1831 4219 
Q 1534 4219 1204 4116 
Q 875 4013 500 3803 
L 500 4441 
Q 881 4594 1212 4672 
Q 1544 4750 1819 4750 
Q 2544 4750 2975 4387 
Q 3406 4025 3406 3419 
Q 3406 3131 3298 2873 
Q 3191 2616 2906 2266 
Q 2828 2175 2409 1742 
Q 1991 1309 1228 531 
z
" transform="scale(0.015625)"/>
       </defs>
       <use xlink:href="#DejaVuSans-31"/>
       <use xlink:href="#DejaVuSans-33" x="63.623047"/>
       <use xlink:href="#DejaVuSans-2e" x="127.246094"/>
       <use xlink:href="#DejaVuSans-35" x="159.033203"/>
       <use xlink:href="#DejaVuSans-32" x="222.65625"/>
      </g>
     </g>
    </g>
    <g id="xtick_5">
     <g id="line2d_5">
      <g>
       <use xlink:href="#m68935bacb4" x="347.31083" y="640.8" style="stroke: #000000; stroke-width: 0.8"/>
      </g>
     </g>
     <g id="text_5">
      <!-- 13.53 -->
      <g transform="translate(332.996768 655.398438) scale(0.1 -0.1)">
       <use xlink:href="#DejaVuSans-31"/>
       <use xlink:href="#DejaVuSans-33" x="63.623047"/>
       <use xlink:href="#DejaVuSans-2e" x="127.246094"/>
       <use xlink:href="#DejaVuSans-35" x="159.033203"/>
       <use xlink:href="#DejaVuSans-33" x="222.65625"/>
      </g>
     </g>
    </g>
    <g id="xtick_6">
     <g id="line2d_6">
      <g>
       <use xlink:href="#m68935bacb4" x="399.824722" y="640.8" style="stroke: #000000; stroke-width: 0.8"/>
      </g>
     </g>
     <g id="text_6">
      <!-- 13.54 -->
      <g transform="translate(385.510659 655.398438) scale(0.1 -0.1)">
       <use xlink:href="#DejaVuSans-31"/>
       <use xlink:href="#DejaVuSans-33" x="63.623047"/>
       <use xlink:href="#DejaVuSans-2e" x="127.246094"/>
       <use xlink:href="#DejaVuSans-35" x="159.033203"/>
       <use xlink:href="#DejaVuSans-34" x="222.65625"/>
      </g>
     </g>
    </g>
    <g id="xtick_7">
     <g id="line2d_7">
      <g>
       <use xlink:href="#m68935bacb4" x="452.338613" y="640.8" style="stroke: #000000; stroke-width: 0.8"/>
      </g>
     </g>
     <g id="text_7">
      <!-- 13.55 -->
      <g transform="translate(438.024551 655.398438) scale(0.1 -0.1)">
       <use xlink:href="#DejaVuSans-31"/>
       <use xlink:href="#DejaVuSans-33" x="63.623047"/>
       <use xlink:href="#DejaVuSans-2e" x="127.246094"/>
       <use xlink:href="#DejaVuSans-35" x="159.033203"/>
       <use xlink:href="#DejaVuSans-35" x="222.65625"/>
      </g>
     </g>
    </g>
    <g id="xtick_8">
     <g id="line2d_8">
      <g>
       <use xlink:href="#m68935bacb4" x="504.852505" y="640.8" style="stroke: #000000; stroke-width: 0.8"/>
      </g>
     </g>
     <g id="text_8">
      <!-- 13.56 -->
      <g transform="translate(490.538443 655.398438) scale(0.1 -0.1)">
       <defs>
        <path id="DejaVuSans-36" d="M 2113 2584 
Q 1688 2584 1439 2293 
Q 1191 2003 1191 1497 
Q 1191 994 1439 701 
Q 1688 409 2113 409 
Q 2538 409 2786 701 
Q 3034 994 3034 1497 
Q 3034 2003 2786 2293 
Q 2538 2584 2113 2584 
z
M 3366 4563 
L 3366 3988 
Q 3128 4100 2886 4159 
Q 2644 4219 2406 4219 
Q 1781 4219 1451 3797 
Q 1122 3375 1075 2522 
Q 1259 2794 1537 2939 
Q 1816 3084 2150 3084 
Q 2853 3084 3261 2657 
Q 3669 2231 3669 1497 
Q 3669 778 3244 343 
Q 2819 -91 2113 -91 
Q 1303 -91 875 529 
Q 447 1150 447 2328 
Q 447 3434 972 4092 
Q 1497 4750 2381 4750 
Q 2619 4750 2861 4703 
Q 3103 4656 3366 4563 
z
" transform="scale(0.015625)"/>
       </defs>
       <use xlink:href="#DejaVuSans-31"/>
       <use xlink:href="#DejaVuSans-33" x="63.623047"/>
       <use xlink:href="#DejaVuSans-2e" x="127.246094"/>
       <use xlink:href="#DejaVuSans-35" x="159.033203"/>
       <use xlink:href="#DejaVuSans-36" x="222.65625"/>
      </g>
     </g>
    </g>
    <g id="xtick_9">
     <g id="line2d_9">
      <g>
       <use xlink:href="#m68935bacb4" x="557.366397" y="640.8" style="stroke: #000000; stroke-width: 0.8"/>
      </g>
     </g>
     <g id="text_9">
      <!-- 13.57 -->
      <g transform="translate(543.052334 655.398438) scale(0.1 -0.1)">
       <defs>
        <path id="DejaVuSans-37" d="M 525 4666 
L 3525 4666 
L 3525 4397 
L 1831 0 
L 1172 0 
L 2766 4134 
L 525 4134 
L 525 4666 
z
" transform="scale(0.015625)"/>
       </defs>
       <use xlink:href="#DejaVuSans-31"/>
       <use xlink:href="#DejaVuSans-33" x="63.623047"/>
       <use xlink:href="#DejaVuSans-2e" x="127.246094"/>
       <use xlink:href="#DejaVuSans-35" x="159.033203"/>
       <use xlink:href="#DejaVuSans-37" x="222.65625"/>
      </g>
     </g>
    </g>
   </g>
   <g id="matplotlib.axis_2">
    <g id="ytick_1">
     <g id="line2d_10">
      <defs>
       <path id="mf33ef944f0" d="M 0 0 
L -3.5 0 
" style="stroke: #000000; stroke-width: 0.8"/>
      </defs>
      <g>
       <use xlink:href="#mf33ef944f0" x="134.739718" y="571.023268" style="stroke: #000000; stroke-width: 0.8"/>
      </g>
     </g>
     <g id="text_10">
      <!-- 52.43 -->
      <g transform="translate(99.111593 574.822487) scale(0.1 -0.1)">
       <use xlink:href="#DejaVuSans-35"/>
       <use xlink:href="#DejaVuSans-32" x="63.623047"/>
       <use xlink:href="#DejaVuSans-2e" x="127.246094"/>
       <use xlink:href="#DejaVuSans-34" x="159.033203"/>
       <use xlink:href="#DejaVuSans-33" x="222.65625"/>
      </g>
     </g>
    </g>
    <g id="ytick_2">
     <g id="line2d_11">
      <g>
       <use xlink:href="#mf33ef944f0" x="134.739718" y="484.854341" style="stroke: #000000; stroke-width: 0.8"/>
      </g>
     </g>
     <g id="text_11">
      <!-- 52.44 -->
      <g transform="translate(99.111593 488.653559) scale(0.1 -0.1)">
       <use xlink:href="#DejaVuSans-35"/>
       <use xlink:href="#DejaVuSans-32" x="63.623047"/>
       <use xlink:href="#DejaVuSans-2e" x="127.246094"/>
       <use xlink:href="#DejaVuSans-34" x="159.033203"/>
       <use xlink:href="#DejaVuSans-34" x="222.65625"/>
      </g>
     </g>
    </g>
    <g id="ytick_3">
     <g id="line2d_12">
      <g>
       <use xlink:href="#mf33ef944f0" x="134.739718" y="398.685413" style="stroke: #000000; stroke-width: 0.8"/>
      </g>
     </g>
     <g id="text_12">
      <!-- 52.45 -->
      <g transform="translate(99.111593 402.484632) scale(0.1 -0.1)">
       <use xlink:href="#DejaVuSans-35"/>
       <use xlink:href="#DejaVuSans-32" x="63.623047"/>
       <use xlink:href="#DejaVuSans-2e" x="127.246094"/>
       <use xlink:href="#DejaVuSans-34" x="159.033203"/>
       <use xlink:href="#DejaVuSans-35" x="222.65625"/>
      </g>
     </g>
    </g>
    <g id="ytick_4">
     <g id="line2d_13">
      <g>
       <use xlink:href="#mf33ef944f0" x="134.739718" y="312.516486" style="stroke: #000000; stroke-width: 0.8"/>
      </g>
     </g>
     <g id="text_13">
      <!-- 52.46 -->
      <g transform="translate(99.111593 316.315704) scale(0.1 -0.1)">
       <use xlink:href="#DejaVuSans-35"/>
       <use xlink:href="#DejaVuSans-32" x="63.623047"/>
       <use xlink:href="#DejaVuSans-2e" x="127.246094"/>
       <use xlink:href="#DejaVuSans-34" x="159.033203"/>
       <use xlink:href="#DejaVuSans-36" x="222.65625"/>
      </g>
     </g>
    </g>
    <g id="ytick_5">
     <g id="line2d_14">
      <g>
       <use xlink:href="#mf33ef944f0" x="134.739718" y="226.347558" style="stroke: #000000; stroke-width: 0.8"/>
      </g>
     </g>
     <g id="text_14">
      <!-- 52.47 -->
      <g transform="translate(99.111593 230.146777) scale(0.1 -0.1)">
       <use xlink:href="#DejaVuSans-35"/>
       <use xlink:href="#DejaVuSans-32" x="63.623047"/>
       <use xlink:href="#DejaVuSans-2e" x="127.246094"/>
       <use xlink:href="#DejaVuSans-34" x="159.033203"/>
       <use xlink:href="#DejaVuSans-37" x="222.65625"/>
      </g>
     </g>
    </g>
    <g id="ytick_6">
     <g id="line2d_15">
      <g>
       <use xlink:href="#mf33ef944f0" x="134.739718" y="140.17863" style="stroke: #000000; stroke-width: 0.8"/>
      </g>
     </g>
     <g id="text_15">
      <!-- 52.48 -->
      <g transform="translate(99.111593 143.977849) scale(0.1 -0.1)">
       <defs>
        <path id="DejaVuSans-38" d="M 2034 2216 
Q 1584 2216 1326 1975 
Q 1069 1734 1069 1313 
Q 1069 891 1326 650 
Q 1584 409 2034 409 
Q 2484 409 2743 651 
Q 3003 894 3003 1313 
Q 3003 1734 2745 1975 
Q 2488 2216 2034 2216 
z
M 1403 2484 
Q 997 2584 770 2862 
Q 544 3141 544 3541 
Q 544 4100 942 4425 
Q 1341 4750 2034 4750 
Q 2731 4750 3128 4425 
Q 3525 4100 3525 3541 
Q 3525 3141 3298 2862 
Q 3072 2584 2669 2484 
Q 3125 2378 3379 2068 
Q 3634 1759 3634 1313 
Q 3634 634 3220 271 
Q 2806 -91 2034 -91 
Q 1263 -91 848 271 
Q 434 634 434 1313 
Q 434 1759 690 2068 
Q 947 2378 1403 2484 
z
M 1172 3481 
Q 1172 3119 1398 2916 
Q 1625 2713 2034 2713 
Q 2441 2713 2670 2916 
Q 2900 3119 2900 3481 
Q 2900 3844 2670 4047 
Q 2441 4250 2034 4250 
Q 1625 4250 1398 4047 
Q 1172 3844 1172 3481 
z
" transform="scale(0.015625)"/>
       </defs>
       <use xlink:href="#DejaVuSans-35"/>
       <use xlink:href="#DejaVuSans-32" x="63.623047"/>
       <use xlink:href="#DejaVuSans-2e" x="127.246094"/>
       <use xlink:href="#DejaVuSans-34" x="159.033203"/>
       <use xlink:href="#DejaVuSans-38" x="222.65625"/>
      </g>
     </g>
    </g>
   </g>
   <g id="LineCollection_1">
    <path d="M 405.590747 480.902634 
L 402.257165 480.798369 
L 401.195859 480.823358 
L 400.87605 480.904357 
L 400.620307 481.243001 
L 399.866733 483.426521 
L 399.255996 485.322238 
L 398.919382 486.071046 
L 398.64526 486.380392 
L 398.196791 486.68026 
" clip-path="url(#p69ba684f17)" style="fill: none; stroke: #ff0000; stroke-opacity: 0.7; stroke-width: 0.5"/>
    <path d="M 420.739429 526.359328 
L 422.566388 528.556636 
L 425.199959 531.764705 
L 426.22398 532.900411 
L 426.550617 533.256289 
" clip-path="url(#p69ba684f17)" style="fill: none; stroke: #ff0000; stroke-opacity: 0.7; stroke-width: 0.5"/>
    <path d="M 415.029594 519.269349 
L 415.385113 519.729491 
L 418.100081 523.249491 
L 418.79379 524.065511 
L 420.739429 526.359328 
" clip-path="url(#p69ba684f17)" style="fill: none; stroke: #ff0000; stroke-opacity: 0.7; stroke-width: 0.5"/>
    <path d="M 396.85191 383.905719 
L 397.123407 383.052646 
L 397.404882 382.03413 
L 397.601284 381.370629 
L 397.696859 381.046634 
L 397.975183 380.631299 
L 398.350132 380.419324 
L 399.80004 380.010883 
L 402.585902 379.213821 
L 404.898089 378.571862 
L 407.265415 377.879926 
L 409.774004 377.165585 
L 410.273411 377.05098 
L 411.277476 376.937237 
L 411.583632 376.961365 
L 412.435408 377.026853 
L 413.21734 377.210393 
L 414.198824 377.441326 
L 415.86404 378.022104 
L 416.936373 378.399524 
L 417.355959 378.546873 
L 418.693488 379.041483 
L 419.108348 379.434413 
L 419.094169 380.007436 
L 418.75598 381.105228 
L 418.49131 381.965194 
L 418.395209 382.246967 
L 418.009757 383.38095 
L 417.691523 384.315883 
L 417.627981 384.495976 
L 417.153256 385.837626 
L 416.659625 387.231839 
L 416.541469 387.320593 
L 416.096676 387.656652 
L 414.341662 387.098277 
L 413.130167 386.672603 
L 411.34837 386.060804 
L 410.601097 388.093529 
L 409.984059 388.506278 
L 406.700891 387.410209 
L 404.648123 386.726028 
L 403.907677 386.463212 
L 403.427175 386.29863 
L 400.566743 385.257709 
L 399.713392 384.947501 
L 396.85191 383.905719 
L 396.749508 384.195246 
L 395.818437 386.825122 
L 394.708293 389.816045 
L 394.431545 390.626895 
" clip-path="url(#p69ba684f17)" style="fill: none; stroke: #ff0000; stroke-opacity: 0.7; stroke-width: 0.5"/>
    <path d="M 473.332092 542.334185 
L 472.842137 542.71419 
L 472.714529 542.812423 
L 469.856723 545.028688 
L 467.779798 546.69778 
" clip-path="url(#p69ba684f17)" style="fill: none; stroke: #ff0000; stroke-opacity: 0.7; stroke-width: 0.5"/>
    <path d="M 325.994916 512.906635 
L 326.810982 513.776079 
L 327.336121 514.335316 
L 328.014075 515.05655 
L 328.651069 515.734699 
L 329.962341 517.131498 
L 331.77512 519.061681 
L 332.080226 519.3874 
" clip-path="url(#p69ba684f17)" style="fill: none; stroke: #ff0000; stroke-opacity: 0.7; stroke-width: 0.5"/>
    <path d="M 197.696652 229.810687 
L 186.019663 240.683482 
L 178.33583 248.028522 
L 174.295412 252.626496 
" clip-path="url(#p69ba684f17)" style="fill: none; stroke: #ff0000; stroke-opacity: 0.7; stroke-width: 0.5"/>
    <path d="M 398.220422 494.198499 
L 398.337003 494.388071 
L 401.212664 498.636199 
L 401.622272 499.247137 
" clip-path="url(#p69ba684f17)" style="fill: none; stroke: #ff0000; stroke-opacity: 0.7; stroke-width: 0.5"/>
    <path d="M 320.543974 559.299124 
L 320.26355 558.70542 
L 320.099182 558.409861 
L 319.332479 557.571437 
L 319.115596 557.341366 
L 316.80341 554.887275 
L 314.803681 552.766657 
L 313.993917 551.894628 
L 312.885873 550.723592 
L 310.091084 547.770583 
L 309.729263 547.388855 
L 309.258739 546.878735 
L 308.794516 546.37637 
L 306.537469 544.001554 
L 304.683204 542.051551 
L 304.383349 541.735311 
L 299.064742 536.03696 
L 298.944486 535.90943 
L 298.392565 535.323481 
" clip-path="url(#p69ba684f17)" style="fill: none; stroke: #ff0000; stroke-opacity: 0.7; stroke-width: 0.5"/>
    <path d="M 356.98914 544.958029 
L 356.521242 544.460835 
L 354.211155 542.007605 
L 351.846455 539.496643 
L 351.691539 539.331198 
L 349.936525 537.461333 
L 349.486481 536.981372 
" clip-path="url(#p69ba684f17)" style="fill: none; stroke: #ff0000; stroke-opacity: 0.7; stroke-width: 0.5"/>
    <path d="M 330.041637 311.03438 
L 329.482364 311.816794 
L 327.762009 314.223492 
L 325.78381 316.991238 
L 325.659878 317.164437 
L 323.912215 319.60905 
L 323.196976 320.610333 
L 322.854586 321.089432 
L 322.748507 321.237643 
" clip-path="url(#p69ba684f17)" style="fill: none; stroke: #ff0000; stroke-opacity: 0.7; stroke-width: 0.5"/>
    <path d="M 426.550617 533.256289 
L 426.900359 533.656974 
L 428.050939 534.983976 
L 429.438881 536.566899 
L 430.350522 537.611267 
L 433.431512 541.187277 
L 437.335395 545.883484 
L 437.684087 546.276414 
" clip-path="url(#p69ba684f17)" style="fill: none; stroke: #ff0000; stroke-opacity: 0.7; stroke-width: 0.5"/>
    <path d="M 349.795262 536.684089 
L 349.302157 536.178277 
L 348.239276 535.029645 
L 347.219456 533.936162 
L 346.777814 533.228715 
L 345.971726 532.397185 
L 345.061135 531.64493 
L 343.805528 530.328269 
L 344.421516 529.759554 
L 341.315319 526.411029 
L 341.023867 526.112885 
L 340.396326 525.415778 
L 339.633299 524.611822 
L 338.868697 523.806143 
L 338.127726 523.025452 
L 338.092542 522.9884 
L 337.526967 523.507998 
L 336.61375 522.546353 
L 336.196265 522.106891 
L 335.855975 521.748429 
L 335.112903 520.966015 
L 334.351977 520.163782 
L 333.476045 519.240913 
" clip-path="url(#p69ba684f17)" style="fill: none; stroke: #ff0000; stroke-opacity: 0.7; stroke-width: 0.5"/>
    <path d="M 398.383215 487.465259 
L 398.246154 490.204569 
L 398.226724 490.565617 
L 398.112769 493.566881 
L 398.220422 494.198499 
" clip-path="url(#p69ba684f17)" style="fill: none; stroke: #ff0000; stroke-opacity: 0.7; stroke-width: 0.5"/>
    <path d="M 449.800092 558.57789 
L 450.71751 557.707584 
L 453.609975 554.962242 
L 453.676142 554.899338 
" clip-path="url(#p69ba684f17)" style="fill: none; stroke: #ff0000; stroke-opacity: 0.7; stroke-width: 0.5"/>
    <path d="M 401.622272 499.247137 
L 403.554258 502.092435 
L 403.86304 502.561194 
L 404.097252 502.919656 
L 408.061526 509.012661 
" clip-path="url(#p69ba684f17)" style="fill: none; stroke: #ff0000; stroke-opacity: 0.7; stroke-width: 0.5"/>
    <path d="M 408.501592 509.68047 
L 408.805122 510.141474 
L 410.746561 513.086728 
L 411.380404 514.069916 
L 412.778849 516.033705 
L 414.638365 518.706666 
L 414.792756 518.92812 
" clip-path="url(#p69ba684f17)" style="fill: none; stroke: #ff0000; stroke-opacity: 0.7; stroke-width: 0.5"/>
    <path d="M 251.926173 275.363891 
L 252.077938 275.90934 
L 253.078852 279.542222 
" clip-path="url(#p69ba684f17)" style="fill: none; stroke: #ff0000; stroke-opacity: 0.7; stroke-width: 0.5"/>
    <path d="M 332.754504 519.932849 
L 333.28437 520.487777 
L 334.113564 521.358945 
L 335.46107 522.785041 
L 336.180511 523.530402 
L 336.8007 524.190456 
L 336.181036 524.776405 
L 338.931713 527.725105 
L 339.12654 527.925017 
L 339.451601 528.258491 
L 342.535742 531.542389 
L 343.180612 530.933175 
L 344.424667 532.258453 
L 344.924599 533.027941 
L 345.894005 534.060245 
L 346.309915 534.5066 
L 346.986819 535.003795 
L 347.61121 535.650923 
L 348.664638 536.782321 
L 349.158794 537.298473 
" clip-path="url(#p69ba684f17)" style="fill: none; stroke: #ff0000; stroke-opacity: 0.7; stroke-width: 0.5"/>
    <path d="M 343.180612 530.933175 
L 343.331852 530.789273 
L 343.517227 530.612626 
L 343.805528 530.328269 
" clip-path="url(#p69ba684f17)" style="fill: none; stroke: #ff0000; stroke-opacity: 0.7; stroke-width: 0.5"/>
    <path d="M 332.080226 519.3874 
L 332.754504 519.932849 
" clip-path="url(#p69ba684f17)" style="fill: none; stroke: #ff0000; stroke-opacity: 0.7; stroke-width: 0.5"/>
    <path d="M 337.526967 523.507998 
L 337.365749 523.65707 
L 337.148867 523.861291 
L 336.8007 524.190456 
" clip-path="url(#p69ba684f17)" style="fill: none; stroke: #ff0000; stroke-opacity: 0.7; stroke-width: 0.5"/>
    <path d="M 253.078852 279.542222 
L 253.004283 279.732655 
L 251.012956 284.843334 
L 250.586018 286.045391 
" clip-path="url(#p69ba684f17)" style="fill: none; stroke: #ff0000; stroke-opacity: 0.7; stroke-width: 0.5"/>
    <path d="M 204.55129 225.111896 
L 204.98558 224.745678 
L 205.373133 224.419959 
L 210.029014 221.076605 
L 210.169752 220.985266 
L 214.632382 218.086543 
L 218.837169 215.340339 
L 223.619084 212.19862 
L 225.007027 211.38777 
L 226.45641 210.651888 
L 227.636397 210.128842 
L 228.823211 209.640265 
L 231.246202 208.584695 
L 232.989138 207.660964 
" clip-path="url(#p69ba684f17)" style="fill: none; stroke: #ff0000; stroke-opacity: 0.7; stroke-width: 0.5"/>
    <path d="M 169.082883 260.510953 
L 169.383262 260.148181 
L 169.674189 259.799197 
L 174.996997 253.295167 
" clip-path="url(#p69ba684f17)" style="fill: none; stroke: #ff0000; stroke-opacity: 0.7; stroke-width: 0.5"/>
    <path d="M 174.996997 253.295167 
L 179.649728 248.362857 
L 187.0085 241.435737 
L 191.685912 237.010963 
L 198.550003 230.646526 
" clip-path="url(#p69ba684f17)" style="fill: none; stroke: #ff0000; stroke-opacity: 0.7; stroke-width: 0.5"/>
    <path d="M 233.251182 206.572651 
L 232.174122 207.2508 
L 230.932169 207.950492 
L 229.776863 208.502835 
L 228.484496 209.069826 
L 227.010432 209.691966 
L 225.70231 210.278776 
L 224.544379 210.892299 
L 223.420582 211.56097 
L 218.4785 214.785411 
L 216.856871 215.812545 
L 214.532606 217.285172 
" clip-path="url(#p69ba684f17)" style="fill: none; stroke: #ff0000; stroke-opacity: 0.7; stroke-width: 0.5"/>
    <path d="M 168.412805 259.798336 
L 167.611443 260.868554 
" clip-path="url(#p69ba684f17)" style="fill: none; stroke: #ff0000; stroke-opacity: 0.7; stroke-width: 0.5"/>
    <path d="M 174.295412 252.626496 
L 173.258262 253.758756 
L 170.752824 256.856528 
L 169.235698 258.76517 
L 168.982056 259.055559 
L 168.720537 259.401097 
L 168.412805 259.798336 
" clip-path="url(#p69ba684f17)" style="fill: none; stroke: #ff0000; stroke-opacity: 0.7; stroke-width: 0.5"/>
    <path d="M 241.646578 201.424919 
L 240.717608 201.54297 
" clip-path="url(#p69ba684f17)" style="fill: none; stroke: #ff0000; stroke-opacity: 0.7; stroke-width: 0.5"/>
    <path d="M 240.717608 201.54297 
L 240.394647 201.773042 
L 239.762905 202.209056 
L 237.416584 203.777331 
L 233.610903 206.331378 
L 233.251182 206.572651 
" clip-path="url(#p69ba684f17)" style="fill: none; stroke: #ff0000; stroke-opacity: 0.7; stroke-width: 0.5"/>
    <path d="M 333.476045 519.240913 
L 332.860582 518.628252 
" clip-path="url(#p69ba684f17)" style="fill: none; stroke: #ff0000; stroke-opacity: 0.7; stroke-width: 0.5"/>
    <path d="M 198.550003 230.646526 
L 200.993474 228.361326 
L 203.463202 226.070956 
L 203.71947 225.84347 
L 204.152185 225.463465 
L 204.55129 225.111896 
" clip-path="url(#p69ba684f17)" style="fill: none; stroke: #ff0000; stroke-opacity: 0.7; stroke-width: 0.5"/>
    <path d="M 204.010397 224.369981 
L 203.562454 224.727582 
L 203.107158 225.091215 
L 200.205241 227.527211 
L 198.713321 228.898158 
L 197.696652 229.810687 
" clip-path="url(#p69ba684f17)" style="fill: none; stroke: #ff0000; stroke-opacity: 0.7; stroke-width: 0.5"/>
    <path d="M 214.532606 217.285172 
L 210.776812 219.712551 
L 209.754367 220.357094 
" clip-path="url(#p69ba684f17)" style="fill: none; stroke: #ff0000; stroke-opacity: 0.7; stroke-width: 0.5"/>
    <path d="M 168.266292 261.634595 
L 169.082883 260.510953 
" clip-path="url(#p69ba684f17)" style="fill: none; stroke: #ff0000; stroke-opacity: 0.7; stroke-width: 0.5"/>
    <path d="M 209.754367 220.357094 
L 205.132619 223.523802 
L 204.854821 223.725438 
L 204.454665 224.031337 
L 204.010397 224.369981 
" clip-path="url(#p69ba684f17)" style="fill: none; stroke: #ff0000; stroke-opacity: 0.7; stroke-width: 0.5"/>
    <path d="M 241.170277 202.246109 
L 241.646578 201.424919 
" clip-path="url(#p69ba684f17)" style="fill: none; stroke: #ff0000; stroke-opacity: 0.7; stroke-width: 0.5"/>
    <path d="M 232.989138 207.660964 
L 239.924123 203.102628 
L 240.208223 202.915642 
L 240.848892 202.472733 
L 241.170277 202.246109 
" clip-path="url(#p69ba684f17)" style="fill: none; stroke: #ff0000; stroke-opacity: 0.7; stroke-width: 0.5"/>
    <path d="M 530.219866 403.58584 
L 533.943626 401.907269 
L 534.530731 401.637561 
" clip-path="url(#p69ba684f17)" style="fill: none; stroke: #ff0000; stroke-opacity: 0.7; stroke-width: 0.5"/>
    <path d="M 325.193554 512.164721 
L 325.25342 512.225039 
L 325.375777 512.081137 
L 325.448772 512.15438 
L 325.390481 512.253475 
L 325.571654 512.472344 
L 325.994916 512.906635 
" clip-path="url(#p69ba684f17)" style="fill: none; stroke: #ff0000; stroke-opacity: 0.7; stroke-width: 0.5"/>
    <path d="M 324.048226 510.973866 
L 324.607499 511.540857 
" clip-path="url(#p69ba684f17)" style="fill: none; stroke: #ff0000; stroke-opacity: 0.7; stroke-width: 0.5"/>
    <path d="M 530.219866 403.58584 
L 525.85281 405.577204 
L 523.60259 406.606061 
L 522.41105 407.15151 
L 522.194693 408.837836 
" clip-path="url(#p69ba684f17)" style="fill: none; stroke: #ff0000; stroke-opacity: 0.7; stroke-width: 0.5"/>
    <path d="M 267.932932 336.353396 
L 268.752149 336.830772 
L 281.471013 344.243885 
L 282.067046 345.812159 
" clip-path="url(#p69ba684f17)" style="fill: none; stroke: #ff0000; stroke-opacity: 0.7; stroke-width: 0.5"/>
    <path d="M 437.684087 546.276414 
L 438.088444 546.731386 
L 442.906068 552.465066 
L 443.240057 552.862305 
L 443.567218 553.319862 
L 443.572995 553.327617 
L 444.261452 554.265135 
L 444.99087 555.115622 
L 445.147886 555.280205 
L 447.07042 557.56282 
L 447.139213 557.655882 
L 448.240429 558.794174 
" clip-path="url(#p69ba684f17)" style="fill: none; stroke: #ff0000; stroke-opacity: 0.7; stroke-width: 0.5"/>
    <path d="M 448.240429 558.794174 
L 448.554462 558.890683 
L 448.822283 558.929459 
L 449.078026 558.933768 
L 449.43512 558.841567 
L 449.625221 558.725239 
L 449.800092 558.57789 
" clip-path="url(#p69ba684f17)" style="fill: none; stroke: #ff0000; stroke-opacity: 0.7; stroke-width: 0.5"/>
    <path d="M 466.141365 565.166366 
L 466.410761 565.364555 
L 466.694861 565.573945 
L 467.402748 566.096129 
" clip-path="url(#p69ba684f17)" style="fill: none; stroke: #ff0000; stroke-opacity: 0.7; stroke-width: 0.5"/>
    <path d="M 457.421433 556.962223 
L 458.768414 558.374531 
L 459.381251 559.01649 
L 463.099235 562.855316 
L 464.341189 563.838503 
L 465.241277 564.502004 
L 465.991175 565.055208 
L 466.141365 565.166366 
" clip-path="url(#p69ba684f17)" style="fill: none; stroke: #ff0000; stroke-opacity: 0.7; stroke-width: 0.5"/>
    <path d="M 453.676142 554.899338 
L 454.002254 554.719245 
L 454.199181 554.666682 
L 454.44232 554.643417 
L 454.882386 554.687363 
L 455.111347 554.754575 
L 455.306173 554.863148 
L 456.448351 555.956631 
L 457.421433 556.962223 
" clip-path="url(#p69ba684f17)" style="fill: none; stroke: #ff0000; stroke-opacity: 0.7; stroke-width: 0.5"/>
    <path d="M 324.971421 511.645122 
L 325.030236 511.853651 
L 325.114783 512.085445 
L 325.193554 512.164721 
" clip-path="url(#p69ba684f17)" style="fill: none; stroke: #ff0000; stroke-opacity: 0.7; stroke-width: 0.5"/>
    <path d="M 324.607499 511.540857 
L 324.813354 511.733876 
L 324.950415 511.558953 
L 324.971421 511.645122 
" clip-path="url(#p69ba684f17)" style="fill: none; stroke: #ff0000; stroke-opacity: 0.7; stroke-width: 0.5"/>
    <path d="M 414.792756 518.92812 
L 415.029594 519.269349 
" clip-path="url(#p69ba684f17)" style="fill: none; stroke: #ff0000; stroke-opacity: 0.7; stroke-width: 0.5"/>
    <path d="M 540.985214 398.674211 
L 541.281917 398.859474 
L 542.660407 401.259279 
L 542.600016 401.445404 
L 542.002408 401.740102 
L 538.069117 403.610829 
L 537.432124 403.881399 
L 537.256202 403.953781 
" clip-path="url(#p69ba684f17)" style="fill: none; stroke: #ff0000; stroke-opacity: 0.7; stroke-width: 0.5"/>
    <path d="M 534.530731 401.637561 
L 536.080941 400.924944 
L 540.985214 398.674211 
" clip-path="url(#p69ba684f17)" style="fill: none; stroke: #ff0000; stroke-opacity: 0.7; stroke-width: 0.5"/>
    <path d="M 408.061526 509.012661 
L 408.2469 509.293572 
L 408.501592 509.68047 
" clip-path="url(#p69ba684f17)" style="fill: none; stroke: #ff0000; stroke-opacity: 0.7; stroke-width: 0.5"/>
   </g>
   <g id="patch_3">
    <path d="M 134.739718 640.8 
L 134.739718 86.4 
" style="fill: none; stroke: #000000; stroke-width: 0.8; stroke-linejoin: miter; stroke-linecap: square"/>
   </g>
   <g id="patch_4">
    <path d="M 603.260282 640.8 
L 603.260282 86.4 
" style="fill: none; stroke: #000000; stroke-width: 0.8; stroke-linejoin: miter; stroke-linecap: square"/>
   </g>
   <g id="patch_5">
    <path d="M 134.739718 640.8 
L 603.260282 640.8 
" style="fill: none; stroke: #000000; stroke-width: 0.8; stroke-linejoin: miter; stroke-linecap: square"/>
   </g>
   <g id="patch_6">
    <path d="M 134.739718 86.4 
L 603.260282 86.4 
" style="fill: none; stroke: #000000; stroke-width: 0.8; stroke-linejoin: miter; stroke-linecap: square"/>
   </g>
   <g id="text_16">
    <!-- Treptow-Kpenick_2 -->
    <g transform="translate(321.379765 390.280591) scale(0.12 -0.12)">
     <defs>
      <path id="DejaVuSans-54" d="M -19 4666 
L 3928 4666 
L 3928 4134 
L 2272 4134 
L 2272 0 
L 1638 0 
L 1638 4134 
L -19 4134 
L -19 4666 
z
" transform="scale(0.015625)"/>
      <path id="DejaVuSans-72" d="M 2631 2963 
Q 2534 3019 2420 3045 
Q 2306 3072 2169 3072 
Q 1681 3072 1420 2755 
Q 1159 2438 1159 1844 
L 1159 0 
L 581 0 
L 581 3500 
L 1159 3500 
L 1159 2956 
Q 1341 3275 1631 3429 
Q 1922 3584 2338 3584 
Q 2397 3584 2469 3576 
Q 2541 3569 2628 3553 
L 2631 2963 
z
" transform="scale(0.015625)"/>
      <path id="DejaVuSans-65" d="M 3597 1894 
L 3597 1613 
L 953 1613 
Q 991 1019 1311 708 
Q 1631 397 2203 397 
Q 2534 397 2845 478 
Q 3156 559 3463 722 
L 3463 178 
Q 3153 47 2828 -22 
Q 2503 -91 2169 -91 
Q 1331 -91 842 396 
Q 353 884 353 1716 
Q 353 2575 817 3079 
Q 1281 3584 2069 3584 
Q 2775 3584 3186 3129 
Q 3597 2675 3597 1894 
z
M 3022 2063 
Q 3016 2534 2758 2815 
Q 2500 3097 2075 3097 
Q 1594 3097 1305 2825 
Q 1016 2553 972 2059 
L 3022 2063 
z
" transform="scale(0.015625)"/>
      <path id="DejaVuSans-70" d="M 1159 525 
L 1159 -1331 
L 581 -1331 
L 581 3500 
L 1159 3500 
L 1159 2969 
Q 1341 3281 1617 3432 
Q 1894 3584 2278 3584 
Q 2916 3584 3314 3078 
Q 3713 2572 3713 1747 
Q 3713 922 3314 415 
Q 2916 -91 2278 -91 
Q 1894 -91 1617 61 
Q 1341 213 1159 525 
z
M 3116 1747 
Q 3116 2381 2855 2742 
Q 2594 3103 2138 3103 
Q 1681 3103 1420 2742 
Q 1159 2381 1159 1747 
Q 1159 1113 1420 752 
Q 1681 391 2138 391 
Q 2594 391 2855 752 
Q 3116 1113 3116 1747 
z
" transform="scale(0.015625)"/>
      <path id="DejaVuSans-74" d="M 1172 4494 
L 1172 3500 
L 2356 3500 
L 2356 3053 
L 1172 3053 
L 1172 1153 
Q 1172 725 1289 603 
Q 1406 481 1766 481 
L 2356 481 
L 2356 0 
L 1766 0 
Q 1100 0 847 248 
Q 594 497 594 1153 
L 594 3053 
L 172 3053 
L 172 3500 
L 594 3500 
L 594 4494 
L 1172 4494 
z
" transform="scale(0.015625)"/>
      <path id="DejaVuSans-6f" d="M 1959 3097 
Q 1497 3097 1228 2736 
Q 959 2375 959 1747 
Q 959 1119 1226 758 
Q 1494 397 1959 397 
Q 2419 397 2687 759 
Q 2956 1122 2956 1747 
Q 2956 2369 2687 2733 
Q 2419 3097 1959 3097 
z
M 1959 3584 
Q 2709 3584 3137 3096 
Q 3566 2609 3566 1747 
Q 3566 888 3137 398 
Q 2709 -91 1959 -91 
Q 1206 -91 779 398 
Q 353 888 353 1747 
Q 353 2609 779 3096 
Q 1206 3584 1959 3584 
z
" transform="scale(0.015625)"/>
      <path id="DejaVuSans-77" d="M 269 3500 
L 844 3500 
L 1563 769 
L 2278 3500 
L 2956 3500 
L 3675 769 
L 4391 3500 
L 4966 3500 
L 4050 0 
L 3372 0 
L 2619 2869 
L 1863 0 
L 1184 0 
L 269 3500 
z
" transform="scale(0.015625)"/>
      <path id="DejaVuSans-2d" d="M 313 2009 
L 1997 2009 
L 1997 1497 
L 313 1497 
L 313 2009 
z
" transform="scale(0.015625)"/>
      <path id="DejaVuSans-4b" d="M 628 4666 
L 1259 4666 
L 1259 2694 
L 3353 4666 
L 4166 4666 
L 1850 2491 
L 4331 0 
L 3500 0 
L 1259 2247 
L 1259 0 
L 628 0 
L 628 4666 
z
" transform="scale(0.015625)"/>
      <path id="DejaVuSans-f6" d="M 1959 3097 
Q 1497 3097 1228 2736 
Q 959 2375 959 1747 
Q 959 1119 1226 758 
Q 1494 397 1959 397 
Q 2419 397 2687 759 
Q 2956 1122 2956 1747 
Q 2956 2369 2687 2733 
Q 2419 3097 1959 3097 
z
M 1959 3584 
Q 2709 3584 3137 3096 
Q 3566 2609 3566 1747 
Q 3566 888 3137 398 
Q 2709 -91 1959 -91 
Q 1206 -91 779 398 
Q 353 888 353 1747 
Q 353 2609 779 3096 
Q 1206 3584 1959 3584 
z
M 2254 4850 
L 2888 4850 
L 2888 4219 
L 2254 4219 
L 2254 4850 
z
M 1032 4850 
L 1666 4850 
L 1666 4219 
L 1032 4219 
L 1032 4850 
z
" transform="scale(0.015625)"/>
      <path id="DejaVuSans-6e" d="M 3513 2113 
L 3513 0 
L 2938 0 
L 2938 2094 
Q 2938 2591 2744 2837 
Q 2550 3084 2163 3084 
Q 1697 3084 1428 2787 
Q 1159 2491 1159 1978 
L 1159 0 
L 581 0 
L 581 3500 
L 1159 3500 
L 1159 2956 
Q 1366 3272 1645 3428 
Q 1925 3584 2291 3584 
Q 2894 3584 3203 3211 
Q 3513 2838 3513 2113 
z
" transform="scale(0.015625)"/>
      <path id="DejaVuSans-69" d="M 603 3500 
L 1178 3500 
L 1178 0 
L 603 0 
L 603 3500 
z
M 603 4863 
L 1178 4863 
L 1178 4134 
L 603 4134 
L 603 4863 
z
" transform="scale(0.015625)"/>
      <path id="DejaVuSans-63" d="M 3122 3366 
L 3122 2828 
Q 2878 2963 2633 3030 
Q 2388 3097 2138 3097 
Q 1578 3097 1268 2742 
Q 959 2388 959 1747 
Q 959 1106 1268 751 
Q 1578 397 2138 397 
Q 2388 397 2633 464 
Q 2878 531 3122 666 
L 3122 134 
Q 2881 22 2623 -34 
Q 2366 -91 2075 -91 
Q 1284 -91 818 406 
Q 353 903 353 1747 
Q 353 2603 823 3093 
Q 1294 3584 2113 3584 
Q 2378 3584 2631 3529 
Q 2884 3475 3122 3366 
z
" transform="scale(0.015625)"/>
      <path id="DejaVuSans-6b" d="M 581 4863 
L 1159 4863 
L 1159 1991 
L 2875 3500 
L 3609 3500 
L 1753 1863 
L 3688 0 
L 2938 0 
L 1159 1709 
L 1159 0 
L 581 0 
L 581 4863 
z
" transform="scale(0.015625)"/>
      <path id="DejaVuSans-5f" d="M 3263 -1063 
L 3263 -1509 
L -63 -1509 
L -63 -1063 
L 3263 -1063 
z
" transform="scale(0.015625)"/>
     </defs>
     <use xlink:href="#DejaVuSans-54"/>
     <use xlink:href="#DejaVuSans-72" x="46.333984"/>
     <use xlink:href="#DejaVuSans-65" x="85.197266"/>
     <use xlink:href="#DejaVuSans-70" x="146.720703"/>
     <use xlink:href="#DejaVuSans-74" x="210.197266"/>
     <use xlink:href="#DejaVuSans-6f" x="249.40625"/>
     <use xlink:href="#DejaVuSans-77" x="310.587891"/>
     <use xlink:href="#DejaVuSans-2d" x="392.375"/>
     <use xlink:href="#DejaVuSans-4b" x="428.458984"/>
     <use xlink:href="#DejaVuSans-f6" x="489.035156"/>
     <use xlink:href="#DejaVuSans-70" x="550.216797"/>
     <use xlink:href="#DejaVuSans-65" x="613.693359"/>
     <use xlink:href="#DejaVuSans-6e" x="675.216797"/>
     <use xlink:href="#DejaVuSans-69" x="738.595703"/>
     <use xlink:href="#DejaVuSans-63" x="766.378906"/>
     <use xlink:href="#DejaVuSans-6b" x="821.359375"/>
     <use xlink:href="#DejaVuSans-5f" x="879.269531"/>
     <use xlink:href="#DejaVuSans-32" x="929.269531"/>
    </g>
   </g>
  </g>
 </g>
 <defs>
  <clipPath id="p69ba684f17">
   <rect x="134.739718" y="86.4" width="468.520563" height="554.4"/>
  </clipPath>
 </defs>
</svg>
