<?xml version="1.0" encoding="utf-8" standalone="no"?>
<!DOCTYPE svg PUBLIC "-//W3C//DTD SVG 1.1//EN"
  "http://www.w3.org/Graphics/SVG/1.1/DTD/svg11.dtd">
<svg xmlns:xlink="http://www.w3.org/1999/xlink" width="720pt" height="720pt" viewBox="0 0 720 720" xmlns="http://www.w3.org/2000/svg" version="1.1">
 <metadata>
  <rdf:RDF xmlns:dc="http://purl.org/dc/elements/1.1/" xmlns:cc="http://creativecommons.org/ns#" xmlns:rdf="http://www.w3.org/1999/02/22-rdf-syntax-ns#">
   <cc:Work>
    <dc:type rdf:resource="http://purl.org/dc/dcmitype/StillImage"/>
    <dc:date>2024-10-17T11:38:39.665783</dc:date>
    <dc:format>image/svg+xml</dc:format>
    <dc:creator>
     <cc:Agent>
      <dc:title>Matplotlib v3.9.2, https://matplotlib.org/</dc:title>
     </cc:Agent>
    </dc:creator>
   </cc:Work>
  </rdf:RDF>
 </metadata>
 <defs>
  <style type="text/css">*{stroke-linejoin: round; stroke-linecap: butt}</style>
 </defs>
 <g id="figure_1">
  <g id="patch_1">
   <path d="M 0 720 
L 720 720 
L 720 0 
L 0 0 
z
" style="fill: #ffffff"/>
  </g>
  <g id="axes_1">
   <g id="patch_2">
    <path d="M 90 576.217239 
L 648 576.217239 
L 648 150.982761 
L 90 150.982761 
z
" style="fill: #ffffff"/>
   </g>
   <g id="PatchCollection_1">
    <path d="M 239.482973 177.098386 
L 237.455561 177.517771 
L 235.425178 177.9441 
L 234.91446 178.051346 
L 234.723717 178.091399 
L 233.653668 178.001294 
L 233.194313 178.061284 
L 232.341704 178.2327 
L 228.713679 178.966096 
L 220.362848 180.632359 
L 219.530631 180.82367 
L 219.526362 180.802546 
L 219.252765 180.746044 
L 217.74937 181.044445 
L 217.616714 180.899563 
L 216.015114 181.219562 
L 216.047237 181.278768 
L 215.660579 181.361252 
L 215.584703 181.377427 
L 215.57863 181.402884 
L 215.544087 181.548225 
L 215.495218 181.577433 
L 215.419088 181.61945 
L 215.35023 181.640111 
L 215.292758 181.652832 
L 215.191393 181.683786 
L 213.822721 181.944531 
L 213.78633 181.952974 
L 212.014168 182.33944 
L 210.498096 182.637874 
L 210.057404 182.731557 
L 209.586016 182.829714 
L 208.248443 183.105301 
L 207.461005 183.275367 
L 206.454684 183.469116 
L 206.288003 183.505243 
L 205.690214 183.632944 
L 205.559885 183.658701 
L 205.521571 183.667183 
L 204.693669 183.834218 
L 204.354383 183.898883 
L 204.268293 183.923751 
L 204.201437 183.948233 
L 204.134581 183.972714 
L 204.054377 184.003249 
L 203.92832 184.05013 
L 203.813842 184.098707 
L 203.699518 184.154994 
L 203.480643 184.275083 
L 203.286772 184.39467 
L 203.184143 184.458434 
L 203.125097 184.488544 
L 203.016467 184.54086 
L 202.930532 184.573438 
L 202.896961 184.585001 
L 202.877024 184.591867 
L 202.794588 184.607022 
L 202.581747 184.644081 
L 202.340133 184.685576 
L 201.4423 184.819325 
L 200.66314 184.921768 
L 199.90914 185.031421 
L 199.383637 185.117196 
L 198.702031 185.19069 
L 198.398677 185.223792 
L 196.552775 185.384368 
L 194.911556 185.484922 
L 194.796075 185.483393 
L 194.48814 185.479959 
L 194.231904 185.463914 
L 194.158816 185.465387 
L 194.076188 185.470909 
L 193.953284 185.483027 
L 193.714978 185.497472 
L 193.405468 185.511424 
L 192.984208 185.51799 
L 192.395846 185.539495 
L 191.868141 185.515431 
L 191.634638 185.481578 
L 191.472105 185.436653 
L 191.35585 185.396579 
L 191.243326 185.350645 
L 191.018084 185.249142 
L 191.004504 185.243631 
L 190.607305 185.107034 
L 190.397952 185.030276 
L 190.148906 184.989026 
L 189.827351 184.978162 
L 189.798197 184.97733 
L 189.471175 184.967996 
L 189.228596 184.961324 
L 188.790063 184.970175 
L 188.789753 184.954756 
L 188.325829 184.94484 
L 187.60386 184.92471 
L 187.010216 184.874997 
L 186.300975 184.817981 
L 184.702994 184.676732 
L 183.706622 184.598534 
L 183.17468 184.555299 
L 183.010843 184.541257 
L 181.59216 184.41762 
L 180.447219 184.319306 
L 179.344358 184.208578 
L 178.962555 184.168101 
L 177.668772 184.036181 
L 176.485009 183.921324 
L 175.515325 183.831059 
L 175.484473 183.827828 
L 174.304826 183.726397 
L 173.321754 183.640272 
L 171.760378 183.502247 
L 171.683247 183.49417 
L 170.451315 183.376471 
L 169.04981 183.246795 
L 167.850962 183.147723 
L 167.338247 183.104142 
L 166.565287 183.036924 
L 165.560895 182.943559 
L 164.207782 182.828361 
L 164.018859 182.81099 
L 163.243857 182.738043 
L 162.233809 182.650594 
L 161.167747 182.552722 
L 160.188198 182.451168 
L 159.972231 182.428566 
L 159.162838 182.367904 
L 158.551713 182.310923 
L 157.850187 182.255785 
L 157.052139 182.18526 
L 156.996204 182.178686 
L 156.356148 182.118445 
L 156.25782 182.108878 
L 155.364937 182.011369 
L 154.113947 181.903805 
L 153.020872 181.802672 
L 152.525421 181.756852 
L 152.09937 181.717331 
L 151.021836 181.623605 
L 149.980924 181.532996 
L 149.148171 181.459356 
L 148.693149 181.414649 
L 148.396278 181.387926 
L 148.145686 181.366044 
L 148.060978 181.363916 
L 148.014894 181.368713 
L 147.986239 181.378938 
L 147.965355 181.392861 
L 147.9314 181.426332 
L 147.893989 181.479155 
L 147.762244 181.719005 
L 147.752627 181.719201 
L 147.448894 182.396392 
L 147.283286 182.390131 
L 147.081988 181.669257 
L 147.029938 181.664534 
L 146.945555 181.394388 
L 146.927579 181.361977 
L 146.883736 181.287674 
L 146.83314 181.259784 
L 146.718875 181.223553 
L 145.641414 181.133713 
L 144.862435 181.055138 
L 144.706246 181.039046 
L 144.110657 180.989508 
L 143.893076 180.982383 
L 143.567391 180.958184 
L 143.459445 180.94882 
L 143.390045 180.942525 
L 143.394639 180.884587 
L 143.156119 180.861189 
L 143.134351 180.859054 
L 142.962774 180.843277 
L 142.960143 180.903103 
L 142.890743 180.896809 
L 142.094412 180.816671 
L 141.570027 180.767614 
L 141.031824 180.701488 
L 141.024131 180.701645 
L 141.010948 180.698628 
L 140.869826 180.683589 
L 140.810043 180.677099 
L 140.706218 180.681149 
L 140.363379 180.665019 
L 140.105131 180.645233 
L 139.717464 180.601099 
L 138.917441 180.528763 
L 137.836205 180.442901 
L 137.196373 180.39429 
L 136.86684 180.370182 
L 136.500527 180.335258 
L 136.361962 180.334237 
L 136.219354 180.323658 
L 136.121102 180.317956 
L 136.032664 180.321694 
L 135.982773 180.3285 
L 135.919575 180.34329 
L 135.781718 180.376962 
L 135.590594 180.440646 
L 135.424357 180.498037 
L 135.256 180.54583 
L 135.125522 180.563926 
L 135.036966 180.561882 
L 134.87748 180.57286 
L 134.646552 180.571803 
L 134.531108 180.572238 
L 134.399922 180.555643 
L 134.083225 180.500426 
L 134.004286 180.498186 
L 133.865603 180.491385 
L 133.464353 180.441758 
L 133.331441 180.434839 
L 133.289047 180.431851 
L 133.204378 180.431657 
L 133.185144 180.432051 
L 133.165909 180.432444 
L 133.148441 180.42509 
L 133.123122 180.410183 
L 133.049522 180.386625 
L 133.009051 180.383597 
L 132.82401 180.368106 
L 132.506449 180.36497 
L 132.226768 180.332136 
L 131.530369 180.24614 
L 130.984665 180.189836 
L 130.736386 180.187212 
L 130.589853 180.172861 
L 130.520452 180.166571 
L 130.327638 180.147385 
L 130.152174 180.129772 
L 129.945857 180.108935 
L 129.847566 180.101309 
L 129.804897 180.08483 
L 129.758184 180.058793 
L 129.736869 180.051518 
L 129.703738 180.030987 
L 129.697613 180.01376 
L 129.510058 179.969401 
L 129.413415 179.948244 
L 129.082857 179.874039 
L 128.970826 179.853198 
L 128.33468 179.796829 
L 128.109089 179.774461 
L 128.012682 179.764869 
L 127.923891 179.719334 
L 127.707635 179.652814 
L 127.645067 179.579748 
L 127.581787 179.530181 
L 127.506227 179.506858 
L 127.07413 179.4696 
L 127.065302 179.468855 
L 127.039492 179.712485 
L 126.987034 180.119204 
L 126.943799 180.297326 
L 126.615223 181.267599 
L 126.478497 181.676741 
L 126.432134 181.795888 
L 126.3984 181.894645 
L 126.057701 182.734632 
L 125.79708 183.378312 
L 125.536076 184.021999 
L 125.275074 184.665687 
L 125.014489 185.308981 
L 124.723585 186.025936 
L 124.759362 186.032837 
L 124.839915 186.381528 
L 123.701217 189.12486 
L 123.639917 189.288738 
L 122.698998 191.551533 
L 121.98229 193.279758 
L 121.781856 193.762248 
L 121.836501 194.035076 
L 122.03827 195.0515 
L 122.048092 195.10089 
L 122.070195 195.212615 
L 122.071353 195.218415 
L 122.332184 196.530058 
L 122.339922 196.569735 
L 122.421229 196.678702 
L 122.559191 196.863477 
L 122.732649 197.097964 
L 123.014499 197.57857 
L 124.516396 200.136425 
L 125.231299 200.342331 
L 125.64186 200.463554 
L 126.149884 201.45646 
L 126.343517 201.835069 
L 127.187397 202.655189 
L 127.565675 205.425927 
L 128.081655 208.200359 
L 130.032865 210.967657 
L 131.42529 212.967606 
L 131.511922 213.547553 
L 131.491109 214.315382 
L 131.451854 215.375009 
L 131.445444 217.605196 
L 131.477012 218.141692 
L 131.488247 218.213343 
L 131.685013 219.443017 
L 132.069484 220.96416 
L 132.407917 222.305387 
L 133.211224 224.675862 
L 133.510398 225.471728 
L 133.616945 225.755259 
L 133.527245 225.969693 
L 133.175802 226.808926 
L 132.946647 227.358128 
L 132.707884 227.926616 
L 132.700589 227.944351 
L 132.470244 228.495468 
L 132.231884 229.06472 
L 131.993509 229.633201 
L 131.785399 230.13111 
L 131.803101 230.140735 
L 132.448538 230.489386 
L 132.638248 230.59282 
L 132.74275 231.317668 
L 132.872054 231.400359 
L 133.499094 231.801836 
L 134.125316 232.202946 
L 134.208855 232.256419 
L 134.89974 232.698666 
L 134.998642 232.762121 
L 135.097959 232.82522 
L 135.703793 233.213642 
L 135.823497 233.289783 
L 136.425457 233.675123 
L 136.501676 233.724351 
L 135.779257 234.78936 
L 135.282933 235.52111 
L 134.832461 236.554295 
L 134.386407 237.577556 
L 134.312428 237.74763 
L 134.384507 237.87318 
L 134.879451 238.733721 
L 134.886432 238.745879 
L 134.878528 238.754486 
L 134.386944 239.287735 
L 134.385407 239.289695 
L 133.754972 239.973601 
L 134.198578 240.69756 
L 134.390158 241.012205 
L 134.522381 241.229037 
L 134.699471 241.518027 
L 134.976406 241.969945 
L 134.656641 242.572829 
L 134.576097 242.724643 
L 134.197502 243.438444 
L 133.870024 244.057145 
L 133.546339 244.669329 
L 133.938935 245.20144 
L 134.202877 245.563385 
L 134.261808 245.644241 
L 134.037544 246.5986 
L 133.754626 247.802662 
L 133.753531 247.807307 
L 133.231032 250.023546 
L 133.19312 250.184898 
L 133.042597 250.825158 
L 132.707819 252.243652 
L 131.989845 255.374868 
L 131.737805 256.328065 
L 130.550164 260.102464 
L 130.431977 260.339465 
L 130.230045 260.744313 
L 128.528073 263.221713 
L 128.422159 263.375669 
L 127.495237 264.472056 
L 127.427288 264.552311 
L 127.718662 265.030222 
L 127.497192 265.28959 
L 125.380388 267.74603 
L 124.46881 268.800777 
L 123.39261 270.047752 
L 124.118485 270.833762 
L 122.650813 272.017708 
L 121.585645 273.189501 
L 119.451418 275.453706 
L 118.350388 276.517662 
L 118.12926 276.7323 
L 118.126014 276.735449 
L 117.10848 277.722885 
L 117.40332 278.441305 
L 117.665738 279.096145 
L 117.966359 279.847302 
L 117.824738 279.999762 
L 117.287001 280.578355 
L 117.147264 280.728887 
L 116.569607 281.350722 
L 116.469043 281.458801 
L 115.851872 282.123099 
L 115.363636 282.648425 
L 115.381112 283.242747 
L 115.40631 284.148498 
L 115.411609 284.35474 
L 116.279353 284.639026 
L 116.554334 284.731473 
L 116.667439 284.781438 
L 117.657141 285.129434 
L 118.384188 285.380259 
L 118.922749 285.634152 
L 119.052923 285.719515 
L 119.668565 286.031829 
L 120.286926 286.345555 
L 120.916033 286.641284 
L 122.204524 287.301156 
L 122.277602 287.336868 
L 123.512628 287.686488 
L 124.950668 288.070588 
L 125.314967 288.165765 
L 125.513299 288.219462 
L 125.603533 288.243987 
L 125.732945 288.279045 
L 126.169106 288.395655 
L 126.765101 288.554837 
L 126.802114 288.564875 
L 126.855672 288.578932 
L 127.023201 288.623505 
L 127.402665 288.724969 
L 128.035633 288.894195 
L 128.073457 288.904371 
L 128.129722 288.913513 
L 128.18946 288.92324 
L 128.210299 288.92663 
L 128.582618 288.987134 
L 128.605041 288.990878 
L 128.624182 288.993995 
L 128.675376 289.009103 
L 128.732337 289.025982 
L 128.852064 289.061472 
L 129.207996 289.167124 
L 129.296301 289.19331 
L 129.742315 289.325537 
L 130.573047 289.571892 
L 131.590357 290.410611 
L 131.881212 290.65049 
L 132.185094 290.901093 
L 132.264467 290.966528 
L 132.384331 291.065492 
L 132.751741 291.368474 
L 133.24422 291.774905 
L 133.851856 292.151405 
L 133.89217 292.176262 
L 135.03032 292.882028 
L 135.211262 293.032112 
L 135.531027 293.192466 
L 136.243591 293.633849 
L 137.908171 294.666051 
L 139.546737 295.339278 
L 139.68427 295.395775 
L 139.70599 295.404702 
L 139.897162 295.48324 
L 140.012856 295.530659 
L 141.091081 295.973645 
L 142.584534 296.58743 
L 143.109088 297.012551 
L 143.633118 297.436642 
L 144.159285 297.863777 
L 144.678984 298.285029 
L 145.043749 298.580684 
L 145.189491 298.698796 
L 145.88879 299.265622 
L 146.207369 299.523853 
L 146.216853 299.531595 
L 146.232164 299.544094 
L 146.274481 299.578708 
L 146.364139 299.651034 
L 146.715524 299.935783 
L 147.223205 300.347222 
L 147.73069 300.75859 
L 148.224447 301.158785 
L 148.718531 301.560056 
L 149.210745 301.960247 
L 149.505227 302.196994 
L 149.706762 302.360323 
L 150.272108 302.818606 
L 150.429027 302.945825 
L 150.48807 302.993635 
L 151.231172 303.59603 
L 151.744163 303.246139 
L 152.475453 302.772987 
L 153.034295 302.41183 
L 153.464059 302.133748 
L 153.668787 302.001277 
L 154.060952 301.757936 
L 154.633617 301.402942 
L 155.033082 301.155328 
L 155.537781 300.833999 
L 155.562351 300.818536 
L 155.901138 300.597997 
L 156.075877 300.482915 
L 156.344353 300.305649 
L 156.57711 300.159268 
L 157.095265 299.833658 
L 157.609167 299.501118 
L 157.874186 299.329633 
L 158.16802 299.139591 
L 158.759515 298.756462 
L 159.488148 298.285281 
L 159.5304 298.257851 
L 159.551168 298.24451 
L 159.691716 298.153958 
L 161.107506 297.240563 
L 161.683285 296.869022 
L 162.040941 296.681237 
L 162.84276 296.307881 
L 163.875452 295.827451 
L 164.739122 295.425467 
L 165.281241 295.188127 
L 166.09756 294.73613 
L 166.622324 294.440993 
L 167.736684 293.75273 
L 168.790752 293.089646 
L 168.974343 292.974125 
L 169.006057 292.954239 
L 169.260258 292.794674 
L 169.90095 292.392572 
L 170.036426 292.30753 
L 170.333671 292.113774 
L 170.384844 292.080459 
L 170.500918 292.076446 
L 171.051282 291.652156 
L 171.741819 291.121908 
L 172.339003 290.661734 
L 172.433649 290.588821 
L 173.25876 289.95304 
L 173.338143 289.891851 
L 173.47127 289.789313 
L 173.760245 289.566616 
L 173.915415 289.447087 
L 174.098383 289.306095 
L 174.010943 289.709732 
L 173.933375 290.087948 
L 173.830971 290.586831 
L 173.583185 291.795404 
L 173.517217 292.117431 
L 173.458701 292.255901 
L 173.450447 292.275697 
L 173.330212 292.5635 
L 173.293339 292.649935 
L 173.277657 292.686656 
L 173.245058 292.761859 
L 173.017398 293.284105 
L 172.752432 293.892178 
L 172.363365 294.784933 
L 172.065492 295.467947 
L 172.040559 295.524639 
L 171.68292 296.342987 
L 171.561387 296.625265 
L 171.426853 296.934183 
L 171.289313 297.319017 
L 170.989034 298.219769 
L 170.575382 299.442894 
L 170.548955 299.520788 
L 170.900699 300.440783 
L 170.191384 300.715358 
L 168.534858 301.358309 
L 168.695075 301.777052 
L 169.120409 302.850111 
L 169.547739 303.987955 
L 169.31461 304.767802 
L 169.290484 304.845302 
L 169.15304 305.304947 
L 169.011785 305.775738 
L 168.800468 306.481372 
L 168.795127 306.500646 
L 168.628311 306.973961 
L 168.35592 307.75557 
L 168.096547 308.499896 
L 167.943739 308.939223 
L 167.52307 310.130799 
L 167.290189 310.815471 
L 167.029824 312.228192 
L 167.019031 312.327865 
L 166.986065 312.504575 
L 166.831762 313.360876 
L 166.82147 313.418698 
L 166.760364 313.740629 
L 166.69165 314.123837 
L 166.624695 314.550277 
L 166.282249 316.527224 
L 166.148315 317.314084 
L 166.130002 317.420312 
L 166.087784 317.668127 
L 166.078465 317.722729 
L 165.727055 319.116439 
L 165.515395 319.872293 
L 165.408298 320.588194 
L 165.388082 320.723883 
L 165.343141 321.236643 
L 165.329676 321.390513 
L 165.181181 323.08556 
L 165.077009 324.277269 
L 165.029654 324.816957 
L 164.995925 325.201267 
L 164.973571 325.455698 
L 164.937221 325.87203 
L 164.861806 326.732052 
L 164.70051 328.661014 
L 164.684491 328.755086 
L 164.682743 328.957847 
L 164.664701 331.035759 
L 164.659652 331.600425 
L 164.833195 332.359907 
L 165.161935 333.797066 
L 165.262954 334.238797 
L 165.336786 334.562461 
L 165.373085 334.720449 
L 166.05831 337.71676 
L 166.147205 338.106716 
L 166.406503 339.240371 
L 169.444315 339.370776 
L 170.088252 339.398393 
L 170.954596 339.435498 
L 182.771125 339.943072 
L 183.127039 339.958473 
L 183.637426 339.980236 
L 183.706238 339.983241 
L 185.320884 340.052639 
L 189.110985 340.215937 
L 189.761303 340.24758 
L 192.261114 340.349957 
L 193.668234 340.411966 
L 196.540106 340.581825 
L 197.695486 340.649941 
L 201.182963 340.856329 
L 202.830495 340.953867 
L 206.068651 341.145463 
L 208.54043 341.283557 
L 208.639995 341.297715 
L 213.138165 341.686249 
L 214.005668 341.761281 
L 214.697135 341.820721 
L 214.850492 341.82906 
L 215.761242 341.876663 
L 219.47718 342.070865 
L 222.534022 342.230743 
L 226.2195 342.423451 
L 226.999744 342.463537 
L 227.384811 342.483644 
L 227.537822 342.492038 
L 227.767595 342.504954 
L 229.165607 342.576434 
L 229.379722 342.587003 
L 230.075072 342.621663 
L 230.765804 342.656149 
L 231.456536 342.690599 
L 232.147269 342.725166 
L 232.36843 342.736215 
L 232.742047 342.754865 
L 233.516242 342.777051 
L 234.419836 342.803601 
L 234.613213 342.809692 
L 235.306739 342.830024 
L 236.12265 342.853935 
L 236.963734 342.873413 
L 237.538411 342.888102 
L 237.605966 342.889841 
L 237.746998 342.893392 
L 238.259349 342.906356 
L 238.951127 342.923884 
L 239.104663 342.927765 
L 239.321444 342.933241 
L 239.645249 342.929682 
L 240.338221 342.922086 
L 240.889884 342.912525 
L 240.98285 342.9121 
L 241.410998 342.910127 
L 241.416195 342.910103 
L 241.489016 342.888446 
L 242.018254 342.730867 
L 242.132091 342.696979 
L 242.732509 342.524103 
L 245.642464 341.557617 
L 247.446317 341.128442 
L 248.335253 340.916992 
L 248.577775 340.858955 
L 248.790141 340.808227 
L 249.197937 340.696196 
L 249.83214 340.521976 
L 250.471916 340.353395 
L 251.278818 340.140735 
L 251.523596 340.076178 
L 253.065909 339.587735 
L 254.847984 339.023553 
L 255.203817 338.904545 
L 255.942687 338.657661 
L 256.665823 338.416183 
L 257.388539 338.174716 
L 257.918802 338.009256 
L 258.078136 337.956004 
L 258.159527 337.930019 
L 258.238578 337.902345 
L 258.362275 337.860977 
L 258.582038 337.787483 
L 258.58578 337.786232 
L 258.815253 337.709514 
L 258.84904 337.697198 
L 261.048005 336.898409 
L 261.871025 336.58903 
L 262.420691 336.393081 
L 262.620286 336.318289 
L 262.729558 336.280648 
L 263.371119 336.047135 
L 264.120728 335.77431 
L 264.209952 335.74181 
L 264.903658 335.508273 
L 265.614747 335.268918 
L 265.687479 335.244419 
L 266.471185 334.980493 
L 267.25346 334.71602 
L 268.061531 334.44329 
L 268.137243 334.417807 
L 268.503497 334.356655 
L 269.063415 334.262946 
L 269.936832 334.117963 
L 270.808491 333.971477 
L 271.38224 333.875111 
L 272.108155 333.69688 
L 274.005334 333.223775 
L 274.210469 333.172178 
L 274.748847 333.032828 
L 275.493694 332.839236 
L 276.42352 332.597496 
L 276.501982 332.576821 
L 277.189439 332.380164 
L 277.878851 332.183125 
L 278.614387 331.975229 
L 279.35371 331.76622 
L 279.568295 331.706112 
L 280.094336 331.558846 
L 280.913449 331.351549 
L 281.771384 331.135508 
L 282.703663 330.900422 
L 283.042893 330.807708 
L 283.382085 330.714995 
L 284.298416 330.464536 
L 284.624909 330.375237 
L 285.138329 330.234982 
L 285.790457 330.05764 
L 286.351135 329.905429 
L 287.148554 329.716788 
L 287.20675 329.701837 
L 287.965817 329.455454 
L 288.776167 329.192447 
L 289.579184 328.931863 
L 290.443672 328.654611 
L 290.838562 328.521058 
L 291.968972 328.137862 
L 292.842754 327.841889 
L 293.680535 327.557194 
L 294.481262 327.283063 
L 295.281992 327.008936 
L 296.082723 326.734773 
L 296.101205 326.728125 
L 296.142255 326.713321 
L 296.346885 326.639121 
L 296.561939 326.56117 
L 296.80842 326.471843 
L 298.56125 325.836692 
L 299.855491 325.367767 
L 302.03197 324.593038 
L 303.348424 324.12455 
L 303.827671 323.88668 
L 304.500212 323.552939 
L 308.90416 321.367527 
L 309.824178 320.911002 
L 310.623459 320.514378 
L 313.211387 319.582576 
L 313.505579 319.479883 
L 314.504769 319.12287 
L 315.367541 318.814492 
L 316.083894 318.558605 
L 316.260216 318.679529 
L 316.508496 319.098026 
L 316.57947 319.212175 
L 316.754643 319.49389 
L 316.883898 319.66062 
L 317.747329 320.773741 
L 318.413234 321.977561 
L 319.735584 323.970073 
L 319.86724 324.439476 
L 320.10274 325.830047 
L 319.476425 327.904288 
L 319.421686 328.367414 
L 319.265405 329.690003 
L 319.23997 329.905255 
L 319.114874 331.316933 
L 318.715075 332.806158 
L 318.586179 333.918471 
L 318.591221 334.00992 
L 318.595017 334.078758 
L 318.650506 335.086131 
L 319.193591 336.300719 
L 319.619158 336.930172 
L 320.158849 338.932357 
L 320.306218 339.480971 
L 320.32321 339.544268 
L 321.252131 339.288383 
L 322.163414 339.443848 
L 322.647049 340.298771 
L 322.837918 341.441949 
L 322.766706 342.80576 
L 321.870483 345.397521 
L 322.023926 346.87943 
L 323.010182 348.684351 
L 323.911524 350.179536 
L 324.423332 351.04371 
L 324.716183 351.501609 
L 324.833996 351.728262 
L 325.044945 352.134271 
L 327.755486 353.200993 
L 330.69788 354.156196 
L 331.962048 354.477069 
L 332.525209 354.616482 
L 333.26572 354.528285 
L 333.583539 354.619984 
L 333.964821 355.150914 
L 334.498584 356.297046 
L 336.026714 358.468732 
L 336.43916 359.286471 
L 337.157053 359.981824 
L 337.822148 360.441775 
L 338.816944 360.910565 
L 339.598025 361.75525 
L 340.201173 362.544503 
L 340.812602 363.173176 
L 341.685218 364.104288 
L 343.055986 365.616765 
L 343.555684 367.569853 
L 344.245385 369.381978 
L 344.927326 370.657771 
L 346.062524 371.743661 
L 346.696336 372.353333 
L 347.912129 373.752886 
L 349.412847 376.1879 
L 350.768465 378.982438 
L 351.843581 381.48181 
L 351.938081 381.586185 
L 351.896111 382.065021 
L 351.889166 382.143785 
L 351.849531 382.594039 
L 351.750355 383.781068 
L 350.0958 385.784582 
L 349.509392 386.496148 
L 350.140724 387.690067 
L 352.226336 391.721978 
L 352.284411 391.973674 
L 352.572541 393.103317 
L 353.012919 394.836921 
L 352.918744 397.039252 
L 352.910328 397.235545 
L 352.903775 397.48687 
L 352.755061 398.107983 
L 352.602773 398.771083 
L 352.561852 399.000205 
L 352.530531 399.114686 
L 352.486637 399.27503 
L 352.450706 399.487743 
L 352.414852 399.570305 
L 352.217643 400.134049 
L 352.081038 400.516765 
L 352.02924 400.661837 
L 351.978973 400.802521 
L 351.792174 401.33776 
L 351.692066 401.629302 
L 351.442287 402.341604 
L 351.367369 402.535713 
L 351.033197 403.429003 
L 350.96394 403.6456 
L 350.85314 403.926667 
L 350.773163 404.179528 
L 350.575977 404.689902 
L 350.425631 405.151399 
L 351.342934 404.811585 
L 354.46785 403.630792 
L 354.563522 403.576614 
L 359.304887 400.920314 
L 360.798049 400.008812 
L 361.412991 399.650931 
L 364.357731 397.950016 
L 366.419973 396.793522 
L 366.539617 396.726201 
L 367.007747 396.463215 
L 367.866004 395.97889 
L 367.927461 395.944235 
L 368.856378 395.415789 
L 369.339282 395.141147 
L 369.707476 394.916455 
L 370.807481 394.310456 
L 372.66477 393.263363 
L 373.016695 393.076087 
L 374.726972 392.121692 
L 375.170845 391.859539 
L 379.370169 389.48491 
L 379.430528 389.450973 
L 379.643747 389.331118 
L 379.705629 389.296342 
L 383.377777 387.19341 
L 384.433512 386.599754 
L 384.575711 386.513041 
L 387.287808 385.029695 
L 388.312307 384.437777 
L 388.571981 384.308096 
L 391.560933 382.513366 
L 391.6902 382.451778 
L 392.936831 381.729307 
L 394.414363 380.895461 
L 394.600085 380.788256 
L 394.891145 380.630605 
L 394.955993 380.589801 
L 395.484714 380.278335 
L 395.573498 380.23476 
L 396.256317 379.836942 
L 396.940618 379.43609 
L 397.157338 379.311175 
L 397.19943 379.286617 
L 397.936596 378.857457 
L 398.555995 378.496258 
L 399.172292 378.141677 
L 399.184993 378.134339 
L 399.817464 377.760825 
L 400.041845 377.630175 
L 400.363477 377.442063 
L 401.156973 376.974089 
L 402.020585 376.464946 
L 402.898892 375.948008 
L 403.064585 375.850448 
L 403.943545 375.333155 
L 404.721792 374.875127 
L 404.894787 374.773304 
L 405.33129 374.525709 
L 405.899895 374.203216 
L 406.067141 374.108368 
L 406.635747 373.785839 
L 407.297698 373.410401 
L 407.465288 373.315355 
L 408.635986 372.651391 
L 409.806691 371.987397 
L 409.931989 372.209294 
L 411.965757 375.81414 
L 412.048772 375.961337 
L 412.697087 377.110715 
L 412.8512 377.382931 
L 412.927518 377.517606 
L 413.301838 378.178669 
L 415.834916 382.666833 
L 418.23056 386.918667 
L 418.290792 387.020216 
L 418.472931 387.344389 
L 418.554474 387.495627 
L 418.756087 387.851591 
L 418.794827 387.920385 
L 420.141663 390.307934 
L 422.004379 393.68919 
L 422.128977 393.914271 
L 422.169302 393.904097 
L 422.28658 393.881436 
L 423.799734 393.551506 
L 424.247927 393.454165 
L 424.803933 393.335695 
L 424.993997 393.295537 
L 425.747939 393.136377 
L 426.336526 393.004646 
L 426.511682 392.975068 
L 426.844991 392.896799 
L 427.259088 392.842299 
L 429.142243 392.405531 
L 430.578256 392.085136 
L 431.603194 391.869547 
L 431.831251 391.819693 
L 432.020523 391.77813 
L 434.349879 391.26939 
L 434.809488 391.159171 
L 435.100663 391.105005 
L 435.853652 390.939232 
L 436.604777 390.774462 
L 437.413098 390.586827 
L 437.528656 390.57057 
L 438.271475 390.407583 
L 440.490755 389.920662 
L 441.220466 389.75535 
L 441.665957 389.654439 
L 441.898532 389.611568 
L 442.979711 389.370032 
L 444.12893 389.113915 
L 446.52055 388.572338 
L 446.870224 388.48647 
L 446.89662 388.890572 
L 446.90315 388.991021 
L 446.899821 389.195273 
L 446.917395 389.721631 
L 446.949631 390.631065 
L 447.218857 398.223615 
L 447.239462 398.866915 
L 447.242525 399.012201 
L 447.259633 399.791192 
L 447.267303 400.291668 
L 447.279056 400.587146 
L 447.284264 401.383483 
L 447.306738 401.87188 
L 447.289078 402.162821 
L 447.312318 402.97382 
L 447.315602 403.765913 
L 447.316495 404.274037 
L 447.300475 404.525227 
L 447.303771 405.133067 
L 447.302492 406.472451 
L 447.299788 409.299687 
L 447.300107 409.612695 
L 447.275105 409.765874 
L 447.030364 411.265557 
L 446.949637 411.760294 
L 446.831539 412.482598 
L 446.494139 414.549626 
L 446.391832 414.788559 
L 446.270446 415.07189 
L 445.517852 416.829714 
L 445.350647 417.21745 
L 445.637213 417.34008 
L 445.783933 417.391999 
L 447.630185 418.108632 
L 448.43886 418.422506 
L 448.736706 418.538104 
L 448.970786 418.628949 
L 449.119465 418.689125 
L 449.231627 418.706478 
L 457.734903 420.022256 
L 457.504514 422.46436 
L 457.827607 425.181825 
L 458.359161 427.008976 
L 458.870606 429.188815 
L 458.674958 433.488874 
L 458.033566 437.513632 
L 457.383998 438.866111 
L 455.820396 440.960581 
L 452.25403 442.969343 
L 449.646086 445.272884 
L 444.258733 449.303437 
L 442.855374 450.301435 
L 442.820799 450.373891 
L 440.492211 455.290938 
L 439.512552 456.324122 
L 437.467882 459.374581 
L 437.207971 460.834577 
L 436.481386 462.539275 
L 435.767793 464.718863 
L 435.846905 467.177212 
L 436.509911 468.93187 
L 436.100096 471.457992 
L 435.418063 473.240946 
L 435.223039 475.286492 
L 434.985943 476.043447 
L 434.873062 478.28901 
L 434.542412 493.226747 
L 434.313395 503.749206 
L 434.131772 512.086613 
L 434.08723 514.135991 
L 431.229601 514.435086 
L 430.22858 520.126777 
L 430.54065 521.732338 
L 431.552725 526.941628 
L 432.449324 529.072125 
L 435.478828 534.041578 
L 436.470108 535.667715 
L 442.107869 541.285054 
L 442.407233 541.789635 
L 443.59745 543.719519 
L 446.399505 548.263651 
L 447.232971 549.615588 
L 451.624842 549.723785 
L 452.106435 550.674019 
L 453.548165 552.998208 
L 453.854343 553.65666 
L 454.273704 554.574481 
L 455.320437 555.211152 
L 459.330932 556.773689 
L 460.110591 556.888399 
L 461.899938 556.765214 
L 462.654392 556.429337 
L 463.014884 556.484935 
L 463.148097 556.411366 
L 466.312271 554.858612 
L 467.839999 554.263593 
L 468.499649 553.88455 
L 469.689403 552.594491 
L 470.461776 551.649634 
L 469.42675 541.807974 
L 469.067725 538.394553 
L 469.046238 538.190958 
L 470.016999 536.472981 
L 470.731605 535.05284 
L 471.545238 533.735702 
L 472.047756 532.845877 
L 472.461001 531.375925 
L 472.752416 530.393141 
L 473.257473 528.846161 
L 474.225034 526.706544 
L 474.656232 525.529917 
L 475.194473 524.766537 
L 475.527587 524.073664 
L 476.31888 523.217483 
L 477.11898 522.436106 
L 477.770889 521.551375 
L 478.793504 520.274408 
L 479.582062 519.515778 
L 479.705391 519.396323 
L 479.830586 519.278068 
L 479.991545 519.122395 
L 480.619219 518.402634 
L 480.997354 517.678931 
L 481.692421 516.521348 
L 481.717782 516.457362 
L 481.799243 516.298584 
L 482.024435 515.850026 
L 482.171037 515.125821 
L 481.593106 514.305761 
L 481.751432 513.006868 
L 482.192704 511.872298 
L 482.734171 510.783256 
L 483.172707 509.849112 
L 483.382628 509.218246 
L 483.74787 508.130293 
L 483.7888 507.53709 
L 483.702338 506.729924 
L 483.83994 504.591945 
L 483.868979 503.997576 
L 483.993295 503.313855 
L 484.081564 502.531854 
L 484.244208 501.101538 
L 484.265797 500.906124 
L 484.283149 500.708012 
L 484.569723 499.549106 
L 484.896339 499.05123 
L 485.67083 498.277966 
L 486.085665 498.027603 
L 486.679107 497.693705 
L 487.573589 497.442013 
L 488.069798 497.309993 
L 489.536 496.354774 
L 489.886549 495.599827 
L 490.006569 495.143903 
L 489.490019 494.424445 
L 490.340395 493.224942 
L 490.823729 492.636201 
L 491.071579 492.284373 
L 492.088456 491.493131 
L 492.498657 491.40892 
L 493.181628 491.013375 
L 494.507637 490.304402 
L 494.995972 489.760774 
L 495.912858 489.308719 
L 496.372273 489.053001 
L 497.066097 488.513699 
L 497.487067 488.398295 
L 497.862956 487.756691 
L 497.9475 487.609509 
L 498.011331 487.499694 
L 497.509385 487.234482 
L 497.289121 487.118139 
L 497.390719 486.714236 
L 497.918376 485.932802 
L 499.221654 484.677311 
L 498.870119 484.211517 
L 498.797554 484.110094 
L 498.597244 483.844411 
L 498.477758 483.144015 
L 498.430323 482.01655 
L 498.574647 481.332855 
L 499.005715 480.235729 
L 499.263001 479.520438 
L 499.477672 478.783995 
L 499.573123 478.339987 
L 499.620849 478.12531 
L 500.054685 476.904466 
L 500.441776 476.210099 
L 501.704178 474.702104 
L 502.586492 473.675715 
L 503.100665 473.104366 
L 503.780726 472.564728 
L 504.315201 472.108656 
L 504.552243 471.945733 
L 504.719778 471.830953 
L 505.029061 471.61795 
L 505.766165 471.409056 
L 506.625364 471.382929 
L 507.563471 471.642445 
L 508.422569 471.778214 
L 508.288347 471.397308 
L 508.098514 470.8653 
L 508.016671 470.258951 
L 507.944462 469.551621 
L 507.49272 467.526647 
L 507.296854 466.118878 
L 507.239734 465.18533 
L 507.409595 464.274613 
L 507.875417 462.958177 
L 508.320683 461.354985 
L 508.283843 460.552484 
L 508.43001 460.181737 
L 508.606059 459.222472 
L 508.64445 458.544871 
L 508.730493 457.827633 
L 508.794869 456.75305 
L 508.813345 456.616621 
L 508.94732 456.092466 
L 509.033566 455.712455 
L 509.158312 455.164833 
L 509.413044 454.315059 
L 509.559272 453.802903 
L 509.631703 453.45527 
L 509.805472 453.180922 
L 510.064326 452.519644 
L 510.239599 452.262275 
L 510.662553 451.505104 
L 510.96945 450.833453 
L 511.943555 449.447936 
L 512.464157 448.526655 
L 513.334171 447.159574 
L 513.784413 446.36774 
L 514.063109 446.011749 
L 514.376069 445.527059 
L 515.501432 444.398371 
L 516.206047 444.171764 
L 516.650953 443.999737 
L 516.943347 443.82451 
L 517.113148 443.840041 
L 518.099007 443.450182 
L 518.383104 443.12194 
L 518.642739 442.517732 
L 519.449968 440.903959 
L 520.137458 438.524267 
L 520.763896 436.805588 
L 521.454406 435.781516 
L 521.910635 435.407919 
L 522.299995 435.032316 
L 523.118145 434.482416 
L 524.316978 434.006374 
L 525.915315 433.510953 
L 528.556929 432.534797 
L 528.711345 432.572293 
L 528.925758 432.483781 
L 529.285909 432.161793 
L 529.920558 432.073922 
L 530.331011 431.81248 
L 530.544741 431.568652 
L 531.02972 431.319955 
L 531.246365 431.322027 
L 531.528449 431.154956 
L 532.542941 430.639898 
L 532.920409 430.301749 
L 533.732075 429.798135 
L 534.414943 429.449791 
L 534.842047 429.00488 
L 535.170707 428.695975 
L 535.659478 428.458519 
L 535.981796 427.885964 
L 536.464009 427.762968 
L 536.634694 427.575352 
L 536.87016 427.559694 
L 536.989085 427.290388 
L 537.3043 427.025811 
L 537.566037 426.838261 
L 537.767322 426.8176 
L 537.964916 426.623862 
L 538.212173 426.301802 
L 538.889922 425.59536 
L 539.628797 424.874728 
L 540.354971 424.163354 
L 541.655027 423.56452 
L 542.069607 423.460363 
L 542.455227 423.072145 
L 542.804827 423.008784 
L 543.187005 423.121983 
L 543.692579 423.109638 
L 544.426323 423.121768 
L 544.511942 423.186567 
L 544.835798 423.176396 
L 545.777187 422.893814 
L 546.368877 422.800191 
L 546.524852 422.82383 
L 546.596631 422.899024 
L 547.228882 422.981626 
L 547.507703 422.574395 
L 547.898484 422.477974 
L 548.217199 422.645869 
L 548.430136 422.546956 
L 550.154853 422.238002 
L 551.93044 422.800188 
L 553.337783 423.606506 
L 554.584153 424.351374 
L 556.963317 425.770555 
L 558.570357 427.045738 
L 562.016522 430.401922 
L 562.377215 430.884055 
L 563.421347 432.264435 
L 565.521251 432.086959 
L 567.859408 431.790642 
L 568.807527 431.293838 
L 569.460686 430.72512 
L 569.35709 430.587793 
L 568.840952 430.018391 
L 568.763738 429.933183 
L 568.920075 429.943336 
L 569.911864 430.082913 
L 570.415586 429.956181 
L 570.671123 429.892036 
L 571.248777 429.99661 
L 571.478798 430.083902 
L 572.112084 430.323826 
L 572.261029 430.401446 
L 573.242791 430.976285 
L 574.425566 431.846108 
L 574.552705 432.287578 
L 575.634229 432.534457 
L 575.760481 432.702998 
L 575.970551 432.762545 
L 576.455036 432.664714 
L 576.559304 432.457824 
L 576.250355 432.149183 
L 574.915276 431.713936 
L 574.75418 431.661406 
L 574.423225 431.462608 
L 574.128592 430.989009 
L 574.032108 430.224986 
L 574.943976 429.905487 
L 575.070008 429.861283 
L 575.966524 429.544883 
L 576.133622 429.527313 
L 577.237042 429.41228 
L 577.449837 429.407456 
L 578.759078 429.365516 
L 578.717001 429.150367 
L 578.467369 427.824601 
L 578.000177 427.061012 
L 577.95195 426.869382 
L 577.763171 426.182767 
L 577.700574 425.745986 
L 577.759435 425.23493 
L 577.986286 424.565651 
L 578.157586 424.217719 
L 578.443006 423.795568 
L 579.129654 422.780533 
L 579.79822 422.257347 
L 580.362934 421.814982 
L 580.98113 420.92286 
L 581.973897 420.010304 
L 582.606797 419.428504 
L 583.003458 418.802895 
L 583.42274 418.246714 
L 584.011436 417.679138 
L 584.452798 416.905607 
L 584.69525 416.477957 
L 585.024671 415.8978 
L 585.131569 415.76996 
L 585.140041 415.758006 
L 585.34737 415.50383 
L 585.739446 414.814682 
L 586.198056 413.924307 
L 586.968367 412.512793 
L 587.235391 412.112969 
L 587.542803 411.652643 
L 588.352436 410.700243 
L 589.118992 409.78017 
L 589.62659 408.521032 
L 590.017502 407.551257 
L 590.333976 407.241667 
L 591.54766 406.059939 
L 592.38613 404.76491 
L 593.035109 403.585599 
L 593.239016 403.218583 
L 593.311291 403.120564 
L 593.494867 402.871569 
L 593.973063 401.453596 
L 594.690539 400.523866 
L 594.807501 399.622826 
L 596.744143 396.717768 
L 597.650748 393.447408 
L 598.158656 391.238573 
L 598.479373 389.84362 
L 597.919377 388.496701 
L 596.675633 388.446857 
L 595.346574 388.467087 
L 595.007013 387.512467 
L 593.380629 387.894314 
L 593.170737 387.943568 
L 592.655974 388.061876 
L 592.541544 388.088198 
L 592.35851 388.132417 
L 592.091347 388.197013 
L 590.737836 388.514801 
L 590.504556 388.56957 
L 589.555785 388.792327 
L 589.619404 388.503231 
L 589.662409 388.307791 
L 589.674315 388.253704 
L 589.728433 388.007045 
L 589.767948 387.827054 
L 589.784437 387.751945 
L 589.805011 387.658175 
L 589.836083 387.517516 
L 589.880311 387.317349 
L 589.892576 387.261791 
L 589.942778 387.034676 
L 589.989707 386.822275 
L 590.014843 386.708524 
L 590.081135 386.446182 
L 590.132463 386.243187 
L 590.185869 386.031787 
L 590.246706 385.791061 
L 590.251122 385.773628 
L 590.28419 385.617778 
L 590.321443 385.442302 
L 590.37142 385.2069 
L 590.412996 385.010985 
L 590.453082 384.822076 
L 590.495334 384.623102 
L 590.548536 384.372449 
L 590.582881 384.210599 
L 590.634312 383.968346 
L 590.688613 383.712467 
L 590.72232 383.553637 
L 590.775205 383.304532 
L 590.833583 383.02953 
L 590.937613 382.539335 
L 590.996667 382.261236 
L 591.052457 381.998312 
L 591.077163 381.881986 
L 591.109656 381.736828 
L 591.166279 381.483877 
L 591.200409 381.33144 
L 591.252227 381.09994 
L 591.282227 380.965818 
L 591.33668 380.722585 
L 591.402735 380.427546 
L 591.450957 380.212037 
L 591.515874 379.922109 
L 591.577908 379.645036 
L 591.632717 379.400216 
L 591.691618 379.137044 
L 591.755145 378.853195 
L 591.821521 378.556685 
L 591.893626 378.234505 
L 591.907932 378.170503 
L 592.000797 377.878336 
L 592.100576 377.56441 
L 592.18842 377.288067 
L 592.283031 376.990315 
L 592.441034 376.493169 
L 592.497766 376.31468 
L 592.688045 375.715841 
L 592.723232 375.605033 
L 592.80191 375.357662 
L 592.939645 374.924202 
L 592.971966 374.846455 
L 593.743217 372.985086 
L 593.808388 371.365059 
L 593.623722 371.374948 
L 593.47563 371.381245 
L 592.683075 371.414832 
L 592.46146 371.42454 
L 589.931406 372.103582 
L 587.040844 372.860171 
L 584.207329 373.707087 
L 581.876017 372.293096 
L 579.46998 370.585062 
L 577.077279 368.936819 
L 576.415323 368.463247 
L 575.835232 368.048272 
L 575.482127 367.795577 
L 574.754418 367.275038 
L 572.389921 365.609221 
L 570.017519 363.884847 
L 569.962433 363.844817 
L 567.728565 364.454684 
L 567.616202 364.485341 
L 565.235518 365.135351 
L 563.964438 363.860011 
L 563.815835 363.710895 
L 563.780162 363.675103 
L 563.727574 363.622343 
L 563.655994 363.550532 
L 563.070115 361.41408 
L 563.001091 361.162792 
L 562.939724 361.164603 
L 562.876397 361.166489 
L 561.835811 361.210159 
L 561.341231 361.216701 
L 560.694475 361.235812 
L 560.54465 360.688371 
L 561.023322 359.285385 
L 561.712256 357.265852 
L 561.913337 356.238047 
L 562.400065 355.051678 
L 563.256186 355.299778 
L 564.165035 355.563774 
L 564.393696 355.63022 
L 564.622166 354.846638 
L 564.710335 354.543166 
L 564.791588 354.265387 
L 565.230243 352.760411 
L 565.454367 351.993413 
L 565.523423 351.757582 
L 565.535669 351.769236 
L 565.591094 351.859621 
L 565.625932 351.921458 
L 565.765099 352.079924 
L 565.941427 352.375498 
L 566.30047 352.879764 
L 566.350546 352.999746 
L 566.521728 353.419045 
L 566.627342 353.686714 
L 566.714055 353.906369 
L 567.275402 354.563444 
L 567.737628 356.216116 
L 567.902606 356.25002 
L 569.061224 355.678979 
L 569.90873 355.523209 
L 570.051461 355.500447 
L 571.759678 354.563582 
L 572.077749 354.354196 
L 572.276168 354.223529 
L 572.496088 353.98685 
L 577.006218 349.1331 
L 578.160697 347.910332 
L 578.513469 347.536707 
L 578.604478 347.423574 
L 579.030574 346.815087 
L 579.76814 345.761732 
L 580.143068 345.351961 
L 581.575223 344.106869 
L 582.058072 343.39494 
L 582.928079 342.11226 
L 583.226386 341.742908 
L 584.86858 339.709642 
L 586.30862 339.27113 
L 586.496667 339.081859 
L 586.939686 338.569645 
L 587.144929 338.194655 
L 587.428361 337.818445 
L 587.620722 337.563117 
L 588.546605 336.249374 
L 589.904281 335.248096 
L 590.007152 334.895512 
L 590.025718 334.809491 
L 590.042377 334.758635 
L 590.265523 333.966891 
L 590.306053 332.530366 
L 590.410223 332.303511 
L 590.529472 332.031922 
L 590.603688 331.862912 
L 590.74452 331.63474 
L 591.008136 331.207606 
L 591.269363 330.784448 
L 591.085741 330.557007 
L 590.716492 330.09977 
L 590.905639 329.489228 
L 590.950199 329.345319 
L 591.467176 328.900382 
L 591.577979 328.805022 
L 591.585375 328.767175 
L 591.722201 328.067265 
L 591.87605 327.87638 
L 591.99721 327.726036 
L 592.328456 327.314997 
L 593.570082 326.782908 
L 593.643731 326.751346 
L 594.277284 326.709798 
L 594.28433 327.085345 
L 594.285773 327.215081 
L 593.578271 328.777938 
L 593.056549 328.997403 
L 592.96355 329.283441 
L 592.790492 329.815987 
L 592.721947 330.026888 
L 592.70029 330.624185 
L 592.674628 331.330417 
L 592.661232 331.700279 
L 593.45512 332.355316 
L 594.145112 332.05492 
L 594.905401 331.581039 
L 595.818798 330.786723 
L 596.834235 330.229274 
L 597.250967 330.00049 
L 597.590543 329.465988 
L 597.778528 328.922341 
L 597.836997 328.747525 
L 598.001039 328.436301 
L 598.272697 327.941818 
L 598.566389 327.440807 
L 598.950302 326.781298 
L 599.404522 326.103056 
L 599.878431 325.392453 
L 599.977891 325.241001 
L 600.355241 324.502253 
L 600.875108 323.484409 
L 601.304849 322.643069 
L 601.327676 322.597077 
L 601.673585 321.899427 
L 601.749169 321.827536 
L 602.395858 321.212587 
L 603.000429 320.637732 
L 603.384021 320.4487 
L 603.63976 320.399868 
L 603.847001 320.456103 
L 605.474511 320.910247 
L 606.11365 320.797066 
L 606.507688 320.628599 
L 606.819827 320.495115 
L 608.012595 319.985171 
L 608.594059 319.736601 
L 609.328522 319.041394 
L 610.197259 318.187987 
L 611.125582 317.427799 
L 611.532041 316.707177 
L 611.627384 316.539725 
L 612.975052 314.182867 
L 614.010968 312.954776 
L 615.843914 312.507286 
L 616.744535 312.813678 
L 617.636093 312.931011 
L 617.866864 312.798927 
L 618.099383 312.669935 
L 618.333572 312.544037 
L 618.569394 312.421233 
L 618.806849 312.301602 
L 619.045823 312.185144 
L 619.286352 312.071859 
L 619.582304 311.861678 
L 619.969529 311.542158 
L 621.060693 310.512986 
L 621.421194 309.551731 
L 622.297198 308.247611 
L 622.636364 307.573683 
L 622.087024 306.44523 
L 621.653679 305.555101 
L 621.603992 305.60265 
L 621.530557 305.672952 
L 621.208023 305.926526 
L 620.912967 306.276207 
L 619.993357 306.533184 
L 619.234701 306.745133 
L 618.925414 306.764131 
L 617.918994 306.826004 
L 613.758286 307.081681 
L 613.679265 307.086531 
L 613.639158 307.088985 
L 613.212052 307.115273 
L 612.333444 307.169253 
L 612.273208 307.172957 
L 612.063173 307.064459 
L 611.935599 307.06811 
L 611.704271 307.035628 
L 611.523301 307.023451 
L 611.401234 306.971655 
L 611.307141 306.871154 
L 611.196538 306.815296 
L 611.025214 306.804875 
L 610.916814 306.872377 
L 610.861894 306.919638 
L 610.774427 306.867221 
L 610.679375 306.820725 
L 610.542411 306.79619 
L 610.392129 306.779607 
L 610.224614 306.76719 
L 610.033138 306.705073 
L 609.639029 306.602248 
L 609.359913 306.478077 
L 609.032429 306.337423 
L 608.784241 306.222338 
L 608.675732 306.176084 
L 608.550742 306.068427 
L 608.464198 305.96008 
L 608.327296 305.831427 
L 608.201651 305.687148 
L 608.087402 305.534952 
L 607.991212 305.424849 
L 607.901271 305.341628 
L 607.792313 305.270318 
L 607.654624 305.205308 
L 607.48985 305.131145 
L 607.405848 305.057458 
L 607.281994 305.013409 
L 607.125564 304.97573 
L 606.996322 304.952987 
L 606.827331 304.965665 
L 606.677771 304.989563 
L 606.50785 304.950199 
L 606.364738 304.904569 
L 606.245211 304.887436 
L 606.16331 304.931327 
L 606.129915 304.999412 
L 606.091442 305.10615 
L 606.044557 305.172548 
L 605.983319 305.189074 
L 605.909341 305.138345 
L 605.830588 305.035643 
L 605.777238 304.955621 
L 605.686821 304.953391 
L 605.616653 304.900665 
L 605.507418 304.813936 
L 605.423449 304.742178 
L 605.286828 304.736922 
L 605.157482 304.708398 
L 605.058306 304.646554 
L 605.066401 304.561571 
L 605.080469 304.48805 
L 604.990319 304.393266 
L 604.845621 304.258972 
L 604.725946 304.126156 
L 604.523465 303.879143 
L 604.365448 303.752801 
L 604.211895 303.661086 
L 604.116288 303.583753 
L 604.045015 303.469348 
L 603.941339 303.370951 
L 603.837766 303.278337 
L 603.729141 303.118329 
L 603.597414 302.95681 
L 603.485095 302.824248 
L 603.244497 302.577536 
L 603.142432 302.461758 
L 603.027867 302.292217 
L 602.931258 302.158988 
L 602.825382 302.045206 
L 602.725273 301.93132 
L 602.646275 301.815127 
L 602.619077 301.692217 
L 602.638118 301.57426 
L 602.684606 301.484432 
L 602.416142 301.061365 
L 601.94535 300.319571 
L 601.909336 300.2628 
L 601.884086 300.222995 
L 601.842417 300.254248 
L 601.000697 300.885666 
L 588.025566 310.62022 
L 586.234552 312.267669 
L 585.967241 312.567158 
L 585.696332 312.863319 
L 585.421789 313.156153 
L 585.143723 313.44558 
L 584.862097 313.731563 
L 584.577025 314.014061 
L 584.288545 314.293035 
L 583.996656 314.568484 
L 583.701395 314.840293 
L 583.402878 315.10846 
L 583.101103 315.372945 
L 582.796109 315.633672 
L 582.487971 315.890677 
L 582.176689 316.143844 
L 581.862378 316.393211 
L 581.544998 316.638662 
L 581.224664 316.880233 
L 580.901414 317.117809 
L 580.658924 317.291452 
L 580.413789 317.461325 
L 580.166087 317.62735 
L 579.915855 317.789565 
L 579.663169 317.947891 
L 579.408066 318.10229 
L 579.150624 318.252721 
L 578.890919 318.399182 
L 578.628949 318.541598 
L 578.364868 318.679926 
L 576.323667 319.738839 
L 575.302911 320.231441 
L 572.397078 321.628852 
L 572.08975 321.769671 
L 571.780819 321.906856 
L 571.470284 322.040369 
L 571.158183 322.170247 
L 570.844594 322.296412 
L 570.529592 322.418902 
L 570.326458 322.495145 
L 569.895312 322.6527 
L 566.408901 323.914603 
L 561.155 325.816428 
L 557.371344 327.318182 
L 556.989324 327.469797 
L 556.608635 327.62482 
L 556.229354 327.783174 
L 555.85144 327.944859 
L 555.125656 328.266525 
L 554.777584 328.426047 
L 554.08548 328.753658 
L 553.741449 328.921708 
L 553.398815 329.092587 
L 552.696105 329.454177 
L 552.347081 329.639404 
L 551.754273 329.962781 
L 551.509769 330.099439 
L 551.2661 330.237549 
L 550.994224 330.410494 
L 550.723655 330.585498 
L 550.454431 330.762599 
L 550.080306 331.013614 
L 549.708868 331.26859 
L 549.340195 331.527566 
L 548.974247 331.790427 
L 548.611141 332.057208 
L 547.893562 332.602375 
L 547.539166 332.880645 
L 547.187761 333.162717 
L 546.839349 333.448552 
L 546.494004 333.738073 
L 545.964918 334.195772 
L 545.780975 334.363529 
L 545.599975 334.534473 
L 545.421994 334.708561 
L 545.075273 335.065941 
L 544.90661 335.249153 
L 544.741193 335.435314 
L 544.579057 335.624307 
L 544.421482 335.814567 
L 544.267264 336.007542 
L 544.116363 336.203194 
L 543.968894 336.401444 
L 543.824892 336.602176 
L 543.547369 337.011083 
L 543.413959 337.219103 
L 543.284168 337.429408 
L 543.184109 337.629606 
L 543.088007 337.831775 
L 542.995901 338.035799 
L 542.907863 338.241561 
L 542.823856 338.449061 
L 542.743917 338.658184 
L 542.668158 338.86885 
L 542.596541 339.080983 
L 542.529101 339.294466 
L 542.461866 339.52337 
L 542.399462 339.753651 
L 542.341887 339.985194 
L 542.289179 340.21792 
L 542.241335 340.451675 
L 542.198431 340.686419 
L 542.160424 340.921961 
L 542.127393 341.158298 
L 542.099295 341.395278 
L 542.076166 341.632783 
L 542.058045 341.870737 
L 542.044889 342.108986 
L 542.036737 342.34749 
L 542.442585 347.513942 
L 542.425982 347.626231 
L 542.404132 347.737576 
L 542.37711 347.847781 
L 542.34491 347.956616 
L 542.307681 348.063769 
L 542.26542 348.169086 
L 542.218314 348.272255 
L 542.166398 348.373121 
L 542.109822 348.471412 
L 542.048696 348.566933 
L 541.983171 348.659449 
L 541.913359 348.748766 
L 541.839448 348.834726 
L 541.761588 348.917096 
L 541.67993 348.995678 
L 541.594702 349.070354 
L 541.506053 349.140889 
L 541.414213 349.207203 
L 541.258561 349.293273 
L 541.101116 349.375905 
L 540.941879 349.4551 
L 540.780923 349.53074 
L 540.618403 349.602822 
L 540.45432 349.671347 
L 540.288786 349.736274 
L 540.121878 349.797524 
L 526.511945 354.629481 
L 526.488161 354.695475 
L 526.437754 354.777384 
L 526.379131 354.830522 
L 526.320332 354.874023 
L 526.259505 354.911776 
L 526.181135 354.936356 
L 526.112234 354.953049 
L 526.039383 354.964031 
L 525.951016 354.967585 
L 525.895144 354.960901 
L 525.827917 354.964067 
L 525.755066 354.975048 
L 525.655699 355.007727 
L 525.56028 355.046118 
L 525.470239 355.0632 
L 525.384112 355.084067 
L 525.284745 355.116746 
L 525.158472 355.149921 
L 525.018606 355.175633 
L 524.850196 355.217296 
L 524.706734 355.256572 
L 524.632173 355.279154 
L 524.538571 355.311728 
L 524.454789 355.355689 
L 524.356057 355.423063 
L 524.30484 355.460641 
L 524.228816 355.508316 
L 524.121973 355.552702 
L 523.995737 355.587805 
L 523.888718 355.622554 
L 523.784079 355.682325 
L 523.694533 355.726393 
L 523.604739 355.756968 
L 523.493736 355.784078 
L 523.405617 355.801126 
L 523.29479 355.837874 
L 523.17328 355.921094 
L 523.114976 355.99158 
L 523.049514 356.09112 
L 522.975907 356.165745 
L 522.909599 356.219026 
L 522.83183 356.276374 
L 522.714305 356.367233 
L 522.604361 356.452168 
L 522.523102 356.528862 
L 522.457465 356.618765 
L 522.424426 356.704211 
L 522.407872 356.745007 
L 522.397365 356.801116 
L 522.371908 356.880638 
L 522.310503 356.991673 
L 522.218278 357.099419 
L 522.155814 357.152629 
L 522.044302 357.256874 
L 521.966746 357.325788 
L 521.881715 357.406408 
L 521.791449 357.516046 
L 521.726129 357.623297 
L 521.655151 357.736436 
L 521.599158 357.82809 
L 521.520846 357.960646 
L 521.485993 358.05191 
L 521.425401 358.207276 
L 521.396489 358.308072 
L 521.382951 358.408584 
L 521.378846 358.499281 
L 521.378619 358.591836 
L 521.386467 358.70545 
L 521.418451 358.772345 
L 521.448866 358.85855 
L 521.479881 358.977523 
L 521.481046 359.041129 
L 521.472532 359.101058 
L 521.38895 359.260705 
L 521.337049 359.36578 
L 521.298741 359.478317 
L 521.271716 359.57715 
L 521.158869 359.818317 
L 521.056565 360.005303 
L 520.961453 360.165162 
L 520.860788 360.336693 
L 520.791451 360.434377 
L 520.735106 360.506757 
L 520.682711 360.584847 
L 520.636893 360.707164 
L 520.615386 360.792398 
L 520.590319 360.893123 
L 520.576676 360.987852 
L 520.561076 361.08069 
L 520.523157 361.214429 
L 520.484956 361.332749 
L 520.448288 361.429832 
L 520.396529 361.542617 
L 520.344346 361.632273 
L 520.286751 361.74131 
L 520.221328 361.842778 
L 520.186123 361.914768 
L 520.11721 362.035582 
L 520.064992 362.123311 
L 520.022559 362.220499 
L 519.970589 362.32172 
L 519.920045 362.395921 
L 519.857901 362.466479 
L 519.775678 362.595252 
L 519.713923 362.687012 
L 519.646155 362.765387 
L 519.552084 362.877025 
L 519.510514 362.916354 
L 519.460218 363.004047 
L 519.427853 363.126116 
L 519.387449 363.229051 
L 519.348824 363.324242 
L 519.304577 363.427248 
L 519.260435 363.536037 
L 519.224015 363.646612 
L 519.193148 363.745516 
L 519.141037 363.839027 
L 519.076075 363.965553 
L 519.035706 364.070417 
L 519.006938 364.178922 
L 518.982084 364.291212 
L 518.94392 364.41146 
L 518.920281 364.485164 
L 518.858795 364.696464 
L 518.833164 364.766349 
L 518.786712 364.853972 
L 518.738834 364.968614 
L 518.710031 365.075192 
L 518.681934 365.22032 
L 518.645586 365.33475 
L 518.614826 365.439436 
L 518.557445 365.560038 
L 518.497436 365.642127 
L 518.410665 365.732421 
L 518.307095 365.850019 
L 518.18163 366.031649 
L 518.114642 366.152429 
L 518.063168 366.280635 
L 518.024969 366.398955 
L 517.992394 366.509459 
L 517.955834 366.612324 
L 517.884862 366.725465 
L 517.783178 366.8411 
L 517.685832 366.98365 
L 517.634147 367.100291 
L 517.618655 367.198911 
L 517.591373 367.388371 
L 517.580184 367.511977 
L 517.573911 367.589218 
L 517.565929 367.678059 
L 517.5751 367.758871 
L 517.58815 367.84154 
L 517.595364 367.92046 
L 517.591331 368.015013 
L 517.567763 368.092573 
L 517.511493 368.168808 
L 517.445473 368.23751 
L 517.383579 368.321562 
L 517.323748 368.413288 
L 517.259685 368.483882 
L 517.168755 368.556901 
L 517.071388 368.593404 
L 516.910572 368.62915 
L 516.712962 368.650149 
L 516.310529 368.61323 
L 516.037445 368.606702 
L 515.781691 368.601782 
L 515.53366 368.598648 
L 515.146587 368.665566 
L 514.970929 368.73051 
L 514.756556 368.780743 
L 514.555209 368.807599 
L 514.302085 368.841195 
L 513.95242 368.851509 
L 513.688697 368.831314 
L 513.449307 368.880083 
L 513.190949 368.9427 
L 512.639822 369.07821 
L 512.440115 369.089612 
L 512.192367 369.101903 
L 511.927572 369.128006 
L 511.644305 369.194941 
L 511.413559 369.295612 
L 511.310995 369.363064 
L 511.183876 369.454107 
L 511.017394 369.599866 
L 510.909703 369.702119 
L 510.792263 369.796841 
L 510.659263 369.986328 
L 510.537865 370.179457 
L 510.311699 370.424654 
L 510.105361 370.598144 
L 509.993135 370.642741 
L 509.816898 370.696028 
L 509.711741 370.726895 
L 509.564557 370.772035 
L 509.395349 370.76938 
L 509.235537 370.754983 
L 509.044979 370.741154 
L 508.973809 370.738614 
L 508.935093 370.723905 
L 508.871255 370.701948 
L 508.805672 370.689664 
L 508.7503 370.70997 
L 508.700834 370.737879 
L 508.647277 370.752366 
L 508.587708 370.753468 
L 508.527925 370.743005 
L 508.462272 370.726867 
L 508.392633 370.703089 
L 508.365305 370.680457 
L 508.339509 370.636587 
L 508.311827 370.594681 
L 508.279053 370.589503 
L 508.217739 370.600278 
L 508.131054 370.590313 
L 508.069421 370.58374 
L 507.980708 370.568028 
L 507.930073 370.532331 
L 507.881217 370.488888 
L 507.855492 370.448873 
L 507.823612 370.387763 
L 507.784294 370.340287 
L 507.743266 370.304412 
L 507.706082 370.268465 
L 507.654951 370.205783 
L 507.609938 370.162269 
L 507.304183 370.2459 
L 506.776737 370.374665 
L 495.115579 373.221508 
L 492.197906 373.933935 
L 486.851543 375.239534 
L 485.515835 375.565768 
L 485.444469 375.573344 
L 485.336399 375.55029 
L 485.24708 375.501822 
L 485.149897 375.44386 
L 485.083779 375.402673 
L 484.992324 375.342676 
L 484.894962 375.275076 
L 484.824573 375.210831 
L 484.778879 375.1307 
L 484.72322 375.031474 
L 484.667276 374.916828 
L 484.628269 374.782586 
L 484.605669 374.703953 
L 484.571218 374.608189 
L 484.532925 374.512495 
L 484.494845 374.428367 
L 484.450751 374.330854 
L 484.404236 374.206392 
L 484.361635 374.085713 
L 484.329462 374.009187 
L 484.263481 373.871591 
L 484.207644 373.762727 
L 484.154369 373.688523 
L 484.072272 373.614855 
L 483.957293 373.530231 
L 483.84758 373.418515 
L 483.766797 373.312045 
L 483.703308 373.205252 
L 483.655513 373.115521 
L 483.593802 373.000983 
L 483.540171 372.907504 
L 483.47871 372.806458 
L 483.399706 372.692242 
L 483.319136 372.597337 
L 483.231309 372.525704 
L 483.156932 372.453821 
L 483.076684 372.376263 
L 483.014265 372.327295 
L 482.944231 372.282325 
L 482.856653 372.224185 
L 482.751603 372.15673 
L 482.652281 372.08724 
L 482.574454 372.036631 
L 482.509827 371.972279 
L 482.462281 371.896039 
L 482.402849 371.800741 
L 482.334272 371.730678 
L 482.232564 371.636167 
L 482.158401 371.575849 
L 482.086624 371.540553 
L 482.00421 371.553657 
L 481.913431 371.530284 
L 481.816673 371.495453 
L 481.770626 371.500167 
L 481.696684 371.555533 
L 481.589289 371.569104 
L 481.475308 371.538451 
L 481.372892 371.50951 
L 481.261119 371.49424 
L 481.134151 371.488895 
L 481.026006 371.461989 
L 480.817367 371.406107 
L 480.708901 371.361855 
L 480.619686 371.319171 
L 480.505526 371.278881 
L 480.393609 371.255902 
L 480.303259 371.255659 
L 480.215008 371.265017 
L 480.140245 371.276052 
L 480.028864 371.281986 
L 479.943778 371.25465 
L 479.852105 371.183091 
L 479.781677 371.11692 
L 479.528154 370.921123 
L 479.467334 370.854773 
L 479.400749 370.788531 
L 479.311069 370.720791 
L 479.221246 370.645341 
L 478.953171 370.494163 
L 478.701817 370.311824 
L 478.529571 370.145362 
L 478.393871 369.980147 
L 478.278065 369.851195 
L 478.168775 369.762612 
L 477.918669 369.558462 
L 477.847505 369.467069 
L 476.827087 368.433333 
L 469.54597 361.057353 
L 463.474065 354.88784 
L 463.40048 354.813076 
L 463.161194 354.569956 
L 462.823814 354.209124 
L 462.729728 354.058372 
L 462.648618 353.996718 
L 462.435112 353.685671 
L 462.389439 353.33715 
L 462.193526 353.206277 
L 462.09091 353.084762 
L 461.880914 352.757291 
L 461.835732 352.59201 
L 461.886916 352.540842 
L 461.822052 352.293214 
L 461.814924 352.247034 
L 461.766008 351.887583 
L 461.649693 351.519987 
L 461.653093 351.404998 
L 461.632855 351.337288 
L 461.43473 350.674444 
L 456.9207 335.574102 
L 456.48108 334.103596 
L 456.37257 333.749469 
L 456.343374 333.65415 
L 456.31119 333.549132 
L 455.965674 332.421532 
L 455.783046 331.825506 
L 455.759492 331.754376 
L 453.435257 324.235178 
L 453.356117 324.002591 
L 453.273232 323.771307 
L 453.186681 323.541365 
L 453.096427 323.312881 
L 453.002546 323.085853 
L 452.905041 322.860398 
L 452.803951 322.636514 
L 451.493758 319.660393 
L 451.289833 319.2164 
L 451.0816 318.774454 
L 450.869022 318.334596 
L 450.652136 317.896863 
L 450.430944 317.461255 
L 449.975837 316.596718 
L 449.775301 316.229061 
L 449.503822 315.741332 
L 449.261572 315.317188 
L 449.015136 314.895438 
L 448.764592 314.476156 
L 446.985013 311.442069 
L 446.894548 311.291372 
L 446.800851 311.142665 
L 446.703924 310.996062 
L 446.603846 310.85164 
L 446.500617 310.709398 
L 446.394316 310.569488 
L 446.382692 310.554552 
L 446.359328 310.524759 
L 446.344709 310.508028 
L 446.33009 310.491297 
L 446.315432 310.474567 
L 446.160152 310.300604 
L 446.002149 310.129122 
L 445.841462 309.96012 
L 445.678169 309.793673 
L 445.512272 309.62986 
L 445.343846 309.468639 
L 445.144214 309.283943 
L 444.941228 309.102974 
L 444.734967 308.925769 
L 444.525508 308.752365 
L 444.312929 308.582837 
L 444.097269 308.417224 
L 443.878607 308.255602 
L 443.65706 308.098044 
L 443.432667 307.944589 
L 443.205504 307.795275 
L 442.975651 307.650138 
L 442.714918 307.505158 
L 442.452327 307.363608 
L 442.187916 307.225562 
L 441.921685 307.090984 
L 441.653751 306.959947 
L 441.384114 306.832413 
L 439.294685 305.910373 
L 437.799434 305.013622 
L 436.980806 304.182006 
L 434.232191 301.389801 
L 432.598316 299.730166 
L 432.480455 299.61042 
L 422.741894 289.622065 
L 421.913014 288.771968 
L 421.864734 288.722481 
L 421.823358 288.680114 
L 421.09264 287.93278 
L 420.566755 287.394892 
L 419.909192 286.727542 
L 418.784393 285.585984 
L 417.348653 284.128915 
L 415.361708 282.142254 
L 414.152094 280.879242 
L 409.951448 276.595688 
L 409.280153 275.928327 
L 409.142351 275.780824 
L 409.007952 275.63021 
L 408.876994 275.476523 
L 408.749636 275.319913 
L 408.625837 275.160383 
L 408.505717 274.998083 
L 408.389352 274.833051 
L 408.276785 274.665402 
L 408.168054 274.495212 
L 408.063239 274.322556 
L 407.962418 274.147588 
L 407.865592 273.970307 
L 407.77284 273.790867 
L 407.684203 273.609343 
L 407.256017 272.612242 
L 407.194689 272.44088 
L 407.137451 272.26813 
L 407.084419 272.094026 
L 407.035555 271.918687 
L 406.990902 271.742226 
L 406.950499 271.564759 
L 406.914348 271.386362 
L 406.88249 271.207152 
L 406.854964 271.027203 
L 406.52984 268.644209 
L 406.510358 268.499006 
L 406.487614 268.35429 
L 406.461534 268.210099 
L 406.432236 268.066587 
L 406.399642 267.923755 
L 406.142039 266.829433 
L 405.898742 265.796038 
L 405.687076 264.598883 
L 405.628566 264.267819 
L 405.379051 263.040574 
L 405.308229 262.719616 
L 405.233883 262.39942 
L 405.156091 262.0801 
L 405.074814 261.761617 
L 404.990092 261.444048 
L 404.901926 261.127431 
L 404.856661 260.959582 
L 404.807304 260.792929 
L 404.753854 260.62755 
L 404.696352 260.46352 
L 404.634839 260.300955 
L 404.569317 260.140009 
L 404.499825 259.980681 
L 404.426482 259.823161 
L 404.304548 259.559788 
L 404.178267 259.298464 
L 404.047757 259.039264 
L 403.941764 258.837097 
L 403.77405 258.527508 
L 403.630933 258.275066 
L 403.483707 258.025016 
L 403.332372 257.777436 
L 403.177008 257.5324 
L 403.085163 257.375079 
L 402.989781 257.21987 
L 402.89094 257.066886 
L 402.788641 256.916166 
L 402.682964 256.767824 
L 402.573947 256.621899 
L 402.46167 256.478542 
L 402.346171 256.337714 
L 402.22753 256.199569 
L 402.105787 256.064182 
L 401.729261 255.687198 
L 400.922523 254.879613 
L 400.772431 254.726219 
L 400.619129 254.575971 
L 400.428351 254.397964 
L 400.303362 254.28533 
L 400.141015 254.145012 
L 399.975771 254.008142 
L 399.807706 253.87472 
L 399.636902 253.744898 
L 399.463396 253.618675 
L 399.287342 253.496088 
L 399.163034 253.400085 
L 399.035912 253.307839 
L 398.906131 253.219384 
L 398.77377 253.134873 
L 398.638983 253.054303 
L 398.501849 252.977789 
L 398.362524 252.905366 
L 398.221123 252.837147 
L 398.077764 252.77313 
L 397.932564 252.713468 
L 397.785675 252.65808 
L 397.637178 252.607157 
L 397.487264 252.560619 
L 397.336051 252.518579 
L 397.183924 252.481107 
L 397.030729 252.448206 
L 396.876659 252.419834 
L 396.721792 252.396066 
L 396.566281 252.376899 
L 396.410319 252.362369 
L 396.253946 252.352474 
L 396.097391 252.347248 
L 395.940733 252.346653 
L 395.784124 252.350684 
L 395.627681 252.359416 
L 395.471595 252.37277 
L 392.296128 252.716012 
L 390.902136 252.866712 
L 390.616199 252.897282 
L 389.022425 253.067472 
L 373.832361 254.690655 
L 373.670228 254.703449 
L 373.507769 254.711236 
L 373.345173 254.713935 
L 373.18256 254.711622 
L 373.020079 254.704215 
L 372.857926 254.69179 
L 372.696215 254.674343 
L 372.535138 254.651833 
L 372.374813 254.624372 
L 372.215431 254.591918 
L 372.057148 254.554546 
L 371.900078 254.512254 
L 371.744377 254.465115 
L 371.590238 254.413164 
L 371.437739 254.356439 
L 371.287112 254.295012 
L 371.138436 254.228958 
L 370.991863 254.158275 
L 359.14703 248.881757 
L 357.501164 248.148616 
L 356.767338 247.821805 
L 354.612599 246.860193 
L 352.323574 246.004509 
L 349.587859 244.607972 
L 340.151179 237.535194 
L 339.894094 237.361132 
L 339.63413 237.191406 
L 339.371328 237.026132 
L 339.105765 236.865346 
L 338.837556 236.709047 
L 338.566742 236.55731 
L 338.293401 236.410212 
L 338.017609 236.267713 
L 337.739484 236.129924 
L 337.459064 235.996847 
L 337.176466 235.868556 
L 336.891729 235.74505 
L 336.604969 235.626404 
L 336.316226 235.512617 
L 336.025614 235.403726 
L 335.726776 235.346977 
L 335.426961 235.295416 
L 335.12636 235.248998 
L 334.824974 235.207803 
L 334.52292 235.171826 
L 334.220313 235.141067 
L 333.91723 235.115524 
L 333.613709 235.095234 
L 333.309905 235.080195 
L 333.005894 235.070405 
L 332.701793 235.065861 
L 332.397601 235.066564 
L 332.09351 235.07251 
L 331.78952 235.0837 
L 331.485825 235.100167 
L 331.182424 235.121873 
L 330.879431 235.148778 
L 330.576964 235.180957 
L 327.822082 235.543331 
L 327.490908 235.581209 
L 327.389835 235.59277 
L 326.957998 235.645556 
L 326.526573 235.701652 
L 326.095597 235.761095 
L 325.66507 235.823809 
L 325.235069 235.889868 
L 324.805556 235.959235 
L 324.472044 236.027196 
L 324.13959 236.100112 
L 323.808272 236.17802 
L 323.478165 236.260841 
L 323.149269 236.348575 
L 322.821778 236.441256 
L 322.49565 236.538771 
L 322.171041 236.641192 
L 321.847949 236.748405 
L 321.526529 236.860483 
L 321.206818 236.977311 
L 320.888853 237.098925 
L 320.572751 237.225246 
L 320.324714 237.328713 
L 319.946323 237.492047 
L 319.553045 237.654002 
L 319.158191 237.812056 
L 318.7618 237.966169 
L 318.36387 238.116302 
L 317.964479 238.262492 
L 317.563664 238.404662 
L 317.161464 238.542849 
L 317.020304 238.594076 
L 316.877718 238.641244 
L 316.73382 238.684233 
L 316.588764 238.723081 
L 316.442666 238.757746 
L 316.2956 238.788149 
L 316.147759 238.814325 
L 315.999182 238.836236 
L 315.850058 238.8538 
L 315.700505 238.867092 
L 315.550638 238.876071 
L 315.294988 238.885881 
L 315.039262 238.891759 
L 314.783459 238.893705 
L 314.52762 238.891758 
L 314.271897 238.885915 
L 314.016251 238.876136 
L 313.760798 238.862421 
L 313.505578 238.844845 
L 313.250666 238.823331 
L 312.972564 238.794364 
L 312.695022 238.760566 
L 312.418117 238.721936 
L 312.141926 238.678472 
L 311.866488 238.630212 
L 311.591995 238.577152 
L 311.318409 238.519293 
L 311.045884 238.456671 
L 310.774498 238.389322 
L 310.504329 238.317245 
L 310.235452 238.240438 
L 309.967946 238.158977 
L 309.701888 238.072861 
L 309.437355 237.982089 
L 309.140536 237.875095 
L 308.845139 237.764103 
L 308.551281 237.649186 
L 308.258925 237.530384 
L 307.968223 237.407655 
L 307.679176 237.281038 
L 307.391824 237.15057 
L 307.106243 237.016289 
L 306.802972 236.86855 
L 306.501886 236.716448 
L 306.202948 236.560102 
L 305.906272 236.399471 
L 305.6119 236.23463 
L 305.319908 236.065616 
L 305.030373 235.892429 
L 304.840116 235.77491 
L 304.458795 235.533724 
L 304.176907 235.348279 
L 303.897672 235.15885 
L 303.62008 234.960944 
L 303.344621 234.760027 
L 303.071336 234.556137 
L 302.800262 234.349312 
L 302.531439 234.139552 
L 302.264906 233.926931 
L 302.000664 233.711413 
L 301.73875 233.493034 
L 301.543145 233.328925 
L 301.349005 233.163053 
L 301.156332 232.995455 
L 300.965202 232.826131 
L 300.696491 232.582859 
L 300.430868 232.336211 
L 300.168411 232.086224 
L 299.90912 231.832897 
L 299.653033 231.576268 
L 299.40027 231.316451 
L 299.15079 231.053408 
L 298.904634 230.787215 
L 298.661918 230.517909 
L 298.422604 230.245566 
L 298.18677 229.970187 
L 297.954416 229.691808 
L 297.77124 229.441465 
L 297.592503 229.187911 
L 297.41832 228.931184 
L 297.248694 228.671436 
L 297.083665 228.408706 
L 296.92335 228.143068 
L 296.767751 227.874639 
L 296.616945 227.603455 
L 296.470974 227.329631 
L 296.329839 227.053283 
L 296.193656 226.774447 
L 296.062429 226.493239 
L 295.936197 226.209735 
L 295.815 225.924011 
L 295.698879 225.636221 
L 295.587873 225.346364 
L 295.482023 225.054593 
L 295.38137 224.760985 
L 295.285915 224.465656 
L 295.225961 224.291835 
L 295.170212 224.116582 
L 295.118708 223.94005 
L 295.071489 223.762316 
L 295.028558 223.583495 
L 294.989957 223.403702 
L 294.955723 223.223013 
L 294.925822 223.041546 
L 294.900333 222.859413 
L 294.879257 222.676693 
L 294.862559 222.493539 
L 294.831609 222.193396 
L 294.805114 221.892819 
L 294.783075 221.591923 
L 294.765455 221.29067 
L 294.752332 220.989252 
L 294.743631 220.687631 
L 294.739429 220.385922 
L 294.740262 220.125299 
L 294.745214 219.86475 
L 294.754285 219.604312 
L 294.767476 219.344025 
L 294.78475 219.084005 
L 294.806109 218.824291 
L 294.831592 218.56492 
L 294.861163 218.306008 
L 294.894821 218.047595 
L 294.972643 217.672588 
L 295.357174 215.474259 
L 295.456901 214.717592 
L 295.517553 214.186397 
L 295.635839 212.703502 
L 295.668068 211.654813 
L 295.646479 210.888419 
L 295.627883 210.600258 
L 295.603985 210.312509 
L 295.574787 210.025251 
L 295.540289 209.738559 
L 295.500534 209.452587 
L 295.455483 209.167374 
L 295.405179 208.883075 
L 295.349622 208.599727 
L 295.288853 208.317484 
L 295.222911 208.036383 
L 295.151762 207.756581 
L 295.075483 207.478151 
L 294.994076 207.201172 
L 294.907542 206.925721 
L 294.816 206.651948 
L 294.719374 206.379896 
L 294.617744 206.109715 
L 294.511186 205.841444 
L 294.399666 205.575198 
L 294.283261 205.311053 
L 294.162012 205.049124 
L 294.035921 204.789489 
L 293.900426 204.527146 
L 293.760132 204.267327 
L 293.615079 204.010147 
L 293.465308 203.75572 
L 293.310896 203.504083 
L 293.151847 203.255353 
L 292.988238 203.009605 
L 292.820147 202.766914 
L 292.647616 202.527396 
L 292.470723 202.291126 
L 292.289469 202.058142 
L 292.103971 201.828558 
L 291.914269 201.60245 
L 291.720442 201.379894 
L 291.522528 201.160928 
L 291.320648 200.945703 
L 291.114799 200.73422 
L 290.665154 200.194924 
L 290.514616 200.005917 
L 290.367943 199.813864 
L 290.225253 199.61888 
L 290.086547 199.421003 
L 289.951864 199.220308 
L 289.821322 199.01691 
L 289.694963 198.810924 
L 289.572823 198.602348 
L 289.490809 198.455534 
L 289.341408 198.177963 
L 289.232213 197.962308 
L 289.127438 197.744444 
L 289.027162 197.524487 
L 288.93135 197.302553 
L 288.840079 197.078678 
L 288.759482 196.869325 
L 288.682895 196.658466 
L 288.610282 196.446179 
L 288.541683 196.23254 
L 288.477139 196.017666 
L 288.41669 195.801631 
L 288.360296 195.584436 
L 288.308039 195.366235 
L 288.259919 195.147065 
L 288.215937 194.927043 
L 288.170155 194.697608 
L 288.12038 194.344775 
L 288.075401 193.991268 
L 288.03526 193.637204 
L 288.01263 193.410154 
L 287.999919 193.282621 
L 287.969379 192.927597 
L 287.94368 192.572169 
L 287.922786 192.216454 
L 287.906773 191.86045 
L 287.895567 191.504313 
L 287.889207 191.148003 
L 287.895954 189.218505 
L 287.893613 188.961377 
L 287.886234 188.704348 
L 287.873778 188.447495 
L 287.856286 188.190935 
L 287.833723 187.934783 
L 287.806127 187.679115 
L 287.773504 187.424087 
L 287.735851 187.169696 
L 287.693211 186.916137 
L 287.661445 186.747591 
L 287.645586 186.663447 
L 287.592978 186.411781 
L 287.535426 186.161175 
L 287.472972 185.911785 
L 287.405617 185.663647 
L 287.333362 185.416879 
L 287.256288 185.171632 
L 287.174356 184.927908 
L 287.087686 184.685897 
L 286.980884 184.396463 
L 286.869077 184.108941 
L 286.752344 183.823367 
L 286.630725 183.539855 
L 286.504221 183.258484 
L 286.372913 182.979366 
L 286.2368 182.702542 
L 286.095961 182.428124 
L 285.950399 182.15619 
L 285.800154 181.886816 
L 285.64534 181.620038 
L 285.485924 181.356013 
L 285.321982 181.094776 
L 285.153555 180.836442 
L 284.980721 180.58101 
L 284.80352 180.328634 
L 284.621992 180.07935 
L 284.436217 179.833274 
L 284.246193 179.590406 
L 284.0201 179.301895 
L 283.789914 179.016627 
L 283.555712 178.734678 
L 283.317534 178.456085 
L 283.075383 178.180926 
L 282.829373 177.909275 
L 282.579507 177.641132 
L 282.325862 177.376612 
L 282.068479 177.115752 
L 281.807395 176.858552 
L 281.542689 176.605125 
L 281.274402 176.35551 
L 281.00261 176.109743 
L 280.727354 175.867901 
L 280.448673 175.629984 
L 280.240297 175.466341 
L 280.029633 175.305713 
L 279.816681 175.148139 
L 279.601518 174.993616 
L 279.384145 174.842183 
L 279.164639 174.693878 
L 278.943078 174.548737 
L 278.719423 174.406761 
L 278.634411 174.353947 
L 278.509273 174.290086 
L 276.658774 173.345342 
L 273.63673 171.802527 
L 271.988807 170.311601 
L 267.983289 170.973063 
L 264.482281 171.554458 
L 264.017912 171.634929 
L 263.478024 171.728489 
L 260.860958 172.232791 
L 260.019084 172.529506 
L 251.625876 174.246624 
L 247.786567 175.032204 
L 243.504639 175.882236 
L 243.203004 175.991547 
L 242.966922 176.107382 
L 242.485307 176.40769 
L 242.199376 176.536511 
L 241.676997 176.653804 
L 239.482973 177.098386 
" clip-path="url(#p564308ef94)" style="fill: #d3d3d3"/>
   </g>
   <g id="matplotlib.axis_1">
    <g id="xtick_1">
     <g id="line2d_1">
      <defs>
       <path id="m41959925e4" d="M 0 0 
L 0 3.5 
" style="stroke: #000000; stroke-width: 0.8"/>
      </defs>
      <g>
       <use xlink:href="#m41959925e4" x="138.952631" y="576.217239" style="stroke: #000000; stroke-width: 0.8"/>
      </g>
     </g>
     <g id="text_1">
      <!-- 13.525 -->
      <g transform="translate(121.457319 590.815676) scale(0.1 -0.1)">
       <defs>
        <path id="DejaVuSans-31" d="M 794 531 
L 1825 531 
L 1825 4091 
L 703 3866 
L 703 4441 
L 1819 4666 
L 2450 4666 
L 2450 531 
L 3481 531 
L 3481 0 
L 794 0 
L 794 531 
z
" transform="scale(0.015625)"/>
        <path id="DejaVuSans-33" d="M 2597 2516 
Q 3050 2419 3304 2112 
Q 3559 1806 3559 1356 
Q 3559 666 3084 287 
Q 2609 -91 1734 -91 
Q 1441 -91 1130 -33 
Q 819 25 488 141 
L 488 750 
Q 750 597 1062 519 
Q 1375 441 1716 441 
Q 2309 441 2620 675 
Q 2931 909 2931 1356 
Q 2931 1769 2642 2001 
Q 2353 2234 1838 2234 
L 1294 2234 
L 1294 2753 
L 1863 2753 
Q 2328 2753 2575 2939 
Q 2822 3125 2822 3475 
Q 2822 3834 2567 4026 
Q 2313 4219 1838 4219 
Q 1578 4219 1281 4162 
Q 984 4106 628 3988 
L 628 4550 
Q 988 4650 1302 4700 
Q 1616 4750 1894 4750 
Q 2613 4750 3031 4423 
Q 3450 4097 3450 3541 
Q 3450 3153 3228 2886 
Q 3006 2619 2597 2516 
z
" transform="scale(0.015625)"/>
        <path id="DejaVuSans-2e" d="M 684 794 
L 1344 794 
L 1344 0 
L 684 0 
L 684 794 
z
" transform="scale(0.015625)"/>
        <path id="DejaVuSans-35" d="M 691 4666 
L 3169 4666 
L 3169 4134 
L 1269 4134 
L 1269 2991 
Q 1406 3038 1543 3061 
Q 1681 3084 1819 3084 
Q 2600 3084 3056 2656 
Q 3513 2228 3513 1497 
Q 3513 744 3044 326 
Q 2575 -91 1722 -91 
Q 1428 -91 1123 -41 
Q 819 9 494 109 
L 494 744 
Q 775 591 1075 516 
Q 1375 441 1709 441 
Q 2250 441 2565 725 
Q 2881 1009 2881 1497 
Q 2881 1984 2565 2268 
Q 2250 2553 1709 2553 
Q 1456 2553 1204 2497 
Q 953 2441 691 2322 
L 691 4666 
z
" transform="scale(0.015625)"/>
        <path id="DejaVuSans-32" d="M 1228 531 
L 3431 531 
L 3431 0 
L 469 0 
L 469 531 
Q 828 903 1448 1529 
Q 2069 2156 2228 2338 
Q 2531 2678 2651 2914 
Q 2772 3150 2772 3378 
Q 2772 3750 2511 3984 
Q 2250 4219 1831 4219 
Q 1534 4219 1204 4116 
Q 875 4013 500 3803 
L 500 4441 
Q 881 4594 1212 4672 
Q 1544 4750 1819 4750 
Q 2544 4750 2975 4387 
Q 3406 4025 3406 3419 
Q 3406 3131 3298 2873 
Q 3191 2616 2906 2266 
Q 2828 2175 2409 1742 
Q 1991 1309 1228 531 
z
" transform="scale(0.015625)"/>
       </defs>
       <use xlink:href="#DejaVuSans-31"/>
       <use xlink:href="#DejaVuSans-33" x="63.623047"/>
       <use xlink:href="#DejaVuSans-2e" x="127.246094"/>
       <use xlink:href="#DejaVuSans-35" x="159.033203"/>
       <use xlink:href="#DejaVuSans-32" x="222.65625"/>
       <use xlink:href="#DejaVuSans-35" x="286.279297"/>
      </g>
     </g>
    </g>
    <g id="xtick_2">
     <g id="line2d_2">
      <g>
       <use xlink:href="#m41959925e4" x="204.367639" y="576.217239" style="stroke: #000000; stroke-width: 0.8"/>
      </g>
     </g>
     <g id="text_2">
      <!-- 13.550 -->
      <g transform="translate(186.872327 590.815676) scale(0.1 -0.1)">
       <defs>
        <path id="DejaVuSans-30" d="M 2034 4250 
Q 1547 4250 1301 3770 
Q 1056 3291 1056 2328 
Q 1056 1369 1301 889 
Q 1547 409 2034 409 
Q 2525 409 2770 889 
Q 3016 1369 3016 2328 
Q 3016 3291 2770 3770 
Q 2525 4250 2034 4250 
z
M 2034 4750 
Q 2819 4750 3233 4129 
Q 3647 3509 3647 2328 
Q 3647 1150 3233 529 
Q 2819 -91 2034 -91 
Q 1250 -91 836 529 
Q 422 1150 422 2328 
Q 422 3509 836 4129 
Q 1250 4750 2034 4750 
z
" transform="scale(0.015625)"/>
       </defs>
       <use xlink:href="#DejaVuSans-31"/>
       <use xlink:href="#DejaVuSans-33" x="63.623047"/>
       <use xlink:href="#DejaVuSans-2e" x="127.246094"/>
       <use xlink:href="#DejaVuSans-35" x="159.033203"/>
       <use xlink:href="#DejaVuSans-35" x="222.65625"/>
       <use xlink:href="#DejaVuSans-30" x="286.279297"/>
      </g>
     </g>
    </g>
    <g id="xtick_3">
     <g id="line2d_3">
      <g>
       <use xlink:href="#m41959925e4" x="269.782648" y="576.217239" style="stroke: #000000; stroke-width: 0.8"/>
      </g>
     </g>
     <g id="text_3">
      <!-- 13.575 -->
      <g transform="translate(252.287335 590.815676) scale(0.1 -0.1)">
       <defs>
        <path id="DejaVuSans-37" d="M 525 4666 
L 3525 4666 
L 3525 4397 
L 1831 0 
L 1172 0 
L 2766 4134 
L 525 4134 
L 525 4666 
z
" transform="scale(0.015625)"/>
       </defs>
       <use xlink:href="#DejaVuSans-31"/>
       <use xlink:href="#DejaVuSans-33" x="63.623047"/>
       <use xlink:href="#DejaVuSans-2e" x="127.246094"/>
       <use xlink:href="#DejaVuSans-35" x="159.033203"/>
       <use xlink:href="#DejaVuSans-37" x="222.65625"/>
       <use xlink:href="#DejaVuSans-35" x="286.279297"/>
      </g>
     </g>
    </g>
    <g id="xtick_4">
     <g id="line2d_4">
      <g>
       <use xlink:href="#m41959925e4" x="335.197656" y="576.217239" style="stroke: #000000; stroke-width: 0.8"/>
      </g>
     </g>
     <g id="text_4">
      <!-- 13.600 -->
      <g transform="translate(317.702343 590.815676) scale(0.1 -0.1)">
       <defs>
        <path id="DejaVuSans-36" d="M 2113 2584 
Q 1688 2584 1439 2293 
Q 1191 2003 1191 1497 
Q 1191 994 1439 701 
Q 1688 409 2113 409 
Q 2538 409 2786 701 
Q 3034 994 3034 1497 
Q 3034 2003 2786 2293 
Q 2538 2584 2113 2584 
z
M 3366 4563 
L 3366 3988 
Q 3128 4100 2886 4159 
Q 2644 4219 2406 4219 
Q 1781 4219 1451 3797 
Q 1122 3375 1075 2522 
Q 1259 2794 1537 2939 
Q 1816 3084 2150 3084 
Q 2853 3084 3261 2657 
Q 3669 2231 3669 1497 
Q 3669 778 3244 343 
Q 2819 -91 2113 -91 
Q 1303 -91 875 529 
Q 447 1150 447 2328 
Q 447 3434 972 4092 
Q 1497 4750 2381 4750 
Q 2619 4750 2861 4703 
Q 3103 4656 3366 4563 
z
" transform="scale(0.015625)"/>
       </defs>
       <use xlink:href="#DejaVuSans-31"/>
       <use xlink:href="#DejaVuSans-33" x="63.623047"/>
       <use xlink:href="#DejaVuSans-2e" x="127.246094"/>
       <use xlink:href="#DejaVuSans-36" x="159.033203"/>
       <use xlink:href="#DejaVuSans-30" x="222.65625"/>
       <use xlink:href="#DejaVuSans-30" x="286.279297"/>
      </g>
     </g>
    </g>
    <g id="xtick_5">
     <g id="line2d_5">
      <g>
       <use xlink:href="#m41959925e4" x="400.612664" y="576.217239" style="stroke: #000000; stroke-width: 0.8"/>
      </g>
     </g>
     <g id="text_5">
      <!-- 13.625 -->
      <g transform="translate(383.117352 590.815676) scale(0.1 -0.1)">
       <use xlink:href="#DejaVuSans-31"/>
       <use xlink:href="#DejaVuSans-33" x="63.623047"/>
       <use xlink:href="#DejaVuSans-2e" x="127.246094"/>
       <use xlink:href="#DejaVuSans-36" x="159.033203"/>
       <use xlink:href="#DejaVuSans-32" x="222.65625"/>
       <use xlink:href="#DejaVuSans-35" x="286.279297"/>
      </g>
     </g>
    </g>
    <g id="xtick_6">
     <g id="line2d_6">
      <g>
       <use xlink:href="#m41959925e4" x="466.027673" y="576.217239" style="stroke: #000000; stroke-width: 0.8"/>
      </g>
     </g>
     <g id="text_6">
      <!-- 13.650 -->
      <g transform="translate(448.53236 590.815676) scale(0.1 -0.1)">
       <use xlink:href="#DejaVuSans-31"/>
       <use xlink:href="#DejaVuSans-33" x="63.623047"/>
       <use xlink:href="#DejaVuSans-2e" x="127.246094"/>
       <use xlink:href="#DejaVuSans-36" x="159.033203"/>
       <use xlink:href="#DejaVuSans-35" x="222.65625"/>
       <use xlink:href="#DejaVuSans-30" x="286.279297"/>
      </g>
     </g>
    </g>
    <g id="xtick_7">
     <g id="line2d_7">
      <g>
       <use xlink:href="#m41959925e4" x="531.442681" y="576.217239" style="stroke: #000000; stroke-width: 0.8"/>
      </g>
     </g>
     <g id="text_7">
      <!-- 13.675 -->
      <g transform="translate(513.947368 590.815676) scale(0.1 -0.1)">
       <use xlink:href="#DejaVuSans-31"/>
       <use xlink:href="#DejaVuSans-33" x="63.623047"/>
       <use xlink:href="#DejaVuSans-2e" x="127.246094"/>
       <use xlink:href="#DejaVuSans-36" x="159.033203"/>
       <use xlink:href="#DejaVuSans-37" x="222.65625"/>
       <use xlink:href="#DejaVuSans-35" x="286.279297"/>
      </g>
     </g>
    </g>
    <g id="xtick_8">
     <g id="line2d_8">
      <g>
       <use xlink:href="#m41959925e4" x="596.857689" y="576.217239" style="stroke: #000000; stroke-width: 0.8"/>
      </g>
     </g>
     <g id="text_8">
      <!-- 13.700 -->
      <g transform="translate(579.362377 590.815676) scale(0.1 -0.1)">
       <use xlink:href="#DejaVuSans-31"/>
       <use xlink:href="#DejaVuSans-33" x="63.623047"/>
       <use xlink:href="#DejaVuSans-2e" x="127.246094"/>
       <use xlink:href="#DejaVuSans-37" x="159.033203"/>
       <use xlink:href="#DejaVuSans-30" x="222.65625"/>
       <use xlink:href="#DejaVuSans-30" x="286.279297"/>
      </g>
     </g>
    </g>
   </g>
   <g id="matplotlib.axis_2">
    <g id="ytick_1">
     <g id="line2d_9">
      <defs>
       <path id="m29cbf8e28a" d="M 0 0 
L -3.5 0 
" style="stroke: #000000; stroke-width: 0.8"/>
      </defs>
      <g>
       <use xlink:href="#m29cbf8e28a" x="90" y="549.363449" style="stroke: #000000; stroke-width: 0.8"/>
      </g>
     </g>
     <g id="text_9">
      <!-- 52.34 -->
      <g transform="translate(54.371875 553.162667) scale(0.1 -0.1)">
       <defs>
        <path id="DejaVuSans-34" d="M 2419 4116 
L 825 1625 
L 2419 1625 
L 2419 4116 
z
M 2253 4666 
L 3047 4666 
L 3047 1625 
L 3713 1625 
L 3713 1100 
L 3047 1100 
L 3047 0 
L 2419 0 
L 2419 1100 
L 313 1100 
L 313 1709 
L 2253 4666 
z
" transform="scale(0.015625)"/>
       </defs>
       <use xlink:href="#DejaVuSans-35"/>
       <use xlink:href="#DejaVuSans-32" x="63.623047"/>
       <use xlink:href="#DejaVuSans-2e" x="127.246094"/>
       <use xlink:href="#DejaVuSans-33" x="159.033203"/>
       <use xlink:href="#DejaVuSans-34" x="222.65625"/>
      </g>
     </g>
    </g>
    <g id="ytick_2">
     <g id="line2d_10">
      <g>
       <use xlink:href="#m29cbf8e28a" x="90" y="463.583043" style="stroke: #000000; stroke-width: 0.8"/>
      </g>
     </g>
     <g id="text_10">
      <!-- 52.36 -->
      <g transform="translate(54.371875 467.382262) scale(0.1 -0.1)">
       <use xlink:href="#DejaVuSans-35"/>
       <use xlink:href="#DejaVuSans-32" x="63.623047"/>
       <use xlink:href="#DejaVuSans-2e" x="127.246094"/>
       <use xlink:href="#DejaVuSans-33" x="159.033203"/>
       <use xlink:href="#DejaVuSans-36" x="222.65625"/>
      </g>
     </g>
    </g>
    <g id="ytick_3">
     <g id="line2d_11">
      <g>
       <use xlink:href="#m29cbf8e28a" x="90" y="377.802638" style="stroke: #000000; stroke-width: 0.8"/>
      </g>
     </g>
     <g id="text_11">
      <!-- 52.38 -->
      <g transform="translate(54.371875 381.601856) scale(0.1 -0.1)">
       <defs>
        <path id="DejaVuSans-38" d="M 2034 2216 
Q 1584 2216 1326 1975 
Q 1069 1734 1069 1313 
Q 1069 891 1326 650 
Q 1584 409 2034 409 
Q 2484 409 2743 651 
Q 3003 894 3003 1313 
Q 3003 1734 2745 1975 
Q 2488 2216 2034 2216 
z
M 1403 2484 
Q 997 2584 770 2862 
Q 544 3141 544 3541 
Q 544 4100 942 4425 
Q 1341 4750 2034 4750 
Q 2731 4750 3128 4425 
Q 3525 4100 3525 3541 
Q 3525 3141 3298 2862 
Q 3072 2584 2669 2484 
Q 3125 2378 3379 2068 
Q 3634 1759 3634 1313 
Q 3634 634 3220 271 
Q 2806 -91 2034 -91 
Q 1263 -91 848 271 
Q 434 634 434 1313 
Q 434 1759 690 2068 
Q 947 2378 1403 2484 
z
M 1172 3481 
Q 1172 3119 1398 2916 
Q 1625 2713 2034 2713 
Q 2441 2713 2670 2916 
Q 2900 3119 2900 3481 
Q 2900 3844 2670 4047 
Q 2441 4250 2034 4250 
Q 1625 4250 1398 4047 
Q 1172 3844 1172 3481 
z
" transform="scale(0.015625)"/>
       </defs>
       <use xlink:href="#DejaVuSans-35"/>
       <use xlink:href="#DejaVuSans-32" x="63.623047"/>
       <use xlink:href="#DejaVuSans-2e" x="127.246094"/>
       <use xlink:href="#DejaVuSans-33" x="159.033203"/>
       <use xlink:href="#DejaVuSans-38" x="222.65625"/>
      </g>
     </g>
    </g>
    <g id="ytick_4">
     <g id="line2d_12">
      <g>
       <use xlink:href="#m29cbf8e28a" x="90" y="292.022232" style="stroke: #000000; stroke-width: 0.8"/>
      </g>
     </g>
     <g id="text_12">
      <!-- 52.40 -->
      <g transform="translate(54.371875 295.821451) scale(0.1 -0.1)">
       <use xlink:href="#DejaVuSans-35"/>
       <use xlink:href="#DejaVuSans-32" x="63.623047"/>
       <use xlink:href="#DejaVuSans-2e" x="127.246094"/>
       <use xlink:href="#DejaVuSans-34" x="159.033203"/>
       <use xlink:href="#DejaVuSans-30" x="222.65625"/>
      </g>
     </g>
    </g>
    <g id="ytick_5">
     <g id="line2d_13">
      <g>
       <use xlink:href="#m29cbf8e28a" x="90" y="206.241826" style="stroke: #000000; stroke-width: 0.8"/>
      </g>
     </g>
     <g id="text_13">
      <!-- 52.42 -->
      <g transform="translate(54.371875 210.041045) scale(0.1 -0.1)">
       <use xlink:href="#DejaVuSans-35"/>
       <use xlink:href="#DejaVuSans-32" x="63.623047"/>
       <use xlink:href="#DejaVuSans-2e" x="127.246094"/>
       <use xlink:href="#DejaVuSans-34" x="159.033203"/>
       <use xlink:href="#DejaVuSans-32" x="222.65625"/>
      </g>
     </g>
    </g>
   </g>
   <g id="LineCollection_1">
    <path d="M 155.884914 197.301792 
L 155.794379 197.509381 
L 153.264912 203.307279 
L 152.804128 204.394545 
L 151.646806 207.192702 
L 150.38639 210.137543 
L 149.111059 213.090105 
L 147.81558 216.127589 
L 147.545023 216.712612 
" clip-path="url(#p564308ef94)" style="fill: none; stroke: #ff0000; stroke-opacity: 0.7; stroke-width: 0.5"/>
    <path d="M 176.746806 319.350154 
L 176.947761 319.68341 
L 180.269797 325.147622 
L 181.864353 327.762638 
L 182.318072 328.643603 
L 182.679424 329.627933 
L 182.813918 330.16406 
L 182.899742 330.683461 
L 182.917273 331.002564 
L 182.948149 331.953869 
L 183.124246 337.494854 
L 183.153552 338.45345 
L 183.161664 338.716367 
" clip-path="url(#p564308ef94)" style="fill: none; stroke: #ff0000; stroke-opacity: 0.7; stroke-width: 0.5"/>
    <path d="M 170.642801 254.223525 
L 172.922645 255.033292 
L 173.692972 255.306932 
L 173.865668 255.367836 
L 173.95594 255.400003 
L 174.009842 255.419304 
L 175.169258 255.83105 
L 177.296816 256.586775 
" clip-path="url(#p564308ef94)" style="fill: none; stroke: #ff0000; stroke-opacity: 0.7; stroke-width: 0.5"/>
    <path d="M 168.473378 258.954743 
L 168.407178 259.15547 
L 169.554557 264.514171 
L 169.602702 264.735056 
L 169.699778 265.170392 
L 170.504645 268.775313 
L 170.55593 269.004776 
L 170.597011 269.196066 
L 170.650913 269.434107 
L 171.058056 271.236353 
L 171.122424 271.521144 
L 171.15958 271.697852 
L 171.344835 272.575385 
L 171.837802 274.731047 
L 171.910021 274.978523 
" clip-path="url(#p564308ef94)" style="fill: none; stroke: #ff0000; stroke-opacity: 0.7; stroke-width: 0.5"/>
    <path d="M 186.429013 259.766655 
L 186.476635 259.978104 
L 187.036326 262.46402 
L 187.284641 263.580452 
L 187.346916 263.930436 
L 187.367587 264.359767 
L 187.083686 264.948649 
L 179.7784 270.918965 
L 175.233626 274.649984 
L 174.749817 274.946355 
L 174.280922 275.075884 
L 174.048568 275.080602 
L 173.763882 275.066448 
L 173.43419 274.975521 
L 173.248935 274.881591 
L 172.779517 274.657276 
L 172.501111 274.60066 
L 171.837802 274.731047 
" clip-path="url(#p564308ef94)" style="fill: none; stroke: #ff0000; stroke-opacity: 0.7; stroke-width: 0.5"/>
    <path d="M 171.122424 271.521144 
L 171.354255 271.454664 
L 173.844997 269.426386 
L 173.959865 269.332028 
L 175.151988 268.345124 
L 176.399583 267.312757 
L 176.6165 267.133047 
L 176.827659 266.958484 
L 177.469511 266.430077 
L 178.847675 265.294344 
L 179.031098 265.143371 
L 179.181553 265.021563 
L 180.133211 264.250397 
L 180.258546 264.149176 
L 180.378124 264.052244 
L 181.325072 263.285367 
L 181.511112 263.134823 
L 181.641419 263.012585 
L 182.329846 262.367517 
L 183.110117 261.466823 
L 183.999761 260.195986 
" clip-path="url(#p564308ef94)" style="fill: none; stroke: #ff0000; stroke-opacity: 0.7; stroke-width: 0.5"/>
    <path d="M 172.370019 259.43254 
L 172.356413 259.663718 
L 172.253842 259.972099 
L 171.811113 261.08124 
L 171.830476 261.292688 
L 173.767545 263.67867 
L 175.168473 265.401999 
L 176.478866 266.968349 
L 176.6165 267.133047 
" clip-path="url(#p564308ef94)" style="fill: none; stroke: #ff0000; stroke-opacity: 0.7; stroke-width: 0.5"/>
    <path d="M 239.069778 263.629347 
L 239.170517 264.09299 
L 239.279891 264.599523 
L 239.455203 265.411006 
L 239.644122 266.294115 
L 239.83461 267.146343 
L 239.916248 267.521204 
L 240.017772 268.09293 
" clip-path="url(#p564308ef94)" style="fill: none; stroke: #ff0000; stroke-opacity: 0.7; stroke-width: 0.5"/>
    <path d="M 183.161664 338.716367 
L 182.975623 339.089083 
L 182.859708 339.366153 
L 182.866511 339.548866 
L 182.959139 339.690832 
L 183.126863 339.789051 
L 183.270776 339.784333 
L 183.409456 339.692977 
L 183.524848 339.5197 
L 183.513335 339.283375 
L 183.397943 339.058202 
L 183.161664 338.716367 
" clip-path="url(#p564308ef94)" style="fill: none; stroke: #ff0000; stroke-opacity: 0.7; stroke-width: 0.5"/>
    <path d="M 163.893804 251.943053 
L 167.274452 253.085219 
L 167.548148 253.177862 
L 170.642801 254.223525 
" clip-path="url(#p564308ef94)" style="fill: none; stroke: #ff0000; stroke-opacity: 0.7; stroke-width: 0.5"/>
    <path d="M 185.775909 256.241509 
L 185.900721 256.838541 
L 186.037569 258.083214 
L 186.429013 259.766655 
" clip-path="url(#p564308ef94)" style="fill: none; stroke: #ff0000; stroke-opacity: 0.7; stroke-width: 0.5"/>
    <path d="M 239.069778 263.629347 
L 238.492033 263.749439 
L 238.365128 263.139112 
L 238.942873 263.019019 
L 239.069778 263.629347 
" clip-path="url(#p564308ef94)" style="fill: none; stroke: #ff0000; stroke-opacity: 0.7; stroke-width: 0.5"/>
   </g>
   <g id="patch_3">
    <path d="M 90 576.217239 
L 90 150.982761 
" style="fill: none; stroke: #000000; stroke-width: 0.8; stroke-linejoin: miter; stroke-linecap: square"/>
   </g>
   <g id="patch_4">
    <path d="M 648 576.217239 
L 648 150.982761 
" style="fill: none; stroke: #000000; stroke-width: 0.8; stroke-linejoin: miter; stroke-linecap: square"/>
   </g>
   <g id="patch_5">
    <path d="M 90 576.217239 
L 648 576.217239 
" style="fill: none; stroke: #000000; stroke-width: 0.8; stroke-linejoin: miter; stroke-linecap: square"/>
   </g>
   <g id="patch_6">
    <path d="M 90 150.982761 
L 648 150.982761 
" style="fill: none; stroke: #000000; stroke-width: 0.8; stroke-linejoin: miter; stroke-linecap: square"/>
   </g>
   <g id="text_14">
    <!-- Treptow-Kpenick_3 -->
    <g transform="translate(287.733653 325.535593) scale(0.12 -0.12)">
     <defs>
      <path id="DejaVuSans-54" d="M -19 4666 
L 3928 4666 
L 3928 4134 
L 2272 4134 
L 2272 0 
L 1638 0 
L 1638 4134 
L -19 4134 
L -19 4666 
z
" transform="scale(0.015625)"/>
      <path id="DejaVuSans-72" d="M 2631 2963 
Q 2534 3019 2420 3045 
Q 2306 3072 2169 3072 
Q 1681 3072 1420 2755 
Q 1159 2438 1159 1844 
L 1159 0 
L 581 0 
L 581 3500 
L 1159 3500 
L 1159 2956 
Q 1341 3275 1631 3429 
Q 1922 3584 2338 3584 
Q 2397 3584 2469 3576 
Q 2541 3569 2628 3553 
L 2631 2963 
z
" transform="scale(0.015625)"/>
      <path id="DejaVuSans-65" d="M 3597 1894 
L 3597 1613 
L 953 1613 
Q 991 1019 1311 708 
Q 1631 397 2203 397 
Q 2534 397 2845 478 
Q 3156 559 3463 722 
L 3463 178 
Q 3153 47 2828 -22 
Q 2503 -91 2169 -91 
Q 1331 -91 842 396 
Q 353 884 353 1716 
Q 353 2575 817 3079 
Q 1281 3584 2069 3584 
Q 2775 3584 3186 3129 
Q 3597 2675 3597 1894 
z
M 3022 2063 
Q 3016 2534 2758 2815 
Q 2500 3097 2075 3097 
Q 1594 3097 1305 2825 
Q 1016 2553 972 2059 
L 3022 2063 
z
" transform="scale(0.015625)"/>
      <path id="DejaVuSans-70" d="M 1159 525 
L 1159 -1331 
L 581 -1331 
L 581 3500 
L 1159 3500 
L 1159 2969 
Q 1341 3281 1617 3432 
Q 1894 3584 2278 3584 
Q 2916 3584 3314 3078 
Q 3713 2572 3713 1747 
Q 3713 922 3314 415 
Q 2916 -91 2278 -91 
Q 1894 -91 1617 61 
Q 1341 213 1159 525 
z
M 3116 1747 
Q 3116 2381 2855 2742 
Q 2594 3103 2138 3103 
Q 1681 3103 1420 2742 
Q 1159 2381 1159 1747 
Q 1159 1113 1420 752 
Q 1681 391 2138 391 
Q 2594 391 2855 752 
Q 3116 1113 3116 1747 
z
" transform="scale(0.015625)"/>
      <path id="DejaVuSans-74" d="M 1172 4494 
L 1172 3500 
L 2356 3500 
L 2356 3053 
L 1172 3053 
L 1172 1153 
Q 1172 725 1289 603 
Q 1406 481 1766 481 
L 2356 481 
L 2356 0 
L 1766 0 
Q 1100 0 847 248 
Q 594 497 594 1153 
L 594 3053 
L 172 3053 
L 172 3500 
L 594 3500 
L 594 4494 
L 1172 4494 
z
" transform="scale(0.015625)"/>
      <path id="DejaVuSans-6f" d="M 1959 3097 
Q 1497 3097 1228 2736 
Q 959 2375 959 1747 
Q 959 1119 1226 758 
Q 1494 397 1959 397 
Q 2419 397 2687 759 
Q 2956 1122 2956 1747 
Q 2956 2369 2687 2733 
Q 2419 3097 1959 3097 
z
M 1959 3584 
Q 2709 3584 3137 3096 
Q 3566 2609 3566 1747 
Q 3566 888 3137 398 
Q 2709 -91 1959 -91 
Q 1206 -91 779 398 
Q 353 888 353 1747 
Q 353 2609 779 3096 
Q 1206 3584 1959 3584 
z
" transform="scale(0.015625)"/>
      <path id="DejaVuSans-77" d="M 269 3500 
L 844 3500 
L 1563 769 
L 2278 3500 
L 2956 3500 
L 3675 769 
L 4391 3500 
L 4966 3500 
L 4050 0 
L 3372 0 
L 2619 2869 
L 1863 0 
L 1184 0 
L 269 3500 
z
" transform="scale(0.015625)"/>
      <path id="DejaVuSans-2d" d="M 313 2009 
L 1997 2009 
L 1997 1497 
L 313 1497 
L 313 2009 
z
" transform="scale(0.015625)"/>
      <path id="DejaVuSans-4b" d="M 628 4666 
L 1259 4666 
L 1259 2694 
L 3353 4666 
L 4166 4666 
L 1850 2491 
L 4331 0 
L 3500 0 
L 1259 2247 
L 1259 0 
L 628 0 
L 628 4666 
z
" transform="scale(0.015625)"/>
      <path id="DejaVuSans-f6" d="M 1959 3097 
Q 1497 3097 1228 2736 
Q 959 2375 959 1747 
Q 959 1119 1226 758 
Q 1494 397 1959 397 
Q 2419 397 2687 759 
Q 2956 1122 2956 1747 
Q 2956 2369 2687 2733 
Q 2419 3097 1959 3097 
z
M 1959 3584 
Q 2709 3584 3137 3096 
Q 3566 2609 3566 1747 
Q 3566 888 3137 398 
Q 2709 -91 1959 -91 
Q 1206 -91 779 398 
Q 353 888 353 1747 
Q 353 2609 779 3096 
Q 1206 3584 1959 3584 
z
M 2254 4850 
L 2888 4850 
L 2888 4219 
L 2254 4219 
L 2254 4850 
z
M 1032 4850 
L 1666 4850 
L 1666 4219 
L 1032 4219 
L 1032 4850 
z
" transform="scale(0.015625)"/>
      <path id="DejaVuSans-6e" d="M 3513 2113 
L 3513 0 
L 2938 0 
L 2938 2094 
Q 2938 2591 2744 2837 
Q 2550 3084 2163 3084 
Q 1697 3084 1428 2787 
Q 1159 2491 1159 1978 
L 1159 0 
L 581 0 
L 581 3500 
L 1159 3500 
L 1159 2956 
Q 1366 3272 1645 3428 
Q 1925 3584 2291 3584 
Q 2894 3584 3203 3211 
Q 3513 2838 3513 2113 
z
" transform="scale(0.015625)"/>
      <path id="DejaVuSans-69" d="M 603 3500 
L 1178 3500 
L 1178 0 
L 603 0 
L 603 3500 
z
M 603 4863 
L 1178 4863 
L 1178 4134 
L 603 4134 
L 603 4863 
z
" transform="scale(0.015625)"/>
      <path id="DejaVuSans-63" d="M 3122 3366 
L 3122 2828 
Q 2878 2963 2633 3030 
Q 2388 3097 2138 3097 
Q 1578 3097 1268 2742 
Q 959 2388 959 1747 
Q 959 1106 1268 751 
Q 1578 397 2138 397 
Q 2388 397 2633 464 
Q 2878 531 3122 666 
L 3122 134 
Q 2881 22 2623 -34 
Q 2366 -91 2075 -91 
Q 1284 -91 818 406 
Q 353 903 353 1747 
Q 353 2603 823 3093 
Q 1294 3584 2113 3584 
Q 2378 3584 2631 3529 
Q 2884 3475 3122 3366 
z
" transform="scale(0.015625)"/>
      <path id="DejaVuSans-6b" d="M 581 4863 
L 1159 4863 
L 1159 1991 
L 2875 3500 
L 3609 3500 
L 1753 1863 
L 3688 0 
L 2938 0 
L 1159 1709 
L 1159 0 
L 581 0 
L 581 4863 
z
" transform="scale(0.015625)"/>
      <path id="DejaVuSans-5f" d="M 3263 -1063 
L 3263 -1509 
L -63 -1509 
L -63 -1063 
L 3263 -1063 
z
" transform="scale(0.015625)"/>
     </defs>
     <use xlink:href="#DejaVuSans-54"/>
     <use xlink:href="#DejaVuSans-72" x="46.333984"/>
     <use xlink:href="#DejaVuSans-65" x="85.197266"/>
     <use xlink:href="#DejaVuSans-70" x="146.720703"/>
     <use xlink:href="#DejaVuSans-74" x="210.197266"/>
     <use xlink:href="#DejaVuSans-6f" x="249.40625"/>
     <use xlink:href="#DejaVuSans-77" x="310.587891"/>
     <use xlink:href="#DejaVuSans-2d" x="392.375"/>
     <use xlink:href="#DejaVuSans-4b" x="428.458984"/>
     <use xlink:href="#DejaVuSans-f6" x="489.035156"/>
     <use xlink:href="#DejaVuSans-70" x="550.216797"/>
     <use xlink:href="#DejaVuSans-65" x="613.693359"/>
     <use xlink:href="#DejaVuSans-6e" x="675.216797"/>
     <use xlink:href="#DejaVuSans-69" x="738.595703"/>
     <use xlink:href="#DejaVuSans-63" x="766.378906"/>
     <use xlink:href="#DejaVuSans-6b" x="821.359375"/>
     <use xlink:href="#DejaVuSans-5f" x="879.269531"/>
     <use xlink:href="#DejaVuSans-33" x="929.269531"/>
    </g>
   </g>
  </g>
 </g>
 <defs>
  <clipPath id="p564308ef94">
   <rect x="90" y="150.982761" width="558" height="425.234478"/>
  </clipPath>
 </defs>
</svg>
