<?xml version="1.0" encoding="utf-8" standalone="no"?>
<!DOCTYPE svg PUBLIC "-//W3C//DTD SVG 1.1//EN"
  "http://www.w3.org/Graphics/SVG/1.1/DTD/svg11.dtd">
<svg xmlns:xlink="http://www.w3.org/1999/xlink" width="720pt" height="720pt" viewBox="0 0 720 720" xmlns="http://www.w3.org/2000/svg" version="1.1">
 <metadata>
  <rdf:RDF xmlns:dc="http://purl.org/dc/elements/1.1/" xmlns:cc="http://creativecommons.org/ns#" xmlns:rdf="http://www.w3.org/1999/02/22-rdf-syntax-ns#">
   <cc:Work>
    <dc:type rdf:resource="http://purl.org/dc/dcmitype/StillImage"/>
    <dc:date>2024-10-17T11:36:15.067167</dc:date>
    <dc:format>image/svg+xml</dc:format>
    <dc:creator>
     <cc:Agent>
      <dc:title>Matplotlib v3.9.2, https://matplotlib.org/</dc:title>
     </cc:Agent>
    </dc:creator>
   </cc:Work>
  </rdf:RDF>
 </metadata>
 <defs>
  <style type="text/css">*{stroke-linejoin: round; stroke-linecap: butt}</style>
 </defs>
 <g id="figure_1">
  <g id="patch_1">
   <path d="M 0 720 
L 720 720 
L 720 0 
L 0 0 
z
" style="fill: #ffffff"/>
  </g>
  <g id="axes_1">
   <g id="patch_2">
    <path d="M 90 577.843039 
L 648 577.843039 
L 648 149.356961 
L 90 149.356961 
z
" style="fill: #ffffff"/>
   </g>
   <g id="PatchCollection_1">
    <path d="M 241.684649 174.965317 
L 239.648277 175.343665 
L 237.608786 175.728865 
L 237.095776 175.825762 
L 236.904176 175.861949 
L 235.835578 175.750693 
L 235.374885 175.801432 
L 234.518598 175.955574 
L 230.874824 176.615411 
L 222.488073 178.112134 
L 221.651765 178.286486 
L 221.647916 178.265313 
L 221.375355 178.203438 
L 219.865507 178.471272 
L 219.735699 178.323984 
L 218.127178 178.611401 
L 218.158129 178.671148 
L 217.769695 178.745755 
L 217.693471 178.760384 
L 217.686888 178.785676 
L 217.649431 178.930078 
L 217.599962 178.958258 
L 217.522968 178.99868 
L 217.453674 179.017928 
L 217.395929 179.029477 
L 217.293912 179.05835 
L 215.919571 179.291257 
L 215.882999 179.298956 
L 214.102515 179.649278 
L 212.579961 179.916832 
L 212.137246 180.001525 
L 211.663734 180.090068 
L 210.320191 180.338373 
L 209.529079 180.492361 
L 208.518534 180.665597 
L 208.351072 180.69832 
L 207.75052 180.813811 
L 207.61963 180.836909 
L 207.581133 180.844608 
L 206.7496 180.994746 
L 206.408902 181.052492 
L 206.322283 181.07559 
L 206.254914 181.098688 
L 206.187544 181.121786 
L 206.106701 181.150659 
L 205.979661 181.19493 
L 205.86417 181.241127 
L 205.748679 181.295022 
L 205.527322 181.410513 
L 205.330987 181.526004 
L 205.227045 181.587599 
L 205.167375 181.616472 
L 205.057659 181.666518 
L 204.971041 181.697315 
L 204.937227 181.708184 
L 204.917145 181.714639 
L 204.834377 181.728113 
L 204.620719 181.760835 
L 204.378188 181.797407 
L 203.47736 181.912898 
L 202.695872 181.999516 
L 201.939407 182.093834 
L 201.411999 182.168903 
L 200.728678 182.228573 
L 200.424552 182.255521 
L 198.574774 182.378711 
L 196.930955 182.446081 
L 196.815464 182.442231 
L 196.507488 182.432607 
L 196.251484 182.411434 
L 196.17834 182.411434 
L 196.095571 182.415283 
L 195.972381 182.424908 
L 195.7337 182.434532 
L 195.423799 182.442231 
L 195.002258 182.440306 
L 194.413255 182.449931 
L 193.885847 182.415283 
L 193.65294 182.376786 
L 193.491253 182.328665 
L 193.375762 182.286319 
L 193.264121 182.238197 
L 193.040839 182.132331 
L 193.027365 182.126556 
L 192.632771 181.982193 
L 192.424888 181.901349 
L 192.176583 181.855153 
L 191.855133 181.837829 
L 191.825985 181.836411 
L 191.499036 181.820506 
L 191.256506 181.808957 
L 190.817641 181.808957 
L 190.817641 181.793558 
L 190.353752 181.774309 
L 189.631935 181.739662 
L 189.039082 181.678067 
L 188.330738 181.606848 
L 186.73504 181.433611 
L 185.739894 181.335444 
L 185.208636 181.281548 
L 185.045024 181.264225 
L 183.628337 181.112162 
L 182.484978 180.990897 
L 181.383965 180.858082 
L 181.002845 180.809961 
L 179.711273 180.652123 
L 178.529417 180.513534 
L 177.561219 180.403818 
L 177.530421 180.399968 
L 176.352415 180.274853 
L 175.370743 180.168987 
L 173.811617 179.9996 
L 173.734623 179.989976 
L 172.504646 179.847537 
L 171.105282 179.6897 
L 169.908027 179.56651 
L 169.396018 179.512614 
L 168.624154 179.429846 
L 167.621309 179.31628 
L 166.270066 179.173841 
L 166.081431 179.152668 
L 165.307643 179.064125 
L 164.299023 178.956333 
L 163.234582 178.836993 
L 162.25676 178.715727 
L 162.041177 178.688779 
L 161.232741 178.611786 
L 160.622565 178.542491 
L 159.921921 178.473197 
L 159.125034 178.386578 
L 159.069213 178.378879 
L 158.430164 178.305735 
L 158.331997 178.294186 
L 157.440793 178.178695 
L 156.191567 178.045881 
L 155.100179 177.92269 
L 154.605493 177.86687 
L 154.180102 177.818749 
L 153.104112 177.703258 
L 152.064695 177.591617 
L 151.233161 177.501149 
L 150.778897 177.447253 
L 150.482471 177.414531 
L 150.232241 177.387583 
L 150.147547 177.383733 
L 150.101351 177.387583 
L 150.072478 177.397207 
L 150.051305 177.410681 
L 150.016658 177.443403 
L 149.978161 177.495374 
L 149.841497 177.73213 
L 149.831872 177.73213 
L 149.514273 178.401977 
L 149.348736 178.392353 
L 149.162026 177.668611 
L 149.110055 177.662836 
L 149.031136 177.391433 
L 149.013812 177.35871 
L 148.971466 177.283641 
L 148.92142 177.254768 
L 148.807854 177.216271 
L 147.731864 177.10463 
L 146.954226 177.010313 
L 146.798313 176.991064 
L 146.203536 176.929469 
L 145.986028 176.91792 
L 145.660729 176.887123 
L 145.552937 176.875574 
L 145.483643 176.867874 
L 145.489417 176.810129 
L 145.251296 176.781907 
L 145.229563 176.779331 
L 145.058252 176.760083 
L 145.054402 176.819753 
L 144.985108 176.812054 
L 144.190146 176.715811 
L 143.666587 176.656141 
L 143.129555 176.579147 
L 143.121856 176.579147 
L 143.10873 176.575866 
L 142.967868 176.557974 
L 142.908198 176.550274 
L 142.804256 176.552199 
L 142.461633 176.529101 
L 142.203704 176.504078 
L 141.816809 176.452107 
L 141.017998 176.363564 
L 139.938159 176.255773 
L 139.299109 176.194178 
L 138.969961 176.16338 
L 138.60424 176.121034 
L 138.465651 176.117184 
L 138.323212 176.10371 
L 138.225045 176.09601 
L 138.136502 176.097935 
L 138.086456 176.10371 
L 138.022936 176.117184 
L 137.884347 176.147981 
L 137.691862 176.207652 
L 137.5244 176.261547 
L 137.355014 176.305819 
L 137.224124 176.321218 
L 137.135581 176.317368 
L 136.975819 176.325067 
L 136.744837 176.319293 
L 136.629347 176.317368 
L 136.498457 176.298119 
L 136.182782 176.236524 
L 136.103863 176.232675 
L 135.965274 176.22305 
L 135.564906 176.165305 
L 135.432092 176.155681 
L 135.389745 176.151831 
L 135.305052 176.149906 
L 135.285803 176.149906 
L 135.266555 176.149906 
L 135.249231 176.142207 
L 135.224208 176.126808 
L 135.151064 176.101785 
L 135.110642 176.097935 
L 134.925857 176.078687 
L 134.608257 176.069063 
L 134.329154 176.030566 
L 133.634285 175.930474 
L 133.089553 175.863104 
L 132.841248 175.855405 
L 132.694959 175.838081 
L 132.625665 175.830382 
L 132.43318 175.807283 
L 132.258019 175.78611 
L 132.05206 175.761087 
L 131.953893 175.751463 
L 131.911546 175.734139 
L 131.86535 175.707191 
L 131.844177 175.699492 
L 131.811454 175.678319 
L 131.80568 175.660995 
L 131.61897 175.612874 
L 131.522727 175.589776 
L 131.193578 175.508932 
L 131.081937 175.485834 
L 130.446738 175.416539 
L 130.221531 175.389592 
L 130.125288 175.378043 
L 130.0374 175.330768 
L 129.822433 175.259934 
L 129.761338 175.185712 
L 129.69905 175.134934 
L 129.623943 175.110104 
L 129.192469 175.064061 
L 129.183653 175.063138 
L 129.152856 175.305822 
L 129.092069 175.710772 
L 129.04518 175.887704 
L 128.696667 176.849588 
L 128.551533 177.25523 
L 128.502719 177.373224 
L 128.466956 177.471121 
L 128.108973 178.302694 
L 127.835105 178.939934 
L 127.560853 179.577173 
L 127.286601 180.214413 
L 127.012772 180.851268 
L 126.707106 181.561036 
L 126.742755 181.568659 
L 126.816207 181.918403 
L 125.620992 184.633708 
L 125.556317 184.79605 
L 124.568755 187.035686 
L 123.81641 188.746259 
L 123.606024 189.223814 
L 123.655107 189.497296 
L 123.836159 190.516118 
L 123.844974 190.565625 
L 123.8648 190.677612 
L 123.86584 190.683425 
L 124.09994 191.998173 
L 124.106869 192.03794 
L 124.18598 192.148388 
L 124.320219 192.335676 
L 124.488951 192.573317 
L 124.761086 193.058879 
L 126.211304 195.64314 
L 126.922304 195.863343 
L 127.330564 195.992769 
L 127.818513 196.994383 
L 128.004492 197.376311 
L 128.831984 198.212311 
L 129.153818 200.986054 
L 129.613356 203.766303 
L 131.508984 206.568803 
L 132.861266 208.593819 
L 132.936104 209.174545 
L 132.899609 209.940635 
L 132.838707 210.997645 
L 132.786774 213.223885 
L 132.807409 213.760109 
L 132.817187 213.831867 
L 132.98896 215.063461 
L 133.342593 216.589865 
L 133.653841 217.935718 
L 134.409228 220.318563 
L 134.692334 221.119184 
L 134.793158 221.404408 
L 134.699033 221.616641 
L 134.330271 222.447251 
L 134.08978 222.990828 
L 133.839281 223.553461 
L 133.83162 223.571015 
L 133.589898 224.116479 
L 133.339783 224.679881 
L 133.089668 225.242514 
L 132.871275 225.735313 
L 132.888791 225.745284 
L 133.527494 226.106539 
L 133.715205 226.213676 
L 133.80498 226.939421 
L 133.932674 227.024615 
L 134.551898 227.438226 
L 135.170312 227.851452 
L 135.252811 227.906541 
L 135.935093 228.362152 
L 136.032759 228.42752 
L 136.13085 228.492541 
L 136.729131 228.892679 
L 136.847355 228.971135 
L 137.441824 229.368116 
L 137.517086 229.418816 
L 136.772517 230.467242 
L 136.260969 231.187597 
L 135.789151 232.209806 
L 135.321952 233.222199 
L 135.244458 233.390469 
L 135.314022 233.517278 
L 135.79173 234.386462 
L 135.798467 234.398742 
L 135.790383 234.407173 
L 135.287613 234.929461 
L 135.286034 234.931386 
L 134.641249 235.601232 
L 135.070374 236.333021 
L 135.25566 236.651044 
L 135.383547 236.870207 
L 135.554858 237.162322 
L 135.822759 237.619127 
L 135.490492 238.214443 
L 135.406799 238.36435 
L 135.013399 239.069191 
L 134.673086 239.680137 
L 134.3367 240.284655 
L 134.718705 240.823881 
L 134.975441 241.190603 
L 135.032763 241.272525 
L 134.788885 242.220666 
L 134.481217 243.416881 
L 134.480027 243.421496 
L 133.911963 245.623257 
L 133.870733 245.783558 
L 133.707044 246.419643 
L 133.343094 247.828862 
L 132.56072 250.940031 
L 132.289047 251.886439 
L 131.023499 255.630074 
L 130.900386 255.864251 
L 130.690038 256.264273 
L 128.936195 258.702592 
L 128.827056 258.854116 
L 127.877029 259.929644 
L 127.807388 260.00837 
L 128.089224 260.49143 
L 127.862284 260.745817 
L 125.693636 263.154686 
L 124.759777 264.188945 
L 123.657225 265.411724 
L 124.367609 266.211267 
L 122.874544 267.363095 
L 121.784541 268.511035 
L 119.602227 270.727574 
L 118.478501 271.767107 
L 118.252793 271.976838 
L 118.249481 271.979915 
L 117.210874 272.944767 
L 117.491247 273.668009 
L 117.740476 274.327115 
L 118.025969 275.083156 
L 117.881105 275.232447 
L 117.331061 275.799007 
L 117.188122 275.946412 
L 116.597232 276.555318 
L 116.494369 276.661146 
L 115.863057 277.311629 
L 115.363636 277.826025 
L 115.368949 278.419686 
L 115.375609 279.324403 
L 115.376687 279.5304 
L 116.239365 279.832023 
L 116.512693 279.929959 
L 116.624873 279.982161 
L 117.608316 280.349884 
L 118.330865 280.615205 
L 118.864702 280.879718 
L 118.993243 280.967606 
L 119.603035 281.29202 
L 120.215521 281.617896 
L 120.839133 281.926026 
L 122.115268 282.611194 
L 122.187681 282.648344 
L 123.416657 283.022688 
L 124.848128 283.435606 
L 125.210807 283.538085 
L 125.40822 283.595754 
L 125.498033 283.622086 
L 125.626844 283.659736 
L 126.061012 283.785082 
L 126.654289 283.956201 
L 126.69113 283.96698 
L 126.744449 283.982109 
L 126.911217 284.030038 
L 127.288949 284.139099 
L 127.919029 284.320998 
L 127.956679 284.331931 
L 128.012807 284.342209 
L 128.0724 284.353142 
L 128.093189 284.356954 
L 128.464607 284.424978 
L 128.486974 284.429174 
L 128.506069 284.432677 
L 128.557 284.448807 
L 128.613667 284.466824 
L 128.732777 284.504705 
L 129.086872 284.617462 
L 129.174722 284.645411 
L 129.618438 284.786541 
L 130.44489 285.049475 
L 131.446003 285.907572 
L 131.732228 286.15299 
L 132.031272 286.40938 
L 132.109382 286.476326 
L 132.227337 286.577573 
L 132.5889 286.88755 
L 133.073538 287.303356 
L 133.674052 287.691636 
L 133.713896 287.717275 
L 134.8387 288.445098 
L 135.016748 288.598624 
L 135.333539 288.765238 
L 136.037764 289.220426 
L 137.682854 290.284867 
L 139.309234 290.9904 
L 139.445744 291.049608 
L 139.467302 291.058963 
L 139.657054 291.14127 
L 139.77189 291.190969 
L 140.842105 291.655204 
L 142.324468 292.298411 
L 142.840866 292.733503 
L 143.356764 293.167556 
L 143.87474 293.604689 
L 144.386365 294.035816 
L 144.745464 294.338402 
L 144.888942 294.459282 
L 145.577383 295.039393 
L 145.891018 295.303674 
L 145.900353 295.311596 
L 145.915425 295.324386 
L 145.957078 295.359803 
L 146.045352 295.433832 
L 146.391285 295.725254 
L 146.891091 296.146334 
L 147.390704 296.567336 
L 147.876805 296.976905 
L 148.363214 297.387552 
L 148.847775 297.797083 
L 149.137734 298.039421 
L 149.336147 298.206575 
L 149.892736 298.675583 
L 150.047224 298.80578 
L 150.105355 298.854709 
L 150.836951 299.471199 
L 151.357545 299.132349 
L 152.09915 298.67489 
L 152.665863 298.325723 
L 153.101687 298.05686 
L 153.309301 297.928781 
L 153.706782 297.693834 
L 154.2872 297.351096 
L 154.692073 297.11203 
L 155.203774 296.801513 
L 155.228682 296.786576 
L 155.572267 296.573303 
L 155.749507 296.46197 
L 156.021834 296.290466 
L 156.257782 296.149067 
L 156.783034 295.834547 
L 157.304167 295.513021 
L 157.572914 295.347214 
L 157.870881 295.163468 
L 158.470701 294.793012 
L 159.209573 294.33744 
L 159.25242 294.310915 
L 159.273478 294.298019 
L 159.415994 294.210477 
L 160.851622 293.327395 
L 161.435466 292.96818 
L 161.797261 292.787976 
L 162.60739 292.431533 
L 163.650773 291.97288 
L 164.523383 291.589104 
L 165.070809 291.363166 
L 165.897031 290.928497 
L 166.42825 290.644505 
L 167.557558 289.980009 
L 168.626002 289.33942 
L 168.812096 289.227818 
L 168.844241 289.208608 
L 169.101901 289.054466 
L 169.751306 288.666032 
L 169.888625 288.583879 
L 170.190056 288.396476 
L 170.24195 288.364254 
L 170.35821 288.362599 
L 170.917648 287.950181 
L 171.619524 287.434823 
L 172.226544 286.987527 
L 172.322748 286.916654 
L 173.161442 286.298662 
L 173.242132 286.239185 
L 173.377448 286.139516 
L 173.67118 285.923048 
L 173.828902 285.806864 
L 174.014881 285.669815 
L 173.919216 286.070991 
L 173.833945 286.446991 
L 173.72138 286.942947 
L 173.448976 288.144437 
L 173.376447 288.464577 
L 173.315083 288.601626 
L 173.306422 288.621221 
L 173.180267 288.906099 
L 173.141616 288.991639 
L 173.125178 289.02798 
L 173.091031 289.102395 
L 172.85262 289.619139 
L 172.575134 290.220808 
L 172.167682 291.104159 
L 171.855741 291.779972 
L 171.82964 291.836062 
L 171.455142 292.645769 
L 171.327794 292.925102 
L 171.186895 293.230768 
L 171.041454 293.612157 
L 170.722699 294.505286 
L 170.28395 295.71794 
L 170.255924 295.795165 
L 170.589423 296.720708 
L 169.87388 296.980447 
L 168.202767 297.588737 
L 168.354676 298.010009 
L 168.758739 299.089848 
L 169.163496 300.234401 
L 168.914383 301.00819 
L 168.888667 301.085068 
L 168.741801 301.541141 
L 168.590893 302.008263 
L 168.365108 302.708407 
L 168.359372 302.72754 
L 168.182825 303.196664 
L 167.894368 303.971415 
L 167.619692 304.709208 
L 167.457851 305.144686 
L 167.012672 306.325695 
L 166.765714 307.004473 
L 166.476525 308.409496 
L 166.463706 308.508779 
L 166.427134 308.684518 
L 166.25536 309.536224 
L 166.243888 309.593739 
L 166.176211 309.913879 
L 166.099679 310.295038 
L 166.024032 310.719389 
L 165.641257 312.686006 
L 165.491273 313.468802 
L 165.470793 313.574476 
L 165.423518 313.821011 
L 165.413086 313.87533 
L 165.033121 315.259526 
L 164.80595 316.009793 
L 164.684262 316.722294 
L 164.661279 316.857342 
L 164.60592 317.368311 
L 164.589328 317.521645 
L 164.406391 319.210775 
L 164.278003 320.398329 
L 164.219681 320.936131 
L 164.178142 321.319099 
L 164.150617 321.572639 
L 164.105807 321.987521 
L 164.012914 322.84454 
L 163.812421 324.766923 
L 163.794482 324.860509 
L 163.78863 325.062888 
L 163.728537 327.136872 
L 163.71206 327.700467 
L 163.870436 328.462167 
L 164.170481 329.903531 
L 164.262682 330.346554 
L 164.330051 330.67116 
L 164.363197 330.829614 
L 164.988618 333.834685 
L 165.069732 334.225775 
L 165.306411 335.362744 
L 168.345128 335.554497 
L 168.989259 335.595112 
L 169.855864 335.6497 
L 181.675964 336.395348 
L 182.031984 336.417907 
L 182.542531 336.449936 
L 182.611363 336.454325 
L 184.226502 336.556188 
L 188.017758 336.795639 
L 188.668202 336.840334 
L 191.168887 336.992897 
L 192.576412 337.083134 
L 195.448245 337.310497 
L 196.603615 337.401735 
L 200.091053 337.677873 
L 201.738568 337.808339 
L 204.9767 338.064613 
L 207.448627 338.252055 
L 207.548026 338.268185 
L 212.043737 338.746202 
L 212.910765 338.838479 
L 213.601862 338.911662 
L 213.755234 338.923057 
L 214.66611 338.988809 
L 218.382567 339.257018 
L 221.43984 339.477721 
L 225.125845 339.743696 
L 225.906216 339.799286 
L 226.29134 339.827042 
L 226.444365 339.838475 
L 226.674153 339.855953 
L 228.072401 339.955198 
L 228.286559 339.970019 
L 228.982045 340.018487 
L 229.672911 340.066685 
L 230.363777 340.114845 
L 231.054643 340.16312 
L 231.275847 340.178557 
L 231.649536 340.20462 
L 232.42421 340.242193 
L 233.328349 340.286695 
L 233.521835 340.296628 
L 234.215781 340.330736 
L 235.032186 340.37085 
L 235.873883 340.407037 
L 236.44895 340.433138 
L 236.516551 340.436217 
L 236.65768 340.442569 
L 237.170383 340.465706 
L 237.862635 340.496966 
L 238.016276 340.503895 
L 238.233206 340.513673 
L 238.557466 340.516561 
L 239.251412 340.522759 
L 239.80392 340.524183 
L 239.897005 340.525607 
L 240.325701 340.532149 
L 240.330905 340.532229 
L 240.404241 340.512056 
L 240.937231 340.365268 
L 241.051875 340.3337 
L 241.656431 340.173052 
L 244.588974 339.266026 
L 246.40345 338.873396 
L 247.297619 338.679948 
L 247.541574 338.626823 
L 247.755194 338.580395 
L 248.165686 338.476646 
L 248.804081 338.315305 
L 249.447943 338.159701 
L 250.259997 337.963405 
L 250.506339 337.903812 
L 252.060114 337.446776 
L 253.855419 336.918867 
L 254.214018 336.807111 
L 254.958626 336.575282 
L 255.687373 336.348535 
L 256.415696 336.121788 
L 256.949841 335.967108 
L 257.110412 335.9171 
L 257.192411 335.89277 
L 257.272099 335.866708 
L 257.396757 335.827859 
L 257.618225 335.758839 
L 257.621996 335.757664 
L 257.853249 335.685618 
L 257.887319 335.673992 
L 260.104589 334.920068 
L 260.93466 334.627491 
L 261.488823 334.442744 
L 261.690124 334.372025 
L 261.800263 334.336608 
L 262.447166 334.116175 
L 263.203015 333.85863 
L 263.292982 333.827948 
L 263.992087 333.608515 
L 264.708707 333.383616 
L 264.782006 333.360595 
L 265.571809 333.112598 
L 266.360188 332.864023 
L 267.174552 332.607711 
L 267.250853 332.583765 
L 267.61873 332.529947 
L 268.181131 332.447448 
L 269.0584 332.319946 
L 269.933936 332.190904 
L 270.510235 332.106018 
L 271.240483 331.942406 
L 273.149123 331.507506 
L 273.355505 331.46004 
L 273.897234 331.331537 
L 274.646731 331.15295 
L 275.582361 330.929937 
L 275.661318 330.910842 
L 276.353416 330.728059 
L 277.047477 330.544929 
L 277.787928 330.351867 
L 278.532189 330.157765 
L 278.748195 330.101983 
L 279.277721 329.965319 
L 280.101825 329.77449 
L 280.964965 329.575691 
L 281.902904 329.359339 
L 282.244333 329.273452 
L 282.585724 329.187565 
L 283.507996 328.955544 
L 283.836605 328.872814 
L 284.35335 328.742887 
L 285.009684 328.578659 
L 285.573972 328.437722 
L 286.375979 328.265063 
L 286.434533 328.251281 
L 287.199275 328.020223 
L 288.015679 327.773573 
L 288.824693 327.529194 
L 289.69557 327.269378 
L 290.093513 327.143801 
L 291.232676 326.783431 
L 292.113217 326.505098 
L 292.957493 326.237314 
L 293.764466 325.979346 
L 294.571439 325.721378 
L 295.378412 325.463371 
L 295.397044 325.457096 
L 295.438428 325.443122 
L 295.644734 325.373057 
L 295.861548 325.299451 
L 296.110046 325.215104 
L 297.87721 324.615361 
L 299.182025 324.172569 
L 301.376004 323.441743 
L 302.703032 322.999798 
L 303.187439 322.771704 
L 303.867218 322.451679 
L 308.318504 320.356021 
L 309.248398 319.918233 
L 310.056256 319.537884 
L 312.665078 318.658151 
L 312.961582 318.56137 
L 313.968777 318.224445 
L 314.838461 317.933408 
L 315.560548 317.691917 
L 315.734709 317.816069 
L 315.975122 318.238689 
L 316.043955 318.354026 
L 316.213842 318.638672 
L 316.339996 318.807635 
L 317.182733 319.935672 
L 317.825978 321.150405 
L 319.111083 323.165258 
L 319.233773 323.636422 
L 319.442542 325.029203 
L 318.775274 327.087711 
L 318.711485 327.548981 
L 318.529356 328.86627 
L 318.499713 329.080659 
L 318.347073 330.487491 
L 317.917909 331.96639 
L 317.76727 333.074293 
L 317.770542 333.165685 
L 317.773006 333.234479 
L 317.809001 334.241213 
L 318.329133 335.464299 
L 318.742975 336.100961 
L 319.244436 338.110232 
L 319.381331 338.660777 
L 319.397115 338.724297 
L 320.33209 338.486925 
L 321.241427 338.659853 
L 321.709049 339.522724 
L 321.877973 340.667661 
L 321.78023 342.027758 
L 320.832666 344.59766 
L 320.95755 346.080023 
L 321.910003 347.901044 
L 322.78346 349.411202 
L 323.279147 350.28385 
L 323.563485 350.746661 
L 323.677051 350.975217 
L 323.880392 351.384632 
L 326.573638 352.502198 
L 329.501215 353.512897 
L 330.760758 353.857752 
L 331.321928 354.007852 
L 332.065072 353.934169 
L 332.381517 354.031874 
L 332.753013 354.569291 
L 333.265292 355.723815 
L 334.753391 357.921412 
L 335.150564 358.745747 
L 335.855943 359.453822 
L 336.513009 359.925871 
L 337.500032 360.413127 
L 338.265813 361.271493 
L 338.854508 362.071075 
L 339.454599 362.710509 
L 340.310386 363.656918 
L 341.653775 365.193331 
L 342.11647 367.152748 
L 342.77215 368.975116 
L 343.430409 370.261915 
L 344.546204 371.367893 
L 345.169123 371.988772 
L 346.359603 373.409425 
L 347.81548 375.869264 
L 349.119179 378.6852 
L 350.147702 381.201052 
L 350.240325 381.307072 
L 350.189086 381.78428 
L 350.180616 381.862776 
L 350.132264 382.311496 
L 350.010114 383.494584 
L 348.31467 385.46274 
L 347.713732 386.161767 
L 348.322985 387.365836 
L 350.334027 391.431113 
L 350.387345 391.683499 
L 350.654167 392.816772 
L 351.06185 394.55591 
L 350.925186 396.752661 
L 350.912982 396.948456 
L 350.901587 397.199225 
L 350.740708 397.816408 
L 350.575441 398.475437 
L 350.530053 398.703378 
L 350.496484 398.817059 
L 350.449441 398.976283 
L 350.409365 399.187939 
L 350.371869 399.269668 
L 350.163524 399.828643 
L 350.019353 400.208069 
L 349.964687 400.351894 
L 349.911638 400.491368 
L 349.714265 401.022087 
L 349.608398 401.311199 
L 349.34454 402.017464 
L 349.265775 402.209795 
L 348.913913 403.095109 
L 348.840384 403.309999 
L 348.724008 403.588447 
L 348.639045 403.839332 
L 348.431739 404.345028 
L 348.272285 404.802833 
L 349.19752 404.481307 
L 352.349881 403.362817 
L 352.446739 403.310576 
L 357.246268 400.750183 
L 358.759159 399.868988 
L 359.381886 399.523555 
L 362.363628 397.8822 
L 364.451086 396.767328 
L 364.572197 396.702422 
L 365.046056 396.448881 
L 365.914855 395.981875 
L 365.977066 395.94846 
L 366.917469 395.43876 
L 367.406342 395.173863 
L 367.779377 394.956625 
L 368.892594 394.37278 
L 370.77263 393.363121 
L 371.12865 393.182916 
L 372.859665 392.262955 
L 373.309194 392.009761 
L 377.559949 389.719655 
L 377.621043 389.686932 
L 377.836857 389.571364 
L 377.899492 389.537834 
L 381.617026 387.508775 
L 382.685585 386.936326 
L 382.829641 386.85248 
L 385.573857 385.423512 
L 386.61108 384.852178 
L 386.873591 384.727679 
L 389.900913 382.993084 
L 390.031533 382.934068 
L 391.293655 382.236619 
L 392.789108 381.43238 
L 392.977127 381.3289 
L 393.27159 381.177068 
L 393.337304 381.13757 
L 393.872681 380.836717 
L 393.962417 380.794909 
L 394.653745 380.410786 
L 395.346613 380.023661 
L 395.566007 379.903089 
L 395.608624 379.879375 
L 396.354964 379.464994 
L 396.982079 379.116211 
L 397.60596 378.773973 
L 397.618818 378.76689 
L 398.259253 378.406058 
L 398.486424 378.279904 
L 398.81207 378.098237 
L 399.615539 377.646167 
L 400.489997 377.15433 
L 401.379315 376.654986 
L 401.547085 376.560746 
L 402.437057 376.061056 
L 403.225051 375.61861 
L 403.400212 375.520251 
L 403.842003 375.281377 
L 404.417494 374.970245 
L 404.586765 374.878738 
L 405.162255 374.567567 
L 405.832218 374.205349 
L 406.001835 374.113649 
L 407.186694 373.47306 
L 408.371553 372.832433 
L 408.492818 373.056331 
L 410.461128 376.693637 
L 410.541471 376.842158 
L 411.168933 378.001879 
L 411.318109 378.276554 
L 411.391984 378.412449 
L 411.754318 379.079485 
L 414.206072 383.608034 
L 416.524782 387.898018 
L 416.583181 388.000535 
L 416.759459 388.327605 
L 416.838262 388.48013 
L 417.033442 388.839307 
L 417.070938 388.908717 
L 418.374637 391.317701 
L 420.176255 394.728453 
L 420.296789 394.955508 
L 420.337365 394.946115 
L 420.455242 394.925711 
L 421.976834 394.624973 
L 422.427517 394.536276 
L 422.98657 394.428524 
L 423.177669 394.392028 
L 423.935712 394.247395 
L 424.527641 394.127015 
L 424.703611 394.100799 
L 425.03888 394.028964 
L 425.454609 393.982382 
L 427.348735 393.581937 
L 428.792871 393.289207 
L 429.823357 393.093334 
L 430.052684 393.047869 
L 430.243012 393.00995 
L 432.58532 392.546023 
L 433.047669 392.444661 
L 433.340284 392.396078 
L 434.09748 392.244785 
L 434.85279 392.094454 
L 435.665807 391.922373 
L 435.781837 391.908321 
L 436.528793 391.759608 
L 438.760422 391.315314 
L 439.494289 391.164021 
L 439.942317 391.071667 
L 440.176032 391.033247 
L 441.263301 390.812467 
L 442.418979 390.578406 
L 444.824191 390.082719 
L 445.175976 390.00357 
L 445.194839 390.40748 
L 445.199497 390.50788 
L 445.192337 390.711721 
L 445.200075 391.237512 
L 445.21532 392.146001 
L 445.342706 399.730669 
L 445.351291 400.37326 
L 445.351637 400.518355 
L 445.354178 401.296339 
L 445.352484 401.796107 
L 445.358721 402.091301 
L 445.34902 402.886378 
L 445.362378 403.374366 
L 445.339241 403.664479 
L 445.347326 404.474531 
L 445.335777 405.265335 
L 445.327153 405.77261 
L 445.306403 406.023071 
L 445.298319 406.629936 
L 445.271949 407.967012 
L 445.216282 410.789377 
L 445.210739 411.101857 
L 445.182828 411.254304 
L 444.909615 412.746831 
L 444.819494 413.239207 
L 444.687681 413.95806 
L 444.311027 416.015221 
L 444.204082 416.251823 
L 444.077196 416.532389 
L 443.290473 418.273067 
L 443.115735 418.656997 
L 443.400458 418.784807 
L 443.546439 418.839395 
L 445.382204 419.589508 
L 446.186289 419.918041 
L 446.482446 420.039037 
L 446.715199 420.134124 
L 446.862989 420.19699 
L 446.975005 420.21642 
L 455.467286 421.689478 
L 455.190916 424.1231 
L 455.463783 426.841985 
L 455.962087 428.67598 
L 456.433675 430.861682 
L 456.157421 435.150742 
L 455.439799 439.156618 
L 454.76387 440.494617 
L 453.15847 442.556206 
L 449.54842 444.494642 
L 446.892862 446.745289 
L 441.420599 450.667704 
L 439.996058 451.637595 
L 439.960064 451.709277 
L 437.535103 456.574097 
L 436.534298 457.587067 
L 434.428669 460.593793 
L 434.140866 462.046398 
L 433.380937 463.734489 
L 432.625088 465.896901 
L 432.658156 468.352544 
L 433.289429 470.116705 
L 432.831393 472.630786 
L 432.11458 474.397834 
L 431.880749 476.436208 
L 431.628979 477.187399 
L 431.473683 479.426997 
L 430.861658 494.332974 
L 430.434419 504.83313 
L 430.095723 513.152858 
L 430.01257 515.197893 
L 427.143316 515.442541 
L 426.033102 521.105595 
L 426.315631 522.714305 
L 427.231897 527.933797 
L 428.090379 530.077576 
L 431.033124 535.095691 
L 431.996048 536.73774 
L 437.540954 542.451687 
L 437.831529 542.96104 
L 438.988247 544.910024 
L 441.711521 549.499091 
L 442.521573 550.864385 
L 446.921466 551.054906 
L 447.386393 552.012556 
L 448.78799 554.35983 
L 449.082568 555.022901 
L 449.485747 555.94702 
L 450.523008 556.602238 
L 454.51364 558.23728 
L 455.292972 558.366399 
L 457.088777 558.276932 
L 457.851248 557.955752 
L 458.21154 558.018002 
L 458.346434 557.947052 
L 461.546877 556.456142 
L 463.089218 555.890699 
L 463.757448 555.524632 
L 464.973952 554.259006 
L 465.76568 553.330191 
L 464.911394 543.486022 
L 464.615083 540.071729 
L 464.597336 539.86808 
L 465.602222 538.171173 
L 466.344828 536.766805 
L 467.184754 535.46711 
L 467.704925 534.588186 
L 468.146407 533.128459 
L 468.456731 532.152792 
L 468.991646 530.617881 
L 470.001075 528.499972 
L 470.455069 527.333399 
L 471.008655 526.581361 
L 471.355358 525.895885 
L 472.164256 525.05592 
L 472.980584 524.290793 
L 473.650315 523.419723 
L 474.698818 522.163991 
L 475.503134 521.421347 
L 475.628942 521.304393 
L 475.756598 521.188671 
L 475.920788 521.036262 
L 476.563148 520.329419 
L 476.955508 519.613992 
L 477.673515 518.471326 
L 477.700116 518.407922 
L 477.784694 518.250931 
L 478.018678 517.807331 
L 478.179018 517.087092 
L 477.615077 516.257675 
L 477.797822 514.963947 
L 478.261055 513.839528 
L 478.823842 512.762422 
L 479.280608 511.838034 
L 479.502659 511.21215 
L 479.888821 510.13285 
L 479.940831 509.541422 
L 479.869149 508.734025 
L 480.046659 506.602257 
L 480.086773 506.009443 
L 480.224014 505.329202 
L 480.326955 504.550178 
L 480.516437 503.125329 
L 480.541691 502.93065 
L 480.562749 502.733199 
L 480.871379 501.581602 
L 481.207881 501.09065 
L 481.998261 500.333107 
L 482.418571 500.090885 
L 483.019393 499.768588 
L 483.920337 499.533949 
L 484.419988 499.411375 
L 485.906817 498.485023 
L 486.272038 497.737875 
L 486.400733 497.284958 
L 485.896461 496.557135 
L 486.770727 495.375471 
L 487.265913 494.796708 
L 487.520763 494.450082 
L 488.55429 493.679065 
L 488.966862 493.60261 
L 489.658498 493.220413 
L 491.000232 492.537246 
L 491.499576 492.003601 
L 492.426621 491.569317 
L 492.891664 491.322552 
L 493.596812 490.79703 
L 494.02074 490.689624 
L 494.409213 490.05608 
L 494.49664 489.910715 
L 494.562623 489.802269 
L 494.064588 489.52821 
L 493.846041 489.407984 
L 493.955296 489.006653 
L 494.49841 488.236329 
L 495.827402 487.007122 
L 495.483778 486.535611 
L 495.412944 486.433017 
L 495.217148 486.164077 
L 495.110358 485.462663 
L 495.083641 484.336243 
L 495.240862 483.656387 
L 495.693009 482.569118 
L 495.963989 481.859811 
L 496.192661 481.128601 
L 496.296487 480.687118 
L 496.348265 480.473691 
L 496.805455 479.262962 
L 497.206093 478.576946 
L 498.498705 477.094891 
L 499.401612 476.086579 
L 499.927288 475.525717 
L 500.618577 474.99958 
L 501.162462 474.55417 
L 501.402952 474.395909 
L 501.572916 474.284422 
L 501.886705 474.077501 
L 502.629041 473.882591 
L 503.490333 473.872389 
L 504.425424 474.148797 
L 505.283636 474.300206 
L 505.156173 473.917469 
L 504.975776 473.382862 
L 504.904942 472.776035 
L 504.845618 472.068576 
L 504.430313 470.03871 
L 504.260003 468.629722 
L 504.219966 467.69671 
L 504.406907 466.790684 
L 504.89782 465.485099 
L 505.373411 463.892866 
L 505.351276 463.091051 
L 505.504532 462.723637 
L 505.698556 461.769259 
L 505.749488 461.093522 
L 505.848887 460.379096 
L 505.933157 459.307533 
L 505.954176 459.171678 
L 506.098039 458.650891 
L 506.191433 458.273121 
L 506.32648 457.728735 
L 506.597306 456.885113 
L 506.753219 456.37653 
L 506.832176 456.030828 
L 507.011302 455.760156 
L 507.282783 455.104784 
L 507.463102 454.851089 
L 507.900735 454.103017 
L 508.22053 453.438174 
L 509.221835 452.072996 
L 509.760292 451.16289 
L 510.656962 449.814188 
L 511.122544 449.032007 
L 511.408269 448.681762 
L 511.730681 448.203668 
L 512.878736 447.097651 
L 513.588735 446.884417 
L 514.037571 446.720882 
L 514.33369 446.551341 
L 514.5035 446.569974 
L 515.498222 446.19894 
L 515.788836 445.87649 
L 516.060008 445.278093 
L 516.89824 443.681933 
L 517.630568 441.318952 
L 518.289597 439.614731 
L 519.000058 438.605111 
L 519.463908 438.240545 
L 519.860811 437.872745 
L 520.69042 437.338831 
L 521.899994 436.885645 
L 523.51009 436.420448 
L 526.174001 435.494481 
L 526.327989 435.534749 
L 526.54438 435.450325 
L 526.911025 435.135497 
L 527.548342 435.059427 
L 527.964263 434.805963 
L 528.18281 434.566473 
L 528.673146 434.3271 
L 528.890115 434.333144 
L 529.175723 434.171533 
L 530.20132 433.675962 
L 530.585597 433.345312 
L 531.407814 432.85744 
L 532.09818 432.522209 
L 532.534119 432.085885 
L 532.868966 431.78353 
L 533.362882 431.555435 
L 533.696188 430.989761 
L 534.181442 430.87581 
L 534.355833 430.691641 
L 534.591973 430.680323 
L 534.716011 430.413654 
L 535.036575 430.155302 
L 535.302165 429.972865 
L 535.504158 429.955926 
L 535.705613 429.766136 
L 535.959154 429.449152 
L 536.650905 428.756323 
L 537.404136 428.050443 
L 538.144471 427.353571 
L 539.457563 426.779543 
L 539.874716 426.683147 
L 540.268039 426.302643 
L 540.619363 426.245783 
L 541.000097 426.365778 
L 541.506717 426.362698 
L 542.241431 426.388222 
L 542.326009 426.454475 
L 542.650577 426.45024 
L 543.598641 426.185343 
L 544.192995 426.10269 
L 544.348792 426.129137 
L 544.419319 426.205515 
L 545.051092 426.299525 
L 545.337779 425.898079 
L 545.730948 425.808958 
L 546.047123 425.982387 
L 546.262206 425.887531 
L 547.995338 425.610584 
L 549.763579 426.204206 
L 551.158555 427.034816 
L 552.393421 427.801137 
L 554.750704 429.261249 
L 556.33724 430.563523 
L 559.728243 433.9767 
L 560.080798 434.464572 
L 561.10166 435.861588 
L 563.20829 435.722575 
L 565.555717 435.469227 
L 566.514407 434.990479 
L 567.178941 434.434583 
L 567.077656 434.295609 
L 566.570959 433.717808 
L 566.495158 433.631344 
L 566.651571 433.644318 
L 567.642483 433.801655 
L 568.149333 433.684278 
L 568.406454 433.624877 
L 568.983177 433.739752 
L 569.212003 433.831066 
L 569.842005 434.082066 
L 569.989795 434.162256 
L 570.962805 434.753915 
L 572.131842 435.643695 
L 572.251221 436.086718 
L 573.330098 436.35277 
L 573.453519 436.523312 
L 573.662865 436.586562 
L 574.149929 436.497673 
L 574.258105 436.293023 
L 573.95421 435.979311 
L 572.624757 435.52062 
L 572.46434 435.465262 
L 572.136423 435.260804 
L 571.849852 434.782672 
L 571.767006 434.0182 
L 572.686159 433.715768 
L 572.813199 433.673922 
L 573.716915 433.3743 
L 573.884608 433.359787 
L 574.991934 433.26493 
L 575.205168 433.263968 
L 576.517336 433.245797 
L 576.47907 433.030253 
L 576.252939 431.702224 
L 575.798753 430.931477 
L 575.753904 430.7393 
L 575.577203 430.050436 
L 575.522383 429.613265 
L 575.590561 429.104143 
L 575.829858 428.440109 
L 576.007714 428.095869 
L 576.301215 427.679602 
L 577.007287 426.67872 
L 577.686373 426.16852 
L 578.259977 425.737123 
L 578.895254 424.857699 
L 579.906068 423.964647 
L 580.550468 423.395277 
L 580.959036 422.777902 
L 581.389009 422.230244 
L 581.988868 421.674271 
L 582.444864 420.91003 
L 582.695402 420.487488 
L 583.035792 419.914268 
L 583.145162 419.788576 
L 583.153863 419.776796 
L 583.366096 419.526797 
L 583.7712 418.845901 
L 584.24656 417.965322 
L 585.043485 416.570116 
L 585.318122 416.175792 
L 585.634297 415.721797 
L 586.462328 414.785629 
L 587.246626 413.880951 
L 587.777653 412.633111 
L 588.186606 411.672035 
L 588.509134 411.368679 
L 589.745925 410.210845 
L 590.608949 408.933131 
L 591.280105 407.767521 
L 591.490914 407.404803 
L 591.565059 407.308253 
L 591.753386 407.062989 
L 592.257773 405.656041 
L 592.993026 404.740815 
L 593.126341 403.843412 
L 595.118019 400.978162 
L 596.084639 397.729675 
L 596.632912 395.533732 
L 596.979115 394.146918 
L 596.442468 392.792211 
L 595.197823 392.720068 
L 593.866483 392.716334 
L 593.543571 391.757221 
L 591.90799 392.109121 
L 591.696911 392.154509 
L 591.179281 392.26334 
L 591.064214 392.287555 
L 590.880122 392.3284 
L 590.611413 392.38807 
L 589.250238 392.680916 
L 589.015638 392.731386 
L 588.061491 392.936652 
L 588.130401 392.649195 
L 588.176982 392.454862 
L 588.189878 392.401082 
L 588.248509 392.155818 
L 588.291318 391.976846 
L 588.30918 391.902162 
L 588.33147 391.808922 
L 588.365116 391.669063 
L 588.413007 391.470034 
L 588.426288 391.41479 
L 588.480646 391.188967 
L 588.531462 390.977773 
L 588.558679 390.864669 
L 588.629783 390.603968 
L 588.684834 390.402244 
L 588.742117 390.192166 
L 588.807369 389.952946 
L 588.812104 389.935623 
L 588.848022 389.780634 
L 588.888482 389.606127 
L 588.942763 389.372027 
L 588.98792 389.177194 
L 589.03146 388.989329 
L 589.077348 388.791455 
L 589.135132 388.542187 
L 589.172436 388.381232 
L 589.228295 388.140318 
L 589.287272 387.885853 
L 589.323883 387.7279 
L 589.38132 387.480172 
L 589.444725 387.20669 
L 589.557713 386.719203 
L 589.621849 386.442641 
L 589.682443 386.18117 
L 589.709276 386.065487 
L 589.744423 385.921162 
L 589.805672 385.669661 
L 589.842591 385.518099 
L 589.898642 385.287925 
L 589.931095 385.154572 
L 589.989995 384.912734 
L 590.061446 384.619387 
L 590.113609 384.405114 
L 590.183827 384.116848 
L 590.250928 383.841364 
L 590.310213 383.597948 
L 590.373925 383.336284 
L 590.442642 383.054063 
L 590.514439 382.759254 
L 590.592434 382.438921 
L 590.60791 382.375285 
L 590.706154 382.085288 
L 590.811713 381.773694 
L 590.904644 381.499403 
L 591.004736 381.203862 
L 591.17189 380.710408 
L 591.231907 380.533245 
L 591.433207 379.938852 
L 591.470434 379.828867 
L 591.553664 379.583333 
L 591.699375 379.153091 
L 591.733137 379.076059 
L 592.538878 377.231748 
L 592.633234 375.615646 
L 592.448141 375.62219 
L 592.299735 375.625809 
L 591.505504 375.645058 
L 591.283416 375.650755 
L 588.737728 376.283029 
L 585.829631 376.986176 
L 582.977008 377.780483 
L 580.668 376.326761 
L 578.289505 374.578115 
L 575.923329 372.88937 
L 575.269035 372.404616 
L 574.695661 371.979841 
L 574.346648 371.72118 
L 573.627371 371.188344 
L 571.289837 369.482506 
L 568.945489 367.718037 
L 568.891054 367.677076 
L 566.643218 368.245368 
L 566.530152 368.273933 
L 564.134564 368.879605 
L 562.884915 367.583336 
L 562.738819 367.431774 
L 562.703749 367.395394 
L 562.652047 367.341768 
L 562.581675 367.268778 
L 562.033748 365.125307 
L 561.969188 364.87319 
L 561.907709 364.873883 
L 561.844266 364.874614 
L 560.801538 364.899291 
L 560.306198 364.896827 
L 559.658256 364.904142 
L 559.518165 364.354906 
L 560.022899 362.96301 
L 560.749336 360.959437 
L 560.969307 359.937035 
L 561.47816 358.761531 
L 562.330867 359.024773 
L 563.236084 359.304839 
L 563.463832 359.375326 
L 563.706786 358.597226 
L 563.800565 358.295872 
L 563.886952 358.020042 
L 564.35342 356.52559 
L 564.591716 355.763967 
L 564.665129 355.52979 
L 564.677179 355.541647 
L 564.731036 355.632885 
L 564.764798 355.69525 
L 564.901269 355.855975 
L 565.072465 356.154249 
L 565.422826 356.664179 
L 565.470793 356.784867 
L 565.634598 357.206563 
L 565.735498 357.475695 
L 565.818344 357.696552 
L 566.368503 358.362703 
L 566.801401 360.020959 
L 566.965976 360.0578 
L 568.136398 359.508757 
L 568.987797 359.368628 
L 569.131121 359.348494 
L 570.85844 358.444201 
L 571.180698 358.240937 
L 571.381729 358.11409 
L 571.606205 357.881799 
L 576.20963 353.117995 
L 577.387598 351.9182 
L 577.747545 351.551593 
L 577.840707 351.440299 
L 578.278302 350.840555 
L 579.035768 349.802331 
L 579.418543 349.400038 
L 580.874882 348.182957 
L 581.371146 347.480965 
L 582.265315 346.216187 
L 582.570634 345.852853 
L 584.25141 343.852705 
L 585.701051 343.440942 
L 585.892727 343.255387 
L 586.34549 342.752039 
L 586.557724 342.381391 
L 586.84826 342.010935 
L 587.045441 341.759511 
L 587.996046 340.464705 
L 589.373313 339.489616 
L 589.482644 339.139486 
L 589.502778 339.053946 
L 589.520371 339.003477 
L 589.758013 338.2171 
L 589.82442 336.783743 
L 589.932789 336.559152 
L 590.057057 336.290174 
L 590.134397 336.122789 
L 590.279492 335.897544 
L 590.551088 335.475887 
L 590.82022 335.058156 
L 590.640478 334.827791 
L 590.27903 334.364672 
L 590.479368 333.758577 
L 590.526566 333.615714 
L 591.052126 333.180853 
L 591.164768 333.087652 
L 591.172852 333.050002 
L 591.322413 332.353746 
L 591.479865 332.165958 
L 591.603864 332.018053 
L 591.942868 331.613681 
L 593.195443 331.104867 
L 593.269742 331.074685 
L 593.904749 331.044619 
L 593.905057 331.419656 
L 593.904172 331.549199 
L 593.167802 333.09666 
L 592.641549 333.306353 
L 592.543305 333.590229 
L 592.360483 334.118754 
L 592.28807 334.328062 
L 592.255656 334.923956 
L 592.217274 335.628527 
L 592.197217 335.99752 
L 592.980245 336.66575 
L 593.676424 336.378293 
L 594.446093 335.918909 
L 595.374793 335.142388 
L 596.401391 334.604162 
L 596.822702 334.383266 
L 597.172254 333.855781 
L 597.370205 333.316439 
L 597.431877 333.142972 
L 597.601687 332.835227 
L 597.882523 332.34647 
L 598.185532 331.851592 
L 598.581704 331.200108 
L 599.048595 330.531186 
L 599.535774 329.83031 
L 599.63806 329.680904 
L 600.029074 328.950193 
L 600.567761 327.943421 
L 601.013055 327.111233 
L 601.036731 327.065729 
L 601.395523 326.375479 
L 601.472478 326.305068 
L 602.130891 325.702784 
L 602.746419 325.139766 
L 603.133813 324.957945 
L 603.390703 324.913789 
L 603.597163 324.973652 
L 605.218307 325.456249 
L 605.860167 325.354733 
L 606.257648 325.193623 
L 606.572514 325.065967 
L 607.775698 324.578288 
L 608.362237 324.340569 
L 609.109924 323.659713 
L 609.994854 322.823328 
L 610.937759 322.081068 
L 611.35753 321.368952 
L 611.455967 321.203492 
L 612.847169 318.874774 
L 613.906104 317.667317 
L 615.748953 317.253398 
L 616.645046 317.575387 
L 617.535442 317.70847 
L 617.76881 317.580738 
L 618.003873 317.456123 
L 618.240552 317.334627 
L 618.47881 317.216249 
L 618.718645 317.101066 
L 618.959944 316.989078 
L 619.202744 316.880286 
L 619.502751 316.675752 
L 619.896074 316.363695 
L 621.006711 315.355768 
L 621.384713 314.402584 
L 622.284848 313.116324 
L 622.636364 312.449596 
L 622.106569 311.313243 
L 621.688646 310.41688 
L 621.638061 310.463462 
L 621.5633 310.532333 
L 621.235922 310.779714 
L 620.934337 311.12353 
L 620.009217 311.363636 
L 619.246015 311.561664 
L 618.936076 311.575099 
L 617.927533 311.61887 
L 613.758045 311.799652 
L 613.678857 311.803078 
L 613.638666 311.804811 
L 613.210657 311.823405 
L 612.330194 311.861555 
L 612.26983 311.864173 
L 612.061521 311.752096 
L 611.933752 311.753456 
L 611.70277 311.716884 
L 611.521835 311.701485 
L 611.400569 311.647589 
L 611.308177 311.545572 
L 611.198461 311.487827 
L 611.027149 311.474353 
L 610.917433 311.539798 
L 610.861612 311.585994 
L 610.774994 311.532098 
L 610.680677 311.483977 
L 610.544013 311.457029 
L 610.393874 311.437781 
L 610.226413 311.422382 
L 610.035853 311.356937 
L 609.643184 311.247221 
L 609.366006 311.118256 
L 609.040707 310.971968 
L 608.794327 310.852627 
L 608.686535 310.804506 
L 608.563345 310.69479 
L 608.478652 310.585074 
L 608.343912 310.454184 
L 608.220722 310.307896 
L 608.109081 310.153908 
L 608.014764 310.042267 
L 607.926221 309.957573 
L 607.818429 309.884429 
L 607.681765 309.81706 
L 607.518153 309.740066 
L 607.435385 309.664997 
L 607.312194 309.6188 
L 607.156282 309.578379 
L 607.027317 309.553355 
L 606.85793 309.56298 
L 606.707792 309.584153 
L 606.538406 309.541806 
L 606.395967 309.493685 
L 606.276627 309.474437 
L 606.193858 309.516783 
L 606.159211 309.584153 
L 606.118789 309.69002 
L 606.070668 309.755464 
L 606.009073 309.770863 
L 605.935929 309.718892 
L 605.858935 309.614951 
L 605.806964 309.534107 
L 605.716496 309.530257 
L 605.647202 309.476362 
L 605.53941 309.387819 
L 605.456642 309.314674 
L 605.319978 309.306975 
L 605.191013 309.276178 
L 605.092846 309.212658 
L 605.10247 309.127964 
L 605.117869 309.05482 
L 605.029326 308.958578 
L 604.886887 308.821914 
L 604.769471 308.687174 
L 604.571212 308.436944 
L 604.4153 308.307979 
L 604.263237 308.213662 
L 604.168919 308.134743 
L 604.099625 308.019252 
L 603.997608 307.91916 
L 603.895591 307.824843 
L 603.789724 307.663156 
L 603.66076 307.499544 
L 603.550703 307.36519 
L 603.314287 307.114574 
L 603.214195 306.997159 
L 603.102554 306.825847 
L 603.008236 306.691108 
L 602.904295 306.575617 
L 602.806127 306.460126 
L 602.729134 306.342711 
L 602.704111 306.21952 
L 602.725284 306.102105 
L 602.773428 306.013265 
L 602.51228 305.586092 
L 602.054321 304.837095 
L 602.019288 304.779773 
L 601.994727 304.739583 
L 601.952458 304.770034 
L 601.098596 305.385253 
L 587.935568 314.869629 
L 586.113045 316.481958 
L 585.840064 316.776113 
L 585.56354 317.06688 
L 585.283436 317.35426 
L 584.999868 317.638175 
L 584.712796 317.918587 
L 584.422337 318.195457 
L 584.128528 318.468747 
L 583.83137 318.738456 
L 583.530902 319.00447 
L 583.227238 319.266788 
L 582.920379 319.525372 
L 582.610363 319.780145 
L 582.297267 320.031145 
L 581.981092 320.278257 
L 581.661952 320.521519 
L 581.33981 320.760816 
L 581.01478 320.996186 
L 580.686902 321.227514 
L 580.441022 321.396477 
L 580.192562 321.561629 
L 579.941601 321.722893 
L 579.688175 321.880307 
L 579.432363 322.033794 
L 579.174203 322.183316 
L 578.913771 322.328835 
L 578.651145 322.47035 
L 578.386324 322.607784 
L 578.119464 322.741099 
L 576.056952 323.761267 
L 575.026196 324.234549 
L 572.091959 325.576937 
L 571.781751 325.711946 
L 571.470003 325.843298 
L 571.156714 325.970953 
L 570.841925 326.094952 
L 570.525711 326.215216 
L 570.20815 326.331785 
L 570.003414 326.404215 
L 569.568947 326.553682 
L 566.05587 327.750167 
L 560.761693 329.553286 
L 556.94657 330.98364 
L 556.561369 331.128042 
L 556.177439 331.27587 
L 555.794857 331.427048 
L 555.413583 331.581575 
L 554.68114 331.889473 
L 554.329779 332.042383 
L 553.630944 332.356826 
L 553.28347 332.518321 
L 552.937344 332.682664 
L 552.227268 333.03083 
L 551.874482 333.209379 
L 551.275123 333.521397 
L 551.027857 333.653364 
L 550.7814 333.786795 
L 550.50607 333.954487 
L 550.23201 334.124259 
L 549.959259 334.296148 
L 549.580141 334.53991 
L 549.203641 334.787677 
L 548.829836 335.039485 
L 548.458687 335.29522 
L 548.09031 335.554921 
L 547.361986 336.086063 
L 547.002117 336.35739 
L 546.645173 336.632566 
L 546.291155 336.911553 
L 545.94014 337.194275 
L 545.402107 337.641532 
L 545.214896 337.805644 
L 545.030573 337.972991 
L 544.849214 338.143532 
L 544.495581 338.49397 
L 544.323384 338.673789 
L 544.154383 338.856611 
L 543.988615 339.04232 
L 543.82739 339.229377 
L 543.669475 339.419205 
L 543.514833 339.611767 
L 543.363578 339.806985 
L 543.21575 340.004744 
L 542.930449 340.407884 
L 542.793092 340.613111 
L 542.659315 340.820686 
L 542.555489 341.018715 
L 542.45559 341.218783 
L 542.359655 341.420777 
L 542.267763 341.624579 
L 542.179875 341.830192 
L 542.096028 342.037498 
L 542.016339 342.246421 
L 541.94077 342.456883 
L 541.869358 342.668771 
L 541.797869 342.896056 
L 541.731193 343.124805 
L 541.669328 343.354901 
L 541.612314 343.586268 
L 541.560151 343.818751 
L 541.512915 344.052312 
L 541.470568 344.286758 
L 541.433188 344.52209 
L 541.400735 344.758153 
L 541.373248 344.994833 
L 541.350766 345.232051 
L 541.33325 345.469654 
L 541.320738 345.707604 
L 541.632871 350.8727 
L 541.6142 350.984495 
L 541.590294 351.09525 
L 541.561229 351.204774 
L 541.527005 351.312835 
L 541.487776 351.419125 
L 541.443544 351.52349 
L 541.394498 351.625623 
L 541.34068 351.725368 
L 541.282241 351.822458 
L 541.219299 351.916698 
L 541.152006 352.007859 
L 541.080479 352.095747 
L 541.004909 352.18021 
L 540.925452 352.261015 
L 540.84226 352.33797 
L 540.755565 352.41096 
L 540.66552 352.479754 
L 540.572358 352.544275 
L 540.414944 352.627352 
L 540.255797 352.706963 
L 540.094919 352.78311 
L 539.932385 352.855677 
L 539.768349 352.924664 
L 539.602812 352.99007 
L 539.43589 353.051857 
L 539.267658 353.109949 
L 525.552391 357.684156 
L 525.527368 357.749601 
L 525.475397 357.830444 
L 525.415727 357.882415 
L 525.356057 357.924762 
L 525.294462 357.961334 
L 525.215543 357.984432 
L 525.146249 357.999831 
L 525.073104 358.009455 
L 524.984561 358.01138 
L 524.928741 358.00368 
L 524.861371 358.005605 
L 524.788227 358.01523 
L 524.688135 358.046027 
L 524.591893 358.082599 
L 524.501425 358.097998 
L 524.414807 358.117246 
L 524.314715 358.148044 
L 524.187675 358.178842 
L 524.047161 358.20194 
L 523.877774 358.240437 
L 523.733411 358.277009 
L 523.658342 358.298182 
L 523.564024 358.32898 
L 523.479331 358.371326 
L 523.379239 358.436771 
L 523.327268 358.473343 
L 523.250274 358.519539 
L 523.142483 358.561886 
L 523.015443 358.594608 
L 522.907651 358.627331 
L 522.801785 358.685076 
L 522.711317 358.727423 
L 522.620849 358.756296 
L 522.509208 358.781319 
L 522.420665 358.796717 
L 522.309024 358.831365 
L 522.185834 358.912208 
L 522.126164 358.981503 
L 522.058794 359.07967 
L 521.983725 359.152814 
L 521.916355 359.204785 
L 521.837436 359.260606 
L 521.718096 359.349149 
L 521.606455 359.431917 
L 521.523686 359.506986 
L 521.456317 359.595529 
L 521.42167 359.680222 
L 521.404346 359.720644 
L 521.392797 359.776465 
L 521.365849 359.855383 
L 521.302329 359.9651 
L 521.208012 360.070966 
L 521.144492 360.122937 
L 521.030926 360.224954 
L 520.952007 360.292324 
L 520.865389 360.371242 
L 520.772996 360.479034 
L 520.705626 360.5849 
L 520.632482 360.696541 
L 520.574737 360.787009 
L 520.493893 360.917899 
L 520.457321 361.008367 
L 520.393801 361.162354 
L 520.363004 361.262447 
L 520.347605 361.362539 
L 520.34183 361.453006 
L 520.339905 361.545399 
L 520.34568 361.658965 
L 520.376478 361.726335 
L 520.40535 361.812953 
L 520.434223 361.932293 
L 520.434223 361.995813 
L 520.424599 362.055483 
L 520.337981 362.213321 
L 520.284085 362.317263 
L 520.243663 362.428904 
L 520.21479 362.527071 
L 520.097375 362.765752 
L 519.991508 362.950537 
L 519.893341 363.108375 
L 519.789399 363.277761 
L 519.71818 363.374004 
L 519.660434 363.445223 
L 519.606539 363.522217 
L 519.558418 363.643482 
L 519.535319 363.728176 
L 519.508372 363.828268 
L 519.492973 363.922585 
L 519.475649 364.014978 
L 519.435227 364.147792 
L 519.394806 364.265208 
L 519.356309 364.36145 
L 519.302413 364.473091 
L 519.248517 364.561634 
L 519.188847 364.669426 
L 519.121477 364.769518 
L 519.084905 364.840737 
L 519.013686 364.960078 
L 518.95979 365.046696 
L 518.915519 365.142938 
L 518.861623 365.24303 
L 518.809652 365.316174 
L 518.746132 365.385469 
L 518.661439 365.512509 
L 518.597919 365.602977 
L 518.528624 365.67997 
L 518.432382 365.789687 
L 518.390035 365.828184 
L 518.338065 365.914802 
L 518.303417 366.036067 
L 518.261071 366.138084 
L 518.220649 366.232402 
L 518.174453 366.334418 
L 518.128256 366.44221 
L 518.089759 366.551926 
L 518.057037 366.650093 
L 518.003141 366.742486 
L 517.935772 366.867601 
L 517.893425 366.971543 
L 517.862627 367.079334 
L 517.835679 367.190975 
L 517.795258 367.310316 
L 517.770235 367.38346 
L 517.70479 367.593268 
L 517.677842 367.662563 
L 517.629721 367.749181 
L 517.579675 367.862747 
L 517.548877 367.968614 
L 517.51808 368.112977 
L 517.479583 368.226543 
L 517.44686 368.330485 
L 517.38719 368.449825 
L 517.325595 368.530669 
L 517.237052 368.619212 
L 517.131185 368.734703 
L 517.002221 368.913714 
L 516.932926 369.033054 
L 516.87903 369.160094 
L 516.838609 369.27751 
L 516.803961 369.387226 
L 516.765465 369.489243 
L 516.69232 369.600884 
L 516.588379 369.71445 
L 516.488287 369.854964 
L 516.434391 369.970455 
L 516.417067 370.068622 
L 516.38627 370.257257 
L 516.372796 370.380447 
L 516.365096 370.457441 
L 516.355472 370.545984 
L 516.363171 370.626827 
L 516.374721 370.709596 
L 516.380495 370.788515 
L 516.374721 370.882832 
L 516.349698 370.959826 
L 516.291952 371.034895 
L 516.224583 371.102265 
L 516.161063 371.185033 
L 516.099467 371.275501 
L 516.034023 371.344795 
L 515.94163 371.416015 
L 515.843463 371.450662 
L 515.681776 371.483384 
L 515.483516 371.500708 
L 515.081223 371.456436 
L 514.807895 371.444887 
L 514.55189 371.435263 
L 514.303585 371.427564 
L 513.914766 371.487234 
L 513.73768 371.548829 
L 513.522097 371.595025 
L 513.319988 371.618124 
L 513.065909 371.646996 
L 512.715586 371.650846 
L 512.451882 371.625823 
L 512.211276 371.670094 
L 511.951422 371.72784 
L 511.397066 371.852955 
L 511.196882 371.860654 
L 510.948577 371.868354 
L 510.682948 371.889527 
L 510.39807 371.951122 
L 510.165164 372.047364 
L 510.061222 372.112809 
L 509.932258 372.201352 
L 509.762871 372.343791 
L 509.653155 372.443883 
L 509.533814 372.536276 
L 509.39715 372.722986 
L 509.272035 372.913546 
L 509.041053 373.154152 
L 508.831245 373.323538 
L 508.718047 373.365987 
L 508.540593 373.415931 
L 508.434727 373.444803 
L 508.286513 373.48715 
L 508.117127 373.481376 
L 507.957364 373.464052 
L 507.766805 373.446728 
L 507.695585 373.442879 
L 507.657088 373.42748 
L 507.593568 373.404382 
L 507.528124 373.390908 
L 507.472303 373.410156 
L 507.422257 373.437104 
L 507.368361 373.450578 
L 507.308691 373.450578 
L 507.249021 373.439029 
L 507.183576 373.421705 
L 507.114281 373.396682 
L 507.087334 373.373584 
L 507.062311 373.329313 
L 507.035363 373.286966 
L 507.00264 373.281191 
L 506.941045 373.290816 
L 506.854427 373.279267 
L 506.792832 373.271567 
L 506.704289 373.254244 
L 506.654243 373.217671 
L 506.606122 373.1734 
L 506.581099 373.132978 
L 506.550301 373.071383 
L 506.511804 373.023262 
L 506.471383 372.98669 
L 506.43481 372.950118 
L 506.384764 372.886598 
L 506.340493 372.842326 
L 506.032787 372.920167 
L 505.502261 373.038969 
L 493.77282 375.665153 
L 490.838006 376.322257 
L 485.460176 377.526365 
L 484.116594 377.827218 
L 484.04499 377.833455 
L 483.937198 377.808432 
L 483.848655 377.758386 
L 483.752413 377.698715 
L 483.686968 377.656369 
L 483.5965 377.594774 
L 483.500258 377.525479 
L 483.430963 377.460034 
L 483.386692 377.379191 
L 483.332796 377.279099 
L 483.2789 377.163608 
L 483.242328 377.028869 
L 483.221155 376.94995 
L 483.188433 376.853708 
L 483.151861 376.757465 
L 483.115288 376.672772 
L 483.072942 376.574605 
L 483.02867 376.44949 
L 482.988249 376.328224 
L 482.957451 376.25123 
L 482.893931 376.112641 
L 482.840035 376.002925 
L 482.788064 375.927856 
L 482.707221 375.852787 
L 482.593655 375.766169 
L 482.485864 375.652603 
L 482.406945 375.544812 
L 482.34535 375.43702 
L 482.299153 375.346552 
L 482.239483 375.231062 
L 482.187512 375.136744 
L 482.127842 375.034727 
L 482.050848 374.919236 
L 481.971929 374.822994 
L 481.885311 374.74985 
L 481.812167 374.676706 
L 481.733248 374.597787 
L 481.671653 374.547741 
L 481.602359 374.501544 
L 481.515741 374.441874 
L 481.411799 374.37258 
L 481.313632 374.30136 
L 481.236638 374.24939 
L 481.173118 374.183945 
L 481.126921 374.106951 
L 481.069176 374.010708 
L 481.001806 373.939489 
L 480.901714 373.843247 
L 480.82857 373.781652 
L 480.757351 373.74508 
L 480.674582 373.756629 
L 480.584115 373.731606 
L 480.487872 373.695034 
L 480.441676 373.698883 
L 480.366607 373.752779 
L 480.258815 373.764328 
L 480.145249 373.731606 
L 480.043233 373.700808 
L 479.931591 373.683484 
L 479.804552 373.675785 
L 479.69676 373.646912 
L 479.488877 373.587242 
L 479.381085 373.541046 
L 479.292542 373.496774 
L 479.178976 373.454428 
L 479.067335 373.429405 
L 478.976867 373.42748 
L 478.888324 373.435179 
L 478.813255 373.444803 
L 478.701614 373.448653 
L 478.616921 373.41978 
L 478.526453 373.346636 
L 478.457159 373.279267 
L 478.206929 373.079083 
L 478.147258 373.011713 
L 478.081813 372.944343 
L 477.993271 372.875049 
L 477.904728 372.798055 
L 477.639099 372.642142 
L 477.390793 372.455432 
L 477.221407 372.286046 
L 477.088592 372.118584 
L 476.975026 371.987694 
L 476.867235 371.897226 
L 476.620585 371.688765 
L 476.551024 371.596202 
L 475.548445 370.545214 
L 468.394944 363.045971 
L 462.430243 356.773486 
L 462.35796 356.697472 
L 462.122907 356.45029 
L 461.791833 356.083761 
L 461.700441 355.931506 
L 461.620379 355.86844 
L 461.412407 355.553928 
L 461.373179 355.205145 
L 461.179462 355.07083 
L 461.078985 354.947601 
L 460.874836 354.616758 
L 460.832682 354.450913 
L 460.884883 354.40079 
L 460.824559 354.152369 
L 460.818284 354.106135 
L 460.776014 353.746381 
L 460.666413 353.377234 
L 460.671963 353.262504 
L 460.652963 353.194531 
L 460.466961 352.529107 
L 456.229487 337.369936 
L 455.816838 335.893694 
L 455.714821 335.538136 
L 455.687373 335.442433 
L 455.657114 335.33699 
L 455.332277 334.204833 
L 455.160581 333.606398 
L 455.13833 333.534948 
L 452.952088 325.984966 
L 452.877212 325.75129 
L 452.798563 325.518845 
L 452.716218 325.287671 
L 452.630138 325.057883 
L 452.540402 324.829481 
L 452.447008 324.60258 
L 452.349996 324.37718 
L 451.094072 321.381541 
L 450.898238 320.934476 
L 450.698054 320.489374 
L 450.493481 320.046274 
L 450.284558 319.605215 
L 450.071285 319.166196 
L 449.631881 318.294586 
L 449.438017 317.923789 
L 449.175384 317.431793 
L 448.940823 317.003822 
L 448.702026 316.578162 
L 448.459072 316.154888 
L 446.734486 313.092533 
L 446.646751 312.940393 
L 446.555745 312.790178 
L 446.461466 312.642004 
L 446.363991 312.495946 
L 446.263322 312.352006 
L 446.159534 312.210337 
L 446.148178 312.195208 
L 446.125349 312.165026 
L 446.111028 312.148049 
L 446.096707 312.131072 
L 446.082348 312.114095 
L 445.930169 311.93751 
L 445.775219 311.763349 
L 445.617536 311.591615 
L 445.457196 311.422382 
L 445.2942 311.255729 
L 445.128625 311.091616 
L 444.932252 310.903482 
L 444.732453 310.719004 
L 444.529304 310.538223 
L 444.322884 310.361175 
L 444.113268 310.187939 
L 443.900495 310.018553 
L 443.684643 309.853093 
L 443.465826 309.691637 
L 443.244084 309.534223 
L 443.019493 309.380889 
L 442.79213 309.231675 
L 442.533854 309.082037 
L 442.273653 308.935788 
L 442.011566 308.793002 
L 441.747592 308.653643 
L 441.481848 308.517788 
L 441.214333 308.385397 
L 439.140117 307.425591 
L 437.660218 306.502203 
L 436.856402 305.65658 
L 434.157574 302.817315 
L 432.553329 301.129686 
L 432.437608 301.00792 
L 422.878086 290.852581 
L 422.064491 289.988248 
L 422.017102 289.937932 
L 421.976487 289.894854 
L 421.259212 289.134963 
L 420.743007 288.588037 
L 420.097452 287.909374 
L 418.993205 286.748461 
L 417.583717 285.266675 
L 415.632576 283.245739 
L 414.445793 281.961944 
L 410.322616 277.605976 
L 409.663395 276.927006 
L 409.52827 276.777137 
L 409.396611 276.624227 
L 409.268455 276.468315 
L 409.143956 276.309553 
L 409.023075 276.147943 
L 408.905929 275.983638 
L 408.792594 275.816677 
L 408.683109 275.647175 
L 408.577512 275.475209 
L 408.47588 275.300856 
L 408.37829 275.124271 
L 408.284742 274.945453 
L 408.195314 274.764555 
L 408.110043 274.581656 
L 407.700397 273.578118 
L 407.642267 273.405883 
L 407.588256 273.232339 
L 407.538479 273.057524 
L 407.492899 272.881555 
L 407.451553 272.704546 
L 407.41448 272.526613 
L 407.381681 272.347833 
L 407.353193 272.168322 
L 407.329056 271.988156 
L 407.048837 269.60304 
L 407.03209 269.457714 
L 407.012072 269.312811 
L 406.988704 269.168371 
L 406.962103 269.024546 
L 406.932191 268.881337 
L 406.695127 267.783982 
L 406.471228 266.747721 
L 406.282093 265.54858 
L 406.229814 265.216968 
L 406.003375 263.987067 
L 405.938585 263.66531 
L 405.870253 263.344245 
L 405.798456 263.023989 
L 405.723156 262.704503 
L 405.644391 262.385864 
L 405.562162 262.06811 
L 405.520046 261.899686 
L 405.473811 261.732379 
L 405.423457 261.566264 
L 405.369022 261.40142 
L 405.310546 261.237962 
L 405.248027 261.076044 
L 405.181504 260.915666 
L 405.111093 260.75702 
L 404.994062 260.491776 
L 404.872643 260.228496 
L 404.74695 259.967255 
L 404.644713 259.763417 
L 404.482746 259.451165 
L 404.344311 259.196431 
L 404.201718 258.944007 
L 404.054968 258.693969 
L 403.904137 258.446395 
L 403.815209 258.287595 
L 403.722701 258.130836 
L 403.626689 257.976232 
L 403.527175 257.823823 
L 403.424234 257.673723 
L 403.317905 257.525972 
L 403.208266 257.380723 
L 403.095355 257.237938 
L 402.979248 257.09777 
L 402.859984 256.960298 
L 402.490337 256.576791 
L 401.698339 255.755228 
L 401.55105 255.599238 
L 401.400488 255.446329 
L 401.212951 255.264993 
L 401.090011 255.150172 
L 400.93021 255.007001 
L 400.767445 254.867219 
L 400.601792 254.730824 
L 400.43333 254.597971 
L 400.262095 254.46866 
L 400.088243 254.342929 
L 399.965669 254.244724 
L 399.840207 254.150214 
L 399.712013 254.059438 
L 399.581161 253.97255 
L 399.447808 253.889551 
L 399.312029 253.810555 
L 399.173979 253.735601 
L 399.033773 253.664806 
L 398.891527 253.598167 
L 398.747356 253.535841 
L 398.601414 253.477749 
L 398.453778 253.424084 
L 398.304641 253.37477 
L 398.154118 253.329921 
L 398.002594 253.289614 
L 397.849915 253.253851 
L 397.696274 253.222591 
L 397.541747 253.195913 
L 397.386489 253.173816 
L 397.230692 253.156338 
L 397.074395 253.14348 
L 396.917828 253.13528 
L 396.761068 253.1317 
L 396.60427 253.132739 
L 396.447549 253.138475 
L 396.291097 253.148831 
L 393.106823 253.430937 
L 391.70896 253.554781 
L 391.422235 253.579843 
L 389.824073 253.719317 
L 374.592027 255.049079 
L 374.429532 255.058741 
L 374.266805 255.063399 
L 374.10404 255.062976 
L 373.941352 255.057548 
L 373.778895 255.047038 
L 373.616861 255.031524 
L 373.455366 255.011005 
L 373.294603 254.985443 
L 373.134687 254.954954 
L 372.97581 254.919498 
L 372.818127 254.879153 
L 372.661752 254.833919 
L 372.50684 254.783873 
L 372.353584 254.729054 
L 372.20206 254.669499 
L 372.052499 254.605286 
L 371.904979 254.536492 
L 371.759653 254.463117 
L 360.007577 248.967909 
L 358.374652 248.204323 
L 357.646598 247.863933 
L 355.508863 246.862435 
L 353.234733 245.96407 
L 350.524048 244.517124 
L 341.217566 237.274002 
L 340.963679 237.09526 
L 340.706827 236.920792 
L 340.44705 236.750713 
L 340.184424 236.58506 
L 339.919064 236.423835 
L 339.65101 236.267114 
L 339.380338 236.114974 
L 339.107125 235.967377 
L 338.831487 235.824438 
L 338.553462 235.686157 
L 338.273166 235.552611 
L 337.990637 235.4238 
L 337.705991 235.299801 
L 337.419266 235.180615 
L 337.130577 235.066279 
L 336.832649 235.003837 
L 336.533643 234.946554 
L 336.233752 234.89439 
L 335.932976 234.847424 
L 335.631429 234.805655 
L 335.329228 234.769083 
L 335.02645 234.737708 
L 334.723132 234.711568 
L 334.41943 234.690664 
L 334.11542 234.674996 
L 333.811217 234.664563 
L 333.506821 234.659366 
L 333.202426 234.659405 
L 332.898031 234.664679 
L 332.593828 234.675227 
L 332.289818 234.691011 
L 331.986115 234.711992 
L 331.682836 234.738247 
L 328.919218 235.04653 
L 328.587103 235.077913 
L 328.485742 235.087491 
L 328.052613 235.131801 
L 327.619831 235.179422 
L 327.187433 235.230391 
L 326.75542 235.284634 
L 326.32387 235.342225 
L 325.892742 235.403127 
L 325.557704 235.464491 
L 325.223627 235.530822 
L 324.89059 235.602156 
L 324.558669 235.678419 
L 324.227865 235.759609 
L 323.89837 235.845765 
L 323.570145 235.936772 
L 323.243344 236.032706 
L 322.917968 236.133453 
L 322.594171 236.239088 
L 322.27199 236.349498 
L 321.951464 236.464719 
L 321.632709 236.584675 
L 321.382507 236.68314 
L 321.000705 236.838832 
L 320.604033 236.992858 
L 320.205859 237.142958 
L 319.806222 237.289092 
L 319.405122 237.431223 
L 319.002637 237.569389 
L 318.598804 237.703512 
L 318.193662 237.833632 
L 318.051416 237.882022 
L 317.907822 237.926332 
L 317.762997 237.966446 
L 317.617094 238.002402 
L 317.470228 238.034162 
L 317.322476 238.061649 
L 317.174032 238.084901 
L 317.024934 238.10388 
L 316.875373 238.118509 
L 316.725466 238.128865 
L 316.575328 238.134909 
L 316.319323 238.139721 
L 316.063319 238.140606 
L 315.807314 238.137565 
L 315.551348 238.130635 
L 315.295574 238.119818 
L 315.039954 238.105074 
L 314.784604 238.086403 
L 314.529562 238.063882 
L 314.274905 238.037434 
L 313.997188 238.003095 
L 313.720125 237.963944 
L 313.443794 237.91998 
L 313.168272 237.871205 
L 312.893596 237.817655 
L 312.61996 237.759333 
L 312.347324 237.696236 
L 312.075844 237.628404 
L 311.805595 237.555876 
L 311.536656 237.478651 
L 311.269102 237.39673 
L 311.003011 237.310189 
L 310.73846 237.219028 
L 310.475526 237.123248 
L 310.180601 237.010644 
L 309.887177 236.894075 
L 309.595371 236.773618 
L 309.305142 236.649312 
L 309.016646 236.521117 
L 308.729882 236.389072 
L 308.444889 236.253217 
L 308.161744 236.113588 
L 307.86116 235.960178 
L 307.562848 235.802456 
L 307.266768 235.640538 
L 306.973036 235.474385 
L 306.681691 235.304075 
L 306.39281 235.129645 
L 306.10647 234.951096 
L 305.918385 234.83006 
L 305.541527 234.581833 
L 305.263079 234.391197 
L 304.987364 234.196633 
L 304.713458 233.993639 
L 304.441747 233.78768 
L 304.172268 233.578796 
L 303.905061 233.367024 
L 303.640163 233.152365 
L 303.377614 232.934896 
L 303.117413 232.714578 
L 302.859599 232.49145 
L 302.667076 232.323795 
L 302.476054 232.154409 
L 302.286534 231.983328 
L 302.098592 231.810554 
L 301.834464 231.562441 
L 301.573493 231.311018 
L 301.315756 231.056322 
L 301.061253 230.798354 
L 300.810022 230.537152 
L 300.562179 230.272832 
L 300.317685 230.005356 
L 300.076578 229.734799 
L 299.838975 229.461201 
L 299.604837 229.184639 
L 299.37424 228.905113 
L 299.147185 228.622661 
L 298.96879 228.369159 
L 298.7949 228.112538 
L 298.625629 227.852838 
L 298.460977 227.590212 
L 298.300984 227.324698 
L 298.145764 227.056374 
L 297.995318 226.785356 
L 297.849723 226.511681 
L 297.709017 226.235466 
L 297.573199 225.956825 
L 297.442387 225.675797 
L 297.316579 225.392498 
L 297.195814 225.107005 
L 297.080131 224.819394 
L 296.969567 224.52982 
L 296.864163 224.238283 
L 296.763955 223.944936 
L 296.668983 223.649857 
L 296.579247 223.353161 
L 296.522656 223.178462 
L 296.4703 223.002416 
L 296.422218 222.825176 
L 296.378447 222.646819 
L 296.338987 222.467462 
L 296.303878 222.287219 
L 296.273158 222.106168 
L 296.246787 221.924424 
L 296.224844 221.742103 
L 296.207328 221.559281 
L 296.1942 221.376112 
L 296.1691 221.075875 
L 296.148466 220.775291 
L 296.132297 220.474476 
L 296.120556 220.173391 
L 296.113318 219.872229 
L 296.110508 219.570952 
L 296.112202 219.269675 
L 296.11813 219.009513 
L 296.128178 218.749505 
L 296.142345 218.489689 
L 296.160631 218.230104 
L 296.182998 217.970865 
L 296.209445 217.712012 
L 296.240012 217.453582 
L 296.274659 217.195691 
L 296.313387 216.938378 
L 296.398581 216.565535 
L 296.826282 214.378485 
L 296.940849 213.625061 
L 297.011914 213.095959 
L 297.159242 211.617908 
L 297.211983 210.571638 
L 297.205361 209.806126 
L 297.192388 209.518092 
L 297.174102 209.230366 
L 297.150503 208.943025 
L 297.121592 208.656146 
L 297.087406 208.369882 
L 297.047909 208.084274 
L 297.003137 207.799473 
L 296.953091 207.51552 
L 296.897809 207.232567 
L 296.83733 206.950654 
L 296.771616 206.669934 
L 296.700743 206.390485 
L 296.624712 206.112383 
L 296.543522 205.835706 
L 296.457289 205.560607 
L 296.365935 205.287124 
L 296.269539 205.015413 
L 296.168176 204.745511 
L 296.061809 204.477534 
L 295.950515 204.211558 
L 295.834331 203.9477 
L 295.713258 203.686037 
L 295.58283 203.421486 
L 295.447552 203.15936 
L 295.307462 202.899775 
L 295.162598 202.642846 
L 295.013037 202.388613 
L 294.85878 202.137189 
L 294.699903 201.888653 
L 294.536484 201.643081 
L 294.36856 201.400589 
L 294.196209 201.161253 
L 294.019431 200.925113 
L 293.838342 200.692283 
L 293.652979 200.462842 
L 293.46342 200.236865 
L 293.269703 200.014391 
L 293.071945 199.795574 
L 292.870144 199.580415 
L 292.430855 199.033219 
L 292.283951 198.841582 
L 292.140973 198.64698 
L 292.002038 198.449529 
L 291.867144 198.249268 
L 291.736332 198.046273 
L 291.609715 197.840661 
L 291.487333 197.632547 
L 291.369225 197.42193 
L 291.29005 197.273758 
L 291.14602 196.993728 
L 291.041 196.776298 
L 290.940446 196.55675 
L 290.844435 196.3352 
L 290.752927 196.111763 
L 290.666001 195.886479 
L 290.589469 195.675901 
L 290.51698 195.463898 
L 290.448493 195.250548 
L 290.38405 195.035928 
L 290.323686 194.820153 
L 290.267442 194.603299 
L 290.215279 194.385368 
L 290.167273 194.166513 
L 290.123425 193.946773 
L 290.083735 193.726262 
L 290.042428 193.49632 
L 289.999542 193.14311 
L 289.961469 192.789323 
L 289.928246 192.435075 
L 289.910054 192.207967 
L 289.899835 192.080402 
L 289.876236 191.725384 
L 289.857488 191.370057 
L 289.843553 191.014538 
L 289.834506 190.658826 
L 289.830271 190.303076 
L 289.830887 189.947248 
L 289.875428 188.021169 
L 289.878123 187.764433 
L 289.875774 187.507697 
L 289.868345 187.251038 
L 289.855872 186.994571 
L 289.838317 186.738413 
L 289.815719 186.482639 
L 289.788078 186.227404 
L 289.755395 185.972709 
L 289.717706 185.718744 
L 289.689229 185.549861 
L 289.675013 185.46555 
L 289.627315 185.21328 
L 289.574651 184.961971 
L 289.51706 184.71178 
L 289.454541 184.462743 
L 289.387094 184.214977 
L 289.314797 183.968635 
L 289.237611 183.723717 
L 289.155651 183.480417 
L 289.054481 183.18938 
L 288.948268 182.900152 
L 288.837089 182.612773 
L 288.720982 182.327356 
L 288.599947 182.04398 
L 288.474062 181.76276 
L 288.343327 181.483734 
L 288.207818 181.207018 
L 288.067535 180.932689 
L 287.922517 180.660824 
L 287.772879 180.391461 
L 287.618583 180.124754 
L 287.459706 179.860742 
L 287.296287 179.59954 
L 287.128402 179.341149 
L 286.95609 179.085721 
L 286.779389 178.833297 
L 286.598376 178.583991 
L 286.413052 178.337803 
L 286.192541 178.045342 
L 285.967873 177.756037 
L 285.739124 177.469966 
L 285.506333 177.187168 
L 285.2695 176.907718 
L 285.02874 176.631695 
L 284.784054 176.359099 
L 284.535517 176.090043 
L 284.28317 175.824569 
L 284.02705 175.562674 
L 283.767234 175.304475 
L 283.503761 175.05001 
L 283.236708 174.799318 
L 282.966113 174.552476 
L 282.692014 174.309483 
L 282.486787 174.142021 
L 282.279212 173.977524 
L 282.069288 173.816029 
L 281.857093 173.657537 
L 281.642626 173.502087 
L 281.425965 173.349716 
L 281.207187 173.200463 
L 280.986253 173.054329 
L 280.902253 172.999933 
L 280.778331 172.933718 
L 278.945839 171.954163 
L 275.95324 170.354461 
L 274.334174 168.833601 
L 270.314516 169.414943 
L 266.801063 169.926235 
L 266.334976 169.997397 
L 265.793089 170.080132 
L 263.165327 170.531855 
L 262.317354 170.81142 
L 253.887756 172.359459 
L 250.031749 173.067572 
L 245.731679 173.831158 
L 245.427784 173.934292 
L 245.189334 174.04524 
L 244.701616 174.335468 
L 244.413043 174.458389 
L 243.888176 174.565103 
L 241.684649 174.965317 
" clip-path="url(#p6951b91ec6)" style="fill: #d3d3d3"/>
   </g>
   <g id="PatchCollection_2">
    <path d="M 459.559344 399.780264 
L 459.559344 399.741767 
L 459.520847 399.741767 
L 459.520847 399.780264 
L 459.559344 399.780264 
" clip-path="url(#p6951b91ec6)" style="fill: #ff0000; fill-opacity: 0.7; stroke: #000000; stroke-opacity: 0.7; stroke-width: 0.5"/>
    <path d="M 193.452966 184.381568 
L 193.452966 184.343071 
L 193.414469 184.343071 
L 193.414469 184.381568 
L 193.452966 184.381568 
" clip-path="url(#p6951b91ec6)" style="fill: #ff0000; fill-opacity: 0.7; stroke: #000000; stroke-opacity: 0.7; stroke-width: 0.5"/>
    <path d="M 451.33774 369.856337 
L 451.33774 369.81784 
L 451.299243 369.81784 
L 451.299243 369.856337 
L 451.33774 369.856337 
" clip-path="url(#p6951b91ec6)" style="fill: #ff0000; fill-opacity: 0.7; stroke: #000000; stroke-opacity: 0.7; stroke-width: 0.5"/>
    <path d="M 177.260405 198.067554 
L 177.260405 198.029057 
L 177.221908 198.029057 
L 177.221908 198.067554 
L 177.260405 198.067554 
" clip-path="url(#p6951b91ec6)" style="fill: #ff0000; fill-opacity: 0.7; stroke: #000000; stroke-opacity: 0.7; stroke-width: 0.5"/>
    <path d="M 256.59925 235.993147 
L 256.59925 235.95465 
L 256.560753 235.95465 
L 256.560753 235.993147 
L 256.59925 235.993147 
" clip-path="url(#p6951b91ec6)" style="fill: #ff0000; fill-opacity: 0.7; stroke: #000000; stroke-opacity: 0.7; stroke-width: 0.5"/>
    <path d="M 174.278402 286.755823 
L 174.278402 286.717326 
L 174.239905 286.717326 
L 174.239905 286.755823 
L 174.278402 286.755823 
" clip-path="url(#p6951b91ec6)" style="fill: #ff0000; fill-opacity: 0.7; stroke: #000000; stroke-opacity: 0.7; stroke-width: 0.5"/>
    <path d="M 285.715228 205.418927 
L 285.715228 205.38043 
L 285.676731 205.38043 
L 285.676731 205.418927 
L 285.715228 205.418927 
" clip-path="url(#p6951b91ec6)" style="fill: #ff0000; fill-opacity: 0.7; stroke: #000000; stroke-opacity: 0.7; stroke-width: 0.5"/>
    <path d="M 223.452299 179.323392 
L 223.452299 179.284895 
L 223.413802 179.284895 
L 223.413802 179.323392 
L 223.452299 179.323392 
" clip-path="url(#p6951b91ec6)" style="fill: #ff0000; fill-opacity: 0.7; stroke: #000000; stroke-opacity: 0.7; stroke-width: 0.5"/>
    <path d="M 280.685306 205.05155 
L 280.685306 205.013053 
L 280.646809 205.013053 
L 280.646809 205.05155 
L 280.685306 205.05155 
" clip-path="url(#p6951b91ec6)" style="fill: #ff0000; fill-opacity: 0.7; stroke: #000000; stroke-opacity: 0.7; stroke-width: 0.5"/>
    <path d="M 264.042728 235.857068 
L 264.042728 235.818571 
L 264.004231 235.818571 
L 264.004231 235.857068 
L 264.042728 235.857068 
" clip-path="url(#p6951b91ec6)" style="fill: #ff0000; fill-opacity: 0.7; stroke: #000000; stroke-opacity: 0.7; stroke-width: 0.5"/>
    <path d="M 264.042728 235.857068 
L 264.042728 235.818571 
L 264.004231 235.818571 
L 264.004231 235.857068 
L 264.042728 235.857068 
" clip-path="url(#p6951b91ec6)" style="fill: #ff0000; fill-opacity: 0.7; stroke: #000000; stroke-opacity: 0.7; stroke-width: 0.5"/>
    <path d="M 282.996361 312.152878 
L 282.996361 312.114381 
L 282.957864 312.114381 
L 282.957864 312.152878 
L 282.996361 312.152878 
" clip-path="url(#p6951b91ec6)" style="fill: #ff0000; fill-opacity: 0.7; stroke: #000000; stroke-opacity: 0.7; stroke-width: 0.5"/>
    <path d="M 190.498604 277.736176 
L 190.498604 277.697679 
L 190.460107 277.697679 
L 190.460107 277.736176 
L 190.498604 277.736176 
" clip-path="url(#p6951b91ec6)" style="fill: #ff0000; fill-opacity: 0.7; stroke: #000000; stroke-opacity: 0.7; stroke-width: 0.5"/>
    <path d="M 270.401364 218.774413 
L 270.401364 218.735916 
L 270.362867 218.735916 
L 270.362867 218.774413 
L 270.401364 218.774413 
" clip-path="url(#p6951b91ec6)" style="fill: #ff0000; fill-opacity: 0.7; stroke: #000000; stroke-opacity: 0.7; stroke-width: 0.5"/>
    <path d="M 141.867179 277.884979 
L 141.867179 277.846482 
L 141.828682 277.846482 
L 141.828682 277.884979 
L 141.867179 277.884979 
" clip-path="url(#p6951b91ec6)" style="fill: #ff0000; fill-opacity: 0.7; stroke: #000000; stroke-opacity: 0.7; stroke-width: 0.5"/>
    <path d="M 178.746418 302.826572 
L 178.746418 302.788075 
L 178.707921 302.788075 
L 178.707921 302.826572 
L 178.746418 302.826572 
" clip-path="url(#p6951b91ec6)" style="fill: #ff0000; fill-opacity: 0.7; stroke: #000000; stroke-opacity: 0.7; stroke-width: 0.5"/>
    <path d="M 275.213459 211.714975 
L 275.213459 211.676478 
L 275.174962 211.676478 
L 275.174962 211.714975 
L 275.213459 211.714975 
" clip-path="url(#p6951b91ec6)" style="fill: #ff0000; fill-opacity: 0.7; stroke: #000000; stroke-opacity: 0.7; stroke-width: 0.5"/>
    <path d="M 147.990175 182.299958 
L 147.990175 182.261461 
L 147.951678 182.261461 
L 147.951678 182.299958 
L 147.990175 182.299958 
" clip-path="url(#p6951b91ec6)" style="fill: #ff0000; fill-opacity: 0.7; stroke: #000000; stroke-opacity: 0.7; stroke-width: 0.5"/>
    <path d="M 138.917748 275.261638 
L 138.917748 275.223142 
L 138.879251 275.223142 
L 138.879251 275.261638 
L 138.917748 275.261638 
" clip-path="url(#p6951b91ec6)" style="fill: #ff0000; fill-opacity: 0.7; stroke: #000000; stroke-opacity: 0.7; stroke-width: 0.5"/>
    <path d="M 583.76894 413.251269 
L 583.76894 413.212772 
L 583.730443 413.212772 
L 583.730443 413.251269 
L 583.76894 413.251269 
" clip-path="url(#p6951b91ec6)" style="fill: #ff0000; fill-opacity: 0.7; stroke: #000000; stroke-opacity: 0.7; stroke-width: 0.5"/>
    <path d="M 451.132075 384.387076 
L 451.132075 384.348579 
L 451.093578 384.348579 
L 451.093578 384.387076 
L 451.132075 384.387076 
" clip-path="url(#p6951b91ec6)" style="fill: #ff0000; fill-opacity: 0.7; stroke: #000000; stroke-opacity: 0.7; stroke-width: 0.5"/>
    <path d="M 274.028491 207.532976 
L 274.028491 207.49448 
L 273.989994 207.49448 
L 273.989994 207.532976 
L 274.028491 207.532976 
" clip-path="url(#p6951b91ec6)" style="fill: #ff0000; fill-opacity: 0.7; stroke: #000000; stroke-opacity: 0.7; stroke-width: 0.5"/>
    <path d="M 284.538027 215.013382 
L 284.538027 214.974885 
L 284.49953 214.974885 
L 284.49953 215.013382 
L 284.538027 215.013382 
" clip-path="url(#p6951b91ec6)" style="fill: #ff0000; fill-opacity: 0.7; stroke: #000000; stroke-opacity: 0.7; stroke-width: 0.5"/>
    <path d="M 271.163355 184.222555 
L 271.163355 184.184058 
L 271.124858 184.184058 
L 271.124858 184.222555 
L 271.163355 184.222555 
" clip-path="url(#p6951b91ec6)" style="fill: #ff0000; fill-opacity: 0.7; stroke: #000000; stroke-opacity: 0.7; stroke-width: 0.5"/>
    <path d="M 229.2103 269.44796 
L 229.2103 269.409463 
L 229.171803 269.409463 
L 229.171803 269.44796 
L 229.2103 269.44796 
" clip-path="url(#p6951b91ec6)" style="fill: #ff0000; fill-opacity: 0.7; stroke: #000000; stroke-opacity: 0.7; stroke-width: 0.5"/>
    <path d="M 289.885767 225.967307 
L 289.885767 225.92881 
L 289.84727 225.92881 
L 289.84727 225.967307 
L 289.885767 225.967307 
" clip-path="url(#p6951b91ec6)" style="fill: #ff0000; fill-opacity: 0.7; stroke: #000000; stroke-opacity: 0.7; stroke-width: 0.5"/>
    <path d="M 141.867179 277.884979 
L 141.867179 277.846482 
L 141.828682 277.846482 
L 141.828682 277.884979 
L 141.867179 277.884979 
" clip-path="url(#p6951b91ec6)" style="fill: #ff0000; fill-opacity: 0.7; stroke: #000000; stroke-opacity: 0.7; stroke-width: 0.5"/>
    <path d="M 148.289173 181.009696 
L 148.289173 180.971199 
L 148.250676 180.971199 
L 148.250676 181.009696 
L 148.289173 181.009696 
" clip-path="url(#p6951b91ec6)" style="fill: #ff0000; fill-opacity: 0.7; stroke: #000000; stroke-opacity: 0.7; stroke-width: 0.5"/>
    <path d="M 171.407675 302.922469 
L 171.407675 302.883972 
L 171.369178 302.883972 
L 171.369178 302.922469 
L 171.407675 302.922469 
" clip-path="url(#p6951b91ec6)" style="fill: #ff0000; fill-opacity: 0.7; stroke: #000000; stroke-opacity: 0.7; stroke-width: 0.5"/>
    <path d="M 177.462068 199.832214 
L 177.462068 199.793717 
L 177.423571 199.793717 
L 177.423571 199.832214 
L 177.462068 199.832214 
" clip-path="url(#p6951b91ec6)" style="fill: #ff0000; fill-opacity: 0.7; stroke: #000000; stroke-opacity: 0.7; stroke-width: 0.5"/>
   </g>
   <g id="matplotlib.axis_1">
    <g id="xtick_1">
     <g id="line2d_1">
      <defs>
       <path id="mcd9faa833d" d="M 0 0 
L 0 3.5 
" style="stroke: #000000; stroke-width: 0.8"/>
      </defs>
      <g>
       <use xlink:href="#mcd9faa833d" x="152.322624" y="577.843039" style="stroke: #000000; stroke-width: 0.8"/>
      </g>
     </g>
     <g id="text_1">
      <!-- 400000 -->
      <g transform="translate(133.235124 592.441476) scale(0.1 -0.1)">
       <defs>
        <path id="DejaVuSans-34" d="M 2419 4116 
L 825 1625 
L 2419 1625 
L 2419 4116 
z
M 2253 4666 
L 3047 4666 
L 3047 1625 
L 3713 1625 
L 3713 1100 
L 3047 1100 
L 3047 0 
L 2419 0 
L 2419 1100 
L 313 1100 
L 313 1709 
L 2253 4666 
z
" transform="scale(0.015625)"/>
        <path id="DejaVuSans-30" d="M 2034 4250 
Q 1547 4250 1301 3770 
Q 1056 3291 1056 2328 
Q 1056 1369 1301 889 
Q 1547 409 2034 409 
Q 2525 409 2770 889 
Q 3016 1369 3016 2328 
Q 3016 3291 2770 3770 
Q 2525 4250 2034 4250 
z
M 2034 4750 
Q 2819 4750 3233 4129 
Q 3647 3509 3647 2328 
Q 3647 1150 3233 529 
Q 2819 -91 2034 -91 
Q 1250 -91 836 529 
Q 422 1150 422 2328 
Q 422 3509 836 4129 
Q 1250 4750 2034 4750 
z
" transform="scale(0.015625)"/>
       </defs>
       <use xlink:href="#DejaVuSans-34"/>
       <use xlink:href="#DejaVuSans-30" x="63.623047"/>
       <use xlink:href="#DejaVuSans-30" x="127.246094"/>
       <use xlink:href="#DejaVuSans-30" x="190.869141"/>
       <use xlink:href="#DejaVuSans-30" x="254.492188"/>
       <use xlink:href="#DejaVuSans-30" x="318.115234"/>
      </g>
     </g>
    </g>
    <g id="xtick_2">
     <g id="line2d_2">
      <g>
       <use xlink:href="#mcd9faa833d" x="229.316506" y="577.843039" style="stroke: #000000; stroke-width: 0.8"/>
      </g>
     </g>
     <g id="text_2">
      <!-- 402000 -->
      <g transform="translate(210.229006 592.441476) scale(0.1 -0.1)">
       <defs>
        <path id="DejaVuSans-32" d="M 1228 531 
L 3431 531 
L 3431 0 
L 469 0 
L 469 531 
Q 828 903 1448 1529 
Q 2069 2156 2228 2338 
Q 2531 2678 2651 2914 
Q 2772 3150 2772 3378 
Q 2772 3750 2511 3984 
Q 2250 4219 1831 4219 
Q 1534 4219 1204 4116 
Q 875 4013 500 3803 
L 500 4441 
Q 881 4594 1212 4672 
Q 1544 4750 1819 4750 
Q 2544 4750 2975 4387 
Q 3406 4025 3406 3419 
Q 3406 3131 3298 2873 
Q 3191 2616 2906 2266 
Q 2828 2175 2409 1742 
Q 1991 1309 1228 531 
z
" transform="scale(0.015625)"/>
       </defs>
       <use xlink:href="#DejaVuSans-34"/>
       <use xlink:href="#DejaVuSans-30" x="63.623047"/>
       <use xlink:href="#DejaVuSans-32" x="127.246094"/>
       <use xlink:href="#DejaVuSans-30" x="190.869141"/>
       <use xlink:href="#DejaVuSans-30" x="254.492188"/>
       <use xlink:href="#DejaVuSans-30" x="318.115234"/>
      </g>
     </g>
    </g>
    <g id="xtick_3">
     <g id="line2d_3">
      <g>
       <use xlink:href="#mcd9faa833d" x="306.310388" y="577.843039" style="stroke: #000000; stroke-width: 0.8"/>
      </g>
     </g>
     <g id="text_3">
      <!-- 404000 -->
      <g transform="translate(287.222888 592.441476) scale(0.1 -0.1)">
       <use xlink:href="#DejaVuSans-34"/>
       <use xlink:href="#DejaVuSans-30" x="63.623047"/>
       <use xlink:href="#DejaVuSans-34" x="127.246094"/>
       <use xlink:href="#DejaVuSans-30" x="190.869141"/>
       <use xlink:href="#DejaVuSans-30" x="254.492188"/>
       <use xlink:href="#DejaVuSans-30" x="318.115234"/>
      </g>
     </g>
    </g>
    <g id="xtick_4">
     <g id="line2d_4">
      <g>
       <use xlink:href="#mcd9faa833d" x="383.30427" y="577.843039" style="stroke: #000000; stroke-width: 0.8"/>
      </g>
     </g>
     <g id="text_4">
      <!-- 406000 -->
      <g transform="translate(364.21677 592.441476) scale(0.1 -0.1)">
       <defs>
        <path id="DejaVuSans-36" d="M 2113 2584 
Q 1688 2584 1439 2293 
Q 1191 2003 1191 1497 
Q 1191 994 1439 701 
Q 1688 409 2113 409 
Q 2538 409 2786 701 
Q 3034 994 3034 1497 
Q 3034 2003 2786 2293 
Q 2538 2584 2113 2584 
z
M 3366 4563 
L 3366 3988 
Q 3128 4100 2886 4159 
Q 2644 4219 2406 4219 
Q 1781 4219 1451 3797 
Q 1122 3375 1075 2522 
Q 1259 2794 1537 2939 
Q 1816 3084 2150 3084 
Q 2853 3084 3261 2657 
Q 3669 2231 3669 1497 
Q 3669 778 3244 343 
Q 2819 -91 2113 -91 
Q 1303 -91 875 529 
Q 447 1150 447 2328 
Q 447 3434 972 4092 
Q 1497 4750 2381 4750 
Q 2619 4750 2861 4703 
Q 3103 4656 3366 4563 
z
" transform="scale(0.015625)"/>
       </defs>
       <use xlink:href="#DejaVuSans-34"/>
       <use xlink:href="#DejaVuSans-30" x="63.623047"/>
       <use xlink:href="#DejaVuSans-36" x="127.246094"/>
       <use xlink:href="#DejaVuSans-30" x="190.869141"/>
       <use xlink:href="#DejaVuSans-30" x="254.492188"/>
       <use xlink:href="#DejaVuSans-30" x="318.115234"/>
      </g>
     </g>
    </g>
    <g id="xtick_5">
     <g id="line2d_5">
      <g>
       <use xlink:href="#mcd9faa833d" x="460.298152" y="577.843039" style="stroke: #000000; stroke-width: 0.8"/>
      </g>
     </g>
     <g id="text_5">
      <!-- 408000 -->
      <g transform="translate(441.210652 592.441476) scale(0.1 -0.1)">
       <defs>
        <path id="DejaVuSans-38" d="M 2034 2216 
Q 1584 2216 1326 1975 
Q 1069 1734 1069 1313 
Q 1069 891 1326 650 
Q 1584 409 2034 409 
Q 2484 409 2743 651 
Q 3003 894 3003 1313 
Q 3003 1734 2745 1975 
Q 2488 2216 2034 2216 
z
M 1403 2484 
Q 997 2584 770 2862 
Q 544 3141 544 3541 
Q 544 4100 942 4425 
Q 1341 4750 2034 4750 
Q 2731 4750 3128 4425 
Q 3525 4100 3525 3541 
Q 3525 3141 3298 2862 
Q 3072 2584 2669 2484 
Q 3125 2378 3379 2068 
Q 3634 1759 3634 1313 
Q 3634 634 3220 271 
Q 2806 -91 2034 -91 
Q 1263 -91 848 271 
Q 434 634 434 1313 
Q 434 1759 690 2068 
Q 947 2378 1403 2484 
z
M 1172 3481 
Q 1172 3119 1398 2916 
Q 1625 2713 2034 2713 
Q 2441 2713 2670 2916 
Q 2900 3119 2900 3481 
Q 2900 3844 2670 4047 
Q 2441 4250 2034 4250 
Q 1625 4250 1398 4047 
Q 1172 3844 1172 3481 
z
" transform="scale(0.015625)"/>
       </defs>
       <use xlink:href="#DejaVuSans-34"/>
       <use xlink:href="#DejaVuSans-30" x="63.623047"/>
       <use xlink:href="#DejaVuSans-38" x="127.246094"/>
       <use xlink:href="#DejaVuSans-30" x="190.869141"/>
       <use xlink:href="#DejaVuSans-30" x="254.492188"/>
       <use xlink:href="#DejaVuSans-30" x="318.115234"/>
      </g>
     </g>
    </g>
    <g id="xtick_6">
     <g id="line2d_6">
      <g>
       <use xlink:href="#mcd9faa833d" x="537.292033" y="577.843039" style="stroke: #000000; stroke-width: 0.8"/>
      </g>
     </g>
     <g id="text_6">
      <!-- 410000 -->
      <g transform="translate(518.204533 592.441476) scale(0.1 -0.1)">
       <defs>
        <path id="DejaVuSans-31" d="M 794 531 
L 1825 531 
L 1825 4091 
L 703 3866 
L 703 4441 
L 1819 4666 
L 2450 4666 
L 2450 531 
L 3481 531 
L 3481 0 
L 794 0 
L 794 531 
z
" transform="scale(0.015625)"/>
       </defs>
       <use xlink:href="#DejaVuSans-34"/>
       <use xlink:href="#DejaVuSans-31" x="63.623047"/>
       <use xlink:href="#DejaVuSans-30" x="127.246094"/>
       <use xlink:href="#DejaVuSans-30" x="190.869141"/>
       <use xlink:href="#DejaVuSans-30" x="254.492188"/>
       <use xlink:href="#DejaVuSans-30" x="318.115234"/>
      </g>
     </g>
    </g>
    <g id="xtick_7">
     <g id="line2d_7">
      <g>
       <use xlink:href="#mcd9faa833d" x="614.285915" y="577.843039" style="stroke: #000000; stroke-width: 0.8"/>
      </g>
     </g>
     <g id="text_7">
      <!-- 412000 -->
      <g transform="translate(595.198415 592.441476) scale(0.1 -0.1)">
       <use xlink:href="#DejaVuSans-34"/>
       <use xlink:href="#DejaVuSans-31" x="63.623047"/>
       <use xlink:href="#DejaVuSans-32" x="127.246094"/>
       <use xlink:href="#DejaVuSans-30" x="190.869141"/>
       <use xlink:href="#DejaVuSans-30" x="254.492188"/>
       <use xlink:href="#DejaVuSans-30" x="318.115234"/>
      </g>
     </g>
    </g>
   </g>
   <g id="matplotlib.axis_2">
    <g id="ytick_1">
     <g id="line2d_8">
      <defs>
       <path id="m73e84504a0" d="M 0 0 
L -3.5 0 
" style="stroke: #000000; stroke-width: 0.8"/>
      </defs>
      <g>
       <use xlink:href="#m73e84504a0" x="90" y="539.91328" style="stroke: #000000; stroke-width: 0.8"/>
      </g>
     </g>
     <g id="text_8">
      <!-- 5.800 -->
      <g transform="translate(54.371875 543.712499) scale(0.1 -0.1)">
       <defs>
        <path id="DejaVuSans-35" d="M 691 4666 
L 3169 4666 
L 3169 4134 
L 1269 4134 
L 1269 2991 
Q 1406 3038 1543 3061 
Q 1681 3084 1819 3084 
Q 2600 3084 3056 2656 
Q 3513 2228 3513 1497 
Q 3513 744 3044 326 
Q 2575 -91 1722 -91 
Q 1428 -91 1123 -41 
Q 819 9 494 109 
L 494 744 
Q 775 591 1075 516 
Q 1375 441 1709 441 
Q 2250 441 2565 725 
Q 2881 1009 2881 1497 
Q 2881 1984 2565 2268 
Q 2250 2553 1709 2553 
Q 1456 2553 1204 2497 
Q 953 2441 691 2322 
L 691 4666 
z
" transform="scale(0.015625)"/>
        <path id="DejaVuSans-2e" d="M 684 794 
L 1344 794 
L 1344 0 
L 684 0 
L 684 794 
z
" transform="scale(0.015625)"/>
       </defs>
       <use xlink:href="#DejaVuSans-35"/>
       <use xlink:href="#DejaVuSans-2e" x="63.623047"/>
       <use xlink:href="#DejaVuSans-38" x="95.410156"/>
       <use xlink:href="#DejaVuSans-30" x="159.033203"/>
       <use xlink:href="#DejaVuSans-30" x="222.65625"/>
      </g>
     </g>
    </g>
    <g id="ytick_2">
     <g id="line2d_9">
      <g>
       <use xlink:href="#m73e84504a0" x="90" y="462.919398" style="stroke: #000000; stroke-width: 0.8"/>
      </g>
     </g>
     <g id="text_9">
      <!-- 5.802 -->
      <g transform="translate(54.371875 466.718617) scale(0.1 -0.1)">
       <use xlink:href="#DejaVuSans-35"/>
       <use xlink:href="#DejaVuSans-2e" x="63.623047"/>
       <use xlink:href="#DejaVuSans-38" x="95.410156"/>
       <use xlink:href="#DejaVuSans-30" x="159.033203"/>
       <use xlink:href="#DejaVuSans-32" x="222.65625"/>
      </g>
     </g>
    </g>
    <g id="ytick_3">
     <g id="line2d_10">
      <g>
       <use xlink:href="#m73e84504a0" x="90" y="385.925516" style="stroke: #000000; stroke-width: 0.8"/>
      </g>
     </g>
     <g id="text_10">
      <!-- 5.804 -->
      <g transform="translate(54.371875 389.724735) scale(0.1 -0.1)">
       <use xlink:href="#DejaVuSans-35"/>
       <use xlink:href="#DejaVuSans-2e" x="63.623047"/>
       <use xlink:href="#DejaVuSans-38" x="95.410156"/>
       <use xlink:href="#DejaVuSans-30" x="159.033203"/>
       <use xlink:href="#DejaVuSans-34" x="222.65625"/>
      </g>
     </g>
    </g>
    <g id="ytick_4">
     <g id="line2d_11">
      <g>
       <use xlink:href="#m73e84504a0" x="90" y="308.931635" style="stroke: #000000; stroke-width: 0.8"/>
      </g>
     </g>
     <g id="text_11">
      <!-- 5.806 -->
      <g transform="translate(54.371875 312.730853) scale(0.1 -0.1)">
       <use xlink:href="#DejaVuSans-35"/>
       <use xlink:href="#DejaVuSans-2e" x="63.623047"/>
       <use xlink:href="#DejaVuSans-38" x="95.410156"/>
       <use xlink:href="#DejaVuSans-30" x="159.033203"/>
       <use xlink:href="#DejaVuSans-36" x="222.65625"/>
      </g>
     </g>
    </g>
    <g id="ytick_5">
     <g id="line2d_12">
      <g>
       <use xlink:href="#m73e84504a0" x="90" y="231.937753" style="stroke: #000000; stroke-width: 0.8"/>
      </g>
     </g>
     <g id="text_12">
      <!-- 5.808 -->
      <g transform="translate(54.371875 235.736972) scale(0.1 -0.1)">
       <use xlink:href="#DejaVuSans-35"/>
       <use xlink:href="#DejaVuSans-2e" x="63.623047"/>
       <use xlink:href="#DejaVuSans-38" x="95.410156"/>
       <use xlink:href="#DejaVuSans-30" x="159.033203"/>
       <use xlink:href="#DejaVuSans-38" x="222.65625"/>
      </g>
     </g>
    </g>
    <g id="ytick_6">
     <g id="line2d_13">
      <g>
       <use xlink:href="#m73e84504a0" x="90" y="154.943871" style="stroke: #000000; stroke-width: 0.8"/>
      </g>
     </g>
     <g id="text_13">
      <!-- 5.810 -->
      <g transform="translate(54.371875 158.74309) scale(0.1 -0.1)">
       <use xlink:href="#DejaVuSans-35"/>
       <use xlink:href="#DejaVuSans-2e" x="63.623047"/>
       <use xlink:href="#DejaVuSans-38" x="95.410156"/>
       <use xlink:href="#DejaVuSans-31" x="159.033203"/>
       <use xlink:href="#DejaVuSans-30" x="222.65625"/>
      </g>
     </g>
    </g>
    <g id="text_14">
     <!-- 1e6 -->
     <g transform="translate(90 146.356961) scale(0.1 -0.1)">
      <defs>
       <path id="DejaVuSans-65" d="M 3597 1894 
L 3597 1613 
L 953 1613 
Q 991 1019 1311 708 
Q 1631 397 2203 397 
Q 2534 397 2845 478 
Q 3156 559 3463 722 
L 3463 178 
Q 3153 47 2828 -22 
Q 2503 -91 2169 -91 
Q 1331 -91 842 396 
Q 353 884 353 1716 
Q 353 2575 817 3079 
Q 1281 3584 2069 3584 
Q 2775 3584 3186 3129 
Q 3597 2675 3597 1894 
z
M 3022 2063 
Q 3016 2534 2758 2815 
Q 2500 3097 2075 3097 
Q 1594 3097 1305 2825 
Q 1016 2553 972 2059 
L 3022 2063 
z
" transform="scale(0.015625)"/>
      </defs>
      <use xlink:href="#DejaVuSans-31"/>
      <use xlink:href="#DejaVuSans-65" x="63.623047"/>
      <use xlink:href="#DejaVuSans-36" x="125.146484"/>
     </g>
    </g>
   </g>
   <g id="patch_3">
    <path d="M 90 577.843039 
L 90 149.356961 
" style="fill: none; stroke: #000000; stroke-width: 0.8; stroke-linejoin: miter; stroke-linecap: square"/>
   </g>
   <g id="patch_4">
    <path d="M 648 577.843039 
L 648 149.356961 
" style="fill: none; stroke: #000000; stroke-width: 0.8; stroke-linejoin: miter; stroke-linecap: square"/>
   </g>
   <g id="patch_5">
    <path d="M 90 577.843039 
L 648 577.843039 
" style="fill: none; stroke: #000000; stroke-width: 0.8; stroke-linejoin: miter; stroke-linecap: square"/>
   </g>
   <g id="patch_6">
    <path d="M 90 149.356961 
L 648 149.356961 
" style="fill: none; stroke: #000000; stroke-width: 0.8; stroke-linejoin: miter; stroke-linecap: square"/>
   </g>
   <g id="text_15">
    <!-- Treptow-Kpenick_3 -->
    <g transform="translate(287.250952 325.260218) scale(0.12 -0.12)">
     <defs>
      <path id="DejaVuSans-54" d="M -19 4666 
L 3928 4666 
L 3928 4134 
L 2272 4134 
L 2272 0 
L 1638 0 
L 1638 4134 
L -19 4134 
L -19 4666 
z
" transform="scale(0.015625)"/>
      <path id="DejaVuSans-72" d="M 2631 2963 
Q 2534 3019 2420 3045 
Q 2306 3072 2169 3072 
Q 1681 3072 1420 2755 
Q 1159 2438 1159 1844 
L 1159 0 
L 581 0 
L 581 3500 
L 1159 3500 
L 1159 2956 
Q 1341 3275 1631 3429 
Q 1922 3584 2338 3584 
Q 2397 3584 2469 3576 
Q 2541 3569 2628 3553 
L 2631 2963 
z
" transform="scale(0.015625)"/>
      <path id="DejaVuSans-70" d="M 1159 525 
L 1159 -1331 
L 581 -1331 
L 581 3500 
L 1159 3500 
L 1159 2969 
Q 1341 3281 1617 3432 
Q 1894 3584 2278 3584 
Q 2916 3584 3314 3078 
Q 3713 2572 3713 1747 
Q 3713 922 3314 415 
Q 2916 -91 2278 -91 
Q 1894 -91 1617 61 
Q 1341 213 1159 525 
z
M 3116 1747 
Q 3116 2381 2855 2742 
Q 2594 3103 2138 3103 
Q 1681 3103 1420 2742 
Q 1159 2381 1159 1747 
Q 1159 1113 1420 752 
Q 1681 391 2138 391 
Q 2594 391 2855 752 
Q 3116 1113 3116 1747 
z
" transform="scale(0.015625)"/>
      <path id="DejaVuSans-74" d="M 1172 4494 
L 1172 3500 
L 2356 3500 
L 2356 3053 
L 1172 3053 
L 1172 1153 
Q 1172 725 1289 603 
Q 1406 481 1766 481 
L 2356 481 
L 2356 0 
L 1766 0 
Q 1100 0 847 248 
Q 594 497 594 1153 
L 594 3053 
L 172 3053 
L 172 3500 
L 594 3500 
L 594 4494 
L 1172 4494 
z
" transform="scale(0.015625)"/>
      <path id="DejaVuSans-6f" d="M 1959 3097 
Q 1497 3097 1228 2736 
Q 959 2375 959 1747 
Q 959 1119 1226 758 
Q 1494 397 1959 397 
Q 2419 397 2687 759 
Q 2956 1122 2956 1747 
Q 2956 2369 2687 2733 
Q 2419 3097 1959 3097 
z
M 1959 3584 
Q 2709 3584 3137 3096 
Q 3566 2609 3566 1747 
Q 3566 888 3137 398 
Q 2709 -91 1959 -91 
Q 1206 -91 779 398 
Q 353 888 353 1747 
Q 353 2609 779 3096 
Q 1206 3584 1959 3584 
z
" transform="scale(0.015625)"/>
      <path id="DejaVuSans-77" d="M 269 3500 
L 844 3500 
L 1563 769 
L 2278 3500 
L 2956 3500 
L 3675 769 
L 4391 3500 
L 4966 3500 
L 4050 0 
L 3372 0 
L 2619 2869 
L 1863 0 
L 1184 0 
L 269 3500 
z
" transform="scale(0.015625)"/>
      <path id="DejaVuSans-2d" d="M 313 2009 
L 1997 2009 
L 1997 1497 
L 313 1497 
L 313 2009 
z
" transform="scale(0.015625)"/>
      <path id="DejaVuSans-4b" d="M 628 4666 
L 1259 4666 
L 1259 2694 
L 3353 4666 
L 4166 4666 
L 1850 2491 
L 4331 0 
L 3500 0 
L 1259 2247 
L 1259 0 
L 628 0 
L 628 4666 
z
" transform="scale(0.015625)"/>
      <path id="DejaVuSans-f6" d="M 1959 3097 
Q 1497 3097 1228 2736 
Q 959 2375 959 1747 
Q 959 1119 1226 758 
Q 1494 397 1959 397 
Q 2419 397 2687 759 
Q 2956 1122 2956 1747 
Q 2956 2369 2687 2733 
Q 2419 3097 1959 3097 
z
M 1959 3584 
Q 2709 3584 3137 3096 
Q 3566 2609 3566 1747 
Q 3566 888 3137 398 
Q 2709 -91 1959 -91 
Q 1206 -91 779 398 
Q 353 888 353 1747 
Q 353 2609 779 3096 
Q 1206 3584 1959 3584 
z
M 2254 4850 
L 2888 4850 
L 2888 4219 
L 2254 4219 
L 2254 4850 
z
M 1032 4850 
L 1666 4850 
L 1666 4219 
L 1032 4219 
L 1032 4850 
z
" transform="scale(0.015625)"/>
      <path id="DejaVuSans-6e" d="M 3513 2113 
L 3513 0 
L 2938 0 
L 2938 2094 
Q 2938 2591 2744 2837 
Q 2550 3084 2163 3084 
Q 1697 3084 1428 2787 
Q 1159 2491 1159 1978 
L 1159 0 
L 581 0 
L 581 3500 
L 1159 3500 
L 1159 2956 
Q 1366 3272 1645 3428 
Q 1925 3584 2291 3584 
Q 2894 3584 3203 3211 
Q 3513 2838 3513 2113 
z
" transform="scale(0.015625)"/>
      <path id="DejaVuSans-69" d="M 603 3500 
L 1178 3500 
L 1178 0 
L 603 0 
L 603 3500 
z
M 603 4863 
L 1178 4863 
L 1178 4134 
L 603 4134 
L 603 4863 
z
" transform="scale(0.015625)"/>
      <path id="DejaVuSans-63" d="M 3122 3366 
L 3122 2828 
Q 2878 2963 2633 3030 
Q 2388 3097 2138 3097 
Q 1578 3097 1268 2742 
Q 959 2388 959 1747 
Q 959 1106 1268 751 
Q 1578 397 2138 397 
Q 2388 397 2633 464 
Q 2878 531 3122 666 
L 3122 134 
Q 2881 22 2623 -34 
Q 2366 -91 2075 -91 
Q 1284 -91 818 406 
Q 353 903 353 1747 
Q 353 2603 823 3093 
Q 1294 3584 2113 3584 
Q 2378 3584 2631 3529 
Q 2884 3475 3122 3366 
z
" transform="scale(0.015625)"/>
      <path id="DejaVuSans-6b" d="M 581 4863 
L 1159 4863 
L 1159 1991 
L 2875 3500 
L 3609 3500 
L 1753 1863 
L 3688 0 
L 2938 0 
L 1159 1709 
L 1159 0 
L 581 0 
L 581 4863 
z
" transform="scale(0.015625)"/>
      <path id="DejaVuSans-5f" d="M 3263 -1063 
L 3263 -1509 
L -63 -1509 
L -63 -1063 
L 3263 -1063 
z
" transform="scale(0.015625)"/>
      <path id="DejaVuSans-33" d="M 2597 2516 
Q 3050 2419 3304 2112 
Q 3559 1806 3559 1356 
Q 3559 666 3084 287 
Q 2609 -91 1734 -91 
Q 1441 -91 1130 -33 
Q 819 25 488 141 
L 488 750 
Q 750 597 1062 519 
Q 1375 441 1716 441 
Q 2309 441 2620 675 
Q 2931 909 2931 1356 
Q 2931 1769 2642 2001 
Q 2353 2234 1838 2234 
L 1294 2234 
L 1294 2753 
L 1863 2753 
Q 2328 2753 2575 2939 
Q 2822 3125 2822 3475 
Q 2822 3834 2567 4026 
Q 2313 4219 1838 4219 
Q 1578 4219 1281 4162 
Q 984 4106 628 3988 
L 628 4550 
Q 988 4650 1302 4700 
Q 1616 4750 1894 4750 
Q 2613 4750 3031 4423 
Q 3450 4097 3450 3541 
Q 3450 3153 3228 2886 
Q 3006 2619 2597 2516 
z
" transform="scale(0.015625)"/>
     </defs>
     <use xlink:href="#DejaVuSans-54"/>
     <use xlink:href="#DejaVuSans-72" x="46.333984"/>
     <use xlink:href="#DejaVuSans-65" x="85.197266"/>
     <use xlink:href="#DejaVuSans-70" x="146.720703"/>
     <use xlink:href="#DejaVuSans-74" x="210.197266"/>
     <use xlink:href="#DejaVuSans-6f" x="249.40625"/>
     <use xlink:href="#DejaVuSans-77" x="310.587891"/>
     <use xlink:href="#DejaVuSans-2d" x="392.375"/>
     <use xlink:href="#DejaVuSans-4b" x="428.458984"/>
     <use xlink:href="#DejaVuSans-f6" x="489.035156"/>
     <use xlink:href="#DejaVuSans-70" x="550.216797"/>
     <use xlink:href="#DejaVuSans-65" x="613.693359"/>
     <use xlink:href="#DejaVuSans-6e" x="675.216797"/>
     <use xlink:href="#DejaVuSans-69" x="738.595703"/>
     <use xlink:href="#DejaVuSans-63" x="766.378906"/>
     <use xlink:href="#DejaVuSans-6b" x="821.359375"/>
     <use xlink:href="#DejaVuSans-5f" x="879.269531"/>
     <use xlink:href="#DejaVuSans-33" x="929.269531"/>
    </g>
   </g>
  </g>
 </g>
 <defs>
  <clipPath id="p6951b91ec6">
   <rect x="90" y="149.356961" width="558" height="428.486078"/>
  </clipPath>
 </defs>
</svg>
