<?xml version="1.0" encoding="utf-8" standalone="no"?>
<!DOCTYPE svg PUBLIC "-//W3C//DTD SVG 1.1//EN"
  "http://www.w3.org/Graphics/SVG/1.1/DTD/svg11.dtd">
<svg xmlns:xlink="http://www.w3.org/1999/xlink" width="460.8pt" height="345.6pt" viewBox="0 0 460.8 345.6" xmlns="http://www.w3.org/2000/svg" version="1.1">
 <metadata>
  <rdf:RDF xmlns:dc="http://purl.org/dc/elements/1.1/" xmlns:cc="http://creativecommons.org/ns#" xmlns:rdf="http://www.w3.org/1999/02/22-rdf-syntax-ns#">
   <cc:Work>
    <dc:type rdf:resource="http://purl.org/dc/dcmitype/StillImage"/>
    <dc:date>2024-10-17T11:33:17.930001</dc:date>
    <dc:format>image/svg+xml</dc:format>
    <dc:creator>
     <cc:Agent>
      <dc:title>Matplotlib v3.9.2, https://matplotlib.org/</dc:title>
     </cc:Agent>
    </dc:creator>
   </cc:Work>
  </rdf:RDF>
 </metadata>
 <defs>
  <style type="text/css">*{stroke-linejoin: round; stroke-linecap: butt}</style>
 </defs>
 <g id="figure_1">
  <g id="patch_1">
   <path d="M 0 345.6 
L 460.8 345.6 
L 460.8 0 
L 0 0 
z
" style="fill: #ffffff"/>
  </g>
  <g id="axes_1">
   <g id="patch_2">
    <path d="M 57.6 266.319847 
L 414.72 266.319847 
L 414.72 82.736153 
L 57.6 82.736153 
z
" style="fill: #ffffff"/>
   </g>
   <g id="PatchCollection_1">
    <path d="M 327.450417 233.146275 
L 328.323102 232.507873 
L 327.627036 231.852311 
L 327.239356 231.489968 
L 326.536131 230.832705 
L 325.935359 230.271258 
L 325.244783 229.625804 
L 324.559446 228.976398 
L 323.802794 228.268942 
L 323.08166 227.597345 
L 322.85667 227.387771 
L 321.359753 225.993707 
L 321.0761 225.729516 
L 320.363654 225.066036 
L 319.686536 224.435163 
L 313.665915 218.825721 
L 311.200804 216.53254 
L 312.095127 216.550591 
L 312.133506 216.551344 
L 312.25734 216.553813 
L 312.960115 216.568033 
L 313.391448 216.576695 
L 313.516731 216.57919 
L 313.822203 216.585428 
L 313.846611 216.585919 
L 313.983547 216.588672 
L 314.791835 216.60497 
L 316.316983 216.638315 
L 317.131957 216.65563 
L 317.36479 216.660561 
L 317.804716 216.669964 
L 318.094946 216.676147 
L 319.5861 216.707901 
L 320.949831 216.750171 
L 321.121246 216.755455 
L 321.303191 216.759977 
L 321.485367 216.764494 
L 321.72332 216.770359 
L 322.549837 216.790739 
L 322.801128 216.797056 
L 323.831042 216.822521 
L 324.324344 216.83473 
L 324.765287 216.845573 
L 324.974598 216.850754 
L 326.636788 216.891618 
L 326.793394 216.895499 
L 327.831769 216.921019 
L 328.764332 216.944064 
L 329.034408 216.950774 
L 329.140396 216.953365 
L 329.180925 216.954363 
L 329.28703 216.957009 
L 329.327558 216.958007 
L 329.433547 216.960598 
L 329.704608 216.967344 
L 330.207243 216.979759 
L 331.295668 217.009675 
L 331.852752 217.023646 
L 331.882843 217.024358 
L 333.2697 217.059306 
L 333.942571 217.076116 
L 334.634342 217.09337 
L 335.737446 217.121518 
L 338.10309 217.186531 
L 338.84175 217.206742 
L 338.839434 217.019185 
L 339.075514 217.011394 
L 339.232668 217.006148 
L 339.25224 217.00553 
L 339.787169 216.98783 
L 339.752969 216.452676 
L 339.751644 216.432429 
L 339.74152 216.273809 
L 339.737851 216.216429 
L 339.732908 216.138569 
L 339.728871 216.075156 
L 339.659021 214.981583 
L 339.643971 214.745857 
L 339.792317 214.768215 
L 340.054496 214.805637 
L 340.71544 215.015573 
L 341.647321 215.311579 
L 343.701163 215.963381 
L 344.289304 214.101737 
L 344.380658 213.812182 
L 344.421657 213.682268 
L 344.552231 213.268708 
L 344.904536 212.153548 
L 344.947355 212.109525 
L 346.104299 210.919965 
L 347.030613 209.967223 
L 347.389524 209.597824 
L 347.422657 209.563724 
L 347.528114 209.455128 
L 347.663648 209.315638 
L 347.754962 209.222294 
L 347.873355 209.101378 
L 348.391956 208.571376 
L 348.618148 208.340243 
L 348.71745 208.238758 
L 348.724756 208.231214 
L 348.75727 208.197941 
L 349.433812 207.506738 
L 349.488478 207.450944 
L 349.517651 207.421117 
L 349.559174 207.378693 
L 349.584382 207.352965 
L 349.689516 207.245364 
L 349.920063 207.009369 
L 350.835179 206.072929 
L 350.978267 205.926472 
L 351.006646 205.897418 
L 351.115181 205.786372 
L 351.434033 205.462216 
L 351.523197 205.371071 
L 351.768313 205.120571 
L 351.888519 204.997641 
L 352.341365 204.534788 
L 352.47868 204.394447 
L 353.071942 203.787292 
L 353.445316 203.405779 
L 353.546095 203.302811 
L 353.784813 203.058848 
L 354.490602 202.337423 
L 354.563113 202.263331 
L 354.663893 202.160363 
L 354.762802 202.059238 
L 354.9502 201.867798 
L 355.052341 201.763521 
L 355.075907 201.739399 
L 355.089332 201.725674 
L 355.150571 201.663109 
L 355.207334 201.605119 
L 355.222463 201.589787 
L 356.808748 199.985599 
L 356.927062 199.865967 
L 357.984824 198.773985 
L 358.604886 198.146308 
L 358.61463 198.136384 
L 358.769492 197.979672 
L 358.779236 197.969749 
L 358.981806 197.764664 
L 358.991609 197.75474 
L 359.146074 197.598443 
L 359.156273 197.588103 
L 359.297704 197.444942 
L 359.309377 197.433116 
L 361.112041 195.606882 
L 366.55296 190.065746 
L 367.335479 189.287193 
L 367.396208 189.224933 
L 375.027373 181.41148 
L 375.260182 181.167184 
L 375.776502 180.625395 
L 375.852694 180.546926 
L 376.917795 179.450203 
L 376.960339 179.406424 
L 377.054772 179.309184 
L 377.67009 178.675614 
L 378.023521 178.311608 
L 378.220432 178.108814 
L 378.402389 177.921464 
L 378.415759 177.907742 
L 378.561968 177.757046 
L 378.582021 177.736375 
L 378.673112 177.642523 
L 378.761881 177.551106 
L 378.861241 177.448701 
L 378.951541 177.355739 
L 379.042517 177.261948 
L 379.216939 177.082263 
L 379.64285 176.644639 
L 379.752643 176.531832 
L 379.776041 176.507832 
L 379.805047 176.478012 
L 379.904699 176.37566 
L 380.332313 175.936313 
L 380.690018 175.568786 
L 380.788819 175.467208 
L 381.141428 175.104968 
L 381.567799 174.66693 
L 381.677084 174.554658 
L 381.699688 174.531431 
L 382.592207 173.614488 
L 382.877231 173.321633 
L 383.701034 172.475207 
L 386.024537 170.087486 
L 385.989204 169.741474 
L 388.419203 167.485243 
L 388.603541 167.227544 
L 388.627583 167.19342 
L 388.646458 167.166618 
L 389.172458 166.450253 
L 389.195763 166.396102 
L 389.476296 165.746438 
L 389.960506 164.591943 
L 390.017395 164.461214 
L 390.130238 164.201985 
L 390.34666 163.704653 
L 390.405534 163.569348 
L 390.42185 163.531796 
L 391.026691 162.141953 
L 391.041024 162.109036 
L 391.140749 161.879967 
L 391.759221 160.459141 
L 391.953152 160.013271 
L 392.027242 159.842995 
L 392.174978 159.503327 
L 392.471079 158.818339 
L 392.524094 158.695658 
L 392.621804 158.469714 
L 392.914104 157.793469 
L 392.971029 157.661636 
L 393.167774 157.206639 
L 393.310677 156.876202 
L 393.395707 156.679303 
L 393.527589 156.374387 
L 393.620283 156.159886 
L 393.810193 155.720556 
L 394.44716 154.246972 
L 394.825884 153.370895 
L 395.639382 151.488847 
L 395.655532 151.45159 
L 395.787032 151.147556 
L 395.857296 150.984804 
L 395.926935 150.823711 
L 396.128173 150.358198 
L 396.747721 148.918536 
L 397.053975 148.207064 
L 397.217734 147.826483 
L 398.487273 144.912666 
L 396.384751 144.639041 
L 389.288652 143.715599 
L 388.494197 143.606335 
L 387.800038 143.510913 
L 387.616715 143.485695 
L 387.170611 143.438265 
L 386.744474 143.38173 
L 386.143348 143.301998 
L 385.499259 143.216553 
L 385.111648 143.166276 
L 384.97171 143.148125 
L 384.802371 143.126196 
L 382.662236 142.848812 
L 382.484814 142.82573 
L 381.145155 142.652065 
L 380.873736 142.616923 
L 373.867895 141.708859 
L 372.324416 141.493464 
L 371.841891 141.432471 
L 371.647509 141.407918 
L 371.114645 141.340624 
L 370.387786 141.24755 
L 369.584931 141.144747 
L 367.046367 140.817784 
L 365.611436 140.632979 
L 363.149348 140.312576 
L 362.790487 140.265888 
L 360.176489 139.925758 
L 359.824022 139.879917 
L 359.197278 139.798381 
L 357.918849 139.632041 
L 356.647376 139.465147 
L 355.711955 139.342367 
L 354.221469 139.146848 
L 354.172577 139.140458 
L 353.824401 139.09476 
L 352.325392 138.899269 
L 350.13777 138.613908 
L 349.827795 138.57351 
L 348.995939 138.465029 
L 338.495403 137.095656 
L 336.519776 136.838075 
L 336.313001 136.814293 
L 336.105557 136.796859 
L 335.897738 136.785883 
L 335.689599 136.781306 
L 335.48149 136.783177 
L 335.273467 136.791438 
L 335.065879 136.806138 
L 334.858784 136.827277 
L 330.451441 137.348716 
L 330.430011 137.167228 
L 330.388831 136.819612 
L 329.957242 133.178601 
L 329.930409 132.955578 
L 329.734679 131.331959 
L 327.196702 131.627083 
L 326.278789 131.733739 
L 325.597048 131.813014 
L 325.256466 131.852588 
L 324.832979 131.90183 
L 324.377349 131.954825 
L 323.946925 132.004865 
L 323.631435 132.041547 
L 323.403033 130.059026 
L 322.754569 124.429724 
L 322.64808 123.506761 
L 322.582272 122.937003 
L 322.439984 121.705056 
L 322.391542 121.285503 
L 322.341026 120.848623 
L 322.236942 119.947511 
L 322.212503 119.735821 
L 322.156348 119.24951 
L 322.134661 119.062103 
L 322.101496 118.774731 
L 321.798935 116.146531 
L 321.651774 114.868563 
L 321.535706 113.860758 
L 321.365524 112.38269 
L 321.353622 112.279366 
L 321.212483 112.316039 
L 319.645308 112.722573 
L 319.199644 112.838157 
L 318.636472 112.984359 
L 318.066903 113.13216 
L 317.582514 113.257923 
L 317.28727 113.334531 
L 316.504987 113.537604 
L 315.852144 113.707058 
L 315.384988 113.828308 
L 315.188248 113.879902 
L 315.032943 113.92062 
L 314.482082 114.065039 
L 313.371736 114.356867 
L 312.275338 114.645071 
L 310.58078 115.090344 
L 309.635153 115.33707 
L 308.611897 115.606366 
L 308.1838 115.719127 
L 307.730979 115.838262 
L 307.393642 115.927111 
L 306.875187 116.063545 
L 306.701621 116.109273 
L 305.157498 116.515711 
L 304.69719 116.63688 
L 304.127048 116.786931 
L 303.959821 116.830947 
L 303.941937 116.696733 
L 303.871438 116.167292 
L 303.805548 115.672374 
L 303.718456 115.017057 
L 303.559488 113.833027 
L 303.379665 112.480977 
L 303.357374 112.313514 
L 303.253377 111.531514 
L 303.223685 111.308674 
L 303.206628 111.18031 
L 303.124779 110.564614 
L 303.090267 110.305629 
L 303.000458 109.630387 
L 302.966003 109.371342 
L 302.811551 108.210334 
L 302.457898 107.894649 
L 302.455236 107.892272 
L 301.747052 107.825269 
L 301.429851 107.795255 
L 300.885031 107.743704 
L 300.564402 107.713363 
L 299.713942 107.632932 
L 299.39674 107.602921 
L 298.450596 107.513404 
L 297.99257 107.470047 
L 296.753913 107.352869 
L 296.637082 107.341821 
L 294.992392 107.186153 
L 294.77128 107.165285 
L 294.741709 107.162473 
L 293.896705 107.082459 
L 293.787137 107.072118 
L 292.402712 106.941087 
L 292.154586 106.917642 
L 291.383942 106.844653 
L 291.200886 106.847902 
L 290.390486 106.862162 
L 290.274243 106.864235 
L 289.455788 106.878624 
L 289.045063 106.88626 
L 288.684405 106.892985 
L 288.276172 106.900565 
L 288.126841 106.903221 
L 287.275127 106.918317 
L 286.416806 106.933509 
L 285.548519 106.948873 
L 284.684405 106.964202 
L 283.813161 106.979581 
L 282.955769 106.99482 
L 282.072133 107.010778 
L 281.212373 107.026367 
L 279.445114 107.059359 
L 278.223038 107.08218 
L 278.104195 107.084608 
L 277.239442 107.102415 
L 276.683412 107.1138 
L 276.303922 107.120914 
L 270.928316 107.221829 
L 270.002048 107.239266 
L 264.450001 107.34359 
L 263.987591 107.352273 
L 263.71264 107.357588 
L 263.602948 107.359638 
L 262.572096 107.379381 
L 262.357118 107.383497 
L 262.015354 107.389998 
L 261.643346 107.39725 
L 261.526992 107.399512 
L 260.907383 107.411515 
L 260.703647 107.415432 
L 260.45643 107.335461 
L 259.89261 107.15294 
L 259.334516 106.972381 
L 259.317202 106.897072 
L 259.225589 106.49775 
L 253.243986 104.475406 
L 251.998228 104.054193 
L 251.943426 104.035639 
L 251.775986 103.979059 
L 247.773337 102.62615 
L 247.69096 102.598295 
L 247.60864 102.570439 
L 245.869536 101.982626 
L 245.66593 101.913867 
L 243.924892 101.325471 
L 243.602214 101.216398 
L 242.883595 100.973501 
L 242.787485 100.940967 
L 242.109937 100.712001 
L 241.943545 100.65581 
L 241.860056 100.627575 
L 239.997063 99.997678 
L 239.794447 99.929248 
L 238.981636 99.654365 
L 238.817929 99.599043 
L 238.143294 99.37095 
L 237.402291 99.120622 
L 237.072424 99.009223 
L 236.991037 98.981697 
L 235.321824 98.417498 
L 232.10129 97.32935 
L 231.963523 97.282847 
L 231.814244 97.232368 
L 231.028882 96.966984 
L 230.893861 96.921406 
L 230.743473 96.870605 
L 229.960797 96.60615 
L 229.822503 96.559428 
L 229.673223 96.50895 
L 228.889437 96.244175 
L 228.75342 96.198215 
L 228.60414 96.147737 
L 227.817548 95.882043 
L 227.682056 95.836186 
L 227.53272 95.785827 
L 226.410872 95.406782 
L 226.328548 95.378932 
L 226.301147 95.369686 
L 226.026542 95.276955 
L 224.667186 94.817693 
L 223.568994 94.446654 
L 223.183492 94.316394 
L 222.76089 94.173626 
L 222.388767 94.047881 
L 221.226591 93.655261 
L 221.14421 93.627472 
L 220.973367 93.56971 
L 220.377993 93.36859 
L 219.643152 93.120375 
L 219.283589 92.998933 
L 219.205882 92.972722 
L 219.147102 92.952814 
L 218.947924 92.885598 
L 217.566056 92.418988 
L 217.356242 92.348126 
L 215.303793 91.655134 
L 215.195584 91.618589 
L 213.60307 91.080867 
L 211.858683 92.607992 
L 210.491772 93.804695 
L 206.608188 97.204709 
L 205.511133 98.165055 
L 199.875397 103.099318 
L 198.662297 104.161441 
L 197.755545 104.955249 
L 196.757594 105.828913 
L 195.063166 107.312573 
L 194.495502 107.809712 
L 193.936297 108.316592 
L 193.693835 108.435974 
L 193.504737 108.529077 
L 193.337593 108.611388 
L 193.106724 108.828752 
L 192.739567 109.156646 
L 191.237134 107.75973 
L 191.126347 107.656553 
L 191.078183 107.61177 
L 191.024269 107.561483 
L 189.825251 106.44375 
L 189.324205 105.976668 
L 188.890632 105.933734 
L 187.981102 105.845132 
L 187.140018 105.763253 
L 186.244543 105.675783 
L 185.82776 105.634498 
L 185.379754 105.591729 
L 184.514846 105.507507 
L 183.484232 105.407261 
L 180.402333 105.133103 
L 175.673676 104.713114 
L 173.496013 104.519524 
L 173.103504 104.485188 
L 172.964931 105.303402 
L 172.466627 106.959904 
L 172.397672 107.181654 
L 172.324689 107.402162 
L 172.24773 107.621252 
L 172.166738 107.838866 
L 172.081828 108.055004 
L 171.998713 108.256051 
L 171.912145 108.455667 
L 171.822238 108.653793 
L 171.728932 108.850313 
L 171.632285 109.045225 
L 171.628936 109.051744 
L 171.56228 109.181474 
L 171.490574 109.316892 
L 171.417283 109.451417 
L 171.404649 109.474138 
L 171.391958 109.49686 
L 171.379266 109.519582 
L 171.353986 109.564444 
L 171.328529 109.609193 
L 171.302896 109.65383 
L 171.212996 109.807101 
L 171.12098 109.959143 
L 171.026846 110.10984 
L 170.930653 110.259249 
L 170.830155 110.410501 
L 170.727537 110.560291 
L 170.622797 110.708562 
L 170.580895 110.76665 
L 170.538641 110.824515 
L 170.496092 110.882153 
L 170.357946 111.064842 
L 170.216552 111.244934 
L 170.071911 111.422487 
L 169.924136 111.597382 
L 169.773227 111.769619 
L 169.619124 111.939084 
L 169.461999 112.105714 
L 169.30191 112.269508 
L 169.138914 112.430406 
L 168.973007 112.588293 
L 168.804366 112.743222 
L 168.632987 112.895078 
L 168.458927 113.0438 
L 168.282244 113.189388 
L 168.102936 113.331784 
L 167.90829 113.480172 
L 167.71083 113.624733 
L 167.510617 113.765523 
L 167.307762 113.902366 
L 167.261797 113.932603 
L 167.215653 113.962669 
L 167.169389 113.992506 
L 167.075015 114.05263 
L 166.9801 114.111894 
L 166.884645 114.170357 
L 166.710987 114.27381 
L 166.535701 114.374512 
L 166.358784 114.472405 
L 166.180411 114.567486 
L 165.97645 114.671528 
L 165.770663 114.771836 
L 165.563109 114.868467 
L 165.353903 114.961302 
L 165.142986 115.050343 
L 164.930649 115.13564 
L 164.716773 115.21708 
L 164.501475 115.29466 
L 164.284811 115.368322 
L 164.066898 115.43812 
L 163.847962 115.503816 
L 163.627833 115.565532 
L 163.406684 115.623262 
L 163.184516 115.677008 
L 162.961442 115.726707 
L 162.829379 115.756335 
L 162.696993 115.784575 
L 162.564344 115.811427 
L 161.746577 116.199357 
L 161.268221 116.257153 
L 160.752904 116.335971 
L 160.27691 116.418116 
L 159.80512 116.506555 
L 158.904364 116.700275 
L 156.827226 117.143243 
L 152.789433 118.004371 
L 151.566546 118.26518 
L 151.566163 118.265262 
L 150.561359 118.479606 
L 147.577299 119.116129 
L 145.915713 119.469183 
L 143.851615 119.907816 
L 143.379843 120.009065 
L 142.873333 120.122106 
L 142.402743 120.229255 
L 141.935627 120.338706 
L 141.46737 120.453936 
L 141.002064 120.571422 
L 140.535621 120.694804 
L 140.111358 120.809822 
L 139.609598 120.952507 
L 139.213217 121.067456 
L 139.187194 121.075152 
L 138.266586 121.353708 
L 137.75773 121.517711 
L 137.620217 121.562061 
L 137.258519 121.68515 
L 136.764597 121.853163 
L 136.339346 121.997842 
L 135.734193 122.213544 
L 134.829428 122.554839 
L 134.379436 122.72979 
L 128.991795 124.860919 
L 127.908108 125.289625 
L 127.534934 125.437282 
L 125.789222 126.127846 
L 122.103125 127.586601 
L 122.04207 127.610807 
L 121.778953 127.71499 
L 119.240671 128.720426 
L 119.084551 128.784394 
L 118.599009 128.982631 
L 118.535158 129.008704 
L 117.904114 129.266305 
L 117.673278 129.362645 
L 116.913543 129.679623 
L 116.250427 129.966217 
L 116.057032 130.049828 
L 113.805805 131.046317 
L 112.545828 131.60402 
L 112.369301 131.682591 
L 109.797987 132.826937 
L 108.268347 133.507717 
L 107.995728 133.629042 
L 106.504649 134.292716 
L 106.166 134.443425 
L 105.816108 134.599162 
L 105.62933 134.921018 
L 104.761815 136.416019 
L 101.837945 141.455099 
L 100.752056 143.326516 
L 99.906713 144.783479 
L 98.686741 146.886107 
L 97.248439 149.365087 
L 96.97198 149.841575 
L 96.730065 150.25851 
L 96.514951 150.629321 
L 95.938418 151.62306 
L 96.037025 151.680586 
L 95.971735 151.795943 
L 95.901311 151.92034 
L 95.809818 152.081953 
L 95.710355 152.257727 
L 93.858762 155.48347 
L 93.77545 155.628593 
L 90.67265 161.034444 
L 90.224767 161.815245 
L 89.885634 162.406166 
L 88.797296 164.302441 
L 88.452018 164.904022 
L 86.272741 168.701068 
L 84.642043 171.542731 
L 83.850454 172.922132 
L 83.592386 173.37281 
L 83.084276 174.272698 
L 82.700681 174.948517 
L 82.669802 175.003396 
L 82.033672 176.148008 
L 81.58725 176.959467 
L 81.144118 177.772709 
L 80.704218 178.587734 
L 80.267607 179.404483 
L 79.8341 180.222497 
L 79.403823 181.042236 
L 78.976834 181.863699 
L 78.553192 182.686885 
L 78.132844 183.512028 
L 77.715782 184.338837 
L 77.302066 185.167311 
L 76.891636 185.997451 
L 75.075435 189.688061 
L 74.573614 190.707798 
L 73.832727 192.21345 
L 74.268537 192.230531 
L 85.158902 192.658414 
L 87.785238 192.791248 
L 93.638002 193.212353 
L 95.343849 193.337751 
L 101.123037 193.763472 
L 104.072858 193.980888 
L 108.57984 194.313011 
L 111.30846 194.514143 
L 118.691272 195.058478 
L 125.688401 195.323041 
L 125.838224 195.328596 
L 126.108462 195.338653 
L 127.246861 195.381954 
L 127.48282 195.390781 
L 133.682626 195.623602 
L 138.293914 195.888336 
L 138.491212 196.108753 
L 138.598783 196.206407 
L 140.564238 198.536556 
L 141.006612 199.105961 
L 141.060914 199.175809 
L 141.102971 199.229965 
L 141.711047 199.889974 
L 141.890277 200.08374 
L 143.754725 201.972372 
L 144.356413 202.752051 
L 145.935125 205.164592 
L 146.069519 205.439298 
L 146.276972 205.735714 
L 147.118337 206.907511 
L 147.540163 207.484146 
L 148.55109 208.631422 
L 148.823456 208.940908 
L 154.941592 216.710171 
L 155.012943 216.800831 
L 156.506818 218.613357 
L 157.665735 219.845995 
L 158.546196 220.98339 
L 160.01284 223.088124 
L 160.390723 223.571096 
L 160.571427 223.802199 
L 163.734896 227.845857 
L 163.800881 227.930196 
L 164.657301 229.025 
L 164.931387 229.375365 
L 165.897969 230.611003 
L 166.334568 231.190692 
L 166.567906 231.500638 
L 167.982795 233.379613 
L 168.146062 233.596427 
L 168.378916 233.905689 
L 168.432659 233.977008 
L 168.61075 234.213464 
L 169.357683 235.145878 
L 170.870205 236.627968 
L 171.024303 236.781782 
L 170.927035 236.927963 
L 170.897293 237.009939 
L 171.405629 237.395185 
L 173.264463 238.737052 
L 175.064437 239.80199 
L 175.191332 239.877072 
L 175.157984 240.384553 
L 175.154552 240.436634 
L 175.141447 240.636751 
L 175.141443 240.636817 
L 175.141742 240.636977 
L 176.655353 241.444277 
L 176.877837 241.54369 
L 177.100254 241.6402 
L 177.325499 241.733739 
L 177.553572 241.824308 
L 177.781578 241.911973 
L 178.012345 241.993765 
L 178.079616 242.021253 
L 178.123386 242.034761 
L 178.356847 242.107775 
L 178.59004 242.169174 
L 178.828957 242.227536 
L 179.070502 242.274217 
L 179.309083 242.318061 
L 179.550292 242.350224 
L 179.81177 242.381917 
L 180.073181 242.410707 
L 180.331562 242.433756 
L 180.592705 242.450932 
L 180.856743 242.468041 
L 181.117751 242.47941 
L 181.378626 242.484972 
L 181.642328 242.487564 
L 182.582266 242.416353 
L 185.420074 242.103548 
L 188.2218 241.733506 
L 188.504902 241.697888 
L 188.516552 241.700523 
L 188.525306 241.703225 
L 188.534127 241.708831 
L 188.542881 241.711533 
L 188.551634 241.714235 
L 188.560455 241.71984 
L 188.566314 241.722609 
L 188.575134 241.728215 
L 188.58106 241.733888 
L 188.584156 241.742531 
L 188.592977 241.748137 
L 188.596074 241.75678 
L 188.601999 241.762453 
L 188.607991 241.771029 
L 188.611088 241.779673 
L 188.614184 241.788316 
L 189.23251 241.715872 
L 189.31635 241.708118 
L 191.942858 241.403184 
L 192.191347 241.374182 
L 192.439836 241.345181 
L 192.68846 241.321987 
L 192.940046 241.301629 
L 193.203147 241.2781 
L 193.466383 241.260378 
L 193.729752 241.248463 
L 193.993121 241.236549 
L 194.256625 241.230442 
L 194.520329 241.233045 
L 194.754943 241.230513 
L 194.986795 241.233856 
L 195.218713 241.240102 
L 195.450566 241.243444 
L 195.682551 241.252595 
L 195.914537 241.261745 
L 196.187196 241.275763 
L 196.459921 241.292685 
L 196.732647 241.309607 
L 197.005506 241.332337 
L 197.275469 241.355134 
L 197.5455 241.380835 
L 199.499817 241.576693 
L 199.566617 241.583862 
L 199.645134 241.596569 
L 199.896612 241.637269 
L 202.525835 242.642526 
L 202.527913 242.643003 
L 202.732628 242.690031 
L 202.936191 242.723085 
L 203.142449 242.747362 
L 203.351335 242.759958 
L 203.415106 242.761388 
L 203.476114 242.768691 
L 203.540152 242.781734 
L 203.601361 242.797748 
L 203.662637 242.816666 
L 203.72398 242.838487 
L 204.096804 243.050646 
L 204.527071 243.241141 
L 211.318885 246.302903 
L 211.380426 246.333436 
L 218.038631 249.386827 
L 218.100038 249.411554 
L 220.600247 250.547823 
L 220.895431 250.660118 
L 221.505667 250.86682 
L 221.57576 250.891348 
L 222.220675 251.094346 
L 222.746139 251.268146 
L 222.99386 251.332152 
L 223.238818 251.402033 
L 223.486539 251.466039 
L 223.731364 251.530112 
L 223.979151 251.597023 
L 224.226738 251.655223 
L 224.474458 251.71923 
L 224.722044 251.77743 
L 224.972527 251.835564 
L 225.223075 251.896602 
L 234.598046 254.048155 
L 242.51366 255.85883 
L 242.691283 255.898321 
L 243.28825 256.032747 
L 243.290085 256.033132 
L 244.100413 256.202897 
L 244.91251 256.370146 
L 247.483579 256.938529 
L 247.553469 256.954353 
L 248.260925 257.106586 
L 251.194184 257.678298 
L 251.258217 257.691352 
L 251.994491 257.837122 
L 252.255948 257.868882 
L 252.514443 257.897805 
L 252.775767 257.923759 
L 253.039787 257.940935 
L 253.300912 257.958178 
L 253.827589 257.975133 
L 256.592247 257.972661 
L 256.893047 257.95123 
L 257.193714 257.923993 
L 257.494316 257.893853 
L 257.794851 257.860809 
L 258.092358 257.822025 
L 258.39276 257.783174 
L 258.690135 257.738584 
L 258.990273 257.68812 
L 259.250006 257.644394 
L 259.509607 257.59486 
L 259.766246 257.54249 
L 260.028544 257.484181 
L 260.285051 257.426004 
L 260.544388 257.364857 
L 260.800762 257.300874 
L 261.054176 257.234054 
L 261.316275 257.167034 
L 261.572452 257.094341 
L 261.831391 257.015774 
L 262.08454 256.93734 
L 262.340518 256.855937 
L 262.593469 256.768793 
L 262.656706 256.747007 
L 263.418189 256.473896 
L 268.738417 254.623417 
L 270.416312 254.009769 
L 272.238065 253.352166 
L 272.468254 253.282983 
L 272.701405 253.216637 
L 272.931792 253.156165 
L 273.162114 253.092789 
L 273.533789 253.002937 
L 273.675009 252.970653 
L 273.81623 252.938368 
L 274.332154 252.821974 
L 274.574455 252.775756 
L 274.819718 252.732375 
L 275.067942 252.691832 
L 275.313469 252.660066 
L 275.561826 252.62533 
L 275.807486 252.599372 
L 276.142775 252.565552 
L 276.920292 252.486752 
L 277.371537 252.45609 
L 277.628977 252.438579 
L 277.889445 252.426809 
L 278.149847 252.412136 
L 278.410513 252.409077 
L 278.67118 252.406019 
L 278.931978 252.408768 
L 279.189947 252.414487 
L 279.450944 252.425947 
L 279.709045 252.437473 
L 279.970173 252.454741 
L 280.228472 252.474979 
L 280.489799 252.500958 
L 280.74823 252.527003 
L 281.003964 252.561826 
L 281.297472 252.601595 
L 281.588216 252.647238 
L 281.879026 252.695784 
L 282.169902 252.747235 
L 282.457817 252.795849 
L 282.745995 252.856077 
L 283.034173 252.916305 
L 283.322418 252.979437 
L 283.607898 253.048443 
L 283.893445 253.120353 
L 284.178991 253.192263 
L 284.461774 253.270047 
L 284.747452 253.347764 
L 285.027536 253.434326 
L 285.307621 253.520887 
L 285.590667 253.610286 
L 285.868054 253.705625 
L 286.145506 253.803868 
L 286.425788 253.899141 
L 286.700476 254.003258 
L 286.975231 254.110278 
L 287.247155 254.220269 
L 287.522041 254.333097 
L 287.791136 254.446058 
L 288.060362 254.564826 
L 288.326824 254.689468 
L 288.59322 254.811206 
L 288.859814 254.941655 
L 288.894956 254.958283 
L 289.032755 254.902844 
L 289.075073 254.980315 
L 289.012031 255.010806 
L 289.175896 255.082595 
L 289.290926 255.045107 
L 289.324228 255.108258 
L 289.287179 255.13525 
L 292.453108 256.515499 
L 292.406191 256.618248 
L 292.754384 256.770079 
L 294.676904 257.615154 
L 295.237583 257.203724 
L 296.458899 256.304448 
L 296.282131 256.225686 
L 299.125194 253.966392 
L 300.024061 253.252218 
L 300.619966 252.77864 
L 300.877351 253.080652 
L 302.109749 252.165171 
L 301.732128 251.722271 
L 305.630279 248.905272 
L 306.198867 248.491126 
L 306.594287 248.203115 
L 308.218345 246.990381 
L 309.454811 246.063044 
L 311.236961 244.837548 
L 312.291963 243.989306 
L 316.332276 240.885046 
L 316.100874 240.402023 
L 316.004298 240.2004 
L 320.294877 237.70737 
L 324.380717 235.333286 
L 325.677179 234.443471 
L 326.534733 233.816137 
L 327.450417 233.146275 
" clip-path="url(#p16b87833bd)" style="fill: #1f77b4"/>
   </g>
   <g id="matplotlib.axis_1">
    <g id="xtick_1">
     <g id="line2d_1">
      <defs>
       <path id="me0d035cccf" d="M 0 0 
L 0 3.5 
" style="stroke: #000000; stroke-width: 0.8"/>
      </defs>
      <g>
       <use xlink:href="#me0d035cccf" x="67.819104" y="266.319847" style="stroke: #000000; stroke-width: 0.8"/>
      </g>
     </g>
     <g id="text_1">
      <!-- 13.30 -->
      <g transform="translate(53.505041 280.918284) scale(0.1 -0.1)">
       <defs>
        <path id="DejaVuSans-31" d="M 794 531 
L 1825 531 
L 1825 4091 
L 703 3866 
L 703 4441 
L 1819 4666 
L 2450 4666 
L 2450 531 
L 3481 531 
L 3481 0 
L 794 0 
L 794 531 
z
" transform="scale(0.015625)"/>
        <path id="DejaVuSans-33" d="M 2597 2516 
Q 3050 2419 3304 2112 
Q 3559 1806 3559 1356 
Q 3559 666 3084 287 
Q 2609 -91 1734 -91 
Q 1441 -91 1130 -33 
Q 819 25 488 141 
L 488 750 
Q 750 597 1062 519 
Q 1375 441 1716 441 
Q 2309 441 2620 675 
Q 2931 909 2931 1356 
Q 2931 1769 2642 2001 
Q 2353 2234 1838 2234 
L 1294 2234 
L 1294 2753 
L 1863 2753 
Q 2328 2753 2575 2939 
Q 2822 3125 2822 3475 
Q 2822 3834 2567 4026 
Q 2313 4219 1838 4219 
Q 1578 4219 1281 4162 
Q 984 4106 628 3988 
L 628 4550 
Q 988 4650 1302 4700 
Q 1616 4750 1894 4750 
Q 2613 4750 3031 4423 
Q 3450 4097 3450 3541 
Q 3450 3153 3228 2886 
Q 3006 2619 2597 2516 
z
" transform="scale(0.015625)"/>
        <path id="DejaVuSans-2e" d="M 684 794 
L 1344 794 
L 1344 0 
L 684 0 
L 684 794 
z
" transform="scale(0.015625)"/>
        <path id="DejaVuSans-30" d="M 2034 4250 
Q 1547 4250 1301 3770 
Q 1056 3291 1056 2328 
Q 1056 1369 1301 889 
Q 1547 409 2034 409 
Q 2525 409 2770 889 
Q 3016 1369 3016 2328 
Q 3016 3291 2770 3770 
Q 2525 4250 2034 4250 
z
M 2034 4750 
Q 2819 4750 3233 4129 
Q 3647 3509 3647 2328 
Q 3647 1150 3233 529 
Q 2819 -91 2034 -91 
Q 1250 -91 836 529 
Q 422 1150 422 2328 
Q 422 3509 836 4129 
Q 1250 4750 2034 4750 
z
" transform="scale(0.015625)"/>
       </defs>
       <use xlink:href="#DejaVuSans-31"/>
       <use xlink:href="#DejaVuSans-33" x="63.623047"/>
       <use xlink:href="#DejaVuSans-2e" x="127.246094"/>
       <use xlink:href="#DejaVuSans-33" x="159.033203"/>
       <use xlink:href="#DejaVuSans-30" x="222.65625"/>
      </g>
     </g>
    </g>
    <g id="xtick_2">
     <g id="line2d_2">
      <g>
       <use xlink:href="#me0d035cccf" x="146.404857" y="266.319847" style="stroke: #000000; stroke-width: 0.8"/>
      </g>
     </g>
     <g id="text_2">
      <!-- 13.32 -->
      <g transform="translate(132.090795 280.918284) scale(0.1 -0.1)">
       <defs>
        <path id="DejaVuSans-32" d="M 1228 531 
L 3431 531 
L 3431 0 
L 469 0 
L 469 531 
Q 828 903 1448 1529 
Q 2069 2156 2228 2338 
Q 2531 2678 2651 2914 
Q 2772 3150 2772 3378 
Q 2772 3750 2511 3984 
Q 2250 4219 1831 4219 
Q 1534 4219 1204 4116 
Q 875 4013 500 3803 
L 500 4441 
Q 881 4594 1212 4672 
Q 1544 4750 1819 4750 
Q 2544 4750 2975 4387 
Q 3406 4025 3406 3419 
Q 3406 3131 3298 2873 
Q 3191 2616 2906 2266 
Q 2828 2175 2409 1742 
Q 1991 1309 1228 531 
z
" transform="scale(0.015625)"/>
       </defs>
       <use xlink:href="#DejaVuSans-31"/>
       <use xlink:href="#DejaVuSans-33" x="63.623047"/>
       <use xlink:href="#DejaVuSans-2e" x="127.246094"/>
       <use xlink:href="#DejaVuSans-33" x="159.033203"/>
       <use xlink:href="#DejaVuSans-32" x="222.65625"/>
      </g>
     </g>
    </g>
    <g id="xtick_3">
     <g id="line2d_3">
      <g>
       <use xlink:href="#me0d035cccf" x="224.990611" y="266.319847" style="stroke: #000000; stroke-width: 0.8"/>
      </g>
     </g>
     <g id="text_3">
      <!-- 13.34 -->
      <g transform="translate(210.676549 280.918284) scale(0.1 -0.1)">
       <defs>
        <path id="DejaVuSans-34" d="M 2419 4116 
L 825 1625 
L 2419 1625 
L 2419 4116 
z
M 2253 4666 
L 3047 4666 
L 3047 1625 
L 3713 1625 
L 3713 1100 
L 3047 1100 
L 3047 0 
L 2419 0 
L 2419 1100 
L 313 1100 
L 313 1709 
L 2253 4666 
z
" transform="scale(0.015625)"/>
       </defs>
       <use xlink:href="#DejaVuSans-31"/>
       <use xlink:href="#DejaVuSans-33" x="63.623047"/>
       <use xlink:href="#DejaVuSans-2e" x="127.246094"/>
       <use xlink:href="#DejaVuSans-33" x="159.033203"/>
       <use xlink:href="#DejaVuSans-34" x="222.65625"/>
      </g>
     </g>
    </g>
    <g id="xtick_4">
     <g id="line2d_4">
      <g>
       <use xlink:href="#me0d035cccf" x="303.576365" y="266.319847" style="stroke: #000000; stroke-width: 0.8"/>
      </g>
     </g>
     <g id="text_4">
      <!-- 13.36 -->
      <g transform="translate(289.262302 280.918284) scale(0.1 -0.1)">
       <defs>
        <path id="DejaVuSans-36" d="M 2113 2584 
Q 1688 2584 1439 2293 
Q 1191 2003 1191 1497 
Q 1191 994 1439 701 
Q 1688 409 2113 409 
Q 2538 409 2786 701 
Q 3034 994 3034 1497 
Q 3034 2003 2786 2293 
Q 2538 2584 2113 2584 
z
M 3366 4563 
L 3366 3988 
Q 3128 4100 2886 4159 
Q 2644 4219 2406 4219 
Q 1781 4219 1451 3797 
Q 1122 3375 1075 2522 
Q 1259 2794 1537 2939 
Q 1816 3084 2150 3084 
Q 2853 3084 3261 2657 
Q 3669 2231 3669 1497 
Q 3669 778 3244 343 
Q 2819 -91 2113 -91 
Q 1303 -91 875 529 
Q 447 1150 447 2328 
Q 447 3434 972 4092 
Q 1497 4750 2381 4750 
Q 2619 4750 2861 4703 
Q 3103 4656 3366 4563 
z
" transform="scale(0.015625)"/>
       </defs>
       <use xlink:href="#DejaVuSans-31"/>
       <use xlink:href="#DejaVuSans-33" x="63.623047"/>
       <use xlink:href="#DejaVuSans-2e" x="127.246094"/>
       <use xlink:href="#DejaVuSans-33" x="159.033203"/>
       <use xlink:href="#DejaVuSans-36" x="222.65625"/>
      </g>
     </g>
    </g>
    <g id="xtick_5">
     <g id="line2d_5">
      <g>
       <use xlink:href="#me0d035cccf" x="382.162119" y="266.319847" style="stroke: #000000; stroke-width: 0.8"/>
      </g>
     </g>
     <g id="text_5">
      <!-- 13.38 -->
      <g transform="translate(367.848056 280.918284) scale(0.1 -0.1)">
       <defs>
        <path id="DejaVuSans-38" d="M 2034 2216 
Q 1584 2216 1326 1975 
Q 1069 1734 1069 1313 
Q 1069 891 1326 650 
Q 1584 409 2034 409 
Q 2484 409 2743 651 
Q 3003 894 3003 1313 
Q 3003 1734 2745 1975 
Q 2488 2216 2034 2216 
z
M 1403 2484 
Q 997 2584 770 2862 
Q 544 3141 544 3541 
Q 544 4100 942 4425 
Q 1341 4750 2034 4750 
Q 2731 4750 3128 4425 
Q 3525 4100 3525 3541 
Q 3525 3141 3298 2862 
Q 3072 2584 2669 2484 
Q 3125 2378 3379 2068 
Q 3634 1759 3634 1313 
Q 3634 634 3220 271 
Q 2806 -91 2034 -91 
Q 1263 -91 848 271 
Q 434 634 434 1313 
Q 434 1759 690 2068 
Q 947 2378 1403 2484 
z
M 1172 3481 
Q 1172 3119 1398 2916 
Q 1625 2713 2034 2713 
Q 2441 2713 2670 2916 
Q 2900 3119 2900 3481 
Q 2900 3844 2670 4047 
Q 2441 4250 2034 4250 
Q 1625 4250 1398 4047 
Q 1172 3844 1172 3481 
z
" transform="scale(0.015625)"/>
       </defs>
       <use xlink:href="#DejaVuSans-31"/>
       <use xlink:href="#DejaVuSans-33" x="63.623047"/>
       <use xlink:href="#DejaVuSans-2e" x="127.246094"/>
       <use xlink:href="#DejaVuSans-33" x="159.033203"/>
       <use xlink:href="#DejaVuSans-38" x="222.65625"/>
      </g>
     </g>
    </g>
   </g>
   <g id="matplotlib.axis_2">
    <g id="ytick_1">
     <g id="line2d_6">
      <defs>
       <path id="m105796f093" d="M 0 0 
L -3.5 0 
" style="stroke: #000000; stroke-width: 0.8"/>
      </defs>
      <g>
       <use xlink:href="#m105796f093" x="57.6" y="249.121328" style="stroke: #000000; stroke-width: 0.8"/>
      </g>
     </g>
     <g id="text_6">
      <!-- 52.540 -->
      <g transform="translate(15.609375 252.920547) scale(0.1 -0.1)">
       <defs>
        <path id="DejaVuSans-35" d="M 691 4666 
L 3169 4666 
L 3169 4134 
L 1269 4134 
L 1269 2991 
Q 1406 3038 1543 3061 
Q 1681 3084 1819 3084 
Q 2600 3084 3056 2656 
Q 3513 2228 3513 1497 
Q 3513 744 3044 326 
Q 2575 -91 1722 -91 
Q 1428 -91 1123 -41 
Q 819 9 494 109 
L 494 744 
Q 775 591 1075 516 
Q 1375 441 1709 441 
Q 2250 441 2565 725 
Q 2881 1009 2881 1497 
Q 2881 1984 2565 2268 
Q 2250 2553 1709 2553 
Q 1456 2553 1204 2497 
Q 953 2441 691 2322 
L 691 4666 
z
" transform="scale(0.015625)"/>
       </defs>
       <use xlink:href="#DejaVuSans-35"/>
       <use xlink:href="#DejaVuSans-32" x="63.623047"/>
       <use xlink:href="#DejaVuSans-2e" x="127.246094"/>
       <use xlink:href="#DejaVuSans-35" x="159.033203"/>
       <use xlink:href="#DejaVuSans-34" x="222.65625"/>
       <use xlink:href="#DejaVuSans-30" x="286.279297"/>
      </g>
     </g>
    </g>
    <g id="ytick_2">
     <g id="line2d_7">
      <g>
       <use xlink:href="#m105796f093" x="57.6" y="216.81063" style="stroke: #000000; stroke-width: 0.8"/>
      </g>
     </g>
     <g id="text_7">
      <!-- 52.545 -->
      <g transform="translate(15.609375 220.609849) scale(0.1 -0.1)">
       <use xlink:href="#DejaVuSans-35"/>
       <use xlink:href="#DejaVuSans-32" x="63.623047"/>
       <use xlink:href="#DejaVuSans-2e" x="127.246094"/>
       <use xlink:href="#DejaVuSans-35" x="159.033203"/>
       <use xlink:href="#DejaVuSans-34" x="222.65625"/>
       <use xlink:href="#DejaVuSans-35" x="286.279297"/>
      </g>
     </g>
    </g>
    <g id="ytick_3">
     <g id="line2d_8">
      <g>
       <use xlink:href="#m105796f093" x="57.6" y="184.499933" style="stroke: #000000; stroke-width: 0.8"/>
      </g>
     </g>
     <g id="text_8">
      <!-- 52.550 -->
      <g transform="translate(15.609375 188.299151) scale(0.1 -0.1)">
       <use xlink:href="#DejaVuSans-35"/>
       <use xlink:href="#DejaVuSans-32" x="63.623047"/>
       <use xlink:href="#DejaVuSans-2e" x="127.246094"/>
       <use xlink:href="#DejaVuSans-35" x="159.033203"/>
       <use xlink:href="#DejaVuSans-35" x="222.65625"/>
       <use xlink:href="#DejaVuSans-30" x="286.279297"/>
      </g>
     </g>
    </g>
    <g id="ytick_4">
     <g id="line2d_9">
      <g>
       <use xlink:href="#m105796f093" x="57.6" y="152.189235" style="stroke: #000000; stroke-width: 0.8"/>
      </g>
     </g>
     <g id="text_9">
      <!-- 52.555 -->
      <g transform="translate(15.609375 155.988454) scale(0.1 -0.1)">
       <use xlink:href="#DejaVuSans-35"/>
       <use xlink:href="#DejaVuSans-32" x="63.623047"/>
       <use xlink:href="#DejaVuSans-2e" x="127.246094"/>
       <use xlink:href="#DejaVuSans-35" x="159.033203"/>
       <use xlink:href="#DejaVuSans-35" x="222.65625"/>
       <use xlink:href="#DejaVuSans-35" x="286.279297"/>
      </g>
     </g>
    </g>
    <g id="ytick_5">
     <g id="line2d_10">
      <g>
       <use xlink:href="#m105796f093" x="57.6" y="119.878537" style="stroke: #000000; stroke-width: 0.8"/>
      </g>
     </g>
     <g id="text_10">
      <!-- 52.560 -->
      <g transform="translate(15.609375 123.677756) scale(0.1 -0.1)">
       <use xlink:href="#DejaVuSans-35"/>
       <use xlink:href="#DejaVuSans-32" x="63.623047"/>
       <use xlink:href="#DejaVuSans-2e" x="127.246094"/>
       <use xlink:href="#DejaVuSans-35" x="159.033203"/>
       <use xlink:href="#DejaVuSans-36" x="222.65625"/>
       <use xlink:href="#DejaVuSans-30" x="286.279297"/>
      </g>
     </g>
    </g>
    <g id="ytick_6">
     <g id="line2d_11">
      <g>
       <use xlink:href="#m105796f093" x="57.6" y="87.567839" style="stroke: #000000; stroke-width: 0.8"/>
      </g>
     </g>
     <g id="text_11">
      <!-- 52.565 -->
      <g transform="translate(15.609375 91.367058) scale(0.1 -0.1)">
       <use xlink:href="#DejaVuSans-35"/>
       <use xlink:href="#DejaVuSans-32" x="63.623047"/>
       <use xlink:href="#DejaVuSans-2e" x="127.246094"/>
       <use xlink:href="#DejaVuSans-35" x="159.033203"/>
       <use xlink:href="#DejaVuSans-36" x="222.65625"/>
       <use xlink:href="#DejaVuSans-35" x="286.279297"/>
      </g>
     </g>
    </g>
   </g>
   <g id="patch_3">
    <path d="M 57.6 266.319847 
L 57.6 82.736153 
" style="fill: none; stroke: #000000; stroke-width: 0.8; stroke-linejoin: miter; stroke-linecap: square"/>
   </g>
   <g id="patch_4">
    <path d="M 414.72 266.319847 
L 414.72 82.736153 
" style="fill: none; stroke: #000000; stroke-width: 0.8; stroke-linejoin: miter; stroke-linecap: square"/>
   </g>
   <g id="patch_5">
    <path d="M 57.6 266.319847 
L 414.72 266.319847 
" style="fill: none; stroke: #000000; stroke-width: 0.8; stroke-linejoin: miter; stroke-linecap: square"/>
   </g>
   <g id="patch_6">
    <path d="M 57.6 82.736153 
L 414.72 82.736153 
" style="fill: none; stroke: #000000; stroke-width: 0.8; stroke-linejoin: miter; stroke-linecap: square"/>
   </g>
   <g id="text_12">
    <!-- Wedding -->
    <g transform="translate(211.40496 177.343195) scale(0.12 -0.12)">
     <defs>
      <path id="DejaVuSans-57" d="M 213 4666 
L 850 4666 
L 1831 722 
L 2809 4666 
L 3519 4666 
L 4500 722 
L 5478 4666 
L 6119 4666 
L 4947 0 
L 4153 0 
L 3169 4050 
L 2175 0 
L 1381 0 
L 213 4666 
z
" transform="scale(0.015625)"/>
      <path id="DejaVuSans-65" d="M 3597 1894 
L 3597 1613 
L 953 1613 
Q 991 1019 1311 708 
Q 1631 397 2203 397 
Q 2534 397 2845 478 
Q 3156 559 3463 722 
L 3463 178 
Q 3153 47 2828 -22 
Q 2503 -91 2169 -91 
Q 1331 -91 842 396 
Q 353 884 353 1716 
Q 353 2575 817 3079 
Q 1281 3584 2069 3584 
Q 2775 3584 3186 3129 
Q 3597 2675 3597 1894 
z
M 3022 2063 
Q 3016 2534 2758 2815 
Q 2500 3097 2075 3097 
Q 1594 3097 1305 2825 
Q 1016 2553 972 2059 
L 3022 2063 
z
" transform="scale(0.015625)"/>
      <path id="DejaVuSans-64" d="M 2906 2969 
L 2906 4863 
L 3481 4863 
L 3481 0 
L 2906 0 
L 2906 525 
Q 2725 213 2448 61 
Q 2172 -91 1784 -91 
Q 1150 -91 751 415 
Q 353 922 353 1747 
Q 353 2572 751 3078 
Q 1150 3584 1784 3584 
Q 2172 3584 2448 3432 
Q 2725 3281 2906 2969 
z
M 947 1747 
Q 947 1113 1208 752 
Q 1469 391 1925 391 
Q 2381 391 2643 752 
Q 2906 1113 2906 1747 
Q 2906 2381 2643 2742 
Q 2381 3103 1925 3103 
Q 1469 3103 1208 2742 
Q 947 2381 947 1747 
z
" transform="scale(0.015625)"/>
      <path id="DejaVuSans-69" d="M 603 3500 
L 1178 3500 
L 1178 0 
L 603 0 
L 603 3500 
z
M 603 4863 
L 1178 4863 
L 1178 4134 
L 603 4134 
L 603 4863 
z
" transform="scale(0.015625)"/>
      <path id="DejaVuSans-6e" d="M 3513 2113 
L 3513 0 
L 2938 0 
L 2938 2094 
Q 2938 2591 2744 2837 
Q 2550 3084 2163 3084 
Q 1697 3084 1428 2787 
Q 1159 2491 1159 1978 
L 1159 0 
L 581 0 
L 581 3500 
L 1159 3500 
L 1159 2956 
Q 1366 3272 1645 3428 
Q 1925 3584 2291 3584 
Q 2894 3584 3203 3211 
Q 3513 2838 3513 2113 
z
" transform="scale(0.015625)"/>
      <path id="DejaVuSans-67" d="M 2906 1791 
Q 2906 2416 2648 2759 
Q 2391 3103 1925 3103 
Q 1463 3103 1205 2759 
Q 947 2416 947 1791 
Q 947 1169 1205 825 
Q 1463 481 1925 481 
Q 2391 481 2648 825 
Q 2906 1169 2906 1791 
z
M 3481 434 
Q 3481 -459 3084 -895 
Q 2688 -1331 1869 -1331 
Q 1566 -1331 1297 -1286 
Q 1028 -1241 775 -1147 
L 775 -588 
Q 1028 -725 1275 -790 
Q 1522 -856 1778 -856 
Q 2344 -856 2625 -561 
Q 2906 -266 2906 331 
L 2906 616 
Q 2728 306 2450 153 
Q 2172 0 1784 0 
Q 1141 0 747 490 
Q 353 981 353 1791 
Q 353 2603 747 3093 
Q 1141 3584 1784 3584 
Q 2172 3584 2450 3431 
Q 2728 3278 2906 2969 
L 2906 3500 
L 3481 3500 
L 3481 434 
z
" transform="scale(0.015625)"/>
     </defs>
     <use xlink:href="#DejaVuSans-57"/>
     <use xlink:href="#DejaVuSans-65" x="93.001953"/>
     <use xlink:href="#DejaVuSans-64" x="154.525391"/>
     <use xlink:href="#DejaVuSans-64" x="218.001953"/>
     <use xlink:href="#DejaVuSans-69" x="281.478516"/>
     <use xlink:href="#DejaVuSans-6e" x="309.261719"/>
     <use xlink:href="#DejaVuSans-67" x="372.640625"/>
    </g>
   </g>
  </g>
 </g>
 <defs>
  <clipPath id="p16b87833bd">
   <rect x="57.6" y="82.736153" width="357.12" height="183.583693"/>
  </clipPath>
 </defs>
</svg>
