<?xml version="1.0" encoding="utf-8" standalone="no"?>
<!DOCTYPE svg PUBLIC "-//W3C//DTD SVG 1.1//EN"
  "http://www.w3.org/Graphics/SVG/1.1/DTD/svg11.dtd">
<svg xmlns:xlink="http://www.w3.org/1999/xlink" width="720pt" height="720pt" viewBox="0 0 720 720" xmlns="http://www.w3.org/2000/svg" version="1.1">
 <metadata>
  <rdf:RDF xmlns:dc="http://purl.org/dc/elements/1.1/" xmlns:cc="http://creativecommons.org/ns#" xmlns:rdf="http://www.w3.org/1999/02/22-rdf-syntax-ns#">
   <cc:Work>
    <dc:type rdf:resource="http://purl.org/dc/dcmitype/StillImage"/>
    <dc:date>2024-10-17T11:36:16.742123</dc:date>
    <dc:format>image/svg+xml</dc:format>
    <dc:creator>
     <cc:Agent>
      <dc:title>Matplotlib v3.9.2, https://matplotlib.org/</dc:title>
     </cc:Agent>
    </dc:creator>
   </cc:Work>
  </rdf:RDF>
 </metadata>
 <defs>
  <style type="text/css">*{stroke-linejoin: round; stroke-linecap: butt}</style>
 </defs>
 <g id="figure_1">
  <g id="patch_1">
   <path d="M 0 720 
L 720 720 
L 720 0 
L 0 0 
z
" style="fill: #ffffff"/>
  </g>
  <g id="axes_1">
   <g id="patch_2">
    <path d="M 90 507.478357 
L 648 507.478357 
L 648 219.721643 
L 90 219.721643 
z
" style="fill: #ffffff"/>
   </g>
   <g id="PatchCollection_1">
    <path d="M 508.915343 457.545884 
L 510.297144 456.584927 
L 509.235971 455.541986 
L 508.644846 454.965424 
L 507.57259 453.919583 
L 506.656553 453.026201 
L 505.603594 451.999146 
L 504.558938 450.966134 
L 503.40525 449.840425 
L 502.305626 448.77167 
L 501.962552 448.438164 
L 499.679997 446.219692 
L 499.247476 445.799266 
L 498.161121 444.743418 
L 497.12865 443.739469 
L 487.948604 434.81269 
L 484.189865 431.163164 
L 485.582198 431.222825 
L 485.641949 431.225352 
L 485.834742 431.233566 
L 486.92886 431.2805 
L 487.600385 431.309203 
L 487.795435 431.317506 
L 488.271008 431.337995 
L 488.309007 431.33962 
L 488.522199 431.348736 
L 489.780588 431.40262 
L 492.154937 431.508314 
L 493.423705 431.564003 
L 493.786185 431.579889 
L 494.471069 431.610035 
L 494.922904 431.629892 
L 497.244362 431.731885 
L 499.366979 431.845701 
L 499.633784 431.859962 
L 499.917016 431.873411 
L 500.200609 431.886859 
L 500.571032 431.904369 
L 501.857672 431.965204 
L 502.248853 431.983887 
L 503.852121 432.059795 
L 504.620043 432.096169 
L 505.306462 432.128572 
L 505.632296 432.144007 
L 508.219837 432.266127 
L 508.463626 432.27768 
L 510.080071 432.353949 
L 511.531794 432.422636 
L 511.95222 432.442583 
L 512.117213 432.450345 
L 512.180304 432.453324 
L 512.345478 432.461176 
L 512.408569 432.464155 
L 512.573562 432.471917 
L 512.995522 432.491954 
L 513.777976 432.52896 
L 515.472225 432.613804 
L 516.339431 432.655142 
L 516.386276 432.657309 
L 518.545177 432.760474 
L 519.592631 432.810297 
L 520.669509 432.861474 
L 522.386683 432.944061 
L 526.069064 433.128369 
L 527.218871 433.185774 
L 527.221849 432.894328 
L 527.589835 432.890537 
L 527.834797 432.88792 
L 527.865305 432.887649 
L 528.699116 432.878984 
L 528.664637 432.046437 
L 528.663283 432.014936 
L 528.653084 431.768169 
L 528.649383 431.678903 
L 528.644419 431.557775 
L 528.640357 431.459122 
L 528.569955 429.757834 
L 528.554792 429.391112 
L 528.785064 429.431066 
L 529.19211 429.49843 
L 530.214201 429.847822 
L 531.655273 430.340454 
L 534.831392 431.425275 
L 535.812776 428.553961 
L 535.965223 428.10736 
L 536.033639 427.906986 
L 536.251524 427.269127 
L 536.83938 425.549154 
L 536.907616 425.482272 
L 538.751333 423.67502 
L 540.227516 422.227539 
L 540.799487 421.666309 
L 540.852288 421.614501 
L 541.02035 421.449507 
L 541.236339 421.23758 
L 541.381837 421.095783 
L 541.570478 420.912106 
L 542.396797 420.106997 
L 542.757201 419.755891 
L 542.915425 419.601729 
L 542.927068 419.590266 
L 542.978877 419.539721 
L 544.056838 418.48974 
L 544.143938 418.404987 
L 544.190421 418.359677 
L 544.256581 418.295232 
L 544.296746 418.25615 
L 544.464266 418.092691 
L 544.83162 417.734183 
L 546.289751 416.311613 
L 546.517745 416.089125 
L 546.562965 416.044989 
L 546.735901 415.876295 
L 547.243877 415.383933 
L 547.385945 415.245476 
L 547.776495 414.864945 
L 547.968024 414.678199 
L 548.689553 413.975083 
L 548.908341 413.761891 
L 549.853622 412.839536 
L 550.448518 412.259984 
L 550.609088 412.103566 
L 550.989439 411.732963 
L 552.113974 410.63704 
L 552.229505 410.524487 
L 552.390075 410.368069 
L 552.547667 410.214448 
L 552.846244 409.923634 
L 553.00898 409.76523 
L 553.046528 409.728585 
L 553.067919 409.707735 
L 553.165489 409.612693 
L 553.255928 409.5246 
L 553.280028 409.501313 
L 555.806824 407.064956 
L 555.995284 406.883265 
L 557.680958 405.224037 
L 558.668661 404.270723 
L 558.684185 404.25565 
L 558.930863 404.017637 
L 558.946387 404.002564 
L 559.269063 403.691081 
L 559.284677 403.676008 
L 559.530723 403.438627 
L 559.54697 403.422922 
L 559.772256 403.205488 
L 559.790849 403.187527 
L 562.662344 400.413782 
L 571.33008 391.996604 
L 572.576013 390.814574 
L 572.672771 390.719983 
L 584.830546 378.849321 
L 585.201649 378.477966 
L 586.024671 377.654384 
L 586.146069 377.535152 
L 587.843116 375.868703 
L 587.9109 375.802183 
L 588.061361 375.654429 
L 589.041753 374.691728 
L 589.604878 374.138622 
L 589.918618 373.830478 
L 590.208529 373.545802 
L 590.22983 373.524952 
L 590.462788 373.295966 
L 590.49474 373.264555 
L 590.639876 373.121946 
L 590.781312 372.983038 
L 590.939626 372.827432 
L 591.083498 372.686177 
L 591.228454 372.543658 
L 591.506361 372.270625 
L 592.184927 371.605688 
L 592.359848 371.434287 
L 592.397125 371.397822 
L 592.443338 371.352512 
L 592.602103 371.196996 
L 593.283377 370.529442 
L 593.853271 369.97101 
L 594.010683 369.816668 
L 594.572454 369.266269 
L 595.251742 368.600701 
L 595.425851 368.430112 
L 595.461864 368.39482 
L 596.883802 367.001585 
L 597.337894 366.556609 
L 598.650348 365.270511 
L 602.352043 361.642466 
L 602.30908 361.103711 
L 606.171978 357.683623 
L 606.468027 357.289734 
L 606.506658 357.237564 
L 606.536985 357.196587 
L 607.381085 356.102108 
L 607.419265 356.018799 
L 607.878773 355.019363 
L 608.67305 353.242798 
L 608.766198 353.041702 
L 608.950957 352.642938 
L 609.305314 351.877904 
L 609.40171 351.669767 
L 609.428427 351.612002 
L 610.418747 349.47404 
L 610.442214 349.423405 
L 610.605492 349.071035 
L 611.618106 346.885417 
L 611.935637 346.19954 
L 612.056945 345.937609 
L 612.298838 345.4151 
L 612.783799 344.361328 
L 612.870628 344.172597 
L 613.030657 343.82501 
L 613.50939 342.784687 
L 613.602627 342.581875 
L 613.924851 341.881918 
L 614.158892 341.37358 
L 614.298162 341.070672 
L 614.514151 340.601597 
L 614.665967 340.27161 
L 614.976999 339.595752 
L 616.02021 337.328811 
L 616.640469 335.981066 
L 617.97278 333.085743 
L 617.999226 333.028429 
L 618.214583 332.560707 
L 618.329663 332.310329 
L 618.443713 332.062506 
L 618.773285 331.346365 
L 619.788156 329.131503 
L 620.289814 328.036934 
L 620.558064 327.451425 
L 622.636364 322.969171 
L 619.371882 322.470762 
L 608.354166 320.788518 
L 607.120869 320.591031 
L 606.043269 320.418547 
L 605.758683 320.372966 
L 605.065675 320.2837 
L 604.404078 320.180985 
L 603.470802 320.03612 
L 602.470824 319.880875 
L 601.869 319.789225 
L 601.651725 319.756137 
L 601.388801 319.716152 
L 598.065922 319.210432 
L 597.790452 319.168372 
L 595.710437 318.851744 
L 595.289019 318.78766 
L 584.411475 317.131861 
L 582.015554 316.743207 
L 581.266315 316.631557 
L 580.964489 316.586608 
L 580.137087 316.463404 
L 579.008505 316.293356 
L 577.761925 316.105528 
L 573.820412 315.508646 
L 571.592463 315.171259 
L 567.769821 314.587194 
L 567.212653 314.50208 
L 563.154164 313.882002 
L 562.606925 313.798422 
L 561.633844 313.649766 
L 559.648962 313.346496 
L 557.674934 313.042599 
L 556.222646 312.819023 
L 553.90859 312.462952 
L 553.832682 312.451309 
L 553.292122 312.36809 
L 550.964798 312.011748 
L 547.568358 311.491587 
L 547.087098 311.417935 
L 545.795584 311.220178 
L 529.492852 308.723528 
L 526.425586 308.253821 
L 526.104445 308.209595 
L 525.78204 308.175206 
L 525.458824 308.150836 
L 525.134885 308.136395 
L 524.810765 308.131972 
L 524.486555 308.137478 
L 524.162797 308.153002 
L 523.83958 308.178546 
L 516.958427 308.833283 
L 516.931439 308.550593 
L 516.87954 308.00913 
L 516.33555 302.337716 
L 516.301613 301.990309 
L 516.053943 299.461166 
L 512.09167 299.830145 
L 510.65863 299.963457 
L 509.594298 300.062561 
L 509.062583 300.112023 
L 508.401437 300.173579 
L 507.690107 300.239829 
L 507.01813 300.302379 
L 506.525588 300.34823 
L 506.239738 297.260385 
L 505.428221 288.492551 
L 505.294909 287.054999 
L 505.212502 286.167574 
L 505.034331 284.248761 
L 504.973677 283.595287 
L 504.910406 282.914826 
L 504.780072 281.511301 
L 504.749474 281.181585 
L 504.679163 280.424133 
L 504.651995 280.132236 
L 504.610476 279.684642 
L 504.23193 275.591133 
L 504.047802 273.600655 
L 503.902576 272.030964 
L 503.689655 269.728822 
L 503.674762 269.56789 
L 503.453719 269.619879 
L 500.99931 270.196092 
L 500.301338 270.359911 
L 499.419329 270.567146 
L 498.527301 270.776637 
L 497.768675 270.954898 
L 497.306279 271.063479 
L 496.081106 271.351315 
L 495.058654 271.591493 
L 494.327016 271.763346 
L 494.018872 271.836546 
L 493.775624 271.894312 
L 492.91284 272.099199 
L 491.173733 272.513307 
L 489.456468 272.92227 
L 486.802317 273.554082 
L 485.321259 273.903925 
L 483.718533 274.286081 
L 483.048 274.44611 
L 482.338746 274.615164 
L 481.810371 274.741256 
L 480.998312 274.934861 
L 480.726453 274.999757 
L 478.307877 275.576511 
L 477.586889 275.748454 
L 476.693868 275.961375 
L 476.431937 276.023834 
L 476.408831 275.814704 
L 476.31776 274.989739 
L 476.232646 274.218567 
L 476.120183 273.197469 
L 475.914483 271.352488 
L 475.682247 269.245756 
L 475.653455 268.984818 
L 475.519149 267.766324 
L 475.480789 267.419098 
L 475.458766 267.219084 
L 475.353073 266.259723 
L 475.308485 265.856176 
L 475.192503 264.804029 
L 475.148005 264.400391 
L 474.948533 262.591333 
L 474.409055 262.088406 
L 474.404994 262.08462 
L 473.304739 261.95546 
L 472.811926 261.897604 
L 471.965478 261.798229 
L 471.46734 261.739741 
L 470.146041 261.584676 
L 469.653227 261.52682 
L 468.183272 261.354246 
L 467.471671 261.270666 
L 465.547263 261.044748 
L 465.365752 261.023447 
L 462.810524 260.723336 
L 462.466999 260.683081 
L 462.421057 260.677665 
L 461.108243 260.523413 
L 460.938014 260.503466 
L 458.787146 260.250831 
L 458.401651 260.205612 
L 457.204367 260.064898 
L 456.91924 260.063454 
L 455.65697 260.056865 
L 455.475911 260.055962 
L 454.201095 260.049283 
L 453.56134 260.046576 
L 452.999569 260.044229 
L 452.363696 260.041521 
L 452.131099 260.040348 
L 450.804474 260.033578 
L 449.46756 260.026719 
L 448.115122 260.019769 
L 446.769182 260.012909 
L 445.41214 260.005869 
L 444.076671 259.999099 
L 442.700313 259.99251 
L 441.361143 259.986192 
L 438.608411 259.974667 
L 436.70487 259.966696 
L 436.519749 259.966245 
L 435.172726 259.963176 
L 434.306602 259.9611 
L 433.715497 259.958663 
L 425.342275 259.924275 
L 423.899488 259.918408 
L 415.251427 259.882846 
L 414.531162 259.879867 
L 414.102883 259.878333 
L 413.932023 259.877611 
L 412.326319 259.871564 
L 411.991458 259.8703 
L 411.459112 259.868224 
L 410.87965 259.866238 
L 410.69841 259.865607 
L 409.733273 259.862177 
L 409.415922 259.861003 
L 409.033857 259.727962 
L 408.162498 259.424331 
L 407.299984 259.12395 
L 407.275705 259.006342 
L 407.147267 258.382744 
L 397.906115 255.027823 
L 395.981526 254.329039 
L 395.896863 254.298261 
L 395.638181 254.204392 
L 389.454458 251.959835 
L 389.327193 251.913622 
L 389.200018 251.86741 
L 386.513284 250.892163 
L 386.198732 250.778076 
L 383.509018 249.801836 
L 383.010519 249.620867 
L 381.900335 249.217862 
L 381.751859 249.163887 
L 380.705127 248.783987 
L 380.44807 248.69075 
L 380.31909 248.643906 
L 377.441007 247.598798 
L 377.127989 247.485253 
L 375.872308 247.029175 
L 375.619403 246.937382 
L 374.577184 246.558926 
L 373.432431 246.143555 
L 372.92283 245.958705 
L 372.797099 245.913034 
L 370.218404 244.976869 
L 365.243156 243.171241 
L 365.030326 243.09407 
L 364.799715 243.01031 
L 363.586455 242.569937 
L 363.377867 242.4943 
L 363.145541 242.409998 
L 361.936434 241.97116 
L 361.722791 241.893628 
L 361.49218 241.809867 
L 360.281357 241.370487 
L 360.071235 241.294219 
L 359.840623 241.210458 
L 358.625469 240.769544 
L 358.416158 240.693456 
L 358.185457 240.609876 
L 356.452397 239.980862 
L 356.325222 239.93465 
L 356.282891 239.919306 
L 355.858674 239.765414 
L 353.758712 239.003269 
L 352.062207 238.387523 
L 351.466679 238.171353 
L 350.813837 237.934424 
L 350.238978 237.725745 
L 348.44364 237.074167 
L 348.316375 237.028044 
L 348.052458 236.932189 
L 347.13272 236.598412 
L 345.997535 236.186471 
L 345.442082 235.984923 
L 345.322038 235.941418 
L 345.231237 235.908383 
L 344.923545 235.796823 
L 342.788833 235.022403 
L 342.464714 234.904795 
L 339.294101 233.754627 
L 339.126942 233.693973 
L 336.666847 232.801494 
L 333.896352 235.111217 
L 331.725356 236.921178 
L 325.557157 242.063495 
L 323.81471 243.51594 
L 314.86329 250.978541 
L 312.936444 252.584877 
L 311.496184 253.78541 
L 309.911058 255.106709 
L 307.21963 257.350544 
L 306.317944 258.1024 
L 305.429075 258.86969 
L 305.04728 259.046417 
L 304.749516 259.184243 
L 304.486321 259.306092 
L 304.119058 259.635446 
L 303.535625 260.131599 
L 301.246571 257.907441 
L 301.077787 257.74317 
L 301.004406 257.671865 
L 300.922271 257.591806 
L 299.095612 255.812263 
L 298.332293 255.06862 
L 297.658782 254.986304 
L 296.24587 254.815895 
L 294.939283 254.658394 
L 293.548214 254.490241 
L 292.900787 254.411084 
L 292.204801 254.328498 
L 290.861208 254.166483 
L 289.260197 253.9736 
L 284.471695 253.43656 
L 277.124535 252.613489 
L 273.741002 252.234131 
L 273.131123 252.166618 
L 272.88589 253.432679 
L 272.050363 255.987997 
L 271.935013 256.329987 
L 271.813434 256.669902 
L 271.685718 257.00747 
L 271.551774 257.342601 
L 271.411782 257.675295 
L 271.27513 257.984612 
L 271.133153 258.291583 
L 270.986031 258.596116 
L 270.833674 258.898032 
L 270.676173 259.19733 
L 270.670723 259.207336 
L 270.562266 259.40646 
L 270.445742 259.614236 
L 270.326781 259.820567 
L 270.306292 259.855407 
L 270.285713 259.890247 
L 270.265134 259.925087 
L 270.224156 259.993864 
L 270.182908 260.062461 
L 270.141389 260.130877 
L 269.995892 260.365731 
L 269.847145 260.598599 
L 269.695149 260.8293 
L 269.539994 261.057926 
L 269.37807 261.289259 
L 269.212896 261.518246 
L 269.044473 261.744796 
L 268.97714 261.83352 
L 268.909266 261.921883 
L 268.84094 262.009886 
L 268.619264 262.288695 
L 268.392624 262.563353 
L 268.16102 262.833949 
L 267.924632 263.100303 
L 267.68346 263.362414 
L 267.437415 263.620103 
L 267.186766 263.87328 
L 266.931604 264.121943 
L 266.67202 264.366003 
L 266.408013 264.605279 
L 266.139854 264.839861 
L 265.867543 265.06957 
L 265.59117 265.294315 
L 265.310826 265.514095 
L 265.026511 265.728821 
L 264.718096 265.952302 
L 264.40544 266.169735 
L 264.088631 266.381212 
L 263.767851 266.58646 
L 263.695193 266.63177 
L 263.622264 266.676809 
L 263.549154 266.721487 
L 263.400047 266.811475 
L 263.250127 266.90011 
L 263.099394 266.98748 
L 262.825278 267.141913 
L 262.548725 267.292014 
L 262.269735 267.437691 
L 261.988579 267.578946 
L 261.667257 267.733199 
L 261.343228 267.881584 
L 261.016581 268.024193 
L 260.687498 268.160845 
L 260.355887 268.29154 
L 260.0222 268.416368 
L 259.686256 268.535149 
L 259.348237 268.647882 
L 259.008232 268.754478 
L 258.666422 268.855026 
L 258.323167 268.949166 
L 257.978198 269.037078 
L 257.631785 269.118762 
L 257.283927 269.194219 
L 256.934806 269.263357 
L 256.728113 269.304605 
L 256.520969 269.343687 
L 256.313464 269.380603 
L 255.026193 269.953656 
L 254.279301 270.026134 
L 253.474102 270.129932 
L 252.730008 270.240319 
L 251.992232 270.360634 
L 250.58275 270.628973 
L 247.332619 271.241921 
L 241.014591 272.433428 
L 239.101103 272.794283 
L 239.100504 272.794396 
L 237.528253 273.090963 
L 232.858983 273.971619 
L 230.259077 274.459829 
L 227.029345 275.066368 
L 226.291118 275.20654 
L 225.498374 275.363771 
L 224.761772 275.51315 
L 224.030495 275.666229 
L 223.297232 275.828243 
L 222.568482 275.993868 
L 221.837747 276.168609 
L 221.17299 276.331888 
L 220.386565 276.535331 
L 219.765223 276.699512 
L 219.724426 276.710523 
L 218.280917 277.109829 
L 217.482667 277.346126 
L 217.266949 277.410029 
L 216.699311 277.58811 
L 215.924168 277.831177 
L 215.256794 278.040487 
L 214.30673 278.353595 
L 212.885604 278.850922 
L 212.178607 279.106354 
L 203.712508 282.221187 
L 202.009595 282.847763 
L 201.423183 283.063572 
L 198.679946 284.072847 
L 192.887495 286.204851 
L 192.79155 286.240232 
L 192.378074 286.392499 
L 188.389265 287.862003 
L 188.143851 287.955692 
L 187.380622 288.245964 
L 187.280255 288.284144 
L 186.28831 288.661335 
L 185.925379 288.80259 
L 184.730894 289.267333 
L 183.687953 289.688391 
L 183.383781 289.811233 
L 179.842204 291.277217 
L 177.86003 292.09767 
L 177.582303 292.213291 
L 173.536902 293.897251 
L 171.130331 294.899033 
L 170.701421 295.077565 
L 168.355503 296.054166 
L 167.822705 296.275932 
L 167.272217 296.505099 
L 166.969669 296.998273 
L 165.564429 299.289043 
L 160.828097 307.010325 
L 159.069042 309.877849 
L 157.699635 312.110311 
L 155.723328 315.3321 
L 153.393296 319.130553 
L 152.945431 319.860657 
L 152.553527 320.499509 
L 152.205038 321.067688 
L 151.27104 322.590355 
L 151.422494 322.683322 
L 151.31662 322.860139 
L 151.202421 323.050811 
L 151.054057 323.298526 
L 150.892765 323.567948 
L 147.891839 328.511335 
L 147.756812 328.733733 
L 142.72786 337.01805 
L 142.001908 338.214611 
L 141.452232 339.120178 
L 139.688213 342.026152 
L 139.128571 342.948051 
L 135.596238 348.766862 
L 132.953008 353.121581 
L 131.669888 355.235443 
L 131.251539 355.926103 
L 130.427385 357.305439 
L 129.805321 358.341249 
L 129.755228 358.42537 
L 128.722757 360.180183 
L 127.997888 361.424401 
L 127.278074 362.671507 
L 126.563224 363.921502 
L 125.853428 365.174295 
L 125.148417 366.429163 
L 124.448369 367.68683 
L 123.753376 368.947295 
L 123.063528 370.210557 
L 122.378734 371.476979 
L 121.698995 372.746109 
L 121.0244 374.017946 
L 120.35486 375.292491 
L 117.391391 380.959121 
L 116.572563 382.524842 
L 115.363636 384.836641 
L 116.041751 384.879153 
L 132.987036 385.942763 
L 137.072512 386.245221 
L 146.172408 387.11342 
L 148.824574 387.370568 
L 157.809751 388.24301 
L 162.395983 388.688437 
L 169.403228 389.368808 
L 173.645565 389.780754 
L 185.124061 390.895356 
L 196.012075 391.561015 
L 196.245214 391.575095 
L 196.66573 391.600548 
L 198.43715 391.70922 
L 198.804323 391.731514 
L 208.451729 392.318557 
L 215.623967 392.897297 
L 215.923265 393.24687 
L 216.087266 393.402476 
L 219.064002 397.093611 
L 219.732369 397.994214 
L 219.814414 398.104691 
L 219.877956 398.190346 
L 220.801124 399.23771 
L 221.073254 399.545222 
L 223.908736 402.546779 
L 224.817642 403.779805 
L 227.189193 407.584847 
L 227.388575 408.016465 
L 227.700961 408.484457 
L 228.969007 410.335305 
L 229.605152 411.246378 
L 231.138198 413.065274 
L 231.551222 413.555921 
L 240.799685 425.846828 
L 240.907544 425.990249 
L 243.168889 428.860029 
L 244.929478 430.816841 
L 246.259803 432.615609 
L 248.468256 435.938308 
L 249.039414 436.702258 
L 249.312537 437.067807 
L 254.09409 443.463909 
L 254.193826 443.597312 
L 255.488318 445.329018 
L 255.902606 445.883207 
L 257.363626 447.837672 
L 258.022786 448.75398 
L 258.375066 449.243905 
L 260.511222 452.213962 
L 260.757719 452.556675 
L 261.109277 453.045517 
L 261.19042 453.15825 
L 261.459301 453.532012 
L 262.589161 455.007473 
L 264.891754 457.364492 
L 265.126247 457.609004 
L 264.969467 457.832575 
L 264.920186 457.958847 
L 265.698127 458.575676 
L 268.545252 460.727356 
L 271.310692 462.446697 
L 271.505651 462.567914 
L 271.43543 463.355062 
L 271.428209 463.435843 
L 271.40059 463.746244 
L 271.400581 463.746346 
L 271.401041 463.746605 
L 273.729719 465.055358 
L 274.072703 465.217824 
L 274.415687 465.375777 
L 274.763183 465.529217 
L 275.115193 465.678144 
L 275.467202 465.822558 
L 275.823724 465.957946 
L 275.927522 466.003076 
L 275.995216 466.02564 
L 276.356252 466.14749 
L 276.717287 466.251287 
L 277.087348 466.350572 
L 277.461922 466.431805 
L 277.831984 466.508525 
L 278.206558 466.567193 
L 278.612723 466.625862 
L 279.018887 466.680017 
L 279.420539 466.725146 
L 279.826704 466.76125 
L 280.237382 466.797353 
L 280.643546 466.824431 
L 281.049711 466.842483 
L 281.460389 466.856022 
L 282.927095 466.779302 
L 287.358804 466.395702 
L 291.736358 465.921843 
L 292.178626 465.876713 
L 292.196678 465.881226 
L 292.210217 465.885739 
L 292.223756 465.894765 
L 292.237294 465.899278 
L 292.250833 465.903791 
L 292.264372 465.912817 
L 292.273398 465.91733 
L 292.286937 465.926356 
L 292.295963 465.935381 
L 292.300476 465.94892 
L 292.314014 465.957946 
L 292.318527 465.971485 
L 292.327553 465.980511 
L 292.336579 465.99405 
L 292.341092 466.007589 
L 292.345605 466.021127 
L 293.311375 465.930869 
L 293.44225 465.921843 
L 297.544514 465.542756 
L 297.932627 465.506652 
L 298.32074 465.470548 
L 298.708853 465.443471 
L 299.101479 465.420906 
L 299.512157 465.393828 
L 299.922835 465.375777 
L 300.333512 465.366751 
L 300.74419 465.357725 
L 301.154868 465.357725 
L 301.565545 465.371264 
L 301.931094 465.375777 
L 302.292129 465.389315 
L 302.653164 465.407367 
L 303.0142 465.420906 
L 303.375235 465.443471 
L 303.73627 465.466036 
L 304.160487 465.497626 
L 304.584704 465.53373 
L 305.00892 465.569833 
L 305.433137 465.614963 
L 305.85284 465.660092 
L 306.272544 465.709734 
L 309.309754 466.084309 
L 309.413551 466.097847 
L 309.535401 466.120412 
L 309.925668 466.192684 
L 313.985162 467.848869 
L 313.988382 467.849685 
L 314.305581 467.930102 
L 314.621486 467.98877 
L 314.941905 468.033899 
L 315.266837 468.060977 
L 315.366122 468.06549 
L 315.460894 468.079029 
L 315.560178 468.101594 
L 315.65495 468.128671 
L 315.749722 468.160262 
L 315.844494 468.196365 
L 316.417637 468.539349 
L 317.08104 468.850742 
L 327.551065 473.851082 
L 327.645837 473.900724 
L 337.908267 478.883012 
L 338.003039 478.923628 
L 341.857091 480.778448 
L 342.312898 480.963478 
L 343.256103 481.306462 
L 343.364414 481.347078 
L 344.361774 481.685549 
L 345.174103 481.974377 
L 345.557704 482.082688 
L 345.936791 482.200024 
L 346.320391 482.308335 
L 346.699478 482.416645 
L 347.083078 482.529469 
L 347.466678 482.628754 
L 347.850278 482.737064 
L 348.233878 482.836349 
L 348.621991 482.935634 
L 349.010104 483.039431 
L 363.537264 486.717479 
L 375.803441 489.813357 
L 376.07873 489.881051 
L 377.003883 490.111212 
L 377.006728 490.111874 
L 378.262994 490.404553 
L 379.522105 490.693381 
L 383.507032 491.668176 
L 383.615343 491.695254 
L 384.711988 491.957005 
L 389.261033 492.949852 
L 389.360318 492.972417 
L 390.502092 493.225141 
L 390.908257 493.28381 
L 391.309909 493.337965 
L 391.716074 493.387607 
L 392.126752 493.423711 
L 392.532916 493.459814 
L 393.352767 493.504944 
L 397.659618 493.599716 
L 398.128964 493.577151 
L 398.59831 493.54556 
L 399.067656 493.509457 
L 399.537002 493.46884 
L 400.001835 493.419198 
L 400.471181 493.369556 
L 400.936014 493.310887 
L 401.40536 493.243193 
L 401.811525 493.184525 
L 402.21769 493.116831 
L 402.619342 493.044624 
L 403.030019 492.963391 
L 403.431671 492.882158 
L 403.837836 492.796412 
L 404.239488 492.706153 
L 404.636627 492.611381 
L 405.047304 492.51661 
L 405.448956 492.412812 
L 405.855121 492.299988 
L 406.25226 492.187165 
L 406.653912 492.069828 
L 407.051051 491.943466 
L 407.150335 491.911875 
L 408.346265 491.514736 
L 416.69972 488.829536 
L 419.335279 487.935973 
L 422.196484 486.97923 
L 422.557519 486.879945 
L 422.923067 486.785173 
L 423.284103 486.699427 
L 423.645138 486.609169 
L 424.227308 486.482806 
L 424.448442 486.437677 
L 424.669576 486.392547 
L 425.477393 486.230081 
L 425.85648 486.1669 
L 426.24008 486.108232 
L 426.628193 486.054077 
L 427.011793 486.01346 
L 427.399906 485.968331 
L 427.783506 485.93674 
L 428.307007 485.896124 
L 429.520989 485.801352 
L 430.225008 485.769761 
L 430.626659 485.75171 
L 431.032824 485.742684 
L 431.438989 485.729145 
L 431.845154 485.733658 
L 432.251318 485.738171 
L 432.657483 485.75171 
L 433.059135 485.769761 
L 433.4653 485.796839 
L 433.866952 485.823917 
L 434.273116 485.86002 
L 434.674768 485.900637 
L 435.080933 485.950279 
L 435.482585 485.999921 
L 435.879724 486.063103 
L 436.335531 486.13531 
L 436.786825 486.216543 
L 437.238119 486.302288 
L 437.689414 486.392547 
L 438.136195 486.478293 
L 438.582976 486.582091 
L 439.029757 486.685889 
L 439.476539 486.794199 
L 439.918807 486.911536 
L 440.361075 487.033385 
L 440.803343 487.155235 
L 441.241099 487.28611 
L 441.683367 487.416985 
L 442.11661 487.561399 
L 442.549852 487.705813 
L 442.987607 487.854741 
L 443.416337 488.012694 
L 443.845066 488.175159 
L 444.278309 488.333112 
L 444.702525 488.504604 
L 445.126742 488.680609 
L 445.546445 488.861127 
L 445.970662 489.046157 
L 446.385853 489.231188 
L 446.801043 489.425244 
L 447.211721 489.628327 
L 447.622399 489.826896 
L 448.033076 490.039004 
L 448.087232 490.066082 
L 448.303853 489.984849 
L 448.367034 490.106699 
L 448.267749 490.151828 
L 448.520474 490.269164 
L 448.700992 490.215009 
L 448.750634 490.314294 
L 448.691966 490.35491 
L 453.574969 492.611381 
L 453.498249 492.769334 
L 454.035289 493.017546 
L 457.000292 494.398506 
L 457.888259 493.77924 
L 459.822596 492.425538 
L 459.550014 492.29692 
L 464.058714 488.887933 
L 465.484172 487.810333 
L 466.429182 487.095754 
L 466.819461 487.574036 
L 468.771579 486.195512 
L 468.198977 485.494111 
L 474.370786 481.256007 
L 475.271118 480.63277 
L 475.897244 480.199347 
L 478.469891 478.372869 
L 480.428689 476.976023 
L 483.248014 475.135284 
L 484.921322 473.854873 
L 491.324375 469.175313 
L 490.98094 468.416777 
L 490.837609 468.100149 
L 497.608827 464.378868 
L 504.056828 460.835035 
L 506.107599 459.498482 
L 507.465453 458.554194 
L 508.915343 457.545884 
" clip-path="url(#p644248e2dd)" style="fill: #d3d3d3"/>
   </g>
   <g id="PatchCollection_2">
    <path d="M 464.001305 418.283446 
L 464.001305 418.193187 
L 463.911046 418.193187 
L 463.911046 418.283446 
L 464.001305 418.283446 
" clip-path="url(#p644248e2dd)" style="fill: #ff0000; fill-opacity: 0.7; stroke: #000000; stroke-opacity: 0.7; stroke-width: 0.5"/>
    <path d="M 491.070348 360.279993 
L 491.070348 360.189734 
L 490.980089 360.189734 
L 490.980089 360.279993 
L 491.070348 360.279993 
" clip-path="url(#p644248e2dd)" style="fill: #ff0000; fill-opacity: 0.7; stroke: #000000; stroke-opacity: 0.7; stroke-width: 0.5"/>
    <path d="M 443.129992 390.778498 
L 443.129992 390.68824 
L 443.039733 390.68824 
L 443.039733 390.778498 
L 443.129992 390.778498 
" clip-path="url(#p644248e2dd)" style="fill: #ff0000; fill-opacity: 0.7; stroke: #000000; stroke-opacity: 0.7; stroke-width: 0.5"/>
    <path d="M 418.955803 386.913892 
L 418.955803 386.823633 
L 418.865544 386.823633 
L 418.865544 386.913892 
L 418.955803 386.913892 
" clip-path="url(#p644248e2dd)" style="fill: #ff0000; fill-opacity: 0.7; stroke: #000000; stroke-opacity: 0.7; stroke-width: 0.5"/>
    <path d="M 515.231904 362.335839 
L 515.231904 362.24558 
L 515.141645 362.24558 
L 515.141645 362.335839 
L 515.231904 362.335839 
" clip-path="url(#p644248e2dd)" style="fill: #ff0000; fill-opacity: 0.7; stroke: #000000; stroke-opacity: 0.7; stroke-width: 0.5"/>
    <path d="M 433.905051 466.568239 
L 433.905051 466.47798 
L 433.814792 466.47798 
L 433.814792 466.568239 
L 433.905051 466.568239 
" clip-path="url(#p644248e2dd)" style="fill: #ff0000; fill-opacity: 0.7; stroke: #000000; stroke-opacity: 0.7; stroke-width: 0.5"/>
    <path d="M 598.054621 358.593953 
L 598.054621 358.503695 
L 597.964362 358.503695 
L 597.964362 358.593953 
L 598.054621 358.593953 
" clip-path="url(#p644248e2dd)" style="fill: #ff0000; fill-opacity: 0.7; stroke: #000000; stroke-opacity: 0.7; stroke-width: 0.5"/>
    <path d="M 438.489734 462.064946 
L 438.489734 461.974687 
L 438.399475 461.974687 
L 438.399475 462.064946 
L 438.489734 462.064946 
" clip-path="url(#p644248e2dd)" style="fill: #ff0000; fill-opacity: 0.7; stroke: #000000; stroke-opacity: 0.7; stroke-width: 0.5"/>
    <path d="M 427.955933 381.826985 
L 427.955933 381.736727 
L 427.865675 381.736727 
L 427.865675 381.826985 
L 427.955933 381.826985 
" clip-path="url(#p644248e2dd)" style="fill: #ff0000; fill-opacity: 0.7; stroke: #000000; stroke-opacity: 0.7; stroke-width: 0.5"/>
    <path d="M 498.976181 371.318267 
L 498.976181 371.228008 
L 498.885922 371.228008 
L 498.885922 371.318267 
L 498.976181 371.318267 
" clip-path="url(#p644248e2dd)" style="fill: #ff0000; fill-opacity: 0.7; stroke: #000000; stroke-opacity: 0.7; stroke-width: 0.5"/>
    <path d="M 580.929896 339.628286 
L 580.929896 339.538027 
L 580.839637 339.538027 
L 580.839637 339.628286 
L 580.929896 339.628286 
" clip-path="url(#p644248e2dd)" style="fill: #ff0000; fill-opacity: 0.7; stroke: #000000; stroke-opacity: 0.7; stroke-width: 0.5"/>
    <path d="M 411.877586 412.021632 
L 411.877586 411.931374 
L 411.787327 411.931374 
L 411.787327 412.021632 
L 411.877586 412.021632 
" clip-path="url(#p644248e2dd)" style="fill: #ff0000; fill-opacity: 0.7; stroke: #000000; stroke-opacity: 0.7; stroke-width: 0.5"/>
    <path d="M 589.99531 352.084916 
L 589.99531 351.994657 
L 589.905052 351.994657 
L 589.905052 352.084916 
L 589.99531 352.084916 
" clip-path="url(#p644248e2dd)" style="fill: #ff0000; fill-opacity: 0.7; stroke: #000000; stroke-opacity: 0.7; stroke-width: 0.5"/>
    <path d="M 405.008453 360.193438 
L 405.008453 360.103179 
L 404.918194 360.103179 
L 404.918194 360.193438 
L 405.008453 360.193438 
" clip-path="url(#p644248e2dd)" style="fill: #ff0000; fill-opacity: 0.7; stroke: #000000; stroke-opacity: 0.7; stroke-width: 0.5"/>
    <path d="M 439.160087 392.719882 
L 439.160087 392.629624 
L 439.069828 392.629624 
L 439.069828 392.719882 
L 439.160087 392.719882 
" clip-path="url(#p644248e2dd)" style="fill: #ff0000; fill-opacity: 0.7; stroke: #000000; stroke-opacity: 0.7; stroke-width: 0.5"/>
    <path d="M 317.326627 274.102408 
L 317.326627 274.012149 
L 317.236368 274.012149 
L 317.236368 274.102408 
L 317.326627 274.102408 
" clip-path="url(#p644248e2dd)" style="fill: #ff0000; fill-opacity: 0.7; stroke: #000000; stroke-opacity: 0.7; stroke-width: 0.5"/>
    <path d="M 475.507082 372.00082 
L 475.507082 371.910562 
L 475.416823 371.910562 
L 475.416823 372.00082 
L 475.507082 372.00082 
" clip-path="url(#p644248e2dd)" style="fill: #ff0000; fill-opacity: 0.7; stroke: #000000; stroke-opacity: 0.7; stroke-width: 0.5"/>
    <path d="M 462.397752 424.890255 
L 462.397752 424.799996 
L 462.307493 424.799996 
L 462.307493 424.890255 
L 462.397752 424.890255 
" clip-path="url(#p644248e2dd)" style="fill: #ff0000; fill-opacity: 0.7; stroke: #000000; stroke-opacity: 0.7; stroke-width: 0.5"/>
    <path d="M 438.48964 462.065024 
L 438.48964 461.974765 
L 438.399381 461.974765 
L 438.399381 462.065024 
L 438.48964 462.065024 
" clip-path="url(#p644248e2dd)" style="fill: #ff0000; fill-opacity: 0.7; stroke: #000000; stroke-opacity: 0.7; stroke-width: 0.5"/>
    <path d="M 589.052486 355.634217 
L 589.052486 355.543958 
L 588.962227 355.543958 
L 588.962227 355.634217 
L 589.052486 355.634217 
" clip-path="url(#p644248e2dd)" style="fill: #ff0000; fill-opacity: 0.7; stroke: #000000; stroke-opacity: 0.7; stroke-width: 0.5"/>
    <path d="M 463.677501 423.655454 
L 463.677501 423.565195 
L 463.587242 423.565195 
L 463.587242 423.655454 
L 463.677501 423.655454 
" clip-path="url(#p644248e2dd)" style="fill: #ff0000; fill-opacity: 0.7; stroke: #000000; stroke-opacity: 0.7; stroke-width: 0.5"/>
    <path d="M 452.12006 451.823804 
L 452.12006 451.733546 
L 452.029801 451.733546 
L 452.029801 451.823804 
L 452.12006 451.823804 
" clip-path="url(#p644248e2dd)" style="fill: #ff0000; fill-opacity: 0.7; stroke: #000000; stroke-opacity: 0.7; stroke-width: 0.5"/>
    <path d="M 562.739925 363.090247 
L 562.739925 362.999988 
L 562.649666 362.999988 
L 562.649666 363.090247 
L 562.739925 363.090247 
" clip-path="url(#p644248e2dd)" style="fill: #ff0000; fill-opacity: 0.7; stroke: #000000; stroke-opacity: 0.7; stroke-width: 0.5"/>
    <path d="M 540.967679 377.225825 
L 540.967679 377.135567 
L 540.87742 377.135567 
L 540.87742 377.225825 
L 540.967679 377.225825 
" clip-path="url(#p644248e2dd)" style="fill: #ff0000; fill-opacity: 0.7; stroke: #000000; stroke-opacity: 0.7; stroke-width: 0.5"/>
    <path d="M 488.733774 376.587756 
L 488.733774 376.497497 
L 488.643515 376.497497 
L 488.643515 376.587756 
L 488.733774 376.587756 
" clip-path="url(#p644248e2dd)" style="fill: #ff0000; fill-opacity: 0.7; stroke: #000000; stroke-opacity: 0.7; stroke-width: 0.5"/>
    <path d="M 390.101481 344.902509 
L 390.101481 344.81225 
L 390.011222 344.81225 
L 390.011222 344.902509 
L 390.101481 344.902509 
" clip-path="url(#p644248e2dd)" style="fill: #ff0000; fill-opacity: 0.7; stroke: #000000; stroke-opacity: 0.7; stroke-width: 0.5"/>
    <path d="M 447.456692 400.790317 
L 447.456692 400.700058 
L 447.366433 400.700058 
L 447.366433 400.790317 
L 447.456692 400.790317 
" clip-path="url(#p644248e2dd)" style="fill: #ff0000; fill-opacity: 0.7; stroke: #000000; stroke-opacity: 0.7; stroke-width: 0.5"/>
    <path d="M 360.148176 357.970253 
L 360.148176 357.879994 
L 360.057918 357.879994 
L 360.057918 357.970253 
L 360.148176 357.970253 
" clip-path="url(#p644248e2dd)" style="fill: #ff0000; fill-opacity: 0.7; stroke: #000000; stroke-opacity: 0.7; stroke-width: 0.5"/>
    <path d="M 539.249107 363.081234 
L 539.249107 362.990976 
L 539.158848 362.990976 
L 539.158848 363.081234 
L 539.249107 363.081234 
" clip-path="url(#p644248e2dd)" style="fill: #ff0000; fill-opacity: 0.7; stroke: #000000; stroke-opacity: 0.7; stroke-width: 0.5"/>
    <path d="M 580.937204 338.685466 
L 580.937204 338.595207 
L 580.846945 338.595207 
L 580.846945 338.685466 
L 580.937204 338.685466 
" clip-path="url(#p644248e2dd)" style="fill: #ff0000; fill-opacity: 0.7; stroke: #000000; stroke-opacity: 0.7; stroke-width: 0.5"/>
    <path d="M 462.407834 419.818844 
L 462.407834 419.728585 
L 462.317575 419.728585 
L 462.317575 419.818844 
L 462.407834 419.818844 
" clip-path="url(#p644248e2dd)" style="fill: #ff0000; fill-opacity: 0.7; stroke: #000000; stroke-opacity: 0.7; stroke-width: 0.5"/>
    <path d="M 485.504889 366.863041 
L 485.504889 366.772783 
L 485.414631 366.772783 
L 485.414631 366.863041 
L 485.504889 366.863041 
" clip-path="url(#p644248e2dd)" style="fill: #ff0000; fill-opacity: 0.7; stroke: #000000; stroke-opacity: 0.7; stroke-width: 0.5"/>
    <path d="M 429.814627 392.059177 
L 429.814627 391.968918 
L 429.724368 391.968918 
L 429.724368 392.059177 
L 429.814627 392.059177 
" clip-path="url(#p644248e2dd)" style="fill: #ff0000; fill-opacity: 0.7; stroke: #000000; stroke-opacity: 0.7; stroke-width: 0.5"/>
    <path d="M 439.160087 392.719882 
L 439.160087 392.629624 
L 439.069828 392.629624 
L 439.069828 392.719882 
L 439.160087 392.719882 
" clip-path="url(#p644248e2dd)" style="fill: #ff0000; fill-opacity: 0.7; stroke: #000000; stroke-opacity: 0.7; stroke-width: 0.5"/>
    <path d="M 344.055439 448.590439 
L 344.055439 448.50018 
L 343.96518 448.50018 
L 343.96518 448.590439 
L 344.055439 448.590439 
" clip-path="url(#p644248e2dd)" style="fill: #ff0000; fill-opacity: 0.7; stroke: #000000; stroke-opacity: 0.7; stroke-width: 0.5"/>
    <path d="M 370.016759 319.779111 
L 370.016759 319.688852 
L 369.9265 319.688852 
L 369.9265 319.779111 
L 370.016759 319.779111 
" clip-path="url(#p644248e2dd)" style="fill: #ff0000; fill-opacity: 0.7; stroke: #000000; stroke-opacity: 0.7; stroke-width: 0.5"/>
    <path d="M 433.905051 466.568239 
L 433.905051 466.47798 
L 433.814792 466.47798 
L 433.814792 466.568239 
L 433.905051 466.568239 
" clip-path="url(#p644248e2dd)" style="fill: #ff0000; fill-opacity: 0.7; stroke: #000000; stroke-opacity: 0.7; stroke-width: 0.5"/>
    <path d="M 589.052486 355.634217 
L 589.052486 355.543958 
L 588.962227 355.543958 
L 588.962227 355.634217 
L 589.052486 355.634217 
" clip-path="url(#p644248e2dd)" style="fill: #ff0000; fill-opacity: 0.7; stroke: #000000; stroke-opacity: 0.7; stroke-width: 0.5"/>
    <path d="M 476.52495 434.769401 
L 476.52495 434.679142 
L 476.434691 434.679142 
L 476.434691 434.769401 
L 476.52495 434.769401 
" clip-path="url(#p644248e2dd)" style="fill: #ff0000; fill-opacity: 0.7; stroke: #000000; stroke-opacity: 0.7; stroke-width: 0.5"/>
    <path d="M 589.052486 355.634217 
L 589.052486 355.543958 
L 588.962227 355.543958 
L 588.962227 355.634217 
L 589.052486 355.634217 
" clip-path="url(#p644248e2dd)" style="fill: #ff0000; fill-opacity: 0.7; stroke: #000000; stroke-opacity: 0.7; stroke-width: 0.5"/>
    <path d="M 413.143659 408.047566 
L 413.143659 407.957308 
L 413.0534 407.957308 
L 413.0534 408.047566 
L 413.143659 408.047566 
" clip-path="url(#p644248e2dd)" style="fill: #ff0000; fill-opacity: 0.7; stroke: #000000; stroke-opacity: 0.7; stroke-width: 0.5"/>
    <path d="M 416.51098 473.264582 
L 416.51098 473.174323 
L 416.420721 473.174323 
L 416.420721 473.264582 
L 416.51098 473.264582 
" clip-path="url(#p644248e2dd)" style="fill: #ff0000; fill-opacity: 0.7; stroke: #000000; stroke-opacity: 0.7; stroke-width: 0.5"/>
    <path d="M 510.194284 346.074301 
L 510.194284 345.984042 
L 510.104026 345.984042 
L 510.104026 346.074301 
L 510.194284 346.074301 
" clip-path="url(#p644248e2dd)" style="fill: #ff0000; fill-opacity: 0.7; stroke: #000000; stroke-opacity: 0.7; stroke-width: 0.5"/>
    <path d="M 411.77144 360.447463 
L 411.77144 360.357204 
L 411.681181 360.357204 
L 411.681181 360.447463 
L 411.77144 360.447463 
" clip-path="url(#p644248e2dd)" style="fill: #ff0000; fill-opacity: 0.7; stroke: #000000; stroke-opacity: 0.7; stroke-width: 0.5"/>
    <path d="M 414.787353 368.92068 
L 414.787353 368.830421 
L 414.697094 368.830421 
L 414.697094 368.92068 
L 414.787353 368.92068 
" clip-path="url(#p644248e2dd)" style="fill: #ff0000; fill-opacity: 0.7; stroke: #000000; stroke-opacity: 0.7; stroke-width: 0.5"/>
    <path d="M 552.496386 375.083376 
L 552.496386 374.993118 
L 552.406127 374.993118 
L 552.406127 375.083376 
L 552.496386 375.083376 
" clip-path="url(#p644248e2dd)" style="fill: #ff0000; fill-opacity: 0.7; stroke: #000000; stroke-opacity: 0.7; stroke-width: 0.5"/>
    <path d="M 411.76653 365.99052 
L 411.76653 365.900262 
L 411.676272 365.900262 
L 411.676272 365.99052 
L 411.76653 365.99052 
" clip-path="url(#p644248e2dd)" style="fill: #ff0000; fill-opacity: 0.7; stroke: #000000; stroke-opacity: 0.7; stroke-width: 0.5"/>
    <path d="M 500.458795 382.493317 
L 500.458795 382.403059 
L 500.368536 382.403059 
L 500.368536 382.493317 
L 500.458795 382.493317 
" clip-path="url(#p644248e2dd)" style="fill: #ff0000; fill-opacity: 0.7; stroke: #000000; stroke-opacity: 0.7; stroke-width: 0.5"/>
    <path d="M 499.65216 451.521985 
L 499.65216 451.431726 
L 499.561901 451.431726 
L 499.561901 451.521985 
L 499.65216 451.521985 
" clip-path="url(#p644248e2dd)" style="fill: #ff0000; fill-opacity: 0.7; stroke: #000000; stroke-opacity: 0.7; stroke-width: 0.5"/>
    <path d="M 391.622953 274.506583 
L 391.622953 274.416324 
L 391.532694 274.416324 
L 391.532694 274.506583 
L 391.622953 274.506583 
" clip-path="url(#p644248e2dd)" style="fill: #ff0000; fill-opacity: 0.7; stroke: #000000; stroke-opacity: 0.7; stroke-width: 0.5"/>
    <path d="M 343.324028 343.923902 
L 343.324028 343.833643 
L 343.233769 343.833643 
L 343.233769 343.923902 
L 343.324028 343.923902 
" clip-path="url(#p644248e2dd)" style="fill: #ff0000; fill-opacity: 0.7; stroke: #000000; stroke-opacity: 0.7; stroke-width: 0.5"/>
    <path d="M 562.739925 363.090247 
L 562.739925 362.999988 
L 562.649666 362.999988 
L 562.649666 363.090247 
L 562.739925 363.090247 
" clip-path="url(#p644248e2dd)" style="fill: #ff0000; fill-opacity: 0.7; stroke: #000000; stroke-opacity: 0.7; stroke-width: 0.5"/>
    <path d="M 601.0629 356.268963 
L 601.0629 356.178705 
L 600.972641 356.178705 
L 600.972641 356.268963 
L 601.0629 356.268963 
" clip-path="url(#p644248e2dd)" style="fill: #ff0000; fill-opacity: 0.7; stroke: #000000; stroke-opacity: 0.7; stroke-width: 0.5"/>
    <path d="M 473.859269 426.37243 
L 473.859269 426.282171 
L 473.769011 426.282171 
L 473.769011 426.37243 
L 473.859269 426.37243 
" clip-path="url(#p644248e2dd)" style="fill: #ff0000; fill-opacity: 0.7; stroke: #000000; stroke-opacity: 0.7; stroke-width: 0.5"/>
    <path d="M 590.665926 357.512263 
L 590.665926 357.422004 
L 590.575667 357.422004 
L 590.575667 357.512263 
L 590.665926 357.512263 
" clip-path="url(#p644248e2dd)" style="fill: #ff0000; fill-opacity: 0.7; stroke: #000000; stroke-opacity: 0.7; stroke-width: 0.5"/>
    <path d="M 471.925114 437.063307 
L 471.925114 436.973048 
L 471.834855 436.973048 
L 471.834855 437.063307 
L 471.925114 437.063307 
" clip-path="url(#p644248e2dd)" style="fill: #ff0000; fill-opacity: 0.7; stroke: #000000; stroke-opacity: 0.7; stroke-width: 0.5"/>
    <path d="M 390.09205 344.890863 
L 390.09205 344.800604 
L 390.001791 344.800604 
L 390.001791 344.890863 
L 390.09205 344.890863 
" clip-path="url(#p644248e2dd)" style="fill: #ff0000; fill-opacity: 0.7; stroke: #000000; stroke-opacity: 0.7; stroke-width: 0.5"/>
    <path d="M 463.768336 416.591875 
L 463.768336 416.501616 
L 463.678077 416.501616 
L 463.678077 416.591875 
L 463.768336 416.591875 
" clip-path="url(#p644248e2dd)" style="fill: #ff0000; fill-opacity: 0.7; stroke: #000000; stroke-opacity: 0.7; stroke-width: 0.5"/>
    <path d="M 403.216457 357.660714 
L 403.216457 357.570456 
L 403.126198 357.570456 
L 403.126198 357.660714 
L 403.216457 357.660714 
" clip-path="url(#p644248e2dd)" style="fill: #ff0000; fill-opacity: 0.7; stroke: #000000; stroke-opacity: 0.7; stroke-width: 0.5"/>
    <path d="M 407.751558 462.962054 
L 407.751558 462.871795 
L 407.661299 462.871795 
L 407.661299 462.962054 
L 407.751558 462.962054 
" clip-path="url(#p644248e2dd)" style="fill: #ff0000; fill-opacity: 0.7; stroke: #000000; stroke-opacity: 0.7; stroke-width: 0.5"/>
    <path d="M 405.034809 463.80534 
L 405.034809 463.715081 
L 404.94455 463.715081 
L 404.94455 463.80534 
L 405.034809 463.80534 
" clip-path="url(#p644248e2dd)" style="fill: #ff0000; fill-opacity: 0.7; stroke: #000000; stroke-opacity: 0.7; stroke-width: 0.5"/>
    <path d="M 321.574535 278.25423 
L 321.574535 278.163971 
L 321.484276 278.163971 
L 321.484276 278.25423 
L 321.574535 278.25423 
" clip-path="url(#p644248e2dd)" style="fill: #ff0000; fill-opacity: 0.7; stroke: #000000; stroke-opacity: 0.7; stroke-width: 0.5"/>
    <path d="M 429.814727 392.059099 
L 429.814727 391.96884 
L 429.724468 391.96884 
L 429.724468 392.059099 
L 429.814727 392.059099 
" clip-path="url(#p644248e2dd)" style="fill: #ff0000; fill-opacity: 0.7; stroke: #000000; stroke-opacity: 0.7; stroke-width: 0.5"/>
    <path d="M 407.751558 462.962054 
L 407.751558 462.871795 
L 407.661299 462.871795 
L 407.661299 462.962054 
L 407.751558 462.962054 
" clip-path="url(#p644248e2dd)" style="fill: #ff0000; fill-opacity: 0.7; stroke: #000000; stroke-opacity: 0.7; stroke-width: 0.5"/>
    <path d="M 326.201866 283.298145 
L 326.201866 283.207886 
L 326.111608 283.207886 
L 326.111608 283.298145 
L 326.201866 283.298145 
" clip-path="url(#p644248e2dd)" style="fill: #ff0000; fill-opacity: 0.7; stroke: #000000; stroke-opacity: 0.7; stroke-width: 0.5"/>
    <path d="M 527.311003 405.426712 
L 527.311003 405.336453 
L 527.220745 405.336453 
L 527.220745 405.426712 
L 527.311003 405.426712 
" clip-path="url(#p644248e2dd)" style="fill: #ff0000; fill-opacity: 0.7; stroke: #000000; stroke-opacity: 0.7; stroke-width: 0.5"/>
    <path d="M 423.615572 380.743374 
L 423.615572 380.653115 
L 423.525313 380.653115 
L 423.525313 380.743374 
L 423.615572 380.743374 
" clip-path="url(#p644248e2dd)" style="fill: #ff0000; fill-opacity: 0.7; stroke: #000000; stroke-opacity: 0.7; stroke-width: 0.5"/>
    <path d="M 368.247645 323.667083 
L 368.247645 323.576824 
L 368.157386 323.576824 
L 368.157386 323.667083 
L 368.247645 323.667083 
" clip-path="url(#p644248e2dd)" style="fill: #ff0000; fill-opacity: 0.7; stroke: #000000; stroke-opacity: 0.7; stroke-width: 0.5"/>
    <path d="M 343.324028 343.923902 
L 343.324028 343.833643 
L 343.233769 343.833643 
L 343.233769 343.923902 
L 343.324028 343.923902 
" clip-path="url(#p644248e2dd)" style="fill: #ff0000; fill-opacity: 0.7; stroke: #000000; stroke-opacity: 0.7; stroke-width: 0.5"/>
    <path d="M 512.616871 324.146104 
L 512.616871 324.055845 
L 512.526612 324.055845 
L 512.526612 324.146104 
L 512.616871 324.146104 
" clip-path="url(#p644248e2dd)" style="fill: #ff0000; fill-opacity: 0.7; stroke: #000000; stroke-opacity: 0.7; stroke-width: 0.5"/>
    <path d="M 612.070779 345.684375 
L 612.070779 345.594116 
L 611.98052 345.594116 
L 611.98052 345.684375 
L 612.070779 345.684375 
" clip-path="url(#p644248e2dd)" style="fill: #ff0000; fill-opacity: 0.7; stroke: #000000; stroke-opacity: 0.7; stroke-width: 0.5"/>
    <path d="M 410.195996 465.176871 
L 410.195996 465.086612 
L 410.105737 465.086612 
L 410.105737 465.176871 
L 410.195996 465.176871 
" clip-path="url(#p644248e2dd)" style="fill: #ff0000; fill-opacity: 0.7; stroke: #000000; stroke-opacity: 0.7; stroke-width: 0.5"/>
    <path d="M 382.824723 332.265743 
L 382.824723 332.175484 
L 382.734464 332.175484 
L 382.734464 332.265743 
L 382.824723 332.265743 
" clip-path="url(#p644248e2dd)" style="fill: #ff0000; fill-opacity: 0.7; stroke: #000000; stroke-opacity: 0.7; stroke-width: 0.5"/>
    <path d="M 606.189118 326.320106 
L 606.189118 326.229847 
L 606.098859 326.229847 
L 606.098859 326.320106 
L 606.189118 326.320106 
" clip-path="url(#p644248e2dd)" style="fill: #ff0000; fill-opacity: 0.7; stroke: #000000; stroke-opacity: 0.7; stroke-width: 0.5"/>
    <path d="M 403.216457 357.660714 
L 403.216457 357.570456 
L 403.126198 357.570456 
L 403.126198 357.660714 
L 403.216457 357.660714 
" clip-path="url(#p644248e2dd)" style="fill: #ff0000; fill-opacity: 0.7; stroke: #000000; stroke-opacity: 0.7; stroke-width: 0.5"/>
    <path d="M 397.795339 384.780045 
L 397.795339 384.689786 
L 397.70508 384.689786 
L 397.70508 384.780045 
L 397.795339 384.780045 
" clip-path="url(#p644248e2dd)" style="fill: #ff0000; fill-opacity: 0.7; stroke: #000000; stroke-opacity: 0.7; stroke-width: 0.5"/>
    <path d="M 569.516358 334.248169 
L 569.516358 334.15791 
L 569.4261 334.15791 
L 569.4261 334.248169 
L 569.516358 334.248169 
" clip-path="url(#p644248e2dd)" style="fill: #ff0000; fill-opacity: 0.7; stroke: #000000; stroke-opacity: 0.7; stroke-width: 0.5"/>
    <path d="M 512.806496 401.795899 
L 512.806496 401.70564 
L 512.716237 401.70564 
L 512.716237 401.795899 
L 512.806496 401.795899 
" clip-path="url(#p644248e2dd)" style="fill: #ff0000; fill-opacity: 0.7; stroke: #000000; stroke-opacity: 0.7; stroke-width: 0.5"/>
    <path d="M 449.04002 372.451168 
L 449.04002 372.360909 
L 448.949761 372.360909 
L 448.949761 372.451168 
L 449.04002 372.451168 
" clip-path="url(#p644248e2dd)" style="fill: #ff0000; fill-opacity: 0.7; stroke: #000000; stroke-opacity: 0.7; stroke-width: 0.5"/>
    <path d="M 468.342767 438.887789 
L 468.342767 438.79753 
L 468.252509 438.79753 
L 468.252509 438.887789 
L 468.342767 438.887789 
" clip-path="url(#p644248e2dd)" style="fill: #ff0000; fill-opacity: 0.7; stroke: #000000; stroke-opacity: 0.7; stroke-width: 0.5"/>
    <path d="M 403.129266 464.42216 
L 403.129266 464.331901 
L 403.039007 464.331901 
L 403.039007 464.42216 
L 403.129266 464.42216 
" clip-path="url(#p644248e2dd)" style="fill: #ff0000; fill-opacity: 0.7; stroke: #000000; stroke-opacity: 0.7; stroke-width: 0.5"/>
    <path d="M 418.562492 475.89102 
L 418.562492 475.800761 
L 418.472233 475.800761 
L 418.472233 475.89102 
L 418.562492 475.89102 
" clip-path="url(#p644248e2dd)" style="fill: #ff0000; fill-opacity: 0.7; stroke: #000000; stroke-opacity: 0.7; stroke-width: 0.5"/>
    <path d="M 612.070779 345.684375 
L 612.070779 345.594116 
L 611.98052 345.594116 
L 611.98052 345.684375 
L 612.070779 345.684375 
" clip-path="url(#p644248e2dd)" style="fill: #ff0000; fill-opacity: 0.7; stroke: #000000; stroke-opacity: 0.7; stroke-width: 0.5"/>
    <path d="M 500.116722 278.02191 
L 500.116722 277.931652 
L 500.026463 277.931652 
L 500.026463 278.02191 
L 500.116722 278.02191 
" clip-path="url(#p644248e2dd)" style="fill: #ff0000; fill-opacity: 0.7; stroke: #000000; stroke-opacity: 0.7; stroke-width: 0.5"/>
    <path d="M 410.195996 465.176871 
L 410.195996 465.086612 
L 410.105737 465.086612 
L 410.105737 465.176871 
L 410.195996 465.176871 
" clip-path="url(#p644248e2dd)" style="fill: #ff0000; fill-opacity: 0.7; stroke: #000000; stroke-opacity: 0.7; stroke-width: 0.5"/>
    <path d="M 507.268247 395.36737 
L 507.268247 395.277111 
L 507.177988 395.277111 
L 507.177988 395.36737 
L 507.268247 395.36737 
" clip-path="url(#p644248e2dd)" style="fill: #ff0000; fill-opacity: 0.7; stroke: #000000; stroke-opacity: 0.7; stroke-width: 0.5"/>
    <path d="M 455.915854 365.567611 
L 455.915854 365.477353 
L 455.825595 365.477353 
L 455.825595 365.567611 
L 455.915854 365.567611 
" clip-path="url(#p644248e2dd)" style="fill: #ff0000; fill-opacity: 0.7; stroke: #000000; stroke-opacity: 0.7; stroke-width: 0.5"/>
    <path d="M 503.978749 404.605705 
L 503.978749 404.515446 
L 503.88849 404.515446 
L 503.88849 404.605705 
L 503.978749 404.605705 
" clip-path="url(#p644248e2dd)" style="fill: #ff0000; fill-opacity: 0.7; stroke: #000000; stroke-opacity: 0.7; stroke-width: 0.5"/>
    <path d="M 492.843648 431.344919 
L 492.843648 431.25466 
L 492.75339 431.25466 
L 492.75339 431.344919 
L 492.843648 431.344919 
" clip-path="url(#p644248e2dd)" style="fill: #ff0000; fill-opacity: 0.7; stroke: #000000; stroke-opacity: 0.7; stroke-width: 0.5"/>
    <path d="M 511.606876 349.425956 
L 511.606876 349.335697 
L 511.516617 349.335697 
L 511.516617 349.425956 
L 511.606876 349.425956 
" clip-path="url(#p644248e2dd)" style="fill: #ff0000; fill-opacity: 0.7; stroke: #000000; stroke-opacity: 0.7; stroke-width: 0.5"/>
    <path d="M 430.631498 284.522009 
L 430.631498 284.43175 
L 430.541239 284.43175 
L 430.541239 284.522009 
L 430.631498 284.522009 
" clip-path="url(#p644248e2dd)" style="fill: #ff0000; fill-opacity: 0.7; stroke: #000000; stroke-opacity: 0.7; stroke-width: 0.5"/>
    <path d="M 565.506348 328.261404 
L 565.506348 328.171145 
L 565.416089 328.171145 
L 565.416089 328.261404 
L 565.506348 328.261404 
" clip-path="url(#p644248e2dd)" style="fill: #ff0000; fill-opacity: 0.7; stroke: #000000; stroke-opacity: 0.7; stroke-width: 0.5"/>
    <path d="M 431.115873 464.726647 
L 431.115873 464.636388 
L 431.025614 464.636388 
L 431.025614 464.726647 
L 431.115873 464.726647 
" clip-path="url(#p644248e2dd)" style="fill: #ff0000; fill-opacity: 0.7; stroke: #000000; stroke-opacity: 0.7; stroke-width: 0.5"/>
    <path d="M 382.824723 332.265743 
L 382.824723 332.175484 
L 382.734464 332.175484 
L 382.734464 332.265743 
L 382.824723 332.265743 
" clip-path="url(#p644248e2dd)" style="fill: #ff0000; fill-opacity: 0.7; stroke: #000000; stroke-opacity: 0.7; stroke-width: 0.5"/>
    <path d="M 518.744435 373.293642 
L 518.744435 373.203383 
L 518.654176 373.203383 
L 518.654176 373.293642 
L 518.744435 373.293642 
" clip-path="url(#p644248e2dd)" style="fill: #ff0000; fill-opacity: 0.7; stroke: #000000; stroke-opacity: 0.7; stroke-width: 0.5"/>
    <path d="M 407.751558 462.962054 
L 407.751558 462.871795 
L 407.661299 462.871795 
L 407.661299 462.962054 
L 407.751558 462.962054 
" clip-path="url(#p644248e2dd)" style="fill: #ff0000; fill-opacity: 0.7; stroke: #000000; stroke-opacity: 0.7; stroke-width: 0.5"/>
    <path d="M 486.373898 431.119271 
L 486.373898 431.029012 
L 486.283639 431.029012 
L 486.283639 431.119271 
L 486.373898 431.119271 
" clip-path="url(#p644248e2dd)" style="fill: #ff0000; fill-opacity: 0.7; stroke: #000000; stroke-opacity: 0.7; stroke-width: 0.5"/>
    <path d="M 487.432487 431.17178 
L 487.432487 431.081521 
L 487.342228 431.081521 
L 487.342228 431.17178 
L 487.432487 431.17178 
" clip-path="url(#p644248e2dd)" style="fill: #ff0000; fill-opacity: 0.7; stroke: #000000; stroke-opacity: 0.7; stroke-width: 0.5"/>
    <path d="M 490.43909 453.185897 
L 490.43909 453.095638 
L 490.348831 453.095638 
L 490.348831 453.185897 
L 490.43909 453.185897 
" clip-path="url(#p644248e2dd)" style="fill: #ff0000; fill-opacity: 0.7; stroke: #000000; stroke-opacity: 0.7; stroke-width: 0.5"/>
    <path d="M 506.063173 359.830935 
L 506.063173 359.740677 
L 505.972914 359.740677 
L 505.972914 359.830935 
L 506.063173 359.830935 
" clip-path="url(#p644248e2dd)" style="fill: #ff0000; fill-opacity: 0.7; stroke: #000000; stroke-opacity: 0.7; stroke-width: 0.5"/>
    <path d="M 491.072704 374.73854 
L 491.072704 374.648282 
L 490.982445 374.648282 
L 490.982445 374.73854 
L 491.072704 374.73854 
" clip-path="url(#p644248e2dd)" style="fill: #ff0000; fill-opacity: 0.7; stroke: #000000; stroke-opacity: 0.7; stroke-width: 0.5"/>
    <path d="M 411.77154 360.447385 
L 411.77154 360.357126 
L 411.681281 360.357126 
L 411.681281 360.447385 
L 411.77154 360.447385 
" clip-path="url(#p644248e2dd)" style="fill: #ff0000; fill-opacity: 0.7; stroke: #000000; stroke-opacity: 0.7; stroke-width: 0.5"/>
    <path d="M 411.766539 365.99043 
L 411.766539 365.900171 
L 411.67628 365.900171 
L 411.67628 365.99043 
L 411.766539 365.99043 
" clip-path="url(#p644248e2dd)" style="fill: #ff0000; fill-opacity: 0.7; stroke: #000000; stroke-opacity: 0.7; stroke-width: 0.5"/>
    <path d="M 457.876268 405.361184 
L 457.876268 405.270925 
L 457.786009 405.270925 
L 457.786009 405.361184 
L 457.876268 405.361184 
" clip-path="url(#p644248e2dd)" style="fill: #ff0000; fill-opacity: 0.7; stroke: #000000; stroke-opacity: 0.7; stroke-width: 0.5"/>
    <path d="M 462.877328 408.300227 
L 462.877328 408.209968 
L 462.787069 408.209968 
L 462.787069 408.300227 
L 462.877328 408.300227 
" clip-path="url(#p644248e2dd)" style="fill: #ff0000; fill-opacity: 0.7; stroke: #000000; stroke-opacity: 0.7; stroke-width: 0.5"/>
    <path d="M 462.907932 380.932555 
L 462.907932 380.842296 
L 462.817673 380.842296 
L 462.817673 380.932555 
L 462.907932 380.932555 
" clip-path="url(#p644248e2dd)" style="fill: #ff0000; fill-opacity: 0.7; stroke: #000000; stroke-opacity: 0.7; stroke-width: 0.5"/>
    <path d="M 439.556719 387.543589 
L 439.556719 387.45333 
L 439.46646 387.45333 
L 439.46646 387.543589 
L 439.556719 387.543589 
" clip-path="url(#p644248e2dd)" style="fill: #ff0000; fill-opacity: 0.7; stroke: #000000; stroke-opacity: 0.7; stroke-width: 0.5"/>
    <path d="M 436.909582 390.507377 
L 436.909582 390.417118 
L 436.819323 390.417118 
L 436.819323 390.507377 
L 436.909582 390.507377 
" clip-path="url(#p644248e2dd)" style="fill: #ff0000; fill-opacity: 0.7; stroke: #000000; stroke-opacity: 0.7; stroke-width: 0.5"/>
    <path d="M 365.840855 315.770974 
L 365.840855 315.680716 
L 365.750597 315.680716 
L 365.750597 315.770974 
L 365.840855 315.770974 
" clip-path="url(#p644248e2dd)" style="fill: #ff0000; fill-opacity: 0.7; stroke: #000000; stroke-opacity: 0.7; stroke-width: 0.5"/>
    <path d="M 493.480865 445.49876 
L 493.480865 445.408501 
L 493.390606 445.408501 
L 493.390606 445.49876 
L 493.480865 445.49876 
" clip-path="url(#p644248e2dd)" style="fill: #ff0000; fill-opacity: 0.7; stroke: #000000; stroke-opacity: 0.7; stroke-width: 0.5"/>
    <path d="M 405.034817 463.805249 
L 405.034817 463.714991 
L 404.944558 463.714991 
L 404.944558 463.805249 
L 405.034817 463.805249 
" clip-path="url(#p644248e2dd)" style="fill: #ff0000; fill-opacity: 0.7; stroke: #000000; stroke-opacity: 0.7; stroke-width: 0.5"/>
    <path d="M 548.717271 321.678738 
L 548.717271 321.588479 
L 548.627012 321.588479 
L 548.627012 321.678738 
L 548.717271 321.678738 
" clip-path="url(#p644248e2dd)" style="fill: #ff0000; fill-opacity: 0.7; stroke: #000000; stroke-opacity: 0.7; stroke-width: 0.5"/>
    <path d="M 597.417185 358.152711 
L 597.417185 358.062452 
L 597.326927 358.062452 
L 597.326927 358.152711 
L 597.417185 358.152711 
" clip-path="url(#p644248e2dd)" style="fill: #ff0000; fill-opacity: 0.7; stroke: #000000; stroke-opacity: 0.7; stroke-width: 0.5"/>
    <path d="M 343.324028 343.923902 
L 343.324028 343.833643 
L 343.233769 343.833643 
L 343.233769 343.923902 
L 343.324028 343.923902 
" clip-path="url(#p644248e2dd)" style="fill: #ff0000; fill-opacity: 0.7; stroke: #000000; stroke-opacity: 0.7; stroke-width: 0.5"/>
    <path d="M 410.195996 465.176871 
L 410.195996 465.086612 
L 410.105737 465.086612 
L 410.105737 465.176871 
L 410.195996 465.176871 
" clip-path="url(#p644248e2dd)" style="fill: #ff0000; fill-opacity: 0.7; stroke: #000000; stroke-opacity: 0.7; stroke-width: 0.5"/>
    <path d="M 490.619803 379.906944 
L 490.619803 379.816685 
L 490.529544 379.816685 
L 490.529544 379.906944 
L 490.619803 379.906944 
" clip-path="url(#p644248e2dd)" style="fill: #ff0000; fill-opacity: 0.7; stroke: #000000; stroke-opacity: 0.7; stroke-width: 0.5"/>
    <path d="M 573.663717 333.599876 
L 573.663717 333.509617 
L 573.573458 333.509617 
L 573.573458 333.599876 
L 573.663717 333.599876 
" clip-path="url(#p644248e2dd)" style="fill: #ff0000; fill-opacity: 0.7; stroke: #000000; stroke-opacity: 0.7; stroke-width: 0.5"/>
    <path d="M 408.823499 463.422246 
L 408.823499 463.331988 
L 408.733241 463.331988 
L 408.733241 463.422246 
L 408.823499 463.422246 
" clip-path="url(#p644248e2dd)" style="fill: #ff0000; fill-opacity: 0.7; stroke: #000000; stroke-opacity: 0.7; stroke-width: 0.5"/>
    <path d="M 479.489548 433.278996 
L 479.489548 433.188737 
L 479.399289 433.188737 
L 479.399289 433.278996 
L 479.489548 433.278996 
" clip-path="url(#p644248e2dd)" style="fill: #ff0000; fill-opacity: 0.7; stroke: #000000; stroke-opacity: 0.7; stroke-width: 0.5"/>
    <path d="M 427.319423 394.512793 
L 427.319423 394.422534 
L 427.229165 394.422534 
L 427.229165 394.512793 
L 427.319423 394.512793 
" clip-path="url(#p644248e2dd)" style="fill: #ff0000; fill-opacity: 0.7; stroke: #000000; stroke-opacity: 0.7; stroke-width: 0.5"/>
    <path d="M 397.316483 456.451857 
L 397.316483 456.361598 
L 397.226224 456.361598 
L 397.226224 456.451857 
L 397.316483 456.451857 
" clip-path="url(#p644248e2dd)" style="fill: #ff0000; fill-opacity: 0.7; stroke: #000000; stroke-opacity: 0.7; stroke-width: 0.5"/>
    <path d="M 408.8235 463.422236 
L 408.8235 463.331977 
L 408.733241 463.331977 
L 408.733241 463.422236 
L 408.8235 463.422236 
" clip-path="url(#p644248e2dd)" style="fill: #ff0000; fill-opacity: 0.7; stroke: #000000; stroke-opacity: 0.7; stroke-width: 0.5"/>
    <path d="M 457.423537 424.622792 
L 457.423537 424.532533 
L 457.333278 424.532533 
L 457.333278 424.622792 
L 457.423537 424.622792 
" clip-path="url(#p644248e2dd)" style="fill: #ff0000; fill-opacity: 0.7; stroke: #000000; stroke-opacity: 0.7; stroke-width: 0.5"/>
    <path d="M 523.301741 374.460859 
L 523.301741 374.3706 
L 523.211482 374.3706 
L 523.211482 374.460859 
L 523.301741 374.460859 
" clip-path="url(#p644248e2dd)" style="fill: #ff0000; fill-opacity: 0.7; stroke: #000000; stroke-opacity: 0.7; stroke-width: 0.5"/>
    <path d="M 397.316483 456.451857 
L 397.316483 456.361598 
L 397.226224 456.361598 
L 397.226224 456.451857 
L 397.316483 456.451857 
" clip-path="url(#p644248e2dd)" style="fill: #ff0000; fill-opacity: 0.7; stroke: #000000; stroke-opacity: 0.7; stroke-width: 0.5"/>
    <path d="M 548.717271 321.678738 
L 548.717271 321.588479 
L 548.627012 321.588479 
L 548.627012 321.678738 
L 548.717271 321.678738 
" clip-path="url(#p644248e2dd)" style="fill: #ff0000; fill-opacity: 0.7; stroke: #000000; stroke-opacity: 0.7; stroke-width: 0.5"/>
    <path d="M 318.79662 269.994014 
L 318.79662 269.903755 
L 318.706361 269.903755 
L 318.706361 269.994014 
L 318.79662 269.994014 
" clip-path="url(#p644248e2dd)" style="fill: #ff0000; fill-opacity: 0.7; stroke: #000000; stroke-opacity: 0.7; stroke-width: 0.5"/>
    <path d="M 445.976256 399.355894 
L 445.976256 399.265636 
L 445.885998 399.265636 
L 445.885998 399.355894 
L 445.976256 399.355894 
" clip-path="url(#p644248e2dd)" style="fill: #ff0000; fill-opacity: 0.7; stroke: #000000; stroke-opacity: 0.7; stroke-width: 0.5"/>
    <path d="M 431.295534 393.810363 
L 431.295534 393.720104 
L 431.205275 393.720104 
L 431.205275 393.810363 
L 431.295534 393.810363 
" clip-path="url(#p644248e2dd)" style="fill: #ff0000; fill-opacity: 0.7; stroke: #000000; stroke-opacity: 0.7; stroke-width: 0.5"/>
    <path d="M 405.955159 386.59653 
L 405.955159 386.506271 
L 405.8649 386.506271 
L 405.8649 386.59653 
L 405.955159 386.59653 
" clip-path="url(#p644248e2dd)" style="fill: #ff0000; fill-opacity: 0.7; stroke: #000000; stroke-opacity: 0.7; stroke-width: 0.5"/>
    <path d="M 491.249162 443.312551 
L 491.249162 443.222292 
L 491.158904 443.222292 
L 491.158904 443.312551 
L 491.249162 443.312551 
" clip-path="url(#p644248e2dd)" style="fill: #ff0000; fill-opacity: 0.7; stroke: #000000; stroke-opacity: 0.7; stroke-width: 0.5"/>
    <path d="M 398.000699 393.128158 
L 398.000699 393.037899 
L 397.91044 393.037899 
L 397.91044 393.128158 
L 398.000699 393.128158 
" clip-path="url(#p644248e2dd)" style="fill: #ff0000; fill-opacity: 0.7; stroke: #000000; stroke-opacity: 0.7; stroke-width: 0.5"/>
    <path d="M 433.944705 382.036183 
L 433.944705 381.945924 
L 433.854446 381.945924 
L 433.854446 382.036183 
L 433.944705 382.036183 
" clip-path="url(#p644248e2dd)" style="fill: #ff0000; fill-opacity: 0.7; stroke: #000000; stroke-opacity: 0.7; stroke-width: 0.5"/>
    <path d="M 453.414317 368.072174 
L 453.414317 367.981915 
L 453.324058 367.981915 
L 453.324058 368.072174 
L 453.414317 368.072174 
" clip-path="url(#p644248e2dd)" style="fill: #ff0000; fill-opacity: 0.7; stroke: #000000; stroke-opacity: 0.7; stroke-width: 0.5"/>
    <path d="M 400.467151 349.507425 
L 400.467151 349.417166 
L 400.376892 349.417166 
L 400.376892 349.507425 
L 400.467151 349.507425 
" clip-path="url(#p644248e2dd)" style="fill: #ff0000; fill-opacity: 0.7; stroke: #000000; stroke-opacity: 0.7; stroke-width: 0.5"/>
    <path d="M 550.222941 412.314288 
L 550.222941 412.224029 
L 550.132682 412.224029 
L 550.132682 412.314288 
L 550.222941 412.314288 
" clip-path="url(#p644248e2dd)" style="fill: #ff0000; fill-opacity: 0.7; stroke: #000000; stroke-opacity: 0.7; stroke-width: 0.5"/>
    <path d="M 589.99541 352.084828 
L 589.99541 351.994569 
L 589.905151 351.994569 
L 589.905151 352.084828 
L 589.99541 352.084828 
" clip-path="url(#p644248e2dd)" style="fill: #ff0000; fill-opacity: 0.7; stroke: #000000; stroke-opacity: 0.7; stroke-width: 0.5"/>
    <path d="M 395.003948 387.186987 
L 395.003948 387.096728 
L 394.913689 387.096728 
L 394.913689 387.186987 
L 395.003948 387.186987 
" clip-path="url(#p644248e2dd)" style="fill: #ff0000; fill-opacity: 0.7; stroke: #000000; stroke-opacity: 0.7; stroke-width: 0.5"/>
    <path d="M 403.129266 464.42216 
L 403.129266 464.331901 
L 403.039007 464.331901 
L 403.039007 464.42216 
L 403.129266 464.42216 
" clip-path="url(#p644248e2dd)" style="fill: #ff0000; fill-opacity: 0.7; stroke: #000000; stroke-opacity: 0.7; stroke-width: 0.5"/>
    <path d="M 405.008553 360.19335 
L 405.008553 360.103091 
L 404.918294 360.103091 
L 404.918294 360.19335 
L 405.008553 360.19335 
" clip-path="url(#p644248e2dd)" style="fill: #ff0000; fill-opacity: 0.7; stroke: #000000; stroke-opacity: 0.7; stroke-width: 0.5"/>
    <path d="M 619.418578 329.634062 
L 619.418578 329.543803 
L 619.328319 329.543803 
L 619.328319 329.634062 
L 619.418578 329.634062 
" clip-path="url(#p644248e2dd)" style="fill: #ff0000; fill-opacity: 0.7; stroke: #000000; stroke-opacity: 0.7; stroke-width: 0.5"/>
    <path d="M 613.301269 342.950106 
L 613.301269 342.859847 
L 613.21101 342.859847 
L 613.21101 342.950106 
L 613.301269 342.950106 
" clip-path="url(#p644248e2dd)" style="fill: #ff0000; fill-opacity: 0.7; stroke: #000000; stroke-opacity: 0.7; stroke-width: 0.5"/>
    <path d="M 523.301741 374.460859 
L 523.301741 374.3706 
L 523.211482 374.3706 
L 523.211482 374.460859 
L 523.301741 374.460859 
" clip-path="url(#p644248e2dd)" style="fill: #ff0000; fill-opacity: 0.7; stroke: #000000; stroke-opacity: 0.7; stroke-width: 0.5"/>
    <path d="M 591.222324 356.385845 
L 591.222324 356.295586 
L 591.132066 356.295586 
L 591.132066 356.385845 
L 591.222324 356.385845 
" clip-path="url(#p644248e2dd)" style="fill: #ff0000; fill-opacity: 0.7; stroke: #000000; stroke-opacity: 0.7; stroke-width: 0.5"/>
    <path d="M 515.70003 363.807126 
L 515.70003 363.716867 
L 515.609771 363.716867 
L 515.609771 363.807126 
L 515.70003 363.807126 
" clip-path="url(#p644248e2dd)" style="fill: #ff0000; fill-opacity: 0.7; stroke: #000000; stroke-opacity: 0.7; stroke-width: 0.5"/>
    <path d="M 513.129473 361.9194 
L 513.129473 361.829141 
L 513.039214 361.829141 
L 513.039214 361.9194 
L 513.129473 361.9194 
" clip-path="url(#p644248e2dd)" style="fill: #ff0000; fill-opacity: 0.7; stroke: #000000; stroke-opacity: 0.7; stroke-width: 0.5"/>
    <path d="M 473.238879 420.096635 
L 473.238879 420.006376 
L 473.14862 420.006376 
L 473.14862 420.096635 
L 473.238879 420.096635 
" clip-path="url(#p644248e2dd)" style="fill: #ff0000; fill-opacity: 0.7; stroke: #000000; stroke-opacity: 0.7; stroke-width: 0.5"/>
    <path d="M 429.814727 392.059099 
L 429.814727 391.96884 
L 429.724468 391.96884 
L 429.724468 392.059099 
L 429.814727 392.059099 
" clip-path="url(#p644248e2dd)" style="fill: #ff0000; fill-opacity: 0.7; stroke: #000000; stroke-opacity: 0.7; stroke-width: 0.5"/>
    <path d="M 408.569105 384.44772 
L 408.569105 384.357461 
L 408.478846 384.357461 
L 408.478846 384.44772 
L 408.569105 384.44772 
" clip-path="url(#p644248e2dd)" style="fill: #ff0000; fill-opacity: 0.7; stroke: #000000; stroke-opacity: 0.7; stroke-width: 0.5"/>
    <path d="M 609.103363 352.055653 
L 609.103363 351.965394 
L 609.013104 351.965394 
L 609.013104 352.055653 
L 609.103363 352.055653 
" clip-path="url(#p644248e2dd)" style="fill: #ff0000; fill-opacity: 0.7; stroke: #000000; stroke-opacity: 0.7; stroke-width: 0.5"/>
    <path d="M 430.376939 394.712775 
L 430.376939 394.622516 
L 430.28668 394.622516 
L 430.28668 394.712775 
L 430.376939 394.712775 
" clip-path="url(#p644248e2dd)" style="fill: #ff0000; fill-opacity: 0.7; stroke: #000000; stroke-opacity: 0.7; stroke-width: 0.5"/>
    <path d="M 488.504957 367.01481 
L 488.504957 366.924551 
L 488.414698 366.924551 
L 488.414698 367.01481 
L 488.504957 367.01481 
" clip-path="url(#p644248e2dd)" style="fill: #ff0000; fill-opacity: 0.7; stroke: #000000; stroke-opacity: 0.7; stroke-width: 0.5"/>
    <path d="M 400.910622 466.889816 
L 400.910622 466.799557 
L 400.820363 466.799557 
L 400.820363 466.889816 
L 400.910622 466.889816 
" clip-path="url(#p644248e2dd)" style="fill: #ff0000; fill-opacity: 0.7; stroke: #000000; stroke-opacity: 0.7; stroke-width: 0.5"/>
    <path d="M 321.574535 278.25423 
L 321.574535 278.163971 
L 321.484276 278.163971 
L 321.484276 278.25423 
L 321.574535 278.25423 
" clip-path="url(#p644248e2dd)" style="fill: #ff0000; fill-opacity: 0.7; stroke: #000000; stroke-opacity: 0.7; stroke-width: 0.5"/>
    <path d="M 515.1597 403.162825 
L 515.1597 403.072566 
L 515.069441 403.072566 
L 515.069441 403.162825 
L 515.1597 403.162825 
" clip-path="url(#p644248e2dd)" style="fill: #ff0000; fill-opacity: 0.7; stroke: #000000; stroke-opacity: 0.7; stroke-width: 0.5"/>
    <path d="M 289.868112 463.134087 
L 289.868112 463.043828 
L 289.777853 463.043828 
L 289.777853 463.134087 
L 289.868112 463.134087 
" clip-path="url(#p644248e2dd)" style="fill: #ff0000; fill-opacity: 0.7; stroke: #000000; stroke-opacity: 0.7; stroke-width: 0.5"/>
    <path d="M 432.080784 380.26636 
L 432.080784 380.176101 
L 431.990525 380.176101 
L 431.990525 380.26636 
L 432.080784 380.26636 
" clip-path="url(#p644248e2dd)" style="fill: #ff0000; fill-opacity: 0.7; stroke: #000000; stroke-opacity: 0.7; stroke-width: 0.5"/>
    <path d="M 510.194293 346.07421 
L 510.194293 345.983952 
L 510.104034 345.983952 
L 510.104034 346.07421 
L 510.194293 346.07421 
" clip-path="url(#p644248e2dd)" style="fill: #ff0000; fill-opacity: 0.7; stroke: #000000; stroke-opacity: 0.7; stroke-width: 0.5"/>
    <path d="M 461.398416 425.87018 
L 461.398416 425.779921 
L 461.308157 425.779921 
L 461.308157 425.87018 
L 461.398416 425.87018 
" clip-path="url(#p644248e2dd)" style="fill: #ff0000; fill-opacity: 0.7; stroke: #000000; stroke-opacity: 0.7; stroke-width: 0.5"/>
    <path d="M 527.407341 407.015025 
L 527.407341 406.924766 
L 527.317082 406.924766 
L 527.317082 407.015025 
L 527.407341 407.015025 
" clip-path="url(#p644248e2dd)" style="fill: #ff0000; fill-opacity: 0.7; stroke: #000000; stroke-opacity: 0.7; stroke-width: 0.5"/>
    <path d="M 395.538929 344.736187 
L 395.538929 344.645928 
L 395.44867 344.645928 
L 395.44867 344.736187 
L 395.538929 344.736187 
" clip-path="url(#p644248e2dd)" style="fill: #ff0000; fill-opacity: 0.7; stroke: #000000; stroke-opacity: 0.7; stroke-width: 0.5"/>
    <path d="M 446.309624 362.263038 
L 446.309624 362.172779 
L 446.219365 362.172779 
L 446.219365 362.263038 
L 446.309624 362.263038 
" clip-path="url(#p644248e2dd)" style="fill: #ff0000; fill-opacity: 0.7; stroke: #000000; stroke-opacity: 0.7; stroke-width: 0.5"/>
    <path d="M 432.120662 460.365222 
L 432.120662 460.274963 
L 432.030403 460.274963 
L 432.030403 460.365222 
L 432.120662 460.365222 
" clip-path="url(#p644248e2dd)" style="fill: #ff0000; fill-opacity: 0.7; stroke: #000000; stroke-opacity: 0.7; stroke-width: 0.5"/>
    <path d="M 289.868112 463.134077 
L 289.868112 463.043818 
L 289.777853 463.043818 
L 289.777853 463.134077 
L 289.868112 463.134077 
" clip-path="url(#p644248e2dd)" style="fill: #ff0000; fill-opacity: 0.7; stroke: #000000; stroke-opacity: 0.7; stroke-width: 0.5"/>
    <path d="M 518.227418 371.719568 
L 518.227418 371.629309 
L 518.137159 371.629309 
L 518.137159 371.719568 
L 518.227418 371.719568 
" clip-path="url(#p644248e2dd)" style="fill: #ff0000; fill-opacity: 0.7; stroke: #000000; stroke-opacity: 0.7; stroke-width: 0.5"/>
    <path d="M 523.001059 420.594778 
L 523.001059 420.504519 
L 522.9108 420.504519 
L 522.9108 420.594778 
L 523.001059 420.594778 
" clip-path="url(#p644248e2dd)" style="fill: #ff0000; fill-opacity: 0.7; stroke: #000000; stroke-opacity: 0.7; stroke-width: 0.5"/>
    <path d="M 326.201867 283.298135 
L 326.201867 283.207876 
L 326.111608 283.207876 
L 326.111608 283.298135 
L 326.201867 283.298135 
" clip-path="url(#p644248e2dd)" style="fill: #ff0000; fill-opacity: 0.7; stroke: #000000; stroke-opacity: 0.7; stroke-width: 0.5"/>
    <path d="M 385.69278 331.480167 
L 385.69278 331.389908 
L 385.602521 331.389908 
L 385.602521 331.480167 
L 385.69278 331.480167 
" clip-path="url(#p644248e2dd)" style="fill: #ff0000; fill-opacity: 0.7; stroke: #000000; stroke-opacity: 0.7; stroke-width: 0.5"/>
    <path d="M 395.815961 350.479139 
L 395.815961 350.38888 
L 395.725702 350.38888 
L 395.725702 350.479139 
L 395.815961 350.479139 
" clip-path="url(#p644248e2dd)" style="fill: #ff0000; fill-opacity: 0.7; stroke: #000000; stroke-opacity: 0.7; stroke-width: 0.5"/>
    <path d="M 446.309624 362.263028 
L 446.309624 362.172769 
L 446.219365 362.172769 
L 446.219365 362.263028 
L 446.309624 362.263028 
" clip-path="url(#p644248e2dd)" style="fill: #ff0000; fill-opacity: 0.7; stroke: #000000; stroke-opacity: 0.7; stroke-width: 0.5"/>
    <path d="M 498.525882 450.425298 
L 498.525882 450.335039 
L 498.435623 450.335039 
L 498.435623 450.425298 
L 498.525882 450.425298 
" clip-path="url(#p644248e2dd)" style="fill: #ff0000; fill-opacity: 0.7; stroke: #000000; stroke-opacity: 0.7; stroke-width: 0.5"/>
    <path d="M 457.36672 459.035162 
L 457.36672 458.944903 
L 457.276462 458.944903 
L 457.276462 459.035162 
L 457.36672 459.035162 
" clip-path="url(#p644248e2dd)" style="fill: #ff0000; fill-opacity: 0.7; stroke: #000000; stroke-opacity: 0.7; stroke-width: 0.5"/>
    <path d="M 366.787023 428.113242 
L 366.787023 428.022983 
L 366.696765 428.022983 
L 366.696765 428.113242 
L 366.787023 428.113242 
" clip-path="url(#p644248e2dd)" style="fill: #ff0000; fill-opacity: 0.7; stroke: #000000; stroke-opacity: 0.7; stroke-width: 0.5"/>
    <path d="M 493.480872 445.49875 
L 493.480872 445.408491 
L 493.390613 445.408491 
L 493.390613 445.49875 
L 493.480872 445.49875 
" clip-path="url(#p644248e2dd)" style="fill: #ff0000; fill-opacity: 0.7; stroke: #000000; stroke-opacity: 0.7; stroke-width: 0.5"/>
    <path d="M 381.094412 392.348366 
L 381.094412 392.258107 
L 381.004153 392.258107 
L 381.004153 392.348366 
L 381.094412 392.348366 
" clip-path="url(#p644248e2dd)" style="fill: #ff0000; fill-opacity: 0.7; stroke: #000000; stroke-opacity: 0.7; stroke-width: 0.5"/>
    <path d="M 415.448075 471.903595 
L 415.448075 471.813336 
L 415.357816 471.813336 
L 415.357816 471.903595 
L 415.448075 471.903595 
" clip-path="url(#p644248e2dd)" style="fill: #ff0000; fill-opacity: 0.7; stroke: #000000; stroke-opacity: 0.7; stroke-width: 0.5"/>
    <path d="M 427.955942 381.826885 
L 427.955942 381.736626 
L 427.865683 381.736626 
L 427.865683 381.826885 
L 427.955942 381.826885 
" clip-path="url(#p644248e2dd)" style="fill: #ff0000; fill-opacity: 0.7; stroke: #000000; stroke-opacity: 0.7; stroke-width: 0.5"/>
    <path d="M 523.301741 374.460859 
L 523.301741 374.3706 
L 523.211482 374.3706 
L 523.211482 374.460859 
L 523.301741 374.460859 
" clip-path="url(#p644248e2dd)" style="fill: #ff0000; fill-opacity: 0.7; stroke: #000000; stroke-opacity: 0.7; stroke-width: 0.5"/>
    <path d="M 586.865473 376.665328 
L 586.865473 376.575069 
L 586.775214 376.575069 
L 586.775214 376.665328 
L 586.865473 376.665328 
" clip-path="url(#p644248e2dd)" style="fill: #ff0000; fill-opacity: 0.7; stroke: #000000; stroke-opacity: 0.7; stroke-width: 0.5"/>
    <path d="M 439.556719 387.543579 
L 439.556719 387.45332 
L 439.466461 387.45332 
L 439.466461 387.543579 
L 439.556719 387.543579 
" clip-path="url(#p644248e2dd)" style="fill: #ff0000; fill-opacity: 0.7; stroke: #000000; stroke-opacity: 0.7; stroke-width: 0.5"/>
    <path d="M 429.814727 392.059099 
L 429.814727 391.96884 
L 429.724468 391.96884 
L 429.724468 392.059099 
L 429.814727 392.059099 
" clip-path="url(#p644248e2dd)" style="fill: #ff0000; fill-opacity: 0.7; stroke: #000000; stroke-opacity: 0.7; stroke-width: 0.5"/>
    <path d="M 411.766539 365.99043 
L 411.766539 365.900171 
L 411.67628 365.900171 
L 411.67628 365.99043 
L 411.766539 365.99043 
" clip-path="url(#p644248e2dd)" style="fill: #ff0000; fill-opacity: 0.7; stroke: #000000; stroke-opacity: 0.7; stroke-width: 0.5"/>
    <path d="M 460.774591 446.472494 
L 460.774591 446.382235 
L 460.684333 446.382235 
L 460.684333 446.472494 
L 460.774591 446.472494 
" clip-path="url(#p644248e2dd)" style="fill: #ff0000; fill-opacity: 0.7; stroke: #000000; stroke-opacity: 0.7; stroke-width: 0.5"/>
    <path d="M 368.358053 335.823281 
L 368.358053 335.733022 
L 368.267794 335.733022 
L 368.267794 335.823281 
L 368.358053 335.823281 
" clip-path="url(#p644248e2dd)" style="fill: #ff0000; fill-opacity: 0.7; stroke: #000000; stroke-opacity: 0.7; stroke-width: 0.5"/>
    <path d="M 548.717271 321.678738 
L 548.717271 321.588479 
L 548.627012 321.588479 
L 548.627012 321.678738 
L 548.717271 321.678738 
" clip-path="url(#p644248e2dd)" style="fill: #ff0000; fill-opacity: 0.7; stroke: #000000; stroke-opacity: 0.7; stroke-width: 0.5"/>
    <path d="M 523.301741 374.460848 
L 523.301741 374.37059 
L 523.211482 374.37059 
L 523.211482 374.460848 
L 523.301741 374.460848 
" clip-path="url(#p644248e2dd)" style="fill: #ff0000; fill-opacity: 0.7; stroke: #000000; stroke-opacity: 0.7; stroke-width: 0.5"/>
    <path d="M 515.1597 403.162815 
L 515.1597 403.072556 
L 515.069441 403.072556 
L 515.069441 403.162815 
L 515.1597 403.162815 
" clip-path="url(#p644248e2dd)" style="fill: #ff0000; fill-opacity: 0.7; stroke: #000000; stroke-opacity: 0.7; stroke-width: 0.5"/>
   </g>
   <g id="matplotlib.axis_1">
    <g id="xtick_1">
     <g id="line2d_1">
      <defs>
       <path id="mb977ced2a0" d="M 0 0 
L 0 3.5 
" style="stroke: #000000; stroke-width: 0.8"/>
      </defs>
      <g>
       <use xlink:href="#mb977ced2a0" x="130.276833" y="507.478357" style="stroke: #000000; stroke-width: 0.8"/>
      </g>
     </g>
     <g id="text_1">
      <!-- 385000 -->
      <g transform="translate(111.189333 522.076794) scale(0.1 -0.1)">
       <defs>
        <path id="DejaVuSans-33" d="M 2597 2516 
Q 3050 2419 3304 2112 
Q 3559 1806 3559 1356 
Q 3559 666 3084 287 
Q 2609 -91 1734 -91 
Q 1441 -91 1130 -33 
Q 819 25 488 141 
L 488 750 
Q 750 597 1062 519 
Q 1375 441 1716 441 
Q 2309 441 2620 675 
Q 2931 909 2931 1356 
Q 2931 1769 2642 2001 
Q 2353 2234 1838 2234 
L 1294 2234 
L 1294 2753 
L 1863 2753 
Q 2328 2753 2575 2939 
Q 2822 3125 2822 3475 
Q 2822 3834 2567 4026 
Q 2313 4219 1838 4219 
Q 1578 4219 1281 4162 
Q 984 4106 628 3988 
L 628 4550 
Q 988 4650 1302 4700 
Q 1616 4750 1894 4750 
Q 2613 4750 3031 4423 
Q 3450 4097 3450 3541 
Q 3450 3153 3228 2886 
Q 3006 2619 2597 2516 
z
" transform="scale(0.015625)"/>
        <path id="DejaVuSans-38" d="M 2034 2216 
Q 1584 2216 1326 1975 
Q 1069 1734 1069 1313 
Q 1069 891 1326 650 
Q 1584 409 2034 409 
Q 2484 409 2743 651 
Q 3003 894 3003 1313 
Q 3003 1734 2745 1975 
Q 2488 2216 2034 2216 
z
M 1403 2484 
Q 997 2584 770 2862 
Q 544 3141 544 3541 
Q 544 4100 942 4425 
Q 1341 4750 2034 4750 
Q 2731 4750 3128 4425 
Q 3525 4100 3525 3541 
Q 3525 3141 3298 2862 
Q 3072 2584 2669 2484 
Q 3125 2378 3379 2068 
Q 3634 1759 3634 1313 
Q 3634 634 3220 271 
Q 2806 -91 2034 -91 
Q 1263 -91 848 271 
Q 434 634 434 1313 
Q 434 1759 690 2068 
Q 947 2378 1403 2484 
z
M 1172 3481 
Q 1172 3119 1398 2916 
Q 1625 2713 2034 2713 
Q 2441 2713 2670 2916 
Q 2900 3119 2900 3481 
Q 2900 3844 2670 4047 
Q 2441 4250 2034 4250 
Q 1625 4250 1398 4047 
Q 1172 3844 1172 3481 
z
" transform="scale(0.015625)"/>
        <path id="DejaVuSans-35" d="M 691 4666 
L 3169 4666 
L 3169 4134 
L 1269 4134 
L 1269 2991 
Q 1406 3038 1543 3061 
Q 1681 3084 1819 3084 
Q 2600 3084 3056 2656 
Q 3513 2228 3513 1497 
Q 3513 744 3044 326 
Q 2575 -91 1722 -91 
Q 1428 -91 1123 -41 
Q 819 9 494 109 
L 494 744 
Q 775 591 1075 516 
Q 1375 441 1709 441 
Q 2250 441 2565 725 
Q 2881 1009 2881 1497 
Q 2881 1984 2565 2268 
Q 2250 2553 1709 2553 
Q 1456 2553 1204 2497 
Q 953 2441 691 2322 
L 691 4666 
z
" transform="scale(0.015625)"/>
        <path id="DejaVuSans-30" d="M 2034 4250 
Q 1547 4250 1301 3770 
Q 1056 3291 1056 2328 
Q 1056 1369 1301 889 
Q 1547 409 2034 409 
Q 2525 409 2770 889 
Q 3016 1369 3016 2328 
Q 3016 3291 2770 3770 
Q 2525 4250 2034 4250 
z
M 2034 4750 
Q 2819 4750 3233 4129 
Q 3647 3509 3647 2328 
Q 3647 1150 3233 529 
Q 2819 -91 2034 -91 
Q 1250 -91 836 529 
Q 422 1150 422 2328 
Q 422 3509 836 4129 
Q 1250 4750 2034 4750 
z
" transform="scale(0.015625)"/>
       </defs>
       <use xlink:href="#DejaVuSans-33"/>
       <use xlink:href="#DejaVuSans-38" x="63.623047"/>
       <use xlink:href="#DejaVuSans-35" x="127.246094"/>
       <use xlink:href="#DejaVuSans-30" x="190.869141"/>
       <use xlink:href="#DejaVuSans-30" x="254.492188"/>
       <use xlink:href="#DejaVuSans-30" x="318.115234"/>
      </g>
     </g>
    </g>
    <g id="xtick_2">
     <g id="line2d_2">
      <g>
       <use xlink:href="#mb977ced2a0" x="220.535673" y="507.478357" style="stroke: #000000; stroke-width: 0.8"/>
      </g>
     </g>
     <g id="text_2">
      <!-- 386000 -->
      <g transform="translate(201.448173 522.076794) scale(0.1 -0.1)">
       <defs>
        <path id="DejaVuSans-36" d="M 2113 2584 
Q 1688 2584 1439 2293 
Q 1191 2003 1191 1497 
Q 1191 994 1439 701 
Q 1688 409 2113 409 
Q 2538 409 2786 701 
Q 3034 994 3034 1497 
Q 3034 2003 2786 2293 
Q 2538 2584 2113 2584 
z
M 3366 4563 
L 3366 3988 
Q 3128 4100 2886 4159 
Q 2644 4219 2406 4219 
Q 1781 4219 1451 3797 
Q 1122 3375 1075 2522 
Q 1259 2794 1537 2939 
Q 1816 3084 2150 3084 
Q 2853 3084 3261 2657 
Q 3669 2231 3669 1497 
Q 3669 778 3244 343 
Q 2819 -91 2113 -91 
Q 1303 -91 875 529 
Q 447 1150 447 2328 
Q 447 3434 972 4092 
Q 1497 4750 2381 4750 
Q 2619 4750 2861 4703 
Q 3103 4656 3366 4563 
z
" transform="scale(0.015625)"/>
       </defs>
       <use xlink:href="#DejaVuSans-33"/>
       <use xlink:href="#DejaVuSans-38" x="63.623047"/>
       <use xlink:href="#DejaVuSans-36" x="127.246094"/>
       <use xlink:href="#DejaVuSans-30" x="190.869141"/>
       <use xlink:href="#DejaVuSans-30" x="254.492188"/>
       <use xlink:href="#DejaVuSans-30" x="318.115234"/>
      </g>
     </g>
    </g>
    <g id="xtick_3">
     <g id="line2d_3">
      <g>
       <use xlink:href="#mb977ced2a0" x="310.794512" y="507.478357" style="stroke: #000000; stroke-width: 0.8"/>
      </g>
     </g>
     <g id="text_3">
      <!-- 387000 -->
      <g transform="translate(291.707012 522.076794) scale(0.1 -0.1)">
       <defs>
        <path id="DejaVuSans-37" d="M 525 4666 
L 3525 4666 
L 3525 4397 
L 1831 0 
L 1172 0 
L 2766 4134 
L 525 4134 
L 525 4666 
z
" transform="scale(0.015625)"/>
       </defs>
       <use xlink:href="#DejaVuSans-33"/>
       <use xlink:href="#DejaVuSans-38" x="63.623047"/>
       <use xlink:href="#DejaVuSans-37" x="127.246094"/>
       <use xlink:href="#DejaVuSans-30" x="190.869141"/>
       <use xlink:href="#DejaVuSans-30" x="254.492188"/>
       <use xlink:href="#DejaVuSans-30" x="318.115234"/>
      </g>
     </g>
    </g>
    <g id="xtick_4">
     <g id="line2d_4">
      <g>
       <use xlink:href="#mb977ced2a0" x="401.053351" y="507.478357" style="stroke: #000000; stroke-width: 0.8"/>
      </g>
     </g>
     <g id="text_4">
      <!-- 388000 -->
      <g transform="translate(381.965851 522.076794) scale(0.1 -0.1)">
       <use xlink:href="#DejaVuSans-33"/>
       <use xlink:href="#DejaVuSans-38" x="63.623047"/>
       <use xlink:href="#DejaVuSans-38" x="127.246094"/>
       <use xlink:href="#DejaVuSans-30" x="190.869141"/>
       <use xlink:href="#DejaVuSans-30" x="254.492188"/>
       <use xlink:href="#DejaVuSans-30" x="318.115234"/>
      </g>
     </g>
    </g>
    <g id="xtick_5">
     <g id="line2d_5">
      <g>
       <use xlink:href="#mb977ced2a0" x="491.31219" y="507.478357" style="stroke: #000000; stroke-width: 0.8"/>
      </g>
     </g>
     <g id="text_5">
      <!-- 389000 -->
      <g transform="translate(472.22469 522.076794) scale(0.1 -0.1)">
       <defs>
        <path id="DejaVuSans-39" d="M 703 97 
L 703 672 
Q 941 559 1184 500 
Q 1428 441 1663 441 
Q 2288 441 2617 861 
Q 2947 1281 2994 2138 
Q 2813 1869 2534 1725 
Q 2256 1581 1919 1581 
Q 1219 1581 811 2004 
Q 403 2428 403 3163 
Q 403 3881 828 4315 
Q 1253 4750 1959 4750 
Q 2769 4750 3195 4129 
Q 3622 3509 3622 2328 
Q 3622 1225 3098 567 
Q 2575 -91 1691 -91 
Q 1453 -91 1209 -44 
Q 966 3 703 97 
z
M 1959 2075 
Q 2384 2075 2632 2365 
Q 2881 2656 2881 3163 
Q 2881 3666 2632 3958 
Q 2384 4250 1959 4250 
Q 1534 4250 1286 3958 
Q 1038 3666 1038 3163 
Q 1038 2656 1286 2365 
Q 1534 2075 1959 2075 
z
" transform="scale(0.015625)"/>
       </defs>
       <use xlink:href="#DejaVuSans-33"/>
       <use xlink:href="#DejaVuSans-38" x="63.623047"/>
       <use xlink:href="#DejaVuSans-39" x="127.246094"/>
       <use xlink:href="#DejaVuSans-30" x="190.869141"/>
       <use xlink:href="#DejaVuSans-30" x="254.492188"/>
       <use xlink:href="#DejaVuSans-30" x="318.115234"/>
      </g>
     </g>
    </g>
    <g id="xtick_6">
     <g id="line2d_6">
      <g>
       <use xlink:href="#mb977ced2a0" x="581.571029" y="507.478357" style="stroke: #000000; stroke-width: 0.8"/>
      </g>
     </g>
     <g id="text_6">
      <!-- 390000 -->
      <g transform="translate(562.483529 522.076794) scale(0.1 -0.1)">
       <use xlink:href="#DejaVuSans-33"/>
       <use xlink:href="#DejaVuSans-39" x="63.623047"/>
       <use xlink:href="#DejaVuSans-30" x="127.246094"/>
       <use xlink:href="#DejaVuSans-30" x="190.869141"/>
       <use xlink:href="#DejaVuSans-30" x="254.492188"/>
       <use xlink:href="#DejaVuSans-30" x="318.115234"/>
      </g>
     </g>
    </g>
   </g>
   <g id="matplotlib.axis_2">
    <g id="ytick_1">
     <g id="line2d_7">
      <defs>
       <path id="mc62fb3c0f8" d="M 0 0 
L -3.5 0 
" style="stroke: #000000; stroke-width: 0.8"/>
      </defs>
      <g>
       <use xlink:href="#mc62fb3c0f8" x="90" y="469.333638" style="stroke: #000000; stroke-width: 0.8"/>
      </g>
     </g>
     <g id="text_7">
      <!-- 5.8225 -->
      <g transform="translate(48.009375 473.132857) scale(0.1 -0.1)">
       <defs>
        <path id="DejaVuSans-2e" d="M 684 794 
L 1344 794 
L 1344 0 
L 684 0 
L 684 794 
z
" transform="scale(0.015625)"/>
        <path id="DejaVuSans-32" d="M 1228 531 
L 3431 531 
L 3431 0 
L 469 0 
L 469 531 
Q 828 903 1448 1529 
Q 2069 2156 2228 2338 
Q 2531 2678 2651 2914 
Q 2772 3150 2772 3378 
Q 2772 3750 2511 3984 
Q 2250 4219 1831 4219 
Q 1534 4219 1204 4116 
Q 875 4013 500 3803 
L 500 4441 
Q 881 4594 1212 4672 
Q 1544 4750 1819 4750 
Q 2544 4750 2975 4387 
Q 3406 4025 3406 3419 
Q 3406 3131 3298 2873 
Q 3191 2616 2906 2266 
Q 2828 2175 2409 1742 
Q 1991 1309 1228 531 
z
" transform="scale(0.015625)"/>
       </defs>
       <use xlink:href="#DejaVuSans-35"/>
       <use xlink:href="#DejaVuSans-2e" x="63.623047"/>
       <use xlink:href="#DejaVuSans-38" x="95.410156"/>
       <use xlink:href="#DejaVuSans-32" x="159.033203"/>
       <use xlink:href="#DejaVuSans-32" x="222.65625"/>
       <use xlink:href="#DejaVuSans-35" x="286.279297"/>
      </g>
     </g>
    </g>
    <g id="ytick_2">
     <g id="line2d_8">
      <g>
       <use xlink:href="#mc62fb3c0f8" x="90" y="424.204218" style="stroke: #000000; stroke-width: 0.8"/>
      </g>
     </g>
     <g id="text_8">
      <!-- 5.8230 -->
      <g transform="translate(48.009375 428.003437) scale(0.1 -0.1)">
       <use xlink:href="#DejaVuSans-35"/>
       <use xlink:href="#DejaVuSans-2e" x="63.623047"/>
       <use xlink:href="#DejaVuSans-38" x="95.410156"/>
       <use xlink:href="#DejaVuSans-32" x="159.033203"/>
       <use xlink:href="#DejaVuSans-33" x="222.65625"/>
       <use xlink:href="#DejaVuSans-30" x="286.279297"/>
      </g>
     </g>
    </g>
    <g id="ytick_3">
     <g id="line2d_9">
      <g>
       <use xlink:href="#mc62fb3c0f8" x="90" y="379.074799" style="stroke: #000000; stroke-width: 0.8"/>
      </g>
     </g>
     <g id="text_9">
      <!-- 5.8235 -->
      <g transform="translate(48.009375 382.874018) scale(0.1 -0.1)">
       <use xlink:href="#DejaVuSans-35"/>
       <use xlink:href="#DejaVuSans-2e" x="63.623047"/>
       <use xlink:href="#DejaVuSans-38" x="95.410156"/>
       <use xlink:href="#DejaVuSans-32" x="159.033203"/>
       <use xlink:href="#DejaVuSans-33" x="222.65625"/>
       <use xlink:href="#DejaVuSans-35" x="286.279297"/>
      </g>
     </g>
    </g>
    <g id="ytick_4">
     <g id="line2d_10">
      <g>
       <use xlink:href="#mc62fb3c0f8" x="90" y="333.945379" style="stroke: #000000; stroke-width: 0.8"/>
      </g>
     </g>
     <g id="text_10">
      <!-- 5.8240 -->
      <g transform="translate(48.009375 337.744598) scale(0.1 -0.1)">
       <defs>
        <path id="DejaVuSans-34" d="M 2419 4116 
L 825 1625 
L 2419 1625 
L 2419 4116 
z
M 2253 4666 
L 3047 4666 
L 3047 1625 
L 3713 1625 
L 3713 1100 
L 3047 1100 
L 3047 0 
L 2419 0 
L 2419 1100 
L 313 1100 
L 313 1709 
L 2253 4666 
z
" transform="scale(0.015625)"/>
       </defs>
       <use xlink:href="#DejaVuSans-35"/>
       <use xlink:href="#DejaVuSans-2e" x="63.623047"/>
       <use xlink:href="#DejaVuSans-38" x="95.410156"/>
       <use xlink:href="#DejaVuSans-32" x="159.033203"/>
       <use xlink:href="#DejaVuSans-34" x="222.65625"/>
       <use xlink:href="#DejaVuSans-30" x="286.279297"/>
      </g>
     </g>
    </g>
    <g id="ytick_5">
     <g id="line2d_11">
      <g>
       <use xlink:href="#mc62fb3c0f8" x="90" y="288.81596" style="stroke: #000000; stroke-width: 0.8"/>
      </g>
     </g>
     <g id="text_11">
      <!-- 5.8245 -->
      <g transform="translate(48.009375 292.615179) scale(0.1 -0.1)">
       <use xlink:href="#DejaVuSans-35"/>
       <use xlink:href="#DejaVuSans-2e" x="63.623047"/>
       <use xlink:href="#DejaVuSans-38" x="95.410156"/>
       <use xlink:href="#DejaVuSans-32" x="159.033203"/>
       <use xlink:href="#DejaVuSans-34" x="222.65625"/>
       <use xlink:href="#DejaVuSans-35" x="286.279297"/>
      </g>
     </g>
    </g>
    <g id="ytick_6">
     <g id="line2d_12">
      <g>
       <use xlink:href="#mc62fb3c0f8" x="90" y="243.68654" style="stroke: #000000; stroke-width: 0.8"/>
      </g>
     </g>
     <g id="text_12">
      <!-- 5.8250 -->
      <g transform="translate(48.009375 247.485759) scale(0.1 -0.1)">
       <use xlink:href="#DejaVuSans-35"/>
       <use xlink:href="#DejaVuSans-2e" x="63.623047"/>
       <use xlink:href="#DejaVuSans-38" x="95.410156"/>
       <use xlink:href="#DejaVuSans-32" x="159.033203"/>
       <use xlink:href="#DejaVuSans-35" x="222.65625"/>
       <use xlink:href="#DejaVuSans-30" x="286.279297"/>
      </g>
     </g>
    </g>
    <g id="text_13">
     <!-- 1e6 -->
     <g transform="translate(90 216.721643) scale(0.1 -0.1)">
      <defs>
       <path id="DejaVuSans-31" d="M 794 531 
L 1825 531 
L 1825 4091 
L 703 3866 
L 703 4441 
L 1819 4666 
L 2450 4666 
L 2450 531 
L 3481 531 
L 3481 0 
L 794 0 
L 794 531 
z
" transform="scale(0.015625)"/>
       <path id="DejaVuSans-65" d="M 3597 1894 
L 3597 1613 
L 953 1613 
Q 991 1019 1311 708 
Q 1631 397 2203 397 
Q 2534 397 2845 478 
Q 3156 559 3463 722 
L 3463 178 
Q 3153 47 2828 -22 
Q 2503 -91 2169 -91 
Q 1331 -91 842 396 
Q 353 884 353 1716 
Q 353 2575 817 3079 
Q 1281 3584 2069 3584 
Q 2775 3584 3186 3129 
Q 3597 2675 3597 1894 
z
M 3022 2063 
Q 3016 2534 2758 2815 
Q 2500 3097 2075 3097 
Q 1594 3097 1305 2825 
Q 1016 2553 972 2059 
L 3022 2063 
z
" transform="scale(0.015625)"/>
      </defs>
      <use xlink:href="#DejaVuSans-31"/>
      <use xlink:href="#DejaVuSans-65" x="63.623047"/>
      <use xlink:href="#DejaVuSans-36" x="125.146484"/>
     </g>
    </g>
   </g>
   <g id="patch_3">
    <path d="M 90 507.478357 
L 90 219.721643 
" style="fill: none; stroke: #000000; stroke-width: 0.8; stroke-linejoin: miter; stroke-linecap: square"/>
   </g>
   <g id="patch_4">
    <path d="M 648 507.478357 
L 648 219.721643 
" style="fill: none; stroke: #000000; stroke-width: 0.8; stroke-linejoin: miter; stroke-linecap: square"/>
   </g>
   <g id="patch_5">
    <path d="M 90 507.478357 
L 648 507.478357 
" style="fill: none; stroke: #000000; stroke-width: 0.8; stroke-linejoin: miter; stroke-linecap: square"/>
   </g>
   <g id="patch_6">
    <path d="M 90 219.721643 
L 648 219.721643 
" style="fill: none; stroke: #000000; stroke-width: 0.8; stroke-linejoin: miter; stroke-linecap: square"/>
   </g>
   <g id="text_14">
    <!-- Wedding -->
    <g transform="translate(344.859283 365.8266) scale(0.12 -0.12)">
     <defs>
      <path id="DejaVuSans-57" d="M 213 4666 
L 850 4666 
L 1831 722 
L 2809 4666 
L 3519 4666 
L 4500 722 
L 5478 4666 
L 6119 4666 
L 4947 0 
L 4153 0 
L 3169 4050 
L 2175 0 
L 1381 0 
L 213 4666 
z
" transform="scale(0.015625)"/>
      <path id="DejaVuSans-64" d="M 2906 2969 
L 2906 4863 
L 3481 4863 
L 3481 0 
L 2906 0 
L 2906 525 
Q 2725 213 2448 61 
Q 2172 -91 1784 -91 
Q 1150 -91 751 415 
Q 353 922 353 1747 
Q 353 2572 751 3078 
Q 1150 3584 1784 3584 
Q 2172 3584 2448 3432 
Q 2725 3281 2906 2969 
z
M 947 1747 
Q 947 1113 1208 752 
Q 1469 391 1925 391 
Q 2381 391 2643 752 
Q 2906 1113 2906 1747 
Q 2906 2381 2643 2742 
Q 2381 3103 1925 3103 
Q 1469 3103 1208 2742 
Q 947 2381 947 1747 
z
" transform="scale(0.015625)"/>
      <path id="DejaVuSans-69" d="M 603 3500 
L 1178 3500 
L 1178 0 
L 603 0 
L 603 3500 
z
M 603 4863 
L 1178 4863 
L 1178 4134 
L 603 4134 
L 603 4863 
z
" transform="scale(0.015625)"/>
      <path id="DejaVuSans-6e" d="M 3513 2113 
L 3513 0 
L 2938 0 
L 2938 2094 
Q 2938 2591 2744 2837 
Q 2550 3084 2163 3084 
Q 1697 3084 1428 2787 
Q 1159 2491 1159 1978 
L 1159 0 
L 581 0 
L 581 3500 
L 1159 3500 
L 1159 2956 
Q 1366 3272 1645 3428 
Q 1925 3584 2291 3584 
Q 2894 3584 3203 3211 
Q 3513 2838 3513 2113 
z
" transform="scale(0.015625)"/>
      <path id="DejaVuSans-67" d="M 2906 1791 
Q 2906 2416 2648 2759 
Q 2391 3103 1925 3103 
Q 1463 3103 1205 2759 
Q 947 2416 947 1791 
Q 947 1169 1205 825 
Q 1463 481 1925 481 
Q 2391 481 2648 825 
Q 2906 1169 2906 1791 
z
M 3481 434 
Q 3481 -459 3084 -895 
Q 2688 -1331 1869 -1331 
Q 1566 -1331 1297 -1286 
Q 1028 -1241 775 -1147 
L 775 -588 
Q 1028 -725 1275 -790 
Q 1522 -856 1778 -856 
Q 2344 -856 2625 -561 
Q 2906 -266 2906 331 
L 2906 616 
Q 2728 306 2450 153 
Q 2172 0 1784 0 
Q 1141 0 747 490 
Q 353 981 353 1791 
Q 353 2603 747 3093 
Q 1141 3584 1784 3584 
Q 2172 3584 2450 3431 
Q 2728 3278 2906 2969 
L 2906 3500 
L 3481 3500 
L 3481 434 
z
" transform="scale(0.015625)"/>
     </defs>
     <use xlink:href="#DejaVuSans-57"/>
     <use xlink:href="#DejaVuSans-65" x="93.001953"/>
     <use xlink:href="#DejaVuSans-64" x="154.525391"/>
     <use xlink:href="#DejaVuSans-64" x="218.001953"/>
     <use xlink:href="#DejaVuSans-69" x="281.478516"/>
     <use xlink:href="#DejaVuSans-6e" x="309.261719"/>
     <use xlink:href="#DejaVuSans-67" x="372.640625"/>
    </g>
   </g>
  </g>
 </g>
 <defs>
  <clipPath id="p644248e2dd">
   <rect x="90" y="219.721643" width="558" height="287.756714"/>
  </clipPath>
 </defs>
</svg>
