<?xml version="1.0" encoding="utf-8" standalone="no"?>
<!DOCTYPE svg PUBLIC "-//W3C//DTD SVG 1.1//EN"
  "http://www.w3.org/Graphics/SVG/1.1/DTD/svg11.dtd">
<svg xmlns:xlink="http://www.w3.org/1999/xlink" width="720pt" height="720pt" viewBox="0 0 720 720" xmlns="http://www.w3.org/2000/svg" version="1.1">
 <metadata>
  <rdf:RDF xmlns:dc="http://purl.org/dc/elements/1.1/" xmlns:cc="http://creativecommons.org/ns#" xmlns:rdf="http://www.w3.org/1999/02/22-rdf-syntax-ns#">
   <cc:Work>
    <dc:type rdf:resource="http://purl.org/dc/dcmitype/StillImage"/>
    <dc:date>2024-10-22T09:54:13.549148</dc:date>
    <dc:format>image/svg+xml</dc:format>
    <dc:creator>
     <cc:Agent>
      <dc:title>Matplotlib v3.9.2, https://matplotlib.org/</dc:title>
     </cc:Agent>
    </dc:creator>
   </cc:Work>
  </rdf:RDF>
 </metadata>
 <defs>
  <style type="text/css">*{stroke-linejoin: round; stroke-linecap: butt}</style>
 </defs>
 <g id="figure_1">
  <g id="patch_1">
   <path d="M 0 720 
L 720 720 
L 720 0 
L 0 0 
z
" style="fill: #ffffff"/>
  </g>
  <g id="axes_1">
   <g id="patch_2">
    <path d="M 90 507.044103 
L 648 507.044103 
L 648 220.155897 
L 90 220.155897 
z
" style="fill: #ffffff"/>
   </g>
   <g id="PatchCollection_1">
    <path d="M 511.641276 455.203406 
L 513.004847 454.205769 
L 511.917243 453.181316 
L 511.311494 452.615078 
L 510.212705 451.587966 
L 509.273999 450.710587 
L 508.194974 449.701929 
L 507.124134 448.687094 
L 505.941866 447.581547 
L 504.815093 446.532034 
L 504.463546 446.204531 
L 502.124614 444.026012 
L 501.681407 443.613158 
L 500.56821 442.576331 
L 499.510213 441.590459 
L 490.102993 432.824524 
L 486.251257 429.240945 
L 487.648637 429.269153 
L 487.708604 429.27033 
L 487.902094 429.274189 
L 489.000179 429.296411 
L 489.674137 429.309946 
L 489.869892 429.313845 
L 490.347192 429.323594 
L 490.385329 429.324361 
L 490.599293 429.328662 
L 491.862242 429.354131 
L 494.245286 429.406241 
L 495.518684 429.433299 
L 495.882485 429.441005 
L 496.569869 429.455699 
L 497.023354 429.465361 
L 499.353282 429.514984 
L 501.484111 429.581039 
L 501.751947 429.589297 
L 502.036236 429.596364 
L 502.320886 429.603423 
L 502.692688 429.612587 
L 503.98412 429.644435 
L 504.376763 429.654307 
L 505.986004 429.694102 
L 506.756787 429.713181 
L 507.445761 429.730125 
L 507.772809 429.738222 
L 510.369981 429.80208 
L 510.614678 429.808145 
L 512.23714 429.848025 
L 513.694269 429.884038 
L 514.116262 429.894524 
L 514.281869 429.898573 
L 514.345195 429.900132 
L 514.510984 429.904268 
L 514.57431 429.905826 
L 514.739917 429.909875 
L 515.16345 429.920418 
L 515.948817 429.939818 
L 517.649482 429.986569 
L 518.519925 430.008401 
L 518.566943 430.009513 
L 520.733907 430.064127 
L 521.785267 430.090396 
L 522.86616 430.11736 
L 524.589759 430.161347 
L 528.286078 430.262944 
L 529.440234 430.294528 
L 529.436615 430.00143 
L 529.80549 429.989256 
L 530.051043 429.981057 
L 530.081625 429.980091 
L 530.917451 429.952431 
L 530.864015 429.116141 
L 530.861943 429.0845 
L 530.846125 428.836623 
L 530.840392 428.746956 
L 530.832669 428.625282 
L 530.826361 428.526185 
L 530.71722 426.817247 
L 530.693705 426.448876 
L 530.925495 426.483815 
L 531.33515 426.542295 
L 532.367875 426.870364 
L 533.82394 427.332936 
L 537.033068 428.351515 
L 537.952038 425.442303 
L 538.094778 424.989812 
L 538.158839 424.786794 
L 538.362861 424.140519 
L 538.913338 422.397847 
L 538.980242 422.329052 
L 540.787967 420.470114 
L 542.235332 418.981254 
L 542.796131 418.40399 
L 542.847901 418.350702 
L 543.012679 418.180997 
L 543.22445 417.963015 
L 543.367128 417.817145 
L 543.552117 417.628188 
L 544.362431 416.799949 
L 544.715856 416.438754 
L 544.871016 416.280163 
L 544.882431 416.268374 
L 544.933235 416.216378 
L 545.99033 415.136228 
L 546.075747 415.049038 
L 546.121329 415.002427 
L 546.186209 414.93613 
L 546.225597 414.895924 
L 546.389869 414.727776 
L 546.750099 414.358984 
L 548.179967 412.895599 
L 548.403542 412.666729 
L 548.447885 412.621327 
L 548.61747 412.447793 
L 549.115677 411.941231 
L 549.254995 411.798798 
L 549.63799 411.407339 
L 549.825811 411.215234 
L 550.533382 410.49193 
L 550.747938 410.272617 
L 551.67491 409.323809 
L 552.258306 408.727615 
L 552.415773 408.566705 
L 552.788771 408.185462 
L 553.891566 407.058083 
L 554.004865 406.942299 
L 554.162333 406.781389 
L 554.316878 406.62336 
L 554.609687 406.324196 
L 554.769283 406.161241 
L 554.806104 406.123545 
L 554.827082 406.102097 
L 554.922767 406.004326 
L 555.01146 405.913704 
L 555.035098 405.889744 
L 557.513669 403.382863 
L 557.698534 403.195913 
L 559.351288 401.489461 
L 560.320134 400.508582 
L 560.33536 400.493075 
L 560.57733 400.248179 
L 560.592557 400.232672 
L 560.909072 399.912184 
L 560.924389 399.896675 
L 561.165741 399.652429 
L 561.181677 399.636271 
L 561.402663 399.412551 
L 561.420901 399.39407 
L 564.237563 396.540195 
L 572.739001 387.881002 
L 573.961686 386.66435 
L 574.056575 386.567054 
L 585.98027 374.356887 
L 586.344035 373.975125 
L 587.150785 373.128464 
L 587.269834 373.00584 
L 588.934055 371.291979 
L 589.000529 371.223565 
L 589.148081 371.071608 
L 590.109516 370.081521 
L 590.661752 369.512684 
L 590.969425 369.195777 
L 591.253733 368.903003 
L 591.274624 368.881559 
L 591.503074 368.646064 
L 591.534408 368.613761 
L 591.676737 368.467098 
L 591.815438 368.32424 
L 591.97069 368.164211 
L 592.111782 368.018938 
L 592.253933 367.87237 
L 592.526467 367.591574 
L 593.191953 366.907695 
L 593.363504 366.73141 
L 593.400064 366.693905 
L 593.445385 366.647305 
L 593.601092 366.487358 
L 594.269239 365.800786 
L 594.828153 365.226448 
L 594.98253 365.067711 
L 595.533481 364.501634 
L 596.199687 363.817107 
L 596.370443 363.641658 
L 596.405763 363.605362 
L 597.800324 362.172446 
L 598.245674 361.714798 
L 599.532866 360.392078 
L 603.163339 356.660761 
L 603.108131 356.120044 
L 606.905005 352.594208 
L 607.193032 352.191498 
L 607.230599 352.138174 
L 607.26009 352.096289 
L 608.081965 350.976819 
L 608.118379 350.892196 
L 608.556712 349.876959 
L 609.31329 348.072817 
L 609.402179 347.868525 
L 609.578497 347.463426 
L 609.916656 346.686239 
L 610.008647 346.474796 
L 610.03414 346.416114 
L 610.979205 344.244191 
L 611.0016 344.192752 
L 611.157421 343.834783 
L 612.123783 341.614444 
L 612.4268 340.917677 
L 612.542566 340.651586 
L 612.773404 340.120782 
L 613.236062 339.050344 
L 613.318896 338.858629 
L 613.471569 338.505544 
L 613.928287 337.448769 
L 614.017233 337.242753 
L 614.324646 336.531724 
L 614.547932 336.015345 
L 614.680792 335.70765 
L 614.886858 335.231154 
L 615.031692 334.895951 
L 615.328426 334.209406 
L 616.323687 331.906621 
L 616.915443 330.537566 
L 618.186534 327.596469 
L 618.211768 327.538247 
L 618.417238 327.063129 
L 618.527025 326.808796 
L 618.635836 326.557054 
L 618.95027 325.829592 
L 619.918314 323.579816 
L 620.396836 322.467991 
L 620.65271 321.873253 
L 622.636364 317.319801 
L 619.351173 316.892203 
L 608.263519 315.44913 
L 607.022183 315.278383 
L 605.937559 315.129266 
L 605.651117 315.089857 
L 604.95408 315.015738 
L 604.288241 314.92739 
L 603.348982 314.802792 
L 602.342593 314.669266 
L 601.73695 314.590698 
L 601.518296 314.562333 
L 601.253705 314.528064 
L 597.909743 314.094593 
L 597.632522 314.058523 
L 595.539305 313.787134 
L 595.115213 313.732218 
L 584.168587 312.313176 
L 581.7569 311.976577 
L 581.002954 311.881262 
L 580.699233 311.842894 
L 579.866633 311.737732 
L 578.730916 311.592284 
L 577.476455 311.431632 
L 573.509949 310.920684 
L 571.267868 310.631887 
L 567.420856 310.13119 
L 566.860136 310.05823 
L 562.775764 309.526705 
L 562.225035 309.455069 
L 561.245747 309.327651 
L 559.248201 309.067711 
L 557.261525 308.806904 
L 555.79993 308.615034 
L 553.471045 308.309494 
L 553.394652 308.299509 
L 552.850627 308.228096 
L 550.508426 307.9226 
L 547.090266 307.476664 
L 546.605929 307.413533 
L 545.306155 307.244009 
L 528.899067 305.104075 
L 525.81215 304.701551 
L 525.489064 304.664386 
L 525.164933 304.637142 
L 524.840215 304.61999 
L 524.514998 304.612837 
L 524.189828 304.615761 
L 523.864791 304.62867 
L 523.540435 304.651642 
L 523.21685 304.684676 
L 516.330377 305.499534 
L 516.296892 305.215922 
L 516.232548 304.672698 
L 515.55819 298.982851 
L 515.516265 298.63433 
L 515.210436 296.097083 
L 511.244847 296.558277 
L 509.810608 296.724949 
L 508.745387 296.848834 
L 508.213227 296.910676 
L 507.55153 296.987628 
L 506.839607 297.070442 
L 506.16707 297.148641 
L 505.674117 297.205964 
L 505.31724 294.107857 
L 504.304014 285.310886 
L 504.137625 283.868563 
L 504.034799 282.978195 
L 503.812475 281.05302 
L 503.736784 280.397379 
L 503.657854 279.714663 
L 503.495222 278.306484 
L 503.457036 277.975675 
L 503.369294 277.215711 
L 503.335408 276.922847 
L 503.283588 276.473769 
L 502.810836 272.366652 
L 502.580896 270.369559 
L 502.399541 268.794651 
L 502.133631 266.484858 
L 502.115034 266.323392 
L 501.894505 266.380702 
L 499.445794 267.015997 
L 498.749443 267.19662 
L 497.869488 267.425092 
L 496.979536 267.656063 
L 496.222678 267.852593 
L 495.761359 267.972311 
L 494.539042 268.289655 
L 493.518975 268.554462 
L 492.789044 268.74394 
L 492.481638 268.824568 
L 492.238973 268.888197 
L 491.378254 269.113883 
L 489.643337 269.569926 
L 487.930216 270.020304 
L 485.282469 270.716138 
L 483.804927 271.101699 
L 482.20609 271.522531 
L 481.537188 271.698744 
L 480.829655 271.884917 
L 480.302566 272.023762 
L 479.49248 272.236969 
L 479.221283 272.308428 
L 476.808591 272.943574 
L 476.089359 273.132927 
L 475.198513 273.367412 
L 474.93722 273.436197 
L 474.909276 273.22646 
L 474.799122 272.399096 
L 474.696169 271.625683 
L 474.560087 270.601611 
L 474.3117 268.751314 
L 474.030726 266.638453 
L 473.995897 266.376756 
L 473.833401 265.154716 
L 473.787008 264.806482 
L 473.760357 264.605886 
L 473.632468 263.643732 
L 473.578543 263.239013 
L 473.438216 262.183804 
L 473.384379 261.778993 
L 473.143048 259.964673 
L 472.590465 259.471348 
L 472.586306 259.467634 
L 471.479769 259.362927 
L 470.984142 259.316024 
L 470.132861 259.235464 
L 469.631878 259.18805 
L 468.303035 259.06236 
L 467.807407 259.015462 
L 466.329056 258.875573 
L 465.61339 258.807818 
L 463.677988 258.624702 
L 463.495441 258.607439 
L 460.925612 258.364174 
L 460.580125 258.331562 
L 460.533921 258.327169 
L 459.213601 258.202129 
L 459.042401 258.185971 
L 456.879238 257.981207 
L 456.49154 257.944569 
L 455.28741 257.830508 
L 455.001384 257.835586 
L 453.735134 257.85787 
L 453.553505 257.861109 
L 452.274669 257.883594 
L 451.632912 257.895527 
L 451.069383 257.906037 
L 450.431518 257.917883 
L 450.198189 257.922033 
L 448.867386 257.945624 
L 447.52626 257.969364 
L 446.169561 257.993373 
L 444.819382 258.017329 
L 443.458064 258.041361 
L 442.11839 258.065175 
L 440.737708 258.090113 
L 439.394333 258.114474 
L 436.632991 258.166032 
L 434.723497 258.201694 
L 434.537805 258.205489 
L 433.186628 258.233316 
L 432.317831 258.251107 
L 431.724879 258.262225 
L 423.325493 258.419925 
L 421.8782 258.447174 
L 413.203126 258.610202 
L 412.480611 258.623771 
L 412.051 258.632078 
L 411.879606 258.635281 
L 410.2689 258.666133 
L 409.932996 258.672565 
L 409.39899 258.682724 
L 408.817728 258.694058 
L 408.635925 258.697592 
L 407.667786 258.716349 
L 407.349448 258.722471 
L 406.963171 258.597499 
L 406.082203 258.312272 
L 405.210181 258.030111 
L 405.183128 257.912424 
L 405.039983 257.2884 
L 395.693728 254.128061 
L 393.747231 253.469826 
L 393.661604 253.440832 
L 393.399978 253.352414 
L 387.145839 251.238208 
L 387.017124 251.194679 
L 386.8885 251.151148 
L 384.17115 250.232567 
L 383.853016 250.125115 
L 381.132644 249.205623 
L 380.62846 249.035173 
L 379.505616 248.655596 
L 379.355446 248.604754 
L 378.296777 248.246947 
L 378.03679 248.159136 
L 377.906338 248.115014 
L 374.995411 247.130666 
L 374.678823 247.02373 
L 373.408806 246.594168 
L 373.153015 246.507715 
L 372.098897 246.151272 
L 370.941079 245.760082 
L 370.425662 245.585998 
L 370.298496 245.542983 
L 367.69035 244.661303 
L 362.658265 242.960842 
L 362.443004 242.888171 
L 362.209756 242.809287 
L 360.982629 242.394569 
L 360.771658 242.323344 
L 360.536676 242.243956 
L 359.313746 241.83069 
L 359.097661 241.757677 
L 358.864411 241.678794 
L 357.639745 241.265028 
L 357.427219 241.193205 
L 357.193969 241.114323 
L 355.964919 240.699119 
L 355.753212 240.627459 
L 355.519875 240.548762 
L 353.766988 239.956424 
L 353.638357 239.912903 
L 353.595541 239.898455 
L 353.166473 239.753542 
L 351.042479 239.035849 
L 349.326553 238.456023 
L 348.724207 238.252463 
L 348.06389 238.029359 
L 347.482448 237.832855 
L 345.666549 237.219304 
L 345.537828 237.175878 
L 345.270886 237.085613 
L 344.340614 236.771321 
L 343.192424 236.383431 
L 342.630608 236.193653 
L 342.50919 236.152693 
L 342.417347 236.121582 
L 342.106132 236.016543 
L 339.946962 235.287367 
L 339.619128 235.17663 
L 336.412177 234.093684 
L 336.243101 234.036575 
L 333.754798 233.19627 
L 331.029193 235.582726 
L 328.893394 237.452826 
L 322.825294 242.766065 
L 321.111146 244.266808 
L 312.305309 251.977633 
L 310.40984 253.637424 
L 308.993038 254.877917 
L 307.433741 256.2432 
L 304.786197 258.561732 
L 303.899223 259.338617 
L 303.025465 260.130724 
L 302.646617 260.317283 
L 302.351151 260.462776 
L 302.089989 260.591404 
L 301.729257 260.93108 
L 301.155573 261.443484 
L 298.808022 259.260509 
L 298.634918 259.099273 
L 298.559661 259.029289 
L 298.47542 258.950706 
L 296.601954 257.204012 
L 295.819071 256.474099 
L 295.141612 256.407005 
L 293.720473 256.268546 
L 292.406278 256.140593 
L 291.007098 256.003903 
L 290.355875 255.939386 
L 289.655866 255.872551 
L 288.304447 255.740935 
L 286.694112 255.584281 
L 281.878646 255.15585 
L 274.490119 254.499529 
L 271.087521 254.197004 
L 270.474225 254.143346 
L 270.257704 255.421978 
L 269.479105 258.010612 
L 269.371363 258.357144 
L 269.257326 258.701734 
L 269.137079 259.044107 
L 269.010528 259.384176 
L 268.877856 259.721936 
L 268.747989 260.036114 
L 268.612727 260.348057 
L 268.472248 260.65767 
L 268.326457 260.964774 
L 268.175445 261.269366 
L 268.170212 261.279552 
L 268.066062 261.482284 
L 267.954022 261.693902 
L 267.839504 261.904126 
L 267.819764 261.939632 
L 267.799934 261.97514 
L 267.780104 262.010649 
L 267.740603 262.080754 
L 267.700827 262.150684 
L 267.660775 262.220439 
L 267.520306 262.459958 
L 267.376531 262.697556 
L 267.229446 262.933051 
L 267.079145 263.166534 
L 266.922118 263.402896 
L 266.761776 263.636975 
L 266.59812 263.86868 
L 266.532649 263.959456 
L 266.466627 264.049881 
L 266.400144 264.139953 
L 266.184291 264.425443 
L 265.963363 264.706875 
L 265.737361 264.984338 
L 265.506463 265.257649 
L 265.270668 265.526806 
L 265.029882 265.79163 
L 264.784374 266.052024 
L 264.534235 266.307987 
L 264.279553 266.559425 
L 264.020324 266.806156 
L 263.756822 267.048266 
L 263.489042 267.285572 
L 263.217074 267.517982 
L 262.941006 267.745494 
L 262.660838 267.968017 
L 262.356703 268.199904 
L 262.048172 268.425812 
L 261.735339 268.645826 
L 261.418378 268.859673 
L 261.346557 268.906924 
L 261.274458 268.953909 
L 261.20217 269.000535 
L 261.054712 269.09449 
L 260.906407 269.187103 
L 260.757258 269.278465 
L 260.485918 269.440132 
L 260.212033 269.5975 
L 259.935601 269.750479 
L 259.656893 269.899061 
L 259.338203 270.061649 
L 259.01666 270.218402 
L 258.692358 270.369409 
L 258.365474 270.514483 
L 258.035915 270.653627 
L 257.704139 270.786922 
L 257.369958 270.914189 
L 257.033555 271.035425 
L 256.695017 271.150536 
L 256.354528 271.25961 
L 256.012441 271.362275 
L 255.668489 271.458719 
L 255.322944 271.548935 
L 254.975806 271.632924 
L 254.627253 271.71059 
L 254.420904 271.756889 
L 254.214052 271.80102 
L 254.006788 271.842983 
L 252.729027 272.449205 
L 251.981595 272.539523 
L 251.176413 272.662693 
L 250.432672 272.791062 
L 249.695499 272.929266 
L 248.288069 273.231994 
L 245.042541 273.924224 
L 238.733489 275.269918 
L 236.822728 275.677488 
L 236.82213 275.677616 
L 235.252123 276.012574 
L 230.58953 277.007275 
L 227.993302 277.558996 
L 224.768149 278.244453 
L 224.031005 278.402675 
L 223.239583 278.579327 
L 222.504286 278.74677 
L 221.774417 278.917809 
L 221.042765 279.097881 
L 220.315725 279.281478 
L 219.586907 279.474288 
L 218.923997 279.654028 
L 218.139996 279.877003 
L 217.520651 280.056635 
L 217.479991 280.068662 
L 216.041541 280.503964 
L 215.246453 280.760253 
L 215.03159 280.829559 
L 214.466436 281.021912 
L 213.694682 281.284468 
L 213.030229 281.510559 
L 212.084677 281.847639 
L 210.670982 282.380985 
L 209.96787 282.654382 
L 201.54968 285.98472 
L 199.856419 286.654664 
L 199.273334 286.885409 
L 196.545659 287.96456 
L 190.786133 290.244173 
L 190.690735 290.282 
L 190.279614 290.444807 
L 186.313548 292.016012 
L 186.069611 292.115977 
L 185.310951 292.425763 
L 185.211185 292.466509 
L 184.225178 292.869063 
L 183.864496 293.019616 
L 182.677411 293.514961 
L 181.641293 293.962824 
L 181.339112 294.093484 
L 177.82157 295.650707 
L 175.852857 296.522237 
L 175.577033 296.645019 
L 171.559355 298.433302 
L 169.169292 299.497163 
L 168.743325 299.686761 
L 166.413514 300.72389 
L 165.884375 300.959404 
L 165.337668 301.202777 
L 165.045829 301.705744 
L 163.690336 304.041999 
L 159.121789 311.916623 
L 157.425087 314.841107 
L 156.104239 317.117918 
L 154.198033 320.403717 
L 151.950686 324.277647 
L 151.518719 325.022259 
L 151.140727 325.673808 
L 150.804612 326.253278 
L 149.903778 327.806205 
L 150.057851 327.896101 
L 149.955837 328.076371 
L 149.845799 328.270768 
L 149.702841 328.523321 
L 149.547429 328.798005 
L 146.654316 333.838909 
L 146.52414 334.065695 
L 141.676016 342.513476 
L 140.976199 343.733642 
L 140.446303 344.657081 
L 138.745774 347.62041 
L 138.206278 348.560507 
L 134.801158 354.494192 
L 132.253192 358.934889 
L 131.016334 361.090493 
L 130.613104 361.794772 
L 129.819182 363.201037 
L 129.219815 364.257147 
L 129.171565 364.342907 
L 128.177612 366.131605 
L 127.480078 367.39968 
L 126.787685 368.670541 
L 126.100341 369.944189 
L 125.418136 371.220533 
L 124.740781 372.498851 
L 124.068473 373.779866 
L 123.401303 375.063576 
L 122.739362 376.349978 
L 122.082568 377.639437 
L 121.43091 378.9315 
L 120.784478 380.226165 
L 120.143182 381.523434 
L 117.305368 387.29079 
L 116.521271 388.884344 
L 115.363636 391.237242 
L 116.044588 391.263935 
L 133.060784 391.932592 
L 137.164435 392.140174 
L 146.309378 392.798238 
L 148.974764 392.994199 
L 158.004746 393.659478 
L 162.613841 393.999236 
L 169.656 394.518249 
L 173.919469 394.83256 
L 185.455113 395.683198 
L 196.388127 396.096633 
L 196.622225 396.105315 
L 197.044472 396.121031 
L 198.823221 396.188697 
L 199.191907 396.202491 
L 208.879103 396.566323 
L 216.084241 396.980026 
L 216.392518 397.324475 
L 216.560599 397.477079 
L 219.631622 401.118427 
L 220.322831 402.008243 
L 220.407678 402.117395 
L 220.473393 402.202026 
L 221.423512 403.233428 
L 221.703557 403.536229 
L 224.616758 406.487614 
L 225.556895 407.706027 
L 228.023633 411.476131 
L 228.233624 411.905417 
L 228.557769 412.368628 
L 229.872401 414.199809 
L 230.531505 415.100922 
L 232.111079 416.893783 
L 232.53665 417.37742 
L 242.096237 429.51853 
L 242.207724 429.660206 
L 244.541903 432.49266 
L 246.352711 434.418917 
L 247.728432 436.196337 
L 250.020063 439.485427 
L 250.610505 440.240171 
L 250.892855 440.601319 
L 255.835776 446.920387 
L 255.938876 447.052184 
L 257.277032 448.763046 
L 257.705292 449.310565 
L 259.215577 451.241511 
L 259.897763 452.147396 
L 260.262353 452.631753 
L 262.473118 455.568047 
L 262.728222 455.906864 
L 263.092056 456.390151 
L 263.17603 456.501602 
L 263.454297 456.871115 
L 264.62138 458.328208 
L 266.984695 460.644286 
L 267.225474 460.884653 
L 267.073492 461.113091 
L 267.027021 461.241196 
L 267.821296 461.843224 
L 270.725723 463.940173 
L 273.538184 465.604364 
L 273.736457 465.721695 
L 273.684349 466.514742 
L 273.678988 466.59613 
L 273.658512 466.908855 
L 273.658505 466.908958 
L 273.658972 466.909207 
L 276.02399 468.170783 
L 276.371621 468.326137 
L 276.719147 468.476954 
L 277.071092 468.623129 
L 277.427456 468.764662 
L 277.783716 468.901657 
L 278.14429 469.029473 
L 278.249399 469.072429 
L 278.31779 469.093539 
L 278.682574 469.207638 
L 279.046938 469.303588 
L 279.420246 469.394791 
L 279.797659 469.467739 
L 280.170442 469.536255 
L 280.547331 469.586517 
L 280.955891 469.636044 
L 281.364345 469.681033 
L 281.768066 469.717053 
L 282.176101 469.743894 
L 282.588661 469.77063 
L 282.996486 469.788397 
L 283.404103 469.797089 
L 283.816138 469.801139 
L 285.284791 469.689857 
L 289.718865 469.201033 
L 294.096563 468.622765 
L 294.53891 468.567104 
L 294.557112 468.571222 
L 294.57079 468.575444 
L 294.584573 468.584204 
L 294.598251 468.588427 
L 294.611929 468.592649 
L 294.625711 468.601409 
L 294.634865 468.605736 
L 294.648648 468.614496 
L 294.657906 468.623361 
L 294.662744 468.636868 
L 294.676527 468.645628 
L 294.681365 468.659136 
L 294.690623 468.668 
L 294.699986 468.681403 
L 294.704825 468.69491 
L 294.709663 468.708417 
L 295.675797 468.595208 
L 295.806796 468.58309 
L 299.910715 468.106567 
L 300.29898 468.061245 
L 300.687244 468.015925 
L 301.075718 467.979679 
L 301.468821 467.947866 
L 301.879917 467.911096 
L 302.291223 467.883402 
L 302.702737 467.864783 
L 303.114252 467.846164 
L 303.525976 467.83662 
L 303.938014 467.840689 
L 304.304598 467.836733 
L 304.666866 467.841956 
L 305.02924 467.851717 
L 305.391509 467.85694 
L 305.753986 467.871239 
L 306.116464 467.885538 
L 306.542493 467.907445 
L 306.968627 467.933889 
L 307.39476 467.960334 
L 307.821103 467.995853 
L 308.242921 468.031479 
L 308.664844 468.071641 
L 311.718464 468.377712 
L 311.822839 468.388914 
L 311.945521 468.408772 
L 312.338456 468.472374 
L 316.446617 470.043299 
L 316.449865 470.044046 
L 316.769731 470.117536 
L 317.087798 470.169191 
L 317.410076 470.207129 
L 317.736461 470.226813 
L 317.836102 470.229046 
L 317.931429 470.240459 
L 318.031488 470.260842 
L 318.127127 470.285868 
L 318.222871 470.31543 
L 318.318719 470.34953 
L 318.901256 470.681074 
L 319.573549 470.978762 
L 330.185757 475.76341 
L 330.281916 475.811125 
L 340.685361 480.582691 
L 340.78131 480.621333 
L 344.687887 482.396993 
L 345.149111 482.572477 
L 346.102605 482.895493 
L 346.212126 482.933823 
L 347.219805 483.25105 
L 348.040842 483.522649 
L 348.427906 483.622672 
L 348.810653 483.731875 
L 349.197717 483.831898 
L 349.580256 483.932026 
L 349.967423 484.036588 
L 350.354277 484.127538 
L 350.74134 484.227563 
L 351.128194 484.318513 
L 351.519573 484.409359 
L 351.911055 484.504744 
L 366.559446 487.866998 
L 378.927594 490.696561 
L 379.205129 490.758272 
L 380.13789 490.968342 
L 380.140757 490.968943 
L 381.406896 491.234237 
L 382.675796 491.495598 
L 386.693092 492.383817 
L 386.802296 492.408545 
L 387.907696 492.646441 
L 392.490913 493.539862 
L 392.590964 493.560262 
L 393.741393 493.788058 
L 394.149919 493.83769 
L 394.553817 493.882889 
L 394.962135 493.923446 
L 395.374667 493.950288 
L 395.782675 493.977234 
L 396.605609 494.00373 
L 400.925386 493.999866 
L 401.395386 493.966376 
L 401.865179 493.923812 
L 402.334868 493.876712 
L 402.804454 493.825074 
L 403.269309 493.764465 
L 403.738688 493.703754 
L 404.203336 493.634071 
L 404.672301 493.555211 
L 405.078134 493.486879 
L 405.483761 493.409473 
L 405.88476 493.327634 
L 406.2946 493.236513 
L 406.695393 493.145599 
L 407.100606 493.050045 
L 407.501191 492.950057 
L 407.897149 492.845637 
L 408.30668 492.740905 
L 408.706956 492.627306 
L 409.111549 492.504529 
L 409.507094 492.38196 
L 409.90706 492.25475 
L 410.302295 492.118569 
L 410.401104 492.084524 
L 411.59092 491.65773 
L 419.903777 488.765967 
L 422.525487 487.807013 
L 425.371977 486.779369 
L 425.731647 486.671256 
L 426.095945 486.567576 
L 426.455925 486.473076 
L 426.815803 486.374038 
L 427.396545 486.233625 
L 427.617202 486.183174 
L 427.83786 486.132723 
L 428.643991 485.950832 
L 429.022586 485.878606 
L 429.405809 485.810815 
L 429.79366 485.747458 
L 430.177296 485.697817 
L 430.565354 485.643535 
L 430.949197 485.60297 
L 431.473087 485.55012 
L 432.687957 485.426977 
L 433.393026 485.379062 
L 433.795277 485.351697 
L 434.202258 485.333304 
L 434.609136 485.310374 
L 435.016427 485.305594 
L 435.423718 485.300815 
L 435.831216 485.305111 
L 436.234292 485.314048 
L 436.642099 485.331957 
L 437.045382 485.349969 
L 437.453396 485.376954 
L 437.856988 485.40858 
L 438.265311 485.449177 
L 438.669109 485.489879 
L 439.068693 485.544296 
L 439.527299 485.606444 
L 439.981587 485.67777 
L 440.435978 485.753635 
L 440.890472 485.834037 
L 441.340339 485.910006 
L 441.790617 486.004125 
L 442.240896 486.098245 
L 442.691278 486.196902 
L 443.137341 486.304738 
L 443.583507 486.417112 
L 444.029674 486.529487 
L 444.471521 486.65104 
L 444.917893 486.772491 
L 445.355526 486.907761 
L 445.793158 487.043031 
L 446.235417 487.182736 
L 446.668834 487.331724 
L 447.102353 487.485249 
L 447.540294 487.634133 
L 447.969494 487.796837 
L 448.398798 487.964079 
L 448.82368 488.135963 
L 449.253189 488.312281 
L 449.673649 488.488805 
L 450.094315 488.674406 
L 450.510663 488.869185 
L 450.926907 489.059427 
L 451.34346 489.263281 
L 451.398369 489.289266 
L 451.61368 489.202631 
L 451.679802 489.323695 
L 451.581298 489.371343 
L 451.837337 489.483529 
L 452.017071 489.424946 
L 452.069106 489.523633 
L 452.011217 489.565813 
L 456.957981 491.722744 
L 456.884674 491.883311 
L 457.428724 492.120579 
L 460.432663 493.441186 
L 461.308724 492.798239 
L 463.217029 491.392931 
L 462.94083 491.269849 
L 467.383116 487.739226 
L 468.787595 486.62318 
L 469.718697 485.883114 
L 470.120861 486.355072 
L 472.046482 484.924439 
L 471.45645 484.232314 
L 477.547311 479.83016 
L 478.43573 479.182971 
L 479.053573 478.732892 
L 481.591163 476.837739 
L 483.523142 475.38858 
L 486.307752 473.473484 
L 487.956193 472.147927 
L 494.269181 467.296868 
L 493.907615 466.542043 
L 493.756716 466.226963 
L 500.460745 462.33108 
L 506.84487 458.621072 
L 508.870592 457.230548 
L 510.21052 456.250208 
L 511.641276 455.203406 
" clip-path="url(#p1f293b9dba)" style="fill: #d3d3d3"/>
   </g>
   <g id="matplotlib.axis_1">
    <g id="xtick_1">
     <g id="line2d_1">
      <defs>
       <path id="m81750eb94b" d="M 0 0 
L 0 3.5 
" style="stroke: #000000; stroke-width: 0.8"/>
      </defs>
      <g>
       <use xlink:href="#m81750eb94b" x="105.967349" y="507.044103" style="stroke: #000000; stroke-width: 0.8"/>
      </g>
     </g>
     <g id="text_1">
      <!-- 13.30 -->
      <g transform="translate(91.653287 521.64254) scale(0.1 -0.1)">
       <defs>
        <path id="DejaVuSans-31" d="M 794 531 
L 1825 531 
L 1825 4091 
L 703 3866 
L 703 4441 
L 1819 4666 
L 2450 4666 
L 2450 531 
L 3481 531 
L 3481 0 
L 794 0 
L 794 531 
z
" transform="scale(0.015625)"/>
        <path id="DejaVuSans-33" d="M 2597 2516 
Q 3050 2419 3304 2112 
Q 3559 1806 3559 1356 
Q 3559 666 3084 287 
Q 2609 -91 1734 -91 
Q 1441 -91 1130 -33 
Q 819 25 488 141 
L 488 750 
Q 750 597 1062 519 
Q 1375 441 1716 441 
Q 2309 441 2620 675 
Q 2931 909 2931 1356 
Q 2931 1769 2642 2001 
Q 2353 2234 1838 2234 
L 1294 2234 
L 1294 2753 
L 1863 2753 
Q 2328 2753 2575 2939 
Q 2822 3125 2822 3475 
Q 2822 3834 2567 4026 
Q 2313 4219 1838 4219 
Q 1578 4219 1281 4162 
Q 984 4106 628 3988 
L 628 4550 
Q 988 4650 1302 4700 
Q 1616 4750 1894 4750 
Q 2613 4750 3031 4423 
Q 3450 4097 3450 3541 
Q 3450 3153 3228 2886 
Q 3006 2619 2597 2516 
z
" transform="scale(0.015625)"/>
        <path id="DejaVuSans-2e" d="M 684 794 
L 1344 794 
L 1344 0 
L 684 0 
L 684 794 
z
" transform="scale(0.015625)"/>
        <path id="DejaVuSans-30" d="M 2034 4250 
Q 1547 4250 1301 3770 
Q 1056 3291 1056 2328 
Q 1056 1369 1301 889 
Q 1547 409 2034 409 
Q 2525 409 2770 889 
Q 3016 1369 3016 2328 
Q 3016 3291 2770 3770 
Q 2525 4250 2034 4250 
z
M 2034 4750 
Q 2819 4750 3233 4129 
Q 3647 3509 3647 2328 
Q 3647 1150 3233 529 
Q 2819 -91 2034 -91 
Q 1250 -91 836 529 
Q 422 1150 422 2328 
Q 422 3509 836 4129 
Q 1250 4750 2034 4750 
z
" transform="scale(0.015625)"/>
       </defs>
       <use xlink:href="#DejaVuSans-31"/>
       <use xlink:href="#DejaVuSans-33" x="63.623047"/>
       <use xlink:href="#DejaVuSans-2e" x="127.246094"/>
       <use xlink:href="#DejaVuSans-33" x="159.033203"/>
       <use xlink:href="#DejaVuSans-30" x="222.65625"/>
      </g>
     </g>
    </g>
    <g id="xtick_2">
     <g id="line2d_2">
      <g>
       <use xlink:href="#m81750eb94b" x="228.75759" y="507.044103" style="stroke: #000000; stroke-width: 0.8"/>
      </g>
     </g>
     <g id="text_2">
      <!-- 13.32 -->
      <g transform="translate(214.443527 521.64254) scale(0.1 -0.1)">
       <defs>
        <path id="DejaVuSans-32" d="M 1228 531 
L 3431 531 
L 3431 0 
L 469 0 
L 469 531 
Q 828 903 1448 1529 
Q 2069 2156 2228 2338 
Q 2531 2678 2651 2914 
Q 2772 3150 2772 3378 
Q 2772 3750 2511 3984 
Q 2250 4219 1831 4219 
Q 1534 4219 1204 4116 
Q 875 4013 500 3803 
L 500 4441 
Q 881 4594 1212 4672 
Q 1544 4750 1819 4750 
Q 2544 4750 2975 4387 
Q 3406 4025 3406 3419 
Q 3406 3131 3298 2873 
Q 3191 2616 2906 2266 
Q 2828 2175 2409 1742 
Q 1991 1309 1228 531 
z
" transform="scale(0.015625)"/>
       </defs>
       <use xlink:href="#DejaVuSans-31"/>
       <use xlink:href="#DejaVuSans-33" x="63.623047"/>
       <use xlink:href="#DejaVuSans-2e" x="127.246094"/>
       <use xlink:href="#DejaVuSans-33" x="159.033203"/>
       <use xlink:href="#DejaVuSans-32" x="222.65625"/>
      </g>
     </g>
    </g>
    <g id="xtick_3">
     <g id="line2d_3">
      <g>
       <use xlink:href="#m81750eb94b" x="351.54783" y="507.044103" style="stroke: #000000; stroke-width: 0.8"/>
      </g>
     </g>
     <g id="text_3">
      <!-- 13.34 -->
      <g transform="translate(337.233767 521.64254) scale(0.1 -0.1)">
       <defs>
        <path id="DejaVuSans-34" d="M 2419 4116 
L 825 1625 
L 2419 1625 
L 2419 4116 
z
M 2253 4666 
L 3047 4666 
L 3047 1625 
L 3713 1625 
L 3713 1100 
L 3047 1100 
L 3047 0 
L 2419 0 
L 2419 1100 
L 313 1100 
L 313 1709 
L 2253 4666 
z
" transform="scale(0.015625)"/>
       </defs>
       <use xlink:href="#DejaVuSans-31"/>
       <use xlink:href="#DejaVuSans-33" x="63.623047"/>
       <use xlink:href="#DejaVuSans-2e" x="127.246094"/>
       <use xlink:href="#DejaVuSans-33" x="159.033203"/>
       <use xlink:href="#DejaVuSans-34" x="222.65625"/>
      </g>
     </g>
    </g>
    <g id="xtick_4">
     <g id="line2d_4">
      <g>
       <use xlink:href="#m81750eb94b" x="474.33807" y="507.044103" style="stroke: #000000; stroke-width: 0.8"/>
      </g>
     </g>
     <g id="text_4">
      <!-- 13.36 -->
      <g transform="translate(460.024008 521.64254) scale(0.1 -0.1)">
       <defs>
        <path id="DejaVuSans-36" d="M 2113 2584 
Q 1688 2584 1439 2293 
Q 1191 2003 1191 1497 
Q 1191 994 1439 701 
Q 1688 409 2113 409 
Q 2538 409 2786 701 
Q 3034 994 3034 1497 
Q 3034 2003 2786 2293 
Q 2538 2584 2113 2584 
z
M 3366 4563 
L 3366 3988 
Q 3128 4100 2886 4159 
Q 2644 4219 2406 4219 
Q 1781 4219 1451 3797 
Q 1122 3375 1075 2522 
Q 1259 2794 1537 2939 
Q 1816 3084 2150 3084 
Q 2853 3084 3261 2657 
Q 3669 2231 3669 1497 
Q 3669 778 3244 343 
Q 2819 -91 2113 -91 
Q 1303 -91 875 529 
Q 447 1150 447 2328 
Q 447 3434 972 4092 
Q 1497 4750 2381 4750 
Q 2619 4750 2861 4703 
Q 3103 4656 3366 4563 
z
" transform="scale(0.015625)"/>
       </defs>
       <use xlink:href="#DejaVuSans-31"/>
       <use xlink:href="#DejaVuSans-33" x="63.623047"/>
       <use xlink:href="#DejaVuSans-2e" x="127.246094"/>
       <use xlink:href="#DejaVuSans-33" x="159.033203"/>
       <use xlink:href="#DejaVuSans-36" x="222.65625"/>
      </g>
     </g>
    </g>
    <g id="xtick_5">
     <g id="line2d_5">
      <g>
       <use xlink:href="#m81750eb94b" x="597.128311" y="507.044103" style="stroke: #000000; stroke-width: 0.8"/>
      </g>
     </g>
     <g id="text_5">
      <!-- 13.38 -->
      <g transform="translate(582.814248 521.64254) scale(0.1 -0.1)">
       <defs>
        <path id="DejaVuSans-38" d="M 2034 2216 
Q 1584 2216 1326 1975 
Q 1069 1734 1069 1313 
Q 1069 891 1326 650 
Q 1584 409 2034 409 
Q 2484 409 2743 651 
Q 3003 894 3003 1313 
Q 3003 1734 2745 1975 
Q 2488 2216 2034 2216 
z
M 1403 2484 
Q 997 2584 770 2862 
Q 544 3141 544 3541 
Q 544 4100 942 4425 
Q 1341 4750 2034 4750 
Q 2731 4750 3128 4425 
Q 3525 4100 3525 3541 
Q 3525 3141 3298 2862 
Q 3072 2584 2669 2484 
Q 3125 2378 3379 2068 
Q 3634 1759 3634 1313 
Q 3634 634 3220 271 
Q 2806 -91 2034 -91 
Q 1263 -91 848 271 
Q 434 634 434 1313 
Q 434 1759 690 2068 
Q 947 2378 1403 2484 
z
M 1172 3481 
Q 1172 3119 1398 2916 
Q 1625 2713 2034 2713 
Q 2441 2713 2670 2916 
Q 2900 3119 2900 3481 
Q 2900 3844 2670 4047 
Q 2441 4250 2034 4250 
Q 1625 4250 1398 4047 
Q 1172 3844 1172 3481 
z
" transform="scale(0.015625)"/>
       </defs>
       <use xlink:href="#DejaVuSans-31"/>
       <use xlink:href="#DejaVuSans-33" x="63.623047"/>
       <use xlink:href="#DejaVuSans-2e" x="127.246094"/>
       <use xlink:href="#DejaVuSans-33" x="159.033203"/>
       <use xlink:href="#DejaVuSans-38" x="222.65625"/>
      </g>
     </g>
    </g>
   </g>
   <g id="matplotlib.axis_2">
    <g id="ytick_1">
     <g id="line2d_6">
      <defs>
       <path id="md4da783c7e" d="M 0 0 
L -3.5 0 
" style="stroke: #000000; stroke-width: 0.8"/>
      </defs>
      <g>
       <use xlink:href="#md4da783c7e" x="90" y="480.167793" style="stroke: #000000; stroke-width: 0.8"/>
      </g>
     </g>
     <g id="text_6">
      <!-- 52.540 -->
      <g transform="translate(48.009375 483.967012) scale(0.1 -0.1)">
       <defs>
        <path id="DejaVuSans-35" d="M 691 4666 
L 3169 4666 
L 3169 4134 
L 1269 4134 
L 1269 2991 
Q 1406 3038 1543 3061 
Q 1681 3084 1819 3084 
Q 2600 3084 3056 2656 
Q 3513 2228 3513 1497 
Q 3513 744 3044 326 
Q 2575 -91 1722 -91 
Q 1428 -91 1123 -41 
Q 819 9 494 109 
L 494 744 
Q 775 591 1075 516 
Q 1375 441 1709 441 
Q 2250 441 2565 725 
Q 2881 1009 2881 1497 
Q 2881 1984 2565 2268 
Q 2250 2553 1709 2553 
Q 1456 2553 1204 2497 
Q 953 2441 691 2322 
L 691 4666 
z
" transform="scale(0.015625)"/>
       </defs>
       <use xlink:href="#DejaVuSans-35"/>
       <use xlink:href="#DejaVuSans-32" x="63.623047"/>
       <use xlink:href="#DejaVuSans-2e" x="127.246094"/>
       <use xlink:href="#DejaVuSans-35" x="159.033203"/>
       <use xlink:href="#DejaVuSans-34" x="222.65625"/>
       <use xlink:href="#DejaVuSans-30" x="286.279297"/>
      </g>
     </g>
    </g>
    <g id="ytick_2">
     <g id="line2d_7">
      <g>
       <use xlink:href="#md4da783c7e" x="90" y="429.67552" style="stroke: #000000; stroke-width: 0.8"/>
      </g>
     </g>
     <g id="text_7">
      <!-- 52.545 -->
      <g transform="translate(48.009375 433.474738) scale(0.1 -0.1)">
       <use xlink:href="#DejaVuSans-35"/>
       <use xlink:href="#DejaVuSans-32" x="63.623047"/>
       <use xlink:href="#DejaVuSans-2e" x="127.246094"/>
       <use xlink:href="#DejaVuSans-35" x="159.033203"/>
       <use xlink:href="#DejaVuSans-34" x="222.65625"/>
       <use xlink:href="#DejaVuSans-35" x="286.279297"/>
      </g>
     </g>
    </g>
    <g id="ytick_3">
     <g id="line2d_8">
      <g>
       <use xlink:href="#md4da783c7e" x="90" y="379.183246" style="stroke: #000000; stroke-width: 0.8"/>
      </g>
     </g>
     <g id="text_8">
      <!-- 52.550 -->
      <g transform="translate(48.009375 382.982465) scale(0.1 -0.1)">
       <use xlink:href="#DejaVuSans-35"/>
       <use xlink:href="#DejaVuSans-32" x="63.623047"/>
       <use xlink:href="#DejaVuSans-2e" x="127.246094"/>
       <use xlink:href="#DejaVuSans-35" x="159.033203"/>
       <use xlink:href="#DejaVuSans-35" x="222.65625"/>
       <use xlink:href="#DejaVuSans-30" x="286.279297"/>
      </g>
     </g>
    </g>
    <g id="ytick_4">
     <g id="line2d_9">
      <g>
       <use xlink:href="#md4da783c7e" x="90" y="328.690972" style="stroke: #000000; stroke-width: 0.8"/>
      </g>
     </g>
     <g id="text_9">
      <!-- 52.555 -->
      <g transform="translate(48.009375 332.490191) scale(0.1 -0.1)">
       <use xlink:href="#DejaVuSans-35"/>
       <use xlink:href="#DejaVuSans-32" x="63.623047"/>
       <use xlink:href="#DejaVuSans-2e" x="127.246094"/>
       <use xlink:href="#DejaVuSans-35" x="159.033203"/>
       <use xlink:href="#DejaVuSans-35" x="222.65625"/>
       <use xlink:href="#DejaVuSans-35" x="286.279297"/>
      </g>
     </g>
    </g>
    <g id="ytick_5">
     <g id="line2d_10">
      <g>
       <use xlink:href="#md4da783c7e" x="90" y="278.198699" style="stroke: #000000; stroke-width: 0.8"/>
      </g>
     </g>
     <g id="text_10">
      <!-- 52.560 -->
      <g transform="translate(48.009375 281.997917) scale(0.1 -0.1)">
       <use xlink:href="#DejaVuSans-35"/>
       <use xlink:href="#DejaVuSans-32" x="63.623047"/>
       <use xlink:href="#DejaVuSans-2e" x="127.246094"/>
       <use xlink:href="#DejaVuSans-35" x="159.033203"/>
       <use xlink:href="#DejaVuSans-36" x="222.65625"/>
       <use xlink:href="#DejaVuSans-30" x="286.279297"/>
      </g>
     </g>
    </g>
    <g id="ytick_6">
     <g id="line2d_11">
      <g>
       <use xlink:href="#md4da783c7e" x="90" y="227.706425" style="stroke: #000000; stroke-width: 0.8"/>
      </g>
     </g>
     <g id="text_11">
      <!-- 52.565 -->
      <g transform="translate(48.009375 231.505644) scale(0.1 -0.1)">
       <use xlink:href="#DejaVuSans-35"/>
       <use xlink:href="#DejaVuSans-32" x="63.623047"/>
       <use xlink:href="#DejaVuSans-2e" x="127.246094"/>
       <use xlink:href="#DejaVuSans-35" x="159.033203"/>
       <use xlink:href="#DejaVuSans-36" x="222.65625"/>
       <use xlink:href="#DejaVuSans-35" x="286.279297"/>
      </g>
     </g>
    </g>
   </g>
   <g id="LineCollection_1">
    <path d="M 509.022016 307.221658 
L 508.955709 306.661193 
L 508.909662 306.274422 
L 508.862388 305.873514 
" clip-path="url(#p1f293b9dba)" style="fill: none; stroke: #ff0000; stroke-opacity: 0.7; stroke-width: 0.5"/>
    <path d="M 509.373196 310.198682 
L 509.217252 308.875784 
L 509.181029 308.569801 
L 509.022016 307.221658 
" clip-path="url(#p1f293b9dba)" style="fill: none; stroke: #ff0000; stroke-opacity: 0.7; stroke-width: 0.5"/>
    <path d="M 514.463465 297.495836 
L 514.555558 298.427923 
L 514.594237 298.817723 
L 515.009882 301.992678 
L 515.015407 302.034081 
L 515.0283 302.136076 
L 515.362904 304.744507 
" clip-path="url(#p1f293b9dba)" style="fill: none; stroke: #ff0000; stroke-opacity: 0.7; stroke-width: 0.5"/>
    <path d="M 506.639885 298.169403 
L 506.763289 299.190356 
L 506.846786 299.879071 
L 507.115083 301.744256 
" clip-path="url(#p1f293b9dba)" style="fill: none; stroke: #ff0000; stroke-opacity: 0.7; stroke-width: 0.5"/>
    <path d="M 507.674393 306.035089 
L 507.715527 306.409742 
L 507.759118 306.799542 
L 507.818671 307.343849 
" clip-path="url(#p1f293b9dba)" style="fill: none; stroke: #ff0000; stroke-opacity: 0.7; stroke-width: 0.5"/>
    <path d="M 507.115083 301.744256 
L 507.289445 302.9591 
L 507.674393 306.035089 
" clip-path="url(#p1f293b9dba)" style="fill: none; stroke: #ff0000; stroke-opacity: 0.7; stroke-width: 0.5"/>
    <path d="M 508.862388 305.873514 
L 508.070391 299.054027 
L 507.984438 298.152235 
" clip-path="url(#p1f293b9dba)" style="fill: none; stroke: #ff0000; stroke-opacity: 0.7; stroke-width: 0.5"/>
    <path d="M 515.362904 304.744507 
L 515.432894 305.328197 
L 515.454382 305.50694 
L 515.501657 305.89573 
L 515.572875 306.48952 
" clip-path="url(#p1f293b9dba)" style="fill: none; stroke: #ff0000; stroke-opacity: 0.7; stroke-width: 0.5"/>
   </g>
   <g id="patch_3">
    <path d="M 90 507.044103 
L 90 220.155897 
" style="fill: none; stroke: #000000; stroke-width: 0.8; stroke-linejoin: miter; stroke-linecap: square"/>
   </g>
   <g id="patch_4">
    <path d="M 648 507.044103 
L 648 220.155897 
" style="fill: none; stroke: #000000; stroke-width: 0.8; stroke-linejoin: miter; stroke-linecap: square"/>
   </g>
   <g id="patch_5">
    <path d="M 90 507.044103 
L 648 507.044103 
" style="fill: none; stroke: #000000; stroke-width: 0.8; stroke-linejoin: miter; stroke-linecap: square"/>
   </g>
   <g id="patch_6">
    <path d="M 90 220.155897 
L 648 220.155897 
" style="fill: none; stroke: #000000; stroke-width: 0.8; stroke-linejoin: miter; stroke-linecap: square"/>
   </g>
   <g id="text_12">
    <!-- Wedding -->
    <g transform="translate(345.039996 366.136059) scale(0.12 -0.12)">
     <defs>
      <path id="DejaVuSans-57" d="M 213 4666 
L 850 4666 
L 1831 722 
L 2809 4666 
L 3519 4666 
L 4500 722 
L 5478 4666 
L 6119 4666 
L 4947 0 
L 4153 0 
L 3169 4050 
L 2175 0 
L 1381 0 
L 213 4666 
z
" transform="scale(0.015625)"/>
      <path id="DejaVuSans-65" d="M 3597 1894 
L 3597 1613 
L 953 1613 
Q 991 1019 1311 708 
Q 1631 397 2203 397 
Q 2534 397 2845 478 
Q 3156 559 3463 722 
L 3463 178 
Q 3153 47 2828 -22 
Q 2503 -91 2169 -91 
Q 1331 -91 842 396 
Q 353 884 353 1716 
Q 353 2575 817 3079 
Q 1281 3584 2069 3584 
Q 2775 3584 3186 3129 
Q 3597 2675 3597 1894 
z
M 3022 2063 
Q 3016 2534 2758 2815 
Q 2500 3097 2075 3097 
Q 1594 3097 1305 2825 
Q 1016 2553 972 2059 
L 3022 2063 
z
" transform="scale(0.015625)"/>
      <path id="DejaVuSans-64" d="M 2906 2969 
L 2906 4863 
L 3481 4863 
L 3481 0 
L 2906 0 
L 2906 525 
Q 2725 213 2448 61 
Q 2172 -91 1784 -91 
Q 1150 -91 751 415 
Q 353 922 353 1747 
Q 353 2572 751 3078 
Q 1150 3584 1784 3584 
Q 2172 3584 2448 3432 
Q 2725 3281 2906 2969 
z
M 947 1747 
Q 947 1113 1208 752 
Q 1469 391 1925 391 
Q 2381 391 2643 752 
Q 2906 1113 2906 1747 
Q 2906 2381 2643 2742 
Q 2381 3103 1925 3103 
Q 1469 3103 1208 2742 
Q 947 2381 947 1747 
z
" transform="scale(0.015625)"/>
      <path id="DejaVuSans-69" d="M 603 3500 
L 1178 3500 
L 1178 0 
L 603 0 
L 603 3500 
z
M 603 4863 
L 1178 4863 
L 1178 4134 
L 603 4134 
L 603 4863 
z
" transform="scale(0.015625)"/>
      <path id="DejaVuSans-6e" d="M 3513 2113 
L 3513 0 
L 2938 0 
L 2938 2094 
Q 2938 2591 2744 2837 
Q 2550 3084 2163 3084 
Q 1697 3084 1428 2787 
Q 1159 2491 1159 1978 
L 1159 0 
L 581 0 
L 581 3500 
L 1159 3500 
L 1159 2956 
Q 1366 3272 1645 3428 
Q 1925 3584 2291 3584 
Q 2894 3584 3203 3211 
Q 3513 2838 3513 2113 
z
" transform="scale(0.015625)"/>
      <path id="DejaVuSans-67" d="M 2906 1791 
Q 2906 2416 2648 2759 
Q 2391 3103 1925 3103 
Q 1463 3103 1205 2759 
Q 947 2416 947 1791 
Q 947 1169 1205 825 
Q 1463 481 1925 481 
Q 2391 481 2648 825 
Q 2906 1169 2906 1791 
z
M 3481 434 
Q 3481 -459 3084 -895 
Q 2688 -1331 1869 -1331 
Q 1566 -1331 1297 -1286 
Q 1028 -1241 775 -1147 
L 775 -588 
Q 1028 -725 1275 -790 
Q 1522 -856 1778 -856 
Q 2344 -856 2625 -561 
Q 2906 -266 2906 331 
L 2906 616 
Q 2728 306 2450 153 
Q 2172 0 1784 0 
Q 1141 0 747 490 
Q 353 981 353 1791 
Q 353 2603 747 3093 
Q 1141 3584 1784 3584 
Q 2172 3584 2450 3431 
Q 2728 3278 2906 2969 
L 2906 3500 
L 3481 3500 
L 3481 434 
z
" transform="scale(0.015625)"/>
     </defs>
     <use xlink:href="#DejaVuSans-57"/>
     <use xlink:href="#DejaVuSans-65" x="93.001953"/>
     <use xlink:href="#DejaVuSans-64" x="154.525391"/>
     <use xlink:href="#DejaVuSans-64" x="218.001953"/>
     <use xlink:href="#DejaVuSans-69" x="281.478516"/>
     <use xlink:href="#DejaVuSans-6e" x="309.261719"/>
     <use xlink:href="#DejaVuSans-67" x="372.640625"/>
    </g>
   </g>
  </g>
 </g>
 <defs>
  <clipPath id="p1f293b9dba">
   <rect x="90" y="220.155897" width="558" height="286.888205"/>
  </clipPath>
 </defs>
</svg>
