<?xml version="1.0" encoding="utf-8" standalone="no"?>
<!DOCTYPE svg PUBLIC "-//W3C//DTD SVG 1.1//EN"
  "http://www.w3.org/Graphics/SVG/1.1/DTD/svg11.dtd">
<svg xmlns:xlink="http://www.w3.org/1999/xlink" width="460.8pt" height="345.6pt" viewBox="0 0 460.8 345.6" xmlns="http://www.w3.org/2000/svg" version="1.1">
 <metadata>
  <rdf:RDF xmlns:dc="http://purl.org/dc/elements/1.1/" xmlns:cc="http://creativecommons.org/ns#" xmlns:rdf="http://www.w3.org/1999/02/22-rdf-syntax-ns#">
   <cc:Work>
    <dc:type rdf:resource="http://purl.org/dc/dcmitype/StillImage"/>
    <dc:date>2024-10-17T11:33:14.821295</dc:date>
    <dc:format>image/svg+xml</dc:format>
    <dc:creator>
     <cc:Agent>
      <dc:title>Matplotlib v3.9.2, https://matplotlib.org/</dc:title>
     </cc:Agent>
    </dc:creator>
   </cc:Work>
  </rdf:RDF>
 </metadata>
 <defs>
  <style type="text/css">*{stroke-linejoin: round; stroke-linecap: butt}</style>
 </defs>
 <g id="figure_1">
  <g id="patch_1">
   <path d="M 0 345.6 
L 460.8 345.6 
L 460.8 0 
L 0 0 
z
" style="fill: #ffffff"/>
  </g>
  <g id="axes_1">
   <g id="patch_2">
    <path d="M 69.668247 307.584 
L 402.651753 307.584 
L 402.651753 41.472 
L 69.668247 41.472 
z
" style="fill: #ffffff"/>
   </g>
   <g id="PatchCollection_1">
    <path d="M 199.362411 281.569709 
L 199.412808 281.576574 
L 199.588045 281.591796 
L 199.919678 281.620725 
L 200.102301 281.636651 
L 200.181046 281.644191 
L 200.374228 281.662395 
L 200.475807 281.671942 
L 200.851246 281.706676 
L 201.117259 281.731298 
L 201.27044 281.745132 
L 201.419504 281.758604 
L 205.573439 282.137945 
L 212.382245 282.75324 
L 219.202752 283.420874 
L 226.506831 284.171471 
L 226.629275 284.184025 
L 228.417501 284.367847 
L 228.690793 284.39593 
L 229.242767 284.459265 
L 230.869186 284.646505 
L 235.119852 284.90369 
L 237.021208 285.12421 
L 241.439927 285.597821 
L 248.780221 286.397342 
L 253.591473 286.892985 
L 254.930947 287.030982 
L 255.150006 287.061493 
L 257.279904 287.35796 
L 257.981702 287.508048 
L 259.323458 287.794251 
L 260.172195 287.823313 
L 260.449122 287.832955 
L 260.975682 287.851358 
L 262.042599 287.933351 
L 263.750461 288.064507 
L 263.798563 288.067914 
L 263.80039 288.068044 
L 263.942258 288.0786 
L 263.963428 288.080188 
L 263.978725 288.082265 
L 264.370339 288.136412 
L 264.503936 288.154866 
L 264.578453 288.159522 
L 265.253905 288.188315 
L 267.82107 288.337918 
L 268.486978 288.357703 
L 270.925677 288.430271 
L 275.575529 288.878555 
L 276.01593 288.921258 
L 276.987409 289.015845 
L 277.520964 289.063464 
L 280.420436 289.374108 
L 280.443158 289.376542 
L 280.54693 289.387773 
L 282.81643 290.163107 
L 296.305591 294.772037 
L 298.400726 295.488 
L 301.591468 293.897311 
L 308.485702 290.460444 
L 315.948411 290.017248 
L 319.612676 289.799724 
L 323.4302 288.277197 
L 337.00925 282.862275 
L 348.083867 276.673647 
L 350.214235 275.483281 
L 350.120073 274.917151 
L 349.3724 270.422592 
L 349.121395 268.913789 
L 348.729995 268.091461 
L 347.866602 266.277601 
L 347.446828 265.395753 
L 347.819087 264.500653 
L 348.729019 262.312563 
L 349.074986 261.480683 
L 349.540544 260.610745 
L 352.023801 255.970637 
L 352.425138 255.220721 
L 352.620436 254.400536 
L 353.193362 251.994162 
L 353.536274 250.553969 
L 353.635307 250.138024 
L 353.912951 248.971755 
L 354.459909 248.098065 
L 355.9721 245.682844 
L 356.335799 245.101897 
L 356.350499 245.078044 
L 356.773601 245.264486 
L 357.478174 245.512193 
L 357.675321 245.563278 
L 357.995925 245.597068 
L 358.002743 245.598725 
L 358.262786 245.66014 
L 358.364478 245.684204 
L 358.658858 245.75373 
L 358.706828 245.765068 
L 359.014969 245.837863 
L 359.05077 245.728538 
L 359.651879 245.950959 
L 359.705769 245.975658 
L 360.286503 246.25805 
L 361.35503 246.276551 
L 362.023956 246.291807 
L 362.435295 246.266098 
L 362.739982 246.238491 
L 362.954095 246.144705 
L 363.190792 246.004955 
L 363.828781 245.423547 
L 363.987782 245.167902 
L 364.065885 244.975682 
L 364.121272 244.994058 
L 364.977026 245.27733 
L 364.993723 245.282862 
L 365.504482 245.451857 
L 365.533434 245.461418 
L 365.725036 245.524753 
L 365.81061 245.553042 
L 366.071431 245.639211 
L 366.204104 245.683067 
L 366.747136 245.862393 
L 366.815116 245.884833 
L 367.044804 245.960647 
L 367.097847 245.798058 
L 367.294527 245.194513 
L 367.361132 244.992768 
L 367.099648 244.905467 
L 367.098366 244.904989 
L 367.037556 244.884792 
L 366.957615 244.858232 
L 366.939938 244.852426 
L 366.68282 244.767014 
L 366.600617 244.739745 
L 366.400722 244.673345 
L 365.386158 244.335859 
L 365.31386 244.311785 
L 365.667226 243.657632 
L 366.283087 242.155733 
L 366.446526 241.770647 
L 366.455292 241.75 
L 366.528986 241.576366 
L 366.579186 241.458191 
L 366.853511 240.811988 
L 367.132884 240.15398 
L 367.145215 240.125005 
L 367.151869 240.109719 
L 367.423832 239.601191 
L 367.862328 238.781322 
L 367.866538 238.773403 
L 367.825189 238.754082 
L 368.381195 237.03591 
L 368.761245 235.861773 
L 368.821836 235.665019 
L 368.981643 235.319526 
L 369.490577 234.21929 
L 369.510493 234.176235 
L 369.599728 233.983316 
L 369.883009 233.593226 
L 370.429086 232.822176 
L 371.383602 231.927011 
L 371.531069 231.788716 
L 372.368856 230.671505 
L 373.668595 228.571909 
L 374.206886 227.636646 
L 374.41491 227.363359 
L 374.648443 227.112801 
L 374.786704 226.941013 
L 374.954463 226.695906 
L 375.104462 226.372833 
L 375.34823 225.92023 
L 375.473979 225.940436 
L 376.101832 226.041447 
L 376.37302 226.085069 
L 376.386671 226.087279 
L 376.443213 225.994094 
L 377.077414 224.94837 
L 378.183908 223.124099 
L 378.267558 223.115192 
L 378.671439 223.071988 
L 378.818207 223.056338 
L 378.947633 224.31958 
L 379.010991 224.937452 
L 379.027159 225.095352 
L 379.770902 225.049862 
L 381.5805 224.939163 
L 382.464619 224.885116 
L 381.943159 223.999682 
L 380.625771 221.732118 
L 380.462593 221.343992 
L 380.020201 220.269171 
L 379.609076 217.176198 
L 379.273711 214.656363 
L 379.007178 211.928361 
L 378.754474 209.389154 
L 378.503564 205.996731 
L 378.275875 203.460687 
L 378.179768 200.510071 
L 378.129771 199.471506 
L 378.0483 197.778774 
L 377.99804 196.734736 
L 377.829269 196.73666 
L 377.827371 196.525272 
L 377.996893 196.52282 
L 377.976406 195.588648 
L 377.925517 193.27088 
L 377.867589 190.687824 
L 377.982578 188.043789 
L 378.481075 185.450115 
L 378.918998 184.034167 
L 378.678486 183.960136 
L 378.86552 183.351788 
L 379.105686 183.423789 
L 379.436734 182.361149 
L 380.385955 180.190927 
L 380.873981 179.136769 
L 381.407039 177.785924 
L 382.036903 176.18995 
L 382.772369 174.232593 
L 382.860447 173.973875 
L 383.097734 173.276963 
L 383.234203 172.985747 
L 383.276973 172.833186 
L 383.380904 172.46271 
L 383.418144 172.329952 
L 383.458898 172.217749 
L 384.730856 168.739539 
L 384.963855 168.100415 
L 384.552817 167.991301 
L 385.096277 166.677162 
L 385.472291 165.767899 
L 385.545932 165.590409 
L 385.691056 165.238965 
L 385.917683 164.990291 
L 386.082797 164.809141 
L 386.306692 164.563041 
L 387.278092 161.400969 
L 387.352741 160.738362 
L 387.51614 159.292005 
L 387.369124 157.169441 
L 386.986415 155.456664 
L 386.563101 154.355748 
L 386.742863 154.316864 
L 386.922914 154.279416 
L 387.103255 154.243406 
L 387.006811 153.958664 
L 386.923032 153.711667 
L 386.864876 153.562533 
L 386.817529 153.441123 
L 386.630943 152.962633 
L 386.583117 152.857927 
L 386.390136 152.890045 
L 386.220264 152.926222 
L 386.050633 152.963583 
L 385.881285 153.002084 
L 385.639383 153.059068 
L 385.398048 153.11846 
L 385.15728 153.180174 
L 384.917205 153.24425 
L 384.677739 153.31069 
L 384.438925 153.379492 
L 384.200636 153.450703 
L 383.963039 153.52419 
L 383.726134 153.599997 
L 383.490047 153.677992 
L 383.254736 153.758305 
L 383.020245 153.840891 
L 382.740763 153.942768 
L 382.462461 154.047844 
L 382.185426 154.156159 
L 381.909613 154.267673 
L 381.635108 154.38234 
L 381.361995 154.500244 
L 381.090231 154.621258 
L 380.819858 154.745423 
L 380.550917 154.872654 
L 380.28345 155.00295 
L 380.01797 155.136509 
L 379.753962 155.273048 
L 379.491554 155.412606 
L 379.230745 155.555141 
L 378.971577 155.700651 
L 378.71423 155.849514 
L 378.458606 156.001265 
L 378.204664 156.155864 
L 377.952487 156.31335 
L 377.702118 156.473679 
L 377.222793 156.794914 
L 376.744743 157.117987 
L 376.26797 157.442941 
L 375.792431 157.769735 
L 375.291966 158.116684 
L 374.792951 158.46568 
L 374.295346 158.816766 
L 374.079598 158.963246 
L 373.861431 159.106134 
L 373.640928 159.245342 
L 373.418174 159.380868 
L 373.193167 159.512628 
L 372.966034 159.64066 
L 372.736649 159.76501 
L 372.505263 159.885461 
L 372.271876 160.002096 
L 372.036612 160.114785 
L 371.799514 160.223528 
L 371.560624 160.328322 
L 371.320027 160.429167 
L 371.077805 160.525974 
L 370.834001 160.618744 
L 370.588699 160.707431 
L 370.341981 160.791991 
L 370.093848 160.872424 
L 369.907389 160.929752 
L 369.720196 160.984806 
L 369.532351 161.037497 
L 369.343899 161.087868 
L 369.266808 161.107744 
L 368.512679 161.198294 
L 368.392721 161.222121 
L 367.24623 161.484054 
L 367.176263 161.492116 
L 367.106288 161.499882 
L 367.036264 161.507351 
L 366.841621 161.526574 
L 366.646706 161.543383 
L 366.451646 161.557732 
L 366.256399 161.569623 
L 366.237443 161.570688 
L 366.08399 161.578144 
L 365.936004 161.583894 
L 365.787941 161.588244 
L 365.639886 161.591193 
L 365.538522 161.592389 
L 365.524497 161.590656 
L 365.375268 161.563222 
L 363.620563 161.240271 
L 362.350911 161.004732 
L 362.175785 160.966687 
L 360.611142 160.617852 
L 360.454687 160.582658 
L 359.825869 160.442386 
L 359.071071 160.22794 
L 358.397426 160.036372 
L 358.259028 159.992917 
L 357.449564 159.73889 
L 357.248821 159.675917 
L 356.527873 159.418633 
L 355.936907 159.197364 
L 355.287029 158.95404 
L 355.286051 158.953585 
L 355.260839 158.941864 
L 354.439095 158.559925 
L 353.995801 158.350713 
L 353.748773 158.227221 
L 352.386412 157.54582 
L 351.955495 157.323265 
L 351.862185 157.274998 
L 351.643637 157.162142 
L 350.942737 156.782479 
L 350.907863 156.763554 
L 350.372519 156.466593 
L 350.180757 156.35579 
L 349.931434 156.211718 
L 349.835058 156.156011 
L 348.351819 155.245013 
L 347.892561 154.956318 
L 347.803506 154.900259 
L 347.775658 154.882773 
L 347.121094 154.453338 
L 346.589327 154.104481 
L 346.335504 153.937971 
L 346.16679 153.827278 
L 345.934716 153.675008 
L 345.588799 153.439393 
L 345.498203 153.377682 
L 345.340328 153.270118 
L 345.177669 153.159275 
L 345.101338 153.107233 
L 344.742095 152.862309 
L 344.428707 152.648482 
L 343.903616 152.290715 
L 343.745958 152.183102 
L 343.41342 151.956121 
L 343.252701 151.846718 
L 342.840156 151.525143 
L 342.634951 151.362991 
L 342.338315 151.126026 
L 342.190572 151.006829 
L 342.023089 150.870752 
L 341.820629 150.70488 
L 341.618909 150.538097 
L 341.417929 150.370405 
L 341.018239 150.032628 
L 340.819527 149.862416 
L 340.768956 149.818908 
L 340.718468 149.775313 
L 340.668021 149.731675 
L 339.914355 149.078703 
L 337.859024 147.29801 
L 337.727028 147.183521 
L 337.594908 147.069119 
L 337.462747 146.954803 
L 337.330337 146.840706 
L 337.197845 146.726739 
L 337.065229 146.61286 
L 335.840063 145.567544 
L 335.062198 144.91182 
L 334.281641 144.258842 
L 333.498166 143.60972 
L 332.712558 142.963628 
L 331.700675 142.140547 
L 330.684854 141.323006 
L 329.664469 140.511446 
L 328.703803 139.755272 
L 328.639923 139.705006 
L 327.936613 139.229065 
L 327.200175 138.670153 
L 327.158149 138.638201 
L 327.06909 138.570598 
L 326.762106 138.343974 
L 326.594647 138.220352 
L 326.993172 137.69868 
L 326.906708 137.559912 
L 327.377204 136.910236 
L 327.94594 136.124914 
L 328.718726 135.057847 
L 329.481765 134.004125 
L 329.964058 133.338003 
L 330.115678 133.128594 
L 330.414879 133.141428 
L 330.526794 133.027056 
L 331.010081 132.528243 
L 331.475764 132.062746 
L 331.750564 131.792678 
L 332.010231 131.547387 
L 331.616858 131.345452 
L 330.173461 130.603332 
L 329.407883 130.210218 
L 329.117572 130.057339 
L 328.967921 129.978252 
L 328.432799 129.707888 
L 328.051055 129.511508 
L 327.931837 129.420745 
L 327.884023 129.51398 
L 327.595836 129.376766 
L 327.395594 129.267343 
L 327.372907 129.317859 
L 326.619537 128.926506 
L 325.80067 128.515598 
L 325.753123 128.491769 
L 325.640937 128.46399 
L 325.423875 128.358175 
L 324.825704 128.071514 
L 324.655745 127.990066 
L 324.092064 127.730943 
L 323.818825 127.60981 
L 322.734847 127.129262 
L 321.725643 126.681869 
L 321.493046 126.593988 
L 321.431741 126.570801 
L 320.756777 126.315721 
L 320.015706 126.035661 
L 319.849512 125.976575 
L 319.858417 125.947894 
L 319.646762 125.88077 
L 318.372428 125.476527 
L 317.16062 125.091965 
L 315.968726 124.714216 
L 315.976922 124.691075 
L 315.490601 124.536878 
L 315.434597 124.520653 
L 314.721512 124.344485 
L 312.441568 123.7945 
L 312.180374 123.73954 
L 311.787446 123.625912 
L 311.780717 123.641583 
L 311.726023 123.626941 
L 311.358598 123.528304 
L 311.303389 123.51342 
L 311.304909 123.496222 
L 308.897383 122.862869 
L 308.888928 122.882364 
L 308.835601 122.868197 
L 308.655772 122.819995 
L 308.37674 122.745217 
L 308.157199 122.686382 
L 307.980145 122.639045 
L 307.926636 122.624374 
L 307.928601 122.604617 
L 307.304633 122.440638 
L 306.320413 122.182059 
L 305.956523 122.087718 
L 305.591669 121.997182 
L 305.225892 121.910451 
L 304.859192 121.827523 
L 304.491698 121.748438 
L 304.123412 121.673239 
L 303.754329 121.601841 
L 303.384539 121.534326 
L 302.58782 121.402304 
L 301.958626 121.305964 
L 301.936813 121.250488 
L 301.727134 121.13058 
L 301.294323 121.022305 
L 301.227344 121.014727 
L 300.758877 120.961841 
L 300.706278 120.981935 
L 300.655835 121.006902 
L 300.621992 121.027841 
L 300.563048 121.070564 
L 300.521578 121.108642 
L 300.483805 121.150493 
L 300.450184 121.195722 
L 300.42096 121.243899 
L 300.396377 121.294635 
L 300.232444 121.253516 
L 299.24228 121.000174 
L 298.246827 120.754063 
L 297.089796 120.46797 
L 296.038817 120.208143 
L 294.78656 119.900245 
L 293.632602 119.603518 
L 292.370981 119.279093 
L 288.867582 118.459843 
L 288.818827 118.470924 
L 288.815692 118.467605 
L 288.722907 118.487269 
L 288.519004 118.43935 
L 287.495004 118.211847 
L 287.365078 118.19027 
L 285.644752 117.824849 
L 285.646454 117.820049 
L 285.588758 117.804172 
L 285.392095 117.541283 
L 285.273983 117.51427 
L 283.126279 116.935581 
L 280.674808 116.275204 
L 278.708202 115.72657 
L 273.859594 114.429001 
L 273.8572 114.455183 
L 273.07316 114.242678 
L 272.326367 114.04011 
L 271.574116 113.836281 
L 270.862422 113.6443 
L 270.755217 113.614641 
L 269.475438 113.25195 
L 265.571186 112.145177 
L 264.076413 111.741317 
L 262.54425 111.327199 
L 260.503617 110.776193 
L 259.874387 110.606501 
L 259.201867 110.424315 
L 257.694037 110.016286 
L 256.942326 109.813218 
L 256.490984 109.687963 
L 256.410916 109.665714 
L 256.277968 109.628838 
L 256.145701 109.592091 
L 256.030209 109.560059 
L 255.914673 109.527986 
L 255.799138 109.495913 
L 255.684029 109.463956 
L 255.568494 109.431926 
L 255.440923 109.396505 
L 255.399275 109.712829 
L 255.271715 109.669692 
L 255.061944 109.616603 
L 254.529789 109.4632 
L 254.312584 109.402739 
L 254.246543 109.254436 
L 254.169493 109.165323 
L 253.844312 108.918844 
L 253.501557 108.669582 
L 253.135711 108.455946 
L 252.758403 108.265113 
L 252.37678 108.081313 
L 252.228895 107.998413 
L 252.216211 107.986205 
L 252.184353 107.971594 
L 252.166809 107.97 
L 252.149364 107.97231 
L 252.133617 107.978104 
L 252.119476 107.987084 
L 252.107524 107.998855 
L 252.0983 108.012893 
L 252.092296 108.02859 
L 252.068665 108.109932 
L 252.032078 108.275786 
L 251.848738 108.259152 
L 250.61946 107.979137 
L 250.596488 107.973904 
L 248.938817 107.480838 
L 247.87694 107.28966 
L 247.178919 107.098772 
L 246.310767 106.86735 
L 245.469723 106.63363 
L 244.584607 106.398525 
L 244.050006 106.256297 
L 243.754587 106.165169 
L 243.295062 106.032245 
L 242.292142 105.734184 
L 241.54309 105.511778 
L 240.648664 105.281004 
L 239.641313 105.011011 
L 238.725268 104.771832 
L 238.210331 104.532703 
L 238.109395 104.513393 
L 237.374444 104.376272 
L 237.397525 104.29744 
L 236.422474 104.019934 
L 236.001258 103.901141 
L 235.66612 103.816726 
L 235.330056 103.735945 
L 234.954516 103.636036 
L 233.629675 103.294647 
L 231.798285 102.907401 
L 230.003126 102.349068 
L 229.579274 102.216078 
L 227.754312 101.528015 
L 226.599323 101.081252 
L 225.803976 100.712654 
L 225.543729 100.580095 
L 225.281232 100.450642 
L 225.216548 100.418743 
L 223.100098 99.30983 
L 221.522093 98.621892 
L 220.221363 98.11158 
L 220.142357 98.07643 
L 220.140205 98.075568 
L 220.062071 98.044285 
L 218.048113 97.214895 
L 216.303383 96.496394 
L 216.181333 96.445353 
L 215.779111 96.277054 
L 214.651949 95.805344 
L 213.757601 95.40037 
L 213.342797 95.212476 
L 212.900822 95.012875 
L 212.8015 94.995617 
L 212.702814 94.975031 
L 212.604851 94.951198 
L 212.507695 94.924116 
L 212.411558 94.89378 
L 212.316443 94.860276 
L 209.493472 93.612952 
L 205.808468 91.990526 
L 205.324684 91.707528 
L 203.989093 91.138799 
L 203.39824 90.887468 
L 202.795301 90.631012 
L 202.10619 90.337897 
L 201.397237 90.036331 
L 200.667587 89.725995 
L 200.214119 89.532066 
L 199.877272 89.167659 
L 199.59243 88.859513 
L 199.486366 88.814019 
L 198.876895 88.569422 
L 198.869058 88.566267 
L 197.944955 88.19538 
L 197.246619 87.91509 
L 197.02133 87.820067 
L 196.102907 87.432818 
L 196.090173 87.427112 
L 195.984767 87.38258 
L 195.183637 87.044065 
L 195.047768 86.986722 
L 194.748034 87.075652 
L 194.237842 86.836892 
L 194.207845 86.824069 
L 193.310012 86.44017 
L 192.412262 86.056272 
L 192.268358 85.994762 
L 192.057644 85.90468 
L 192.083868 85.847688 
L 191.723978 85.692112 
L 190.424842 85.136466 
L 189.286883 84.649964 
L 188.865745 84.469757 
L 188.395538 84.268553 
L 188.311026 84.23398 
L 188.082718 84.140573 
L 187.296362 83.818911 
L 187.256182 83.802442 
L 187.09994 84.23701 
L 186.426548 83.968604 
L 186.143646 83.996334 
L 181.551988 82.027013 
L 180.948756 81.517524 
L 180.283552 81.230197 
L 178.182319 80.322521 
L 177.113355 79.860943 
L 176.743289 79.701195 
L 175.950944 79.358875 
L 175.263052 79.06174 
L 174.484198 78.725025 
L 173.690993 78.382565 
L 172.896928 78.039706 
L 172.599085 77.911365 
L 171.827941 77.578157 
L 171.407257 77.388671 
L 170.573123 77.012575 
L 169.886816 76.70344 
L 169.098134 76.347842 
L 168.982133 76.295569 
L 168.418683 76.041763 
L 167.769474 75.734866 
L 167.499578 75.622165 
L 166.713411 75.293907 
L 165.932297 74.96773 
L 165.541886 74.805383 
L 165.149919 74.641929 
L 164.825202 74.507368 
L 164.369949 74.31093 
L 163.593645 73.975931 
L 162.813802 73.63852 
L 161.921483 73.254316 
L 161.727314 73.169063 
L 161.035522 72.885116 
L 160.545506 72.570306 
L 160.403457 72.479047 
L 160.364888 72.462754 
L 160.025141 72.322557 
L 159.003891 71.899895 
L 156.768296 70.957248 
L 156.066051 70.661312 
L 155.873781 70.579201 
L 155.008939 70.227702 
L 154.146757 69.875884 
L 153.284034 69.524593 
L 153.110484 69.458438 
L 152.421909 69.168618 
L 151.987262 68.986455 
L 151.560702 68.808927 
L 150.699649 68.450383 
L 150.214275 68.247448 
L 149.402714 67.903134 
L 148.590726 67.558834 
L 147.929596 67.27847 
L 147.568086 67.125136 
L 147.226846 66.980368 
L 147.204776 66.971084 
L 146.514183 66.68588 
L 145.823824 66.401606 
L 145.505575 66.270646 
L 145.135609 66.118341 
L 144.457544 65.839191 
L 144.277385 65.765187 
L 143.86353 65.590957 
L 143.481123 65.429717 
L 143.108498 65.273026 
L 141.765113 64.70804 
L 141.338767 64.527978 
L 141.09972 64.429124 
L 140.623253 64.232055 
L 140.323249 64.103688 
L 139.364387 63.693567 
L 138.779938 63.443613 
L 137.986654 63.104307 
L 137.22556 62.780524 
L 136.849861 62.620057 
L 136.475318 62.460072 
L 135.717246 62.12377 
L 134.586286 61.642567 
L 134.021124 61.401216 
L 133.456004 61.159866 
L 132.233997 60.640661 
L 131.284982 60.243172 
L 130.854135 60.058619 
L 130.42363 59.874186 
L 129.801177 59.607828 
L 129.562702 59.50532 
L 129.179902 59.341229 
L 128.548864 59.070892 
L 127.522296 58.634464 
L 126.449931 58.178034 
L 125.433597 57.739396 
L 123.71948 57.004099 
L 123.267177 56.650986 
L 122.649896 56.387021 
L 120.04982 55.276094 
L 119.738656 55.143417 
L 119.61096 55.185683 
L 119.560111 55.199661 
L 119.522375 55.183601 
L 118.918807 54.926732 
L 116.276198 53.802091 
L 115.726146 53.568 
L 115.546163 53.627683 
L 115.246304 53.727095 
L 115.059074 54.174798 
L 114.98605 54.355598 
L 114.421157 54.116042 
L 114.380859 54.261197 
L 114.335731 54.424028 
L 114.154694 55.076296 
L 113.625126 56.984586 
L 113.277267 58.238593 
L 113.101126 58.873448 
L 112.928946 59.494227 
L 112.659531 60.460684 
L 112.422529 61.318414 
L 112.39373 61.424201 
L 112.392606 61.428266 
L 112.196795 61.963097 
L 112.078105 62.383791 
L 111.811339 63.344234 
L 111.663059 63.854809 
L 111.527717 64.344404 
L 111.25152 65.346421 
L 111.010504 66.215682 
L 110.980668 66.305909 
L 110.667327 67.253337 
L 110.058583 69.094167 
L 109.938445 69.488141 
L 109.781666 70.161105 
L 109.010423 72.757621 
L 108.974089 72.88 
L 108.686951 73.846585 
L 108.555307 74.288685 
L 108.446867 74.790283 
L 108.240707 75.744184 
L 108.033638 76.702186 
L 107.495859 79.190353 
L 107.510816 79.293134 
L 107.126907 80.56317 
L 106.67643 82.090551 
L 106.605172 82.332258 
L 106.596172 82.362777 
L 108.367064 83.501828 
L 108.43819 83.54759 
L 108.428634 83.577953 
L 108.389517 83.702444 
L 108.210799 84.270857 
L 107.958141 85.505619 
L 107.633003 87.43341 
L 107.595388 87.656657 
L 107.391926 88.862786 
L 107.169077 90.184228 
L 106.482605 93.63483 
L 106.228259 94.895209 
L 105.968592 96.182358 
L 105.497097 98.518872 
L 105.312167 99.435314 
L 105.042553 100.771569 
L 104.711237 102.413591 
L 104.4824 104.220291 
L 104.437024 104.412055 
L 104.40589 104.543475 
L 104.406153 104.547078 
L 104.368528 104.701051 
L 104.353596 104.764259 
L 104.251308 104.760298 
L 104.166754 104.757022 
L 104.037991 104.752009 
L 104.004061 104.844213 
L 103.892925 105.146127 
L 103.866439 105.218132 
L 103.842848 105.320048 
L 103.769131 105.638104 
L 103.840983 105.646766 
L 103.821167 105.73737 
L 103.730596 106.153982 
L 103.686601 106.356498 
L 103.624786 106.64154 
L 103.553615 106.967855 
L 103.124798 108.552659 
L 102.589511 110.67431 
L 102.47257 111.276627 
L 102.322229 112.050264 
L 101.9261 114.087165 
L 101.800658 114.497296 
L 101.247328 116.188859 
L 100.519698 117.648599 
L 99.981906 118.61396 
L 99.95635 118.659649 
L 99.459338 119.695433 
L 98.833855 121.07963 
L 98.5295 122.048082 
L 98.093743 122.876653 
L 97.759097 123.110921 
L 97.502986 123.63256 
L 97.478628 123.681914 
L 97.234155 124.501505 
L 97.217244 124.930597 
L 97.211638 125.073711 
L 96.82954 126.189371 
L 96.831696 126.969101 
L 96.431624 128.513372 
L 96.086716 130.063553 
L 96.070819 130.133498 
L 95.885289 130.635926 
L 95.807443 131.285308 
L 95.777479 132.001358 
L 95.689782 132.198052 
L 95.441216 132.755048 
L 94.737325 134.271701 
L 94.046689 135.585408 
L 93.330278 137.001134 
L 92.83195 138.420385 
L 92.290508 140.070167 
L 92.228074 140.260341 
L 91.891523 141.556273 
L 91.722228 142.20813 
L 91.603188 142.745779 
L 91.433613 143.510711 
L 90.909771 145.878959 
L 90.898763 145.941259 
L 90.763987 146.84978 
L 90.615664 147.921757 
L 90.27379 149.841652 
L 90.245485 150.462644 
L 90.166776 150.437389 
L 90.154159 150.555118 
L 90.102209 151.039154 
L 90.026107 151.645425 
L 90.012491 152.199848 
L 90.004022 152.544717 
L 89.998123 152.606289 
L 89.983445 152.749047 
L 89.95776 153.073117 
L 89.838693 154.570816 
L 89.825424 154.735199 
L 89.74057 155.800082 
L 89.658362 157.48001 
L 89.649813 157.649876 
L 89.646899 157.708949 
L 89.598298 158.701358 
L 89.523462 160.228016 
L 89.495311 160.80428 
L 89.459866 161.302071 
L 89.359227 162.713024 
L 89.211172 164.788665 
L 89.206883 164.838812 
L 89.11096 165.89651 
L 88.919943 168.00135 
L 88.62038 171.29899 
L 88.475489 173.883605 
L 88.385905 175.482984 
L 88.0445 179.567538 
L 87.831118 183.069608 
L 87.66562 186.957922 
L 87.658737 187.120099 
L 87.643561 187.476559 
L 87.639533 187.56276 
L 87.683942 187.980185 
L 87.635964 189.168726 
L 87.520407 191.222115 
L 87.255707 192.539964 
L 86.909275 194.28083 
L 86.883892 194.461416 
L 86.748294 195.409889 
L 86.61522 196.34135 
L 86.592282 196.501865 
L 85.916952 201.229937 
L 85.415085 204.570551 
L 85.28206 205.456224 
L 84.80386 208.639277 
L 85.139498 208.655772 
L 85.63169 208.679854 
L 88.594521 208.825222 
L 89.265666 208.858143 
L 89.420611 208.865732 
L 90.014347 208.894859 
L 90.2358 208.905723 
L 91.363989 208.761103 
L 93.864986 208.227891 
L 94.229229 208.15021 
L 95.593312 207.859373 
L 100.317565 207.061289 
L 103.043796 206.81216 
L 107.139595 206.484282 
L 108.905757 206.382862 
L 110.595692 206.405045 
L 111.951014 206.40456 
L 112.006661 206.397378 
L 112.365626 206.351085 
L 112.440035 206.340441 
L 113.654588 206.055102 
L 113.966892 205.98178 
L 114.449008 205.868491 
L 115.96972 205.511108 
L 115.990514 205.50598 
L 116.118611 205.474574 
L 116.1405 205.469205 
L 116.23253 205.447019 
L 117.753264 205.080432 
L 117.874466 205.051075 
L 118.040465 205.010997 
L 118.282775 204.953518 
L 118.641623 204.868162 
L 119.818069 204.584529 
L 120.974943 204.3057 
L 121.141949 204.270143 
L 121.318685 204.232422 
L 122.965941 203.959684 
L 124.101346 203.771136 
L 124.983813 203.625519 
L 125.469592 203.607728 
L 126.424267 203.572842 
L 126.552081 203.568123 
L 126.680699 203.550259 
L 128.575341 203.28975 
L 129.574076 203.031595 
L 130.214023 202.866296 
L 130.452498 202.756856 
L 131.338447 202.350044 
L 131.392874 202.325059 
L 131.971445 202.194444 
L 132.037696 202.179475 
L 132.102726 202.164792 
L 132.167717 202.150237 
L 132.232226 202.135101 
L 132.641184 202.039254 
L 133.666093 201.814929 
L 134.54927 201.61743 
L 135.631136 201.375712 
L 137.856991 200.877856 
L 138.559583 200.774162 
L 138.581066 200.770948 
L 138.623432 200.764609 
L 138.753327 200.745233 
L 138.882762 200.726081 
L 138.966289 200.714065 
L 139.089279 200.696312 
L 140.030396 200.560454 
L 140.149712 200.543179 
L 141.37006 200.361702 
L 142.431214 200.201894 
L 142.5274 200.168144 
L 142.690515 200.104587 
L 145.587458 199.016347 
L 147.511371 198.446849 
L 150.072765 197.688665 
L 150.170601 197.659676 
L 151.080897 197.390233 
L 151.279136 197.336564 
L 152.560087 196.988364 
L 153.051214 196.854842 
L 154.021187 196.591177 
L 154.981899 196.389131 
L 155.766188 196.224221 
L 156.384506 196.09439 
L 156.474848 196.075409 
L 157.494734 195.861272 
L 158.955741 196.181301 
L 159.024103 196.248473 
L 159.300984 196.520473 
L 159.508981 196.724804 
L 159.923628 197.132184 
L 160.081818 197.287553 
L 160.478277 197.522746 
L 160.905811 197.772047 
L 161.369568 198.031416 
L 162.324934 198.565833 
L 162.621549 199.069153 
L 162.892953 199.522749 
L 163.663975 201.24823 
L 163.974877 202.562017 
L 164.12186 203.182772 
L 164.299822 203.93461 
L 164.65491 204.533098 
L 165.514143 205.981037 
L 165.993165 206.724654 
L 167.714703 206.932655 
L 168.528597 207.086224 
L 170.396184 207.694289 
L 171.368656 208.004383 
L 172.293184 208.627731 
L 176.26688 211.026752 
L 178.591618 212.607861 
L 178.959606 212.858134 
L 181.835809 214.685348 
L 183.792832 215.774253 
L 187.116727 218.412815 
L 190.28117 220.861538 
L 190.498382 221.024123 
L 191.156225 221.532747 
L 192.138931 222.151634 
L 193.369844 222.918132 
L 193.553433 223.029764 
L 195.017216 223.943934 
L 195.125337 224.011331 
L 195.233931 224.078972 
L 196.110254 224.631496 
L 196.729439 224.960443 
L 198.016701 225.796967 
L 198.747258 226.314669 
L 198.9758 226.468521 
L 199.204298 226.622374 
L 199.432796 226.776228 
L 199.661294 226.930082 
L 199.763327 227.001333 
L 199.898836 227.069815 
L 200.144582 227.19906 
L 200.388951 227.327491 
L 200.633276 227.455881 
L 200.744428 227.509315 
L 201.138786 227.606173 
L 201.406355 227.670937 
L 201.673968 227.735743 
L 201.941578 227.800465 
L 202.209147 227.86523 
L 202.476758 227.929995 
L 202.744412 227.994759 
L 203.012024 228.059567 
L 203.237072 228.107964 
L 208.054215 230.897293 
L 211.44379 233.210315 
L 213.843069 234.921921 
L 214.075591 235.069869 
L 214.198328 235.147861 
L 214.309166 235.215964 
L 214.543877 235.360119 
L 214.778631 235.504273 
L 215.013343 235.648471 
L 215.247968 235.792586 
L 215.482678 235.936742 
L 215.717303 236.080858 
L 215.952011 236.224972 
L 216.186678 236.36913 
L 216.421302 236.513246 
L 216.65601 236.657404 
L 216.890632 236.801478 
L 217.026284 236.877741 
L 217.167974 236.958268 
L 217.406833 237.082399 
L 217.645346 237.206285 
L 217.890085 237.333496 
L 218.134822 237.460622 
L 218.379517 237.587791 
L 218.624254 237.71496 
L 218.77427 237.786483 
L 219.370573 238.118034 
L 221.657904 239.389919 
L 222.158808 239.667759 
L 223.975327 240.675376 
L 225.099372 241.298939 
L 225.100671 241.29966 
L 231.084463 244.747459 
L 232.654288 245.645433 
L 232.274638 245.886958 
L 231.993663 246.092886 
L 230.9133 246.884529 
L 230.221487 247.39628 
L 229.757871 247.983138 
L 228.498601 249.605259 
L 227.618746 250.702174 
L 226.980483 251.483049 
L 226.396332 252.156149 
L 225.036419 253.697181 
L 224.951842 253.792482 
L 223.545521 255.349785 
L 222.522209 256.491026 
L 222.092992 256.93788 
L 220.691335 258.492025 
L 219.274919 260.079645 
L 218.103809 261.364588 
L 217.931118 261.555541 
L 217.701536 261.809362 
L 217.548454 261.97862 
L 217.537787 261.977151 
L 213.531388 266.322075 
L 211.093378 268.986142 
L 210.727019 269.386477 
L 204.638325 275.617889 
L 203.229232 276.991237 
L 201.784274 278.676976 
L 200.461319 280.258726 
L 199.362411 281.569709 
" clip-path="url(#pbc867e547c)" style="fill: #1f77b4"/>
   </g>
   <g id="matplotlib.axis_1">
    <g id="xtick_1">
     <g id="line2d_1">
      <defs>
       <path id="mee0a39925f" d="M 0 0 
L 0 3.5 
" style="stroke: #000000; stroke-width: 0.8"/>
      </defs>
      <g>
       <use xlink:href="#mee0a39925f" x="92.32744" y="307.584" style="stroke: #000000; stroke-width: 0.8"/>
      </g>
     </g>
     <g id="text_1">
      <!-- 13.12 -->
      <g transform="translate(78.013378 322.182437) scale(0.1 -0.1)">
       <defs>
        <path id="DejaVuSans-31" d="M 794 531 
L 1825 531 
L 1825 4091 
L 703 3866 
L 703 4441 
L 1819 4666 
L 2450 4666 
L 2450 531 
L 3481 531 
L 3481 0 
L 794 0 
L 794 531 
z
" transform="scale(0.015625)"/>
        <path id="DejaVuSans-33" d="M 2597 2516 
Q 3050 2419 3304 2112 
Q 3559 1806 3559 1356 
Q 3559 666 3084 287 
Q 2609 -91 1734 -91 
Q 1441 -91 1130 -33 
Q 819 25 488 141 
L 488 750 
Q 750 597 1062 519 
Q 1375 441 1716 441 
Q 2309 441 2620 675 
Q 2931 909 2931 1356 
Q 2931 1769 2642 2001 
Q 2353 2234 1838 2234 
L 1294 2234 
L 1294 2753 
L 1863 2753 
Q 2328 2753 2575 2939 
Q 2822 3125 2822 3475 
Q 2822 3834 2567 4026 
Q 2313 4219 1838 4219 
Q 1578 4219 1281 4162 
Q 984 4106 628 3988 
L 628 4550 
Q 988 4650 1302 4700 
Q 1616 4750 1894 4750 
Q 2613 4750 3031 4423 
Q 3450 4097 3450 3541 
Q 3450 3153 3228 2886 
Q 3006 2619 2597 2516 
z
" transform="scale(0.015625)"/>
        <path id="DejaVuSans-2e" d="M 684 794 
L 1344 794 
L 1344 0 
L 684 0 
L 684 794 
z
" transform="scale(0.015625)"/>
        <path id="DejaVuSans-32" d="M 1228 531 
L 3431 531 
L 3431 0 
L 469 0 
L 469 531 
Q 828 903 1448 1529 
Q 2069 2156 2228 2338 
Q 2531 2678 2651 2914 
Q 2772 3150 2772 3378 
Q 2772 3750 2511 3984 
Q 2250 4219 1831 4219 
Q 1534 4219 1204 4116 
Q 875 4013 500 3803 
L 500 4441 
Q 881 4594 1212 4672 
Q 1544 4750 1819 4750 
Q 2544 4750 2975 4387 
Q 3406 4025 3406 3419 
Q 3406 3131 3298 2873 
Q 3191 2616 2906 2266 
Q 2828 2175 2409 1742 
Q 1991 1309 1228 531 
z
" transform="scale(0.015625)"/>
       </defs>
       <use xlink:href="#DejaVuSans-31"/>
       <use xlink:href="#DejaVuSans-33" x="63.623047"/>
       <use xlink:href="#DejaVuSans-2e" x="127.246094"/>
       <use xlink:href="#DejaVuSans-31" x="159.033203"/>
       <use xlink:href="#DejaVuSans-32" x="222.65625"/>
      </g>
     </g>
    </g>
    <g id="xtick_2">
     <g id="line2d_2">
      <g>
       <use xlink:href="#mee0a39925f" x="149.810063" y="307.584" style="stroke: #000000; stroke-width: 0.8"/>
      </g>
     </g>
     <g id="text_2">
      <!-- 13.14 -->
      <g transform="translate(135.496 322.182437) scale(0.1 -0.1)">
       <defs>
        <path id="DejaVuSans-34" d="M 2419 4116 
L 825 1625 
L 2419 1625 
L 2419 4116 
z
M 2253 4666 
L 3047 4666 
L 3047 1625 
L 3713 1625 
L 3713 1100 
L 3047 1100 
L 3047 0 
L 2419 0 
L 2419 1100 
L 313 1100 
L 313 1709 
L 2253 4666 
z
" transform="scale(0.015625)"/>
       </defs>
       <use xlink:href="#DejaVuSans-31"/>
       <use xlink:href="#DejaVuSans-33" x="63.623047"/>
       <use xlink:href="#DejaVuSans-2e" x="127.246094"/>
       <use xlink:href="#DejaVuSans-31" x="159.033203"/>
       <use xlink:href="#DejaVuSans-34" x="222.65625"/>
      </g>
     </g>
    </g>
    <g id="xtick_3">
     <g id="line2d_3">
      <g>
       <use xlink:href="#mee0a39925f" x="207.292685" y="307.584" style="stroke: #000000; stroke-width: 0.8"/>
      </g>
     </g>
     <g id="text_3">
      <!-- 13.16 -->
      <g transform="translate(192.978623 322.182437) scale(0.1 -0.1)">
       <defs>
        <path id="DejaVuSans-36" d="M 2113 2584 
Q 1688 2584 1439 2293 
Q 1191 2003 1191 1497 
Q 1191 994 1439 701 
Q 1688 409 2113 409 
Q 2538 409 2786 701 
Q 3034 994 3034 1497 
Q 3034 2003 2786 2293 
Q 2538 2584 2113 2584 
z
M 3366 4563 
L 3366 3988 
Q 3128 4100 2886 4159 
Q 2644 4219 2406 4219 
Q 1781 4219 1451 3797 
Q 1122 3375 1075 2522 
Q 1259 2794 1537 2939 
Q 1816 3084 2150 3084 
Q 2853 3084 3261 2657 
Q 3669 2231 3669 1497 
Q 3669 778 3244 343 
Q 2819 -91 2113 -91 
Q 1303 -91 875 529 
Q 447 1150 447 2328 
Q 447 3434 972 4092 
Q 1497 4750 2381 4750 
Q 2619 4750 2861 4703 
Q 3103 4656 3366 4563 
z
" transform="scale(0.015625)"/>
       </defs>
       <use xlink:href="#DejaVuSans-31"/>
       <use xlink:href="#DejaVuSans-33" x="63.623047"/>
       <use xlink:href="#DejaVuSans-2e" x="127.246094"/>
       <use xlink:href="#DejaVuSans-31" x="159.033203"/>
       <use xlink:href="#DejaVuSans-36" x="222.65625"/>
      </g>
     </g>
    </g>
    <g id="xtick_4">
     <g id="line2d_4">
      <g>
       <use xlink:href="#mee0a39925f" x="264.775307" y="307.584" style="stroke: #000000; stroke-width: 0.8"/>
      </g>
     </g>
     <g id="text_4">
      <!-- 13.18 -->
      <g transform="translate(250.461245 322.182437) scale(0.1 -0.1)">
       <defs>
        <path id="DejaVuSans-38" d="M 2034 2216 
Q 1584 2216 1326 1975 
Q 1069 1734 1069 1313 
Q 1069 891 1326 650 
Q 1584 409 2034 409 
Q 2484 409 2743 651 
Q 3003 894 3003 1313 
Q 3003 1734 2745 1975 
Q 2488 2216 2034 2216 
z
M 1403 2484 
Q 997 2584 770 2862 
Q 544 3141 544 3541 
Q 544 4100 942 4425 
Q 1341 4750 2034 4750 
Q 2731 4750 3128 4425 
Q 3525 4100 3525 3541 
Q 3525 3141 3298 2862 
Q 3072 2584 2669 2484 
Q 3125 2378 3379 2068 
Q 3634 1759 3634 1313 
Q 3634 634 3220 271 
Q 2806 -91 2034 -91 
Q 1263 -91 848 271 
Q 434 634 434 1313 
Q 434 1759 690 2068 
Q 947 2378 1403 2484 
z
M 1172 3481 
Q 1172 3119 1398 2916 
Q 1625 2713 2034 2713 
Q 2441 2713 2670 2916 
Q 2900 3119 2900 3481 
Q 2900 3844 2670 4047 
Q 2441 4250 2034 4250 
Q 1625 4250 1398 4047 
Q 1172 3844 1172 3481 
z
" transform="scale(0.015625)"/>
       </defs>
       <use xlink:href="#DejaVuSans-31"/>
       <use xlink:href="#DejaVuSans-33" x="63.623047"/>
       <use xlink:href="#DejaVuSans-2e" x="127.246094"/>
       <use xlink:href="#DejaVuSans-31" x="159.033203"/>
       <use xlink:href="#DejaVuSans-38" x="222.65625"/>
      </g>
     </g>
    </g>
    <g id="xtick_5">
     <g id="line2d_5">
      <g>
       <use xlink:href="#mee0a39925f" x="322.25793" y="307.584" style="stroke: #000000; stroke-width: 0.8"/>
      </g>
     </g>
     <g id="text_5">
      <!-- 13.20 -->
      <g transform="translate(307.943867 322.182437) scale(0.1 -0.1)">
       <defs>
        <path id="DejaVuSans-30" d="M 2034 4250 
Q 1547 4250 1301 3770 
Q 1056 3291 1056 2328 
Q 1056 1369 1301 889 
Q 1547 409 2034 409 
Q 2525 409 2770 889 
Q 3016 1369 3016 2328 
Q 3016 3291 2770 3770 
Q 2525 4250 2034 4250 
z
M 2034 4750 
Q 2819 4750 3233 4129 
Q 3647 3509 3647 2328 
Q 3647 1150 3233 529 
Q 2819 -91 2034 -91 
Q 1250 -91 836 529 
Q 422 1150 422 2328 
Q 422 3509 836 4129 
Q 1250 4750 2034 4750 
z
" transform="scale(0.015625)"/>
       </defs>
       <use xlink:href="#DejaVuSans-31"/>
       <use xlink:href="#DejaVuSans-33" x="63.623047"/>
       <use xlink:href="#DejaVuSans-2e" x="127.246094"/>
       <use xlink:href="#DejaVuSans-32" x="159.033203"/>
       <use xlink:href="#DejaVuSans-30" x="222.65625"/>
      </g>
     </g>
    </g>
    <g id="xtick_6">
     <g id="line2d_6">
      <g>
       <use xlink:href="#mee0a39925f" x="379.740552" y="307.584" style="stroke: #000000; stroke-width: 0.8"/>
      </g>
     </g>
     <g id="text_6">
      <!-- 13.22 -->
      <g transform="translate(365.42649 322.182437) scale(0.1 -0.1)">
       <use xlink:href="#DejaVuSans-31"/>
       <use xlink:href="#DejaVuSans-33" x="63.623047"/>
       <use xlink:href="#DejaVuSans-2e" x="127.246094"/>
       <use xlink:href="#DejaVuSans-32" x="159.033203"/>
       <use xlink:href="#DejaVuSans-32" x="222.65625"/>
      </g>
     </g>
    </g>
   </g>
   <g id="matplotlib.axis_2">
    <g id="ytick_1">
     <g id="line2d_7">
      <defs>
       <path id="m03137606e9" d="M 0 0 
L -3.5 0 
" style="stroke: #000000; stroke-width: 0.8"/>
      </defs>
      <g>
       <use xlink:href="#m03137606e9" x="69.668247" y="289.231884" style="stroke: #000000; stroke-width: 0.8"/>
      </g>
     </g>
     <g id="text_7">
      <!-- 52.50 -->
      <g transform="translate(34.040122 293.031103) scale(0.1 -0.1)">
       <defs>
        <path id="DejaVuSans-35" d="M 691 4666 
L 3169 4666 
L 3169 4134 
L 1269 4134 
L 1269 2991 
Q 1406 3038 1543 3061 
Q 1681 3084 1819 3084 
Q 2600 3084 3056 2656 
Q 3513 2228 3513 1497 
Q 3513 744 3044 326 
Q 2575 -91 1722 -91 
Q 1428 -91 1123 -41 
Q 819 9 494 109 
L 494 744 
Q 775 591 1075 516 
Q 1375 441 1709 441 
Q 2250 441 2565 725 
Q 2881 1009 2881 1497 
Q 2881 1984 2565 2268 
Q 2250 2553 1709 2553 
Q 1456 2553 1204 2497 
Q 953 2441 691 2322 
L 691 4666 
z
" transform="scale(0.015625)"/>
       </defs>
       <use xlink:href="#DejaVuSans-35"/>
       <use xlink:href="#DejaVuSans-32" x="63.623047"/>
       <use xlink:href="#DejaVuSans-2e" x="127.246094"/>
       <use xlink:href="#DejaVuSans-35" x="159.033203"/>
       <use xlink:href="#DejaVuSans-30" x="222.65625"/>
      </g>
     </g>
    </g>
    <g id="ytick_2">
     <g id="line2d_8">
      <g>
       <use xlink:href="#m03137606e9" x="69.668247" y="241.993024" style="stroke: #000000; stroke-width: 0.8"/>
      </g>
     </g>
     <g id="text_8">
      <!-- 52.51 -->
      <g transform="translate(34.040122 245.792242) scale(0.1 -0.1)">
       <use xlink:href="#DejaVuSans-35"/>
       <use xlink:href="#DejaVuSans-32" x="63.623047"/>
       <use xlink:href="#DejaVuSans-2e" x="127.246094"/>
       <use xlink:href="#DejaVuSans-35" x="159.033203"/>
       <use xlink:href="#DejaVuSans-31" x="222.65625"/>
      </g>
     </g>
    </g>
    <g id="ytick_3">
     <g id="line2d_9">
      <g>
       <use xlink:href="#m03137606e9" x="69.668247" y="194.754163" style="stroke: #000000; stroke-width: 0.8"/>
      </g>
     </g>
     <g id="text_9">
      <!-- 52.52 -->
      <g transform="translate(34.040122 198.553382) scale(0.1 -0.1)">
       <use xlink:href="#DejaVuSans-35"/>
       <use xlink:href="#DejaVuSans-32" x="63.623047"/>
       <use xlink:href="#DejaVuSans-2e" x="127.246094"/>
       <use xlink:href="#DejaVuSans-35" x="159.033203"/>
       <use xlink:href="#DejaVuSans-32" x="222.65625"/>
      </g>
     </g>
    </g>
    <g id="ytick_4">
     <g id="line2d_10">
      <g>
       <use xlink:href="#m03137606e9" x="69.668247" y="147.515302" style="stroke: #000000; stroke-width: 0.8"/>
      </g>
     </g>
     <g id="text_10">
      <!-- 52.53 -->
      <g transform="translate(34.040122 151.314521) scale(0.1 -0.1)">
       <use xlink:href="#DejaVuSans-35"/>
       <use xlink:href="#DejaVuSans-32" x="63.623047"/>
       <use xlink:href="#DejaVuSans-2e" x="127.246094"/>
       <use xlink:href="#DejaVuSans-35" x="159.033203"/>
       <use xlink:href="#DejaVuSans-33" x="222.65625"/>
      </g>
     </g>
    </g>
    <g id="ytick_5">
     <g id="line2d_11">
      <g>
       <use xlink:href="#m03137606e9" x="69.668247" y="100.276441" style="stroke: #000000; stroke-width: 0.8"/>
      </g>
     </g>
     <g id="text_11">
      <!-- 52.54 -->
      <g transform="translate(34.040122 104.07566) scale(0.1 -0.1)">
       <use xlink:href="#DejaVuSans-35"/>
       <use xlink:href="#DejaVuSans-32" x="63.623047"/>
       <use xlink:href="#DejaVuSans-2e" x="127.246094"/>
       <use xlink:href="#DejaVuSans-35" x="159.033203"/>
       <use xlink:href="#DejaVuSans-34" x="222.65625"/>
      </g>
     </g>
    </g>
    <g id="ytick_6">
     <g id="line2d_12">
      <g>
       <use xlink:href="#m03137606e9" x="69.668247" y="53.037581" style="stroke: #000000; stroke-width: 0.8"/>
      </g>
     </g>
     <g id="text_12">
      <!-- 52.55 -->
      <g transform="translate(34.040122 56.836799) scale(0.1 -0.1)">
       <use xlink:href="#DejaVuSans-35"/>
       <use xlink:href="#DejaVuSans-32" x="63.623047"/>
       <use xlink:href="#DejaVuSans-2e" x="127.246094"/>
       <use xlink:href="#DejaVuSans-35" x="159.033203"/>
       <use xlink:href="#DejaVuSans-35" x="222.65625"/>
      </g>
     </g>
    </g>
   </g>
   <g id="patch_3">
    <path d="M 69.668247 307.584 
L 69.668247 41.472 
" style="fill: none; stroke: #000000; stroke-width: 0.8; stroke-linejoin: miter; stroke-linecap: square"/>
   </g>
   <g id="patch_4">
    <path d="M 402.651753 307.584 
L 402.651753 41.472 
" style="fill: none; stroke: #000000; stroke-width: 0.8; stroke-linejoin: miter; stroke-linecap: square"/>
   </g>
   <g id="patch_5">
    <path d="M 69.668247 307.584 
L 402.651753 307.584 
" style="fill: none; stroke: #000000; stroke-width: 0.8; stroke-linejoin: miter; stroke-linecap: square"/>
   </g>
   <g id="patch_6">
    <path d="M 69.668247 41.472 
L 402.651753 41.472 
" style="fill: none; stroke: #000000; stroke-width: 0.8; stroke-linejoin: miter; stroke-linecap: square"/>
   </g>
   <g id="text_13">
    <!-- Wilhelmstadt___Staaken -->
    <g transform="translate(162.643553 182.421249) scale(0.12 -0.12)">
     <defs>
      <path id="DejaVuSans-57" d="M 213 4666 
L 850 4666 
L 1831 722 
L 2809 4666 
L 3519 4666 
L 4500 722 
L 5478 4666 
L 6119 4666 
L 4947 0 
L 4153 0 
L 3169 4050 
L 2175 0 
L 1381 0 
L 213 4666 
z
" transform="scale(0.015625)"/>
      <path id="DejaVuSans-69" d="M 603 3500 
L 1178 3500 
L 1178 0 
L 603 0 
L 603 3500 
z
M 603 4863 
L 1178 4863 
L 1178 4134 
L 603 4134 
L 603 4863 
z
" transform="scale(0.015625)"/>
      <path id="DejaVuSans-6c" d="M 603 4863 
L 1178 4863 
L 1178 0 
L 603 0 
L 603 4863 
z
" transform="scale(0.015625)"/>
      <path id="DejaVuSans-68" d="M 3513 2113 
L 3513 0 
L 2938 0 
L 2938 2094 
Q 2938 2591 2744 2837 
Q 2550 3084 2163 3084 
Q 1697 3084 1428 2787 
Q 1159 2491 1159 1978 
L 1159 0 
L 581 0 
L 581 4863 
L 1159 4863 
L 1159 2956 
Q 1366 3272 1645 3428 
Q 1925 3584 2291 3584 
Q 2894 3584 3203 3211 
Q 3513 2838 3513 2113 
z
" transform="scale(0.015625)"/>
      <path id="DejaVuSans-65" d="M 3597 1894 
L 3597 1613 
L 953 1613 
Q 991 1019 1311 708 
Q 1631 397 2203 397 
Q 2534 397 2845 478 
Q 3156 559 3463 722 
L 3463 178 
Q 3153 47 2828 -22 
Q 2503 -91 2169 -91 
Q 1331 -91 842 396 
Q 353 884 353 1716 
Q 353 2575 817 3079 
Q 1281 3584 2069 3584 
Q 2775 3584 3186 3129 
Q 3597 2675 3597 1894 
z
M 3022 2063 
Q 3016 2534 2758 2815 
Q 2500 3097 2075 3097 
Q 1594 3097 1305 2825 
Q 1016 2553 972 2059 
L 3022 2063 
z
" transform="scale(0.015625)"/>
      <path id="DejaVuSans-6d" d="M 3328 2828 
Q 3544 3216 3844 3400 
Q 4144 3584 4550 3584 
Q 5097 3584 5394 3201 
Q 5691 2819 5691 2113 
L 5691 0 
L 5113 0 
L 5113 2094 
Q 5113 2597 4934 2840 
Q 4756 3084 4391 3084 
Q 3944 3084 3684 2787 
Q 3425 2491 3425 1978 
L 3425 0 
L 2847 0 
L 2847 2094 
Q 2847 2600 2669 2842 
Q 2491 3084 2119 3084 
Q 1678 3084 1418 2786 
Q 1159 2488 1159 1978 
L 1159 0 
L 581 0 
L 581 3500 
L 1159 3500 
L 1159 2956 
Q 1356 3278 1631 3431 
Q 1906 3584 2284 3584 
Q 2666 3584 2933 3390 
Q 3200 3197 3328 2828 
z
" transform="scale(0.015625)"/>
      <path id="DejaVuSans-73" d="M 2834 3397 
L 2834 2853 
Q 2591 2978 2328 3040 
Q 2066 3103 1784 3103 
Q 1356 3103 1142 2972 
Q 928 2841 928 2578 
Q 928 2378 1081 2264 
Q 1234 2150 1697 2047 
L 1894 2003 
Q 2506 1872 2764 1633 
Q 3022 1394 3022 966 
Q 3022 478 2636 193 
Q 2250 -91 1575 -91 
Q 1294 -91 989 -36 
Q 684 19 347 128 
L 347 722 
Q 666 556 975 473 
Q 1284 391 1588 391 
Q 1994 391 2212 530 
Q 2431 669 2431 922 
Q 2431 1156 2273 1281 
Q 2116 1406 1581 1522 
L 1381 1569 
Q 847 1681 609 1914 
Q 372 2147 372 2553 
Q 372 3047 722 3315 
Q 1072 3584 1716 3584 
Q 2034 3584 2315 3537 
Q 2597 3491 2834 3397 
z
" transform="scale(0.015625)"/>
      <path id="DejaVuSans-74" d="M 1172 4494 
L 1172 3500 
L 2356 3500 
L 2356 3053 
L 1172 3053 
L 1172 1153 
Q 1172 725 1289 603 
Q 1406 481 1766 481 
L 2356 481 
L 2356 0 
L 1766 0 
Q 1100 0 847 248 
Q 594 497 594 1153 
L 594 3053 
L 172 3053 
L 172 3500 
L 594 3500 
L 594 4494 
L 1172 4494 
z
" transform="scale(0.015625)"/>
      <path id="DejaVuSans-61" d="M 2194 1759 
Q 1497 1759 1228 1600 
Q 959 1441 959 1056 
Q 959 750 1161 570 
Q 1363 391 1709 391 
Q 2188 391 2477 730 
Q 2766 1069 2766 1631 
L 2766 1759 
L 2194 1759 
z
M 3341 1997 
L 3341 0 
L 2766 0 
L 2766 531 
Q 2569 213 2275 61 
Q 1981 -91 1556 -91 
Q 1019 -91 701 211 
Q 384 513 384 1019 
Q 384 1609 779 1909 
Q 1175 2209 1959 2209 
L 2766 2209 
L 2766 2266 
Q 2766 2663 2505 2880 
Q 2244 3097 1772 3097 
Q 1472 3097 1187 3025 
Q 903 2953 641 2809 
L 641 3341 
Q 956 3463 1253 3523 
Q 1550 3584 1831 3584 
Q 2591 3584 2966 3190 
Q 3341 2797 3341 1997 
z
" transform="scale(0.015625)"/>
      <path id="DejaVuSans-64" d="M 2906 2969 
L 2906 4863 
L 3481 4863 
L 3481 0 
L 2906 0 
L 2906 525 
Q 2725 213 2448 61 
Q 2172 -91 1784 -91 
Q 1150 -91 751 415 
Q 353 922 353 1747 
Q 353 2572 751 3078 
Q 1150 3584 1784 3584 
Q 2172 3584 2448 3432 
Q 2725 3281 2906 2969 
z
M 947 1747 
Q 947 1113 1208 752 
Q 1469 391 1925 391 
Q 2381 391 2643 752 
Q 2906 1113 2906 1747 
Q 2906 2381 2643 2742 
Q 2381 3103 1925 3103 
Q 1469 3103 1208 2742 
Q 947 2381 947 1747 
z
" transform="scale(0.015625)"/>
      <path id="DejaVuSans-5f" d="M 3263 -1063 
L 3263 -1509 
L -63 -1509 
L -63 -1063 
L 3263 -1063 
z
" transform="scale(0.015625)"/>
      <path id="DejaVuSans-53" d="M 3425 4513 
L 3425 3897 
Q 3066 4069 2747 4153 
Q 2428 4238 2131 4238 
Q 1616 4238 1336 4038 
Q 1056 3838 1056 3469 
Q 1056 3159 1242 3001 
Q 1428 2844 1947 2747 
L 2328 2669 
Q 3034 2534 3370 2195 
Q 3706 1856 3706 1288 
Q 3706 609 3251 259 
Q 2797 -91 1919 -91 
Q 1588 -91 1214 -16 
Q 841 59 441 206 
L 441 856 
Q 825 641 1194 531 
Q 1563 422 1919 422 
Q 2459 422 2753 634 
Q 3047 847 3047 1241 
Q 3047 1584 2836 1778 
Q 2625 1972 2144 2069 
L 1759 2144 
Q 1053 2284 737 2584 
Q 422 2884 422 3419 
Q 422 4038 858 4394 
Q 1294 4750 2059 4750 
Q 2388 4750 2728 4690 
Q 3069 4631 3425 4513 
z
" transform="scale(0.015625)"/>
      <path id="DejaVuSans-6b" d="M 581 4863 
L 1159 4863 
L 1159 1991 
L 2875 3500 
L 3609 3500 
L 1753 1863 
L 3688 0 
L 2938 0 
L 1159 1709 
L 1159 0 
L 581 0 
L 581 4863 
z
" transform="scale(0.015625)"/>
      <path id="DejaVuSans-6e" d="M 3513 2113 
L 3513 0 
L 2938 0 
L 2938 2094 
Q 2938 2591 2744 2837 
Q 2550 3084 2163 3084 
Q 1697 3084 1428 2787 
Q 1159 2491 1159 1978 
L 1159 0 
L 581 0 
L 581 3500 
L 1159 3500 
L 1159 2956 
Q 1366 3272 1645 3428 
Q 1925 3584 2291 3584 
Q 2894 3584 3203 3211 
Q 3513 2838 3513 2113 
z
" transform="scale(0.015625)"/>
     </defs>
     <use xlink:href="#DejaVuSans-57"/>
     <use xlink:href="#DejaVuSans-69" x="96.626953"/>
     <use xlink:href="#DejaVuSans-6c" x="124.410156"/>
     <use xlink:href="#DejaVuSans-68" x="152.193359"/>
     <use xlink:href="#DejaVuSans-65" x="215.572266"/>
     <use xlink:href="#DejaVuSans-6c" x="277.095703"/>
     <use xlink:href="#DejaVuSans-6d" x="304.878906"/>
     <use xlink:href="#DejaVuSans-73" x="402.291016"/>
     <use xlink:href="#DejaVuSans-74" x="454.390625"/>
     <use xlink:href="#DejaVuSans-61" x="493.599609"/>
     <use xlink:href="#DejaVuSans-64" x="554.878906"/>
     <use xlink:href="#DejaVuSans-74" x="618.355469"/>
     <use xlink:href="#DejaVuSans-5f" x="657.564453"/>
     <use xlink:href="#DejaVuSans-5f" x="707.564453"/>
     <use xlink:href="#DejaVuSans-5f" x="757.564453"/>
     <use xlink:href="#DejaVuSans-53" x="807.564453"/>
     <use xlink:href="#DejaVuSans-74" x="871.041016"/>
     <use xlink:href="#DejaVuSans-61" x="910.25"/>
     <use xlink:href="#DejaVuSans-61" x="971.529297"/>
     <use xlink:href="#DejaVuSans-6b" x="1032.808594"/>
     <use xlink:href="#DejaVuSans-65" x="1087.09375"/>
     <use xlink:href="#DejaVuSans-6e" x="1148.617188"/>
    </g>
   </g>
  </g>
 </g>
 <defs>
  <clipPath id="pbc867e547c">
   <rect x="69.668247" y="41.472" width="332.983507" height="266.112"/>
  </clipPath>
 </defs>
</svg>
