<?xml version="1.0" encoding="utf-8" standalone="no"?>
<!DOCTYPE svg PUBLIC "-//W3C//DTD SVG 1.1//EN"
  "http://www.w3.org/Graphics/SVG/1.1/DTD/svg11.dtd">
<svg xmlns:xlink="http://www.w3.org/1999/xlink" width="720pt" height="720pt" viewBox="0 0 720 720" xmlns="http://www.w3.org/2000/svg" version="1.1">
 <metadata>
  <rdf:RDF xmlns:dc="http://purl.org/dc/elements/1.1/" xmlns:cc="http://creativecommons.org/ns#" xmlns:rdf="http://www.w3.org/1999/02/22-rdf-syntax-ns#">
   <cc:Work>
    <dc:type rdf:resource="http://purl.org/dc/dcmitype/StillImage"/>
    <dc:date>2024-10-17T11:38:38.345558</dc:date>
    <dc:format>image/svg+xml</dc:format>
    <dc:creator>
     <cc:Agent>
      <dc:title>Matplotlib v3.9.2, https://matplotlib.org/</dc:title>
     </cc:Agent>
    </dc:creator>
   </cc:Work>
  </rdf:RDF>
 </metadata>
 <defs>
  <style type="text/css">*{stroke-linejoin: round; stroke-linecap: butt}</style>
 </defs>
 <g id="figure_1">
  <g id="patch_1">
   <path d="M 0 720 
L 720 720 
L 720 0 
L 0 0 
z
" style="fill: #ffffff"/>
  </g>
  <g id="axes_1">
   <g id="patch_2">
    <path d="M 90 552.292113 
L 648 552.292113 
L 648 174.907887 
L 90 174.907887 
z
" style="fill: #ffffff"/>
   </g>
   <g id="PatchCollection_1">
    <path d="M 620.48477 483.707315 
L 620.524482 482.178333 
L 620.557143 480.89834 
L 620.608915 478.909892 
L 620.79311 471.835505 
L 620.812284 471.004596 
L 620.830246 470.309514 
L 620.853672 469.399397 
L 620.919229 466.849432 
L 620.983813 464.324097 
L 621.013674 463.229 
L 621.105036 459.683283 
L 621.189935 456.352624 
L 621.218916 455.254813 
L 621.284537 452.734923 
L 621.324432 451.218073 
L 621.3861 448.841182 
L 621.414173 447.743392 
L 621.496929 444.547488 
L 621.825786 431.889601 
L 621.86085 430.513128 
L 621.908403 428.66007 
L 621.94742 427.140507 
L 621.994973 425.287449 
L 622.030107 423.92182 
L 622.379477 423.916226 
L 622.381565 423.520268 
L 622.382298 423.375522 
L 620.023049 423.347603 
L 620.021752 423.483704 
L 620.018321 423.864746 
L 619.987528 424.073353 
L 619.979974 424.311949 
L 619.953056 425.228253 
L 619.518127 425.13869 
L 618.906783 425.014509 
L 618.696968 424.97037 
L 618.642548 425.237948 
L 618.312745 425.170087 
L 617.84083 425.073095 
L 617.565829 425.016624 
L 617.313204 424.964735 
L 616.668853 424.832304 
L 616.525007 424.80285 
L 615.657529 424.624497 
L 615.270465 424.55688 
L 614.898647 424.468584 
L 614.386037 424.364981 
L 612.944304 424.031518 
L 611.150157 423.619612 
L 610.419626 423.451743 
L 609.048948 423.136958 
L 608.853019 423.091953 
L 608.599969 423.033608 
L 607.124977 422.693102 
L 605.699244 422.364118 
L 604.273596 422.034955 
L 603.547336 421.867272 
L 603.034219 421.722499 
L 601.630916 421.326382 
L 600.328805 420.95871 
L 600.197688 420.921672 
L 599.636447 420.75579 
L 598.848211 420.471628 
L 597.692576 420.055062 
L 597.477343 419.977429 
L 596.326291 419.558663 
L 595.129767 419.123374 
L 594.211834 418.7893 
L 593.77665 418.591587 
L 592.448499 417.988222 
L 591.894708 417.736504 
L 591.471192 417.544171 
L 591.287806 417.460237 
L 591.137448 417.389384 
L 590.627 417.148775 
L 590.300641 416.995 
L 590.092841 416.897056 
L 589.919232 416.815354 
L 589.420368 416.5804 
L 588.814611 416.294904 
L 588.508372 416.150321 
L 588.115658 415.965381 
L 587.932027 415.878811 
L 587.712278 415.775223 
L 587.442538 415.64838 
L 586.75792 415.325632 
L 586.530449 415.218398 
L 586.08277 415.007404 
L 585.817254 414.882467 
L 585.298712 414.638044 
L 584.654074 414.334233 
L 582.193998 412.832053 
L 581.943739 412.679237 
L 580.280255 411.663424 
L 579.02361 410.896471 
L 576.76433 409.208525 
L 573.172035 406.524587 
L 572.872164 406.27542 
L 570.355821 404.184222 
L 568.903028 401.996567 
L 567.863329 400.762341 
L 566.774547 399.469858 
L 566.677861 399.354373 
L 566.425394 399.052878 
L 566.135021 398.88005 
L 565.851727 398.511835 
L 565.568254 398.143808 
L 565.284691 397.775782 
L 563.831355 395.894201 
L 562.374524 394.015259 
L 560.9142 392.139137 
L 559.450381 390.265655 
L 558.966932 389.637654 
L 558.477412 389.014443 
L 557.982003 388.39602 
L 557.480523 387.782388 
L 556.973246 387.173632 
L 555.796709 385.738636 
L 554.428086 384.214277 
L 553.2726 383.019675 
L 552.176618 381.780843 
L 551.871855 381.436291 
L 551.753177 381.302003 
L 551.463717 380.974408 
L 550.877203 380.266537 
L 550.869101 380.273836 
L 549.067718 378.071917 
L 548.736076 377.674408 
L 548.628319 377.544604 
L 548.083545 376.868839 
L 547.150893 375.879005 
L 546.331094 375.023139 
L 546.269732 374.945381 
L 545.896595 374.472382 
L 544.50353 372.706471 
L 544.213582 372.338973 
L 542.712581 370.436342 
L 542.316672 369.934535 
L 541.794571 369.272828 
L 540.54163 367.68473 
L 540.571092 367.319572 
L 540.503566 367.238769 
L 539.076788 367.710681 
L 538.912153 367.765133 
L 538.569067 367.061672 
L 538.390408 366.695299 
L 537.805324 365.684919 
L 536.817455 364.20972 
L 535.487537 362.223709 
L 535.125175 362.056786 
L 534.795816 362.162049 
L 529.711789 355.656713 
L 528.594762 354.278342 
L 527.693456 353.256641 
L 526.762164 352.25515 
L 525.839952 351.257276 
L 525.151351 350.483304 
L 525.624873 350.089466 
L 524.755338 349.02756 
L 517.509899 340.179451 
L 511.575406 332.950005 
L 510.773439 331.973116 
L 510.517966 332.143734 
L 509.816867 331.099031 
L 508.95279 329.81173 
L 508.921604 329.765164 
L 508.925246 329.761523 
L 508.897779 329.726171 
L 508.894206 329.728898 
L 508.236686 328.798188 
L 507.420319 327.704166 
L 506.573997 326.639469 
L 506.306773 326.317785 
L 505.698746 325.585845 
L 503.487675 322.933788 
L 502.532985 321.788808 
L 502.923855 321.413575 
L 501.319224 319.425941 
L 501.090649 319.142967 
L 501.023132 319.059254 
L 500.765516 319.251072 
L 500.159141 319.702572 
L 498.303806 317.43906 
L 498.261685 317.387649 
L 498.176412 317.283483 
L 497.95767 317.016685 
L 498.255848 316.759563 
L 497.550329 315.912209 
L 497.293135 315.603209 
L 497.064854 315.329072 
L 496.93144 315.168807 
L 492.298464 309.604278 
L 492.201006 309.589171 
L 489.563486 306.397224 
L 489.562781 306.3092 
L 482.694666 298.038768 
L 479.789024 294.540059 
L 477.869622 292.229021 
L 476.769729 290.997119 
L 476.568305 290.775764 
L 476.459011 290.655857 
L 476.161153 290.335618 
L 475.762637 289.910853 
L 475.352985 289.495921 
L 474.940473 289.086981 
L 474.521114 288.680755 
L 474.101303 288.27855 
L 473.674718 287.882157 
L 473.231291 287.481059 
L 472.782375 287.086288 
L 472.338476 286.707713 
L 471.891146 286.33405 
L 471.444556 285.960917 
L 470.78017 285.397351 
L 470.337981 285.018191 
L 469.903189 284.632658 
L 469.475421 284.251973 
L 469.067574 283.879384 
L 468.789447 283.625215 
L 468.153616 283.023519 
L 467.520407 282.421306 
L 466.886694 281.81701 
L 466.255685 281.211831 
L 465.935521 280.914091 
L 465.611363 280.620547 
L 465.281085 280.333528 
L 464.94521 280.05211 
L 464.61216 279.770991 
L 464.546944 279.716028 
L 464.326562 279.527938 
L 464.339855 279.517142 
L 464.219593 279.402783 
L 464.002037 279.195761 
L 463.868472 279.068684 
L 463.641058 278.852325 
L 463.51847 278.735743 
L 463.286121 278.514489 
L 463.159162 278.393818 
L 463.145957 278.404521 
L 463.080675 278.342906 
L 462.940991 278.210871 
L 459.27661 274.745933 
L 456.826683 272.429412 
L 456.505221 272.127335 
L 456.105129 271.737531 
L 455.106472 270.76622 
L 454.778814 270.44825 
L 453.295493 269.006299 
L 450.970048 266.746375 
L 447.328611 263.205982 
L 441.648253 257.805064 
L 441.651958 257.800237 
L 440.670599 256.871019 
L 440.340347 256.54419 
L 439.726174 255.884876 
L 438.752938 254.780208 
L 436.104999 251.774552 
L 435.403521 252.284914 
L 435.350688 252.323353 
L 434.298653 253.087555 
L 433.89985 253.377275 
L 433.726591 253.129569 
L 433.696846 253.148412 
L 433.666819 253.166806 
L 433.636508 253.184751 
L 433.605639 253.202162 
L 433.574395 253.219127 
L 433.542957 253.235549 
L 433.491622 253.256545 
L 433.438629 253.272841 
L 433.384428 253.284153 
L 433.328475 253.290585 
L 433.272129 253.291922 
L 433.227663 253.288795 
L 433.187876 253.285993 
L 433.159807 253.283379 
L 433.131816 253.280215 
L 433.104174 253.276406 
L 433.076698 253.271954 
L 433.0493 253.266954 
L 428.939536 252.694207 
L 428.945188 252.671743 
L 428.396251 252.634198 
L 427.812613 252.555827 
L 426.653309 253.670747 
L 425.406079 252.413214 
L 424.760222 252.403221 
L 423.689099 252.386564 
L 423.212042 252.366274 
L 422.267104 252.298409 
L 421.327223 252.221403 
L 420.85717 252.174337 
L 420.501457 252.134717 
L 419.917582 252.059777 
L 419.45151 251.977256 
L 418.98842 251.870876 
L 418.470741 251.728701 
L 417.125235 251.34163 
L 416.676113 251.18771 
L 416.241205 251.000461 
L 415.177599 250.575523 
L 412.874208 249.670332 
L 412.417375 250.746253 
L 412.119488 250.61991 
L 411.841076 250.501854 
L 410.870444 250.090391 
L 410.67797 249.973177 
L 410.661473 249.997934 
L 410.590988 250.112624 
L 410.000306 251.069423 
L 409.952142 251.14749 
L 409.707634 251.543384 
L 409.194285 252.375032 
L 409.123349 252.489824 
L 408.761202 252.253367 
L 410.282358 249.732351 
L 410.323874 249.676862 
L 410.360979 249.592586 
L 410.39533 249.507192 
L 410.422335 249.418782 
L 410.442021 249.328541 
L 410.458529 249.238468 
L 410.472569 249.147814 
L 410.481334 249.057196 
L 410.491444 248.965725 
L 410.496661 248.875008 
L 410.503244 248.78435 
L 410.52406 248.576695 
L 410.667365 246.372452 
L 410.926982 245.427904 
L 411.031546 245.047371 
L 409.901266 244.891161 
L 409.194558 244.816568 
L 405.902447 244.469101 
L 404.594503 244.667017 
L 404.375912 244.398985 
L 403.600942 243.449988 
L 403.580434 243.424957 
L 403.590964 243.416504 
L 403.430537 243.219998 
L 403.581875 243.09436 
L 402.918793 242.277587 
L 401.922708 241.050414 
L 401.907214 241.033558 
L 401.912037 241.02606 
L 401.754943 240.828292 
L 401.92455 240.690734 
L 401.367542 239.872258 
L 400.447893 238.52105 
L 400.435077 238.502125 
L 400.442418 238.497211 
L 400.387112 238.415956 
L 400.297514 238.284388 
L 400.457057 238.178786 
L 399.705411 237.082871 
L 399.411995 236.117674 
L 399.198132 235.408872 
L 399.08426 234.989974 
L 398.888573 233.812829 
L 398.846937 233.583238 
L 398.762181 233.15353 
L 398.680648 232.790732 
L 398.589892 232.430158 
L 398.490099 232.071988 
L 398.381185 231.716495 
L 398.263426 231.363856 
L 398.136648 231.014348 
L 398.001128 230.668148 
L 397.829098 230.25109 
L 397.653019 229.83586 
L 397.472886 229.422277 
L 397.288793 229.010428 
L 397.011625 228.404938 
L 396.73014 227.801465 
L 396.444246 227.200011 
L 396.15552 226.601906 
L 395.862478 226.005908 
L 395.565121 225.412019 
L 395.47253 225.231126 
L 395.379577 225.050333 
L 395.286176 224.869823 
L 395.205468 224.714531 
L 395.12449 224.559335 
L 395.043243 224.404329 
L 394.86652 224.069501 
L 394.688359 223.735436 
L 394.508941 223.402039 
L 394.471561 223.332844 
L 394.434181 223.263648 
L 394.396803 223.194544 
L 394.389381 223.180685 
L 394.381868 223.166829 
L 394.374267 223.153066 
L 394.291731 223.00128 
L 394.208928 222.849683 
L 394.125856 222.698275 
L 394.079668 222.345937 
L 394.04525 222.083455 
L 393.55074 220.983884 
L 392.637622 219.519615 
L 392.511419 219.344171 
L 392.378871 219.173436 
L 392.240257 219.007676 
L 392.095672 218.84707 
L 392.076171 218.826208 
L 392.056583 218.805531 
L 392.036814 218.784858 
L 391.988961 218.730403 
L 391.940396 218.676603 
L 391.891207 218.623365 
L 391.515658 218.206877 
L 390.933211 217.284118 
L 389.400434 214.920314 
L 387.812639 212.472977 
L 387.375799 211.777334 
L 386.94528 211.076074 
L 386.854199 210.916928 
L 384.901516 207.508122 
L 384.618606 207.014422 
L 384.329333 206.509391 
L 384.316686 206.516801 
L 384.22865 206.359589 
L 381.257542 201.070456 
L 381.132903 200.842574 
L 381.012934 200.61221 
L 380.897547 200.379458 
L 380.786835 200.144499 
L 380.675375 199.897163 
L 380.569135 199.647515 
L 380.468027 199.395739 
L 380.372237 199.141923 
L 380.281766 198.886156 
L 380.361429 198.866848 
L 380.131903 198.072938 
L 380.057569 197.769453 
L 380.002702 197.518326 
L 379.946133 197.238471 
L 379.896362 196.968756 
L 379.848268 196.657539 
L 379.820731 196.455265 
L 379.781959 196.130813 
L 379.759418 195.895796 
L 379.73024 195.497988 
L 379.717749 195.231096 
L 379.706435 194.632008 
L 379.714331 194.240831 
L 379.733605 193.850113 
L 379.746714 193.716645 
L 379.770328 193.402002 
L 379.795821 193.165173 
L 379.830924 192.888421 
L 379.85895 192.683455 
L 379.739841 192.669344 
L 379.775664 192.466069 
L 379.815142 192.263527 
L 379.858367 192.061716 
L 378.149856 192.91435 
L 376.753 193.609355 
L 375.952513 194.007599 
L 375.809331 194.078824 
L 375.676306 194.144977 
L 374.486437 194.736254 
L 372.784556 195.581836 
L 372.743522 195.602217 
L 371.749051 196.095783 
L 371.581778 196.178795 
L 365.979523 198.965388 
L 341.244862 211.2652 
L 338.565052 212.605329 
L 335.654779 214.046966 
L 332.532958 215.601236 
L 329.454991 217.132604 
L 329.376976 217.171203 
L 326.124517 218.77495 
L 325.925935 218.875226 
L 325.734086 218.488109 
L 325.296647 218.807197 
L 325.584049 219.395173 
L 326.05497 220.356612 
L 326.529603 221.309852 
L 322.329817 223.984903 
L 321.957715 224.286479 
L 321.375103 224.855039 
L 320.701195 225.492323 
L 320.062651 226.330815 
L 319.636563 226.740139 
L 317.113813 229.76408 
L 317.755189 230.270096 
L 313.904439 233.465463 
L 312.813962 234.790838 
L 310.950776 237.210309 
L 307.469055 241.850547 
L 303.725574 246.683301 
L 301.017893 250.314942 
L 298.2605 254.014328 
L 295.529182 257.821013 
L 294.100325 260.173697 
L 290.431354 266.932015 
L 287.233456 272.830699 
L 285.005175 276.872698 
L 281.198806 284.093566 
L 279.704382 286.928549 
L 278.668508 288.966958 
L 277.504297 290.957696 
L 276.903649 291.871625 
L 276.302556 292.710009 
L 274.8422 294.718645 
L 274.2543 295.458557 
L 273.370678 296.488677 
L 271.039051 298.706709 
L 269.917991 297.692098 
L 268.217829 299.708542 
L 267.139147 300.982711 
L 265.260021 302.834053 
L 262.727152 304.941692 
L 259.931476 307.247172 
L 259.170466 307.879545 
L 258.125014 307.086886 
L 258.024706 307.195758 
L 257.696517 306.811231 
L 257.757052 306.749891 
L 257.039226 306.042109 
L 256.701238 304.97345 
L 256.047495 305.809306 
L 255.32763 305.236371 
L 255.812429 304.604462 
L 254.850387 304.487331 
L 254.023987 303.847522 
L 253.884558 303.739697 
L 253.039353 303.085488 
L 252.480593 302.648658 
L 251.833382 303.461031 
L 251.025802 304.470767 
L 242.586551 315.419768 
L 237.772107 321.761463 
L 232.080438 329.051993 
L 227.687151 334.67962 
L 227.593234 334.800375 
L 227.552377 334.980089 
L 226.847908 335.88828 
L 227.405182 336.320036 
L 228.321064 337.029631 
L 229.223603 337.728887 
L 229.510564 337.907686 
L 230.522556 338.565197 
L 231.081681 338.987955 
L 232.028945 339.805574 
L 233.501572 341.076665 
L 233.793263 341.328438 
L 233.373035 341.923365 
L 232.902543 342.67453 
L 231.866754 344.309666 
L 227.733913 353.170407 
L 227.198666 355.512625 
L 227.168634 356.266259 
L 227.107544 357.795151 
L 225.289188 361.050666 
L 222.885201 365.354534 
L 220.889198 370.184073 
L 219.262757 374.122526 
L 216.932313 379.412968 
L 216.28718 380.877543 
L 213.607857 386.965092 
L 212.901209 388.565685 
L 210.71269 393.523069 
L 210.661918 393.637952 
L 208.653877 397.226789 
L 205.889926 401.456363 
L 205.583855 401.844296 
L 201.882449 406.535292 
L 196.201556 413.721025 
L 191.026819 420.287364 
L 189.308186 422.307031 
L 183.377942 428.279809 
L 183.149097 428.480502 
L 182.770725 428.891627 
L 180.850858 430.5142 
L 178.206235 432.743352 
L 176.994958 433.784464 
L 175.770857 434.817506 
L 174.633179 435.744367 
L 170.642478 439.24363 
L 169.006093 440.677806 
L 158.077776 452.045241 
L 157.868987 452.262411 
L 157.442066 451.928576 
L 156.692855 452.780581 
L 153.571148 456.428348 
L 151.439033 459.540625 
L 150.36124 460.927168 
L 149.040365 462.626602 
L 146.640842 465.713433 
L 142.539298 470.992618 
L 141.655258 472.128833 
L 140.460469 474.478236 
L 139.609629 475.585119 
L 138.69097 477.683441 
L 137.052549 479.233536 
L 136.443145 479.809745 
L 133.912119 482.200994 
L 129.099687 488.448807 
L 128.328052 489.450515 
L 127.914028 489.987421 
L 124.706454 494.146879 
L 122.768814 496.659765 
L 121.949718 497.719333 
L 120.199638 499.983298 
L 119.619803 500.734527 
L 118.124633 502.671819 
L 118.3979 502.873027 
L 118.802938 503.171086 
L 120.094711 504.123361 
L 118.189988 506.675291 
L 116.845761 505.617579 
L 116.019393 506.844033 
L 115.833877 507.11944 
L 115.363636 507.817319 
L 119.669745 509.207169 
L 119.621683 509.375952 
L 124.726375 510.816321 
L 133.403401 513.280591 
L 135.251 513.752698 
L 137.955231 514.217482 
L 142.237294 515.498313 
L 144.33575 516.317141 
L 149.139775 517.413961 
L 150.95661 518.076729 
L 159.665505 520.596874 
L 165.833089 522.178699 
L 167.229769 522.583173 
L 170.009358 522.954812 
L 170.939234 522.823907 
L 172.397194 523.714414 
L 173.501592 524.38905 
L 173.79677 524.569709 
L 173.963686 524.596542 
L 174.411311 524.668501 
L 174.835526 524.837545 
L 181.125416 526.562613 
L 189.89579 528.967108 
L 192.609087 529.700775 
L 198.618526 531.484031 
L 202.332566 532.366542 
L 203.527397 532.626284 
L 205.118736 532.803861 
L 206.477047 532.878823 
L 208.849248 532.83651 
L 211.499125 532.551243 
L 214.005679 532.310569 
L 216.824932 532.299662 
L 219.97969 532.514783 
L 221.90741 532.577729 
L 222.704473 532.679276 
L 231.694285 533.828197 
L 232.134112 533.880623 
L 232.917594 533.97313 
L 233.653675 534.059584 
L 238.082946 534.494179 
L 239.148462 534.694621 
L 241.877457 534.978524 
L 242.728091 535.063409 
L 243.415999 535.138284 
L 245.782944 533.504716 
L 246.628558 533.14606 
L 247.641295 532.787468 
L 249.167024 531.672053 
L 250.757398 530.765797 
L 251.62191 530.001667 
L 252.127216 529.355947 
L 252.656457 528.74565 
L 253.089607 528.01655 
L 253.862814 526.613459 
L 253.992339 526.372273 
L 254.052745 526.272748 
L 254.295817 526.021893 
L 258.929518 522.320927 
L 259.048869 522.227453 
L 259.667529 522.953034 
L 261.476816 525.104569 
L 262.251496 525.985155 
L 262.308092 526.048681 
L 261.678443 526.546461 
L 261.769169 526.661387 
L 261.93149 526.866545 
L 261.95811 526.900354 
L 262.101984 526.791159 
L 262.608267 526.859693 
L 263.357832 527.795935 
L 263.304942 528.303585 
L 265.04108 528.922465 
L 265.53196 529.368147 
L 265.945561 529.600238 
L 266.899227 529.960661 
L 268.230491 530.264587 
L 270.915017 530.550743 
L 273.713302 530.324335 
L 275.415879 530.047976 
L 279.021762 529.126244 
L 286.771992 527.600744 
L 287.367322 527.32721 
L 288.450622 526.535647 
L 289.833379 526.952323 
L 303.4233 524.549919 
L 305.944307 524.077467 
L 317.862945 521.814833 
L 325.943356 520.355825 
L 325.936429 520.415961 
L 329.208178 519.800408 
L 331.559195 519.358061 
L 332.194342 519.228363 
L 332.663518 519.139465 
L 335.647388 518.573787 
L 337.877906 518.15022 
L 341.1367 517.531237 
L 342.612273 517.251641 
L 344.677778 516.859038 
L 348.519156 516.130646 
L 350.748881 515.707163 
L 351.857784 515.493153 
L 355.085422 514.884679 
L 358.909087 514.159079 
L 358.910326 514.050684 
L 362.187456 513.443631 
L 362.172641 514.143301 
L 364.367059 513.743698 
L 364.342782 514.741348 
L 364.603993 514.482283 
L 366.590266 514.054582 
L 369.255363 513.483258 
L 370.887758 513.13202 
L 373.334955 512.607395 
L 373.713359 512.526268 
L 377.108845 511.796741 
L 379.213632 511.318509 
L 380.122042 511.02259 
L 381.387185 510.628205 
L 382.58841 510.255491 
L 384.088958 509.789239 
L 385.824905 509.250846 
L 390.477839 507.807518 
L 391.423066 507.484587 
L 391.791963 507.358587 
L 394.135085 506.520303 
L 396.01582 505.847258 
L 399.617744 504.57125 
L 402.32283 503.608275 
L 403.149806 503.314707 
L 407.920515 501.585861 
L 409.139389 501.162034 
L 411.02664 500.493637 
L 413.615537 499.576788 
L 416.394327 498.592004 
L 418.216067 497.946431 
L 419.440243 497.51157 
L 421.068078 496.936422 
L 424.603072 495.687364 
L 427.220684 494.760342 
L 428.53891 494.293378 
L 430.744262 497.198023 
L 432.102562 498.953903 
L 433.489548 500.746884 
L 434.281469 499.596703 
L 435.128046 498.367151 
L 435.287434 496.310445 
L 441.338533 498.172454 
L 442.842198 498.635497 
L 444.404085 499.116485 
L 446.062345 499.62618 
L 447.714307 500.134938 
L 449.87468 500.802626 
L 451.702496 501.365649 
L 462.204887 504.600648 
L 465.117577 505.498223 
L 467.121398 506.115654 
L 468.511294 506.542924 
L 471.393005 507.430518 
L 473.047571 507.940401 
L 474.739518 508.471006 
L 476.415319 509.041737 
L 478.157624 509.665949 
L 479.910634 510.250908 
L 481.748905 510.817362 
L 482.399288 511.016624 
L 483.017308 511.177689 
L 483.632443 511.338004 
L 508.490798 518.024382 
L 515.724113 519.931255 
L 516.458191 520.125564 
L 517.128247 520.302928 
L 534.175456 524.811465 
L 535.229416 525.090083 
L 535.02028 525.866224 
L 536.84145 524.645696 
L 540.466692 522.218371 
L 542.081472 521.136326 
L 542.531026 521.435089 
L 544.300624 522.611315 
L 545.363763 523.318006 
L 547.367812 524.650053 
L 547.576752 524.440537 
L 548.192819 525.118272 
L 548.807059 525.787848 
L 549.640495 525.033053 
L 551.166676 523.650995 
L 552.090274 522.814614 
L 552.429663 523.155619 
L 555.244661 525.885154 
L 557.296467 527.750749 
L 557.531174 527.963885 
L 558.326927 528.686359 
L 558.467588 528.810381 
L 558.611964 528.930031 
L 558.75996 529.045131 
L 558.895113 529.147318 
L 559.03053 529.249133 
L 559.166389 529.350391 
L 559.30137 529.449119 
L 559.436882 529.547195 
L 559.572742 529.644626 
L 559.989358 529.93862 
L 560.410106 530.226684 
L 560.834894 530.50873 
L 561.263537 530.784671 
L 561.696127 531.054504 
L 561.740117 530.501441 
L 561.864011 530.393633 
L 561.990341 530.288958 
L 562.119286 530.187321 
L 562.273933 530.073324 
L 562.431593 529.963813 
L 562.592355 529.858695 
L 562.75595 529.758159 
L 562.973706 529.634206 
L 563.195829 529.518263 
L 563.421962 529.410609 
L 563.651924 529.311252 
L 563.885355 529.22038 
L 564.121796 529.137731 
L 564.361076 529.063856 
L 564.602924 528.998762 
L 564.846978 528.942548 
L 565.092878 528.895313 
L 565.252679 528.869784 
L 565.413116 528.848159 
L 565.574005 528.830351 
L 565.792578 528.811555 
L 566.011678 528.799765 
L 566.231032 528.794986 
L 566.450369 528.797317 
L 567.617606 528.829649 
L 576.73625 529.082246 
L 578.071596 529.121969 
L 582.024087 529.228653 
L 594.468299 529.57466 
L 596.651162 529.634541 
L 600.333829 529.737124 
L 602.280539 529.790704 
L 610.042884 530.006956 
L 611.528108 530.04802 
L 613.845412 530.10184 
L 616.450683 530.174563 
L 618.386486 530.228194 
L 619.280325 530.259019 
L 619.327249 528.454003 
L 619.371551 526.723965 
L 619.445761 523.869754 
L 619.515965 521.13667 
L 619.565081 519.226246 
L 619.615132 517.313066 
L 619.665835 515.35348 
L 619.745444 512.257807 
L 619.773436 511.164576 
L 619.853849 508.064327 
L 619.902973 506.150258 
L 619.966256 503.714177 
L 619.970987 503.541995 
L 619.978517 503.408209 
L 619.993606 503.275067 
L 620.016081 503.143029 
L 620.045952 503.012459 
L 620.082413 502.883922 
L 620.126014 502.757589 
L 620.176675 502.633916 
L 620.234131 502.513274 
L 620.249236 502.07518 
L 620.416211 502.076298 
L 620.427199 501.664456 
L 620.515954 501.666852 
L 620.530969 501.083757 
L 620.962523 500.666573 
L 620.90776 500.60943 
L 620.950246 500.568246 
L 620.785142 500.393099 
L 621.002259 500.185433 
L 620.972189 500.1546 
L 620.950276 500.126676 
L 620.934183 500.095061 
L 620.924483 500.060837 
L 620.921663 500.025449 
L 620.925839 499.98999 
L 620.936866 499.956011 
L 620.954319 499.924799 
L 620.977409 499.897648 
L 621.326675 499.560945 
L 622.603089 498.329325 
L 622.636364 496.961915 
L 621.40453 495.671855 
L 621.065127 495.317127 
L 620.960132 495.182775 
L 620.890361 495.01543 
L 620.882911 494.976323 
L 620.919413 494.79857 
L 620.937443 494.764793 
L 621.078171 494.62945 
L 621.121108 494.588074 
L 620.714175 494.162647 
L 620.725841 493.701666 
L 620.653191 493.700171 
L 620.663398 493.333006 
L 620.736141 493.33459 
L 620.749331 492.806039 
L 620.67668 492.804543 
L 620.686 492.438311 
L 620.75865 492.439806 
L 620.769991 492.113719 
L 620.267645 492.100463 
L 620.332453 489.596812 
L 620.391707 487.284684 
L 620.438589 485.485412 
L 620.48477 483.707315 
" clip-path="url(#p1d6e83a4b5)" style="fill: #d3d3d3"/>
   </g>
   <g id="matplotlib.axis_1">
    <g id="xtick_1">
     <g id="line2d_1">
      <defs>
       <path id="m0472b45736" d="M 0 0 
L 0 3.5 
" style="stroke: #000000; stroke-width: 0.8"/>
      </defs>
      <g>
       <use xlink:href="#m0472b45736" x="125.557918" y="552.292113" style="stroke: #000000; stroke-width: 0.8"/>
      </g>
     </g>
     <g id="text_1">
      <!-- 13.24 -->
      <g transform="translate(111.243856 566.89055) scale(0.1 -0.1)">
       <defs>
        <path id="DejaVuSans-31" d="M 794 531 
L 1825 531 
L 1825 4091 
L 703 3866 
L 703 4441 
L 1819 4666 
L 2450 4666 
L 2450 531 
L 3481 531 
L 3481 0 
L 794 0 
L 794 531 
z
" transform="scale(0.015625)"/>
        <path id="DejaVuSans-33" d="M 2597 2516 
Q 3050 2419 3304 2112 
Q 3559 1806 3559 1356 
Q 3559 666 3084 287 
Q 2609 -91 1734 -91 
Q 1441 -91 1130 -33 
Q 819 25 488 141 
L 488 750 
Q 750 597 1062 519 
Q 1375 441 1716 441 
Q 2309 441 2620 675 
Q 2931 909 2931 1356 
Q 2931 1769 2642 2001 
Q 2353 2234 1838 2234 
L 1294 2234 
L 1294 2753 
L 1863 2753 
Q 2328 2753 2575 2939 
Q 2822 3125 2822 3475 
Q 2822 3834 2567 4026 
Q 2313 4219 1838 4219 
Q 1578 4219 1281 4162 
Q 984 4106 628 3988 
L 628 4550 
Q 988 4650 1302 4700 
Q 1616 4750 1894 4750 
Q 2613 4750 3031 4423 
Q 3450 4097 3450 3541 
Q 3450 3153 3228 2886 
Q 3006 2619 2597 2516 
z
" transform="scale(0.015625)"/>
        <path id="DejaVuSans-2e" d="M 684 794 
L 1344 794 
L 1344 0 
L 684 0 
L 684 794 
z
" transform="scale(0.015625)"/>
        <path id="DejaVuSans-32" d="M 1228 531 
L 3431 531 
L 3431 0 
L 469 0 
L 469 531 
Q 828 903 1448 1529 
Q 2069 2156 2228 2338 
Q 2531 2678 2651 2914 
Q 2772 3150 2772 3378 
Q 2772 3750 2511 3984 
Q 2250 4219 1831 4219 
Q 1534 4219 1204 4116 
Q 875 4013 500 3803 
L 500 4441 
Q 881 4594 1212 4672 
Q 1544 4750 1819 4750 
Q 2544 4750 2975 4387 
Q 3406 4025 3406 3419 
Q 3406 3131 3298 2873 
Q 3191 2616 2906 2266 
Q 2828 2175 2409 1742 
Q 1991 1309 1228 531 
z
" transform="scale(0.015625)"/>
        <path id="DejaVuSans-34" d="M 2419 4116 
L 825 1625 
L 2419 1625 
L 2419 4116 
z
M 2253 4666 
L 3047 4666 
L 3047 1625 
L 3713 1625 
L 3713 1100 
L 3047 1100 
L 3047 0 
L 2419 0 
L 2419 1100 
L 313 1100 
L 313 1709 
L 2253 4666 
z
" transform="scale(0.015625)"/>
       </defs>
       <use xlink:href="#DejaVuSans-31"/>
       <use xlink:href="#DejaVuSans-33" x="63.623047"/>
       <use xlink:href="#DejaVuSans-2e" x="127.246094"/>
       <use xlink:href="#DejaVuSans-32" x="159.033203"/>
       <use xlink:href="#DejaVuSans-34" x="222.65625"/>
      </g>
     </g>
    </g>
    <g id="xtick_2">
     <g id="line2d_2">
      <g>
       <use xlink:href="#m0472b45736" x="249.014858" y="552.292113" style="stroke: #000000; stroke-width: 0.8"/>
      </g>
     </g>
     <g id="text_2">
      <!-- 13.26 -->
      <g transform="translate(234.700796 566.89055) scale(0.1 -0.1)">
       <defs>
        <path id="DejaVuSans-36" d="M 2113 2584 
Q 1688 2584 1439 2293 
Q 1191 2003 1191 1497 
Q 1191 994 1439 701 
Q 1688 409 2113 409 
Q 2538 409 2786 701 
Q 3034 994 3034 1497 
Q 3034 2003 2786 2293 
Q 2538 2584 2113 2584 
z
M 3366 4563 
L 3366 3988 
Q 3128 4100 2886 4159 
Q 2644 4219 2406 4219 
Q 1781 4219 1451 3797 
Q 1122 3375 1075 2522 
Q 1259 2794 1537 2939 
Q 1816 3084 2150 3084 
Q 2853 3084 3261 2657 
Q 3669 2231 3669 1497 
Q 3669 778 3244 343 
Q 2819 -91 2113 -91 
Q 1303 -91 875 529 
Q 447 1150 447 2328 
Q 447 3434 972 4092 
Q 1497 4750 2381 4750 
Q 2619 4750 2861 4703 
Q 3103 4656 3366 4563 
z
" transform="scale(0.015625)"/>
       </defs>
       <use xlink:href="#DejaVuSans-31"/>
       <use xlink:href="#DejaVuSans-33" x="63.623047"/>
       <use xlink:href="#DejaVuSans-2e" x="127.246094"/>
       <use xlink:href="#DejaVuSans-32" x="159.033203"/>
       <use xlink:href="#DejaVuSans-36" x="222.65625"/>
      </g>
     </g>
    </g>
    <g id="xtick_3">
     <g id="line2d_3">
      <g>
       <use xlink:href="#m0472b45736" x="372.471798" y="552.292113" style="stroke: #000000; stroke-width: 0.8"/>
      </g>
     </g>
     <g id="text_3">
      <!-- 13.28 -->
      <g transform="translate(358.157736 566.89055) scale(0.1 -0.1)">
       <defs>
        <path id="DejaVuSans-38" d="M 2034 2216 
Q 1584 2216 1326 1975 
Q 1069 1734 1069 1313 
Q 1069 891 1326 650 
Q 1584 409 2034 409 
Q 2484 409 2743 651 
Q 3003 894 3003 1313 
Q 3003 1734 2745 1975 
Q 2488 2216 2034 2216 
z
M 1403 2484 
Q 997 2584 770 2862 
Q 544 3141 544 3541 
Q 544 4100 942 4425 
Q 1341 4750 2034 4750 
Q 2731 4750 3128 4425 
Q 3525 4100 3525 3541 
Q 3525 3141 3298 2862 
Q 3072 2584 2669 2484 
Q 3125 2378 3379 2068 
Q 3634 1759 3634 1313 
Q 3634 634 3220 271 
Q 2806 -91 2034 -91 
Q 1263 -91 848 271 
Q 434 634 434 1313 
Q 434 1759 690 2068 
Q 947 2378 1403 2484 
z
M 1172 3481 
Q 1172 3119 1398 2916 
Q 1625 2713 2034 2713 
Q 2441 2713 2670 2916 
Q 2900 3119 2900 3481 
Q 2900 3844 2670 4047 
Q 2441 4250 2034 4250 
Q 1625 4250 1398 4047 
Q 1172 3844 1172 3481 
z
" transform="scale(0.015625)"/>
       </defs>
       <use xlink:href="#DejaVuSans-31"/>
       <use xlink:href="#DejaVuSans-33" x="63.623047"/>
       <use xlink:href="#DejaVuSans-2e" x="127.246094"/>
       <use xlink:href="#DejaVuSans-32" x="159.033203"/>
       <use xlink:href="#DejaVuSans-38" x="222.65625"/>
      </g>
     </g>
    </g>
    <g id="xtick_4">
     <g id="line2d_4">
      <g>
       <use xlink:href="#m0472b45736" x="495.928738" y="552.292113" style="stroke: #000000; stroke-width: 0.8"/>
      </g>
     </g>
     <g id="text_4">
      <!-- 13.30 -->
      <g transform="translate(481.614676 566.89055) scale(0.1 -0.1)">
       <defs>
        <path id="DejaVuSans-30" d="M 2034 4250 
Q 1547 4250 1301 3770 
Q 1056 3291 1056 2328 
Q 1056 1369 1301 889 
Q 1547 409 2034 409 
Q 2525 409 2770 889 
Q 3016 1369 3016 2328 
Q 3016 3291 2770 3770 
Q 2525 4250 2034 4250 
z
M 2034 4750 
Q 2819 4750 3233 4129 
Q 3647 3509 3647 2328 
Q 3647 1150 3233 529 
Q 2819 -91 2034 -91 
Q 1250 -91 836 529 
Q 422 1150 422 2328 
Q 422 3509 836 4129 
Q 1250 4750 2034 4750 
z
" transform="scale(0.015625)"/>
       </defs>
       <use xlink:href="#DejaVuSans-31"/>
       <use xlink:href="#DejaVuSans-33" x="63.623047"/>
       <use xlink:href="#DejaVuSans-2e" x="127.246094"/>
       <use xlink:href="#DejaVuSans-33" x="159.033203"/>
       <use xlink:href="#DejaVuSans-30" x="222.65625"/>
      </g>
     </g>
    </g>
    <g id="xtick_5">
     <g id="line2d_5">
      <g>
       <use xlink:href="#m0472b45736" x="619.385678" y="552.292113" style="stroke: #000000; stroke-width: 0.8"/>
      </g>
     </g>
     <g id="text_5">
      <!-- 13.32 -->
      <g transform="translate(605.071616 566.89055) scale(0.1 -0.1)">
       <use xlink:href="#DejaVuSans-31"/>
       <use xlink:href="#DejaVuSans-33" x="63.623047"/>
       <use xlink:href="#DejaVuSans-2e" x="127.246094"/>
       <use xlink:href="#DejaVuSans-33" x="159.033203"/>
       <use xlink:href="#DejaVuSans-32" x="222.65625"/>
      </g>
     </g>
    </g>
   </g>
   <g id="matplotlib.axis_2">
    <g id="ytick_1">
     <g id="line2d_6">
      <defs>
       <path id="m79aac735b2" d="M 0 0 
L -3.5 0 
" style="stroke: #000000; stroke-width: 0.8"/>
      </defs>
      <g>
       <use xlink:href="#m79aac735b2" x="90" y="550.333895" style="stroke: #000000; stroke-width: 0.8"/>
      </g>
     </g>
     <g id="text_6">
      <!-- 52.465 -->
      <g transform="translate(48.009375 554.133114) scale(0.1 -0.1)">
       <defs>
        <path id="DejaVuSans-35" d="M 691 4666 
L 3169 4666 
L 3169 4134 
L 1269 4134 
L 1269 2991 
Q 1406 3038 1543 3061 
Q 1681 3084 1819 3084 
Q 2600 3084 3056 2656 
Q 3513 2228 3513 1497 
Q 3513 744 3044 326 
Q 2575 -91 1722 -91 
Q 1428 -91 1123 -41 
Q 819 9 494 109 
L 494 744 
Q 775 591 1075 516 
Q 1375 441 1709 441 
Q 2250 441 2565 725 
Q 2881 1009 2881 1497 
Q 2881 1984 2565 2268 
Q 2250 2553 1709 2553 
Q 1456 2553 1204 2497 
Q 953 2441 691 2322 
L 691 4666 
z
" transform="scale(0.015625)"/>
       </defs>
       <use xlink:href="#DejaVuSans-35"/>
       <use xlink:href="#DejaVuSans-32" x="63.623047"/>
       <use xlink:href="#DejaVuSans-2e" x="127.246094"/>
       <use xlink:href="#DejaVuSans-34" x="159.033203"/>
       <use xlink:href="#DejaVuSans-36" x="222.65625"/>
       <use xlink:href="#DejaVuSans-35" x="286.279297"/>
      </g>
     </g>
    </g>
    <g id="ytick_2">
     <g id="line2d_7">
      <g>
       <use xlink:href="#m79aac735b2" x="90" y="499.651559" style="stroke: #000000; stroke-width: 0.8"/>
      </g>
     </g>
     <g id="text_7">
      <!-- 52.470 -->
      <g transform="translate(48.009375 503.450778) scale(0.1 -0.1)">
       <defs>
        <path id="DejaVuSans-37" d="M 525 4666 
L 3525 4666 
L 3525 4397 
L 1831 0 
L 1172 0 
L 2766 4134 
L 525 4134 
L 525 4666 
z
" transform="scale(0.015625)"/>
       </defs>
       <use xlink:href="#DejaVuSans-35"/>
       <use xlink:href="#DejaVuSans-32" x="63.623047"/>
       <use xlink:href="#DejaVuSans-2e" x="127.246094"/>
       <use xlink:href="#DejaVuSans-34" x="159.033203"/>
       <use xlink:href="#DejaVuSans-37" x="222.65625"/>
       <use xlink:href="#DejaVuSans-30" x="286.279297"/>
      </g>
     </g>
    </g>
    <g id="ytick_3">
     <g id="line2d_8">
      <g>
       <use xlink:href="#m79aac735b2" x="90" y="448.969223" style="stroke: #000000; stroke-width: 0.8"/>
      </g>
     </g>
     <g id="text_8">
      <!-- 52.475 -->
      <g transform="translate(48.009375 452.768442) scale(0.1 -0.1)">
       <use xlink:href="#DejaVuSans-35"/>
       <use xlink:href="#DejaVuSans-32" x="63.623047"/>
       <use xlink:href="#DejaVuSans-2e" x="127.246094"/>
       <use xlink:href="#DejaVuSans-34" x="159.033203"/>
       <use xlink:href="#DejaVuSans-37" x="222.65625"/>
       <use xlink:href="#DejaVuSans-35" x="286.279297"/>
      </g>
     </g>
    </g>
    <g id="ytick_4">
     <g id="line2d_9">
      <g>
       <use xlink:href="#m79aac735b2" x="90" y="398.286887" style="stroke: #000000; stroke-width: 0.8"/>
      </g>
     </g>
     <g id="text_9">
      <!-- 52.480 -->
      <g transform="translate(48.009375 402.086106) scale(0.1 -0.1)">
       <use xlink:href="#DejaVuSans-35"/>
       <use xlink:href="#DejaVuSans-32" x="63.623047"/>
       <use xlink:href="#DejaVuSans-2e" x="127.246094"/>
       <use xlink:href="#DejaVuSans-34" x="159.033203"/>
       <use xlink:href="#DejaVuSans-38" x="222.65625"/>
       <use xlink:href="#DejaVuSans-30" x="286.279297"/>
      </g>
     </g>
    </g>
    <g id="ytick_5">
     <g id="line2d_10">
      <g>
       <use xlink:href="#m79aac735b2" x="90" y="347.604551" style="stroke: #000000; stroke-width: 0.8"/>
      </g>
     </g>
     <g id="text_10">
      <!-- 52.485 -->
      <g transform="translate(48.009375 351.403769) scale(0.1 -0.1)">
       <use xlink:href="#DejaVuSans-35"/>
       <use xlink:href="#DejaVuSans-32" x="63.623047"/>
       <use xlink:href="#DejaVuSans-2e" x="127.246094"/>
       <use xlink:href="#DejaVuSans-34" x="159.033203"/>
       <use xlink:href="#DejaVuSans-38" x="222.65625"/>
       <use xlink:href="#DejaVuSans-35" x="286.279297"/>
      </g>
     </g>
    </g>
    <g id="ytick_6">
     <g id="line2d_11">
      <g>
       <use xlink:href="#m79aac735b2" x="90" y="296.922214" style="stroke: #000000; stroke-width: 0.8"/>
      </g>
     </g>
     <g id="text_11">
      <!-- 52.490 -->
      <g transform="translate(48.009375 300.721433) scale(0.1 -0.1)">
       <defs>
        <path id="DejaVuSans-39" d="M 703 97 
L 703 672 
Q 941 559 1184 500 
Q 1428 441 1663 441 
Q 2288 441 2617 861 
Q 2947 1281 2994 2138 
Q 2813 1869 2534 1725 
Q 2256 1581 1919 1581 
Q 1219 1581 811 2004 
Q 403 2428 403 3163 
Q 403 3881 828 4315 
Q 1253 4750 1959 4750 
Q 2769 4750 3195 4129 
Q 3622 3509 3622 2328 
Q 3622 1225 3098 567 
Q 2575 -91 1691 -91 
Q 1453 -91 1209 -44 
Q 966 3 703 97 
z
M 1959 2075 
Q 2384 2075 2632 2365 
Q 2881 2656 2881 3163 
Q 2881 3666 2632 3958 
Q 2384 4250 1959 4250 
Q 1534 4250 1286 3958 
Q 1038 3666 1038 3163 
Q 1038 2656 1286 2365 
Q 1534 2075 1959 2075 
z
" transform="scale(0.015625)"/>
       </defs>
       <use xlink:href="#DejaVuSans-35"/>
       <use xlink:href="#DejaVuSans-32" x="63.623047"/>
       <use xlink:href="#DejaVuSans-2e" x="127.246094"/>
       <use xlink:href="#DejaVuSans-34" x="159.033203"/>
       <use xlink:href="#DejaVuSans-39" x="222.65625"/>
       <use xlink:href="#DejaVuSans-30" x="286.279297"/>
      </g>
     </g>
    </g>
    <g id="ytick_7">
     <g id="line2d_12">
      <g>
       <use xlink:href="#m79aac735b2" x="90" y="246.239878" style="stroke: #000000; stroke-width: 0.8"/>
      </g>
     </g>
     <g id="text_12">
      <!-- 52.495 -->
      <g transform="translate(48.009375 250.039097) scale(0.1 -0.1)">
       <use xlink:href="#DejaVuSans-35"/>
       <use xlink:href="#DejaVuSans-32" x="63.623047"/>
       <use xlink:href="#DejaVuSans-2e" x="127.246094"/>
       <use xlink:href="#DejaVuSans-34" x="159.033203"/>
       <use xlink:href="#DejaVuSans-39" x="222.65625"/>
       <use xlink:href="#DejaVuSans-35" x="286.279297"/>
      </g>
     </g>
    </g>
    <g id="ytick_8">
     <g id="line2d_13">
      <g>
       <use xlink:href="#m79aac735b2" x="90" y="195.557542" style="stroke: #000000; stroke-width: 0.8"/>
      </g>
     </g>
     <g id="text_13">
      <!-- 52.500 -->
      <g transform="translate(48.009375 199.356761) scale(0.1 -0.1)">
       <use xlink:href="#DejaVuSans-35"/>
       <use xlink:href="#DejaVuSans-32" x="63.623047"/>
       <use xlink:href="#DejaVuSans-2e" x="127.246094"/>
       <use xlink:href="#DejaVuSans-35" x="159.033203"/>
       <use xlink:href="#DejaVuSans-30" x="222.65625"/>
       <use xlink:href="#DejaVuSans-30" x="286.279297"/>
      </g>
     </g>
    </g>
   </g>
   <g id="LineCollection_1">
    <path d="M 379.131066 300.329081 
L 379.613782 300.8876 
L 379.992178 301.2961 
L 384.438479 302.354347 
L 384.751443 302.294542 
L 385.011937 302.147563 
L 385.329839 301.807992 
L 388.181694 298.316992 
L 387.124902 294.467162 
L 386.777988 294.042444 
L 386.284778 293.441352 
L 385.989716 293.100766 
L 385.830456 292.927433 
L 381.567488 292.057724 
L 381.231068 291.987782 
L 381.080451 292.164157 
L 377.92057 295.852817 
" clip-path="url(#p1d6e83a4b5)" style="fill: none; stroke: #ff0000; stroke-opacity: 0.7; stroke-width: 0.5"/>
    <path d="M 437.585458 259.092919 
L 437.700273 259.701107 
L 437.889162 260.642785 
L 437.936075 262.047699 
L 437.931137 263.284348 
L 437.719408 265.974566 
L 437.253976 271.377303 
L 437.205827 271.919604 
L 436.445333 280.519383 
L 436.398419 281.045466 
L 436.343481 281.690145 
L 435.606443 290.294992 
L 435.224344 294.76112 
L 434.496565 303.262575 
L 434.463849 303.648774 
L 434.435454 303.978209 
L 434.36817 304.860082 
" clip-path="url(#p1d6e83a4b5)" style="fill: none; stroke: #ff0000; stroke-opacity: 0.7; stroke-width: 0.5"/>
    <path d="M 427.120013 383.101445 
L 427.665075 383.743084 
L 427.819396 383.940745 
L 428.070631 384.263084 
L 428.220014 385.011156 
L 427.695939 391.915104 
L 427.244087 397.868251 
L 426.747173 404.412354 
L 426.695938 405.083388 
" clip-path="url(#p1d6e83a4b5)" style="fill: none; stroke: #ff0000; stroke-opacity: 0.7; stroke-width: 0.5"/>
    <path d="M 426.547173 406.73766 
L 425.260134 421.982906 
" clip-path="url(#p1d6e83a4b5)" style="fill: none; stroke: #ff0000; stroke-opacity: 0.7; stroke-width: 0.5"/>
    <path d="M 335.248914 362.310537 
L 335.599531 362.354124 
L 339.356943 365.63023 
L 344.892752 370.520062 
L 345.214975 370.804897 
L 345.568679 371.079595 
L 365.293394 386.39377 
L 365.848951 386.82457 
" clip-path="url(#p1d6e83a4b5)" style="fill: none; stroke: #ff0000; stroke-opacity: 0.7; stroke-width: 0.5"/>
    <path d="M 428.433595 252.623825 
L 431.363845 249.848461 
L 432.503353 251.436845 
L 433.655206 253.029284 
L 433.855823 253.358719 
L 428.921867 252.686671 
L 428.659521 252.647139 
L 428.433595 252.623825 
" clip-path="url(#p1d6e83a4b5)" style="fill: none; stroke: #ff0000; stroke-opacity: 0.7; stroke-width: 0.5"/>
    <path d="M 308.853202 295.37843 
L 308.471721 294.931412 
L 304.087147 289.794251 
L 303.953814 289.498266 
L 303.908135 289.23269 
L 303.926036 288.960019 
L 303.982826 288.719785 
L 304.146407 288.53226 
L 339.314968 258.413775 
L 344.079788 255.585701 
L 344.49769 255.4519 
L 344.860654 255.490418 
L 345.227938 255.632329 
L 345.461889 255.85229 
L 346.226705 256.783831 
L 346.601396 257.233891 
L 349.033498 260.158261 
L 349.37856 260.571829 
" clip-path="url(#p1d6e83a4b5)" style="fill: none; stroke: #ff0000; stroke-opacity: 0.7; stroke-width: 0.5"/>
    <path d="M 512.404684 397.258035 
L 512.243573 399.157609 
L 512.121968 400.568606 
L 511.121349 402.354651 
L 510.788633 406.805574 
L 508.293568 441.253344 
L 507.507147 451.834802 
L 507.762703 452.107473 
L 507.980605 452.366967 
L 508.383074 452.813985 
" clip-path="url(#p1d6e83a4b5)" style="fill: none; stroke: #ff0000; stroke-opacity: 0.7; stroke-width: 0.5"/>
    <path d="M 429.174954 372.78759 
L 429.099645 373.571139 
L 428.939151 375.816366 
L 428.839151 377.491924 
" clip-path="url(#p1d6e83a4b5)" style="fill: none; stroke: #ff0000; stroke-opacity: 0.7; stroke-width: 0.5"/>
    <path d="M 431.782364 333.536148 
L 431.747796 334.063244 
L 431.334833 341.073625 
L 430.979894 347.093673 
L 430.781128 350.459993 
L 430.63977 352.862336 
L 430.5194 355.094386 
" clip-path="url(#p1d6e83a4b5)" style="fill: none; stroke: #ff0000; stroke-opacity: 0.7; stroke-width: 0.5"/>
    <path d="M 272.365504 337.298804 
L 273.308715 337.001806 
L 276.135879 335.872603 
L 276.424768 335.754007 
L 277.441436 334.243673 
L 280.292674 330.010684 
L 282.6328 326.53489 
L 282.771689 326.32912 
" clip-path="url(#p1d6e83a4b5)" style="fill: none; stroke: #ff0000; stroke-opacity: 0.7; stroke-width: 0.5"/>
    <path d="M 257.445733 340.910428 
L 258.056227 340.764463 
L 258.300055 340.705671 
L 265.677841 338.935844 
L 271.49575 337.506602 
L 272.365504 337.298804 
" clip-path="url(#p1d6e83a4b5)" style="fill: none; stroke: #ff0000; stroke-opacity: 0.7; stroke-width: 0.5"/>
    <path d="M 388.0212 440.24882 
L 380.073659 430.279605 
L 384.817492 425.187044 
L 387.676755 428.194533 
L 386.705766 432.41029 
L 387.314409 432.433604 
L 387.900212 432.491382 
L 388.534781 432.60491 
L 393.099601 433.964211 
L 393.400836 434.029084 
L 392.890959 435.900276 
L 388.0212 440.24882 
" clip-path="url(#p1d6e83a4b5)" style="fill: none; stroke: #ff0000; stroke-opacity: 0.7; stroke-width: 0.5"/>
    <path d="M 378.903288 301.475516 
L 377.563162 296.157925 
L 381.038475 291.903649 
L 386.536013 292.842286 
L 387.288483 293.798155 
L 388.303299 298.158863 
L 385.182925 302.294542 
L 378.903288 301.475516 
" clip-path="url(#p1d6e83a4b5)" style="fill: none; stroke: #ff0000; stroke-opacity: 0.7; stroke-width: 0.5"/>
    <path d="M 425.260134 421.982906 
L 425.099023 423.822675 
L 425.08606 423.969654 
L 424.873096 424.600142 
L 423.95149 425.681703 
L 423.468774 426.10338 
L 423.399021 426.164199 
L 422.636057 426.805837 
" clip-path="url(#p1d6e83a4b5)" style="fill: none; stroke: #ff0000; stroke-opacity: 0.7; stroke-width: 0.5"/>
    <path d="M 434.069404 308.557865 
L 432.199031 328.96156 
L 431.820018 333.077979 
L 431.782364 333.536148 
" clip-path="url(#p1d6e83a4b5)" style="fill: none; stroke: #ff0000; stroke-opacity: 0.7; stroke-width: 0.5"/>
    <path d="M 434.36817 304.860082 
L 434.286071 305.983202 
L 434.270021 306.144372 
L 434.129898 307.96995 
L 434.069404 308.557865 
" clip-path="url(#p1d6e83a4b5)" style="fill: none; stroke: #ff0000; stroke-opacity: 0.7; stroke-width: 0.5"/>
    <path d="M 377.92057 295.852817 
L 377.751434 296.082915 
L 377.850817 296.4012 
L 378.854522 299.937813 
L 379.131066 300.329081 
" clip-path="url(#p1d6e83a4b5)" style="fill: none; stroke: #ff0000; stroke-opacity: 0.7; stroke-width: 0.5"/>
    <path d="M 430.340387 357.311232 
L 430.305819 357.787646 
L 429.224336 372.143924 
L 429.174954 372.78759 
" clip-path="url(#p1d6e83a4b5)" style="fill: none; stroke: #ff0000; stroke-opacity: 0.7; stroke-width: 0.5"/>
    <path d="M 430.5194 355.094386 
L 430.388535 356.717235 
L 430.340387 357.311232 
" clip-path="url(#p1d6e83a4b5)" style="fill: none; stroke: #ff0000; stroke-opacity: 0.7; stroke-width: 0.5"/>
   </g>
   <g id="patch_3">
    <path d="M 90 552.292113 
L 90 174.907887 
" style="fill: none; stroke: #000000; stroke-width: 0.8; stroke-linejoin: miter; stroke-linecap: square"/>
   </g>
   <g id="patch_4">
    <path d="M 648 552.292113 
L 648 174.907887 
" style="fill: none; stroke: #000000; stroke-width: 0.8; stroke-linejoin: miter; stroke-linecap: square"/>
   </g>
   <g id="patch_5">
    <path d="M 90 552.292113 
L 648 552.292113 
" style="fill: none; stroke: #000000; stroke-width: 0.8; stroke-linejoin: miter; stroke-linecap: square"/>
   </g>
   <g id="patch_6">
    <path d="M 90 174.907887 
L 648 174.907887 
" style="fill: none; stroke: #000000; stroke-width: 0.8; stroke-linejoin: miter; stroke-linecap: square"/>
   </g>
   <g id="text_14">
    <!-- Wilmersdorf_Süd -->
    <g transform="translate(328.254824 407.479081) scale(0.12 -0.12)">
     <defs>
      <path id="DejaVuSans-57" d="M 213 4666 
L 850 4666 
L 1831 722 
L 2809 4666 
L 3519 4666 
L 4500 722 
L 5478 4666 
L 6119 4666 
L 4947 0 
L 4153 0 
L 3169 4050 
L 2175 0 
L 1381 0 
L 213 4666 
z
" transform="scale(0.015625)"/>
      <path id="DejaVuSans-69" d="M 603 3500 
L 1178 3500 
L 1178 0 
L 603 0 
L 603 3500 
z
M 603 4863 
L 1178 4863 
L 1178 4134 
L 603 4134 
L 603 4863 
z
" transform="scale(0.015625)"/>
      <path id="DejaVuSans-6c" d="M 603 4863 
L 1178 4863 
L 1178 0 
L 603 0 
L 603 4863 
z
" transform="scale(0.015625)"/>
      <path id="DejaVuSans-6d" d="M 3328 2828 
Q 3544 3216 3844 3400 
Q 4144 3584 4550 3584 
Q 5097 3584 5394 3201 
Q 5691 2819 5691 2113 
L 5691 0 
L 5113 0 
L 5113 2094 
Q 5113 2597 4934 2840 
Q 4756 3084 4391 3084 
Q 3944 3084 3684 2787 
Q 3425 2491 3425 1978 
L 3425 0 
L 2847 0 
L 2847 2094 
Q 2847 2600 2669 2842 
Q 2491 3084 2119 3084 
Q 1678 3084 1418 2786 
Q 1159 2488 1159 1978 
L 1159 0 
L 581 0 
L 581 3500 
L 1159 3500 
L 1159 2956 
Q 1356 3278 1631 3431 
Q 1906 3584 2284 3584 
Q 2666 3584 2933 3390 
Q 3200 3197 3328 2828 
z
" transform="scale(0.015625)"/>
      <path id="DejaVuSans-65" d="M 3597 1894 
L 3597 1613 
L 953 1613 
Q 991 1019 1311 708 
Q 1631 397 2203 397 
Q 2534 397 2845 478 
Q 3156 559 3463 722 
L 3463 178 
Q 3153 47 2828 -22 
Q 2503 -91 2169 -91 
Q 1331 -91 842 396 
Q 353 884 353 1716 
Q 353 2575 817 3079 
Q 1281 3584 2069 3584 
Q 2775 3584 3186 3129 
Q 3597 2675 3597 1894 
z
M 3022 2063 
Q 3016 2534 2758 2815 
Q 2500 3097 2075 3097 
Q 1594 3097 1305 2825 
Q 1016 2553 972 2059 
L 3022 2063 
z
" transform="scale(0.015625)"/>
      <path id="DejaVuSans-72" d="M 2631 2963 
Q 2534 3019 2420 3045 
Q 2306 3072 2169 3072 
Q 1681 3072 1420 2755 
Q 1159 2438 1159 1844 
L 1159 0 
L 581 0 
L 581 3500 
L 1159 3500 
L 1159 2956 
Q 1341 3275 1631 3429 
Q 1922 3584 2338 3584 
Q 2397 3584 2469 3576 
Q 2541 3569 2628 3553 
L 2631 2963 
z
" transform="scale(0.015625)"/>
      <path id="DejaVuSans-73" d="M 2834 3397 
L 2834 2853 
Q 2591 2978 2328 3040 
Q 2066 3103 1784 3103 
Q 1356 3103 1142 2972 
Q 928 2841 928 2578 
Q 928 2378 1081 2264 
Q 1234 2150 1697 2047 
L 1894 2003 
Q 2506 1872 2764 1633 
Q 3022 1394 3022 966 
Q 3022 478 2636 193 
Q 2250 -91 1575 -91 
Q 1294 -91 989 -36 
Q 684 19 347 128 
L 347 722 
Q 666 556 975 473 
Q 1284 391 1588 391 
Q 1994 391 2212 530 
Q 2431 669 2431 922 
Q 2431 1156 2273 1281 
Q 2116 1406 1581 1522 
L 1381 1569 
Q 847 1681 609 1914 
Q 372 2147 372 2553 
Q 372 3047 722 3315 
Q 1072 3584 1716 3584 
Q 2034 3584 2315 3537 
Q 2597 3491 2834 3397 
z
" transform="scale(0.015625)"/>
      <path id="DejaVuSans-64" d="M 2906 2969 
L 2906 4863 
L 3481 4863 
L 3481 0 
L 2906 0 
L 2906 525 
Q 2725 213 2448 61 
Q 2172 -91 1784 -91 
Q 1150 -91 751 415 
Q 353 922 353 1747 
Q 353 2572 751 3078 
Q 1150 3584 1784 3584 
Q 2172 3584 2448 3432 
Q 2725 3281 2906 2969 
z
M 947 1747 
Q 947 1113 1208 752 
Q 1469 391 1925 391 
Q 2381 391 2643 752 
Q 2906 1113 2906 1747 
Q 2906 2381 2643 2742 
Q 2381 3103 1925 3103 
Q 1469 3103 1208 2742 
Q 947 2381 947 1747 
z
" transform="scale(0.015625)"/>
      <path id="DejaVuSans-6f" d="M 1959 3097 
Q 1497 3097 1228 2736 
Q 959 2375 959 1747 
Q 959 1119 1226 758 
Q 1494 397 1959 397 
Q 2419 397 2687 759 
Q 2956 1122 2956 1747 
Q 2956 2369 2687 2733 
Q 2419 3097 1959 3097 
z
M 1959 3584 
Q 2709 3584 3137 3096 
Q 3566 2609 3566 1747 
Q 3566 888 3137 398 
Q 2709 -91 1959 -91 
Q 1206 -91 779 398 
Q 353 888 353 1747 
Q 353 2609 779 3096 
Q 1206 3584 1959 3584 
z
" transform="scale(0.015625)"/>
      <path id="DejaVuSans-66" d="M 2375 4863 
L 2375 4384 
L 1825 4384 
Q 1516 4384 1395 4259 
Q 1275 4134 1275 3809 
L 1275 3500 
L 2222 3500 
L 2222 3053 
L 1275 3053 
L 1275 0 
L 697 0 
L 697 3053 
L 147 3053 
L 147 3500 
L 697 3500 
L 697 3744 
Q 697 4328 969 4595 
Q 1241 4863 1831 4863 
L 2375 4863 
z
" transform="scale(0.015625)"/>
      <path id="DejaVuSans-5f" d="M 3263 -1063 
L 3263 -1509 
L -63 -1509 
L -63 -1063 
L 3263 -1063 
z
" transform="scale(0.015625)"/>
      <path id="DejaVuSans-53" d="M 3425 4513 
L 3425 3897 
Q 3066 4069 2747 4153 
Q 2428 4238 2131 4238 
Q 1616 4238 1336 4038 
Q 1056 3838 1056 3469 
Q 1056 3159 1242 3001 
Q 1428 2844 1947 2747 
L 2328 2669 
Q 3034 2534 3370 2195 
Q 3706 1856 3706 1288 
Q 3706 609 3251 259 
Q 2797 -91 1919 -91 
Q 1588 -91 1214 -16 
Q 841 59 441 206 
L 441 856 
Q 825 641 1194 531 
Q 1563 422 1919 422 
Q 2459 422 2753 634 
Q 3047 847 3047 1241 
Q 3047 1584 2836 1778 
Q 2625 1972 2144 2069 
L 1759 2144 
Q 1053 2284 737 2584 
Q 422 2884 422 3419 
Q 422 4038 858 4394 
Q 1294 4750 2059 4750 
Q 2388 4750 2728 4690 
Q 3069 4631 3425 4513 
z
" transform="scale(0.015625)"/>
      <path id="DejaVuSans-fc" d="M 544 1381 
L 544 3500 
L 1119 3500 
L 1119 1403 
Q 1119 906 1312 657 
Q 1506 409 1894 409 
Q 2359 409 2629 706 
Q 2900 1003 2900 1516 
L 2900 3500 
L 3475 3500 
L 3475 0 
L 2900 0 
L 2900 538 
Q 2691 219 2414 64 
Q 2138 -91 1772 -91 
Q 1169 -91 856 284 
Q 544 659 544 1381 
z
M 1991 3584 
L 1991 3584 
z
M 2278 4850 
L 2912 4850 
L 2912 4219 
L 2278 4219 
L 2278 4850 
z
M 1056 4850 
L 1690 4850 
L 1690 4219 
L 1056 4219 
L 1056 4850 
z
" transform="scale(0.015625)"/>
     </defs>
     <use xlink:href="#DejaVuSans-57"/>
     <use xlink:href="#DejaVuSans-69" x="96.626953"/>
     <use xlink:href="#DejaVuSans-6c" x="124.410156"/>
     <use xlink:href="#DejaVuSans-6d" x="152.193359"/>
     <use xlink:href="#DejaVuSans-65" x="249.605469"/>
     <use xlink:href="#DejaVuSans-72" x="311.128906"/>
     <use xlink:href="#DejaVuSans-73" x="352.242188"/>
     <use xlink:href="#DejaVuSans-64" x="404.341797"/>
     <use xlink:href="#DejaVuSans-6f" x="467.818359"/>
     <use xlink:href="#DejaVuSans-72" x="529"/>
     <use xlink:href="#DejaVuSans-66" x="570.113281"/>
     <use xlink:href="#DejaVuSans-5f" x="605.318359"/>
     <use xlink:href="#DejaVuSans-53" x="655.318359"/>
     <use xlink:href="#DejaVuSans-fc" x="718.794922"/>
     <use xlink:href="#DejaVuSans-64" x="782.173828"/>
    </g>
   </g>
  </g>
 </g>
 <defs>
  <clipPath id="p1d6e83a4b5">
   <rect x="90" y="174.907887" width="558" height="377.384225"/>
  </clipPath>
 </defs>
</svg>
