<?xml version="1.0" encoding="utf-8" standalone="no"?>
<!DOCTYPE svg PUBLIC "-//W3C//DTD SVG 1.1//EN"
  "http://www.w3.org/Graphics/SVG/1.1/DTD/svg11.dtd">
<svg xmlns:xlink="http://www.w3.org/1999/xlink" width="720pt" height="720pt" viewBox="0 0 720 720" xmlns="http://www.w3.org/2000/svg" version="1.1">
 <metadata>
  <rdf:RDF xmlns:dc="http://purl.org/dc/elements/1.1/" xmlns:cc="http://creativecommons.org/ns#" xmlns:rdf="http://www.w3.org/1999/02/22-rdf-syntax-ns#">
   <cc:Work>
    <dc:type rdf:resource="http://purl.org/dc/dcmitype/StillImage"/>
    <dc:date>2024-10-22T09:54:12.411653</dc:date>
    <dc:format>image/svg+xml</dc:format>
    <dc:creator>
     <cc:Agent>
      <dc:title>Matplotlib v3.9.2, https://matplotlib.org/</dc:title>
     </cc:Agent>
    </dc:creator>
   </cc:Work>
  </rdf:RDF>
 </metadata>
 <defs>
  <style type="text/css">*{stroke-linejoin: round; stroke-linecap: butt}</style>
 </defs>
 <g id="figure_1">
  <g id="patch_1">
   <path d="M 0 720 
L 720 720 
L 720 0 
L 0 0 
z
" style="fill: #ffffff"/>
  </g>
  <g id="axes_1">
   <g id="patch_2">
    <path d="M 90 594.700464 
L 648 594.700464 
L 648 132.499536 
L 90 132.499536 
z
" style="fill: #ffffff"/>
   </g>
   <g id="PatchCollection_1">
    <path d="M 321.510206 568.974205 
L 322.048638 568.857534 
L 323.058711 568.698206 
L 323.611522 568.60922 
L 324.768252 568.423191 
L 325.800494 568.259644 
L 327.982949 567.913863 
L 330.162431 567.568637 
L 332.349597 567.222139 
L 334.386505 566.899519 
L 336.417291 566.577369 
L 336.858438 566.507341 
L 337.246834 566.445726 
L 338.436087 565.938123 
L 340.455471 565.076106 
L 340.735999 564.956405 
L 341.893554 564.462257 
L 342.496458 564.433051 
L 343.04624 564.406425 
L 344.53323 564.33452 
L 346.854243 564.222117 
L 347.782021 564.177222 
L 348.953442 564.692612 
L 351.039251 565.621515 
L 351.323754 565.748172 
L 353.291225 566.612373 
L 355.730885 567.68418 
L 357.76941 568.689266 
L 358.182304 568.819411 
L 359.014566 569.213465 
L 361.691676 568.701778 
L 364.870287 568.709053 
L 367.150419 568.530727 
L 367.947468 568.575802 
L 368.713559 568.619152 
L 371.112088 568.726679 
L 374.471325 568.430444 
L 376.391703 568.201425 
L 378.39995 567.982133 
L 380.810417 568.037599 
L 384.877369 567.848999 
L 388.796539 567.703089 
L 390.195016 567.600429 
L 390.801082 567.561677 
L 390.772709 567.716529 
L 390.680323 568.22071 
L 391.231701 568.194328 
L 392.049837 568.155185 
L 392.090743 568.155026 
L 392.349624 567.627889 
L 392.438888 567.524181 
L 392.849735 567.046945 
L 392.863628 566.970394 
L 393.10574 566.958311 
L 398.103399 566.704484 
L 405.154167 566.456615 
L 410.327939 566.200686 
L 412.080672 565.806378 
L 412.349371 565.746109 
L 414.745311 565.152047 
L 415.125748 564.914721 
L 422.468184 562.169548 
L 424.984227 561.228897 
L 427.408717 560.286174 
L 427.376008 560.168003 
L 427.29081 559.893073 
L 427.264511 559.806404 
L 427.082903 559.2156 
L 427.066122 559.159724 
L 427.568945 559.037005 
L 428.259393 558.862293 
L 428.869699 558.678463 
L 430.199964 558.227549 
L 431.274975 557.84708 
L 432.100965 557.527521 
L 434.612623 556.356512 
L 436.599773 555.415495 
L 438.176767 554.668758 
L 440.307724 553.657841 
L 442.280314 552.722318 
L 443.152166 552.308925 
L 443.933658 551.938335 
L 444.833916 551.51127 
L 447.614332 550.192587 
L 448.509853 549.76785 
L 448.998243 549.536278 
L 449.499631 549.29849 
L 453.656611 547.327032 
L 456.789971 545.840652 
L 456.968135 545.756378 
L 457.147145 545.671295 
L 458.774505 544.96294 
L 458.87817 544.916838 
L 458.350812 543.782302 
L 458.211236 543.486358 
L 458.062119 543.161989 
L 457.72038 542.427448 
L 457.387272 541.712595 
L 456.787763 540.426948 
L 456.455517 539.712076 
L 450.877788 527.741143 
L 450.922139 527.695379 
L 450.959667 527.643696 
L 450.989455 527.587298 
L 451.010974 527.527145 
L 451.023704 527.46459 
L 451.027597 527.400898 
L 451.022361 527.337178 
L 451.00819 527.274927 
L 450.985424 527.215321 
L 450.954406 527.159534 
L 450.915871 527.108813 
L 450.870548 527.064009 
L 450.819324 527.026048 
L 450.763318 526.995773 
L 450.703568 526.973791 
L 450.641343 526.960546 
L 450.577826 526.956169 
L 450.514362 526.960945 
L 449.422104 524.616847 
L 449.309819 524.37599 
L 449.04006 523.796992 
L 448.130157 521.844047 
L 445.627386 516.469327 
L 445.417768 516.019072 
L 445.288492 515.74428 
L 440.704986 505.899518 
L 439.877264 504.123433 
L 439.871389 504.110863 
L 439.46452 503.236194 
L 438.569065 501.313713 
L 437.736229 499.528202 
L 436.819275 497.557691 
L 435.937227 495.665131 
L 435.351427 494.372887 
L 434.739562 493.097107 
L 434.547622 492.684564 
L 433.629025 490.712441 
L 432.787045 488.904267 
L 431.78879 486.760459 
L 431.58335 486.318795 
L 429.930241 482.769848 
L 429.13854 481.069341 
L 428.753422 480.24279 
L 428.606263 479.927068 
L 428.989657 479.821392 
L 430.124921 479.50929 
L 430.579799 479.363931 
L 435.217628 477.530644 
L 437.710896 476.543558 
L 445.029836 473.657123 
L 452.344157 470.746393 
L 458.187485 468.422975 
L 459.247626 467.954865 
L 462.013062 466.734446 
L 462.01541 466.733409 
L 462.031063 466.726263 
L 464.815384 465.497661 
L 465.091021 465.761598 
L 468.585838 464.252179 
L 468.700467 463.775758 
L 467.888356 463.056437 
L 463.194412 458.85023 
L 461.197961 456.745951 
L 461.074444 456.630503 
L 460.685658 456.285051 
L 459.458887 455.194931 
L 457.643872 453.582615 
L 456.771538 452.829824 
L 456.310697 452.393235 
L 456.040802 452.160817 
L 455.839909 451.979366 
L 455.424463 451.604152 
L 454.271016 450.562549 
L 452.710626 449.153354 
L 451.47552 448.038041 
L 450.302201 446.978441 
L 449.193244 445.97702 
L 448.017019 444.914811 
L 447.242647 444.221415 
L 446.789761 444.050508 
L 440.903774 438.660026 
L 439.162564 437.122561 
L 435.92497 434.14854 
L 433.484579 432.060245 
L 428.244026 427.440317 
L 427.852606 427.082176 
L 424.122062 423.668573 
L 419.228051 419.209871 
L 417.279557 417.448134 
L 416.236625 416.505254 
L 415.400649 415.749349 
L 415.182725 415.523727 
L 415.367567 414.505831 
L 414.914353 414.370716 
L 414.817719 414.281869 
L 413.41345 412.990765 
L 409.266581 409.148655 
L 409.233927 409.11824 
L 407.04086 407.089099 
L 406.823045 407.497773 
L 402.353475 403.46261 
L 397.148302 398.823265 
L 397.328559 398.670341 
L 397.509661 398.516529 
L 396.559232 397.667753 
L 395.618122 396.827364 
L 394.691068 395.999436 
L 393.374057 394.811477 
L 392.941413 394.433099 
L 392.367551 393.757103 
L 391.358954 392.567921 
L 391.152647 392.325077 
L 390.716673 392.488509 
L 389.545577 392.335187 
L 389.47855 392.326325 
L 389.086908 392.749929 
L 389.071136 392.734986 
L 389.056129 392.722471 
L 389.02247 392.761208 
L 388.724942 392.477553 
L 388.177664 391.955313 
L 387.371948 391.186464 
L 387.297564 390.515759 
L 387.239123 390.466295 
L 386.26927 389.558731 
L 385.710332 389.035726 
L 385.207867 388.565623 
L 383.726042 387.179031 
L 383.614384 387.074617 
L 382.777893 386.291806 
L 381.863372 385.436235 
L 379.90535 383.604124 
L 378.949301 382.709595 
L 378.194599 382.006332 
L 376.823038 380.655637 
L 376.007437 379.834478 
L 374.536427 378.35337 
L 374.289109 378.104386 
L 373.930669 377.808505 
L 373.77364 377.689286 
L 373.382533 377.352499 
L 372.241334 376.369881 
L 371.354838 375.615322 
L 370.528079 374.928742 
L 369.481512 373.974867 
L 369.296177 373.806041 
L 369.133434 373.65768 
L 368.654768 373.221215 
L 367.623627 372.281269 
L 366.359622 371.003236 
L 365.180082 369.810914 
L 364.887758 369.515556 
L 364.31236 368.685049 
L 364.283206 368.659923 
L 363.647703 367.759478 
L 363.30584 367.275885 
L 362.396587 365.988511 
L 361.481728 364.697245 
L 357.647424 359.257711 
L 356.540246 357.695134 
L 354.367028 354.614012 
L 353.6397 353.584649 
L 352.697494 352.148447 
L 351.667368 350.57691 
L 351.174756 351.675386 
L 350.612307 350.86959 
L 350.125122 350.171623 
L 350.019114 350.019818 
L 350.048078 349.999258 
L 350.033888 349.977967 
L 350.24512 349.503838 
L 348.149107 346.473745 
L 347.621098 345.710892 
L 347.311598 345.26341 
L 346.978389 344.781366 
L 346.605529 344.242639 
L 345.056458 342.002909 
L 344.159555 340.706846 
L 343.263513 339.410844 
L 342.324131 338.116565 
L 341.399036 336.841209 
L 340.945612 336.216853 
L 340.531155 335.521357 
L 339.760218 334.227182 
L 339.507413 333.801585 
L 339.45509 333.711109 
L 338.931289 332.829171 
L 337.444356 330.726828 
L 336.396114 329.244923 
L 336.334356 329.158377 
L 336.278214 329.079749 
L 336.397484 329.012259 
L 336.65528 328.862683 
L 334.690172 326.02786 
L 333.632911 324.602674 
L 333.033249 323.794244 
L 326.186474 314.577096 
L 326.169098 314.554302 
L 326.120984 314.492769 
L 326.064675 314.420695 
L 324.862303 314.813028 
L 324.496653 314.346733 
L 324.088738 313.826543 
L 324.691128 313.616064 
L 324.815526 313.572599 
L 324.829176 313.568209 
L 325.180911 313.45509 
L 326.901725 312.894883 
L 328.630034 312.331747 
L 331.646483 311.353312 
L 332.889253 310.95059 
L 333.231901 310.840247 
L 335.095761 310.235075 
L 336.592855 309.74902 
L 338.090343 309.262804 
L 340.612064 308.10856 
L 341.907592 307.537296 
L 343.272238 306.935561 
L 344.343526 306.466483 
L 347.120567 305.246597 
L 347.731683 304.990341 
L 348.742216 304.603259 
L 349.207672 304.339428 
L 351.553903 303.406272 
L 352.760642 302.910943 
L 354.948334 301.998149 
L 355.906693 301.60796 
L 355.980238 301.577999 
L 356.251215 301.438569 
L 356.941845 301.083179 
L 358.965109 300.017988 
L 360.093436 299.41979 
L 361.119993 298.873519 
L 362.950405 297.907293 
L 364.42796 297.093844 
L 364.856815 296.904351 
L 367.877311 295.30894 
L 369.309826 294.627078 
L 370.740729 293.946757 
L 372.290181 293.207662 
L 374.10908 292.340475 
L 374.286535 292.255312 
L 374.826558 292.004222 
L 375.785875 291.558191 
L 376.810889 291.11703 
L 378.19894 290.519801 
L 379.583725 289.924152 
L 380.969381 289.328488 
L 382.358214 288.730467 
L 383.310208 288.321161 
L 385.358888 287.641559 
L 386.353852 287.337006 
L 387.633321 286.94608 
L 388.912794 286.555157 
L 390.192329 286.163449 
L 391.471807 285.772535 
L 392.526904 285.449796 
L 392.7505 285.381643 
L 393.279301 285.219931 
L 393.503441 285.15145 
L 394.594277 284.818104 
L 395.911514 284.415204 
L 397.311173 283.786448 
L 397.418798 283.73866 
L 397.526405 283.690083 
L 398.430329 283.284454 
L 398.854705 283.093998 
L 400.18293 282.49784 
L 400.290537 282.449264 
L 400.398147 282.400767 
L 401.618766 281.853111 
L 402.839451 281.304747 
L 402.947079 281.257039 
L 403.054687 281.208464 
L 403.718365 280.910047 
L 404.382925 280.61232 
L 404.9556 280.355309 
L 405.711166 280.016181 
L 405.818777 279.967686 
L 405.926386 279.919111 
L 407.254711 279.322976 
L 409.12649 278.48259 
L 409.882144 278.143547 
L 410.082575 278.740157 
L 410.436198 279.792771 
L 413.075792 278.607795 
L 413.411799 279.109875 
L 413.49015 279.226747 
L 413.88706 279.819746 
L 414.668237 280.986705 
L 415.282101 281.903673 
L 415.983961 282.953153 
L 416.158449 283.214106 
L 416.680348 283.994159 
L 417.034774 284.523831 
L 417.184548 284.747556 
L 417.911091 285.833479 
L 417.961786 285.905064 
L 418.244658 286.329306 
L 418.389486 286.546834 
L 418.787483 287.143206 
L 419.297133 287.904607 
L 419.662965 288.451299 
L 420.538538 289.760181 
L 421.086919 290.579953 
L 421.414833 291.069917 
L 422.677428 292.957756 
L 422.698778 292.989222 
L 422.835596 293.194152 
L 422.862664 293.23464 
L 423.178579 293.730249 
L 423.207853 293.774237 
L 423.346388 293.981968 
L 425.335686 296.958509 
L 426.212747 298.272183 
L 427.113585 299.620426 
L 427.989869 300.931676 
L 428.846331 302.213083 
L 428.216549 302.656503 
L 425.518551 304.556244 
L 426.069569 304.519139 
L 426.215537 304.509298 
L 426.605573 304.483012 
L 427.548122 304.419589 
L 429.310981 304.300542 
L 429.805393 304.359285 
L 430.089203 304.49304 
L 430.694635 304.785642 
L 431.186878 305.301887 
L 431.785047 305.929638 
L 432.874629 307.072078 
L 433.967384 308.219262 
L 435.059369 309.364099 
L 436.151288 310.50973 
L 437.2515 311.663695 
L 437.53005 311.956269 
L 437.362626 312.001873 
L 437.595265 312.308141 
L 437.882321 312.68605 
L 437.376523 312.923083 
L 437.586678 313.147792 
L 437.898099 313.480011 
L 441.750098 317.589083 
L 441.779319 317.620605 
L 442.204476 318.079306 
L 443.704423 319.697548 
L 444.100515 320.124882 
L 444.634072 320.700482 
L 445.102894 321.206394 
L 445.339159 321.461281 
L 448.027981 324.362245 
L 448.370461 324.731477 
L 448.40412 324.767791 
L 449.301555 325.485896 
L 449.45027 325.434809 
L 449.554542 325.398949 
L 449.632932 325.326045 
L 449.656102 325.351237 
L 451.095563 326.915898 
L 451.237176 326.912165 
L 451.48469 326.826845 
L 453.125512 326.260998 
L 454.142907 325.910178 
L 456.54972 325.080435 
L 459.153749 324.182174 
L 460.233399 323.809658 
L 462.686777 322.963338 
L 463.359972 322.73109 
L 472.954398 319.430163 
L 474.140948 319.021773 
L 475.555331 318.534374 
L 484.02388 315.619018 
L 484.773085 315.635846 
L 485.018099 315.733522 
L 485.346626 315.620247 
L 486.062474 315.379328 
L 486.783946 315.150197 
L 487.165118 315.035953 
L 487.25437 314.507172 
L 487.336082 314.479415 
L 487.496382 314.425 
L 487.793469 314.327599 
L 490.085357 313.668153 
L 492.021232 313.304275 
L 494.229757 313.07265 
L 494.20751 313.433155 
L 502.753696 313.911764 
L 506.682399 314.131912 
L 509.361435 314.296874 
L 512.30726 314.478955 
L 519.696705 314.940198 
L 530.448939 315.604353 
L 530.470472 315.252548 
L 538.213932 315.722249 
L 544.927155 316.14155 
L 553.168041 316.649937 
L 553.51033 316.670793 
L 554.13201 316.70656 
L 554.571246 316.731563 
L 554.877368 316.750955 
L 555.025335 316.759899 
L 556.796928 316.871187 
L 558.976965 317.008074 
L 559.576482 317.051495 
L 560.62893 317.110422 
L 561.964893 317.191631 
L 562.926167 317.250033 
L 564.418333 317.342457 
L 565.910496 317.434807 
L 567.298776 317.518081 
L 569.561329 317.621116 
L 572.656195 317.761293 
L 573.835338 317.814697 
L 573.994287 317.821978 
L 573.961777 318.414473 
L 574.876257 318.457712 
L 577.554245 318.586085 
L 577.636944 318.591311 
L 580.079633 318.709495 
L 582.426398 318.822532 
L 585.771798 318.982464 
L 585.996076 318.992767 
L 586.435987 319.014044 
L 597.310806 319.235548 
L 598.502364 319.326782 
L 598.684204 319.340342 
L 600.03769 319.606097 
L 601.353106 320.020204 
L 602.609352 320.586059 
L 603.805767 319.603058 
L 612.419001 319.768289 
L 615.499262 319.827706 
L 617.508586 319.866434 
L 617.781638 319.871788 
L 618.606382 317.954475 
L 619.138986 316.695411 
L 619.552511 315.717751 
L 619.623562 315.547987 
L 619.563687 315.083604 
L 621.878777 309.24224 
L 622.262015 302.210323 
L 622.636364 295.339351 
L 622.554327 289.365172 
L 622.471065 283.280545 
L 622.27914 279.74618 
L 622.265139 279.48751 
L 621.078064 272.216278 
L 620.995346 271.709642 
L 619.241215 260.965709 
L 616.63382 252.302931 
L 611.625418 239.661668 
L 611.610494 239.631782 
L 611.487738 239.386776 
L 611.454014 239.319403 
L 611.389546 239.190612 
L 611.223669 238.859383 
L 608.504236 232.471678 
L 608.470128 232.390618 
L 605.999829 226.587238 
L 605.905396 226.365976 
L 605.487352 225.446251 
L 605.333222 225.028745 
L 604.672891 223.235193 
L 603.438207 219.924624 
L 601.827114 215.87 
L 598.963585 208.889053 
L 597.052155 204.300783 
L 594.347439 198.409196 
L 590.800812 191.082919 
L 589.439171 188.427472 
L 587.852792 185.222299 
L 587.591921 184.693193 
L 587.265054 184.191939 
L 586.778691 183.089445 
L 586.202691 181.81538 
L 585.682216 180.887029 
L 585.382794 180.35288 
L 582.203982 174.483646 
L 581.871242 173.879945 
L 581.410114 173.048735 
L 581.265901 172.779525 
L 580.679536 171.686094 
L 578.583251 167.697177 
L 577.614127 165.885898 
L 577.014262 164.331937 
L 574.395423 157.545029 
L 573.807712 154.990125 
L 573.364965 154.228265 
L 572.688217 154.510741 
L 572.392871 154.70194 
L 572.369857 154.885773 
L 572.266784 155.116482 
L 572.203579 155.25396 
L 572.014194 155.359502 
L 571.270673 155.221006 
L 570.906846 154.971543 
L 570.214848 154.948747 
L 569.825849 154.906051 
L 569.457545 154.726763 
L 569.142084 154.108714 
L 568.850952 153.720217 
L 568.588161 153.519201 
L 568.454273 153.508669 
L 568.169513 153.777832 
L 567.931624 154.176213 
L 567.829066 154.321687 
L 567.590753 154.388019 
L 567.426666 154.275037 
L 567.354563 153.925125 
L 567.202791 153.538435 
L 566.955735 153.562986 
L 566.745174 153.902116 
L 566.817014 154.390049 
L 566.807945 154.942949 
L 566.780978 155.101621 
L 566.694718 155.198116 
L 566.552432 155.251536 
L 566.027854 155.161894 
L 565.783004 154.907996 
L 565.208832 154.179039 
L 564.738329 153.795804 
L 564.269981 153.594806 
L 564.12272 153.57803 
L 563.842699 153.631897 
L 563.54635 153.747292 
L 563.303961 153.974541 
L 563.106673 154.287567 
L 563.002655 154.448463 
L 562.783501 155.034072 
L 562.618735 155.399073 
L 562.509704 155.502004 
L 562.322507 155.540585 
L 561.654819 155.502732 
L 560.695078 155.45337 
L 560.297312 155.590485 
L 560.072016 155.758558 
L 559.975058 155.93555 
L 559.993929 156.160255 
L 560.782772 157.910723 
L 561.167431 158.711451 
L 561.166567 158.840254 
L 561.147989 159.004101 
L 561.098724 159.092655 
L 561.028834 159.143326 
L 560.904075 159.254191 
L 560.745946 159.272148 
L 559.873032 159.07104 
L 559.054032 158.958904 
L 557.950529 158.984232 
L 557.835373 159.140017 
L 557.77535 159.31688 
L 557.726113 159.827372 
L 557.609087 160.349111 
L 557.326721 160.62604 
L 557.161872 160.750602 
L 556.979346 160.762328 
L 556.685674 160.533141 
L 556.61823 160.385848 
L 556.567809 160.166044 
L 556.557902 160.031173 
L 556.651771 159.877844 
L 556.877341 159.343062 
L 557.027421 158.837695 
L 557.040163 158.666562 
L 556.963021 158.456203 
L 556.702397 158.211903 
L 556.476358 158.173247 
L 555.946868 158.464636 
L 555.394086 158.41621 
L 555.25081 158.199859 
L 555.601169 157.566045 
L 555.619914 157.308842 
L 555.593548 157.101037 
L 555.412415 156.96572 
L 555.110188 156.977882 
L 554.959577 157.115615 
L 554.796603 157.329936 
L 554.646016 157.680729 
L 554.233787 158.183854 
L 553.567397 158.491537 
L 553.39594 158.526056 
L 552.359539 158.829534 
L 551.95686 158.92329 
L 551.03878 159.064679 
L 550.681474 159.092853 
L 550.178996 159.231099 
L 549.692199 159.348867 
L 549.22927 159.539795 
L 548.904793 159.709817 
L 548.646238 160.046735 
L 548.646789 160.407978 
L 548.833794 160.975907 
L 548.83673 161.129717 
L 548.801831 161.264739 
L 548.619129 161.456233 
L 548.460208 161.477369 
L 548.345042 161.424122 
L 547.986965 161.446004 
L 547.676564 161.357982 
L 547.46618 161.318502 
L 547.193165 161.333714 
L 547.098738 161.354566 
L 546.825014 161.619784 
L 546.883626 161.93662 
L 546.846593 162.144211 
L 546.753069 162.39933 
L 546.673904 162.711174 
L 546.529046 162.9183 
L 546.244364 163.207285 
L 545.892285 163.576873 
L 545.707873 163.932464 
L 545.575417 164.08912 
L 545.433179 164.15825 
L 545.300149 164.161122 
L 545.081842 164.091759 
L 544.234408 163.743095 
L 542.839843 163.598412 
L 542.380292 163.649757 
L 540.986417 164.111577 
L 540.678296 164.242015 
L 540.482962 164.407602 
L 540.418618 164.688651 
L 540.354188 164.920777 
L 540.366852 165.169927 
L 540.354621 165.484667 
L 540.348948 166.067556 
L 540.055556 166.336779 
L 539.912952 166.316828 
L 539.664695 166.232526 
L 539.429337 166.216899 
L 538.435884 165.999727 
L 538.129114 166.047358 
L 537.974419 166.150469 
L 537.88135 166.310886 
L 537.858405 166.490065 
L 537.828077 166.590342 
L 538.191869 167.268026 
L 538.576604 167.660995 
L 538.50827 167.904968 
L 538.405451 167.989695 
L 538.388188 168.006344 
L 538.364638 168.016666 
L 538.083397 167.946768 
L 537.748233 167.98897 
L 537.511031 167.926749 
L 537.353523 167.899012 
L 537.206182 167.857706 
L 536.965222 167.838105 
L 536.684335 167.863604 
L 536.27261 167.853261 
L 536.14512 167.8538 
L 535.862877 167.74676 
L 535.786619 167.551457 
L 535.736167 167.330788 
L 535.547602 166.774658 
L 535.41241 166.401334 
L 535.29712 166.29759 
L 535.052752 166.200734 
L 534.69113 166.111365 
L 534.495576 166.034782 
L 534.156216 165.99975 
L 533.816325 166.052322 
L 533.764501 166.072994 
L 533.693834 166.130869 
L 533.634338 166.219423 
L 533.567294 166.39866 
L 533.488087 167.311497 
L 533.398727 167.628154 
L 533.103209 168.171095 
L 532.632941 168.655208 
L 532.437897 168.985876 
L 531.680668 169.838185 
L 531.480798 170.053436 
L 531.21264 170.337557 
L 531.154167 170.488428 
L 531.214137 170.951216 
L 531.260644 171.403738 
L 531.244803 171.593881 
L 531.270037 171.824121 
L 531.225058 172.426845 
L 531.190125 172.553111 
L 531.065895 172.794178 
L 530.939315 172.845122 
L 530.799309 172.870095 
L 530.654227 172.796466 
L 530.559468 172.712456 
L 530.388659 172.515129 
L 530.001854 171.999981 
L 529.736565 171.786423 
L 529.436842 171.617131 
L 529.102844 171.537159 
L 528.600847 171.595012 
L 527.400981 171.945768 
L 527.137792 172.077638 
L 526.998306 172.239827 
L 526.928994 172.440423 
L 527.13393 173.806515 
L 527.136624 173.886943 
L 527.001362 174.141441 
L 526.889011 174.194666 
L 526.804063 174.195815 
L 526.597693 174.176851 
L 526.47129 174.0519 
L 526.3068 173.827758 
L 525.989129 173.277657 
L 525.796819 172.806684 
L 525.59291 172.584232 
L 525.444624 172.49095 
L 525.320139 172.45039 
L 524.992112 172.50838 
L 524.845103 172.557899 
L 524.735233 172.654469 
L 523.696677 173.619036 
L 523.467829 174.111222 
L 523.449157 174.381051 
L 523.477849 174.686967 
L 523.446924 175.030937 
L 523.223802 175.366196 
L 523.18458 175.40418 
L 522.877885 175.485832 
L 522.7496 175.47211 
L 522.454625 175.328045 
L 521.413147 174.234836 
L 521.117228 174.028533 
L 520.916737 173.88026 
L 520.453972 173.692681 
L 520.347534 173.645793 
L 520.108738 173.565391 
L 519.84345 173.563243 
L 519.54696 173.622727 
L 518.61459 174.158604 
L 518.370851 174.231325 
L 518.031922 174.315374 
L 517.746191 174.307776 
L 517.239589 174.180308 
L 516.647323 173.887584 
L 516.53607 173.809084 
L 516.316764 173.47083 
L 516.083948 172.874608 
L 516.001619 172.75899 
L 515.732169 172.688209 
L 515.503494 172.803436 
L 514.992788 173.260482 
L 514.429615 173.574871 
L 514.067732 173.633093 
L 513.800108 173.618297 
L 513.478618 173.534345 
L 513.225332 173.364082 
L 512.535867 172.337423 
L 512.278002 171.99374 
L 512.10976 171.85081 
L 511.734685 171.737861 
L 511.373248 171.708483 
L 511.144778 171.649393 
L 510.842646 171.47149 
L 510.520015 171.278747 
L 510.186638 170.966857 
L 510.076484 170.763811 
L 509.603364 170.329411 
L 509.056686 170.016008 
L 508.497927 169.843028 
L 507.170758 169.825165 
L 506.843539 169.873683 
L 506.496873 170.01229 
L 506.124583 170.218715 
L 505.968554 170.387288 
L 505.817126 170.73015 
L 505.909436 171.200717 
L 505.872574 171.439005 
L 505.855867 171.607862 
L 505.522035 171.991669 
L 505.329401 172.046816 
L 504.738769 171.974946 
L 504.066568 171.769216 
L 503.290175 171.280054 
L 502.750895 171.039167 
L 502.408413 171.019149 
L 502.06728 171.148163 
L 501.953359 171.191173 
L 501.23934 171.396665 
L 500.889136 171.625158 
L 500.37392 172.177336 
L 500.308489 172.323005 
L 499.817882 172.669529 
L 499.358101 172.444109 
L 499.141078 172.089242 
L 498.88215 171.875638 
L 498.439353 171.78035 
L 497.968037 172.03687 
L 497.387733 172.797843 
L 497.185286 173.396444 
L 496.862213 173.716331 
L 496.163453 173.968987 
L 495.41392 174.543662 
L 495.288083 174.782331 
L 495.318859 175.20972 
L 495.722545 175.996927 
L 495.854584 176.389249 
L 495.956094 176.586018 
L 495.778438 176.672707 
L 495.738527 176.721757 
L 495.073744 177.013645 
L 494.670528 176.968589 
L 494.479733 176.893575 
L 494.357761 176.690568 
L 494.244502 175.830424 
L 493.900564 175.004288 
L 493.668752 174.888469 
L 493.254541 174.837906 
L 492.76905 175.107936 
L 491.245924 175.316201 
L 491.004075 175.492191 
L 490.919611 175.828553 
L 490.99026 176.453491 
L 490.851417 176.988219 
L 490.708105 177.189097 
L 490.070175 177.673949 
L 489.426798 177.385358 
L 489.390553 177.156793 
L 487.870857 167.732044 
L 478.115204 168.600808 
L 473.066254 169.160578 
L 466.628612 169.863034 
L 464.524973 169.957224 
L 459.730258 169.684098 
L 450.155286 168.814552 
L 450.048513 168.805016 
L 449.821364 169.360416 
L 449.775277 169.473058 
L 449.610853 169.696927 
L 449.185037 170.078403 
L 448.646637 170.560875 
L 448.373076 170.805959 
L 448.19795 171.095336 
L 448.050452 171.418481 
L 447.887574 171.647839 
L 447.758107 171.555259 
L 447.456894 171.405003 
L 447.301028 171.342622 
L 447.05003 171.242582 
L 446.674451 171.204674 
L 446.131158 171.353466 
L 446.000095 171.466014 
L 445.915664 171.599582 
L 445.855525 171.720992 
L 445.789472 171.951909 
L 445.642215 172.137823 
L 445.46531 172.188218 
L 445.365186 172.149175 
L 445.210663 172.07327 
L 445.057356 171.858138 
L 444.96916 171.717734 
L 444.925656 171.657974 
L 444.607977 171.335836 
L 444.369859 171.234239 
L 444.090797 171.139897 
L 443.930487 171.209955 
L 443.768858 171.328889 
L 443.407975 171.831899 
L 443.164668 172.008742 
L 442.527007 172.204535 
L 442.125098 172.278661 
L 441.773667 172.390448 
L 441.538032 172.503434 
L 441.366976 172.6405 
L 441.212972 172.913215 
L 441.170832 173.070747 
L 441.119905 173.260598 
L 440.931657 173.441224 
L 440.826286 173.465274 
L 440.589508 173.500954 
L 440.311678 173.309289 
L 440.249346 173.266456 
L 439.740371 172.74869 
L 439.546403 172.66983 
L 439.313106 172.785131 
L 438.981051 173.013579 
L 438.898655 173.050436 
L 438.709941 173.135276 
L 438.373825 173.121638 
L 438.183152 173.01824 
L 437.010744 172.38328 
L 436.615458 172.54343 
L 436.486575 172.610162 
L 436.438827 172.677706 
L 436.273694 172.911462 
L 435.993735 172.980415 
L 435.937342 172.963013 
L 435.388514 172.795118 
L 435.114361 172.746518 
L 434.579375 172.800678 
L 434.077944 172.999104 
L 433.557881 173.250358 
L 432.850816 173.602593 
L 432.386778 173.896273 
L 431.915147 174.058268 
L 431.616195 174.095703 
L 431.324106 174.068509 
L 430.987822 173.831642 
L 430.646701 173.353417 
L 430.366165 173.078491 
L 429.919655 172.832646 
L 429.388882 172.758249 
L 429.037766 172.835556 
L 428.451424 172.964692 
L 428.068643 172.914973 
L 427.910314 172.848317 
L 427.391347 172.629794 
L 426.937772 172.58029 
L 426.539936 172.68756 
L 426.295695 172.823401 
L 425.582401 173.582661 
L 425.038578 173.80725 
L 423.601251 173.402871 
L 423.233692 173.200033 
L 422.588474 172.47782 
L 422.337517 172.304486 
L 422.070486 172.267724 
L 421.811069 172.353179 
L 421.379184 172.616696 
L 421.010447 173.115885 
L 420.936261 173.461652 
L 420.870523 174.349189 
L 420.714763 175.345967 
L 420.443319 175.69929 
L 420.35332 175.816343 
L 420.27464 175.918772 
L 420.03954 175.972497 
L 419.6426 175.916564 
L 418.358666 175.685896 
L 417.704685 175.527637 
L 417.308754 175.508693 
L 416.831449 175.646217 
L 415.991086 176.111803 
L 415.149859 176.546634 
L 414.649855 176.707176 
L 414.185898 176.805255 
L 413.583334 176.913403 
L 413.179242 177.022252 
L 412.547616 177.335534 
L 411.647621 177.837623 
L 411.415194 177.986853 
L 411.191733 178.203897 
L 411.175915 178.382209 
L 411.402579 178.553888 
L 411.313699 179.153698 
L 411.399468 179.735423 
L 410.923864 180.086687 
L 409.351553 179.972404 
L 408.680244 180.001898 
L 408.751912 180.210618 
L 408.111785 180.54762 
L 407.055883 181.812298 
L 405.900477 182.428971 
L 404.769244 182.771896 
L 403.599014 182.816889 
L 402.443789 182.890972 
L 401.274404 183.15359 
L 400.261968 183.679063 
L 399.35249 184.359426 
L 398.577446 185.217543 
L 398.139844 185.948928 
L 397.99736 186.186911 
L 397.581699 187.319843 
L 396.591392 190.019458 
L 395.892705 191.438768 
L 394.496291 193.738088 
L 395.072063 194.425879 
L 393.28716 195.2423 
L 391.783568 196.936336 
L 390.23019 198.553961 
L 387.03396 201.288876 
L 385.441405 202.371226 
L 383.631617 203.052226 
L 381.921838 203.419285 
L 380.777805 203.664893 
L 379.649188 204.066306 
L 378.527338 204.566205 
L 377.447095 205.230777 
L 377.817085 206.223894 
L 376.285243 206.548031 
L 375.719414 207.33671 
L 375.382185 208.380728 
L 375.220284 209.39574 
L 375.418007 210.067911 
L 375.620932 210.757765 
L 375.417924 211.336718 
L 375.197829 212.750165 
L 374.956425 213.957121 
L 374.884343 214.994589 
L 375.544019 216.031481 
L 376.02188 216.782595 
L 376.820027 219.109164 
L 376.589932 219.221352 
L 376.656707 219.293586 
L 376.824963 219.444885 
L 377.06892 219.563873 
L 377.436557 219.670353 
L 377.664336 219.737412 
L 377.900179 219.824436 
L 378.212069 219.963144 
L 378.392248 220.102395 
L 378.508404 220.201912 
L 378.712841 220.33972 
L 378.851993 220.393042 
L 378.991291 220.482293 
L 379.103902 220.621059 
L 379.185786 220.917144 
L 379.330571 221.166479 
L 380.073024 222.159374 
L 380.281582 222.406503 
L 380.630028 222.701056 
L 380.889882 222.803982 
L 381.165455 222.846847 
L 381.584596 222.861124 
L 382.474306 222.777474 
L 382.626103 222.808849 
L 382.762081 222.876287 
L 383.066793 223.270906 
L 383.262596 223.41307 
L 383.232747 223.45834 
L 383.023716 223.415186 
L 382.85071 223.678122 
L 382.72863 223.884709 
L 382.703153 224.019613 
L 382.744699 224.315865 
L 382.80351 224.450361 
L 382.844267 224.553492 
L 382.844634 224.643316 
L 382.813556 224.715303 
L 382.777887 224.760362 
L 382.665903 224.774296 
L 382.616753 224.810428 
L 382.594657 224.88687 
L 382.55908 224.954384 
L 382.532319 224.985933 
L 382.447316 225.022212 
L 382.254755 225.058933 
L 382.016014 225.209043 
L 381.773023 225.462115 
L 381.746006 225.586498 
L 381.881334 225.801522 
L 382.102198 226.110511 
L 382.161156 226.280937 
L 382.161579 226.384234 
L 382.148997 226.595374 
L 382.18068 226.671595 
L 382.234771 226.747724 
L 382.221841 226.873532 
L 382.23602 227.053124 
L 382.236443 227.156421 
L 382.209884 227.237372 
L 382.107543 227.417443 
L 381.993796 228.096088 
L 381.787169 229.076029 
L 381.767058 229.637518 
L 381.690505 230.643872 
L 381.741897 232.251528 
L 381.581024 233.460335 
L 381.505815 234.794544 
L 381.578418 235.014317 
L 381.809599 235.395945 
L 382.418979 236.164794 
L 382.817337 236.193844 
L 382.920992 236.273526 
L 382.631809 237.046491 
L 382.404403 237.240843 
L 382.047543 237.711563 
L 382.155488 237.992611 
L 381.700284 238.5125 
L 381.396577 238.765257 
L 381.322136 238.891488 
L 381.352717 239.241896 
L 381.485552 239.650306 
L 381.678906 239.859962 
L 381.483654 240.332346 
L 381.812504 240.748681 
L 381.692443 240.978228 
L 381.297806 240.91248 
L 381.157022 241.204403 
L 381.152762 241.951961 
L 380.86749 242.803875 
L 380.842765 243.13953 
L 380.908368 243.702279 
L 380.902857 244.289109 
L 380.905319 244.677614 
L 381.045334 244.924204 
L 381.154556 245.140873 
L 381.191841 245.305013 
L 381.150775 245.503142 
L 381.035085 245.658523 
L 381.034855 246.410087 
L 380.990419 246.477216 
L 380.531545 247.170423 
L 379.971235 247.818333 
L 379.837143 247.984784 
L 379.415492 248.546362 
L 379.34091 248.937408 
L 378.884239 249.348826 
L 378.766879 249.690478 
L 378.261243 250.114068 
L 378.048155 250.30047 
L 377.677156 250.664611 
L 377.695141 250.852964 
L 377.155412 251.465997 
L 377.209888 251.636441 
L 377.178636 251.704645 
L 376.90601 251.93119 
L 376.606447 252.011701 
L 376.045967 252.277769 
L 375.657078 252.678304 
L 375.345647 252.688595 
L 375.286717 252.693909 
L 375.04279 252.711627 
L 374.821591 252.6895 
L 374.445193 252.797601 
L 373.952736 252.916406 
L 373.787373 253.024879 
L 373.518204 253.29283 
L 373.147573 254.309027 
L 372.566316 254.615009 
L 371.435128 255.289118 
L 371.109919 255.531771 
L 370.612978 255.564963 
L 370.34002 255.293648 
L 370.431842 254.958552 
L 370.383238 254.771957 
L 370.714102 254.081144 
L 370.640016 253.874192 
L 370.269578 253.859448 
L 369.855184 253.611372 
L 369.476106 253.633542 
L 369.159833 253.500404 
L 368.958154 253.563512 
L 368.710869 253.868117 
L 368.555727 253.915464 
L 367.788168 254.245577 
L 367.455194 254.488265 
L 367.068142 254.801234 
L 366.759112 255.199505 
L 366.488723 255.550912 
L 366.155558 255.746896 
L 365.497028 256.146619 
L 364.466567 256.758058 
L 363.78474 257.15788 
L 363.048902 257.643553 
L 363.024311 257.657095 
L 362.180616 258.46149 
L 361.489446 258.919467 
L 360.829362 259.349499 
L 360.271359 259.947843 
L 359.635753 260.418184 
L 358.991963 260.875064 
L 357.614346 261.640596 
L 356.872412 261.935784 
L 356.142757 262.251127 
L 355.343524 262.451931 
L 354.92009 262.523415 
L 354.528079 262.625812 
L 352.835717 262.872423 
L 350.466864 263.244558 
L 350.32058 263.265167 
L 350.140704 263.290345 
L 350.026715 263.314937 
L 349.937406 263.334298 
L 349.543234 263.095456 
L 348.920924 263.089115 
L 348.429129 263.176639 
L 348.053466 263.298073 
L 347.805321 262.592936 
L 347.534341 262.716274 
L 347.428742 262.878608 
L 347.023868 263.013587 
L 346.867787 263.042948 
L 346.785345 263.035872 
L 346.727257 263.094357 
L 346.49738 263.129541 
L 346.061296 263.283555 
L 345.065449 263.772018 
L 344.603262 263.99206 
L 344.219491 264.232291 
L 343.996058 264.246572 
L 342.92805 264.227346 
L 342.574497 264.236059 
L 342.349659 264.277992 
L 341.18565 264.342603 
L 340.714809 264.393191 
L 340.531885 264.354843 
L 339.134297 264.101682 
L 338.918572 264.034191 
L 338.332025 263.801266 
L 338.103274 263.677973 
L 337.358673 263.341889 
L 337.022652 263.207051 
L 336.277858 262.988236 
L 335.786471 262.916917 
L 335.173107 262.827926 
L 334.83161 262.833682 
L 334.027224 262.8324 
L 333.520789 262.882722 
L 333.427382 262.566255 
L 333.167751 262.59496 
L 331.569808 262.4756 
L 330.388234 262.204568 
L 330.120588 262.189902 
L 329.184177 262.209625 
L 328.31101 262.284374 
L 326.771046 262.874519 
L 325.209418 263.914421 
L 323.868878 265.126797 
L 323.82211 265.221636 
L 323.45298 265.39676 
L 322.226981 265.788467 
L 321.842209 265.971455 
L 321.371101 266.233793 
L 320.876609 266.5198 
L 320.366762 266.924218 
L 319.880431 267.296996 
L 319.378772 267.748729 
L 318.821564 268.113932 
L 318.279893 268.415958 
L 317.831937 268.559787 
L 317.509187 268.545392 
L 317.202157 268.49938 
L 316.878991 268.382489 
L 316.342821 268.132401 
L 315.562964 267.946405 
L 315.177155 267.908628 
L 314.539789 267.911375 
L 313.926589 268.055994 
L 313.533196 268.081368 
L 312.988728 267.918045 
L 312.532748 267.649437 
L 312.125466 267.365724 
L 311.605631 267.066651 
L 311.064147 266.683255 
L 310.218025 266.282286 
L 309.816181 266.15785 
L 309.35475 266.098332 
L 307.760119 266.215572 
L 305.515422 266.314334 
L 305.049027 266.376304 
L 303.68184 266.681888 
L 303.175209 266.902547 
L 302.700891 267.317126 
L 302.482673 267.632752 
L 302.453713 267.673912 
L 302.162228 268.318738 
L 302.041667 268.648966 
L 301.767046 268.473424 
L 301.812473 268.794242 
L 301.728461 269.027263 
L 301.676877 269.172221 
L 301.66942 269.193176 
L 301.377748 269.809599 
L 300.949653 270.801916 
L 300.841484 270.991549 
L 300.610947 270.960884 
L 300.373705 271.335036 
L 299.870913 272.490163 
L 299.942245 272.959676 
L 299.924294 273.202908 
L 299.649576 274.009349 
L 299.342487 274.67001 
L 299.080633 275.096032 
L 299.190287 275.172849 
L 299.133849 275.396308 
L 299.12138 275.796999 
L 299.04908 276.008755 
L 299.043179 276.01931 
L 298.541551 276.91637 
L 297.574811 277.919807 
L 297.208001 278.166523 
L 297.17978 278.185505 
L 296.041619 278.951035 
L 296.038924 278.952367 
L 294.676086 279.625763 
L 294.847499 279.855958 
L 294.126228 280.152521 
L 293.645725 280.297456 
L 292.962131 280.710559 
L 290.571358 281.482559 
L 289.619951 281.906838 
L 288.868661 282.296599 
L 288.800521 282.34223 
L 287.711855 283.071964 
L 287.450994 283.161964 
L 286.859531 283.571892 
L 285.735366 284.180309 
L 285.385322 284.392427 
L 285.123147 284.61156 
L 284.608904 285.14878 
L 284.138372 285.784405 
L 284.045515 285.884118 
L 283.955525 286.056048 
L 283.788352 286.341594 
L 283.16806 287.401109 
L 282.452183 288.133319 
L 281.673753 288.749025 
L 280.670658 289.487189 
L 280.093902 289.811479 
L 279.891275 289.954014 
L 278.956926 290.503863 
L 278.223077 291.136838 
L 277.891267 291.495469 
L 277.732333 291.627747 
L 277.199918 292.255758 
L 277.092842 292.363383 
L 276.719116 292.808145 
L 276.296421 293.525751 
L 276.06879 293.935677 
L 275.983043 294.054592 
L 275.487025 294.74248 
L 275.144015 295.258332 
L 274.178094 296.989537 
L 273.331145 298.461644 
L 273.198086 298.707108 
L 272.842194 299.298893 
L 272.841684 299.299742 
L 272.403608 300.032392 
L 272.177595 300.598686 
L 272.172441 300.768862 
L 272.390204 301.442548 
L 272.584872 301.90624 
L 272.752377 302.319356 
L 272.650034 302.868383 
L 272.287584 303.862191 
L 271.824993 304.818817 
L 271.414444 305.667768 
L 271.106567 306.156916 
L 268.772941 307.768361 
L 267.383195 308.145391 
L 266.782581 308.124548 
L 266.469209 308.099165 
L 266.283598 308.002599 
L 266.147679 307.903366 
L 265.945452 307.796537 
L 264.453559 307.155646 
L 263.843465 307.281492 
L 263.717653 307.348448 
L 263.149126 308.327523 
L 262.720696 309.06534 
L 262.587994 309.177595 
L 262.321454 309.205563 
L 262.16094 309.111724 
L 262.056151 308.849122 
L 261.263698 308.095682 
L 261.159093 307.948604 
L 261.036735 307.894033 
L 260.520415 307.825213 
L 260.126072 307.983079 
L 260.013041 308.044448 
L 259.901763 308.217673 
L 259.649627 309.473017 
L 259.641071 309.682572 
L 259.349634 309.897992 
L 258.984364 309.965926 
L 258.720452 309.880832 
L 258.625426 309.736055 
L 258.393544 309.337795 
L 257.540282 308.183106 
L 257.198848 307.65864 
L 257.022451 307.579144 
L 256.726025 307.564733 
L 256.590385 307.675876 
L 256.144589 308.30906 
L 256.062991 308.677211 
L 256.019032 308.699473 
L 255.701802 309.332868 
L 255.585837 309.611789 
L 255.453525 310.16413 
L 255.216385 310.435565 
L 254.783432 310.541316 
L 254.025826 310.573587 
L 253.726451 310.533996 
L 252.903675 310.291296 
L 252.623425 310.291816 
L 252.507651 310.373769 
L 252.233028 310.769034 
L 252.065287 310.86744 
L 251.752088 311.390346 
L 251.65299 311.632966 
L 251.601778 311.836186 
L 251.569791 312.090484 
L 251.814944 313.790791 
L 252.046422 314.332912 
L 252.034451 315.085384 
L 251.671609 315.444848 
L 251.176093 315.568095 
L 250.505192 315.82623 
L 250.253792 315.918873 
L 249.499486 316.494543 
L 248.625266 317.146663 
L 248.494586 317.213896 
L 248.278928 317.272951 
L 247.550446 317.385039 
L 247.388676 317.439117 
L 246.981091 317.790406 
L 246.800034 318.079543 
L 246.512614 318.747833 
L 246.389144 319.266985 
L 246.417533 319.719034 
L 246.525282 319.976591 
L 246.802483 320.242544 
L 247.620695 320.983117 
L 247.674834 321.264268 
L 247.646642 321.415023 
L 247.486995 321.623402 
L 247.176518 321.774808 
L 246.309618 321.835157 
L 246.15404 321.783899 
L 245.463492 321.529183 
L 245.265296 321.362534 
L 244.364156 320.882595 
L 243.998336 320.738519 
L 243.028793 319.768967 
L 242.602085 319.589949 
L 242.322786 319.623992 
L 242.163805 319.716357 
L 241.977644 319.962215 
L 241.834199 320.14299 
L 241.649315 320.970243 
L 241.651624 321.196193 
L 241.790155 321.890037 
L 241.874371 322.07389 
L 242.138347 322.323029 
L 242.864224 323.265099 
L 243.04571 323.451 
L 244.006544 324.160348 
L 244.306652 324.302105 
L 244.736428 324.733098 
L 244.814807 325.007206 
L 244.686164 325.352558 
L 244.625013 325.44388 
L 244.148857 325.791185 
L 243.947172 325.818111 
L 243.763254 325.894334 
L 243.347358 326.139134 
L 242.955287 326.288679 
L 242.787889 326.310694 
L 242.525873 326.457175 
L 242.197962 326.643717 
L 241.868441 326.922704 
L 241.516695 327.475803 
L 241.375345 327.638379 
L 241.363856 327.685524 
L 241.15689 328.064524 
L 241.140165 328.136807 
L 241.086243 328.204049 
L 240.756864 328.606452 
L 240.560816 328.695746 
L 240.277026 328.900504 
L 239.699759 329.564821 
L 239.599499 329.680266 
L 239.115665 330.313894 
L 238.532774 331.03027 
L 237.102173 333.012815 
L 236.788401 333.83506 
L 236.286555 334.167041 
L 236.23366 334.308121 
L 235.959798 334.368792 
L 235.725261 334.350807 
L 235.49539 334.15595 
L 235.313316 333.713523 
L 235.201531 333.03933 
L 235.08278 332.739108 
L 234.938662 332.515241 
L 234.705919 332.453023 
L 234.39151 332.459808 
L 233.828029 333.559877 
L 233.556238 334.33584 
L 233.270385 335.340979 
L 233.287474 335.465336 
L 233.213564 335.727253 
L 232.907696 336.027312 
L 232.576081 336.13267 
L 232.157158 336.080135 
L 232.029946 335.972817 
L 231.879534 335.698832 
L 231.601074 334.748908 
L 231.517523 334.110744 
L 231.683679 333.626959 
L 231.80988 332.916692 
L 231.708266 332.511667 
L 231.43394 332.281009 
L 231.410458 332.102353 
L 230.774819 331.778582 
L 230.597138 331.804393 
L 230.038691 331.885519 
L 229.457129 331.796263 
L 228.724902 331.298406 
L 228.26335 331.06341 
L 227.399595 330.050287 
L 227.526126 329.529344 
L 227.926815 327.879674 
L 227.944429 327.714648 
L 227.910122 327.383553 
L 227.86226 327.246192 
L 227.680948 327.03441 
L 227.576284 326.982353 
L 227.302092 326.781129 
L 226.744484 326.518967 
L 226.581603 326.408153 
L 226.482483 326.250302 
L 226.345574 325.650093 
L 226.339883 325.032582 
L 226.276663 324.958635 
L 226.297217 324.66073 
L 226.298283 324.230318 
L 226.200272 323.814792 
L 226.045032 323.513304 
L 225.922869 323.386615 
L 225.675234 323.20686 
L 225.235387 322.927795 
L 224.627297 322.641577 
L 224.196096 322.35868 
L 223.677269 322.216185 
L 222.960697 322.057292 
L 222.714991 322.04676 
L 221.950227 322.111697 
L 221.280341 321.909407 
L 220.92776 321.685891 
L 220.569253 321.511679 
L 220.315294 321.347702 
L 219.724407 320.96639 
L 219.424381 320.768386 
L 219.030051 320.640948 
L 218.253036 320.154902 
L 217.941722 319.861918 
L 217.356762 319.491834 
L 217.214445 319.455662 
L 216.861636 319.389981 
L 216.614523 319.453584 
L 216.366042 319.646479 
L 216.211224 319.875353 
L 216.082706 320.65678 
L 216.14472 321.211487 
L 216.219484 321.63553 
L 216.408686 322.202461 
L 216.115833 322.352923 
L 215.974961 322.665983 
L 215.939418 322.784797 
L 215.949416 322.948776 
L 215.559609 323.532312 
L 215.489825 323.637889 
L 215.542831 323.73938 
L 215.322418 323.907149 
L 215.252499 323.930029 
L 214.824472 324.026555 
L 214.568516 324.13243 
L 214.427599 324.192499 
L 214.307648 324.240314 
L 213.545777 324.367698 
L 213.304466 324.353201 
L 212.827693 324.41553 
L 212.631031 324.455138 
L 212.10671 324.49405 
L 211.916143 324.478197 
L 211.886374 324.521197 
L 211.360375 324.525587 
L 211.230543 324.504746 
L 210.954671 324.493515 
L 210.275756 324.479663 
L 210.086495 324.475775 
L 209.542998 324.499361 
L 209.110453 324.507541 
L 208.666863 324.477946 
L 208.157441 324.414083 
L 207.486115 324.257778 
L 207.165303 324.170121 
L 206.910101 324.037115 
L 206.575194 323.725287 
L 206.46266 323.603268 
L 206.397229 323.485738 
L 205.401511 322.912723 
L 205.2739 322.892621 
L 204.916004 322.744607 
L 204.780265 322.767153 
L 204.571231 322.832941 
L 204.067864 323.063046 
L 203.579159 323.347411 
L 202.910885 323.925714 
L 202.715506 324.113336 
L 201.621762 324.859695 
L 201.424209 324.954963 
L 201.180391 325.071291 
L 200.750893 325.45937 
L 200.511676 325.637298 
L 199.664106 326.517351 
L 199.532473 326.804236 
L 198.877687 327.700559 
L 198.734497 327.907859 
L 198.623122 327.995405 
L 198.348327 328.166761 
L 198.161658 328.336265 
L 197.289415 328.766872 
L 196.037979 329.131022 
L 195.853618 329.147936 
L 194.976193 329.548921 
L 194.647244 329.760465 
L 194.385029 330.278265 
L 193.696792 330.452869 
L 192.848685 330.384347 
L 192.225387 329.864408 
L 192.339006 329.448136 
L 192.314107 328.689433 
L 192.220371 328.476698 
L 192.016341 328.24377 
L 191.71743 327.919818 
L 191.576299 327.827126 
L 191.3222 327.717621 
L 191.194414 327.700053 
L 191.035464 327.699638 
L 190.916811 327.722178 
L 190.629154 327.838684 
L 190.450476 327.959709 
L 190.296644 328.132859 
L 190.189342 328.342941 
L 190.052501 328.69908 
L 189.991288 328.965744 
L 189.87268 329.482442 
L 189.889898 329.815202 
L 190.5644 331.497957 
L 191.119772 332.415563 
L 191.084299 333.077688 
L 190.905415 333.34005 
L 190.527751 333.461845 
L 190.229316 333.32814 
L 190.063792 333.119 
L 189.499482 332.716904 
L 189.394359 332.565438 
L 188.362691 332.253887 
L 188.182558 332.256422 
L 188.037307 332.336016 
L 187.893067 332.782133 
L 187.823253 333.269729 
L 187.954268 333.397538 
L 188.553358 334.456304 
L 188.754055 335.245403 
L 188.645 335.871553 
L 188.346308 336.190732 
L 187.85479 336.297948 
L 187.41981 336.259099 
L 187.233917 336.177571 
L 186.873572 335.982285 
L 185.589569 335.241919 
L 185.347384 335.213493 
L 184.617022 335.383826 
L 184.293626 335.913579 
L 184.251018 336.072809 
L 184.060253 336.225136 
L 183.430253 336.912017 
L 183.173066 336.98835 
L 182.816932 336.97486 
L 182.531582 336.801868 
L 182.397094 336.507007 
L 182.378788 335.568428 
L 182.372406 335.241209 
L 182.311537 334.913668 
L 182.147171 334.627013 
L 181.737852 334.221408 
L 181.308817 334.097752 
L 180.598383 334.261938 
L 180.250919 334.775695 
L 180.013228 334.807613 
L 179.940157 334.916825 
L 179.941591 335.794295 
L 180.435284 338.25355 
L 180.559666 338.873146 
L 180.418546 339.204217 
L 180.077454 339.540901 
L 179.966141 339.61409 
L 179.018547 339.80545 
L 178.40456 340.096451 
L 177.104169 340.945242 
L 176.972728 341.246019 
L 176.911003 343.14848 
L 177.228552 343.584903 
L 177.451173 343.661766 
L 179.207414 343.739556 
L 179.453753 343.794078 
L 179.701981 344.061934 
L 179.714175 344.27163 
L 179.696517 344.540587 
L 179.2622 345.559471 
L 179.177953 345.758672 
L 177.765038 346.641855 
L 176.389799 347.67345 
L 176.222174 347.698656 
L 176.019454 347.587784 
L 175.350846 346.922329 
L 174.988921 346.639972 
L 174.934147 346.533952 
L 174.013302 346.060879 
L 173.539346 345.997878 
L 172.140433 345.967418 
L 170.544559 346.036573 
L 170.161872 346.161507 
L 169.924288 346.434032 
L 169.867325 346.801538 
L 169.850606 346.970098 
L 170.700156 349.365578 
L 171.02558 350.514781 
L 170.963223 350.970481 
L 170.725721 351.263048 
L 170.528668 351.348614 
L 170.117091 351.353419 
L 169.577031 351.280945 
L 168.317586 351.44202 
L 167.987296 351.608798 
L 167.520211 352.175676 
L 167.492316 352.440774 
L 167.615063 353.057792 
L 167.985454 353.654958 
L 168.27433 353.807497 
L 169.430938 353.925057 
L 169.584167 353.843767 
L 173.08697 354.2398 
L 173.349441 354.334338 
L 173.588659 354.764016 
L 173.592579 355.419605 
L 173.202879 356.026936 
L 172.267855 357.191318 
L 172.03585 357.383298 
L 169.646046 360.390674 
L 169.187738 360.742464 
L 168.159527 361.197203 
L 166.492362 361.857229 
L 164.445425 362.957466 
L 163.887775 363.371991 
L 162.768804 364.481586 
L 162.600142 364.609015 
L 162.055715 364.833681 
L 161.707737 364.81118 
L 159.980694 364.173761 
L 159.666055 364.183059 
L 159.420677 364.218567 
L 158.919746 364.51496 
L 158.808587 364.860241 
L 158.803871 365.499148 
L 159.362403 366.709226 
L 159.862762 367.303151 
L 160.031192 367.691576 
L 160.241246 368.278975 
L 160.171233 368.590134 
L 159.923728 368.971406 
L 159.758804 369.073732 
L 159.283985 369.365638 
L 158.223521 369.769878 
L 158.113607 369.758604 
L 157.984179 369.787566 
L 156.674953 370.406688 
L 156.441589 370.493993 
L 156.214353 370.627395 
L 156.015358 370.089962 
L 155.848715 369.658701 
L 155.969754 369.525286 
L 157.404144 368.790103 
L 158.4628 367.208532 
L 157.80372 364.697359 
L 154.608629 358.427802 
L 154.172015 357.571104 
L 154.004268 357.241849 
L 153.162093 358.531828 
L 152.935884 358.87835 
L 152.254891 360.296515 
L 151.397142 361.596417 
L 150.431425 362.528477 
L 148.348849 363.69057 
L 147.174865 364.157517 
L 145.312419 364.44398 
L 142.869335 364.217311 
L 140.053031 363.93958 
L 139.144815 363.872925 
L 135.062619 363.409582 
L 132.911531 363.725874 
L 130.91256 364.580914 
L 125.920898 367.276055 
L 124.653107 368.03058 
L 122.273172 369.828452 
L 120.008436 371.047606 
L 119.424916 371.7555 
L 118.61691 372.73501 
L 117.113381 375.511403 
L 117.103239 375.535082 
L 116.791341 376.288258 
L 116.522274 376.942558 
L 116.129497 377.892501 
L 115.914164 378.433068 
L 115.560567 379.296061 
L 115.430532 379.613714 
L 115.363636 379.779608 
L 115.846127 380.616701 
L 116.143403 381.132471 
L 121.759337 391.291009 
L 122.03394 391.787359 
L 123.812952 394.996068 
L 125.847805 398.674048 
L 130.075045 406.315014 
L 133.097282 411.781378 
L 133.123979 411.829666 
L 133.222352 411.778395 
L 133.746801 412.728696 
L 133.889254 412.99068 
L 134.030309 413.253408 
L 134.169809 413.516963 
L 134.290875 413.749945 
L 134.411551 413.983094 
L 134.531837 414.216409 
L 134.651968 414.449808 
L 134.769535 414.68461 
L 134.884455 414.920658 
L 134.998834 415.157113 
L 135.111969 415.39423 
L 135.223703 415.632012 
L 135.332317 415.870972 
L 135.439683 416.110436 
L 135.545727 416.350563 
L 135.650212 416.591358 
L 135.753374 416.832737 
L 135.855132 417.074703 
L 135.955662 417.31796 
L 136.054944 417.56172 
L 136.152745 417.806068 
L 136.2974 418.174296 
L 136.438937 418.543782 
L 136.57743 418.914367 
L 136.712803 419.286131 
L 136.866361 419.707886 
L 137.016175 420.131072 
L 137.162397 420.555449 
L 137.179681 420.613906 
L 137.193291 420.673397 
L 137.203139 420.73353 
L 137.209143 420.794228 
L 137.199293 421.029307 
L 136.847023 421.235224 
L 136.665843 421.337869 
L 137.57426 423.81797 
L 137.801787 423.68518 
L 137.863452 423.653723 
L 137.928116 423.629218 
L 137.995075 423.611918 
L 138.06355 423.602158 
L 138.132678 423.599957 
L 138.201591 423.605337 
L 138.269581 423.618236 
L 138.3357 423.638519 
L 138.386179 423.659726 
L 138.434556 423.685245 
L 138.480591 423.714845 
L 138.602198 423.662231 
L 140.335938 428.628449 
L 140.554629 429.255009 
L 140.595833 429.373027 
L 140.657304 429.549194 
L 140.512012 429.601898 
L 140.885845 430.644417 
L 141.077208 431.147421 
L 141.106578 431.244336 
L 141.448169 432.178488 
L 141.77041 433.059993 
L 141.905711 433.010842 
L 141.983225 433.203119 
L 142.641633 434.836778 
L 143.038265 435.712724 
L 143.355421 436.413169 
L 143.361818 436.427379 
L 143.534271 436.803548 
L 144.521332 438.956041 
L 145.7171 441.874197 
L 145.71964 441.880397 
L 148.331373 448.138365 
L 148.336228 448.157268 
L 148.773007 449.390368 
L 148.781043 449.414009 
L 148.839575 449.579357 
L 150.894183 455.384869 
L 151.262191 456.369773 
L 151.433757 456.795604 
L 151.657666 457.351498 
L 152.085483 458.343265 
L 152.534489 459.315983 
L 154.011526 462.371748 
L 154.438556 463.329259 
L 154.807836 464.157287 
L 157.300461 469.82748 
L 159.926451 475.801252 
L 160.061888 476.10936 
L 160.092055 476.177987 
L 160.225357 476.12378 
L 160.65551 477.156219 
L 160.828707 477.571925 
L 161.12807 477.439797 
L 164.660126 485.997594 
L 166.73823 491.060257 
L 168.949149 496.446644 
L 169.090157 496.376691 
L 169.256919 496.301076 
L 169.353848 496.257186 
L 169.401338 496.235619 
L 169.87531 496.020684 
L 169.956746 495.983791 
L 170.160645 495.891353 
L 170.569009 495.707096 
L 170.669211 495.661866 
L 170.87673 496.105711 
L 171.057651 496.492898 
L 171.751914 497.978819 
L 172.38505 499.335594 
L 176.746386 509.983449 
L 177.01923 510.648674 
L 177.411329 511.605964 
L 177.485645 511.787592 
L 177.807461 512.574206 
L 179.591493 516.929887 
L 180.966334 520.293876 
L 182.104665 523.061623 
L 182.574992 524.230614 
L 183.69169 526.951299 
L 183.89286 527.440913 
L 182.896122 527.530769 
L 182.365513 527.578159 
L 182.476509 527.77399 
L 183.188233 528.822958 
L 183.268322 528.95341 
L 183.418644 529.141996 
L 183.984599 529.092111 
L 184.361953 529.058774 
L 184.995789 529.845489 
L 185.954146 531.034458 
L 187.428073 532.503178 
L 189.298348 534.271053 
L 189.52081 534.469451 
L 191.421655 535.875982 
L 191.736859 536.083626 
L 192.204257 536.372572 
L 191.850116 536.779711 
L 193.109058 537.634401 
L 195.647511 539.165596 
L 197.981254 540.444165 
L 198.877713 540.93523 
L 199.438687 541.242565 
L 203.063556 543.228419 
L 204.373354 543.945975 
L 205.781107 544.717246 
L 208.913339 546.433334 
L 207.942734 547.026915 
L 210.981173 548.713674 
L 212.115237 549.28327 
L 212.184782 548.827958 
L 214.583563 550.153778 
L 217.43118 551.814639 
L 218.024024 552.160388 
L 218.054095 552.177827 
L 220.411118 553.469396 
L 220.742119 553.650807 
L 221.515877 553.924737 
L 221.621475 554.015833 
L 222.017176 554.352594 
L 222.13405 554.451472 
L 222.625181 554.724506 
L 227.154865 557.246097 
L 227.117316 557.288807 
L 231.511946 559.693533 
L 233.358048 560.703448 
L 235.744171 562.009102 
L 235.992909 561.719307 
L 236.902527 562.212123 
L 237.804341 562.701022 
L 238.282377 562.960023 
L 240.056301 563.920992 
L 240.154747 563.974323 
L 241.336396 564.614378 
L 248.092309 568.276182 
L 249.53237 569.064053 
L 249.69816 569.152555 
L 251.093304 569.776248 
L 253.786823 570.980394 
L 254.813852 571.439555 
L 255.235076 571.621712 
L 256.192747 571.873785 
L 257.013155 572.0864 
L 257.66592 572.255614 
L 258.738978 572.533702 
L 259.243777 572.693538 
L 259.483867 572.756779 
L 260.258268 572.919743 
L 261.085473 573.093539 
L 265.530571 573.64184 
L 265.929412 573.691331 
L 271.292054 573.495763 
L 271.381407 573.6129 
L 272.085759 573.572676 
L 275.812151 573.405677 
L 279.971667 573.189484 
L 295.439987 572.276898 
L 295.862974 572.251913 
L 295.171623 573.319937 
L 295.919783 573.283721 
L 296.720022 573.244986 
L 297.024994 572.773757 
L 297.901337 572.734049 
L 297.818314 573.118167 
L 297.788467 573.251991 
L 298.83726 573.209035 
L 298.84622 573.168106 
L 298.855661 573.168121 
L 298.867441 573.167214 
L 299.173116 572.587545 
L 299.340157 572.270824 
L 299.488351 571.989344 
L 299.550446 571.98355 
L 300.02236 571.975179 
L 301.503133 571.948626 
L 302.144201 571.937244 
L 304.243708 571.899686 
L 305.115843 571.87848 
L 308.473784 571.796889 
L 312.595164 570.90677 
L 314.246149 570.55022 
L 317.250958 569.897038 
L 317.443612 569.849054 
L 319.294386 569.459999 
L 319.848164 569.33145 
L 321.410749 568.995857 
L 321.506559 568.974995 
L 321.510206 568.974205 
" clip-path="url(#pc433815eb6)" style="fill: #d3d3d3"/>
   </g>
   <g id="matplotlib.axis_1">
    <g id="xtick_1">
     <g id="line2d_1">
      <defs>
       <path id="m3c5bce9610" d="M 0 0 
L 0 3.5 
" style="stroke: #000000; stroke-width: 0.8"/>
      </defs>
      <g>
       <use xlink:href="#m3c5bce9610" x="109.026465" y="594.700464" style="stroke: #000000; stroke-width: 0.8"/>
      </g>
     </g>
     <g id="text_1">
      <!-- 13.28 -->
      <g transform="translate(94.712402 609.298901) scale(0.1 -0.1)">
       <defs>
        <path id="DejaVuSans-31" d="M 794 531 
L 1825 531 
L 1825 4091 
L 703 3866 
L 703 4441 
L 1819 4666 
L 2450 4666 
L 2450 531 
L 3481 531 
L 3481 0 
L 794 0 
L 794 531 
z
" transform="scale(0.015625)"/>
        <path id="DejaVuSans-33" d="M 2597 2516 
Q 3050 2419 3304 2112 
Q 3559 1806 3559 1356 
Q 3559 666 3084 287 
Q 2609 -91 1734 -91 
Q 1441 -91 1130 -33 
Q 819 25 488 141 
L 488 750 
Q 750 597 1062 519 
Q 1375 441 1716 441 
Q 2309 441 2620 675 
Q 2931 909 2931 1356 
Q 2931 1769 2642 2001 
Q 2353 2234 1838 2234 
L 1294 2234 
L 1294 2753 
L 1863 2753 
Q 2328 2753 2575 2939 
Q 2822 3125 2822 3475 
Q 2822 3834 2567 4026 
Q 2313 4219 1838 4219 
Q 1578 4219 1281 4162 
Q 984 4106 628 3988 
L 628 4550 
Q 988 4650 1302 4700 
Q 1616 4750 1894 4750 
Q 2613 4750 3031 4423 
Q 3450 4097 3450 3541 
Q 3450 3153 3228 2886 
Q 3006 2619 2597 2516 
z
" transform="scale(0.015625)"/>
        <path id="DejaVuSans-2e" d="M 684 794 
L 1344 794 
L 1344 0 
L 684 0 
L 684 794 
z
" transform="scale(0.015625)"/>
        <path id="DejaVuSans-32" d="M 1228 531 
L 3431 531 
L 3431 0 
L 469 0 
L 469 531 
Q 828 903 1448 1529 
Q 2069 2156 2228 2338 
Q 2531 2678 2651 2914 
Q 2772 3150 2772 3378 
Q 2772 3750 2511 3984 
Q 2250 4219 1831 4219 
Q 1534 4219 1204 4116 
Q 875 4013 500 3803 
L 500 4441 
Q 881 4594 1212 4672 
Q 1544 4750 1819 4750 
Q 2544 4750 2975 4387 
Q 3406 4025 3406 3419 
Q 3406 3131 3298 2873 
Q 3191 2616 2906 2266 
Q 2828 2175 2409 1742 
Q 1991 1309 1228 531 
z
" transform="scale(0.015625)"/>
        <path id="DejaVuSans-38" d="M 2034 2216 
Q 1584 2216 1326 1975 
Q 1069 1734 1069 1313 
Q 1069 891 1326 650 
Q 1584 409 2034 409 
Q 2484 409 2743 651 
Q 3003 894 3003 1313 
Q 3003 1734 2745 1975 
Q 2488 2216 2034 2216 
z
M 1403 2484 
Q 997 2584 770 2862 
Q 544 3141 544 3541 
Q 544 4100 942 4425 
Q 1341 4750 2034 4750 
Q 2731 4750 3128 4425 
Q 3525 4100 3525 3541 
Q 3525 3141 3298 2862 
Q 3072 2584 2669 2484 
Q 3125 2378 3379 2068 
Q 3634 1759 3634 1313 
Q 3634 634 3220 271 
Q 2806 -91 2034 -91 
Q 1263 -91 848 271 
Q 434 634 434 1313 
Q 434 1759 690 2068 
Q 947 2378 1403 2484 
z
M 1172 3481 
Q 1172 3119 1398 2916 
Q 1625 2713 2034 2713 
Q 2441 2713 2670 2916 
Q 2900 3119 2900 3481 
Q 2900 3844 2670 4047 
Q 2441 4250 2034 4250 
Q 1625 4250 1398 4047 
Q 1172 3844 1172 3481 
z
" transform="scale(0.015625)"/>
       </defs>
       <use xlink:href="#DejaVuSans-31"/>
       <use xlink:href="#DejaVuSans-33" x="63.623047"/>
       <use xlink:href="#DejaVuSans-2e" x="127.246094"/>
       <use xlink:href="#DejaVuSans-32" x="159.033203"/>
       <use xlink:href="#DejaVuSans-38" x="222.65625"/>
      </g>
     </g>
    </g>
    <g id="xtick_2">
     <g id="line2d_2">
      <g>
       <use xlink:href="#m3c5bce9610" x="215.635528" y="594.700464" style="stroke: #000000; stroke-width: 0.8"/>
      </g>
     </g>
     <g id="text_2">
      <!-- 13.30 -->
      <g transform="translate(201.321465 609.298901) scale(0.1 -0.1)">
       <defs>
        <path id="DejaVuSans-30" d="M 2034 4250 
Q 1547 4250 1301 3770 
Q 1056 3291 1056 2328 
Q 1056 1369 1301 889 
Q 1547 409 2034 409 
Q 2525 409 2770 889 
Q 3016 1369 3016 2328 
Q 3016 3291 2770 3770 
Q 2525 4250 2034 4250 
z
M 2034 4750 
Q 2819 4750 3233 4129 
Q 3647 3509 3647 2328 
Q 3647 1150 3233 529 
Q 2819 -91 2034 -91 
Q 1250 -91 836 529 
Q 422 1150 422 2328 
Q 422 3509 836 4129 
Q 1250 4750 2034 4750 
z
" transform="scale(0.015625)"/>
       </defs>
       <use xlink:href="#DejaVuSans-31"/>
       <use xlink:href="#DejaVuSans-33" x="63.623047"/>
       <use xlink:href="#DejaVuSans-2e" x="127.246094"/>
       <use xlink:href="#DejaVuSans-33" x="159.033203"/>
       <use xlink:href="#DejaVuSans-30" x="222.65625"/>
      </g>
     </g>
    </g>
    <g id="xtick_3">
     <g id="line2d_3">
      <g>
       <use xlink:href="#m3c5bce9610" x="322.244591" y="594.700464" style="stroke: #000000; stroke-width: 0.8"/>
      </g>
     </g>
     <g id="text_3">
      <!-- 13.32 -->
      <g transform="translate(307.930529 609.298901) scale(0.1 -0.1)">
       <use xlink:href="#DejaVuSans-31"/>
       <use xlink:href="#DejaVuSans-33" x="63.623047"/>
       <use xlink:href="#DejaVuSans-2e" x="127.246094"/>
       <use xlink:href="#DejaVuSans-33" x="159.033203"/>
       <use xlink:href="#DejaVuSans-32" x="222.65625"/>
      </g>
     </g>
    </g>
    <g id="xtick_4">
     <g id="line2d_4">
      <g>
       <use xlink:href="#m3c5bce9610" x="428.853655" y="594.700464" style="stroke: #000000; stroke-width: 0.8"/>
      </g>
     </g>
     <g id="text_4">
      <!-- 13.34 -->
      <g transform="translate(414.539592 609.298901) scale(0.1 -0.1)">
       <defs>
        <path id="DejaVuSans-34" d="M 2419 4116 
L 825 1625 
L 2419 1625 
L 2419 4116 
z
M 2253 4666 
L 3047 4666 
L 3047 1625 
L 3713 1625 
L 3713 1100 
L 3047 1100 
L 3047 0 
L 2419 0 
L 2419 1100 
L 313 1100 
L 313 1709 
L 2253 4666 
z
" transform="scale(0.015625)"/>
       </defs>
       <use xlink:href="#DejaVuSans-31"/>
       <use xlink:href="#DejaVuSans-33" x="63.623047"/>
       <use xlink:href="#DejaVuSans-2e" x="127.246094"/>
       <use xlink:href="#DejaVuSans-33" x="159.033203"/>
       <use xlink:href="#DejaVuSans-34" x="222.65625"/>
      </g>
     </g>
    </g>
    <g id="xtick_5">
     <g id="line2d_5">
      <g>
       <use xlink:href="#m3c5bce9610" x="535.462718" y="594.700464" style="stroke: #000000; stroke-width: 0.8"/>
      </g>
     </g>
     <g id="text_5">
      <!-- 13.36 -->
      <g transform="translate(521.148656 609.298901) scale(0.1 -0.1)">
       <defs>
        <path id="DejaVuSans-36" d="M 2113 2584 
Q 1688 2584 1439 2293 
Q 1191 2003 1191 1497 
Q 1191 994 1439 701 
Q 1688 409 2113 409 
Q 2538 409 2786 701 
Q 3034 994 3034 1497 
Q 3034 2003 2786 2293 
Q 2538 2584 2113 2584 
z
M 3366 4563 
L 3366 3988 
Q 3128 4100 2886 4159 
Q 2644 4219 2406 4219 
Q 1781 4219 1451 3797 
Q 1122 3375 1075 2522 
Q 1259 2794 1537 2939 
Q 1816 3084 2150 3084 
Q 2853 3084 3261 2657 
Q 3669 2231 3669 1497 
Q 3669 778 3244 343 
Q 2819 -91 2113 -91 
Q 1303 -91 875 529 
Q 447 1150 447 2328 
Q 447 3434 972 4092 
Q 1497 4750 2381 4750 
Q 2619 4750 2861 4703 
Q 3103 4656 3366 4563 
z
" transform="scale(0.015625)"/>
       </defs>
       <use xlink:href="#DejaVuSans-31"/>
       <use xlink:href="#DejaVuSans-33" x="63.623047"/>
       <use xlink:href="#DejaVuSans-2e" x="127.246094"/>
       <use xlink:href="#DejaVuSans-33" x="159.033203"/>
       <use xlink:href="#DejaVuSans-36" x="222.65625"/>
      </g>
     </g>
    </g>
    <g id="xtick_6">
     <g id="line2d_6">
      <g>
       <use xlink:href="#m3c5bce9610" x="642.071782" y="594.700464" style="stroke: #000000; stroke-width: 0.8"/>
      </g>
     </g>
     <g id="text_6">
      <!-- 13.38 -->
      <g transform="translate(627.757719 609.298901) scale(0.1 -0.1)">
       <use xlink:href="#DejaVuSans-31"/>
       <use xlink:href="#DejaVuSans-33" x="63.623047"/>
       <use xlink:href="#DejaVuSans-2e" x="127.246094"/>
       <use xlink:href="#DejaVuSans-33" x="159.033203"/>
       <use xlink:href="#DejaVuSans-38" x="222.65625"/>
      </g>
     </g>
    </g>
   </g>
   <g id="matplotlib.axis_2">
    <g id="ytick_1">
     <g id="line2d_7">
      <defs>
       <path id="m1284231fc5" d="M 0 0 
L -3.5 0 
" style="stroke: #000000; stroke-width: 0.8"/>
      </defs>
      <g>
       <use xlink:href="#m1284231fc5" x="90" y="552.695055" style="stroke: #000000; stroke-width: 0.8"/>
      </g>
     </g>
     <g id="text_7">
      <!-- 52.58 -->
      <g transform="translate(54.371875 556.494274) scale(0.1 -0.1)">
       <defs>
        <path id="DejaVuSans-35" d="M 691 4666 
L 3169 4666 
L 3169 4134 
L 1269 4134 
L 1269 2991 
Q 1406 3038 1543 3061 
Q 1681 3084 1819 3084 
Q 2600 3084 3056 2656 
Q 3513 2228 3513 1497 
Q 3513 744 3044 326 
Q 2575 -91 1722 -91 
Q 1428 -91 1123 -41 
Q 819 9 494 109 
L 494 744 
Q 775 591 1075 516 
Q 1375 441 1709 441 
Q 2250 441 2565 725 
Q 2881 1009 2881 1497 
Q 2881 1984 2565 2268 
Q 2250 2553 1709 2553 
Q 1456 2553 1204 2497 
Q 953 2441 691 2322 
L 691 4666 
z
" transform="scale(0.015625)"/>
       </defs>
       <use xlink:href="#DejaVuSans-35"/>
       <use xlink:href="#DejaVuSans-32" x="63.623047"/>
       <use xlink:href="#DejaVuSans-2e" x="127.246094"/>
       <use xlink:href="#DejaVuSans-35" x="159.033203"/>
       <use xlink:href="#DejaVuSans-38" x="222.65625"/>
      </g>
     </g>
    </g>
    <g id="ytick_2">
     <g id="line2d_8">
      <g>
       <use xlink:href="#m1284231fc5" x="90" y="464.927783" style="stroke: #000000; stroke-width: 0.8"/>
      </g>
     </g>
     <g id="text_8">
      <!-- 52.59 -->
      <g transform="translate(54.371875 468.727001) scale(0.1 -0.1)">
       <defs>
        <path id="DejaVuSans-39" d="M 703 97 
L 703 672 
Q 941 559 1184 500 
Q 1428 441 1663 441 
Q 2288 441 2617 861 
Q 2947 1281 2994 2138 
Q 2813 1869 2534 1725 
Q 2256 1581 1919 1581 
Q 1219 1581 811 2004 
Q 403 2428 403 3163 
Q 403 3881 828 4315 
Q 1253 4750 1959 4750 
Q 2769 4750 3195 4129 
Q 3622 3509 3622 2328 
Q 3622 1225 3098 567 
Q 2575 -91 1691 -91 
Q 1453 -91 1209 -44 
Q 966 3 703 97 
z
M 1959 2075 
Q 2384 2075 2632 2365 
Q 2881 2656 2881 3163 
Q 2881 3666 2632 3958 
Q 2384 4250 1959 4250 
Q 1534 4250 1286 3958 
Q 1038 3666 1038 3163 
Q 1038 2656 1286 2365 
Q 1534 2075 1959 2075 
z
" transform="scale(0.015625)"/>
       </defs>
       <use xlink:href="#DejaVuSans-35"/>
       <use xlink:href="#DejaVuSans-32" x="63.623047"/>
       <use xlink:href="#DejaVuSans-2e" x="127.246094"/>
       <use xlink:href="#DejaVuSans-35" x="159.033203"/>
       <use xlink:href="#DejaVuSans-39" x="222.65625"/>
      </g>
     </g>
    </g>
    <g id="ytick_3">
     <g id="line2d_9">
      <g>
       <use xlink:href="#m1284231fc5" x="90" y="377.160511" style="stroke: #000000; stroke-width: 0.8"/>
      </g>
     </g>
     <g id="text_9">
      <!-- 52.60 -->
      <g transform="translate(54.371875 380.959729) scale(0.1 -0.1)">
       <use xlink:href="#DejaVuSans-35"/>
       <use xlink:href="#DejaVuSans-32" x="63.623047"/>
       <use xlink:href="#DejaVuSans-2e" x="127.246094"/>
       <use xlink:href="#DejaVuSans-36" x="159.033203"/>
       <use xlink:href="#DejaVuSans-30" x="222.65625"/>
      </g>
     </g>
    </g>
    <g id="ytick_4">
     <g id="line2d_10">
      <g>
       <use xlink:href="#m1284231fc5" x="90" y="289.393238" style="stroke: #000000; stroke-width: 0.8"/>
      </g>
     </g>
     <g id="text_10">
      <!-- 52.61 -->
      <g transform="translate(54.371875 293.192457) scale(0.1 -0.1)">
       <use xlink:href="#DejaVuSans-35"/>
       <use xlink:href="#DejaVuSans-32" x="63.623047"/>
       <use xlink:href="#DejaVuSans-2e" x="127.246094"/>
       <use xlink:href="#DejaVuSans-36" x="159.033203"/>
       <use xlink:href="#DejaVuSans-31" x="222.65625"/>
      </g>
     </g>
    </g>
    <g id="ytick_5">
     <g id="line2d_11">
      <g>
       <use xlink:href="#m1284231fc5" x="90" y="201.625966" style="stroke: #000000; stroke-width: 0.8"/>
      </g>
     </g>
     <g id="text_11">
      <!-- 52.62 -->
      <g transform="translate(54.371875 205.425185) scale(0.1 -0.1)">
       <use xlink:href="#DejaVuSans-35"/>
       <use xlink:href="#DejaVuSans-32" x="63.623047"/>
       <use xlink:href="#DejaVuSans-2e" x="127.246094"/>
       <use xlink:href="#DejaVuSans-36" x="159.033203"/>
       <use xlink:href="#DejaVuSans-32" x="222.65625"/>
      </g>
     </g>
    </g>
   </g>
   <g id="LineCollection_1">
    <path d="M 182.105378 381.983322 
L 185.566442 380.691388 
L 190.025366 379.02732 
" clip-path="url(#pc433815eb6)" style="fill: none; stroke: #ff0000; stroke-opacity: 0.7; stroke-width: 0.5"/>
    <path d="M 219.703197 328.011716 
L 219.792748 327.715062 
L 219.802876 327.404366 
L 219.732514 327.102447 
L 219.58646 326.829491 
L 219.374308 326.603051 
L 219.111516 326.439804 
L 218.815676 326.350281 
L 218.50651 326.339749 
L 218.205339 326.410841 
L 217.93242 326.557412 
L 217.706942 326.768931 
L 217.54383 327.033111 
L 217.454279 327.329764 
L 217.444151 327.639583 
L 217.514513 327.941502 
L 217.660567 328.214458 
L 217.872186 328.440898 
L 218.13551 328.605023 
L 218.431351 328.694545 
L 218.740517 328.7042 
L 219.041688 328.633986 
L 219.314607 328.487414 
L 219.540085 328.275018 
L 219.703197 328.011716 
" clip-path="url(#pc433815eb6)" style="fill: none; stroke: #ff0000; stroke-opacity: 0.7; stroke-width: 0.5"/>
   </g>
   <g id="patch_3">
    <path d="M 90 594.700464 
L 90 132.499536 
" style="fill: none; stroke: #000000; stroke-width: 0.8; stroke-linejoin: miter; stroke-linecap: square"/>
   </g>
   <g id="patch_4">
    <path d="M 648 594.700464 
L 648 132.499536 
" style="fill: none; stroke: #000000; stroke-width: 0.8; stroke-linejoin: miter; stroke-linecap: square"/>
   </g>
   <g id="patch_5">
    <path d="M 90 594.700464 
L 648 594.700464 
" style="fill: none; stroke: #000000; stroke-width: 0.8; stroke-linejoin: miter; stroke-linecap: square"/>
   </g>
   <g id="patch_6">
    <path d="M 90 132.499536 
L 648 132.499536 
" style="fill: none; stroke: #000000; stroke-width: 0.8; stroke-linejoin: miter; stroke-linecap: square"/>
   </g>
   <g id="text_12">
    <!-- Wittenau_Borsigwalde -->
    <g transform="translate(293.793668 379.085968) scale(0.12 -0.12)">
     <defs>
      <path id="DejaVuSans-57" d="M 213 4666 
L 850 4666 
L 1831 722 
L 2809 4666 
L 3519 4666 
L 4500 722 
L 5478 4666 
L 6119 4666 
L 4947 0 
L 4153 0 
L 3169 4050 
L 2175 0 
L 1381 0 
L 213 4666 
z
" transform="scale(0.015625)"/>
      <path id="DejaVuSans-69" d="M 603 3500 
L 1178 3500 
L 1178 0 
L 603 0 
L 603 3500 
z
M 603 4863 
L 1178 4863 
L 1178 4134 
L 603 4134 
L 603 4863 
z
" transform="scale(0.015625)"/>
      <path id="DejaVuSans-74" d="M 1172 4494 
L 1172 3500 
L 2356 3500 
L 2356 3053 
L 1172 3053 
L 1172 1153 
Q 1172 725 1289 603 
Q 1406 481 1766 481 
L 2356 481 
L 2356 0 
L 1766 0 
Q 1100 0 847 248 
Q 594 497 594 1153 
L 594 3053 
L 172 3053 
L 172 3500 
L 594 3500 
L 594 4494 
L 1172 4494 
z
" transform="scale(0.015625)"/>
      <path id="DejaVuSans-65" d="M 3597 1894 
L 3597 1613 
L 953 1613 
Q 991 1019 1311 708 
Q 1631 397 2203 397 
Q 2534 397 2845 478 
Q 3156 559 3463 722 
L 3463 178 
Q 3153 47 2828 -22 
Q 2503 -91 2169 -91 
Q 1331 -91 842 396 
Q 353 884 353 1716 
Q 353 2575 817 3079 
Q 1281 3584 2069 3584 
Q 2775 3584 3186 3129 
Q 3597 2675 3597 1894 
z
M 3022 2063 
Q 3016 2534 2758 2815 
Q 2500 3097 2075 3097 
Q 1594 3097 1305 2825 
Q 1016 2553 972 2059 
L 3022 2063 
z
" transform="scale(0.015625)"/>
      <path id="DejaVuSans-6e" d="M 3513 2113 
L 3513 0 
L 2938 0 
L 2938 2094 
Q 2938 2591 2744 2837 
Q 2550 3084 2163 3084 
Q 1697 3084 1428 2787 
Q 1159 2491 1159 1978 
L 1159 0 
L 581 0 
L 581 3500 
L 1159 3500 
L 1159 2956 
Q 1366 3272 1645 3428 
Q 1925 3584 2291 3584 
Q 2894 3584 3203 3211 
Q 3513 2838 3513 2113 
z
" transform="scale(0.015625)"/>
      <path id="DejaVuSans-61" d="M 2194 1759 
Q 1497 1759 1228 1600 
Q 959 1441 959 1056 
Q 959 750 1161 570 
Q 1363 391 1709 391 
Q 2188 391 2477 730 
Q 2766 1069 2766 1631 
L 2766 1759 
L 2194 1759 
z
M 3341 1997 
L 3341 0 
L 2766 0 
L 2766 531 
Q 2569 213 2275 61 
Q 1981 -91 1556 -91 
Q 1019 -91 701 211 
Q 384 513 384 1019 
Q 384 1609 779 1909 
Q 1175 2209 1959 2209 
L 2766 2209 
L 2766 2266 
Q 2766 2663 2505 2880 
Q 2244 3097 1772 3097 
Q 1472 3097 1187 3025 
Q 903 2953 641 2809 
L 641 3341 
Q 956 3463 1253 3523 
Q 1550 3584 1831 3584 
Q 2591 3584 2966 3190 
Q 3341 2797 3341 1997 
z
" transform="scale(0.015625)"/>
      <path id="DejaVuSans-75" d="M 544 1381 
L 544 3500 
L 1119 3500 
L 1119 1403 
Q 1119 906 1312 657 
Q 1506 409 1894 409 
Q 2359 409 2629 706 
Q 2900 1003 2900 1516 
L 2900 3500 
L 3475 3500 
L 3475 0 
L 2900 0 
L 2900 538 
Q 2691 219 2414 64 
Q 2138 -91 1772 -91 
Q 1169 -91 856 284 
Q 544 659 544 1381 
z
M 1991 3584 
L 1991 3584 
z
" transform="scale(0.015625)"/>
      <path id="DejaVuSans-5f" d="M 3263 -1063 
L 3263 -1509 
L -63 -1509 
L -63 -1063 
L 3263 -1063 
z
" transform="scale(0.015625)"/>
      <path id="DejaVuSans-42" d="M 1259 2228 
L 1259 519 
L 2272 519 
Q 2781 519 3026 730 
Q 3272 941 3272 1375 
Q 3272 1813 3026 2020 
Q 2781 2228 2272 2228 
L 1259 2228 
z
M 1259 4147 
L 1259 2741 
L 2194 2741 
Q 2656 2741 2882 2914 
Q 3109 3088 3109 3444 
Q 3109 3797 2882 3972 
Q 2656 4147 2194 4147 
L 1259 4147 
z
M 628 4666 
L 2241 4666 
Q 2963 4666 3353 4366 
Q 3744 4066 3744 3513 
Q 3744 3084 3544 2831 
Q 3344 2578 2956 2516 
Q 3422 2416 3680 2098 
Q 3938 1781 3938 1306 
Q 3938 681 3513 340 
Q 3088 0 2303 0 
L 628 0 
L 628 4666 
z
" transform="scale(0.015625)"/>
      <path id="DejaVuSans-6f" d="M 1959 3097 
Q 1497 3097 1228 2736 
Q 959 2375 959 1747 
Q 959 1119 1226 758 
Q 1494 397 1959 397 
Q 2419 397 2687 759 
Q 2956 1122 2956 1747 
Q 2956 2369 2687 2733 
Q 2419 3097 1959 3097 
z
M 1959 3584 
Q 2709 3584 3137 3096 
Q 3566 2609 3566 1747 
Q 3566 888 3137 398 
Q 2709 -91 1959 -91 
Q 1206 -91 779 398 
Q 353 888 353 1747 
Q 353 2609 779 3096 
Q 1206 3584 1959 3584 
z
" transform="scale(0.015625)"/>
      <path id="DejaVuSans-72" d="M 2631 2963 
Q 2534 3019 2420 3045 
Q 2306 3072 2169 3072 
Q 1681 3072 1420 2755 
Q 1159 2438 1159 1844 
L 1159 0 
L 581 0 
L 581 3500 
L 1159 3500 
L 1159 2956 
Q 1341 3275 1631 3429 
Q 1922 3584 2338 3584 
Q 2397 3584 2469 3576 
Q 2541 3569 2628 3553 
L 2631 2963 
z
" transform="scale(0.015625)"/>
      <path id="DejaVuSans-73" d="M 2834 3397 
L 2834 2853 
Q 2591 2978 2328 3040 
Q 2066 3103 1784 3103 
Q 1356 3103 1142 2972 
Q 928 2841 928 2578 
Q 928 2378 1081 2264 
Q 1234 2150 1697 2047 
L 1894 2003 
Q 2506 1872 2764 1633 
Q 3022 1394 3022 966 
Q 3022 478 2636 193 
Q 2250 -91 1575 -91 
Q 1294 -91 989 -36 
Q 684 19 347 128 
L 347 722 
Q 666 556 975 473 
Q 1284 391 1588 391 
Q 1994 391 2212 530 
Q 2431 669 2431 922 
Q 2431 1156 2273 1281 
Q 2116 1406 1581 1522 
L 1381 1569 
Q 847 1681 609 1914 
Q 372 2147 372 2553 
Q 372 3047 722 3315 
Q 1072 3584 1716 3584 
Q 2034 3584 2315 3537 
Q 2597 3491 2834 3397 
z
" transform="scale(0.015625)"/>
      <path id="DejaVuSans-67" d="M 2906 1791 
Q 2906 2416 2648 2759 
Q 2391 3103 1925 3103 
Q 1463 3103 1205 2759 
Q 947 2416 947 1791 
Q 947 1169 1205 825 
Q 1463 481 1925 481 
Q 2391 481 2648 825 
Q 2906 1169 2906 1791 
z
M 3481 434 
Q 3481 -459 3084 -895 
Q 2688 -1331 1869 -1331 
Q 1566 -1331 1297 -1286 
Q 1028 -1241 775 -1147 
L 775 -588 
Q 1028 -725 1275 -790 
Q 1522 -856 1778 -856 
Q 2344 -856 2625 -561 
Q 2906 -266 2906 331 
L 2906 616 
Q 2728 306 2450 153 
Q 2172 0 1784 0 
Q 1141 0 747 490 
Q 353 981 353 1791 
Q 353 2603 747 3093 
Q 1141 3584 1784 3584 
Q 2172 3584 2450 3431 
Q 2728 3278 2906 2969 
L 2906 3500 
L 3481 3500 
L 3481 434 
z
" transform="scale(0.015625)"/>
      <path id="DejaVuSans-77" d="M 269 3500 
L 844 3500 
L 1563 769 
L 2278 3500 
L 2956 3500 
L 3675 769 
L 4391 3500 
L 4966 3500 
L 4050 0 
L 3372 0 
L 2619 2869 
L 1863 0 
L 1184 0 
L 269 3500 
z
" transform="scale(0.015625)"/>
      <path id="DejaVuSans-6c" d="M 603 4863 
L 1178 4863 
L 1178 0 
L 603 0 
L 603 4863 
z
" transform="scale(0.015625)"/>
      <path id="DejaVuSans-64" d="M 2906 2969 
L 2906 4863 
L 3481 4863 
L 3481 0 
L 2906 0 
L 2906 525 
Q 2725 213 2448 61 
Q 2172 -91 1784 -91 
Q 1150 -91 751 415 
Q 353 922 353 1747 
Q 353 2572 751 3078 
Q 1150 3584 1784 3584 
Q 2172 3584 2448 3432 
Q 2725 3281 2906 2969 
z
M 947 1747 
Q 947 1113 1208 752 
Q 1469 391 1925 391 
Q 2381 391 2643 752 
Q 2906 1113 2906 1747 
Q 2906 2381 2643 2742 
Q 2381 3103 1925 3103 
Q 1469 3103 1208 2742 
Q 947 2381 947 1747 
z
" transform="scale(0.015625)"/>
     </defs>
     <use xlink:href="#DejaVuSans-57"/>
     <use xlink:href="#DejaVuSans-69" x="96.626953"/>
     <use xlink:href="#DejaVuSans-74" x="124.410156"/>
     <use xlink:href="#DejaVuSans-74" x="163.619141"/>
     <use xlink:href="#DejaVuSans-65" x="202.828125"/>
     <use xlink:href="#DejaVuSans-6e" x="264.351562"/>
     <use xlink:href="#DejaVuSans-61" x="327.730469"/>
     <use xlink:href="#DejaVuSans-75" x="389.009766"/>
     <use xlink:href="#DejaVuSans-5f" x="452.388672"/>
     <use xlink:href="#DejaVuSans-42" x="502.388672"/>
     <use xlink:href="#DejaVuSans-6f" x="570.992188"/>
     <use xlink:href="#DejaVuSans-72" x="632.173828"/>
     <use xlink:href="#DejaVuSans-73" x="673.287109"/>
     <use xlink:href="#DejaVuSans-69" x="725.386719"/>
     <use xlink:href="#DejaVuSans-67" x="753.169922"/>
     <use xlink:href="#DejaVuSans-77" x="816.646484"/>
     <use xlink:href="#DejaVuSans-61" x="898.433594"/>
     <use xlink:href="#DejaVuSans-6c" x="959.712891"/>
     <use xlink:href="#DejaVuSans-64" x="987.496094"/>
     <use xlink:href="#DejaVuSans-65" x="1050.972656"/>
    </g>
   </g>
  </g>
 </g>
 <defs>
  <clipPath id="pc433815eb6">
   <rect x="90" y="132.499536" width="558" height="462.200928"/>
  </clipPath>
 </defs>
</svg>
