<?xml version="1.0" encoding="utf-8" standalone="no"?>
<!DOCTYPE svg PUBLIC "-//W3C//DTD SVG 1.1//EN"
  "http://www.w3.org/Graphics/SVG/1.1/DTD/svg11.dtd">
<svg xmlns:xlink="http://www.w3.org/1999/xlink" width="720pt" height="720pt" viewBox="0 0 720 720" xmlns="http://www.w3.org/2000/svg" version="1.1">
 <metadata>
  <rdf:RDF xmlns:dc="http://purl.org/dc/elements/1.1/" xmlns:cc="http://creativecommons.org/ns#" xmlns:rdf="http://www.w3.org/1999/02/22-rdf-syntax-ns#">
   <cc:Work>
    <dc:type rdf:resource="http://purl.org/dc/dcmitype/StillImage"/>
    <dc:date>2024-10-17T11:36:15.581099</dc:date>
    <dc:format>image/svg+xml</dc:format>
    <dc:creator>
     <cc:Agent>
      <dc:title>Matplotlib v3.9.2, https://matplotlib.org/</dc:title>
     </cc:Agent>
    </dc:creator>
   </cc:Work>
  </rdf:RDF>
 </metadata>
 <defs>
  <style type="text/css">*{stroke-linejoin: round; stroke-linecap: butt}</style>
 </defs>
 <g id="figure_1">
  <g id="patch_1">
   <path d="M 0 720 
L 720 720 
L 720 0 
L 0 0 
z
" style="fill: #ffffff"/>
  </g>
  <g id="axes_1">
   <g id="patch_2">
    <path d="M 90 589.573384 
L 648 589.573384 
L 648 137.626616 
L 90 137.626616 
z
" style="fill: #ffffff"/>
   </g>
   <g id="PatchCollection_1">
    <path d="M 316.319463 565.3251 
L 316.858741 565.221684 
L 317.869022 565.086833 
L 318.421988 565.011254 
L 319.579037 564.853275 
L 320.611506 564.71474 
L 322.794439 564.421832 
L 324.974392 564.129394 
L 327.162029 563.835859 
L 329.199369 563.562551 
L 331.230595 563.289558 
L 331.671839 563.230208 
L 332.060318 563.177992 
L 333.257195 562.701233 
L 335.289518 561.891581 
L 335.571842 561.779153 
L 336.73681 561.315016 
L 337.338306 561.299963 
L 337.886803 561.286243 
L 339.370315 561.249237 
L 341.685903 561.191299 
L 342.611511 561.16817 
L 343.766992 561.707337 
L 345.824169 562.678496 
L 346.104768 562.810916 
L 348.045518 563.715042 
L 350.452052 564.83634 
L 352.460384 565.882059 
L 352.868856 566.020908 
L 353.68917 566.431654 
L 356.368855 565.985157 
L 359.536353 566.065832 
L 361.81274 565.941331 
L 362.606006 566.004522 
L 363.368461 566.065284 
L 365.756256 566.227496 
L 369.110742 566.010716 
L 371.029775 565.827492 
L 373.036148 565.655949 
L 375.437036 565.766652 
L 379.494313 565.673041 
L 383.403332 565.618395 
L 384.799349 565.548618 
L 385.404217 565.524078 
L 385.372386 565.677275 
L 385.268739 566.176065 
L 385.818824 566.162555 
L 386.635042 566.142509 
L 386.67581 566.143293 
L 386.945903 565.62553 
L 387.037241 565.524549 
L 387.45763 565.059863 
L 387.473232 564.984127 
L 387.714787 564.977698 
L 392.701043 564.840574 
L 399.733185 564.756528 
L 404.894982 564.621207 
L 406.650705 564.269733 
L 406.919857 564.216028 
L 409.321138 563.680859 
L 409.705697 563.453809 
L 417.085609 560.895 
L 419.614469 560.018177 
L 422.052128 559.13718 
L 422.022235 559.019024 
L 421.94362 558.743918 
L 421.919394 558.657206 
L 421.751928 558.066059 
L 421.736483 558.010158 
L 422.24037 557.899769 
L 422.932419 557.742025 
L 423.544813 557.573384 
L 424.880775 557.155896 
L 425.960755 556.80254 
L 426.791184 556.503988 
L 429.320886 555.398135 
L 431.322633 554.508748 
L 432.911203 553.802978 
L 435.057836 552.847421 
L 437.044922 551.96313 
L 437.923175 551.572377 
L 438.710404 551.22208 
L 439.617274 550.81839 
L 442.418089 549.571885 
L 443.320176 549.170391 
L 443.812146 548.951494 
L 444.317208 548.726717 
L 448.504631 546.863114 
L 451.660918 545.458003 
L 451.840379 545.378347 
L 452.020703 545.297907 
L 453.658509 544.631337 
L 453.762862 544.587903 
L 453.263209 543.448651 
L 453.130868 543.151431 
L 452.989666 542.825751 
L 452.665868 542.08815 
L 452.350224 541.370306 
L 451.782127 540.079269 
L 451.467345 539.361425 
L 446.182301 527.340361 
L 446.227539 527.295907 
L 446.266112 527.245416 
L 446.297081 527.190065 
L 446.319895 527.130794 
L 446.334008 527.068935 
L 446.339339 527.005743 
L 446.335576 526.942316 
L 446.322875 526.880144 
L 446.30155 526.820402 
L 446.271914 526.764267 
L 446.234673 526.712992 
L 446.190533 526.667441 
L 446.140356 526.628554 
L 446.08524 526.597193 
L 446.026204 526.573986 
L 445.964502 526.559404 
L 445.90131 526.553602 
L 445.837962 526.556895 
L 444.803062 524.202969 
L 444.696671 523.9611 
L 444.441082 523.379675 
L 443.57898 521.41854 
L 441.207805 516.021303 
L 441.009214 515.569162 
L 440.886673 515.293189 
L 436.544407 505.407154 
L 435.760235 503.623598 
L 435.754668 503.610976 
L 435.369247 502.732644 
L 434.520943 500.802086 
L 433.73191 499.009044 
L 432.8633 497.030269 
L 432.027697 495.129739 
L 431.473555 493.832429 
L 430.893071 492.550879 
L 430.711258 492.136605 
L 429.84108 490.156184 
L 429.043501 488.340405 
L 428.097901 486.187579 
L 427.903309 485.744062 
L 426.337396 482.180166 
L 425.587486 480.472503 
L 425.222684 479.642466 
L 425.083286 479.325411 
L 425.467688 479.229212 
L 426.605921 478.945164 
L 427.062453 478.811175 
L 431.725146 477.096065 
L 434.231798 476.172495 
L 441.589699 473.472348 
L 448.943444 470.747818 
L 454.818146 468.573039 
L 455.885033 468.132188 
L 458.66804 466.982857 
L 458.670403 466.981881 
L 458.686161 466.975139 
L 461.488152 465.81809 
L 461.756755 466.086615 
L 465.272984 464.666764 
L 465.398034 464.196041 
L 464.605317 463.462831 
L 460.024632 459.176622 
L 458.083568 457.040338 
L 457.963143 456.922814 
L 457.58368 456.570713 
L 456.386332 455.459607 
L 454.614851 453.816234 
L 453.76294 453.04837 
L 453.313778 452.604068 
L 453.050192 452.366982 
L 452.854189 452.182112 
L 452.448853 451.799826 
L 451.323478 450.738584 
L 449.801078 449.302817 
L 448.596047 448.166466 
L 447.451307 447.086878 
L 446.369367 446.066561 
L 445.221804 444.984307 
L 444.466171 444.277674 
L 444.01889 444.097508 
L 438.278177 438.60713 
L 436.578668 437.039728 
L 433.421283 434.010765 
L 431.037878 431.880048 
L 425.922887 427.169843 
L 425.54115 426.805041 
L 421.90293 423.327935 
L 417.12969 418.785746 
L 415.229003 416.990665 
L 414.211666 416.029933 
L 413.396212 415.259717 
L 413.184293 415.03055 
L 413.391743 414.023483 
L 412.943365 413.878832 
L 412.849137 413.78834 
L 411.479844 412.473329 
L 407.436994 408.560781 
L 407.405163 408.529812 
L 405.267076 406.463384 
L 405.040731 406.864408 
L 400.680981 402.752564 
L 395.602446 398.023465 
L 395.785514 397.875678 
L 395.969444 397.727029 
L 395.042189 396.861868 
L 394.12403 396.005254 
L 393.21959 395.16134 
L 391.934982 393.950743 
L 391.512711 393.564851 
L 390.95661 392.880014 
L 389.979257 391.675297 
L 389.779333 391.429273 
L 389.341304 391.581607 
L 388.178296 391.402303 
L 388.111734 391.391954 
L 387.711886 391.803797 
L 387.696519 391.788587 
L 387.681858 391.775807 
L 387.64744 391.813519 
L 387.35759 391.524844 
L 386.824445 390.993375 
L 386.03954 390.210936 
L 385.98086 389.542855 
L 385.923783 389.492364 
L 384.978575 388.568324 
L 384.433842 388.035821 
L 383.944146 387.55718 
L 382.499991 386.145405 
L 382.391169 386.039092 
L 381.575951 385.242063 
L 380.684683 384.370944 
L 378.776469 382.505538 
L 377.844746 381.594748 
L 377.109183 380.878628 
L 375.774084 379.505034 
L 374.980583 378.670372 
L 373.549442 377.164907 
L 373.308828 376.911827 
L 372.958608 376.609589 
L 372.804942 376.487518 
L 372.423126 376.143884 
L 371.309041 375.141286 
L 370.443411 374.371149 
L 369.635718 373.669926 
L 368.615245 372.698061 
L 368.434529 372.526048 
L 368.275845 372.37489 
L 367.809121 371.930197 
L 366.8037 370.972523 
L 365.57413 369.673567 
L 364.426724 368.461715 
L 364.142362 368.161516 
L 363.588377 367.32309 
L 363.559917 367.297453 
L 362.94768 366.388153 
L 362.618315 365.89979 
L 361.742336 364.599737 
L 360.860868 363.295685 
L 357.167217 357.80272 
L 356.100486 356.224655 
L 354.00701 353.113214 
L 353.306336 352.073688 
L 352.401034 350.624986 
L 351.411294 349.039786 
L 350.895308 350.119763 
L 350.353707 349.306167 
L 349.884582 348.601443 
L 349.782503 348.448169 
L 349.811825 348.428411 
L 349.798183 348.406929 
L 350.019511 347.940754 
L 348.001848 344.881764 
L 347.493572 344.111626 
L 347.195646 343.659876 
L 346.874905 343.173238 
L 346.515983 342.629367 
L 345.024866 340.368269 
L 344.161509 339.059826 
L 343.299014 337.751462 
L 342.39332 336.443804 
L 341.501425 335.155276 
L 341.064258 334.524457 
L 340.667546 333.823862 
L 339.929632 332.520202 
L 339.687685 332.091502 
L 339.637665 332.0004 
L 339.136365 331.112033 
L 337.704049 328.988842 
L 336.694316 327.492236 
L 336.634809 327.404818 
L 336.580712 327.325398 
L 336.701059 327.261109 
L 336.961264 327.118473 
L 335.069681 324.25645 
L 334.049677 322.81598 
L 333.471153 321.998879 
L 326.865593 312.682588 
L 326.848815 312.659538 
L 326.802323 312.597287 
L 326.747912 312.524374 
L 325.541391 312.886275 
L 325.188033 312.414513 
L 324.793833 311.888224 
L 325.398622 311.693083 
L 325.523516 311.652785 
L 325.537211 311.64874 
L 325.890121 311.544512 
L 327.616836 311.027846 
L 329.351076 310.508436 
L 332.377766 309.606271 
L 333.624741 309.234961 
L 333.968532 309.133274 
L 335.838721 308.575213 
L 337.340893 308.126991 
L 338.843458 307.678613 
L 341.38147 306.590244 
L 342.68486 306.052676 
L 344.057783 305.486429 
L 345.13549 305.045186 
L 347.929249 303.897467 
L 348.543759 303.657009 
L 349.559059 303.295814 
L 350.028684 303.044458 
L 352.386765 302.171615 
L 353.599949 301.7074 
L 355.79966 300.851099 
L 356.763057 300.485591 
L 356.83699 300.457523 
L 357.110062 300.32526 
L 357.806032 299.988133 
L 359.84549 298.976598 
L 360.982939 298.408344 
L 362.017838 297.889326 
L 363.862939 296.971636 
L 365.353116 296.197579 
L 365.784559 296.019215 
L 368.829281 294.503871 
L 370.271554 293.85949 
L 371.712182 293.216597 
L 373.272214 292.51804 
L 375.103516 291.698431 
L 375.282193 291.617913 
L 375.825751 291.380905 
L 376.791343 290.959889 
L 377.822244 290.545224 
L 379.218261 289.983869 
L 380.610985 289.424004 
L 382.004572 288.864139 
L 383.401372 288.302 
L 384.358811 287.917284 
L 386.414577 287.289288 
L 387.412392 287.00963 
L 388.695511 286.650708 
L 389.97863 286.291786 
L 391.261827 285.93208 
L 392.544945 285.573158 
L 393.603052 285.276801 
L 393.82728 285.214236 
L 394.357588 285.065744 
L 394.582365 285.002866 
L 395.676301 284.696787 
L 396.997287 284.32681 
L 398.405535 283.73433 
L 398.513807 283.689328 
L 398.62208 283.643541 
L 399.531537 283.261334 
L 399.958511 283.081873 
L 401.294865 282.520126 
L 401.403137 282.47434 
L 401.511409 282.428632 
L 402.73949 281.912593 
L 403.967649 281.395849 
L 404.075922 281.350925 
L 404.184194 281.305138 
L 404.85194 281.023912 
L 405.520548 280.743392 
L 406.09672 280.50121 
L 406.856901 280.181645 
L 406.965173 280.135937 
L 407.073446 280.090151 
L 408.409878 279.528404 
L 410.293081 278.736471 
L 411.05334 278.416985 
L 411.239252 279.014343 
L 411.567262 280.068277 
L 414.222955 278.951604 
L 414.546048 279.458156 
L 414.621392 279.576072 
L 415.00305 280.174354 
L 415.754215 281.351709 
L 416.3445 282.276846 
L 417.01938 283.335658 
L 417.187159 283.598931 
L 417.689007 284.385925 
L 418.029818 284.920309 
L 418.173841 285.146027 
L 418.872477 286.241609 
L 418.921321 286.313896 
L 419.193296 286.741889 
L 419.332537 286.961335 
L 419.715215 287.562988 
L 420.205302 288.331166 
L 420.55709 288.88272 
L 421.399043 290.203236 
L 421.926372 291.030294 
L 422.241702 291.524615 
L 423.455828 293.429222 
L 423.476369 293.460975 
L 423.607927 293.667719 
L 423.633956 293.708567 
L 423.937213 294.208219 
L 423.965359 294.252595 
L 424.098563 294.462162 
L 426.011481 297.465095 
L 426.854846 298.790394 
L 427.721104 300.150581 
L 428.563763 301.47345 
L 429.38737 302.766212 
L 428.750045 303.192324 
L 426.019713 305.017902 
L 426.569307 304.993676 
L 426.714899 304.987247 
L 427.103927 304.970077 
L 428.044039 304.928681 
L 429.802349 304.850829 
L 430.293378 304.920528 
L 430.572958 305.059925 
L 431.169201 305.364515 
L 431.647607 305.888707 
L 432.228954 306.526112 
L 433.287923 307.68614 
L 434.349949 308.850951 
L 435.41127 310.01341 
L 436.472512 311.176652 
L 437.54183 312.348362 
L 437.812551 312.645426 
L 437.644771 312.6869 
L 437.869456 312.996517 
L 438.146698 313.378558 
L 437.637558 313.602473 
L 437.841716 313.830543 
L 438.144267 314.167747 
L 441.886605 318.338471 
L 441.914987 318.370459 
L 442.327927 318.835928 
L 443.784784 320.478047 
L 444.1695 320.911686 
L 444.687733 321.495777 
L 445.143089 322.00915 
L 445.37257 322.267797 
L 447.984202 325.211537 
L 448.31686 325.586218 
L 448.349553 325.623066 
L 449.226944 326.357061 
L 449.37622 326.309707 
L 449.480886 326.276464 
L 449.560621 326.205825 
L 449.583122 326.231383 
L 450.98102 327.818857 
L 451.122143 327.818386 
L 451.370597 327.739279 
L 453.017656 327.214616 
L 454.038913 326.889329 
L 456.454855 326.119975 
L 459.068761 325.287038 
L 460.152504 324.941601 
L 462.615173 324.156802 
L 463.290916 323.941433 
L 472.921362 320.880874 
L 474.112359 320.502195 
L 475.532053 320.050211 
L 484.032263 317.346771 
L 484.778018 317.380562 
L 485.019808 317.483189 
L 485.349565 317.378131 
L 486.067958 317.155079 
L 486.791682 316.943865 
L 487.173889 316.839043 
L 487.274792 316.315713 
L 487.3568 316.289997 
L 487.51768 316.239585 
L 487.815762 316.14958 
L 490.113239 315.546594 
L 492.049442 315.229147 
L 494.25417 315.049294 
L 494.223829 315.406961 
L 502.724118 316.076902 
L 506.631726 316.384941 
L 509.296044 316.609718 
L 512.225672 316.857545 
L 519.5744 317.483581 
L 530.267578 318.387315 
L 530.296978 318.038272 
L 537.998121 318.68038 
L 544.674399 319.248947 
L 552.870098 319.940448 
L 553.210518 319.968908 
L 553.828848 320.018497 
L 554.265723 320.053268 
L 554.570156 320.079454 
L 554.717316 320.091685 
L 556.479154 320.242294 
L 558.64719 320.427557 
L 559.243276 320.484241 
L 560.290093 320.566563 
L 561.618763 320.677422 
L 562.574791 320.757157 
L 564.058774 320.882678 
L 565.542757 321.00812 
L 566.923486 321.122194 
L 569.174471 321.275626 
L 572.253532 321.484723 
L 573.426654 321.564378 
L 573.584789 321.575198 
L 573.539081 322.163131 
L 574.448852 322.226714 
L 577.113013 322.414642 
L 577.195256 322.421699 
L 579.62531 322.594182 
L 581.959949 322.759374 
L 585.288092 322.993637 
L 585.511223 323.008926 
L 585.94886 323.039973 
L 596.774302 323.504815 
L 597.958948 323.622261 
L 598.139742 323.639822 
L 599.48174 323.934298 
L 600.782499 324.375307 
L 602.020929 324.965748 
L 603.234505 324.015993 
L 611.808884 324.37366 
L 614.875244 324.501847 
L 616.875501 324.585423 
L 617.147319 324.596869 
L 618.011617 322.710451 
L 618.570228 321.471473 
L 619.003945 320.509408 
L 619.078504 320.342334 
L 619.029268 319.879609 
L 621.465594 314.127919 
L 622.004604 307.150031 
L 622.531149 300.331846 
L 622.583129 294.394423 
L 622.636364 288.347238 
L 622.524328 284.831402 
L 622.516174 284.574088 
L 621.496798 277.323206 
L 621.425766 276.817986 
L 619.919517 266.10411 
L 617.517139 257.438786 
L 612.813285 244.766754 
L 612.799094 244.736727 
L 612.682355 244.490546 
L 612.650284 244.422851 
L 612.588978 244.293445 
L 612.431235 243.96063 
L 609.866644 237.553112 
L 609.834499 237.47181 
L 607.504956 231.650422 
L 607.415892 231.428467 
L 607.020278 230.505289 
L 606.876176 230.087018 
L 606.258921 228.290212 
L 605.103832 224.973281 
L 603.590683 220.908634 
L 600.89626 213.908401 
L 599.096162 209.306783 
L 596.535569 203.39241 
L 593.169088 196.033647 
L 591.873111 193.364704 
L 590.365764 190.14452 
L 590.117937 189.612957 
L 589.803783 189.107582 
L 589.34435 188.001258 
L 588.799538 186.722452 
L 588.302237 185.788376 
L 588.01615 185.250934 
L 584.983424 179.348008 
L 584.665741 178.74071 
L 584.22536 177.90448 
L 584.087844 177.63376 
L 583.528685 176.534179 
L 581.531485 172.523786 
L 580.607445 170.702363 
L 580.045228 169.144917 
L 577.59087 162.342805 
L 577.063306 159.79115 
L 576.639703 159.024227 
L 575.959649 159.289616 
L 575.661331 159.472919 
L 575.634282 159.655045 
L 575.52648 159.881939 
L 575.460466 160.017103 
L 575.269559 160.117692 
L 574.532506 159.96332 
L 574.175937 159.707261 
L 573.487571 159.669001 
L 573.101287 159.617804 
L 572.738681 159.431366 
L 572.43856 158.810191 
L 572.15749 158.417635 
L 571.900412 158.211987 
L 571.767365 158.198502 
L 571.477828 158.459501 
L 571.232039 158.84994 
L 571.126668 158.992161 
L 570.887935 159.052687 
L 570.727134 158.936731 
L 570.663236 158.587452 
L 570.520859 158.199835 
L 570.274365 158.218652 
L 570.057115 158.550839 
L 570.117641 159.037241 
L 570.096159 159.586365 
L 570.065739 159.743404 
L 569.977694 159.837329 
L 569.834846 159.887192 
L 569.314653 159.786289 
L 569.076626 159.528505 
L 568.521465 158.791296 
L 568.061718 158.399916 
L 567.600012 158.189643 
L 567.453793 158.169651 
L 567.173822 158.216848 
L 566.87621 158.324807 
L 566.629794 158.545115 
L 566.426342 158.851665 
L 566.319167 159.009174 
L 566.087804 159.586052 
L 565.915556 159.944974 
L 565.804697 160.044779 
L 565.617474 160.078884 
L 564.953648 160.026198 
L 563.999346 159.95548 
L 563.600282 160.082725 
L 563.372212 160.244624 
L 563.271701 160.418284 
L 563.285422 160.641963 
L 564.031255 162.39894 
L 564.396136 163.203183 
L 564.392372 163.331134 
L 564.370185 163.493503 
L 564.319145 163.580372 
L 564.248427 163.629138 
L 564.12173 163.73647 
L 563.963908 163.750739 
L 563.099453 163.531214 
L 562.286665 163.401303 
L 561.187555 163.401538 
L 561.069404 163.553716 
L 561.005663 163.728081 
L 560.945137 164.234162 
L 560.816873 164.749887 
L 560.529531 165.018647 
L 560.362614 165.13868 
L 560.180645 165.146207 
L 559.89346 164.911865 
L 559.829641 164.763999 
L 559.784403 164.544475 
L 559.777583 164.410252 
L 559.874487 164.260035 
L 560.111102 163.733804 
L 560.271904 163.235092 
L 560.288447 163.065353 
L 560.216396 162.85461 
L 559.962453 162.605999 
L 559.738303 162.562486 
L 559.204624 162.840027 
L 558.655422 162.779423 
L 558.517671 162.561231 
L 558.880748 161.939429 
L 558.905209 161.684311 
L 558.883649 161.477252 
L 558.706383 161.338717 
L 558.405243 161.34397 
L 558.252203 161.477409 
L 558.08513 161.686663 
L 557.927308 162.031786 
L 557.505586 162.522344 
L 556.835253 162.812979 
L 556.663789 162.843398 
L 555.625205 163.121488 
L 555.222221 163.205535 
L 554.305081 163.325254 
L 553.948746 163.345168 
L 553.445408 163.471159 
L 552.958143 163.577158 
L 552.492987 163.756384 
L 552.166131 163.917969 
L 551.901134 164.246863 
L 551.893529 164.605785 
L 552.066875 165.174274 
L 552.066326 165.327157 
L 552.028537 165.460518 
L 551.842333 165.646643 
L 551.683649 165.664048 
L 551.570202 165.60854 
L 551.21324 165.622182 
L 550.90622 165.527708 
L 550.697672 165.483725 
L 550.42554 165.492663 
L 550.331066 165.511244 
L 550.052584 165.768558 
L 550.10378 166.084672 
L 550.062228 166.290084 
L 549.963363 166.541439 
L 549.877514 166.849479 
L 549.728629 167.05199 
L 549.438701 167.332667 
L 549.079857 167.691903 
L 548.888244 168.041025 
L 548.752844 168.193672 
L 548.609683 168.259138 
L 548.477185 168.258981 
L 548.261424 168.185127 
L 547.425664 167.81954 
L 546.040623 167.644235 
L 545.581975 167.684847 
L 544.18392 168.112135 
L 543.874234 168.234755 
L 543.676035 168.394851 
L 543.60563 168.672627 
L 543.536245 168.901794 
L 543.543223 169.149622 
L 543.523936 169.462051 
L 543.50512 170.041046 
L 543.206959 170.301888 
L 543.065444 170.278838 
L 542.820204 170.18946 
L 542.586254 170.168606 
L 541.602159 169.930344 
L 541.295687 169.97072 
L 541.139355 170.069663 
L 541.043078 170.226936 
L 541.016186 170.404437 
L 540.983728 170.50338 
L 541.330576 171.184924 
L 541.704708 171.584066 
L 541.631167 171.824915 
L 541.526893 171.906767 
L 541.509331 171.922917 
L 541.485654 171.932639 
L 541.20725 171.856825 
L 540.872633 171.891165 
L 540.637899 171.823975 
L 540.481723 171.792849 
L 540.335975 171.748474 
L 540.096537 171.723542 
L 539.81633 171.742515 
L 539.406682 171.722915 
L 539.27975 171.720563 
L 539.00119 171.607822 
L 538.929687 171.412053 
L 538.88445 171.191667 
L 538.709301 170.634859 
L 538.583153 170.260884 
L 538.470725 170.155199 
L 538.229641 170.053434 
L 537.871659 169.956451 
L 537.678713 169.875933 
L 537.341665 169.833439 
L 537.002108 169.877971 
L 536.95005 169.897337 
L 536.878391 169.953237 
L 536.817159 170.03987 
L 536.746363 170.216431 
L 536.646871 171.121576 
L 536.550751 171.434162 
L 536.24428 171.9669 
L 535.765168 172.437231 
L 535.56352 172.761343 
L 534.790403 173.590987 
L 534.586559 173.800319 
L 534.313173 174.076528 
L 534.251549 174.225098 
L 534.300785 174.686256 
L 534.33685 175.136908 
L 534.316779 175.325463 
L 534.336693 175.554788 
L 534.278284 176.152599 
L 534.240651 176.277257 
L 534.111524 176.513951 
L 533.984357 176.561698 
L 533.84441 176.583337 
L 533.701641 176.506895 
L 533.609206 176.421281 
L 533.443622 176.221357 
L 533.070196 175.700771 
L 532.810922 175.48258 
L 532.516368 175.307588 
L 532.18567 175.220562 
L 531.684606 175.266662 
L 530.482163 175.587951 
L 530.217166 175.713002 
L 530.074632 175.870981 
L 530.001091 176.068709 
L 530.174202 177.430621 
L 530.175064 177.510591 
L 530.034647 177.760378 
L 529.921592 177.810712 
L 529.836997 177.809928 
L 529.631977 177.786407 
L 529.508965 177.659397 
L 529.350281 177.432973 
L 529.046475 176.879224 
L 528.865681 176.406933 
L 528.667717 176.181294 
L 528.522204 176.085252 
L 528.399192 176.042131 
L 528.071317 176.092308 
L 527.923844 176.138173 
L 527.812279 176.231628 
L 526.756524 177.166408 
L 526.517557 177.650224 
L 526.49286 177.917887 
L 526.514499 178.222476 
L 526.475925 178.563523 
L 526.246209 178.891555 
L 526.206303 178.928403 
L 525.899126 179.002571 
L 525.771723 178.986028 
L 525.481324 178.836203 
L 524.469239 177.72643 
L 524.179311 177.514746 
L 523.983072 177.362883 
L 523.526618 177.166016 
L 523.421717 177.117016 
L 523.185807 177.031715 
L 522.921751 177.023561 
L 522.625237 177.075933 
L 521.684889 177.587189 
L 521.44059 177.653909 
L 521.101268 177.729723 
L 520.816985 177.715689 
L 520.315529 177.577546 
L 519.732535 177.27327 
L 519.623557 177.192751 
L 519.412893 176.851705 
L 519.194623 176.25405 
L 519.115281 176.137311 
L 518.848637 176.060869 
L 518.618372 176.170161 
L 518.099589 176.612659 
L 517.531806 176.912231 
L 517.170218 176.961859 
L 516.904124 176.941083 
L 516.58597 176.850372 
L 516.337673 176.675458 
L 515.674553 175.639775 
L 515.425628 175.292456 
L 515.261377 175.146629 
L 514.890538 175.025891 
L 514.531381 174.988494 
L 514.305271 174.924596 
L 514.008522 174.74098 
L 513.691701 174.542154 
L 513.366884 174.224706 
L 513.261826 174.020471 
L 512.800668 173.578129 
L 512.26354 173.254331 
L 511.711201 173.069774 
L 510.390371 173.021871 
L 510.063516 173.06264 
L 509.715256 173.192472 
L 509.339948 173.389103 
L 509.180793 173.553041 
L 509.022266 173.890246 
L 509.10349 174.359871 
L 509.061388 174.595781 
L 509.040925 174.763168 
L 508.699879 175.136908 
L 508.506854 175.18732 
L 507.92049 175.102489 
L 507.255959 174.882808 
L 506.494131 174.379157 
L 505.962726 174.127567 
L 505.622228 174.099891 
L 505.279692 174.220316 
L 505.165305 174.260457 
L 504.449813 174.448386 
L 504.095987 174.66744 
L 503.57054 175.204333 
L 503.502096 175.347572 
L 503.005814 175.6807 
L 502.553202 175.44628 
L 502.345203 175.088769 
L 502.09228 174.870656 
L 501.653624 174.765912 
L 501.178589 175.010054 
L 500.5836 175.752908 
L 500.368467 176.343036 
L 500.039572 176.653506 
L 499.338193 176.888632 
L 498.578953 177.442538 
L 498.448258 177.676802 
L 498.469191 178.10213 
L 498.853201 178.893436 
L 498.975743 179.286228 
L 499.072333 179.484035 
L 498.8935 179.566121 
L 498.852652 179.613946 
L 498.184201 179.888822 
L 497.783805 179.834881 
L 497.595563 179.756009 
L 497.478745 179.551538 
L 497.385525 178.694375 
L 497.061884 177.86575 
L 496.833736 177.745403 
L 496.42252 177.68574 
L 495.93306 177.942975 
L 494.411992 178.115223 
L 494.167223 178.28457 
L 494.075493 178.616836 
L 494.131629 179.239344 
L 493.981255 179.767456 
L 493.834017 179.963773 
L 493.18791 180.430968 
L 492.553956 180.129592 
L 492.523065 179.901679 
L 491.224345 170.503223 
L 481.492604 171.144077 
L 476.453505 171.585085 
L 470.028661 172.136091 
L 467.932284 172.181642 
L 463.165238 171.800768 
L 453.652943 170.717965 
L 453.546866 170.706048 
L 453.308055 171.252663 
L 453.259603 171.363523 
L 453.090804 171.582184 
L 452.658185 171.951455 
L 452.111178 172.418493 
L 451.833245 172.655736 
L 451.652294 172.939236 
L 451.498078 173.256918 
L 451.330691 173.481068 
L 451.203916 173.386124 
L 450.90748 173.229948 
L 450.753735 173.164405 
L 450.506143 173.059268 
L 450.133108 173.013011 
L 449.588845 173.148411 
L 449.455798 173.257232 
L 449.368694 173.388006 
L 449.306051 173.507254 
L 449.235019 173.735168 
L 449.084175 173.91651 
L 448.906909 173.962532 
L 448.808123 173.921449 
L 448.656024 173.842499 
L 448.508316 173.625249 
L 448.423721 173.483734 
L 448.381776 173.423365 
L 448.072874 173.096039 
L 447.83814 172.989648 
L 447.562481 172.889529 
L 447.401287 172.955465 
L 447.237663 173.069931 
L 446.866903 173.56143 
L 446.620644 173.731561 
L 445.981358 173.911492 
L 445.57955 173.975938 
L 445.227136 174.078958 
L 444.989971 174.185819 
L 444.816547 174.318083 
L 444.657 174.58551 
L 444.611449 174.741059 
L 444.556411 174.928517 
L 444.364876 175.103665 
L 444.259426 175.125147 
L 444.022889 175.155175 
L 443.750679 174.958387 
L 443.689604 174.914404 
L 443.194734 174.38833 
L 443.003434 174.305538 
L 442.768543 174.414752 
L 442.43275 174.634119 
L 442.34988 174.668851 
L 442.16007 174.74882 
L 441.825766 174.727573 
L 441.638308 174.620477 
L 440.485649 173.962767 
L 440.088467 174.112827 
L 439.958634 174.176176 
L 439.909555 174.24219 
L 439.739816 174.470652 
L 439.45953 174.532746 
L 439.403787 174.514165 
L 438.861249 174.334782 
L 438.589431 174.280215 
L 438.055595 174.321767 
L 437.551866 174.507422 
L 437.028379 174.745135 
L 436.316415 175.078891 
L 435.847731 175.360038 
L 435.3745 175.510177 
L 435.076025 175.540518 
L 434.785861 175.506806 
L 434.456497 175.263761 
L 434.127838 174.780808 
L 433.854844 174.501228 
L 433.415952 174.246737 
L 432.889251 174.160652 
L 432.537934 174.22941 
L 431.951256 174.344269 
L 431.571322 174.286095 
L 431.415225 174.216239 
L 430.903577 173.987228 
L 430.45316 173.927643 
L 430.054645 174.025096 
L 429.808386 174.154459 
L 429.080899 174.892452 
L 428.534362 175.103117 
L 427.112708 174.66838 
L 426.751434 174.458421 
L 426.125633 173.726073 
L 425.879766 173.548102 
L 425.614769 173.505451 
L 425.354555 173.584401 
L 424.918564 173.836305 
L 424.540042 174.323806 
L 424.458269 174.665636 
L 424.372498 175.545928 
L 424.194605 176.532689 
L 423.91628 176.877499 
L 423.824001 176.99173 
L 423.743326 177.091692 
L 423.508043 177.139674 
L 423.114154 177.074992 
L 421.841228 176.816346 
L 421.193788 176.644098 
L 420.800056 176.616187 
L 420.321728 176.741864 
L 419.474444 177.185146 
L 418.627002 177.597852 
L 418.125546 177.745874 
L 417.661409 177.832664 
L 417.059051 177.926276 
L 416.654264 178.02514 
L 416.018271 178.321889 
L 415.110774 178.80006 
L 414.875961 178.942986 
L 414.648519 179.153494 
L 414.628683 179.330289 
L 414.850403 179.506065 
L 414.748167 180.099957 
L 414.820218 180.679893 
L 414.338676 181.01796 
L 412.775978 180.868291 
L 412.106978 180.882168 
L 412.173541 181.091187 
L 411.528532 181.4113 
L 410.448316 182.643536 
L 409.283897 183.229666 
L 408.14982 183.544369 
L 406.983755 183.562166 
L 405.831958 183.609207 
L 404.661738 183.843236 
L 403.641735 184.342026 
L 402.720674 184.99707 
L 401.929368 185.831811 
L 401.476913 186.5484 
L 401.329596 186.781566 
L 400.889764 187.897611 
L 399.84185 190.55699 
L 399.113657 191.951047 
L 397.670599 194.203364 
L 398.228034 194.899962 
L 396.432248 195.670021 
L 394.896363 197.31849 
L 393.312653 198.889891 
L 390.067615 201.533511 
L 388.45717 202.572174 
L 386.639667 203.207069 
L 384.928948 203.53235 
L 383.784285 203.749999 
L 382.651384 204.122798 
L 381.522951 204.593599 
L 380.432151 205.228965 
L 380.777667 206.224193 
L 379.245075 206.510908 
L 378.663571 207.281437 
L 378.303786 208.310927 
L 378.119229 209.315642 
L 378.300616 209.988028 
L 378.486775 210.678103 
L 378.271328 211.248631 
L 378.019659 212.647862 
L 377.751526 213.841446 
L 377.655877 214.870544 
L 378.288812 215.915949 
L 378.747304 216.673229 
L 379.488433 219.003165 
L 379.256756 219.10932 
L 379.321579 219.182628 
L 379.485621 219.336829 
L 379.72578 219.460675 
L 380.089369 219.574944 
L 380.314615 219.646822 
L 380.547431 219.738722 
L 380.854774 219.883726 
L 381.030966 220.026231 
L 381.144327 220.127783 
L 381.344706 220.269414 
L 381.482025 220.3256 
L 381.618665 220.417486 
L 381.727594 220.557951 
L 381.80231 220.85401 
L 381.94073 221.105071 
L 382.657118 222.108664 
L 382.859086 222.359004 
L 383.199244 222.659685 
L 383.455603 222.767937 
L 383.728995 222.816877 
L 384.14599 222.840724 
L 385.033765 222.778122 
L 385.184181 222.812792 
L 385.318019 222.882929 
L 385.612334 223.282019 
L 385.804019 223.427776 
L 385.773258 223.472066 
L 385.566126 223.424373 
L 385.387823 223.681621 
L 385.261521 223.88406 
L 385.233052 224.017504 
L 385.267604 224.312798 
L 385.323068 224.44778 
L 385.361276 224.551184 
L 385.359575 224.640435 
L 385.326977 224.711241 
L 385.290426 224.755187 
L 385.178607 224.766449 
L 385.128838 224.801215 
L 385.10508 224.876653 
L 385.068105 224.942911 
L 385.040734 224.973639 
L 384.955265 225.007725 
L 384.762694 225.03977 
L 384.521534 225.183406 
L 384.273775 225.429242 
L 384.244013 225.552198 
L 384.37381 225.768951 
L 384.586611 226.081033 
L 384.641394 226.251716 
L 384.639439 226.354354 
L 384.622056 226.56384 
L 384.651849 226.640298 
L 384.703955 226.717182 
L 384.688187 226.841878 
L 384.698174 227.020636 
L 384.696219 227.123275 
L 384.667913 227.203091 
L 384.561873 227.379638 
L 384.43301 228.051274 
L 384.204736 229.020117 
L 384.171797 229.577511 
L 384.072429 230.575595 
L 384.086621 232.174041 
L 383.898639 233.371324 
L 383.793065 234.695174 
L 383.8603 234.9152 
L 384.081708 235.299688 
L 384.670783 236.077613 
L 385.066759 236.115657 
L 385.168135 236.197212 
L 384.86242 236.958515 
L 384.631521 237.146369 
L 384.26537 237.60582 
L 384.366387 237.887539 
L 383.901181 238.393574 
L 383.592965 238.637697 
L 383.51594 238.761395 
L 383.53833 239.110242 
L 383.661201 239.519073 
L 383.848903 239.731832 
L 383.643624 240.19666 
L 383.961486 240.617884 
L 383.836661 240.843179 
L 383.445229 240.76876 
L 383.298335 241.05555 
L 383.276898 241.798176 
L 382.973253 242.638006 
L 382.940913 242.97092 
L 382.99329 243.531543 
L 382.974304 244.114452 
L 382.967819 244.500502 
L 383.101563 244.748725 
L 383.205333 244.966511 
L 383.238683 245.130449 
L 383.193236 245.32635 
L 383.074467 245.47806 
L 383.05695 246.224759 
L 383.01116 246.290429 
L 382.538302 246.968577 
L 381.965482 247.599379 
L 381.828134 247.761663 
L 381.395364 248.309888 
L 381.312105 248.696685 
L 380.847917 249.094913 
L 380.723198 249.431651 
L 380.209973 249.840842 
L 379.993506 250.021125 
L 379.615711 250.374356 
L 379.629285 250.561906 
L 379.077751 251.158528 
L 379.128072 251.329126 
L 379.095384 251.396168 
L 378.818706 251.614961 
L 378.518568 251.688042 
L 377.954353 251.939462 
L 377.557903 252.328437 
L 377.247562 252.331478 
L 377.188761 252.335398 
L 376.945465 252.347375 
L 376.725718 252.320288 
L 376.348434 252.419007 
L 375.85534 252.525683 
L 375.688185 252.629639 
L 375.413994 252.889647 
L 375.021546 253.890722 
L 374.435718 254.181313 
L 373.293822 254.82496 
L 372.964409 255.058538 
L 372.468816 255.080047 
L 372.203268 254.804187 
L 372.302416 254.473376 
L 372.258316 254.286866 
L 372.60368 253.608156 
L 372.534675 253.400833 
L 372.166154 253.377634 
L 371.759238 253.121597 
L 371.381263 253.134874 
L 371.069403 252.995296 
L 370.867129 253.053341 
L 370.613882 253.350267 
L 370.458309 253.393727 
L 369.686413 253.703986 
L 369.349266 253.937416 
L 368.956651 254.239425 
L 368.63976 254.627986 
L 368.362425 254.970877 
L 368.026162 255.157901 
L 367.361222 255.539832 
L 366.321051 256.123519 
L 365.632908 256.505008 
L 364.889003 256.970543 
L 364.864204 256.98343 
L 364.005551 257.763133 
L 363.306759 258.202181 
L 362.639562 258.614181 
L 362.070132 259.195763 
L 361.426378 259.648375 
L 360.774783 260.087423 
L 359.385352 260.816165 
L 358.639754 261.092295 
L 357.905916 261.388731 
L 357.105437 261.56976 
L 356.682147 261.630992 
L 356.289434 261.723662 
L 354.598549 261.929545 
L 352.231138 262.244483 
L 352.084998 262.261575 
L 351.905301 262.28243 
L 351.791227 262.304225 
L 351.70185 262.321395 
L 351.31486 262.074979 
L 350.695331 262.054281 
L 350.203597 262.12986 
L 349.826721 262.241818 
L 349.595907 261.535499 
L 349.323227 261.651768 
L 349.214327 261.81061 
L 348.808051 261.935346 
L 348.651953 261.960905 
L 348.570024 261.951968 
L 348.510831 262.00873 
L 348.281114 262.038366 
L 347.843321 262.181292 
L 346.840409 262.643547 
L 346.375096 262.851468 
L 345.987401 263.081262 
L 345.764584 263.090279 
L 344.701538 263.046452 
L 344.34928 263.046923 
L 344.124425 263.083379 
L 342.963847 263.12062 
L 342.493831 263.159978 
L 342.312566 263.117641 
L 340.926742 262.833749 
L 340.71349 262.761698 
L 340.134808 262.516693 
L 339.909875 262.388899 
L 339.176193 262.037739 
L 338.844712 261.895989 
L 338.10813 261.661333 
L 337.620473 261.57909 
L 337.011764 261.476463 
L 336.67158 261.474267 
L 335.87063 261.454353 
L 335.365176 261.492613 
L 335.279483 261.176028 
L 335.020288 261.198529 
L 333.431874 261.042902 
L 332.261575 260.746231 
L 331.995402 260.725455 
L 331.062502 260.723338 
L 330.191305 260.777357 
L 328.644209 261.32797 
L 327.065124 262.324923 
L 325.702193 263.498358 
L 325.653427 263.591499 
L 325.281804 263.756926 
L 324.05192 264.117652 
L 323.664538 264.290527 
L 323.189347 264.540236 
L 322.690322 264.812916 
L 322.173264 265.202885 
L 321.680354 265.561964 
L 321.170352 265.99913 
L 320.607037 266.349036 
L 320.060657 266.636535 
L 319.61126 266.769033 
L 319.290206 266.747237 
L 318.985538 266.694395 
L 318.666444 266.570756 
L 318.138331 266.309836 
L 317.366077 266.106933 
L 316.982772 266.06044 
L 316.348034 266.048367 
L 315.734072 266.177807 
L 315.341751 266.19388 
L 314.803368 266.018966 
L 314.355538 265.741503 
L 313.956553 265.450163 
L 313.445846 265.140948 
L 312.915538 264.747451 
L 312.082287 264.329414 
L 311.685027 264.196445 
L 311.226927 264.126589 
L 309.636318 264.20601 
L 307.398818 264.251953 
L 306.932956 264.302679 
L 305.564458 264.574497 
L 305.054849 264.781947 
L 304.572915 265.182814 
L 304.348295 265.491324 
L 304.318502 265.531544 
L 304.013285 266.16542 
L 303.885569 266.490708 
L 303.616182 266.309914 
L 303.653971 266.629714 
L 303.564907 266.859273 
L 303.510176 267.002094 
L 303.502264 267.02274 
L 303.197518 267.628392 
L 302.748199 268.604333 
L 302.636085 268.790223 
L 302.407231 268.754394 
L 302.162304 269.120607 
L 301.634819 270.256566 
L 301.694953 270.724701 
L 301.671433 270.965943 
L 301.379152 271.760777 
L 301.05802 272.41002 
L 300.787378 272.827194 
L 300.894788 272.906066 
L 300.833399 273.126766 
L 300.811682 273.524575 
L 300.73477 273.73328 
L 300.728648 273.743629 
L 300.208304 274.623215 
L 299.222327 275.597667 
L 298.851328 275.834252 
L 298.822785 275.852454 
L 297.671624 276.586545 
L 297.668909 276.587806 
L 296.296149 277.225125 
L 296.461497 277.457821 
L 295.736362 277.735676 
L 295.254507 277.868488 
L 294.564181 278.263004 
L 292.165488 278.974341 
L 291.208206 279.373718 
L 290.451004 279.743459 
L 290.38209 279.787207 
L 289.281019 280.486862 
L 289.019158 280.570203 
L 288.420641 280.9637 
L 287.287034 281.541989 
L 286.933522 281.744579 
L 286.667349 281.956184 
L 286.142765 282.477946 
L 285.659419 283.098494 
L 285.564632 283.195398 
L 285.471021 283.364118 
L 285.297906 283.643921 
L 284.655567 284.682126 
L 283.925649 285.392913 
L 283.136146 285.986491 
L 282.120063 286.696495 
L 281.538167 287.00524 
L 281.333069 287.142129 
L 280.389821 287.666635 
L 279.644301 288.278402 
L 279.305528 288.626975 
L 279.144178 288.754691 
L 278.599366 289.366222 
L 278.490231 289.470653 
L 278.10771 289.903821 
L 277.670073 290.606926 
L 277.433849 291.00889 
L 277.345691 291.125036 
L 276.835725 291.796903 
L 276.482134 292.301417 
L 275.479928 293.998887 
L 274.602223 295.44171 
L 274.464001 295.682481 
L 274.095808 296.262134 
L 274.095279 296.262965 
L 273.641962 296.980653 
L 273.4037 297.538009 
L 273.394605 297.706964 
L 273.595783 298.381373 
L 273.778851 298.846608 
L 273.936046 299.26096 
L 273.821344 299.804047 
L 273.437255 300.782968 
L 272.954302 301.722609 
L 272.525681 302.556488 
L 272.207685 303.035285 
L 269.846154 304.581833 
L 268.453352 304.923977 
L 267.855697 304.889245 
L 267.544208 304.856709 
L 267.361611 304.756433 
L 267.228564 304.654668 
L 267.029659 304.543808 
L 265.558847 303.872221 
L 264.948335 303.983003 
L 264.821481 304.046586 
L 264.232481 305.006047 
L 263.78862 305.729082 
L 263.653848 305.837511 
L 263.387753 305.859072 
L 263.230088 305.762089 
L 263.131851 305.498738 
L 262.360223 304.731658 
L 262.259478 304.583088 
L 262.138896 304.526011 
L 261.626307 304.445571 
L 261.229909 304.593201 
L 261.115914 304.651532 
L 261.001055 304.821036 
L 260.720692 306.062367 
L 260.707285 306.270366 
L 260.412025 306.477581 
L 260.046674 306.536539 
L 259.785832 306.445828 
L 259.694573 306.299766 
L 259.472932 305.898664 
L 258.650109 304.731502 
L 258.322312 304.202448 
L 258.148496 304.119343 
L 257.853628 304.098096 
L 257.715955 304.205349 
L 257.257228 304.824015 
L 257.16738 305.187877 
L 257.123083 305.208967 
L 256.792385 305.830847 
L 256.670393 306.105252 
L 256.525742 306.650927 
L 256.283246 306.915061 
L 255.849608 307.010005 
L 255.094366 307.024353 
L 254.797146 306.978018 
L 253.983417 306.717646 
L 253.704308 306.711609 
L 253.587098 306.790325 
L 253.304382 307.176609 
L 253.135035 307.270455 
L 252.810923 307.782652 
L 252.70657 308.021385 
L 252.650827 308.222092 
L 252.613038 308.473996 
L 252.817509 310.169036 
L 253.035386 310.713064 
L 253.005907 311.460387 
L 252.636166 311.809039 
L 252.139806 311.919898 
L 251.465632 312.160669 
L 251.213101 312.246833 
L 250.448451 312.801131 
L 249.562593 313.428578 
L 249.430878 313.492319 
L 249.214725 313.545945 
L 248.486611 313.640262 
L 248.324241 313.690204 
L 247.910125 314.029682 
L 247.723059 314.312712 
L 247.421213 314.969951 
L 247.286127 315.482854 
L 247.303846 315.932643 
L 247.405141 316.191054 
L 247.674998 316.461775 
L 248.472577 317.216703 
L 248.519931 317.497301 
L 248.488335 317.646421 
L 248.324476 317.849716 
L 248.011733 317.992877 
L 247.146965 318.032548 
L 246.993219 317.977981 
L 246.31144 317.70875 
L 246.117945 317.538541 
L 245.231695 317.040613 
L 244.870734 316.888906 
L 243.9278 315.902929 
L 243.507019 315.715079 
L 243.228066 315.742363 
L 243.067579 315.830408 
L 242.876436 316.070316 
L 242.729355 316.246563 
L 242.525903 317.064133 
L 242.522923 317.288675 
L 242.644681 317.981274 
L 242.724258 318.165909 
L 242.981337 318.419617 
L 243.682246 319.372587 
L 243.85865 319.561534 
L 244.798997 320.288786 
L 245.09457 320.436651 
L 245.512529 320.874916 
L 245.584188 321.149086 
L 245.448004 321.489191 
L 245.38497 321.578491 
L 244.902644 321.912403 
L 244.701152 321.934433 
L 244.516203 322.005857 
L 244.096284 322.239337 
L 243.702317 322.378735 
L 243.535087 322.396689 
L 243.270717 322.536086 
L 242.939784 322.713744 
L 242.605088 322.98321 
L 242.241854 323.524494 
L 242.097282 323.682708 
L 242.084738 323.729279 
L 241.869761 324.10098 
L 241.851415 324.172404 
L 241.796142 324.237947 
L 241.458702 324.630033 
L 241.261365 324.714158 
L 240.973945 324.910946 
L 240.383504 325.557444 
L 240.280955 325.669794 
L 239.784281 326.287989 
L 239.187019 326.986076 
L 237.715893 328.922279 
L 237.384177 329.731853 
L 236.876605 330.049928 
L 236.820627 330.188855 
L 236.546457 330.242717 
L 236.313291 330.219353 
L 236.088906 330.02037 
L 235.917912 329.57654 
L 235.822341 328.90409 
L 235.711089 328.603028 
L 235.572789 328.377232 
L 235.342445 328.309964 
L 235.029153 328.309336 
L 234.442239 329.389082 
L 234.153408 330.153653 
L 233.845212 331.145588 
L 233.859324 331.269541 
L 233.77959 331.528031 
L 233.467944 331.818979 
L 233.135208 331.915883 
L 232.71921 331.853867 
L 232.595022 331.744262 
L 232.451626 331.468524 
L 232.196507 330.51822 
L 232.12822 329.882227 
L 232.305015 329.405468 
L 232.447314 328.702755 
L 232.355584 328.297968 
L 232.087764 328.062372 
L 232.068556 327.884322 
L 231.443069 327.547744 
L 231.265506 327.569223 
L 230.707428 327.63673 
L 230.130315 327.534416 
L 229.412706 327.022611 
L 228.958526 326.778312 
L 228.121982 325.751488 
L 228.260187 325.236884 
L 228.697841 323.607286 
L 228.719245 323.44374 
L 228.692823 323.113984 
L 228.64837 322.976389 
L 228.47275 322.761726 
L 228.369731 322.70755 
L 228.101363 322.501198 
L 227.55216 322.227655 
L 227.392535 322.113738 
L 227.297512 321.954583 
L 227.175206 321.355046 
L 227.183987 320.741398 
L 227.122755 320.666446 
L 227.150196 320.370951 
L 227.161329 319.943349 
L 227.073441 319.528213 
L 226.925889 319.225035 
L 226.807189 319.0963 
L 226.564772 318.911899 
L 226.13325 318.624323 
L 225.534341 318.325692 
L 225.111522 318.034508 
L 224.598149 317.880763 
L 223.888224 317.706085 
L 223.643768 317.689856 
L 222.880608 317.736426 
L 222.218194 317.519724 
L 221.872286 317.289381 
L 221.519323 317.107881 
L 221.270241 316.939005 
L 220.690698 316.546291 
L 220.396535 316.342526 
L 220.006801 316.206656 
L 219.244347 315.705514 
L 218.941169 315.407118 
L 218.36727 315.025695 
L 218.226382 314.986416 
L 217.876555 314.912875 
L 217.628963 314.970265 
L 217.376981 315.156076 
L 217.217434 315.379834 
L 217.071136 316.153186 
L 217.119902 316.70576 
L 217.184427 317.128815 
L 217.359575 317.69652 
L 217.064394 317.839132 
L 216.916764 318.146858 
L 216.878582 318.264068 
L 216.884698 318.427221 
L 216.482812 318.997827 
L 216.410839 319.101082 
L 216.461251 319.203161 
L 216.237807 319.364668 
L 216.167638 319.385758 
L 215.739095 319.471608 
L 215.481703 319.570785 
L 215.339953 319.627156 
L 215.219372 319.671845 
L 214.457623 319.780509 
L 214.217636 319.760439 
L 213.741347 319.811164 
L 213.544559 319.845896 
L 213.021465 319.872239 
L 212.832047 319.852012 
L 212.801392 319.894035 
L 212.277434 319.886038 
L 212.148621 319.862282 
L 211.874137 319.844642 
L 211.198316 319.814928 
L 211.009918 319.806617 
L 210.468085 319.81728 
L 210.037112 319.815241 
L 209.596025 319.775413 
L 209.090179 319.699991 
L 208.425256 319.528919 
L 208.107808 319.434289 
L 207.856767 319.296145 
L 207.530538 318.978462 
L 207.421325 318.854588 
L 207.358917 318.73628 
L 206.380702 318.143565 
L 206.254084 318.120593 
L 205.90112 317.965123 
L 205.765407 317.984331 
L 205.555683 318.044779 
L 205.048975 318.261559 
L 204.555594 318.532593 
L 203.87648 319.091439 
L 203.677497 319.273252 
L 202.570704 319.989057 
L 202.371721 320.079062 
L 202.126167 320.188903 
L 201.689314 320.564367 
L 201.446897 320.735518 
L 200.582128 321.589937 
L 200.444299 321.871869 
L 199.771143 322.746986 
L 199.62367 322.949576 
L 199.510694 323.033936 
L 199.232996 323.197717 
L 199.043107 323.361732 
L 198.164305 323.769028 
L 196.909411 324.101372 
L 196.725403 324.113838 
L 195.842132 324.491576 
L 195.509552 324.694009 
L 195.236245 325.202286 
L 194.546704 325.359559 
L 193.703653 325.271514 
L 193.0951 324.740266 
L 193.218034 324.329364 
L 193.211056 323.574984 
L 193.122698 323.361419 
L 192.924969 323.125195 
L 192.634884 322.796301 
L 192.496505 322.700886 
L 192.246012 322.586107 
L 192.119159 322.565644 
L 191.960866 322.561488 
L 191.842166 322.581089 
L 191.552943 322.690067 
L 191.372149 322.806101 
L 191.214876 322.974507 
L 191.103076 323.180703 
L 190.958425 323.531315 
L 190.891196 323.794812 
L 190.760931 324.305373 
L 190.770261 324.636384 
L 191.402491 326.324132 
L 191.934053 327.248878 
L 191.88317 327.905882 
L 191.698848 328.162334 
L 191.319856 328.274448 
L 191.025772 328.13458 
L 190.865833 327.922895 
L 190.313259 327.510112 
L 190.212121 327.35715 
L 189.191961 327.023317 
L 189.0125 327.021592 
L 188.865968 327.097249 
L 188.71183 327.537082 
L 188.630842 328.019878 
L 188.758322 328.149946 
L 189.330104 329.215971 
L 189.511447 330.00469 
L 189.388121 330.624219 
L 189.08314 330.934296 
L 188.591092 331.029241 
L 188.158786 330.980397 
L 187.975562 330.895017 
L 187.621266 330.692506 
L 186.359864 329.926681 
L 186.119328 329.892733 
L 185.387921 330.044753 
L 185.053382 330.563457 
L 185.007203 330.720652 
L 184.81363 330.867498 
L 184.170032 331.535087 
L 183.912091 331.604864 
L 183.557717 331.583069 
L 183.277588 331.40447 
L 183.150578 331.108348 
L 183.154415 330.175412 
L 183.155752 329.850161 
L 183.102831 329.523305 
L 182.945872 329.234631 
L 182.547749 328.822004 
L 182.123362 328.689035 
L 181.411947 328.83541 
L 181.053809 329.33765 
L 180.816331 329.363758 
L 180.740987 329.470541 
L 180.721778 330.342365 
L 181.155636 332.797342 
L 181.264944 333.41586 
L 181.116608 333.741462 
L 180.768976 334.067925 
L 180.656392 334.138016 
L 179.708126 334.305795 
L 179.089773 334.580436 
L 177.774667 335.393067 
L 177.63668 335.688798 
L 177.530446 337.577489 
L 177.836447 338.018576 
L 178.056363 338.100192 
L 179.803697 338.218892 
L 180.047761 338.278869 
L 180.288689 338.550844 
L 180.295901 338.75947 
L 180.271989 339.02627 
L 179.815457 340.02832 
L 179.726864 340.224245 
L 178.298859 341.068394 
L 176.904881 342.060878 
L 176.737337 342.081968 
L 176.53804 341.967032 
L 175.887778 341.290113 
L 175.533952 341.001047 
L 175.481894 340.894421 
L 174.575886 340.402687 
L 174.10532 340.328911 
L 172.712753 340.265641 
L 171.121674 340.296688 
L 170.737585 340.411781 
L 170.49454 340.676935 
L 170.429153 341.040718 
L 170.408534 341.207792 
L 171.198272 343.607818 
L 171.495335 344.757262 
L 171.4225 345.208541 
L 171.179063 345.493609 
L 170.980786 345.57397 
L 170.570746 345.569031 
L 170.034559 345.484279 
L 168.776372 345.614582 
L 168.443479 345.772483 
L 167.964916 346.324664 
L 167.93089 346.587388 
L 168.038614 347.20331 
L 168.393459 347.805355 
L 168.677586 347.963726 
L 169.826795 348.107828 
L 169.981324 348.030681 
L 173.460782 348.506813 
L 173.719977 348.606932 
L 173.948125 349.039473 
L 173.9366 349.69091 
L 173.534166 350.285115 
L 172.575472 351.419898 
L 172.339876 351.605161 
L 169.88881 354.536671 
L 169.424046 354.875365 
L 168.389225 355.302889 
L 166.713158 355.919281 
L 164.648455 356.964059 
L 164.083259 357.362731 
L 162.942596 358.438713 
L 162.771602 358.561333 
L 162.224046 358.771684 
L 161.877982 358.741107 
L 160.172828 358.067011 
L 159.859222 358.068815 
L 159.613982 358.098294 
L 159.108057 358.380931 
L 158.989201 358.72135 
L 158.969444 359.35601 
L 159.497233 360.571453 
L 159.981607 361.173356 
L 160.140213 361.563247 
L 160.335589 362.151807 
L 160.258521 362.459298 
L 160.00301 362.832253 
L 159.836329 362.93002 
L 159.356512 363.208816 
L 158.290722 363.585378 
L 158.181509 363.571579 
L 158.051911 363.597295 
L 156.733277 364.181465 
L 156.498778 364.262689 
L 156.269297 364.389856 
L 156.083762 363.851198 
L 155.927949 363.418789 
L 156.051654 363.289099 
L 157.497691 362.59258 
L 158.589432 361.046268 
L 157.992169 358.535774 
L 154.95764 352.231275 
L 154.542974 351.3698 
L 154.383663 351.03871 
L 153.514425 352.300425 
L 153.280946 352.639355 
L 152.569217 354.032236 
L 151.684221 355.303437 
L 150.700361 356.206623 
L 148.598652 357.311927 
L 147.418318 357.748074 
L 145.556518 357.98861 
L 143.128502 357.70558 
L 140.329961 357.362966 
L 139.426933 357.275235 
L 135.37193 356.718192 
L 133.221926 356.981464 
L 131.210693 357.78359 
L 126.175122 360.342928 
L 124.894513 361.062497 
L 122.481472 362.792269 
L 120.196853 363.949788 
L 119.598884 364.639251 
L 118.770886 365.59324 
L 117.207561 368.315967 
L 117.196898 368.339252 
L 116.868396 369.080146 
L 116.584896 369.723822 
L 116.171172 370.65829 
L 115.943886 371.190244 
L 115.571243 372.039253 
L 115.434198 372.351762 
L 115.363636 372.514993 
L 115.824402 373.358123 
L 116.108294 373.877611 
L 121.461704 384.103673 
L 121.723486 384.603326 
L 123.419624 387.833467 
L 125.359535 391.535901 
L 129.389662 399.227633 
L 132.270995 404.730241 
L 132.296447 404.778849 
L 132.395653 404.730241 
L 132.895619 405.686818 
L 133.031332 405.950482 
L 133.165634 406.214852 
L 133.298368 406.480006 
L 133.413461 406.714348 
L 133.528162 406.948846 
L 133.642472 407.183502 
L 133.756624 407.418236 
L 133.86819 407.654303 
L 133.977089 407.891546 
L 134.08544 408.129181 
L 134.192537 408.367443 
L 134.298222 408.606332 
L 134.400771 408.846319 
L 134.502066 409.086776 
L 134.602027 409.327861 
L 134.700421 409.569573 
L 134.797482 409.811833 
L 134.893132 410.054643 
L 134.987528 410.298707 
L 135.080669 410.543241 
L 135.17232 410.788324 
L 135.307719 411.157595 
L 135.439983 411.528042 
L 135.569188 411.899508 
L 135.695258 412.272072 
L 135.838262 412.694734 
L 135.977503 413.11873 
L 136.113138 413.543822 
L 136.128975 413.60231 
L 136.141127 413.661738 
L 136.149516 413.721715 
L 136.154063 413.782163 
L 136.138697 414.015486 
L 135.782911 414.211725 
L 135.6 414.309413 
L 136.446344 416.794975 
L 136.676139 416.668435 
L 136.738311 416.638643 
L 136.803306 416.615828 
L 136.870418 416.600226 
L 136.938862 416.59215 
L 137.007777 416.591602 
L 137.0763 416.598579 
L 137.143725 416.613005 
L 137.209112 416.634722 
L 137.258897 416.656988 
L 137.306487 416.683488 
L 137.351646 416.713986 
L 137.474031 416.664593 
L 139.083848 421.639716 
L 139.286908 422.267399 
L 139.325168 422.385628 
L 139.382244 422.56211 
L 139.236261 422.611032 
L 139.58405 423.655654 
L 139.762805 424.159932 
L 139.789775 424.256915 
L 140.108007 425.193107 
L 140.408206 426.076535 
L 140.544154 426.030905 
L 140.616832 426.223773 
L 141.234166 427.862442 
L 141.608611 428.742107 
L 141.908027 429.445525 
L 141.914063 429.459794 
L 142.076982 429.837611 
L 143.009489 431.999532 
L 144.131852 434.927095 
L 144.134237 434.933315 
L 146.588438 441.212568 
L 146.592829 441.231463 
L 146.99887 442.466914 
L 147.006318 442.490591 
L 147.060729 442.656253 
L 148.970667 448.472781 
L 149.314066 449.460012 
L 149.474946 449.887143 
L 149.684905 450.444735 
L 150.087732 451.440198 
L 150.512119 452.417238 
L 151.911585 455.488145 
L 152.314446 456.449554 
L 152.662828 457.280952 
L 155.012522 462.973359 
L 157.488008 468.970515 
L 157.615685 469.279829 
L 157.644123 469.348724 
L 157.778212 469.298018 
L 158.18245 470.333937 
L 158.345214 470.751043 
L 158.646586 470.626845 
L 161.964067 479.212669 
L 163.915347 484.291628 
L 165.991394 489.69534 
L 166.133536 489.629169 
L 166.301472 489.55798 
L 166.399082 489.516663 
L 166.446907 489.496357 
L 166.924215 489.294003 
L 167.006223 489.259271 
L 167.211556 489.172245 
L 167.622772 488.998821 
L 167.723675 488.956249 
L 167.919992 489.402118 
L 168.091143 489.791068 
L 168.747912 491.283754 
L 169.346821 492.646685 
L 173.441887 503.328495 
L 173.698103 503.995849 
L 174.066276 504.956188 
L 174.136054 505.138393 
L 174.438213 505.927504 
L 176.113418 510.297054 
L 177.404248 513.671678 
L 178.473452 516.448342 
L 178.914624 517.62085 
L 179.963401 520.350241 
L 180.152348 520.841427 
L 179.157042 520.907205 
L 178.627204 520.94178 
L 178.733203 521.13896 
L 179.417743 522.197913 
L 179.494482 522.329408 
L 179.639838 522.520316 
L 180.204956 522.484094 
L 180.581753 522.459868 
L 181.194853 523.256427 
L 182.121872 524.460282 
L 183.55607 525.954222 
L 185.378199 527.754713 
L 185.595215 527.957067 
L 187.456309 529.399262 
L 187.765524 529.612984 
L 188.224487 529.911067 
L 187.862037 530.30723 
L 189.096468 531.186032 
L 191.590027 532.767076 
L 193.885544 534.092296 
L 194.767326 534.601279 
L 195.319115 534.919824 
L 198.884658 536.978098 
L 200.17303 537.721815 
L 201.557756 538.521196 
L 204.638778 540.299812 
L 203.657662 540.866733 
L 206.645934 542.613989 
L 207.762685 543.206547 
L 207.842655 542.755817 
L 210.20199 544.129411 
L 213.000767 545.846404 
L 213.583446 546.203836 
L 213.613004 546.221868 
L 215.931571 547.560417 
L 216.257172 547.748424 
L 217.021822 548.038744 
L 217.12492 548.131728 
L 217.511361 548.475597 
L 217.625513 548.576578 
L 218.108545 548.859373 
L 222.563474 551.470926 
L 222.525057 551.512479 
L 226.848193 554.004705 
L 228.664285 555.051365 
L 231.011626 556.404496 
L 231.266274 556.122408 
L 232.161227 556.63335 
L 233.048496 557.140216 
L 233.518827 557.408741 
L 235.264166 558.405048 
L 235.361026 558.46034 
L 236.523642 559.12393 
L 243.170755 562.920208 
L 244.58747 563.736681 
L 244.750623 563.828489 
L 246.126412 564.48079 
L 248.782576 565.740153 
L 249.795367 566.220362 
L 250.210894 566.411191 
L 251.159396 566.684028 
L 251.972027 566.91445 
L 252.618604 567.097831 
L 253.681493 567.399206 
L 254.180832 567.569808 
L 254.418624 567.638253 
L 255.186566 567.818262 
L 256.006881 568.010268 
L 260.423942 568.658883 
L 260.820262 568.717371 
L 266.169046 568.648299 
L 266.255366 568.766764 
L 266.958235 568.743243 
L 270.67572 568.664293 
L 274.825981 568.546534 
L 290.262371 568.000311 
L 290.684484 567.985336 
L 289.970717 569.030349 
L 290.717149 569.011787 
L 291.51554 568.991933 
L 291.8304 568.530853 
L 292.704655 568.511802 
L 292.613004 568.8915 
L 292.580154 569.023764 
L 293.626343 569.005496 
L 293.636222 568.965041 
L 293.64563 568.965276 
L 293.65739 568.964649 
L 293.975465 568.395846 
L 294.149281 568.085063 
L 294.303497 567.808854 
L 294.365512 567.804542 
L 294.835999 567.807208 
L 296.312299 567.815283 
L 296.951428 567.81889 
L 299.044591 567.830415 
L 299.91422 567.829631 
L 303.262512 567.826651 
L 307.390351 567.038089 
L 309.043916 566.72221 
L 312.053514 566.143058 
L 312.246617 566.099859 
L 314.100028 565.756303 
L 314.654875 565.641445 
L 316.219847 565.344304 
L 316.315811 565.325801 
L 316.319463 565.3251 
" clip-path="url(#p3de3835964)" style="fill: #d3d3d3"/>
   </g>
   <g id="PatchCollection_2">
    <path d="M 218.659552 527.05826 
L 218.659552 526.979858 
L 218.58115 526.979858 
L 218.58115 527.05826 
L 218.659552 527.05826 
" clip-path="url(#p3de3835964)" style="fill: #ff0000; fill-opacity: 0.7; stroke: #000000; stroke-opacity: 0.7; stroke-width: 0.5"/>
    <path d="M 161.569968 412.510027 
L 161.569968 412.431626 
L 161.491567 412.431626 
L 161.491567 412.510027 
L 161.569968 412.510027 
" clip-path="url(#p3de3835964)" style="fill: #ff0000; fill-opacity: 0.7; stroke: #000000; stroke-opacity: 0.7; stroke-width: 0.5"/>
    <path d="M 446.365921 237.504558 
L 446.365921 237.426157 
L 446.28752 237.426157 
L 446.28752 237.504558 
L 446.365921 237.504558 
" clip-path="url(#p3de3835964)" style="fill: #ff0000; fill-opacity: 0.7; stroke: #000000; stroke-opacity: 0.7; stroke-width: 0.5"/>
    <path d="M 329.00673 398.751299 
L 329.00673 398.672897 
L 328.928328 398.672897 
L 328.928328 398.751299 
L 329.00673 398.751299 
" clip-path="url(#p3de3835964)" style="fill: #ff0000; fill-opacity: 0.7; stroke: #000000; stroke-opacity: 0.7; stroke-width: 0.5"/>
    <path d="M 158.45711 456.857122 
L 158.45711 456.77872 
L 158.378709 456.77872 
L 158.378709 456.857122 
L 158.45711 456.857122 
" clip-path="url(#p3de3835964)" style="fill: #ff0000; fill-opacity: 0.7; stroke: #000000; stroke-opacity: 0.7; stroke-width: 0.5"/>
    <path d="M 508.395635 223.553854 
L 508.395635 223.475453 
L 508.317233 223.475453 
L 508.317233 223.553854 
L 508.395635 223.553854 
" clip-path="url(#p3de3835964)" style="fill: #ff0000; fill-opacity: 0.7; stroke: #000000; stroke-opacity: 0.7; stroke-width: 0.5"/>
    <path d="M 189.031588 444.367893 
L 189.031588 444.289492 
L 188.953186 444.289492 
L 188.953186 444.367893 
L 189.031588 444.367893 
" clip-path="url(#p3de3835964)" style="fill: #ff0000; fill-opacity: 0.7; stroke: #000000; stroke-opacity: 0.7; stroke-width: 0.5"/>
    <path d="M 370.23489 263.253702 
L 370.23489 263.1753 
L 370.156488 263.1753 
L 370.156488 263.253702 
L 370.23489 263.253702 
" clip-path="url(#p3de3835964)" style="fill: #ff0000; fill-opacity: 0.7; stroke: #000000; stroke-opacity: 0.7; stroke-width: 0.5"/>
    <path d="M 219.627673 512.550619 
L 219.627673 512.472218 
L 219.549271 512.472218 
L 219.549271 512.550619 
L 219.627673 512.550619 
" clip-path="url(#p3de3835964)" style="fill: #ff0000; fill-opacity: 0.7; stroke: #000000; stroke-opacity: 0.7; stroke-width: 0.5"/>
    <path d="M 229.407087 372.117119 
L 229.407087 372.038717 
L 229.328686 372.038717 
L 229.328686 372.117119 
L 229.407087 372.117119 
" clip-path="url(#p3de3835964)" style="fill: #ff0000; fill-opacity: 0.7; stroke: #000000; stroke-opacity: 0.7; stroke-width: 0.5"/>
    <path d="M 403.988212 412.531847 
L 403.988212 412.453445 
L 403.909811 412.453445 
L 403.909811 412.531847 
L 403.988212 412.531847 
" clip-path="url(#p3de3835964)" style="fill: #ff0000; fill-opacity: 0.7; stroke: #000000; stroke-opacity: 0.7; stroke-width: 0.5"/>
    <path d="M 396.043489 463.141839 
L 396.043489 463.063437 
L 395.965088 463.063437 
L 395.965088 463.141839 
L 396.043489 463.141839 
" clip-path="url(#p3de3835964)" style="fill: #ff0000; fill-opacity: 0.7; stroke: #000000; stroke-opacity: 0.7; stroke-width: 0.5"/>
    <path d="M 401.445677 416.734627 
L 401.445677 416.656225 
L 401.367275 416.656225 
L 401.367275 416.734627 
L 401.445677 416.734627 
" clip-path="url(#p3de3835964)" style="fill: #ff0000; fill-opacity: 0.7; stroke: #000000; stroke-opacity: 0.7; stroke-width: 0.5"/>
    <path d="M 425.578513 433.995531 
L 425.578513 433.91713 
L 425.500111 433.91713 
L 425.500111 433.995531 
L 425.578513 433.995531 
" clip-path="url(#p3de3835964)" style="fill: #ff0000; fill-opacity: 0.7; stroke: #000000; stroke-opacity: 0.7; stroke-width: 0.5"/>
    <path d="M 222.697766 513.860163 
L 222.697766 513.781761 
L 222.619365 513.781761 
L 222.619365 513.860163 
L 222.697766 513.860163 
" clip-path="url(#p3de3835964)" style="fill: #ff0000; fill-opacity: 0.7; stroke: #000000; stroke-opacity: 0.7; stroke-width: 0.5"/>
    <path d="M 334.627879 300.214988 
L 334.627879 300.136587 
L 334.549477 300.136587 
L 334.549477 300.214988 
L 334.627879 300.214988 
" clip-path="url(#p3de3835964)" style="fill: #ff0000; fill-opacity: 0.7; stroke: #000000; stroke-opacity: 0.7; stroke-width: 0.5"/>
    <path d="M 318.18522 313.719621 
L 318.18522 313.641219 
L 318.106818 313.641219 
L 318.106818 313.719621 
L 318.18522 313.719621 
" clip-path="url(#p3de3835964)" style="fill: #ff0000; fill-opacity: 0.7; stroke: #000000; stroke-opacity: 0.7; stroke-width: 0.5"/>
    <path d="M 395.334572 488.595233 
L 395.334572 488.516832 
L 395.256171 488.516832 
L 395.256171 488.595233 
L 395.334572 488.595233 
" clip-path="url(#p3de3835964)" style="fill: #ff0000; fill-opacity: 0.7; stroke: #000000; stroke-opacity: 0.7; stroke-width: 0.5"/>
    <path d="M 235.251131 367.865679 
L 235.251131 367.787277 
L 235.17273 367.787277 
L 235.17273 367.865679 
L 235.251131 367.865679 
" clip-path="url(#p3de3835964)" style="fill: #ff0000; fill-opacity: 0.7; stroke: #000000; stroke-opacity: 0.7; stroke-width: 0.5"/>
    <path d="M 396.043489 463.141839 
L 396.043489 463.063437 
L 395.965088 463.063437 
L 395.965088 463.141839 
L 396.043489 463.141839 
" clip-path="url(#p3de3835964)" style="fill: #ff0000; fill-opacity: 0.7; stroke: #000000; stroke-opacity: 0.7; stroke-width: 0.5"/>
    <path d="M 271.479511 512.384462 
L 271.479511 512.30606 
L 271.40111 512.30606 
L 271.40111 512.384462 
L 271.479511 512.384462 
" clip-path="url(#p3de3835964)" style="fill: #ff0000; fill-opacity: 0.7; stroke: #000000; stroke-opacity: 0.7; stroke-width: 0.5"/>
    <path d="M 401.44577 416.73448 
L 401.44577 416.656079 
L 401.367369 416.656079 
L 401.367369 416.73448 
L 401.44577 416.73448 
" clip-path="url(#p3de3835964)" style="fill: #ff0000; fill-opacity: 0.7; stroke: #000000; stroke-opacity: 0.7; stroke-width: 0.5"/>
    <path d="M 379.252997 458.471329 
L 379.252997 458.392928 
L 379.174595 458.392928 
L 379.174595 458.471329 
L 379.252997 458.471329 
" clip-path="url(#p3de3835964)" style="fill: #ff0000; fill-opacity: 0.7; stroke: #000000; stroke-opacity: 0.7; stroke-width: 0.5"/>
    <path d="M 318.185301 313.719544 
L 318.185301 313.641143 
L 318.1069 313.641143 
L 318.1069 313.719544 
L 318.185301 313.719544 
" clip-path="url(#p3de3835964)" style="fill: #ff0000; fill-opacity: 0.7; stroke: #000000; stroke-opacity: 0.7; stroke-width: 0.5"/>
    <path d="M 220.351691 378.740435 
L 220.351691 378.662033 
L 220.273289 378.662033 
L 220.273289 378.740435 
L 220.351691 378.740435 
" clip-path="url(#p3de3835964)" style="fill: #ff0000; fill-opacity: 0.7; stroke: #000000; stroke-opacity: 0.7; stroke-width: 0.5"/>
    <path d="M 344.241113 305.05245 
L 344.241113 304.974049 
L 344.162712 304.974049 
L 344.162712 305.05245 
L 344.241113 305.05245 
" clip-path="url(#p3de3835964)" style="fill: #ff0000; fill-opacity: 0.7; stroke: #000000; stroke-opacity: 0.7; stroke-width: 0.5"/>
    <path d="M 401.801226 413.008799 
L 401.801226 412.930398 
L 401.722824 412.930398 
L 401.722824 413.008799 
L 401.801226 413.008799 
" clip-path="url(#p3de3835964)" style="fill: #ff0000; fill-opacity: 0.7; stroke: #000000; stroke-opacity: 0.7; stroke-width: 0.5"/>
    <path d="M 295.631886 517.010869 
L 295.631886 516.932468 
L 295.553485 516.932468 
L 295.553485 517.010869 
L 295.631886 517.010869 
" clip-path="url(#p3de3835964)" style="fill: #ff0000; fill-opacity: 0.7; stroke: #000000; stroke-opacity: 0.7; stroke-width: 0.5"/>
    <path d="M 223.835279 376.356844 
L 223.835279 376.278443 
L 223.756878 376.278443 
L 223.756878 376.356844 
L 223.835279 376.356844 
" clip-path="url(#p3de3835964)" style="fill: #ff0000; fill-opacity: 0.7; stroke: #000000; stroke-opacity: 0.7; stroke-width: 0.5"/>
    <path d="M 395.535739 448.863316 
L 395.535739 448.784914 
L 395.457338 448.784914 
L 395.457338 448.863316 
L 395.535739 448.863316 
" clip-path="url(#p3de3835964)" style="fill: #ff0000; fill-opacity: 0.7; stroke: #000000; stroke-opacity: 0.7; stroke-width: 0.5"/>
    <path d="M 227.188331 513.640939 
L 227.188331 513.562537 
L 227.10993 513.562537 
L 227.10993 513.640939 
L 227.188331 513.640939 
" clip-path="url(#p3de3835964)" style="fill: #ff0000; fill-opacity: 0.7; stroke: #000000; stroke-opacity: 0.7; stroke-width: 0.5"/>
    <path d="M 355.031191 448.436083 
L 355.031191 448.357681 
L 354.952789 448.357681 
L 354.952789 448.436083 
L 355.031191 448.436083 
" clip-path="url(#p3de3835964)" style="fill: #ff0000; fill-opacity: 0.7; stroke: #000000; stroke-opacity: 0.7; stroke-width: 0.5"/>
    <path d="M 313.153092 401.594545 
L 313.153092 401.516143 
L 313.07469 401.516143 
L 313.07469 401.594545 
L 313.153092 401.594545 
" clip-path="url(#p3de3835964)" style="fill: #ff0000; fill-opacity: 0.7; stroke: #000000; stroke-opacity: 0.7; stroke-width: 0.5"/>
    <path d="M 401.801226 413.008791 
L 401.801226 412.930389 
L 401.722824 412.930389 
L 401.722824 413.008791 
L 401.801226 413.008791 
" clip-path="url(#p3de3835964)" style="fill: #ff0000; fill-opacity: 0.7; stroke: #000000; stroke-opacity: 0.7; stroke-width: 0.5"/>
    <path d="M 425.578513 433.995531 
L 425.578513 433.91713 
L 425.500111 433.91713 
L 425.500111 433.995531 
L 425.578513 433.995531 
" clip-path="url(#p3de3835964)" style="fill: #ff0000; fill-opacity: 0.7; stroke: #000000; stroke-opacity: 0.7; stroke-width: 0.5"/>
    <path d="M 395.334572 488.595233 
L 395.334572 488.516832 
L 395.256171 488.516832 
L 395.256171 488.595233 
L 395.334572 488.595233 
" clip-path="url(#p3de3835964)" style="fill: #ff0000; fill-opacity: 0.7; stroke: #000000; stroke-opacity: 0.7; stroke-width: 0.5"/>
    <path d="M 282.685076 516.020026 
L 282.685076 515.941625 
L 282.606674 515.941625 
L 282.606674 516.020026 
L 282.685076 516.020026 
" clip-path="url(#p3de3835964)" style="fill: #ff0000; fill-opacity: 0.7; stroke: #000000; stroke-opacity: 0.7; stroke-width: 0.5"/>
    <path d="M 216.164991 534.284304 
L 216.164991 534.205903 
L 216.08659 534.205903 
L 216.08659 534.284304 
L 216.164991 534.284304 
" clip-path="url(#p3de3835964)" style="fill: #ff0000; fill-opacity: 0.7; stroke: #000000; stroke-opacity: 0.7; stroke-width: 0.5"/>
    <path d="M 302.075832 555.669203 
L 302.075832 555.590801 
L 301.99743 555.590801 
L 301.99743 555.669203 
L 302.075832 555.669203 
" clip-path="url(#p3de3835964)" style="fill: #ff0000; fill-opacity: 0.7; stroke: #000000; stroke-opacity: 0.7; stroke-width: 0.5"/>
    <path d="M 341.035318 471.237418 
L 341.035318 471.159016 
L 340.956916 471.159016 
L 340.956916 471.237418 
L 341.035318 471.237418 
" clip-path="url(#p3de3835964)" style="fill: #ff0000; fill-opacity: 0.7; stroke: #000000; stroke-opacity: 0.7; stroke-width: 0.5"/>
   </g>
   <g id="matplotlib.axis_1">
    <g id="xtick_1">
     <g id="line2d_1">
      <defs>
       <path id="m51ad76d8ec" d="M 0 0 
L 0 3.5 
" style="stroke: #000000; stroke-width: 0.8"/>
      </defs>
      <g>
       <use xlink:href="#m51ad76d8ec" x="147.468495" y="589.573384" style="stroke: #000000; stroke-width: 0.8"/>
      </g>
     </g>
     <g id="text_1">
      <!-- 384000 -->
      <g transform="translate(128.380995 604.171822) scale(0.1 -0.1)">
       <defs>
        <path id="DejaVuSans-33" d="M 2597 2516 
Q 3050 2419 3304 2112 
Q 3559 1806 3559 1356 
Q 3559 666 3084 287 
Q 2609 -91 1734 -91 
Q 1441 -91 1130 -33 
Q 819 25 488 141 
L 488 750 
Q 750 597 1062 519 
Q 1375 441 1716 441 
Q 2309 441 2620 675 
Q 2931 909 2931 1356 
Q 2931 1769 2642 2001 
Q 2353 2234 1838 2234 
L 1294 2234 
L 1294 2753 
L 1863 2753 
Q 2328 2753 2575 2939 
Q 2822 3125 2822 3475 
Q 2822 3834 2567 4026 
Q 2313 4219 1838 4219 
Q 1578 4219 1281 4162 
Q 984 4106 628 3988 
L 628 4550 
Q 988 4650 1302 4700 
Q 1616 4750 1894 4750 
Q 2613 4750 3031 4423 
Q 3450 4097 3450 3541 
Q 3450 3153 3228 2886 
Q 3006 2619 2597 2516 
z
" transform="scale(0.015625)"/>
        <path id="DejaVuSans-38" d="M 2034 2216 
Q 1584 2216 1326 1975 
Q 1069 1734 1069 1313 
Q 1069 891 1326 650 
Q 1584 409 2034 409 
Q 2484 409 2743 651 
Q 3003 894 3003 1313 
Q 3003 1734 2745 1975 
Q 2488 2216 2034 2216 
z
M 1403 2484 
Q 997 2584 770 2862 
Q 544 3141 544 3541 
Q 544 4100 942 4425 
Q 1341 4750 2034 4750 
Q 2731 4750 3128 4425 
Q 3525 4100 3525 3541 
Q 3525 3141 3298 2862 
Q 3072 2584 2669 2484 
Q 3125 2378 3379 2068 
Q 3634 1759 3634 1313 
Q 3634 634 3220 271 
Q 2806 -91 2034 -91 
Q 1263 -91 848 271 
Q 434 634 434 1313 
Q 434 1759 690 2068 
Q 947 2378 1403 2484 
z
M 1172 3481 
Q 1172 3119 1398 2916 
Q 1625 2713 2034 2713 
Q 2441 2713 2670 2916 
Q 2900 3119 2900 3481 
Q 2900 3844 2670 4047 
Q 2441 4250 2034 4250 
Q 1625 4250 1398 4047 
Q 1172 3844 1172 3481 
z
" transform="scale(0.015625)"/>
        <path id="DejaVuSans-34" d="M 2419 4116 
L 825 1625 
L 2419 1625 
L 2419 4116 
z
M 2253 4666 
L 3047 4666 
L 3047 1625 
L 3713 1625 
L 3713 1100 
L 3047 1100 
L 3047 0 
L 2419 0 
L 2419 1100 
L 313 1100 
L 313 1709 
L 2253 4666 
z
" transform="scale(0.015625)"/>
        <path id="DejaVuSans-30" d="M 2034 4250 
Q 1547 4250 1301 3770 
Q 1056 3291 1056 2328 
Q 1056 1369 1301 889 
Q 1547 409 2034 409 
Q 2525 409 2770 889 
Q 3016 1369 3016 2328 
Q 3016 3291 2770 3770 
Q 2525 4250 2034 4250 
z
M 2034 4750 
Q 2819 4750 3233 4129 
Q 3647 3509 3647 2328 
Q 3647 1150 3233 529 
Q 2819 -91 2034 -91 
Q 1250 -91 836 529 
Q 422 1150 422 2328 
Q 422 3509 836 4129 
Q 1250 4750 2034 4750 
z
" transform="scale(0.015625)"/>
       </defs>
       <use xlink:href="#DejaVuSans-33"/>
       <use xlink:href="#DejaVuSans-38" x="63.623047"/>
       <use xlink:href="#DejaVuSans-34" x="127.246094"/>
       <use xlink:href="#DejaVuSans-30" x="190.869141"/>
       <use xlink:href="#DejaVuSans-30" x="254.492188"/>
       <use xlink:href="#DejaVuSans-30" x="318.115234"/>
      </g>
     </g>
    </g>
    <g id="xtick_2">
     <g id="line2d_2">
      <g>
       <use xlink:href="#m51ad76d8ec" x="225.869978" y="589.573384" style="stroke: #000000; stroke-width: 0.8"/>
      </g>
     </g>
     <g id="text_2">
      <!-- 385000 -->
      <g transform="translate(206.782478 604.171822) scale(0.1 -0.1)">
       <defs>
        <path id="DejaVuSans-35" d="M 691 4666 
L 3169 4666 
L 3169 4134 
L 1269 4134 
L 1269 2991 
Q 1406 3038 1543 3061 
Q 1681 3084 1819 3084 
Q 2600 3084 3056 2656 
Q 3513 2228 3513 1497 
Q 3513 744 3044 326 
Q 2575 -91 1722 -91 
Q 1428 -91 1123 -41 
Q 819 9 494 109 
L 494 744 
Q 775 591 1075 516 
Q 1375 441 1709 441 
Q 2250 441 2565 725 
Q 2881 1009 2881 1497 
Q 2881 1984 2565 2268 
Q 2250 2553 1709 2553 
Q 1456 2553 1204 2497 
Q 953 2441 691 2322 
L 691 4666 
z
" transform="scale(0.015625)"/>
       </defs>
       <use xlink:href="#DejaVuSans-33"/>
       <use xlink:href="#DejaVuSans-38" x="63.623047"/>
       <use xlink:href="#DejaVuSans-35" x="127.246094"/>
       <use xlink:href="#DejaVuSans-30" x="190.869141"/>
       <use xlink:href="#DejaVuSans-30" x="254.492188"/>
       <use xlink:href="#DejaVuSans-30" x="318.115234"/>
      </g>
     </g>
    </g>
    <g id="xtick_3">
     <g id="line2d_3">
      <g>
       <use xlink:href="#m51ad76d8ec" x="304.271461" y="589.573384" style="stroke: #000000; stroke-width: 0.8"/>
      </g>
     </g>
     <g id="text_3">
      <!-- 386000 -->
      <g transform="translate(285.183961 604.171822) scale(0.1 -0.1)">
       <defs>
        <path id="DejaVuSans-36" d="M 2113 2584 
Q 1688 2584 1439 2293 
Q 1191 2003 1191 1497 
Q 1191 994 1439 701 
Q 1688 409 2113 409 
Q 2538 409 2786 701 
Q 3034 994 3034 1497 
Q 3034 2003 2786 2293 
Q 2538 2584 2113 2584 
z
M 3366 4563 
L 3366 3988 
Q 3128 4100 2886 4159 
Q 2644 4219 2406 4219 
Q 1781 4219 1451 3797 
Q 1122 3375 1075 2522 
Q 1259 2794 1537 2939 
Q 1816 3084 2150 3084 
Q 2853 3084 3261 2657 
Q 3669 2231 3669 1497 
Q 3669 778 3244 343 
Q 2819 -91 2113 -91 
Q 1303 -91 875 529 
Q 447 1150 447 2328 
Q 447 3434 972 4092 
Q 1497 4750 2381 4750 
Q 2619 4750 2861 4703 
Q 3103 4656 3366 4563 
z
" transform="scale(0.015625)"/>
       </defs>
       <use xlink:href="#DejaVuSans-33"/>
       <use xlink:href="#DejaVuSans-38" x="63.623047"/>
       <use xlink:href="#DejaVuSans-36" x="127.246094"/>
       <use xlink:href="#DejaVuSans-30" x="190.869141"/>
       <use xlink:href="#DejaVuSans-30" x="254.492188"/>
       <use xlink:href="#DejaVuSans-30" x="318.115234"/>
      </g>
     </g>
    </g>
    <g id="xtick_4">
     <g id="line2d_4">
      <g>
       <use xlink:href="#m51ad76d8ec" x="382.672944" y="589.573384" style="stroke: #000000; stroke-width: 0.8"/>
      </g>
     </g>
     <g id="text_4">
      <!-- 387000 -->
      <g transform="translate(363.585444 604.171822) scale(0.1 -0.1)">
       <defs>
        <path id="DejaVuSans-37" d="M 525 4666 
L 3525 4666 
L 3525 4397 
L 1831 0 
L 1172 0 
L 2766 4134 
L 525 4134 
L 525 4666 
z
" transform="scale(0.015625)"/>
       </defs>
       <use xlink:href="#DejaVuSans-33"/>
       <use xlink:href="#DejaVuSans-38" x="63.623047"/>
       <use xlink:href="#DejaVuSans-37" x="127.246094"/>
       <use xlink:href="#DejaVuSans-30" x="190.869141"/>
       <use xlink:href="#DejaVuSans-30" x="254.492188"/>
       <use xlink:href="#DejaVuSans-30" x="318.115234"/>
      </g>
     </g>
    </g>
    <g id="xtick_5">
     <g id="line2d_5">
      <g>
       <use xlink:href="#m51ad76d8ec" x="461.074427" y="589.573384" style="stroke: #000000; stroke-width: 0.8"/>
      </g>
     </g>
     <g id="text_5">
      <!-- 388000 -->
      <g transform="translate(441.986927 604.171822) scale(0.1 -0.1)">
       <use xlink:href="#DejaVuSans-33"/>
       <use xlink:href="#DejaVuSans-38" x="63.623047"/>
       <use xlink:href="#DejaVuSans-38" x="127.246094"/>
       <use xlink:href="#DejaVuSans-30" x="190.869141"/>
       <use xlink:href="#DejaVuSans-30" x="254.492188"/>
       <use xlink:href="#DejaVuSans-30" x="318.115234"/>
      </g>
     </g>
    </g>
    <g id="xtick_6">
     <g id="line2d_6">
      <g>
       <use xlink:href="#m51ad76d8ec" x="539.47591" y="589.573384" style="stroke: #000000; stroke-width: 0.8"/>
      </g>
     </g>
     <g id="text_6">
      <!-- 389000 -->
      <g transform="translate(520.38841 604.171822) scale(0.1 -0.1)">
       <defs>
        <path id="DejaVuSans-39" d="M 703 97 
L 703 672 
Q 941 559 1184 500 
Q 1428 441 1663 441 
Q 2288 441 2617 861 
Q 2947 1281 2994 2138 
Q 2813 1869 2534 1725 
Q 2256 1581 1919 1581 
Q 1219 1581 811 2004 
Q 403 2428 403 3163 
Q 403 3881 828 4315 
Q 1253 4750 1959 4750 
Q 2769 4750 3195 4129 
Q 3622 3509 3622 2328 
Q 3622 1225 3098 567 
Q 2575 -91 1691 -91 
Q 1453 -91 1209 -44 
Q 966 3 703 97 
z
M 1959 2075 
Q 2384 2075 2632 2365 
Q 2881 2656 2881 3163 
Q 2881 3666 2632 3958 
Q 2384 4250 1959 4250 
Q 1534 4250 1286 3958 
Q 1038 3666 1038 3163 
Q 1038 2656 1286 2365 
Q 1534 2075 1959 2075 
z
" transform="scale(0.015625)"/>
       </defs>
       <use xlink:href="#DejaVuSans-33"/>
       <use xlink:href="#DejaVuSans-38" x="63.623047"/>
       <use xlink:href="#DejaVuSans-39" x="127.246094"/>
       <use xlink:href="#DejaVuSans-30" x="190.869141"/>
       <use xlink:href="#DejaVuSans-30" x="254.492188"/>
       <use xlink:href="#DejaVuSans-30" x="318.115234"/>
      </g>
     </g>
    </g>
    <g id="xtick_7">
     <g id="line2d_7">
      <g>
       <use xlink:href="#m51ad76d8ec" x="617.877394" y="589.573384" style="stroke: #000000; stroke-width: 0.8"/>
      </g>
     </g>
     <g id="text_7">
      <!-- 390000 -->
      <g transform="translate(598.789894 604.171822) scale(0.1 -0.1)">
       <use xlink:href="#DejaVuSans-33"/>
       <use xlink:href="#DejaVuSans-39" x="63.623047"/>
       <use xlink:href="#DejaVuSans-30" x="127.246094"/>
       <use xlink:href="#DejaVuSans-30" x="190.869141"/>
       <use xlink:href="#DejaVuSans-30" x="254.492188"/>
       <use xlink:href="#DejaVuSans-30" x="318.115234"/>
      </g>
     </g>
    </g>
   </g>
   <g id="matplotlib.axis_2">
    <g id="ytick_1">
     <g id="line2d_8">
      <defs>
       <path id="m130fdfa952" d="M 0 0 
L -3.5 0 
" style="stroke: #000000; stroke-width: 0.8"/>
      </defs>
      <g>
       <use xlink:href="#m130fdfa952" x="90" y="539.46516" style="stroke: #000000; stroke-width: 0.8"/>
      </g>
     </g>
     <g id="text_8">
      <!-- 5.827 -->
      <g transform="translate(54.371875 543.264379) scale(0.1 -0.1)">
       <defs>
        <path id="DejaVuSans-2e" d="M 684 794 
L 1344 794 
L 1344 0 
L 684 0 
L 684 794 
z
" transform="scale(0.015625)"/>
        <path id="DejaVuSans-32" d="M 1228 531 
L 3431 531 
L 3431 0 
L 469 0 
L 469 531 
Q 828 903 1448 1529 
Q 2069 2156 2228 2338 
Q 2531 2678 2651 2914 
Q 2772 3150 2772 3378 
Q 2772 3750 2511 3984 
Q 2250 4219 1831 4219 
Q 1534 4219 1204 4116 
Q 875 4013 500 3803 
L 500 4441 
Q 881 4594 1212 4672 
Q 1544 4750 1819 4750 
Q 2544 4750 2975 4387 
Q 3406 4025 3406 3419 
Q 3406 3131 3298 2873 
Q 3191 2616 2906 2266 
Q 2828 2175 2409 1742 
Q 1991 1309 1228 531 
z
" transform="scale(0.015625)"/>
       </defs>
       <use xlink:href="#DejaVuSans-35"/>
       <use xlink:href="#DejaVuSans-2e" x="63.623047"/>
       <use xlink:href="#DejaVuSans-38" x="95.410156"/>
       <use xlink:href="#DejaVuSans-32" x="159.033203"/>
       <use xlink:href="#DejaVuSans-37" x="222.65625"/>
      </g>
     </g>
    </g>
    <g id="ytick_2">
     <g id="line2d_9">
      <g>
       <use xlink:href="#m130fdfa952" x="90" y="461.063677" style="stroke: #000000; stroke-width: 0.8"/>
      </g>
     </g>
     <g id="text_9">
      <!-- 5.828 -->
      <g transform="translate(54.371875 464.862895) scale(0.1 -0.1)">
       <use xlink:href="#DejaVuSans-35"/>
       <use xlink:href="#DejaVuSans-2e" x="63.623047"/>
       <use xlink:href="#DejaVuSans-38" x="95.410156"/>
       <use xlink:href="#DejaVuSans-32" x="159.033203"/>
       <use xlink:href="#DejaVuSans-38" x="222.65625"/>
      </g>
     </g>
    </g>
    <g id="ytick_3">
     <g id="line2d_10">
      <g>
       <use xlink:href="#m130fdfa952" x="90" y="382.662194" style="stroke: #000000; stroke-width: 0.8"/>
      </g>
     </g>
     <g id="text_10">
      <!-- 5.829 -->
      <g transform="translate(54.371875 386.461412) scale(0.1 -0.1)">
       <use xlink:href="#DejaVuSans-35"/>
       <use xlink:href="#DejaVuSans-2e" x="63.623047"/>
       <use xlink:href="#DejaVuSans-38" x="95.410156"/>
       <use xlink:href="#DejaVuSans-32" x="159.033203"/>
       <use xlink:href="#DejaVuSans-39" x="222.65625"/>
      </g>
     </g>
    </g>
    <g id="ytick_4">
     <g id="line2d_11">
      <g>
       <use xlink:href="#m130fdfa952" x="90" y="304.26071" style="stroke: #000000; stroke-width: 0.8"/>
      </g>
     </g>
     <g id="text_11">
      <!-- 5.830 -->
      <g transform="translate(54.371875 308.059929) scale(0.1 -0.1)">
       <use xlink:href="#DejaVuSans-35"/>
       <use xlink:href="#DejaVuSans-2e" x="63.623047"/>
       <use xlink:href="#DejaVuSans-38" x="95.410156"/>
       <use xlink:href="#DejaVuSans-33" x="159.033203"/>
       <use xlink:href="#DejaVuSans-30" x="222.65625"/>
      </g>
     </g>
    </g>
    <g id="ytick_5">
     <g id="line2d_12">
      <g>
       <use xlink:href="#m130fdfa952" x="90" y="225.859227" style="stroke: #000000; stroke-width: 0.8"/>
      </g>
     </g>
     <g id="text_12">
      <!-- 5.831 -->
      <g transform="translate(54.371875 229.658446) scale(0.1 -0.1)">
       <defs>
        <path id="DejaVuSans-31" d="M 794 531 
L 1825 531 
L 1825 4091 
L 703 3866 
L 703 4441 
L 1819 4666 
L 2450 4666 
L 2450 531 
L 3481 531 
L 3481 0 
L 794 0 
L 794 531 
z
" transform="scale(0.015625)"/>
       </defs>
       <use xlink:href="#DejaVuSans-35"/>
       <use xlink:href="#DejaVuSans-2e" x="63.623047"/>
       <use xlink:href="#DejaVuSans-38" x="95.410156"/>
       <use xlink:href="#DejaVuSans-33" x="159.033203"/>
       <use xlink:href="#DejaVuSans-31" x="222.65625"/>
      </g>
     </g>
    </g>
    <g id="ytick_6">
     <g id="line2d_13">
      <g>
       <use xlink:href="#m130fdfa952" x="90" y="147.457744" style="stroke: #000000; stroke-width: 0.8"/>
      </g>
     </g>
     <g id="text_13">
      <!-- 5.832 -->
      <g transform="translate(54.371875 151.256963) scale(0.1 -0.1)">
       <use xlink:href="#DejaVuSans-35"/>
       <use xlink:href="#DejaVuSans-2e" x="63.623047"/>
       <use xlink:href="#DejaVuSans-38" x="95.410156"/>
       <use xlink:href="#DejaVuSans-33" x="159.033203"/>
       <use xlink:href="#DejaVuSans-32" x="222.65625"/>
      </g>
     </g>
    </g>
    <g id="text_14">
     <!-- 1e6 -->
     <g transform="translate(90 134.626616) scale(0.1 -0.1)">
      <defs>
       <path id="DejaVuSans-65" d="M 3597 1894 
L 3597 1613 
L 953 1613 
Q 991 1019 1311 708 
Q 1631 397 2203 397 
Q 2534 397 2845 478 
Q 3156 559 3463 722 
L 3463 178 
Q 3153 47 2828 -22 
Q 2503 -91 2169 -91 
Q 1331 -91 842 396 
Q 353 884 353 1716 
Q 353 2575 817 3079 
Q 1281 3584 2069 3584 
Q 2775 3584 3186 3129 
Q 3597 2675 3597 1894 
z
M 3022 2063 
Q 3016 2534 2758 2815 
Q 2500 3097 2075 3097 
Q 1594 3097 1305 2825 
Q 1016 2553 972 2059 
L 3022 2063 
z
" transform="scale(0.015625)"/>
      </defs>
      <use xlink:href="#DejaVuSans-31"/>
      <use xlink:href="#DejaVuSans-65" x="63.623047"/>
      <use xlink:href="#DejaVuSans-36" x="125.146484"/>
     </g>
    </g>
   </g>
   <g id="patch_3">
    <path d="M 90 589.573384 
L 90 137.626616 
" style="fill: none; stroke: #000000; stroke-width: 0.8; stroke-linejoin: miter; stroke-linecap: square"/>
   </g>
   <g id="patch_4">
    <path d="M 648 589.573384 
L 648 137.626616 
" style="fill: none; stroke: #000000; stroke-width: 0.8; stroke-linejoin: miter; stroke-linecap: square"/>
   </g>
   <g id="patch_5">
    <path d="M 90 589.573384 
L 648 589.573384 
" style="fill: none; stroke: #000000; stroke-width: 0.8; stroke-linejoin: miter; stroke-linecap: square"/>
   </g>
   <g id="patch_6">
    <path d="M 90 137.626616 
L 648 137.626616 
" style="fill: none; stroke: #000000; stroke-width: 0.8; stroke-linejoin: miter; stroke-linecap: square"/>
   </g>
   <g id="text_15">
    <!-- Wittenau_Borsigwalde -->
    <g transform="translate(292.874201 377.602794) scale(0.12 -0.12)">
     <defs>
      <path id="DejaVuSans-57" d="M 213 4666 
L 850 4666 
L 1831 722 
L 2809 4666 
L 3519 4666 
L 4500 722 
L 5478 4666 
L 6119 4666 
L 4947 0 
L 4153 0 
L 3169 4050 
L 2175 0 
L 1381 0 
L 213 4666 
z
" transform="scale(0.015625)"/>
      <path id="DejaVuSans-69" d="M 603 3500 
L 1178 3500 
L 1178 0 
L 603 0 
L 603 3500 
z
M 603 4863 
L 1178 4863 
L 1178 4134 
L 603 4134 
L 603 4863 
z
" transform="scale(0.015625)"/>
      <path id="DejaVuSans-74" d="M 1172 4494 
L 1172 3500 
L 2356 3500 
L 2356 3053 
L 1172 3053 
L 1172 1153 
Q 1172 725 1289 603 
Q 1406 481 1766 481 
L 2356 481 
L 2356 0 
L 1766 0 
Q 1100 0 847 248 
Q 594 497 594 1153 
L 594 3053 
L 172 3053 
L 172 3500 
L 594 3500 
L 594 4494 
L 1172 4494 
z
" transform="scale(0.015625)"/>
      <path id="DejaVuSans-6e" d="M 3513 2113 
L 3513 0 
L 2938 0 
L 2938 2094 
Q 2938 2591 2744 2837 
Q 2550 3084 2163 3084 
Q 1697 3084 1428 2787 
Q 1159 2491 1159 1978 
L 1159 0 
L 581 0 
L 581 3500 
L 1159 3500 
L 1159 2956 
Q 1366 3272 1645 3428 
Q 1925 3584 2291 3584 
Q 2894 3584 3203 3211 
Q 3513 2838 3513 2113 
z
" transform="scale(0.015625)"/>
      <path id="DejaVuSans-61" d="M 2194 1759 
Q 1497 1759 1228 1600 
Q 959 1441 959 1056 
Q 959 750 1161 570 
Q 1363 391 1709 391 
Q 2188 391 2477 730 
Q 2766 1069 2766 1631 
L 2766 1759 
L 2194 1759 
z
M 3341 1997 
L 3341 0 
L 2766 0 
L 2766 531 
Q 2569 213 2275 61 
Q 1981 -91 1556 -91 
Q 1019 -91 701 211 
Q 384 513 384 1019 
Q 384 1609 779 1909 
Q 1175 2209 1959 2209 
L 2766 2209 
L 2766 2266 
Q 2766 2663 2505 2880 
Q 2244 3097 1772 3097 
Q 1472 3097 1187 3025 
Q 903 2953 641 2809 
L 641 3341 
Q 956 3463 1253 3523 
Q 1550 3584 1831 3584 
Q 2591 3584 2966 3190 
Q 3341 2797 3341 1997 
z
" transform="scale(0.015625)"/>
      <path id="DejaVuSans-75" d="M 544 1381 
L 544 3500 
L 1119 3500 
L 1119 1403 
Q 1119 906 1312 657 
Q 1506 409 1894 409 
Q 2359 409 2629 706 
Q 2900 1003 2900 1516 
L 2900 3500 
L 3475 3500 
L 3475 0 
L 2900 0 
L 2900 538 
Q 2691 219 2414 64 
Q 2138 -91 1772 -91 
Q 1169 -91 856 284 
Q 544 659 544 1381 
z
M 1991 3584 
L 1991 3584 
z
" transform="scale(0.015625)"/>
      <path id="DejaVuSans-5f" d="M 3263 -1063 
L 3263 -1509 
L -63 -1509 
L -63 -1063 
L 3263 -1063 
z
" transform="scale(0.015625)"/>
      <path id="DejaVuSans-42" d="M 1259 2228 
L 1259 519 
L 2272 519 
Q 2781 519 3026 730 
Q 3272 941 3272 1375 
Q 3272 1813 3026 2020 
Q 2781 2228 2272 2228 
L 1259 2228 
z
M 1259 4147 
L 1259 2741 
L 2194 2741 
Q 2656 2741 2882 2914 
Q 3109 3088 3109 3444 
Q 3109 3797 2882 3972 
Q 2656 4147 2194 4147 
L 1259 4147 
z
M 628 4666 
L 2241 4666 
Q 2963 4666 3353 4366 
Q 3744 4066 3744 3513 
Q 3744 3084 3544 2831 
Q 3344 2578 2956 2516 
Q 3422 2416 3680 2098 
Q 3938 1781 3938 1306 
Q 3938 681 3513 340 
Q 3088 0 2303 0 
L 628 0 
L 628 4666 
z
" transform="scale(0.015625)"/>
      <path id="DejaVuSans-6f" d="M 1959 3097 
Q 1497 3097 1228 2736 
Q 959 2375 959 1747 
Q 959 1119 1226 758 
Q 1494 397 1959 397 
Q 2419 397 2687 759 
Q 2956 1122 2956 1747 
Q 2956 2369 2687 2733 
Q 2419 3097 1959 3097 
z
M 1959 3584 
Q 2709 3584 3137 3096 
Q 3566 2609 3566 1747 
Q 3566 888 3137 398 
Q 2709 -91 1959 -91 
Q 1206 -91 779 398 
Q 353 888 353 1747 
Q 353 2609 779 3096 
Q 1206 3584 1959 3584 
z
" transform="scale(0.015625)"/>
      <path id="DejaVuSans-72" d="M 2631 2963 
Q 2534 3019 2420 3045 
Q 2306 3072 2169 3072 
Q 1681 3072 1420 2755 
Q 1159 2438 1159 1844 
L 1159 0 
L 581 0 
L 581 3500 
L 1159 3500 
L 1159 2956 
Q 1341 3275 1631 3429 
Q 1922 3584 2338 3584 
Q 2397 3584 2469 3576 
Q 2541 3569 2628 3553 
L 2631 2963 
z
" transform="scale(0.015625)"/>
      <path id="DejaVuSans-73" d="M 2834 3397 
L 2834 2853 
Q 2591 2978 2328 3040 
Q 2066 3103 1784 3103 
Q 1356 3103 1142 2972 
Q 928 2841 928 2578 
Q 928 2378 1081 2264 
Q 1234 2150 1697 2047 
L 1894 2003 
Q 2506 1872 2764 1633 
Q 3022 1394 3022 966 
Q 3022 478 2636 193 
Q 2250 -91 1575 -91 
Q 1294 -91 989 -36 
Q 684 19 347 128 
L 347 722 
Q 666 556 975 473 
Q 1284 391 1588 391 
Q 1994 391 2212 530 
Q 2431 669 2431 922 
Q 2431 1156 2273 1281 
Q 2116 1406 1581 1522 
L 1381 1569 
Q 847 1681 609 1914 
Q 372 2147 372 2553 
Q 372 3047 722 3315 
Q 1072 3584 1716 3584 
Q 2034 3584 2315 3537 
Q 2597 3491 2834 3397 
z
" transform="scale(0.015625)"/>
      <path id="DejaVuSans-67" d="M 2906 1791 
Q 2906 2416 2648 2759 
Q 2391 3103 1925 3103 
Q 1463 3103 1205 2759 
Q 947 2416 947 1791 
Q 947 1169 1205 825 
Q 1463 481 1925 481 
Q 2391 481 2648 825 
Q 2906 1169 2906 1791 
z
M 3481 434 
Q 3481 -459 3084 -895 
Q 2688 -1331 1869 -1331 
Q 1566 -1331 1297 -1286 
Q 1028 -1241 775 -1147 
L 775 -588 
Q 1028 -725 1275 -790 
Q 1522 -856 1778 -856 
Q 2344 -856 2625 -561 
Q 2906 -266 2906 331 
L 2906 616 
Q 2728 306 2450 153 
Q 2172 0 1784 0 
Q 1141 0 747 490 
Q 353 981 353 1791 
Q 353 2603 747 3093 
Q 1141 3584 1784 3584 
Q 2172 3584 2450 3431 
Q 2728 3278 2906 2969 
L 2906 3500 
L 3481 3500 
L 3481 434 
z
" transform="scale(0.015625)"/>
      <path id="DejaVuSans-77" d="M 269 3500 
L 844 3500 
L 1563 769 
L 2278 3500 
L 2956 3500 
L 3675 769 
L 4391 3500 
L 4966 3500 
L 4050 0 
L 3372 0 
L 2619 2869 
L 1863 0 
L 1184 0 
L 269 3500 
z
" transform="scale(0.015625)"/>
      <path id="DejaVuSans-6c" d="M 603 4863 
L 1178 4863 
L 1178 0 
L 603 0 
L 603 4863 
z
" transform="scale(0.015625)"/>
      <path id="DejaVuSans-64" d="M 2906 2969 
L 2906 4863 
L 3481 4863 
L 3481 0 
L 2906 0 
L 2906 525 
Q 2725 213 2448 61 
Q 2172 -91 1784 -91 
Q 1150 -91 751 415 
Q 353 922 353 1747 
Q 353 2572 751 3078 
Q 1150 3584 1784 3584 
Q 2172 3584 2448 3432 
Q 2725 3281 2906 2969 
z
M 947 1747 
Q 947 1113 1208 752 
Q 1469 391 1925 391 
Q 2381 391 2643 752 
Q 2906 1113 2906 1747 
Q 2906 2381 2643 2742 
Q 2381 3103 1925 3103 
Q 1469 3103 1208 2742 
Q 947 2381 947 1747 
z
" transform="scale(0.015625)"/>
     </defs>
     <use xlink:href="#DejaVuSans-57"/>
     <use xlink:href="#DejaVuSans-69" x="96.626953"/>
     <use xlink:href="#DejaVuSans-74" x="124.410156"/>
     <use xlink:href="#DejaVuSans-74" x="163.619141"/>
     <use xlink:href="#DejaVuSans-65" x="202.828125"/>
     <use xlink:href="#DejaVuSans-6e" x="264.351562"/>
     <use xlink:href="#DejaVuSans-61" x="327.730469"/>
     <use xlink:href="#DejaVuSans-75" x="389.009766"/>
     <use xlink:href="#DejaVuSans-5f" x="452.388672"/>
     <use xlink:href="#DejaVuSans-42" x="502.388672"/>
     <use xlink:href="#DejaVuSans-6f" x="570.992188"/>
     <use xlink:href="#DejaVuSans-72" x="632.173828"/>
     <use xlink:href="#DejaVuSans-73" x="673.287109"/>
     <use xlink:href="#DejaVuSans-69" x="725.386719"/>
     <use xlink:href="#DejaVuSans-67" x="753.169922"/>
     <use xlink:href="#DejaVuSans-77" x="816.646484"/>
     <use xlink:href="#DejaVuSans-61" x="898.433594"/>
     <use xlink:href="#DejaVuSans-6c" x="959.712891"/>
     <use xlink:href="#DejaVuSans-64" x="987.496094"/>
     <use xlink:href="#DejaVuSans-65" x="1050.972656"/>
    </g>
   </g>
  </g>
 </g>
 <defs>
  <clipPath id="p3de3835964">
   <rect x="90" y="137.626616" width="558" height="451.946769"/>
  </clipPath>
 </defs>
</svg>
