<?xml version="1.0" encoding="utf-8" standalone="no"?>
<!DOCTYPE svg PUBLIC "-//W3C//DTD SVG 1.1//EN"
  "http://www.w3.org/Graphics/SVG/1.1/DTD/svg11.dtd">
<svg xmlns:xlink="http://www.w3.org/1999/xlink" width="460.8pt" height="345.6pt" viewBox="0 0 460.8 345.6" xmlns="http://www.w3.org/2000/svg" version="1.1">
 <metadata>
  <rdf:RDF xmlns:dc="http://purl.org/dc/elements/1.1/" xmlns:cc="http://creativecommons.org/ns#" xmlns:rdf="http://www.w3.org/1999/02/22-rdf-syntax-ns#">
   <cc:Work>
    <dc:type rdf:resource="http://purl.org/dc/dcmitype/StillImage"/>
    <dc:date>2024-10-17T11:33:17.648828</dc:date>
    <dc:format>image/svg+xml</dc:format>
    <dc:creator>
     <cc:Agent>
      <dc:title>Matplotlib v3.9.2, https://matplotlib.org/</dc:title>
     </cc:Agent>
    </dc:creator>
   </cc:Work>
  </rdf:RDF>
 </metadata>
 <defs>
  <style type="text/css">*{stroke-linejoin: round; stroke-linecap: butt}</style>
 </defs>
 <g id="figure_1">
  <g id="patch_1">
   <path d="M 0 345.6 
L 460.8 345.6 
L 460.8 0 
L 0 0 
z
" style="fill: #ffffff"/>
  </g>
  <g id="axes_1">
   <g id="patch_2">
    <path d="M 87.843067 307.584 
L 384.476933 307.584 
L 384.476933 41.472 
L 87.843067 41.472 
z
" style="fill: #ffffff"/>
   </g>
   <g id="PatchCollection_1">
    <path d="M 332.652673 178.783311 
L 332.439239 178.682619 
L 332.267672 178.596564 
L 332.053969 178.48283 
L 331.908195 178.400248 
L 331.692659 178.270344 
L 331.62181 178.226336 
L 331.639432 178.201584 
L 331.777947 177.982 
L 331.905638 177.770875 
L 332.048248 177.524409 
L 332.143808 177.351205 
L 332.281073 177.139422 
L 332.454487 176.890484 
L 332.471352 176.867364 
L 332.614783 176.676611 
L 332.745624 176.513068 
L 332.914148 176.315865 
L 333.079095 176.122849 
L 333.215992 175.962656 
L 333.400808 175.74639 
L 333.532877 175.591848 
L 333.689446 175.408637 
L 333.868787 175.198779 
L 333.985261 175.062486 
L 334.152906 174.866316 
L 334.31816 174.672944 
L 334.461084 174.505702 
L 334.616148 174.324255 
L 334.754731 174.162093 
L 334.943822 173.94083 
L 335.06486 173.799199 
L 335.230264 173.605654 
L 335.366156 173.446638 
L 335.52946 173.255547 
L 335.696664 173.059894 
L 335.870158 172.856879 
L 336.012862 172.689895 
L 336.168769 172.50746 
L 336.462639 172.163591 
L 336.791865 171.778352 
L 337.097877 171.420279 
L 337.391645 171.077557 
L 337.71752 170.698304 
L 338.042975 170.319543 
L 338.369549 169.939481 
L 338.694721 169.561364 
L 338.987382 169.221334 
L 339.315945 168.839595 
L 339.630845 168.473725 
L 339.955901 168.095502 
L 340.255725 167.745756 
L 340.601606 167.342287 
L 340.901014 166.99303 
L 341.212788 166.62935 
L 341.533931 166.254743 
L 341.841771 165.895656 
L 342.150161 165.535929 
L 342.487607 165.142312 
L 342.787847 164.792095 
L 343.108745 164.417784 
L 343.428862 164.044386 
L 343.458962 164.072296 
L 343.633916 163.901872 
L 343.664348 163.869382 
L 343.82911 163.684032 
L 343.982477 163.511501 
L 344.155499 163.31686 
L 344.313711 163.13888 
L 344.475732 162.956615 
L 344.501608 162.921699 
L 344.676844 162.71748 
L 344.863853 162.5312 
L 345.001719 162.410258 
L 345.064618 162.363079 
L 345.12524 162.313065 
L 345.183467 162.260217 
L 345.209769 162.234027 
L 345.239184 162.204737 
L 345.292277 162.146706 
L 345.374691 162.085188 
L 345.570491 161.820308 
L 345.655402 161.73044 
L 345.79948 161.518948 
L 345.931655 161.29978 
L 345.99316 161.187533 
L 346.051508 161.073618 
L 346.106741 160.958153 
L 346.059845 160.92272 
L 346.111875 160.849976 
L 346.245064 160.663767 
L 346.400657 160.487948 
L 346.56656 160.300479 
L 346.729112 160.116797 
L 346.88809 159.937156 
L 347.212992 159.570023 
L 347.533338 159.208041 
L 347.719339 158.997866 
L 347.868626 158.829177 
L 347.957871 158.726414 
L 348.033274 158.640838 
L 348.200772 158.450742 
L 348.358336 158.271923 
L 348.392056 158.234726 
L 348.548895 158.055405 
L 348.721443 157.857346 
L 348.887078 157.664403 
L 349.057628 157.463977 
L 349.211806 157.281081 
L 349.364679 157.097454 
L 349.546512 156.877695 
L 349.686136 156.705781 
L 349.827357 156.531902 
L 350.006021 156.307829 
L 350.307813 155.924449 
L 350.589797 155.558954 
L 350.744095 155.355691 
L 350.918975 155.123591 
L 351.101244 154.887771 
L 351.373183 154.526441 
L 351.499448 154.354597 
L 351.66396 154.117269 
L 351.801444 153.918932 
L 351.950165 153.698317 
L 352.063032 153.528884 
L 352.202299 153.31982 
L 352.327283 153.132199 
L 352.463084 152.928339 
L 352.596853 152.727532 
L 352.727068 152.532058 
L 352.877423 152.306353 
L 352.994673 152.130344 
L 353.124127 151.936014 
L 353.152977 151.892996 
L 353.302916 151.653519 
L 353.434769 151.442931 
L 353.527472 151.294869 
L 353.580847 151.204541 
L 353.750687 150.969382 
L 353.809682 150.883151 
L 353.853796 150.815524 
L 353.902463 150.736703 
L 354.037595 150.485433 
L 354.065262 150.433988 
L 354.178265 150.223867 
L 354.206704 150.169976 
L 354.232827 150.114911 
L 354.302208 149.940782 
L 354.422439 149.637378 
L 354.535155 149.37204 
L 354.650236 149.104705 
L 354.72663 148.920574 
L 354.84577 148.686756 
L 354.973925 148.448633 
L 355.075619 148.259677 
L 355.199917 148.02872 
L 355.305242 147.833018 
L 355.429218 147.602663 
L 355.549578 147.379024 
L 355.662336 147.169513 
L 355.784093 146.943281 
L 355.897994 146.731648 
L 356.021172 146.502776 
L 356.129734 146.301063 
L 356.261015 146.057138 
L 356.364823 145.864259 
L 356.438749 145.726902 
L 356.573732 145.476101 
L 356.719471 145.205314 
L 356.817525 145.023128 
L 356.937185 144.800799 
L 357.051012 144.591279 
L 357.182515 144.349225 
L 357.276944 144.175412 
L 357.384041 143.97828 
L 357.504796 143.756011 
L 357.612707 143.557382 
L 357.867052 143.089222 
L 357.946641 142.942727 
L 358.064983 142.724901 
L 358.189723 142.4953 
L 358.325993 142.244476 
L 358.541057 141.848625 
L 358.771411 141.42463 
L 359.022922 140.961696 
L 359.229337 140.58177 
L 359.445424 140.184042 
L 359.674713 139.762016 
L 359.907074 139.334338 
L 360.133252 138.918043 
L 360.386755 138.451457 
L 360.604938 138.049881 
L 360.825308 137.644282 
L 361.040564 137.248097 
L 361.286365 136.795696 
L 361.518386 136.368659 
L 361.739503 135.961694 
L 361.975497 135.527347 
L 362.101121 135.296139 
L 362.21712 135.082646 
L 362.305456 134.920066 
L 362.443307 134.666354 
L 362.495861 134.56963 
L 362.562138 134.48299 
L 362.712925 134.285875 
L 362.773942 134.206111 
L 362.852958 134.081985 
L 362.971189 133.884642 
L 363.089316 133.673345 
L 363.202265 133.461127 
L 363.264373 133.344926 
L 363.315668 133.248956 
L 363.430581 133.036328 
L 363.546633 132.824205 
L 363.657236 132.623948 
L 363.717313 132.516654 
L 363.778925 132.406619 
L 363.896935 132.197681 
L 364.018427 131.985624 
L 364.137261 131.779781 
L 364.259948 131.570375 
L 364.385888 131.356968 
L 364.496513 131.172362 
L 364.628915 130.952546 
L 364.756316 130.744588 
L 364.875758 130.550363 
L 365.115738 130.167124 
L 365.380811 129.752899 
L 365.536573 129.514671 
L 365.649895 129.341352 
L 365.923029 128.932442 
L 366.130039 128.643783 
L 366.341408 128.360951 
L 366.624175 127.987941 
L 367.218873 127.203438 
L 367.514742 126.813139 
L 367.65866 126.623287 
L 367.792478 126.470915 
L 368.1266 126.090465 
L 368.502738 125.662177 
L 368.880512 125.232027 
L 369.225746 124.865081 
L 369.551894 124.523378 
L 369.886181 124.189506 
L 370.056109 124.023014 
L 370.245809 123.837107 
L 370.444086 123.642822 
L 370.771795 123.329387 
L 370.993575 123.126713 
L 370.743396 122.881412 
L 370.39189 122.536763 
L 367.987514 120.180829 
L 366.887931 119.103463 
L 366.101225 118.332621 
L 365.960507 118.195163 
L 365.67121 117.911605 
L 364.303369 116.343585 
L 364.13174 116.14689 
L 363.907119 116.344213 
L 363.222929 116.950433 
L 362.776539 116.926938 
L 362.207201 116.896972 
L 361.882993 116.223268 
L 361.11451 114.597474 
L 360.77287 113.884167 
L 360.427657 113.163346 
L 359.857759 111.965927 
L 359.176664 110.557828 
L 358.935431 110.055694 
L 358.591811 109.337767 
L 358.163892 108.438215 
L 358.107382 108.324129 
L 357.725453 107.706747 
L 357.135735 106.759517 
L 356.95529 106.384352 
L 356.669828 105.790804 
L 356.18641 104.785815 
L 355.5892 103.543612 
L 355.448308 102.968899 
L 355.539249 102.943074 
L 355.628868 102.913006 
L 355.717007 102.878778 
L 355.803432 102.840434 
L 355.887987 102.798097 
L 355.970438 102.751851 
L 356.050667 102.701779 
L 356.12848 102.647965 
L 356.203683 102.590609 
L 356.276119 102.529756 
L 356.571034 102.286147 
L 355.942136 100.473334 
L 355.837437 99.817756 
L 355.817872 99.687653 
L 355.72986 99.102803 
L 355.479243 97.838199 
L 355.307409 97.524889 
L 355.01733 96.882932 
L 354.448281 96.356903 
L 354.741371 96.036082 
L 353.93042 95.336219 
L 353.856368 95.376887 
L 353.468373 94.649635 
L 352.250649 92.367071 
L 351.910837 91.730182 
L 351.796864 91.516418 
L 351.510644 90.857873 
L 351.232601 89.791434 
L 351.011439 88.943153 
L 350.604184 88.322892 
L 350.154429 87.637968 
L 350.564201 87.327756 
L 349.706984 86.020876 
L 349.693878 86.000761 
L 348.907907 86.636633 
L 348.72417 86.785766 
L 348.046429 87.313331 
L 347.31116 87.885576 
L 344.250931 90.26764 
L 344.176791 90.328299 
L 344.103259 90.389657 
L 344.030258 90.451714 
L 343.966008 90.511391 
L 343.902042 90.571378 
L 343.8384 90.631713 
L 343.717629 90.633426 
L 343.579051 90.44694 
L 343.560018 90.423284 
L 343.559153 90.589797 
L 343.487948 90.645876 
L 342.886699 91.455427 
L 342.588714 91.555194 
L 342.695628 91.088755 
L 342.715286 90.699707 
L 342.733273 89.54646 
L 342.729723 89.466878 
L 342.73369 89.281654 
L 342.737802 89.055462 
L 342.75235 88.397619 
L 342.767247 87.725917 
L 342.77745 87.263202 
L 342.786055 86.76748 
L 342.786975 86.711974 
L 342.791685 86.440892 
L 342.816789 84.994345 
L 342.833113 84.601179 
L 342.848826 83.844015 
L 342.940733 83.275625 
L 342.98557 83.038471 
L 342.985312 83.022291 
L 343.039421 82.669322 
L 343.497526 79.936713 
L 343.553361 79.603531 
L 343.550499 79.580684 
L 343.543275 79.558769 
L 343.532026 79.538691 
L 343.517123 79.521151 
L 343.499133 79.50677 
L 343.478743 79.496126 
L 343.45671 79.489596 
L 343.433792 79.48744 
L 343.410938 79.489755 
L 343.388895 79.496365 
L 343.368569 79.507129 
L 343.350658 79.521597 
L 341.643796 80.396482 
L 341.7368 80.57766 
L 341.260551 80.821455 
L 338.143732 82.381495 
L 337.329641 81.796435 
L 336.763402 81.389502 
L 336.301877 81.558048 
L 335.740517 80.786567 
L 335.22685 80.080615 
L 334.913616 79.852158 
L 334.357978 79.440048 
L 333.787326 79.019307 
L 333.242754 78.617824 
L 333.05409 78.528449 
L 332.379649 78.209833 
L 332.01137 78.039777 
L 331.841113 77.923416 
L 330.892833 77.276097 
L 330.771699 77.193176 
L 329.610362 76.400073 
L 329.410285 76.234786 
L 329.377382 76.195784 
L 329.23896 76.050819 
L 329.094771 75.851731 
L 329.07967 75.824106 
L 329.035865 75.744438 
L 328.971808 75.627966 
L 328.873682 75.388699 
L 328.84419 75.289423 
L 328.828374 75.236209 
L 328.814774 75.189987 
L 328.637956 74.978882 
L 328.542151 74.86446 
L 327.723553 73.816305 
L 326.654893 72.195072 
L 326.279108 71.624939 
L 326.003975 71.20762 
L 325.317466 70.166153 
L 325.281389 70.111396 
L 325.222219 70.021721 
L 324.957563 69.620186 
L 324.809654 69.395821 
L 326.022923 68.400578 
L 326.245223 68.218186 
L 326.430319 68.066348 
L 326.379576 68.019533 
L 325.676793 67.372339 
L 323.036862 63.076449 
L 322.848738 62.8539 
L 322.433006 62.36216 
L 322.378407 62.29751 
L 322.282092 62.183657 
L 322.267102 62.165922 
L 322.250731 62.146559 
L 321.867006 61.692655 
L 320.889771 60.53673 
L 320.243691 59.772545 
L 320.191327 59.710613 
L 320.206892 59.634738 
L 320.331459 58.610811 
L 320.395864 58.081444 
L 320.941201 54.536708 
L 321.10238 53.568 
L 319.919732 53.914746 
L 317.05107 54.755872 
L 314.762623 55.426917 
L 313.321702 55.849469 
L 313.316943 55.922874 
L 313.30882 55.995963 
L 313.297449 56.068653 
L 313.282784 56.140708 
L 313.264863 56.212048 
L 313.245549 56.266087 
L 313.224282 56.319341 
L 313.20114 56.371848 
L 313.193678 56.392246 
L 313.185619 56.412422 
L 313.177041 56.432371 
L 313.132508 56.505881 
L 313.085129 56.577598 
L 313.034978 56.647361 
L 312.982135 56.71513 
L 312.926713 56.780783 
L 312.925367 56.778954 
L 312.924021 56.777126 
L 312.922713 56.775257 
L 312.916176 56.777825 
L 312.9096 56.780354 
L 312.903022 56.782844 
L 312.89075 56.791839 
L 312.878439 56.800796 
L 312.866085 56.809635 
L 312.764033 56.886239 
L 312.660756 56.96113 
L 312.556296 57.034387 
L 312.557274 57.03567 
L 312.559113 57.038318 
L 312.554736 57.043685 
L 312.550278 57.048974 
L 312.54574 57.054225 
L 312.525592 57.064197 
L 312.505361 57.074053 
L 312.485089 57.08379 
L 312.411466 57.109307 
L 312.336904 57.131877 
L 312.261523 57.151499 
L 312.185402 57.16817 
L 312.138591 57.176474 
L 312.09145 57.18249 
L 312.044057 57.186177 
L 311.996531 57.187572 
L 311.94899 57.186633 
L 311.876333 57.184266 
L 311.803804 57.178928 
L 311.731562 57.170694 
L 311.659727 57.159562 
L 311.588376 57.145529 
L 311.011896 58.048231 
L 309.631835 60.209383 
L 309.501035 60.414217 
L 309.112693 61.023082 
L 309.066897 61.094841 
L 308.92437 61.318314 
L 308.804703 61.505948 
L 307.750178 63.15922 
L 307.656494 63.306074 
L 306.382394 65.303565 
L 306.075102 65.785351 
L 305.932962 66.008184 
L 305.055404 67.384035 
L 304.741995 67.875821 
L 300.897015 73.909246 
L 300.72323 74.180744 
L 300.49835 74.532065 
L 299.886847 75.489687 
L 299.233025 76.513569 
L 298.13978 78.224956 
L 297.751723 78.829525 
L 296.814117 80.297341 
L 296.248892 81.180787 
L 295.756954 81.950783 
L 295.224689 82.782679 
L 294.381946 84.100968 
L 294.121429 84.500223 
L 293.788896 85.022913 
L 293.638385 85.259765 
L 293.48634 85.498553 
L 293.24256 85.882177 
L 292.815715 86.549053 
L 292.38849 87.214753 
L 291.573564 88.48 
L 291.126349 89.178665 
L 290.747881 89.878359 
L 290.675102 90.024648 
L 289.799132 91.750776 
L 289.371665 92.604906 
L 289.009828 93.326056 
L 288.735036 94.089155 
L 288.150865 95.813259 
L 287.643382 97.310367 
L 287.301444 98.319039 
L 287.049571 99.080451 
L 286.542603 100.598723 
L 286.246121 101.474536 
L 285.546236 103.541853 
L 285.234111 104.450648 
L 284.987961 105.179437 
L 284.66537 106.129836 
L 284.339977 107.088574 
L 283.981696 108.146357 
L 283.564672 109.377249 
L 283.613961 109.45456 
L 284.136668 110.276356 
L 284.540237 110.910774 
L 284.900909 111.477782 
L 285.175976 111.542468 
L 284.926519 111.693178 
L 284.529542 111.946325 
L 283.731177 112.455438 
L 283.379305 112.665524 
L 283.362573 112.637545 
L 283.11154 112.794983 
L 282.339266 113.256159 
L 281.685096 113.651575 
L 280.937685 114.1035 
L 280.512881 114.360356 
L 280.153641 114.577548 
L 279.477479 114.986118 
L 279.103966 115.219164 
L 277.847932 115.981317 
L 277.10814 116.447442 
L 276.508114 116.825486 
L 275.706262 117.345486 
L 275.083874 117.766292 
L 274.21343 118.336088 
L 273.318143 118.922151 
L 272.489281 119.418031 
L 272.147931 119.626186 
L 271.688395 119.901181 
L 271.401477 120.076583 
L 270.991002 120.322157 
L 270.911102 120.371584 
L 270.589882 120.565848 
L 269.959836 120.944071 
L 268.984192 121.532458 
L 268.106198 122.067042 
L 267.463899 122.449403 
L 266.796427 122.859157 
L 266.602023 122.978941 
L 266.406674 123.097204 
L 266.210461 123.213945 
L 265.903398 123.396997 
L 265.594811 123.577395 
L 265.284702 123.755178 
L 264.973109 123.930306 
L 264.659992 124.102779 
L 264.34547 124.272556 
L 264.134685 124.384144 
L 263.923117 124.494326 
L 263.710844 124.603061 
L 260.97174 125.997315 
L 260.360705 126.31148 
L 259.777597 126.610933 
L 259.074456 126.972251 
L 258.370893 127.333939 
L 256.79452 128.143234 
L 256.587061 128.249844 
L 255.942421 128.577694 
L 255.703398 128.699256 
L 255.222453 128.945395 
L 253.5426 129.805702 
L 252.338624 130.422332 
L 250.721841 131.250489 
L 241.237965 136.104873 
L 240.587198 136.437504 
L 239.476657 137.006549 
L 237.713087 137.910392 
L 237.554515 137.993177 
L 237.330931 138.109889 
L 237.181915 138.187697 
L 234.450833 139.584631 
L 231.844461 140.91791 
L 231.292306 141.200404 
L 229.799025 141.968079 
L 229.075229 142.334475 
L 228.363659 142.698523 
L 227.618699 143.07956 
L 226.657254 143.571338 
L 225.319556 144.255613 
L 225.102094 144.366851 
L 224.816782 144.513338 
L 224.542882 144.653966 
L 224.32743 144.764997 
L 220.785496 146.580695 
L 219.778195 147.09676 
L 219.009089 148.478326 
L 218.987459 148.509952 
L 218.961964 148.538465 
L 215.112526 151.540213 
L 213.859335 152.518326 
L 213.112862 153.100738 
L 212.301557 153.732202 
L 211.60993 154.271627 
L 210.770097 154.924838 
L 209.992195 155.532753 
L 209.793322 155.69394 
L 209.705948 155.581669 
L 209.477073 155.754541 
L 209.285311 155.899411 
L 209.074536 156.051585 
L 208.940103 156.148772 
L 208.867148 156.241275 
L 207.42976 156.901164 
L 207.181655 157.161093 
L 206.992227 157.23681 
L 206.666178 157.367779 
L 206.11601 157.588085 
L 203.86585 158.499287 
L 203.465347 158.661435 
L 202.492645 159.055246 
L 202.365376 159.103547 
L 202.237219 159.149417 
L 202.108213 159.192814 
L 201.978397 159.233697 
L 201.84781 159.272106 
L 201.704684 159.311095 
L 201.560734 159.347056 
L 201.41612 159.379985 
L 201.270801 159.409885 
L 201.145733 159.433083 
L 201.020255 159.453996 
L 200.894447 159.4727 
L 200.768308 159.489118 
L 200.641877 159.503247 
L 200.515159 159.515245 
L 200.388267 159.524953 
L 200.261202 159.532409 
L 200.134043 159.537573 
L 200.006791 159.540482 
L 199.943668 159.540698 
L 199.880532 159.54036 
L 199.817382 159.539469 
L 199.754339 159.5381 
L 199.691323 159.536176 
L 199.628333 159.533698 
L 199.515673 159.527747 
L 199.403211 159.518547 
L 199.291067 159.506133 
L 199.179319 159.490504 
L 199.068086 159.471657 
L 198.957369 159.449593 
L 198.847287 159.424426 
L 198.737998 159.396073 
L 198.629542 159.364614 
L 198.522038 159.330046 
L 197.041712 158.827287 
L 196.86032 158.790228 
L 196.081691 158.726827 
L 194.798198 158.622324 
L 194.676909 158.592483 
L 192.711144 158.031545 
L 192.5612 157.988902 
L 192.574638 157.940216 
L 192.02374 157.78283 
L 191.604383 157.662992 
L 191.507345 157.635258 
L 191.465486 157.628275 
L 191.120915 157.533504 
L 189.389386 156.902868 
L 189.132065 156.832745 
L 188.688666 156.704907 
L 187.983372 156.505633 
L 187.333528 156.322 
L 186.717233 156.147886 
L 186.007098 155.94941 
L 185.829265 155.89969 
L 185.055933 155.683709 
L 183.727774 155.870367 
L 183.691599 155.875451 
L 182.448425 156.150426 
L 182.143406 156.217924 
L 180.856414 156.502756 
L 179.930993 156.733804 
L 179.78053 156.771364 
L 177.702147 157.268471 
L 176.164926 157.636134 
L 174.478974 158.052293 
L 173.708904 158.243315 
L 173.23439 158.361002 
L 172.217588 158.613181 
L 171.72624 158.735079 
L 169.832208 159.198633 
L 169.525607 159.273826 
L 169.175239 159.359502 
L 168.327917 159.566865 
L 166.947195 159.877573 
L 165.846485 160.125293 
L 165.7467 160.150591 
L 165.330843 160.256069 
L 165.075828 160.320756 
L 163.571286 160.702369 
L 161.844029 161.096372 
L 161.179377 161.262244 
L 161.04976 161.294641 
L 158.015185 162.052031 
L 157.543065 162.170015 
L 157.287719 162.23385 
L 157.263271 162.239946 
L 157.010772 162.303046 
L 156.901147 162.330442 
L 156.707629 162.37813 
L 156.520702 162.424075 
L 154.917083 162.81806 
L 152.997388 163.289725 
L 152.443719 163.425974 
L 151.375542 163.688498 
L 148.0998 164.493711 
L 148.074996 164.499778 
L 147.780205 164.572785 
L 147.271887 164.698676 
L 146.432092 164.906862 
L 145.724088 165.104041 
L 144.928064 165.296998 
L 144.663435 165.361907 
L 144.399769 165.430711 
L 144.137184 165.503367 
L 143.87568 165.579916 
L 143.615297 165.660316 
L 143.356151 165.744525 
L 143.098243 165.832582 
L 142.841691 165.924406 
L 142.677532 165.988642 
L 142.667704 165.992488 
L 141.937098 166.268118 
L 141.824197 166.310687 
L 141.698504 166.358119 
L 140.680023 166.73612 
L 138.950776 167.385284 
L 136.685151 168.235794 
L 134.391423 169.111713 
L 133.789923 169.337884 
L 133.360493 169.499356 
L 132.065348 169.987778 
L 131.568423 170.175175 
L 130.719909 170.497068 
L 129.328779 171.024899 
L 128.623546 171.29046 
L 127.031066 171.89012 
L 125.014752 172.649456 
L 124.461714 172.856689 
L 122.14986 173.723028 
L 121.505468 173.966037 
L 120.496838 174.345993 
L 119.979032 174.545489 
L 118.583422 175.083125 
L 117.976842 175.316821 
L 117.377447 175.544011 
L 116.147097 176.01037 
L 115.986611 176.071219 
L 114.783021 176.331888 
L 113.310708 177.034815 
L 113.04823 177.160859 
L 113.013578 177.174098 
L 112.657592 177.30703 
L 112.786148 178.947456 
L 112.817803 178.942444 
L 112.849801 178.941738 
L 112.881628 178.945349 
L 112.912692 178.953253 
L 112.942395 178.965267 
L 112.97022 178.981205 
L 112.995686 179.000763 
L 113.018233 179.023599 
L 113.037532 179.049285 
L 113.053219 179.077354 
L 113.064925 179.107303 
L 113.072518 179.138539 
L 113.075826 179.170515 
L 113.097532 179.764767 
L 113.101846 179.883151 
L 113.174561 181.875036 
L 113.184479 182.146837 
L 113.189136 182.300277 
L 113.193755 182.453757 
L 113.198411 182.607158 
L 113.204804 182.923726 
L 113.209064 183.240228 
L 113.210712 183.556438 
L 113.207534 183.932051 
L 113.201747 184.307491 
L 113.194775 184.679675 
L 113.184209 185.050166 
L 113.168721 185.42438 
L 113.149511 185.796508 
L 113.126326 186.167547 
L 113.100815 186.540305 
L 112.826553 190.06375 
L 112.712267 191.73365 
L 113.925765 192.372124 
L 114.092343 192.459414 
L 115.037605 192.957023 
L 117.136981 194.066054 
L 119.047695 195.076481 
L 119.30514 195.212471 
L 119.73617 195.440155 
L 120.218459 195.69305 
L 125.569327 198.52292 
L 132.64696 202.263203 
L 136.851948 202.909404 
L 137.909705 203.072215 
L 138.568552 203.734764 
L 136.862827 204.563289 
L 135.476184 205.237122 
L 134.054189 205.933835 
L 132.671939 206.610589 
L 129.773609 208.018615 
L 126.110508 209.805437 
L 124.959482 210.366133 
L 124.908595 210.390922 
L 123.555759 211.042801 
L 123.347323 211.144422 
L 121.018777 212.2726 
L 117.647718 213.914383 
L 114.097757 215.643094 
L 111.869709 216.724934 
L 110.101664 217.586296 
L 108.173488 218.527319 
L 106.189432 219.48723 
L 103.923371 220.592695 
L 101.326425 221.858702 
L 101.339782 222.207512 
L 101.499937 222.207407 
L 103.481006 222.211037 
L 104.584949 222.253167 
L 104.966457 222.332904 
L 106.759813 222.707461 
L 109.867715 223.265408 
L 109.885874 223.2688 
L 110.094029 223.306188 
L 110.298395 223.343551 
L 110.91567 223.453837 
L 111.030031 223.474258 
L 111.044364 223.476122 
L 111.35822 223.515465 
L 111.609653 223.54732 
L 111.861519 223.579124 
L 112.011916 223.598067 
L 112.017105 223.59881 
L 112.112924 223.606627 
L 112.364708 223.626996 
L 112.658677 223.650407 
L 112.897899 223.670334 
L 113.307503 223.703292 
L 113.430253 223.713297 
L 113.682036 223.733669 
L 113.933434 223.754406 
L 113.956321 223.755863 
L 114.185217 223.774779 
L 114.437 223.795151 
L 114.605898 223.808852 
L 114.969757 223.838505 
L 115.255071 223.861459 
L 115.502504 223.881464 
L 115.754287 223.901839 
L 115.90385 223.914077 
L 116.005676 223.922223 
L 116.257468 223.942993 
L 116.508857 223.963378 
L 116.553222 223.966801 
L 116.597236 223.97039 
L 117.041639 224.011051 
L 117.240545 224.030152 
L 117.574431 224.060743 
L 117.825847 224.083899 
L 117.946622 224.095499 
L 118.077628 224.107442 
L 118.329044 224.130599 
L 118.580824 224.154104 
L 118.69214 224.164591 
L 119.113645 224.203404 
L 119.317285 224.22247 
L 119.359488 224.224601 
L 120.031467 224.25929 
L 120.100108 224.26287 
L 120.70028 224.293623 
L 121.047511 224.311506 
L 121.468522 224.333318 
L 121.994488 224.360512 
L 122.237159 224.373045 
L 122.475084 224.38518 
L 122.939498 224.189609 
L 123.022545 224.15437 
L 123.821861 223.817341 
L 123.883239 223.791695 
L 124.301271 223.615153 
L 125.084494 223.370617 
L 125.102272 223.364879 
L 125.818553 223.14114 
L 126.0453 223.070207 
L 126.482479 222.932618 
L 126.73296 222.854138 
L 126.98418 222.775245 
L 127.233871 222.696746 
L 127.310927 222.674754 
L 127.485091 222.617853 
L 127.736332 222.538169 
L 127.987361 222.461102 
L 128.199453 222.394448 
L 128.348661 222.340256 
L 128.717945 222.206908 
L 128.738055 222.199687 
L 129.086542 222.085845 
L 129.162729 222.060551 
L 129.458483 222.079471 
L 129.59698 222.087835 
L 129.828622 222.102784 
L 130.199136 222.125297 
L 130.463126 222.141276 
L 130.766182 222.160217 
L 131.250766 222.189637 
L 131.333623 222.195129 
L 131.704146 222.21804 
L 131.982559 222.234737 
L 132.074313 222.240922 
L 132.444837 222.263874 
L 132.714154 222.279845 
L 132.81535 222.286392 
L 133.38201 222.321686 
L 133.445315 222.324926 
L 133.94866 222.356585 
L 134.176079 222.36998 
L 134.318393 222.379521 
L 134.497514 222.390021 
L 134.689186 222.379478 
L 134.905099 222.367629 
L 135.058701 222.359322 
L 135.42782 222.339137 
L 135.633728 222.328128 
L 135.798912 222.318945 
L 136.362752 222.28858 
L 136.375045 222.287726 
L 136.780037 222.265796 
L 137.094889 222.24888 
L 137.183489 222.243826 
L 137.397596 222.23238 
L 137.58848 222.221858 
L 137.83258 222.208691 
L 137.991894 222.19993 
L 138.396136 222.177983 
L 138.561673 222.168715 
L 138.799539 222.155622 
L 139.204137 222.133667 
L 139.291229 222.128295 
L 139.306206 222.127454 
L 139.607939 222.106588 
L 140.01254 222.078303 
L 140.02002 222.077527 
L 140.416708 222.05003 
L 140.747904 222.026745 
L 140.899754 222.01619 
L 141.382801 221.982352 
L 141.629331 221.965212 
L 141.786969 221.954081 
L 142.191147 221.926207 
L 142.511545 221.903584 
L 142.595355 221.897937 
L 142.999524 221.869669 
L 143.664759 221.823118 
L 143.668297 221.822556 
L 144.062987 221.792385 
L 144.069675 221.79187 
L 144.65405 221.746895 
L 145.213996 221.703948 
L 145.618541 221.673301 
L 146.022328 221.642278 
L 146.505734 221.605278 
L 146.989169 221.567882 
L 147.392927 221.537259 
L 147.797503 221.50622 
L 148.280555 221.469233 
L 148.763952 221.431882 
L 149.168145 221.401252 
L 149.572288 221.370228 
L 149.976471 221.339203 
L 150.381048 221.308171 
L 151.019091 221.259893 
L 151.099859 221.252504 
L 151.189196 221.246884 
L 151.219613 221.244757 
L 151.270559 221.241221 
L 151.399792 221.232175 
L 151.461337 221.227905 
L 151.52154 221.223668 
L 151.597033 221.218425 
L 151.644116 221.215102 
L 151.740001 221.20774 
L 151.779592 221.204717 
L 151.807128 221.202582 
L 151.92668 221.193021 
L 152.109729 221.178351 
L 154.326523 221.003575 
L 156.853879 220.724029 
L 157.501136 222.715009 
L 157.980486 224.240984 
L 159.625436 229.356942 
L 160.0578 230.739811 
L 160.146751 231.524573 
L 160.339478 233.142613 
L 160.728571 236.658484 
L 160.780532 236.995752 
L 160.780175 237.06585 
L 160.805407 237.265569 
L 160.872272 237.742691 
L 161.055736 238.015103 
L 161.109878 238.279419 
L 161.151737 238.512334 
L 161.847119 242.067539 
L 162.107306 243.329817 
L 162.26841 244.130516 
L 162.322987 244.412988 
L 162.255009 244.751589 
L 162.218341 244.924358 
L 162.38025 245.750287 
L 162.472408 246.309232 
L 162.643272 247.081239 
L 162.794433 247.857723 
L 163.03701 248.917723 
L 163.234023 249.7857 
L 163.463946 251.06688 
L 163.525111 251.576436 
L 163.553816 251.815568 
L 163.599907 252.150367 
L 163.614439 252.274915 
L 163.646471 252.483532 
L 163.710321 252.545698 
L 164.144459 255.482003 
L 164.336905 256.764174 
L 165.010042 261.287364 
L 165.129659 262.149031 
L 165.136189 264.154457 
L 165.078242 268.329414 
L 165.046112 270.965867 
L 165.022678 272.527901 
L 165.018101 272.799068 
L 164.989649 274.488262 
L 164.957136 275.060013 
L 164.91279 275.194145 
L 164.771416 275.62207 
L 164.635848 276.025753 
L 164.33663 276.916793 
L 164.587221 277.447945 
L 164.829241 277.91183 
L 165.435449 279.136024 
L 165.602326 280.140085 
L 165.766994 281.155717 
L 165.767238 281.157959 
L 166.153675 284.714246 
L 166.23074 285.002307 
L 166.852025 290.222707 
L 166.89834 290.539693 
L 166.939521 290.835195 
L 166.948114 290.892094 
L 166.985644 291.106634 
L 166.998156 291.184684 
L 167.128607 291.998487 
L 169.511726 290.518504 
L 170.865703 289.724321 
L 172.119469 289.076991 
L 173.169097 288.597673 
L 173.453269 288.477673 
L 173.581794 288.426313 
L 174.225403 288.192246 
L 176.598152 287.361964 
L 177.959859 286.988216 
L 179.805982 286.571678 
L 183.399529 286.099045 
L 186.863635 285.754116 
L 188.093641 285.763236 
L 189.340605 285.778643 
L 191.787248 286.037076 
L 192.721155 286.219004 
L 193.846068 286.500053 
L 194.999095 286.834806 
L 195.289069 286.91321 
L 196.873792 287.514308 
L 198.220419 288.139169 
L 201.05022 289.918436 
L 204.211295 291.948151 
L 205.568689 292.601496 
L 206.971824 293.175112 
L 210.474682 294.380172 
L 213.246299 295.077154 
L 214.111626 295.038418 
L 217.376165 295.267418 
L 218.412511 295.279643 
L 218.743757 295.283163 
L 219.388515 295.291027 
L 221.549157 295.488 
L 223.865193 295.363832 
L 226.751059 294.927547 
L 228.520766 294.203665 
L 232.655763 292.845653 
L 234.319721 292.097842 
L 235.953356 291.458021 
L 236.283852 291.328575 
L 236.336036 291.308132 
L 237.000393 291.048014 
L 240.374337 288.275025 
L 242.321717 286.759664 
L 248.608629 281.956413 
L 249.169503 281.509873 
L 258.61853 272.926807 
L 262.391929 269.483468 
L 270.125999 262.436283 
L 275.518154 257.500677 
L 276.055171 256.786578 
L 283.718306 249.835546 
L 289.914231 244.593999 
L 293.185389 242.390826 
L 292.796681 241.622051 
L 293.600772 241.202934 
L 293.68726 241.109765 
L 293.79513 241.041342 
L 294.013563 240.919953 
L 295.060738 240.310254 
L 295.523817 240.039334 
L 295.909885 239.816744 
L 296.327843 239.573021 
L 296.747939 239.327053 
L 296.992814 239.171957 
L 297.406492 238.917205 
L 297.613525 238.782326 
L 297.806676 238.653045 
L 298.003206 238.518415 
L 298.205111 238.388927 
L 298.401641 238.254297 
L 298.608534 238.111051 
L 298.797938 237.97132 
L 298.972911 237.850772 
L 299.180157 237.700622 
L 299.378794 237.554055 
L 299.574621 237.407252 
L 299.768361 237.260764 
L 299.805191 237.232627 
L 299.892004 237.167696 
L 300.147013 236.974548 
L 300.369197 236.801421 
L 300.550802 236.656458 
L 300.76971 236.477467 
L 300.954124 236.32306 
L 301.100289 236.198593 
L 301.225641 236.089096 
L 301.381021 235.951522 
L 301.565088 235.786056 
L 301.643091 235.714562 
L 301.819568 235.552811 
L 302.321686 235.078963 
L 302.569327 234.83844 
L 302.814623 234.595479 
L 303.057576 234.3502 
L 303.36167 234.036359 
L 303.504928 233.884851 
L 303.958276 233.397593 
L 304.250711 233.072788 
L 304.539155 232.744398 
L 304.973565 232.233031 
L 305.259072 231.886842 
L 305.652196 231.396262 
L 305.920119 231.050826 
L 306.183744 230.702127 
L 306.44315 230.350204 
L 306.698221 229.995138 
L 306.996809 229.566816 
L 307.258207 229.181103 
L 307.538964 228.7543 
L 307.793268 228.356096 
L 308.038506 227.960826 
L 308.136102 227.80155 
L 308.235005 227.676932 
L 308.325024 227.534372 
L 308.37778 227.450544 
L 308.444057 227.343336 
L 308.502006 227.2496 
L 308.529021 227.204948 
L 308.632442 227.034007 
L 308.790656 226.728814 
L 308.829647 226.649645 
L 308.939056 226.427495 
L 309.035005 226.222213 
L 309.073519 226.14449 
L 309.132778 226.024012 
L 309.188643 225.901872 
L 309.241 225.778232 
L 309.289849 225.653092 
L 309.335116 225.526651 
L 309.376802 225.398988 
L 309.482707 224.976116 
L 309.555239 224.686504 
L 309.763026 223.857135 
L 310.241629 222.805921 
L 310.45947 222.327453 
L 310.740537 221.71012 
L 311.519084 220.000148 
L 311.698121 219.606923 
L 312.07181 218.786181 
L 312.920605 216.921981 
L 314.020146 214.507128 
L 314.543601 213.656172 
L 314.701445 213.309024 
L 315.088274 212.458304 
L 315.685501 211.144849 
L 316.276869 209.844356 
L 317.245054 207.715267 
L 318.463047 205.036774 
L 318.956072 203.952635 
L 319.168713 203.485052 
L 319.959174 201.746848 
L 320.17854 201.264472 
L 320.203619 201.209348 
L 320.274369 201.159444 
L 320.347132 200.998048 
L 320.465092 200.747178 
L 320.549209 200.546336 
L 320.530311 200.482509 
L 320.649126 200.220935 
L 320.669322 200.176453 
L 320.980753 199.490737 
L 321.788626 197.711968 
L 322.480089 196.189535 
L 323.352265 194.269245 
L 324.203819 192.394306 
L 325.064052 190.523978 
L 325.458853 189.666755 
L 325.521355 189.52318 
L 325.584638 189.504876 
L 327.388089 185.574504 
L 327.590265 185.133901 
L 327.544803 184.995701 
L 327.592664 184.893305 
L 328.07731 183.856728 
L 328.251276 183.484648 
L 328.728259 182.603254 
L 329.408901 181.3686 
L 329.551959 181.16551 
L 329.825434 180.797226 
L 330.023906 180.529948 
L 330.149166 180.35751 
L 330.371783 179.987408 
L 330.986596 179.154149 
L 331.983993 179.714631 
L 332.318072 179.249333 
L 332.652673 178.783311 
" clip-path="url(#p9464b6e2cb)" style="fill: #1f77b4"/>
   </g>
   <g id="matplotlib.axis_1">
    <g id="xtick_1">
     <g id="line2d_1">
      <defs>
       <path id="m78118c3d3b" d="M 0 0 
L 0 3.5 
" style="stroke: #000000; stroke-width: 0.8"/>
      </defs>
      <g>
       <use xlink:href="#m78118c3d3b" x="140.880938" y="307.584" style="stroke: #000000; stroke-width: 0.8"/>
      </g>
     </g>
     <g id="text_1">
      <!-- 13.24 -->
      <g transform="translate(126.566876 322.182437) scale(0.1 -0.1)">
       <defs>
        <path id="DejaVuSans-31" d="M 794 531 
L 1825 531 
L 1825 4091 
L 703 3866 
L 703 4441 
L 1819 4666 
L 2450 4666 
L 2450 531 
L 3481 531 
L 3481 0 
L 794 0 
L 794 531 
z
" transform="scale(0.015625)"/>
        <path id="DejaVuSans-33" d="M 2597 2516 
Q 3050 2419 3304 2112 
Q 3559 1806 3559 1356 
Q 3559 666 3084 287 
Q 2609 -91 1734 -91 
Q 1441 -91 1130 -33 
Q 819 25 488 141 
L 488 750 
Q 750 597 1062 519 
Q 1375 441 1716 441 
Q 2309 441 2620 675 
Q 2931 909 2931 1356 
Q 2931 1769 2642 2001 
Q 2353 2234 1838 2234 
L 1294 2234 
L 1294 2753 
L 1863 2753 
Q 2328 2753 2575 2939 
Q 2822 3125 2822 3475 
Q 2822 3834 2567 4026 
Q 2313 4219 1838 4219 
Q 1578 4219 1281 4162 
Q 984 4106 628 3988 
L 628 4550 
Q 988 4650 1302 4700 
Q 1616 4750 1894 4750 
Q 2613 4750 3031 4423 
Q 3450 4097 3450 3541 
Q 3450 3153 3228 2886 
Q 3006 2619 2597 2516 
z
" transform="scale(0.015625)"/>
        <path id="DejaVuSans-2e" d="M 684 794 
L 1344 794 
L 1344 0 
L 684 0 
L 684 794 
z
" transform="scale(0.015625)"/>
        <path id="DejaVuSans-32" d="M 1228 531 
L 3431 531 
L 3431 0 
L 469 0 
L 469 531 
Q 828 903 1448 1529 
Q 2069 2156 2228 2338 
Q 2531 2678 2651 2914 
Q 2772 3150 2772 3378 
Q 2772 3750 2511 3984 
Q 2250 4219 1831 4219 
Q 1534 4219 1204 4116 
Q 875 4013 500 3803 
L 500 4441 
Q 881 4594 1212 4672 
Q 1544 4750 1819 4750 
Q 2544 4750 2975 4387 
Q 3406 4025 3406 3419 
Q 3406 3131 3298 2873 
Q 3191 2616 2906 2266 
Q 2828 2175 2409 1742 
Q 1991 1309 1228 531 
z
" transform="scale(0.015625)"/>
        <path id="DejaVuSans-34" d="M 2419 4116 
L 825 1625 
L 2419 1625 
L 2419 4116 
z
M 2253 4666 
L 3047 4666 
L 3047 1625 
L 3713 1625 
L 3713 1100 
L 3047 1100 
L 3047 0 
L 2419 0 
L 2419 1100 
L 313 1100 
L 313 1709 
L 2253 4666 
z
" transform="scale(0.015625)"/>
       </defs>
       <use xlink:href="#DejaVuSans-31"/>
       <use xlink:href="#DejaVuSans-33" x="63.623047"/>
       <use xlink:href="#DejaVuSans-2e" x="127.246094"/>
       <use xlink:href="#DejaVuSans-32" x="159.033203"/>
       <use xlink:href="#DejaVuSans-34" x="222.65625"/>
      </g>
     </g>
    </g>
    <g id="xtick_2">
     <g id="line2d_2">
      <g>
       <use xlink:href="#m78118c3d3b" x="194.553715" y="307.584" style="stroke: #000000; stroke-width: 0.8"/>
      </g>
     </g>
     <g id="text_2">
      <!-- 13.26 -->
      <g transform="translate(180.239653 322.182437) scale(0.1 -0.1)">
       <defs>
        <path id="DejaVuSans-36" d="M 2113 2584 
Q 1688 2584 1439 2293 
Q 1191 2003 1191 1497 
Q 1191 994 1439 701 
Q 1688 409 2113 409 
Q 2538 409 2786 701 
Q 3034 994 3034 1497 
Q 3034 2003 2786 2293 
Q 2538 2584 2113 2584 
z
M 3366 4563 
L 3366 3988 
Q 3128 4100 2886 4159 
Q 2644 4219 2406 4219 
Q 1781 4219 1451 3797 
Q 1122 3375 1075 2522 
Q 1259 2794 1537 2939 
Q 1816 3084 2150 3084 
Q 2853 3084 3261 2657 
Q 3669 2231 3669 1497 
Q 3669 778 3244 343 
Q 2819 -91 2113 -91 
Q 1303 -91 875 529 
Q 447 1150 447 2328 
Q 447 3434 972 4092 
Q 1497 4750 2381 4750 
Q 2619 4750 2861 4703 
Q 3103 4656 3366 4563 
z
" transform="scale(0.015625)"/>
       </defs>
       <use xlink:href="#DejaVuSans-31"/>
       <use xlink:href="#DejaVuSans-33" x="63.623047"/>
       <use xlink:href="#DejaVuSans-2e" x="127.246094"/>
       <use xlink:href="#DejaVuSans-32" x="159.033203"/>
       <use xlink:href="#DejaVuSans-36" x="222.65625"/>
      </g>
     </g>
    </g>
    <g id="xtick_3">
     <g id="line2d_3">
      <g>
       <use xlink:href="#m78118c3d3b" x="248.226492" y="307.584" style="stroke: #000000; stroke-width: 0.8"/>
      </g>
     </g>
     <g id="text_3">
      <!-- 13.28 -->
      <g transform="translate(233.91243 322.182437) scale(0.1 -0.1)">
       <defs>
        <path id="DejaVuSans-38" d="M 2034 2216 
Q 1584 2216 1326 1975 
Q 1069 1734 1069 1313 
Q 1069 891 1326 650 
Q 1584 409 2034 409 
Q 2484 409 2743 651 
Q 3003 894 3003 1313 
Q 3003 1734 2745 1975 
Q 2488 2216 2034 2216 
z
M 1403 2484 
Q 997 2584 770 2862 
Q 544 3141 544 3541 
Q 544 4100 942 4425 
Q 1341 4750 2034 4750 
Q 2731 4750 3128 4425 
Q 3525 4100 3525 3541 
Q 3525 3141 3298 2862 
Q 3072 2584 2669 2484 
Q 3125 2378 3379 2068 
Q 3634 1759 3634 1313 
Q 3634 634 3220 271 
Q 2806 -91 2034 -91 
Q 1263 -91 848 271 
Q 434 634 434 1313 
Q 434 1759 690 2068 
Q 947 2378 1403 2484 
z
M 1172 3481 
Q 1172 3119 1398 2916 
Q 1625 2713 2034 2713 
Q 2441 2713 2670 2916 
Q 2900 3119 2900 3481 
Q 2900 3844 2670 4047 
Q 2441 4250 2034 4250 
Q 1625 4250 1398 4047 
Q 1172 3844 1172 3481 
z
" transform="scale(0.015625)"/>
       </defs>
       <use xlink:href="#DejaVuSans-31"/>
       <use xlink:href="#DejaVuSans-33" x="63.623047"/>
       <use xlink:href="#DejaVuSans-2e" x="127.246094"/>
       <use xlink:href="#DejaVuSans-32" x="159.033203"/>
       <use xlink:href="#DejaVuSans-38" x="222.65625"/>
      </g>
     </g>
    </g>
    <g id="xtick_4">
     <g id="line2d_4">
      <g>
       <use xlink:href="#m78118c3d3b" x="301.899269" y="307.584" style="stroke: #000000; stroke-width: 0.8"/>
      </g>
     </g>
     <g id="text_4">
      <!-- 13.30 -->
      <g transform="translate(287.585207 322.182437) scale(0.1 -0.1)">
       <defs>
        <path id="DejaVuSans-30" d="M 2034 4250 
Q 1547 4250 1301 3770 
Q 1056 3291 1056 2328 
Q 1056 1369 1301 889 
Q 1547 409 2034 409 
Q 2525 409 2770 889 
Q 3016 1369 3016 2328 
Q 3016 3291 2770 3770 
Q 2525 4250 2034 4250 
z
M 2034 4750 
Q 2819 4750 3233 4129 
Q 3647 3509 3647 2328 
Q 3647 1150 3233 529 
Q 2819 -91 2034 -91 
Q 1250 -91 836 529 
Q 422 1150 422 2328 
Q 422 3509 836 4129 
Q 1250 4750 2034 4750 
z
" transform="scale(0.015625)"/>
       </defs>
       <use xlink:href="#DejaVuSans-31"/>
       <use xlink:href="#DejaVuSans-33" x="63.623047"/>
       <use xlink:href="#DejaVuSans-2e" x="127.246094"/>
       <use xlink:href="#DejaVuSans-33" x="159.033203"/>
       <use xlink:href="#DejaVuSans-30" x="222.65625"/>
      </g>
     </g>
    </g>
    <g id="xtick_5">
     <g id="line2d_5">
      <g>
       <use xlink:href="#m78118c3d3b" x="355.572046" y="307.584" style="stroke: #000000; stroke-width: 0.8"/>
      </g>
     </g>
     <g id="text_5">
      <!-- 13.32 -->
      <g transform="translate(341.257984 322.182437) scale(0.1 -0.1)">
       <use xlink:href="#DejaVuSans-31"/>
       <use xlink:href="#DejaVuSans-33" x="63.623047"/>
       <use xlink:href="#DejaVuSans-2e" x="127.246094"/>
       <use xlink:href="#DejaVuSans-33" x="159.033203"/>
       <use xlink:href="#DejaVuSans-32" x="222.65625"/>
      </g>
     </g>
    </g>
   </g>
   <g id="matplotlib.axis_2">
    <g id="ytick_1">
     <g id="line2d_6">
      <defs>
       <path id="m8c8f768f9a" d="M 0 0 
L -3.5 0 
" style="stroke: #000000; stroke-width: 0.8"/>
      </defs>
      <g>
       <use xlink:href="#m8c8f768f9a" x="87.843067" y="269.911433" style="stroke: #000000; stroke-width: 0.8"/>
      </g>
     </g>
     <g id="text_6">
      <!-- 52.41 -->
      <g transform="translate(52.214942 273.710652) scale(0.1 -0.1)">
       <defs>
        <path id="DejaVuSans-35" d="M 691 4666 
L 3169 4666 
L 3169 4134 
L 1269 4134 
L 1269 2991 
Q 1406 3038 1543 3061 
Q 1681 3084 1819 3084 
Q 2600 3084 3056 2656 
Q 3513 2228 3513 1497 
Q 3513 744 3044 326 
Q 2575 -91 1722 -91 
Q 1428 -91 1123 -41 
Q 819 9 494 109 
L 494 744 
Q 775 591 1075 516 
Q 1375 441 1709 441 
Q 2250 441 2565 725 
Q 2881 1009 2881 1497 
Q 2881 1984 2565 2268 
Q 2250 2553 1709 2553 
Q 1456 2553 1204 2497 
Q 953 2441 691 2322 
L 691 4666 
z
" transform="scale(0.015625)"/>
       </defs>
       <use xlink:href="#DejaVuSans-35"/>
       <use xlink:href="#DejaVuSans-32" x="63.623047"/>
       <use xlink:href="#DejaVuSans-2e" x="127.246094"/>
       <use xlink:href="#DejaVuSans-34" x="159.033203"/>
       <use xlink:href="#DejaVuSans-31" x="222.65625"/>
      </g>
     </g>
    </g>
    <g id="ytick_2">
     <g id="line2d_7">
      <g>
       <use xlink:href="#m8c8f768f9a" x="87.843067" y="225.896221" style="stroke: #000000; stroke-width: 0.8"/>
      </g>
     </g>
     <g id="text_7">
      <!-- 52.42 -->
      <g transform="translate(52.214942 229.69544) scale(0.1 -0.1)">
       <use xlink:href="#DejaVuSans-35"/>
       <use xlink:href="#DejaVuSans-32" x="63.623047"/>
       <use xlink:href="#DejaVuSans-2e" x="127.246094"/>
       <use xlink:href="#DejaVuSans-34" x="159.033203"/>
       <use xlink:href="#DejaVuSans-32" x="222.65625"/>
      </g>
     </g>
    </g>
    <g id="ytick_3">
     <g id="line2d_8">
      <g>
       <use xlink:href="#m8c8f768f9a" x="87.843067" y="181.881009" style="stroke: #000000; stroke-width: 0.8"/>
      </g>
     </g>
     <g id="text_8">
      <!-- 52.43 -->
      <g transform="translate(52.214942 185.680228) scale(0.1 -0.1)">
       <use xlink:href="#DejaVuSans-35"/>
       <use xlink:href="#DejaVuSans-32" x="63.623047"/>
       <use xlink:href="#DejaVuSans-2e" x="127.246094"/>
       <use xlink:href="#DejaVuSans-34" x="159.033203"/>
       <use xlink:href="#DejaVuSans-33" x="222.65625"/>
      </g>
     </g>
    </g>
    <g id="ytick_4">
     <g id="line2d_9">
      <g>
       <use xlink:href="#m8c8f768f9a" x="87.843067" y="137.865797" style="stroke: #000000; stroke-width: 0.8"/>
      </g>
     </g>
     <g id="text_9">
      <!-- 52.44 -->
      <g transform="translate(52.214942 141.665016) scale(0.1 -0.1)">
       <use xlink:href="#DejaVuSans-35"/>
       <use xlink:href="#DejaVuSans-32" x="63.623047"/>
       <use xlink:href="#DejaVuSans-2e" x="127.246094"/>
       <use xlink:href="#DejaVuSans-34" x="159.033203"/>
       <use xlink:href="#DejaVuSans-34" x="222.65625"/>
      </g>
     </g>
    </g>
    <g id="ytick_5">
     <g id="line2d_10">
      <g>
       <use xlink:href="#m8c8f768f9a" x="87.843067" y="93.850585" style="stroke: #000000; stroke-width: 0.8"/>
      </g>
     </g>
     <g id="text_10">
      <!-- 52.45 -->
      <g transform="translate(52.214942 97.649804) scale(0.1 -0.1)">
       <use xlink:href="#DejaVuSans-35"/>
       <use xlink:href="#DejaVuSans-32" x="63.623047"/>
       <use xlink:href="#DejaVuSans-2e" x="127.246094"/>
       <use xlink:href="#DejaVuSans-34" x="159.033203"/>
       <use xlink:href="#DejaVuSans-35" x="222.65625"/>
      </g>
     </g>
    </g>
    <g id="ytick_6">
     <g id="line2d_11">
      <g>
       <use xlink:href="#m8c8f768f9a" x="87.843067" y="49.835373" style="stroke: #000000; stroke-width: 0.8"/>
      </g>
     </g>
     <g id="text_11">
      <!-- 52.46 -->
      <g transform="translate(52.214942 53.634592) scale(0.1 -0.1)">
       <use xlink:href="#DejaVuSans-35"/>
       <use xlink:href="#DejaVuSans-32" x="63.623047"/>
       <use xlink:href="#DejaVuSans-2e" x="127.246094"/>
       <use xlink:href="#DejaVuSans-34" x="159.033203"/>
       <use xlink:href="#DejaVuSans-36" x="222.65625"/>
      </g>
     </g>
    </g>
   </g>
   <g id="patch_3">
    <path d="M 87.843067 307.584 
L 87.843067 41.472 
" style="fill: none; stroke: #000000; stroke-width: 0.8; stroke-linejoin: miter; stroke-linecap: square"/>
   </g>
   <g id="patch_4">
    <path d="M 384.476933 307.584 
L 384.476933 41.472 
" style="fill: none; stroke: #000000; stroke-width: 0.8; stroke-linejoin: miter; stroke-linecap: square"/>
   </g>
   <g id="patch_5">
    <path d="M 87.843067 307.584 
L 384.476933 307.584 
" style="fill: none; stroke: #000000; stroke-width: 0.8; stroke-linejoin: miter; stroke-linecap: square"/>
   </g>
   <g id="patch_6">
    <path d="M 87.843067 41.472 
L 384.476933 41.472 
" style="fill: none; stroke: #000000; stroke-width: 0.8; stroke-linejoin: miter; stroke-linecap: square"/>
   </g>
   <g id="text_12">
    <!-- Zehlendorf_Süd_Lichterfelde_West -->
    <g transform="translate(143.354674 191.489442) scale(0.12 -0.12)">
     <defs>
      <path id="DejaVuSans-5a" d="M 359 4666 
L 4025 4666 
L 4025 4184 
L 1075 531 
L 4097 531 
L 4097 0 
L 288 0 
L 288 481 
L 3238 4134 
L 359 4134 
L 359 4666 
z
" transform="scale(0.015625)"/>
      <path id="DejaVuSans-65" d="M 3597 1894 
L 3597 1613 
L 953 1613 
Q 991 1019 1311 708 
Q 1631 397 2203 397 
Q 2534 397 2845 478 
Q 3156 559 3463 722 
L 3463 178 
Q 3153 47 2828 -22 
Q 2503 -91 2169 -91 
Q 1331 -91 842 396 
Q 353 884 353 1716 
Q 353 2575 817 3079 
Q 1281 3584 2069 3584 
Q 2775 3584 3186 3129 
Q 3597 2675 3597 1894 
z
M 3022 2063 
Q 3016 2534 2758 2815 
Q 2500 3097 2075 3097 
Q 1594 3097 1305 2825 
Q 1016 2553 972 2059 
L 3022 2063 
z
" transform="scale(0.015625)"/>
      <path id="DejaVuSans-68" d="M 3513 2113 
L 3513 0 
L 2938 0 
L 2938 2094 
Q 2938 2591 2744 2837 
Q 2550 3084 2163 3084 
Q 1697 3084 1428 2787 
Q 1159 2491 1159 1978 
L 1159 0 
L 581 0 
L 581 4863 
L 1159 4863 
L 1159 2956 
Q 1366 3272 1645 3428 
Q 1925 3584 2291 3584 
Q 2894 3584 3203 3211 
Q 3513 2838 3513 2113 
z
" transform="scale(0.015625)"/>
      <path id="DejaVuSans-6c" d="M 603 4863 
L 1178 4863 
L 1178 0 
L 603 0 
L 603 4863 
z
" transform="scale(0.015625)"/>
      <path id="DejaVuSans-6e" d="M 3513 2113 
L 3513 0 
L 2938 0 
L 2938 2094 
Q 2938 2591 2744 2837 
Q 2550 3084 2163 3084 
Q 1697 3084 1428 2787 
Q 1159 2491 1159 1978 
L 1159 0 
L 581 0 
L 581 3500 
L 1159 3500 
L 1159 2956 
Q 1366 3272 1645 3428 
Q 1925 3584 2291 3584 
Q 2894 3584 3203 3211 
Q 3513 2838 3513 2113 
z
" transform="scale(0.015625)"/>
      <path id="DejaVuSans-64" d="M 2906 2969 
L 2906 4863 
L 3481 4863 
L 3481 0 
L 2906 0 
L 2906 525 
Q 2725 213 2448 61 
Q 2172 -91 1784 -91 
Q 1150 -91 751 415 
Q 353 922 353 1747 
Q 353 2572 751 3078 
Q 1150 3584 1784 3584 
Q 2172 3584 2448 3432 
Q 2725 3281 2906 2969 
z
M 947 1747 
Q 947 1113 1208 752 
Q 1469 391 1925 391 
Q 2381 391 2643 752 
Q 2906 1113 2906 1747 
Q 2906 2381 2643 2742 
Q 2381 3103 1925 3103 
Q 1469 3103 1208 2742 
Q 947 2381 947 1747 
z
" transform="scale(0.015625)"/>
      <path id="DejaVuSans-6f" d="M 1959 3097 
Q 1497 3097 1228 2736 
Q 959 2375 959 1747 
Q 959 1119 1226 758 
Q 1494 397 1959 397 
Q 2419 397 2687 759 
Q 2956 1122 2956 1747 
Q 2956 2369 2687 2733 
Q 2419 3097 1959 3097 
z
M 1959 3584 
Q 2709 3584 3137 3096 
Q 3566 2609 3566 1747 
Q 3566 888 3137 398 
Q 2709 -91 1959 -91 
Q 1206 -91 779 398 
Q 353 888 353 1747 
Q 353 2609 779 3096 
Q 1206 3584 1959 3584 
z
" transform="scale(0.015625)"/>
      <path id="DejaVuSans-72" d="M 2631 2963 
Q 2534 3019 2420 3045 
Q 2306 3072 2169 3072 
Q 1681 3072 1420 2755 
Q 1159 2438 1159 1844 
L 1159 0 
L 581 0 
L 581 3500 
L 1159 3500 
L 1159 2956 
Q 1341 3275 1631 3429 
Q 1922 3584 2338 3584 
Q 2397 3584 2469 3576 
Q 2541 3569 2628 3553 
L 2631 2963 
z
" transform="scale(0.015625)"/>
      <path id="DejaVuSans-66" d="M 2375 4863 
L 2375 4384 
L 1825 4384 
Q 1516 4384 1395 4259 
Q 1275 4134 1275 3809 
L 1275 3500 
L 2222 3500 
L 2222 3053 
L 1275 3053 
L 1275 0 
L 697 0 
L 697 3053 
L 147 3053 
L 147 3500 
L 697 3500 
L 697 3744 
Q 697 4328 969 4595 
Q 1241 4863 1831 4863 
L 2375 4863 
z
" transform="scale(0.015625)"/>
      <path id="DejaVuSans-5f" d="M 3263 -1063 
L 3263 -1509 
L -63 -1509 
L -63 -1063 
L 3263 -1063 
z
" transform="scale(0.015625)"/>
      <path id="DejaVuSans-53" d="M 3425 4513 
L 3425 3897 
Q 3066 4069 2747 4153 
Q 2428 4238 2131 4238 
Q 1616 4238 1336 4038 
Q 1056 3838 1056 3469 
Q 1056 3159 1242 3001 
Q 1428 2844 1947 2747 
L 2328 2669 
Q 3034 2534 3370 2195 
Q 3706 1856 3706 1288 
Q 3706 609 3251 259 
Q 2797 -91 1919 -91 
Q 1588 -91 1214 -16 
Q 841 59 441 206 
L 441 856 
Q 825 641 1194 531 
Q 1563 422 1919 422 
Q 2459 422 2753 634 
Q 3047 847 3047 1241 
Q 3047 1584 2836 1778 
Q 2625 1972 2144 2069 
L 1759 2144 
Q 1053 2284 737 2584 
Q 422 2884 422 3419 
Q 422 4038 858 4394 
Q 1294 4750 2059 4750 
Q 2388 4750 2728 4690 
Q 3069 4631 3425 4513 
z
" transform="scale(0.015625)"/>
      <path id="DejaVuSans-fc" d="M 544 1381 
L 544 3500 
L 1119 3500 
L 1119 1403 
Q 1119 906 1312 657 
Q 1506 409 1894 409 
Q 2359 409 2629 706 
Q 2900 1003 2900 1516 
L 2900 3500 
L 3475 3500 
L 3475 0 
L 2900 0 
L 2900 538 
Q 2691 219 2414 64 
Q 2138 -91 1772 -91 
Q 1169 -91 856 284 
Q 544 659 544 1381 
z
M 1991 3584 
L 1991 3584 
z
M 2278 4850 
L 2912 4850 
L 2912 4219 
L 2278 4219 
L 2278 4850 
z
M 1056 4850 
L 1690 4850 
L 1690 4219 
L 1056 4219 
L 1056 4850 
z
" transform="scale(0.015625)"/>
      <path id="DejaVuSans-4c" d="M 628 4666 
L 1259 4666 
L 1259 531 
L 3531 531 
L 3531 0 
L 628 0 
L 628 4666 
z
" transform="scale(0.015625)"/>
      <path id="DejaVuSans-69" d="M 603 3500 
L 1178 3500 
L 1178 0 
L 603 0 
L 603 3500 
z
M 603 4863 
L 1178 4863 
L 1178 4134 
L 603 4134 
L 603 4863 
z
" transform="scale(0.015625)"/>
      <path id="DejaVuSans-63" d="M 3122 3366 
L 3122 2828 
Q 2878 2963 2633 3030 
Q 2388 3097 2138 3097 
Q 1578 3097 1268 2742 
Q 959 2388 959 1747 
Q 959 1106 1268 751 
Q 1578 397 2138 397 
Q 2388 397 2633 464 
Q 2878 531 3122 666 
L 3122 134 
Q 2881 22 2623 -34 
Q 2366 -91 2075 -91 
Q 1284 -91 818 406 
Q 353 903 353 1747 
Q 353 2603 823 3093 
Q 1294 3584 2113 3584 
Q 2378 3584 2631 3529 
Q 2884 3475 3122 3366 
z
" transform="scale(0.015625)"/>
      <path id="DejaVuSans-74" d="M 1172 4494 
L 1172 3500 
L 2356 3500 
L 2356 3053 
L 1172 3053 
L 1172 1153 
Q 1172 725 1289 603 
Q 1406 481 1766 481 
L 2356 481 
L 2356 0 
L 1766 0 
Q 1100 0 847 248 
Q 594 497 594 1153 
L 594 3053 
L 172 3053 
L 172 3500 
L 594 3500 
L 594 4494 
L 1172 4494 
z
" transform="scale(0.015625)"/>
      <path id="DejaVuSans-57" d="M 213 4666 
L 850 4666 
L 1831 722 
L 2809 4666 
L 3519 4666 
L 4500 722 
L 5478 4666 
L 6119 4666 
L 4947 0 
L 4153 0 
L 3169 4050 
L 2175 0 
L 1381 0 
L 213 4666 
z
" transform="scale(0.015625)"/>
      <path id="DejaVuSans-73" d="M 2834 3397 
L 2834 2853 
Q 2591 2978 2328 3040 
Q 2066 3103 1784 3103 
Q 1356 3103 1142 2972 
Q 928 2841 928 2578 
Q 928 2378 1081 2264 
Q 1234 2150 1697 2047 
L 1894 2003 
Q 2506 1872 2764 1633 
Q 3022 1394 3022 966 
Q 3022 478 2636 193 
Q 2250 -91 1575 -91 
Q 1294 -91 989 -36 
Q 684 19 347 128 
L 347 722 
Q 666 556 975 473 
Q 1284 391 1588 391 
Q 1994 391 2212 530 
Q 2431 669 2431 922 
Q 2431 1156 2273 1281 
Q 2116 1406 1581 1522 
L 1381 1569 
Q 847 1681 609 1914 
Q 372 2147 372 2553 
Q 372 3047 722 3315 
Q 1072 3584 1716 3584 
Q 2034 3584 2315 3537 
Q 2597 3491 2834 3397 
z
" transform="scale(0.015625)"/>
     </defs>
     <use xlink:href="#DejaVuSans-5a"/>
     <use xlink:href="#DejaVuSans-65" x="68.505859"/>
     <use xlink:href="#DejaVuSans-68" x="130.029297"/>
     <use xlink:href="#DejaVuSans-6c" x="193.408203"/>
     <use xlink:href="#DejaVuSans-65" x="221.191406"/>
     <use xlink:href="#DejaVuSans-6e" x="282.714844"/>
     <use xlink:href="#DejaVuSans-64" x="346.09375"/>
     <use xlink:href="#DejaVuSans-6f" x="409.570312"/>
     <use xlink:href="#DejaVuSans-72" x="470.751953"/>
     <use xlink:href="#DejaVuSans-66" x="511.865234"/>
     <use xlink:href="#DejaVuSans-5f" x="547.070312"/>
     <use xlink:href="#DejaVuSans-53" x="597.070312"/>
     <use xlink:href="#DejaVuSans-fc" x="660.546875"/>
     <use xlink:href="#DejaVuSans-64" x="723.925781"/>
     <use xlink:href="#DejaVuSans-5f" x="787.402344"/>
     <use xlink:href="#DejaVuSans-4c" x="837.402344"/>
     <use xlink:href="#DejaVuSans-69" x="893.115234"/>
     <use xlink:href="#DejaVuSans-63" x="920.898438"/>
     <use xlink:href="#DejaVuSans-68" x="975.878906"/>
     <use xlink:href="#DejaVuSans-74" x="1039.257812"/>
     <use xlink:href="#DejaVuSans-65" x="1078.466797"/>
     <use xlink:href="#DejaVuSans-72" x="1139.990234"/>
     <use xlink:href="#DejaVuSans-66" x="1181.103516"/>
     <use xlink:href="#DejaVuSans-65" x="1216.308594"/>
     <use xlink:href="#DejaVuSans-6c" x="1277.832031"/>
     <use xlink:href="#DejaVuSans-64" x="1305.615234"/>
     <use xlink:href="#DejaVuSans-65" x="1369.091797"/>
     <use xlink:href="#DejaVuSans-5f" x="1430.615234"/>
     <use xlink:href="#DejaVuSans-57" x="1480.615234"/>
     <use xlink:href="#DejaVuSans-65" x="1573.617188"/>
     <use xlink:href="#DejaVuSans-73" x="1635.140625"/>
     <use xlink:href="#DejaVuSans-74" x="1687.240234"/>
    </g>
   </g>
  </g>
 </g>
 <defs>
  <clipPath id="p9464b6e2cb">
   <rect x="87.843067" y="41.472" width="296.633866" height="266.112"/>
  </clipPath>
 </defs>
</svg>
