<?xml version="1.0" encoding="utf-8" standalone="no"?>
<!DOCTYPE svg PUBLIC "-//W3C//DTD SVG 1.1//EN"
  "http://www.w3.org/Graphics/SVG/1.1/DTD/svg11.dtd">
<svg xmlns:xlink="http://www.w3.org/1999/xlink" width="720pt" height="720pt" viewBox="0 0 720 720" xmlns="http://www.w3.org/2000/svg" version="1.1">
 <metadata>
  <rdf:RDF xmlns:dc="http://purl.org/dc/elements/1.1/" xmlns:cc="http://creativecommons.org/ns#" xmlns:rdf="http://www.w3.org/1999/02/22-rdf-syntax-ns#">
   <cc:Work>
    <dc:type rdf:resource="http://purl.org/dc/dcmitype/StillImage"/>
    <dc:date>2024-10-17T11:36:13.564598</dc:date>
    <dc:format>image/svg+xml</dc:format>
    <dc:creator>
     <cc:Agent>
      <dc:title>Matplotlib v3.9.2, https://matplotlib.org/</dc:title>
     </cc:Agent>
    </dc:creator>
   </cc:Work>
  </rdf:RDF>
 </metadata>
 <defs>
  <style type="text/css">*{stroke-linejoin: round; stroke-linecap: butt}</style>
 </defs>
 <g id="figure_1">
  <g id="patch_1">
   <path d="M 0 720 
L 720 720 
L 720 0 
L 0 0 
z
" style="fill: #ffffff"/>
  </g>
  <g id="axes_1">
   <g id="patch_2">
    <path d="M 90 534.611332 
L 648 534.611332 
L 648 192.588668 
L 90 192.588668 
z
" style="fill: #ffffff"/>
   </g>
   <g id="PatchCollection_1">
    <path d="M 607.696527 228.801289 
L 607.428477 228.723763 
L 604.787167 227.962678 
L 595.71124 225.297993 
L 595.48661 225.233932 
L 595.260926 225.169571 
L 595.023682 225.090935 
L 594.353153 224.867481 
L 593.714112 224.637983 
L 593.079346 224.394194 
L 592.468554 224.170573 
L 591.851485 223.961511 
L 591.247972 223.760362 
L 590.196851 223.410189 
L 589.689872 223.241597 
L 588.958972 222.998008 
L 587.896565 222.643894 
L 584.065827 221.367516 
L 583.399138 221.145364 
L 582.611173 220.881974 
L 582.008629 220.681227 
L 581.40378 220.480078 
L 580.834093 220.290282 
L 580.285643 220.107566 
L 578.078552 219.372759 
L 578.002153 220.124896 
L 577.680446 220.568008 
L 577.379507 220.982515 
L 576.885466 220.313548 
L 576.401646 219.658421 
L 575.616585 218.575044 
L 575.128206 218.734653 
L 574.158425 219.051503 
L 572.848789 219.478342 
L 572.245711 219.674883 
L 571.792158 219.82354 
L 571.117222 220.044189 
L 570.087705 220.380773 
L 569.128543 220.694116 
L 568.429331 220.922545 
L 567.977815 221.067195 
L 566.209952 221.658988 
L 565.903554 221.759328 
L 564.901284 222.088532 
L 563.566772 222.524588 
L 562.869897 222.754753 
L 562.001693 223.041416 
L 561.865056 223.084358 
L 561.514949 223.194415 
L 559.792799 223.682561 
L 559.150285 223.864643 
L 558.594889 224.02235 
L 558.150286 224.148401 
L 557.682008 224.281833 
L 557.345658 224.382307 
L 556.568144 224.539112 
L 555.314204 224.77669 
L 555.174462 224.803103 
L 554.27073 224.973898 
L 553.667885 225.088297 
L 552.683679 225.274286 
L 551.950142 225.413594 
L 551.851905 225.506221 
L 551.869535 225.140921 
L 551.059766 225.268108 
L 551.071319 225.011898 
L 549.861923 225.2056 
L 549.860521 225.245302 
L 548.449275 225.477638 
L 547.258044 225.672275 
L 546.848735 225.740961 
L 546.025776 225.876563 
L 544.607986 226.109733 
L 543.845631 226.235451 
L 543.301021 226.32494 
L 542.098237 226.523116 
L 541.274977 226.658718 
L 540.173668 226.839765 
L 540.000501 226.868214 
L 539.765995 226.910154 
L 538.898291 227.051565 
L 537.690766 227.24834 
L 537.693838 227.226368 
L 534.712071 227.689872 
L 530.312948 228.41396 
L 529.382502 228.564854 
L 524.368013 229.325272 
L 523.863605 229.16042 
L 523.458604 229.440872 
L 523.237454 229.535837 
L 520.376329 230.026354 
L 519.043286 230.332217 
L 518.415264 230.418433 
L 517.385079 230.476667 
L 516.401207 230.348111 
L 515.914731 230.224998 
L 515.567496 230.084521 
L 515.41757 229.995834 
L 515.241131 229.82821 
L 514.608668 229.586124 
L 514.632576 229.400603 
L 514.365413 229.050963 
L 514.179992 229.021379 
L 514.126165 229.060113 
L 514.116682 229.047491 
L 514.058848 228.970891 
L 514.026526 228.927984 
L 514.262268 228.751177 
L 514.242033 228.727403 
L 513.965153 228.397932 
L 513.319334 227.593672 
L 513.098418 227.322368 
L 513.05374 227.355559 
L 511.318533 228.670504 
L 511.227008 228.76026 
L 511.203935 228.796189 
L 511.154215 228.883406 
L 510.857735 229.390619 
L 510.692148 229.653908 
L 510.492302 229.872821 
L 510.300937 230.104923 
L 509.976541 230.377228 
L 509.384181 230.695179 
L 508.813726 231.090331 
L 508.438442 231.212743 
L 508.124565 231.336658 
L 507.240433 231.914192 
L 506.98833 231.880667 
L 506.676523 231.842033 
L 505.676289 231.713844 
L 505.286547 231.630968 
L 503.662901 231.43249 
L 503.3932 231.394291 
L 503.106136 231.353453 
L 502.94499 231.330347 
L 499.65195 230.829679 
L 499.359978 230.785402 
L 498.652218 230.745233 
L 497.494946 230.638414 
L 496.458951 230.617378 
L 495.535818 230.683292 
L 494.559626 230.764266 
L 493.687615 230.758689 
L 493.189184 230.719154 
L 492.606041 230.63995 
L 492.169317 230.534167 
L 490.812466 230.177816 
L 488.6202 229.471025 
L 487.629751 229.178084 
L 484.42857 228.219055 
L 482.132792 227.530996 
L 481.978425 227.465282 
L 481.814593 227.434929 
L 481.753502 227.42361 
L 481.64665 227.354791 
L 481.246857 227.097779 
L 480.719076 226.758524 
L 480.376248 226.798193 
L 479.358251 226.637247 
L 478.848668 226.476602 
L 476.596599 225.842036 
L 473.419159 224.840968 
L 472.757513 224.581919 
L 471.002171 224.137149 
L 470.238448 223.818396 
L 468.676541 223.31085 
L 467.687093 223.11638 
L 467.012458 222.926885 
L 463.846338 221.946386 
L 461.983643 221.372959 
L 462.00281 221.311552 
L 460.43309 220.76377 
L 460.400032 220.854327 
L 460.180018 220.801335 
L 459.796286 220.708941 
L 459.750173 220.693381 
L 459.163323 220.49487 
L 458.70947 220.345044 
L 458.666929 220.331087 
L 458.510759 220.27943 
L 458.18436 220.200761 
L 458.160518 220.191612 
L 457.852084 220.072205 
L 457.799526 220.066127 
L 457.747202 220.058013 
L 457.695279 220.047862 
L 457.644691 220.036109 
L 457.594538 220.022452 
L 457.544985 220.006925 
L 457.543649 220.00826 
L 457.53046 220.003986 
L 456.67451 219.742266 
L 455.699153 219.489128 
L 455.640118 219.473834 
L 454.875125 219.27893 
L 454.859198 219.274623 
L 453.111169 218.851022 
L 451.257323 217.689108 
L 450.3784 217.077014 
L 447.776558 215.931229 
L 446.909522 215.514039 
L 444.973801 214.582291 
L 442.113278 214.542556 
L 438.837034 215.36044 
L 438.630643 215.411929 
L 435.21055 215.712817 
L 434.312493 215.791887 
L 431.428563 216.589837 
L 427.455879 217.014907 
L 426.996716 216.880607 
L 424.58477 216.90328 
L 424.430569 216.904749 
L 422.499857 216.92258 
L 419.230392 216.523589 
L 417.584606 216.579719 
L 417.168986 216.554576 
L 416.62117 216.521485 
L 416.466068 216.512136 
L 414.508175 216.393363 
L 411.055526 216.102325 
L 410.190527 216.172781 
L 407.769732 216.737292 
L 405.787798 217.091306 
L 403.495626 218.115147 
L 402.60742 218.040651 
L 401.497263 217.945185 
L 399.985476 218.258862 
L 399.506446 218.357433 
L 397.782092 217.714519 
L 397.665056 217.671912 
L 396.570759 217.264706 
L 394.16469 216.820637 
L 392.169132 216.325011 
L 391.022879 215.978912 
L 389.88267 215.506426 
L 388.220323 214.835998 
L 386.647864 214.3562 
L 385.142022 213.974505 
L 383.954831 213.927624 
L 382.955499 214.037514 
L 382.042384 213.987294 
L 381.627465 214.077383 
L 381.213948 214.251652 
L 380.837529 214.410627 
L 379.771549 214.862343 
L 378.563489 215.165502 
L 377.588199 215.713752 
L 377.366448 215.871325 
L 377.06192 216.209645 
L 376.764037 216.656786 
L 376.702397 216.74938 
L 376.007059 217.792821 
L 375.511467 218.534607 
L 375.148371 219.01514 
L 374.89393 219.211613 
L 374.152779 219.418839 
L 372.755558 220.010865 
L 372.058416 220.185234 
L 371.813225 220.227975 
L 371.494506 220.237925 
L 371.098219 220.148236 
L 370.540686 219.867517 
L 369.915336 219.568766 
L 369.111643 219.185869 
L 368.754191 218.723334 
L 368.576817 218.385749 
L 368.316332 217.88999 
L 368.276429 217.618753 
L 368.10934 216.488762 
L 368.189011 215.602693 
L 368.236026 215.079887 
L 368.396104 214.212217 
L 368.343479 214.01955 
L 368.095449 213.114682 
L 366.829656 211.112712 
L 365.997013 210.457778 
L 365.420848 210.426089 
L 365.302977 210.439546 
L 362.835267 210.720399 
L 361.285449 211.688143 
L 359.827656 211.247346 
L 358.955177 211.037749 
L 346.874577 208.135153 
L 346.376948 210.582394 
L 343.178004 226.313754 
L 342.897852 227.691508 
L 342.609152 229.080615 
L 342.199642 231.050762 
L 339.922096 240.636206 
L 339.514222 242.352713 
L 338.192432 243.838421 
L 329.960734 253.090253 
L 321.478102 265.903223 
L 320.987986 266.643539 
L 320.012028 266.570279 
L 307.565894 265.635893 
L 306.117117 265.527138 
L 305.056579 266.252895 
L 296.001488 272.449633 
L 295.054213 273.09779 
L 286.272195 278.965625 
L 285.358545 279.576083 
L 285.043165 279.786814 
L 284.045503 280.920646 
L 276.231563 289.8006 
L 274.187488 292.365945 
L 268.781253 299.150335 
L 268.15864 299.931689 
L 267.379123 300.582951 
L 255.378728 310.609225 
L 254.247167 311.55463 
L 252.478235 311.740118 
L 225.941351 314.52284 
L 220.414908 315.314812 
L 219.518554 315.443235 
L 218.917713 316.038132 
L 216.447967 318.483303 
L 215.91127 319.014657 
L 215.249757 318.623479 
L 214.536855 318.201915 
L 213.857845 317.800353 
L 212.980558 317.890609 
L 210.846661 318.110123 
L 207.551217 319.316013 
L 204.927637 318.56461 
L 199.726391 319.867902 
L 198.613062 320.146886 
L 198.054928 321.061637 
L 196.800254 323.118101 
L 196.244825 324.028445 
L 196.229999 327.395346 
L 193.855184 330.422091 
L 182.513964 336.493846 
L 174.742397 348.176223 
L 170.464284 350.50232 
L 171.772985 362.110135 
L 160.717494 371.24256 
L 158.109442 374.946044 
L 154.653019 376.202622 
L 152.615555 380.982071 
L 150.191822 379.730635 
L 145.943527 378.377758 
L 144.515586 376.383936 
L 143.432943 375.829976 
L 142.333037 375.267301 
L 140.820549 375.612533 
L 138.702546 377.248467 
L 137.91418 380.255278 
L 137.830435 380.466377 
L 137.026875 382.492254 
L 132.60301 387.920894 
L 115.363636 396.171224 
L 118.997333 418.869691 
L 118.98047 419.363747 
L 118.9785 419.473704 
L 118.864803 421.907989 
L 119.011925 423.830721 
L 120.067154 426.288246 
L 123.115068 427.551535 
L 123.627456 428.034472 
L 125.972186 430.246973 
L 134.900958 434.633741 
L 136.285123 432.957135 
L 136.276475 432.739058 
L 137.100904 432.304404 
L 137.275373 432.150337 
L 137.757809 431.54756 
L 137.81414 431.585659 
L 137.964033 431.331752 
L 137.617599 431.104225 
L 137.701645 430.973999 
L 137.684315 430.964783 
L 137.668821 430.952762 
L 137.655532 430.938304 
L 137.644913 430.921809 
L 137.6372 430.903777 
L 137.633126 430.887616 
L 137.631423 430.871021 
L 137.632124 430.854358 
L 137.635196 430.837963 
L 137.640606 430.822169 
L 137.648219 430.807344 
L 137.737039 430.67438 
L 137.747791 430.661658 
L 137.76028 430.650639 
L 137.774204 430.641489 
L 137.78933 430.634444 
L 137.805291 430.629636 
L 137.821753 430.627165 
L 137.841454 430.627365 
L 137.860821 430.630904 
L 137.879286 430.637649 
L 137.896349 430.647433 
L 137.911542 430.659955 
L 138.155398 430.297894 
L 138.336111 430.030464 
L 138.440425 429.877399 
L 138.467505 429.836127 
L 138.492916 429.793787 
L 138.51669 429.750479 
L 138.538662 429.706269 
L 138.558864 429.661224 
L 138.583339 429.599484 
L 138.604543 429.536541 
L 138.62244 429.472597 
L 138.636932 429.407785 
L 138.648051 429.342305 
L 138.655698 429.276357 
L 138.659905 429.210076 
L 138.66064 429.143661 
L 138.657902 429.077312 
L 138.651691 429.011198 
L 138.642542 428.945117 
L 138.629286 428.87977 
L 138.611989 428.815358 
L 138.590719 428.752149 
L 138.565475 428.690375 
L 138.536491 428.630304 
L 138.503768 428.57217 
L 138.467539 428.516207 
L 138.427836 428.46258 
L 138.384895 428.411559 
L 138.188655 428.25265 
L 135.856314 426.474001 
L 135.709726 426.458508 
L 135.56147 426.345612 
L 135.506908 426.209309 
L 135.434449 426.156685 
L 135.472649 426.109603 
L 135.520465 426.103058 
L 135.582473 426.023487 
L 135.575661 425.976372 
L 135.506107 425.923948 
L 135.627784 425.876098 
L 135.568882 425.759697 
L 134.553323 423.751417 
L 133.121041 420.952433 
L 133.509547 420.76601 
L 133.954284 420.55264 
L 136.342189 419.906521 
L 136.402327 419.935571 
L 136.786492 419.87343 
L 137.081971 419.741201 
L 139.212496 419.191315 
L 139.557461 419.11555 
L 140.925999 418.815063 
L 141.129451 418.785478 
L 141.958722 418.599589 
L 142.542467 418.57488 
L 143.198303 418.721668 
L 143.179537 418.823444 
L 142.915045 420.25793 
L 142.838146 421.46796 
L 142.830666 421.575146 
L 142.987638 422.589036 
L 143.309562 424.575545 
L 143.441925 425.693315 
L 143.48333 425.980279 
L 143.581834 426.846213 
L 143.518892 427.378836 
L 143.448904 427.967856 
L 143.357713 428.789313 
L 143.309095 429.057044 
L 143.150721 430.161959 
L 143.210224 430.694014 
L 149.71543 433.224265 
L 150.849662 433.666198 
L 151.360847 433.865376 
L 152.506933 433.320432 
L 154.268219 434.664093 
L 154.887993 434.630569 
L 155.714291 434.488522 
L 156.221737 434.24303 
L 156.412201 434.105392 
L 156.679998 433.889518 
L 156.803011 433.741628 
L 156.950433 433.540747 
L 157.006497 433.418268 
L 157.05211 433.302267 
L 157.074348 433.205666 
L 157.096286 433.086059 
L 157.106203 433.004417 
L 157.112915 432.888717 
L 157.179063 431.014135 
L 157.19499 430.526924 
L 157.264578 430.027392 
L 157.343949 429.030565 
L 157.522458 427.895331 
L 157.613416 427.326111 
L 157.771289 426.397535 
L 157.928628 425.322005 
L 157.928027 425.178423 
L 157.914237 424.867651 
L 157.890095 424.556645 
L 157.836602 424.031435 
L 157.777199 423.292388 
L 157.73309 422.977676 
L 157.630545 422.575045 
L 157.359509 421.551505 
L 157.334198 421.249548 
L 157.417175 421.130375 
L 157.682869 420.763406 
L 157.907191 420.882679 
L 158.173252 420.838836 
L 158.873265 420.723436 
L 158.934505 420.746743 
L 159.538485 420.976575 
L 159.599758 420.999882 
L 160.153584 421.210647 
L 160.43791 421.318835 
L 160.754125 421.438909 
L 160.85353 421.476975 
L 161.453904 421.701064 
L 162.000751 421.905184 
L 162.070606 421.931263 
L 162.626002 422.138555 
L 163.022222 422.286445 
L 163.572175 425.670676 
L 163.695321 426.428556 
L 163.773123 426.907285 
L 163.864314 427.468358 
L 163.955038 428.026792 
L 164.025994 428.463348 
L 165.683433 428.25659 
L 165.805745 428.241297 
L 167.160626 428.072304 
L 167.231683 428.515873 
L 167.316296 429.04322 
L 167.425118 429.721996 
L 167.533706 430.399537 
L 167.634481 431.028193 
L 167.718893 431.55524 
L 166.929425 431.654411 
L 164.588569 431.948755 
L 164.72751 432.80584 
L 164.84498 433.530496 
L 164.951932 434.190239 
L 165.059652 434.854624 
L 164.893664 434.874091 
L 164.940078 435.160453 
L 164.968461 435.335524 
L 160.1241 435.953361 
L 156.575484 434.959004 
L 156.171684 435.846208 
L 155.896474 436.761895 
L 155.644303 437.601016 
L 155.43828 437.572667 
L 155.385655 437.565454 
L 155.328256 437.688033 
L 155.247916 437.880634 
L 155.617323 437.92835 
L 155.683538 437.936965 
L 156.180065 438.001376 
L 156.648744 438.093603 
L 157.811592 438.322399 
L 157.890162 438.337859 
L 158.185674 438.395994 
L 159.389026 438.632837 
L 160.286481 438.809543 
L 161.453169 439.715614 
L 161.749015 439.951355 
L 161.73035 440.015133 
L 162.151579 440.448584 
L 161.814395 440.87165 
L 161.558752 441.150133 
L 159.520287 443.323065 
L 162.558585 446.077337 
L 165.638422 450.758349 
L 165.792088 453.689562 
L 167.138421 455.674468 
L 177.239558 462.114928 
L 180.429386 462.955852 
L 181.970189 466.110752 
L 185.847608 471.535453 
L 189.74426 476.475713 
L 192.307702 479.022794 
L 194.625619 481.326152 
L 195.893883 482.867155 
L 197.872044 483.688378 
L 200.729429 484.100259 
L 201.875315 483.874601 
L 204.263754 482.803378 
L 213.65289 476.660734 
L 215.96089 474.107176 
L 219.174191 477.051478 
L 219.352033 477.136959 
L 219.725046 477.315502 
L 220.228518 477.558022 
L 220.765582 477.818473 
L 222.43404 478.62821 
L 222.946127 478.876707 
L 226.249986 479.984894 
L 226.207813 480.165741 
L 226.100627 480.623467 
L 225.252758 480.725344 
L 224.935641 480.761373 
L 224.483024 480.819908 
L 224.31904 480.837672 
L 224.307186 480.838907 
L 224.097656 480.864151 
L 223.908194 480.886924 
L 223.71536 480.913303 
L 223.575785 480.932369 
L 223.54767 480.936243 
L 223.108409 480.996313 
L 222.767985 481.042327 
L 222.520089 481.077387 
L 222.375973 481.096988 
L 221.765715 481.179932 
L 221.501991 481.227982 
L 220.789991 481.357673 
L 220.434275 481.422452 
L 220.022394 481.497482 
L 219.450236 481.601696 
L 219.555218 481.999552 
L 219.924959 483.366888 
L 220.119763 484.087303 
L 220.399948 485.157825 
L 220.444526 485.323579 
L 220.453207 485.355835 
L 220.589644 485.858506 
L 220.658396 486.087202 
L 220.853668 486.090574 
L 221.341346 486.098822 
L 222.272827 486.122196 
L 223.146241 486.144468 
L 223.581428 486.155387 
L 223.674022 486.167174 
L 223.885422 486.193352 
L 223.918813 486.19766 
L 224.576152 486.294494 
L 224.161433 486.735358 
L 224.703639 486.770653 
L 225.384219 486.360776 
L 225.835968 486.42462 
L 227.181366 486.536414 
L 226.673586 486.970533 
L 227.997314 486.956007 
L 226.331594 487.989131 
L 224.736162 489.304978 
L 223.625505 490.220998 
L 222.642201 491.032037 
L 221.715395 491.796428 
L 217.650718 495.25816 
L 216.215898 496.650707 
L 213.962193 499.123893 
L 211.310932 502.014602 
L 211.228189 502.104825 
L 210.825724 502.116612 
L 210.778543 502.01724 
L 210.672526 501.79422 
L 210.657466 501.783902 
L 210.566241 501.902975 
L 210.475484 502.021447 
L 210.414645 502.100885 
L 210.392808 502.102855 
L 210.208221 502.344707 
L 210.226019 502.358431 
L 210.249292 502.353055 
L 210.252531 502.446751 
L 210.255169 502.525287 
L 210.271831 502.524585 
L 210.479191 502.445215 
L 210.739475 502.345508 
L 210.668719 502.443912 
L 209.272066 504.385911 
L 207.517325 506.84948 
L 207.501865 506.832651 
L 207.296342 506.60923 
L 207.013719 506.301998 
L 206.847965 506.121852 
L 206.820183 506.091633 
L 207.193096 505.524584 
L 207.594125 504.914761 
L 208.175899 504.030094 
L 208.357414 503.754083 
L 209.200308 502.472328 
L 209.581235 502.670605 
L 209.594291 502.680589 
L 209.769928 502.450056 
L 209.836644 502.362438 
L 209.856512 502.36187 
L 210.039262 502.120719 
L 210.023534 502.107195 
L 209.992915 502.108264 
L 209.99021 502.028292 
L 209.987171 501.936366 
L 209.970576 501.936867 
L 209.766088 502.031431 
L 209.363057 502.217887 
L 209.354141 502.217954 
L 208.951009 502.221093 
L 205.853842 502.245034 
L 205.827497 502.505085 
L 205.686886 502.533234 
L 205.076095 502.539745 
L 204.970879 502.540847 
L 204.269196 502.53083 
L 204.25377 502.531097 
L 203.689158 502.540747 
L 203.619337 502.541949 
L 203.575928 502.54245 
L 203.549215 502.542617 
L 202.97118 502.544987 
L 201.722951 502.549996 
L 201.095497 502.552434 
L 200.957591 503.257021 
L 200.845196 503.829847 
L 200.723886 504.449922 
L 200.711164 504.514801 
L 200.613361 505.013465 
L 200.483937 505.675111 
L 200.373512 506.238655 
L 200.263021 506.802432 
L 200.029884 507.992093 
L 199.91602 508.573267 
L 199.628722 510.038639 
L 200.681145 511.008887 
L 201.43602 511.727566 
L 201.577165 511.861999 
L 202.080904 512.342365 
L 202.66338 512.897326 
L 203.117935 513.331011 
L 203.717206 513.897326 
L 204.978091 515.089592 
L 205.279514 515.375788 
L 205.732532 515.803095 
L 206.537828 516.563012 
L 207.166951 517.157609 
L 207.258476 517.243157 
L 208.380454 518.294846 
L 208.548579 518.462336 
L 208.938688 518.720484 
L 209.053754 518.796816 
L 209.291165 518.954256 
L 209.787926 519.064847 
L 210.127815 518.169462 
L 210.350401 518.070157 
L 210.752798 518.050757 
L 211.363723 518.021639 
L 211.463964 518.052927 
L 211.915747 518.19327 
L 212.202043 518.282191 
L 212.497655 518.374384 
L 212.939988 518.518701 
L 212.996753 518.537133 
L 213.072752 518.561942 
L 213.08514 518.565916 
L 213.323954 518.643985 
L 213.456316 518.687226 
L 213.539861 518.713271 
L 214.057725 518.881062 
L 214.081433 518.813478 
L 214.201708 518.471853 
L 214.239139 518.365268 
L 214.326324 518.131263 
L 214.453043 517.791207 
L 214.579663 517.451117 
L 214.706316 517.111062 
L 214.715131 517.087487 
L 214.987703 516.355786 
L 215.01101 516.293244 
L 215.023966 516.258618 
L 215.136895 515.955326 
L 215.262746 515.617473 
L 215.338544 515.414121 
L 215.388598 515.279655 
L 215.514416 514.941836 
L 215.640234 514.603984 
L 215.659133 514.553329 
L 215.766119 514.266132 
L 215.89197 513.928313 
L 216.009641 513.612466 
L 215.474346 513.556903 
L 214.45488 513.896925 
L 213.498957 513.519772 
L 213.134358 513.136942 
L 212.822685 512.809808 
L 212.475316 512.393854 
L 212.376946 512.271342 
L 211.997689 511.821829 
L 211.615727 511.364136 
L 211.338546 511.032328 
L 211.221777 510.903905 
L 210.722312 510.356156 
L 210.372339 509.972291 
L 210.135829 509.712641 
L 209.37668 508.879831 
L 208.936417 508.396995 
L 208.811968 508.262194 
L 208.685048 508.123654 
L 207.973348 507.346608 
L 211.854774 502.43473 
L 211.978188 502.278492 
L 212.023099 502.229474 
L 212.220208 502.014101 
L 214.456249 499.5709 
L 216.673825 497.13371 
L 218.126542 495.727774 
L 222.117525 492.325479 
L 222.642802 491.892361 
L 223.546468 491.14717 
L 225.226278 489.76207 
L 226.237731 488.928058 
L 226.688913 488.556047 
L 229.202319 486.982273 
L 230.602094 486.105801 
L 231.386453 485.626136 
L 231.991268 485.123833 
L 232.633247 484.590542 
L 232.693184 484.540822 
L 232.938376 484.337203 
L 233.281303 484.066701 
L 233.93754 483.54907 
L 234.619055 483.011539 
L 234.988428 483.536749 
L 235.186071 483.463088 
L 235.502051 483.345351 
L 235.984387 483.165673 
L 236.312723 483.043361 
L 236.903447 482.841945 
L 236.966656 482.820408 
L 237.781668 482.542526 
L 237.807112 483.003826 
L 237.8769 484.023192 
L 237.907219 484.483556 
L 237.567063 484.671081 
L 238.092774 485.338939 
L 238.399773 485.728948 
L 238.820368 486.262873 
L 239.162361 486.69776 
L 241.23926 487.909192 
L 243.373024 489.168107 
L 243.445249 489.193652 
L 243.909253 489.267012 
L 245.273284 489.518448 
L 245.785037 489.612911 
L 248.237253 490.066531 
L 250.600715 490.50075 
L 250.788374 490.535343 
L 253.060611 490.955137 
L 255.378127 491.308616 
L 255.513027 491.329286 
L 257.986413 491.690144 
L 260.465409 492.070771 
L 263.100041 492.836364 
L 263.575832 492.975071 
L 265.689796 493.591739 
L 268.375616 494.368318 
L 270.328701 494.943315 
L 273.05389 495.739995 
L 273.210561 495.731447 
L 274.565209 495.658053 
L 275.620571 495.600854 
L 276.156366 495.571871 
L 278.436116 495.448557 
L 278.469007 495.446854 
L 278.736904 495.431962 
L 280.822785 495.316595 
L 283.4666 495.158788 
L 283.632588 495.149205 
L 283.808259 495.139087 
L 285.48069 495.043021 
L 285.669684 495.032169 
L 285.92279 495.01761 
L 286.022863 495.011867 
L 286.139732 495.005222 
L 288.730154 494.863777 
L 289.122701 494.841906 
L 291.23189 494.724703 
L 293.751122 494.584259 
L 294.139395 494.589769 
L 294.278335 494.591706 
L 295.58717 494.615714 
L 296.995377 493.711213 
L 298.760335 492.571104 
L 300.661496 491.34341 
L 302.494105 490.157488 
L 302.466758 489.92592 
L 302.207108 487.827117 
L 301.758364 483.787016 
L 301.65829 482.928361 
L 301.589939 482.770555 
L 301.565797 482.69272 
L 301.354965 482.011473 
L 300.599289 482.299071 
L 298.797466 482.805916 
L 297.117689 483.310791 
L 295.801174 483.612681 
L 295.178028 483.70267 
L 294.353299 483.821843 
L 291.803013 484.190415 
L 285.285652 484.98379 
L 278.712596 485.894101 
L 276.879352 486.082561 
L 276.624577 486.108739 
L 270.843426 486.703036 
L 270.926804 486.160663 
L 270.941029 486.068269 
L 270.954385 486.002121 
L 270.973919 485.904986 
L 271.170259 484.694522 
L 270.896351 483.467663 
L 270.906936 483.43564 
L 271.297413 482.248049 
L 271.307263 482.225677 
L 271.909473 480.898244 
L 272.042871 480.620195 
L 272.477357 479.648745 
L 272.483568 479.628577 
L 273.297979 477.332231 
L 273.305726 477.310293 
L 274.312371 475.114621 
L 274.3868 474.952307 
L 274.798546 473.608879 
L 274.798446 473.58043 
L 274.694833 471.75146 
L 274.687087 471.715097 
L 274.743284 469.113389 
L 274.740913 469.019159 
L 274.741147 468.738406 
L 274.733901 467.463096 
L 274.732098 467.234132 
L 274.731964 467.213864 
L 274.728525 466.522032 
L 274.725286 465.868232 
L 274.717473 462.976054 
L 274.717539 462.947204 
L 275.001865 462.816043 
L 274.994519 462.710393 
L 274.98941 462.64518 
L 274.991915 462.643711 
L 276.971512 461.629153 
L 279.225351 460.476389 
L 281.963061 459.076129 
L 283.784718 458.150225 
L 285.570179 457.239914 
L 287.120899 456.437557 
L 289.080829 455.396553 
L 291.03969 454.386536 
L 293.379544 453.102611 
L 295.727446 451.946708 
L 297.960917 450.797483 
L 300.801439 449.357221 
L 303.630007 447.933855 
L 306.515541 446.464208 
L 309.15241 445.105821 
L 310.294055 444.517702 
L 311.063555 444.121315 
L 313.326075 442.947581 
L 316.469923 441.313816 
L 319.236484 439.890316 
L 322.44107 438.248304 
L 325.158746 436.85312 
L 328.435257 435.190439 
L 331.745494 433.480309 
L 334.092494 432.276356 
L 334.107019 432.268943 
L 334.579805 432.027525 
L 334.599673 432.017407 
L 337.351107 430.598482 
L 340.58441 428.943013 
L 343.869903 427.250346 
L 346.379452 425.941679 
L 349.067877 424.523154 
L 352.19897 422.945186 
L 355.512244 421.28718 
L 358.028238 419.996076 
L 360.896942 418.534009 
L 360.918212 418.523257 
L 360.90135 418.409694 
L 362.241906 417.726643 
L 362.522058 417.761003 
L 362.983658 417.822176 
L 363.018452 417.821174 
L 364.678962 418.020686 
L 367.220967 418.326416 
L 367.252956 418.320573 
L 369.23843 417.972403 
L 369.274392 417.97277 
L 371.224738 417.997045 
L 371.255859 417.993873 
L 373.771618 417.745776 
L 374.774389 417.546598 
L 376.479043 417.331292 
L 378.765973 417.039586 
L 378.798396 417.035546 
L 381.009127 416.461317 
L 383.156715 415.897574 
L 383.190573 415.888792 
L 384.728605 415.448963 
L 386.190038 415.031072 
L 386.604322 414.910196 
L 386.634107 414.904086 
L 388.581949 414.345818 
L 390.319961 413.847755 
L 390.63691 413.756898 
L 390.666361 413.748516 
L 392.340429 413.127106 
L 393.61083 412.655589 
L 393.642719 412.643735 
L 394.81889 412.133885 
L 395.957664 411.63098 
L 395.987849 411.614018 
L 398.276248 410.316369 
L 398.306701 410.299106 
L 399.468314 410.086037 
L 399.499434 410.072146 
L 401.027015 409.389363 
L 401.055865 409.371866 
L 401.591426 409.047771 
L 401.719815 408.970036 
L 402.547249 408.469235 
L 402.577268 408.45294 
L 404.35034 407.492476 
L 405.226191 407.01812 
L 405.250233 407.005064 
L 405.999164 406.578492 
L 406.023239 406.557255 
L 407.611591 405.379715 
L 407.63954 405.358945 
L 409.783455 404.91324 
L 409.816145 404.906461 
L 410.190861 404.756401 
L 410.224586 404.742945 
L 411.525206 404.221842 
L 412.616397 403.784617 
L 412.645748 403.772897 
L 414.292802 403.181572 
L 416.254368 402.477352 
L 416.286691 402.465765 
L 417.523267 402.070881 
L 417.539729 402.065538 
L 417.569146 402.051915 
L 419.232395 401.282715 
L 419.386629 401.211325 
L 419.418351 401.196699 
L 420.861552 400.543234 
L 422.511143 399.796373 
L 422.543132 399.781914 
L 422.686247 400.158601 
L 422.724981 400.141237 
L 424.268088 399.450473 
L 424.491341 399.350534 
L 424.569477 399.31554 
L 425.828191 398.752197 
L 425.853135 398.740977 
L 425.905726 398.714932 
L 426.346256 399.323286 
L 428.569608 398.309062 
L 430.50967 397.423394 
L 432.208113 396.654662 
L 433.858874 395.900689 
L 435.372497 395.210593 
L 437.279835 394.343991 
L 440.318868 392.958958 
L 443.204702 391.643512 
L 445.197933 390.739802 
L 445.376365 390.658371 
L 446.534305 390.136333 
L 446.577866 390.116471 
L 447.563188 389.667187 
L 450.698955 388.235273 
L 453.179888 387.107118 
L 454.363172 386.564644 
L 455.580481 386.006143 
L 456.767404 385.466208 
L 458.227434 384.802324 
L 457.683692 384.229732 
L 456.792214 384.070556 
L 453.24824 383.438594 
L 447.337931 380.136639 
L 442.869789 377.638343 
L 442.467024 377.414989 
L 442.107101 377.213966 
L 441.892128 377.0939 
L 440.296663 376.20182 
L 438.543659 375.222624 
L 437.754324 374.783195 
L 437.615217 374.706095 
L 436.601894 374.142251 
L 436.733088 372.735681 
L 437.037916 369.768539 
L 437.0672 369.454562 
L 437.094481 369.141987 
L 437.118422 368.82841 
L 437.139258 368.512997 
L 437.155854 368.200622 
L 437.169444 367.886745 
L 437.182099 367.570096 
L 437.192551 367.253247 
L 437.197693 366.986418 
L 437.200631 366.719289 
L 437.201767 366.452059 
L 437.200999 366.322534 
L 437.200264 366.192943 
L 437.199496 366.063385 
L 437.196725 365.833854 
L 437.176389 364.151739 
L 437.175187 364.051766 
L 437.16911 363.54993 
L 437.166973 363.522883 
L 437.161196 363.49637 
L 437.151914 363.47086 
L 437.139225 363.446851 
L 437.123431 363.42478 
L 437.104832 363.405046 
L 437.083695 363.388016 
L 437.060489 363.373992 
L 437.035612 363.36324 
L 437.0095 363.355927 
L 436.982654 363.352221 
L 436.955573 363.352154 
L 436.928694 363.355727 
L 436.853864 361.96899 
L 437.157724 361.864209 
L 437.187308 361.853757 
L 437.411931 361.752849 
L 438.671814 361.190274 
L 439.695254 360.99527 
L 439.832258 360.947253 
L 440.882578 360.579249 
L 441.394265 360.399971 
L 441.912162 360.215352 
L 443.103727 359.790616 
L 443.545827 359.633009 
L 444.406807 359.333296 
L 444.956872 359.141591 
L 446.930191 358.45844 
L 447.402243 358.295024 
L 449.123358 357.696019 
L 450.482681 357.222966 
L 451.084657 357.01347 
L 452.272181 356.596848 
L 452.996503 356.342774 
L 453.420672 356.194918 
L 454.526187 355.80955 
L 454.892731 355.682172 
L 455.406146 355.503754 
L 457.364239 354.812022 
L 459.298023 354.141126 
L 460.77398 353.629038 
L 461.643187 353.331089 
L 461.750473 353.293657 
L 461.84684 353.260066 
L 462.470454 353.042556 
L 462.478845 353.039513 
L 462.619011 352.988696 
L 462.83789 352.916504 
L 463.057838 352.847518 
L 463.278754 352.781804 
L 463.500639 352.719329 
L 463.723391 352.660126 
L 463.946979 352.604229 
L 464.171401 352.551605 
L 464.396558 352.502286 
L 465.073798 352.355866 
L 465.676676 352.204069 
L 466.391248 352.045695 
L 466.823766 351.949934 
L 467.074599 351.894399 
L 467.095702 351.889791 
L 469.882831 351.277764 
L 470.791673 351.078218 
L 471.262756 350.974639 
L 472.896086 350.616118 
L 474.260484 350.316632 
L 474.419526 350.281705 
L 474.584178 350.245442 
L 474.677459 350.224578 
L 474.892312 350.176522 
L 474.913115 350.171881 
L 475.130391 350.123264 
L 475.532121 350.033408 
L 478.114229 349.456642 
L 478.22452 349.431966 
L 478.790066 349.305647 
L 480.259012 349.008632 
L 481.53933 348.717494 
L 481.75634 348.668142 
L 482.11022 348.587669 
L 482.195133 348.568369 
L 483.131155 348.381913 
L 484.30529 348.148041 
L 485.026173 347.990434 
L 485.324256 347.925321 
L 485.585108 347.868156 
L 487.1965 347.515812 
L 487.614558 347.423018 
L 488.47969 347.231052 
L 488.883423 347.141463 
L 489.538625 346.996045 
L 490.973044 346.679396 
L 492.280677 346.400613 
L 494.04864 346.02366 
L 494.176662 345.995043 
L 494.96406 345.819005 
L 496.058356 345.604967 
L 496.317706 345.554246 
L 497.374737 345.347621 
L 497.405436 345.34407 
L 498.532544 345.213689 
L 499.182203 345.411699 
L 499.331595 345.457278 
L 499.928162 345.639227 
L 500.445859 345.798703 
L 500.991738 345.966894 
L 501.584198 346.149411 
L 501.95661 346.266313 
L 502.172818 346.330725 
L 503.624467 346.898108 
L 503.913969 346.985092 
L 503.94923 346.991837 
L 504.030738 347.017215 
L 504.382982 347.126871 
L 504.845717 347.270887 
L 504.833362 347.311691 
L 504.959314 347.350726 
L 506.610508 347.864049 
L 506.712485 347.891697 
L 507.795909 348.006004 
L 508.453168 348.075348 
L 508.605833 348.110309 
L 509.847651 348.564629 
L 509.937874 348.595984 
L 510.028965 348.624733 
L 510.120824 348.650879 
L 510.213418 348.674353 
L 510.306613 348.695222 
L 510.400309 348.713387 
L 510.494505 348.728847 
L 510.589103 348.741603 
L 510.684034 348.751653 
L 510.779199 348.758966 
L 510.832424 348.762339 
L 510.885683 348.765244 
L 510.938976 348.767681 
L 510.992368 348.769718 
L 511.045761 348.771287 
L 511.099153 348.772389 
L 511.20684 348.772523 
L 511.314493 348.770753 
L 511.422113 348.767047 
L 511.529632 348.761437 
L 511.637052 348.753891 
L 511.744271 348.744541 
L 511.85129 348.733255 
L 511.958075 348.720032 
L 512.064626 348.704939 
L 512.170877 348.68791 
L 512.294391 348.665638 
L 512.417371 348.640795 
L 512.53985 348.61338 
L 512.661694 348.583395 
L 512.77292 348.553644 
L 512.883545 348.521788 
L 512.993536 348.487796 
L 513.102859 348.4517 
L 513.21148 348.413534 
L 514.042155 348.101038 
L 514.384179 347.97237 
L 516.305775 347.249283 
L 516.775556 347.074581 
L 517.053972 346.970701 
L 517.215719 346.910663 
L 517.430825 346.696392 
L 518.659888 346.168811 
L 518.723465 346.092245 
L 518.839132 346.012974 
L 519.02048 345.888859 
L 519.185599 345.770521 
L 519.382674 345.629309 
L 519.454298 345.72581 
L 519.625762 345.593848 
L 520.29599 345.09672 
L 521.01951 344.562628 
L 521.615376 344.12153 
L 522.314321 343.605202 
L 522.957435 343.128943 
L 524.037106 342.329091 
L 527.353419 339.874437 
L 527.375558 339.850896 
L 527.39449 339.824651 
L 528.072866 338.674558 
L 528.935194 338.259539 
L 531.967348 336.799275 
L 532.151801 336.709954 
L 532.386281 336.596843 
L 532.63053 336.47902 
L 532.816686 336.389565 
L 533.961804 335.839278 
L 534.78483 335.443793 
L 535.422535 335.137362 
L 536.031657 334.844588 
L 536.651164 334.550078 
L 537.929513 333.932541 
L 538.402165 333.705347 
L 540.633231 332.633056 
L 542.971016 331.509542 
L 543.098603 331.4469 
L 543.290035 331.352937 
L 543.425804 331.286289 
L 544.93542 330.559262 
L 545.886034 330.101536 
L 546.443065 329.834005 
L 554.560832 325.929206 
L 555.944697 325.262984 
L 556.975216 324.766925 
L 558.413041 324.074825 
L 558.824688 323.876816 
L 559.029254 323.779053 
L 559.580965 323.515389 
L 559.758539 323.429607 
L 561.107811 322.778446 
L 561.710021 322.487408 
L 562.311864 322.196671 
L 562.810962 321.95572 
L 563.333968 321.702915 
L 565.678164 320.581505 
L 565.859845 320.49402 
L 566.040959 320.4053 
L 566.221438 320.315378 
L 566.490805 320.17844 
L 566.759037 320.039199 
L 567.026033 319.897687 
L 567.291827 319.753905 
L 567.556385 319.607885 
L 567.819708 319.459595 
L 567.987966 319.365031 
L 568.155523 319.269165 
L 568.322312 319.171996 
L 568.894938 318.839654 
L 569.445726 318.529917 
L 570.198864 318.096466 
L 571.035647 317.619573 
L 571.575984 317.313075 
L 571.851494 317.155602 
L 571.920047 317.115499 
L 572.272057 316.916521 
L 572.518183 316.774275 
L 572.912266 316.551455 
L 573.205073 316.382663 
L 573.915872 315.980867 
L 574.684637 315.504307 
L 575.432066 315.040971 
L 575.966759 314.698378 
L 576.655185 314.275678 
L 577.170111 313.968713 
L 577.804978 313.590224 
L 578.882278 312.972286 
L 579.202766 312.783125 
L 579.782671 312.451918 
L 580.090772 312.275846 
L 580.455103 312.067619 
L 581.096114 311.701251 
L 581.657153 311.380695 
L 582.319367 311.007014 
L 582.534774 310.879193 
L 582.548364 310.903134 
L 582.850087 310.732906 
L 583.535313 310.319295 
L 583.876031 310.113633 
L 584.089969 309.991454 
L 583.858668 309.931384 
L 583.564992 309.445776 
L 583.236389 308.902434 
L 582.810785 308.198614 
L 582.770649 308.1324 
L 583.147803 307.102181 
L 583.471831 306.216847 
L 583.766074 305.414423 
L 584.057779 304.618978 
L 584.280432 304.008988 
L 584.562454 303.248436 
L 585.195417 301.518138 
L 585.463549 300.785101 
L 585.922444 299.514199 
L 586.150573 298.876794 
L 586.459775 298.032565 
L 586.91867 296.779527 
L 587.446919 295.336493 
L 587.694448 294.69812 
L 588.014736 294.096878 
L 588.393159 293.384744 
L 589.168135 291.945817 
L 589.23258 291.823839 
L 589.566492 291.241029 
L 589.958504 290.660457 
L 590.672675 289.609168 
L 591.047124 289.05601 
L 591.421273 288.50185 
L 591.63501 288.18303 
L 591.768307 287.984587 
L 591.900269 287.787745 
L 592.191808 287.353359 
L 592.420003 287.021685 
L 593.158717 285.926186 
L 593.625258 285.234888 
L 594.056472 284.595013 
L 594.551897 283.860874 
L 595.373755 282.641094 
L 595.713844 282.138723 
L 596.672105 280.716525 
L 597.245198 279.865651 
L 597.781193 279.069839 
L 597.978287 278.777891 
L 598.130599 278.552275 
L 601.500906 273.53812 
L 601.775615 273.129411 
L 602.544781 271.985997 
L 602.669364 271.800809 
L 602.938697 271.400415 
L 604.055399 269.740372 
L 604.137508 269.618327 
L 605.061743 268.244346 
L 605.166625 268.088409 
L 605.291541 267.902688 
L 605.331677 267.843051 
L 605.672034 267.337041 
L 605.786666 267.166812 
L 606.996128 265.370767 
L 607.501337 264.620567 
L 607.561374 264.633823 
L 607.621879 264.644642 
L 607.682785 264.653023 
L 607.743991 264.658967 
L 607.805364 264.662406 
L 607.845533 264.664142 
L 607.885736 264.663909 
L 607.925873 264.661738 
L 607.965842 264.657598 
L 608.005577 264.651521 
L 608.070256 264.638965 
L 608.134367 264.623906 
L 608.197844 264.606342 
L 608.260586 264.586274 
L 608.277916 264.578461 
L 608.295213 264.570547 
L 608.312442 264.562533 
L 608.316383 264.558192 
L 608.320256 264.553818 
L 608.324063 264.549377 
L 608.32256 264.547106 
L 608.321759 264.546004 
L 608.411514 264.486267 
L 608.500301 264.425128 
L 608.588087 264.36252 
L 608.598705 264.355307 
L 608.60929 264.347995 
L 608.619842 264.340648 
L 608.625452 264.338678 
L 608.631061 264.336675 
L 608.636638 264.334638 
L 608.637706 264.336241 
L 608.638808 264.33781 
L 608.63991 264.33938 
L 608.68806 264.285086 
L 608.734073 264.228955 
L 608.777849 264.171088 
L 608.819321 264.111518 
L 608.858422 264.050379 
L 608.866068 264.033717 
L 608.873281 264.016854 
L 608.879993 263.999791 
L 608.900595 263.955949 
L 608.919628 263.911438 
L 608.937025 263.866226 
L 608.953587 263.806389 
L 608.967411 263.745885 
L 608.978463 263.684779 
L 608.986778 263.623272 
L 608.992254 263.561432 
L 608.802959 262.857679 
L 608.746328 262.779443 
L 608.861076 261.955783 
L 609.001537 260.947569 
L 609.162916 259.812669 
L 609.307767 258.748124 
L 609.429678 257.9262 
L 609.541405 257.142175 
L 609.553593 257.053321 
L 609.680146 256.128117 
L 609.763256 255.532352 
L 609.846734 254.93495 
L 609.857587 254.855679 
L 609.870743 254.764822 
L 609.885535 254.658371 
L 610.223153 252.225889 
L 610.252872 252.011784 
L 610.319888 251.525575 
L 610.491685 250.303825 
L 610.610992 249.454987 
L 610.685688 248.916187 
L 610.788633 248.189261 
L 610.869206 247.622178 
L 610.878723 247.560605 
L 610.895953 247.461767 
L 610.917256 247.317383 
L 610.939361 247.1731 
L 610.962301 247.02895 
L 610.984773 246.896988 
L 611.008314 246.765193 
L 611.032923 246.633632 
L 611.044343 246.58094 
L 611.05603 246.528316 
L 611.067984 246.475725 
L 611.08498 246.397756 
L 611.102277 246.319821 
L 611.119841 246.241986 
L 611.162648 246.056164 
L 611.208327 245.871043 
L 611.256845 245.686624 
L 611.308167 245.502972 
L 611.396887 245.182517 
L 611.486676 244.862362 
L 611.577567 244.542508 
L 611.768298 243.924537 
L 612.018498 243.088789 
L 612.055696 242.977296 
L 612.301388 242.242422 
L 612.536896 241.532692 
L 612.895184 240.460368 
L 613.107785 239.823731 
L 613.291704 239.272943 
L 613.894682 237.466713 
L 614.549116 237.219051 
L 615.378353 236.876557 
L 615.474386 236.829609 
L 616.031485 236.541377 
L 616.33057 236.368777 
L 616.512552 236.264063 
L 616.583709 236.228735 
L 616.656602 236.197147 
L 616.772003 236.156498 
L 616.806829 236.145524 
L 616.883762 236.125623 
L 616.961597 236.109729 
L 617.040166 236.097908 
L 617.119237 236.090195 
L 617.198574 236.086555 
L 617.278045 236.087056 
L 617.357349 236.091697 
L 617.40176 236.097274 
L 617.445969 236.104252 
L 617.489912 236.112667 
L 617.533588 236.122517 
L 617.607549 236.136876 
L 617.682112 236.147661 
L 617.757142 236.154807 
L 617.832372 236.158346 
L 617.907736 236.158213 
L 617.983 236.154439 
L 618.057963 236.14706 
L 618.132492 236.136074 
L 618.206421 236.121482 
L 618.279547 236.103317 
L 618.336212 236.086321 
L 618.392276 236.067522 
L 618.447705 236.04692 
L 618.502467 236.024581 
L 618.55449 235.997601 
L 618.605646 235.968985 
L 618.655833 235.938732 
L 618.705018 235.906877 
L 618.741114 235.882001 
L 618.776609 235.856289 
L 618.811502 235.82971 
L 618.830068 235.81632 
L 618.848266 235.80253 
L 618.866164 235.788272 
L 619.553789 235.195411 
L 620.196502 234.641284 
L 620.2722 234.575937 
L 620.669288 234.232943 
L 621.017225 233.932389 
L 621.402893 233.599278 
L 621.626981 233.40571 
L 621.922794 232.964378 
L 621.939022 232.94017 
L 622.370236 232.325905 
L 622.636364 231.946748 
L 621.898452 231.2456 
L 620.887533 230.221358 
L 620.765755 230.093503 
L 620.419222 230.391987 
L 619.846596 230.885209 
L 619.533888 231.154575 
L 619.31394 230.903974 
L 619.093391 230.650368 
L 619.014821 230.725332 
L 618.289899 230.220056 
L 617.905332 229.951991 
L 617.265223 229.505818 
L 617.102608 229.392489 
L 616.499997 229.775018 
L 615.147119 230.633105 
L 614.467475 231.064586 
L 614.550986 230.78203 
L 614.166119 230.67087 
L 607.941199 228.872053 
L 607.696527 228.801289 
" clip-path="url(#p2cd8022209)" style="fill: #d3d3d3"/>
   </g>
   <g id="PatchCollection_2">
    <path d="M 582.868951 265.835224 
L 582.868951 265.801833 
L 582.83556 265.801833 
L 582.83556 265.835224 
L 582.868951 265.835224 
" clip-path="url(#p2cd8022209)" style="fill: #ff0000; fill-opacity: 0.7; stroke: #000000; stroke-opacity: 0.7; stroke-width: 0.5"/>
    <path d="M 349.487752 347.698788 
L 349.487752 347.665396 
L 349.454361 347.665396 
L 349.454361 347.698788 
L 349.487752 347.698788 
" clip-path="url(#p2cd8022209)" style="fill: #ff0000; fill-opacity: 0.7; stroke: #000000; stroke-opacity: 0.7; stroke-width: 0.5"/>
    <path d="M 501.538589 346.024669 
L 501.538589 345.991277 
L 501.505198 345.991277 
L 501.505198 346.024669 
L 501.538589 346.024669 
" clip-path="url(#p2cd8022209)" style="fill: #ff0000; fill-opacity: 0.7; stroke: #000000; stroke-opacity: 0.7; stroke-width: 0.5"/>
    <path d="M 545.688465 235.35795 
L 545.688465 235.324558 
L 545.655074 235.324558 
L 545.655074 235.35795 
L 545.688465 235.35795 
" clip-path="url(#p2cd8022209)" style="fill: #ff0000; fill-opacity: 0.7; stroke: #000000; stroke-opacity: 0.7; stroke-width: 0.5"/>
    <path d="M 525.234178 341.140471 
L 525.234178 341.10708 
L 525.200787 341.10708 
L 525.200787 341.140471 
L 525.234178 341.140471 
" clip-path="url(#p2cd8022209)" style="fill: #ff0000; fill-opacity: 0.7; stroke: #000000; stroke-opacity: 0.7; stroke-width: 0.5"/>
    <path d="M 575.647867 265.46553 
L 575.647867 265.432139 
L 575.614476 265.432139 
L 575.614476 265.46553 
L 575.647867 265.46553 
" clip-path="url(#p2cd8022209)" style="fill: #ff0000; fill-opacity: 0.7; stroke: #000000; stroke-opacity: 0.7; stroke-width: 0.5"/>
    <path d="M 543.320673 299.965565 
L 543.320673 299.932174 
L 543.287282 299.932174 
L 543.287282 299.965565 
L 543.320673 299.965565 
" clip-path="url(#p2cd8022209)" style="fill: #ff0000; fill-opacity: 0.7; stroke: #000000; stroke-opacity: 0.7; stroke-width: 0.5"/>
    <path d="M 284.029298 369.306722 
L 284.029298 369.273331 
L 283.995907 369.273331 
L 283.995907 369.306722 
L 284.029298 369.306722 
" clip-path="url(#p2cd8022209)" style="fill: #ff0000; fill-opacity: 0.7; stroke: #000000; stroke-opacity: 0.7; stroke-width: 0.5"/>
    <path d="M 581.075988 264.249381 
L 581.075988 264.215989 
L 581.042597 264.215989 
L 581.042597 264.249381 
L 581.075988 264.249381 
" clip-path="url(#p2cd8022209)" style="fill: #ff0000; fill-opacity: 0.7; stroke: #000000; stroke-opacity: 0.7; stroke-width: 0.5"/>
    <path d="M 322.06648 394.468706 
L 322.06648 394.435315 
L 322.033089 394.435315 
L 322.033089 394.468706 
L 322.06648 394.468706 
" clip-path="url(#p2cd8022209)" style="fill: #ff0000; fill-opacity: 0.7; stroke: #000000; stroke-opacity: 0.7; stroke-width: 0.5"/>
    <path d="M 509.299778 346.223502 
L 509.299778 346.19011 
L 509.266387 346.19011 
L 509.266387 346.223502 
L 509.299778 346.223502 
" clip-path="url(#p2cd8022209)" style="fill: #ff0000; fill-opacity: 0.7; stroke: #000000; stroke-opacity: 0.7; stroke-width: 0.5"/>
    <path d="M 408.013517 327.885139 
L 408.013517 327.851748 
L 407.980126 327.851748 
L 407.980126 327.885139 
L 408.013517 327.885139 
" clip-path="url(#p2cd8022209)" style="fill: #ff0000; fill-opacity: 0.7; stroke: #000000; stroke-opacity: 0.7; stroke-width: 0.5"/>
    <path d="M 409.010283 332.545094 
L 409.010283 332.511703 
L 408.976892 332.511703 
L 408.976892 332.545094 
L 409.010283 332.545094 
" clip-path="url(#p2cd8022209)" style="fill: #ff0000; fill-opacity: 0.7; stroke: #000000; stroke-opacity: 0.7; stroke-width: 0.5"/>
    <path d="M 397.429601 375.24899 
L 397.429601 375.215599 
L 397.39621 375.215599 
L 397.39621 375.24899 
L 397.429601 375.24899 
" clip-path="url(#p2cd8022209)" style="fill: #ff0000; fill-opacity: 0.7; stroke: #000000; stroke-opacity: 0.7; stroke-width: 0.5"/>
    <path d="M 451.975263 386.25076 
L 451.975263 386.217369 
L 451.941872 386.217369 
L 451.941872 386.25076 
L 451.975263 386.25076 
" clip-path="url(#p2cd8022209)" style="fill: #ff0000; fill-opacity: 0.7; stroke: #000000; stroke-opacity: 0.7; stroke-width: 0.5"/>
    <path d="M 298.464419 394.959436 
L 298.464419 394.926045 
L 298.431028 394.926045 
L 298.431028 394.959436 
L 298.464419 394.959436 
" clip-path="url(#p2cd8022209)" style="fill: #ff0000; fill-opacity: 0.7; stroke: #000000; stroke-opacity: 0.7; stroke-width: 0.5"/>
    <path d="M 486.783617 272.111906 
L 486.783617 272.078515 
L 486.750226 272.078515 
L 486.750226 272.111906 
L 486.783617 272.111906 
" clip-path="url(#p2cd8022209)" style="fill: #ff0000; fill-opacity: 0.7; stroke: #000000; stroke-opacity: 0.7; stroke-width: 0.5"/>
    <path d="M 529.645242 294.431613 
L 529.645242 294.398221 
L 529.611851 294.398221 
L 529.611851 294.431613 
L 529.645242 294.431613 
" clip-path="url(#p2cd8022209)" style="fill: #ff0000; fill-opacity: 0.7; stroke: #000000; stroke-opacity: 0.7; stroke-width: 0.5"/>
    <path d="M 319.062288 396.285222 
L 319.062288 396.251831 
L 319.028897 396.251831 
L 319.028897 396.285222 
L 319.062288 396.285222 
" clip-path="url(#p2cd8022209)" style="fill: #ff0000; fill-opacity: 0.7; stroke: #000000; stroke-opacity: 0.7; stroke-width: 0.5"/>
    <path d="M 541.436193 331.747405 
L 541.436193 331.714013 
L 541.402802 331.714013 
L 541.402802 331.747405 
L 541.436193 331.747405 
" clip-path="url(#p2cd8022209)" style="fill: #ff0000; fill-opacity: 0.7; stroke: #000000; stroke-opacity: 0.7; stroke-width: 0.5"/>
    <path d="M 422.43211 382.425677 
L 422.43211 382.392286 
L 422.398718 382.392286 
L 422.398718 382.425677 
L 422.43211 382.425677 
" clip-path="url(#p2cd8022209)" style="fill: #ff0000; fill-opacity: 0.7; stroke: #000000; stroke-opacity: 0.7; stroke-width: 0.5"/>
    <path d="M 466.854054 324.225205 
L 466.854054 324.191814 
L 466.820662 324.191814 
L 466.820662 324.225205 
L 466.854054 324.225205 
" clip-path="url(#p2cd8022209)" style="fill: #ff0000; fill-opacity: 0.7; stroke: #000000; stroke-opacity: 0.7; stroke-width: 0.5"/>
    <path d="M 409.01032 332.545065 
L 409.01032 332.511674 
L 408.976929 332.511674 
L 408.976929 332.545065 
L 409.01032 332.545065 
" clip-path="url(#p2cd8022209)" style="fill: #ff0000; fill-opacity: 0.7; stroke: #000000; stroke-opacity: 0.7; stroke-width: 0.5"/>
    <path d="M 509.977795 282.429019 
L 509.977795 282.395627 
L 509.944404 282.395627 
L 509.944404 282.429019 
L 509.977795 282.429019 
" clip-path="url(#p2cd8022209)" style="fill: #ff0000; fill-opacity: 0.7; stroke: #000000; stroke-opacity: 0.7; stroke-width: 0.5"/>
    <path d="M 546.159394 296.558039 
L 546.159394 296.524648 
L 546.126002 296.524648 
L 546.126002 296.558039 
L 546.159394 296.558039 
" clip-path="url(#p2cd8022209)" style="fill: #ff0000; fill-opacity: 0.7; stroke: #000000; stroke-opacity: 0.7; stroke-width: 0.5"/>
    <path d="M 565.256646 269.532072 
L 565.256646 269.498681 
L 565.223255 269.498681 
L 565.223255 269.532072 
L 565.256646 269.532072 
" clip-path="url(#p2cd8022209)" style="fill: #ff0000; fill-opacity: 0.7; stroke: #000000; stroke-opacity: 0.7; stroke-width: 0.5"/>
    <path d="M 397.429601 375.24899 
L 397.429601 375.215599 
L 397.39621 375.215599 
L 397.39621 375.24899 
L 397.429601 375.24899 
" clip-path="url(#p2cd8022209)" style="fill: #ff0000; fill-opacity: 0.7; stroke: #000000; stroke-opacity: 0.7; stroke-width: 0.5"/>
    <path d="M 568.252829 282.978702 
L 568.252829 282.945311 
L 568.219438 282.945311 
L 568.219438 282.978702 
L 568.252829 282.978702 
" clip-path="url(#p2cd8022209)" style="fill: #ff0000; fill-opacity: 0.7; stroke: #000000; stroke-opacity: 0.7; stroke-width: 0.5"/>
    <path d="M 570.518465 283.715108 
L 570.518465 283.681716 
L 570.485073 283.681716 
L 570.485073 283.715108 
L 570.518465 283.715108 
" clip-path="url(#p2cd8022209)" style="fill: #ff0000; fill-opacity: 0.7; stroke: #000000; stroke-opacity: 0.7; stroke-width: 0.5"/>
    <path d="M 500.577266 232.124637 
L 500.577266 232.091246 
L 500.543875 232.091246 
L 500.543875 232.124637 
L 500.577266 232.124637 
" clip-path="url(#p2cd8022209)" style="fill: #ff0000; fill-opacity: 0.7; stroke: #000000; stroke-opacity: 0.7; stroke-width: 0.5"/>
    <path d="M 508.186739 344.284202 
L 508.186739 344.250811 
L 508.153348 344.250811 
L 508.153348 344.284202 
L 508.186739 344.284202 
" clip-path="url(#p2cd8022209)" style="fill: #ff0000; fill-opacity: 0.7; stroke: #000000; stroke-opacity: 0.7; stroke-width: 0.5"/>
    <path d="M 444.371433 338.962353 
L 444.371433 338.928961 
L 444.338042 338.928961 
L 444.338042 338.962353 
L 444.371433 338.962353 
" clip-path="url(#p2cd8022209)" style="fill: #ff0000; fill-opacity: 0.7; stroke: #000000; stroke-opacity: 0.7; stroke-width: 0.5"/>
    <path d="M 578.480541 265.841638 
L 578.480541 265.808247 
L 578.44715 265.808247 
L 578.44715 265.841638 
L 578.480541 265.841638 
" clip-path="url(#p2cd8022209)" style="fill: #ff0000; fill-opacity: 0.7; stroke: #000000; stroke-opacity: 0.7; stroke-width: 0.5"/>
    <path d="M 511.573034 340.786164 
L 511.573034 340.752772 
L 511.539643 340.752772 
L 511.539643 340.786164 
L 511.573034 340.786164 
" clip-path="url(#p2cd8022209)" style="fill: #ff0000; fill-opacity: 0.7; stroke: #000000; stroke-opacity: 0.7; stroke-width: 0.5"/>
    <path d="M 354.932211 362.705577 
L 354.932211 362.672185 
L 354.89882 362.672185 
L 354.89882 362.705577 
L 354.932211 362.705577 
" clip-path="url(#p2cd8022209)" style="fill: #ff0000; fill-opacity: 0.7; stroke: #000000; stroke-opacity: 0.7; stroke-width: 0.5"/>
    <path d="M 500.577266 232.124633 
L 500.577266 232.091242 
L 500.543875 232.091242 
L 500.543875 232.124633 
L 500.577266 232.124633 
" clip-path="url(#p2cd8022209)" style="fill: #ff0000; fill-opacity: 0.7; stroke: #000000; stroke-opacity: 0.7; stroke-width: 0.5"/>
    <path d="M 495.111289 292.927369 
L 495.111289 292.893977 
L 495.077898 292.893977 
L 495.077898 292.927369 
L 495.111289 292.927369 
" clip-path="url(#p2cd8022209)" style="fill: #ff0000; fill-opacity: 0.7; stroke: #000000; stroke-opacity: 0.7; stroke-width: 0.5"/>
   </g>
   <g id="matplotlib.axis_1">
    <g id="xtick_1">
     <g id="line2d_1">
      <defs>
       <path id="m4139eabfde" d="M 0 0 
L 0 3.5 
" style="stroke: #000000; stroke-width: 0.8"/>
      </defs>
      <g>
       <use xlink:href="#m4139eabfde" x="115.336089" y="534.611332" style="stroke: #000000; stroke-width: 0.8"/>
      </g>
     </g>
     <g id="text_1">
      <!-- 370000 -->
      <g transform="translate(96.248589 549.209769) scale(0.1 -0.1)">
       <defs>
        <path id="DejaVuSans-33" d="M 2597 2516 
Q 3050 2419 3304 2112 
Q 3559 1806 3559 1356 
Q 3559 666 3084 287 
Q 2609 -91 1734 -91 
Q 1441 -91 1130 -33 
Q 819 25 488 141 
L 488 750 
Q 750 597 1062 519 
Q 1375 441 1716 441 
Q 2309 441 2620 675 
Q 2931 909 2931 1356 
Q 2931 1769 2642 2001 
Q 2353 2234 1838 2234 
L 1294 2234 
L 1294 2753 
L 1863 2753 
Q 2328 2753 2575 2939 
Q 2822 3125 2822 3475 
Q 2822 3834 2567 4026 
Q 2313 4219 1838 4219 
Q 1578 4219 1281 4162 
Q 984 4106 628 3988 
L 628 4550 
Q 988 4650 1302 4700 
Q 1616 4750 1894 4750 
Q 2613 4750 3031 4423 
Q 3450 4097 3450 3541 
Q 3450 3153 3228 2886 
Q 3006 2619 2597 2516 
z
" transform="scale(0.015625)"/>
        <path id="DejaVuSans-37" d="M 525 4666 
L 3525 4666 
L 3525 4397 
L 1831 0 
L 1172 0 
L 2766 4134 
L 525 4134 
L 525 4666 
z
" transform="scale(0.015625)"/>
        <path id="DejaVuSans-30" d="M 2034 4250 
Q 1547 4250 1301 3770 
Q 1056 3291 1056 2328 
Q 1056 1369 1301 889 
Q 1547 409 2034 409 
Q 2525 409 2770 889 
Q 3016 1369 3016 2328 
Q 3016 3291 2770 3770 
Q 2525 4250 2034 4250 
z
M 2034 4750 
Q 2819 4750 3233 4129 
Q 3647 3509 3647 2328 
Q 3647 1150 3233 529 
Q 2819 -91 2034 -91 
Q 1250 -91 836 529 
Q 422 1150 422 2328 
Q 422 3509 836 4129 
Q 1250 4750 2034 4750 
z
" transform="scale(0.015625)"/>
       </defs>
       <use xlink:href="#DejaVuSans-33"/>
       <use xlink:href="#DejaVuSans-37" x="63.623047"/>
       <use xlink:href="#DejaVuSans-30" x="127.246094"/>
       <use xlink:href="#DejaVuSans-30" x="190.869141"/>
       <use xlink:href="#DejaVuSans-30" x="254.492188"/>
       <use xlink:href="#DejaVuSans-30" x="318.115234"/>
      </g>
     </g>
    </g>
    <g id="xtick_2">
     <g id="line2d_2">
      <g>
       <use xlink:href="#m4139eabfde" x="182.118479" y="534.611332" style="stroke: #000000; stroke-width: 0.8"/>
      </g>
     </g>
     <g id="text_2">
      <!-- 372000 -->
      <g transform="translate(163.030979 549.209769) scale(0.1 -0.1)">
       <defs>
        <path id="DejaVuSans-32" d="M 1228 531 
L 3431 531 
L 3431 0 
L 469 0 
L 469 531 
Q 828 903 1448 1529 
Q 2069 2156 2228 2338 
Q 2531 2678 2651 2914 
Q 2772 3150 2772 3378 
Q 2772 3750 2511 3984 
Q 2250 4219 1831 4219 
Q 1534 4219 1204 4116 
Q 875 4013 500 3803 
L 500 4441 
Q 881 4594 1212 4672 
Q 1544 4750 1819 4750 
Q 2544 4750 2975 4387 
Q 3406 4025 3406 3419 
Q 3406 3131 3298 2873 
Q 3191 2616 2906 2266 
Q 2828 2175 2409 1742 
Q 1991 1309 1228 531 
z
" transform="scale(0.015625)"/>
       </defs>
       <use xlink:href="#DejaVuSans-33"/>
       <use xlink:href="#DejaVuSans-37" x="63.623047"/>
       <use xlink:href="#DejaVuSans-32" x="127.246094"/>
       <use xlink:href="#DejaVuSans-30" x="190.869141"/>
       <use xlink:href="#DejaVuSans-30" x="254.492188"/>
       <use xlink:href="#DejaVuSans-30" x="318.115234"/>
      </g>
     </g>
    </g>
    <g id="xtick_3">
     <g id="line2d_3">
      <g>
       <use xlink:href="#m4139eabfde" x="248.90087" y="534.611332" style="stroke: #000000; stroke-width: 0.8"/>
      </g>
     </g>
     <g id="text_3">
      <!-- 374000 -->
      <g transform="translate(229.81337 549.209769) scale(0.1 -0.1)">
       <defs>
        <path id="DejaVuSans-34" d="M 2419 4116 
L 825 1625 
L 2419 1625 
L 2419 4116 
z
M 2253 4666 
L 3047 4666 
L 3047 1625 
L 3713 1625 
L 3713 1100 
L 3047 1100 
L 3047 0 
L 2419 0 
L 2419 1100 
L 313 1100 
L 313 1709 
L 2253 4666 
z
" transform="scale(0.015625)"/>
       </defs>
       <use xlink:href="#DejaVuSans-33"/>
       <use xlink:href="#DejaVuSans-37" x="63.623047"/>
       <use xlink:href="#DejaVuSans-34" x="127.246094"/>
       <use xlink:href="#DejaVuSans-30" x="190.869141"/>
       <use xlink:href="#DejaVuSans-30" x="254.492188"/>
       <use xlink:href="#DejaVuSans-30" x="318.115234"/>
      </g>
     </g>
    </g>
    <g id="xtick_4">
     <g id="line2d_4">
      <g>
       <use xlink:href="#m4139eabfde" x="315.68326" y="534.611332" style="stroke: #000000; stroke-width: 0.8"/>
      </g>
     </g>
     <g id="text_4">
      <!-- 376000 -->
      <g transform="translate(296.59576 549.209769) scale(0.1 -0.1)">
       <defs>
        <path id="DejaVuSans-36" d="M 2113 2584 
Q 1688 2584 1439 2293 
Q 1191 2003 1191 1497 
Q 1191 994 1439 701 
Q 1688 409 2113 409 
Q 2538 409 2786 701 
Q 3034 994 3034 1497 
Q 3034 2003 2786 2293 
Q 2538 2584 2113 2584 
z
M 3366 4563 
L 3366 3988 
Q 3128 4100 2886 4159 
Q 2644 4219 2406 4219 
Q 1781 4219 1451 3797 
Q 1122 3375 1075 2522 
Q 1259 2794 1537 2939 
Q 1816 3084 2150 3084 
Q 2853 3084 3261 2657 
Q 3669 2231 3669 1497 
Q 3669 778 3244 343 
Q 2819 -91 2113 -91 
Q 1303 -91 875 529 
Q 447 1150 447 2328 
Q 447 3434 972 4092 
Q 1497 4750 2381 4750 
Q 2619 4750 2861 4703 
Q 3103 4656 3366 4563 
z
" transform="scale(0.015625)"/>
       </defs>
       <use xlink:href="#DejaVuSans-33"/>
       <use xlink:href="#DejaVuSans-37" x="63.623047"/>
       <use xlink:href="#DejaVuSans-36" x="127.246094"/>
       <use xlink:href="#DejaVuSans-30" x="190.869141"/>
       <use xlink:href="#DejaVuSans-30" x="254.492188"/>
       <use xlink:href="#DejaVuSans-30" x="318.115234"/>
      </g>
     </g>
    </g>
    <g id="xtick_5">
     <g id="line2d_5">
      <g>
       <use xlink:href="#m4139eabfde" x="382.465651" y="534.611332" style="stroke: #000000; stroke-width: 0.8"/>
      </g>
     </g>
     <g id="text_5">
      <!-- 378000 -->
      <g transform="translate(363.378151 549.209769) scale(0.1 -0.1)">
       <defs>
        <path id="DejaVuSans-38" d="M 2034 2216 
Q 1584 2216 1326 1975 
Q 1069 1734 1069 1313 
Q 1069 891 1326 650 
Q 1584 409 2034 409 
Q 2484 409 2743 651 
Q 3003 894 3003 1313 
Q 3003 1734 2745 1975 
Q 2488 2216 2034 2216 
z
M 1403 2484 
Q 997 2584 770 2862 
Q 544 3141 544 3541 
Q 544 4100 942 4425 
Q 1341 4750 2034 4750 
Q 2731 4750 3128 4425 
Q 3525 4100 3525 3541 
Q 3525 3141 3298 2862 
Q 3072 2584 2669 2484 
Q 3125 2378 3379 2068 
Q 3634 1759 3634 1313 
Q 3634 634 3220 271 
Q 2806 -91 2034 -91 
Q 1263 -91 848 271 
Q 434 634 434 1313 
Q 434 1759 690 2068 
Q 947 2378 1403 2484 
z
M 1172 3481 
Q 1172 3119 1398 2916 
Q 1625 2713 2034 2713 
Q 2441 2713 2670 2916 
Q 2900 3119 2900 3481 
Q 2900 3844 2670 4047 
Q 2441 4250 2034 4250 
Q 1625 4250 1398 4047 
Q 1172 3844 1172 3481 
z
" transform="scale(0.015625)"/>
       </defs>
       <use xlink:href="#DejaVuSans-33"/>
       <use xlink:href="#DejaVuSans-37" x="63.623047"/>
       <use xlink:href="#DejaVuSans-38" x="127.246094"/>
       <use xlink:href="#DejaVuSans-30" x="190.869141"/>
       <use xlink:href="#DejaVuSans-30" x="254.492188"/>
       <use xlink:href="#DejaVuSans-30" x="318.115234"/>
      </g>
     </g>
    </g>
    <g id="xtick_6">
     <g id="line2d_6">
      <g>
       <use xlink:href="#m4139eabfde" x="449.248041" y="534.611332" style="stroke: #000000; stroke-width: 0.8"/>
      </g>
     </g>
     <g id="text_6">
      <!-- 380000 -->
      <g transform="translate(430.160541 549.209769) scale(0.1 -0.1)">
       <use xlink:href="#DejaVuSans-33"/>
       <use xlink:href="#DejaVuSans-38" x="63.623047"/>
       <use xlink:href="#DejaVuSans-30" x="127.246094"/>
       <use xlink:href="#DejaVuSans-30" x="190.869141"/>
       <use xlink:href="#DejaVuSans-30" x="254.492188"/>
       <use xlink:href="#DejaVuSans-30" x="318.115234"/>
      </g>
     </g>
    </g>
    <g id="xtick_7">
     <g id="line2d_7">
      <g>
       <use xlink:href="#m4139eabfde" x="516.030432" y="534.611332" style="stroke: #000000; stroke-width: 0.8"/>
      </g>
     </g>
     <g id="text_7">
      <!-- 382000 -->
      <g transform="translate(496.942932 549.209769) scale(0.1 -0.1)">
       <use xlink:href="#DejaVuSans-33"/>
       <use xlink:href="#DejaVuSans-38" x="63.623047"/>
       <use xlink:href="#DejaVuSans-32" x="127.246094"/>
       <use xlink:href="#DejaVuSans-30" x="190.869141"/>
       <use xlink:href="#DejaVuSans-30" x="254.492188"/>
       <use xlink:href="#DejaVuSans-30" x="318.115234"/>
      </g>
     </g>
    </g>
    <g id="xtick_8">
     <g id="line2d_8">
      <g>
       <use xlink:href="#m4139eabfde" x="582.812822" y="534.611332" style="stroke: #000000; stroke-width: 0.8"/>
      </g>
     </g>
     <g id="text_8">
      <!-- 384000 -->
      <g transform="translate(563.725322 549.209769) scale(0.1 -0.1)">
       <use xlink:href="#DejaVuSans-33"/>
       <use xlink:href="#DejaVuSans-38" x="63.623047"/>
       <use xlink:href="#DejaVuSans-34" x="127.246094"/>
       <use xlink:href="#DejaVuSans-30" x="190.869141"/>
       <use xlink:href="#DejaVuSans-30" x="254.492188"/>
       <use xlink:href="#DejaVuSans-30" x="318.115234"/>
      </g>
     </g>
    </g>
   </g>
   <g id="matplotlib.axis_2">
    <g id="ytick_1">
     <g id="line2d_9">
      <defs>
       <path id="mfaad8d6b60" d="M 0 0 
L -3.5 0 
" style="stroke: #000000; stroke-width: 0.8"/>
      </defs>
      <g>
       <use xlink:href="#mfaad8d6b60" x="90" y="510.750544" style="stroke: #000000; stroke-width: 0.8"/>
      </g>
     </g>
     <g id="text_9">
      <!-- 5.806 -->
      <g transform="translate(54.371875 514.549763) scale(0.1 -0.1)">
       <defs>
        <path id="DejaVuSans-35" d="M 691 4666 
L 3169 4666 
L 3169 4134 
L 1269 4134 
L 1269 2991 
Q 1406 3038 1543 3061 
Q 1681 3084 1819 3084 
Q 2600 3084 3056 2656 
Q 3513 2228 3513 1497 
Q 3513 744 3044 326 
Q 2575 -91 1722 -91 
Q 1428 -91 1123 -41 
Q 819 9 494 109 
L 494 744 
Q 775 591 1075 516 
Q 1375 441 1709 441 
Q 2250 441 2565 725 
Q 2881 1009 2881 1497 
Q 2881 1984 2565 2268 
Q 2250 2553 1709 2553 
Q 1456 2553 1204 2497 
Q 953 2441 691 2322 
L 691 4666 
z
" transform="scale(0.015625)"/>
        <path id="DejaVuSans-2e" d="M 684 794 
L 1344 794 
L 1344 0 
L 684 0 
L 684 794 
z
" transform="scale(0.015625)"/>
       </defs>
       <use xlink:href="#DejaVuSans-35"/>
       <use xlink:href="#DejaVuSans-2e" x="63.623047"/>
       <use xlink:href="#DejaVuSans-38" x="95.410156"/>
       <use xlink:href="#DejaVuSans-30" x="159.033203"/>
       <use xlink:href="#DejaVuSans-36" x="222.65625"/>
      </g>
     </g>
    </g>
    <g id="ytick_2">
     <g id="line2d_10">
      <g>
       <use xlink:href="#mfaad8d6b60" x="90" y="443.968153" style="stroke: #000000; stroke-width: 0.8"/>
      </g>
     </g>
     <g id="text_10">
      <!-- 5.808 -->
      <g transform="translate(54.371875 447.767372) scale(0.1 -0.1)">
       <use xlink:href="#DejaVuSans-35"/>
       <use xlink:href="#DejaVuSans-2e" x="63.623047"/>
       <use xlink:href="#DejaVuSans-38" x="95.410156"/>
       <use xlink:href="#DejaVuSans-30" x="159.033203"/>
       <use xlink:href="#DejaVuSans-38" x="222.65625"/>
      </g>
     </g>
    </g>
    <g id="ytick_3">
     <g id="line2d_11">
      <g>
       <use xlink:href="#mfaad8d6b60" x="90" y="377.185763" style="stroke: #000000; stroke-width: 0.8"/>
      </g>
     </g>
     <g id="text_11">
      <!-- 5.810 -->
      <g transform="translate(54.371875 380.984982) scale(0.1 -0.1)">
       <defs>
        <path id="DejaVuSans-31" d="M 794 531 
L 1825 531 
L 1825 4091 
L 703 3866 
L 703 4441 
L 1819 4666 
L 2450 4666 
L 2450 531 
L 3481 531 
L 3481 0 
L 794 0 
L 794 531 
z
" transform="scale(0.015625)"/>
       </defs>
       <use xlink:href="#DejaVuSans-35"/>
       <use xlink:href="#DejaVuSans-2e" x="63.623047"/>
       <use xlink:href="#DejaVuSans-38" x="95.410156"/>
       <use xlink:href="#DejaVuSans-31" x="159.033203"/>
       <use xlink:href="#DejaVuSans-30" x="222.65625"/>
      </g>
     </g>
    </g>
    <g id="ytick_4">
     <g id="line2d_12">
      <g>
       <use xlink:href="#mfaad8d6b60" x="90" y="310.403372" style="stroke: #000000; stroke-width: 0.8"/>
      </g>
     </g>
     <g id="text_12">
      <!-- 5.812 -->
      <g transform="translate(54.371875 314.202591) scale(0.1 -0.1)">
       <use xlink:href="#DejaVuSans-35"/>
       <use xlink:href="#DejaVuSans-2e" x="63.623047"/>
       <use xlink:href="#DejaVuSans-38" x="95.410156"/>
       <use xlink:href="#DejaVuSans-31" x="159.033203"/>
       <use xlink:href="#DejaVuSans-32" x="222.65625"/>
      </g>
     </g>
    </g>
    <g id="ytick_5">
     <g id="line2d_13">
      <g>
       <use xlink:href="#mfaad8d6b60" x="90" y="243.620982" style="stroke: #000000; stroke-width: 0.8"/>
      </g>
     </g>
     <g id="text_13">
      <!-- 5.814 -->
      <g transform="translate(54.371875 247.420201) scale(0.1 -0.1)">
       <use xlink:href="#DejaVuSans-35"/>
       <use xlink:href="#DejaVuSans-2e" x="63.623047"/>
       <use xlink:href="#DejaVuSans-38" x="95.410156"/>
       <use xlink:href="#DejaVuSans-31" x="159.033203"/>
       <use xlink:href="#DejaVuSans-34" x="222.65625"/>
      </g>
     </g>
    </g>
    <g id="text_14">
     <!-- 1e6 -->
     <g transform="translate(90 189.588668) scale(0.1 -0.1)">
      <defs>
       <path id="DejaVuSans-65" d="M 3597 1894 
L 3597 1613 
L 953 1613 
Q 991 1019 1311 708 
Q 1631 397 2203 397 
Q 2534 397 2845 478 
Q 3156 559 3463 722 
L 3463 178 
Q 3153 47 2828 -22 
Q 2503 -91 2169 -91 
Q 1331 -91 842 396 
Q 353 884 353 1716 
Q 353 2575 817 3079 
Q 1281 3584 2069 3584 
Q 2775 3584 3186 3129 
Q 3597 2675 3597 1894 
z
M 3022 2063 
Q 3016 2534 2758 2815 
Q 2500 3097 2075 3097 
Q 1594 3097 1305 2825 
Q 1016 2553 972 2059 
L 3022 2063 
z
" transform="scale(0.015625)"/>
      </defs>
      <use xlink:href="#DejaVuSans-31"/>
      <use xlink:href="#DejaVuSans-65" x="63.623047"/>
      <use xlink:href="#DejaVuSans-36" x="125.146484"/>
     </g>
    </g>
   </g>
   <g id="patch_3">
    <path d="M 90 534.611332 
L 90 192.588668 
" style="fill: none; stroke: #000000; stroke-width: 0.8; stroke-linejoin: miter; stroke-linecap: square"/>
   </g>
   <g id="patch_4">
    <path d="M 648 534.611332 
L 648 192.588668 
" style="fill: none; stroke: #000000; stroke-width: 0.8; stroke-linejoin: miter; stroke-linecap: square"/>
   </g>
   <g id="patch_5">
    <path d="M 90 534.611332 
L 648 534.611332 
" style="fill: none; stroke: #000000; stroke-width: 0.8; stroke-linejoin: miter; stroke-linecap: square"/>
   </g>
   <g id="patch_6">
    <path d="M 90 192.588668 
L 648 192.588668 
" style="fill: none; stroke: #000000; stroke-width: 0.8; stroke-linejoin: miter; stroke-linecap: square"/>
   </g>
   <g id="text_15">
    <!-- Zehlendorf_Nord_Wannsee -->
    <g transform="translate(277.499053 341.515334) scale(0.12 -0.12)">
     <defs>
      <path id="DejaVuSans-5a" d="M 359 4666 
L 4025 4666 
L 4025 4184 
L 1075 531 
L 4097 531 
L 4097 0 
L 288 0 
L 288 481 
L 3238 4134 
L 359 4134 
L 359 4666 
z
" transform="scale(0.015625)"/>
      <path id="DejaVuSans-68" d="M 3513 2113 
L 3513 0 
L 2938 0 
L 2938 2094 
Q 2938 2591 2744 2837 
Q 2550 3084 2163 3084 
Q 1697 3084 1428 2787 
Q 1159 2491 1159 1978 
L 1159 0 
L 581 0 
L 581 4863 
L 1159 4863 
L 1159 2956 
Q 1366 3272 1645 3428 
Q 1925 3584 2291 3584 
Q 2894 3584 3203 3211 
Q 3513 2838 3513 2113 
z
" transform="scale(0.015625)"/>
      <path id="DejaVuSans-6c" d="M 603 4863 
L 1178 4863 
L 1178 0 
L 603 0 
L 603 4863 
z
" transform="scale(0.015625)"/>
      <path id="DejaVuSans-6e" d="M 3513 2113 
L 3513 0 
L 2938 0 
L 2938 2094 
Q 2938 2591 2744 2837 
Q 2550 3084 2163 3084 
Q 1697 3084 1428 2787 
Q 1159 2491 1159 1978 
L 1159 0 
L 581 0 
L 581 3500 
L 1159 3500 
L 1159 2956 
Q 1366 3272 1645 3428 
Q 1925 3584 2291 3584 
Q 2894 3584 3203 3211 
Q 3513 2838 3513 2113 
z
" transform="scale(0.015625)"/>
      <path id="DejaVuSans-64" d="M 2906 2969 
L 2906 4863 
L 3481 4863 
L 3481 0 
L 2906 0 
L 2906 525 
Q 2725 213 2448 61 
Q 2172 -91 1784 -91 
Q 1150 -91 751 415 
Q 353 922 353 1747 
Q 353 2572 751 3078 
Q 1150 3584 1784 3584 
Q 2172 3584 2448 3432 
Q 2725 3281 2906 2969 
z
M 947 1747 
Q 947 1113 1208 752 
Q 1469 391 1925 391 
Q 2381 391 2643 752 
Q 2906 1113 2906 1747 
Q 2906 2381 2643 2742 
Q 2381 3103 1925 3103 
Q 1469 3103 1208 2742 
Q 947 2381 947 1747 
z
" transform="scale(0.015625)"/>
      <path id="DejaVuSans-6f" d="M 1959 3097 
Q 1497 3097 1228 2736 
Q 959 2375 959 1747 
Q 959 1119 1226 758 
Q 1494 397 1959 397 
Q 2419 397 2687 759 
Q 2956 1122 2956 1747 
Q 2956 2369 2687 2733 
Q 2419 3097 1959 3097 
z
M 1959 3584 
Q 2709 3584 3137 3096 
Q 3566 2609 3566 1747 
Q 3566 888 3137 398 
Q 2709 -91 1959 -91 
Q 1206 -91 779 398 
Q 353 888 353 1747 
Q 353 2609 779 3096 
Q 1206 3584 1959 3584 
z
" transform="scale(0.015625)"/>
      <path id="DejaVuSans-72" d="M 2631 2963 
Q 2534 3019 2420 3045 
Q 2306 3072 2169 3072 
Q 1681 3072 1420 2755 
Q 1159 2438 1159 1844 
L 1159 0 
L 581 0 
L 581 3500 
L 1159 3500 
L 1159 2956 
Q 1341 3275 1631 3429 
Q 1922 3584 2338 3584 
Q 2397 3584 2469 3576 
Q 2541 3569 2628 3553 
L 2631 2963 
z
" transform="scale(0.015625)"/>
      <path id="DejaVuSans-66" d="M 2375 4863 
L 2375 4384 
L 1825 4384 
Q 1516 4384 1395 4259 
Q 1275 4134 1275 3809 
L 1275 3500 
L 2222 3500 
L 2222 3053 
L 1275 3053 
L 1275 0 
L 697 0 
L 697 3053 
L 147 3053 
L 147 3500 
L 697 3500 
L 697 3744 
Q 697 4328 969 4595 
Q 1241 4863 1831 4863 
L 2375 4863 
z
" transform="scale(0.015625)"/>
      <path id="DejaVuSans-5f" d="M 3263 -1063 
L 3263 -1509 
L -63 -1509 
L -63 -1063 
L 3263 -1063 
z
" transform="scale(0.015625)"/>
      <path id="DejaVuSans-4e" d="M 628 4666 
L 1478 4666 
L 3547 763 
L 3547 4666 
L 4159 4666 
L 4159 0 
L 3309 0 
L 1241 3903 
L 1241 0 
L 628 0 
L 628 4666 
z
" transform="scale(0.015625)"/>
      <path id="DejaVuSans-57" d="M 213 4666 
L 850 4666 
L 1831 722 
L 2809 4666 
L 3519 4666 
L 4500 722 
L 5478 4666 
L 6119 4666 
L 4947 0 
L 4153 0 
L 3169 4050 
L 2175 0 
L 1381 0 
L 213 4666 
z
" transform="scale(0.015625)"/>
      <path id="DejaVuSans-61" d="M 2194 1759 
Q 1497 1759 1228 1600 
Q 959 1441 959 1056 
Q 959 750 1161 570 
Q 1363 391 1709 391 
Q 2188 391 2477 730 
Q 2766 1069 2766 1631 
L 2766 1759 
L 2194 1759 
z
M 3341 1997 
L 3341 0 
L 2766 0 
L 2766 531 
Q 2569 213 2275 61 
Q 1981 -91 1556 -91 
Q 1019 -91 701 211 
Q 384 513 384 1019 
Q 384 1609 779 1909 
Q 1175 2209 1959 2209 
L 2766 2209 
L 2766 2266 
Q 2766 2663 2505 2880 
Q 2244 3097 1772 3097 
Q 1472 3097 1187 3025 
Q 903 2953 641 2809 
L 641 3341 
Q 956 3463 1253 3523 
Q 1550 3584 1831 3584 
Q 2591 3584 2966 3190 
Q 3341 2797 3341 1997 
z
" transform="scale(0.015625)"/>
      <path id="DejaVuSans-73" d="M 2834 3397 
L 2834 2853 
Q 2591 2978 2328 3040 
Q 2066 3103 1784 3103 
Q 1356 3103 1142 2972 
Q 928 2841 928 2578 
Q 928 2378 1081 2264 
Q 1234 2150 1697 2047 
L 1894 2003 
Q 2506 1872 2764 1633 
Q 3022 1394 3022 966 
Q 3022 478 2636 193 
Q 2250 -91 1575 -91 
Q 1294 -91 989 -36 
Q 684 19 347 128 
L 347 722 
Q 666 556 975 473 
Q 1284 391 1588 391 
Q 1994 391 2212 530 
Q 2431 669 2431 922 
Q 2431 1156 2273 1281 
Q 2116 1406 1581 1522 
L 1381 1569 
Q 847 1681 609 1914 
Q 372 2147 372 2553 
Q 372 3047 722 3315 
Q 1072 3584 1716 3584 
Q 2034 3584 2315 3537 
Q 2597 3491 2834 3397 
z
" transform="scale(0.015625)"/>
     </defs>
     <use xlink:href="#DejaVuSans-5a"/>
     <use xlink:href="#DejaVuSans-65" x="68.505859"/>
     <use xlink:href="#DejaVuSans-68" x="130.029297"/>
     <use xlink:href="#DejaVuSans-6c" x="193.408203"/>
     <use xlink:href="#DejaVuSans-65" x="221.191406"/>
     <use xlink:href="#DejaVuSans-6e" x="282.714844"/>
     <use xlink:href="#DejaVuSans-64" x="346.09375"/>
     <use xlink:href="#DejaVuSans-6f" x="409.570312"/>
     <use xlink:href="#DejaVuSans-72" x="470.751953"/>
     <use xlink:href="#DejaVuSans-66" x="511.865234"/>
     <use xlink:href="#DejaVuSans-5f" x="547.070312"/>
     <use xlink:href="#DejaVuSans-4e" x="597.070312"/>
     <use xlink:href="#DejaVuSans-6f" x="671.875"/>
     <use xlink:href="#DejaVuSans-72" x="733.056641"/>
     <use xlink:href="#DejaVuSans-64" x="772.419922"/>
     <use xlink:href="#DejaVuSans-5f" x="835.896484"/>
     <use xlink:href="#DejaVuSans-57" x="885.896484"/>
     <use xlink:href="#DejaVuSans-61" x="978.398438"/>
     <use xlink:href="#DejaVuSans-6e" x="1039.677734"/>
     <use xlink:href="#DejaVuSans-6e" x="1103.056641"/>
     <use xlink:href="#DejaVuSans-73" x="1166.435547"/>
     <use xlink:href="#DejaVuSans-65" x="1218.535156"/>
     <use xlink:href="#DejaVuSans-65" x="1280.058594"/>
    </g>
   </g>
  </g>
 </g>
 <defs>
  <clipPath id="p2cd8022209">
   <rect x="90" y="192.588668" width="558" height="342.022664"/>
  </clipPath>
 </defs>
</svg>
