<?xml version="1.0" encoding="utf-8" standalone="no"?>
<!DOCTYPE svg PUBLIC "-//W3C//DTD SVG 1.1//EN"
  "http://www.w3.org/Graphics/SVG/1.1/DTD/svg11.dtd">
<svg xmlns:xlink="http://www.w3.org/1999/xlink" width="460.8pt" height="345.6pt" viewBox="0 0 460.8 345.6" xmlns="http://www.w3.org/2000/svg" version="1.1">
 <metadata>
  <rdf:RDF xmlns:dc="http://purl.org/dc/elements/1.1/" xmlns:cc="http://creativecommons.org/ns#" xmlns:rdf="http://www.w3.org/1999/02/22-rdf-syntax-ns#">
   <cc:Work>
    <dc:type rdf:resource="http://purl.org/dc/dcmitype/StillImage"/>
    <dc:date>2024-10-15T09:53:30.308500</dc:date>
    <dc:format>image/svg+xml</dc:format>
    <dc:creator>
     <cc:Agent>
      <dc:title>Matplotlib v3.8.4, https://matplotlib.org/</dc:title>
     </cc:Agent>
    </dc:creator>
   </cc:Work>
  </rdf:RDF>
 </metadata>
 <defs>
  <style type="text/css">*{stroke-linejoin: round; stroke-linecap: butt}</style>
 </defs>
 <g id="figure_1">
  <g id="patch_1">
   <path d="M 0 345.6 
L 460.8 345.6 
L 460.8 0 
L 0 0 
z
" style="fill: #ffffff"/>
  </g>
  <g id="axes_1">
   <g id="patch_2">
    <path d="M 119.286733 307.584 
L 353.033267 307.584 
L 353.033267 41.472 
L 119.286733 41.472 
z
" style="fill: #ffffff"/>
   </g>
   <g id="PatchCollection_1">
    <path d="M 284.164475 80.134474 
L 283.759104 79.146485 
L 283.196077 77.772435 
L 282.933293 77.666612 
L 282.626014 77.44503 
L 282.326451 77.140765 
L 281.967332 76.420466 
L 281.682722 75.849617 
L 281.663433 75.857197 
L 281.469112 75.489223 
L 281.325772 75.217787 
L 281.209446 74.997509 
L 281.112699 74.814306 
L 281.022641 74.854981 
L 280.913884 74.624282 
L 280.813048 74.410385 
L 280.703837 74.178725 
L 280.596255 73.950522 
L 280.185193 73.078576 
L 280.0792 72.853744 
L 280.012692 72.712669 
L 279.811691 72.468292 
L 279.695462 72.326981 
L 279.505519 72.07093 
L 279.331885 71.86159 
L 278.279415 72.248181 
L 278.189849 72.28108 
L 278.02767 71.998217 
L 278.006008 71.961204 
L 277.933834 71.837884 
L 276.090051 68.686406 
L 273.218689 63.773974 
L 272.15531 61.088627 
L 271.799526 58.280922 
L 271.895237 57.190899 
L 272.052789 55.394249 
L 272.669789 53.700493 
L 272.695975 53.694746 
L 272.721057 53.685422 
L 272.744603 53.672608 
L 272.766146 53.656632 
L 272.785218 53.63778 
L 272.801432 53.616456 
L 272.81452 53.593023 
L 272.824216 53.568 
L 272.087463 53.725616 
L 272.063885 53.61689 
L 271.909781 53.622255 
L 271.755781 53.630627 
L 271.602003 53.642001 
L 271.448447 53.656379 
L 271.274703 53.676177 
L 271.101436 53.699804 
L 270.928725 53.727258 
L 270.756648 53.758538 
L 270.585325 53.79364 
L 270.414834 53.832524 
L 269.190347 54.125054 
L 269.083668 54.151764 
L 268.977464 54.180285 
L 268.871771 54.210615 
L 268.766593 54.242795 
L 268.72626 54.255692 
L 268.686051 54.268825 
L 268.645887 54.282233 
L 268.562635 54.308955 
L 265.395541 55.370871 
L 264.797463 55.576864 
L 264.70398 55.609111 
L 264.047954 55.835429 
L 262.385137 56.408333 
L 261.651356 56.661345 
L 261.575793 56.68739 
L 260.609251 57.020689 
L 260.092394 57.198829 
L 259.718776 57.325562 
L 259.308118 57.460258 
L 259.115582 57.520879 
L 258.898211 57.587537 
L 258.76011 57.629811 
L 258.520657 57.701971 
L 258.44081 57.726168 
L 257.829835 57.911329 
L 250.731512 60.029253 
L 249.810864 59.267315 
L 249.364451 59.40597 
L 248.958306 59.53212 
L 248.561391 59.645882 
L 248.440518 59.675364 
L 247.834586 59.823323 
L 247.723302 59.850501 
L 247.674969 59.862309 
L 247.610092 59.878116 
L 247.561961 59.890118 
L 247.428592 59.924461 
L 247.311524 59.954534 
L 247.178035 59.988801 
L 246.897496 60.056757 
L 246.146235 60.248544 
L 245.747725 60.350435 
L 244.73176 60.609764 
L 243.926452 60.815591 
L 243.245762 60.967752 
L 243.013782 61.019625 
L 242.360293 61.147178 
L 241.706034 61.268259 
L 241.048561 61.377619 
L 240.980296 61.388277 
L 240.862897 61.406567 
L 240.389013 61.480495 
L 240.27265 61.495478 
L 240.050564 61.524345 
L 239.729528 61.566077 
L 239.575141 61.581804 
L 239.264711 61.613413 
L 239.114541 61.628733 
L 238.361386 61.695331 
L 237.120131 61.832296 
L 236.374068 61.908999 
L 235.708667 61.99306 
L 235.039637 62.06996 
L 234.371427 62.146448 
L 233.711569 62.232811 
L 233.565065 62.25138 
L 233.290764 62.287717 
L 233.211039 62.298191 
L 233.194848 62.300204 
L 233.082386 62.314751 
L 233.048473 62.319246 
L 232.474602 62.394291 
L 231.806584 62.483211 
L 230.391868 62.672224 
L 230.235306 62.693269 
L 229.724922 62.761326 
L 229.062652 62.849221 
L 228.403675 62.965226 
L 228.185843 62.998842 
L 227.745375 63.066812 
L 227.482929 63.103257 
L 227.086552 63.156934 
L 226.425889 63.249672 
L 226.016696 63.311624 
L 226.023061 63.353913 
L 225.846698 63.379864 
L 225.588121 63.418008 
L 225.582153 63.37765 
L 225.489393 63.391735 
L 225.273164 63.424567 
L 225.176389 63.439253 
L 225.097528 63.451255 
L 224.912759 63.479368 
L 224.510265 63.540545 
L 224.457823 63.54857 
L 224.442389 63.550884 
L 223.950996 63.625628 
L 222.984194 64.081178 
L 222.896211 64.107903 
L 222.392864 64.261709 
L 222.338044 64.278493 
L 222.123749 64.344017 
L 222.110132 64.348152 
L 221.635831 64.493413 
L 220.971107 64.699289 
L 220.861823 64.732811 
L 219.866571 65.037731 
L 219.651538 65.101968 
L 218.92206 65.290657 
L 218.272649 65.457345 
L 216.437684 65.932637 
L 214.699177 66.279912 
L 214.040548 66.411038 
L 210.033159 67.211553 
L 209.526828 67.312622 
L 209.022594 67.415625 
L 207.300974 67.768101 
L 205.7369 68.088463 
L 205.038483 68.231252 
L 205.036476 68.23167 
L 204.052018 68.436882 
L 203.684334 68.508702 
L 203.026114 68.643418 
L 202.365967 68.778534 
L 201.987174 68.860731 
L 199.248957 69.330376 
L 196.514695 69.799657 
L 193.431653 70.330073 
L 193.004674 70.404873 
L 193.035667 70.610906 
L 193.269844 72.185779 
L 193.42357 73.215417 
L 193.604235 74.430123 
L 192.4598 74.169092 
L 188.75388 73.32362 
L 188.508544 73.960761 
L 187.999421 75.274351 
L 187.052196 77.719707 
L 186.965183 77.944234 
L 186.560753 78.990092 
L 186.993766 79.247158 
L 189.027167 80.465255 
L 190.485263 81.337159 
L 192.01754 82.253478 
L 192.305787 82.425545 
L 192.646262 82.629082 
L 195.348673 84.239345 
L 196.049772 84.65814 
L 196.660309 85.022836 
L 196.991698 85.233941 
L 197.315263 85.461285 
L 197.554213 85.651693 
L 197.667376 85.741318 
L 197.714447 85.778599 
L 198.01049 86.040819 
L 198.294295 86.319692 
L 202.558934 90.735072 
L 200.113521 91.064666 
L 199.309547 91.115152 
L 198.203653 91.184705 
L 196.366347 91.152665 
L 194.400763 91.113513 
L 192.514616 90.966142 
L 190.604969 90.893234 
L 188.666499 90.683128 
L 188.140596 90.504635 
L 187.937486 90.85847 
L 187.2948 91.975797 
L 187.210003 92.123219 
L 187.005361 92.479027 
L 186.979474 92.541611 
L 186.892303 92.749559 
L 186.846165 92.859644 
L 186.29137 94.182434 
L 186.085127 94.6747 
L 185.833395 95.275931 
L 185.476604 96.126622 
L 184.591301 98.238347 
L 184.278432 98.985692 
L 184.149849 99.29183 
L 184.011824 99.621366 
L 183.786612 100.096281 
L 183.103118 101.546055 
L 182.157746 103.333587 
L 181.85156 103.928616 
L 181.834661 103.946876 
L 181.758922 104.10455 
L 181.663562 104.307733 
L 181.598444 104.443605 
L 180.5344 106.689162 
L 180.314287 107.15265 
L 178.711218 110.535065 
L 176.441529 110.368804 
L 175.658574 112.748874 
L 175.36201 113.650465 
L 175.23957 114.027 
L 174.405902 116.593134 
L 174.050813 119.483419 
L 173.475847 123.454284 
L 171.793606 126.939066 
L 171.507933 128.720778 
L 170.888502 133.382461 
L 170.382521 134.592817 
L 170.019769 135.385017 
L 169.282128 136.997193 
L 168.919016 137.790591 
L 168.789229 138.073811 
L 168.768916 138.154164 
L 168.69951 138.430476 
L 168.630065 138.706788 
L 168.525521 139.122076 
L 168.411581 139.575328 
L 168.233283 140.275612 
L 168.087002 140.851236 
L 167.938316 141.428813 
L 167.678905 142.452922 
L 167.368755 143.676944 
L 167.305187 143.940186 
L 167.25862 144.099098 
L 167.258309 144.10016 
L 167.232477 144.215107 
L 167.222077 144.261245 
L 167.212323 144.300839 
L 166.818394 145.879933 
L 166.673323 146.468988 
L 166.654178 146.539461 
L 166.599988 146.763909 
L 166.543046 146.994315 
L 166.479112 147.251589 
L 166.411996 147.52041 
L 166.337533 147.81967 
L 166.25758 148.142322 
L 166.17374 148.480376 
L 166.07505 148.875828 
L 165.981025 149.246362 
L 165.972078 149.290331 
L 165.85741 149.75306 
L 165.729109 150.26928 
L 165.59614 150.804878 
L 165.581289 150.862275 
L 165.425271 151.486558 
L 165.252103 152.17854 
L 164.890961 153.621879 
L 164.710761 154.342354 
L 164.543841 155.009384 
L 164.472084 155.296791 
L 164.390249 155.643153 
L 164.265506 156.170061 
L 164.154823 156.63951 
L 164.074554 156.978001 
L 163.99817 157.301011 
L 163.918332 157.666366 
L 163.866109 157.888436 
L 163.739852 158.427172 
L 163.712555 158.543537 
L 163.552425 159.226408 
L 163.298695 160.305886 
L 163.280018 160.388618 
L 162.829919 162.305722 
L 162.6343 163.139769 
L 162.598813 163.291261 
L 162.58094 163.367445 
L 162.488554 163.761652 
L 162.422093 164.045461 
L 162.294371 164.590879 
L 162.235672 164.841509 
L 162.217948 164.917215 
L 162.03147 165.712395 
L 161.878727 166.364353 
L 161.809393 166.659267 
L 161.764097 166.853085 
L 161.670655 167.253054 
L 161.47037 168.106124 
L 161.409557 168.357473 
L 161.360491 168.575597 
L 161.247692 169.126148 
L 161.241072 169.151901 
L 160.710344 171.144006 
L 160.60305 171.545824 
L 160.530831 171.817017 
L 160.48246 171.998358 
L 160.40151 172.301681 
L 160.35135 172.489631 
L 160.327558 172.587437 
L 160.291301 172.734276 
L 160.172397 173.216851 
L 160.113103 173.456334 
L 159.991865 173.947628 
L 159.951332 174.111897 
L 159.811361 174.679592 
L 159.791459 174.760333 
L 159.789917 174.767452 
L 159.628491 175.420632 
L 159.619948 175.455886 
L 159.604397 175.544249 
L 159.602154 175.557161 
L 159.510501 176.079623 
L 159.499271 176.14177 
L 159.394125 176.740201 
L 159.281587 177.381341 
L 159.280493 177.407051 
L 159.270122 177.639677 
L 159.252143 178.088721 
L 159.239674 178.402053 
L 159.222575 178.761672 
L 159.209272 179.06394 
L 159.193059 179.440559 
L 159.179803 179.766572 
L 159.15909 180.222326 
L 159.148686 180.446246 
L 159.130228 180.860869 
L 159.117211 181.136614 
L 159.113895 181.215762 
L 159.020796 181.481479 
L 158.926521 181.75114 
L 158.733644 182.301956 
L 158.714065 182.357796 
L 158.583002 182.732001 
L 158.500419 182.953358 
L 158.447583 183.094745 
L 158.284327 183.532746 
L 158.257705 183.604019 
L 158.019346 184.244373 
L 157.785282 184.871691 
L 157.625796 185.299676 
L 157.550828 185.500958 
L 157.315194 186.13219 
L 157.276812 186.235977 
L 157.065281 186.747669 
L 156.808343 187.370309 
L 156.550949 187.993711 
L 156.293596 188.617112 
L 156.153379 188.95693 
L 156.036275 189.240117 
L 155.834533 189.728086 
L 155.709471 190.389452 
L 155.630238 190.806247 
L 155.598391 190.975629 
L 155.470608 191.64968 
L 155.342952 192.76086 
L 155.32874 192.886673 
L 155.323354 192.932583 
L 155.173674 193.67713 
L 155.099795 194.042833 
L 155.057054 194.255396 
L 154.943583 194.576142 
L 154.353663 196.246861 
L 154.352715 196.249085 
L 153.661397 197.870805 
L 153.498985 198.179058 
L 153.387136 198.465614 
L 152.556252 200.594227 
L 151.856626 202.386624 
L 151.058792 204.316707 
L 150.866475 204.783259 
L 150.090834 206.669795 
L 150.009603 206.867379 
L 150.008643 206.86971 
L 149.828281 207.307806 
L 149.68765 207.649222 
L 149.422298 208.741445 
L 149.248754 210.316343 
L 149.148581 211.224878 
L 148.895148 213.521177 
L 148.87329 213.719033 
L 148.864847 213.798176 
L 148.816474 214.244134 
L 148.509432 216.286623 
L 148.405051 216.981969 
L 148.280906 217.798029 
L 148.263879 217.910409 
L 148.001368 219.14699 
L 147.913768 219.559593 
L 147.82673 219.969549 
L 147.678547 220.670535 
L 147.616345 220.963081 
L 147.4667 221.444959 
L 147.440909 221.528484 
L 147.366301 221.768429 
L 147.307332 221.958478 
L 147.206912 222.282779 
L 147.007703 222.924618 
L 146.961971 223.072303 
L 146.725646 223.840819 
L 146.715482 223.86855 
L 146.473706 224.52554 
L 146.416203 224.690701 
L 146.403297 224.717622 
L 146.33953 224.892263 
L 146.233112 225.184126 
L 146.086719 225.558798 
L 145.776312 226.352067 
L 145.728149 226.475269 
L 145.679248 226.600821 
L 145.399184 227.259095 
L 145.212376 227.699964 
L 145.157547 227.828696 
L 145.132854 227.881366 
L 145.052888 228.053318 
L 145.050168 228.05884 
L 144.68413 228.843606 
L 144.563397 229.099929 
L 144.454041 229.335223 
L 144.331777 229.59906 
L 144.013193 230.282014 
L 143.92342 230.474526 
L 143.836836 230.659527 
L 143.75452 230.835807 
L 143.720416 230.909107 
L 143.523308 231.331763 
L 143.424909 231.535786 
L 143.324177 231.744966 
L 143.169735 232.065479 
L 142.860475 232.707265 
L 142.424989 233.610129 
L 142.38463 233.700428 
L 142.141346 234.244701 
L 142.091588 234.354443 
L 141.982289 234.599235 
L 141.903524 234.777098 
L 141.698649 235.233807 
L 141.695908 235.240161 
L 141.581161 235.509889 
L 141.463278 235.785979 
L 141.269394 236.243474 
L 141.203998 236.397533 
L 141.044635 236.777404 
L 140.95411 236.965977 
L 140.669942 237.567317 
L 140.59511 237.726572 
L 140.386635 238.168283 
L 140.304734 238.343407 
L 140.049593 238.884541 
L 139.606749 239.823036 
L 139.402165 240.254847 
L 138.958186 241.19887 
L 138.947972 241.217104 
L 138.791274 241.561734 
L 138.668625 241.830728 
L 138.422213 242.37183 
L 138.241167 242.768371 
L 139.654362 243.089411 
L 141.989081 243.619918 
L 145.934324 244.516405 
L 144.649838 250.199566 
L 144.505633 250.837698 
L 144.182229 252.266713 
L 142.841699 252.842835 
L 142.637713 252.930503 
L 139.191439 254.411128 
L 136.65868 255.499726 
L 131.586901 257.679023 
L 131.055381 258.733293 
L 129.911576 260.998814 
L 131.285926 264.982676 
L 131.53072 265.693553 
L 131.769493 266.383865 
L 131.92912 266.849354 
L 132.049691 267.199036 
L 132.1074 267.366196 
L 132.1663 267.533726 
L 132.263028 267.815072 
L 132.677321 269.015522 
L 132.715942 269.127777 
L 132.96111 269.838252 
L 133.246053 270.663292 
L 133.529846 271.48638 
L 133.812001 272.308712 
L 134.096564 273.13297 
L 134.380306 273.950519 
L 134.781846 275.114251 
L 134.847517 275.306289 
L 135.093925 276.015708 
L 135.141604 276.153094 
L 135.389936 276.868291 
L 135.422138 276.961573 
L 135.591682 277.45352 
L 135.785508 278.014229 
L 136.068416 278.828633 
L 136.365274 279.688875 
L 136.649413 280.512751 
L 136.908479 281.260798 
L 137.102683 281.821104 
L 137.438536 282.795139 
L 137.982473 284.367049 
L 138.701251 284.189997 
L 139.719921 283.938783 
L 140.411904 283.768545 
L 141.106228 283.59707 
L 141.332428 283.5414 
L 141.759205 283.436447 
L 142.414138 283.274991 
L 142.567031 283.237332 
L 143.089987 283.108326 
L 143.558132 282.993358 
L 143.735081 282.949705 
L 143.908851 282.906834 
L 144.810085 282.684922 
L 145.158056 282.600797 
L 146.210645 282.342811 
L 146.901437 282.16819 
L 146.97553 282.155311 
L 147.374339 282.057598 
L 147.557973 282.018234 
L 147.702658 281.998411 
L 148.166947 281.90879 
L 148.433028 281.866851 
L 148.730626 281.813727 
L 149.157483 281.737245 
L 149.273342 281.716319 
L 149.82004 281.616965 
L 149.882726 281.605685 
L 150.097547 281.567058 
L 150.371086 281.521513 
L 150.693532 281.467922 
L 150.927261 281.42963 
L 151.34864 281.358735 
L 151.550051 281.32567 
L 152.089426 281.288027 
L 152.145018 281.280743 
L 152.829525 281.236333 
L 152.939105 281.224137 
L 153.569971 281.184279 
L 153.730044 281.16796 
L 153.988721 281.155321 
L 154.31296 281.17254 
L 154.440331 281.174516 
L 155.052886 281.211808 
L 155.228407 281.221587 
L 155.792059 281.252718 
L 156.015734 281.265076 
L 156.532041 281.292782 
L 156.804205 281.308582 
L 157.272782 281.333306 
L 157.511402 281.341655 
L 157.959085 281.370761 
L 158.011175 281.3801 
L 158.72379 281.510893 
L 159.66214 281.683294 
L 159.920274 281.759288 
L 160.176819 281.834843 
L 160.432661 281.921496 
L 160.453176 281.928563 
L 162.083552 282.481055 
L 163.053592 282.976595 
L 164.319827 283.623529 
L 165.889035 284.425471 
L 165.935623 284.45025 
L 166.184057 284.577284 
L 166.434423 284.69165 
L 167.875384 285.347582 
L 168.300686 285.544537 
L 169.546561 286.113629 
L 171.223363 287.195355 
L 171.335204 287.265044 
L 171.83222 287.587948 
L 173.092596 288.404696 
L 173.672597 288.780753 
L 174.14871 289.086313 
L 174.252981 289.147344 
L 174.573811 289.359631 
L 175.248255 289.793181 
L 175.812429 290.153088 
L 175.919891 290.224776 
L 176.206728 290.409079 
L 176.600984 290.655929 
L 177.247304 291.059511 
L 177.280511 291.08237 
L 177.95606 291.505654 
L 178.155588 291.62887 
L 178.781377 292.023053 
L 178.856018 292.067917 
L 179.403959 292.411371 
L 179.641727 292.560384 
L 179.831013 292.679038 
L 179.881623 292.712913 
L 179.99578 292.78418 
L 180.405231 292.962987 
L 180.624676 293.033526 
L 182.568237 293.658075 
L 183.405399 293.927043 
L 184.062979 294.138767 
L 183.812103 295.488 
L 187.102962 294.691748 
L 187.671174 294.530328 
L 188.071094 294.416844 
L 188.870178 294.189499 
L 189.701985 293.953723 
L 193.299296 292.59144 
L 197.529932 290.776505 
L 199.861997 290.026723 
L 205.784637 288.123046 
L 206.272802 287.965842 
L 209.613229 287.063658 
L 212.656703 286.239832 
L 212.710341 286.377343 
L 216.948576 285.227768 
L 218.12024 284.64669 
L 220.798418 283.318613 
L 223.076027 282.189483 
L 226.139236 280.606548 
L 228.144414 279.782757 
L 229.542853 279.182937 
L 231.379787 278.394492 
L 234.312082 277.135775 
L 234.873589 276.895208 
L 235.038545 276.824828 
L 235.60656 276.712392 
L 235.68511 276.697274 
L 237.522421 276.052465 
L 238.198988 275.815314 
L 238.271081 275.789809 
L 238.566207 275.682656 
L 239.30693 275.41412 
L 240.241534 275.075061 
L 240.640219 274.902743 
L 240.854534 274.810046 
L 242.060799 274.288722 
L 242.80258 273.967975 
L 242.887289 273.925418 
L 243.885767 273.425617 
L 245.356132 272.688885 
L 246.326275 272.203007 
L 246.857236 271.937014 
L 247.279777 271.678826 
L 248.795974 270.971248 
L 249.315566 270.728621 
L 249.515707 270.635132 
L 253.789073 268.63581 
L 253.969479 268.551102 
L 254.7018 268.208679 
L 257.531427 266.871675 
L 258.047726 266.402405 
L 258.453795 266.01138 
L 258.753273 265.754286 
L 259.014181 265.514724 
L 259.587191 264.988314 
L 259.806299 264.786857 
L 260.487244 264.382476 
L 261.117378 264.039468 
L 261.316657 263.93097 
L 261.653508 263.747482 
L 263.819822 262.568358 
L 264.090824 262.420247 
L 264.114756 262.413717 
L 264.271011 262.331452 
L 265.559318 261.653196 
L 266.532709 261.137193 
L 267.504971 260.623476 
L 267.993293 260.366571 
L 268.032935 260.345535 
L 269.106731 259.781636 
L 270.62107 258.986528 
L 270.726736 258.928732 
L 272.167825 258.047467 
L 272.172538 258.044556 
L 272.401502 257.904563 
L 273.143788 257.450626 
L 273.586022 257.180201 
L 274.01735 256.916422 
L 274.032074 256.907399 
L 274.122757 256.851945 
L 274.481369 256.651547 
L 274.932403 256.399498 
L 275.385117 256.146543 
L 275.839585 255.892562 
L 276.297137 255.636893 
L 276.753324 255.381967 
L 277.212281 255.125518 
L 277.7646 254.816924 
L 278.005681 254.682179 
L 282.408449 252.87932 
L 282.984371 252.603638 
L 284.247986 252.111985 
L 284.816358 251.868884 
L 286.072323 251.410414 
L 286.872168 251.121879 
L 287.390859 250.915706 
L 289.314483 250.20187 
L 289.442348 250.15948 
L 290.818665 249.771962 
L 293.098205 249.302267 
L 294.412609 249.031465 
L 294.665725 248.979437 
L 294.696167 248.957891 
L 294.726489 248.936228 
L 294.756687 248.914369 
L 294.880073 248.805866 
L 295.000953 248.694566 
L 295.119209 248.580473 
L 295.234843 248.463705 
L 295.347738 248.344305 
L 295.457895 248.222311 
L 295.565195 248.097766 
L 295.669604 247.97083 
L 295.749145 247.852933 
L 295.826324 247.733425 
L 295.901143 247.612423 
L 295.973524 247.48997 
L 296.043428 247.366065 
L 296.110895 247.240788 
L 296.17577 247.114221 
L 296.238132 246.986401 
L 296.297943 246.857369 
L 296.355164 246.727166 
L 296.409796 246.595831 
L 296.461801 246.463443 
L 296.68251 245.884627 
L 295.778492 245.543298 
L 295.534509 245.451306 
L 295.562065 245.583776 
L 294.403688 245.137821 
L 292.040491 244.228362 
L 288.891188 243.010932 
L 288.860388 243.008227 
L 288.488588 242.753624 
L 285.439521 241.571625 
L 285.239408 241.49616 
L 284.902608 241.368932 
L 284.501526 241.217422 
L 283.89982 240.991773 
L 282.400775 240.414585 
L 281.890099 240.216102 
L 279.590415 239.322313 
L 276.877487 238.334771 
L 274.313076 237.347167 
L 273.200156 236.942473 
L 271.806425 236.420928 
L 270.161072 235.57322 
L 267.930583 235.09121 
L 266.213222 234.720088 
L 266.152896 234.707969 
L 265.643675 234.597655 
L 265.227417 234.383115 
L 262.818893 233.13862 
L 261.282863 232.347645 
L 258.502661 230.916683 
L 257.924008 230.618666 
L 257.797061 230.153441 
L 258.275233 230.029592 
L 259.067585 229.825335 
L 258.44918 229.391067 
L 257.798547 229.034681 
L 257.200931 228.561115 
L 256.1702 227.621841 
L 255.639024 227.055504 
L 255.386061 226.701319 
L 254.571028 225.562565 
L 253.85116 224.328954 
L 253.174413 223.142739 
L 253.469654 222.95442 
L 256.037843 221.316333 
L 256.099606 221.277403 
L 256.139647 221.020555 
L 255.872558 220.700038 
L 254.911459 219.546186 
L 254.86774 219.579899 
L 254.471649 219.08763 
L 254.535039 219.038018 
L 254.745347 218.922826 
L 254.814309 218.884612 
L 255.080288 218.901001 
L 255.542703 218.455169 
L 255.651959 218.337605 
L 255.75884 218.217836 
L 255.863267 218.095904 
L 255.965163 217.971889 
L 256.056732 217.855894 
L 256.146133 217.738203 
L 256.233328 217.618859 
L 256.318279 217.497901 
L 256.328118 217.483679 
L 256.337955 217.469417 
L 256.347753 217.455116 
L 256.724295 216.882552 
L 257.082981 216.296244 
L 257.424769 215.700447 
L 257.745548 215.089271 
L 258.045017 214.47816 
L 258.329059 213.84886 
L 258.589826 213.21452 
L 258.832059 212.573496 
L 259.109425 211.801823 
L 259.31047 211.078653 
L 259.373032 210.850212 
L 259.796867 209.324213 
L 259.966206 208.714601 
L 260.135547 208.104989 
L 260.305244 207.495409 
L 260.490237 206.829578 
L 260.659542 206.220007 
L 260.82892 205.610079 
L 260.998272 205.000784 
L 261.16754 204.391175 
L 261.336889 203.781604 
L 261.527701 203.095979 
L 261.948931 201.579499 
L 262.251215 200.491747 
L 262.332716 200.12248 
L 262.377231 199.920985 
L 262.581364 198.997968 
L 262.785773 198.073045 
L 262.99063 197.144947 
L 263.025032 196.991004 
L 263.257984 195.935061 
L 263.398026 194.988411 
L 263.768934 194.990682 
L 264.011175 194.992041 
L 264.420728 194.990632 
L 266.271701 193.77606 
L 266.327745 193.738722 
L 266.608921 193.554144 
L 266.865336 193.385733 
L 266.851247 193.295404 
L 266.838928 193.20484 
L 266.82842 193.114038 
L 266.826334 193.097698 
L 266.824327 193.081396 
L 266.82236 193.065053 
L 266.819067 193.029228 
L 266.816011 192.993397 
L 266.813231 192.957521 
L 266.805321 192.82392 
L 266.801276 192.690157 
L 266.80102 192.556353 
L 266.804633 192.422584 
L 266.812078 192.28897 
L 266.823319 192.15563 
L 266.940105 191.189338 
L 267.101226 189.927838 
L 267.189409 189.22432 
L 267.414687 187.110217 
L 267.552075 185.822236 
L 267.809162 184.468003 
L 268.663031 180.880039 
L 268.888432 179.932154 
L 268.94619 179.836245 
L 269.566663 178.80432 
L 269.769853 178.46632 
L 269.744988 178.359442 
L 269.723778 178.251813 
L 269.706185 178.143512 
L 269.692331 178.034656 
L 269.68214 177.925405 
L 269.675378 177.815922 
L 269.672364 177.706279 
L 269.672695 177.653983 
L 269.673059 177.596596 
L 269.677507 177.48699 
L 269.68563 177.377583 
L 269.719316 177.130651 
L 269.833022 176.336865 
L 269.863897 176.222497 
L 270.008272 175.688865 
L 270.050958 175.574837 
L 270.535546 174.28886 
L 270.647318 173.991888 
L 270.787229 173.6205 
L 270.856716 173.436003 
L 271.279699 172.313142 
L 271.572581 171.534745 
L 271.910594 170.63827 
L 272.105455 170.120456 
L 272.16158 169.994148 
L 272.298544 169.685989 
L 272.451636 169.341865 
L 272.710654 168.759391 
L 272.87904 168.380784 
L 272.980371 168.187927 
L 273.306018 167.586253 
L 273.575165 167.085961 
L 273.652162 166.955208 
L 274.049905 166.294483 
L 274.411912 165.694287 
L 274.852118 164.962205 
L 275.181864 164.415141 
L 275.707361 163.542831 
L 276.391686 162.40749 
L 276.510002 162.211026 
L 276.907363 161.551819 
L 276.934518 161.512609 
L 277.368286 160.879416 
L 277.748554 160.325535 
L 278.034017 159.909872 
L 278.132373 159.775141 
L 278.353072 159.471604 
L 278.854119 158.784453 
L 279.177899 158.339832 
L 279.562138 157.812505 
L 279.946497 157.285097 
L 280.36499 156.710496 
L 280.783834 156.135532 
L 281.470622 155.192818 
L 281.749894 154.810103 
L 282.677704 153.07714 
L 283.303439 151.908413 
L 284.083032 150.787446 
L 284.734765 149.850798 
L 285.05843 149.026922 
L 285.039095 148.716024 
L 287.386069 145.338613 
L 287.443171 145.259227 
L 287.502841 145.181805 
L 287.565042 145.106386 
L 287.629657 145.033053 
L 287.696649 144.962005 
L 287.76594 144.893202 
L 287.837491 144.826687 
L 287.911147 144.76262 
L 287.955823 144.726401 
L 288.001717 144.691819 
L 288.048832 144.658873 
L 288.097087 144.627604 
L 288.153622 144.593902 
L 288.21147 144.562547 
L 288.270553 144.53354 
L 288.321774 144.511746 
L 288.373704 144.491718 
L 288.426304 144.473496 
L 288.479495 144.457082 
L 288.544632 144.437958 
L 288.610538 144.421589 
L 288.677017 144.408017 
L 288.74403 144.397244 
L 288.811458 144.389312 
L 288.879143 144.384184 
L 288.976329 144.381196 
L 289.073571 144.380819 
L 289.17079 144.383094 
L 289.183316 144.383539 
L 289.208332 144.384587 
L 289.290483 144.3894 
L 289.372476 144.396077 
L 289.454311 144.404618 
L 289.53591 144.415063 
L 289.759961 144.446307 
L 291.901795 144.744995 
L 294.174517 145.06139 
L 294.557826 145.115104 
L 294.629664 145.125206 
L 296.185368 145.34223 
L 296.330088 145.363176 
L 296.437338 145.380438 
L 296.544345 145.399249 
L 296.726613 145.435055 
L 296.863351 145.465026 
L 296.963966 145.489633 
L 297.063853 145.517144 
L 297.162892 145.547524 
L 297.261005 145.580773 
L 297.351265 145.614228 
L 297.44059 145.650119 
L 297.566378 145.705494 
L 297.640689 145.740953 
L 297.722507 145.782188 
L 297.803263 145.825503 
L 297.882879 145.870901 
L 297.922832 145.894824 
L 297.96248 145.919268 
L 298.001822 145.944233 
L 298.092791 146.003637 
L 298.182919 146.064325 
L 298.272166 146.126338 
L 298.303756 146.148777 
L 298.335271 146.171415 
L 298.36663 146.194176 
L 298.533428 146.319599 
L 299.964609 147.425133 
L 301.786308 148.832399 
L 302.072755 149.053704 
L 302.851732 149.655572 
L 303.17057 149.901873 
L 303.593694 150.228788 
L 303.69834 150.30963 
L 304.464262 150.901414 
L 304.787592 151.151224 
L 305.207859 151.475907 
L 305.314311 151.558176 
L 306.44979 152.435522 
L 307.27085 153.070113 
L 308.570237 154.073993 
L 308.647792 154.134201 
L 308.725155 154.194691 
L 308.802325 154.255383 
L 308.87416 154.312111 
L 308.945803 154.369082 
L 309.017291 154.426214 
L 309.099356 154.492461 
L 309.181229 154.558989 
L 309.262832 154.6258 
L 309.344917 154.692997 
L 309.426731 154.760477 
L 309.508354 154.828237 
L 309.530018 154.846338 
L 309.551644 154.864479 
L 309.57323 154.882661 
L 309.653442 154.950887 
L 309.733191 155.019677 
L 309.812478 155.088991 
L 309.933402 155.19672 
L 310.053168 155.3057 
L 310.171816 155.41597 
L 310.289306 155.527453 
L 310.409064 155.643557 
L 310.527586 155.760915 
L 310.644832 155.879567 
L 310.760763 155.999512 
L 310.847222 156.09064 
L 310.932907 156.182496 
L 311.017857 156.275041 
L 311.082661 156.346603 
L 311.147 156.418611 
L 311.210874 156.490984 
L 311.233043 156.516198 
L 311.255134 156.541414 
L 311.277225 156.566669 
L 311.331853 156.629385 
L 311.386286 156.692223 
L 311.449912 156.766134 
L 311.495214 156.819007 
L 311.54971 156.882952 
L 311.60405 156.94702 
L 311.633369 156.981738 
L 311.662689 157.016457 
L 311.69193 157.051217 
L 311.791308 157.170764 
L 311.890104 157.290798 
L 311.988318 157.411319 
L 313.210593 158.917755 
L 313.260498 158.979344 
L 313.409679 159.163293 
L 313.720649 159.546715 
L 313.882516 159.746186 
L 313.920092 159.792365 
L 314.147225 160.072334 
L 314.196168 160.133311 
L 314.244335 160.194899 
L 314.291646 160.257137 
L 314.337981 160.319871 
L 314.383499 160.383177 
L 314.428201 160.447094 
L 314.469055 160.508283 
L 314.508311 160.570494 
L 314.545931 160.633731 
L 314.581875 160.697952 
L 314.615973 160.762688 
L 314.648353 160.828291 
L 314.679013 160.894723 
L 314.707953 160.961943 
L 314.735376 161.030303 
L 314.760999 161.099375 
L 314.784819 161.169078 
L 314.806797 161.239414 
L 314.810955 161.253099 
L 314.815035 161.266785 
L 314.819115 161.280511 
L 314.82028 161.284608 
L 314.836602 161.341998 
L 314.853462 161.403696 
L 314.869654 161.465528 
L 314.888431 161.541354 
L 314.906226 161.617399 
L 314.922999 161.693664 
L 315.254912 162.961544 
L 315.276197 163.057026 
L 315.298896 163.152162 
L 315.32301 163.246991 
L 315.348385 163.341713 
L 315.375173 163.436089 
L 315.403335 163.53004 
L 315.406635 163.540458 
L 315.409934 163.550876 
L 315.413274 163.561293 
L 315.450506 163.671595 
L 315.491422 163.780591 
L 315.535979 163.888125 
L 315.584134 163.994078 
L 315.635808 164.098374 
L 315.670636 164.164044 
L 315.706909 164.228972 
L 315.744546 164.293078 
L 315.783548 164.356365 
L 315.81078 164.398885 
L 315.838636 164.441037 
L 315.867114 164.48274 
L 315.89886 164.527737 
L 315.931266 164.572246 
L 315.964373 164.616264 
L 315.983126 164.640562 
L 316.001996 164.664778 
L 316.020944 164.688913 
L 316.062916 164.741451 
L 316.105433 164.793581 
L 316.148453 164.845265 
L 316.211967 164.919547 
L 316.276566 164.992857 
L 316.34225 165.065194 
L 316.776648 164.663523 
L 317.576725 163.926074 
L 317.780128 163.739226 
L 318.037278 163.504497 
L 318.088156 163.488971 
L 318.114964 163.483376 
L 318.270313 163.606447 
L 318.429623 163.733867 
L 318.769944 164.004908 
L 318.789733 164.020279 
L 319.112262 164.277095 
L 319.331269 164.451453 
L 319.478256 164.56746 
L 319.894956 164.899612 
L 321.213188 165.946592 
L 321.359869 166.066921 
L 321.596286 166.250767 
L 322.307424 166.817069 
L 322.485871 166.959204 
L 322.908537 167.295827 
L 323.228311 167.549819 
L 324.44021 168.511689 
L 324.593794 168.633813 
L 324.997171 168.954702 
L 325.271825 169.171699 
L 325.59919 169.432143 
L 326.526844 170.170583 
L 326.802728 170.389931 
L 327.126845 169.910199 
L 327.292248 170.130582 
L 327.629025 170.579256 
L 327.765931 170.762487 
L 328.119119 171.233215 
L 328.810582 172.154685 
L 328.814962 172.160212 
L 328.969946 171.931223 
L 328.966372 171.92647 
L 330.21214 170.073738 
L 330.310869 169.927193 
L 330.723513 169.312773 
L 330.850959 169.123826 
L 331.011357 168.885262 
L 331.915806 167.540061 
L 332.414081 166.732043 
L 333.821614 164.467994 
L 334.357192 163.561398 
L 334.706725 162.944759 
L 334.912335 162.582399 
L 335.443912 161.646525 
L 335.752535 161.102388 
L 336.981964 158.909527 
L 337.884967 157.434926 
L 339.872977 154.325565 
L 340.3594 153.679372 
L 340.692333 153.236838 
L 340.873762 153.370577 
L 341.242174 153.658201 
L 341.426703 153.426839 
L 341.42794 153.425288 
L 342.408424 152.194925 
L 342.03806 151.898989 
L 341.90426 151.89928 
L 341.817275 151.808862 
L 341.801775 151.792725 
L 341.714071 151.701888 
L 341.651136 151.617374 
L 341.60121 151.528073 
L 341.585396 151.500783 
L 341.512524 151.373577 
L 341.290336 150.985585 
L 341.209594 150.869074 
L 341.000641 150.58113 
L 340.806878 150.396004 
L 340.631359 150.244845 
L 337.610383 147.839053 
L 337.016837 147.362661 
L 336.814919 147.229399 
L 336.649388 147.149825 
L 336.463753 147.077444 
L 336.243392 147.007855 
L 336.08782 146.958743 
L 335.926667 146.897758 
L 335.769434 146.816625 
L 335.649299 146.744087 
L 335.521653 146.656114 
L 334.837017 146.114454 
L 332.667216 144.398259 
L 331.964784 143.844756 
L 331.737867 143.662873 
L 331.193933 143.235594 
L 328.168217 140.840496 
L 326.394004 139.42695 
L 325.733024 138.901047 
L 324.140243 137.63308 
L 319.590261 134.009591 
L 317.795562 132.579976 
L 314.021291 129.573618 
L 312.547304 128.399551 
L 310.399256 126.69268 
L 308.747733 125.37911 
L 308.314781 125.022869 
L 307.907448 124.668142 
L 307.334873 124.180116 
L 306.721836 123.62017 
L 306.125782 123.053057 
L 305.998983 122.926455 
L 305.515441 122.443666 
L 305.505525 122.434181 
L 304.958406 121.862231 
L 304.486784 121.355361 
L 303.935644 120.761653 
L 303.594152 120.36924 
L 303.228876 119.942863 
L 302.771758 119.382972 
L 302.362432 118.853408 
L 301.650598 117.714595 
L 301.085083 116.695709 
L 300.483161 115.481854 
L 300.342577 115.277271 
L 300.155645 115.175625 
L 299.939221 115.284525 
L 299.792792 115.038576 
L 299.645238 114.790739 
L 299.420142 114.93204 
L 299.395098 114.844278 
L 299.393664 114.728388 
L 299.357848 114.609431 
L 299.344722 114.565939 
L 299.293688 114.342151 
L 299.20415 113.848677 
L 299.148307 113.588106 
L 298.441651 112.13523 
L 298.199759 111.640097 
L 297.743133 110.61977 
L 297.052974 108.977765 
L 296.849185 108.577518 
L 296.278282 107.831605 
L 296.207014 107.730068 
L 296.145599 107.631328 
L 296.041301 107.417583 
L 295.876171 107.019203 
L 294.239263 103.067643 
L 294.077327 102.676795 
L 294.031451 102.566049 
L 293.795128 101.995885 
L 293.575593 101.405573 
L 293.452358 101.074176 
L 293.231114 100.479746 
L 292.349079 98.342949 
L 289.62194 91.740031 
L 289.329102 91.269587 
L 289.032719 90.621558 
L 285.679898 83.785587 
L 285.538123 83.434249 
L 285.404725 83.10347 
L 285.386835 83.059091 
L 284.983816 82.058583 
L 284.836189 81.562479 
L 284.721794 81.261728 
L 284.263734 80.36803 
L 284.164475 80.134474 
" clip-path="url(#p084d57816d)" style="fill: #1f77b4"/>
   </g>
   <g id="matplotlib.axis_1">
    <g id="xtick_1">
     <g id="line2d_1">
      <defs>
       <path id="m8ce76a9215" d="M 0 0 
L 0 3.5 
" style="stroke: #000000; stroke-width: 0.8"/>
      </defs>
      <g>
       <use xlink:href="#m8ce76a9215" x="131.260885" y="307.584" style="stroke: #000000; stroke-width: 0.8"/>
      </g>
     </g>
     <g id="text_1">
      <!-- 13.40 -->
      <g transform="translate(116.946822 322.182437) scale(0.1 -0.1)">
       <defs>
        <path id="DejaVuSans-31" d="M 794 531 
L 1825 531 
L 1825 4091 
L 703 3866 
L 703 4441 
L 1819 4666 
L 2450 4666 
L 2450 531 
L 3481 531 
L 3481 0 
L 794 0 
L 794 531 
z
" transform="scale(0.015625)"/>
        <path id="DejaVuSans-33" d="M 2597 2516 
Q 3050 2419 3304 2112 
Q 3559 1806 3559 1356 
Q 3559 666 3084 287 
Q 2609 -91 1734 -91 
Q 1441 -91 1130 -33 
Q 819 25 488 141 
L 488 750 
Q 750 597 1062 519 
Q 1375 441 1716 441 
Q 2309 441 2620 675 
Q 2931 909 2931 1356 
Q 2931 1769 2642 2001 
Q 2353 2234 1838 2234 
L 1294 2234 
L 1294 2753 
L 1863 2753 
Q 2328 2753 2575 2939 
Q 2822 3125 2822 3475 
Q 2822 3834 2567 4026 
Q 2313 4219 1838 4219 
Q 1578 4219 1281 4162 
Q 984 4106 628 3988 
L 628 4550 
Q 988 4650 1302 4700 
Q 1616 4750 1894 4750 
Q 2613 4750 3031 4423 
Q 3450 4097 3450 3541 
Q 3450 3153 3228 2886 
Q 3006 2619 2597 2516 
z
" transform="scale(0.015625)"/>
        <path id="DejaVuSans-2e" d="M 684 794 
L 1344 794 
L 1344 0 
L 684 0 
L 684 794 
z
" transform="scale(0.015625)"/>
        <path id="DejaVuSans-34" d="M 2419 4116 
L 825 1625 
L 2419 1625 
L 2419 4116 
z
M 2253 4666 
L 3047 4666 
L 3047 1625 
L 3713 1625 
L 3713 1100 
L 3047 1100 
L 3047 0 
L 2419 0 
L 2419 1100 
L 313 1100 
L 313 1709 
L 2253 4666 
z
" transform="scale(0.015625)"/>
        <path id="DejaVuSans-30" d="M 2034 4250 
Q 1547 4250 1301 3770 
Q 1056 3291 1056 2328 
Q 1056 1369 1301 889 
Q 1547 409 2034 409 
Q 2525 409 2770 889 
Q 3016 1369 3016 2328 
Q 3016 3291 2770 3770 
Q 2525 4250 2034 4250 
z
M 2034 4750 
Q 2819 4750 3233 4129 
Q 3647 3509 3647 2328 
Q 3647 1150 3233 529 
Q 2819 -91 2034 -91 
Q 1250 -91 836 529 
Q 422 1150 422 2328 
Q 422 3509 836 4129 
Q 1250 4750 2034 4750 
z
" transform="scale(0.015625)"/>
       </defs>
       <use xlink:href="#DejaVuSans-31"/>
       <use xlink:href="#DejaVuSans-33" x="63.623047"/>
       <use xlink:href="#DejaVuSans-2e" x="127.246094"/>
       <use xlink:href="#DejaVuSans-34" x="159.033203"/>
       <use xlink:href="#DejaVuSans-30" x="222.65625"/>
      </g>
     </g>
    </g>
    <g id="xtick_2">
     <g id="line2d_2">
      <g>
       <use xlink:href="#m8ce76a9215" x="184.929642" y="307.584" style="stroke: #000000; stroke-width: 0.8"/>
      </g>
     </g>
     <g id="text_2">
      <!-- 13.42 -->
      <g transform="translate(170.615579 322.182437) scale(0.1 -0.1)">
       <defs>
        <path id="DejaVuSans-32" d="M 1228 531 
L 3431 531 
L 3431 0 
L 469 0 
L 469 531 
Q 828 903 1448 1529 
Q 2069 2156 2228 2338 
Q 2531 2678 2651 2914 
Q 2772 3150 2772 3378 
Q 2772 3750 2511 3984 
Q 2250 4219 1831 4219 
Q 1534 4219 1204 4116 
Q 875 4013 500 3803 
L 500 4441 
Q 881 4594 1212 4672 
Q 1544 4750 1819 4750 
Q 2544 4750 2975 4387 
Q 3406 4025 3406 3419 
Q 3406 3131 3298 2873 
Q 3191 2616 2906 2266 
Q 2828 2175 2409 1742 
Q 1991 1309 1228 531 
z
" transform="scale(0.015625)"/>
       </defs>
       <use xlink:href="#DejaVuSans-31"/>
       <use xlink:href="#DejaVuSans-33" x="63.623047"/>
       <use xlink:href="#DejaVuSans-2e" x="127.246094"/>
       <use xlink:href="#DejaVuSans-34" x="159.033203"/>
       <use xlink:href="#DejaVuSans-32" x="222.65625"/>
      </g>
     </g>
    </g>
    <g id="xtick_3">
     <g id="line2d_3">
      <g>
       <use xlink:href="#m8ce76a9215" x="238.598399" y="307.584" style="stroke: #000000; stroke-width: 0.8"/>
      </g>
     </g>
     <g id="text_3">
      <!-- 13.44 -->
      <g transform="translate(224.284336 322.182437) scale(0.1 -0.1)">
       <use xlink:href="#DejaVuSans-31"/>
       <use xlink:href="#DejaVuSans-33" x="63.623047"/>
       <use xlink:href="#DejaVuSans-2e" x="127.246094"/>
       <use xlink:href="#DejaVuSans-34" x="159.033203"/>
       <use xlink:href="#DejaVuSans-34" x="222.65625"/>
      </g>
     </g>
    </g>
    <g id="xtick_4">
     <g id="line2d_4">
      <g>
       <use xlink:href="#m8ce76a9215" x="292.267156" y="307.584" style="stroke: #000000; stroke-width: 0.8"/>
      </g>
     </g>
     <g id="text_4">
      <!-- 13.46 -->
      <g transform="translate(277.953093 322.182437) scale(0.1 -0.1)">
       <defs>
        <path id="DejaVuSans-36" d="M 2113 2584 
Q 1688 2584 1439 2293 
Q 1191 2003 1191 1497 
Q 1191 994 1439 701 
Q 1688 409 2113 409 
Q 2538 409 2786 701 
Q 3034 994 3034 1497 
Q 3034 2003 2786 2293 
Q 2538 2584 2113 2584 
z
M 3366 4563 
L 3366 3988 
Q 3128 4100 2886 4159 
Q 2644 4219 2406 4219 
Q 1781 4219 1451 3797 
Q 1122 3375 1075 2522 
Q 1259 2794 1537 2939 
Q 1816 3084 2150 3084 
Q 2853 3084 3261 2657 
Q 3669 2231 3669 1497 
Q 3669 778 3244 343 
Q 2819 -91 2113 -91 
Q 1303 -91 875 529 
Q 447 1150 447 2328 
Q 447 3434 972 4092 
Q 1497 4750 2381 4750 
Q 2619 4750 2861 4703 
Q 3103 4656 3366 4563 
z
" transform="scale(0.015625)"/>
       </defs>
       <use xlink:href="#DejaVuSans-31"/>
       <use xlink:href="#DejaVuSans-33" x="63.623047"/>
       <use xlink:href="#DejaVuSans-2e" x="127.246094"/>
       <use xlink:href="#DejaVuSans-34" x="159.033203"/>
       <use xlink:href="#DejaVuSans-36" x="222.65625"/>
      </g>
     </g>
    </g>
    <g id="xtick_5">
     <g id="line2d_5">
      <g>
       <use xlink:href="#m8ce76a9215" x="345.935913" y="307.584" style="stroke: #000000; stroke-width: 0.8"/>
      </g>
     </g>
     <g id="text_5">
      <!-- 13.48 -->
      <g transform="translate(331.62185 322.182437) scale(0.1 -0.1)">
       <defs>
        <path id="DejaVuSans-38" d="M 2034 2216 
Q 1584 2216 1326 1975 
Q 1069 1734 1069 1313 
Q 1069 891 1326 650 
Q 1584 409 2034 409 
Q 2484 409 2743 651 
Q 3003 894 3003 1313 
Q 3003 1734 2745 1975 
Q 2488 2216 2034 2216 
z
M 1403 2484 
Q 997 2584 770 2862 
Q 544 3141 544 3541 
Q 544 4100 942 4425 
Q 1341 4750 2034 4750 
Q 2731 4750 3128 4425 
Q 3525 4100 3525 3541 
Q 3525 3141 3298 2862 
Q 3072 2584 2669 2484 
Q 3125 2378 3379 2068 
Q 3634 1759 3634 1313 
Q 3634 634 3220 271 
Q 2806 -91 2034 -91 
Q 1263 -91 848 271 
Q 434 634 434 1313 
Q 434 1759 690 2068 
Q 947 2378 1403 2484 
z
M 1172 3481 
Q 1172 3119 1398 2916 
Q 1625 2713 2034 2713 
Q 2441 2713 2670 2916 
Q 2900 3119 2900 3481 
Q 2900 3844 2670 4047 
Q 2441 4250 2034 4250 
Q 1625 4250 1398 4047 
Q 1172 3844 1172 3481 
z
" transform="scale(0.015625)"/>
       </defs>
       <use xlink:href="#DejaVuSans-31"/>
       <use xlink:href="#DejaVuSans-33" x="63.623047"/>
       <use xlink:href="#DejaVuSans-2e" x="127.246094"/>
       <use xlink:href="#DejaVuSans-34" x="159.033203"/>
       <use xlink:href="#DejaVuSans-38" x="222.65625"/>
      </g>
     </g>
    </g>
   </g>
   <g id="matplotlib.axis_2">
    <g id="ytick_1">
     <g id="line2d_6">
      <defs>
       <path id="mb2e5e15ca4" d="M 0 0 
L -3.5 0 
" style="stroke: #000000; stroke-width: 0.8"/>
      </defs>
      <g>
       <use xlink:href="#mb2e5e15ca4" x="119.286733" y="296.298114" style="stroke: #000000; stroke-width: 0.8"/>
      </g>
     </g>
     <g id="text_6">
      <!-- 52.41 -->
      <g transform="translate(83.658608 300.097332) scale(0.1 -0.1)">
       <defs>
        <path id="DejaVuSans-35" d="M 691 4666 
L 3169 4666 
L 3169 4134 
L 1269 4134 
L 1269 2991 
Q 1406 3038 1543 3061 
Q 1681 3084 1819 3084 
Q 2600 3084 3056 2656 
Q 3513 2228 3513 1497 
Q 3513 744 3044 326 
Q 2575 -91 1722 -91 
Q 1428 -91 1123 -41 
Q 819 9 494 109 
L 494 744 
Q 775 591 1075 516 
Q 1375 441 1709 441 
Q 2250 441 2565 725 
Q 2881 1009 2881 1497 
Q 2881 1984 2565 2268 
Q 2250 2553 1709 2553 
Q 1456 2553 1204 2497 
Q 953 2441 691 2322 
L 691 4666 
z
" transform="scale(0.015625)"/>
       </defs>
       <use xlink:href="#DejaVuSans-35"/>
       <use xlink:href="#DejaVuSans-32" x="63.623047"/>
       <use xlink:href="#DejaVuSans-2e" x="127.246094"/>
       <use xlink:href="#DejaVuSans-34" x="159.033203"/>
       <use xlink:href="#DejaVuSans-31" x="222.65625"/>
      </g>
     </g>
    </g>
    <g id="ytick_2">
     <g id="line2d_7">
      <g>
       <use xlink:href="#mb2e5e15ca4" x="119.286733" y="252.280212" style="stroke: #000000; stroke-width: 0.8"/>
      </g>
     </g>
     <g id="text_7">
      <!-- 52.42 -->
      <g transform="translate(83.658608 256.079431) scale(0.1 -0.1)">
       <use xlink:href="#DejaVuSans-35"/>
       <use xlink:href="#DejaVuSans-32" x="63.623047"/>
       <use xlink:href="#DejaVuSans-2e" x="127.246094"/>
       <use xlink:href="#DejaVuSans-34" x="159.033203"/>
       <use xlink:href="#DejaVuSans-32" x="222.65625"/>
      </g>
     </g>
    </g>
    <g id="ytick_3">
     <g id="line2d_8">
      <g>
       <use xlink:href="#mb2e5e15ca4" x="119.286733" y="208.262311" style="stroke: #000000; stroke-width: 0.8"/>
      </g>
     </g>
     <g id="text_8">
      <!-- 52.43 -->
      <g transform="translate(83.658608 212.06153) scale(0.1 -0.1)">
       <use xlink:href="#DejaVuSans-35"/>
       <use xlink:href="#DejaVuSans-32" x="63.623047"/>
       <use xlink:href="#DejaVuSans-2e" x="127.246094"/>
       <use xlink:href="#DejaVuSans-34" x="159.033203"/>
       <use xlink:href="#DejaVuSans-33" x="222.65625"/>
      </g>
     </g>
    </g>
    <g id="ytick_4">
     <g id="line2d_9">
      <g>
       <use xlink:href="#mb2e5e15ca4" x="119.286733" y="164.24441" style="stroke: #000000; stroke-width: 0.8"/>
      </g>
     </g>
     <g id="text_9">
      <!-- 52.44 -->
      <g transform="translate(83.658608 168.043629) scale(0.1 -0.1)">
       <use xlink:href="#DejaVuSans-35"/>
       <use xlink:href="#DejaVuSans-32" x="63.623047"/>
       <use xlink:href="#DejaVuSans-2e" x="127.246094"/>
       <use xlink:href="#DejaVuSans-34" x="159.033203"/>
       <use xlink:href="#DejaVuSans-34" x="222.65625"/>
      </g>
     </g>
    </g>
    <g id="ytick_5">
     <g id="line2d_10">
      <g>
       <use xlink:href="#mb2e5e15ca4" x="119.286733" y="120.226509" style="stroke: #000000; stroke-width: 0.8"/>
      </g>
     </g>
     <g id="text_10">
      <!-- 52.45 -->
      <g transform="translate(83.658608 124.025727) scale(0.1 -0.1)">
       <use xlink:href="#DejaVuSans-35"/>
       <use xlink:href="#DejaVuSans-32" x="63.623047"/>
       <use xlink:href="#DejaVuSans-2e" x="127.246094"/>
       <use xlink:href="#DejaVuSans-34" x="159.033203"/>
       <use xlink:href="#DejaVuSans-35" x="222.65625"/>
      </g>
     </g>
    </g>
    <g id="ytick_6">
     <g id="line2d_11">
      <g>
       <use xlink:href="#mb2e5e15ca4" x="119.286733" y="76.208607" style="stroke: #000000; stroke-width: 0.8"/>
      </g>
     </g>
     <g id="text_11">
      <!-- 52.46 -->
      <g transform="translate(83.658608 80.007826) scale(0.1 -0.1)">
       <use xlink:href="#DejaVuSans-35"/>
       <use xlink:href="#DejaVuSans-32" x="63.623047"/>
       <use xlink:href="#DejaVuSans-2e" x="127.246094"/>
       <use xlink:href="#DejaVuSans-34" x="159.033203"/>
       <use xlink:href="#DejaVuSans-36" x="222.65625"/>
      </g>
     </g>
    </g>
   </g>
   <g id="patch_3">
    <path d="M 119.286733 307.584 
L 119.286733 41.472 
" style="fill: none; stroke: #000000; stroke-width: 0.8; stroke-linejoin: miter; stroke-linecap: square"/>
   </g>
   <g id="patch_4">
    <path d="M 353.033267 307.584 
L 353.033267 41.472 
" style="fill: none; stroke: #000000; stroke-width: 0.8; stroke-linejoin: miter; stroke-linecap: square"/>
   </g>
   <g id="patch_5">
    <path d="M 119.286733 307.584 
L 353.033267 307.584 
" style="fill: none; stroke: #000000; stroke-width: 0.8; stroke-linejoin: miter; stroke-linecap: square"/>
   </g>
   <g id="patch_6">
    <path d="M 119.286733 41.472 
L 353.033267 41.472 
" style="fill: none; stroke: #000000; stroke-width: 0.8; stroke-linejoin: miter; stroke-linecap: square"/>
   </g>
   <g id="text_12">
    <!-- Britz_Buckow -->
    <g transform="translate(182.74887 179.953667) scale(0.12 -0.12)">
     <defs>
      <path id="DejaVuSans-42" d="M 1259 2228 
L 1259 519 
L 2272 519 
Q 2781 519 3026 730 
Q 3272 941 3272 1375 
Q 3272 1813 3026 2020 
Q 2781 2228 2272 2228 
L 1259 2228 
z
M 1259 4147 
L 1259 2741 
L 2194 2741 
Q 2656 2741 2882 2914 
Q 3109 3088 3109 3444 
Q 3109 3797 2882 3972 
Q 2656 4147 2194 4147 
L 1259 4147 
z
M 628 4666 
L 2241 4666 
Q 2963 4666 3353 4366 
Q 3744 4066 3744 3513 
Q 3744 3084 3544 2831 
Q 3344 2578 2956 2516 
Q 3422 2416 3680 2098 
Q 3938 1781 3938 1306 
Q 3938 681 3513 340 
Q 3088 0 2303 0 
L 628 0 
L 628 4666 
z
" transform="scale(0.015625)"/>
      <path id="DejaVuSans-72" d="M 2631 2963 
Q 2534 3019 2420 3045 
Q 2306 3072 2169 3072 
Q 1681 3072 1420 2755 
Q 1159 2438 1159 1844 
L 1159 0 
L 581 0 
L 581 3500 
L 1159 3500 
L 1159 2956 
Q 1341 3275 1631 3429 
Q 1922 3584 2338 3584 
Q 2397 3584 2469 3576 
Q 2541 3569 2628 3553 
L 2631 2963 
z
" transform="scale(0.015625)"/>
      <path id="DejaVuSans-69" d="M 603 3500 
L 1178 3500 
L 1178 0 
L 603 0 
L 603 3500 
z
M 603 4863 
L 1178 4863 
L 1178 4134 
L 603 4134 
L 603 4863 
z
" transform="scale(0.015625)"/>
      <path id="DejaVuSans-74" d="M 1172 4494 
L 1172 3500 
L 2356 3500 
L 2356 3053 
L 1172 3053 
L 1172 1153 
Q 1172 725 1289 603 
Q 1406 481 1766 481 
L 2356 481 
L 2356 0 
L 1766 0 
Q 1100 0 847 248 
Q 594 497 594 1153 
L 594 3053 
L 172 3053 
L 172 3500 
L 594 3500 
L 594 4494 
L 1172 4494 
z
" transform="scale(0.015625)"/>
      <path id="DejaVuSans-7a" d="M 353 3500 
L 3084 3500 
L 3084 2975 
L 922 459 
L 3084 459 
L 3084 0 
L 275 0 
L 275 525 
L 2438 3041 
L 353 3041 
L 353 3500 
z
" transform="scale(0.015625)"/>
      <path id="DejaVuSans-5f" d="M 3263 -1063 
L 3263 -1509 
L -63 -1509 
L -63 -1063 
L 3263 -1063 
z
" transform="scale(0.015625)"/>
      <path id="DejaVuSans-75" d="M 544 1381 
L 544 3500 
L 1119 3500 
L 1119 1403 
Q 1119 906 1312 657 
Q 1506 409 1894 409 
Q 2359 409 2629 706 
Q 2900 1003 2900 1516 
L 2900 3500 
L 3475 3500 
L 3475 0 
L 2900 0 
L 2900 538 
Q 2691 219 2414 64 
Q 2138 -91 1772 -91 
Q 1169 -91 856 284 
Q 544 659 544 1381 
z
M 1991 3584 
L 1991 3584 
z
" transform="scale(0.015625)"/>
      <path id="DejaVuSans-63" d="M 3122 3366 
L 3122 2828 
Q 2878 2963 2633 3030 
Q 2388 3097 2138 3097 
Q 1578 3097 1268 2742 
Q 959 2388 959 1747 
Q 959 1106 1268 751 
Q 1578 397 2138 397 
Q 2388 397 2633 464 
Q 2878 531 3122 666 
L 3122 134 
Q 2881 22 2623 -34 
Q 2366 -91 2075 -91 
Q 1284 -91 818 406 
Q 353 903 353 1747 
Q 353 2603 823 3093 
Q 1294 3584 2113 3584 
Q 2378 3584 2631 3529 
Q 2884 3475 3122 3366 
z
" transform="scale(0.015625)"/>
      <path id="DejaVuSans-6b" d="M 581 4863 
L 1159 4863 
L 1159 1991 
L 2875 3500 
L 3609 3500 
L 1753 1863 
L 3688 0 
L 2938 0 
L 1159 1709 
L 1159 0 
L 581 0 
L 581 4863 
z
" transform="scale(0.015625)"/>
      <path id="DejaVuSans-6f" d="M 1959 3097 
Q 1497 3097 1228 2736 
Q 959 2375 959 1747 
Q 959 1119 1226 758 
Q 1494 397 1959 397 
Q 2419 397 2687 759 
Q 2956 1122 2956 1747 
Q 2956 2369 2687 2733 
Q 2419 3097 1959 3097 
z
M 1959 3584 
Q 2709 3584 3137 3096 
Q 3566 2609 3566 1747 
Q 3566 888 3137 398 
Q 2709 -91 1959 -91 
Q 1206 -91 779 398 
Q 353 888 353 1747 
Q 353 2609 779 3096 
Q 1206 3584 1959 3584 
z
" transform="scale(0.015625)"/>
      <path id="DejaVuSans-77" d="M 269 3500 
L 844 3500 
L 1563 769 
L 2278 3500 
L 2956 3500 
L 3675 769 
L 4391 3500 
L 4966 3500 
L 4050 0 
L 3372 0 
L 2619 2869 
L 1863 0 
L 1184 0 
L 269 3500 
z
" transform="scale(0.015625)"/>
     </defs>
     <use xlink:href="#DejaVuSans-42"/>
     <use xlink:href="#DejaVuSans-72" x="68.603516"/>
     <use xlink:href="#DejaVuSans-69" x="109.716797"/>
     <use xlink:href="#DejaVuSans-74" x="137.5"/>
     <use xlink:href="#DejaVuSans-7a" x="176.708984"/>
     <use xlink:href="#DejaVuSans-5f" x="229.199219"/>
     <use xlink:href="#DejaVuSans-42" x="279.199219"/>
     <use xlink:href="#DejaVuSans-75" x="347.802734"/>
     <use xlink:href="#DejaVuSans-63" x="411.181641"/>
     <use xlink:href="#DejaVuSans-6b" x="466.162109"/>
     <use xlink:href="#DejaVuSans-6f" x="520.447266"/>
     <use xlink:href="#DejaVuSans-77" x="581.628906"/>
    </g>
   </g>
  </g>
 </g>
 <defs>
  <clipPath id="p084d57816d">
   <rect x="119.286733" y="41.472" width="233.746534" height="266.112"/>
  </clipPath>
 </defs>
</svg>
