<?xml version="1.0" encoding="utf-8" standalone="no"?>
<!DOCTYPE svg PUBLIC "-//W3C//DTD SVG 1.1//EN"
  "http://www.w3.org/Graphics/SVG/1.1/DTD/svg11.dtd">
<svg xmlns:xlink="http://www.w3.org/1999/xlink" width="460.8pt" height="345.6pt" viewBox="0 0 460.8 345.6" xmlns="http://www.w3.org/2000/svg" version="1.1">
 <metadata>
  <rdf:RDF xmlns:dc="http://purl.org/dc/elements/1.1/" xmlns:cc="http://creativecommons.org/ns#" xmlns:rdf="http://www.w3.org/1999/02/22-rdf-syntax-ns#">
   <cc:Work>
    <dc:type rdf:resource="http://purl.org/dc/dcmitype/StillImage"/>
    <dc:date>2024-10-15T09:53:30.871293</dc:date>
    <dc:format>image/svg+xml</dc:format>
    <dc:creator>
     <cc:Agent>
      <dc:title>Matplotlib v3.8.4, https://matplotlib.org/</dc:title>
     </cc:Agent>
    </dc:creator>
   </cc:Work>
  </rdf:RDF>
 </metadata>
 <defs>
  <style type="text/css">*{stroke-linejoin: round; stroke-linecap: butt}</style>
 </defs>
 <g id="figure_1">
  <g id="patch_1">
   <path d="M 0 345.6 
L 460.8 345.6 
L 460.8 0 
L 0 0 
z
" style="fill: #ffffff"/>
  </g>
  <g id="axes_1">
   <g id="patch_2">
    <path d="M 105.919094 307.584 
L 366.400906 307.584 
L 366.400906 41.472 
L 105.919094 41.472 
z
" style="fill: #ffffff"/>
   </g>
   <g id="PatchCollection_1">
    <path d="M 254.91294 74.216575 
L 254.775885 74.151885 
L 254.639098 74.086589 
L 254.502439 74.020795 
L 254.366083 73.954429 
L 254.229995 73.887491 
L 254.172046 73.858845 
L 252.898738 73.2287 
L 252.730316 73.145633 
L 252.561657 73.06296 
L 252.392832 72.980715 
L 252.223945 72.898825 
L 252.054821 72.817365 
L 251.885531 72.736298 
L 251.715896 72.655593 
L 251.546095 72.57528 
L 251.376092 72.495361 
L 251.197901 72.412215 
L 251.019544 72.329498 
L 250.840951 72.247211 
L 250.228012 72.157615 
L 248.966977 71.61282 
L 247.760982 71.09184 
L 247.658352 71.048286 
L 247.555154 71.006017 
L 247.451458 70.965033 
L 247.347229 70.925368 
L 247.242505 70.887058 
L 247.13732 70.850066 
L 246.971083 70.793266 
L 246.805526 70.736838 
L 246.634354 70.693122 
L 246.46173 70.659261 
L 246.288021 70.631503 
L 246.113352 70.612139 
L 245.943642 70.586473 
L 245.781332 70.591074 
L 245.402942 70.210432 
L 245.080343 71.031184 
L 245.064493 71.024577 
L 245.028415 71.009599 
L 244.399473 70.752423 
L 244.132843 70.642658 
L 243.820724 70.526765 
L 243.666243 70.472083 
L 243.510575 70.420821 
L 243.353862 70.37294 
L 243.196139 70.32851 
L 243.037478 70.287529 
L 242.877949 70.249996 
L 242.71766 70.215979 
L 242.55668 70.185476 
L 242.395045 70.15845 
L 242.232896 70.134934 
L 242.070234 70.114963 
L 241.9072 70.098569 
L 241.74383 70.085715 
L 241.580229 70.076435 
L 241.416469 70.070726 
L 241.252619 70.068587 
L 240.834719 70.069412 
L 240.754374 70.069506 
L 239.991564 70.081737 
L 239.724508 70.090602 
L 239.050324 70.125677 
L 237.837692 70.188698 
L 237.833504 70.108019 
L 237.829448 70.029879 
L 236.98505 70.07365 
L 236.983463 70.044689 
L 236.690771 70.067821 
L 235.208274 70.183528 
L 234.240141 70.286929 
L 233.149469 70.403723 
L 230.918045 70.431395 
L 230.779898 70.432168 
L 229.937323 70.566318 
L 229.870879 70.576919 
L 228.654516 70.779867 
L 228.109528 70.87038 
L 226.354621 71.173378 
L 224.609128 71.466062 
L 224.459776 71.390713 
L 224.085681 71.201918 
L 223.791152 71.053274 
L 221.96712 70.8954 
L 219.139346 70.650637 
L 218.702704 70.615983 
L 217.208841 70.484446 
L 217.171528 70.617751 
L 216.929292 71.482605 
L 216.869498 71.695479 
L 216.211485 71.839039 
L 215.639653 71.963102 
L 215.114009 72.077199 
L 214.459556 71.935874 
L 212.460534 71.504245 
L 211.87069 71.376917 
L 211.278946 71.363269 
L 210.951019 71.354003 
L 210.62322 71.341308 
L 210.295548 71.325185 
L 209.968074 71.305631 
L 209.640833 71.282646 
L 209.313826 71.256265 
L 209.138659 71.241154 
L 208.963609 71.225087 
L 208.78864 71.207994 
L 208.501794 71.176103 
L 208.215271 71.141591 
L 207.929072 71.104422 
L 207.643229 71.064596 
L 207.357746 71.022183 
L 207.096664 70.981359 
L 206.836133 70.937166 
L 206.576188 70.889567 
L 206.316866 70.838599 
L 206.058271 70.784257 
L 205.800369 70.726543 
L 205.601044 70.67957 
L 205.402232 70.630572 
L 205.203901 70.579584 
L 205.006084 70.526606 
L 204.821456 70.475175 
L 204.637313 70.422001 
L 204.453657 70.367084 
L 204.270557 70.310423 
L 204.136132 70.269022 
L 204.00132 70.229078 
L 203.86605 70.190594 
L 203.83829 70.182873 
L 203.822884 70.178626 
L 203.807479 70.174378 
L 203.792074 70.170131 
L 203.688833 70.142372 
L 203.585366 70.115467 
L 203.481708 70.089413 
L 203.452516 70.082222 
L 203.423325 70.0751 
L 203.394137 70.06805 
L 203.350729 70.057712 
L 203.307255 70.047517 
L 203.263785 70.037463 
L 203.179691 70.018451 
L 203.09547 70.000007 
L 203.011157 69.982131 
L 202.945495 69.968598 
L 202.879772 69.95542 
L 202.813951 69.942562 
L 202.764892 69.933212 
L 202.715837 69.924038 
L 202.666716 69.915042 
L 202.60287 69.903654 
L 202.53896 69.892551 
L 202.474988 69.881767 
L 202.413712 70.029373 
L 202.100833 70.785539 
L 201.648623 71.878411 
L 201.990645 71.969153 
L 201.796768 72.500664 
L 200.73838 75.393233 
L 200.704468 75.486544 
L 200.673481 75.596949 
L 200.587 75.905046 
L 200.551412 76.03192 
L 200.437857 76.274103 
L 200.240412 76.853672 
L 200.167123 77.068829 
L 199.555146 78.696617 
L 199.03104 80.02387 
L 198.587486 81.147267 
L 198.181402 82.023933 
L 197.391561 83.828744 
L 197.116098 84.712463 
L 196.916257 84.652586 
L 196.760627 85.158503 
L 196.960756 85.220069 
L 196.596363 86.397607 
L 196.181566 88.554573 
L 196.085885 90.75342 
L 196.134086 92.901556 
L 196.176431 94.829072 
L 196.193477 95.605953 
L 196.05242 95.607992 
L 196.053999 95.783787 
L 196.194432 95.782188 
L 196.236253 96.650436 
L 196.304045 98.058156 
L 196.345647 98.921853 
L 196.425617 101.37566 
L 196.615076 103.4847 
L 196.823856 106.305926 
L 197.03413 108.417595 
L 197.25591 110.686271 
L 197.534965 112.78183 
L 197.87706 115.354026 
L 198.245172 116.247875 
L 198.380952 116.570651 
L 199.477142 118.456414 
L 199.911046 119.192764 
L 199.175376 119.237711 
L 197.66962 119.329771 
L 197.050756 119.367602 
L 197.037303 119.236288 
L 196.984583 118.72245 
L 196.876888 117.671906 
L 196.754764 117.684921 
L 196.418696 117.72085 
L 196.349092 117.728258 
L 195.428385 119.245368 
L 194.90067 120.115019 
L 194.853622 120.192514 
L 194.842263 120.190676 
L 194.616609 120.154399 
L 194.094176 120.070395 
L 193.989541 120.053592 
L 193.786703 120.429988 
L 193.66189 120.698664 
L 193.522299 120.902501 
L 193.407252 121.045365 
L 193.212931 121.253734 
L 193.039836 121.481007 
L 192.591927 122.258796 
L 191.510422 124.004874 
L 190.813305 124.933975 
L 190.690598 125.048984 
L 189.896351 125.793426 
L 189.441963 126.434651 
L 189.206247 126.759061 
L 189.131995 126.919497 
L 189.115423 126.955303 
L 188.691942 127.870287 
L 188.558967 128.157608 
L 188.50855 128.321233 
L 188.192313 129.297676 
L 187.729663 130.726552 
L 187.76407 130.742619 
L 187.760567 130.749205 
L 187.395697 131.431029 
L 187.169398 131.853934 
L 187.163862 131.866646 
L 187.153601 131.890743 
L 186.921136 132.437959 
L 186.692872 132.975358 
L 186.651101 133.073635 
L 186.589781 133.218034 
L 186.582486 133.235204 
L 186.446489 133.555451 
L 185.934036 134.804469 
L 185.640001 135.34848 
L 185.700161 135.3685 
L 186.544373 135.649162 
L 186.710705 135.704382 
L 186.779105 135.72706 
L 186.993051 135.798091 
L 187.007761 135.802919 
L 187.074279 135.825007 
L 187.124879 135.841804 
L 187.125946 135.842201 
L 187.343525 135.914802 
L 187.288103 136.082579 
L 187.124447 136.584503 
L 187.08031 136.719715 
L 186.889188 136.656667 
L 186.832622 136.638005 
L 186.380769 136.488873 
L 186.270372 136.452401 
L 186.053345 136.380741 
L 185.982139 136.357215 
L 185.822708 136.304544 
L 185.798617 136.296593 
L 185.373617 136.156052 
L 185.359724 136.151452 
L 184.647656 135.915876 
L 184.60157 135.900593 
L 184.536581 136.060449 
L 184.404277 136.273049 
L 183.87341 136.756564 
L 183.676455 136.872783 
L 183.498293 136.950777 
L 183.244765 136.973736 
L 182.902493 136.995117 
L 182.345883 136.98243 
L 181.456768 136.967043 
L 180.973543 136.732199 
L 180.928701 136.711659 
L 180.428522 136.526688 
L 180.398732 136.617605 
L 180.14233 136.557067 
L 180.102415 136.547638 
L 179.857463 136.489818 
L 179.772845 136.469807 
L 179.556465 136.418732 
L 179.550792 136.417354 
L 179.284019 136.389253 
L 179.119974 136.34677 
L 178.533704 136.14077 
L 178.181643 135.98572 
L 178.169411 136.005557 
L 177.866779 136.488687 
L 176.608494 138.497247 
L 176.153373 139.22383 
L 175.922347 140.193729 
L 175.839943 140.53964 
L 175.554608 141.737341 
L 175.07788 143.738543 
L 174.915374 144.42063 
L 174.581423 145.04428 
L 172.51512 148.903112 
L 172.127731 149.626575 
L 171.839854 150.318387 
L 171.082706 152.138059 
L 170.772951 152.882448 
L 171.122243 153.615815 
L 171.840667 155.124268 
L 172.166349 155.808136 
L 172.375208 157.062895 
L 172.997343 160.800686 
L 173.075694 161.271494 
L 171.303028 162.261433 
L 162.087905 167.408054 
L 150.788859 171.911242 
L 147.61232 173.177414 
L 144.563306 173.358313 
L 138.353631 173.726886 
L 132.61698 176.585073 
L 129.961983 177.907931 
L 127.979293 179.888035 
L 125.516402 182.347832 
L 125.270723 185.030152 
L 124.594203 192.417182 
L 124.737326 198.484832 
L 124.784076 200.465431 
L 123.669389 202.055566 
L 120.036883 207.23765 
L 118.526598 212.233095 
L 117.759176 214.771629 
L 118.14534 217.258969 
L 119.07881 223.271575 
L 125.447268 234.247319 
L 126.114687 239.534556 
L 126.297776 240.985142 
L 125.64244 242.447336 
L 123.711658 246.755445 
L 119.826261 255.42408 
L 119.316421 256.56159 
L 119.485394 257.773143 
L 120.668983 266.261029 
L 121.146587 269.686544 
L 121.652777 273.316636 
L 121.820047 274.516402 
L 121.764104 276.169959 
L 121.610286 280.719157 
L 121.521489 283.344104 
L 134.329524 286.09276 
L 135.254523 286.291274 
L 136.802452 286.718745 
L 138.410264 285.654711 
L 141.003516 285.292626 
L 141.127383 285.275288 
L 141.735421 285.293578 
L 142.630151 285.963989 
L 144.016783 288.047041 
L 144.301967 288.997111 
L 144.362492 289.199407 
L 144.216613 290.120919 
L 144.180816 290.674863 
L 144.120158 291.613704 
L 144.325958 292.803907 
L 144.375141 293.089602 
L 144.662682 293.60684 
L 144.858479 293.959052 
L 145.247331 294.438609 
L 146.104341 294.822207 
L 146.771196 295.121554 
L 147.366109 295.403629 
L 147.786077 295.488 
L 148.121685 295.469079 
L 148.378948 295.417432 
L 149.109024 295.21472 
L 150.56589 294.552025 
L 151.341488 294.313426 
L 151.604465 294.099015 
L 151.974489 293.58144 
L 152.477286 292.784183 
L 153.182671 291.662762 
L 153.2452 291.56325 
L 153.547386 291.082695 
L 153.859432 290.717011 
L 154.088989 290.54459 
L 155.10241 289.939319 
L 156.367571 289.587037 
L 157.479111 289.081448 
L 157.871634 288.903482 
L 158.302852 288.708373 
L 158.737756 288.602221 
L 159.701364 288.631308 
L 160.751637 288.488866 
L 162.003995 288.507233 
L 163.600932 288.871202 
L 165.270633 289.33715 
L 167.040042 290.002289 
L 168.254007 290.471879 
L 169.471031 290.807706 
L 171.586993 291.279353 
L 174.13421 291.685766 
L 175.298056 292.087596 
L 175.422506 292.129575 
L 177.256476 292.764108 
L 177.758723 292.647359 
L 179.343717 292.276176 
L 180.516133 292.348057 
L 181.454101 292.403581 
L 183.843004 291.261249 
L 185.922439 290.835194 
L 188.458899 290.175167 
L 189.368648 290.078098 
L 193.014808 290.295688 
L 195.081229 290.370199 
L 195.244927 290.376039 
L 195.823105 290.396742 
L 196.261761 290.412491 
L 197.994722 290.310264 
L 201.450621 290.646934 
L 203.484848 290.577836 
L 203.647315 290.572271 
L 206.18857 290.485566 
L 206.675942 290.615609 
L 210.851574 290.062988 
L 213.870188 289.144513 
L 214.814574 289.037613 
L 218.411123 288.6308 
L 218.627302 288.571014 
L 222.05892 287.621436 
L 225.074588 287.589368 
L 227.138636 288.524319 
L 228.06314 288.942943 
L 230.834673 290.08699 
L 231.776709 290.711381 
L 233.760327 291.891862 
L 235.613399 292.294548 
L 235.630295 292.29869 
L 236.4415 292.484993 
L 236.504108 292.499637 
L 237.538502 292.74208 
L 238.447277 292.996683 
L 238.461286 293.000861 
L 238.46266 292.999414 
L 238.51528 293.014551 
L 238.568486 293.027695 
L 238.6221 293.038816 
L 238.67708 293.048208 
L 238.73243 293.055436 
L 238.787974 293.060504 
L 239.116089 293.178784 
L 239.141449 293.187842 
L 239.487447 293.262591 
L 239.653355 293.313174 
L 239.698545 293.326832 
L 240.180689 293.473523 
L 240.804242 293.668254 
L 240.853239 293.683515 
L 241.260007 293.771298 
L 241.493231 293.821648 
L 241.52574 293.725058 
L 241.707926 293.454587 
L 241.7798 293.34785 
L 242.09996 292.872523 
L 242.620754 293.282452 
L 243.358701 292.293422 
L 242.85823 291.924357 
L 242.701306 291.808841 
L 242.595434 291.73086 
L 243.174708 290.98004 
L 243.399353 290.688893 
L 244.077387 289.811467 
L 244.39473 289.400819 
L 245.14543 288.426921 
L 246.388141 286.814875 
L 246.548546 286.606791 
L 246.847501 286.218568 
L 248.711982 283.797156 
L 249.692578 282.8704 
L 249.92868 282.647083 
L 250.563454 282.046326 
L 250.91937 281.233097 
L 251.249011 280.804112 
L 251.711908 279.893574 
L 252.054412 279.453221 
L 253.643474 277.407212 
L 254.573122 276.210875 
L 255.084869 275.55224 
L 255.502438 275.014869 
L 256.328484 273.80867 
L 257.537927 272.394936 
L 257.828194 272.064732 
L 257.993597 272.194113 
L 258.074488 272.109947 
L 262.308447 267.704366 
L 262.942433 267.148535 
L 264.488551 265.792355 
L 264.929321 265.43314 
L 265.403575 265.032772 
L 265.872861 264.629277 
L 266.897467 263.765344 
L 267.641282 263.136497 
L 267.787875 262.977161 
L 267.876536 262.89938 
L 270.174092 260.584561 
L 270.839942 259.801815 
L 272.844791 257.256955 
L 275.045741 254.472042 
L 276.479777 252.653992 
L 276.598358 252.503644 
L 277.669196 250.864424 
L 278.447172 249.473529 
L 278.466843 249.429005 
L 279.314741 247.507713 
L 279.588518 246.887385 
L 280.626568 244.528085 
L 280.876513 243.960473 
L 281.779397 241.910101 
L 282.409529 240.383708 
L 283.182841 238.511965 
L 284.114218 236.843951 
L 284.818704 235.582239 
L 284.842372 234.989699 
L 284.854008 234.69762 
L 285.061379 233.789866 
L 286.662566 230.355784 
L 287.063862 229.722068 
L 287.246145 229.430945 
L 287.408954 229.200374 
L 287.295944 229.102797 
L 286.725404 228.610171 
L 286.358405 228.293293 
L 286.141783 228.129449 
L 285.749707 227.874622 
L 285.638529 227.805327 
L 285.288859 227.534322 
L 284.934018 227.25931 
L 284.718113 227.091979 
L 284.991046 226.739999 
L 285.006875 226.670348 
L 285.043262 226.623548 
L 286.745354 224.442497 
L 288.950478 221.616968 
L 290.815739 219.159171 
L 294.08536 214.91576 
L 294.398241 214.524425 
L 294.64899 214.20958 
L 294.86547 214.378879 
L 295.192928 214.632425 
L 295.246947 214.674214 
L 295.567119 214.922179 
L 295.939844 214.967575 
L 295.752018 215.212478 
L 296.030915 215.434526 
L 296.284195 215.11058 
L 296.415142 215.524751 
L 296.693249 215.79906 
L 296.669796 215.822833 
L 296.796947 215.971861 
L 296.835809 215.929667 
L 297.240848 216.236871 
L 297.535687 215.991787 
L 298.618816 215.098272 
L 299.600126 214.281432 
L 300.328156 213.563923 
L 300.74607 213.070104 
L 301.404764 212.288608 
L 301.839097 212.681833 
L 302.742439 211.822209 
L 303.084781 211.422974 
L 303.312551 211.136212 
L 303.878337 210.357742 
L 304.111219 210.032817 
L 304.343928 209.678613 
L 304.794979 208.90708 
L 305.196307 208.117071 
L 305.775293 207.018341 
L 307.249995 204.21981 
L 308.113298 202.653287 
L 309.35226 200.367184 
L 310.773731 197.74792 
L 311.327313 196.83611 
L 312.385508 195.360785 
L 313.453805 193.927046 
L 314.502843 192.519562 
L 315.95318 190.646572 
L 317.302104 188.848194 
L 318.023959 187.9105 
L 318.446442 187.396836 
L 319.938339 186.158435 
L 319.689851 185.962322 
L 320.66724 184.790359 
L 320.83232 184.631721 
L 321.079711 184.306754 
L 321.340803 184.059767 
L 321.566525 183.839415 
L 321.710688 183.722536 
L 323.337812 182.685789 
L 323.153925 182.31635 
L 322.971476 181.943733 
L 322.860128 181.715856 
L 323.029605 181.59219 
L 323.103933 181.742222 
L 323.18087 181.703359 
L 324.440971 181.081808 
L 324.471196 181.066849 
L 325.663693 180.473349 
L 326.873181 179.870974 
L 328.000708 179.312251 
L 329.038948 178.792868 
L 338.621903 174.025935 
L 340.792385 172.945958 
L 340.857192 172.913786 
L 341.24248 172.722499 
L 341.258378 172.7146 
L 341.917738 172.386885 
L 342.378729 172.157729 
L 342.430267 172.132091 
L 342.48574 172.104487 
L 342.795873 171.950143 
L 343.337057 171.680785 
L 343.998986 171.350337 
L 344.026973 171.229115 
L 344.056767 171.108344 
L 344.088441 170.988058 
L 344.119004 170.877406 
L 344.151944 170.767404 
L 344.187263 170.658193 
L 344.242136 170.498428 
L 344.29857 170.339156 
L 344.356499 170.180485 
L 344.415955 170.022342 
L 344.54291 169.693042 
L 344.605876 169.528386 
L 344.667028 169.362997 
L 344.726334 169.196981 
L 344.783826 169.030302 
L 344.827681 168.896197 
L 344.868625 168.761173 
L 344.906659 168.625299 
L 344.94175 168.488613 
L 344.973899 168.35122 
L 345.001445 168.221743 
L 345.025415 168.091574 
L 345.045776 167.96075 
L 345.062496 167.829447 
L 345.075576 167.697702 
L 345.084985 167.565655 
L 345.09076 167.433413 
L 345.092867 167.301046 
L 345.224842 167.135557 
L 345.343823 167.109935 
L 345.463359 167.086879 
L 345.583344 167.066426 
L 345.703742 167.048542 
L 345.896375 167.027734 
L 346.076191 167.011788 
L 346.087944 166.577647 
L 346.088751 166.547851 
L 345.791264 166.570454 
L 345.625473 166.439549 
L 345.59892 166.270954 
L 345.569243 166.102893 
L 345.536373 165.935403 
L 345.500384 165.768587 
L 345.448235 165.551398 
L 345.419048 165.437122 
L 345.373739 165.272578 
L 345.325526 165.108915 
L 345.274235 164.946174 
L 345.219902 164.784459 
L 345.162528 164.62377 
L 345.102186 164.464211 
L 345.03884 164.305819 
L 344.972529 164.148629 
L 344.764739 163.630678 
L 344.758078 163.632109 
L 344.747766 163.58958 
L 344.741522 163.546247 
L 344.739427 163.502533 
L 344.741524 163.45879 
L 344.747719 163.415478 
L 344.758056 163.372951 
L 344.772331 163.331602 
L 344.790519 163.291783 
L 344.812382 163.253891 
L 344.829722 163.228822 
L 344.848641 163.204952 
L 344.869141 163.182387 
L 344.891049 163.161236 
L 344.730721 162.916288 
L 344.643272 162.970016 
L 344.2973 162.282179 
L 344.381641 162.168796 
L 344.289234 161.402463 
L 344.263437 160.939405 
L 344.290731 160.83194 
L 344.377842 160.489426 
L 345.062665 158.453015 
L 344.464268 158.303363 
L 344.511973 158.101278 
L 344.557161 157.898581 
L 344.5998 157.695345 
L 344.639889 157.491604 
L 344.67743 157.287359 
L 344.720883 157.026387 
L 344.761541 156.764987 
L 344.799405 156.503124 
L 344.834477 156.240903 
L 344.899228 155.714896 
L 345.127292 153.610757 
L 345.158372 153.330265 
L 345.192101 153.050027 
L 345.228483 152.770185 
L 345.267444 152.490671 
L 345.309058 152.211516 
L 345.352013 151.932507 
L 345.397305 151.653901 
L 345.444931 151.375663 
L 345.494893 151.097864 
L 345.547191 150.820468 
L 345.601438 150.54352 
L 345.658127 150.267044 
L 345.717261 149.991075 
L 345.778803 149.715649 
L 345.842827 149.440799 
L 345.911467 149.154113 
L 345.982271 148.867975 
L 346.055237 148.582387 
L 346.130402 148.297346 
L 346.156785 148.28944 
L 346.305533 148.308852 
L 346.318926 148.252512 
L 346.332424 148.196169 
L 346.346065 148.139893 
L 346.399218 147.925139 
L 346.454037 147.710804 
L 346.505084 147.517485 
L 346.510522 147.496889 
L 346.568675 147.283428 
L 346.713081 146.764952 
L 346.737335 146.677871 
L 346.802473 146.233096 
L 347.064537 145.344642 
L 347.480336 144.27118 
L 347.895202 143.294841 
L 348.329472 142.323657 
L 348.770497 141.372588 
L 348.91384 141.07183 
L 348.904315 141.066936 
L 349.332456 140.217232 
L 349.63397 139.624124 
L 349.966578 138.970475 
L 349.99711 138.910124 
L 350.027571 138.849704 
L 350.057996 138.789284 
L 350.201195 138.503119 
L 350.343184 138.216382 
L 350.483995 137.929038 
L 350.633106 137.621609 
L 350.780897 137.313506 
L 350.9273 137.004765 
L 351.112716 136.608379 
L 351.295888 136.210952 
L 351.476816 135.812483 
L 351.655501 135.413009 
L 351.831942 135.012528 
L 351.873589 135.029974 
L 352.214869 134.274608 
L 352.411787 133.830971 
L 352.516308 133.588292 
L 352.542295 133.568034 
L 352.81054 132.868451 
L 352.88788 132.663841 
L 353.24995 131.70596 
L 353.245074 131.63854 
L 353.225287 131.631912 
L 353.53905 130.714298 
L 353.701623 130.230931 
L 353.755689 130.06303 
L 353.807979 129.894535 
L 353.858531 129.725552 
L 353.907307 129.556011 
L 353.954343 129.38591 
L 353.999606 129.215323 
L 354.043095 129.044247 
L 354.084812 128.872754 
L 354.123305 128.700562 
L 354.159567 128.527892 
L 354.193562 128.354747 
L 354.225256 128.181197 
L 354.25472 128.007205 
L 354.281919 127.832844 
L 354.306819 127.658114 
L 354.329422 127.483085 
L 354.360514 127.22015 
L 354.389168 126.956954 
L 354.415419 126.693498 
L 354.439269 126.429817 
L 354.460682 126.16591 
L 354.479659 125.90185 
L 354.496235 125.6376 
L 354.510375 125.373196 
L 354.525232 125.082496 
L 354.53755 124.791714 
L 354.54722 124.500784 
L 354.554317 124.209808 
L 354.55884 123.918789 
L 354.560824 123.627723 
L 354.5602 123.336649 
L 354.557003 123.045601 
L 354.5512 122.754615 
L 354.542825 122.463655 
L 354.525255 122.047989 
L 354.507928 121.638056 
L 354.495599 121.42564 
L 354.481826 121.213294 
L 354.466645 121.001052 
L 354.450022 120.788916 
L 354.419133 120.437314 
L 354.385289 120.085959 
L 354.348525 119.734885 
L 354.308845 119.384164 
L 354.269537 119.062538 
L 354.227804 118.741218 
L 354.162833 118.275172 
L 354.141562 118.130187 
L 354.119764 117.98525 
L 354.072384 117.679959 
L 354.023353 117.374955 
L 353.972637 117.070203 
L 353.92027 116.765737 
L 353.866118 116.461774 
L 353.81028 116.158097 
L 353.752793 115.854708 
L 353.693657 115.551675 
L 353.597683 115.075912 
L 353.499569 114.600623 
L 353.39928 114.125775 
L 353.296816 113.651367 
L 353.192038 113.177544 
L 353.085122 112.704197 
L 352.976031 112.23136 
L 352.864767 111.759034 
L 352.811365 111.530006 
L 352.756246 111.301372 
L 352.69948 111.073166 
L 352.640889 110.845286 
L 352.580653 110.617869 
L 352.518699 110.390882 
L 352.461947 110.193017 
L 352.40236 109.995997 
L 352.339938 109.799857 
L 352.274719 109.604631 
L 352.206666 109.410356 
L 352.135854 109.2171 
L 352.062352 109.024897 
L 351.986055 108.83375 
L 351.907071 108.643762 
L 351.825364 108.454898 
L 351.740937 108.26723 
L 351.653825 108.080827 
L 351.538734 107.842742 
L 351.421762 107.605621 
L 351.302908 107.369393 
L 351.182208 107.134127 
L 351.265024 107.079949 
L 351.585044 106.870602 
L 351.684071 106.805865 
L 351.631389 106.703909 
L 351.580832 106.600878 
L 351.532331 106.496844 
L 351.485956 106.391841 
L 351.441711 106.28594 
L 351.377237 106.135626 
L 351.345873 106.060113 
L 351.277349 105.886195 
L 351.211829 105.71111 
L 351.149314 105.53493 
L 351.089841 105.357688 
L 351.033445 105.179454 
L 350.980094 105.000265 
L 350.949764 104.873263 
L 350.837239 104.465643 
L 350.453398 103.042327 
L 350.216 102.162048 
L 350.195405 102.074022 
L 350.178108 101.985317 
L 350.164146 101.896002 
L 350.153556 101.806219 
L 350.146306 101.716108 
L 350.135614 101.613117 
L 350.121548 101.510524 
L 350.10418 101.408433 
L 350.083478 101.306987 
L 350.059481 101.206255 
L 350.032225 101.106378 
L 349.87488 100.497644 
L 349.862927 100.451445 
L 349.856559 100.425211 
L 349.852834 100.387971 
L 349.852464 100.371478 
L 349.854751 100.344579 
L 349.859896 100.31811 
L 349.403365 98.98915 
L 349.38088 98.974498 
L 349.360514 98.957004 
L 349.342557 98.937051 
L 349.327333 98.914949 
L 349.315097 98.89101 
L 349.306073 98.865723 
L 349.167839 98.366301 
L 349.143181 98.372483 
L 349.124084 98.377282 
L 348.813508 97.26533 
L 348.018485 94.382048 
L 347.224522 91.522234 
L 347.298076 91.497874 
L 347.116672 90.915889 
L 347.032255 90.655036 
L 346.91855 90.305375 
L 346.780828 89.864732 
L 346.669461 89.417632 
L 346.41493 88.34843 
L 345.86051 85.94372 
L 345.612653 84.878387 
L 345.607711 84.854344 
L 345.59944 84.805939 
L 345.594731 84.770941 
L 345.591075 84.735777 
L 345.588546 84.70055 
L 345.484019 83.440671 
L 345.470444 83.277348 
L 344.966323 78.421262 
L 344.918738 77.979494 
L 344.893951 77.801321 
L 344.81415 77.5482 
L 344.775375 77.468273 
L 344.63019 77.248325 
L 344.55655 77.169936 
L 344.489117 76.772725 
L 344.47678 76.671928 
L 344.4669 76.627057 
L 344.478254 76.633109 
L 344.499071 76.644198 
L 344.527478 76.103906 
L 344.537514 75.913564 
L 344.590177 75.208658 
L 344.671687 74.493704 
L 344.765936 73.797061 
L 344.871438 73.131764 
L 345.000694 72.405356 
L 345.267317 71.106895 
L 345.278253 71.053639 
L 345.543389 69.938594 
L 345.694451 69.303222 
L 345.825418 68.752396 
L 345.971461 68.193546 
L 346.139549 68.638268 
L 346.155768 68.635373 
L 346.164312 68.672964 
L 346.273439 69.152718 
L 346.347036 69.137188 
L 346.718168 70.413422 
L 347.293926 68.409655 
L 347.66187 67.310282 
L 348.00664 66.602229 
L 348.351189 66.143061 
L 348.916509 65.046652 
L 349.304846 64.379315 
L 349.696919 63.757878 
L 350.079854 63.216241 
L 350.490514 62.721099 
L 351.101193 62.053803 
L 351.673871 61.466782 
L 352.191649 61.041397 
L 352.78321 60.576816 
L 353.363831 60.172651 
L 353.334375 60.131849 
L 351.959677 60.279941 
L 350.430854 60.399113 
L 350.433467 60.424518 
L 348.772553 60.587437 
L 348.722468 60.592551 
L 348.439475 60.621478 
L 348.399157 60.625352 
L 349.549341 57.872555 
L 349.417452 57.812118 
L 349.285521 57.749916 
L 349.15531 57.685907 
L 349.025056 57.620133 
L 348.825167 57.517165 
L 348.703849 57.456476 
L 348.580769 57.39583 
L 348.46117 57.333335 
L 348.343334 57.270798 
L 347.686234 56.919112 
L 347.182583 56.645011 
L 346.278979 56.15792 
L 345.70359 55.906727 
L 345.43999 55.813262 
L 345.43882 55.812622 
L 344.825801 55.476638 
L 344.205033 55.141054 
L 343.802593 54.923041 
L 343.577887 54.801279 
L 343.143747 54.587662 
L 342.9456 54.490099 
L 342.31077 54.214374 
L 341.656598 53.983831 
L 341.125422 53.856214 
L 340.980917 53.821516 
L 340.28702 53.739784 
L 339.981685 53.720797 
L 339.633435 53.707462 
L 339.527407 53.568 
L 339.463722 53.610636 
L 339.333506 53.697812 
L 339.119782 53.698432 
L 338.939517 53.698994 
L 338.242487 53.787844 
L 338.127272 53.810519 
L 338.081299 53.819565 
L 337.560889 53.922142 
L 336.872306 54.076918 
L 336.199863 54.292031 
L 335.431914 54.649516 
L 334.893723 54.966012 
L 334.834751 55.000696 
L 334.278235 55.419606 
L 333.858616 55.787595 
L 333.756042 55.877541 
L 333.223679 56.337664 
L 332.690552 56.796711 
L 332.083393 57.321111 
L 331.531172 57.750984 
L 330.951243 58.149873 
L 330.45439 58.439644 
L 329.841338 58.766744 
L 329.739295 58.816695 
L 329.216641 59.072648 
L 329.191501 59.053364 
L 329.184717 59.035018 
L 328.433549 59.286061 
L 328.428967 59.287619 
L 328.388636 59.25676 
L 328.282746 59.294688 
L 327.680386 59.409148 
L 326.990232 59.52197 
L 326.817824 59.588479 
L 326.675626 59.616364 
L 326.41884 59.568898 
L 325.873092 59.592714 
L 325.171367 59.569336 
L 324.468034 59.514138 
L 323.766147 59.460393 
L 323.065299 59.405918 
L 322.363788 59.353229 
L 321.875811 59.311456 
L 321.489259 59.276577 
L 321.178463 59.248535 
L 320.480763 59.181315 
L 319.784475 59.122965 
L 319.081516 59.070289 
L 318.388116 59.020706 
L 317.68878 58.983914 
L 316.989205 58.973939 
L 316.294693 58.994329 
L 315.628071 59.017725 
L 315.033529 59.038721 
L 314.930452 59.042363 
L 314.661574 59.03194 
L 314.479053 59.024917 
L 314.280024 59.017194 
L 314.064778 59.008841 
L 313.959782 59.013342 
L 313.927695 59.014679 
L 313.89036 59.016282 
L 313.795508 59.020328 
L 312.815424 59.061972 
L 312.660063 59.068674 
L 312.565634 59.072746 
L 312.346966 59.0963 
L 312.050895 59.128179 
L 311.957352 59.13827 
L 311.837645 59.151215 
L 311.624359 59.174288 
L 311.59809 59.177145 
L 311.61852 59.41324 
L 311.620523 59.436505 
L 311.572495 59.431796 
L 311.524435 59.427195 
L 311.476376 59.422699 
L 311.371022 59.413682 
L 311.265668 59.404666 
L 311.220657 59.400803 
L 311.160226 59.396393 
L 311.054761 59.388686 
L 310.964697 59.382128 
L 310.949303 59.381191 
L 310.843766 59.374863 
L 310.738194 59.368537 
L 310.708534 59.366742 
L 310.632609 59.363129 
L 310.526962 59.358111 
L 310.452202 59.354576 
L 310.421326 59.353517 
L 310.315641 59.349843 
L 310.209957 59.346204 
L 310.195701 59.345699 
L 310.104265 59.343695 
L 309.998542 59.341364 
L 309.939136 59.340038 
L 309.892797 59.339599 
L 309.787072 59.338645 
L 309.682509 59.337664 
L 309.388879 59.338936 
L 309.095316 59.344481 
L 308.801854 59.354262 
L 308.50853 59.36835 
L 308.270862 59.383183 
L 308.215484 59.386635 
L 307.922717 59.409223 
L 307.630299 59.436042 
L 307.485477 59.451431 
L 307.338335 59.467089 
L 307.046825 59.502364 
L 306.75584 59.541901 
L 306.465484 59.585627 
L 306.184221 59.632101 
L 305.903688 59.682549 
L 305.62385 59.736973 
L 305.344811 59.795299 
L 305.066606 59.857561 
L 304.789307 59.923722 
L 304.512983 59.993817 
L 304.23767 60.067773 
L 304.247896 60.133967 
L 304.264629 60.242038 
L 302.701517 60.69258 
L 302.475826 60.797946 
L 301.834805 61.097138 
L 301.139463 61.421661 
L 299.642836 62.195273 
L 298.035383 63.148148 
L 297.94038 63.204483 
L 296.76388 63.901943 
L 295.524158 64.465265 
L 295.526609 64.476297 
L 295.531364 64.498082 
L 293.327572 65.196739 
L 292.809622 65.360923 
L 292.543347 65.395331 
L 291.212571 65.567255 
L 290.581822 65.648763 
L 290.090642 65.712242 
L 285.770171 66.09645 
L 283.054894 66.280152 
L 280.295474 66.37447 
L 279.052801 66.417018 
L 278.656813 66.430572 
L 275.006712 66.345232 
L 272.293086 66.299257 
L 270.24653 66.112895 
L 268.92724 65.92803 
L 267.635798 65.53053 
L 266.615274 65.117518 
L 265.964658 64.829671 
L 265.342701 64.490795 
L 265.132422 64.356598 
L 263.61218 63.386045 
L 262.7982 62.724132 
L 262.043931 62.024104 
L 261.452539 61.475038 
L 260.754244 63.590629 
L 260.666455 63.856658 
L 260.642545 63.929121 
L 260.865496 63.967846 
L 260.942786 63.982672 
L 261.019511 64.000373 
L 261.095494 64.020918 
L 261.170665 64.044308 
L 261.228589 64.06455 
L 261.285883 64.086433 
L 261.342548 64.109991 
L 261.398477 64.135192 
L 261.478092 64.174652 
L 261.555821 64.217761 
L 261.631484 64.264381 
L 261.704938 64.314411 
L 261.77604 64.367748 
L 261.844611 64.424325 
L 261.910542 64.483969 
L 261.973688 64.546577 
L 262.033872 64.612013 
L 262.090982 64.680137 
L 262.144945 64.750775 
L 262.195582 64.823825 
L 262.242854 64.899147 
L 262.286615 64.976533 
L 262.326827 65.055877 
L 262.363344 65.136935 
L 262.396127 65.219604 
L 262.425102 65.303707 
L 262.448048 65.38054 
L 262.468087 65.458149 
L 262.485182 65.536502 
L 262.499258 65.615422 
L 262.51035 65.694839 
L 262.518454 65.774611 
L 262.523497 65.854634 
L 262.600306 67.602164 
L 262.609988 67.838658 
L 262.623423 68.171842 
L 262.654664 68.945732 
L 262.656563 68.996408 
L 262.673784 69.456696 
L 262.682019 69.694602 
L 262.718099 70.381623 
L 262.787273 71.065331 
L 262.889423 71.745198 
L 263.022684 72.419929 
L 263.19264 73.085749 
L 263.228454 73.209212 
L 263.265319 73.332366 
L 263.303234 73.455212 
L 263.342902 73.584939 
L 263.38376 73.714284 
L 263.425771 73.843247 
L 263.544269 74.199909 
L 263.581568 74.319167 
L 263.614701 74.439657 
L 263.64363 74.561239 
L 263.668352 74.68377 
L 263.688825 74.807041 
L 263.704979 74.930982 
L 263.716842 75.055381 
L 263.724414 75.180166 
L 263.727653 75.305092 
L 263.733361 75.923232 
L 263.89779 76.166311 
L 263.869902 76.234596 
L 263.831797 76.327926 
L 263.700838 76.64841 
L 263.632945 76.814522 
L 263.501957 77.135254 
L 263.434664 77.299903 
L 263.203391 77.206557 
L 262.971452 77.114853 
L 262.738849 77.024825 
L 262.505617 76.936508 
L 262.263219 76.846719 
L 262.020124 76.758748 
L 261.776403 76.672595 
L 261.532021 76.588295 
L 261.175144 76.466219 
L 261.116169 76.446108 
L 261.057198 76.426138 
L 260.998159 76.406276 
L 260.813135 76.344833 
L 260.627752 76.284566 
L 260.441973 76.225438 
L 260.413164 76.217909 
L 260.383605 76.21432 
L 260.353825 76.214727 
L 260.324388 76.219117 
L 260.295786 76.227408 
L 260.268546 76.23948 
L 260.243153 76.255075 
L 260.220096 76.273933 
L 260.199754 76.295727 
L 260.182504 76.320025 
L 260.172173 76.338856 
L 260.163698 76.358631 
L 260.157179 76.3791 
L 259.89744 76.275042 
L 259.817125 76.242841 
L 259.659665 76.179775 
L 259.586116 76.150342 
L 259.43987 76.091736 
L 259.365038 76.061768 
L 259.215339 76.001799 
L 257.983245 75.508298 
L 257.831159 75.447364 
L 257.066889 75.141373 
L 256.950785 75.095917 
L 256.834847 75.050032 
L 256.719076 75.003756 
L 256.578647 74.946706 
L 256.438451 74.889086 
L 256.298486 74.830824 
L 256.158755 74.772027 
L 256.019255 74.712624 
L 255.879989 74.65265 
L 255.741063 74.592174 
L 255.602369 74.531126 
L 255.463943 74.469472 
L 255.325817 74.407105 
L 255.187924 74.344201 
L 255.050299 74.280691 
L 254.91294 74.216575 
" clip-path="url(#pdcb6b8cd84)" style="fill: #1f77b4"/>
   </g>
   <g id="matplotlib.axis_1">
    <g id="xtick_1">
     <g id="line2d_1">
      <defs>
       <path id="m9fb711b20c" d="M 0 0 
L 0 3.5 
" style="stroke: #000000; stroke-width: 0.8"/>
      </defs>
      <g>
       <use xlink:href="#m9fb711b20c" x="149.813419" y="307.584" style="stroke: #000000; stroke-width: 0.8"/>
      </g>
     </g>
     <g id="text_1">
      <!-- 13.20 -->
      <g transform="translate(135.499357 322.182437) scale(0.1 -0.1)">
       <defs>
        <path id="DejaVuSans-31" d="M 794 531 
L 1825 531 
L 1825 4091 
L 703 3866 
L 703 4441 
L 1819 4666 
L 2450 4666 
L 2450 531 
L 3481 531 
L 3481 0 
L 794 0 
L 794 531 
z
" transform="scale(0.015625)"/>
        <path id="DejaVuSans-33" d="M 2597 2516 
Q 3050 2419 3304 2112 
Q 3559 1806 3559 1356 
Q 3559 666 3084 287 
Q 2609 -91 1734 -91 
Q 1441 -91 1130 -33 
Q 819 25 488 141 
L 488 750 
Q 750 597 1062 519 
Q 1375 441 1716 441 
Q 2309 441 2620 675 
Q 2931 909 2931 1356 
Q 2931 1769 2642 2001 
Q 2353 2234 1838 2234 
L 1294 2234 
L 1294 2753 
L 1863 2753 
Q 2328 2753 2575 2939 
Q 2822 3125 2822 3475 
Q 2822 3834 2567 4026 
Q 2313 4219 1838 4219 
Q 1578 4219 1281 4162 
Q 984 4106 628 3988 
L 628 4550 
Q 988 4650 1302 4700 
Q 1616 4750 1894 4750 
Q 2613 4750 3031 4423 
Q 3450 4097 3450 3541 
Q 3450 3153 3228 2886 
Q 3006 2619 2597 2516 
z
" transform="scale(0.015625)"/>
        <path id="DejaVuSans-2e" d="M 684 794 
L 1344 794 
L 1344 0 
L 684 0 
L 684 794 
z
" transform="scale(0.015625)"/>
        <path id="DejaVuSans-32" d="M 1228 531 
L 3431 531 
L 3431 0 
L 469 0 
L 469 531 
Q 828 903 1448 1529 
Q 2069 2156 2228 2338 
Q 2531 2678 2651 2914 
Q 2772 3150 2772 3378 
Q 2772 3750 2511 3984 
Q 2250 4219 1831 4219 
Q 1534 4219 1204 4116 
Q 875 4013 500 3803 
L 500 4441 
Q 881 4594 1212 4672 
Q 1544 4750 1819 4750 
Q 2544 4750 2975 4387 
Q 3406 4025 3406 3419 
Q 3406 3131 3298 2873 
Q 3191 2616 2906 2266 
Q 2828 2175 2409 1742 
Q 1991 1309 1228 531 
z
" transform="scale(0.015625)"/>
        <path id="DejaVuSans-30" d="M 2034 4250 
Q 1547 4250 1301 3770 
Q 1056 3291 1056 2328 
Q 1056 1369 1301 889 
Q 1547 409 2034 409 
Q 2525 409 2770 889 
Q 3016 1369 3016 2328 
Q 3016 3291 2770 3770 
Q 2525 4250 2034 4250 
z
M 2034 4750 
Q 2819 4750 3233 4129 
Q 3647 3509 3647 2328 
Q 3647 1150 3233 529 
Q 2819 -91 2034 -91 
Q 1250 -91 836 529 
Q 422 1150 422 2328 
Q 422 3509 836 4129 
Q 1250 4750 2034 4750 
z
" transform="scale(0.015625)"/>
       </defs>
       <use xlink:href="#DejaVuSans-31"/>
       <use xlink:href="#DejaVuSans-33" x="63.623047"/>
       <use xlink:href="#DejaVuSans-2e" x="127.246094"/>
       <use xlink:href="#DejaVuSans-32" x="159.033203"/>
       <use xlink:href="#DejaVuSans-30" x="222.65625"/>
      </g>
     </g>
    </g>
    <g id="xtick_2">
     <g id="line2d_2">
      <g>
       <use xlink:href="#m9fb711b20c" x="197.644366" y="307.584" style="stroke: #000000; stroke-width: 0.8"/>
      </g>
     </g>
     <g id="text_2">
      <!-- 13.22 -->
      <g transform="translate(183.330304 322.182437) scale(0.1 -0.1)">
       <use xlink:href="#DejaVuSans-31"/>
       <use xlink:href="#DejaVuSans-33" x="63.623047"/>
       <use xlink:href="#DejaVuSans-2e" x="127.246094"/>
       <use xlink:href="#DejaVuSans-32" x="159.033203"/>
       <use xlink:href="#DejaVuSans-32" x="222.65625"/>
      </g>
     </g>
    </g>
    <g id="xtick_3">
     <g id="line2d_3">
      <g>
       <use xlink:href="#m9fb711b20c" x="245.475313" y="307.584" style="stroke: #000000; stroke-width: 0.8"/>
      </g>
     </g>
     <g id="text_3">
      <!-- 13.24 -->
      <g transform="translate(231.16125 322.182437) scale(0.1 -0.1)">
       <defs>
        <path id="DejaVuSans-34" d="M 2419 4116 
L 825 1625 
L 2419 1625 
L 2419 4116 
z
M 2253 4666 
L 3047 4666 
L 3047 1625 
L 3713 1625 
L 3713 1100 
L 3047 1100 
L 3047 0 
L 2419 0 
L 2419 1100 
L 313 1100 
L 313 1709 
L 2253 4666 
z
" transform="scale(0.015625)"/>
       </defs>
       <use xlink:href="#DejaVuSans-31"/>
       <use xlink:href="#DejaVuSans-33" x="63.623047"/>
       <use xlink:href="#DejaVuSans-2e" x="127.246094"/>
       <use xlink:href="#DejaVuSans-32" x="159.033203"/>
       <use xlink:href="#DejaVuSans-34" x="222.65625"/>
      </g>
     </g>
    </g>
    <g id="xtick_4">
     <g id="line2d_4">
      <g>
       <use xlink:href="#m9fb711b20c" x="293.306259" y="307.584" style="stroke: #000000; stroke-width: 0.8"/>
      </g>
     </g>
     <g id="text_4">
      <!-- 13.26 -->
      <g transform="translate(278.992197 322.182437) scale(0.1 -0.1)">
       <defs>
        <path id="DejaVuSans-36" d="M 2113 2584 
Q 1688 2584 1439 2293 
Q 1191 2003 1191 1497 
Q 1191 994 1439 701 
Q 1688 409 2113 409 
Q 2538 409 2786 701 
Q 3034 994 3034 1497 
Q 3034 2003 2786 2293 
Q 2538 2584 2113 2584 
z
M 3366 4563 
L 3366 3988 
Q 3128 4100 2886 4159 
Q 2644 4219 2406 4219 
Q 1781 4219 1451 3797 
Q 1122 3375 1075 2522 
Q 1259 2794 1537 2939 
Q 1816 3084 2150 3084 
Q 2853 3084 3261 2657 
Q 3669 2231 3669 1497 
Q 3669 778 3244 343 
Q 2819 -91 2113 -91 
Q 1303 -91 875 529 
Q 447 1150 447 2328 
Q 447 3434 972 4092 
Q 1497 4750 2381 4750 
Q 2619 4750 2861 4703 
Q 3103 4656 3366 4563 
z
" transform="scale(0.015625)"/>
       </defs>
       <use xlink:href="#DejaVuSans-31"/>
       <use xlink:href="#DejaVuSans-33" x="63.623047"/>
       <use xlink:href="#DejaVuSans-2e" x="127.246094"/>
       <use xlink:href="#DejaVuSans-32" x="159.033203"/>
       <use xlink:href="#DejaVuSans-36" x="222.65625"/>
      </g>
     </g>
    </g>
    <g id="xtick_5">
     <g id="line2d_5">
      <g>
       <use xlink:href="#m9fb711b20c" x="341.137206" y="307.584" style="stroke: #000000; stroke-width: 0.8"/>
      </g>
     </g>
     <g id="text_5">
      <!-- 13.28 -->
      <g transform="translate(326.823144 322.182437) scale(0.1 -0.1)">
       <defs>
        <path id="DejaVuSans-38" d="M 2034 2216 
Q 1584 2216 1326 1975 
Q 1069 1734 1069 1313 
Q 1069 891 1326 650 
Q 1584 409 2034 409 
Q 2484 409 2743 651 
Q 3003 894 3003 1313 
Q 3003 1734 2745 1975 
Q 2488 2216 2034 2216 
z
M 1403 2484 
Q 997 2584 770 2862 
Q 544 3141 544 3541 
Q 544 4100 942 4425 
Q 1341 4750 2034 4750 
Q 2731 4750 3128 4425 
Q 3525 4100 3525 3541 
Q 3525 3141 3298 2862 
Q 3072 2584 2669 2484 
Q 3125 2378 3379 2068 
Q 3634 1759 3634 1313 
Q 3634 634 3220 271 
Q 2806 -91 2034 -91 
Q 1263 -91 848 271 
Q 434 634 434 1313 
Q 434 1759 690 2068 
Q 947 2378 1403 2484 
z
M 1172 3481 
Q 1172 3119 1398 2916 
Q 1625 2713 2034 2713 
Q 2441 2713 2670 2916 
Q 2900 3119 2900 3481 
Q 2900 3844 2670 4047 
Q 2441 4250 2034 4250 
Q 1625 4250 1398 4047 
Q 1172 3844 1172 3481 
z
" transform="scale(0.015625)"/>
       </defs>
       <use xlink:href="#DejaVuSans-31"/>
       <use xlink:href="#DejaVuSans-33" x="63.623047"/>
       <use xlink:href="#DejaVuSans-2e" x="127.246094"/>
       <use xlink:href="#DejaVuSans-32" x="159.033203"/>
       <use xlink:href="#DejaVuSans-38" x="222.65625"/>
      </g>
     </g>
    </g>
   </g>
   <g id="matplotlib.axis_2">
    <g id="ytick_1">
     <g id="line2d_6">
      <defs>
       <path id="maf69f7fca8" d="M 0 0 
L -3.5 0 
" style="stroke: #000000; stroke-width: 0.8"/>
      </defs>
      <g>
       <use xlink:href="#maf69f7fca8" x="105.919094" y="290.560324" style="stroke: #000000; stroke-width: 0.8"/>
      </g>
     </g>
     <g id="text_6">
      <!-- 52.47 -->
      <g transform="translate(70.290969 294.359542) scale(0.1 -0.1)">
       <defs>
        <path id="DejaVuSans-35" d="M 691 4666 
L 3169 4666 
L 3169 4134 
L 1269 4134 
L 1269 2991 
Q 1406 3038 1543 3061 
Q 1681 3084 1819 3084 
Q 2600 3084 3056 2656 
Q 3513 2228 3513 1497 
Q 3513 744 3044 326 
Q 2575 -91 1722 -91 
Q 1428 -91 1123 -41 
Q 819 9 494 109 
L 494 744 
Q 775 591 1075 516 
Q 1375 441 1709 441 
Q 2250 441 2565 725 
Q 2881 1009 2881 1497 
Q 2881 1984 2565 2268 
Q 2250 2553 1709 2553 
Q 1456 2553 1204 2497 
Q 953 2441 691 2322 
L 691 4666 
z
" transform="scale(0.015625)"/>
        <path id="DejaVuSans-37" d="M 525 4666 
L 3525 4666 
L 3525 4397 
L 1831 0 
L 1172 0 
L 2766 4134 
L 525 4134 
L 525 4666 
z
" transform="scale(0.015625)"/>
       </defs>
       <use xlink:href="#DejaVuSans-35"/>
       <use xlink:href="#DejaVuSans-32" x="63.623047"/>
       <use xlink:href="#DejaVuSans-2e" x="127.246094"/>
       <use xlink:href="#DejaVuSans-34" x="159.033203"/>
       <use xlink:href="#DejaVuSans-37" x="222.65625"/>
      </g>
     </g>
    </g>
    <g id="ytick_2">
     <g id="line2d_7">
      <g>
       <use xlink:href="#maf69f7fca8" x="105.919094" y="251.275277" style="stroke: #000000; stroke-width: 0.8"/>
      </g>
     </g>
     <g id="text_7">
      <!-- 52.48 -->
      <g transform="translate(70.290969 255.074496) scale(0.1 -0.1)">
       <use xlink:href="#DejaVuSans-35"/>
       <use xlink:href="#DejaVuSans-32" x="63.623047"/>
       <use xlink:href="#DejaVuSans-2e" x="127.246094"/>
       <use xlink:href="#DejaVuSans-34" x="159.033203"/>
       <use xlink:href="#DejaVuSans-38" x="222.65625"/>
      </g>
     </g>
    </g>
    <g id="ytick_3">
     <g id="line2d_8">
      <g>
       <use xlink:href="#maf69f7fca8" x="105.919094" y="211.990231" style="stroke: #000000; stroke-width: 0.8"/>
      </g>
     </g>
     <g id="text_8">
      <!-- 52.49 -->
      <g transform="translate(70.290969 215.78945) scale(0.1 -0.1)">
       <defs>
        <path id="DejaVuSans-39" d="M 703 97 
L 703 672 
Q 941 559 1184 500 
Q 1428 441 1663 441 
Q 2288 441 2617 861 
Q 2947 1281 2994 2138 
Q 2813 1869 2534 1725 
Q 2256 1581 1919 1581 
Q 1219 1581 811 2004 
Q 403 2428 403 3163 
Q 403 3881 828 4315 
Q 1253 4750 1959 4750 
Q 2769 4750 3195 4129 
Q 3622 3509 3622 2328 
Q 3622 1225 3098 567 
Q 2575 -91 1691 -91 
Q 1453 -91 1209 -44 
Q 966 3 703 97 
z
M 1959 2075 
Q 2384 2075 2632 2365 
Q 2881 2656 2881 3163 
Q 2881 3666 2632 3958 
Q 2384 4250 1959 4250 
Q 1534 4250 1286 3958 
Q 1038 3666 1038 3163 
Q 1038 2656 1286 2365 
Q 1534 2075 1959 2075 
z
" transform="scale(0.015625)"/>
       </defs>
       <use xlink:href="#DejaVuSans-35"/>
       <use xlink:href="#DejaVuSans-32" x="63.623047"/>
       <use xlink:href="#DejaVuSans-2e" x="127.246094"/>
       <use xlink:href="#DejaVuSans-34" x="159.033203"/>
       <use xlink:href="#DejaVuSans-39" x="222.65625"/>
      </g>
     </g>
    </g>
    <g id="ytick_4">
     <g id="line2d_9">
      <g>
       <use xlink:href="#maf69f7fca8" x="105.919094" y="172.705185" style="stroke: #000000; stroke-width: 0.8"/>
      </g>
     </g>
     <g id="text_9">
      <!-- 52.50 -->
      <g transform="translate(70.290969 176.504403) scale(0.1 -0.1)">
       <use xlink:href="#DejaVuSans-35"/>
       <use xlink:href="#DejaVuSans-32" x="63.623047"/>
       <use xlink:href="#DejaVuSans-2e" x="127.246094"/>
       <use xlink:href="#DejaVuSans-35" x="159.033203"/>
       <use xlink:href="#DejaVuSans-30" x="222.65625"/>
      </g>
     </g>
    </g>
    <g id="ytick_5">
     <g id="line2d_10">
      <g>
       <use xlink:href="#maf69f7fca8" x="105.919094" y="133.420138" style="stroke: #000000; stroke-width: 0.8"/>
      </g>
     </g>
     <g id="text_10">
      <!-- 52.51 -->
      <g transform="translate(70.290969 137.219357) scale(0.1 -0.1)">
       <use xlink:href="#DejaVuSans-35"/>
       <use xlink:href="#DejaVuSans-32" x="63.623047"/>
       <use xlink:href="#DejaVuSans-2e" x="127.246094"/>
       <use xlink:href="#DejaVuSans-35" x="159.033203"/>
       <use xlink:href="#DejaVuSans-31" x="222.65625"/>
      </g>
     </g>
    </g>
    <g id="ytick_6">
     <g id="line2d_11">
      <g>
       <use xlink:href="#maf69f7fca8" x="105.919094" y="94.135092" style="stroke: #000000; stroke-width: 0.8"/>
      </g>
     </g>
     <g id="text_11">
      <!-- 52.52 -->
      <g transform="translate(70.290969 97.934311) scale(0.1 -0.1)">
       <use xlink:href="#DejaVuSans-35"/>
       <use xlink:href="#DejaVuSans-32" x="63.623047"/>
       <use xlink:href="#DejaVuSans-2e" x="127.246094"/>
       <use xlink:href="#DejaVuSans-35" x="159.033203"/>
       <use xlink:href="#DejaVuSans-32" x="222.65625"/>
      </g>
     </g>
    </g>
    <g id="ytick_7">
     <g id="line2d_12">
      <g>
       <use xlink:href="#maf69f7fca8" x="105.919094" y="54.850046" style="stroke: #000000; stroke-width: 0.8"/>
      </g>
     </g>
     <g id="text_12">
      <!-- 52.53 -->
      <g transform="translate(70.290969 58.649265) scale(0.1 -0.1)">
       <use xlink:href="#DejaVuSans-35"/>
       <use xlink:href="#DejaVuSans-32" x="63.623047"/>
       <use xlink:href="#DejaVuSans-2e" x="127.246094"/>
       <use xlink:href="#DejaVuSans-35" x="159.033203"/>
       <use xlink:href="#DejaVuSans-33" x="222.65625"/>
      </g>
     </g>
    </g>
   </g>
   <g id="patch_3">
    <path d="M 105.919094 307.584 
L 105.919094 41.472 
" style="fill: none; stroke: #000000; stroke-width: 0.8; stroke-linejoin: miter; stroke-linecap: square"/>
   </g>
   <g id="patch_4">
    <path d="M 366.400906 307.584 
L 366.400906 41.472 
" style="fill: none; stroke: #000000; stroke-width: 0.8; stroke-linejoin: miter; stroke-linecap: square"/>
   </g>
   <g id="patch_5">
    <path d="M 105.919094 307.584 
L 366.400906 307.584 
" style="fill: none; stroke: #000000; stroke-width: 0.8; stroke-linejoin: miter; stroke-linecap: square"/>
   </g>
   <g id="patch_6">
    <path d="M 105.919094 41.472 
L 366.400906 41.472 
" style="fill: none; stroke: #000000; stroke-width: 0.8; stroke-linejoin: miter; stroke-linecap: square"/>
   </g>
   <g id="text_13">
    <!-- Charlottenburg_West -->
    <g transform="translate(173.536681 179.978177) scale(0.12 -0.12)">
     <defs>
      <path id="DejaVuSans-43" d="M 4122 4306 
L 4122 3641 
Q 3803 3938 3442 4084 
Q 3081 4231 2675 4231 
Q 1875 4231 1450 3742 
Q 1025 3253 1025 2328 
Q 1025 1406 1450 917 
Q 1875 428 2675 428 
Q 3081 428 3442 575 
Q 3803 722 4122 1019 
L 4122 359 
Q 3791 134 3420 21 
Q 3050 -91 2638 -91 
Q 1578 -91 968 557 
Q 359 1206 359 2328 
Q 359 3453 968 4101 
Q 1578 4750 2638 4750 
Q 3056 4750 3426 4639 
Q 3797 4528 4122 4306 
z
" transform="scale(0.015625)"/>
      <path id="DejaVuSans-68" d="M 3513 2113 
L 3513 0 
L 2938 0 
L 2938 2094 
Q 2938 2591 2744 2837 
Q 2550 3084 2163 3084 
Q 1697 3084 1428 2787 
Q 1159 2491 1159 1978 
L 1159 0 
L 581 0 
L 581 4863 
L 1159 4863 
L 1159 2956 
Q 1366 3272 1645 3428 
Q 1925 3584 2291 3584 
Q 2894 3584 3203 3211 
Q 3513 2838 3513 2113 
z
" transform="scale(0.015625)"/>
      <path id="DejaVuSans-61" d="M 2194 1759 
Q 1497 1759 1228 1600 
Q 959 1441 959 1056 
Q 959 750 1161 570 
Q 1363 391 1709 391 
Q 2188 391 2477 730 
Q 2766 1069 2766 1631 
L 2766 1759 
L 2194 1759 
z
M 3341 1997 
L 3341 0 
L 2766 0 
L 2766 531 
Q 2569 213 2275 61 
Q 1981 -91 1556 -91 
Q 1019 -91 701 211 
Q 384 513 384 1019 
Q 384 1609 779 1909 
Q 1175 2209 1959 2209 
L 2766 2209 
L 2766 2266 
Q 2766 2663 2505 2880 
Q 2244 3097 1772 3097 
Q 1472 3097 1187 3025 
Q 903 2953 641 2809 
L 641 3341 
Q 956 3463 1253 3523 
Q 1550 3584 1831 3584 
Q 2591 3584 2966 3190 
Q 3341 2797 3341 1997 
z
" transform="scale(0.015625)"/>
      <path id="DejaVuSans-72" d="M 2631 2963 
Q 2534 3019 2420 3045 
Q 2306 3072 2169 3072 
Q 1681 3072 1420 2755 
Q 1159 2438 1159 1844 
L 1159 0 
L 581 0 
L 581 3500 
L 1159 3500 
L 1159 2956 
Q 1341 3275 1631 3429 
Q 1922 3584 2338 3584 
Q 2397 3584 2469 3576 
Q 2541 3569 2628 3553 
L 2631 2963 
z
" transform="scale(0.015625)"/>
      <path id="DejaVuSans-6c" d="M 603 4863 
L 1178 4863 
L 1178 0 
L 603 0 
L 603 4863 
z
" transform="scale(0.015625)"/>
      <path id="DejaVuSans-6f" d="M 1959 3097 
Q 1497 3097 1228 2736 
Q 959 2375 959 1747 
Q 959 1119 1226 758 
Q 1494 397 1959 397 
Q 2419 397 2687 759 
Q 2956 1122 2956 1747 
Q 2956 2369 2687 2733 
Q 2419 3097 1959 3097 
z
M 1959 3584 
Q 2709 3584 3137 3096 
Q 3566 2609 3566 1747 
Q 3566 888 3137 398 
Q 2709 -91 1959 -91 
Q 1206 -91 779 398 
Q 353 888 353 1747 
Q 353 2609 779 3096 
Q 1206 3584 1959 3584 
z
" transform="scale(0.015625)"/>
      <path id="DejaVuSans-74" d="M 1172 4494 
L 1172 3500 
L 2356 3500 
L 2356 3053 
L 1172 3053 
L 1172 1153 
Q 1172 725 1289 603 
Q 1406 481 1766 481 
L 2356 481 
L 2356 0 
L 1766 0 
Q 1100 0 847 248 
Q 594 497 594 1153 
L 594 3053 
L 172 3053 
L 172 3500 
L 594 3500 
L 594 4494 
L 1172 4494 
z
" transform="scale(0.015625)"/>
      <path id="DejaVuSans-65" d="M 3597 1894 
L 3597 1613 
L 953 1613 
Q 991 1019 1311 708 
Q 1631 397 2203 397 
Q 2534 397 2845 478 
Q 3156 559 3463 722 
L 3463 178 
Q 3153 47 2828 -22 
Q 2503 -91 2169 -91 
Q 1331 -91 842 396 
Q 353 884 353 1716 
Q 353 2575 817 3079 
Q 1281 3584 2069 3584 
Q 2775 3584 3186 3129 
Q 3597 2675 3597 1894 
z
M 3022 2063 
Q 3016 2534 2758 2815 
Q 2500 3097 2075 3097 
Q 1594 3097 1305 2825 
Q 1016 2553 972 2059 
L 3022 2063 
z
" transform="scale(0.015625)"/>
      <path id="DejaVuSans-6e" d="M 3513 2113 
L 3513 0 
L 2938 0 
L 2938 2094 
Q 2938 2591 2744 2837 
Q 2550 3084 2163 3084 
Q 1697 3084 1428 2787 
Q 1159 2491 1159 1978 
L 1159 0 
L 581 0 
L 581 3500 
L 1159 3500 
L 1159 2956 
Q 1366 3272 1645 3428 
Q 1925 3584 2291 3584 
Q 2894 3584 3203 3211 
Q 3513 2838 3513 2113 
z
" transform="scale(0.015625)"/>
      <path id="DejaVuSans-62" d="M 3116 1747 
Q 3116 2381 2855 2742 
Q 2594 3103 2138 3103 
Q 1681 3103 1420 2742 
Q 1159 2381 1159 1747 
Q 1159 1113 1420 752 
Q 1681 391 2138 391 
Q 2594 391 2855 752 
Q 3116 1113 3116 1747 
z
M 1159 2969 
Q 1341 3281 1617 3432 
Q 1894 3584 2278 3584 
Q 2916 3584 3314 3078 
Q 3713 2572 3713 1747 
Q 3713 922 3314 415 
Q 2916 -91 2278 -91 
Q 1894 -91 1617 61 
Q 1341 213 1159 525 
L 1159 0 
L 581 0 
L 581 4863 
L 1159 4863 
L 1159 2969 
z
" transform="scale(0.015625)"/>
      <path id="DejaVuSans-75" d="M 544 1381 
L 544 3500 
L 1119 3500 
L 1119 1403 
Q 1119 906 1312 657 
Q 1506 409 1894 409 
Q 2359 409 2629 706 
Q 2900 1003 2900 1516 
L 2900 3500 
L 3475 3500 
L 3475 0 
L 2900 0 
L 2900 538 
Q 2691 219 2414 64 
Q 2138 -91 1772 -91 
Q 1169 -91 856 284 
Q 544 659 544 1381 
z
M 1991 3584 
L 1991 3584 
z
" transform="scale(0.015625)"/>
      <path id="DejaVuSans-67" d="M 2906 1791 
Q 2906 2416 2648 2759 
Q 2391 3103 1925 3103 
Q 1463 3103 1205 2759 
Q 947 2416 947 1791 
Q 947 1169 1205 825 
Q 1463 481 1925 481 
Q 2391 481 2648 825 
Q 2906 1169 2906 1791 
z
M 3481 434 
Q 3481 -459 3084 -895 
Q 2688 -1331 1869 -1331 
Q 1566 -1331 1297 -1286 
Q 1028 -1241 775 -1147 
L 775 -588 
Q 1028 -725 1275 -790 
Q 1522 -856 1778 -856 
Q 2344 -856 2625 -561 
Q 2906 -266 2906 331 
L 2906 616 
Q 2728 306 2450 153 
Q 2172 0 1784 0 
Q 1141 0 747 490 
Q 353 981 353 1791 
Q 353 2603 747 3093 
Q 1141 3584 1784 3584 
Q 2172 3584 2450 3431 
Q 2728 3278 2906 2969 
L 2906 3500 
L 3481 3500 
L 3481 434 
z
" transform="scale(0.015625)"/>
      <path id="DejaVuSans-5f" d="M 3263 -1063 
L 3263 -1509 
L -63 -1509 
L -63 -1063 
L 3263 -1063 
z
" transform="scale(0.015625)"/>
      <path id="DejaVuSans-57" d="M 213 4666 
L 850 4666 
L 1831 722 
L 2809 4666 
L 3519 4666 
L 4500 722 
L 5478 4666 
L 6119 4666 
L 4947 0 
L 4153 0 
L 3169 4050 
L 2175 0 
L 1381 0 
L 213 4666 
z
" transform="scale(0.015625)"/>
      <path id="DejaVuSans-73" d="M 2834 3397 
L 2834 2853 
Q 2591 2978 2328 3040 
Q 2066 3103 1784 3103 
Q 1356 3103 1142 2972 
Q 928 2841 928 2578 
Q 928 2378 1081 2264 
Q 1234 2150 1697 2047 
L 1894 2003 
Q 2506 1872 2764 1633 
Q 3022 1394 3022 966 
Q 3022 478 2636 193 
Q 2250 -91 1575 -91 
Q 1294 -91 989 -36 
Q 684 19 347 128 
L 347 722 
Q 666 556 975 473 
Q 1284 391 1588 391 
Q 1994 391 2212 530 
Q 2431 669 2431 922 
Q 2431 1156 2273 1281 
Q 2116 1406 1581 1522 
L 1381 1569 
Q 847 1681 609 1914 
Q 372 2147 372 2553 
Q 372 3047 722 3315 
Q 1072 3584 1716 3584 
Q 2034 3584 2315 3537 
Q 2597 3491 2834 3397 
z
" transform="scale(0.015625)"/>
     </defs>
     <use xlink:href="#DejaVuSans-43"/>
     <use xlink:href="#DejaVuSans-68" x="69.824219"/>
     <use xlink:href="#DejaVuSans-61" x="133.203125"/>
     <use xlink:href="#DejaVuSans-72" x="194.482422"/>
     <use xlink:href="#DejaVuSans-6c" x="235.595703"/>
     <use xlink:href="#DejaVuSans-6f" x="263.378906"/>
     <use xlink:href="#DejaVuSans-74" x="324.560547"/>
     <use xlink:href="#DejaVuSans-74" x="363.769531"/>
     <use xlink:href="#DejaVuSans-65" x="402.978516"/>
     <use xlink:href="#DejaVuSans-6e" x="464.501953"/>
     <use xlink:href="#DejaVuSans-62" x="527.880859"/>
     <use xlink:href="#DejaVuSans-75" x="591.357422"/>
     <use xlink:href="#DejaVuSans-72" x="654.736328"/>
     <use xlink:href="#DejaVuSans-67" x="694.099609"/>
     <use xlink:href="#DejaVuSans-5f" x="757.576172"/>
     <use xlink:href="#DejaVuSans-57" x="807.576172"/>
     <use xlink:href="#DejaVuSans-65" x="900.578125"/>
     <use xlink:href="#DejaVuSans-73" x="962.101562"/>
     <use xlink:href="#DejaVuSans-74" x="1014.201172"/>
    </g>
   </g>
  </g>
 </g>
 <defs>
  <clipPath id="pdcb6b8cd84">
   <rect x="105.919094" y="41.472" width="260.481812" height="266.112"/>
  </clipPath>
 </defs>
</svg>
