<?xml version="1.0" encoding="utf-8" standalone="no"?>
<!DOCTYPE svg PUBLIC "-//W3C//DTD SVG 1.1//EN"
  "http://www.w3.org/Graphics/SVG/1.1/DTD/svg11.dtd">
<svg xmlns:xlink="http://www.w3.org/1999/xlink" width="460.8pt" height="345.6pt" viewBox="0 0 460.8 345.6" xmlns="http://www.w3.org/2000/svg" version="1.1">
 <metadata>
  <rdf:RDF xmlns:dc="http://purl.org/dc/elements/1.1/" xmlns:cc="http://creativecommons.org/ns#" xmlns:rdf="http://www.w3.org/1999/02/22-rdf-syntax-ns#">
   <cc:Work>
    <dc:type rdf:resource="http://purl.org/dc/dcmitype/StillImage"/>
    <dc:date>2024-10-15T09:53:27.098469</dc:date>
    <dc:format>image/svg+xml</dc:format>
    <dc:creator>
     <cc:Agent>
      <dc:title>Matplotlib v3.8.4, https://matplotlib.org/</dc:title>
     </cc:Agent>
    </dc:creator>
   </cc:Work>
  </rdf:RDF>
 </metadata>
 <defs>
  <style type="text/css">*{stroke-linejoin: round; stroke-linecap: butt}</style>
 </defs>
 <g id="figure_1">
  <g id="patch_1">
   <path d="M 0 345.6 
L 460.8 345.6 
L 460.8 0 
L 0 0 
z
" style="fill: #ffffff"/>
  </g>
  <g id="axes_1">
   <g id="patch_2">
    <path d="M 57.6 275.73433 
L 414.72 275.73433 
L 414.72 73.32167 
L 57.6 73.32167 
z
" style="fill: #ffffff"/>
   </g>
   <g id="PatchCollection_1">
    <path d="M 388.494776 155.740358 
L 388.494782 155.740266 
L 388.513082 155.460881 
L 388.517874 155.388171 
L 388.564446 154.679672 
L 388.387237 154.574851 
L 385.873576 153.088083 
L 383.277719 151.214694 
L 382.567828 150.67685 
L 382.609362 150.562402 
L 382.745197 150.358318 
L 382.529999 150.143578 
L 380.417766 148.074423 
L 379.374675 146.772673 
L 379.125972 146.442555 
L 379.050919 146.342986 
L 378.725739 145.911224 
L 378.497737 145.608528 
L 376.521847 142.985279 
L 376.195991 142.552561 
L 375.586281 141.743254 
L 374.236451 140.018171 
L 373.85369 139.529024 
L 372.657701 138.000561 
L 372.565554 137.882816 
L 368.147775 132.237438 
L 367.895422 131.914793 
L 367.367709 131.240514 
L 365.319544 128.302082 
L 364.089981 126.714157 
L 362.471556 124.993262 
L 360.385363 122.462783 
L 360.285721 122.336212 
L 351.741755 111.489494 
L 351.361397 111.057418 
L 349.949639 109.455699 
L 349.360559 108.650655 
L 348.185595 107.014701 
L 347.895887 106.600874 
L 347.708206 106.217355 
L 345.503538 102.849191 
L 344.663282 101.760675 
L 342.059583 99.123945 
L 341.80929 98.853426 
L 340.960112 97.931983 
L 340.90138 97.856376 
L 340.825547 97.75886 
L 340.207773 96.96391 
L 337.463018 93.710774 
L 337.312795 93.57444 
L 337.037269 93.266713 
L 330.597614 92.897116 
L 321.939597 92.572074 
L 321.61008 92.55975 
L 320.020308 92.499298 
L 319.642921 92.485257 
L 319.433694 92.477501 
L 309.662216 92.108144 
L 299.352132 91.348194 
L 295.54162 91.067393 
L 289.247627 90.603713 
L 285.128208 90.300177 
L 277.057582 89.705825 
L 274.67537 89.530756 
L 266.501996 88.942849 
L 262.834322 88.757398 
L 247.625947 88.160028 
L 247.01734 88.136181 
L 246.825108 88.128549 
L 246.582805 88.118611 
L 245.251458 88.066719 
L 244.143525 88.023431 
L 243.887896 88.018107 
L 243.695168 88.01349 
L 243.011982 87.998304 
L 242.717315 87.991794 
L 242.518289 87.987813 
L 241.330652 87.962393 
L 239.460207 87.906863 
L 221.365874 87.430738 
L 218.868509 87.367993 
L 218.53843 87.359663 
L 217.924111 87.344269 
L 217.636955 87.337114 
L 216.815728 87.31648 
L 216.491967 87.308326 
L 212.333277 87.203835 
L 206.989772 87.070354 
L 186.992578 86.555156 
L 171.778941 86.14164 
L 163.718626 85.912111 
L 155.594423 85.691975 
L 147.611834 85.485097 
L 147.542263 85.483024 
L 139.434671 85.182843 
L 124.22718 84.726559 
L 123.571862 84.706209 
L 117.430938 84.518945 
L 116.824468 84.50052 
L 106.809332 84.194896 
L 105.890211 84.166129 
L 105.699317 84.160562 
L 104.994595 84.13883 
L 85.46352 83.550279 
L 84.764598 82.884051 
L 82.88501 82.793628 
L 80.63325 82.684734 
L 77.259997 82.522245 
L 77.296985 82.806564 
L 77.330379 83.339917 
L 76.870351 83.319657 
L 75.852974 83.277504 
L 75.848786 83.423858 
L 75.821096 84.391113 
L 75.702307 88.540342 
L 75.691512 88.918039 
L 75.675197 89.487872 
L 75.673561 89.544693 
L 73.863756 89.494412 
L 73.832727 90.406507 
L 74.097927 90.706918 
L 74.673824 91.359129 
L 74.932864 91.804726 
L 75.377428 92.569522 
L 77.62714 96.439666 
L 79.447214 101.903545 
L 82.917354 112.290061 
L 84.307492 116.504864 
L 86.261428 122.37001 
L 87.844308 127.122223 
L 89.646759 132.517622 
L 89.74733 132.818506 
L 90.038517 133.690422 
L 90.083575 133.825293 
L 92.4914 141.03318 
L 92.142867 141.117871 
L 91.786934 141.204444 
L 91.235193 141.339436 
L 92.290322 144.504944 
L 92.885219 146.289931 
L 92.956751 146.520372 
L 93.01848 146.753725 
L 93.070231 146.989426 
L 93.111915 147.227154 
L 93.143521 147.466421 
L 93.164958 147.706825 
L 93.176136 147.947961 
L 93.17704 148.189262 
L 93.167827 148.430482 
L 93.148322 148.671056 
L 93.118596 148.910577 
L 93.078801 149.148637 
L 93.028926 149.384748 
L 93.014699 149.446414 
L 92.724917 150.690318 
L 92.669408 150.9277 
L 92.615023 151.161323 
L 92.559032 151.402092 
L 92.502153 151.646677 
L 92.447553 151.881441 
L 92.392579 152.117513 
L 92.064823 153.523021 
L 91.940175 154.057247 
L 91.904792 154.208892 
L 91.753721 154.856585 
L 91.607197 155.484539 
L 91.571522 155.637489 
L 91.428524 156.250433 
L 91.276498 156.902124 
L 91.243319 157.044388 
L 91.104147 157.64126 
L 90.951745 158.294096 
L 90.920548 158.427876 
L 90.780491 159.028339 
L 90.629569 159.675299 
L 90.599036 159.806386 
L 90.459122 160.406035 
L 90.291906 161.122903 
L 90.254026 161.285154 
L 90.112435 161.892467 
L 89.964815 162.525153 
L 89.926868 162.687973 
L 89.785421 163.294472 
L 89.640665 163.914921 
L 89.603231 164.075458 
L 89.467144 164.659035 
L 89.319308 165.29278 
L 89.281791 165.453238 
L 89.134691 166.083883 
L 88.993323 166.690219 
L 88.955515 166.852062 
L 88.817816 167.442573 
L 88.665729 168.094753 
L 88.630568 168.24542 
L 88.496462 168.820351 
L 88.348412 169.455157 
L 88.308482 169.62638 
L 88.167623 170.230189 
L 88.025374 170.840196 
L 87.988668 170.997308 
L 87.978249 171.042172 
L 87.67026 172.362687 
L 87.565729 172.810447 
L 87.553173 173.311322 
L 87.546708 173.565779 
L 87.540434 173.824855 
L 87.534412 174.070784 
L 87.450505 174.430038 
L 86.816147 177.148002 
L 86.672567 177.763071 
L 86.661473 177.810142 
L 87.051556 177.897957 
L 87.527705 178.00496 
L 87.937961 178.097241 
L 87.874623 178.37245 
L 88.245469 178.467948 
L 88.902169 178.637298 
L 89.90649 178.925824 
L 90.888376 179.274512 
L 91.839835 179.684121 
L 92.82238 180.148714 
L 93.744227 180.629853 
L 94.638178 181.1695 
L 95.562115 181.751989 
L 96.223103 182.209944 
L 96.39629 182.329982 
L 97.237177 182.928256 
L 98.081394 183.584857 
L 98.868597 184.293687 
L 99.629834 185.013118 
L 100.375099 185.761892 
L 101.059913 186.540913 
L 101.754478 187.35231 
L 101.787057 187.391845 
L 102.689782 188.422788 
L 103.201408 189.19055 
L 104.335342 191.367575 
L 104.693014 192.255269 
L 104.459376 192.26695 
L 104.464844 192.387683 
L 104.029408 192.480611 
L 104.712776 193.797236 
L 104.959684 194.362709 
L 105.13197 194.757597 
L 105.172711 194.851041 
L 105.444108 195.473197 
L 105.468411 195.528747 
L 105.588663 195.804504 
L 105.656101 195.870621 
L 105.888516 196.099725 
L 105.91018 196.567414 
L 106.140314 196.992795 
L 106.690271 198.500567 
L 107.088897 199.647424 
L 107.450643 200.876444 
L 107.755638 202.046472 
L 108.065398 203.386003 
L 108.331128 204.976266 
L 108.101691 205.017939 
L 108.243899 206.164448 
L 108.709955 206.382686 
L 108.439235 206.932897 
L 109.520645 207.458678 
L 111.915069 208.614375 
L 116.337754 210.772339 
L 117.257392 211.219273 
L 117.477582 211.326352 
L 127.649537 216.270309 
L 127.840329 216.362765 
L 128.03143 216.454646 
L 128.222763 216.546035 
L 128.297311 216.581486 
L 128.371939 216.616854 
L 128.446646 216.652139 
L 129.096741 216.955475 
L 129.749607 217.252906 
L 130.405083 217.544434 
L 131.063167 217.82998 
L 131.756684 218.122225 
L 132.452955 218.407834 
L 133.151899 218.68681 
L 133.853433 218.959074 
L 134.55756 219.224707 
L 135.311182 219.503193 
L 136.067533 219.773989 
L 136.826613 220.037097 
L 137.588339 220.292437 
L 138.352549 220.540014 
L 138.849012 220.694371 
L 139.347055 220.843743 
L 139.846592 220.987888 
L 140.347548 221.127053 
L 140.849916 221.260992 
L 140.734712 221.673545 
L 140.469934 222.621957 
L 140.359049 223.018751 
L 140.359009 223.018894 
L 140.092484 223.973615 
L 139.983912 224.382603 
L 140.065117 224.408893 
L 140.143125 224.443615 
L 140.217038 224.486465 
L 140.286032 224.536815 
L 140.349367 224.594194 
L 140.406302 224.657972 
L 140.456168 224.727354 
L 140.493796 224.792404 
L 140.525189 224.860604 
L 140.550172 224.931472 
L 140.568488 225.004364 
L 140.57996 225.078637 
L 140.584757 225.134169 
L 140.585675 225.189874 
L 140.582789 225.245508 
L 140.576174 225.300826 
L 140.295101 227.010992 
L 140.070799 228.375948 
L 138.973131 233.215715 
L 138.961703 233.265956 
L 138.871743 233.661359 
L 138.649218 234.644212 
L 136.941857 242.17297 
L 136.647171 243.472363 
L 136.532716 245.251316 
L 136.529715 245.298679 
L 136.480299 246.069092 
L 136.455182 246.459216 
L 136.424962 246.56977 
L 136.35273 246.832529 
L 136.186754 248.288326 
L 135.956497 250.307474 
L 135.842799 251.304036 
L 135.808342 251.607425 
L 135.692277 252.630325 
L 135.530636 252.987774 
L 135.393003 253.293303 
L 135.341787 253.405413 
L 135.125494 253.846096 
L 134.487339 255.146069 
L 133.478336 257.201421 
L 134.474442 257.691993 
L 134.990015 257.97162 
L 135.913387 258.472288 
L 137.337697 259.24296 
L 138.744226 260.014548 
L 138.74691 260.016018 
L 139.351722 260.230662 
L 140.671915 260.807528 
L 142.745173 261.926136 
L 143.900764 262.55561 
L 145.408437 263.363259 
L 145.678805 263.506875 
L 145.953215 263.650396 
L 146.235614 263.78967 
L 146.51397 263.929041 
L 146.972603 264.165509 
L 147.27146 264.316559 
L 147.57022 264.463556 
L 147.872927 264.606403 
L 148.175537 264.745197 
L 148.99559 265.041997 
L 149.757795 265.287452 
L 149.765977 265.291313 
L 149.774254 265.299227 
L 149.782435 265.303088 
L 149.78667 265.311099 
L 149.794851 265.31496 
L 149.799086 265.32297 
L 149.807267 265.326831 
L 149.811502 265.334842 
L 149.815737 265.342853 
L 149.819972 265.350863 
L 149.824207 265.358874 
L 149.828441 265.366885 
L 149.828634 265.374992 
L 149.832965 265.387056 
L 149.833157 265.395163 
L 149.833349 265.40327 
L 149.833541 265.411378 
L 149.833734 265.419485 
L 149.829883 265.427688 
L 149.826129 265.439945 
L 150.547043 265.649884 
L 150.63521 265.615335 
L 152.621145 265.953296 
L 152.676293 266.06149 
L 153.576332 266.149544 
L 153.652083 266.103124 
L 153.825816 266.094928 
L 154.562712 266.126035 
L 154.636823 266.181051 
L 154.637399 266.205372 
L 155.288825 266.214183 
L 155.528384 266.423434 
L 155.664478 266.533755 
L 156.49965 266.444904 
L 156.411395 266.305052 
L 156.289358 266.105168 
L 156.466942 266.088769 
L 156.841649 266.027114 
L 156.853105 265.99845 
L 156.920771 265.952224 
L 157.03329 265.921152 
L 158.692961 265.634205 
L 158.873435 265.569068 
L 159.06305 265.548327 
L 159.225041 265.556636 
L 159.479529 265.542462 
L 159.954245 265.433815 
L 160.464481 265.287819 
L 162.11541 264.802357 
L 162.149777 264.716366 
L 162.257678 264.66107 
L 163.226655 264.414925 
L 163.412229 264.394283 
L 163.436676 264.401813 
L 165.529128 263.772011 
L 165.910197 263.637208 
L 167.953584 262.813906 
L 168.438323 262.615801 
L 169.906397 262.094165 
L 170.316357 261.812669 
L 170.298844 261.756304 
L 170.316659 261.654484 
L 170.422547 261.514065 
L 170.802949 261.350893 
L 171.100566 261.278918 
L 171.413587 261.174131 
L 172.338221 260.762774 
L 172.700536 260.518916 
L 172.880631 260.437571 
L 173.406952 260.287154 
L 173.686771 260.146655 
L 174.757247 259.573657 
L 174.849364 259.534964 
L 174.982866 259.535845 
L 175.02195 259.478133 
L 175.129375 259.402573 
L 176.657743 258.69296 
L 176.998299 258.555076 
L 177.132281 258.576226 
L 177.191482 258.51398 
L 177.367057 258.412466 
L 178.12498 258.134873 
L 178.256854 258.066844 
L 178.339928 257.987808 
L 178.440628 257.798845 
L 178.516671 257.764591 
L 179.093331 257.690045 
L 179.347921 257.679938 
L 179.54967 257.658919 
L 179.794929 257.596308 
L 179.97474 257.502805 
L 180.00526 257.425019 
L 180.110962 257.276496 
L 180.551724 257.09973 
L 180.823366 256.955376 
L 180.935697 256.916203 
L 180.975932 256.907136 
L 181.012124 256.898164 
L 181.048412 256.893245 
L 181.084796 256.892381 
L 181.12118 256.891516 
L 181.15766 256.894705 
L 181.194139 256.897894 
L 181.230715 256.905136 
L 181.263248 256.912475 
L 181.299919 256.923771 
L 181.272884 256.806794 
L 181.266925 256.725819 
L 182.385148 256.289605 
L 182.45395 256.462372 
L 182.574272 256.418954 
L 182.509417 256.242038 
L 183.636111 255.82185 
L 183.638429 255.74879 
L 183.685409 255.68278 
L 183.773294 255.636078 
L 184.028077 255.634081 
L 184.253891 255.604381 
L 184.796107 255.441433 
L 184.91595 255.377749 
L 184.967547 255.335964 
L 185.201926 255.326341 
L 185.251108 255.353564 
L 185.276992 255.421898 
L 186.50129 255.023735 
L 187.051401 254.852492 
L 187.477701 254.919429 
L 187.706484 255.015391 
L 187.738921 255.018677 
L 187.775401 255.021866 
L 187.807742 255.021098 
L 187.84403 255.016181 
L 187.876276 255.011359 
L 187.91266 255.010495 
L 188.383546 254.910084 
L 189.072545 254.796383 
L 189.133855 254.823318 
L 189.464014 254.758697 
L 189.778385 254.710674 
L 190.138227 254.36144 
L 192.517473 254.053496 
L 193.461546 253.949971 
L 194.410046 253.862568 
L 194.408993 253.817978 
L 194.489751 253.812006 
L 194.647129 253.796104 
L 194.816634 253.779914 
L 194.836345 253.929512 
L 195.062353 253.907926 
L 195.723248 253.803015 
L 196.542573 253.726793 
L 197.536213 253.666717 
L 197.867139 253.634531 
L 198.388933 253.634321 
L 198.388742 253.626213 
L 198.388646 253.62216 
L 198.384412 253.614149 
L 198.384221 253.606041 
L 198.384029 253.597934 
L 198.383934 253.593881 
L 198.387785 253.585678 
L 198.387594 253.57757 
L 198.387403 253.569463 
L 198.39135 253.565314 
L 198.395201 253.557111 
L 198.399148 253.552961 
L 198.403 253.544758 
L 198.406947 253.540609 
L 198.410798 253.532406 
L 198.414745 253.528256 
L 198.418692 253.524107 
L 198.426682 253.519861 
L 198.430629 253.515712 
L 198.438619 253.511467 
L 198.442566 253.507317 
L 198.450651 253.507125 
L 198.458641 253.50288 
L 198.462683 253.502784 
L 198.470769 253.502592 
L 198.478854 253.5024 
L 199.073416 253.500465 
L 199.081162 253.828805 
L 199.101376 253.828325 
L 199.125632 253.82775 
L 199.145845 253.827271 
L 199.165868 253.818684 
L 199.185985 253.814151 
L 199.206008 253.805564 
L 199.22603 253.796978 
L 199.246052 253.788391 
L 199.257893 253.775943 
L 199.269734 253.763494 
L 199.281671 253.755099 
L 199.297555 253.742555 
L 199.313534 253.734064 
L 199.325662 253.733777 
L 199.341642 253.725286 
L 199.357717 253.720849 
L 199.373792 253.716412 
L 199.389963 253.716028 
L 199.462349 253.698088 
L 199.530883 253.688351 
L 199.603651 253.686625 
L 199.676324 253.680845 
L 199.85016 253.676722 
L 200.028229 253.680611 
L 200.202447 253.692702 
L 200.376761 253.708847 
L 200.405346 253.720337 
L 200.437975 253.731731 
L 200.462613 253.74737 
L 200.491295 253.762913 
L 200.625946 253.812446 
L 200.76012 253.84171 
L 201.118171 253.93056 
L 201.732727 254.090388 
L 201.924645 254.166954 
L 202.17749 254.254243 
L 202.512623 254.400419 
L 202.640077 254.31628 
L 202.702848 254.233674 
L 203.131631 254.406021 
L 203.655498 254.665343 
L 204.183121 254.912409 
L 204.555783 255.106367 
L 204.761453 255.251557 
L 204.971261 255.400706 
L 205.177026 255.549951 
L 205.37894 255.707399 
L 205.676128 255.959928 
L 205.75485 256.039179 
L 205.650314 256.065992 
L 205.57898 256.128521 
L 205.520633 256.227244 
L 205.951295 256.651012 
L 206.062483 256.563204 
L 206.116375 256.618708 
L 206.14735 256.731538 
L 206.508139 257.108292 
L 206.860239 257.631263 
L 207.090861 257.633909 
L 207.501122 258.565143 
L 207.601077 258.858851 
L 207.681136 258.994853 
L 207.749162 259.135195 
L 207.813336 259.283741 
L 207.86134 259.43267 
L 207.901354 259.585844 
L 207.851226 259.645791 
L 208.091302 260.46462 
L 208.911715 260.297633 
L 209.796847 260.099826 
L 210.68705 259.900927 
L 211.802338 259.651679 
L 212.867757 259.411079 
L 213.18438 259.331629 
L 214.791226 258.928631 
L 214.94977 258.888902 
L 214.856215 258.455803 
L 214.017523 255.133646 
L 213.683004 253.811251 
L 213.5566 253.424883 
L 213.426343 253.046719 
L 213.287905 252.664692 
L 213.153606 252.286623 
L 213.08862 252.103621 
L 213.015168 251.904597 
L 212.868739 251.526815 
L 212.715657 251.210029 
L 212.55449 250.893434 
L 212.381385 250.585234 
L 212.204333 250.281184 
L 211.450122 249.001178 
L 211.262087 248.746058 
L 211.065965 248.49113 
L 210.869939 248.240255 
L 210.673912 247.989381 
L 210.4698 247.738698 
L 210.265783 247.492069 
L 210.004307 247.210299 
L 209.738788 246.928624 
L 209.465375 246.655249 
L 209.184066 246.390172 
L 208.902853 246.129149 
L 208.609607 245.872468 
L 208.312508 245.62399 
L 208.011366 245.375607 
L 207.706468 245.139482 
L 207.397718 244.911559 
L 207.084925 244.683733 
L 206.764332 244.468259 
L 206.561936 244.290543 
L 206.375328 244.096229 
L 206.196614 243.893617 
L 206.037828 243.678365 
L 205.886936 243.454814 
L 205.747789 243.214761 
L 205.624719 242.970271 
L 205.517628 242.717291 
L 205.42257 242.45997 
L 205.351481 242.189914 
L 205.243081 241.709838 
L 205.229136 241.633107 
L 205.219235 241.556281 
L 205.221462 241.479167 
L 205.223593 241.397999 
L 205.237815 240.971798 
L 205.255983 240.541448 
L 205.258401 240.472441 
L 205.260819 240.403435 
L 205.267376 240.338386 
L 205.285965 240.268996 
L 205.300607 240.203755 
L 205.319292 240.138419 
L 205.424655 239.803342 
L 205.558508 239.475702 
L 205.704585 239.151827 
L 205.879345 238.843497 
L 206.004129 238.645859 
L 206.153457 238.459806 
L 206.306923 238.277712 
L 206.472995 238.115598 
L 206.422474 238.031623 
L 206.684333 237.814513 
L 206.967075 237.625299 
L 207.254052 237.444096 
L 207.55373 237.286928 
L 208.182917 237.03678 
L 208.47619 236.868651 
L 207.291886 233.891932 
L 207.037764 233.253208 
L 207.041949 233.251323 
L 209.269547 232.338699 
L 209.297656 232.329921 
L 210.098882 231.998639 
L 211.593994 231.415682 
L 212.792512 230.949263 
L 214.411339 230.294437 
L 216.042683 229.655546 
L 216.816287 229.353322 
L 217.76616 228.977977 
L 219.442082 228.3421 
L 219.445457 228.313629 
L 219.601796 228.253147 
L 220.503636 227.899226 
L 220.528371 227.91892 
L 220.636863 227.887961 
L 221.154015 227.689155 
L 222.271792 227.228731 
L 224.373518 226.465182 
L 224.654332 226.365255 
L 227.39442 225.395998 
L 228.81534 224.924369 
L 229.064289 224.845478 
L 230.34552 224.454218 
L 231.642925 224.06258 
L 232.249701 223.890061 
L 233.302583 223.593436 
L 234.154936 223.370502 
L 234.30676 223.289854 
L 234.362218 223.239873 
L 234.389567 223.198669 
L 235.683753 223.013968 
L 235.892941 222.964412 
L 238.306749 222.396356 
L 238.778163 222.316272 
L 238.908301 222.345646 
L 239.045002 222.30997 
L 239.431228 222.219732 
L 239.797333 222.134025 
L 240.207722 222.039161 
L 240.899694 221.876811 
L 241.664061 221.696529 
L 241.820977 221.660378 
L 241.93613 221.56843 
L 242.44222 221.414527 
L 243.673581 221.138052 
L 245.21483 220.793429 
L 245.459457 220.702483 
L 247.995439 219.823359 
L 248.440887 219.670895 
L 248.643801 219.698554 
L 248.846334 219.709999 
L 248.942321 219.663121 
L 249.039069 219.648671 
L 249.151894 219.629786 
L 249.248737 219.619389 
L 249.4536 219.557774 
L 249.868322 219.474986 
L 250.62856 219.290763 
L 251.408633 219.089851 
L 251.561508 219.053798 
L 251.581533 219.045214 
L 252.651661 218.792849 
L 253.790333 218.530759 
L 253.834521 218.51755 
L 255.049442 218.22933 
L 255.877941 218.023229 
L 256.070963 217.974065 
L 257.688199 217.591197 
L 259.192992 217.243432 
L 259.280894 217.196746 
L 259.348676 217.15459 
L 259.628219 217.172338 
L 260.843053 216.880082 
L 261.540797 216.790638 
L 263.400005 216.548102 
L 263.823484 216.493513 
L 264.186413 216.444406 
L 265.107627 216.223973 
L 265.188014 216.201801 
L 265.228255 216.192742 
L 265.264452 216.183778 
L 265.385175 216.156599 
L 265.630569 216.098094 
L 266.88161 215.796893 
L 266.949963 215.779061 
L 267.127004 215.738389 
L 267.20462 215.718771 
L 267.215478 215.716027 
L 267.368356 215.679981 
L 270.022029 214.295304 
L 270.142753 214.268128 
L 270.315753 214.227553 
L 271.530794 213.943438 
L 272.367588 213.745288 
L 274.668963 213.208492 
L 276.94618 212.676334 
L 279.263646 212.135131 
L 279.40844 212.09928 
L 281.568988 211.594227 
L 281.810345 211.535827 
L 282.256953 211.432044 
L 283.866346 211.057579 
L 286.183831 210.516417 
L 287.282213 210.259426 
L 288.489193 209.975553 
L 290.75037 209.447907 
L 293.063831 208.90688 
L 295.155965 208.415675 
L 295.445655 208.348038 
L 296.411286 208.12258 
L 297.075356 207.802806 
L 297.68285 207.658762 
L 300.008461 207.11749 
L 301.172878 206.84425 
L 301.244673 207.152812 
L 342.229396 197.564279 
L 349.125293 195.951296 
L 358.892964 193.666588 
L 380.375399 188.6437 
L 380.474709 188.620543 
L 380.495299 188.709617 
L 380.51013 188.773598 
L 380.527348 188.825355 
L 380.552258 188.873851 
L 380.584188 188.917966 
L 380.622464 188.956661 
L 380.666261 188.989143 
L 380.714423 189.014467 
L 380.765807 189.032172 
L 380.819351 189.041796 
L 380.873756 189.043208 
L 380.927724 189.036193 
L 381.040066 189.009813 
L 381.684754 188.858707 
L 382.03297 188.777037 
L 383.397297 188.458404 
L 384.716078 188.150487 
L 385.065892 188.06789 
L 385.824565 187.891266 
L 385.875902 187.875471 
L 385.924062 187.85172 
L 385.967927 187.820688 
L 386.006298 187.78305 
L 386.038229 187.739803 
L 386.062935 187.692019 
L 386.079797 187.640929 
L 386.088358 187.587761 
L 386.08849 187.533977 
L 386.080059 187.480799 
L 386.061897 187.402214 
L 391.707341 186.08089 
L 392.688518 185.851251 
L 392.993371 185.78017 
L 393.297144 185.704328 
L 393.599674 185.623729 
L 393.900883 185.538456 
L 394.200769 185.448509 
L 394.498846 185.353738 
L 394.795439 185.254296 
L 395.090389 185.150269 
L 395.383775 185.041575 
L 395.675358 184.928379 
L 395.965781 184.810506 
L 396.254401 184.688133 
L 396.541057 184.561263 
L 396.825667 184.429898 
L 397.108233 184.294119 
L 397.388594 184.15393 
L 397.666751 184.009413 
L 397.942623 183.860487 
L 398.216211 183.707315 
L 398.487273 183.549822 
L 397.95063 182.907507 
L 397.794023 182.720113 
L 397.470536 182.33145 
L 397.117804 181.909722 
L 395.525717 180.002893 
L 395.171288 179.577961 
L 395.153228 179.556236 
L 395.060277 179.444994 
L 395.014673 179.390326 
L 394.430574 178.690714 
L 394.228774 178.449049 
L 393.966389 178.134733 
L 393.43488 177.498145 
L 393.407421 177.465363 
L 393.267449 177.297702 
L 393.211024 177.229982 
L 392.864014 176.814695 
L 392.542878 176.430118 
L 392.03255 175.820945 
L 391.552543 175.245866 
L 391.451598 175.124914 
L 390.378391 173.838761 
L 390.307073 173.75338 
L 387.824007 170.777727 
L 387.675744 170.33925 
L 387.643867 170.244922 
L 387.561185 170.000574 
L 387.870442 165.189103 
L 388.081849 162.024624 
L 388.092674 161.862869 
L 388.098923 161.769197 
L 388.165984 160.746545 
L 388.181853 160.505503 
L 388.203083 160.181356 
L 388.354515 157.873319 
L 388.494776 155.740358 
" clip-path="url(#p02fb1cf04c)" style="fill: #1f77b4"/>
   </g>
   <g id="matplotlib.axis_1">
    <g id="xtick_1">
     <g id="line2d_1">
      <defs>
       <path id="mf205fec03a" d="M 0 0 
L 0 3.5 
" style="stroke: #000000; stroke-width: 0.8"/>
      </defs>
      <g>
       <use xlink:href="#mf205fec03a" x="74.002035" y="275.73433" style="stroke: #000000; stroke-width: 0.8"/>
      </g>
     </g>
     <g id="text_1">
      <!-- 13.27 -->
      <g transform="translate(59.687972 290.332768) scale(0.1 -0.1)">
       <defs>
        <path id="DejaVuSans-31" d="M 794 531 
L 1825 531 
L 1825 4091 
L 703 3866 
L 703 4441 
L 1819 4666 
L 2450 4666 
L 2450 531 
L 3481 531 
L 3481 0 
L 794 0 
L 794 531 
z
" transform="scale(0.015625)"/>
        <path id="DejaVuSans-33" d="M 2597 2516 
Q 3050 2419 3304 2112 
Q 3559 1806 3559 1356 
Q 3559 666 3084 287 
Q 2609 -91 1734 -91 
Q 1441 -91 1130 -33 
Q 819 25 488 141 
L 488 750 
Q 750 597 1062 519 
Q 1375 441 1716 441 
Q 2309 441 2620 675 
Q 2931 909 2931 1356 
Q 2931 1769 2642 2001 
Q 2353 2234 1838 2234 
L 1294 2234 
L 1294 2753 
L 1863 2753 
Q 2328 2753 2575 2939 
Q 2822 3125 2822 3475 
Q 2822 3834 2567 4026 
Q 2313 4219 1838 4219 
Q 1578 4219 1281 4162 
Q 984 4106 628 3988 
L 628 4550 
Q 988 4650 1302 4700 
Q 1616 4750 1894 4750 
Q 2613 4750 3031 4423 
Q 3450 4097 3450 3541 
Q 3450 3153 3228 2886 
Q 3006 2619 2597 2516 
z
" transform="scale(0.015625)"/>
        <path id="DejaVuSans-2e" d="M 684 794 
L 1344 794 
L 1344 0 
L 684 0 
L 684 794 
z
" transform="scale(0.015625)"/>
        <path id="DejaVuSans-32" d="M 1228 531 
L 3431 531 
L 3431 0 
L 469 0 
L 469 531 
Q 828 903 1448 1529 
Q 2069 2156 2228 2338 
Q 2531 2678 2651 2914 
Q 2772 3150 2772 3378 
Q 2772 3750 2511 3984 
Q 2250 4219 1831 4219 
Q 1534 4219 1204 4116 
Q 875 4013 500 3803 
L 500 4441 
Q 881 4594 1212 4672 
Q 1544 4750 1819 4750 
Q 2544 4750 2975 4387 
Q 3406 4025 3406 3419 
Q 3406 3131 3298 2873 
Q 3191 2616 2906 2266 
Q 2828 2175 2409 1742 
Q 1991 1309 1228 531 
z
" transform="scale(0.015625)"/>
        <path id="DejaVuSans-37" d="M 525 4666 
L 3525 4666 
L 3525 4397 
L 1831 0 
L 1172 0 
L 2766 4134 
L 525 4134 
L 525 4666 
z
" transform="scale(0.015625)"/>
       </defs>
       <use xlink:href="#DejaVuSans-31"/>
       <use xlink:href="#DejaVuSans-33" x="63.623047"/>
       <use xlink:href="#DejaVuSans-2e" x="127.246094"/>
       <use xlink:href="#DejaVuSans-32" x="159.033203"/>
       <use xlink:href="#DejaVuSans-37" x="222.65625"/>
      </g>
     </g>
    </g>
    <g id="xtick_2">
     <g id="line2d_2">
      <g>
       <use xlink:href="#mf205fec03a" x="128.874465" y="275.73433" style="stroke: #000000; stroke-width: 0.8"/>
      </g>
     </g>
     <g id="text_2">
      <!-- 13.28 -->
      <g transform="translate(114.560403 290.332768) scale(0.1 -0.1)">
       <defs>
        <path id="DejaVuSans-38" d="M 2034 2216 
Q 1584 2216 1326 1975 
Q 1069 1734 1069 1313 
Q 1069 891 1326 650 
Q 1584 409 2034 409 
Q 2484 409 2743 651 
Q 3003 894 3003 1313 
Q 3003 1734 2745 1975 
Q 2488 2216 2034 2216 
z
M 1403 2484 
Q 997 2584 770 2862 
Q 544 3141 544 3541 
Q 544 4100 942 4425 
Q 1341 4750 2034 4750 
Q 2731 4750 3128 4425 
Q 3525 4100 3525 3541 
Q 3525 3141 3298 2862 
Q 3072 2584 2669 2484 
Q 3125 2378 3379 2068 
Q 3634 1759 3634 1313 
Q 3634 634 3220 271 
Q 2806 -91 2034 -91 
Q 1263 -91 848 271 
Q 434 634 434 1313 
Q 434 1759 690 2068 
Q 947 2378 1403 2484 
z
M 1172 3481 
Q 1172 3119 1398 2916 
Q 1625 2713 2034 2713 
Q 2441 2713 2670 2916 
Q 2900 3119 2900 3481 
Q 2900 3844 2670 4047 
Q 2441 4250 2034 4250 
Q 1625 4250 1398 4047 
Q 1172 3844 1172 3481 
z
" transform="scale(0.015625)"/>
       </defs>
       <use xlink:href="#DejaVuSans-31"/>
       <use xlink:href="#DejaVuSans-33" x="63.623047"/>
       <use xlink:href="#DejaVuSans-2e" x="127.246094"/>
       <use xlink:href="#DejaVuSans-32" x="159.033203"/>
       <use xlink:href="#DejaVuSans-38" x="222.65625"/>
      </g>
     </g>
    </g>
    <g id="xtick_3">
     <g id="line2d_3">
      <g>
       <use xlink:href="#mf205fec03a" x="183.746896" y="275.73433" style="stroke: #000000; stroke-width: 0.8"/>
      </g>
     </g>
     <g id="text_3">
      <!-- 13.29 -->
      <g transform="translate(169.432833 290.332768) scale(0.1 -0.1)">
       <defs>
        <path id="DejaVuSans-39" d="M 703 97 
L 703 672 
Q 941 559 1184 500 
Q 1428 441 1663 441 
Q 2288 441 2617 861 
Q 2947 1281 2994 2138 
Q 2813 1869 2534 1725 
Q 2256 1581 1919 1581 
Q 1219 1581 811 2004 
Q 403 2428 403 3163 
Q 403 3881 828 4315 
Q 1253 4750 1959 4750 
Q 2769 4750 3195 4129 
Q 3622 3509 3622 2328 
Q 3622 1225 3098 567 
Q 2575 -91 1691 -91 
Q 1453 -91 1209 -44 
Q 966 3 703 97 
z
M 1959 2075 
Q 2384 2075 2632 2365 
Q 2881 2656 2881 3163 
Q 2881 3666 2632 3958 
Q 2384 4250 1959 4250 
Q 1534 4250 1286 3958 
Q 1038 3666 1038 3163 
Q 1038 2656 1286 2365 
Q 1534 2075 1959 2075 
z
" transform="scale(0.015625)"/>
       </defs>
       <use xlink:href="#DejaVuSans-31"/>
       <use xlink:href="#DejaVuSans-33" x="63.623047"/>
       <use xlink:href="#DejaVuSans-2e" x="127.246094"/>
       <use xlink:href="#DejaVuSans-32" x="159.033203"/>
       <use xlink:href="#DejaVuSans-39" x="222.65625"/>
      </g>
     </g>
    </g>
    <g id="xtick_4">
     <g id="line2d_4">
      <g>
       <use xlink:href="#mf205fec03a" x="238.619326" y="275.73433" style="stroke: #000000; stroke-width: 0.8"/>
      </g>
     </g>
     <g id="text_4">
      <!-- 13.30 -->
      <g transform="translate(224.305263 290.332768) scale(0.1 -0.1)">
       <defs>
        <path id="DejaVuSans-30" d="M 2034 4250 
Q 1547 4250 1301 3770 
Q 1056 3291 1056 2328 
Q 1056 1369 1301 889 
Q 1547 409 2034 409 
Q 2525 409 2770 889 
Q 3016 1369 3016 2328 
Q 3016 3291 2770 3770 
Q 2525 4250 2034 4250 
z
M 2034 4750 
Q 2819 4750 3233 4129 
Q 3647 3509 3647 2328 
Q 3647 1150 3233 529 
Q 2819 -91 2034 -91 
Q 1250 -91 836 529 
Q 422 1150 422 2328 
Q 422 3509 836 4129 
Q 1250 4750 2034 4750 
z
" transform="scale(0.015625)"/>
       </defs>
       <use xlink:href="#DejaVuSans-31"/>
       <use xlink:href="#DejaVuSans-33" x="63.623047"/>
       <use xlink:href="#DejaVuSans-2e" x="127.246094"/>
       <use xlink:href="#DejaVuSans-33" x="159.033203"/>
       <use xlink:href="#DejaVuSans-30" x="222.65625"/>
      </g>
     </g>
    </g>
    <g id="xtick_5">
     <g id="line2d_5">
      <g>
       <use xlink:href="#mf205fec03a" x="293.491756" y="275.73433" style="stroke: #000000; stroke-width: 0.8"/>
      </g>
     </g>
     <g id="text_5">
      <!-- 13.31 -->
      <g transform="translate(279.177694 290.332768) scale(0.1 -0.1)">
       <use xlink:href="#DejaVuSans-31"/>
       <use xlink:href="#DejaVuSans-33" x="63.623047"/>
       <use xlink:href="#DejaVuSans-2e" x="127.246094"/>
       <use xlink:href="#DejaVuSans-33" x="159.033203"/>
       <use xlink:href="#DejaVuSans-31" x="222.65625"/>
      </g>
     </g>
    </g>
    <g id="xtick_6">
     <g id="line2d_6">
      <g>
       <use xlink:href="#mf205fec03a" x="348.364187" y="275.73433" style="stroke: #000000; stroke-width: 0.8"/>
      </g>
     </g>
     <g id="text_6">
      <!-- 13.32 -->
      <g transform="translate(334.050124 290.332768) scale(0.1 -0.1)">
       <use xlink:href="#DejaVuSans-31"/>
       <use xlink:href="#DejaVuSans-33" x="63.623047"/>
       <use xlink:href="#DejaVuSans-2e" x="127.246094"/>
       <use xlink:href="#DejaVuSans-33" x="159.033203"/>
       <use xlink:href="#DejaVuSans-32" x="222.65625"/>
      </g>
     </g>
    </g>
    <g id="xtick_7">
     <g id="line2d_7">
      <g>
       <use xlink:href="#mf205fec03a" x="403.236617" y="275.73433" style="stroke: #000000; stroke-width: 0.8"/>
      </g>
     </g>
     <g id="text_7">
      <!-- 13.33 -->
      <g transform="translate(388.922554 290.332768) scale(0.1 -0.1)">
       <use xlink:href="#DejaVuSans-31"/>
       <use xlink:href="#DejaVuSans-33" x="63.623047"/>
       <use xlink:href="#DejaVuSans-2e" x="127.246094"/>
       <use xlink:href="#DejaVuSans-33" x="159.033203"/>
       <use xlink:href="#DejaVuSans-33" x="222.65625"/>
      </g>
     </g>
    </g>
   </g>
   <g id="matplotlib.axis_2">
    <g id="ytick_1">
     <g id="line2d_8">
      <defs>
       <path id="md5faf5056c" d="M 0 0 
L -3.5 0 
" style="stroke: #000000; stroke-width: 0.8"/>
      </defs>
      <g>
       <use xlink:href="#md5faf5056c" x="57.6" y="257.803987" style="stroke: #000000; stroke-width: 0.8"/>
      </g>
     </g>
     <g id="text_8">
      <!-- 52.5300 -->
      <g transform="translate(9.246875 261.603205) scale(0.1 -0.1)">
       <defs>
        <path id="DejaVuSans-35" d="M 691 4666 
L 3169 4666 
L 3169 4134 
L 1269 4134 
L 1269 2991 
Q 1406 3038 1543 3061 
Q 1681 3084 1819 3084 
Q 2600 3084 3056 2656 
Q 3513 2228 3513 1497 
Q 3513 744 3044 326 
Q 2575 -91 1722 -91 
Q 1428 -91 1123 -41 
Q 819 9 494 109 
L 494 744 
Q 775 591 1075 516 
Q 1375 441 1709 441 
Q 2250 441 2565 725 
Q 2881 1009 2881 1497 
Q 2881 1984 2565 2268 
Q 2250 2553 1709 2553 
Q 1456 2553 1204 2497 
Q 953 2441 691 2322 
L 691 4666 
z
" transform="scale(0.015625)"/>
       </defs>
       <use xlink:href="#DejaVuSans-35"/>
       <use xlink:href="#DejaVuSans-32" x="63.623047"/>
       <use xlink:href="#DejaVuSans-2e" x="127.246094"/>
       <use xlink:href="#DejaVuSans-35" x="159.033203"/>
       <use xlink:href="#DejaVuSans-33" x="222.65625"/>
       <use xlink:href="#DejaVuSans-30" x="286.279297"/>
       <use xlink:href="#DejaVuSans-30" x="349.902344"/>
      </g>
     </g>
    </g>
    <g id="ytick_2">
     <g id="line2d_9">
      <g>
       <use xlink:href="#md5faf5056c" x="57.6" y="235.2494" style="stroke: #000000; stroke-width: 0.8"/>
      </g>
     </g>
     <g id="text_9">
      <!-- 52.5325 -->
      <g transform="translate(9.246875 239.048618) scale(0.1 -0.1)">
       <use xlink:href="#DejaVuSans-35"/>
       <use xlink:href="#DejaVuSans-32" x="63.623047"/>
       <use xlink:href="#DejaVuSans-2e" x="127.246094"/>
       <use xlink:href="#DejaVuSans-35" x="159.033203"/>
       <use xlink:href="#DejaVuSans-33" x="222.65625"/>
       <use xlink:href="#DejaVuSans-32" x="286.279297"/>
       <use xlink:href="#DejaVuSans-35" x="349.902344"/>
      </g>
     </g>
    </g>
    <g id="ytick_3">
     <g id="line2d_10">
      <g>
       <use xlink:href="#md5faf5056c" x="57.6" y="212.694812" style="stroke: #000000; stroke-width: 0.8"/>
      </g>
     </g>
     <g id="text_10">
      <!-- 52.5350 -->
      <g transform="translate(9.246875 216.494031) scale(0.1 -0.1)">
       <use xlink:href="#DejaVuSans-35"/>
       <use xlink:href="#DejaVuSans-32" x="63.623047"/>
       <use xlink:href="#DejaVuSans-2e" x="127.246094"/>
       <use xlink:href="#DejaVuSans-35" x="159.033203"/>
       <use xlink:href="#DejaVuSans-33" x="222.65625"/>
       <use xlink:href="#DejaVuSans-35" x="286.279297"/>
       <use xlink:href="#DejaVuSans-30" x="349.902344"/>
      </g>
     </g>
    </g>
    <g id="ytick_4">
     <g id="line2d_11">
      <g>
       <use xlink:href="#md5faf5056c" x="57.6" y="190.140225" style="stroke: #000000; stroke-width: 0.8"/>
      </g>
     </g>
     <g id="text_11">
      <!-- 52.5375 -->
      <g transform="translate(9.246875 193.939444) scale(0.1 -0.1)">
       <use xlink:href="#DejaVuSans-35"/>
       <use xlink:href="#DejaVuSans-32" x="63.623047"/>
       <use xlink:href="#DejaVuSans-2e" x="127.246094"/>
       <use xlink:href="#DejaVuSans-35" x="159.033203"/>
       <use xlink:href="#DejaVuSans-33" x="222.65625"/>
       <use xlink:href="#DejaVuSans-37" x="286.279297"/>
       <use xlink:href="#DejaVuSans-35" x="349.902344"/>
      </g>
     </g>
    </g>
    <g id="ytick_5">
     <g id="line2d_12">
      <g>
       <use xlink:href="#md5faf5056c" x="57.6" y="167.585638" style="stroke: #000000; stroke-width: 0.8"/>
      </g>
     </g>
     <g id="text_12">
      <!-- 52.5400 -->
      <g transform="translate(9.246875 171.384857) scale(0.1 -0.1)">
       <defs>
        <path id="DejaVuSans-34" d="M 2419 4116 
L 825 1625 
L 2419 1625 
L 2419 4116 
z
M 2253 4666 
L 3047 4666 
L 3047 1625 
L 3713 1625 
L 3713 1100 
L 3047 1100 
L 3047 0 
L 2419 0 
L 2419 1100 
L 313 1100 
L 313 1709 
L 2253 4666 
z
" transform="scale(0.015625)"/>
       </defs>
       <use xlink:href="#DejaVuSans-35"/>
       <use xlink:href="#DejaVuSans-32" x="63.623047"/>
       <use xlink:href="#DejaVuSans-2e" x="127.246094"/>
       <use xlink:href="#DejaVuSans-35" x="159.033203"/>
       <use xlink:href="#DejaVuSans-34" x="222.65625"/>
       <use xlink:href="#DejaVuSans-30" x="286.279297"/>
       <use xlink:href="#DejaVuSans-30" x="349.902344"/>
      </g>
     </g>
    </g>
    <g id="ytick_6">
     <g id="line2d_13">
      <g>
       <use xlink:href="#md5faf5056c" x="57.6" y="145.031051" style="stroke: #000000; stroke-width: 0.8"/>
      </g>
     </g>
     <g id="text_13">
      <!-- 52.5425 -->
      <g transform="translate(9.246875 148.83027) scale(0.1 -0.1)">
       <use xlink:href="#DejaVuSans-35"/>
       <use xlink:href="#DejaVuSans-32" x="63.623047"/>
       <use xlink:href="#DejaVuSans-2e" x="127.246094"/>
       <use xlink:href="#DejaVuSans-35" x="159.033203"/>
       <use xlink:href="#DejaVuSans-34" x="222.65625"/>
       <use xlink:href="#DejaVuSans-32" x="286.279297"/>
       <use xlink:href="#DejaVuSans-35" x="349.902344"/>
      </g>
     </g>
    </g>
    <g id="ytick_7">
     <g id="line2d_14">
      <g>
       <use xlink:href="#md5faf5056c" x="57.6" y="122.476464" style="stroke: #000000; stroke-width: 0.8"/>
      </g>
     </g>
     <g id="text_14">
      <!-- 52.5450 -->
      <g transform="translate(9.246875 126.275683) scale(0.1 -0.1)">
       <use xlink:href="#DejaVuSans-35"/>
       <use xlink:href="#DejaVuSans-32" x="63.623047"/>
       <use xlink:href="#DejaVuSans-2e" x="127.246094"/>
       <use xlink:href="#DejaVuSans-35" x="159.033203"/>
       <use xlink:href="#DejaVuSans-34" x="222.65625"/>
       <use xlink:href="#DejaVuSans-35" x="286.279297"/>
       <use xlink:href="#DejaVuSans-30" x="349.902344"/>
      </g>
     </g>
    </g>
    <g id="ytick_8">
     <g id="line2d_15">
      <g>
       <use xlink:href="#md5faf5056c" x="57.6" y="99.921877" style="stroke: #000000; stroke-width: 0.8"/>
      </g>
     </g>
     <g id="text_15">
      <!-- 52.5475 -->
      <g transform="translate(9.246875 103.721096) scale(0.1 -0.1)">
       <use xlink:href="#DejaVuSans-35"/>
       <use xlink:href="#DejaVuSans-32" x="63.623047"/>
       <use xlink:href="#DejaVuSans-2e" x="127.246094"/>
       <use xlink:href="#DejaVuSans-35" x="159.033203"/>
       <use xlink:href="#DejaVuSans-34" x="222.65625"/>
       <use xlink:href="#DejaVuSans-37" x="286.279297"/>
       <use xlink:href="#DejaVuSans-35" x="349.902344"/>
      </g>
     </g>
    </g>
    <g id="ytick_9">
     <g id="line2d_16">
      <g>
       <use xlink:href="#md5faf5056c" x="57.6" y="77.36729" style="stroke: #000000; stroke-width: 0.8"/>
      </g>
     </g>
     <g id="text_16">
      <!-- 52.5500 -->
      <g transform="translate(9.246875 81.166509) scale(0.1 -0.1)">
       <use xlink:href="#DejaVuSans-35"/>
       <use xlink:href="#DejaVuSans-32" x="63.623047"/>
       <use xlink:href="#DejaVuSans-2e" x="127.246094"/>
       <use xlink:href="#DejaVuSans-35" x="159.033203"/>
       <use xlink:href="#DejaVuSans-35" x="222.65625"/>
       <use xlink:href="#DejaVuSans-30" x="286.279297"/>
       <use xlink:href="#DejaVuSans-30" x="349.902344"/>
      </g>
     </g>
    </g>
   </g>
   <g id="patch_3">
    <path d="M 57.6 275.73433 
L 57.6 73.32167 
" style="fill: none; stroke: #000000; stroke-width: 0.8; stroke-linejoin: miter; stroke-linecap: square"/>
   </g>
   <g id="patch_4">
    <path d="M 414.72 275.73433 
L 414.72 73.32167 
" style="fill: none; stroke: #000000; stroke-width: 0.8; stroke-linejoin: miter; stroke-linecap: square"/>
   </g>
   <g id="patch_5">
    <path d="M 57.6 275.73433 
L 414.72 275.73433 
" style="fill: none; stroke: #000000; stroke-width: 0.8; stroke-linejoin: miter; stroke-linecap: square"/>
   </g>
   <g id="patch_6">
    <path d="M 57.6 73.32167 
L 414.72 73.32167 
" style="fill: none; stroke: #000000; stroke-width: 0.8; stroke-linejoin: miter; stroke-linecap: square"/>
   </g>
   <g id="text_17">
    <!-- Charlottenburg_Nord -->
    <g transform="translate(158.555857 161.076127) scale(0.12 -0.12)">
     <defs>
      <path id="DejaVuSans-43" d="M 4122 4306 
L 4122 3641 
Q 3803 3938 3442 4084 
Q 3081 4231 2675 4231 
Q 1875 4231 1450 3742 
Q 1025 3253 1025 2328 
Q 1025 1406 1450 917 
Q 1875 428 2675 428 
Q 3081 428 3442 575 
Q 3803 722 4122 1019 
L 4122 359 
Q 3791 134 3420 21 
Q 3050 -91 2638 -91 
Q 1578 -91 968 557 
Q 359 1206 359 2328 
Q 359 3453 968 4101 
Q 1578 4750 2638 4750 
Q 3056 4750 3426 4639 
Q 3797 4528 4122 4306 
z
" transform="scale(0.015625)"/>
      <path id="DejaVuSans-68" d="M 3513 2113 
L 3513 0 
L 2938 0 
L 2938 2094 
Q 2938 2591 2744 2837 
Q 2550 3084 2163 3084 
Q 1697 3084 1428 2787 
Q 1159 2491 1159 1978 
L 1159 0 
L 581 0 
L 581 4863 
L 1159 4863 
L 1159 2956 
Q 1366 3272 1645 3428 
Q 1925 3584 2291 3584 
Q 2894 3584 3203 3211 
Q 3513 2838 3513 2113 
z
" transform="scale(0.015625)"/>
      <path id="DejaVuSans-61" d="M 2194 1759 
Q 1497 1759 1228 1600 
Q 959 1441 959 1056 
Q 959 750 1161 570 
Q 1363 391 1709 391 
Q 2188 391 2477 730 
Q 2766 1069 2766 1631 
L 2766 1759 
L 2194 1759 
z
M 3341 1997 
L 3341 0 
L 2766 0 
L 2766 531 
Q 2569 213 2275 61 
Q 1981 -91 1556 -91 
Q 1019 -91 701 211 
Q 384 513 384 1019 
Q 384 1609 779 1909 
Q 1175 2209 1959 2209 
L 2766 2209 
L 2766 2266 
Q 2766 2663 2505 2880 
Q 2244 3097 1772 3097 
Q 1472 3097 1187 3025 
Q 903 2953 641 2809 
L 641 3341 
Q 956 3463 1253 3523 
Q 1550 3584 1831 3584 
Q 2591 3584 2966 3190 
Q 3341 2797 3341 1997 
z
" transform="scale(0.015625)"/>
      <path id="DejaVuSans-72" d="M 2631 2963 
Q 2534 3019 2420 3045 
Q 2306 3072 2169 3072 
Q 1681 3072 1420 2755 
Q 1159 2438 1159 1844 
L 1159 0 
L 581 0 
L 581 3500 
L 1159 3500 
L 1159 2956 
Q 1341 3275 1631 3429 
Q 1922 3584 2338 3584 
Q 2397 3584 2469 3576 
Q 2541 3569 2628 3553 
L 2631 2963 
z
" transform="scale(0.015625)"/>
      <path id="DejaVuSans-6c" d="M 603 4863 
L 1178 4863 
L 1178 0 
L 603 0 
L 603 4863 
z
" transform="scale(0.015625)"/>
      <path id="DejaVuSans-6f" d="M 1959 3097 
Q 1497 3097 1228 2736 
Q 959 2375 959 1747 
Q 959 1119 1226 758 
Q 1494 397 1959 397 
Q 2419 397 2687 759 
Q 2956 1122 2956 1747 
Q 2956 2369 2687 2733 
Q 2419 3097 1959 3097 
z
M 1959 3584 
Q 2709 3584 3137 3096 
Q 3566 2609 3566 1747 
Q 3566 888 3137 398 
Q 2709 -91 1959 -91 
Q 1206 -91 779 398 
Q 353 888 353 1747 
Q 353 2609 779 3096 
Q 1206 3584 1959 3584 
z
" transform="scale(0.015625)"/>
      <path id="DejaVuSans-74" d="M 1172 4494 
L 1172 3500 
L 2356 3500 
L 2356 3053 
L 1172 3053 
L 1172 1153 
Q 1172 725 1289 603 
Q 1406 481 1766 481 
L 2356 481 
L 2356 0 
L 1766 0 
Q 1100 0 847 248 
Q 594 497 594 1153 
L 594 3053 
L 172 3053 
L 172 3500 
L 594 3500 
L 594 4494 
L 1172 4494 
z
" transform="scale(0.015625)"/>
      <path id="DejaVuSans-65" d="M 3597 1894 
L 3597 1613 
L 953 1613 
Q 991 1019 1311 708 
Q 1631 397 2203 397 
Q 2534 397 2845 478 
Q 3156 559 3463 722 
L 3463 178 
Q 3153 47 2828 -22 
Q 2503 -91 2169 -91 
Q 1331 -91 842 396 
Q 353 884 353 1716 
Q 353 2575 817 3079 
Q 1281 3584 2069 3584 
Q 2775 3584 3186 3129 
Q 3597 2675 3597 1894 
z
M 3022 2063 
Q 3016 2534 2758 2815 
Q 2500 3097 2075 3097 
Q 1594 3097 1305 2825 
Q 1016 2553 972 2059 
L 3022 2063 
z
" transform="scale(0.015625)"/>
      <path id="DejaVuSans-6e" d="M 3513 2113 
L 3513 0 
L 2938 0 
L 2938 2094 
Q 2938 2591 2744 2837 
Q 2550 3084 2163 3084 
Q 1697 3084 1428 2787 
Q 1159 2491 1159 1978 
L 1159 0 
L 581 0 
L 581 3500 
L 1159 3500 
L 1159 2956 
Q 1366 3272 1645 3428 
Q 1925 3584 2291 3584 
Q 2894 3584 3203 3211 
Q 3513 2838 3513 2113 
z
" transform="scale(0.015625)"/>
      <path id="DejaVuSans-62" d="M 3116 1747 
Q 3116 2381 2855 2742 
Q 2594 3103 2138 3103 
Q 1681 3103 1420 2742 
Q 1159 2381 1159 1747 
Q 1159 1113 1420 752 
Q 1681 391 2138 391 
Q 2594 391 2855 752 
Q 3116 1113 3116 1747 
z
M 1159 2969 
Q 1341 3281 1617 3432 
Q 1894 3584 2278 3584 
Q 2916 3584 3314 3078 
Q 3713 2572 3713 1747 
Q 3713 922 3314 415 
Q 2916 -91 2278 -91 
Q 1894 -91 1617 61 
Q 1341 213 1159 525 
L 1159 0 
L 581 0 
L 581 4863 
L 1159 4863 
L 1159 2969 
z
" transform="scale(0.015625)"/>
      <path id="DejaVuSans-75" d="M 544 1381 
L 544 3500 
L 1119 3500 
L 1119 1403 
Q 1119 906 1312 657 
Q 1506 409 1894 409 
Q 2359 409 2629 706 
Q 2900 1003 2900 1516 
L 2900 3500 
L 3475 3500 
L 3475 0 
L 2900 0 
L 2900 538 
Q 2691 219 2414 64 
Q 2138 -91 1772 -91 
Q 1169 -91 856 284 
Q 544 659 544 1381 
z
M 1991 3584 
L 1991 3584 
z
" transform="scale(0.015625)"/>
      <path id="DejaVuSans-67" d="M 2906 1791 
Q 2906 2416 2648 2759 
Q 2391 3103 1925 3103 
Q 1463 3103 1205 2759 
Q 947 2416 947 1791 
Q 947 1169 1205 825 
Q 1463 481 1925 481 
Q 2391 481 2648 825 
Q 2906 1169 2906 1791 
z
M 3481 434 
Q 3481 -459 3084 -895 
Q 2688 -1331 1869 -1331 
Q 1566 -1331 1297 -1286 
Q 1028 -1241 775 -1147 
L 775 -588 
Q 1028 -725 1275 -790 
Q 1522 -856 1778 -856 
Q 2344 -856 2625 -561 
Q 2906 -266 2906 331 
L 2906 616 
Q 2728 306 2450 153 
Q 2172 0 1784 0 
Q 1141 0 747 490 
Q 353 981 353 1791 
Q 353 2603 747 3093 
Q 1141 3584 1784 3584 
Q 2172 3584 2450 3431 
Q 2728 3278 2906 2969 
L 2906 3500 
L 3481 3500 
L 3481 434 
z
" transform="scale(0.015625)"/>
      <path id="DejaVuSans-5f" d="M 3263 -1063 
L 3263 -1509 
L -63 -1509 
L -63 -1063 
L 3263 -1063 
z
" transform="scale(0.015625)"/>
      <path id="DejaVuSans-4e" d="M 628 4666 
L 1478 4666 
L 3547 763 
L 3547 4666 
L 4159 4666 
L 4159 0 
L 3309 0 
L 1241 3903 
L 1241 0 
L 628 0 
L 628 4666 
z
" transform="scale(0.015625)"/>
      <path id="DejaVuSans-64" d="M 2906 2969 
L 2906 4863 
L 3481 4863 
L 3481 0 
L 2906 0 
L 2906 525 
Q 2725 213 2448 61 
Q 2172 -91 1784 -91 
Q 1150 -91 751 415 
Q 353 922 353 1747 
Q 353 2572 751 3078 
Q 1150 3584 1784 3584 
Q 2172 3584 2448 3432 
Q 2725 3281 2906 2969 
z
M 947 1747 
Q 947 1113 1208 752 
Q 1469 391 1925 391 
Q 2381 391 2643 752 
Q 2906 1113 2906 1747 
Q 2906 2381 2643 2742 
Q 2381 3103 1925 3103 
Q 1469 3103 1208 2742 
Q 947 2381 947 1747 
z
" transform="scale(0.015625)"/>
     </defs>
     <use xlink:href="#DejaVuSans-43"/>
     <use xlink:href="#DejaVuSans-68" x="69.824219"/>
     <use xlink:href="#DejaVuSans-61" x="133.203125"/>
     <use xlink:href="#DejaVuSans-72" x="194.482422"/>
     <use xlink:href="#DejaVuSans-6c" x="235.595703"/>
     <use xlink:href="#DejaVuSans-6f" x="263.378906"/>
     <use xlink:href="#DejaVuSans-74" x="324.560547"/>
     <use xlink:href="#DejaVuSans-74" x="363.769531"/>
     <use xlink:href="#DejaVuSans-65" x="402.978516"/>
     <use xlink:href="#DejaVuSans-6e" x="464.501953"/>
     <use xlink:href="#DejaVuSans-62" x="527.880859"/>
     <use xlink:href="#DejaVuSans-75" x="591.357422"/>
     <use xlink:href="#DejaVuSans-72" x="654.736328"/>
     <use xlink:href="#DejaVuSans-67" x="694.099609"/>
     <use xlink:href="#DejaVuSans-5f" x="757.576172"/>
     <use xlink:href="#DejaVuSans-4e" x="807.576172"/>
     <use xlink:href="#DejaVuSans-6f" x="882.380859"/>
     <use xlink:href="#DejaVuSans-72" x="943.5625"/>
     <use xlink:href="#DejaVuSans-64" x="982.925781"/>
    </g>
   </g>
  </g>
 </g>
 <defs>
  <clipPath id="p02fb1cf04c">
   <rect x="57.6" y="73.32167" width="357.12" height="202.412661"/>
  </clipPath>
 </defs>
</svg>
