<?xml version="1.0" encoding="utf-8" standalone="no"?>
<!DOCTYPE svg PUBLIC "-//W3C//DTD SVG 1.1//EN"
  "http://www.w3.org/Graphics/SVG/1.1/DTD/svg11.dtd">
<svg xmlns:xlink="http://www.w3.org/1999/xlink" width="460.8pt" height="345.6pt" viewBox="0 0 460.8 345.6" xmlns="http://www.w3.org/2000/svg" version="1.1">
 <metadata>
  <rdf:RDF xmlns:dc="http://purl.org/dc/elements/1.1/" xmlns:cc="http://creativecommons.org/ns#" xmlns:rdf="http://www.w3.org/1999/02/22-rdf-syntax-ns#">
   <cc:Work>
    <dc:type rdf:resource="http://purl.org/dc/dcmitype/StillImage"/>
    <dc:date>2024-10-15T09:53:30.420292</dc:date>
    <dc:format>image/svg+xml</dc:format>
    <dc:creator>
     <cc:Agent>
      <dc:title>Matplotlib v3.8.4, https://matplotlib.org/</dc:title>
     </cc:Agent>
    </dc:creator>
   </cc:Work>
  </rdf:RDF>
 </metadata>
 <defs>
  <style type="text/css">*{stroke-linejoin: round; stroke-linecap: butt}</style>
 </defs>
 <g id="figure_1">
  <g id="patch_1">
   <path d="M 0 345.6 
L 460.8 345.6 
L 460.8 0 
L 0 0 
z
" style="fill: #ffffff"/>
  </g>
  <g id="axes_1">
   <g id="patch_2">
    <path d="M 110.469753 307.584 
L 361.850247 307.584 
L 361.850247 41.472 
L 110.469753 41.472 
z
" style="fill: #ffffff"/>
   </g>
   <g id="PatchCollection_1">
    <path d="M 342.43401 182.602326 
L 341.921393 182.728626 
L 341.407557 182.849854 
L 340.89256 182.965948 
L 340.376464 183.076904 
L 340.140774 183.123538 
L 339.904095 183.16454 
L 339.666429 183.19991 
L 339.428079 183.229581 
L 339.189048 183.253613 
L 338.949518 183.271942 
L 338.779849 183.283736 
L 338.609904 183.291542 
L 338.43987 183.295478 
L 338.269743 183.29536 
L 338.097317 183.291239 
L 337.950722 183.288056 
L 337.801803 183.282469 
L 337.6512 183.27563 
L 336.671349 183.217311 
L 336.180757 183.18448 
L 335.688534 183.147448 
L 335.669867 183.148802 
L 335.649934 183.15375 
L 335.631828 183.163512 
L 335.6167 183.177445 
L 335.605449 183.194669 
L 334.398441 183.063808 
L 334.110846 182.866604 
L 333.76228 182.73719 
L 332.982343 182.463318 
L 332.566839 182.299747 
L 332.151835 182.10734 
L 331.291526 181.658143 
L 330.686664 181.341193 
L 329.728136 180.84142 
L 329.324631 180.618819 
L 328.98556 180.409537 
L 328.642743 180.186698 
L 328.598493 180.158038 
L 328.504449 180.080995 
L 328.398089 180.001595 
L 328.187232 179.838449 
L 327.926562 179.620836 
L 327.776492 179.493649 
L 327.420366 179.167066 
L 327.333052 179.081447 
L 327.113387 178.866142 
L 326.796574 178.561512 
L 326.595437 178.370668 
L 326.393026 178.180469 
L 326.186975 177.986606 
L 325.427575 177.195452 
L 325.307572 177.066893 
L 324.832889 176.517871 
L 324.400496 175.979053 
L 324.014882 175.485493 
L 323.37916 174.523073 
L 322.675036 173.165941 
L 322.284145 172.27682 
L 322.266775 172.22283 
L 322.072736 171.681252 
L 321.885088 171.196069 
L 321.843466 171.071532 
L 321.774401 170.812601 
L 321.571213 170.129753 
L 321.544603 170.057969 
L 321.463628 169.750577 
L 321.39128 169.434502 
L 321.323854 168.986357 
L 321.22305 168.165427 
L 321.185766 167.734959 
L 321.178631 167.649018 
L 321.15696 167.443319 
L 321.139044 167.113506 
L 321.133446 166.645426 
L 321.146533 166.102361 
L 321.183843 165.628553 
L 321.243024 165.130145 
L 321.291053 164.727567 
L 321.317908 164.560385 
L 321.402878 164.055663 
L 321.463338 163.718806 
L 321.472988 163.672056 
L 321.501783 163.525111 
L 321.606846 162.987778 
L 321.776016 161.958193 
L 321.833486 161.629887 
L 321.882813 161.402997 
L 322.005643 160.872996 
L 322.16448 160.306574 
L 322.27958 159.837415 
L 322.328785 159.61317 
L 322.375215 159.401467 
L 322.520231 158.751533 
L 322.781161 157.378158 
L 322.898747 156.46421 
L 322.971679 155.711404 
L 323.025743 154.861006 
L 323.039704 154.220198 
L 323.024241 153.59556 
L 322.955955 152.480891 
L 322.907659 152.210784 
L 322.794808 151.428485 
L 322.719006 151.193988 
L 322.596374 150.721003 
L 322.498422 150.236197 
L 322.495614 150.223417 
L 322.372586 149.71209 
L 322.238254 149.231693 
L 322.108428 148.818984 
L 321.925577 148.300563 
L 321.802005 147.938352 
L 321.551443 147.347381 
L 321.497741 147.225643 
L 321.284346 146.754642 
L 321.235618 146.654485 
L 321.005203 146.181973 
L 320.654229 145.491123 
L 320.264185 144.815746 
L 320.250445 144.75442 
L 320.268166 144.743867 
L 320.289739 144.72751 
L 320.306851 144.706523 
L 320.318488 144.682099 
L 320.324069 144.655603 
L 320.323198 144.628519 
L 320.315973 144.602381 
L 320.231964 144.474587 
L 320.065029 144.220756 
L 319.82583 143.857008 
L 319.558818 143.450968 
L 319.410563 143.225467 
L 319.326174 143.09719 
L 319.305926 143.080635 
L 319.282422 143.069134 
L 319.256905 143.063396 
L 319.230791 143.063634 
L 319.205367 143.069878 
L 319.182097 143.081789 
L 319.162546 143.095395 
L 318.910507 142.748767 
L 318.688015 142.444353 
L 318.637816 142.376129 
L 318.587256 142.308159 
L 318.536394 142.240442 
L 318.348426 141.994598 
L 318.156423 141.751921 
L 317.960326 141.512535 
L 317.760259 141.276499 
L 317.556223 141.043813 
L 317.348343 140.814658 
L 316.400966 139.787825 
L 315.741033 139.074285 
L 315.30211 138.598199 
L 314.23283 137.439052 
L 313.161743 136.281671 
L 312.088726 135.126059 
L 312.025987 135.069805 
L 311.744883 134.816603 
L 310.939222 134.139341 
L 310.310123 133.625336 
L 310.013174 133.394999 
L 309.039073 132.741755 
L 307.424057 131.676569 
L 306.192961 130.972827 
L 305.304889 130.508431 
L 304.886633 130.293335 
L 304.351812 130.051695 
L 303.00437 129.524791 
L 301.670673 129.05676 
L 300.394621 128.750634 
L 299.157747 128.563573 
L 297.951254 128.486317 
L 296.831625 128.495361 
L 295.010961 128.671379 
L 293.271772 128.851902 
L 291.586173 129.093076 
L 290.285449 129.320373 
L 289.009004 129.645201 
L 287.919104 130.028867 
L 287.573452 130.176504 
L 287.5392 130.190763 
L 286.712747 130.543829 
L 285.52653 131.194524 
L 284.405652 131.928453 
L 283.3483 132.749348 
L 282.708008 133.360827 
L 282.379627 133.673644 
L 281.43353 134.727529 
L 281.203906 135.04978 
L 280.941896 135.416426 
L 280.599498 135.896376 
L 279.86092 137.16994 
L 279.270121 138.459415 
L 278.904477 139.519365 
L 278.700409 140.529508 
L 278.653602 140.760711 
L 278.633767 140.859696 
L 278.411841 142.425864 
L 278.128693 144.426024 
L 278.124601 144.479467 
L 277.922948 145.907305 
L 277.845229 146.3702 
L 277.865156 146.583927 
L 277.903047 146.992864 
L 277.913231 147.077565 
L 277.946898 147.368043 
L 278.059702 147.663003 
L 278.07978 147.769784 
L 278.101478 148.550508 
L 278.135539 149.789381 
L 278.223009 152.915151 
L 278.104741 153.063083 
L 276.276635 155.346888 
L 276.198654 155.444835 
L 274.374923 157.741518 
L 274.335313 157.791489 
L 274.145765 158.030023 
L 269.850743 154.367814 
L 269.743591 154.276468 
L 269.582767 154.139359 
L 269.411058 153.992917 
L 269.363707 153.952599 
L 269.219719 153.284749 
L 266.130062 138.954413 
L 263.921191 128.71019 
L 263.87869 128.515001 
L 262.492888 122.085048 
L 262.368267 121.507588 
L 262.36146 121.475972 
L 262.276542 121.082519 
L 262.171813 120.597277 
L 262.164804 120.564867 
L 262.043268 120.001471 
L 261.331538 116.700893 
L 258.741734 104.691623 
L 256.176652 92.797098 
L 256.139106 92.622875 
L 256.032382 92.127603 
L 255.884691 91.442375 
L 255.715034 90.65524 
L 255.659397 90.39687 
L 256.443979 90.225334 
L 256.975353 90.109205 
L 257.716303 89.946868 
L 258.229407 89.741436 
L 258.991439 89.436388 
L 260.302721 88.910993 
L 260.515649 88.84547 
L 261.094828 88.667384 
L 263.826792 87.826222 
L 264.082041 87.747726 
L 266.127073 87.118348 
L 266.491314 87.006207 
L 267.881425 86.578384 
L 269.774308 85.995796 
L 269.70737 85.783661 
L 269.44881 84.963793 
L 269.286524 84.449286 
L 269.218775 84.233913 
L 269.74707 84.074426 
L 270.346339 83.586309 
L 270.591596 83.386545 
L 270.724367 83.278405 
L 271.223596 82.673516 
L 271.427822 82.426096 
L 271.676902 82.124341 
L 272.093354 81.620033 
L 271.039007 78.164263 
L 272.96519 75.934072 
L 271.599032 76.255106 
L 270.962753 76.104892 
L 265.196276 77.325114 
L 262.286827 77.962432 
L 258.350892 78.78668 
L 257.714606 78.920321 
L 257.147821 79.041518 
L 255.830231 79.321661 
L 255.767499 79.274576 
L 255.708117 79.008243 
L 255.517068 79.057645 
L 254.514212 79.319359 
L 254.311522 79.371862 
L 254.318734 79.339242 
L 254.283589 79.176026 
L 254.236827 78.95912 
L 254.185044 78.718914 
L 254.110014 78.370713 
L 254.058231 78.130508 
L 253.979964 77.76714 
L 253.930794 77.539043 
L 253.887889 77.3403 
L 253.881065 77.308613 
L 253.837682 77.107187 
L 253.307388 76.3846 
L 252.310559 74.087191 
L 251.236168 69.478582 
L 249.841955 63.495279 
L 249.204649 60.759473 
L 248.397748 57.296013 
L 247.584344 53.801794 
L 247.52992 53.568 
L 246.64723 53.77503 
L 244.884294 54.185144 
L 244.423782 54.294284 
L 243.920382 54.536572 
L 243.188383 54.707398 
L 242.968783 54.758647 
L 241.382835 55.130825 
L 239.62911 55.540754 
L 237.915018 55.940543 
L 237.000063 56.15563 
L 236.167432 56.350348 
L 234.410656 56.760379 
L 233.190652 57.044105 
L 232.852099 57.12274 
L 232.669138 57.166989 
L 231.031329 57.54966 
L 230.921567 57.576824 
L 229.164806 57.986886 
L 227.438555 58.390095 
L 225.693992 58.796817 
L 225.059659 58.946952 
L 224.138593 59.162222 
L 224.00745 59.192965 
L 223.915935 59.213556 
L 221.904311 60.262706 
L 221.788421 60.290017 
L 221.78019 60.292097 
L 221.721354 60.306961 
L 221.587147 60.337777 
L 221.535332 60.351289 
L 220.586977 60.579504 
L 220.400955 60.623833 
L 220.309441 60.644425 
L 220.282001 60.651217 
L 220.251496 60.658081 
L 220.190559 60.674881 
L 219.49223 60.8419 
L 219.217111 60.879107 
L 218.896092 60.920469 
L 217.486714 61.104234 
L 216.957788 61.172005 
L 216.036879 61.393443 
L 215.824971 61.379996 
L 215.773589 61.411937 
L 215.706954 61.44731 
L 214.566242 61.710806 
L 213.340292 62.0009 
L 213.193971 62.038151 
L 212.565925 62.194311 
L 211.644951 62.412691 
L 211.611454 62.422699 
L 210.748281 62.621281 
L 209.937067 62.812494 
L 209.921887 62.818998 
L 209.806 62.846315 
L 209.214663 62.998543 
L 208.638363 63.138126 
L 208.323982 63.200854 
L 208.168685 63.247538 
L 208.095273 63.255416 
L 208.009745 63.269724 
L 207.936405 63.280673 
L 207.863642 63.316192 
L 207.710112 63.307521 
L 207.556292 63.286564 
L 207.218619 63.402084 
L 205.296211 64.068183 
L 205.110771 64.137091 
L 203.942423 64.398207 
L 203.008986 64.607689 
L 202.625344 64.724299 
L 202.538052 64.793966 
L 202.419101 64.821357 
L 201.83967 64.957954 
L 201.315119 65.080965 
L 201.004023 65.152842 
L 200.726495 65.217781 
L 200.433716 65.286153 
L 200.33009 65.313183 
L 200.231438 65.290928 
L 199.874081 65.351606 
L 198.044288 65.782014 
L 197.885712 65.819562 
L 196.904651 65.959507 
L 196.883919 65.990727 
L 196.841879 66.028596 
L 196.726788 66.089703 
L 196.08066 66.258616 
L 195.28252 66.483365 
L 194.822552 66.61408 
L 193.83905 66.910818 
L 192.86781 67.20727 
L 192.679093 67.267045 
L 191.601961 67.624391 
L 189.52483 68.358783 
L 189.311958 68.434496 
L 187.718739 69.013027 
L 186.871405 69.361883 
L 186.479377 69.512516 
L 186.397134 69.535972 
L 186.378384 69.521051 
L 185.694742 69.789212 
L 185.576228 69.835038 
L 185.57367 69.85661 
L 184.303233 70.338405 
L 183.583179 70.622798 
L 182.996746 70.851789 
L 181.760102 71.335868 
L 180.532945 71.83202 
L 179.624405 72.185419 
L 178.491032 72.627117 
L 177.883661 72.878125 
L 177.862352 72.884775 
L 176.173716 73.576257 
L 176.170543 73.577686 
L 176.363181 74.061637 
L 177.260946 76.317054 
L 177.03863 76.444443 
L 176.561673 76.633977 
L 176.334501 76.753061 
L 176.116957 76.890355 
L 175.902624 77.03372 
L 175.704121 77.198221 
L 175.742419 77.261848 
L 175.616527 77.38468 
L 175.500192 77.52265 
L 175.386993 77.663619 
L 175.292401 77.813367 
L 175.159924 78.046984 
L 175.049189 78.292379 
L 174.947721 78.540627 
L 174.867851 78.79451 
L 174.853687 78.844015 
L 174.842588 78.893447 
L 174.828496 78.946022 
L 174.823526 78.995309 
L 174.821693 79.047594 
L 174.81986 79.09988 
L 174.806087 79.42595 
L 174.795306 79.748876 
L 174.79369 79.810376 
L 174.792002 79.868804 
L 174.799508 79.927014 
L 174.810079 79.985151 
L 174.892252 80.348898 
L 174.946141 80.553516 
L 175.0182 80.748485 
L 175.09938 80.940164 
L 175.192675 81.12541 
L 175.298155 81.307295 
L 175.412539 81.476676 
L 175.532908 81.639769 
L 175.668382 81.793286 
L 175.80984 81.940515 
L 175.963268 82.075168 
L 176.206294 82.238429 
L 176.443408 82.41105 
L 176.677456 82.583743 
L 176.908585 82.762652 
L 177.136866 82.950848 
L 177.362083 83.139116 
L 177.584379 83.3336 
L 177.797553 83.531373 
L 178.0108 83.732218 
L 178.218062 83.939351 
L 178.419339 84.152771 
L 178.617552 84.366265 
L 178.772207 84.553132 
L 178.926935 84.743071 
L 179.075534 84.933155 
L 179.224132 85.123239 
L 179.372802 85.316394 
L 179.515343 85.509695 
L 180.087075 86.479536 
L 180.22129 86.709911 
L 180.352512 86.94343 
L 180.474686 87.183309 
L 180.59073 87.423333 
L 180.70173 87.709573 
L 180.757411 87.860371 
L 180.806674 87.999029 
L 180.90848 88.285486 
L 181.013423 88.574942 
L 181.112164 88.861472 
L 181.207986 89.154217 
L 181.461569 90.156177 
L 182.097341 92.673327 
L 182.168261 93.00148 
L 182.048076 93.031582 
L 180.830002 93.336928 
L 180.589985 93.397126 
L 179.782342 93.579425 
L 178.936894 93.768277 
L 178.262073 93.91898 
L 177.591097 94.068855 
L 176.969181 94.195378 
L 176.78719 93.574964 
L 176.82519 93.529543 
L 176.794857 93.413485 
L 176.758468 93.300644 
L 176.70982 93.188093 
L 176.658253 93.081757 
L 176.597564 92.978711 
L 176.521793 92.756173 
L 176.210794 92.05059 
L 176.03597 92.048585 
L 175.769059 91.652338 
L 175.495562 91.366876 
L 175.472082 91.281387 
L 175.431229 91.239332 
L 175.346943 91.305863 
L 175.020478 90.98478 
L 175.064708 90.909979 
L 175.118783 90.862602 
L 175.198027 90.842286 
L 175.138351 90.782239 
L 174.913067 90.590901 
L 174.760006 90.471605 
L 174.604025 90.358524 
L 174.44498 90.245517 
L 174.289071 90.135508 
L 174.006573 89.988549 
L 173.606608 89.80135 
L 173.209489 89.604866 
L 172.884448 89.474281 
L 172.836865 89.53687 
L 172.740248 89.600621 
L 172.4862 89.489866 
L 172.29453 89.423728 
L 172.149046 89.365715 
L 171.68318 89.244616 
L 171.411758 89.177296 
L 171.310048 89.155122 
L 171.207975 89.117592 
L 171.186233 89.105815 
L 171.167555 89.093966 
L 171.142821 89.085333 
L 171.121152 89.076628 
L 170.989013 89.064395 
L 170.856946 89.055233 
L 170.72196 89.052287 
L 170.590184 89.055411 
L 170.535094 89.05979 
L 170.479932 89.061098 
L 170.427979 89.068475 
L 170.373107 89.082068 
L 170.360849 89.082359 
L 170.348663 89.085721 
L 170.336477 89.089083 
L 170.324364 89.095516 
L 170.31517 89.095734 
L 170.303057 89.102167 
L 170.291016 89.111672 
L 170.281967 89.118033 
L 170.272991 89.127465 
L 170.264015 89.136897 
L 170.248837 89.143403 
L 170.233659 89.149909 
L 170.218481 89.156415 
L 170.203231 89.159849 
L 170.188053 89.166355 
L 170.17273 89.166718 
L 170.154343 89.167154 
L 170.13902 89.167518 
L 170.133148 88.918739 
L 169.682439 88.920206 
L 169.67631 88.920351 
L 169.67018 88.920496 
L 169.667116 88.920569 
L 169.661059 88.923786 
L 169.65493 88.923931 
L 169.651938 88.927075 
L 169.645881 88.930292 
L 169.642889 88.933436 
L 169.636833 88.936652 
L 169.633841 88.939796 
L 169.630849 88.94294 
L 169.627929 88.949156 
L 169.624937 88.9523 
L 169.622017 88.958515 
L 169.619025 88.961659 
L 169.616106 88.967874 
L 169.613114 88.971018 
L 169.613259 88.977161 
L 169.613404 88.983304 
L 169.610484 88.989519 
L 169.610557 88.99259 
L 169.610702 88.998733 
L 169.610847 89.004876 
L 169.614056 89.010946 
L 169.614129 89.014017 
L 169.614274 89.02016 
L 169.218727 89.020319 
L 168.967867 89.044706 
L 168.214636 89.090225 
L 167.593544 89.147977 
L 167.09255 89.227466 
L 166.921225 89.243822 
L 166.906283 89.130473 
L 166.777789 89.14274 
L 166.658488 89.154789 
L 166.59727 89.159314 
L 166.598067 89.193099 
L 165.879055 89.259324 
L 165.163398 89.337763 
L 163.359804 89.571087 
L 163.087025 89.835697 
L 162.848715 89.872084 
L 162.598437 89.921046 
L 162.551961 89.900638 
L 162.029663 89.986787 
L 161.672707 90.062867 
L 161.645126 90.063522 
L 161.620682 90.067175 
L 161.593174 90.070901 
L 161.568657 90.071483 
L 161.541003 90.069067 
L 161.516414 90.066577 
L 161.342985 89.993867 
L 161.019827 89.94315 
L 160.602814 90.072899 
L 159.674732 90.374581 
L 159.65511 90.322805 
L 159.617827 90.302179 
L 159.440156 90.309471 
L 159.401043 90.34113 
L 159.310195 90.389383 
L 158.899167 90.512846 
L 158.727988 90.535349 
L 158.534849 90.536862 
L 158.468228 90.572248 
L 158.432615 90.622263 
L 158.430857 90.677619 
L 157.576764 90.995989 
L 157.625927 91.130036 
L 157.534717 91.162933 
L 157.482562 91.03203 
L 156.63489 91.362543 
L 156.639407 91.423897 
L 156.6599 91.512529 
L 156.632102 91.50397 
L 156.60744 91.49841 
L 156.579714 91.492922 
L 156.552061 91.490506 
L 156.524407 91.48809 
L 156.496826 91.488745 
L 156.469245 91.4894 
L 156.441737 91.493126 
L 156.414302 91.499924 
L 156.383801 91.506795 
L 156.298648 91.536475 
L 156.092729 91.645851 
L 155.758608 91.779783 
L 155.678481 91.892317 
L 155.655345 91.951255 
L 155.519039 92.0221 
L 155.333119 92.06954 
L 155.180183 92.085465 
L 154.98719 92.093124 
L 154.550052 92.149606 
L 154.492407 92.17556 
L 154.416072 92.318734 
L 154.353097 92.378619 
L 154.25313 92.430163 
L 153.678584 92.640491 
L 153.545489 92.717407 
L 153.500611 92.76457 
L 153.399046 92.748545 
L 153.140887 92.853018 
L 151.982303 93.390681 
L 151.900869 93.447932 
L 151.871242 93.491659 
L 151.77004 93.490992 
L 151.70021 93.520309 
L 150.888733 93.954461 
L 150.676616 94.060915 
L 150.277637 94.174884 
L 150.141115 94.236518 
L 149.866461 94.421286 
L 149.16554 94.732965 
L 148.928254 94.812361 
L 148.702644 94.866895 
L 148.41428 94.990528 
L 148.33401 95.096921 
L 148.320506 95.174069 
L 148.333782 95.216776 
L 148.023011 95.430062 
L 146.910133 95.825297 
L 146.542675 95.975398 
L 144.993681 96.599203 
L 144.70481 96.701341 
L 143.118621 97.178533 
L 143.100089 97.172828 
L 142.959414 97.188468 
L 142.224878 97.374968 
L 142.143084 97.416865 
L 142.117032 97.482019 
L 140.865541 97.849846 
L 140.478755 97.960466 
L 140.118895 98.042786 
L 139.92598 98.053526 
L 139.803183 98.04723 
L 139.659444 98.062945 
L 139.522635 98.112298 
L 138.264517 98.329714 
L 138.179222 98.353257 
L 138.127927 98.388282 
L 138.119244 98.41 
L 137.835195 98.456715 
L 137.700578 98.46914 
L 137.793088 98.62059 
L 137.85999 98.726554 
L 137.226886 98.793874 
L 137.123719 98.710286 
L 136.942121 98.551739 
L 136.448306 98.545064 
L 136.447869 98.526636 
L 136.391689 98.484951 
L 135.833083 98.461381 
L 135.701384 98.467592 
L 135.643961 98.502764 
L 134.961684 98.436046 
L 134.919879 98.354069 
L 133.414435 98.098001 
L 133.3476 98.124178 
L 132.80111 97.965111 
L 132.803955 97.955824 
L 132.806874 97.949608 
L 132.806728 97.943465 
L 132.806583 97.937323 
L 132.806437 97.93118 
L 132.806291 97.925037 
L 132.803008 97.915896 
L 132.802862 97.909754 
L 132.799652 97.903684 
L 132.796442 97.897615 
L 132.793232 97.891545 
L 132.790021 97.885475 
L 132.786811 97.879406 
L 132.780609 97.87648 
L 132.777399 97.870411 
L 132.771197 97.867486 
L 132.767987 97.861416 
L 132.761785 97.858491 
L 132.755511 97.852494 
L 132.749309 97.849569 
L 132.171517 97.663591 
L 131.549874 97.43871 
L 129.549359 102.228658 
L 129.619483 102.221917 
L 130.111694 102.171584 
L 130.198807 102.162684 
L 133.087635 101.879201 
L 133.08309 101.834996 
L 135.742172 101.627632 
L 138.133186 101.369948 
L 138.184419 101.440944 
L 137.174543 102.144204 
L 136.145642 102.952589 
L 135.24507 103.692772 
L 134.249012 104.714205 
L 133.186857 105.875319 
L 132.472596 106.736881 
L 131.806557 107.679346 
L 131.124624 108.760664 
L 130.44919 109.921851 
L 129.465928 111.829635 
L 128.866654 112.628601 
L 128.266994 113.860633 
L 127.62703 115.773574 
L 126.625614 119.260187 
L 125.980104 117.039503 
L 125.852096 117.066526 
L 125.662292 116.231739 
L 125.647432 116.16633 
L 125.619222 116.171367 
L 125.326865 115.397538 
L 125.072853 116.369954 
L 124.845063 117.328408 
L 124.582321 118.433973 
L 124.121169 120.374185 
L 124.102149 120.466852 
L 123.63841 122.726212 
L 123.413596 123.990183 
L 123.230096 125.14782 
L 123.066169 126.359999 
L 122.924399 127.604041 
L 122.832802 128.830597 
L 122.815346 129.161798 
L 122.765938 130.101921 
L 122.729731 130.082626 
L 122.709982 130.072096 
L 122.727166 130.150172 
L 122.748624 130.325562 
L 122.86591 131.016722 
L 122.993992 131.153121 
L 123.246513 131.535837 
L 123.313954 131.674912 
L 123.452753 132.11535 
L 123.495865 132.425377 
L 123.578629 133.194065 
L 124.455448 141.643798 
L 124.479058 141.927985 
L 124.660862 144.120212 
L 124.665261 144.181507 
L 124.671619 144.242693 
L 124.67981 144.303591 
L 124.694196 144.387818 
L 124.702792 144.429652 
L 125.133889 146.283365 
L 126.098193 150.46763 
L 126.540897 152.328074 
L 126.734598 153.10604 
L 126.974139 153.872771 
L 127.171906 154.481192 
L 127.318733 154.935085 
L 127.634249 155.947755 
L 127.506316 155.990142 
L 128.887257 160.966303 
L 130.270039 165.983299 
L 130.810224 167.918129 
L 130.84344 167.909777 
L 130.886329 167.89902 
L 131.126758 168.768029 
L 131.142455 168.81203 
L 131.163736 168.853685 
L 131.190215 168.892143 
L 131.221448 168.926862 
L 131.256871 168.957301 
L 131.295978 168.982797 
L 132.090022 171.295226 
L 132.081075 171.341282 
L 132.077097 171.388087 
L 132.07774 171.416786 
L 132.084219 171.481585 
L 132.095295 171.527232 
L 132.116085 171.60762 
L 132.389755 172.666836 
L 132.437161 172.840625 
L 132.4789 173.015901 
L 132.514906 173.19242 
L 132.545114 173.370061 
L 132.56958 173.548576 
L 132.588177 173.727784 
L 132.600785 173.884579 
L 132.619204 174.040804 
L 132.64349 174.196214 
L 132.673575 174.350564 
L 132.709394 174.503733 
L 133.122301 176.035443 
L 133.789916 178.512055 
L 133.98563 179.221326 
L 134.038384 179.442313 
L 134.131178 179.754107 
L 134.229266 180.064239 
L 134.332709 180.372646 
L 134.441441 180.679205 
L 134.5554 180.983857 
L 134.674583 181.28648 
L 134.729135 181.417875 
L 134.841274 181.679425 
L 134.918231 181.863696 
L 134.998889 182.046404 
L 135.083248 182.227426 
L 135.171182 182.406703 
L 135.262811 182.58411 
L 135.090574 182.696755 
L 134.533963 183.061024 
L 134.389921 183.155296 
L 134.599854 183.564666 
L 134.806578 183.97571 
L 135.010027 184.388308 
L 135.210204 184.802581 
L 135.361718 185.126929 
L 135.508563 185.453477 
L 135.650675 185.782105 
L 135.788052 186.11269 
L 135.920755 186.445292 
L 136.048597 186.77973 
L 136.171762 187.116001 
L 136.290125 187.454045 
L 136.403561 187.793744 
L 136.512131 188.135034 
L 136.615771 188.477854 
L 136.714479 188.822145 
L 136.822236 189.21711 
L 136.927006 189.612822 
L 137.028913 190.00934 
L 137.127646 190.406425 
L 137.223515 190.804255 
L 137.316396 191.20277 
L 137.509918 192.024631 
L 137.699659 192.847381 
L 137.88562 193.67102 
L 138.067859 194.495486 
L 138.246075 195.320969 
L 138.420508 196.147219 
L 138.591157 196.974235 
L 138.758085 197.802077 
L 138.86094 198.329363 
L 138.960928 198.85727 
L 139.058046 199.385676 
L 139.152234 199.914582 
L 139.243315 200.444361 
L 139.331526 200.974638 
L 139.416805 201.505354 
L 139.499214 202.036569 
L 139.537127 202.288764 
L 139.574123 202.541042 
L 139.687128 203.351977 
L 139.759714 203.911083 
L 139.828082 204.47072 
L 139.897098 205.080986 
L 139.96104 205.691864 
L 140.019906 206.303232 
L 140.073632 206.91503 
L 140.102544 207.284154 
L 140.128947 207.653462 
L 140.152902 208.02295 
L 140.174347 208.39256 
L 140.204484 209.105856 
L 140.235043 209.829126 
L 140.24961 210.335405 
L 140.259703 210.841729 
L 140.265263 211.348162 
L 140.266349 211.854639 
L 140.262898 212.361101 
L 140.255031 212.867484 
L 140.242688 213.37379 
L 140.225868 213.880017 
L 140.204444 214.385986 
L 140.178604 214.891813 
L 140.154009 215.351884 
L 140.125178 215.811687 
L 140.092171 216.271159 
L 140.054928 216.730364 
L 140.013447 217.189177 
L 139.967787 217.647599 
L 139.917949 218.105566 
L 139.863871 218.563082 
L 139.824559 218.867637 
L 139.78125 219.171673 
L 139.733942 219.475067 
L 139.682696 219.777817 
L 139.627569 220.079799 
L 139.568442 220.381077 
L 139.505372 220.681527 
L 139.438421 220.981148 
L 139.365862 221.27955 
L 139.290222 221.577226 
L 139.211497 221.874054 
L 139.129687 222.170034 
L 139.04485 222.465041 
L 138.956926 222.759076 
L 138.865978 223.052262 
L 138.771941 223.344415 
L 138.489176 224.185488 
L 137.943449 225.782163 
L 137.977865 225.793697 
L 137.986345 225.911009 
L 137.356597 227.57775 
L 137.222079 227.933778 
L 136.75552 229.151073 
L 136.710321 229.186322 
L 136.528529 229.608591 
L 136.186028 230.380532 
L 135.592441 231.694891 
L 135.520004 231.664534 
L 135.21312 232.361382 
L 134.902333 233.05648 
L 134.587645 233.749827 
L 134.269053 234.441362 
L 133.946559 235.131086 
L 133.691921 235.668304 
L 133.434867 236.204413 
L 133.175519 236.739347 
L 132.930606 237.239335 
L 132.683645 237.738265 
L 132.434578 238.236201 
L 132.38166 238.341333 
L 132.32868 238.446466 
L 132.275575 238.551478 
L 131.69707 239.688846 
L 131.172647 240.720872 
L 130.42798 242.199382 
L 130.444548 242.207899 
L 130.195232 242.731226 
L 129.428156 244.386114 
L 128.67283 246.076003 
L 127.951252 247.774861 
L 127.228053 249.642717 
L 126.772245 251.188653 
L 126.658952 251.962574 
L 126.616767 252.114098 
L 126.365601 253.016262 
L 126.264456 253.387689 
L 126.254996 253.423528 
L 126.166211 253.759909 
L 126.070864 254.132858 
L 125.978415 254.506537 
L 125.95469 254.604458 
L 125.931212 254.702496 
L 125.907918 254.800529 
L 125.6492 254.766753 
L 125.603312 254.780509 
L 125.472579 255.276488 
L 125.345668 255.773421 
L 125.222519 256.271309 
L 125.103132 256.770152 
L 124.991777 257.248398 
L 124.884736 257.727647 
L 124.781885 258.207842 
L 124.683285 258.688918 
L 124.588933 259.170815 
L 124.497972 259.653492 
L 124.411072 260.13687 
L 124.328236 260.621013 
L 124.249461 261.105796 
L 124.174748 261.59128 
L 124.10237 262.077017 
L 124.034604 262.563381 
L 123.971326 263.050314 
L 123.912661 263.537936 
L 123.858603 264.026001 
L 123.461931 267.687264 
L 123.34931 268.602532 
L 123.288309 269.058804 
L 123.222452 269.514453 
L 123.151735 269.969297 
L 123.076158 270.423396 
L 123.010863 270.778788 
L 122.941135 271.133303 
L 122.866974 271.48694 
L 122.788378 271.839639 
L 122.705405 272.191274 
L 123.746196 272.451672 
L 122.555084 275.995088 
L 122.403572 276.591071 
L 122.3561 276.778064 
L 122.400968 277.583797 
L 122.561692 278.91724 
L 122.414996 279.11453 
L 123.016746 280.311386 
L 123.168847 280.217899 
L 123.447706 280.644115 
L 123.409601 280.680918 
L 123.373945 280.720183 
L 123.341039 280.761717 
L 123.310879 280.805337 
L 123.272853 280.871271 
L 123.241219 280.940556 
L 123.21639 281.012506 
L 123.198412 281.086504 
L 123.187637 281.161867 
L 123.183989 281.237982 
L 123.187633 281.314046 
L 123.198493 281.389446 
L 123.216429 281.463448 
L 123.228014 281.460959 
L 123.589423 282.362208 
L 123.704759 282.635724 
L 123.814935 282.91133 
L 123.919889 283.188967 
L 124.019679 283.46857 
L 124.11418 283.749959 
L 124.203392 284.033134 
L 124.287248 284.317912 
L 124.366053 284.604224 
L 124.41682 284.803068 
L 124.507521 285.180983 
L 124.570118 285.471247 
L 124.627288 285.762685 
L 124.678905 286.055116 
L 124.725089 286.348476 
L 125.01345 286.576254 
L 125.530869 286.536924 
L 125.529464 286.58877 
L 125.509023 287.344189 
L 125.196268 287.371935 
L 124.861223 287.408142 
L 124.651813 287.439261 
L 124.443123 287.47485 
L 124.235215 287.514968 
L 124.028271 287.55955 
L 123.798727 287.847506 
L 123.795062 288.077828 
L 123.785018 288.307934 
L 123.768653 288.537699 
L 123.745902 288.76694 
L 123.716821 288.995411 
L 123.681408 289.223049 
L 123.639716 289.449546 
L 123.591807 289.67484 
L 123.535889 289.913908 
L 123.474856 290.151746 
L 123.408703 290.388169 
L 123.337489 290.623116 
L 123.261212 290.856462 
L 123.161215 291.146489 
L 123.058066 291.435362 
L 122.951704 291.723144 
L 122.842186 292.009649 
L 122.621374 292.582641 
L 122.517961 292.857814 
L 122.417206 293.133908 
L 122.31905 293.411046 
L 122.223611 293.689041 
L 122.16218 293.879071 
L 122.104888 294.070478 
L 122.051728 294.263015 
L 121.996639 294.472317 
L 121.944817 294.682462 
L 121.896139 294.893392 
L 123.759884 293.965513 
L 128.294467 291.77407 
L 130.0145 295.140225 
L 130.341509 294.972135 
L 130.614025 294.832018 
L 132.69184 293.763629 
L 133.105087 293.551938 
L 133.506862 293.344947 
L 134.060471 294.41421 
L 134.602171 295.488 
L 135.436632 295.059579 
L 135.563959 294.994038 
L 136.149969 294.692004 
L 135.053996 292.549022 
L 138.728601 290.659913 
L 138.912237 290.565313 
L 137.191982 287.199668 
L 137.933946 286.777145 
L 139.349565 285.971715 
L 139.909043 285.653418 
L 146.60111 281.844353 
L 147.341836 281.422805 
L 147.511279 281.326336 
L 147.971475 281.064442 
L 148.630162 281.110173 
L 149.28891 281.155905 
L 149.520525 281.172031 
L 149.752141 281.188157 
L 150.207029 281.137143 
L 150.661919 281.086191 
L 150.91504 281.057985 
L 151.168222 281.029777 
L 151.542807 280.965002 
L 151.917393 280.900289 
L 152.789259 280.750001 
L 152.970969 280.7187 
L 153.661125 280.599715 
L 154.149243 280.515404 
L 154.63736 280.431094 
L 155.006473 280.375919 
L 155.375586 280.320744 
L 155.724359 280.26845 
L 156.568473 280.141819 
L 156.956759 280.083609 
L 157.668649 279.976471 
L 158.231496 279.830712 
L 159.936971 279.46151 
L 160.075871 279.431414 
L 160.576113 279.323163 
L 161.543368 279.113907 
L 162.629525 278.878905 
L 164.950022 278.369259 
L 166.393069 278.017753 
L 168.27322 277.559698 
L 168.57224 277.486903 
L 178.27781 275.134343 
L 180.570432 274.578645 
L 180.827899 274.711267 
L 180.930256 274.995253 
L 181.084089 275.422209 
L 181.328547 276.100855 
L 181.405329 276.313844 
L 181.562379 276.749944 
L 181.661524 277.025094 
L 181.700933 277.134485 
L 181.957056 277.845368 
L 182.031411 278.051654 
L 182.066226 278.148123 
L 182.259011 278.683436 
L 182.451858 279.218809 
L 182.644763 279.754058 
L 182.837546 280.289371 
L 184.363495 279.751666 
L 184.469455 280.045771 
L 184.665822 279.983412 
L 188.788915 278.4288 
L 188.993455 278.351684 
L 188.920325 278.163436 
L 190.759266 277.369321 
L 191.031287 277.242793 
L 191.067341 277.227866 
L 192.351132 276.628444 
L 192.657091 276.485566 
L 192.790521 276.423286 
L 192.770059 276.366242 
L 193.07646 276.260415 
L 193.363288 276.161444 
L 195.071872 275.50983 
L 195.084916 275.548489 
L 196.774595 274.924068 
L 197.344535 274.713804 
L 201.593254 273.077117 
L 201.554957 272.521366 
L 201.542144 272.335871 
L 201.673117 272.296701 
L 201.992758 272.201081 
L 202.55633 272.032464 
L 202.835926 271.948853 
L 202.951623 271.914224 
L 203.270617 272.553513 
L 207.964875 270.811014 
L 208.015876 270.853203 
L 210.311201 270.030128 
L 210.358621 269.94573 
L 211.689316 269.440919 
L 213.240775 268.852241 
L 213.56803 268.729614 
L 213.476132 268.473378 
L 213.418457 268.316413 
L 213.373859 268.194357 
L 214.012443 267.985703 
L 214.035331 268.036546 
L 214.744031 267.752058 
L 214.748937 267.749545 
L 214.722949 267.691954 
L 216.781847 266.897057 
L 216.827103 266.997525 
L 216.832623 266.995059 
L 217.033176 267.45615 
L 217.501837 267.287954 
L 218.036512 267.038795 
L 221.014151 265.767414 
L 227.310884 263.413018 
L 228.342642 263.022626 
L 229.064753 262.618621 
L 228.988817 262.207265 
L 230.572683 261.895474 
L 230.657528 262.386459 
L 230.85031 262.308849 
L 231.030582 262.236205 
L 232.713821 261.558115 
L 233.47271 261.298122 
L 233.547911 261.298014 
L 234.774454 261.297954 
L 236.343377 261.295756 
L 236.734769 261.295351 
L 243.040328 261.290006 
L 243.871898 261.289236 
L 244.088374 261.289134 
L 246.518466 261.414719 
L 247.076056 261.442327 
L 250.487719 261.612959 
L 253.357721 261.755821 
L 253.944097 261.785226 
L 256.416872 261.733374 
L 256.444909 261.429345 
L 256.491632 260.925006 
L 258.103981 261.063635 
L 258.049664 261.649895 
L 258.030996 261.851003 
L 258.808404 261.922161 
L 259.818047 262.01462 
L 260.785676 262.10321 
L 260.816415 261.841342 
L 263.873548 262.137818 
L 264.618495 262.210059 
L 264.854445 262.232995 
L 265.763928 262.32247 
L 265.996182 262.347275 
L 266.920921 262.447091 
L 267.561663 262.516245 
L 268.232021 262.58858 
L 268.376846 262.604246 
L 268.77556 262.647349 
L 268.77205 262.68357 
L 269.157706 262.705467 
L 269.520901 262.726107 
L 270.448832 262.77878 
L 271.336381 262.829204 
L 271.389312 262.258652 
L 271.391364 262.23617 
L 272.462422 262.331128 
L 273.465652 262.420075 
L 273.409562 263.023644 
L 274.332123 263.116957 
L 274.714243 263.155539 
L 274.993587 263.18386 
L 275.069826 263.191544 
L 276.248216 263.303594 
L 276.318733 263.310306 
L 276.792185 263.336123 
L 278.087165 263.406737 
L 278.220087 263.413958 
L 278.373268 263.43054 
L 279.146638 263.51297 
L 279.450591 263.545332 
L 279.575749 263.558697 
L 282.323828 263.852865 
L 282.334325 263.740024 
L 282.374261 263.311137 
L 283.752069 263.425139 
L 283.718454 263.798993 
L 283.90911 263.832588 
L 286.223252 264.073982 
L 286.175135 264.430473 
L 287.915543 264.582193 
L 288.5102 263.824708 
L 288.856925 263.856757 
L 288.94666 263.864991 
L 289.484588 263.914647 
L 289.583784 263.923827 
L 290.019566 263.964004 
L 290.147262 263.97584 
L 290.254196 263.9857 
L 290.655092 264.022696 
L 290.774496 264.033742 
L 291.226618 264.075506 
L 291.341475 264.086105 
L 291.678494 264.117216 
L 291.73465 264.120517 
L 291.910733 264.130979 
L 293.523149 264.300465 
L 293.745195 264.321351 
L 293.807294 264.327157 
L 293.8568 264.33178 
L 294.322388 264.375448 
L 294.390193 264.381853 
L 294.41391 264.384072 
L 294.857076 264.425559 
L 294.952897 264.434574 
L 295.363694 264.473066 
L 295.484574 264.484387 
L 296.219257 264.553319 
L 298.093857 264.709225 
L 299.152755 264.807061 
L 305.717303 265.413891 
L 305.798134 265.421414 
L 305.850525 265.426219 
L 307.225812 265.551327 
L 307.302583 265.558207 
L 307.374196 265.564655 
L 308.483379 265.663936 
L 309.960265 265.796282 
L 310.142179 265.81252 
L 310.714418 265.840828 
L 310.781447 265.842527 
L 311.287251 265.855048 
L 311.406429 265.853753 
L 314.748087 265.587481 
L 315.910369 265.395952 
L 316.166834 265.341502 
L 316.152147 265.504347 
L 317.336856 265.339099 
L 318.023112 265.243448 
L 321.033579 264.10377 
L 321.28636 263.985245 
L 321.411446 263.926535 
L 321.929866 263.667615 
L 322.447019 263.398891 
L 322.953045 263.11543 
L 323.48162 262.794447 
L 323.503397 262.569486 
L 323.739255 262.426648 
L 324.326935 262.034783 
L 324.916956 261.611519 
L 325.080709 261.496599 
L 325.35548 261.281688 
L 325.146571 261.261704 
L 326.068307 260.5097 
L 326.780834 259.928385 
L 326.933095 259.804145 
L 327.196754 259.598897 
L 326.786161 259.561401 
L 326.564988 259.541208 
L 326.493126 259.534639 
L 326.272014 259.514445 
L 326.199539 259.507828 
L 325.962519 259.486159 
L 325.888815 259.479449 
L 325.70394 259.462533 
L 325.651856 259.457779 
L 325.576923 259.450912 
L 325.440448 259.438467 
L 325.519564 259.352983 
L 325.963713 258.873611 
L 326.441667 258.305259 
L 326.798154 257.843655 
L 327.182492 257.30335 
L 327.531328 256.765036 
L 327.946351 256.068891 
L 328.152417 255.702847 
L 328.444308 255.164134 
L 328.547638 254.967091 
L 328.688414 254.698132 
L 329.557913 253.037149 
L 329.593773 252.968219 
L 329.594942 252.965733 
L 329.655127 252.85125 
L 330.251363 251.725228 
L 330.972972 250.362447 
L 333.43129 245.465058 
L 335.457256 241.565567 
L 335.687679 241.135227 
L 336.887058 238.781276 
L 337.815417 236.957375 
L 337.85219 236.885352 
L 337.89653 236.798525 
L 338.440729 235.785157 
L 338.468762 235.732819 
L 338.60599 235.47673 
L 338.100254 235.211126 
L 337.332071 234.808027 
L 335.896628 234.054013 
L 335.719983 233.961303 
L 331.555251 231.77586 
L 331.301169 231.642539 
L 329.501001 230.697935 
L 328.940155 230.403631 
L 328.446197 230.14447 
L 328.434546 230.138962 
L 325.079736 228.37809 
L 331.75962 224.789891 
L 331.799399 224.768502 
L 334.355387 223.395556 
L 335.369574 222.853273 
L 336.361577 222.263199 
L 336.960326 221.85285 
L 337.308585 221.614307 
L 338.211254 220.908487 
L 338.40881 220.73508 
L 339.072022 220.153058 
L 339.882422 219.353069 
L 340.526225 218.651957 
L 340.859295 218.211379 
L 341.559543 217.28586 
L 341.651579 217.164496 
L 341.501113 217.10959 
L 341.495117 217.107393 
L 341.495687 217.105536 
L 341.192868 217.057597 
L 341.072366 217.106051 
L 340.909645 217.171216 
L 340.751681 217.192695 
L 340.44025 217.154053 
L 331.234394 213.753156 
L 330.939172 213.644083 
L 330.535224 213.45345 
L 330.224689 213.302385 
L 330.19084 213.285961 
L 329.995306 213.18816 
L 329.867928 213.124489 
L 329.555911 212.938426 
L 328.971104 212.566069 
L 328.499638 212.18838 
L 328.372279 212.053783 
L 328.154444 211.823684 
L 327.865412 211.416998 
L 327.646096 210.971267 
L 327.475043 210.497128 
L 327.340696 210.003822 
L 327.251429 209.655134 
L 327.223001 209.54418 
L 327.395199 209.525744 
L 327.949885 209.466173 
L 328.003513 209.460443 
L 328.979461 209.355767 
L 329.17972 209.334039 
L 330.558864 209.179704 
L 330.673387 209.16697 
L 330.689772 209.170401 
L 330.704429 209.178666 
L 330.715869 209.190939 
L 330.723145 209.206074 
L 330.769928 209.40062 
L 330.793674 209.465403 
L 330.825246 209.526685 
L 330.864196 209.583556 
L 330.909889 209.635108 
L 330.961694 209.680556 
L 331.018675 209.719185 
L 331.080082 209.750398 
L 331.144802 209.773728 
L 331.211966 209.788766 
L 331.280467 209.795292 
L 331.349261 209.793267 
L 331.417243 209.782596 
L 331.483376 209.763547 
L 331.546687 209.736389 
L 331.606082 209.701578 
L 331.660652 209.659565 
L 331.679444 209.642412 
L 331.697418 209.624356 
L 331.714577 209.60552 
L 331.745372 209.566578 
L 331.772552 209.525077 
L 331.79594 209.481266 
L 331.815237 209.435522 
L 331.830453 209.388213 
L 331.841289 209.339716 
L 331.831169 209.246406 
L 331.806904 209.023496 
L 331.788431 208.849683 
L 332.69983 208.175788 
L 334.099023 208.023955 
L 334.659448 207.963219 
L 348.696724 206.440909 
L 349.249023 206.381064 
L 349.319161 206.026902 
L 349.915556 203.016344 
L 350.305134 201.757963 
L 349.535895 201.837202 
L 349.634481 201.520428 
L 350.423861 198.973497 
L 349.763605 198.281955 
L 349.514408 198.020667 
L 348.667133 197.13278 
L 348.536026 196.995065 
L 347.978341 196.410925 
L 347.274041 195.673328 
L 347.079165 194.442407 
L 346.658308 193.853201 
L 346.459218 193.574469 
L 346.264499 193.301906 
L 345.280435 191.899936 
L 344.837838 191.269441 
L 344.659434 190.626999 
L 344.151416 188.794798 
L 343.334387 185.850726 
L 343.112375 185.050601 
L 342.926494 184.379323 
L 342.680521 183.491801 
L 342.621148 183.277509 
L 342.598147 183.194454 
L 342.582002 183.134903 
L 342.556333 183.042506 
L 342.508807 182.871454 
L 342.437414 182.614574 
L 342.43401 182.602326 
" clip-path="url(#p4777434061)" style="fill: #1f77b4"/>
   </g>
   <g id="matplotlib.axis_1">
    <g id="xtick_1">
     <g id="line2d_1">
      <defs>
       <path id="mc32eca9284" d="M 0 0 
L 0 3.5 
" style="stroke: #000000; stroke-width: 0.8"/>
      </defs>
      <g>
       <use xlink:href="#mc32eca9284" x="116.918644" y="307.584" style="stroke: #000000; stroke-width: 0.8"/>
      </g>
     </g>
     <g id="text_1">
      <!-- 13.28 -->
      <g transform="translate(102.604582 322.182437) scale(0.1 -0.1)">
       <defs>
        <path id="DejaVuSans-31" d="M 794 531 
L 1825 531 
L 1825 4091 
L 703 3866 
L 703 4441 
L 1819 4666 
L 2450 4666 
L 2450 531 
L 3481 531 
L 3481 0 
L 794 0 
L 794 531 
z
" transform="scale(0.015625)"/>
        <path id="DejaVuSans-33" d="M 2597 2516 
Q 3050 2419 3304 2112 
Q 3559 1806 3559 1356 
Q 3559 666 3084 287 
Q 2609 -91 1734 -91 
Q 1441 -91 1130 -33 
Q 819 25 488 141 
L 488 750 
Q 750 597 1062 519 
Q 1375 441 1716 441 
Q 2309 441 2620 675 
Q 2931 909 2931 1356 
Q 2931 1769 2642 2001 
Q 2353 2234 1838 2234 
L 1294 2234 
L 1294 2753 
L 1863 2753 
Q 2328 2753 2575 2939 
Q 2822 3125 2822 3475 
Q 2822 3834 2567 4026 
Q 2313 4219 1838 4219 
Q 1578 4219 1281 4162 
Q 984 4106 628 3988 
L 628 4550 
Q 988 4650 1302 4700 
Q 1616 4750 1894 4750 
Q 2613 4750 3031 4423 
Q 3450 4097 3450 3541 
Q 3450 3153 3228 2886 
Q 3006 2619 2597 2516 
z
" transform="scale(0.015625)"/>
        <path id="DejaVuSans-2e" d="M 684 794 
L 1344 794 
L 1344 0 
L 684 0 
L 684 794 
z
" transform="scale(0.015625)"/>
        <path id="DejaVuSans-32" d="M 1228 531 
L 3431 531 
L 3431 0 
L 469 0 
L 469 531 
Q 828 903 1448 1529 
Q 2069 2156 2228 2338 
Q 2531 2678 2651 2914 
Q 2772 3150 2772 3378 
Q 2772 3750 2511 3984 
Q 2250 4219 1831 4219 
Q 1534 4219 1204 4116 
Q 875 4013 500 3803 
L 500 4441 
Q 881 4594 1212 4672 
Q 1544 4750 1819 4750 
Q 2544 4750 2975 4387 
Q 3406 4025 3406 3419 
Q 3406 3131 3298 2873 
Q 3191 2616 2906 2266 
Q 2828 2175 2409 1742 
Q 1991 1309 1228 531 
z
" transform="scale(0.015625)"/>
        <path id="DejaVuSans-38" d="M 2034 2216 
Q 1584 2216 1326 1975 
Q 1069 1734 1069 1313 
Q 1069 891 1326 650 
Q 1584 409 2034 409 
Q 2484 409 2743 651 
Q 3003 894 3003 1313 
Q 3003 1734 2745 1975 
Q 2488 2216 2034 2216 
z
M 1403 2484 
Q 997 2584 770 2862 
Q 544 3141 544 3541 
Q 544 4100 942 4425 
Q 1341 4750 2034 4750 
Q 2731 4750 3128 4425 
Q 3525 4100 3525 3541 
Q 3525 3141 3298 2862 
Q 3072 2584 2669 2484 
Q 3125 2378 3379 2068 
Q 3634 1759 3634 1313 
Q 3634 634 3220 271 
Q 2806 -91 2034 -91 
Q 1263 -91 848 271 
Q 434 634 434 1313 
Q 434 1759 690 2068 
Q 947 2378 1403 2484 
z
M 1172 3481 
Q 1172 3119 1398 2916 
Q 1625 2713 2034 2713 
Q 2441 2713 2670 2916 
Q 2900 3119 2900 3481 
Q 2900 3844 2670 4047 
Q 2441 4250 2034 4250 
Q 1625 4250 1398 4047 
Q 1172 3844 1172 3481 
z
" transform="scale(0.015625)"/>
       </defs>
       <use xlink:href="#DejaVuSans-31"/>
       <use xlink:href="#DejaVuSans-33" x="63.623047"/>
       <use xlink:href="#DejaVuSans-2e" x="127.246094"/>
       <use xlink:href="#DejaVuSans-32" x="159.033203"/>
       <use xlink:href="#DejaVuSans-38" x="222.65625"/>
      </g>
     </g>
    </g>
    <g id="xtick_2">
     <g id="line2d_2">
      <g>
       <use xlink:href="#mc32eca9284" x="158.514838" y="307.584" style="stroke: #000000; stroke-width: 0.8"/>
      </g>
     </g>
     <g id="text_2">
      <!-- 13.29 -->
      <g transform="translate(144.200775 322.182437) scale(0.1 -0.1)">
       <defs>
        <path id="DejaVuSans-39" d="M 703 97 
L 703 672 
Q 941 559 1184 500 
Q 1428 441 1663 441 
Q 2288 441 2617 861 
Q 2947 1281 2994 2138 
Q 2813 1869 2534 1725 
Q 2256 1581 1919 1581 
Q 1219 1581 811 2004 
Q 403 2428 403 3163 
Q 403 3881 828 4315 
Q 1253 4750 1959 4750 
Q 2769 4750 3195 4129 
Q 3622 3509 3622 2328 
Q 3622 1225 3098 567 
Q 2575 -91 1691 -91 
Q 1453 -91 1209 -44 
Q 966 3 703 97 
z
M 1959 2075 
Q 2384 2075 2632 2365 
Q 2881 2656 2881 3163 
Q 2881 3666 2632 3958 
Q 2384 4250 1959 4250 
Q 1534 4250 1286 3958 
Q 1038 3666 1038 3163 
Q 1038 2656 1286 2365 
Q 1534 2075 1959 2075 
z
" transform="scale(0.015625)"/>
       </defs>
       <use xlink:href="#DejaVuSans-31"/>
       <use xlink:href="#DejaVuSans-33" x="63.623047"/>
       <use xlink:href="#DejaVuSans-2e" x="127.246094"/>
       <use xlink:href="#DejaVuSans-32" x="159.033203"/>
       <use xlink:href="#DejaVuSans-39" x="222.65625"/>
      </g>
     </g>
    </g>
    <g id="xtick_3">
     <g id="line2d_3">
      <g>
       <use xlink:href="#mc32eca9284" x="200.111031" y="307.584" style="stroke: #000000; stroke-width: 0.8"/>
      </g>
     </g>
     <g id="text_3">
      <!-- 13.30 -->
      <g transform="translate(185.796969 322.182437) scale(0.1 -0.1)">
       <defs>
        <path id="DejaVuSans-30" d="M 2034 4250 
Q 1547 4250 1301 3770 
Q 1056 3291 1056 2328 
Q 1056 1369 1301 889 
Q 1547 409 2034 409 
Q 2525 409 2770 889 
Q 3016 1369 3016 2328 
Q 3016 3291 2770 3770 
Q 2525 4250 2034 4250 
z
M 2034 4750 
Q 2819 4750 3233 4129 
Q 3647 3509 3647 2328 
Q 3647 1150 3233 529 
Q 2819 -91 2034 -91 
Q 1250 -91 836 529 
Q 422 1150 422 2328 
Q 422 3509 836 4129 
Q 1250 4750 2034 4750 
z
" transform="scale(0.015625)"/>
       </defs>
       <use xlink:href="#DejaVuSans-31"/>
       <use xlink:href="#DejaVuSans-33" x="63.623047"/>
       <use xlink:href="#DejaVuSans-2e" x="127.246094"/>
       <use xlink:href="#DejaVuSans-33" x="159.033203"/>
       <use xlink:href="#DejaVuSans-30" x="222.65625"/>
      </g>
     </g>
    </g>
    <g id="xtick_4">
     <g id="line2d_4">
      <g>
       <use xlink:href="#mc32eca9284" x="241.707225" y="307.584" style="stroke: #000000; stroke-width: 0.8"/>
      </g>
     </g>
     <g id="text_4">
      <!-- 13.31 -->
      <g transform="translate(227.393162 322.182437) scale(0.1 -0.1)">
       <use xlink:href="#DejaVuSans-31"/>
       <use xlink:href="#DejaVuSans-33" x="63.623047"/>
       <use xlink:href="#DejaVuSans-2e" x="127.246094"/>
       <use xlink:href="#DejaVuSans-33" x="159.033203"/>
       <use xlink:href="#DejaVuSans-31" x="222.65625"/>
      </g>
     </g>
    </g>
    <g id="xtick_5">
     <g id="line2d_5">
      <g>
       <use xlink:href="#mc32eca9284" x="283.303418" y="307.584" style="stroke: #000000; stroke-width: 0.8"/>
      </g>
     </g>
     <g id="text_5">
      <!-- 13.32 -->
      <g transform="translate(268.989356 322.182437) scale(0.1 -0.1)">
       <use xlink:href="#DejaVuSans-31"/>
       <use xlink:href="#DejaVuSans-33" x="63.623047"/>
       <use xlink:href="#DejaVuSans-2e" x="127.246094"/>
       <use xlink:href="#DejaVuSans-33" x="159.033203"/>
       <use xlink:href="#DejaVuSans-32" x="222.65625"/>
      </g>
     </g>
    </g>
    <g id="xtick_6">
     <g id="line2d_6">
      <g>
       <use xlink:href="#mc32eca9284" x="324.899612" y="307.584" style="stroke: #000000; stroke-width: 0.8"/>
      </g>
     </g>
     <g id="text_6">
      <!-- 13.33 -->
      <g transform="translate(310.585549 322.182437) scale(0.1 -0.1)">
       <use xlink:href="#DejaVuSans-31"/>
       <use xlink:href="#DejaVuSans-33" x="63.623047"/>
       <use xlink:href="#DejaVuSans-2e" x="127.246094"/>
       <use xlink:href="#DejaVuSans-33" x="159.033203"/>
       <use xlink:href="#DejaVuSans-33" x="222.65625"/>
      </g>
     </g>
    </g>
   </g>
   <g id="matplotlib.axis_2">
    <g id="ytick_1">
     <g id="line2d_7">
      <defs>
       <path id="m696d0b2a5b" d="M 0 0 
L -3.5 0 
" style="stroke: #000000; stroke-width: 0.8"/>
      </defs>
      <g>
       <use xlink:href="#m696d0b2a5b" x="110.469753" y="297.250867" style="stroke: #000000; stroke-width: 0.8"/>
      </g>
     </g>
     <g id="text_7">
      <!-- 52.500 -->
      <g transform="translate(68.479128 301.050086) scale(0.1 -0.1)">
       <defs>
        <path id="DejaVuSans-35" d="M 691 4666 
L 3169 4666 
L 3169 4134 
L 1269 4134 
L 1269 2991 
Q 1406 3038 1543 3061 
Q 1681 3084 1819 3084 
Q 2600 3084 3056 2656 
Q 3513 2228 3513 1497 
Q 3513 744 3044 326 
Q 2575 -91 1722 -91 
Q 1428 -91 1123 -41 
Q 819 9 494 109 
L 494 744 
Q 775 591 1075 516 
Q 1375 441 1709 441 
Q 2250 441 2565 725 
Q 2881 1009 2881 1497 
Q 2881 1984 2565 2268 
Q 2250 2553 1709 2553 
Q 1456 2553 1204 2497 
Q 953 2441 691 2322 
L 691 4666 
z
" transform="scale(0.015625)"/>
       </defs>
       <use xlink:href="#DejaVuSans-35"/>
       <use xlink:href="#DejaVuSans-32" x="63.623047"/>
       <use xlink:href="#DejaVuSans-2e" x="127.246094"/>
       <use xlink:href="#DejaVuSans-35" x="159.033203"/>
       <use xlink:href="#DejaVuSans-30" x="222.65625"/>
       <use xlink:href="#DejaVuSans-30" x="286.279297"/>
      </g>
     </g>
    </g>
    <g id="ytick_2">
     <g id="line2d_8">
      <g>
       <use xlink:href="#m696d0b2a5b" x="110.469753" y="263.072298" style="stroke: #000000; stroke-width: 0.8"/>
      </g>
     </g>
     <g id="text_8">
      <!-- 52.505 -->
      <g transform="translate(68.479128 266.871517) scale(0.1 -0.1)">
       <use xlink:href="#DejaVuSans-35"/>
       <use xlink:href="#DejaVuSans-32" x="63.623047"/>
       <use xlink:href="#DejaVuSans-2e" x="127.246094"/>
       <use xlink:href="#DejaVuSans-35" x="159.033203"/>
       <use xlink:href="#DejaVuSans-30" x="222.65625"/>
       <use xlink:href="#DejaVuSans-35" x="286.279297"/>
      </g>
     </g>
    </g>
    <g id="ytick_3">
     <g id="line2d_9">
      <g>
       <use xlink:href="#m696d0b2a5b" x="110.469753" y="228.89373" style="stroke: #000000; stroke-width: 0.8"/>
      </g>
     </g>
     <g id="text_9">
      <!-- 52.510 -->
      <g transform="translate(68.479128 232.692948) scale(0.1 -0.1)">
       <use xlink:href="#DejaVuSans-35"/>
       <use xlink:href="#DejaVuSans-32" x="63.623047"/>
       <use xlink:href="#DejaVuSans-2e" x="127.246094"/>
       <use xlink:href="#DejaVuSans-35" x="159.033203"/>
       <use xlink:href="#DejaVuSans-31" x="222.65625"/>
       <use xlink:href="#DejaVuSans-30" x="286.279297"/>
      </g>
     </g>
    </g>
    <g id="ytick_4">
     <g id="line2d_10">
      <g>
       <use xlink:href="#m696d0b2a5b" x="110.469753" y="194.715161" style="stroke: #000000; stroke-width: 0.8"/>
      </g>
     </g>
     <g id="text_10">
      <!-- 52.515 -->
      <g transform="translate(68.479128 198.51438) scale(0.1 -0.1)">
       <use xlink:href="#DejaVuSans-35"/>
       <use xlink:href="#DejaVuSans-32" x="63.623047"/>
       <use xlink:href="#DejaVuSans-2e" x="127.246094"/>
       <use xlink:href="#DejaVuSans-35" x="159.033203"/>
       <use xlink:href="#DejaVuSans-31" x="222.65625"/>
       <use xlink:href="#DejaVuSans-35" x="286.279297"/>
      </g>
     </g>
    </g>
    <g id="ytick_5">
     <g id="line2d_11">
      <g>
       <use xlink:href="#m696d0b2a5b" x="110.469753" y="160.536593" style="stroke: #000000; stroke-width: 0.8"/>
      </g>
     </g>
     <g id="text_11">
      <!-- 52.520 -->
      <g transform="translate(68.479128 164.335811) scale(0.1 -0.1)">
       <use xlink:href="#DejaVuSans-35"/>
       <use xlink:href="#DejaVuSans-32" x="63.623047"/>
       <use xlink:href="#DejaVuSans-2e" x="127.246094"/>
       <use xlink:href="#DejaVuSans-35" x="159.033203"/>
       <use xlink:href="#DejaVuSans-32" x="222.65625"/>
       <use xlink:href="#DejaVuSans-30" x="286.279297"/>
      </g>
     </g>
    </g>
    <g id="ytick_6">
     <g id="line2d_12">
      <g>
       <use xlink:href="#m696d0b2a5b" x="110.469753" y="126.358024" style="stroke: #000000; stroke-width: 0.8"/>
      </g>
     </g>
     <g id="text_12">
      <!-- 52.525 -->
      <g transform="translate(68.479128 130.157243) scale(0.1 -0.1)">
       <use xlink:href="#DejaVuSans-35"/>
       <use xlink:href="#DejaVuSans-32" x="63.623047"/>
       <use xlink:href="#DejaVuSans-2e" x="127.246094"/>
       <use xlink:href="#DejaVuSans-35" x="159.033203"/>
       <use xlink:href="#DejaVuSans-32" x="222.65625"/>
       <use xlink:href="#DejaVuSans-35" x="286.279297"/>
      </g>
     </g>
    </g>
    <g id="ytick_7">
     <g id="line2d_13">
      <g>
       <use xlink:href="#m696d0b2a5b" x="110.469753" y="92.179455" style="stroke: #000000; stroke-width: 0.8"/>
      </g>
     </g>
     <g id="text_13">
      <!-- 52.530 -->
      <g transform="translate(68.479128 95.978674) scale(0.1 -0.1)">
       <use xlink:href="#DejaVuSans-35"/>
       <use xlink:href="#DejaVuSans-32" x="63.623047"/>
       <use xlink:href="#DejaVuSans-2e" x="127.246094"/>
       <use xlink:href="#DejaVuSans-35" x="159.033203"/>
       <use xlink:href="#DejaVuSans-33" x="222.65625"/>
       <use xlink:href="#DejaVuSans-30" x="286.279297"/>
      </g>
     </g>
    </g>
    <g id="ytick_8">
     <g id="line2d_14">
      <g>
       <use xlink:href="#m696d0b2a5b" x="110.469753" y="58.000887" style="stroke: #000000; stroke-width: 0.8"/>
      </g>
     </g>
     <g id="text_14">
      <!-- 52.535 -->
      <g transform="translate(68.479128 61.800106) scale(0.1 -0.1)">
       <use xlink:href="#DejaVuSans-35"/>
       <use xlink:href="#DejaVuSans-32" x="63.623047"/>
       <use xlink:href="#DejaVuSans-2e" x="127.246094"/>
       <use xlink:href="#DejaVuSans-35" x="159.033203"/>
       <use xlink:href="#DejaVuSans-33" x="222.65625"/>
       <use xlink:href="#DejaVuSans-35" x="286.279297"/>
      </g>
     </g>
    </g>
   </g>
   <g id="patch_3">
    <path d="M 110.469753 307.584 
L 110.469753 41.472 
" style="fill: none; stroke: #000000; stroke-width: 0.8; stroke-linejoin: miter; stroke-linecap: square"/>
   </g>
   <g id="patch_4">
    <path d="M 361.850247 307.584 
L 361.850247 41.472 
" style="fill: none; stroke: #000000; stroke-width: 0.8; stroke-linejoin: miter; stroke-linecap: square"/>
   </g>
   <g id="patch_5">
    <path d="M 110.469753 307.584 
L 361.850247 307.584 
" style="fill: none; stroke: #000000; stroke-width: 0.8; stroke-linejoin: miter; stroke-linecap: square"/>
   </g>
   <g id="patch_6">
    <path d="M 110.469753 41.472 
L 361.850247 41.472 
" style="fill: none; stroke: #000000; stroke-width: 0.8; stroke-linejoin: miter; stroke-linecap: square"/>
   </g>
   <g id="text_15">
    <!-- Charlottenburg_Zentrum -->
    <g transform="translate(147.684326 183.994111) scale(0.12 -0.12)">
     <defs>
      <path id="DejaVuSans-43" d="M 4122 4306 
L 4122 3641 
Q 3803 3938 3442 4084 
Q 3081 4231 2675 4231 
Q 1875 4231 1450 3742 
Q 1025 3253 1025 2328 
Q 1025 1406 1450 917 
Q 1875 428 2675 428 
Q 3081 428 3442 575 
Q 3803 722 4122 1019 
L 4122 359 
Q 3791 134 3420 21 
Q 3050 -91 2638 -91 
Q 1578 -91 968 557 
Q 359 1206 359 2328 
Q 359 3453 968 4101 
Q 1578 4750 2638 4750 
Q 3056 4750 3426 4639 
Q 3797 4528 4122 4306 
z
" transform="scale(0.015625)"/>
      <path id="DejaVuSans-68" d="M 3513 2113 
L 3513 0 
L 2938 0 
L 2938 2094 
Q 2938 2591 2744 2837 
Q 2550 3084 2163 3084 
Q 1697 3084 1428 2787 
Q 1159 2491 1159 1978 
L 1159 0 
L 581 0 
L 581 4863 
L 1159 4863 
L 1159 2956 
Q 1366 3272 1645 3428 
Q 1925 3584 2291 3584 
Q 2894 3584 3203 3211 
Q 3513 2838 3513 2113 
z
" transform="scale(0.015625)"/>
      <path id="DejaVuSans-61" d="M 2194 1759 
Q 1497 1759 1228 1600 
Q 959 1441 959 1056 
Q 959 750 1161 570 
Q 1363 391 1709 391 
Q 2188 391 2477 730 
Q 2766 1069 2766 1631 
L 2766 1759 
L 2194 1759 
z
M 3341 1997 
L 3341 0 
L 2766 0 
L 2766 531 
Q 2569 213 2275 61 
Q 1981 -91 1556 -91 
Q 1019 -91 701 211 
Q 384 513 384 1019 
Q 384 1609 779 1909 
Q 1175 2209 1959 2209 
L 2766 2209 
L 2766 2266 
Q 2766 2663 2505 2880 
Q 2244 3097 1772 3097 
Q 1472 3097 1187 3025 
Q 903 2953 641 2809 
L 641 3341 
Q 956 3463 1253 3523 
Q 1550 3584 1831 3584 
Q 2591 3584 2966 3190 
Q 3341 2797 3341 1997 
z
" transform="scale(0.015625)"/>
      <path id="DejaVuSans-72" d="M 2631 2963 
Q 2534 3019 2420 3045 
Q 2306 3072 2169 3072 
Q 1681 3072 1420 2755 
Q 1159 2438 1159 1844 
L 1159 0 
L 581 0 
L 581 3500 
L 1159 3500 
L 1159 2956 
Q 1341 3275 1631 3429 
Q 1922 3584 2338 3584 
Q 2397 3584 2469 3576 
Q 2541 3569 2628 3553 
L 2631 2963 
z
" transform="scale(0.015625)"/>
      <path id="DejaVuSans-6c" d="M 603 4863 
L 1178 4863 
L 1178 0 
L 603 0 
L 603 4863 
z
" transform="scale(0.015625)"/>
      <path id="DejaVuSans-6f" d="M 1959 3097 
Q 1497 3097 1228 2736 
Q 959 2375 959 1747 
Q 959 1119 1226 758 
Q 1494 397 1959 397 
Q 2419 397 2687 759 
Q 2956 1122 2956 1747 
Q 2956 2369 2687 2733 
Q 2419 3097 1959 3097 
z
M 1959 3584 
Q 2709 3584 3137 3096 
Q 3566 2609 3566 1747 
Q 3566 888 3137 398 
Q 2709 -91 1959 -91 
Q 1206 -91 779 398 
Q 353 888 353 1747 
Q 353 2609 779 3096 
Q 1206 3584 1959 3584 
z
" transform="scale(0.015625)"/>
      <path id="DejaVuSans-74" d="M 1172 4494 
L 1172 3500 
L 2356 3500 
L 2356 3053 
L 1172 3053 
L 1172 1153 
Q 1172 725 1289 603 
Q 1406 481 1766 481 
L 2356 481 
L 2356 0 
L 1766 0 
Q 1100 0 847 248 
Q 594 497 594 1153 
L 594 3053 
L 172 3053 
L 172 3500 
L 594 3500 
L 594 4494 
L 1172 4494 
z
" transform="scale(0.015625)"/>
      <path id="DejaVuSans-65" d="M 3597 1894 
L 3597 1613 
L 953 1613 
Q 991 1019 1311 708 
Q 1631 397 2203 397 
Q 2534 397 2845 478 
Q 3156 559 3463 722 
L 3463 178 
Q 3153 47 2828 -22 
Q 2503 -91 2169 -91 
Q 1331 -91 842 396 
Q 353 884 353 1716 
Q 353 2575 817 3079 
Q 1281 3584 2069 3584 
Q 2775 3584 3186 3129 
Q 3597 2675 3597 1894 
z
M 3022 2063 
Q 3016 2534 2758 2815 
Q 2500 3097 2075 3097 
Q 1594 3097 1305 2825 
Q 1016 2553 972 2059 
L 3022 2063 
z
" transform="scale(0.015625)"/>
      <path id="DejaVuSans-6e" d="M 3513 2113 
L 3513 0 
L 2938 0 
L 2938 2094 
Q 2938 2591 2744 2837 
Q 2550 3084 2163 3084 
Q 1697 3084 1428 2787 
Q 1159 2491 1159 1978 
L 1159 0 
L 581 0 
L 581 3500 
L 1159 3500 
L 1159 2956 
Q 1366 3272 1645 3428 
Q 1925 3584 2291 3584 
Q 2894 3584 3203 3211 
Q 3513 2838 3513 2113 
z
" transform="scale(0.015625)"/>
      <path id="DejaVuSans-62" d="M 3116 1747 
Q 3116 2381 2855 2742 
Q 2594 3103 2138 3103 
Q 1681 3103 1420 2742 
Q 1159 2381 1159 1747 
Q 1159 1113 1420 752 
Q 1681 391 2138 391 
Q 2594 391 2855 752 
Q 3116 1113 3116 1747 
z
M 1159 2969 
Q 1341 3281 1617 3432 
Q 1894 3584 2278 3584 
Q 2916 3584 3314 3078 
Q 3713 2572 3713 1747 
Q 3713 922 3314 415 
Q 2916 -91 2278 -91 
Q 1894 -91 1617 61 
Q 1341 213 1159 525 
L 1159 0 
L 581 0 
L 581 4863 
L 1159 4863 
L 1159 2969 
z
" transform="scale(0.015625)"/>
      <path id="DejaVuSans-75" d="M 544 1381 
L 544 3500 
L 1119 3500 
L 1119 1403 
Q 1119 906 1312 657 
Q 1506 409 1894 409 
Q 2359 409 2629 706 
Q 2900 1003 2900 1516 
L 2900 3500 
L 3475 3500 
L 3475 0 
L 2900 0 
L 2900 538 
Q 2691 219 2414 64 
Q 2138 -91 1772 -91 
Q 1169 -91 856 284 
Q 544 659 544 1381 
z
M 1991 3584 
L 1991 3584 
z
" transform="scale(0.015625)"/>
      <path id="DejaVuSans-67" d="M 2906 1791 
Q 2906 2416 2648 2759 
Q 2391 3103 1925 3103 
Q 1463 3103 1205 2759 
Q 947 2416 947 1791 
Q 947 1169 1205 825 
Q 1463 481 1925 481 
Q 2391 481 2648 825 
Q 2906 1169 2906 1791 
z
M 3481 434 
Q 3481 -459 3084 -895 
Q 2688 -1331 1869 -1331 
Q 1566 -1331 1297 -1286 
Q 1028 -1241 775 -1147 
L 775 -588 
Q 1028 -725 1275 -790 
Q 1522 -856 1778 -856 
Q 2344 -856 2625 -561 
Q 2906 -266 2906 331 
L 2906 616 
Q 2728 306 2450 153 
Q 2172 0 1784 0 
Q 1141 0 747 490 
Q 353 981 353 1791 
Q 353 2603 747 3093 
Q 1141 3584 1784 3584 
Q 2172 3584 2450 3431 
Q 2728 3278 2906 2969 
L 2906 3500 
L 3481 3500 
L 3481 434 
z
" transform="scale(0.015625)"/>
      <path id="DejaVuSans-5f" d="M 3263 -1063 
L 3263 -1509 
L -63 -1509 
L -63 -1063 
L 3263 -1063 
z
" transform="scale(0.015625)"/>
      <path id="DejaVuSans-5a" d="M 359 4666 
L 4025 4666 
L 4025 4184 
L 1075 531 
L 4097 531 
L 4097 0 
L 288 0 
L 288 481 
L 3238 4134 
L 359 4134 
L 359 4666 
z
" transform="scale(0.015625)"/>
      <path id="DejaVuSans-6d" d="M 3328 2828 
Q 3544 3216 3844 3400 
Q 4144 3584 4550 3584 
Q 5097 3584 5394 3201 
Q 5691 2819 5691 2113 
L 5691 0 
L 5113 0 
L 5113 2094 
Q 5113 2597 4934 2840 
Q 4756 3084 4391 3084 
Q 3944 3084 3684 2787 
Q 3425 2491 3425 1978 
L 3425 0 
L 2847 0 
L 2847 2094 
Q 2847 2600 2669 2842 
Q 2491 3084 2119 3084 
Q 1678 3084 1418 2786 
Q 1159 2488 1159 1978 
L 1159 0 
L 581 0 
L 581 3500 
L 1159 3500 
L 1159 2956 
Q 1356 3278 1631 3431 
Q 1906 3584 2284 3584 
Q 2666 3584 2933 3390 
Q 3200 3197 3328 2828 
z
" transform="scale(0.015625)"/>
     </defs>
     <use xlink:href="#DejaVuSans-43"/>
     <use xlink:href="#DejaVuSans-68" x="69.824219"/>
     <use xlink:href="#DejaVuSans-61" x="133.203125"/>
     <use xlink:href="#DejaVuSans-72" x="194.482422"/>
     <use xlink:href="#DejaVuSans-6c" x="235.595703"/>
     <use xlink:href="#DejaVuSans-6f" x="263.378906"/>
     <use xlink:href="#DejaVuSans-74" x="324.560547"/>
     <use xlink:href="#DejaVuSans-74" x="363.769531"/>
     <use xlink:href="#DejaVuSans-65" x="402.978516"/>
     <use xlink:href="#DejaVuSans-6e" x="464.501953"/>
     <use xlink:href="#DejaVuSans-62" x="527.880859"/>
     <use xlink:href="#DejaVuSans-75" x="591.357422"/>
     <use xlink:href="#DejaVuSans-72" x="654.736328"/>
     <use xlink:href="#DejaVuSans-67" x="694.099609"/>
     <use xlink:href="#DejaVuSans-5f" x="757.576172"/>
     <use xlink:href="#DejaVuSans-5a" x="807.576172"/>
     <use xlink:href="#DejaVuSans-65" x="876.082031"/>
     <use xlink:href="#DejaVuSans-6e" x="937.605469"/>
     <use xlink:href="#DejaVuSans-74" x="1000.984375"/>
     <use xlink:href="#DejaVuSans-72" x="1040.193359"/>
     <use xlink:href="#DejaVuSans-75" x="1081.306641"/>
     <use xlink:href="#DejaVuSans-6d" x="1144.685547"/>
    </g>
   </g>
  </g>
 </g>
 <defs>
  <clipPath id="p4777434061">
   <rect x="110.469753" y="41.472" width="251.380494" height="266.112"/>
  </clipPath>
 </defs>
</svg>
