<?xml version="1.0" encoding="utf-8" standalone="no"?>
<!DOCTYPE svg PUBLIC "-//W3C//DTD SVG 1.1//EN"
  "http://www.w3.org/Graphics/SVG/1.1/DTD/svg11.dtd">
<svg xmlns:xlink="http://www.w3.org/1999/xlink" width="460.8pt" height="345.6pt" viewBox="0 0 460.8 345.6" xmlns="http://www.w3.org/2000/svg" version="1.1">
 <metadata>
  <rdf:RDF xmlns:dc="http://purl.org/dc/elements/1.1/" xmlns:cc="http://creativecommons.org/ns#" xmlns:rdf="http://www.w3.org/1999/02/22-rdf-syntax-ns#">
   <cc:Work>
    <dc:type rdf:resource="http://purl.org/dc/dcmitype/StillImage"/>
    <dc:date>2024-10-15T09:53:30.954886</dc:date>
    <dc:format>image/svg+xml</dc:format>
    <dc:creator>
     <cc:Agent>
      <dc:title>Matplotlib v3.8.4, https://matplotlib.org/</dc:title>
     </cc:Agent>
    </dc:creator>
   </cc:Work>
  </rdf:RDF>
 </metadata>
 <defs>
  <style type="text/css">*{stroke-linejoin: round; stroke-linecap: butt}</style>
 </defs>
 <g id="figure_1">
  <g id="patch_1">
   <path d="M 0 345.6 
L 460.8 345.6 
L 460.8 0 
L 0 0 
z
" style="fill: #ffffff"/>
  </g>
  <g id="axes_1">
   <g id="patch_2">
    <path d="M 90.48966 307.584 
L 381.83034 307.584 
L 381.83034 41.472 
L 90.48966 41.472 
z
" style="fill: #ffffff"/>
   </g>
   <g id="PatchCollection_1">
    <path d="M 104.908537 137.660326 
L 104.863442 139.395943 
L 104.817663 141.15223 
L 104.759803 143.409121 
L 104.696518 145.852959 
L 105.187051 145.865899 
L 105.175976 146.184196 
L 105.105035 146.182736 
L 105.095934 146.54022 
L 105.166876 146.541679 
L 105.153997 147.057603 
L 105.082964 147.056057 
L 105.072998 147.41445 
L 105.143939 147.41591 
L 105.132547 147.865878 
L 105.52991 148.281141 
L 105.487983 148.321529 
L 105.350564 148.453638 
L 105.332958 148.486609 
L 105.297315 148.660115 
L 105.30459 148.698288 
L 105.37272 148.861635 
L 105.475246 148.992777 
L 105.806666 149.33903 
L 107.00953 150.598271 
L 106.977038 151.933013 
L 105.730643 153.13521 
L 105.38959 153.463868 
L 105.367043 153.490371 
L 105.350001 153.520837 
L 105.339234 153.554004 
L 105.335156 153.588617 
L 105.337909 153.623159 
L 105.347381 153.656566 
L 105.363095 153.687425 
L 105.384494 153.714682 
L 105.413856 153.744778 
L 105.201845 153.947484 
L 105.363066 154.118446 
L 105.321579 154.158646 
L 105.375055 154.214424 
L 104.953649 154.621642 
L 104.938988 155.190806 
L 104.85232 155.188468 
L 104.84159 155.59047 
L 104.678542 155.589379 
L 104.663793 156.017007 
L 104.607688 156.134767 
L 104.558218 156.255485 
L 104.515643 156.3788 
L 104.480039 156.504266 
L 104.450871 156.631717 
L 104.428924 156.760601 
L 104.41419 156.890562 
L 104.406837 157.021152 
L 104.402217 157.18922 
L 104.340423 159.567103 
L 104.292454 161.435445 
L 104.213932 164.461628 
L 104.186599 165.528742 
L 104.108862 168.550459 
L 104.059351 170.46323 
L 104.010477 172.330703 
L 103.962516 174.195487 
L 103.893963 176.863278 
L 103.821498 179.649301 
L 103.778239 181.338009 
L 103.732418 183.099903 
L 105.538471 183.151826 
L 108.427561 183.23376 
L 109.819318 183.271427 
L 110.797371 183.852332 
L 112.213755 184.676836 
L 113.627458 185.508434 
L 115.235891 186.453021 
L 116.841615 187.395897 
L 119.027962 188.684489 
L 120.17585 189.358074 
L 122.495499 190.713504 
L 124.098557 191.653711 
L 125.704313 192.607295 
L 127.311794 193.559065 
L 129.629799 194.918219 
L 130.781928 195.588619 
L 137.13349 199.324147 
L 142.63951 202.561738 
L 149.50025 206.587734 
L 149.576713 206.632753 
L 151.273065 207.629609 
L 153.046575 209.293853 
L 153.312746 208.842955 
L 153.420851 208.659676 
L 153.989829 207.695738 
L 155.208604 205.629076 
L 155.214083 205.619785 
L 156.374579 203.652781 
L 156.525485 203.397696 
L 157.745355 201.33066 
L 158.182571 200.589341 
L 158.298876 200.392084 
L 159.063838 199.095159 
L 160.28458 197.02642 
L 160.720429 196.906357 
L 161.604079 197.411278 
L 161.602366 197.413987 
L 162.109028 197.701775 
L 162.282471 197.392526 
L 163.786989 198.243354 
L 165.299594 199.098805 
L 167.737161 200.47763 
L 167.905916 201.192799 
L 169.183506 199.29829 
L 170.212251 197.775361 
L 172.619 194.212381 
L 176.210546 193.451684 
L 177.650526 193.146038 
L 179.03825 192.852281 
L 180.428619 192.557666 
L 181.8188 192.266441 
L 183.470604 191.914634 
L 185.610842 191.459816 
L 186.825773 191.203175 
L 187.237815 191.11616 
L 188.853278 190.773488 
L 192.237527 190.056327 
L 193.236529 190.808985 
L 193.494215 190.469156 
L 194.368506 189.317712 
L 196.34837 186.745358 
L 197.338311 185.459229 
L 198.323874 184.179252 
L 199.41448 182.762875 
L 200.243647 181.449775 
L 201.754293 179.065139 
L 201.8002 178.992999 
L 201.931462 178.785177 
L 203.603216 179.85522 
L 204.868695 180.665449 
L 205.258037 180.914718 
L 205.434945 181.025128 
L 205.407545 181.060812 
L 205.492088 181.117664 
L 205.765003 181.301209 
L 205.849393 181.359132 
L 206.120233 181.545038 
L 206.454477 181.7793 
L 206.473056 181.792304 
L 206.715027 181.965355 
L 206.823471 182.042917 
L 207.18466 182.306716 
L 207.215537 182.329756 
L 207.54318 182.574134 
L 207.89903 182.845084 
L 207.992127 182.915084 
L 208.085858 182.985691 
L 208.108074 183.002526 
L 208.631332 183.437929 
L 208.871499 183.652301 
L 209.106643 183.872126 
L 209.336766 184.097405 
L 209.561682 184.327787 
L 209.757355 184.53678 
L 209.948683 184.749788 
L 210.135573 184.966635 
L 210.318113 185.18723 
L 210.585916 185.399542 
L 210.945361 185.664896 
L 211.034268 185.730278 
L 211.76447 186.448524 
L 215.23722 189.024737 
L 216.990557 187.167351 
L 217.088438 188.370527 
L 217.225517 190.056218 
L 217.360111 191.738052 
L 217.494148 193.41118 
L 217.630174 195.097518 
L 217.767604 196.779376 
L 217.792049 197.113932 
L 218.279276 197.600618 
L 218.331317 197.656621 
L 218.567903 197.89341 
L 219.863546 199.190587 
L 220.774499 200.103098 
L 220.915798 200.244639 
L 221.078912 200.408039 
L 221.119326 200.448475 
L 222.400192 201.732656 
L 224.348666 203.685663 
L 224.607699 203.945869 
L 225.488158 204.830415 
L 226.16931 205.513252 
L 226.868862 206.217259 
L 228.206672 207.563599 
L 228.422383 207.780502 
L 230.4613 209.829934 
L 231.839457 211.215187 
L 233.691548 213.074198 
L 235.466813 214.853229 
L 235.680866 215.067772 
L 235.721553 215.108647 
L 236.662972 216.053375 
L 237.300693 216.693281 
L 238.590665 217.987975 
L 239.406021 218.806347 
L 241.659053 221.108895 
L 243.135283 222.66131 
L 243.988091 223.666984 
L 245.603792 225.57267 
L 247.576022 227.898696 
L 249.070685 229.661637 
L 251.075068 232.025727 
L 252.10894 233.245212 
L 253.528128 234.508761 
L 254.26171 235.161899 
L 271.017584 258.8977 
L 271.469652 259.540668 
L 271.531357 259.624212 
L 270.918857 260.609989 
L 269.952003 262.163552 
L 270.148847 262.329489 
L 270.351126 262.488628 
L 270.558746 262.640795 
L 270.771436 262.785728 
L 270.988927 262.923346 
L 271.135824 263.011697 
L 271.284685 263.096622 
L 271.435421 263.178213 
L 271.58794 263.256293 
L 271.689686 263.306091 
L 271.792105 263.354273 
L 271.895288 263.400925 
L 271.976633 263.435356 
L 272.05831 263.468801 
L 272.14041 263.501346 
L 272.382094 263.591082 
L 272.626779 263.672387 
L 272.874025 263.74536 
L 273.123647 263.809738 
L 273.375292 263.86553 
L 273.499419 263.89302 
L 273.623939 263.918277 
L 273.748944 263.941477 
L 273.836634 263.95459 
L 273.924479 263.966721 
L 274.012477 263.97778 
L 274.225136 264.000839 
L 274.438364 264.017746 
L 274.651989 264.028684 
L 275.001823 264.383005 
L 278.900968 264.38749 
L 279.021878 272.794992 
L 279.098019 278.086121 
L 279.109455 278.930462 
L 279.117787 279.774875 
L 279.122837 280.619274 
L 279.124808 281.460986 
L 279.123587 282.302771 
L 279.11917 283.144451 
L 279.110374 284.078129 
L 282.487192 284.138918 
L 290.04954 285.615276 
L 290.264543 284.568789 
L 293.448164 284.167214 
L 296.664797 282.89228 
L 299.591289 281.100109 
L 302.430597 280.626942 
L 304.564264 281.610303 
L 306.865856 284.810589 
L 307.891151 288.39803 
L 308.633639 290.374522 
L 309.22672 291.749576 
L 309.893721 292.981226 
L 309.984015 295.288256 
L 311.154323 295.263835 
L 314.556385 295.198059 
L 314.96843 295.192565 
L 315.041333 295.191612 
L 316.391881 295.173765 
L 317.875685 295.281163 
L 320.689897 295.488 
L 320.297656 293.989405 
L 319.602065 288.64729 
L 319.650694 287.873903 
L 319.667319 287.097599 
L 319.652758 286.319249 
L 319.554729 284.720708 
L 319.456799 283.595619 
L 319.415978 283.126121 
L 319.235646 281.536665 
L 319.066822 280.329214 
L 319.039498 280.133855 
L 319.19795 279.422548 
L 319.648526 279.024521 
L 320.20459 278.908417 
L 320.74462 279.045282 
L 320.698303 277.575178 
L 320.148446 277.435424 
L 319.696475 277.257851 
L 319.686032 276.653149 
L 319.584932 270.772327 
L 319.630007 265.976616 
L 319.640088 264.900305 
L 319.640267 264.880818 
L 319.644699 264.407707 
L 319.669825 261.48483 
L 319.676877 260.763634 
L 319.696539 259.108764 
L 319.841499 255.222988 
L 320.111493 252.928909 
L 320.143114 252.660768 
L 320.78367 249.434544 
L 320.926677 248.714516 
L 321.04264 248.221958 
L 321.622102 245.759175 
L 320.758598 245.50372 
L 321.004974 244.666573 
L 321.047484 244.522374 
L 321.524087 242.902627 
L 321.586282 242.691436 
L 321.617913 242.58396 
L 321.649045 242.477919 
L 322.321244 242.513646 
L 322.31884 242.524999 
L 323.038071 242.545421 
L 323.478332 241.216164 
L 324.32288 238.927041 
L 324.737542 237.884826 
L 325.755431 235.370771 
L 326.587041 233.359063 
L 327.50465 231.195407 
L 329.260486 227.114733 
L 330.13107 224.942191 
L 330.889252 222.977448 
L 332.484592 218.832124 
L 334.060914 214.680301 
L 335.563602 210.500359 
L 337.033716 206.310935 
L 338.515506 202.122585 
L 339.325652 199.881444 
L 340.026445 197.942829 
L 342.229742 191.664011 
L 342.428543 191.097425 
L 345.702439 181.774007 
L 348.269085 174.31453 
L 350.131803 168.609924 
L 352.849559 159.947037 
L 355.583445 151.349099 
L 356.415357 148.996547 
L 357.996048 144.526683 
L 360.350071 138.250057 
L 362.695345 132.015278 
L 365.046829 125.785353 
L 367.502711 119.03932 
L 366.983979 118.753435 
L 366.842703 118.675599 
L 366.429478 118.447813 
L 366.288561 118.370147 
L 366.122031 118.278385 
L 366.108445 118.305559 
L 366.075061 118.285323 
L 366.845927 116.851016 
L 366.772499 115.479297 
L 366.718093 114.638957 
L 367.807016 113.674173 
L 367.894501 113.596694 
L 368.039593 113.468106 
L 368.076747 113.435236 
L 368.291021 112.825294 
L 368.386123 112.554614 
L 368.468061 112.321398 
L 368.55903 112.06248 
L 368.587582 111.981216 
L 368.168031 111.717275 
L 367.081335 111.057038 
L 366.162689 110.528386 
L 365.563906 110.196014 
L 365.308284 110.054055 
L 364.776138 109.768122 
L 364.519075 109.307269 
L 363.849388 108.830258 
L 362.832253 108.436581 
L 357.238353 106.272414 
L 353.665853 105.00605 
L 353.622697 104.997246 
L 353.580184 104.985491 
L 353.538581 104.97078 
L 353.498157 104.953284 
L 353.458912 104.933004 
L 352.836653 104.587662 
L 352.645326 104.479032 
L 352.45536 104.367791 
L 352.267023 104.254023 
L 352.080224 104.13764 
L 351.895054 104.018728 
L 351.711513 103.897289 
L 351.529601 103.773322 
L 351.349408 103.646914 
L 351.170936 103.518066 
L 350.994272 103.386774 
L 350.819416 103.253039 
L 350.646373 103.117038 
L 349.667897 102.338733 
L 346.561803 99.867954 
L 346.555507 100.087654 
L 344.82613 98.711165 
L 343.745627 97.851152 
L 343.137064 97.36682 
L 342.247668 96.658829 
L 341.156984 95.790844 
L 337.17348 92.648524 
L 336.895312 92.429076 
L 335.789783 91.557083 
L 334.256465 90.318266 
L 333.118787 89.398973 
L 330.873247 87.599839 
L 330.1865 86.800427 
L 329.932056 86.504202 
L 329.743472 86.286275 
L 329.037552 85.440064 
L 328.064717 84.346665 
L 327.163533 83.305368 
L 326.283555 82.28743 
L 325.806835 81.736153 
L 323.827192 79.446507 
L 321.977151 77.32641 
L 321.655092 76.957272 
L 320.50123 75.625155 
L 320.403776 75.511996 
L 319.802725 74.817754 
L 319.549227 74.524717 
L 318.235964 73.006569 
L 317.380033 72.01711 
L 311.231944 64.919032 
L 311.009236 64.661148 
L 309.311171 62.629263 
L 309.223238 62.513487 
L 308.225046 61.22295 
L 307.80325 60.691832 
L 307.70553 60.567785 
L 307.291251 60.043836 
L 306.88334 59.511113 
L 306.034498 58.402832 
L 305.372269 57.538134 
L 303.916425 55.66398 
L 303.784139 55.510609 
L 303.736375 55.49462 
L 303.689438 55.475943 
L 303.643771 55.454569 
L 303.599289 55.430676 
L 303.556261 55.404348 
L 303.514775 55.375583 
L 303.439163 55.321622 
L 303.273451 55.20113 
L 303.206392 55.152488 
L 302.886161 54.9197 
L 302.815668 54.868379 
L 302.53569 54.664829 
L 302.471068 54.617911 
L 302.191271 54.414536 
L 302.125834 54.366925 
L 301.851814 54.167776 
L 301.336895 53.793454 
L 301.026681 53.568 
L 298.995056 55.611811 
L 298.666104 56.072236 
L 298.677842 56.080953 
L 298.669003 56.094321 
L 298.687514 56.108132 
L 298.544651 56.301242 
L 298.528248 56.290319 
L 298.518058 56.302829 
L 298.50651 56.294642 
L 298.304551 56.574417 
L 297.799949 57.140631 
L 297.451966 57.556477 
L 297.072632 58.006668 
L 296.904876 58.182378 
L 296.421326 58.768573 
L 295.811505 59.021205 
L 294.944263 59.386479 
L 294.392417 59.616168 
L 293.875464 59.838477 
L 292.805172 60.298875 
L 292.273476 60.520722 
L 291.781169 60.726012 
L 290.795057 61.148726 
L 290.299279 61.353563 
L 289.809353 61.554174 
L 288.856364 61.950069 
L 288.331093 62.165458 
L 287.616641 62.441935 
L 286.537441 62.869192 
L 286.042936 63.063507 
L 285.427138 63.306504 
L 284.998189 63.475656 
L 284.642784 63.615813 
L 284.392682 63.714504 
L 283.891033 63.902936 
L 282.797111 64.310968 
L 281.914388 64.634811 
L 281.364592 64.83707 
L 280.242022 65.249768 
L 279.725585 65.439611 
L 279.193556 65.654098 
L 278.08736 66.099609 
L 277.561591 66.312175 
L 276.995993 66.537488 
L 276.209347 66.850867 
L 275.629674 67.081663 
L 275.438778 67.164681 
L 274.856423 67.417958 
L 273.285345 68.103365 
L 272.179051 68.586015 
L 271.861034 68.711092 
L 271.226775 68.965119 
L 270.592587 69.218344 
L 269.496918 69.665415 
L 268.546422 70.052312 
L 267.987512 70.27855 
L 267.446307 70.494953 
L 266.394041 70.922265 
L 265.849267 71.137773 
L 265.315139 71.353037 
L 265.303619 71.357749 
L 264.234103 71.78742 
L 263.701192 72.001502 
L 263.293737 72.166623 
L 263.157382 72.224108 
L 262.228055 72.573614 
L 261.869259 72.603555 
L 261.847642 72.605297 
L 261.25252 72.644933 
L 261.247216 72.645855 
L 260.670621 72.676615 
L 259.661263 72.732167 
L 259.067039 72.768315 
L 258.38584 72.812689 
L 258.258131 72.821226 
L 258.092428 72.825653 
L 257.753237 72.834296 
L 257.246912 72.845778 
L 256.594838 72.857466 
L 255.779114 72.868551 
L 255.282818 72.873268 
L 254.522589 72.877331 
L 254.038158 72.877329 
L 253.440355 72.875691 
L 253.002774 72.873089 
L 252.396608 72.878587 
L 252.0078 72.883462 
L 251.577135 72.874566 
L 251.027066 72.863204 
L 250.734071 72.855235 
L 250.296097 72.843324 
L 249.740149 72.826174 
L 249.19543 72.80775 
L 248.901299 72.796721 
L 248.601438 72.784615 
L 248.086022 72.763806 
L 247.458718 72.734944 
L 247.162845 72.720488 
L 246.436632 72.009786 
L 245.371171 70.967089 
L 245.122554 68.567774 
L 245.056812 68.552247 
L 244.614703 68.45966 
L 244.17028 68.378426 
L 243.723985 68.308532 
L 243.276088 68.250064 
L 242.826853 68.202924 
L 242.376551 68.167375 
L 241.925534 68.143229 
L 241.473983 68.130662 
L 240.071938 68.166911 
L 237.959271 68.49387 
L 236.811745 68.56671 
L 236.178767 68.592928 
L 235.480969 68.691719 
L 235.040016 68.684519 
L 226.09121 68.704972 
L 226.085088 68.608323 
L 225.618232 68.621211 
L 225.151671 68.643079 
L 224.685587 68.674099 
L 224.220242 68.714176 
L 223.755816 68.763307 
L 223.292394 68.8214 
L 222.830156 68.888541 
L 222.369277 68.964636 
L 220.650708 69.256 
L 218.223912 69.516279 
L 218.144683 68.837015 
L 218.050596 68.790611 
L 216.630478 68.928769 
L 215.211179 69.075453 
L 213.79279 69.230839 
L 212.375397 69.394747 
L 210.959001 69.567266 
L 209.543689 69.748305 
L 208.129465 69.937952 
L 206.707581 70.138263 
L 206.707879 70.340304 
L 206.711926 72.015537 
L 206.714002 72.758853 
L 203.72385 73.072337 
L 200.726528 73.390365 
L 198.710888 73.607454 
L 196.595101 73.842701 
L 194.480213 74.086033 
L 192.335198 74.339235 
L 190.794936 74.524201 
L 186.659307 75.028327 
L 182.111365 75.581174 
L 182.107096 76.070295 
L 182.074272 76.07488 
L 182.07064 76.048186 
L 181.849847 76.073133 
L 181.84225 76.826281 
L 181.563645 76.822941 
L 181.56471 76.857611 
L 181.431657 76.853661 
L 181.400313 79.859158 
L 180.074586 79.839036 
L 161.609716 79.64939 
L 156.985509 79.602086 
L 156.808569 79.600229 
L 156.604462 79.598113 
L 155.992056 79.591856 
L 155.89706 79.598508 
L 154.194541 79.716465 
L 153.986733 79.730894 
L 153.477039 79.706156 
L 152.740399 79.670404 
L 149.49817 79.50776 
L 146.565451 79.360817 
L 140.959384 79.305966 
L 129.891763 79.193211 
L 128.556918 79.254858 
L 125.542981 79.196417 
L 118.413548 79.111736 
L 110.135353 79.243783 
L 106.758685 79.297654 
L 106.417532 79.303115 
L 106.383224 80.636119 
L 106.336789 82.444907 
L 106.298689 83.928167 
L 106.252255 85.736955 
L 106.218016 87.080544 
L 105.896892 99.436032 
L 105.816083 102.555586 
L 105.78867 103.627149 
L 105.728453 105.947256 
L 105.689496 107.427868 
L 105.625418 109.887558 
L 105.597118 110.959141 
L 105.514216 114.210231 
L 105.425003 117.67124 
L 105.395843 118.740175 
L 105.332779 121.205179 
L 105.268764 123.694226 
L 105.245888 124.582599 
L 105.228349 125.261076 
L 105.209626 126.072134 
L 105.029762 132.977514 
L 104.979208 134.918457 
L 104.947315 136.167871 
L 104.908537 137.660326 
" clip-path="url(#p8f74d2bb3e)" style="fill: #1f77b4"/>
   </g>
   <g id="matplotlib.axis_1">
    <g id="xtick_1">
     <g id="line2d_1">
      <defs>
       <path id="m4114e59c73" d="M 0 0 
L 0 3.5 
" style="stroke: #000000; stroke-width: 0.8"/>
      </defs>
      <g>
       <use xlink:href="#m4114e59c73" x="103.835294" y="307.584" style="stroke: #000000; stroke-width: 0.8"/>
      </g>
     </g>
     <g id="text_1">
      <!-- 13.32 -->
      <g transform="translate(89.521231 322.182437) scale(0.1 -0.1)">
       <defs>
        <path id="DejaVuSans-31" d="M 794 531 
L 1825 531 
L 1825 4091 
L 703 3866 
L 703 4441 
L 1819 4666 
L 2450 4666 
L 2450 531 
L 3481 531 
L 3481 0 
L 794 0 
L 794 531 
z
" transform="scale(0.015625)"/>
        <path id="DejaVuSans-33" d="M 2597 2516 
Q 3050 2419 3304 2112 
Q 3559 1806 3559 1356 
Q 3559 666 3084 287 
Q 2609 -91 1734 -91 
Q 1441 -91 1130 -33 
Q 819 25 488 141 
L 488 750 
Q 750 597 1062 519 
Q 1375 441 1716 441 
Q 2309 441 2620 675 
Q 2931 909 2931 1356 
Q 2931 1769 2642 2001 
Q 2353 2234 1838 2234 
L 1294 2234 
L 1294 2753 
L 1863 2753 
Q 2328 2753 2575 2939 
Q 2822 3125 2822 3475 
Q 2822 3834 2567 4026 
Q 2313 4219 1838 4219 
Q 1578 4219 1281 4162 
Q 984 4106 628 3988 
L 628 4550 
Q 988 4650 1302 4700 
Q 1616 4750 1894 4750 
Q 2613 4750 3031 4423 
Q 3450 4097 3450 3541 
Q 3450 3153 3228 2886 
Q 3006 2619 2597 2516 
z
" transform="scale(0.015625)"/>
        <path id="DejaVuSans-2e" d="M 684 794 
L 1344 794 
L 1344 0 
L 684 0 
L 684 794 
z
" transform="scale(0.015625)"/>
        <path id="DejaVuSans-32" d="M 1228 531 
L 3431 531 
L 3431 0 
L 469 0 
L 469 531 
Q 828 903 1448 1529 
Q 2069 2156 2228 2338 
Q 2531 2678 2651 2914 
Q 2772 3150 2772 3378 
Q 2772 3750 2511 3984 
Q 2250 4219 1831 4219 
Q 1534 4219 1204 4116 
Q 875 4013 500 3803 
L 500 4441 
Q 881 4594 1212 4672 
Q 1544 4750 1819 4750 
Q 2544 4750 2975 4387 
Q 3406 4025 3406 3419 
Q 3406 3131 3298 2873 
Q 3191 2616 2906 2266 
Q 2828 2175 2409 1742 
Q 1991 1309 1228 531 
z
" transform="scale(0.015625)"/>
       </defs>
       <use xlink:href="#DejaVuSans-31"/>
       <use xlink:href="#DejaVuSans-33" x="63.623047"/>
       <use xlink:href="#DejaVuSans-2e" x="127.246094"/>
       <use xlink:href="#DejaVuSans-33" x="159.033203"/>
       <use xlink:href="#DejaVuSans-32" x="222.65625"/>
      </g>
     </g>
    </g>
    <g id="xtick_2">
     <g id="line2d_2">
      <g>
       <use xlink:href="#m4114e59c73" x="164.112051" y="307.584" style="stroke: #000000; stroke-width: 0.8"/>
      </g>
     </g>
     <g id="text_2">
      <!-- 13.33 -->
      <g transform="translate(149.797988 322.182437) scale(0.1 -0.1)">
       <use xlink:href="#DejaVuSans-31"/>
       <use xlink:href="#DejaVuSans-33" x="63.623047"/>
       <use xlink:href="#DejaVuSans-2e" x="127.246094"/>
       <use xlink:href="#DejaVuSans-33" x="159.033203"/>
       <use xlink:href="#DejaVuSans-33" x="222.65625"/>
      </g>
     </g>
    </g>
    <g id="xtick_3">
     <g id="line2d_3">
      <g>
       <use xlink:href="#m4114e59c73" x="224.388808" y="307.584" style="stroke: #000000; stroke-width: 0.8"/>
      </g>
     </g>
     <g id="text_3">
      <!-- 13.34 -->
      <g transform="translate(210.074746 322.182437) scale(0.1 -0.1)">
       <defs>
        <path id="DejaVuSans-34" d="M 2419 4116 
L 825 1625 
L 2419 1625 
L 2419 4116 
z
M 2253 4666 
L 3047 4666 
L 3047 1625 
L 3713 1625 
L 3713 1100 
L 3047 1100 
L 3047 0 
L 2419 0 
L 2419 1100 
L 313 1100 
L 313 1709 
L 2253 4666 
z
" transform="scale(0.015625)"/>
       </defs>
       <use xlink:href="#DejaVuSans-31"/>
       <use xlink:href="#DejaVuSans-33" x="63.623047"/>
       <use xlink:href="#DejaVuSans-2e" x="127.246094"/>
       <use xlink:href="#DejaVuSans-33" x="159.033203"/>
       <use xlink:href="#DejaVuSans-34" x="222.65625"/>
      </g>
     </g>
    </g>
    <g id="xtick_4">
     <g id="line2d_4">
      <g>
       <use xlink:href="#m4114e59c73" x="284.665565" y="307.584" style="stroke: #000000; stroke-width: 0.8"/>
      </g>
     </g>
     <g id="text_4">
      <!-- 13.35 -->
      <g transform="translate(270.351503 322.182437) scale(0.1 -0.1)">
       <defs>
        <path id="DejaVuSans-35" d="M 691 4666 
L 3169 4666 
L 3169 4134 
L 1269 4134 
L 1269 2991 
Q 1406 3038 1543 3061 
Q 1681 3084 1819 3084 
Q 2600 3084 3056 2656 
Q 3513 2228 3513 1497 
Q 3513 744 3044 326 
Q 2575 -91 1722 -91 
Q 1428 -91 1123 -41 
Q 819 9 494 109 
L 494 744 
Q 775 591 1075 516 
Q 1375 441 1709 441 
Q 2250 441 2565 725 
Q 2881 1009 2881 1497 
Q 2881 1984 2565 2268 
Q 2250 2553 1709 2553 
Q 1456 2553 1204 2497 
Q 953 2441 691 2322 
L 691 4666 
z
" transform="scale(0.015625)"/>
       </defs>
       <use xlink:href="#DejaVuSans-31"/>
       <use xlink:href="#DejaVuSans-33" x="63.623047"/>
       <use xlink:href="#DejaVuSans-2e" x="127.246094"/>
       <use xlink:href="#DejaVuSans-33" x="159.033203"/>
       <use xlink:href="#DejaVuSans-35" x="222.65625"/>
      </g>
     </g>
    </g>
    <g id="xtick_5">
     <g id="line2d_5">
      <g>
       <use xlink:href="#m4114e59c73" x="344.942323" y="307.584" style="stroke: #000000; stroke-width: 0.8"/>
      </g>
     </g>
     <g id="text_5">
      <!-- 13.36 -->
      <g transform="translate(330.62826 322.182437) scale(0.1 -0.1)">
       <defs>
        <path id="DejaVuSans-36" d="M 2113 2584 
Q 1688 2584 1439 2293 
Q 1191 2003 1191 1497 
Q 1191 994 1439 701 
Q 1688 409 2113 409 
Q 2538 409 2786 701 
Q 3034 994 3034 1497 
Q 3034 2003 2786 2293 
Q 2538 2584 2113 2584 
z
M 3366 4563 
L 3366 3988 
Q 3128 4100 2886 4159 
Q 2644 4219 2406 4219 
Q 1781 4219 1451 3797 
Q 1122 3375 1075 2522 
Q 1259 2794 1537 2939 
Q 1816 3084 2150 3084 
Q 2853 3084 3261 2657 
Q 3669 2231 3669 1497 
Q 3669 778 3244 343 
Q 2819 -91 2113 -91 
Q 1303 -91 875 529 
Q 447 1150 447 2328 
Q 447 3434 972 4092 
Q 1497 4750 2381 4750 
Q 2619 4750 2861 4703 
Q 3103 4656 3366 4563 
z
" transform="scale(0.015625)"/>
       </defs>
       <use xlink:href="#DejaVuSans-31"/>
       <use xlink:href="#DejaVuSans-33" x="63.623047"/>
       <use xlink:href="#DejaVuSans-2e" x="127.246094"/>
       <use xlink:href="#DejaVuSans-33" x="159.033203"/>
       <use xlink:href="#DejaVuSans-36" x="222.65625"/>
      </g>
     </g>
    </g>
   </g>
   <g id="matplotlib.axis_2">
    <g id="ytick_1">
     <g id="line2d_6">
      <defs>
       <path id="m4c81551626" d="M 0 0 
L -3.5 0 
" style="stroke: #000000; stroke-width: 0.8"/>
      </defs>
      <g>
       <use xlink:href="#m4c81551626" x="90.48966" y="301.638243" style="stroke: #000000; stroke-width: 0.8"/>
      </g>
     </g>
     <g id="text_6">
      <!-- 52.455 -->
      <g transform="translate(48.499035 305.437462) scale(0.1 -0.1)">
       <use xlink:href="#DejaVuSans-35"/>
       <use xlink:href="#DejaVuSans-32" x="63.623047"/>
       <use xlink:href="#DejaVuSans-2e" x="127.246094"/>
       <use xlink:href="#DejaVuSans-34" x="159.033203"/>
       <use xlink:href="#DejaVuSans-35" x="222.65625"/>
       <use xlink:href="#DejaVuSans-35" x="286.279297"/>
      </g>
     </g>
    </g>
    <g id="ytick_2">
     <g id="line2d_7">
      <g>
       <use xlink:href="#m4c81551626" x="90.48966" y="252.166715" style="stroke: #000000; stroke-width: 0.8"/>
      </g>
     </g>
     <g id="text_7">
      <!-- 52.460 -->
      <g transform="translate(48.499035 255.965934) scale(0.1 -0.1)">
       <defs>
        <path id="DejaVuSans-30" d="M 2034 4250 
Q 1547 4250 1301 3770 
Q 1056 3291 1056 2328 
Q 1056 1369 1301 889 
Q 1547 409 2034 409 
Q 2525 409 2770 889 
Q 3016 1369 3016 2328 
Q 3016 3291 2770 3770 
Q 2525 4250 2034 4250 
z
M 2034 4750 
Q 2819 4750 3233 4129 
Q 3647 3509 3647 2328 
Q 3647 1150 3233 529 
Q 2819 -91 2034 -91 
Q 1250 -91 836 529 
Q 422 1150 422 2328 
Q 422 3509 836 4129 
Q 1250 4750 2034 4750 
z
" transform="scale(0.015625)"/>
       </defs>
       <use xlink:href="#DejaVuSans-35"/>
       <use xlink:href="#DejaVuSans-32" x="63.623047"/>
       <use xlink:href="#DejaVuSans-2e" x="127.246094"/>
       <use xlink:href="#DejaVuSans-34" x="159.033203"/>
       <use xlink:href="#DejaVuSans-36" x="222.65625"/>
       <use xlink:href="#DejaVuSans-30" x="286.279297"/>
      </g>
     </g>
    </g>
    <g id="ytick_3">
     <g id="line2d_8">
      <g>
       <use xlink:href="#m4c81551626" x="90.48966" y="202.695187" style="stroke: #000000; stroke-width: 0.8"/>
      </g>
     </g>
     <g id="text_8">
      <!-- 52.465 -->
      <g transform="translate(48.499035 206.494406) scale(0.1 -0.1)">
       <use xlink:href="#DejaVuSans-35"/>
       <use xlink:href="#DejaVuSans-32" x="63.623047"/>
       <use xlink:href="#DejaVuSans-2e" x="127.246094"/>
       <use xlink:href="#DejaVuSans-34" x="159.033203"/>
       <use xlink:href="#DejaVuSans-36" x="222.65625"/>
       <use xlink:href="#DejaVuSans-35" x="286.279297"/>
      </g>
     </g>
    </g>
    <g id="ytick_4">
     <g id="line2d_9">
      <g>
       <use xlink:href="#m4c81551626" x="90.48966" y="153.223659" style="stroke: #000000; stroke-width: 0.8"/>
      </g>
     </g>
     <g id="text_9">
      <!-- 52.470 -->
      <g transform="translate(48.499035 157.022878) scale(0.1 -0.1)">
       <defs>
        <path id="DejaVuSans-37" d="M 525 4666 
L 3525 4666 
L 3525 4397 
L 1831 0 
L 1172 0 
L 2766 4134 
L 525 4134 
L 525 4666 
z
" transform="scale(0.015625)"/>
       </defs>
       <use xlink:href="#DejaVuSans-35"/>
       <use xlink:href="#DejaVuSans-32" x="63.623047"/>
       <use xlink:href="#DejaVuSans-2e" x="127.246094"/>
       <use xlink:href="#DejaVuSans-34" x="159.033203"/>
       <use xlink:href="#DejaVuSans-37" x="222.65625"/>
       <use xlink:href="#DejaVuSans-30" x="286.279297"/>
      </g>
     </g>
    </g>
    <g id="ytick_5">
     <g id="line2d_10">
      <g>
       <use xlink:href="#m4c81551626" x="90.48966" y="103.752131" style="stroke: #000000; stroke-width: 0.8"/>
      </g>
     </g>
     <g id="text_10">
      <!-- 52.475 -->
      <g transform="translate(48.499035 107.55135) scale(0.1 -0.1)">
       <use xlink:href="#DejaVuSans-35"/>
       <use xlink:href="#DejaVuSans-32" x="63.623047"/>
       <use xlink:href="#DejaVuSans-2e" x="127.246094"/>
       <use xlink:href="#DejaVuSans-34" x="159.033203"/>
       <use xlink:href="#DejaVuSans-37" x="222.65625"/>
       <use xlink:href="#DejaVuSans-35" x="286.279297"/>
      </g>
     </g>
    </g>
    <g id="ytick_6">
     <g id="line2d_11">
      <g>
       <use xlink:href="#m4c81551626" x="90.48966" y="54.280603" style="stroke: #000000; stroke-width: 0.8"/>
      </g>
     </g>
     <g id="text_11">
      <!-- 52.480 -->
      <g transform="translate(48.499035 58.079822) scale(0.1 -0.1)">
       <defs>
        <path id="DejaVuSans-38" d="M 2034 2216 
Q 1584 2216 1326 1975 
Q 1069 1734 1069 1313 
Q 1069 891 1326 650 
Q 1584 409 2034 409 
Q 2484 409 2743 651 
Q 3003 894 3003 1313 
Q 3003 1734 2745 1975 
Q 2488 2216 2034 2216 
z
M 1403 2484 
Q 997 2584 770 2862 
Q 544 3141 544 3541 
Q 544 4100 942 4425 
Q 1341 4750 2034 4750 
Q 2731 4750 3128 4425 
Q 3525 4100 3525 3541 
Q 3525 3141 3298 2862 
Q 3072 2584 2669 2484 
Q 3125 2378 3379 2068 
Q 3634 1759 3634 1313 
Q 3634 634 3220 271 
Q 2806 -91 2034 -91 
Q 1263 -91 848 271 
Q 434 634 434 1313 
Q 434 1759 690 2068 
Q 947 2378 1403 2484 
z
M 1172 3481 
Q 1172 3119 1398 2916 
Q 1625 2713 2034 2713 
Q 2441 2713 2670 2916 
Q 2900 3119 2900 3481 
Q 2900 3844 2670 4047 
Q 2441 4250 2034 4250 
Q 1625 4250 1398 4047 
Q 1172 3844 1172 3481 
z
" transform="scale(0.015625)"/>
       </defs>
       <use xlink:href="#DejaVuSans-35"/>
       <use xlink:href="#DejaVuSans-32" x="63.623047"/>
       <use xlink:href="#DejaVuSans-2e" x="127.246094"/>
       <use xlink:href="#DejaVuSans-34" x="159.033203"/>
       <use xlink:href="#DejaVuSans-38" x="222.65625"/>
       <use xlink:href="#DejaVuSans-30" x="286.279297"/>
      </g>
     </g>
    </g>
   </g>
   <g id="patch_3">
    <path d="M 90.48966 307.584 
L 90.48966 41.472 
" style="fill: none; stroke: #000000; stroke-width: 0.8; stroke-linejoin: miter; stroke-linecap: square"/>
   </g>
   <g id="patch_4">
    <path d="M 381.83034 307.584 
L 381.83034 41.472 
" style="fill: none; stroke: #000000; stroke-width: 0.8; stroke-linejoin: miter; stroke-linecap: square"/>
   </g>
   <g id="patch_5">
    <path d="M 90.48966 307.584 
L 381.83034 307.584 
" style="fill: none; stroke: #000000; stroke-width: 0.8; stroke-linejoin: miter; stroke-linecap: square"/>
   </g>
   <g id="patch_6">
    <path d="M 90.48966 41.472 
L 381.83034 41.472 
" style="fill: none; stroke: #000000; stroke-width: 0.8; stroke-linejoin: miter; stroke-linecap: square"/>
   </g>
   <g id="text_12">
    <!-- Friedenau -->
    <g transform="translate(211.522977 154.602273) scale(0.12 -0.12)">
     <defs>
      <path id="DejaVuSans-46" d="M 628 4666 
L 3309 4666 
L 3309 4134 
L 1259 4134 
L 1259 2759 
L 3109 2759 
L 3109 2228 
L 1259 2228 
L 1259 0 
L 628 0 
L 628 4666 
z
" transform="scale(0.015625)"/>
      <path id="DejaVuSans-72" d="M 2631 2963 
Q 2534 3019 2420 3045 
Q 2306 3072 2169 3072 
Q 1681 3072 1420 2755 
Q 1159 2438 1159 1844 
L 1159 0 
L 581 0 
L 581 3500 
L 1159 3500 
L 1159 2956 
Q 1341 3275 1631 3429 
Q 1922 3584 2338 3584 
Q 2397 3584 2469 3576 
Q 2541 3569 2628 3553 
L 2631 2963 
z
" transform="scale(0.015625)"/>
      <path id="DejaVuSans-69" d="M 603 3500 
L 1178 3500 
L 1178 0 
L 603 0 
L 603 3500 
z
M 603 4863 
L 1178 4863 
L 1178 4134 
L 603 4134 
L 603 4863 
z
" transform="scale(0.015625)"/>
      <path id="DejaVuSans-65" d="M 3597 1894 
L 3597 1613 
L 953 1613 
Q 991 1019 1311 708 
Q 1631 397 2203 397 
Q 2534 397 2845 478 
Q 3156 559 3463 722 
L 3463 178 
Q 3153 47 2828 -22 
Q 2503 -91 2169 -91 
Q 1331 -91 842 396 
Q 353 884 353 1716 
Q 353 2575 817 3079 
Q 1281 3584 2069 3584 
Q 2775 3584 3186 3129 
Q 3597 2675 3597 1894 
z
M 3022 2063 
Q 3016 2534 2758 2815 
Q 2500 3097 2075 3097 
Q 1594 3097 1305 2825 
Q 1016 2553 972 2059 
L 3022 2063 
z
" transform="scale(0.015625)"/>
      <path id="DejaVuSans-64" d="M 2906 2969 
L 2906 4863 
L 3481 4863 
L 3481 0 
L 2906 0 
L 2906 525 
Q 2725 213 2448 61 
Q 2172 -91 1784 -91 
Q 1150 -91 751 415 
Q 353 922 353 1747 
Q 353 2572 751 3078 
Q 1150 3584 1784 3584 
Q 2172 3584 2448 3432 
Q 2725 3281 2906 2969 
z
M 947 1747 
Q 947 1113 1208 752 
Q 1469 391 1925 391 
Q 2381 391 2643 752 
Q 2906 1113 2906 1747 
Q 2906 2381 2643 2742 
Q 2381 3103 1925 3103 
Q 1469 3103 1208 2742 
Q 947 2381 947 1747 
z
" transform="scale(0.015625)"/>
      <path id="DejaVuSans-6e" d="M 3513 2113 
L 3513 0 
L 2938 0 
L 2938 2094 
Q 2938 2591 2744 2837 
Q 2550 3084 2163 3084 
Q 1697 3084 1428 2787 
Q 1159 2491 1159 1978 
L 1159 0 
L 581 0 
L 581 3500 
L 1159 3500 
L 1159 2956 
Q 1366 3272 1645 3428 
Q 1925 3584 2291 3584 
Q 2894 3584 3203 3211 
Q 3513 2838 3513 2113 
z
" transform="scale(0.015625)"/>
      <path id="DejaVuSans-61" d="M 2194 1759 
Q 1497 1759 1228 1600 
Q 959 1441 959 1056 
Q 959 750 1161 570 
Q 1363 391 1709 391 
Q 2188 391 2477 730 
Q 2766 1069 2766 1631 
L 2766 1759 
L 2194 1759 
z
M 3341 1997 
L 3341 0 
L 2766 0 
L 2766 531 
Q 2569 213 2275 61 
Q 1981 -91 1556 -91 
Q 1019 -91 701 211 
Q 384 513 384 1019 
Q 384 1609 779 1909 
Q 1175 2209 1959 2209 
L 2766 2209 
L 2766 2266 
Q 2766 2663 2505 2880 
Q 2244 3097 1772 3097 
Q 1472 3097 1187 3025 
Q 903 2953 641 2809 
L 641 3341 
Q 956 3463 1253 3523 
Q 1550 3584 1831 3584 
Q 2591 3584 2966 3190 
Q 3341 2797 3341 1997 
z
" transform="scale(0.015625)"/>
      <path id="DejaVuSans-75" d="M 544 1381 
L 544 3500 
L 1119 3500 
L 1119 1403 
Q 1119 906 1312 657 
Q 1506 409 1894 409 
Q 2359 409 2629 706 
Q 2900 1003 2900 1516 
L 2900 3500 
L 3475 3500 
L 3475 0 
L 2900 0 
L 2900 538 
Q 2691 219 2414 64 
Q 2138 -91 1772 -91 
Q 1169 -91 856 284 
Q 544 659 544 1381 
z
M 1991 3584 
L 1991 3584 
z
" transform="scale(0.015625)"/>
     </defs>
     <use xlink:href="#DejaVuSans-46"/>
     <use xlink:href="#DejaVuSans-72" x="50.269531"/>
     <use xlink:href="#DejaVuSans-69" x="91.382812"/>
     <use xlink:href="#DejaVuSans-65" x="119.166016"/>
     <use xlink:href="#DejaVuSans-64" x="180.689453"/>
     <use xlink:href="#DejaVuSans-65" x="244.166016"/>
     <use xlink:href="#DejaVuSans-6e" x="305.689453"/>
     <use xlink:href="#DejaVuSans-61" x="369.068359"/>
     <use xlink:href="#DejaVuSans-75" x="430.347656"/>
    </g>
   </g>
  </g>
 </g>
 <defs>
  <clipPath id="p8f74d2bb3e">
   <rect x="90.48966" y="41.472" width="291.340681" height="266.112"/>
  </clipPath>
 </defs>
</svg>
