<?xml version="1.0" encoding="utf-8" standalone="no"?>
<!DOCTYPE svg PUBLIC "-//W3C//DTD SVG 1.1//EN"
  "http://www.w3.org/Graphics/SVG/1.1/DTD/svg11.dtd">
<svg xmlns:xlink="http://www.w3.org/1999/xlink" width="460.8pt" height="345.6pt" viewBox="0 0 460.8 345.6" xmlns="http://www.w3.org/2000/svg" version="1.1">
 <metadata>
  <rdf:RDF xmlns:dc="http://purl.org/dc/elements/1.1/" xmlns:cc="http://creativecommons.org/ns#" xmlns:rdf="http://www.w3.org/1999/02/22-rdf-syntax-ns#">
   <cc:Work>
    <dc:type rdf:resource="http://purl.org/dc/dcmitype/StillImage"/>
    <dc:date>2024-10-15T09:53:26.908098</dc:date>
    <dc:format>image/svg+xml</dc:format>
    <dc:creator>
     <cc:Agent>
      <dc:title>Matplotlib v3.8.4, https://matplotlib.org/</dc:title>
     </cc:Agent>
    </dc:creator>
   </cc:Work>
  </rdf:RDF>
 </metadata>
 <defs>
  <style type="text/css">*{stroke-linejoin: round; stroke-linecap: butt}</style>
 </defs>
 <g id="figure_1">
  <g id="patch_1">
   <path d="M 0 345.6 
L 460.8 345.6 
L 460.8 0 
L 0 0 
z
" style="fill: #ffffff"/>
  </g>
  <g id="axes_1">
   <g id="patch_2">
    <path d="M 146.350546 307.584 
L 325.969454 307.584 
L 325.969454 41.472 
L 146.350546 41.472 
z
" style="fill: #ffffff"/>
   </g>
   <g id="PatchCollection_1">
    <path d="M 287.834538 295.488 
L 289.021216 294.590236 
L 290.45801 293.51596 
L 291.887557 292.437313 
L 293.268591 291.395591 
L 293.851716 290.98028 
L 294.702514 290.356203 
L 295.267638 289.926894 
L 296.067152 289.33912 
L 296.875484 288.740587 
L 297.31302 288.417383 
L 298.380653 287.629022 
L 301.045916 286.252176 
L 301.176768 286.199932 
L 304.052384 285.387359 
L 307.401567 285.117491 
L 309.690559 285.549075 
L 310.684064 285.831811 
L 312.221514 286.274809 
L 315.179378 287.390855 
L 317.804958 282.627955 
L 313.257226 279.76879 
L 308.491477 276.932464 
L 307.254314 273.225692 
L 298.879189 267.949789 
L 297.770729 265.626764 
L 294.817798 263.284872 
L 292.029702 262.970418 
L 291.829114 262.751813 
L 290.566166 261.376576 
L 286.725714 257.194417 
L 258.082878 226.009374 
L 253.004017 220.481148 
L 250.197112 219.80499 
L 241.42665 217.691684 
L 241.419798 217.690033 
L 241.356911 217.674541 
L 240.957067 217.578319 
L 240.687633 217.513503 
L 240.582296 217.488338 
L 240.577492 217.487189 
L 240.279229 217.415484 
L 240.072406 217.365384 
L 239.396332 217.202462 
L 238.223585 216.920062 
L 238.112394 216.893251 
L 237.105357 216.650679 
L 237.243725 216.026559 
L 237.467095 215.114764 
L 237.80941 213.714303 
L 237.819794 213.716375 
L 238.179716 213.718152 
L 238.713287 211.181565 
L 238.790426 210.814294 
L 239.153318 209.081527 
L 239.300389 208.411532 
L 239.32583 208.167272 
L 239.851762 205.944174 
L 240.464243 203.365695 
L 240.508443 203.384344 
L 240.819345 202.09907 
L 240.906856 201.737987 
L 240.992791 201.378501 
L 241.111014 201.290234 
L 241.273835 201.170645 
L 241.274425 200.711848 
L 241.274834 200.433787 
L 241.317248 200.235222 
L 241.385187 199.916703 
L 241.508069 199.340846 
L 241.536551 199.205878 
L 242.869259 192.944798 
L 243.259879 191.990486 
L 243.62157 191.108112 
L 244.811989 188.92317 
L 246.116566 186.660369 
L 246.550176 185.897604 
L 246.554833 185.889273 
L 246.691957 185.647332 
L 246.344249 185.057034 
L 246.241042 184.882296 
L 246.404079 184.602606 
L 246.772914 183.968911 
L 246.93449 183.691284 
L 246.958761 183.659405 
L 246.982058 183.618326 
L 247.362774 182.946659 
L 247.492055 182.672844 
L 248.308401 181.397276 
L 248.665532 180.966914 
L 250.016327 179.339179 
L 250.110554 179.233711 
L 250.492769 178.88597 
L 251.704123 177.783755 
L 251.723273 177.602722 
L 251.762954 177.227288 
L 252.028966 177.019659 
L 251.905339 176.53479 
L 251.973699 176.122019 
L 252.108499 175.769472 
L 252.566483 175.487804 
L 254.02807 174.588951 
L 254.161105 174.512254 
L 253.163361 173.542327 
L 252.95458 173.3394 
L 255.618819 168.675186 
L 255.563673 168.233774 
L 256.024511 168.451421 
L 256.099347 168.318233 
L 256.345395 167.880441 
L 255.893477 167.686571 
L 255.976797 167.669853 
L 256.107935 167.643525 
L 257.804699 164.705924 
L 258.49635 163.520714 
L 261.252866 158.808709 
L 262.695281 155.197156 
L 263.452939 154.950011 
L 263.869964 154.668241 
L 264.240999 154.132524 
L 264.235751 154.09554 
L 263.738689 150.591358 
L 263.460977 148.633521 
L 263.348918 147.843676 
L 263.267862 147.272303 
L 262.914819 144.783401 
L 263.09386 144.750645 
L 263.046115 144.438229 
L 262.931406 144.420963 
L 262.732491 144.3911 
L 262.517217 142.592668 
L 262.483015 142.350767 
L 262.14047 139.931561 
L 262.003071 138.96074 
L 261.652872 138.899903 
L 261.318033 136.792816 
L 261.392815 136.032412 
L 261.495668 134.985912 
L 261.539072 134.544497 
L 261.541638 134.533033 
L 261.913801 132.885185 
L 262.330241 131.039364 
L 262.516076 130.218311 
L 262.902164 128.507965 
L 263.287017 128.695661 
L 265.249182 129.652311 
L 267.191072 130.599611 
L 268.53693 131.2561 
L 268.931405 130.416836 
L 269.465234 129.283394 
L 268.901406 129.0133 
L 267.895933 128.531594 
L 265.817915 127.449314 
L 265.316424 126.819834 
L 265.230573 126.712086 
L 264.900705 125.998223 
L 264.671635 125.166465 
L 264.226097 123.548633 
L 263.470379 121.187558 
L 263.327705 120.79077 
L 263.179845 120.402011 
L 262.46087 118.527546 
L 262.445472 118.487548 
L 262.226898 117.917835 
L 261.883972 116.987313 
L 261.167037 115.183455 
L 260.688577 113.912055 
L 259.803612 111.560396 
L 259.773809 111.480638 
L 258.878993 109.084178 
L 257.060598 104.201743 
L 256.940702 103.860535 
L 255.400712 104.024348 
L 254.207871 101.781399 
L 253.831102 101.042964 
L 253.010394 99.435553 
L 253.47187 99.455675 
L 252.343404 97.611854 
L 251.148382 95.686872 
L 250.723829 95.741567 
L 250.439569 95.780731 
L 250.151264 94.811138 
L 249.675935 94.876393 
L 249.571631 94.717828 
L 249.272653 94.764183 
L 247.983003 94.939141 
L 247.903692 94.94989 
L 247.160403 95.050741 
L 247.096436 95.059392 
L 246.530533 95.136162 
L 246.116358 95.192363 
L 244.304452 95.437976 
L 244.304334 95.437991 
L 243.895648 95.492504 
L 242.026683 95.741324 
L 241.075585 95.867864 
L 239.780083 96.040957 
L 236.755377 96.443846 
L 232.242968 97.045353 
L 231.198368 97.1846 
L 226.540054 97.805308 
L 225.975429 97.880482 
L 221.457378 98.483239 
L 220.752999 98.576981 
L 220.574314 98.60085 
L 220.096468 98.664391 
L 218.480476 98.880013 
L 216.721986 99.114653 
L 216.602757 99.130562 
L 216.375239 99.16079 
L 216.11685 99.083781 
L 215.777317 98.982506 
L 215.04474 98.764429 
L 214.248166 98.526673 
L 213.478124 98.297261 
L 212.874656 98.117488 
L 211.451913 97.69368 
L 211.446162 97.692135 
L 211.295904 97.647154 
L 209.228748 97.030293 
L 209.06055 96.980226 
L 208.641185 96.855608 
L 208.47362 96.805944 
L 208.367055 96.77441 
L 208.112017 96.698744 
L 207.364989 96.476465 
L 207.0514 96.382983 
L 206.731217 96.287455 
L 205.722052 95.985917 
L 205.497979 95.919229 
L 205.010228 95.774042 
L 204.609375 95.654713 
L 204.208457 95.534813 
L 203.807602 95.415433 
L 203.168549 95.225294 
L 202.344964 94.979869 
L 201.011749 94.582546 
L 200.675451 94.482368 
L 199.161786 94.031295 
L 196.846914 93.341535 
L 196.545298 93.251665 
L 190.258366 91.368992 
L 190.722001 90.327958 
L 192.058588 87.325905 
L 192.325327 86.726466 
L 192.430239 86.490293 
L 193.311498 84.511022 
L 192.669015 84.224799 
L 192.055802 83.951618 
L 191.876561 83.518767 
L 191.583025 82.809586 
L 191.396818 82.359744 
L 190.556983 80.330889 
L 188.944657 76.43653 
L 188.653357 75.732983 
L 188.199398 74.636087 
L 188.000278 74.154328 
L 187.971332 74.084355 
L 187.807694 73.688944 
L 186.260362 69.952058 
L 185.075295 67.089909 
L 184.53694 65.789562 
L 183.33652 62.889666 
L 182.898526 61.831564 
L 181.742813 59.040072 
L 181.562484 58.604178 
L 180.294367 55.542212 
L 180.284445 55.518303 
L 180.123475 55.129665 
L 179.299021 53.568 
L 178.346004 53.902325 
L 176.590527 54.543158 
L 175.569036 54.91606 
L 174.374204 55.352243 
L 174.318074 55.372727 
L 173.925776 55.565769 
L 173.441551 55.804049 
L 173.31817 55.864741 
L 172.501482 56.266333 
L 171.819027 56.601686 
L 171.428045 56.793696 
L 171.307491 56.852818 
L 170.93137 57.037111 
L 170.459284 57.268171 
L 170.331319 57.330787 
L 169.862117 57.560484 
L 169.26105 57.855122 
L 166.85424 59.035829 
L 166.689235 59.116802 
L 164.27201 60.302915 
L 161.612981 61.607216 
L 162.350336 63.212902 
L 162.603202 63.807632 
L 163.755644 66.517887 
L 163.828415 66.689131 
L 164.106891 67.355833 
L 164.182525 67.536914 
L 164.714241 68.843041 
L 165.051037 69.647435 
L 165.147142 69.878872 
L 165.199443 70.004814 
L 165.376425 70.453377 
L 166.446978 73.018438 
L 166.738654 73.717055 
L 167.112772 74.61875 
L 167.387215 75.282468 
L 167.689774 76.008829 
L 168.049392 76.872285 
L 168.408429 77.737837 
L 168.766311 78.600602 
L 169.125754 79.465938 
L 169.485144 80.331328 
L 169.844801 81.197182 
L 170.204185 82.062521 
L 170.565216 82.9272 
L 170.926711 83.80156 
L 171.508878 85.18716 
L 172.30727 86.343041 
L 174.159668 90.798866 
L 174.384721 91.340335 
L 176.119487 95.513618 
L 176.379337 96.13895 
L 176.478439 97.157283 
L 176.937897 98.258051 
L 177.260089 99.029901 
L 177.574828 99.783937 
L 177.891974 100.543652 
L 178.176025 101.224212 
L 178.218398 101.328906 
L 178.532417 102.105465 
L 178.851208 102.874316 
L 179.180213 103.649304 
L 179.503853 104.411695 
L 180.310803 106.312433 
L 179.744774 107.567053 
L 179.843806 108.767631 
L 179.974094 109.150052 
L 180.650218 109.667039 
L 181.400424 110.067766 
L 181.547967 110.702966 
L 181.787089 111.765391 
L 182.260227 113.877795 
L 182.465796 114.856696 
L 182.691172 115.823555 
L 182.913742 116.7663 
L 182.947645 116.771668 
L 183.996347 121.903191 
L 184.151257 124.061733 
L 183.44721 126.642878 
L 183.344733 127.018577 
L 182.070121 131.696784 
L 181.953139 131.663713 
L 181.795427 132.241026 
L 181.480394 133.394231 
L 181.79909 133.485123 
L 181.465394 134.712764 
L 181.137584 135.91647 
L 181.103512 136.041615 
L 180.970601 136.52993 
L 180.831272 137.041358 
L 180.800046 137.156178 
L 180.724871 137.432459 
L 180.476583 138.344162 
L 180.233605 139.236682 
L 179.750025 141.013545 
L 179.603283 141.552381 
L 179.290868 142.682925 
L 178.954796 143.914997 
L 178.843206 144.323248 
L 178.813945 144.430211 
L 178.707221 144.820539 
L 178.189641 146.717495 
L 178.15783 146.833995 
L 178.108383 147.015321 
L 177.990168 147.449086 
L 177.958172 147.566632 
L 177.883861 147.839301 
L 177.656955 148.665991 
L 177.581818 148.943783 
L 177.544158 149.083229 
L 177.432513 149.496013 
L 177.313559 149.931566 
L 177.277655 150.063211 
L 177.206531 150.324454 
L 176.848119 151.638598 
L 176.788191 151.837654 
L 176.649357 152.361735 
L 176.589306 152.564806 
L 176.56169 152.665951 
L 176.150192 154.170669 
L 175.931105 154.973643 
L 175.715213 155.770401 
L 175.506411 156.541374 
L 175.192727 157.68138 
L 174.949492 158.579643 
L 174.341047 160.798555 
L 174.095702 161.709681 
L 173.771938 162.875903 
L 173.602945 163.486129 
L 173.151424 165.161349 
L 172.256158 168.463953 
L 171.85931 169.915119 
L 171.211395 171.603895 
L 171.036459 172.05738 
L 172.228299 172.587157 
L 171.715603 173.919993 
L 171.705093 173.947316 
L 171.675934 174.022341 
L 169.636991 179.290059 
L 169.63628 179.292145 
L 169.383365 180.033817 
L 169.169709 180.591033 
L 169.273144 180.82716 
L 169.387504 180.872212 
L 169.350387 180.951733 
L 169.262277 181.103415 
L 169.211584 181.175049 
L 169.15677 181.243541 
L 169.097932 181.308577 
L 169.035327 181.369996 
L 168.969159 181.427584 
L 168.822716 181.534467 
L 168.760512 181.569814 
L 168.368408 182.500766 
L 168.968291 182.783974 
L 168.790755 183.183988 
L 168.733254 183.313547 
L 167.216343 186.571105 
L 166.596982 187.901253 
L 165.907645 189.380092 
L 165.814494 189.580023 
L 163.239099 194.983612 
L 162.310972 196.932542 
L 162.174623 197.218745 
L 162.049143 197.481061 
L 161.744137 198.116996 
L 161.948812 198.210842 
L 161.690887 198.764434 
L 160.887621 199.878601 
L 160.433806 200.456895 
L 159.233929 201.985995 
L 159.278162 202.022865 
L 159.230243 202.082555 
L 159.2233 202.091204 
L 159.167403 202.162171 
L 156.610786 205.293953 
L 154.564666 208.00753 
L 154.515042 208.067995 
L 154.795678 208.280284 
L 156.343872 209.505892 
L 156.954586 209.987601 
L 157.398007 210.337412 
L 158.71246 211.248658 
L 159.299054 211.655298 
L 160.285254 212.249368 
L 163.912339 214.197873 
L 164.20133 214.349765 
L 164.4796 214.496001 
L 166.113953 215.354961 
L 165.942198 215.55023 
L 166.61177 215.775825 
L 167.09329 216.17094 
L 167.756433 216.715054 
L 168.00887 216.422081 
L 168.040657 216.385136 
L 170.322053 217.637186 
L 170.592735 217.866169 
L 171.662065 218.770568 
L 172.013287 219.067685 
L 172.266818 219.282087 
L 172.200575 219.362443 
L 172.560644 219.657859 
L 172.774204 220.119238 
L 172.708372 220.820816 
L 172.328339 221.289395 
L 173.691996 222.307714 
L 174.425936 221.400036 
L 174.545854 221.251683 
L 174.577556 221.278666 
L 175.273875 221.009338 
L 175.516273 220.941553 
L 176.105593 220.904704 
L 176.123327 220.883587 
L 176.144779 220.866194 
L 176.16913 220.853218 
L 176.195509 220.845149 
L 176.222882 220.842268 
L 176.250368 220.844646 
L 176.276873 220.852204 
L 176.452115 220.938775 
L 176.748405 220.878689 
L 177.403899 221.336352 
L 177.425786 221.584707 
L 177.514392 221.728732 
L 177.663939 221.884575 
L 178.436395 222.719112 
L 178.471393 222.756913 
L 179.045137 223.372063 
L 179.315589 223.668737 
L 179.328523 223.658821 
L 179.321715 223.632032 
L 179.320554 223.604444 
L 179.325115 223.577202 
L 179.335165 223.551458 
L 179.350364 223.528416 
L 179.369953 223.508979 
L 179.393119 223.494049 
L 179.417288 223.484673 
L 179.442808 223.480217 
L 179.468697 223.480807 
L 179.493966 223.486463 
L 179.517676 223.496947 
L 179.587898 223.539461 
L 179.90234 223.844933 
L 180.029633 223.866476 
L 180.58038 224.419708 
L 181.166927 224.931743 
L 181.337537 225.706179 
L 181.305601 225.814033 
L 181.153751 225.936811 
L 181.120979 226.136847 
L 181.159025 226.183596 
L 183.42393 228.974241 
L 184.335684 228.903238 
L 185.946156 228.77785 
L 189.378897 229.881358 
L 189.484142 229.575987 
L 190.68522 229.966285 
L 193.887189 231.006919 
L 200.985476 233.325706 
L 204.330826 234.41821 
L 204.926401 234.613135 
L 205.047028 234.658694 
L 205.1484 234.70529 
L 208.689106 236.982105 
L 212.625031 239.523057 
L 213.662005 240.192418 
L 214.914473 240.606688 
L 214.965234 240.623839 
L 216.732167 241.248762 
L 216.732773 241.248969 
L 217.573499 241.535739 
L 217.651028 241.563208 
L 217.849562 241.323847 
L 218.105394 241.015534 
L 218.283962 241.115713 
L 218.532106 241.255409 
L 218.803313 241.407118 
L 219.684986 242.077316 
L 219.821783 242.178743 
L 220.049104 242.347288 
L 220.032534 242.367074 
L 220.304599 242.586234 
L 220.294747 242.601866 
L 220.405092 242.695686 
L 220.744322 242.984113 
L 220.810964 243.064174 
L 220.860486 243.155177 
L 220.895512 243.253523 
L 220.915444 243.355524 
L 220.919306 243.459171 
L 220.88215 243.559213 
L 220.835633 243.651483 
L 220.778708 243.738036 
L 220.004719 244.795332 
L 218.936195 246.236531 
L 218.076728 247.38308 
L 218.065313 247.378895 
L 218.154909 248.151229 
L 218.596412 248.474147 
L 218.806778 248.635906 
L 221.740149 250.891165 
L 226.558904 253.818261 
L 231.767799 257.01207 
L 232.517309 257.308657 
L 233.219185 257.581097 
L 236.665511 258.949928 
L 236.833597 259.014811 
L 238.467251 259.937287 
L 238.57286 259.995789 
L 245.732929 263.960264 
L 250.293852 265.18839 
L 255.496931 266.588511 
L 261.329742 270.688206 
L 263.759799 272.834046 
L 264.423565 273.602476 
L 267.009696 276.596709 
L 269.063906 279.382459 
L 269.246139 279.62962 
L 269.351629 279.932847 
L 269.840208 283.037784 
L 269.912611 283.420381 
L 270.020712 283.932001 
L 270.146747 284.441732 
L 270.30393 284.948095 
L 270.494384 285.450733 
L 270.617495 285.76703 
L 270.855867 286.268395 
L 271.92408 288.46842 
L 272.419195 289.488114 
L 272.581616 289.769352 
L 274.218964 285.992793 
L 274.727842 284.912138 
L 275.372931 284.610979 
L 276.132528 284.540703 
L 276.9105 284.489527 
L 277.611063 284.529494 
L 277.917901 284.585901 
L 279.063092 284.819778 
L 279.353277 284.899513 
L 280.480868 285.275164 
L 280.722728 285.354254 
L 281.867455 285.754557 
L 282.707727 286.053598 
L 283.348228 286.281622 
L 284.659409 287.392082 
L 284.945938 288.065987 
L 285.09209 288.441614 
L 287.834538 295.488 
" clip-path="url(#p76899276ae)" style="fill: #1f77b4"/>
   </g>
   <g id="matplotlib.axis_1">
    <g id="xtick_1">
     <g id="line2d_1">
      <defs>
       <path id="mdba61aa27b" d="M 0 0 
L 0 3.5 
" style="stroke: #000000; stroke-width: 0.8"/>
      </defs>
      <g>
       <use xlink:href="#mdba61aa27b" x="206.86986" y="307.584" style="stroke: #000000; stroke-width: 0.8"/>
      </g>
     </g>
     <g id="text_1">
      <!-- 13.46 -->
      <g transform="translate(192.555798 322.182437) scale(0.1 -0.1)">
       <defs>
        <path id="DejaVuSans-31" d="M 794 531 
L 1825 531 
L 1825 4091 
L 703 3866 
L 703 4441 
L 1819 4666 
L 2450 4666 
L 2450 531 
L 3481 531 
L 3481 0 
L 794 0 
L 794 531 
z
" transform="scale(0.015625)"/>
        <path id="DejaVuSans-33" d="M 2597 2516 
Q 3050 2419 3304 2112 
Q 3559 1806 3559 1356 
Q 3559 666 3084 287 
Q 2609 -91 1734 -91 
Q 1441 -91 1130 -33 
Q 819 25 488 141 
L 488 750 
Q 750 597 1062 519 
Q 1375 441 1716 441 
Q 2309 441 2620 675 
Q 2931 909 2931 1356 
Q 2931 1769 2642 2001 
Q 2353 2234 1838 2234 
L 1294 2234 
L 1294 2753 
L 1863 2753 
Q 2328 2753 2575 2939 
Q 2822 3125 2822 3475 
Q 2822 3834 2567 4026 
Q 2313 4219 1838 4219 
Q 1578 4219 1281 4162 
Q 984 4106 628 3988 
L 628 4550 
Q 988 4650 1302 4700 
Q 1616 4750 1894 4750 
Q 2613 4750 3031 4423 
Q 3450 4097 3450 3541 
Q 3450 3153 3228 2886 
Q 3006 2619 2597 2516 
z
" transform="scale(0.015625)"/>
        <path id="DejaVuSans-2e" d="M 684 794 
L 1344 794 
L 1344 0 
L 684 0 
L 684 794 
z
" transform="scale(0.015625)"/>
        <path id="DejaVuSans-34" d="M 2419 4116 
L 825 1625 
L 2419 1625 
L 2419 4116 
z
M 2253 4666 
L 3047 4666 
L 3047 1625 
L 3713 1625 
L 3713 1100 
L 3047 1100 
L 3047 0 
L 2419 0 
L 2419 1100 
L 313 1100 
L 313 1709 
L 2253 4666 
z
" transform="scale(0.015625)"/>
        <path id="DejaVuSans-36" d="M 2113 2584 
Q 1688 2584 1439 2293 
Q 1191 2003 1191 1497 
Q 1191 994 1439 701 
Q 1688 409 2113 409 
Q 2538 409 2786 701 
Q 3034 994 3034 1497 
Q 3034 2003 2786 2293 
Q 2538 2584 2113 2584 
z
M 3366 4563 
L 3366 3988 
Q 3128 4100 2886 4159 
Q 2644 4219 2406 4219 
Q 1781 4219 1451 3797 
Q 1122 3375 1075 2522 
Q 1259 2794 1537 2939 
Q 1816 3084 2150 3084 
Q 2853 3084 3261 2657 
Q 3669 2231 3669 1497 
Q 3669 778 3244 343 
Q 2819 -91 2113 -91 
Q 1303 -91 875 529 
Q 447 1150 447 2328 
Q 447 3434 972 4092 
Q 1497 4750 2381 4750 
Q 2619 4750 2861 4703 
Q 3103 4656 3366 4563 
z
" transform="scale(0.015625)"/>
       </defs>
       <use xlink:href="#DejaVuSans-31"/>
       <use xlink:href="#DejaVuSans-33" x="63.623047"/>
       <use xlink:href="#DejaVuSans-2e" x="127.246094"/>
       <use xlink:href="#DejaVuSans-34" x="159.033203"/>
       <use xlink:href="#DejaVuSans-36" x="222.65625"/>
      </g>
     </g>
    </g>
    <g id="xtick_2">
     <g id="line2d_2">
      <g>
       <use xlink:href="#mdba61aa27b" x="277.408939" y="307.584" style="stroke: #000000; stroke-width: 0.8"/>
      </g>
     </g>
     <g id="text_2">
      <!-- 13.48 -->
      <g transform="translate(263.094877 322.182437) scale(0.1 -0.1)">
       <defs>
        <path id="DejaVuSans-38" d="M 2034 2216 
Q 1584 2216 1326 1975 
Q 1069 1734 1069 1313 
Q 1069 891 1326 650 
Q 1584 409 2034 409 
Q 2484 409 2743 651 
Q 3003 894 3003 1313 
Q 3003 1734 2745 1975 
Q 2488 2216 2034 2216 
z
M 1403 2484 
Q 997 2584 770 2862 
Q 544 3141 544 3541 
Q 544 4100 942 4425 
Q 1341 4750 2034 4750 
Q 2731 4750 3128 4425 
Q 3525 4100 3525 3541 
Q 3525 3141 3298 2862 
Q 3072 2584 2669 2484 
Q 3125 2378 3379 2068 
Q 3634 1759 3634 1313 
Q 3634 634 3220 271 
Q 2806 -91 2034 -91 
Q 1263 -91 848 271 
Q 434 634 434 1313 
Q 434 1759 690 2068 
Q 947 2378 1403 2484 
z
M 1172 3481 
Q 1172 3119 1398 2916 
Q 1625 2713 2034 2713 
Q 2441 2713 2670 2916 
Q 2900 3119 2900 3481 
Q 2900 3844 2670 4047 
Q 2441 4250 2034 4250 
Q 1625 4250 1398 4047 
Q 1172 3844 1172 3481 
z
" transform="scale(0.015625)"/>
       </defs>
       <use xlink:href="#DejaVuSans-31"/>
       <use xlink:href="#DejaVuSans-33" x="63.623047"/>
       <use xlink:href="#DejaVuSans-2e" x="127.246094"/>
       <use xlink:href="#DejaVuSans-34" x="159.033203"/>
       <use xlink:href="#DejaVuSans-38" x="222.65625"/>
      </g>
     </g>
    </g>
   </g>
   <g id="matplotlib.axis_2">
    <g id="ytick_1">
     <g id="line2d_3">
      <defs>
       <path id="m7d3e21935b" d="M 0 0 
L -3.5 0 
" style="stroke: #000000; stroke-width: 0.8"/>
      </defs>
      <g>
       <use xlink:href="#m7d3e21935b" x="146.350546" y="272.578135" style="stroke: #000000; stroke-width: 0.8"/>
      </g>
     </g>
     <g id="text_3">
      <!-- 52.49 -->
      <g transform="translate(110.722421 276.377354) scale(0.1 -0.1)">
       <defs>
        <path id="DejaVuSans-35" d="M 691 4666 
L 3169 4666 
L 3169 4134 
L 1269 4134 
L 1269 2991 
Q 1406 3038 1543 3061 
Q 1681 3084 1819 3084 
Q 2600 3084 3056 2656 
Q 3513 2228 3513 1497 
Q 3513 744 3044 326 
Q 2575 -91 1722 -91 
Q 1428 -91 1123 -41 
Q 819 9 494 109 
L 494 744 
Q 775 591 1075 516 
Q 1375 441 1709 441 
Q 2250 441 2565 725 
Q 2881 1009 2881 1497 
Q 2881 1984 2565 2268 
Q 2250 2553 1709 2553 
Q 1456 2553 1204 2497 
Q 953 2441 691 2322 
L 691 4666 
z
" transform="scale(0.015625)"/>
        <path id="DejaVuSans-32" d="M 1228 531 
L 3431 531 
L 3431 0 
L 469 0 
L 469 531 
Q 828 903 1448 1529 
Q 2069 2156 2228 2338 
Q 2531 2678 2651 2914 
Q 2772 3150 2772 3378 
Q 2772 3750 2511 3984 
Q 2250 4219 1831 4219 
Q 1534 4219 1204 4116 
Q 875 4013 500 3803 
L 500 4441 
Q 881 4594 1212 4672 
Q 1544 4750 1819 4750 
Q 2544 4750 2975 4387 
Q 3406 4025 3406 3419 
Q 3406 3131 3298 2873 
Q 3191 2616 2906 2266 
Q 2828 2175 2409 1742 
Q 1991 1309 1228 531 
z
" transform="scale(0.015625)"/>
        <path id="DejaVuSans-39" d="M 703 97 
L 703 672 
Q 941 559 1184 500 
Q 1428 441 1663 441 
Q 2288 441 2617 861 
Q 2947 1281 2994 2138 
Q 2813 1869 2534 1725 
Q 2256 1581 1919 1581 
Q 1219 1581 811 2004 
Q 403 2428 403 3163 
Q 403 3881 828 4315 
Q 1253 4750 1959 4750 
Q 2769 4750 3195 4129 
Q 3622 3509 3622 2328 
Q 3622 1225 3098 567 
Q 2575 -91 1691 -91 
Q 1453 -91 1209 -44 
Q 966 3 703 97 
z
M 1959 2075 
Q 2384 2075 2632 2365 
Q 2881 2656 2881 3163 
Q 2881 3666 2632 3958 
Q 2384 4250 1959 4250 
Q 1534 4250 1286 3958 
Q 1038 3666 1038 3163 
Q 1038 2656 1286 2365 
Q 1534 2075 1959 2075 
z
" transform="scale(0.015625)"/>
       </defs>
       <use xlink:href="#DejaVuSans-35"/>
       <use xlink:href="#DejaVuSans-32" x="63.623047"/>
       <use xlink:href="#DejaVuSans-2e" x="127.246094"/>
       <use xlink:href="#DejaVuSans-34" x="159.033203"/>
       <use xlink:href="#DejaVuSans-39" x="222.65625"/>
      </g>
     </g>
    </g>
    <g id="ytick_2">
     <g id="line2d_4">
      <g>
       <use xlink:href="#m7d3e21935b" x="146.350546" y="214.632458" style="stroke: #000000; stroke-width: 0.8"/>
      </g>
     </g>
     <g id="text_4">
      <!-- 52.50 -->
      <g transform="translate(110.722421 218.431677) scale(0.1 -0.1)">
       <defs>
        <path id="DejaVuSans-30" d="M 2034 4250 
Q 1547 4250 1301 3770 
Q 1056 3291 1056 2328 
Q 1056 1369 1301 889 
Q 1547 409 2034 409 
Q 2525 409 2770 889 
Q 3016 1369 3016 2328 
Q 3016 3291 2770 3770 
Q 2525 4250 2034 4250 
z
M 2034 4750 
Q 2819 4750 3233 4129 
Q 3647 3509 3647 2328 
Q 3647 1150 3233 529 
Q 2819 -91 2034 -91 
Q 1250 -91 836 529 
Q 422 1150 422 2328 
Q 422 3509 836 4129 
Q 1250 4750 2034 4750 
z
" transform="scale(0.015625)"/>
       </defs>
       <use xlink:href="#DejaVuSans-35"/>
       <use xlink:href="#DejaVuSans-32" x="63.623047"/>
       <use xlink:href="#DejaVuSans-2e" x="127.246094"/>
       <use xlink:href="#DejaVuSans-35" x="159.033203"/>
       <use xlink:href="#DejaVuSans-30" x="222.65625"/>
      </g>
     </g>
    </g>
    <g id="ytick_3">
     <g id="line2d_5">
      <g>
       <use xlink:href="#m7d3e21935b" x="146.350546" y="156.686781" style="stroke: #000000; stroke-width: 0.8"/>
      </g>
     </g>
     <g id="text_5">
      <!-- 52.51 -->
      <g transform="translate(110.722421 160.486) scale(0.1 -0.1)">
       <use xlink:href="#DejaVuSans-35"/>
       <use xlink:href="#DejaVuSans-32" x="63.623047"/>
       <use xlink:href="#DejaVuSans-2e" x="127.246094"/>
       <use xlink:href="#DejaVuSans-35" x="159.033203"/>
       <use xlink:href="#DejaVuSans-31" x="222.65625"/>
      </g>
     </g>
    </g>
    <g id="ytick_4">
     <g id="line2d_6">
      <g>
       <use xlink:href="#m7d3e21935b" x="146.350546" y="98.741105" style="stroke: #000000; stroke-width: 0.8"/>
      </g>
     </g>
     <g id="text_6">
      <!-- 52.52 -->
      <g transform="translate(110.722421 102.540323) scale(0.1 -0.1)">
       <use xlink:href="#DejaVuSans-35"/>
       <use xlink:href="#DejaVuSans-32" x="63.623047"/>
       <use xlink:href="#DejaVuSans-2e" x="127.246094"/>
       <use xlink:href="#DejaVuSans-35" x="159.033203"/>
       <use xlink:href="#DejaVuSans-32" x="222.65625"/>
      </g>
     </g>
    </g>
   </g>
   <g id="patch_3">
    <path d="M 146.350546 307.584 
L 146.350546 41.472 
" style="fill: none; stroke: #000000; stroke-width: 0.8; stroke-linejoin: miter; stroke-linecap: square"/>
   </g>
   <g id="patch_4">
    <path d="M 325.969454 307.584 
L 325.969454 41.472 
" style="fill: none; stroke: #000000; stroke-width: 0.8; stroke-linejoin: miter; stroke-linecap: square"/>
   </g>
   <g id="patch_5">
    <path d="M 146.350546 307.584 
L 325.969454 307.584 
" style="fill: none; stroke: #000000; stroke-width: 0.8; stroke-linejoin: miter; stroke-linecap: square"/>
   </g>
   <g id="patch_6">
    <path d="M 146.350546 41.472 
L 325.969454 41.472 
" style="fill: none; stroke: #000000; stroke-width: 0.8; stroke-linejoin: miter; stroke-linecap: square"/>
   </g>
   <g id="text_7">
    <!-- Friedrichshain_Ost -->
    <g transform="translate(166.740714 180.669712) scale(0.12 -0.12)">
     <defs>
      <path id="DejaVuSans-46" d="M 628 4666 
L 3309 4666 
L 3309 4134 
L 1259 4134 
L 1259 2759 
L 3109 2759 
L 3109 2228 
L 1259 2228 
L 1259 0 
L 628 0 
L 628 4666 
z
" transform="scale(0.015625)"/>
      <path id="DejaVuSans-72" d="M 2631 2963 
Q 2534 3019 2420 3045 
Q 2306 3072 2169 3072 
Q 1681 3072 1420 2755 
Q 1159 2438 1159 1844 
L 1159 0 
L 581 0 
L 581 3500 
L 1159 3500 
L 1159 2956 
Q 1341 3275 1631 3429 
Q 1922 3584 2338 3584 
Q 2397 3584 2469 3576 
Q 2541 3569 2628 3553 
L 2631 2963 
z
" transform="scale(0.015625)"/>
      <path id="DejaVuSans-69" d="M 603 3500 
L 1178 3500 
L 1178 0 
L 603 0 
L 603 3500 
z
M 603 4863 
L 1178 4863 
L 1178 4134 
L 603 4134 
L 603 4863 
z
" transform="scale(0.015625)"/>
      <path id="DejaVuSans-65" d="M 3597 1894 
L 3597 1613 
L 953 1613 
Q 991 1019 1311 708 
Q 1631 397 2203 397 
Q 2534 397 2845 478 
Q 3156 559 3463 722 
L 3463 178 
Q 3153 47 2828 -22 
Q 2503 -91 2169 -91 
Q 1331 -91 842 396 
Q 353 884 353 1716 
Q 353 2575 817 3079 
Q 1281 3584 2069 3584 
Q 2775 3584 3186 3129 
Q 3597 2675 3597 1894 
z
M 3022 2063 
Q 3016 2534 2758 2815 
Q 2500 3097 2075 3097 
Q 1594 3097 1305 2825 
Q 1016 2553 972 2059 
L 3022 2063 
z
" transform="scale(0.015625)"/>
      <path id="DejaVuSans-64" d="M 2906 2969 
L 2906 4863 
L 3481 4863 
L 3481 0 
L 2906 0 
L 2906 525 
Q 2725 213 2448 61 
Q 2172 -91 1784 -91 
Q 1150 -91 751 415 
Q 353 922 353 1747 
Q 353 2572 751 3078 
Q 1150 3584 1784 3584 
Q 2172 3584 2448 3432 
Q 2725 3281 2906 2969 
z
M 947 1747 
Q 947 1113 1208 752 
Q 1469 391 1925 391 
Q 2381 391 2643 752 
Q 2906 1113 2906 1747 
Q 2906 2381 2643 2742 
Q 2381 3103 1925 3103 
Q 1469 3103 1208 2742 
Q 947 2381 947 1747 
z
" transform="scale(0.015625)"/>
      <path id="DejaVuSans-63" d="M 3122 3366 
L 3122 2828 
Q 2878 2963 2633 3030 
Q 2388 3097 2138 3097 
Q 1578 3097 1268 2742 
Q 959 2388 959 1747 
Q 959 1106 1268 751 
Q 1578 397 2138 397 
Q 2388 397 2633 464 
Q 2878 531 3122 666 
L 3122 134 
Q 2881 22 2623 -34 
Q 2366 -91 2075 -91 
Q 1284 -91 818 406 
Q 353 903 353 1747 
Q 353 2603 823 3093 
Q 1294 3584 2113 3584 
Q 2378 3584 2631 3529 
Q 2884 3475 3122 3366 
z
" transform="scale(0.015625)"/>
      <path id="DejaVuSans-68" d="M 3513 2113 
L 3513 0 
L 2938 0 
L 2938 2094 
Q 2938 2591 2744 2837 
Q 2550 3084 2163 3084 
Q 1697 3084 1428 2787 
Q 1159 2491 1159 1978 
L 1159 0 
L 581 0 
L 581 4863 
L 1159 4863 
L 1159 2956 
Q 1366 3272 1645 3428 
Q 1925 3584 2291 3584 
Q 2894 3584 3203 3211 
Q 3513 2838 3513 2113 
z
" transform="scale(0.015625)"/>
      <path id="DejaVuSans-73" d="M 2834 3397 
L 2834 2853 
Q 2591 2978 2328 3040 
Q 2066 3103 1784 3103 
Q 1356 3103 1142 2972 
Q 928 2841 928 2578 
Q 928 2378 1081 2264 
Q 1234 2150 1697 2047 
L 1894 2003 
Q 2506 1872 2764 1633 
Q 3022 1394 3022 966 
Q 3022 478 2636 193 
Q 2250 -91 1575 -91 
Q 1294 -91 989 -36 
Q 684 19 347 128 
L 347 722 
Q 666 556 975 473 
Q 1284 391 1588 391 
Q 1994 391 2212 530 
Q 2431 669 2431 922 
Q 2431 1156 2273 1281 
Q 2116 1406 1581 1522 
L 1381 1569 
Q 847 1681 609 1914 
Q 372 2147 372 2553 
Q 372 3047 722 3315 
Q 1072 3584 1716 3584 
Q 2034 3584 2315 3537 
Q 2597 3491 2834 3397 
z
" transform="scale(0.015625)"/>
      <path id="DejaVuSans-61" d="M 2194 1759 
Q 1497 1759 1228 1600 
Q 959 1441 959 1056 
Q 959 750 1161 570 
Q 1363 391 1709 391 
Q 2188 391 2477 730 
Q 2766 1069 2766 1631 
L 2766 1759 
L 2194 1759 
z
M 3341 1997 
L 3341 0 
L 2766 0 
L 2766 531 
Q 2569 213 2275 61 
Q 1981 -91 1556 -91 
Q 1019 -91 701 211 
Q 384 513 384 1019 
Q 384 1609 779 1909 
Q 1175 2209 1959 2209 
L 2766 2209 
L 2766 2266 
Q 2766 2663 2505 2880 
Q 2244 3097 1772 3097 
Q 1472 3097 1187 3025 
Q 903 2953 641 2809 
L 641 3341 
Q 956 3463 1253 3523 
Q 1550 3584 1831 3584 
Q 2591 3584 2966 3190 
Q 3341 2797 3341 1997 
z
" transform="scale(0.015625)"/>
      <path id="DejaVuSans-6e" d="M 3513 2113 
L 3513 0 
L 2938 0 
L 2938 2094 
Q 2938 2591 2744 2837 
Q 2550 3084 2163 3084 
Q 1697 3084 1428 2787 
Q 1159 2491 1159 1978 
L 1159 0 
L 581 0 
L 581 3500 
L 1159 3500 
L 1159 2956 
Q 1366 3272 1645 3428 
Q 1925 3584 2291 3584 
Q 2894 3584 3203 3211 
Q 3513 2838 3513 2113 
z
" transform="scale(0.015625)"/>
      <path id="DejaVuSans-5f" d="M 3263 -1063 
L 3263 -1509 
L -63 -1509 
L -63 -1063 
L 3263 -1063 
z
" transform="scale(0.015625)"/>
      <path id="DejaVuSans-4f" d="M 2522 4238 
Q 1834 4238 1429 3725 
Q 1025 3213 1025 2328 
Q 1025 1447 1429 934 
Q 1834 422 2522 422 
Q 3209 422 3611 934 
Q 4013 1447 4013 2328 
Q 4013 3213 3611 3725 
Q 3209 4238 2522 4238 
z
M 2522 4750 
Q 3503 4750 4090 4092 
Q 4678 3434 4678 2328 
Q 4678 1225 4090 567 
Q 3503 -91 2522 -91 
Q 1538 -91 948 565 
Q 359 1222 359 2328 
Q 359 3434 948 4092 
Q 1538 4750 2522 4750 
z
" transform="scale(0.015625)"/>
      <path id="DejaVuSans-74" d="M 1172 4494 
L 1172 3500 
L 2356 3500 
L 2356 3053 
L 1172 3053 
L 1172 1153 
Q 1172 725 1289 603 
Q 1406 481 1766 481 
L 2356 481 
L 2356 0 
L 1766 0 
Q 1100 0 847 248 
Q 594 497 594 1153 
L 594 3053 
L 172 3053 
L 172 3500 
L 594 3500 
L 594 4494 
L 1172 4494 
z
" transform="scale(0.015625)"/>
     </defs>
     <use xlink:href="#DejaVuSans-46"/>
     <use xlink:href="#DejaVuSans-72" x="50.269531"/>
     <use xlink:href="#DejaVuSans-69" x="91.382812"/>
     <use xlink:href="#DejaVuSans-65" x="119.166016"/>
     <use xlink:href="#DejaVuSans-64" x="180.689453"/>
     <use xlink:href="#DejaVuSans-72" x="244.166016"/>
     <use xlink:href="#DejaVuSans-69" x="285.279297"/>
     <use xlink:href="#DejaVuSans-63" x="313.0625"/>
     <use xlink:href="#DejaVuSans-68" x="368.042969"/>
     <use xlink:href="#DejaVuSans-73" x="431.421875"/>
     <use xlink:href="#DejaVuSans-68" x="483.521484"/>
     <use xlink:href="#DejaVuSans-61" x="546.900391"/>
     <use xlink:href="#DejaVuSans-69" x="608.179688"/>
     <use xlink:href="#DejaVuSans-6e" x="635.962891"/>
     <use xlink:href="#DejaVuSans-5f" x="699.341797"/>
     <use xlink:href="#DejaVuSans-4f" x="749.341797"/>
     <use xlink:href="#DejaVuSans-73" x="828.052734"/>
     <use xlink:href="#DejaVuSans-74" x="880.152344"/>
    </g>
   </g>
  </g>
 </g>
 <defs>
  <clipPath id="p76899276ae">
   <rect x="146.350546" y="41.472" width="179.618909" height="266.112"/>
  </clipPath>
 </defs>
</svg>
