<?xml version="1.0" encoding="utf-8" standalone="no"?>
<!DOCTYPE svg PUBLIC "-//W3C//DTD SVG 1.1//EN"
  "http://www.w3.org/Graphics/SVG/1.1/DTD/svg11.dtd">
<svg xmlns:xlink="http://www.w3.org/1999/xlink" width="460.8pt" height="345.6pt" viewBox="0 0 460.8 345.6" xmlns="http://www.w3.org/2000/svg" version="1.1">
 <metadata>
  <rdf:RDF xmlns:dc="http://purl.org/dc/elements/1.1/" xmlns:cc="http://creativecommons.org/ns#" xmlns:rdf="http://www.w3.org/1999/02/22-rdf-syntax-ns#">
   <cc:Work>
    <dc:type rdf:resource="http://purl.org/dc/dcmitype/StillImage"/>
    <dc:date>2024-10-15T09:53:28.088859</dc:date>
    <dc:format>image/svg+xml</dc:format>
    <dc:creator>
     <cc:Agent>
      <dc:title>Matplotlib v3.8.4, https://matplotlib.org/</dc:title>
     </cc:Agent>
    </dc:creator>
   </cc:Work>
  </rdf:RDF>
 </metadata>
 <defs>
  <style type="text/css">*{stroke-linejoin: round; stroke-linecap: butt}</style>
 </defs>
 <g id="figure_1">
  <g id="patch_1">
   <path d="M 0 345.6 
L 460.8 345.6 
L 460.8 0 
L 0 0 
z
" style="fill: #ffffff"/>
  </g>
  <g id="axes_1">
   <g id="patch_2">
    <path d="M 128.448707 307.584 
L 343.871293 307.584 
L 343.871293 41.472 
L 128.448707 41.472 
z
" style="fill: #ffffff"/>
   </g>
   <g id="PatchCollection_1">
    <path d="M 161.531107 282.920985 
L 162.094897 284.467083 
L 163.127841 287.299888 
L 163.514052 288.051378 
L 164.163405 288.688444 
L 164.174345 288.699178 
L 171.096573 295.488 
L 171.65308 294.51713 
L 172.910208 292.323947 
L 173.469445 291.348381 
L 174.626982 291.025148 
L 180.034819 289.515237 
L 182.800842 290.232712 
L 186.216931 288.877103 
L 188.444181 288.588661 
L 189.359849 288.470075 
L 190.081328 288.873216 
L 190.838814 289.296438 
L 191.541694 289.689158 
L 192.088985 289.116745 
L 194.607532 286.482654 
L 195.220256 285.841799 
L 196.154866 285.682663 
L 201.917214 284.701431 
L 229.615192 281.063475 
L 231.461566 280.821136 
L 232.6205 279.798151 
L 244.912042 268.949592 
L 245.710526 268.244948 
L 246.341309 267.407935 
L 251.81876 260.140356 
L 253.889877 257.392353 
L 261.832485 247.860586 
L 262.846636 246.643556 
L 263.171165 246.41389 
L 264.111327 245.748585 
L 273.148543 239.353812 
L 274.122981 238.648086 
L 283.438106 231.901264 
L 284.529147 231.111113 
L 286.048766 231.186784 
L 299.103441 231.837516 
L 300.127113 231.888576 
L 300.620667 231.098352 
L 309.163507 217.421838 
L 317.538655 207.491129 
L 318.883567 205.896443 
L 319.265488 204.083556 
L 321.398251 193.959926 
L 321.775268 191.88071 
L 322.041063 190.414703 
L 322.298209 188.960841 
L 325.234767 172.360495 
L 325.691626 169.778076 
L 325.779868 167.171253 
L 325.932725 162.653464 
L 325.988318 161.011323 
L 325.822093 159.819841 
L 325.319068 156.214812 
L 324.844449 152.812948 
L 323.66826 144.383664 
L 323.500343 143.180476 
L 324.006995 142.05082 
L 327.868104 133.442036 
L 329.786816 129.163671 
L 330.438055 127.711573 
L 330.256111 126.271002 
L 329.592865 121.02027 
L 323.264217 110.120306 
L 322.336582 104.149212 
L 321.952833 101.679046 
L 322.715457 99.158039 
L 324.216301 94.197084 
L 327.826099 89.050779 
L 328.933818 87.471622 
L 328.88736 85.504698 
L 328.745132 79.478941 
L 329.417423 72.142913 
L 329.661566 69.479113 
L 332.109061 67.036298 
L 334.079357 65.069865 
L 332.346905 64.478563 
L 321.19282 60.672122 
L 319.316189 60.031787 
L 319.23038 60.022512 
L 319.211591 60.020501 
L 316.81404 59.763945 
L 316.372847 59.724617 
L 315.569538 59.646499 
L 315.205375 59.611232 
L 311.360447 59.241002 
L 309.343905 59.181068 
L 308.793271 59.164728 
L 306.670502 59.041174 
L 306.111976 59.017394 
L 306.050358 59.013548 
L 305.939888 58.998308 
L 305.616065 58.953588 
L 305.603417 58.951873 
L 305.585911 58.950562 
L 305.468602 58.941844 
L 305.467091 58.941737 
L 305.427316 58.938923 
L 304.015098 58.830603 
L 303.132872 58.762886 
L 302.697463 58.747687 
L 302.468475 58.739725 
L 301.766661 58.715723 
L 300.657173 58.479352 
L 300.076862 58.355397 
L 298.315665 58.11055 
L 298.134527 58.085351 
L 297.026926 57.971382 
L 293.048538 57.562038 
L 286.978905 56.901727 
L 283.325099 56.510579 
L 281.752883 56.328455 
L 278.238039 56.11605 
L 276.893166 55.961412 
L 276.436743 55.909104 
L 276.21076 55.885911 
L 274.732089 55.734096 
L 274.630841 55.723727 
L 268.591154 55.103821 
L 262.951328 54.552433 
L 257.321179 54.044271 
L 253.886321 53.73098 
L 253.763061 53.719853 
L 253.636397 53.708428 
L 253.416433 53.688093 
L 253.105985 53.659407 
L 253.021991 53.651522 
L 252.862249 53.636488 
L 252.797136 53.63026 
L 252.646126 53.617108 
L 252.371902 53.593215 
L 252.227 53.580644 
L 252.185326 53.574974 
L 252.124711 53.568 
L 251.948132 53.779937 
L 249.904369 56.232553 
L 248.325754 58.127112 
L 247.582916 59.018467 
L 247.447933 59.180479 
L 246.306598 60.531506 
L 245.100668 61.958949 
L 242.944788 64.510921 
L 240.947378 66.875359 
L 240.859051 66.979984 
L 240.561897 67.194007 
L 238.788305 69.345557 
L 237.890466 70.397559 
L 237.081427 71.16455 
L 236.999731 71.242172 
L 236.815625 71.417064 
L 235.116835 73.031851 
L 234.489481 73.735223 
L 234.003382 74.280273 
L 233.318676 75.155606 
L 233.17781 75.335706 
L 231.207923 77.854394 
L 229.863624 79.577044 
L 229.704775 79.780586 
L 228.082918 81.859035 
L 227.048623 83.207162 
L 226.902607 83.397538 
L 225.954315 84.633663 
L 223.809429 87.350857 
L 221.74263 89.970619 
L 218.303107 94.369975 
L 215.519287 97.896494 
L 215.485314 97.939465 
L 215.451747 97.981934 
L 215.264257 98.219413 
L 215.108571 98.416679 
L 212.900093 101.230263 
L 211.831777 102.591326 
L 210.783924 103.93752 
L 208.682882 106.608422 
L 204.322109 112.165094 
L 204.104814 112.441522 
L 203.499185 113.20882 
L 202.183524 114.88188 
L 200.642952 116.836036 
L 200.011135 117.638577 
L 198.406582 119.700944 
L 197.872318 120.387312 
L 195.681417 123.189096 
L 193.499154 125.9729 
L 191.317494 128.757033 
L 189.147783 131.513277 
L 186.959222 134.232189 
L 186.858411 134.359056 
L 186.39799 134.942833 
L 184.131114 137.813252 
L 183.484368 138.630838 
L 182.510416 139.603699 
L 179.999744 141.989262 
L 179.285205 142.639124 
L 178.59606 143.170568 
L 173.111936 144.762575 
L 171.658966 145.074207 
L 168.834673 145.754841 
L 168.328181 145.911025 
L 167.100338 146.28625 
L 166.530615 146.449421 
L 165.301515 146.860893 
L 165.120213 146.801045 
L 164.872022 146.719117 
L 164.642788 146.90372 
L 163.181784 147.263202 
L 162.099362 147.536937 
L 161.59271 147.664978 
L 159.763866 148.191492 
L 159.067323 148.277739 
L 158.196767 148.385233 
L 158.18514 148.681008 
L 158.173425 148.978786 
L 158.162958 149.245135 
L 157.95709 154.44325 
L 157.873209 157.311235 
L 157.853475 157.964048 
L 157.852899 157.98227 
L 157.842573 158.302462 
L 157.860641 159.082081 
L 157.822827 159.323572 
L 157.776948 159.814721 
L 157.689554 160.071294 
L 157.688213 160.077608 
L 157.404754 161.299352 
L 157.397631 161.329566 
L 157.364875 161.647082 
L 157.231947 162.935436 
L 157.106509 164.148385 
L 154.662343 170.390323 
L 149.726601 176.690628 
L 148.915222 177.726151 
L 149.310472 182.33202 
L 144.322064 186.90618 
L 141.235611 193.886354 
L 142.307542 197.779158 
L 143.308317 201.41516 
L 143.099565 208.688184 
L 141.107644 215.970159 
L 144.589473 218.974122 
L 145.483328 219.745102 
L 145.560092 219.811354 
L 145.639253 219.879614 
L 145.683962 220.025986 
L 145.752728 220.251147 
L 145.775696 220.37676 
L 145.84472 220.75009 
L 145.917483 221.147491 
L 145.98965 221.731424 
L 146.091514 223.056367 
L 146.101686 223.160777 
L 146.157566 223.766816 
L 146.212732 224.357544 
L 146.268428 224.953871 
L 146.222511 225.332984 
L 146.18975 225.603497 
L 146.127544 226.117355 
L 146.087962 226.444244 
L 146.007523 227.108122 
L 146.00157 227.157565 
L 145.997309 227.192721 
L 145.977532 227.356007 
L 145.897039 227.973512 
L 145.878229 228.133651 
L 145.804977 228.671898 
L 145.734673 229.21989 
L 145.725166 229.294017 
L 145.69223 229.592668 
L 145.659299 229.766612 
L 145.647001 229.831621 
L 145.47912 230.718581 
L 145.380235 231.446332 
L 145.357853 231.668023 
L 145.13752 233.040102 
L 145.083109 233.401863 
L 145.008166 234.344829 
L 144.995333 234.506075 
L 144.802117 236.93726 
L 144.736742 237.760075 
L 144.69733 237.89462 
L 144.336716 239.126026 
L 144.24906 239.425305 
L 143.855015 240.77086 
L 143.13575 242.627559 
L 142.481696 244.093767 
L 140.836684 247.019384 
L 140.765222 247.139932 
L 139.703175 248.930956 
L 138.869684 250.762152 
L 138.280894 252.247256 
L 138.240643 252.492781 
L 140.044998 254.923187 
L 141.740223 257.203669 
L 143.545444 259.632195 
L 145.365638 262.074975 
L 147.097354 264.399103 
L 147.668334 265.174273 
L 148.56219 266.387759 
L 150.627185 269.18129 
L 152.662753 271.935135 
L 155.661354 273.801709 
L 157.370795 275.170715 
L 159.360112 276.765808 
L 161.32875 278.34438 
L 161.624712 279.259519 
L 161.362162 281.198721 
L 161.354912 281.766915 
L 161.346247 282.413935 
L 161.41492 282.602306 
L 161.470642 282.755165 
L 161.531107 282.920985 
" clip-path="url(#p07edaef46f)" style="fill: #1f77b4"/>
   </g>
   <g id="matplotlib.axis_1">
    <g id="xtick_1">
     <g id="line2d_1">
      <defs>
       <path id="mcf97444e81" d="M 0 0 
L 0 3.5 
" style="stroke: #000000; stroke-width: 0.8"/>
      </defs>
      <g>
       <use xlink:href="#mcf97444e81" x="163.678923" y="307.584" style="stroke: #000000; stroke-width: 0.8"/>
      </g>
     </g>
     <g id="text_1">
      <!-- 13.12 -->
      <g transform="translate(149.36486 322.182437) scale(0.1 -0.1)">
       <defs>
        <path id="DejaVuSans-31" d="M 794 531 
L 1825 531 
L 1825 4091 
L 703 3866 
L 703 4441 
L 1819 4666 
L 2450 4666 
L 2450 531 
L 3481 531 
L 3481 0 
L 794 0 
L 794 531 
z
" transform="scale(0.015625)"/>
        <path id="DejaVuSans-33" d="M 2597 2516 
Q 3050 2419 3304 2112 
Q 3559 1806 3559 1356 
Q 3559 666 3084 287 
Q 2609 -91 1734 -91 
Q 1441 -91 1130 -33 
Q 819 25 488 141 
L 488 750 
Q 750 597 1062 519 
Q 1375 441 1716 441 
Q 2309 441 2620 675 
Q 2931 909 2931 1356 
Q 2931 1769 2642 2001 
Q 2353 2234 1838 2234 
L 1294 2234 
L 1294 2753 
L 1863 2753 
Q 2328 2753 2575 2939 
Q 2822 3125 2822 3475 
Q 2822 3834 2567 4026 
Q 2313 4219 1838 4219 
Q 1578 4219 1281 4162 
Q 984 4106 628 3988 
L 628 4550 
Q 988 4650 1302 4700 
Q 1616 4750 1894 4750 
Q 2613 4750 3031 4423 
Q 3450 4097 3450 3541 
Q 3450 3153 3228 2886 
Q 3006 2619 2597 2516 
z
" transform="scale(0.015625)"/>
        <path id="DejaVuSans-2e" d="M 684 794 
L 1344 794 
L 1344 0 
L 684 0 
L 684 794 
z
" transform="scale(0.015625)"/>
        <path id="DejaVuSans-32" d="M 1228 531 
L 3431 531 
L 3431 0 
L 469 0 
L 469 531 
Q 828 903 1448 1529 
Q 2069 2156 2228 2338 
Q 2531 2678 2651 2914 
Q 2772 3150 2772 3378 
Q 2772 3750 2511 3984 
Q 2250 4219 1831 4219 
Q 1534 4219 1204 4116 
Q 875 4013 500 3803 
L 500 4441 
Q 881 4594 1212 4672 
Q 1544 4750 1819 4750 
Q 2544 4750 2975 4387 
Q 3406 4025 3406 3419 
Q 3406 3131 3298 2873 
Q 3191 2616 2906 2266 
Q 2828 2175 2409 1742 
Q 1991 1309 1228 531 
z
" transform="scale(0.015625)"/>
       </defs>
       <use xlink:href="#DejaVuSans-31"/>
       <use xlink:href="#DejaVuSans-33" x="63.623047"/>
       <use xlink:href="#DejaVuSans-2e" x="127.246094"/>
       <use xlink:href="#DejaVuSans-31" x="159.033203"/>
       <use xlink:href="#DejaVuSans-32" x="222.65625"/>
      </g>
     </g>
    </g>
    <g id="xtick_2">
     <g id="line2d_2">
      <g>
       <use xlink:href="#mcf97444e81" x="211.210866" y="307.584" style="stroke: #000000; stroke-width: 0.8"/>
      </g>
     </g>
     <g id="text_2">
      <!-- 13.14 -->
      <g transform="translate(196.896804 322.182437) scale(0.1 -0.1)">
       <defs>
        <path id="DejaVuSans-34" d="M 2419 4116 
L 825 1625 
L 2419 1625 
L 2419 4116 
z
M 2253 4666 
L 3047 4666 
L 3047 1625 
L 3713 1625 
L 3713 1100 
L 3047 1100 
L 3047 0 
L 2419 0 
L 2419 1100 
L 313 1100 
L 313 1709 
L 2253 4666 
z
" transform="scale(0.015625)"/>
       </defs>
       <use xlink:href="#DejaVuSans-31"/>
       <use xlink:href="#DejaVuSans-33" x="63.623047"/>
       <use xlink:href="#DejaVuSans-2e" x="127.246094"/>
       <use xlink:href="#DejaVuSans-31" x="159.033203"/>
       <use xlink:href="#DejaVuSans-34" x="222.65625"/>
      </g>
     </g>
    </g>
    <g id="xtick_3">
     <g id="line2d_3">
      <g>
       <use xlink:href="#mcf97444e81" x="258.74281" y="307.584" style="stroke: #000000; stroke-width: 0.8"/>
      </g>
     </g>
     <g id="text_3">
      <!-- 13.16 -->
      <g transform="translate(244.428747 322.182437) scale(0.1 -0.1)">
       <defs>
        <path id="DejaVuSans-36" d="M 2113 2584 
Q 1688 2584 1439 2293 
Q 1191 2003 1191 1497 
Q 1191 994 1439 701 
Q 1688 409 2113 409 
Q 2538 409 2786 701 
Q 3034 994 3034 1497 
Q 3034 2003 2786 2293 
Q 2538 2584 2113 2584 
z
M 3366 4563 
L 3366 3988 
Q 3128 4100 2886 4159 
Q 2644 4219 2406 4219 
Q 1781 4219 1451 3797 
Q 1122 3375 1075 2522 
Q 1259 2794 1537 2939 
Q 1816 3084 2150 3084 
Q 2853 3084 3261 2657 
Q 3669 2231 3669 1497 
Q 3669 778 3244 343 
Q 2819 -91 2113 -91 
Q 1303 -91 875 529 
Q 447 1150 447 2328 
Q 447 3434 972 4092 
Q 1497 4750 2381 4750 
Q 2619 4750 2861 4703 
Q 3103 4656 3366 4563 
z
" transform="scale(0.015625)"/>
       </defs>
       <use xlink:href="#DejaVuSans-31"/>
       <use xlink:href="#DejaVuSans-33" x="63.623047"/>
       <use xlink:href="#DejaVuSans-2e" x="127.246094"/>
       <use xlink:href="#DejaVuSans-31" x="159.033203"/>
       <use xlink:href="#DejaVuSans-36" x="222.65625"/>
      </g>
     </g>
    </g>
    <g id="xtick_4">
     <g id="line2d_4">
      <g>
       <use xlink:href="#mcf97444e81" x="306.274753" y="307.584" style="stroke: #000000; stroke-width: 0.8"/>
      </g>
     </g>
     <g id="text_4">
      <!-- 13.18 -->
      <g transform="translate(291.960691 322.182437) scale(0.1 -0.1)">
       <defs>
        <path id="DejaVuSans-38" d="M 2034 2216 
Q 1584 2216 1326 1975 
Q 1069 1734 1069 1313 
Q 1069 891 1326 650 
Q 1584 409 2034 409 
Q 2484 409 2743 651 
Q 3003 894 3003 1313 
Q 3003 1734 2745 1975 
Q 2488 2216 2034 2216 
z
M 1403 2484 
Q 997 2584 770 2862 
Q 544 3141 544 3541 
Q 544 4100 942 4425 
Q 1341 4750 2034 4750 
Q 2731 4750 3128 4425 
Q 3525 4100 3525 3541 
Q 3525 3141 3298 2862 
Q 3072 2584 2669 2484 
Q 3125 2378 3379 2068 
Q 3634 1759 3634 1313 
Q 3634 634 3220 271 
Q 2806 -91 2034 -91 
Q 1263 -91 848 271 
Q 434 634 434 1313 
Q 434 1759 690 2068 
Q 947 2378 1403 2484 
z
M 1172 3481 
Q 1172 3119 1398 2916 
Q 1625 2713 2034 2713 
Q 2441 2713 2670 2916 
Q 2900 3119 2900 3481 
Q 2900 3844 2670 4047 
Q 2441 4250 2034 4250 
Q 1625 4250 1398 4047 
Q 1172 3844 1172 3481 
z
" transform="scale(0.015625)"/>
       </defs>
       <use xlink:href="#DejaVuSans-31"/>
       <use xlink:href="#DejaVuSans-33" x="63.623047"/>
       <use xlink:href="#DejaVuSans-2e" x="127.246094"/>
       <use xlink:href="#DejaVuSans-31" x="159.033203"/>
       <use xlink:href="#DejaVuSans-38" x="222.65625"/>
      </g>
     </g>
    </g>
   </g>
   <g id="matplotlib.axis_2">
    <g id="ytick_1">
     <g id="line2d_5">
      <defs>
       <path id="m28888a6d4a" d="M 0 0 
L -3.5 0 
" style="stroke: #000000; stroke-width: 0.8"/>
      </defs>
      <g>
       <use xlink:href="#m28888a6d4a" x="128.448707" y="293.985905" style="stroke: #000000; stroke-width: 0.8"/>
      </g>
     </g>
     <g id="text_5">
      <!-- 52.44 -->
      <g transform="translate(92.820582 297.785124) scale(0.1 -0.1)">
       <defs>
        <path id="DejaVuSans-35" d="M 691 4666 
L 3169 4666 
L 3169 4134 
L 1269 4134 
L 1269 2991 
Q 1406 3038 1543 3061 
Q 1681 3084 1819 3084 
Q 2600 3084 3056 2656 
Q 3513 2228 3513 1497 
Q 3513 744 3044 326 
Q 2575 -91 1722 -91 
Q 1428 -91 1123 -41 
Q 819 9 494 109 
L 494 744 
Q 775 591 1075 516 
Q 1375 441 1709 441 
Q 2250 441 2565 725 
Q 2881 1009 2881 1497 
Q 2881 1984 2565 2268 
Q 2250 2553 1709 2553 
Q 1456 2553 1204 2497 
Q 953 2441 691 2322 
L 691 4666 
z
" transform="scale(0.015625)"/>
       </defs>
       <use xlink:href="#DejaVuSans-35"/>
       <use xlink:href="#DejaVuSans-32" x="63.623047"/>
       <use xlink:href="#DejaVuSans-2e" x="127.246094"/>
       <use xlink:href="#DejaVuSans-34" x="159.033203"/>
       <use xlink:href="#DejaVuSans-34" x="222.65625"/>
      </g>
     </g>
    </g>
    <g id="ytick_2">
     <g id="line2d_6">
      <g>
       <use xlink:href="#m28888a6d4a" x="128.448707" y="254.972095" style="stroke: #000000; stroke-width: 0.8"/>
      </g>
     </g>
     <g id="text_6">
      <!-- 52.45 -->
      <g transform="translate(92.820582 258.771313) scale(0.1 -0.1)">
       <use xlink:href="#DejaVuSans-35"/>
       <use xlink:href="#DejaVuSans-32" x="63.623047"/>
       <use xlink:href="#DejaVuSans-2e" x="127.246094"/>
       <use xlink:href="#DejaVuSans-34" x="159.033203"/>
       <use xlink:href="#DejaVuSans-35" x="222.65625"/>
      </g>
     </g>
    </g>
    <g id="ytick_3">
     <g id="line2d_7">
      <g>
       <use xlink:href="#m28888a6d4a" x="128.448707" y="215.958284" style="stroke: #000000; stroke-width: 0.8"/>
      </g>
     </g>
     <g id="text_7">
      <!-- 52.46 -->
      <g transform="translate(92.820582 219.757503) scale(0.1 -0.1)">
       <use xlink:href="#DejaVuSans-35"/>
       <use xlink:href="#DejaVuSans-32" x="63.623047"/>
       <use xlink:href="#DejaVuSans-2e" x="127.246094"/>
       <use xlink:href="#DejaVuSans-34" x="159.033203"/>
       <use xlink:href="#DejaVuSans-36" x="222.65625"/>
      </g>
     </g>
    </g>
    <g id="ytick_4">
     <g id="line2d_8">
      <g>
       <use xlink:href="#m28888a6d4a" x="128.448707" y="176.944473" style="stroke: #000000; stroke-width: 0.8"/>
      </g>
     </g>
     <g id="text_8">
      <!-- 52.47 -->
      <g transform="translate(92.820582 180.743692) scale(0.1 -0.1)">
       <defs>
        <path id="DejaVuSans-37" d="M 525 4666 
L 3525 4666 
L 3525 4397 
L 1831 0 
L 1172 0 
L 2766 4134 
L 525 4134 
L 525 4666 
z
" transform="scale(0.015625)"/>
       </defs>
       <use xlink:href="#DejaVuSans-35"/>
       <use xlink:href="#DejaVuSans-32" x="63.623047"/>
       <use xlink:href="#DejaVuSans-2e" x="127.246094"/>
       <use xlink:href="#DejaVuSans-34" x="159.033203"/>
       <use xlink:href="#DejaVuSans-37" x="222.65625"/>
      </g>
     </g>
    </g>
    <g id="ytick_5">
     <g id="line2d_9">
      <g>
       <use xlink:href="#m28888a6d4a" x="128.448707" y="137.930662" style="stroke: #000000; stroke-width: 0.8"/>
      </g>
     </g>
     <g id="text_9">
      <!-- 52.48 -->
      <g transform="translate(92.820582 141.729881) scale(0.1 -0.1)">
       <use xlink:href="#DejaVuSans-35"/>
       <use xlink:href="#DejaVuSans-32" x="63.623047"/>
       <use xlink:href="#DejaVuSans-2e" x="127.246094"/>
       <use xlink:href="#DejaVuSans-34" x="159.033203"/>
       <use xlink:href="#DejaVuSans-38" x="222.65625"/>
      </g>
     </g>
    </g>
    <g id="ytick_6">
     <g id="line2d_10">
      <g>
       <use xlink:href="#m28888a6d4a" x="128.448707" y="98.916852" style="stroke: #000000; stroke-width: 0.8"/>
      </g>
     </g>
     <g id="text_10">
      <!-- 52.49 -->
      <g transform="translate(92.820582 102.71607) scale(0.1 -0.1)">
       <defs>
        <path id="DejaVuSans-39" d="M 703 97 
L 703 672 
Q 941 559 1184 500 
Q 1428 441 1663 441 
Q 2288 441 2617 861 
Q 2947 1281 2994 2138 
Q 2813 1869 2534 1725 
Q 2256 1581 1919 1581 
Q 1219 1581 811 2004 
Q 403 2428 403 3163 
Q 403 3881 828 4315 
Q 1253 4750 1959 4750 
Q 2769 4750 3195 4129 
Q 3622 3509 3622 2328 
Q 3622 1225 3098 567 
Q 2575 -91 1691 -91 
Q 1453 -91 1209 -44 
Q 966 3 703 97 
z
M 1959 2075 
Q 2384 2075 2632 2365 
Q 2881 2656 2881 3163 
Q 2881 3666 2632 3958 
Q 2384 4250 1959 4250 
Q 1534 4250 1286 3958 
Q 1038 3666 1038 3163 
Q 1038 2656 1286 2365 
Q 1534 2075 1959 2075 
z
" transform="scale(0.015625)"/>
       </defs>
       <use xlink:href="#DejaVuSans-35"/>
       <use xlink:href="#DejaVuSans-32" x="63.623047"/>
       <use xlink:href="#DejaVuSans-2e" x="127.246094"/>
       <use xlink:href="#DejaVuSans-34" x="159.033203"/>
       <use xlink:href="#DejaVuSans-39" x="222.65625"/>
      </g>
     </g>
    </g>
    <g id="ytick_7">
     <g id="line2d_11">
      <g>
       <use xlink:href="#m28888a6d4a" x="128.448707" y="59.903041" style="stroke: #000000; stroke-width: 0.8"/>
      </g>
     </g>
     <g id="text_11">
      <!-- 52.50 -->
      <g transform="translate(92.820582 63.70226) scale(0.1 -0.1)">
       <defs>
        <path id="DejaVuSans-30" d="M 2034 4250 
Q 1547 4250 1301 3770 
Q 1056 3291 1056 2328 
Q 1056 1369 1301 889 
Q 1547 409 2034 409 
Q 2525 409 2770 889 
Q 3016 1369 3016 2328 
Q 3016 3291 2770 3770 
Q 2525 4250 2034 4250 
z
M 2034 4750 
Q 2819 4750 3233 4129 
Q 3647 3509 3647 2328 
Q 3647 1150 3233 529 
Q 2819 -91 2034 -91 
Q 1250 -91 836 529 
Q 422 1150 422 2328 
Q 422 3509 836 4129 
Q 1250 4750 2034 4750 
z
" transform="scale(0.015625)"/>
       </defs>
       <use xlink:href="#DejaVuSans-35"/>
       <use xlink:href="#DejaVuSans-32" x="63.623047"/>
       <use xlink:href="#DejaVuSans-2e" x="127.246094"/>
       <use xlink:href="#DejaVuSans-35" x="159.033203"/>
       <use xlink:href="#DejaVuSans-30" x="222.65625"/>
      </g>
     </g>
    </g>
   </g>
   <g id="patch_3">
    <path d="M 128.448707 307.584 
L 128.448707 41.472 
" style="fill: none; stroke: #000000; stroke-width: 0.8; stroke-linejoin: miter; stroke-linecap: square"/>
   </g>
   <g id="patch_4">
    <path d="M 343.871293 307.584 
L 343.871293 41.472 
" style="fill: none; stroke: #000000; stroke-width: 0.8; stroke-linejoin: miter; stroke-linecap: square"/>
   </g>
   <g id="patch_5">
    <path d="M 128.448707 307.584 
L 343.871293 307.584 
" style="fill: none; stroke: #000000; stroke-width: 0.8; stroke-linejoin: miter; stroke-linecap: square"/>
   </g>
   <g id="patch_6">
    <path d="M 128.448707 41.472 
L 343.871293 41.472 
" style="fill: none; stroke: #000000; stroke-width: 0.8; stroke-linejoin: miter; stroke-linecap: square"/>
   </g>
   <g id="text_12">
    <!-- Gatow___Kladow -->
    <g transform="translate(188.972404 177.01759) scale(0.12 -0.12)">
     <defs>
      <path id="DejaVuSans-47" d="M 3809 666 
L 3809 1919 
L 2778 1919 
L 2778 2438 
L 4434 2438 
L 4434 434 
Q 4069 175 3628 42 
Q 3188 -91 2688 -91 
Q 1594 -91 976 548 
Q 359 1188 359 2328 
Q 359 3472 976 4111 
Q 1594 4750 2688 4750 
Q 3144 4750 3555 4637 
Q 3966 4525 4313 4306 
L 4313 3634 
Q 3963 3931 3569 4081 
Q 3175 4231 2741 4231 
Q 1884 4231 1454 3753 
Q 1025 3275 1025 2328 
Q 1025 1384 1454 906 
Q 1884 428 2741 428 
Q 3075 428 3337 486 
Q 3600 544 3809 666 
z
" transform="scale(0.015625)"/>
      <path id="DejaVuSans-61" d="M 2194 1759 
Q 1497 1759 1228 1600 
Q 959 1441 959 1056 
Q 959 750 1161 570 
Q 1363 391 1709 391 
Q 2188 391 2477 730 
Q 2766 1069 2766 1631 
L 2766 1759 
L 2194 1759 
z
M 3341 1997 
L 3341 0 
L 2766 0 
L 2766 531 
Q 2569 213 2275 61 
Q 1981 -91 1556 -91 
Q 1019 -91 701 211 
Q 384 513 384 1019 
Q 384 1609 779 1909 
Q 1175 2209 1959 2209 
L 2766 2209 
L 2766 2266 
Q 2766 2663 2505 2880 
Q 2244 3097 1772 3097 
Q 1472 3097 1187 3025 
Q 903 2953 641 2809 
L 641 3341 
Q 956 3463 1253 3523 
Q 1550 3584 1831 3584 
Q 2591 3584 2966 3190 
Q 3341 2797 3341 1997 
z
" transform="scale(0.015625)"/>
      <path id="DejaVuSans-74" d="M 1172 4494 
L 1172 3500 
L 2356 3500 
L 2356 3053 
L 1172 3053 
L 1172 1153 
Q 1172 725 1289 603 
Q 1406 481 1766 481 
L 2356 481 
L 2356 0 
L 1766 0 
Q 1100 0 847 248 
Q 594 497 594 1153 
L 594 3053 
L 172 3053 
L 172 3500 
L 594 3500 
L 594 4494 
L 1172 4494 
z
" transform="scale(0.015625)"/>
      <path id="DejaVuSans-6f" d="M 1959 3097 
Q 1497 3097 1228 2736 
Q 959 2375 959 1747 
Q 959 1119 1226 758 
Q 1494 397 1959 397 
Q 2419 397 2687 759 
Q 2956 1122 2956 1747 
Q 2956 2369 2687 2733 
Q 2419 3097 1959 3097 
z
M 1959 3584 
Q 2709 3584 3137 3096 
Q 3566 2609 3566 1747 
Q 3566 888 3137 398 
Q 2709 -91 1959 -91 
Q 1206 -91 779 398 
Q 353 888 353 1747 
Q 353 2609 779 3096 
Q 1206 3584 1959 3584 
z
" transform="scale(0.015625)"/>
      <path id="DejaVuSans-77" d="M 269 3500 
L 844 3500 
L 1563 769 
L 2278 3500 
L 2956 3500 
L 3675 769 
L 4391 3500 
L 4966 3500 
L 4050 0 
L 3372 0 
L 2619 2869 
L 1863 0 
L 1184 0 
L 269 3500 
z
" transform="scale(0.015625)"/>
      <path id="DejaVuSans-5f" d="M 3263 -1063 
L 3263 -1509 
L -63 -1509 
L -63 -1063 
L 3263 -1063 
z
" transform="scale(0.015625)"/>
      <path id="DejaVuSans-4b" d="M 628 4666 
L 1259 4666 
L 1259 2694 
L 3353 4666 
L 4166 4666 
L 1850 2491 
L 4331 0 
L 3500 0 
L 1259 2247 
L 1259 0 
L 628 0 
L 628 4666 
z
" transform="scale(0.015625)"/>
      <path id="DejaVuSans-6c" d="M 603 4863 
L 1178 4863 
L 1178 0 
L 603 0 
L 603 4863 
z
" transform="scale(0.015625)"/>
      <path id="DejaVuSans-64" d="M 2906 2969 
L 2906 4863 
L 3481 4863 
L 3481 0 
L 2906 0 
L 2906 525 
Q 2725 213 2448 61 
Q 2172 -91 1784 -91 
Q 1150 -91 751 415 
Q 353 922 353 1747 
Q 353 2572 751 3078 
Q 1150 3584 1784 3584 
Q 2172 3584 2448 3432 
Q 2725 3281 2906 2969 
z
M 947 1747 
Q 947 1113 1208 752 
Q 1469 391 1925 391 
Q 2381 391 2643 752 
Q 2906 1113 2906 1747 
Q 2906 2381 2643 2742 
Q 2381 3103 1925 3103 
Q 1469 3103 1208 2742 
Q 947 2381 947 1747 
z
" transform="scale(0.015625)"/>
     </defs>
     <use xlink:href="#DejaVuSans-47"/>
     <use xlink:href="#DejaVuSans-61" x="77.490234"/>
     <use xlink:href="#DejaVuSans-74" x="138.769531"/>
     <use xlink:href="#DejaVuSans-6f" x="177.978516"/>
     <use xlink:href="#DejaVuSans-77" x="239.160156"/>
     <use xlink:href="#DejaVuSans-5f" x="320.947266"/>
     <use xlink:href="#DejaVuSans-5f" x="370.947266"/>
     <use xlink:href="#DejaVuSans-5f" x="420.947266"/>
     <use xlink:href="#DejaVuSans-4b" x="470.947266"/>
     <use xlink:href="#DejaVuSans-6c" x="536.523438"/>
     <use xlink:href="#DejaVuSans-61" x="564.306641"/>
     <use xlink:href="#DejaVuSans-64" x="625.585938"/>
     <use xlink:href="#DejaVuSans-6f" x="689.0625"/>
     <use xlink:href="#DejaVuSans-77" x="750.244141"/>
    </g>
   </g>
  </g>
 </g>
 <defs>
  <clipPath id="p07edaef46f">
   <rect x="128.448707" y="41.472" width="215.422585" height="266.112"/>
  </clipPath>
 </defs>
</svg>
