<?xml version="1.0" encoding="utf-8" standalone="no"?>
<!DOCTYPE svg PUBLIC "-//W3C//DTD SVG 1.1//EN"
  "http://www.w3.org/Graphics/SVG/1.1/DTD/svg11.dtd">
<svg xmlns:xlink="http://www.w3.org/1999/xlink" width="460.8pt" height="345.6pt" viewBox="0 0 460.8 345.6" xmlns="http://www.w3.org/2000/svg" version="1.1">
 <metadata>
  <rdf:RDF xmlns:dc="http://purl.org/dc/elements/1.1/" xmlns:cc="http://creativecommons.org/ns#" xmlns:rdf="http://www.w3.org/1999/02/22-rdf-syntax-ns#">
   <cc:Work>
    <dc:type rdf:resource="http://purl.org/dc/dcmitype/StillImage"/>
    <dc:date>2024-10-15T09:53:28.004464</dc:date>
    <dc:format>image/svg+xml</dc:format>
    <dc:creator>
     <cc:Agent>
      <dc:title>Matplotlib v3.8.4, https://matplotlib.org/</dc:title>
     </cc:Agent>
    </dc:creator>
   </cc:Work>
  </rdf:RDF>
 </metadata>
 <defs>
  <style type="text/css">*{stroke-linejoin: round; stroke-linecap: butt}</style>
 </defs>
 <g id="figure_1">
  <g id="patch_1">
   <path d="M 0 345.6 
L 460.8 345.6 
L 460.8 0 
L 0 0 
z
" style="fill: #ffffff"/>
  </g>
  <g id="axes_1">
   <g id="patch_2">
    <path d="M 128.669815 307.584 
L 343.650185 307.584 
L 343.650185 41.472 
L 128.669815 41.472 
z
" style="fill: #ffffff"/>
   </g>
   <g id="PatchCollection_1">
    <path d="M 174.039048 230.886887 
L 173.044465 231.61445 
L 172.113021 232.295821 
L 170.704851 233.262283 
L 166.26696 235.840866 
L 161.60669 238.548639 
L 161.711587 238.76763 
L 161.962927 239.29226 
L 157.574487 242.663914 
L 156.428582 243.585221 
L 154.492875 244.916279 
L 153.14987 245.923495 
L 151.385878 247.240691 
L 150.956387 247.553512 
L 150.338807 248.00333 
L 146.104778 251.06298 
L 146.514935 251.54403 
L 145.17635 252.53837 
L 144.896787 252.210342 
L 144.249537 252.724714 
L 143.27322 253.500405 
L 140.185189 255.954309 
L 140.377188 256.039856 
L 139.050639 257.016593 
L 138.44165 257.463464 
L 139.134488 257.766341 
L 139.824179 258.069291 
L 141.699328 258.891071 
L 142.338122 259.169946 
L 145.147033 260.374332 
L 145.779603 260.656511 
L 146.040207 260.770473 
L 151.017812 262.97936 
L 151.463248 263.196396 
L 151.687895 263.390064 
L 151.714412 263.449411 
L 151.751865 263.435937 
L 151.765088 263.464034 
L 151.772021 263.492274 
L 151.782027 263.517288 
L 151.78896 263.545528 
L 151.795893 263.573768 
L 151.79968 263.60208 
L 151.800323 263.630463 
L 151.797821 263.658918 
L 151.795319 263.687373 
L 151.789672 263.715899 
L 151.784025 263.744426 
L 151.781595 263.776034 
L 151.779093 263.804489 
L 151.776662 263.836098 
L 151.78045 263.86441 
L 151.784309 263.895875 
L 151.791242 263.924115 
L 151.798175 263.952355 
L 151.805108 263.980595 
L 151.81833 264.008692 
L 151.831553 264.036788 
L 151.844704 264.061731 
L 151.861 264.086603 
L 151.879655 264.110032 
L 152.061011 264.209522 
L 152.752215 264.597156 
L 153.395104 264.957746 
L 153.521159 265.027385 
L 153.660845 265.101509 
L 153.803361 265.170016 
L 153.948517 265.232783 
L 154.095994 265.289692 
L 154.245666 265.340681 
L 154.33732 265.366866 
L 154.383699 265.377927 
L 154.495429 265.398606 
L 154.608425 265.411305 
L 154.721933 265.415978 
L 154.83557 265.412507 
L 154.948586 265.401036 
L 155.060602 265.38151 
L 155.170866 265.354136 
L 155.279004 265.318985 
L 155.384327 265.276262 
L 155.486398 265.226103 
L 155.58466 265.168901 
L 155.678675 265.10479 
L 155.767887 265.034226 
L 156.651467 264.284855 
L 156.766305 264.20929 
L 156.933579 264.117701 
L 157.102562 264.029293 
L 157.273131 263.944193 
L 157.445344 263.862274 
L 157.619082 263.783728 
L 157.763163 263.735075 
L 157.90915 263.692753 
L 158.056854 263.656829 
L 158.205963 263.62731 
L 158.356226 263.604327 
L 158.886738 263.554328 
L 158.976217 263.553933 
L 159.065595 263.55739 
L 159.154745 263.564701 
L 159.243479 263.575871 
L 159.364513 263.596088 
L 159.484534 263.621629 
L 159.603351 263.652309 
L 159.720773 263.688132 
L 159.836485 263.729043 
L 159.950358 263.774918 
L 160.062079 263.825764 
L 160.397301 263.986569 
L 160.371041 264.030268 
L 160.690241 264.217248 
L 160.754974 264.255154 
L 162.475773 265.265663 
L 166.263468 267.50167 
L 168.789839 268.981779 
L 169.621766 269.474354 
L 170.72483 270.130213 
L 171.077515 270.412744 
L 171.231849 270.572873 
L 171.548589 270.910618 
L 171.596582 270.965377 
L 171.642044 271.022277 
L 171.684847 271.081255 
L 171.724861 271.142128 
L 171.852596 271.346376 
L 171.899505 271.421383 
L 171.938553 271.486884 
L 171.974681 271.554029 
L 172.007761 271.622758 
L 172.039461 271.697261 
L 172.10618 271.867836 
L 172.170965 272.03915 
L 172.233691 272.211268 
L 172.288286 272.363314 
L 172.351884 272.540587 
L 172.360499 272.559828 
L 172.371972 272.577427 
L 172.386106 272.593008 
L 172.402512 272.606141 
L 172.703342 272.808002 
L 172.720803 272.817639 
L 172.739873 272.823327 
L 172.754443 272.824478 
L 172.759731 272.824896 
L 172.779431 272.82224 
L 173.000951 272.772467 
L 173.652979 272.625516 
L 173.695585 272.742684 
L 173.874928 273.202317 
L 173.906781 273.358855 
L 173.814411 273.389981 
L 173.748855 273.432489 
L 173.686549 273.479593 
L 173.627739 273.531035 
L 173.572796 273.586554 
L 173.521905 273.645893 
L 173.475372 273.708731 
L 173.434972 273.772881 
L 173.3991 273.839642 
L 173.368 273.908756 
L 173.341729 273.979905 
L 173.320467 274.052708 
L 173.311576 274.121569 
L 173.309368 274.191037 
L 173.313953 274.260286 
L 173.325254 274.328816 
L 173.343131 274.395934 
L 173.367444 274.461012 
L 173.397988 274.523362 
L 173.434373 274.582424 
L 173.572579 274.783687 
L 174.75611 276.376504 
L 174.832108 276.478778 
L 174.80156 276.494302 
L 175.023936 276.811361 
L 175.190273 276.725786 
L 175.218158 276.762386 
L 175.326934 276.705393 
L 176.403311 276.141463 
L 176.710807 275.858267 
L 177.289081 275.410276 
L 177.633448 275.143473 
L 177.978446 274.876718 
L 178.322751 274.609916 
L 178.667106 274.342483 
L 179.011475 274.075681 
L 179.355847 273.808942 
L 179.700783 273.542128 
L 180.045156 273.27539 
L 180.387639 273.008569 
L 180.804096 272.687313 
L 181.13375 272.431954 
L 181.485487 272.159623 
L 181.75249 271.952826 
L 184.839901 276.381357 
L 185.26374 276.055397 
L 185.388504 275.959423 
L 188.405685 273.638525 
L 188.582038 273.502826 
L 203.513965 262.014226 
L 203.601495 262.111829 
L 204.466084 263.076426 
L 206.57606 265.401344 
L 206.76216 265.58955 
L 206.793134 265.620908 
L 207.63278 266.47053 
L 207.67702 266.515346 
L 207.924695 266.766529 
L 208.315653 267.162964 
L 208.582644 267.433654 
L 208.606085 267.45742 
L 208.613168 267.46458 
L 208.619672 267.471186 
L 208.784142 267.63792 
L 208.795476 267.649402 
L 208.957436 267.813669 
L 210.1887 269.061865 
L 211.8092 267.00719 
L 213.00245 265.842376 
L 214.200082 264.673303 
L 214.226377 264.647593 
L 214.382855 264.494815 
L 214.54426 264.337255 
L 214.650919 264.23312 
L 214.995776 263.896489 
L 215.10299 263.791837 
L 215.325238 263.574846 
L 215.431652 263.470969 
L 215.64417 263.263476 
L 215.8275 263.084533 
L 215.989276 262.926588 
L 216.094272 262.824005 
L 216.495973 262.431885 
L 216.723952 262.209402 
L 216.845268 262.090927 
L 217.106255 261.836147 
L 216.937643 261.664264 
L 217.807267 260.813422 
L 218.70948 259.930703 
L 222.363619 256.355042 
L 223.264004 255.474035 
L 224.146835 254.608203 
L 231.160815 247.729542 
L 231.388431 247.506763 
L 231.533444 247.524196 
L 232.044803 247.457464 
L 232.23042 247.433217 
L 232.531431 247.905228 
L 232.764616 248.397697 
L 232.913476 248.710634 
L 233.25976 249.439541 
L 233.508429 249.963152 
L 234.58278 251.666127 
L 236.304519 254.395335 
L 242.407717 264.070272 
L 242.432345 264.105058 
L 242.731892 264.528189 
L 243.576435 265.721174 
L 244.208713 266.614304 
L 244.612188 267.184298 
L 246.398083 269.707049 
L 247.797231 271.683517 
L 248.14052 272.168475 
L 248.187327 272.229899 
L 248.298701 272.375886 
L 248.452216 272.577281 
L 250.272714 274.964911 
L 251.900627 277.118775 
L 252.003209 277.254485 
L 253.25274 278.907774 
L 254.367775 280.383098 
L 255.544825 282.073932 
L 259.893766 288.321388 
L 260.381728 288.921188 
L 260.441317 288.994507 
L 260.624221 289.219292 
L 260.683873 289.292609 
L 262.636153 291.692565 
L 262.743485 291.824449 
L 264.367201 293.820517 
L 264.446972 293.918564 
L 265.723382 295.488 
L 266.200265 295.135408 
L 266.886206 294.62825 
L 267.078081 294.476472 
L 267.265104 294.318745 
L 267.447218 294.155322 
L 267.624174 293.986335 
L 267.79585 293.811913 
L 267.961996 293.632188 
L 268.122557 293.447476 
L 268.277281 293.257784 
L 268.352253 293.16864 
L 268.42575 293.078266 
L 268.497902 292.986787 
L 269.03681 292.029637 
L 273.644437 285.36425 
L 273.771913 285.179841 
L 273.872382 285.03453 
L 274.228595 284.519184 
L 274.573108 284.02095 
L 275.112303 283.242017 
L 275.341831 282.909739 
L 276.171986 281.708491 
L 276.395846 281.384418 
L 276.514607 281.212636 
L 276.780961 280.827094 
L 277.754941 280.096561 
L 277.951707 279.949035 
L 278.417315 279.462611 
L 278.689016 279.178678 
L 278.898235 278.960069 
L 279.815302 278.001487 
L 280.70411 277.070739 
L 281.586058 276.136928 
L 281.766548 275.94774 
L 282.476763 275.206143 
L 283.68887 273.925069 
L 284.260066 273.321378 
L 284.368506 273.208709 
L 284.498942 273.072072 
L 285.035516 272.510238 
L 285.317564 272.212828 
L 285.588366 271.927532 
L 286.112463 271.384596 
L 286.634521 270.843283 
L 287.156253 270.304251 
L 287.680411 269.761 
L 287.900939 269.532489 
L 288.530474 268.880048 
L 288.910385 268.4863 
L 289.264279 268.119576 
L 289.910489 267.449853 
L 290.091812 267.289238 
L 291.171232 266.332872 
L 293.285346 265.33884 
L 294.106948 264.952218 
L 294.930171 264.564805 
L 295.442675 264.323476 
L 295.805093 264.153271 
L 296.629061 263.765215 
L 297.456277 263.381632 
L 298.278386 263.000374 
L 299.794771 262.296312 
L 300.41761 262.007157 
L 301.164781 261.660267 
L 303.185605 260.974574 
L 304.412273 260.41248 
L 305.189807 260.046685 
L 305.606836 259.849781 
L 306.467292 259.451599 
L 307.184566 259.118137 
L 307.903731 258.790377 
L 308.622254 258.456322 
L 309.376599 258.105758 
L 310.129002 257.758395 
L 310.754619 257.468758 
L 312.526454 256.648826 
L 313.332284 256.275418 
L 313.571991 256.164382 
L 313.836305 256.041944 
L 314.462238 255.752118 
L 314.507651 255.731103 
L 314.747239 255.620323 
L 315.387572 255.324183 
L 315.659554 255.198421 
L 316.20709 254.946187 
L 316.471732 254.824312 
L 316.737805 254.701648 
L 317.811875 254.206297 
L 318.443744 253.914202 
L 319.512809 253.419978 
L 321.226002 252.632638 
L 321.441029 252.532254 
L 322.942671 251.825669 
L 323.807323 251.4217 
L 324.601953 251.055701 
L 325.319892 250.724918 
L 326.50429 250.174453 
L 327.290769 249.809526 
L 327.690394 249.624082 
L 328.012398 249.474628 
L 329.51734 248.773618 
L 331.021681 248.070736 
L 331.717552 247.746011 
L 332.100776 247.567184 
L 332.487062 247.387343 
L 333.57815 246.87949 
L 333.87835 246.739866 
L 333.706309 246.187466 
L 333.61635 245.898227 
L 333.49936 245.521934 
L 333.409873 245.234136 
L 333.239843 244.687434 
L 331.340973 245.571277 
L 330.634864 245.899953 
L 330.449723 245.986037 
L 327.489627 247.363852 
L 326.635089 245.074976 
L 326.632414 245.067841 
L 326.571126 244.903044 
L 326.423803 244.507359 
L 326.290395 244.148976 
L 326.195256 243.893364 
L 326.116644 243.682253 
L 325.061736 240.848114 
L 323.062395 235.505355 
L 322.68771 234.47912 
L 321.011805 228.513714 
L 320.629539 227.16524 
L 320.222707 225.759067 
L 320.090913 225.303594 
L 319.985018 224.937787 
L 319.898608 224.639134 
L 319.869917 224.539938 
L 319.712673 223.508494 
L 319.539895 222.375226 
L 319.370791 221.265795 
L 319.073383 219.22146 
L 318.77055 217.327564 
L 318.504391 215.643565 
L 318.377387 214.855733 
L 318.144901 213.413754 
L 318.035102 212.726636 
L 317.407567 209.949094 
L 317.320419 209.563308 
L 316.637641 206.955174 
L 315.869803 204.022169 
L 315.725248 203.47144 
L 315.43554 202.402809 
L 315.918619 202.376667 
L 316.084611 202.351519 
L 316.062772 202.206545 
L 316.141755 202.194629 
L 320.118032 201.594558 
L 320.111629 201.549768 
L 320.087445 201.460948 
L 318.590258 195.894075 
L 318.392938 195.160437 
L 318.244591 194.609034 
L 317.264362 190.964937 
L 317.261678 190.954585 
L 317.257437 190.939281 
L 317.192001 190.695822 
L 316.890423 189.574697 
L 316.845977 189.409401 
L 316.175186 186.915729 
L 316.140413 186.786504 
L 316.102626 186.646239 
L 315.923695 185.9818 
L 315.780966 185.451413 
L 315.564226 184.645826 
L 315.550506 184.5947 
L 315.52312 184.372671 
L 315.425754 183.58254 
L 315.390853 183.299655 
L 315.359612 183.045654 
L 315.326162 182.774285 
L 315.294311 182.515502 
L 315.2634 182.265027 
L 315.233863 182.02544 
L 315.197186 181.727764 
L 315.14378 181.294215 
L 314.638074 176.590877 
L 314.300488 173.451607 
L 314.126574 171.834156 
L 313.541108 171.909404 
L 312.950935 171.985261 
L 312.706818 172.01663 
L 312.064018 172.11234 
L 310.706517 172.314514 
L 309.239595 172.532951 
L 307.242251 172.830477 
L 306.914486 172.879363 
L 305.361235 173.110658 
L 306.370759 171.789957 
L 306.810494 171.214671 
L 306.975414 170.992714 
L 307.243491 170.607982 
L 307.533804 170.186974 
L 307.937242 169.516072 
L 308.308849 168.860268 
L 308.706237 168.097935 
L 309.111994 166.829558 
L 309.33092 166.075743 
L 309.448315 165.671838 
L 309.457203 165.641097 
L 309.842501 164.164991 
L 310.204113 162.634005 
L 310.392195 161.357097 
L 310.557096 159.800893 
L 310.569367 158.731984 
L 310.571483 158.546152 
L 310.573692 158.355965 
L 310.207735 155.393838 
L 309.56313 151.644231 
L 309.083974 149.191303 
L 308.769972 147.08355 
L 308.605949 145.982784 
L 308.559947 145.673894 
L 308.498408 145.260469 
L 308.447238 144.917239 
L 308.441476 144.87881 
L 308.430075 144.801822 
L 308.419278 144.729364 
L 308.413881 144.693198 
L 308.388519 144.523124 
L 308.354199 144.338041 
L 308.278182 143.927526 
L 308.139172 143.177262 
L 307.812884 141.416297 
L 307.334973 138.353363 
L 306.773539 133.525007 
L 306.767479 130.379816 
L 306.689475 127.354739 
L 306.685971 127.219392 
L 306.668235 126.240256 
L 306.603929 122.677276 
L 306.729582 122.687982 
L 306.434966 120.019672 
L 306.395096 119.893969 
L 306.18786 119.24203 
L 306.152126 119.129677 
L 306.144341 119.105113 
L 306.04979 118.807592 
L 305.840223 116.196013 
L 305.095079 111.854072 
L 304.681362 109.003453 
L 304.594873 108.391107 
L 304.491569 107.699054 
L 304.465875 107.537002 
L 304.039794 104.824988 
L 303.452216 101.804134 
L 303.112986 100.300432 
L 302.673548 98.80969 
L 302.184136 97.44211 
L 301.345738 95.077093 
L 298.44815 89.741644 
L 298.365087 89.53695 
L 297.604394 88.167158 
L 297.060946 87.144087 
L 296.981985 87.002282 
L 296.479801 86.127789 
L 295.895659 85.084424 
L 295.444109 84.321195 
L 295.383586 84.221449 
L 295.310117 84.100158 
L 295.285233 84.059946 
L 294.869326 83.387679 
L 294.736676 83.173238 
L 294.077518 82.140826 
L 293.788407 81.714496 
L 293.395915 81.135673 
L 292.710936 80.143155 
L 292.046866 79.176487 
L 291.773127 78.844285 
L 291.692624 78.746626 
L 291.208691 78.159182 
L 290.569697 77.383421 
L 290.371352 77.165589 
L 290.612542 76.948233 
L 290.50511 76.806245 
L 290.373414 76.632172 
L 289.755883 75.876064 
L 289.447689 75.55208 
L 288.355063 74.439746 
L 282.931996 69.399 
L 281.871487 68.413319 
L 280.696748 68.211635 
L 280.545934 68.387096 
L 279.17402 67.180636 
L 279.210256 67.133822 
L 279.308314 67.007059 
L 278.826978 65.599073 
L 277.813543 64.644411 
L 272.631723 59.763346 
L 271.527361 58.723086 
L 271.682766 58.256284 
L 271.590836 58.174852 
L 271.145719 57.781 
L 270.99257 57.645469 
L 271.956705 56.617666 
L 271.958206 56.615919 
L 272.103653 56.446705 
L 272.132039 56.067372 
L 271.961194 55.827291 
L 270.404361 54.106656 
L 270.160468 54.259404 
L 269.809441 54.479235 
L 269.762985 54.437679 
L 269.530439 54.229398 
L 269.400641 54.11316 
L 269.317233 54.038353 
L 269.188776 54.179999 
L 269.137147 54.236941 
L 268.547417 54.887388 
L 268.499168 54.940531 
L 268.386508 55.064785 
L 268.283376 55.178602 
L 268.168991 55.310215 
L 268.050184 55.458145 
L 267.834393 55.732944 
L 267.608477 56.019645 
L 267.605273 56.023698 
L 267.595983 56.035449 
L 267.574547 56.06256 
L 267.190048 56.554625 
L 267.045357 56.524545 
L 264.190121 55.930624 
L 263.678164 55.82415 
L 263.041256 55.691763 
L 262.661391 55.612369 
L 261.770509 55.426294 
L 260.35595 55.130798 
L 259.498279 54.951621 
L 259.257984 54.901412 
L 258.222655 54.685203 
L 256.293967 54.282363 
L 255.254267 54.065189 
L 254.388113 53.88426 
L 253.155693 53.626864 
L 252.873891 53.568 
L 251.807127 53.723581 
L 251.4655 53.954896 
L 250.763814 54.429554 
L 249.883589 55.024904 
L 249.794446 55.085279 
L 246.890594 57.049915 
L 245.597303 57.924966 
L 245.522118 57.975814 
L 245.160335 58.22059 
L 242.737486 59.859877 
L 240.531531 61.352507 
L 238.935312 62.432613 
L 238.588177 62.667411 
L 238.415552 62.784695 
L 235.961083 63.245422 
L 233.239432 63.756736 
L 233.058914 63.791468 
L 232.374696 63.919449 
L 232.002581 63.989038 
L 230.768532 64.219831 
L 228.757274 64.596047 
L 228.138653 64.71177 
L 227.816288 64.775763 
L 227.426023 64.395441 
L 227.35202 64.866617 
L 227.188918 65.905166 
L 227.146271 66.176789 
L 227.038803 66.854444 
L 226.792784 68.407345 
L 226.571697 69.808357 
L 226.213726 72.074481 
L 226.034973 73.206591 
L 225.831674 74.493549 
L 225.81815 74.579725 
L 225.780271 74.821091 
L 225.675977 75.485613 
L 225.634157 75.751916 
L 225.582489 76.078833 
L 225.404928 77.202145 
L 225.258944 78.13303 
L 225.092638 79.19374 
L 224.92705 80.252731 
L 224.794557 81.077546 
L 224.632539 82.087864 
L 224.605535 82.25949 
L 224.482577 83.040548 
L 224.446265 83.271577 
L 224.22267 84.686152 
L 223.963295 86.327328 
L 223.916537 86.623213 
L 223.889401 86.794526 
L 223.831891 87.158366 
L 223.579959 88.752234 
L 223.521459 89.122471 
L 223.27686 90.669791 
L 223.223327 91.008804 
L 223.01662 92.316918 
L 222.880202 93.179624 
L 222.610477 94.886475 
L 222.474127 95.749306 
L 222.18493 97.578706 
L 221.564657 101.503246 
L 221.291536 103.218064 
L 221.040039 103.208778 
L 220.726938 103.197309 
L 220.353294 103.183623 
L 219.96291 103.169266 
L 219.076733 103.201872 
L 218.089246 103.237208 
L 217.777385 103.248407 
L 217.54838 103.256539 
L 217.243313 103.26746 
L 216.916788 103.278928 
L 216.655129 103.288176 
L 216.372266 103.298092 
L 215.429464 103.329714 
L 215.242359 103.336398 
L 214.853805 103.350214 
L 214.662988 103.356982 
L 214.245805 103.371698 
L 214.050458 103.378631 
L 213.10103 103.412429 
L 212.142921 103.446553 
L 212.1114 103.447643 
L 211.954115 103.453151 
L 211.200259 103.478817 
L 210.825098 103.491831 
L 210.632139 103.498523 
L 210.239676 103.512119 
L 209.889239 103.524197 
L 209.694454 103.530931 
L 209.31382 103.544134 
L 208.748531 103.563718 
L 208.59162 103.569092 
L 207.895467 103.59321 
L 206.660629 103.635559 
L 206.51001 103.640729 
L 206.480313 103.641715 
L 204.592617 103.707027 
L 203.650588 103.739363 
L 203.278952 103.752307 
L 203.141294 103.757059 
L 202.70234 103.772346 
L 202.684662 103.772998 
L 202.565185 103.777088 
L 202.521145 103.778588 
L 202.506675 103.779105 
L 202.484716 103.77979 
L 202.380844 103.783401 
L 202.317992 103.785579 
L 202.198516 103.789669 
L 201.998131 103.796534 
L 201.955097 103.798012 
L 201.818635 103.802738 
L 201.688463 103.807195 
L 201.643794 103.808773 
L 201.441899 103.815673 
L 201.328651 103.819559 
L 201.2602 103.821927 
L 201.123799 103.826589 
L 201.079822 103.828088 
L 200.913601 103.833866 
L 200.816585 103.837133 
L 200.702834 103.841031 
L 200.595943 103.844773 
L 200.571405 103.84558 
L 200.45067 103.849699 
L 200.250034 103.856571 
L 200.204734 103.8581 
L 200.08463 103.862268 
L 200.062043 103.863031 
L 199.712866 103.875093 
L 199.210052 103.892524 
L 198.363728 103.922016 
L 198.312704 103.923802 
L 198.171648 103.928633 
L 197.506071 103.951578 
L 196.501065 103.986055 
L 195.98298 104.004783 
L 195.353642 104.027523 
L 195.0157 104.039735 
L 194.33398 104.064378 
L 193.266036 105.22036 
L 192.201233 106.37293 
L 192.202636 106.418398 
L 192.206915 106.535615 
L 191.73921 107.040578 
L 191.771921 107.03927 
L 190.512339 108.360143 
L 190.445886 108.275129 
L 190.166842 108.543592 
L 189.902414 108.798408 
L 189.827294 108.870788 
L 189.702606 108.990913 
L 189.394693 109.287558 
L 189.31951 109.35994 
L 188.900592 109.76359 
L 187.880953 110.633635 
L 187.37546 111.064996 
L 187.240593 111.182148 
L 186.96573 111.420795 
L 186.851303 111.520193 
L 186.631375 111.707174 
L 186.159579 112.108177 
L 185.774274 112.435784 
L 181.582603 115.998993 
L 181.396347 116.157259 
L 179.980202 117.36113 
L 179.403466 117.851358 
L 178.045281 119.005963 
L 177.488446 119.479398 
L 176.52013 120.302503 
L 176.732725 122.065977 
L 176.76187 122.308211 
L 177.230646 126.262851 
L 177.275375 126.64041 
L 177.298651 126.837531 
L 182.085747 126.271176 
L 182.310685 126.248217 
L 182.53616 126.23225 
L 182.762107 126.223278 
L 182.988148 126.221245 
L 183.214221 126.226217 
L 183.439947 126.238138 
L 183.665264 126.257074 
L 183.889856 126.282905 
L 186.03571 126.562673 
L 197.441011 128.050001 
L 198.344542 128.167826 
L 198.681226 128.211704 
L 201.057342 128.521645 
L 202.68551 128.733975 
L 203.063687 128.78361 
L 203.116791 128.79055 
L 204.735703 129.00291 
L 205.751723 129.136267 
L 207.13275 129.317537 
L 208.521334 129.498204 
L 209.202081 129.586764 
L 209.584917 129.636553 
L 212.424147 130.005981 
L 212.813929 130.056691 
L 215.488159 130.404693 
L 217.046729 130.605417 
L 219.804025 130.960543 
L 220.676057 131.072202 
L 221.465545 131.173293 
L 222.044322 131.246384 
L 222.255453 131.273051 
L 222.779554 131.339299 
L 224.456025 131.573247 
L 232.065515 132.55953 
L 232.36032 132.597699 
L 233.815409 132.786323 
L 234.008118 132.811393 
L 236.332655 133.11267 
L 236.516584 133.136488 
L 236.66858 133.156203 
L 237.08959 133.21081 
L 237.789176 133.303616 
L 238.442097 133.390216 
L 238.904951 133.451621 
L 239.389493 133.503136 
L 239.588612 133.530527 
L 240.342582 133.634168 
L 241.205491 133.752843 
L 248.913015 134.755829 
L 251.196698 135.053024 
L 249.817771 138.21783 
L 249.639902 138.631193 
L 249.30726 139.40395 
L 248.634329 140.967622 
L 248.415752 141.473234 
L 248.340112 141.648203 
L 248.263795 141.824973 
L 248.120964 142.155197 
L 248.103422 142.195663 
L 247.21983 144.239826 
L 246.808474 145.191367 
L 246.116623 146.791882 
L 245.91035 147.269055 
L 245.80967 147.502033 
L 245.666424 147.833213 
L 245.574067 148.047072 
L 245.418851 148.405973 
L 245.205154 148.900163 
L 245.143324 149.043351 
L 244.825839 149.777846 
L 244.719709 150.023253 
L 244.662127 150.156501 
L 244.340513 150.900492 
L 244.180047 151.26942 
L 244.099573 151.454362 
L 243.888932 151.938639 
L 243.217171 153.481851 
L 243.108853 153.730652 
L 243.093285 153.766404 
L 242.436329 155.275965 
L 242.418607 155.316752 
L 242.35466 155.463712 
L 242.11959 156.003883 
L 241.997024 156.285441 
L 241.935233 156.427431 
L 241.409302 157.681372 
L 241.104597 158.386997 
L 241.079284 158.445813 
L 240.507962 159.223883 
L 240.487462 159.252994 
L 240.461347 159.290057 
L 240.261127 159.569954 
L 237.621749 162.020532 
L 237.660127 162.396349 
L 235.136423 164.989743 
L 234.241638 165.909079 
L 233.932055 166.227159 
L 232.962634 167.223086 
L 232.938082 167.248313 
L 232.819381 167.370256 
L 232.356272 167.846026 
L 231.973281 168.239469 
L 231.865967 168.349797 
L 231.47744 168.748982 
L 231.012982 169.226172 
L 230.904743 169.337341 
L 230.873238 169.36973 
L 230.847824 169.395797 
L 230.728571 169.518321 
L 230.265962 169.993641 
L 230.076511 170.188803 
L 229.977696 170.290673 
L 229.879616 170.391643 
L 229.771694 170.502869 
L 229.675276 170.60216 
L 229.576337 170.704096 
L 229.554556 170.726548 
L 229.39575 170.890225 
L 229.381227 170.905129 
L 229.183592 171.108617 
L 228.969715 171.328879 
L 228.585831 171.72424 
L 227.917495 172.412385 
L 227.814925 172.518 
L 227.768715 172.56555 
L 226.611841 173.756742 
L 226.529085 173.84197 
L 225.968277 174.430429 
L 225.715407 174.695767 
L 217.426714 183.182254 
L 217.360752 183.249878 
L 216.510809 184.095494 
L 210.601079 190.113931 
L 208.643092 192.097473 
L 208.630414 192.110317 
L 208.476796 192.265811 
L 208.465718 192.277041 
L 208.297944 192.446801 
L 208.287296 192.45758 
L 208.067272 192.68033 
L 208.056688 192.691108 
L 207.888483 192.861319 
L 207.877899 192.872097 
L 207.204411 193.553842 
L 206.055508 194.739885 
L 205.927 194.869822 
L 204.204034 196.61219 
L 204.187602 196.628843 
L 204.125948 196.691829 
L 204.059433 196.759783 
L 204.04485 196.77469 
L 204.019254 196.80089 
L 203.908312 196.914149 
L 203.704767 197.122079 
L 203.597336 197.231914 
L 203.487873 197.343752 
L 203.409114 197.424226 
L 202.642512 198.207794 
L 202.383224 198.472771 
L 202.273762 198.584609 
L 201.868217 198.998984 
L 201.223837 199.658438 
L 201.07469 199.810868 
L 200.582826 200.31359 
L 200.452263 200.447109 
L 200.186026 200.719187 
L 200.08918 200.818182 
L 199.742854 201.17026 
L 199.624967 201.290872 
L 199.594143 201.322429 
L 199.438726 201.481501 
L 198.44476 202.498604 
L 198.194349 202.754927 
L 198.080156 202.871796 
L 198.052775 202.899741 
L 198.007675 202.945819 
L 197.975988 202.978215 
L 197.916612 203.038816 
L 197.181777 203.789557 
L 197.146461 203.825696 
L 197.138526 203.83389 
L 197.030667 203.944116 
L 196.784986 204.195159 
L 196.221701 204.770814 
L 196.093106 204.902145 
L 195.993924 205.00353 
L 195.846713 205.155035 
L 195.732168 205.272986 
L 195.696181 205.310023 
L 195.306345 205.711241 
L 194.300216 206.746051 
L 193.043585 208.038077 
L 192.997078 208.085892 
L 192.614416 209.297109 
L 192.472592 209.746292 
L 192.42806 209.887397 
L 192.328835 210.201893 
L 191.690018 212.223896 
L 189.459209 211.515948 
L 188.447034 211.194445 
L 187.72914 210.966426 
L 187.444371 210.92578 
L 187.283243 210.901497 
L 187.299589 211.157527 
L 187.375458 212.345298 
L 187.379843 212.414174 
L 187.385212 212.498741 
L 187.389197 212.561063 
L 187.400193 212.733346 
L 187.401633 212.755338 
L 187.438779 213.336588 
L 186.857759 213.355813 
L 186.8365 213.356484 
L 186.665805 213.362182 
L 186.409384 213.370644 
L 186.411899 213.574357 
L 185.609594 213.552405 
L 183.040117 213.481792 
L 181.841966 213.451219 
L 181.090589 213.432479 
L 180.359742 213.414221 
L 178.853388 213.376262 
L 178.820704 213.375489 
L 178.21562 213.360315 
L 177.033412 213.327822 
L 176.487468 213.314338 
L 176.193051 213.30701 
L 176.077931 213.304196 
L 176.03391 213.303113 
L 175.918662 213.300238 
L 175.874642 213.299155 
L 175.759521 213.296341 
L 175.466175 213.289053 
L 174.453259 213.264022 
L 173.325413 213.236304 
L 173.155313 213.232089 
L 171.349903 213.187705 
L 171.122557 213.182078 
L 170.643621 213.170301 
L 170.107815 213.15704 
L 168.989159 213.129381 
L 168.716216 213.12252 
L 167.818484 213.100385 
L 167.560027 213.094015 
L 167.362154 213.089109 
L 167.164533 213.084197 
L 166.978348 213.078458 
L 165.497113 213.032547 
L 163.877476 212.998058 
L 163.562238 212.991342 
L 163.084407 212.981129 
L 162.831512 212.975773 
L 161.946317 212.956967 
L 160.289756 212.920749 
L 159.411824 212.903047 
L 159.263088 212.900057 
L 159.236577 212.899525 
L 158.904785 212.892749 
L 158.768707 212.890039 
L 158.300208 212.880631 
L 157.53688 212.865186 
L 157.402376 212.862505 
L 157.360691 212.861686 
L 156.389309 212.842081 
L 159.066823 215.332792 
L 165.606203 221.425419 
L 166.341664 222.110634 
L 167.115497 222.831264 
L 167.42359 223.118212 
L 169.049486 224.632358 
L 169.293862 224.859984 
L 170.077133 225.589432 
L 170.89898 226.357826 
L 171.643369 227.06317 
L 172.393447 227.764223 
L 173.045984 228.374031 
L 173.809801 229.08791 
L 174.230885 229.481464 
L 174.986927 230.193494 
L 174.039048 230.886887 
" clip-path="url(#pccb7d7f23d)" style="fill: #1f77b4"/>
   </g>
   <g id="matplotlib.axis_1">
    <g id="xtick_1">
     <g id="line2d_1">
      <defs>
       <path id="m1a7407aa92" d="M 0 0 
L 0 3.5 
" style="stroke: #000000; stroke-width: 0.8"/>
      </defs>
      <g>
       <use xlink:href="#m1a7407aa92" x="148.107921" y="307.584" style="stroke: #000000; stroke-width: 0.8"/>
      </g>
     </g>
     <g id="text_1">
      <!-- 13.36 -->
      <g transform="translate(133.793858 322.182437) scale(0.1 -0.1)">
       <defs>
        <path id="DejaVuSans-31" d="M 794 531 
L 1825 531 
L 1825 4091 
L 703 3866 
L 703 4441 
L 1819 4666 
L 2450 4666 
L 2450 531 
L 3481 531 
L 3481 0 
L 794 0 
L 794 531 
z
" transform="scale(0.015625)"/>
        <path id="DejaVuSans-33" d="M 2597 2516 
Q 3050 2419 3304 2112 
Q 3559 1806 3559 1356 
Q 3559 666 3084 287 
Q 2609 -91 1734 -91 
Q 1441 -91 1130 -33 
Q 819 25 488 141 
L 488 750 
Q 750 597 1062 519 
Q 1375 441 1716 441 
Q 2309 441 2620 675 
Q 2931 909 2931 1356 
Q 2931 1769 2642 2001 
Q 2353 2234 1838 2234 
L 1294 2234 
L 1294 2753 
L 1863 2753 
Q 2328 2753 2575 2939 
Q 2822 3125 2822 3475 
Q 2822 3834 2567 4026 
Q 2313 4219 1838 4219 
Q 1578 4219 1281 4162 
Q 984 4106 628 3988 
L 628 4550 
Q 988 4650 1302 4700 
Q 1616 4750 1894 4750 
Q 2613 4750 3031 4423 
Q 3450 4097 3450 3541 
Q 3450 3153 3228 2886 
Q 3006 2619 2597 2516 
z
" transform="scale(0.015625)"/>
        <path id="DejaVuSans-2e" d="M 684 794 
L 1344 794 
L 1344 0 
L 684 0 
L 684 794 
z
" transform="scale(0.015625)"/>
        <path id="DejaVuSans-36" d="M 2113 2584 
Q 1688 2584 1439 2293 
Q 1191 2003 1191 1497 
Q 1191 994 1439 701 
Q 1688 409 2113 409 
Q 2538 409 2786 701 
Q 3034 994 3034 1497 
Q 3034 2003 2786 2293 
Q 2538 2584 2113 2584 
z
M 3366 4563 
L 3366 3988 
Q 3128 4100 2886 4159 
Q 2644 4219 2406 4219 
Q 1781 4219 1451 3797 
Q 1122 3375 1075 2522 
Q 1259 2794 1537 2939 
Q 1816 3084 2150 3084 
Q 2853 3084 3261 2657 
Q 3669 2231 3669 1497 
Q 3669 778 3244 343 
Q 2819 -91 2113 -91 
Q 1303 -91 875 529 
Q 447 1150 447 2328 
Q 447 3434 972 4092 
Q 1497 4750 2381 4750 
Q 2619 4750 2861 4703 
Q 3103 4656 3366 4563 
z
" transform="scale(0.015625)"/>
       </defs>
       <use xlink:href="#DejaVuSans-31"/>
       <use xlink:href="#DejaVuSans-33" x="63.623047"/>
       <use xlink:href="#DejaVuSans-2e" x="127.246094"/>
       <use xlink:href="#DejaVuSans-33" x="159.033203"/>
       <use xlink:href="#DejaVuSans-36" x="222.65625"/>
      </g>
     </g>
    </g>
    <g id="xtick_2">
     <g id="line2d_2">
      <g>
       <use xlink:href="#m1a7407aa92" x="190.786415" y="307.584" style="stroke: #000000; stroke-width: 0.8"/>
      </g>
     </g>
     <g id="text_2">
      <!-- 13.37 -->
      <g transform="translate(176.472352 322.182437) scale(0.1 -0.1)">
       <defs>
        <path id="DejaVuSans-37" d="M 525 4666 
L 3525 4666 
L 3525 4397 
L 1831 0 
L 1172 0 
L 2766 4134 
L 525 4134 
L 525 4666 
z
" transform="scale(0.015625)"/>
       </defs>
       <use xlink:href="#DejaVuSans-31"/>
       <use xlink:href="#DejaVuSans-33" x="63.623047"/>
       <use xlink:href="#DejaVuSans-2e" x="127.246094"/>
       <use xlink:href="#DejaVuSans-33" x="159.033203"/>
       <use xlink:href="#DejaVuSans-37" x="222.65625"/>
      </g>
     </g>
    </g>
    <g id="xtick_3">
     <g id="line2d_3">
      <g>
       <use xlink:href="#m1a7407aa92" x="233.464909" y="307.584" style="stroke: #000000; stroke-width: 0.8"/>
      </g>
     </g>
     <g id="text_3">
      <!-- 13.38 -->
      <g transform="translate(219.150847 322.182437) scale(0.1 -0.1)">
       <defs>
        <path id="DejaVuSans-38" d="M 2034 2216 
Q 1584 2216 1326 1975 
Q 1069 1734 1069 1313 
Q 1069 891 1326 650 
Q 1584 409 2034 409 
Q 2484 409 2743 651 
Q 3003 894 3003 1313 
Q 3003 1734 2745 1975 
Q 2488 2216 2034 2216 
z
M 1403 2484 
Q 997 2584 770 2862 
Q 544 3141 544 3541 
Q 544 4100 942 4425 
Q 1341 4750 2034 4750 
Q 2731 4750 3128 4425 
Q 3525 4100 3525 3541 
Q 3525 3141 3298 2862 
Q 3072 2584 2669 2484 
Q 3125 2378 3379 2068 
Q 3634 1759 3634 1313 
Q 3634 634 3220 271 
Q 2806 -91 2034 -91 
Q 1263 -91 848 271 
Q 434 634 434 1313 
Q 434 1759 690 2068 
Q 947 2378 1403 2484 
z
M 1172 3481 
Q 1172 3119 1398 2916 
Q 1625 2713 2034 2713 
Q 2441 2713 2670 2916 
Q 2900 3119 2900 3481 
Q 2900 3844 2670 4047 
Q 2441 4250 2034 4250 
Q 1625 4250 1398 4047 
Q 1172 3844 1172 3481 
z
" transform="scale(0.015625)"/>
       </defs>
       <use xlink:href="#DejaVuSans-31"/>
       <use xlink:href="#DejaVuSans-33" x="63.623047"/>
       <use xlink:href="#DejaVuSans-2e" x="127.246094"/>
       <use xlink:href="#DejaVuSans-33" x="159.033203"/>
       <use xlink:href="#DejaVuSans-38" x="222.65625"/>
      </g>
     </g>
    </g>
    <g id="xtick_4">
     <g id="line2d_4">
      <g>
       <use xlink:href="#m1a7407aa92" x="276.143403" y="307.584" style="stroke: #000000; stroke-width: 0.8"/>
      </g>
     </g>
     <g id="text_4">
      <!-- 13.39 -->
      <g transform="translate(261.829341 322.182437) scale(0.1 -0.1)">
       <defs>
        <path id="DejaVuSans-39" d="M 703 97 
L 703 672 
Q 941 559 1184 500 
Q 1428 441 1663 441 
Q 2288 441 2617 861 
Q 2947 1281 2994 2138 
Q 2813 1869 2534 1725 
Q 2256 1581 1919 1581 
Q 1219 1581 811 2004 
Q 403 2428 403 3163 
Q 403 3881 828 4315 
Q 1253 4750 1959 4750 
Q 2769 4750 3195 4129 
Q 3622 3509 3622 2328 
Q 3622 1225 3098 567 
Q 2575 -91 1691 -91 
Q 1453 -91 1209 -44 
Q 966 3 703 97 
z
M 1959 2075 
Q 2384 2075 2632 2365 
Q 2881 2656 2881 3163 
Q 2881 3666 2632 3958 
Q 2384 4250 1959 4250 
Q 1534 4250 1286 3958 
Q 1038 3666 1038 3163 
Q 1038 2656 1286 2365 
Q 1534 2075 1959 2075 
z
" transform="scale(0.015625)"/>
       </defs>
       <use xlink:href="#DejaVuSans-31"/>
       <use xlink:href="#DejaVuSans-33" x="63.623047"/>
       <use xlink:href="#DejaVuSans-2e" x="127.246094"/>
       <use xlink:href="#DejaVuSans-33" x="159.033203"/>
       <use xlink:href="#DejaVuSans-39" x="222.65625"/>
      </g>
     </g>
    </g>
    <g id="xtick_5">
     <g id="line2d_5">
      <g>
       <use xlink:href="#m1a7407aa92" x="318.821898" y="307.584" style="stroke: #000000; stroke-width: 0.8"/>
      </g>
     </g>
     <g id="text_5">
      <!-- 13.40 -->
      <g transform="translate(304.507835 322.182437) scale(0.1 -0.1)">
       <defs>
        <path id="DejaVuSans-34" d="M 2419 4116 
L 825 1625 
L 2419 1625 
L 2419 4116 
z
M 2253 4666 
L 3047 4666 
L 3047 1625 
L 3713 1625 
L 3713 1100 
L 3047 1100 
L 3047 0 
L 2419 0 
L 2419 1100 
L 313 1100 
L 313 1709 
L 2253 4666 
z
" transform="scale(0.015625)"/>
        <path id="DejaVuSans-30" d="M 2034 4250 
Q 1547 4250 1301 3770 
Q 1056 3291 1056 2328 
Q 1056 1369 1301 889 
Q 1547 409 2034 409 
Q 2525 409 2770 889 
Q 3016 1369 3016 2328 
Q 3016 3291 2770 3770 
Q 2525 4250 2034 4250 
z
M 2034 4750 
Q 2819 4750 3233 4129 
Q 3647 3509 3647 2328 
Q 3647 1150 3233 529 
Q 2819 -91 2034 -91 
Q 1250 -91 836 529 
Q 422 1150 422 2328 
Q 422 3509 836 4129 
Q 1250 4750 2034 4750 
z
" transform="scale(0.015625)"/>
       </defs>
       <use xlink:href="#DejaVuSans-31"/>
       <use xlink:href="#DejaVuSans-33" x="63.623047"/>
       <use xlink:href="#DejaVuSans-2e" x="127.246094"/>
       <use xlink:href="#DejaVuSans-34" x="159.033203"/>
       <use xlink:href="#DejaVuSans-30" x="222.65625"/>
      </g>
     </g>
    </g>
   </g>
   <g id="matplotlib.axis_2">
    <g id="ytick_1">
     <g id="line2d_6">
      <defs>
       <path id="m1982701f00" d="M 0 0 
L -3.5 0 
" style="stroke: #000000; stroke-width: 0.8"/>
      </defs>
      <g>
       <use xlink:href="#m1982701f00" x="128.669815" y="283.33187" style="stroke: #000000; stroke-width: 0.8"/>
      </g>
     </g>
     <g id="text_6">
      <!-- 52.535 -->
      <g transform="translate(86.67919 287.131088) scale(0.1 -0.1)">
       <defs>
        <path id="DejaVuSans-35" d="M 691 4666 
L 3169 4666 
L 3169 4134 
L 1269 4134 
L 1269 2991 
Q 1406 3038 1543 3061 
Q 1681 3084 1819 3084 
Q 2600 3084 3056 2656 
Q 3513 2228 3513 1497 
Q 3513 744 3044 326 
Q 2575 -91 1722 -91 
Q 1428 -91 1123 -41 
Q 819 9 494 109 
L 494 744 
Q 775 591 1075 516 
Q 1375 441 1709 441 
Q 2250 441 2565 725 
Q 2881 1009 2881 1497 
Q 2881 1984 2565 2268 
Q 2250 2553 1709 2553 
Q 1456 2553 1204 2497 
Q 953 2441 691 2322 
L 691 4666 
z
" transform="scale(0.015625)"/>
        <path id="DejaVuSans-32" d="M 1228 531 
L 3431 531 
L 3431 0 
L 469 0 
L 469 531 
Q 828 903 1448 1529 
Q 2069 2156 2228 2338 
Q 2531 2678 2651 2914 
Q 2772 3150 2772 3378 
Q 2772 3750 2511 3984 
Q 2250 4219 1831 4219 
Q 1534 4219 1204 4116 
Q 875 4013 500 3803 
L 500 4441 
Q 881 4594 1212 4672 
Q 1544 4750 1819 4750 
Q 2544 4750 2975 4387 
Q 3406 4025 3406 3419 
Q 3406 3131 3298 2873 
Q 3191 2616 2906 2266 
Q 2828 2175 2409 1742 
Q 1991 1309 1228 531 
z
" transform="scale(0.015625)"/>
       </defs>
       <use xlink:href="#DejaVuSans-35"/>
       <use xlink:href="#DejaVuSans-32" x="63.623047"/>
       <use xlink:href="#DejaVuSans-2e" x="127.246094"/>
       <use xlink:href="#DejaVuSans-35" x="159.033203"/>
       <use xlink:href="#DejaVuSans-33" x="222.65625"/>
       <use xlink:href="#DejaVuSans-35" x="286.279297"/>
      </g>
     </g>
    </g>
    <g id="ytick_2">
     <g id="line2d_7">
      <g>
       <use xlink:href="#m1982701f00" x="128.669815" y="248.237997" style="stroke: #000000; stroke-width: 0.8"/>
      </g>
     </g>
     <g id="text_7">
      <!-- 52.540 -->
      <g transform="translate(86.67919 252.037216) scale(0.1 -0.1)">
       <use xlink:href="#DejaVuSans-35"/>
       <use xlink:href="#DejaVuSans-32" x="63.623047"/>
       <use xlink:href="#DejaVuSans-2e" x="127.246094"/>
       <use xlink:href="#DejaVuSans-35" x="159.033203"/>
       <use xlink:href="#DejaVuSans-34" x="222.65625"/>
       <use xlink:href="#DejaVuSans-30" x="286.279297"/>
      </g>
     </g>
    </g>
    <g id="ytick_3">
     <g id="line2d_8">
      <g>
       <use xlink:href="#m1982701f00" x="128.669815" y="213.144125" style="stroke: #000000; stroke-width: 0.8"/>
      </g>
     </g>
     <g id="text_8">
      <!-- 52.545 -->
      <g transform="translate(86.67919 216.943344) scale(0.1 -0.1)">
       <use xlink:href="#DejaVuSans-35"/>
       <use xlink:href="#DejaVuSans-32" x="63.623047"/>
       <use xlink:href="#DejaVuSans-2e" x="127.246094"/>
       <use xlink:href="#DejaVuSans-35" x="159.033203"/>
       <use xlink:href="#DejaVuSans-34" x="222.65625"/>
       <use xlink:href="#DejaVuSans-35" x="286.279297"/>
      </g>
     </g>
    </g>
    <g id="ytick_4">
     <g id="line2d_9">
      <g>
       <use xlink:href="#m1982701f00" x="128.669815" y="178.050253" style="stroke: #000000; stroke-width: 0.8"/>
      </g>
     </g>
     <g id="text_9">
      <!-- 52.550 -->
      <g transform="translate(86.67919 181.849471) scale(0.1 -0.1)">
       <use xlink:href="#DejaVuSans-35"/>
       <use xlink:href="#DejaVuSans-32" x="63.623047"/>
       <use xlink:href="#DejaVuSans-2e" x="127.246094"/>
       <use xlink:href="#DejaVuSans-35" x="159.033203"/>
       <use xlink:href="#DejaVuSans-35" x="222.65625"/>
       <use xlink:href="#DejaVuSans-30" x="286.279297"/>
      </g>
     </g>
    </g>
    <g id="ytick_5">
     <g id="line2d_10">
      <g>
       <use xlink:href="#m1982701f00" x="128.669815" y="142.95638" style="stroke: #000000; stroke-width: 0.8"/>
      </g>
     </g>
     <g id="text_10">
      <!-- 52.555 -->
      <g transform="translate(86.67919 146.755599) scale(0.1 -0.1)">
       <use xlink:href="#DejaVuSans-35"/>
       <use xlink:href="#DejaVuSans-32" x="63.623047"/>
       <use xlink:href="#DejaVuSans-2e" x="127.246094"/>
       <use xlink:href="#DejaVuSans-35" x="159.033203"/>
       <use xlink:href="#DejaVuSans-35" x="222.65625"/>
       <use xlink:href="#DejaVuSans-35" x="286.279297"/>
      </g>
     </g>
    </g>
    <g id="ytick_6">
     <g id="line2d_11">
      <g>
       <use xlink:href="#m1982701f00" x="128.669815" y="107.862508" style="stroke: #000000; stroke-width: 0.8"/>
      </g>
     </g>
     <g id="text_11">
      <!-- 52.560 -->
      <g transform="translate(86.67919 111.661727) scale(0.1 -0.1)">
       <use xlink:href="#DejaVuSans-35"/>
       <use xlink:href="#DejaVuSans-32" x="63.623047"/>
       <use xlink:href="#DejaVuSans-2e" x="127.246094"/>
       <use xlink:href="#DejaVuSans-35" x="159.033203"/>
       <use xlink:href="#DejaVuSans-36" x="222.65625"/>
       <use xlink:href="#DejaVuSans-30" x="286.279297"/>
      </g>
     </g>
    </g>
    <g id="ytick_7">
     <g id="line2d_12">
      <g>
       <use xlink:href="#m1982701f00" x="128.669815" y="72.768636" style="stroke: #000000; stroke-width: 0.8"/>
      </g>
     </g>
     <g id="text_12">
      <!-- 52.565 -->
      <g transform="translate(86.67919 76.567854) scale(0.1 -0.1)">
       <use xlink:href="#DejaVuSans-35"/>
       <use xlink:href="#DejaVuSans-32" x="63.623047"/>
       <use xlink:href="#DejaVuSans-2e" x="127.246094"/>
       <use xlink:href="#DejaVuSans-35" x="159.033203"/>
       <use xlink:href="#DejaVuSans-36" x="222.65625"/>
       <use xlink:href="#DejaVuSans-35" x="286.279297"/>
      </g>
     </g>
    </g>
   </g>
   <g id="patch_3">
    <path d="M 128.669815 307.584 
L 128.669815 41.472 
" style="fill: none; stroke: #000000; stroke-width: 0.8; stroke-linejoin: miter; stroke-linecap: square"/>
   </g>
   <g id="patch_4">
    <path d="M 343.650185 307.584 
L 343.650185 41.472 
" style="fill: none; stroke: #000000; stroke-width: 0.8; stroke-linejoin: miter; stroke-linecap: square"/>
   </g>
   <g id="patch_5">
    <path d="M 128.669815 307.584 
L 343.650185 307.584 
" style="fill: none; stroke: #000000; stroke-width: 0.8; stroke-linejoin: miter; stroke-linecap: square"/>
   </g>
   <g id="patch_6">
    <path d="M 128.669815 41.472 
L 343.650185 41.472 
" style="fill: none; stroke: #000000; stroke-width: 0.8; stroke-linejoin: miter; stroke-linecap: square"/>
   </g>
   <g id="text_13">
    <!-- Gesundbrunnen -->
    <g transform="translate(203.733318 185.869851) scale(0.12 -0.12)">
     <defs>
      <path id="DejaVuSans-47" d="M 3809 666 
L 3809 1919 
L 2778 1919 
L 2778 2438 
L 4434 2438 
L 4434 434 
Q 4069 175 3628 42 
Q 3188 -91 2688 -91 
Q 1594 -91 976 548 
Q 359 1188 359 2328 
Q 359 3472 976 4111 
Q 1594 4750 2688 4750 
Q 3144 4750 3555 4637 
Q 3966 4525 4313 4306 
L 4313 3634 
Q 3963 3931 3569 4081 
Q 3175 4231 2741 4231 
Q 1884 4231 1454 3753 
Q 1025 3275 1025 2328 
Q 1025 1384 1454 906 
Q 1884 428 2741 428 
Q 3075 428 3337 486 
Q 3600 544 3809 666 
z
" transform="scale(0.015625)"/>
      <path id="DejaVuSans-65" d="M 3597 1894 
L 3597 1613 
L 953 1613 
Q 991 1019 1311 708 
Q 1631 397 2203 397 
Q 2534 397 2845 478 
Q 3156 559 3463 722 
L 3463 178 
Q 3153 47 2828 -22 
Q 2503 -91 2169 -91 
Q 1331 -91 842 396 
Q 353 884 353 1716 
Q 353 2575 817 3079 
Q 1281 3584 2069 3584 
Q 2775 3584 3186 3129 
Q 3597 2675 3597 1894 
z
M 3022 2063 
Q 3016 2534 2758 2815 
Q 2500 3097 2075 3097 
Q 1594 3097 1305 2825 
Q 1016 2553 972 2059 
L 3022 2063 
z
" transform="scale(0.015625)"/>
      <path id="DejaVuSans-73" d="M 2834 3397 
L 2834 2853 
Q 2591 2978 2328 3040 
Q 2066 3103 1784 3103 
Q 1356 3103 1142 2972 
Q 928 2841 928 2578 
Q 928 2378 1081 2264 
Q 1234 2150 1697 2047 
L 1894 2003 
Q 2506 1872 2764 1633 
Q 3022 1394 3022 966 
Q 3022 478 2636 193 
Q 2250 -91 1575 -91 
Q 1294 -91 989 -36 
Q 684 19 347 128 
L 347 722 
Q 666 556 975 473 
Q 1284 391 1588 391 
Q 1994 391 2212 530 
Q 2431 669 2431 922 
Q 2431 1156 2273 1281 
Q 2116 1406 1581 1522 
L 1381 1569 
Q 847 1681 609 1914 
Q 372 2147 372 2553 
Q 372 3047 722 3315 
Q 1072 3584 1716 3584 
Q 2034 3584 2315 3537 
Q 2597 3491 2834 3397 
z
" transform="scale(0.015625)"/>
      <path id="DejaVuSans-75" d="M 544 1381 
L 544 3500 
L 1119 3500 
L 1119 1403 
Q 1119 906 1312 657 
Q 1506 409 1894 409 
Q 2359 409 2629 706 
Q 2900 1003 2900 1516 
L 2900 3500 
L 3475 3500 
L 3475 0 
L 2900 0 
L 2900 538 
Q 2691 219 2414 64 
Q 2138 -91 1772 -91 
Q 1169 -91 856 284 
Q 544 659 544 1381 
z
M 1991 3584 
L 1991 3584 
z
" transform="scale(0.015625)"/>
      <path id="DejaVuSans-6e" d="M 3513 2113 
L 3513 0 
L 2938 0 
L 2938 2094 
Q 2938 2591 2744 2837 
Q 2550 3084 2163 3084 
Q 1697 3084 1428 2787 
Q 1159 2491 1159 1978 
L 1159 0 
L 581 0 
L 581 3500 
L 1159 3500 
L 1159 2956 
Q 1366 3272 1645 3428 
Q 1925 3584 2291 3584 
Q 2894 3584 3203 3211 
Q 3513 2838 3513 2113 
z
" transform="scale(0.015625)"/>
      <path id="DejaVuSans-64" d="M 2906 2969 
L 2906 4863 
L 3481 4863 
L 3481 0 
L 2906 0 
L 2906 525 
Q 2725 213 2448 61 
Q 2172 -91 1784 -91 
Q 1150 -91 751 415 
Q 353 922 353 1747 
Q 353 2572 751 3078 
Q 1150 3584 1784 3584 
Q 2172 3584 2448 3432 
Q 2725 3281 2906 2969 
z
M 947 1747 
Q 947 1113 1208 752 
Q 1469 391 1925 391 
Q 2381 391 2643 752 
Q 2906 1113 2906 1747 
Q 2906 2381 2643 2742 
Q 2381 3103 1925 3103 
Q 1469 3103 1208 2742 
Q 947 2381 947 1747 
z
" transform="scale(0.015625)"/>
      <path id="DejaVuSans-62" d="M 3116 1747 
Q 3116 2381 2855 2742 
Q 2594 3103 2138 3103 
Q 1681 3103 1420 2742 
Q 1159 2381 1159 1747 
Q 1159 1113 1420 752 
Q 1681 391 2138 391 
Q 2594 391 2855 752 
Q 3116 1113 3116 1747 
z
M 1159 2969 
Q 1341 3281 1617 3432 
Q 1894 3584 2278 3584 
Q 2916 3584 3314 3078 
Q 3713 2572 3713 1747 
Q 3713 922 3314 415 
Q 2916 -91 2278 -91 
Q 1894 -91 1617 61 
Q 1341 213 1159 525 
L 1159 0 
L 581 0 
L 581 4863 
L 1159 4863 
L 1159 2969 
z
" transform="scale(0.015625)"/>
      <path id="DejaVuSans-72" d="M 2631 2963 
Q 2534 3019 2420 3045 
Q 2306 3072 2169 3072 
Q 1681 3072 1420 2755 
Q 1159 2438 1159 1844 
L 1159 0 
L 581 0 
L 581 3500 
L 1159 3500 
L 1159 2956 
Q 1341 3275 1631 3429 
Q 1922 3584 2338 3584 
Q 2397 3584 2469 3576 
Q 2541 3569 2628 3553 
L 2631 2963 
z
" transform="scale(0.015625)"/>
     </defs>
     <use xlink:href="#DejaVuSans-47"/>
     <use xlink:href="#DejaVuSans-65" x="77.490234"/>
     <use xlink:href="#DejaVuSans-73" x="139.013672"/>
     <use xlink:href="#DejaVuSans-75" x="191.113281"/>
     <use xlink:href="#DejaVuSans-6e" x="254.492188"/>
     <use xlink:href="#DejaVuSans-64" x="317.871094"/>
     <use xlink:href="#DejaVuSans-62" x="381.347656"/>
     <use xlink:href="#DejaVuSans-72" x="444.824219"/>
     <use xlink:href="#DejaVuSans-75" x="485.9375"/>
     <use xlink:href="#DejaVuSans-6e" x="549.316406"/>
     <use xlink:href="#DejaVuSans-6e" x="612.695312"/>
     <use xlink:href="#DejaVuSans-65" x="676.074219"/>
     <use xlink:href="#DejaVuSans-6e" x="737.597656"/>
    </g>
   </g>
  </g>
 </g>
 <defs>
  <clipPath id="pccb7d7f23d">
   <rect x="128.669815" y="41.472" width="214.980371" height="266.112"/>
  </clipPath>
 </defs>
</svg>
