<?xml version="1.0" encoding="utf-8" standalone="no"?>
<!DOCTYPE svg PUBLIC "-//W3C//DTD SVG 1.1//EN"
  "http://www.w3.org/Graphics/SVG/1.1/DTD/svg11.dtd">
<svg xmlns:xlink="http://www.w3.org/1999/xlink" width="460.8pt" height="345.6pt" viewBox="0 0 460.8 345.6" xmlns="http://www.w3.org/2000/svg" version="1.1">
 <metadata>
  <rdf:RDF xmlns:dc="http://purl.org/dc/elements/1.1/" xmlns:cc="http://creativecommons.org/ns#" xmlns:rdf="http://www.w3.org/1999/02/22-rdf-syntax-ns#">
   <cc:Work>
    <dc:type rdf:resource="http://purl.org/dc/dcmitype/StillImage"/>
    <dc:date>2024-10-15T09:53:28.584645</dc:date>
    <dc:format>image/svg+xml</dc:format>
    <dc:creator>
     <cc:Agent>
      <dc:title>Matplotlib v3.8.4, https://matplotlib.org/</dc:title>
     </cc:Agent>
    </dc:creator>
   </cc:Work>
  </rdf:RDF>
 </metadata>
 <defs>
  <style type="text/css">*{stroke-linejoin: round; stroke-linecap: butt}</style>
 </defs>
 <g id="figure_1">
  <g id="patch_1">
   <path d="M 0 345.6 
L 460.8 345.6 
L 460.8 0 
L 0 0 
z
" style="fill: #ffffff"/>
  </g>
  <g id="axes_1">
   <g id="patch_2">
    <path d="M 57.6 300.821699 
L 414.72 300.821699 
L 414.72 48.234301 
L 57.6 48.234301 
z
" style="fill: #ffffff"/>
   </g>
   <g id="PatchCollection_1">
    <path d="M 299.509201 117.222313 
L 298.98219 116.813203 
L 295.614974 120.149764 
L 293.373444 122.37263 
L 291.747032 120.724078 
L 292.599985 119.866543 
L 291.274971 118.597709 
L 290.789415 118.132795 
L 289.891393 119.052016 
L 289.837628 119.106882 
L 289.52308 119.428904 
L 287.876485 117.817976 
L 287.776385 117.720372 
L 289.369168 116.078199 
L 289.071239 115.789322 
L 290.304591 114.48232 
L 289.863276 114.053655 
L 290.616574 113.256303 
L 291.659462 112.15255 
L 292.227092 111.551826 
L 290.996952 110.596216 
L 285.897037 115.993047 
L 284.465256 114.637149 
L 283.096266 113.340532 
L 282.968194 113.218772 
L 279.970546 110.37015 
L 279.518865 110.865804 
L 277.901451 109.435746 
L 279.802782 107.341616 
L 278.157258 105.835609 
L 277.168149 106.970117 
L 276.735061 106.686529 
L 275.529928 105.895825 
L 275.460249 105.978436 
L 274.895302 105.479603 
L 271.715573 103.394541 
L 270.444549 104.90147 
L 269.586924 105.913674 
L 266.129491 110.020182 
L 264.471397 108.621691 
L 263.307207 110.001891 
L 261.75063 111.844266 
L 260.979791 112.761554 
L 260.199706 113.6858 
L 258.643817 115.531308 
L 258.060207 116.223196 
L 255.333257 119.457644 
L 254.52523 120.398187 
L 254.171592 120.818612 
L 252.997295 122.21414 
L 252.782053 122.46972 
L 249.68779 126.147006 
L 251.517469 127.344892 
L 252.130928 127.745843 
L 253.277857 128.495842 
L 254.385746 129.222406 
L 255.551234 129.984572 
L 252.743839 133.18742 
L 252.50631 133.459653 
L 251.711296 134.365153 
L 250.916189 135.271863 
L 249.522172 136.86307 
L 249.486188 136.90416 
L 247.656368 138.987452 
L 246.385947 140.431158 
L 244.8743 142.148147 
L 244.635208 142.420175 
L 243.84043 143.324353 
L 243.362438 143.86599 
L 242.885679 144.40893 
L 241.612925 145.855111 
L 240.10128 147.570905 
L 239.068464 148.744803 
L 238.433179 149.467874 
L 237.237303 150.83528 
L 235.494648 153.100753 
L 235.039617 153.162114 
L 234.649679 153.214846 
L 234.087463 152.804612 
L 233.527586 152.391069 
L 232.970049 151.974338 
L 232.443225 151.603194 
L 231.918385 151.22911 
L 231.395653 150.852205 
L 230.863576 150.489022 
L 230.333363 150.122902 
L 229.805258 149.753961 
L 229.204244 149.360253 
L 228.009215 148.562187 
L 227.401317 148.179011 
L 226.795628 147.792166 
L 226.192272 147.401771 
L 224.960512 146.649648 
L 224.348066 146.268021 
L 222.048186 144.88767 
L 221.290996 144.433431 
L 220.071303 143.700016 
L 216.325888 141.44476 
L 209.603236 137.404245 
L 208.43392 136.702135 
L 208.17441 136.545044 
L 207.915597 136.386731 
L 207.657603 136.227314 
L 207.318746 136.014568 
L 206.981169 135.799743 
L 206.644994 135.582835 
L 206.347682 135.38683 
L 206.05154 135.189231 
L 205.756446 134.989919 
L 205.291988 134.659 
L 204.833731 134.319498 
L 204.381913 133.971287 
L 203.936782 133.614724 
L 203.496401 133.249367 
L 203.063071 132.87577 
L 202.636916 132.494053 
L 202.217934 132.104214 
L 201.867485 131.765552 
L 201.522576 131.421218 
L 201.183332 131.071452 
L 200.849631 130.716134 
L 200.765556 130.625085 
L 200.681952 130.533543 
L 200.598825 130.441749 
L 200.2848 130.088547 
L 199.97633 129.730397 
L 199.67342 129.367541 
L 199.376189 128.999855 
L 199.084763 128.627699 
L 198.915287 128.405908 
L 198.747827 128.182626 
L 198.582503 127.957849 
L 198.41942 127.730851 
L 198.258353 127.502361 
L 198.099421 127.272377 
L 197.901368 126.981051 
L 197.704856 126.688605 
L 197.509889 126.395161 
L 197.316222 126.100602 
L 197.1241 125.805045 
L 196.93364 125.508365 
L 196.828599 125.343272 
L 197.012032 124.510158 
L 195.783959 122.723751 
L 194.440956 120.770177 
L 195.266158 120.200197 
L 195.798776 119.866826 
L 196.333647 119.537392 
L 196.871008 119.211768 
L 197.45312 118.866597 
L 198.037979 118.525955 
L 198.625464 118.189845 
L 199.215457 117.858392 
L 199.24463 117.842556 
L 199.273925 117.826839 
L 199.303222 117.811243 
L 199.530121 117.685786 
L 199.757274 117.560927 
L 199.984924 117.436783 
L 200.521603 117.146914 
L 201.060291 116.860867 
L 201.600987 116.57864 
L 202.122158 116.312332 
L 202.810248 115.966668 
L 203.418402 115.667791 
L 204.028827 115.373695 
L 209.614473 112.71078 
L 210.017368 112.518309 
L 210.828998 112.136139 
L 211.644036 111.761263 
L 212.462365 111.393803 
L 213.337787 111.009432 
L 212.718752 109.332126 
L 214.652017 106.613878 
L 215.553594 105.338906 
L 215.769227 105.034045 
L 216.05014 104.649677 
L 214.836143 102.883519 
L 213.626038 101.119453 
L 212.430039 99.350743 
L 211.472196 97.947003 
L 211.135659 97.662972 
L 209.588114 96.362002 
L 208.040564 95.061156 
L 206.478612 93.76871 
L 204.858265 92.727192 
L 203.237917 91.685919 
L 201.617449 90.644894 
L 199.996968 89.603513 
L 199.237401 89.115305 
L 198.376601 88.562133 
L 198.191918 88.866581 
L 192.149664 85.204721 
L 191.391764 86.466517 
L 188.608231 91.101903 
L 186.993694 93.78964 
L 186.124232 95.236014 
L 182.395793 101.441239 
L 181.681312 102.630284 
L 181.091192 103.612631 
L 180.474118 104.639356 
L 180.213155 105.073565 
L 179.19517 106.766765 
L 177.487529 109.609007 
L 176.242739 111.680251 
L 175.002743 113.744271 
L 173.515775 116.217914 
L 172.911314 117.226897 
L 166.252488 128.325233 
L 166.479406 129.111421 
L 165.658983 130.654626 
L 165.431875 130.539062 
L 163.438486 129.573616 
L 162.898606 129.310628 
L 149.582294 122.851138 
L 148.780047 123.134311 
L 147.36723 122.461084 
L 155.003894 106.357948 
L 155.564496 105.173978 
L 157.678771 100.714914 
L 158.24182 99.532222 
L 158.668244 98.635819 
L 160.638804 94.47878 
L 160.033377 93.509942 
L 160.884129 91.984618 
L 161.735782 90.457686 
L 152.251208 85.806536 
L 150.520758 84.956352 
L 148.782447 84.104892 
L 147.418168 83.435937 
L 146.791708 83.12556 
L 146.170216 82.805298 
L 145.553817 82.47539 
L 144.942632 82.135833 
L 144.336783 81.786744 
L 143.736515 81.42824 
L 143.343337 81.184339 
L 142.9526 80.936281 
L 142.564547 80.684181 
L 142.099868 80.374807 
L 141.639041 80.059676 
L 141.182184 79.738665 
L 140.729303 79.412136 
L 140.280635 79.079843 
L 139.670975 78.614575 
L 139.069405 78.138992 
L 138.476042 77.652972 
L 137.891139 77.156991 
L 137.314812 76.650927 
L 136.747187 76.135017 
L 136.188508 75.609379 
L 135.783244 75.21724 
L 135.383051 74.820042 
L 134.987809 74.417789 
L 134.575929 73.986675 
L 134.169834 73.550125 
L 133.769525 73.108138 
L 133.375128 72.660955 
L 133.052255 72.286005 
L 132.733521 71.907464 
L 132.418929 71.525455 
L 132.013529 71.020074 
L 131.615472 70.50886 
L 131.22488 69.991933 
L 130.841754 69.469293 
L 130.60151 69.128186 
L 130.369935 68.78134 
L 130.146911 68.428757 
L 129.932802 68.07067 
L 129.90802 68.027014 
L 129.883475 67.983232 
L 129.859049 67.939326 
L 129.745082 67.73556 
L 129.633971 67.530163 
L 129.525598 67.323259 
L 129.374565 67.0365 
L 129.218532 66.752504 
L 129.057498 66.471272 
L 128.869862 66.157047 
L 128.675921 65.846579 
L 128.475803 65.540108 
L 128.269628 65.237751 
L 127.261899 63.794409 
L 125.944034 61.907755 
L 125.793567 61.681472 
L 125.64952 61.451188 
L 125.511771 61.216905 
L 125.380569 60.97898 
L 125.577202 60.615093 
L 123.849559 59.715546 
L 121.956341 62.863526 
L 121.780109 63.156106 
L 121.092352 66.047715 
L 118.486986 76.99312 
L 117.702551 81.124329 
L 117.283345 85.053431 
L 116.595967 91.502691 
L 116.326899 93.648836 
L 115.835279 97.497156 
L 115.478935 100.444915 
L 115.444636 100.851679 
L 115.421919 101.25928 
L 115.410894 101.667355 
L 115.411676 102.075538 
L 115.424018 102.483593 
L 115.448153 102.891154 
L 115.456637 103.000597 
L 115.46596 103.109902 
L 115.476007 103.219192 
L 115.482011 103.269046 
L 115.488134 103.318778 
L 115.4945 103.368624 
L 115.526562 103.645622 
L 115.564149 103.921898 
L 115.60714 104.197453 
L 114.824752 104.711208 
L 113.966816 105.274277 
L 113.795811 105.388183 
L 108.148031 109.093342 
L 106.898384 109.09764 
L 106.159245 109.093495 
L 105.027515 109.086568 
L 104.60021 111.974408 
L 103.889417 115.195655 
L 103.784447 115.665273 
L 103.159378 118.496519 
L 102.535674 121.318078 
L 101.912814 124.133825 
L 101.776989 124.748504 
L 101.528309 125.874986 
L 100.605963 129.193272 
L 99.320687 133.819429 
L 98.738471 135.91099 
L 98.221746 137.770541 
L 97.705267 139.630208 
L 97.188531 141.488916 
L 96.671718 143.349557 
L 96.155126 145.209108 
L 95.590667 147.240286 
L 95.072878 149.099863 
L 94.556178 150.959538 
L 94.039481 152.819214 
L 92.746256 157.474413 
L 92.555363 158.171293 
L 91.941925 160.377386 
L 91.095611 162.731443 
L 90.3565 164.686945 
L 89.560835 166.622055 
L 88.69415 168.541793 
L 87.780398 170.406043 
L 86.801622 172.270487 
L 85.758739 174.088021 
L 84.6643 175.876605 
L 83.515377 177.623264 
L 83.485482 177.666889 
L 83.455464 177.710396 
L 83.425443 177.753783 
L 83.166238 178.122776 
L 82.900184 178.486847 
L 82.627398 178.845871 
L 82.347998 179.199726 
L 82.037089 179.578044 
L 81.718456 179.950009 
L 81.392337 180.315375 
L 81.058967 180.674015 
L 79.648026 182.034064 
L 78.836458 181.984068 
L 78.626037 182.100644 
L 77.984335 182.452048 
L 77.790918 182.603392 
L 78.999488 184.105103 
L 79.132886 184.00226 
L 82.06544 187.522189 
L 82.880393 188.499955 
L 82.758217 189.283493 
L 82.569764 189.402251 
L 74.733579 194.399381 
L 73.832727 194.973866 
L 75.897651 198.592522 
L 78.094146 202.355763 
L 80.581015 205.829634 
L 81.352867 206.910106 
L 82.97362 208.637769 
L 86.118635 211.503109 
L 87.94211 212.947765 
L 89.927354 214.034951 
L 91.814261 215.359725 
L 89.396598 215.98283 
L 87.937576 216.360641 
L 88.324923 217.779853 
L 90.090537 218.68898 
L 98.573626 223.054256 
L 103.260434 225.467197 
L 110.609442 229.263639 
L 111.879548 229.918113 
L 113.433307 230.254637 
L 113.617377 230.291608 
L 118.857471 231.423747 
L 125.663248 232.894164 
L 130.683631 235.480171 
L 134.936252 237.071191 
L 138.332047 238.305746 
L 146.156701 241.318522 
L 154.434522 244.331106 
L 161.451428 247.057689 
L 163.009629 247.66318 
L 167.583586 249.423944 
L 169.419542 250.112308 
L 170.643343 250.574502 
L 171.671004 250.962623 
L 172.281598 251.192835 
L 181.585058 254.798628 
L 182.719513 255.575318 
L 182.813492 255.583571 
L 192.4228 259.29745 
L 199.633501 262.071835 
L 203.167996 263.43226 
L 203.083916 263.028149 
L 203.828371 263.30878 
L 206.586753 264.350033 
L 205.913316 266.115765 
L 205.754636 266.519625 
L 205.58794 266.920275 
L 205.413345 267.317472 
L 205.230847 267.711094 
L 205.040564 268.10102 
L 204.842615 268.487125 
L 204.636755 268.869294 
L 204.423462 269.247275 
L 204.202609 269.62083 
L 203.974318 269.989956 
L 203.738826 270.354527 
L 203.496125 270.714181 
L 203.177548 271.101413 
L 202.850148 271.481348 
L 202.514033 271.853501 
L 202.169563 272.217743 
L 201.816734 272.573953 
L 201.455906 272.922004 
L 201.087071 273.261534 
L 200.710589 273.592534 
L 200.618446 273.659215 
L 200.525928 273.725299 
L 200.433042 273.79103 
L 205.116184 272.825762 
L 210.089344 271.891288 
L 215.294532 270.796887 
L 220.600785 269.680697 
L 221.442811 269.503863 
L 222.162198 269.352584 
L 223.205793 269.754962 
L 229.609989 272.224662 
L 236.903694 275.045301 
L 244.858406 278.105989 
L 251.653253 280.745698 
L 258.7646 283.419807 
L 258.651658 283.009782 
L 260.122171 283.286644 
L 262.465876 283.727989 
L 271.688983 284.525865 
L 282.484844 285.397854 
L 283.334705 285.461322 
L 283.230748 286.34959 
L 289.244446 286.857848 
L 294.553975 287.331467 
L 295.970836 287.457793 
L 296.652433 287.518931 
L 296.877296 287.538917 
L 298.755253 287.690613 
L 300.91324 287.863308 
L 303.072652 288.035136 
L 304.801336 288.17142 
L 304.879692 287.169485 
L 306.679392 287.327331 
L 310.736337 287.694142 
L 314.427615 288.027916 
L 314.458107 287.680283 
L 319.456531 288.101228 
L 323.257156 288.411271 
L 325.718798 288.612407 
L 331.377287 289.083328 
L 332.942065 289.212895 
L 334.1566 289.28636 
L 335.373366 289.32851 
L 336.591304 289.340454 
L 337.808032 289.300511 
L 339.023347 289.221966 
L 340.235001 289.095207 
L 341.434557 288.937074 
L 342.62438 288.728199 
L 343.821341 288.480783 
L 345.009819 288.202037 
L 345.652115 288.03177 
L 346.181384 287.891898 
L 347.338351 287.528705 
L 348.484533 287.122036 
L 349.617292 286.678104 
L 350.745236 286.211217 
L 351.859755 285.706946 
L 352.938224 285.154419 
L 353.996047 284.564661 
L 355.04548 283.942243 
L 356.077958 283.292053 
L 356.598421 282.938679 
L 356.934662 282.43622 
L 357.27298 281.935167 
L 357.613498 281.435636 
L 358.239744 280.522487 
L 358.873325 279.614495 
L 359.514244 278.711783 
L 360.162494 277.814108 
L 360.817844 276.921838 
L 361.48041 276.03485 
L 362.079336 275.248085 
L 362.684013 274.465666 
L 363.294201 273.687598 
L 363.390385 273.565804 
L 363.48681 273.444004 
L 363.583361 273.322444 
L 366.9327 269.098282 
L 367.307154 268.625811 
L 367.869229 267.918546 
L 368.393717 267.256382 
L 368.992923 266.493644 
L 373.139178 261.272257 
L 375.050627 258.961017 
L 375.531957 258.25546 
L 380.924694 251.4555 
L 382.563758 249.48638 
L 387.748766 242.851068 
L 388.165368 242.325327 
L 389.167859 241.059725 
L 390.519881 239.35443 
L 390.926771 238.841934 
L 391.774806 237.790747 
L 392.151534 237.31571 
L 393.675821 235.393948 
L 397.068309 231.099513 
L 398.487273 229.310852 
L 398.466278 227.816979 
L 396.374326 225.322892 
L 392.11798 220.25344 
L 383.209414 209.639903 
L 379.170065 204.897149 
L 379.036694 205.618922 
L 378.66766 205.788955 
L 378.293571 205.947624 
L 377.914785 206.094802 
L 377.531778 206.230117 
L 377.144671 206.353687 
L 376.754061 206.465257 
L 376.36019 206.564823 
L 375.963533 206.652133 
L 375.772358 206.68948 
L 375.580641 206.723941 
L 375.388386 206.755757 
L 375.01139 206.810056 
L 374.63296 206.853398 
L 374.25346 206.885897 
L 373.873245 206.907304 
L 373.492443 206.917858 
L 373.11153 206.917427 
L 372.730866 206.905884 
L 370.085075 206.788111 
L 367.439282 206.67035 
L 364.793489 206.552601 
L 362.152517 206.446594 
L 359.468295 206.328351 
L 359.05124 206.309977 
L 358.685491 206.280381 
L 356.282831 206.174085 
L 354.338803 206.087585 
L 353.054342 206.029799 
L 349.475462 205.870588 
L 347.610745 205.787628 
L 344.964945 205.669968 
L 342.320468 205.552292 
L 339.914074 205.446262 
L 337.508978 205.339007 
L 335.862323 205.26633 
L 335.103787 205.232971 
L 332.69869 205.125735 
L 332.337556 205.10958 
L 330.293712 205.018507 
L 327.888516 204.91238 
L 325.843228 204.821474 
L 325.483296 204.805177 
L 323.439332 204.714251 
L 323.079399 204.697955 
L 320.67553 204.592071 
L 318.270307 204.484897 
L 315.866314 204.378914 
L 313.460124 204.271659 
L 310.935705 204.160035 
L 308.411403 204.048298 
L 307.329202 203.999852 
L 306.006417 203.941169 
L 306.634595 203.365494 
L 307.003822 194.880392 
L 307.472716 184.105407 
L 307.480216 183.895414 
L 307.48579 183.685462 
L 307.489435 183.475429 
L 307.492723 182.951136 
L 307.48421 182.426851 
L 307.463902 181.902936 
L 307.431805 181.379634 
L 307.387924 180.857184 
L 307.332264 180.335829 
L 307.264217 179.815339 
L 307.184522 179.296425 
L 307.093067 178.77957 
L 306.989977 178.264893 
L 306.875376 177.752634 
L 306.749151 177.243155 
L 306.613129 176.74306 
L 306.466094 176.246216 
L 306.308049 175.752624 
L 306.139125 175.262884 
L 305.95932 174.776876 
L 307.350208 173.914735 
L 307.863403 173.596244 
L 306.21114 170.946234 
L 304.579263 168.298453 
L 306.096367 167.344294 
L 307.234829 166.630082 
L 307.465886 166.484537 
L 308.274831 165.986896 
L 309.315734 165.346348 
L 310.360443 164.703428 
L 311.403008 164.061521 
L 312.56162 163.348463 
L 313.720834 162.635274 
L 314.878387 161.923088 
L 316.036044 161.210058 
L 317.194929 160.497969 
L 318.353793 159.784797 
L 319.512755 159.070417 
L 320.67307 158.357219 
L 321.667276 157.74557 
L 321.830641 157.645167 
L 321.906367 157.59805 
L 322.980058 156.917474 
L 324.128011 156.188728 
L 324.81816 155.750486 
L 325.267658 155.442895 
L 326.394065 154.674404 
L 328.236898 153.416777 
L 328.894188 152.967765 
L 327.688296 151.37144 
L 326.381034 149.639744 
L 324.902015 148.022274 
L 323.455184 146.441072 
L 322.187318 145.054574 
L 320.893909 143.639281 
L 319.634189 142.262758 
L 318.169435 140.66106 
L 316.781861 139.144541 
L 315.512591 137.755793 
L 314.294228 136.422716 
L 313.153851 137.535372 
L 311.521334 139.132685 
L 309.400416 136.931328 
L 307.284253 134.7335 
L 308.920497 133.135855 
L 310.64933 131.456331 
L 313.846229 128.346936 
L 312.410252 127.227697 
L 307.857156 123.696867 
L 304.28183 120.923977 
L 300.268978 117.811939 
L 299.509201 117.222313 
" clip-path="url(#p1c7c1177b0)" style="fill: #1f77b4"/>
   </g>
   <g id="matplotlib.axis_1">
    <g id="xtick_1">
     <g id="line2d_1">
      <defs>
       <path id="ma4d6dcf72e" d="M 0 0 
L 0 3.5 
" style="stroke: #000000; stroke-width: 0.8"/>
      </defs>
      <g>
       <use xlink:href="#ma4d6dcf72e" x="70.296864" y="300.821699" style="stroke: #000000; stroke-width: 0.8"/>
      </g>
     </g>
     <g id="text_1">
      <!-- 13.445 -->
      <g transform="translate(52.801551 315.420137) scale(0.1 -0.1)">
       <defs>
        <path id="DejaVuSans-31" d="M 794 531 
L 1825 531 
L 1825 4091 
L 703 3866 
L 703 4441 
L 1819 4666 
L 2450 4666 
L 2450 531 
L 3481 531 
L 3481 0 
L 794 0 
L 794 531 
z
" transform="scale(0.015625)"/>
        <path id="DejaVuSans-33" d="M 2597 2516 
Q 3050 2419 3304 2112 
Q 3559 1806 3559 1356 
Q 3559 666 3084 287 
Q 2609 -91 1734 -91 
Q 1441 -91 1130 -33 
Q 819 25 488 141 
L 488 750 
Q 750 597 1062 519 
Q 1375 441 1716 441 
Q 2309 441 2620 675 
Q 2931 909 2931 1356 
Q 2931 1769 2642 2001 
Q 2353 2234 1838 2234 
L 1294 2234 
L 1294 2753 
L 1863 2753 
Q 2328 2753 2575 2939 
Q 2822 3125 2822 3475 
Q 2822 3834 2567 4026 
Q 2313 4219 1838 4219 
Q 1578 4219 1281 4162 
Q 984 4106 628 3988 
L 628 4550 
Q 988 4650 1302 4700 
Q 1616 4750 1894 4750 
Q 2613 4750 3031 4423 
Q 3450 4097 3450 3541 
Q 3450 3153 3228 2886 
Q 3006 2619 2597 2516 
z
" transform="scale(0.015625)"/>
        <path id="DejaVuSans-2e" d="M 684 794 
L 1344 794 
L 1344 0 
L 684 0 
L 684 794 
z
" transform="scale(0.015625)"/>
        <path id="DejaVuSans-34" d="M 2419 4116 
L 825 1625 
L 2419 1625 
L 2419 4116 
z
M 2253 4666 
L 3047 4666 
L 3047 1625 
L 3713 1625 
L 3713 1100 
L 3047 1100 
L 3047 0 
L 2419 0 
L 2419 1100 
L 313 1100 
L 313 1709 
L 2253 4666 
z
" transform="scale(0.015625)"/>
        <path id="DejaVuSans-35" d="M 691 4666 
L 3169 4666 
L 3169 4134 
L 1269 4134 
L 1269 2991 
Q 1406 3038 1543 3061 
Q 1681 3084 1819 3084 
Q 2600 3084 3056 2656 
Q 3513 2228 3513 1497 
Q 3513 744 3044 326 
Q 2575 -91 1722 -91 
Q 1428 -91 1123 -41 
Q 819 9 494 109 
L 494 744 
Q 775 591 1075 516 
Q 1375 441 1709 441 
Q 2250 441 2565 725 
Q 2881 1009 2881 1497 
Q 2881 1984 2565 2268 
Q 2250 2553 1709 2553 
Q 1456 2553 1204 2497 
Q 953 2441 691 2322 
L 691 4666 
z
" transform="scale(0.015625)"/>
       </defs>
       <use xlink:href="#DejaVuSans-31"/>
       <use xlink:href="#DejaVuSans-33" x="63.623047"/>
       <use xlink:href="#DejaVuSans-2e" x="127.246094"/>
       <use xlink:href="#DejaVuSans-34" x="159.033203"/>
       <use xlink:href="#DejaVuSans-34" x="222.65625"/>
       <use xlink:href="#DejaVuSans-35" x="286.279297"/>
      </g>
     </g>
    </g>
    <g id="xtick_2">
     <g id="line2d_2">
      <g>
       <use xlink:href="#ma4d6dcf72e" x="111.236046" y="300.821699" style="stroke: #000000; stroke-width: 0.8"/>
      </g>
     </g>
     <g id="text_2">
      <!-- 13.450 -->
      <g transform="translate(93.740733 315.420137) scale(0.1 -0.1)">
       <defs>
        <path id="DejaVuSans-30" d="M 2034 4250 
Q 1547 4250 1301 3770 
Q 1056 3291 1056 2328 
Q 1056 1369 1301 889 
Q 1547 409 2034 409 
Q 2525 409 2770 889 
Q 3016 1369 3016 2328 
Q 3016 3291 2770 3770 
Q 2525 4250 2034 4250 
z
M 2034 4750 
Q 2819 4750 3233 4129 
Q 3647 3509 3647 2328 
Q 3647 1150 3233 529 
Q 2819 -91 2034 -91 
Q 1250 -91 836 529 
Q 422 1150 422 2328 
Q 422 3509 836 4129 
Q 1250 4750 2034 4750 
z
" transform="scale(0.015625)"/>
       </defs>
       <use xlink:href="#DejaVuSans-31"/>
       <use xlink:href="#DejaVuSans-33" x="63.623047"/>
       <use xlink:href="#DejaVuSans-2e" x="127.246094"/>
       <use xlink:href="#DejaVuSans-34" x="159.033203"/>
       <use xlink:href="#DejaVuSans-35" x="222.65625"/>
       <use xlink:href="#DejaVuSans-30" x="286.279297"/>
      </g>
     </g>
    </g>
    <g id="xtick_3">
     <g id="line2d_3">
      <g>
       <use xlink:href="#ma4d6dcf72e" x="152.175228" y="300.821699" style="stroke: #000000; stroke-width: 0.8"/>
      </g>
     </g>
     <g id="text_3">
      <!-- 13.455 -->
      <g transform="translate(134.679915 315.420137) scale(0.1 -0.1)">
       <use xlink:href="#DejaVuSans-31"/>
       <use xlink:href="#DejaVuSans-33" x="63.623047"/>
       <use xlink:href="#DejaVuSans-2e" x="127.246094"/>
       <use xlink:href="#DejaVuSans-34" x="159.033203"/>
       <use xlink:href="#DejaVuSans-35" x="222.65625"/>
       <use xlink:href="#DejaVuSans-35" x="286.279297"/>
      </g>
     </g>
    </g>
    <g id="xtick_4">
     <g id="line2d_4">
      <g>
       <use xlink:href="#ma4d6dcf72e" x="193.114409" y="300.821699" style="stroke: #000000; stroke-width: 0.8"/>
      </g>
     </g>
     <g id="text_4">
      <!-- 13.460 -->
      <g transform="translate(175.619097 315.420137) scale(0.1 -0.1)">
       <defs>
        <path id="DejaVuSans-36" d="M 2113 2584 
Q 1688 2584 1439 2293 
Q 1191 2003 1191 1497 
Q 1191 994 1439 701 
Q 1688 409 2113 409 
Q 2538 409 2786 701 
Q 3034 994 3034 1497 
Q 3034 2003 2786 2293 
Q 2538 2584 2113 2584 
z
M 3366 4563 
L 3366 3988 
Q 3128 4100 2886 4159 
Q 2644 4219 2406 4219 
Q 1781 4219 1451 3797 
Q 1122 3375 1075 2522 
Q 1259 2794 1537 2939 
Q 1816 3084 2150 3084 
Q 2853 3084 3261 2657 
Q 3669 2231 3669 1497 
Q 3669 778 3244 343 
Q 2819 -91 2113 -91 
Q 1303 -91 875 529 
Q 447 1150 447 2328 
Q 447 3434 972 4092 
Q 1497 4750 2381 4750 
Q 2619 4750 2861 4703 
Q 3103 4656 3366 4563 
z
" transform="scale(0.015625)"/>
       </defs>
       <use xlink:href="#DejaVuSans-31"/>
       <use xlink:href="#DejaVuSans-33" x="63.623047"/>
       <use xlink:href="#DejaVuSans-2e" x="127.246094"/>
       <use xlink:href="#DejaVuSans-34" x="159.033203"/>
       <use xlink:href="#DejaVuSans-36" x="222.65625"/>
       <use xlink:href="#DejaVuSans-30" x="286.279297"/>
      </g>
     </g>
    </g>
    <g id="xtick_5">
     <g id="line2d_5">
      <g>
       <use xlink:href="#ma4d6dcf72e" x="234.053591" y="300.821699" style="stroke: #000000; stroke-width: 0.8"/>
      </g>
     </g>
     <g id="text_5">
      <!-- 13.465 -->
      <g transform="translate(216.558279 315.420137) scale(0.1 -0.1)">
       <use xlink:href="#DejaVuSans-31"/>
       <use xlink:href="#DejaVuSans-33" x="63.623047"/>
       <use xlink:href="#DejaVuSans-2e" x="127.246094"/>
       <use xlink:href="#DejaVuSans-34" x="159.033203"/>
       <use xlink:href="#DejaVuSans-36" x="222.65625"/>
       <use xlink:href="#DejaVuSans-35" x="286.279297"/>
      </g>
     </g>
    </g>
    <g id="xtick_6">
     <g id="line2d_6">
      <g>
       <use xlink:href="#ma4d6dcf72e" x="274.992773" y="300.821699" style="stroke: #000000; stroke-width: 0.8"/>
      </g>
     </g>
     <g id="text_6">
      <!-- 13.470 -->
      <g transform="translate(257.497461 315.420137) scale(0.1 -0.1)">
       <defs>
        <path id="DejaVuSans-37" d="M 525 4666 
L 3525 4666 
L 3525 4397 
L 1831 0 
L 1172 0 
L 2766 4134 
L 525 4134 
L 525 4666 
z
" transform="scale(0.015625)"/>
       </defs>
       <use xlink:href="#DejaVuSans-31"/>
       <use xlink:href="#DejaVuSans-33" x="63.623047"/>
       <use xlink:href="#DejaVuSans-2e" x="127.246094"/>
       <use xlink:href="#DejaVuSans-34" x="159.033203"/>
       <use xlink:href="#DejaVuSans-37" x="222.65625"/>
       <use xlink:href="#DejaVuSans-30" x="286.279297"/>
      </g>
     </g>
    </g>
    <g id="xtick_7">
     <g id="line2d_7">
      <g>
       <use xlink:href="#ma4d6dcf72e" x="315.931955" y="300.821699" style="stroke: #000000; stroke-width: 0.8"/>
      </g>
     </g>
     <g id="text_7">
      <!-- 13.475 -->
      <g transform="translate(298.436643 315.420137) scale(0.1 -0.1)">
       <use xlink:href="#DejaVuSans-31"/>
       <use xlink:href="#DejaVuSans-33" x="63.623047"/>
       <use xlink:href="#DejaVuSans-2e" x="127.246094"/>
       <use xlink:href="#DejaVuSans-34" x="159.033203"/>
       <use xlink:href="#DejaVuSans-37" x="222.65625"/>
       <use xlink:href="#DejaVuSans-35" x="286.279297"/>
      </g>
     </g>
    </g>
    <g id="xtick_8">
     <g id="line2d_8">
      <g>
       <use xlink:href="#ma4d6dcf72e" x="356.871137" y="300.821699" style="stroke: #000000; stroke-width: 0.8"/>
      </g>
     </g>
     <g id="text_8">
      <!-- 13.480 -->
      <g transform="translate(339.375824 315.420137) scale(0.1 -0.1)">
       <defs>
        <path id="DejaVuSans-38" d="M 2034 2216 
Q 1584 2216 1326 1975 
Q 1069 1734 1069 1313 
Q 1069 891 1326 650 
Q 1584 409 2034 409 
Q 2484 409 2743 651 
Q 3003 894 3003 1313 
Q 3003 1734 2745 1975 
Q 2488 2216 2034 2216 
z
M 1403 2484 
Q 997 2584 770 2862 
Q 544 3141 544 3541 
Q 544 4100 942 4425 
Q 1341 4750 2034 4750 
Q 2731 4750 3128 4425 
Q 3525 4100 3525 3541 
Q 3525 3141 3298 2862 
Q 3072 2584 2669 2484 
Q 3125 2378 3379 2068 
Q 3634 1759 3634 1313 
Q 3634 634 3220 271 
Q 2806 -91 2034 -91 
Q 1263 -91 848 271 
Q 434 634 434 1313 
Q 434 1759 690 2068 
Q 947 2378 1403 2484 
z
M 1172 3481 
Q 1172 3119 1398 2916 
Q 1625 2713 2034 2713 
Q 2441 2713 2670 2916 
Q 2900 3119 2900 3481 
Q 2900 3844 2670 4047 
Q 2441 4250 2034 4250 
Q 1625 4250 1398 4047 
Q 1172 3844 1172 3481 
z
" transform="scale(0.015625)"/>
       </defs>
       <use xlink:href="#DejaVuSans-31"/>
       <use xlink:href="#DejaVuSans-33" x="63.623047"/>
       <use xlink:href="#DejaVuSans-2e" x="127.246094"/>
       <use xlink:href="#DejaVuSans-34" x="159.033203"/>
       <use xlink:href="#DejaVuSans-38" x="222.65625"/>
       <use xlink:href="#DejaVuSans-30" x="286.279297"/>
      </g>
     </g>
    </g>
    <g id="xtick_9">
     <g id="line2d_9">
      <g>
       <use xlink:href="#ma4d6dcf72e" x="397.810319" y="300.821699" style="stroke: #000000; stroke-width: 0.8"/>
      </g>
     </g>
     <g id="text_9">
      <!-- 13.485 -->
      <g transform="translate(380.315006 315.420137) scale(0.1 -0.1)">
       <use xlink:href="#DejaVuSans-31"/>
       <use xlink:href="#DejaVuSans-33" x="63.623047"/>
       <use xlink:href="#DejaVuSans-2e" x="127.246094"/>
       <use xlink:href="#DejaVuSans-34" x="159.033203"/>
       <use xlink:href="#DejaVuSans-38" x="222.65625"/>
       <use xlink:href="#DejaVuSans-35" x="286.279297"/>
      </g>
     </g>
    </g>
   </g>
   <g id="matplotlib.axis_2">
    <g id="ytick_1">
     <g id="line2d_10">
      <defs>
       <path id="m4d848877b0" d="M 0 0 
L -3.5 0 
" style="stroke: #000000; stroke-width: 0.8"/>
      </defs>
      <g>
       <use xlink:href="#m4d848877b0" x="57.6" y="283.860339" style="stroke: #000000; stroke-width: 0.8"/>
      </g>
     </g>
     <g id="text_10">
      <!-- 52.4200 -->
      <g transform="translate(9.246875 287.659558) scale(0.1 -0.1)">
       <defs>
        <path id="DejaVuSans-32" d="M 1228 531 
L 3431 531 
L 3431 0 
L 469 0 
L 469 531 
Q 828 903 1448 1529 
Q 2069 2156 2228 2338 
Q 2531 2678 2651 2914 
Q 2772 3150 2772 3378 
Q 2772 3750 2511 3984 
Q 2250 4219 1831 4219 
Q 1534 4219 1204 4116 
Q 875 4013 500 3803 
L 500 4441 
Q 881 4594 1212 4672 
Q 1544 4750 1819 4750 
Q 2544 4750 2975 4387 
Q 3406 4025 3406 3419 
Q 3406 3131 3298 2873 
Q 3191 2616 2906 2266 
Q 2828 2175 2409 1742 
Q 1991 1309 1228 531 
z
" transform="scale(0.015625)"/>
       </defs>
       <use xlink:href="#DejaVuSans-35"/>
       <use xlink:href="#DejaVuSans-32" x="63.623047"/>
       <use xlink:href="#DejaVuSans-2e" x="127.246094"/>
       <use xlink:href="#DejaVuSans-34" x="159.033203"/>
       <use xlink:href="#DejaVuSans-32" x="222.65625"/>
       <use xlink:href="#DejaVuSans-30" x="286.279297"/>
       <use xlink:href="#DejaVuSans-30" x="349.902344"/>
      </g>
     </g>
    </g>
    <g id="ytick_2">
     <g id="line2d_11">
      <g>
       <use xlink:href="#m4d848877b0" x="57.6" y="250.290202" style="stroke: #000000; stroke-width: 0.8"/>
      </g>
     </g>
     <g id="text_11">
      <!-- 52.4225 -->
      <g transform="translate(9.246875 254.08942) scale(0.1 -0.1)">
       <use xlink:href="#DejaVuSans-35"/>
       <use xlink:href="#DejaVuSans-32" x="63.623047"/>
       <use xlink:href="#DejaVuSans-2e" x="127.246094"/>
       <use xlink:href="#DejaVuSans-34" x="159.033203"/>
       <use xlink:href="#DejaVuSans-32" x="222.65625"/>
       <use xlink:href="#DejaVuSans-32" x="286.279297"/>
       <use xlink:href="#DejaVuSans-35" x="349.902344"/>
      </g>
     </g>
    </g>
    <g id="ytick_3">
     <g id="line2d_12">
      <g>
       <use xlink:href="#m4d848877b0" x="57.6" y="216.720064" style="stroke: #000000; stroke-width: 0.8"/>
      </g>
     </g>
     <g id="text_12">
      <!-- 52.4250 -->
      <g transform="translate(9.246875 220.519283) scale(0.1 -0.1)">
       <use xlink:href="#DejaVuSans-35"/>
       <use xlink:href="#DejaVuSans-32" x="63.623047"/>
       <use xlink:href="#DejaVuSans-2e" x="127.246094"/>
       <use xlink:href="#DejaVuSans-34" x="159.033203"/>
       <use xlink:href="#DejaVuSans-32" x="222.65625"/>
       <use xlink:href="#DejaVuSans-35" x="286.279297"/>
       <use xlink:href="#DejaVuSans-30" x="349.902344"/>
      </g>
     </g>
    </g>
    <g id="ytick_4">
     <g id="line2d_13">
      <g>
       <use xlink:href="#m4d848877b0" x="57.6" y="183.149926" style="stroke: #000000; stroke-width: 0.8"/>
      </g>
     </g>
     <g id="text_13">
      <!-- 52.4275 -->
      <g transform="translate(9.246875 186.949145) scale(0.1 -0.1)">
       <use xlink:href="#DejaVuSans-35"/>
       <use xlink:href="#DejaVuSans-32" x="63.623047"/>
       <use xlink:href="#DejaVuSans-2e" x="127.246094"/>
       <use xlink:href="#DejaVuSans-34" x="159.033203"/>
       <use xlink:href="#DejaVuSans-32" x="222.65625"/>
       <use xlink:href="#DejaVuSans-37" x="286.279297"/>
       <use xlink:href="#DejaVuSans-35" x="349.902344"/>
      </g>
     </g>
    </g>
    <g id="ytick_5">
     <g id="line2d_14">
      <g>
       <use xlink:href="#m4d848877b0" x="57.6" y="149.579788" style="stroke: #000000; stroke-width: 0.8"/>
      </g>
     </g>
     <g id="text_14">
      <!-- 52.4300 -->
      <g transform="translate(9.246875 153.379007) scale(0.1 -0.1)">
       <use xlink:href="#DejaVuSans-35"/>
       <use xlink:href="#DejaVuSans-32" x="63.623047"/>
       <use xlink:href="#DejaVuSans-2e" x="127.246094"/>
       <use xlink:href="#DejaVuSans-34" x="159.033203"/>
       <use xlink:href="#DejaVuSans-33" x="222.65625"/>
       <use xlink:href="#DejaVuSans-30" x="286.279297"/>
       <use xlink:href="#DejaVuSans-30" x="349.902344"/>
      </g>
     </g>
    </g>
    <g id="ytick_6">
     <g id="line2d_15">
      <g>
       <use xlink:href="#m4d848877b0" x="57.6" y="116.00965" style="stroke: #000000; stroke-width: 0.8"/>
      </g>
     </g>
     <g id="text_15">
      <!-- 52.4325 -->
      <g transform="translate(9.246875 119.808869) scale(0.1 -0.1)">
       <use xlink:href="#DejaVuSans-35"/>
       <use xlink:href="#DejaVuSans-32" x="63.623047"/>
       <use xlink:href="#DejaVuSans-2e" x="127.246094"/>
       <use xlink:href="#DejaVuSans-34" x="159.033203"/>
       <use xlink:href="#DejaVuSans-33" x="222.65625"/>
       <use xlink:href="#DejaVuSans-32" x="286.279297"/>
       <use xlink:href="#DejaVuSans-35" x="349.902344"/>
      </g>
     </g>
    </g>
    <g id="ytick_7">
     <g id="line2d_16">
      <g>
       <use xlink:href="#m4d848877b0" x="57.6" y="82.439512" style="stroke: #000000; stroke-width: 0.8"/>
      </g>
     </g>
     <g id="text_16">
      <!-- 52.4350 -->
      <g transform="translate(9.246875 86.238731) scale(0.1 -0.1)">
       <use xlink:href="#DejaVuSans-35"/>
       <use xlink:href="#DejaVuSans-32" x="63.623047"/>
       <use xlink:href="#DejaVuSans-2e" x="127.246094"/>
       <use xlink:href="#DejaVuSans-34" x="159.033203"/>
       <use xlink:href="#DejaVuSans-33" x="222.65625"/>
       <use xlink:href="#DejaVuSans-35" x="286.279297"/>
       <use xlink:href="#DejaVuSans-30" x="349.902344"/>
      </g>
     </g>
    </g>
    <g id="ytick_8">
     <g id="line2d_17">
      <g>
       <use xlink:href="#m4d848877b0" x="57.6" y="48.869375" style="stroke: #000000; stroke-width: 0.8"/>
      </g>
     </g>
     <g id="text_17">
      <!-- 52.4375 -->
      <g transform="translate(9.246875 52.668593) scale(0.1 -0.1)">
       <use xlink:href="#DejaVuSans-35"/>
       <use xlink:href="#DejaVuSans-32" x="63.623047"/>
       <use xlink:href="#DejaVuSans-2e" x="127.246094"/>
       <use xlink:href="#DejaVuSans-34" x="159.033203"/>
       <use xlink:href="#DejaVuSans-33" x="222.65625"/>
       <use xlink:href="#DejaVuSans-37" x="286.279297"/>
       <use xlink:href="#DejaVuSans-35" x="349.902344"/>
      </g>
     </g>
    </g>
   </g>
   <g id="patch_3">
    <path d="M 57.6 300.821699 
L 57.6 48.234301 
" style="fill: none; stroke: #000000; stroke-width: 0.8; stroke-linejoin: miter; stroke-linecap: square"/>
   </g>
   <g id="patch_4">
    <path d="M 414.72 300.821699 
L 414.72 48.234301 
" style="fill: none; stroke: #000000; stroke-width: 0.8; stroke-linejoin: miter; stroke-linecap: square"/>
   </g>
   <g id="patch_5">
    <path d="M 57.6 300.821699 
L 414.72 300.821699 
" style="fill: none; stroke: #000000; stroke-width: 0.8; stroke-linejoin: miter; stroke-linecap: square"/>
   </g>
   <g id="patch_6">
    <path d="M 57.6 48.234301 
L 414.72 48.234301 
" style="fill: none; stroke: #000000; stroke-width: 0.8; stroke-linejoin: miter; stroke-linecap: square"/>
   </g>
   <g id="text_18">
    <!-- Gropiusstadt -->
    <g transform="translate(187.682915 197.726145) scale(0.12 -0.12)">
     <defs>
      <path id="DejaVuSans-47" d="M 3809 666 
L 3809 1919 
L 2778 1919 
L 2778 2438 
L 4434 2438 
L 4434 434 
Q 4069 175 3628 42 
Q 3188 -91 2688 -91 
Q 1594 -91 976 548 
Q 359 1188 359 2328 
Q 359 3472 976 4111 
Q 1594 4750 2688 4750 
Q 3144 4750 3555 4637 
Q 3966 4525 4313 4306 
L 4313 3634 
Q 3963 3931 3569 4081 
Q 3175 4231 2741 4231 
Q 1884 4231 1454 3753 
Q 1025 3275 1025 2328 
Q 1025 1384 1454 906 
Q 1884 428 2741 428 
Q 3075 428 3337 486 
Q 3600 544 3809 666 
z
" transform="scale(0.015625)"/>
      <path id="DejaVuSans-72" d="M 2631 2963 
Q 2534 3019 2420 3045 
Q 2306 3072 2169 3072 
Q 1681 3072 1420 2755 
Q 1159 2438 1159 1844 
L 1159 0 
L 581 0 
L 581 3500 
L 1159 3500 
L 1159 2956 
Q 1341 3275 1631 3429 
Q 1922 3584 2338 3584 
Q 2397 3584 2469 3576 
Q 2541 3569 2628 3553 
L 2631 2963 
z
" transform="scale(0.015625)"/>
      <path id="DejaVuSans-6f" d="M 1959 3097 
Q 1497 3097 1228 2736 
Q 959 2375 959 1747 
Q 959 1119 1226 758 
Q 1494 397 1959 397 
Q 2419 397 2687 759 
Q 2956 1122 2956 1747 
Q 2956 2369 2687 2733 
Q 2419 3097 1959 3097 
z
M 1959 3584 
Q 2709 3584 3137 3096 
Q 3566 2609 3566 1747 
Q 3566 888 3137 398 
Q 2709 -91 1959 -91 
Q 1206 -91 779 398 
Q 353 888 353 1747 
Q 353 2609 779 3096 
Q 1206 3584 1959 3584 
z
" transform="scale(0.015625)"/>
      <path id="DejaVuSans-70" d="M 1159 525 
L 1159 -1331 
L 581 -1331 
L 581 3500 
L 1159 3500 
L 1159 2969 
Q 1341 3281 1617 3432 
Q 1894 3584 2278 3584 
Q 2916 3584 3314 3078 
Q 3713 2572 3713 1747 
Q 3713 922 3314 415 
Q 2916 -91 2278 -91 
Q 1894 -91 1617 61 
Q 1341 213 1159 525 
z
M 3116 1747 
Q 3116 2381 2855 2742 
Q 2594 3103 2138 3103 
Q 1681 3103 1420 2742 
Q 1159 2381 1159 1747 
Q 1159 1113 1420 752 
Q 1681 391 2138 391 
Q 2594 391 2855 752 
Q 3116 1113 3116 1747 
z
" transform="scale(0.015625)"/>
      <path id="DejaVuSans-69" d="M 603 3500 
L 1178 3500 
L 1178 0 
L 603 0 
L 603 3500 
z
M 603 4863 
L 1178 4863 
L 1178 4134 
L 603 4134 
L 603 4863 
z
" transform="scale(0.015625)"/>
      <path id="DejaVuSans-75" d="M 544 1381 
L 544 3500 
L 1119 3500 
L 1119 1403 
Q 1119 906 1312 657 
Q 1506 409 1894 409 
Q 2359 409 2629 706 
Q 2900 1003 2900 1516 
L 2900 3500 
L 3475 3500 
L 3475 0 
L 2900 0 
L 2900 538 
Q 2691 219 2414 64 
Q 2138 -91 1772 -91 
Q 1169 -91 856 284 
Q 544 659 544 1381 
z
M 1991 3584 
L 1991 3584 
z
" transform="scale(0.015625)"/>
      <path id="DejaVuSans-73" d="M 2834 3397 
L 2834 2853 
Q 2591 2978 2328 3040 
Q 2066 3103 1784 3103 
Q 1356 3103 1142 2972 
Q 928 2841 928 2578 
Q 928 2378 1081 2264 
Q 1234 2150 1697 2047 
L 1894 2003 
Q 2506 1872 2764 1633 
Q 3022 1394 3022 966 
Q 3022 478 2636 193 
Q 2250 -91 1575 -91 
Q 1294 -91 989 -36 
Q 684 19 347 128 
L 347 722 
Q 666 556 975 473 
Q 1284 391 1588 391 
Q 1994 391 2212 530 
Q 2431 669 2431 922 
Q 2431 1156 2273 1281 
Q 2116 1406 1581 1522 
L 1381 1569 
Q 847 1681 609 1914 
Q 372 2147 372 2553 
Q 372 3047 722 3315 
Q 1072 3584 1716 3584 
Q 2034 3584 2315 3537 
Q 2597 3491 2834 3397 
z
" transform="scale(0.015625)"/>
      <path id="DejaVuSans-74" d="M 1172 4494 
L 1172 3500 
L 2356 3500 
L 2356 3053 
L 1172 3053 
L 1172 1153 
Q 1172 725 1289 603 
Q 1406 481 1766 481 
L 2356 481 
L 2356 0 
L 1766 0 
Q 1100 0 847 248 
Q 594 497 594 1153 
L 594 3053 
L 172 3053 
L 172 3500 
L 594 3500 
L 594 4494 
L 1172 4494 
z
" transform="scale(0.015625)"/>
      <path id="DejaVuSans-61" d="M 2194 1759 
Q 1497 1759 1228 1600 
Q 959 1441 959 1056 
Q 959 750 1161 570 
Q 1363 391 1709 391 
Q 2188 391 2477 730 
Q 2766 1069 2766 1631 
L 2766 1759 
L 2194 1759 
z
M 3341 1997 
L 3341 0 
L 2766 0 
L 2766 531 
Q 2569 213 2275 61 
Q 1981 -91 1556 -91 
Q 1019 -91 701 211 
Q 384 513 384 1019 
Q 384 1609 779 1909 
Q 1175 2209 1959 2209 
L 2766 2209 
L 2766 2266 
Q 2766 2663 2505 2880 
Q 2244 3097 1772 3097 
Q 1472 3097 1187 3025 
Q 903 2953 641 2809 
L 641 3341 
Q 956 3463 1253 3523 
Q 1550 3584 1831 3584 
Q 2591 3584 2966 3190 
Q 3341 2797 3341 1997 
z
" transform="scale(0.015625)"/>
      <path id="DejaVuSans-64" d="M 2906 2969 
L 2906 4863 
L 3481 4863 
L 3481 0 
L 2906 0 
L 2906 525 
Q 2725 213 2448 61 
Q 2172 -91 1784 -91 
Q 1150 -91 751 415 
Q 353 922 353 1747 
Q 353 2572 751 3078 
Q 1150 3584 1784 3584 
Q 2172 3584 2448 3432 
Q 2725 3281 2906 2969 
z
M 947 1747 
Q 947 1113 1208 752 
Q 1469 391 1925 391 
Q 2381 391 2643 752 
Q 2906 1113 2906 1747 
Q 2906 2381 2643 2742 
Q 2381 3103 1925 3103 
Q 1469 3103 1208 2742 
Q 947 2381 947 1747 
z
" transform="scale(0.015625)"/>
     </defs>
     <use xlink:href="#DejaVuSans-47"/>
     <use xlink:href="#DejaVuSans-72" x="77.490234"/>
     <use xlink:href="#DejaVuSans-6f" x="116.353516"/>
     <use xlink:href="#DejaVuSans-70" x="177.535156"/>
     <use xlink:href="#DejaVuSans-69" x="241.011719"/>
     <use xlink:href="#DejaVuSans-75" x="268.794922"/>
     <use xlink:href="#DejaVuSans-73" x="332.173828"/>
     <use xlink:href="#DejaVuSans-73" x="384.273438"/>
     <use xlink:href="#DejaVuSans-74" x="436.373047"/>
     <use xlink:href="#DejaVuSans-61" x="475.582031"/>
     <use xlink:href="#DejaVuSans-64" x="536.861328"/>
     <use xlink:href="#DejaVuSans-74" x="600.337891"/>
    </g>
   </g>
  </g>
 </g>
 <defs>
  <clipPath id="p1c7c1177b0">
   <rect x="57.6" y="48.234301" width="357.12" height="252.587399"/>
  </clipPath>
 </defs>
</svg>
