<?xml version="1.0" encoding="utf-8" standalone="no"?>
<!DOCTYPE svg PUBLIC "-//W3C//DTD SVG 1.1//EN"
  "http://www.w3.org/Graphics/SVG/1.1/DTD/svg11.dtd">
<svg xmlns:xlink="http://www.w3.org/1999/xlink" width="460.8pt" height="345.6pt" viewBox="0 0 460.8 345.6" xmlns="http://www.w3.org/2000/svg" version="1.1">
 <metadata>
  <rdf:RDF xmlns:dc="http://purl.org/dc/elements/1.1/" xmlns:cc="http://creativecommons.org/ns#" xmlns:rdf="http://www.w3.org/1999/02/22-rdf-syntax-ns#">
   <cc:Work>
    <dc:type rdf:resource="http://purl.org/dc/dcmitype/StillImage"/>
    <dc:date>2024-10-15T09:53:29.658330</dc:date>
    <dc:format>image/svg+xml</dc:format>
    <dc:creator>
     <cc:Agent>
      <dc:title>Matplotlib v3.8.4, https://matplotlib.org/</dc:title>
     </cc:Agent>
    </dc:creator>
   </cc:Work>
  </rdf:RDF>
 </metadata>
 <defs>
  <style type="text/css">*{stroke-linejoin: round; stroke-linecap: butt}</style>
 </defs>
 <g id="figure_1">
  <g id="patch_1">
   <path d="M 0 345.6 
L 460.8 345.6 
L 460.8 0 
L 0 0 
z
" style="fill: #ffffff"/>
  </g>
  <g id="axes_1">
   <g id="patch_2">
    <path d="M 71.414187 307.584 
L 400.905813 307.584 
L 400.905813 41.472 
L 71.414187 41.472 
z
" style="fill: #ffffff"/>
   </g>
   <g id="PatchCollection_1">
    <path d="M 331.244808 282.906686 
L 331.609315 282.920845 
L 331.946357 282.933939 
L 332.255445 282.945844 
L 332.710774 282.963513 
L 332.885328 282.957338 
L 333.892147 282.921747 
L 335.02103 282.882086 
L 336.197143 282.847521 
L 337.38183 282.864429 
L 338.566111 282.926799 
L 339.740341 283.010852 
L 340.930757 283.10015 
L 342.109879 283.199064 
L 343.291388 283.313015 
L 343.817703 283.360552 
L 344.472305 283.41968 
L 345.298664 283.490493 
L 346.486628 283.579812 
L 347.67347 283.672156 
L 348.862073 283.763266 
L 350.053122 283.856836 
L 351.241451 283.896467 
L 352.16564 283.856095 
L 352.600491 283.936559 
L 352.841294 283.889288 
L 353.133257 283.776542 
L 354.30199 283.585287 
L 355.322049 283.391255 
L 355.501367 283.326958 
L 355.569665 283.37927 
L 355.577424 283.376629 
L 356.84948 282.951061 
L 356.860968 282.982162 
L 356.903542 283.014852 
L 357.788623 282.58096 
L 357.961427 282.496283 
L 358.999592 281.941784 
L 359.840981 281.450565 
L 360.823055 280.774368 
L 361.758207 280.045648 
L 362.786393 279.156685 
L 363.689209 278.378508 
L 364.590733 277.598509 
L 364.764435 277.446033 
L 365.475035 276.822218 
L 366.41746 276.112081 
L 366.517325 276.053286 
L 367.428718 275.516762 
L 368.729192 274.910753 
L 369.867931 274.546094 
L 371.034005 274.283717 
L 371.915285 274.109828 
L 371.993138 274.094494 
L 372.188247 274.056056 
L 373.368625 273.905437 
L 373.673892 273.904484 
L 374.03582 273.903434 
L 374.256332 273.755652 
L 374.364179 273.683376 
L 374.543731 273.919792 
L 375.133471 273.942397 
L 375.650536 273.974585 
L 376.825608 274.113136 
L 377.070317 274.171955 
L 377.969831 274.388292 
L 379.077631 274.779109 
L 380.152676 275.246517 
L 380.488224 275.411907 
L 381.232933 273.894719 
L 381.703932 272.935125 
L 381.86357 272.609829 
L 381.90137 272.527073 
L 382.002953 272.301542 
L 382.122254 272.037686 
L 382.207917 271.282617 
L 382.233349 271.058666 
L 382.317265 270.32304 
L 382.48721 268.832576 
L 382.60971 267.757959 
L 382.663023 267.563999 
L 382.685327 267.482392 
L 382.703865 267.194416 
L 382.740337 266.625725 
L 382.742552 266.590763 
L 382.827027 265.277603 
L 383.044524 264.318437 
L 384.304665 258.760975 
L 384.468903 258.035468 
L 384.5353 257.743595 
L 384.543734 257.706509 
L 385.353883 254.133965 
L 385.519432 253.126403 
L 385.726882 251.864019 
L 385.731765 251.823186 
L 385.733895 251.782119 
L 385.733217 251.740999 
L 385.729676 251.700007 
L 385.721209 251.645182 
L 385.707691 251.591375 
L 385.689252 251.539063 
L 385.666082 251.48872 
L 385.63831 251.440702 
L 385.601505 251.389487 
L 385.559484 251.342408 
L 385.512739 251.300053 
L 385.461817 251.262887 
L 385.407264 251.231256 
L 385.34969 251.205626 
L 385.289755 251.186219 
L 385.369888 250.884319 
L 385.5666 250.179578 
L 385.56663 250.179473 
L 385.64847 249.886573 
L 385.843893 249.186489 
L 385.928921 248.881957 
L 385.558141 248.783088 
L 385.188404 248.680362 
L 384.819714 248.573958 
L 384.452126 248.463697 
L 384.085705 248.349756 
L 383.521669 248.167004 
L 382.959466 247.978521 
L 382.399217 247.784304 
L 381.840982 247.584412 
L 381.284761 247.378844 
L 380.76507 247.182763 
L 380.247293 246.981787 
L 379.731428 246.775857 
L 379.217535 246.56503 
L 378.705675 246.349306 
L 378.219967 246.138526 
L 377.736184 245.92333 
L 377.254327 245.703777 
L 376.774515 245.479865 
L 376.719377 245.453819 
L 376.664297 245.427711 
L 376.609275 245.401543 
L 376.46806 245.334083 
L 376.327014 245.266259 
L 376.186198 245.198011 
L 368.678646 241.548558 
L 368.516131 241.469516 
L 367.837379 241.139605 
L 364.573155 239.546673 
L 362.805918 238.693578 
L 362.007768 238.305465 
L 362.207576 237.899319 
L 361.863597 237.738224 
L 361.758639 236.891911 
L 361.927978 236.86115 
L 361.731852 235.687274 
L 361.503229 234.69848 
L 361.278123 233.834807 
L 361.011132 232.927588 
L 360.71692 232.081018 
L 360.311017 230.968035 
L 360.141164 230.654034 
L 360.125174 230.308802 
L 359.953637 230.139686 
L 359.903864 230.09088 
L 359.81511 229.887327 
L 359.797173 229.846321 
L 359.596864 229.387068 
L 359.566795 229.31809 
L 359.439637 229.026599 
L 359.257403 228.609186 
L 358.753033 227.637301 
L 359.074413 227.568704 
L 359.070378 227.479583 
L 359.242817 227.470961 
L 358.978833 226.815697 
L 358.141917 225.208694 
L 357.764304 224.641959 
L 357.098036 223.880954 
L 357.07399 223.851771 
L 356.561357 223.252826 
L 356.05592 222.677781 
L 355.505867 222.125062 
L 354.944025 221.594003 
L 354.363019 221.07077 
L 353.739933 220.586091 
L 353.119305 220.144466 
L 352.991482 220.055858 
L 352.50363 219.717812 
L 351.821706 219.287839 
L 351.161913 218.889491 
L 350.481531 218.534331 
L 349.75635 218.191385 
L 349.054112 217.889026 
L 348.329418 217.631637 
L 347.588164 217.418658 
L 347.103478 217.293649 
L 346.82977 217.223156 
L 346.876517 217.020007 
L 346.573722 216.951889 
L 346.222294 216.872903 
L 345.934388 216.808081 
L 345.942576 216.773335 
L 346.048547 216.319313 
L 346.516744 214.313007 
L 346.578673 214.047819 
L 346.583117 213.866283 
L 346.587748 213.675042 
L 346.59252 213.487211 
L 346.601787 213.117483 
L 346.678937 212.786962 
L 346.906253 211.812205 
L 346.913942 211.779088 
L 346.941034 211.663113 
L 347.046023 211.212828 
L 347.149986 210.767118 
L 347.179457 210.640727 
L 347.288727 210.172136 
L 347.387706 209.747742 
L 347.413657 209.636525 
L 347.525906 209.155109 
L 347.627538 208.719215 
L 347.655442 208.599748 
L 347.759781 208.152172 
L 347.86835 207.686652 
L 347.89604 207.568208 
L 348.005152 207.1004 
L 348.105593 206.669624 
L 348.133222 206.551122 
L 348.240061 206.093128 
L 348.344458 205.645432 
L 348.372466 205.525244 
L 348.481419 205.058218 
L 348.585922 204.60992 
L 348.613879 204.490153 
L 348.737296 203.960986 
L 348.840561 203.518347 
L 348.863096 203.421583 
L 348.974486 202.94402 
L 349.077858 202.500779 
L 349.100883 202.402028 
L 349.213365 201.920127 
L 349.316083 201.479538 
L 349.340571 201.374523 
L 349.452776 200.893468 
L 349.558318 200.441015 
L 349.584648 200.328112 
L 349.692793 199.864579 
L 349.804292 199.386475 
L 349.830407 199.274536 
L 349.922406 198.880189 
L 350.16431 197.842693 
L 350.204885 197.668434 
L 350.245183 197.495139 
L 350.287163 197.314595 
L 350.328488 197.136868 
L 350.368628 196.964415 
L 350.409597 196.789188 
L 350.623475 195.870982 
L 350.633975 195.825463 
L 350.670786 195.651174 
L 350.700158 195.475447 
L 350.722097 195.298641 
L 350.736493 195.121057 
L 350.743293 194.942998 
L 350.742625 194.764878 
L 350.734375 194.586879 
L 350.718554 194.409422 
L 350.695227 194.232804 
L 350.664461 194.057322 
L 350.626265 193.883335 
L 350.580705 193.711082 
L 350.52791 193.540979 
L 350.088838 192.223365 
L 349.310086 189.886699 
L 349.717306 189.787053 
L 349.980007 189.723148 
L 350.237246 189.660632 
L 348.460118 184.340025 
L 348.426862 184.240468 
L 348.211948 183.596851 
L 348.13772 183.374749 
L 346.807395 179.392056 
L 345.639129 175.884142 
L 344.197 171.554699 
L 343.170989 168.443481 
L 340.609804 160.776523 
L 339.266473 156.743281 
L 337.606041 153.886478 
L 337.277925 153.321933 
L 337.086737 152.99301 
L 336.661688 152.51157 
L 336.465954 152.289817 
L 336.488855 151.616541 
L 337.824607 151.653657 
L 337.825814 151.611713 
L 337.837856 151.191083 
L 337.845823 150.912281 
L 337.933497 147.849467 
L 337.953934 147.135474 
L 337.957025 147.02744 
L 337.570669 147.010199 
L 336.515512 146.969932 
L 333.440883 146.896011 
L 320.629956 146.588264 
L 318.01528 146.517077 
L 313.225066 146.3861 
L 307.313595 146.236335 
L 301.341538 146.026599 
L 298.355813 145.922099 
L 296.76497 145.850613 
L 292.384052 145.65332 
L 289.516813 145.488442 
L 283.721992 144.799349 
L 278.341704 143.570286 
L 272.780057 141.803588 
L 267.694014 139.650915 
L 262.783873 136.887616 
L 257.990627 133.78205 
L 253.362214 130.131079 
L 252.638377 129.524457 
L 252.425746 129.353229 
L 252.308952 129.259248 
L 251.745333 128.805731 
L 251.692268 128.763072 
L 251.566334 128.661708 
L 249.283504 126.795113 
L 247.597302 125.416088 
L 246.493332 124.514076 
L 245.380982 123.604249 
L 244.266193 122.692689 
L 243.179618 121.804277 
L 227.196029 108.735374 
L 226.14586 107.876794 
L 225.067579 106.995013 
L 223.995875 106.118584 
L 222.938553 105.254083 
L 221.844595 104.359822 
L 220.910833 103.596976 
L 219.61539 102.537474 
L 219.673534 103.142197 
L 218.968239 102.566701 
L 217.760399 101.582069 
L 212.306217 97.132498 
L 211.567277 96.528383 
L 210.832605 95.927937 
L 210.849581 94.417283 
L 210.770572 94.278862 
L 210.688253 94.18118 
L 210.553312 94.071791 
L 209.615403 93.428239 
L 208.383648 92.583147 
L 207.55141 92.836561 
L 207.276705 92.611258 
L 203.217364 89.302101 
L 198.289321 85.277791 
L 195.10055 82.673849 
L 193.071502 81.016967 
L 193.116794 81.002383 
L 190.196552 78.571782 
L 187.37342 76.217266 
L 182.754055 71.818109 
L 180.049061 68.594867 
L 179.418469 67.843446 
L 178.301014 66.185883 
L 177.835037 66.482234 
L 177.546314 66.760337 
L 176.975246 66.080629 
L 167.819969 55.435999 
L 167.679628 55.266167 
L 167.544501 55.092074 
L 167.414772 54.913957 
L 167.290504 54.731933 
L 167.171823 54.546239 
L 167.058911 54.35699 
L 166.951829 54.164304 
L 166.850646 53.968479 
L 166.755484 53.769632 
L 166.666408 53.568 
L 167.658419 56.426763 
L 167.810527 57.332744 
L 167.828268 58.44424 
L 167.698677 59.541877 
L 167.434308 60.652592 
L 167.095618 61.473591 
L 166.520345 62.571362 
L 165.837277 63.481196 
L 164.919896 64.404405 
L 163.927383 65.194803 
L 163.027043 65.796413 
L 161.78507 66.640026 
L 160.613325 67.540235 
L 159.315081 68.615235 
L 158.114231 69.714188 
L 156.659682 71.216928 
L 155.455592 72.662545 
L 154.258708 74.24547 
L 153.385274 75.507739 
L 152.432553 77.144408 
L 151.800972 78.52239 
L 151.10016 80.428647 
L 149.331653 85.335629 
L 147.455205 90.535215 
L 146.608728 92.944702 
L 146.095987 94.415269 
L 145.604411 95.920283 
L 145.032219 97.672189 
L 144.822151 98.330645 
L 144.618526 98.991097 
L 144.421344 99.653547 
L 144.230722 100.31793 
L 144.046658 100.984127 
L 143.869091 101.65214 
L 143.698079 102.321847 
L 143.53368 102.993187 
L 143.375834 103.666162 
L 143.28054 104.088859 
L 143.188491 104.512315 
L 143.099685 104.936408 
L 142.967894 105.597483 
L 142.843969 106.2601 
L 142.727906 106.92414 
L 142.619642 107.589483 
L 142.519295 108.256069 
L 142.426802 108.923778 
L 142.342223 109.592609 
L 142.265552 110.262322 
L 142.196791 110.932978 
L 142.135993 111.604335 
L 142.083099 112.276395 
L 142.038224 112.949035 
L 142.001247 113.622139 
L 141.972227 114.295705 
L 141.951158 114.969494 
L 141.9381 115.643504 
L 142.606991 122.28157 
L 143.746153 133.587344 
L 143.92718 135.245137 
L 144.350896 139.125482 
L 145.178284 146.702934 
L 145.289587 147.722124 
L 145.583189 150.411004 
L 145.608715 150.645156 
L 145.607016 150.692681 
L 145.605136 150.740151 
L 145.603136 150.787623 
L 145.601017 150.835099 
L 145.599014 150.877606 
L 145.598779 150.882578 
L 145.596362 150.930061 
L 145.579048 151.214849 
L 145.556768 151.499281 
L 145.529639 151.783294 
L 145.497598 152.06677 
L 145.460704 152.349646 
L 145.418956 152.631865 
L 145.394696 152.782219 
L 145.369055 152.932307 
L 145.341975 153.082192 
L 145.289813 153.351435 
L 145.233149 153.61977 
L 145.172041 153.887138 
L 145.106546 154.153416 
L 145.036664 154.418605 
L 144.95209 154.717928 
L 144.861861 155.015595 
L 144.766032 155.311483 
L 144.664724 155.605531 
L 144.557871 155.897621 
L 144.445592 156.187628 
L 144.327823 156.475437 
L 143.621158 158.30929 
L 143.093792 159.677955 
L 142.560591 161.061795 
L 142.223182 161.937224 
L 141.425469 164.007456 
L 141.150059 164.722199 
L 140.991225 165.139702 
L 140.825335 165.554444 
L 140.652384 165.966248 
L 140.472493 166.375109 
L 140.285655 166.78079 
L 140.091988 167.183226 
L 139.891489 167.582298 
L 139.684216 167.977945 
L 139.470284 168.369924 
L 139.249751 168.758235 
L 139.022614 169.142697 
L 138.78899 169.523248 
L 138.605682 169.795434 
L 138.418425 170.064903 
L 138.227278 170.331594 
L 138.032238 170.595447 
L 137.781895 170.922702 
L 137.525585 171.245314 
L 137.263423 171.563101 
L 136.995469 171.876061 
L 136.721836 172.184013 
L 136.442583 172.486834 
L 136.157829 172.784523 
L 135.867627 173.076837 
L 135.572158 173.363834 
L 135.271476 173.645271 
L 134.9657 173.921146 
L 134.654887 174.191337 
L 134.339214 174.455782 
L 133.031976 175.540411 
L 132.631803 175.870897 
L 132.227131 176.195747 
L 131.817962 176.51496 
L 131.404412 176.828474 
L 130.9866 177.136226 
L 130.564584 177.438155 
L 130.138481 177.734137 
L 129.708231 178.024235 
L 129.274072 178.308323 
L 128.836061 178.58634 
L 128.394196 178.858225 
L 127.726117 179.260077 
L 127.055423 179.657565 
L 126.382112 180.050568 
L 126.330639 180.080165 
L 125.706247 180.439205 
L 125.027884 180.823355 
L 124.347022 181.203017 
L 123.663663 181.578192 
L 123.36086 181.741255 
L 123.056495 181.901543 
L 122.867251 181.998941 
L 122.750686 182.058934 
L 122.443433 182.213485 
L 121.847484 182.499976 
L 121.24845 182.780017 
L 120.64651 183.053545 
L 120.041664 183.320619 
L 119.433971 183.581179 
L 118.823548 183.835161 
L 118.210395 184.082506 
L 117.594631 184.32327 
L 116.976375 184.557391 
L 116.355627 184.784869 
L 115.732443 185.005582 
L 115.411154 185.11624 
L 115.343935 185.139403 
L 114.954466 185.270613 
L 114.564217 185.399209 
L 114.173067 185.525192 
L 112.169239 185.346699 
L 111.683605 185.303419 
L 105.299243 184.734776 
L 104.635416 184.683238 
L 101.14094 184.358913 
L 100.581724 184.303768 
L 98.031227 184.054167 
L 97.926889 184.245197 
L 97.742675 184.592339 
L 97.48968 185.01053 
L 97.370816 185.162568 
L 96.903951 185.759736 
L 96.39712 186.272139 
L 95.735399 186.819951 
L 94.835854 187.322122 
L 93.704631 187.783173 
L 92.718563 188.085594 
L 91.914404 188.379959 
L 91.197942 188.728132 
L 90.512622 189.178521 
L 90.084174 189.527075 
L 89.51486 190.093858 
L 89.039752 190.726379 
L 88.863225 190.961304 
L 88.513574 191.549208 
L 88.190462 192.268184 
L 87.963023 193.030167 
L 87.925357 193.15643 
L 87.690402 194.29739 
L 87.437939 196.489409 
L 87.432114 197.18031 
L 87.430909 197.324587 
L 87.499367 198.453803 
L 87.64458 199.527937 
L 87.67288 199.737405 
L 87.942238 200.969941 
L 88.001993 201.193057 
L 88.352243 202.501541 
L 89.339411 206.11266 
L 89.739683 207.596721 
L 90.457433 210.258114 
L 90.758206 211.373347 
L 90.98256 212.489704 
L 91.100952 213.079433 
L 91.370121 214.288564 
L 91.552454 215.705239 
L 91.62352 216.974447 
L 91.556269 218.463137 
L 91.352006 220.501445 
L 91.202261 221.496934 
L 90.96131 222.786181 
L 90.891628 223.100299 
L 90.617525 224.003078 
L 90.254315 225.021364 
L 89.787912 226.138503 
L 88.848345 228.321157 
L 88.43331 229.213973 
L 87.779807 230.50409 
L 87.084768 231.749257 
L 86.391079 232.773799 
L 88.029843 234.809463 
L 91.265663 233.942854 
L 91.681482 233.841793 
L 92.098703 233.746745 
L 92.517268 233.657712 
L 92.937057 233.574697 
L 93.357952 233.497763 
L 93.779952 233.42685 
L 94.517356 233.326057 
L 95.901625 233.343334 
L 97.394398 233.448419 
L 98.583056 233.603142 
L 100.052879 233.869956 
L 101.481707 234.27466 
L 103.820585 235.170868 
L 104.801837 235.590136 
L 105.63988 236.016215 
L 106.993256 236.798423 
L 109.185924 238.22815 
L 111.498789 239.806821 
L 112.654838 240.530331 
L 113.589098 241.08755 
L 114.577033 241.638476 
L 115.678468 242.206711 
L 116.516375 242.614867 
L 117.63547 243.141115 
L 120.280269 244.328957 
L 123.169369 245.449606 
L 126.78731 246.6978 
L 130.535748 247.807659 
L 133.673694 248.615796 
L 135.687655 249.083191 
L 139.487763 249.839779 
L 143.077629 250.358205 
L 147.018201 250.623347 
L 152.950594 250.60212 
L 157.074081 250.489342 
L 160.141206 250.3825 
L 162.897725 250.229534 
L 165.600238 250.023029 
L 168.827693 249.765772 
L 169.734453 249.68894 
L 177.984943 249.00907 
L 181.309282 248.728175 
L 181.931231 247.042365 
L 189.030944 249.1972 
L 189.798851 249.438823 
L 190.666366 249.717402 
L 191.532273 250.001173 
L 192.396452 250.290019 
L 193.389085 250.62924 
L 194.119626 250.883115 
L 194.806912 251.110081 
L 195.49152 251.34484 
L 196.173449 251.58733 
L 196.852642 251.837613 
L 197.528916 252.095633 
L 198.202212 252.361332 
L 198.872468 252.634653 
L 199.539624 252.915595 
L 200.2035 253.204104 
L 200.506389 253.33985 
L 200.864095 253.50012 
L 201.521289 253.803705 
L 202.17496 254.114683 
L 202.825111 254.433174 
L 203.471616 254.758941 
L 204.114418 255.092105 
L 204.753395 255.43255 
L 205.388428 255.780278 
L 206.223781 256.308904 
L 207.054932 256.844102 
L 207.589828 257.194526 
L 207.881822 257.385873 
L 208.704448 257.934158 
L 209.522751 258.488958 
L 210.336609 259.050157 
L 211.146083 259.617812 
L 211.951052 260.191866 
L 212.751453 260.772202 
L 213.547289 261.358939 
L 214.338497 261.951899 
L 215.125017 262.551084 
L 215.906788 263.156494 
L 216.68375 263.768071 
L 218.601329 265.255207 
L 222.430101 268.224642 
L 222.847272 268.548151 
L 223.566716 269.106124 
L 224.042955 269.479567 
L 225.114606 270.322104 
L 225.619902 270.719389 
L 229.999502 274.16282 
L 233.135854 276.628853 
L 233.294559 276.75364 
L 235.618255 278.57959 
L 243.032031 284.405794 
L 242.308713 286.603036 
L 242.149269 287.087382 
L 243.150754 288.018158 
L 244.428061 289.204844 
L 245.806486 290.32692 
L 248.380921 291.9722 
L 248.737014 292.199691 
L 249.79026 292.774153 
L 250.892038 293.262111 
L 252.620232 293.962249 
L 254.807208 294.636091 
L 257.041343 294.949473 
L 260.507057 295.265395 
L 265.102414 295.343331 
L 271.283631 295.488 
L 271.954213 295.465023 
L 274.058603 295.392896 
L 278.731508 295.233007 
L 283.32966 294.921596 
L 290.646107 294.270286 
L 291.477889 294.162678 
L 292.546023 294.024506 
L 294.79961 293.73306 
L 295.250529 293.674732 
L 296.127646 293.396406 
L 299.859629 292.212044 
L 299.851577 292.175114 
L 299.847426 292.156413 
L 301.946819 291.201469 
L 303.939147 290.019135 
L 304.100029 289.923636 
L 306.822151 288.308324 
L 309.356595 286.996897 
L 310.534113 286.446766 
L 311.619642 285.939575 
L 312.001836 285.76096 
L 314.648868 284.997201 
L 314.620533 284.813999 
L 314.603214 284.701787 
L 315.069441 284.576417 
L 315.537377 284.457592 
L 316.006967 284.345436 
L 316.478088 284.239889 
L 316.950624 284.141015 
L 317.424512 284.048756 
L 317.899578 283.963236 
L 318.375879 283.884453 
L 318.867578 283.810329 
L 319.360343 283.743306 
L 319.853997 283.683507 
L 320.103173 283.656965 
L 320.34842 283.630876 
L 320.843612 283.585413 
L 321.339395 283.547122 
L 321.433173 283.54127 
L 321.83565 283.516125 
L 322.332375 283.492244 
L 322.829334 283.475662 
L 323.326465 283.466263 
L 323.82371 283.464107 
L 324.00078 283.46577 
L 324.17982 283.467386 
L 324.258292 283.468131 
L 324.358892 283.470379 
L 324.537927 283.474331 
L 324.692768 283.477727 
L 324.71691 283.478583 
L 324.895879 283.484752 
L 325.07485 283.490981 
L 325.127136 283.492776 
L 325.253738 283.498769 
L 325.432644 283.507275 
L 325.561219 283.5134 
L 325.611446 283.516442 
L 325.790225 283.527167 
L 325.968945 283.537893 
L 325.995015 283.539481 
L 326.147533 283.550599 
L 326.32613 283.563664 
L 326.428467 283.57114 
L 326.50469 283.577688 
L 326.683101 283.592973 
L 326.861512 283.608258 
L 326.942895 283.615879 
L 327.024283 283.62368 
L 327.105615 283.631662 
L 327.102223 283.592224 
L 327.067627 283.191995 
L 327.112112 283.187152 
L 327.473297 283.148039 
L 327.676013 283.126094 
L 327.834424 283.108989 
L 328.335801 283.054946 
L 328.706102 283.015017 
L 328.866011 283.008115 
L 329.129105 282.996754 
L 330.788816 282.926159 
L 330.949442 282.919301 
L 331.012666 282.916582 
L 331.067005 282.914317 
L 331.244808 282.906686 
" clip-path="url(#ped0db95dbc)" style="fill: #1f77b4"/>
   </g>
   <g id="matplotlib.axis_1">
    <g id="xtick_1">
     <g id="line2d_1">
      <defs>
       <path id="mabc84aed3c" d="M 0 0 
L 0 3.5 
" style="stroke: #000000; stroke-width: 0.8"/>
      </defs>
      <g>
       <use xlink:href="#mabc84aed3c" x="93.594755" y="307.584" style="stroke: #000000; stroke-width: 0.8"/>
      </g>
     </g>
     <g id="text_1">
      <!-- 13.21 -->
      <g transform="translate(79.280693 322.182437) scale(0.1 -0.1)">
       <defs>
        <path id="DejaVuSans-31" d="M 794 531 
L 1825 531 
L 1825 4091 
L 703 3866 
L 703 4441 
L 1819 4666 
L 2450 4666 
L 2450 531 
L 3481 531 
L 3481 0 
L 794 0 
L 794 531 
z
" transform="scale(0.015625)"/>
        <path id="DejaVuSans-33" d="M 2597 2516 
Q 3050 2419 3304 2112 
Q 3559 1806 3559 1356 
Q 3559 666 3084 287 
Q 2609 -91 1734 -91 
Q 1441 -91 1130 -33 
Q 819 25 488 141 
L 488 750 
Q 750 597 1062 519 
Q 1375 441 1716 441 
Q 2309 441 2620 675 
Q 2931 909 2931 1356 
Q 2931 1769 2642 2001 
Q 2353 2234 1838 2234 
L 1294 2234 
L 1294 2753 
L 1863 2753 
Q 2328 2753 2575 2939 
Q 2822 3125 2822 3475 
Q 2822 3834 2567 4026 
Q 2313 4219 1838 4219 
Q 1578 4219 1281 4162 
Q 984 4106 628 3988 
L 628 4550 
Q 988 4650 1302 4700 
Q 1616 4750 1894 4750 
Q 2613 4750 3031 4423 
Q 3450 4097 3450 3541 
Q 3450 3153 3228 2886 
Q 3006 2619 2597 2516 
z
" transform="scale(0.015625)"/>
        <path id="DejaVuSans-2e" d="M 684 794 
L 1344 794 
L 1344 0 
L 684 0 
L 684 794 
z
" transform="scale(0.015625)"/>
        <path id="DejaVuSans-32" d="M 1228 531 
L 3431 531 
L 3431 0 
L 469 0 
L 469 531 
Q 828 903 1448 1529 
Q 2069 2156 2228 2338 
Q 2531 2678 2651 2914 
Q 2772 3150 2772 3378 
Q 2772 3750 2511 3984 
Q 2250 4219 1831 4219 
Q 1534 4219 1204 4116 
Q 875 4013 500 3803 
L 500 4441 
Q 881 4594 1212 4672 
Q 1544 4750 1819 4750 
Q 2544 4750 2975 4387 
Q 3406 4025 3406 3419 
Q 3406 3131 3298 2873 
Q 3191 2616 2906 2266 
Q 2828 2175 2409 1742 
Q 1991 1309 1228 531 
z
" transform="scale(0.015625)"/>
       </defs>
       <use xlink:href="#DejaVuSans-31"/>
       <use xlink:href="#DejaVuSans-33" x="63.623047"/>
       <use xlink:href="#DejaVuSans-2e" x="127.246094"/>
       <use xlink:href="#DejaVuSans-32" x="159.033203"/>
       <use xlink:href="#DejaVuSans-31" x="222.65625"/>
      </g>
     </g>
    </g>
    <g id="xtick_2">
     <g id="line2d_2">
      <g>
       <use xlink:href="#mabc84aed3c" x="134.094115" y="307.584" style="stroke: #000000; stroke-width: 0.8"/>
      </g>
     </g>
     <g id="text_2">
      <!-- 13.22 -->
      <g transform="translate(119.780053 322.182437) scale(0.1 -0.1)">
       <use xlink:href="#DejaVuSans-31"/>
       <use xlink:href="#DejaVuSans-33" x="63.623047"/>
       <use xlink:href="#DejaVuSans-2e" x="127.246094"/>
       <use xlink:href="#DejaVuSans-32" x="159.033203"/>
       <use xlink:href="#DejaVuSans-32" x="222.65625"/>
      </g>
     </g>
    </g>
    <g id="xtick_3">
     <g id="line2d_3">
      <g>
       <use xlink:href="#mabc84aed3c" x="174.593475" y="307.584" style="stroke: #000000; stroke-width: 0.8"/>
      </g>
     </g>
     <g id="text_3">
      <!-- 13.23 -->
      <g transform="translate(160.279412 322.182437) scale(0.1 -0.1)">
       <use xlink:href="#DejaVuSans-31"/>
       <use xlink:href="#DejaVuSans-33" x="63.623047"/>
       <use xlink:href="#DejaVuSans-2e" x="127.246094"/>
       <use xlink:href="#DejaVuSans-32" x="159.033203"/>
       <use xlink:href="#DejaVuSans-33" x="222.65625"/>
      </g>
     </g>
    </g>
    <g id="xtick_4">
     <g id="line2d_4">
      <g>
       <use xlink:href="#mabc84aed3c" x="215.092834" y="307.584" style="stroke: #000000; stroke-width: 0.8"/>
      </g>
     </g>
     <g id="text_4">
      <!-- 13.24 -->
      <g transform="translate(200.778772 322.182437) scale(0.1 -0.1)">
       <defs>
        <path id="DejaVuSans-34" d="M 2419 4116 
L 825 1625 
L 2419 1625 
L 2419 4116 
z
M 2253 4666 
L 3047 4666 
L 3047 1625 
L 3713 1625 
L 3713 1100 
L 3047 1100 
L 3047 0 
L 2419 0 
L 2419 1100 
L 313 1100 
L 313 1709 
L 2253 4666 
z
" transform="scale(0.015625)"/>
       </defs>
       <use xlink:href="#DejaVuSans-31"/>
       <use xlink:href="#DejaVuSans-33" x="63.623047"/>
       <use xlink:href="#DejaVuSans-2e" x="127.246094"/>
       <use xlink:href="#DejaVuSans-32" x="159.033203"/>
       <use xlink:href="#DejaVuSans-34" x="222.65625"/>
      </g>
     </g>
    </g>
    <g id="xtick_5">
     <g id="line2d_5">
      <g>
       <use xlink:href="#mabc84aed3c" x="255.592194" y="307.584" style="stroke: #000000; stroke-width: 0.8"/>
      </g>
     </g>
     <g id="text_5">
      <!-- 13.25 -->
      <g transform="translate(241.278132 322.182437) scale(0.1 -0.1)">
       <defs>
        <path id="DejaVuSans-35" d="M 691 4666 
L 3169 4666 
L 3169 4134 
L 1269 4134 
L 1269 2991 
Q 1406 3038 1543 3061 
Q 1681 3084 1819 3084 
Q 2600 3084 3056 2656 
Q 3513 2228 3513 1497 
Q 3513 744 3044 326 
Q 2575 -91 1722 -91 
Q 1428 -91 1123 -41 
Q 819 9 494 109 
L 494 744 
Q 775 591 1075 516 
Q 1375 441 1709 441 
Q 2250 441 2565 725 
Q 2881 1009 2881 1497 
Q 2881 1984 2565 2268 
Q 2250 2553 1709 2553 
Q 1456 2553 1204 2497 
Q 953 2441 691 2322 
L 691 4666 
z
" transform="scale(0.015625)"/>
       </defs>
       <use xlink:href="#DejaVuSans-31"/>
       <use xlink:href="#DejaVuSans-33" x="63.623047"/>
       <use xlink:href="#DejaVuSans-2e" x="127.246094"/>
       <use xlink:href="#DejaVuSans-32" x="159.033203"/>
       <use xlink:href="#DejaVuSans-35" x="222.65625"/>
      </g>
     </g>
    </g>
    <g id="xtick_6">
     <g id="line2d_6">
      <g>
       <use xlink:href="#mabc84aed3c" x="296.091554" y="307.584" style="stroke: #000000; stroke-width: 0.8"/>
      </g>
     </g>
     <g id="text_6">
      <!-- 13.26 -->
      <g transform="translate(281.777491 322.182437) scale(0.1 -0.1)">
       <defs>
        <path id="DejaVuSans-36" d="M 2113 2584 
Q 1688 2584 1439 2293 
Q 1191 2003 1191 1497 
Q 1191 994 1439 701 
Q 1688 409 2113 409 
Q 2538 409 2786 701 
Q 3034 994 3034 1497 
Q 3034 2003 2786 2293 
Q 2538 2584 2113 2584 
z
M 3366 4563 
L 3366 3988 
Q 3128 4100 2886 4159 
Q 2644 4219 2406 4219 
Q 1781 4219 1451 3797 
Q 1122 3375 1075 2522 
Q 1259 2794 1537 2939 
Q 1816 3084 2150 3084 
Q 2853 3084 3261 2657 
Q 3669 2231 3669 1497 
Q 3669 778 3244 343 
Q 2819 -91 2113 -91 
Q 1303 -91 875 529 
Q 447 1150 447 2328 
Q 447 3434 972 4092 
Q 1497 4750 2381 4750 
Q 2619 4750 2861 4703 
Q 3103 4656 3366 4563 
z
" transform="scale(0.015625)"/>
       </defs>
       <use xlink:href="#DejaVuSans-31"/>
       <use xlink:href="#DejaVuSans-33" x="63.623047"/>
       <use xlink:href="#DejaVuSans-2e" x="127.246094"/>
       <use xlink:href="#DejaVuSans-32" x="159.033203"/>
       <use xlink:href="#DejaVuSans-36" x="222.65625"/>
      </g>
     </g>
    </g>
    <g id="xtick_7">
     <g id="line2d_7">
      <g>
       <use xlink:href="#mabc84aed3c" x="336.590914" y="307.584" style="stroke: #000000; stroke-width: 0.8"/>
      </g>
     </g>
     <g id="text_7">
      <!-- 13.27 -->
      <g transform="translate(322.276851 322.182437) scale(0.1 -0.1)">
       <defs>
        <path id="DejaVuSans-37" d="M 525 4666 
L 3525 4666 
L 3525 4397 
L 1831 0 
L 1172 0 
L 2766 4134 
L 525 4134 
L 525 4666 
z
" transform="scale(0.015625)"/>
       </defs>
       <use xlink:href="#DejaVuSans-31"/>
       <use xlink:href="#DejaVuSans-33" x="63.623047"/>
       <use xlink:href="#DejaVuSans-2e" x="127.246094"/>
       <use xlink:href="#DejaVuSans-32" x="159.033203"/>
       <use xlink:href="#DejaVuSans-37" x="222.65625"/>
      </g>
     </g>
    </g>
    <g id="xtick_8">
     <g id="line2d_8">
      <g>
       <use xlink:href="#mabc84aed3c" x="377.090273" y="307.584" style="stroke: #000000; stroke-width: 0.8"/>
      </g>
     </g>
     <g id="text_8">
      <!-- 13.28 -->
      <g transform="translate(362.776211 322.182437) scale(0.1 -0.1)">
       <defs>
        <path id="DejaVuSans-38" d="M 2034 2216 
Q 1584 2216 1326 1975 
Q 1069 1734 1069 1313 
Q 1069 891 1326 650 
Q 1584 409 2034 409 
Q 2484 409 2743 651 
Q 3003 894 3003 1313 
Q 3003 1734 2745 1975 
Q 2488 2216 2034 2216 
z
M 1403 2484 
Q 997 2584 770 2862 
Q 544 3141 544 3541 
Q 544 4100 942 4425 
Q 1341 4750 2034 4750 
Q 2731 4750 3128 4425 
Q 3525 4100 3525 3541 
Q 3525 3141 3298 2862 
Q 3072 2584 2669 2484 
Q 3125 2378 3379 2068 
Q 3634 1759 3634 1313 
Q 3634 634 3220 271 
Q 2806 -91 2034 -91 
Q 1263 -91 848 271 
Q 434 634 434 1313 
Q 434 1759 690 2068 
Q 947 2378 1403 2484 
z
M 1172 3481 
Q 1172 3119 1398 2916 
Q 1625 2713 2034 2713 
Q 2441 2713 2670 2916 
Q 2900 3119 2900 3481 
Q 2900 3844 2670 4047 
Q 2441 4250 2034 4250 
Q 1625 4250 1398 4047 
Q 1172 3844 1172 3481 
z
" transform="scale(0.015625)"/>
       </defs>
       <use xlink:href="#DejaVuSans-31"/>
       <use xlink:href="#DejaVuSans-33" x="63.623047"/>
       <use xlink:href="#DejaVuSans-2e" x="127.246094"/>
       <use xlink:href="#DejaVuSans-32" x="159.033203"/>
       <use xlink:href="#DejaVuSans-38" x="222.65625"/>
      </g>
     </g>
    </g>
   </g>
   <g id="matplotlib.axis_2">
    <g id="ytick_1">
     <g id="line2d_9">
      <defs>
       <path id="mda8f716c4e" d="M 0 0 
L -3.5 0 
" style="stroke: #000000; stroke-width: 0.8"/>
      </defs>
      <g>
       <use xlink:href="#mda8f716c4e" x="71.414187" y="275.856699" style="stroke: #000000; stroke-width: 0.8"/>
      </g>
     </g>
     <g id="text_9">
      <!-- 52.530 -->
      <g transform="translate(29.423562 279.655918) scale(0.1 -0.1)">
       <defs>
        <path id="DejaVuSans-30" d="M 2034 4250 
Q 1547 4250 1301 3770 
Q 1056 3291 1056 2328 
Q 1056 1369 1301 889 
Q 1547 409 2034 409 
Q 2525 409 2770 889 
Q 3016 1369 3016 2328 
Q 3016 3291 2770 3770 
Q 2525 4250 2034 4250 
z
M 2034 4750 
Q 2819 4750 3233 4129 
Q 3647 3509 3647 2328 
Q 3647 1150 3233 529 
Q 2819 -91 2034 -91 
Q 1250 -91 836 529 
Q 422 1150 422 2328 
Q 422 3509 836 4129 
Q 1250 4750 2034 4750 
z
" transform="scale(0.015625)"/>
       </defs>
       <use xlink:href="#DejaVuSans-35"/>
       <use xlink:href="#DejaVuSans-32" x="63.623047"/>
       <use xlink:href="#DejaVuSans-2e" x="127.246094"/>
       <use xlink:href="#DejaVuSans-35" x="159.033203"/>
       <use xlink:href="#DejaVuSans-33" x="222.65625"/>
       <use xlink:href="#DejaVuSans-30" x="286.279297"/>
      </g>
     </g>
    </g>
    <g id="ytick_2">
     <g id="line2d_10">
      <g>
       <use xlink:href="#mda8f716c4e" x="71.414187" y="242.558707" style="stroke: #000000; stroke-width: 0.8"/>
      </g>
     </g>
     <g id="text_10">
      <!-- 52.535 -->
      <g transform="translate(29.423562 246.357926) scale(0.1 -0.1)">
       <use xlink:href="#DejaVuSans-35"/>
       <use xlink:href="#DejaVuSans-32" x="63.623047"/>
       <use xlink:href="#DejaVuSans-2e" x="127.246094"/>
       <use xlink:href="#DejaVuSans-35" x="159.033203"/>
       <use xlink:href="#DejaVuSans-33" x="222.65625"/>
       <use xlink:href="#DejaVuSans-35" x="286.279297"/>
      </g>
     </g>
    </g>
    <g id="ytick_3">
     <g id="line2d_11">
      <g>
       <use xlink:href="#mda8f716c4e" x="71.414187" y="209.260715" style="stroke: #000000; stroke-width: 0.8"/>
      </g>
     </g>
     <g id="text_11">
      <!-- 52.540 -->
      <g transform="translate(29.423562 213.059933) scale(0.1 -0.1)">
       <use xlink:href="#DejaVuSans-35"/>
       <use xlink:href="#DejaVuSans-32" x="63.623047"/>
       <use xlink:href="#DejaVuSans-2e" x="127.246094"/>
       <use xlink:href="#DejaVuSans-35" x="159.033203"/>
       <use xlink:href="#DejaVuSans-34" x="222.65625"/>
       <use xlink:href="#DejaVuSans-30" x="286.279297"/>
      </g>
     </g>
    </g>
    <g id="ytick_4">
     <g id="line2d_12">
      <g>
       <use xlink:href="#mda8f716c4e" x="71.414187" y="175.962722" style="stroke: #000000; stroke-width: 0.8"/>
      </g>
     </g>
     <g id="text_12">
      <!-- 52.545 -->
      <g transform="translate(29.423562 179.761941) scale(0.1 -0.1)">
       <use xlink:href="#DejaVuSans-35"/>
       <use xlink:href="#DejaVuSans-32" x="63.623047"/>
       <use xlink:href="#DejaVuSans-2e" x="127.246094"/>
       <use xlink:href="#DejaVuSans-35" x="159.033203"/>
       <use xlink:href="#DejaVuSans-34" x="222.65625"/>
       <use xlink:href="#DejaVuSans-35" x="286.279297"/>
      </g>
     </g>
    </g>
    <g id="ytick_5">
     <g id="line2d_13">
      <g>
       <use xlink:href="#mda8f716c4e" x="71.414187" y="142.66473" style="stroke: #000000; stroke-width: 0.8"/>
      </g>
     </g>
     <g id="text_13">
      <!-- 52.550 -->
      <g transform="translate(29.423562 146.463949) scale(0.1 -0.1)">
       <use xlink:href="#DejaVuSans-35"/>
       <use xlink:href="#DejaVuSans-32" x="63.623047"/>
       <use xlink:href="#DejaVuSans-2e" x="127.246094"/>
       <use xlink:href="#DejaVuSans-35" x="159.033203"/>
       <use xlink:href="#DejaVuSans-35" x="222.65625"/>
       <use xlink:href="#DejaVuSans-30" x="286.279297"/>
      </g>
     </g>
    </g>
    <g id="ytick_6">
     <g id="line2d_14">
      <g>
       <use xlink:href="#mda8f716c4e" x="71.414187" y="109.366737" style="stroke: #000000; stroke-width: 0.8"/>
      </g>
     </g>
     <g id="text_14">
      <!-- 52.555 -->
      <g transform="translate(29.423562 113.165956) scale(0.1 -0.1)">
       <use xlink:href="#DejaVuSans-35"/>
       <use xlink:href="#DejaVuSans-32" x="63.623047"/>
       <use xlink:href="#DejaVuSans-2e" x="127.246094"/>
       <use xlink:href="#DejaVuSans-35" x="159.033203"/>
       <use xlink:href="#DejaVuSans-35" x="222.65625"/>
       <use xlink:href="#DejaVuSans-35" x="286.279297"/>
      </g>
     </g>
    </g>
    <g id="ytick_7">
     <g id="line2d_15">
      <g>
       <use xlink:href="#mda8f716c4e" x="71.414187" y="76.068745" style="stroke: #000000; stroke-width: 0.8"/>
      </g>
     </g>
     <g id="text_15">
      <!-- 52.560 -->
      <g transform="translate(29.423562 79.867964) scale(0.1 -0.1)">
       <use xlink:href="#DejaVuSans-35"/>
       <use xlink:href="#DejaVuSans-32" x="63.623047"/>
       <use xlink:href="#DejaVuSans-2e" x="127.246094"/>
       <use xlink:href="#DejaVuSans-35" x="159.033203"/>
       <use xlink:href="#DejaVuSans-36" x="222.65625"/>
       <use xlink:href="#DejaVuSans-30" x="286.279297"/>
      </g>
     </g>
    </g>
    <g id="ytick_8">
     <g id="line2d_16">
      <g>
       <use xlink:href="#mda8f716c4e" x="71.414187" y="42.770753" style="stroke: #000000; stroke-width: 0.8"/>
      </g>
     </g>
     <g id="text_16">
      <!-- 52.565 -->
      <g transform="translate(29.423562 46.569971) scale(0.1 -0.1)">
       <use xlink:href="#DejaVuSans-35"/>
       <use xlink:href="#DejaVuSans-32" x="63.623047"/>
       <use xlink:href="#DejaVuSans-2e" x="127.246094"/>
       <use xlink:href="#DejaVuSans-35" x="159.033203"/>
       <use xlink:href="#DejaVuSans-36" x="222.65625"/>
       <use xlink:href="#DejaVuSans-35" x="286.279297"/>
      </g>
     </g>
    </g>
   </g>
   <g id="patch_3">
    <path d="M 71.414187 307.584 
L 71.414187 41.472 
" style="fill: none; stroke: #000000; stroke-width: 0.8; stroke-linejoin: miter; stroke-linecap: square"/>
   </g>
   <g id="patch_4">
    <path d="M 400.905813 307.584 
L 400.905813 41.472 
" style="fill: none; stroke: #000000; stroke-width: 0.8; stroke-linejoin: miter; stroke-linecap: square"/>
   </g>
   <g id="patch_5">
    <path d="M 71.414187 307.584 
L 400.905813 307.584 
" style="fill: none; stroke: #000000; stroke-width: 0.8; stroke-linejoin: miter; stroke-linecap: square"/>
   </g>
   <g id="patch_6">
    <path d="M 71.414187 41.472 
L 400.905813 41.472 
" style="fill: none; stroke: #000000; stroke-width: 0.8; stroke-linejoin: miter; stroke-linecap: square"/>
   </g>
   <g id="text_17">
    <!-- Haselhorst___Siemensstadt -->
    <g transform="translate(152.335804 200.364389) scale(0.12 -0.12)">
     <defs>
      <path id="DejaVuSans-48" d="M 628 4666 
L 1259 4666 
L 1259 2753 
L 3553 2753 
L 3553 4666 
L 4184 4666 
L 4184 0 
L 3553 0 
L 3553 2222 
L 1259 2222 
L 1259 0 
L 628 0 
L 628 4666 
z
" transform="scale(0.015625)"/>
      <path id="DejaVuSans-61" d="M 2194 1759 
Q 1497 1759 1228 1600 
Q 959 1441 959 1056 
Q 959 750 1161 570 
Q 1363 391 1709 391 
Q 2188 391 2477 730 
Q 2766 1069 2766 1631 
L 2766 1759 
L 2194 1759 
z
M 3341 1997 
L 3341 0 
L 2766 0 
L 2766 531 
Q 2569 213 2275 61 
Q 1981 -91 1556 -91 
Q 1019 -91 701 211 
Q 384 513 384 1019 
Q 384 1609 779 1909 
Q 1175 2209 1959 2209 
L 2766 2209 
L 2766 2266 
Q 2766 2663 2505 2880 
Q 2244 3097 1772 3097 
Q 1472 3097 1187 3025 
Q 903 2953 641 2809 
L 641 3341 
Q 956 3463 1253 3523 
Q 1550 3584 1831 3584 
Q 2591 3584 2966 3190 
Q 3341 2797 3341 1997 
z
" transform="scale(0.015625)"/>
      <path id="DejaVuSans-73" d="M 2834 3397 
L 2834 2853 
Q 2591 2978 2328 3040 
Q 2066 3103 1784 3103 
Q 1356 3103 1142 2972 
Q 928 2841 928 2578 
Q 928 2378 1081 2264 
Q 1234 2150 1697 2047 
L 1894 2003 
Q 2506 1872 2764 1633 
Q 3022 1394 3022 966 
Q 3022 478 2636 193 
Q 2250 -91 1575 -91 
Q 1294 -91 989 -36 
Q 684 19 347 128 
L 347 722 
Q 666 556 975 473 
Q 1284 391 1588 391 
Q 1994 391 2212 530 
Q 2431 669 2431 922 
Q 2431 1156 2273 1281 
Q 2116 1406 1581 1522 
L 1381 1569 
Q 847 1681 609 1914 
Q 372 2147 372 2553 
Q 372 3047 722 3315 
Q 1072 3584 1716 3584 
Q 2034 3584 2315 3537 
Q 2597 3491 2834 3397 
z
" transform="scale(0.015625)"/>
      <path id="DejaVuSans-65" d="M 3597 1894 
L 3597 1613 
L 953 1613 
Q 991 1019 1311 708 
Q 1631 397 2203 397 
Q 2534 397 2845 478 
Q 3156 559 3463 722 
L 3463 178 
Q 3153 47 2828 -22 
Q 2503 -91 2169 -91 
Q 1331 -91 842 396 
Q 353 884 353 1716 
Q 353 2575 817 3079 
Q 1281 3584 2069 3584 
Q 2775 3584 3186 3129 
Q 3597 2675 3597 1894 
z
M 3022 2063 
Q 3016 2534 2758 2815 
Q 2500 3097 2075 3097 
Q 1594 3097 1305 2825 
Q 1016 2553 972 2059 
L 3022 2063 
z
" transform="scale(0.015625)"/>
      <path id="DejaVuSans-6c" d="M 603 4863 
L 1178 4863 
L 1178 0 
L 603 0 
L 603 4863 
z
" transform="scale(0.015625)"/>
      <path id="DejaVuSans-68" d="M 3513 2113 
L 3513 0 
L 2938 0 
L 2938 2094 
Q 2938 2591 2744 2837 
Q 2550 3084 2163 3084 
Q 1697 3084 1428 2787 
Q 1159 2491 1159 1978 
L 1159 0 
L 581 0 
L 581 4863 
L 1159 4863 
L 1159 2956 
Q 1366 3272 1645 3428 
Q 1925 3584 2291 3584 
Q 2894 3584 3203 3211 
Q 3513 2838 3513 2113 
z
" transform="scale(0.015625)"/>
      <path id="DejaVuSans-6f" d="M 1959 3097 
Q 1497 3097 1228 2736 
Q 959 2375 959 1747 
Q 959 1119 1226 758 
Q 1494 397 1959 397 
Q 2419 397 2687 759 
Q 2956 1122 2956 1747 
Q 2956 2369 2687 2733 
Q 2419 3097 1959 3097 
z
M 1959 3584 
Q 2709 3584 3137 3096 
Q 3566 2609 3566 1747 
Q 3566 888 3137 398 
Q 2709 -91 1959 -91 
Q 1206 -91 779 398 
Q 353 888 353 1747 
Q 353 2609 779 3096 
Q 1206 3584 1959 3584 
z
" transform="scale(0.015625)"/>
      <path id="DejaVuSans-72" d="M 2631 2963 
Q 2534 3019 2420 3045 
Q 2306 3072 2169 3072 
Q 1681 3072 1420 2755 
Q 1159 2438 1159 1844 
L 1159 0 
L 581 0 
L 581 3500 
L 1159 3500 
L 1159 2956 
Q 1341 3275 1631 3429 
Q 1922 3584 2338 3584 
Q 2397 3584 2469 3576 
Q 2541 3569 2628 3553 
L 2631 2963 
z
" transform="scale(0.015625)"/>
      <path id="DejaVuSans-74" d="M 1172 4494 
L 1172 3500 
L 2356 3500 
L 2356 3053 
L 1172 3053 
L 1172 1153 
Q 1172 725 1289 603 
Q 1406 481 1766 481 
L 2356 481 
L 2356 0 
L 1766 0 
Q 1100 0 847 248 
Q 594 497 594 1153 
L 594 3053 
L 172 3053 
L 172 3500 
L 594 3500 
L 594 4494 
L 1172 4494 
z
" transform="scale(0.015625)"/>
      <path id="DejaVuSans-5f" d="M 3263 -1063 
L 3263 -1509 
L -63 -1509 
L -63 -1063 
L 3263 -1063 
z
" transform="scale(0.015625)"/>
      <path id="DejaVuSans-53" d="M 3425 4513 
L 3425 3897 
Q 3066 4069 2747 4153 
Q 2428 4238 2131 4238 
Q 1616 4238 1336 4038 
Q 1056 3838 1056 3469 
Q 1056 3159 1242 3001 
Q 1428 2844 1947 2747 
L 2328 2669 
Q 3034 2534 3370 2195 
Q 3706 1856 3706 1288 
Q 3706 609 3251 259 
Q 2797 -91 1919 -91 
Q 1588 -91 1214 -16 
Q 841 59 441 206 
L 441 856 
Q 825 641 1194 531 
Q 1563 422 1919 422 
Q 2459 422 2753 634 
Q 3047 847 3047 1241 
Q 3047 1584 2836 1778 
Q 2625 1972 2144 2069 
L 1759 2144 
Q 1053 2284 737 2584 
Q 422 2884 422 3419 
Q 422 4038 858 4394 
Q 1294 4750 2059 4750 
Q 2388 4750 2728 4690 
Q 3069 4631 3425 4513 
z
" transform="scale(0.015625)"/>
      <path id="DejaVuSans-69" d="M 603 3500 
L 1178 3500 
L 1178 0 
L 603 0 
L 603 3500 
z
M 603 4863 
L 1178 4863 
L 1178 4134 
L 603 4134 
L 603 4863 
z
" transform="scale(0.015625)"/>
      <path id="DejaVuSans-6d" d="M 3328 2828 
Q 3544 3216 3844 3400 
Q 4144 3584 4550 3584 
Q 5097 3584 5394 3201 
Q 5691 2819 5691 2113 
L 5691 0 
L 5113 0 
L 5113 2094 
Q 5113 2597 4934 2840 
Q 4756 3084 4391 3084 
Q 3944 3084 3684 2787 
Q 3425 2491 3425 1978 
L 3425 0 
L 2847 0 
L 2847 2094 
Q 2847 2600 2669 2842 
Q 2491 3084 2119 3084 
Q 1678 3084 1418 2786 
Q 1159 2488 1159 1978 
L 1159 0 
L 581 0 
L 581 3500 
L 1159 3500 
L 1159 2956 
Q 1356 3278 1631 3431 
Q 1906 3584 2284 3584 
Q 2666 3584 2933 3390 
Q 3200 3197 3328 2828 
z
" transform="scale(0.015625)"/>
      <path id="DejaVuSans-6e" d="M 3513 2113 
L 3513 0 
L 2938 0 
L 2938 2094 
Q 2938 2591 2744 2837 
Q 2550 3084 2163 3084 
Q 1697 3084 1428 2787 
Q 1159 2491 1159 1978 
L 1159 0 
L 581 0 
L 581 3500 
L 1159 3500 
L 1159 2956 
Q 1366 3272 1645 3428 
Q 1925 3584 2291 3584 
Q 2894 3584 3203 3211 
Q 3513 2838 3513 2113 
z
" transform="scale(0.015625)"/>
      <path id="DejaVuSans-64" d="M 2906 2969 
L 2906 4863 
L 3481 4863 
L 3481 0 
L 2906 0 
L 2906 525 
Q 2725 213 2448 61 
Q 2172 -91 1784 -91 
Q 1150 -91 751 415 
Q 353 922 353 1747 
Q 353 2572 751 3078 
Q 1150 3584 1784 3584 
Q 2172 3584 2448 3432 
Q 2725 3281 2906 2969 
z
M 947 1747 
Q 947 1113 1208 752 
Q 1469 391 1925 391 
Q 2381 391 2643 752 
Q 2906 1113 2906 1747 
Q 2906 2381 2643 2742 
Q 2381 3103 1925 3103 
Q 1469 3103 1208 2742 
Q 947 2381 947 1747 
z
" transform="scale(0.015625)"/>
     </defs>
     <use xlink:href="#DejaVuSans-48"/>
     <use xlink:href="#DejaVuSans-61" x="75.195312"/>
     <use xlink:href="#DejaVuSans-73" x="136.474609"/>
     <use xlink:href="#DejaVuSans-65" x="188.574219"/>
     <use xlink:href="#DejaVuSans-6c" x="250.097656"/>
     <use xlink:href="#DejaVuSans-68" x="277.880859"/>
     <use xlink:href="#DejaVuSans-6f" x="341.259766"/>
     <use xlink:href="#DejaVuSans-72" x="402.441406"/>
     <use xlink:href="#DejaVuSans-73" x="443.554688"/>
     <use xlink:href="#DejaVuSans-74" x="495.654297"/>
     <use xlink:href="#DejaVuSans-5f" x="534.863281"/>
     <use xlink:href="#DejaVuSans-5f" x="584.863281"/>
     <use xlink:href="#DejaVuSans-5f" x="634.863281"/>
     <use xlink:href="#DejaVuSans-53" x="684.863281"/>
     <use xlink:href="#DejaVuSans-69" x="748.339844"/>
     <use xlink:href="#DejaVuSans-65" x="776.123047"/>
     <use xlink:href="#DejaVuSans-6d" x="837.646484"/>
     <use xlink:href="#DejaVuSans-65" x="935.058594"/>
     <use xlink:href="#DejaVuSans-6e" x="996.582031"/>
     <use xlink:href="#DejaVuSans-73" x="1059.960938"/>
     <use xlink:href="#DejaVuSans-73" x="1112.060547"/>
     <use xlink:href="#DejaVuSans-74" x="1164.160156"/>
     <use xlink:href="#DejaVuSans-61" x="1203.369141"/>
     <use xlink:href="#DejaVuSans-64" x="1264.648438"/>
     <use xlink:href="#DejaVuSans-74" x="1328.125"/>
    </g>
   </g>
  </g>
 </g>
 <defs>
  <clipPath id="ped0db95dbc">
   <rect x="71.414187" y="41.472" width="329.491627" height="266.112"/>
  </clipPath>
 </defs>
</svg>
