<?xml version="1.0" encoding="utf-8" standalone="no"?>
<!DOCTYPE svg PUBLIC "-//W3C//DTD SVG 1.1//EN"
  "http://www.w3.org/Graphics/SVG/1.1/DTD/svg11.dtd">
<svg xmlns:xlink="http://www.w3.org/1999/xlink" width="460.8pt" height="345.6pt" viewBox="0 0 460.8 345.6" xmlns="http://www.w3.org/2000/svg" version="1.1">
 <metadata>
  <rdf:RDF xmlns:dc="http://purl.org/dc/elements/1.1/" xmlns:cc="http://creativecommons.org/ns#" xmlns:rdf="http://www.w3.org/1999/02/22-rdf-syntax-ns#">
   <cc:Work>
    <dc:type rdf:resource="http://purl.org/dc/dcmitype/StillImage"/>
    <dc:date>2024-10-15T09:53:26.425679</dc:date>
    <dc:format>image/svg+xml</dc:format>
    <dc:creator>
     <cc:Agent>
      <dc:title>Matplotlib v3.8.4, https://matplotlib.org/</dc:title>
     </cc:Agent>
    </dc:creator>
   </cc:Work>
  </rdf:RDF>
 </metadata>
 <defs>
  <style type="text/css">*{stroke-linejoin: round; stroke-linecap: butt}</style>
 </defs>
 <g id="figure_1">
  <g id="patch_1">
   <path d="M 0 345.6 
L 460.8 345.6 
L 460.8 0 
L 0 0 
z
" style="fill: #ffffff"/>
  </g>
  <g id="axes_1">
   <g id="patch_2">
    <path d="M 62.753124 307.584 
L 409.566876 307.584 
L 409.566876 41.472 
L 62.753124 41.472 
z
" style="fill: #ffffff"/>
   </g>
   <g id="PatchCollection_1">
    <path d="M 107.561192 213.740972 
L 107.383375 213.968145 
L 107.290333 214.087025 
L 107.110308 214.317046 
L 102.624215 220.048648 
L 94.188596 230.843432 
L 93.858999 231.260194 
L 93.788146 231.345574 
L 93.729939 231.415571 
L 93.67554 231.481152 
L 93.608029 231.562498 
L 93.479099 231.717753 
L 93.35171 231.871152 
L 93.275919 231.962399 
L 94.194648 232.140728 
L 94.650069 232.229132 
L 94.681722 232.242842 
L 95.239998 232.485014 
L 95.291336 232.507296 
L 95.127588 232.826208 
L 95.100019 233.289094 
L 95.091187 233.446218 
L 95.08605 233.603582 
L 95.084657 233.760973 
L 95.087059 233.918336 
L 95.096026 234.197824 
L 95.075777 234.33838 
L 95.085326 234.640586 
L 95.089021 234.930122 
L 95.087148 235.064635 
L 95.080158 235.198938 
L 95.0681 235.332926 
L 95.050969 235.466333 
L 95.028763 235.599001 
L 95.001581 235.730717 
L 94.89553 236.191609 
L 94.836922 236.40095 
L 94.814278 236.459889 
L 94.787324 236.516964 
L 94.756161 236.571907 
L 94.721045 236.624343 
L 94.682128 236.674004 
L 94.639561 236.720572 
L 94.59371 236.763878 
L 94.518476 237.143194 
L 94.207635 238.710988 
L 94.173733 238.881697 
L 93.715699 241.192991 
L 93.698065 241.282218 
L 93.635353 241.599954 
L 93.615941 241.697412 
L 93.608116 241.736534 
L 93.584123 241.856819 
L 93.572774 241.913934 
L 93.876884 241.97196 
L 94.214208 242.035206 
L 94.692788 242.125289 
L 95.548387 242.286294 
L 96.370487 242.441083 
L 97.206397 242.598386 
L 98.027752 242.752932 
L 98.274371 242.799381 
L 98.865672 242.910673 
L 101.061944 243.324046 
L 101.337555 243.370523 
L 101.598897 243.420313 
L 101.949893 243.487193 
L 102.131742 243.521848 
L 104.61643 243.936688 
L 105.46467 244.081653 
L 105.860772 244.142727 
L 106.292862 244.233386 
L 107.113252 244.402834 
L 107.994436 244.562973 
L 108.762963 244.711369 
L 109.592047 244.924939 
L 110.409494 245.087429 
L 110.87669 245.190785 
L 111.234899 245.270106 
L 112.052364 245.428532 
L 112.879219 245.592365 
L 113.185525 245.660041 
L 113.702009 245.753486 
L 114.539959 245.920546 
L 115.3717 246.071792 
L 116.223088 246.231792 
L 117.041022 246.387739 
L 117.207938 246.419334 
L 117.587387 246.491083 
L 117.86565 246.543706 
L 118.679797 246.697623 
L 119.512237 246.851635 
L 120.344886 247.015742 
L 121.158773 247.18516 
L 121.70365 247.285531 
L 121.996818 247.345194 
L 122.8174 247.494496 
L 123.648759 247.642465 
L 123.928478 247.689197 
L 124.485483 247.78229 
L 125.134782 247.900408 
L 125.290084 247.926226 
L 127.316849 248.293952 
L 127.848387 248.374159 
L 127.998566 248.402042 
L 128.294161 248.456957 
L 128.697664 248.532341 
L 129.132073 248.613581 
L 129.878859 248.753192 
L 130.754712 248.916956 
L 130.879169 248.939882 
L 131.813644 249.154647 
L 132.715761 249.336897 
L 133.640642 249.541668 
L 134.56289 249.751677 
L 135.479693 249.950014 
L 136.019326 250.060729 
L 136.386824 250.151415 
L 136.49699 250.180647 
L 137.550094 250.395669 
L 137.87257 250.473449 
L 138.601861 250.624023 
L 138.840093 250.675973 
L 139.677886 250.837708 
L 140.707045 251.051267 
L 141.784336 251.270273 
L 142.960722 251.501856 
L 143.843733 251.663453 
L 144.197192 251.728172 
L 145.537631 251.998735 
L 145.7972 252.045224 
L 146.912848 252.279044 
L 147.351574 252.368259 
L 148.835174 252.673044 
L 149.467924 252.799041 
L 149.746242 252.852438 
L 149.875782 252.902243 
L 150.259529 253.049785 
L 150.579096 253.142706 
L 151.8496 253.59004 
L 152.051534 253.661048 
L 152.451635 253.801927 
L 154.941508 254.679342 
L 155.754943 254.958984 
L 156.811874 255.311101 
L 157.843528 255.654339 
L 158.444168 255.885134 
L 159.213689 256.180824 
L 159.592136 255.966161 
L 160.470684 256.435388 
L 161.392456 256.92777 
L 167.749927 260.363716 
L 171.210783 261.964513 
L 171.783408 262.22928 
L 178.555158 265.365489 
L 182.714943 267.202667 
L 183.273253 267.448062 
L 190.347207 270.589613 
L 191.754295 271.214459 
L 194.386616 272.415869 
L 199.650701 274.848963 
L 207.801307 278.509703 
L 208.233584 278.703973 
L 208.659304 278.836065 
L 208.79171 278.877147 
L 209.196737 279.050891 
L 215.020089 281.348702 
L 217.433132 282.276246 
L 219.424465 283.057143 
L 220.719556 283.578153 
L 221.08826 283.726497 
L 221.333177 283.831932 
L 221.964598 284.087619 
L 223.414236 284.725874 
L 223.964559 284.969597 
L 225.457027 285.604869 
L 227.458188 286.469406 
L 229.301128 287.293232 
L 230.295737 287.732984 
L 230.612568 287.87876 
L 234.865571 289.680117 
L 238.476669 291.260757 
L 238.658008 291.689053 
L 238.941033 292.157232 
L 239.134629 292.346671 
L 239.354058 292.562433 
L 239.589209 293.104699 
L 240.237713 294.598404 
L 240.58343 294.346948 
L 240.941595 295.065514 
L 241.045441 295.488 
L 242.326837 294.566406 
L 242.701574 294.363041 
L 242.988245 294.801073 
L 243.4029 294.503066 
L 244.500366 293.498247 
L 245.455065 292.64224 
L 245.610472 292.5029 
L 246.650604 291.549375 
L 247.026765 291.203321 
L 247.24722 291.001219 
L 247.586547 290.68901 
L 247.933921 290.46137 
L 248.63206 289.815306 
L 249.186547 289.302059 
L 250.043145 288.566489 
L 251.891577 286.977941 
L 252.468756 286.455145 
L 252.751989 286.198627 
L 253.315304 285.688447 
L 256.09179 283.194134 
L 256.188636 283.107315 
L 256.411175 282.885146 
L 256.489901 282.806574 
L 256.925841 282.37162 
L 257.014589 282.283065 
L 261.256866 277.936593 
L 262.70417 276.453791 
L 262.860388 276.271833 
L 263.028702 276.07562 
L 266.473201 272.615797 
L 268.121015 270.964172 
L 271.368698 267.578151 
L 271.6428 267.292994 
L 273.20489 265.66054 
L 276.31723 261.797649 
L 278.646819 258.815445 
L 280.274321 256.7693 
L 284.370793 251.45766 
L 284.930992 250.71888 
L 294.01839 238.966681 
L 295.019056 237.736068 
L 295.977603 236.557269 
L 295.996532 236.533997 
L 296.075428 236.412936 
L 296.296317 236.074018 
L 296.785627 235.460551 
L 297.027489 235.037586 
L 298.526778 233.081008 
L 298.601367 232.997247 
L 298.679021 232.916385 
L 298.759633 232.838475 
L 298.8431 232.763626 
L 298.919821 232.699274 
L 298.998598 232.637524 
L 299.079431 232.578427 
L 299.175543 232.550208 
L 299.272109 232.523671 
L 299.369132 232.498816 
L 299.447878 232.479987 
L 299.526911 232.462316 
L 299.606178 232.44575 
L 301.476499 232.284993 
L 301.501874 232.275493 
L 301.525595 232.262326 
L 301.547138 232.245767 
L 301.565986 232.22625 
L 301.581983 232.203937 
L 301.594511 232.179474 
L 301.603263 232.153396 
L 301.608042 232.126341 
L 301.606545 232.112258 
L 301.601535 232.099039 
L 301.593394 232.08747 
L 301.582667 232.078331 
L 301.565029 232.074195 
L 301.546968 232.072606 
L 301.528907 232.073606 
L 302.344957 231.966997 
L 302.587812 231.914398 
L 302.975491 231.841579 
L 303.111962 231.809689 
L 303.246528 231.767001 
L 303.380139 231.721373 
L 303.512744 231.672911 
L 303.658879 231.610485 
L 303.803355 231.54418 
L 303.946014 231.474054 
L 304.086752 231.400161 
L 304.952495 230.968055 
L 306.732346 230.075755 
L 308.125233 229.385714 
L 308.539167 229.181812 
L 308.813491 229.029366 
L 310.668798 227.722794 
L 310.768828 227.645552 
L 310.904486 227.541689 
L 311.194338 227.319792 
L 311.316674 227.169525 
L 311.351634 227.119097 
L 311.517188 226.880297 
L 312.491532 225.474795 
L 314.762178 222.455639 
L 314.942329 222.242335 
L 314.943943 222.240424 
L 315.180526 222.171577 
L 315.303587 222.135789 
L 319.132666 220.686845 
L 324.875807 218.519888 
L 325.993959 218.099306 
L 329.189296 216.864794 
L 329.235046 216.982645 
L 329.597139 216.841719 
L 331.947764 215.926674 
L 332.107939 215.864298 
L 334.42657 214.961814 
L 334.643818 214.877252 
L 335.188117 214.665429 
L 336.050469 214.329753 
L 337.220414 213.874347 
L 338.316397 213.447816 
L 339.677499 212.918062 
L 340.385033 212.642669 
L 340.467986 212.610381 
L 341.087413 212.369256 
L 341.911124 212.048754 
L 342.738653 211.726645 
L 343.522398 211.421593 
L 344.299032 211.11933 
L 345.093925 210.809989 
L 345.875898 210.505667 
L 346.654576 210.202577 
L 347.057231 210.045902 
L 347.465692 209.886944 
L 348.242911 209.584522 
L 349.026776 209.279485 
L 349.779671 208.986437 
L 350.574681 208.677058 
L 351.324337 208.385295 
L 351.519464 208.314459 
L 351.467148 208.226443 
L 353.679841 207.38747 
L 353.722687 207.492327 
L 354.532687 207.180704 
L 355.328197 206.87466 
L 356.129152 206.566606 
L 356.934137 206.256993 
L 357.720759 205.954412 
L 358.549081 205.635774 
L 359.352554 205.326728 
L 360.169841 205.012334 
L 360.978969 204.701171 
L 361.772663 204.395818 
L 362.592311 204.080591 
L 363.390615 203.773565 
L 364.199645 203.462361 
L 364.990365 203.15824 
L 365.796156 202.848323 
L 366.605244 202.537126 
L 367.398588 202.232061 
L 368.453327 201.82636 
L 368.43592 201.714648 
L 369.14512 201.446476 
L 370.139618 201.070583 
L 370.412606 200.96168 
L 371.03809 200.712155 
L 376.466631 198.599378 
L 378.01917 197.966366 
L 380.175246 197.087207 
L 381.699101 196.400082 
L 382.045121 196.235448 
L 382.591722 195.915215 
L 383.710932 195.259486 
L 386.789798 193.422683 
L 389.371591 191.921799 
L 389.683871 190.546491 
L 388.75236 191.103097 
L 388.21853 191.422111 
L 388.610247 190.974312 
L 389.805543 189.609425 
L 389.840088 189.570044 
L 389.888157 189.425629 
L 390.378365 187.948143 
L 390.388387 187.919083 
L 390.820585 187.382471 
L 390.947452 187.207467 
L 392.250267 185.410606 
L 392.941037 184.176668 
L 393.802615 182.637774 
L 392.800657 180.582342 
L 392.256123 179.540139 
L 391.460249 178.016856 
L 390.966231 177.071174 
L 390.920528 176.983916 
L 390.575655 175.976274 
L 390.390406 175.435258 
L 389.505223 172.84988 
L 389.179464 172.360082 
L 388.554033 171.41993 
L 387.307891 169.546989 
L 386.394503 168.173909 
L 384.88103 165.898876 
L 382.923497 161.94251 
L 382.43453 160.954245 
L 381.578207 159.881971 
L 379.176 156.875755 
L 379.090932 156.753025 
L 378.163879 155.622867 
L 377.856292 155.179395 
L 377.694194 154.945773 
L 377.321408 154.4083 
L 375.956099 152.440587 
L 375.509789 151.783381 
L 375.063043 151.125549 
L 374.556595 150.379846 
L 374.497328 150.292545 
L 373.966375 149.510701 
L 373.642935 149.034461 
L 373.614743 148.993002 
L 372.924414 148.0859 
L 372.904356 148.058444 
L 372.449225 147.634525 
L 371.875405 147.152985 
L 370.906972 146.19658 
L 370.075377 145.179404 
L 369.498248 144.487084 
L 368.274071 143.018531 
L 367.617717 142.336363 
L 366.197364 140.86037 
L 366.194502 140.857267 
L 365.487574 140.122623 
L 355.15379 130.652768 
L 355.133336 130.486727 
L 352.23097 128.140792 
L 351.218694 127.32272 
L 350.097416 125.956319 
L 349.158432 125.296733 
L 348.121946 124.58773 
L 345.505229 122.797807 
L 344.476631 121.951598 
L 342.304039 120.20987 
L 340.089145 118.574728 
L 340.010606 118.516208 
L 336.803101 116.142383 
L 336.665684 116.040807 
L 333.941499 114.241588 
L 331.20629 112.441615 
L 330.242786 111.763457 
L 329.280975 111.193575 
L 328.766655 110.888852 
L 323.194226 107.497041 
L 319.781215 105.419934 
L 320.196694 104.382656 
L 320.275292 104.186497 
L 313.062054 101.373799 
L 305.761798 98.527544 
L 305.65165 98.484633 
L 304.798219 98.152467 
L 300.778059 96.584617 
L 300.420336 96.45498 
L 300.13118 96.350191 
L 299.336257 96.053488 
L 298.440627 95.724523 
L 297.604234 95.419468 
L 297.551532 95.400609 
L 296.675844 95.079968 
L 296.613521 95.057446 
L 295.771301 94.748763 
L 295.623883 94.693926 
L 294.879776 94.422423 
L 294.830358 94.404291 
L 294.632683 94.331604 
L 293.998709 94.099522 
L 293.349029 93.862844 
L 293.099969 93.773916 
L 292.209085 93.445723 
L 291.55209 93.20481 
L 291.261055 93.098131 
L 290.379965 92.777145 
L 289.451176 92.434507 
L 289.414055 92.421994 
L 289.308016 92.384345 
L 288.994708 92.266597 
L 288.95897 92.252047 
L 287.496674 91.708872 
L 286.858664 91.473506 
L 286.629604 91.387879 
L 286.394292 91.300898 
L 285.737458 91.058095 
L 285.508342 90.972363 
L 284.852926 90.729322 
L 284.717691 90.682489 
L 284.298212 90.526046 
L 283.952261 90.398396 
L 283.07257 90.074499 
L 282.179498 89.743689 
L 282.158824 89.735969 
L 281.302653 89.419899 
L 280.405707 89.08817 
L 280.148615 88.991119 
L 279.72746 88.835563 
L 279.501014 88.754222 
L 278.635015 88.432441 
L 277.781471 88.116276 
L 275.957891 87.443776 
L 275.84346 87.398217 
L 275.634136 87.321236 
L 275.423562 87.242483 
L 275.363754 87.221923 
L 273.484901 86.529423 
L 273.475401 86.525944 
L 273.427191 86.508292 
L 272.549453 86.190999 
L 271.659355 85.875494 
L 270.758577 85.553707 
L 269.86228 85.231886 
L 268.959709 84.910354 
L 268.063584 84.586844 
L 267.174733 84.265778 
L 266.281065 83.949201 
L 265.386973 83.627456 
L 264.489964 83.30498 
L 264.419891 83.280351 
L 263.598827 82.986088 
L 262.709079 82.668175 
L 261.817467 82.34951 
L 260.918886 82.03062 
L 260.029816 81.71265 
L 258.598399 81.19993 
L 258.095189 81.020608 
L 257.601798 80.84431 
L 255.736382 80.176613 
L 255.416121 80.055612 
L 254.523013 79.734307 
L 253.630978 79.421758 
L 253.326679 79.312854 
L 252.735896 79.0996 
L 251.843399 78.78268 
L 250.849415 78.427031 
L 250.396712 78.430796 
L 249.732418 78.436091 
L 249.420623 78.438348 
L 249.029153 78.446994 
L 245.477214 77.665626 
L 241.827031 76.979563 
L 238.122212 76.266551 
L 234.366344 75.544755 
L 233.647348 75.405747 
L 230.222246 75.638667 
L 229.271885 75.697674 
L 225.989665 75.927081 
L 225.423312 75.965628 
L 224.291693 76.0417 
L 223.172717 76.116936 
L 222.436447 76.167442 
L 222.049957 76.192783 
L 220.411693 76.301971 
L 219.806631 76.338262 
L 218.670343 76.417997 
L 217.57349 76.491533 
L 216.452856 76.565458 
L 215.196827 76.647462 
L 214.017943 76.723126 
L 211.516623 76.888423 
L 207.824936 77.12978 
L 204.123379 77.370547 
L 201.72967 77.533032 
L 197.70854 77.815378 
L 188.527143 78.460345 
L 187.707743 78.517905 
L 186.866801 78.577023 
L 186.045821 78.634674 
L 185.180177 78.695525 
L 183.35677 78.823692 
L 182.254532 78.90119 
L 180.9118 78.995626 
L 179.183895 74.813493 
L 174.610496 63.745585 
L 173.963485 62.185044 
L 173.648255 61.422495 
L 172.292076 58.14149 
L 170.449473 53.684237 
L 170.398641 53.568 
L 170.081171 53.776726 
L 170.000294 53.82989 
L 169.798778 53.962364 
L 169.754124 53.99173 
L 158.412861 61.447916 
L 157.374803 62.079835 
L 156.035101 62.975197 
L 153.039619 64.93486 
L 147.801619 68.330717 
L 147.404456 68.591613 
L 146.993438 68.85835 
L 146.99093 68.859966 
L 142.428671 71.800436 
L 136.076121 75.943816 
L 133.468173 77.633271 
L 133.121864 77.857605 
L 132.052184 78.550548 
L 129.91293 79.92804 
L 126.568072 82.094923 
L 125.877567 82.547584 
L 125.770948 82.617476 
L 123.212462 84.264559 
L 122.566214 84.686489 
L 121.356823 85.496105 
L 113.285647 90.75129 
L 112.465683 91.268762 
L 110.478085 92.83379 
L 110.149506 93.2356 
L 108.838985 94.617904 
L 108.430479 95.048777 
L 105.263004 98.389855 
L 103.309867 101.011496 
L 102.691534 101.989652 
L 101.899991 103.241826 
L 101.548615 103.948964 
L 100.693081 105.670607 
L 100.509522 106.115312 
L 100.300788 106.652258 
L 100.184664 106.942359 
L 100.098264 107.15334 
L 100.012604 107.276295 
L 99.69822 107.727191 
L 99.618498 107.841511 
L 99.414428 108.432328 
L 99.436825 109.025408 
L 99.041926 110.486281 
L 98.845319 111.21152 
L 98.428139 112.70109 
L 98.105747 113.770922 
L 97.604213 115.508116 
L 97.300622 116.475694 
L 97.049187 117.324774 
L 95.920606 117.208521 
L 95.171702 119.697984 
L 94.798187 120.959506 
L 94.045549 123.501277 
L 93.930348 123.892481 
L 93.59635 124.968167 
L 93.253424 126.201349 
L 93.188891 126.388243 
L 90.805907 126.584894 
L 87.503876 126.826959 
L 86.385595 130.317831 
L 86.378221 130.340822 
L 86.338972 130.463278 
L 86.210047 130.865771 
L 82.153151 129.582471 
L 82.108426 129.900886 
L 82.090589 130.028282 
L 82.078067 130.117508 
L 82.053983 130.28891 
L 81.486715 132.966563 
L 81.459131 133.124454 
L 81.428415 133.256299 
L 81.027232 134.978616 
L 80.758812 135.979671 
L 80.483896 137.128129 
L 80.463583 137.245535 
L 80.330392 138.116715 
L 80.112928 139.323848 
L 80.04861 139.680842 
L 80.028966 139.789935 
L 80.019198 139.841996 
L 79.93134 140.310913 
L 79.814715 141.024276 
L 79.726305 141.757817 
L 79.625498 142.674142 
L 79.514748 143.330769 
L 79.487271 143.493679 
L 79.447321 144.091565 
L 79.429985 144.814407 
L 79.455199 145.75767 
L 79.62985 147.089196 
L 79.592826 148.325291 
L 79.340864 149.807175 
L 79.459714 151.659959 
L 79.511958 152.47431 
L 79.503501 152.686558 
L 80.244342 155.052042 
L 80.474351 156.6921 
L 80.749843 158.556958 
L 80.58469 158.579581 
L 81.17964 162.620289 
L 81.34345 162.601659 
L 81.417905 163.078301 
L 81.595344 163.038292 
L 81.884443 162.967064 
L 81.926111 163.248609 
L 81.933483 163.298299 
L 82.281406 163.411734 
L 82.288126 163.686353 
L 82.292461 163.862493 
L 82.066195 163.724394 
L 81.370944 163.66386 
L 81.155359 163.645103 
L 80.976593 163.629532 
L 80.898501 163.659673 
L 80.817523 163.692993 
L 80.736124 163.726375 
L 80.652062 163.760976 
L 80.414546 163.907973 
L 80.341544 167.25538 
L 80.33483 167.563055 
L 80.274067 170.351326 
L 80.269995 170.536366 
L 80.26823 170.643019 
L 80.266955 170.720326 
L 80.261329 171.054672 
L 80.260769 171.088249 
L 80.259526 171.164551 
L 80.256522 171.322663 
L 80.255716 171.367081 
L 80.177195 175.520282 
L 80.144146 177.269026 
L 80.143358 177.311805 
L 79.798225 177.25001 
L 79.729776 177.831425 
L 79.688628 178.091303 
L 79.538403 178.870975 
L 80.738009 178.939562 
L 80.722579 179.622772 
L 79.997239 181.625276 
L 79.702209 182.617223 
L 79.540108 183.621903 
L 79.212716 186.141471 
L 79.109462 186.935586 
L 79.160759 186.932864 
L 79.260985 186.927627 
L 79.241625 187.097713 
L 79.217984 187.304892 
L 79.093769 188.396041 
L 79.0927 188.405367 
L 80.048313 188.507015 
L 79.932962 189.601096 
L 78.931777 189.503477 
L 78.525565 193.233703 
L 78.517385 193.308566 
L 79.444974 193.520063 
L 79.81958 193.605497 
L 79.822706 193.606224 
L 80.152393 193.68674 
L 81.440319 193.819166 
L 83.990417 193.759289 
L 84.215226 193.754014 
L 85.211857 193.841601 
L 85.96493 193.958012 
L 86.531785 194.149926 
L 87.691097 194.482632 
L 88.267312 194.485065 
L 88.447028 194.446493 
L 88.887918 194.351719 
L 89.47934 194.141658 
L 89.574484 194.107936 
L 89.634406 194.086639 
L 89.683879 194.057369 
L 90.020478 193.858294 
L 90.234859 193.731502 
L 90.436172 193.674345 
L 90.546473 195.034089 
L 90.557706 195.172448 
L 90.555053 195.199304 
L 90.437245 196.351682 
L 90.45755 196.362037 
L 90.450588 196.477522 
L 90.421298 196.486174 
L 90.39359 196.733663 
L 90.362395 196.980749 
L 90.327711 197.22738 
L 90.289535 197.473451 
L 90.248097 197.719855 
L 90.203115 197.965646 
L 90.154692 198.210823 
L 90.102774 198.455227 
L 90.069318 198.582002 
L 90.034657 198.71414 
L 89.96405 198.922149 
L 89.902932 199.132654 
L 89.837248 199.366724 
L 89.741869 199.534924 
L 89.770559 199.557947 
L 90.898833 200.463256 
L 94.144225 203.117028 
L 95.171079 203.956675 
L 100.624683 208.263322 
L 100.994767 208.54964 
L 103.283386 210.358946 
L 107.561192 213.740972 
" clip-path="url(#p399a382eab)" style="fill: #1f77b4"/>
   </g>
   <g id="matplotlib.axis_1">
    <g id="xtick_1">
     <g id="line2d_1">
      <defs>
       <path id="mea972fdf08" d="M 0 0 
L 0 3.5 
" style="stroke: #000000; stroke-width: 0.8"/>
      </defs>
      <g>
       <use xlink:href="#mea972fdf08" x="80.448828" y="307.584" style="stroke: #000000; stroke-width: 0.8"/>
      </g>
     </g>
     <g id="text_1">
      <!-- 13.48 -->
      <g transform="translate(66.134765 322.182437) scale(0.1 -0.1)">
       <defs>
        <path id="DejaVuSans-31" d="M 794 531 
L 1825 531 
L 1825 4091 
L 703 3866 
L 703 4441 
L 1819 4666 
L 2450 4666 
L 2450 531 
L 3481 531 
L 3481 0 
L 794 0 
L 794 531 
z
" transform="scale(0.015625)"/>
        <path id="DejaVuSans-33" d="M 2597 2516 
Q 3050 2419 3304 2112 
Q 3559 1806 3559 1356 
Q 3559 666 3084 287 
Q 2609 -91 1734 -91 
Q 1441 -91 1130 -33 
Q 819 25 488 141 
L 488 750 
Q 750 597 1062 519 
Q 1375 441 1716 441 
Q 2309 441 2620 675 
Q 2931 909 2931 1356 
Q 2931 1769 2642 2001 
Q 2353 2234 1838 2234 
L 1294 2234 
L 1294 2753 
L 1863 2753 
Q 2328 2753 2575 2939 
Q 2822 3125 2822 3475 
Q 2822 3834 2567 4026 
Q 2313 4219 1838 4219 
Q 1578 4219 1281 4162 
Q 984 4106 628 3988 
L 628 4550 
Q 988 4650 1302 4700 
Q 1616 4750 1894 4750 
Q 2613 4750 3031 4423 
Q 3450 4097 3450 3541 
Q 3450 3153 3228 2886 
Q 3006 2619 2597 2516 
z
" transform="scale(0.015625)"/>
        <path id="DejaVuSans-2e" d="M 684 794 
L 1344 794 
L 1344 0 
L 684 0 
L 684 794 
z
" transform="scale(0.015625)"/>
        <path id="DejaVuSans-34" d="M 2419 4116 
L 825 1625 
L 2419 1625 
L 2419 4116 
z
M 2253 4666 
L 3047 4666 
L 3047 1625 
L 3713 1625 
L 3713 1100 
L 3047 1100 
L 3047 0 
L 2419 0 
L 2419 1100 
L 313 1100 
L 313 1709 
L 2253 4666 
z
" transform="scale(0.015625)"/>
        <path id="DejaVuSans-38" d="M 2034 2216 
Q 1584 2216 1326 1975 
Q 1069 1734 1069 1313 
Q 1069 891 1326 650 
Q 1584 409 2034 409 
Q 2484 409 2743 651 
Q 3003 894 3003 1313 
Q 3003 1734 2745 1975 
Q 2488 2216 2034 2216 
z
M 1403 2484 
Q 997 2584 770 2862 
Q 544 3141 544 3541 
Q 544 4100 942 4425 
Q 1341 4750 2034 4750 
Q 2731 4750 3128 4425 
Q 3525 4100 3525 3541 
Q 3525 3141 3298 2862 
Q 3072 2584 2669 2484 
Q 3125 2378 3379 2068 
Q 3634 1759 3634 1313 
Q 3634 634 3220 271 
Q 2806 -91 2034 -91 
Q 1263 -91 848 271 
Q 434 634 434 1313 
Q 434 1759 690 2068 
Q 947 2378 1403 2484 
z
M 1172 3481 
Q 1172 3119 1398 2916 
Q 1625 2713 2034 2713 
Q 2441 2713 2670 2916 
Q 2900 3119 2900 3481 
Q 2900 3844 2670 4047 
Q 2441 4250 2034 4250 
Q 1625 4250 1398 4047 
Q 1172 3844 1172 3481 
z
" transform="scale(0.015625)"/>
       </defs>
       <use xlink:href="#DejaVuSans-31"/>
       <use xlink:href="#DejaVuSans-33" x="63.623047"/>
       <use xlink:href="#DejaVuSans-2e" x="127.246094"/>
       <use xlink:href="#DejaVuSans-34" x="159.033203"/>
       <use xlink:href="#DejaVuSans-38" x="222.65625"/>
      </g>
     </g>
    </g>
    <g id="xtick_2">
     <g id="line2d_2">
      <g>
       <use xlink:href="#mea972fdf08" x="151.905326" y="307.584" style="stroke: #000000; stroke-width: 0.8"/>
      </g>
     </g>
     <g id="text_2">
      <!-- 13.50 -->
      <g transform="translate(137.591264 322.182437) scale(0.1 -0.1)">
       <defs>
        <path id="DejaVuSans-35" d="M 691 4666 
L 3169 4666 
L 3169 4134 
L 1269 4134 
L 1269 2991 
Q 1406 3038 1543 3061 
Q 1681 3084 1819 3084 
Q 2600 3084 3056 2656 
Q 3513 2228 3513 1497 
Q 3513 744 3044 326 
Q 2575 -91 1722 -91 
Q 1428 -91 1123 -41 
Q 819 9 494 109 
L 494 744 
Q 775 591 1075 516 
Q 1375 441 1709 441 
Q 2250 441 2565 725 
Q 2881 1009 2881 1497 
Q 2881 1984 2565 2268 
Q 2250 2553 1709 2553 
Q 1456 2553 1204 2497 
Q 953 2441 691 2322 
L 691 4666 
z
" transform="scale(0.015625)"/>
        <path id="DejaVuSans-30" d="M 2034 4250 
Q 1547 4250 1301 3770 
Q 1056 3291 1056 2328 
Q 1056 1369 1301 889 
Q 1547 409 2034 409 
Q 2525 409 2770 889 
Q 3016 1369 3016 2328 
Q 3016 3291 2770 3770 
Q 2525 4250 2034 4250 
z
M 2034 4750 
Q 2819 4750 3233 4129 
Q 3647 3509 3647 2328 
Q 3647 1150 3233 529 
Q 2819 -91 2034 -91 
Q 1250 -91 836 529 
Q 422 1150 422 2328 
Q 422 3509 836 4129 
Q 1250 4750 2034 4750 
z
" transform="scale(0.015625)"/>
       </defs>
       <use xlink:href="#DejaVuSans-31"/>
       <use xlink:href="#DejaVuSans-33" x="63.623047"/>
       <use xlink:href="#DejaVuSans-2e" x="127.246094"/>
       <use xlink:href="#DejaVuSans-35" x="159.033203"/>
       <use xlink:href="#DejaVuSans-30" x="222.65625"/>
      </g>
     </g>
    </g>
    <g id="xtick_3">
     <g id="line2d_3">
      <g>
       <use xlink:href="#mea972fdf08" x="223.361825" y="307.584" style="stroke: #000000; stroke-width: 0.8"/>
      </g>
     </g>
     <g id="text_3">
      <!-- 13.52 -->
      <g transform="translate(209.047762 322.182437) scale(0.1 -0.1)">
       <defs>
        <path id="DejaVuSans-32" d="M 1228 531 
L 3431 531 
L 3431 0 
L 469 0 
L 469 531 
Q 828 903 1448 1529 
Q 2069 2156 2228 2338 
Q 2531 2678 2651 2914 
Q 2772 3150 2772 3378 
Q 2772 3750 2511 3984 
Q 2250 4219 1831 4219 
Q 1534 4219 1204 4116 
Q 875 4013 500 3803 
L 500 4441 
Q 881 4594 1212 4672 
Q 1544 4750 1819 4750 
Q 2544 4750 2975 4387 
Q 3406 4025 3406 3419 
Q 3406 3131 3298 2873 
Q 3191 2616 2906 2266 
Q 2828 2175 2409 1742 
Q 1991 1309 1228 531 
z
" transform="scale(0.015625)"/>
       </defs>
       <use xlink:href="#DejaVuSans-31"/>
       <use xlink:href="#DejaVuSans-33" x="63.623047"/>
       <use xlink:href="#DejaVuSans-2e" x="127.246094"/>
       <use xlink:href="#DejaVuSans-35" x="159.033203"/>
       <use xlink:href="#DejaVuSans-32" x="222.65625"/>
      </g>
     </g>
    </g>
    <g id="xtick_4">
     <g id="line2d_4">
      <g>
       <use xlink:href="#mea972fdf08" x="294.818323" y="307.584" style="stroke: #000000; stroke-width: 0.8"/>
      </g>
     </g>
     <g id="text_4">
      <!-- 13.54 -->
      <g transform="translate(280.50426 322.182437) scale(0.1 -0.1)">
       <use xlink:href="#DejaVuSans-31"/>
       <use xlink:href="#DejaVuSans-33" x="63.623047"/>
       <use xlink:href="#DejaVuSans-2e" x="127.246094"/>
       <use xlink:href="#DejaVuSans-35" x="159.033203"/>
       <use xlink:href="#DejaVuSans-34" x="222.65625"/>
      </g>
     </g>
    </g>
    <g id="xtick_5">
     <g id="line2d_5">
      <g>
       <use xlink:href="#mea972fdf08" x="366.274821" y="307.584" style="stroke: #000000; stroke-width: 0.8"/>
      </g>
     </g>
     <g id="text_5">
      <!-- 13.56 -->
      <g transform="translate(351.960759 322.182437) scale(0.1 -0.1)">
       <defs>
        <path id="DejaVuSans-36" d="M 2113 2584 
Q 1688 2584 1439 2293 
Q 1191 2003 1191 1497 
Q 1191 994 1439 701 
Q 1688 409 2113 409 
Q 2538 409 2786 701 
Q 3034 994 3034 1497 
Q 3034 2003 2786 2293 
Q 2538 2584 2113 2584 
z
M 3366 4563 
L 3366 3988 
Q 3128 4100 2886 4159 
Q 2644 4219 2406 4219 
Q 1781 4219 1451 3797 
Q 1122 3375 1075 2522 
Q 1259 2794 1537 2939 
Q 1816 3084 2150 3084 
Q 2853 3084 3261 2657 
Q 3669 2231 3669 1497 
Q 3669 778 3244 343 
Q 2819 -91 2113 -91 
Q 1303 -91 875 529 
Q 447 1150 447 2328 
Q 447 3434 972 4092 
Q 1497 4750 2381 4750 
Q 2619 4750 2861 4703 
Q 3103 4656 3366 4563 
z
" transform="scale(0.015625)"/>
       </defs>
       <use xlink:href="#DejaVuSans-31"/>
       <use xlink:href="#DejaVuSans-33" x="63.623047"/>
       <use xlink:href="#DejaVuSans-2e" x="127.246094"/>
       <use xlink:href="#DejaVuSans-35" x="159.033203"/>
       <use xlink:href="#DejaVuSans-36" x="222.65625"/>
      </g>
     </g>
    </g>
   </g>
   <g id="matplotlib.axis_2">
    <g id="ytick_1">
     <g id="line2d_6">
      <defs>
       <path id="macea248c84" d="M 0 0 
L -3.5 0 
" style="stroke: #000000; stroke-width: 0.8"/>
      </defs>
      <g>
       <use xlink:href="#macea248c84" x="62.753124" y="267.938967" style="stroke: #000000; stroke-width: 0.8"/>
      </g>
     </g>
     <g id="text_6">
      <!-- 52.56 -->
      <g transform="translate(27.124999 271.738185) scale(0.1 -0.1)">
       <use xlink:href="#DejaVuSans-35"/>
       <use xlink:href="#DejaVuSans-32" x="63.623047"/>
       <use xlink:href="#DejaVuSans-2e" x="127.246094"/>
       <use xlink:href="#DejaVuSans-35" x="159.033203"/>
       <use xlink:href="#DejaVuSans-36" x="222.65625"/>
      </g>
     </g>
    </g>
    <g id="ytick_2">
     <g id="line2d_7">
      <g>
       <use xlink:href="#macea248c84" x="62.753124" y="209.147366" style="stroke: #000000; stroke-width: 0.8"/>
      </g>
     </g>
     <g id="text_7">
      <!-- 52.57 -->
      <g transform="translate(27.124999 212.946585) scale(0.1 -0.1)">
       <defs>
        <path id="DejaVuSans-37" d="M 525 4666 
L 3525 4666 
L 3525 4397 
L 1831 0 
L 1172 0 
L 2766 4134 
L 525 4134 
L 525 4666 
z
" transform="scale(0.015625)"/>
       </defs>
       <use xlink:href="#DejaVuSans-35"/>
       <use xlink:href="#DejaVuSans-32" x="63.623047"/>
       <use xlink:href="#DejaVuSans-2e" x="127.246094"/>
       <use xlink:href="#DejaVuSans-35" x="159.033203"/>
       <use xlink:href="#DejaVuSans-37" x="222.65625"/>
      </g>
     </g>
    </g>
    <g id="ytick_3">
     <g id="line2d_8">
      <g>
       <use xlink:href="#macea248c84" x="62.753124" y="150.355766" style="stroke: #000000; stroke-width: 0.8"/>
      </g>
     </g>
     <g id="text_8">
      <!-- 52.58 -->
      <g transform="translate(27.124999 154.154984) scale(0.1 -0.1)">
       <use xlink:href="#DejaVuSans-35"/>
       <use xlink:href="#DejaVuSans-32" x="63.623047"/>
       <use xlink:href="#DejaVuSans-2e" x="127.246094"/>
       <use xlink:href="#DejaVuSans-35" x="159.033203"/>
       <use xlink:href="#DejaVuSans-38" x="222.65625"/>
      </g>
     </g>
    </g>
    <g id="ytick_4">
     <g id="line2d_9">
      <g>
       <use xlink:href="#macea248c84" x="62.753124" y="91.564165" style="stroke: #000000; stroke-width: 0.8"/>
      </g>
     </g>
     <g id="text_9">
      <!-- 52.59 -->
      <g transform="translate(27.124999 95.363384) scale(0.1 -0.1)">
       <defs>
        <path id="DejaVuSans-39" d="M 703 97 
L 703 672 
Q 941 559 1184 500 
Q 1428 441 1663 441 
Q 2288 441 2617 861 
Q 2947 1281 2994 2138 
Q 2813 1869 2534 1725 
Q 2256 1581 1919 1581 
Q 1219 1581 811 2004 
Q 403 2428 403 3163 
Q 403 3881 828 4315 
Q 1253 4750 1959 4750 
Q 2769 4750 3195 4129 
Q 3622 3509 3622 2328 
Q 3622 1225 3098 567 
Q 2575 -91 1691 -91 
Q 1453 -91 1209 -44 
Q 966 3 703 97 
z
M 1959 2075 
Q 2384 2075 2632 2365 
Q 2881 2656 2881 3163 
Q 2881 3666 2632 3958 
Q 2384 4250 1959 4250 
Q 1534 4250 1286 3958 
Q 1038 3666 1038 3163 
Q 1038 2656 1286 2365 
Q 1534 2075 1959 2075 
z
" transform="scale(0.015625)"/>
       </defs>
       <use xlink:href="#DejaVuSans-35"/>
       <use xlink:href="#DejaVuSans-32" x="63.623047"/>
       <use xlink:href="#DejaVuSans-2e" x="127.246094"/>
       <use xlink:href="#DejaVuSans-35" x="159.033203"/>
       <use xlink:href="#DejaVuSans-39" x="222.65625"/>
      </g>
     </g>
    </g>
   </g>
   <g id="patch_3">
    <path d="M 62.753124 307.584 
L 62.753124 41.472 
" style="fill: none; stroke: #000000; stroke-width: 0.8; stroke-linejoin: miter; stroke-linecap: square"/>
   </g>
   <g id="patch_4">
    <path d="M 409.566876 307.584 
L 409.566876 41.472 
" style="fill: none; stroke: #000000; stroke-width: 0.8; stroke-linejoin: miter; stroke-linecap: square"/>
   </g>
   <g id="patch_5">
    <path d="M 62.753124 307.584 
L 409.566876 307.584 
" style="fill: none; stroke: #000000; stroke-width: 0.8; stroke-linejoin: miter; stroke-linecap: square"/>
   </g>
   <g id="patch_6">
    <path d="M 62.753124 41.472 
L 409.566876 41.472 
" style="fill: none; stroke: #000000; stroke-width: 0.8; stroke-linejoin: miter; stroke-linecap: square"/>
   </g>
   <g id="text_10">
    <!-- Hohenschönhausen_Nord -->
    <g transform="translate(143.701342 174.231918) scale(0.12 -0.12)">
     <defs>
      <path id="DejaVuSans-48" d="M 628 4666 
L 1259 4666 
L 1259 2753 
L 3553 2753 
L 3553 4666 
L 4184 4666 
L 4184 0 
L 3553 0 
L 3553 2222 
L 1259 2222 
L 1259 0 
L 628 0 
L 628 4666 
z
" transform="scale(0.015625)"/>
      <path id="DejaVuSans-6f" d="M 1959 3097 
Q 1497 3097 1228 2736 
Q 959 2375 959 1747 
Q 959 1119 1226 758 
Q 1494 397 1959 397 
Q 2419 397 2687 759 
Q 2956 1122 2956 1747 
Q 2956 2369 2687 2733 
Q 2419 3097 1959 3097 
z
M 1959 3584 
Q 2709 3584 3137 3096 
Q 3566 2609 3566 1747 
Q 3566 888 3137 398 
Q 2709 -91 1959 -91 
Q 1206 -91 779 398 
Q 353 888 353 1747 
Q 353 2609 779 3096 
Q 1206 3584 1959 3584 
z
" transform="scale(0.015625)"/>
      <path id="DejaVuSans-68" d="M 3513 2113 
L 3513 0 
L 2938 0 
L 2938 2094 
Q 2938 2591 2744 2837 
Q 2550 3084 2163 3084 
Q 1697 3084 1428 2787 
Q 1159 2491 1159 1978 
L 1159 0 
L 581 0 
L 581 4863 
L 1159 4863 
L 1159 2956 
Q 1366 3272 1645 3428 
Q 1925 3584 2291 3584 
Q 2894 3584 3203 3211 
Q 3513 2838 3513 2113 
z
" transform="scale(0.015625)"/>
      <path id="DejaVuSans-65" d="M 3597 1894 
L 3597 1613 
L 953 1613 
Q 991 1019 1311 708 
Q 1631 397 2203 397 
Q 2534 397 2845 478 
Q 3156 559 3463 722 
L 3463 178 
Q 3153 47 2828 -22 
Q 2503 -91 2169 -91 
Q 1331 -91 842 396 
Q 353 884 353 1716 
Q 353 2575 817 3079 
Q 1281 3584 2069 3584 
Q 2775 3584 3186 3129 
Q 3597 2675 3597 1894 
z
M 3022 2063 
Q 3016 2534 2758 2815 
Q 2500 3097 2075 3097 
Q 1594 3097 1305 2825 
Q 1016 2553 972 2059 
L 3022 2063 
z
" transform="scale(0.015625)"/>
      <path id="DejaVuSans-6e" d="M 3513 2113 
L 3513 0 
L 2938 0 
L 2938 2094 
Q 2938 2591 2744 2837 
Q 2550 3084 2163 3084 
Q 1697 3084 1428 2787 
Q 1159 2491 1159 1978 
L 1159 0 
L 581 0 
L 581 3500 
L 1159 3500 
L 1159 2956 
Q 1366 3272 1645 3428 
Q 1925 3584 2291 3584 
Q 2894 3584 3203 3211 
Q 3513 2838 3513 2113 
z
" transform="scale(0.015625)"/>
      <path id="DejaVuSans-73" d="M 2834 3397 
L 2834 2853 
Q 2591 2978 2328 3040 
Q 2066 3103 1784 3103 
Q 1356 3103 1142 2972 
Q 928 2841 928 2578 
Q 928 2378 1081 2264 
Q 1234 2150 1697 2047 
L 1894 2003 
Q 2506 1872 2764 1633 
Q 3022 1394 3022 966 
Q 3022 478 2636 193 
Q 2250 -91 1575 -91 
Q 1294 -91 989 -36 
Q 684 19 347 128 
L 347 722 
Q 666 556 975 473 
Q 1284 391 1588 391 
Q 1994 391 2212 530 
Q 2431 669 2431 922 
Q 2431 1156 2273 1281 
Q 2116 1406 1581 1522 
L 1381 1569 
Q 847 1681 609 1914 
Q 372 2147 372 2553 
Q 372 3047 722 3315 
Q 1072 3584 1716 3584 
Q 2034 3584 2315 3537 
Q 2597 3491 2834 3397 
z
" transform="scale(0.015625)"/>
      <path id="DejaVuSans-63" d="M 3122 3366 
L 3122 2828 
Q 2878 2963 2633 3030 
Q 2388 3097 2138 3097 
Q 1578 3097 1268 2742 
Q 959 2388 959 1747 
Q 959 1106 1268 751 
Q 1578 397 2138 397 
Q 2388 397 2633 464 
Q 2878 531 3122 666 
L 3122 134 
Q 2881 22 2623 -34 
Q 2366 -91 2075 -91 
Q 1284 -91 818 406 
Q 353 903 353 1747 
Q 353 2603 823 3093 
Q 1294 3584 2113 3584 
Q 2378 3584 2631 3529 
Q 2884 3475 3122 3366 
z
" transform="scale(0.015625)"/>
      <path id="DejaVuSans-f6" d="M 1959 3097 
Q 1497 3097 1228 2736 
Q 959 2375 959 1747 
Q 959 1119 1226 758 
Q 1494 397 1959 397 
Q 2419 397 2687 759 
Q 2956 1122 2956 1747 
Q 2956 2369 2687 2733 
Q 2419 3097 1959 3097 
z
M 1959 3584 
Q 2709 3584 3137 3096 
Q 3566 2609 3566 1747 
Q 3566 888 3137 398 
Q 2709 -91 1959 -91 
Q 1206 -91 779 398 
Q 353 888 353 1747 
Q 353 2609 779 3096 
Q 1206 3584 1959 3584 
z
M 2253 4850 
L 2888 4850 
L 2888 4219 
L 2253 4219 
L 2253 4850 
z
M 1031 4850 
L 1666 4850 
L 1666 4219 
L 1031 4219 
L 1031 4850 
z
" transform="scale(0.015625)"/>
      <path id="DejaVuSans-61" d="M 2194 1759 
Q 1497 1759 1228 1600 
Q 959 1441 959 1056 
Q 959 750 1161 570 
Q 1363 391 1709 391 
Q 2188 391 2477 730 
Q 2766 1069 2766 1631 
L 2766 1759 
L 2194 1759 
z
M 3341 1997 
L 3341 0 
L 2766 0 
L 2766 531 
Q 2569 213 2275 61 
Q 1981 -91 1556 -91 
Q 1019 -91 701 211 
Q 384 513 384 1019 
Q 384 1609 779 1909 
Q 1175 2209 1959 2209 
L 2766 2209 
L 2766 2266 
Q 2766 2663 2505 2880 
Q 2244 3097 1772 3097 
Q 1472 3097 1187 3025 
Q 903 2953 641 2809 
L 641 3341 
Q 956 3463 1253 3523 
Q 1550 3584 1831 3584 
Q 2591 3584 2966 3190 
Q 3341 2797 3341 1997 
z
" transform="scale(0.015625)"/>
      <path id="DejaVuSans-75" d="M 544 1381 
L 544 3500 
L 1119 3500 
L 1119 1403 
Q 1119 906 1312 657 
Q 1506 409 1894 409 
Q 2359 409 2629 706 
Q 2900 1003 2900 1516 
L 2900 3500 
L 3475 3500 
L 3475 0 
L 2900 0 
L 2900 538 
Q 2691 219 2414 64 
Q 2138 -91 1772 -91 
Q 1169 -91 856 284 
Q 544 659 544 1381 
z
M 1991 3584 
L 1991 3584 
z
" transform="scale(0.015625)"/>
      <path id="DejaVuSans-5f" d="M 3263 -1063 
L 3263 -1509 
L -63 -1509 
L -63 -1063 
L 3263 -1063 
z
" transform="scale(0.015625)"/>
      <path id="DejaVuSans-4e" d="M 628 4666 
L 1478 4666 
L 3547 763 
L 3547 4666 
L 4159 4666 
L 4159 0 
L 3309 0 
L 1241 3903 
L 1241 0 
L 628 0 
L 628 4666 
z
" transform="scale(0.015625)"/>
      <path id="DejaVuSans-72" d="M 2631 2963 
Q 2534 3019 2420 3045 
Q 2306 3072 2169 3072 
Q 1681 3072 1420 2755 
Q 1159 2438 1159 1844 
L 1159 0 
L 581 0 
L 581 3500 
L 1159 3500 
L 1159 2956 
Q 1341 3275 1631 3429 
Q 1922 3584 2338 3584 
Q 2397 3584 2469 3576 
Q 2541 3569 2628 3553 
L 2631 2963 
z
" transform="scale(0.015625)"/>
      <path id="DejaVuSans-64" d="M 2906 2969 
L 2906 4863 
L 3481 4863 
L 3481 0 
L 2906 0 
L 2906 525 
Q 2725 213 2448 61 
Q 2172 -91 1784 -91 
Q 1150 -91 751 415 
Q 353 922 353 1747 
Q 353 2572 751 3078 
Q 1150 3584 1784 3584 
Q 2172 3584 2448 3432 
Q 2725 3281 2906 2969 
z
M 947 1747 
Q 947 1113 1208 752 
Q 1469 391 1925 391 
Q 2381 391 2643 752 
Q 2906 1113 2906 1747 
Q 2906 2381 2643 2742 
Q 2381 3103 1925 3103 
Q 1469 3103 1208 2742 
Q 947 2381 947 1747 
z
" transform="scale(0.015625)"/>
     </defs>
     <use xlink:href="#DejaVuSans-48"/>
     <use xlink:href="#DejaVuSans-6f" x="75.195312"/>
     <use xlink:href="#DejaVuSans-68" x="136.376953"/>
     <use xlink:href="#DejaVuSans-65" x="199.755859"/>
     <use xlink:href="#DejaVuSans-6e" x="261.279297"/>
     <use xlink:href="#DejaVuSans-73" x="324.658203"/>
     <use xlink:href="#DejaVuSans-63" x="376.757812"/>
     <use xlink:href="#DejaVuSans-68" x="431.738281"/>
     <use xlink:href="#DejaVuSans-f6" x="495.117188"/>
     <use xlink:href="#DejaVuSans-6e" x="556.298828"/>
     <use xlink:href="#DejaVuSans-68" x="619.677734"/>
     <use xlink:href="#DejaVuSans-61" x="683.056641"/>
     <use xlink:href="#DejaVuSans-75" x="744.335938"/>
     <use xlink:href="#DejaVuSans-73" x="807.714844"/>
     <use xlink:href="#DejaVuSans-65" x="859.814453"/>
     <use xlink:href="#DejaVuSans-6e" x="921.337891"/>
     <use xlink:href="#DejaVuSans-5f" x="984.716797"/>
     <use xlink:href="#DejaVuSans-4e" x="1034.716797"/>
     <use xlink:href="#DejaVuSans-6f" x="1109.521484"/>
     <use xlink:href="#DejaVuSans-72" x="1170.703125"/>
     <use xlink:href="#DejaVuSans-64" x="1210.066406"/>
    </g>
   </g>
  </g>
 </g>
 <defs>
  <clipPath id="p399a382eab">
   <rect x="62.753124" y="41.472" width="346.813752" height="266.112"/>
  </clipPath>
 </defs>
</svg>
