<?xml version="1.0" encoding="utf-8" standalone="no"?>
<!DOCTYPE svg PUBLIC "-//W3C//DTD SVG 1.1//EN"
  "http://www.w3.org/Graphics/SVG/1.1/DTD/svg11.dtd">
<svg xmlns:xlink="http://www.w3.org/1999/xlink" width="460.8pt" height="345.6pt" viewBox="0 0 460.8 345.6" xmlns="http://www.w3.org/2000/svg" version="1.1">
 <metadata>
  <rdf:RDF xmlns:dc="http://purl.org/dc/elements/1.1/" xmlns:cc="http://creativecommons.org/ns#" xmlns:rdf="http://www.w3.org/1999/02/22-rdf-syntax-ns#">
   <cc:Work>
    <dc:type rdf:resource="http://purl.org/dc/dcmitype/StillImage"/>
    <dc:date>2024-10-15T09:53:29.753753</dc:date>
    <dc:format>image/svg+xml</dc:format>
    <dc:creator>
     <cc:Agent>
      <dc:title>Matplotlib v3.8.4, https://matplotlib.org/</dc:title>
     </cc:Agent>
    </dc:creator>
   </cc:Work>
  </rdf:RDF>
 </metadata>
 <defs>
  <style type="text/css">*{stroke-linejoin: round; stroke-linecap: butt}</style>
 </defs>
 <g id="figure_1">
  <g id="patch_1">
   <path d="M 0 345.6 
L 460.8 345.6 
L 460.8 0 
L 0 0 
z
" style="fill: #ffffff"/>
  </g>
  <g id="axes_1">
   <g id="patch_2">
    <path d="M 66.052992 307.584 
L 406.267008 307.584 
L 406.267008 41.472 
L 66.052992 41.472 
z
" style="fill: #ffffff"/>
   </g>
   <g id="PatchCollection_1">
    <path d="M 167.336313 289.699673 
L 168.741981 289.552481 
L 171.362808 289.285861 
L 172.434389 289.176854 
L 172.728137 288.979969 
L 176.385028 288.626648 
L 176.418987 288.846987 
L 177.332876 288.784462 
L 177.269212 288.727839 
L 177.245364 288.690283 
L 177.47414 288.668303 
L 183.237852 288.114553 
L 186.64266 287.787453 
L 189.724608 287.618829 
L 197.896776 286.838809 
L 198.639824 286.747934 
L 199.493662 286.643512 
L 199.76051 286.620538 
L 199.771664 286.619183 
L 206.181073 285.984449 
L 207.707106 285.833146 
L 213.266068 285.387148 
L 213.981313 285.329787 
L 214.279971 285.166056 
L 214.658883 285.154558 
L 215.39722 285.132111 
L 216.242771 285.106443 
L 216.237914 284.731652 
L 216.558509 284.691798 
L 217.324824 284.693932 
L 217.7676 284.641293 
L 218.273154 284.915698 
L 218.708209 285.143989 
L 223.225205 284.933345 
L 224.027853 284.908101 
L 224.17089 284.901829 
L 224.86402 284.871436 
L 227.432705 284.755012 
L 230.024432 284.637425 
L 230.195502 284.622992 
L 230.360487 284.6117 
L 231.243473 284.551016 
L 232.124736 284.491491 
L 232.583259 284.446533 
L 233.046303 284.40057 
L 234.32815 284.299405 
L 234.413555 284.292648 
L 234.448375 284.313579 
L 235.536925 284.199769 
L 235.645717 284.188389 
L 235.797957 284.172459 
L 236.272469 284.118461 
L 236.845301 284.053275 
L 237.036767 284.031482 
L 237.019155 283.920271 
L 239.412674 283.701057 
L 241.971242 283.449665 
L 243.420322 283.307295 
L 245.533828 283.113089 
L 250.300208 282.796617 
L 255.230357 282.321634 
L 259.903778 281.865304 
L 259.897939 281.73156 
L 260.78424 281.62778 
L 261.27452 281.570216 
L 261.465913 281.548158 
L 263.332075 281.329204 
L 263.611174 281.296705 
L 263.788896 281.275913 
L 264.216663 281.230375 
L 264.638991 281.185441 
L 264.611242 281.882606 
L 264.583888 282.56841 
L 265.495128 282.491178 
L 266.385168 282.37556 
L 267.534315 282.257721 
L 268.675954 282.11467 
L 269.46056 282.037694 
L 270.241191 281.961082 
L 270.379784 281.950988 
L 270.518026 281.94076 
L 271.428358 281.832935 
L 271.748512 281.795035 
L 272.335761 281.725383 
L 272.942089 281.642161 
L 273.54361 281.559599 
L 274.417132 281.490042 
L 278.523802 280.970516 
L 282.607592 280.547533 
L 285.474095 280.215609 
L 286.749304 280.092702 
L 290.840007 279.620964 
L 293.836332 279.279767 
L 298.399182 278.747544 
L 302.06883 278.364542 
L 304.184441 278.11676 
L 305.014309 278.03036 
L 305.396136 277.990608 
L 305.945123 277.935821 
L 308.787321 277.585602 
L 308.862827 277.576545 
L 312.251749 277.173302 
L 314.217249 276.959657 
L 316.160386 276.745994 
L 317.869076 276.581818 
L 319.769063 276.381212 
L 321.517823 276.196582 
L 321.978786 276.146858 
L 326.206534 275.652888 
L 328.947873 275.324468 
L 329.114114 275.302475 
L 328.967645 274.98253 
L 328.832399 274.685063 
L 328.734277 274.470165 
L 328.700623 274.396636 
L 328.930402 274.36128 
L 328.910054 274.316423 
L 329.417148 274.239337 
L 331.727498 273.894716 
L 334.209641 273.731045 
L 334.622425 273.703845 
L 335.071919 273.674069 
L 336.405343 273.52499 
L 337.402635 273.367966 
L 339.989548 272.954359 
L 340.827281 272.790529 
L 341.146801 272.720819 
L 341.303895 272.682058 
L 342.099436 272.478239 
L 343.972805 271.981056 
L 345.92456 271.348479 
L 347.19959 270.888897 
L 349.217163 270.032044 
L 349.5906 269.86767 
L 350.261416 269.572442 
L 354.365866 267.402785 
L 354.326842 267.32621 
L 355.391948 266.716211 
L 355.977941 266.380612 
L 358.077977 265.177858 
L 358.047883 265.124438 
L 358.278743 264.990749 
L 358.354968 265.136859 
L 358.758224 264.915885 
L 359.083536 264.735406 
L 362.291297 262.957426 
L 363.402717 262.341389 
L 369.844666 258.972201 
L 374.083415 257.572247 
L 374.315331 257.493355 
L 376.30309 256.651571 
L 377.479006 256.121869 
L 382.888046 253.876844 
L 383.691631 254.268971 
L 385.262017 253.637399 
L 387.61846 252.761384 
L 387.291125 251.355474 
L 387.160369 250.757153 
L 386.853165 250.33996 
L 386.185564 250.480159 
L 387.181854 250.148857 
L 387.717978 249.970622 
L 387.986943 249.881242 
L 388.066574 249.854596 
L 387.540372 248.289793 
L 390.802735 247.190386 
L 389.062501 245.529513 
L 386.504328 234.171879 
L 385.962206 232.251366 
L 384.770452 228.314767 
L 383.973863 224.249276 
L 383.774147 223.230024 
L 383.65342 222.82697 
L 383.071716 219.891931 
L 383.025591 219.685908 
L 382.933268 219.273794 
L 382.899603 219.123726 
L 383.051356 218.892847 
L 382.789057 214.35872 
L 382.754174 214.217578 
L 382.198242 214.190661 
L 381.032794 210.281152 
L 380.10122 206.994282 
L 379.290961 203.159245 
L 378.634628 199.740882 
L 378.613497 199.444149 
L 378.466587 198.785396 
L 377.699335 195.310639 
L 376.92893 192.27651 
L 376.891936 192.103943 
L 376.455249 190.231403 
L 376.215883 189.203364 
L 374.854777 183.030167 
L 374.74722 182.52312 
L 374.585533 182.365717 
L 374.520911 182.072325 
L 374.407674 181.557544 
L 374.489179 181.350806 
L 374.209921 180.01878 
L 374.065761 179.331097 
L 373.703576 177.603378 
L 372.769295 173.480036 
L 372.700001 173.372959 
L 371.606295 168.6999 
L 371.855032 168.644212 
L 371.740517 168.207954 
L 371.489682 168.263615 
L 370.109105 162.798006 
L 370.071859 162.627127 
L 370.374535 162.191659 
L 369.355825 157.671964 
L 369.390536 157.546501 
L 369.399492 157.423176 
L 369.180052 156.902299 
L 368.139798 152.019722 
L 367.208609 148.213052 
L 366.897982 146.94342 
L 366.975224 146.173415 
L 366.701808 146.058251 
L 365.517607 141.742892 
L 364.089541 137.275255 
L 362.55318 132.803183 
L 362.200964 132.427864 
L 361.360939 130.163551 
L 360.736901 128.705923 
L 361.047489 128.578875 
L 360.912447 128.251815 
L 360.632212 128.396394 
L 359.762171 126.241894 
L 358.051357 122.437131 
L 358.92035 121.956761 
L 358.703605 121.559678 
L 358.323269 120.978886 
L 357.826092 121.24853 
L 356.12602 122.470482 
L 355.988244 121.910304 
L 355.513053 120.957549 
L 355.054378 121.290958 
L 354.193986 119.310438 
L 353.882003 118.591442 
L 353.590878 118.30536 
L 353.334029 118.054181 
L 352.958528 117.433417 
L 352.71794 116.865535 
L 347.926971 114.769747 
L 342.284364 112.381309 
L 341.864013 112.188022 
L 340.544431 111.604951 
L 338.099338 110.512631 
L 335.444328 109.366332 
L 333.464218 108.524018 
L 332.734086 108.200863 
L 330.810801 107.354593 
L 329.973073 107.015575 
L 329.648133 106.875779 
L 329.15896 106.679087 
L 327.440718 105.988274 
L 324.798747 104.952875 
L 321.597279 103.723035 
L 313.871235 100.676342 
L 313.333873 100.445973 
L 313.158204 100.391501 
L 312.593387 100.21636 
L 312.019871 99.958774 
L 301.206178 95.10496 
L 294.222133 91.878894 
L 290.72974 90.285932 
L 288.862908 89.457442 
L 279.477648 85.292026 
L 278.736918 84.966654 
L 273.217987 82.530719 
L 264.233671 78.372387 
L 263.473949 78.021328 
L 258.88231 75.898815 
L 250.447633 71.343057 
L 249.224686 70.690203 
L 248.059086 70.068049 
L 247.556986 70.352674 
L 246.536036 69.960615 
L 245.739147 69.654601 
L 244.370416 69.199498 
L 242.968148 68.732623 
L 241.888935 68.361843 
L 238.585535 67.198468 
L 238.054706 67.011675 
L 237.786794 66.917524 
L 236.101172 66.3244 
L 235.677191 66.201194 
L 235.16806 66.005567 
L 234.996195 65.93953 
L 234.626941 65.868731 
L 233.787451 65.701669 
L 231.819106 65.297552 
L 231.237033 65.179261 
L 229.756864 64.869236 
L 229.412485 64.807596 
L 227.634078 64.448854 
L 227.165132 64.363043 
L 225.993609 64.148779 
L 224.432858 63.841721 
L 223.003578 63.551338 
L 221.638157 63.268178 
L 220.526628 63.053732 
L 220.210558 62.984851 
L 219.242981 62.785203 
L 218.815141 62.682074 
L 217.417953 62.396974 
L 217.271791 62.358214 
L 216.784219 62.237973 
L 216.068268 62.091176 
L 214.851915 61.828198 
L 213.628336 61.549744 
L 212.401264 61.278237 
L 211.204394 61.036589 
L 209.964593 60.75183 
L 209.799472 60.721432 
L 208.637447 60.504296 
L 207.646661 60.319184 
L 207.070315 60.211467 
L 206.534974 60.111514 
L 206.142797 60.038703 
L 205.943549 60.001732 
L 205.23834 59.895385 
L 202.54936 59.407813 
L 202.343315 59.373581 
L 201.481868 59.216966 
L 200.74287 59.093534 
L 200.371757 59.031571 
L 199.268764 58.835377 
L 198.180069 58.637416 
L 197.791113 58.558309 
L 197.068206 58.425225 
L 195.988393 58.200592 
L 194.883689 57.983001 
L 193.779262 57.778795 
L 192.699105 57.574715 
L 192.329924 57.504941 
L 191.826495 57.409809 
L 191.605042 57.367916 
L 190.51986 57.161144 
L 189.390295 56.948999 
L 188.286795 56.748461 
L 187.175058 56.526953 
L 186.48982 56.403053 
L 186.083433 56.313322 
L 184.986416 56.096093 
L 183.901857 55.886035 
L 183.426608 55.780861 
L 182.806763 55.643822 
L 181.722228 55.428374 
L 180.622253 55.145199 
L 179.602622 54.948439 
L 178.433525 54.73611 
L 177.345084 54.511436 
L 176.771815 54.391231 
L 176.246294 54.310252 
L 175.120904 54.118041 
L 171.824382 53.568 
L 171.602997 54.872127 
L 171.395755 56.186959 
L 171.17089 57.448337 
L 170.976304 58.679431 
L 170.848776 59.292215 
L 170.495885 61.419469 
L 170.242047 62.953392 
L 169.978067 64.450382 
L 169.581199 67.091875 
L 169.303333 67.341481 
L 168.929713 67.677136 
L 168.63281 67.922587 
L 168.279881 68.214353 
L 167.972843 70.062263 
L 167.697529 71.71859 
L 167.648009 71.921831 
L 167.86394 72.34131 
L 168.643606 73.856081 
L 170.848461 74.227342 
L 170.965522 74.247097 
L 173.016046 74.592392 
L 174.615754 74.96652 
L 176.132008 75.349699 
L 177.609284 75.902261 
L 179.044212 76.563512 
L 181.222883 77.640458 
L 182.085176 78.066695 
L 182.994173 78.515994 
L 184.637768 79.328408 
L 184.975359 79.497167 
L 185.104544 79.561738 
L 187.230495 80.6242 
L 187.955989 80.986951 
L 188.251315 81.134524 
L 189.436582 81.727186 
L 190.329889 82.189589 
L 190.878516 82.542039 
L 191.026092 82.636854 
L 191.336417 82.826377 
L 191.581151 82.975924 
L 191.734932 83.069838 
L 193.087605 84.041253 
L 194.346809 85.145063 
L 194.506661 85.292047 
L 195.5588 86.356049 
L 196.626248 87.617797 
L 197.323726 88.703605 
L 197.474963 88.886935 
L 197.562122 88.995494 
L 198.10485 89.830344 
L 198.366404 90.246923 
L 199.080025 91.53053 
L 199.309503 91.8812 
L 199.44126 92.119747 
L 199.887863 92.859123 
L 200.617758 94.118914 
L 201.088999 94.920082 
L 201.513016 95.710185 
L 201.545029 95.769859 
L 201.607276 95.883131 
L 201.631235 95.926729 
L 201.707918 96.066277 
L 202.245368 97.04478 
L 204.955999 101.615474 
L 207.215036 105.427213 
L 207.390041 105.724992 
L 207.808198 106.436518 
L 209.937989 110.015139 
L 211.845994 113.180137 
L 212.061457 113.537416 
L 212.643325 114.502671 
L 213.640978 116.342392 
L 213.718855 116.485982 
L 213.809615 116.680747 
L 214.658586 118.503114 
L 215.477997 120.58549 
L 216.152207 122.736925 
L 216.680578 124.893091 
L 217.06117 127.20927 
L 217.122816 127.860205 
L 217.281892 129.541126 
L 217.367821 131.702335 
L 217.352891 133.764518 
L 217.183262 135.767837 
L 216.874951 137.76957 
L 216.261397 140.511767 
L 215.516253 143.212983 
L 215.044088 144.886284 
L 214.374823 147.258193 
L 214.098344 148.238174 
L 214.037285 148.458962 
L 213.718919 149.609849 
L 213.298339 151.130477 
L 213.074767 151.937852 
L 212.724508 153.202176 
L 212.282101 154.799026 
L 211.941865 156.027327 
L 211.456749 157.778771 
L 211.38707 157.679304 
L 209.756774 157.071348 
L 208.822627 156.732121 
L 208.61382 156.656381 
L 208.235792 156.519073 
L 206.749394 155.979327 
L 202.560632 154.458474 
L 199.365318 153.298335 
L 193.125045 151.046482 
L 192.119617 150.683705 
L 185.364232 148.860092 
L 184.214455 148.549709 
L 184.086133 148.515118 
L 183.237907 148.281599 
L 175.854315 146.248982 
L 173.386746 145.56972 
L 172.066215 145.206269 
L 172.051874 145.199211 
L 171.641544 145.631094 
L 171.293343 146.054872 
L 170.683725 146.786152 
L 170.572174 146.921522 
L 170.274549 146.822093 
L 169.967555 146.779421 
L 168.674057 148.324499 
L 168.491583 148.545397 
L 167.136465 150.185553 
L 166.915876 150.4526 
L 162.919135 155.29029 
L 162.136596 156.24593 
L 161.528104 156.989118 
L 161.317107 157.246364 
L 161.2248 157.358905 
L 160.468355 158.251481 
L 160.284618 158.481662 
L 160.03439 158.795104 
L 156.189111 163.611602 
L 155.985624 163.866521 
L 154.116908 166.090375 
L 153.87197 166.375535 
L 153.591424 166.643014 
L 153.292661 166.851934 
L 153.004556 167.058948 
L 152.691527 167.264314 
L 152.408312 167.41782 
L 152.085932 167.557363 
L 151.763498 167.684362 
L 151.41782 167.809749 
L 151.055941 167.89609 
L 150.677886 167.961185 
L 144.819763 168.168078 
L 144.810326 167.39277 
L 144.261137 166.992677 
L 143.444939 168.026307 
L 141.859465 166.846732 
L 140.247193 168.929209 
L 139.937701 169.329003 
L 140.248049 169.571885 
L 140.277976 169.595362 
L 141.943734 170.899529 
L 142.207254 171.885057 
L 142.499219 172.89017 
L 142.867653 173.894649 
L 143.266145 174.875715 
L 143.579301 175.618608 
L 143.681003 175.817329 
L 144.167222 176.748114 
L 144.673701 177.675038 
L 145.235154 178.546625 
L 144.004734 179.971882 
L 141.376234 183.016516 
L 137.353522 182.797757 
L 134.231559 182.643331 
L 129.452185 182.497225 
L 126.624644 182.410862 
L 118.097383 182.127276 
L 117.85889 182.119364 
L 115.745541 182.049075 
L 113.580422 181.977093 
L 113.372011 181.970158 
L 112.388586 181.937537 
L 111.118393 181.895303 
L 109.761869 181.850209 
L 108.435967 181.84491 
L 108.223279 181.844027 
L 107.428254 181.840783 
L 105.688056 181.793647 
L 105.683049 181.793512 
L 103.6225 181.740819 
L 103.551345 181.738195 
L 102.27091 181.691095 
L 95.318097 181.497997 
L 95.062629 181.461025 
L 93.481918 181.231878 
L 92.420429 180.450767 
L 92.294941 180.358399 
L 88.907827 177.865909 
L 88.667786 177.689281 
L 88.37542 178.102285 
L 88.145582 177.65799 
L 83.575405 177.042209 
L 83.155364 176.985622 
L 82.605578 177.638973 
L 82.442388 177.832873 
L 81.769037 178.633095 
L 81.691228 178.725585 
L 81.517265 178.932331 
L 81.758324 180.02118 
L 81.79872 180.208642 
L 81.986004 181.079195 
L 82.134109 181.767025 
L 82.514854 183.535964 
L 82.608302 183.970404 
L 83.437162 187.435291 
L 83.571469 187.996769 
L 83.654232 188.342777 
L 83.945784 189.680691 
L 84.105774 190.319349 
L 84.22194 190.743984 
L 84.498721 191.985424 
L 84.734742 193.035413 
L 84.756658 193.12613 
L 84.880122 193.684195 
L 84.985556 194.179846 
L 85.016768 194.336526 
L 86.97411 203.025 
L 88.697267 210.681186 
L 89.224507 213.092864 
L 89.912191 216.139691 
L 91.734317 224.287338 
L 93.216922 230.759853 
L 93.60497 232.565516 
L 93.647306 232.762681 
L 93.652846 232.786673 
L 93.765082 233.274613 
L 93.829052 233.552758 
L 93.925964 233.973881 
L 94.499431 236.466237 
L 94.899273 238.274944 
L 95.127175 239.423376 
L 95.146416 239.520107 
L 95.026166 239.664449 
L 95.200585 240.081892 
L 95.745573 241.386955 
L 96.208384 242.495197 
L 96.509004 243.215059 
L 97.183394 244.822462 
L 97.239413 244.956188 
L 98.321134 247.534608 
L 100.245432 252.093722 
L 102.101919 256.48601 
L 102.254948 256.847981 
L 102.277536 256.901468 
L 101.910492 256.863989 
L 102.001846 257.022827 
L 102.255375 257.463754 
L 102.721584 258.274779 
L 102.789574 258.393043 
L 103.322487 259.314509 
L 103.812677 260.162452 
L 104.022327 260.524904 
L 104.186493 260.808704 
L 104.210215 260.849762 
L 104.233865 260.890681 
L 105.019358 262.248543 
L 105.176488 262.520298 
L 105.775273 263.556433 
L 105.928837 263.821606 
L 108.390907 268.082625 
L 110.304869 271.395382 
L 110.68107 272.069695 
L 111.315917 273.166962 
L 111.477428 273.428183 
L 111.899297 274.213458 
L 112.951515 276.264376 
L 114.584844 279.282086 
L 114.898719 279.861917 
L 115.899864 281.710491 
L 117.636322 285.106715 
L 117.845569 285.537659 
L 118.035823 285.929617 
L 118.274151 286.42064 
L 119.264617 288.967488 
L 119.93298 290.686431 
L 120.158777 291.153541 
L 121.549828 293.737605 
L 121.789559 294.182904 
L 122.239197 295.018065 
L 122.053758 295.488 
L 123.112044 295.111856 
L 125.18215 293.841921 
L 125.687416 293.532023 
L 128.436065 293.260635 
L 128.872658 293.217544 
L 129.381448 293.157996 
L 129.438127 293.755828 
L 129.53574 293.821256 
L 129.637971 293.883643 
L 135.745161 293.313131 
L 136.28956 293.265176 
L 137.041124 293.191396 
L 137.483615 293.13957 
L 143.763573 292.531418 
L 150.921952 291.895315 
L 161.79223 290.846764 
L 165.241737 290.507084 
L 166.399862 290.366847 
L 167.356004 290.243061 
L 167.336313 289.699673 
" clip-path="url(#p78792a36de)" style="fill: #1f77b4"/>
   </g>
   <g id="matplotlib.axis_1">
    <g id="xtick_1">
     <g id="line2d_1">
      <defs>
       <path id="m1333d495d4" d="M 0 0 
L 0 3.5 
" style="stroke: #000000; stroke-width: 0.8"/>
      </defs>
      <g>
       <use xlink:href="#m1333d495d4" x="95.654994" y="307.584" style="stroke: #000000; stroke-width: 0.8"/>
      </g>
     </g>
     <g id="text_1">
      <!-- 13.47 -->
      <g transform="translate(81.340932 322.182437) scale(0.1 -0.1)">
       <defs>
        <path id="DejaVuSans-31" d="M 794 531 
L 1825 531 
L 1825 4091 
L 703 3866 
L 703 4441 
L 1819 4666 
L 2450 4666 
L 2450 531 
L 3481 531 
L 3481 0 
L 794 0 
L 794 531 
z
" transform="scale(0.015625)"/>
        <path id="DejaVuSans-33" d="M 2597 2516 
Q 3050 2419 3304 2112 
Q 3559 1806 3559 1356 
Q 3559 666 3084 287 
Q 2609 -91 1734 -91 
Q 1441 -91 1130 -33 
Q 819 25 488 141 
L 488 750 
Q 750 597 1062 519 
Q 1375 441 1716 441 
Q 2309 441 2620 675 
Q 2931 909 2931 1356 
Q 2931 1769 2642 2001 
Q 2353 2234 1838 2234 
L 1294 2234 
L 1294 2753 
L 1863 2753 
Q 2328 2753 2575 2939 
Q 2822 3125 2822 3475 
Q 2822 3834 2567 4026 
Q 2313 4219 1838 4219 
Q 1578 4219 1281 4162 
Q 984 4106 628 3988 
L 628 4550 
Q 988 4650 1302 4700 
Q 1616 4750 1894 4750 
Q 2613 4750 3031 4423 
Q 3450 4097 3450 3541 
Q 3450 3153 3228 2886 
Q 3006 2619 2597 2516 
z
" transform="scale(0.015625)"/>
        <path id="DejaVuSans-2e" d="M 684 794 
L 1344 794 
L 1344 0 
L 684 0 
L 684 794 
z
" transform="scale(0.015625)"/>
        <path id="DejaVuSans-34" d="M 2419 4116 
L 825 1625 
L 2419 1625 
L 2419 4116 
z
M 2253 4666 
L 3047 4666 
L 3047 1625 
L 3713 1625 
L 3713 1100 
L 3047 1100 
L 3047 0 
L 2419 0 
L 2419 1100 
L 313 1100 
L 313 1709 
L 2253 4666 
z
" transform="scale(0.015625)"/>
        <path id="DejaVuSans-37" d="M 525 4666 
L 3525 4666 
L 3525 4397 
L 1831 0 
L 1172 0 
L 2766 4134 
L 525 4134 
L 525 4666 
z
" transform="scale(0.015625)"/>
       </defs>
       <use xlink:href="#DejaVuSans-31"/>
       <use xlink:href="#DejaVuSans-33" x="63.623047"/>
       <use xlink:href="#DejaVuSans-2e" x="127.246094"/>
       <use xlink:href="#DejaVuSans-34" x="159.033203"/>
       <use xlink:href="#DejaVuSans-37" x="222.65625"/>
      </g>
     </g>
    </g>
    <g id="xtick_2">
     <g id="line2d_2">
      <g>
       <use xlink:href="#m1333d495d4" x="143.056905" y="307.584" style="stroke: #000000; stroke-width: 0.8"/>
      </g>
     </g>
     <g id="text_2">
      <!-- 13.48 -->
      <g transform="translate(128.742843 322.182437) scale(0.1 -0.1)">
       <defs>
        <path id="DejaVuSans-38" d="M 2034 2216 
Q 1584 2216 1326 1975 
Q 1069 1734 1069 1313 
Q 1069 891 1326 650 
Q 1584 409 2034 409 
Q 2484 409 2743 651 
Q 3003 894 3003 1313 
Q 3003 1734 2745 1975 
Q 2488 2216 2034 2216 
z
M 1403 2484 
Q 997 2584 770 2862 
Q 544 3141 544 3541 
Q 544 4100 942 4425 
Q 1341 4750 2034 4750 
Q 2731 4750 3128 4425 
Q 3525 4100 3525 3541 
Q 3525 3141 3298 2862 
Q 3072 2584 2669 2484 
Q 3125 2378 3379 2068 
Q 3634 1759 3634 1313 
Q 3634 634 3220 271 
Q 2806 -91 2034 -91 
Q 1263 -91 848 271 
Q 434 634 434 1313 
Q 434 1759 690 2068 
Q 947 2378 1403 2484 
z
M 1172 3481 
Q 1172 3119 1398 2916 
Q 1625 2713 2034 2713 
Q 2441 2713 2670 2916 
Q 2900 3119 2900 3481 
Q 2900 3844 2670 4047 
Q 2441 4250 2034 4250 
Q 1625 4250 1398 4047 
Q 1172 3844 1172 3481 
z
" transform="scale(0.015625)"/>
       </defs>
       <use xlink:href="#DejaVuSans-31"/>
       <use xlink:href="#DejaVuSans-33" x="63.623047"/>
       <use xlink:href="#DejaVuSans-2e" x="127.246094"/>
       <use xlink:href="#DejaVuSans-34" x="159.033203"/>
       <use xlink:href="#DejaVuSans-38" x="222.65625"/>
      </g>
     </g>
    </g>
    <g id="xtick_3">
     <g id="line2d_3">
      <g>
       <use xlink:href="#m1333d495d4" x="190.458817" y="307.584" style="stroke: #000000; stroke-width: 0.8"/>
      </g>
     </g>
     <g id="text_3">
      <!-- 13.49 -->
      <g transform="translate(176.144754 322.182437) scale(0.1 -0.1)">
       <defs>
        <path id="DejaVuSans-39" d="M 703 97 
L 703 672 
Q 941 559 1184 500 
Q 1428 441 1663 441 
Q 2288 441 2617 861 
Q 2947 1281 2994 2138 
Q 2813 1869 2534 1725 
Q 2256 1581 1919 1581 
Q 1219 1581 811 2004 
Q 403 2428 403 3163 
Q 403 3881 828 4315 
Q 1253 4750 1959 4750 
Q 2769 4750 3195 4129 
Q 3622 3509 3622 2328 
Q 3622 1225 3098 567 
Q 2575 -91 1691 -91 
Q 1453 -91 1209 -44 
Q 966 3 703 97 
z
M 1959 2075 
Q 2384 2075 2632 2365 
Q 2881 2656 2881 3163 
Q 2881 3666 2632 3958 
Q 2384 4250 1959 4250 
Q 1534 4250 1286 3958 
Q 1038 3666 1038 3163 
Q 1038 2656 1286 2365 
Q 1534 2075 1959 2075 
z
" transform="scale(0.015625)"/>
       </defs>
       <use xlink:href="#DejaVuSans-31"/>
       <use xlink:href="#DejaVuSans-33" x="63.623047"/>
       <use xlink:href="#DejaVuSans-2e" x="127.246094"/>
       <use xlink:href="#DejaVuSans-34" x="159.033203"/>
       <use xlink:href="#DejaVuSans-39" x="222.65625"/>
      </g>
     </g>
    </g>
    <g id="xtick_4">
     <g id="line2d_4">
      <g>
       <use xlink:href="#m1333d495d4" x="237.860728" y="307.584" style="stroke: #000000; stroke-width: 0.8"/>
      </g>
     </g>
     <g id="text_4">
      <!-- 13.50 -->
      <g transform="translate(223.546665 322.182437) scale(0.1 -0.1)">
       <defs>
        <path id="DejaVuSans-35" d="M 691 4666 
L 3169 4666 
L 3169 4134 
L 1269 4134 
L 1269 2991 
Q 1406 3038 1543 3061 
Q 1681 3084 1819 3084 
Q 2600 3084 3056 2656 
Q 3513 2228 3513 1497 
Q 3513 744 3044 326 
Q 2575 -91 1722 -91 
Q 1428 -91 1123 -41 
Q 819 9 494 109 
L 494 744 
Q 775 591 1075 516 
Q 1375 441 1709 441 
Q 2250 441 2565 725 
Q 2881 1009 2881 1497 
Q 2881 1984 2565 2268 
Q 2250 2553 1709 2553 
Q 1456 2553 1204 2497 
Q 953 2441 691 2322 
L 691 4666 
z
" transform="scale(0.015625)"/>
        <path id="DejaVuSans-30" d="M 2034 4250 
Q 1547 4250 1301 3770 
Q 1056 3291 1056 2328 
Q 1056 1369 1301 889 
Q 1547 409 2034 409 
Q 2525 409 2770 889 
Q 3016 1369 3016 2328 
Q 3016 3291 2770 3770 
Q 2525 4250 2034 4250 
z
M 2034 4750 
Q 2819 4750 3233 4129 
Q 3647 3509 3647 2328 
Q 3647 1150 3233 529 
Q 2819 -91 2034 -91 
Q 1250 -91 836 529 
Q 422 1150 422 2328 
Q 422 3509 836 4129 
Q 1250 4750 2034 4750 
z
" transform="scale(0.015625)"/>
       </defs>
       <use xlink:href="#DejaVuSans-31"/>
       <use xlink:href="#DejaVuSans-33" x="63.623047"/>
       <use xlink:href="#DejaVuSans-2e" x="127.246094"/>
       <use xlink:href="#DejaVuSans-35" x="159.033203"/>
       <use xlink:href="#DejaVuSans-30" x="222.65625"/>
      </g>
     </g>
    </g>
    <g id="xtick_5">
     <g id="line2d_5">
      <g>
       <use xlink:href="#m1333d495d4" x="285.262639" y="307.584" style="stroke: #000000; stroke-width: 0.8"/>
      </g>
     </g>
     <g id="text_5">
      <!-- 13.51 -->
      <g transform="translate(270.948576 322.182437) scale(0.1 -0.1)">
       <use xlink:href="#DejaVuSans-31"/>
       <use xlink:href="#DejaVuSans-33" x="63.623047"/>
       <use xlink:href="#DejaVuSans-2e" x="127.246094"/>
       <use xlink:href="#DejaVuSans-35" x="159.033203"/>
       <use xlink:href="#DejaVuSans-31" x="222.65625"/>
      </g>
     </g>
    </g>
    <g id="xtick_6">
     <g id="line2d_6">
      <g>
       <use xlink:href="#m1333d495d4" x="332.66455" y="307.584" style="stroke: #000000; stroke-width: 0.8"/>
      </g>
     </g>
     <g id="text_6">
      <!-- 13.52 -->
      <g transform="translate(318.350488 322.182437) scale(0.1 -0.1)">
       <defs>
        <path id="DejaVuSans-32" d="M 1228 531 
L 3431 531 
L 3431 0 
L 469 0 
L 469 531 
Q 828 903 1448 1529 
Q 2069 2156 2228 2338 
Q 2531 2678 2651 2914 
Q 2772 3150 2772 3378 
Q 2772 3750 2511 3984 
Q 2250 4219 1831 4219 
Q 1534 4219 1204 4116 
Q 875 4013 500 3803 
L 500 4441 
Q 881 4594 1212 4672 
Q 1544 4750 1819 4750 
Q 2544 4750 2975 4387 
Q 3406 4025 3406 3419 
Q 3406 3131 3298 2873 
Q 3191 2616 2906 2266 
Q 2828 2175 2409 1742 
Q 1991 1309 1228 531 
z
" transform="scale(0.015625)"/>
       </defs>
       <use xlink:href="#DejaVuSans-31"/>
       <use xlink:href="#DejaVuSans-33" x="63.623047"/>
       <use xlink:href="#DejaVuSans-2e" x="127.246094"/>
       <use xlink:href="#DejaVuSans-35" x="159.033203"/>
       <use xlink:href="#DejaVuSans-32" x="222.65625"/>
      </g>
     </g>
    </g>
    <g id="xtick_7">
     <g id="line2d_7">
      <g>
       <use xlink:href="#m1333d495d4" x="380.066461" y="307.584" style="stroke: #000000; stroke-width: 0.8"/>
      </g>
     </g>
     <g id="text_7">
      <!-- 13.53 -->
      <g transform="translate(365.752399 322.182437) scale(0.1 -0.1)">
       <use xlink:href="#DejaVuSans-31"/>
       <use xlink:href="#DejaVuSans-33" x="63.623047"/>
       <use xlink:href="#DejaVuSans-2e" x="127.246094"/>
       <use xlink:href="#DejaVuSans-35" x="159.033203"/>
       <use xlink:href="#DejaVuSans-33" x="222.65625"/>
      </g>
     </g>
    </g>
   </g>
   <g id="matplotlib.axis_2">
    <g id="ytick_1">
     <g id="line2d_8">
      <defs>
       <path id="mda1578e872" d="M 0 0 
L -3.5 0 
" style="stroke: #000000; stroke-width: 0.8"/>
      </defs>
      <g>
       <use xlink:href="#mda1578e872" x="66.052992" y="280.823965" style="stroke: #000000; stroke-width: 0.8"/>
      </g>
     </g>
     <g id="text_8">
      <!-- 52.535 -->
      <g transform="translate(24.062367 284.623183) scale(0.1 -0.1)">
       <use xlink:href="#DejaVuSans-35"/>
       <use xlink:href="#DejaVuSans-32" x="63.623047"/>
       <use xlink:href="#DejaVuSans-2e" x="127.246094"/>
       <use xlink:href="#DejaVuSans-35" x="159.033203"/>
       <use xlink:href="#DejaVuSans-33" x="222.65625"/>
       <use xlink:href="#DejaVuSans-35" x="286.279297"/>
      </g>
     </g>
    </g>
    <g id="ytick_2">
     <g id="line2d_9">
      <g>
       <use xlink:href="#mda1578e872" x="66.052992" y="241.847756" style="stroke: #000000; stroke-width: 0.8"/>
      </g>
     </g>
     <g id="text_9">
      <!-- 52.540 -->
      <g transform="translate(24.062367 245.646975) scale(0.1 -0.1)">
       <use xlink:href="#DejaVuSans-35"/>
       <use xlink:href="#DejaVuSans-32" x="63.623047"/>
       <use xlink:href="#DejaVuSans-2e" x="127.246094"/>
       <use xlink:href="#DejaVuSans-35" x="159.033203"/>
       <use xlink:href="#DejaVuSans-34" x="222.65625"/>
       <use xlink:href="#DejaVuSans-30" x="286.279297"/>
      </g>
     </g>
    </g>
    <g id="ytick_3">
     <g id="line2d_10">
      <g>
       <use xlink:href="#mda1578e872" x="66.052992" y="202.871547" style="stroke: #000000; stroke-width: 0.8"/>
      </g>
     </g>
     <g id="text_10">
      <!-- 52.545 -->
      <g transform="translate(24.062367 206.670766) scale(0.1 -0.1)">
       <use xlink:href="#DejaVuSans-35"/>
       <use xlink:href="#DejaVuSans-32" x="63.623047"/>
       <use xlink:href="#DejaVuSans-2e" x="127.246094"/>
       <use xlink:href="#DejaVuSans-35" x="159.033203"/>
       <use xlink:href="#DejaVuSans-34" x="222.65625"/>
       <use xlink:href="#DejaVuSans-35" x="286.279297"/>
      </g>
     </g>
    </g>
    <g id="ytick_4">
     <g id="line2d_11">
      <g>
       <use xlink:href="#mda1578e872" x="66.052992" y="163.895339" style="stroke: #000000; stroke-width: 0.8"/>
      </g>
     </g>
     <g id="text_11">
      <!-- 52.550 -->
      <g transform="translate(24.062367 167.694557) scale(0.1 -0.1)">
       <use xlink:href="#DejaVuSans-35"/>
       <use xlink:href="#DejaVuSans-32" x="63.623047"/>
       <use xlink:href="#DejaVuSans-2e" x="127.246094"/>
       <use xlink:href="#DejaVuSans-35" x="159.033203"/>
       <use xlink:href="#DejaVuSans-35" x="222.65625"/>
       <use xlink:href="#DejaVuSans-30" x="286.279297"/>
      </g>
     </g>
    </g>
    <g id="ytick_5">
     <g id="line2d_12">
      <g>
       <use xlink:href="#mda1578e872" x="66.052992" y="124.91913" style="stroke: #000000; stroke-width: 0.8"/>
      </g>
     </g>
     <g id="text_12">
      <!-- 52.555 -->
      <g transform="translate(24.062367 128.718349) scale(0.1 -0.1)">
       <use xlink:href="#DejaVuSans-35"/>
       <use xlink:href="#DejaVuSans-32" x="63.623047"/>
       <use xlink:href="#DejaVuSans-2e" x="127.246094"/>
       <use xlink:href="#DejaVuSans-35" x="159.033203"/>
       <use xlink:href="#DejaVuSans-35" x="222.65625"/>
       <use xlink:href="#DejaVuSans-35" x="286.279297"/>
      </g>
     </g>
    </g>
    <g id="ytick_6">
     <g id="line2d_13">
      <g>
       <use xlink:href="#mda1578e872" x="66.052992" y="85.942921" style="stroke: #000000; stroke-width: 0.8"/>
      </g>
     </g>
     <g id="text_13">
      <!-- 52.560 -->
      <g transform="translate(24.062367 89.74214) scale(0.1 -0.1)">
       <defs>
        <path id="DejaVuSans-36" d="M 2113 2584 
Q 1688 2584 1439 2293 
Q 1191 2003 1191 1497 
Q 1191 994 1439 701 
Q 1688 409 2113 409 
Q 2538 409 2786 701 
Q 3034 994 3034 1497 
Q 3034 2003 2786 2293 
Q 2538 2584 2113 2584 
z
M 3366 4563 
L 3366 3988 
Q 3128 4100 2886 4159 
Q 2644 4219 2406 4219 
Q 1781 4219 1451 3797 
Q 1122 3375 1075 2522 
Q 1259 2794 1537 2939 
Q 1816 3084 2150 3084 
Q 2853 3084 3261 2657 
Q 3669 2231 3669 1497 
Q 3669 778 3244 343 
Q 2819 -91 2113 -91 
Q 1303 -91 875 529 
Q 447 1150 447 2328 
Q 447 3434 972 4092 
Q 1497 4750 2381 4750 
Q 2619 4750 2861 4703 
Q 3103 4656 3366 4563 
z
" transform="scale(0.015625)"/>
       </defs>
       <use xlink:href="#DejaVuSans-35"/>
       <use xlink:href="#DejaVuSans-32" x="63.623047"/>
       <use xlink:href="#DejaVuSans-2e" x="127.246094"/>
       <use xlink:href="#DejaVuSans-35" x="159.033203"/>
       <use xlink:href="#DejaVuSans-36" x="222.65625"/>
       <use xlink:href="#DejaVuSans-30" x="286.279297"/>
      </g>
     </g>
    </g>
    <g id="ytick_7">
     <g id="line2d_14">
      <g>
       <use xlink:href="#mda1578e872" x="66.052992" y="46.966713" style="stroke: #000000; stroke-width: 0.8"/>
      </g>
     </g>
     <g id="text_14">
      <!-- 52.565 -->
      <g transform="translate(24.062367 50.765931) scale(0.1 -0.1)">
       <use xlink:href="#DejaVuSans-35"/>
       <use xlink:href="#DejaVuSans-32" x="63.623047"/>
       <use xlink:href="#DejaVuSans-2e" x="127.246094"/>
       <use xlink:href="#DejaVuSans-35" x="159.033203"/>
       <use xlink:href="#DejaVuSans-36" x="222.65625"/>
       <use xlink:href="#DejaVuSans-35" x="286.279297"/>
      </g>
     </g>
    </g>
   </g>
   <g id="patch_3">
    <path d="M 66.052992 307.584 
L 66.052992 41.472 
" style="fill: none; stroke: #000000; stroke-width: 0.8; stroke-linejoin: miter; stroke-linecap: square"/>
   </g>
   <g id="patch_4">
    <path d="M 406.267008 307.584 
L 406.267008 41.472 
" style="fill: none; stroke: #000000; stroke-width: 0.8; stroke-linejoin: miter; stroke-linecap: square"/>
   </g>
   <g id="patch_5">
    <path d="M 66.052992 307.584 
L 406.267008 307.584 
" style="fill: none; stroke: #000000; stroke-width: 0.8; stroke-linejoin: miter; stroke-linecap: square"/>
   </g>
   <g id="patch_6">
    <path d="M 66.052992 41.472 
L 406.267008 41.472 
" style="fill: none; stroke: #000000; stroke-width: 0.8; stroke-linejoin: miter; stroke-linecap: square"/>
   </g>
   <g id="text_15">
    <!-- Hohenschönhausen_Süd -->
    <g transform="translate(170.657614 197.591345) scale(0.12 -0.12)">
     <defs>
      <path id="DejaVuSans-48" d="M 628 4666 
L 1259 4666 
L 1259 2753 
L 3553 2753 
L 3553 4666 
L 4184 4666 
L 4184 0 
L 3553 0 
L 3553 2222 
L 1259 2222 
L 1259 0 
L 628 0 
L 628 4666 
z
" transform="scale(0.015625)"/>
      <path id="DejaVuSans-6f" d="M 1959 3097 
Q 1497 3097 1228 2736 
Q 959 2375 959 1747 
Q 959 1119 1226 758 
Q 1494 397 1959 397 
Q 2419 397 2687 759 
Q 2956 1122 2956 1747 
Q 2956 2369 2687 2733 
Q 2419 3097 1959 3097 
z
M 1959 3584 
Q 2709 3584 3137 3096 
Q 3566 2609 3566 1747 
Q 3566 888 3137 398 
Q 2709 -91 1959 -91 
Q 1206 -91 779 398 
Q 353 888 353 1747 
Q 353 2609 779 3096 
Q 1206 3584 1959 3584 
z
" transform="scale(0.015625)"/>
      <path id="DejaVuSans-68" d="M 3513 2113 
L 3513 0 
L 2938 0 
L 2938 2094 
Q 2938 2591 2744 2837 
Q 2550 3084 2163 3084 
Q 1697 3084 1428 2787 
Q 1159 2491 1159 1978 
L 1159 0 
L 581 0 
L 581 4863 
L 1159 4863 
L 1159 2956 
Q 1366 3272 1645 3428 
Q 1925 3584 2291 3584 
Q 2894 3584 3203 3211 
Q 3513 2838 3513 2113 
z
" transform="scale(0.015625)"/>
      <path id="DejaVuSans-65" d="M 3597 1894 
L 3597 1613 
L 953 1613 
Q 991 1019 1311 708 
Q 1631 397 2203 397 
Q 2534 397 2845 478 
Q 3156 559 3463 722 
L 3463 178 
Q 3153 47 2828 -22 
Q 2503 -91 2169 -91 
Q 1331 -91 842 396 
Q 353 884 353 1716 
Q 353 2575 817 3079 
Q 1281 3584 2069 3584 
Q 2775 3584 3186 3129 
Q 3597 2675 3597 1894 
z
M 3022 2063 
Q 3016 2534 2758 2815 
Q 2500 3097 2075 3097 
Q 1594 3097 1305 2825 
Q 1016 2553 972 2059 
L 3022 2063 
z
" transform="scale(0.015625)"/>
      <path id="DejaVuSans-6e" d="M 3513 2113 
L 3513 0 
L 2938 0 
L 2938 2094 
Q 2938 2591 2744 2837 
Q 2550 3084 2163 3084 
Q 1697 3084 1428 2787 
Q 1159 2491 1159 1978 
L 1159 0 
L 581 0 
L 581 3500 
L 1159 3500 
L 1159 2956 
Q 1366 3272 1645 3428 
Q 1925 3584 2291 3584 
Q 2894 3584 3203 3211 
Q 3513 2838 3513 2113 
z
" transform="scale(0.015625)"/>
      <path id="DejaVuSans-73" d="M 2834 3397 
L 2834 2853 
Q 2591 2978 2328 3040 
Q 2066 3103 1784 3103 
Q 1356 3103 1142 2972 
Q 928 2841 928 2578 
Q 928 2378 1081 2264 
Q 1234 2150 1697 2047 
L 1894 2003 
Q 2506 1872 2764 1633 
Q 3022 1394 3022 966 
Q 3022 478 2636 193 
Q 2250 -91 1575 -91 
Q 1294 -91 989 -36 
Q 684 19 347 128 
L 347 722 
Q 666 556 975 473 
Q 1284 391 1588 391 
Q 1994 391 2212 530 
Q 2431 669 2431 922 
Q 2431 1156 2273 1281 
Q 2116 1406 1581 1522 
L 1381 1569 
Q 847 1681 609 1914 
Q 372 2147 372 2553 
Q 372 3047 722 3315 
Q 1072 3584 1716 3584 
Q 2034 3584 2315 3537 
Q 2597 3491 2834 3397 
z
" transform="scale(0.015625)"/>
      <path id="DejaVuSans-63" d="M 3122 3366 
L 3122 2828 
Q 2878 2963 2633 3030 
Q 2388 3097 2138 3097 
Q 1578 3097 1268 2742 
Q 959 2388 959 1747 
Q 959 1106 1268 751 
Q 1578 397 2138 397 
Q 2388 397 2633 464 
Q 2878 531 3122 666 
L 3122 134 
Q 2881 22 2623 -34 
Q 2366 -91 2075 -91 
Q 1284 -91 818 406 
Q 353 903 353 1747 
Q 353 2603 823 3093 
Q 1294 3584 2113 3584 
Q 2378 3584 2631 3529 
Q 2884 3475 3122 3366 
z
" transform="scale(0.015625)"/>
      <path id="DejaVuSans-f6" d="M 1959 3097 
Q 1497 3097 1228 2736 
Q 959 2375 959 1747 
Q 959 1119 1226 758 
Q 1494 397 1959 397 
Q 2419 397 2687 759 
Q 2956 1122 2956 1747 
Q 2956 2369 2687 2733 
Q 2419 3097 1959 3097 
z
M 1959 3584 
Q 2709 3584 3137 3096 
Q 3566 2609 3566 1747 
Q 3566 888 3137 398 
Q 2709 -91 1959 -91 
Q 1206 -91 779 398 
Q 353 888 353 1747 
Q 353 2609 779 3096 
Q 1206 3584 1959 3584 
z
M 2253 4850 
L 2888 4850 
L 2888 4219 
L 2253 4219 
L 2253 4850 
z
M 1031 4850 
L 1666 4850 
L 1666 4219 
L 1031 4219 
L 1031 4850 
z
" transform="scale(0.015625)"/>
      <path id="DejaVuSans-61" d="M 2194 1759 
Q 1497 1759 1228 1600 
Q 959 1441 959 1056 
Q 959 750 1161 570 
Q 1363 391 1709 391 
Q 2188 391 2477 730 
Q 2766 1069 2766 1631 
L 2766 1759 
L 2194 1759 
z
M 3341 1997 
L 3341 0 
L 2766 0 
L 2766 531 
Q 2569 213 2275 61 
Q 1981 -91 1556 -91 
Q 1019 -91 701 211 
Q 384 513 384 1019 
Q 384 1609 779 1909 
Q 1175 2209 1959 2209 
L 2766 2209 
L 2766 2266 
Q 2766 2663 2505 2880 
Q 2244 3097 1772 3097 
Q 1472 3097 1187 3025 
Q 903 2953 641 2809 
L 641 3341 
Q 956 3463 1253 3523 
Q 1550 3584 1831 3584 
Q 2591 3584 2966 3190 
Q 3341 2797 3341 1997 
z
" transform="scale(0.015625)"/>
      <path id="DejaVuSans-75" d="M 544 1381 
L 544 3500 
L 1119 3500 
L 1119 1403 
Q 1119 906 1312 657 
Q 1506 409 1894 409 
Q 2359 409 2629 706 
Q 2900 1003 2900 1516 
L 2900 3500 
L 3475 3500 
L 3475 0 
L 2900 0 
L 2900 538 
Q 2691 219 2414 64 
Q 2138 -91 1772 -91 
Q 1169 -91 856 284 
Q 544 659 544 1381 
z
M 1991 3584 
L 1991 3584 
z
" transform="scale(0.015625)"/>
      <path id="DejaVuSans-5f" d="M 3263 -1063 
L 3263 -1509 
L -63 -1509 
L -63 -1063 
L 3263 -1063 
z
" transform="scale(0.015625)"/>
      <path id="DejaVuSans-53" d="M 3425 4513 
L 3425 3897 
Q 3066 4069 2747 4153 
Q 2428 4238 2131 4238 
Q 1616 4238 1336 4038 
Q 1056 3838 1056 3469 
Q 1056 3159 1242 3001 
Q 1428 2844 1947 2747 
L 2328 2669 
Q 3034 2534 3370 2195 
Q 3706 1856 3706 1288 
Q 3706 609 3251 259 
Q 2797 -91 1919 -91 
Q 1588 -91 1214 -16 
Q 841 59 441 206 
L 441 856 
Q 825 641 1194 531 
Q 1563 422 1919 422 
Q 2459 422 2753 634 
Q 3047 847 3047 1241 
Q 3047 1584 2836 1778 
Q 2625 1972 2144 2069 
L 1759 2144 
Q 1053 2284 737 2584 
Q 422 2884 422 3419 
Q 422 4038 858 4394 
Q 1294 4750 2059 4750 
Q 2388 4750 2728 4690 
Q 3069 4631 3425 4513 
z
" transform="scale(0.015625)"/>
      <path id="DejaVuSans-fc" d="M 544 1381 
L 544 3500 
L 1119 3500 
L 1119 1403 
Q 1119 906 1312 657 
Q 1506 409 1894 409 
Q 2359 409 2629 706 
Q 2900 1003 2900 1516 
L 2900 3500 
L 3475 3500 
L 3475 0 
L 2900 0 
L 2900 538 
Q 2691 219 2414 64 
Q 2138 -91 1772 -91 
Q 1169 -91 856 284 
Q 544 659 544 1381 
z
M 1991 3584 
L 1991 3584 
z
M 2278 4850 
L 2913 4850 
L 2913 4219 
L 2278 4219 
L 2278 4850 
z
M 1056 4850 
L 1691 4850 
L 1691 4219 
L 1056 4219 
L 1056 4850 
z
" transform="scale(0.015625)"/>
      <path id="DejaVuSans-64" d="M 2906 2969 
L 2906 4863 
L 3481 4863 
L 3481 0 
L 2906 0 
L 2906 525 
Q 2725 213 2448 61 
Q 2172 -91 1784 -91 
Q 1150 -91 751 415 
Q 353 922 353 1747 
Q 353 2572 751 3078 
Q 1150 3584 1784 3584 
Q 2172 3584 2448 3432 
Q 2725 3281 2906 2969 
z
M 947 1747 
Q 947 1113 1208 752 
Q 1469 391 1925 391 
Q 2381 391 2643 752 
Q 2906 1113 2906 1747 
Q 2906 2381 2643 2742 
Q 2381 3103 1925 3103 
Q 1469 3103 1208 2742 
Q 947 2381 947 1747 
z
" transform="scale(0.015625)"/>
     </defs>
     <use xlink:href="#DejaVuSans-48"/>
     <use xlink:href="#DejaVuSans-6f" x="75.195312"/>
     <use xlink:href="#DejaVuSans-68" x="136.376953"/>
     <use xlink:href="#DejaVuSans-65" x="199.755859"/>
     <use xlink:href="#DejaVuSans-6e" x="261.279297"/>
     <use xlink:href="#DejaVuSans-73" x="324.658203"/>
     <use xlink:href="#DejaVuSans-63" x="376.757812"/>
     <use xlink:href="#DejaVuSans-68" x="431.738281"/>
     <use xlink:href="#DejaVuSans-f6" x="495.117188"/>
     <use xlink:href="#DejaVuSans-6e" x="556.298828"/>
     <use xlink:href="#DejaVuSans-68" x="619.677734"/>
     <use xlink:href="#DejaVuSans-61" x="683.056641"/>
     <use xlink:href="#DejaVuSans-75" x="744.335938"/>
     <use xlink:href="#DejaVuSans-73" x="807.714844"/>
     <use xlink:href="#DejaVuSans-65" x="859.814453"/>
     <use xlink:href="#DejaVuSans-6e" x="921.337891"/>
     <use xlink:href="#DejaVuSans-5f" x="984.716797"/>
     <use xlink:href="#DejaVuSans-53" x="1034.716797"/>
     <use xlink:href="#DejaVuSans-fc" x="1098.193359"/>
     <use xlink:href="#DejaVuSans-64" x="1161.572266"/>
    </g>
   </g>
  </g>
 </g>
 <defs>
  <clipPath id="p78792a36de">
   <rect x="66.052992" y="41.472" width="340.214017" height="266.112"/>
  </clipPath>
 </defs>
</svg>
