<?xml version="1.0" encoding="utf-8" standalone="no"?>
<!DOCTYPE svg PUBLIC "-//W3C//DTD SVG 1.1//EN"
  "http://www.w3.org/Graphics/SVG/1.1/DTD/svg11.dtd">
<svg xmlns:xlink="http://www.w3.org/1999/xlink" width="460.8pt" height="345.6pt" viewBox="0 0 460.8 345.6" xmlns="http://www.w3.org/2000/svg" version="1.1">
 <metadata>
  <rdf:RDF xmlns:dc="http://purl.org/dc/elements/1.1/" xmlns:cc="http://creativecommons.org/ns#" xmlns:rdf="http://www.w3.org/1999/02/22-rdf-syntax-ns#">
   <cc:Work>
    <dc:type rdf:resource="http://purl.org/dc/dcmitype/StillImage"/>
    <dc:date>2024-10-15T09:53:28.897051</dc:date>
    <dc:format>image/svg+xml</dc:format>
    <dc:creator>
     <cc:Agent>
      <dc:title>Matplotlib v3.8.4, https://matplotlib.org/</dc:title>
     </cc:Agent>
    </dc:creator>
   </cc:Work>
  </rdf:RDF>
 </metadata>
 <defs>
  <style type="text/css">*{stroke-linejoin: round; stroke-linecap: butt}</style>
 </defs>
 <g id="figure_1">
  <g id="patch_1">
   <path d="M 0 345.6 
L 460.8 345.6 
L 460.8 0 
L 0 0 
z
" style="fill: #ffffff"/>
  </g>
  <g id="axes_1">
   <g id="patch_2">
    <path d="M 67.871151 307.584 
L 404.448849 307.584 
L 404.448849 41.472 
L 67.871151 41.472 
z
" style="fill: #ffffff"/>
   </g>
   <g id="PatchCollection_1">
    <path d="M 389.149863 194.512263 
L 384.162174 188.367904 
L 384.078391 188.264973 
L 384.150559 187.82454 
L 384.484957 187.55421 
L 384.555286 187.31674 
L 384.179576 185.611611 
L 382.887904 184.484228 
L 381.67507 183.266138 
L 381.394749 183.218706 
L 380.702298 182.546127 
L 380.547656 182.452519 
L 380.495444 182.429438 
L 380.439797 182.416983 
L 380.382786 182.415684 
L 380.326585 182.425495 
L 380.273362 182.44614 
L 380.222346 182.479011 
L 380.179208 182.521808 
L 380.145737 182.572541 
L 380.123607 182.629224 
L 380.113562 182.689204 
L 380.116119 182.749946 
L 380.131111 182.808929 
L 380.102629 182.830763 
L 379.507049 182.177553 
L 378.243572 180.823136 
L 378.166501 180.739907 
L 376.465428 178.902448 
L 376.1361 178.559316 
L 375.940975 178.242207 
L 375.892777 177.695386 
L 374.449272 176.687717 
L 373.796795 176.820013 
L 373.410883 176.629403 
L 373.352514 176.612763 
L 373.291986 176.607526 
L 373.231706 176.61387 
L 373.173615 176.631637 
L 373.119989 176.660206 
L 373.072751 176.698503 
L 373.033697 176.744997 
L 371.735917 176.826131 
L 371.202118 176.975378 
L 369.66871 177.568375 
L 369.598899 177.508965 
L 369.334819 177.835605 
L 367.718564 179.834101 
L 364.71557 177.591999 
L 365.552463 176.560295 
L 365.697436 175.015581 
L 365.227143 173.99973 
L 364.434212 173.349292 
L 364.580092 173.172367 
L 364.021774 172.700303 
L 363.248326 172.04612 
L 360.893487 170.054842 
L 360.297402 169.550672 
L 355.273399 166.793946 
L 355.203397 166.875292 
L 354.647492 167.520351 
L 353.187141 166.322336 
L 352.126757 165.452385 
L 350.652251 164.955677 
L 351.030483 164.525738 
L 347.431374 162.634507 
L 346.818578 162.312528 
L 346.182171 161.978096 
L 338.194741 157.687937 
L 336.02297 156.37993 
L 334.731193 155.484604 
L 331.836554 153.478249 
L 330.860071 152.708046 
L 329.51518 151.647432 
L 326.105805 148.948925 
L 325.487797 148.481514 
L 322.785606 146.386739 
L 316.66177 141.496287 
L 313.126694 138.673359 
L 313.102824 138.702094 
L 312.625998 138.324906 
L 312.647696 138.296218 
L 312.622083 138.275895 
L 310.94699 136.944174 
L 310.904605 136.958052 
L 310.457702 136.604882 
L 310.477036 136.57269 
L 310.317772 136.435612 
L 310.291482 136.468872 
L 309.630244 135.945402 
L 309.64958 135.913324 
L 309.509752 135.796704 
L 309.488055 135.825391 
L 309.012461 135.447148 
L 309.036396 135.416117 
L 307.36297 134.093548 
L 307.320911 134.106617 
L 306.860125 133.746638 
L 306.869289 133.709847 
L 306.356741 133.305562 
L 305.26331 132.443066 
L 297.475434 126.299805 
L 297.153013 126.026085 
L 296.830704 125.752248 
L 295.651949 125.052556 
L 294.07137 124.122621 
L 291.6732 122.711857 
L 290.821065 122.210321 
L 290.193898 121.835719 
L 288.190437 120.639192 
L 286.843713 119.819498 
L 283.051446 117.511758 
L 278.494016 114.705002 
L 276.928895 113.741055 
L 276.42474 113.435955 
L 274.269321 112.131502 
L 273.829749 111.865497 
L 273.588259 112.209013 
L 269.283696 109.012225 
L 266.816454 107.37112 
L 266.500532 107.161055 
L 263.149729 104.758643 
L 262.545335 104.126167 
L 261.525649 103.059691 
L 260.082571 101.549988 
L 255.280037 96.526451 
L 255.327251 95.539145 
L 253.764064 94.081276 
L 253.489144 94.116842 
L 250.332081 90.910307 
L 249.378732 90.257091 
L 246.431879 88.205277 
L 243.579467 86.219105 
L 241.968918 85.097941 
L 238.813122 81.706874 
L 238.644453 81.52276 
L 232.722717 76.614486 
L 231.929915 75.957119 
L 228.258802 72.842187 
L 225.758079 70.76455 
L 223.786089 69.126209 
L 222.356883 68.027768 
L 216.789341 64.039728 
L 212.21985 60.786398 
L 206.838674 56.559125 
L 203.13141 53.568 
L 200.222919 60.416445 
L 198.581229 61.125949 
L 198.333337 61.711104 
L 195.577147 68.216479 
L 194.935842 69.712744 
L 194.309461 71.174194 
L 192.726306 74.897837 
L 191.886367 76.872214 
L 191.04646 78.84774 
L 190.682892 79.702125 
L 190.568997 79.969708 
L 190.215345 80.80105 
L 189.833709 81.698044 
L 189.717527 81.970953 
L 189.354187 82.825105 
L 189.272407 83.016852 
L 188.649527 84.482687 
L 187.891511 86.265321 
L 187.240281 87.795441 
L 186.028823 90.645612 
L 184.315396 89.85585 
L 182.211697 88.954746 
L 175.314936 93.726326 
L 172.801004 95.041487 
L 171.392351 95.662239 
L 170.003335 96.243908 
L 168.555459 96.850039 
L 168.024381 97.030736 
L 167.491102 97.204943 
L 166.955734 97.372544 
L 166.418394 97.533649 
L 165.797862 97.710799 
L 165.174851 97.879171 
L 164.549588 98.03876 
L 163.92219 98.189564 
L 163.714493 98.237468 
L 163.506662 98.284458 
L 163.298578 98.330306 
L 162.465117 98.504203 
L 161.62857 98.662453 
L 160.789167 98.805166 
L 159.947366 98.932332 
L 159.103393 99.043832 
L 158.25736 99.139548 
L 157.409839 99.219468 
L 156.560946 99.283704 
L 155.710908 99.332136 
L 154.860183 99.364754 
L 154.009112 99.381551 
L 153.157697 99.382527 
L 152.30651 99.367669 
L 151.455777 99.336972 
L 150.60573 99.290431 
L 149.756598 99.228157 
L 148.908839 99.150138 
L 148.06268 99.056255 
L 147.218468 98.94673 
L 146.376318 98.821561 
L 145.109106 98.694207 
L 144.170335 98.599863 
L 142.082806 98.168755 
L 140.896466 97.673394 
L 139.688377 97.225086 
L 138.899071 96.904793 
L 137.116998 96.03948 
L 134.276859 94.773289 
L 132.922526 94.158315 
L 132.661528 94.039692 
L 132.605815 94.014416 
L 130.173169 92.878682 
L 128.949152 92.320279 
L 127.539957 91.677614 
L 126.489904 91.198565 
L 125.684546 90.861896 
L 124.652798 93.19619 
L 123.950693 94.751935 
L 123.387763 96.082891 
L 123.330695 96.215602 
L 123.268892 96.346352 
L 123.202573 96.474678 
L 123.131855 96.600692 
L 122.995703 96.790773 
L 122.854669 96.977406 
L 122.709091 97.160353 
L 122.602884 97.291046 
L 122.492947 97.418609 
L 122.379388 97.542809 
L 122.262211 97.663763 
L 122.139524 97.78392 
L 122.013434 97.900251 
L 121.88383 98.012875 
L 121.75105 98.121553 
L 121.893614 98.376867 
L 121.122472 98.657859 
L 120.84783 98.758065 
L 120.300244 98.957639 
L 119.392559 99.279715 
L 118.820896 99.482457 
L 118.705635 99.523416 
L 118.599765 99.308134 
L 118.386706 99.293771 
L 118.173933 99.276762 
L 117.961333 99.257226 
L 117.872441 99.248051 
L 117.783532 99.238074 
L 117.694829 99.227059 
L 117.551874 99.200029 
L 117.409113 99.171389 
L 117.266774 99.141134 
L 117.142022 99.114393 
L 117.017578 99.086039 
L 116.893561 99.056299 
L 116.670516 99.014395 
L 116.448388 98.96731 
L 116.227517 98.914919 
L 115.316918 101.024949 
L 114.610898 102.625071 
L 113.758437 104.556713 
L 113.085791 106.081198 
L 112.527857 107.345868 
L 111.475222 109.731233 
L 109.207796 108.676732 
L 107.458724 107.881794 
L 105.201058 106.855657 
L 104.41656 106.499059 
L 102.253003 105.517093 
L 101.849716 105.333934 
L 101.541096 105.193776 
L 101.517285 105.182943 
L 101.101285 104.994099 
L 101.082096 104.985344 
L 100.67014 104.798247 
L 100.637659 104.783475 
L 97.883888 103.533234 
L 97.453666 103.337823 
L 95.536395 102.467242 
L 95.103744 102.270739 
L 92.322898 101.008158 
L 91.599546 100.680058 
L 90.798055 100.316511 
L 90.5648 100.210833 
L 89.26275 101.033403 
L 88.412438 101.570497 
L 88.103267 101.765887 
L 88.243675 103.212398 
L 88.625241 107.199379 
L 89.982461 112.172049 
L 90.75119 115.115934 
L 91.153589 116.512746 
L 91.735555 118.709845 
L 92.011321 119.6545 
L 92.08822 119.931326 
L 92.355928 120.894742 
L 93.004344 123.231704 
L 92.588781 124.164959 
L 92.466072 124.440327 
L 92.041789 125.39339 
L 91.655566 126.260614 
L 91.556421 126.483271 
L 91.154498 127.385943 
L 90.799578 128.182735 
L 90.699889 128.406665 
L 90.334833 129.226508 
L 90.142646 129.657807 
L 90.058888 129.846285 
L 89.137264 131.723165 
L 88.960507 132.153551 
L 87.729381 135.149827 
L 87.584345 135.502774 
L 87.527967 135.640291 
L 86.087834 139.145327 
L 87.172696 139.659209 
L 88.849474 140.45338 
L 89.345071 140.688068 
L 88.916722 141.695022 
L 88.646291 142.331082 
L 87.999856 143.850777 
L 87.988076 143.877191 
L 87.070706 145.889455 
L 87.691528 146.632766 
L 84.724819 153.438955 
L 83.170137 156.946848 
L 85.858946 158.302392 
L 89.420285 159.874112 
L 90.175613 160.244522 
L 92.510409 161.389232 
L 93.87561 162.06696 
L 95.611344 162.918126 
L 97.551521 163.861847 
L 99.489377 164.804363 
L 101.592144 165.826655 
L 103.065052 166.543447 
L 104.706271 167.343609 
L 105.877926 167.915727 
L 107.576425 168.745495 
L 108.504247 169.197943 
L 109.855633 169.857888 
L 112.455431 171.126367 
L 113.297283 169.185203 
L 114.168588 167.175322 
L 115.198252 167.699748 
L 116.294557 168.258118 
L 116.420376 168.360545 
L 117.791315 169.475826 
L 119.285391 170.691533 
L 120.199884 171.435314 
L 120.491352 171.672217 
L 121.416559 172.424712 
L 121.622874 172.592593 
L 120.508996 178.571577 
L 120.259153 178.789048 
L 120.441173 179.337729 
L 121.606327 182.762424 
L 121.864263 183.523145 
L 121.996594 183.91347 
L 122.101646 184.223062 
L 122.135766 184.323603 
L 122.38612 185.062123 
L 122.667413 185.891732 
L 123.231911 187.628223 
L 123.336909 187.951124 
L 123.445471 188.285303 
L 123.64025 188.884063 
L 123.73077 189.162315 
L 123.960354 189.824894 
L 124.051428 190.087711 
L 124.183957 190.470397 
L 124.296306 190.794628 
L 124.412069 191.128534 
L 124.518316 191.435348 
L 124.754613 192.117281 
L 124.868548 192.446065 
L 125.084933 193.070276 
L 125.199114 193.399859 
L 125.420628 194.03887 
L 125.533223 194.364013 
L 125.648379 194.696327 
L 125.724085 194.914566 
L 125.759258 195.016231 
L 125.883081 195.373477 
L 126.183202 196.258883 
L 126.264888 196.499475 
L 126.563165 197.379071 
L 126.80764 198.1004 
L 126.893126 198.352609 
L 127.124017 199.033514 
L 127.359315 199.727629 
L 127.447607 199.987806 
L 127.685836 200.69046 
L 127.816441 201.075431 
L 127.838953 201.142273 
L 127.904615 201.335497 
L 127.929928 201.410077 
L 128.037545 201.727415 
L 128.146378 202.048053 
L 128.382148 202.742961 
L 128.491593 203.065421 
L 128.606549 203.404508 
L 128.714526 203.722641 
L 128.842681 204.100325 
L 129.304006 205.478321 
L 129.751538 206.811653 
L 131.865965 211.969476 
L 131.854864 212.089936 
L 131.848204 212.162235 
L 131.844135 212.237919 
L 131.849334 212.313629 
L 131.863543 212.387994 
L 131.886743 212.460212 
L 131.932896 212.582743 
L 132.882286 215.081775 
L 132.921395 215.169933 
L 133.22027 215.705616 
L 133.85079 215.819576 
L 133.872514 215.824146 
L 133.882626 215.773681 
L 135.516747 216.131303 
L 137.049017 216.509058 
L 137.636156 216.653798 
L 138.740579 216.951005 
L 139.836971 217.273512 
L 140.929032 217.617796 
L 142.015288 217.979301 
L 143.094785 218.36149 
L 144.168543 218.758605 
L 145.229843 219.177445 
L 146.290058 219.61478 
L 147.29646 220.045266 
L 147.34116 220.064591 
L 148.384288 220.531784 
L 149.41951 221.019572 
L 150.44782 221.521048 
L 151.468205 222.042201 
L 152.123297 222.391718 
L 152.284781 222.477771 
L 168.435624 231.101252 
L 170.659705 232.289773 
L 174.791881 234.495603 
L 193.617208 244.553511 
L 193.735154 244.616207 
L 195.797692 245.72037 
L 196.076131 245.869368 
L 200.732424 248.361068 
L 204.005315 250.105216 
L 210.891394 253.814887 
L 219.955093 258.55756 
L 236.212419 267.038769 
L 247.515057 272.935593 
L 247.974219 273.176374 
L 249.984338 274.231172 
L 250.350234 274.423164 
L 261.990841 280.504504 
L 263.551493 281.319036 
L 263.793077 281.444563 
L 272.014285 285.723654 
L 279.446241 294.848949 
L 279.497288 295.094242 
L 279.640071 295.062928 
L 279.726911 295.488 
L 279.81151 295.469419 
L 282.473063 294.886943 
L 282.555375 294.868411 
L 282.462765 294.440941 
L 282.597567 294.410834 
L 282.671885 292.635794 
L 282.780391 291.68272 
L 283.018891 289.488986 
L 283.086748 289.006648 
L 283.502747 286.491778 
L 283.589145 286.015119 
L 284.076326 284.30283 
L 284.610556 282.830759 
L 285.732037 281.168281 
L 287.216787 279.533842 
L 287.664696 279.205474 
L 288.049483 278.904973 
L 288.498695 278.541476 
L 289.001979 278.106951 
L 289.503769 277.650892 
L 289.922065 277.248835 
L 290.329283 276.837039 
L 290.741945 276.396447 
L 291.102483 275.995068 
L 291.483816 275.544602 
L 291.783153 275.175291 
L 292.149196 274.705426 
L 292.761583 273.923492 
L 299.998963 264.627055 
L 302.313821 261.652772 
L 304.70978 258.612966 
L 305.704838 257.35498 
L 313.077279 248.020238 
L 313.094208 247.998765 
L 314.321328 246.442809 
L 314.436937 246.296349 
L 320.83085 238.196153 
L 322.084891 236.618172 
L 324.093114 234.091218 
L 325.052679 233.227606 
L 326.014562 232.503779 
L 327.002128 231.883556 
L 328.016327 231.283407 
L 330.240225 230.443677 
L 330.639831 230.340532 
L 332.992969 230.089931 
L 334.007171 230.12919 
L 334.622246 230.197939 
L 335.222215 230.346509 
L 336.252776 230.689632 
L 339.071842 231.245976 
L 339.718611 231.373582 
L 339.882781 231.399637 
L 340.54141 231.392088 
L 341.198929 231.364834 
L 341.849385 231.280263 
L 342.480318 231.170992 
L 343.105727 231.012171 
L 343.751183 230.806461 
L 344.331383 230.582887 
L 344.930887 230.283073 
L 345.471362 229.924883 
L 345.960667 229.496102 
L 346.409598 229.00384 
L 346.667097 228.686851 
L 353.320348 220.500574 
L 354.048629 219.599437 
L 362.052676 209.746223 
L 362.79826 208.866406 
L 362.990587 208.652232 
L 363.53526 207.922193 
L 364.03457 207.403819 
L 364.979159 206.42317 
L 365.299534 206.108049 
L 365.397874 205.987667 
L 368.537158 202.138007 
L 368.144103 201.949733 
L 369.921376 200.105157 
L 370.164273 199.831739 
L 370.757925 199.406013 
L 371.372066 198.921803 
L 372.448536 198.104054 
L 372.611745 197.999254 
L 373.084575 197.728694 
L 374.144273 197.084062 
L 374.459533 196.909118 
L 374.69824 196.776657 
L 374.853524 196.697151 
L 375.012394 196.630185 
L 375.171177 196.564484 
L 376.238341 196.161735 
L 377.309055 195.791145 
L 378.383242 195.433101 
L 379.457341 195.076208 
L 380.541903 194.753735 
L 381.63109 194.449518 
L 382.722552 194.149957 
L 383.822039 193.877872 
L 383.994616 193.857875 
L 384.171944 193.846036 
L 384.349228 193.853584 
L 389.149863 194.512263 
" clip-path="url(#p281a872628)" style="fill: #1f77b4"/>
   </g>
   <g id="matplotlib.axis_1">
    <g id="xtick_1">
     <g id="line2d_1">
      <defs>
       <path id="m4d22efeb81" d="M 0 0 
L 0 3.5 
" style="stroke: #000000; stroke-width: 0.8"/>
      </defs>
      <g>
       <use xlink:href="#m4d22efeb81" x="91.269973" y="307.584" style="stroke: #000000; stroke-width: 0.8"/>
      </g>
     </g>
     <g id="text_1">
      <!-- 13.415 -->
      <g transform="translate(73.774661 322.182437) scale(0.1 -0.1)">
       <defs>
        <path id="DejaVuSans-31" d="M 794 531 
L 1825 531 
L 1825 4091 
L 703 3866 
L 703 4441 
L 1819 4666 
L 2450 4666 
L 2450 531 
L 3481 531 
L 3481 0 
L 794 0 
L 794 531 
z
" transform="scale(0.015625)"/>
        <path id="DejaVuSans-33" d="M 2597 2516 
Q 3050 2419 3304 2112 
Q 3559 1806 3559 1356 
Q 3559 666 3084 287 
Q 2609 -91 1734 -91 
Q 1441 -91 1130 -33 
Q 819 25 488 141 
L 488 750 
Q 750 597 1062 519 
Q 1375 441 1716 441 
Q 2309 441 2620 675 
Q 2931 909 2931 1356 
Q 2931 1769 2642 2001 
Q 2353 2234 1838 2234 
L 1294 2234 
L 1294 2753 
L 1863 2753 
Q 2328 2753 2575 2939 
Q 2822 3125 2822 3475 
Q 2822 3834 2567 4026 
Q 2313 4219 1838 4219 
Q 1578 4219 1281 4162 
Q 984 4106 628 3988 
L 628 4550 
Q 988 4650 1302 4700 
Q 1616 4750 1894 4750 
Q 2613 4750 3031 4423 
Q 3450 4097 3450 3541 
Q 3450 3153 3228 2886 
Q 3006 2619 2597 2516 
z
" transform="scale(0.015625)"/>
        <path id="DejaVuSans-2e" d="M 684 794 
L 1344 794 
L 1344 0 
L 684 0 
L 684 794 
z
" transform="scale(0.015625)"/>
        <path id="DejaVuSans-34" d="M 2419 4116 
L 825 1625 
L 2419 1625 
L 2419 4116 
z
M 2253 4666 
L 3047 4666 
L 3047 1625 
L 3713 1625 
L 3713 1100 
L 3047 1100 
L 3047 0 
L 2419 0 
L 2419 1100 
L 313 1100 
L 313 1709 
L 2253 4666 
z
" transform="scale(0.015625)"/>
        <path id="DejaVuSans-35" d="M 691 4666 
L 3169 4666 
L 3169 4134 
L 1269 4134 
L 1269 2991 
Q 1406 3038 1543 3061 
Q 1681 3084 1819 3084 
Q 2600 3084 3056 2656 
Q 3513 2228 3513 1497 
Q 3513 744 3044 326 
Q 2575 -91 1722 -91 
Q 1428 -91 1123 -41 
Q 819 9 494 109 
L 494 744 
Q 775 591 1075 516 
Q 1375 441 1709 441 
Q 2250 441 2565 725 
Q 2881 1009 2881 1497 
Q 2881 1984 2565 2268 
Q 2250 2553 1709 2553 
Q 1456 2553 1204 2497 
Q 953 2441 691 2322 
L 691 4666 
z
" transform="scale(0.015625)"/>
       </defs>
       <use xlink:href="#DejaVuSans-31"/>
       <use xlink:href="#DejaVuSans-33" x="63.623047"/>
       <use xlink:href="#DejaVuSans-2e" x="127.246094"/>
       <use xlink:href="#DejaVuSans-34" x="159.033203"/>
       <use xlink:href="#DejaVuSans-31" x="222.65625"/>
       <use xlink:href="#DejaVuSans-35" x="286.279297"/>
      </g>
     </g>
    </g>
    <g id="xtick_2">
     <g id="line2d_2">
      <g>
       <use xlink:href="#m4d22efeb81" x="130.104599" y="307.584" style="stroke: #000000; stroke-width: 0.8"/>
      </g>
     </g>
     <g id="text_2">
      <!-- 13.420 -->
      <g transform="translate(112.609287 322.182437) scale(0.1 -0.1)">
       <defs>
        <path id="DejaVuSans-32" d="M 1228 531 
L 3431 531 
L 3431 0 
L 469 0 
L 469 531 
Q 828 903 1448 1529 
Q 2069 2156 2228 2338 
Q 2531 2678 2651 2914 
Q 2772 3150 2772 3378 
Q 2772 3750 2511 3984 
Q 2250 4219 1831 4219 
Q 1534 4219 1204 4116 
Q 875 4013 500 3803 
L 500 4441 
Q 881 4594 1212 4672 
Q 1544 4750 1819 4750 
Q 2544 4750 2975 4387 
Q 3406 4025 3406 3419 
Q 3406 3131 3298 2873 
Q 3191 2616 2906 2266 
Q 2828 2175 2409 1742 
Q 1991 1309 1228 531 
z
" transform="scale(0.015625)"/>
        <path id="DejaVuSans-30" d="M 2034 4250 
Q 1547 4250 1301 3770 
Q 1056 3291 1056 2328 
Q 1056 1369 1301 889 
Q 1547 409 2034 409 
Q 2525 409 2770 889 
Q 3016 1369 3016 2328 
Q 3016 3291 2770 3770 
Q 2525 4250 2034 4250 
z
M 2034 4750 
Q 2819 4750 3233 4129 
Q 3647 3509 3647 2328 
Q 3647 1150 3233 529 
Q 2819 -91 2034 -91 
Q 1250 -91 836 529 
Q 422 1150 422 2328 
Q 422 3509 836 4129 
Q 1250 4750 2034 4750 
z
" transform="scale(0.015625)"/>
       </defs>
       <use xlink:href="#DejaVuSans-31"/>
       <use xlink:href="#DejaVuSans-33" x="63.623047"/>
       <use xlink:href="#DejaVuSans-2e" x="127.246094"/>
       <use xlink:href="#DejaVuSans-34" x="159.033203"/>
       <use xlink:href="#DejaVuSans-32" x="222.65625"/>
       <use xlink:href="#DejaVuSans-30" x="286.279297"/>
      </g>
     </g>
    </g>
    <g id="xtick_3">
     <g id="line2d_3">
      <g>
       <use xlink:href="#m4d22efeb81" x="168.939225" y="307.584" style="stroke: #000000; stroke-width: 0.8"/>
      </g>
     </g>
     <g id="text_3">
      <!-- 13.425 -->
      <g transform="translate(151.443913 322.182437) scale(0.1 -0.1)">
       <use xlink:href="#DejaVuSans-31"/>
       <use xlink:href="#DejaVuSans-33" x="63.623047"/>
       <use xlink:href="#DejaVuSans-2e" x="127.246094"/>
       <use xlink:href="#DejaVuSans-34" x="159.033203"/>
       <use xlink:href="#DejaVuSans-32" x="222.65625"/>
       <use xlink:href="#DejaVuSans-35" x="286.279297"/>
      </g>
     </g>
    </g>
    <g id="xtick_4">
     <g id="line2d_4">
      <g>
       <use xlink:href="#m4d22efeb81" x="207.773851" y="307.584" style="stroke: #000000; stroke-width: 0.8"/>
      </g>
     </g>
     <g id="text_4">
      <!-- 13.430 -->
      <g transform="translate(190.278539 322.182437) scale(0.1 -0.1)">
       <use xlink:href="#DejaVuSans-31"/>
       <use xlink:href="#DejaVuSans-33" x="63.623047"/>
       <use xlink:href="#DejaVuSans-2e" x="127.246094"/>
       <use xlink:href="#DejaVuSans-34" x="159.033203"/>
       <use xlink:href="#DejaVuSans-33" x="222.65625"/>
       <use xlink:href="#DejaVuSans-30" x="286.279297"/>
      </g>
     </g>
    </g>
    <g id="xtick_5">
     <g id="line2d_5">
      <g>
       <use xlink:href="#m4d22efeb81" x="246.608477" y="307.584" style="stroke: #000000; stroke-width: 0.8"/>
      </g>
     </g>
     <g id="text_5">
      <!-- 13.435 -->
      <g transform="translate(229.113165 322.182437) scale(0.1 -0.1)">
       <use xlink:href="#DejaVuSans-31"/>
       <use xlink:href="#DejaVuSans-33" x="63.623047"/>
       <use xlink:href="#DejaVuSans-2e" x="127.246094"/>
       <use xlink:href="#DejaVuSans-34" x="159.033203"/>
       <use xlink:href="#DejaVuSans-33" x="222.65625"/>
       <use xlink:href="#DejaVuSans-35" x="286.279297"/>
      </g>
     </g>
    </g>
    <g id="xtick_6">
     <g id="line2d_6">
      <g>
       <use xlink:href="#m4d22efeb81" x="285.443103" y="307.584" style="stroke: #000000; stroke-width: 0.8"/>
      </g>
     </g>
     <g id="text_6">
      <!-- 13.440 -->
      <g transform="translate(267.947791 322.182437) scale(0.1 -0.1)">
       <use xlink:href="#DejaVuSans-31"/>
       <use xlink:href="#DejaVuSans-33" x="63.623047"/>
       <use xlink:href="#DejaVuSans-2e" x="127.246094"/>
       <use xlink:href="#DejaVuSans-34" x="159.033203"/>
       <use xlink:href="#DejaVuSans-34" x="222.65625"/>
       <use xlink:href="#DejaVuSans-30" x="286.279297"/>
      </g>
     </g>
    </g>
    <g id="xtick_7">
     <g id="line2d_7">
      <g>
       <use xlink:href="#m4d22efeb81" x="324.277729" y="307.584" style="stroke: #000000; stroke-width: 0.8"/>
      </g>
     </g>
     <g id="text_7">
      <!-- 13.445 -->
      <g transform="translate(306.782416 322.182437) scale(0.1 -0.1)">
       <use xlink:href="#DejaVuSans-31"/>
       <use xlink:href="#DejaVuSans-33" x="63.623047"/>
       <use xlink:href="#DejaVuSans-2e" x="127.246094"/>
       <use xlink:href="#DejaVuSans-34" x="159.033203"/>
       <use xlink:href="#DejaVuSans-34" x="222.65625"/>
       <use xlink:href="#DejaVuSans-35" x="286.279297"/>
      </g>
     </g>
    </g>
    <g id="xtick_8">
     <g id="line2d_8">
      <g>
       <use xlink:href="#m4d22efeb81" x="363.112355" y="307.584" style="stroke: #000000; stroke-width: 0.8"/>
      </g>
     </g>
     <g id="text_8">
      <!-- 13.450 -->
      <g transform="translate(345.617042 322.182437) scale(0.1 -0.1)">
       <use xlink:href="#DejaVuSans-31"/>
       <use xlink:href="#DejaVuSans-33" x="63.623047"/>
       <use xlink:href="#DejaVuSans-2e" x="127.246094"/>
       <use xlink:href="#DejaVuSans-34" x="159.033203"/>
       <use xlink:href="#DejaVuSans-35" x="222.65625"/>
       <use xlink:href="#DejaVuSans-30" x="286.279297"/>
      </g>
     </g>
    </g>
    <g id="xtick_9">
     <g id="line2d_9">
      <g>
       <use xlink:href="#m4d22efeb81" x="401.946981" y="307.584" style="stroke: #000000; stroke-width: 0.8"/>
      </g>
     </g>
     <g id="text_9">
      <!-- 13.455 -->
      <g transform="translate(384.451668 322.182437) scale(0.1 -0.1)">
       <use xlink:href="#DejaVuSans-31"/>
       <use xlink:href="#DejaVuSans-33" x="63.623047"/>
       <use xlink:href="#DejaVuSans-2e" x="127.246094"/>
       <use xlink:href="#DejaVuSans-34" x="159.033203"/>
       <use xlink:href="#DejaVuSans-35" x="222.65625"/>
       <use xlink:href="#DejaVuSans-35" x="286.279297"/>
      </g>
     </g>
    </g>
   </g>
   <g id="matplotlib.axis_2">
    <g id="ytick_1">
     <g id="line2d_10">
      <defs>
       <path id="m93d174dedb" d="M 0 0 
L -3.5 0 
" style="stroke: #000000; stroke-width: 0.8"/>
      </defs>
      <g>
       <use xlink:href="#m93d174dedb" x="67.871151" y="290.518015" style="stroke: #000000; stroke-width: 0.8"/>
      </g>
     </g>
     <g id="text_10">
      <!-- 52.4900 -->
      <g transform="translate(19.518026 294.317233) scale(0.1 -0.1)">
       <defs>
        <path id="DejaVuSans-39" d="M 703 97 
L 703 672 
Q 941 559 1184 500 
Q 1428 441 1663 441 
Q 2288 441 2617 861 
Q 2947 1281 2994 2138 
Q 2813 1869 2534 1725 
Q 2256 1581 1919 1581 
Q 1219 1581 811 2004 
Q 403 2428 403 3163 
Q 403 3881 828 4315 
Q 1253 4750 1959 4750 
Q 2769 4750 3195 4129 
Q 3622 3509 3622 2328 
Q 3622 1225 3098 567 
Q 2575 -91 1691 -91 
Q 1453 -91 1209 -44 
Q 966 3 703 97 
z
M 1959 2075 
Q 2384 2075 2632 2365 
Q 2881 2656 2881 3163 
Q 2881 3666 2632 3958 
Q 2384 4250 1959 4250 
Q 1534 4250 1286 3958 
Q 1038 3666 1038 3163 
Q 1038 2656 1286 2365 
Q 1534 2075 1959 2075 
z
" transform="scale(0.015625)"/>
       </defs>
       <use xlink:href="#DejaVuSans-35"/>
       <use xlink:href="#DejaVuSans-32" x="63.623047"/>
       <use xlink:href="#DejaVuSans-2e" x="127.246094"/>
       <use xlink:href="#DejaVuSans-34" x="159.033203"/>
       <use xlink:href="#DejaVuSans-39" x="222.65625"/>
       <use xlink:href="#DejaVuSans-30" x="286.279297"/>
       <use xlink:href="#DejaVuSans-30" x="349.902344"/>
      </g>
     </g>
    </g>
    <g id="ytick_2">
     <g id="line2d_11">
      <g>
       <use xlink:href="#m93d174dedb" x="67.871151" y="258.622249" style="stroke: #000000; stroke-width: 0.8"/>
      </g>
     </g>
     <g id="text_11">
      <!-- 52.4925 -->
      <g transform="translate(19.518026 262.421468) scale(0.1 -0.1)">
       <use xlink:href="#DejaVuSans-35"/>
       <use xlink:href="#DejaVuSans-32" x="63.623047"/>
       <use xlink:href="#DejaVuSans-2e" x="127.246094"/>
       <use xlink:href="#DejaVuSans-34" x="159.033203"/>
       <use xlink:href="#DejaVuSans-39" x="222.65625"/>
       <use xlink:href="#DejaVuSans-32" x="286.279297"/>
       <use xlink:href="#DejaVuSans-35" x="349.902344"/>
      </g>
     </g>
    </g>
    <g id="ytick_3">
     <g id="line2d_12">
      <g>
       <use xlink:href="#m93d174dedb" x="67.871151" y="226.726484" style="stroke: #000000; stroke-width: 0.8"/>
      </g>
     </g>
     <g id="text_12">
      <!-- 52.4950 -->
      <g transform="translate(19.518026 230.525703) scale(0.1 -0.1)">
       <use xlink:href="#DejaVuSans-35"/>
       <use xlink:href="#DejaVuSans-32" x="63.623047"/>
       <use xlink:href="#DejaVuSans-2e" x="127.246094"/>
       <use xlink:href="#DejaVuSans-34" x="159.033203"/>
       <use xlink:href="#DejaVuSans-39" x="222.65625"/>
       <use xlink:href="#DejaVuSans-35" x="286.279297"/>
       <use xlink:href="#DejaVuSans-30" x="349.902344"/>
      </g>
     </g>
    </g>
    <g id="ytick_4">
     <g id="line2d_13">
      <g>
       <use xlink:href="#m93d174dedb" x="67.871151" y="194.830719" style="stroke: #000000; stroke-width: 0.8"/>
      </g>
     </g>
     <g id="text_13">
      <!-- 52.4975 -->
      <g transform="translate(19.518026 198.629937) scale(0.1 -0.1)">
       <defs>
        <path id="DejaVuSans-37" d="M 525 4666 
L 3525 4666 
L 3525 4397 
L 1831 0 
L 1172 0 
L 2766 4134 
L 525 4134 
L 525 4666 
z
" transform="scale(0.015625)"/>
       </defs>
       <use xlink:href="#DejaVuSans-35"/>
       <use xlink:href="#DejaVuSans-32" x="63.623047"/>
       <use xlink:href="#DejaVuSans-2e" x="127.246094"/>
       <use xlink:href="#DejaVuSans-34" x="159.033203"/>
       <use xlink:href="#DejaVuSans-39" x="222.65625"/>
       <use xlink:href="#DejaVuSans-37" x="286.279297"/>
       <use xlink:href="#DejaVuSans-35" x="349.902344"/>
      </g>
     </g>
    </g>
    <g id="ytick_5">
     <g id="line2d_14">
      <g>
       <use xlink:href="#m93d174dedb" x="67.871151" y="162.934953" style="stroke: #000000; stroke-width: 0.8"/>
      </g>
     </g>
     <g id="text_14">
      <!-- 52.5000 -->
      <g transform="translate(19.518026 166.734172) scale(0.1 -0.1)">
       <use xlink:href="#DejaVuSans-35"/>
       <use xlink:href="#DejaVuSans-32" x="63.623047"/>
       <use xlink:href="#DejaVuSans-2e" x="127.246094"/>
       <use xlink:href="#DejaVuSans-35" x="159.033203"/>
       <use xlink:href="#DejaVuSans-30" x="222.65625"/>
       <use xlink:href="#DejaVuSans-30" x="286.279297"/>
       <use xlink:href="#DejaVuSans-30" x="349.902344"/>
      </g>
     </g>
    </g>
    <g id="ytick_6">
     <g id="line2d_15">
      <g>
       <use xlink:href="#m93d174dedb" x="67.871151" y="131.039188" style="stroke: #000000; stroke-width: 0.8"/>
      </g>
     </g>
     <g id="text_15">
      <!-- 52.5025 -->
      <g transform="translate(19.518026 134.838407) scale(0.1 -0.1)">
       <use xlink:href="#DejaVuSans-35"/>
       <use xlink:href="#DejaVuSans-32" x="63.623047"/>
       <use xlink:href="#DejaVuSans-2e" x="127.246094"/>
       <use xlink:href="#DejaVuSans-35" x="159.033203"/>
       <use xlink:href="#DejaVuSans-30" x="222.65625"/>
       <use xlink:href="#DejaVuSans-32" x="286.279297"/>
       <use xlink:href="#DejaVuSans-35" x="349.902344"/>
      </g>
     </g>
    </g>
    <g id="ytick_7">
     <g id="line2d_16">
      <g>
       <use xlink:href="#m93d174dedb" x="67.871151" y="99.143423" style="stroke: #000000; stroke-width: 0.8"/>
      </g>
     </g>
     <g id="text_16">
      <!-- 52.5050 -->
      <g transform="translate(19.518026 102.942642) scale(0.1 -0.1)">
       <use xlink:href="#DejaVuSans-35"/>
       <use xlink:href="#DejaVuSans-32" x="63.623047"/>
       <use xlink:href="#DejaVuSans-2e" x="127.246094"/>
       <use xlink:href="#DejaVuSans-35" x="159.033203"/>
       <use xlink:href="#DejaVuSans-30" x="222.65625"/>
       <use xlink:href="#DejaVuSans-35" x="286.279297"/>
       <use xlink:href="#DejaVuSans-30" x="349.902344"/>
      </g>
     </g>
    </g>
    <g id="ytick_8">
     <g id="line2d_17">
      <g>
       <use xlink:href="#m93d174dedb" x="67.871151" y="67.247658" style="stroke: #000000; stroke-width: 0.8"/>
      </g>
     </g>
     <g id="text_17">
      <!-- 52.5075 -->
      <g transform="translate(19.518026 71.046876) scale(0.1 -0.1)">
       <use xlink:href="#DejaVuSans-35"/>
       <use xlink:href="#DejaVuSans-32" x="63.623047"/>
       <use xlink:href="#DejaVuSans-2e" x="127.246094"/>
       <use xlink:href="#DejaVuSans-35" x="159.033203"/>
       <use xlink:href="#DejaVuSans-30" x="222.65625"/>
       <use xlink:href="#DejaVuSans-37" x="286.279297"/>
       <use xlink:href="#DejaVuSans-35" x="349.902344"/>
      </g>
     </g>
    </g>
   </g>
   <g id="patch_3">
    <path d="M 67.871151 307.584 
L 67.871151 41.472 
" style="fill: none; stroke: #000000; stroke-width: 0.8; stroke-linejoin: miter; stroke-linecap: square"/>
   </g>
   <g id="patch_4">
    <path d="M 404.448849 307.584 
L 404.448849 41.472 
" style="fill: none; stroke: #000000; stroke-width: 0.8; stroke-linejoin: miter; stroke-linecap: square"/>
   </g>
   <g id="patch_5">
    <path d="M 67.871151 307.584 
L 404.448849 307.584 
" style="fill: none; stroke: #000000; stroke-width: 0.8; stroke-linejoin: miter; stroke-linecap: square"/>
   </g>
   <g id="patch_6">
    <path d="M 67.871151 41.472 
L 404.448849 41.472 
" style="fill: none; stroke: #000000; stroke-width: 0.8; stroke-linejoin: miter; stroke-linecap: square"/>
   </g>
   <g id="text_18">
    <!-- Kreuzberg_Ost -->
    <g transform="translate(184.499514 176.774255) scale(0.12 -0.12)">
     <defs>
      <path id="DejaVuSans-4b" d="M 628 4666 
L 1259 4666 
L 1259 2694 
L 3353 4666 
L 4166 4666 
L 1850 2491 
L 4331 0 
L 3500 0 
L 1259 2247 
L 1259 0 
L 628 0 
L 628 4666 
z
" transform="scale(0.015625)"/>
      <path id="DejaVuSans-72" d="M 2631 2963 
Q 2534 3019 2420 3045 
Q 2306 3072 2169 3072 
Q 1681 3072 1420 2755 
Q 1159 2438 1159 1844 
L 1159 0 
L 581 0 
L 581 3500 
L 1159 3500 
L 1159 2956 
Q 1341 3275 1631 3429 
Q 1922 3584 2338 3584 
Q 2397 3584 2469 3576 
Q 2541 3569 2628 3553 
L 2631 2963 
z
" transform="scale(0.015625)"/>
      <path id="DejaVuSans-65" d="M 3597 1894 
L 3597 1613 
L 953 1613 
Q 991 1019 1311 708 
Q 1631 397 2203 397 
Q 2534 397 2845 478 
Q 3156 559 3463 722 
L 3463 178 
Q 3153 47 2828 -22 
Q 2503 -91 2169 -91 
Q 1331 -91 842 396 
Q 353 884 353 1716 
Q 353 2575 817 3079 
Q 1281 3584 2069 3584 
Q 2775 3584 3186 3129 
Q 3597 2675 3597 1894 
z
M 3022 2063 
Q 3016 2534 2758 2815 
Q 2500 3097 2075 3097 
Q 1594 3097 1305 2825 
Q 1016 2553 972 2059 
L 3022 2063 
z
" transform="scale(0.015625)"/>
      <path id="DejaVuSans-75" d="M 544 1381 
L 544 3500 
L 1119 3500 
L 1119 1403 
Q 1119 906 1312 657 
Q 1506 409 1894 409 
Q 2359 409 2629 706 
Q 2900 1003 2900 1516 
L 2900 3500 
L 3475 3500 
L 3475 0 
L 2900 0 
L 2900 538 
Q 2691 219 2414 64 
Q 2138 -91 1772 -91 
Q 1169 -91 856 284 
Q 544 659 544 1381 
z
M 1991 3584 
L 1991 3584 
z
" transform="scale(0.015625)"/>
      <path id="DejaVuSans-7a" d="M 353 3500 
L 3084 3500 
L 3084 2975 
L 922 459 
L 3084 459 
L 3084 0 
L 275 0 
L 275 525 
L 2438 3041 
L 353 3041 
L 353 3500 
z
" transform="scale(0.015625)"/>
      <path id="DejaVuSans-62" d="M 3116 1747 
Q 3116 2381 2855 2742 
Q 2594 3103 2138 3103 
Q 1681 3103 1420 2742 
Q 1159 2381 1159 1747 
Q 1159 1113 1420 752 
Q 1681 391 2138 391 
Q 2594 391 2855 752 
Q 3116 1113 3116 1747 
z
M 1159 2969 
Q 1341 3281 1617 3432 
Q 1894 3584 2278 3584 
Q 2916 3584 3314 3078 
Q 3713 2572 3713 1747 
Q 3713 922 3314 415 
Q 2916 -91 2278 -91 
Q 1894 -91 1617 61 
Q 1341 213 1159 525 
L 1159 0 
L 581 0 
L 581 4863 
L 1159 4863 
L 1159 2969 
z
" transform="scale(0.015625)"/>
      <path id="DejaVuSans-67" d="M 2906 1791 
Q 2906 2416 2648 2759 
Q 2391 3103 1925 3103 
Q 1463 3103 1205 2759 
Q 947 2416 947 1791 
Q 947 1169 1205 825 
Q 1463 481 1925 481 
Q 2391 481 2648 825 
Q 2906 1169 2906 1791 
z
M 3481 434 
Q 3481 -459 3084 -895 
Q 2688 -1331 1869 -1331 
Q 1566 -1331 1297 -1286 
Q 1028 -1241 775 -1147 
L 775 -588 
Q 1028 -725 1275 -790 
Q 1522 -856 1778 -856 
Q 2344 -856 2625 -561 
Q 2906 -266 2906 331 
L 2906 616 
Q 2728 306 2450 153 
Q 2172 0 1784 0 
Q 1141 0 747 490 
Q 353 981 353 1791 
Q 353 2603 747 3093 
Q 1141 3584 1784 3584 
Q 2172 3584 2450 3431 
Q 2728 3278 2906 2969 
L 2906 3500 
L 3481 3500 
L 3481 434 
z
" transform="scale(0.015625)"/>
      <path id="DejaVuSans-5f" d="M 3263 -1063 
L 3263 -1509 
L -63 -1509 
L -63 -1063 
L 3263 -1063 
z
" transform="scale(0.015625)"/>
      <path id="DejaVuSans-4f" d="M 2522 4238 
Q 1834 4238 1429 3725 
Q 1025 3213 1025 2328 
Q 1025 1447 1429 934 
Q 1834 422 2522 422 
Q 3209 422 3611 934 
Q 4013 1447 4013 2328 
Q 4013 3213 3611 3725 
Q 3209 4238 2522 4238 
z
M 2522 4750 
Q 3503 4750 4090 4092 
Q 4678 3434 4678 2328 
Q 4678 1225 4090 567 
Q 3503 -91 2522 -91 
Q 1538 -91 948 565 
Q 359 1222 359 2328 
Q 359 3434 948 4092 
Q 1538 4750 2522 4750 
z
" transform="scale(0.015625)"/>
      <path id="DejaVuSans-73" d="M 2834 3397 
L 2834 2853 
Q 2591 2978 2328 3040 
Q 2066 3103 1784 3103 
Q 1356 3103 1142 2972 
Q 928 2841 928 2578 
Q 928 2378 1081 2264 
Q 1234 2150 1697 2047 
L 1894 2003 
Q 2506 1872 2764 1633 
Q 3022 1394 3022 966 
Q 3022 478 2636 193 
Q 2250 -91 1575 -91 
Q 1294 -91 989 -36 
Q 684 19 347 128 
L 347 722 
Q 666 556 975 473 
Q 1284 391 1588 391 
Q 1994 391 2212 530 
Q 2431 669 2431 922 
Q 2431 1156 2273 1281 
Q 2116 1406 1581 1522 
L 1381 1569 
Q 847 1681 609 1914 
Q 372 2147 372 2553 
Q 372 3047 722 3315 
Q 1072 3584 1716 3584 
Q 2034 3584 2315 3537 
Q 2597 3491 2834 3397 
z
" transform="scale(0.015625)"/>
      <path id="DejaVuSans-74" d="M 1172 4494 
L 1172 3500 
L 2356 3500 
L 2356 3053 
L 1172 3053 
L 1172 1153 
Q 1172 725 1289 603 
Q 1406 481 1766 481 
L 2356 481 
L 2356 0 
L 1766 0 
Q 1100 0 847 248 
Q 594 497 594 1153 
L 594 3053 
L 172 3053 
L 172 3500 
L 594 3500 
L 594 4494 
L 1172 4494 
z
" transform="scale(0.015625)"/>
     </defs>
     <use xlink:href="#DejaVuSans-4b"/>
     <use xlink:href="#DejaVuSans-72" x="65.576172"/>
     <use xlink:href="#DejaVuSans-65" x="104.439453"/>
     <use xlink:href="#DejaVuSans-75" x="165.962891"/>
     <use xlink:href="#DejaVuSans-7a" x="229.341797"/>
     <use xlink:href="#DejaVuSans-62" x="281.832031"/>
     <use xlink:href="#DejaVuSans-65" x="345.308594"/>
     <use xlink:href="#DejaVuSans-72" x="406.832031"/>
     <use xlink:href="#DejaVuSans-67" x="446.195312"/>
     <use xlink:href="#DejaVuSans-5f" x="509.671875"/>
     <use xlink:href="#DejaVuSans-4f" x="559.671875"/>
     <use xlink:href="#DejaVuSans-73" x="638.382812"/>
     <use xlink:href="#DejaVuSans-74" x="690.482422"/>
    </g>
   </g>
  </g>
 </g>
 <defs>
  <clipPath id="p281a872628">
   <rect x="67.871151" y="41.472" width="336.577699" height="266.112"/>
  </clipPath>
 </defs>
</svg>
