<?xml version="1.0" encoding="utf-8" standalone="no"?>
<!DOCTYPE svg PUBLIC "-//W3C//DTD SVG 1.1//EN"
  "http://www.w3.org/Graphics/SVG/1.1/DTD/svg11.dtd">
<svg xmlns:xlink="http://www.w3.org/1999/xlink" width="460.8pt" height="345.6pt" viewBox="0 0 460.8 345.6" xmlns="http://www.w3.org/2000/svg" version="1.1">
 <metadata>
  <rdf:RDF xmlns:dc="http://purl.org/dc/elements/1.1/" xmlns:cc="http://creativecommons.org/ns#" xmlns:rdf="http://www.w3.org/1999/02/22-rdf-syntax-ns#">
   <cc:Work>
    <dc:type rdf:resource="http://purl.org/dc/dcmitype/StillImage"/>
    <dc:date>2024-10-15T09:53:27.189139</dc:date>
    <dc:format>image/svg+xml</dc:format>
    <dc:creator>
     <cc:Agent>
      <dc:title>Matplotlib v3.8.4, https://matplotlib.org/</dc:title>
     </cc:Agent>
    </dc:creator>
   </cc:Work>
  </rdf:RDF>
 </metadata>
 <defs>
  <style type="text/css">*{stroke-linejoin: round; stroke-linecap: butt}</style>
 </defs>
 <g id="figure_1">
  <g id="patch_1">
   <path d="M 0 345.6 
L 460.8 345.6 
L 460.8 0 
L 0 0 
z
" style="fill: #ffffff"/>
  </g>
  <g id="axes_1">
   <g id="patch_2">
    <path d="M 104.125528 307.584 
L 368.194472 307.584 
L 368.194472 41.472 
L 104.125528 41.472 
z
" style="fill: #ffffff"/>
   </g>
   <g id="PatchCollection_1">
    <path d="M 316.607676 187.276412 
L 316.610432 187.275405 
L 317.084901 187.068883 
L 316.813938 186.431652 
L 316.979011 186.307627 
L 318.990944 184.793221 
L 319.664355 184.286722 
L 320.326166 183.789144 
L 320.986809 183.479037 
L 321.327594 183.319303 
L 321.980802 183.012503 
L 324.089785 182.025567 
L 324.397064 181.87165 
L 325.11356 181.534277 
L 329.567702 179.436396 
L 329.652015 179.394954 
L 329.734912 179.35069 
L 329.816253 179.303702 
L 329.895994 179.25399 
L 329.973995 179.201604 
L 330.05021 179.14664 
L 330.124502 179.089099 
L 330.196825 179.029124 
L 330.267133 178.966715 
L 330.33529 178.902017 
L 330.401205 178.835123 
L 330.46483 178.766037 
L 330.526075 178.694852 
L 330.58494 178.621617 
L 330.641336 178.546473 
L 330.695076 178.469424 
L 330.746162 178.390565 
L 330.794645 178.310081 
L 330.840387 178.228021 
L 330.88334 178.144435 
L 332.127836 175.624932 
L 332.607419 174.768989 
L 332.852599 174.201424 
L 333.091439 173.648505 
L 333.359768 173.027274 
L 333.624995 172.413272 
L 333.990267 171.567643 
L 334.230576 171.01137 
L 334.471553 170.453632 
L 334.709954 169.901614 
L 334.950489 169.344869 
L 335.192488 168.784676 
L 335.433866 168.225901 
L 335.674047 167.66982 
L 335.914585 167.11303 
L 336.284443 166.256916 
L 336.47048 165.826215 
L 336.673017 165.357436 
L 336.764419 165.145887 
L 336.859545 164.925694 
L 336.950014 164.716226 
L 337.042613 164.501891 
L 337.131399 164.29639 
L 337.226479 164.076198 
L 337.317484 163.865641 
L 337.409195 163.653291 
L 337.503302 163.435413 
L 337.595061 163.223109 
L 337.685266 163.014255 
L 337.78004 162.794912 
L 337.870999 162.584357 
L 337.962491 162.372573 
L 338.053894 162.160979 
L 338.148137 161.942911 
L 338.285751 161.624316 
L 338.425363 161.301137 
L 338.517787 161.087227 
L 338.609945 160.873885 
L 338.702014 160.660732 
L 338.79373 160.448476 
L 338.88682 160.233008 
L 338.975699 160.027366 
L 339.069276 159.810717 
L 339.156424 159.608996 
L 339.320208 159.229838 
L 339.412715 159.015365 
L 339.504321 158.802317 
L 339.780466 158.16403 
L 339.872062 157.950514 
L 340.056162 157.524397 
L 340.148209 157.312228 
L 340.23977 157.099181 
L 340.51551 156.461372 
L 340.698663 156.036634 
L 340.790702 155.824044 
L 341.15707 154.975082 
L 341.43556 154.330709 
L 341.527132 154.118084 
L 341.71126 153.692903 
L 341.80287 153.479856 
L 342.079017 152.841104 
L 342.170628 152.628057 
L 342.262658 152.414953 
L 342.354746 152.202363 
L 342.469442 151.936868 
L 342.608247 151.614693 
L 342.740437 151.309064 
L 342.887155 150.969845 
L 343.026418 150.647239 
L 343.137421 150.389687 
L 343.22951 150.17705 
L 343.321087 149.964472 
L 343.412675 149.752361 
L 343.504308 149.540202 
L 343.596352 149.327613 
L 343.687929 149.115035 
L 343.735124 149.005907 
L 343.779092 148.904758 
L 344.014085 148.36106 
L 344.469314 147.308381 
L 344.524794 147.179606 
L 344.942903 147.360485 
L 345.032604 147.393913 
L 345.124009 147.422157 
L 345.216928 147.445127 
L 345.31094 147.462787 
L 345.405857 147.475 
L 345.501306 147.481821 
L 345.596957 147.483165 
L 345.692533 147.479037 
L 345.787753 147.469491 
L 345.882243 147.454488 
L 345.975726 147.434129 
L 346.067923 147.408466 
L 346.158509 147.3776 
L 346.232472 147.348374 
L 346.304957 147.315672 
L 346.375824 147.279546 
L 346.444892 147.240139 
L 346.512018 147.197454 
L 346.577068 147.151683 
L 347.39118 146.548433 
L 348.363451 145.820733 
L 349.017531 145.330759 
L 349.765577 144.771207 
L 350.345235 144.337604 
L 354.791794 141.009646 
L 354.701974 140.748918 
L 354.624487 140.524026 
L 355.326064 140.001141 
L 355.936444 139.546369 
L 356.191339 139.348632 
L 356.048154 138.949849 
L 355.998249 138.8163 
L 355.864442 138.446495 
L 355.747338 138.035007 
L 355.505998 137.189598 
L 355.198511 136.111088 
L 355.019984 135.485665 
L 354.960027 135.27455 
L 354.910561 135.141927 
L 354.558304 134.191714 
L 354.195182 133.213026 
L 353.923905 132.481313 
L 353.680443 131.824332 
L 353.423301 131.131876 
L 353.265507 130.706526 
L 353.142238 130.407261 
L 352.827451 129.642057 
L 352.163559 128.030422 
L 352.040764 127.731614 
L 351.854849 127.268028 
L 351.559288 126.532189 
L 350.368588 123.564235 
L 349.360045 120.941559 
L 348.572768 118.756737 
L 348.179811 117.398467 
L 347.460587 115.459336 
L 347.445642 115.597765 
L 346.326604 112.616937 
L 345.628557 110.736601 
L 345.066586 109.224237 
L 344.649183 108.087697 
L 343.8361 105.878169 
L 343.787633 105.76143 
L 343.731573 105.610154 
L 343.307599 104.464316 
L 343.257207 104.328442 
L 343.20767 104.180853 
L 342.392296 101.734307 
L 342.068194 100.348246 
L 342.056845 100.298263 
L 341.797047 99.4146 
L 341.822187 99.397191 
L 340.850118 96.58792 
L 339.937169 93.88224 
L 339.623943 92.931867 
L 339.241401 91.768586 
L 339.003238 91.060652 
L 338.861288 90.632428 
L 338.75579 90.355081 
L 338.492476 89.662173 
L 338.386974 89.384639 
L 338.291201 89.132848 
L 338.182522 88.846966 
L 337.878737 88.046683 
L 337.563634 87.216531 
L 337.254612 86.403643 
L 337.256324 86.36576 
L 336.90397 85.554417 
L 336.540272 84.70806 
L 336.16078 83.755639 
L 336.035096 83.450778 
L 335.729349 82.640718 
L 335.116475 81.017731 
L 334.937523 80.553627 
L 334.876288 80.394892 
L 334.007373 78.036926 
L 333.905598 77.759544 
L 333.650652 77.068509 
L 333.269042 76.044103 
L 332.414233 73.727221 
L 332.196926 73.109432 
L 332.062596 72.732356 
L 331.791496 71.971475 
L 331.237508 70.388983 
L 330.902731 69.427978 
L 330.642015 68.686931 
L 330.44494 68.126129 
L 330.235271 68.080133 
L 329.28379 65.49386 
L 329.357745 65.428141 
L 329.107027 64.743612 
L 327.924943 61.50501 
L 327.792057 61.140814 
L 327.75245 61.030614 
L 327.732665 60.96343 
L 327.279986 59.426306 
L 327.244997 59.307674 
L 327.098535 58.809812 
L 326.965518 58.933242 
L 326.467609 59.401298 
L 326.132344 59.716296 
L 325.782957 60.04462 
L 325.100583 60.670865 
L 323.117698 62.490708 
L 321.770749 63.476266 
L 321.746914 63.493695 
L 319.958555 64.620561 
L 319.845176 64.674877 
L 317.896713 65.608227 
L 316.979358 65.980594 
L 315.93631 66.341605 
L 315.067569 66.60112 
L 315.079452 66.408682 
L 313.301048 66.831633 
L 311.430199 67.083014 
L 309.835383 67.206356 
L 309.19516 67.22071 
L 308.601619 67.228764 
L 308.023289 67.269451 
L 307.278797 67.260085 
L 306.512952 67.21706 
L 305.665592 67.066902 
L 304.268818 66.726071 
L 304.095787 66.682022 
L 302.984161 66.399016 
L 302.000766 66.105417 
L 301.170795 65.849766 
L 301.162561 65.842843 
L 300.823667 65.649196 
L 300.632109 65.541813 
L 300.621997 65.745953 
L 300.090043 65.649986 
L 299.893491 65.614528 
L 299.672301 65.557034 
L 299.630289 65.544848 
L 299.54133 65.519093 
L 298.673494 65.26759 
L 297.837283 65.025286 
L 294.603724 64.011173 
L 293.372998 63.573056 
L 292.669847 63.370626 
L 289.605397 62.488377 
L 288.900501 62.285436 
L 288.563044 62.188325 
L 287.827184 61.941936 
L 287.826093 61.941553 
L 287.584677 61.856828 
L 287.471779 62.013969 
L 287.413543 62.095012 
L 286.701453 61.851078 
L 286.266407 61.702073 
L 286.015242 61.616049 
L 285.787256 61.467599 
L 286.013831 61.183517 
L 285.750753 61.091023 
L 285.737036 61.086172 
L 285.417159 60.973058 
L 285.088391 60.907001 
L 284.095061 60.560612 
L 283.717433 60.40544 
L 282.516832 59.920567 
L 282.24107 59.828882 
L 280.703113 59.31741 
L 280.315594 59.224031 
L 279.711992 59.078581 
L 279.399253 58.92553 
L 279.098057 58.744336 
L 278.416157 58.467831 
L 278.216586 58.400835 
L 278.017494 58.332283 
L 277.819019 58.262127 
L 277.670765 58.209859 
L 277.522641 58.15712 
L 277.374693 58.10391 
L 277.083597 57.997145 
L 276.793558 57.887644 
L 276.50453 57.775359 
L 276.50044 57.774143 
L 276.496304 57.772928 
L 276.492214 57.771665 
L 276.020637 57.630495 
L 275.869227 57.585177 
L 275.471808 57.559348 
L 275.292781 57.547689 
L 275.168074 57.518693 
L 273.400778 57.028249 
L 272.19592 56.710201 
L 271.863 56.622319 
L 271.217404 56.451893 
L 270.778675 56.367283 
L 270.623938 56.343984 
L 270.31882 56.297988 
L 270.057739 56.258654 
L 267.929211 56.051932 
L 267.56121 56.036715 
L 267.153627 56.019834 
L 265.05632 55.933112 
L 264.523448 55.866021 
L 264.205018 55.870814 
L 262.309344 55.671891 
L 261.249436 55.503161 
L 257.264761 55.000085 
L 257.140711 54.944935 
L 257.033641 54.897299 
L 257.004825 54.933514 
L 256.613798 54.801728 
L 256.225913 54.671003 
L 256.032294 54.674618 
L 255.853103 54.717008 
L 255.67805 54.770905 
L 255.322159 54.811609 
L 254.961531 54.828941 
L 254.229165 54.776198 
L 252.29551 54.672632 
L 252.268144 54.706896 
L 249.083981 54.371096 
L 247.809984 54.240341 
L 247.234327 54.052839 
L 247.222906 54.11457 
L 247.204382 54.102835 
L 247.092619 54.084736 
L 246.412119 54.046305 
L 246.286541 54.036524 
L 245.254374 53.921912 
L 242.162346 53.657105 
L 241.567684 53.617924 
L 240.990781 53.585632 
L 240.192313 53.568 
L 239.33122 53.606455 
L 239.204739 53.819273 
L 239.153467 53.780274 
L 239.087854 53.889053 
L 238.549815 53.573559 
L 237.526026 53.624479 
L 237.034168 53.640099 
L 236.876108 53.645108 
L 234.960355 53.776433 
L 234.923803 53.859749 
L 234.231927 53.90727 
L 234.197387 53.909659 
L 234.186575 53.894284 
L 233.497424 54.009434 
L 231.817873 54.24053 
L 231.026764 54.359916 
L 229.62036 54.648845 
L 229.571423 54.603853 
L 229.411967 54.690061 
L 229.336677 54.706912 
L 229.261487 54.724089 
L 229.186351 54.741545 
L 228.942829 54.798028 
L 228.699716 54.856093 
L 228.456968 54.91574 
L 228.381183 54.933445 
L 228.305501 54.951523 
L 228.229921 54.969972 
L 227.999568 55.024561 
L 227.76963 55.080965 
L 227.540202 55.139229 
L 227.31119 55.199307 
L 227.071305 55.267731 
L 226.831772 55.337222 
L 226.592497 55.407784 
L 226.457003 55.44984 
L 226.321614 55.492409 
L 226.186422 55.535441 
L 226.156156 55.544983 
L 226.168844 55.597176 
L 225.99369 55.658488 
L 225.559555 55.810373 
L 225.605525 55.951377 
L 225.370355 55.756561 
L 225.257477 55.880426 
L 225.032001 55.990572 
L 225.00347 56.004471 
L 224.94544 56.032853 
L 224.634834 56.184546 
L 223.799895 56.508226 
L 223.124458 56.770069 
L 222.101983 57.210977 
L 220.743069 57.863223 
L 219.150028 58.774024 
L 218.772933 58.977601 
L 217.837881 59.558429 
L 216.680908 60.29354 
L 216.959565 60.634785 
L 216.132295 61.139725 
L 216.084566 61.169321 
L 215.735599 61.397885 
L 215.258056 61.722472 
L 214.998483 61.898905 
L 214.777725 62.048956 
L 214.51847 62.244202 
L 214.281083 62.422979 
L 214.03816 62.605927 
L 213.792545 62.790902 
L 213.650058 62.887903 
L 213.516121 62.979083 
L 213.447465 63.025835 
L 213.213295 63.201963 
L 212.999975 63.36241 
L 212.75405 63.555497 
L 212.55603 63.710972 
L 212.310777 63.921118 
L 212.064415 64.132216 
L 211.616853 64.515713 
L 211.410269 64.695182 
L 210.933041 65.109719 
L 210.721725 65.30279 
L 210.459519 65.542356 
L 210.072076 65.912845 
L 209.837657 66.142495 
L 209.613379 66.362242 
L 209.412477 66.55904 
L 209.017258 66.953686 
L 208.631661 67.357588 
L 208.223499 67.791328 
L 207.776864 68.299777 
L 207.332166 68.806025 
L 206.937141 69.255727 
L 206.778931 69.435835 
L 206.60878 69.660245 
L 206.258981 70.12159 
L 205.555884 71.048893 
L 205.221574 71.489801 
L 204.971678 71.824116 
L 204.726934 72.165319 
L 204.404014 72.648662 
L 204.270036 72.853529 
L 204.085882 73.135122 
L 203.772494 73.624746 
L 203.48877 74.077745 
L 203.347556 74.307324 
L 203.196933 74.553137 
L 203.040397 74.812965 
L 202.909609 75.031175 
L 202.760712 75.283427 
L 202.615663 75.530951 
L 202.475168 75.774263 
L 202.331531 76.02492 
L 202.19201 76.271891 
L 202.119168 76.401955 
L 202.04814 76.52878 
L 201.917376 76.765489 
L 201.780171 77.016224 
L 201.644312 77.267556 
L 201.583667 77.380995 
L 201.510238 77.518347 
L 201.376701 77.769195 
L 201.237042 78.018954 
L 201.097261 78.252219 
L 201.003842 78.398939 
L 200.931702 78.493222 
L 200.75343 78.726218 
L 200.675073 78.828628 
L 200.61294 78.942958 
L 200.449961 79.242852 
L 200.345523 79.435027 
L 200.208381 79.687382 
L 200.059859 79.960676 
L 199.780848 80.474085 
L 199.519427 80.95513 
L 199.245114 81.459899 
L 198.954509 81.994649 
L 198.700017 82.46295 
L 198.439478 82.942379 
L 198.181525 83.417053 
L 197.881815 83.96857 
L 197.61441 84.460642 
L 197.339695 84.966169 
L 197.068611 85.465015 
L 196.813137 85.93514 
L 196.569098 86.384223 
L 196.271742 86.931424 
L 195.999399 87.432597 
L 195.745134 87.900505 
L 195.584025 88.196985 
L 195.436548 88.468379 
L 195.296635 88.725856 
L 195.202539 88.899016 
L 194.901833 89.452395 
L 194.774252 89.687179 
L 194.631487 89.949907 
L 194.504867 90.182922 
L 194.393226 90.388374 
L 194.237753 90.674489 
L 194.103178 90.922148 
L 193.961708 91.184946 
L 193.845781 91.400294 
L 193.673476 91.720372 
L 193.513889 92.016826 
L 193.426488 92.179186 
L 193.303759 92.407173 
L 193.148548 92.6955 
L 193.020197 92.933931 
L 192.874566 93.204463 
L 192.739904 93.45462 
L 192.595954 93.722032 
L 192.462643 93.969679 
L 192.320343 94.234026 
L 192.17377 94.506313 
L 192.049246 94.737638 
L 191.902291 95.010634 
L 191.782061 95.233986 
L 191.630547 95.515454 
L 191.48969 95.791833 
L 191.399371 96.00948 
L 191.263314 96.325478 
L 191.130052 96.639115 
L 190.987906 96.997747 
L 190.905878 97.203572 
L 190.874994 97.26866 
L 190.841371 97.332361 
L 190.70777 97.58073 
L 190.67506 97.641538 
L 190.515297 97.938546 
L 190.457758 98.031715 
L 190.405604 98.111652 
L 190.335856 98.21358 
L 190.135058 98.491544 
L 190.071954 98.598314 
L 189.962352 98.773327 
L 189.806466 99.022248 
L 189.629196 99.305317 
L 189.595088 99.356165 
L 189.442038 99.585868 
L 189.303416 99.793915 
L 189.125654 100.060706 
L 188.971703 100.29176 
L 188.813552 100.52912 
L 188.652998 100.770088 
L 188.505232 100.991861 
L 188.340579 101.23898 
L 188.207139 101.439255 
L 188.03131 101.700028 
L 187.868766 101.934467 
L 187.674268 102.214996 
L 187.524987 102.41812 
L 187.20348 102.845221 
L 186.987987 103.123968 
L 186.781231 103.398316 
L 186.598807 103.638578 
L 186.265425 104.070603 
L 185.908623 104.523768 
L 185.697393 104.788629 
L 185.530431 104.994159 
L 185.365356 105.197366 
L 185.150379 105.457127 
L 184.969641 105.674179 
L 184.78736 105.890367 
L 184.585722 106.127276 
L 184.389896 106.355339 
L 184.185897 106.58945 
L 184.000469 106.801414 
L 183.960603 106.845381 
L 183.774319 107.05675 
L 183.57629 107.281449 
L 183.487142 107.382602 
L 183.38163 107.504071 
L 183.205132 107.703465 
L 182.985227 107.951898 
L 182.606489 108.379771 
L 182.222365 108.813731 
L 182.03441 109.026073 
L 181.842228 109.24319 
L 181.646084 109.464783 
L 181.46213 109.672605 
L 181.304665 109.89271 
L 181.24315 109.978695 
L 181.298594 110.020578 
L 181.233294 110.15706 
L 181.16431 110.291711 
L 181.091594 110.42439 
L 180.935327 110.683453 
L 180.764986 110.933442 
L 180.664598 111.039668 
L 180.433109 111.352764 
L 180.335672 111.42548 
L 180.272902 111.494074 
L 180.238125 111.528695 
L 180.207028 111.559653 
L 180.138188 111.62212 
L 180.066516 111.681239 
L 179.992152 111.737005 
L 179.829156 111.879962 
L 179.60806 112.10015 
L 179.400882 112.341542 
L 179.370289 112.382814 
L 179.178736 112.598256 
L 178.991685 112.808634 
L 178.787126 113.038705 
L 178.605804 113.24264 
L 178.41101 113.461729 
L 178.37503 113.500134 
L 178.168186 113.701579 
L 178.132599 113.668589 
L 177.754132 114.109956 
L 177.374742 114.552401 
L 177.019775 114.966367 
L 176.620821 115.431634 
L 176.256219 115.856841 
L 175.892267 116.281291 
L 175.512587 116.724086 
L 175.143983 117.153966 
L 174.79 117.566797 
L 174.381073 118.043709 
L 174.026598 118.457118 
L 173.642292 118.904188 
L 173.269993 119.336656 
L 172.88154 119.787882 
L 172.535534 120.189806 
L 172.15109 120.636751 
L 171.764989 121.085994 
L 171.380212 121.5337 
L 170.994937 121.981987 
L 170.647622 122.387094 
L 170.285831 122.810347 
L 169.896595 123.265709 
L 169.549159 123.672172 
L 169.364833 123.887815 
L 169.196118 124.085194 
L 168.991 124.325163 
L 168.793319 124.556431 
L 168.600249 124.782306 
L 168.439586 124.970267 
L 168.244033 125.199042 
L 168.100932 125.366454 
L 167.877374 125.627993 
L 167.713531 125.819672 
L 167.530202 126.034148 
L 167.361226 126.231833 
L 167.165851 126.460403 
L 166.967648 126.692282 
L 166.829944 126.853383 
L 166.617913 127.101441 
L 166.432804 127.318002 
L 166.276663 127.500675 
L 166.058159 127.756307 
L 165.896309 127.945659 
L 165.701296 128.17381 
L 165.502054 128.406909 
L 165.347364 128.600221 
L 165.177789 128.825696 
L 165.157849 128.853024 
L 164.952826 129.147276 
L 164.79054 129.397609 
L 164.677562 129.602342 
L 164.508958 129.89367 
L 164.357992 130.143226 
L 164.194228 130.402781 
L 164.173395 130.432038 
L 164.257158 130.484057 
L 164.51198 130.637607 
L 164.684326 130.735222 
L 164.936982 130.869658 
L 165.139821 130.971377 
L 165.39216 131.090397 
L 164.996569 131.641248 
L 164.601595 132.191243 
L 163.422395 131.528738 
L 162.695516 132.513673 
L 162.432322 132.951144 
L 162.284229 133.15497 
L 162.04958 133.4709 
L 161.726258 133.906221 
L 161.557123 134.14628 
L 160.752416 135.605674 
L 160.188489 136.647506 
L 159.982814 137.087314 
L 159.409828 138.312576 
L 159.353243 138.433611 
L 159.406991 138.596967 
L 159.167964 139.117772 
L 157.035785 143.763578 
L 156.960967 143.785214 
L 156.887072 143.954924 
L 156.420308 144.968184 
L 155.403275 147.178963 
L 154.396502 149.395191 
L 153.365348 151.665027 
L 152.547847 153.464583 
L 151.592718 155.567137 
L 151.224521 156.377671 
L 151.200643 156.43025 
L 151.060171 156.739439 
L 151.082514 156.814883 
L 150.983064 157.052284 
L 150.843603 157.348819 
L 150.757577 157.539593 
L 150.67393 157.598582 
L 150.64428 157.66374 
L 150.384928 158.233921 
L 149.450384 160.288525 
L 149.198984 160.841221 
L 148.616092 162.122702 
L 147.176087 165.288755 
L 146.031425 167.805395 
L 145.332264 169.342613 
L 144.626176 170.895152 
L 144.168837 171.900726 
L 143.982221 172.311065 
L 143.363353 173.316918 
L 142.063391 176.17134 
L 141.05988 178.374875 
L 140.618076 179.345013 
L 140.406405 179.809817 
L 139.485947 181.831049 
L 139.153648 182.560754 
L 138.896099 183.126317 
L 138.330259 184.36888 
L 138.084596 185.349216 
L 137.998844 185.691546 
L 137.873634 186.191392 
L 137.82435 186.342293 
L 137.770832 186.491749 
L 137.713079 186.639669 
L 137.651178 186.785814 
L 137.58513 186.930187 
L 137.51507 187.072595 
L 137.469536 187.164466 
L 137.356097 187.407115 
L 137.226745 187.669702 
L 137.180647 187.763283 
L 136.993595 188.124029 
L 136.871322 188.326085 
L 136.839383 188.378865 
L 136.770871 188.489664 
L 136.692513 188.616387 
L 136.630141 188.715473 
L 136.523713 188.883984 
L 136.406783 189.031285 
L 136.291398 189.219554 
L 136.001459 189.686773 
L 135.700801 190.157461 
L 135.368868 190.661955 
L 135.059823 191.117878 
L 134.70681 191.624165 
L 134.405245 192.043863 
L 134.098555 192.459846 
L 133.786878 192.872017 
L 133.470118 193.280333 
L 133.005337 193.860211 
L 132.667789 194.269416 
L 132.154196 194.873865 
L 131.813175 195.262032 
L 131.467435 195.645959 
L 130.931453 196.221911 
L 130.762082 196.400998 
L 130.402559 196.771967 
L 130.115321 197.061894 
L 129.825314 197.34908 
L 129.532534 197.633385 
L 128.93889 198.193486 
L 128.730246 198.38468 
L 128.638025 198.469188 
L 128.420407 198.664773 
L 128.236705 198.827389 
L 128.088503 198.956818 
L 127.915696 199.103941 
L 127.697668 199.286454 
L 127.438857 199.498027 
L 127.224151 199.669377 
L 126.961467 199.874018 
L 126.659976 200.102323 
L 126.557339 200.179074 
L 126.513795 200.212333 
L 126.284742 200.385485 
L 126.05322 200.559011 
L 125.818376 200.732257 
L 125.573354 200.909738 
L 125.366487 201.052229 
L 125.142559 201.217395 
L 124.897954 201.386716 
L 124.665602 201.545852 
L 124.426894 201.69891 
L 124.194542 201.858047 
L 123.966183 202.010861 
L 123.721413 202.170291 
L 123.232331 202.471414 
L 122.942821 202.654742 
L 122.446151 202.945483 
L 121.952009 203.23357 
L 121.495569 203.496678 
L 120.948081 203.816913 
L 119.710031 204.537594 
L 119.451782 204.681079 
L 119.32425 204.761956 
L 119.221998 204.872085 
L 118.27134 205.367492 
L 118.730899 206.276205 
L 118.799413 206.368473 
L 118.882326 206.551339 
L 119.144887 207.170123 
L 119.146866 207.174786 
L 119.210876 207.325588 
L 119.263178 207.448738 
L 119.805365 208.749308 
L 119.817052 210.398332 
L 119.382395 212.531869 
L 118.63845 214.134331 
L 117.457245 214.91586 
L 116.479192 215.251416 
L 116.128661 215.371691 
L 116.728978 216.265489 
L 117.092253 216.806468 
L 117.14689 217.032945 
L 117.205594 217.126801 
L 117.725423 217.959024 
L 118.245005 218.790786 
L 119.334231 220.534388 
L 119.83029 221.328537 
L 120.325815 222.121952 
L 120.370558 222.193544 
L 120.823081 222.918087 
L 121.273808 223.639773 
L 121.318186 223.705807 
L 121.840155 224.483444 
L 122.36285 225.262328 
L 122.885255 226.04094 
L 123.908876 227.566436 
L 124.097244 227.846127 
L 124.123323 227.885929 
L 124.351548 228.226008 
L 124.354753 228.230372 
L 124.657614 228.642746 
L 124.737467 228.751447 
L 124.782721 228.813157 
L 124.960435 229.08033 
L 124.977561 229.106357 
L 127.532885 232.966083 
L 132.501209 240.49367 
L 132.551806 240.57654 
L 132.581519 240.62421 
L 132.831409 240.970195 
L 132.863505 241.01009 
L 133.246457 241.567985 
L 133.866407 242.471329 
L 134.300072 243.103392 
L 134.457674 243.343306 
L 135.255578 244.495631 
L 135.65027 245.07131 
L 135.729669 245.186997 
L 135.941203 245.495062 
L 136.002249 245.584002 
L 136.095602 245.719896 
L 136.319502 246.046148 
L 136.412424 246.181585 
L 137.186752 247.310053 
L 137.416735 247.645191 
L 138.089767 248.621582 
L 138.097209 248.63661 
L 138.439754 249.135354 
L 138.704903 249.522245 
L 138.96868 249.906316 
L 139.214108 250.263828 
L 139.854158 251.20091 
L 139.963545 251.356403 
L 140.075334 251.518857 
L 140.314576 251.867299 
L 141.05366 252.944498 
L 141.241471 253.240075 
L 141.720372 253.993041 
L 142.239687 254.810736 
L 142.597426 255.373544 
L 142.875355 255.810848 
L 143.657075 257.040769 
L 143.908759 257.437059 
L 144.115358 257.762462 
L 144.327518 258.096296 
L 145.668498 260.205861 
L 145.668876 260.206456 
L 145.8622 260.516923 
L 146.403994 261.377651 
L 147.399003 262.937838 
L 147.504612 263.109796 
L 148.213963 264.217047 
L 148.395913 264.50416 
L 149.063244 265.548172 
L 150.172536 267.289997 
L 150.292694 267.477894 
L 150.761665 268.211699 
L 150.902533 268.425634 
L 151.956276 270.071817 
L 151.957267 270.073366 
L 153.499809 272.457979 
L 155.29538 275.371586 
L 155.537608 275.800108 
L 155.988461 276.552452 
L 157.001079 278.327406 
L 157.336814 278.915826 
L 157.583171 279.347761 
L 158.111134 280.273256 
L 158.548552 281.040188 
L 159.02044 281.867454 
L 159.220401 282.2181 
L 159.492802 282.69513 
L 159.660997 282.953665 
L 159.982995 283.459565 
L 160.016273 283.512628 
L 160.478741 284.23229 
L 160.565475 284.369659 
L 160.940064 284.958998 
L 161.068629 285.1562 
L 161.571793 285.941337 
L 162.247231 286.998343 
L 162.67384 287.660844 
L 162.753653 287.789535 
L 163.249117 288.528919 
L 163.657318 289.138244 
L 164.853924 291.066334 
L 165.517696 292.236501 
L 167.092686 294.999872 
L 167.311073 295.488 
L 169.998156 292.090279 
L 172.853564 288.482824 
L 173.310184 288.100714 
L 173.888423 287.611489 
L 174.11013 287.462317 
L 174.52008 287.187023 
L 175.031367 286.843026 
L 175.565019 286.483959 
L 176.151581 286.089601 
L 180.73354 283.162618 
L 183.518724 281.268269 
L 186.274714 279.406305 
L 187.289547 278.739457 
L 187.724212 278.349983 
L 188.29933 277.98329 
L 189.312388 277.337965 
L 191.347834 276.141183 
L 191.97184 275.774342 
L 194.525107 274.324793 
L 195.170086 273.958828 
L 198.336726 271.922269 
L 201.335262 270.032388 
L 203.937628 268.375133 
L 204.910735 267.755319 
L 207.508567 266.119682 
L 208.110301 265.743532 
L 210.676106 264.138988 
L 212.289693 263.132155 
L 214.492388 261.756323 
L 215.018424 261.456282 
L 215.037999 261.445489 
L 215.487471 261.188952 
L 215.583554 261.134143 
L 215.630056 261.107756 
L 215.848211 260.978308 
L 221.033306 257.893414 
L 224.999332 255.479902 
L 226.504298 254.565737 
L 226.992151 254.26918 
L 230.558767 252.092596 
L 230.903879 251.882665 
L 233.191099 250.477226 
L 233.786815 250.109658 
L 234.304965 249.782899 
L 234.824861 249.458954 
L 235.346503 249.13787 
L 235.869935 248.819553 
L 236.394977 248.504194 
L 239.510731 246.632087 
L 241.727217 245.345317 
L 242.206277 245.050166 
L 242.376056 244.945717 
L 245.311715 243.137118 
L 248.569655 241.10421 
L 251.338835 239.369182 
L 252.465282 238.663427 
L 257.173059 235.594808 
L 260.864344 233.198497 
L 261.543096 232.76173 
L 262.524725 232.130087 
L 262.967903 231.834261 
L 263.425696 231.581839 
L 263.597306 231.487235 
L 264.038054 231.244187 
L 264.841555 230.801053 
L 265.6916 230.330656 
L 266.565414 229.848863 
L 266.448826 229.84649 
L 265.703193 229.831678 
L 265.261103 229.820321 
L 265.300872 229.579511 
L 265.335356 229.370704 
L 265.35395 229.239248 
L 265.524116 228.158996 
L 265.647872 227.374893 
L 265.680657 227.166253 
L 265.710848 226.540076 
L 265.725111 226.259962 
L 265.735559 226.070079 
L 265.758482 225.607562 
L 265.7749 225.278842 
L 265.760348 224.656546 
L 265.749577 224.173145 
L 265.738398 223.69022 
L 265.722671 223.016541 
L 265.734923 222.683146 
L 265.766907 221.806799 
L 265.773248 221.635208 
L 265.637573 220.806266 
L 265.626565 220.739017 
L 265.089119 218.761481 
L 264.645342 217.12866 
L 266.050915 216.208157 
L 267.612732 215.185087 
L 268.154148 214.831816 
L 268.386781 214.679398 
L 268.693924 214.478162 
L 269.212282 214.138521 
L 270.309953 213.419343 
L 271.912287 212.36899 
L 271.95927 212.338441 
L 272.506292 211.982852 
L 272.999181 211.642962 
L 273.304626 211.467126 
L 273.455972 211.509964 
L 273.607492 211.552283 
L 273.759141 211.594085 
L 273.911336 211.635313 
L 274.063659 211.676024 
L 274.216157 211.716216 
L 274.453275 211.778418 
L 274.899648 210.491808 
L 274.958278 210.45842 
L 276.120601 209.796495 
L 276.263876 209.714572 
L 277.113526 209.230662 
L 277.425743 209.063003 
L 278.103325 208.699382 
L 278.780864 208.33581 
L 279.451902 207.975525 
L 280.790248 207.256868 
L 280.809348 207.247449 
L 282.042067 206.585766 
L 282.352004 206.418119 
L 282.6648 206.261212 
L 283.875813 205.653879 
L 284.118036 205.532459 
L 284.807155 205.186932 
L 284.874619 205.15208 
L 285.586779 204.806167 
L 286.706659 204.259035 
L 287.329001 203.959765 
L 288.563429 203.365439 
L 288.879009 203.213671 
L 289.187138 203.056319 
L 289.65626 202.820297 
L 290.031883 202.631371 
L 290.256712 202.518261 
L 290.403696 202.424662 
L 290.760523 202.197012 
L 291.118236 201.969343 
L 291.477365 201.740285 
L 291.835582 201.512137 
L 291.868601 201.490987 
L 292.192806 201.275125 
L 293.247819 200.572144 
L 293.379455 200.484652 
L 294.433964 199.785851 
L 294.584701 199.695069 
L 295.283806 199.222948 
L 295.608183 199.043107 
L 295.703541 198.985261 
L 296.0069 198.811529 
L 296.012541 198.808299 
L 296.319188 198.634571 
L 296.414112 198.578138 
L 298.722255 197.274726 
L 299.022302 197.081413 
L 299.440838 196.903544 
L 302.708295 195.353447 
L 303.023396 195.196096 
L 303.331509 195.02894 
L 304.10547 194.607578 
L 304.225984 194.54163 
L 305.898702 193.529206 
L 307.783709 192.408854 
L 310.806098 190.60788 
L 312.099968 189.836861 
L 315.701627 187.69072 
L 316.034852 187.496346 
L 316.083709 187.467681 
L 316.199218 187.425617 
L 316.2821 187.395382 
L 316.607676 187.276412 
" clip-path="url(#p21a0fa4fb2)" style="fill: #1f77b4"/>
   </g>
   <g id="matplotlib.axis_1">
    <g id="xtick_1">
     <g id="line2d_1">
      <defs>
       <path id="mf1975e903b" d="M 0 0 
L 0 3.5 
" style="stroke: #000000; stroke-width: 0.8"/>
      </defs>
      <g>
       <use xlink:href="#mf1975e903b" x="129.03312" y="307.584" style="stroke: #000000; stroke-width: 0.8"/>
      </g>
     </g>
     <g id="text_1">
      <!-- 13.30 -->
      <g transform="translate(114.719057 322.182437) scale(0.1 -0.1)">
       <defs>
        <path id="DejaVuSans-31" d="M 794 531 
L 1825 531 
L 1825 4091 
L 703 3866 
L 703 4441 
L 1819 4666 
L 2450 4666 
L 2450 531 
L 3481 531 
L 3481 0 
L 794 0 
L 794 531 
z
" transform="scale(0.015625)"/>
        <path id="DejaVuSans-33" d="M 2597 2516 
Q 3050 2419 3304 2112 
Q 3559 1806 3559 1356 
Q 3559 666 3084 287 
Q 2609 -91 1734 -91 
Q 1441 -91 1130 -33 
Q 819 25 488 141 
L 488 750 
Q 750 597 1062 519 
Q 1375 441 1716 441 
Q 2309 441 2620 675 
Q 2931 909 2931 1356 
Q 2931 1769 2642 2001 
Q 2353 2234 1838 2234 
L 1294 2234 
L 1294 2753 
L 1863 2753 
Q 2328 2753 2575 2939 
Q 2822 3125 2822 3475 
Q 2822 3834 2567 4026 
Q 2313 4219 1838 4219 
Q 1578 4219 1281 4162 
Q 984 4106 628 3988 
L 628 4550 
Q 988 4650 1302 4700 
Q 1616 4750 1894 4750 
Q 2613 4750 3031 4423 
Q 3450 4097 3450 3541 
Q 3450 3153 3228 2886 
Q 3006 2619 2597 2516 
z
" transform="scale(0.015625)"/>
        <path id="DejaVuSans-2e" d="M 684 794 
L 1344 794 
L 1344 0 
L 684 0 
L 684 794 
z
" transform="scale(0.015625)"/>
        <path id="DejaVuSans-30" d="M 2034 4250 
Q 1547 4250 1301 3770 
Q 1056 3291 1056 2328 
Q 1056 1369 1301 889 
Q 1547 409 2034 409 
Q 2525 409 2770 889 
Q 3016 1369 3016 2328 
Q 3016 3291 2770 3770 
Q 2525 4250 2034 4250 
z
M 2034 4750 
Q 2819 4750 3233 4129 
Q 3647 3509 3647 2328 
Q 3647 1150 3233 529 
Q 2819 -91 2034 -91 
Q 1250 -91 836 529 
Q 422 1150 422 2328 
Q 422 3509 836 4129 
Q 1250 4750 2034 4750 
z
" transform="scale(0.015625)"/>
       </defs>
       <use xlink:href="#DejaVuSans-31"/>
       <use xlink:href="#DejaVuSans-33" x="63.623047"/>
       <use xlink:href="#DejaVuSans-2e" x="127.246094"/>
       <use xlink:href="#DejaVuSans-33" x="159.033203"/>
       <use xlink:href="#DejaVuSans-30" x="222.65625"/>
      </g>
     </g>
    </g>
    <g id="xtick_2">
     <g id="line2d_2">
      <g>
       <use xlink:href="#mf1975e903b" x="192.489206" y="307.584" style="stroke: #000000; stroke-width: 0.8"/>
      </g>
     </g>
     <g id="text_2">
      <!-- 13.32 -->
      <g transform="translate(178.175144 322.182437) scale(0.1 -0.1)">
       <defs>
        <path id="DejaVuSans-32" d="M 1228 531 
L 3431 531 
L 3431 0 
L 469 0 
L 469 531 
Q 828 903 1448 1529 
Q 2069 2156 2228 2338 
Q 2531 2678 2651 2914 
Q 2772 3150 2772 3378 
Q 2772 3750 2511 3984 
Q 2250 4219 1831 4219 
Q 1534 4219 1204 4116 
Q 875 4013 500 3803 
L 500 4441 
Q 881 4594 1212 4672 
Q 1544 4750 1819 4750 
Q 2544 4750 2975 4387 
Q 3406 4025 3406 3419 
Q 3406 3131 3298 2873 
Q 3191 2616 2906 2266 
Q 2828 2175 2409 1742 
Q 1991 1309 1228 531 
z
" transform="scale(0.015625)"/>
       </defs>
       <use xlink:href="#DejaVuSans-31"/>
       <use xlink:href="#DejaVuSans-33" x="63.623047"/>
       <use xlink:href="#DejaVuSans-2e" x="127.246094"/>
       <use xlink:href="#DejaVuSans-33" x="159.033203"/>
       <use xlink:href="#DejaVuSans-32" x="222.65625"/>
      </g>
     </g>
    </g>
    <g id="xtick_3">
     <g id="line2d_3">
      <g>
       <use xlink:href="#mf1975e903b" x="255.945293" y="307.584" style="stroke: #000000; stroke-width: 0.8"/>
      </g>
     </g>
     <g id="text_3">
      <!-- 13.34 -->
      <g transform="translate(241.631231 322.182437) scale(0.1 -0.1)">
       <defs>
        <path id="DejaVuSans-34" d="M 2419 4116 
L 825 1625 
L 2419 1625 
L 2419 4116 
z
M 2253 4666 
L 3047 4666 
L 3047 1625 
L 3713 1625 
L 3713 1100 
L 3047 1100 
L 3047 0 
L 2419 0 
L 2419 1100 
L 313 1100 
L 313 1709 
L 2253 4666 
z
" transform="scale(0.015625)"/>
       </defs>
       <use xlink:href="#DejaVuSans-31"/>
       <use xlink:href="#DejaVuSans-33" x="63.623047"/>
       <use xlink:href="#DejaVuSans-2e" x="127.246094"/>
       <use xlink:href="#DejaVuSans-33" x="159.033203"/>
       <use xlink:href="#DejaVuSans-34" x="222.65625"/>
      </g>
     </g>
    </g>
    <g id="xtick_4">
     <g id="line2d_4">
      <g>
       <use xlink:href="#mf1975e903b" x="319.40138" y="307.584" style="stroke: #000000; stroke-width: 0.8"/>
      </g>
     </g>
     <g id="text_4">
      <!-- 13.36 -->
      <g transform="translate(305.087317 322.182437) scale(0.1 -0.1)">
       <defs>
        <path id="DejaVuSans-36" d="M 2113 2584 
Q 1688 2584 1439 2293 
Q 1191 2003 1191 1497 
Q 1191 994 1439 701 
Q 1688 409 2113 409 
Q 2538 409 2786 701 
Q 3034 994 3034 1497 
Q 3034 2003 2786 2293 
Q 2538 2584 2113 2584 
z
M 3366 4563 
L 3366 3988 
Q 3128 4100 2886 4159 
Q 2644 4219 2406 4219 
Q 1781 4219 1451 3797 
Q 1122 3375 1075 2522 
Q 1259 2794 1537 2939 
Q 1816 3084 2150 3084 
Q 2853 3084 3261 2657 
Q 3669 2231 3669 1497 
Q 3669 778 3244 343 
Q 2819 -91 2113 -91 
Q 1303 -91 875 529 
Q 447 1150 447 2328 
Q 447 3434 972 4092 
Q 1497 4750 2381 4750 
Q 2619 4750 2861 4703 
Q 3103 4656 3366 4563 
z
" transform="scale(0.015625)"/>
       </defs>
       <use xlink:href="#DejaVuSans-31"/>
       <use xlink:href="#DejaVuSans-33" x="63.623047"/>
       <use xlink:href="#DejaVuSans-2e" x="127.246094"/>
       <use xlink:href="#DejaVuSans-33" x="159.033203"/>
       <use xlink:href="#DejaVuSans-36" x="222.65625"/>
      </g>
     </g>
    </g>
   </g>
   <g id="matplotlib.axis_2">
    <g id="ytick_1">
     <g id="line2d_5">
      <defs>
       <path id="mdd014acc95" d="M 0 0 
L -3.5 0 
" style="stroke: #000000; stroke-width: 0.8"/>
      </defs>
      <g>
       <use xlink:href="#mdd014acc95" x="104.125528" y="290.833483" style="stroke: #000000; stroke-width: 0.8"/>
      </g>
     </g>
     <g id="text_5">
      <!-- 52.40 -->
      <g transform="translate(68.497403 294.632701) scale(0.1 -0.1)">
       <defs>
        <path id="DejaVuSans-35" d="M 691 4666 
L 3169 4666 
L 3169 4134 
L 1269 4134 
L 1269 2991 
Q 1406 3038 1543 3061 
Q 1681 3084 1819 3084 
Q 2600 3084 3056 2656 
Q 3513 2228 3513 1497 
Q 3513 744 3044 326 
Q 2575 -91 1722 -91 
Q 1428 -91 1123 -41 
Q 819 9 494 109 
L 494 744 
Q 775 591 1075 516 
Q 1375 441 1709 441 
Q 2250 441 2565 725 
Q 2881 1009 2881 1497 
Q 2881 1984 2565 2268 
Q 2250 2553 1709 2553 
Q 1456 2553 1204 2497 
Q 953 2441 691 2322 
L 691 4666 
z
" transform="scale(0.015625)"/>
       </defs>
       <use xlink:href="#DejaVuSans-35"/>
       <use xlink:href="#DejaVuSans-32" x="63.623047"/>
       <use xlink:href="#DejaVuSans-2e" x="127.246094"/>
       <use xlink:href="#DejaVuSans-34" x="159.033203"/>
       <use xlink:href="#DejaVuSans-30" x="222.65625"/>
      </g>
     </g>
    </g>
    <g id="ytick_2">
     <g id="line2d_6">
      <g>
       <use xlink:href="#mdd014acc95" x="104.125528" y="238.806309" style="stroke: #000000; stroke-width: 0.8"/>
      </g>
     </g>
     <g id="text_6">
      <!-- 52.41 -->
      <g transform="translate(68.497403 242.605527) scale(0.1 -0.1)">
       <use xlink:href="#DejaVuSans-35"/>
       <use xlink:href="#DejaVuSans-32" x="63.623047"/>
       <use xlink:href="#DejaVuSans-2e" x="127.246094"/>
       <use xlink:href="#DejaVuSans-34" x="159.033203"/>
       <use xlink:href="#DejaVuSans-31" x="222.65625"/>
      </g>
     </g>
    </g>
    <g id="ytick_3">
     <g id="line2d_7">
      <g>
       <use xlink:href="#mdd014acc95" x="104.125528" y="186.779135" style="stroke: #000000; stroke-width: 0.8"/>
      </g>
     </g>
     <g id="text_7">
      <!-- 52.42 -->
      <g transform="translate(68.497403 190.578354) scale(0.1 -0.1)">
       <use xlink:href="#DejaVuSans-35"/>
       <use xlink:href="#DejaVuSans-32" x="63.623047"/>
       <use xlink:href="#DejaVuSans-2e" x="127.246094"/>
       <use xlink:href="#DejaVuSans-34" x="159.033203"/>
       <use xlink:href="#DejaVuSans-32" x="222.65625"/>
      </g>
     </g>
    </g>
    <g id="ytick_4">
     <g id="line2d_8">
      <g>
       <use xlink:href="#mdd014acc95" x="104.125528" y="134.751961" style="stroke: #000000; stroke-width: 0.8"/>
      </g>
     </g>
     <g id="text_8">
      <!-- 52.43 -->
      <g transform="translate(68.497403 138.55118) scale(0.1 -0.1)">
       <use xlink:href="#DejaVuSans-35"/>
       <use xlink:href="#DejaVuSans-32" x="63.623047"/>
       <use xlink:href="#DejaVuSans-2e" x="127.246094"/>
       <use xlink:href="#DejaVuSans-34" x="159.033203"/>
       <use xlink:href="#DejaVuSans-33" x="222.65625"/>
      </g>
     </g>
    </g>
    <g id="ytick_5">
     <g id="line2d_9">
      <g>
       <use xlink:href="#mdd014acc95" x="104.125528" y="82.724787" style="stroke: #000000; stroke-width: 0.8"/>
      </g>
     </g>
     <g id="text_9">
      <!-- 52.44 -->
      <g transform="translate(68.497403 86.524006) scale(0.1 -0.1)">
       <use xlink:href="#DejaVuSans-35"/>
       <use xlink:href="#DejaVuSans-32" x="63.623047"/>
       <use xlink:href="#DejaVuSans-2e" x="127.246094"/>
       <use xlink:href="#DejaVuSans-34" x="159.033203"/>
       <use xlink:href="#DejaVuSans-34" x="222.65625"/>
      </g>
     </g>
    </g>
   </g>
   <g id="patch_3">
    <path d="M 104.125528 307.584 
L 104.125528 41.472 
" style="fill: none; stroke: #000000; stroke-width: 0.8; stroke-linejoin: miter; stroke-linecap: square"/>
   </g>
   <g id="patch_4">
    <path d="M 368.194472 307.584 
L 368.194472 41.472 
" style="fill: none; stroke: #000000; stroke-width: 0.8; stroke-linejoin: miter; stroke-linecap: square"/>
   </g>
   <g id="patch_5">
    <path d="M 104.125528 307.584 
L 368.194472 307.584 
" style="fill: none; stroke: #000000; stroke-width: 0.8; stroke-linejoin: miter; stroke-linecap: square"/>
   </g>
   <g id="patch_6">
    <path d="M 104.125528 41.472 
L 368.194472 41.472 
" style="fill: none; stroke: #000000; stroke-width: 0.8; stroke-linejoin: miter; stroke-linecap: square"/>
   </g>
   <g id="text_10">
    <!-- Lankwitz_Lichterfelde_Ost -->
    <g transform="translate(156.601517 164.470669) scale(0.12 -0.12)">
     <defs>
      <path id="DejaVuSans-4c" d="M 628 4666 
L 1259 4666 
L 1259 531 
L 3531 531 
L 3531 0 
L 628 0 
L 628 4666 
z
" transform="scale(0.015625)"/>
      <path id="DejaVuSans-61" d="M 2194 1759 
Q 1497 1759 1228 1600 
Q 959 1441 959 1056 
Q 959 750 1161 570 
Q 1363 391 1709 391 
Q 2188 391 2477 730 
Q 2766 1069 2766 1631 
L 2766 1759 
L 2194 1759 
z
M 3341 1997 
L 3341 0 
L 2766 0 
L 2766 531 
Q 2569 213 2275 61 
Q 1981 -91 1556 -91 
Q 1019 -91 701 211 
Q 384 513 384 1019 
Q 384 1609 779 1909 
Q 1175 2209 1959 2209 
L 2766 2209 
L 2766 2266 
Q 2766 2663 2505 2880 
Q 2244 3097 1772 3097 
Q 1472 3097 1187 3025 
Q 903 2953 641 2809 
L 641 3341 
Q 956 3463 1253 3523 
Q 1550 3584 1831 3584 
Q 2591 3584 2966 3190 
Q 3341 2797 3341 1997 
z
" transform="scale(0.015625)"/>
      <path id="DejaVuSans-6e" d="M 3513 2113 
L 3513 0 
L 2938 0 
L 2938 2094 
Q 2938 2591 2744 2837 
Q 2550 3084 2163 3084 
Q 1697 3084 1428 2787 
Q 1159 2491 1159 1978 
L 1159 0 
L 581 0 
L 581 3500 
L 1159 3500 
L 1159 2956 
Q 1366 3272 1645 3428 
Q 1925 3584 2291 3584 
Q 2894 3584 3203 3211 
Q 3513 2838 3513 2113 
z
" transform="scale(0.015625)"/>
      <path id="DejaVuSans-6b" d="M 581 4863 
L 1159 4863 
L 1159 1991 
L 2875 3500 
L 3609 3500 
L 1753 1863 
L 3688 0 
L 2938 0 
L 1159 1709 
L 1159 0 
L 581 0 
L 581 4863 
z
" transform="scale(0.015625)"/>
      <path id="DejaVuSans-77" d="M 269 3500 
L 844 3500 
L 1563 769 
L 2278 3500 
L 2956 3500 
L 3675 769 
L 4391 3500 
L 4966 3500 
L 4050 0 
L 3372 0 
L 2619 2869 
L 1863 0 
L 1184 0 
L 269 3500 
z
" transform="scale(0.015625)"/>
      <path id="DejaVuSans-69" d="M 603 3500 
L 1178 3500 
L 1178 0 
L 603 0 
L 603 3500 
z
M 603 4863 
L 1178 4863 
L 1178 4134 
L 603 4134 
L 603 4863 
z
" transform="scale(0.015625)"/>
      <path id="DejaVuSans-74" d="M 1172 4494 
L 1172 3500 
L 2356 3500 
L 2356 3053 
L 1172 3053 
L 1172 1153 
Q 1172 725 1289 603 
Q 1406 481 1766 481 
L 2356 481 
L 2356 0 
L 1766 0 
Q 1100 0 847 248 
Q 594 497 594 1153 
L 594 3053 
L 172 3053 
L 172 3500 
L 594 3500 
L 594 4494 
L 1172 4494 
z
" transform="scale(0.015625)"/>
      <path id="DejaVuSans-7a" d="M 353 3500 
L 3084 3500 
L 3084 2975 
L 922 459 
L 3084 459 
L 3084 0 
L 275 0 
L 275 525 
L 2438 3041 
L 353 3041 
L 353 3500 
z
" transform="scale(0.015625)"/>
      <path id="DejaVuSans-5f" d="M 3263 -1063 
L 3263 -1509 
L -63 -1509 
L -63 -1063 
L 3263 -1063 
z
" transform="scale(0.015625)"/>
      <path id="DejaVuSans-63" d="M 3122 3366 
L 3122 2828 
Q 2878 2963 2633 3030 
Q 2388 3097 2138 3097 
Q 1578 3097 1268 2742 
Q 959 2388 959 1747 
Q 959 1106 1268 751 
Q 1578 397 2138 397 
Q 2388 397 2633 464 
Q 2878 531 3122 666 
L 3122 134 
Q 2881 22 2623 -34 
Q 2366 -91 2075 -91 
Q 1284 -91 818 406 
Q 353 903 353 1747 
Q 353 2603 823 3093 
Q 1294 3584 2113 3584 
Q 2378 3584 2631 3529 
Q 2884 3475 3122 3366 
z
" transform="scale(0.015625)"/>
      <path id="DejaVuSans-68" d="M 3513 2113 
L 3513 0 
L 2938 0 
L 2938 2094 
Q 2938 2591 2744 2837 
Q 2550 3084 2163 3084 
Q 1697 3084 1428 2787 
Q 1159 2491 1159 1978 
L 1159 0 
L 581 0 
L 581 4863 
L 1159 4863 
L 1159 2956 
Q 1366 3272 1645 3428 
Q 1925 3584 2291 3584 
Q 2894 3584 3203 3211 
Q 3513 2838 3513 2113 
z
" transform="scale(0.015625)"/>
      <path id="DejaVuSans-65" d="M 3597 1894 
L 3597 1613 
L 953 1613 
Q 991 1019 1311 708 
Q 1631 397 2203 397 
Q 2534 397 2845 478 
Q 3156 559 3463 722 
L 3463 178 
Q 3153 47 2828 -22 
Q 2503 -91 2169 -91 
Q 1331 -91 842 396 
Q 353 884 353 1716 
Q 353 2575 817 3079 
Q 1281 3584 2069 3584 
Q 2775 3584 3186 3129 
Q 3597 2675 3597 1894 
z
M 3022 2063 
Q 3016 2534 2758 2815 
Q 2500 3097 2075 3097 
Q 1594 3097 1305 2825 
Q 1016 2553 972 2059 
L 3022 2063 
z
" transform="scale(0.015625)"/>
      <path id="DejaVuSans-72" d="M 2631 2963 
Q 2534 3019 2420 3045 
Q 2306 3072 2169 3072 
Q 1681 3072 1420 2755 
Q 1159 2438 1159 1844 
L 1159 0 
L 581 0 
L 581 3500 
L 1159 3500 
L 1159 2956 
Q 1341 3275 1631 3429 
Q 1922 3584 2338 3584 
Q 2397 3584 2469 3576 
Q 2541 3569 2628 3553 
L 2631 2963 
z
" transform="scale(0.015625)"/>
      <path id="DejaVuSans-66" d="M 2375 4863 
L 2375 4384 
L 1825 4384 
Q 1516 4384 1395 4259 
Q 1275 4134 1275 3809 
L 1275 3500 
L 2222 3500 
L 2222 3053 
L 1275 3053 
L 1275 0 
L 697 0 
L 697 3053 
L 147 3053 
L 147 3500 
L 697 3500 
L 697 3744 
Q 697 4328 969 4595 
Q 1241 4863 1831 4863 
L 2375 4863 
z
" transform="scale(0.015625)"/>
      <path id="DejaVuSans-6c" d="M 603 4863 
L 1178 4863 
L 1178 0 
L 603 0 
L 603 4863 
z
" transform="scale(0.015625)"/>
      <path id="DejaVuSans-64" d="M 2906 2969 
L 2906 4863 
L 3481 4863 
L 3481 0 
L 2906 0 
L 2906 525 
Q 2725 213 2448 61 
Q 2172 -91 1784 -91 
Q 1150 -91 751 415 
Q 353 922 353 1747 
Q 353 2572 751 3078 
Q 1150 3584 1784 3584 
Q 2172 3584 2448 3432 
Q 2725 3281 2906 2969 
z
M 947 1747 
Q 947 1113 1208 752 
Q 1469 391 1925 391 
Q 2381 391 2643 752 
Q 2906 1113 2906 1747 
Q 2906 2381 2643 2742 
Q 2381 3103 1925 3103 
Q 1469 3103 1208 2742 
Q 947 2381 947 1747 
z
" transform="scale(0.015625)"/>
      <path id="DejaVuSans-4f" d="M 2522 4238 
Q 1834 4238 1429 3725 
Q 1025 3213 1025 2328 
Q 1025 1447 1429 934 
Q 1834 422 2522 422 
Q 3209 422 3611 934 
Q 4013 1447 4013 2328 
Q 4013 3213 3611 3725 
Q 3209 4238 2522 4238 
z
M 2522 4750 
Q 3503 4750 4090 4092 
Q 4678 3434 4678 2328 
Q 4678 1225 4090 567 
Q 3503 -91 2522 -91 
Q 1538 -91 948 565 
Q 359 1222 359 2328 
Q 359 3434 948 4092 
Q 1538 4750 2522 4750 
z
" transform="scale(0.015625)"/>
      <path id="DejaVuSans-73" d="M 2834 3397 
L 2834 2853 
Q 2591 2978 2328 3040 
Q 2066 3103 1784 3103 
Q 1356 3103 1142 2972 
Q 928 2841 928 2578 
Q 928 2378 1081 2264 
Q 1234 2150 1697 2047 
L 1894 2003 
Q 2506 1872 2764 1633 
Q 3022 1394 3022 966 
Q 3022 478 2636 193 
Q 2250 -91 1575 -91 
Q 1294 -91 989 -36 
Q 684 19 347 128 
L 347 722 
Q 666 556 975 473 
Q 1284 391 1588 391 
Q 1994 391 2212 530 
Q 2431 669 2431 922 
Q 2431 1156 2273 1281 
Q 2116 1406 1581 1522 
L 1381 1569 
Q 847 1681 609 1914 
Q 372 2147 372 2553 
Q 372 3047 722 3315 
Q 1072 3584 1716 3584 
Q 2034 3584 2315 3537 
Q 2597 3491 2834 3397 
z
" transform="scale(0.015625)"/>
     </defs>
     <use xlink:href="#DejaVuSans-4c"/>
     <use xlink:href="#DejaVuSans-61" x="55.712891"/>
     <use xlink:href="#DejaVuSans-6e" x="116.992188"/>
     <use xlink:href="#DejaVuSans-6b" x="180.371094"/>
     <use xlink:href="#DejaVuSans-77" x="238.28125"/>
     <use xlink:href="#DejaVuSans-69" x="320.068359"/>
     <use xlink:href="#DejaVuSans-74" x="347.851562"/>
     <use xlink:href="#DejaVuSans-7a" x="387.060547"/>
     <use xlink:href="#DejaVuSans-5f" x="439.550781"/>
     <use xlink:href="#DejaVuSans-4c" x="489.550781"/>
     <use xlink:href="#DejaVuSans-69" x="545.263672"/>
     <use xlink:href="#DejaVuSans-63" x="573.046875"/>
     <use xlink:href="#DejaVuSans-68" x="628.027344"/>
     <use xlink:href="#DejaVuSans-74" x="691.40625"/>
     <use xlink:href="#DejaVuSans-65" x="730.615234"/>
     <use xlink:href="#DejaVuSans-72" x="792.138672"/>
     <use xlink:href="#DejaVuSans-66" x="833.251953"/>
     <use xlink:href="#DejaVuSans-65" x="868.457031"/>
     <use xlink:href="#DejaVuSans-6c" x="929.980469"/>
     <use xlink:href="#DejaVuSans-64" x="957.763672"/>
     <use xlink:href="#DejaVuSans-65" x="1021.240234"/>
     <use xlink:href="#DejaVuSans-5f" x="1082.763672"/>
     <use xlink:href="#DejaVuSans-4f" x="1132.763672"/>
     <use xlink:href="#DejaVuSans-73" x="1211.474609"/>
     <use xlink:href="#DejaVuSans-74" x="1263.574219"/>
    </g>
   </g>
  </g>
 </g>
 <defs>
  <clipPath id="p21a0fa4fb2">
   <rect x="104.125528" y="41.472" width="264.068945" height="266.112"/>
  </clipPath>
 </defs>
</svg>
