<?xml version="1.0" encoding="utf-8" standalone="no"?>
<!DOCTYPE svg PUBLIC "-//W3C//DTD SVG 1.1//EN"
  "http://www.w3.org/Graphics/SVG/1.1/DTD/svg11.dtd">
<svg xmlns:xlink="http://www.w3.org/1999/xlink" width="460.8pt" height="345.6pt" viewBox="0 0 460.8 345.6" xmlns="http://www.w3.org/2000/svg" version="1.1">
 <metadata>
  <rdf:RDF xmlns:dc="http://purl.org/dc/elements/1.1/" xmlns:cc="http://creativecommons.org/ns#" xmlns:rdf="http://www.w3.org/1999/02/22-rdf-syntax-ns#">
   <cc:Work>
    <dc:type rdf:resource="http://purl.org/dc/dcmitype/StillImage"/>
    <dc:date>2024-10-15T09:53:26.041358</dc:date>
    <dc:format>image/svg+xml</dc:format>
    <dc:creator>
     <cc:Agent>
      <dc:title>Matplotlib v3.8.4, https://matplotlib.org/</dc:title>
     </cc:Agent>
    </dc:creator>
   </cc:Work>
  </rdf:RDF>
 </metadata>
 <defs>
  <style type="text/css">*{stroke-linejoin: round; stroke-linecap: butt}</style>
 </defs>
 <g id="figure_1">
  <g id="patch_1">
   <path d="M 0 345.6 
L 460.8 345.6 
L 460.8 0 
L 0 0 
z
" style="fill: #ffffff"/>
  </g>
  <g id="axes_1">
   <g id="patch_2">
    <path d="M 99.281821 307.584 
L 373.038179 307.584 
L 373.038179 41.472 
L 99.281821 41.472 
z
" style="fill: #ffffff"/>
   </g>
   <g id="PatchCollection_1">
    <path d="M 225.554494 96.234062 
L 225.57084 96.6849 
L 224.777063 96.787603 
L 223.815602 96.903955 
L 220.951863 97.185781 
L 211.927489 98.055743 
L 205.984689 98.583504 
L 200.771143 99.088076 
L 200.403793 99.131075 
L 199.779854 99.192289 
L 199.3279 99.232076 
L 194.257784 99.705418 
L 194.172913 99.653657 
L 194.091876 99.599373 
L 194.044822 99.103364 
L 193.622431 99.152769 
L 193.259976 99.188521 
L 190.978081 99.413686 
L 190.558616 99.670802 
L 188.840038 100.724442 
L 187.961463 101.036521 
L 188.115411 100.646625 
L 187.742127 99.953709 
L 187.543106 99.584253 
L 186.388272 97.440307 
L 186.200818 97.052756 
L 185.645951 95.626584 
L 184.823678 93.513515 
L 184.625821 93.106123 
L 184.467875 92.780923 
L 184.29416 92.423378 
L 182.852574 89.605599 
L 182.021435 88.071874 
L 181.76086 87.590801 
L 180.40489 85.087067 
L 179.531351 83.385461 
L 179.18112 82.733935 
L 179.047036 82.517205 
L 178.519994 81.606825 
L 178.207677 81.047361 
L 176.618728 78.298833 
L 174.574747 74.763551 
L 174.44726 74.543543 
L 173.950156 73.683882 
L 173.819709 73.458413 
L 173.167602 72.331821 
L 173.147968 72.297872 
L 173.128274 72.263807 
L 172.991986 72.028344 
L 172.817936 71.727625 
L 172.410987 71.024104 
L 171.968569 70.259581 
L 171.912125 70.16146 
L 171.525083 69.48857 
L 171.314606 69.122741 
L 171.238765 68.990956 
L 171.543481 69.022052 
L 171.524729 68.977675 
L 171.397686 68.677355 
L 169.856452 65.033162 
L 168.258924 61.250556 
L 167.360892 59.111293 
L 167.314385 59.000343 
L 166.754515 57.666714 
L 166.504944 57.069459 
L 166.120724 56.149973 
L 165.668281 55.067188 
L 165.523481 54.720844 
L 165.623311 54.601087 
L 165.607338 54.520831 
L 165.418136 53.568 
L 164.533553 54.698674 
L 164.373487 54.903332 
L 164.222006 55.096874 
L 164.082959 55.274685 
L 163.993349 55.389225 
L 162.864301 56.832421 
L 162.781359 56.938447 
L 162.560616 57.220745 
L 161.551926 58.510083 
L 161.356267 58.760157 
L 161.002922 59.211875 
L 160.839752 59.420438 
L 160.01194 60.473628 
L 159.810611 60.729813 
L 159.66624 60.913496 
L 159.067341 61.67555 
L 158.946645 61.829074 
L 158.386736 62.541396 
L 158.264629 62.696752 
L 158.160774 62.828926 
L 157.701561 63.413213 
L 157.600307 63.542133 
L 157.367734 63.838004 
L 156.991642 64.316553 
L 156.76421 64.605802 
L 155.976207 65.60838 
L 155.804607 65.826779 
L 155.460332 66.264878 
L 156.031971 66.648885 
L 156.286173 66.848104 
L 156.287646 66.849177 
L 156.323745 66.485265 
L 156.433609 66.502582 
L 156.680062 66.541473 
L 156.788472 66.558646 
L 155.90634 68.639402 
L 155.375417 69.891556 
L 155.327834 70.003751 
L 153.716202 73.805221 
L 153.579944 74.124804 
L 153.150246 75.106447 
L 152.996887 75.456865 
L 152.612024 76.336199 
L 152.013647 77.703304 
L 151.902241 77.957872 
L 151.816291 78.154154 
L 153.730201 79.529402 
L 153.948713 79.65768 
L 155.829131 80.398079 
L 156.255729 80.628286 
L 156.788797 80.984332 
L 157.187636 81.323056 
L 157.238218 81.374373 
L 157.28567 81.428605 
L 157.329871 81.485523 
L 157.370645 81.544957 
L 157.407869 81.606676 
L 157.917044 82.667423 
L 158.445968 83.879987 
L 159.798051 87.188142 
L 160.698184 89.488528 
L 160.820926 89.802136 
L 160.887506 89.984356 
L 160.9485 90.168557 
L 161.003903 90.354504 
L 161.053652 90.542025 
L 161.09763 90.731007 
L 160.900819 90.873472 
L 160.168316 91.403557 
L 160.165544 91.467173 
L 158.91974 92.395223 
L 157.749631 93.267007 
L 155.799674 94.719735 
L 155.768137 94.677201 
L 155.632138 94.781392 
L 155.741827 94.927862 
L 155.602768 95.032758 
L 155.45246 95.146209 
L 155.231838 94.931448 
L 155.190978 94.895218 
L 155.145938 94.864369 
L 155.097424 94.839351 
L 155.046199 94.820554 
L 154.993023 94.808253 
L 154.938714 94.802722 
L 154.8842 94.803941 
L 154.830178 94.811952 
L 154.777631 94.82662 
L 154.727311 94.847753 
L 154.679961 94.874928 
L 154.336882 95.135008 
L 154.297817 95.106881 
L 154.255948 95.083291 
L 154.211686 95.064521 
L 154.165615 95.050731 
L 154.11832 95.042144 
L 154.077749 94.983985 
L 153.299235 95.529373 
L 152.978085 95.748167 
L 152.65382 95.962317 
L 152.326614 96.171878 
L 151.996467 96.376734 
L 151.663435 96.576883 
L 151.327634 96.772266 
L 150.989062 96.962881 
L 150.647837 97.148669 
L 150.173457 97.405736 
L 146.19955 99.57334 
L 146.096998 99.629315 
L 144.498541 100.501273 
L 144.564193 100.830744 
L 144.496833 100.885446 
L 144.433693 100.944942 
L 144.375059 101.008936 
L 144.32127 101.077071 
L 144.272609 101.148935 
L 144.229358 101.224231 
L 144.19174 101.302488 
L 144.15992 101.383297 
L 144.141877 101.443518 
L 144.129728 101.505299 
L 144.12363 101.567882 
L 144.123632 101.6308 
L 144.129719 101.693413 
L 144.141879 101.755142 
L 144.159983 101.815347 
L 144.183846 101.87357 
L 140.951075 103.664453 
L 140.031325 104.173989 
L 139.915545 104.429236 
L 139.477688 105.688856 
L 139.210539 106.221554 
L 138.730108 107.179545 
L 137.422376 109.787212 
L 136.792534 111.043085 
L 136.021829 112.579981 
L 135.380036 113.859838 
L 134.381928 115.850161 
L 133.045223 118.515804 
L 132.89779 118.809819 
L 131.95159 120.696816 
L 131.803326 120.992535 
L 131.625953 121.34627 
L 130.961823 122.670634 
L 130.651994 123.288467 
L 129.347344 125.360666 
L 129.20809 125.411616 
L 128.757803 125.576444 
L 124.689758 127.065204 
L 119.052181 129.128595 
L 118.10459 129.470888 
L 117.197533 129.798543 
L 114.891845 130.634882 
L 114.579995 130.747979 
L 112.258532 131.589271 
L 111.92863 132.109632 
L 111.725292 132.430384 
L 111.842725 132.618598 
L 111.871976 132.665421 
L 113.268271 134.896293 
L 113.502197 135.256052 
L 114.354141 136.557153 
L 114.862194 137.331229 
L 115.258487 137.938252 
L 116.451972 139.766263 
L 118.011035 142.209464 
L 118.434088 142.847843 
L 119.528595 144.497606 
L 120.19549 145.295214 
L 120.508298 145.668816 
L 120.760622 145.953581 
L 121.668798 146.978219 
L 121.684193 146.995567 
L 121.842301 147.173959 
L 122.058184 147.417521 
L 122.0813 147.440577 
L 122.182297 147.541398 
L 122.434431 147.792908 
L 122.598967 147.957148 
L 123.221124 148.577957 
L 125.386114 150.244842 
L 127.722487 151.695949 
L 128.290678 151.986993 
L 128.509381 152.099081 
L 130.129785 152.929068 
L 131.576846 153.685313 
L 132.571035 154.204861 
L 134.988998 155.472334 
L 137.539021 156.753231 
L 138.395336 156.938533 
L 141.03899 157.510769 
L 141.776127 157.670305 
L 145.036748 158.336075 
L 146.081778 158.549463 
L 148.242104 159.046416 
L 150.393138 159.614352 
L 152.526477 160.374168 
L 154.612076 161.189329 
L 156.541692 162.206073 
L 156.584833 162.228805 
L 158.582304 163.343131 
L 160.478003 164.544593 
L 162.270969 165.850828 
L 163.532319 166.873322 
L 164.057111 167.298697 
L 164.501395 167.716188 
L 165.696166 168.838788 
L 167.220732 170.495643 
L 168.603052 172.281539 
L 169.950956 174.119517 
L 171.148352 176.027629 
L 171.809851 177.395803 
L 173.134717 179.474386 
L 174.338145 181.39285 
L 174.454524 181.56983 
L 174.984879 181.496996 
L 175.306559 182.579199 
L 175.623727 182.535486 
L 176.097428 182.474439 
L 177.430791 184.622991 
L 178.689893 186.680955 
L 178.174995 186.658497 
L 179.090712 188.452593 
L 179.511097 189.276791 
L 180.842026 191.780239 
L 182.560292 191.5974 
L 182.694068 191.978237 
L 184.722968 197.427723 
L 185.721371 200.102511 
L 185.754625 200.191532 
L 186.742038 202.816315 
L 187.275886 204.235377 
L 188.075817 206.248737 
L 188.458442 207.287331 
L 188.702319 207.923211 
L 188.719498 207.967855 
L 189.521705 210.060022 
L 189.686682 210.493932 
L 189.845873 210.936803 
L 190.689076 213.572096 
L 191.186192 215.377824 
L 191.44178 216.306184 
L 191.809835 217.102956 
L 191.905624 217.223218 
L 192.46517 217.925806 
L 194.783748 219.133783 
L 195.90562 219.671436 
L 196.534718 219.972898 
L 195.939092 221.23798 
L 195.49895 222.174717 
L 193.997289 221.441982 
L 191.830598 220.384662 
L 189.641284 219.316905 
L 189.211879 219.10741 
L 188.781096 221.016398 
L 188.573748 221.932808 
L 188.109098 223.993006 
L 187.693852 225.832236 
L 187.69099 225.845031 
L 187.64256 226.337713 
L 187.527801 227.505755 
L 187.444361 228.354473 
L 187.817963 230.706279 
L 188.208703 230.774182 
L 188.362007 231.857755 
L 188.744208 234.55793 
L 188.782369 234.827926 
L 189.022564 236.83523 
L 189.244506 236.868561 
L 189.372495 236.887832 
L 189.425766 237.236533 
L 189.225999 237.273094 
L 189.619912 240.051059 
L 189.710351 240.688792 
L 189.835382 241.570371 
L 190.145244 243.755593 
L 190.699847 247.666755 
L 190.705703 247.708034 
L 190.291715 248.305969 
L 189.826414 248.620465 
L 188.981047 248.896313 
L 187.371651 252.927316 
L 184.296029 258.186578 
L 183.52431 259.50944 
L 181.631121 262.788218 
L 181.484801 262.817603 
L 181.391835 262.836263 
L 181.89607 263.052649 
L 181.621538 263.541286 
L 181.538039 263.689943 
L 181.023852 263.447019 
L 181.085382 263.939697 
L 178.112719 269.145618 
L 178.34567 269.372113 
L 179.458916 270.454689 
L 179.310481 270.540293 
L 177.679695 271.543539 
L 177.168692 271.857921 
L 177.018287 272.251413 
L 176.942013 272.712124 
L 177.079952 273.253306 
L 177.224939 273.405665 
L 177.455984 273.228582 
L 177.619736 273.352399 
L 178.577061 272.684014 
L 179.168851 272.323553 
L 180.370954 271.680687 
L 182.914946 270.602452 
L 184.210977 270.167591 
L 185.271283 269.883278 
L 185.367626 270.18193 
L 186.713529 269.752536 
L 187.145685 269.636388 
L 187.734064 269.517921 
L 188.639904 269.387965 
L 188.640798 269.620487 
L 189.286503 269.586348 
L 189.921842 269.552837 
L 190.976112 269.579251 
L 192.319809 269.689387 
L 192.919496 269.780321 
L 193.637735 269.889276 
L 194.638758 270.107969 
L 195.492842 270.301745 
L 195.493518 270.301961 
L 196.20002 270.527298 
L 198.655241 271.415847 
L 199.312422 271.69067 
L 200.69217 272.515443 
L 201.298983 272.890829 
L 201.923666 273.277818 
L 202.531991 273.659107 
L 203.186804 274.100472 
L 203.806575 274.513388 
L 204.883568 275.230833 
L 206.116979 276.069014 
L 207.800298 277.214679 
L 208.835911 278.022564 
L 209.70671 278.87097 
L 210.615849 279.844698 
L 211.360529 280.757002 
L 212.172622 281.881413 
L 212.753879 282.837174 
L 213.40168 283.919347 
L 213.898672 284.979813 
L 214.340971 286.042479 
L 214.675856 287.001461 
L 214.973202 287.915065 
L 215.451353 289.620928 
L 216.210635 292.540907 
L 216.769746 292.767945 
L 217.3164 292.989839 
L 217.363748 292.977735 
L 217.415895 293.235406 
L 217.475832 293.531576 
L 217.538385 293.785826 
L 217.561395 293.879544 
L 217.667674 294.311334 
L 217.694985 294.422174 
L 217.803802 294.864436 
L 217.829155 294.967583 
L 217.957235 295.488 
L 218.571548 295.388937 
L 219.918535 294.790346 
L 220.897432 294.364541 
L 221.34017 294.120758 
L 222.578792 293.430258 
L 224.066582 292.593797 
L 224.204091 292.515192 
L 226.896115 290.853435 
L 229.956978 288.716774 
L 232.373276 286.820418 
L 234.898177 284.708858 
L 237.767081 282.234104 
L 238.261485 281.883372 
L 238.531265 281.66046 
L 239.599425 280.638033 
L 241.203127 279.2043 
L 242.848316 277.601653 
L 245.585247 275.195225 
L 246.611714 274.292732 
L 246.766741 274.444567 
L 249.289375 272.183333 
L 250.632062 270.996456 
L 251.098757 270.583923 
L 252.211621 269.8217 
L 255.871449 266.936892 
L 256.096419 266.732787 
L 258.779139 264.518617 
L 260.023641 263.53708 
L 260.37507 263.335619 
L 262.088598 262.00243 
L 262.705382 261.529689 
L 263.852075 260.724221 
L 264.552257 260.220849 
L 264.405491 260.047864 
L 264.532285 259.945859 
L 264.943849 259.578938 
L 265.076393 259.502899 
L 266.672781 258.037483 
L 267.209597 257.544612 
L 267.59434 257.968509 
L 267.629452 258.02296 
L 268.023281 258.633584 
L 268.229349 258.95309 
L 268.527337 258.651116 
L 268.769724 258.413745 
L 269.339539 257.920945 
L 270.003924 257.352262 
L 270.134719 257.501825 
L 270.298166 257.358387 
L 270.541799 257.1446 
L 270.398655 256.975641 
L 271.955035 255.583894 
L 272.407052 256.086581 
L 272.282185 256.197405 
L 272.334765 256.25812 
L 272.749299 256.737458 
L 272.883047 256.615866 
L 272.966018 256.710372 
L 273.10855 256.866669 
L 273.141218 256.845344 
L 273.666961 257.447151 
L 273.947813 257.190897 
L 273.412796 256.60603 
L 273.691747 256.361561 
L 273.479279 256.110137 
L 273.719359 255.484786 
L 273.845203 255.163906 
L 274.628179 253.166873 
L 274.895695 252.482917 
L 274.856409 252.434077 
L 275.422709 251.913334 
L 275.187471 251.646219 
L 275.547208 251.37421 
L 275.309355 251.151148 
L 275.13576 251.306018 
L 274.770726 250.901238 
L 279.79194 246.406262 
L 279.988501 246.603594 
L 280.554579 246.118687 
L 280.533923 246.104173 
L 282.00758 244.725372 
L 282.057465 244.770794 
L 282.849779 244.062418 
L 283.112707 243.810501 
L 282.691414 243.729788 
L 282.235347 243.652882 
L 274.374357 242.448622 
L 277.657425 240.610343 
L 277.700086 240.354991 
L 277.700847 240.347491 
L 277.702686 240.32935 
L 277.734799 240.130158 
L 279.237229 239.162093 
L 279.661605 238.890467 
L 279.938553 238.71509 
L 280.883854 238.116483 
L 281.312018 237.851235 
L 282.762071 236.895504 
L 288.997699 232.844019 
L 291.537162 231.194204 
L 294.187667 229.724402 
L 299.551869 227.06605 
L 305.128434 224.787004 
L 307.982213 223.836575 
L 310.01923 223.182174 
L 311.751863 222.492349 
L 313.510349 221.669301 
L 313.943498 221.401266 
L 314.579612 221.008539 
L 315.450862 220.470568 
L 315.620417 220.655109 
L 315.815068 220.867043 
L 315.978929 221.045481 
L 316.695772 221.826055 
L 317.07279 222.236514 
L 318.241846 222.177057 
L 320.826716 221.542207 
L 322.724314 221.395581 
L 323.446109 221.361162 
L 325.235767 221.275866 
L 332.874911 220.706808 
L 333.630696 220.652698 
L 333.952938 220.625456 
L 336.493099 220.646436 
L 338.264002 220.669826 
L 339.097753 220.673201 
L 341.729535 220.786946 
L 343.517359 220.863459 
L 347.360992 220.917143 
L 351.204007 221.039857 
L 354.50746 221.146923 
L 357.295205 221.225096 
L 357.853468 221.837321 
L 358.282967 208.731836 
L 358.301548 208.166066 
L 358.387747 205.533904 
L 358.392397 205.39268 
L 358.487937 202.477196 
L 358.495513 202.246535 
L 358.594932 199.305095 
L 358.599138 199.085495 
L 358.695704 196.137776 
L 358.700792 195.983924 
L 358.705793 195.908052 
L 358.896884 192.982114 
L 358.910978 192.766671 
L 358.946054 192.230277 
L 359.111093 190.360869 
L 359.181527 189.602256 
L 359.195271 189.45474 
L 359.226257 189.120964 
L 359.291469 188.418865 
L 359.341568 188.126215 
L 359.181785 188.126826 
L 359.241951 186.631149 
L 359.250827 186.410116 
L 359.493202 180.38033 
L 359.503541 180.123097 
L 359.661098 180.039029 
L 359.839404 176.073529 
L 359.878821 175.196349 
L 359.895395 174.827108 
L 360.077166 170.835079 
L 360.110226 170.854751 
L 360.397107 164.917907 
L 360.478802 163.201054 
L 360.522695 162.409204 
L 360.591919 161.021151 
L 360.588858 160.514384 
L 360.594708 159.779721 
L 360.578213 158.809141 
L 360.543219 157.623439 
L 360.504064 156.384616 
L 360.318316 153.251976 
L 360.165366 150.676256 
L 360.046756 148.684521 
L 360.026157 148.338433 
L 359.646193 147.218344 
L 359.338987 146.312744 
L 359.336632 142.300663 
L 359.331819 139.999444 
L 359.480662 139.8513 
L 359.199625 132.625863 
L 359.075805 129.708732 
L 359.059444 129.323248 
L 359.04245 128.923879 
L 359.036826 128.790833 
L 359.001538 127.959732 
L 358.430749 118.379802 
L 358.214442 114.494005 
L 358.308596 113.762586 
L 358.302305 113.568671 
L 358.240342 113.596985 
L 358.231936 113.370608 
L 358.215831 112.935401 
L 358.208105 112.728083 
L 358.20252 112.577185 
L 358.016358 112.484428 
L 358.005241 112.304161 
L 357.970757 111.744951 
L 357.947303 111.367405 
L 357.742009 108.045488 
L 357.565107 105.183822 
L 357.722157 104.837859 
L 357.703056 104.471737 
L 357.65648 103.931267 
L 357.526294 103.758858 
L 357.360289 102.486245 
L 357.269632 102.048501 
L 357.17343 101.611919 
L 357.071798 101.176552 
L 356.964681 100.74252 
L 356.85214 100.309937 
L 356.734114 99.878746 
L 356.672911 99.663806 
L 356.555966 99.265564 
L 356.434467 98.868753 
L 356.308296 98.473317 
L 356.177515 98.07943 
L 356.042123 97.687091 
L 355.90224 97.296415 
L 355.757747 96.907346 
L 355.609873 96.523173 
L 355.457625 96.140718 
L 355.300944 95.760041 
L 355.139835 95.381257 
L 354.974412 95.004366 
L 354.80456 94.629368 
L 354.630457 94.256434 
L 353.91887 92.689943 
L 353.913221 92.677558 
L 353.766058 92.353788 
L 353.593799 91.97477 
L 353.407443 91.564699 
L 351.623941 87.640465 
L 352.057954 87.550178 
L 351.486757 86.298065 
L 351.463013 86.266339 
L 351.43511 86.238304 
L 351.403521 86.214474 
L 351.368895 86.1953 
L 351.331936 86.181233 
L 351.293346 86.172491 
L 351.253939 86.169232 
L 350.957401 86.195459 
L 350.524979 85.350442 
L 349.106445 85.486656 
L 347.493277 85.663928 
L 345.861542 85.841185 
L 343.048099 86.175747 
L 342.985415 86.183262 
L 340.625857 86.473832 
L 340.170094 86.519287 
L 339.853107 86.552269 
L 339.16416 86.623953 
L 337.407805 86.829532 
L 334.361308 87.147302 
L 330.573285 87.588876 
L 328.085772 87.871961 
L 324.689719 88.263352 
L 323.631056 88.365326 
L 321.25132 88.640716 
L 317.861007 88.991657 
L 314.451699 89.422697 
L 313.726511 89.480407 
L 313.227136 89.548907 
L 312.72377 89.617955 
L 312.236243 89.675744 
L 311.970455 89.707188 
L 311.214708 89.796649 
L 311.099941 89.805134 
L 310.984883 89.813509 
L 310.336813 89.877073 
L 309.685442 89.940938 
L 308.737667 90.059625 
L 307.783659 90.157394 
L 307.044759 90.253319 
L 306.288258 90.317397 
L 306.310967 89.7484 
L 306.334004 89.169975 
L 305.983392 89.207256 
L 305.628265 89.245038 
L 305.480723 89.262289 
L 305.249018 89.289253 
L 303.699753 89.470915 
L 303.54086 89.489216 
L 303.133836 89.536976 
L 302.39804 89.62308 
L 302.402887 89.734044 
L 298.523069 90.112652 
L 294.430119 90.506736 
L 290.473128 90.769306 
L 288.718521 90.930435 
L 287.515512 91.048557 
L 285.39142 91.257131 
L 283.404349 91.439009 
L 283.41897 91.531278 
L 283.260017 91.54936 
L 282.784459 91.603443 
L 282.390525 91.648245 
L 282.264138 91.661461 
L 282.17382 91.670903 
L 281.270119 91.765329 
L 281.241212 91.747963 
L 281.17031 91.753569 
L 280.106136 91.837504 
L 279.721721 91.875638 
L 279.341061 91.912939 
L 278.609447 91.962325 
L 277.876403 92.012674 
L 277.739435 92.022043 
L 277.597414 92.034017 
L 275.445794 92.131577 
L 273.313303 92.228172 
L 272.737874 92.253388 
L 272.619127 92.258592 
L 271.952778 92.279536 
L 268.202823 92.454303 
L 267.841645 92.264895 
L 267.42194 92.037226 
L 267.054353 92.0809 
L 266.418167 92.07913 
L 266.152014 92.112195 
L 266.156045 92.423152 
L 265.454079 92.444449 
L 264.841121 92.463072 
L 264.526553 92.472612 
L 264.27861 92.608456 
L 263.684822 92.656047 
L 259.069839 93.026083 
L 257.802945 93.151616 
L 252.481931 93.678242 
L 252.472671 93.679367 
L 252.251137 93.698427 
L 251.542291 93.785064 
L 250.925422 93.860461 
L 244.140986 94.507628 
L 241.58239 94.647532 
L 238.75576 94.918921 
L 233.970796 95.378355 
L 233.780868 95.396592 
L 233.800667 95.427751 
L 233.85352 95.474731 
L 233.09482 95.526606 
L 233.066628 95.343795 
L 230.030721 95.636939 
L 229.786854 95.80029 
L 228.897241 95.890731 
L 226.721463 96.11194 
L 225.554494 96.234062 
" clip-path="url(#pe453030e79)" style="fill: #1f77b4"/>
   </g>
   <g id="matplotlib.axis_1">
    <g id="xtick_1">
     <g id="line2d_1">
      <defs>
       <path id="m5ba51e2243" d="M 0 0 
L 0 3.5 
" style="stroke: #000000; stroke-width: 0.8"/>
      </defs>
      <g>
       <use xlink:href="#m5ba51e2243" x="126.693031" y="307.584" style="stroke: #000000; stroke-width: 0.8"/>
      </g>
     </g>
     <g id="text_1">
      <!-- 13.46 -->
      <g transform="translate(112.378969 322.182437) scale(0.1 -0.1)">
       <defs>
        <path id="DejaVuSans-31" d="M 794 531 
L 1825 531 
L 1825 4091 
L 703 3866 
L 703 4441 
L 1819 4666 
L 2450 4666 
L 2450 531 
L 3481 531 
L 3481 0 
L 794 0 
L 794 531 
z
" transform="scale(0.015625)"/>
        <path id="DejaVuSans-33" d="M 2597 2516 
Q 3050 2419 3304 2112 
Q 3559 1806 3559 1356 
Q 3559 666 3084 287 
Q 2609 -91 1734 -91 
Q 1441 -91 1130 -33 
Q 819 25 488 141 
L 488 750 
Q 750 597 1062 519 
Q 1375 441 1716 441 
Q 2309 441 2620 675 
Q 2931 909 2931 1356 
Q 2931 1769 2642 2001 
Q 2353 2234 1838 2234 
L 1294 2234 
L 1294 2753 
L 1863 2753 
Q 2328 2753 2575 2939 
Q 2822 3125 2822 3475 
Q 2822 3834 2567 4026 
Q 2313 4219 1838 4219 
Q 1578 4219 1281 4162 
Q 984 4106 628 3988 
L 628 4550 
Q 988 4650 1302 4700 
Q 1616 4750 1894 4750 
Q 2613 4750 3031 4423 
Q 3450 4097 3450 3541 
Q 3450 3153 3228 2886 
Q 3006 2619 2597 2516 
z
" transform="scale(0.015625)"/>
        <path id="DejaVuSans-2e" d="M 684 794 
L 1344 794 
L 1344 0 
L 684 0 
L 684 794 
z
" transform="scale(0.015625)"/>
        <path id="DejaVuSans-34" d="M 2419 4116 
L 825 1625 
L 2419 1625 
L 2419 4116 
z
M 2253 4666 
L 3047 4666 
L 3047 1625 
L 3713 1625 
L 3713 1100 
L 3047 1100 
L 3047 0 
L 2419 0 
L 2419 1100 
L 313 1100 
L 313 1709 
L 2253 4666 
z
" transform="scale(0.015625)"/>
        <path id="DejaVuSans-36" d="M 2113 2584 
Q 1688 2584 1439 2293 
Q 1191 2003 1191 1497 
Q 1191 994 1439 701 
Q 1688 409 2113 409 
Q 2538 409 2786 701 
Q 3034 994 3034 1497 
Q 3034 2003 2786 2293 
Q 2538 2584 2113 2584 
z
M 3366 4563 
L 3366 3988 
Q 3128 4100 2886 4159 
Q 2644 4219 2406 4219 
Q 1781 4219 1451 3797 
Q 1122 3375 1075 2522 
Q 1259 2794 1537 2939 
Q 1816 3084 2150 3084 
Q 2853 3084 3261 2657 
Q 3669 2231 3669 1497 
Q 3669 778 3244 343 
Q 2819 -91 2113 -91 
Q 1303 -91 875 529 
Q 447 1150 447 2328 
Q 447 3434 972 4092 
Q 1497 4750 2381 4750 
Q 2619 4750 2861 4703 
Q 3103 4656 3366 4563 
z
" transform="scale(0.015625)"/>
       </defs>
       <use xlink:href="#DejaVuSans-31"/>
       <use xlink:href="#DejaVuSans-33" x="63.623047"/>
       <use xlink:href="#DejaVuSans-2e" x="127.246094"/>
       <use xlink:href="#DejaVuSans-34" x="159.033203"/>
       <use xlink:href="#DejaVuSans-36" x="222.65625"/>
      </g>
     </g>
    </g>
    <g id="xtick_2">
     <g id="line2d_2">
      <g>
       <use xlink:href="#m5ba51e2243" x="166.045527" y="307.584" style="stroke: #000000; stroke-width: 0.8"/>
      </g>
     </g>
     <g id="text_2">
      <!-- 13.47 -->
      <g transform="translate(151.731464 322.182437) scale(0.1 -0.1)">
       <defs>
        <path id="DejaVuSans-37" d="M 525 4666 
L 3525 4666 
L 3525 4397 
L 1831 0 
L 1172 0 
L 2766 4134 
L 525 4134 
L 525 4666 
z
" transform="scale(0.015625)"/>
       </defs>
       <use xlink:href="#DejaVuSans-31"/>
       <use xlink:href="#DejaVuSans-33" x="63.623047"/>
       <use xlink:href="#DejaVuSans-2e" x="127.246094"/>
       <use xlink:href="#DejaVuSans-34" x="159.033203"/>
       <use xlink:href="#DejaVuSans-37" x="222.65625"/>
      </g>
     </g>
    </g>
    <g id="xtick_3">
     <g id="line2d_3">
      <g>
       <use xlink:href="#m5ba51e2243" x="205.398022" y="307.584" style="stroke: #000000; stroke-width: 0.8"/>
      </g>
     </g>
     <g id="text_3">
      <!-- 13.48 -->
      <g transform="translate(191.083959 322.182437) scale(0.1 -0.1)">
       <defs>
        <path id="DejaVuSans-38" d="M 2034 2216 
Q 1584 2216 1326 1975 
Q 1069 1734 1069 1313 
Q 1069 891 1326 650 
Q 1584 409 2034 409 
Q 2484 409 2743 651 
Q 3003 894 3003 1313 
Q 3003 1734 2745 1975 
Q 2488 2216 2034 2216 
z
M 1403 2484 
Q 997 2584 770 2862 
Q 544 3141 544 3541 
Q 544 4100 942 4425 
Q 1341 4750 2034 4750 
Q 2731 4750 3128 4425 
Q 3525 4100 3525 3541 
Q 3525 3141 3298 2862 
Q 3072 2584 2669 2484 
Q 3125 2378 3379 2068 
Q 3634 1759 3634 1313 
Q 3634 634 3220 271 
Q 2806 -91 2034 -91 
Q 1263 -91 848 271 
Q 434 634 434 1313 
Q 434 1759 690 2068 
Q 947 2378 1403 2484 
z
M 1172 3481 
Q 1172 3119 1398 2916 
Q 1625 2713 2034 2713 
Q 2441 2713 2670 2916 
Q 2900 3119 2900 3481 
Q 2900 3844 2670 4047 
Q 2441 4250 2034 4250 
Q 1625 4250 1398 4047 
Q 1172 3844 1172 3481 
z
" transform="scale(0.015625)"/>
       </defs>
       <use xlink:href="#DejaVuSans-31"/>
       <use xlink:href="#DejaVuSans-33" x="63.623047"/>
       <use xlink:href="#DejaVuSans-2e" x="127.246094"/>
       <use xlink:href="#DejaVuSans-34" x="159.033203"/>
       <use xlink:href="#DejaVuSans-38" x="222.65625"/>
      </g>
     </g>
    </g>
    <g id="xtick_4">
     <g id="line2d_4">
      <g>
       <use xlink:href="#m5ba51e2243" x="244.750517" y="307.584" style="stroke: #000000; stroke-width: 0.8"/>
      </g>
     </g>
     <g id="text_4">
      <!-- 13.49 -->
      <g transform="translate(230.436455 322.182437) scale(0.1 -0.1)">
       <defs>
        <path id="DejaVuSans-39" d="M 703 97 
L 703 672 
Q 941 559 1184 500 
Q 1428 441 1663 441 
Q 2288 441 2617 861 
Q 2947 1281 2994 2138 
Q 2813 1869 2534 1725 
Q 2256 1581 1919 1581 
Q 1219 1581 811 2004 
Q 403 2428 403 3163 
Q 403 3881 828 4315 
Q 1253 4750 1959 4750 
Q 2769 4750 3195 4129 
Q 3622 3509 3622 2328 
Q 3622 1225 3098 567 
Q 2575 -91 1691 -91 
Q 1453 -91 1209 -44 
Q 966 3 703 97 
z
M 1959 2075 
Q 2384 2075 2632 2365 
Q 2881 2656 2881 3163 
Q 2881 3666 2632 3958 
Q 2384 4250 1959 4250 
Q 1534 4250 1286 3958 
Q 1038 3666 1038 3163 
Q 1038 2656 1286 2365 
Q 1534 2075 1959 2075 
z
" transform="scale(0.015625)"/>
       </defs>
       <use xlink:href="#DejaVuSans-31"/>
       <use xlink:href="#DejaVuSans-33" x="63.623047"/>
       <use xlink:href="#DejaVuSans-2e" x="127.246094"/>
       <use xlink:href="#DejaVuSans-34" x="159.033203"/>
       <use xlink:href="#DejaVuSans-39" x="222.65625"/>
      </g>
     </g>
    </g>
    <g id="xtick_5">
     <g id="line2d_5">
      <g>
       <use xlink:href="#m5ba51e2243" x="284.103013" y="307.584" style="stroke: #000000; stroke-width: 0.8"/>
      </g>
     </g>
     <g id="text_5">
      <!-- 13.50 -->
      <g transform="translate(269.78895 322.182437) scale(0.1 -0.1)">
       <defs>
        <path id="DejaVuSans-35" d="M 691 4666 
L 3169 4666 
L 3169 4134 
L 1269 4134 
L 1269 2991 
Q 1406 3038 1543 3061 
Q 1681 3084 1819 3084 
Q 2600 3084 3056 2656 
Q 3513 2228 3513 1497 
Q 3513 744 3044 326 
Q 2575 -91 1722 -91 
Q 1428 -91 1123 -41 
Q 819 9 494 109 
L 494 744 
Q 775 591 1075 516 
Q 1375 441 1709 441 
Q 2250 441 2565 725 
Q 2881 1009 2881 1497 
Q 2881 1984 2565 2268 
Q 2250 2553 1709 2553 
Q 1456 2553 1204 2497 
Q 953 2441 691 2322 
L 691 4666 
z
" transform="scale(0.015625)"/>
        <path id="DejaVuSans-30" d="M 2034 4250 
Q 1547 4250 1301 3770 
Q 1056 3291 1056 2328 
Q 1056 1369 1301 889 
Q 1547 409 2034 409 
Q 2525 409 2770 889 
Q 3016 1369 3016 2328 
Q 3016 3291 2770 3770 
Q 2525 4250 2034 4250 
z
M 2034 4750 
Q 2819 4750 3233 4129 
Q 3647 3509 3647 2328 
Q 3647 1150 3233 529 
Q 2819 -91 2034 -91 
Q 1250 -91 836 529 
Q 422 1150 422 2328 
Q 422 3509 836 4129 
Q 1250 4750 2034 4750 
z
" transform="scale(0.015625)"/>
       </defs>
       <use xlink:href="#DejaVuSans-31"/>
       <use xlink:href="#DejaVuSans-33" x="63.623047"/>
       <use xlink:href="#DejaVuSans-2e" x="127.246094"/>
       <use xlink:href="#DejaVuSans-35" x="159.033203"/>
       <use xlink:href="#DejaVuSans-30" x="222.65625"/>
      </g>
     </g>
    </g>
    <g id="xtick_6">
     <g id="line2d_6">
      <g>
       <use xlink:href="#m5ba51e2243" x="323.455508" y="307.584" style="stroke: #000000; stroke-width: 0.8"/>
      </g>
     </g>
     <g id="text_6">
      <!-- 13.51 -->
      <g transform="translate(309.141446 322.182437) scale(0.1 -0.1)">
       <use xlink:href="#DejaVuSans-31"/>
       <use xlink:href="#DejaVuSans-33" x="63.623047"/>
       <use xlink:href="#DejaVuSans-2e" x="127.246094"/>
       <use xlink:href="#DejaVuSans-35" x="159.033203"/>
       <use xlink:href="#DejaVuSans-31" x="222.65625"/>
      </g>
     </g>
    </g>
    <g id="xtick_7">
     <g id="line2d_7">
      <g>
       <use xlink:href="#m5ba51e2243" x="362.808003" y="307.584" style="stroke: #000000; stroke-width: 0.8"/>
      </g>
     </g>
     <g id="text_7">
      <!-- 13.52 -->
      <g transform="translate(348.493941 322.182437) scale(0.1 -0.1)">
       <defs>
        <path id="DejaVuSans-32" d="M 1228 531 
L 3431 531 
L 3431 0 
L 469 0 
L 469 531 
Q 828 903 1448 1529 
Q 2069 2156 2228 2338 
Q 2531 2678 2651 2914 
Q 2772 3150 2772 3378 
Q 2772 3750 2511 3984 
Q 2250 4219 1831 4219 
Q 1534 4219 1204 4116 
Q 875 4013 500 3803 
L 500 4441 
Q 881 4594 1212 4672 
Q 1544 4750 1819 4750 
Q 2544 4750 2975 4387 
Q 3406 4025 3406 3419 
Q 3406 3131 3298 2873 
Q 3191 2616 2906 2266 
Q 2828 2175 2409 1742 
Q 1991 1309 1228 531 
z
" transform="scale(0.015625)"/>
       </defs>
       <use xlink:href="#DejaVuSans-31"/>
       <use xlink:href="#DejaVuSans-33" x="63.623047"/>
       <use xlink:href="#DejaVuSans-2e" x="127.246094"/>
       <use xlink:href="#DejaVuSans-35" x="159.033203"/>
       <use xlink:href="#DejaVuSans-32" x="222.65625"/>
      </g>
     </g>
    </g>
   </g>
   <g id="matplotlib.axis_2">
    <g id="ytick_1">
     <g id="line2d_8">
      <defs>
       <path id="m1592fd1d2d" d="M 0 0 
L -3.5 0 
" style="stroke: #000000; stroke-width: 0.8"/>
      </defs>
      <g>
       <use xlink:href="#m1592fd1d2d" x="99.281821" y="282.896721" style="stroke: #000000; stroke-width: 0.8"/>
      </g>
     </g>
     <g id="text_8">
      <!-- 52.505 -->
      <g transform="translate(57.291196 286.69594) scale(0.1 -0.1)">
       <use xlink:href="#DejaVuSans-35"/>
       <use xlink:href="#DejaVuSans-32" x="63.623047"/>
       <use xlink:href="#DejaVuSans-2e" x="127.246094"/>
       <use xlink:href="#DejaVuSans-35" x="159.033203"/>
       <use xlink:href="#DejaVuSans-30" x="222.65625"/>
       <use xlink:href="#DejaVuSans-35" x="286.279297"/>
      </g>
     </g>
    </g>
    <g id="ytick_2">
     <g id="line2d_9">
      <g>
       <use xlink:href="#m1592fd1d2d" x="99.281821" y="250.558946" style="stroke: #000000; stroke-width: 0.8"/>
      </g>
     </g>
     <g id="text_9">
      <!-- 52.510 -->
      <g transform="translate(57.291196 254.358164) scale(0.1 -0.1)">
       <use xlink:href="#DejaVuSans-35"/>
       <use xlink:href="#DejaVuSans-32" x="63.623047"/>
       <use xlink:href="#DejaVuSans-2e" x="127.246094"/>
       <use xlink:href="#DejaVuSans-35" x="159.033203"/>
       <use xlink:href="#DejaVuSans-31" x="222.65625"/>
       <use xlink:href="#DejaVuSans-30" x="286.279297"/>
      </g>
     </g>
    </g>
    <g id="ytick_3">
     <g id="line2d_10">
      <g>
       <use xlink:href="#m1592fd1d2d" x="99.281821" y="218.22117" style="stroke: #000000; stroke-width: 0.8"/>
      </g>
     </g>
     <g id="text_10">
      <!-- 52.515 -->
      <g transform="translate(57.291196 222.020388) scale(0.1 -0.1)">
       <use xlink:href="#DejaVuSans-35"/>
       <use xlink:href="#DejaVuSans-32" x="63.623047"/>
       <use xlink:href="#DejaVuSans-2e" x="127.246094"/>
       <use xlink:href="#DejaVuSans-35" x="159.033203"/>
       <use xlink:href="#DejaVuSans-31" x="222.65625"/>
       <use xlink:href="#DejaVuSans-35" x="286.279297"/>
      </g>
     </g>
    </g>
    <g id="ytick_4">
     <g id="line2d_11">
      <g>
       <use xlink:href="#m1592fd1d2d" x="99.281821" y="185.883394" style="stroke: #000000; stroke-width: 0.8"/>
      </g>
     </g>
     <g id="text_11">
      <!-- 52.520 -->
      <g transform="translate(57.291196 189.682612) scale(0.1 -0.1)">
       <use xlink:href="#DejaVuSans-35"/>
       <use xlink:href="#DejaVuSans-32" x="63.623047"/>
       <use xlink:href="#DejaVuSans-2e" x="127.246094"/>
       <use xlink:href="#DejaVuSans-35" x="159.033203"/>
       <use xlink:href="#DejaVuSans-32" x="222.65625"/>
       <use xlink:href="#DejaVuSans-30" x="286.279297"/>
      </g>
     </g>
    </g>
    <g id="ytick_5">
     <g id="line2d_12">
      <g>
       <use xlink:href="#m1592fd1d2d" x="99.281821" y="153.545618" style="stroke: #000000; stroke-width: 0.8"/>
      </g>
     </g>
     <g id="text_12">
      <!-- 52.525 -->
      <g transform="translate(57.291196 157.344837) scale(0.1 -0.1)">
       <use xlink:href="#DejaVuSans-35"/>
       <use xlink:href="#DejaVuSans-32" x="63.623047"/>
       <use xlink:href="#DejaVuSans-2e" x="127.246094"/>
       <use xlink:href="#DejaVuSans-35" x="159.033203"/>
       <use xlink:href="#DejaVuSans-32" x="222.65625"/>
       <use xlink:href="#DejaVuSans-35" x="286.279297"/>
      </g>
     </g>
    </g>
    <g id="ytick_6">
     <g id="line2d_13">
      <g>
       <use xlink:href="#m1592fd1d2d" x="99.281821" y="121.207842" style="stroke: #000000; stroke-width: 0.8"/>
      </g>
     </g>
     <g id="text_13">
      <!-- 52.530 -->
      <g transform="translate(57.291196 125.007061) scale(0.1 -0.1)">
       <use xlink:href="#DejaVuSans-35"/>
       <use xlink:href="#DejaVuSans-32" x="63.623047"/>
       <use xlink:href="#DejaVuSans-2e" x="127.246094"/>
       <use xlink:href="#DejaVuSans-35" x="159.033203"/>
       <use xlink:href="#DejaVuSans-33" x="222.65625"/>
       <use xlink:href="#DejaVuSans-30" x="286.279297"/>
      </g>
     </g>
    </g>
    <g id="ytick_7">
     <g id="line2d_14">
      <g>
       <use xlink:href="#m1592fd1d2d" x="99.281821" y="88.870066" style="stroke: #000000; stroke-width: 0.8"/>
      </g>
     </g>
     <g id="text_14">
      <!-- 52.535 -->
      <g transform="translate(57.291196 92.669285) scale(0.1 -0.1)">
       <use xlink:href="#DejaVuSans-35"/>
       <use xlink:href="#DejaVuSans-32" x="63.623047"/>
       <use xlink:href="#DejaVuSans-2e" x="127.246094"/>
       <use xlink:href="#DejaVuSans-35" x="159.033203"/>
       <use xlink:href="#DejaVuSans-33" x="222.65625"/>
       <use xlink:href="#DejaVuSans-35" x="286.279297"/>
      </g>
     </g>
    </g>
    <g id="ytick_8">
     <g id="line2d_15">
      <g>
       <use xlink:href="#m1592fd1d2d" x="99.281821" y="56.53229" style="stroke: #000000; stroke-width: 0.8"/>
      </g>
     </g>
     <g id="text_15">
      <!-- 52.540 -->
      <g transform="translate(57.291196 60.331509) scale(0.1 -0.1)">
       <use xlink:href="#DejaVuSans-35"/>
       <use xlink:href="#DejaVuSans-32" x="63.623047"/>
       <use xlink:href="#DejaVuSans-2e" x="127.246094"/>
       <use xlink:href="#DejaVuSans-35" x="159.033203"/>
       <use xlink:href="#DejaVuSans-34" x="222.65625"/>
       <use xlink:href="#DejaVuSans-30" x="286.279297"/>
      </g>
     </g>
    </g>
   </g>
   <g id="patch_3">
    <path d="M 99.281821 307.584 
L 99.281821 41.472 
" style="fill: none; stroke: #000000; stroke-width: 0.8; stroke-linejoin: miter; stroke-linecap: square"/>
   </g>
   <g id="patch_4">
    <path d="M 373.038179 307.584 
L 373.038179 41.472 
" style="fill: none; stroke: #000000; stroke-width: 0.8; stroke-linejoin: miter; stroke-linecap: square"/>
   </g>
   <g id="patch_5">
    <path d="M 99.281821 307.584 
L 373.038179 307.584 
" style="fill: none; stroke: #000000; stroke-width: 0.8; stroke-linejoin: miter; stroke-linecap: square"/>
   </g>
   <g id="patch_6">
    <path d="M 99.281821 41.472 
L 373.038179 41.472 
" style="fill: none; stroke: #000000; stroke-width: 0.8; stroke-linejoin: miter; stroke-linecap: square"/>
   </g>
   <g id="text_16">
    <!-- Lichtenberg_Nord -->
    <g transform="translate(197.443272 170.130434) scale(0.12 -0.12)">
     <defs>
      <path id="DejaVuSans-4c" d="M 628 4666 
L 1259 4666 
L 1259 531 
L 3531 531 
L 3531 0 
L 628 0 
L 628 4666 
z
" transform="scale(0.015625)"/>
      <path id="DejaVuSans-69" d="M 603 3500 
L 1178 3500 
L 1178 0 
L 603 0 
L 603 3500 
z
M 603 4863 
L 1178 4863 
L 1178 4134 
L 603 4134 
L 603 4863 
z
" transform="scale(0.015625)"/>
      <path id="DejaVuSans-63" d="M 3122 3366 
L 3122 2828 
Q 2878 2963 2633 3030 
Q 2388 3097 2138 3097 
Q 1578 3097 1268 2742 
Q 959 2388 959 1747 
Q 959 1106 1268 751 
Q 1578 397 2138 397 
Q 2388 397 2633 464 
Q 2878 531 3122 666 
L 3122 134 
Q 2881 22 2623 -34 
Q 2366 -91 2075 -91 
Q 1284 -91 818 406 
Q 353 903 353 1747 
Q 353 2603 823 3093 
Q 1294 3584 2113 3584 
Q 2378 3584 2631 3529 
Q 2884 3475 3122 3366 
z
" transform="scale(0.015625)"/>
      <path id="DejaVuSans-68" d="M 3513 2113 
L 3513 0 
L 2938 0 
L 2938 2094 
Q 2938 2591 2744 2837 
Q 2550 3084 2163 3084 
Q 1697 3084 1428 2787 
Q 1159 2491 1159 1978 
L 1159 0 
L 581 0 
L 581 4863 
L 1159 4863 
L 1159 2956 
Q 1366 3272 1645 3428 
Q 1925 3584 2291 3584 
Q 2894 3584 3203 3211 
Q 3513 2838 3513 2113 
z
" transform="scale(0.015625)"/>
      <path id="DejaVuSans-74" d="M 1172 4494 
L 1172 3500 
L 2356 3500 
L 2356 3053 
L 1172 3053 
L 1172 1153 
Q 1172 725 1289 603 
Q 1406 481 1766 481 
L 2356 481 
L 2356 0 
L 1766 0 
Q 1100 0 847 248 
Q 594 497 594 1153 
L 594 3053 
L 172 3053 
L 172 3500 
L 594 3500 
L 594 4494 
L 1172 4494 
z
" transform="scale(0.015625)"/>
      <path id="DejaVuSans-65" d="M 3597 1894 
L 3597 1613 
L 953 1613 
Q 991 1019 1311 708 
Q 1631 397 2203 397 
Q 2534 397 2845 478 
Q 3156 559 3463 722 
L 3463 178 
Q 3153 47 2828 -22 
Q 2503 -91 2169 -91 
Q 1331 -91 842 396 
Q 353 884 353 1716 
Q 353 2575 817 3079 
Q 1281 3584 2069 3584 
Q 2775 3584 3186 3129 
Q 3597 2675 3597 1894 
z
M 3022 2063 
Q 3016 2534 2758 2815 
Q 2500 3097 2075 3097 
Q 1594 3097 1305 2825 
Q 1016 2553 972 2059 
L 3022 2063 
z
" transform="scale(0.015625)"/>
      <path id="DejaVuSans-6e" d="M 3513 2113 
L 3513 0 
L 2938 0 
L 2938 2094 
Q 2938 2591 2744 2837 
Q 2550 3084 2163 3084 
Q 1697 3084 1428 2787 
Q 1159 2491 1159 1978 
L 1159 0 
L 581 0 
L 581 3500 
L 1159 3500 
L 1159 2956 
Q 1366 3272 1645 3428 
Q 1925 3584 2291 3584 
Q 2894 3584 3203 3211 
Q 3513 2838 3513 2113 
z
" transform="scale(0.015625)"/>
      <path id="DejaVuSans-62" d="M 3116 1747 
Q 3116 2381 2855 2742 
Q 2594 3103 2138 3103 
Q 1681 3103 1420 2742 
Q 1159 2381 1159 1747 
Q 1159 1113 1420 752 
Q 1681 391 2138 391 
Q 2594 391 2855 752 
Q 3116 1113 3116 1747 
z
M 1159 2969 
Q 1341 3281 1617 3432 
Q 1894 3584 2278 3584 
Q 2916 3584 3314 3078 
Q 3713 2572 3713 1747 
Q 3713 922 3314 415 
Q 2916 -91 2278 -91 
Q 1894 -91 1617 61 
Q 1341 213 1159 525 
L 1159 0 
L 581 0 
L 581 4863 
L 1159 4863 
L 1159 2969 
z
" transform="scale(0.015625)"/>
      <path id="DejaVuSans-72" d="M 2631 2963 
Q 2534 3019 2420 3045 
Q 2306 3072 2169 3072 
Q 1681 3072 1420 2755 
Q 1159 2438 1159 1844 
L 1159 0 
L 581 0 
L 581 3500 
L 1159 3500 
L 1159 2956 
Q 1341 3275 1631 3429 
Q 1922 3584 2338 3584 
Q 2397 3584 2469 3576 
Q 2541 3569 2628 3553 
L 2631 2963 
z
" transform="scale(0.015625)"/>
      <path id="DejaVuSans-67" d="M 2906 1791 
Q 2906 2416 2648 2759 
Q 2391 3103 1925 3103 
Q 1463 3103 1205 2759 
Q 947 2416 947 1791 
Q 947 1169 1205 825 
Q 1463 481 1925 481 
Q 2391 481 2648 825 
Q 2906 1169 2906 1791 
z
M 3481 434 
Q 3481 -459 3084 -895 
Q 2688 -1331 1869 -1331 
Q 1566 -1331 1297 -1286 
Q 1028 -1241 775 -1147 
L 775 -588 
Q 1028 -725 1275 -790 
Q 1522 -856 1778 -856 
Q 2344 -856 2625 -561 
Q 2906 -266 2906 331 
L 2906 616 
Q 2728 306 2450 153 
Q 2172 0 1784 0 
Q 1141 0 747 490 
Q 353 981 353 1791 
Q 353 2603 747 3093 
Q 1141 3584 1784 3584 
Q 2172 3584 2450 3431 
Q 2728 3278 2906 2969 
L 2906 3500 
L 3481 3500 
L 3481 434 
z
" transform="scale(0.015625)"/>
      <path id="DejaVuSans-5f" d="M 3263 -1063 
L 3263 -1509 
L -63 -1509 
L -63 -1063 
L 3263 -1063 
z
" transform="scale(0.015625)"/>
      <path id="DejaVuSans-4e" d="M 628 4666 
L 1478 4666 
L 3547 763 
L 3547 4666 
L 4159 4666 
L 4159 0 
L 3309 0 
L 1241 3903 
L 1241 0 
L 628 0 
L 628 4666 
z
" transform="scale(0.015625)"/>
      <path id="DejaVuSans-6f" d="M 1959 3097 
Q 1497 3097 1228 2736 
Q 959 2375 959 1747 
Q 959 1119 1226 758 
Q 1494 397 1959 397 
Q 2419 397 2687 759 
Q 2956 1122 2956 1747 
Q 2956 2369 2687 2733 
Q 2419 3097 1959 3097 
z
M 1959 3584 
Q 2709 3584 3137 3096 
Q 3566 2609 3566 1747 
Q 3566 888 3137 398 
Q 2709 -91 1959 -91 
Q 1206 -91 779 398 
Q 353 888 353 1747 
Q 353 2609 779 3096 
Q 1206 3584 1959 3584 
z
" transform="scale(0.015625)"/>
      <path id="DejaVuSans-64" d="M 2906 2969 
L 2906 4863 
L 3481 4863 
L 3481 0 
L 2906 0 
L 2906 525 
Q 2725 213 2448 61 
Q 2172 -91 1784 -91 
Q 1150 -91 751 415 
Q 353 922 353 1747 
Q 353 2572 751 3078 
Q 1150 3584 1784 3584 
Q 2172 3584 2448 3432 
Q 2725 3281 2906 2969 
z
M 947 1747 
Q 947 1113 1208 752 
Q 1469 391 1925 391 
Q 2381 391 2643 752 
Q 2906 1113 2906 1747 
Q 2906 2381 2643 2742 
Q 2381 3103 1925 3103 
Q 1469 3103 1208 2742 
Q 947 2381 947 1747 
z
" transform="scale(0.015625)"/>
     </defs>
     <use xlink:href="#DejaVuSans-4c"/>
     <use xlink:href="#DejaVuSans-69" x="55.712891"/>
     <use xlink:href="#DejaVuSans-63" x="83.496094"/>
     <use xlink:href="#DejaVuSans-68" x="138.476562"/>
     <use xlink:href="#DejaVuSans-74" x="201.855469"/>
     <use xlink:href="#DejaVuSans-65" x="241.064453"/>
     <use xlink:href="#DejaVuSans-6e" x="302.587891"/>
     <use xlink:href="#DejaVuSans-62" x="365.966797"/>
     <use xlink:href="#DejaVuSans-65" x="429.443359"/>
     <use xlink:href="#DejaVuSans-72" x="490.966797"/>
     <use xlink:href="#DejaVuSans-67" x="530.330078"/>
     <use xlink:href="#DejaVuSans-5f" x="593.806641"/>
     <use xlink:href="#DejaVuSans-4e" x="643.806641"/>
     <use xlink:href="#DejaVuSans-6f" x="718.611328"/>
     <use xlink:href="#DejaVuSans-72" x="779.792969"/>
     <use xlink:href="#DejaVuSans-64" x="819.15625"/>
    </g>
   </g>
  </g>
 </g>
 <defs>
  <clipPath id="pe453030e79">
   <rect x="99.281821" y="41.472" width="273.756359" height="266.112"/>
  </clipPath>
 </defs>
</svg>
