<?xml version="1.0" encoding="utf-8" standalone="no"?>
<!DOCTYPE svg PUBLIC "-//W3C//DTD SVG 1.1//EN"
  "http://www.w3.org/Graphics/SVG/1.1/DTD/svg11.dtd">
<svg xmlns:xlink="http://www.w3.org/1999/xlink" width="460.8pt" height="345.6pt" viewBox="0 0 460.8 345.6" xmlns="http://www.w3.org/2000/svg" version="1.1">
 <metadata>
  <rdf:RDF xmlns:dc="http://purl.org/dc/elements/1.1/" xmlns:cc="http://creativecommons.org/ns#" xmlns:rdf="http://www.w3.org/1999/02/22-rdf-syntax-ns#">
   <cc:Work>
    <dc:type rdf:resource="http://purl.org/dc/dcmitype/StillImage"/>
    <dc:date>2024-10-15T09:53:26.126239</dc:date>
    <dc:format>image/svg+xml</dc:format>
    <dc:creator>
     <cc:Agent>
      <dc:title>Matplotlib v3.8.4, https://matplotlib.org/</dc:title>
     </cc:Agent>
    </dc:creator>
   </cc:Work>
  </rdf:RDF>
 </metadata>
 <defs>
  <style type="text/css">*{stroke-linejoin: round; stroke-linecap: butt}</style>
 </defs>
 <g id="figure_1">
  <g id="patch_1">
   <path d="M 0 345.6 
L 460.8 345.6 
L 460.8 0 
L 0 0 
z
" style="fill: #ffffff"/>
  </g>
  <g id="axes_1">
   <g id="patch_2">
    <path d="M 57.6 271.505449 
L 414.72 271.505449 
L 414.72 77.550551 
L 57.6 77.550551 
z
" style="fill: #ffffff"/>
   </g>
   <g id="PatchCollection_1">
    <path d="M 297.201949 91.973652 
L 297.20866 91.508249 
L 297.214689 91.006316 
L 295.597089 90.985424 
L 294.754325 90.988084 
L 294.728108 91.605531 
L 294.725077 91.902744 
L 294.552835 91.890749 
L 293.81525 91.860105 
L 293.838778 91.569606 
L 293.885782 90.508405 
L 294.002833 87.880119 
L 294.023696 87.231973 
L 290.825337 87.142324 
L 287.035313 87.019541 
L 282.626251 86.878814 
L 278.216481 86.817249 
L 276.165325 86.729504 
L 273.145902 86.599062 
L 272.189345 86.595191 
L 270.157603 86.568367 
L 267.243296 86.544308 
L 266.87359 86.575549 
L 266.006484 86.637602 
L 257.242154 87.290196 
L 255.188894 87.388013 
L 254.360784 87.427484 
L 252.183684 87.595635 
L 249.218083 88.323679 
L 247.876834 88.391863 
L 247.444285 87.921151 
L 246.621856 87.025991 
L 246.43386 86.821359 
L 246.210538 86.578314 
L 246.016009 86.366683 
L 245.016431 86.983626 
L 244.286622 87.434004 
L 243.789674 87.741386 
L 241.772177 88.685254 
L 239.78434 89.476344 
L 237.447287 90.226808 
L 234.173168 91.316757 
L 227.77522 93.930359 
L 221.620913 96.978947 
L 218.580009 98.664511 
L 215.666502 100.556513 
L 208.512416 105.202742 
L 206.848781 106.298771 
L 206.357552 106.602957 
L 205.273016 107.289436 
L 204.955275 107.490558 
L 204.468393 107.802059 
L 202.744666 108.912232 
L 202.707823 109.140665 
L 202.705713 109.161468 
L 202.70484 109.170069 
L 202.655895 109.462906 
L 198.889257 111.571038 
L 207.908109 112.952079 
L 208.431351 113.040275 
L 208.914698 113.132836 
L 208.613043 113.421734 
L 207.704027 114.234097 
L 207.646794 114.182007 
L 205.956079 115.763211 
L 205.979777 115.779855 
L 205.33032 116.335945 
L 205.104807 116.109646 
L 199.344008 121.264468 
L 199.762809 121.728668 
L 199.961973 121.551065 
L 200.23486 121.806871 
L 199.822137 122.11881 
L 200.092023 122.425137 
L 199.442311 123.022323 
L 199.487384 123.078332 
L 199.180465 123.862691 
L 198.282162 126.152882 
L 198.137783 126.520865 
L 197.862341 127.238016 
L 198.106104 127.526348 
L 197.786065 127.806704 
L 198.399887 128.477427 
L 198.077668 128.771298 
L 197.474487 128.081148 
L 197.437006 128.105604 
L 197.273481 127.926363 
L 197.178289 127.817984 
L 197.024841 127.957425 
L 196.549249 127.407722 
L 196.488924 127.338094 
L 196.632184 127.211002 
L 196.113588 126.634522 
L 194.327965 128.230572 
L 194.492193 128.424334 
L 194.212675 128.669504 
L 194.025154 128.833998 
L 193.875093 128.662481 
L 193.11285 129.314644 
L 192.459105 129.879785 
L 192.181017 130.152001 
L 191.839138 130.498305 
L 191.602718 130.131896 
L 191.15088 129.431634 
L 191.110596 129.36919 
L 190.669184 128.883067 
L 190.053299 129.448289 
L 188.221776 131.128823 
L 188.069709 131.216024 
L 187.597525 131.636808 
L 187.452056 131.753788 
L 187.620439 131.952166 
L 186.817126 132.529431 
L 185.501533 133.453139 
L 184.793902 133.995277 
L 182.827985 135.524173 
L 182.424793 135.755208 
L 180.996986 136.880831 
L 177.919122 139.420033 
L 177.661015 139.6541 
L 173.462124 142.962388 
L 172.185344 143.836502 
L 171.649909 144.309594 
L 170.109453 145.6707 
L 167.215256 148.263875 
L 167.037395 148.089752 
L 165.859736 149.124728 
L 162.719678 151.88441 
L 160.832165 153.72232 
L 158.99225 155.36652 
L 157.766758 156.539036 
L 157.457242 156.794671 
L 156.890016 157.196889 
L 153.598545 160.034929 
L 150.701746 162.456459 
L 147.929546 164.631192 
L 144.417843 167.081508 
L 141.329305 168.987205 
L 141.171542 169.077349 
L 139.464611 170.0366 
L 138.04355 170.828462 
L 137.5356 171.108032 
L 136.412519 171.596343 
L 134.867132 172.282806 
L 134.162335 172.396411 
L 134.01539 171.799598 
L 133.986303 171.68131 
L 133.861458 171.174125 
L 133.830124 171.047015 
L 133.708191 170.551839 
L 133.681792 170.444363 
L 133.610025 170.15279 
L 133.54126 169.813144 
L 133.481433 169.517647 
L 133.42711 169.531528 
L 132.799939 169.277061 
L 132.158474 169.016695 
L 131.287356 165.668073 
L 130.738777 163.711795 
L 130.397635 162.664078 
L 130.013424 161.56432 
L 129.505977 160.345658 
L 128.935782 159.12952 
L 128.192566 157.888488 
L 127.525694 156.792424 
L 126.593986 155.502954 
L 125.739621 154.456727 
L 124.696572 153.34006 
L 123.697512 152.36711 
L 122.509361 151.440631 
L 120.578103 150.126786 
L 119.163019 149.165563 
L 117.927394 148.342799 
L 117.216336 147.869269 
L 116.465074 147.363113 
L 115.767147 146.925852 
L 115.050453 146.482055 
L 114.354261 146.051562 
L 112.771288 145.105717 
L 112.017309 144.79055 
L 109.200453 143.771565 
L 108.389889 143.513149 
L 108.389113 143.512902 
L 107.409229 143.29068 
L 106.260764 143.039884 
L 105.436733 142.914935 
L 104.748718 142.810652 
L 103.207104 142.684349 
L 101.997548 142.654056 
L 101.268629 142.692487 
L 100.527817 142.731638 
L 100.526791 142.464982 
L 99.487528 142.614015 
L 98.812486 142.749873 
L 98.316677 142.883071 
L 96.772532 143.375498 
L 96.661999 143.033005 
L 95.445518 143.359054 
L 93.958592 143.857752 
L 91.03989 145.094268 
L 89.660726 145.831505 
L 88.98177 146.24488 
L 87.883438 147.011381 
L 87.695568 146.869389 
L 87.430491 147.072466 
L 87.264149 146.897742 
L 86.923625 147.163504 
L 86.872829 147.644054 
L 86.848315 147.875774 
L 85.297651 149.286595 
L 84.808375 149.731699 
L 84.687755 149.866696 
L 82.958591 151.950175 
L 82.501425 152.501033 
L 81.456415 154.133744 
L 81.290921 154.484223 
L 80.803563 155.343947 
L 80.77374 155.396529 
L 80.742671 155.437333 
L 80.535837 155.792692 
L 80.063688 156.603813 
L 79.854982 156.961813 
L 79.9871 157.185474 
L 80.432202 157.941049 
L 80.256669 158.25073 
L 80.250708 158.261393 
L 79.69564 159.237723 
L 78.025641 162.134077 
L 76.501777 164.930775 
L 76.038773 166.060201 
L 75.538738 167.281708 
L 73.832727 175.295806 
L 74.566194 175.507557 
L 84.869692 178.481959 
L 85.73654 178.732717 
L 91.902923 180.52448 
L 92.10251 180.582735 
L 93.202962 181.246951 
L 94.050881 181.881578 
L 94.195782 181.990007 
L 95.227018 182.223637 
L 95.42459 182.2684 
L 96.912324 182.605467 
L 97.379112 182.613188 
L 97.52896 182.422894 
L 97.786816 182.064398 
L 98.987603 182.408484 
L 99.418742 181.077306 
L 101.429008 181.674745 
L 103.086515 182.158224 
L 103.806326 182.358059 
L 106.7332 183.24023 
L 107.042594 183.209481 
L 109.100998 183.582684 
L 109.167823 183.268314 
L 109.653837 183.326794 
L 112.495223 184.301317 
L 114.848185 185.334394 
L 115.588757 185.737875 
L 117.05018 186.534123 
L 118.329381 187.417914 
L 119.424849 187.918143 
L 120.156177 188.344436 
L 122.23185 189.720049 
L 123.268571 190.175983 
L 124.147939 190.693457 
L 126.701975 192.205918 
L 127.156029 192.466623 
L 129.046311 193.55257 
L 129.250177 193.669642 
L 130.066919 194.138836 
L 130.138892 194.180199 
L 131.59156 195.177887 
L 131.794757 195.240959 
L 133.810298 196.579701 
L 137.335884 198.872949 
L 138.099985 199.408625 
L 138.98714 200.020802 
L 140.693519 201.273266 
L 142.298088 202.549754 
L 143.854949 203.600255 
L 145.534051 204.494948 
L 149.04332 206.963849 
L 152.591386 209.429906 
L 152.670469 209.487195 
L 155.180978 211.250598 
L 155.689145 211.626974 
L 158.792809 213.567274 
L 162.759553 216.011184 
L 167.537649 218.910272 
L 169.269992 219.988958 
L 174.090984 223.049957 
L 176.871737 224.933438 
L 177.112949 225.0827 
L 177.345871 225.226735 
L 179.981936 226.858063 
L 180.515697 227.169323 
L 184.582776 229.541512 
L 189.655236 232.465978 
L 191.348143 233.414233 
L 194.499321 235.212904 
L 196.097458 236.229914 
L 196.314951 236.36835 
L 197.954804 237.489262 
L 199.461697 238.744662 
L 199.782926 239.044239 
L 203.672463 242.671674 
L 204.485379 243.394074 
L 204.788646 243.663565 
L 205.364149 244.175054 
L 205.980715 244.097717 
L 206.997162 244.135085 
L 207.252268 244.564628 
L 208.229207 244.162161 
L 209.013356 243.930162 
L 209.517572 243.903054 
L 209.634525 244.838956 
L 209.677438 245.183228 
L 209.811515 246.258748 
L 210.701101 246.737763 
L 210.854509 246.820326 
L 211.707097 247.279175 
L 212.206136 247.548264 
L 212.923337 247.934246 
L 213.64063 248.321563 
L 214.428324 248.730155 
L 215.556718 249.315377 
L 215.648553 249.363214 
L 216.957858 250.042771 
L 218.298315 250.659668 
L 219.64675 251.279872 
L 220.948525 251.814827 
L 222.292865 252.375777 
L 223.583989 252.90743 
L 224.808561 253.411195 
L 226.02378 253.858344 
L 227.276899 254.321447 
L 228.38556 254.735808 
L 229.59964 255.189529 
L 229.674703 255.217578 
L 230.770759 255.627274 
L 232.755498 256.365757 
L 233.465868 256.629158 
L 234.172219 256.891244 
L 235.252899 257.246058 
L 236.303709 257.590826 
L 236.251724 257.77229 
L 236.171213 258.050573 
L 235.970892 258.742729 
L 235.667902 259.78985 
L 235.533137 260.25558 
L 236.002068 260.43077 
L 236.377865 260.575483 
L 237.037782 260.814731 
L 239.621961 261.751748 
L 240.026524 261.898403 
L 241.393307 262.393613 
L 242.035055 262.626112 
L 242.209395 262.689317 
L 242.501747 261.647891 
L 244.573823 261.974184 
L 244.723673 261.99782 
L 246.680744 262.248954 
L 247.881249 262.394934 
L 248.093208 262.42162 
L 248.982665 262.460148 
L 249.310545 262.474363 
L 250.20213 262.512917 
L 251.551325 262.571408 
L 252.800007 262.566646 
L 254.655316 262.55958 
L 257.950281 262.343106 
L 258.54653 262.413932 
L 258.475635 262.13245 
L 260.274835 261.847508 
L 260.980648 261.735688 
L 261.724895 261.597735 
L 263.554313 261.258771 
L 265.820092 260.708011 
L 267.210294 260.357136 
L 268.656026 260.002919 
L 268.891165 259.927844 
L 269.12383 259.84235 
L 269.565201 259.680193 
L 269.833511 259.581693 
L 271.537564 258.985488 
L 271.78649 258.885389 
L 273.063117 258.372369 
L 273.916357 258.02947 
L 275.58126 257.345935 
L 276.55125 256.962423 
L 276.789516 256.864482 
L 278.890468 256.020928 
L 281.24663 255.074833 
L 283.595604 254.131761 
L 283.62972 254.118065 
L 287.87669 252.41286 
L 289.050055 251.943775 
L 289.276707 251.853151 
L 290.879171 251.21246 
L 291.180368 251.079291 
L 291.782032 250.838911 
L 293.311269 250.229947 
L 293.400389 250.194437 
L 293.421103 250.186208 
L 293.599741 250.115047 
L 295.25709 249.454976 
L 295.731393 249.233561 
L 296.21232 249.02388 
L 297.506065 248.501935 
L 297.729076 248.411926 
L 298.890646 247.940318 
L 298.984729 247.896972 
L 299.152141 247.81991 
L 299.286047 247.766143 
L 301.958765 246.693592 
L 302.279167 246.57551 
L 303.037518 246.25631 
L 304.244813 245.753173 
L 304.490846 245.647224 
L 304.676144 245.573065 
L 305.549589 245.223032 
L 306.115223 244.992221 
L 306.306958 244.914063 
L 307.758049 244.321909 
L 307.840714 244.286003 
L 311.45964 242.821201 
L 311.66425 242.73838 
L 313.144252 242.141057 
L 313.859288 241.852512 
L 318.93039 239.791985 
L 323.77405 237.813817 
L 324.371556 237.693483 
L 324.563704 237.654805 
L 326.535829 236.955907 
L 326.723804 236.865768 
L 326.783676 236.837135 
L 326.853886 236.806689 
L 328.281843 236.188627 
L 329.062145 235.850834 
L 330.238664 235.341489 
L 332.588401 234.346287 
L 333.060197 234.14645 
L 334.2033 233.680815 
L 334.288392 233.646266 
L 337.078887 232.50978 
L 338.686508 231.85515 
L 339.829545 231.359261 
L 342.593471 230.160348 
L 343.120428 229.931792 
L 344.197751 229.464535 
L 344.659176 229.277397 
L 344.854498 229.198122 
L 347.017425 228.32047 
L 350.340768 226.972035 
L 350.880104 226.753175 
L 353.219524 225.804013 
L 354.035791 225.472816 
L 354.341875 225.348609 
L 356.881657 224.318167 
L 359.177838 223.386534 
L 360.180146 222.979942 
L 362.55498 222.016456 
L 363.506369 221.630517 
L 366.953275 220.232124 
L 369.426709 219.228804 
L 370.40285 218.832713 
L 371.725774 218.304804 
L 372.246757 218.09789 
L 373.97626 217.395278 
L 374.810926 217.070695 
L 378.257013 215.650099 
L 379.147237 215.289922 
L 380.719022 214.654034 
L 382.299375 214.010645 
L 383.929407 213.346982 
L 385.52546 212.696555 
L 388.880992 211.329191 
L 389.326025 211.147918 
L 390.559199 210.645381 
L 390.7674 210.560537 
L 392.296457 209.937575 
L 393.567814 209.425005 
L 393.637222 209.397058 
L 394.924934 208.883896 
L 396.109982 208.411696 
L 396.296399 208.447131 
L 398.487273 207.669346 
L 398.450633 207.662627 
L 397.988859 207.577951 
L 397.467804 207.482472 
L 397.066848 207.408969 
L 395.123216 207.052694 
L 394.952316 207.021546 
L 393.782008 206.806323 
L 390.556999 206.235774 
L 390.056921 206.145083 
L 389.224791 205.994108 
L 388.412887 205.846725 
L 388.359481 205.837072 
L 387.461762 203.447528 
L 386.080403 199.739622 
L 384.865455 196.484207 
L 384.68657 196.005166 
L 383.161317 191.867869 
L 381.863927 188.373604 
L 380.546448 184.887287 
L 379.631839 182.49064 
L 378.502869 179.450898 
L 376.597512 174.38622 
L 374.943808 169.959755 
L 374.638033 169.141535 
L 373.539146 166.133542 
L 372.377785 163.053668 
L 371.212942 159.970469 
L 370.050948 156.848405 
L 368.967027 153.874066 
L 372.664256 150.505294 
L 373.0443 149.560904 
L 373.158968 149.293498 
L 373.916783 147.525534 
L 373.613924 143.02088 
L 373.1123 136.445546 
L 373.90921 136.14527 
L 373.742193 129.150953 
L 373.733773 128.807027 
L 373.681082 126.540858 
L 373.55726 121.185861 
L 373.551047 120.918178 
L 382.570907 121.544222 
L 381.947042 121.438317 
L 380.927758 121.36058 
L 381.043757 119.630471 
L 380.95864 116.945774 
L 380.813185 112.750209 
L 380.418681 110.443832 
L 379.690988 107.618005 
L 378.56092 105.25788 
L 378.249235 104.906976 
L 377.966249 104.590098 
L 376.697506 102.552753 
L 374.935328 100.466087 
L 373.923917 99.49816 
L 371.333699 97.425874 
L 371.291761 97.398586 
L 370.063089 96.584996 
L 368.689558 95.836908 
L 366.896985 95.072677 
L 365.507134 94.583874 
L 363.488664 94.000574 
L 360.199279 93.902894 
L 358.698933 93.986797 
L 358.333335 94.007314 
L 355.511095 93.611085 
L 354.404954 93.461179 
L 353.423294 93.435575 
L 351.736735 93.392736 
L 350.701877 93.365358 
L 350.593506 93.3629 
L 348.093198 93.188434 
L 346.588216 93.119512 
L 346.370711 93.103858 
L 346.366593 93.103561 
L 345.817024 93.081567 
L 344.901548 93.005958 
L 342.089285 92.787558 
L 338.399121 92.725289 
L 333.851204 92.717008 
L 330.97382 92.8464 
L 328.179909 92.827268 
L 324.03617 92.771776 
L 322.858697 92.75961 
L 322.493668 92.755815 
L 321.741499 92.737344 
L 320.977162 92.539806 
L 320.723184 92.474121 
L 320.282072 92.286035 
L 319.337537 92.156278 
L 317.867826 91.954528 
L 317.055135 91.842881 
L 316.541332 91.835941 
L 315.714281 91.868365 
L 315.672546 91.870821 
L 313.726114 91.986017 
L 311.700307 92.176274 
L 309.479089 92.384833 
L 309.4774 92.384992 
L 309.301789 92.38066 
L 308.570417 92.347855 
L 307.484436 92.316528 
L 307.0462 92.302116 
L 306.797044 92.286958 
L 304.516943 92.213671 
L 302.186107 92.135506 
L 302.156652 92.988953 
L 300.952409 92.952942 
L 300.932956 93.208747 
L 300.309785 93.199278 
L 300.318451 92.89108 
L 300.341738 92.068101 
L 298.517647 92.022763 
L 297.201949 91.973652 
" clip-path="url(#pc7a216f089)" style="fill: #1f77b4"/>
   </g>
   <g id="matplotlib.axis_1">
    <g id="xtick_1">
     <g id="line2d_1">
      <defs>
       <path id="m6968c02a25" d="M 0 0 
L 0 3.5 
" style="stroke: #000000; stroke-width: 0.8"/>
      </defs>
      <g>
       <use xlink:href="#m6968c02a25" x="74.604439" y="271.505449" style="stroke: #000000; stroke-width: 0.8"/>
      </g>
     </g>
     <g id="text_1">
      <!-- 13.47 -->
      <g transform="translate(60.290377 286.103887) scale(0.1 -0.1)">
       <defs>
        <path id="DejaVuSans-31" d="M 794 531 
L 1825 531 
L 1825 4091 
L 703 3866 
L 703 4441 
L 1819 4666 
L 2450 4666 
L 2450 531 
L 3481 531 
L 3481 0 
L 794 0 
L 794 531 
z
" transform="scale(0.015625)"/>
        <path id="DejaVuSans-33" d="M 2597 2516 
Q 3050 2419 3304 2112 
Q 3559 1806 3559 1356 
Q 3559 666 3084 287 
Q 2609 -91 1734 -91 
Q 1441 -91 1130 -33 
Q 819 25 488 141 
L 488 750 
Q 750 597 1062 519 
Q 1375 441 1716 441 
Q 2309 441 2620 675 
Q 2931 909 2931 1356 
Q 2931 1769 2642 2001 
Q 2353 2234 1838 2234 
L 1294 2234 
L 1294 2753 
L 1863 2753 
Q 2328 2753 2575 2939 
Q 2822 3125 2822 3475 
Q 2822 3834 2567 4026 
Q 2313 4219 1838 4219 
Q 1578 4219 1281 4162 
Q 984 4106 628 3988 
L 628 4550 
Q 988 4650 1302 4700 
Q 1616 4750 1894 4750 
Q 2613 4750 3031 4423 
Q 3450 4097 3450 3541 
Q 3450 3153 3228 2886 
Q 3006 2619 2597 2516 
z
" transform="scale(0.015625)"/>
        <path id="DejaVuSans-2e" d="M 684 794 
L 1344 794 
L 1344 0 
L 684 0 
L 684 794 
z
" transform="scale(0.015625)"/>
        <path id="DejaVuSans-34" d="M 2419 4116 
L 825 1625 
L 2419 1625 
L 2419 4116 
z
M 2253 4666 
L 3047 4666 
L 3047 1625 
L 3713 1625 
L 3713 1100 
L 3047 1100 
L 3047 0 
L 2419 0 
L 2419 1100 
L 313 1100 
L 313 1709 
L 2253 4666 
z
" transform="scale(0.015625)"/>
        <path id="DejaVuSans-37" d="M 525 4666 
L 3525 4666 
L 3525 4397 
L 1831 0 
L 1172 0 
L 2766 4134 
L 525 4134 
L 525 4666 
z
" transform="scale(0.015625)"/>
       </defs>
       <use xlink:href="#DejaVuSans-31"/>
       <use xlink:href="#DejaVuSans-33" x="63.623047"/>
       <use xlink:href="#DejaVuSans-2e" x="127.246094"/>
       <use xlink:href="#DejaVuSans-34" x="159.033203"/>
       <use xlink:href="#DejaVuSans-37" x="222.65625"/>
      </g>
     </g>
    </g>
    <g id="xtick_2">
     <g id="line2d_2">
      <g>
       <use xlink:href="#m6968c02a25" x="119.753249" y="271.505449" style="stroke: #000000; stroke-width: 0.8"/>
      </g>
     </g>
     <g id="text_2">
      <!-- 13.48 -->
      <g transform="translate(105.439186 286.103887) scale(0.1 -0.1)">
       <defs>
        <path id="DejaVuSans-38" d="M 2034 2216 
Q 1584 2216 1326 1975 
Q 1069 1734 1069 1313 
Q 1069 891 1326 650 
Q 1584 409 2034 409 
Q 2484 409 2743 651 
Q 3003 894 3003 1313 
Q 3003 1734 2745 1975 
Q 2488 2216 2034 2216 
z
M 1403 2484 
Q 997 2584 770 2862 
Q 544 3141 544 3541 
Q 544 4100 942 4425 
Q 1341 4750 2034 4750 
Q 2731 4750 3128 4425 
Q 3525 4100 3525 3541 
Q 3525 3141 3298 2862 
Q 3072 2584 2669 2484 
Q 3125 2378 3379 2068 
Q 3634 1759 3634 1313 
Q 3634 634 3220 271 
Q 2806 -91 2034 -91 
Q 1263 -91 848 271 
Q 434 634 434 1313 
Q 434 1759 690 2068 
Q 947 2378 1403 2484 
z
M 1172 3481 
Q 1172 3119 1398 2916 
Q 1625 2713 2034 2713 
Q 2441 2713 2670 2916 
Q 2900 3119 2900 3481 
Q 2900 3844 2670 4047 
Q 2441 4250 2034 4250 
Q 1625 4250 1398 4047 
Q 1172 3844 1172 3481 
z
" transform="scale(0.015625)"/>
       </defs>
       <use xlink:href="#DejaVuSans-31"/>
       <use xlink:href="#DejaVuSans-33" x="63.623047"/>
       <use xlink:href="#DejaVuSans-2e" x="127.246094"/>
       <use xlink:href="#DejaVuSans-34" x="159.033203"/>
       <use xlink:href="#DejaVuSans-38" x="222.65625"/>
      </g>
     </g>
    </g>
    <g id="xtick_3">
     <g id="line2d_3">
      <g>
       <use xlink:href="#m6968c02a25" x="164.902058" y="271.505449" style="stroke: #000000; stroke-width: 0.8"/>
      </g>
     </g>
     <g id="text_3">
      <!-- 13.49 -->
      <g transform="translate(150.587995 286.103887) scale(0.1 -0.1)">
       <defs>
        <path id="DejaVuSans-39" d="M 703 97 
L 703 672 
Q 941 559 1184 500 
Q 1428 441 1663 441 
Q 2288 441 2617 861 
Q 2947 1281 2994 2138 
Q 2813 1869 2534 1725 
Q 2256 1581 1919 1581 
Q 1219 1581 811 2004 
Q 403 2428 403 3163 
Q 403 3881 828 4315 
Q 1253 4750 1959 4750 
Q 2769 4750 3195 4129 
Q 3622 3509 3622 2328 
Q 3622 1225 3098 567 
Q 2575 -91 1691 -91 
Q 1453 -91 1209 -44 
Q 966 3 703 97 
z
M 1959 2075 
Q 2384 2075 2632 2365 
Q 2881 2656 2881 3163 
Q 2881 3666 2632 3958 
Q 2384 4250 1959 4250 
Q 1534 4250 1286 3958 
Q 1038 3666 1038 3163 
Q 1038 2656 1286 2365 
Q 1534 2075 1959 2075 
z
" transform="scale(0.015625)"/>
       </defs>
       <use xlink:href="#DejaVuSans-31"/>
       <use xlink:href="#DejaVuSans-33" x="63.623047"/>
       <use xlink:href="#DejaVuSans-2e" x="127.246094"/>
       <use xlink:href="#DejaVuSans-34" x="159.033203"/>
       <use xlink:href="#DejaVuSans-39" x="222.65625"/>
      </g>
     </g>
    </g>
    <g id="xtick_4">
     <g id="line2d_4">
      <g>
       <use xlink:href="#m6968c02a25" x="210.050867" y="271.505449" style="stroke: #000000; stroke-width: 0.8"/>
      </g>
     </g>
     <g id="text_4">
      <!-- 13.50 -->
      <g transform="translate(195.736805 286.103887) scale(0.1 -0.1)">
       <defs>
        <path id="DejaVuSans-35" d="M 691 4666 
L 3169 4666 
L 3169 4134 
L 1269 4134 
L 1269 2991 
Q 1406 3038 1543 3061 
Q 1681 3084 1819 3084 
Q 2600 3084 3056 2656 
Q 3513 2228 3513 1497 
Q 3513 744 3044 326 
Q 2575 -91 1722 -91 
Q 1428 -91 1123 -41 
Q 819 9 494 109 
L 494 744 
Q 775 591 1075 516 
Q 1375 441 1709 441 
Q 2250 441 2565 725 
Q 2881 1009 2881 1497 
Q 2881 1984 2565 2268 
Q 2250 2553 1709 2553 
Q 1456 2553 1204 2497 
Q 953 2441 691 2322 
L 691 4666 
z
" transform="scale(0.015625)"/>
        <path id="DejaVuSans-30" d="M 2034 4250 
Q 1547 4250 1301 3770 
Q 1056 3291 1056 2328 
Q 1056 1369 1301 889 
Q 1547 409 2034 409 
Q 2525 409 2770 889 
Q 3016 1369 3016 2328 
Q 3016 3291 2770 3770 
Q 2525 4250 2034 4250 
z
M 2034 4750 
Q 2819 4750 3233 4129 
Q 3647 3509 3647 2328 
Q 3647 1150 3233 529 
Q 2819 -91 2034 -91 
Q 1250 -91 836 529 
Q 422 1150 422 2328 
Q 422 3509 836 4129 
Q 1250 4750 2034 4750 
z
" transform="scale(0.015625)"/>
       </defs>
       <use xlink:href="#DejaVuSans-31"/>
       <use xlink:href="#DejaVuSans-33" x="63.623047"/>
       <use xlink:href="#DejaVuSans-2e" x="127.246094"/>
       <use xlink:href="#DejaVuSans-35" x="159.033203"/>
       <use xlink:href="#DejaVuSans-30" x="222.65625"/>
      </g>
     </g>
    </g>
    <g id="xtick_5">
     <g id="line2d_5">
      <g>
       <use xlink:href="#m6968c02a25" x="255.199677" y="271.505449" style="stroke: #000000; stroke-width: 0.8"/>
      </g>
     </g>
     <g id="text_5">
      <!-- 13.51 -->
      <g transform="translate(240.885614 286.103887) scale(0.1 -0.1)">
       <use xlink:href="#DejaVuSans-31"/>
       <use xlink:href="#DejaVuSans-33" x="63.623047"/>
       <use xlink:href="#DejaVuSans-2e" x="127.246094"/>
       <use xlink:href="#DejaVuSans-35" x="159.033203"/>
       <use xlink:href="#DejaVuSans-31" x="222.65625"/>
      </g>
     </g>
    </g>
    <g id="xtick_6">
     <g id="line2d_6">
      <g>
       <use xlink:href="#m6968c02a25" x="300.348486" y="271.505449" style="stroke: #000000; stroke-width: 0.8"/>
      </g>
     </g>
     <g id="text_6">
      <!-- 13.52 -->
      <g transform="translate(286.034424 286.103887) scale(0.1 -0.1)">
       <defs>
        <path id="DejaVuSans-32" d="M 1228 531 
L 3431 531 
L 3431 0 
L 469 0 
L 469 531 
Q 828 903 1448 1529 
Q 2069 2156 2228 2338 
Q 2531 2678 2651 2914 
Q 2772 3150 2772 3378 
Q 2772 3750 2511 3984 
Q 2250 4219 1831 4219 
Q 1534 4219 1204 4116 
Q 875 4013 500 3803 
L 500 4441 
Q 881 4594 1212 4672 
Q 1544 4750 1819 4750 
Q 2544 4750 2975 4387 
Q 3406 4025 3406 3419 
Q 3406 3131 3298 2873 
Q 3191 2616 2906 2266 
Q 2828 2175 2409 1742 
Q 1991 1309 1228 531 
z
" transform="scale(0.015625)"/>
       </defs>
       <use xlink:href="#DejaVuSans-31"/>
       <use xlink:href="#DejaVuSans-33" x="63.623047"/>
       <use xlink:href="#DejaVuSans-2e" x="127.246094"/>
       <use xlink:href="#DejaVuSans-35" x="159.033203"/>
       <use xlink:href="#DejaVuSans-32" x="222.65625"/>
      </g>
     </g>
    </g>
    <g id="xtick_7">
     <g id="line2d_7">
      <g>
       <use xlink:href="#m6968c02a25" x="345.497296" y="271.505449" style="stroke: #000000; stroke-width: 0.8"/>
      </g>
     </g>
     <g id="text_7">
      <!-- 13.53 -->
      <g transform="translate(331.183233 286.103887) scale(0.1 -0.1)">
       <use xlink:href="#DejaVuSans-31"/>
       <use xlink:href="#DejaVuSans-33" x="63.623047"/>
       <use xlink:href="#DejaVuSans-2e" x="127.246094"/>
       <use xlink:href="#DejaVuSans-35" x="159.033203"/>
       <use xlink:href="#DejaVuSans-33" x="222.65625"/>
      </g>
     </g>
    </g>
    <g id="xtick_8">
     <g id="line2d_8">
      <g>
       <use xlink:href="#m6968c02a25" x="390.646105" y="271.505449" style="stroke: #000000; stroke-width: 0.8"/>
      </g>
     </g>
     <g id="text_8">
      <!-- 13.54 -->
      <g transform="translate(376.332043 286.103887) scale(0.1 -0.1)">
       <use xlink:href="#DejaVuSans-31"/>
       <use xlink:href="#DejaVuSans-33" x="63.623047"/>
       <use xlink:href="#DejaVuSans-2e" x="127.246094"/>
       <use xlink:href="#DejaVuSans-35" x="159.033203"/>
       <use xlink:href="#DejaVuSans-34" x="222.65625"/>
      </g>
     </g>
    </g>
   </g>
   <g id="matplotlib.axis_2">
    <g id="ytick_1">
     <g id="line2d_9">
      <defs>
       <path id="mdc6c09c782" d="M 0 0 
L -3.5 0 
" style="stroke: #000000; stroke-width: 0.8"/>
      </defs>
      <g>
       <use xlink:href="#mdc6c09c782" x="57.6" y="269.21132" style="stroke: #000000; stroke-width: 0.8"/>
      </g>
     </g>
     <g id="text_9">
      <!-- 52.490 -->
      <g transform="translate(15.609375 273.010539) scale(0.1 -0.1)">
       <use xlink:href="#DejaVuSans-35"/>
       <use xlink:href="#DejaVuSans-32" x="63.623047"/>
       <use xlink:href="#DejaVuSans-2e" x="127.246094"/>
       <use xlink:href="#DejaVuSans-34" x="159.033203"/>
       <use xlink:href="#DejaVuSans-39" x="222.65625"/>
       <use xlink:href="#DejaVuSans-30" x="286.279297"/>
      </g>
     </g>
    </g>
    <g id="ytick_2">
     <g id="line2d_10">
      <g>
       <use xlink:href="#mdc6c09c782" x="57.6" y="232.126472" style="stroke: #000000; stroke-width: 0.8"/>
      </g>
     </g>
     <g id="text_10">
      <!-- 52.495 -->
      <g transform="translate(15.609375 235.925691) scale(0.1 -0.1)">
       <use xlink:href="#DejaVuSans-35"/>
       <use xlink:href="#DejaVuSans-32" x="63.623047"/>
       <use xlink:href="#DejaVuSans-2e" x="127.246094"/>
       <use xlink:href="#DejaVuSans-34" x="159.033203"/>
       <use xlink:href="#DejaVuSans-39" x="222.65625"/>
       <use xlink:href="#DejaVuSans-35" x="286.279297"/>
      </g>
     </g>
    </g>
    <g id="ytick_3">
     <g id="line2d_11">
      <g>
       <use xlink:href="#mdc6c09c782" x="57.6" y="195.041624" style="stroke: #000000; stroke-width: 0.8"/>
      </g>
     </g>
     <g id="text_11">
      <!-- 52.500 -->
      <g transform="translate(15.609375 198.840843) scale(0.1 -0.1)">
       <use xlink:href="#DejaVuSans-35"/>
       <use xlink:href="#DejaVuSans-32" x="63.623047"/>
       <use xlink:href="#DejaVuSans-2e" x="127.246094"/>
       <use xlink:href="#DejaVuSans-35" x="159.033203"/>
       <use xlink:href="#DejaVuSans-30" x="222.65625"/>
       <use xlink:href="#DejaVuSans-30" x="286.279297"/>
      </g>
     </g>
    </g>
    <g id="ytick_4">
     <g id="line2d_12">
      <g>
       <use xlink:href="#mdc6c09c782" x="57.6" y="157.956777" style="stroke: #000000; stroke-width: 0.8"/>
      </g>
     </g>
     <g id="text_12">
      <!-- 52.505 -->
      <g transform="translate(15.609375 161.755995) scale(0.1 -0.1)">
       <use xlink:href="#DejaVuSans-35"/>
       <use xlink:href="#DejaVuSans-32" x="63.623047"/>
       <use xlink:href="#DejaVuSans-2e" x="127.246094"/>
       <use xlink:href="#DejaVuSans-35" x="159.033203"/>
       <use xlink:href="#DejaVuSans-30" x="222.65625"/>
       <use xlink:href="#DejaVuSans-35" x="286.279297"/>
      </g>
     </g>
    </g>
    <g id="ytick_5">
     <g id="line2d_13">
      <g>
       <use xlink:href="#mdc6c09c782" x="57.6" y="120.871929" style="stroke: #000000; stroke-width: 0.8"/>
      </g>
     </g>
     <g id="text_13">
      <!-- 52.510 -->
      <g transform="translate(15.609375 124.671147) scale(0.1 -0.1)">
       <use xlink:href="#DejaVuSans-35"/>
       <use xlink:href="#DejaVuSans-32" x="63.623047"/>
       <use xlink:href="#DejaVuSans-2e" x="127.246094"/>
       <use xlink:href="#DejaVuSans-35" x="159.033203"/>
       <use xlink:href="#DejaVuSans-31" x="222.65625"/>
       <use xlink:href="#DejaVuSans-30" x="286.279297"/>
      </g>
     </g>
    </g>
    <g id="ytick_6">
     <g id="line2d_14">
      <g>
       <use xlink:href="#mdc6c09c782" x="57.6" y="83.787081" style="stroke: #000000; stroke-width: 0.8"/>
      </g>
     </g>
     <g id="text_14">
      <!-- 52.515 -->
      <g transform="translate(15.609375 87.5863) scale(0.1 -0.1)">
       <use xlink:href="#DejaVuSans-35"/>
       <use xlink:href="#DejaVuSans-32" x="63.623047"/>
       <use xlink:href="#DejaVuSans-2e" x="127.246094"/>
       <use xlink:href="#DejaVuSans-35" x="159.033203"/>
       <use xlink:href="#DejaVuSans-31" x="222.65625"/>
       <use xlink:href="#DejaVuSans-35" x="286.279297"/>
      </g>
     </g>
    </g>
   </g>
   <g id="patch_3">
    <path d="M 57.6 271.505449 
L 57.6 77.550551 
" style="fill: none; stroke: #000000; stroke-width: 0.8; stroke-linejoin: miter; stroke-linecap: square"/>
   </g>
   <g id="patch_4">
    <path d="M 414.72 271.505449 
L 414.72 77.550551 
" style="fill: none; stroke: #000000; stroke-width: 0.8; stroke-linejoin: miter; stroke-linecap: square"/>
   </g>
   <g id="patch_5">
    <path d="M 57.6 271.505449 
L 414.72 271.505449 
" style="fill: none; stroke: #000000; stroke-width: 0.8; stroke-linejoin: miter; stroke-linecap: square"/>
   </g>
   <g id="patch_6">
    <path d="M 57.6 77.550551 
L 414.72 77.550551 
" style="fill: none; stroke: #000000; stroke-width: 0.8; stroke-linejoin: miter; stroke-linecap: square"/>
   </g>
   <g id="text_15">
    <!-- Lichtenberg_Mitte -->
    <g transform="translate(206.042475 174.579373) scale(0.12 -0.12)">
     <defs>
      <path id="DejaVuSans-4c" d="M 628 4666 
L 1259 4666 
L 1259 531 
L 3531 531 
L 3531 0 
L 628 0 
L 628 4666 
z
" transform="scale(0.015625)"/>
      <path id="DejaVuSans-69" d="M 603 3500 
L 1178 3500 
L 1178 0 
L 603 0 
L 603 3500 
z
M 603 4863 
L 1178 4863 
L 1178 4134 
L 603 4134 
L 603 4863 
z
" transform="scale(0.015625)"/>
      <path id="DejaVuSans-63" d="M 3122 3366 
L 3122 2828 
Q 2878 2963 2633 3030 
Q 2388 3097 2138 3097 
Q 1578 3097 1268 2742 
Q 959 2388 959 1747 
Q 959 1106 1268 751 
Q 1578 397 2138 397 
Q 2388 397 2633 464 
Q 2878 531 3122 666 
L 3122 134 
Q 2881 22 2623 -34 
Q 2366 -91 2075 -91 
Q 1284 -91 818 406 
Q 353 903 353 1747 
Q 353 2603 823 3093 
Q 1294 3584 2113 3584 
Q 2378 3584 2631 3529 
Q 2884 3475 3122 3366 
z
" transform="scale(0.015625)"/>
      <path id="DejaVuSans-68" d="M 3513 2113 
L 3513 0 
L 2938 0 
L 2938 2094 
Q 2938 2591 2744 2837 
Q 2550 3084 2163 3084 
Q 1697 3084 1428 2787 
Q 1159 2491 1159 1978 
L 1159 0 
L 581 0 
L 581 4863 
L 1159 4863 
L 1159 2956 
Q 1366 3272 1645 3428 
Q 1925 3584 2291 3584 
Q 2894 3584 3203 3211 
Q 3513 2838 3513 2113 
z
" transform="scale(0.015625)"/>
      <path id="DejaVuSans-74" d="M 1172 4494 
L 1172 3500 
L 2356 3500 
L 2356 3053 
L 1172 3053 
L 1172 1153 
Q 1172 725 1289 603 
Q 1406 481 1766 481 
L 2356 481 
L 2356 0 
L 1766 0 
Q 1100 0 847 248 
Q 594 497 594 1153 
L 594 3053 
L 172 3053 
L 172 3500 
L 594 3500 
L 594 4494 
L 1172 4494 
z
" transform="scale(0.015625)"/>
      <path id="DejaVuSans-65" d="M 3597 1894 
L 3597 1613 
L 953 1613 
Q 991 1019 1311 708 
Q 1631 397 2203 397 
Q 2534 397 2845 478 
Q 3156 559 3463 722 
L 3463 178 
Q 3153 47 2828 -22 
Q 2503 -91 2169 -91 
Q 1331 -91 842 396 
Q 353 884 353 1716 
Q 353 2575 817 3079 
Q 1281 3584 2069 3584 
Q 2775 3584 3186 3129 
Q 3597 2675 3597 1894 
z
M 3022 2063 
Q 3016 2534 2758 2815 
Q 2500 3097 2075 3097 
Q 1594 3097 1305 2825 
Q 1016 2553 972 2059 
L 3022 2063 
z
" transform="scale(0.015625)"/>
      <path id="DejaVuSans-6e" d="M 3513 2113 
L 3513 0 
L 2938 0 
L 2938 2094 
Q 2938 2591 2744 2837 
Q 2550 3084 2163 3084 
Q 1697 3084 1428 2787 
Q 1159 2491 1159 1978 
L 1159 0 
L 581 0 
L 581 3500 
L 1159 3500 
L 1159 2956 
Q 1366 3272 1645 3428 
Q 1925 3584 2291 3584 
Q 2894 3584 3203 3211 
Q 3513 2838 3513 2113 
z
" transform="scale(0.015625)"/>
      <path id="DejaVuSans-62" d="M 3116 1747 
Q 3116 2381 2855 2742 
Q 2594 3103 2138 3103 
Q 1681 3103 1420 2742 
Q 1159 2381 1159 1747 
Q 1159 1113 1420 752 
Q 1681 391 2138 391 
Q 2594 391 2855 752 
Q 3116 1113 3116 1747 
z
M 1159 2969 
Q 1341 3281 1617 3432 
Q 1894 3584 2278 3584 
Q 2916 3584 3314 3078 
Q 3713 2572 3713 1747 
Q 3713 922 3314 415 
Q 2916 -91 2278 -91 
Q 1894 -91 1617 61 
Q 1341 213 1159 525 
L 1159 0 
L 581 0 
L 581 4863 
L 1159 4863 
L 1159 2969 
z
" transform="scale(0.015625)"/>
      <path id="DejaVuSans-72" d="M 2631 2963 
Q 2534 3019 2420 3045 
Q 2306 3072 2169 3072 
Q 1681 3072 1420 2755 
Q 1159 2438 1159 1844 
L 1159 0 
L 581 0 
L 581 3500 
L 1159 3500 
L 1159 2956 
Q 1341 3275 1631 3429 
Q 1922 3584 2338 3584 
Q 2397 3584 2469 3576 
Q 2541 3569 2628 3553 
L 2631 2963 
z
" transform="scale(0.015625)"/>
      <path id="DejaVuSans-67" d="M 2906 1791 
Q 2906 2416 2648 2759 
Q 2391 3103 1925 3103 
Q 1463 3103 1205 2759 
Q 947 2416 947 1791 
Q 947 1169 1205 825 
Q 1463 481 1925 481 
Q 2391 481 2648 825 
Q 2906 1169 2906 1791 
z
M 3481 434 
Q 3481 -459 3084 -895 
Q 2688 -1331 1869 -1331 
Q 1566 -1331 1297 -1286 
Q 1028 -1241 775 -1147 
L 775 -588 
Q 1028 -725 1275 -790 
Q 1522 -856 1778 -856 
Q 2344 -856 2625 -561 
Q 2906 -266 2906 331 
L 2906 616 
Q 2728 306 2450 153 
Q 2172 0 1784 0 
Q 1141 0 747 490 
Q 353 981 353 1791 
Q 353 2603 747 3093 
Q 1141 3584 1784 3584 
Q 2172 3584 2450 3431 
Q 2728 3278 2906 2969 
L 2906 3500 
L 3481 3500 
L 3481 434 
z
" transform="scale(0.015625)"/>
      <path id="DejaVuSans-5f" d="M 3263 -1063 
L 3263 -1509 
L -63 -1509 
L -63 -1063 
L 3263 -1063 
z
" transform="scale(0.015625)"/>
      <path id="DejaVuSans-4d" d="M 628 4666 
L 1569 4666 
L 2759 1491 
L 3956 4666 
L 4897 4666 
L 4897 0 
L 4281 0 
L 4281 4097 
L 3078 897 
L 2444 897 
L 1241 4097 
L 1241 0 
L 628 0 
L 628 4666 
z
" transform="scale(0.015625)"/>
     </defs>
     <use xlink:href="#DejaVuSans-4c"/>
     <use xlink:href="#DejaVuSans-69" x="55.712891"/>
     <use xlink:href="#DejaVuSans-63" x="83.496094"/>
     <use xlink:href="#DejaVuSans-68" x="138.476562"/>
     <use xlink:href="#DejaVuSans-74" x="201.855469"/>
     <use xlink:href="#DejaVuSans-65" x="241.064453"/>
     <use xlink:href="#DejaVuSans-6e" x="302.587891"/>
     <use xlink:href="#DejaVuSans-62" x="365.966797"/>
     <use xlink:href="#DejaVuSans-65" x="429.443359"/>
     <use xlink:href="#DejaVuSans-72" x="490.966797"/>
     <use xlink:href="#DejaVuSans-67" x="530.330078"/>
     <use xlink:href="#DejaVuSans-5f" x="593.806641"/>
     <use xlink:href="#DejaVuSans-4d" x="643.806641"/>
     <use xlink:href="#DejaVuSans-69" x="730.085938"/>
     <use xlink:href="#DejaVuSans-74" x="757.869141"/>
     <use xlink:href="#DejaVuSans-74" x="797.078125"/>
     <use xlink:href="#DejaVuSans-65" x="836.287109"/>
    </g>
   </g>
  </g>
 </g>
 <defs>
  <clipPath id="pc7a216f089">
   <rect x="57.6" y="77.550551" width="357.12" height="193.954898"/>
  </clipPath>
 </defs>
</svg>
