<?xml version="1.0" encoding="utf-8" standalone="no"?>
<!DOCTYPE svg PUBLIC "-//W3C//DTD SVG 1.1//EN"
  "http://www.w3.org/Graphics/SVG/1.1/DTD/svg11.dtd">
<svg xmlns:xlink="http://www.w3.org/1999/xlink" width="460.8pt" height="345.6pt" viewBox="0 0 460.8 345.6" xmlns="http://www.w3.org/2000/svg" version="1.1">
 <metadata>
  <rdf:RDF xmlns:dc="http://purl.org/dc/elements/1.1/" xmlns:cc="http://creativecommons.org/ns#" xmlns:rdf="http://www.w3.org/1999/02/22-rdf-syntax-ns#">
   <cc:Work>
    <dc:type rdf:resource="http://purl.org/dc/dcmitype/StillImage"/>
    <dc:date>2024-10-15T09:53:25.696644</dc:date>
    <dc:format>image/svg+xml</dc:format>
    <dc:creator>
     <cc:Agent>
      <dc:title>Matplotlib v3.8.4, https://matplotlib.org/</dc:title>
     </cc:Agent>
    </dc:creator>
   </cc:Work>
  </rdf:RDF>
 </metadata>
 <defs>
  <style type="text/css">*{stroke-linejoin: round; stroke-linecap: butt}</style>
 </defs>
 <g id="figure_1">
  <g id="patch_1">
   <path d="M 0 345.6 
L 460.8 345.6 
L 460.8 0 
L 0 0 
z
" style="fill: #ffffff"/>
  </g>
  <g id="axes_1">
   <g id="patch_2">
    <path d="M 106.535267 307.584 
L 365.784733 307.584 
L 365.784733 41.472 
L 106.535267 41.472 
z
" style="fill: #ffffff"/>
   </g>
   <g id="PatchCollection_1">
    <path d="M 163.882317 95.924059 
L 163.596837 96.028331 
L 163.524162 96.05483 
L 163.422878 96.091697 
L 163.380039 96.116821 
L 163.087852 96.287181 
L 159.92975 98.168177 
L 158.795225 98.84394 
L 156.145054 100.422413 
L 154.492192 101.404352 
L 153.025476 102.291695 
L 152.919804 102.349496 
L 152.241158 102.718801 
L 151.970991 102.865305 
L 151.694696 103.003217 
L 148.829638 104.361806 
L 148.462646 104.517701 
L 148.199551 104.687131 
L 146.175665 105.829513 
L 146.092431 105.878974 
L 145.823548 106.031238 
L 145.818602 106.03407 
L 145.552603 106.186338 
L 145.468988 106.237038 
L 145.18456 106.39466 
L 144.571552 106.808453 
L 144.439379 106.888019 
L 143.514736 107.500486 
L 143.399312 107.57717 
L 142.474227 108.193301 
L 142.189949 108.382494 
L 142.160997 108.401032 
L 141.846896 108.600993 
L 141.531995 108.801752 
L 141.218335 109.001294 
L 140.905453 109.200818 
L 140.776571 109.282854 
L 140.57943 109.381989 
L 140.250067 109.547575 
L 139.838718 109.754437 
L 139.568537 109.892349 
L 139.291821 110.025367 
L 138.209418 110.546267 
L 137.663719 110.808564 
L 136.681757 111.288101 
L 136.057301 111.591277 
L 135.998146 111.621823 
L 135.393895 111.924663 
L 135.181502 112.031082 
L 134.11963 112.563382 
L 133.845357 112.700903 
L 133.573589 112.847838 
L 132.492684 113.427774 
L 132.475936 113.43603 
L 131.302412 114.0659 
L 130.714015 114.381674 
L 130.119918 114.700328 
L 129.525782 115.019025 
L 129.252016 115.165971 
L 128.507003 115.590097 
L 128.381373 115.661898 
L 127.362194 116.242045 
L 127.310785 116.271309 
L 126.919385 117.398964 
L 126.711468 117.344448 
L 126.577751 117.309221 
L 126.444187 117.27354 
L 126.310735 117.237405 
L 126.177763 117.200768 
L 126.044903 117.163677 
L 125.912196 117.126131 
L 125.644367 117.280244 
L 125.212179 117.578142 
L 124.732525 117.889799 
L 124.691328 117.916574 
L 123.286327 118.837162 
L 122.323838 119.467489 
L 121.869319 119.765169 
L 121.600001 119.941543 
L 121.396018 120.07513 
L 120.921279 120.384757 
L 119.551806 121.281431 
L 118.319334 122.088211 
L 118.708459 123.519305 
L 119.179716 125.252527 
L 119.189368 125.311467 
L 119.308334 126.037997 
L 119.302774 126.188389 
L 119.274729 126.956468 
L 119.263986 127.248674 
L 119.277776 127.839123 
L 119.287579 128.262385 
L 119.297023 128.686065 
L 119.309783 129.231479 
L 119.295387 129.519587 
L 119.275287 129.924963 
L 119.266126 130.091386 
L 119.253619 130.336894 
L 119.227146 130.88571 
L 119.198399 131.068574 
L 119.089884 131.755804 
L 118.940674 132.702597 
L 118.92437 132.817812 
L 118.894133 133.000822 
L 118.859262 133.211881 
L 119.246907 133.221834 
L 119.900712 133.234817 
L 120.002942 133.236897 
L 119.937393 135.039319 
L 119.862767 137.112056 
L 119.552516 144.040689 
L 119.19756 151.637541 
L 120.943609 153.421063 
L 123.009787 155.531562 
L 127.227886 159.759063 
L 127.564353 160.096892 
L 127.839323 160.372829 
L 129.972085 162.509383 
L 129.988072 162.525294 
L 131.525083 164.060688 
L 132.691923 165.238569 
L 133.044682 165.620929 
L 133.308829 165.89995 
L 133.971688 166.600214 
L 134.457579 167.10511 
L 134.951031 167.618854 
L 135.458471 168.147121 
L 135.969511 168.67912 
L 136.073786 168.804078 
L 136.516852 169.25178 
L 137.066076 169.806729 
L 137.764453 170.48024 
L 138.423562 171.130338 
L 139.477981 172.170201 
L 139.623154 172.313332 
L 139.656542 172.344548 
L 140.82535 173.449615 
L 141.109723 173.676646 
L 142.496857 174.78493 
L 142.633009 174.891246 
L 142.776673 175.006001 
L 144.031569 175.98124 
L 144.811268 176.591007 
L 145.081502 176.800942 
L 145.551854 177.167927 
L 145.896774 177.486283 
L 145.986394 177.569027 
L 146.121681 177.693935 
L 146.574043 178.133247 
L 147.091267 178.635694 
L 147.342337 178.878993 
L 148.493206 179.99542 
L 148.529632 180.034481 
L 148.994868 180.484698 
L 149.431977 180.917435 
L 149.856456 181.336153 
L 150.335101 181.806239 
L 150.793937 182.257754 
L 150.821896 182.285939 
L 151.26211 182.623408 
L 152.099124 183.265064 
L 152.600181 183.649159 
L 152.651988 183.688485 
L 153.231307 184.128032 
L 153.731187 184.507278 
L 154.241384 184.894366 
L 154.754867 185.283964 
L 155.243132 185.654458 
L 155.793354 186.071962 
L 156.258438 186.424824 
L 156.269432 186.433553 
L 156.762191 186.825719 
L 157.262902 187.224224 
L 157.78306 187.638196 
L 158.290722 188.042244 
L 158.787762 188.437803 
L 158.885421 188.515528 
L 159.266424 188.84358 
L 159.733473 189.256676 
L 160.085171 189.56748 
L 160.236323 189.704954 
L 160.714249 190.147119 
L 161.195599 190.592445 
L 161.676697 191.037574 
L 162.14852 191.474141 
L 162.616456 191.907107 
L 163.087356 192.342795 
L 163.223813 192.465395 
L 163.522545 192.718494 
L 163.929687 193.085485 
L 164.410382 193.51878 
L 164.568458 193.662578 
L 164.954405 193.915376 
L 165.108447 194.016421 
L 166.083558 194.654952 
L 166.207295 194.736065 
L 167.089554 195.245431 
L 168.043901 195.796336 
L 168.456985 196.084972 
L 169.673979 196.93077 
L 169.947257 197.122984 
L 170.247627 197.329044 
L 173.118109 199.355974 
L 175.469254 200.546406 
L 178.074983 201.839247 
L 182.122772 204.30827 
L 185.468827 206.352928 
L 189.53768 208.837613 
L 194.58045 211.916426 
L 199.580064 214.970468 
L 199.525164 215.275147 
L 198.434006 221.322571 
L 197.728263 225.169325 
L 196.946465 229.440467 
L 196.1085 234.123659 
L 195.592163 236.960008 
L 195.140856 239.458485 
L 196.733925 239.510595 
L 203.098137 240.027004 
L 208.482376 240.525311 
L 212.992549 240.673537 
L 215.992971 240.739795 
L 218.361197 240.688581 
L 218.567518 240.673118 
L 222.805997 240.354127 
L 223.701081 240.287159 
L 224.565115 240.221098 
L 225.352363 240.167589 
L 226.02482 240.121866 
L 228.619016 239.945858 
L 229.679575 239.872212 
L 231.505339 239.746401 
L 236.171965 239.380333 
L 238.241436 239.189799 
L 239.156916 239.105634 
L 240.498068 238.982306 
L 242.282736 238.787485 
L 242.44077 240.189134 
L 242.521908 240.999155 
L 242.608331 241.918157 
L 242.686962 242.848979 
L 242.789288 243.889395 
L 242.882722 244.967525 
L 242.978142 245.929131 
L 243.076019 246.995723 
L 243.116448 247.387689 
L 243.155757 247.768794 
L 243.25522 248.809356 
L 243.372479 250.043655 
L 243.452394 250.86338 
L 243.531123 251.683131 
L 243.609819 252.503252 
L 243.688506 253.323004 
L 243.76765 254.143115 
L 243.846345 254.963277 
L 243.924606 255.784228 
L 244.004701 256.645359 
L 244.138531 258.081212 
L 244.172835 258.451123 
L 244.197732 258.819031 
L 244.326606 260.725385 
L 244.419369 262.097869 
L 244.430529 262.263381 
L 244.528042 263.70431 
L 244.55336 264.078359 
L 244.57872 264.452406 
L 244.604029 264.826045 
L 244.632815 265.251307 
L 244.662894 265.697901 
L 244.678343 265.924038 
L 244.704971 266.320239 
L 244.783129 267.477226 
L 244.793879 267.631678 
L 244.85568 268.170345 
L 244.85409 268.17608 
L 244.619062 269.275125 
L 244.466114 269.987717 
L 244.671763 271.525203 
L 244.900035 273.190594 
L 244.879143 274.538846 
L 244.616216 276.497502 
L 244.497928 277.936327 
L 244.508252 279.677479 
L 244.48045 280.804734 
L 244.577052 281.901655 
L 244.894682 283.433562 
L 245.102751 284.9097 
L 245.431474 287.634946 
L 245.554788 287.642152 
L 248.454108 287.811476 
L 248.746743 287.819618 
L 249.014287 287.835413 
L 250.291977 287.903927 
L 251.696955 287.980144 
L 253.118676 288.055752 
L 254.507345 288.130221 
L 254.560386 288.133301 
L 255.941679 288.221721 
L 258.705264 288.39586 
L 260.42648 288.505475 
L 262.220656 288.630004 
L 263.952953 288.775073 
L 264.057579 288.783814 
L 264.16964 288.574353 
L 264.482256 288.593429 
L 264.870918 288.617128 
L 269.598377 288.905199 
L 272.753388 289.294155 
L 273.368378 289.370241 
L 276.365527 289.733569 
L 278.993793 289.976919 
L 279.617688 290.043684 
L 283.100088 290.593928 
L 284.248055 290.775329 
L 288.794314 291.583274 
L 289.117542 291.629829 
L 290.752734 291.829553 
L 294.630155 291.98348 
L 297.60303 292.255699 
L 300.491307 292.772753 
L 302.944253 293.227376 
L 305.125022 293.45663 
L 307.344043 293.133701 
L 308.371959 292.921174 
L 309.734657 292.717472 
L 310.468471 292.572854 
L 313.321412 292.122991 
L 313.310097 292.168135 
L 312.787219 294.255173 
L 319.991425 294.646083 
L 322.846571 294.801298 
L 324.17043 294.872384 
L 325.308761 294.933816 
L 326.696292 295.00844 
L 326.87811 295.018595 
L 326.928801 295.020885 
L 327.025216 295.026354 
L 327.753974 295.065835 
L 327.799123 295.070789 
L 327.956421 295.079228 
L 328.140631 295.086625 
L 328.269941 295.093669 
L 330.454461 295.212334 
L 330.811298 295.232061 
L 330.985867 295.241558 
L 331.34241 295.260924 
L 331.519843 295.270564 
L 331.898402 295.291169 
L 332.958539 295.348824 
L 333.365292 295.370947 
L 335.517399 295.488 
L 336.038367 294.089408 
L 336.114091 293.884146 
L 336.334546 293.286381 
L 337.099986 291.358054 
L 337.479771 290.435365 
L 337.851405 289.532371 
L 338.21046 288.646587 
L 338.563439 287.780124 
L 338.906277 286.932087 
L 339.614105 285.280671 
L 342.360076 278.848853 
L 342.838392 277.733045 
L 343.304757 276.644559 
L 343.761382 275.564732 
L 344.2058 274.513587 
L 344.640121 273.486648 
L 345.598156 271.277645 
L 345.752761 270.918554 
L 345.921265 270.525581 
L 346.027671 270.277259 
L 346.171468 269.941815 
L 346.241813 269.777797 
L 346.275271 269.6997 
L 346.45568 269.278833 
L 346.569173 269.014203 
L 346.899186 268.242802 
L 347.220661 267.490325 
L 347.526344 266.774807 
L 347.827429 266.071443 
L 348.129847 265.3635 
L 348.256353 265.067303 
L 348.435961 264.646825 
L 348.761356 263.884221 
L 349.057404 263.189497 
L 349.351058 262.499295 
L 349.641302 261.819458 
L 349.960055 261.072499 
L 350.286131 260.306889 
L 350.609567 259.547569 
L 350.923624 258.809939 
L 351.089534 258.426498 
L 351.248101 258.047482 
L 351.56981 257.29304 
L 351.891149 256.538401 
L 352.307996 255.542898 
L 352.345994 255.455273 
L 352.376479 255.38499 
L 352.400659 255.329359 
L 352.465189 255.192694 
L 352.578708 254.911626 
L 352.636865 254.767637 
L 353.152516 253.535996 
L 353.659586 252.353251 
L 354.000666 251.522254 
L 353.970089 249.723739 
L 353.937733 249.202562 
L 353.905089 248.651092 
L 353.892141 248.544161 
L 353.681752 247.457793 
L 353.521322 246.641137 
L 353.370216 245.843508 
L 353.21985 245.040491 
L 353.080027 244.23544 
L 353.006427 243.831561 
L 352.932516 243.424654 
L 352.780338 242.617413 
L 352.686232 242.120174 
L 352.588426 241.78033 
L 352.364372 240.990033 
L 352.19023 240.376667 
L 351.871287 239.253064 
L 351.790729 238.945152 
L 351.757936 238.813029 
L 351.699027 238.575821 
L 351.685856 238.522768 
L 351.619057 238.253587 
L 351.319212 237.045766 
L 351.141137 236.328716 
L 350.961262 235.604121 
L 350.782463 234.883972 
L 350.603261 234.162233 
L 350.4254 233.445877 
L 350.227154 232.647433 
L 350.029305 231.850416 
L 349.992031 231.700352 
L 349.828682 231.042473 
L 349.477384 229.627623 
L 348.013883 224.281057 
L 347.794226 223.478492 
L 347.612976 222.815963 
L 347.319024 221.742333 
L 346.555225 218.95215 
L 344.85441 212.80421 
L 343.990813 209.686787 
L 343.825247 209.088575 
L 343.763522 208.865616 
L 343.730993 208.748043 
L 343.481975 207.856705 
L 343.384968 207.506189 
L 343.28503 207.145036 
L 343.070689 206.376226 
L 342.829758 205.507302 
L 342.588084 204.63819 
L 342.34641 203.769119 
L 342.104774 202.900048 
L 341.863134 202.030936 
L 341.621453 201.161866 
L 341.379811 200.292795 
L 341.282596 199.94249 
L 341.139199 199.427967 
L 341.073684 199.192751 
L 340.896385 198.554085 
L 340.613001 197.535419 
L 340.548188 197.268618 
L 340.448688 196.937469 
L 340.036818 195.458526 
L 339.795418 194.59183 
L 339.554368 193.726316 
L 339.312301 192.857381 
L 339.072045 191.994679 
L 338.823449 191.102148 
L 338.580662 190.230482 
L 338.341475 189.372104 
L 338.123843 188.592916 
L 338.044569 188.308311 
L 337.960767 188.007364 
L 337.876924 187.706418 
L 337.509003 186.388343 
L 337.268238 185.519874 
L 337.14727 185.084196 
L 337.026253 184.64811 
L 336.784684 183.776789 
L 336.544347 182.909541 
L 336.283763 181.968979 
L 336.063716 181.180845 
L 336.061982 181.174632 
L 335.449358 178.90122 
L 334.675571 176.02836 
L 334.443806 175.166831 
L 334.339311 174.778231 
L 334.283511 174.571053 
L 334.22776 174.364243 
L 334.212881 174.310204 
L 334.171959 174.157065 
L 334.087278 173.842568 
L 334.002588 173.527703 
L 333.982355 173.453158 
L 333.946795 173.320894 
L 333.927496 173.249772 
L 333.891035 173.113715 
L 333.835284 172.906946 
L 333.751387 172.596573 
L 333.729925 172.516315 
L 333.412128 171.333268 
L 332.94992 169.621336 
L 332.877886 169.354368 
L 332.370764 167.479342 
L 332.317455 167.281539 
L 332.190576 166.813974 
L 331.93894 165.882446 
L 331.751769 165.189599 
L 331.564639 164.496791 
L 331.349405 163.70817 
L 331.323076 163.609241 
L 331.266084 163.395215 
L 331.217943 163.214425 
L 331.189475 163.107466 
L 330.843234 161.818038 
L 330.609757 160.947081 
L 330.375892 160.075311 
L 330.141993 159.203953 
L 329.908133 158.332594 
L 329.862235 158.161649 
L 329.67423 157.461237 
L 329.440366 156.589879 
L 329.206868 155.718513 
L 328.972999 154.847156 
L 328.856044 154.411478 
L 328.81388 153.956324 
L 328.748032 153.244337 
L 328.664935 152.345484 
L 328.581799 151.448682 
L 328.495762 150.522014 
L 328.515348 150.23508 
L 328.833883 146.702225 
L 328.952864 145.334007 
L 328.989592 144.974088 
L 329.030331 144.496166 
L 329.061418 144.357562 
L 329.243077 143.546464 
L 329.424279 142.734966 
L 329.605933 141.923499 
L 329.771432 141.183316 
L 330.909538 140.726027 
L 332.097069 140.248474 
L 332.357166 138.850762 
L 331.675418 138.631431 
L 330.807488 138.352799 
L 328.792495 137.70581 
L 328.564985 137.632736 
L 328.140486 137.447504 
L 328.022133 137.373677 
L 327.969663 137.338585 
L 327.77342 137.215668 
L 327.526913 137.061301 
L 326.958834 136.705506 
L 326.88145 136.65903 
L 326.232661 136.250684 
L 326.0258 136.123041 
L 325.325423 135.684548 
L 325.290995 135.660868 
L 324.620921 135.242785 
L 324.212175 134.987066 
L 323.914796 134.796141 
L 323.803384 134.721877 
L 323.218475 134.349038 
L 322.519244 133.89991 
L 322.186623 133.679997 
L 322.078519 133.616772 
L 321.584908 133.300233 
L 320.98359 132.910664 
L 319.676891 132.064571 
L 319.161608 131.730065 
L 319.045657 131.657871 
L 317.307228 130.537279 
L 316.015564 129.947739 
L 315.57463 129.743708 
L 314.080709 129.064208 
L 313.821142 128.945732 
L 313.563577 128.814134 
L 313.515278 128.788465 
L 311.888396 127.957708 
L 310.575624 127.287531 
L 309.569931 126.774185 
L 307.879634 126.201842 
L 307.858366 126.194521 
L 307.593121 126.104755 
L 307.327147 126.026485 
L 307.059526 125.94776 
L 306.086689 125.769165 
L 305.347884 125.633672 
L 305.293879 125.623998 
L 304.829742 125.593847 
L 304.582352 125.585198 
L 304.096553 125.559585 
L 303.814386 125.543217 
L 303.279104 125.514515 
L 303.047208 125.501714 
L 302.46284 125.469464 
L 302.280869 125.459334 
L 301.6458 125.420702 
L 301.513748 125.418655 
L 301.177593 125.400817 
L 300.909409 125.41391 
L 300.743453 125.430816 
L 300.0894 125.472106 
L 299.975793 125.48474 
L 299.266128 125.530746 
L 299.208493 125.538291 
L 298.649294 125.577287 
L 298.440481 125.61154 
L 298.003615 125.684982 
L 297.761296 125.72465 
L 297.426999 125.780167 
L 297.143406 125.827348 
L 296.92069 125.867363 
L 296.8557 125.879048 
L 296.288909 125.981972 
L 296.168793 126.00365 
L 295.726247 126.08288 
L 295.417711 126.137913 
L 295.141851 126.181359 
L 294.660499 126.2742 
L 294.510495 126.294735 
L 294.320113 126.335514 
L 293.906646 126.436737 
L 293.829831 126.450079 
L 293.113649 126.630975 
L 292.022375 126.89823 
L 291.661616 126.985378 
L 290.727258 127.215263 
L 290.547101 127.259674 
L 290.36365 127.304895 
L 289.878299 127.423994 
L 289.336122 127.557635 
L 289.17761 127.596648 
L 288.498607 127.763905 
L 288.056145 127.872629 
L 287.821631 127.930299 
L 287.101788 128.107935 
L 286.384373 128.28429 
L 285.328264 128.54453 
L 284.583069 128.727944 
L 284.019141 127.099555 
L 283.670944 126.090522 
L 283.469603 125.510084 
L 283.201014 124.735159 
L 282.906433 123.881681 
L 282.598665 122.990531 
L 282.305359 122.146865 
L 282.104409 121.56601 
L 281.928634 121.056387 
L 281.895248 120.959753 
L 281.637789 120.218859 
L 281.588358 120.076536 
L 281.332894 119.341628 
L 281.26481 119.14269 
L 280.848512 117.937145 
L 280.554342 117.090221 
L 280.25932 116.236347 
L 279.966794 115.384468 
L 279.672572 114.531807 
L 279.377156 113.677123 
L 279.122977 112.94112 
L 279.082937 112.824832 
L 278.653418 111.58125 
L 278.553135 111.289795 
L 278.492069 111.116245 
L 278.43224 110.943079 
L 278.307238 110.580833 
L 278.141744 110.098619 
L 277.894195 109.383504 
L 277.640405 108.647084 
L 276.215543 104.520081 
L 276.132133 104.290859 
L 276.081171 104.150747 
L 276.037692 104.003089 
L 275.788592 104.586668 
L 275.700777 104.744989 
L 275.360024 105.359426 
L 275.290584 105.484663 
L 275.260129 105.541262 
L 275.014324 106.068272 
L 275.168114 106.514664 
L 275.337459 107.005932 
L 275.062067 107.101219 
L 274.837225 107.179066 
L 274.641573 107.246794 
L 274.189884 107.402493 
L 273.283529 107.714205 
L 274.037138 108.239649 
L 273.953054 108.422242 
L 273.720329 108.918828 
L 273.394428 109.597513 
L 273.122557 110.166391 
L 273.026802 110.366914 
L 272.918679 110.402156 
L 272.701832 110.367776 
L 272.572553 110.347277 
L 272.312702 110.157153 
L 271.727036 109.726261 
L 271.362303 109.45901 
L 270.999559 109.192988 
L 270.33973 108.709094 
L 269.747488 108.275361 
L 269.153175 107.838764 
L 268.556459 107.406445 
L 267.962036 106.968788 
L 267.368111 106.531573 
L 266.413758 105.830138 
L 266.241998 105.703785 
L 265.712489 105.314095 
L 265.119498 104.9398 
L 265.072039 104.952622 
L 264.820099 104.815549 
L 264.568039 104.678602 
L 264.315942 104.54182 
L 264.182243 104.460541 
L 264.05036 104.376269 
L 263.920376 104.289086 
L 263.792414 104.198987 
L 263.666436 104.106098 
L 263.656252 104.122847 
L 263.524204 104.025624 
L 263.326984 103.880365 
L 263.134047 103.73825 
L 262.929338 103.587377 
L 262.729539 103.440249 
L 262.536975 103.298413 
L 262.334928 103.149531 
L 262.136333 103.003238 
L 261.810512 102.763264 
L 261.415899 102.472548 
L 261.049982 102.203006 
L 260.324176 101.66834 
L 260.213501 101.348754 
L 260.417129 100.657314 
L 260.315542 100.618454 
L 260.128583 100.546932 
L 259.844978 100.425043 
L 258.654995 99.913473 
L 257.377766 99.364371 
L 256.725498 99.083958 
L 256.575346 98.984272 
L 256.106549 98.664348 
L 255.638333 98.344821 
L 253.799846 97.090108 
L 253.713138 97.004713 
L 253.628712 96.917094 
L 253.546609 96.827251 
L 253.466874 96.735304 
L 253.264248 96.529701 
L 253.179144 96.439187 
L 253.096108 96.349692 
L 252.998644 96.264537 
L 252.846038 96.117186 
L 252.690913 95.972433 
L 252.533393 95.830358 
L 252.373477 95.691001 
L 252.211208 95.554362 
L 251.405191 94.928818 
L 251.247016 94.799714 
L 251.059836 94.66888 
L 250.871639 94.5402 
L 250.675076 94.403262 
L 250.362126 94.215294 
L 249.816463 93.887587 
L 249.463661 93.675664 
L 248.328416 93.054694 
L 248.049892 92.911881 
L 247.77031 92.771182 
L 247.48967 92.632598 
L 247.207933 92.496212 
L 246.92522 92.36194 
L 246.282581 92.089421 
L 245.636054 91.813261 
L 245.035913 91.556894 
L 244.178721 91.190819 
L 244.089291 91.152597 
L 243.146504 90.781019 
L 243.006169 90.729585 
L 242.867032 90.674969 
L 242.729216 90.617207 
L 242.59272 90.556299 
L 242.457628 90.492244 
L 242.112272 90.330556 
L 241.901571 90.233466 
L 241.692001 90.133931 
L 241.483646 90.031951 
L 241.241639 89.907067 
L 240.999552 89.782267 
L 240.757467 89.657549 
L 240.61613 89.585066 
L 240.475735 89.510758 
L 240.336281 89.434667 
L 240.197812 89.356831 
L 240.002111 89.248132 
L 239.80814 89.136279 
L 239.616022 89.02131 
L 239.425758 88.903265 
L 239.237432 88.782184 
L 239.092373 88.700643 
L 238.949087 88.615987 
L 238.807654 88.528256 
L 238.668159 88.437488 
L 238.530682 88.343683 
L 238.395226 88.246921 
L 238.261915 88.147242 
L 237.782807 87.811437 
L 237.385055 87.533343 
L 237.1994 87.468105 
L 236.39953 86.833608 
L 235.923112 86.432153 
L 234.42453 85.017728 
L 233.957799 84.604535 
L 232.661931 83.471477 
L 232.448119 83.285046 
L 231.20932 82.167037 
L 231.190439 82.151552 
L 231.041959 82.019705 
L 230.829312 81.892945 
L 230.717439 81.826532 
L 229.028478 80.745892 
L 230.83047 79.813301 
L 231.633118 79.402412 
L 231.746177 79.342233 
L 231.750669 79.341804 
L 232.097087 79.161228 
L 232.289084 79.06115 
L 233.436982 78.462791 
L 235.432741 77.437833 
L 235.503239 77.401076 
L 235.707776 77.294408 
L 236.927526 76.658503 
L 239.799913 75.182939 
L 240.076311 75.039818 
L 240.261614 74.945638 
L 240.448072 74.853728 
L 240.590774 74.785642 
L 240.770832 74.701494 
L 240.906535 74.639994 
L 241.042797 74.57967 
L 241.096616 74.556368 
L 241.15052 74.533227 
L 241.204511 74.51029 
L 241.39631 74.430316 
L 241.589104 74.352779 
L 241.782853 74.277682 
L 241.977233 74.205194 
L 242.172485 74.135106 
L 242.368611 74.067541 
L 245.213132 73.107017 
L 245.189439 72.991108 
L 245.262247 72.877799 
L 243.560062 61.947414 
L 243.326368 61.780153 
L 243.312062 61.782687 
L 243.278672 61.582413 
L 239.667113 62.210231 
L 239.029637 62.321046 
L 238.86476 62.555562 
L 238.576739 62.605713 
L 237.942691 62.716004 
L 237.716994 62.75529 
L 232.166008 63.720543 
L 231.889239 63.768687 
L 231.702392 63.804034 
L 231.377749 63.719389 
L 231.070273 63.636461 
L 226.01235 62.272554 
L 225.952671 62.256463 
L 226.092701 61.573713 
L 225.30016 61.361245 
L 220.634132 60.101513 
L 219.197771 59.715059 
L 217.647906 59.294554 
L 217.43843 59.237723 
L 217.227352 59.597197 
L 217.073626 59.859032 
L 216.737806 59.768266 
L 215.395264 59.405477 
L 213.297702 58.838658 
L 209.310713 57.765504 
L 209.152697 57.72261 
L 208.112987 57.440256 
L 208.249913 57.092201 
L 208.640965 55.745045 
L 199.731136 53.838975 
L 198.465556 53.568 
L 198.591107 53.917516 
L 198.367604 54.090824 
L 197.832395 54.48941 
L 197.217219 54.947695 
L 197.285164 55.144804 
L 197.363922 55.37332 
L 193.464973 58.290125 
L 192.956701 58.670159 
L 192.30078 59.160581 
L 191.727253 59.590021 
L 190.87472 60.227818 
L 190.16087 60.756539 
L 190.103831 60.796655 
L 190.044971 60.834066 
L 189.98441 60.868605 
L 189.92227 60.900268 
L 189.858712 60.928929 
L 189.793857 60.954545 
L 189.714427 60.981598 
L 189.633585 61.00409 
L 189.551614 61.021934 
L 189.468761 61.035083 
L 189.385268 61.04345 
L 189.301463 61.047068 
L 189.217591 61.04589 
L 189.133897 61.039912 
L 189.05067 61.029208 
L 188.968235 61.01373 
L 188.88676 60.993597 
L 188.806612 60.968843 
L 188.727958 60.939545 
L 188.361341 60.781012 
L 188.312693 60.893878 
L 187.913527 61.816504 
L 187.707474 62.293031 
L 187.668921 62.381683 
L 187.627539 62.477329 
L 187.547239 62.663644 
L 187.466531 62.849969 
L 187.386183 63.035916 
L 187.305874 63.221822 
L 187.225575 63.408137 
L 187.144828 63.594504 
L 187.047495 63.820236 
L 186.925382 64.102986 
L 186.796733 64.400296 
L 186.680823 64.668166 
L 186.559112 64.950538 
L 186.458542 65.183232 
L 186.377794 65.369558 
L 186.297098 65.556334 
L 186.21677 65.743061 
L 185.974631 66.302897 
L 185.894303 66.489624 
L 185.732852 66.862276 
L 185.652557 67.048633 
L 185.408364 67.613396 
L 185.087115 68.357473 
L 185.006411 68.543799 
L 184.845814 68.916063 
L 184.604033 69.475073 
L 184.523748 69.661799 
L 184.443037 69.847756 
L 184.281609 70.221229 
L 184.201294 70.408366 
L 183.959157 70.967795 
L 183.878832 71.154523 
L 183.797718 71.342498 
L 183.654105 71.674814 
L 183.57769 71.851613 
L 183.495637 72.041495 
L 183.417704 72.221732 
L 183.336078 72.41058 
L 183.255657 72.596613 
L 183.174927 72.783432 
L 183.094119 72.970417 
L 183.013076 73.157899 
L 182.890659 73.44115 
L 182.769992 73.720385 
L 182.687355 73.911512 
L 182.607209 74.096964 
L 182.526984 74.282583 
L 182.447227 74.467126 
L 182.364125 74.659369 
L 182.28503 74.842421 
L 182.204571 75.028496 
L 182.122054 75.219456 
L 182.041637 75.405571 
L 181.96184 75.590115 
L 181.878469 75.783103 
L 181.800617 75.963215 
L 181.719422 76.15107 
L 181.640095 76.33466 
L 181.556684 76.52765 
L 181.476539 76.713062 
L 181.298944 77.123926 
L 181.135819 77.501416 
L 180.81151 78.251761 
L 180.600595 78.739763 
L 180.389993 79.227143 
L 180.178342 79.716884 
L 179.966146 80.207868 
L 179.755234 80.69583 
L 179.546193 81.179649 
L 179.334893 81.668481 
L 179.124178 82.156029 
L 178.803892 82.897185 
L 178.571328 83.43533 
L 178.336045 83.979811 
L 178.126619 84.46442 
L 177.911633 84.961865 
L 177.491113 85.712061 
L 176.399881 87.920292 
L 176.362218 87.993551 
L 176.32211 88.065473 
L 176.279597 88.136014 
L 176.234803 88.20513 
L 176.187681 88.27266 
L 176.13823 88.33852 
L 176.086614 88.402708 
L 176.032912 88.465098 
L 175.977123 88.525649 
L 175.919326 88.584278 
L 175.859562 88.640983 
L 175.797913 88.695682 
L 175.734496 88.748247 
L 175.669354 88.798679 
L 175.602525 88.846853 
L 175.534131 88.892767 
L 175.46421 88.936337 
L 175.392886 88.97752 
L 175.320198 89.016315 
L 175.246268 89.052638 
L 171.340671 90.891336 
L 170.712413 91.187028 
L 170.442978 91.321929 
L 168.593723 92.186934 
L 168.02096 92.455831 
L 167.722144 92.595831 
L 167.142861 92.867625 
L 166.562555 93.30373 
L 165.972077 93.747653 
L 164.207921 95.074962 
L 164.063177 95.183665 
L 164.30077 95.742169 
L 163.884733 95.923176 
L 163.882317 95.924059 
" clip-path="url(#pdb342fd875)" style="fill: #1f77b4"/>
   </g>
   <g id="matplotlib.axis_1">
    <g id="xtick_1">
     <g id="line2d_1">
      <defs>
       <path id="m07429da6a9" d="M 0 0 
L 0 3.5 
" style="stroke: #000000; stroke-width: 0.8"/>
      </defs>
      <g>
       <use xlink:href="#m07429da6a9" x="110.690728" y="307.584" style="stroke: #000000; stroke-width: 0.8"/>
      </g>
     </g>
     <g id="text_1">
      <!-- 13.34 -->
      <g transform="translate(96.376665 322.182437) scale(0.1 -0.1)">
       <defs>
        <path id="DejaVuSans-31" d="M 794 531 
L 1825 531 
L 1825 4091 
L 703 3866 
L 703 4441 
L 1819 4666 
L 2450 4666 
L 2450 531 
L 3481 531 
L 3481 0 
L 794 0 
L 794 531 
z
" transform="scale(0.015625)"/>
        <path id="DejaVuSans-33" d="M 2597 2516 
Q 3050 2419 3304 2112 
Q 3559 1806 3559 1356 
Q 3559 666 3084 287 
Q 2609 -91 1734 -91 
Q 1441 -91 1130 -33 
Q 819 25 488 141 
L 488 750 
Q 750 597 1062 519 
Q 1375 441 1716 441 
Q 2309 441 2620 675 
Q 2931 909 2931 1356 
Q 2931 1769 2642 2001 
Q 2353 2234 1838 2234 
L 1294 2234 
L 1294 2753 
L 1863 2753 
Q 2328 2753 2575 2939 
Q 2822 3125 2822 3475 
Q 2822 3834 2567 4026 
Q 2313 4219 1838 4219 
Q 1578 4219 1281 4162 
Q 984 4106 628 3988 
L 628 4550 
Q 988 4650 1302 4700 
Q 1616 4750 1894 4750 
Q 2613 4750 3031 4423 
Q 3450 4097 3450 3541 
Q 3450 3153 3228 2886 
Q 3006 2619 2597 2516 
z
" transform="scale(0.015625)"/>
        <path id="DejaVuSans-2e" d="M 684 794 
L 1344 794 
L 1344 0 
L 684 0 
L 684 794 
z
" transform="scale(0.015625)"/>
        <path id="DejaVuSans-34" d="M 2419 4116 
L 825 1625 
L 2419 1625 
L 2419 4116 
z
M 2253 4666 
L 3047 4666 
L 3047 1625 
L 3713 1625 
L 3713 1100 
L 3047 1100 
L 3047 0 
L 2419 0 
L 2419 1100 
L 313 1100 
L 313 1709 
L 2253 4666 
z
" transform="scale(0.015625)"/>
       </defs>
       <use xlink:href="#DejaVuSans-31"/>
       <use xlink:href="#DejaVuSans-33" x="63.623047"/>
       <use xlink:href="#DejaVuSans-2e" x="127.246094"/>
       <use xlink:href="#DejaVuSans-33" x="159.033203"/>
       <use xlink:href="#DejaVuSans-34" x="222.65625"/>
      </g>
     </g>
    </g>
    <g id="xtick_2">
     <g id="line2d_2">
      <g>
       <use xlink:href="#m07429da6a9" x="166.331966" y="307.584" style="stroke: #000000; stroke-width: 0.8"/>
      </g>
     </g>
     <g id="text_2">
      <!-- 13.36 -->
      <g transform="translate(152.017904 322.182437) scale(0.1 -0.1)">
       <defs>
        <path id="DejaVuSans-36" d="M 2113 2584 
Q 1688 2584 1439 2293 
Q 1191 2003 1191 1497 
Q 1191 994 1439 701 
Q 1688 409 2113 409 
Q 2538 409 2786 701 
Q 3034 994 3034 1497 
Q 3034 2003 2786 2293 
Q 2538 2584 2113 2584 
z
M 3366 4563 
L 3366 3988 
Q 3128 4100 2886 4159 
Q 2644 4219 2406 4219 
Q 1781 4219 1451 3797 
Q 1122 3375 1075 2522 
Q 1259 2794 1537 2939 
Q 1816 3084 2150 3084 
Q 2853 3084 3261 2657 
Q 3669 2231 3669 1497 
Q 3669 778 3244 343 
Q 2819 -91 2113 -91 
Q 1303 -91 875 529 
Q 447 1150 447 2328 
Q 447 3434 972 4092 
Q 1497 4750 2381 4750 
Q 2619 4750 2861 4703 
Q 3103 4656 3366 4563 
z
" transform="scale(0.015625)"/>
       </defs>
       <use xlink:href="#DejaVuSans-31"/>
       <use xlink:href="#DejaVuSans-33" x="63.623047"/>
       <use xlink:href="#DejaVuSans-2e" x="127.246094"/>
       <use xlink:href="#DejaVuSans-33" x="159.033203"/>
       <use xlink:href="#DejaVuSans-36" x="222.65625"/>
      </g>
     </g>
    </g>
    <g id="xtick_3">
     <g id="line2d_3">
      <g>
       <use xlink:href="#m07429da6a9" x="221.973204" y="307.584" style="stroke: #000000; stroke-width: 0.8"/>
      </g>
     </g>
     <g id="text_3">
      <!-- 13.38 -->
      <g transform="translate(207.659142 322.182437) scale(0.1 -0.1)">
       <defs>
        <path id="DejaVuSans-38" d="M 2034 2216 
Q 1584 2216 1326 1975 
Q 1069 1734 1069 1313 
Q 1069 891 1326 650 
Q 1584 409 2034 409 
Q 2484 409 2743 651 
Q 3003 894 3003 1313 
Q 3003 1734 2745 1975 
Q 2488 2216 2034 2216 
z
M 1403 2484 
Q 997 2584 770 2862 
Q 544 3141 544 3541 
Q 544 4100 942 4425 
Q 1341 4750 2034 4750 
Q 2731 4750 3128 4425 
Q 3525 4100 3525 3541 
Q 3525 3141 3298 2862 
Q 3072 2584 2669 2484 
Q 3125 2378 3379 2068 
Q 3634 1759 3634 1313 
Q 3634 634 3220 271 
Q 2806 -91 2034 -91 
Q 1263 -91 848 271 
Q 434 634 434 1313 
Q 434 1759 690 2068 
Q 947 2378 1403 2484 
z
M 1172 3481 
Q 1172 3119 1398 2916 
Q 1625 2713 2034 2713 
Q 2441 2713 2670 2916 
Q 2900 3119 2900 3481 
Q 2900 3844 2670 4047 
Q 2441 4250 2034 4250 
Q 1625 4250 1398 4047 
Q 1172 3844 1172 3481 
z
" transform="scale(0.015625)"/>
       </defs>
       <use xlink:href="#DejaVuSans-31"/>
       <use xlink:href="#DejaVuSans-33" x="63.623047"/>
       <use xlink:href="#DejaVuSans-2e" x="127.246094"/>
       <use xlink:href="#DejaVuSans-33" x="159.033203"/>
       <use xlink:href="#DejaVuSans-38" x="222.65625"/>
      </g>
     </g>
    </g>
    <g id="xtick_4">
     <g id="line2d_4">
      <g>
       <use xlink:href="#m07429da6a9" x="277.614443" y="307.584" style="stroke: #000000; stroke-width: 0.8"/>
      </g>
     </g>
     <g id="text_4">
      <!-- 13.40 -->
      <g transform="translate(263.30038 322.182437) scale(0.1 -0.1)">
       <defs>
        <path id="DejaVuSans-30" d="M 2034 4250 
Q 1547 4250 1301 3770 
Q 1056 3291 1056 2328 
Q 1056 1369 1301 889 
Q 1547 409 2034 409 
Q 2525 409 2770 889 
Q 3016 1369 3016 2328 
Q 3016 3291 2770 3770 
Q 2525 4250 2034 4250 
z
M 2034 4750 
Q 2819 4750 3233 4129 
Q 3647 3509 3647 2328 
Q 3647 1150 3233 529 
Q 2819 -91 2034 -91 
Q 1250 -91 836 529 
Q 422 1150 422 2328 
Q 422 3509 836 4129 
Q 1250 4750 2034 4750 
z
" transform="scale(0.015625)"/>
       </defs>
       <use xlink:href="#DejaVuSans-31"/>
       <use xlink:href="#DejaVuSans-33" x="63.623047"/>
       <use xlink:href="#DejaVuSans-2e" x="127.246094"/>
       <use xlink:href="#DejaVuSans-34" x="159.033203"/>
       <use xlink:href="#DejaVuSans-30" x="222.65625"/>
      </g>
     </g>
    </g>
    <g id="xtick_5">
     <g id="line2d_5">
      <g>
       <use xlink:href="#m07429da6a9" x="333.255681" y="307.584" style="stroke: #000000; stroke-width: 0.8"/>
      </g>
     </g>
     <g id="text_5">
      <!-- 13.42 -->
      <g transform="translate(318.941619 322.182437) scale(0.1 -0.1)">
       <defs>
        <path id="DejaVuSans-32" d="M 1228 531 
L 3431 531 
L 3431 0 
L 469 0 
L 469 531 
Q 828 903 1448 1529 
Q 2069 2156 2228 2338 
Q 2531 2678 2651 2914 
Q 2772 3150 2772 3378 
Q 2772 3750 2511 3984 
Q 2250 4219 1831 4219 
Q 1534 4219 1204 4116 
Q 875 4013 500 3803 
L 500 4441 
Q 881 4594 1212 4672 
Q 1544 4750 1819 4750 
Q 2544 4750 2975 4387 
Q 3406 4025 3406 3419 
Q 3406 3131 3298 2873 
Q 3191 2616 2906 2266 
Q 2828 2175 2409 1742 
Q 1991 1309 1228 531 
z
" transform="scale(0.015625)"/>
       </defs>
       <use xlink:href="#DejaVuSans-31"/>
       <use xlink:href="#DejaVuSans-33" x="63.623047"/>
       <use xlink:href="#DejaVuSans-2e" x="127.246094"/>
       <use xlink:href="#DejaVuSans-34" x="159.033203"/>
       <use xlink:href="#DejaVuSans-32" x="222.65625"/>
      </g>
     </g>
    </g>
   </g>
   <g id="matplotlib.axis_2">
    <g id="ytick_1">
     <g id="line2d_6">
      <defs>
       <path id="ma43ffb4502" d="M 0 0 
L -3.5 0 
" style="stroke: #000000; stroke-width: 0.8"/>
      </defs>
      <g>
       <use xlink:href="#ma43ffb4502" x="106.535267" y="277.886127" style="stroke: #000000; stroke-width: 0.8"/>
      </g>
     </g>
     <g id="text_6">
      <!-- 52.38 -->
      <g transform="translate(70.907142 281.685345) scale(0.1 -0.1)">
       <defs>
        <path id="DejaVuSans-35" d="M 691 4666 
L 3169 4666 
L 3169 4134 
L 1269 4134 
L 1269 2991 
Q 1406 3038 1543 3061 
Q 1681 3084 1819 3084 
Q 2600 3084 3056 2656 
Q 3513 2228 3513 1497 
Q 3513 744 3044 326 
Q 2575 -91 1722 -91 
Q 1428 -91 1123 -41 
Q 819 9 494 109 
L 494 744 
Q 775 591 1075 516 
Q 1375 441 1709 441 
Q 2250 441 2565 725 
Q 2881 1009 2881 1497 
Q 2881 1984 2565 2268 
Q 2250 2553 1709 2553 
Q 1456 2553 1204 2497 
Q 953 2441 691 2322 
L 691 4666 
z
" transform="scale(0.015625)"/>
       </defs>
       <use xlink:href="#DejaVuSans-35"/>
       <use xlink:href="#DejaVuSans-32" x="63.623047"/>
       <use xlink:href="#DejaVuSans-2e" x="127.246094"/>
       <use xlink:href="#DejaVuSans-33" x="159.033203"/>
       <use xlink:href="#DejaVuSans-38" x="222.65625"/>
      </g>
     </g>
    </g>
    <g id="ytick_2">
     <g id="line2d_7">
      <g>
       <use xlink:href="#ma43ffb4502" x="106.535267" y="232.286649" style="stroke: #000000; stroke-width: 0.8"/>
      </g>
     </g>
     <g id="text_7">
      <!-- 52.39 -->
      <g transform="translate(70.907142 236.085868) scale(0.1 -0.1)">
       <defs>
        <path id="DejaVuSans-39" d="M 703 97 
L 703 672 
Q 941 559 1184 500 
Q 1428 441 1663 441 
Q 2288 441 2617 861 
Q 2947 1281 2994 2138 
Q 2813 1869 2534 1725 
Q 2256 1581 1919 1581 
Q 1219 1581 811 2004 
Q 403 2428 403 3163 
Q 403 3881 828 4315 
Q 1253 4750 1959 4750 
Q 2769 4750 3195 4129 
Q 3622 3509 3622 2328 
Q 3622 1225 3098 567 
Q 2575 -91 1691 -91 
Q 1453 -91 1209 -44 
Q 966 3 703 97 
z
M 1959 2075 
Q 2384 2075 2632 2365 
Q 2881 2656 2881 3163 
Q 2881 3666 2632 3958 
Q 2384 4250 1959 4250 
Q 1534 4250 1286 3958 
Q 1038 3666 1038 3163 
Q 1038 2656 1286 2365 
Q 1534 2075 1959 2075 
z
" transform="scale(0.015625)"/>
       </defs>
       <use xlink:href="#DejaVuSans-35"/>
       <use xlink:href="#DejaVuSans-32" x="63.623047"/>
       <use xlink:href="#DejaVuSans-2e" x="127.246094"/>
       <use xlink:href="#DejaVuSans-33" x="159.033203"/>
       <use xlink:href="#DejaVuSans-39" x="222.65625"/>
      </g>
     </g>
    </g>
    <g id="ytick_3">
     <g id="line2d_8">
      <g>
       <use xlink:href="#ma43ffb4502" x="106.535267" y="186.687172" style="stroke: #000000; stroke-width: 0.8"/>
      </g>
     </g>
     <g id="text_8">
      <!-- 52.40 -->
      <g transform="translate(70.907142 190.486391) scale(0.1 -0.1)">
       <use xlink:href="#DejaVuSans-35"/>
       <use xlink:href="#DejaVuSans-32" x="63.623047"/>
       <use xlink:href="#DejaVuSans-2e" x="127.246094"/>
       <use xlink:href="#DejaVuSans-34" x="159.033203"/>
       <use xlink:href="#DejaVuSans-30" x="222.65625"/>
      </g>
     </g>
    </g>
    <g id="ytick_4">
     <g id="line2d_9">
      <g>
       <use xlink:href="#ma43ffb4502" x="106.535267" y="141.087695" style="stroke: #000000; stroke-width: 0.8"/>
      </g>
     </g>
     <g id="text_9">
      <!-- 52.41 -->
      <g transform="translate(70.907142 144.886914) scale(0.1 -0.1)">
       <use xlink:href="#DejaVuSans-35"/>
       <use xlink:href="#DejaVuSans-32" x="63.623047"/>
       <use xlink:href="#DejaVuSans-2e" x="127.246094"/>
       <use xlink:href="#DejaVuSans-34" x="159.033203"/>
       <use xlink:href="#DejaVuSans-31" x="222.65625"/>
      </g>
     </g>
    </g>
    <g id="ytick_5">
     <g id="line2d_10">
      <g>
       <use xlink:href="#ma43ffb4502" x="106.535267" y="95.488218" style="stroke: #000000; stroke-width: 0.8"/>
      </g>
     </g>
     <g id="text_10">
      <!-- 52.42 -->
      <g transform="translate(70.907142 99.287436) scale(0.1 -0.1)">
       <use xlink:href="#DejaVuSans-35"/>
       <use xlink:href="#DejaVuSans-32" x="63.623047"/>
       <use xlink:href="#DejaVuSans-2e" x="127.246094"/>
       <use xlink:href="#DejaVuSans-34" x="159.033203"/>
       <use xlink:href="#DejaVuSans-32" x="222.65625"/>
      </g>
     </g>
    </g>
    <g id="ytick_6">
     <g id="line2d_11">
      <g>
       <use xlink:href="#ma43ffb4502" x="106.535267" y="49.88874" style="stroke: #000000; stroke-width: 0.8"/>
      </g>
     </g>
     <g id="text_11">
      <!-- 52.43 -->
      <g transform="translate(70.907142 53.687959) scale(0.1 -0.1)">
       <use xlink:href="#DejaVuSans-35"/>
       <use xlink:href="#DejaVuSans-32" x="63.623047"/>
       <use xlink:href="#DejaVuSans-2e" x="127.246094"/>
       <use xlink:href="#DejaVuSans-34" x="159.033203"/>
       <use xlink:href="#DejaVuSans-33" x="222.65625"/>
      </g>
     </g>
    </g>
   </g>
   <g id="patch_3">
    <path d="M 106.535267 307.584 
L 106.535267 41.472 
" style="fill: none; stroke: #000000; stroke-width: 0.8; stroke-linejoin: miter; stroke-linecap: square"/>
   </g>
   <g id="patch_4">
    <path d="M 365.784733 307.584 
L 365.784733 41.472 
" style="fill: none; stroke: #000000; stroke-width: 0.8; stroke-linejoin: miter; stroke-linecap: square"/>
   </g>
   <g id="patch_5">
    <path d="M 106.535267 307.584 
L 365.784733 307.584 
" style="fill: none; stroke: #000000; stroke-width: 0.8; stroke-linejoin: miter; stroke-linecap: square"/>
   </g>
   <g id="patch_6">
    <path d="M 106.535267 41.472 
L 365.784733 41.472 
" style="fill: none; stroke: #000000; stroke-width: 0.8; stroke-linejoin: miter; stroke-linecap: square"/>
   </g>
   <g id="text_12">
    <!-- Marienfelde___Lichtenrade -->
    <g transform="translate(165.340067 181.109515) scale(0.12 -0.12)">
     <defs>
      <path id="DejaVuSans-4d" d="M 628 4666 
L 1569 4666 
L 2759 1491 
L 3956 4666 
L 4897 4666 
L 4897 0 
L 4281 0 
L 4281 4097 
L 3078 897 
L 2444 897 
L 1241 4097 
L 1241 0 
L 628 0 
L 628 4666 
z
" transform="scale(0.015625)"/>
      <path id="DejaVuSans-61" d="M 2194 1759 
Q 1497 1759 1228 1600 
Q 959 1441 959 1056 
Q 959 750 1161 570 
Q 1363 391 1709 391 
Q 2188 391 2477 730 
Q 2766 1069 2766 1631 
L 2766 1759 
L 2194 1759 
z
M 3341 1997 
L 3341 0 
L 2766 0 
L 2766 531 
Q 2569 213 2275 61 
Q 1981 -91 1556 -91 
Q 1019 -91 701 211 
Q 384 513 384 1019 
Q 384 1609 779 1909 
Q 1175 2209 1959 2209 
L 2766 2209 
L 2766 2266 
Q 2766 2663 2505 2880 
Q 2244 3097 1772 3097 
Q 1472 3097 1187 3025 
Q 903 2953 641 2809 
L 641 3341 
Q 956 3463 1253 3523 
Q 1550 3584 1831 3584 
Q 2591 3584 2966 3190 
Q 3341 2797 3341 1997 
z
" transform="scale(0.015625)"/>
      <path id="DejaVuSans-72" d="M 2631 2963 
Q 2534 3019 2420 3045 
Q 2306 3072 2169 3072 
Q 1681 3072 1420 2755 
Q 1159 2438 1159 1844 
L 1159 0 
L 581 0 
L 581 3500 
L 1159 3500 
L 1159 2956 
Q 1341 3275 1631 3429 
Q 1922 3584 2338 3584 
Q 2397 3584 2469 3576 
Q 2541 3569 2628 3553 
L 2631 2963 
z
" transform="scale(0.015625)"/>
      <path id="DejaVuSans-69" d="M 603 3500 
L 1178 3500 
L 1178 0 
L 603 0 
L 603 3500 
z
M 603 4863 
L 1178 4863 
L 1178 4134 
L 603 4134 
L 603 4863 
z
" transform="scale(0.015625)"/>
      <path id="DejaVuSans-65" d="M 3597 1894 
L 3597 1613 
L 953 1613 
Q 991 1019 1311 708 
Q 1631 397 2203 397 
Q 2534 397 2845 478 
Q 3156 559 3463 722 
L 3463 178 
Q 3153 47 2828 -22 
Q 2503 -91 2169 -91 
Q 1331 -91 842 396 
Q 353 884 353 1716 
Q 353 2575 817 3079 
Q 1281 3584 2069 3584 
Q 2775 3584 3186 3129 
Q 3597 2675 3597 1894 
z
M 3022 2063 
Q 3016 2534 2758 2815 
Q 2500 3097 2075 3097 
Q 1594 3097 1305 2825 
Q 1016 2553 972 2059 
L 3022 2063 
z
" transform="scale(0.015625)"/>
      <path id="DejaVuSans-6e" d="M 3513 2113 
L 3513 0 
L 2938 0 
L 2938 2094 
Q 2938 2591 2744 2837 
Q 2550 3084 2163 3084 
Q 1697 3084 1428 2787 
Q 1159 2491 1159 1978 
L 1159 0 
L 581 0 
L 581 3500 
L 1159 3500 
L 1159 2956 
Q 1366 3272 1645 3428 
Q 1925 3584 2291 3584 
Q 2894 3584 3203 3211 
Q 3513 2838 3513 2113 
z
" transform="scale(0.015625)"/>
      <path id="DejaVuSans-66" d="M 2375 4863 
L 2375 4384 
L 1825 4384 
Q 1516 4384 1395 4259 
Q 1275 4134 1275 3809 
L 1275 3500 
L 2222 3500 
L 2222 3053 
L 1275 3053 
L 1275 0 
L 697 0 
L 697 3053 
L 147 3053 
L 147 3500 
L 697 3500 
L 697 3744 
Q 697 4328 969 4595 
Q 1241 4863 1831 4863 
L 2375 4863 
z
" transform="scale(0.015625)"/>
      <path id="DejaVuSans-6c" d="M 603 4863 
L 1178 4863 
L 1178 0 
L 603 0 
L 603 4863 
z
" transform="scale(0.015625)"/>
      <path id="DejaVuSans-64" d="M 2906 2969 
L 2906 4863 
L 3481 4863 
L 3481 0 
L 2906 0 
L 2906 525 
Q 2725 213 2448 61 
Q 2172 -91 1784 -91 
Q 1150 -91 751 415 
Q 353 922 353 1747 
Q 353 2572 751 3078 
Q 1150 3584 1784 3584 
Q 2172 3584 2448 3432 
Q 2725 3281 2906 2969 
z
M 947 1747 
Q 947 1113 1208 752 
Q 1469 391 1925 391 
Q 2381 391 2643 752 
Q 2906 1113 2906 1747 
Q 2906 2381 2643 2742 
Q 2381 3103 1925 3103 
Q 1469 3103 1208 2742 
Q 947 2381 947 1747 
z
" transform="scale(0.015625)"/>
      <path id="DejaVuSans-5f" d="M 3263 -1063 
L 3263 -1509 
L -63 -1509 
L -63 -1063 
L 3263 -1063 
z
" transform="scale(0.015625)"/>
      <path id="DejaVuSans-4c" d="M 628 4666 
L 1259 4666 
L 1259 531 
L 3531 531 
L 3531 0 
L 628 0 
L 628 4666 
z
" transform="scale(0.015625)"/>
      <path id="DejaVuSans-63" d="M 3122 3366 
L 3122 2828 
Q 2878 2963 2633 3030 
Q 2388 3097 2138 3097 
Q 1578 3097 1268 2742 
Q 959 2388 959 1747 
Q 959 1106 1268 751 
Q 1578 397 2138 397 
Q 2388 397 2633 464 
Q 2878 531 3122 666 
L 3122 134 
Q 2881 22 2623 -34 
Q 2366 -91 2075 -91 
Q 1284 -91 818 406 
Q 353 903 353 1747 
Q 353 2603 823 3093 
Q 1294 3584 2113 3584 
Q 2378 3584 2631 3529 
Q 2884 3475 3122 3366 
z
" transform="scale(0.015625)"/>
      <path id="DejaVuSans-68" d="M 3513 2113 
L 3513 0 
L 2938 0 
L 2938 2094 
Q 2938 2591 2744 2837 
Q 2550 3084 2163 3084 
Q 1697 3084 1428 2787 
Q 1159 2491 1159 1978 
L 1159 0 
L 581 0 
L 581 4863 
L 1159 4863 
L 1159 2956 
Q 1366 3272 1645 3428 
Q 1925 3584 2291 3584 
Q 2894 3584 3203 3211 
Q 3513 2838 3513 2113 
z
" transform="scale(0.015625)"/>
      <path id="DejaVuSans-74" d="M 1172 4494 
L 1172 3500 
L 2356 3500 
L 2356 3053 
L 1172 3053 
L 1172 1153 
Q 1172 725 1289 603 
Q 1406 481 1766 481 
L 2356 481 
L 2356 0 
L 1766 0 
Q 1100 0 847 248 
Q 594 497 594 1153 
L 594 3053 
L 172 3053 
L 172 3500 
L 594 3500 
L 594 4494 
L 1172 4494 
z
" transform="scale(0.015625)"/>
     </defs>
     <use xlink:href="#DejaVuSans-4d"/>
     <use xlink:href="#DejaVuSans-61" x="86.279297"/>
     <use xlink:href="#DejaVuSans-72" x="147.558594"/>
     <use xlink:href="#DejaVuSans-69" x="188.671875"/>
     <use xlink:href="#DejaVuSans-65" x="216.455078"/>
     <use xlink:href="#DejaVuSans-6e" x="277.978516"/>
     <use xlink:href="#DejaVuSans-66" x="341.357422"/>
     <use xlink:href="#DejaVuSans-65" x="376.5625"/>
     <use xlink:href="#DejaVuSans-6c" x="438.085938"/>
     <use xlink:href="#DejaVuSans-64" x="465.869141"/>
     <use xlink:href="#DejaVuSans-65" x="529.345703"/>
     <use xlink:href="#DejaVuSans-5f" x="590.869141"/>
     <use xlink:href="#DejaVuSans-5f" x="640.869141"/>
     <use xlink:href="#DejaVuSans-5f" x="690.869141"/>
     <use xlink:href="#DejaVuSans-4c" x="740.869141"/>
     <use xlink:href="#DejaVuSans-69" x="796.582031"/>
     <use xlink:href="#DejaVuSans-63" x="824.365234"/>
     <use xlink:href="#DejaVuSans-68" x="879.345703"/>
     <use xlink:href="#DejaVuSans-74" x="942.724609"/>
     <use xlink:href="#DejaVuSans-65" x="981.933594"/>
     <use xlink:href="#DejaVuSans-6e" x="1043.457031"/>
     <use xlink:href="#DejaVuSans-72" x="1106.835938"/>
     <use xlink:href="#DejaVuSans-61" x="1147.949219"/>
     <use xlink:href="#DejaVuSans-64" x="1209.228516"/>
     <use xlink:href="#DejaVuSans-65" x="1272.705078"/>
    </g>
   </g>
  </g>
 </g>
 <defs>
  <clipPath id="pdb342fd875">
   <rect x="106.535267" y="41.472" width="259.249465" height="266.112"/>
  </clipPath>
 </defs>
</svg>
