<?xml version="1.0" encoding="utf-8" standalone="no"?>
<!DOCTYPE svg PUBLIC "-//W3C//DTD SVG 1.1//EN"
  "http://www.w3.org/Graphics/SVG/1.1/DTD/svg11.dtd">
<svg xmlns:xlink="http://www.w3.org/1999/xlink" width="460.8pt" height="345.6pt" viewBox="0 0 460.8 345.6" xmlns="http://www.w3.org/2000/svg" version="1.1">
 <metadata>
  <rdf:RDF xmlns:dc="http://purl.org/dc/elements/1.1/" xmlns:cc="http://creativecommons.org/ns#" xmlns:rdf="http://www.w3.org/1999/02/22-rdf-syntax-ns#">
   <cc:Work>
    <dc:type rdf:resource="http://purl.org/dc/dcmitype/StillImage"/>
    <dc:date>2024-10-15T09:53:27.418143</dc:date>
    <dc:format>image/svg+xml</dc:format>
    <dc:creator>
     <cc:Agent>
      <dc:title>Matplotlib v3.8.4, https://matplotlib.org/</dc:title>
     </cc:Agent>
    </dc:creator>
   </cc:Work>
  </rdf:RDF>
 </metadata>
 <defs>
  <style type="text/css">*{stroke-linejoin: round; stroke-linecap: butt}</style>
 </defs>
 <g id="figure_1">
  <g id="patch_1">
   <path d="M 0 345.6 
L 460.8 345.6 
L 460.8 0 
L 0 0 
z
" style="fill: #ffffff"/>
  </g>
  <g id="axes_1">
   <g id="patch_2">
    <path d="M 77.818846 307.584 
L 394.501154 307.584 
L 394.501154 41.472 
L 77.818846 41.472 
z
" style="fill: #ffffff"/>
   </g>
   <g id="PatchCollection_1">
    <path d="M 262.124661 105.115772 
L 261.661663 104.668664 
L 261.396374 104.960546 
L 260.903008 104.548626 
L 257.155971 101.39187 
L 256.485872 100.827342 
L 254.855349 99.453496 
L 253.862692 98.617026 
L 252.81244 99.730706 
L 247.787444 105.058942 
L 245.81126 107.154213 
L 244.651433 108.384265 
L 243.807719 107.67612 
L 239.364002 103.942891 
L 238.469113 103.190195 
L 238.297358 103.045867 
L 238.284191 103.034778 
L 238.02045 102.813054 
L 237.88152 102.696276 
L 237.776071 102.607621 
L 237.649114 102.500845 
L 237.516677 102.389497 
L 237.220883 102.140852 
L 237.08797 102.029163 
L 236.960417 101.921931 
L 236.85753 101.835448 
L 236.728727 101.727188 
L 236.601709 101.620355 
L 236.436446 101.481458 
L 236.296026 101.363482 
L 236.270231 101.341878 
L 235.420666 100.627435 
L 235.31891 100.541925 
L 235.285487 100.513802 
L 235.143575 100.394452 
L 234.853852 100.150837 
L 233.205646 98.76495 
L 231.918925 97.687616 
L 231.140217 97.029168 
L 230.290549 96.311166 
L 229.494811 95.644589 
L 229.439119 95.598422 
L 229.140878 95.348197 
L 228.943264 95.182448 
L 228.629294 94.91902 
L 227.921467 94.325474 
L 227.610907 94.060214 
L 227.088203 93.625594 
L 226.910089 93.477189 
L 226.896571 93.466108 
L 225.877561 92.611426 
L 225.638486 92.400494 
L 225.583 92.887618 
L 225.544997 93.794854 
L 225.476064 93.810242 
L 225.523422 94.028726 
L 225.48133 94.038197 
L 224.120316 94.335906 
L 224.077056 94.345403 
L 224.032649 94.128145 
L 223.959635 94.14415 
L 223.933532 94.018779 
L 220.13312 89.354769 
L 215.929114 87.167692 
L 215.805578 87.103534 
L 215.007521 86.68722 
L 209.054969 83.578999 
L 208.867864 83.480871 
L 207.839968 82.941755 
L 207.60517 82.81869 
L 201.825443 79.804777 
L 193.51208 75.469965 
L 188.877258 73.045948 
L 185.355986 71.149906 
L 183.682358 70.258458 
L 181.301311 68.98493 
L 181.158928 68.908776 
L 180.104227 68.34443 
L 180.043914 68.312386 
L 170.417376 63.171709 
L 168.304342 62.044293 
L 167.167035 61.436831 
L 158.908124 57.029301 
L 158.825547 56.985319 
L 158.490559 56.806678 
L 157.968774 56.540313 
L 157.442936 56.284004 
L 156.913564 56.034692 
L 156.380149 55.795906 
L 156.357291 55.786029 
L 155.842656 55.566004 
L 155.300504 55.342479 
L 154.757796 55.128406 
L 154.208719 54.925438 
L 153.656706 54.730098 
L 153.101237 54.54533 
L 152.5428 54.369364 
L 151.982147 54.204528 
L 151.417388 54.052623 
L 151.117148 53.978646 
L 150.333605 53.785572 
L 149.49798 53.602789 
L 149.492809 53.628582 
L 149.4817 53.626246 
L 149.159277 53.568 
L 149.402739 54.045478 
L 150.699846 56.098049 
L 150.71927 56.148983 
L 151.452183 58.076025 
L 151.723853 58.790162 
L 151.80516 59.003844 
L 151.854047 59.131406 
L 152.098544 59.774727 
L 152.38605 60.531024 
L 152.437315 60.665687 
L 152.545124 60.949027 
L 152.915117 61.914291 
L 152.971662 62.057691 
L 153.031149 62.209881 
L 153.121846 62.441064 
L 153.126561 62.45339 
L 153.181929 62.593826 
L 153.217252 62.681642 
L 153.222591 62.695713 
L 153.43994 63.258839 
L 153.481171 63.365345 
L 153.497678 63.408662 
L 153.863551 64.356956 
L 153.891812 64.429507 
L 154.300534 65.456775 
L 154.344699 65.574474 
L 154.73304 66.617022 
L 155.059394 67.465223 
L 155.449353 68.461477 
L 155.454608 68.474378 
L 155.524759 68.656998 
L 155.829241 69.441361 
L 156.153813 70.277876 
L 156.665237 71.631811 
L 156.691172 71.699722 
L 157.09648 72.764533 
L 157.173616 72.967052 
L 157.565965 73.998494 
L 157.755188 74.495987 
L 157.808497 74.636059 
L 158.004855 75.152274 
L 158.599302 76.713996 
L 158.70356 76.987977 
L 159.17129 78.217229 
L 159.275605 78.491209 
L 159.91535 80.180576 
L 160.438468 81.562697 
L 160.672706 82.171952 
L 160.742104 82.352478 
L 160.976282 82.961734 
L 161.403449 84.104989 
L 161.808713 85.172094 
L 161.874421 85.344493 
L 162.241687 86.308304 
L 162.254016 86.33987 
L 162.337339 86.558202 
L 162.775376 87.70679 
L 163.019655 88.347781 
L 163.080713 88.508146 
L 163.374433 89.278506 
L 163.56176 89.770416 
L 163.642408 89.981536 
L 164.05962 91.076936 
L 164.237379 91.543317 
L 164.639095 92.606986 
L 165.146326 93.957451 
L 165.671162 95.348339 
L 165.732834 95.512853 
L 165.750701 95.55966 
L 165.942122 96.070771 
L 165.98871 96.195396 
L 166.123029 96.553031 
L 166.203098 96.767273 
L 166.392823 97.273086 
L 166.441125 97.40125 
L 166.553039 97.699808 
L 166.566569 97.735511 
L 166.630212 97.904673 
L 166.934166 98.71603 
L 166.933653 98.730112 
L 166.904424 98.733741 
L 166.905007 98.739005 
L 166.89651 98.743705 
L 166.889939 98.750884 
L 166.886038 98.759823 
L 166.885196 98.769515 
L 166.87819 98.770137 
L 166.894416 98.932421 
L 166.900252 98.931766 
L 166.903082 98.940851 
L 166.909036 98.948342 
L 166.917272 98.953146 
L 166.926663 98.954582 
L 166.927259 98.960432 
L 166.956502 98.957447 
L 166.956527 98.972046 
L 166.970553 98.971446 
L 166.971752 98.980801 
L 167.032538 98.973022 
L 167.258926 99.566917 
L 167.262269 99.575404 
L 167.260468 99.575971 
L 167.260481 99.576557 
L 167.277299 99.736483 
L 167.283721 99.735874 
L 167.286431 99.744843 
L 167.292438 99.752041 
L 167.300779 99.756314 
L 167.310094 99.756932 
L 167.311287 99.763355 
L 167.334094 99.760335 
L 167.34056 99.7779 
L 167.570422 100.380983 
L 167.618005 100.505703 
L 167.73638 100.816374 
L 168.149863 101.900487 
L 168.563908 102.986406 
L 169.056947 104.291223 
L 167.179696 106.253726 
L 167.120588 106.370811 
L 165.759217 109.068169 
L 163.590412 113.365199 
L 163.548526 113.448314 
L 163.375754 113.715458 
L 162.548346 114.994859 
L 162.376085 115.261172 
L 162.188045 115.552337 
L 160.936932 114.961109 
L 160.777707 114.885971 
L 159.674111 114.342881 
L 159.579235 114.297467 
L 158.408344 113.734689 
L 158.403075 113.745241 
L 152.719379 111.015391 
L 151.862133 110.666173 
L 151.859501 110.665101 
L 150.914139 110.271072 
L 148.998173 109.859864 
L 147.194923 109.472756 
L 141.662959 108.285277 
L 141.374549 108.222835 
L 139.343892 107.784542 
L 137.912291 107.476925 
L 136.482982 107.169909 
L 135.425235 106.942681 
L 134.368657 106.71549 
L 132.939411 106.409077 
L 131.822532 106.16915 
L 130.706236 105.929214 
L 129.682411 105.710114 
L 122.716781 104.219874 
L 122.115359 104.091583 
L 121.217875 103.899106 
L 119.788603 103.592759 
L 118.356915 103.285827 
L 116.925284 102.978901 
L 115.496002 102.672576 
L 114.066704 102.365671 
L 112.637358 102.059362 
L 111.208067 101.753058 
L 110.322859 101.563509 
L 109.432945 101.372836 
L 108.003647 101.066548 
L 106.574289 100.760269 
L 105.688534 100.570102 
L 104.573379 100.330888 
L 103.45882 100.092251 
L 102.344258 99.853559 
L 99.452824 99.233579 
L 98.793063 99.945795 
L 99.281242 101.671856 
L 99.532811 101.726159 
L 99.80115 102.675837 
L 99.839563 102.81054 
L 100.912786 106.588152 
L 101.906154 110.08476 
L 102.008363 110.441904 
L 99.918112 113.628589 
L 99.700211 113.960852 
L 97.760413 116.91141 
L 96.694261 118.540205 
L 96.38651 119.03692 
L 96.103355 119.553436 
L 95.847118 120.086301 
L 95.618421 120.63726 
L 95.502484 120.953493 
L 95.396483 121.277305 
L 95.232766 121.849107 
L 95.102929 122.426727 
L 95.001836 123.005411 
L 94.934605 123.586395 
L 94.806708 124.985553 
L 94.737093 125.745235 
L 94.553243 127.764585 
L 93.629281 137.879445 
L 93.532022 138.948074 
L 93.354373 140.89236 
L 93.062506 144.125688 
L 92.958994 144.113086 
L 92.759064 146.607169 
L 92.714619 147.168068 
L 92.5676 149.002156 
L 92.213496 150.584848 
L 92.397868 152.009463 
L 92.913927 155.987402 
L 95.148136 164.433109 
L 94.945308 165.599874 
L 94.571281 167.754588 
L 94.436284 168.532603 
L 94.630684 168.633427 
L 94.767076 168.697424 
L 94.912223 168.752668 
L 95.056156 168.803249 
L 95.201278 168.846709 
L 95.351009 168.88438 
L 95.49729 168.916734 
L 97.687072 169.32317 
L 110.905355 171.775569 
L 111.363269 171.857399 
L 111.57664 170.691176 
L 112.680537 170.118288 
L 120.506471 166.056654 
L 121.70316 165.435675 
L 122.09926 167.818172 
L 123.897838 178.636241 
L 124.232193 180.647273 
L 126.405124 193.717654 
L 126.992876 197.253296 
L 129.375923 211.589473 
L 129.445083 212.005573 
L 129.947167 215.026166 
L 130.07417 215.790369 
L 130.807057 220.199111 
L 131.835451 227.754945 
L 133.895044 242.874304 
L 134.480245 247.179772 
L 134.641449 248.348946 
L 134.717849 248.907183 
L 134.730973 249.002051 
L 134.731322 249.004621 
L 134.992911 250.936067 
L 135.100622 251.731184 
L 135.128097 251.926229 
L 135.172826 252.241965 
L 136.946238 251.975453 
L 137.378541 251.910843 
L 139.222274 251.635413 
L 139.501716 251.593629 
L 140.174184 251.493203 
L 142.015985 251.220061 
L 143.594277 250.965848 
L 144.987232 250.74397 
L 145.958228 250.589282 
L 146.371151 250.523235 
L 147.742645 250.303717 
L 149.134943 250.080935 
L 150.516405 249.859864 
L 151.354606 249.725695 
L 151.657525 249.677193 
L 152.367952 249.563534 
L 152.595011 249.527191 
L 152.628515 249.521883 
L 153.045411 249.455583 
L 153.55711 249.379701 
L 153.690898 249.358828 
L 153.73435 249.855644 
L 154.002372 252.866341 
L 154.009186 253.429419 
L 154.0153 253.934588 
L 154.111826 256.99067 
L 154.261638 261.655269 
L 154.355912 264.629729 
L 155.11114 268.734693 
L 155.893043 269.684842 
L 156.010654 270.610725 
L 156.066912 271.053619 
L 156.037448 271.386521 
L 155.993847 271.878326 
L 155.906097 272.88241 
L 155.709099 275.127387 
L 155.69102 275.54816 
L 155.631848 276.948895 
L 155.398047 277.544362 
L 159.517737 278.833587 
L 160.149701 278.722778 
L 164.712848 277.937013 
L 168.759775 277.241814 
L 172.812555 276.546075 
L 173.373199 276.424307 
L 174.350269 276.224144 
L 175.324487 276.024574 
L 175.868689 275.918179 
L 177.325766 275.614175 
L 177.328737 275.613556 
L 178.362449 275.402027 
L 180.677404 274.927438 
L 183.225539 274.405276 
L 183.971846 274.252685 
L 184.721256 274.102961 
L 190.652512 272.917066 
L 191.627336 272.722816 
L 194.200464 272.208356 
L 196.916359 271.504253 
L 197.87754 271.25732 
L 198.957226 270.977793 
L 199.275491 270.882631 
L 200.748544 270.430918 
L 200.910292 270.381259 
L 201.894137 270.076271 
L 202.59614 269.86108 
L 202.616295 269.854955 
L 202.933469 269.757886 
L 203.014606 269.733022 
L 203.759601 269.505173 
L 203.889822 269.465581 
L 205.320766 268.790724 
L 206.048067 268.679997 
L 206.070911 268.676569 
L 206.148529 268.664681 
L 206.744252 268.574052 
L 207.017726 268.532405 
L 207.134446 268.514625 
L 207.277681 268.492869 
L 207.597717 268.44423 
L 207.735009 268.423366 
L 207.743842 268.483152 
L 208.126557 268.426645 
L 208.387589 268.388201 
L 208.378168 268.325554 
L 208.983807 268.233776 
L 209.96164 268.096394 
L 210.548309 268.016875 
L 210.936751 267.962886 
L 211.588678 267.862194 
L 211.911088 267.812394 
L 212.886425 267.640544 
L 213.866639 267.510335 
L 214.622048 267.409515 
L 214.853772 267.378337 
L 216.947664 267.098332 
L 217.936384 266.966604 
L 218.785759 266.855431 
L 218.835954 266.848773 
L 219.002406 266.827223 
L 219.026371 266.824241 
L 219.144369 266.808725 
L 219.550357 266.754894 
L 219.767194 266.727386 
L 220.743837 266.599447 
L 221.732841 266.486136 
L 222.723059 266.372215 
L 223.707905 266.247686 
L 224.812138 266.134058 
L 226.649295 265.931155 
L 227.764025 265.832496 
L 227.986288 265.809802 
L 228.445749 265.762975 
L 228.674255 265.739677 
L 229.149413 265.677854 
L 229.478118 265.635091 
L 229.650346 265.612895 
L 230.351731 265.503377 
L 230.525491 265.476281 
L 230.626529 265.460492 
L 231.599642 265.298486 
L 232.567997 265.119115 
L 233.535212 264.930156 
L 233.878562 264.85331 
L 234.886037 264.627897 
L 236.077957 264.322983 
L 237.581667 263.938808 
L 238.171494 263.787867 
L 239.28342 263.50375 
L 239.69864 263.403079 
L 239.896215 263.352316 
L 240.069484 263.307765 
L 240.266881 263.256889 
L 240.338119 263.239109 
L 240.434142 263.215692 
L 240.505679 263.198199 
L 240.670388 263.157938 
L 241.567216 262.93875 
L 241.746117 262.895075 
L 242.333583 262.726546 
L 242.93471 262.539666 
L 243.595438 262.33426 
L 244.95807 263.463006 
L 255.464156 260.325484 
L 256.368447 260.051186 
L 256.486626 260.015338 
L 256.841037 259.90844 
L 257.045437 259.845815 
L 257.367164 259.747068 
L 257.652133 259.657262 
L 258.259939 259.457723 
L 258.812924 259.269977 
L 259.577913 259.006079 
L 261.008473 258.512325 
L 261.120311 258.473741 
L 262.206366 258.098927 
L 264.667468 257.250219 
L 265.638439 256.914949 
L 265.776801 256.867178 
L 266.662005 256.562016 
L 271.349556 254.988881 
L 271.472777 254.949295 
L 271.532223 254.929431 
L 271.591735 254.909976 
L 271.651431 254.890869 
L 271.807104 254.843198 
L 271.963536 254.798267 
L 272.120728 254.756016 
L 272.27862 254.716447 
L 274.090959 254.283089 
L 274.3433 254.225486 
L 274.596872 254.173484 
L 274.851559 254.127146 
L 275.107185 254.086476 
L 275.363635 254.051474 
L 275.62079 254.022145 
L 275.848065 254.000846 
L 276.075668 253.983996 
L 276.303601 253.971594 
L 276.531687 253.963645 
L 276.566584 254.124714 
L 277.657038 253.89122 
L 277.642687 253.928289 
L 277.623315 253.963003 
L 277.599317 253.994592 
L 277.571089 254.02252 
L 277.539204 254.046188 
L 277.504354 254.06517 
L 277.46723 254.078983 
L 277.428472 254.087496 
L 276.515264 256.596649 
L 276.282073 259.25823 
L 276.140414 260.873005 
L 276.667002 265.032377 
L 278.240889 269.010485 
L 282.490734 276.287827 
L 285.21968 280.956469 
L 285.326503 281.139156 
L 285.358565 281.193988 
L 285.598602 281.613025 
L 285.731167 281.564288 
L 287.288907 280.991588 
L 287.5459 281.301706 
L 287.82703 281.681023 
L 287.999058 281.890364 
L 288.296556 282.252386 
L 288.394993 282.461378 
L 288.551872 282.794447 
L 289.160277 284.086158 
L 289.319506 284.424221 
L 289.481147 284.767406 
L 289.630393 285.084276 
L 289.791362 285.426036 
L 289.924654 285.36578 
L 290.067848 285.63718 
L 290.240019 285.963502 
L 290.452175 286.365611 
L 290.739784 286.910732 
L 290.768334 286.899503 
L 291.18958 287.745167 
L 291.721105 288.812227 
L 292.164482 289.262969 
L 292.619279 289.591224 
L 293.00822 289.747992 
L 293.841545 291.783527 
L 294.441527 293.247147 
L 294.419233 292.952424 
L 294.497491 292.671553 
L 294.679238 292.440821 
L 295.008398 292.277698 
L 295.431374 292.265004 
L 295.589349 292.606304 
L 295.864687 292.411092 
L 299.774725 292.597077 
L 300.109574 292.613245 
L 300.733088 292.642877 
L 300.942303 292.650595 
L 304.763358 292.787016 
L 309.036188 292.970529 
L 312.449404 293.117117 
L 317.749823 293.344889 
L 325.35732 293.671971 
L 341.732742 294.376708 
L 352.983907 294.866775 
L 353.266698 294.879067 
L 353.681658 294.932646 
L 354.530155 294.967179 
L 354.948467 294.935793 
L 359.571993 295.194879 
L 365.889423 295.488 
L 365.881832 295.207911 
L 365.879484 295.123417 
L 365.878701 295.095233 
L 365.824991 293.125943 
L 365.824915 293.123133 
L 365.81983 292.934336 
L 365.81472 292.741553 
L 365.818138 292.692876 
L 365.930001 290.869589 
L 366.698303 288.048718 
L 366.889641 287.626404 
L 366.940607 287.495285 
L 367.126233 287.018215 
L 367.330126 286.464598 
L 367.374865 286.343168 
L 367.523599 285.938055 
L 367.571787 285.807016 
L 367.573034 285.803626 
L 368.847711 282.369332 
L 369.179057 281.476721 
L 372.021763 277.877292 
L 374.553661 274.671359 
L 374.737257 274.436008 
L 375.011722 273.7808 
L 375.375622 272.912099 
L 375.569911 272.448336 
L 376.306451 270.665966 
L 378.094229 266.339553 
L 380.106504 261.470074 
L 379.865682 255.710762 
L 379.858279 255.530867 
L 379.827778 254.913849 
L 379.569285 253.958605 
L 379.271685 253.32108 
L 377.366065 250.33289 
L 377.063816 249.864084 
L 376.768306 249.39883 
L 376.516251 249.003834 
L 371.37555 240.934108 
L 370.697509 240.051829 
L 368.389719 237.535613 
L 368.317504 237.435419 
L 366.274037 234.597906 
L 366.269701 234.5919 
L 366.205925 234.503338 
L 366.164777 234.446199 
L 366.132287 234.394413 
L 366.130715 234.391926 
L 365.900374 234.02427 
L 365.687537 233.685382 
L 360.756531 225.849266 
L 358.884089 222.874566 
L 358.407387 222.127234 
L 357.867318 221.281049 
L 357.737726 221.077948 
L 356.690592 219.456585 
L 355.725232 217.961832 
L 355.437887 217.507097 
L 354.871982 216.612334 
L 353.992891 215.221877 
L 353.387729 214.265626 
L 351.538305 211.341551 
L 350.036091 208.966571 
L 348.485535 206.280775 
L 346.662541 203.126167 
L 346.629288 203.063494 
L 346.55361 202.933009 
L 346.343376 202.516901 
L 345.937272 201.71312 
L 345.341341 200.487932 
L 344.937951 199.350176 
L 344.635209 198.293126 
L 344.511169 197.426695 
L 344.590899 196.177131 
L 346.065942 190.681882 
L 347.306048 184.884235 
L 347.453047 184.113595 
L 347.673609 182.95778 
L 348.050846 180.074405 
L 348.137733 179.439596 
L 348.246417 178.610144 
L 348.352202 177.790134 
L 348.428075 177.187571 
L 346.338166 174.767221 
L 338.734085 165.96154 
L 338.364313 165.535282 
L 336.450858 163.329557 
L 334.062041 160.565987 
L 330.184575 156.079993 
L 330.120115 156.005089 
L 329.456673 155.239502 
L 326.925315 152.319261 
L 326.016884 151.271148 
L 324.852905 149.927715 
L 322.763384 147.516965 
L 322.170235 146.832682 
L 321.95925 146.589353 
L 321.380729 145.922055 
L 321.230715 145.748897 
L 320.566584 144.975137 
L 319.456413 143.680823 
L 317.279324 141.16938 
L 315.844022 139.513765 
L 314.060356 137.446335 
L 313.330564 136.601235 
L 311.261428 134.21212 
L 311.038683 133.953044 
L 311.125048 132.87869 
L 308.662518 130.044614 
L 306.322432 127.337396 
L 304.691045 125.45368 
L 304.637926 125.500077 
L 304.299685 125.108277 
L 304.041217 124.809399 
L 304.031858 124.817632 
L 302.92683 123.54684 
L 301.421265 121.808139 
L 300.873514 121.175753 
L 300.834654 121.130912 
L 300.831721 121.133262 
L 300.791952 121.119865 
L 300.716909 121.032178 
L 299.763079 119.921565 
L 299.394909 119.492888 
L 299.026199 119.063636 
L 297.858109 120.515502 
L 297.068807 121.496501 
L 296.737211 121.908612 
L 295.635419 123.278217 
L 295.266673 123.736446 
L 293.720314 125.65884 
L 292.611885 127.036808 
L 291.510189 128.406369 
L 290.813026 129.273547 
L 288.459245 127.289668 
L 287.109582 126.152463 
L 284.844806 124.24398 
L 283.80909 123.371569 
L 283.084414 122.760954 
L 282.359721 122.149695 
L 281.464031 121.395359 
L 281.158216 121.13762 
L 280.613394 120.680102 
L 280.520638 120.601477 
L 279.251876 119.524837 
L 278.7362 119.08751 
L 278.648445 119.013 
L 278.634863 119.001507 
L 278.402988 118.80439 
L 278.178685 118.61397 
L 278.091883 118.54026 
L 278.069662 118.521448 
L 277.555231 118.085034 
L 276.376509 117.084099 
L 275.194277 116.080781 
L 274.663996 115.631228 
L 274.650589 115.619731 
L 274.560631 115.543511 
L 274.372307 115.383629 
L 273.551505 114.686572 
L 273.153704 114.348796 
L 272.745914 114.003496 
L 271.675537 113.09482 
L 271.240464 112.733162 
L 270.820799 112.384312 
L 268.483077 110.395854 
L 268.01577 110.806638 
L 264.396286 107.310628 
L 262.124661 105.115772 
" clip-path="url(#pd958c301a3)" style="fill: #1f77b4"/>
   </g>
   <g id="matplotlib.axis_1">
    <g id="xtick_1">
     <g id="line2d_1">
      <defs>
       <path id="m0327568104" d="M 0 0 
L 0 3.5 
" style="stroke: #000000; stroke-width: 0.8"/>
      </defs>
      <g>
       <use xlink:href="#m0327568104" x="107.84902" y="307.584" style="stroke: #000000; stroke-width: 0.8"/>
      </g>
     </g>
     <g id="text_1">
      <!-- 13.41 -->
      <g transform="translate(93.534958 322.182437) scale(0.1 -0.1)">
       <defs>
        <path id="DejaVuSans-31" d="M 794 531 
L 1825 531 
L 1825 4091 
L 703 3866 
L 703 4441 
L 1819 4666 
L 2450 4666 
L 2450 531 
L 3481 531 
L 3481 0 
L 794 0 
L 794 531 
z
" transform="scale(0.015625)"/>
        <path id="DejaVuSans-33" d="M 2597 2516 
Q 3050 2419 3304 2112 
Q 3559 1806 3559 1356 
Q 3559 666 3084 287 
Q 2609 -91 1734 -91 
Q 1441 -91 1130 -33 
Q 819 25 488 141 
L 488 750 
Q 750 597 1062 519 
Q 1375 441 1716 441 
Q 2309 441 2620 675 
Q 2931 909 2931 1356 
Q 2931 1769 2642 2001 
Q 2353 2234 1838 2234 
L 1294 2234 
L 1294 2753 
L 1863 2753 
Q 2328 2753 2575 2939 
Q 2822 3125 2822 3475 
Q 2822 3834 2567 4026 
Q 2313 4219 1838 4219 
Q 1578 4219 1281 4162 
Q 984 4106 628 3988 
L 628 4550 
Q 988 4650 1302 4700 
Q 1616 4750 1894 4750 
Q 2613 4750 3031 4423 
Q 3450 4097 3450 3541 
Q 3450 3153 3228 2886 
Q 3006 2619 2597 2516 
z
" transform="scale(0.015625)"/>
        <path id="DejaVuSans-2e" d="M 684 794 
L 1344 794 
L 1344 0 
L 684 0 
L 684 794 
z
" transform="scale(0.015625)"/>
        <path id="DejaVuSans-34" d="M 2419 4116 
L 825 1625 
L 2419 1625 
L 2419 4116 
z
M 2253 4666 
L 3047 4666 
L 3047 1625 
L 3713 1625 
L 3713 1100 
L 3047 1100 
L 3047 0 
L 2419 0 
L 2419 1100 
L 313 1100 
L 313 1709 
L 2253 4666 
z
" transform="scale(0.015625)"/>
       </defs>
       <use xlink:href="#DejaVuSans-31"/>
       <use xlink:href="#DejaVuSans-33" x="63.623047"/>
       <use xlink:href="#DejaVuSans-2e" x="127.246094"/>
       <use xlink:href="#DejaVuSans-34" x="159.033203"/>
       <use xlink:href="#DejaVuSans-31" x="222.65625"/>
      </g>
     </g>
    </g>
    <g id="xtick_2">
     <g id="line2d_2">
      <g>
       <use xlink:href="#m0327568104" x="147.566044" y="307.584" style="stroke: #000000; stroke-width: 0.8"/>
      </g>
     </g>
     <g id="text_2">
      <!-- 13.42 -->
      <g transform="translate(133.251982 322.182437) scale(0.1 -0.1)">
       <defs>
        <path id="DejaVuSans-32" d="M 1228 531 
L 3431 531 
L 3431 0 
L 469 0 
L 469 531 
Q 828 903 1448 1529 
Q 2069 2156 2228 2338 
Q 2531 2678 2651 2914 
Q 2772 3150 2772 3378 
Q 2772 3750 2511 3984 
Q 2250 4219 1831 4219 
Q 1534 4219 1204 4116 
Q 875 4013 500 3803 
L 500 4441 
Q 881 4594 1212 4672 
Q 1544 4750 1819 4750 
Q 2544 4750 2975 4387 
Q 3406 4025 3406 3419 
Q 3406 3131 3298 2873 
Q 3191 2616 2906 2266 
Q 2828 2175 2409 1742 
Q 1991 1309 1228 531 
z
" transform="scale(0.015625)"/>
       </defs>
       <use xlink:href="#DejaVuSans-31"/>
       <use xlink:href="#DejaVuSans-33" x="63.623047"/>
       <use xlink:href="#DejaVuSans-2e" x="127.246094"/>
       <use xlink:href="#DejaVuSans-34" x="159.033203"/>
       <use xlink:href="#DejaVuSans-32" x="222.65625"/>
      </g>
     </g>
    </g>
    <g id="xtick_3">
     <g id="line2d_3">
      <g>
       <use xlink:href="#m0327568104" x="187.283069" y="307.584" style="stroke: #000000; stroke-width: 0.8"/>
      </g>
     </g>
     <g id="text_3">
      <!-- 13.43 -->
      <g transform="translate(172.969006 322.182437) scale(0.1 -0.1)">
       <use xlink:href="#DejaVuSans-31"/>
       <use xlink:href="#DejaVuSans-33" x="63.623047"/>
       <use xlink:href="#DejaVuSans-2e" x="127.246094"/>
       <use xlink:href="#DejaVuSans-34" x="159.033203"/>
       <use xlink:href="#DejaVuSans-33" x="222.65625"/>
      </g>
     </g>
    </g>
    <g id="xtick_4">
     <g id="line2d_4">
      <g>
       <use xlink:href="#m0327568104" x="227.000093" y="307.584" style="stroke: #000000; stroke-width: 0.8"/>
      </g>
     </g>
     <g id="text_4">
      <!-- 13.44 -->
      <g transform="translate(212.68603 322.182437) scale(0.1 -0.1)">
       <use xlink:href="#DejaVuSans-31"/>
       <use xlink:href="#DejaVuSans-33" x="63.623047"/>
       <use xlink:href="#DejaVuSans-2e" x="127.246094"/>
       <use xlink:href="#DejaVuSans-34" x="159.033203"/>
       <use xlink:href="#DejaVuSans-34" x="222.65625"/>
      </g>
     </g>
    </g>
    <g id="xtick_5">
     <g id="line2d_5">
      <g>
       <use xlink:href="#m0327568104" x="266.717117" y="307.584" style="stroke: #000000; stroke-width: 0.8"/>
      </g>
     </g>
     <g id="text_5">
      <!-- 13.45 -->
      <g transform="translate(252.403055 322.182437) scale(0.1 -0.1)">
       <defs>
        <path id="DejaVuSans-35" d="M 691 4666 
L 3169 4666 
L 3169 4134 
L 1269 4134 
L 1269 2991 
Q 1406 3038 1543 3061 
Q 1681 3084 1819 3084 
Q 2600 3084 3056 2656 
Q 3513 2228 3513 1497 
Q 3513 744 3044 326 
Q 2575 -91 1722 -91 
Q 1428 -91 1123 -41 
Q 819 9 494 109 
L 494 744 
Q 775 591 1075 516 
Q 1375 441 1709 441 
Q 2250 441 2565 725 
Q 2881 1009 2881 1497 
Q 2881 1984 2565 2268 
Q 2250 2553 1709 2553 
Q 1456 2553 1204 2497 
Q 953 2441 691 2322 
L 691 4666 
z
" transform="scale(0.015625)"/>
       </defs>
       <use xlink:href="#DejaVuSans-31"/>
       <use xlink:href="#DejaVuSans-33" x="63.623047"/>
       <use xlink:href="#DejaVuSans-2e" x="127.246094"/>
       <use xlink:href="#DejaVuSans-34" x="159.033203"/>
       <use xlink:href="#DejaVuSans-35" x="222.65625"/>
      </g>
     </g>
    </g>
    <g id="xtick_6">
     <g id="line2d_6">
      <g>
       <use xlink:href="#m0327568104" x="306.434142" y="307.584" style="stroke: #000000; stroke-width: 0.8"/>
      </g>
     </g>
     <g id="text_6">
      <!-- 13.46 -->
      <g transform="translate(292.120079 322.182437) scale(0.1 -0.1)">
       <defs>
        <path id="DejaVuSans-36" d="M 2113 2584 
Q 1688 2584 1439 2293 
Q 1191 2003 1191 1497 
Q 1191 994 1439 701 
Q 1688 409 2113 409 
Q 2538 409 2786 701 
Q 3034 994 3034 1497 
Q 3034 2003 2786 2293 
Q 2538 2584 2113 2584 
z
M 3366 4563 
L 3366 3988 
Q 3128 4100 2886 4159 
Q 2644 4219 2406 4219 
Q 1781 4219 1451 3797 
Q 1122 3375 1075 2522 
Q 1259 2794 1537 2939 
Q 1816 3084 2150 3084 
Q 2853 3084 3261 2657 
Q 3669 2231 3669 1497 
Q 3669 778 3244 343 
Q 2819 -91 2113 -91 
Q 1303 -91 875 529 
Q 447 1150 447 2328 
Q 447 3434 972 4092 
Q 1497 4750 2381 4750 
Q 2619 4750 2861 4703 
Q 3103 4656 3366 4563 
z
" transform="scale(0.015625)"/>
       </defs>
       <use xlink:href="#DejaVuSans-31"/>
       <use xlink:href="#DejaVuSans-33" x="63.623047"/>
       <use xlink:href="#DejaVuSans-2e" x="127.246094"/>
       <use xlink:href="#DejaVuSans-34" x="159.033203"/>
       <use xlink:href="#DejaVuSans-36" x="222.65625"/>
      </g>
     </g>
    </g>
    <g id="xtick_7">
     <g id="line2d_7">
      <g>
       <use xlink:href="#m0327568104" x="346.151166" y="307.584" style="stroke: #000000; stroke-width: 0.8"/>
      </g>
     </g>
     <g id="text_7">
      <!-- 13.47 -->
      <g transform="translate(331.837103 322.182437) scale(0.1 -0.1)">
       <defs>
        <path id="DejaVuSans-37" d="M 525 4666 
L 3525 4666 
L 3525 4397 
L 1831 0 
L 1172 0 
L 2766 4134 
L 525 4134 
L 525 4666 
z
" transform="scale(0.015625)"/>
       </defs>
       <use xlink:href="#DejaVuSans-31"/>
       <use xlink:href="#DejaVuSans-33" x="63.623047"/>
       <use xlink:href="#DejaVuSans-2e" x="127.246094"/>
       <use xlink:href="#DejaVuSans-34" x="159.033203"/>
       <use xlink:href="#DejaVuSans-37" x="222.65625"/>
      </g>
     </g>
    </g>
    <g id="xtick_8">
     <g id="line2d_8">
      <g>
       <use xlink:href="#m0327568104" x="385.86819" y="307.584" style="stroke: #000000; stroke-width: 0.8"/>
      </g>
     </g>
     <g id="text_8">
      <!-- 13.48 -->
      <g transform="translate(371.554128 322.182437) scale(0.1 -0.1)">
       <defs>
        <path id="DejaVuSans-38" d="M 2034 2216 
Q 1584 2216 1326 1975 
Q 1069 1734 1069 1313 
Q 1069 891 1326 650 
Q 1584 409 2034 409 
Q 2484 409 2743 651 
Q 3003 894 3003 1313 
Q 3003 1734 2745 1975 
Q 2488 2216 2034 2216 
z
M 1403 2484 
Q 997 2584 770 2862 
Q 544 3141 544 3541 
Q 544 4100 942 4425 
Q 1341 4750 2034 4750 
Q 2731 4750 3128 4425 
Q 3525 4100 3525 3541 
Q 3525 3141 3298 2862 
Q 3072 2584 2669 2484 
Q 3125 2378 3379 2068 
Q 3634 1759 3634 1313 
Q 3634 634 3220 271 
Q 2806 -91 2034 -91 
Q 1263 -91 848 271 
Q 434 634 434 1313 
Q 434 1759 690 2068 
Q 947 2378 1403 2484 
z
M 1172 3481 
Q 1172 3119 1398 2916 
Q 1625 2713 2034 2713 
Q 2441 2713 2670 2916 
Q 2900 3119 2900 3481 
Q 2900 3844 2670 4047 
Q 2441 4250 2034 4250 
Q 1625 4250 1398 4047 
Q 1172 3844 1172 3481 
z
" transform="scale(0.015625)"/>
       </defs>
       <use xlink:href="#DejaVuSans-31"/>
       <use xlink:href="#DejaVuSans-33" x="63.623047"/>
       <use xlink:href="#DejaVuSans-2e" x="127.246094"/>
       <use xlink:href="#DejaVuSans-34" x="159.033203"/>
       <use xlink:href="#DejaVuSans-38" x="222.65625"/>
      </g>
     </g>
    </g>
   </g>
   <g id="matplotlib.axis_2">
    <g id="ytick_1">
     <g id="line2d_9">
      <defs>
       <path id="m603d55b37a" d="M 0 0 
L -3.5 0 
" style="stroke: #000000; stroke-width: 0.8"/>
      </defs>
      <g>
       <use xlink:href="#m603d55b37a" x="77.818846" y="287.431316" style="stroke: #000000; stroke-width: 0.8"/>
      </g>
     </g>
     <g id="text_9">
      <!-- 52.460 -->
      <g transform="translate(35.828221 291.230535) scale(0.1 -0.1)">
       <defs>
        <path id="DejaVuSans-30" d="M 2034 4250 
Q 1547 4250 1301 3770 
Q 1056 3291 1056 2328 
Q 1056 1369 1301 889 
Q 1547 409 2034 409 
Q 2525 409 2770 889 
Q 3016 1369 3016 2328 
Q 3016 3291 2770 3770 
Q 2525 4250 2034 4250 
z
M 2034 4750 
Q 2819 4750 3233 4129 
Q 3647 3509 3647 2328 
Q 3647 1150 3233 529 
Q 2819 -91 2034 -91 
Q 1250 -91 836 529 
Q 422 1150 422 2328 
Q 422 3509 836 4129 
Q 1250 4750 2034 4750 
z
" transform="scale(0.015625)"/>
       </defs>
       <use xlink:href="#DejaVuSans-35"/>
       <use xlink:href="#DejaVuSans-32" x="63.623047"/>
       <use xlink:href="#DejaVuSans-2e" x="127.246094"/>
       <use xlink:href="#DejaVuSans-34" x="159.033203"/>
       <use xlink:href="#DejaVuSans-36" x="222.65625"/>
       <use xlink:href="#DejaVuSans-30" x="286.279297"/>
      </g>
     </g>
    </g>
    <g id="ytick_2">
     <g id="line2d_10">
      <g>
       <use xlink:href="#m603d55b37a" x="77.818846" y="254.826964" style="stroke: #000000; stroke-width: 0.8"/>
      </g>
     </g>
     <g id="text_10">
      <!-- 52.465 -->
      <g transform="translate(35.828221 258.626183) scale(0.1 -0.1)">
       <use xlink:href="#DejaVuSans-35"/>
       <use xlink:href="#DejaVuSans-32" x="63.623047"/>
       <use xlink:href="#DejaVuSans-2e" x="127.246094"/>
       <use xlink:href="#DejaVuSans-34" x="159.033203"/>
       <use xlink:href="#DejaVuSans-36" x="222.65625"/>
       <use xlink:href="#DejaVuSans-35" x="286.279297"/>
      </g>
     </g>
    </g>
    <g id="ytick_3">
     <g id="line2d_11">
      <g>
       <use xlink:href="#m603d55b37a" x="77.818846" y="222.222612" style="stroke: #000000; stroke-width: 0.8"/>
      </g>
     </g>
     <g id="text_11">
      <!-- 52.470 -->
      <g transform="translate(35.828221 226.021831) scale(0.1 -0.1)">
       <use xlink:href="#DejaVuSans-35"/>
       <use xlink:href="#DejaVuSans-32" x="63.623047"/>
       <use xlink:href="#DejaVuSans-2e" x="127.246094"/>
       <use xlink:href="#DejaVuSans-34" x="159.033203"/>
       <use xlink:href="#DejaVuSans-37" x="222.65625"/>
       <use xlink:href="#DejaVuSans-30" x="286.279297"/>
      </g>
     </g>
    </g>
    <g id="ytick_4">
     <g id="line2d_12">
      <g>
       <use xlink:href="#m603d55b37a" x="77.818846" y="189.61826" style="stroke: #000000; stroke-width: 0.8"/>
      </g>
     </g>
     <g id="text_12">
      <!-- 52.475 -->
      <g transform="translate(35.828221 193.417479) scale(0.1 -0.1)">
       <use xlink:href="#DejaVuSans-35"/>
       <use xlink:href="#DejaVuSans-32" x="63.623047"/>
       <use xlink:href="#DejaVuSans-2e" x="127.246094"/>
       <use xlink:href="#DejaVuSans-34" x="159.033203"/>
       <use xlink:href="#DejaVuSans-37" x="222.65625"/>
       <use xlink:href="#DejaVuSans-35" x="286.279297"/>
      </g>
     </g>
    </g>
    <g id="ytick_5">
     <g id="line2d_13">
      <g>
       <use xlink:href="#m603d55b37a" x="77.818846" y="157.013908" style="stroke: #000000; stroke-width: 0.8"/>
      </g>
     </g>
     <g id="text_13">
      <!-- 52.480 -->
      <g transform="translate(35.828221 160.813127) scale(0.1 -0.1)">
       <use xlink:href="#DejaVuSans-35"/>
       <use xlink:href="#DejaVuSans-32" x="63.623047"/>
       <use xlink:href="#DejaVuSans-2e" x="127.246094"/>
       <use xlink:href="#DejaVuSans-34" x="159.033203"/>
       <use xlink:href="#DejaVuSans-38" x="222.65625"/>
       <use xlink:href="#DejaVuSans-30" x="286.279297"/>
      </g>
     </g>
    </g>
    <g id="ytick_6">
     <g id="line2d_14">
      <g>
       <use xlink:href="#m603d55b37a" x="77.818846" y="124.409556" style="stroke: #000000; stroke-width: 0.8"/>
      </g>
     </g>
     <g id="text_14">
      <!-- 52.485 -->
      <g transform="translate(35.828221 128.208775) scale(0.1 -0.1)">
       <use xlink:href="#DejaVuSans-35"/>
       <use xlink:href="#DejaVuSans-32" x="63.623047"/>
       <use xlink:href="#DejaVuSans-2e" x="127.246094"/>
       <use xlink:href="#DejaVuSans-34" x="159.033203"/>
       <use xlink:href="#DejaVuSans-38" x="222.65625"/>
       <use xlink:href="#DejaVuSans-35" x="286.279297"/>
      </g>
     </g>
    </g>
    <g id="ytick_7">
     <g id="line2d_15">
      <g>
       <use xlink:href="#m603d55b37a" x="77.818846" y="91.805204" style="stroke: #000000; stroke-width: 0.8"/>
      </g>
     </g>
     <g id="text_15">
      <!-- 52.490 -->
      <g transform="translate(35.828221 95.604423) scale(0.1 -0.1)">
       <defs>
        <path id="DejaVuSans-39" d="M 703 97 
L 703 672 
Q 941 559 1184 500 
Q 1428 441 1663 441 
Q 2288 441 2617 861 
Q 2947 1281 2994 2138 
Q 2813 1869 2534 1725 
Q 2256 1581 1919 1581 
Q 1219 1581 811 2004 
Q 403 2428 403 3163 
Q 403 3881 828 4315 
Q 1253 4750 1959 4750 
Q 2769 4750 3195 4129 
Q 3622 3509 3622 2328 
Q 3622 1225 3098 567 
Q 2575 -91 1691 -91 
Q 1453 -91 1209 -44 
Q 966 3 703 97 
z
M 1959 2075 
Q 2384 2075 2632 2365 
Q 2881 2656 2881 3163 
Q 2881 3666 2632 3958 
Q 2384 4250 1959 4250 
Q 1534 4250 1286 3958 
Q 1038 3666 1038 3163 
Q 1038 2656 1286 2365 
Q 1534 2075 1959 2075 
z
" transform="scale(0.015625)"/>
       </defs>
       <use xlink:href="#DejaVuSans-35"/>
       <use xlink:href="#DejaVuSans-32" x="63.623047"/>
       <use xlink:href="#DejaVuSans-2e" x="127.246094"/>
       <use xlink:href="#DejaVuSans-34" x="159.033203"/>
       <use xlink:href="#DejaVuSans-39" x="222.65625"/>
       <use xlink:href="#DejaVuSans-30" x="286.279297"/>
      </g>
     </g>
    </g>
    <g id="ytick_8">
     <g id="line2d_16">
      <g>
       <use xlink:href="#m603d55b37a" x="77.818846" y="59.200852" style="stroke: #000000; stroke-width: 0.8"/>
      </g>
     </g>
     <g id="text_16">
      <!-- 52.495 -->
      <g transform="translate(35.828221 63.000071) scale(0.1 -0.1)">
       <use xlink:href="#DejaVuSans-35"/>
       <use xlink:href="#DejaVuSans-32" x="63.623047"/>
       <use xlink:href="#DejaVuSans-2e" x="127.246094"/>
       <use xlink:href="#DejaVuSans-34" x="159.033203"/>
       <use xlink:href="#DejaVuSans-39" x="222.65625"/>
       <use xlink:href="#DejaVuSans-35" x="286.279297"/>
      </g>
     </g>
    </g>
   </g>
   <g id="patch_3">
    <path d="M 77.818846 307.584 
L 77.818846 41.472 
" style="fill: none; stroke: #000000; stroke-width: 0.8; stroke-linejoin: miter; stroke-linecap: square"/>
   </g>
   <g id="patch_4">
    <path d="M 394.501154 307.584 
L 394.501154 41.472 
" style="fill: none; stroke: #000000; stroke-width: 0.8; stroke-linejoin: miter; stroke-linecap: square"/>
   </g>
   <g id="patch_5">
    <path d="M 77.818846 307.584 
L 394.501154 307.584 
" style="fill: none; stroke: #000000; stroke-width: 0.8; stroke-linejoin: miter; stroke-linecap: square"/>
   </g>
   <g id="patch_6">
    <path d="M 77.818846 41.472 
L 394.501154 41.472 
" style="fill: none; stroke: #000000; stroke-width: 0.8; stroke-linejoin: miter; stroke-linecap: square"/>
   </g>
   <g id="text_17">
    <!-- Neukölln -->
    <g transform="translate(206.538132 192.023823) scale(0.12 -0.12)">
     <defs>
      <path id="DejaVuSans-4e" d="M 628 4666 
L 1478 4666 
L 3547 763 
L 3547 4666 
L 4159 4666 
L 4159 0 
L 3309 0 
L 1241 3903 
L 1241 0 
L 628 0 
L 628 4666 
z
" transform="scale(0.015625)"/>
      <path id="DejaVuSans-65" d="M 3597 1894 
L 3597 1613 
L 953 1613 
Q 991 1019 1311 708 
Q 1631 397 2203 397 
Q 2534 397 2845 478 
Q 3156 559 3463 722 
L 3463 178 
Q 3153 47 2828 -22 
Q 2503 -91 2169 -91 
Q 1331 -91 842 396 
Q 353 884 353 1716 
Q 353 2575 817 3079 
Q 1281 3584 2069 3584 
Q 2775 3584 3186 3129 
Q 3597 2675 3597 1894 
z
M 3022 2063 
Q 3016 2534 2758 2815 
Q 2500 3097 2075 3097 
Q 1594 3097 1305 2825 
Q 1016 2553 972 2059 
L 3022 2063 
z
" transform="scale(0.015625)"/>
      <path id="DejaVuSans-75" d="M 544 1381 
L 544 3500 
L 1119 3500 
L 1119 1403 
Q 1119 906 1312 657 
Q 1506 409 1894 409 
Q 2359 409 2629 706 
Q 2900 1003 2900 1516 
L 2900 3500 
L 3475 3500 
L 3475 0 
L 2900 0 
L 2900 538 
Q 2691 219 2414 64 
Q 2138 -91 1772 -91 
Q 1169 -91 856 284 
Q 544 659 544 1381 
z
M 1991 3584 
L 1991 3584 
z
" transform="scale(0.015625)"/>
      <path id="DejaVuSans-6b" d="M 581 4863 
L 1159 4863 
L 1159 1991 
L 2875 3500 
L 3609 3500 
L 1753 1863 
L 3688 0 
L 2938 0 
L 1159 1709 
L 1159 0 
L 581 0 
L 581 4863 
z
" transform="scale(0.015625)"/>
      <path id="DejaVuSans-f6" d="M 1959 3097 
Q 1497 3097 1228 2736 
Q 959 2375 959 1747 
Q 959 1119 1226 758 
Q 1494 397 1959 397 
Q 2419 397 2687 759 
Q 2956 1122 2956 1747 
Q 2956 2369 2687 2733 
Q 2419 3097 1959 3097 
z
M 1959 3584 
Q 2709 3584 3137 3096 
Q 3566 2609 3566 1747 
Q 3566 888 3137 398 
Q 2709 -91 1959 -91 
Q 1206 -91 779 398 
Q 353 888 353 1747 
Q 353 2609 779 3096 
Q 1206 3584 1959 3584 
z
M 2253 4850 
L 2888 4850 
L 2888 4219 
L 2253 4219 
L 2253 4850 
z
M 1031 4850 
L 1666 4850 
L 1666 4219 
L 1031 4219 
L 1031 4850 
z
" transform="scale(0.015625)"/>
      <path id="DejaVuSans-6c" d="M 603 4863 
L 1178 4863 
L 1178 0 
L 603 0 
L 603 4863 
z
" transform="scale(0.015625)"/>
      <path id="DejaVuSans-6e" d="M 3513 2113 
L 3513 0 
L 2938 0 
L 2938 2094 
Q 2938 2591 2744 2837 
Q 2550 3084 2163 3084 
Q 1697 3084 1428 2787 
Q 1159 2491 1159 1978 
L 1159 0 
L 581 0 
L 581 3500 
L 1159 3500 
L 1159 2956 
Q 1366 3272 1645 3428 
Q 1925 3584 2291 3584 
Q 2894 3584 3203 3211 
Q 3513 2838 3513 2113 
z
" transform="scale(0.015625)"/>
     </defs>
     <use xlink:href="#DejaVuSans-4e"/>
     <use xlink:href="#DejaVuSans-65" x="74.804688"/>
     <use xlink:href="#DejaVuSans-75" x="136.328125"/>
     <use xlink:href="#DejaVuSans-6b" x="199.707031"/>
     <use xlink:href="#DejaVuSans-f6" x="253.992188"/>
     <use xlink:href="#DejaVuSans-6c" x="315.173828"/>
     <use xlink:href="#DejaVuSans-6c" x="342.957031"/>
     <use xlink:href="#DejaVuSans-6e" x="370.740234"/>
    </g>
   </g>
  </g>
 </g>
 <defs>
  <clipPath id="pd958c301a3">
   <rect x="77.818846" y="41.472" width="316.682309" height="266.112"/>
  </clipPath>
 </defs>
</svg>
