<?xml version="1.0" encoding="utf-8" standalone="no"?>
<!DOCTYPE svg PUBLIC "-//W3C//DTD SVG 1.1//EN"
  "http://www.w3.org/Graphics/SVG/1.1/DTD/svg11.dtd">
<svg xmlns:xlink="http://www.w3.org/1999/xlink" width="460.8pt" height="345.6pt" viewBox="0 0 460.8 345.6" xmlns="http://www.w3.org/2000/svg" version="1.1">
 <metadata>
  <rdf:RDF xmlns:dc="http://purl.org/dc/elements/1.1/" xmlns:cc="http://creativecommons.org/ns#" xmlns:rdf="http://www.w3.org/1999/02/22-rdf-syntax-ns#">
   <cc:Work>
    <dc:type rdf:resource="http://purl.org/dc/dcmitype/StillImage"/>
    <dc:date>2024-10-15T09:53:26.996858</dc:date>
    <dc:format>image/svg+xml</dc:format>
    <dc:creator>
     <cc:Agent>
      <dc:title>Matplotlib v3.8.4, https://matplotlib.org/</dc:title>
     </cc:Agent>
    </dc:creator>
   </cc:Work>
  </rdf:RDF>
 </metadata>
 <defs>
  <style type="text/css">*{stroke-linejoin: round; stroke-linecap: butt}</style>
 </defs>
 <g id="figure_1">
  <g id="patch_1">
   <path d="M 0 345.6 
L 460.8 345.6 
L 460.8 0 
L 0 0 
z
" style="fill: #ffffff"/>
  </g>
  <g id="axes_1">
   <g id="patch_2">
    <path d="M 78.607587 307.584 
L 393.712413 307.584 
L 393.712413 41.472 
L 78.607587 41.472 
z
" style="fill: #ffffff"/>
   </g>
   <g id="PatchCollection_1">
    <path d="M 97.024105 53.568 
L 96.899527 53.578987 
L 96.775708 53.596371 
L 96.65287 53.620035 
L 96.531463 53.64997 
L 96.411709 53.686112 
L 96.293999 53.728287 
L 96.178555 53.776487 
L 96.065712 53.830537 
L 93.987491 55.289676 
L 93.888119 55.556167 
L 94.150866 57.935236 
L 94.038805 57.92569 
L 94.096155 61.102448 
L 94.111973 61.975446 
L 94.115097 62.096122 
L 94.184664 64.793284 
L 94.190069 67.597541 
L 94.690772 71.902509 
L 95.116987 74.633425 
L 95.40798 76.203503 
L 95.531953 76.872439 
L 95.599748 77.238456 
L 95.630355 77.403476 
L 95.652974 77.555114 
L 95.657787 77.587359 
L 95.667416 77.651963 
L 95.677584 77.720605 
L 95.682723 77.754869 
L 95.728358 78.060893 
L 95.78324 78.429504 
L 95.824266 78.70491 
L 95.970546 79.686354 
L 96.250583 81.56563 
L 96.677908 83.752664 
L 97.252786 87.095818 
L 97.579158 89.736854 
L 97.577188 89.906426 
L 97.5753 90.072113 
L 97.564357 91.025154 
L 97.417293 92.412667 
L 97.249556 93.55116 
L 96.927059 94.916189 
L 96.583439 96.232287 
L 96.575513 96.259696 
L 96.470816 96.619818 
L 96.275572 97.291921 
L 95.913706 98.422807 
L 95.559304 99.102504 
L 95.227893 99.68722 
L 94.868095 100.285397 
L 94.609185 100.660768 
L 94.370106 101.003796 
L 94.223025 101.201692 
L 93.830857 101.714618 
L 92.930534 102.892157 
L 94.315769 102.685934 
L 94.60808 102.642348 
L 96.38937 102.377073 
L 97.697615 102.182315 
L 98.908275 102.002055 
L 99.481543 101.91672 
L 99.699253 101.888752 
L 100.225587 101.821117 
L 100.747723 101.754027 
L 100.902825 103.196147 
L 101.203894 105.995125 
L 101.654898 110.188627 
L 101.702527 110.57518 
L 101.735237 110.840588 
L 101.761579 111.054205 
L 101.789146 111.277528 
L 101.817551 111.508259 
L 101.847384 111.750212 
L 101.875245 111.97668 
L 101.906371 112.228901 
L 101.993205 112.933382 
L 102.017628 113.131343 
L 102.029864 113.176928 
L 102.223159 113.89519 
L 102.350449 114.368083 
L 102.510025 114.960498 
L 102.543725 115.085559 
L 102.574737 115.200776 
L 103.172968 117.424137 
L 103.212606 117.571515 
L 103.481562 118.571112 
L 103.53992 118.78818 
L 103.543703 118.801825 
L 103.546096 118.811055 
L 104.420294 122.060136 
L 104.552594 122.551769 
L 104.728569 123.205881 
L 106.063806 128.169312 
L 106.085373 128.248504 
L 106.091084 128.288438 
L 102.544921 128.823462 
L 102.474483 128.834087 
L 102.493959 128.963346 
L 102.345923 128.985768 
L 101.915098 129.009076 
L 102.173468 129.961869 
L 102.302387 130.4529 
L 102.987168 133.06797 
L 103.596089 135.393386 
L 103.673811 135.737353 
L 104.233465 138.213813 
L 104.331387 138.826449 
L 104.538725 140.112119 
L 104.651991 140.814551 
L 104.889359 142.316007 
L 105.159435 144.004607 
L 105.424672 145.827338 
L 105.575484 146.816509 
L 105.729572 147.826932 
L 105.869808 148.746568 
L 105.895395 148.835011 
L 105.972458 149.101291 
L 106.066898 149.427445 
L 106.184436 149.833545 
L 106.547261 151.087292 
L 106.888177 152.289592 
L 108.382799 157.608355 
L 108.716954 158.523348 
L 110.500025 163.286959 
L 111.440824 165.813881 
L 111.510933 166.002108 
L 111.595781 166.230012 
L 111.714758 166.549546 
L 111.846144 166.90234 
L 111.900803 167.049273 
L 111.903188 167.055634 
L 112.665292 169.096399 
L 115.305193 167.867938 
L 115.470307 167.791185 
L 116.100036 167.498137 
L 117.793505 166.710102 
L 117.945142 167.197542 
L 118.024949 167.454143 
L 118.129285 167.789646 
L 118.209513 168.047532 
L 118.362945 168.540053 
L 118.896288 168.292022 
L 119.686665 167.925707 
L 120.886013 167.364707 
L 124.048917 166.172506 
L 124.168605 166.135419 
L 126.019991 165.56129 
L 126.608282 165.378845 
L 126.73254 165.340252 
L 127.009822 165.25427 
L 127.743113 165.026923 
L 127.859176 164.990875 
L 127.919049 164.972389 
L 127.972677 164.955728 
L 128.074915 164.923981 
L 128.819189 164.693244 
L 128.859381 164.680707 
L 129.029855 164.627869 
L 131.346135 163.909572 
L 131.497154 163.862793 
L 132.637181 163.509258 
L 132.955666 163.410556 
L 133.772083 163.157361 
L 135.926943 162.489149 
L 136.150992 162.419658 
L 136.310597 162.37016 
L 136.520431 162.305091 
L 136.707354 162.247168 
L 137.113033 162.305211 
L 137.595962 162.374262 
L 137.932161 162.42242 
L 138.668069 162.527686 
L 138.82015 162.549475 
L 139.35212 162.625548 
L 143.016955 163.149934 
L 143.414186 163.206766 
L 143.554611 163.226902 
L 144.029429 163.294793 
L 144.299185 163.333398 
L 144.424971 163.351439 
L 145.011722 163.435371 
L 145.637549 163.524913 
L 145.767839 163.543586 
L 146.411403 163.63572 
L 147.399493 163.777079 
L 148.41917 163.923033 
L 149.677408 164.103113 
L 149.840352 164.126413 
L 150.868622 164.200092 
L 152.757062 164.335414 
L 154.291471 164.744502 
L 154.325402 164.753545 
L 154.458077 164.78888 
L 155.100115 164.960121 
L 155.973626 165.193048 
L 156.085468 165.222823 
L 156.714235 165.390478 
L 157.43322 165.582197 
L 158.479543 165.861175 
L 158.559656 165.882535 
L 159.696351 166.469268 
L 161.161112 167.225398 
L 162.312497 167.519857 
L 162.439833 167.552444 
L 163.088927 167.718372 
L 163.386496 167.794531 
L 163.523878 167.829655 
L 164.134647 167.985851 
L 164.787521 168.152768 
L 164.904754 168.182822 
L 165.16631 168.249704 
L 166.350028 168.552471 
L 166.41076 168.567958 
L 166.626081 168.622693 
L 167.256635 168.782906 
L 167.457168 168.833859 
L 167.557297 168.859451 
L 169.032743 169.235991 
L 169.830659 169.439622 
L 170.166656 169.525353 
L 170.300084 169.559442 
L 170.766913 169.678588 
L 171.54733 169.87777 
L 172.519421 170.125856 
L 172.619266 170.151344 
L 173.005638 170.24368 
L 173.618258 170.390066 
L 174.035325 170.48983 
L 174.154414 170.520128 
L 174.32578 170.563764 
L 174.851966 170.697748 
L 175.195684 170.785271 
L 175.963836 170.980853 
L 176.896342 171.21829 
L 176.948042 171.231502 
L 177.071759 171.262994 
L 177.814003 171.452005 
L 178.52481 171.633043 
L 178.659532 171.667333 
L 178.693622 171.676037 
L 178.7447 171.689038 
L 178.864409 171.719493 
L 179.598693 171.906489 
L 180.359446 172.100221 
L 180.472044 172.12892 
L 180.522502 172.141766 
L 180.580577 172.156527 
L 180.724104 172.1931 
L 181.780882 172.462203 
L 182.070249 172.535918 
L 182.200625 172.569123 
L 182.787935 172.718673 
L 185.049748 173.294722 
L 187.6149 173.952644 
L 187.685168 173.970571 
L 188.682863 174.225693 
L 188.792186 174.253567 
L 188.863528 174.271865 
L 189.611868 174.463193 
L 190.249979 174.626331 
L 190.642123 174.726554 
L 192.029299 175.078425 
L 192.310492 175.145578 
L 192.404072 175.169635 
L 193.424134 175.431655 
L 194.106396 175.606944 
L 195.25215 175.901327 
L 195.345052 175.925175 
L 195.453923 175.625823 
L 195.785131 174.714499 
L 195.850578 174.534368 
L 196.293835 173.31479 
L 196.356421 173.137309 
L 196.621311 172.386501 
L 196.885088 171.638644 
L 196.985739 171.353426 
L 197.032841 171.220002 
L 197.300798 170.460351 
L 197.57547 169.681703 
L 197.623361 169.545843 
L 197.647839 169.476551 
L 197.863094 168.866312 
L 197.908346 168.738106 
L 198.023427 168.411781 
L 198.290336 167.65536 
L 198.332254 167.536398 
L 198.485241 167.102733 
L 198.750617 166.35051 
L 198.797292 166.218052 
L 198.949333 165.787278 
L 199.539244 164.115049 
L 199.569696 164.028804 
L 199.976011 162.863999 
L 200.581988 161.168578 
L 201.142845 159.599504 
L 201.164802 159.538145 
L 201.303575 159.149861 
L 201.404043 158.868756 
L 201.541706 158.483591 
L 201.560329 158.431476 
L 202.129295 156.839946 
L 202.71376 155.204586 
L 202.846773 154.832577 
L 202.951957 154.538429 
L 203.099939 154.124344 
L 203.599503 152.726818 
L 204.092774 151.346874 
L 204.208701 151.022671 
L 204.335271 150.668541 
L 204.510495 150.178283 
L 204.617481 149.879088 
L 204.661448 149.756032 
L 205.26272 148.074003 
L 205.840667 146.457304 
L 206.226059 145.370726 
L 206.831225 143.670724 
L 207.363932 143.986377 
L 208.719934 144.795833 
L 209.241388 145.092437 
L 210.044925 145.550213 
L 213.777374 147.552664 
L 217.504686 149.556291 
L 217.787391 149.743901 
L 219.274518 150.729583 
L 221.185091 151.651183 
L 223.298008 153.173074 
L 224.624631 154.128631 
L 228.265244 156.291216 
L 228.457991 156.402587 
L 230.10314 157.348596 
L 230.931356 157.832228 
L 232.528802 159.380653 
L 232.531571 159.583653 
L 233.934833 160.91609 
L 236.991372 162.904302 
L 237.403835 163.173171 
L 238.655686 163.906548 
L 238.93664 164.071712 
L 240.614905 165.055324 
L 240.815123 165.172675 
L 241.675699 165.67786 
L 241.837563 165.773595 
L 241.983031 165.858658 
L 242.018278 165.879386 
L 242.144884 165.953887 
L 244.25578 167.193357 
L 244.876628 167.55837 
L 246.672301 168.613739 
L 245.126803 170.803434 
L 244.533741 171.638179 
L 244.620964 171.749997 
L 243.786455 172.929395 
L 243.371383 173.516014 
L 243.191114 173.77076 
L 242.725358 174.428997 
L 242.576733 174.639057 
L 242.444065 174.826545 
L 239.142996 179.491831 
L 238.811336 179.960528 
L 237.608444 181.660571 
L 235.618886 184.472613 
L 234.975458 185.382051 
L 232.919008 188.288555 
L 232.338671 189.108816 
L 230.500536 191.707037 
L 230.39903 191.850417 
L 230.085641 192.290651 
L 229.725464 192.79644 
L 229.585384 192.993324 
L 229.383755 193.276452 
L 229.263336 193.445675 
L 228.556718 194.438109 
L 229.291787 194.878189 
L 230.103784 195.364365 
L 230.928853 195.858305 
L 230.996687 195.911969 
L 232.240966 196.895298 
L 232.789675 197.328978 
L 232.893078 197.410676 
L 233.094747 197.570075 
L 233.307664 197.738346 
L 233.414436 197.822727 
L 233.938361 198.236805 
L 234.480554 198.665285 
L 234.570197 198.736142 
L 234.786366 198.906987 
L 235.016239 199.088675 
L 235.122439 199.172619 
L 235.657664 199.595627 
L 236.175245 200.004727 
L 236.27939 200.087085 
L 236.508118 200.267842 
L 236.72851 200.442029 
L 236.834593 200.525808 
L 237.358623 200.940003 
L 237.89093 201.360771 
L 237.987364 201.43694 
L 238.209467 201.612497 
L 238.430257 201.787014 
L 238.536113 201.870686 
L 239.06008 202.28483 
L 239.59044 202.704012 
L 239.684589 202.778373 
L 239.910743 202.957108 
L 240.130332 203.130696 
L 240.223797 203.204566 
L 240.763116 203.630814 
L 240.871884 203.716843 
L 240.89455 203.734749 
L 241.002688 203.820229 
L 241.094497 203.892785 
L 241.269093 204.03078 
L 241.362158 204.104378 
L 241.465841 204.186298 
L 241.48143 204.198675 
L 241.516942 204.226711 
L 241.588252 204.283002 
L 241.602184 204.294065 
L 241.824334 204.4694 
L 241.9263 204.549781 
L 242.452242 204.964901 
L 243.006158 205.402089 
L 243.09802 205.474589 
L 243.321368 205.650911 
L 244.168907 206.319838 
L 244.807655 206.823943 
L 244.921325 206.913637 
L 245.684589 207.516036 
L 245.934637 207.715356 
L 246.2048 207.930676 
L 246.412405 208.096138 
L 246.675301 208.305701 
L 247.051243 208.60216 
L 248.271952 209.564861 
L 248.520237 209.760677 
L 249.499047 210.532662 
L 249.752526 210.732586 
L 250.992169 211.710192 
L 251.34949 211.991981 
L 251.612674 212.197042 
L 252.100623 212.577051 
L 252.333039 212.758079 
L 254.849219 214.747855 
L 255.24937 215.064393 
L 260.3971 219.135317 
L 261.122928 219.709368 
L 262.301086 221.233511 
L 265.035563 225.378451 
L 265.851231 226.037163 
L 266.01129 226.280534 
L 268.658865 230.306139 
L 269.433318 231.483731 
L 280.23603 247.910718 
L 281.847138 250.360726 
L 282.077473 251.181784 
L 282.133456 251.3824 
L 283.563915 253.558028 
L 284.46683 254.931337 
L 287.336384 253.522735 
L 289.944988 252.24177 
L 290.123057 252.154322 
L 292.720422 250.879196 
L 293.369078 250.560996 
L 293.875429 250.312931 
L 294.013525 250.245308 
L 294.522987 249.99577 
L 294.928887 249.79674 
L 295.058985 249.73289 
L 295.480924 249.525525 
L 296.21741 249.163354 
L 297.098759 248.729648 
L 297.231907 248.664102 
L 297.754471 248.406768 
L 298.177828 248.198289 
L 298.238402 248.176167 
L 299.527833 247.705103 
L 300.630199 247.30238 
L 302.524663 246.610301 
L 303.553134 246.249241 
L 304.442863 247.935789 
L 304.616577 248.355506 
L 304.627285 248.381327 
L 305.995803 251.688152 
L 306.19041 252.158904 
L 307.437624 255.173627 
L 307.910296 256.316343 
L 309.205756 259.448138 
L 309.786735 260.852472 
L 311.065628 263.943501 
L 312.735468 267.979219 
L 312.912062 268.40625 
L 312.943299 268.481819 
L 313.158184 269.002103 
L 313.648084 270.186715 
L 313.962448 270.946524 
L 315.702427 275.152307 
L 316.608754 277.343406 
L 316.809705 277.829221 
L 317.126481 278.595114 
L 317.319913 279.062579 
L 317.981676 279.357606 
L 318.675026 279.666717 
L 317.723995 281.804267 
L 317.610777 282.059327 
L 317.32292 282.706702 
L 315.880511 285.948823 
L 315.380168 287.073106 
L 322.164858 289.106333 
L 322.490353 289.203389 
L 324.988502 289.948309 
L 326.622009 290.435453 
L 326.984933 290.543642 
L 328.423703 290.972739 
L 329.312494 291.23779 
L 330.002143 291.443134 
L 330.434735 291.57206 
L 330.867395 291.701548 
L 331.299985 291.83042 
L 331.826353 291.987218 
L 332.068167 292.059238 
L 333.15723 292.384889 
L 333.502764 292.488057 
L 333.841181 292.589014 
L 334.647353 292.829068 
L 334.922584 292.910786 
L 335.037586 292.944842 
L 335.218418 292.998477 
L 335.670985 293.13306 
L 335.852499 293.187131 
L 338.08332 293.853321 
L 338.245474 293.901899 
L 338.25168 293.903567 
L 339.787067 294.361266 
L 340.438314 294.555416 
L 341.269322 294.803174 
L 342.128964 295.059943 
L 342.919542 295.295459 
L 343.285957 295.404832 
L 343.564803 295.488 
L 343.810335 295.455354 
L 343.939003 295.438173 
L 345.836718 295.184769 
L 347.580654 294.951905 
L 348.096333 294.883283 
L 348.289165 294.857505 
L 349.049312 294.756266 
L 353.925073 294.105308 
L 354.534401 294.024123 
L 359.56153 293.353777 
L 360.688834 293.203395 
L 365.558506 292.553787 
L 368.822689 292.118679 
L 370.22076 291.931745 
L 371.247159 291.795086 
L 373.264097 291.526367 
L 373.70514 291.467496 
L 373.705267 291.467479 
L 375.660627 291.202225 
L 376.107595 291.141529 
L 376.718302 291.058621 
L 376.787334 291.049277 
L 377.589471 290.940362 
L 377.675061 290.928754 
L 379.066818 290.739804 
L 379.389466 290.689743 
L 378.225504 288.833455 
L 376.944087 286.822237 
L 376.304281 285.498403 
L 375.146153 283.652132 
L 373.842453 281.87372 
L 372.505466 280.145704 
L 371.030897 278.542546 
L 369.875308 277.456328 
L 369.445593 277.052367 
L 368.938012 276.640779 
L 367.718027 275.651422 
L 365.983861 274.387521 
L 364.150331 273.224998 
L 362.218365 272.146786 
L 362.17664 272.124791 
L 360.310304 271.140997 
L 358.293101 270.352256 
L 356.229724 269.617064 
L 354.149233 269.067535 
L 352.059753 268.586687 
L 351.048995 268.380215 
L 347.895303 267.736022 
L 347.182341 267.581657 
L 344.625384 267.027966 
L 343.797151 266.84867 
L 341.330756 265.609285 
L 338.992088 264.38289 
L 338.030503 263.88018 
L 336.630898 263.148444 
L 335.063634 262.345356 
L 334.852104 262.2369 
L 334.302546 261.955289 
L 332.042793 260.551211 
L 329.948803 258.938347 
L 329.347049 258.337659 
L 329.187909 258.178741 
L 328.944044 257.935383 
L 328.846358 257.837829 
L 328.824001 257.81552 
L 328.615198 257.579852 
L 328.462275 257.407241 
L 328.447385 257.390455 
L 327.568992 256.399025 
L 327.324943 256.123489 
L 327.022393 255.761995 
L 326.377368 254.990237 
L 325.318756 253.393941 
L 324.909576 252.776252 
L 323.401642 250.412232 
L 322.247297 248.643465 
L 321.864 248.056115 
L 321.372609 247.307126 
L 320.548603 246.048192 
L 320.322349 245.700092 
L 318.971845 243.541521 
L 318.943553 243.496215 
L 318.829971 243.314101 
L 319.026641 243.003744 
L 319.345724 242.500248 
L 321.591056 241.686221 
L 321.892678 241.57679 
L 324.122753 240.767556 
L 325.000063 240.45052 
L 325.916578 240.11932 
L 331.369274 238.122801 
L 335.30391 236.682291 
L 335.739429 236.522805 
L 335.874116 236.473506 
L 337.135981 234.468465 
L 337.43565 233.870655 
L 338.078 232.589213 
L 338.249555 232.246942 
L 338.392958 231.960806 
L 339.308128 230.134965 
L 339.450726 229.850479 
L 340.743594 227.271227 
L 341.708969 225.345408 
L 342.329715 224.10703 
L 343.075146 222.619943 
L 343.684332 221.404772 
L 344.949177 218.881617 
L 345.413853 217.954673 
L 345.672241 217.439239 
L 346.095739 216.220442 
L 346.207722 215.973468 
L 347.097309 215.480445 
L 350.224063 213.747603 
L 350.200982 213.691267 
L 350.183472 213.633013 
L 350.17171 213.573285 
L 350.165823 213.512701 
L 350.165822 213.451822 
L 350.17172 213.391267 
L 350.183471 213.331488 
L 350.200921 213.273219 
L 350.231698 213.195029 
L 350.268082 213.119308 
L 350.309915 213.046453 
L 350.356981 212.976918 
L 350.409005 212.910991 
L 350.465716 212.849071 
L 350.526785 212.791503 
L 350.591936 212.738574 
L 350.528437 212.419781 
L 352.074474 211.576082 
L 352.173663 211.521921 
L 356.017247 209.424567 
L 356.47607 209.175831 
L 356.806106 208.996064 
L 357.133573 208.811627 
L 357.458362 208.622577 
L 357.780473 208.428914 
L 358.099793 208.230697 
L 358.416268 208.027928 
L 358.729899 207.820718 
L 359.040517 207.609015 
L 359.7935 207.081303 
L 359.832741 207.137576 
L 359.878485 207.145886 
L 359.923045 207.159228 
L 359.965855 207.17739 
L 360.006351 207.200215 
L 360.044135 207.227431 
L 360.375963 206.97578 
L 360.42176 206.949485 
L 360.47043 206.929037 
L 360.521253 206.914845 
L 360.573504 206.907093 
L 360.62623 206.905914 
L 360.678758 206.911266 
L 360.73019 206.923168 
L 360.779735 206.941356 
L 360.826658 206.965563 
L 360.870221 206.995413 
L 360.909742 207.030468 
L 361.123128 207.238269 
L 361.268507 207.128495 
L 361.403005 207.026999 
L 361.296914 206.885275 
L 361.428453 206.784461 
L 361.458955 206.825616 
L 363.344965 205.41997 
L 364.476701 204.57644 
L 365.681648 203.678467 
L 365.68433 203.616913 
L 366.39281 203.104007 
L 366.583168 202.966159 
L 366.540632 202.783302 
L 366.492514 202.601858 
L 366.438928 202.421937 
L 366.379935 202.243707 
L 366.315538 202.067392 
L 366.196821 201.763948 
L 365.326208 199.538115 
L 364.018465 196.337174 
L 363.506887 195.163908 
L 363.014411 194.137539 
L 362.978407 194.07782 
L 362.938971 194.020313 
L 362.896219 193.965239 
L 362.850323 193.912764 
L 362.8014 193.863111 
L 362.415641 193.535364 
L 361.900054 193.190857 
L 361.487446 192.968111 
L 359.668696 192.251708 
L 359.45735 192.127587 
L 357.606205 190.79691 
L 357.689337 190.606988 
L 357.797089 190.360671 
L 358.375843 189.037873 
L 358.748085 188.187037 
L 358.896414 187.847975 
L 359.31202 186.898147 
L 359.44381 186.588921 
L 361.002589 182.910653 
L 361.048612 182.802094 
L 361.562124 181.590521 
L 362.415326 179.5772 
L 362.310471 179.560584 
L 362.072101 179.522953 
L 361.96584 179.506197 
L 361.930925 179.858316 
L 361.9295 179.857277 
L 361.683634 179.664515 
L 361.130742 179.292953 
L 361.092591 179.267096 
L 360.433025 178.819654 
L 360.090743 178.587479 
L 359.586685 178.245545 
L 359.109448 177.921889 
L 358.557088 177.538674 
L 358.030298 177.173033 
L 357.660554 176.916408 
L 357.308525 176.672122 
L 356.754049 176.287324 
L 356.234261 175.926544 
L 355.812053 175.633624 
L 355.277736 175.262747 
L 355.253015 175.245606 
L 355.110454 175.147537 
L 354.568007 174.774471 
L 354.521702 174.742599 
L 349.969335 171.611638 
L 349.86893 171.543055 
L 348.853821 170.849527 
L 347.435315 169.880474 
L 347.299882 169.787938 
L 345.880061 168.818246 
L 345.698043 168.694072 
L 345.16936 168.333391 
L 345.026633 168.230435 
L 344.310709 167.713848 
L 343.683648 167.261476 
L 343.005339 166.771997 
L 342.286217 166.253176 
L 342.148046 166.158733 
L 341.514654 165.725688 
L 337.227356 162.655329 
L 335.01767 161.072917 
L 334.618948 160.79123 
L 333.574179 160.050174 
L 325.836729 154.669531 
L 325.407101 154.371302 
L 324.854572 153.98467 
L 324.250362 153.561898 
L 315.928903 147.858144 
L 314.51365 146.886939 
L 316.637876 144.566114 
L 316.590195 144.480826 
L 316.497057 144.314423 
L 316.368025 144.083747 
L 316.120117 143.640634 
L 315.796052 143.06153 
L 315.148964 141.904933 
L 314.947039 141.543994 
L 314.550777 140.835793 
L 313.371288 141.482781 
L 313.07109 140.965004 
L 313.033619 140.900484 
L 312.913389 140.69314 
L 312.702068 140.328747 
L 312.39097 139.792186 
L 312.301453 139.63786 
L 312.081419 139.761529 
L 311.840976 139.896776 
L 311.62183 140.019975 
L 310.765163 140.501657 
L 309.798232 141.045238 
L 309.752252 141.071095 
L 309.482079 141.222962 
L 308.936246 141.529853 
L 308.772094 141.397555 
L 308.539002 141.20963 
L 308.292143 141.010578 
L 308.205441 140.940703 
L 308.035404 140.803581 
L 307.110931 140.025099 
L 306.22373 139.462047 
L 306.032984 139.340956 
L 305.862951 139.232981 
L 305.422275 138.953138 
L 305.2552 138.847012 
L 303.258607 137.579297 
L 303.044411 137.44324 
L 302.767791 137.267621 
L 302.134539 136.865552 
L 301.922848 136.73113 
L 301.580329 136.513662 
L 301.505439 136.466097 
L 301.350768 136.367922 
L 301.316909 136.346425 
L 301.302397 136.337172 
L 299.989894 135.503482 
L 299.827398 135.393828 
L 298.886248 134.758534 
L 297.209381 133.626784 
L 296.869461 133.397337 
L 296.781119 133.337685 
L 296.533071 133.17029 
L 296.517978 133.16015 
L 295.949074 132.778148 
L 295.72035 132.624573 
L 295.184931 132.265033 
L 294.978133 132.126122 
L 294.641025 131.899768 
L 293.657427 131.231084 
L 292.32252 130.323417 
L 292.135941 130.206129 
L 292.068758 130.162058 
L 291.973961 130.099902 
L 291.370053 129.703921 
L 291.265976 129.635664 
L 291.259484 129.631359 
L 290.986501 129.448021 
L 289.191224 128.242407 
L 289.040344 128.140837 
L 287.96106 127.414369 
L 287.753564 127.274691 
L 287.720628 127.215254 
L 286.891396 125.718757 
L 286.332969 125.261323 
L 285.571504 124.636828 
L 284.72841 123.950762 
L 283.867797 125.005539 
L 282.8969 124.447068 
L 282.214279 124.054381 
L 281.520573 123.655353 
L 280.851702 123.270531 
L 279.879769 122.711474 
L 279.102276 122.26424 
L 278.478487 121.907949 
L 277.824941 121.529485 
L 276.898749 120.996682 
L 275.967012 120.463236 
L 274.792598 119.785676 
L 273.88558 119.263544 
L 272.708767 118.586619 
L 272.440198 118.43218 
L 270.747323 117.458423 
L 267.617706 115.66024 
L 265.66395 114.846604 
L 265.489311 114.773863 
L 261.149494 112.966553 
L 261.061974 112.930075 
L 260.925741 112.873384 
L 260.886994 112.857231 
L 260.450591 112.698956 
L 260.430242 112.691573 
L 259.849536 112.480893 
L 259.067049 112.125142 
L 258.361342 111.818144 
L 257.333462 111.370883 
L 256.316772 110.927265 
L 255.56788 110.596453 
L 254.959438 110.32781 
L 252.31911 109.158985 
L 252.115571 109.068874 
L 251.704297 108.886774 
L 251.622167 108.850407 
L 250.057273 108.157689 
L 248.910292 107.650533 
L 247.934223 107.230427 
L 247.400201 107.000528 
L 244.551185 105.774134 
L 244.08221 105.572199 
L 243.340835 105.252904 
L 242.481645 104.882774 
L 240.969304 104.23139 
L 240.56056 104.055328 
L 240.000965 103.81424 
L 239.030147 103.383867 
L 237.711218 102.845273 
L 237.276401 102.663087 
L 236.28941 102.248437 
L 235.302429 101.834352 
L 234.315432 101.419709 
L 234.210944 101.389369 
L 233.963883 101.316064 
L 233.278644 101.150024 
L 232.17952 100.903977 
L 230.190173 100.444769 
L 229.002587 100.170617 
L 227.835987 99.901301 
L 227.231783 99.743929 
L 226.700443 99.544498 
L 226.60438 99.505347 
L 225.611231 99.090194 
L 225.530323 99.056116 
L 224.523084 98.635985 
L 223.689431 98.288426 
L 223.067569 98.035337 
L 221.905822 97.545326 
L 221.399394 97.303116 
L 220.656967 96.948007 
L 220.655857 96.947475 
L 219.965637 96.6166 
L 219.66902 96.457817 
L 219.392569 96.309904 
L 219.031255 97.629099 
L 218.893909 97.540044 
L 218.880755 97.531498 
L 218.011581 96.967998 
L 217.717471 96.777316 
L 216.917021 96.258289 
L 216.505662 95.991564 
L 216.493761 95.983834 
L 216.294347 95.854611 
L 214.455582 94.662473 
L 214.339529 94.587191 
L 212.588442 93.451948 
L 212.439532 93.355384 
L 211.688948 92.868818 
L 210.940581 92.383668 
L 209.712621 91.587608 
L 209.374577 91.416688 
L 209.088643 91.272086 
L 208.755364 91.103482 
L 207.880979 90.934603 
L 206.127626 90.616083 
L 205.715032 90.541153 
L 202.916378 90.03282 
L 202.291791 89.919319 
L 200.820818 89.652161 
L 199.854943 89.476691 
L 199.779799 89.46304 
L 197.037207 88.964906 
L 196.7422 88.911891 
L 196.15912 88.807173 
L 195.875048 88.75617 
L 193.422257 88.312381 
L 192.42363 88.131643 
L 191.438363 87.95343 
L 190.75307 87.829413 
L 189.65659 87.631024 
L 189.282829 87.56337 
L 188.960133 87.504893 
L 188.595503 87.438897 
L 186.399379 87.04159 
L 184.614326 86.718614 
L 184.327299 86.65334 
L 184.246675 86.637835 
L 183.927333 86.576197 
L 183.818349 86.555181 
L 183.543679 86.50556 
L 182.096423 86.243777 
L 181.419459 86.121357 
L 177.639711 85.437873 
L 175.721502 85.090984 
L 175.330881 85.020343 
L 175.005702 84.961544 
L 174.932426 84.9483 
L 174.660683 84.899186 
L 171.822897 84.386009 
L 170.484014 84.143961 
L 169.076192 83.889426 
L 167.733358 83.646634 
L 166.396795 83.405681 
L 165.055463 83.162476 
L 163.69188 82.915997 
L 161.776343 82.569709 
L 161.830015 82.152164 
L 161.843128 82.053749 
L 162.013258 80.776271 
L 162.149862 79.490754 
L 162.15494 79.44321 
L 162.149789 79.154458 
L 162.13464 78.307156 
L 162.123621 78.183559 
L 162.048463 77.339265 
L 161.966975 76.423992 
L 161.943864 76.163712 
L 161.898662 75.656091 
L 161.843909 75.041227 
L 161.815894 74.73396 
L 161.722602 73.71058 
L 161.627302 72.664795 
L 161.606148 72.432323 
L 161.476989 71.015145 
L 161.418667 70.375568 
L 161.302972 69.106465 
L 161.250821 68.576807 
L 161.21359 68.187315 
L 161.113708 67.160648 
L 161.093544 66.952911 
L 161.06817 66.691949 
L 161.054176 66.547937 
L 160.969999 65.681899 
L 160.957174 65.55024 
L 160.894607 64.906649 
L 160.752015 63.522458 
L 160.709183 63.13624 
L 160.620408 62.244985 
L 160.595577 62.003703 
L 160.499001 61.757869 
L 160.099142 60.740228 
L 159.892793 60.834853 
L 159.643198 60.949392 
L 157.434316 60.696242 
L 156.939007 60.654322 
L 156.292047 60.648547 
L 156.206235 60.647794 
L 155.69024 60.643186 
L 155.556187 60.641976 
L 155.030983 60.637347 
L 154.869748 60.635893 
L 154.33303 60.631126 
L 154.204536 60.629963 
L 153.795133 60.626328 
L 153.238113 60.581724 
L 148.185499 60.177271 
L 147.84986 60.150017 
L 147.440988 60.116954 
L 147.249182 60.10155 
L 146.305581 60.026556 
L 146.0833 60.009238 
L 145.356474 59.951406 
L 145.128669 59.933141 
L 144.741453 59.901854 
L 144.393104 59.873704 
L 144.056514 59.846646 
L 143.637691 59.813076 
L 143.466586 59.799412 
L 142.720292 59.739823 
L 141.961566 59.679216 
L 141.772123 59.664045 
L 141.386093 59.633131 
L 141.229948 59.620601 
L 141.040785 59.605424 
L 140.687996 59.577096 
L 140.2825 59.544475 
L 140.090413 59.529082 
L 139.359525 59.470512 
L 138.611598 59.410801 
L 138.421536 59.39559 
L 138.021278 59.3637 
L 137.683396 59.336678 
L 137.330327 59.308416 
L 136.951605 59.277965 
L 136.781847 59.264332 
L 136.003815 59.201693 
L 135.997947 58.92753 
L 135.834987 58.914084 
L 131.763559 58.580177 
L 131.109745 58.523525 
L 130.328477 58.459454 
L 129.89214 58.423705 
L 129.494952 58.391085 
L 129.079709 58.357064 
L 128.709634 58.326714 
L 128.365996 58.29848 
L 127.888595 58.259367 
L 127.553452 58.231903 
L 127.217578 58.204343 
L 126.881533 58.17673 
L 126.556346 58.15006 
L 126.204609 58.12122 
L 125.860691 58.093052 
L 125.249186 58.042903 
L 124.679813 57.996211 
L 124.519722 57.983047 
L 123.898992 57.932149 
L 123.336874 57.886031 
L 122.55206 57.821723 
L 121.950734 57.772369 
L 121.345755 57.722816 
L 120.345496 57.640784 
L 119.784954 57.594863 
L 119.341243 57.55845 
L 118.776313 57.512178 
L 118.65059 57.5018 
L 118.142418 57.460179 
L 117.455759 57.403893 
L 116.721623 57.343711 
L 116.293382 57.308591 
L 116.090957 57.285455 
L 115.687966 57.239424 
L 114.700896 57.126736 
L 114.658564 57.12188 
L 114.587394 57.107874 
L 114.229232 57.037443 
L 113.489563 56.892094 
L 113.034966 56.802706 
L 112.566947 56.710691 
L 111.941136 56.587688 
L 111.276581 56.457051 
L 110.676144 56.338946 
L 110.180942 56.24163 
L 109.892596 56.18496 
L 109.73486 56.153972 
L 109.172658 56.043404 
L 107.319237 55.679067 
L 107.13353 55.642625 
L 107.011321 55.618558 
L 106.96378 55.609205 
L 106.521361 55.522257 
L 104.597212 55.143981 
L 104.315744 55.088682 
L 103.905245 55.000467 
L 103.852944 54.989195 
L 103.11042 54.829533 
L 103.05073 54.816738 
L 102.746295 54.751261 
L 102.486038 54.69538 
L 100.818699 54.336965 
L 100.793987 54.331606 
L 99.853813 54.128311 
L 99.853291 54.128198 
L 99.421061 54.042667 
L 99.265741 54.011856 
L 97.573645 53.676855 
L 97.024105 53.568 
" clip-path="url(#pe8397f59b2)" style="fill: #1f77b4"/>
   </g>
   <g id="matplotlib.axis_1">
    <g id="xtick_1">
     <g id="line2d_1">
      <defs>
       <path id="m4fdcffd388" d="M 0 0 
L 0 3.5 
" style="stroke: #000000; stroke-width: 0.8"/>
      </defs>
      <g>
       <use xlink:href="#m4fdcffd388" x="104.935153" y="307.584" style="stroke: #000000; stroke-width: 0.8"/>
      </g>
     </g>
     <g id="text_1">
      <!-- 13.40 -->
      <g transform="translate(90.62109 322.182437) scale(0.1 -0.1)">
       <defs>
        <path id="DejaVuSans-31" d="M 794 531 
L 1825 531 
L 1825 4091 
L 703 3866 
L 703 4441 
L 1819 4666 
L 2450 4666 
L 2450 531 
L 3481 531 
L 3481 0 
L 794 0 
L 794 531 
z
" transform="scale(0.015625)"/>
        <path id="DejaVuSans-33" d="M 2597 2516 
Q 3050 2419 3304 2112 
Q 3559 1806 3559 1356 
Q 3559 666 3084 287 
Q 2609 -91 1734 -91 
Q 1441 -91 1130 -33 
Q 819 25 488 141 
L 488 750 
Q 750 597 1062 519 
Q 1375 441 1716 441 
Q 2309 441 2620 675 
Q 2931 909 2931 1356 
Q 2931 1769 2642 2001 
Q 2353 2234 1838 2234 
L 1294 2234 
L 1294 2753 
L 1863 2753 
Q 2328 2753 2575 2939 
Q 2822 3125 2822 3475 
Q 2822 3834 2567 4026 
Q 2313 4219 1838 4219 
Q 1578 4219 1281 4162 
Q 984 4106 628 3988 
L 628 4550 
Q 988 4650 1302 4700 
Q 1616 4750 1894 4750 
Q 2613 4750 3031 4423 
Q 3450 4097 3450 3541 
Q 3450 3153 3228 2886 
Q 3006 2619 2597 2516 
z
" transform="scale(0.015625)"/>
        <path id="DejaVuSans-2e" d="M 684 794 
L 1344 794 
L 1344 0 
L 684 0 
L 684 794 
z
" transform="scale(0.015625)"/>
        <path id="DejaVuSans-34" d="M 2419 4116 
L 825 1625 
L 2419 1625 
L 2419 4116 
z
M 2253 4666 
L 3047 4666 
L 3047 1625 
L 3713 1625 
L 3713 1100 
L 3047 1100 
L 3047 0 
L 2419 0 
L 2419 1100 
L 313 1100 
L 313 1709 
L 2253 4666 
z
" transform="scale(0.015625)"/>
        <path id="DejaVuSans-30" d="M 2034 4250 
Q 1547 4250 1301 3770 
Q 1056 3291 1056 2328 
Q 1056 1369 1301 889 
Q 1547 409 2034 409 
Q 2525 409 2770 889 
Q 3016 1369 3016 2328 
Q 3016 3291 2770 3770 
Q 2525 4250 2034 4250 
z
M 2034 4750 
Q 2819 4750 3233 4129 
Q 3647 3509 3647 2328 
Q 3647 1150 3233 529 
Q 2819 -91 2034 -91 
Q 1250 -91 836 529 
Q 422 1150 422 2328 
Q 422 3509 836 4129 
Q 1250 4750 2034 4750 
z
" transform="scale(0.015625)"/>
       </defs>
       <use xlink:href="#DejaVuSans-31"/>
       <use xlink:href="#DejaVuSans-33" x="63.623047"/>
       <use xlink:href="#DejaVuSans-2e" x="127.246094"/>
       <use xlink:href="#DejaVuSans-34" x="159.033203"/>
       <use xlink:href="#DejaVuSans-30" x="222.65625"/>
      </g>
     </g>
    </g>
    <g id="xtick_2">
     <g id="line2d_2">
      <g>
       <use xlink:href="#m4fdcffd388" x="142.997102" y="307.584" style="stroke: #000000; stroke-width: 0.8"/>
      </g>
     </g>
     <g id="text_2">
      <!-- 13.41 -->
      <g transform="translate(128.68304 322.182437) scale(0.1 -0.1)">
       <use xlink:href="#DejaVuSans-31"/>
       <use xlink:href="#DejaVuSans-33" x="63.623047"/>
       <use xlink:href="#DejaVuSans-2e" x="127.246094"/>
       <use xlink:href="#DejaVuSans-34" x="159.033203"/>
       <use xlink:href="#DejaVuSans-31" x="222.65625"/>
      </g>
     </g>
    </g>
    <g id="xtick_3">
     <g id="line2d_3">
      <g>
       <use xlink:href="#m4fdcffd388" x="181.059052" y="307.584" style="stroke: #000000; stroke-width: 0.8"/>
      </g>
     </g>
     <g id="text_3">
      <!-- 13.42 -->
      <g transform="translate(166.744989 322.182437) scale(0.1 -0.1)">
       <defs>
        <path id="DejaVuSans-32" d="M 1228 531 
L 3431 531 
L 3431 0 
L 469 0 
L 469 531 
Q 828 903 1448 1529 
Q 2069 2156 2228 2338 
Q 2531 2678 2651 2914 
Q 2772 3150 2772 3378 
Q 2772 3750 2511 3984 
Q 2250 4219 1831 4219 
Q 1534 4219 1204 4116 
Q 875 4013 500 3803 
L 500 4441 
Q 881 4594 1212 4672 
Q 1544 4750 1819 4750 
Q 2544 4750 2975 4387 
Q 3406 4025 3406 3419 
Q 3406 3131 3298 2873 
Q 3191 2616 2906 2266 
Q 2828 2175 2409 1742 
Q 1991 1309 1228 531 
z
" transform="scale(0.015625)"/>
       </defs>
       <use xlink:href="#DejaVuSans-31"/>
       <use xlink:href="#DejaVuSans-33" x="63.623047"/>
       <use xlink:href="#DejaVuSans-2e" x="127.246094"/>
       <use xlink:href="#DejaVuSans-34" x="159.033203"/>
       <use xlink:href="#DejaVuSans-32" x="222.65625"/>
      </g>
     </g>
    </g>
    <g id="xtick_4">
     <g id="line2d_4">
      <g>
       <use xlink:href="#m4fdcffd388" x="219.121002" y="307.584" style="stroke: #000000; stroke-width: 0.8"/>
      </g>
     </g>
     <g id="text_4">
      <!-- 13.43 -->
      <g transform="translate(204.806939 322.182437) scale(0.1 -0.1)">
       <use xlink:href="#DejaVuSans-31"/>
       <use xlink:href="#DejaVuSans-33" x="63.623047"/>
       <use xlink:href="#DejaVuSans-2e" x="127.246094"/>
       <use xlink:href="#DejaVuSans-34" x="159.033203"/>
       <use xlink:href="#DejaVuSans-33" x="222.65625"/>
      </g>
     </g>
    </g>
    <g id="xtick_5">
     <g id="line2d_5">
      <g>
       <use xlink:href="#m4fdcffd388" x="257.182951" y="307.584" style="stroke: #000000; stroke-width: 0.8"/>
      </g>
     </g>
     <g id="text_5">
      <!-- 13.44 -->
      <g transform="translate(242.868889 322.182437) scale(0.1 -0.1)">
       <use xlink:href="#DejaVuSans-31"/>
       <use xlink:href="#DejaVuSans-33" x="63.623047"/>
       <use xlink:href="#DejaVuSans-2e" x="127.246094"/>
       <use xlink:href="#DejaVuSans-34" x="159.033203"/>
       <use xlink:href="#DejaVuSans-34" x="222.65625"/>
      </g>
     </g>
    </g>
    <g id="xtick_6">
     <g id="line2d_6">
      <g>
       <use xlink:href="#m4fdcffd388" x="295.244901" y="307.584" style="stroke: #000000; stroke-width: 0.8"/>
      </g>
     </g>
     <g id="text_6">
      <!-- 13.45 -->
      <g transform="translate(280.930838 322.182437) scale(0.1 -0.1)">
       <defs>
        <path id="DejaVuSans-35" d="M 691 4666 
L 3169 4666 
L 3169 4134 
L 1269 4134 
L 1269 2991 
Q 1406 3038 1543 3061 
Q 1681 3084 1819 3084 
Q 2600 3084 3056 2656 
Q 3513 2228 3513 1497 
Q 3513 744 3044 326 
Q 2575 -91 1722 -91 
Q 1428 -91 1123 -41 
Q 819 9 494 109 
L 494 744 
Q 775 591 1075 516 
Q 1375 441 1709 441 
Q 2250 441 2565 725 
Q 2881 1009 2881 1497 
Q 2881 1984 2565 2268 
Q 2250 2553 1709 2553 
Q 1456 2553 1204 2497 
Q 953 2441 691 2322 
L 691 4666 
z
" transform="scale(0.015625)"/>
       </defs>
       <use xlink:href="#DejaVuSans-31"/>
       <use xlink:href="#DejaVuSans-33" x="63.623047"/>
       <use xlink:href="#DejaVuSans-2e" x="127.246094"/>
       <use xlink:href="#DejaVuSans-34" x="159.033203"/>
       <use xlink:href="#DejaVuSans-35" x="222.65625"/>
      </g>
     </g>
    </g>
    <g id="xtick_7">
     <g id="line2d_7">
      <g>
       <use xlink:href="#m4fdcffd388" x="333.306851" y="307.584" style="stroke: #000000; stroke-width: 0.8"/>
      </g>
     </g>
     <g id="text_7">
      <!-- 13.46 -->
      <g transform="translate(318.992788 322.182437) scale(0.1 -0.1)">
       <defs>
        <path id="DejaVuSans-36" d="M 2113 2584 
Q 1688 2584 1439 2293 
Q 1191 2003 1191 1497 
Q 1191 994 1439 701 
Q 1688 409 2113 409 
Q 2538 409 2786 701 
Q 3034 994 3034 1497 
Q 3034 2003 2786 2293 
Q 2538 2584 2113 2584 
z
M 3366 4563 
L 3366 3988 
Q 3128 4100 2886 4159 
Q 2644 4219 2406 4219 
Q 1781 4219 1451 3797 
Q 1122 3375 1075 2522 
Q 1259 2794 1537 2939 
Q 1816 3084 2150 3084 
Q 2853 3084 3261 2657 
Q 3669 2231 3669 1497 
Q 3669 778 3244 343 
Q 2819 -91 2113 -91 
Q 1303 -91 875 529 
Q 447 1150 447 2328 
Q 447 3434 972 4092 
Q 1497 4750 2381 4750 
Q 2619 4750 2861 4703 
Q 3103 4656 3366 4563 
z
" transform="scale(0.015625)"/>
       </defs>
       <use xlink:href="#DejaVuSans-31"/>
       <use xlink:href="#DejaVuSans-33" x="63.623047"/>
       <use xlink:href="#DejaVuSans-2e" x="127.246094"/>
       <use xlink:href="#DejaVuSans-34" x="159.033203"/>
       <use xlink:href="#DejaVuSans-36" x="222.65625"/>
      </g>
     </g>
    </g>
    <g id="xtick_8">
     <g id="line2d_8">
      <g>
       <use xlink:href="#m4fdcffd388" x="371.3688" y="307.584" style="stroke: #000000; stroke-width: 0.8"/>
      </g>
     </g>
     <g id="text_8">
      <!-- 13.47 -->
      <g transform="translate(357.054738 322.182437) scale(0.1 -0.1)">
       <defs>
        <path id="DejaVuSans-37" d="M 525 4666 
L 3525 4666 
L 3525 4397 
L 1831 0 
L 1172 0 
L 2766 4134 
L 525 4134 
L 525 4666 
z
" transform="scale(0.015625)"/>
       </defs>
       <use xlink:href="#DejaVuSans-31"/>
       <use xlink:href="#DejaVuSans-33" x="63.623047"/>
       <use xlink:href="#DejaVuSans-2e" x="127.246094"/>
       <use xlink:href="#DejaVuSans-34" x="159.033203"/>
       <use xlink:href="#DejaVuSans-37" x="222.65625"/>
      </g>
     </g>
    </g>
   </g>
   <g id="matplotlib.axis_2">
    <g id="ytick_1">
     <g id="line2d_9">
      <defs>
       <path id="mc24ca37fcb" d="M 0 0 
L -3.5 0 
" style="stroke: #000000; stroke-width: 0.8"/>
      </defs>
      <g>
       <use xlink:href="#mc24ca37fcb" x="78.607587" y="295.034753" style="stroke: #000000; stroke-width: 0.8"/>
      </g>
     </g>
     <g id="text_9">
      <!-- 52.520 -->
      <g transform="translate(36.616962 298.833972) scale(0.1 -0.1)">
       <use xlink:href="#DejaVuSans-35"/>
       <use xlink:href="#DejaVuSans-32" x="63.623047"/>
       <use xlink:href="#DejaVuSans-2e" x="127.246094"/>
       <use xlink:href="#DejaVuSans-35" x="159.033203"/>
       <use xlink:href="#DejaVuSans-32" x="222.65625"/>
       <use xlink:href="#DejaVuSans-30" x="286.279297"/>
      </g>
     </g>
    </g>
    <g id="ytick_2">
     <g id="line2d_10">
      <g>
       <use xlink:href="#mc24ca37fcb" x="78.607587" y="263.745012" style="stroke: #000000; stroke-width: 0.8"/>
      </g>
     </g>
     <g id="text_10">
      <!-- 52.525 -->
      <g transform="translate(36.616962 267.54423) scale(0.1 -0.1)">
       <use xlink:href="#DejaVuSans-35"/>
       <use xlink:href="#DejaVuSans-32" x="63.623047"/>
       <use xlink:href="#DejaVuSans-2e" x="127.246094"/>
       <use xlink:href="#DejaVuSans-35" x="159.033203"/>
       <use xlink:href="#DejaVuSans-32" x="222.65625"/>
       <use xlink:href="#DejaVuSans-35" x="286.279297"/>
      </g>
     </g>
    </g>
    <g id="ytick_3">
     <g id="line2d_11">
      <g>
       <use xlink:href="#mc24ca37fcb" x="78.607587" y="232.455271" style="stroke: #000000; stroke-width: 0.8"/>
      </g>
     </g>
     <g id="text_11">
      <!-- 52.530 -->
      <g transform="translate(36.616962 236.254489) scale(0.1 -0.1)">
       <use xlink:href="#DejaVuSans-35"/>
       <use xlink:href="#DejaVuSans-32" x="63.623047"/>
       <use xlink:href="#DejaVuSans-2e" x="127.246094"/>
       <use xlink:href="#DejaVuSans-35" x="159.033203"/>
       <use xlink:href="#DejaVuSans-33" x="222.65625"/>
       <use xlink:href="#DejaVuSans-30" x="286.279297"/>
      </g>
     </g>
    </g>
    <g id="ytick_4">
     <g id="line2d_12">
      <g>
       <use xlink:href="#mc24ca37fcb" x="78.607587" y="201.165529" style="stroke: #000000; stroke-width: 0.8"/>
      </g>
     </g>
     <g id="text_12">
      <!-- 52.535 -->
      <g transform="translate(36.616962 204.964748) scale(0.1 -0.1)">
       <use xlink:href="#DejaVuSans-35"/>
       <use xlink:href="#DejaVuSans-32" x="63.623047"/>
       <use xlink:href="#DejaVuSans-2e" x="127.246094"/>
       <use xlink:href="#DejaVuSans-35" x="159.033203"/>
       <use xlink:href="#DejaVuSans-33" x="222.65625"/>
       <use xlink:href="#DejaVuSans-35" x="286.279297"/>
      </g>
     </g>
    </g>
    <g id="ytick_5">
     <g id="line2d_13">
      <g>
       <use xlink:href="#mc24ca37fcb" x="78.607587" y="169.875788" style="stroke: #000000; stroke-width: 0.8"/>
      </g>
     </g>
     <g id="text_13">
      <!-- 52.540 -->
      <g transform="translate(36.616962 173.675007) scale(0.1 -0.1)">
       <use xlink:href="#DejaVuSans-35"/>
       <use xlink:href="#DejaVuSans-32" x="63.623047"/>
       <use xlink:href="#DejaVuSans-2e" x="127.246094"/>
       <use xlink:href="#DejaVuSans-35" x="159.033203"/>
       <use xlink:href="#DejaVuSans-34" x="222.65625"/>
       <use xlink:href="#DejaVuSans-30" x="286.279297"/>
      </g>
     </g>
    </g>
    <g id="ytick_6">
     <g id="line2d_14">
      <g>
       <use xlink:href="#mc24ca37fcb" x="78.607587" y="138.586047" style="stroke: #000000; stroke-width: 0.8"/>
      </g>
     </g>
     <g id="text_14">
      <!-- 52.545 -->
      <g transform="translate(36.616962 142.385266) scale(0.1 -0.1)">
       <use xlink:href="#DejaVuSans-35"/>
       <use xlink:href="#DejaVuSans-32" x="63.623047"/>
       <use xlink:href="#DejaVuSans-2e" x="127.246094"/>
       <use xlink:href="#DejaVuSans-35" x="159.033203"/>
       <use xlink:href="#DejaVuSans-34" x="222.65625"/>
       <use xlink:href="#DejaVuSans-35" x="286.279297"/>
      </g>
     </g>
    </g>
    <g id="ytick_7">
     <g id="line2d_15">
      <g>
       <use xlink:href="#mc24ca37fcb" x="78.607587" y="107.296306" style="stroke: #000000; stroke-width: 0.8"/>
      </g>
     </g>
     <g id="text_15">
      <!-- 52.550 -->
      <g transform="translate(36.616962 111.095525) scale(0.1 -0.1)">
       <use xlink:href="#DejaVuSans-35"/>
       <use xlink:href="#DejaVuSans-32" x="63.623047"/>
       <use xlink:href="#DejaVuSans-2e" x="127.246094"/>
       <use xlink:href="#DejaVuSans-35" x="159.033203"/>
       <use xlink:href="#DejaVuSans-35" x="222.65625"/>
       <use xlink:href="#DejaVuSans-30" x="286.279297"/>
      </g>
     </g>
    </g>
    <g id="ytick_8">
     <g id="line2d_16">
      <g>
       <use xlink:href="#mc24ca37fcb" x="78.607587" y="76.006565" style="stroke: #000000; stroke-width: 0.8"/>
      </g>
     </g>
     <g id="text_16">
      <!-- 52.555 -->
      <g transform="translate(36.616962 79.805784) scale(0.1 -0.1)">
       <use xlink:href="#DejaVuSans-35"/>
       <use xlink:href="#DejaVuSans-32" x="63.623047"/>
       <use xlink:href="#DejaVuSans-2e" x="127.246094"/>
       <use xlink:href="#DejaVuSans-35" x="159.033203"/>
       <use xlink:href="#DejaVuSans-35" x="222.65625"/>
       <use xlink:href="#DejaVuSans-35" x="286.279297"/>
      </g>
     </g>
    </g>
    <g id="ytick_9">
     <g id="line2d_17">
      <g>
       <use xlink:href="#mc24ca37fcb" x="78.607587" y="44.716824" style="stroke: #000000; stroke-width: 0.8"/>
      </g>
     </g>
     <g id="text_17">
      <!-- 52.560 -->
      <g transform="translate(36.616962 48.516043) scale(0.1 -0.1)">
       <use xlink:href="#DejaVuSans-35"/>
       <use xlink:href="#DejaVuSans-32" x="63.623047"/>
       <use xlink:href="#DejaVuSans-2e" x="127.246094"/>
       <use xlink:href="#DejaVuSans-35" x="159.033203"/>
       <use xlink:href="#DejaVuSans-36" x="222.65625"/>
       <use xlink:href="#DejaVuSans-30" x="286.279297"/>
      </g>
     </g>
    </g>
   </g>
   <g id="patch_3">
    <path d="M 78.607587 307.584 
L 78.607587 41.472 
" style="fill: none; stroke: #000000; stroke-width: 0.8; stroke-linejoin: miter; stroke-linecap: square"/>
   </g>
   <g id="patch_4">
    <path d="M 393.712413 307.584 
L 393.712413 41.472 
" style="fill: none; stroke: #000000; stroke-width: 0.8; stroke-linejoin: miter; stroke-linecap: square"/>
   </g>
   <g id="patch_5">
    <path d="M 78.607587 307.584 
L 393.712413 307.584 
" style="fill: none; stroke: #000000; stroke-width: 0.8; stroke-linejoin: miter; stroke-linecap: square"/>
   </g>
   <g id="patch_6">
    <path d="M 78.607587 41.472 
L 393.712413 41.472 
" style="fill: none; stroke: #000000; stroke-width: 0.8; stroke-linejoin: miter; stroke-linecap: square"/>
   </g>
   <g id="text_18">
    <!-- Nördlicher_Prenzlauer_Berg -->
    <g transform="translate(150.596379 161.947022) scale(0.12 -0.12)">
     <defs>
      <path id="DejaVuSans-4e" d="M 628 4666 
L 1478 4666 
L 3547 763 
L 3547 4666 
L 4159 4666 
L 4159 0 
L 3309 0 
L 1241 3903 
L 1241 0 
L 628 0 
L 628 4666 
z
" transform="scale(0.015625)"/>
      <path id="DejaVuSans-f6" d="M 1959 3097 
Q 1497 3097 1228 2736 
Q 959 2375 959 1747 
Q 959 1119 1226 758 
Q 1494 397 1959 397 
Q 2419 397 2687 759 
Q 2956 1122 2956 1747 
Q 2956 2369 2687 2733 
Q 2419 3097 1959 3097 
z
M 1959 3584 
Q 2709 3584 3137 3096 
Q 3566 2609 3566 1747 
Q 3566 888 3137 398 
Q 2709 -91 1959 -91 
Q 1206 -91 779 398 
Q 353 888 353 1747 
Q 353 2609 779 3096 
Q 1206 3584 1959 3584 
z
M 2253 4850 
L 2888 4850 
L 2888 4219 
L 2253 4219 
L 2253 4850 
z
M 1031 4850 
L 1666 4850 
L 1666 4219 
L 1031 4219 
L 1031 4850 
z
" transform="scale(0.015625)"/>
      <path id="DejaVuSans-72" d="M 2631 2963 
Q 2534 3019 2420 3045 
Q 2306 3072 2169 3072 
Q 1681 3072 1420 2755 
Q 1159 2438 1159 1844 
L 1159 0 
L 581 0 
L 581 3500 
L 1159 3500 
L 1159 2956 
Q 1341 3275 1631 3429 
Q 1922 3584 2338 3584 
Q 2397 3584 2469 3576 
Q 2541 3569 2628 3553 
L 2631 2963 
z
" transform="scale(0.015625)"/>
      <path id="DejaVuSans-64" d="M 2906 2969 
L 2906 4863 
L 3481 4863 
L 3481 0 
L 2906 0 
L 2906 525 
Q 2725 213 2448 61 
Q 2172 -91 1784 -91 
Q 1150 -91 751 415 
Q 353 922 353 1747 
Q 353 2572 751 3078 
Q 1150 3584 1784 3584 
Q 2172 3584 2448 3432 
Q 2725 3281 2906 2969 
z
M 947 1747 
Q 947 1113 1208 752 
Q 1469 391 1925 391 
Q 2381 391 2643 752 
Q 2906 1113 2906 1747 
Q 2906 2381 2643 2742 
Q 2381 3103 1925 3103 
Q 1469 3103 1208 2742 
Q 947 2381 947 1747 
z
" transform="scale(0.015625)"/>
      <path id="DejaVuSans-6c" d="M 603 4863 
L 1178 4863 
L 1178 0 
L 603 0 
L 603 4863 
z
" transform="scale(0.015625)"/>
      <path id="DejaVuSans-69" d="M 603 3500 
L 1178 3500 
L 1178 0 
L 603 0 
L 603 3500 
z
M 603 4863 
L 1178 4863 
L 1178 4134 
L 603 4134 
L 603 4863 
z
" transform="scale(0.015625)"/>
      <path id="DejaVuSans-63" d="M 3122 3366 
L 3122 2828 
Q 2878 2963 2633 3030 
Q 2388 3097 2138 3097 
Q 1578 3097 1268 2742 
Q 959 2388 959 1747 
Q 959 1106 1268 751 
Q 1578 397 2138 397 
Q 2388 397 2633 464 
Q 2878 531 3122 666 
L 3122 134 
Q 2881 22 2623 -34 
Q 2366 -91 2075 -91 
Q 1284 -91 818 406 
Q 353 903 353 1747 
Q 353 2603 823 3093 
Q 1294 3584 2113 3584 
Q 2378 3584 2631 3529 
Q 2884 3475 3122 3366 
z
" transform="scale(0.015625)"/>
      <path id="DejaVuSans-68" d="M 3513 2113 
L 3513 0 
L 2938 0 
L 2938 2094 
Q 2938 2591 2744 2837 
Q 2550 3084 2163 3084 
Q 1697 3084 1428 2787 
Q 1159 2491 1159 1978 
L 1159 0 
L 581 0 
L 581 4863 
L 1159 4863 
L 1159 2956 
Q 1366 3272 1645 3428 
Q 1925 3584 2291 3584 
Q 2894 3584 3203 3211 
Q 3513 2838 3513 2113 
z
" transform="scale(0.015625)"/>
      <path id="DejaVuSans-65" d="M 3597 1894 
L 3597 1613 
L 953 1613 
Q 991 1019 1311 708 
Q 1631 397 2203 397 
Q 2534 397 2845 478 
Q 3156 559 3463 722 
L 3463 178 
Q 3153 47 2828 -22 
Q 2503 -91 2169 -91 
Q 1331 -91 842 396 
Q 353 884 353 1716 
Q 353 2575 817 3079 
Q 1281 3584 2069 3584 
Q 2775 3584 3186 3129 
Q 3597 2675 3597 1894 
z
M 3022 2063 
Q 3016 2534 2758 2815 
Q 2500 3097 2075 3097 
Q 1594 3097 1305 2825 
Q 1016 2553 972 2059 
L 3022 2063 
z
" transform="scale(0.015625)"/>
      <path id="DejaVuSans-5f" d="M 3263 -1063 
L 3263 -1509 
L -63 -1509 
L -63 -1063 
L 3263 -1063 
z
" transform="scale(0.015625)"/>
      <path id="DejaVuSans-50" d="M 1259 4147 
L 1259 2394 
L 2053 2394 
Q 2494 2394 2734 2622 
Q 2975 2850 2975 3272 
Q 2975 3691 2734 3919 
Q 2494 4147 2053 4147 
L 1259 4147 
z
M 628 4666 
L 2053 4666 
Q 2838 4666 3239 4311 
Q 3641 3956 3641 3272 
Q 3641 2581 3239 2228 
Q 2838 1875 2053 1875 
L 1259 1875 
L 1259 0 
L 628 0 
L 628 4666 
z
" transform="scale(0.015625)"/>
      <path id="DejaVuSans-6e" d="M 3513 2113 
L 3513 0 
L 2938 0 
L 2938 2094 
Q 2938 2591 2744 2837 
Q 2550 3084 2163 3084 
Q 1697 3084 1428 2787 
Q 1159 2491 1159 1978 
L 1159 0 
L 581 0 
L 581 3500 
L 1159 3500 
L 1159 2956 
Q 1366 3272 1645 3428 
Q 1925 3584 2291 3584 
Q 2894 3584 3203 3211 
Q 3513 2838 3513 2113 
z
" transform="scale(0.015625)"/>
      <path id="DejaVuSans-7a" d="M 353 3500 
L 3084 3500 
L 3084 2975 
L 922 459 
L 3084 459 
L 3084 0 
L 275 0 
L 275 525 
L 2438 3041 
L 353 3041 
L 353 3500 
z
" transform="scale(0.015625)"/>
      <path id="DejaVuSans-61" d="M 2194 1759 
Q 1497 1759 1228 1600 
Q 959 1441 959 1056 
Q 959 750 1161 570 
Q 1363 391 1709 391 
Q 2188 391 2477 730 
Q 2766 1069 2766 1631 
L 2766 1759 
L 2194 1759 
z
M 3341 1997 
L 3341 0 
L 2766 0 
L 2766 531 
Q 2569 213 2275 61 
Q 1981 -91 1556 -91 
Q 1019 -91 701 211 
Q 384 513 384 1019 
Q 384 1609 779 1909 
Q 1175 2209 1959 2209 
L 2766 2209 
L 2766 2266 
Q 2766 2663 2505 2880 
Q 2244 3097 1772 3097 
Q 1472 3097 1187 3025 
Q 903 2953 641 2809 
L 641 3341 
Q 956 3463 1253 3523 
Q 1550 3584 1831 3584 
Q 2591 3584 2966 3190 
Q 3341 2797 3341 1997 
z
" transform="scale(0.015625)"/>
      <path id="DejaVuSans-75" d="M 544 1381 
L 544 3500 
L 1119 3500 
L 1119 1403 
Q 1119 906 1312 657 
Q 1506 409 1894 409 
Q 2359 409 2629 706 
Q 2900 1003 2900 1516 
L 2900 3500 
L 3475 3500 
L 3475 0 
L 2900 0 
L 2900 538 
Q 2691 219 2414 64 
Q 2138 -91 1772 -91 
Q 1169 -91 856 284 
Q 544 659 544 1381 
z
M 1991 3584 
L 1991 3584 
z
" transform="scale(0.015625)"/>
      <path id="DejaVuSans-42" d="M 1259 2228 
L 1259 519 
L 2272 519 
Q 2781 519 3026 730 
Q 3272 941 3272 1375 
Q 3272 1813 3026 2020 
Q 2781 2228 2272 2228 
L 1259 2228 
z
M 1259 4147 
L 1259 2741 
L 2194 2741 
Q 2656 2741 2882 2914 
Q 3109 3088 3109 3444 
Q 3109 3797 2882 3972 
Q 2656 4147 2194 4147 
L 1259 4147 
z
M 628 4666 
L 2241 4666 
Q 2963 4666 3353 4366 
Q 3744 4066 3744 3513 
Q 3744 3084 3544 2831 
Q 3344 2578 2956 2516 
Q 3422 2416 3680 2098 
Q 3938 1781 3938 1306 
Q 3938 681 3513 340 
Q 3088 0 2303 0 
L 628 0 
L 628 4666 
z
" transform="scale(0.015625)"/>
      <path id="DejaVuSans-67" d="M 2906 1791 
Q 2906 2416 2648 2759 
Q 2391 3103 1925 3103 
Q 1463 3103 1205 2759 
Q 947 2416 947 1791 
Q 947 1169 1205 825 
Q 1463 481 1925 481 
Q 2391 481 2648 825 
Q 2906 1169 2906 1791 
z
M 3481 434 
Q 3481 -459 3084 -895 
Q 2688 -1331 1869 -1331 
Q 1566 -1331 1297 -1286 
Q 1028 -1241 775 -1147 
L 775 -588 
Q 1028 -725 1275 -790 
Q 1522 -856 1778 -856 
Q 2344 -856 2625 -561 
Q 2906 -266 2906 331 
L 2906 616 
Q 2728 306 2450 153 
Q 2172 0 1784 0 
Q 1141 0 747 490 
Q 353 981 353 1791 
Q 353 2603 747 3093 
Q 1141 3584 1784 3584 
Q 2172 3584 2450 3431 
Q 2728 3278 2906 2969 
L 2906 3500 
L 3481 3500 
L 3481 434 
z
" transform="scale(0.015625)"/>
     </defs>
     <use xlink:href="#DejaVuSans-4e"/>
     <use xlink:href="#DejaVuSans-f6" x="74.804688"/>
     <use xlink:href="#DejaVuSans-72" x="135.986328"/>
     <use xlink:href="#DejaVuSans-64" x="175.349609"/>
     <use xlink:href="#DejaVuSans-6c" x="238.826172"/>
     <use xlink:href="#DejaVuSans-69" x="266.609375"/>
     <use xlink:href="#DejaVuSans-63" x="294.392578"/>
     <use xlink:href="#DejaVuSans-68" x="349.373047"/>
     <use xlink:href="#DejaVuSans-65" x="412.751953"/>
     <use xlink:href="#DejaVuSans-72" x="474.275391"/>
     <use xlink:href="#DejaVuSans-5f" x="515.388672"/>
     <use xlink:href="#DejaVuSans-50" x="565.388672"/>
     <use xlink:href="#DejaVuSans-72" x="623.941406"/>
     <use xlink:href="#DejaVuSans-65" x="662.804688"/>
     <use xlink:href="#DejaVuSans-6e" x="724.328125"/>
     <use xlink:href="#DejaVuSans-7a" x="787.707031"/>
     <use xlink:href="#DejaVuSans-6c" x="840.197266"/>
     <use xlink:href="#DejaVuSans-61" x="867.980469"/>
     <use xlink:href="#DejaVuSans-75" x="929.259766"/>
     <use xlink:href="#DejaVuSans-65" x="992.638672"/>
     <use xlink:href="#DejaVuSans-72" x="1054.162109"/>
     <use xlink:href="#DejaVuSans-5f" x="1095.275391"/>
     <use xlink:href="#DejaVuSans-42" x="1145.275391"/>
     <use xlink:href="#DejaVuSans-65" x="1213.878906"/>
     <use xlink:href="#DejaVuSans-72" x="1275.402344"/>
     <use xlink:href="#DejaVuSans-67" x="1314.765625"/>
    </g>
   </g>
  </g>
 </g>
 <defs>
  <clipPath id="pe8397f59b2">
   <rect x="78.607587" y="41.472" width="315.104826" height="266.112"/>
  </clipPath>
 </defs>
</svg>
