<?xml version="1.0" encoding="utf-8" standalone="no"?>
<!DOCTYPE svg PUBLIC "-//W3C//DTD SVG 1.1//EN"
  "http://www.w3.org/Graphics/SVG/1.1/DTD/svg11.dtd">
<svg xmlns:xlink="http://www.w3.org/1999/xlink" width="460.8pt" height="345.6pt" viewBox="0 0 460.8 345.6" xmlns="http://www.w3.org/2000/svg" version="1.1">
 <metadata>
  <rdf:RDF xmlns:dc="http://purl.org/dc/elements/1.1/" xmlns:cc="http://creativecommons.org/ns#" xmlns:rdf="http://www.w3.org/1999/02/22-rdf-syntax-ns#">
   <cc:Work>
    <dc:type rdf:resource="http://purl.org/dc/dcmitype/StillImage"/>
    <dc:date>2024-10-15T09:53:30.751897</dc:date>
    <dc:format>image/svg+xml</dc:format>
    <dc:creator>
     <cc:Agent>
      <dc:title>Matplotlib v3.8.4, https://matplotlib.org/</dc:title>
     </cc:Agent>
    </dc:creator>
   </cc:Work>
  </rdf:RDF>
 </metadata>
 <defs>
  <style type="text/css">*{stroke-linejoin: round; stroke-linecap: butt}</style>
 </defs>
 <g id="figure_1">
  <g id="patch_1">
   <path d="M 0 345.6 
L 460.8 345.6 
L 460.8 0 
L 0 0 
z
" style="fill: #ffffff"/>
  </g>
  <g id="axes_1">
   <g id="patch_2">
    <path d="M 57.6 301.703336 
L 414.72 301.703336 
L 414.72 47.352664 
L 57.6 47.352664 
z
" style="fill: #ffffff"/>
   </g>
   <g id="PatchCollection_1">
    <path d="M 172.160258 81.177884 
L 171.481115 80.696211 
L 170.336236 80.421288 
L 169.173902 80.172123 
L 168.407209 79.993521 
L 166.89058 79.635097 
L 165.293549 79.257492 
L 164.6364 79.10249 
L 163.836982 78.913532 
L 163.648622 79.870555 
L 163.480313 80.74806 
L 164.369168 82.382882 
L 164.756449 82.996296 
L 165.207049 83.708785 
L 165.977032 84.832901 
L 166.52887 85.583256 
L 163.711289 87.364879 
L 161.013629 89.070747 
L 159.828894 89.834697 
L 159.570494 90.001324 
L 159.359147 90.137601 
L 156.480188 91.993943 
L 155.296014 92.69966 
L 151.734338 94.823505 
L 149.90267 95.771 
L 147.137418 97.199979 
L 146.899538 97.322889 
L 146.240289 97.755727 
L 143.945466 99.266446 
L 139.933974 101.874806 
L 138.01837 103.311572 
L 137.286753 103.860382 
L 137.174368 103.944562 
L 136.178952 104.691266 
L 134.359384 106.05609 
L 132.833557 107.200522 
L 130.269091 109.084855 
L 129.127226 109.954533 
L 128.150647 110.698336 
L 127.737376 111.013072 
L 126.600816 111.87869 
L 125.347185 112.833558 
L 124.658034 113.324101 
L 124.50784 113.430961 
L 121.957676 115.246024 
L 121.081676 115.869466 
L 121.053418 115.889564 
L 119.896044 116.713308 
L 114.121557 120.694278 
L 113.573248 121.072285 
L 113.496707 121.125137 
L 112.982676 121.479466 
L 111.650616 122.748265 
L 111.331103 123.055376 
L 107.046013 127.17437 
L 106.421197 127.774992 
L 99.94026 131.723815 
L 99.59798 131.87635 
L 99.277931 132.018768 
L 97.153365 132.965869 
L 95.921037 133.516318 
L 95.784215 133.577461 
L 95.675667 133.718657 
L 94.348422 134.336849 
L 93.550823 134.70835 
L 92.740527 135.18175 
L 91.092106 136.144836 
L 90.170473 136.68329 
L 89.982985 136.802626 
L 89.358192 137.200383 
L 87.088562 138.536868 
L 85.588278 139.420253 
L 77.266391 144.320642 
L 76.517465 144.444039 
L 76.068926 144.518032 
L 73.832727 147.068724 
L 73.995273 147.806884 
L 74.201395 148.742933 
L 74.303269 149.355001 
L 74.754572 152.066865 
L 74.853563 152.661703 
L 74.76492 152.714829 
L 75.141156 155.031924 
L 75.225738 155.607487 
L 75.257215 155.821701 
L 75.360393 156.523685 
L 75.36884 156.57577 
L 75.396452 156.744126 
L 75.6043 158.01541 
L 75.79721 159.242947 
L 75.829085 159.445793 
L 75.842152 159.528981 
L 75.846992 159.560294 
L 75.875277 159.746466 
L 76.067931 161.011827 
L 76.142541 161.46824 
L 76.275116 162.279244 
L 76.520994 163.839014 
L 76.582394 164.229083 
L 76.792867 165.502755 
L 76.838925 165.777549 
L 77.127811 167.501601 
L 77.184748 167.84144 
L 77.226961 167.840016 
L 77.270759 168.139592 
L 77.23218 168.159702 
L 77.301727 168.644283 
L 77.495376 169.777548 
L 77.658222 170.91587 
L 77.836302 172.032506 
L 78.114813 173.735001 
L 78.193191 174.213566 
L 78.468456 175.873032 
L 78.545502 176.342528 
L 78.765123 177.684808 
L 78.949821 178.812589 
L 79.187813 180.307537 
L 79.19365 180.341849 
L 79.222916 180.513908 
L 79.438689 181.784878 
L 79.706839 183.364368 
L 79.502925 184.103464 
L 79.856073 184.292473 
L 80.234981 184.495371 
L 81.116692 184.918174 
L 81.11811 184.918854 
L 82.066511 185.372623 
L 82.713439 185.682127 
L 84.197496 186.30828 
L 84.991884 186.631685 
L 86.05682 187.075807 
L 87.343502 187.612665 
L 87.446856 187.656211 
L 88.715539 188.186708 
L 88.838253 188.236735 
L 89.517005 188.491575 
L 90.288837 188.692671 
L 91.779091 189.036811 
L 93.296154 189.387132 
L 95.837414 189.973923 
L 97.241472 190.28833 
L 98.11682 190.500501 
L 98.432425 190.594172 
L 98.565901 190.632942 
L 99.826725 191.162787 
L 101.087529 191.691918 
L 102.348345 192.221772 
L 102.903795 192.454575 
L 104.58864 193.142809 
L 105.828796 193.692752 
L 106.543642 194.000824 
L 107.065785 194.225801 
L 108.997702 195.058161 
L 110.095261 195.531125 
L 111.042319 195.93913 
L 111.641404 196.19717 
L 115.280834 197.764296 
L 115.963012 198.05807 
L 117.209877 198.594894 
L 118.675069 199.242956 
L 120.674118 200.128133 
L 120.779034 200.174604 
L 121.304409 200.407297 
L 121.564417 200.522444 
L 124.937262 202.016007 
L 125.714507 202.359288 
L 126.671168 202.782011 
L 127.969922 203.34888 
L 129.282971 203.920406 
L 130.184466 204.312698 
L 131.184042 204.767288 
L 131.925855 205.036502 
L 131.95185 205.045936 
L 132.509326 205.248185 
L 132.558823 205.268826 
L 132.732852 205.341267 
L 132.844652 205.38788 
L 138.388484 207.69732 
L 138.611573 207.790272 
L 141.107368 208.829962 
L 145.105248 211.127739 
L 147.267786 212.372039 
L 147.610864 212.569385 
L 149.114166 213.434383 
L 150.272821 214.101581 
L 151.773059 214.967389 
L 152.963292 215.649044 
L 154.14644 216.329877 
L 154.981302 216.813491 
L 155.778152 217.268772 
L 156.771348 217.840261 
L 158.012929 218.554644 
L 158.867368 219.046381 
L 159.753531 219.556273 
L 160.625535 220.058061 
L 161.865793 220.771694 
L 162.965169 219.423865 
L 164.042166 220.300542 
L 165.014887 221.098542 
L 165.728241 221.683068 
L 166.787531 223.59534 
L 166.829604 223.671291 
L 167.094667 223.849776 
L 168.473382 224.77808 
L 168.66612 224.90787 
L 170.959468 226.448444 
L 171.308187 226.682719 
L 171.31648 226.68822 
L 171.449432 226.775442 
L 172.220885 227.281438 
L 172.341981 227.360864 
L 172.427803 227.417179 
L 172.666146 227.567054 
L 174.371401 228.726901 
L 175.627883 229.581367 
L 176.058516 229.87061 
L 176.322688 230.048114 
L 177.00665 230.507547 
L 177.29883 230.70379 
L 178.025568 231.191925 
L 178.044848 231.204882 
L 178.361713 231.418784 
L 178.474563 231.49501 
L 178.90879 231.788205 
L 181.050876 233.234393 
L 182.253134 234.046193 
L 182.460712 234.186311 
L 184.137348 235.251629 
L 184.155886 235.263452 
L 184.199139 235.290921 
L 184.396721 235.416373 
L 184.492388 235.477153 
L 184.929933 235.755041 
L 185.200356 235.92681 
L 186.009293 236.440586 
L 186.362657 236.664998 
L 186.636278 236.838856 
L 189.186795 238.458784 
L 189.400222 238.594395 
L 189.963157 238.951988 
L 190.180363 239.089963 
L 190.424028 239.244696 
L 191.557369 239.964184 
L 192.738322 240.958953 
L 192.955533 241.134172 
L 193.06629 241.223461 
L 193.381635 241.477815 
L 193.679396 241.717953 
L 193.889089 241.887007 
L 194.586355 241.494851 
L 194.931482 241.300791 
L 194.99022 241.26775 
L 196.225411 240.573144 
L 197.319746 239.957636 
L 197.59969 239.800207 
L 197.906841 239.627384 
L 198.18792 239.469357 
L 198.302272 239.66656 
L 198.699679 240.352194 
L 198.969627 240.817828 
L 199.123214 241.082779 
L 199.171081 241.165224 
L 199.554564 241.826857 
L 201.061283 241.000115 
L 201.567482 241.905077 
L 201.825428 242.366297 
L 202.652041 243.844235 
L 203.066012 244.584233 
L 203.382698 245.150458 
L 203.547528 245.445222 
L 203.666506 245.657858 
L 203.727415 245.766841 
L 201.013857 248.732469 
L 202.821748 249.973507 
L 213.451866 257.261952 
L 214.223705 257.802183 
L 214.929524 258.296235 
L 215.478345 258.677322 
L 225.362429 265.552884 
L 226.697053 266.49983 
L 227.206394 266.85978 
L 230.029123 268.881837 
L 235.505864 272.805243 
L 236.314981 273.358602 
L 236.491486 273.479285 
L 237.410117 274.142251 
L 238.276612 274.767724 
L 239.077641 275.34578 
L 239.992187 276.005892 
L 240.174512 276.137452 
L 240.84987 276.598343 
L 241.082385 276.757016 
L 242.896113 277.996121 
L 243.06912 278.114366 
L 244.881168 279.352654 
L 246.177903 280.238867 
L 246.306164 280.326505 
L 252.121513 284.32735 
L 252.180666 284.368077 
L 252.873606 284.844793 
L 253.055718 284.970109 
L 253.087298 284.992012 
L 253.769852 285.465931 
L 254.309196 285.840234 
L 254.973191 286.30125 
L 255.681497 286.792958 
L 256.131191 287.105114 
L 256.603515 287.433038 
L 257.276454 287.900267 
L 257.982058 288.389951 
L 258.591697 288.80353 
L 259.235598 289.240465 
L 259.672841 289.537146 
L 260.515394 290.108901 
L 260.564129 290.141942 
L 260.989494 289.600268 
L 261.201513 289.330236 
L 262.175124 288.090628 
L 262.456125 287.732994 
L 262.920802 287.141307 
L 263.208156 286.775487 
L 263.33326 286.616088 
L 263.900636 285.893663 
L 264.028953 285.730241 
L 264.179821 285.538155 
L 264.871613 284.657426 
L 265.020737 284.467607 
L 265.760702 283.525389 
L 265.939079 283.298279 
L 266.187829 282.981526 
L 267.210625 281.679342 
L 267.412228 281.42147 
L 267.848801 280.862958 
L 268.090545 280.55376 
L 269.336824 278.959598 
L 269.609561 278.610558 
L 269.712039 278.479467 
L 271.107025 276.695071 
L 271.217742 276.553451 
L 271.38954 276.333602 
L 271.576701 276.094302 
L 271.774469 275.84126 
L 272.867408 274.443272 
L 272.457278 272.587841 
L 271.869054 270.031102 
L 271.769649 269.5991 
L 271.704032 269.313769 
L 271.588909 268.813224 
L 271.583226 268.788613 
L 271.5398 268.586355 
L 271.141768 266.734047 
L 269.621013 260.09433 
L 267.752 251.736208 
L 267.046622 248.610675 
L 266.505815 246.136696 
L 264.738318 238.282732 
L 262.730611 229.369812 
L 262.698595 229.209085 
L 262.590448 228.70063 
L 262.463807 228.128149 
L 262.441328 228.035089 
L 262.199233 226.957975 
L 261.915329 225.684466 
L 261.796174 225.248861 
L 261.632068 224.593706 
L 261.333014 223.221229 
L 261.248121 222.866283 
L 261.110358 222.290301 
L 260.26017 218.735907 
L 260.164318 218.290245 
L 259.773776 216.475609 
L 259.621859 215.770011 
L 259.429757 214.876969 
L 259.388321 214.684664 
L 259.141059 213.567688 
L 259.319499 213.355601 
L 259.39931 213.260722 
L 260.089987 212.439828 
L 260.257377 212.240919 
L 260.821309 211.57069 
L 261.252159 211.628739 
L 265.939933 212.260428 
L 266.175686 212.7162 
L 266.475575 212.292527 
L 266.721793 212.473717 
L 270.196062 215.030594 
L 270.324779 215.125349 
L 271.413582 215.926638 
L 273.034968 216.161705 
L 273.297009 216.199631 
L 280.428729 216.397717 
L 281.742112 216.446035 
L 281.815098 216.448727 
L 283.928668 216.50278 
L 283.933805 216.502919 
L 285.71878 216.551273 
L 286.534263 216.5546 
L 286.752423 216.555506 
L 288.112443 216.560942 
L 289.503873 216.607201 
L 290.80675 216.650526 
L 291.81548 216.68399 
L 292.029254 216.691104 
L 294.250085 216.764945 
L 296.417814 216.83705 
L 296.662444 216.845167 
L 305.409125 217.136078 
L 308.309423 217.224672 
L 313.211778 217.374553 
L 316.414075 217.532967 
L 320.540297 217.757377 
L 323.236433 214.634093 
L 324.498514 213.172018 
L 323.922614 212.277916 
L 323.403102 211.327047 
L 322.904372 210.372217 
L 322.800053 210.168363 
L 322.478839 209.40628 
L 322.070093 208.39987 
L 321.692179 207.369442 
L 321.392701 206.338365 
L 321.122401 205.327378 
L 319.413779 203.989521 
L 319.383082 203.965437 
L 319.064749 203.716282 
L 319.382204 203.30616 
L 321.035963 201.169887 
L 322.662234 202.379933 
L 323.499434 201.319602 
L 324.062755 201.730031 
L 324.072434 202.525367 
L 330.081297 202.313129 
L 330.46908 202.246352 
L 330.84027 202.157781 
L 331.194843 202.029155 
L 331.525573 201.898875 
L 331.856249 201.755727 
L 332.146752 201.598257 
L 332.467835 201.387585 
L 332.763354 201.175223 
L 333.069805 200.960906 
L 333.357569 200.686518 
L 333.60881 200.393991 
L 335.525611 198.112689 
L 335.734335 197.851185 
L 339.678559 192.910264 
L 339.935226 192.588725 
L 340.12369 192.352599 
L 340.899599 191.436965 
L 340.994282 191.321517 
L 341.210708 191.057625 
L 341.834858 190.295239 
L 342.637533 189.314913 
L 346.737116 184.352253 
L 346.963381 184.078308 
L 348.353369 182.395782 
L 348.540538 182.169178 
L 349.86732 180.584186 
L 350.182214 180.627961 
L 350.487497 180.729958 
L 350.601919 180.591091 
L 351.227223 179.84092 
L 351.584384 179.406195 
L 352.005272 178.963156 
L 352.019982 178.970396 
L 353.374492 179.343236 
L 355.905556 180.040045 
L 363.47914 182.125169 
L 364.349192 182.36472 
L 364.480817 182.400206 
L 365.660179 182.718607 
L 372.589391 184.589328 
L 373.62069 184.961477 
L 380.021536 187.271501 
L 383.299071 188.461608 
L 387.595616 190.02175 
L 389.120262 190.575438 
L 389.508017 190.716294 
L 389.722197 190.79399 
L 390.680381 191.14198 
L 392.352627 191.765641 
L 392.424099 191.867677 
L 392.921698 190.07099 
L 393.270689 188.810958 
L 393.724479 187.172858 
L 394.083751 185.875873 
L 394.313076 185.047641 
L 394.744478 183.487731 
L 395.071037 182.307114 
L 395.133666 182.080623 
L 395.417259 181.075326 
L 396.103746 178.642145 
L 396.58806 176.925618 
L 397.352379 174.154623 
L 397.98172 171.341587 
L 398.297964 169.288145 
L 398.471958 167.233075 
L 398.487273 165.117621 
L 398.399133 162.900582 
L 398.235964 161.176239 
L 398.172731 160.508488 
L 397.782346 158.132476 
L 397.240379 155.920611 
L 396.548821 153.713599 
L 395.708325 151.57743 
L 394.837508 149.707987 
L 394.744413 149.508191 
L 394.664532 149.360891 
L 393.641208 147.473646 
L 393.044368 146.483456 
L 392.82336 146.116947 
L 390.866259 142.870189 
L 388.681665 139.199123 
L 388.252749 138.469216 
L 388.07324 138.163745 
L 385.756074 134.253539 
L 382.975694 129.564773 
L 382.424415 128.560992 
L 382.345758 128.417839 
L 382.321183 128.373115 
L 382.257334 128.256917 
L 382.224498 128.195702 
L 381.78957 127.385188 
L 381.306203 126.563324 
L 380.557526 125.27099 
L 380.099432 124.512514 
L 379.964285 124.267805 
L 379.728901 123.908076 
L 378.996919 122.59131 
L 378.728633 122.163969 
L 378.171941 121.307553 
L 378.082539 121.19619 
L 377.92741 121.008123 
L 377.211985 119.894266 
L 376.11707 118.599924 
L 375.037857 117.508437 
L 374.873892 117.357656 
L 373.582287 116.225332 
L 372.194808 115.228823 
L 372.03707 115.132482 
L 371.786038 114.979072 
L 371.467728 114.784653 
L 371.316354 114.687389 
L 370.753611 114.325834 
L 369.837317 113.851486 
L 368.621552 113.243514 
L 368.318626 113.092129 
L 367.574464 112.720008 
L 365.393808 111.6301 
L 365.2613 111.563861 
L 364.915022 111.390742 
L 363.229135 110.55734 
L 362.296747 110.096436 
L 361.412267 109.659188 
L 359.177534 108.554421 
L 357.705684 107.876088 
L 356.190395 107.309252 
L 354.635125 106.916175 
L 352.994254 106.532382 
L 350.890967 106.178167 
L 350.770893 106.157902 
L 348.509304 105.777051 
L 347.709575 104.223149 
L 347.488088 103.792834 
L 347.538883 103.584343 
L 347.821281 101.885228 
L 348.13622 99.989583 
L 348.49823 99.690279 
L 348.802773 99.438487 
L 349.186007 99.094162 
L 349.471022 98.838108 
L 349.878102 96.128378 
L 350.148876 94.592717 
L 350.409245 93.019169 
L 350.771217 90.836962 
L 350.902026 90.208349 
L 351.101619 88.945452 
L 351.33227 87.65149 
L 351.544845 86.302692 
L 351.771927 84.964877 
L 351.524453 84.917741 
L 351.046791 84.826773 
L 350.691138 84.75905 
L 350.316066 84.695834 
L 347.327217 84.13358 
L 346.52253 83.982205 
L 346.186913 83.919026 
L 345.069153 83.708818 
L 343.931585 83.494861 
L 342.812811 83.284323 
L 341.648448 83.065329 
L 340.997162 82.942802 
L 340.538106 82.856777 
L 340.12425 82.777853 
L 339.681555 82.709171 
L 339.385895 82.663203 
L 337.923982 82.373273 
L 336.825834 82.158077 
L 336.63727 82.118626 
L 336.57372 82.10537 
L 335.629308 81.92454 
L 335.231793 81.84844 
L 333.846495 81.572515 
L 333.218806 81.45008 
L 332.589192 81.324811 
L 332.038029 81.215216 
L 331.381921 81.085475 
L 330.11898 80.832507 
L 329.047522 80.617922 
L 328.956055 80.600728 
L 328.664943 80.546045 
L 327.400171 80.308511 
L 326.794973 80.194888 
L 326.362193 80.113575 
L 323.493922 79.574934 
L 320.390487 78.992033 
L 320.271794 78.969736 
L 319.669832 78.856704 
L 318.984972 78.728097 
L 318.409657 78.62004 
L 316.204185 78.205928 
L 314.322017 77.852435 
L 311.737552 77.367205 
L 308.843874 76.966472 
L 307.367282 76.761963 
L 306.346677 76.606118 
L 306.178485 76.580487 
L 305.854789 76.549232 
L 305.406388 76.48625 
L 305.269103 76.466868 
L 304.93647 76.420058 
L 304.749469 76.393819 
L 303.153222 76.169357 
L 302.810299 76.121112 
L 302.535404 76.107808 
L 301.584326 76.061586 
L 299.69958 75.675585 
L 297.889961 75.246374 
L 294.971737 74.720959 
L 294.343719 74.607947 
L 289.685949 73.769458 
L 288.987786 73.64378 
L 288.442737 73.546418 
L 285.676601 73.056319 
L 283.606498 72.696554 
L 283.528971 72.684036 
L 281.138227 72.2446 
L 280.911798 72.202963 
L 280.027042 72.040284 
L 279.672035 71.973913 
L 279.484773 71.938922 
L 278.796697 71.811149 
L 278.033886 71.669499 
L 277.968188 71.656659 
L 277.545824 71.573675 
L 277.503178 71.565307 
L 275.035581 71.084982 
L 274.683467 71.016398 
L 274.478668 70.976534 
L 274.231298 70.928516 
L 274.201186 70.922613 
L 273.960442 70.875821 
L 273.135202 70.715561 
L 271.91189 70.477921 
L 271.073462 70.314926 
L 268.906906 69.89403 
L 268.855039 69.883917 
L 268.412954 69.798056 
L 266.672701 69.459918 
L 266.320589 69.391559 
L 266.281329 69.38391 
L 263.462397 68.836226 
L 262.930825 68.73229 
L 262.298081 68.607213 
L 261.62456 68.474019 
L 260.980649 68.346739 
L 260.29409 68.211093 
L 260.276655 68.207582 
L 258.664785 67.888966 
L 258.374093 67.831457 
L 257.485453 67.655832 
L 246.21257 65.427777 
L 245.880811 65.362239 
L 245.707404 65.327977 
L 245.559283 65.298712 
L 244.967769 65.181319 
L 244.84914 65.157776 
L 244.708451 65.147405 
L 244.408683 65.125474 
L 244.034618 65.098083 
L 243.869699 65.061556 
L 243.296204 64.936688 
L 242.329616 64.726241 
L 241.322736 64.507023 
L 240.322559 64.289319 
L 239.301912 64.067165 
L 238.278235 63.844289 
L 237.207076 63.601723 
L 236.809076 63.511581 
L 236.231071 63.380638 
L 235.193356 63.14556 
L 235.061507 63.115736 
L 234.162129 62.912 
L 233.224111 62.69953 
L 233.029112 62.655454 
L 231.8829 62.395816 
L 230.769776 62.143741 
L 230.413656 62.063065 
L 229.626804 61.884831 
L 229.102356 61.766055 
L 228.838149 61.706207 
L 228.056103 61.558358 
L 227.598918 61.471866 
L 227.085403 61.374715 
L 226.215909 61.210336 
L 225.175624 61.01352 
L 224.798683 60.942282 
L 224.092121 60.808644 
L 223.61419 60.718287 
L 223.00271 60.602605 
L 222.312715 60.472139 
L 221.965953 60.406585 
L 221.133911 60.249253 
L 220.886984 60.202557 
L 220.851616 60.195837 
L 220.617297 60.151604 
L 219.67605 59.973534 
L 219.55799 59.951257 
L 218.580872 59.766481 
L 218.256725 59.70512 
L 218.05291 59.671667 
L 217.549816 59.589046 
L 217.50374 59.581477 
L 216.938226 59.488619 
L 216.743193 59.45656 
L 216.470985 59.411918 
L 215.407992 59.237403 
L 214.377033 59.068027 
L 214.151763 59.031082 
L 213.439235 58.914058 
L 212.661758 58.940568 
L 211.830942 58.96887 
L 211.246239 58.988807 
L 209.638019 59.043628 
L 209.601528 59.044842 
L 209.121565 59.061243 
L 208.351758 59.087454 
L 208.171817 59.093613 
L 207.610772 59.112762 
L 206.945145 59.146161 
L 206.725407 59.160004 
L 205.133611 59.258207 
L 204.816483 59.280396 
L 204.499213 59.30266 
L 203.304525 59.713875 
L 202.644475 59.941069 
L 202.331613 60.048726 
L 201.470516 60.34516 
L 200.340375 60.734941 
L 200.218078 60.776247 
L 199.628981 61.221497 
L 199.478177 61.335456 
L 198.387179 62.159956 
L 198.130261 62.354058 
L 198.009113 62.44574 
L 197.560162 62.784956 
L 196.674126 63.45458 
L 196.060116 63.918633 
L 195.731825 64.166683 
L 194.700573 64.946126 
L 193.721132 65.686328 
L 193.640575 65.743085 
L 193.000168 66.170037 
L 192.484459 66.513714 
L 191.521874 67.155518 
L 190.871214 67.589237 
L 190.198772 68.037517 
L 189.637308 68.411803 
L 188.77036 68.989799 
L 188.597423 69.105101 
L 187.724819 69.686817 
L 187.608043 69.764676 
L 187.046302 70.139188 
L 186.665704 70.392972 
L 186.284752 70.646981 
L 186.143219 70.741262 
L 185.590605 71.109685 
L 185.487908 71.178255 
L 184.805786 71.632865 
L 184.492668 71.841703 
L 183.841389 72.275879 
L 183.398907 72.570902 
L 183.011452 72.829224 
L 182.332735 73.281752 
L 182.176423 73.385915 
L 181.921376 73.556048 
L 181.307661 73.965192 
L 181.126312 74.086071 
L 180.170911 74.723079 
L 179.972587 74.855252 
L 179.120948 75.423093 
L 178.196314 76.189866 
L 178.130198 76.244708 
L 177.24539 76.978344 
L 177.132967 77.071643 
L 176.458705 77.630854 
L 175.61909 78.327285 
L 175.542544 78.390765 
L 174.610943 79.163161 
L 174.487804 79.265175 
L 174.002443 79.66409 
L 173.602733 79.992571 
L 172.308932 81.055691 
L 172.160258 81.177884 
" clip-path="url(#p2391dca9cf)" style="fill: #1f77b4"/>
   </g>
   <g id="matplotlib.axis_1">
    <g id="xtick_1">
     <g id="line2d_1">
      <defs>
       <path id="me35f54be78" d="M 0 0 
L 0 3.5 
" style="stroke: #000000; stroke-width: 0.8"/>
      </defs>
      <g>
       <use xlink:href="#me35f54be78" x="79.156015" y="301.703336" style="stroke: #000000; stroke-width: 0.8"/>
      </g>
     </g>
     <g id="text_1">
      <!-- 13.43 -->
      <g transform="translate(64.841952 316.301774) scale(0.1 -0.1)">
       <defs>
        <path id="DejaVuSans-31" d="M 794 531 
L 1825 531 
L 1825 4091 
L 703 3866 
L 703 4441 
L 1819 4666 
L 2450 4666 
L 2450 531 
L 3481 531 
L 3481 0 
L 794 0 
L 794 531 
z
" transform="scale(0.015625)"/>
        <path id="DejaVuSans-33" d="M 2597 2516 
Q 3050 2419 3304 2112 
Q 3559 1806 3559 1356 
Q 3559 666 3084 287 
Q 2609 -91 1734 -91 
Q 1441 -91 1130 -33 
Q 819 25 488 141 
L 488 750 
Q 750 597 1062 519 
Q 1375 441 1716 441 
Q 2309 441 2620 675 
Q 2931 909 2931 1356 
Q 2931 1769 2642 2001 
Q 2353 2234 1838 2234 
L 1294 2234 
L 1294 2753 
L 1863 2753 
Q 2328 2753 2575 2939 
Q 2822 3125 2822 3475 
Q 2822 3834 2567 4026 
Q 2313 4219 1838 4219 
Q 1578 4219 1281 4162 
Q 984 4106 628 3988 
L 628 4550 
Q 988 4650 1302 4700 
Q 1616 4750 1894 4750 
Q 2613 4750 3031 4423 
Q 3450 4097 3450 3541 
Q 3450 3153 3228 2886 
Q 3006 2619 2597 2516 
z
" transform="scale(0.015625)"/>
        <path id="DejaVuSans-2e" d="M 684 794 
L 1344 794 
L 1344 0 
L 684 0 
L 684 794 
z
" transform="scale(0.015625)"/>
        <path id="DejaVuSans-34" d="M 2419 4116 
L 825 1625 
L 2419 1625 
L 2419 4116 
z
M 2253 4666 
L 3047 4666 
L 3047 1625 
L 3713 1625 
L 3713 1100 
L 3047 1100 
L 3047 0 
L 2419 0 
L 2419 1100 
L 313 1100 
L 313 1709 
L 2253 4666 
z
" transform="scale(0.015625)"/>
       </defs>
       <use xlink:href="#DejaVuSans-31"/>
       <use xlink:href="#DejaVuSans-33" x="63.623047"/>
       <use xlink:href="#DejaVuSans-2e" x="127.246094"/>
       <use xlink:href="#DejaVuSans-34" x="159.033203"/>
       <use xlink:href="#DejaVuSans-33" x="222.65625"/>
      </g>
     </g>
    </g>
    <g id="xtick_2">
     <g id="line2d_2">
      <g>
       <use xlink:href="#me35f54be78" x="127.777655" y="301.703336" style="stroke: #000000; stroke-width: 0.8"/>
      </g>
     </g>
     <g id="text_2">
      <!-- 13.44 -->
      <g transform="translate(113.463592 316.301774) scale(0.1 -0.1)">
       <use xlink:href="#DejaVuSans-31"/>
       <use xlink:href="#DejaVuSans-33" x="63.623047"/>
       <use xlink:href="#DejaVuSans-2e" x="127.246094"/>
       <use xlink:href="#DejaVuSans-34" x="159.033203"/>
       <use xlink:href="#DejaVuSans-34" x="222.65625"/>
      </g>
     </g>
    </g>
    <g id="xtick_3">
     <g id="line2d_3">
      <g>
       <use xlink:href="#me35f54be78" x="176.399295" y="301.703336" style="stroke: #000000; stroke-width: 0.8"/>
      </g>
     </g>
     <g id="text_3">
      <!-- 13.45 -->
      <g transform="translate(162.085232 316.301774) scale(0.1 -0.1)">
       <defs>
        <path id="DejaVuSans-35" d="M 691 4666 
L 3169 4666 
L 3169 4134 
L 1269 4134 
L 1269 2991 
Q 1406 3038 1543 3061 
Q 1681 3084 1819 3084 
Q 2600 3084 3056 2656 
Q 3513 2228 3513 1497 
Q 3513 744 3044 326 
Q 2575 -91 1722 -91 
Q 1428 -91 1123 -41 
Q 819 9 494 109 
L 494 744 
Q 775 591 1075 516 
Q 1375 441 1709 441 
Q 2250 441 2565 725 
Q 2881 1009 2881 1497 
Q 2881 1984 2565 2268 
Q 2250 2553 1709 2553 
Q 1456 2553 1204 2497 
Q 953 2441 691 2322 
L 691 4666 
z
" transform="scale(0.015625)"/>
       </defs>
       <use xlink:href="#DejaVuSans-31"/>
       <use xlink:href="#DejaVuSans-33" x="63.623047"/>
       <use xlink:href="#DejaVuSans-2e" x="127.246094"/>
       <use xlink:href="#DejaVuSans-34" x="159.033203"/>
       <use xlink:href="#DejaVuSans-35" x="222.65625"/>
      </g>
     </g>
    </g>
    <g id="xtick_4">
     <g id="line2d_4">
      <g>
       <use xlink:href="#me35f54be78" x="225.020935" y="301.703336" style="stroke: #000000; stroke-width: 0.8"/>
      </g>
     </g>
     <g id="text_4">
      <!-- 13.46 -->
      <g transform="translate(210.706873 316.301774) scale(0.1 -0.1)">
       <defs>
        <path id="DejaVuSans-36" d="M 2113 2584 
Q 1688 2584 1439 2293 
Q 1191 2003 1191 1497 
Q 1191 994 1439 701 
Q 1688 409 2113 409 
Q 2538 409 2786 701 
Q 3034 994 3034 1497 
Q 3034 2003 2786 2293 
Q 2538 2584 2113 2584 
z
M 3366 4563 
L 3366 3988 
Q 3128 4100 2886 4159 
Q 2644 4219 2406 4219 
Q 1781 4219 1451 3797 
Q 1122 3375 1075 2522 
Q 1259 2794 1537 2939 
Q 1816 3084 2150 3084 
Q 2853 3084 3261 2657 
Q 3669 2231 3669 1497 
Q 3669 778 3244 343 
Q 2819 -91 2113 -91 
Q 1303 -91 875 529 
Q 447 1150 447 2328 
Q 447 3434 972 4092 
Q 1497 4750 2381 4750 
Q 2619 4750 2861 4703 
Q 3103 4656 3366 4563 
z
" transform="scale(0.015625)"/>
       </defs>
       <use xlink:href="#DejaVuSans-31"/>
       <use xlink:href="#DejaVuSans-33" x="63.623047"/>
       <use xlink:href="#DejaVuSans-2e" x="127.246094"/>
       <use xlink:href="#DejaVuSans-34" x="159.033203"/>
       <use xlink:href="#DejaVuSans-36" x="222.65625"/>
      </g>
     </g>
    </g>
    <g id="xtick_5">
     <g id="line2d_5">
      <g>
       <use xlink:href="#me35f54be78" x="273.642575" y="301.703336" style="stroke: #000000; stroke-width: 0.8"/>
      </g>
     </g>
     <g id="text_5">
      <!-- 13.47 -->
      <g transform="translate(259.328513 316.301774) scale(0.1 -0.1)">
       <defs>
        <path id="DejaVuSans-37" d="M 525 4666 
L 3525 4666 
L 3525 4397 
L 1831 0 
L 1172 0 
L 2766 4134 
L 525 4134 
L 525 4666 
z
" transform="scale(0.015625)"/>
       </defs>
       <use xlink:href="#DejaVuSans-31"/>
       <use xlink:href="#DejaVuSans-33" x="63.623047"/>
       <use xlink:href="#DejaVuSans-2e" x="127.246094"/>
       <use xlink:href="#DejaVuSans-34" x="159.033203"/>
       <use xlink:href="#DejaVuSans-37" x="222.65625"/>
      </g>
     </g>
    </g>
    <g id="xtick_6">
     <g id="line2d_6">
      <g>
       <use xlink:href="#me35f54be78" x="322.264215" y="301.703336" style="stroke: #000000; stroke-width: 0.8"/>
      </g>
     </g>
     <g id="text_6">
      <!-- 13.48 -->
      <g transform="translate(307.950153 316.301774) scale(0.1 -0.1)">
       <defs>
        <path id="DejaVuSans-38" d="M 2034 2216 
Q 1584 2216 1326 1975 
Q 1069 1734 1069 1313 
Q 1069 891 1326 650 
Q 1584 409 2034 409 
Q 2484 409 2743 651 
Q 3003 894 3003 1313 
Q 3003 1734 2745 1975 
Q 2488 2216 2034 2216 
z
M 1403 2484 
Q 997 2584 770 2862 
Q 544 3141 544 3541 
Q 544 4100 942 4425 
Q 1341 4750 2034 4750 
Q 2731 4750 3128 4425 
Q 3525 4100 3525 3541 
Q 3525 3141 3298 2862 
Q 3072 2584 2669 2484 
Q 3125 2378 3379 2068 
Q 3634 1759 3634 1313 
Q 3634 634 3220 271 
Q 2806 -91 2034 -91 
Q 1263 -91 848 271 
Q 434 634 434 1313 
Q 434 1759 690 2068 
Q 947 2378 1403 2484 
z
M 1172 3481 
Q 1172 3119 1398 2916 
Q 1625 2713 2034 2713 
Q 2441 2713 2670 2916 
Q 2900 3119 2900 3481 
Q 2900 3844 2670 4047 
Q 2441 4250 2034 4250 
Q 1625 4250 1398 4047 
Q 1172 3844 1172 3481 
z
" transform="scale(0.015625)"/>
       </defs>
       <use xlink:href="#DejaVuSans-31"/>
       <use xlink:href="#DejaVuSans-33" x="63.623047"/>
       <use xlink:href="#DejaVuSans-2e" x="127.246094"/>
       <use xlink:href="#DejaVuSans-34" x="159.033203"/>
       <use xlink:href="#DejaVuSans-38" x="222.65625"/>
      </g>
     </g>
    </g>
    <g id="xtick_7">
     <g id="line2d_7">
      <g>
       <use xlink:href="#me35f54be78" x="370.885855" y="301.703336" style="stroke: #000000; stroke-width: 0.8"/>
      </g>
     </g>
     <g id="text_7">
      <!-- 13.49 -->
      <g transform="translate(356.571793 316.301774) scale(0.1 -0.1)">
       <defs>
        <path id="DejaVuSans-39" d="M 703 97 
L 703 672 
Q 941 559 1184 500 
Q 1428 441 1663 441 
Q 2288 441 2617 861 
Q 2947 1281 2994 2138 
Q 2813 1869 2534 1725 
Q 2256 1581 1919 1581 
Q 1219 1581 811 2004 
Q 403 2428 403 3163 
Q 403 3881 828 4315 
Q 1253 4750 1959 4750 
Q 2769 4750 3195 4129 
Q 3622 3509 3622 2328 
Q 3622 1225 3098 567 
Q 2575 -91 1691 -91 
Q 1453 -91 1209 -44 
Q 966 3 703 97 
z
M 1959 2075 
Q 2384 2075 2632 2365 
Q 2881 2656 2881 3163 
Q 2881 3666 2632 3958 
Q 2384 4250 1959 4250 
Q 1534 4250 1286 3958 
Q 1038 3666 1038 3163 
Q 1038 2656 1286 2365 
Q 1534 2075 1959 2075 
z
" transform="scale(0.015625)"/>
       </defs>
       <use xlink:href="#DejaVuSans-31"/>
       <use xlink:href="#DejaVuSans-33" x="63.623047"/>
       <use xlink:href="#DejaVuSans-2e" x="127.246094"/>
       <use xlink:href="#DejaVuSans-34" x="159.033203"/>
       <use xlink:href="#DejaVuSans-39" x="222.65625"/>
      </g>
     </g>
    </g>
   </g>
   <g id="matplotlib.axis_2">
    <g id="ytick_1">
     <g id="line2d_8">
      <defs>
       <path id="m72bb503e4c" d="M 0 0 
L -3.5 0 
" style="stroke: #000000; stroke-width: 0.8"/>
      </defs>
      <g>
       <use xlink:href="#m72bb503e4c" x="57.6" y="278.108379" style="stroke: #000000; stroke-width: 0.8"/>
      </g>
     </g>
     <g id="text_8">
      <!-- 52.540 -->
      <g transform="translate(15.609375 281.907597) scale(0.1 -0.1)">
       <defs>
        <path id="DejaVuSans-32" d="M 1228 531 
L 3431 531 
L 3431 0 
L 469 0 
L 469 531 
Q 828 903 1448 1529 
Q 2069 2156 2228 2338 
Q 2531 2678 2651 2914 
Q 2772 3150 2772 3378 
Q 2772 3750 2511 3984 
Q 2250 4219 1831 4219 
Q 1534 4219 1204 4116 
Q 875 4013 500 3803 
L 500 4441 
Q 881 4594 1212 4672 
Q 1544 4750 1819 4750 
Q 2544 4750 2975 4387 
Q 3406 4025 3406 3419 
Q 3406 3131 3298 2873 
Q 3191 2616 2906 2266 
Q 2828 2175 2409 1742 
Q 1991 1309 1228 531 
z
" transform="scale(0.015625)"/>
        <path id="DejaVuSans-30" d="M 2034 4250 
Q 1547 4250 1301 3770 
Q 1056 3291 1056 2328 
Q 1056 1369 1301 889 
Q 1547 409 2034 409 
Q 2525 409 2770 889 
Q 3016 1369 3016 2328 
Q 3016 3291 2770 3770 
Q 2525 4250 2034 4250 
z
M 2034 4750 
Q 2819 4750 3233 4129 
Q 3647 3509 3647 2328 
Q 3647 1150 3233 529 
Q 2819 -91 2034 -91 
Q 1250 -91 836 529 
Q 422 1150 422 2328 
Q 422 3509 836 4129 
Q 1250 4750 2034 4750 
z
" transform="scale(0.015625)"/>
       </defs>
       <use xlink:href="#DejaVuSans-35"/>
       <use xlink:href="#DejaVuSans-32" x="63.623047"/>
       <use xlink:href="#DejaVuSans-2e" x="127.246094"/>
       <use xlink:href="#DejaVuSans-35" x="159.033203"/>
       <use xlink:href="#DejaVuSans-34" x="222.65625"/>
       <use xlink:href="#DejaVuSans-30" x="286.279297"/>
      </g>
     </g>
    </g>
    <g id="ytick_2">
     <g id="line2d_9">
      <g>
       <use xlink:href="#m72bb503e4c" x="57.6" y="238.125315" style="stroke: #000000; stroke-width: 0.8"/>
      </g>
     </g>
     <g id="text_9">
      <!-- 52.545 -->
      <g transform="translate(15.609375 241.924534) scale(0.1 -0.1)">
       <use xlink:href="#DejaVuSans-35"/>
       <use xlink:href="#DejaVuSans-32" x="63.623047"/>
       <use xlink:href="#DejaVuSans-2e" x="127.246094"/>
       <use xlink:href="#DejaVuSans-35" x="159.033203"/>
       <use xlink:href="#DejaVuSans-34" x="222.65625"/>
       <use xlink:href="#DejaVuSans-35" x="286.279297"/>
      </g>
     </g>
    </g>
    <g id="ytick_3">
     <g id="line2d_10">
      <g>
       <use xlink:href="#m72bb503e4c" x="57.6" y="198.142252" style="stroke: #000000; stroke-width: 0.8"/>
      </g>
     </g>
     <g id="text_10">
      <!-- 52.550 -->
      <g transform="translate(15.609375 201.94147) scale(0.1 -0.1)">
       <use xlink:href="#DejaVuSans-35"/>
       <use xlink:href="#DejaVuSans-32" x="63.623047"/>
       <use xlink:href="#DejaVuSans-2e" x="127.246094"/>
       <use xlink:href="#DejaVuSans-35" x="159.033203"/>
       <use xlink:href="#DejaVuSans-35" x="222.65625"/>
       <use xlink:href="#DejaVuSans-30" x="286.279297"/>
      </g>
     </g>
    </g>
    <g id="ytick_4">
     <g id="line2d_11">
      <g>
       <use xlink:href="#m72bb503e4c" x="57.6" y="158.159188" style="stroke: #000000; stroke-width: 0.8"/>
      </g>
     </g>
     <g id="text_11">
      <!-- 52.555 -->
      <g transform="translate(15.609375 161.958407) scale(0.1 -0.1)">
       <use xlink:href="#DejaVuSans-35"/>
       <use xlink:href="#DejaVuSans-32" x="63.623047"/>
       <use xlink:href="#DejaVuSans-2e" x="127.246094"/>
       <use xlink:href="#DejaVuSans-35" x="159.033203"/>
       <use xlink:href="#DejaVuSans-35" x="222.65625"/>
       <use xlink:href="#DejaVuSans-35" x="286.279297"/>
      </g>
     </g>
    </g>
    <g id="ytick_5">
     <g id="line2d_12">
      <g>
       <use xlink:href="#m72bb503e4c" x="57.6" y="118.176125" style="stroke: #000000; stroke-width: 0.8"/>
      </g>
     </g>
     <g id="text_12">
      <!-- 52.560 -->
      <g transform="translate(15.609375 121.975343) scale(0.1 -0.1)">
       <use xlink:href="#DejaVuSans-35"/>
       <use xlink:href="#DejaVuSans-32" x="63.623047"/>
       <use xlink:href="#DejaVuSans-2e" x="127.246094"/>
       <use xlink:href="#DejaVuSans-35" x="159.033203"/>
       <use xlink:href="#DejaVuSans-36" x="222.65625"/>
       <use xlink:href="#DejaVuSans-30" x="286.279297"/>
      </g>
     </g>
    </g>
    <g id="ytick_6">
     <g id="line2d_13">
      <g>
       <use xlink:href="#m72bb503e4c" x="57.6" y="78.193061" style="stroke: #000000; stroke-width: 0.8"/>
      </g>
     </g>
     <g id="text_13">
      <!-- 52.565 -->
      <g transform="translate(15.609375 81.99228) scale(0.1 -0.1)">
       <use xlink:href="#DejaVuSans-35"/>
       <use xlink:href="#DejaVuSans-32" x="63.623047"/>
       <use xlink:href="#DejaVuSans-2e" x="127.246094"/>
       <use xlink:href="#DejaVuSans-35" x="159.033203"/>
       <use xlink:href="#DejaVuSans-36" x="222.65625"/>
       <use xlink:href="#DejaVuSans-35" x="286.279297"/>
      </g>
     </g>
    </g>
   </g>
   <g id="patch_3">
    <path d="M 57.6 301.703336 
L 57.6 47.352664 
" style="fill: none; stroke: #000000; stroke-width: 0.8; stroke-linejoin: miter; stroke-linecap: square"/>
   </g>
   <g id="patch_4">
    <path d="M 414.72 301.703336 
L 414.72 47.352664 
" style="fill: none; stroke: #000000; stroke-width: 0.8; stroke-linejoin: miter; stroke-linecap: square"/>
   </g>
   <g id="patch_5">
    <path d="M 57.6 301.703336 
L 414.72 301.703336 
" style="fill: none; stroke: #000000; stroke-width: 0.8; stroke-linejoin: miter; stroke-linecap: square"/>
   </g>
   <g id="patch_6">
    <path d="M 57.6 47.352664 
L 414.72 47.352664 
" style="fill: none; stroke: #000000; stroke-width: 0.8; stroke-linejoin: miter; stroke-linecap: square"/>
   </g>
   <g id="text_14">
    <!-- Südliches_Weißensee -->
    <g transform="translate(172.85823 159.19249) scale(0.12 -0.12)">
     <defs>
      <path id="DejaVuSans-53" d="M 3425 4513 
L 3425 3897 
Q 3066 4069 2747 4153 
Q 2428 4238 2131 4238 
Q 1616 4238 1336 4038 
Q 1056 3838 1056 3469 
Q 1056 3159 1242 3001 
Q 1428 2844 1947 2747 
L 2328 2669 
Q 3034 2534 3370 2195 
Q 3706 1856 3706 1288 
Q 3706 609 3251 259 
Q 2797 -91 1919 -91 
Q 1588 -91 1214 -16 
Q 841 59 441 206 
L 441 856 
Q 825 641 1194 531 
Q 1563 422 1919 422 
Q 2459 422 2753 634 
Q 3047 847 3047 1241 
Q 3047 1584 2836 1778 
Q 2625 1972 2144 2069 
L 1759 2144 
Q 1053 2284 737 2584 
Q 422 2884 422 3419 
Q 422 4038 858 4394 
Q 1294 4750 2059 4750 
Q 2388 4750 2728 4690 
Q 3069 4631 3425 4513 
z
" transform="scale(0.015625)"/>
      <path id="DejaVuSans-fc" d="M 544 1381 
L 544 3500 
L 1119 3500 
L 1119 1403 
Q 1119 906 1312 657 
Q 1506 409 1894 409 
Q 2359 409 2629 706 
Q 2900 1003 2900 1516 
L 2900 3500 
L 3475 3500 
L 3475 0 
L 2900 0 
L 2900 538 
Q 2691 219 2414 64 
Q 2138 -91 1772 -91 
Q 1169 -91 856 284 
Q 544 659 544 1381 
z
M 1991 3584 
L 1991 3584 
z
M 2278 4850 
L 2913 4850 
L 2913 4219 
L 2278 4219 
L 2278 4850 
z
M 1056 4850 
L 1691 4850 
L 1691 4219 
L 1056 4219 
L 1056 4850 
z
" transform="scale(0.015625)"/>
      <path id="DejaVuSans-64" d="M 2906 2969 
L 2906 4863 
L 3481 4863 
L 3481 0 
L 2906 0 
L 2906 525 
Q 2725 213 2448 61 
Q 2172 -91 1784 -91 
Q 1150 -91 751 415 
Q 353 922 353 1747 
Q 353 2572 751 3078 
Q 1150 3584 1784 3584 
Q 2172 3584 2448 3432 
Q 2725 3281 2906 2969 
z
M 947 1747 
Q 947 1113 1208 752 
Q 1469 391 1925 391 
Q 2381 391 2643 752 
Q 2906 1113 2906 1747 
Q 2906 2381 2643 2742 
Q 2381 3103 1925 3103 
Q 1469 3103 1208 2742 
Q 947 2381 947 1747 
z
" transform="scale(0.015625)"/>
      <path id="DejaVuSans-6c" d="M 603 4863 
L 1178 4863 
L 1178 0 
L 603 0 
L 603 4863 
z
" transform="scale(0.015625)"/>
      <path id="DejaVuSans-69" d="M 603 3500 
L 1178 3500 
L 1178 0 
L 603 0 
L 603 3500 
z
M 603 4863 
L 1178 4863 
L 1178 4134 
L 603 4134 
L 603 4863 
z
" transform="scale(0.015625)"/>
      <path id="DejaVuSans-63" d="M 3122 3366 
L 3122 2828 
Q 2878 2963 2633 3030 
Q 2388 3097 2138 3097 
Q 1578 3097 1268 2742 
Q 959 2388 959 1747 
Q 959 1106 1268 751 
Q 1578 397 2138 397 
Q 2388 397 2633 464 
Q 2878 531 3122 666 
L 3122 134 
Q 2881 22 2623 -34 
Q 2366 -91 2075 -91 
Q 1284 -91 818 406 
Q 353 903 353 1747 
Q 353 2603 823 3093 
Q 1294 3584 2113 3584 
Q 2378 3584 2631 3529 
Q 2884 3475 3122 3366 
z
" transform="scale(0.015625)"/>
      <path id="DejaVuSans-68" d="M 3513 2113 
L 3513 0 
L 2938 0 
L 2938 2094 
Q 2938 2591 2744 2837 
Q 2550 3084 2163 3084 
Q 1697 3084 1428 2787 
Q 1159 2491 1159 1978 
L 1159 0 
L 581 0 
L 581 4863 
L 1159 4863 
L 1159 2956 
Q 1366 3272 1645 3428 
Q 1925 3584 2291 3584 
Q 2894 3584 3203 3211 
Q 3513 2838 3513 2113 
z
" transform="scale(0.015625)"/>
      <path id="DejaVuSans-65" d="M 3597 1894 
L 3597 1613 
L 953 1613 
Q 991 1019 1311 708 
Q 1631 397 2203 397 
Q 2534 397 2845 478 
Q 3156 559 3463 722 
L 3463 178 
Q 3153 47 2828 -22 
Q 2503 -91 2169 -91 
Q 1331 -91 842 396 
Q 353 884 353 1716 
Q 353 2575 817 3079 
Q 1281 3584 2069 3584 
Q 2775 3584 3186 3129 
Q 3597 2675 3597 1894 
z
M 3022 2063 
Q 3016 2534 2758 2815 
Q 2500 3097 2075 3097 
Q 1594 3097 1305 2825 
Q 1016 2553 972 2059 
L 3022 2063 
z
" transform="scale(0.015625)"/>
      <path id="DejaVuSans-73" d="M 2834 3397 
L 2834 2853 
Q 2591 2978 2328 3040 
Q 2066 3103 1784 3103 
Q 1356 3103 1142 2972 
Q 928 2841 928 2578 
Q 928 2378 1081 2264 
Q 1234 2150 1697 2047 
L 1894 2003 
Q 2506 1872 2764 1633 
Q 3022 1394 3022 966 
Q 3022 478 2636 193 
Q 2250 -91 1575 -91 
Q 1294 -91 989 -36 
Q 684 19 347 128 
L 347 722 
Q 666 556 975 473 
Q 1284 391 1588 391 
Q 1994 391 2212 530 
Q 2431 669 2431 922 
Q 2431 1156 2273 1281 
Q 2116 1406 1581 1522 
L 1381 1569 
Q 847 1681 609 1914 
Q 372 2147 372 2553 
Q 372 3047 722 3315 
Q 1072 3584 1716 3584 
Q 2034 3584 2315 3537 
Q 2597 3491 2834 3397 
z
" transform="scale(0.015625)"/>
      <path id="DejaVuSans-5f" d="M 3263 -1063 
L 3263 -1509 
L -63 -1509 
L -63 -1063 
L 3263 -1063 
z
" transform="scale(0.015625)"/>
      <path id="DejaVuSans-57" d="M 213 4666 
L 850 4666 
L 1831 722 
L 2809 4666 
L 3519 4666 
L 4500 722 
L 5478 4666 
L 6119 4666 
L 4947 0 
L 4153 0 
L 3169 4050 
L 2175 0 
L 1381 0 
L 213 4666 
z
" transform="scale(0.015625)"/>
      <path id="DejaVuSans-df" d="M 581 3553 
Q 581 4178 954 4520 
Q 1328 4863 2009 4863 
Q 2659 4863 3001 4500 
Q 3344 4138 3353 3438 
Q 2881 3413 2618 3233 
Q 2356 3053 2356 2753 
Q 2356 2606 2447 2479 
Q 2538 2353 2741 2222 
L 2919 2106 
Q 3438 1775 3588 1553 
Q 3738 1331 3738 1019 
Q 3738 481 3386 195 
Q 3034 -91 2375 -91 
Q 2175 -91 1962 -52 
Q 1750 -13 1522 63 
L 1522 575 
Q 1772 481 1990 436 
Q 2209 391 2413 391 
Q 2775 391 2962 539 
Q 3150 688 3150 972 
Q 3150 1169 3058 1300 
Q 2966 1431 2650 1625 
L 2363 1797 
Q 2063 1981 1927 2192 
Q 1791 2403 1791 2688 
Q 1791 3084 2052 3353 
Q 2313 3622 2784 3713 
Q 2759 4034 2554 4209 
Q 2350 4384 1997 4384 
Q 1591 4384 1378 4167 
Q 1166 3950 1166 3541 
L 1166 0 
L 581 0 
L 581 3553 
z
" transform="scale(0.015625)"/>
      <path id="DejaVuSans-6e" d="M 3513 2113 
L 3513 0 
L 2938 0 
L 2938 2094 
Q 2938 2591 2744 2837 
Q 2550 3084 2163 3084 
Q 1697 3084 1428 2787 
Q 1159 2491 1159 1978 
L 1159 0 
L 581 0 
L 581 3500 
L 1159 3500 
L 1159 2956 
Q 1366 3272 1645 3428 
Q 1925 3584 2291 3584 
Q 2894 3584 3203 3211 
Q 3513 2838 3513 2113 
z
" transform="scale(0.015625)"/>
     </defs>
     <use xlink:href="#DejaVuSans-53"/>
     <use xlink:href="#DejaVuSans-fc" x="63.476562"/>
     <use xlink:href="#DejaVuSans-64" x="126.855469"/>
     <use xlink:href="#DejaVuSans-6c" x="190.332031"/>
     <use xlink:href="#DejaVuSans-69" x="218.115234"/>
     <use xlink:href="#DejaVuSans-63" x="245.898438"/>
     <use xlink:href="#DejaVuSans-68" x="300.878906"/>
     <use xlink:href="#DejaVuSans-65" x="364.257812"/>
     <use xlink:href="#DejaVuSans-73" x="425.78125"/>
     <use xlink:href="#DejaVuSans-5f" x="477.880859"/>
     <use xlink:href="#DejaVuSans-57" x="527.880859"/>
     <use xlink:href="#DejaVuSans-65" x="620.882812"/>
     <use xlink:href="#DejaVuSans-69" x="682.40625"/>
     <use xlink:href="#DejaVuSans-df" x="710.189453"/>
     <use xlink:href="#DejaVuSans-65" x="773.177734"/>
     <use xlink:href="#DejaVuSans-6e" x="834.701172"/>
     <use xlink:href="#DejaVuSans-73" x="898.080078"/>
     <use xlink:href="#DejaVuSans-65" x="950.179688"/>
     <use xlink:href="#DejaVuSans-65" x="1011.703125"/>
    </g>
   </g>
  </g>
 </g>
 <defs>
  <clipPath id="p2391dca9cf">
   <rect x="57.6" y="47.352664" width="357.12" height="254.350673"/>
  </clipPath>
 </defs>
</svg>
