<?xml version="1.0" encoding="utf-8" standalone="no"?>
<!DOCTYPE svg PUBLIC "-//W3C//DTD SVG 1.1//EN"
  "http://www.w3.org/Graphics/SVG/1.1/DTD/svg11.dtd">
<svg xmlns:xlink="http://www.w3.org/1999/xlink" width="460.8pt" height="345.6pt" viewBox="0 0 460.8 345.6" xmlns="http://www.w3.org/2000/svg" version="1.1">
 <metadata>
  <rdf:RDF xmlns:dc="http://purl.org/dc/elements/1.1/" xmlns:cc="http://creativecommons.org/ns#" xmlns:rdf="http://www.w3.org/1999/02/22-rdf-syntax-ns#">
   <cc:Work>
    <dc:type rdf:resource="http://purl.org/dc/dcmitype/StillImage"/>
    <dc:date>2024-10-15T09:53:25.429229</dc:date>
    <dc:format>image/svg+xml</dc:format>
    <dc:creator>
     <cc:Agent>
      <dc:title>Matplotlib v3.8.4, https://matplotlib.org/</dc:title>
     </cc:Agent>
    </dc:creator>
   </cc:Work>
  </rdf:RDF>
 </metadata>
 <defs>
  <style type="text/css">*{stroke-linejoin: round; stroke-linecap: butt}</style>
 </defs>
 <g id="figure_1">
  <g id="patch_1">
   <path d="M 0 345.6 
L 460.8 345.6 
L 460.8 0 
L 0 0 
z
" style="fill: #ffffff"/>
  </g>
  <g id="axes_1">
   <g id="patch_2">
    <path d="M 70.804041 307.584 
L 401.515959 307.584 
L 401.515959 41.472 
L 70.804041 41.472 
z
" style="fill: #ffffff"/>
   </g>
   <g id="PatchCollection_1">
    <path d="M 208.682745 295.488 
L 211.902866 292.26244 
L 212.36508 291.799349 
L 222.345216 281.802611 
L 226.328834 277.812832 
L 230.82383 273.310623 
L 232.355772 271.776216 
L 238.674385 265.447766 
L 239.380813 264.740158 
L 240.700711 264.939245 
L 240.845019 264.961054 
L 242.245132 265.172507 
L 245.796829 264.946809 
L 245.909446 264.769093 
L 246.26988 264.915103 
L 247.446823 264.833923 
L 248.950972 265.221983 
L 249.714976 263.699878 
L 250.312091 262.401482 
L 252.364664 262.00724 
L 252.651136 261.952318 
L 298.926584 253.065756 
L 336.625002 245.846068 
L 343.355093 244.557366 
L 345.660463 244.115735 
L 348.626551 243.547528 
L 351.146398 247.283135 
L 355.011331 253.012541 
L 355.170622 253.248743 
L 358.625063 253.542514 
L 361.377427 250.658508 
L 361.654648 250.368151 
L 364.738323 247.13721 
L 370.592946 241.003955 
L 370.935853 240.645323 
L 371.304247 240.25977 
L 376.729157 234.582068 
L 377.167099 234.123839 
L 377.990054 233.262317 
L 386.483599 224.372855 
L 384.791963 223.006873 
L 379.120859 214.411431 
L 376.677446 211.250787 
L 375.172132 210.060366 
L 364.49612 201.618413 
L 363.666236 200.962003 
L 358.447864 196.835765 
L 357.965849 196.460364 
L 356.953879 195.672333 
L 356.408056 195.247095 
L 355.666997 194.662744 
L 353.09607 192.635462 
L 352.570373 192.220876 
L 350.540393 190.619996 
L 350.025467 190.213929 
L 347.493807 188.217557 
L 346.714131 187.602786 
L 346.168905 187.168211 
L 345.738347 186.825088 
L 345.178049 186.378575 
L 344.659467 185.965242 
L 343.076515 184.716035 
L 342.840771 184.530035 
L 341.516055 183.484662 
L 339.75832 182.097496 
L 339.295113 181.731853 
L 339.104598 181.58151 
L 337.955818 180.674905 
L 336.865053 179.814063 
L 336.653582 179.647373 
L 336.192859 179.283779 
L 336.163965 179.260838 
L 336.016074 179.144106 
L 335.942424 179.085967 
L 335.910095 179.0603 
L 335.695063 178.890421 
L 335.502053 178.737799 
L 335.139953 178.451638 
L 334.949549 178.301176 
L 334.725279 178.123915 
L 334.678271 178.086782 
L 334.452695 177.908382 
L 333.334186 177.024464 
L 333.140347 176.871278 
L 332.684935 176.511305 
L 332.215908 176.14066 
L 332.02065 175.986455 
L 330.920723 175.117189 
L 329.834054 174.258372 
L 329.614517 174.08486 
L 329.156615 173.72296 
L 328.695989 173.358903 
L 328.495992 173.200952 
L 327.392026 172.328397 
L 326.305227 171.469473 
L 326.085218 171.295739 
L 325.628142 170.934524 
L 325.153777 170.559684 
L 324.937788 170.388897 
L 323.864362 169.540538 
L 322.754345 168.66334 
L 322.534093 168.489262 
L 322.057355 168.112493 
L 321.609036 167.758209 
L 321.423124 167.611271 
L 320.298654 166.722724 
L 319.212072 165.864042 
L 318.990635 165.689058 
L 318.549062 165.340113 
L 318.130815 165.009563 
L 317.916365 164.840145 
L 316.778382 163.940815 
L 314.19784 161.901665 
L 314.057157 161.790383 
L 312.346023 160.76609 
L 310.662002 159.757896 
L 309.137523 158.845294 
L 310.602998 156.787266 
L 310.852737 156.436344 
L 311.2709 155.849216 
L 311.561416 155.440934 
L 312.308396 154.392069 
L 312.958342 153.479148 
L 313.168858 153.18182 
L 316.981015 147.793838 
L 318.184592 146.092848 
L 322.449516 140.065574 
L 323.78394 138.179656 
L 327.910137 132.34827 
L 330.404847 128.822859 
L 331.092684 127.850913 
L 337.938858 118.176421 
L 338.214002 117.787622 
L 338.52224 117.352017 
L 339.488184 115.987019 
L 339.862049 115.458747 
L 340.722878 114.242264 
L 342.453587 111.796525 
L 342.272694 111.564646 
L 343.50266 109.833619 
L 346.70791 105.292806 
L 342.983816 103.104267 
L 341.696222 102.347332 
L 337.318379 99.777021 
L 337.055808 99.622526 
L 336.982708 99.579543 
L 336.681018 99.403146 
L 336.345325 99.204618 
L 334.560553 98.157005 
L 334.145316 97.913653 
L 330.664718 95.873918 
L 330.082039 95.531415 
L 327.485792 94.010597 
L 326.630375 93.453038 
L 320.291338 89.330044 
L 317.381075 86.566946 
L 317.375334 86.145979 
L 314.062348 82.934982 
L 312.344687 81.932065 
L 308.932769 79.970308 
L 308.533026 79.739355 
L 300.982664 75.254762 
L 298.231344 73.273205 
L 293.849311 70.117231 
L 289.886922 68.206092 
L 286.802731 66.162063 
L 286.216423 65.773012 
L 278.486251 61.618054 
L 270.745425 57.465532 
L 269.07895 56.516233 
L 267.997492 55.90116 
L 265.185243 54.222577 
L 264.08045 53.568 
L 262.825379 57.093326 
L 262.026105 59.346584 
L 260.827485 62.699165 
L 259.58049 66.187219 
L 259.489306 66.442404 
L 259.267425 67.062849 
L 258.904023 68.079506 
L 258.641526 68.813873 
L 258.401103 69.486179 
L 257.378094 72.347796 
L 256.342036 75.245871 
L 256.035132 76.104567 
L 255.816989 76.714548 
L 255.54113 77.48599 
L 254.328992 80.877268 
L 253.148997 84.177654 
L 253.110375 84.285726 
L 252.824874 85.08445 
L 252.616509 85.667382 
L 252.328705 86.472574 
L 252.283166 86.599816 
L 251.119991 89.853634 
L 249.86324 93.369461 
L 249.020572 95.784938 
L 248.957418 95.963788 
L 247.733985 99.43152 
L 247.418663 100.324825 
L 247.321862 100.599504 
L 246.771492 102.159404 
L 246.454208 103.058703 
L 246.367274 103.305397 
L 245.813723 104.874001 
L 245.575055 105.550709 
L 245.481206 105.816573 
L 245.034781 107.082036 
L 244.984017 107.225728 
L 244.884694 107.507464 
L 244.315044 109.12216 
L 243.759322 110.697464 
L 243.661636 110.974147 
L 243.452893 111.565609 
L 242.905839 113.116455 
L 242.356476 114.67342 
L 242.226676 115.041465 
L 241.307394 117.570527 
L 241.171663 117.944069 
L 240.484761 119.833898 
L 240.258971 120.45467 
L 240.0663 120.405216 
L 237.690089 119.794749 
L 236.275129 119.431248 
L 234.159594 118.887894 
L 233.965516 118.838006 
L 233.382344 118.698749 
L 230.505443 117.969068 
L 229.692164 117.761233 
L 228.368768 117.422931 
L 226.816766 117.02617 
L 226.668809 116.988225 
L 226.442081 116.930422 
L 224.372934 116.401372 
L 224.227205 116.364196 
L 218.907268 114.999851 
L 214.216434 113.805287 
L 212.998396 113.495162 
L 212.728006 113.426305 
L 212.12788 113.27344 
L 209.936201 112.715395 
L 209.638537 112.639553 
L 209.518092 112.608943 
L 209.413447 112.582304 
L 209.179927 112.52279 
L 207.602181 112.121045 
L 206.07933 111.733268 
L 205.831063 111.670112 
L 205.725131 111.643151 
L 205.65443 111.625102 
L 205.375026 111.553995 
L 203.900865 111.178573 
L 202.361505 110.786618 
L 202.104925 110.721312 
L 201.997703 110.693914 
L 200.063755 110.201537 
L 198.470663 109.795954 
L 197.757817 109.614456 
L 196.666548 109.33661 
L 196.311147 109.246122 
L 196.064165 109.183292 
L 195.199199 108.976408 
L 193.92867 108.672845 
L 193.127362 108.481368 
L 192.920291 108.428513 
L 190.904246 107.914052 
L 189.285719 107.501003 
L 188.317551 107.253928 
L 188.040829 107.183238 
L 187.343997 107.005456 
L 185.689177 106.583182 
L 182.629212 105.802345 
L 182.421552 105.749273 
L 182.005661 105.64361 
L 180.697938 105.311375 
L 180.251377 105.19787 
L 180.125425 105.165754 
L 177.67048 104.5379 
L 177.128033 104.399205 
L 176.884899 104.336882 
L 175.530887 103.990742 
L 174.264196 103.666836 
L 173.979276 103.593999 
L 173.36214 103.436066 
L 172.015967 103.091979 
L 171.751881 103.024402 
L 169.363994 102.413776 
L 166.326188 100.845776 
L 163.968765 99.629056 
L 163.802617 99.584762 
L 161.63262 99.006239 
L 160.141498 98.608668 
L 158.837481 98.260999 
L 158.605531 98.199254 
L 156.793931 97.716228 
L 155.462393 97.361123 
L 155.187235 97.287847 
L 155.116865 97.269096 
L 151.934613 96.420763 
L 148.018127 96.140142 
L 145.885572 95.987353 
L 145.547636 95.939036 
L 142.938143 95.5656 
L 140.823408 95.262932 
L 138.774183 94.969793 
L 137.439479 94.778733 
L 137.169268 94.740011 
L 135.871348 94.554327 
L 134.654469 94.380274 
L 134.393598 94.342863 
L 133.834143 94.262807 
L 132.849406 94.12202 
L 132.558175 94.080263 
L 131.734348 93.96241 
L 124.133749 92.87498 
L 123.030483 92.717226 
L 122.715078 92.672042 
L 121.18886 92.45375 
L 120.491607 92.353884 
L 119.490048 92.210691 
L 118.648699 92.090327 
L 118.261035 92.210443 
L 117.825855 92.345378 
L 117.494846 92.448023 
L 117.030185 92.592127 
L 112.561164 93.977811 
L 110.867974 94.502865 
L 110.20746 94.707548 
L 107.843128 95.44068 
L 107.529925 95.537686 
L 102.72613 97.027232 
L 102.37258 97.136802 
L 102.289225 97.1628 
L 100.745655 97.641285 
L 100.533621 97.70712 
L 100.422401 97.741669 
L 100.298228 97.780005 
L 100.057522 97.854758 
L 98.536732 98.326211 
L 97.961668 98.504513 
L 97.703967 98.584544 
L 96.483895 98.962884 
L 92.644256 100.153467 
L 92.396033 100.230374 
L 85.836401 102.702664 
L 89.892131 105.473972 
L 90.613224 107.959001 
L 90.873626 108.856791 
L 90.953246 109.131322 
L 91.19865 109.977173 
L 91.273866 110.23675 
L 91.479705 110.945913 
L 91.549242 111.185547 
L 91.801069 112.053541 
L 92.072304 112.988778 
L 92.15091 113.259598 
L 92.403233 114.129098 
L 92.768699 115.389299 
L 92.874251 115.752515 
L 93.019509 116.253582 
L 93.194114 116.855627 
L 93.283299 117.162849 
L 93.629218 118.354993 
L 93.646536 118.411899 
L 94.194318 120.212485 
L 95.030479 122.960998 
L 95.043918 123.005622 
L 94.61223 123.149831 
L 95.090087 124.63005 
L 95.502582 124.512869 
L 95.566334 124.722529 
L 96.31941 127.198106 
L 95.867932 127.342053 
L 98.650059 136.663274 
L 99.211665 136.499272 
L 99.36657 137.005495 
L 99.63737 137.890457 
L 99.720532 138.162344 
L 100.279053 139.9872 
L 100.370491 140.28609 
L 100.660602 141.234099 
L 100.812856 141.731046 
L 101.035235 142.457698 
L 101.24946 143.157695 
L 101.350672 143.482855 
L 101.507251 143.986007 
L 101.987519 145.529768 
L 102.136466 146.008821 
L 102.679223 147.75282 
L 102.785825 148.095596 
L 103.287628 149.708422 
L 103.310546 149.781889 
L 103.430544 150.167423 
L 103.799952 151.355203 
L 103.933229 151.783497 
L 104.06174 152.196262 
L 104.316018 153.013452 
L 104.429508 153.378362 
L 104.554269 153.779425 
L 104.67565 154.169713 
L 104.78801 154.530913 
L 105.580022 157.076349 
L 105.740229 157.591323 
L 106.023937 158.503073 
L 106.29363 159.529011 
L 106.741331 161.228532 
L 106.767375 161.327397 
L 106.896915 161.818781 
L 107.361008 163.580744 
L 107.825673 164.951238 
L 108.420791 166.706802 
L 108.918073 168.174002 
L 108.956532 168.287263 
L 109.034208 168.516568 
L 109.410493 169.626608 
L 109.439375 169.711961 
L 109.514546 169.933271 
L 110.081155 171.604992 
L 110.277071 172.182768 
L 110.364211 172.440217 
L 110.562863 173.025983 
L 110.740732 173.550603 
L 110.864331 173.915173 
L 111.534373 175.892289 
L 111.849526 176.821665 
L 112.236008 177.073542 
L 112.477722 177.231079 
L 112.815789 177.451357 
L 113.341607 177.79408 
L 114.354981 178.454469 
L 116.820862 180.061324 
L 118.667378 181.25834 
L 118.034884 182.319369 
L 117.333916 183.49527 
L 114.371188 188.535857 
L 114.179238 188.862369 
L 113.405605 190.178349 
L 113.358381 190.258968 
L 113.22645 190.483343 
L 112.590025 191.565965 
L 111.956074 192.644566 
L 111.82235 192.872015 
L 111.775902 192.950867 
L 110.779158 194.646909 
L 110.66417 194.842556 
L 109.589317 196.696211 
L 109.393656 197.033659 
L 109.249906 197.281398 
L 108.189177 199.110124 
L 108.005849 199.42618 
L 107.483558 200.326481 
L 107.302361 200.638873 
L 106.41542 202.167042 
L 105.549231 203.659633 
L 104.652091 205.205183 
L 104.373902 205.684473 
L 104.243276 205.909638 
L 103.600674 207.016793 
L 103.480138 207.224466 
L 103.019478 210.621151 
L 102.977945 210.859628 
L 102.864301 211.512278 
L 102.465844 213.801588 
L 102.30944 214.700327 
L 102.259857 214.985421 
L 102.100049 215.903954 
L 101.793129 217.667466 
L 101.750159 217.91461 
L 101.736934 217.990511 
L 101.721844 218.076837 
L 101.66762 218.388987 
L 101.381368 220.033962 
L 101.22723 220.919234 
L 101.187559 221.147053 
L 101.176611 221.210068 
L 100.928379 222.636713 
L 100.890262 222.855863 
L 100.825738 223.249799 
L 100.526991 225.072287 
L 100.480815 225.311218 
L 100.047425 227.551248 
L 100.267871 228.218086 
L 100.470748 228.832342 
L 100.800303 229.82965 
L 100.618224 230.254659 
L 99.552677 232.742861 
L 99.456816 233.071918 
L 99.294856 233.628213 
L 98.561636 236.145695 
L 96.919739 241.783463 
L 96.848011 242.029844 
L 97.106064 242.100786 
L 99.331959 242.713292 
L 100.452222 243.026853 
L 101.175063 243.229387 
L 101.263937 243.254139 
L 101.576002 243.341622 
L 103.012895 243.743972 
L 103.893306 243.983509 
L 104.163399 244.056988 
L 105.055986 244.299874 
L 105.053182 244.30997 
L 105.897121 244.54215 
L 106.160677 244.614725 
L 106.985534 244.841844 
L 106.990427 244.826218 
L 108.898521 245.345334 
L 109.647336 245.54917 
L 109.844979 245.603837 
L 111.285268 246.002398 
L 111.475802 246.056639 
L 111.998921 246.205499 
L 113.466505 246.622948 
L 115.949193 247.303929 
L 117.149831 247.637681 
L 117.398996 247.706846 
L 119.019383 248.325934 
L 120.43536 248.857837 
L 121.776586 249.361642 
L 123.818927 250.1287 
L 123.905409 250.161209 
L 124.242651 250.287936 
L 124.416199 250.353057 
L 125.591496 250.794499 
L 125.93249 250.922544 
L 126.20883 251.026349 
L 126.933297 251.29842 
L 129.438201 252.128785 
L 129.998311 252.314532 
L 130.204862 252.382893 
L 130.824525 252.588444 
L 131.444298 252.79376 
L 131.650853 252.862355 
L 132.417629 253.116463 
L 133.997741 253.519345 
L 138.021384 254.545133 
L 138.081655 254.560604 
L 138.199265 254.590444 
L 138.50857 254.669374 
L 140.134897 255.08397 
L 141.426761 255.413427 
L 141.781354 255.503844 
L 142.06339 255.575794 
L 142.945258 255.962841 
L 143.009576 255.993042 
L 143.40631 256.179607 
L 143.872656 256.39894 
L 144.129929 256.519742 
L 144.535364 256.710433 
L 144.943151 256.90224 
L 145.054386 256.954508 
L 145.678876 257.247944 
L 146.382622 257.578837 
L 146.981129 257.860246 
L 148.938852 258.767408 
L 149.302796 258.934165 
L 153.811993 261.000048 
L 154.492735 261.311855 
L 155.779693 261.901529 
L 156.046535 262.02376 
L 156.133291 262.063618 
L 156.203115 262.095566 
L 156.453499 262.210225 
L 157.302929 262.599526 
L 157.873168 262.860685 
L 157.984737 262.912364 
L 158.342845 263.078556 
L 158.424553 263.116426 
L 159.396821 263.567312 
L 159.976421 263.836201 
L 164.719822 266.036205 
L 165.131416 266.227125 
L 165.774495 266.525425 
L 166.38007 266.806349 
L 166.833748 267.016645 
L 170.071815 268.518627 
L 172.300112 269.552108 
L 172.839611 269.802408 
L 174.569431 270.604647 
L 178.696591 274.210194 
L 178.697919 274.211354 
L 180.205881 275.52859 
L 180.81886 275.829552 
L 181.65475 276.239955 
L 181.856959 276.339234 
L 182.927489 277.113299 
L 184.464342 278.224345 
L 184.640115 278.099366 
L 186.197129 279.259912 
L 186.081112 279.42488 
L 189.23034 281.722923 
L 194.554329 285.608202 
L 196.812894 287.254377 
L 206.59532 294.039759 
L 208.682745 295.488 
" clip-path="url(#pdbcc58f72f)" style="fill: #1f77b4"/>
   </g>
   <g id="matplotlib.axis_1">
    <g id="xtick_1">
     <g id="line2d_1">
      <defs>
       <path id="m871f55ed01" d="M 0 0 
L 0 3.5 
" style="stroke: #000000; stroke-width: 0.8"/>
      </defs>
      <g>
       <use xlink:href="#m871f55ed01" x="92.224332" y="307.584" style="stroke: #000000; stroke-width: 0.8"/>
      </g>
     </g>
     <g id="text_1">
      <!-- 13.405 -->
      <g transform="translate(74.72902 322.182437) scale(0.1 -0.1)">
       <defs>
        <path id="DejaVuSans-31" d="M 794 531 
L 1825 531 
L 1825 4091 
L 703 3866 
L 703 4441 
L 1819 4666 
L 2450 4666 
L 2450 531 
L 3481 531 
L 3481 0 
L 794 0 
L 794 531 
z
" transform="scale(0.015625)"/>
        <path id="DejaVuSans-33" d="M 2597 2516 
Q 3050 2419 3304 2112 
Q 3559 1806 3559 1356 
Q 3559 666 3084 287 
Q 2609 -91 1734 -91 
Q 1441 -91 1130 -33 
Q 819 25 488 141 
L 488 750 
Q 750 597 1062 519 
Q 1375 441 1716 441 
Q 2309 441 2620 675 
Q 2931 909 2931 1356 
Q 2931 1769 2642 2001 
Q 2353 2234 1838 2234 
L 1294 2234 
L 1294 2753 
L 1863 2753 
Q 2328 2753 2575 2939 
Q 2822 3125 2822 3475 
Q 2822 3834 2567 4026 
Q 2313 4219 1838 4219 
Q 1578 4219 1281 4162 
Q 984 4106 628 3988 
L 628 4550 
Q 988 4650 1302 4700 
Q 1616 4750 1894 4750 
Q 2613 4750 3031 4423 
Q 3450 4097 3450 3541 
Q 3450 3153 3228 2886 
Q 3006 2619 2597 2516 
z
" transform="scale(0.015625)"/>
        <path id="DejaVuSans-2e" d="M 684 794 
L 1344 794 
L 1344 0 
L 684 0 
L 684 794 
z
" transform="scale(0.015625)"/>
        <path id="DejaVuSans-34" d="M 2419 4116 
L 825 1625 
L 2419 1625 
L 2419 4116 
z
M 2253 4666 
L 3047 4666 
L 3047 1625 
L 3713 1625 
L 3713 1100 
L 3047 1100 
L 3047 0 
L 2419 0 
L 2419 1100 
L 313 1100 
L 313 1709 
L 2253 4666 
z
" transform="scale(0.015625)"/>
        <path id="DejaVuSans-30" d="M 2034 4250 
Q 1547 4250 1301 3770 
Q 1056 3291 1056 2328 
Q 1056 1369 1301 889 
Q 1547 409 2034 409 
Q 2525 409 2770 889 
Q 3016 1369 3016 2328 
Q 3016 3291 2770 3770 
Q 2525 4250 2034 4250 
z
M 2034 4750 
Q 2819 4750 3233 4129 
Q 3647 3509 3647 2328 
Q 3647 1150 3233 529 
Q 2819 -91 2034 -91 
Q 1250 -91 836 529 
Q 422 1150 422 2328 
Q 422 3509 836 4129 
Q 1250 4750 2034 4750 
z
" transform="scale(0.015625)"/>
        <path id="DejaVuSans-35" d="M 691 4666 
L 3169 4666 
L 3169 4134 
L 1269 4134 
L 1269 2991 
Q 1406 3038 1543 3061 
Q 1681 3084 1819 3084 
Q 2600 3084 3056 2656 
Q 3513 2228 3513 1497 
Q 3513 744 3044 326 
Q 2575 -91 1722 -91 
Q 1428 -91 1123 -41 
Q 819 9 494 109 
L 494 744 
Q 775 591 1075 516 
Q 1375 441 1709 441 
Q 2250 441 2565 725 
Q 2881 1009 2881 1497 
Q 2881 1984 2565 2268 
Q 2250 2553 1709 2553 
Q 1456 2553 1204 2497 
Q 953 2441 691 2322 
L 691 4666 
z
" transform="scale(0.015625)"/>
       </defs>
       <use xlink:href="#DejaVuSans-31"/>
       <use xlink:href="#DejaVuSans-33" x="63.623047"/>
       <use xlink:href="#DejaVuSans-2e" x="127.246094"/>
       <use xlink:href="#DejaVuSans-34" x="159.033203"/>
       <use xlink:href="#DejaVuSans-30" x="222.65625"/>
       <use xlink:href="#DejaVuSans-35" x="286.279297"/>
      </g>
     </g>
    </g>
    <g id="xtick_2">
     <g id="line2d_2">
      <g>
       <use xlink:href="#m871f55ed01" x="131.693174" y="307.584" style="stroke: #000000; stroke-width: 0.8"/>
      </g>
     </g>
     <g id="text_2">
      <!-- 13.410 -->
      <g transform="translate(114.197862 322.182437) scale(0.1 -0.1)">
       <use xlink:href="#DejaVuSans-31"/>
       <use xlink:href="#DejaVuSans-33" x="63.623047"/>
       <use xlink:href="#DejaVuSans-2e" x="127.246094"/>
       <use xlink:href="#DejaVuSans-34" x="159.033203"/>
       <use xlink:href="#DejaVuSans-31" x="222.65625"/>
       <use xlink:href="#DejaVuSans-30" x="286.279297"/>
      </g>
     </g>
    </g>
    <g id="xtick_3">
     <g id="line2d_3">
      <g>
       <use xlink:href="#m871f55ed01" x="171.162016" y="307.584" style="stroke: #000000; stroke-width: 0.8"/>
      </g>
     </g>
     <g id="text_3">
      <!-- 13.415 -->
      <g transform="translate(153.666703 322.182437) scale(0.1 -0.1)">
       <use xlink:href="#DejaVuSans-31"/>
       <use xlink:href="#DejaVuSans-33" x="63.623047"/>
       <use xlink:href="#DejaVuSans-2e" x="127.246094"/>
       <use xlink:href="#DejaVuSans-34" x="159.033203"/>
       <use xlink:href="#DejaVuSans-31" x="222.65625"/>
       <use xlink:href="#DejaVuSans-35" x="286.279297"/>
      </g>
     </g>
    </g>
    <g id="xtick_4">
     <g id="line2d_4">
      <g>
       <use xlink:href="#m871f55ed01" x="210.630858" y="307.584" style="stroke: #000000; stroke-width: 0.8"/>
      </g>
     </g>
     <g id="text_4">
      <!-- 13.420 -->
      <g transform="translate(193.135545 322.182437) scale(0.1 -0.1)">
       <defs>
        <path id="DejaVuSans-32" d="M 1228 531 
L 3431 531 
L 3431 0 
L 469 0 
L 469 531 
Q 828 903 1448 1529 
Q 2069 2156 2228 2338 
Q 2531 2678 2651 2914 
Q 2772 3150 2772 3378 
Q 2772 3750 2511 3984 
Q 2250 4219 1831 4219 
Q 1534 4219 1204 4116 
Q 875 4013 500 3803 
L 500 4441 
Q 881 4594 1212 4672 
Q 1544 4750 1819 4750 
Q 2544 4750 2975 4387 
Q 3406 4025 3406 3419 
Q 3406 3131 3298 2873 
Q 3191 2616 2906 2266 
Q 2828 2175 2409 1742 
Q 1991 1309 1228 531 
z
" transform="scale(0.015625)"/>
       </defs>
       <use xlink:href="#DejaVuSans-31"/>
       <use xlink:href="#DejaVuSans-33" x="63.623047"/>
       <use xlink:href="#DejaVuSans-2e" x="127.246094"/>
       <use xlink:href="#DejaVuSans-34" x="159.033203"/>
       <use xlink:href="#DejaVuSans-32" x="222.65625"/>
       <use xlink:href="#DejaVuSans-30" x="286.279297"/>
      </g>
     </g>
    </g>
    <g id="xtick_5">
     <g id="line2d_5">
      <g>
       <use xlink:href="#m871f55ed01" x="250.099699" y="307.584" style="stroke: #000000; stroke-width: 0.8"/>
      </g>
     </g>
     <g id="text_5">
      <!-- 13.425 -->
      <g transform="translate(232.604387 322.182437) scale(0.1 -0.1)">
       <use xlink:href="#DejaVuSans-31"/>
       <use xlink:href="#DejaVuSans-33" x="63.623047"/>
       <use xlink:href="#DejaVuSans-2e" x="127.246094"/>
       <use xlink:href="#DejaVuSans-34" x="159.033203"/>
       <use xlink:href="#DejaVuSans-32" x="222.65625"/>
       <use xlink:href="#DejaVuSans-35" x="286.279297"/>
      </g>
     </g>
    </g>
    <g id="xtick_6">
     <g id="line2d_6">
      <g>
       <use xlink:href="#m871f55ed01" x="289.568541" y="307.584" style="stroke: #000000; stroke-width: 0.8"/>
      </g>
     </g>
     <g id="text_6">
      <!-- 13.430 -->
      <g transform="translate(272.073229 322.182437) scale(0.1 -0.1)">
       <use xlink:href="#DejaVuSans-31"/>
       <use xlink:href="#DejaVuSans-33" x="63.623047"/>
       <use xlink:href="#DejaVuSans-2e" x="127.246094"/>
       <use xlink:href="#DejaVuSans-34" x="159.033203"/>
       <use xlink:href="#DejaVuSans-33" x="222.65625"/>
       <use xlink:href="#DejaVuSans-30" x="286.279297"/>
      </g>
     </g>
    </g>
    <g id="xtick_7">
     <g id="line2d_7">
      <g>
       <use xlink:href="#m871f55ed01" x="329.037383" y="307.584" style="stroke: #000000; stroke-width: 0.8"/>
      </g>
     </g>
     <g id="text_7">
      <!-- 13.435 -->
      <g transform="translate(311.54207 322.182437) scale(0.1 -0.1)">
       <use xlink:href="#DejaVuSans-31"/>
       <use xlink:href="#DejaVuSans-33" x="63.623047"/>
       <use xlink:href="#DejaVuSans-2e" x="127.246094"/>
       <use xlink:href="#DejaVuSans-34" x="159.033203"/>
       <use xlink:href="#DejaVuSans-33" x="222.65625"/>
       <use xlink:href="#DejaVuSans-35" x="286.279297"/>
      </g>
     </g>
    </g>
    <g id="xtick_8">
     <g id="line2d_8">
      <g>
       <use xlink:href="#m871f55ed01" x="368.506225" y="307.584" style="stroke: #000000; stroke-width: 0.8"/>
      </g>
     </g>
     <g id="text_8">
      <!-- 13.440 -->
      <g transform="translate(351.010912 322.182437) scale(0.1 -0.1)">
       <use xlink:href="#DejaVuSans-31"/>
       <use xlink:href="#DejaVuSans-33" x="63.623047"/>
       <use xlink:href="#DejaVuSans-2e" x="127.246094"/>
       <use xlink:href="#DejaVuSans-34" x="159.033203"/>
       <use xlink:href="#DejaVuSans-34" x="222.65625"/>
       <use xlink:href="#DejaVuSans-30" x="286.279297"/>
      </g>
     </g>
    </g>
   </g>
   <g id="matplotlib.axis_2">
    <g id="ytick_1">
     <g id="line2d_9">
      <defs>
       <path id="md7e9b4fc1b" d="M 0 0 
L -3.5 0 
" style="stroke: #000000; stroke-width: 0.8"/>
      </defs>
      <g>
       <use xlink:href="#md7e9b4fc1b" x="70.804041" y="302.568341" style="stroke: #000000; stroke-width: 0.8"/>
      </g>
     </g>
     <g id="text_9">
      <!-- 52.5250 -->
      <g transform="translate(22.450916 306.36756) scale(0.1 -0.1)">
       <use xlink:href="#DejaVuSans-35"/>
       <use xlink:href="#DejaVuSans-32" x="63.623047"/>
       <use xlink:href="#DejaVuSans-2e" x="127.246094"/>
       <use xlink:href="#DejaVuSans-35" x="159.033203"/>
       <use xlink:href="#DejaVuSans-32" x="222.65625"/>
       <use xlink:href="#DejaVuSans-35" x="286.279297"/>
       <use xlink:href="#DejaVuSans-30" x="349.902344"/>
      </g>
     </g>
    </g>
    <g id="ytick_2">
     <g id="line2d_10">
      <g>
       <use xlink:href="#md7e9b4fc1b" x="70.804041" y="270.125275" style="stroke: #000000; stroke-width: 0.8"/>
      </g>
     </g>
     <g id="text_10">
      <!-- 52.5275 -->
      <g transform="translate(22.450916 273.924493) scale(0.1 -0.1)">
       <defs>
        <path id="DejaVuSans-37" d="M 525 4666 
L 3525 4666 
L 3525 4397 
L 1831 0 
L 1172 0 
L 2766 4134 
L 525 4134 
L 525 4666 
z
" transform="scale(0.015625)"/>
       </defs>
       <use xlink:href="#DejaVuSans-35"/>
       <use xlink:href="#DejaVuSans-32" x="63.623047"/>
       <use xlink:href="#DejaVuSans-2e" x="127.246094"/>
       <use xlink:href="#DejaVuSans-35" x="159.033203"/>
       <use xlink:href="#DejaVuSans-32" x="222.65625"/>
       <use xlink:href="#DejaVuSans-37" x="286.279297"/>
       <use xlink:href="#DejaVuSans-35" x="349.902344"/>
      </g>
     </g>
    </g>
    <g id="ytick_3">
     <g id="line2d_11">
      <g>
       <use xlink:href="#md7e9b4fc1b" x="70.804041" y="237.682208" style="stroke: #000000; stroke-width: 0.8"/>
      </g>
     </g>
     <g id="text_11">
      <!-- 52.5300 -->
      <g transform="translate(22.450916 241.481427) scale(0.1 -0.1)">
       <use xlink:href="#DejaVuSans-35"/>
       <use xlink:href="#DejaVuSans-32" x="63.623047"/>
       <use xlink:href="#DejaVuSans-2e" x="127.246094"/>
       <use xlink:href="#DejaVuSans-35" x="159.033203"/>
       <use xlink:href="#DejaVuSans-33" x="222.65625"/>
       <use xlink:href="#DejaVuSans-30" x="286.279297"/>
       <use xlink:href="#DejaVuSans-30" x="349.902344"/>
      </g>
     </g>
    </g>
    <g id="ytick_4">
     <g id="line2d_12">
      <g>
       <use xlink:href="#md7e9b4fc1b" x="70.804041" y="205.239142" style="stroke: #000000; stroke-width: 0.8"/>
      </g>
     </g>
     <g id="text_12">
      <!-- 52.5325 -->
      <g transform="translate(22.450916 209.03836) scale(0.1 -0.1)">
       <use xlink:href="#DejaVuSans-35"/>
       <use xlink:href="#DejaVuSans-32" x="63.623047"/>
       <use xlink:href="#DejaVuSans-2e" x="127.246094"/>
       <use xlink:href="#DejaVuSans-35" x="159.033203"/>
       <use xlink:href="#DejaVuSans-33" x="222.65625"/>
       <use xlink:href="#DejaVuSans-32" x="286.279297"/>
       <use xlink:href="#DejaVuSans-35" x="349.902344"/>
      </g>
     </g>
    </g>
    <g id="ytick_5">
     <g id="line2d_13">
      <g>
       <use xlink:href="#md7e9b4fc1b" x="70.804041" y="172.796075" style="stroke: #000000; stroke-width: 0.8"/>
      </g>
     </g>
     <g id="text_13">
      <!-- 52.5350 -->
      <g transform="translate(22.450916 176.595294) scale(0.1 -0.1)">
       <use xlink:href="#DejaVuSans-35"/>
       <use xlink:href="#DejaVuSans-32" x="63.623047"/>
       <use xlink:href="#DejaVuSans-2e" x="127.246094"/>
       <use xlink:href="#DejaVuSans-35" x="159.033203"/>
       <use xlink:href="#DejaVuSans-33" x="222.65625"/>
       <use xlink:href="#DejaVuSans-35" x="286.279297"/>
       <use xlink:href="#DejaVuSans-30" x="349.902344"/>
      </g>
     </g>
    </g>
    <g id="ytick_6">
     <g id="line2d_14">
      <g>
       <use xlink:href="#md7e9b4fc1b" x="70.804041" y="140.353009" style="stroke: #000000; stroke-width: 0.8"/>
      </g>
     </g>
     <g id="text_14">
      <!-- 52.5375 -->
      <g transform="translate(22.450916 144.152227) scale(0.1 -0.1)">
       <use xlink:href="#DejaVuSans-35"/>
       <use xlink:href="#DejaVuSans-32" x="63.623047"/>
       <use xlink:href="#DejaVuSans-2e" x="127.246094"/>
       <use xlink:href="#DejaVuSans-35" x="159.033203"/>
       <use xlink:href="#DejaVuSans-33" x="222.65625"/>
       <use xlink:href="#DejaVuSans-37" x="286.279297"/>
       <use xlink:href="#DejaVuSans-35" x="349.902344"/>
      </g>
     </g>
    </g>
    <g id="ytick_7">
     <g id="line2d_15">
      <g>
       <use xlink:href="#md7e9b4fc1b" x="70.804041" y="107.909942" style="stroke: #000000; stroke-width: 0.8"/>
      </g>
     </g>
     <g id="text_15">
      <!-- 52.5400 -->
      <g transform="translate(22.450916 111.709161) scale(0.1 -0.1)">
       <use xlink:href="#DejaVuSans-35"/>
       <use xlink:href="#DejaVuSans-32" x="63.623047"/>
       <use xlink:href="#DejaVuSans-2e" x="127.246094"/>
       <use xlink:href="#DejaVuSans-35" x="159.033203"/>
       <use xlink:href="#DejaVuSans-34" x="222.65625"/>
       <use xlink:href="#DejaVuSans-30" x="286.279297"/>
       <use xlink:href="#DejaVuSans-30" x="349.902344"/>
      </g>
     </g>
    </g>
    <g id="ytick_8">
     <g id="line2d_16">
      <g>
       <use xlink:href="#md7e9b4fc1b" x="70.804041" y="75.466876" style="stroke: #000000; stroke-width: 0.8"/>
      </g>
     </g>
     <g id="text_16">
      <!-- 52.5425 -->
      <g transform="translate(22.450916 79.266094) scale(0.1 -0.1)">
       <use xlink:href="#DejaVuSans-35"/>
       <use xlink:href="#DejaVuSans-32" x="63.623047"/>
       <use xlink:href="#DejaVuSans-2e" x="127.246094"/>
       <use xlink:href="#DejaVuSans-35" x="159.033203"/>
       <use xlink:href="#DejaVuSans-34" x="222.65625"/>
       <use xlink:href="#DejaVuSans-32" x="286.279297"/>
       <use xlink:href="#DejaVuSans-35" x="349.902344"/>
      </g>
     </g>
    </g>
    <g id="ytick_9">
     <g id="line2d_17">
      <g>
       <use xlink:href="#md7e9b4fc1b" x="70.804041" y="43.023809" style="stroke: #000000; stroke-width: 0.8"/>
      </g>
     </g>
     <g id="text_17">
      <!-- 52.5450 -->
      <g transform="translate(22.450916 46.823028) scale(0.1 -0.1)">
       <use xlink:href="#DejaVuSans-35"/>
       <use xlink:href="#DejaVuSans-32" x="63.623047"/>
       <use xlink:href="#DejaVuSans-2e" x="127.246094"/>
       <use xlink:href="#DejaVuSans-35" x="159.033203"/>
       <use xlink:href="#DejaVuSans-34" x="222.65625"/>
       <use xlink:href="#DejaVuSans-35" x="286.279297"/>
       <use xlink:href="#DejaVuSans-30" x="349.902344"/>
      </g>
     </g>
    </g>
   </g>
   <g id="patch_3">
    <path d="M 70.804041 307.584 
L 70.804041 41.472 
" style="fill: none; stroke: #000000; stroke-width: 0.8; stroke-linejoin: miter; stroke-linecap: square"/>
   </g>
   <g id="patch_4">
    <path d="M 401.515959 307.584 
L 401.515959 41.472 
" style="fill: none; stroke: #000000; stroke-width: 0.8; stroke-linejoin: miter; stroke-linecap: square"/>
   </g>
   <g id="patch_5">
    <path d="M 70.804041 307.584 
L 401.515959 307.584 
" style="fill: none; stroke: #000000; stroke-width: 0.8; stroke-linejoin: miter; stroke-linecap: square"/>
   </g>
   <g id="patch_6">
    <path d="M 70.804041 41.472 
L 401.515959 41.472 
" style="fill: none; stroke: #000000; stroke-width: 0.8; stroke-linejoin: miter; stroke-linecap: square"/>
   </g>
   <g id="text_18">
    <!-- Südlicher_Prenzlauer_Berg -->
    <g transform="translate(146.921301 182.859887) scale(0.12 -0.12)">
     <defs>
      <path id="DejaVuSans-53" d="M 3425 4513 
L 3425 3897 
Q 3066 4069 2747 4153 
Q 2428 4238 2131 4238 
Q 1616 4238 1336 4038 
Q 1056 3838 1056 3469 
Q 1056 3159 1242 3001 
Q 1428 2844 1947 2747 
L 2328 2669 
Q 3034 2534 3370 2195 
Q 3706 1856 3706 1288 
Q 3706 609 3251 259 
Q 2797 -91 1919 -91 
Q 1588 -91 1214 -16 
Q 841 59 441 206 
L 441 856 
Q 825 641 1194 531 
Q 1563 422 1919 422 
Q 2459 422 2753 634 
Q 3047 847 3047 1241 
Q 3047 1584 2836 1778 
Q 2625 1972 2144 2069 
L 1759 2144 
Q 1053 2284 737 2584 
Q 422 2884 422 3419 
Q 422 4038 858 4394 
Q 1294 4750 2059 4750 
Q 2388 4750 2728 4690 
Q 3069 4631 3425 4513 
z
" transform="scale(0.015625)"/>
      <path id="DejaVuSans-fc" d="M 544 1381 
L 544 3500 
L 1119 3500 
L 1119 1403 
Q 1119 906 1312 657 
Q 1506 409 1894 409 
Q 2359 409 2629 706 
Q 2900 1003 2900 1516 
L 2900 3500 
L 3475 3500 
L 3475 0 
L 2900 0 
L 2900 538 
Q 2691 219 2414 64 
Q 2138 -91 1772 -91 
Q 1169 -91 856 284 
Q 544 659 544 1381 
z
M 1991 3584 
L 1991 3584 
z
M 2278 4850 
L 2913 4850 
L 2913 4219 
L 2278 4219 
L 2278 4850 
z
M 1056 4850 
L 1691 4850 
L 1691 4219 
L 1056 4219 
L 1056 4850 
z
" transform="scale(0.015625)"/>
      <path id="DejaVuSans-64" d="M 2906 2969 
L 2906 4863 
L 3481 4863 
L 3481 0 
L 2906 0 
L 2906 525 
Q 2725 213 2448 61 
Q 2172 -91 1784 -91 
Q 1150 -91 751 415 
Q 353 922 353 1747 
Q 353 2572 751 3078 
Q 1150 3584 1784 3584 
Q 2172 3584 2448 3432 
Q 2725 3281 2906 2969 
z
M 947 1747 
Q 947 1113 1208 752 
Q 1469 391 1925 391 
Q 2381 391 2643 752 
Q 2906 1113 2906 1747 
Q 2906 2381 2643 2742 
Q 2381 3103 1925 3103 
Q 1469 3103 1208 2742 
Q 947 2381 947 1747 
z
" transform="scale(0.015625)"/>
      <path id="DejaVuSans-6c" d="M 603 4863 
L 1178 4863 
L 1178 0 
L 603 0 
L 603 4863 
z
" transform="scale(0.015625)"/>
      <path id="DejaVuSans-69" d="M 603 3500 
L 1178 3500 
L 1178 0 
L 603 0 
L 603 3500 
z
M 603 4863 
L 1178 4863 
L 1178 4134 
L 603 4134 
L 603 4863 
z
" transform="scale(0.015625)"/>
      <path id="DejaVuSans-63" d="M 3122 3366 
L 3122 2828 
Q 2878 2963 2633 3030 
Q 2388 3097 2138 3097 
Q 1578 3097 1268 2742 
Q 959 2388 959 1747 
Q 959 1106 1268 751 
Q 1578 397 2138 397 
Q 2388 397 2633 464 
Q 2878 531 3122 666 
L 3122 134 
Q 2881 22 2623 -34 
Q 2366 -91 2075 -91 
Q 1284 -91 818 406 
Q 353 903 353 1747 
Q 353 2603 823 3093 
Q 1294 3584 2113 3584 
Q 2378 3584 2631 3529 
Q 2884 3475 3122 3366 
z
" transform="scale(0.015625)"/>
      <path id="DejaVuSans-68" d="M 3513 2113 
L 3513 0 
L 2938 0 
L 2938 2094 
Q 2938 2591 2744 2837 
Q 2550 3084 2163 3084 
Q 1697 3084 1428 2787 
Q 1159 2491 1159 1978 
L 1159 0 
L 581 0 
L 581 4863 
L 1159 4863 
L 1159 2956 
Q 1366 3272 1645 3428 
Q 1925 3584 2291 3584 
Q 2894 3584 3203 3211 
Q 3513 2838 3513 2113 
z
" transform="scale(0.015625)"/>
      <path id="DejaVuSans-65" d="M 3597 1894 
L 3597 1613 
L 953 1613 
Q 991 1019 1311 708 
Q 1631 397 2203 397 
Q 2534 397 2845 478 
Q 3156 559 3463 722 
L 3463 178 
Q 3153 47 2828 -22 
Q 2503 -91 2169 -91 
Q 1331 -91 842 396 
Q 353 884 353 1716 
Q 353 2575 817 3079 
Q 1281 3584 2069 3584 
Q 2775 3584 3186 3129 
Q 3597 2675 3597 1894 
z
M 3022 2063 
Q 3016 2534 2758 2815 
Q 2500 3097 2075 3097 
Q 1594 3097 1305 2825 
Q 1016 2553 972 2059 
L 3022 2063 
z
" transform="scale(0.015625)"/>
      <path id="DejaVuSans-72" d="M 2631 2963 
Q 2534 3019 2420 3045 
Q 2306 3072 2169 3072 
Q 1681 3072 1420 2755 
Q 1159 2438 1159 1844 
L 1159 0 
L 581 0 
L 581 3500 
L 1159 3500 
L 1159 2956 
Q 1341 3275 1631 3429 
Q 1922 3584 2338 3584 
Q 2397 3584 2469 3576 
Q 2541 3569 2628 3553 
L 2631 2963 
z
" transform="scale(0.015625)"/>
      <path id="DejaVuSans-5f" d="M 3263 -1063 
L 3263 -1509 
L -63 -1509 
L -63 -1063 
L 3263 -1063 
z
" transform="scale(0.015625)"/>
      <path id="DejaVuSans-50" d="M 1259 4147 
L 1259 2394 
L 2053 2394 
Q 2494 2394 2734 2622 
Q 2975 2850 2975 3272 
Q 2975 3691 2734 3919 
Q 2494 4147 2053 4147 
L 1259 4147 
z
M 628 4666 
L 2053 4666 
Q 2838 4666 3239 4311 
Q 3641 3956 3641 3272 
Q 3641 2581 3239 2228 
Q 2838 1875 2053 1875 
L 1259 1875 
L 1259 0 
L 628 0 
L 628 4666 
z
" transform="scale(0.015625)"/>
      <path id="DejaVuSans-6e" d="M 3513 2113 
L 3513 0 
L 2938 0 
L 2938 2094 
Q 2938 2591 2744 2837 
Q 2550 3084 2163 3084 
Q 1697 3084 1428 2787 
Q 1159 2491 1159 1978 
L 1159 0 
L 581 0 
L 581 3500 
L 1159 3500 
L 1159 2956 
Q 1366 3272 1645 3428 
Q 1925 3584 2291 3584 
Q 2894 3584 3203 3211 
Q 3513 2838 3513 2113 
z
" transform="scale(0.015625)"/>
      <path id="DejaVuSans-7a" d="M 353 3500 
L 3084 3500 
L 3084 2975 
L 922 459 
L 3084 459 
L 3084 0 
L 275 0 
L 275 525 
L 2438 3041 
L 353 3041 
L 353 3500 
z
" transform="scale(0.015625)"/>
      <path id="DejaVuSans-61" d="M 2194 1759 
Q 1497 1759 1228 1600 
Q 959 1441 959 1056 
Q 959 750 1161 570 
Q 1363 391 1709 391 
Q 2188 391 2477 730 
Q 2766 1069 2766 1631 
L 2766 1759 
L 2194 1759 
z
M 3341 1997 
L 3341 0 
L 2766 0 
L 2766 531 
Q 2569 213 2275 61 
Q 1981 -91 1556 -91 
Q 1019 -91 701 211 
Q 384 513 384 1019 
Q 384 1609 779 1909 
Q 1175 2209 1959 2209 
L 2766 2209 
L 2766 2266 
Q 2766 2663 2505 2880 
Q 2244 3097 1772 3097 
Q 1472 3097 1187 3025 
Q 903 2953 641 2809 
L 641 3341 
Q 956 3463 1253 3523 
Q 1550 3584 1831 3584 
Q 2591 3584 2966 3190 
Q 3341 2797 3341 1997 
z
" transform="scale(0.015625)"/>
      <path id="DejaVuSans-75" d="M 544 1381 
L 544 3500 
L 1119 3500 
L 1119 1403 
Q 1119 906 1312 657 
Q 1506 409 1894 409 
Q 2359 409 2629 706 
Q 2900 1003 2900 1516 
L 2900 3500 
L 3475 3500 
L 3475 0 
L 2900 0 
L 2900 538 
Q 2691 219 2414 64 
Q 2138 -91 1772 -91 
Q 1169 -91 856 284 
Q 544 659 544 1381 
z
M 1991 3584 
L 1991 3584 
z
" transform="scale(0.015625)"/>
      <path id="DejaVuSans-42" d="M 1259 2228 
L 1259 519 
L 2272 519 
Q 2781 519 3026 730 
Q 3272 941 3272 1375 
Q 3272 1813 3026 2020 
Q 2781 2228 2272 2228 
L 1259 2228 
z
M 1259 4147 
L 1259 2741 
L 2194 2741 
Q 2656 2741 2882 2914 
Q 3109 3088 3109 3444 
Q 3109 3797 2882 3972 
Q 2656 4147 2194 4147 
L 1259 4147 
z
M 628 4666 
L 2241 4666 
Q 2963 4666 3353 4366 
Q 3744 4066 3744 3513 
Q 3744 3084 3544 2831 
Q 3344 2578 2956 2516 
Q 3422 2416 3680 2098 
Q 3938 1781 3938 1306 
Q 3938 681 3513 340 
Q 3088 0 2303 0 
L 628 0 
L 628 4666 
z
" transform="scale(0.015625)"/>
      <path id="DejaVuSans-67" d="M 2906 1791 
Q 2906 2416 2648 2759 
Q 2391 3103 1925 3103 
Q 1463 3103 1205 2759 
Q 947 2416 947 1791 
Q 947 1169 1205 825 
Q 1463 481 1925 481 
Q 2391 481 2648 825 
Q 2906 1169 2906 1791 
z
M 3481 434 
Q 3481 -459 3084 -895 
Q 2688 -1331 1869 -1331 
Q 1566 -1331 1297 -1286 
Q 1028 -1241 775 -1147 
L 775 -588 
Q 1028 -725 1275 -790 
Q 1522 -856 1778 -856 
Q 2344 -856 2625 -561 
Q 2906 -266 2906 331 
L 2906 616 
Q 2728 306 2450 153 
Q 2172 0 1784 0 
Q 1141 0 747 490 
Q 353 981 353 1791 
Q 353 2603 747 3093 
Q 1141 3584 1784 3584 
Q 2172 3584 2450 3431 
Q 2728 3278 2906 2969 
L 2906 3500 
L 3481 3500 
L 3481 434 
z
" transform="scale(0.015625)"/>
     </defs>
     <use xlink:href="#DejaVuSans-53"/>
     <use xlink:href="#DejaVuSans-fc" x="63.476562"/>
     <use xlink:href="#DejaVuSans-64" x="126.855469"/>
     <use xlink:href="#DejaVuSans-6c" x="190.332031"/>
     <use xlink:href="#DejaVuSans-69" x="218.115234"/>
     <use xlink:href="#DejaVuSans-63" x="245.898438"/>
     <use xlink:href="#DejaVuSans-68" x="300.878906"/>
     <use xlink:href="#DejaVuSans-65" x="364.257812"/>
     <use xlink:href="#DejaVuSans-72" x="425.78125"/>
     <use xlink:href="#DejaVuSans-5f" x="466.894531"/>
     <use xlink:href="#DejaVuSans-50" x="516.894531"/>
     <use xlink:href="#DejaVuSans-72" x="575.447266"/>
     <use xlink:href="#DejaVuSans-65" x="614.310547"/>
     <use xlink:href="#DejaVuSans-6e" x="675.833984"/>
     <use xlink:href="#DejaVuSans-7a" x="739.212891"/>
     <use xlink:href="#DejaVuSans-6c" x="791.703125"/>
     <use xlink:href="#DejaVuSans-61" x="819.486328"/>
     <use xlink:href="#DejaVuSans-75" x="880.765625"/>
     <use xlink:href="#DejaVuSans-65" x="944.144531"/>
     <use xlink:href="#DejaVuSans-72" x="1005.667969"/>
     <use xlink:href="#DejaVuSans-5f" x="1046.78125"/>
     <use xlink:href="#DejaVuSans-42" x="1096.78125"/>
     <use xlink:href="#DejaVuSans-65" x="1165.384766"/>
     <use xlink:href="#DejaVuSans-72" x="1226.908203"/>
     <use xlink:href="#DejaVuSans-67" x="1266.271484"/>
    </g>
   </g>
  </g>
 </g>
 <defs>
  <clipPath id="pdbcc58f72f">
   <rect x="70.804041" y="41.472" width="330.711917" height="266.112"/>
  </clipPath>
 </defs>
</svg>
