<?xml version="1.0" encoding="utf-8" standalone="no"?>
<!DOCTYPE svg PUBLIC "-//W3C//DTD SVG 1.1//EN"
  "http://www.w3.org/Graphics/SVG/1.1/DTD/svg11.dtd">
<svg xmlns:xlink="http://www.w3.org/1999/xlink" width="460.8pt" height="345.6pt" viewBox="0 0 460.8 345.6" xmlns="http://www.w3.org/2000/svg" version="1.1">
 <metadata>
  <rdf:RDF xmlns:dc="http://purl.org/dc/elements/1.1/" xmlns:cc="http://creativecommons.org/ns#" xmlns:rdf="http://www.w3.org/1999/02/22-rdf-syntax-ns#">
   <cc:Work>
    <dc:type rdf:resource="http://purl.org/dc/dcmitype/StillImage"/>
    <dc:date>2024-10-15T09:53:25.949491</dc:date>
    <dc:format>image/svg+xml</dc:format>
    <dc:creator>
     <cc:Agent>
      <dc:title>Matplotlib v3.8.4, https://matplotlib.org/</dc:title>
     </cc:Agent>
    </dc:creator>
   </cc:Work>
  </rdf:RDF>
 </metadata>
 <defs>
  <style type="text/css">*{stroke-linejoin: round; stroke-linecap: butt}</style>
 </defs>
 <g id="figure_1">
  <g id="patch_1">
   <path d="M 0 345.6 
L 460.8 345.6 
L 460.8 0 
L 0 0 
z
" style="fill: #ffffff"/>
  </g>
  <g id="axes_1">
   <g id="patch_2">
    <path d="M 98.323086 307.584 
L 373.996914 307.584 
L 373.996914 41.472 
L 98.323086 41.472 
z
" style="fill: #ffffff"/>
   </g>
   <g id="PatchCollection_1">
    <path d="M 134.481577 293.025077 
L 134.629836 292.88737 
L 134.793081 293.44282 
L 134.83208 293.575173 
L 135.336632 295.290097 
L 135.358685 295.365053 
L 135.40283 295.488 
L 135.778595 295.136573 
L 135.760731 295.082911 
L 136.000585 294.846781 
L 136.170076 294.695389 
L 136.284253 294.608404 
L 136.486304 294.534661 
L 136.905479 294.093893 
L 136.95888 294.032244 
L 137.105742 294.387867 
L 137.772382 293.789762 
L 137.89284 293.73661 
L 137.936241 293.704519 
L 138.066748 293.607874 
L 138.084763 293.594574 
L 138.166225 293.535836 
L 140.071275 291.956675 
L 140.97779 291.226206 
L 141.070751 291.047485 
L 142.339704 290.164957 
L 144.47714 288.677835 
L 145.837924 287.731396 
L 145.927352 287.797318 
L 145.950587 287.812343 
L 146.087938 287.686634 
L 146.469332 287.292979 
L 146.688636 286.959418 
L 146.868087 286.531515 
L 147.397059 285.235443 
L 147.585159 285.043346 
L 147.72041 284.905159 
L 147.905142 284.782917 
L 148.195822 284.912279 
L 148.303756 284.698045 
L 148.274121 284.699187 
L 148.691108 284.09049 
L 148.600991 284.051721 
L 148.782535 283.903404 
L 148.839965 283.856436 
L 148.844309 283.852893 
L 151.30691 281.83917 
L 153.881705 279.544185 
L 157.461823 276.25751 
L 157.875412 275.877757 
L 158.484049 275.169908 
L 158.867207 274.686466 
L 161.105414 272.799521 
L 161.2019 272.7142 
L 161.473359 272.486431 
L 161.67021 272.321263 
L 161.713531 272.285316 
L 161.74403 272.260045 
L 162.042686 272.01259 
L 165.608391 268.78622 
L 167.017078 267.510958 
L 167.577034 266.955269 
L 170.999094 263.872821 
L 174.135727 261.11689 
L 174.740201 260.551601 
L 175.715245 259.618938 
L 176.490054 258.893397 
L 178.048732 257.448849 
L 179.395213 256.452918 
L 179.861989 256.14919 
L 180.182163 255.947615 
L 180.697681 255.580162 
L 181.154242 255.254747 
L 181.297617 255.145517 
L 181.62259 254.89791 
L 182.834841 254.067437 
L 184.134525 253.26219 
L 185.480178 252.494378 
L 187.67221 251.289159 
L 188.618799 250.795005 
L 189.578208 250.334526 
L 189.797569 250.229242 
L 189.957601 250.152417 
L 190.779566 249.796934 
L 190.648981 249.451605 
L 190.767624 249.404312 
L 205.693287 243.461386 
L 205.836422 243.84187 
L 206.027306 244.349303 
L 206.062776 244.443752 
L 206.259523 244.966762 
L 206.541755 245.717174 
L 206.550109 245.739324 
L 206.759361 246.295716 
L 206.785643 246.365634 
L 206.877378 246.609544 
L 208.756816 246.089779 
L 210.623882 245.560964 
L 211.668507 245.273194 
L 213.193781 245.15173 
L 213.755841 245.064289 
L 215.712749 244.745438 
L 217.861064 244.451436 
L 221.562621 243.807083 
L 224.414895 243.341539 
L 228.654842 242.341576 
L 228.863234 242.360401 
L 230.179762 242.479342 
L 230.967836 242.507601 
L 232.392199 242.558593 
L 232.723263 242.570453 
L 233.60452 242.604467 
L 234.113504 242.615329 
L 234.631533 242.599947 
L 235.15847 242.554463 
L 235.677552 242.488071 
L 235.830132 242.46384 
L 236.330654 242.349119 
L 236.840258 242.223862 
L 237.331475 242.079081 
L 237.98264 241.822385 
L 238.091181 241.88452 
L 239.025773 242.419685 
L 239.262713 243.321449 
L 240.873383 243.383778 
L 242.748174 243.544345 
L 245.220072 243.601532 
L 249.4134 243.684058 
L 250.680525 243.676341 
L 254.639732 243.652221 
L 256.219074 243.729123 
L 258.823241 243.872273 
L 259.490435 243.908893 
L 264.539249 244.186202 
L 264.810888 244.201095 
L 265.363215 244.209334 
L 266.108118 244.220446 
L 274.013597 244.51858 
L 284.27382 244.885314 
L 284.702845 244.902797 
L 285.131654 244.924669 
L 285.560247 244.950878 
L 285.988519 244.981427 
L 286.416522 245.016367 
L 286.844103 245.0557 
L 287.271256 245.099323 
L 287.69162 245.146594 
L 288.111452 245.198053 
L 288.530751 245.253699 
L 288.949518 245.313584 
L 289.07066 245.331676 
L 289.191759 245.350185 
L 289.312812 245.369009 
L 289.624256 245.419111 
L 289.935284 245.47157 
L 290.245944 245.526282 
L 294.595517 246.310076 
L 296.752077 246.425983 
L 296.937901 246.142874 
L 297.616596 244.507402 
L 297.756726 244.169774 
L 298.535773 242.292539 
L 298.674826 242.337013 
L 299.275173 242.529224 
L 300.054182 242.787425 
L 300.650308 242.970025 
L 302.037782 243.185991 
L 303.955142 243.497678 
L 305.645013 243.764504 
L 306.563411 243.895649 
L 307.57258 243.986697 
L 308.415045 244.072813 
L 309.003199 244.13907 
L 310.52052 244.362605 
L 312.165512 244.588869 
L 313.522309 245.035102 
L 314.787588 245.437744 
L 315.631929 245.666945 
L 320.069128 246.927194 
L 321.135898 247.230222 
L 324.570235 247.982264 
L 324.598138 248.089734 
L 324.625678 248.197265 
L 324.652857 248.304908 
L 324.679723 248.412558 
L 324.706226 248.520268 
L 324.732315 248.628092 
L 325.433726 251.571701 
L 325.834563 251.676454 
L 326.015533 251.662874 
L 327.047353 248.524342 
L 330.038472 248.743586 
L 332.151084 244.28329 
L 332.441161 243.672101 
L 333.843415 240.710947 
L 333.929231 240.531777 
L 334.054902 240.263845 
L 334.154715 240.055925 
L 334.176986 240.031846 
L 334.580494 239.247198 
L 335.826356 236.89003 
L 336.727102 234.978254 
L 337.023899 234.351996 
L 337.205795 233.917445 
L 337.375249 233.51375 
L 337.787565 232.528247 
L 338.954264 229.743575 
L 339.424464 228.621791 
L 339.756209 227.828966 
L 340.028008 227.179828 
L 340.759147 225.435502 
L 340.81995 225.290336 
L 340.934829 225.016121 
L 340.968943 224.933593 
L 341.238633 224.464398 
L 341.350382 224.269997 
L 342.197349 222.796609 
L 342.465018 222.330017 
L 343.158081 222.565392 
L 345.712702 222.842452 
L 348.229338 222.938594 
L 350.715006 223.132928 
L 353.305359 223.184556 
L 355.72666 223.226806 
L 357.184067 223.135089 
L 358.243587 223.068514 
L 361.466286 222.633888 
L 355.846113 216.81145 
L 355.472099 216.443708 
L 355.081957 216.097925 
L 355.019925 216.048765 
L 354.870793 215.930578 
L 354.555892 215.679492 
L 354.12948 215.3797 
L 353.692758 215.101322 
L 352.888159 214.620408 
L 351.964213 214.068155 
L 348.402829 211.944746 
L 347.954133 211.676348 
L 347.574266 211.449447 
L 345.554947 210.241122 
L 343.633389 209.091368 
L 340.953664 207.485097 
L 340.383015 207.146111 
L 340.915994 205.766967 
L 341.030665 205.47089 
L 342.27897 202.246267 
L 342.94992 200.514072 
L 343.273236 199.673893 
L 348.1571 200.788793 
L 349.665297 201.133007 
L 349.427208 199.531209 
L 349.22462 198.173453 
L 348.916008 196.096712 
L 348.875164 195.825022 
L 345.207017 194.677425 
L 345.415191 194.147374 
L 345.467878 192.900517 
L 345.483975 192.525968 
L 345.659381 190.527614 
L 345.737513 189.633834 
L 345.776335 189.196056 
L 345.80257 188.899726 
L 345.752478 188.505486 
L 345.647758 187.681316 
L 344.951556 186.835546 
L 344.279105 183.181535 
L 344.195165 180.533835 
L 344.061773 176.381667 
L 343.975827 173.661312 
L 343.970383 173.211639 
L 343.964315 172.710418 
L 343.725671 170.030463 
L 343.686981 169.588224 
L 343.567857 169.606804 
L 343.112243 169.67435 
L 342.741042 169.733367 
L 342.71121 169.738091 
L 342.509038 169.770442 
L 341.876478 169.871615 
L 341.60676 169.914789 
L 340.860432 170.034219 
L 339.630386 170.231004 
L 338.390693 170.429312 
L 337.169522 170.624715 
L 336.801858 170.683506 
L 335.937289 170.821201 
L 334.697011 171.018704 
L 333.291709 171.244991 
L 331.651781 171.488126 
L 331.053019 171.57752 
L 330.804206 171.614714 
L 329.162557 171.859887 
L 328.777637 171.917399 
L 327.198602 172.154633 
L 327.158775 171.873582 
L 327.134312 171.699965 
L 327.038406 170.992195 
L 326.805489 169.272929 
L 326.805179 169.270641 
L 326.793493 169.186195 
L 326.725467 168.689283 
L 326.581932 167.64855 
L 326.060872 163.81606 
L 324.227023 150.357644 
L 323.311347 143.631859 
L 322.658789 139.707441 
L 322.545706 139.02719 
L 322.098653 136.338425 
L 322.037074 135.968036 
L 319.915224 123.206765 
L 319.391893 120.059533 
L 317.457128 108.425003 
L 317.15942 106.634894 
L 315.557977 97.005248 
L 315.205292 94.884481 
L 314.139767 95.437242 
L 307.171603 99.052684 
L 306.1887 99.562637 
L 305.998716 100.600744 
L 305.590991 100.527903 
L 293.821512 98.344914 
L 291.871743 97.983127 
L 291.741496 97.954327 
L 291.608176 97.920795 
L 291.47896 97.882109 
L 291.350803 97.837085 
L 291.221565 97.78791 
L 291.100123 97.730943 
L 290.92703 97.641195 
L 291.047231 96.948649 
L 291.380262 95.030642 
L 291.560859 93.992053 
L 289.571533 86.474151 
L 289.112037 82.933211 
L 288.947873 81.665097 
L 289.263165 80.256273 
L 289.39407 78.623669 
L 289.433643 78.124388 
L 289.61166 75.904293 
L 289.703826 75.915511 
L 289.963703 73.037381 
L 290.12188 71.306685 
L 289.586714 71.127299 
L 289.267305 71.0208 
L 282.356922 68.57476 
L 281.821943 68.387819 
L 281.285595 68.205032 
L 280.747777 68.026453 
L 280.208593 67.852081 
L 279.668095 67.681915 
L 279.126283 67.515954 
L 278.583261 67.354196 
L 278.039029 67.196641 
L 277.493536 67.043343 
L 276.946886 66.894298 
L 276.399133 66.749559 
L 275.850223 66.609074 
L 275.300265 66.473049 
L 274.749307 66.341275 
L 274.197297 66.213806 
L 273.64434 66.090637 
L 273.090438 65.971823 
L 272.53564 65.857309 
L 271.984812 65.748084 
L 271.433141 65.643106 
L 270.880729 65.542373 
L 270.327527 65.445938 
L 269.773585 65.353749 
L 269.189803 65.2617 
L 269.134039 65.25297 
L 268.315139 64.719351 
L 258.367275 64.361646 
L 250.798065 64.089183 
L 249.938085 64.058232 
L 248.546138 64.008237 
L 248.119012 63.559636 
L 247.136335 63.561959 
L 247.143357 62.179103 
L 247.149003 61.01589 
L 247.154792 59.89432 
L 247.160032 58.773859 
L 247.159998 58.772294 
L 247.163821 58.008108 
L 247.170363 56.648226 
L 247.171294 56.443728 
L 247.175551 55.504281 
L 247.183885 53.887171 
L 245.830346 53.871198 
L 244.84173 53.858735 
L 241.601562 53.81919 
L 240.456244 53.805177 
L 239.310937 53.79169 
L 238.29576 53.779324 
L 238.268667 53.778885 
L 236.425293 53.758862 
L 236.082081 53.755042 
L 235.715584 53.751064 
L 227.752589 53.663431 
L 227.540818 53.66112 
L 220.979217 53.589131 
L 220.746293 53.586569 
L 219.628303 53.574334 
L 219.486195 53.573236 
L 219.067751 53.568462 
L 219.025449 53.568 
L 218.990505 56.053145 
L 218.976935 57.011746 
L 218.958046 58.348422 
L 218.94613 59.156995 
L 218.569767 59.149348 
L 217.932613 59.143472 
L 217.152202 59.136213 
L 216.932264 59.134199 
L 216.875274 59.133649 
L 216.736801 59.132001 
L 216.579635 59.130512 
L 214.466456 59.110482 
L 212.713245 59.093882 
L 212.619578 59.092902 
L 212.237938 59.089193 
L 210.934921 59.076917 
L 210.378922 59.071485 
L 209.368936 59.062196 
L 209.004907 59.058828 
L 208.551696 59.054694 
L 208.494289 59.054155 
L 206.51572 59.035451 
L 205.282447 59.023466 
L 204.874972 59.019669 
L 204.804021 59.019018 
L 204.16275 59.01306 
L 203.849302 59.010076 
L 201.64668 58.989395 
L 201.048046 58.982591 
L 193.413705 58.9101 
L 193.311548 58.90911 
L 193.128542 58.907329 
L 191.889801 58.895427 
L 191.730966 58.893886 
L 191.539625 58.892033 
L 190.468877 58.881368 
L 190.312282 58.87983 
L 189.035606 58.867125 
L 188.958715 58.866351 
L 188.037114 58.857193 
L 187.758774 58.854431 
L 187.684436 58.853704 
L 186.667607 58.843616 
L 186.581442 58.842738 
L 186.319721 58.840177 
L 185.703392 58.834017 
L 185.3541 58.830559 
L 183.871442 58.815787 
L 183.243761 58.809732 
L 183.224434 58.809542 
L 182.556901 58.803081 
L 181.899005 58.796719 
L 181.24585 58.790408 
L 180.647393 58.78464 
L 180.498561 58.783193 
L 180.367336 58.781924 
L 179.773779 58.776309 
L 179.102445 58.769943 
L 178.43903 58.763662 
L 177.782023 58.757447 
L 176.898095 58.749097 
L 176.838343 58.748514 
L 176.611003 58.746284 
L 175.691491 58.737384 
L 174.948679 58.730137 
L 173.946701 58.720443 
L 172.915861 58.710361 
L 171.882364 58.700291 
L 171.282708 58.694467 
L 168.256719 58.665319 
L 167.280945 58.655947 
L 166.964461 58.652347 
L 166.944068 58.704319 
L 166.924759 58.7535 
L 166.81741 59.021673 
L 166.609643 59.016661 
L 166.680785 59.11604 
L 166.213734 60.410816 
L 165.493646 62.414772 
L 165.358519 62.790846 
L 164.890463 64.093506 
L 164.44869 65.323522 
L 163.567229 67.776202 
L 162.229095 71.498594 
L 160.464199 76.406629 
L 158.686338 81.309492 
L 158.038271 83.077093 
L 157.833339 83.636087 
L 157.205237 85.35319 
L 156.866169 86.280076 
L 155.303503 90.593259 
L 153.734012 94.910939 
L 152.327227 98.770323 
L 152.355893 98.780685 
L 151.869331 100.123007 
L 151.910519 100.139036 
L 151.661365 101.044948 
L 149.804976 106.172976 
L 149.615653 108.084425 
L 149.551865 108.728322 
L 149.513702 109.118624 
L 149.16847 112.700328 
L 149.140986 113.009964 
L 149.115953 113.319806 
L 149.093269 113.629856 
L 149.073036 113.940058 
L 149.052258 114.304603 
L 149.034868 114.669279 
L 149.020763 115.034142 
L 149.009535 115.415744 
L 149.001903 115.797474 
L 148.997916 116.179225 
L 149.006512 117.739285 
L 149.023033 117.836818 
L 149.10352 118.240036 
L 149.130757 118.375009 
L 149.272599 119.077914 
L 149.3374 119.413641 
L 149.503768 119.824567 
L 149.898648 120.813687 
L 150.096325 121.246084 
L 150.981879 123.182701 
L 151.74749 124.502288 
L 151.868457 124.710497 
L 151.896741 124.759436 
L 152.176875 125.242 
L 152.370359 125.451854 
L 152.46789 125.556006 
L 152.732555 125.920712 
L 153.927325 127.338407 
L 154.17311 127.671863 
L 154.364491 127.922578 
L 154.495165 128.088034 
L 155.157179 128.823213 
L 155.600946 129.226922 
L 156.058146 129.582104 
L 156.61172 129.988026 
L 157.159569 130.371011 
L 158.015641 130.954264 
L 158.824658 131.478203 
L 159.569392 131.919991 
L 160.386017 132.379777 
L 160.503278 132.437768 
L 160.620591 132.495758 
L 160.741022 132.551173 
L 160.867068 132.587724 
L 162.204002 133.01748 
L 163.175853 133.239905 
L 163.519082 133.318517 
L 164.662851 133.579959 
L 165.061506 133.581123 
L 165.246485 133.626626 
L 164.939883 138.727765 
L 164.317804 138.762966 
L 162.796038 138.836205 
L 162.735065 138.838367 
L 162.466963 138.749968 
L 162.19974 138.658991 
L 161.933395 138.565386 
L 161.76887 138.510081 
L 161.604635 138.453831 
L 161.440742 138.396581 
L 161.277352 138.338537 
L 161.114304 138.279493 
L 160.951649 138.21945 
L 160.789182 138.158462 
L 160.627208 138.096264 
L 160.465676 138.032907 
L 160.304746 137.968493 
L 160.144308 137.902868 
L 159.984313 137.836084 
L 159.824061 137.769463 
L 159.664503 137.701261 
L 159.505637 137.631425 
L 159.347362 137.560115 
L 159.189832 137.487222 
L 159.032996 137.412748 
L 158.882675 137.332826 
L 158.300681 136.867502 
L 157.989873 136.482907 
L 157.293637 135.644222 
L 157.212051 135.554215 
L 157.128834 135.465811 
L 157.043933 135.378907 
L 156.957506 135.293603 
L 156.863916 135.204703 
L 156.768599 135.117669 
L 156.671554 135.032553 
L 156.572886 134.949353 
L 154.154904 132.984845 
L 153.985115 132.84183 
L 153.817202 132.69658 
L 153.651168 132.5492 
L 153.61795 132.519265 
L 153.662011 132.464356 
L 153.092587 131.711061 
L 152.908073 131.490044 
L 151.604537 130.210458 
L 150.972469 129.549762 
L 150.351187 128.998056 
L 150.353772 128.994919 
L 150.294253 128.943974 
L 150.266582 128.910626 
L 149.345967 127.761771 
L 149.237744 127.610735 
L 148.766036 126.841613 
L 148.62786 126.620749 
L 148.261034 126.062392 
L 147.988121 125.567822 
L 147.800829 125.143385 
L 147.237635 123.876366 
L 146.959186 123.249779 
L 146.078979 123.707819 
L 145.793235 123.858343 
L 145.786548 123.859695 
L 145.341626 123.823338 
L 145.063316 123.800373 
L 144.987958 124.733664 
L 144.935769 125.15038 
L 144.589822 124.887574 
L 144.513867 124.837623 
L 143.234616 123.87803 
L 142.650336 123.432798 
L 140.975829 122.156812 
L 140.240605 121.596574 
L 140.109268 121.446067 
L 139.923103 121.238091 
L 139.906352 121.285765 
L 139.852981 121.43766 
L 139.804909 121.574476 
L 139.749114 121.733271 
L 139.623401 122.091095 
L 139.601603 122.110379 
L 139.516479 122.185815 
L 139.465152 122.231268 
L 138.826291 122.797261 
L 138.858211 123.290248 
L 138.901291 124.094971 
L 138.449031 124.93641 
L 138.468617 124.948282 
L 138.476588 124.93234 
L 138.574289 124.986172 
L 138.656964 125.031735 
L 138.899399 125.165367 
L 138.982284 125.211029 
L 139.286619 125.378744 
L 137.845777 129.336321 
L 136.466183 132.991121 
L 135.090234 136.648769 
L 133.709151 140.330966 
L 132.781774 142.953222 
L 132.2937 144.333353 
L 130.689755 149.377353 
L 129.095273 154.459456 
L 128.002434 157.806077 
L 126.496607 162.182197 
L 124.575844 167.651802 
L 124.459209 167.984191 
L 123.166556 171.667674 
L 122.755407 172.804967 
L 122.280102 174.119738 
L 121.41075 176.576843 
L 120.548249 179.034579 
L 119.666636 181.486751 
L 118.741823 183.922428 
L 117.805852 186.354292 
L 117.361034 187.506914 
L 116.850271 188.781441 
L 115.820138 191.175378 
L 115.281786 192.444692 
L 114.793888 193.624865 
L 114.196703 195.099741 
L 113.953424 195.711159 
L 113.457936 197.054078 
L 113.199639 197.83389 
L 112.777673 197.82191 
L 112.779083 197.815249 
L 112.38471 197.79429 
L 112.366446 197.856499 
L 112.347888 197.91955 
L 112.311399 198.043446 
L 112.03178 198.993674 
L 112.00684 199.078269 
L 111.862294 199.569383 
L 112.368904 199.719246 
L 112.028938 201.164044 
L 111.960904 201.453004 
L 111.877004 201.87541 
L 111.501195 203.768082 
L 111.482643 203.925388 
L 111.324241 205.271215 
L 111.239194 207.550814 
L 111.227659 208.521648 
L 111.223521 208.944739 
L 111.20878 210.659452 
L 111.20618 210.937003 
L 111.206075 210.948435 
L 111.20016 211.579856 
L 111.173715 214.393271 
L 111.23303 217.843269 
L 111.239156 218.198019 
L 111.504324 218.302192 
L 111.826919 218.38418 
L 111.854093 219.246619 
L 111.537263 219.166327 
L 111.211025 219.23444 
L 110.946676 219.467944 
L 110.853714 219.885234 
L 110.869745 219.999842 
L 110.968792 220.708195 
L 111.074592 221.640654 
L 111.098541 221.916086 
L 111.155995 222.576122 
L 111.213508 223.513909 
L 111.222051 223.97053 
L 111.212297 224.425951 
L 111.183767 224.87966 
L 111.591863 228.013625 
L 111.821988 228.892779 
L 112.327358 228.949303 
L 112.786712 230.909399 
L 113.320364 232.696618 
L 113.378796 232.874766 
L 113.527674 233.325932 
L 113.52819 233.327495 
L 113.62659 233.627063 
L 114.34035 235.730255 
L 115.114197 237.761676 
L 115.09838 238.122197 
L 116.479082 241.506055 
L 116.355295 242.20968 
L 117.016804 243.977657 
L 117.68876 245.77525 
L 118.664589 248.277524 
L 118.730959 248.223039 
L 119.747153 250.964105 
L 120.531753 253.260524 
L 120.66909 253.832212 
L 120.738252 254.240951 
L 120.937165 254.856745 
L 121.203362 255.672146 
L 121.670592 256.402229 
L 121.73875 256.555366 
L 122.377888 257.924877 
L 122.525181 258.366647 
L 123.282036 260.635003 
L 123.876527 262.449146 
L 124.159598 263.330185 
L 125.048498 265.007571 
L 125.54351 266.37082 
L 125.672334 266.751168 
L 126.69466 269.790594 
L 126.740419 269.933857 
L 127.625607 272.732266 
L 128.21563 274.629868 
L 128.832015 276.340606 
L 129.100554 277.084514 
L 129.409696 278.279983 
L 129.631771 278.421583 
L 129.771194 278.847776 
L 129.840633 279.06033 
L 130.043706 279.385379 
L 130.15244 279.559425 
L 130.281997 279.765706 
L 130.310985 279.811861 
L 129.99334 280.000289 
L 130.049235 280.156996 
L 130.733268 282.073654 
L 131.315305 283.364635 
L 132.460772 286.694173 
L 133.547157 289.927412 
L 134.228399 292.190369 
L 134.38982 292.722583 
L 134.481577 293.025077 
" clip-path="url(#p45ef84f583)" style="fill: #1f77b4"/>
   </g>
   <g id="matplotlib.axis_1">
    <g id="xtick_1">
     <g id="line2d_1">
      <defs>
       <path id="m34a49b42a3" d="M 0 0 
L 0 3.5 
" style="stroke: #000000; stroke-width: 0.8"/>
      </defs>
      <g>
       <use xlink:href="#m34a49b42a3" x="126.050655" y="307.584" style="stroke: #000000; stroke-width: 0.8"/>
      </g>
     </g>
     <g id="text_1">
      <!-- 13.36 -->
      <g transform="translate(111.736592 322.182437) scale(0.1 -0.1)">
       <defs>
        <path id="DejaVuSans-31" d="M 794 531 
L 1825 531 
L 1825 4091 
L 703 3866 
L 703 4441 
L 1819 4666 
L 2450 4666 
L 2450 531 
L 3481 531 
L 3481 0 
L 794 0 
L 794 531 
z
" transform="scale(0.015625)"/>
        <path id="DejaVuSans-33" d="M 2597 2516 
Q 3050 2419 3304 2112 
Q 3559 1806 3559 1356 
Q 3559 666 3084 287 
Q 2609 -91 1734 -91 
Q 1441 -91 1130 -33 
Q 819 25 488 141 
L 488 750 
Q 750 597 1062 519 
Q 1375 441 1716 441 
Q 2309 441 2620 675 
Q 2931 909 2931 1356 
Q 2931 1769 2642 2001 
Q 2353 2234 1838 2234 
L 1294 2234 
L 1294 2753 
L 1863 2753 
Q 2328 2753 2575 2939 
Q 2822 3125 2822 3475 
Q 2822 3834 2567 4026 
Q 2313 4219 1838 4219 
Q 1578 4219 1281 4162 
Q 984 4106 628 3988 
L 628 4550 
Q 988 4650 1302 4700 
Q 1616 4750 1894 4750 
Q 2613 4750 3031 4423 
Q 3450 4097 3450 3541 
Q 3450 3153 3228 2886 
Q 3006 2619 2597 2516 
z
" transform="scale(0.015625)"/>
        <path id="DejaVuSans-2e" d="M 684 794 
L 1344 794 
L 1344 0 
L 684 0 
L 684 794 
z
" transform="scale(0.015625)"/>
        <path id="DejaVuSans-36" d="M 2113 2584 
Q 1688 2584 1439 2293 
Q 1191 2003 1191 1497 
Q 1191 994 1439 701 
Q 1688 409 2113 409 
Q 2538 409 2786 701 
Q 3034 994 3034 1497 
Q 3034 2003 2786 2293 
Q 2538 2584 2113 2584 
z
M 3366 4563 
L 3366 3988 
Q 3128 4100 2886 4159 
Q 2644 4219 2406 4219 
Q 1781 4219 1451 3797 
Q 1122 3375 1075 2522 
Q 1259 2794 1537 2939 
Q 1816 3084 2150 3084 
Q 2853 3084 3261 2657 
Q 3669 2231 3669 1497 
Q 3669 778 3244 343 
Q 2819 -91 2113 -91 
Q 1303 -91 875 529 
Q 447 1150 447 2328 
Q 447 3434 972 4092 
Q 1497 4750 2381 4750 
Q 2619 4750 2861 4703 
Q 3103 4656 3366 4563 
z
" transform="scale(0.015625)"/>
       </defs>
       <use xlink:href="#DejaVuSans-31"/>
       <use xlink:href="#DejaVuSans-33" x="63.623047"/>
       <use xlink:href="#DejaVuSans-2e" x="127.246094"/>
       <use xlink:href="#DejaVuSans-33" x="159.033203"/>
       <use xlink:href="#DejaVuSans-36" x="222.65625"/>
      </g>
     </g>
    </g>
    <g id="xtick_2">
     <g id="line2d_2">
      <g>
       <use xlink:href="#m34a49b42a3" x="161.414454" y="307.584" style="stroke: #000000; stroke-width: 0.8"/>
      </g>
     </g>
     <g id="text_2">
      <!-- 13.37 -->
      <g transform="translate(147.100391 322.182437) scale(0.1 -0.1)">
       <defs>
        <path id="DejaVuSans-37" d="M 525 4666 
L 3525 4666 
L 3525 4397 
L 1831 0 
L 1172 0 
L 2766 4134 
L 525 4134 
L 525 4666 
z
" transform="scale(0.015625)"/>
       </defs>
       <use xlink:href="#DejaVuSans-31"/>
       <use xlink:href="#DejaVuSans-33" x="63.623047"/>
       <use xlink:href="#DejaVuSans-2e" x="127.246094"/>
       <use xlink:href="#DejaVuSans-33" x="159.033203"/>
       <use xlink:href="#DejaVuSans-37" x="222.65625"/>
      </g>
     </g>
    </g>
    <g id="xtick_3">
     <g id="line2d_3">
      <g>
       <use xlink:href="#m34a49b42a3" x="196.778253" y="307.584" style="stroke: #000000; stroke-width: 0.8"/>
      </g>
     </g>
     <g id="text_3">
      <!-- 13.38 -->
      <g transform="translate(182.46419 322.182437) scale(0.1 -0.1)">
       <defs>
        <path id="DejaVuSans-38" d="M 2034 2216 
Q 1584 2216 1326 1975 
Q 1069 1734 1069 1313 
Q 1069 891 1326 650 
Q 1584 409 2034 409 
Q 2484 409 2743 651 
Q 3003 894 3003 1313 
Q 3003 1734 2745 1975 
Q 2488 2216 2034 2216 
z
M 1403 2484 
Q 997 2584 770 2862 
Q 544 3141 544 3541 
Q 544 4100 942 4425 
Q 1341 4750 2034 4750 
Q 2731 4750 3128 4425 
Q 3525 4100 3525 3541 
Q 3525 3141 3298 2862 
Q 3072 2584 2669 2484 
Q 3125 2378 3379 2068 
Q 3634 1759 3634 1313 
Q 3634 634 3220 271 
Q 2806 -91 2034 -91 
Q 1263 -91 848 271 
Q 434 634 434 1313 
Q 434 1759 690 2068 
Q 947 2378 1403 2484 
z
M 1172 3481 
Q 1172 3119 1398 2916 
Q 1625 2713 2034 2713 
Q 2441 2713 2670 2916 
Q 2900 3119 2900 3481 
Q 2900 3844 2670 4047 
Q 2441 4250 2034 4250 
Q 1625 4250 1398 4047 
Q 1172 3844 1172 3481 
z
" transform="scale(0.015625)"/>
       </defs>
       <use xlink:href="#DejaVuSans-31"/>
       <use xlink:href="#DejaVuSans-33" x="63.623047"/>
       <use xlink:href="#DejaVuSans-2e" x="127.246094"/>
       <use xlink:href="#DejaVuSans-33" x="159.033203"/>
       <use xlink:href="#DejaVuSans-38" x="222.65625"/>
      </g>
     </g>
    </g>
    <g id="xtick_4">
     <g id="line2d_4">
      <g>
       <use xlink:href="#m34a49b42a3" x="232.142052" y="307.584" style="stroke: #000000; stroke-width: 0.8"/>
      </g>
     </g>
     <g id="text_4">
      <!-- 13.39 -->
      <g transform="translate(217.827989 322.182437) scale(0.1 -0.1)">
       <defs>
        <path id="DejaVuSans-39" d="M 703 97 
L 703 672 
Q 941 559 1184 500 
Q 1428 441 1663 441 
Q 2288 441 2617 861 
Q 2947 1281 2994 2138 
Q 2813 1869 2534 1725 
Q 2256 1581 1919 1581 
Q 1219 1581 811 2004 
Q 403 2428 403 3163 
Q 403 3881 828 4315 
Q 1253 4750 1959 4750 
Q 2769 4750 3195 4129 
Q 3622 3509 3622 2328 
Q 3622 1225 3098 567 
Q 2575 -91 1691 -91 
Q 1453 -91 1209 -44 
Q 966 3 703 97 
z
M 1959 2075 
Q 2384 2075 2632 2365 
Q 2881 2656 2881 3163 
Q 2881 3666 2632 3958 
Q 2384 4250 1959 4250 
Q 1534 4250 1286 3958 
Q 1038 3666 1038 3163 
Q 1038 2656 1286 2365 
Q 1534 2075 1959 2075 
z
" transform="scale(0.015625)"/>
       </defs>
       <use xlink:href="#DejaVuSans-31"/>
       <use xlink:href="#DejaVuSans-33" x="63.623047"/>
       <use xlink:href="#DejaVuSans-2e" x="127.246094"/>
       <use xlink:href="#DejaVuSans-33" x="159.033203"/>
       <use xlink:href="#DejaVuSans-39" x="222.65625"/>
      </g>
     </g>
    </g>
    <g id="xtick_5">
     <g id="line2d_5">
      <g>
       <use xlink:href="#m34a49b42a3" x="267.50585" y="307.584" style="stroke: #000000; stroke-width: 0.8"/>
      </g>
     </g>
     <g id="text_5">
      <!-- 13.40 -->
      <g transform="translate(253.191788 322.182437) scale(0.1 -0.1)">
       <defs>
        <path id="DejaVuSans-34" d="M 2419 4116 
L 825 1625 
L 2419 1625 
L 2419 4116 
z
M 2253 4666 
L 3047 4666 
L 3047 1625 
L 3713 1625 
L 3713 1100 
L 3047 1100 
L 3047 0 
L 2419 0 
L 2419 1100 
L 313 1100 
L 313 1709 
L 2253 4666 
z
" transform="scale(0.015625)"/>
        <path id="DejaVuSans-30" d="M 2034 4250 
Q 1547 4250 1301 3770 
Q 1056 3291 1056 2328 
Q 1056 1369 1301 889 
Q 1547 409 2034 409 
Q 2525 409 2770 889 
Q 3016 1369 3016 2328 
Q 3016 3291 2770 3770 
Q 2525 4250 2034 4250 
z
M 2034 4750 
Q 2819 4750 3233 4129 
Q 3647 3509 3647 2328 
Q 3647 1150 3233 529 
Q 2819 -91 2034 -91 
Q 1250 -91 836 529 
Q 422 1150 422 2328 
Q 422 3509 836 4129 
Q 1250 4750 2034 4750 
z
" transform="scale(0.015625)"/>
       </defs>
       <use xlink:href="#DejaVuSans-31"/>
       <use xlink:href="#DejaVuSans-33" x="63.623047"/>
       <use xlink:href="#DejaVuSans-2e" x="127.246094"/>
       <use xlink:href="#DejaVuSans-34" x="159.033203"/>
       <use xlink:href="#DejaVuSans-30" x="222.65625"/>
      </g>
     </g>
    </g>
    <g id="xtick_6">
     <g id="line2d_6">
      <g>
       <use xlink:href="#m34a49b42a3" x="302.869649" y="307.584" style="stroke: #000000; stroke-width: 0.8"/>
      </g>
     </g>
     <g id="text_6">
      <!-- 13.41 -->
      <g transform="translate(288.555587 322.182437) scale(0.1 -0.1)">
       <use xlink:href="#DejaVuSans-31"/>
       <use xlink:href="#DejaVuSans-33" x="63.623047"/>
       <use xlink:href="#DejaVuSans-2e" x="127.246094"/>
       <use xlink:href="#DejaVuSans-34" x="159.033203"/>
       <use xlink:href="#DejaVuSans-31" x="222.65625"/>
      </g>
     </g>
    </g>
    <g id="xtick_7">
     <g id="line2d_7">
      <g>
       <use xlink:href="#m34a49b42a3" x="338.233448" y="307.584" style="stroke: #000000; stroke-width: 0.8"/>
      </g>
     </g>
     <g id="text_7">
      <!-- 13.42 -->
      <g transform="translate(323.919386 322.182437) scale(0.1 -0.1)">
       <defs>
        <path id="DejaVuSans-32" d="M 1228 531 
L 3431 531 
L 3431 0 
L 469 0 
L 469 531 
Q 828 903 1448 1529 
Q 2069 2156 2228 2338 
Q 2531 2678 2651 2914 
Q 2772 3150 2772 3378 
Q 2772 3750 2511 3984 
Q 2250 4219 1831 4219 
Q 1534 4219 1204 4116 
Q 875 4013 500 3803 
L 500 4441 
Q 881 4594 1212 4672 
Q 1544 4750 1819 4750 
Q 2544 4750 2975 4387 
Q 3406 4025 3406 3419 
Q 3406 3131 3298 2873 
Q 3191 2616 2906 2266 
Q 2828 2175 2409 1742 
Q 1991 1309 1228 531 
z
" transform="scale(0.015625)"/>
       </defs>
       <use xlink:href="#DejaVuSans-31"/>
       <use xlink:href="#DejaVuSans-33" x="63.623047"/>
       <use xlink:href="#DejaVuSans-2e" x="127.246094"/>
       <use xlink:href="#DejaVuSans-34" x="159.033203"/>
       <use xlink:href="#DejaVuSans-32" x="222.65625"/>
      </g>
     </g>
    </g>
    <g id="xtick_8">
     <g id="line2d_8">
      <g>
       <use xlink:href="#m34a49b42a3" x="373.597247" y="307.584" style="stroke: #000000; stroke-width: 0.8"/>
      </g>
     </g>
     <g id="text_8">
      <!-- 13.43 -->
      <g transform="translate(359.283185 322.182437) scale(0.1 -0.1)">
       <use xlink:href="#DejaVuSans-31"/>
       <use xlink:href="#DejaVuSans-33" x="63.623047"/>
       <use xlink:href="#DejaVuSans-2e" x="127.246094"/>
       <use xlink:href="#DejaVuSans-34" x="159.033203"/>
       <use xlink:href="#DejaVuSans-33" x="222.65625"/>
      </g>
     </g>
    </g>
   </g>
   <g id="matplotlib.axis_2">
    <g id="ytick_1">
     <g id="line2d_9">
      <defs>
       <path id="m8e4400a3f7" d="M 0 0 
L -3.5 0 
" style="stroke: #000000; stroke-width: 0.8"/>
      </defs>
      <g>
       <use xlink:href="#m8e4400a3f7" x="98.323086" y="261.523422" style="stroke: #000000; stroke-width: 0.8"/>
      </g>
     </g>
     <g id="text_9">
      <!-- 52.45 -->
      <g transform="translate(62.694961 265.322641) scale(0.1 -0.1)">
       <defs>
        <path id="DejaVuSans-35" d="M 691 4666 
L 3169 4666 
L 3169 4134 
L 1269 4134 
L 1269 2991 
Q 1406 3038 1543 3061 
Q 1681 3084 1819 3084 
Q 2600 3084 3056 2656 
Q 3513 2228 3513 1497 
Q 3513 744 3044 326 
Q 2575 -91 1722 -91 
Q 1428 -91 1123 -41 
Q 819 9 494 109 
L 494 744 
Q 775 591 1075 516 
Q 1375 441 1709 441 
Q 2250 441 2565 725 
Q 2881 1009 2881 1497 
Q 2881 1984 2565 2268 
Q 2250 2553 1709 2553 
Q 1456 2553 1204 2497 
Q 953 2441 691 2322 
L 691 4666 
z
" transform="scale(0.015625)"/>
       </defs>
       <use xlink:href="#DejaVuSans-35"/>
       <use xlink:href="#DejaVuSans-32" x="63.623047"/>
       <use xlink:href="#DejaVuSans-2e" x="127.246094"/>
       <use xlink:href="#DejaVuSans-34" x="159.033203"/>
       <use xlink:href="#DejaVuSans-35" x="222.65625"/>
      </g>
     </g>
    </g>
    <g id="ytick_2">
     <g id="line2d_10">
      <g>
       <use xlink:href="#m8e4400a3f7" x="98.323086" y="203.478245" style="stroke: #000000; stroke-width: 0.8"/>
      </g>
     </g>
     <g id="text_10">
      <!-- 52.46 -->
      <g transform="translate(62.694961 207.277464) scale(0.1 -0.1)">
       <use xlink:href="#DejaVuSans-35"/>
       <use xlink:href="#DejaVuSans-32" x="63.623047"/>
       <use xlink:href="#DejaVuSans-2e" x="127.246094"/>
       <use xlink:href="#DejaVuSans-34" x="159.033203"/>
       <use xlink:href="#DejaVuSans-36" x="222.65625"/>
      </g>
     </g>
    </g>
    <g id="ytick_3">
     <g id="line2d_11">
      <g>
       <use xlink:href="#m8e4400a3f7" x="98.323086" y="145.433068" style="stroke: #000000; stroke-width: 0.8"/>
      </g>
     </g>
     <g id="text_11">
      <!-- 52.47 -->
      <g transform="translate(62.694961 149.232286) scale(0.1 -0.1)">
       <use xlink:href="#DejaVuSans-35"/>
       <use xlink:href="#DejaVuSans-32" x="63.623047"/>
       <use xlink:href="#DejaVuSans-2e" x="127.246094"/>
       <use xlink:href="#DejaVuSans-34" x="159.033203"/>
       <use xlink:href="#DejaVuSans-37" x="222.65625"/>
      </g>
     </g>
    </g>
    <g id="ytick_4">
     <g id="line2d_12">
      <g>
       <use xlink:href="#m8e4400a3f7" x="98.323086" y="87.387891" style="stroke: #000000; stroke-width: 0.8"/>
      </g>
     </g>
     <g id="text_12">
      <!-- 52.48 -->
      <g transform="translate(62.694961 91.187109) scale(0.1 -0.1)">
       <use xlink:href="#DejaVuSans-35"/>
       <use xlink:href="#DejaVuSans-32" x="63.623047"/>
       <use xlink:href="#DejaVuSans-2e" x="127.246094"/>
       <use xlink:href="#DejaVuSans-34" x="159.033203"/>
       <use xlink:href="#DejaVuSans-38" x="222.65625"/>
      </g>
     </g>
    </g>
   </g>
   <g id="patch_3">
    <path d="M 98.323086 307.584 
L 98.323086 41.472 
" style="fill: none; stroke: #000000; stroke-width: 0.8; stroke-linejoin: miter; stroke-linecap: square"/>
   </g>
   <g id="patch_4">
    <path d="M 373.996914 307.584 
L 373.996914 41.472 
" style="fill: none; stroke: #000000; stroke-width: 0.8; stroke-linejoin: miter; stroke-linecap: square"/>
   </g>
   <g id="patch_5">
    <path d="M 98.323086 307.584 
L 373.996914 307.584 
" style="fill: none; stroke: #000000; stroke-width: 0.8; stroke-linejoin: miter; stroke-linecap: square"/>
   </g>
   <g id="patch_6">
    <path d="M 98.323086 41.472 
L 373.996914 41.472 
" style="fill: none; stroke: #000000; stroke-width: 0.8; stroke-linejoin: miter; stroke-linecap: square"/>
   </g>
   <g id="text_13">
    <!-- Tempelhof -->
    <g transform="translate(193.636326 171.097927) scale(0.12 -0.12)">
     <defs>
      <path id="DejaVuSans-54" d="M -19 4666 
L 3928 4666 
L 3928 4134 
L 2272 4134 
L 2272 0 
L 1638 0 
L 1638 4134 
L -19 4134 
L -19 4666 
z
" transform="scale(0.015625)"/>
      <path id="DejaVuSans-65" d="M 3597 1894 
L 3597 1613 
L 953 1613 
Q 991 1019 1311 708 
Q 1631 397 2203 397 
Q 2534 397 2845 478 
Q 3156 559 3463 722 
L 3463 178 
Q 3153 47 2828 -22 
Q 2503 -91 2169 -91 
Q 1331 -91 842 396 
Q 353 884 353 1716 
Q 353 2575 817 3079 
Q 1281 3584 2069 3584 
Q 2775 3584 3186 3129 
Q 3597 2675 3597 1894 
z
M 3022 2063 
Q 3016 2534 2758 2815 
Q 2500 3097 2075 3097 
Q 1594 3097 1305 2825 
Q 1016 2553 972 2059 
L 3022 2063 
z
" transform="scale(0.015625)"/>
      <path id="DejaVuSans-6d" d="M 3328 2828 
Q 3544 3216 3844 3400 
Q 4144 3584 4550 3584 
Q 5097 3584 5394 3201 
Q 5691 2819 5691 2113 
L 5691 0 
L 5113 0 
L 5113 2094 
Q 5113 2597 4934 2840 
Q 4756 3084 4391 3084 
Q 3944 3084 3684 2787 
Q 3425 2491 3425 1978 
L 3425 0 
L 2847 0 
L 2847 2094 
Q 2847 2600 2669 2842 
Q 2491 3084 2119 3084 
Q 1678 3084 1418 2786 
Q 1159 2488 1159 1978 
L 1159 0 
L 581 0 
L 581 3500 
L 1159 3500 
L 1159 2956 
Q 1356 3278 1631 3431 
Q 1906 3584 2284 3584 
Q 2666 3584 2933 3390 
Q 3200 3197 3328 2828 
z
" transform="scale(0.015625)"/>
      <path id="DejaVuSans-70" d="M 1159 525 
L 1159 -1331 
L 581 -1331 
L 581 3500 
L 1159 3500 
L 1159 2969 
Q 1341 3281 1617 3432 
Q 1894 3584 2278 3584 
Q 2916 3584 3314 3078 
Q 3713 2572 3713 1747 
Q 3713 922 3314 415 
Q 2916 -91 2278 -91 
Q 1894 -91 1617 61 
Q 1341 213 1159 525 
z
M 3116 1747 
Q 3116 2381 2855 2742 
Q 2594 3103 2138 3103 
Q 1681 3103 1420 2742 
Q 1159 2381 1159 1747 
Q 1159 1113 1420 752 
Q 1681 391 2138 391 
Q 2594 391 2855 752 
Q 3116 1113 3116 1747 
z
" transform="scale(0.015625)"/>
      <path id="DejaVuSans-6c" d="M 603 4863 
L 1178 4863 
L 1178 0 
L 603 0 
L 603 4863 
z
" transform="scale(0.015625)"/>
      <path id="DejaVuSans-68" d="M 3513 2113 
L 3513 0 
L 2938 0 
L 2938 2094 
Q 2938 2591 2744 2837 
Q 2550 3084 2163 3084 
Q 1697 3084 1428 2787 
Q 1159 2491 1159 1978 
L 1159 0 
L 581 0 
L 581 4863 
L 1159 4863 
L 1159 2956 
Q 1366 3272 1645 3428 
Q 1925 3584 2291 3584 
Q 2894 3584 3203 3211 
Q 3513 2838 3513 2113 
z
" transform="scale(0.015625)"/>
      <path id="DejaVuSans-6f" d="M 1959 3097 
Q 1497 3097 1228 2736 
Q 959 2375 959 1747 
Q 959 1119 1226 758 
Q 1494 397 1959 397 
Q 2419 397 2687 759 
Q 2956 1122 2956 1747 
Q 2956 2369 2687 2733 
Q 2419 3097 1959 3097 
z
M 1959 3584 
Q 2709 3584 3137 3096 
Q 3566 2609 3566 1747 
Q 3566 888 3137 398 
Q 2709 -91 1959 -91 
Q 1206 -91 779 398 
Q 353 888 353 1747 
Q 353 2609 779 3096 
Q 1206 3584 1959 3584 
z
" transform="scale(0.015625)"/>
      <path id="DejaVuSans-66" d="M 2375 4863 
L 2375 4384 
L 1825 4384 
Q 1516 4384 1395 4259 
Q 1275 4134 1275 3809 
L 1275 3500 
L 2222 3500 
L 2222 3053 
L 1275 3053 
L 1275 0 
L 697 0 
L 697 3053 
L 147 3053 
L 147 3500 
L 697 3500 
L 697 3744 
Q 697 4328 969 4595 
Q 1241 4863 1831 4863 
L 2375 4863 
z
" transform="scale(0.015625)"/>
     </defs>
     <use xlink:href="#DejaVuSans-54"/>
     <use xlink:href="#DejaVuSans-65" x="44.083984"/>
     <use xlink:href="#DejaVuSans-6d" x="105.607422"/>
     <use xlink:href="#DejaVuSans-70" x="203.019531"/>
     <use xlink:href="#DejaVuSans-65" x="266.496094"/>
     <use xlink:href="#DejaVuSans-6c" x="328.019531"/>
     <use xlink:href="#DejaVuSans-68" x="355.802734"/>
     <use xlink:href="#DejaVuSans-6f" x="419.181641"/>
     <use xlink:href="#DejaVuSans-66" x="480.363281"/>
    </g>
   </g>
  </g>
 </g>
 <defs>
  <clipPath id="p45ef84f583">
   <rect x="98.323086" y="41.472" width="275.673828" height="266.112"/>
  </clipPath>
 </defs>
</svg>
