<?xml version="1.0" encoding="utf-8" standalone="no"?>
<!DOCTYPE svg PUBLIC "-//W3C//DTD SVG 1.1//EN"
  "http://www.w3.org/Graphics/SVG/1.1/DTD/svg11.dtd">
<svg xmlns:xlink="http://www.w3.org/1999/xlink" width="460.8pt" height="345.6pt" viewBox="0 0 460.8 345.6" xmlns="http://www.w3.org/2000/svg" version="1.1">
 <metadata>
  <rdf:RDF xmlns:dc="http://purl.org/dc/elements/1.1/" xmlns:cc="http://creativecommons.org/ns#" xmlns:rdf="http://www.w3.org/1999/02/22-rdf-syntax-ns#">
   <cc:Work>
    <dc:type rdf:resource="http://purl.org/dc/dcmitype/StillImage"/>
    <dc:date>2024-10-15T09:53:26.602735</dc:date>
    <dc:format>image/svg+xml</dc:format>
    <dc:creator>
     <cc:Agent>
      <dc:title>Matplotlib v3.8.4, https://matplotlib.org/</dc:title>
     </cc:Agent>
    </dc:creator>
   </cc:Work>
  </rdf:RDF>
 </metadata>
 <defs>
  <style type="text/css">*{stroke-linejoin: round; stroke-linecap: butt}</style>
 </defs>
 <g id="figure_1">
  <g id="patch_1">
   <path d="M 0 345.6 
L 460.8 345.6 
L 460.8 0 
L 0 0 
z
" style="fill: #ffffff"/>
  </g>
  <g id="axes_1">
   <g id="patch_2">
    <path d="M 131.15879 307.584 
L 341.16121 307.584 
L 341.16121 41.472 
L 131.15879 41.472 
z
" style="fill: #ffffff"/>
   </g>
   <g id="PatchCollection_1">
    <path d="M 322.174585 257.498421 
L 322.624955 257.133512 
L 323.133027 256.650131 
L 329.18678 250.891254 
L 329.292101 250.793138 
L 329.657629 250.452433 
L 329.588696 250.378287 
L 329.098788 250.061326 
L 328.752438 249.684489 
L 328.753018 249.67232 
L 328.754501 249.623231 
L 328.80108 249.579148 
L 327.861904 248.560685 
L 327.259968 247.907795 
L 326.352759 246.924116 
L 329.468928 244.110725 
L 329.600861 243.991865 
L 330.151331 243.494904 
L 330.842483 242.870987 
L 331.615646 242.180747 
L 330.573413 241.028091 
L 330.600075 241.00397 
L 330.657999 240.951643 
L 330.208592 240.453644 
L 329.90532 240.111446 
L 329.791406 239.985382 
L 329.294004 239.434946 
L 329.093384 239.212965 
L 327.792385 237.777825 
L 327.626373 237.594681 
L 327.513183 237.469863 
L 327.203379 237.126146 
L 326.971831 236.869278 
L 326.32543 236.153137 
L 326.318341 236.15979 
L 325.907282 235.705045 
L 324.542907 234.192513 
L 322.982059 232.448879 
L 321.72002 231.053734 
L 320.831133 230.076192 
L 320.329131 229.524099 
L 319.223982 228.298422 
L 319.086894 228.149171 
L 318.938271 227.983701 
L 318.719265 227.741326 
L 317.717368 226.632509 
L 316.603229 225.397744 
L 314.193668 222.727675 
L 313.621177 222.093024 
L 313.451644 221.899622 
L 312.006667 220.28859 
L 311.442881 219.665895 
L 310.169875 218.259958 
L 309.478926 217.617532 
L 309.123771 217.224895 
L 308.3534 217.152145 
L 307.566213 217.078828 
L 307.468526 217.07027 
L 306.079216 215.492105 
L 304.956604 214.318559 
L 304.480943 213.847333 
L 304.45157 213.818219 
L 303.617433 213.025356 
L 303.453183 212.871275 
L 303.302284 212.729383 
L 302.799114 212.256333 
L 302.073585 211.57422 
L 300.677138 210.268806 
L 299.626844 209.233894 
L 298.808811 208.388229 
L 298.515164 208.07417 
L 297.956544 207.465081 
L 297.215728 206.652206 
L 297.16246 206.593757 
L 296.763956 206.150467 
L 296.899937 205.928528 
L 296.320071 205.264991 
L 295.647802 204.52256 
L 294.800125 203.595344 
L 294.479466 203.338522 
L 293.253402 201.966819 
L 293.043678 201.828484 
L 292.971826 201.781124 
L 292.865526 201.662084 
L 292.726122 201.797738 
L 292.164384 201.174735 
L 291.595911 200.547576 
L 291.856732 200.560334 
L 291.804329 200.501398 
L 291.548914 200.382183 
L 291.385113 200.211036 
L 291.222313 200.222779 
L 291.027346 200.269417 
L 290.827015 200.375386 
L 290.650753 200.517754 
L 290.136613 199.937352 
L 290.125681 199.947855 
L 289.896619 200.168009 
L 289.751869 200.307154 
L 289.398794 200.666792 
L 288.998912 201.046064 
L 288.880524 201.158356 
L 288.69123 201.337871 
L 288.479414 201.538821 
L 288.292103 201.716455 
L 288.077373 201.920136 
L 287.863065 202.123379 
L 287.678009 202.298941 
L 287.636979 202.33755 
L 287.324776 202.543279 
L 287.277187 202.587488 
L 286.621036 203.190987 
L 286.576017 203.145776 
L 286.562161 203.116683 
L 285.222142 201.647658 
L 285.006707 201.416647 
L 284.672296 201.058022 
L 285.102256 200.513227 
L 285.159189 200.441009 
L 285.088866 200.381831 
L 284.577225 199.951291 
L 284.29512 199.713863 
L 283.761757 199.265049 
L 283.629584 199.153857 
L 283.495709 199.044727 
L 282.694263 198.390128 
L 282.636941 198.342349 
L 282.350312 198.037202 
L 282.216515 197.894823 
L 282.177448 197.853297 
L 281.776932 197.427096 
L 281.411446 197.038208 
L 281.133518 196.742462 
L 280.846733 196.437474 
L 280.604368 196.179674 
L 280.599159 196.17355 
L 280.515765 196.084989 
L 280.317258 195.873865 
L 279.815244 195.339929 
L 279.429845 194.930305 
L 279.298544 194.790426 
L 278.715824 194.169597 
L 278.437128 193.872735 
L 278.408929 193.837186 
L 277.7371 192.989371 
L 276.676495 191.650964 
L 276.495156 191.422113 
L 276.192881 191.103395 
L 275.894706 190.789045 
L 275.616467 190.495679 
L 275.333564 190.197375 
L 274.967678 189.811611 
L 274.689299 189.517513 
L 274.254234 189.058894 
L 272.920336 187.52756 
L 272.623777 187.187111 
L 272.267421 186.778444 
L 271.986458 186.457696 
L 271.742438 186.179099 
L 271.504156 185.907106 
L 271.273839 185.644189 
L 270.966573 185.293995 
L 270.445814 184.696562 
L 270.111747 184.31813 
L 269.795054 183.956622 
L 269.685005 183.831015 
L 269.592391 183.725184 
L 269.295102 183.385531 
L 268.99637 183.04422 
L 268.701398 182.70716 
L 268.425214 182.39163 
L 268.256605 182.199026 
L 267.901447 181.793378 
L 267.819526 181.69982 
L 267.695924 181.574987 
L 267.548051 181.406359 
L 267.412891 181.242409 
L 267.398653 181.226219 
L 267.381468 181.206714 
L 267.306142 181.121094 
L 266.997944 180.771204 
L 266.824572 180.582415 
L 264.883963 178.382119 
L 263.951797 177.277731 
L 262.741982 175.669393 
L 261.994343 174.911644 
L 261.800161 174.709387 
L 259.826851 172.65382 
L 257.818712 171.001513 
L 257.317926 170.606849 
L 257.230328 170.444065 
L 256.890234 170.189908 
L 256.977236 170.099952 
L 256.802672 169.949299 
L 255.400498 168.739193 
L 254.3766 167.855579 
L 254.11986 167.63404 
L 253.867906 167.435059 
L 252.984871 166.607731 
L 252.918126 166.54524 
L 252.894695 166.523285 
L 252.878251 166.507876 
L 253.019006 166.299465 
L 253.366476 165.738375 
L 253.501626 165.504348 
L 253.559251 165.394385 
L 253.44208 165.27027 
L 253.456113 165.25531 
L 253.490684 165.22708 
L 253.526388 165.200331 
L 253.568129 165.172289 
L 253.610405 165.144973 
L 253.653127 165.118446 
L 253.843319 164.852355 
L 254.787644 163.22284 
L 255.562516 161.898835 
L 255.846097 161.397108 
L 256.20111 160.79565 
L 256.233955 160.755054 
L 256.25988 160.602548 
L 256.578755 160.049242 
L 256.896642 159.497654 
L 257.129918 159.311654 
L 257.226558 159.148677 
L 257.412441 158.808632 
L 257.623613 158.432755 
L 257.846489 158.030539 
L 258.111928 157.579205 
L 258.241859 157.306979 
L 258.374681 157.066282 
L 258.397896 157.078078 
L 258.417564 157.039999 
L 258.481747 156.927403 
L 259.779156 154.631334 
L 261.058663 152.385752 
L 261.762043 151.150674 
L 261.798645 151.094651 
L 261.838074 151.040565 
L 261.880241 150.988509 
L 261.924873 150.938643 
L 261.971944 150.891182 
L 262.02124 150.846131 
L 262.072856 150.803672 
L 262.126578 150.76384 
L 262.182152 150.737937 
L 262.238851 150.714652 
L 262.296557 150.694077 
L 262.355146 150.676247 
L 262.414528 150.661164 
L 262.474518 150.648831 
L 262.534996 150.639374 
L 262.685136 150.629092 
L 262.756673 150.615291 
L 262.828804 150.605008 
L 262.901315 150.598308 
L 262.974116 150.595226 
L 263.04699 150.595703 
L 263.119726 150.599836 
L 263.192108 150.607599 
L 263.264074 150.618902 
L 263.343955 150.636763 
L 263.422959 150.65808 
L 263.500935 150.683042 
L 263.577667 150.711529 
L 263.653093 150.743452 
L 263.727056 150.77872 
L 263.799371 150.817216 
L 263.869882 150.85885 
L 263.938499 150.903624 
L 264.063779 151.016446 
L 264.136253 151.087472 
L 264.221088 151.155433 
L 263.784707 150.288746 
L 263.472406 149.813877 
L 263.185676 149.217794 
L 263.009593 148.912131 
L 262.520996 148.260452 
L 262.303638 148.047013 
L 261.534708 147.473198 
L 261.092039 147.142859 
L 260.775079 146.981447 
L 260.430489 146.855333 
L 260.056904 146.717975 
L 259.961753 146.619755 
L 259.867421 146.501992 
L 259.769003 146.556235 
L 259.600195 146.647159 
L 259.559476 146.569815 
L 259.586489 146.543157 
L 259.401558 146.19243 
L 259.295517 146.248367 
L 259.120153 145.915861 
L 258.909634 146.029238 
L 258.798081 145.819736 
L 258.57576 145.37809 
L 258.488632 145.220882 
L 258.19635 144.642056 
L 257.690724 143.651575 
L 258.086248 143.457095 
L 257.555472 142.395916 
L 256.918483 142.71087 
L 256.716655 142.277211 
L 256.696982 142.276793 
L 256.616041 142.066684 
L 256.551707 141.899607 
L 256.296177 141.210725 
L 256.315649 141.202951 
L 256.292321 141.123956 
L 256.105326 140.490469 
L 255.893341 139.771789 
L 255.497955 138.218587 
L 255.477031 138.056535 
L 255.35663 137.124058 
L 255.239578 136.217528 
L 255.042739 134.693101 
L 254.813589 132.91848 
L 254.758516 130.011274 
L 255.003806 128.820458 
L 255.36721 127.056096 
L 255.675615 125.558868 
L 255.751976 125.187247 
L 256.291821 123.156903 
L 256.890486 120.9054 
L 257.062601 119.784361 
L 257.127904 118.582694 
L 257.107751 117.779637 
L 256.796896 115.87631 
L 256.240841 112.472164 
L 256.137641 111.879587 
L 256.050789 111.308892 
L 256.038927 111.220202 
L 256.027695 111.167725 
L 255.968861 110.816488 
L 255.860543 110.155571 
L 255.788321 109.702721 
L 255.679666 109.056639 
L 255.392506 107.749971 
L 254.713537 105.136365 
L 254.703792 105.099422 
L 254.57559 104.612744 
L 254.205922 103.209807 
L 254.132009 102.929343 
L 253.65041 101.131797 
L 253.450201 100.352182 
L 253.108689 98.98553 
L 253.057246 98.995846 
L 252.956233 98.714843 
L 252.968851 98.395209 
L 252.775655 97.830685 
L 252.701444 97.584765 
L 252.13415 96.142186 
L 251.408444 94.296824 
L 251.141162 93.722616 
L 250.892123 93.319639 
L 250.182857 92.276464 
L 248.95568 90.548871 
L 248.293865 89.644489 
L 247.970378 89.21919 
L 247.560565 88.75229 
L 247.331437 88.498348 
L 247.148453 88.332532 
L 246.993454 88.221513 
L 246.913149 88.168856 
L 245.168424 87.511215 
L 244.261544 87.250174 
L 243.675516 87.083569 
L 242.325331 86.829254 
L 240.349784 86.988276 
L 238.653574 87.467093 
L 238.576389 87.497879 
L 237.004258 88.309198 
L 236.374505 88.773747 
L 236.11642 88.964198 
L 235.639617 89.31689 
L 235.168016 89.663242 
L 234.834673 89.916216 
L 234.332821 90.283959 
L 233.988859 90.528686 
L 233.174242 91.14253 
L 232.331011 91.778133 
L 231.483504 92.411161 
L 230.78353 92.940177 
L 229.165871 88.788026 
L 229.079662 88.566684 
L 228.91065 88.169579 
L 228.137237 87.51523 
L 227.759431 87.380864 
L 227.263789 87.204652 
L 226.588561 86.968769 
L 226.445897 86.922165 
L 225.780777 86.700809 
L 225.609608 86.653824 
L 224.934106 86.51601 
L 224.753114 86.482771 
L 224.339881 86.459221 
L 223.880987 86.489377 
L 223.432931 86.530787 
L 223.052419 86.708248 
L 222.752252 87.345035 
L 221.786447 89.570408 
L 221.690641 89.404686 
L 221.398593 88.803821 
L 220.768497 87.507435 
L 220.627891 87.212001 
L 220.555273 87.02562 
L 220.442932 86.729436 
L 220.350216 86.431057 
L 220.275873 86.130693 
L 220.212109 85.829216 
L 220.169401 85.603767 
L 219.881208 83.774152 
L 219.818983 83.595473 
L 219.711491 83.449831 
L 218.499796 81.808301 
L 216.974342 80.04392 
L 216.582813 79.591116 
L 215.14942 78.326659 
L 211.70888 75.910874 
L 208.639794 75.085839 
L 205.949489 74.362154 
L 201.726053 72.026049 
L 201.663759 71.991576 
L 200.700132 71.447998 
L 200.600985 71.409765 
L 198.568136 70.603168 
L 198.154128 70.442631 
L 197.712022 70.267863 
L 194.639505 68.385881 
L 191.797116 66.661061 
L 190.066839 65.332128 
L 189.942752 65.23681 
L 189.682328 65.046527 
L 189.629479 64.591422 
L 189.636212 64.593888 
L 190.143177 63.918273 
L 190.773456 63.069033 
L 191.23 62.446011 
L 191.263578 62.395009 
L 191.291017 62.340638 
L 191.312934 62.281687 
L 191.310656 62.220612 
L 191.298899 62.160507 
L 191.278238 62.102556 
L 191.249027 62.048931 
L 191.209718 62.001754 
L 191.00962 61.831796 
L 190.944532 61.776512 
L 190.950343 61.767301 
L 190.789863 61.638159 
L 190.799637 61.626499 
L 190.665549 61.527182 
L 190.584858 61.467416 
L 190.064795 61.072495 
L 189.904821 60.983099 
L 189.758451 60.900782 
L 189.653121 60.84175 
L 189.502216 61.023427 
L 189.385109 61.164472 
L 189.339377 61.148286 
L 188.843467 60.979304 
L 188.843109 60.979182 
L 187.800867 60.61094 
L 187.770925 60.600834 
L 187.032145 60.356721 
L 186.420475 59.962294 
L 184.098832 58.465014 
L 182.010313 57.123378 
L 181.950517 57.095921 
L 181.879364 57.069075 
L 181.528058 56.954213 
L 179.554771 56.310445 
L 175.367778 54.944078 
L 173.479066 54.330874 
L 172.770598 54.100887 
L 172.708518 54.28083 
L 170.683683 53.630577 
L 169.733731 53.704463 
L 169.195924 53.746302 
L 167.910051 53.57002 
L 167.862564 53.568 
L 167.815066 53.571169 
L 167.768841 53.57652 
L 167.474338 53.649338 
L 167.181985 53.72951 
L 166.890241 53.810927 
L 166.599736 53.897231 
L 166.312033 53.992746 
L 166.024307 54.088569 
L 165.737511 54.18775 
L 165.451666 54.295538 
L 165.409136 54.313122 
L 165.366581 54.331044 
L 165.324988 54.352322 
L 165.261049 54.387773 
L 165.176605 54.434593 
L 164.89276 54.607116 
L 164.76611 54.679526 
L 164.722394 54.707573 
L 164.434056 54.926427 
L 164.269556 55.056016 
L 164.110543 55.169953 
L 164.045482 55.243128 
L 163.569431 55.736792 
L 163.674713 55.78718 
L 162.833841 56.817464 
L 162.8075 56.849682 
L 162.721686 56.934018 
L 162.468673 57.196469 
L 162.33493 57.335201 
L 162.189037 57.530582 
L 162.137522 57.587901 
L 161.937813 57.823367 
L 159.793891 60.460382 
L 159.598818 60.701553 
L 157.816713 62.892446 
L 157.74774 62.977282 
L 157.627492 63.109026 
L 157.496429 63.22378 
L 157.351661 63.319643 
L 157.191081 63.399882 
L 157.035671 63.459717 
L 156.862783 63.514771 
L 156.695264 63.557276 
L 156.526266 63.586521 
L 156.352038 63.609154 
L 156.175918 63.616448 
L 155.999501 63.618469 
L 155.955528 63.611496 
L 155.782287 63.577344 
L 155.027187 63.42845 
L 154.751146 63.33662 
L 154.590442 63.296858 
L 154.425691 63.278459 
L 154.154032 63.267952 
L 153.523733 63.33502 
L 153.416697 63.362625 
L 152.821015 63.587362 
L 152.549357 63.74798 
L 152.284833 63.91397 
L 152.027188 64.107688 
L 151.770164 64.338816 
L 151.232252 65.015105 
L 150.896351 65.43742 
L 149.183711 67.605275 
L 149.152744 67.644472 
L 148.824054 68.060893 
L 148.81952 68.066639 
L 146.844777 70.564896 
L 146.578246 70.901571 
L 145.936476 71.715114 
L 145.316431 72.511121 
L 143.377864 74.999126 
L 143.213833 75.208395 
L 143.115787 75.334145 
L 143.035608 75.432984 
L 142.933466 75.553542 
L 142.836895 75.660963 
L 142.726361 75.778879 
L 142.617286 75.889088 
L 142.505243 75.99669 
L 142.370836 76.118745 
L 142.236029 76.235037 
L 142.115706 76.33232 
L 142.012639 76.412743 
L 141.892664 76.500624 
L 141.494967 76.938049 
L 141.194573 77.382978 
L 141.051477 77.776948 
L 140.920983 78.235208 
L 140.897841 78.362776 
L 140.786414 79.035831 
L 140.768238 79.164919 
L 140.704354 79.752028 
L 140.829584 79.862477 
L 141.363349 80.310012 
L 141.37043 80.315815 
L 141.463727 80.393523 
L 141.737524 80.621102 
L 141.900197 80.759999 
L 142.270962 81.070796 
L 142.435422 81.208734 
L 142.538934 81.295525 
L 142.695155 81.42655 
L 142.724326 81.450724 
L 143.14114 81.799762 
L 143.586203 82.175727 
L 143.994096 82.520508 
L 144.66809 83.08463 
L 145.531433 83.810318 
L 145.683192 83.937881 
L 145.757527 84.000376 
L 145.775034 84.015102 
L 145.828335 84.059877 
L 146.273343 84.433979 
L 146.286855 84.445292 
L 146.360408 84.507067 
L 146.446974 84.579798 
L 146.513507 84.635738 
L 146.580975 84.692426 
L 146.634868 84.737711 
L 146.701681 84.79386 
L 146.771302 84.852344 
L 146.926241 84.982541 
L 146.995612 85.040846 
L 147.062113 85.096757 
L 147.117349 85.143179 
L 147.190121 85.204327 
L 147.328271 85.320428 
L 147.335168 85.326234 
L 147.425134 85.401808 
L 147.893884 85.79594 
L 150.221537 87.750761 
L 150.66348 88.121564 
L 151.271007 87.477476 
L 152.306147 86.380335 
L 154.938278 83.590326 
L 155.488408 83.007173 
L 156.008369 83.445171 
L 156.862449 84.164554 
L 157.213452 84.460157 
L 159.176179 86.11312 
L 159.434607 86.328812 
L 159.573568 86.175975 
L 159.81609 86.410092 
L 161.005984 87.559379 
L 162.901897 89.389985 
L 163.146677 89.174887 
L 164.371193 90.216098 
L 164.591017 90.398765 
L 164.818911 90.588139 
L 165.379583 91.063947 
L 165.593186 91.244755 
L 165.801558 91.421624 
L 166.2315 91.786622 
L 166.330145 91.87034 
L 166.377266 91.910251 
L 166.384289 91.916271 
L 166.662054 92.151669 
L 167.281316 92.677034 
L 167.89874 93.201151 
L 168.168203 93.429669 
L 168.179842 93.439519 
L 168.22531 93.478116 
L 168.342801 93.577825 
L 168.464259 93.681041 
L 168.471373 93.687059 
L 168.51734 93.726074 
L 168.787455 93.955071 
L 169.452043 94.518829 
L 169.500629 94.559999 
L 169.78601 94.799568 
L 169.946199 94.934527 
L 170.415368 95.329518 
L 170.794967 95.649589 
L 171.174558 95.969324 
L 171.717074 96.426142 
L 172.903381 97.425476 
L 173.610345 98.020947 
L 174.843273 99.05976 
L 175.208453 98.605682 
L 175.785529 97.888543 
L 176.366133 97.167002 
L 177.176127 96.160384 
L 177.36928 95.920443 
L 177.946407 95.20328 
L 178.120099 94.987487 
L 178.533541 94.47381 
L 179.145396 93.713573 
L 179.338529 93.938341 
L 179.531379 94.162808 
L 180.031002 94.744356 
L 180.070311 94.790271 
L 180.091142 94.797286 
L 180.092678 94.796055 
L 180.113033 94.819535 
L 180.39995 95.15067 
L 181.188576 96.061101 
L 181.767398 96.726522 
L 181.7723 96.722211 
L 181.907688 96.878712 
L 182.084861 97.083869 
L 182.112685 97.059574 
L 182.967218 98.045939 
L 184.192973 99.463512 
L 185.482865 100.947511 
L 185.437626 101.510072 
L 185.554301 101.645731 
L 186.63813 102.896737 
L 187.020401 103.339254 
L 187.954699 104.421817 
L 188.706521 105.288741 
L 189.846897 106.603801 
L 190.428413 107.281539 
L 190.77629 107.686701 
L 190.854868 107.777372 
L 191.157902 108.126787 
L 191.268418 108.2542 
L 191.579114 108.61251 
L 192.673621 109.874844 
L 193.283321 110.578302 
L 193.759165 111.127122 
L 195.085109 112.65624 
L 195.432625 113.057122 
L 195.46639 113.096344 
L 197.497436 115.445332 
L 198.748716 116.892412 
L 199.750998 118.04739 
L 199.944688 118.27059 
L 203.927763 122.881484 
L 205.022474 124.148845 
L 204.98273 124.464364 
L 204.92732 124.893743 
L 204.87039 125.328067 
L 204.824878 125.66047 
L 204.627279 127.170284 
L 204.511747 127.775499 
L 204.434747 128.179028 
L 203.78517 131.214833 
L 203.012532 134.092295 
L 202.970768 134.746601 
L 203.035741 135.200287 
L 203.19432 135.753787 
L 203.405619 136.349547 
L 203.717772 136.991089 
L 203.930492 137.411971 
L 204.040615 137.629856 
L 204.080255 137.698182 
L 204.097673 137.730999 
L 205.052572 139.382837 
L 205.864764 140.789193 
L 206.651636 142.032797 
L 207.620378 143.563922 
L 207.937366 144.064641 
L 208.397841 144.792722 
L 208.694266 145.261245 
L 208.84478 145.499356 
L 209.350443 146.282049 
L 209.89894 147.131039 
L 209.966821 147.237388 
L 210.249713 147.680474 
L 210.499413 148.071797 
L 211.480213 149.629431 
L 214.063111 153.732634 
L 214.174597 153.910085 
L 214.295251 154.1026 
L 214.296074 154.103902 
L 214.313093 154.131019 
L 214.334646 154.160938 
L 214.368053 154.207312 
L 214.370324 154.210457 
L 215.440708 155.696255 
L 215.478534 155.74872 
L 216.687372 157.066279 
L 217.042535 157.528264 
L 219.735273 161.753792 
L 219.867302 161.960623 
L 220.022092 162.204242 
L 220.180413 162.449722 
L 221.17859 164.01442 
L 221.334476 164.348245 
L 221.469877 164.848436 
L 221.485853 165.171524 
L 221.489731 165.265722 
L 221.615875 168.281454 
L 220.56183 170.831246 
L 219.625378 173.096673 
L 219.239573 174.02997 
L 219.137803 174.272809 
L 218.94719 174.727684 
L 218.803423 175.070769 
L 218.707254 175.194005 
L 217.381026 176.872719 
L 215.891995 178.757478 
L 215.718434 179.224873 
L 215.050748 181.023163 
L 215.050095 181.024938 
L 215.024854 181.093554 
L 214.946946 181.305682 
L 214.923511 181.369266 
L 214.816711 181.659155 
L 214.719478 181.908962 
L 214.692782 181.977619 
L 214.592558 182.198754 
L 214.190115 183.675839 
L 214.131521 184.630562 
L 214.12973 184.65605 
L 214.132407 184.756997 
L 214.13507 184.855856 
L 214.13511 184.857327 
L 214.163244 185.888501 
L 214.163654 185.903259 
L 214.164884 185.947502 
L 214.16886 186.094164 
L 210.859743 185.940678 
L 208.437904 185.805014 
L 208.218789 185.821449 
L 207.77434 185.803366 
L 207.556981 185.775311 
L 207.408853 185.768874 
L 201.515407 185.512262 
L 192.937837 185.143242 
L 188.952972 184.971974 
L 186.176572 184.852706 
L 184.388704 184.775948 
L 182.150563 184.679856 
L 180.149066 184.608422 
L 180.039477 184.604381 
L 179.712876 184.588865 
L 179.53748 184.580398 
L 177.489372 184.483012 
L 177.345148 184.58523 
L 177.262399 184.406516 
L 177.040841 184.413163 
L 176.868424 184.498579 
L 176.773224 184.619396 
L 176.732232 184.766468 
L 176.74391 184.920793 
L 176.820863 185.101964 
L 177.175986 185.795214 
L 177.264674 186.028508 
L 177.379126 186.41334 
L 177.691577 187.189443 
L 177.705447 187.223868 
L 177.808868 187.480456 
L 177.918782 187.752992 
L 180.518148 193.055711 
L 180.747927 193.558392 
L 180.974957 193.92332 
L 183.089246 199.045257 
L 183.773067 200.702788 
L 183.944592 201.163893 
L 184.040134 201.42096 
L 184.210334 201.87887 
L 184.39355 202.321151 
L 184.429116 202.407058 
L 184.554662 202.710241 
L 185.823719 205.7755 
L 185.95174 206.084526 
L 186.0326 206.25033 
L 186.080214 206.326923 
L 186.135466 206.405686 
L 186.578075 206.984297 
L 186.736067 207.294772 
L 187.271132 208.568489 
L 187.625144 209.359965 
L 187.812677 209.744043 
L 188.360531 210.871051 
L 188.403825 211.073178 
L 188.473242 211.455971 
L 188.512807 211.629565 
L 188.522984 211.663302 
L 188.550751 211.755578 
L 188.551862 211.845475 
L 188.571279 211.913552 
L 188.74579 211.803944 
L 188.860185 211.996193 
L 188.973709 212.186978 
L 189.141497 212.102504 
L 189.286422 212.181351 
L 189.395413 212.340048 
L 189.862069 213.281645 
L 190.3005 214.072003 
L 190.852368 214.95539 
L 191.16971 215.366177 
L 191.524103 215.800489 
L 191.807293 216.131233 
L 192.072044 216.435631 
L 192.49933 216.896175 
L 192.864968 217.289358 
L 193.289137 217.733025 
L 193.296824 217.740383 
L 193.671703 218.114886 
L 193.770007 218.213093 
L 194.232115 218.653006 
L 194.707389 219.087361 
L 195.151292 219.465927 
L 195.467088 219.741092 
L 195.802746 220.017431 
L 197.083134 221.036378 
L 198.748467 222.360412 
L 199.891215 223.271145 
L 202.817321 225.603202 
L 204.20871 226.712166 
L 207.736206 229.522937 
L 208.971054 230.506509 
L 209.483496 230.914456 
L 210.859003 232.010956 
L 213.204771 233.868853 
L 213.626471 234.200297 
L 213.802394 234.341385 
L 214.346973 234.770742 
L 216.029171 236.102008 
L 216.559953 236.522179 
L 216.658914 236.59042 
L 216.752052 236.646688 
L 216.873951 236.709624 
L 216.998889 236.756931 
L 217.119501 236.795027 
L 217.290342 236.849008 
L 217.43426 236.905154 
L 217.562592 236.96688 
L 217.719135 237.070253 
L 218.179298 237.439794 
L 220.521391 239.305987 
L 220.657467 239.423242 
L 220.807687 239.566846 
L 220.969683 239.790206 
L 221.032281 239.880585 
L 221.204538 240.181554 
L 221.261034 240.280228 
L 221.273294 240.301398 
L 221.312001 240.370669 
L 221.360793 240.436227 
L 221.428788 240.50669 
L 221.440805 240.519208 
L 221.508242 240.589346 
L 221.611974 240.58912 
L 221.899109 240.81868 
L 222.028093 240.91171 
L 222.149744 240.999523 
L 222.698827 241.396365 
L 222.842875 241.524628 
L 228.00145 245.660635 
L 228.069784 245.715407 
L 229.010521 246.469595 
L 229.028916 246.488579 
L 229.656183 246.991465 
L 230.250333 247.468372 
L 230.898108 247.987777 
L 231.520756 248.487022 
L 232.139424 248.983498 
L 232.758669 249.479996 
L 232.821799 249.530489 
L 233.230239 249.857078 
L 233.37853 249.972461 
L 233.486992 250.052332 
L 233.527441 250.082335 
L 233.643182 250.138568 
L 233.779431 250.194769 
L 234.010881 250.279298 
L 234.266517 250.377288 
L 234.279077 250.382182 
L 234.493763 250.489169 
L 234.640509 250.596573 
L 236.771835 252.294793 
L 239.496289 254.465648 
L 243.305889 257.501361 
L 243.488798 257.651363 
L 243.545801 257.703432 
L 243.664998 257.814277 
L 243.682494 257.837242 
L 243.776649 257.961046 
L 243.9789 258.303409 
L 244.01725 258.37389 
L 244.10314 258.496179 
L 244.155257 258.554675 
L 244.298653 258.676833 
L 244.720228 259.016348 
L 244.756405 259.045737 
L 244.79162 259.074502 
L 245.236179 259.437575 
L 246.194513 260.204426 
L 247.104743 260.928083 
L 248.029962 261.666475 
L 248.074684 261.702102 
L 248.555355 262.084936 
L 248.94167 262.392905 
L 249.08352 262.505859 
L 249.399371 262.757527 
L 249.60984 262.924981 
L 249.85492 263.120292 
L 250.242472 263.427624 
L 250.290554 263.467418 
L 250.719773 263.809369 
L 250.87112 263.928757 
L 251.495765 264.42746 
L 251.612469 264.520526 
L 252.124399 264.928322 
L 252.492925 265.221905 
L 252.752716 265.428856 
L 253.381029 265.929393 
L 253.401541 265.94591 
L 254.033212 266.449204 
L 254.287486 266.651575 
L 254.678071 266.962908 
L 254.833047 267.067273 
L 254.970541 267.140352 
L 255.142871 267.210922 
L 255.414688 267.304619 
L 255.501005 267.339134 
L 255.67855 267.410302 
L 255.841466 267.509437 
L 256.000142 267.626988 
L 257.99591 269.216806 
L 258.395656 269.535203 
L 260.183075 270.962206 
L 260.389908 271.168033 
L 260.450614 271.241276 
L 261.015096 272.001548 
L 261.019818 272.007896 
L 261.104628 272.12199 
L 261.243332 272.194773 
L 261.519935 272.415203 
L 261.674304 272.532144 
L 261.597981 272.610516 
L 261.843624 272.790209 
L 261.860204 272.801652 
L 262.027085 272.91692 
L 262.217782 272.998506 
L 262.538825 273.095211 
L 262.826216 273.182149 
L 263.068934 273.27837 
L 263.196337 273.365604 
L 263.478759 273.592456 
L 263.881575 273.913934 
L 264.282833 274.234187 
L 264.714728 274.578333 
L 265.127618 274.907771 
L 265.334696 275.072799 
L 265.551854 275.245784 
L 265.758625 275.41082 
L 265.974887 275.583487 
L 266.226362 275.783726 
L 266.390833 275.914461 
L 266.78107 276.226139 
L 266.862531 276.291063 
L 267.246341 276.59692 
L 267.747147 276.996189 
L 267.808392 277.045478 
L 268.078539 277.261019 
L 268.853773 277.878907 
L 269.91019 278.721202 
L 271.564764 280.038709 
L 272.541802 280.817373 
L 273.659437 281.708371 
L 274.573076 282.436513 
L 275.369388 283.071557 
L 275.804588 283.418183 
L 277.065193 284.422499 
L 278.224412 285.345701 
L 278.662077 285.69081 
L 279.123908 286.047515 
L 279.60316 286.403278 
L 280.130788 286.788708 
L 280.15681 286.80708 
L 280.622257 287.134642 
L 281.109742 287.475963 
L 281.278121 287.585235 
L 281.623187 287.810484 
L 282.134819 288.135835 
L 282.713138 288.494498 
L 283.421882 288.923528 
L 284.096019 289.309684 
L 284.318887 289.442483 
L 284.802262 289.714181 
L 284.817267 289.722129 
L 285.168979 289.905037 
L 285.651102 290.154659 
L 286.128904 290.39814 
L 286.164122 290.415863 
L 286.466249 290.568485 
L 286.540297 290.607047 
L 287.037074 290.840346 
L 287.34896 290.982545 
L 287.718706 291.151332 
L 288.22185 291.374525 
L 288.772181 291.629225 
L 289.387022 291.888764 
L 289.952312 292.121055 
L 290.14418 292.190095 
L 290.792318 292.415827 
L 291.447161 292.640317 
L 292.109367 292.8599 
L 292.659247 293.039439 
L 293.502523 293.291271 
L 294.161603 293.479552 
L 294.871756 293.668072 
L 295.55835 293.838845 
L 296.211839 293.994923 
L 296.826785 294.127761 
L 297.169757 294.206373 
L 297.948959 294.351241 
L 298.657788 294.48301 
L 299.297772 294.592501 
L 299.984839 294.69117 
L 300.632723 294.769651 
L 301.313653 294.849603 
L 301.856288 294.909226 
L 302.107417 294.931871 
L 302.397388 294.958107 
L 303.479912 295.059889 
L 304.930402 295.19393 
L 306.52921 295.341914 
L 307.365448 295.393128 
L 307.640783 295.453475 
L 307.744514 295.488 
L 307.712505 295.33046 
L 307.660428 295.074202 
L 307.57726 294.66496 
L 307.576923 294.663432 
L 307.522048 294.393048 
L 307.404712 293.814952 
L 307.409589 293.808067 
L 307.414374 293.801092 
L 307.419065 293.794057 
L 307.29645 293.18976 
L 306.805991 290.774657 
L 306.799832 290.744268 
L 306.671988 290.084843 
L 306.543386 289.421516 
L 306.526756 289.339919 
L 306.363169 288.532248 
L 306.161044 287.536809 
L 306.00176 286.75275 
L 305.871127 286.108555 
L 304.961552 281.628687 
L 304.683918 280.262073 
L 304.618561 279.940515 
L 304.597906 279.838739 
L 303.891467 276.362552 
L 303.656621 275.206707 
L 303.626068 275.056445 
L 303.749629 274.939023 
L 305.241415 273.521499 
L 305.310013 273.456386 
L 305.618503 273.163275 
L 305.693524 273.091982 
L 307.519873 271.356643 
L 307.614139 271.267057 
L 308.117747 270.788567 
L 308.213125 270.697915 
L 308.79134 270.148512 
L 308.866694 270.076907 
L 309.173638 269.785309 
L 309.248933 269.713797 
L 312.368954 266.749409 
L 312.444589 266.677892 
L 312.752052 266.385615 
L 312.826638 266.315163 
L 313.888287 265.306111 
L 314.311951 264.903605 
L 314.387281 264.832034 
L 314.694846 264.539882 
L 314.769755 264.468688 
L 316.275861 263.037874 
L 316.344047 262.973112 
L 316.65216 262.680461 
L 316.720406 262.615606 
L 317.479013 261.894951 
L 317.546299 261.831038 
L 317.949596 261.447902 
L 318.016942 261.383925 
L 319.16031 260.297808 
L 319.228408 260.233111 
L 319.537162 259.939839 
L 319.605621 259.874797 
L 321.56741 258.011298 
L 321.592692 257.987295 
L 321.668719 257.915069 
L 321.673914 257.910143 
L 321.685894 257.898771 
L 321.718296 257.868128 
L 322.174585 257.498421 
" clip-path="url(#pc43d5ee08c)" style="fill: #1f77b4"/>
   </g>
   <g id="matplotlib.axis_1">
    <g id="xtick_1">
     <g id="line2d_1">
      <defs>
       <path id="m2f2581148e" d="M 0 0 
L 0 3.5 
" style="stroke: #000000; stroke-width: 0.8"/>
      </defs>
      <g>
       <use xlink:href="#m2f2581148e" x="141.417574" y="307.584" style="stroke: #000000; stroke-width: 0.8"/>
      </g>
     </g>
     <g id="text_1">
      <!-- 13.44 -->
      <g transform="translate(127.103512 322.182437) scale(0.1 -0.1)">
       <defs>
        <path id="DejaVuSans-31" d="M 794 531 
L 1825 531 
L 1825 4091 
L 703 3866 
L 703 4441 
L 1819 4666 
L 2450 4666 
L 2450 531 
L 3481 531 
L 3481 0 
L 794 0 
L 794 531 
z
" transform="scale(0.015625)"/>
        <path id="DejaVuSans-33" d="M 2597 2516 
Q 3050 2419 3304 2112 
Q 3559 1806 3559 1356 
Q 3559 666 3084 287 
Q 2609 -91 1734 -91 
Q 1441 -91 1130 -33 
Q 819 25 488 141 
L 488 750 
Q 750 597 1062 519 
Q 1375 441 1716 441 
Q 2309 441 2620 675 
Q 2931 909 2931 1356 
Q 2931 1769 2642 2001 
Q 2353 2234 1838 2234 
L 1294 2234 
L 1294 2753 
L 1863 2753 
Q 2328 2753 2575 2939 
Q 2822 3125 2822 3475 
Q 2822 3834 2567 4026 
Q 2313 4219 1838 4219 
Q 1578 4219 1281 4162 
Q 984 4106 628 3988 
L 628 4550 
Q 988 4650 1302 4700 
Q 1616 4750 1894 4750 
Q 2613 4750 3031 4423 
Q 3450 4097 3450 3541 
Q 3450 3153 3228 2886 
Q 3006 2619 2597 2516 
z
" transform="scale(0.015625)"/>
        <path id="DejaVuSans-2e" d="M 684 794 
L 1344 794 
L 1344 0 
L 684 0 
L 684 794 
z
" transform="scale(0.015625)"/>
        <path id="DejaVuSans-34" d="M 2419 4116 
L 825 1625 
L 2419 1625 
L 2419 4116 
z
M 2253 4666 
L 3047 4666 
L 3047 1625 
L 3713 1625 
L 3713 1100 
L 3047 1100 
L 3047 0 
L 2419 0 
L 2419 1100 
L 313 1100 
L 313 1709 
L 2253 4666 
z
" transform="scale(0.015625)"/>
       </defs>
       <use xlink:href="#DejaVuSans-31"/>
       <use xlink:href="#DejaVuSans-33" x="63.623047"/>
       <use xlink:href="#DejaVuSans-2e" x="127.246094"/>
       <use xlink:href="#DejaVuSans-34" x="159.033203"/>
       <use xlink:href="#DejaVuSans-34" x="222.65625"/>
      </g>
     </g>
    </g>
    <g id="xtick_2">
     <g id="line2d_2">
      <g>
       <use xlink:href="#m2f2581148e" x="183.025732" y="307.584" style="stroke: #000000; stroke-width: 0.8"/>
      </g>
     </g>
     <g id="text_2">
      <!-- 13.46 -->
      <g transform="translate(168.71167 322.182437) scale(0.1 -0.1)">
       <defs>
        <path id="DejaVuSans-36" d="M 2113 2584 
Q 1688 2584 1439 2293 
Q 1191 2003 1191 1497 
Q 1191 994 1439 701 
Q 1688 409 2113 409 
Q 2538 409 2786 701 
Q 3034 994 3034 1497 
Q 3034 2003 2786 2293 
Q 2538 2584 2113 2584 
z
M 3366 4563 
L 3366 3988 
Q 3128 4100 2886 4159 
Q 2644 4219 2406 4219 
Q 1781 4219 1451 3797 
Q 1122 3375 1075 2522 
Q 1259 2794 1537 2939 
Q 1816 3084 2150 3084 
Q 2853 3084 3261 2657 
Q 3669 2231 3669 1497 
Q 3669 778 3244 343 
Q 2819 -91 2113 -91 
Q 1303 -91 875 529 
Q 447 1150 447 2328 
Q 447 3434 972 4092 
Q 1497 4750 2381 4750 
Q 2619 4750 2861 4703 
Q 3103 4656 3366 4563 
z
" transform="scale(0.015625)"/>
       </defs>
       <use xlink:href="#DejaVuSans-31"/>
       <use xlink:href="#DejaVuSans-33" x="63.623047"/>
       <use xlink:href="#DejaVuSans-2e" x="127.246094"/>
       <use xlink:href="#DejaVuSans-34" x="159.033203"/>
       <use xlink:href="#DejaVuSans-36" x="222.65625"/>
      </g>
     </g>
    </g>
    <g id="xtick_3">
     <g id="line2d_3">
      <g>
       <use xlink:href="#m2f2581148e" x="224.63389" y="307.584" style="stroke: #000000; stroke-width: 0.8"/>
      </g>
     </g>
     <g id="text_3">
      <!-- 13.48 -->
      <g transform="translate(210.319828 322.182437) scale(0.1 -0.1)">
       <defs>
        <path id="DejaVuSans-38" d="M 2034 2216 
Q 1584 2216 1326 1975 
Q 1069 1734 1069 1313 
Q 1069 891 1326 650 
Q 1584 409 2034 409 
Q 2484 409 2743 651 
Q 3003 894 3003 1313 
Q 3003 1734 2745 1975 
Q 2488 2216 2034 2216 
z
M 1403 2484 
Q 997 2584 770 2862 
Q 544 3141 544 3541 
Q 544 4100 942 4425 
Q 1341 4750 2034 4750 
Q 2731 4750 3128 4425 
Q 3525 4100 3525 3541 
Q 3525 3141 3298 2862 
Q 3072 2584 2669 2484 
Q 3125 2378 3379 2068 
Q 3634 1759 3634 1313 
Q 3634 634 3220 271 
Q 2806 -91 2034 -91 
Q 1263 -91 848 271 
Q 434 634 434 1313 
Q 434 1759 690 2068 
Q 947 2378 1403 2484 
z
M 1172 3481 
Q 1172 3119 1398 2916 
Q 1625 2713 2034 2713 
Q 2441 2713 2670 2916 
Q 2900 3119 2900 3481 
Q 2900 3844 2670 4047 
Q 2441 4250 2034 4250 
Q 1625 4250 1398 4047 
Q 1172 3844 1172 3481 
z
" transform="scale(0.015625)"/>
       </defs>
       <use xlink:href="#DejaVuSans-31"/>
       <use xlink:href="#DejaVuSans-33" x="63.623047"/>
       <use xlink:href="#DejaVuSans-2e" x="127.246094"/>
       <use xlink:href="#DejaVuSans-34" x="159.033203"/>
       <use xlink:href="#DejaVuSans-38" x="222.65625"/>
      </g>
     </g>
    </g>
    <g id="xtick_4">
     <g id="line2d_4">
      <g>
       <use xlink:href="#m2f2581148e" x="266.242048" y="307.584" style="stroke: #000000; stroke-width: 0.8"/>
      </g>
     </g>
     <g id="text_4">
      <!-- 13.50 -->
      <g transform="translate(251.927985 322.182437) scale(0.1 -0.1)">
       <defs>
        <path id="DejaVuSans-35" d="M 691 4666 
L 3169 4666 
L 3169 4134 
L 1269 4134 
L 1269 2991 
Q 1406 3038 1543 3061 
Q 1681 3084 1819 3084 
Q 2600 3084 3056 2656 
Q 3513 2228 3513 1497 
Q 3513 744 3044 326 
Q 2575 -91 1722 -91 
Q 1428 -91 1123 -41 
Q 819 9 494 109 
L 494 744 
Q 775 591 1075 516 
Q 1375 441 1709 441 
Q 2250 441 2565 725 
Q 2881 1009 2881 1497 
Q 2881 1984 2565 2268 
Q 2250 2553 1709 2553 
Q 1456 2553 1204 2497 
Q 953 2441 691 2322 
L 691 4666 
z
" transform="scale(0.015625)"/>
        <path id="DejaVuSans-30" d="M 2034 4250 
Q 1547 4250 1301 3770 
Q 1056 3291 1056 2328 
Q 1056 1369 1301 889 
Q 1547 409 2034 409 
Q 2525 409 2770 889 
Q 3016 1369 3016 2328 
Q 3016 3291 2770 3770 
Q 2525 4250 2034 4250 
z
M 2034 4750 
Q 2819 4750 3233 4129 
Q 3647 3509 3647 2328 
Q 3647 1150 3233 529 
Q 2819 -91 2034 -91 
Q 1250 -91 836 529 
Q 422 1150 422 2328 
Q 422 3509 836 4129 
Q 1250 4750 2034 4750 
z
" transform="scale(0.015625)"/>
       </defs>
       <use xlink:href="#DejaVuSans-31"/>
       <use xlink:href="#DejaVuSans-33" x="63.623047"/>
       <use xlink:href="#DejaVuSans-2e" x="127.246094"/>
       <use xlink:href="#DejaVuSans-35" x="159.033203"/>
       <use xlink:href="#DejaVuSans-30" x="222.65625"/>
      </g>
     </g>
    </g>
    <g id="xtick_5">
     <g id="line2d_5">
      <g>
       <use xlink:href="#m2f2581148e" x="307.850206" y="307.584" style="stroke: #000000; stroke-width: 0.8"/>
      </g>
     </g>
     <g id="text_5">
      <!-- 13.52 -->
      <g transform="translate(293.536143 322.182437) scale(0.1 -0.1)">
       <defs>
        <path id="DejaVuSans-32" d="M 1228 531 
L 3431 531 
L 3431 0 
L 469 0 
L 469 531 
Q 828 903 1448 1529 
Q 2069 2156 2228 2338 
Q 2531 2678 2651 2914 
Q 2772 3150 2772 3378 
Q 2772 3750 2511 3984 
Q 2250 4219 1831 4219 
Q 1534 4219 1204 4116 
Q 875 4013 500 3803 
L 500 4441 
Q 881 4594 1212 4672 
Q 1544 4750 1819 4750 
Q 2544 4750 2975 4387 
Q 3406 4025 3406 3419 
Q 3406 3131 3298 2873 
Q 3191 2616 2906 2266 
Q 2828 2175 2409 1742 
Q 1991 1309 1228 531 
z
" transform="scale(0.015625)"/>
       </defs>
       <use xlink:href="#DejaVuSans-31"/>
       <use xlink:href="#DejaVuSans-33" x="63.623047"/>
       <use xlink:href="#DejaVuSans-2e" x="127.246094"/>
       <use xlink:href="#DejaVuSans-35" x="159.033203"/>
       <use xlink:href="#DejaVuSans-32" x="222.65625"/>
      </g>
     </g>
    </g>
   </g>
   <g id="matplotlib.axis_2">
    <g id="ytick_1">
     <g id="line2d_6">
      <defs>
       <path id="m3dd72c25e0" d="M 0 0 
L -3.5 0 
" style="stroke: #000000; stroke-width: 0.8"/>
      </defs>
      <g>
       <use xlink:href="#m3dd72c25e0" x="131.15879" y="284.310614" style="stroke: #000000; stroke-width: 0.8"/>
      </g>
     </g>
     <g id="text_6">
      <!-- 52.43 -->
      <g transform="translate(95.530665 288.109833) scale(0.1 -0.1)">
       <use xlink:href="#DejaVuSans-35"/>
       <use xlink:href="#DejaVuSans-32" x="63.623047"/>
       <use xlink:href="#DejaVuSans-2e" x="127.246094"/>
       <use xlink:href="#DejaVuSans-34" x="159.033203"/>
       <use xlink:href="#DejaVuSans-33" x="222.65625"/>
      </g>
     </g>
    </g>
    <g id="ytick_2">
     <g id="line2d_7">
      <g>
       <use xlink:href="#m3dd72c25e0" x="131.15879" y="250.165565" style="stroke: #000000; stroke-width: 0.8"/>
      </g>
     </g>
     <g id="text_7">
      <!-- 52.44 -->
      <g transform="translate(95.530665 253.964784) scale(0.1 -0.1)">
       <use xlink:href="#DejaVuSans-35"/>
       <use xlink:href="#DejaVuSans-32" x="63.623047"/>
       <use xlink:href="#DejaVuSans-2e" x="127.246094"/>
       <use xlink:href="#DejaVuSans-34" x="159.033203"/>
       <use xlink:href="#DejaVuSans-34" x="222.65625"/>
      </g>
     </g>
    </g>
    <g id="ytick_3">
     <g id="line2d_8">
      <g>
       <use xlink:href="#m3dd72c25e0" x="131.15879" y="216.020515" style="stroke: #000000; stroke-width: 0.8"/>
      </g>
     </g>
     <g id="text_8">
      <!-- 52.45 -->
      <g transform="translate(95.530665 219.819734) scale(0.1 -0.1)">
       <use xlink:href="#DejaVuSans-35"/>
       <use xlink:href="#DejaVuSans-32" x="63.623047"/>
       <use xlink:href="#DejaVuSans-2e" x="127.246094"/>
       <use xlink:href="#DejaVuSans-34" x="159.033203"/>
       <use xlink:href="#DejaVuSans-35" x="222.65625"/>
      </g>
     </g>
    </g>
    <g id="ytick_4">
     <g id="line2d_9">
      <g>
       <use xlink:href="#m3dd72c25e0" x="131.15879" y="181.875466" style="stroke: #000000; stroke-width: 0.8"/>
      </g>
     </g>
     <g id="text_9">
      <!-- 52.46 -->
      <g transform="translate(95.530665 185.674685) scale(0.1 -0.1)">
       <use xlink:href="#DejaVuSans-35"/>
       <use xlink:href="#DejaVuSans-32" x="63.623047"/>
       <use xlink:href="#DejaVuSans-2e" x="127.246094"/>
       <use xlink:href="#DejaVuSans-34" x="159.033203"/>
       <use xlink:href="#DejaVuSans-36" x="222.65625"/>
      </g>
     </g>
    </g>
    <g id="ytick_5">
     <g id="line2d_10">
      <g>
       <use xlink:href="#m3dd72c25e0" x="131.15879" y="147.730417" style="stroke: #000000; stroke-width: 0.8"/>
      </g>
     </g>
     <g id="text_10">
      <!-- 52.47 -->
      <g transform="translate(95.530665 151.529635) scale(0.1 -0.1)">
       <defs>
        <path id="DejaVuSans-37" d="M 525 4666 
L 3525 4666 
L 3525 4397 
L 1831 0 
L 1172 0 
L 2766 4134 
L 525 4134 
L 525 4666 
z
" transform="scale(0.015625)"/>
       </defs>
       <use xlink:href="#DejaVuSans-35"/>
       <use xlink:href="#DejaVuSans-32" x="63.623047"/>
       <use xlink:href="#DejaVuSans-2e" x="127.246094"/>
       <use xlink:href="#DejaVuSans-34" x="159.033203"/>
       <use xlink:href="#DejaVuSans-37" x="222.65625"/>
      </g>
     </g>
    </g>
    <g id="ytick_6">
     <g id="line2d_11">
      <g>
       <use xlink:href="#m3dd72c25e0" x="131.15879" y="113.585367" style="stroke: #000000; stroke-width: 0.8"/>
      </g>
     </g>
     <g id="text_11">
      <!-- 52.48 -->
      <g transform="translate(95.530665 117.384586) scale(0.1 -0.1)">
       <use xlink:href="#DejaVuSans-35"/>
       <use xlink:href="#DejaVuSans-32" x="63.623047"/>
       <use xlink:href="#DejaVuSans-2e" x="127.246094"/>
       <use xlink:href="#DejaVuSans-34" x="159.033203"/>
       <use xlink:href="#DejaVuSans-38" x="222.65625"/>
      </g>
     </g>
    </g>
    <g id="ytick_7">
     <g id="line2d_12">
      <g>
       <use xlink:href="#m3dd72c25e0" x="131.15879" y="79.440318" style="stroke: #000000; stroke-width: 0.8"/>
      </g>
     </g>
     <g id="text_12">
      <!-- 52.49 -->
      <g transform="translate(95.530665 83.239536) scale(0.1 -0.1)">
       <defs>
        <path id="DejaVuSans-39" d="M 703 97 
L 703 672 
Q 941 559 1184 500 
Q 1428 441 1663 441 
Q 2288 441 2617 861 
Q 2947 1281 2994 2138 
Q 2813 1869 2534 1725 
Q 2256 1581 1919 1581 
Q 1219 1581 811 2004 
Q 403 2428 403 3163 
Q 403 3881 828 4315 
Q 1253 4750 1959 4750 
Q 2769 4750 3195 4129 
Q 3622 3509 3622 2328 
Q 3622 1225 3098 567 
Q 2575 -91 1691 -91 
Q 1453 -91 1209 -44 
Q 966 3 703 97 
z
M 1959 2075 
Q 2384 2075 2632 2365 
Q 2881 2656 2881 3163 
Q 2881 3666 2632 3958 
Q 2384 4250 1959 4250 
Q 1534 4250 1286 3958 
Q 1038 3666 1038 3163 
Q 1038 2656 1286 2365 
Q 1534 2075 1959 2075 
z
" transform="scale(0.015625)"/>
       </defs>
       <use xlink:href="#DejaVuSans-35"/>
       <use xlink:href="#DejaVuSans-32" x="63.623047"/>
       <use xlink:href="#DejaVuSans-2e" x="127.246094"/>
       <use xlink:href="#DejaVuSans-34" x="159.033203"/>
       <use xlink:href="#DejaVuSans-39" x="222.65625"/>
      </g>
     </g>
    </g>
    <g id="ytick_8">
     <g id="line2d_13">
      <g>
       <use xlink:href="#m3dd72c25e0" x="131.15879" y="45.295268" style="stroke: #000000; stroke-width: 0.8"/>
      </g>
     </g>
     <g id="text_13">
      <!-- 52.50 -->
      <g transform="translate(95.530665 49.094487) scale(0.1 -0.1)">
       <use xlink:href="#DejaVuSans-35"/>
       <use xlink:href="#DejaVuSans-32" x="63.623047"/>
       <use xlink:href="#DejaVuSans-2e" x="127.246094"/>
       <use xlink:href="#DejaVuSans-35" x="159.033203"/>
       <use xlink:href="#DejaVuSans-30" x="222.65625"/>
      </g>
     </g>
    </g>
   </g>
   <g id="patch_3">
    <path d="M 131.15879 307.584 
L 131.15879 41.472 
" style="fill: none; stroke: #000000; stroke-width: 0.8; stroke-linejoin: miter; stroke-linecap: square"/>
   </g>
   <g id="patch_4">
    <path d="M 341.16121 307.584 
L 341.16121 41.472 
" style="fill: none; stroke: #000000; stroke-width: 0.8; stroke-linejoin: miter; stroke-linecap: square"/>
   </g>
   <g id="patch_5">
    <path d="M 131.15879 307.584 
L 341.16121 307.584 
" style="fill: none; stroke: #000000; stroke-width: 0.8; stroke-linejoin: miter; stroke-linecap: square"/>
   </g>
   <g id="patch_6">
    <path d="M 131.15879 41.472 
L 341.16121 41.472 
" style="fill: none; stroke: #000000; stroke-width: 0.8; stroke-linejoin: miter; stroke-linecap: square"/>
   </g>
   <g id="text_14">
    <!-- Treptow-Köpenick_1 -->
    <g transform="translate(181.54088 184.336195) scale(0.12 -0.12)">
     <defs>
      <path id="DejaVuSans-54" d="M -19 4666 
L 3928 4666 
L 3928 4134 
L 2272 4134 
L 2272 0 
L 1638 0 
L 1638 4134 
L -19 4134 
L -19 4666 
z
" transform="scale(0.015625)"/>
      <path id="DejaVuSans-72" d="M 2631 2963 
Q 2534 3019 2420 3045 
Q 2306 3072 2169 3072 
Q 1681 3072 1420 2755 
Q 1159 2438 1159 1844 
L 1159 0 
L 581 0 
L 581 3500 
L 1159 3500 
L 1159 2956 
Q 1341 3275 1631 3429 
Q 1922 3584 2338 3584 
Q 2397 3584 2469 3576 
Q 2541 3569 2628 3553 
L 2631 2963 
z
" transform="scale(0.015625)"/>
      <path id="DejaVuSans-65" d="M 3597 1894 
L 3597 1613 
L 953 1613 
Q 991 1019 1311 708 
Q 1631 397 2203 397 
Q 2534 397 2845 478 
Q 3156 559 3463 722 
L 3463 178 
Q 3153 47 2828 -22 
Q 2503 -91 2169 -91 
Q 1331 -91 842 396 
Q 353 884 353 1716 
Q 353 2575 817 3079 
Q 1281 3584 2069 3584 
Q 2775 3584 3186 3129 
Q 3597 2675 3597 1894 
z
M 3022 2063 
Q 3016 2534 2758 2815 
Q 2500 3097 2075 3097 
Q 1594 3097 1305 2825 
Q 1016 2553 972 2059 
L 3022 2063 
z
" transform="scale(0.015625)"/>
      <path id="DejaVuSans-70" d="M 1159 525 
L 1159 -1331 
L 581 -1331 
L 581 3500 
L 1159 3500 
L 1159 2969 
Q 1341 3281 1617 3432 
Q 1894 3584 2278 3584 
Q 2916 3584 3314 3078 
Q 3713 2572 3713 1747 
Q 3713 922 3314 415 
Q 2916 -91 2278 -91 
Q 1894 -91 1617 61 
Q 1341 213 1159 525 
z
M 3116 1747 
Q 3116 2381 2855 2742 
Q 2594 3103 2138 3103 
Q 1681 3103 1420 2742 
Q 1159 2381 1159 1747 
Q 1159 1113 1420 752 
Q 1681 391 2138 391 
Q 2594 391 2855 752 
Q 3116 1113 3116 1747 
z
" transform="scale(0.015625)"/>
      <path id="DejaVuSans-74" d="M 1172 4494 
L 1172 3500 
L 2356 3500 
L 2356 3053 
L 1172 3053 
L 1172 1153 
Q 1172 725 1289 603 
Q 1406 481 1766 481 
L 2356 481 
L 2356 0 
L 1766 0 
Q 1100 0 847 248 
Q 594 497 594 1153 
L 594 3053 
L 172 3053 
L 172 3500 
L 594 3500 
L 594 4494 
L 1172 4494 
z
" transform="scale(0.015625)"/>
      <path id="DejaVuSans-6f" d="M 1959 3097 
Q 1497 3097 1228 2736 
Q 959 2375 959 1747 
Q 959 1119 1226 758 
Q 1494 397 1959 397 
Q 2419 397 2687 759 
Q 2956 1122 2956 1747 
Q 2956 2369 2687 2733 
Q 2419 3097 1959 3097 
z
M 1959 3584 
Q 2709 3584 3137 3096 
Q 3566 2609 3566 1747 
Q 3566 888 3137 398 
Q 2709 -91 1959 -91 
Q 1206 -91 779 398 
Q 353 888 353 1747 
Q 353 2609 779 3096 
Q 1206 3584 1959 3584 
z
" transform="scale(0.015625)"/>
      <path id="DejaVuSans-77" d="M 269 3500 
L 844 3500 
L 1563 769 
L 2278 3500 
L 2956 3500 
L 3675 769 
L 4391 3500 
L 4966 3500 
L 4050 0 
L 3372 0 
L 2619 2869 
L 1863 0 
L 1184 0 
L 269 3500 
z
" transform="scale(0.015625)"/>
      <path id="DejaVuSans-2d" d="M 313 2009 
L 1997 2009 
L 1997 1497 
L 313 1497 
L 313 2009 
z
" transform="scale(0.015625)"/>
      <path id="DejaVuSans-4b" d="M 628 4666 
L 1259 4666 
L 1259 2694 
L 3353 4666 
L 4166 4666 
L 1850 2491 
L 4331 0 
L 3500 0 
L 1259 2247 
L 1259 0 
L 628 0 
L 628 4666 
z
" transform="scale(0.015625)"/>
      <path id="DejaVuSans-f6" d="M 1959 3097 
Q 1497 3097 1228 2736 
Q 959 2375 959 1747 
Q 959 1119 1226 758 
Q 1494 397 1959 397 
Q 2419 397 2687 759 
Q 2956 1122 2956 1747 
Q 2956 2369 2687 2733 
Q 2419 3097 1959 3097 
z
M 1959 3584 
Q 2709 3584 3137 3096 
Q 3566 2609 3566 1747 
Q 3566 888 3137 398 
Q 2709 -91 1959 -91 
Q 1206 -91 779 398 
Q 353 888 353 1747 
Q 353 2609 779 3096 
Q 1206 3584 1959 3584 
z
M 2253 4850 
L 2888 4850 
L 2888 4219 
L 2253 4219 
L 2253 4850 
z
M 1031 4850 
L 1666 4850 
L 1666 4219 
L 1031 4219 
L 1031 4850 
z
" transform="scale(0.015625)"/>
      <path id="DejaVuSans-6e" d="M 3513 2113 
L 3513 0 
L 2938 0 
L 2938 2094 
Q 2938 2591 2744 2837 
Q 2550 3084 2163 3084 
Q 1697 3084 1428 2787 
Q 1159 2491 1159 1978 
L 1159 0 
L 581 0 
L 581 3500 
L 1159 3500 
L 1159 2956 
Q 1366 3272 1645 3428 
Q 1925 3584 2291 3584 
Q 2894 3584 3203 3211 
Q 3513 2838 3513 2113 
z
" transform="scale(0.015625)"/>
      <path id="DejaVuSans-69" d="M 603 3500 
L 1178 3500 
L 1178 0 
L 603 0 
L 603 3500 
z
M 603 4863 
L 1178 4863 
L 1178 4134 
L 603 4134 
L 603 4863 
z
" transform="scale(0.015625)"/>
      <path id="DejaVuSans-63" d="M 3122 3366 
L 3122 2828 
Q 2878 2963 2633 3030 
Q 2388 3097 2138 3097 
Q 1578 3097 1268 2742 
Q 959 2388 959 1747 
Q 959 1106 1268 751 
Q 1578 397 2138 397 
Q 2388 397 2633 464 
Q 2878 531 3122 666 
L 3122 134 
Q 2881 22 2623 -34 
Q 2366 -91 2075 -91 
Q 1284 -91 818 406 
Q 353 903 353 1747 
Q 353 2603 823 3093 
Q 1294 3584 2113 3584 
Q 2378 3584 2631 3529 
Q 2884 3475 3122 3366 
z
" transform="scale(0.015625)"/>
      <path id="DejaVuSans-6b" d="M 581 4863 
L 1159 4863 
L 1159 1991 
L 2875 3500 
L 3609 3500 
L 1753 1863 
L 3688 0 
L 2938 0 
L 1159 1709 
L 1159 0 
L 581 0 
L 581 4863 
z
" transform="scale(0.015625)"/>
      <path id="DejaVuSans-5f" d="M 3263 -1063 
L 3263 -1509 
L -63 -1509 
L -63 -1063 
L 3263 -1063 
z
" transform="scale(0.015625)"/>
     </defs>
     <use xlink:href="#DejaVuSans-54"/>
     <use xlink:href="#DejaVuSans-72" x="46.333984"/>
     <use xlink:href="#DejaVuSans-65" x="85.197266"/>
     <use xlink:href="#DejaVuSans-70" x="146.720703"/>
     <use xlink:href="#DejaVuSans-74" x="210.197266"/>
     <use xlink:href="#DejaVuSans-6f" x="249.40625"/>
     <use xlink:href="#DejaVuSans-77" x="310.587891"/>
     <use xlink:href="#DejaVuSans-2d" x="392.375"/>
     <use xlink:href="#DejaVuSans-4b" x="428.458984"/>
     <use xlink:href="#DejaVuSans-f6" x="489.035156"/>
     <use xlink:href="#DejaVuSans-70" x="550.216797"/>
     <use xlink:href="#DejaVuSans-65" x="613.693359"/>
     <use xlink:href="#DejaVuSans-6e" x="675.216797"/>
     <use xlink:href="#DejaVuSans-69" x="738.595703"/>
     <use xlink:href="#DejaVuSans-63" x="766.378906"/>
     <use xlink:href="#DejaVuSans-6b" x="821.359375"/>
     <use xlink:href="#DejaVuSans-5f" x="879.269531"/>
     <use xlink:href="#DejaVuSans-31" x="929.269531"/>
    </g>
   </g>
  </g>
 </g>
 <defs>
  <clipPath id="pc43d5ee08c">
   <rect x="131.15879" y="41.472" width="210.002421" height="266.112"/>
  </clipPath>
 </defs>
</svg>
