<?xml version="1.0" encoding="utf-8" standalone="no"?>
<!DOCTYPE svg PUBLIC "-//W3C//DTD SVG 1.1//EN"
  "http://www.w3.org/Graphics/SVG/1.1/DTD/svg11.dtd">
<svg xmlns:xlink="http://www.w3.org/1999/xlink" width="460.8pt" height="345.6pt" viewBox="0 0 460.8 345.6" xmlns="http://www.w3.org/2000/svg" version="1.1">
 <metadata>
  <rdf:RDF xmlns:dc="http://purl.org/dc/elements/1.1/" xmlns:cc="http://creativecommons.org/ns#" xmlns:rdf="http://www.w3.org/1999/02/22-rdf-syntax-ns#">
   <cc:Work>
    <dc:type rdf:resource="http://purl.org/dc/dcmitype/StillImage"/>
    <dc:date>2024-10-15T09:53:29.374238</dc:date>
    <dc:format>image/svg+xml</dc:format>
    <dc:creator>
     <cc:Agent>
      <dc:title>Matplotlib v3.8.4, https://matplotlib.org/</dc:title>
     </cc:Agent>
    </dc:creator>
   </cc:Work>
  </rdf:RDF>
 </metadata>
 <defs>
  <style type="text/css">*{stroke-linejoin: round; stroke-linecap: butt}</style>
 </defs>
 <g id="figure_1">
  <g id="patch_1">
   <path d="M 0 345.6 
L 460.8 345.6 
L 460.8 0 
L 0 0 
z
" style="fill: #ffffff"/>
  </g>
  <g id="axes_1">
   <g id="patch_2">
    <path d="M 82.168292 307.584 
L 390.151708 307.584 
L 390.151708 41.472 
L 82.168292 41.472 
z
" style="fill: #ffffff"/>
   </g>
   <g id="PatchCollection_1">
    <path d="M 118.367192 159.634275 
L 118.899225 159.690442 
L 119.750138 159.808064 
L 119.671419 160.094599 
L 119.47597 160.805824 
L 119.368086 162.465575 
L 119.352414 162.621936 
L 119.347459 162.690199 
L 119.343531 162.758507 
L 119.33592 162.827383 
L 119.329321 162.895617 
L 119.318752 162.963877 
L 119.306324 163.031701 
L 119.291503 163.099651 
L 119.271173 163.166221 
L 119.245313 163.230522 
L 119.217378 163.293979 
L 119.186124 163.335761 
L 118.040946 165.234037 
L 118.313583 165.412084 
L 118.366986 165.325648 
L 118.753453 164.699434 
L 118.937526 164.401334 
L 118.973786 164.34255 
L 119.418471 163.6221 
L 119.471535 163.535741 
L 119.483954 163.517099 
L 119.628855 163.605359 
L 120.359579 163.915182 
L 120.569178 164.004076 
L 120.793437 164.09921 
L 121.137356 163.289063 
L 122.871427 163.970654 
L 123.672145 164.290623 
L 123.999558 164.431618 
L 124.337672 164.547517 
L 125.350615 164.838974 
L 125.740341 164.946029 
L 126.088971 165.02613 
L 126.439846 165.088268 
L 126.879406 165.144696 
L 127.147199 165.174529 
L 127.501071 165.209969 
L 128.208645 165.267953 
L 128.920026 165.319053 
L 129.279171 165.334331 
L 130.085548 165.346874 
L 130.571771 165.354398 
L 131.510728 166.301296 
L 132.383491 165.461783 
L 132.822873 165.520795 
L 133.236132 165.549066 
L 133.231876 165.56598 
L 136.325846 165.997248 
L 136.346472 166.001013 
L 136.367157 166.004365 
L 136.387967 166.007233 
L 136.409039 166.009615 
L 136.43017 166.011584 
L 136.460123 166.013694 
L 136.493599 166.016048 
L 136.536018 166.015041 
L 136.578141 166.010198 
L 136.618946 166.00168 
L 136.65884 165.98941 
L 136.697487 165.9736 
L 136.721155 165.961235 
L 136.744676 165.948461 
L 136.767915 165.93535 
L 136.790735 165.921838 
L 136.81334 165.907988 
L 136.835733 165.8938 
L 136.966168 166.080317 
L 137.266401 165.862164 
L 138.058408 165.286735 
L 138.098183 165.257791 
L 138.626279 164.873498 
L 140.619737 167.136698 
L 141.352421 167.968491 
L 141.814791 168.464941 
L 142.063416 168.711037 
L 142.802216 169.41072 
L 142.799427 169.414355 
L 147.075792 173.481139 
L 149.817189 176.146984 
L 151.567863 177.848663 
L 152.684556 178.934424 
L 152.931228 179.173848 
L 153.683051 179.905226 
L 153.984254 180.198741 
L 154.226261 180.426199 
L 156.070649 182.170493 
L 158.829318 184.779523 
L 158.934477 184.878943 
L 158.983624 184.925337 
L 158.993565 184.917279 
L 159.089144 185.008141 
L 159.264064 185.174742 
L 159.356353 185.262525 
L 159.527558 185.425439 
L 159.62811 185.521125 
L 159.791893 185.67701 
L 159.882431 185.763119 
L 159.872423 185.771248 
L 160.038334 185.912876 
L 160.087431 185.954262 
L 160.338162 186.16594 
L 160.59102 186.377842 
L 160.839665 186.593962 
L 161.083701 186.814994 
L 161.324732 187.039187 
L 161.799776 187.494875 
L 162.276857 187.949897 
L 162.753558 188.403352 
L 163.232233 188.856417 
L 163.441616 189.047801 
L 163.748658 189.328353 
L 164.070696 189.615002 
L 164.398022 189.9053 
L 164.730916 190.1908 
L 165.231089 190.615154 
L 165.567297 190.896116 
L 165.904062 191.177477 
L 166.238244 191.462536 
L 166.576203 191.759791 
L 166.91003 192.06181 
L 167.231177 192.360286 
L 167.547225 192.663138 
L 167.862933 192.969018 
L 168.173486 193.276942 
L 168.481885 193.589378 
L 168.781902 193.909217 
L 169.00614 194.150351 
L 169.08842 194.240639 
L 169.240059 194.407314 
L 170.068095 195.334913 
L 171.513085 197.075078 
L 173.700551 199.709537 
L 178.871099 205.937008 
L 178.87163 206.003289 
L 180.857244 208.406761 
L 180.930614 208.418137 
L 184.418474 212.608117 
L 184.518913 212.728793 
L 184.690771 212.935213 
L 184.884395 213.167884 
L 185.415533 213.805925 
L 185.191055 213.999532 
L 185.355731 214.200426 
L 185.419928 214.278861 
L 185.451638 214.317572 
L 186.848397 216.021952 
L 187.304896 215.681982 
L 187.498838 215.537546 
L 187.549667 215.600581 
L 187.721746 215.813654 
L 188.929766 217.310303 
L 188.635506 217.592847 
L 189.354229 218.454994 
L 191.018798 220.45194 
L 191.476541 221.003076 
L 191.677716 221.245298 
L 192.314856 222.046994 
L 192.929445 222.870771 
L 193.424448 223.571577 
L 193.427137 223.569524 
L 193.447816 223.596143 
L 193.445074 223.598884 
L 193.468552 223.633948 
L 194.119058 224.60326 
L 194.646869 225.389901 
L 194.839198 225.261428 
L 195.442946 225.997007 
L 199.910632 231.440637 
L 205.365243 238.103087 
L 206.019858 238.902681 
L 205.663375 239.199234 
L 206.181777 239.782019 
L 206.876049 240.533399 
L 207.577157 241.287501 
L 208.255691 242.056822 
L 209.096626 243.094708 
L 212.924053 247.993097 
L 213.172005 247.913836 
L 213.444804 248.039526 
L 214.446011 249.534953 
L 215.189712 250.645749 
L 215.630183 251.406545 
L 215.764684 251.682416 
L 216.02297 252.212108 
L 216.146913 252.171107 
L 217.22104 251.815767 
L 217.271875 251.87661 
L 217.249696 252.151567 
L 218.192952 253.347373 
L 218.586007 253.845626 
L 218.884061 254.223476 
L 220.014065 255.65612 
L 220.232348 255.932838 
L 221.281094 257.262534 
L 221.562004 257.618693 
L 221.608199 257.677244 
L 222.225372 258.321693 
L 222.927503 259.067019 
L 223.337628 259.575856 
L 223.418751 259.673596 
L 223.668422 259.972913 
L 225.024564 261.630914 
L 225.030663 261.625418 
L 225.472211 262.158431 
L 225.690126 262.405104 
L 225.779471 262.50622 
L 226.008907 262.765661 
L 226.833999 263.698476 
L 227.703887 264.597988 
L 228.734233 265.7458 
L 229.61997 266.826324 
L 230.001865 267.284705 
L 230.379396 267.746758 
L 230.752357 268.212418 
L 231.120884 268.681683 
L 231.484841 269.154556 
L 232.586853 270.565251 
L 233.686234 271.977933 
L 234.782986 273.39274 
L 235.877106 274.809533 
L 236.090582 275.086649 
L 236.30399 275.363766 
L 236.517263 275.641025 
L 236.735866 275.771161 
L 236.925931 275.99818 
L 236.99872 276.085139 
L 237.818392 277.058352 
L 238.601112 277.9877 
L 239.694824 279.634961 
L 241.589211 281.209592 
L 241.814964 281.39721 
L 244.519365 283.418162 
L 246.220228 284.689152 
L 247.166272 285.266652 
L 248.418599 286.031539 
L 248.607003 286.146606 
L 250.459031 287.277719 
L 250.944336 287.506482 
L 251.334712 287.690528 
L 251.534601 287.784603 
L 251.871629 287.943477 
L 252.042877 288.024223 
L 252.55828 288.267245 
L 252.761349 288.362756 
L 252.926784 288.440755 
L 253.065028 288.505941 
L 253.360676 288.645197 
L 253.591223 288.754065 
L 254.047257 288.969038 
L 254.422819 289.145954 
L 254.553518 289.207473 
L 254.709957 289.281224 
L 254.955651 289.397013 
L 255.339933 289.578186 
L 255.453128 289.631537 
L 255.591187 289.694738 
L 255.910024 289.839561 
L 256.326937 290.0291 
L 257.326814 290.483421 
L 257.654434 290.632296 
L 258.345485 290.883847 
L 259.246269 291.211611 
L 260.11282 291.526933 
L 260.274855 291.585389 
L 261.144855 291.899055 
L 261.738266 292.113023 
L 262.160787 292.23793 
L 262.259497 292.265818 
L 263.23977 292.542668 
L 264.296223 292.840936 
L 264.682516 292.949947 
L 265.229268 293.07621 
L 266.302544 293.324063 
L 267.375884 293.571781 
L 268.486308 293.828175 
L 268.676812 293.872108 
L 268.824314 293.905996 
L 269.856207 294.143023 
L 270.406175 294.269425 
L 271.756869 294.579582 
L 272.842255 294.830673 
L 273.228165 294.908684 
L 273.508082 294.975169 
L 273.799476 295.026084 
L 274.452544 295.16038 
L 274.560836 295.182558 
L 275.045925 295.282276 
L 275.23611 295.321347 
L 275.44314 295.363869 
L 275.798413 295.436902 
L 276.0467 295.488 
L 276.087669 295.286519 
L 276.245624 295.319755 
L 276.705865 295.413261 
L 277.033294 295.480699 
L 277.053559 294.790741 
L 277.059246 294.611083 
L 277.082428 294.454006 
L 277.085011 294.167089 
L 277.085987 294.064607 
L 278.86211 294.08563 
L 278.861558 294.194621 
L 278.859986 294.492769 
L 281.463279 294.451213 
L 287.845478 294.349351 
L 293.342022 294.414674 
L 295.665662 294.459756 
L 296.694781 294.412201 
L 305.22753 294.499182 
L 309.549611 294.541494 
L 311.810635 294.654847 
L 314.31028 294.780312 
L 314.878204 294.807891 
L 315.271161 294.826975 
L 315.431373 294.815844 
L 316.743956 294.724851 
L 316.817194 294.71972 
L 317.289338 294.724546 
L 317.446697 294.726179 
L 317.583112 294.727611 
L 321.148214 294.764101 
L 335.383983 294.910396 
L 336.406072 294.925919 
L 336.430238 292.607451 
L 336.532817 292.610498 
L 336.531996 292.583752 
L 336.746791 292.586329 
L 336.752647 292.005344 
L 336.922871 291.9861 
L 336.925671 292.006691 
L 336.950978 292.003155 
L 336.954269 291.625842 
L 340.460573 291.199371 
L 343.648999 290.810484 
L 344.836487 290.667799 
L 346.490218 290.472477 
L 348.120723 290.284768 
L 349.751921 290.103297 
L 351.305909 289.935832 
L 353.616739 289.690502 
L 355.922042 289.448678 
L 355.920441 288.875277 
L 355.917321 287.582987 
L 355.917092 287.42713 
L 355.915659 286.452551 
L 355.912555 284.421846 
L 355.912552 284.421272 
L 355.903078 282.304339 
L 355.900896 281.184073 
L 355.893817 277.451401 
L 355.891205 276.103787 
L 356.370635 274.261024 
L 356.367616 272.478332 
L 356.11331 271.172833 
L 355.952916 270.339095 
L 355.84746 269.790876 
L 355.831606 260.264055 
L 355.829956 259.259411 
L 355.917832 258.848234 
L 356.017436 258.384494 
L 356.552429 255.893514 
L 356.158415 255.895818 
L 356.14581 253.701798 
L 356.077807 241.89218 
L 356.070854 240.683428 
L 356.06894 240.370608 
L 356.064005 239.476253 
L 356.063594 239.380872 
L 356.058137 238.431011 
L 356.020402 231.849777 
L 356.413899 231.889347 
L 356.303394 231.020564 
L 356.178029 230.034966 
L 355.854291 229.999206 
L 356.000273 224.092303 
L 356.044612 222.336449 
L 356.072951 221.213077 
L 356.089663 220.537071 
L 356.23014 214.864103 
L 356.281505 214.865388 
L 356.307205 213.862515 
L 356.336392 213.828009 
L 356.370483 213.798399 
L 356.408601 213.774255 
L 356.449937 213.756144 
L 356.493544 213.7445 
L 356.538402 213.739622 
L 356.583485 213.7416 
L 356.585169 213.659965 
L 356.427251 212.440563 
L 356.39361 212.180711 
L 356.349867 211.842835 
L 356.217077 210.817544 
L 356.03487 210.698362 
L 355.992323 210.666747 
L 355.953237 210.630866 
L 355.918102 210.591188 
L 355.887199 210.548049 
L 355.860402 210.501865 
L 355.838543 210.453097 
L 355.82184 210.402356 
L 355.810441 210.350121 
L 355.731759 209.827088 
L 355.668503 209.412402 
L 355.601539 208.907833 
L 355.549251 208.508815 
L 355.507564 208.174952 
L 355.464404 207.806811 
L 355.41961 207.391355 
L 355.378258 206.973762 
L 355.340344 206.565834 
L 355.305951 206.168118 
L 355.275649 205.77868 
L 355.246721 205.386466 
L 355.224765 205.032589 
L 355.204915 204.686968 
L 355.187731 204.326256 
L 355.17063 203.97515 
L 355.15823 203.617141 
L 355.152377 203.377224 
L 355.153298 203.363683 
L 355.157727 203.350885 
L 355.165341 203.33966 
L 355.175541 203.330778 
L 355.187726 203.324869 
L 355.201016 203.322366 
L 355.474058 203.307484 
L 355.468002 203.094472 
L 355.46334 202.92727 
L 355.447519 201.556218 
L 355.450449 201.442369 
L 355.245769 201.408871 
L 355.220537 201.401081 
L 355.197056 201.388996 
L 355.175948 201.373013 
L 355.157981 201.353664 
L 355.14315 201.330811 
L 355.132647 201.305662 
L 355.126765 201.279034 
L 355.12566 201.251815 
L 355.129421 201.224827 
L 355.134895 200.879101 
L 355.141733 200.536157 
L 355.151966 200.189018 
L 355.160152 199.848102 
L 355.173828 199.498893 
L 355.188143 199.147679 
L 355.210452 198.733282 
L 355.2355 198.31889 
L 355.245034 198.143949 
L 355.279466 197.682195 
L 355.325959 197.17034 
L 355.376361 196.593269 
L 355.427121 196.121187 
L 355.4357 196.065539 
L 355.450332 196.011193 
L 355.470758 195.958772 
L 355.496719 195.908899 
L 355.528023 195.862197 
L 355.56562 195.818301 
L 355.607907 195.778894 
L 355.65428 195.74454 
L 355.70427 195.715661 
L 355.757199 195.692547 
L 355.799562 195.677295 
L 357.120077 195.18427 
L 357.330471 194.795796 
L 358.085178 193.402566 
L 357.852911 193.15161 
L 357.34345 192.601051 
L 356.143848 191.304817 
L 356.012794 191.163112 
L 356.077575 189.808385 
L 356.115595 189.011037 
L 356.196662 187.229906 
L 356.288076 185.276355 
L 356.402193 182.835997 
L 356.523191 181.314997 
L 356.075592 181.405142 
L 356.139577 180.64741 
L 356.99663 170.497508 
L 357.155129 168.638897 
L 357.188837 168.243727 
L 357.230094 167.759993 
L 357.682505 167.792097 
L 357.723679 167.048411 
L 357.732082 166.895662 
L 357.655175 163.055565 
L 357.648839 162.875089 
L 357.631202 162.372469 
L 357.629664 162.329339 
L 357.202092 162.344768 
L 357.15441 161.008079 
L 357.102593 159.55695 
L 357.049997 158.083879 
L 356.997402 156.610876 
L 357.014505 156.610344 
L 356.956374 154.982786 
L 356.927179 154.164893 
L 357.365851 154.194158 
L 357.39474 153.207684 
L 357.033344 153.183772 
L 357.163269 152.61413 
L 357.606411 150.620551 
L 358.007798 148.817754 
L 358.410689 147.005728 
L 358.813348 145.195354 
L 359.211156 143.391201 
L 359.420185 142.44998 
L 359.69785 142.514943 
L 360.098843 140.703032 
L 360.13514 140.53962 
L 360.65094 138.78998 
L 361.042635 137.690824 
L 364.464445 128.089059 
L 364.856034 126.990185 
L 364.450756 125.687131 
L 364.081207 124.498963 
L 364.416055 123.567746 
L 364.54438 123.210747 
L 363.691032 122.65006 
L 362.660631 121.973159 
L 362.589592 121.926691 
L 362.301107 121.737076 
L 362.252099 121.704854 
L 362.016586 121.550115 
L 361.972792 121.521342 
L 361.661641 121.316672 
L 361.611245 121.283659 
L 360.229312 120.376263 
L 359.762037 120.069377 
L 359.584218 119.952562 
L 359.286815 119.756362 
L 358.025235 118.923608 
L 356.868299 118.163862 
L 355.506498 117.269677 
L 356.279372 115.617104 
L 356.500053 115.280959 
L 357.071735 114.410148 
L 357.274688 114.100972 
L 358.031046 112.950711 
L 358.177584 112.728002 
L 358.853038 111.700734 
L 359.691839 110.425186 
L 359.847107 110.188963 
L 363.013164 105.374443 
L 363.111211 105.225323 
L 363.140651 105.180517 
L 364.26871 103.461096 
L 364.846644 102.583498 
L 365.899563 100.9844 
L 366.166866 100.578562 
L 366.677651 99.801726 
L 366.743522 99.701546 
L 367.067178 99.209279 
L 367.454288 98.620504 
L 368.011695 97.772688 
L 369.157085 96.030581 
L 369.283656 95.838189 
L 369.325204 95.77492 
L 369.336051 95.758268 
L 369.752604 95.124519 
L 369.885787 94.921887 
L 370.037032 94.691731 
L 370.048279 94.67459 
L 370.206938 94.433353 
L 370.451475 94.061394 
L 370.695682 93.689993 
L 371.210831 92.906635 
L 371.441208 92.556072 
L 372.968142 90.234018 
L 373.22863 89.837813 
L 373.37009 89.622708 
L 373.531135 89.37778 
L 373.729297 89.076341 
L 373.750139 89.044637 
L 373.948167 88.743339 
L 374.103458 88.507259 
L 375.2212 86.807878 
L 375.27929 86.719386 
L 375.383499 86.560794 
L 375.559824 86.29232 
L 375.722518 86.044541 
L 375.799732 85.927061 
L 375.828779 85.882883 
L 376.152462 85.390522 
L 373.200407 84.217619 
L 372.896765 84.096763 
L 372.32577 83.869933 
L 372.062657 83.769693 
L 371.796841 83.676996 
L 371.528393 83.591977 
L 371.257725 83.514627 
L 370.984909 83.445151 
L 370.710285 83.383402 
L 370.433926 83.329653 
L 370.156242 83.283759 
L 369.877302 83.245855 
L 369.596425 83.216024 
L 369.314844 83.194308 
L 369.032763 83.180633 
L 368.75039 83.175131 
L 368.467996 83.177659 
L 368.185789 83.18835 
L 367.903973 83.207129 
L 367.622822 83.233992 
L 367.342541 83.268932 
L 367.063403 83.311875 
L 366.785612 83.362817 
L 366.509374 83.421753 
L 366.234891 83.48854 
L 365.962508 83.563239 
L 365.773941 83.620291 
L 365.586488 83.681092 
L 365.400353 83.745637 
L 365.215467 83.813859 
L 364.834793 82.589572 
L 364.753027 82.3267 
L 364.550013 81.673949 
L 364.380853 81.129806 
L 364.204255 80.556943 
L 363.923419 79.646239 
L 363.218058 77.35854 
L 363.202651 77.361503 
L 363.107139 77.379833 
L 362.990834 77.402142 
L 361.456918 77.696448 
L 361.333932 77.72001 
L 361.067372 77.771178 
L 355.915002 78.759637 
L 355.679529 78.801787 
L 355.44294 78.837033 
L 355.205438 78.865368 
L 354.967229 78.886789 
L 354.728449 78.901223 
L 354.489371 78.908665 
L 354.250203 78.909178 
L 354.022113 78.903121 
L 353.794219 78.890678 
L 353.566797 78.871979 
L 353.339982 78.846885 
L 353.113981 78.815526 
L 350.13845 78.357691 
L 349.933585 78.322415 
L 349.730186 78.27942 
L 349.528593 78.228628 
L 349.329087 78.170308 
L 349.131939 78.104384 
L 348.937359 78.03099 
L 348.745759 77.950253 
L 348.557349 77.862305 
L 348.372404 77.767278 
L 348.191133 77.665234 
L 348.01395 77.556371 
L 347.840929 77.440892 
L 347.672481 77.318857 
L 347.532486 77.213252 
L 344.05911 74.595251 
L 341.669837 72.794315 
L 341.98215 72.336222 
L 340.503489 71.242011 
L 341.085405 70.002418 
L 345.237071 61.158991 
L 345.309855 61.00393 
L 345.389599 60.824004 
L 345.461669 60.640892 
L 345.526 60.454802 
L 345.5824 60.266219 
L 345.62013 60.11739 
L 345.630805 60.075419 
L 345.671155 59.882746 
L 345.68631 59.791467 
L 345.703389 59.688546 
L 345.727379 59.493163 
L 345.743063 59.296875 
L 345.750519 59.100159 
L 345.750207 59.030099 
L 345.749686 58.903291 
L 345.742677 58.694008 
L 345.718515 57.968508 
L 345.690922 57.816934 
L 345.658761 57.666221 
L 345.622104 57.516573 
L 345.581024 57.368124 
L 345.535522 57.220945 
L 345.463681 57.015356 
L 345.383149 56.812988 
L 345.294209 56.614246 
L 345.196868 56.419472 
L 345.091341 56.229005 
L 344.977909 56.043181 
L 344.856647 55.862343 
L 344.727908 55.686892 
L 344.591765 55.517035 
L 344.448637 55.353103 
L 344.298668 55.195437 
L 344.142137 55.044237 
L 343.979326 54.899907 
L 343.810582 54.762577 
L 343.674485 54.660178 
L 343.552949 54.57453 
L 343.432029 54.542464 
L 343.215208 54.485234 
L 343.168768 54.472857 
L 342.891106 54.399397 
L 342.779145 54.369801 
L 342.724577 54.355347 
L 342.404543 54.270721 
L 341.642659 54.069219 
L 341.506314 54.033393 
L 341.19924 55.04085 
L 341.101644 54.989716 
L 340.411947 54.628022 
L 340.132188 54.48139 
L 339.522896 54.161895 
L 338.947986 53.860479 
L 338.675085 53.717326 
L 338.493198 53.621958 
L 338.390195 53.568 
L 338.236883 53.853941 
L 338.205565 53.91238 
L 337.597586 55.043878 
L 337.548049 55.140826 
L 337.506966 55.221245 
L 336.469804 57.25776 
L 335.129856 59.886113 
L 334.872429 60.366618 
L 332.609019 64.720677 
L 329.862585 70.188959 
L 329.056404 71.7106 
L 328.390289 72.967883 
L 328.32305 73.095712 
L 328.321745 73.098487 
L 328.281682 73.175453 
L 327.310277 75.030058 
L 327.153002 75.33037 
L 327.037562 75.550383 
L 326.711461 76.151894 
L 326.481244 76.560608 
L 326.017581 77.337903 
L 325.627861 77.938968 
L 325.198478 78.542257 
L 324.800211 79.057671 
L 324.266241 79.692276 
L 323.770037 80.227529 
L 323.681649 80.322978 
L 323.834119 80.336874 
L 323.917834 80.344541 
L 323.976022 80.349849 
L 324.182565 80.368737 
L 324.264906 80.37623 
L 324.529705 80.400425 
L 324.610675 80.407812 
L 324.857702 80.430361 
L 324.937985 80.437696 
L 325.18508 80.460242 
L 325.643794 80.50211 
L 325.349235 80.731283 
L 325.179129 80.870007 
L 324.383093 81.519086 
L 323.353329 82.358751 
L 323.586723 82.381065 
L 323.279748 82.621029 
L 323.096804 82.749345 
L 322.437632 83.221949 
L 321.781076 83.659494 
L 321.517575 83.818982 
L 321.493246 84.070167 
L 320.902722 84.428568 
L 320.337389 84.745072 
L 319.759626 85.045122 
L 319.180448 85.334224 
L 319.040702 85.399778 
L 318.758294 85.53212 
L 315.395 86.804651 
L 314.628314 86.911452 
L 313.304757 87.095963 
L 313.321166 86.914136 
L 313.034643 86.974932 
L 311.736142 87.188789 
L 308.002841 87.4861 
L 307.869695 87.487546 
L 307.304611 87.473565 
L 307.229727 87.471668 
L 306.590421 87.44006 
L 306.387186 87.42193 
L 304.737209 87.274156 
L 303.498029 87.163301 
L 303.418024 87.156102 
L 303.332255 87.14842 
L 301.795784 87.008727 
L 301.737253 87.003363 
L 301.646948 86.994962 
L 294.313035 86.317394 
L 293.130034 86.208153 
L 291.03573 86.034073 
L 290.214943 85.957105 
L 290.079895 85.944465 
L 289.620952 85.901486 
L 289.513901 85.89142 
L 289.018796 85.845096 
L 288.9923 85.842619 
L 288.916548 85.835468 
L 288.396393 85.786709 
L 288.341084 85.781547 
L 288.271708 85.775064 
L 288.023638 85.751744 
L 286.222247 85.5625 
L 286.025527 85.550818 
L 285.962789 85.547133 
L 285.586272 85.512395 
L 285.457953 85.500561 
L 284.952842 85.453928 
L 284.819445 85.441595 
L 284.371563 85.400287 
L 284.252097 85.389276 
L 284.109435 85.376061 
L 283.622578 85.331201 
L 283.511757 85.32095 
L 282.910784 85.265506 
L 282.810531 85.256313 
L 282.423171 85.220527 
L 281.758819 86.066313 
L 279.814436 85.896907 
L 279.868192 85.49886 
L 277.282832 85.229326 
L 277.069832 85.191814 
L 277.107386 84.77438 
L 275.568099 84.647089 
L 275.523483 85.125971 
L 275.511755 85.251967 
L 272.4416 84.923507 
L 272.301774 84.908584 
L 271.962198 84.87245 
L 271.098188 84.780411 
L 270.927055 84.761896 
L 270.778555 84.753833 
L 269.331802 84.674988 
L 268.802862 84.646161 
L 268.72408 84.638667 
L 267.407583 84.513555 
L 267.322408 84.504976 
L 267.010326 84.473352 
L 266.583421 84.430273 
L 265.552736 84.326082 
L 265.615399 83.652155 
L 264.494591 83.552839 
L 263.298004 83.446812 
L 263.295712 83.471914 
L 263.236578 84.108976 
L 262.245008 84.052675 
L 261.208323 83.993861 
L 260.802562 83.970815 
L 260.371707 83.946366 
L 260.375627 83.905922 
L 259.930184 83.857795 
L 259.768386 83.840303 
L 259.019462 83.759536 
L 258.303625 83.68232 
L 257.270506 83.570869 
L 257.011032 83.543172 
L 255.994957 83.443266 
L 255.731355 83.417657 
L 254.899099 83.336995 
L 251.48367 83.005959 
L 251.449328 83.298353 
L 250.368293 83.199436 
L 249.24032 83.096199 
L 248.371799 83.016745 
L 248.392655 82.792194 
L 248.453338 82.137593 
L 246.652022 81.982805 
L 246.599823 82.545935 
L 246.5685 82.885405 
L 243.805915 82.943301 
L 243.150816 82.910469 
L 239.944449 82.750953 
L 236.132939 82.56043 
L 235.509999 82.529604 
L 232.7951 82.389379 
L 232.553254 82.389493 
L 231.624223 82.390352 
L 224.579651 82.396321 
L 224.142389 82.396773 
L 222.389588 82.399227 
L 221.019294 82.399294 
L 220.935279 82.399414 
L 220.087448 82.689716 
L 218.206933 83.446851 
L 218.005533 83.527964 
L 217.790157 83.614621 
L 217.695369 83.0664 
L 215.925872 83.414537 
L 216.010708 83.873846 
L 215.203966 84.324945 
L 214.051286 84.760846 
L 207.016575 87.389697 
L 203.689956 88.809283 
L 203.092618 89.087486 
L 202.569029 89.27529 
L 202.344971 88.760449 
L 202.338805 88.763202 
L 202.288245 88.651023 
L 199.988043 89.538581 
L 200.017077 89.602886 
L 200.011596 89.605692 
L 199.219836 89.923343 
L 199.194266 89.866574 
L 198.480839 90.09955 
L 198.530665 90.235834 
L 198.595099 90.411097 
L 198.697767 90.697203 
L 198.332158 90.834124 
L 196.598868 91.491425 
L 195.112215 92.055082 
L 195.059238 92.149319 
L 192.4949 93.06834 
L 192.437922 93.021233 
L 187.193497 94.966857 
L 186.837116 94.253045 
L 186.70786 94.291711 
L 186.395495 94.385069 
L 185.765872 94.573342 
L 185.408769 94.680108 
L 185.262446 94.723844 
L 185.27676 94.930963 
L 185.319546 95.551498 
L 180.572876 97.378975 
L 179.936139 97.613749 
L 178.048429 98.31096 
L 178.033857 98.267795 
L 176.125027 98.995367 
L 175.804583 99.105876 
L 175.462271 99.224039 
L 175.485132 99.287733 
L 175.336064 99.357273 
L 174.994246 99.516806 
L 173.559995 100.186104 
L 173.519715 100.202771 
L 173.215813 100.344048 
L 171.161348 101.230734 
L 171.243048 101.440926 
L 171.014536 101.527031 
L 166.408216 103.262866 
L 166.188836 103.332495 
L 166.070457 103.004106 
L 164.365667 103.604491 
L 164.150289 103.006776 
L 163.934776 102.409132 
L 163.719327 101.811351 
L 163.503947 101.213636 
L 163.465053 101.105921 
L 163.381982 100.875588 
L 163.095842 100.081837 
L 163.051814 99.959695 
L 162.94105 99.652469 
L 162.765594 99.165534 
L 162.679813 98.927716 
L 162.406704 98.169959 
L 162.234842 97.693233 
L 162.120489 97.376142 
L 161.832846 97.22806 
L 159.271529 97.848537 
L 148.428464 100.475337 
L 148.094399 100.556618 
L 145.993894 101.068068 
L 144.381722 101.460549 
L 141.789263 102.029606 
L 140.575807 102.292001 
L 139.495191 102.525651 
L 138.93632 102.646521 
L 138.78114 102.680125 
L 136.875784 103.092366 
L 136.246971 103.255116 
L 135.451648 103.374742 
L 135.017854 103.439738 
L 134.07481 103.581131 
L 133.685161 103.639521 
L 133.272788 103.701128 
L 132.860414 103.762735 
L 132.31509 103.856873 
L 131.769765 103.951012 
L 130.998723 104.083867 
L 130.795716 104.118817 
L 129.821667 104.286624 
L 129.403179 104.358881 
L 128.984693 104.431207 
L 128.701838 104.462703 
L 128.419052 104.494197 
L 127.910848 104.551088 
L 127.402647 104.608049 
L 127.143886 104.590043 
L 126.885125 104.572037 
L 126.149172 104.520975 
L 125.413287 104.469912 
L 124.899156 104.762336 
L 124.709854 104.870051 
L 123.882315 105.340739 
L 116.405936 109.59383 
L 115.780888 109.949231 
L 114.199358 110.84855 
L 113.370436 111.320327 
L 115.292305 115.078309 
L 115.087147 115.183936 
L 110.981878 117.29326 
L 112.206299 119.686051 
L 111.551608 120.023294 
L 111.409358 120.096475 
L 110.477098 120.574838 
L 109.871911 119.375876 
L 109.253419 118.181967 
L 108.804556 118.413088 
L 108.342877 118.649456 
L 106.021541 119.842388 
L 105.717086 119.998837 
L 105.351752 120.186522 
L 103.43013 116.427972 
L 98.364094 118.874873 
L 96.281918 119.910916 
L 96.249377 120.062876 
L 96.219656 120.215386 
L 96.192687 120.368448 
L 96.282357 120.379073 
L 96.261258 120.533408 
L 96.234831 120.741797 
L 96.215639 120.920124 
L 96.197861 121.157045 
L 96.187993 121.257543 
L 96.173483 121.551747 
L 96.167538 121.846295 
L 96.176056 122.297397 
L 96.185459 122.498361 
L 96.207426 122.797902 
L 96.224395 122.974865 
L 96.253584 123.219171 
L 96.274315 123.371479 
L 96.310522 123.60582 
L 96.347991 123.80891 
L 96.390578 124.019635 
L 96.431884 124.208729 
L 96.487845 124.437247 
L 96.66064 125.035046 
L 96.600667 125.049584 
L 96.668777 125.242171 
L 96.740891 125.43329 
L 96.817008 125.622872 
L 96.896989 125.810852 
L 96.9809 125.997092 
L 97.064247 126.174011 
L 97.151115 126.349268 
L 97.241432 126.522728 
L 97.335264 126.694319 
L 99.572014 130.676931 
L 99.638291 130.795309 
L 99.647811 130.789729 
L 99.865586 131.170007 
L 100.078571 131.541754 
L 101.548616 134.108517 
L 101.617185 134.22835 
L 101.941294 134.756386 
L 102.270162 135.280191 
L 103.465507 137.122988 
L 104.619434 138.902885 
L 105.05792 139.597704 
L 105.340646 139.911312 
L 105.377676 139.951399 
L 105.414238 139.991909 
L 105.450263 140.032912 
L 105.465146 140.048479 
L 105.479893 140.064048 
L 105.494574 140.079757 
L 105.603422 140.20069 
L 105.707775 140.325504 
L 105.807562 140.454064 
L 105.902572 140.58617 
L 106.589998 141.688735 
L 106.962282 142.516691 
L 106.988192 142.714334 
L 107.022965 142.979638 
L 107.085504 143.093645 
L 107.147841 143.207795 
L 107.209976 143.322086 
L 107.215699 143.33245 
L 107.221355 143.342883 
L 107.226943 143.353319 
L 107.255082 143.405353 
L 107.283223 143.457456 
L 107.311364 143.509559 
L 107.446436 143.7606 
L 107.580561 144.012144 
L 107.713605 144.264263 
L 107.77477 144.38098 
L 107.835733 144.497838 
L 107.896493 144.614771 
L 107.966808 144.750691 
L 108.036786 144.886825 
L 108.106492 145.023034 
L 108.330353 145.47022 
L 108.550964 145.918995 
L 108.768326 146.369356 
L 108.983557 146.822239 
L 109.195469 147.276642 
L 109.40413 147.732564 
L 109.542722 148.042678 
L 109.678331 148.354098 
L 109.81089 148.666758 
L 109.9404 148.980794 
L 110.042424 149.241476 
L 110.137867 149.504649 
L 110.22652 149.770179 
L 110.308514 150.037858 
L 110.383641 150.307553 
L 110.451965 150.579058 
L 110.513346 150.852238 
L 110.577154 151.1758 
L 110.608499 151.348677 
L 110.755819 152.235043 
L 110.841545 152.550466 
L 111.002548 153.08418 
L 111.223442 153.810953 
L 111.789306 154.636156 
L 111.669197 154.715672 
L 111.73665 154.81474 
L 111.778285 154.875924 
L 111.772759 154.879624 
L 111.782407 154.893874 
L 112.47475 155.911307 
L 112.894084 156.527603 
L 112.766398 156.631181 
L 112.884664 156.780097 
L 112.881033 156.785743 
L 112.892698 156.798435 
L 113.642584 157.722472 
L 114.141775 158.337486 
L 114.027842 158.432089 
L 114.148617 158.580054 
L 114.14069 158.586419 
L 114.156129 158.605267 
L 114.739552 159.319842 
L 114.904115 159.521666 
L 115.888779 159.372638 
L 118.367192 159.634275 
" clip-path="url(#p5a5defeddc)" style="fill: #1f77b4"/>
   </g>
   <g id="matplotlib.axis_1">
    <g id="xtick_1">
     <g id="line2d_1">
      <defs>
       <path id="m6301b1e58c" d="M 0 0 
L 0 3.5 
" style="stroke: #000000; stroke-width: 0.8"/>
      </defs>
      <g>
       <use xlink:href="#m6301b1e58c" x="90.72106" y="307.584" style="stroke: #000000; stroke-width: 0.8"/>
      </g>
     </g>
     <g id="text_1">
      <!-- 13.28 -->
      <g transform="translate(76.406997 322.182437) scale(0.1 -0.1)">
       <defs>
        <path id="DejaVuSans-31" d="M 794 531 
L 1825 531 
L 1825 4091 
L 703 3866 
L 703 4441 
L 1819 4666 
L 2450 4666 
L 2450 531 
L 3481 531 
L 3481 0 
L 794 0 
L 794 531 
z
" transform="scale(0.015625)"/>
        <path id="DejaVuSans-33" d="M 2597 2516 
Q 3050 2419 3304 2112 
Q 3559 1806 3559 1356 
Q 3559 666 3084 287 
Q 2609 -91 1734 -91 
Q 1441 -91 1130 -33 
Q 819 25 488 141 
L 488 750 
Q 750 597 1062 519 
Q 1375 441 1716 441 
Q 2309 441 2620 675 
Q 2931 909 2931 1356 
Q 2931 1769 2642 2001 
Q 2353 2234 1838 2234 
L 1294 2234 
L 1294 2753 
L 1863 2753 
Q 2328 2753 2575 2939 
Q 2822 3125 2822 3475 
Q 2822 3834 2567 4026 
Q 2313 4219 1838 4219 
Q 1578 4219 1281 4162 
Q 984 4106 628 3988 
L 628 4550 
Q 988 4650 1302 4700 
Q 1616 4750 1894 4750 
Q 2613 4750 3031 4423 
Q 3450 4097 3450 3541 
Q 3450 3153 3228 2886 
Q 3006 2619 2597 2516 
z
" transform="scale(0.015625)"/>
        <path id="DejaVuSans-2e" d="M 684 794 
L 1344 794 
L 1344 0 
L 684 0 
L 684 794 
z
" transform="scale(0.015625)"/>
        <path id="DejaVuSans-32" d="M 1228 531 
L 3431 531 
L 3431 0 
L 469 0 
L 469 531 
Q 828 903 1448 1529 
Q 2069 2156 2228 2338 
Q 2531 2678 2651 2914 
Q 2772 3150 2772 3378 
Q 2772 3750 2511 3984 
Q 2250 4219 1831 4219 
Q 1534 4219 1204 4116 
Q 875 4013 500 3803 
L 500 4441 
Q 881 4594 1212 4672 
Q 1544 4750 1819 4750 
Q 2544 4750 2975 4387 
Q 3406 4025 3406 3419 
Q 3406 3131 3298 2873 
Q 3191 2616 2906 2266 
Q 2828 2175 2409 1742 
Q 1991 1309 1228 531 
z
" transform="scale(0.015625)"/>
        <path id="DejaVuSans-38" d="M 2034 2216 
Q 1584 2216 1326 1975 
Q 1069 1734 1069 1313 
Q 1069 891 1326 650 
Q 1584 409 2034 409 
Q 2484 409 2743 651 
Q 3003 894 3003 1313 
Q 3003 1734 2745 1975 
Q 2488 2216 2034 2216 
z
M 1403 2484 
Q 997 2584 770 2862 
Q 544 3141 544 3541 
Q 544 4100 942 4425 
Q 1341 4750 2034 4750 
Q 2731 4750 3128 4425 
Q 3525 4100 3525 3541 
Q 3525 3141 3298 2862 
Q 3072 2584 2669 2484 
Q 3125 2378 3379 2068 
Q 3634 1759 3634 1313 
Q 3634 634 3220 271 
Q 2806 -91 2034 -91 
Q 1263 -91 848 271 
Q 434 634 434 1313 
Q 434 1759 690 2068 
Q 947 2378 1403 2484 
z
M 1172 3481 
Q 1172 3119 1398 2916 
Q 1625 2713 2034 2713 
Q 2441 2713 2670 2916 
Q 2900 3119 2900 3481 
Q 2900 3844 2670 4047 
Q 2441 4250 2034 4250 
Q 1625 4250 1398 4047 
Q 1172 3844 1172 3481 
z
" transform="scale(0.015625)"/>
       </defs>
       <use xlink:href="#DejaVuSans-31"/>
       <use xlink:href="#DejaVuSans-33" x="63.623047"/>
       <use xlink:href="#DejaVuSans-2e" x="127.246094"/>
       <use xlink:href="#DejaVuSans-32" x="159.033203"/>
       <use xlink:href="#DejaVuSans-38" x="222.65625"/>
      </g>
     </g>
    </g>
    <g id="xtick_2">
     <g id="line2d_2">
      <g>
       <use xlink:href="#m6301b1e58c" x="137.192333" y="307.584" style="stroke: #000000; stroke-width: 0.8"/>
      </g>
     </g>
     <g id="text_2">
      <!-- 13.29 -->
      <g transform="translate(122.878271 322.182437) scale(0.1 -0.1)">
       <defs>
        <path id="DejaVuSans-39" d="M 703 97 
L 703 672 
Q 941 559 1184 500 
Q 1428 441 1663 441 
Q 2288 441 2617 861 
Q 2947 1281 2994 2138 
Q 2813 1869 2534 1725 
Q 2256 1581 1919 1581 
Q 1219 1581 811 2004 
Q 403 2428 403 3163 
Q 403 3881 828 4315 
Q 1253 4750 1959 4750 
Q 2769 4750 3195 4129 
Q 3622 3509 3622 2328 
Q 3622 1225 3098 567 
Q 2575 -91 1691 -91 
Q 1453 -91 1209 -44 
Q 966 3 703 97 
z
M 1959 2075 
Q 2384 2075 2632 2365 
Q 2881 2656 2881 3163 
Q 2881 3666 2632 3958 
Q 2384 4250 1959 4250 
Q 1534 4250 1286 3958 
Q 1038 3666 1038 3163 
Q 1038 2656 1286 2365 
Q 1534 2075 1959 2075 
z
" transform="scale(0.015625)"/>
       </defs>
       <use xlink:href="#DejaVuSans-31"/>
       <use xlink:href="#DejaVuSans-33" x="63.623047"/>
       <use xlink:href="#DejaVuSans-2e" x="127.246094"/>
       <use xlink:href="#DejaVuSans-32" x="159.033203"/>
       <use xlink:href="#DejaVuSans-39" x="222.65625"/>
      </g>
     </g>
    </g>
    <g id="xtick_3">
     <g id="line2d_3">
      <g>
       <use xlink:href="#m6301b1e58c" x="183.663607" y="307.584" style="stroke: #000000; stroke-width: 0.8"/>
      </g>
     </g>
     <g id="text_3">
      <!-- 13.30 -->
      <g transform="translate(169.349544 322.182437) scale(0.1 -0.1)">
       <defs>
        <path id="DejaVuSans-30" d="M 2034 4250 
Q 1547 4250 1301 3770 
Q 1056 3291 1056 2328 
Q 1056 1369 1301 889 
Q 1547 409 2034 409 
Q 2525 409 2770 889 
Q 3016 1369 3016 2328 
Q 3016 3291 2770 3770 
Q 2525 4250 2034 4250 
z
M 2034 4750 
Q 2819 4750 3233 4129 
Q 3647 3509 3647 2328 
Q 3647 1150 3233 529 
Q 2819 -91 2034 -91 
Q 1250 -91 836 529 
Q 422 1150 422 2328 
Q 422 3509 836 4129 
Q 1250 4750 2034 4750 
z
" transform="scale(0.015625)"/>
       </defs>
       <use xlink:href="#DejaVuSans-31"/>
       <use xlink:href="#DejaVuSans-33" x="63.623047"/>
       <use xlink:href="#DejaVuSans-2e" x="127.246094"/>
       <use xlink:href="#DejaVuSans-33" x="159.033203"/>
       <use xlink:href="#DejaVuSans-30" x="222.65625"/>
      </g>
     </g>
    </g>
    <g id="xtick_4">
     <g id="line2d_4">
      <g>
       <use xlink:href="#m6301b1e58c" x="230.13488" y="307.584" style="stroke: #000000; stroke-width: 0.8"/>
      </g>
     </g>
     <g id="text_4">
      <!-- 13.31 -->
      <g transform="translate(215.820817 322.182437) scale(0.1 -0.1)">
       <use xlink:href="#DejaVuSans-31"/>
       <use xlink:href="#DejaVuSans-33" x="63.623047"/>
       <use xlink:href="#DejaVuSans-2e" x="127.246094"/>
       <use xlink:href="#DejaVuSans-33" x="159.033203"/>
       <use xlink:href="#DejaVuSans-31" x="222.65625"/>
      </g>
     </g>
    </g>
    <g id="xtick_5">
     <g id="line2d_5">
      <g>
       <use xlink:href="#m6301b1e58c" x="276.606153" y="307.584" style="stroke: #000000; stroke-width: 0.8"/>
      </g>
     </g>
     <g id="text_5">
      <!-- 13.32 -->
      <g transform="translate(262.292091 322.182437) scale(0.1 -0.1)">
       <use xlink:href="#DejaVuSans-31"/>
       <use xlink:href="#DejaVuSans-33" x="63.623047"/>
       <use xlink:href="#DejaVuSans-2e" x="127.246094"/>
       <use xlink:href="#DejaVuSans-33" x="159.033203"/>
       <use xlink:href="#DejaVuSans-32" x="222.65625"/>
      </g>
     </g>
    </g>
    <g id="xtick_6">
     <g id="line2d_6">
      <g>
       <use xlink:href="#m6301b1e58c" x="323.077427" y="307.584" style="stroke: #000000; stroke-width: 0.8"/>
      </g>
     </g>
     <g id="text_6">
      <!-- 13.33 -->
      <g transform="translate(308.763364 322.182437) scale(0.1 -0.1)">
       <use xlink:href="#DejaVuSans-31"/>
       <use xlink:href="#DejaVuSans-33" x="63.623047"/>
       <use xlink:href="#DejaVuSans-2e" x="127.246094"/>
       <use xlink:href="#DejaVuSans-33" x="159.033203"/>
       <use xlink:href="#DejaVuSans-33" x="222.65625"/>
      </g>
     </g>
    </g>
    <g id="xtick_7">
     <g id="line2d_7">
      <g>
       <use xlink:href="#m6301b1e58c" x="369.5487" y="307.584" style="stroke: #000000; stroke-width: 0.8"/>
      </g>
     </g>
     <g id="text_7">
      <!-- 13.34 -->
      <g transform="translate(355.234637 322.182437) scale(0.1 -0.1)">
       <defs>
        <path id="DejaVuSans-34" d="M 2419 4116 
L 825 1625 
L 2419 1625 
L 2419 4116 
z
M 2253 4666 
L 3047 4666 
L 3047 1625 
L 3713 1625 
L 3713 1100 
L 3047 1100 
L 3047 0 
L 2419 0 
L 2419 1100 
L 313 1100 
L 313 1709 
L 2253 4666 
z
" transform="scale(0.015625)"/>
       </defs>
       <use xlink:href="#DejaVuSans-31"/>
       <use xlink:href="#DejaVuSans-33" x="63.623047"/>
       <use xlink:href="#DejaVuSans-2e" x="127.246094"/>
       <use xlink:href="#DejaVuSans-33" x="159.033203"/>
       <use xlink:href="#DejaVuSans-34" x="222.65625"/>
      </g>
     </g>
    </g>
   </g>
   <g id="matplotlib.axis_2">
    <g id="ytick_1">
     <g id="line2d_8">
      <defs>
       <path id="m27b85658e1" d="M 0 0 
L -3.5 0 
" style="stroke: #000000; stroke-width: 0.8"/>
      </defs>
      <g>
       <use xlink:href="#m27b85658e1" x="82.168292" y="275.194385" style="stroke: #000000; stroke-width: 0.8"/>
      </g>
     </g>
     <g id="text_8">
      <!-- 52.480 -->
      <g transform="translate(40.177667 278.993603) scale(0.1 -0.1)">
       <defs>
        <path id="DejaVuSans-35" d="M 691 4666 
L 3169 4666 
L 3169 4134 
L 1269 4134 
L 1269 2991 
Q 1406 3038 1543 3061 
Q 1681 3084 1819 3084 
Q 2600 3084 3056 2656 
Q 3513 2228 3513 1497 
Q 3513 744 3044 326 
Q 2575 -91 1722 -91 
Q 1428 -91 1123 -41 
Q 819 9 494 109 
L 494 744 
Q 775 591 1075 516 
Q 1375 441 1709 441 
Q 2250 441 2565 725 
Q 2881 1009 2881 1497 
Q 2881 1984 2565 2268 
Q 2250 2553 1709 2553 
Q 1456 2553 1204 2497 
Q 953 2441 691 2322 
L 691 4666 
z
" transform="scale(0.015625)"/>
       </defs>
       <use xlink:href="#DejaVuSans-35"/>
       <use xlink:href="#DejaVuSans-32" x="63.623047"/>
       <use xlink:href="#DejaVuSans-2e" x="127.246094"/>
       <use xlink:href="#DejaVuSans-34" x="159.033203"/>
       <use xlink:href="#DejaVuSans-38" x="222.65625"/>
       <use xlink:href="#DejaVuSans-30" x="286.279297"/>
      </g>
     </g>
    </g>
    <g id="ytick_2">
     <g id="line2d_9">
      <g>
       <use xlink:href="#m27b85658e1" x="82.168292" y="237.031589" style="stroke: #000000; stroke-width: 0.8"/>
      </g>
     </g>
     <g id="text_9">
      <!-- 52.485 -->
      <g transform="translate(40.177667 240.830808) scale(0.1 -0.1)">
       <use xlink:href="#DejaVuSans-35"/>
       <use xlink:href="#DejaVuSans-32" x="63.623047"/>
       <use xlink:href="#DejaVuSans-2e" x="127.246094"/>
       <use xlink:href="#DejaVuSans-34" x="159.033203"/>
       <use xlink:href="#DejaVuSans-38" x="222.65625"/>
       <use xlink:href="#DejaVuSans-35" x="286.279297"/>
      </g>
     </g>
    </g>
    <g id="ytick_3">
     <g id="line2d_10">
      <g>
       <use xlink:href="#m27b85658e1" x="82.168292" y="198.868794" style="stroke: #000000; stroke-width: 0.8"/>
      </g>
     </g>
     <g id="text_10">
      <!-- 52.490 -->
      <g transform="translate(40.177667 202.668013) scale(0.1 -0.1)">
       <use xlink:href="#DejaVuSans-35"/>
       <use xlink:href="#DejaVuSans-32" x="63.623047"/>
       <use xlink:href="#DejaVuSans-2e" x="127.246094"/>
       <use xlink:href="#DejaVuSans-34" x="159.033203"/>
       <use xlink:href="#DejaVuSans-39" x="222.65625"/>
       <use xlink:href="#DejaVuSans-30" x="286.279297"/>
      </g>
     </g>
    </g>
    <g id="ytick_4">
     <g id="line2d_11">
      <g>
       <use xlink:href="#m27b85658e1" x="82.168292" y="160.705999" style="stroke: #000000; stroke-width: 0.8"/>
      </g>
     </g>
     <g id="text_11">
      <!-- 52.495 -->
      <g transform="translate(40.177667 164.505218) scale(0.1 -0.1)">
       <use xlink:href="#DejaVuSans-35"/>
       <use xlink:href="#DejaVuSans-32" x="63.623047"/>
       <use xlink:href="#DejaVuSans-2e" x="127.246094"/>
       <use xlink:href="#DejaVuSans-34" x="159.033203"/>
       <use xlink:href="#DejaVuSans-39" x="222.65625"/>
       <use xlink:href="#DejaVuSans-35" x="286.279297"/>
      </g>
     </g>
    </g>
    <g id="ytick_5">
     <g id="line2d_12">
      <g>
       <use xlink:href="#m27b85658e1" x="82.168292" y="122.543204" style="stroke: #000000; stroke-width: 0.8"/>
      </g>
     </g>
     <g id="text_12">
      <!-- 52.500 -->
      <g transform="translate(40.177667 126.342422) scale(0.1 -0.1)">
       <use xlink:href="#DejaVuSans-35"/>
       <use xlink:href="#DejaVuSans-32" x="63.623047"/>
       <use xlink:href="#DejaVuSans-2e" x="127.246094"/>
       <use xlink:href="#DejaVuSans-35" x="159.033203"/>
       <use xlink:href="#DejaVuSans-30" x="222.65625"/>
       <use xlink:href="#DejaVuSans-30" x="286.279297"/>
      </g>
     </g>
    </g>
    <g id="ytick_6">
     <g id="line2d_13">
      <g>
       <use xlink:href="#m27b85658e1" x="82.168292" y="84.380408" style="stroke: #000000; stroke-width: 0.8"/>
      </g>
     </g>
     <g id="text_13">
      <!-- 52.505 -->
      <g transform="translate(40.177667 88.179627) scale(0.1 -0.1)">
       <use xlink:href="#DejaVuSans-35"/>
       <use xlink:href="#DejaVuSans-32" x="63.623047"/>
       <use xlink:href="#DejaVuSans-2e" x="127.246094"/>
       <use xlink:href="#DejaVuSans-35" x="159.033203"/>
       <use xlink:href="#DejaVuSans-30" x="222.65625"/>
       <use xlink:href="#DejaVuSans-35" x="286.279297"/>
      </g>
     </g>
    </g>
    <g id="ytick_7">
     <g id="line2d_14">
      <g>
       <use xlink:href="#m27b85658e1" x="82.168292" y="46.217613" style="stroke: #000000; stroke-width: 0.8"/>
      </g>
     </g>
     <g id="text_14">
      <!-- 52.510 -->
      <g transform="translate(40.177667 50.016832) scale(0.1 -0.1)">
       <use xlink:href="#DejaVuSans-35"/>
       <use xlink:href="#DejaVuSans-32" x="63.623047"/>
       <use xlink:href="#DejaVuSans-2e" x="127.246094"/>
       <use xlink:href="#DejaVuSans-35" x="159.033203"/>
       <use xlink:href="#DejaVuSans-31" x="222.65625"/>
       <use xlink:href="#DejaVuSans-30" x="286.279297"/>
      </g>
     </g>
    </g>
   </g>
   <g id="patch_3">
    <path d="M 82.168292 307.584 
L 82.168292 41.472 
" style="fill: none; stroke: #000000; stroke-width: 0.8; stroke-linejoin: miter; stroke-linecap: square"/>
   </g>
   <g id="patch_4">
    <path d="M 390.151708 307.584 
L 390.151708 41.472 
" style="fill: none; stroke: #000000; stroke-width: 0.8; stroke-linejoin: miter; stroke-linecap: square"/>
   </g>
   <g id="patch_5">
    <path d="M 82.168292 307.584 
L 390.151708 307.584 
" style="fill: none; stroke: #000000; stroke-width: 0.8; stroke-linejoin: miter; stroke-linecap: square"/>
   </g>
   <g id="patch_6">
    <path d="M 82.168292 41.472 
L 390.151708 41.472 
" style="fill: none; stroke: #000000; stroke-width: 0.8; stroke-linejoin: miter; stroke-linecap: square"/>
   </g>
   <g id="text_15">
    <!-- Wilmersdorf_Zentrum -->
    <g transform="translate(193.988934 177.617246) scale(0.12 -0.12)">
     <defs>
      <path id="DejaVuSans-57" d="M 213 4666 
L 850 4666 
L 1831 722 
L 2809 4666 
L 3519 4666 
L 4500 722 
L 5478 4666 
L 6119 4666 
L 4947 0 
L 4153 0 
L 3169 4050 
L 2175 0 
L 1381 0 
L 213 4666 
z
" transform="scale(0.015625)"/>
      <path id="DejaVuSans-69" d="M 603 3500 
L 1178 3500 
L 1178 0 
L 603 0 
L 603 3500 
z
M 603 4863 
L 1178 4863 
L 1178 4134 
L 603 4134 
L 603 4863 
z
" transform="scale(0.015625)"/>
      <path id="DejaVuSans-6c" d="M 603 4863 
L 1178 4863 
L 1178 0 
L 603 0 
L 603 4863 
z
" transform="scale(0.015625)"/>
      <path id="DejaVuSans-6d" d="M 3328 2828 
Q 3544 3216 3844 3400 
Q 4144 3584 4550 3584 
Q 5097 3584 5394 3201 
Q 5691 2819 5691 2113 
L 5691 0 
L 5113 0 
L 5113 2094 
Q 5113 2597 4934 2840 
Q 4756 3084 4391 3084 
Q 3944 3084 3684 2787 
Q 3425 2491 3425 1978 
L 3425 0 
L 2847 0 
L 2847 2094 
Q 2847 2600 2669 2842 
Q 2491 3084 2119 3084 
Q 1678 3084 1418 2786 
Q 1159 2488 1159 1978 
L 1159 0 
L 581 0 
L 581 3500 
L 1159 3500 
L 1159 2956 
Q 1356 3278 1631 3431 
Q 1906 3584 2284 3584 
Q 2666 3584 2933 3390 
Q 3200 3197 3328 2828 
z
" transform="scale(0.015625)"/>
      <path id="DejaVuSans-65" d="M 3597 1894 
L 3597 1613 
L 953 1613 
Q 991 1019 1311 708 
Q 1631 397 2203 397 
Q 2534 397 2845 478 
Q 3156 559 3463 722 
L 3463 178 
Q 3153 47 2828 -22 
Q 2503 -91 2169 -91 
Q 1331 -91 842 396 
Q 353 884 353 1716 
Q 353 2575 817 3079 
Q 1281 3584 2069 3584 
Q 2775 3584 3186 3129 
Q 3597 2675 3597 1894 
z
M 3022 2063 
Q 3016 2534 2758 2815 
Q 2500 3097 2075 3097 
Q 1594 3097 1305 2825 
Q 1016 2553 972 2059 
L 3022 2063 
z
" transform="scale(0.015625)"/>
      <path id="DejaVuSans-72" d="M 2631 2963 
Q 2534 3019 2420 3045 
Q 2306 3072 2169 3072 
Q 1681 3072 1420 2755 
Q 1159 2438 1159 1844 
L 1159 0 
L 581 0 
L 581 3500 
L 1159 3500 
L 1159 2956 
Q 1341 3275 1631 3429 
Q 1922 3584 2338 3584 
Q 2397 3584 2469 3576 
Q 2541 3569 2628 3553 
L 2631 2963 
z
" transform="scale(0.015625)"/>
      <path id="DejaVuSans-73" d="M 2834 3397 
L 2834 2853 
Q 2591 2978 2328 3040 
Q 2066 3103 1784 3103 
Q 1356 3103 1142 2972 
Q 928 2841 928 2578 
Q 928 2378 1081 2264 
Q 1234 2150 1697 2047 
L 1894 2003 
Q 2506 1872 2764 1633 
Q 3022 1394 3022 966 
Q 3022 478 2636 193 
Q 2250 -91 1575 -91 
Q 1294 -91 989 -36 
Q 684 19 347 128 
L 347 722 
Q 666 556 975 473 
Q 1284 391 1588 391 
Q 1994 391 2212 530 
Q 2431 669 2431 922 
Q 2431 1156 2273 1281 
Q 2116 1406 1581 1522 
L 1381 1569 
Q 847 1681 609 1914 
Q 372 2147 372 2553 
Q 372 3047 722 3315 
Q 1072 3584 1716 3584 
Q 2034 3584 2315 3537 
Q 2597 3491 2834 3397 
z
" transform="scale(0.015625)"/>
      <path id="DejaVuSans-64" d="M 2906 2969 
L 2906 4863 
L 3481 4863 
L 3481 0 
L 2906 0 
L 2906 525 
Q 2725 213 2448 61 
Q 2172 -91 1784 -91 
Q 1150 -91 751 415 
Q 353 922 353 1747 
Q 353 2572 751 3078 
Q 1150 3584 1784 3584 
Q 2172 3584 2448 3432 
Q 2725 3281 2906 2969 
z
M 947 1747 
Q 947 1113 1208 752 
Q 1469 391 1925 391 
Q 2381 391 2643 752 
Q 2906 1113 2906 1747 
Q 2906 2381 2643 2742 
Q 2381 3103 1925 3103 
Q 1469 3103 1208 2742 
Q 947 2381 947 1747 
z
" transform="scale(0.015625)"/>
      <path id="DejaVuSans-6f" d="M 1959 3097 
Q 1497 3097 1228 2736 
Q 959 2375 959 1747 
Q 959 1119 1226 758 
Q 1494 397 1959 397 
Q 2419 397 2687 759 
Q 2956 1122 2956 1747 
Q 2956 2369 2687 2733 
Q 2419 3097 1959 3097 
z
M 1959 3584 
Q 2709 3584 3137 3096 
Q 3566 2609 3566 1747 
Q 3566 888 3137 398 
Q 2709 -91 1959 -91 
Q 1206 -91 779 398 
Q 353 888 353 1747 
Q 353 2609 779 3096 
Q 1206 3584 1959 3584 
z
" transform="scale(0.015625)"/>
      <path id="DejaVuSans-66" d="M 2375 4863 
L 2375 4384 
L 1825 4384 
Q 1516 4384 1395 4259 
Q 1275 4134 1275 3809 
L 1275 3500 
L 2222 3500 
L 2222 3053 
L 1275 3053 
L 1275 0 
L 697 0 
L 697 3053 
L 147 3053 
L 147 3500 
L 697 3500 
L 697 3744 
Q 697 4328 969 4595 
Q 1241 4863 1831 4863 
L 2375 4863 
z
" transform="scale(0.015625)"/>
      <path id="DejaVuSans-5f" d="M 3263 -1063 
L 3263 -1509 
L -63 -1509 
L -63 -1063 
L 3263 -1063 
z
" transform="scale(0.015625)"/>
      <path id="DejaVuSans-5a" d="M 359 4666 
L 4025 4666 
L 4025 4184 
L 1075 531 
L 4097 531 
L 4097 0 
L 288 0 
L 288 481 
L 3238 4134 
L 359 4134 
L 359 4666 
z
" transform="scale(0.015625)"/>
      <path id="DejaVuSans-6e" d="M 3513 2113 
L 3513 0 
L 2938 0 
L 2938 2094 
Q 2938 2591 2744 2837 
Q 2550 3084 2163 3084 
Q 1697 3084 1428 2787 
Q 1159 2491 1159 1978 
L 1159 0 
L 581 0 
L 581 3500 
L 1159 3500 
L 1159 2956 
Q 1366 3272 1645 3428 
Q 1925 3584 2291 3584 
Q 2894 3584 3203 3211 
Q 3513 2838 3513 2113 
z
" transform="scale(0.015625)"/>
      <path id="DejaVuSans-74" d="M 1172 4494 
L 1172 3500 
L 2356 3500 
L 2356 3053 
L 1172 3053 
L 1172 1153 
Q 1172 725 1289 603 
Q 1406 481 1766 481 
L 2356 481 
L 2356 0 
L 1766 0 
Q 1100 0 847 248 
Q 594 497 594 1153 
L 594 3053 
L 172 3053 
L 172 3500 
L 594 3500 
L 594 4494 
L 1172 4494 
z
" transform="scale(0.015625)"/>
      <path id="DejaVuSans-75" d="M 544 1381 
L 544 3500 
L 1119 3500 
L 1119 1403 
Q 1119 906 1312 657 
Q 1506 409 1894 409 
Q 2359 409 2629 706 
Q 2900 1003 2900 1516 
L 2900 3500 
L 3475 3500 
L 3475 0 
L 2900 0 
L 2900 538 
Q 2691 219 2414 64 
Q 2138 -91 1772 -91 
Q 1169 -91 856 284 
Q 544 659 544 1381 
z
M 1991 3584 
L 1991 3584 
z
" transform="scale(0.015625)"/>
     </defs>
     <use xlink:href="#DejaVuSans-57"/>
     <use xlink:href="#DejaVuSans-69" x="96.626953"/>
     <use xlink:href="#DejaVuSans-6c" x="124.410156"/>
     <use xlink:href="#DejaVuSans-6d" x="152.193359"/>
     <use xlink:href="#DejaVuSans-65" x="249.605469"/>
     <use xlink:href="#DejaVuSans-72" x="311.128906"/>
     <use xlink:href="#DejaVuSans-73" x="352.242188"/>
     <use xlink:href="#DejaVuSans-64" x="404.341797"/>
     <use xlink:href="#DejaVuSans-6f" x="467.818359"/>
     <use xlink:href="#DejaVuSans-72" x="529"/>
     <use xlink:href="#DejaVuSans-66" x="570.113281"/>
     <use xlink:href="#DejaVuSans-5f" x="605.318359"/>
     <use xlink:href="#DejaVuSans-5a" x="655.318359"/>
     <use xlink:href="#DejaVuSans-65" x="723.824219"/>
     <use xlink:href="#DejaVuSans-6e" x="785.347656"/>
     <use xlink:href="#DejaVuSans-74" x="848.726562"/>
     <use xlink:href="#DejaVuSans-72" x="887.935547"/>
     <use xlink:href="#DejaVuSans-75" x="929.048828"/>
     <use xlink:href="#DejaVuSans-6d" x="992.427734"/>
    </g>
   </g>
  </g>
 </g>
 <defs>
  <clipPath id="p5a5defeddc">
   <rect x="82.168292" y="41.472" width="307.983415" height="266.112"/>
  </clipPath>
 </defs>
</svg>
