<?xml version="1.0" encoding="utf-8" standalone="no"?>
<!DOCTYPE svg PUBLIC "-//W3C//DTD SVG 1.1//EN"
  "http://www.w3.org/Graphics/SVG/1.1/DTD/svg11.dtd">
<svg xmlns:xlink="http://www.w3.org/1999/xlink" width="460.8pt" height="345.6pt" viewBox="0 0 460.8 345.6" xmlns="http://www.w3.org/2000/svg" version="1.1">
 <metadata>
  <rdf:RDF xmlns:dc="http://purl.org/dc/elements/1.1/" xmlns:cc="http://creativecommons.org/ns#" xmlns:rdf="http://www.w3.org/1999/02/22-rdf-syntax-ns#">
   <cc:Work>
    <dc:type rdf:resource="http://purl.org/dc/dcmitype/StillImage"/>
    <dc:date>2024-10-15T09:53:27.591545</dc:date>
    <dc:format>image/svg+xml</dc:format>
    <dc:creator>
     <cc:Agent>
      <dc:title>Matplotlib v3.8.4, https://matplotlib.org/</dc:title>
     </cc:Agent>
    </dc:creator>
   </cc:Work>
  </rdf:RDF>
 </metadata>
 <defs>
  <style type="text/css">*{stroke-linejoin: round; stroke-linecap: butt}</style>
 </defs>
 <g id="figure_1">
  <g id="patch_1">
   <path d="M 0 345.6 
L 460.8 345.6 
L 460.8 0 
L 0 0 
z
" style="fill: #ffffff"/>
  </g>
  <g id="axes_1">
   <g id="patch_2">
    <path d="M 57.6 295.287629 
L 414.72 295.287629 
L 414.72 53.768371 
L 57.6 53.768371 
z
" style="fill: #ffffff"/>
   </g>
   <g id="PatchCollection_1">
    <path d="M 397.110253 251.394567 
L 397.135668 250.416045 
L 397.156571 249.596872 
L 397.189705 248.324301 
L 397.30759 243.796817 
L 397.319862 243.26505 
L 397.331357 242.82021 
L 397.34635 242.237751 
L 397.388307 240.605818 
L 397.42964 238.989648 
L 397.448751 238.288806 
L 397.507223 236.019609 
L 397.561558 233.888046 
L 397.580106 233.185467 
L 397.622104 231.572781 
L 397.647637 230.602024 
L 397.687104 229.080855 
L 397.705071 228.37829 
L 397.758035 226.332967 
L 397.968503 218.232142 
L 397.990944 217.351224 
L 398.021378 216.165299 
L 398.046349 215.192806 
L 398.076783 214.006881 
L 398.099269 213.132903 
L 398.322865 213.129322 
L 398.324201 212.875917 
L 398.324671 212.783282 
L 396.814751 212.765414 
L 396.813921 212.852516 
L 396.811725 213.096376 
L 396.792018 213.229881 
L 396.787184 213.382578 
L 396.769956 213.968996 
L 396.491602 213.911678 
L 396.100341 213.832204 
L 395.96606 213.803956 
L 395.931231 213.975202 
L 395.720157 213.931771 
L 395.418131 213.869698 
L 395.242131 213.833558 
L 395.080451 213.80035 
L 394.668066 213.715597 
L 394.576005 213.696746 
L 394.020818 213.582604 
L 393.773098 213.53933 
L 393.535134 213.482822 
L 393.207064 213.416518 
L 392.284354 213.203107 
L 391.1361 212.939495 
L 390.668561 212.832062 
L 389.791327 212.630605 
L 389.665932 212.601802 
L 389.50398 212.564462 
L 388.559985 212.346544 
L 387.647516 212.136001 
L 386.735101 211.925343 
L 386.270295 211.818028 
L 385.9419 211.725376 
L 385.043786 211.471868 
L 384.210435 211.236564 
L 384.12652 211.212861 
L 383.767326 211.106699 
L 383.262855 210.92484 
L 382.523249 210.658245 
L 382.3855 210.608562 
L 381.648826 210.340559 
L 380.883051 210.061982 
L 380.295574 209.84818 
L 380.017056 209.721647 
L 379.16704 209.335505 
L 378.812613 209.174409 
L 378.541563 209.051319 
L 378.424196 208.997603 
L 378.327967 208.952258 
L 378.00128 208.798273 
L 377.79241 208.69986 
L 377.659418 208.637177 
L 377.548309 208.58489 
L 377.229035 208.434523 
L 376.841351 208.251811 
L 376.645358 208.15928 
L 376.394021 208.040922 
L 376.276498 207.985519 
L 376.135858 207.919224 
L 375.963224 207.838046 
L 375.525069 207.631494 
L 375.379488 207.562866 
L 375.092973 207.427833 
L 374.923043 207.347876 
L 374.591176 207.19145 
L 374.178607 206.997016 
L 372.604159 206.035647 
L 372.443993 205.937848 
L 371.379363 205.287745 
L 370.57511 204.796909 
L 369.129171 203.716653 
L 366.830102 201.99898 
L 366.638185 201.839517 
L 365.027726 200.501188 
L 364.097938 199.101127 
L 363.432531 198.311244 
L 362.73571 197.484078 
L 362.673831 197.410169 
L 362.512252 197.217218 
L 362.326413 197.106611 
L 362.145105 196.87096 
L 361.963683 196.635429 
L 361.782202 196.399899 
L 360.852067 195.19572 
L 359.919695 193.99323 
L 358.985088 192.792545 
L 358.048244 191.593549 
L 357.738837 191.19164 
L 357.425544 190.792796 
L 357.108482 190.397016 
L 356.787534 190.004303 
L 356.462877 189.614709 
L 355.709894 188.696337 
L 354.833975 187.720774 
L 354.094464 186.95625 
L 353.393036 186.163419 
L 353.197987 185.942912 
L 353.122033 185.85697 
L 352.936779 185.647315 
L 352.56141 185.19429 
L 352.556225 185.198961 
L 351.403339 183.789772 
L 351.191089 183.535373 
L 351.122124 183.452301 
L 350.773469 183.019824 
L 350.176572 182.386347 
L 349.6519 181.838608 
L 349.612629 181.788844 
L 349.373821 181.486133 
L 348.482259 180.355981 
L 348.296692 180.120789 
L 347.336052 178.903139 
L 347.08267 178.581991 
L 346.748525 178.15851 
L 345.946643 177.142155 
L 345.965499 176.908461 
L 345.922283 176.856748 
L 345.009144 177.158763 
L 344.903778 177.193612 
L 344.684203 176.743409 
L 344.569861 176.508937 
L 344.195408 175.862312 
L 343.563171 174.91821 
L 342.712024 173.647198 
L 342.480112 173.54037 
L 342.269322 173.607737 
L 339.015545 169.444436 
L 338.300648 168.562303 
L 337.723812 167.908432 
L 337.127785 167.267496 
L 336.537569 166.628874 
L 336.096865 166.133545 
L 336.399919 165.881496 
L 335.843416 165.201895 
L 331.206335 159.539261 
L 327.40826 154.912543 
L 326.895001 154.287351 
L 326.731498 154.396544 
L 326.282795 153.727952 
L 325.729785 152.904102 
L 325.709827 152.874301 
L 325.712158 152.871971 
L 325.694578 152.849346 
L 325.692292 152.851091 
L 325.271479 152.255453 
L 324.749004 151.555298 
L 324.207358 150.873911 
L 324.036335 150.668039 
L 323.647197 150.19961 
L 322.232112 148.50234 
L 321.621111 147.769574 
L 321.871267 147.529431 
L 320.844303 146.25738 
L 320.698016 146.076282 
L 320.654804 146.022707 
L 320.48993 146.145467 
L 320.10185 146.434419 
L 318.914436 144.985811 
L 318.887479 144.952909 
L 318.832904 144.886245 
L 318.692909 144.715498 
L 318.883743 144.550945 
L 318.43221 144.008653 
L 318.267607 143.810899 
L 318.121507 143.635456 
L 318.036121 143.532889 
L 315.071017 139.971689 
L 315.008644 139.96202 
L 313.320631 137.919231 
L 313.32018 137.862897 
L 308.924587 132.569966 
L 307.064975 130.330854 
L 305.836558 128.85183 
L 305.132627 128.063434 
L 305.003716 127.921771 
L 304.933767 127.845033 
L 304.743138 127.640086 
L 304.488087 127.368243 
L 304.22591 127.102694 
L 303.961903 126.84098 
L 303.693513 126.581002 
L 303.424834 126.323599 
L 303.151819 126.069914 
L 302.868026 125.813218 
L 302.58072 125.560572 
L 302.296625 125.31829 
L 302.010334 125.079153 
L 301.724516 124.840354 
L 301.299308 124.479682 
L 301.016308 124.237026 
L 300.738041 123.990292 
L 300.464269 123.74666 
L 300.203247 123.508209 
L 300.025246 123.345546 
L 299.618314 122.960471 
L 299.213061 122.575065 
L 298.807484 122.188327 
L 298.403639 121.801023 
L 298.198733 121.610474 
L 297.991273 121.422611 
L 297.779895 121.238924 
L 297.564935 121.058822 
L 297.351783 120.87891 
L 297.310044 120.843735 
L 297.168999 120.72336 
L 297.177507 120.716451 
L 297.100539 120.643264 
L 296.961304 120.510773 
L 296.875822 120.429446 
L 296.730277 120.29098 
L 296.651821 120.21637 
L 296.503117 120.074771 
L 296.421864 119.997544 
L 296.413413 120.004393 
L 296.371632 119.964961 
L 296.282234 119.880461 
L 293.93703 117.662962 
L 292.369077 116.180429 
L 292.163342 115.987105 
L 291.907283 115.737637 
L 291.268142 115.116015 
L 291.058441 114.912521 
L 290.109116 113.989697 
L 288.62083 112.543385 
L 286.290311 110.277596 
L 282.654882 106.821104 
L 282.657253 106.818015 
L 282.029183 106.223332 
L 281.817822 106.014167 
L 281.424751 105.592217 
L 280.801881 104.88525 
L 279.1072 102.961682 
L 278.658254 103.288305 
L 278.624441 103.312905 
L 277.951138 103.801981 
L 277.695904 103.987397 
L 277.585018 103.82887 
L 277.565982 103.840929 
L 277.546764 103.8527 
L 277.527365 103.864185 
L 277.507609 103.875328 
L 277.487613 103.886185 
L 277.467492 103.896695 
L 277.434638 103.910132 
L 277.400723 103.920561 
L 277.366034 103.9278 
L 277.330224 103.931917 
L 277.294162 103.932773 
L 277.265704 103.930772 
L 277.240241 103.928978 
L 277.222277 103.927305 
L 277.204363 103.92528 
L 277.186671 103.922842 
L 277.169087 103.919993 
L 277.151552 103.916793 
L 274.521303 103.550245 
L 274.52492 103.535869 
L 274.173601 103.511841 
L 273.800072 103.461684 
L 273.058118 104.175214 
L 272.25989 103.370415 
L 271.846542 103.36402 
L 271.161023 103.353359 
L 270.855707 103.340374 
L 270.250946 103.296942 
L 269.649423 103.247659 
L 269.348589 103.217538 
L 269.120932 103.192182 
L 268.747253 103.144222 
L 268.448967 103.091409 
L 268.152589 103.023328 
L 267.821274 102.932338 
L 266.96015 102.68462 
L 266.672712 102.586114 
L 266.394371 102.466278 
L 265.713664 102.194325 
L 264.239493 101.615019 
L 263.94712 102.303589 
L 263.756473 102.222732 
L 263.578288 102.147178 
L 262.957084 101.883849 
L 262.833901 101.808834 
L 262.823343 101.824678 
L 262.778232 101.898078 
L 262.400196 102.510412 
L 262.369371 102.560374 
L 262.212886 102.813739 
L 261.884343 103.345979 
L 261.838943 103.419444 
L 261.607169 103.268116 
L 262.580709 101.65471 
L 262.607279 101.619198 
L 262.631026 101.565263 
L 262.653011 101.510612 
L 262.670294 101.454031 
L 262.682894 101.396279 
L 262.693459 101.338633 
L 262.702444 101.280617 
L 262.708054 101.222622 
L 262.714524 101.164082 
L 262.717863 101.106025 
L 262.722076 101.048006 
L 262.735399 100.91511 
L 262.827114 99.504433 
L 262.993268 98.89994 
L 263.06019 98.656405 
L 262.33681 98.556433 
L 261.884517 98.508695 
L 259.777566 98.286322 
L 258.940482 98.412985 
L 258.800583 98.241449 
L 258.304603 97.634108 
L 258.291478 97.618089 
L 258.298217 97.612679 
L 258.195544 97.486919 
L 258.2924 97.406512 
L 257.868028 96.883792 
L 257.230533 96.098423 
L 257.220617 96.087635 
L 257.223704 96.082837 
L 257.123163 95.956268 
L 257.231712 95.868234 
L 256.875227 95.344424 
L 256.286652 94.479675 
L 256.27845 94.467563 
L 256.283147 94.464418 
L 256.247752 94.412416 
L 256.190409 94.328215 
L 256.292517 94.260632 
L 255.811463 93.559265 
L 255.623677 92.941556 
L 255.486804 92.487936 
L 255.413927 92.219848 
L 255.288687 91.466496 
L 255.26204 91.319562 
L 255.207796 91.044556 
L 255.155615 90.812372 
L 255.097531 90.581611 
L 255.033663 90.352388 
L 254.963958 90.124879 
L 254.888593 89.899196 
L 254.807455 89.675518 
L 254.720722 89.453955 
L 254.610622 89.187046 
L 254.497932 88.921306 
L 254.382647 88.65662 
L 254.264827 88.393044 
L 254.08744 88.005541 
L 253.907289 87.619329 
L 253.724317 87.234409 
L 253.539533 86.851632 
L 253.351986 86.470204 
L 253.161677 86.090126 
L 253.102419 85.974357 
L 253.042929 85.858653 
L 252.983153 85.74313 
L 252.9315 85.643745 
L 252.879674 85.544423 
L 252.827676 85.445222 
L 252.714573 85.230938 
L 252.60055 85.017142 
L 252.485722 84.803774 
L 252.461799 84.75949 
L 252.437876 84.715206 
L 252.413954 84.67098 
L 252.409204 84.662111 
L 252.404396 84.653243 
L 252.399531 84.644435 
L 252.346708 84.547295 
L 252.293714 84.450276 
L 252.240548 84.353377 
L 252.210987 84.127887 
L 252.18896 83.959903 
L 251.872474 83.256197 
L 251.288078 82.319091 
L 251.207308 82.20681 
L 251.122477 82.097542 
L 251.033764 81.991458 
L 250.94123 81.888674 
L 250.928749 81.875323 
L 250.916213 81.862089 
L 250.903561 81.848859 
L 250.872935 81.814009 
L 250.841853 81.779578 
L 250.810373 81.745507 
L 250.570021 81.478961 
L 250.197255 80.888412 
L 249.216278 79.375619 
L 248.200089 77.809366 
L 247.920511 77.364167 
L 247.644979 76.915373 
L 247.586687 76.813523 
L 246.33697 74.631947 
L 246.155908 74.315988 
L 245.970773 73.992776 
L 245.962679 73.997519 
L 245.906336 73.896906 
L 244.004827 70.511954 
L 243.925058 70.366113 
L 243.848278 70.218684 
L 243.77443 70.069728 
L 243.703575 69.919358 
L 243.63224 69.761067 
L 243.564246 69.601296 
L 243.499538 69.440164 
L 243.438232 69.277726 
L 243.38033 69.114041 
L 243.431314 69.101684 
L 243.284418 68.593595 
L 243.236844 68.39937 
L 243.201729 68.238653 
L 243.165525 68.059551 
L 243.133672 67.886938 
L 243.102892 67.687764 
L 243.085268 67.558313 
L 243.060454 67.350669 
L 243.046027 67.200263 
L 243.027353 66.945672 
L 243.019359 66.774866 
L 243.012118 66.39146 
L 243.017172 66.141114 
L 243.029507 65.891061 
L 243.037897 65.805644 
L 243.05301 65.604278 
L 243.069325 65.452712 
L 243.091791 65.275596 
L 243.109728 65.144421 
L 243.033498 65.13539 
L 243.056425 65.005298 
L 243.081691 64.875674 
L 243.109355 64.746519 
L 242.015908 65.29219 
L 241.12192 65.736981 
L 240.609608 65.99185 
L 240.517972 66.037433 
L 240.432836 66.079769 
L 239.67132 66.458176 
L 238.582116 66.999334 
L 238.555854 67.012377 
L 237.919393 67.328251 
L 237.812338 67.381377 
L 234.226895 69.164747 
L 218.396712 77.03641 
L 216.681633 77.894069 
L 214.819059 78.816692 
L 212.821093 79.811397 
L 210.851194 80.791446 
L 210.801265 80.816149 
L 208.719691 81.842518 
L 208.592598 81.906693 
L 208.469815 81.658945 
L 208.189854 81.863156 
L 208.373791 82.23945 
L 208.675181 82.854754 
L 208.978946 83.464811 
L 206.291083 85.176797 
L 206.052938 85.369799 
L 205.680066 85.733668 
L 205.248765 86.141519 
L 204.840096 86.678139 
L 204.5674 86.940099 
L 202.95284 88.875368 
L 203.363321 89.19921 
L 200.898841 91.244188 
L 200.200936 92.092404 
L 199.008497 93.640823 
L 196.780195 96.610494 
L 194.384367 99.703372 
L 192.651452 102.027558 
L 190.88672 104.3951 
L 189.138676 106.831311 
L 188.224208 108.336988 
L 185.876067 112.662192 
L 183.829412 116.437246 
L 182.403312 119.024054 
L 179.967236 123.645283 
L 179.010804 125.459621 
L 178.347845 126.764167 
L 177.60275 128.038205 
L 177.218335 128.623103 
L 176.833636 129.159654 
L 175.899008 130.445146 
L 175.522752 130.918676 
L 174.957234 131.577935 
L 173.464993 132.997437 
L 172.747514 132.348103 
L 171.659411 133.638592 
L 170.969054 134.454038 
L 169.766414 135.638864 
L 168.145378 136.987716 
L 166.356144 138.463182 
L 165.869098 138.86789 
L 165.200009 138.360602 
L 165.135812 138.430279 
L 164.925771 138.184188 
L 164.964513 138.144932 
L 164.505104 137.691963 
L 164.288792 137.008041 
L 163.870397 137.542974 
L 163.409683 137.176305 
L 163.719955 136.771895 
L 163.104247 136.696933 
L 162.575352 136.287466 
L 162.486117 136.21846 
L 161.945186 135.799778 
L 161.587579 135.520215 
L 161.173364 136.040119 
L 160.656513 136.686332 
L 155.255392 143.6935 
L 152.174148 147.752073 
L 148.53148 152.417884 
L 145.719777 156.019466 
L 145.65967 156.096747 
L 145.633521 156.211761 
L 145.182661 156.792987 
L 145.539316 157.069303 
L 146.125481 157.523432 
L 146.703106 157.970943 
L 146.886761 158.085371 
L 147.534436 158.506167 
L 147.892276 158.776724 
L 148.498525 159.299986 
L 149.441006 160.113462 
L 149.627688 160.274592 
L 149.358743 160.655336 
L 149.057627 161.136067 
L 148.394722 162.182526 
L 145.749704 167.853244 
L 145.407146 169.352223 
L 145.387926 169.834535 
L 145.348828 170.812999 
L 144.18508 172.896471 
L 142.646528 175.650871 
L 141.369087 178.741691 
L 140.328165 181.262231 
L 138.83668 184.648021 
L 138.423795 185.585323 
L 136.709028 189.481247 
L 136.256774 190.505599 
L 134.856122 193.678237 
L 134.823628 193.75176 
L 133.538481 196.048553 
L 131.769553 198.755406 
L 131.573667 199.003676 
L 129.204767 202.005831 
L 125.568996 206.604573 
L 122.257164 210.806914 
L 121.157239 212.099466 
L 117.361883 215.921939 
L 117.215422 216.050379 
L 116.973264 216.313491 
L 115.744549 217.35191 
L 114.05199 218.778528 
L 113.276773 219.444821 
L 112.493348 220.10595 
L 111.765235 220.699125 
L 109.211186 222.938591 
L 108.163899 223.856438 
L 101.169777 231.131397 
L 101.036152 231.270382 
L 100.762922 231.056733 
L 100.283427 231.602002 
L 98.285535 233.936508 
L 96.920981 235.928311 
L 96.231194 236.815674 
L 95.385834 237.903281 
L 93.850139 239.878799 
L 91.225151 243.257385 
L 90.659365 243.984542 
L 89.8947 245.488119 
L 89.350163 246.196504 
L 88.762221 247.539393 
L 87.713632 248.531427 
L 87.323613 248.900191 
L 85.703756 250.430548 
L 82.6238 254.429038 
L 82.129953 255.070113 
L 81.864978 255.413724 
L 79.812131 258.075704 
L 78.572041 259.683906 
L 78.04782 260.362011 
L 76.927768 261.810909 
L 76.556674 262.291682 
L 75.599765 263.531515 
L 75.774656 263.660285 
L 76.03388 263.851037 
L 76.860615 264.460477 
L 75.641592 266.093667 
L 74.781287 265.41675 
L 74.252412 266.201659 
L 74.133681 266.377914 
L 73.832727 266.824545 
L 76.588637 267.714024 
L 76.557877 267.822042 
L 79.82488 268.743853 
L 85.378176 270.320942 
L 86.56064 270.623083 
L 88.291348 270.920536 
L 91.031868 271.740245 
L 92.37488 272.264281 
L 95.449456 272.966226 
L 96.61223 273.390386 
L 102.185923 275.003235 
L 106.133177 276.015575 
L 107.027052 276.274431 
L 108.805989 276.512273 
L 109.40111 276.428497 
L 110.334204 276.998406 
L 111.041019 277.430161 
L 111.229933 277.545779 
L 111.336759 277.562952 
L 111.623239 277.609004 
L 111.894737 277.717189 
L 115.920266 278.821203 
L 121.533305 280.360037 
L 123.269816 280.829571 
L 127.115856 281.970823 
L 129.492842 282.535615 
L 130.257534 282.701845 
L 131.275991 282.815492 
L 132.14531 282.863466 
L 133.663519 282.836386 
L 135.35944 282.65382 
L 136.963635 282.499794 
L 138.767956 282.492813 
L 140.787001 282.630487 
L 142.020742 282.670771 
L 142.530863 282.73576 
L 148.284342 283.471049 
L 148.565831 283.5046 
L 149.06726 283.563803 
L 149.538352 283.619132 
L 152.373085 283.897265 
L 153.055016 284.025545 
L 154.801573 284.207237 
L 155.345978 284.261562 
L 155.786239 284.309481 
L 157.301084 283.264026 
L 157.842277 283.034493 
L 158.490429 282.805 
L 159.466895 282.091154 
L 160.484735 281.511166 
L 161.038022 281.022137 
L 161.361418 280.608887 
L 161.700132 280.218308 
L 161.977349 279.751697 
L 162.472201 278.853743 
L 162.555097 278.699388 
L 162.593757 278.635694 
L 162.749323 278.475152 
L 165.714891 276.106598 
L 165.791276 276.046777 
L 166.187219 276.511136 
L 167.345162 277.88808 
L 167.840958 278.451639 
L 167.877179 278.492295 
L 167.474203 278.810866 
L 167.532268 278.884416 
L 167.636153 279.015714 
L 167.65319 279.037351 
L 167.74527 278.967468 
L 168.069291 279.011329 
L 168.549013 279.610507 
L 168.515163 279.935394 
L 169.626291 280.331467 
L 169.940454 280.616695 
L 170.205159 280.765229 
L 170.815505 280.995894 
L 171.667514 281.190401 
L 173.385611 281.373536 
L 175.176513 281.228639 
L 176.266163 281.051773 
L 178.573927 280.461881 
L 183.534075 279.485588 
L 183.915086 279.310531 
L 184.608398 278.803945 
L 185.493363 279.07061 
L 194.190912 277.533114 
L 195.804357 277.230753 
L 203.432285 275.782707 
L 208.603748 274.848968 
L 208.599315 274.887454 
L 210.693234 274.493511 
L 212.197885 274.210416 
L 212.604379 274.127412 
L 212.904651 274.070519 
L 214.814329 273.708495 
L 216.24186 273.437419 
L 218.327488 273.041281 
L 219.271855 272.862345 
L 220.593778 272.611086 
L 223.05226 272.144927 
L 224.479284 271.873906 
L 225.188982 271.736943 
L 227.25467 271.347531 
L 229.701815 270.883159 
L 229.702609 270.813789 
L 231.799972 270.425285 
L 231.79049 270.873062 
L 233.194918 270.617323 
L 233.179381 271.255801 
L 233.346555 271.090004 
L 234.61777 270.816283 
L 236.323432 270.450646 
L 237.368165 270.22586 
L 238.934371 269.890109 
L 239.17655 269.838189 
L 241.349661 269.371304 
L 242.696724 269.065245 
L 243.278107 268.875862 
L 244.087798 268.623462 
L 244.856582 268.384932 
L 245.816933 268.086539 
L 246.927939 267.741976 
L 249.905817 266.818272 
L 250.510762 266.611602 
L 250.746856 266.530965 
L 252.246454 265.994477 
L 253.450125 265.56374 
L 255.755356 264.747118 
L 257.486611 264.130831 
L 258.015876 263.942952 
L 261.06913 262.836521 
L 261.849209 262.56528 
L 263.057049 262.137517 
L 264.713944 261.55075 
L 266.492369 260.920506 
L 267.658283 260.50735 
L 268.441756 260.229047 
L 269.48357 259.860962 
L 271.745966 259.061587 
L 273.421238 258.468309 
L 274.264902 258.169461 
L 275.676328 260.028382 
L 276.54564 261.152114 
L 277.433311 262.299591 
L 277.94014 261.563495 
L 278.481949 260.776603 
L 278.583958 259.460348 
L 282.456661 260.652001 
L 283.419007 260.94834 
L 284.418615 261.256164 
L 285.479901 261.58236 
L 286.537157 261.907956 
L 287.919795 262.335265 
L 289.089597 262.69559 
L 295.811128 264.765932 
L 297.675249 265.340364 
L 298.957695 265.735509 
L 299.847228 266.008954 
L 301.691523 266.576999 
L 302.750446 266.903315 
L 303.833291 267.242893 
L 304.905804 267.60815 
L 306.020879 268.007635 
L 307.142806 268.381999 
L 308.319299 268.744519 
L 308.735544 268.872043 
L 309.131077 268.975122 
L 309.524763 269.077721 
L 325.434111 273.356885 
L 330.063432 274.57725 
L 330.533242 274.701605 
L 330.962078 274.815114 
L 341.872292 277.700499 
L 342.546826 277.878809 
L 342.412979 278.375526 
L 343.578528 277.594409 
L 345.898683 276.040964 
L 346.932142 275.348475 
L 347.219857 275.539678 
L 348.352399 276.292442 
L 349.032808 276.744711 
L 350.315399 277.597198 
L 350.449121 277.463111 
L 350.843404 277.89685 
L 351.236517 278.325367 
L 351.769917 277.842311 
L 352.746673 276.957818 
L 353.337775 276.422549 
L 353.554984 276.640787 
L 355.356583 278.387641 
L 356.669739 279.581589 
L 356.819952 279.717992 
L 357.329233 280.180363 
L 357.419257 280.259734 
L 357.511657 280.336309 
L 357.606374 280.409971 
L 357.692872 280.475368 
L 357.779539 280.540528 
L 357.866489 280.605332 
L 357.952877 280.668515 
L 358.039605 280.731283 
L 358.126555 280.793637 
L 358.393189 280.981788 
L 358.662468 281.166144 
L 358.934332 281.346648 
L 359.208664 281.523245 
L 359.485521 281.695934 
L 359.513675 281.341983 
L 359.592967 281.272988 
L 359.673818 281.205998 
L 359.756343 281.140952 
L 359.855317 281.067996 
L 359.95622 280.997911 
L 360.059107 280.930637 
L 360.163808 280.866296 
L 360.303172 280.786968 
L 360.44533 280.712766 
L 360.590056 280.64387 
L 360.737231 280.580283 
L 360.886627 280.522127 
L 361.037949 280.469233 
L 361.191089 280.421954 
L 361.345871 280.380295 
L 361.502066 280.344319 
L 361.659442 280.31409 
L 361.761714 280.297752 
L 361.864394 280.283912 
L 361.967363 280.272515 
L 362.10725 280.260486 
L 362.247474 280.25294 
L 362.38786 280.249882 
L 362.528236 280.251374 
L 363.275268 280.272066 
L 369.1112 280.433723 
L 369.965821 280.459145 
L 372.495416 280.527421 
L 380.459712 280.74886 
L 381.856744 280.787183 
L 384.21365 280.852834 
L 385.459545 280.887124 
L 390.427446 281.025522 
L 391.377989 281.051802 
L 392.861064 281.086246 
L 394.528437 281.132787 
L 395.767351 281.16711 
L 396.339408 281.186838 
L 396.36944 280.031659 
L 396.397792 278.924465 
L 396.445287 277.09782 
L 396.490217 275.348695 
L 396.521652 274.126057 
L 396.553685 272.901655 
L 396.586134 271.647555 
L 396.637084 269.666379 
L 396.654999 268.96673 
L 396.706463 266.982625 
L 396.737903 265.757655 
L 396.778404 264.198606 
L 396.781432 264.088413 
L 396.786251 264.002792 
L 396.795908 263.917583 
L 396.810292 263.833081 
L 396.829409 263.749519 
L 396.852744 263.667257 
L 396.880649 263.586406 
L 396.913072 263.507258 
L 396.949844 263.430049 
L 396.959511 263.149677 
L 397.066375 263.150392 
L 397.073407 262.886821 
L 397.130211 262.888354 
L 397.13982 262.515184 
L 397.416015 262.248193 
L 397.380966 262.211622 
L 397.408157 262.185266 
L 397.302491 262.073175 
L 397.441446 261.940272 
L 397.422201 261.920539 
L 397.408176 261.902668 
L 397.397877 261.882435 
L 397.391669 261.860532 
L 397.389864 261.837885 
L 397.392537 261.815192 
L 397.399594 261.793446 
L 397.410764 261.773471 
L 397.425542 261.756094 
L 397.649072 261.540611 
L 398.465977 260.752396 
L 398.487273 259.877277 
L 397.698899 259.051661 
L 397.481681 258.824642 
L 397.414485 258.738659 
L 397.369831 258.631561 
L 397.365063 258.606533 
L 397.388424 258.492775 
L 397.399963 258.471158 
L 397.49003 258.384541 
L 397.517509 258.358061 
L 397.257072 258.085795 
L 397.264539 257.790775 
L 397.218042 257.789818 
L 397.224575 257.554839 
L 397.27113 257.555853 
L 397.279572 257.21759 
L 397.233075 257.216633 
L 397.23904 256.98225 
L 397.285536 256.983207 
L 397.292795 256.774517 
L 396.971293 256.766033 
L 397.01277 255.163741 
L 397.050692 253.68402 
L 397.080697 252.532517 
L 397.110253 251.394567 
" clip-path="url(#pee0e82ff13)" style="fill: #1f77b4"/>
   </g>
   <g id="matplotlib.axis_1">
    <g id="xtick_1">
     <g id="line2d_1">
      <defs>
       <path id="m9ff369f6f1" d="M 0 0 
L 0 3.5 
" style="stroke: #000000; stroke-width: 0.8"/>
      </defs>
      <g>
       <use xlink:href="#m9ff369f6f1" x="80.357068" y="295.287629" style="stroke: #000000; stroke-width: 0.8"/>
      </g>
     </g>
     <g id="text_1">
      <!-- 13.24 -->
      <g transform="translate(66.043005 309.886067) scale(0.1 -0.1)">
       <defs>
        <path id="DejaVuSans-31" d="M 794 531 
L 1825 531 
L 1825 4091 
L 703 3866 
L 703 4441 
L 1819 4666 
L 2450 4666 
L 2450 531 
L 3481 531 
L 3481 0 
L 794 0 
L 794 531 
z
" transform="scale(0.015625)"/>
        <path id="DejaVuSans-33" d="M 2597 2516 
Q 3050 2419 3304 2112 
Q 3559 1806 3559 1356 
Q 3559 666 3084 287 
Q 2609 -91 1734 -91 
Q 1441 -91 1130 -33 
Q 819 25 488 141 
L 488 750 
Q 750 597 1062 519 
Q 1375 441 1716 441 
Q 2309 441 2620 675 
Q 2931 909 2931 1356 
Q 2931 1769 2642 2001 
Q 2353 2234 1838 2234 
L 1294 2234 
L 1294 2753 
L 1863 2753 
Q 2328 2753 2575 2939 
Q 2822 3125 2822 3475 
Q 2822 3834 2567 4026 
Q 2313 4219 1838 4219 
Q 1578 4219 1281 4162 
Q 984 4106 628 3988 
L 628 4550 
Q 988 4650 1302 4700 
Q 1616 4750 1894 4750 
Q 2613 4750 3031 4423 
Q 3450 4097 3450 3541 
Q 3450 3153 3228 2886 
Q 3006 2619 2597 2516 
z
" transform="scale(0.015625)"/>
        <path id="DejaVuSans-2e" d="M 684 794 
L 1344 794 
L 1344 0 
L 684 0 
L 684 794 
z
" transform="scale(0.015625)"/>
        <path id="DejaVuSans-32" d="M 1228 531 
L 3431 531 
L 3431 0 
L 469 0 
L 469 531 
Q 828 903 1448 1529 
Q 2069 2156 2228 2338 
Q 2531 2678 2651 2914 
Q 2772 3150 2772 3378 
Q 2772 3750 2511 3984 
Q 2250 4219 1831 4219 
Q 1534 4219 1204 4116 
Q 875 4013 500 3803 
L 500 4441 
Q 881 4594 1212 4672 
Q 1544 4750 1819 4750 
Q 2544 4750 2975 4387 
Q 3406 4025 3406 3419 
Q 3406 3131 3298 2873 
Q 3191 2616 2906 2266 
Q 2828 2175 2409 1742 
Q 1991 1309 1228 531 
z
" transform="scale(0.015625)"/>
        <path id="DejaVuSans-34" d="M 2419 4116 
L 825 1625 
L 2419 1625 
L 2419 4116 
z
M 2253 4666 
L 3047 4666 
L 3047 1625 
L 3713 1625 
L 3713 1100 
L 3047 1100 
L 3047 0 
L 2419 0 
L 2419 1100 
L 313 1100 
L 313 1709 
L 2253 4666 
z
" transform="scale(0.015625)"/>
       </defs>
       <use xlink:href="#DejaVuSans-31"/>
       <use xlink:href="#DejaVuSans-33" x="63.623047"/>
       <use xlink:href="#DejaVuSans-2e" x="127.246094"/>
       <use xlink:href="#DejaVuSans-32" x="159.033203"/>
       <use xlink:href="#DejaVuSans-34" x="222.65625"/>
      </g>
     </g>
    </g>
    <g id="xtick_2">
     <g id="line2d_2">
      <g>
       <use xlink:href="#m9ff369f6f1" x="159.369509" y="295.287629" style="stroke: #000000; stroke-width: 0.8"/>
      </g>
     </g>
     <g id="text_2">
      <!-- 13.26 -->
      <g transform="translate(145.055447 309.886067) scale(0.1 -0.1)">
       <defs>
        <path id="DejaVuSans-36" d="M 2113 2584 
Q 1688 2584 1439 2293 
Q 1191 2003 1191 1497 
Q 1191 994 1439 701 
Q 1688 409 2113 409 
Q 2538 409 2786 701 
Q 3034 994 3034 1497 
Q 3034 2003 2786 2293 
Q 2538 2584 2113 2584 
z
M 3366 4563 
L 3366 3988 
Q 3128 4100 2886 4159 
Q 2644 4219 2406 4219 
Q 1781 4219 1451 3797 
Q 1122 3375 1075 2522 
Q 1259 2794 1537 2939 
Q 1816 3084 2150 3084 
Q 2853 3084 3261 2657 
Q 3669 2231 3669 1497 
Q 3669 778 3244 343 
Q 2819 -91 2113 -91 
Q 1303 -91 875 529 
Q 447 1150 447 2328 
Q 447 3434 972 4092 
Q 1497 4750 2381 4750 
Q 2619 4750 2861 4703 
Q 3103 4656 3366 4563 
z
" transform="scale(0.015625)"/>
       </defs>
       <use xlink:href="#DejaVuSans-31"/>
       <use xlink:href="#DejaVuSans-33" x="63.623047"/>
       <use xlink:href="#DejaVuSans-2e" x="127.246094"/>
       <use xlink:href="#DejaVuSans-32" x="159.033203"/>
       <use xlink:href="#DejaVuSans-36" x="222.65625"/>
      </g>
     </g>
    </g>
    <g id="xtick_3">
     <g id="line2d_3">
      <g>
       <use xlink:href="#m9ff369f6f1" x="238.381951" y="295.287629" style="stroke: #000000; stroke-width: 0.8"/>
      </g>
     </g>
     <g id="text_3">
      <!-- 13.28 -->
      <g transform="translate(224.067888 309.886067) scale(0.1 -0.1)">
       <defs>
        <path id="DejaVuSans-38" d="M 2034 2216 
Q 1584 2216 1326 1975 
Q 1069 1734 1069 1313 
Q 1069 891 1326 650 
Q 1584 409 2034 409 
Q 2484 409 2743 651 
Q 3003 894 3003 1313 
Q 3003 1734 2745 1975 
Q 2488 2216 2034 2216 
z
M 1403 2484 
Q 997 2584 770 2862 
Q 544 3141 544 3541 
Q 544 4100 942 4425 
Q 1341 4750 2034 4750 
Q 2731 4750 3128 4425 
Q 3525 4100 3525 3541 
Q 3525 3141 3298 2862 
Q 3072 2584 2669 2484 
Q 3125 2378 3379 2068 
Q 3634 1759 3634 1313 
Q 3634 634 3220 271 
Q 2806 -91 2034 -91 
Q 1263 -91 848 271 
Q 434 634 434 1313 
Q 434 1759 690 2068 
Q 947 2378 1403 2484 
z
M 1172 3481 
Q 1172 3119 1398 2916 
Q 1625 2713 2034 2713 
Q 2441 2713 2670 2916 
Q 2900 3119 2900 3481 
Q 2900 3844 2670 4047 
Q 2441 4250 2034 4250 
Q 1625 4250 1398 4047 
Q 1172 3844 1172 3481 
z
" transform="scale(0.015625)"/>
       </defs>
       <use xlink:href="#DejaVuSans-31"/>
       <use xlink:href="#DejaVuSans-33" x="63.623047"/>
       <use xlink:href="#DejaVuSans-2e" x="127.246094"/>
       <use xlink:href="#DejaVuSans-32" x="159.033203"/>
       <use xlink:href="#DejaVuSans-38" x="222.65625"/>
      </g>
     </g>
    </g>
    <g id="xtick_4">
     <g id="line2d_4">
      <g>
       <use xlink:href="#m9ff369f6f1" x="317.394392" y="295.287629" style="stroke: #000000; stroke-width: 0.8"/>
      </g>
     </g>
     <g id="text_4">
      <!-- 13.30 -->
      <g transform="translate(303.08033 309.886067) scale(0.1 -0.1)">
       <defs>
        <path id="DejaVuSans-30" d="M 2034 4250 
Q 1547 4250 1301 3770 
Q 1056 3291 1056 2328 
Q 1056 1369 1301 889 
Q 1547 409 2034 409 
Q 2525 409 2770 889 
Q 3016 1369 3016 2328 
Q 3016 3291 2770 3770 
Q 2525 4250 2034 4250 
z
M 2034 4750 
Q 2819 4750 3233 4129 
Q 3647 3509 3647 2328 
Q 3647 1150 3233 529 
Q 2819 -91 2034 -91 
Q 1250 -91 836 529 
Q 422 1150 422 2328 
Q 422 3509 836 4129 
Q 1250 4750 2034 4750 
z
" transform="scale(0.015625)"/>
       </defs>
       <use xlink:href="#DejaVuSans-31"/>
       <use xlink:href="#DejaVuSans-33" x="63.623047"/>
       <use xlink:href="#DejaVuSans-2e" x="127.246094"/>
       <use xlink:href="#DejaVuSans-33" x="159.033203"/>
       <use xlink:href="#DejaVuSans-30" x="222.65625"/>
      </g>
     </g>
    </g>
    <g id="xtick_5">
     <g id="line2d_5">
      <g>
       <use xlink:href="#m9ff369f6f1" x="396.406834" y="295.287629" style="stroke: #000000; stroke-width: 0.8"/>
      </g>
     </g>
     <g id="text_5">
      <!-- 13.32 -->
      <g transform="translate(382.092772 309.886067) scale(0.1 -0.1)">
       <use xlink:href="#DejaVuSans-31"/>
       <use xlink:href="#DejaVuSans-33" x="63.623047"/>
       <use xlink:href="#DejaVuSans-2e" x="127.246094"/>
       <use xlink:href="#DejaVuSans-33" x="159.033203"/>
       <use xlink:href="#DejaVuSans-32" x="222.65625"/>
      </g>
     </g>
    </g>
   </g>
   <g id="matplotlib.axis_2">
    <g id="ytick_1">
     <g id="line2d_6">
      <defs>
       <path id="mdc846b0f98" d="M 0 0 
L -3.5 0 
" style="stroke: #000000; stroke-width: 0.8"/>
      </defs>
      <g>
       <use xlink:href="#mdc846b0f98" x="57.6" y="294.034405" style="stroke: #000000; stroke-width: 0.8"/>
      </g>
     </g>
     <g id="text_6">
      <!-- 52.465 -->
      <g transform="translate(15.609375 297.833624) scale(0.1 -0.1)">
       <defs>
        <path id="DejaVuSans-35" d="M 691 4666 
L 3169 4666 
L 3169 4134 
L 1269 4134 
L 1269 2991 
Q 1406 3038 1543 3061 
Q 1681 3084 1819 3084 
Q 2600 3084 3056 2656 
Q 3513 2228 3513 1497 
Q 3513 744 3044 326 
Q 2575 -91 1722 -91 
Q 1428 -91 1123 -41 
Q 819 9 494 109 
L 494 744 
Q 775 591 1075 516 
Q 1375 441 1709 441 
Q 2250 441 2565 725 
Q 2881 1009 2881 1497 
Q 2881 1984 2565 2268 
Q 2250 2553 1709 2553 
Q 1456 2553 1204 2497 
Q 953 2441 691 2322 
L 691 4666 
z
" transform="scale(0.015625)"/>
       </defs>
       <use xlink:href="#DejaVuSans-35"/>
       <use xlink:href="#DejaVuSans-32" x="63.623047"/>
       <use xlink:href="#DejaVuSans-2e" x="127.246094"/>
       <use xlink:href="#DejaVuSans-34" x="159.033203"/>
       <use xlink:href="#DejaVuSans-36" x="222.65625"/>
       <use xlink:href="#DejaVuSans-35" x="286.279297"/>
      </g>
     </g>
    </g>
    <g id="ytick_2">
     <g id="line2d_7">
      <g>
       <use xlink:href="#mdc846b0f98" x="57.6" y="261.598602" style="stroke: #000000; stroke-width: 0.8"/>
      </g>
     </g>
     <g id="text_7">
      <!-- 52.470 -->
      <g transform="translate(15.609375 265.397821) scale(0.1 -0.1)">
       <defs>
        <path id="DejaVuSans-37" d="M 525 4666 
L 3525 4666 
L 3525 4397 
L 1831 0 
L 1172 0 
L 2766 4134 
L 525 4134 
L 525 4666 
z
" transform="scale(0.015625)"/>
       </defs>
       <use xlink:href="#DejaVuSans-35"/>
       <use xlink:href="#DejaVuSans-32" x="63.623047"/>
       <use xlink:href="#DejaVuSans-2e" x="127.246094"/>
       <use xlink:href="#DejaVuSans-34" x="159.033203"/>
       <use xlink:href="#DejaVuSans-37" x="222.65625"/>
       <use xlink:href="#DejaVuSans-30" x="286.279297"/>
      </g>
     </g>
    </g>
    <g id="ytick_3">
     <g id="line2d_8">
      <g>
       <use xlink:href="#mdc846b0f98" x="57.6" y="229.162799" style="stroke: #000000; stroke-width: 0.8"/>
      </g>
     </g>
     <g id="text_8">
      <!-- 52.475 -->
      <g transform="translate(15.609375 232.962018) scale(0.1 -0.1)">
       <use xlink:href="#DejaVuSans-35"/>
       <use xlink:href="#DejaVuSans-32" x="63.623047"/>
       <use xlink:href="#DejaVuSans-2e" x="127.246094"/>
       <use xlink:href="#DejaVuSans-34" x="159.033203"/>
       <use xlink:href="#DejaVuSans-37" x="222.65625"/>
       <use xlink:href="#DejaVuSans-35" x="286.279297"/>
      </g>
     </g>
    </g>
    <g id="ytick_4">
     <g id="line2d_9">
      <g>
       <use xlink:href="#mdc846b0f98" x="57.6" y="196.726997" style="stroke: #000000; stroke-width: 0.8"/>
      </g>
     </g>
     <g id="text_9">
      <!-- 52.480 -->
      <g transform="translate(15.609375 200.526216) scale(0.1 -0.1)">
       <use xlink:href="#DejaVuSans-35"/>
       <use xlink:href="#DejaVuSans-32" x="63.623047"/>
       <use xlink:href="#DejaVuSans-2e" x="127.246094"/>
       <use xlink:href="#DejaVuSans-34" x="159.033203"/>
       <use xlink:href="#DejaVuSans-38" x="222.65625"/>
       <use xlink:href="#DejaVuSans-30" x="286.279297"/>
      </g>
     </g>
    </g>
    <g id="ytick_5">
     <g id="line2d_10">
      <g>
       <use xlink:href="#mdc846b0f98" x="57.6" y="164.291194" style="stroke: #000000; stroke-width: 0.8"/>
      </g>
     </g>
     <g id="text_10">
      <!-- 52.485 -->
      <g transform="translate(15.609375 168.090413) scale(0.1 -0.1)">
       <use xlink:href="#DejaVuSans-35"/>
       <use xlink:href="#DejaVuSans-32" x="63.623047"/>
       <use xlink:href="#DejaVuSans-2e" x="127.246094"/>
       <use xlink:href="#DejaVuSans-34" x="159.033203"/>
       <use xlink:href="#DejaVuSans-38" x="222.65625"/>
       <use xlink:href="#DejaVuSans-35" x="286.279297"/>
      </g>
     </g>
    </g>
    <g id="ytick_6">
     <g id="line2d_11">
      <g>
       <use xlink:href="#mdc846b0f98" x="57.6" y="131.855391" style="stroke: #000000; stroke-width: 0.8"/>
      </g>
     </g>
     <g id="text_11">
      <!-- 52.490 -->
      <g transform="translate(15.609375 135.65461) scale(0.1 -0.1)">
       <defs>
        <path id="DejaVuSans-39" d="M 703 97 
L 703 672 
Q 941 559 1184 500 
Q 1428 441 1663 441 
Q 2288 441 2617 861 
Q 2947 1281 2994 2138 
Q 2813 1869 2534 1725 
Q 2256 1581 1919 1581 
Q 1219 1581 811 2004 
Q 403 2428 403 3163 
Q 403 3881 828 4315 
Q 1253 4750 1959 4750 
Q 2769 4750 3195 4129 
Q 3622 3509 3622 2328 
Q 3622 1225 3098 567 
Q 2575 -91 1691 -91 
Q 1453 -91 1209 -44 
Q 966 3 703 97 
z
M 1959 2075 
Q 2384 2075 2632 2365 
Q 2881 2656 2881 3163 
Q 2881 3666 2632 3958 
Q 2384 4250 1959 4250 
Q 1534 4250 1286 3958 
Q 1038 3666 1038 3163 
Q 1038 2656 1286 2365 
Q 1534 2075 1959 2075 
z
" transform="scale(0.015625)"/>
       </defs>
       <use xlink:href="#DejaVuSans-35"/>
       <use xlink:href="#DejaVuSans-32" x="63.623047"/>
       <use xlink:href="#DejaVuSans-2e" x="127.246094"/>
       <use xlink:href="#DejaVuSans-34" x="159.033203"/>
       <use xlink:href="#DejaVuSans-39" x="222.65625"/>
       <use xlink:href="#DejaVuSans-30" x="286.279297"/>
      </g>
     </g>
    </g>
    <g id="ytick_7">
     <g id="line2d_12">
      <g>
       <use xlink:href="#mdc846b0f98" x="57.6" y="99.419589" style="stroke: #000000; stroke-width: 0.8"/>
      </g>
     </g>
     <g id="text_12">
      <!-- 52.495 -->
      <g transform="translate(15.609375 103.218807) scale(0.1 -0.1)">
       <use xlink:href="#DejaVuSans-35"/>
       <use xlink:href="#DejaVuSans-32" x="63.623047"/>
       <use xlink:href="#DejaVuSans-2e" x="127.246094"/>
       <use xlink:href="#DejaVuSans-34" x="159.033203"/>
       <use xlink:href="#DejaVuSans-39" x="222.65625"/>
       <use xlink:href="#DejaVuSans-35" x="286.279297"/>
      </g>
     </g>
    </g>
    <g id="ytick_8">
     <g id="line2d_13">
      <g>
       <use xlink:href="#mdc846b0f98" x="57.6" y="66.983786" style="stroke: #000000; stroke-width: 0.8"/>
      </g>
     </g>
     <g id="text_13">
      <!-- 52.500 -->
      <g transform="translate(15.609375 70.783005) scale(0.1 -0.1)">
       <use xlink:href="#DejaVuSans-35"/>
       <use xlink:href="#DejaVuSans-32" x="63.623047"/>
       <use xlink:href="#DejaVuSans-2e" x="127.246094"/>
       <use xlink:href="#DejaVuSans-35" x="159.033203"/>
       <use xlink:href="#DejaVuSans-30" x="222.65625"/>
       <use xlink:href="#DejaVuSans-30" x="286.279297"/>
      </g>
     </g>
    </g>
   </g>
   <g id="patch_3">
    <path d="M 57.6 295.287629 
L 57.6 53.768371 
" style="fill: none; stroke: #000000; stroke-width: 0.8; stroke-linejoin: miter; stroke-linecap: square"/>
   </g>
   <g id="patch_4">
    <path d="M 414.72 295.287629 
L 414.72 53.768371 
" style="fill: none; stroke: #000000; stroke-width: 0.8; stroke-linejoin: miter; stroke-linecap: square"/>
   </g>
   <g id="patch_5">
    <path d="M 57.6 295.287629 
L 414.72 295.287629 
" style="fill: none; stroke: #000000; stroke-width: 0.8; stroke-linejoin: miter; stroke-linecap: square"/>
   </g>
   <g id="patch_6">
    <path d="M 57.6 53.768371 
L 414.72 53.768371 
" style="fill: none; stroke: #000000; stroke-width: 0.8; stroke-linejoin: miter; stroke-linecap: square"/>
   </g>
   <g id="text_14">
    <!-- Wilmersdorf_Süd -->
    <g transform="translate(191.816912 203.741869) scale(0.12 -0.12)">
     <defs>
      <path id="DejaVuSans-57" d="M 213 4666 
L 850 4666 
L 1831 722 
L 2809 4666 
L 3519 4666 
L 4500 722 
L 5478 4666 
L 6119 4666 
L 4947 0 
L 4153 0 
L 3169 4050 
L 2175 0 
L 1381 0 
L 213 4666 
z
" transform="scale(0.015625)"/>
      <path id="DejaVuSans-69" d="M 603 3500 
L 1178 3500 
L 1178 0 
L 603 0 
L 603 3500 
z
M 603 4863 
L 1178 4863 
L 1178 4134 
L 603 4134 
L 603 4863 
z
" transform="scale(0.015625)"/>
      <path id="DejaVuSans-6c" d="M 603 4863 
L 1178 4863 
L 1178 0 
L 603 0 
L 603 4863 
z
" transform="scale(0.015625)"/>
      <path id="DejaVuSans-6d" d="M 3328 2828 
Q 3544 3216 3844 3400 
Q 4144 3584 4550 3584 
Q 5097 3584 5394 3201 
Q 5691 2819 5691 2113 
L 5691 0 
L 5113 0 
L 5113 2094 
Q 5113 2597 4934 2840 
Q 4756 3084 4391 3084 
Q 3944 3084 3684 2787 
Q 3425 2491 3425 1978 
L 3425 0 
L 2847 0 
L 2847 2094 
Q 2847 2600 2669 2842 
Q 2491 3084 2119 3084 
Q 1678 3084 1418 2786 
Q 1159 2488 1159 1978 
L 1159 0 
L 581 0 
L 581 3500 
L 1159 3500 
L 1159 2956 
Q 1356 3278 1631 3431 
Q 1906 3584 2284 3584 
Q 2666 3584 2933 3390 
Q 3200 3197 3328 2828 
z
" transform="scale(0.015625)"/>
      <path id="DejaVuSans-65" d="M 3597 1894 
L 3597 1613 
L 953 1613 
Q 991 1019 1311 708 
Q 1631 397 2203 397 
Q 2534 397 2845 478 
Q 3156 559 3463 722 
L 3463 178 
Q 3153 47 2828 -22 
Q 2503 -91 2169 -91 
Q 1331 -91 842 396 
Q 353 884 353 1716 
Q 353 2575 817 3079 
Q 1281 3584 2069 3584 
Q 2775 3584 3186 3129 
Q 3597 2675 3597 1894 
z
M 3022 2063 
Q 3016 2534 2758 2815 
Q 2500 3097 2075 3097 
Q 1594 3097 1305 2825 
Q 1016 2553 972 2059 
L 3022 2063 
z
" transform="scale(0.015625)"/>
      <path id="DejaVuSans-72" d="M 2631 2963 
Q 2534 3019 2420 3045 
Q 2306 3072 2169 3072 
Q 1681 3072 1420 2755 
Q 1159 2438 1159 1844 
L 1159 0 
L 581 0 
L 581 3500 
L 1159 3500 
L 1159 2956 
Q 1341 3275 1631 3429 
Q 1922 3584 2338 3584 
Q 2397 3584 2469 3576 
Q 2541 3569 2628 3553 
L 2631 2963 
z
" transform="scale(0.015625)"/>
      <path id="DejaVuSans-73" d="M 2834 3397 
L 2834 2853 
Q 2591 2978 2328 3040 
Q 2066 3103 1784 3103 
Q 1356 3103 1142 2972 
Q 928 2841 928 2578 
Q 928 2378 1081 2264 
Q 1234 2150 1697 2047 
L 1894 2003 
Q 2506 1872 2764 1633 
Q 3022 1394 3022 966 
Q 3022 478 2636 193 
Q 2250 -91 1575 -91 
Q 1294 -91 989 -36 
Q 684 19 347 128 
L 347 722 
Q 666 556 975 473 
Q 1284 391 1588 391 
Q 1994 391 2212 530 
Q 2431 669 2431 922 
Q 2431 1156 2273 1281 
Q 2116 1406 1581 1522 
L 1381 1569 
Q 847 1681 609 1914 
Q 372 2147 372 2553 
Q 372 3047 722 3315 
Q 1072 3584 1716 3584 
Q 2034 3584 2315 3537 
Q 2597 3491 2834 3397 
z
" transform="scale(0.015625)"/>
      <path id="DejaVuSans-64" d="M 2906 2969 
L 2906 4863 
L 3481 4863 
L 3481 0 
L 2906 0 
L 2906 525 
Q 2725 213 2448 61 
Q 2172 -91 1784 -91 
Q 1150 -91 751 415 
Q 353 922 353 1747 
Q 353 2572 751 3078 
Q 1150 3584 1784 3584 
Q 2172 3584 2448 3432 
Q 2725 3281 2906 2969 
z
M 947 1747 
Q 947 1113 1208 752 
Q 1469 391 1925 391 
Q 2381 391 2643 752 
Q 2906 1113 2906 1747 
Q 2906 2381 2643 2742 
Q 2381 3103 1925 3103 
Q 1469 3103 1208 2742 
Q 947 2381 947 1747 
z
" transform="scale(0.015625)"/>
      <path id="DejaVuSans-6f" d="M 1959 3097 
Q 1497 3097 1228 2736 
Q 959 2375 959 1747 
Q 959 1119 1226 758 
Q 1494 397 1959 397 
Q 2419 397 2687 759 
Q 2956 1122 2956 1747 
Q 2956 2369 2687 2733 
Q 2419 3097 1959 3097 
z
M 1959 3584 
Q 2709 3584 3137 3096 
Q 3566 2609 3566 1747 
Q 3566 888 3137 398 
Q 2709 -91 1959 -91 
Q 1206 -91 779 398 
Q 353 888 353 1747 
Q 353 2609 779 3096 
Q 1206 3584 1959 3584 
z
" transform="scale(0.015625)"/>
      <path id="DejaVuSans-66" d="M 2375 4863 
L 2375 4384 
L 1825 4384 
Q 1516 4384 1395 4259 
Q 1275 4134 1275 3809 
L 1275 3500 
L 2222 3500 
L 2222 3053 
L 1275 3053 
L 1275 0 
L 697 0 
L 697 3053 
L 147 3053 
L 147 3500 
L 697 3500 
L 697 3744 
Q 697 4328 969 4595 
Q 1241 4863 1831 4863 
L 2375 4863 
z
" transform="scale(0.015625)"/>
      <path id="DejaVuSans-5f" d="M 3263 -1063 
L 3263 -1509 
L -63 -1509 
L -63 -1063 
L 3263 -1063 
z
" transform="scale(0.015625)"/>
      <path id="DejaVuSans-53" d="M 3425 4513 
L 3425 3897 
Q 3066 4069 2747 4153 
Q 2428 4238 2131 4238 
Q 1616 4238 1336 4038 
Q 1056 3838 1056 3469 
Q 1056 3159 1242 3001 
Q 1428 2844 1947 2747 
L 2328 2669 
Q 3034 2534 3370 2195 
Q 3706 1856 3706 1288 
Q 3706 609 3251 259 
Q 2797 -91 1919 -91 
Q 1588 -91 1214 -16 
Q 841 59 441 206 
L 441 856 
Q 825 641 1194 531 
Q 1563 422 1919 422 
Q 2459 422 2753 634 
Q 3047 847 3047 1241 
Q 3047 1584 2836 1778 
Q 2625 1972 2144 2069 
L 1759 2144 
Q 1053 2284 737 2584 
Q 422 2884 422 3419 
Q 422 4038 858 4394 
Q 1294 4750 2059 4750 
Q 2388 4750 2728 4690 
Q 3069 4631 3425 4513 
z
" transform="scale(0.015625)"/>
      <path id="DejaVuSans-fc" d="M 544 1381 
L 544 3500 
L 1119 3500 
L 1119 1403 
Q 1119 906 1312 657 
Q 1506 409 1894 409 
Q 2359 409 2629 706 
Q 2900 1003 2900 1516 
L 2900 3500 
L 3475 3500 
L 3475 0 
L 2900 0 
L 2900 538 
Q 2691 219 2414 64 
Q 2138 -91 1772 -91 
Q 1169 -91 856 284 
Q 544 659 544 1381 
z
M 1991 3584 
L 1991 3584 
z
M 2278 4850 
L 2913 4850 
L 2913 4219 
L 2278 4219 
L 2278 4850 
z
M 1056 4850 
L 1691 4850 
L 1691 4219 
L 1056 4219 
L 1056 4850 
z
" transform="scale(0.015625)"/>
     </defs>
     <use xlink:href="#DejaVuSans-57"/>
     <use xlink:href="#DejaVuSans-69" x="96.626953"/>
     <use xlink:href="#DejaVuSans-6c" x="124.410156"/>
     <use xlink:href="#DejaVuSans-6d" x="152.193359"/>
     <use xlink:href="#DejaVuSans-65" x="249.605469"/>
     <use xlink:href="#DejaVuSans-72" x="311.128906"/>
     <use xlink:href="#DejaVuSans-73" x="352.242188"/>
     <use xlink:href="#DejaVuSans-64" x="404.341797"/>
     <use xlink:href="#DejaVuSans-6f" x="467.818359"/>
     <use xlink:href="#DejaVuSans-72" x="529"/>
     <use xlink:href="#DejaVuSans-66" x="570.113281"/>
     <use xlink:href="#DejaVuSans-5f" x="605.318359"/>
     <use xlink:href="#DejaVuSans-53" x="655.318359"/>
     <use xlink:href="#DejaVuSans-fc" x="718.794922"/>
     <use xlink:href="#DejaVuSans-64" x="782.173828"/>
    </g>
   </g>
  </g>
 </g>
 <defs>
  <clipPath id="pee0e82ff13">
   <rect x="57.6" y="53.768371" width="357.12" height="241.519259"/>
  </clipPath>
 </defs>
</svg>
