<?xml version="1.0" encoding="utf-8" standalone="no"?>
<!DOCTYPE svg PUBLIC "-//W3C//DTD SVG 1.1//EN"
  "http://www.w3.org/Graphics/SVG/1.1/DTD/svg11.dtd">
<svg xmlns:xlink="http://www.w3.org/1999/xlink" width="460.8pt" height="345.6pt" viewBox="0 0 460.8 345.6" xmlns="http://www.w3.org/2000/svg" version="1.1">
 <metadata>
  <rdf:RDF xmlns:dc="http://purl.org/dc/elements/1.1/" xmlns:cc="http://creativecommons.org/ns#" xmlns:rdf="http://www.w3.org/1999/02/22-rdf-syntax-ns#">
   <cc:Work>
    <dc:type rdf:resource="http://purl.org/dc/dcmitype/StillImage"/>
    <dc:date>2024-10-15T09:53:29.171566</dc:date>
    <dc:format>image/svg+xml</dc:format>
    <dc:creator>
     <cc:Agent>
      <dc:title>Matplotlib v3.8.4, https://matplotlib.org/</dc:title>
     </cc:Agent>
    </dc:creator>
   </cc:Work>
  </rdf:RDF>
 </metadata>
 <defs>
  <style type="text/css">*{stroke-linejoin: round; stroke-linecap: butt}</style>
 </defs>
 <g id="figure_1">
  <g id="patch_1">
   <path d="M 0 345.6 
L 460.8 345.6 
L 460.8 0 
L 0 0 
z
" style="fill: #ffffff"/>
  </g>
  <g id="axes_1">
   <g id="patch_2">
    <path d="M 75.521917 307.584 
L 396.798083 307.584 
L 396.798083 41.472 
L 75.521917 41.472 
z
" style="fill: #ffffff"/>
   </g>
   <g id="PatchCollection_1">
    <path d="M 208.817099 292.772117 
L 209.127108 292.704943 
L 209.708672 292.61321 
L 210.02696 292.561977 
L 210.692963 292.454871 
L 211.287291 292.360708 
L 212.543869 292.161625 
L 213.798736 291.962861 
L 215.058027 291.763365 
L 216.230805 291.577617 
L 217.400057 291.392139 
L 217.654054 291.351821 
L 217.877678 291.316346 
L 218.562407 291.024094 
L 219.725095 290.527788 
L 219.886613 290.45887 
L 220.553091 290.174364 
L 220.900222 290.157549 
L 221.216766 290.142219 
L 222.072921 290.10082 
L 223.409276 290.036104 
L 223.943457 290.010256 
L 224.617919 290.306991 
L 225.818852 290.841807 
L 225.982658 290.914729 
L 227.115457 291.412293 
L 228.520125 292.029385 
L 229.693834 292.608063 
L 229.931563 292.682994 
L 230.410749 292.909871 
L 231.952132 292.615267 
L 233.782261 292.619455 
L 235.095078 292.516784 
L 235.55399 292.542736 
L 235.995077 292.567695 
L 237.376064 292.629604 
L 239.31019 292.459047 
L 240.415875 292.327189 
L 241.57215 292.200931 
L 242.96001 292.232866 
L 245.301613 292.12428 
L 247.558129 292.040272 
L 248.363321 291.981165 
L 248.712272 291.958854 
L 248.695936 292.04801 
L 248.642744 292.338292 
L 248.960207 292.323103 
L 249.431261 292.300566 
L 249.454813 292.300474 
L 249.603867 291.996976 
L 249.655262 291.937266 
L 249.891813 291.662497 
L 249.899811 291.618423 
L 250.039211 291.611466 
L 252.916682 291.465326 
L 256.976258 291.322615 
L 259.955128 291.175264 
L 260.964289 290.948242 
L 261.118996 290.913542 
L 262.498491 290.57151 
L 262.717533 290.43487 
L 266.945042 288.854338 
L 268.393688 288.312758 
L 269.789621 287.769986 
L 269.770788 287.70195 
L 269.721735 287.543659 
L 269.706592 287.493759 
L 269.602029 287.153604 
L 269.592367 287.121433 
L 269.881874 287.050778 
L 270.279409 286.950187 
L 270.630802 286.844347 
L 271.39672 286.584734 
L 272.015672 286.365679 
L 272.491247 286.181693 
L 273.937369 285.507485 
L 275.081498 284.965695 
L 275.989474 284.535761 
L 277.216401 283.953726 
L 278.352147 283.415099 
L 278.854128 283.177088 
L 279.304083 282.963721 
L 279.822419 282.717839 
L 281.423281 281.958608 
L 281.93889 281.714065 
L 282.220087 281.580738 
L 282.508768 281.443831 
L 284.902207 280.308766 
L 286.706282 279.452983 
L 286.808862 279.404462 
L 286.91193 279.355475 
L 287.848905 278.947641 
L 287.908591 278.921097 
L 287.604958 278.267888 
L 287.524595 278.097499 
L 287.438738 277.910743 
L 287.241977 277.487832 
L 287.050186 277.076256 
L 286.70501 276.336045 
L 286.513715 275.924457 
L 283.302261 269.032198 
L 283.327797 269.005849 
L 283.349404 268.976092 
L 283.366555 268.943621 
L 283.378945 268.908988 
L 283.386275 268.872972 
L 283.388516 268.836301 
L 283.385501 268.799615 
L 283.377342 268.763774 
L 283.364234 268.729456 
L 283.346375 268.697337 
L 283.324188 268.668134 
L 283.298093 268.642338 
L 283.2686 268.620482 
L 283.236354 268.603051 
L 283.201952 268.590395 
L 283.166125 268.582769 
L 283.129554 268.580249 
L 283.093014 268.582999 
L 282.464131 267.233386 
L 282.399481 267.094712 
L 282.244164 266.761354 
L 281.720275 265.636947 
L 280.27927 262.542454 
L 280.15858 262.28322 
L 280.084147 262.125009 
L 277.44513 256.456891 
L 276.968558 255.43431 
L 276.965176 255.427073 
L 276.730915 254.923483 
L 276.215345 253.816615 
L 275.735828 252.788608 
L 275.207879 251.654087 
L 274.700028 250.564446 
L 274.362746 249.820438 
L 274.010456 249.085908 
L 273.899944 248.848386 
L 273.371049 247.712937 
L 272.886267 246.671882 
L 272.311509 245.437585 
L 272.193223 245.183298 
L 271.241423 243.139992 
L 270.785591 242.160926 
L 270.563854 241.68504 
L 270.479125 241.503263 
L 270.699869 241.44242 
L 271.353513 241.262728 
L 271.615415 241.179037 
L 274.285709 240.123523 
L 275.721243 239.555208 
L 279.935223 237.893344 
L 284.146543 236.217493 
L 287.510919 234.879786 
L 288.12131 234.610272 
L 289.713548 233.907616 
L 289.7149 233.907019 
L 289.723913 233.902905 
L 291.327024 233.195538 
L 291.485725 233.347499 
L 293.497914 232.478452 
L 293.563913 232.204153 
L 293.09633 231.790004 
L 290.393727 229.368282 
L 289.244242 228.156744 
L 289.173126 228.090275 
L 288.949277 227.891381 
L 288.242947 227.263745 
L 287.197927 226.335455 
L 286.695668 225.902036 
L 286.430333 225.65067 
L 286.274938 225.516855 
L 286.159271 225.412385 
L 285.920072 225.196356 
L 285.255959 224.596653 
L 284.357543 223.78531 
L 283.646414 223.143168 
L 282.970859 222.533104 
L 282.332362 221.956536 
L 281.655134 221.34497 
L 281.209279 220.945748 
L 280.948524 220.847348 
L 277.559586 217.74378 
L 276.55706 216.858585 
L 274.692971 215.146294 
L 273.287882 213.943959 
L 270.270562 211.284037 
L 270.045197 211.077837 
L 267.897284 209.112457 
L 265.079491 206.545361 
L 263.957618 205.531042 
L 263.357136 204.988179 
L 262.875811 204.552967 
L 262.750338 204.423065 
L 262.856764 203.837012 
L 262.59582 203.75922 
L 262.540181 203.708066 
L 261.731654 202.964713 
L 259.344037 200.75262 
L 259.325236 200.735109 
L 258.062548 199.566831 
L 257.937138 199.802125 
L 255.363721 197.478882 
L 252.366772 194.807781 
L 252.470557 194.719735 
L 252.574829 194.631177 
L 252.027606 194.142495 
L 251.485749 193.658642 
L 250.951986 193.181963 
L 250.193698 192.497995 
L 249.944597 192.280144 
L 249.614188 191.89094 
L 249.033475 191.206269 
L 248.914691 191.066452 
L 248.663673 191.160548 
L 247.989398 191.072272 
L 247.950806 191.06717 
L 247.725313 191.31106 
L 247.716232 191.302456 
L 247.707592 191.295251 
L 247.688212 191.317554 
L 247.516906 191.15424 
L 247.201803 190.85356 
L 246.737902 190.410896 
L 246.695074 190.024737 
L 246.661426 189.996258 
L 246.103019 189.473729 
L 245.781203 189.172609 
L 245.491902 188.901948 
L 244.638721 188.103618 
L 244.574432 188.043501 
L 244.092811 187.592798 
L 243.566263 187.100204 
L 242.438905 186.045366 
L 241.888447 185.530341 
L 241.453917 185.125438 
L 240.664222 184.347776 
L 240.194628 183.874994 
L 239.347674 183.022247 
L 239.205277 182.878894 
L 238.9989 182.708541 
L 238.908489 182.639901 
L 238.683304 182.445996 
L 238.026243 181.880254 
L 237.515831 181.445817 
L 237.039812 181.050519 
L 236.437237 180.501325 
L 236.330528 180.404124 
L 236.236826 180.318705 
L 235.961228 180.067411 
L 235.367534 179.526237 
L 234.639766 178.79041 
L 233.96063 178.103931 
L 233.79232 177.933879 
L 233.461027 177.455715 
L 233.444241 177.441248 
L 233.078342 176.922818 
L 232.881509 176.644389 
L 232.357994 175.903184 
L 231.831252 175.159738 
L 229.623599 172.027929 
L 228.986126 171.128276 
L 227.734865 169.354321 
L 227.316097 168.761665 
L 226.773608 167.934773 
L 226.180499 167.029961 
L 225.896871 167.662409 
L 225.573033 167.198471 
L 225.292529 166.796617 
L 225.231494 166.709216 
L 225.248171 166.697378 
L 225.240001 166.68512 
L 225.36162 166.41214 
L 224.154812 164.667565 
L 223.850804 164.228353 
L 223.672605 163.970716 
L 223.480755 163.693179 
L 223.266076 163.383007 
L 222.374177 162.093483 
L 221.857773 161.347276 
L 221.341864 160.601103 
L 220.801002 159.855922 
L 220.268366 159.121637 
L 220.0073 158.762164 
L 219.768671 158.361733 
L 219.324794 157.616612 
L 219.179238 157.371575 
L 219.149112 157.319483 
L 218.847527 156.811707 
L 217.991404 155.601284 
L 217.387865 154.748078 
L 217.352307 154.698249 
L 217.319982 154.652979 
L 217.388654 154.614122 
L 217.537083 154.528004 
L 216.405645 152.895855 
L 215.796913 152.075305 
L 215.451649 151.609852 
L 211.509525 146.303083 
L 211.49952 146.289959 
L 211.471818 146.254531 
L 211.439397 146.213035 
L 210.747115 146.43892 
L 210.536586 146.170451 
L 210.301724 145.870952 
L 210.648558 145.749769 
L 210.720182 145.724744 
L 210.728041 145.722216 
L 210.930558 145.657088 
L 211.92134 145.334549 
L 212.916437 145.010324 
L 214.6532 144.44699 
L 215.368742 144.215123 
L 215.566026 144.151593 
L 216.639169 143.803165 
L 217.501141 143.52332 
L 218.36334 143.243381 
L 219.815256 142.578826 
L 220.561174 142.249921 
L 221.346888 141.903472 
L 221.963696 141.6334 
L 223.562616 140.931052 
L 223.914474 140.783512 
L 224.496303 140.56065 
L 224.764295 140.408749 
L 226.11517 139.871485 
L 226.809967 139.5863 
L 228.06956 139.060759 
L 228.621348 138.836108 
L 228.663693 138.818857 
L 228.819712 138.738581 
L 229.217351 138.533965 
L 230.382274 137.920682 
L 231.031924 137.57627 
L 231.622978 137.261755 
L 232.676863 136.70545 
L 233.527585 136.237107 
L 233.774504 136.128006 
L 235.513596 135.20945 
L 236.338387 134.816868 
L 237.162248 134.425173 
L 238.054367 133.999639 
L 239.101623 133.500357 
L 239.203795 133.451324 
L 239.514721 133.306759 
L 240.067061 133.049957 
L 240.657226 132.795959 
L 241.456416 132.452105 
L 242.253725 132.10916 
L 243.051535 131.766206 
L 243.851175 131.421896 
L 244.399299 131.186239 
L 245.578854 130.794958 
L 246.151718 130.619612 
L 246.888391 130.394536 
L 247.625064 130.169462 
L 248.361775 129.943936 
L 249.098451 129.718868 
L 249.705938 129.533051 
L 249.834677 129.493812 
L 250.139141 129.400707 
L 250.268193 129.361279 
L 250.896256 129.169355 
L 251.654674 128.937385 
L 252.460547 128.575379 
L 252.522513 128.547865 
L 252.58447 128.519897 
L 253.104916 128.286356 
L 253.349257 128.176701 
L 254.114 127.833463 
L 254.175957 127.805496 
L 254.237914 127.777574 
L 254.940702 127.462261 
L 255.643529 127.146541 
L 255.705497 127.119073 
L 255.767454 127.091106 
L 256.149575 126.919292 
L 256.532205 126.747877 
L 256.86193 126.599903 
L 257.296958 126.40465 
L 257.358917 126.376728 
L 257.420874 126.348762 
L 258.185675 126.005537 
L 259.263378 125.521685 
L 259.698456 125.326481 
L 259.813857 125.669979 
L 260.01746 126.276021 
L 261.537243 125.593772 
L 261.730703 125.882844 
L 261.775815 125.950133 
L 262.004342 126.291552 
L 262.454115 126.963428 
L 262.807556 127.491372 
L 263.211661 128.09561 
L 263.312125 128.245853 
L 263.612615 128.694969 
L 263.816681 128.999927 
L 263.902915 129.128737 
L 264.321232 129.753956 
L 264.350421 129.795171 
L 264.513289 130.039429 
L 264.596675 130.16467 
L 264.825827 130.508031 
L 265.119265 130.946408 
L 265.329898 131.261165 
L 265.834021 132.014754 
L 266.149759 132.486737 
L 266.33856 132.768833 
L 267.065517 133.855756 
L 267.077809 133.873873 
L 267.156584 133.991861 
L 267.172169 134.015172 
L 267.354061 134.300519 
L 267.370916 134.325845 
L 267.450679 134.445446 
L 268.596045 136.159188 
L 269.101025 136.915535 
L 269.619695 137.691786 
L 270.124227 138.446737 
L 270.617347 139.184507 
L 270.254741 139.439806 
L 268.701332 140.533581 
L 269.018588 140.512218 
L 269.102632 140.506552 
L 269.3272 140.491418 
L 269.869885 140.454902 
L 270.884876 140.386361 
L 271.16954 140.420182 
L 271.332948 140.497192 
L 271.681534 140.665657 
L 271.964949 140.962885 
L 272.309353 141.324312 
L 272.936695 141.982071 
L 273.565864 142.642562 
L 274.194589 143.301702 
L 274.823276 143.961298 
L 275.456739 144.625693 
L 275.617118 144.794142 
L 275.520721 144.820399 
L 275.654666 144.996733 
L 275.819943 145.214313 
L 275.528723 145.350785 
L 275.649722 145.480161 
L 275.829027 145.671436 
L 278.046868 148.037233 
L 278.063692 148.055382 
L 278.308483 148.319479 
L 279.172097 149.251181 
L 279.400153 149.497218 
L 279.707356 149.828619 
L 279.977287 150.119899 
L 280.11332 150.266649 
L 281.661445 151.936878 
L 281.858633 152.149464 
L 281.878013 152.170371 
L 282.394723 152.58382 
L 282.480348 152.554406 
L 282.540384 152.53376 
L 282.585518 152.491786 
L 282.598859 152.50629 
L 283.427648 153.407143 
L 283.509184 153.404993 
L 283.651693 153.355871 
L 284.596419 153.030085 
L 285.182198 152.8281 
L 286.567954 152.350376 
L 288.067259 151.833202 
L 288.688883 151.618726 
L 290.101449 151.131458 
L 290.48905 150.997741 
L 296.013173 149.097234 
L 296.696345 148.862104 
L 297.510695 148.581484 
L 302.386579 146.902969 
L 302.817944 146.912658 
L 302.959014 146.968895 
L 303.148168 146.903676 
L 303.560328 146.764967 
L 303.975725 146.633045 
L 304.19519 146.567269 
L 304.246578 146.262824 
L 304.293625 146.246843 
L 304.38592 146.215513 
L 304.556971 146.159434 
L 305.876558 145.779759 
L 306.991164 145.570256 
L 308.262753 145.436899 
L 308.249944 145.644459 
L 313.170528 145.920018 
L 315.432533 146.046768 
L 316.975024 146.141745 
L 318.671124 146.246578 
L 322.925698 146.512139 
L 329.116444 146.894526 
L 329.128842 146.691974 
L 333.587246 146.962404 
L 337.452476 147.203817 
L 342.197279 147.49652 
L 342.394357 147.508528 
L 342.752298 147.52912 
L 343.005194 147.543516 
L 343.181448 147.554681 
L 343.266642 147.55983 
L 344.286661 147.623905 
L 345.541847 147.702717 
L 345.887027 147.727717 
L 346.492989 147.761644 
L 347.262188 147.8084 
L 347.815654 147.842025 
L 348.67479 147.895238 
L 349.533923 147.948409 
L 350.333244 147.996354 
L 351.63594 148.055676 
L 353.417852 148.136383 
L 354.096759 148.16713 
L 354.188277 148.171322 
L 354.169559 148.512451 
L 354.696083 148.537346 
L 356.237971 148.611256 
L 356.285586 148.614265 
L 357.691998 148.68231 
L 359.043181 148.747391 
L 360.96934 148.839471 
L 361.098472 148.845403 
L 361.351757 148.857653 
L 367.613083 148.985184 
L 368.299139 149.037712 
L 368.403836 149.045519 
L 369.183124 149.198528 
L 369.940493 149.43695 
L 370.663794 149.762741 
L 371.352646 149.196778 
L 376.311834 149.29191 
L 378.085336 149.326119 
L 379.242232 149.348417 
L 379.399445 149.351499 
L 379.874303 148.247607 
L 380.180957 147.522702 
L 380.41905 146.959815 
L 380.459959 146.862073 
L 380.425485 146.594705 
L 381.75843 143.231541 
L 381.979084 139.182918 
L 382.19462 135.226959 
L 382.147387 131.787327 
L 382.099447 128.284106 
L 381.988944 126.249197 
L 381.980883 126.100267 
L 381.297408 121.913859 
L 381.249782 121.622163 
L 380.239817 115.436348 
L 378.738574 110.448757 
L 375.854918 103.170555 
L 375.846325 103.153348 
L 375.775646 103.012286 
L 375.756229 102.973496 
L 375.719111 102.899344 
L 375.623605 102.708639 
L 374.057854 99.030921 
L 374.038216 98.984251 
L 372.615907 95.642957 
L 372.561536 95.515566 
L 372.320842 94.986034 
L 372.232099 94.745655 
L 371.851905 93.713018 
L 371.141018 91.80696 
L 370.213409 89.472511 
L 368.564693 85.453234 
L 367.464161 82.811539 
L 365.906884 79.419461 
L 363.864864 75.201359 
L 363.080881 73.672487 
L 362.167502 71.82711 
L 362.017301 71.522477 
L 361.829103 71.23388 
L 361.549073 70.59912 
L 361.217433 69.865577 
L 360.917762 69.33108 
L 360.745366 69.023543 
L 358.915122 65.644334 
L 358.723542 65.296754 
L 358.458041 64.818185 
L 358.375008 64.663188 
L 358.0374 64.033645 
L 356.830436 61.737028 
L 356.27245 60.694185 
L 355.927069 59.799492 
L 354.419236 55.891933 
L 354.080853 54.420948 
L 353.825936 53.982307 
L 353.436289 54.144943 
L 353.266239 54.255025 
L 353.252989 54.360867 
L 353.193643 54.493698 
L 353.157252 54.57285 
L 353.048211 54.633616 
L 352.620118 54.553877 
L 352.41064 54.410249 
L 352.012213 54.397124 
L 351.788241 54.372542 
L 351.576185 54.269317 
L 351.394554 53.913476 
L 351.226931 53.689799 
L 351.075626 53.574064 
L 350.998537 53.568 
L 350.834583 53.72297 
L 350.697615 53.952338 
L 350.638566 54.036095 
L 350.501354 54.074286 
L 350.406879 54.009236 
L 350.365364 53.807774 
L 350.27798 53.585138 
L 350.135734 53.599273 
L 350.0145 53.794527 
L 350.055863 54.075454 
L 350.050642 54.393786 
L 350.035115 54.485141 
L 349.985449 54.540698 
L 349.903527 54.571455 
L 349.601494 54.519843 
L 349.460518 54.373662 
L 349.12993 53.953965 
L 348.859032 53.733318 
L 348.589374 53.617593 
L 348.504586 53.607934 
L 348.34336 53.638948 
L 348.172733 53.705387 
L 348.033175 53.836225 
L 347.919584 54.01645 
L 347.859694 54.109086 
L 347.733512 54.44625 
L 347.638647 54.656399 
L 347.57587 54.715662 
L 347.468089 54.737875 
L 347.083659 54.716081 
L 346.531074 54.687661 
L 346.302055 54.766604 
L 346.172338 54.863373 
L 346.116513 54.965276 
L 346.127378 55.09465 
L 346.581565 56.102481 
L 346.803038 56.5635 
L 346.802541 56.637658 
L 346.791844 56.731993 
L 346.763479 56.782977 
L 346.723239 56.812152 
L 346.651407 56.875982 
L 346.560362 56.886321 
L 346.05777 56.770533 
L 345.58622 56.705971 
L 344.950863 56.720553 
L 344.88456 56.810246 
L 344.850001 56.912075 
L 344.821652 57.205991 
L 344.754273 57.506382 
L 344.591696 57.665823 
L 344.496782 57.73754 
L 344.391691 57.744291 
L 344.222605 57.612337 
L 344.183773 57.527533 
L 344.154743 57.400981 
L 344.149039 57.323329 
L 344.203085 57.23505 
L 344.33296 56.927149 
L 344.419371 56.636184 
L 344.426707 56.537655 
L 344.382291 56.416541 
L 344.232233 56.275885 
L 344.102088 56.253629 
L 343.797227 56.421396 
L 343.478955 56.393515 
L 343.396462 56.268951 
L 343.598186 55.904033 
L 343.608979 55.755948 
L 343.593799 55.636304 
L 343.489509 55.558396 
L 343.315497 55.565398 
L 343.228781 55.644697 
L 343.134947 55.768093 
L 343.048244 55.970062 
L 342.810898 56.259736 
L 342.427214 56.436884 
L 342.328495 56.456758 
L 341.731774 56.631486 
L 341.499925 56.685466 
L 340.971328 56.76687 
L 340.765604 56.783092 
L 340.476296 56.862687 
L 340.196016 56.930492 
L 339.929478 57.040418 
L 339.742656 57.138308 
L 339.593789 57.332289 
L 339.594107 57.540274 
L 339.701777 57.867259 
L 339.703468 57.955815 
L 339.683374 58.033554 
L 339.578181 58.143807 
L 339.48668 58.155976 
L 339.420371 58.125319 
L 339.214204 58.137917 
L 339.035486 58.087239 
L 338.914354 58.064508 
L 338.757163 58.073266 
L 338.702795 58.085272 
L 338.545194 58.237971 
L 338.578941 58.420389 
L 338.557619 58.53991 
L 338.503771 58.686794 
L 338.458191 58.866339 
L 338.374787 58.985591 
L 338.210877 59.151974 
L 338.008163 59.364764 
L 337.901986 59.569496 
L 337.825722 59.659691 
L 337.743826 59.699492 
L 337.667232 59.701145 
L 337.54154 59.66121 
L 337.053617 59.460466 
L 336.250678 59.377166 
L 335.986085 59.406727 
L 335.183542 59.67262 
L 335.006137 59.74772 
L 334.893671 59.843056 
L 334.856624 60.00487 
L 334.819528 60.138516 
L 334.826819 60.281964 
L 334.819777 60.463176 
L 334.816511 60.798774 
L 334.647586 60.953779 
L 334.56548 60.942292 
L 334.422542 60.893756 
L 334.287032 60.884758 
L 333.715038 60.759722 
L 333.538411 60.787145 
L 333.449343 60.846511 
L 333.395757 60.938872 
L 333.382546 61.042033 
L 333.365085 61.099768 
L 333.574543 61.489944 
L 333.796059 61.716196 
L 333.756715 61.856663 
L 333.697515 61.905445 
L 333.687576 61.915031 
L 333.674017 61.920973 
L 333.512088 61.88073 
L 333.319113 61.905028 
L 333.182541 61.869204 
L 333.091854 61.853234 
L 333.00702 61.829452 
L 332.868284 61.818167 
L 332.706559 61.832848 
L 332.469503 61.826893 
L 332.396099 61.827204 
L 332.233593 61.765575 
L 332.189687 61.65313 
L 332.160638 61.526079 
L 332.05207 61.205888 
L 331.974231 60.990946 
L 331.907851 60.931216 
L 331.767153 60.875451 
L 331.558944 60.823997 
L 331.446351 60.779905 
L 331.25096 60.759735 
L 331.055263 60.790003 
L 331.025425 60.801905 
L 330.984737 60.835227 
L 330.950482 60.886212 
L 330.91188 60.989407 
L 330.866276 61.514973 
L 330.814825 61.697288 
L 330.644677 62.009886 
L 330.373913 62.288614 
L 330.261614 62.478995 
L 329.825629 62.969712 
L 329.710552 63.093643 
L 329.556155 63.257226 
L 329.522489 63.344089 
L 329.557018 63.61054 
L 329.583795 63.871079 
L 329.574674 63.980553 
L 329.589203 64.113114 
L 329.563306 64.460132 
L 329.543192 64.53283 
L 329.471665 64.671624 
L 329.398785 64.700955 
L 329.318175 64.715333 
L 329.234642 64.672941 
L 329.180083 64.624573 
L 329.081737 64.510962 
L 328.859029 64.214366 
L 328.706285 64.09141 
L 328.533716 63.99394 
L 328.341412 63.947896 
L 328.05238 63.981205 
L 327.361541 64.183152 
L 327.210006 64.259076 
L 327.129695 64.352457 
L 327.089788 64.46795 
L 327.207782 65.254476 
L 327.209334 65.300783 
L 327.131455 65.44731 
L 327.066767 65.477954 
L 327.017857 65.478616 
L 326.899037 65.467698 
L 326.826258 65.395757 
L 326.731551 65.266707 
L 326.548647 64.949987 
L 326.437922 64.678825 
L 326.320519 64.550747 
L 326.235142 64.49704 
L 326.163467 64.473688 
L 325.974601 64.507076 
L 325.889959 64.535586 
L 325.8267 64.591187 
L 325.228737 65.146536 
L 325.096975 65.429912 
L 325.086224 65.585266 
L 325.102743 65.761397 
L 325.084938 65.959437 
L 324.956472 66.152462 
L 324.93389 66.174331 
L 324.757306 66.221343 
L 324.683444 66.213443 
L 324.513608 66.130497 
L 323.913963 65.501082 
L 323.743583 65.382303 
L 323.628148 65.296935 
L 323.361705 65.188937 
L 323.300422 65.161941 
L 323.162932 65.115649 
L 323.010188 65.114413 
L 322.83948 65.148661 
L 322.302655 65.457192 
L 322.162319 65.499061 
L 321.967176 65.547452 
L 321.802663 65.543078 
L 321.51098 65.469688 
L 321.169974 65.301152 
L 321.105919 65.255956 
L 320.979651 65.061206 
L 320.845604 64.717932 
L 320.798201 64.651365 
L 320.643062 64.610612 
L 320.511399 64.676954 
L 320.217353 64.940098 
L 319.893098 65.121108 
L 319.684739 65.154629 
L 319.530651 65.14611 
L 319.345549 65.097775 
L 319.199716 64.999746 
L 318.802747 64.408647 
L 318.654278 64.210772 
L 318.55741 64.12848 
L 318.341456 64.06345 
L 318.133353 64.046535 
L 318.001809 64.012515 
L 317.827852 63.910087 
L 317.642093 63.799115 
L 317.450146 63.619545 
L 317.386724 63.502641 
L 317.114318 63.252536 
L 316.799561 63.072094 
L 316.477848 62.972501 
L 315.713712 62.962216 
L 315.525311 62.99015 
L 315.325714 63.069953 
L 315.111362 63.188802 
L 315.021526 63.285858 
L 314.93434 63.483261 
L 314.987488 63.75419 
L 314.966265 63.891383 
L 314.956645 63.988603 
L 314.764437 64.20958 
L 314.653525 64.241331 
L 314.313461 64.199952 
L 313.926432 64.081502 
L 313.479413 63.799868 
L 313.168915 63.661177 
L 312.971726 63.649652 
L 312.775314 63.723932 
L 312.709723 63.748695 
L 312.298617 63.867006 
L 312.096981 63.998561 
L 311.800339 64.316478 
L 311.762666 64.400346 
L 311.480193 64.599858 
L 311.215467 64.470072 
L 311.090513 64.265757 
L 310.941432 64.142775 
L 310.686485 64.087913 
L 310.415119 64.235605 
L 310.081001 64.673734 
L 309.964439 65.018378 
L 309.778426 65.202553 
L 309.376105 65.34802 
L 308.944551 65.678888 
L 308.872099 65.816302 
L 308.889818 66.062371 
L 309.122246 66.515606 
L 309.198269 66.741485 
L 309.256715 66.854774 
L 309.154427 66.904685 
L 309.131448 66.932926 
L 308.74869 67.100981 
L 308.516533 67.07504 
L 308.40668 67.03185 
L 308.336453 66.914969 
L 308.271243 66.419741 
L 308.073216 65.944094 
L 307.939747 65.877411 
L 307.701259 65.848299 
L 307.421731 66.003769 
L 306.54477 66.123678 
L 306.405522 66.225004 
L 306.356891 66.418664 
L 306.397568 66.778472 
L 306.317627 67.086342 
L 306.235113 67.201997 
L 305.867816 67.48115 
L 305.497383 67.314994 
L 305.476514 67.183398 
L 304.601529 61.757102 
L 298.984578 62.257293 
L 296.077576 62.579581 
L 292.371015 62.984019 
L 291.159816 63.038249 
L 288.399192 62.880997 
L 282.886271 62.380356 
L 282.824795 62.374866 
L 282.69401 62.694637 
L 282.667475 62.75949 
L 282.572806 62.888383 
L 282.327637 63.108018 
L 282.017645 63.385801 
L 281.860139 63.526908 
L 281.759307 63.693516 
L 281.674384 63.879567 
L 281.580604 64.01162 
L 281.506062 63.958317 
L 281.332634 63.871807 
L 281.242892 63.835892 
L 281.098377 63.778293 
L 280.882132 63.756468 
L 280.569324 63.842135 
L 280.493863 63.906934 
L 280.44525 63.983836 
L 280.410624 64.053738 
L 280.372593 64.186688 
L 280.287808 64.293728 
L 280.185953 64.322743 
L 280.128305 64.300264 
L 280.039336 64.256562 
L 279.951068 64.132699 
L 279.900288 64.051862 
L 279.87524 64.017455 
L 279.692332 63.831984 
L 279.555231 63.77349 
L 279.394558 63.719173 
L 279.302257 63.759508 
L 279.209197 63.827984 
L 279.001414 64.117592 
L 278.861327 64.21941 
L 278.494184 64.332138 
L 278.26278 64.374815 
L 278.060439 64.439177 
L 277.924768 64.504228 
L 277.82628 64.583144 
L 277.737611 64.74016 
L 277.713348 64.830858 
L 277.684026 64.940165 
L 277.57564 65.044161 
L 277.514971 65.058007 
L 277.378642 65.07855 
L 277.218678 64.968199 
L 277.18279 64.943538 
L 276.889741 64.645434 
L 276.778061 64.600031 
L 276.643736 64.666415 
L 276.452551 64.797944 
L 276.405111 64.819164 
L 276.296456 64.868011 
L 276.102933 64.860159 
L 275.99315 64.800628 
L 275.31812 64.43505 
L 275.090529 64.527256 
L 275.016323 64.565677 
L 274.988831 64.604565 
L 274.893753 64.73915 
L 274.732563 64.77885 
L 274.700094 64.768831 
L 274.384099 64.672166 
L 274.226252 64.644184 
L 273.918226 64.675366 
L 273.62952 64.78961 
L 273.330087 64.93427 
L 272.922985 65.137068 
L 272.655808 65.306155 
L 272.38426 65.399423 
L 272.212134 65.420976 
L 272.04396 65.40532 
L 271.85034 65.268943 
L 271.653935 64.993606 
L 271.492412 64.835317 
L 271.235328 64.693772 
L 270.929728 64.650938 
L 270.727568 64.695447 
L 270.389974 64.769797 
L 270.169583 64.741172 
L 270.078422 64.702795 
L 269.77962 64.57698 
L 269.518468 64.548478 
L 269.289408 64.610239 
L 269.148783 64.688449 
L 268.738095 65.125593 
L 268.424981 65.2549 
L 267.59742 65.022079 
L 267.385793 64.905295 
L 267.0143 64.489481 
L 266.869808 64.389684 
L 266.716061 64.368519 
L 266.566699 64.417719 
L 266.318035 64.569439 
L 266.105729 64.856847 
L 266.063016 65.055922 
L 266.025166 65.566921 
L 265.935485 66.140816 
L 265.779198 66.344241 
L 265.72738 66.411634 
L 265.682078 66.470608 
L 265.546716 66.50154 
L 265.318173 66.469336 
L 264.57893 66.33653 
L 264.202392 66.245412 
L 263.974429 66.234505 
L 263.699614 66.313684 
L 263.215763 66.581745 
L 262.731415 66.832099 
L 262.443531 66.924531 
L 262.176402 66.981 
L 261.829467 67.043266 
L 261.596805 67.105936 
L 261.233138 67.286308 
L 260.714953 67.575386 
L 260.581131 67.661305 
L 260.45247 67.786268 
L 260.443362 67.888931 
L 260.573867 67.987775 
L 260.522694 68.333115 
L 260.572076 68.668043 
L 260.298241 68.870283 
L 259.392961 68.804485 
L 259.006446 68.821466 
L 259.047709 68.941637 
L 258.679148 69.135665 
L 258.071197 69.863803 
L 257.405957 70.218852 
L 256.754633 70.416291 
L 256.080858 70.442196 
L 255.415721 70.484849 
L 254.742431 70.636052 
L 254.159507 70.938592 
L 253.635863 71.330311 
L 253.189621 71.824372 
L 252.937665 72.245466 
L 252.855628 72.382484 
L 252.616306 73.03477 
L 252.046123 74.589072 
L 251.643844 75.406239 
L 250.83984 76.730072 
L 251.171348 77.126067 
L 250.143666 77.596121 
L 249.277952 78.571462 
L 248.383574 79.502809 
L 246.5433 81.077435 
L 245.626365 81.700597 
L 244.584354 82.092683 
L 243.599926 82.304017 
L 242.941233 82.445426 
L 242.291416 82.676539 
L 241.645495 82.964356 
L 241.023531 83.346983 
L 241.236558 83.91877 
L 240.354579 84.105391 
L 240.028795 84.559473 
L 239.834631 85.160566 
L 239.741414 85.744959 
L 239.855256 86.131961 
L 239.972092 86.529144 
L 239.855208 86.862476 
L 239.728485 87.676267 
L 239.589494 88.371172 
L 239.547991 88.968494 
L 239.927809 89.565484 
L 240.202944 89.997938 
L 240.662488 91.337459 
L 240.530008 91.402051 
L 240.568454 91.44364 
L 240.66533 91.53075 
L 240.805792 91.599258 
L 241.017463 91.660563 
L 241.14861 91.699172 
L 241.2844 91.749276 
L 241.463975 91.829138 
L 241.567716 91.909311 
L 241.634594 91.966608 
L 241.752302 92.045951 
L 241.83242 92.076651 
L 241.912623 92.128038 
L 241.97746 92.207932 
L 242.024606 92.378403 
L 242.107968 92.521957 
L 242.535446 93.093616 
L 242.655526 93.235901 
L 242.856148 93.405489 
L 243.005763 93.464749 
L 243.164428 93.489429 
L 243.405754 93.497648 
L 243.918017 93.449487 
L 244.005416 93.467551 
L 244.083707 93.506379 
L 244.259149 93.73358 
L 244.371886 93.815431 
L 244.3547 93.841495 
L 244.234347 93.816649 
L 244.134736 93.968034 
L 244.064447 94.086977 
L 244.049779 94.164648 
L 244.073699 94.335215 
L 244.107561 94.412651 
L 244.131027 94.472029 
L 244.131238 94.523744 
L 244.113345 94.565191 
L 244.092808 94.591134 
L 244.028331 94.599156 
L 244.000032 94.619959 
L 243.987311 94.66397 
L 243.966826 94.702842 
L 243.951419 94.721006 
L 243.902477 94.741894 
L 243.791607 94.763036 
L 243.654149 94.849462 
L 243.514244 94.995168 
L 243.498688 95.066781 
L 243.576605 95.190581 
L 243.703771 95.368482 
L 243.737717 95.466604 
L 243.73796 95.526077 
L 243.730716 95.647641 
L 243.748958 95.691525 
L 243.780101 95.735357 
L 243.772656 95.807791 
L 243.78082 95.91119 
L 243.781064 95.970664 
L 243.765772 96.017271 
L 243.706848 96.120947 
L 243.641357 96.511677 
L 243.522388 97.075877 
L 243.510809 97.399154 
L 243.466733 97.978562 
L 243.496322 98.904169 
L 243.403698 99.60014 
L 243.360395 100.36831 
L 243.402197 100.494844 
L 243.535302 100.714566 
L 243.886162 101.157231 
L 244.115522 101.173957 
L 244.175202 101.219833 
L 244.008702 101.664868 
L 243.877769 101.776766 
L 243.672302 102.047783 
L 243.734453 102.209596 
L 243.472363 102.508922 
L 243.297499 102.654447 
L 243.254639 102.727124 
L 243.272246 102.928871 
L 243.348728 103.164013 
L 243.460055 103.284723 
L 243.347635 103.556697 
L 243.536975 103.796402 
L 243.467849 103.928564 
L 243.240631 103.89071 
L 243.159573 104.058784 
L 243.15712 104.48919 
L 242.99287 104.979679 
L 242.978635 105.172932 
L 243.016407 105.496935 
L 243.013234 105.834802 
L 243.014651 106.058484 
L 243.095267 106.200458 
L 243.158153 106.325205 
L 243.17962 106.419708 
L 243.155976 106.533781 
L 243.089366 106.623241 
L 243.089233 107.055954 
L 243.063648 107.094604 
L 242.799445 107.493718 
L 242.476839 107.866751 
L 242.399634 107.962586 
L 242.156863 108.285914 
L 242.113921 108.511058 
L 241.850986 108.747932 
L 241.783415 108.944638 
L 241.492288 109.18852 
L 241.3696 109.295841 
L 241.155992 109.505495 
L 241.166347 109.613939 
L 240.855591 109.966893 
L 240.886956 110.065025 
L 240.868962 110.104294 
L 240.711994 110.234727 
L 240.539516 110.281081 
L 240.216812 110.43427 
L 239.992904 110.664878 
L 239.813594 110.670803 
L 239.779664 110.673862 
L 239.63922 110.684063 
L 239.511861 110.671324 
L 239.295145 110.733563 
L 239.011606 110.801965 
L 238.916396 110.864418 
L 238.761418 111.018691 
L 238.548022 111.603766 
L 238.213355 111.779935 
L 237.562059 112.168053 
L 237.374815 112.30776 
L 237.088694 112.32687 
L 236.931535 112.170661 
L 236.984403 111.977729 
L 236.956418 111.870298 
L 237.146918 111.472562 
L 237.104261 111.35341 
L 236.890977 111.344921 
L 236.652384 111.202091 
L 236.434125 111.214856 
L 236.252026 111.138202 
L 236.135906 111.174536 
L 235.993529 111.349912 
L 235.904204 111.377172 
L 235.462271 111.567235 
L 235.270557 111.706962 
L 235.047706 111.887154 
L 234.869778 112.116458 
L 234.714098 112.31878 
L 234.522274 112.431619 
L 234.143116 112.661759 
L 233.549814 113.013794 
L 233.157242 113.243992 
L 232.733574 113.523618 
L 232.719415 113.531415 
L 232.233646 113.994545 
L 231.835696 114.258225 
L 231.455643 114.505815 
L 231.134365 114.850312 
L 230.768406 115.121111 
L 230.397735 115.384159 
L 229.604553 115.824914 
L 229.177375 115.994868 
L 228.757266 116.176427 
L 228.297096 116.29204 
L 228.053298 116.333197 
L 227.827593 116.392151 
L 226.853192 116.534138 
L 225.489292 116.748394 
L 225.405067 116.76026 
L 225.301501 116.774756 
L 225.23587 116.788915 
L 225.184449 116.800062 
L 224.9575 116.662549 
L 224.599196 116.658898 
L 224.316038 116.70929 
L 224.099745 116.779206 
L 223.956873 116.373223 
L 223.800852 116.444235 
L 223.740052 116.537699 
L 223.50694 116.615413 
L 223.417075 116.632317 
L 223.369607 116.628243 
L 223.336162 116.661916 
L 223.203807 116.682173 
L 222.952726 116.770847 
L 222.379353 117.052079 
L 222.113243 117.178768 
L 221.892282 117.317081 
L 221.763637 117.325304 
L 221.148716 117.314234 
L 220.945154 117.31925 
L 220.8157 117.343394 
L 220.145506 117.380593 
L 219.874413 117.409719 
L 219.769092 117.38764 
L 218.964411 117.241883 
L 218.840205 117.203025 
L 218.502492 117.068919 
L 218.370786 116.997933 
L 217.942071 116.804432 
L 217.748603 116.7268 
L 217.319777 116.600817 
L 217.036855 116.559755 
L 216.683702 116.508519 
L 216.48708 116.511832 
L 216.023944 116.511094 
L 215.732357 116.540068 
L 215.678577 116.357862 
L 215.52909 116.374388 
L 214.609053 116.305667 
L 213.928745 116.149621 
L 213.774644 116.141177 
L 213.235493 116.152532 
L 212.732755 116.195569 
L 211.8461 116.535345 
L 210.946971 117.134068 
L 210.175137 117.832093 
L 210.148209 117.886696 
L 209.935678 117.987524 
L 209.229792 118.213049 
L 209.008254 118.318404 
L 208.737007 118.469445 
L 208.452296 118.634114 
L 208.158745 118.866957 
L 207.878733 119.081584 
L 207.589897 119.341669 
L 207.269076 119.551934 
L 206.957202 119.725826 
L 206.699285 119.808635 
L 206.513457 119.800347 
L 206.33668 119.773856 
L 206.150613 119.706556 
L 205.841906 119.562568 
L 205.392893 119.455481 
L 205.170758 119.433731 
L 204.803785 119.435312 
L 204.450727 119.518576 
L 204.224225 119.533186 
L 203.910741 119.439153 
L 203.648204 119.284502 
L 203.413706 119.121154 
L 203.114403 118.948963 
L 202.802637 118.728223 
L 202.31547 118.497365 
L 202.084103 118.425721 
L 201.818428 118.391453 
L 200.900297 118.458954 
L 199.607882 118.515817 
L 199.339349 118.551496 
L 198.552172 118.727436 
L 198.260473 118.85448 
L 197.987377 119.093174 
L 197.861735 119.274895 
L 197.845061 119.298593 
L 197.677235 119.669851 
L 197.60782 119.85998 
L 197.449703 119.758912 
L 197.475858 119.943623 
L 197.427488 120.077784 
L 197.397787 120.161244 
L 197.393494 120.173309 
L 197.225559 120.528214 
L 196.979078 121.09954 
L 196.916798 121.208721 
L 196.784063 121.191066 
L 196.647468 121.406484 
L 196.357978 122.071548 
L 196.399049 122.341869 
L 196.388714 122.48191 
L 196.230541 122.946219 
L 196.05373 123.326593 
L 195.902964 123.571876 
L 195.966099 123.616103 
L 195.933604 123.744759 
L 195.926425 123.975457 
L 195.884797 124.097376 
L 195.881399 124.103452 
L 195.59258 124.619934 
L 195.035966 125.197663 
L 194.82477 125.33971 
L 194.808522 125.350638 
L 194.15321 125.791392 
L 194.151658 125.792159 
L 193.366986 126.179867 
L 193.465679 126.312401 
L 193.050397 126.483147 
L 192.773741 126.566594 
L 192.380153 126.804438 
L 191.003632 127.248916 
L 190.455846 127.493195 
L 190.023281 127.717599 
L 189.984049 127.743871 
L 189.357234 128.164016 
L 189.20704 128.215833 
L 188.866497 128.451849 
L 188.219243 128.802145 
L 188.0177 128.924272 
L 187.86675 129.050437 
L 187.570667 129.359741 
L 187.299752 129.725702 
L 187.246288 129.783112 
L 187.194475 129.8821 
L 187.098223 130.046504 
L 186.741082 130.656519 
L 186.328906 131.078089 
L 185.880714 131.432581 
L 185.303168 131.857579 
L 184.971093 132.044288 
L 184.854427 132.126353 
L 184.316463 132.442928 
L 183.893939 132.807363 
L 183.702895 133.013845 
L 183.611387 133.090004 
L 183.304842 133.451581 
L 183.243191 133.513546 
L 183.028013 133.769618 
L 182.784641 134.182779 
L 182.65358 134.418794 
L 182.604209 134.487259 
L 182.31862 134.88331 
L 182.121127 135.180312 
L 181.564985 136.177053 
L 181.077343 137.024618 
L 181.000732 137.165943 
L 180.795823 137.506663 
L 180.795528 137.507152 
L 180.543301 137.928975 
L 180.41317 138.255018 
L 180.410203 138.352997 
L 180.535583 138.740872 
L 180.647666 139.007842 
L 180.744109 139.245693 
L 180.685184 139.561796 
L 180.476498 140.13398 
L 180.210155 140.684757 
L 179.973776 141.173541 
L 179.796511 141.455167 
L 178.452894 142.382956 
L 177.652729 142.600031 
L 177.306917 142.588031 
L 177.126489 142.573416 
L 177.01962 142.517819 
L 176.941363 142.460685 
L 176.824928 142.399179 
L 175.965951 142.030186 
L 175.61468 142.102641 
L 175.542242 142.141191 
L 175.214906 142.704894 
L 174.968231 143.129691 
L 174.891826 143.194322 
L 174.738361 143.210425 
L 174.645944 143.156397 
L 174.58561 143.005204 
L 174.129344 142.571411 
L 174.069116 142.486731 
L 173.998667 142.455312 
L 173.701389 142.415688 
L 173.47434 142.50658 
L 173.409261 142.541913 
L 173.345191 142.641647 
L 173.200021 143.364411 
L 173.195094 143.485062 
L 173.027296 143.60909 
L 172.816986 143.648203 
L 172.665035 143.599211 
L 172.610323 143.515855 
L 172.476814 143.286557 
L 171.985536 142.621745 
L 171.788951 142.319784 
L 171.687388 142.274014 
L 171.516717 142.265717 
L 171.43862 142.329708 
L 171.181947 142.694263 
L 171.134966 142.906226 
L 171.109656 142.919043 
L 170.927006 143.28372 
L 170.860238 143.444309 
L 170.784057 143.762319 
L 170.64752 143.918598 
L 170.398242 143.979484 
L 169.96204 143.998064 
L 169.789671 143.97527 
L 169.315946 143.835535 
L 169.154588 143.835835 
L 169.08793 143.883019 
L 168.929812 144.110592 
L 168.833232 144.16725 
L 168.652904 144.468312 
L 168.595847 144.608001 
L 168.566361 144.725005 
L 168.547944 144.871417 
L 168.689094 145.850368 
L 168.822371 146.162494 
L 168.815478 146.595729 
L 168.606567 146.80269 
L 168.321267 146.87365 
L 167.934986 147.022271 
L 167.790239 147.07561 
L 167.355937 147.407052 
L 166.852593 147.78251 
L 166.777352 147.821219 
L 166.653184 147.85522 
L 166.233751 147.919755 
L 166.14061 147.95089 
L 165.905937 148.153145 
L 165.801691 148.319615 
L 165.636205 148.704383 
L 165.565116 149.003284 
L 165.581461 149.263552 
L 165.643499 149.411839 
L 165.803101 149.564962 
L 166.274198 149.991346 
L 166.305369 150.153219 
L 166.289137 150.240016 
L 166.197218 150.35999 
L 166.018457 150.447162 
L 165.519327 150.481909 
L 165.429751 150.452397 
L 165.032159 150.305744 
L 164.918045 150.209796 
L 164.399201 149.933471 
L 164.188575 149.850519 
L 163.630347 149.2923 
L 163.384664 149.189231 
L 163.223854 149.208831 
L 163.132318 149.26201 
L 163.025134 149.403563 
L 162.942543 149.507644 
L 162.836094 149.983934 
L 162.837423 150.114025 
L 162.917184 150.513505 
L 162.965673 150.619359 
L 163.117661 150.7628 
L 163.535595 151.305197 
L 163.640088 151.412229 
L 164.193301 151.820636 
L 164.366092 151.902253 
L 164.613541 152.150396 
L 164.658669 152.308214 
L 164.584601 152.50705 
L 164.549393 152.559629 
L 164.275239 152.75959 
L 164.159117 152.775093 
L 164.053223 152.818978 
L 163.813766 152.959921 
L 163.588025 153.046022 
L 163.491643 153.058697 
L 163.340784 153.143033 
L 163.151985 153.250435 
L 162.962259 153.411062 
L 162.759736 153.729508 
L 162.678352 153.823111 
L 162.671737 153.850255 
L 162.552573 154.068464 
L 162.542944 154.110081 
L 162.511897 154.148795 
L 162.322253 154.380479 
L 162.209376 154.431889 
L 162.04598 154.549779 
L 161.71361 154.93226 
L 161.655884 154.998727 
L 161.37731 155.363538 
L 161.041702 155.775991 
L 160.218014 156.91744 
L 160.037356 157.390848 
L 159.748411 157.581986 
L 159.717956 157.663212 
L 159.560276 157.698144 
L 159.425238 157.687789 
L 159.292887 157.5756 
L 159.188055 157.320873 
L 159.123694 156.932706 
L 159.055321 156.759854 
L 158.972343 156.630962 
L 158.838338 156.595141 
L 158.657313 156.599047 
L 158.332881 157.232411 
L 158.176394 157.679171 
L 158.01181 158.25788 
L 158.021649 158.329478 
L 157.979094 158.480277 
L 157.802986 158.653036 
L 157.612055 158.713696 
L 157.370854 158.683448 
L 157.29761 158.62166 
L 157.211008 158.463914 
L 157.050681 157.916995 
L 157.002576 157.549573 
L 157.098242 157.271034 
L 157.170904 156.862098 
L 157.112398 156.628905 
L 156.954451 156.496103 
L 156.940931 156.393242 
L 156.574953 156.206831 
L 156.472651 156.221692 
L 156.151117 156.2684 
L 155.816275 156.217011 
L 155.394685 155.93037 
L 155.128941 155.795071 
L 154.631622 155.211766 
L 154.704474 154.911833 
L 154.935176 153.962037 
L 154.945318 153.867023 
L 154.925565 153.676395 
L 154.898008 153.59731 
L 154.793615 153.475376 
L 154.733353 153.445404 
L 154.575483 153.329549 
L 154.254433 153.17861 
L 154.160651 153.114809 
L 154.103582 153.023926 
L 154.024755 152.678356 
L 154.021478 152.322825 
L 153.985078 152.280249 
L 153.996912 152.108731 
L 153.997526 151.860921 
L 153.941095 151.621682 
L 153.851713 151.448101 
L 153.781376 151.375159 
L 153.638797 151.271666 
L 153.385549 151.110994 
L 153.035433 150.946205 
L 152.787163 150.783326 
L 152.488441 150.701285 
L 152.075865 150.609802 
L 151.934397 150.603739 
L 151.494073 150.641126 
L 151.108377 150.524657 
L 150.905374 150.395969 
L 150.698958 150.295666 
L 150.552738 150.201256 
L 150.212527 149.981716 
L 150.039783 149.867715 
L 149.812742 149.794343 
L 149.365365 149.514502 
L 149.186122 149.345817 
L 148.849323 149.132741 
L 148.767382 149.111915 
L 148.564247 149.074099 
L 148.421968 149.110719 
L 148.278902 149.221778 
L 148.189763 149.353552 
L 148.115768 149.803458 
L 148.151473 150.12283 
L 148.194519 150.366973 
L 148.303455 150.693383 
L 148.134841 150.780012 
L 148.053732 150.960256 
L 148.033267 151.028663 
L 148.039024 151.123074 
L 147.814587 151.459045 
L 147.774408 151.519831 
L 147.804927 151.578264 
L 147.678021 151.674857 
L 147.637764 151.68803 
L 147.391322 151.743605 
L 147.243952 151.804562 
L 147.162817 151.839147 
L 147.093754 151.866677 
L 146.655095 151.940018 
L 146.516157 151.931671 
L 146.241649 151.967557 
L 146.128418 151.990361 
L 145.826533 152.012765 
L 145.716811 152.003637 
L 145.699672 152.028395 
L 145.39682 152.030922 
L 145.322068 152.018923 
L 145.163231 152.012457 
L 144.772336 152.004482 
L 144.663366 152.002243 
L 144.350441 152.015823 
L 144.101397 152.020532 
L 143.845994 152.003493 
L 143.552687 151.966724 
L 143.166162 151.876731 
L 142.98145 151.826263 
L 142.834514 151.749685 
L 142.641687 151.57015 
L 142.576894 151.499898 
L 142.539221 151.43223 
L 141.965923 151.102316 
L 141.892449 151.090743 
L 141.686385 151.005524 
L 141.608232 151.018505 
L 141.487877 151.056382 
L 141.198057 151.188865 
L 140.916679 151.352588 
L 140.53191 151.685546 
L 140.419418 151.793569 
L 139.78968 152.223285 
L 139.675936 152.278135 
L 139.535555 152.345111 
L 139.288265 152.568547 
L 139.150533 152.67099 
L 138.662533 153.17768 
L 138.586743 153.342854 
L 138.209742 153.858911 
L 138.127298 153.978264 
L 138.063172 154.028669 
L 137.904955 154.127326 
L 137.797478 154.224919 
L 137.295272 154.47284 
L 136.57474 154.6825 
L 136.468592 154.692238 
L 135.963403 154.923105 
L 135.774006 155.044901 
L 135.623032 155.343024 
L 135.22677 155.443553 
L 134.73846 155.404101 
L 134.379588 155.104746 
L 134.445006 154.865078 
L 134.43067 154.428255 
L 134.3767 154.305773 
L 134.259227 154.171665 
L 134.087125 153.985149 
L 134.005867 153.931782 
L 133.859566 153.868734 
L 133.785991 153.85862 
L 133.694474 153.858381 
L 133.626158 153.871358 
L 133.460535 153.938437 
L 133.357659 154.008117 
L 133.269088 154.107808 
L 133.207307 154.228762 
L 133.128519 154.433809 
L 133.093275 154.587341 
L 133.024985 154.88483 
L 133.034898 155.076416 
L 133.423252 156.045261 
L 133.743015 156.573573 
L 133.722591 156.954791 
L 133.619596 157.105846 
L 133.402151 157.17597 
L 133.230323 157.098989 
L 133.13502 156.978577 
L 132.810111 156.74707 
L 132.749585 156.659863 
L 132.155588 156.480488 
L 132.051874 156.481947 
L 131.968244 156.527773 
L 131.885196 156.784625 
L 131.844999 157.065359 
L 131.920433 157.138945 
L 132.265367 157.748529 
L 132.380921 158.202852 
L 132.318131 158.563358 
L 132.146155 158.747125 
L 131.863157 158.808854 
L 131.612711 158.786487 
L 131.505681 158.739547 
L 131.298207 158.627112 
L 130.558925 158.200846 
L 130.419484 158.18448 
L 129.998967 158.282549 
L 129.812768 158.587554 
L 129.788236 158.679231 
L 129.6784 158.766933 
L 129.315669 159.162405 
L 129.16759 159.206353 
L 128.962541 159.198586 
L 128.798247 159.098986 
L 128.720814 158.92922 
L 128.710274 158.388834 
L 128.706599 158.200437 
L 128.671553 158.011856 
L 128.576917 157.846814 
L 128.341246 157.613288 
L 128.094223 157.542093 
L 127.685181 157.636623 
L 127.485124 157.932418 
L 127.34827 157.950794 
L 127.306198 158.013673 
L 127.307024 158.518876 
L 127.591275 159.934791 
L 127.662889 160.291524 
L 127.581638 160.482138 
L 127.385249 160.675983 
L 127.321159 160.718122 
L 126.775569 160.828297 
L 126.422057 160.995841 
L 125.673339 161.484532 
L 125.59766 161.657704 
L 125.562122 162.753046 
L 125.744954 163.004316 
L 125.873132 163.04857 
L 126.884312 163.093357 
L 127.026145 163.124748 
L 127.169065 163.278966 
L 127.176086 163.399699 
L 127.165919 163.554551 
L 126.915855 164.141173 
L 126.867349 164.255863 
L 126.053844 164.764355 
L 125.262031 165.358295 
L 125.165519 165.372808 
L 125.0488 165.308973 
L 124.66384 164.925837 
L 124.455456 164.763271 
L 124.423919 164.70223 
L 123.89373 164.429858 
L 123.620844 164.393585 
L 122.8154 164.376048 
L 121.896554 164.415864 
L 121.676216 164.487795 
L 121.539424 164.644701 
L 121.506627 164.856292 
L 121.497001 164.95334 
L 121.986141 166.332537 
L 122.173508 166.99419 
L 122.137605 167.25656 
L 122.00086 167.425005 
L 121.887404 167.474269 
L 121.650433 167.477036 
L 121.339486 167.435309 
L 120.614343 167.528048 
L 120.424175 167.62407 
L 120.155244 167.95045 
L 120.139183 168.10308 
L 120.209856 168.458328 
L 120.423114 168.802146 
L 120.589438 168.88997 
L 121.255371 168.957656 
L 121.343595 168.910853 
L 123.360382 169.138869 
L 123.511503 169.193299 
L 123.649236 169.440686 
L 123.651493 169.818141 
L 123.427118 170.167811 
L 122.888765 170.838204 
L 122.755185 170.948736 
L 121.379223 172.680232 
L 121.115345 172.882775 
L 120.523339 173.14459 
L 119.563446 173.5246 
L 118.384893 174.158061 
L 118.063819 174.396724 
L 117.419556 175.035573 
L 117.322446 175.10894 
L 117.008985 175.238292 
L 116.808632 175.225336 
L 115.814263 174.858343 
L 115.633106 174.863696 
L 115.491826 174.884139 
L 115.203408 175.054788 
L 115.139406 175.253583 
L 115.136692 175.621434 
L 115.458274 176.318135 
L 115.746363 176.660088 
L 115.843338 176.883723 
L 115.96428 177.221918 
L 115.923969 177.401068 
L 115.781464 177.620585 
L 115.686507 177.679499 
L 115.413124 177.847564 
L 114.802547 178.080305 
L 114.739262 178.073814 
L 114.664742 178.090489 
L 113.910938 178.446948 
L 113.776575 178.497214 
L 113.645741 178.57402 
L 113.531166 178.264593 
L 113.43522 178.016295 
L 113.50491 177.939481 
L 114.330779 177.5162 
L 114.940315 176.605611 
L 114.560841 175.159804 
L 112.721223 171.550109 
L 112.469837 171.056865 
L 112.373254 170.867297 
L 111.88836 171.610002 
L 111.758117 171.809512 
L 111.366026 172.62602 
L 110.872165 173.374438 
L 110.316141 173.911071 
L 109.117069 174.580145 
L 108.441131 174.84899 
L 107.368802 175.013921 
L 105.962163 174.883417 
L 104.340638 174.723513 
L 103.81772 174.685136 
L 101.467339 174.418367 
L 100.228821 174.600472 
L 99.077886 175.092761 
L 96.203868 176.644487 
L 95.47392 177.078904 
L 94.103639 178.114029 
L 92.799687 178.815956 
L 92.463717 179.223526 
L 91.998497 179.787478 
L 91.132819 181.385986 
L 91.12698 181.399619 
L 90.9474 181.833259 
L 90.792481 182.209973 
L 90.566334 182.756902 
L 90.442353 183.068133 
L 90.238765 183.565001 
L 90.163896 183.747889 
L 90.12538 183.843403 
L 90.40318 184.325359 
L 90.574341 184.622313 
L 93.807792 190.471087 
L 93.965898 190.756861 
L 94.990189 192.604274 
L 96.161784 194.721869 
L 98.595675 199.121152 
L 100.335769 202.268409 
L 100.351141 202.296211 
L 100.40778 202.266692 
L 100.709739 202.813827 
L 100.791759 202.964664 
L 100.872973 203.11593 
L 100.953292 203.267672 
L 101.022997 203.401811 
L 101.092478 203.536046 
L 101.161735 203.670378 
L 101.230902 203.804757 
L 101.298592 203.939944 
L 101.364759 204.075848 
L 101.430614 204.211987 
L 101.495753 204.348507 
L 101.560086 204.48541 
L 101.622622 204.622991 
L 101.684439 204.760863 
L 101.745495 204.899116 
L 101.805654 205.037753 
L 101.865051 205.176727 
L 101.92364 205.316039 
L 101.981521 205.456094 
L 102.038684 205.596439 
L 102.094994 205.737122 
L 102.178282 205.949129 
L 102.259773 206.161861 
L 102.339513 206.375225 
L 102.417456 206.589268 
L 102.505869 206.832093 
L 102.592126 207.075742 
L 102.676315 207.320077 
L 102.686267 207.353733 
L 102.694103 207.387985 
L 102.699773 207.422607 
L 102.70323 207.457554 
L 102.697559 207.5929 
L 102.494734 207.711457 
L 102.390418 207.770555 
L 102.913451 209.198472 
L 103.044453 209.122019 
L 103.079958 209.103907 
L 103.117188 209.089798 
L 103.155741 209.079838 
L 103.195167 209.074218 
L 103.234968 209.072951 
L 103.274646 209.076049 
L 103.313792 209.083476 
L 103.351861 209.095153 
L 103.380925 209.107363 
L 103.408779 209.122056 
L 103.435284 209.139098 
L 103.505301 209.108805 
L 104.503525 211.968103 
L 104.629439 212.328845 
L 104.653163 212.396794 
L 104.688556 212.498222 
L 104.604902 212.528566 
L 104.820142 213.128796 
L 104.930321 213.418401 
L 104.947232 213.474199 
L 105.143908 214.012037 
L 105.329442 214.519563 
L 105.407344 214.491264 
L 105.451973 214.601968 
L 105.831061 215.542546 
L 106.059427 216.046872 
L 106.242034 216.450153 
L 106.245717 216.458334 
L 106.345009 216.674914 
L 106.913324 217.914211 
L 107.601803 219.594338 
L 107.603266 219.597907 
L 109.107007 223.20093 
L 109.109802 223.211813 
L 109.361284 223.92177 
L 109.365911 223.935381 
L 109.399611 224.03058 
L 110.58258 227.373102 
L 110.794466 227.94016 
L 110.893247 228.185332 
L 111.022165 228.505388 
L 111.268487 229.076397 
L 111.527009 229.636439 
L 112.377433 231.395794 
L 112.623301 231.947081 
L 112.835919 232.423818 
L 114.271082 235.688429 
L 115.783032 239.127826 
L 115.861012 239.305219 
L 115.878381 239.344731 
L 115.955132 239.313521 
L 116.202798 239.907948 
L 116.302519 240.14729 
L 116.474881 240.071218 
L 118.508511 244.998366 
L 119.705008 247.913192 
L 120.977975 251.014402 
L 121.059162 250.974127 
L 121.155177 250.930591 
L 121.210986 250.905322 
L 121.238329 250.892905 
L 121.511225 250.769156 
L 121.558112 250.747915 
L 121.67551 250.694694 
L 121.910631 250.588608 
L 121.968324 250.562567 
L 122.087806 250.81811 
L 122.191974 251.041033 
L 122.591705 251.896552 
L 122.956242 252.677714 
L 125.467341 258.808213 
L 125.624435 259.191216 
L 125.850191 259.742375 
L 125.89298 259.846947 
L 126.07827 260.29984 
L 127.10545 262.807621 
L 127.897034 264.744436 
L 128.552444 266.337966 
L 128.823241 267.011012 
L 129.466195 268.577445 
L 129.582021 268.85934 
L 129.008136 268.911075 
L 128.70263 268.93836 
L 128.766538 269.05111 
L 129.176323 269.655052 
L 129.222435 269.73016 
L 129.308985 269.838738 
L 129.634841 269.810017 
L 129.852108 269.790823 
L 130.217048 270.243774 
L 130.768835 270.928322 
L 131.617469 271.773937 
L 132.694306 272.791791 
L 132.822391 272.906019 
L 133.916828 273.715828 
L 134.098312 273.835379 
L 134.367422 274.00174 
L 134.163521 274.23615 
L 134.888374 274.728237 
L 136.349923 275.609822 
L 137.693608 276.345957 
L 138.209756 276.628688 
L 138.532745 276.805636 
L 140.619813 277.94899 
L 141.373947 278.362123 
L 142.18448 278.806182 
L 143.987906 279.794219 
L 143.429067 280.135973 
L 145.17849 281.107124 
L 145.831442 281.435069 
L 145.871484 281.172923 
L 147.252615 281.936263 
L 148.89217 282.892503 
L 149.233508 283.091568 
L 149.250821 283.101609 
L 150.60791 283.845229 
L 150.798489 283.949676 
L 151.24399 284.107392 
L 151.30479 284.15984 
L 151.53262 284.35373 
L 151.599912 284.410659 
L 151.882687 284.567858 
L 154.490715 286.019663 
L 154.469096 286.044253 
L 156.999364 287.428773 
L 158.062283 288.010232 
L 159.436126 288.761961 
L 159.57934 288.595112 
L 160.103066 288.878851 
L 160.622297 289.160334 
L 160.897533 289.309454 
L 161.918894 289.862732 
L 161.975576 289.893437 
L 162.655926 290.261948 
L 166.545736 292.37023 
L 167.374871 292.823847 
L 167.470327 292.874801 
L 168.2736 293.233892 
L 169.824431 293.927179 
L 170.415757 294.191541 
L 170.658282 294.296418 
L 171.209674 294.441549 
L 171.682036 294.563962 
L 172.057874 294.661386 
L 172.675702 294.821496 
L 172.966347 294.913521 
L 173.104582 294.949932 
L 173.550454 295.043758 
L 174.026729 295.143822 
L 176.586055 295.459506 
L 176.815693 295.488 
L 179.903308 295.375402 
L 179.954754 295.442843 
L 180.360294 295.419685 
L 182.505816 295.323535 
L 184.900714 295.199062 
L 193.806812 294.673641 
L 194.050353 294.659256 
L 193.652298 295.27417 
L 194.083061 295.253319 
L 194.54381 295.231017 
L 194.719401 294.959707 
L 195.223968 294.936846 
L 195.176167 295.158001 
L 195.158982 295.23505 
L 195.762839 295.210318 
L 195.767998 295.186753 
L 195.773433 295.186762 
L 195.780216 295.18624 
L 195.956212 294.852496 
L 196.052388 294.670143 
L 196.137713 294.508082 
L 196.173465 294.504746 
L 196.445177 294.499926 
L 197.297752 294.484639 
L 197.666855 294.478085 
L 198.875675 294.456461 
L 199.377819 294.444252 
L 201.3112 294.397276 
L 203.684141 293.88479 
L 204.634718 293.679507 
L 206.364778 293.303438 
L 206.475702 293.275811 
L 207.54131 293.051813 
L 207.860155 292.977801 
L 208.759835 292.784583 
L 208.814999 292.772572 
L 208.817099 292.772117 
" clip-path="url(#p5526ff1223)" style="fill: #1f77b4"/>
   </g>
   <g id="matplotlib.axis_1">
    <g id="xtick_1">
     <g id="line2d_1">
      <defs>
       <path id="m122fa9989c" d="M 0 0 
L 0 3.5 
" style="stroke: #000000; stroke-width: 0.8"/>
      </defs>
      <g>
       <use xlink:href="#m122fa9989c" x="86.476666" y="307.584" style="stroke: #000000; stroke-width: 0.8"/>
      </g>
     </g>
     <g id="text_1">
      <!-- 13.28 -->
      <g transform="translate(72.162603 322.182437) scale(0.1 -0.1)">
       <defs>
        <path id="DejaVuSans-31" d="M 794 531 
L 1825 531 
L 1825 4091 
L 703 3866 
L 703 4441 
L 1819 4666 
L 2450 4666 
L 2450 531 
L 3481 531 
L 3481 0 
L 794 0 
L 794 531 
z
" transform="scale(0.015625)"/>
        <path id="DejaVuSans-33" d="M 2597 2516 
Q 3050 2419 3304 2112 
Q 3559 1806 3559 1356 
Q 3559 666 3084 287 
Q 2609 -91 1734 -91 
Q 1441 -91 1130 -33 
Q 819 25 488 141 
L 488 750 
Q 750 597 1062 519 
Q 1375 441 1716 441 
Q 2309 441 2620 675 
Q 2931 909 2931 1356 
Q 2931 1769 2642 2001 
Q 2353 2234 1838 2234 
L 1294 2234 
L 1294 2753 
L 1863 2753 
Q 2328 2753 2575 2939 
Q 2822 3125 2822 3475 
Q 2822 3834 2567 4026 
Q 2313 4219 1838 4219 
Q 1578 4219 1281 4162 
Q 984 4106 628 3988 
L 628 4550 
Q 988 4650 1302 4700 
Q 1616 4750 1894 4750 
Q 2613 4750 3031 4423 
Q 3450 4097 3450 3541 
Q 3450 3153 3228 2886 
Q 3006 2619 2597 2516 
z
" transform="scale(0.015625)"/>
        <path id="DejaVuSans-2e" d="M 684 794 
L 1344 794 
L 1344 0 
L 684 0 
L 684 794 
z
" transform="scale(0.015625)"/>
        <path id="DejaVuSans-32" d="M 1228 531 
L 3431 531 
L 3431 0 
L 469 0 
L 469 531 
Q 828 903 1448 1529 
Q 2069 2156 2228 2338 
Q 2531 2678 2651 2914 
Q 2772 3150 2772 3378 
Q 2772 3750 2511 3984 
Q 2250 4219 1831 4219 
Q 1534 4219 1204 4116 
Q 875 4013 500 3803 
L 500 4441 
Q 881 4594 1212 4672 
Q 1544 4750 1819 4750 
Q 2544 4750 2975 4387 
Q 3406 4025 3406 3419 
Q 3406 3131 3298 2873 
Q 3191 2616 2906 2266 
Q 2828 2175 2409 1742 
Q 1991 1309 1228 531 
z
" transform="scale(0.015625)"/>
        <path id="DejaVuSans-38" d="M 2034 2216 
Q 1584 2216 1326 1975 
Q 1069 1734 1069 1313 
Q 1069 891 1326 650 
Q 1584 409 2034 409 
Q 2484 409 2743 651 
Q 3003 894 3003 1313 
Q 3003 1734 2745 1975 
Q 2488 2216 2034 2216 
z
M 1403 2484 
Q 997 2584 770 2862 
Q 544 3141 544 3541 
Q 544 4100 942 4425 
Q 1341 4750 2034 4750 
Q 2731 4750 3128 4425 
Q 3525 4100 3525 3541 
Q 3525 3141 3298 2862 
Q 3072 2584 2669 2484 
Q 3125 2378 3379 2068 
Q 3634 1759 3634 1313 
Q 3634 634 3220 271 
Q 2806 -91 2034 -91 
Q 1263 -91 848 271 
Q 434 634 434 1313 
Q 434 1759 690 2068 
Q 947 2378 1403 2484 
z
M 1172 3481 
Q 1172 3119 1398 2916 
Q 1625 2713 2034 2713 
Q 2441 2713 2670 2916 
Q 2900 3119 2900 3481 
Q 2900 3844 2670 4047 
Q 2441 4250 2034 4250 
Q 1625 4250 1398 4047 
Q 1172 3844 1172 3481 
z
" transform="scale(0.015625)"/>
       </defs>
       <use xlink:href="#DejaVuSans-31"/>
       <use xlink:href="#DejaVuSans-33" x="63.623047"/>
       <use xlink:href="#DejaVuSans-2e" x="127.246094"/>
       <use xlink:href="#DejaVuSans-32" x="159.033203"/>
       <use xlink:href="#DejaVuSans-38" x="222.65625"/>
      </g>
     </g>
    </g>
    <g id="xtick_2">
     <g id="line2d_2">
      <g>
       <use xlink:href="#m122fa9989c" x="147.858298" y="307.584" style="stroke: #000000; stroke-width: 0.8"/>
      </g>
     </g>
     <g id="text_2">
      <!-- 13.30 -->
      <g transform="translate(133.544236 322.182437) scale(0.1 -0.1)">
       <defs>
        <path id="DejaVuSans-30" d="M 2034 4250 
Q 1547 4250 1301 3770 
Q 1056 3291 1056 2328 
Q 1056 1369 1301 889 
Q 1547 409 2034 409 
Q 2525 409 2770 889 
Q 3016 1369 3016 2328 
Q 3016 3291 2770 3770 
Q 2525 4250 2034 4250 
z
M 2034 4750 
Q 2819 4750 3233 4129 
Q 3647 3509 3647 2328 
Q 3647 1150 3233 529 
Q 2819 -91 2034 -91 
Q 1250 -91 836 529 
Q 422 1150 422 2328 
Q 422 3509 836 4129 
Q 1250 4750 2034 4750 
z
" transform="scale(0.015625)"/>
       </defs>
       <use xlink:href="#DejaVuSans-31"/>
       <use xlink:href="#DejaVuSans-33" x="63.623047"/>
       <use xlink:href="#DejaVuSans-2e" x="127.246094"/>
       <use xlink:href="#DejaVuSans-33" x="159.033203"/>
       <use xlink:href="#DejaVuSans-30" x="222.65625"/>
      </g>
     </g>
    </g>
    <g id="xtick_3">
     <g id="line2d_3">
      <g>
       <use xlink:href="#m122fa9989c" x="209.239931" y="307.584" style="stroke: #000000; stroke-width: 0.8"/>
      </g>
     </g>
     <g id="text_3">
      <!-- 13.32 -->
      <g transform="translate(194.925869 322.182437) scale(0.1 -0.1)">
       <use xlink:href="#DejaVuSans-31"/>
       <use xlink:href="#DejaVuSans-33" x="63.623047"/>
       <use xlink:href="#DejaVuSans-2e" x="127.246094"/>
       <use xlink:href="#DejaVuSans-33" x="159.033203"/>
       <use xlink:href="#DejaVuSans-32" x="222.65625"/>
      </g>
     </g>
    </g>
    <g id="xtick_4">
     <g id="line2d_4">
      <g>
       <use xlink:href="#m122fa9989c" x="270.621564" y="307.584" style="stroke: #000000; stroke-width: 0.8"/>
      </g>
     </g>
     <g id="text_4">
      <!-- 13.34 -->
      <g transform="translate(256.307501 322.182437) scale(0.1 -0.1)">
       <defs>
        <path id="DejaVuSans-34" d="M 2419 4116 
L 825 1625 
L 2419 1625 
L 2419 4116 
z
M 2253 4666 
L 3047 4666 
L 3047 1625 
L 3713 1625 
L 3713 1100 
L 3047 1100 
L 3047 0 
L 2419 0 
L 2419 1100 
L 313 1100 
L 313 1709 
L 2253 4666 
z
" transform="scale(0.015625)"/>
       </defs>
       <use xlink:href="#DejaVuSans-31"/>
       <use xlink:href="#DejaVuSans-33" x="63.623047"/>
       <use xlink:href="#DejaVuSans-2e" x="127.246094"/>
       <use xlink:href="#DejaVuSans-33" x="159.033203"/>
       <use xlink:href="#DejaVuSans-34" x="222.65625"/>
      </g>
     </g>
    </g>
    <g id="xtick_5">
     <g id="line2d_5">
      <g>
       <use xlink:href="#m122fa9989c" x="332.003197" y="307.584" style="stroke: #000000; stroke-width: 0.8"/>
      </g>
     </g>
     <g id="text_5">
      <!-- 13.36 -->
      <g transform="translate(317.689134 322.182437) scale(0.1 -0.1)">
       <defs>
        <path id="DejaVuSans-36" d="M 2113 2584 
Q 1688 2584 1439 2293 
Q 1191 2003 1191 1497 
Q 1191 994 1439 701 
Q 1688 409 2113 409 
Q 2538 409 2786 701 
Q 3034 994 3034 1497 
Q 3034 2003 2786 2293 
Q 2538 2584 2113 2584 
z
M 3366 4563 
L 3366 3988 
Q 3128 4100 2886 4159 
Q 2644 4219 2406 4219 
Q 1781 4219 1451 3797 
Q 1122 3375 1075 2522 
Q 1259 2794 1537 2939 
Q 1816 3084 2150 3084 
Q 2853 3084 3261 2657 
Q 3669 2231 3669 1497 
Q 3669 778 3244 343 
Q 2819 -91 2113 -91 
Q 1303 -91 875 529 
Q 447 1150 447 2328 
Q 447 3434 972 4092 
Q 1497 4750 2381 4750 
Q 2619 4750 2861 4703 
Q 3103 4656 3366 4563 
z
" transform="scale(0.015625)"/>
       </defs>
       <use xlink:href="#DejaVuSans-31"/>
       <use xlink:href="#DejaVuSans-33" x="63.623047"/>
       <use xlink:href="#DejaVuSans-2e" x="127.246094"/>
       <use xlink:href="#DejaVuSans-33" x="159.033203"/>
       <use xlink:href="#DejaVuSans-36" x="222.65625"/>
      </g>
     </g>
    </g>
    <g id="xtick_6">
     <g id="line2d_6">
      <g>
       <use xlink:href="#m122fa9989c" x="393.384829" y="307.584" style="stroke: #000000; stroke-width: 0.8"/>
      </g>
     </g>
     <g id="text_6">
      <!-- 13.38 -->
      <g transform="translate(379.070767 322.182437) scale(0.1 -0.1)">
       <use xlink:href="#DejaVuSans-31"/>
       <use xlink:href="#DejaVuSans-33" x="63.623047"/>
       <use xlink:href="#DejaVuSans-2e" x="127.246094"/>
       <use xlink:href="#DejaVuSans-33" x="159.033203"/>
       <use xlink:href="#DejaVuSans-38" x="222.65625"/>
      </g>
     </g>
    </g>
   </g>
   <g id="matplotlib.axis_2">
    <g id="ytick_1">
     <g id="line2d_7">
      <defs>
       <path id="m8db15ec76a" d="M 0 0 
L -3.5 0 
" style="stroke: #000000; stroke-width: 0.8"/>
      </defs>
      <g>
       <use xlink:href="#m8db15ec76a" x="75.521917" y="283.399402" style="stroke: #000000; stroke-width: 0.8"/>
      </g>
     </g>
     <g id="text_7">
      <!-- 52.58 -->
      <g transform="translate(39.893792 287.198621) scale(0.1 -0.1)">
       <defs>
        <path id="DejaVuSans-35" d="M 691 4666 
L 3169 4666 
L 3169 4134 
L 1269 4134 
L 1269 2991 
Q 1406 3038 1543 3061 
Q 1681 3084 1819 3084 
Q 2600 3084 3056 2656 
Q 3513 2228 3513 1497 
Q 3513 744 3044 326 
Q 2575 -91 1722 -91 
Q 1428 -91 1123 -41 
Q 819 9 494 109 
L 494 744 
Q 775 591 1075 516 
Q 1375 441 1709 441 
Q 2250 441 2565 725 
Q 2881 1009 2881 1497 
Q 2881 1984 2565 2268 
Q 2250 2553 1709 2553 
Q 1456 2553 1204 2497 
Q 953 2441 691 2322 
L 691 4666 
z
" transform="scale(0.015625)"/>
       </defs>
       <use xlink:href="#DejaVuSans-35"/>
       <use xlink:href="#DejaVuSans-32" x="63.623047"/>
       <use xlink:href="#DejaVuSans-2e" x="127.246094"/>
       <use xlink:href="#DejaVuSans-35" x="159.033203"/>
       <use xlink:href="#DejaVuSans-38" x="222.65625"/>
      </g>
     </g>
    </g>
    <g id="ytick_2">
     <g id="line2d_8">
      <g>
       <use xlink:href="#m8db15ec76a" x="75.521917" y="232.86743" style="stroke: #000000; stroke-width: 0.8"/>
      </g>
     </g>
     <g id="text_8">
      <!-- 52.59 -->
      <g transform="translate(39.893792 236.666649) scale(0.1 -0.1)">
       <defs>
        <path id="DejaVuSans-39" d="M 703 97 
L 703 672 
Q 941 559 1184 500 
Q 1428 441 1663 441 
Q 2288 441 2617 861 
Q 2947 1281 2994 2138 
Q 2813 1869 2534 1725 
Q 2256 1581 1919 1581 
Q 1219 1581 811 2004 
Q 403 2428 403 3163 
Q 403 3881 828 4315 
Q 1253 4750 1959 4750 
Q 2769 4750 3195 4129 
Q 3622 3509 3622 2328 
Q 3622 1225 3098 567 
Q 2575 -91 1691 -91 
Q 1453 -91 1209 -44 
Q 966 3 703 97 
z
M 1959 2075 
Q 2384 2075 2632 2365 
Q 2881 2656 2881 3163 
Q 2881 3666 2632 3958 
Q 2384 4250 1959 4250 
Q 1534 4250 1286 3958 
Q 1038 3666 1038 3163 
Q 1038 2656 1286 2365 
Q 1534 2075 1959 2075 
z
" transform="scale(0.015625)"/>
       </defs>
       <use xlink:href="#DejaVuSans-35"/>
       <use xlink:href="#DejaVuSans-32" x="63.623047"/>
       <use xlink:href="#DejaVuSans-2e" x="127.246094"/>
       <use xlink:href="#DejaVuSans-35" x="159.033203"/>
       <use xlink:href="#DejaVuSans-39" x="222.65625"/>
      </g>
     </g>
    </g>
    <g id="ytick_3">
     <g id="line2d_9">
      <g>
       <use xlink:href="#m8db15ec76a" x="75.521917" y="182.335459" style="stroke: #000000; stroke-width: 0.8"/>
      </g>
     </g>
     <g id="text_9">
      <!-- 52.60 -->
      <g transform="translate(39.893792 186.134677) scale(0.1 -0.1)">
       <use xlink:href="#DejaVuSans-35"/>
       <use xlink:href="#DejaVuSans-32" x="63.623047"/>
       <use xlink:href="#DejaVuSans-2e" x="127.246094"/>
       <use xlink:href="#DejaVuSans-36" x="159.033203"/>
       <use xlink:href="#DejaVuSans-30" x="222.65625"/>
      </g>
     </g>
    </g>
    <g id="ytick_4">
     <g id="line2d_10">
      <g>
       <use xlink:href="#m8db15ec76a" x="75.521917" y="131.803487" style="stroke: #000000; stroke-width: 0.8"/>
      </g>
     </g>
     <g id="text_10">
      <!-- 52.61 -->
      <g transform="translate(39.893792 135.602705) scale(0.1 -0.1)">
       <use xlink:href="#DejaVuSans-35"/>
       <use xlink:href="#DejaVuSans-32" x="63.623047"/>
       <use xlink:href="#DejaVuSans-2e" x="127.246094"/>
       <use xlink:href="#DejaVuSans-36" x="159.033203"/>
       <use xlink:href="#DejaVuSans-31" x="222.65625"/>
      </g>
     </g>
    </g>
    <g id="ytick_5">
     <g id="line2d_11">
      <g>
       <use xlink:href="#m8db15ec76a" x="75.521917" y="81.271515" style="stroke: #000000; stroke-width: 0.8"/>
      </g>
     </g>
     <g id="text_11">
      <!-- 52.62 -->
      <g transform="translate(39.893792 85.070733) scale(0.1 -0.1)">
       <use xlink:href="#DejaVuSans-35"/>
       <use xlink:href="#DejaVuSans-32" x="63.623047"/>
       <use xlink:href="#DejaVuSans-2e" x="127.246094"/>
       <use xlink:href="#DejaVuSans-36" x="159.033203"/>
       <use xlink:href="#DejaVuSans-32" x="222.65625"/>
      </g>
     </g>
    </g>
   </g>
   <g id="patch_3">
    <path d="M 75.521917 307.584 
L 75.521917 41.472 
" style="fill: none; stroke: #000000; stroke-width: 0.8; stroke-linejoin: miter; stroke-linecap: square"/>
   </g>
   <g id="patch_4">
    <path d="M 396.798083 307.584 
L 396.798083 41.472 
" style="fill: none; stroke: #000000; stroke-width: 0.8; stroke-linejoin: miter; stroke-linecap: square"/>
   </g>
   <g id="patch_5">
    <path d="M 75.521917 307.584 
L 396.798083 307.584 
" style="fill: none; stroke: #000000; stroke-width: 0.8; stroke-linejoin: miter; stroke-linecap: square"/>
   </g>
   <g id="patch_6">
    <path d="M 75.521917 41.472 
L 396.798083 41.472 
" style="fill: none; stroke: #000000; stroke-width: 0.8; stroke-linejoin: miter; stroke-linecap: square"/>
   </g>
   <g id="text_12">
    <!-- Wittenau_Borsigwalde -->
    <g transform="translate(164.54115 184.778042) scale(0.12 -0.12)">
     <defs>
      <path id="DejaVuSans-57" d="M 213 4666 
L 850 4666 
L 1831 722 
L 2809 4666 
L 3519 4666 
L 4500 722 
L 5478 4666 
L 6119 4666 
L 4947 0 
L 4153 0 
L 3169 4050 
L 2175 0 
L 1381 0 
L 213 4666 
z
" transform="scale(0.015625)"/>
      <path id="DejaVuSans-69" d="M 603 3500 
L 1178 3500 
L 1178 0 
L 603 0 
L 603 3500 
z
M 603 4863 
L 1178 4863 
L 1178 4134 
L 603 4134 
L 603 4863 
z
" transform="scale(0.015625)"/>
      <path id="DejaVuSans-74" d="M 1172 4494 
L 1172 3500 
L 2356 3500 
L 2356 3053 
L 1172 3053 
L 1172 1153 
Q 1172 725 1289 603 
Q 1406 481 1766 481 
L 2356 481 
L 2356 0 
L 1766 0 
Q 1100 0 847 248 
Q 594 497 594 1153 
L 594 3053 
L 172 3053 
L 172 3500 
L 594 3500 
L 594 4494 
L 1172 4494 
z
" transform="scale(0.015625)"/>
      <path id="DejaVuSans-65" d="M 3597 1894 
L 3597 1613 
L 953 1613 
Q 991 1019 1311 708 
Q 1631 397 2203 397 
Q 2534 397 2845 478 
Q 3156 559 3463 722 
L 3463 178 
Q 3153 47 2828 -22 
Q 2503 -91 2169 -91 
Q 1331 -91 842 396 
Q 353 884 353 1716 
Q 353 2575 817 3079 
Q 1281 3584 2069 3584 
Q 2775 3584 3186 3129 
Q 3597 2675 3597 1894 
z
M 3022 2063 
Q 3016 2534 2758 2815 
Q 2500 3097 2075 3097 
Q 1594 3097 1305 2825 
Q 1016 2553 972 2059 
L 3022 2063 
z
" transform="scale(0.015625)"/>
      <path id="DejaVuSans-6e" d="M 3513 2113 
L 3513 0 
L 2938 0 
L 2938 2094 
Q 2938 2591 2744 2837 
Q 2550 3084 2163 3084 
Q 1697 3084 1428 2787 
Q 1159 2491 1159 1978 
L 1159 0 
L 581 0 
L 581 3500 
L 1159 3500 
L 1159 2956 
Q 1366 3272 1645 3428 
Q 1925 3584 2291 3584 
Q 2894 3584 3203 3211 
Q 3513 2838 3513 2113 
z
" transform="scale(0.015625)"/>
      <path id="DejaVuSans-61" d="M 2194 1759 
Q 1497 1759 1228 1600 
Q 959 1441 959 1056 
Q 959 750 1161 570 
Q 1363 391 1709 391 
Q 2188 391 2477 730 
Q 2766 1069 2766 1631 
L 2766 1759 
L 2194 1759 
z
M 3341 1997 
L 3341 0 
L 2766 0 
L 2766 531 
Q 2569 213 2275 61 
Q 1981 -91 1556 -91 
Q 1019 -91 701 211 
Q 384 513 384 1019 
Q 384 1609 779 1909 
Q 1175 2209 1959 2209 
L 2766 2209 
L 2766 2266 
Q 2766 2663 2505 2880 
Q 2244 3097 1772 3097 
Q 1472 3097 1187 3025 
Q 903 2953 641 2809 
L 641 3341 
Q 956 3463 1253 3523 
Q 1550 3584 1831 3584 
Q 2591 3584 2966 3190 
Q 3341 2797 3341 1997 
z
" transform="scale(0.015625)"/>
      <path id="DejaVuSans-75" d="M 544 1381 
L 544 3500 
L 1119 3500 
L 1119 1403 
Q 1119 906 1312 657 
Q 1506 409 1894 409 
Q 2359 409 2629 706 
Q 2900 1003 2900 1516 
L 2900 3500 
L 3475 3500 
L 3475 0 
L 2900 0 
L 2900 538 
Q 2691 219 2414 64 
Q 2138 -91 1772 -91 
Q 1169 -91 856 284 
Q 544 659 544 1381 
z
M 1991 3584 
L 1991 3584 
z
" transform="scale(0.015625)"/>
      <path id="DejaVuSans-5f" d="M 3263 -1063 
L 3263 -1509 
L -63 -1509 
L -63 -1063 
L 3263 -1063 
z
" transform="scale(0.015625)"/>
      <path id="DejaVuSans-42" d="M 1259 2228 
L 1259 519 
L 2272 519 
Q 2781 519 3026 730 
Q 3272 941 3272 1375 
Q 3272 1813 3026 2020 
Q 2781 2228 2272 2228 
L 1259 2228 
z
M 1259 4147 
L 1259 2741 
L 2194 2741 
Q 2656 2741 2882 2914 
Q 3109 3088 3109 3444 
Q 3109 3797 2882 3972 
Q 2656 4147 2194 4147 
L 1259 4147 
z
M 628 4666 
L 2241 4666 
Q 2963 4666 3353 4366 
Q 3744 4066 3744 3513 
Q 3744 3084 3544 2831 
Q 3344 2578 2956 2516 
Q 3422 2416 3680 2098 
Q 3938 1781 3938 1306 
Q 3938 681 3513 340 
Q 3088 0 2303 0 
L 628 0 
L 628 4666 
z
" transform="scale(0.015625)"/>
      <path id="DejaVuSans-6f" d="M 1959 3097 
Q 1497 3097 1228 2736 
Q 959 2375 959 1747 
Q 959 1119 1226 758 
Q 1494 397 1959 397 
Q 2419 397 2687 759 
Q 2956 1122 2956 1747 
Q 2956 2369 2687 2733 
Q 2419 3097 1959 3097 
z
M 1959 3584 
Q 2709 3584 3137 3096 
Q 3566 2609 3566 1747 
Q 3566 888 3137 398 
Q 2709 -91 1959 -91 
Q 1206 -91 779 398 
Q 353 888 353 1747 
Q 353 2609 779 3096 
Q 1206 3584 1959 3584 
z
" transform="scale(0.015625)"/>
      <path id="DejaVuSans-72" d="M 2631 2963 
Q 2534 3019 2420 3045 
Q 2306 3072 2169 3072 
Q 1681 3072 1420 2755 
Q 1159 2438 1159 1844 
L 1159 0 
L 581 0 
L 581 3500 
L 1159 3500 
L 1159 2956 
Q 1341 3275 1631 3429 
Q 1922 3584 2338 3584 
Q 2397 3584 2469 3576 
Q 2541 3569 2628 3553 
L 2631 2963 
z
" transform="scale(0.015625)"/>
      <path id="DejaVuSans-73" d="M 2834 3397 
L 2834 2853 
Q 2591 2978 2328 3040 
Q 2066 3103 1784 3103 
Q 1356 3103 1142 2972 
Q 928 2841 928 2578 
Q 928 2378 1081 2264 
Q 1234 2150 1697 2047 
L 1894 2003 
Q 2506 1872 2764 1633 
Q 3022 1394 3022 966 
Q 3022 478 2636 193 
Q 2250 -91 1575 -91 
Q 1294 -91 989 -36 
Q 684 19 347 128 
L 347 722 
Q 666 556 975 473 
Q 1284 391 1588 391 
Q 1994 391 2212 530 
Q 2431 669 2431 922 
Q 2431 1156 2273 1281 
Q 2116 1406 1581 1522 
L 1381 1569 
Q 847 1681 609 1914 
Q 372 2147 372 2553 
Q 372 3047 722 3315 
Q 1072 3584 1716 3584 
Q 2034 3584 2315 3537 
Q 2597 3491 2834 3397 
z
" transform="scale(0.015625)"/>
      <path id="DejaVuSans-67" d="M 2906 1791 
Q 2906 2416 2648 2759 
Q 2391 3103 1925 3103 
Q 1463 3103 1205 2759 
Q 947 2416 947 1791 
Q 947 1169 1205 825 
Q 1463 481 1925 481 
Q 2391 481 2648 825 
Q 2906 1169 2906 1791 
z
M 3481 434 
Q 3481 -459 3084 -895 
Q 2688 -1331 1869 -1331 
Q 1566 -1331 1297 -1286 
Q 1028 -1241 775 -1147 
L 775 -588 
Q 1028 -725 1275 -790 
Q 1522 -856 1778 -856 
Q 2344 -856 2625 -561 
Q 2906 -266 2906 331 
L 2906 616 
Q 2728 306 2450 153 
Q 2172 0 1784 0 
Q 1141 0 747 490 
Q 353 981 353 1791 
Q 353 2603 747 3093 
Q 1141 3584 1784 3584 
Q 2172 3584 2450 3431 
Q 2728 3278 2906 2969 
L 2906 3500 
L 3481 3500 
L 3481 434 
z
" transform="scale(0.015625)"/>
      <path id="DejaVuSans-77" d="M 269 3500 
L 844 3500 
L 1563 769 
L 2278 3500 
L 2956 3500 
L 3675 769 
L 4391 3500 
L 4966 3500 
L 4050 0 
L 3372 0 
L 2619 2869 
L 1863 0 
L 1184 0 
L 269 3500 
z
" transform="scale(0.015625)"/>
      <path id="DejaVuSans-6c" d="M 603 4863 
L 1178 4863 
L 1178 0 
L 603 0 
L 603 4863 
z
" transform="scale(0.015625)"/>
      <path id="DejaVuSans-64" d="M 2906 2969 
L 2906 4863 
L 3481 4863 
L 3481 0 
L 2906 0 
L 2906 525 
Q 2725 213 2448 61 
Q 2172 -91 1784 -91 
Q 1150 -91 751 415 
Q 353 922 353 1747 
Q 353 2572 751 3078 
Q 1150 3584 1784 3584 
Q 2172 3584 2448 3432 
Q 2725 3281 2906 2969 
z
M 947 1747 
Q 947 1113 1208 752 
Q 1469 391 1925 391 
Q 2381 391 2643 752 
Q 2906 1113 2906 1747 
Q 2906 2381 2643 2742 
Q 2381 3103 1925 3103 
Q 1469 3103 1208 2742 
Q 947 2381 947 1747 
z
" transform="scale(0.015625)"/>
     </defs>
     <use xlink:href="#DejaVuSans-57"/>
     <use xlink:href="#DejaVuSans-69" x="96.626953"/>
     <use xlink:href="#DejaVuSans-74" x="124.410156"/>
     <use xlink:href="#DejaVuSans-74" x="163.619141"/>
     <use xlink:href="#DejaVuSans-65" x="202.828125"/>
     <use xlink:href="#DejaVuSans-6e" x="264.351562"/>
     <use xlink:href="#DejaVuSans-61" x="327.730469"/>
     <use xlink:href="#DejaVuSans-75" x="389.009766"/>
     <use xlink:href="#DejaVuSans-5f" x="452.388672"/>
     <use xlink:href="#DejaVuSans-42" x="502.388672"/>
     <use xlink:href="#DejaVuSans-6f" x="570.992188"/>
     <use xlink:href="#DejaVuSans-72" x="632.173828"/>
     <use xlink:href="#DejaVuSans-73" x="673.287109"/>
     <use xlink:href="#DejaVuSans-69" x="725.386719"/>
     <use xlink:href="#DejaVuSans-67" x="753.169922"/>
     <use xlink:href="#DejaVuSans-77" x="816.646484"/>
     <use xlink:href="#DejaVuSans-61" x="898.433594"/>
     <use xlink:href="#DejaVuSans-6c" x="959.712891"/>
     <use xlink:href="#DejaVuSans-64" x="987.496094"/>
     <use xlink:href="#DejaVuSans-65" x="1050.972656"/>
    </g>
   </g>
  </g>
 </g>
 <defs>
  <clipPath id="p5526ff1223">
   <rect x="75.521917" y="41.472" width="321.276165" height="266.112"/>
  </clipPath>
 </defs>
</svg>
