<?xml version="1.0" encoding="utf-8" standalone="no"?>
<!DOCTYPE svg PUBLIC "-//W3C//DTD SVG 1.1//EN"
  "http://www.w3.org/Graphics/SVG/1.1/DTD/svg11.dtd">
<svg xmlns:xlink="http://www.w3.org/1999/xlink" width="460.8pt" height="345.6pt" viewBox="0 0 460.8 345.6" xmlns="http://www.w3.org/2000/svg" version="1.1">
 <metadata>
  <rdf:RDF xmlns:dc="http://purl.org/dc/elements/1.1/" xmlns:cc="http://creativecommons.org/ns#" xmlns:rdf="http://www.w3.org/1999/02/22-rdf-syntax-ns#">
   <cc:Work>
    <dc:type rdf:resource="http://purl.org/dc/dcmitype/StillImage"/>
    <dc:date>2024-10-15T09:53:27.763511</dc:date>
    <dc:format>image/svg+xml</dc:format>
    <dc:creator>
     <cc:Agent>
      <dc:title>Matplotlib v3.8.4, https://matplotlib.org/</dc:title>
     </cc:Agent>
    </dc:creator>
   </cc:Work>
  </rdf:RDF>
 </metadata>
 <defs>
  <style type="text/css">*{stroke-linejoin: round; stroke-linecap: butt}</style>
 </defs>
 <g id="figure_1">
  <g id="patch_1">
   <path d="M 0 345.6 
L 460.8 345.6 
L 460.8 0 
L 0 0 
z
" style="fill: #ffffff"/>
  </g>
  <g id="axes_1">
   <g id="patch_2">
    <path d="M 57.6 297.580858 
L 414.72 297.580858 
L 414.72 51.475142 
L 57.6 51.475142 
z
" style="fill: #ffffff"/>
   </g>
   <g id="PatchCollection_1">
    <path d="M 93.341919 205.583293 
L 92.873436 207.948253 
L 92.81834 208.226466 
L 92.384495 208.273478 
L 81.357844 209.469336 
L 80.917615 209.517048 
L 79.818513 209.636321 
L 79.102584 210.165703 
L 79.117096 210.302243 
L 79.136156 210.477351 
L 79.144106 210.550651 
L 79.135594 210.588748 
L 79.123642 210.625912 
L 79.108483 210.661846 
L 79.090111 210.696262 
L 79.06876 210.728864 
L 79.04457 210.759455 
L 79.031091 210.774252 
L 79.016972 210.788435 
L 79.002211 210.80191 
L 78.959345 210.834914 
L 78.912688 210.86226 
L 78.862956 210.883594 
L 78.811006 210.898557 
L 78.757605 210.906941 
L 78.703565 210.908531 
L 78.649756 210.903405 
L 78.596997 210.891592 
L 78.546158 210.873264 
L 78.497921 210.848745 
L 78.453161 210.8184 
L 78.412467 210.782697 
L 78.376574 210.742201 
L 78.345978 210.697526 
L 78.321176 210.649385 
L 78.302523 210.598495 
L 78.265774 210.445668 
L 78.260059 210.433778 
L 78.251073 210.424137 
L 78.239559 210.417645 
L 78.226688 210.41495 
L 78.136727 210.424953 
L 77.053373 210.546191 
L 76.896064 210.56326 
L 76.129432 210.645489 
L 76.087305 210.64999 
L 75.651585 210.696786 
L 75.516319 210.711269 
L 75.53865 210.798429 
L 75.608771 211.072343 
L 75.714305 211.459862 
L 75.848671 211.832324 
L 76.020949 212.182471 
L 76.247992 212.501945 
L 76.419107 212.682701 
L 76.519151 212.788434 
L 76.8895 213.085129 
L 77.348882 213.377637 
L 77.593979 213.523799 
L 77.694038 213.573817 
L 77.847635 213.650644 
L 77.874224 213.663547 
L 78.118157 213.782217 
L 78.435469 213.931969 
L 78.667374 214.017652 
L 85.898817 216.689245 
L 86.143454 216.7196 
L 86.267539 216.702727 
L 86.395361 216.651537 
L 86.490018 216.613473 
L 86.72789 216.651132 
L 86.727442 216.652591 
L 86.732153 216.654316 
L 86.850348 216.697448 
L 86.778051 216.792786 
L 86.227988 217.519833 
L 85.966352 217.865931 
L 85.460628 218.416693 
L 84.824037 219.045129 
L 84.303067 219.50234 
L 84.147882 219.63856 
L 83.438811 220.193021 
L 83.165245 220.380409 
L 82.694911 220.702762 
L 81.915667 221.166297 
L 81.118996 221.592291 
L 79.111201 222.670816 
L 79.079953 222.687617 
L 73.832727 225.506346 
L 76.46802 226.889609 
L 76.477172 226.893935 
L 76.865189 227.097521 
L 77.305748 227.328713 
L 78.719828 228.070751 
L 78.919415 228.175482 
L 82.190922 229.892268 
L 82.329681 229.965097 
L 83.45726 230.557417 
L 84.060689 230.874074 
L 84.457957 231.082721 
L 84.530381 231.120683 
L 84.65827 231.187778 
L 84.850152 231.288492 
L 85.254383 231.500551 
L 85.682788 231.725329 
L 85.879493 231.828492 
L 86.364433 232.082959 
L 86.433055 232.118933 
L 86.648965 231.410144 
L 86.744832 231.435349 
L 87.280528 231.577115 
L 87.505551 231.636653 
L 87.543919 231.646821 
L 87.62264 231.667644 
L 87.817871 231.719326 
L 87.850523 231.728034 
L 88.002975 231.768297 
L 88.087996 231.790857 
L 88.173451 231.851114 
L 88.269143 231.923157 
L 88.387791 232.019774 
L 88.502266 232.121316 
L 88.612326 232.227692 
L 88.717773 232.338617 
L 88.818409 232.45395 
L 88.914134 232.573452 
L 89.004653 232.696889 
L 89.089914 232.824116 
L 89.169671 232.954851 
L 89.24387 233.088853 
L 89.312312 233.225884 
L 89.374847 233.365708 
L 89.431471 233.508083 
L 89.481984 233.652723 
L 89.513978 233.75627 
L 89.542862 233.86071 
L 89.568636 233.965994 
L 89.591249 234.072027 
L 89.61065 234.178666 
L 89.627639 234.689086 
L 89.632567 234.836326 
L 89.632934 234.92554 
L 89.633153 234.97483 
L 89.62791 235.113228 
L 89.616883 235.251326 
L 89.600015 235.388786 
L 89.588006 235.461195 
L 89.57735 235.525414 
L 89.548979 235.660967 
L 89.541473 235.690496 
L 89.514945 235.795203 
L 89.475289 235.92788 
L 89.430056 236.058802 
L 89.379382 236.187629 
L 89.323313 236.314215 
L 89.272137 236.423307 
L 86.353015 242.645035 
L 85.943858 243.517142 
L 86.983535 244.286966 
L 86.763941 244.609254 
L 88.443888 245.876289 
L 90.886091 247.718164 
L 90.984524 247.792462 
L 91.102963 247.878319 
L 91.224618 247.959563 
L 91.349199 248.036153 
L 91.476654 248.107945 
L 91.606692 248.174801 
L 91.739168 248.236676 
L 91.873885 248.293478 
L 92.010699 248.345114 
L 92.149318 248.391494 
L 92.289594 248.432525 
L 92.431338 248.468259 
L 92.574352 248.498508 
L 92.718397 248.523326 
L 94.810554 248.845433 
L 94.96946 248.867495 
L 95.128939 248.88515 
L 95.288844 248.898305 
L 95.449081 248.90706 
L 95.609455 248.911321 
L 95.77762 248.91096 
L 95.94572 248.905724 
L 96.113611 248.895569 
L 96.281101 248.880499 
L 96.448093 248.860564 
L 96.614444 248.835767 
L 96.78001 248.806112 
L 100.402747 248.110689 
L 100.590171 248.074691 
L 100.676645 248.058114 
L 101.755173 247.851057 
L 101.836949 247.835361 
L 101.904106 247.822466 
L 101.914939 247.820381 
L 102.410892 249.429875 
L 102.608354 250.070594 
L 102.732524 250.473627 
L 102.851464 250.856455 
L 102.994207 251.315694 
L 103.051698 251.500635 
L 103.319358 252.361973 
L 103.449355 252.313976 
L 103.58023 252.268566 
L 103.712033 252.22579 
L 103.844618 252.185651 
L 104.036136 252.133097 
L 104.229131 252.08611 
L 104.423359 252.044646 
L 104.61868 252.008806 
L 104.814948 251.978594 
L 105.012019 251.954012 
L 105.209702 251.935113 
L 105.407852 251.921901 
L 105.606278 251.91438 
L 105.804835 251.912601 
L 106.003377 251.916472 
L 106.201715 251.926093 
L 106.3997 251.941371 
L 106.59719 251.962358 
L 106.793318 251.989025 
L 106.988564 252.021314 
L 107.182877 252.059128 
L 107.375971 252.102571 
L 107.567794 252.151451 
L 107.758106 252.20587 
L 107.946857 252.265684 
L 108.133758 252.330901 
L 108.318758 252.401424 
L 108.720237 252.561009 
L 108.933734 252.646035 
L 111.009384 253.471223 
L 111.269132 253.076432 
L 114.848183 254.496946 
L 129.72855 260.403599 
L 133.010047 261.710226 
L 134.501212 262.302751 
L 134.844839 262.439277 
L 135.152759 262.561656 
L 136.532901 263.110052 
L 139.706244 264.370295 
L 142.135525 265.332833 
L 143.375974 265.824166 
L 143.585109 265.906862 
L 143.578845 265.70577 
L 146.489969 266.86174 
L 147.813561 267.385666 
L 148.893423 267.812964 
L 151.074069 268.682016 
L 152.770246 269.35808 
L 153.435345 269.621892 
L 154.594531 270.085593 
L 155.82926 270.577412 
L 156.373217 270.794077 
L 156.463236 270.829921 
L 156.969106 271.031476 
L 158.822354 271.769947 
L 160.511874 272.443129 
L 162.362769 273.180764 
L 162.421551 273.204191 
L 163.609452 273.67684 
L 163.63034 273.687227 
L 163.649278 273.700796 
L 163.665828 273.717317 
L 163.679496 273.736221 
L 163.689935 273.75713 
L 163.779203 273.796036 
L 163.865972 273.837219 
L 163.998623 273.899855 
L 164.456918 274.11632 
L 164.5789 274.173357 
L 164.654317 274.20862 
L 164.772404 274.263767 
L 164.873998 274.311276 
L 164.951654 274.347598 
L 165.363964 274.540297 
L 165.502488 274.605069 
L 167.036217 275.32202 
L 167.346063 275.467185 
L 168.383469 275.953092 
L 168.478106 275.997429 
L 168.67497 276.089648 
L 169.398689 276.426714 
L 169.502418 276.475045 
L 170.234113 276.815842 
L 171.056764 277.206471 
L 171.735029 277.528501 
L 172.911524 278.083873 
L 174.407351 278.787251 
L 175.034591 279.082209 
L 176.226984 279.643029 
L 176.422975 279.735227 
L 177.719193 280.344869 
L 177.772619 280.370015 
L 178.503051 280.713473 
L 178.890307 280.895565 
L 178.939402 280.918685 
L 179.408013 281.139097 
L 179.442072 281.155124 
L 180.007362 281.42099 
L 181.663787 281.962641 
L 182.067493 282.052727 
L 182.213706 282.085372 
L 182.596654 282.170813 
L 182.832617 282.223482 
L 183.173908 282.299635 
L 183.299945 282.327766 
L 183.653429 282.406685 
L 183.6857 282.413869 
L 183.808398 282.441256 
L 183.842459 282.448834 
L 184.079922 282.501905 
L 184.365765 282.565657 
L 184.630999 282.624857 
L 184.870443 282.678269 
L 184.916745 282.688611 
L 185.036832 282.715478 
L 185.071279 282.723097 
L 186.048847 282.941322 
L 186.108501 282.954596 
L 187.140421 283.18371 
L 187.494339 283.262769 
L 187.967569 283.368522 
L 188.314374 283.446006 
L 188.840289 283.563407 
L 188.938408 283.58532 
L 188.960615 283.590271 
L 188.991967 283.597284 
L 189.102714 283.622 
L 189.609229 283.735208 
L 189.971952 283.816292 
L 190.078442 283.840091 
L 190.317014 283.893336 
L 190.992478 284.044281 
L 191.180297 284.086175 
L 191.286883 284.11002 
L 192.322131 284.337729 
L 193.207671 284.535767 
L 194.448091 284.813098 
L 194.702098 284.869956 
L 194.97062 284.930059 
L 195.184372 284.977885 
L 195.445733 285.036412 
L 195.563544 285.062756 
L 195.664905 285.085467 
L 195.685128 285.089981 
L 195.712608 285.096069 
L 195.817743 285.119611 
L 196.394888 285.248565 
L 196.624122 285.299856 
L 196.854228 285.351368 
L 197.103686 285.407222 
L 197.123813 285.411738 
L 197.224689 285.434267 
L 197.812529 285.565782 
L 198.109932 285.632331 
L 198.25648 285.665074 
L 199.68166 285.98387 
L 199.892362 286.030997 
L 200.349278 286.133185 
L 200.449815 286.155675 
L 200.838799 286.206199 
L 202.286638 286.394235 
L 202.406678 286.241748 
L 202.849245 285.678956 
L 203.350667 285.04468 
L 203.987684 284.238786 
L 204.740135 283.287176 
L 204.929133 283.047914 
L 204.969062 282.99757 
L 205.572342 282.234352 
L 205.558277 282.204012 
L 205.566642 282.124353 
L 205.666652 281.997186 
L 206.054906 281.503706 
L 206.206077 281.311844 
L 206.308066 281.30041 
L 206.569912 280.96965 
L 206.94036 280.501922 
L 206.9905 280.436815 
L 207.037313 280.369321 
L 207.080656 280.299492 
L 207.120437 280.22757 
L 207.156612 280.153703 
L 207.164641 280.136092 
L 207.172329 280.118343 
L 207.179967 280.100548 
L 207.206538 280.03414 
L 207.230635 279.96687 
L 207.252451 279.898784 
L 207.271891 279.829978 
L 207.28674 279.771029 
L 207.299895 279.711684 
L 207.311307 279.651943 
L 207.316866 279.62087 
L 207.391258 279.2172 
L 207.990527 275.957235 
L 208.285599 274.353138 
L 208.469689 273.351636 
L 208.709533 272.046441 
L 208.79756 271.570284 
L 208.832364 271.433248 
L 208.869204 271.296793 
L 208.908127 271.16092 
L 208.941794 271.084598 
L 208.976044 271.008554 
L 209.010831 270.932787 
L 209.035127 270.880721 
L 209.059666 270.828795 
L 209.0844 270.776962 
L 209.17986 270.607702 
L 209.450979 270.125617 
L 209.628358 269.81 
L 211.531062 266.427625 
L 212.819801 264.137159 
L 213.632945 262.692129 
L 213.914058 262.197608 
L 214.287282 261.540858 
L 215.03426 259.865 
L 215.048283 259.833446 
L 215.134036 259.64104 
L 215.165397 259.569069 
L 215.215437 259.454189 
L 215.447461 258.921575 
L 215.642171 258.474537 
L 215.675457 258.398226 
L 215.702104 258.337128 
L 215.72884 258.27569 
L 215.746008 258.236291 
L 215.888944 257.908277 
L 216.098491 257.427252 
L 216.174113 257.253133 
L 216.534639 257.841595 
L 216.539907 257.838193 
L 216.782563 258.280322 
L 216.774876 258.29387 
L 216.773051 258.311244 
L 217.045692 258.808751 
L 217.059141 258.811633 
L 217.065357 258.799037 
L 217.24407 259.125096 
L 217.509882 259.590844 
L 217.836156 260.157196 
L 217.895712 260.260234 
L 218.225638 260.770594 
L 218.279362 260.847596 
L 218.498246 261.114667 
L 218.50307 261.110792 
L 218.682733 261.309949 
L 218.76873 261.402782 
L 218.762949 261.409045 
L 218.829576 261.471078 
L 218.835357 261.464816 
L 219.179511 261.783519 
L 219.173309 261.790322 
L 219.238447 261.85041 
L 219.244227 261.844099 
L 219.43148 262.010399 
L 219.427209 262.015275 
L 219.491404 262.071956 
L 219.495195 262.067139 
L 219.511609 262.082025 
L 219.687344 262.239219 
L 219.897099 262.232697 
L 220.031429 262.097732 
L 220.27257 261.855452 
L 220.388104 261.739239 
L 220.653774 261.471946 
L 221.901287 257.946329 
L 222.203398 257.094984 
L 223.76787 252.679894 
L 223.939028 252.197184 
L 223.976701 252.090937 
L 224.155331 251.587105 
L 224.192961 251.481052 
L 224.309782 251.151459 
L 224.347455 251.045213 
L 224.526088 250.541477 
L 224.563762 250.435231 
L 224.735285 249.951451 
L 224.928257 249.40645 
L 225.105612 248.905738 
L 225.229946 248.554685 
L 225.238044 248.531472 
L 226.004902 246.367084 
L 226.053894 246.228766 
L 226.101976 246.092785 
L 226.218337 245.763928 
L 226.238486 245.706985 
L 226.498531 244.973 
L 226.589089 244.717242 
L 226.814173 244.081621 
L 226.94367 243.715823 
L 227.001585 243.55239 
L 227.050217 243.415142 
L 227.072633 243.35192 
L 227.298133 242.715421 
L 227.342555 242.590096 
L 227.597081 241.871638 
L 227.801511 241.293792 
L 228.091358 240.475563 
L 228.316406 239.840136 
L 228.445867 239.474678 
L 228.502878 239.313777 
L 228.553412 239.171079 
L 228.57483 239.110583 
L 228.800246 238.474281 
L 229.150824 237.484639 
L 229.287352 237.099227 
L 229.384303 236.82556 
L 230.038201 237.685141 
L 230.75244 238.635775 
L 231.81244 240.043034 
L 231.828566 240.064398 
L 231.965575 240.246323 
L 232.403843 240.828181 
L 232.522738 240.986037 
L 232.537079 241.005075 
L 233.178149 241.856167 
L 233.596126 242.394403 
L 233.606945 242.393774 
L 233.954768 242.374934 
L 234.417716 242.34993 
L 234.439949 242.348723 
L 235.242333 242.30515 
L 244.859863 241.380531 
L 245.202841 241.345112 
L 245.260098 241.339142 
L 251.044853 240.741937 
L 254.774491 240.356896 
L 255.893498 240.254216 
L 256.065737 240.237704 
L 259.818102 239.88014 
L 260.252524 239.838638 
L 262.946539 239.578754 
L 263.144494 239.56032 
L 263.277248 239.547885 
L 263.651586 239.512998 
L 264.219168 239.459976 
L 264.802031 239.405601 
L 266.177438 239.27729 
L 266.339165 239.262181 
L 266.367081 239.259576 
L 267.662105 239.136598 
L 269.148163 238.995595 
L 269.588369 238.952098 
L 269.654667 238.945546 
L 270.415358 238.870309 
L 270.725504 238.84131 
L 271.059627 238.810134 
L 271.3568 238.782295 
L 271.360064 238.781884 
L 272.639852 238.659853 
L 275.399344 238.396524 
L 275.593246 238.377564 
L 276.682392 238.27367 
L 277.749888 238.155299 
L 278.91343 238.038698 
L 280.375401 237.892171 
L 280.863395 237.843139 
L 281.83728 237.745753 
L 281.969871 237.732414 
L 283.000345 237.629183 
L 284.061586 237.525946 
L 284.432042 237.485095 
L 292.762529 236.647825 
L 292.785156 236.645535 
L 293.798345 236.531004 
L 297.677274 236.119809 
L 298.403008 236.041529 
L 298.47892 236.151804 
L 299.816983 236.23179 
L 299.904584 236.237036 
L 300.213841 235.570888 
L 300.274002 235.441317 
L 300.292754 235.400972 
L 300.640403 234.624471 
L 300.685273 234.524112 
L 301.113771 233.56708 
L 301.114456 233.565423 
L 301.222236 233.324762 
L 301.417332 232.889086 
L 301.67478 232.313991 
L 302.403578 230.685462 
L 303.035341 229.262836 
L 303.163282 229.234936 
L 304.607263 230.086437 
L 305.386358 230.526494 
L 306.52634 231.063163 
L 307.022255 231.365443 
L 307.494839 231.653469 
L 309.266179 232.733051 
L 309.532818 232.863623 
L 310.441425 233.308595 
L 311.412363 233.774589 
L 312.242355 234.322991 
L 312.327071 234.380787 
L 312.897242 234.769352 
L 313.823699 235.3934 
L 314.284228 235.703191 
L 314.897947 236.152015 
L 315.03918 236.255343 
L 315.205466 236.376896 
L 315.597199 236.69372 
L 316.462663 237.393144 
L 316.904421 237.860848 
L 317.381412 237.261979 
L 317.551173 237.069391 
L 319.633781 235.556245 
L 319.683636 235.520041 
L 319.723166 235.56817 
L 319.852685 235.725593 
L 319.970559 235.868065 
L 320.286925 236.256524 
L 321.31235 237.490656 
L 321.705065 237.961869 
L 322.425727 238.838428 
L 323.360802 239.969606 
L 323.985481 240.771142 
L 325.55792 242.76075 
L 326.468483 243.912761 
L 326.577954 243.824593 
L 328.046869 245.65583 
L 328.03129 245.750901 
L 328.156616 245.886743 
L 328.6517 246.4232 
L 328.867971 246.289702 
L 328.985212 246.215509 
L 329.085405 246.152122 
L 331.779897 244.450634 
L 332.587797 243.940513 
L 333.309701 243.484727 
L 334.995122 242.419942 
L 335.600082 243.724448 
L 336.211291 245.041902 
L 337.579041 247.990616 
L 338.30505 249.555827 
L 339.652409 252.464062 
L 339.688544 252.542058 
L 340.060202 253.34444 
L 340.259434 253.456835 
L 340.488583 253.58606 
L 340.698988 253.704714 
L 341.004974 253.877277 
L 343.233174 255.097815 
L 343.56078 255.277292 
L 343.663841 255.333729 
L 343.9971 255.516317 
L 344.491645 255.787034 
L 344.600602 255.846673 
L 344.623163 255.859018 
L 344.821392 255.967624 
L 344.955007 256.040817 
L 345.248792 256.20173 
L 345.749432 256.476082 
L 345.841676 256.526626 
L 345.871497 256.542964 
L 346.068117 256.65069 
L 346.63926 256.963417 
L 347.412823 257.387221 
L 348.398436 257.92672 
L 348.810891 257.124916 
L 349.220232 256.303966 
L 349.503257 255.751631 
L 349.872506 255.025519 
L 350.154811 254.473152 
L 350.095742 253.864331 
L 350.225808 253.782094 
L 350.583528 253.556037 
L 351.131291 253.209826 
L 351.22942 253.254305 
L 351.566602 253.407318 
L 351.870911 253.545412 
L 353.040793 254.076818 
L 353.222806 254.159524 
L 354.029389 254.525942 
L 354.21038 254.608188 
L 355.368873 255.134401 
L 355.382537 255.140618 
L 355.555844 255.219365 
L 355.563917 255.22305 
L 355.738925 255.302533 
L 355.748942 255.307092 
L 355.878776 255.366083 
L 356.048436 255.443173 
L 356.958629 255.856471 
L 357.288663 256.00656 
L 358.238447 256.438449 
L 358.974269 256.77303 
L 359.928159 257.216858 
L 360.370995 256.212884 
L 360.605714 255.680598 
L 360.888692 255.03896 
L 361.247316 254.225953 
L 361.544334 253.552479 
L 361.927416 252.66439 
L 362.020335 252.686441 
L 362.113783 252.706259 
L 362.207616 252.723896 
L 362.259789 252.736413 
L 362.312142 252.748347 
L 362.364624 252.759602 
L 362.424505 252.772336 
L 362.484564 252.78439 
L 362.544704 252.795767 
L 362.582021 252.800402 
L 362.619424 252.804602 
L 362.65682 252.808464 
L 362.74626 252.816686 
L 362.835772 252.823845 
L 362.925404 252.82989 
L 362.969943 252.9205 
L 363.018433 252.903261 
L 363.258927 252.817929 
L 363.640784 252.682371 
L 363.871149 252.598372 
L 363.986689 252.556196 
L 364.311103 252.43793 
L 364.251128 252.330471 
L 364.306987 252.28473 
L 364.361511 252.237328 
L 364.414556 252.188365 
L 364.46617 252.137792 
L 364.515465 252.086884 
L 364.563238 252.03461 
L 364.609488 251.98092 
L 364.654169 251.925913 
L 364.715412 251.848912 
L 364.774744 251.770361 
L 364.832022 251.690357 
L 364.861773 251.63732 
L 364.889673 251.583309 
L 364.915673 251.528277 
L 364.939681 251.472421 
L 365.176502 250.912236 
L 365.471872 250.25744 
L 365.905922 249.274961 
L 366.24473 249.416662 
L 366.68648 249.618288 
L 367.279319 249.888779 
L 367.794254 250.123804 
L 368.817651 250.601822 
L 368.841089 250.612461 
L 368.950889 250.662388 
L 369.520647 250.921223 
L 370.715474 251.45415 
L 371.46518 251.81835 
L 371.797235 251.953158 
L 372.305469 252.141846 
L 372.804554 252.350338 
L 373.682763 252.531787 
L 374.077698 252.571495 
L 374.610805 252.625097 
L 374.965091 252.677779 
L 375.320245 252.723877 
L 375.676219 252.763391 
L 376.032865 252.796228 
L 376.390088 252.822439 
L 376.747698 252.842028 
L 377.105595 252.854948 
L 377.463683 252.861201 
L 377.821868 252.86079 
L 378.179907 252.853721 
L 378.537801 252.839992 
L 378.895406 252.819608 
L 379.252529 252.792571 
L 379.609076 252.758934 
L 379.964996 252.718648 
L 380.320049 252.671719 
L 380.674189 252.618196 
L 381.02732 252.55813 
L 381.379249 252.491524 
L 381.72988 252.418333 
L 381.81742 252.399036 
L 381.904853 252.379259 
L 381.992229 252.359096 
L 382.256172 252.295625 
L 382.519215 252.228455 
L 382.781312 252.157589 
L 383.042365 252.083029 
L 383.26842 252.015221 
L 383.493646 251.94468 
L 383.717993 251.871358 
L 383.941413 251.795305 
L 384.550524 251.540191 
L 385.134874 251.295373 
L 385.727484 251.034105 
L 386.785078 250.480568 
L 389.686497 248.472263 
L 390.571508 248.851528 
L 391.292335 249.18393 
L 391.801986 247.984324 
L 392.075954 247.340313 
L 392.394846 246.590022 
L 392.656887 245.973068 
L 392.691292 245.892364 
L 392.844146 245.532861 
L 392.893023 245.417996 
L 393.053575 245.040461 
L 393.202354 244.690559 
L 393.250269 244.577936 
L 393.403219 244.218335 
L 393.756562 243.386858 
L 394.109918 242.555864 
L 394.775941 240.988623 
L 395.039455 240.373515 
L 395.309247 239.743754 
L 396.468757 237.005713 
L 396.573044 236.759427 
L 397.263691 236.460805 
L 398.487273 233.57837 
L 397.957371 233.046582 
L 397.846226 232.755028 
L 397.82756 232.604848 
L 397.806629 232.436854 
L 397.783525 232.250803 
L 397.771748 232.21176 
L 397.755673 232.174307 
L 397.735406 232.138973 
L 397.711293 232.106137 
L 397.683586 232.076277 
L 397.674089 232.068133 
L 397.652677 232.049769 
L 397.573124 231.998204 
L 397.618493 231.898963 
L 397.620125 231.878746 
L 397.617426 231.858672 
L 397.610466 231.839657 
L 397.599598 231.822561 
L 397.585372 231.808194 
L 397.578109 231.804104 
L 397.568378 231.797219 
L 397.240053 231.628594 
L 396.913772 231.460987 
L 396.905157 231.456733 
L 396.897393 231.451737 
L 396.879546 231.445801 
L 396.860907 231.443311 
L 396.842104 231.444398 
L 396.823859 231.448996 
L 396.806844 231.456996 
L 396.804747 231.455786 
L 396.735086 231.416316 
L 396.703059 231.398186 
L 396.082034 231.327007 
L 395.138079 230.890009 
L 395.123191 230.900666 
L 394.965445 230.718278 
L 394.987512 230.699015 
L 394.181251 229.767231 
L 392.894341 228.52208 
L 387.440675 223.245133 
L 387.42834 223.258004 
L 386.33501 222.205014 
L 386.347346 222.192143 
L 384.611354 220.520161 
L 384.575709 220.530645 
L 384.462789 220.421877 
L 383.683261 219.671126 
L 382.537665 218.567781 
L 382.154877 218.232208 
L 379.64118 216.133634 
L 379.649298 216.123897 
L 378.685393 215.241676 
L 378.169173 214.740726 
L 377.831072 214.496396 
L 377.656869 214.525656 
L 376.844321 213.907746 
L 376.854782 213.883956 
L 376.883466 213.819211 
L 377.624764 212.545943 
L 378.313445 211.325974 
L 378.356043 211.250061 
L 378.339503 211.24014 
L 378.370568 211.187365 
L 378.46905 211.019799 
L 378.579836 210.8313 
L 378.666014 210.684668 
L 378.70684 210.615205 
L 378.70692 210.61507 
L 378.739887 210.55897 
L 378.833588 210.39962 
L 378.932163 210.23186 
L 378.946697 210.20716 
L 379.049456 210.028155 
L 379.842958 208.645749 
L 379.971466 208.421811 
L 380.260868 207.917656 
L 380.270934 207.900054 
L 380.288378 207.86969 
L 380.315565 207.82236 
L 380.871104 206.14351 
L 381.044853 205.827719 
L 381.170691 205.578348 
L 381.61642 204.727596 
L 381.812227 204.316741 
L 381.91331 204.104751 
L 382.108655 203.694775 
L 382.177779 203.549821 
L 383.642654 200.39113 
L 383.73728 200.185413 
L 384.116056 199.361767 
L 384.416977 198.686791 
L 384.439981 198.624151 
L 384.559582 198.298056 
L 385.398635 195.907351 
L 385.683452 195.096046 
L 385.847557 194.628531 
L 385.941646 194.360304 
L 386.058512 194.018965 
L 386.293373 193.330662 
L 386.298661 193.31471 
L 386.3096 193.281882 
L 386.491492 192.737502 
L 386.779811 191.874366 
L 386.78075 191.871014 
L 386.793194 191.834291 
L 386.818502 191.757985 
L 386.950718 191.362865 
L 387.236646 190.506976 
L 387.370777 190.10462 
L 387.523143 189.677146 
L 387.985451 188.377278 
L 388.189392 187.803449 
L 388.580916 186.647557 
L 388.624852 186.51764 
L 388.638238 186.484323 
L 388.689342 186.356277 
L 388.710896 186.302167 
L 388.861718 185.923056 
L 388.925017 185.764472 
L 389.096934 185.274676 
L 389.665755 183.652192 
L 389.762244 183.378797 
L 389.834321 183.17203 
L 389.040821 182.902101 
L 389.023011 182.895876 
L 388.476612 182.710158 
L 388.453735 182.778733 
L 387.86448 182.584441 
L 387.990247 182.286651 
L 388.155728 181.895053 
L 388.368146 181.40075 
L 387.131424 180.849288 
L 387.992956 178.91469 
L 388.620632 177.505226 
L 388.82989 177.035335 
L 388.864234 176.958108 
L 388.929023 176.812575 
L 388.963416 176.735396 
L 389.100888 176.426439 
L 389.22909 176.138493 
L 389.752919 174.961994 
L 390.249479 173.846828 
L 390.365251 173.587398 
L 391.796655 174.21366 
L 391.856533 174.238714 
L 391.917354 174.260608 
L 391.979217 174.279486 
L 392.041884 174.295499 
L 392.096785 174.306515 
L 392.152122 174.315397 
L 392.207792 174.321906 
L 392.263896 174.326233 
L 395.216834 174.436825 
L 395.290552 174.18778 
L 395.398022 173.825214 
L 396.867306 168.870196 
L 396.896385 168.772132 
L 396.95324 168.580281 
L 397.792872 165.748763 
L 397.765713 165.640242 
L 396.834023 164.986045 
L 396.666269 164.86828 
L 395.894062 164.326045 
L 395.759271 164.231412 
L 394.069001 163.044642 
L 393.944725 162.957408 
L 393.896059 162.923178 
L 393.212462 162.443181 
L 392.672457 162.039569 
L 389.721625 159.970807 
L 387.145225 158.123999 
L 385.893039 157.22618 
L 386.555033 157.103703 
L 387.070911 157.010541 
L 387.383555 156.50415 
L 387.779552 156.483907 
L 387.874254 156.48005 
L 388.534328 156.452926 
L 388.853755 156.439814 
L 389.073763 156.430757 
L 389.05115 155.756341 
L 389.047177 155.637899 
L 389.045088 155.575084 
L 389.039433 155.40584 
L 389.037295 155.342977 
L 389.0326 155.202391 
L 389.010339 154.539747 
L 388.874146 154.53384 
L 388.738124 154.524694 
L 388.602368 154.512259 
L 388.466974 154.496582 
L 388.202041 154.457568 
L 387.93774 154.414437 
L 387.674169 154.367186 
L 387.411327 154.315816 
L 387.303496 154.294081 
L 387.196315 154.269049 
L 387.08998 154.240812 
L 386.984539 154.209369 
L 386.862285 154.17559 
L 386.740613 154.139771 
L 386.61957 154.101862 
L 385.686974 153.703951 
L 385.520509 153.736753 
L 384.27539 153.142809 
L 383.380214 152.716328 
L 381.924788 151.978245 
L 381.639397 151.829414 
L 381.403123 151.7022 
L 381.15868 151.569226 
L 380.926275 151.429472 
L 380.691425 151.28586 
L 380.375548 151.095163 
L 380.0814 150.920309 
L 379.864843 150.782912 
L 379.713403 150.683004 
L 378.797557 150.093468 
L 373.09883 146.410153 
L 372.590449 146.081693 
L 372.178746 145.815521 
L 369.446753 144.049904 
L 369.402881 144.02156 
L 369.22557 143.90639 
L 367.098417 142.524735 
L 366.959019 142.434178 
L 366.094965 141.834912 
L 362.045697 139.027197 
L 361.110802 138.346029 
L 358.907028 136.738344 
L 357.603458 135.787439 
L 357.651482 135.719177 
L 357.006982 135.238956 
L 356.934224 135.290671 
L 356.29807 134.830933 
L 355.854942 134.510633 
L 355.771242 134.469553 
L 355.425239 134.299733 
L 355.171507 134.175198 
L 354.547312 133.63014 
L 354.546762 133.62966 
L 352.838394 132.137725 
L 352.122365 131.805768 
L 351.899049 131.702197 
L 350.976683 131.274554 
L 349.636341 130.653051 
L 349.448548 130.566032 
L 349.197881 130.449789 
L 348.931689 130.326356 
L 348.761317 130.247355 
L 346.797867 129.337018 
L 346.557951 129.225755 
L 346.155497 129.039183 
L 346.121676 129.023513 
L 345.973443 128.954745 
L 345.927261 128.933361 
L 345.69122 128.825296 
L 345.339613 128.664208 
L 345.235971 128.616763 
L 345.207069 128.603543 
L 345.171158 128.58705 
L 345.060703 128.536473 
L 344.527988 128.292472 
L 344.246207 128.16345 
L 342.379702 127.308611 
L 342.229053 127.239609 
L 341.418687 126.864235 
L 341.170946 126.747791 
L 340.879642 126.610871 
L 340.621145 126.489451 
L 340.575101 126.467823 
L 340.406305 126.388456 
L 340.238482 126.30955 
L 340.131988 126.259563 
L 339.938952 126.168805 
L 339.774731 126.091607 
L 339.748107 126.07911 
L 339.383073 125.918955 
L 339.266329 125.889182 
L 339.119552 125.851769 
L 338.584806 125.715443 
L 337.911616 125.543888 
L 337.783584 125.511228 
L 337.734902 125.49888 
L 337.709954 125.492478 
L 336.044435 125.068019 
L 335.390375 124.901311 
L 335.072981 124.796164 
L 334.987481 124.76778 
L 334.730936 124.682822 
L 334.474438 124.597768 
L 334.388939 124.569481 
L 334.157091 124.492621 
L 333.120229 124.149025 
L 332.820348 124.036445 
L 332.705962 123.993492 
L 332.564813 123.940508 
L 332.078319 123.757845 
L 332.006482 123.730898 
L 331.866886 123.67846 
L 331.831089 123.665008 
L 330.985696 123.347608 
L 330.430519 123.139139 
L 329.844399 122.919044 
L 329.173668 122.662872 
L 329.07053 122.634252 
L 328.573547 122.496149 
L 327.54588 122.214367 
L 326.938399 122.041631 
L 326.721863 121.980035 
L 326.642994 121.95759 
L 326.046811 121.79267 
L 325.965001 121.77005 
L 325.655041 121.685705 
L 324.865218 121.4709 
L 324.863193 121.477366 
L 324.521757 121.383387 
L 324.412663 121.353356 
L 324.063329 121.257283 
L 324.064489 121.253105 
L 323.695018 121.152601 
L 323.583218 121.122197 
L 323.218787 121.023079 
L 322.624009 120.856591 
L 322.494835 120.820392 
L 322.458048 120.81015 
L 322.15884 120.726343 
L 321.695126 120.596595 
L 320.773755 120.343147 
L 320.666938 120.313792 
L 320.696628 120.211842 
L 321.376264 117.878997 
L 321.679768 116.837291 
L 321.746808 116.607103 
L 321.786488 116.470943 
L 322.227554 115.441352 
L 322.302922 115.265488 
L 322.166508 114.852813 
L 322.082531 114.598641 
L 321.991281 114.322711 
L 322.170675 113.395812 
L 322.189789 113.296945 
L 322.31345 112.54282 
L 322.340159 112.379813 
L 322.355937 112.289132 
L 322.458688 111.698802 
L 322.46322 111.672727 
L 322.479641 111.578458 
L 322.543444 111.212143 
L 322.661933 110.53147 
L 322.684378 110.402306 
L 322.690624 110.366585 
L 322.696098 110.335178 
L 322.713885 110.232913 
L 322.84093 109.503192 
L 322.907079 109.123113 
L 322.927603 109.005144 
L 322.992344 108.633256 
L 323.157279 107.685965 
L 323.20432 107.415906 
L 323.221512 107.317226 
L 323.412194 105.911717 
L 323.462088 105.825784 
L 323.728082 105.367655 
L 323.782152 105.274485 
L 323.897304 105.07616 
L 324.26866 104.436628 
L 324.627204 103.819011 
L 324.994338 103.186672 
L 325.069341 103.057407 
L 325.285535 102.684873 
L 325.36142 102.554093 
L 325.800491 101.797386 
L 325.859994 101.694874 
L 325.940984 101.555242 
L 326.385902 100.788221 
L 326.433499 100.707264 
L 326.846084 100.005461 
L 326.86531 99.972833 
L 326.920663 99.878717 
L 327.183076 99.432404 
L 327.446514 98.984427 
L 327.501124 98.891584 
L 327.520672 98.858224 
L 327.840904 98.313686 
L 327.920358 98.178579 
L 329.146729 96.092841 
L 329.436883 95.606266 
L 329.698693 95.167224 
L 328.934359 94.671913 
L 327.91365 94.007014 
L 327.494181 93.733752 
L 327.276527 93.591937 
L 327.13659 93.500789 
L 327.036537 93.435602 
L 326.876559 93.331378 
L 326.746107 92.946813 
L 326.468755 92.128704 
L 326.417593 91.977849 
L 326.343967 91.760767 
L 326.261739 91.518384 
L 326.225668 91.411854 
L 326.144572 91.172777 
L 325.910034 90.481038 
L 325.878918 90.389462 
L 325.866963 90.354144 
L 325.711206 89.894822 
L 325.679054 89.799938 
L 325.663134 89.753072 
L 325.457293 89.145961 
L 325.210954 88.419528 
L 325.018614 87.852433 
L 324.82651 87.123353 
L 324.77289 86.920023 
L 324.762109 86.879114 
L 324.576791 86.175871 
L 324.465156 85.751349 
L 324.34772 85.374078 
L 324.281405 85.160987 
L 323.953565 84.107714 
L 323.907056 83.958254 
L 323.856812 83.796757 
L 323.805169 83.630801 
L 323.758192 83.479806 
L 323.652938 83.141662 
L 323.599743 82.970864 
L 323.544576 82.793641 
L 323.391665 82.302151 
L 323.341994 82.142621 
L 323.332508 82.112222 
L 323.124795 81.444852 
L 323.080669 81.303015 
L 322.856004 80.581368 
L 322.79435 80.383141 
L 322.595551 79.74435 
L 322.530738 79.536151 
L 322.488843 79.401604 
L 322.400168 79.111953 
L 322.308118 78.811273 
L 322.245095 78.605641 
L 322.125009 78.213366 
L 322.087159 78.089689 
L 321.855969 77.334584 
L 321.821546 77.22208 
L 321.709453 76.855892 
L 321.645332 76.646423 
L 321.412865 76.714285 
L 320.261251 72.857269 
L 320.448133 72.797705 
L 320.13641 71.773339 
L 320.110021 71.686584 
L 319.939275 71.735072 
L 319.741475 71.122574 
L 319.920164 71.062902 
L 319.914602 71.044437 
L 319.568487 69.907133 
L 319.341742 69.162071 
L 319.334573 69.138524 
L 319.191386 68.645228 
L 319.15447 68.518103 
L 319.082195 68.268983 
L 319.022068 68.061647 
L 318.978376 67.911353 
L 318.827098 67.389896 
L 318.722653 67.030106 
L 318.690115 66.918044 
L 318.577842 66.531053 
L 318.473603 66.171887 
L 318.444819 66.072729 
L 318.359616 65.779286 
L 318.328481 65.671875 
L 318.226901 65.321872 
L 318.193943 65.208274 
L 318.086154 64.836779 
L 317.78767 63.808501 
L 316.10887 62.661765 
L 315.07927 63.143149 
L 314.400758 63.457478 
L 313.9429 63.670308 
L 313.713066 63.77713 
L 312.877722 64.165671 
L 312.581979 64.303261 
L 312.28858 64.440076 
L 311.755818 64.688513 
L 310.604085 65.226264 
L 309.451893 65.762584 
L 309.205364 65.876926 
L 308.899409 66.018803 
L 308.297276 66.297997 
L 307.390494 66.719139 
L 306.840836 66.97221 
L 306.232463 67.252224 
L 305.57048 67.561287 
L 304.420813 68.101872 
L 304.256188 68.178672 
L 302.944557 68.78104 
L 302.126074 69.159154 
L 301.642312 69.382626 
L 300.819997 69.761603 
L 300.616291 69.855449 
L 300.413679 69.948691 
L 299.994482 70.141667 
L 299.786251 70.237884 
L 299.296008 70.46445 
L 299.112578 70.549205 
L 299.07781 70.565282 
L 298.598592 70.787019 
L 298.396232 70.880692 
L 298.212711 70.965642 
L 297.595762 71.251324 
L 296.239234 71.878626 
L 295.760259 72.100218 
L 295.184214 72.365974 
L 294.606683 72.634179 
L 294.056578 72.889753 
L 293.505981 73.140511 
L 292.956832 73.395632 
L 292.298061 73.700268 
L 291.978782 73.850913 
L 291.383497 74.130771 
L 290.444353 74.56081 
L 288.897198 75.085411 
L 288.325159 75.350805 
L 287.84831 75.572028 
L 286.687357 76.110682 
L 286.057945 76.40237 
L 285.424624 76.695836 
L 284.793789 76.992725 
L 284.516319 77.122943 
L 284.123944 77.307577 
L 283.493679 77.603974 
L 282.864656 77.899765 
L 281.246078 78.660266 
L 280.419668 79.391949 
L 280.280846 79.51483 
L 279.786103 80.027214 
L 279.51516 80.307782 
L 279.224298 80.609025 
L 278.742322 81.108186 
L 278.573485 81.283012 
L 278.172186 81.698635 
L 277.772745 82.111031 
L 277.373054 82.525172 
L 276.971803 82.940554 
L 276.764475 83.158824 
L 276.548537 83.386363 
L 276.137733 83.816204 
L 276.03787 83.92074 
L 275.954848 84.00694 
L 275.517537 84.468804 
L 274.589541 85.448911 
L 274.045796 86.016282 
L 273.907612 86.161023 
L 273.232387 86.875451 
L 272.551911 87.587535 
L 271.849799 88.320914 
L 271.689619 88.488165 
L 271.481603 88.705392 
L 271.125131 89.077539 
L 270.974486 89.190407 
L 270.228801 89.749313 
L 270.024879 90.044279 
L 269.933955 90.175703 
L 269.762566 90.423641 
L 269.126994 91.342676 
L 268.951267 91.596891 
L 268.538456 92.192826 
L 268.274695 92.574009 
L 268.001976 92.968283 
L 267.925056 93.079455 
L 267.82746 93.220541 
L 264.299833 98.320007 
L 263.887242 99.05229 
L 263.832002 99.122278 
L 263.775732 99.19142 
L 263.718333 99.259621 
L 263.599876 99.404748 
L 263.476949 99.546065 
L 263.349747 99.683566 
L 263.218311 99.817011 
L 263.082832 99.946297 
L 262.943404 100.071327 
L 262.800218 100.191998 
L 262.653318 100.308119 
L 262.128158 100.696129 
L 261.763053 100.965885 
L 260.785826 99.765162 
L 260.724753 99.69015 
L 259.481626 98.163024 
L 259.399452 98.062124 
L 257.904775 96.225997 
L 257.859105 96.169905 
L 257.719073 95.997929 
L 257.673451 95.941836 
L 257.299865 95.482949 
L 253.97029 90.703227 
L 253.069133 89.409626 
L 252.215456 88.280905 
L 251.258807 87.016029 
L 251.18027 86.912202 
L 249.93393 85.264351 
L 248.540146 83.437655 
L 248.422614 83.283575 
L 248.337346 83.171885 
L 248.30151 83.124892 
L 248.038686 82.753866 
L 246.96749 81.241736 
L 245.600198 79.311664 
L 245.291295 78.87558 
L 244.807219 78.192276 
L 244.160632 77.279563 
L 243.931297 76.955839 
L 243.912442 76.929226 
L 239.239797 69.527253 
L 237.921624 67.439227 
L 237.099094 66.136337 
L 236.908711 65.73574 
L 236.643595 65.178077 
L 236.529626 64.938659 
L 236.351099 64.561887 
L 236.120643 64.200768 
L 235.978533 64.219319 
L 235.587034 64.270373 
L 235.476011 64.257035 
L 235.301747 64.427476 
L 229.931803 69.690111 
L 229.255902 70.352531 
L 228.566562 71.026559 
L 225.768932 73.762179 
L 225.078192 74.437518 
L 224.412402 75.088469 
L 224.541492 75.219971 
L 224.34168 75.414895 
L 224.248799 75.505536 
L 224.074257 75.67575 
L 223.766712 75.975748 
L 223.686327 76.054231 
L 223.562471 76.17507 
L 223.422112 76.311973 
L 223.259407 76.470719 
L 223.177936 76.550192 
L 223.007781 76.716204 
L 222.925698 76.79627 
L 222.661673 77.053815 
L 222.580014 77.133485 
L 222.456441 77.254029 
L 222.336641 77.370915 
L 222.31651 77.390585 
L 221.399595 78.285004 
L 220.486036 79.176164 
L 219.245372 80.748128 
L 218.302709 79.793174 
L 218.178711 79.667499 
L 218.170034 79.658715 
L 218.044115 79.531152 
L 218.039135 79.526098 
L 218.033712 79.52062 
L 218.015766 79.502437 
L 217.811356 79.295342 
L 217.512036 78.992042 
L 217.322414 78.79987 
L 217.288544 78.765583 
L 216.645706 78.115566 
L 216.621992 78.091575 
L 216.479513 77.947585 
L 214.864103 76.168867 
L 214.202168 75.430886 
L 214.135155 75.356213 
L 202.703183 84.145759 
L 202.568166 84.249578 
L 200.258195 86.02522 
L 200.162675 86.098646 
L 199.838181 86.348028 
L 197.474441 82.959906 
L 197.270022 83.118119 
L 197.00073 83.32647 
L 196.748345 83.521837 
L 196.429503 83.767619 
L 196.167296 83.971755 
L 195.903642 84.175828 
L 195.639556 84.379958 
L 195.375904 84.584031 
L 195.112252 84.788153 
L 194.848613 84.992757 
L 194.58501 85.196878 
L 194.320878 85.400963 
L 194.057228 85.605086 
L 193.614499 85.947829 
L 193.379077 86.164492 
L 192.554997 86.595936 
L 192.471718 86.63954 
L 192.450368 86.611539 
L 192.32302 86.677009 
L 190.626502 87.549211 
L 190.971398 88.055565 
L 191.759938 89.171205 
L 192.817623 90.699914 
L 192.804464 90.767854 
L 194.169433 92.724269 
L 194.782909 93.662548 
L 196.701993 96.727682 
L 197.300633 97.690492 
L 198.484771 99.582955 
L 199.226343 100.763994 
L 199.503509 100.984488 
L 200.637175 102.800181 
L 200.899659 103.220022 
L 201.072591 103.505548 
L 201.306065 103.899444 
L 201.553167 104.325138 
L 201.712641 104.622797 
L 201.796194 104.765665 
L 201.99377 104.974528 
L 202.333657 105.389721 
L 203.577926 107.696544 
L 204.222433 109.0917 
L 204.254772 109.177825 
L 204.383491 109.440696 
L 205.130457 111.06055 
L 206.042264 113.10816 
L 206.158072 113.381898 
L 206.63103 114.498018 
L 207.328958 116.072301 
L 207.452141 116.322795 
L 207.570394 116.544817 
L 207.70707 116.797709 
L 207.842296 117.041816 
L 208.023465 117.36456 
L 208.036548 117.387198 
L 208.221135 117.709834 
L 208.308192 117.860045 
L 208.335964 117.908229 
L 208.435736 118.079686 
L 208.572304 118.306461 
L 208.824682 118.734602 
L 209.848463 120.417976 
L 211.283309 122.760072 
L 211.429503 122.993149 
L 211.564088 123.196313 
L 211.656024 123.330145 
L 211.747007 123.453811 
L 212.209122 124.100851 
L 213.837783 126.23841 
L 214.344343 126.91308 
L 214.630986 127.302118 
L 214.98349 127.818096 
L 215.2576 128.337486 
L 215.388807 128.540681 
L 215.474893 128.736632 
L 215.617966 129.004067 
L 215.731251 129.196417 
L 215.76048 129.243072 
L 215.804001 129.321269 
L 215.8547 129.416637 
L 215.91395 129.525958 
L 216.013859 129.725418 
L 216.039294 129.791905 
L 216.055972 129.826677 
L 216.070771 129.876201 
L 216.293529 130.469978 
L 216.576813 131.225094 
L 216.677369 131.571264 
L 216.727675 131.756298 
L 216.773144 131.9426 
L 216.813773 132.130025 
L 216.849511 132.31843 
L 216.880356 132.507717 
L 216.927351 132.888363 
L 216.957278 133.302562 
L 216.965383 133.525967 
L 216.967757 133.749452 
L 216.9644 133.972971 
L 216.940475 134.419335 
L 216.919901 134.641938 
L 216.893678 134.863897 
L 216.861705 135.085117 
L 216.824077 135.305451 
L 216.743572 135.47403 
L 216.660046 135.641084 
L 216.573548 135.806661 
L 216.484077 135.970615 
L 216.391678 136.132945 
L 216.314033 136.261581 
L 216.232185 136.387559 
L 216.146228 136.510733 
L 216.056208 136.631005 
L 215.962265 136.74818 
L 215.864493 136.862158 
L 215.762987 136.972841 
L 215.657839 137.080082 
L 215.549238 137.183731 
L 215.437232 137.28374 
L 215.357076 137.305008 
L 215.322551 137.318341 
L 213.579218 137.306166 
L 213.463165 137.305457 
L 212.976432 137.309987 
L 212.495551 137.307 
L 212.047991 137.30997 
L 211.738841 137.303199 
L 211.646988 137.30122 
L 211.032875 137.311144 
L 210.591888 137.306485 
L 209.640297 137.30087 
L 209.501563 137.300434 
L 209.480006 137.337808 
L 209.396679 137.338003 
L 209.370844 137.303004 
L 207.882899 137.293014 
L 207.801743 137.376782 
L 207.799597 138.879421 
L 207.799046 138.976913 
L 207.792244 140.493127 
L 207.795913 140.675352 
L 207.795477 140.80572 
L 207.768391 143.271495 
L 207.767658 143.326648 
L 207.781163 143.33175 
L 207.768377 144.053835 
L 208.761817 145.012425 
L 208.853311 145.013543 
L 208.917765 145.078084 
L 208.916885 145.1695 
L 209.123567 145.380675 
L 209.702846 145.97687 
L 209.894295 146.173912 
L 210.139752 146.422199 
L 210.1179 146.448571 
L 210.150549 147.07104 
L 210.152435 148.177831 
L 210.144141 148.436369 
L 210.154909 148.563828 
L 210.138555 148.639757 
L 210.141968 149.962087 
L 210.147146 151.942829 
L 210.170751 152.84833 
L 210.16604 153.026399 
L 210.064952 153.163823 
L 210.06452 153.168178 
L 209.934136 154.019852 
L 209.921201 157.250267 
L 209.70675 157.268442 
L 209.492777 157.29071 
L 209.279235 157.31717 
L 209.066315 157.347719 
L 208.853971 157.382456 
L 208.642345 157.421232 
L 208.505096 157.449596 
L 208.323668 157.488647 
L 208.164813 157.524588 
L 207.805846 157.618649 
L 207.585408 157.683214 
L 207.38825 157.744812 
L 207.148122 157.824141 
L 206.931465 157.900451 
L 206.867596 157.923815 
L 206.80383 157.947467 
L 206.645523 158.008662 
L 206.457824 158.084544 
L 206.252294 158.175811 
L 206.048332 158.27047 
L 205.845941 158.368522 
L 205.645215 158.469964 
L 205.446201 158.574699 
L 205.207934 158.70509 
L 204.945196 158.854576 
L 204.766491 158.962811 
L 204.603342 159.066582 
L 204.416423 159.190943 
L 204.245204 159.31079 
L 204.076719 159.434388 
L 203.952855 159.533319 
L 203.831219 159.634904 
L 203.711762 159.739143 
L 203.594627 159.845984 
L 203.544446 159.893229 
L 203.393738 160.040517 
L 203.274225 160.163635 
L 203.157664 160.289535 
L 203.044056 160.418169 
L 202.933541 160.549436 
L 202.826166 160.683287 
L 202.693289 160.860927 
L 202.564476 161.041517 
L 202.439677 161.224962 
L 202.319084 161.411208 
L 202.202643 161.600063 
L 202.090501 161.791574 
L 201.963688 162.017937 
L 201.76431 162.358163 
L 201.726268 162.423078 
L 201.328915 162.998404 
L 200.950727 163.545984 
L 200.551639 164.109528 
L 200.418634 164.298422 
L 200.290552 164.492032 
L 200.167338 164.687947 
L 200.046585 164.886219 
L 199.933108 165.086741 
L 199.824554 165.29198 
L 199.716 165.497218 
L 199.597709 165.69785 
L 199.476958 165.896122 
L 199.348877 166.089733 
L 199.220742 166.280932 
L 199.080465 166.467577 
L 198.823216 166.806544 
L 198.774087 166.870422 
L 198.542281 167.162945 
L 198.242963 167.558389 
L 197.912573 167.964193 
L 197.816558 168.084657 
L 197.71573 168.20523 
L 197.614902 168.325803 
L 197.509151 168.44166 
L 197.257604 168.712906 
L 196.930235 169.03898 
L 196.637664 169.306329 
L 196.432188 169.484798 
L 196.221734 169.656138 
L 195.994705 169.839924 
L 195.767405 170.011646 
L 195.385783 170.281016 
L 195.260017 170.363531 
L 195.134252 170.446046 
L 195.006079 170.528616 
L 194.877852 170.608773 
L 194.744812 170.689039 
L 194.609419 170.771773 
L 194.474027 170.854507 
L 194.33858 170.934828 
L 194.186503 171.025183 
L 194.034426 171.115538 
L 193.88235 171.205892 
L 193.727757 171.291476 
L 193.558997 171.389452 
L 193.39029 171.48984 
L 193.22153 171.587816 
L 193.052879 171.690618 
L 192.572638 171.964643 
L 192.344252 172.088113 
L 192.11346 172.211637 
L 191.980203 172.282254 
L 191.842133 172.35298 
L 191.708877 172.423597 
L 191.570807 172.494323 
L 191.392203 172.582867 
L 191.213545 172.668999 
L 191.034941 172.757544 
L 190.856228 172.841263 
L 190.672702 172.925092 
L 190.491528 173.006453 
L 190.100517 173.179483 
L 189.883568 173.276141 
L 189.652015 173.365888 
L 189.206995 173.812932 
L 189.108035 173.909326 
L 188.721496 174.280208 
L 188.686103 174.312394 
L 188.653062 174.342112 
L 188.61756 174.369473 
L 188.579596 174.394475 
L 188.541632 174.419477 
L 188.498746 174.439764 
L 188.441528 174.465203 
L 186.504553 175.276856 
L 186.461613 175.29473 
L 186.416211 175.310245 
L 186.370701 175.320935 
L 186.322728 175.329267 
L 186.274702 175.335186 
L 186.228918 175.333812 
L 185.981074 175.341856 
L 185.249466 175.360891 
L 185.136956 175.374842 
L 185.033654 175.4011 
L 184.468013 175.624879 
L 183.165861 176.183146 
L 182.648065 176.392866 
L 182.204444 176.581589 
L 181.763395 176.777497 
L 181.322236 176.96858 
L 180.886111 177.169205 
L 180.445118 177.367528 
L 180.019167 177.592064 
L 179.586651 177.845719 
L 179.126184 178.141048 
L 178.737703 178.425085 
L 178.35666 178.71861 
L 178.194747 178.852652 
L 177.983167 179.026448 
L 177.859863 179.141239 
L 177.626849 179.34838 
L 176.957429 179.986433 
L 175.913099 181.082033 
L 175.591302 181.439393 
L 175.255064 181.797082 
L 174.38584 182.75593 
L 173.764682 183.397723 
L 173.356523 183.769122 
L 172.911718 184.117217 
L 172.549344 184.383772 
L 172.179314 184.631189 
L 172.072489 184.698801 
L 171.892206 184.818781 
L 171.706891 184.92922 
L 171.52163 185.042071 
L 171.336206 185.147685 
L 171.148375 185.253353 
L 170.958028 185.354251 
L 170.765275 185.455204 
L 170.572303 185.546506 
L 170.37698 185.640275 
L 170.17914 185.729274 
L 169.983653 185.815806 
L 169.783243 185.897621 
L 169.580317 185.974666 
L 169.379797 186.051657 
L 169.141045 186.141589 
L 168.873523 186.237005 
L 168.605945 186.330009 
L 168.335962 186.423068 
L 167.805403 186.599316 
L 167.217523 186.796184 
L 166.679692 186.970186 
L 166.500451 187.029795 
L 166.31864 187.082222 
L 166.13918 187.13218 
L 165.85443 187.211094 
L 165.56711 187.282825 
L 165.296636 187.354172 
L 165.021294 187.423217 
L 164.810549 187.47389 
L 164.592638 187.527141 
L 164.319485 187.58648 
L 164.264351 187.597394 
L 164.04376 187.638636 
L 163.782421 187.68805 
L 163.7321 187.698854 
L 163.422628 187.749367 
L 163.139574 187.796863 
L 162.854114 187.844415 
L 162.664482 187.870468 
L 162.477311 187.898879 
L 162.287569 187.920106 
L 162.097773 187.938921 
L 161.907922 187.955324 
L 161.718016 187.969314 
L 161.527945 187.976065 
L 161.340337 187.985175 
L 161.150211 187.989514 
L 160.959977 187.989028 
L 160.772094 187.986074 
L 160.584211 187.98312 
L 160.299789 187.9703 
L 160.01285 187.95271 
L 159.824803 187.942518 
L 159.634294 187.929969 
L 159.446082 187.912539 
L 159.303706 187.898891 
L 159.166034 187.880308 
L 159.028198 187.854487 
L 158.8879 187.826308 
L 158.333653 187.701363 
L 157.602679 187.534588 
L 157.551865 187.523679 
L 156.661173 187.32193 
L 156.477226 187.280265 
L 156.293114 187.231362 
L 156.111409 187.182404 
L 155.842132 187.094408 
L 155.57269 186.999174 
L 155.337105 186.910409 
L 155.101356 186.814405 
L 155.101301 186.811993 
L 155.107698 186.775636 
L 155.0565 186.747837 
L 154.478004 186.403778 
L 153.901913 186.059665 
L 153.867726 186.038719 
L 153.149899 185.497482 
L 153.032349 185.410849 
L 152.177 184.752056 
L 152.118252 184.709947 
L 151.576607 184.29263 
L 150.858659 183.746575 
L 149.667753 182.733358 
L 149.396592 182.457117 
L 148.552642 181.665304 
L 147.055317 180.309074 
L 146.6963 179.981737 
L 146.227477 179.590931 
L 145.945502 179.368855 
L 144.70621 178.453332 
L 144.243147 178.104241 
L 143.699616 177.711126 
L 142.825112 176.953829 
L 142.392562 176.570247 
L 141.971769 176.174325 
L 141.562788 175.768478 
L 141.160807 175.352814 
L 140.970536 175.139909 
L 140.720632 174.846293 
L 140.614336 174.725612 
L 140.420791 174.580375 
L 140.028421 174.075483 
L 139.172134 173.974383 
L 139.527525 174.479754 
L 138.871542 174.402232 
L 134.64623 173.902833 
L 133.663237 173.786705 
L 133.457643 173.762417 
L 132.985874 174.391717 
L 131.609795 176.22745 
L 130.9674 177.084356 
L 130.352068 177.051067 
L 130.328419 177.538088 
L 130.312543 177.865652 
L 130.308763 177.94265 
L 130.270962 178.720984 
L 130.191545 180.357211 
L 130.572377 180.379852 
L 130.547387 180.789171 
L 130.499982 181.566567 
L 130.490459 181.723168 
L 130.711424 181.736298 
L 130.632312 183.061251 
L 130.020377 183.022091 
L 129.96636 183.986486 
L 129.879662 183.996491 
L 126.860597 184.346616 
L 125.682196 184.483283 
L 125.634021 184.48888 
L 125.040546 184.5577 
L 124.139512 184.808994 
L 123.898843 184.917604 
L 122.580012 187.91579 
L 122.425372 188.252483 
L 122.032575 189.062155 
L 121.890704 189.350708 
L 121.832838 189.433952 
L 121.753118 189.548636 
L 121.505783 189.904552 
L 121.467224 189.959948 
L 121.285237 190.221398 
L 121.463631 190.346036 
L 123.872998 192.028958 
L 124.070173 192.166759 
L 124.365814 192.373367 
L 124.74509 192.638404 
L 124.484087 192.899952 
L 123.782999 193.602618 
L 123.50524 193.881016 
L 122.932768 193.940669 
L 120.688381 194.174577 
L 120.233566 194.22197 
L 120.177035 193.674944 
L 119.99899 193.693475 
L 119.564542 193.738664 
L 119.580177 193.889471 
L 119.59954 194.076984 
L 119.695629 195.005823 
L 119.531133 195.02298 
L 119.079298 195.070018 
L 118.458164 195.134759 
L 118.430875 195.13756 
L 118.160399 195.16575 
L 117.736478 195.209927 
L 117.666373 195.382937 
L 117.661125 195.395611 
L 117.65578 195.408239 
L 117.650241 195.420823 
L 117.629983 195.463583 
L 117.608019 195.505465 
L 117.584299 195.546374 
L 117.548487 195.601755 
L 117.509494 195.654989 
L 117.467511 195.705877 
L 117.422677 195.754224 
L 117.375132 195.799881 
L 117.325019 195.842749 
L 117.281897 195.875414 
L 117.236782 195.905227 
L 117.189868 195.932137 
L 117.141343 195.955994 
L 117.091397 195.976697 
L 117.039648 195.994351 
L 116.986859 196.00865 
L 116.933268 196.019491 
L 116.879069 196.02687 
L 116.77794 196.037357 
L 116.507175 196.065507 
L 116.364395 196.080381 
L 113.636298 196.364451 
L 112.839864 196.447391 
L 111.396358 196.597718 
L 111.119302 196.626551 
L 104.975334 197.266471 
L 104.680792 197.297115 
L 103.920107 197.376363 
L 103.829654 197.306414 
L 103.544075 197.085502 
L 102.69812 196.431065 
L 102.679737 196.419032 
L 102.659785 196.409981 
L 102.638653 196.404047 
L 102.616872 196.401363 
L 102.594977 196.402062 
L 102.573493 196.405985 
L 102.552805 196.413077 
L 102.533438 196.423228 
L 102.515869 196.436187 
L 102.500381 196.451656 
L 101.778769 197.297435 
L 101.563713 197.549548 
L 101.381717 197.762901 
L 101.279783 197.885087 
L 101.180696 198.009621 
L 101.0846 198.136452 
L 100.991492 198.265531 
L 100.90142 198.396761 
L 100.814429 198.530045 
L 100.769715 198.60234 
L 100.725928 198.675192 
L 100.68302 198.748556 
L 100.668365 198.773034 
L 100.653809 198.797607 
L 100.639397 198.822225 
L 100.618872 198.859489 
L 100.59859 198.896892 
L 100.578505 198.934436 
L 100.509175 199.065091 
L 100.442721 199.197273 
L 100.379189 199.330836 
L 100.318529 199.465781 
L 100.262773 199.598247 
L 100.209836 199.731856 
L 100.159717 199.866558 
L 100.112464 200.002304 
L 100.068073 200.138998 
L 100.04232 200.223312 
L 100.017632 200.30789 
L 99.99406 200.39283 
L 99.981475 200.440339 
L 99.96923 200.487985 
L 99.957371 200.535671 
L 99.949888 200.566309 
L 99.942551 200.596992 
L 99.935358 200.627671 
L 99.929701 200.651846 
L 99.924142 200.676066 
L 99.918679 200.700333 
L 99.911836 200.731536 
L 99.905137 200.762783 
L 99.898584 200.794076 
L 99.875932 200.90859 
L 99.855264 201.023493 
L 99.836576 201.138688 
L 99.819823 201.254225 
L 99.802709 201.39391 
L 99.788444 201.533916 
L 99.777074 201.674194 
L 99.768647 201.814693 
L 99.762545 201.955766 
L 99.759334 202.096917 
L 99.759061 202.238145 
L 99.761725 202.379305 
L 99.767561 202.520199 
L 99.776284 202.660978 
L 99.787939 202.801544 
L 99.802476 202.941803 
L 100.122157 204.780108 
L 100.130083 204.825406 
L 98.997599 204.953953 
L 98.347622 205.027864 
L 97.762965 205.094377 
L 96.887062 205.194076 
L 96.490003 205.23912 
L 96.2257 205.269173 
L 95.289424 205.37568 
L 95.11575 205.395315 
L 94.809759 205.430215 
L 94.689581 205.443469 
L 93.341919 205.583293 
" clip-path="url(#p4a21991133)" style="fill: #1f77b4"/>
   </g>
   <g id="matplotlib.axis_1">
    <g id="xtick_1">
     <g id="line2d_1">
      <defs>
       <path id="m08fd5e71f7" d="M 0 0 
L 0 3.5 
" style="stroke: #000000; stroke-width: 0.8"/>
      </defs>
      <g>
       <use xlink:href="#m08fd5e71f7" x="106.366143" y="297.580858" style="stroke: #000000; stroke-width: 0.8"/>
      </g>
     </g>
     <g id="text_1">
      <!-- 13.34 -->
      <g transform="translate(92.052081 312.179296) scale(0.1 -0.1)">
       <defs>
        <path id="DejaVuSans-31" d="M 794 531 
L 1825 531 
L 1825 4091 
L 703 3866 
L 703 4441 
L 1819 4666 
L 2450 4666 
L 2450 531 
L 3481 531 
L 3481 0 
L 794 0 
L 794 531 
z
" transform="scale(0.015625)"/>
        <path id="DejaVuSans-33" d="M 2597 2516 
Q 3050 2419 3304 2112 
Q 3559 1806 3559 1356 
Q 3559 666 3084 287 
Q 2609 -91 1734 -91 
Q 1441 -91 1130 -33 
Q 819 25 488 141 
L 488 750 
Q 750 597 1062 519 
Q 1375 441 1716 441 
Q 2309 441 2620 675 
Q 2931 909 2931 1356 
Q 2931 1769 2642 2001 
Q 2353 2234 1838 2234 
L 1294 2234 
L 1294 2753 
L 1863 2753 
Q 2328 2753 2575 2939 
Q 2822 3125 2822 3475 
Q 2822 3834 2567 4026 
Q 2313 4219 1838 4219 
Q 1578 4219 1281 4162 
Q 984 4106 628 3988 
L 628 4550 
Q 988 4650 1302 4700 
Q 1616 4750 1894 4750 
Q 2613 4750 3031 4423 
Q 3450 4097 3450 3541 
Q 3450 3153 3228 2886 
Q 3006 2619 2597 2516 
z
" transform="scale(0.015625)"/>
        <path id="DejaVuSans-2e" d="M 684 794 
L 1344 794 
L 1344 0 
L 684 0 
L 684 794 
z
" transform="scale(0.015625)"/>
        <path id="DejaVuSans-34" d="M 2419 4116 
L 825 1625 
L 2419 1625 
L 2419 4116 
z
M 2253 4666 
L 3047 4666 
L 3047 1625 
L 3713 1625 
L 3713 1100 
L 3047 1100 
L 3047 0 
L 2419 0 
L 2419 1100 
L 313 1100 
L 313 1709 
L 2253 4666 
z
" transform="scale(0.015625)"/>
       </defs>
       <use xlink:href="#DejaVuSans-31"/>
       <use xlink:href="#DejaVuSans-33" x="63.623047"/>
       <use xlink:href="#DejaVuSans-2e" x="127.246094"/>
       <use xlink:href="#DejaVuSans-33" x="159.033203"/>
       <use xlink:href="#DejaVuSans-34" x="222.65625"/>
      </g>
     </g>
    </g>
    <g id="xtick_2">
     <g id="line2d_2">
      <g>
       <use xlink:href="#m08fd5e71f7" x="171.715959" y="297.580858" style="stroke: #000000; stroke-width: 0.8"/>
      </g>
     </g>
     <g id="text_2">
      <!-- 13.36 -->
      <g transform="translate(157.401897 312.179296) scale(0.1 -0.1)">
       <defs>
        <path id="DejaVuSans-36" d="M 2113 2584 
Q 1688 2584 1439 2293 
Q 1191 2003 1191 1497 
Q 1191 994 1439 701 
Q 1688 409 2113 409 
Q 2538 409 2786 701 
Q 3034 994 3034 1497 
Q 3034 2003 2786 2293 
Q 2538 2584 2113 2584 
z
M 3366 4563 
L 3366 3988 
Q 3128 4100 2886 4159 
Q 2644 4219 2406 4219 
Q 1781 4219 1451 3797 
Q 1122 3375 1075 2522 
Q 1259 2794 1537 2939 
Q 1816 3084 2150 3084 
Q 2853 3084 3261 2657 
Q 3669 2231 3669 1497 
Q 3669 778 3244 343 
Q 2819 -91 2113 -91 
Q 1303 -91 875 529 
Q 447 1150 447 2328 
Q 447 3434 972 4092 
Q 1497 4750 2381 4750 
Q 2619 4750 2861 4703 
Q 3103 4656 3366 4563 
z
" transform="scale(0.015625)"/>
       </defs>
       <use xlink:href="#DejaVuSans-31"/>
       <use xlink:href="#DejaVuSans-33" x="63.623047"/>
       <use xlink:href="#DejaVuSans-2e" x="127.246094"/>
       <use xlink:href="#DejaVuSans-33" x="159.033203"/>
       <use xlink:href="#DejaVuSans-36" x="222.65625"/>
      </g>
     </g>
    </g>
    <g id="xtick_3">
     <g id="line2d_3">
      <g>
       <use xlink:href="#m08fd5e71f7" x="237.065775" y="297.580858" style="stroke: #000000; stroke-width: 0.8"/>
      </g>
     </g>
     <g id="text_3">
      <!-- 13.38 -->
      <g transform="translate(222.751713 312.179296) scale(0.1 -0.1)">
       <defs>
        <path id="DejaVuSans-38" d="M 2034 2216 
Q 1584 2216 1326 1975 
Q 1069 1734 1069 1313 
Q 1069 891 1326 650 
Q 1584 409 2034 409 
Q 2484 409 2743 651 
Q 3003 894 3003 1313 
Q 3003 1734 2745 1975 
Q 2488 2216 2034 2216 
z
M 1403 2484 
Q 997 2584 770 2862 
Q 544 3141 544 3541 
Q 544 4100 942 4425 
Q 1341 4750 2034 4750 
Q 2731 4750 3128 4425 
Q 3525 4100 3525 3541 
Q 3525 3141 3298 2862 
Q 3072 2584 2669 2484 
Q 3125 2378 3379 2068 
Q 3634 1759 3634 1313 
Q 3634 634 3220 271 
Q 2806 -91 2034 -91 
Q 1263 -91 848 271 
Q 434 634 434 1313 
Q 434 1759 690 2068 
Q 947 2378 1403 2484 
z
M 1172 3481 
Q 1172 3119 1398 2916 
Q 1625 2713 2034 2713 
Q 2441 2713 2670 2916 
Q 2900 3119 2900 3481 
Q 2900 3844 2670 4047 
Q 2441 4250 2034 4250 
Q 1625 4250 1398 4047 
Q 1172 3844 1172 3481 
z
" transform="scale(0.015625)"/>
       </defs>
       <use xlink:href="#DejaVuSans-31"/>
       <use xlink:href="#DejaVuSans-33" x="63.623047"/>
       <use xlink:href="#DejaVuSans-2e" x="127.246094"/>
       <use xlink:href="#DejaVuSans-33" x="159.033203"/>
       <use xlink:href="#DejaVuSans-38" x="222.65625"/>
      </g>
     </g>
    </g>
    <g id="xtick_4">
     <g id="line2d_4">
      <g>
       <use xlink:href="#m08fd5e71f7" x="302.415591" y="297.580858" style="stroke: #000000; stroke-width: 0.8"/>
      </g>
     </g>
     <g id="text_4">
      <!-- 13.40 -->
      <g transform="translate(288.101529 312.179296) scale(0.1 -0.1)">
       <defs>
        <path id="DejaVuSans-30" d="M 2034 4250 
Q 1547 4250 1301 3770 
Q 1056 3291 1056 2328 
Q 1056 1369 1301 889 
Q 1547 409 2034 409 
Q 2525 409 2770 889 
Q 3016 1369 3016 2328 
Q 3016 3291 2770 3770 
Q 2525 4250 2034 4250 
z
M 2034 4750 
Q 2819 4750 3233 4129 
Q 3647 3509 3647 2328 
Q 3647 1150 3233 529 
Q 2819 -91 2034 -91 
Q 1250 -91 836 529 
Q 422 1150 422 2328 
Q 422 3509 836 4129 
Q 1250 4750 2034 4750 
z
" transform="scale(0.015625)"/>
       </defs>
       <use xlink:href="#DejaVuSans-31"/>
       <use xlink:href="#DejaVuSans-33" x="63.623047"/>
       <use xlink:href="#DejaVuSans-2e" x="127.246094"/>
       <use xlink:href="#DejaVuSans-34" x="159.033203"/>
       <use xlink:href="#DejaVuSans-30" x="222.65625"/>
      </g>
     </g>
    </g>
    <g id="xtick_5">
     <g id="line2d_5">
      <g>
       <use xlink:href="#m08fd5e71f7" x="367.765407" y="297.580858" style="stroke: #000000; stroke-width: 0.8"/>
      </g>
     </g>
     <g id="text_5">
      <!-- 13.42 -->
      <g transform="translate(353.451345 312.179296) scale(0.1 -0.1)">
       <defs>
        <path id="DejaVuSans-32" d="M 1228 531 
L 3431 531 
L 3431 0 
L 469 0 
L 469 531 
Q 828 903 1448 1529 
Q 2069 2156 2228 2338 
Q 2531 2678 2651 2914 
Q 2772 3150 2772 3378 
Q 2772 3750 2511 3984 
Q 2250 4219 1831 4219 
Q 1534 4219 1204 4116 
Q 875 4013 500 3803 
L 500 4441 
Q 881 4594 1212 4672 
Q 1544 4750 1819 4750 
Q 2544 4750 2975 4387 
Q 3406 4025 3406 3419 
Q 3406 3131 3298 2873 
Q 3191 2616 2906 2266 
Q 2828 2175 2409 1742 
Q 1991 1309 1228 531 
z
" transform="scale(0.015625)"/>
       </defs>
       <use xlink:href="#DejaVuSans-31"/>
       <use xlink:href="#DejaVuSans-33" x="63.623047"/>
       <use xlink:href="#DejaVuSans-2e" x="127.246094"/>
       <use xlink:href="#DejaVuSans-34" x="159.033203"/>
       <use xlink:href="#DejaVuSans-32" x="222.65625"/>
      </g>
     </g>
    </g>
   </g>
   <g id="matplotlib.axis_2">
    <g id="ytick_1">
     <g id="line2d_6">
      <defs>
       <path id="mb8ba111c53" d="M 0 0 
L -3.5 0 
" style="stroke: #000000; stroke-width: 0.8"/>
      </defs>
      <g>
       <use xlink:href="#mb8ba111c53" x="57.6" y="279.60972" style="stroke: #000000; stroke-width: 0.8"/>
      </g>
     </g>
     <g id="text_6">
      <!-- 52.50 -->
      <g transform="translate(21.971875 283.408939) scale(0.1 -0.1)">
       <defs>
        <path id="DejaVuSans-35" d="M 691 4666 
L 3169 4666 
L 3169 4134 
L 1269 4134 
L 1269 2991 
Q 1406 3038 1543 3061 
Q 1681 3084 1819 3084 
Q 2600 3084 3056 2656 
Q 3513 2228 3513 1497 
Q 3513 744 3044 326 
Q 2575 -91 1722 -91 
Q 1428 -91 1123 -41 
Q 819 9 494 109 
L 494 744 
Q 775 591 1075 516 
Q 1375 441 1709 441 
Q 2250 441 2565 725 
Q 2881 1009 2881 1497 
Q 2881 1984 2565 2268 
Q 2250 2553 1709 2553 
Q 1456 2553 1204 2497 
Q 953 2441 691 2322 
L 691 4666 
z
" transform="scale(0.015625)"/>
       </defs>
       <use xlink:href="#DejaVuSans-35"/>
       <use xlink:href="#DejaVuSans-32" x="63.623047"/>
       <use xlink:href="#DejaVuSans-2e" x="127.246094"/>
       <use xlink:href="#DejaVuSans-35" x="159.033203"/>
       <use xlink:href="#DejaVuSans-30" x="222.65625"/>
      </g>
     </g>
    </g>
    <g id="ytick_2">
     <g id="line2d_7">
      <g>
       <use xlink:href="#mb8ba111c53" x="57.6" y="225.91141" style="stroke: #000000; stroke-width: 0.8"/>
      </g>
     </g>
     <g id="text_7">
      <!-- 52.51 -->
      <g transform="translate(21.971875 229.710628) scale(0.1 -0.1)">
       <use xlink:href="#DejaVuSans-35"/>
       <use xlink:href="#DejaVuSans-32" x="63.623047"/>
       <use xlink:href="#DejaVuSans-2e" x="127.246094"/>
       <use xlink:href="#DejaVuSans-35" x="159.033203"/>
       <use xlink:href="#DejaVuSans-31" x="222.65625"/>
      </g>
     </g>
    </g>
    <g id="ytick_3">
     <g id="line2d_8">
      <g>
       <use xlink:href="#mb8ba111c53" x="57.6" y="172.213099" style="stroke: #000000; stroke-width: 0.8"/>
      </g>
     </g>
     <g id="text_8">
      <!-- 52.52 -->
      <g transform="translate(21.971875 176.012318) scale(0.1 -0.1)">
       <use xlink:href="#DejaVuSans-35"/>
       <use xlink:href="#DejaVuSans-32" x="63.623047"/>
       <use xlink:href="#DejaVuSans-2e" x="127.246094"/>
       <use xlink:href="#DejaVuSans-35" x="159.033203"/>
       <use xlink:href="#DejaVuSans-32" x="222.65625"/>
      </g>
     </g>
    </g>
    <g id="ytick_4">
     <g id="line2d_9">
      <g>
       <use xlink:href="#mb8ba111c53" x="57.6" y="118.514789" style="stroke: #000000; stroke-width: 0.8"/>
      </g>
     </g>
     <g id="text_9">
      <!-- 52.53 -->
      <g transform="translate(21.971875 122.314008) scale(0.1 -0.1)">
       <use xlink:href="#DejaVuSans-35"/>
       <use xlink:href="#DejaVuSans-32" x="63.623047"/>
       <use xlink:href="#DejaVuSans-2e" x="127.246094"/>
       <use xlink:href="#DejaVuSans-35" x="159.033203"/>
       <use xlink:href="#DejaVuSans-33" x="222.65625"/>
      </g>
     </g>
    </g>
    <g id="ytick_5">
     <g id="line2d_10">
      <g>
       <use xlink:href="#mb8ba111c53" x="57.6" y="64.816479" style="stroke: #000000; stroke-width: 0.8"/>
      </g>
     </g>
     <g id="text_10">
      <!-- 52.54 -->
      <g transform="translate(21.971875 68.615697) scale(0.1 -0.1)">
       <use xlink:href="#DejaVuSans-35"/>
       <use xlink:href="#DejaVuSans-32" x="63.623047"/>
       <use xlink:href="#DejaVuSans-2e" x="127.246094"/>
       <use xlink:href="#DejaVuSans-35" x="159.033203"/>
       <use xlink:href="#DejaVuSans-34" x="222.65625"/>
      </g>
     </g>
    </g>
   </g>
   <g id="patch_3">
    <path d="M 57.6 297.580858 
L 57.6 51.475142 
" style="fill: none; stroke: #000000; stroke-width: 0.8; stroke-linejoin: miter; stroke-linecap: square"/>
   </g>
   <g id="patch_4">
    <path d="M 414.72 297.580858 
L 414.72 51.475142 
" style="fill: none; stroke: #000000; stroke-width: 0.8; stroke-linejoin: miter; stroke-linecap: square"/>
   </g>
   <g id="patch_5">
    <path d="M 57.6 297.580858 
L 414.72 297.580858 
" style="fill: none; stroke: #000000; stroke-width: 0.8; stroke-linejoin: miter; stroke-linecap: square"/>
   </g>
   <g id="patch_6">
    <path d="M 57.6 51.475142 
L 414.72 51.475142 
" style="fill: none; stroke: #000000; stroke-width: 0.8; stroke-linejoin: miter; stroke-linecap: square"/>
   </g>
   <g id="text_11">
    <!-- Zentrum -->
    <g transform="translate(227.033816 187.5641) scale(0.12 -0.12)">
     <defs>
      <path id="DejaVuSans-5a" d="M 359 4666 
L 4025 4666 
L 4025 4184 
L 1075 531 
L 4097 531 
L 4097 0 
L 288 0 
L 288 481 
L 3238 4134 
L 359 4134 
L 359 4666 
z
" transform="scale(0.015625)"/>
      <path id="DejaVuSans-65" d="M 3597 1894 
L 3597 1613 
L 953 1613 
Q 991 1019 1311 708 
Q 1631 397 2203 397 
Q 2534 397 2845 478 
Q 3156 559 3463 722 
L 3463 178 
Q 3153 47 2828 -22 
Q 2503 -91 2169 -91 
Q 1331 -91 842 396 
Q 353 884 353 1716 
Q 353 2575 817 3079 
Q 1281 3584 2069 3584 
Q 2775 3584 3186 3129 
Q 3597 2675 3597 1894 
z
M 3022 2063 
Q 3016 2534 2758 2815 
Q 2500 3097 2075 3097 
Q 1594 3097 1305 2825 
Q 1016 2553 972 2059 
L 3022 2063 
z
" transform="scale(0.015625)"/>
      <path id="DejaVuSans-6e" d="M 3513 2113 
L 3513 0 
L 2938 0 
L 2938 2094 
Q 2938 2591 2744 2837 
Q 2550 3084 2163 3084 
Q 1697 3084 1428 2787 
Q 1159 2491 1159 1978 
L 1159 0 
L 581 0 
L 581 3500 
L 1159 3500 
L 1159 2956 
Q 1366 3272 1645 3428 
Q 1925 3584 2291 3584 
Q 2894 3584 3203 3211 
Q 3513 2838 3513 2113 
z
" transform="scale(0.015625)"/>
      <path id="DejaVuSans-74" d="M 1172 4494 
L 1172 3500 
L 2356 3500 
L 2356 3053 
L 1172 3053 
L 1172 1153 
Q 1172 725 1289 603 
Q 1406 481 1766 481 
L 2356 481 
L 2356 0 
L 1766 0 
Q 1100 0 847 248 
Q 594 497 594 1153 
L 594 3053 
L 172 3053 
L 172 3500 
L 594 3500 
L 594 4494 
L 1172 4494 
z
" transform="scale(0.015625)"/>
      <path id="DejaVuSans-72" d="M 2631 2963 
Q 2534 3019 2420 3045 
Q 2306 3072 2169 3072 
Q 1681 3072 1420 2755 
Q 1159 2438 1159 1844 
L 1159 0 
L 581 0 
L 581 3500 
L 1159 3500 
L 1159 2956 
Q 1341 3275 1631 3429 
Q 1922 3584 2338 3584 
Q 2397 3584 2469 3576 
Q 2541 3569 2628 3553 
L 2631 2963 
z
" transform="scale(0.015625)"/>
      <path id="DejaVuSans-75" d="M 544 1381 
L 544 3500 
L 1119 3500 
L 1119 1403 
Q 1119 906 1312 657 
Q 1506 409 1894 409 
Q 2359 409 2629 706 
Q 2900 1003 2900 1516 
L 2900 3500 
L 3475 3500 
L 3475 0 
L 2900 0 
L 2900 538 
Q 2691 219 2414 64 
Q 2138 -91 1772 -91 
Q 1169 -91 856 284 
Q 544 659 544 1381 
z
M 1991 3584 
L 1991 3584 
z
" transform="scale(0.015625)"/>
      <path id="DejaVuSans-6d" d="M 3328 2828 
Q 3544 3216 3844 3400 
Q 4144 3584 4550 3584 
Q 5097 3584 5394 3201 
Q 5691 2819 5691 2113 
L 5691 0 
L 5113 0 
L 5113 2094 
Q 5113 2597 4934 2840 
Q 4756 3084 4391 3084 
Q 3944 3084 3684 2787 
Q 3425 2491 3425 1978 
L 3425 0 
L 2847 0 
L 2847 2094 
Q 2847 2600 2669 2842 
Q 2491 3084 2119 3084 
Q 1678 3084 1418 2786 
Q 1159 2488 1159 1978 
L 1159 0 
L 581 0 
L 581 3500 
L 1159 3500 
L 1159 2956 
Q 1356 3278 1631 3431 
Q 1906 3584 2284 3584 
Q 2666 3584 2933 3390 
Q 3200 3197 3328 2828 
z
" transform="scale(0.015625)"/>
     </defs>
     <use xlink:href="#DejaVuSans-5a"/>
     <use xlink:href="#DejaVuSans-65" x="68.505859"/>
     <use xlink:href="#DejaVuSans-6e" x="130.029297"/>
     <use xlink:href="#DejaVuSans-74" x="193.408203"/>
     <use xlink:href="#DejaVuSans-72" x="232.617188"/>
     <use xlink:href="#DejaVuSans-75" x="273.730469"/>
     <use xlink:href="#DejaVuSans-6d" x="337.109375"/>
    </g>
   </g>
  </g>
 </g>
 <defs>
  <clipPath id="p4a21991133">
   <rect x="57.6" y="51.475142" width="357.12" height="246.105716"/>
  </clipPath>
 </defs>
</svg>
